<?xml version="1.0" encoding="utf-8"?>
<!DOCTYPE svg PUBLIC "-//W3C//DTD SVG 20010904//EN" "http://www.w3.org/TR/2001/REC-SVG-20010904/DTD/svg10.dtd">
<svg xmlns="http://www.w3.org/2000/svg" xml:space="preserve" xmlns:xlink="http://www.w3.org/1999/xlink" width="115" height="39.714" viewBox="0 0 115 39.714">
<desc></desc>
<rect x="0" y="0" width="115" height="39.714" style="fill:#ffffff;" />
<line fill="none" style="stroke:#000000; stroke-width:1;" x1="10.5" y1="0" x2="10.5" y2="35"/>
<line fill="none" style="stroke:#000000; stroke-width:1;" x1="12.5" y1="0" x2="12.5" y2="35"/>
<line fill="none" style="stroke:#000000; stroke-width:2;" x1="15" y1="0" x2="15" y2="35"/>
<line fill="none" style="stroke:#000000; stroke-width:3;" x1="18.5" y1="0" x2="18.5" y2="35"/>
<line fill="none" style="stroke:#000000; stroke-width:1;" x1="21.5" y1="0" x2="21.5" y2="30"/>
<line fill="none" style="stroke:#000000; stroke-width:4;" x1="25" y1="0" x2="25" y2="30"/>
<line fill="none" style="stroke:#000000; stroke-width:2;" x1="31" y1="0" x2="31" y2="30"/>
<line fill="none" style="stroke:#000000; stroke-width:1;" x1="33.5" y1="0" x2="33.5" y2="30"/>
<line fill="none" style="stroke:#000000; stroke-width:4;" x1="37" y1="0" x2="37" y2="30"/>
<line fill="none" style="stroke:#000000; stroke-width:1;" x1="40.5" y1="0" x2="40.5" y2="30"/>
<line fill="none" style="stroke:#000000; stroke-width:1;" x1="43.5" y1="0" x2="43.5" y2="30"/>
<line fill="none" style="stroke:#000000; stroke-width:2;" x1="47" y1="0" x2="47" y2="30"/>
<line fill="none" style="stroke:#000000; stroke-width:2;" x1="50" y1="0" x2="50" y2="30"/>
<line fill="none" style="stroke:#000000; stroke-width:1;" x1="54.5" y1="0" x2="54.5" y2="30"/>
<line fill="none" style="stroke:#000000; stroke-width:1;" x1="56.5" y1="0" x2="56.5" y2="35"/>
<line fill="none" style="stroke:#000000; stroke-width:1;" x1="58.5" y1="0" x2="58.5" y2="35"/>
<line fill="none" style="stroke:#000000; stroke-width:3;" x1="61.5" y1="0" x2="61.5" y2="30"/>
<line fill="none" style="stroke:#000000; stroke-width:1;" x1="65.5" y1="0" x2="65.5" y2="30"/>
<line fill="none" style="stroke:#000000; stroke-width:3;" x1="68.5" y1="0" x2="68.5" y2="30"/>
<line fill="none" style="stroke:#000000; stroke-width:1;" x1="72.5" y1="0" x2="72.5" y2="30"/>
<line fill="none" style="stroke:#000000; stroke-width:3;" x1="75.5" y1="0" x2="75.5" y2="30"/>
<line fill="none" style="stroke:#000000; stroke-width:1;" x1="79.5" y1="0" x2="79.5" y2="30"/>
<line fill="none" style="stroke:#000000; stroke-width:1;" x1="81.5" y1="0" x2="81.5" y2="30"/>
<line fill="none" style="stroke:#000000; stroke-width:1;" x1="86.5" y1="0" x2="86.5" y2="30"/>
<line fill="none" style="stroke:#000000; stroke-width:2;" x1="89" y1="0" x2="89" y2="30"/>
<line fill="none" style="stroke:#000000; stroke-width:2;" x1="93" y1="0" x2="93" y2="30"/>
<line fill="none" style="stroke:#000000; stroke-width:3;" x1="96.5" y1="0" x2="96.5" y2="35"/>
<line fill="none" style="stroke:#000000; stroke-width:1;" x1="100.5" y1="0" x2="100.5" y2="35"/>
<line fill="none" style="stroke:#000000; stroke-width:1;" x1="102.5" y1="0" x2="102.5" y2="35"/>
<line fill="none" style="stroke:#000000; stroke-width:1;" x1="104.5" y1="0" x2="104.5" y2="35"/>
<text x="5" y="37.763" text-anchor="middle" style="font-family: Tahoma; font-size: 9px; stroke: none; fill:#000000;">8</text>
<text x="37.75" y="37.763" text-anchor="middle" style="font-family: Tahoma; font-size: 9px; stroke: none; fill:#000000;">60325</text>
<text x="77.25" y="37.763" text-anchor="middle" style="font-family: Tahoma; font-size: 9px; stroke: none; fill:#000000;">00031</text>
<text x="110" y="37.763" text-anchor="middle" style="font-family: Tahoma; font-size: 9px; stroke: none; fill:#000000;">0</text>
</svg>