<?xml version="1.0" encoding="utf-8"?>
<!-- Generator: Adobe Illustrator 22.0.1, SVG Export Plug-In . SVG Version: 6.00 Build 0)  -->
<svg version="1.1" id="Layer_1" xmlns="http://www.w3.org/2000/svg" xmlns:xlink="http://www.w3.org/1999/xlink" x="0px" y="0px"
	 viewBox="0 0 115 40" style="enable-background:new 0 0 115 40;" xml:space="preserve">
<style type="text/css">
	.st0{fill:#FFFFFF;}
	.st1{fill:none;stroke:#000000;}
	.st2{fill:none;stroke:#000000;stroke-width:2;}
	.st3{fill:none;stroke:#000000;stroke-width:3;}
	.st4{fill:none;stroke:#000000;stroke-width:4;}
	.st5{font-family:'Tahoma';}
	.st6{font-size:9px;}
</style>
<desc></desc>
<rect y="0.1" class="st0" width="115" height="39.7"/>
<line class="st1" x1="10.5" y1="0.1" x2="10.5" y2="35.1"/>
<line class="st1" x1="12.5" y1="0.1" x2="12.5" y2="35.1"/>
<line class="st2" x1="15" y1="0.1" x2="15" y2="35.1"/>
<line class="st3" x1="18.5" y1="0.1" x2="18.5" y2="35.1"/>
<line class="st1" x1="21.5" y1="0.1" x2="21.5" y2="30.1"/>
<line class="st4" x1="25" y1="0.1" x2="25" y2="30.1"/>
<line class="st2" x1="31" y1="0.1" x2="31" y2="30.1"/>
<line class="st1" x1="33.5" y1="0.1" x2="33.5" y2="30.1"/>
<line class="st4" x1="37" y1="0.1" x2="37" y2="30.1"/>
<line class="st1" x1="40.5" y1="0.1" x2="40.5" y2="30.1"/>
<line class="st1" x1="43.5" y1="0.1" x2="43.5" y2="30.1"/>
<line class="st2" x1="47" y1="0.1" x2="47" y2="30.1"/>
<line class="st2" x1="50" y1="0.1" x2="50" y2="30.1"/>
<line class="st1" x1="54.5" y1="0.1" x2="54.5" y2="30.1"/>
<line class="st1" x1="56.5" y1="0.1" x2="56.5" y2="35.1"/>
<line class="st1" x1="58.5" y1="0.1" x2="58.5" y2="35.1"/>
<line class="st3" x1="61.5" y1="0.1" x2="61.5" y2="30.1"/>
<line class="st1" x1="65.5" y1="0.1" x2="65.5" y2="30.1"/>
<line class="st3" x1="68.5" y1="0.1" x2="68.5" y2="30.1"/>
<line class="st1" x1="72.5" y1="0.1" x2="72.5" y2="30.1"/>
<line class="st3" x1="75.5" y1="0.1" x2="75.5" y2="30.1"/>
<line class="st1" x1="79.5" y1="0.1" x2="79.5" y2="30.1"/>
<line class="st1" x1="81.5" y1="0.1" x2="81.5" y2="30.1"/>
<line class="st1" x1="86.5" y1="0.1" x2="86.5" y2="30.1"/>
<line class="st2" x1="89" y1="0.1" x2="89" y2="30.1"/>
<line class="st2" x1="93" y1="0.1" x2="93" y2="30.1"/>
<line class="st3" x1="96.5" y1="0.1" x2="96.5" y2="35.1"/>
<line class="st1" x1="100.5" y1="0.1" x2="100.5" y2="35.1"/>
<line class="st1" x1="102.5" y1="0.1" x2="102.5" y2="35.1"/>
<line class="st1" x1="104.5" y1="0.1" x2="104.5" y2="35.1"/>
<text transform="matrix(1 0 0 1 2.5435 37.906)" class="st5 st6">8</text>
<text transform="matrix(1 0 0 1 25.4673 37.906)" class="st5 st6">60325</text>
<text transform="matrix(1 0 0 1 64.9673 37.906)" class="st5 st6">00031</text>
<text transform="matrix(1 0 0 1 107.5435 37.906)" class="st5 st6">0</text>
</svg>
