<?xml version="1.0" encoding="utf-8"?>
<!-- Generator: Adobe Illustrator 22.0.1, SVG Export Plug-In . SVG Version: 6.00 Build 0)  -->
<svg version="1.1" id="upcCode" xmlns="http://www.w3.org/2000/svg" xmlns:xlink="http://www.w3.org/1999/xlink" x="0px" y="0px"
	 viewBox="0 0 115 40" style="enable-background:new 0 0 115 40;" xml:space="preserve">
<style type="text/css">
	.st0{font-family:'Tahoma';}
	.st1{font-size:9px;}
</style>
<g transform="translate(0)">
	<rect x="10" width="1" height="34.4"/>
</g>
<g transform="translate(2)">
	<polygon points="9,0 10,0 10,0 	"/>
</g>
<g transform="translate(4)">
	<rect x="8" width="1" height="34.4"/>
</g>
<g transform="translate(6)">
	<polygon points="7,0 8,0 8,0 	"/>
</g>
<g transform="translate(8)">
	<rect x="6" width="1" height="29.6"/>
</g>
<g transform="translate(10)">
	<rect x="5" width="1" height="29.6"/>
</g>
<g transform="translate(12)">
	<polygon points="4,0 5,0 5,0 	"/>
</g>
<g transform="translate(14)">
	<rect x="3" width="1" height="29.6"/>
</g>
<g transform="translate(16)">
	<rect x="2" width="1" height="29.6"/>
</g>
<g transform="translate(18)">
	<rect x="1.1" width="1" height="29.6"/>
</g>
<g transform="translate(20)">
	<polygon points="0.1,0 1.1,0 1.1,0 	"/>
</g>
<g transform="translate(22)">
	<rect x="-0.9" width="1" height="29.6"/>
</g>
<g transform="translate(24)">
	<polygon points="-1.9,0 -0.9,0 -0.9,0 	"/>
</g>
<g transform="translate(26)">
	<rect x="-2.9" width="1" height="29.6"/>
</g>
<g transform="translate(28)">
	<rect x="-3.9" width="1" height="29.6"/>
</g>
<g transform="translate(30)">
	<rect x="-4.9" width="1" height="29.6"/>
</g>
<g transform="translate(32)">
	<rect x="-5.9" width="1" height="29.6"/>
</g>
<g transform="translate(34)">
	<polygon points="-6.9,0 -5.9,0 -5.9,0 	"/>
</g>
<g transform="translate(36)">
	<polygon points="-7.9,0 -6.9,0 -6.9,0 	"/>
</g>
<g transform="translate(38)">
	<polygon points="-8.9,0 -7.9,0 -7.9,0 	"/>
</g>
<g transform="translate(40)">
	<rect x="-9.9" width="1" height="29.6"/>
</g>
<g transform="translate(42)">
	<rect x="-10.9" width="1" height="29.6"/>
</g>
<g transform="translate(44)">
	<polygon points="-11.9,0 -10.9,0 -10.9,0 	"/>
</g>
<g transform="translate(46)">
	<rect x="-12.9" width="1" height="29.6"/>
</g>
<g transform="translate(48)">
	<polygon points="-13.9,0 -12.9,0 -12.9,0 	"/>
</g>
<g transform="translate(50)">
	<rect x="-14.9" width="1" height="29.6"/>
</g>
<g transform="translate(52)">
	<rect x="-15.9" width="1" height="29.6"/>
</g>
<g transform="translate(54)">
	<rect x="-16.9" width="1" height="29.6"/>
</g>
<g transform="translate(56)">
	<rect x="-17.9" width="1" height="29.6"/>
</g>
<g transform="translate(58)">
	<polygon points="-18.9,0 -17.9,0 -17.9,0 	"/>
</g>
<g transform="translate(60)">
	<rect x="-19.9" width="1" height="29.6"/>
</g>
<g transform="translate(62)">
	<polygon points="-20.9,0 -19.9,0 -19.9,0 	"/>
</g>
<g transform="translate(64)">
	<polygon points="-21.9,0 -20.9,0 -20.9,0 	"/>
</g>
<g transform="translate(66)">
	<rect x="-22.9" width="1" height="29.6"/>
</g>
<g transform="translate(68)">
	<polygon points="-23.9,0 -22.9,0 -22.9,0 	"/>
</g>
<g transform="translate(70)">
	<polygon points="-24.9,0 -23.9,0 -23.9,0 	"/>
</g>
<g transform="translate(72)">
	<rect x="-25.9" width="1" height="29.6"/>
</g>
<g transform="translate(74)">
	<rect x="-26.9" width="1" height="29.6"/>
</g>
<g transform="translate(76)">
	<polygon points="-27.9,0 -26.9,0 -26.9,0 	"/>
</g>
<g transform="translate(78)">
	<rect x="-28.9" width="1" height="29.6"/>
</g>
<g transform="translate(80)">
	<rect x="-29.9" width="1" height="29.6"/>
</g>
<g transform="translate(82)">
	<polygon points="-30.9,0 -29.9,0 -29.9,0 	"/>
</g>
<g transform="translate(84)">
	<polygon points="-31.9,0 -30.8,0 -30.8,0 	"/>
</g>
<g transform="translate(86)">
	<polygon points="-32.8,0 -31.8,0 -31.8,0 	"/>
</g>
<g transform="translate(88)">
	<rect x="-33.8" width="1" height="29.6"/>
</g>
<g transform="translate(90)">
	<polygon points="-34.8,0 -33.8,0 -33.8,0 	"/>
</g>
<g transform="translate(92)">
	<rect x="-35.8" width="1" height="34.4"/>
</g>
<g transform="translate(94)">
	<polygon points="-36.8,0 -35.8,0 -35.8,0 	"/>
</g>
<g transform="translate(96)">
	<rect x="-37.8" width="1" height="34.4"/>
</g>
<g transform="translate(98)">
	<polygon points="-38.8,0 -37.8,0 -37.8,0 	"/>
</g>
<g transform="translate(100)">
	<rect x="-39.8" width="1" height="29.6"/>
</g>
<g transform="translate(102)">
	<rect x="-40.8" width="1" height="29.6"/>
</g>
<g transform="translate(104)">
	<rect x="-41.8" width="1" height="29.6"/>
</g>
<g transform="translate(106)">
	<polygon points="-42.8,0 -41.8,0 -41.8,0 	"/>
</g>
<g transform="translate(108)">
	<polygon points="-43.8,0 -42.8,0 -42.8,0 	"/>
</g>
<g transform="translate(110)">
	<rect x="-44.8" width="1" height="29.6"/>
</g>
<g transform="translate(112)">
	<polygon points="-45.8,0 -44.8,0 -44.8,0 	"/>
</g>
<g transform="translate(114)">
	<rect x="-46.8" width="1" height="29.6"/>
</g>
<g transform="translate(116)">
	<rect x="-47.8" width="1" height="29.6"/>
</g>
<g transform="translate(118)">
	<rect x="-48.8" width="1" height="29.6"/>
</g>
<g transform="translate(120)">
	<polygon points="-49.8,0 -48.8,0 -48.8,0 	"/>
</g>
<g transform="translate(122)">
	<polygon points="-50.8,0 -49.8,0 -49.8,0 	"/>
</g>
<g transform="translate(124)">
	<rect x="-51.8" width="1" height="29.6"/>
</g>
<g transform="translate(126)">
	<polygon points="-52.8,0 -51.8,0 -51.8,0 	"/>
</g>
<g transform="translate(128)">
	<rect x="-53.8" width="1" height="29.6"/>
</g>
<g transform="translate(130)">
	<rect x="-54.8" width="1" height="29.6"/>
</g>
<g transform="translate(132)">
	<rect x="-55.8" width="1" height="29.6"/>
</g>
<g transform="translate(134)">
	<polygon points="-56.8,0 -55.8,0 -55.8,0 	"/>
</g>
<g transform="translate(136)">
	<polygon points="-57.8,0 -56.8,0 -56.8,0 	"/>
</g>
<g transform="translate(138)">
	<rect x="-58.8" width="1" height="29.6"/>
</g>
<g transform="translate(140)">
	<polygon points="-59.8,0 -58.8,0 -58.8,0 	"/>
</g>
<g transform="translate(142)">
	<rect x="-60.8" width="1" height="29.6"/>
</g>
<g transform="translate(144)">
	<polygon points="-61.8,0 -60.8,0 -60.8,0 	"/>
</g>
<g transform="translate(146)">
	<polygon points="-62.8,0 -61.8,0 -61.8,0 	"/>
</g>
<g transform="translate(148)">
	<polygon points="-63.8,0 -62.8,0 -62.8,0 	"/>
</g>
<g transform="translate(150)">
	<polygon points="-64.8,0 -63.8,0 -63.8,0 	"/>
</g>
<g transform="translate(152)">
	<rect x="-65.8" width="1" height="29.6"/>
</g>
<g transform="translate(154)">
	<polygon points="-66.8,0 -65.7,0 -65.7,0 	"/>
</g>
<g transform="translate(156)">
	<rect x="-67.7" width="1" height="29.6"/>
</g>
<g transform="translate(158)">
	<rect x="-68.7" width="1" height="29.6"/>
</g>
<g transform="translate(160)">
	<polygon points="-69.7,0 -68.7,0 -68.7,0 	"/>
</g>
<g transform="translate(162)">
	<rect x="-70.7" width="1" height="29.6"/>
</g>
<g transform="translate(164)">
	<rect x="-71.7" width="1" height="29.6"/>
</g>
<g transform="translate(166)">
	<polygon points="-72.7,0 -71.7,0 -71.7,0 	"/>
</g>
<g transform="translate(168)">
	<polygon points="-73.7,0 -72.7,0 -72.7,0 	"/>
</g>
<g transform="translate(170)">
	<rect x="-74.7" width="1" height="29.6"/>
</g>
<g transform="translate(172)">
	<polygon points="-75.7,0 -74.7,0 -74.7,0 	"/>
</g>
<g transform="translate(174)">
	<polygon points="-76.7,0 -75.7,0 -75.7,0 	"/>
</g>
<g transform="translate(176)">
	<polygon points="-77.7,0 -76.7,0 -76.7,0 	"/>
</g>
<g transform="translate(178)">
	<rect x="-78.7" width="1" height="29.6"/>
</g>
<g transform="translate(180)">
	<polygon points="-79.7,0 -78.7,0 -78.7,0 	"/>
</g>
<g transform="translate(182)">
	<polygon points="-80.7,0 -79.7,0 -79.7,0 	"/>
</g>
<g transform="translate(184)">
	<rect x="-81.7" width="1" height="34.4"/>
</g>
<g transform="translate(186)">
	<polygon points="-82.7,0 -81.7,0 -81.7,0 	"/>
</g>
<g transform="translate(188)">
	<rect x="-83.7" width="1" height="34.4"/>
</g>
<g>
	<text transform="matrix(1 0 0 1 2.0437 37.7564)" class="st0 st1">8</text>
</g>
<g>
	<text transform="matrix(1 0 0 1 21.8132 37.7564)" class="st0 st1">60325</text>
</g>
<g>
	<text transform="matrix(1 0 0 1 67.9452 37.7564)" class="st0 st1">00032</text>
</g>
<g>
	<text transform="matrix(1 0 0 1 108.3503 37.7564)" class="st0 st1">7</text>
</g>
</svg>
