<?xml version="1.0" encoding="utf-8"?>
<!-- Generator: Adobe Illustrator 16.0.0, SVG Export Plug-In . SVG Version: 6.00 Build 0)  -->
<!DOCTYPE svg PUBLIC "-//W3C//DTD SVG 1.1//EN" "http://www.w3.org/Graphics/SVG/1.1/DTD/svg11.dtd">
<svg version="1.1" id="Layer_1" xmlns="http://www.w3.org/2000/svg" xmlns:xlink="http://www.w3.org/1999/xlink" x="0px" y="0px"
	 width="65.537px" height="65.551px" viewBox="18.526 2.225 65.537 65.551" enable-background="new 18.526 2.225 65.537 65.551"
	 xml:space="preserve">
<path d="M51.297,67.775c-10.519,0-19.648-7.828-21.235-18.211c-0.164-1.076-0.247-2.176-0.247-3.271
	c0-8.654,5.109-16.369,13.049-19.757c0.224-0.422,0.361-0.877,0.361-1.219V14.51c0-0.388-0.328-0.716-0.718-0.716h-0.25
	c-1.62,0-2.938-1.318-2.938-2.938V7.721c0-1.621,1.318-2.939,2.938-2.939h18.075c1.62,0,2.938,1.318,2.938,2.939v3.135
	c0,1.621-1.316,2.938-2.938,2.938h-0.25c-0.391,0-0.717,0.328-0.717,0.716v10.808c0,0.343,0.139,0.797,0.359,1.219
	c7.941,3.387,13.049,11.102,13.049,19.757C72.776,58.139,63.142,67.775,51.297,67.775z M42.259,7.004
	c-0.388,0-0.716,0.328-0.716,0.717v3.135c0,0.388,0.328,0.716,0.716,0.716h0.25c1.621,0,2.938,1.318,2.938,2.938v10.808
	c0,0.846-0.328,1.858-0.883,2.709l-0.189,0.292L44.05,28.45c-7.297,2.967-12.013,9.971-12.013,17.844
	c0,0.981,0.075,1.97,0.222,2.935c1.422,9.308,9.606,16.324,19.038,16.324c10.619,0,19.259-8.639,19.259-19.259
	c0-7.873-4.716-14.877-12.013-17.844l-0.321-0.131l-0.191-0.292c-0.553-0.851-0.885-1.864-0.885-2.71V14.51
	c0-1.621,1.317-2.938,2.938-2.938h0.25c0.388,0,0.716-0.328,0.716-0.716V7.72c0-0.388-0.328-0.717-0.716-0.717L42.259,7.004
	L42.259,7.004z"/>
<path d="M58.937,37.852c-1.969,0.152-4.453,0.637-7.643,1.652c-8.598,2.74-15.113-0.076-15.732-0.16
	c-0.008,0.016-0.016,0.03-0.021,0.047c0.024,0.024,0,0-0.085,0.182c-0.109,0.281,0,0-0.109,0.281c-0.805,1.99-1.25,4.164-1.25,6.44
	c0,9.5,7.699,17.202,17.2,17.202c9.5,0,17.201-7.701,17.201-17.202c0-2.334-0.468-4.56-1.31-6.587
	c-0.244-0.057-0.455-0.122-0.614-0.202c-0.675-0.338-1.451-0.812-2.562-1.175c-1.713-0.479-1.963-0.57-2.932-0.57"/>
</svg>
