<?xml version="1.0" encoding="utf-8"?>
<!-- Generator: Adobe Illustrator 16.0.0, SVG Export Plug-In . SVG Version: 6.00 Build 0)  -->
<!DOCTYPE svg PUBLIC "-//W3C//DTD SVG 1.1//EN" "http://www.w3.org/Graphics/SVG/1.1/DTD/svg11.dtd">
<svg version="1.1" id="Layer_1" xmlns="http://www.w3.org/2000/svg" xmlns:xlink="http://www.w3.org/1999/xlink" x="0px" y="0px"
	 width="95.244px" height="95.244px" viewBox="18.037 -3.451 95.244 95.244" enable-background="new 18.037 -3.451 95.244 95.244"
	 xml:space="preserve">
<path d="M65.659-3.295l-0.811,0.232L20.404,9.622l-2.151,0.603v2.245c0,29.104,8.137,48.874,18.125,61.365
	c9.988,12.493,21.459,17.802,29.282,17.802c7.816,0,19.294-5.295,29.281-17.778c9.988-12.484,18.125-32.247,18.125-61.389v-2.245
	l-2.151-0.603L66.47-3.063L65.659-3.295z M65.659,2.862l41.411,11.829c-0.412,26.749-7.943,44.445-16.759,55.463
	c-9.066,11.33-19.805,15.555-24.652,15.555c-4.844,0-15.585-4.236-24.652-15.578C32.19,59.104,24.659,41.405,24.248,14.691
	L65.659,2.862z M65.659,5.941v76.805c3.703,0,13.176-3.037,22.36-14.442c6.891-8.667,15.273-24.5,16.089-51.39L65.659,5.941
	L65.659,5.941z"/>
</svg>
