<?xml version="1.0" encoding="utf-8"?>
<!-- Generator: Adobe Illustrator 16.0.0, SVG Export Plug-In . SVG Version: 6.00 Build 0)  -->
<!DOCTYPE svg PUBLIC "-//W3C//DTD SVG 1.1//EN" "http://www.w3.org/Graphics/SVG/1.1/DTD/svg11.dtd">
<svg version="1.1" id="Layer_1" xmlns="http://www.w3.org/2000/svg" xmlns:xlink="http://www.w3.org/1999/xlink" x="0px" y="0px"
	 width="264.756px" height="264.756px" viewBox="12.278 10.597 264.756 264.756"
	 enable-background="new 12.278 10.597 264.756 264.756" xml:space="preserve">
<path d="M130.23,118.063c4.734-3.605,10.691-6.31,17.572-7.873c15.342-3.485,36.016-0.274,67.353,13.703
	c-3.837-16.208-1.044-34.277,5.468-51.055c7.023-18.099,18.291-34.828,31.158-46.522c-23.582-10.825-40.5-15.255-52.664-15.658
	c-0.559-0.019-1.104-0.032-1.645-0.035l0.002,0c-3.781-0.018-7.107,0.354-10.035,1.021c-13.385,3.042-20.172,12.17-28.2,22.786
	C151.21,45.045,141.9,57.125,124.481,60.71c-16.479,3.389-39.073-0.778-73.962-17.25c-5.543,24.847-18.495,71.208-33.72,98.911
	c33.27,15.777,53.838,19.336,66.99,17.093c0.005,0,0.011,0.003,0.017,0C99.563,155.897,101.063,136.813,130.23,118.063
	L130.23,118.063 M268.084,18.454c-0.476-0.014-0.97,0.034-1.476,0.147c-2.423,0.541-4.949,2.449-6.689,6.144l-99.626,250.583h13.071
	l98.453-247.996C273.742,21.71,271.403,18.551,268.084,18.454L268.084,18.454z"/>
</svg>
