<?xml version="1.0" encoding="utf-8"?>
<!-- Generator: Adobe Illustrator 16.0.0, SVG Export Plug-In . SVG Version: 6.00 Build 0)  -->
<!DOCTYPE svg PUBLIC "-//W3C//DTD SVG 1.1//EN" "http://www.w3.org/Graphics/SVG/1.1/DTD/svg11.dtd">
<svg version="1.1" id="Layer_1" xmlns="http://www.w3.org/2000/svg" xmlns:xlink="http://www.w3.org/1999/xlink" x="0px" y="0px"
	 width="68.939px" height="68.939px" viewBox="16.327 2.168 68.939 68.939" enable-background="new 16.327 2.168 68.939 68.939"
	 xml:space="preserve">
<g>
	<path d="M50.879,18.243c0,0-4.445,4.28-2.963,10.947c0,0-2.798-0.33-3.786,1.893c-0.658,1.563-0.165,3.457,1.317,4.444
		c0.741,0.494,1.811,0.741,3.292,0.329c0,0-1.152,10.206-12.839,2.634c0,0,2.222-3.127,0.165-5.103
		c-1.811-1.728-3.375-0.247-3.951,1.399c-0.412,1.234-0.247,2.798,2.222,4.115c0,0-1.152,12.757-10.206,2.304
		c0,0,0.576-0.576,0.988-1.399c1.152-2.387-2.058-4.527-3.786-2.469c0,0,0,0.083-0.082,0.083c0,0-2.058-2.387-4.28-2.14
		c-0.576,0.083-0.823,0.741-0.494,1.152c2.469,2.798,4.033,3.786,10.782,18.601h23.622"/>
	<circle cx="34.253" cy="35.856" r="3.127"/>
	<circle cx="47.339" cy="32.564" r="3.704"/>
	<path d="M22.401,36.268c-1.481,0-2.634,0.988-3.045,2.304c0.412,0,0.905,0.165,1.152,0.412c0.247,0.247,0.412,0.494,0.658,0.741
		c0.083,0.083,0.165,0.247,0.247,0.33c0,0,0,0,0,0.082l0,0c0.083,0.083,0.083,0.083,0,0l0,0l0.083,0.083
		c0.082,0.082,0.165,0.165,0.247,0.165c0.247,0.165,0.576,0.412,0.741,0.658c0.33,0.412,0.494,0.988,0.33,1.481
		c1.481-0.247,2.633-1.563,2.633-3.127C25.529,37.667,24.129,36.268,22.401,36.268z"/>
	<g>
		<path d="M50.714,18.243c0,0,4.444,4.28,2.963,10.947c0,0,2.798-0.33,3.786,1.893c0.658,1.563,0.164,3.457-1.316,4.444
			c-0.741,0.494-1.811,0.741-3.293,0.329c0,0,1.152,10.206,12.84,2.634c0,0-2.223-3.127-0.164-5.103
			c1.811-1.728,3.374-0.247,3.95,1.399c0.411,1.234,0.247,2.798-2.222,4.115c0,0,1.152,12.757,10.205,2.304
			c0,0-0.576-0.576-0.988-1.399c-1.151-2.387,2.059-4.527,3.787-2.469c0,0,0,0.083,0.082,0.083c0,0,2.058-2.387,4.279-2.14
			c0.576,0.083,0.823,0.741,0.494,1.152c-2.469,2.798-4.033,3.786-10.781,18.601H50.714"/>
		<circle cx="67.34" cy="35.856" r="3.127"/>
		<circle cx="54.253" cy="32.564" r="3.704"/>
		<path d="M79.191,36.268c1.481,0,2.634,0.988,3.045,2.304c-0.411,0-0.905,0.165-1.152,0.412c-0.246,0.247-0.411,0.494-0.658,0.741
			c-0.082,0.083-0.164,0.247-0.246,0.33c0,0,0,0,0,0.082l0,0c-0.083,0.083-0.083,0.083,0,0l0,0l-0.083,0.083
			c-0.083,0.082-0.165,0.082-0.247,0.165c-0.246,0.165-0.576,0.412-0.74,0.658c-0.33,0.412-0.494,0.988-0.33,1.481
			c-1.48-0.247-2.633-1.563-2.633-3.127C76.064,37.667,77.463,36.268,79.191,36.268z"/>
	</g>
</g>
</svg>
