<?xml version="1.0" encoding="utf-8"?>
<!-- Generator: Adobe Illustrator 16.0.0, SVG Export Plug-In . SVG Version: 6.00 Build 0)  -->
<!DOCTYPE svg PUBLIC "-//W3C//DTD SVG 1.1//EN" "http://www.w3.org/Graphics/SVG/1.1/DTD/svg11.dtd">
<svg version="1.1" id="Layer_1" xmlns="http://www.w3.org/2000/svg" xmlns:xlink="http://www.w3.org/1999/xlink" x="0px" y="0px"
	 width="100.006px" height="100.006px" viewBox="-0.004 -0.003 100.006 100.006"
	 enable-background="new -0.004 -0.003 100.006 100.006" xml:space="preserve">
<g id="Your_Icon">
	<path d="M39.702,49.123L23.537,65.288l-8.193-8.193l-9.096,0.31l12.587,12.585l2.608,2.607L6.814,87.222
		c-1.795-0.249-3.683,0.293-5.062,1.675c-2.339,2.341-2.339,6.132-0.003,8.473c2.342,2.34,6.135,2.34,8.473,0
		c1.383-1.384,1.926-3.269,1.678-5.065L26.523,77.68l2.606,2.605l12.587,12.588l0.311-9.096l-8.193-8.194l16.161-16.165
		l16.169,16.168l-8.192,8.192l0.31,9.096l12.585-12.586l2.606-2.607l14.626,14.625c-0.249,1.796,0.291,3.681,1.674,5.063
		c2.339,2.34,6.131,2.34,8.47,0.001c2.343-2.342,2.343-6.133,0-8.474c-1.38-1.382-3.267-1.924-5.062-1.673L78.556,72.599
		l2.604-2.604l12.589-12.589l-9.098-0.309l-8.194,8.193L60.292,49.122L97.48,11.936l0.761-11.06l-42.758,43.44l-4.728,4.801
		l-0.762,0.773l-4.723,4.801L29.232,70.983l-1.098-1.099l16.289-16.038l4.809-4.729l0.762-0.749l4.807-4.734l43.44-42.758
		L87.188,1.641L49.995,38.829L12.809,1.641L1.749,0.877l43.44,42.758l-0.684,0.682L1.748,0.878l0.768,11.06L39.702,49.123z
		 M55.565,53.852l16.293,16.039l-1.098,1.098L54.722,54.692L55.565,53.852z"/>
</g>
</svg>
