<?xml version="1.0" encoding="utf-8"?>
<!-- Generator: Adobe Illustrator 16.0.0, SVG Export Plug-In . SVG Version: 6.00 Build 0)  -->
<!DOCTYPE svg PUBLIC "-//W3C//DTD SVG 1.1//EN" "http://www.w3.org/Graphics/SVG/1.1/DTD/svg11.dtd">
<svg version="1.1" id="Your_Icon" xmlns="http://www.w3.org/2000/svg" xmlns:xlink="http://www.w3.org/1999/xlink" x="0px" y="0px"
	 width="74.069px" height="74.075px" viewBox="14.262 -2.593 74.069 74.075" enable-background="new 14.262 -2.593 74.069 74.075"
	 xml:space="preserve">
<path d="M80.273,60.932c-3.253-1.188-3.552,1.654-9.41-0.479l-11.467-4.174l11.467-4.174c5.859-2.129,6.155,0.709,9.412-0.477
	c1.299-0.473,2.129-2.248,1.654-3.552c-0.473-1.302-0.799-1.182-1.271-2.484c-0.475-1.304-0.148-1.421-0.624-2.722
	c-0.474-1.305-2.249-2.131-3.552-1.654c-3.254,1.182-1.657,3.55-7.516,5.683l-17.67,6.433l-17.673-6.433
	c-5.858-2.132-4.259-4.501-7.515-5.685c-1.301-0.473-3.076,0.354-3.55,1.657c-0.477,1.3-0.15,1.419-0.622,2.721
	c-0.474,1.301-0.801,1.185-1.276,2.485c-0.473,1.304,0.356,3.078,1.658,3.552c3.256,1.185,3.551-1.656,9.41,0.476l11.467,4.173
	l-11.467,4.175c-5.858,2.132-6.156-0.71-9.41,0.476c-1.301,0.475-2.13,2.249-1.655,3.553c0.471,1.303,0.797,1.184,1.273,2.484
	c0.473,1.301,0.148,1.422,0.619,2.725c0.476,1.303,2.251,2.129,3.554,1.656c3.256-1.188,1.655-3.553,7.514-5.686l17.673-6.434
	l17.672,6.432c5.857,2.137,4.26,4.5,7.516,5.687c1.299,0.473,3.076-0.354,3.551-1.657c0.475-1.301,0.146-1.42,0.624-2.721
	c0.474-1.305,0.8-1.186,1.272-2.486C82.406,63.179,81.577,61.402,80.273,60.932z"/>
<path d="M51.297-2.593c-9.819,0-17.778,7.959-17.778,17.778v15.556c0,1.63,0.98,3.867,2.177,4.973l5.274,4.87
	c1.198,1.105,2.511,3.176,2.918,4.602c0.407,1.426,2.074,2.593,3.704,2.593h7.407c1.63,0,3.296-1.167,3.704-2.593
	c0.407-1.426,1.72-3.497,2.918-4.602l5.274-4.87c1.199-1.105,2.179-3.343,2.179-4.973V15.185
	C69.074,5.367,61.115-2.593,51.297-2.593z M42.749,33.704c-2.863,0-4.786-2.394-4.786-4.848c0-2.455,2.322-4.041,5.185-4.041
	c2.864,0,5.186,1.586,5.186,4.041C48.333,31.31,45.613,33.704,42.749,33.704z M51.297,40.371c-1.482,0-2.223-0.741-2.223-2.223
	s1.481-4.444,2.223-4.444c0.74,0,2.222,2.963,2.222,4.444S52.777,40.371,51.297,40.371z M59.843,33.704
	c-2.862,0-5.583-2.394-5.583-4.848c0-2.455,2.32-4.041,5.185-4.041s5.185,1.586,5.185,4.041
	C64.629,31.31,62.707,33.704,59.843,33.704z"/>
</svg>
