<?xml version="1.0" encoding="utf-8"?>
<!-- Generator: Adobe Illustrator 16.0.0, SVG Export Plug-In . SVG Version: 6.00 Build 0)  -->
<!DOCTYPE svg PUBLIC "-//W3C//DTD SVG 1.1//EN" "http://www.w3.org/Graphics/SVG/1.1/DTD/svg11.dtd">
<svg version="1.1" id="Layer_1" xmlns="http://www.w3.org/2000/svg" xmlns:xlink="http://www.w3.org/1999/xlink" x="0px" y="0px"
	 width="66.666px" height="66.671px" viewBox="17.963 1.109 66.666 66.671" enable-background="new 17.963 1.109 66.666 66.671"
	 xml:space="preserve">
<g id="Captions">
</g>
<g id="Your_Icon">
	<path d="M84.322,33.457c-11.179-14.625-32.11-14.821-32.997-14.822h-0.001H51.27c-0.889,0.001-21.819,0.198-32.999,14.822
		l-0.308,0.402v0.508v0.155v0.508l0.308,0.402c11.18,14.626,32.11,14.821,32.997,14.822c0.944-0.001,21.876-0.196,33.055-14.822
		l0.307-0.404v-0.507v-0.155V33.86L84.322,33.457z M51.297,48.692c-8.313,0-15.073-6.392-15.073-14.248s6.76-14.246,15.073-14.246
		c8.313,0,15.072,6.39,15.072,14.246S59.609,48.692,51.297,48.692z M19.46,34.521v-0.155c6.264-8.194,15.875-11.667,22.896-13.142
		c-4.573,2.797-7.61,7.667-7.61,13.22c0,5.553,3.037,10.422,7.61,13.22C35.335,46.188,25.725,42.715,19.46,34.521z M83.133,34.521
		c-6.262,8.195-15.876,11.667-22.896,13.142c4.572-2.797,7.609-7.667,7.609-13.219c0-5.552-3.037-10.422-7.611-13.22
		c7.021,1.476,16.635,4.949,22.898,13.142V34.521z"/>
	<path d="M51.297,42.558c-4.687,0-8.5-3.64-8.5-8.113c0-4.473,3.813-8.112,8.5-8.112c0.916,0,1.83,0.145,2.715,0.431l0.678,0.218
		l-0.184,0.687c-0.086,0.324-0.129,0.62-0.129,0.907c0,1.404,0.826,2.59,1.805,2.59c0.625,0,1.055-0.477,1.257-0.762l0.666-0.941
		l0.588,0.993c0.724,1.217,1.104,2.597,1.104,3.991C59.797,38.918,55.982,42.558,51.297,42.558z"/>
</g>
</svg>
