<?xml version="1.0" encoding="utf-8"?>
<!-- Generator: Adobe Illustrator 16.0.0, SVG Export Plug-In . SVG Version: 6.00 Build 0)  -->
<!DOCTYPE svg PUBLIC "-//W3C//DTD SVG 1.1//EN" "http://www.w3.org/Graphics/SVG/1.1/DTD/svg11.dtd">
<svg version="1.1" id="Layer_1" xmlns="http://www.w3.org/2000/svg" xmlns:xlink="http://www.w3.org/1999/xlink" x="0px" y="0px"
	 width="100.006px" height="100.006px" viewBox="0 0 100.006 100.006" enable-background="new 0 0 100.006 100.006"
	 xml:space="preserve">
<g id="Your_Icon">
	<path fill="#FFFFFF" d="M39.702,49.123L23.537,65.288l-8.193-8.193l-9.096,0.311l12.587,12.584l2.608,2.607L6.814,87.222
		c-1.795-0.248-3.683,0.293-5.062,1.676c-2.339,2.34-2.339,6.131-0.003,8.473c2.342,2.34,6.135,2.34,8.473,0
		c1.383-1.385,1.926-3.27,1.678-5.064l14.623-14.625l2.606,2.604l12.587,12.588l0.311-9.097l-8.193-8.193l16.161-16.165
		l16.169,16.168l-8.192,8.192l0.311,9.096l12.585-12.586l2.606-2.607l14.625,14.625c-0.248,1.797,0.291,3.682,1.674,5.063
		c2.34,2.34,6.131,2.34,8.471,0.001c2.343-2.342,2.343-6.133,0-8.475c-1.381-1.381-3.268-1.924-5.063-1.672L78.556,72.599
		l2.604-2.604l12.589-12.59l-9.098-0.309l-8.194,8.193L60.292,49.122l37.188-37.186l0.762-11.06l-42.758,43.44l-4.729,4.801
		l-0.762,0.773l-4.723,4.8L29.232,70.983l-1.098-1.1l16.289-16.037l4.809-4.729l0.762-0.749l4.807-4.734l43.44-42.758L87.188,1.641
		L49.995,38.829L12.809,1.641L1.749,0.877l43.44,42.758l-0.684,0.682L1.748,0.878l0.768,11.06L39.702,49.123z M55.565,53.853
		l16.293,16.039l-1.099,1.098L54.722,54.692L55.565,53.853z"/>
</g>
</svg>
