<?xml version="1.0" encoding="utf-8"?>
<!-- Generator: Adobe Illustrator 16.0.0, SVG Export Plug-In . SVG Version: 6.00 Build 0)  -->
<!DOCTYPE svg PUBLIC "-//W3C//DTD SVG 1.1//EN" "http://www.w3.org/Graphics/SVG/1.1/DTD/svg11.dtd">
<svg version="1.1" id="Layer_1" xmlns="http://www.w3.org/2000/svg" xmlns:xlink="http://www.w3.org/1999/xlink" x="0px" y="0px"
	 width="253.871px" height="253.875px" viewBox="14.795 9.827 253.871 253.875"
	 enable-background="new 14.795 9.827 253.871 253.875" xml:space="preserve">
<path d="M141.401,9.827c-36.591,11.997-72.454,37.3-97.647,73.408c11.758,31.801,18.115,52.215,18.115,72.733
	c0,20.204-6.378,40.816-17.786,71.781c27.527,20.336,55.408,32.637,83.218,35.953c-2.797-33.428-5.442-66.851,0.882-100.277
	c-16.965-1.816-33.984-7.355-50.951-17.008v-39.48c44.662,23.394,87.976,23.002,134.014,0v39.48
	c-16.643,7.96-33.325,13.688-49.966,16.211c4.809,33.473,4.275,66.942,1.124,100.415c25.681-4.061,51.427-15.958,76.973-35.604
	c-18.805-62.535-18.84-80.794,0.329-144.205C216.56,46.972,176.013,22.084,141.401,9.827L141.401,9.827z M99.81,127.197
	c-6.179-0.072-10.877,1.757-11.765,5.069c-1.29,4.817,5.967,10.94,16.211,13.687c10.245,2.744,19.592,1.063,20.883-3.755
	c1.29-4.816-5.965-10.94-16.211-13.686C105.726,127.653,102.619,127.23,99.81,127.197z M188.773,127.197
	c-2.81,0.033-5.917,0.457-9.119,1.315c-10.246,2.746-17.502,8.868-16.21,13.686c1.29,4.816,10.638,6.499,20.882,3.754
	s17.502-8.868,16.211-13.686C199.649,128.955,194.951,127.125,188.773,127.197L188.773,127.197z"/>
</svg>
