<?xml version="1.0" encoding="utf-8"?>
<!-- Generator: Adobe Illustrator 16.0.0, SVG Export Plug-In . SVG Version: 6.00 Build 0)  -->
<!DOCTYPE svg PUBLIC "-//W3C//DTD SVG 1.1//EN" "http://www.w3.org/Graphics/SVG/1.1/DTD/svg11.dtd">
<svg version="1.1" id="Layer_1" xmlns="http://www.w3.org/2000/svg" xmlns:xlink="http://www.w3.org/1999/xlink" x="0px" y="0px"
	 width="54.708px" height="54.717px" viewBox="24.042 12.029 54.708 54.717" enable-background="new 24.042 12.029 54.708 54.717"
	 xml:space="preserve">
<path stroke="#000000" stroke-width="5" stroke-miterlimit="10" d="M51.396,14.529c-13.417,0-24.293,11.13-24.293,24.858
	c0,13.729,10.877,24.859,24.293,24.859c13.417,0,24.294-11.129,24.294-24.859C75.69,25.658,64.813,14.529,51.396,14.529z
	 M51.195,59.727c-10.608,0-19.208-8.854-19.208-19.774c0-10.921,8.6-19.774,19.208-19.774c10.609,0,19.209,8.853,19.209,19.774
	C70.404,50.873,61.805,59.727,51.195,59.727z"/>
<ellipse stroke="#000000" stroke-width="5" stroke-miterlimit="10" cx="51.396" cy="39.387" rx="7.562" ry="7.784"/>
</svg>
