<?xml version="1.0" encoding="utf-8"?>
<!-- Generator: Adobe Illustrator 16.0.0, SVG Export Plug-In . SVG Version: 6.00 Build 0)  -->
<!DOCTYPE svg PUBLIC "-//W3C//DTD SVG 1.1//EN" "http://www.w3.org/Graphics/SVG/1.1/DTD/svg11.dtd">
<svg version="1.1"
	 id="Layer_1" xmlns:rdf="http://www.w3.org/1999/02/22-rdf-syntax-ns#" xmlns:dc="http://purl.org/dc/elements/1.1/" xmlns:cc="http://creativecommons.org/ns#"
	 xmlns="http://www.w3.org/2000/svg" xmlns:xlink="http://www.w3.org/1999/xlink" x="0px" y="0px" width="204.093px"
	 height="204.095px" viewBox="39.684 11.336 204.093 204.095" enable-background="new 39.684 11.336 204.093 204.095"
	 xml:space="preserve">
<path d="M123.448,20.338c-46.263,0-83.763,37.5-83.763,83.761c0,23.761,10.033,45.007,25.938,60.236
	c14.452,25.148,41.546,42.094,72.636,42.094c9.044,0,17.776-1.459,25.936-4.109c-1.339,0.544-2.701,1.117-4.182,1.558
	c28.203,0,55.638-14.077,71.432-39.897c24.146-39.46,11.756-91.011-27.706-115.155c-9.645-5.898-19.999-9.517-30.474-11.125
	C159.325,27.083,142.358,20.338,123.448,20.338L123.448,20.338z M123.448,29.621c11.277,0,21.86,2.764,31.392,7.299
	c-2.034,0.141-4.077,0.354-6.094,0.637c-0.02-0.007-0.052,0.009-0.072,0c-7.844-3.086-16.284-4.889-25.226-4.889
	c-39.444,0-71.432,31.99-71.432,71.432c0,6.109,0.968,11.887,2.479,17.504c-0.004,0.354,0,0.708,0,1.063
	c0,3.431,0.238,6.81,0.637,10.132c-3.796-8.844-6.164-18.466-6.164-28.7C48.968,62.978,82.325,29.621,123.448,29.621L123.448,29.621
	z M123.448,34.015c8.005,0,15.674,1.393,22.817,3.898c-1.705,0.29-3.417,0.669-5.102,1.063c-0.964-0.034-1.935-0.073-2.905-0.073
	c-44.288,0-80.535,34.36-83.55,77.881c-0.803-4.107-1.277-8.318-1.277-12.686C53.431,65.411,84.759,34.015,123.448,34.015z
	 M175.958,47.905c7.892,1.61,15.622,4.413,22.89,8.857c35.077,21.461,46.12,67.323,24.659,102.401
	c-8.049,13.155-19.543,22.704-32.596,28.627c3.338-2.7,6.465-5.609,9.352-8.784c8.087-5.472,15.269-12.536,20.695-21.402
	c20.584-33.646,10.045-77.634-23.6-98.218c-3.538-2.166-7.257-3.842-10.982-5.245C183.066,51.814,179.595,49.742,175.958,47.905z
	 M138.258,48.188c41.122,0,74.478,33.358,74.478,74.48c0,41.123-33.355,74.48-74.478,74.48s-74.41-33.357-74.41-74.48
	C63.849,81.546,97.136,48.188,138.258,48.188z M138.258,51.236c-39.444,0-71.432,31.988-71.432,71.432
	c0,39.442,31.988,71.431,71.432,71.431c39.441,0,71.432-31.989,71.432-71.431C209.69,83.224,177.7,51.236,138.258,51.236z
	 M138.258,52.653c38.688,0,70.085,31.326,70.085,70.015s-31.396,70.015-70.085,70.015c-38.689,0-70.015-31.326-70.015-70.015
	S99.569,52.653,138.258,52.653z M191.193,57.755c1.801,0.875,3.621,1.826,5.388,2.905c32.999,20.191,43.433,63.304,23.243,96.306
	c-4.354,7.116-9.846,13.037-16.016,17.929c11.436-14.321,18.211-32.476,18.211-52.227C222.019,96.481,210.014,73.115,191.193,57.755
	L191.193,57.755z"/>
</svg>
