<?xml version="1.0" encoding="utf-8"?>
<!-- Generator: Adobe Illustrator 16.0.0, SVG Export Plug-In . SVG Version: 6.00 Build 0)  -->
<!DOCTYPE svg PUBLIC "-//W3C//DTD SVG 1.1//EN" "http://www.w3.org/Graphics/SVG/1.1/DTD/svg11.dtd">
<svg version="1.1" id="Layer_1" xmlns="http://www.w3.org/2000/svg" xmlns:xlink="http://www.w3.org/1999/xlink" x="0px" y="0px"
	 width="206.533px" height="206.646px" viewBox="37.478 9.668 206.533 206.646"
	 enable-background="new 37.478 9.668 206.533 206.646" xml:space="preserve">
<g>
	<g>
		<path d="M144.039,159.072c7.938,10.05,20.25,16.529,34.121,16.529c23.923,0,43.331-19.236,43.331-42.953
			c0-22.756-17.86-41.326-40.437-42.81c0.043,1.159,0.084,2.327,0.084,3.493C181.138,121.13,166.296,145.49,144.039,159.072z
			 M178.16,67.37c-0.514,0-1.028,0.028-1.545,0.039c1.047,2.898,1.916,5.87,2.602,8.915c30.869,0.567,55.811,25.591,55.811,56.325
			c0,31.084-25.509,56.381-56.867,56.381c-19.158,0-36.096-9.471-46.402-23.9c-2.889,1.125-5.854,2.105-8.903,2.887
			c11.744,17.982,32.137,29.914,55.305,29.914c36.31,0,65.846-29.287,65.846-65.281C244.005,96.652,214.469,67.37,178.16,67.37z
			 M169.181,93.331c0-35.996-29.541-65.278-65.849-65.278c-36.309,0-65.85,29.283-65.85,65.278c0,35.998,29.539,65.278,65.85,65.278
			C139.641,158.609,169.181,129.329,169.181,93.331z M103.332,149.707c-31.36,0-56.867-25.287-56.867-56.375
			c0-31.086,25.507-56.375,56.867-56.375c31.355,0,56.869,25.29,56.869,56.375C160.203,124.419,134.688,149.707,103.332,149.707z
			 M103.332,50.38c-23.932,0-43.331,19.23-43.331,42.951c0,23.719,19.399,42.958,43.331,42.958
			c23.925,0,43.326-19.239,43.326-42.958C146.658,69.61,127.257,50.38,103.332,50.38z"/>
	</g>
</g>
</svg>
