<?xml version="1.0" encoding="utf-8"?>
<!-- Generator: Adobe Illustrator 19.0.1, SVG Export Plug-In . SVG Version: 6.00 Build 0)  -->
<svg version="1.1" id="Layer_1" xmlns="http://www.w3.org/2000/svg" xmlns:xlink="http://www.w3.org/1999/xlink" x="0px" y="0px"
	 viewBox="-163 255.5 283.5 283.5" style="enable-background:new -163 255.5 283.5 283.5;" xml:space="preserve">
<path d="M16.3,472.8c21.8-26.7,59-34.5,91.7-29.4l6.9,1.1l-4.2,5.5c-20.9,27.6-59.4,36.1-92,29.4l-6.7-1.4L16.3,472.8L16.3,472.8z"
	/>
<path d="M24.8,276.5c23,18.5,36.7,49.1,31,78.6l-1.3,6.5l-5.3-3.9c-23.6-17.4-39.5-49.8-31.1-79.1l1.7-6L24.8,276.5L24.8,276.5z"/>
<path d="M119.5,371.3c-4.5,32.1-27.5,64.6-60.4,71.8l-6.1,1.3l1.1-6.1c5.8-32.2,28.3-61.6,60-71.6l6.3-2L119.5,371.3L119.5,371.3z"
	/>
<path d="M85.3,300.9c12.2,28.1,8.5,62-10.3,86.4l-4.4,5.7l-2.7-6.7c-11.5-28.2-8.6-62,10.3-86.3l4.3-5.5L85.3,300.9L85.3,300.9z"/>
<path d="M-120.8,300c19,24.3,21.8,58.1,10.3,86.3l-2.7,6.7l-4.4-5.7c-18.8-24.3-22.5-58.3-10.3-86.4l2.8-6.4L-120.8,300L-120.8,300z
	"/>
<path d="M-61.2,479.5c-32.6,6.7-71.2-1.9-92-29.4l-4.2-5.5l6.9-1.1c32.8-5.1,69.9,2.7,91.8,29.4l4.3,5.3L-61.2,479.5L-61.2,479.5z"
	/>
<path d="M-60.8,278.6c8.4,29.3-7.5,61.6-31.1,79.1l-5.3,3.9l-1.2-6.5c-5.7-29.5,8-60.1,31-78.6l4.9-3.9L-60.8,278.6L-60.8,278.6z"/>
<path d="M-156.7,366.8c31.7,10,54.2,39.4,60,71.6l1.1,6.1l-6.1-1.3c-32.8-7.2-55.9-39.8-60.4-71.8l-0.9-6.5L-156.7,366.8
	L-156.7,366.8z"/>
<path d="M1.8,502.6c5.3,5.7,10.9,11.1,17.3,15.5l4.4,3l-4,3.6c-1.6,1.5-3.2,2.9-4.9,4.4l-2,1.8l-2.5-1.1
	c-15.3-6.6-19.6-23-31.5-30.7c-11.9,7.7-16.2,24.1-31.5,30.7l-2.5,1.1l-2-1.8c-1.6-1.5-3.2-3-4.8-4.4l-4-3.6l4.4-3
	c6.4-4.3,12-9.8,17.3-15.5c-7.3,3.6-14.6,7.8-22.9,9.4c-14.9,2.5-30.8,3.4-45-2.8l-6.8-3l6.1-4.2c14-9.6,29-18.6,46.4-20
	c13.7-0.8,27.6-0.4,41,2.7l0.2,0l0.2,0.1c2.5,0.8,5.2,0.8,7.7,0l0.2-0.1l0.2,0c13.4-3.1,27.3-3.4,41-2.7c17.4,1.4,32.4,10.4,46.4,20
	l6.1,4.2l-6.8,3c-14.1,6.2-30.1,5.3-45,2.8C16.3,510.4,9.1,506.2,1.8,502.6L1.8,502.6z"/>
<g id="Your_Icon">
	<path d="M-32.2,400.3l-17.2,17.2l-8.7-8.7l-9.7,0.3l13.4,13.4l2.8,2.8l-15.6,15.6c-1.9-0.3-3.9,0.3-5.4,1.8c-2.5,2.5-2.5,6.5,0,9
		c2.5,2.5,6.5,2.5,9,0c1.5-1.5,2.1-3.5,1.8-5.4l15.6-15.6l2.8,2.8l13.4,13.4l0.3-9.7l-8.7-8.7l17.2-17.2L-4,428.5l-8.7,8.7l0.3,9.7
		L1,433.6l2.8-2.8l15.6,15.6c-0.3,1.9,0.3,3.9,1.8,5.4c2.5,2.5,6.5,2.5,9,0c2.5-2.5,2.5-6.5,0-9c-1.5-1.5-3.5-2.1-5.4-1.8L9.2,425.4
		l2.8-2.8l13.4-13.4l-9.7-0.3l-8.7,8.7l-17.2-17.2l39.6-39.6l0.8-11.8l-45.6,46.3l-5,5.1l-0.8,0.8l-5,5.1l-17.1,17.4l-1.2-1.2
		l17.4-17.1l5.1-5l0.8-0.8l5.1-5l46.3-45.6l-11.8,0.8l-39.7,39.6l-39.6-39.6l-11.8-0.8l46.3,45.6l-0.7,0.7l-45.6-46.3l0.8,11.8
		L-32.2,400.3z M-15.3,405.4L2,422.5l-1.2,1.2l-17.1-17.4L-15.3,405.4z"/>
</g>
</svg>
