<?xml version="1.0" encoding="utf-8"?>
<!-- Generator: Adobe Illustrator 16.0.0, SVG Export Plug-In . SVG Version: 6.00 Build 0)  -->
<!DOCTYPE svg PUBLIC "-//W3C//DTD SVG 1.1//EN" "http://www.w3.org/Graphics/SVG/1.1/DTD/svg11.dtd">
<svg version="1.1" id="Layer_1" xmlns="http://www.w3.org/2000/svg" xmlns:xlink="http://www.w3.org/1999/xlink" x="0px" y="0px"
	 width="226.768px" height="226.759px" viewBox="28.346 0.004 226.768 226.759"
	 enable-background="new 28.346 0.004 226.768 226.759" xml:space="preserve">
<g>
	<path d="M182.351,72.198c22.59,22.591,22.582,59.211,0,81.793c-22.591,22.598-59.214,22.584-81.795,0
		c-22.584-22.582-22.59-59.203,0-81.793C123.137,49.619,159.76,49.612,182.351,72.198z"/>
	<polygon points="74.455,71.3 51.381,48.231 39.229,60.388 33.786,30.199 28.362,0.004 58.549,5.436 88.737,10.871 76.582,23.028 
		99.655,46.104 	"/>
	<polygon points="209.014,155.472 232.087,178.535 244.24,166.382 249.681,196.57 255.107,226.763 224.919,221.333 194.732,215.897 
		206.884,203.738 183.814,180.664 	"/>
	<polygon points="99.646,180.657 76.582,203.738 88.737,215.89 58.549,221.333 28.346,226.757 33.786,196.57 39.222,166.382 
		51.381,178.535 74.455,155.472 	"/>
	<polygon points="183.823,46.104 206.892,23.033 194.732,10.876 224.919,5.44 255.114,0.004 249.681,30.203 244.248,60.391 
		232.087,48.233 209.014,71.305 	"/>
</g>
</svg>
