<?xml version="1.0" standalone="yes"?>

<svg version="1.1" viewBox="0.0 0.0 1152.0 864.0" fill="none" stroke="none" stroke-linecap="square" stroke-miterlimit="10" xmlns="http://www.w3.org/2000/svg" xmlns:xlink="http://www.w3.org/1999/xlink"><clipPath id="p.0"><path d="m0 0l1152.0 0l0 864.0l-1152.0 0l0 -864.0z" clip-rule="nonzero"></path></clipPath><g clip-path="url(#p.0)"><path fill="#000000" fill-opacity="0.0" d="m0 0l1152.0 0l0 864.0l-1152.0 0z" fill-rule="nonzero"></path><path fill="#ffffff" d="m922.7908 664.469l-123.200195 -84.914l0 0c-107.912964 33.9812 -231.53131 -1.0322876 -285.589 -80.88992c-54.05771 -79.857605 -20.863312 -178.42438 76.687256 -227.71362c97.55054 -49.289246 227.53204 -33.17012 300.2893 37.239166c72.757324 70.40927 64.47925 172.06595 -19.124329 234.85205z" fill-rule="nonzero"></path><path stroke="#000000" stroke-width="24.0" stroke-linejoin="round" stroke-linecap="butt" d="m922.7908 664.469l-123.200195 -84.914l0 0c-107.912964 33.9812 -231.53131 -1.0322876 -285.589 -80.88992c-54.05771 -79.857605 -20.863312 -178.42438 76.687256 -227.71362c97.55054 -49.289246 227.53204 -33.17012 300.2893 37.239166c72.757324 70.40927 64.47925 172.06595 -19.124329 234.85205z" fill-rule="nonzero"></path><path fill="#ffffff" d="m279.72266 660.6776l10.424103 -81.503296c-88.313034 -58.799377 -104.444214 -159.88998 -37.267014 -233.54437c67.1772 -73.65436 195.67778 -95.7677 296.8681 -51.08728c101.19037 44.68042 141.95398 141.5321 94.17413 223.75134c-47.779846 82.21924 -168.46643 122.89819 -278.81577 93.978516z" fill-rule="nonzero"></path><path stroke="#000000" stroke-width="24.0" stroke-linejoin="round" stroke-linecap="butt" d="m279.72266 660.6776l10.424103 -81.503296c-88.313034 -58.799377 -104.444214 -159.88998 -37.267014 -233.54437c67.1772 -73.65436 195.67778 -95.7677 296.8681 -51.08728c101.19037 44.68042 141.95398 141.5321 94.17413 223.75134c-47.779846 82.21924 -168.46643 122.89819 -278.81577 93.978516z" fill-rule="nonzero"></path></g></svg>

