<?xml version="1.0" standalone="yes"?>

<svg version="1.1" viewBox="0.0 0.0 1152.0 864.0" fill="none" stroke="none" stroke-linecap="square" stroke-miterlimit="10" xmlns="http://www.w3.org/2000/svg" xmlns:xlink="http://www.w3.org/1999/xlink"><clipPath id="p.0"><path d="m0 0l1152.0 0l0 864.0l-1152.0 0l0 -864.0z" clip-rule="nonzero"></path></clipPath><g clip-path="url(#p.0)"><path fill="#000000" fill-opacity="0.0" d="m0 0l1152.0 0l0 864.0l-1152.0 0z" fill-rule="nonzero"></path><path fill="#ffffff" d="m334.8067 436.07626l0 213.05588l0 0c0 68.66986 55.667908 124.33777 124.33777 124.33777l15.619385 0l0 28.433105l63.129456 -54.96942l-63.129456 -54.969482l0 28.433167l-15.619385 0l0 0c-39.358643 0 -71.26514 -31.906494 -71.26514 -71.26514l0 -213.05588z" fill-rule="nonzero"></path><path stroke="#000000" stroke-width="12.0" stroke-linejoin="round" stroke-linecap="butt" d="m334.8067 436.07626l0 213.05588l0 0c0 68.66986 55.667908 124.33777 124.33777 124.33777l15.619385 0l0 28.433105l63.129456 -54.96942l-63.129456 -54.969482l0 28.433167l-15.619385 0l0 0c-39.358643 0 -71.26514 -31.906494 -71.26514 -71.26514l0 -213.05588z" fill-rule="nonzero"></path><path fill="#ffffff" d="m171.06049 112.93666l0 0c-5.8693542 -21.381538 6.6845856 -43.54918 28.040024 -49.512814l154.66512 -43.19117l0 0c10.255249 -2.86384 21.210114 -1.5315247 30.454712 3.7038517c9.244568 5.2353745 16.021576 13.944954 18.840149 24.21273l75.50107 275.04303c5.8693542 21.381561 -6.684601 43.549194 -28.04004 49.512817l-154.6651 43.191193c-21.355438 5.963623 -43.425507 -6.5350647 -49.294876 -27.916595z" fill-rule="nonzero"></path><path stroke="#000000" stroke-width="24.0" stroke-linejoin="round" stroke-linecap="butt" d="m171.06049 112.93666l0 0c-5.8693542 -21.381538 6.6845856 -43.54918 28.040024 -49.512814l154.66512 -43.19117l0 0c10.255249 -2.86384 21.210114 -1.5315247 30.454712 3.7038517c9.244568 5.2353745 16.021576 13.944954 18.840149 24.21273l75.50107 275.04303c5.8693542 21.381561 -6.684601 43.549194 -28.04004 49.512817l-154.6651 43.191193c-21.355438 5.963623 -43.425507 -6.5350647 -49.294876 -27.916595z" fill-rule="nonzero"></path><path fill="#ffffff" d="m425.36932 72.23186l0 0c8.529449 -20.499405 32.015594 -30.092533 52.457794 -21.426853l148.051 62.760525l0 0c9.816711 4.1614075 17.604187 12.06295 21.649353 21.966377c4.045166 9.903442 4.0166016 20.997528 -0.07940674 30.84169l-109.42706 262.99344c-8.52948 20.49939 -32.015625 30.09253 -52.457825 21.42685l-148.05103 -62.76053c-20.44217 -8.66568 -30.099365 -32.308655 -21.569916 -52.808075z" fill-rule="nonzero"></path><path stroke="#000000" stroke-width="24.0" stroke-linejoin="round" stroke-linecap="butt" d="m425.36932 72.23186l0 0c8.529449 -20.499405 32.015594 -30.092533 52.457794 -21.426853l148.051 62.760525l0 0c9.816711 4.1614075 17.604187 12.06295 21.649353 21.966377c4.045166 9.903442 4.0166016 20.997528 -0.07940674 30.84169l-109.42706 262.99344c-8.52948 20.49939 -32.015625 30.09253 -52.457825 21.42685l-148.05103 -62.76053c-20.44217 -8.66568 -30.099365 -32.308655 -21.569916 -52.808075z" fill-rule="nonzero"></path><path fill="#ffffff" d="m551.51636 516.4483l0 0c0 -22.175903 17.977112 -40.153046 40.153015 -40.153046l160.60736 0l0 0c10.649231 0 20.862305 4.2304077 28.392456 11.760559c7.5301514 7.5301514 11.760559 17.743225 11.760559 28.392487l0 285.5207c0 22.175903 -17.977112 40.153015 -40.153015 40.153015l-160.60736 0c-22.175903 0 -40.153015 -17.977112 -40.153015 -40.153015z" fill-rule="nonzero"></path><path stroke="#000000" stroke-width="24.0" stroke-linejoin="round" stroke-linecap="butt" d="m551.51636 516.4483l0 0c0 -22.175903 17.977112 -40.153046 40.153015 -40.153046l160.60736 0l0 0c10.649231 0 20.862305 4.2304077 28.392456 11.760559c7.5301514 7.5301514 11.760559 17.743225 11.760559 28.392487l0 285.5207c0 22.175903 -17.977112 40.153015 -40.153015 40.153015l-160.60736 0c-22.175903 0 -40.153015 -17.977112 -40.153015 -40.153015z" fill-rule="nonzero"></path><path fill="#ffffff" d="m595.0805 526.3275l0 0c0 -22.175903 17.977112 -40.153015 40.153015 -40.153015l160.60736 0l0 0c10.649231 0 20.862305 4.2304077 28.392456 11.760559c7.5301514 7.5301514 11.760559 17.743225 11.760559 28.392456l0 285.52075c0 22.175903 -17.977112 40.153015 -40.153015 40.153015l-160.60736 0c-22.175903 0 -40.153015 -17.977112 -40.153015 -40.153015z" fill-rule="nonzero"></path><path stroke="#000000" stroke-width="24.0" stroke-linejoin="round" stroke-linecap="butt" d="m595.0805 526.3275l0 0c0 -22.175903 17.977112 -40.153015 40.153015 -40.153015l160.60736 0l0 0c10.649231 0 20.862305 4.2304077 28.392456 11.760559c7.5301514 7.5301514 11.760559 17.743225 11.760559 28.392456l0 285.52075c0 22.175903 -17.977112 40.153015 -40.153015 40.153015l-160.60736 0c-22.175903 0 -40.153015 -17.977112 -40.153015 -40.153015z" fill-rule="nonzero"></path></g></svg>

