<?xml version="1.0" encoding="utf-8"?>
<!-- Generator: Adobe Illustrator 16.0.0, SVG Export Plug-In . SVG Version: 6.00 Build 0)  -->
<!DOCTYPE svg PUBLIC "-//W3C//DTD SVG 1.1//EN" "http://www.w3.org/Graphics/SVG/1.1/DTD/svg11.dtd">
<svg version="1.1" id="Layer_1" xmlns="http://www.w3.org/2000/svg" xmlns:xlink="http://www.w3.org/1999/xlink" x="0px" y="0px"
	 width="283.46px" height="283.464px" viewBox="0 4.438 283.46 283.464" enable-background="new 0 4.438 283.46 283.464"
	 xml:space="preserve">
<path d="M179.308,217.261c21.826-26.68,58.965-34.506,91.75-29.357l6.852,1.074l-4.184,5.529
	c-20.883,27.587-59.396,36.147-92.043,29.446l-6.723-1.378L179.308,217.261L179.308,217.261z"/>
<path d="M187.812,20.934c22.986,18.481,36.719,49.126,31.016,78.598l-1.25,6.463l-5.286-3.912
	c-23.569-17.436-39.491-49.801-31.069-79.063l1.729-5.995L187.812,20.934L187.812,20.934z"/>
<path d="M282.544,115.794c-4.513,32.065-27.544,64.604-60.389,71.848l-6.086,1.347l1.114-6.14
	c5.845-32.167,28.27-61.564,60.006-71.588l6.272-1.984L282.544,115.794L282.544,115.794z"/>
<path d="M248.316,45.346c12.167,28.08,8.471,62.046-10.295,86.356l-4.41,5.706l-2.725-6.675
	c-11.469-28.179-8.608-62.001,10.347-86.285l4.303-5.511L248.316,45.346L248.316,45.346z"/>
<path d="M42.227,44.447c18.96,24.284,21.815,58.106,10.346,86.285l-2.721,6.678l-4.408-5.706
	c-18.768-24.313-22.461-58.279-10.295-86.359l2.781-6.409L42.227,44.447L42.227,44.447z"/>
<path d="M101.779,223.951c-32.646,6.701-71.16-1.856-92.04-29.445l-4.187-5.53l6.851-1.075c32.788-5.145,69.921,2.68,91.753,29.358
	l4.346,5.313L101.779,223.951L101.779,223.951z"/>
<path d="M102.238,23.023c8.424,29.259-7.492,61.625-31.062,79.06l-5.295,3.912l-1.247-6.463
	c-5.698-29.471,8.03-60.116,31.016-78.598l4.864-3.906L102.238,23.023L102.238,23.023z"/>
<path d="M6.279,111.261c31.73,10.023,54.161,39.421,60.005,71.588l1.114,6.14l-6.089-1.347
	c-32.847-7.244-55.878-39.783-60.391-71.848L0,109.274L6.279,111.261L6.279,111.261z"/>
<path d="M164.767,247.027c5.343,5.682,10.893,11.148,17.303,15.472l4.412,2.966l-3.957,3.56c-1.635,1.468-3.248,2.948-4.855,4.442
	l-1.984,1.845l-2.488-1.077c-15.273-6.594-19.607-22.994-31.467-30.73c-11.857,7.736-16.188,24.137-31.461,30.733l-2.494,1.077
	l-1.984-1.848c-1.604-1.497-3.22-2.975-4.85-4.439l-3.951-3.561l4.411-2.965c6.406-4.322,11.959-9.791,17.302-15.471
	c-7.319,3.622-14.584,7.797-22.917,9.359c-14.882,2.5-30.81,3.393-44.957-2.781l-6.84-2.979l6.143-4.238
	c13.989-9.648,29.003-18.643,46.405-20.025c13.694-0.752,27.578-0.414,41,2.678l0.173,0.04l0.173,0.06
	c2.534,0.819,5.176,0.819,7.713,0l0.17-0.06l0.18-0.04c13.412-3.092,27.299-3.43,41.045-2.678
	c17.358,1.383,32.371,10.38,46.354,20.025l6.14,4.238l-6.837,2.979c-14.147,6.178-30.075,5.281-44.994,2.775
	C179.336,254.823,172.078,250.65,164.767,247.027L164.767,247.027z"/>
</svg>
