<?xml version="1.0" encoding="utf-8"?>
<!-- Generator: Adobe Illustrator 16.0.0, SVG Export Plug-In . SVG Version: 6.00 Build 0)  -->
<!DOCTYPE svg PUBLIC "-//W3C//DTD SVG 1.1//EN" "http://www.w3.org/Graphics/SVG/1.1/DTD/svg11.dtd">
<svg version="1.1" id="Layer_1" xmlns="http://www.w3.org/2000/svg" xmlns:xlink="http://www.w3.org/1999/xlink" x="0px" y="0px"
	 width="263.916px" height="263.905px" viewBox="9.233 16.665 263.916 263.905"
	 enable-background="new 9.233 16.665 263.916 263.905" xml:space="preserve">
<path d="M58.685,62.988l-18.25,41.177c-0.585,0.124-1.164,0.252-1.728,0.391c-2.931,0.717-5.509,1.615-7.774,2.651l-4.576-29.583
	l-13.861,48.319c-0.718,2.062-1.342,4.211-1.848,6.442l-0.145,0.501l0.039-0.022c-2.011,9.227-1.971,19.779,1.991,30.902
	c1.83,7.764,8.59,16.807,22.278,26.648c16.162,11.622,41.55,23.781,76.675,35.355c-0.14-0.994-0.218-2.007-0.218-3.038
	c0-6.76,3.121-12.836,7.989-16.855l-2.253-23.656l-17.461,20.865c-5.405-2.041-10.545-4.13-15.443-6.256l-1.634-43.281
	l-18.585,33.56c-5.02-2.687-9.686-5.41-14.003-8.166l-2.562-49.849L31.3,165.11c-4.144-3.657-7.728-7.331-10.769-10.994
	c-2.35-11.082-0.228-21.073,3.402-29.021l2.481-1.44c8.776-3.043,19.662-4.233,32.391-3.423
	c18.122,1.154,40.144,6.504,65.412,17.054c0.055-7.248,4.266-13.569,10.35-16.688l-3.1-29.116l-16.687,23.685
	c-5.359-1.993-10.533-3.726-15.508-5.21l-2.358-38.051l-18.03,33.093c-6.523-1.198-12.573-1.901-18.112-2.165L58.685,62.988
	L58.685,62.988z M237.552,79.562l-8.844,38.909c-5.497-0.688-11.562-1.039-18.18-0.984l-10.84-36.785l-10.007,38.181
	c-5.173,0.62-10.591,1.459-16.23,2.52l-10.527-24.825l-9.092,25.325c4.929,3.423,8.176,9.118,8.176,15.522
	c0,1.333-0.143,2.635-0.408,3.893c26.145-5.853,48.32-7.289,66.087-5.37c12.678,1.368,23.201,4.395,31.331,8.886l2.202,1.845
	c2.224,8.45,2.612,18.659-1.591,29.181c-3.621,3.091-7.776,6.099-12.482,8.997l-9.649-38.221l-11.012,48.688
	c-4.711,1.974-9.759,3.859-15.146,5.646l-10.92-34.092l-10.671,40.235c-5.174,1.257-10.578,2.438-16.234,3.526L161,185.487
	l-8.231,27.679c1.422,2.896,2.225,6.146,2.225,9.568c0,3.172-0.69,6.188-1.924,8.918c38.984-5.453,67.641-13.387,86.308-22.459
	c15.166-7.368,23.366-15.128,26.492-22.467c5.798-10.287,7.635-20.679,7.225-30.111l0.034,0.029l-0.057-0.521
	c-0.118-2.284-0.367-4.51-0.725-6.662l-5.432-49.972l-9.546,28.371c-2.057-1.406-4.445-2.729-7.211-3.938
	c-0.531-0.229-1.079-0.454-1.635-0.676L237.552,79.562L237.552,79.562z M143.112,128.874c-4.785,0-8.55,3.767-8.55,8.551
	c0,1.955,0.637,3.731,1.708,5.159c1.894,0.015,3.828,0.091,5.795,0.234c2.388,0.173,4.721,0.438,6.994,0.787
	c1.609-1.547,2.604-3.729,2.604-6.181C151.664,132.642,147.896,128.874,143.112,128.874L143.112,128.874z M136.107,152.939
	c-0.565-0.002-1.125,0.003-1.679,0.014c-6.652,0.136-12.508,1.183-16.736,2.758c-2.82,1.053-4.883,2.343-6.007,3.443
	c-1.124,1.102-1.315,1.747-1.315,2.42c0,1.343,2.109,4.67,7.895,7.664c5.784,2.994,14.342,5.378,23.802,6.064
	s17.984-0.474,23.625-2.574c2.82-1.051,4.883-2.342,6.008-3.443c1.123-1.101,1.313-1.746,1.313-2.418
	c0-1.346-2.108-4.674-7.895-7.667c-5.783-2.994-14.342-5.377-23.802-6.062C139.543,153.007,137.802,152.945,136.107,152.939
	L136.107,152.939z M132.958,184.616l-1.639,16.337c0.598-0.049,1.202-0.082,1.812-0.082c2.98,0,5.827,0.608,8.424,1.703
	l1.688-16.834c-0.639-0.033-1.281-0.072-1.927-0.119C138.449,185.413,135.657,185.072,132.958,184.616L132.958,184.616z
	 M133.131,211.217c-6.422,0-11.514,5.095-11.514,11.517c0,6.419,5.093,11.514,11.514,11.514c6.419,0,11.516-5.095,11.516-11.515
	S139.551,211.217,133.131,211.217L133.131,211.217L133.131,211.217z"/>
</svg>
