<?xml version="1.0" encoding="utf-8"?>
<!-- Generator: Adobe Illustrator 21.1.0, SVG Export Plug-In . SVG Version: 6.00 Build 0)  -->
<svg version="1.1" id="Layer_1" xmlns="http://www.w3.org/2000/svg" xmlns:xlink="http://www.w3.org/1999/xlink" x="0px" y="0px"
	 viewBox="0 0 72.9 72.7" style="enable-background:new 0 0 72.9 72.7;" xml:space="preserve">
<path d="M45.3,49.4H27.8c-0.6,0-1,0.4-1,1v4.7c0,0.6,0.4,1,1,1h17.5c0.6,0,1-0.4,1-1v-4.7C46.3,49.9,45.9,49.4,45.3,49.4z
	 M44.3,54.1H28.8v-2.7h15.5V54.1z"/>
<path d="M1,62h6.4v5.2c0,2.7,2.2,4.8,4.8,4.8s4.8-2.2,4.8-4.8V62h38.9v5.2c0,2.7,2.2,4.8,4.8,4.8s4.8-2.2,4.8-4.8V62h6.4
	c0.6,0,1-0.4,1-1V44.7c0-5.1-3.9-9.2-8.9-9.6c0-0.1-4-17.8-4-17.8c-0.7-3.4-3.7-5.9-7.2-5.9H20.1c-3.5,0-6.5,2.5-7.2,5.9l-4,17.8
	c-5,0.4-8.9,4.6-8.9,9.6V61C0,61.6,0.5,62,1,62z M15.1,67.2c0,1.6-1.3,2.8-2.8,2.8s-2.8-1.3-2.8-2.8V62h5.6
	C15.1,62,15.1,67.2,15.1,67.2z M63.6,67.2c0,1.6-1.3,2.8-2.8,2.8S58,68.7,58,67.2V62h5.6V67.2z M14.9,17.7c0.5-2.5,2.7-4.3,5.3-4.3
	H53c2.5,0,4.8,1.8,5.3,4.3L62.2,35H10.9L14.9,17.7z M2,44.7C2,40.5,5.4,37,9.7,37h53.7c4.2,0,7.7,3.4,7.7,7.7V60h-69L2,44.7L2,44.7z
	"/>
<path d="M12.5,41.6c-3,0-5.4,2.4-5.4,5.4s2.4,5.4,5.4,5.4s5.4-2.4,5.4-5.4S15.5,41.6,12.5,41.6z M12.5,50.4c-1.9,0-3.4-1.5-3.4-3.4
	s1.5-3.4,3.4-3.4s3.4,1.5,3.4,3.4C16,48.9,14.4,50.4,12.5,50.4z"/>
<path d="M60.5,41.6c-3,0-5.4,2.4-5.4,5.4s2.4,5.4,5.4,5.4s5.4-2.4,5.4-5.4S63.5,41.6,60.5,41.6z M60.5,50.4c-1.9,0-3.4-1.5-3.4-3.4
	s1.5-3.4,3.4-3.4s3.4,1.5,3.4,3.4S62.4,50.4,60.5,50.4z"/>
</svg>
