<?xml version="1.0" encoding="utf-8"?>
<!-- Generator: Adobe Illustrator 21.1.0, SVG Export Plug-In . SVG Version: 6.00 Build 0)  -->
<svg version="1.1" id="Layer_1" xmlns="http://www.w3.org/2000/svg" xmlns:xlink="http://www.w3.org/1999/xlink" x="0px" y="0px"
	 viewBox="0 0 94.9 95" style="enable-background:new 0 0 94.9 95;" xml:space="preserve">
<g>
	<path d="M13.6,24.9L27,27.7l13.3,2.6c0.1,0,0.2,0,0.2,0c0.6,0,1.1-0.4,1.2-1c0.1-0.7-0.3-1.3-1-1.5l-13.3-2.6l-13.3-2.8
		c-0.7-0.1-1.3,0.3-1.5,1C12.5,24.1,12.9,24.8,13.6,24.9z"/>
	<path d="M13.6,31.2L27,34l13.3,2.6c0.1,0,0.2,0,0.2,0c0.6,0,1.1-0.4,1.2-1c0.1-0.7-0.3-1.3-1-1.5l-13.3-2.6l-13.3-2.8
		c-0.7-0.1-1.3,0.3-1.5,1C12.5,30.4,12.9,31,13.6,31.2z"/>
	<path d="M13.6,37.4L27,40.2l13.3,2.6c0.1,0,0.2,0,0.2,0c0.6,0,1.1-0.4,1.2-1c0.1-0.7-0.3-1.3-1-1.5l-13.3-2.6l-13.3-2.8
		c-0.7-0.1-1.3,0.3-1.5,1C12.5,36.6,12.9,37.3,13.6,37.4z"/>
	<path d="M13.6,43.6L27,46.4L40.3,49c0.1,0,0.2,0,0.2,0c0.6,0,1.1-0.4,1.2-1c0.1-0.7-0.3-1.3-1-1.5l-13.3-2.6l-13.3-2.8
		c-0.7-0.1-1.3,0.3-1.5,1C12.5,42.8,12.9,43.5,13.6,43.6z"/>
	<path d="M13.6,49.9L27,52.7l13.3,2.6c0.1,0,0.2,0,0.2,0c0.6,0,1.1-0.4,1.2-1c0.1-0.7-0.3-1.3-1-1.5l-13.3-2.6l-13.3-2.8
		c-0.7-0.1-1.3,0.3-1.5,1C12.5,49.1,12.9,49.7,13.6,49.9z"/>
	<path d="M13.6,56.1L27,58.9l13.3,2.6c0.1,0,0.2,0,0.2,0c0.6,0,1.1-0.4,1.2-1c0.1-0.7-0.3-1.3-1-1.5l-13.3-2.6l-13.3-2.8
		c-0.7-0.1-1.3,0.3-1.5,1C12.5,55.3,12.9,56,13.6,56.1z"/>
	<path d="M13.6,62.4L27,65.2l13.3,2.6c0.1,0,0.2,0,0.2,0c0.6,0,1.1-0.4,1.2-1c0.1-0.7-0.3-1.3-1-1.5l-13.3-2.6l-13.3-2.8
		c-0.7-0.1-1.3,0.3-1.5,1C12.5,61.6,12.9,62.2,13.6,62.4z"/>
	<path d="M94.2,21.4c-1.6-0.1-3.3-0.1-4.9-0.1v-7.6c0-0.4-0.2-0.7-0.5-1c-0.3-0.2-0.7-0.3-1-0.3l-40.3,8.2L7.2,12.3
		c-0.4-0.1-0.7,0-1,0.3c-0.3,0.2-0.5,0.6-0.5,1v7.6c-1.6,0-3.2,0.1-4.8,0.1c-0.4,0-0.8,0.4-0.8,0.8L0,75.9c0,0.2,0.1,0.4,0.3,0.6
		s0.4,0.2,0.6,0.2c15.4-0.7,30.5,1.3,45,5.7l1.3,0.4c0,0,0.1,0,0.2,0c0.1,0,0.2,0,0.2,0l1.3-0.4c14.5-4.4,29.6-6.3,45-5.6
		c0.2,0,0.4-0.1,0.6-0.2s0.3-0.4,0.3-0.6l0.1-53.8C95,21.7,94.7,21.4,94.2,21.4z M46.2,75.3L8.1,67.5l0.1-52.4l38.1,7.8L46.2,75.3z
		 M86.7,67.5l-38.1,7.8l0.1-52.4l38.1-7.8L86.7,67.5z"/>
	<path d="M54.4,30.3c0.1,0,0.2,0,0.2,0L68,27.7L81.3,25c0.7-0.1,1.1-0.8,1-1.5s-0.8-1.1-1.5-1l-13.3,2.7l-13.3,2.6
		c-0.7,0.1-1.1,0.8-1,1.5C53.3,29.9,53.8,30.3,54.4,30.3z"/>
	<path d="M54.4,36.6c0.1,0,0.2,0,0.2,0L68,34l13.3-2.7c0.7-0.1,1.1-0.8,1-1.5s-0.8-1.1-1.5-1l-13.3,2.7l-13.3,2.6
		c-0.7,0.1-1.1,0.8-1,1.5C53.3,36.2,53.8,36.6,54.4,36.6z"/>
	<path d="M54.4,42.8c0.1,0,0.2,0,0.2,0L68,40.2l13.3-2.7c0.7-0.1,1.1-0.8,1-1.5s-0.8-1.1-1.5-1l-13.3,2.7l-13.3,2.6
		c-0.7,0.1-1.1,0.8-1,1.5C53.3,42.4,53.8,42.8,54.4,42.8z"/>
	<path d="M54.4,49c0.1,0,0.2,0,0.2,0L68,46.4l13.3-2.7c0.7-0.1,1.1-0.8,1-1.5s-0.8-1.1-1.5-1l-13.3,2.7l-13.3,2.6
		c-0.7,0.1-1.1,0.8-1,1.5C53.3,48.6,53.8,49,54.4,49z"/>
	<path d="M54.4,55.3c0.1,0,0.2,0,0.2,0L68,52.7L81.3,50c0.7-0.1,1.1-0.8,1-1.5s-0.8-1.1-1.5-1l-13.3,2.7l-13.3,2.6
		c-0.7,0.1-1.1,0.8-1,1.5C53.3,54.9,53.8,55.3,54.4,55.3z"/>
	<path d="M54.4,61.5c0.1,0,0.2,0,0.2,0L68,58.9l13.3-2.7c0.7-0.1,1.1-0.8,1-1.5s-0.8-1.1-1.5-1l-13.3,2.7L54.2,59
		c-0.7,0.1-1.1,0.8-1,1.5C53.3,61.1,53.8,61.5,54.4,61.5z"/>
	<path d="M54.4,67.8c0.1,0,0.2,0,0.2,0L68,65.2l13.3-2.7c0.7-0.1,1.1-0.8,1-1.5s-0.8-1.1-1.5-1l-13.3,2.7l-13.3,2.6
		c-0.7,0.1-1.1,0.8-1,1.5C53.3,67.4,53.8,67.8,54.4,67.8z"/>
</g>
</svg>
