<?xml version="1.0" encoding="utf-8"?>
<!-- Generator: Adobe Illustrator 21.1.0, SVG Export Plug-In . SVG Version: 6.00 Build 0)  -->
<svg version="1.1" id="Layer_1" xmlns="http://www.w3.org/2000/svg" xmlns:xlink="http://www.w3.org/1999/xlink" x="0px" y="0px"
	 viewBox="0 0 94.9 95" style="enable-background:new 0 0 94.9 95;" xml:space="preserve">
<g>
	<path d="M13.6,37.3L27,40.1l13.3,2.6c0.1,0,0.2,0,0.2,0c0.6,0,1.1-0.4,1.2-1c0.1-0.7-0.3-1.3-1-1.5l-13.3-2.6l-13.3-2.8
		c-0.7-0.1-1.3,0.3-1.5,1C12.5,36.5,12.9,37.2,13.6,37.3z"/>
	<path d="M13.6,43.6L27,46.4L40.3,49c0.1,0,0.2,0,0.2,0c0.6,0,1.1-0.4,1.2-1c0.1-0.7-0.3-1.3-1-1.5l-13.3-2.6l-13.3-2.8
		c-0.7-0.1-1.3,0.3-1.5,1C12.5,42.8,12.9,43.4,13.6,43.6z"/>
	<path d="M13.6,49.8L27,52.6l13.3,2.6c0.1,0,0.2,0,0.2,0c0.6,0,1.1-0.4,1.2-1c0.1-0.7-0.3-1.3-1-1.5l-13.3-2.6l-13.3-2.8
		c-0.7-0.1-1.3,0.3-1.5,1C12.5,49,12.9,49.7,13.6,49.8z"/>
	<path d="M13.6,56L27,58.8l13.3,2.6c0.1,0,0.2,0,0.2,0c0.6,0,1.1-0.4,1.2-1c0.1-0.7-0.3-1.3-1-1.5l-13.3-2.6l-13.3-2.8
		c-0.7-0.1-1.3,0.3-1.5,1C12.5,55.2,12.9,55.9,13.6,56z"/>
	<path d="M13.6,62.3L27,65.1l13.3,2.6c0.1,0,0.2,0,0.2,0c0.6,0,1.1-0.4,1.2-1c0.1-0.7-0.3-1.3-1-1.5l-13.3-2.6l-13.3-2.8
		c-0.7-0.1-1.3,0.3-1.5,1C12.5,61.5,12.9,62.1,13.6,62.3z"/>
	<path d="M13.6,68.5L27,71.3l13.3,2.6c0.1,0,0.2,0,0.2,0c0.6,0,1.1-0.4,1.2-1c0.1-0.7-0.3-1.3-1-1.5l-13.3-2.6L14.1,66
		c-0.7-0.1-1.3,0.3-1.5,1C12.5,67.7,12.9,68.4,13.6,68.5z"/>
	<path d="M13.6,74.8L27,77.6l13.3,2.6c0.1,0,0.2,0,0.2,0c0.6,0,1.1-0.4,1.2-1c0.1-0.7-0.3-1.3-1-1.5l-13.3-2.6l-13.3-2.8
		c-0.7-0.1-1.3,0.3-1.5,1C12.5,74,12.9,74.6,13.6,74.8z"/>
	<path d="M94.2,33.8c-1.6-0.1-3.3-0.1-4.9-0.1v-7.6c0-0.4-0.2-0.7-0.5-1c-0.3-0.2-0.7-0.3-1-0.3L47.5,33L7.2,24.7
		c-0.4-0.1-0.7,0-1,0.3c-0.3,0.2-0.5,0.6-0.5,1v7.6c-1.6,0-3.2,0.1-4.8,0.1c-0.4,0-0.8,0.4-0.8,0.8L0,88.3c0,0.2,0.1,0.4,0.3,0.6
		s0.4,0.2,0.6,0.2c15.4-0.7,30.5,1.3,45,5.7l1.3,0.4c0,0,0.1,0,0.2,0c0.1,0,0.2,0,0.2,0l1.3-0.4c14.5-4.4,29.6-6.3,45-5.6
		c0.2,0,0.4-0.1,0.6-0.2s0.3-0.4,0.3-0.6l0.1-53.8C95,34.1,94.7,33.8,94.2,33.8z M46.2,87.7L8.1,79.9l0.1-52.4l38.1,7.8L46.2,87.7z
		 M86.7,79.9l-38.1,7.8l0.1-52.4l38.1-7.8L86.7,79.9z"/>
	<path d="M54.4,42.7c0.1,0,0.2,0,0.2,0L68,40.1l13.3-2.7c0.7-0.1,1.1-0.8,1-1.5s-0.8-1.1-1.5-1l-13.3,2.7l-13.3,2.6
		c-0.7,0.1-1.1,0.8-1,1.5C53.3,42.3,53.8,42.7,54.4,42.7z"/>
	<path d="M54.4,49c0.1,0,0.2,0,0.2,0L68,46.4l13.3-2.7c0.7-0.1,1.1-0.8,1-1.5s-0.8-1.1-1.5-1l-13.3,2.7l-13.3,2.6
		c-0.7,0.1-1.1,0.8-1,1.5C53.3,48.6,53.8,49,54.4,49z"/>
	<path d="M54.4,55.2c0.1,0,0.2,0,0.2,0L68,52.6l13.3-2.7c0.7-0.1,1.1-0.8,1-1.5s-0.8-1.1-1.5-1l-13.3,2.7l-13.3,2.6
		c-0.7,0.1-1.1,0.8-1,1.5C53.3,54.8,53.8,55.2,54.4,55.2z"/>
	<path d="M54.4,61.4c0.1,0,0.2,0,0.2,0L68,58.8l13.3-2.7c0.7-0.1,1.1-0.8,1-1.5s-0.8-1.1-1.5-1l-13.3,2.7l-13.3,2.6
		c-0.7,0.1-1.1,0.8-1,1.5C53.3,61,53.8,61.4,54.4,61.4z"/>
	<path d="M54.4,67.7c0.1,0,0.2,0,0.2,0L68,65.1l13.3-2.7c0.7-0.1,1.1-0.8,1-1.5s-0.8-1.1-1.5-1l-13.3,2.7l-13.3,2.6
		c-0.7,0.1-1.1,0.8-1,1.5C53.3,67.3,53.8,67.7,54.4,67.7z"/>
	<path d="M54.4,73.9c0.1,0,0.2,0,0.2,0L68,71.3l13.3-2.7c0.7-0.1,1.1-0.8,1-1.5c-0.1-0.7-0.8-1.1-1.5-1l-13.3,2.7l-13.3,2.6
		c-0.7,0.1-1.1,0.8-1,1.5C53.3,73.5,53.8,73.9,54.4,73.9z"/>
	<path d="M54.4,80.2c0.1,0,0.2,0,0.2,0L68,77.6l13.3-2.7c0.7-0.1,1.1-0.8,1-1.5c-0.1-0.7-0.8-1.1-1.5-1l-13.3,2.7l-13.3,2.6
		c-0.7,0.1-1.1,0.8-1,1.5C53.3,79.8,53.8,80.2,54.4,80.2z"/>
</g>
</svg>
