<?xml version="1.0" encoding="utf-8"?>
<!-- Generator: Adobe Illustrator 21.1.0, SVG Export Plug-In . SVG Version: 6.00 Build 0)  -->
<svg version="1.1" id="Layer_1" xmlns="http://www.w3.org/2000/svg" xmlns:xlink="http://www.w3.org/1999/xlink" x="0px" y="0px"
	 viewBox="0 0 95.8 95.9" style="enable-background:new 0 0 95.8 95.9;" xml:space="preserve">
<title>4Artboard 4</title>
<path d="M10.9,72.4l17.7-21.5H14.5c-0.6,0-1.1-0.5-1.1-1.1c0-0.3,0.1-0.5,0.3-0.7l19.2-19.2h-9.2c-0.7,0-1.3-0.5-1.3-1.3
	c0-0.3,0.1-0.6,0.3-0.9L45.6,1.1c1.1-1.3,3-1.4,4.2-0.3c0.1,0.1,0.2,0.2,0.3,0.3l22.9,26.7c0.5,0.5,0.4,1.3-0.1,1.8
	c-0.2,0.2-0.5,0.3-0.9,0.3h-9.2l19.2,19.2c0.4,0.4,0.4,1.1,0,1.5c-0.2,0.2-0.5,0.3-0.7,0.3H67.2l17.7,21.5c0.5,0.6,0.4,1.6-0.2,2.1
	c-0.3,0.2-0.6,0.3-0.9,0.3H53.9v18c0,1.7-1.3,3-3,3h-6c-1.7,0-3-1.3-3-3v-18H12.1c-0.8,0-1.5-0.7-1.5-1.5
	C10.5,73.1,10.7,72.7,10.9,72.4z"/>
</svg>
