<?xml version="1.0" encoding="utf-8"?>
<!-- Generator: Adobe Illustrator 21.1.0, SVG Export Plug-In . SVG Version: 6.00 Build 0)  -->
<svg version="1.1" id="Layer_1" xmlns="http://www.w3.org/2000/svg" xmlns:xlink="http://www.w3.org/1999/xlink" x="0px" y="0px"
	 viewBox="0 0 52 51.8" style="enable-background:new 0 0 52 51.8;" xml:space="preserve">
<g transform="translate(0,-952.36218)">
	<path d="M13.3,958.3c-3.4,0-6.8,1.3-9.4,4c-5.2,5.4-5.2,14,0,19.4l21.4,22.2c0.4,0.4,1,0.4,1.4,0l0,0c7.1-7.4,14.2-14.8,21.4-22.2
		c5.2-5.4,5.2-14,0-19.4s-13.7-5.4-18.9,0l-3.2,3.3l-3.2-3.3C20.2,959.6,16.8,958.3,13.3,958.3L13.3,958.3z M13.3,960.3
		c2.9,0,5.8,1.1,8,3.4l3.9,4.1c0.4,0.4,1,0.4,1.4,0l0,0l3.9-4.1c4.5-4.6,11.5-4.6,16,0s4.5,12.1,0,16.7
		c-6.9,7.1-13.8,14.3-20.7,21.4L5.3,980.4c-4.5-4.6-4.5-12.1,0-16.7C7.6,961.4,10.5,960.3,13.3,960.3L13.3,960.3z"/>
</g>
</svg>
