<?xml version="1.0" encoding="utf-8"?>
<!-- Generator: Adobe Illustrator 19.1.0, SVG Export Plug-In . SVG Version: 6.00 Build 0)  -->
<svg version="1.1" id="Layer_1" xmlns="http://www.w3.org/2000/svg" xmlns:xlink="http://www.w3.org/1999/xlink" x="0px" y="0px"
	 viewBox="-326 515.5 283.4 283.4" style="enable-background:new -326 515.5 283.4 283.4;" xml:space="preserve">
<style type="text/css">
	.st0{fill:#FFFFFF;}
</style>
<path class="st0" d="M-146.7,728.3c21.8-26.7,59-34.5,91.7-29.4l6.9,1.1l-4.2,5.5c-20.9,27.6-59.4,36.1-92,29.4l-6.7-1.4
	L-146.7,728.3L-146.7,728.3z"/>
<path class="st0" d="M-138.2,532c23,18.5,36.7,49.1,31,78.6l-1.3,6.5l-5.3-3.9c-23.6-17.4-39.5-49.8-31.1-79.1l1.7-6L-138.2,532
	L-138.2,532z"/>
<path class="st0" d="M-43.5,626.8c-4.5,32.1-27.5,64.6-60.4,71.8l-6.1,1.3l1.1-6.1c5.8-32.2,28.3-61.6,60-71.6l6.3-2L-43.5,626.8
	L-43.5,626.8z"/>
<path class="st0" d="M-77.7,556.4c12.2,28.1,8.5,62-10.3,86.4l-4.4,5.7l-2.7-6.7c-11.5-28.2-8.6-62,10.3-86.3l4.3-5.5L-77.7,556.4
	L-77.7,556.4z"/>
<path class="st0" d="M-283.8,555.5c19,24.3,21.8,58.1,10.3,86.3l-2.7,6.7l-4.4-5.7c-18.8-24.3-22.5-58.3-10.3-86.4l2.8-6.4
	L-283.8,555.5L-283.8,555.5z"/>
<path class="st0" d="M-224.2,735c-32.6,6.7-71.2-1.9-92-29.4l-4.2-5.5l6.9-1.1c32.8-5.1,69.9,2.7,91.8,29.4l4.3,5.3L-224.2,735
	L-224.2,735z"/>
<path class="st0" d="M-223.8,534.1c8.4,29.3-7.5,61.6-31.1,79.1l-5.3,3.9l-1.2-6.5c-5.7-29.5,8-60.1,31-78.6l4.9-3.9L-223.8,534.1
	L-223.8,534.1z"/>
<path class="st0" d="M-319.7,622.3c31.7,10,54.2,39.4,60,71.6l1.1,6.1l-6.1-1.3c-32.8-7.2-55.9-39.8-60.4-71.8l-0.9-6.5
	L-319.7,622.3L-319.7,622.3z"/>
<path class="st0" d="M-161.2,758.1c5.3,5.7,10.9,11.1,17.3,15.5l4.4,3l-4,3.6c-1.6,1.5-3.2,2.9-4.9,4.4l-2,1.8l-2.5-1.1
	c-15.3-6.6-19.6-23-31.5-30.7c-11.9,7.7-16.2,24.1-31.5,30.7l-2.5,1.1l-2-1.8c-1.6-1.5-3.2-3-4.8-4.4l-4-3.6l4.4-3
	c6.4-4.3,12-9.8,17.3-15.5c-7.3,3.6-14.6,7.8-22.9,9.4c-14.9,2.5-30.8,3.4-45-2.8l-6.8-3l6.1-4.2c14-9.6,29-18.6,46.4-20
	c13.7-0.8,27.6-0.4,41,2.7h0.2l0.2,0.1c2.5,0.8,5.2,0.8,7.7,0l0.2-0.1h0.2c13.4-3.1,27.3-3.4,41-2.7c17.4,1.4,32.4,10.4,46.4,20
	l6.1,4.2l-6.8,3c-14.1,6.2-30.1,5.3-45,2.8C-146.7,765.9-153.9,761.7-161.2,758.1L-161.2,758.1z"/>
<g id="Your_Icon">
	<path class="st0" d="M-195.2,655.8l-17.2,17.2l-8.7-8.7l-9.7,0.3l13.4,13.4l2.8,2.8l-15.6,15.6c-1.9-0.3-3.9,0.3-5.4,1.8
		c-2.5,2.5-2.5,6.5,0,9s6.5,2.5,9,0c1.5-1.5,2.1-3.5,1.8-5.4l15.6-15.6l2.8,2.8l13.4,13.4l0.3-9.7l-8.7-8.7l17.2-17.2L-167,684
		l-8.7,8.7l0.3,9.7l13.4-13.3l2.8-2.8l15.6,15.6c-0.3,1.9,0.3,3.9,1.8,5.4c2.5,2.5,6.5,2.5,9,0s2.5-6.5,0-9
		c-1.5-1.5-3.5-2.1-5.4-1.8l-15.6-15.6l2.8-2.8l13.4-13.4l-9.7-0.3l-8.7,8.7l-17.2-17.2l39.6-39.6l0.8-11.8l-45.6,46.3l-5,5.1
		l-0.8,0.8l-5,5.1l-17.1,17.4l-1.2-1.2l17.4-17.1l5.1-5l0.8-0.8l5.1-5l46.3-45.6l-11.8,0.8l-39.7,39.6l-39.6-39.6l-11.8-0.8
		l46.3,45.6l-0.7,0.7l-45.6-46.3l0.8,11.8L-195.2,655.8z M-178.3,660.9L-161,678l-1.2,1.2l-17.1-17.4L-178.3,660.9z"/>
</g>
</svg>
