<?xml version="1.0" encoding="utf-8"?>
<!-- Generator: Adobe Illustrator 19.1.0, SVG Export Plug-In . SVG Version: 6.00 Build 0)  -->
<svg version="1.1" id="Layer_1" xmlns="http://www.w3.org/2000/svg" xmlns:xlink="http://www.w3.org/1999/xlink" x="0px" y="0px"
	 viewBox="-272.9 371.9 136.5 50.2" style="enable-background:new -272.9 371.9 136.5 50.2;" xml:space="preserve">
<g id="Your_Icon">
	<path d="M-197.4,404.3l52.6,0l8.4-7.3l-61,0.5l-6.7,0.1l-1.1,0l-6.7,0.1l-22.9,0.2l0-1.6l22.9,0.2l6.7,0.1l1.1,0l6.7,0.1l61,0.5
		l-8.4-7.3l-52.6,0l0,0h-6.8l0,0l-1,0l0,0l0,0l-6.8,0h-22.9v-11.6l-6.7-6.2l0,17.8l0,3.7l-20.7,0c-1.1-1.4-2.8-2.4-4.8-2.4
		c-3.3,0-6,2.7-6,6c0,3.3,2.7,6,6,6c2,0,3.7-0.9,4.8-2.4l20.7,0l0,3.7l0,17.8l6.7-6.2l0-11.6l22.9,0 M-205.2,404.3l1.2,0"/>
</g>
</svg>
