<?xml version="1.0" encoding="utf-8"?>
<!-- Generator: Adobe Illustrator 16.0.0, SVG Export Plug-In . SVG Version: 6.00 Build 0)  -->
<!DOCTYPE svg PUBLIC "-//W3C//DTD SVG 1.1//EN" "http://www.w3.org/Graphics/SVG/1.1/DTD/svg11.dtd">
<svg version="1.1" id="Your_Icon" xmlns="http://www.w3.org/2000/svg" xmlns:xlink="http://www.w3.org/1999/xlink" x="0px" y="0px"
	 width="66.666px" height="66.667px" viewBox="17.963 1.111 66.666 66.667" enable-background="new 17.963 1.111 66.666 66.667"
	 xml:space="preserve">
<path d="M84.629,31.414h-9.301C73.954,20.47,65.271,11.787,54.326,10.413V1.111h-6.06v9.302
	C37.321,11.787,28.639,20.47,27.265,31.414h-9.302v6.061h9.302c1.374,10.945,10.057,19.627,21.001,21.002v9.301h6.06v-9.301
	c10.945-1.375,19.628-10.057,21.002-21.002h9.301V31.414z M54.326,52.354v-8.818h-6.06v8.818c-7.608-1.279-13.6-7.271-14.879-14.879
	h8.819v-6.061h-8.819c1.279-7.608,7.271-13.599,14.879-14.879v8.819h6.062v-8.818c7.607,1.279,13.599,7.271,14.879,14.879h-8.82
	v6.061h8.819C67.926,45.083,61.936,51.074,54.326,52.354z"/>
</svg>
