<?xml version="1.0" encoding="utf-8"?>
<!-- Generator: Adobe Illustrator 16.0.0, SVG Export Plug-In . SVG Version: 6.00 Build 0)  -->
<!DOCTYPE svg PUBLIC "-//W3C//DTD SVG 1.1//EN" "http://www.w3.org/Graphics/SVG/1.1/DTD/svg11.dtd">
<svg version="1.1" id="Layer_1" xmlns="http://www.w3.org/2000/svg" xmlns:xlink="http://www.w3.org/1999/xlink" x="0px" y="0px"
	 width="263.914px" height="263.906px" viewBox="9.232 16.664 263.914 263.906"
	 enable-background="new 9.232 16.664 263.914 263.906" xml:space="preserve">
<path fill="#FFFFFF" d="M58.685,62.988l-18.25,41.177c-0.585,0.124-1.164,0.252-1.727,0.39c-2.931,0.717-5.509,1.616-7.775,2.652
	l-4.576-29.583l-13.861,48.319c-0.718,2.062-1.342,4.211-1.848,6.442l-0.144,0.501l0.039-0.022
	c-2.011,9.227-1.971,19.779,1.991,30.902c1.83,7.764,8.59,16.807,22.278,26.649c16.162,11.622,41.55,23.781,76.675,35.355
	c-0.14-0.994-0.218-2.007-0.218-3.038c0-6.76,3.121-12.836,7.99-16.855l-2.253-23.657l-17.461,20.866
	c-5.406-2.041-10.545-4.13-15.444-6.256l-1.633-43.281l-18.585,33.559c-5.02-2.686-9.686-5.41-14.003-8.166l-2.562-49.849
	l-16.018,36.017c-4.144-3.657-7.728-7.331-10.769-10.994c-2.35-11.082-0.228-21.073,3.402-29.022l2.482-1.44
	c8.776-3.043,19.662-4.233,32.39-3.423c18.122,1.154,40.144,6.504,65.413,17.054c0.054-7.248,4.265-13.569,10.349-16.688
	l-3.099-29.116l-16.687,23.685c-5.359-1.993-10.533-3.726-15.508-5.21l-2.358-38.051l-18.03,33.093
	c-6.524-1.198-12.574-1.902-18.113-2.165l-2.087-39.845L58.685,62.988z M237.552,79.562l-8.843,38.909
	c-5.497-0.688-11.562-1.039-18.18-0.984l-10.84-36.785l-10.007,38.181c-5.172,0.62-10.59,1.459-16.23,2.519l-10.527-24.825
	l-9.092,25.325c4.928,3.423,8.176,9.118,8.176,15.523c0,1.333-0.143,2.634-0.409,3.892c26.145-5.852,48.321-7.289,66.087-5.37
	c12.678,1.368,23.201,4.395,31.331,8.886l2.202,1.844c2.224,8.451,2.613,18.66-1.59,29.181c-3.621,3.091-7.777,6.099-12.483,8.997
	l-9.649-38.22l-11.012,48.687c-4.711,1.974-9.759,3.859-15.146,5.646l-10.92-34.092l-10.671,40.235
	c-5.174,1.257-10.578,2.438-16.235,3.526L161,185.487l-8.232,27.679c1.422,2.896,2.225,6.145,2.225,9.568
	c0,3.172-0.691,6.189-1.924,8.918c38.984-5.453,67.641-13.387,86.308-22.459c15.166-7.368,23.366-15.128,26.492-22.467
	c5.798-10.287,7.635-20.678,7.224-30.111l0.035,0.029l-0.057-0.521c-0.118-2.284-0.367-4.51-0.725-6.662l-5.431-49.972
	l-9.546,28.371c-2.057-1.406-4.445-2.729-7.211-3.937c-0.531-0.23-1.079-0.455-1.635-0.676L237.552,79.562L237.552,79.562z
	 M143.112,128.874c-4.785,0-8.55,3.766-8.55,8.551c0,1.955,0.637,3.731,1.708,5.159c1.894,0.014,3.828,0.091,5.795,0.234
	c2.388,0.173,4.721,0.439,6.994,0.787c1.61-1.547,2.604-3.728,2.604-6.18C151.664,132.642,147.896,128.874,143.112,128.874
	L143.112,128.874z M136.107,152.939c-0.565-0.002-1.125,0.003-1.679,0.014c-6.652,0.136-12.507,1.182-16.736,2.758
	c-2.82,1.052-4.883,2.342-6.007,3.443c-1.124,1.102-1.315,1.747-1.315,2.42c0,1.343,2.109,4.67,7.894,7.664
	s14.342,5.378,23.802,6.064c9.46,0.687,17.985-0.473,23.625-2.574c2.82-1.051,4.883-2.342,6.008-3.443
	c1.123-1.101,1.313-1.746,1.313-2.418c0-1.346-2.108-4.674-7.894-7.667c-5.783-2.994-14.342-5.377-23.802-6.062
	C139.543,153.007,137.802,152.945,136.107,152.939L136.107,152.939z M132.958,184.616l-1.639,16.337
	c0.598-0.049,1.202-0.082,1.812-0.082c2.98,0,5.827,0.608,8.423,1.703l1.689-16.834c-0.639-0.033-1.281-0.072-1.927-0.119
	C138.449,185.413,135.657,185.072,132.958,184.616L132.958,184.616z M133.131,211.217c-6.422,0-11.514,5.094-11.514,11.516
	c0,6.419,5.093,11.514,11.514,11.514c6.419,0,11.515-5.095,11.515-11.515s-5.095-11.515-11.516-11.515H133.131z"/>
</svg>
