<?xml version="1.0" encoding="utf-8"?>
<!-- Generator: Adobe Illustrator 20.1.0, SVG Export Plug-In . SVG Version: 6.00 Build 0)  -->
<svg version="1.1" id="Layer_1" xmlns="http://www.w3.org/2000/svg" xmlns:xlink="http://www.w3.org/1999/xlink" x="0px" y="0px"
	 viewBox="0 0 500 500" style="enable-background:new 0 0 500 500;" xml:space="preserve">
<g id="Layer_1_1_">
	<g>
		<g>
			<g>
				<path d="M224.4,267.2l0,0.2C224.5,267.4,224.5,267.3,224.4,267.2z"/>
				<path d="M225.3,238.1l0.2,0.1C225.4,238.1,225.3,238.1,225.3,238.1z"/>
				<path d="M211.5,231.4l0-0.2C211.5,231.3,211.5,231.3,211.5,231.4z"/>
				<g>
					<path d="M210.4,243.5c-0.2,5.4,0,10.9,0.7,16.3c0.7,5.6,1.8,11.1,2.1,16.7c0.1,3,0.2,6,0.3,9c0.1,1.5,0.1,3,0.2,4.5
						c0.1,1.5,0.3,2.9,0.4,4.4c0.4,2.9,0.6,5.9,0.7,8.9c0.1,1.5,0.2,3,0.2,4.5c0.1,1.5,0.1,3,0.3,4.5c0.3,2.9,0.8,5.9,1.4,8.6
						c0.3,1.4,0.5,2.8,0.7,4.2c0.2,1.4,0.3,2.8,0.2,4.2c-0.1,1.5-0.2,3-0.3,4.5c-0.1,0.7,0.8,4.3,1.2,5c0.2,0.3,1.1-1.8,1.4-2.4
						c0.9-2,1.7-5.1,2-6.8c0.3-1.7,0.4-2.9,0.5-4.1c0.1-1.2,0.1-2.4,0-4.1c-0.1-1.7-0.2-3.4-0.3-5.2c-0.1-1.7-0.1-3.3-0.2-5
						c-0.1-1.7,0.1-3.3,0.2-5c0.1-1.7,0.3-3.3,0.6-5c0.9-5.4,0-11.3,0.4-16.8c0.2-3,0.6-5.9,0.8-8.9c0.1-1.5,0.2-3,0.3-4.4
						c0.1-1.5,0.2-3,0.2-4.5c0.1-6.4,1-12.7,1.1-19.1c0-3.1,0-6.3-0.1-9.4c0.1-3.1,0.2-6.3,0.3-9.4c0.2-3.7,0.5-7.3,0.8-11
						c0.4-4.6,0.6-9.2,0.9-13.9l0.7-14.1c0.5-8.5,2.2-16.5,2.5-24.7c0-2.2,0.3-4.7,0.1-7.2c-0.1-2.5-0.5-4.9-1.7-7
						c-0.6-1-1.8-1.5-3-1.7c1.9,0.3-2.7,4.5-3,4.9c-1.5,2-2.1,4.4-3.1,6.6c-1,2.2-2,4.2-2.9,6.3c-0.9,2.1-1.6,4.3-2,6.6
						c-1.5,9.9-1.5,19.7-2.2,29.4c-0.5,8.4-0.7,16.9-1.3,25.3c-0.2,2.5-0.4,5.1-0.6,7.7C210.6,238.2,210.6,240.8,210.4,243.5z"/>
				</g>
			</g>
		</g>
	</g>
	<g>
		<g>
			<g>
				<path d="M110.2,132.8l-0.2-0.1C110.1,132.8,110.1,132.8,110.2,132.8z"/>
				<path d="M136.7,143.7l-0.1,0.1C136.7,143.8,136.7,143.8,136.7,143.7z"/>
				<path d="M146.5,132l0.2,0C146.6,132,146.5,132,146.5,132z"/>
				<g>
					<path d="M136.3,128c-2.3-0.9-4.6-1.7-7-2.5c-2.3-0.8-4.8-1.4-7.2-2.1c-2.5-0.7-5-1.2-7.5-1.9c-1.2-0.4-2.5-0.7-3.7-1.2
						c-1.2-0.5-2.4-1-3.6-1.5c-5-2.4-9.7-5.2-14.8-7.6c-5.1-2.4-9.6-5.4-14.3-8.6c-4.5-3-9.6-5.1-13.8-8.6c-1.1-0.9-2.2-1.9-3.3-2.9
						c-0.1-0.1-0.4-0.3-0.9-0.5c-0.1,0-0.2-0.1-0.3-0.1c-0.1,0-0.1,0-0.2-0.1c-0.2,0-0.3-0.1-0.5-0.1c-0.8-0.1-1.2-0.6-1.5-0.8
						c-0.1-0.1-0.2,0.4-0.3,0.9c-0.1,0.6,0.1,1.2,0.2,1.4c0.2,0.4,0.4,0.8,0.8,1.3c0.3,0.5,0.7,1,1.1,1.5c0.7,1,1.4,1.9,2,2.5
						c2.2,2.3,3.2,3.4,5.7,5.3c5.2,4,10.4,7.7,15.2,12.3c2,1.8,4.2,3.3,6.6,4.7c2.4,1.4,4.7,2.7,6.9,4.2c2.4,1.6,4.8,3.4,7.3,4.9
						c2.4,1.6,5,3.1,7.7,4.4c5.7,2.6,11.1,5.9,17.1,8c5.9,2.1,11.9,3.7,17.9,5.4l5.3,1.4l2.5,0.7c0.8,0.2,1.6,0.5,2.4,0.7
						c4.1,1.3,8.4,2.6,13,3.6c4.6,1.1,9.5,1.9,14.7,2c1.6,0.1,3.3,0,5,0c0.8,0,1.7-0.1,2.5-0.2c0.8-0.1,1.7-0.1,2.5-0.3l2.5-0.4
						c0.8-0.2,1.6-0.4,2.5-0.7c0.8-0.2,1.7-0.5,2.4-0.8l2.1-0.8c0,0,0,0,0,0c0,0,0.1,0,0.2-0.1l0.3-0.1l1.6-0.4
						c1.1-0.3,2.2-0.6,3.4-1c4-1.3,9.6-2.8,12-6.3c0.1-0.2,0.2-0.4,0.3-0.7l0-0.2c0-0.1,0.1-0.1,0-0.2c-0.1-0.1-0.2-0.3-0.2-0.4
						c-0.2-0.6-0.1-1.2,0-1.8c0,0.2-0.1,0.4,0,0.5c0,0,0.1,0.1,0.1,0.1c-0.1,0-0.2,0-0.3,0c-0.4-0.1-1-0.3-1.7-0.5
						c-1.3-0.5-2.8-1.2-3-1.3c-2.3-0.6-4.6-0.5-6.9-0.7c-1.9-0.2-3.7-0.4-5.5-0.6c-0.9-0.1-1.8-0.1-2.8-0.2c-0.5,0-0.9,0-1.5,0
						c-0.5,0-1.4,0.2-2.2,0.5l-0.2,0.1l-0.1,0l0,0l0,0l-0.1,0l-0.1,0l-0.2,0l-0.4,0.1c-0.3,0.1-0.5,0.1-0.8,0.2
						c-3.6,1.1-7.1,1.6-10.9,1.5c-3.8,0-7.8-0.6-12-1.6c-3.6-0.9-7.4-1.9-11.3-3l-3-0.8l-3.1-0.8l-5.5-1.5c-2.2-0.6-4.4-1.4-6.6-2.2
						C140.7,129.7,138.5,128.9,136.3,128z"/>
				</g>
			</g>
		</g>
	</g>
	<g>
		<g>
			<g>
				<path d="M378,125.2l-0.4,0.3C377.7,125.4,377.9,125.4,378,125.2z"/>
				<path d="M431.2,109.3l-0.1,0.2C431.2,109.4,431.2,109.3,431.2,109.3z"/>
				<path d="M444.7,95.1l0.4,0C444.9,95.1,444.8,95.1,444.7,95.1z"/>
				<g>
					<path d="M418,95.3c-5.7,0.3-11.5,0.8-17.1,1.2c-1.4,0.1-2.9,0.3-4.1,0.3l-1.9,0.2l-0.5,0l-0.9,0.1c-0.6,0-1.3,0.1-1.9,0.2
						c-1.3,0.2-2.5,0.7-3.7,1.1c-1.1,0.5-2.2,1.1-3,1.8c-1.8,1.3-3.1,2.6-4.2,3.9c-2.3,2.6-3.9,4.9-5.5,6.9c-1.6,2-3.3,3.7-5.1,5
						c-0.9,0.6-1.9,1.2-3,1.6c-0.5,0.2-1.1,0.4-1.6,0.6c-0.3,0.1-0.6,0.2-0.8,0.2c-0.3,0.1-0.5,0.1-0.9,0.2
						c-2.9,0.7-5.9,1.3-8.8,1.8c-12.5,2.4-24.6,5.1-36.8,7.4c-12.4,2.4-24.6,4-37.1,5.7c-3,0.4-6,0.8-9,1.3l-2.2,0.4l-2.2,0.3
						l-2.2,0.3l-2.3,0.3c-6.1,0.8-12.2,1.7-18.3,2.3c-1.6,0.2-3.3,0.4-4.9,0.5l-2.5,0.3l-2.5,0.4c-0.8,0.1-3.2,0.7-5.5,1.6
						c-2.3,0.8-4.6,1.7-5.4,2.1c-0.6,0.3,4.2,0.1,5.6,0c1.1-0.1,2.3-0.1,3.6-0.1c1.3,0,2.6-0.1,4-0.1c2.6-0.1,5.2-0.1,6.9-0.2
						c3.4-0.2,6-0.3,8.5-0.4c2.5-0.1,5.1-0.3,8.6-0.6c1.8-0.1,3.6-0.2,5.4-0.3c1.8-0.1,3.7-0.2,5.5-0.4c3.6-0.4,7.2-0.7,10.8-1.1
						c7.1-0.7,14.3-1.4,21.5-1.7c2.9-0.2,5.9-0.4,8.8-0.8c1.5-0.2,3-0.3,4.4-0.5c1.5-0.2,3-0.5,4.5-0.7c3-0.5,6-1,9-1.5
						c3-0.6,5.9-1.1,8.8-1.5l9.5-1.4c1.6-0.2,3.1-0.5,4.7-0.7l4.7-0.6l4.7-0.6l2.3-0.3c1-0.1,2-0.3,3-0.5c4-0.9,7.8-2.7,10.9-5.2
						c3.4-2.5,6-5.4,8.3-7.9c1.2-1.2,2.2-2.3,3.2-3.1c1-0.8,1.8-1.3,2.3-1.4c0.2-0.1,0.4-0.1,0.6-0.1c0.1,0,0.1,0,0.2,0l0.4,0l1.4,0
						l2.8,0l2.6-0.1c3.5-0.1,6.9-0.3,10.3-0.6c6.7-0.5,13.4-1.1,20-1.5c1.7-0.1,3.3-0.2,4.9-0.3l2.4-0.1l2.2,0
						c1.4-0.1,2.9,0.1,4.4,0.3c0.7,0.1,1.5,0.2,2.2,0.3c0.7,0.2,1.4,0.3,2.1,0.5c3.2,0.8,6.3,2,8.7,3.6c2.4,1.6,4.1,3.6,5.1,6
						c0.1,0.4,0.3,0.8,0.5,1.1c0.1,0.4,0.2,0.8,0.3,1.2c0.1,0.4,0.3,0.8,0.3,1.3l0.1,1.4l0.1,0.7c0,0.1,0,0.3,0,0.4l0,0.5l0.1,1.9
						l0.3,3.8c0.4,4.9,0.7,9.7,0.7,14.3c0,9.2-1.4,18.1-5.3,25.7c-0.2,0.4-0.4,0.9-0.7,1.3l-0.8,1.2c-0.5,0.8-1,1.7-1.6,2.4
						l-0.9,1.1l-0.9,1.1c-0.6,0.8-1.3,1.5-2,2.3c-2.8,3.1-6,6.1-9.1,9.3c-3.2,3.3-6.4,6.7-9.4,10.8c-0.7,1-1.4,2.2-2.2,3.2
						c-0.7,1.2-1.4,2.3-1.9,3.6c-0.6,1.3-1.2,2.6-1.6,4l-0.3,1.1l-0.2,0.5l-0.1,0.4l-0.4,1.7c-0.5,2.4-1.2,5.1-1.7,7.8
						c-0.5,2.7-0.9,5.4-1.3,8.1c-0.4,2.6-0.7,5.2-0.8,7.6c-0.2,2.4-0.3,4.6-0.2,6.7c0.2,2,1.2,3,2.3,3.4c-0.9-0.3,0.3-2.6,1.8-5
						c0.8-1.2,1.6-2.4,2.2-3.3c0.6-1,1.1-1.7,1.1-1.9c1.1-2.1,2-4.4,2.9-6.8c0.9-2.3,1.7-4.7,2.6-7c0.9-2.2,1.8-4.2,2.8-6.3l0.7-1.5
						c0.2-0.5,0.5-0.9,0.7-1.3c0.2-0.4,0.5-0.8,0.7-1.2l0.8-1.2c2.2-3.1,5.2-6,8.3-9.5c3.3-3.6,7-7.2,10.7-11.1c1.9-2,3.7-4,5.5-6.4
						c0.5-0.6,0.9-1.2,1.3-1.8c0.4-0.6,0.9-1.2,1.3-1.9c0.8-1.3,1.6-2.6,2.3-3.9c2.9-5.3,4.9-11,6.1-16.8c1.2-5.8,1.6-11.5,1.6-17.1
						c0-4.8-0.3-9.4-0.6-13.9c-0.2-2.2-0.4-4.5-0.5-6.6l-0.1-0.8c0-0.3-0.1-0.7-0.1-1l-0.3-2.1c-0.1-1.4-0.6-2.9-0.9-4.3
						c-0.1-0.4-0.2-0.7-0.3-1.1l-0.4-1.1l-0.9-2.1c-0.3-0.7-0.7-1.3-1.1-2c-0.4-0.7-0.8-1.3-1.2-2l-1.4-1.8
						c-0.2-0.3-0.5-0.6-0.7-0.9l-0.8-0.8l-1.6-1.6l-1.7-1.4l-0.9-0.7c-0.3-0.2-0.6-0.4-0.9-0.6l-1.8-1.1c-0.6-0.3-1.2-0.6-1.9-1
						c-0.6-0.3-1.2-0.6-1.9-0.9c-2.5-1.1-5-1.8-7.6-2.5c-3-0.7-6-1.2-9.1-1.5c-1.6-0.1-3.2-0.1-4.7-0.2c-1.4,0-2.9,0-4.3,0.1
						C429,94.7,423.5,95,418,95.3z"/>
				</g>
			</g>
		</g>
	</g>
	<g>
		<g>
			<g>
				<path d="M383.6,230.8l0,0.2C383.6,230.9,383.6,230.9,383.6,230.8z"/>
				<path d="M380.5,202.8l0.2,0C380.6,202.8,380.5,202.8,380.5,202.8z"/>
				<path d="M368.4,210.4L368.4,210.4C368.4,210.4,368.4,210.4,368.4,210.4z"/>
				<g>
					<path d="M368.6,212.6c0.3,1.9,0.6,3.9,0.8,5.8l0.2,1.4c0,0.4,0.1,0.9,0.2,1.3l0.1,0.7l0.1,0.9l0.2,1.8c0.6,5,2,9.8,2.6,14.6
						c0.5,5.1,1.1,10.2,2.4,15.1c0.3,1.2,0.6,2.5,0.9,3.7c0.2,1.2,0.4,2.4,0.6,3.6c0.2,1.2,0.3,2.4,0.4,3.6c0.1,1.2,0.2,2.5,0.2,3.7
						c0.1,2.4,0.6,4.7,1,7.1c0.4,2.4,0.7,4.8,0.6,7.2c-0.1,1.3-0.2,2.6-0.4,3.9c-0.1,0.6,0.9,3.8,1.4,4.4c0.2,0.3,1.1-1.6,1.3-2.1
						c0.7-1.7,1.7-4.4,2-5.8c0.5-2.8,0.7-4.1,0.8-6.9c0.1-5.9-0.1-11.5,0.4-17.5c0.1-0.6,0.1-1.2,0.1-1.8c0-0.6,0-1.2-0.1-1.8
						c-0.1-1.2-0.3-2.3-0.4-3.5c-0.2-1.2-0.3-2.3-0.5-3.5c-0.1-1.2-0.2-2.3-0.2-3.5c0-5,0.5-9.9,0.4-14.7c0-1.3,0-2.6,0.1-3.8
						l0.4-3.8c0.4-3.3,0.3-6.4-0.1-9.5l-0.4-2.2l-0.1-0.5c0-0.2-0.1-0.4-0.1-0.6l-0.3-1.4c-0.5-1.9-1.2-3.8-2.7-6
						c-1.4-2-3.2-3.7-5.4-4.8c-2.1-1.1-4.6-1.6-7-1.5c-1.4,0.1-2.8,0.3-4.2,0.8l-1,0.4c-0.3,0.1-0.7,0.3-0.9,0.4
						c-0.6,0.3-1.1,0.5-1.7,0.8c-1,0.6-1.9,1.2-2.8,1.9c-0.4,0.3-0.9,0.7-1.3,1l-1.1,1.1c-1,0.9-1.7,1.8-2.5,2.7
						c-0.7,0.9-1.4,1.9-2.1,2.8c-1.2,1.9-2.4,3.7-3.3,5.5c-2,3.6-3.7,7.2-5.6,10.3c-1.7,2.8-3.8,5.3-5.6,6.6l-0.2,0.1l-0.3,0.3
						l-0.8,0.7l-0.4,0.4l-0.3,0.3l-0.6,0.7c-0.8,0.9-1.5,1.8-2,2.6c-1.2,1.7-2.1,3.2-3,4.8c-0.9,1.7-1.9,3.5-2.5,5.1
						c-0.7,1.7-1,3.1-0.6,4.6c0.2,0.7,0.6,2,1,3.1c-0.4-0.9,0.4-0.6,1.7-0.7c0.6,0,1.3-0.1,1.9-0.1c0.6-0.1,1-0.1,1.1-0.2
						c2.1-0.7,3.7-2.2,5.4-3.5c1.7-1.2,3.3-2.3,4.9-3.4c1.5-1.1,3-2.2,4-3.1l0.4-0.3c0.1-0.1,0.2-0.1,0.3-0.2l0.1-0.1l0.4-0.3
						l0.8-0.7c0.5-0.5,1-1,1.4-1.4l1.3-1.5c1.5-1.9,2.9-3.9,4-5.8c2.3-3.9,4.1-7.6,6.1-11c1.6-2.9,3.3-5.6,4.9-7.6
						c0.2-0.3,0.4-0.4,0.6-0.7c0.2-0.2,0.4-0.5,0.6-0.6c0.4-0.3,0.8-0.7,1.1-0.9c0.9-0.5,0.7-0.4,0.9-0.4c0.1,0,0.2,0.2,0.2,0.3
						c0,0,0,0.1,0,0.1l0,0c0,0,0,0.1,0,0.2c0,0.1,0.1,0.4,0.1,0.6C368.6,212,368.6,212.3,368.6,212.6z"/>
				</g>
			</g>
		</g>
	</g>
	<g>
		<g>
			<g>
				<path d="M62.3,409.4l-0.9,0.4C61.8,409.6,62.1,409.5,62.3,409.4z"/>
				<path d="M194.7,354.8l-0.2,0.2C194.7,354.9,194.8,354.8,194.7,354.8z"/>
				<path d="M225.2,342.8l0.9,0.2C225.6,342.9,225.4,342.9,225.2,342.8z"/>
				<g>
					<path d="M163.7,349.8l-9.8,2.9c-3.3,0.9-6.5,2.1-9.8,3.2c-6.5,2.1-12.8,4.7-19.2,7.3c-3.1,1.4-6.2,2.8-9.3,4.1
						c-0.8,0.4-1.6,0.7-2.3,1l-2.3,1.1l-4.6,2.3c-3,1.5-6,3-9.1,4.5c-2.9,1.6-5.9,3.2-8.8,4.8c-6.9,3.9-13.8,7.7-20.7,11.5
						c-3.5,1.8-6.9,3.6-10.4,5.4l-5.4,2.8c-0.6,0.3-0.9,0.5-1.2,0.7c-0.1,0.1-0.2,0.2-0.4,0.3c-0.2,0-0.3,0.1-0.5,0.1l-0.9,0
						c1.8,1.6,3.5,3.2,5.3,4.7c-0.4-2.9-0.9-5.8-1.3-8.7c-0.1-0.3,0-0.6-0.2-0.9l-0.3-0.9l-0.4-1.1c-0.2-0.6-0.4-1.1-0.6-1.7
						l-0.5-1.8c-0.2-0.6-0.3-1.2-0.4-1.9c-1-5.1-1-10.9-2-17.1c-0.8-4.2-1.6-7.4-2.3-10.9l-0.3-1.3l-0.2-1.3l-0.4-2.6
						c-0.3-1.8-0.6-3.5-0.8-5.3c-0.9-7.1-1.6-14.3-2.1-21.5l-0.9-10.9c-0.3-3.7-0.7-7.3-1.1-11c-0.5-3.7-0.9-7.4-1.5-11l-0.8-5.4
						l-0.7-5.4c-1-7.2-1.7-14.4-2.2-21.5l-0.2-2.9c-0.1-1-0.2-2-0.4-2.9c-0.3-1.9-0.7-3.7-1-5.5c-0.3-1.7-0.6-3.3-0.6-4.8
						c-0.1-1.5,0.2-2.6,0.6-3.6c0.2-0.5,0.6-0.9,0.9-1.4c0.5-0.4,0.8-0.9,1.4-1.2c0.3-0.2,0.5-0.4,0.8-0.6l1-0.5
						c0.6-0.4,1.5-0.7,2.2-1l1.2-0.5l1-0.3c0.7-0.3,1.4-0.3,2-0.5c1.5-0.2,3.3-0.2,5.3-0.4c2-0.2,4-0.6,6.1-1.1
						c2-0.7,4.1-1.4,6.1-2.9c1.9-1.4,3.7-3.2,4.8-5.4c1.1-2.2,1.7-4.5,1.9-6.7c0.2-2.1,0.1-4.2-0.1-6.1l-0.2-1.5l-0.2-1.3l-0.4-2.6
						c-0.5-3.5-1-7-1.6-10.5c-1.2-7-2-14-2.9-20.9c-1-7-1.6-14-2.3-21l-0.5-5.3c-0.2-1.8-0.2-3.5-0.4-5.3c-0.2-3.5-0.4-7-0.6-10.6
						c-0.1-1.9-0.2-3.8-0.3-5.6c-0.1-2-0.2-4-0.5-5.9c-0.4-3.9-1.2-7.8-2.1-11.5c-0.4-1.9-2.2-7.3-3.9-12.5
						c-0.4-1.3-0.8-2.6-1.1-3.8c-0.2-0.6-0.4-1.2-0.5-1.8c-0.2-0.6-0.4-1.2-0.6-1.8c-0.7-2.3-1.4-4.1-1.7-5c-0.3-0.8,0,1.6,0.5,4.6
						c0.1,0.7,0.2,1.5,0.4,2.3c0.1,0.7,0.2,1.5,0.3,2.2c0.2,1.4,0.4,2.6,0.5,3.4c0.9,4.9,2.4,11.1,3.4,17.1c0.5,3,0.8,6,1,8.6
						c0.1,2.7,0.2,5.1,0.2,7.1c0.2,8,0.3,13.9,0.6,19.8c0.4,5.9,0.7,11.9,1.4,20.1c0.4,4.2,0.9,8.4,1.3,12.6
						c0.4,4.2,0.8,8.4,1.4,12.6c0.5,4.2,1.1,8.3,1.6,12.5l0.4,3.1l0.2,1.5c0.1,0.5,0.1,1,0.1,1.4c0.1,1.9,0,3.8-0.4,5.4
						c-0.4,1.6-1.1,3.1-2.2,4.2c-1.1,1.1-2.5,1.9-4.1,2.6l-1.2,0.4l-1.3,0.3l-0.7,0.2l-0.7,0.1l-1.4,0.2c-1,0.1-1.9,0.1-2.9,0.2
						c-1.1,0.1-2.2,0.1-3.3,0.2c-1.2,0.2-2.5,0.3-3.7,0.7c-0.6,0.2-1.3,0.4-1.7,0.6l-1.5,0.6c-0.5,0.2-1,0.4-1.5,0.7l-1.6,0.8
						c-0.6,0.2-1.1,0.6-1.6,1c-0.5,0.4-1.1,0.7-1.6,1.2c-0.5,0.5-1,0.9-1.5,1.5c-0.4,0.6-0.9,1.2-1.3,1.8c-0.4,0.6-0.7,1.3-1,2
						c-0.3,0.7-0.5,1.4-0.7,2.1c-0.6,2.8-0.5,5.4-0.2,7.6c0.4,3.7,1.1,6.9,1.4,9.9c0.1,3.4,0.3,6.8,0.4,10.2c0.2,3.5,0.6,7,0.9,10.5
						c0.4,3.5,0.8,7,1.2,10.5c0.4,3.4,1,7,1.4,10.4c0.4,3.4,0.8,6.8,1.1,10.2c0.1,1.7,0.3,3.4,0.4,5.1c0.1,1.7,0.2,3.4,0.4,5.2
						c0.2,3.5,0.4,6.9,0.6,10.3l0.6,9.4c0.2,3.1,0.6,6.3,0.9,9.4c0.4,3.2,0.8,6.3,1.3,9.5l1.8,9.3l0.3,2c0.1,0.7,0.2,1.4,0.2,2.1
						c0.2,1.4,0.3,2.9,0.4,4.4l0.3,4.7c0.1,1.6,0.2,3.2,0.5,5l0.3,2.6l0.6,2.6l0.3,1.3c0.1,0.4,0.3,0.9,0.4,1.3l0.4,1.3l0.2,0.6l0,0
						c0.3,2.8,0.6,5.5,0.9,8.3l0.6,5.6l5.7,0.1l1.3,0l0.7,0l0.8,0c1.1,0,2.2-0.3,3.2-0.7c0.3-0.1,0.5-0.3,0.7-0.4
						c0.2-0.1,0.5-0.3,0.6-0.4l0.5-0.3c0.2-0.1,0.4-0.2,0.4-0.3l1.4-0.7c2.3-1.1,4.6-2.2,6.9-3.3l5.5-2.6c1.8-0.9,3.6-1.7,5.4-2.6
						l10.7-5.4l10.6-5.3l5.3-2.6c1.8-0.9,3.5-1.6,5.3-2.5l10.6-4.9c3.6-1.5,7.2-3,10.8-4.5c1.8-0.8,3.6-1.4,5.4-2.1l5.5-2.1l2.7-1
						l2.8-0.9l5.5-1.9c3.6-1.3,7.3-2.3,11-3.5l5.6-1.7l3-1l2.9-1c7.7-2.8,14.6-6,21.3-7.4c3.2-0.7,6.4-1,9.9-0.8
						c3.5,0.2,7,0.7,10.7,1.4c7.6,1.6,15.3,3.3,22.9,4.9c4.5,0.9,9,1.8,13.4,2.8l6.6,1.5l6.5,1.6l13.4,3.4l3.4,0.9l3.4,0.8l6.7,1.5
						l8.4,1.9c1.4,0.3,2.8,0.6,4.2,1l4.1,1.1l8.5,2.2c3.1,0.7,5.9,1.2,8.8,1.8l17,3.2c5.6,1.1,11.2,2.3,16.3,3.7
						c1.2,0.4,2.5,0.7,3.5,1.1c0.2,0.1,0.6,0.2,0.7,0.3c0.1,0.1,0.3,0.2,0.4,0.2l0.2,0.1c0.1,0,0.3,0.2,0.4,0.2l0.8,0.5
						c1.1,0.7,2.2,1.4,3.3,2.2c1.1,0.7,2.1,1.5,3,2.3c1,0.8,1.9,1.6,2.8,2.5c0.4,0.4,0.9,0.9,1.4,1.4l1.5,1.6
						c0.2,0.3,0.6,0.6,0.9,0.9c0.3,0.3,0.6,0.6,1,0.9c0.8,0.7,1.5,1.3,2.4,1.9c0.4,0.3,0.9,0.6,1.3,0.9l1.4,0.8l0.7,0.4l0.7,0.3
						l1.4,0.5c0.5,0.2,0.9,0.3,1.3,0.5l1.3,0.4c0.9,0.3,1.7,0.4,2.5,0.6c1.6,0.4,3.2,0.6,4.7,0.9c1.5,0.3,3,0.4,4.5,0.6
						c1.5,0.2,2.9,0.3,4.4,0.5c5.8,0.6,11.7,1.1,17.7,1.4c5.4,0.2,10.9,0.3,16.6-0.3c2.9-0.3,5.9-0.8,9-1.8c2.8-0.9,5.6-2,8.3-3.4
						c2.7-1.4,5.4-3.2,7.8-5.3c2.4-2.1,4.6-4.7,6.4-7.5c1.8-2.8,3-6,3.9-9c0.8-2.9,1.4-5.8,1.7-8.6c1.5-11.1,1.3-21.8,0.9-32.3
						l-0.2-3.9l-0.1-1c-0.1-0.6-0.1-1.1-0.2-1.7c-0.2-1.1-0.4-2.3-0.9-3.4c-0.8-2.2-2-4.1-3.1-5.6c-1.2-1.5-2.3-2.7-3.5-3.8
						c-2.2-2.1-4.3-3.8-6.3-5.4c-2-1.6-4-3.3-5.6-4.8c-0.4-0.4-0.9-0.8-1.4-1.2c-0.5-0.4-0.9-0.9-1.4-1.4c-0.9-1-1.9-1.9-2.8-2.9
						c-1.8-2.1-3.6-4.2-5.3-6.6c-1.9-2.4-3.1-4.3-4.4-6.9c-1.3-2.5-2.6-5.3-3.9-8.2c-0.7-1.4-1.3-2.9-2.1-4.4c-0.3-0.7-0.7-1.3-1-2
						c-0.3-0.6-0.6-1.2-0.9-1.9c-0.5-1.3-1.1-2.5-1.6-3.8c-0.3-0.6-0.5-1.3-0.7-1.9c-0.2-0.6-0.4-1.3-0.6-1.9
						c-1.7-5-2.9-9.9-3.8-14.2c-0.7-4.2-1.9-5.6-3.1-5.7c0.5,0,0.5,1.5,0.4,3.8c-0.1,1.1-0.1,2.4-0.2,3.9c0,0.7-0.1,1.5-0.1,2.2
						c0,0.8,0,1.5,0,2.3c-0.1,6.3,0.9,12.9,1.1,13.8c0.5,2.7,1.4,5.4,2.3,8.1c0.9,2.6,1.9,5.3,2.8,8c1,2.7,2,5.5,3.3,8.2
						c0.6,1.4,1.3,2.7,2.1,4.1c0.8,1.3,1.6,2.5,2.3,3.7c0.4,0.6,0.7,1.2,1.1,1.8c0.4,0.6,0.8,1.1,1.2,1.7c0.8,1.1,1.6,2.3,2.4,3.4
						c0.8,1.1,1.7,2.2,2.6,3.3l1.3,1.6c0.4,0.5,0.9,1,1.4,1.6c1,1,1.9,2.1,2.9,3.1l2.9,2.8c1.9,1.8,3.8,3.7,5.4,5.4
						c1.6,1.7,2.8,3.4,3,4.5c0,0.1,0,0.3,0.1,0.4c0,0.1,0,0.3,0,0.4l0,1.3c0,1.3,0,2.7,0,4c0,5.4,0,10.8-0.2,16.4
						c-0.1,2.9-0.2,5.8-0.5,8.7c-0.3,2.8-0.6,5.6-1.2,8.2c-0.5,2.6-1.2,5-2.2,6.9c-0.9,1.9-2.3,3.6-3.9,5.2
						c-1.6,1.5-3.6,2.8-5.7,3.9c-1.1,0.5-2.2,1.1-3.4,1.5c-1.2,0.5-2.5,0.9-3.5,1.1c-2.2,0.5-4.9,0.9-7.6,1
						c-2.7,0.2-5.6,0.2-8.5,0.1c-5.8-0.1-11.6-0.6-17.5-1.2c-2.9-0.3-6-0.6-8.8-1c-1.4-0.2-2.7-0.4-4.1-0.6
						c-0.7-0.1-1.3-0.3-1.9-0.4c-0.7-0.1-1.2-0.3-1.7-0.5l-0.8-0.2l-0.6-0.3c-0.5-0.2-0.8-0.4-1.1-0.5c-0.6-0.4-1.1-0.7-2-1.6
						c-0.4-0.4-0.9-1-1.4-1.5l-1.7-1.8l-1.9-1.8l-2-1.8c-1.4-1.1-2.7-2.2-4.1-3.2c-0.7-0.5-1.4-1-2.1-1.5l-2.1-1.3l-1-0.7l-0.5-0.3
						l-0.8-0.4c-0.5-0.3-1.1-0.5-1.6-0.8c-0.5-0.2-0.9-0.4-1.4-0.5l-1.3-0.5c-0.5-0.2-0.8-0.3-1.2-0.4c-0.8-0.2-1.6-0.5-2.4-0.7
						c-5.4-1.5-10.5-2.6-15.7-3.6c-5.2-1-10.3-2-15.4-2.9l-7.5-1.4c-1.3-0.2-2.4-0.5-3.6-0.8l-3.4-0.9l-7.8-2l-1.9-0.5l-1.9-0.4
						l-3.8-0.8l-15.2-3.3c-2.5-0.5-4.9-1.2-7.4-1.8l-7.5-1.8c-5.2-1.3-10.3-2.6-15.4-3.7c-5.2-1.1-10.2-2.2-15.3-3.3
						c-3.1-0.6-6-1.3-9-2c-3-0.7-6-1.3-9.2-2.1c-6.3-1.4-13.1-2.7-20.5-2.8c-0.9,0-1.9,0.1-2.8,0.1c-0.9,0.1-1.9,0.1-2.8,0.2
						c-1.9,0.3-3.8,0.5-5.5,0.9c-0.9,0.2-1.8,0.4-2.6,0.6l-2.5,0.7c-1.7,0.5-3.3,1.1-4.9,1.6C175,345.8,169.2,348.3,163.7,349.8z"/>
				</g>
			</g>
		</g>
	</g>
	<g>
		<g>
			<g>
				<path d="M290,226.6l0,0.2C290,226.7,290.1,226.6,290,226.6z"/>
				<path d="M293.1,210.6l0,0.2C293.1,210.7,293.1,210.7,293.1,210.6z"/>
				<path d="M301.2,198.8c0,0,0.3,0.2,0.3,0.2C301.4,198.8,301.3,198.8,301.2,198.8z"/>
				<g>
					<path d="M281.3,194.8l-1.8,0l0.1,1.7l0.1,0.8c0,0.3,0,0.4,0,0.7l0,2.5v2.5l-0.6,1.7c-0.4,1.1-0.9,2.4-1.1,3.3
						c-0.2,0.7-0.4,1.5-0.5,2.2c-0.5,3-0.6,5.8-0.4,8.5c0.4,5.9,1.8,11.1,1.4,16.2c-0.1,3-0.4,5.9-0.4,8.8c0,1.5,0,2.9,0.1,4.4
						l0.1,2.2l0.2,2.2c0.3,2.9,0.5,5.8,0.7,8.7c0.1,1.4,0.1,2.9,0.2,4.3c0.1,1.4,0.2,2.9,0.2,4.3c0.1,2.8,0.7,5.6,1.2,8.3
						c0.5,2.8,1,5.5,1.1,8.3c0,1.5,0,3,0,4.5c0,0.7,1.3,4.3,1.8,4.9c0.2,0.3,0.9-2,1.1-2.6c0.6-2,1.3-5.1,1.4-6.7
						c0.3-3.2,0.4-4.7,0.3-7.9c-0.1-3.3-0.2-6.6-0.2-9.8c0-3.2,0.3-6.5,0.7-9.7c0.4-2.6,0.5-5.3,0.4-7.9c0-2.7,0.1-5.3,0.3-7.9
						c0.2-1.4,0.5-2.8,0.7-4.2l0.8-4.2c0.6-3.1,0.9-6.1,0.9-9c0.1-3.1,0.4-6,1-8.6c0.3-1.3,0.6-2.6,0.9-3.8c0.1-0.3,0.2-0.6,0.3-0.9
						l0.2-0.6c0-0.1,0.1-0.2,0.1-0.3c0-0.1,0-0.2,0.1-0.3c-0.1-0.5,0.3-0.5,0.7-0.5c0.2,0,0.4,0.1,0.6,0.2c0.1,0,0.2,0.1,0.3,0.2
						c0,0,0.2,0.2,0.4,0.4c0.2,0.2,0.3,0.3,0.5,0.5c0.9,0.9,1.8,2.2,2.8,3.6c1,1.4,2,3,3.2,4.7l0.6,0.8l0.3,0.4
						c0,0.1,0.1,0.2,0.1,0.2l0.1,0.1c0.1,0.3,0.3,0.4,0.5,0.8c0.5,0.7,1,1.6,1.5,2.5l3.2,5.7l6.5,12c0.4,0.7,0.8,1.5,1.2,2.2
						l0.3,0.6l0.2,0.4l0.3,0.5l1.1,2c0.8,1.3,1.6,2.5,2.4,3.8c0.9,1.1,1.8,2.2,2.8,3.2l1.1,0.8c0.4,0.3,0.8,0.6,1.2,0.7
						c0.8,0.3,1.6,0.7,2.6,0.8c2,0.2,3.7-0.2,5.5-1c1.7-0.9,3.4-2.3,5-4.1c0.8-0.9,1.5-1.8,2.3-2.8c0.4-0.5,0.7-1,1.1-1.5l0.5-0.8
						l0.3-0.4l0.1-0.2c1.2-2,2.6-4.4,3.5-6.7c0.5-1.2,0.9-2.4,1.1-3.6c0.2-1.2,0.3-2.4,0-3.3c-0.1-0.2-0.3-0.3-0.4-0.6
						c-0.1-0.1-0.1-0.2-0.2-0.3c-0.1-0.1-0.2-0.1-0.3-0.2c-0.5-0.2-1-0.5-1.4-0.9c0.2,0.1,0.3,0.2,0.4,0.1c0,0,0.1-0.1,0.1-0.1
						c-0.1,0-0.1,0.1-0.2,0.1c-0.2,0.1-0.9,0.5-1.5,0.8c-1.3,0.6-2.8,1.2-3,1.3c-2,1.2-3.6,2.9-5.4,4.4c-0.9,0.7-1.8,1.3-2.6,1.9
						c-0.1,0.1-0.2,0.2-0.3,0.2l-0.2,0c-0.1,0-0.3,0.1-0.4,0.1c-0.3,0-0.5,0-0.7,0c-0.9-0.1-1.3-0.5-1.6-0.7
						c-0.2-0.1-0.4-0.5-0.4-0.7c0-0.3-0.1-0.4-0.1-0.5l-2.4-4.4c-1.8-3.4-3.6-6.8-5.5-10.2c-1-1.8-2-3.6-3-5.5
						c-0.3-0.5-0.6-0.9-0.8-1.4c-0.3-0.5-0.6-0.9-0.9-1.5l-1-1.6l-0.7-0.9l-0.7-0.9c-1-1.1-2.1-2.6-3.3-4.3
						c-1.2-1.7-2.6-3.6-4.4-5.6c-0.3-0.3-0.6-0.6-0.9-0.9c-0.3-0.3-0.6-0.6-1-1c-0.9-0.8-1.8-1.6-2.8-2.1l-1.5-0.9
						c-0.5-0.3-1.1-0.5-1.6-0.7c-0.5-0.2-1.1-0.5-1.6-0.7l-1.7-0.5c-0.3-0.1-0.6-0.2-0.8-0.2l-0.8-0.1l-1.7-0.2
						c-1.1-0.1-2.2,0-3.4-0.1C285.4,194.7,283.3,194.7,281.3,194.8z"/>
				</g>
			</g>
		</g>
	</g>
</g>
</svg>
