<?xml version="1.0" encoding="utf-8"?>
<!-- Generator: Adobe Illustrator 20.1.0, SVG Export Plug-In . SVG Version: 6.00 Build 0)  -->
<svg version="1.1" id="Layer_1" xmlns="http://www.w3.org/2000/svg" xmlns:xlink="http://www.w3.org/1999/xlink" x="0px" y="0px"
	 viewBox="0 0 500 500" style="enable-background:new 0 0 500 500;" xml:space="preserve">
<g>
	<g>
		<g>
			<g>
				<path d="M163.1,395.3l0.3,0.1C163.3,395.3,163.2,395.2,163.1,395.3z"/>
				<path d="M118.1,383.3l0.1-0.1C118.1,383.2,118.1,383.2,118.1,383.3z"/>
				<path d="M103,392l-0.3-0.2C102.8,391.9,102.9,391.9,103,392z"/>
				<g>
					<path d="M122.9,400.1c8.4,2.4,17,4.5,25.8,5.8c9.1,1.3,18.3,1.9,27.6,2.7c5.2,0.5,10.7,0.3,16-1.3c5.3-1.6,10.2-4.8,13.8-8.8
						c6.4-7.4,12.9-14.3,19.3-21.6c3.1-3.5,5.9-7.2,8.8-10.8c2.9-3.6,5.8-7.2,9.1-10.5c0.9-0.9,1.8-1.7,2.6-2.6l1.5-1.5
						c0.2-0.3,0.5-0.5,0.7-0.8l0.6-0.7c0.2-0.2,0.5-0.8,0.9-1.4c0.4-0.6,0.8-1.3,1.2-2.1c0.9-1.4,1.9-2.9,2.1-3.5
						c0.2-0.5-2.8,1.3-3.6,1.9c-0.6,0.5-1.4,1.1-2.1,1.7c-0.7,0.7-1.5,1.4-2.3,2c-0.8,0.6-1.6,1.2-2.2,1.8c-0.7,0.6-1.3,1.1-1.8,1.5
						c-4,3.5-5.8,5.1-9.6,9c-7.7,8.1-14.9,16.2-23.2,23.3c-1.7,1.5-3.3,2.9-4.9,4.5c-0.8,0.8-1.6,1.6-2.4,2.4l-1.2,1.2l-1.1,0.9
						c-2.8,2.5-6.2,4.3-9.9,5l-1.5,0.3c-0.5,0.1-1,0.1-1.5,0.1l-1.5,0.1l-1.6-0.1c-0.5,0-1,0-1.6-0.1l-1.6-0.2
						c-0.5-0.1-1-0.1-1.6-0.2l-1.7-0.3l-3.5-0.6c-1.2-0.2-2.3-0.5-3.5-0.7l-3.5-0.7c-1.2-0.2-2.3-0.5-3.5-0.7
						c-9.9-1.9-19.6-5.4-29.7-8.1c-5-1.3-10-2.5-14.5-3.9c-4.5-1.4-8.2-3.1-11.5-5.9c-3.9-3.2-7.3-7.5-10.7-12.4
						c-8.7-12-16.9-24.4-23.8-37.5c-6.3-11.8-10.3-24.3-16.1-36.7c-0.8-1.6-1.6-3.4-2.4-5.3c-0.4-0.9-0.9-1.8-1.4-2.8
						c-0.5-1.1-1-2-1.5-2.9c-1-1.7-1.8-3-2.5-4.1c-0.6-1-1.3-1.9-1.8-2.9c-0.5-1-1.6-1.9-2.7-2.3c0.9,0.4-0.2,1.6-1,3.5
						c-0.8,1.9-1.2,4.4-1.2,4.7c0,1.9,0.4,3.9,0.8,5.7c0.2,0.9,0.4,1.8,0.6,2.7c0.2,0.9,0.4,1.9,0.6,2.8c1.4,7.2,2.2,13.9,5,21.2
						c5.8,15.2,13.7,29.5,22.5,43.4l5.8,8.7c0.9,1.5,2,2.9,3,4.3l3.1,4.2l3.1,4.2c1.1,1.4,2.2,2.9,3.4,4.3c2.4,2.8,5,5.6,8.2,8.2
						c1.9,1.5,3.9,3,6.1,4.3c2.1,1.2,4.4,2.4,6.6,3.2C114.6,397.7,118.8,398.9,122.9,400.1z"/>
				</g>
			</g>
		</g>
	</g>
	<g>
		<g>
			<g>
				<path d="M135.8,218l0.2,0C135.9,218,135.9,217.9,135.8,218z"/>
				<path d="M109.9,216.6l0.1-0.2C109.9,216.5,109.9,216.6,109.9,216.6z"/>
				<path d="M102.7,230h-0.2C102.6,230,102.6,230,102.7,230z"/>
				<g>
					<path d="M113.9,231.8c2.5,0.2,5.1,0.3,7.6,0.3c2.5-0.1,5-0.3,7.5-0.7c5.1-0.8,10.1-2.1,15.3-2.3c5.5-0.2,10.6-0.2,16-0.6
						c5.4-0.5,10.6-0.2,16.1-0.1c2.6,0.1,5.3-0.2,7.9-0.5c1.3-0.1,2.6-0.3,3.9-0.3c1.3-0.1,2.6-0.2,4-0.1c1.4,0,2.8,0.2,4.3,0.2
						c0.7,0,4.2-1.2,4.8-1.7c0.3-0.2-1.9-0.9-2.5-1.1c-1-0.3-2.2-0.6-3.3-0.9c-1.1-0.3-2.2-0.6-3-0.7c-1.5-0.3-2.6-0.4-3.6-0.6
						c-1.1-0.1-2.2-0.3-3.7-0.3c-6.2-0.3-12.2-0.7-18.3-2.1c-2.5-0.6-5-0.7-7.6-0.8c-2.6-0.1-5.2,0-7.8-0.2l-8.2-0.8
						c-2.7-0.3-5.4-0.5-8.1-0.4c-2.9,0-5.8-0.2-8.6-0.5c-1.4-0.1-2.8-0.3-4.3-0.4c-1.4-0.1-2.8-0.2-4.2-0.3
						c-2.8-0.1-5.6-0.2-8.3-0.4c-1.4,0-2.8-0.2-4.1-0.4c-1.4-0.1-2.8-0.3-4.1-0.5c-3.2-0.6-6.3-1.1-9.5-1.9c-8-2-15.9-3.8-23.3-6.8
						c-1.7-0.7-3.3-1.5-4.9-2.3c-1.6-0.9-3.1-1.8-4.6-2.7c-1.5-0.9-2.9-1.9-4.5-2.8c-0.7-0.5-1.5-0.9-2.3-1.3
						c-0.7-0.5-1.5-0.9-2.3-1.4c-0.8-0.5-1.7-1-2.6-1.5c-0.9-0.5-2-1.1-3.3-1.7c-1.4-0.6-3-1.2-4.8-1.4c-0.9-0.1-1.8-0.1-2.6,0
						c-0.9,0.2-1.7,0.4-2.3,0.8c-1.3,0.8-1.5,2.1-1.3,3.2c-0.1-0.9,1.5-0.6,2.6,0.4c0.6,0.5,1.1,1.1,1.4,1.6c0.3,0.5,0.5,0.9,0.5,1
						c1.2,1.7,2.4,3.4,3.8,5.2c1.3,1.7,2.5,3.6,3.8,5.3c1.4,1.6,2.9,3.2,4.8,4.5c8,5.3,17,8.5,26,11.1c1.9,0.6,3.9,1,5.8,1.5
						c1.9,0.5,3.9,0.9,5.8,1.3c1.9,0.4,3.8,0.8,5.8,1.1l5.9,1c2.4,0.4,4.7,0.7,7.2,1.2C109,231.2,111.5,231.5,113.9,231.8z"/>
				</g>
			</g>
		</g>
	</g>
	<g>
		<g>
			<g>
				<path d="M255.4,225.7l-0.1,0C255.3,225.8,255.3,225.8,255.4,225.7z"/>
				<path d="M277.1,220.8l0,0.2C277.1,220.9,277.1,220.8,277.1,220.8z"/>
				<path d="M277.5,205.9l0.1-0.1C277.6,205.9,277.5,205.9,277.5,205.9z"/>
				<g>
					<path d="M269,207.7c-1.9,0.4-3.8,1-5.6,1.6c-0.9,0.3-1.8,0.7-2.7,1.1c-0.9,0.3-1.8,0.7-2.8,1.1c-1.9,0.8-3.7,1.8-5.6,2.6
						c-1.9,0.9-3.8,1.6-5.8,2c-2.1,0.4-4.2,0.8-6.4,1.2c-1.1,0.2-2.1,0.4-3.2,0.7c-1.1,0.2-2.1,0.4-3.2,0.7
						c-2.1,0.5-4.2,0.9-6.4,1.2c-1.1,0.1-2.1,0.3-3.2,0.4c-1.1,0.1-2.2,0.1-3.2,0.2c-2.1,0.1-4.2,0.5-6.2,0.9
						c-1,0.2-2.1,0.4-3.1,0.5c-1.1,0.1-2.2,0.2-3.3,0.2c-1.2,0-2.4-0.2-3.5-0.2c-0.6,0-3.2,1.2-3.7,1.7c-0.2,0.2,1.5,0.9,2,1.1
						c1.6,0.6,4,1.4,5.2,1.7c1.2,0.2,2.1,0.4,3,0.5c0.9,0.1,1.8,0.2,3,0.2c5.1,0.1,10.2,0.1,15.4,0.7c4.2,0.5,8.5-0.6,12.6-0.9
						c4.5-0.2,9.2,0,13.7-1c2.4-0.5,4.8-0.8,7.2-1.1c2.4-0.3,4.8-0.8,7.2-1.5c2.3-0.7,4.7-1.4,7-2.1c2.3-0.8,4.5-1.6,6.8-2.3
						c2.7-0.8,5.4-1.5,8.1-2.4c3.4-1,6.7-2.2,10-3.4c3.3-1.3,6.5-2.6,9.8-3.8c3-1.1,5.9-1.8,9-2.6c3.1-0.8,6.2-1.7,9.2-3.4
						c3.1-1.7,7.7-4.1,8.7-8.4c0.2-1-0.3-2.2-0.9-3.2c0.5,0.8-0.6,0.9-1.8,0.7c-1.2-0.1-2.6-0.5-2.7-0.6c-1-0.1-1.9-0.1-2.8,0
						c-0.9,0.1-1.8,0.1-2.7,0.2c-3.5,0-6.8-0.7-10.1,0.1c-1.7,0.4-3.5,0.9-5.2,1.5c-1.8,0.6-3.5,1.2-5.2,1.8
						c-3.4,1.2-6.8,2.5-10.1,3.8c-5.8,2-11.5,4.4-17.3,5.9C276.3,206.1,272.6,206.9,269,207.7z"/>
				</g>
			</g>
		</g>
	</g>
	<g>
		<g>
			<g>
				<path d="M250.4,341.9l-0.3,0.1C250.2,342,250.3,342,250.4,341.9z"/>
				<path d="M280.1,310.9l0.1,0.2C280.2,311,280.1,310.9,280.1,310.9z"/>
				<path d="M273,296.1l0.1-0.2C273,296,273,296,273,296.1z"/>
				<g>
					<path d="M263.4,309c-2.2,3.1-4.1,6.2-5.9,9c-1.9,2.8-3.7,5.3-5.6,7.5c-1,1.1-2,2.2-3.1,3l-0.4,0.3c-0.2,0.1-0.3,0.2-0.5,0.3
						l-1,0.7c-0.7,0.5-1.4,0.9-2.2,1.3c-3,1.7-6.4,3-10,3.9c-3.8,1-7.8,1.8-11.8,2.9c-2.1,0.5-3.9,1-5.8,1.6c-1.9,0.5-3.8,1-5.7,1.5
						c-3.8,1-7.6,1.6-11.4,1.8c-1.9,0.1-3.8,0.1-5.7,0.1c-0.9,0-1.9-0.1-2.8-0.2c-1-0.1-2-0.2-3-0.2c-4-0.3-8-0.4-12-0.4
						c-3.9,0.1-7.8,0.1-11.8-0.3c-1-0.1-2-0.3-3-0.4c-1-0.1-1.9-0.4-2.9-0.6c-0.5-0.1-1.8-0.2-3.3-0.2c-1.4-0.1-2.8-0.3-3.3-0.2
						c-0.5,0,1.8,1.8,2.6,2.3c2.3,1.5,6.5,2.9,8.7,3.4c4.4,0.9,6.5,1.2,11,1.6c2.4,0.2,4.6,0.5,6.9,0.7c2.3,0.3,4.6,0.6,6.8,0.8
						l3.5,0.5l1.8,0.3l1.8,0.2c2.4,0.3,4.9,0.4,7.3,0.6c4,0.2,8-0.3,11.9-1.1c1.9-0.4,3.9-0.8,5.8-1.3c1-0.2,1.9-0.4,2.9-0.6
						c0.9-0.2,1.8-0.4,2.7-0.5c4-0.7,8.1-1.2,12.3-1.9c4.2-0.8,8.6-1.9,12.9-3.8l1.7-0.8l0.9-0.4c0.3-0.1,0.6-0.3,0.9-0.5
						c0.6-0.3,1.2-0.7,1.8-1l1.7-1.1c2.2-1.5,4.2-3.2,6-5c3.6-3.6,6.5-7.4,8.9-11.2l3.5-5.4c0.6-0.9,1.1-1.7,1.7-2.5l1.9-2.7l2-2.9
						l1.8-3l0.9-1.5l0.8-1.5l1.7-2.9c2.5-4.5,5-8.9,7.6-12.9l2.5-3.7l2.6-3.5l3-3.9c1-1.3,2-2.7,2.9-4l2.8-4.1l2.7-4.1
						c0.9-1.4,1.8-2.8,2.6-4.2l2.6-4.2c3-5,6.3-9.8,9.4-14.6c1.6-2.4,3.1-4.8,4.6-7.2l1.1-1.8c0.3-0.5,0.5-1,0.8-1.6l0.4-0.8
						l0.3-0.7c0.8-2.1,1.1-3.6,1.4-4.8c0.3-1.3,0.5-1.8,0.7-2.2c0,0,0-0.1,0-0.1c0,0,0,0,0-0.1l0.3-0.3c0.3-0.5,0.7-0.9,1-1.4
						c0.6-1,1.2-1.9,1.7-3c1-2,1.7-4.2,2-6.2c0.1-1,0.2-2,0.1-2.9c-0.1-0.9-0.2-1.8-0.4-2.6c-0.5-1.6-1.7-2.1-2.8-2.3
						c0.9,0.1,0.2,1.9-1,3.5c-0.6,0.8-1.3,1.5-1.9,2.1c-0.6,0.5-1,0.9-1.1,1c-0.5,0.6-1.1,1.1-1.6,1.6c-0.6,0.5-1.1,1.1-1.6,1.6
						c-0.6,0.5-1.1,1-1.7,1.4c-0.3,0.2-0.6,0.4-0.9,0.7c-0.4,0.4-0.8,0.7-1.1,1.1c-1.4,1.4-2.5,3.2-3.3,4.6
						c-0.9,1.4-1.6,2.7-2.3,3.5c-0.3,0.5-0.7,0.7-1,1c-0.5,0.5-1,1.1-1.5,1.7c-1,1.2-1.9,2.4-2.8,3.8c-7.5,11.3-13.8,22.9-21.3,33.4
						l-1.2,1.7l-1.2,1.6l-2.5,3.3l-2.8,3.8l-0.7,1l-0.6,1l-1.2,2c-3.3,5.2-6,10.4-8.8,15.3c-0.8,1.4-1.7,2.9-2.6,4.2
						c-0.9,1.3-1.8,2.7-2.7,4c-1,1.3-2,2.6-3,4C265.5,305.9,264.5,307.5,263.4,309z"/>
				</g>
			</g>
		</g>
	</g>
	<g>
		<g>
			<g>
				<path d="M397.4,275.8l0.1,0.1C397.5,275.9,397.5,275.8,397.4,275.8z"/>
				<path d="M384.4,262.9l0.1-0.1C384.5,262.8,384.4,262.8,384.4,262.9z"/>
				<path d="M370.8,268.5L370.8,268.5C370.7,268.5,370.8,268.5,370.8,268.5z"/>
				<g>
					<path d="M375.9,275.6c1.3,1.5,2.7,2.9,4.2,4.1c1.6,1.2,3.2,2.4,4.9,3.4c1.8,1,3.7,1.8,5.5,2.7c1.9,0.8,3.7,1.7,5.3,2.8
						c1.8,1.1,3.6,2.2,5.4,3.2c0.9,0.5,1.9,1,2.8,1.4c1,0.4,1.9,0.8,2.9,1.2c0.5,0.2,1,0.4,1.5,0.6c0.5,0.2,1,0.3,1.5,0.5
						c1,0.3,2,0.7,2.9,1.1c1,0.4,1.9,0.8,2.9,1.2c1,0.3,2,0.7,2.9,1c1,0.3,1.9,0.6,2.9,0.8c1,0.2,2,0.3,3,0.4l1.5,0.2
						c0.5,0.1,0.9,0.1,1.6,0.3c0.7,0.1,1.3,0.3,1.9,0.4c0.7,0.1,1.3,0.1,2,0.1c1.4-0.1,2.9-0.6,4.2-1.3c0.1,0,0.2-0.1,0.3-0.2
						c0.1-0.1,0.2-0.2,0.2-0.3c0.1-0.2,0.3-0.4,0.3-0.5c0-0.1,0-0.2,0-0.2c0-0.1,0-0.1,0-0.2c0-0.2,0.1-0.3,0.1-0.4
						c0-0.1,0-0.4-0.2-0.7c-0.2-0.3-0.5-0.5-0.7-0.5c-0.6-0.2-1.6-0.1-2.5,0c-0.9,0.1-1.6,0.1-2.1,0c-1-0.1-1.7-0.5-2.3-0.8
						c-0.3-0.2-0.6-0.3-1-0.5c-0.4-0.2-0.9-0.3-1.4-0.5c-1.1-0.4-2.1-0.7-3.2-1.1c-1-0.4-2-0.9-3.1-1.4c-1-0.5-2-1-3-1.5
						c-0.9-0.6-1.8-1.3-2.7-2c-0.7-0.6-1.5-1.1-2.2-1.5c-0.8-0.4-1.5-0.9-2.3-1.3l-2.4-1.2c-0.4-0.2-0.8-0.4-1.1-0.7
						c-0.4-0.3-0.7-0.5-1.1-0.8c-3-2.4-5.6-5.3-8.6-7.6c-0.8-0.6-1.5-1.3-2.3-2c-0.4-0.3-0.7-0.7-1.1-1.1l-1-1.1
						c-1.3-1.5-2.7-3-4.1-4.4l-2.1-2.1c-0.7-0.7-1.4-1.5-2.1-2.2l-2-2.2c-0.6-0.8-1.2-1.6-1.8-2.4c-0.7-1-1.4-1.9-2-2.9
						c-0.6-1-1.2-2-1.8-3c-3.1-5.2-6.3-10.2-8.5-15.5c-1-2.4-1.5-4.9-1.9-7.4c-0.4-2.5-0.6-4.9-1.3-7.2c-0.7-2.6-0.9-5.9-3.8-8.4
						c-0.7-0.6-2-0.9-3.1-0.9c0.9,0.1,0.4,0.8-0.4,1.6c-0.8,0.8-1.8,1.7-1.9,1.9c-0.5,0.7-0.9,1.6-1.2,2.4c-0.3,0.8-0.5,1.7-0.9,2.5
						c-1.1,3.3-2.5,6.6-2.1,10.1c1,7.4,4.2,14.1,7.6,20.3c1.5,2.7,3,5.2,4.7,7.6l2.5,3.7c0.8,1.3,1.8,2.4,2.6,3.7
						c0.5,0.7,1,1.5,1.6,2.2c0.5,0.8,1.1,1.5,1.6,2.2C373.6,272.6,374.6,274.2,375.9,275.6z"/>
				</g>
			</g>
		</g>
	</g>
	<g>
		<g>
			<g>
				<path d="M88.2,274.7l0.2,0.1C88.3,274.7,88.2,274.6,88.2,274.7z"/>
				<path d="M61.4,263.9l0.1-0.1C61.5,263.8,61.4,263.8,61.4,263.9z"/>
				<path d="M51.5,275.4l-0.1,0C51.5,275.4,51.5,275.4,51.5,275.4z"/>
				<g>
					<path d="M61,279.8c2.5,1.1,5.1,2.1,7.7,3c2.7,0.8,5.3,1.6,8,2.2c1.4,0.3,2.8,0.5,4.2,0.8l4.3,0.7c2.8,0.5,5.6,0.9,8.4,1.7
						c1.5,0.4,2.9,0.8,4.4,1.1s2.9,0.7,4.4,1c1.5,0.3,3,0.6,4.5,0.8l2.3,0.3l2.3,0.2c1.5,0.1,3,0.3,4.5,0.5l2.5,0.2
						c0.8,0.1,1.6,0,2.4,0c3.2,0,6.1-0.2,8.9-0.1c1.4,0,2.7,0,4.1-0.1l4.2,0c1.4,0,2.8,0,4.2,0.1c1.4,0.1,2.8,0.3,4.2,0.6
						c1.5,0.3,3,0.7,4.5,1c0.7,0.2,4.6-0.3,5.4-0.6c0.4-0.1-1.8-1.3-2.3-1.6c-1.9-1-4.9-2.5-6.4-3c-1.6-0.5-2.7-0.9-3.9-1.2
						c-0.6-0.2-1.2-0.3-1.8-0.4c-0.7-0.1-1.4-0.2-2.2-0.4c-1.7-0.2-3.4-0.5-5.2-0.7c-1.7-0.1-3.5-0.3-5.2-0.4l-2.6-0.3l-2.6-0.2
						c-0.8-0.1-1.6-0.2-2.4-0.3c-0.8-0.1-1.5-0.3-2.3-0.5c-0.6-0.2-1.1-0.3-1.7-0.5c-0.3-0.1-0.6-0.1-0.9-0.2l-1-0.2
						c-1.3-0.3-2.7-0.6-4-0.8c-1.3-0.2-2.7-0.5-4-0.8c-1.3-0.3-2.7-0.6-3.9-1.1c-2.8-1-5.5-2-8.2-3.2c-1.4-0.6-2.7-1.1-4.1-1.6
						c-1.4-0.5-2.7-1-4.1-1.5c-5.9-2-11.5-4.9-17.3-7.3l-8.9-3.5c-0.8-0.3-1.7-0.6-2.5-0.9l-2.7-0.8l-0.3-0.1l-0.4-0.1l-0.8-0.2
						c-0.6-0.1-1-0.2-1.5-0.3l-1.2-0.2l-1-0.2c-0.4-0.1-0.3-0.1-0.4-0.1c-0.1,0-0.1,0-0.2-0.1c-0.1,0-0.1-0.1-0.2-0.1l-0.1-0.1
						c0,0,0,0-0.2-0.2c-1.1-1.3-2.2-2.5-3-3.7c-1-1.5-1.7-2.8-1.9-3.9l-0.1-0.2c0,0,0-0.1,0-0.1l0-0.2l-0.2-0.8l-0.3-1.7l-0.7-3.3
						c-0.9-4.5-1.8-9.1-2.6-13.7c-1.5-8.3-1.4-16.8-3.9-25.3c-0.6-2.2-1.5-4.9-2.5-7.4c-0.5-1.2-1.3-2.4-2-3.5
						c-0.8-1.1-1.7-2-2.7-2.7c-1-0.7-2.3-0.5-3.4-0.1c0.9-0.3,0.8,1.1,0.5,2.5c-0.3,1.5-0.9,3-1,3.2c-0.1,0.6-0.2,1.2-0.2,1.8
						c-0.1,0.6-0.1,1.2-0.1,1.8c-0.1,1.2-0.1,2.4-0.2,3.6c-0.1,2.3-0.5,4.5-0.8,6.7c-0.2,2.2-0.4,4.4-0.2,6.7
						c1,9.7,2.8,19.2,4.7,29.1l1.3,6.3c0.7,3.2,2.2,6,3.7,8.2c1.5,2.3,3.2,4.2,4.7,5.8l0.6,0.6l0.5,0.5l0.5,0.5l0.6,0.5
						c0.3,0.1,0.4,0.3,0.6,0.4c0.4,0.3,0.7,0.7,1.2,0.9c0.4,0.2,0.9,0.5,1.3,0.7c0.5,0.2,0.9,0.4,1.4,0.5c0.9,0.3,2.2,0.6,2.7,0.7
						c0.7,0.1,1.4,0.3,2.1,0.4l0.8,0.2c0.3,0.1,0.4,0.1,0.6,0.1l0.2,0.1c0.1,0,0.2,0.1,0.3,0.1l0.7,0.3c0.5,0.2,0.9,0.3,1.4,0.6
						c1,0.5,2,0.9,3.1,1.5L61,279.8z"/>
				</g>
			</g>
		</g>
	</g>
	<g>
		<g>
			<g>
				<path d="M110.4,147.1l0.1,0C110.5,147.1,110.5,147,110.4,147.1z"/>
				<path d="M89.7,142.9l0.1-0.1C89.7,142.8,89.7,142.8,89.7,142.9z"/>
				<path d="M80.2,154.4l-0.1,0C80.2,154.4,80.2,154.4,80.2,154.4z"/>
				<g>
					<path d="M89.8,158.3c4.4,1.3,9,1.9,13.6,1.6c4.7-0.3,9.2-1.2,13.8-1.4c2.4,0,4.8-0.2,7.3-0.4c2.4-0.4,4.8-0.6,7.2-1.4
						c2.5-0.7,4.6-1.3,6.8-1.9c2.3-0.5,4.5-1,6.8-1.6c4.4-1,8.5-3.4,12.9-4.3c1.2-0.3,2.4-0.5,3.6-0.7c0.6-0.1,3.1-2,3.5-2.5
						c0.2-0.3-1.8-0.5-2.4-0.6c-1.8-0.2-4.4-0.4-5.7-0.3c-2.6,0.2-3.8,0.1-6.3,0.7c-2.6,0.6-5.2,1-7.8,1.4c-2.6,0.4-5.2,0.6-7.9,0.5
						c-1.1,0-2.2,0.1-3.2,0.2c-1,0.1-2,0.2-3,0.4c-1,0.2-2,0.3-3,0.4c-1,0.1-2,0.2-3,0.1c-1.1-0.1-2.2-0.2-3.3-0.3
						c-1.1-0.1-2.2-0.3-3.3-0.5l-1.6-0.2l-1.6-0.2c-1.1-0.1-2.2-0.2-3.3-0.3c-4.7-0.3-9.2-1.8-13.7-2.8c-4.4-0.9-8.8-2-12.9-3.9
						c-1.2-0.5-2.3-1.2-3.5-1.8c-1.1-0.6-2.2-1.3-3.2-2c-2.6-1.9-5-3.8-7.2-5.9l-1.6-1.7c-0.5-0.6-1-1.2-1.5-1.8
						c-0.5-0.6-1-1.2-1.4-1.9l-1.3-2c-0.4-0.6-0.8-1.2-1-1.9c-0.3-0.7-0.6-1.3-0.8-2c-0.3-0.7-0.5-1.3-0.8-2l-0.6-2.1
						c-0.2-0.7-0.4-1.4-0.6-2.1c-0.2-0.7-0.4-1.4-0.6-2.2c-0.2-0.7-0.5-1.4-0.7-2.1c-0.2-0.7-0.5-1.5-0.8-2.2c-1.2-3-2.4-7.4-6-9.6
						c-0.9-0.5-2.2-0.4-3.3-0.2c1.8-0.4-1.1,4.2-1.2,4.5c-0.7,1.9-0.6,3.9-0.9,5.8c-0.2,1.9-0.5,3.8-0.7,5.6
						c-0.1,1.9-0.1,3.8,0.4,5.7c0.3,1,0.6,2,1,3c0.4,1,0.6,2,1.1,3c0.4,1,0.9,2,1.4,2.9c0.2,0.5,0.5,1,0.7,1.4l0.8,1.4l1.7,2.8
						c0.6,0.9,1.3,1.8,2,2.7c0.7,0.9,1.3,1.8,2.1,2.6l2.3,2.5c2.7,2.7,5.7,5.1,8.8,7.1c1.5,1.1,3.2,1.9,4.8,2.9l2.4,1.3l1.2,0.6
						l1.2,0.6C81.4,155.3,85.6,157,89.8,158.3z"/>
				</g>
			</g>
		</g>
	</g>
	<g>
		<g>
			<g>
				<path d="M266.8,160.2l-0.2,0C266.7,160.2,266.7,160.3,266.8,160.2z"/>
				<path d="M289.9,156.3l0,0.2C289.9,156.4,289.9,156.3,289.9,156.3z"/>
				<path d="M291,141.5l0.1-0.1C291.1,141.4,291,141.4,291,141.5z"/>
				<g>
					<path d="M282.4,142.9c-3.9,0.7-8,1.8-11.9,3.3c-3.4,1.5-7.4,3-11.5,3.3c-4.4,0.1-8.7-0.1-13-0.1c-2.2-0.1-4.3-0.3-6.3-0.8
						c-0.5-0.1-1-0.2-1.6-0.4l-1.7-0.5c-1.1-0.3-2.2-0.6-3.3-0.9c-4.2-1.2-8.7-1.1-12.5-3c-1-0.5-1.9-1.1-2.7-1.7
						c-0.2-0.1-0.9-0.3-1.6-0.4c-0.3,0-0.6-0.1-0.8-0.1c-0.2,0-0.1,0.1-0.7,0.4c-0.1,0-0.1,0,0,0c0,0,0.2-0.1,0.1-0.1
						c-0.1,0.1-0.2,0.2-0.2,0.4c-0.1,0.4,0.1,0.9,0.2,1.1c0.6,1.5,2.6,3.4,3.6,4.2c2.1,1.5,3.2,2.2,5.6,3.1c2.5,1,5,1.8,7.5,2.7
						c1.2,0.5,2.5,0.9,3.6,1.5c1,0.5,2.4,1.1,3.7,1.7c1.1,0.6,2.2,0.8,3.3,1.1c1.1,0.3,2.3,0.5,3.4,0.6c1.1,0.1,2.3,0.3,3.4,0.4
						c1.1,0.1,2.3,0.2,3.4,0.4c4.8,0.7,9.7,1.7,14.8,1.1c1.3-0.1,2.7-0.3,4.1-0.4l2-0.2l1.8-0.2c2.4-0.3,4.9-0.5,7.4-1.1
						c4.9-1.1,9.8-2.5,14.9-4.1c1.5-0.4,3-1,4.4-1.5c1.5-0.5,3-1.1,4.4-1.7c3.7-1.6,7.3-3.7,10.5-6.1l2.4-1.9l1.2-1l1.1-1l2.2-2.1
						l2.1-2.2c1.3-1.3,2.4-2.7,3.7-4c0.3-0.3,0.6-0.6,0.9-1c0.4-0.5,0.8-1.1,1.2-1.6c0.2-0.3,0.4-0.6,0.5-0.8l0.4-0.7l0.8-1.4
						c1.8-3.7,2.9-7,3.4-10.6c0.1-0.9,0.3-2,0.4-3c0-0.5,0.1-1.1,0.1-1.7l0-0.4l0-0.2c0-0.1,0-0.3-0.1-0.4c-0.2-1.2-0.6-2.4-1.2-4.1
						c-0.4-0.8-1.3-1.7-2.3-2.4c0.8,0.6-0.1,0.9-1.2,1.4c-1.1,0.5-2.5,1-2.6,1.2c-0.4,0.3-0.8,0.7-1.1,1.1c-0.3,0.4-0.6,0.8-0.9,1.3
						l-0.8,1.3c-0.2,0.4-0.5,0.8-0.7,1.2c-2,3-4.6,5.4-5.9,8.1c-0.4,0.7-0.7,1.4-1.1,1.9l-0.2,0.4c-0.1,0.1-0.2,0.3-0.2,0.4
						c-0.1,0.1-0.2,0.2-0.3,0.4l-1.6,1.8c-0.5,0.6-1.1,1.3-1.6,1.9l-1.7,1.8c-0.6,0.6-1.2,1.1-1.8,1.7c-0.6,0.6-1.2,1.1-1.8,1.6
						c-0.6,0.5-1.3,1-1.9,1.5c-4.5,3.2-9.4,5.9-15,7.5C289.9,141.6,286.2,142.2,282.4,142.9z"/>
				</g>
			</g>
		</g>
	</g>
	<g>
		<g>
			<g>
				<path d="M257,137.5l-0.1,0C256.9,137.5,256.9,137.6,257,137.5z"/>
				<path d="M276.3,131l0,0.2C276.3,131.1,276.3,131,276.3,131z"/>
				<path d="M274.8,116.3l0.1-0.1C274.9,116.3,274.8,116.3,274.8,116.3z"/>
				<g>
					<path d="M267.2,118.7c-3.3,1.1-6.4,2.7-9.5,4.4c-3.2,1.9-6.3,4.2-9.8,5.3c-3.8,1.2-7.6,2.1-11.2,3.5c-3.7,1.4-7.5,2.1-11.4,2.6
						c-3.7,0.5-7.3,2.1-11,1.6c-0.5-0.1-1-0.2-1.4-0.2c-0.5-0.1-0.9-0.2-1.4-0.4c-0.5-0.1-2.7,0.5-3.3,0.8c-0.3,0.1,1,1.3,1.3,1.6
						c1.2,1,3.3,2.1,4.4,2.4c1.1,0.4,1.9,0.6,2.8,0.7c0.8,0.1,1.7,0.2,2.8,0.2c4.8,0,9.4-0.5,14.2-0.2c3.9,0.3,7.6-1.4,11.4-1.9
						c2.1-0.3,4.1-0.5,6.2-0.7c1-0.1,2-0.3,3.1-0.5c1-0.2,2-0.5,3-0.8c2.1-0.7,4.3-1.2,6.5-1.7l1.6-0.4l1.6-0.5
						c1.1-0.3,2.2-0.7,3.2-1.1l3.1-1.3l2.9-1.4c2-0.9,3.9-1.8,5.9-2.6c2.3-0.9,4.6-1.7,6.9-2.5c0.7-0.2,1.6-0.6,2.4-0.9
						c0.8-0.3,1.7-0.7,2.5-1c0.8-0.4,1.6-0.7,2.3-1.1l2.2-1.2c2.9-1.6,5.6-3.3,8.2-4.6c2.4-1.2,4.7-1.9,7.3-2.6
						c2.5-0.7,4.8-1.1,6.8-1.9c0.5-0.2,1.1-0.3,1.8-0.5c0.6-0.1,1.2-0.3,1.8-0.6c0.6-0.2,1.2-0.5,1.8-0.9c0.6-0.4,1.2-0.8,1.8-1.5
						c0.6-0.6,1.1-1.9,1.3-3c-0.2,0.9-0.8,0.3-1.5-0.6c-0.4-0.4-0.7-1-1-1.3c-0.3-0.4-0.6-0.7-0.6-0.7c-0.7-0.6-1.6-1.1-2.4-1.3
						c-0.9-0.3-1.8-0.5-2.7-0.8c-3.5-1-7-2-10.5-1.2c-1.8,0.4-3.5,1-5.2,1.6c-0.9,0.3-1.7,0.7-2.6,1.1c-0.8,0.4-1.6,0.8-2.4,1.2
						c-3.2,1.6-6,3.4-8.8,4.9c-2.3,1.3-4.6,2.4-6.7,3.3c-2.6,1.1-5.3,2.2-8,3.2c-1.6,0.6-3.2,1.2-4.9,1.7
						C270.4,117.6,268.8,118.2,267.2,118.7z"/>
				</g>
			</g>
		</g>
	</g>
	<g>
		<g>
			<g>
				<path d="M120.5,123.8l0.1,0C120.6,123.9,120.6,123.8,120.5,123.8z"/>
				<path d="M104.2,117l0.1-0.1C104.2,117,104.2,117,104.2,117z"/>
				<path d="M94.8,128.2l-0.1,0C94.7,128.2,94.8,128.2,94.8,128.2z"/>
				<g>
					<path d="M101.6,132c1.6,0.7,3.2,1.3,4.9,1.8c0.8,0.3,1.7,0.5,2.5,0.7c0.9,0.2,1.7,0.3,2.6,0.4c1.8,0.2,3.6,0.3,5.4,0.5
						c0.9,0.1,1.8,0.2,2.7,0.4c0.9,0.1,1.7,0.3,2.6,0.6c1.8,0.5,3.6,1.1,5.3,1.6c0.9,0.3,1.8,0.5,2.8,0.7c1,0.2,2,0.4,2.9,0.5
						c3.8,0.4,7.4,1.2,11,2.1c3.6,0.7,7.3,0.2,10.9,1c1,0.2,1.9,0.6,2.9,0.8c0.5,0.1,3.1-0.7,3.5-1c0.2-0.2-1.2-1.2-1.6-1.4
						c-0.6-0.4-1.4-0.9-2.1-1.4c-0.7-0.5-1.4-0.9-1.9-1.1c-1.9-0.9-2.8-1.3-4.8-1.8c-4.1-1.1-8.1-2.1-11.8-4.2
						c-1.5-0.9-3.1-1.3-4.7-1.8c-0.8-0.2-1.5-0.4-2.3-0.7c-0.8-0.2-1.6-0.6-2.3-1c-3.3-1.7-6.5-3.6-9.9-4.9
						c-1.8-0.7-3.6-1.5-5.3-2.4c-1.7-0.9-3.4-1.8-5.3-2.5c-1.8-0.7-3.6-1.3-5.4-2c-1.8-0.7-3.5-1.5-5.3-2.3c-1-0.5-2-1-3-1.5
						c-1-0.5-1.9-1.1-2.9-1.7c-1.2-0.7-2.4-1.4-3.6-2.1l-1.9-1l-1.8-1.1c-2.4-1.4-4.8-2.8-7.2-4.3c-2-1.5-3.8-3.2-5.7-4.8
						c-0.5-0.4-0.9-0.8-1.4-1.2c-0.4-0.4-0.9-0.9-1.3-1.3c-0.9-0.8-1.9-1.6-2.9-2.3c-0.9-0.6-2-1.3-3.1-2l-0.6-0.4
						c-0.1-0.1-0.2-0.1-0.3-0.2l-0.3-0.2c-0.4-0.2-0.9-0.4-1.3-0.6c-0.9-0.3-1.8-0.5-2.7-0.5c-0.9,0-1.8,0.2-2.6,0.5
						c-0.4,0.1-0.8,0.3-1.1,0.5c-0.2,0.1-0.3,0.2-0.4,0.3l-0.3,0.3c-0.4,0.7-0.7,2-0.8,3.1c0.1-0.9,0.6-0.4,1.5,0.4
						c0.9,0.8,1.4,1.9,1.4,2c0.6,0.9,1.1,1.9,1.3,2.7c0,0.1,0,0.1,0,0.2l0.1,0.3l0.3,0.6c1.2,2.9,2.1,6,4.2,8.3
						c2.4,2.2,4.9,4.2,7.5,6c2.6,1.8,5.4,3.3,8.2,5l1.8,1l1.8,0.9l3.6,1.9l3.6,1.9l3.6,1.8C95.7,128.9,98.5,130.7,101.6,132z"/>
				</g>
			</g>
		</g>
	</g>
	<g>
		<g>
			<g>
				<path d="M434.6,267.5L434.6,267.5C434.7,267.6,434.7,267.5,434.6,267.5z"/>
				<path d="M425.8,252.9l0.1-0.1C425.9,252.8,425.9,252.8,425.8,252.9z"/>
				<path d="M412.3,258.3L412.3,258.3C412.3,258.3,412.3,258.3,412.3,258.3z"/>
				<g>
					<path d="M415.4,263.7c1.5,2.5,3.3,4.9,5.6,7c2.2,2.2,4.9,4.1,6.4,6.8c0.8,1.4,1.5,2.8,2.3,4.3c0.4,0.7,0.8,1.4,1.2,2.1
						c0.4,0.7,0.8,1.4,1.2,2.1c0.9,1.4,1.6,2.8,2.2,4.3c0.6,1.5,1.2,3,1.6,4.6c0.2,0.8,0.5,1.5,0.8,2.2l0.5,1.1l0.3,0.5l0.2,0.4
						c0.5,1.1,0.8,2.5,0.6,4c-0.1,0.8-0.4,1.6-0.5,2.5c0,0.2,0.1,0.9,0.4,1.5c0.3,0.7,0.6,1.4,0.8,1.6c0.2,0.2,1.1-1.2,1.3-1.5
						c0.8-1.2,1.9-2.9,2.2-3.8c0.6-1.9,0.9-2.8,0.8-4.9c-0.1-0.5-0.1-1.1-0.2-1.6l-0.3-1.4c-0.2-1-0.4-1.9-0.5-2.9
						c-0.3-2-0.7-3.9-0.8-6c-0.1-1.7-0.7-3.2-1.3-4.8c-0.6-1.5-1.4-3-1.9-4.6c-0.3-0.8-0.5-1.7-0.7-2.6l-0.8-2.5
						c-0.6-1.7-1.2-3.4-2.1-4.9c-1.9-3.2-3.1-6.9-5.2-10l-1.6-2.3l-0.8-1.1l-0.9-1.2c-1.2-1.5-2.5-3.1-3.7-4.7
						c-1.5-1.7-2.9-3.5-4.4-5.2c-3.8-4.3-8.2-7.8-12.5-11.2c-1-0.8-1.9-1.6-2.7-2.5l-2.6-2.5c-1.8-1.7-3.6-3.3-5.7-4.5
						c-2.3-1.3-5.1-3.1-8.6-1.9c-0.8,0.3-1.7,1.3-2.4,2.2c1.1-1.5,1.1,3.3,1.2,3.5c0.4,1.6,1.2,2.8,1.8,4.1c1.2,2.6,1.9,5.5,3.7,7.4
						c1.9,2,4,3.7,6,5.4c1,0.8,2.1,1.6,3.1,2.5c1,0.8,2,1.7,3,2.5l1.3,1.1l1.2,1.1l2.4,2.2c0.8,0.7,1.5,1.6,2.2,2.4
						c0.7,0.8,1.4,1.6,2.1,2.4c0.7,1,1.4,2.1,2.1,3.2c0.3,0.5,0.7,1.1,1,1.6L415.4,263.7z"/>
				</g>
			</g>
		</g>
	</g>
	<g>
		<g>
			<g>
				<path d="M398.7,169.6l-0.1,0C398.6,169.6,398.6,169.7,398.7,169.6z"/>
				<path d="M416.6,168.4l0,0.2C416.6,168.5,416.6,168.5,416.6,168.4z"/>
				<path d="M420.5,154.3l0.1,0C420.6,154.3,420.5,154.3,420.5,154.3z"/>
				<g>
					<path d="M412.4,153.8c-1.8,0.1-3.6,0.2-5.4,0.5c-1.8,0.3-3.5,0.8-5.3,1.4c-1.8,0.6-3.5,1.4-5.2,2l-1.3,0.5l-0.7,0.2
						c-0.2,0.1-0.4,0.1-0.7,0.2c-0.3,0.1-0.6,0.2-1,0.3c-0.3,0.1-0.7,0.2-1,0.4c-0.7,0.3-1.3,0.6-1.9,0.9c-0.3,0.2-0.6,0.4-0.9,0.6
						l-0.7,0.5c-0.4,0.3-0.7,0.5-1,0.7c-0.1,0.1-0.2,0.1-0.3,0.2l-0.1,0.1l-0.3,0.2l-1.3,0.7c-0.9,0.5-1.8,0.9-2.6,1.4
						c-0.8,0.6-1.7,1.1-2.5,1.7c-1.6,1.2-3.2,2.4-4.8,3.5c-0.8,0.5-1.6,1.1-2.4,1.7c-0.8,0.6-1.7,1.1-2.4,1.7
						c-1.5,1.2-2.9,2.5-4.1,4c-0.6,0.7-1.3,1.4-1.9,2.1c-0.6,0.7-1.3,1.4-2.1,1.9c-0.8,0.6-1.7,1.2-2.5,1.8
						c-0.4,0.3-1.4,2.8-1.4,3.4c0,0.3,1.7-0.2,2.1-0.3c1.5-0.4,3.6-1.2,4.6-1.6c1.9-1,2.8-1.5,4.5-2.7c1.7-1.3,3.5-2.5,5.3-3.5
						c0.9-0.5,1.9-1,2.8-1.4c0.5-0.2,1-0.4,1.5-0.6c0.5-0.2,1-0.3,1.5-0.5c0.8-0.2,1.6-0.5,2.4-0.9c0.8-0.4,1.5-0.7,2.3-1.1
						c1.5-0.8,3-1.6,4.6-2.1l0.6-0.2l0.3-0.1l0.2,0l0.3-0.1c0.4-0.1,0.8-0.3,1.1-0.4l0.9-0.4l0.7-0.3l0.6-0.2l0.2-0.1l0.1,0
						c0.1,0,0.1,0,0.2,0c0.1,0,0.3,0,0.4,0.1c0,0,0.1,0,0.2,0.1c0.1,0,0.4,0,0.6,0c0.9,0,1.9-0.1,2.8-0.2c2-0.3,4-0.3,5.9-0.3l3,0
						c1,0,2,0,2.9-0.1l2.9-0.3l2.9-0.2l2.9-0.2c1,0,1.9,0,2.9,0c1.1,0,2.2,0.1,3.4,0.1c1.1,0.1,2.2,0.3,3.3,0.4
						c2.8,0.3,5.6,0.8,8.3,1.1c1.4,0.2,2.8,0.5,4.1,0.7l2.1,0.4c0.7,0.1,1.4,0.3,2.1,0.5c2.5,0.6,4.7,1.7,6.9,2.7
						c1.1,0.5,2.1,1.1,3.1,1.5c1,0.5,2,0.9,3,1.4c0.5,0.2,1.1,0.5,1.7,0.7c0.6,0.2,1.2,0.5,1.8,0.7c1.4,0.3,2.7,0.6,4.5,0.2
						c0.9-0.2,1.9-1,2.7-1.8c-0.7,0.7-0.9-0.2-0.9-1.3c-0.1-1.1-0.1-2.5-0.1-2.6c-0.2-0.9-0.6-1.6-1.1-2.4c-0.4-0.7-0.9-1.5-1.4-2.2
						c-1-1.4-1.8-2.9-2.9-4.2c-0.5-0.6-1.1-1.3-1.7-1.8c-0.6-0.5-1.3-1-2.1-1.4c-6.4-3.4-12.8-4.4-19.5-5.6l-4.3-0.5
						c-0.7-0.1-1.4-0.2-2.1-0.2l-2.1-0.1l-4.3-0.3l-4.2-0.2c-0.8,0-1.7-0.1-2.6-0.2c-0.9,0-1.7-0.1-2.6-0.1
						C415.9,153.9,414.1,153.7,412.4,153.8z"/>
				</g>
			</g>
		</g>
	</g>
	<g>
		<g>
			<g>
				<path d="M414.8,210.2l-0.1,0C414.7,210.2,414.8,210.3,414.8,210.2z"/>
				<path d="M431.6,208.6l0,0.2C431.7,208.7,431.6,208.6,431.6,208.6z"/>
				<path d="M431.7,194.1L431.7,194.1C431.7,194.1,431.7,194.1,431.7,194.1z"/>
				<g>
					<path d="M425.9,194.7c-1.3,0.1-2.6,0.4-3.9,0.7c-1.3,0.3-2.6,0.7-3.9,1.2c-1.4,0.5-2.7,1.1-4.1,1.6c-1.4,0.5-2.9,0.9-4.3,0.9
						c-1.6,0-3.1,0.1-4.7,0.1c-1.6,0-3.1,0.1-4.8,0.3c-1.6,0.2-3.2,0.3-4.9,0.3c-1.6,0-3.2-0.1-4.8-0.2c-1.6-0.1-3.1,0.1-4.6,0.3
						c-1.5,0.1-3.1,0.3-4.5-0.1c-0.8-0.2-1.5-0.5-2.3-0.7c-0.4-0.1-2.4,0.6-2.9,0.9c-0.2,0.2,0.9,1.2,1.2,1.5c1,0.9,2.6,2.1,3.4,2.5
						c1.7,0.9,2.5,1.1,4.3,1.4c3.7,0.6,7.3,0.9,10.9,2.3c1.4,0.6,2.9,0.7,4.4,0.8c1.5,0.1,3.1,0.1,4.6,0.4l5,1
						c1.7,0.3,3.4,0.5,5.1,0.4c3.6-0.2,7.4,0.4,11.1-0.3c0.9-0.2,1.8-0.3,2.7-0.5l2.7-0.7c1.8-0.4,3.6-1.1,5.5-1.5
						c1.1-0.3,2-0.6,3-0.9c1-0.3,2-0.6,3-0.9c5.1-1.3,9.7-3.6,14.6-5.4c2.2-0.9,4.4-1.5,6.7-2.1c2.2-0.7,4.5-1.3,6.5-2.7
						c2.1-1.4,5.1-3,5.6-6.5c0.1-0.9-0.4-2.1-0.9-3.1c0.9,1.7-3.3-0.6-3.6-0.7c-1.5-0.5-2.9-0.3-4.3-0.5c-1.4-0.1-2.7-0.4-4.1-0.6
						c-1.3-0.2-2.6-0.3-3.8,0.1c-2.5,0.6-4.9,1.6-7.3,2.5c-2.4,0.9-4.8,1.9-7.1,2.8c-2,0.9-4.1,1.5-6.1,2.3l-3.1,1.1
						c-1,0.3-2.1,0.8-3,0.9c-1.2,0.3-2.3,0.5-3.5,0.7C428.4,194.4,427.2,194.5,425.9,194.7z"/>
				</g>
			</g>
		</g>
	</g>
</g>
</svg>
