<?xml version="1.0" encoding="utf-8"?>
<!-- Generator: Adobe Illustrator 20.1.0, SVG Export Plug-In . SVG Version: 6.00 Build 0)  -->
<svg version="1.1" id="Layer_1" xmlns="http://www.w3.org/2000/svg" xmlns:xlink="http://www.w3.org/1999/xlink" x="0px" y="0px"
	 viewBox="0 0 500 500" style="enable-background:new 0 0 500 500;" xml:space="preserve">
<style type="text/css">
	.st0{fill:#FFFFFF;}
</style>
<g>
	<g>
		<g>
			<g>
				<path class="st0" d="M104.4,162l-0.1,0.3C104.4,162.1,104.4,162,104.4,162z"/>
				<path class="st0" d="M116.4,116.9l0.1,0.1C116.5,116.9,116.4,116.9,116.4,116.9z"/>
				<path class="st0" d="M107.7,101.8l0.2-0.3C107.8,101.6,107.7,101.7,107.7,101.8z"/>
				<g>
					<path class="st0" d="M99.6,121.7c-2.4,8.4-4.5,17-5.8,25.8c-1.3,9.1-1.9,18.3-2.7,27.6c-0.5,5.2-0.3,10.7,1.3,16
						c1.6,5.3,4.8,10.2,8.8,13.8c7.4,6.4,14.3,12.9,21.6,19.3c3.5,3.1,7.2,5.9,10.8,8.8c3.6,2.9,7.2,5.8,10.5,9.1
						c0.9,0.9,1.7,1.8,2.6,2.6l1.5,1.5c0.3,0.2,0.5,0.5,0.8,0.7l0.7,0.6c0.2,0.2,0.8,0.5,1.4,0.9c0.6,0.4,1.3,0.8,2.1,1.2
						c1.4,0.9,2.9,1.9,3.5,2.1c0.5,0.2-1.3-2.8-1.9-3.6c-0.5-0.6-1.1-1.4-1.7-2.1c-0.7-0.7-1.4-1.5-2-2.3c-0.6-0.8-1.2-1.6-1.8-2.2
						c-0.6-0.7-1.1-1.3-1.5-1.8c-3.5-4-5.1-5.8-9-9.6c-8.1-7.7-16.2-14.9-23.3-23.2c-1.5-1.7-2.9-3.3-4.5-4.9
						c-0.8-0.8-1.6-1.6-2.4-2.4l-1.2-1.2l-0.9-1.1c-2.5-2.8-4.3-6.2-5-9.9l-0.3-1.5c-0.1-0.5-0.1-1-0.1-1.5l-0.1-1.5l0.1-1.6
						c0-0.5,0-1,0.1-1.6l0.2-1.6c0.1-0.5,0.1-1,0.2-1.6l0.3-1.7l0.6-3.5c0.2-1.2,0.5-2.3,0.7-3.5l0.7-3.5c0.2-1.2,0.5-2.3,0.7-3.5
						c1.9-9.9,5.4-19.6,8.1-29.7c1.3-5,2.5-10,3.9-14.5c1.4-4.5,3.1-8.2,5.9-11.5c3.2-3.9,7.5-7.3,12.4-10.7
						c12-8.7,24.4-16.9,37.5-23.8c11.8-6.3,24.3-10.3,36.7-16.1c1.6-0.8,3.4-1.6,5.3-2.4c0.9-0.4,1.8-0.9,2.8-1.4
						c1.1-0.5,2-1,2.9-1.5c1.7-1,3-1.8,4.1-2.5c1-0.6,1.9-1.3,2.9-1.8c1-0.5,1.9-1.6,2.3-2.7c-0.4,0.9-1.6-0.2-3.5-1
						c-1.9-0.8-4.4-1.2-4.7-1.2c-1.9,0-3.9,0.4-5.7,0.8c-0.9,0.2-1.8,0.4-2.7,0.6c-0.9,0.2-1.9,0.4-2.8,0.6
						c-7.2,1.4-13.9,2.2-21.2,5c-15.2,5.8-29.5,13.7-43.4,22.5l-8.7,5.8c-1.5,0.9-2.9,2-4.3,3l-4.2,3.1l-4.2,3.1
						c-1.4,1.1-2.9,2.2-4.3,3.4c-2.8,2.4-5.6,5-8.2,8.2c-1.5,1.9-3,3.9-4.3,6.1c-1.2,2.1-2.4,4.4-3.2,6.6
						C102,113.4,100.8,117.6,99.6,121.7z"/>
				</g>
			</g>
		</g>
	</g>
	<g>
		<g>
			<g>
				<path class="st0" d="M281.7,134.6l0,0.2C281.7,134.7,281.7,134.7,281.7,134.6z"/>
				<path class="st0" d="M283,108.7l0.2,0.1C283.1,108.7,283.1,108.7,283,108.7z"/>
				<path class="st0" d="M269.7,101.5v-0.2C269.7,101.4,269.7,101.4,269.7,101.5z"/>
				<g>
					<path class="st0" d="M267.9,112.7c-0.2,2.5-0.3,5.1-0.3,7.6c0.1,2.5,0.3,5,0.7,7.5c0.8,5.1,2.1,10.1,2.3,15.3
						c0.2,5.5,0.2,10.6,0.6,16c0.5,5.4,0.2,10.6,0.1,16.1c-0.1,2.6,0.2,5.3,0.5,7.9c0.1,1.3,0.3,2.6,0.3,3.9c0.1,1.3,0.2,2.6,0.1,4
						c0,1.4-0.2,2.8-0.2,4.3c0,0.7,1.2,4.2,1.7,4.8c0.2,0.3,0.9-1.9,1.1-2.5c0.3-1,0.6-2.2,0.9-3.3c0.3-1.1,0.6-2.2,0.7-3
						c0.3-1.5,0.4-2.6,0.6-3.6c0.1-1.1,0.3-2.2,0.3-3.7c0.3-6.2,0.7-12.2,2.1-18.3c0.6-2.5,0.7-5,0.8-7.6c0.1-2.6,0-5.2,0.2-7.8
						l0.8-8.2c0.3-2.7,0.5-5.4,0.4-8.1c0-2.9,0.2-5.8,0.5-8.6c0.1-1.4,0.3-2.8,0.4-4.3c0.1-1.4,0.2-2.8,0.3-4.2
						c0.1-2.8,0.2-5.6,0.4-8.3c0-1.4,0.2-2.8,0.4-4.1c0.1-1.4,0.3-2.8,0.5-4.1c0.6-3.2,1.1-6.3,1.9-9.5c2-8,3.8-15.9,6.8-23.3
						c0.7-1.7,1.5-3.3,2.3-4.9c0.9-1.6,1.8-3.1,2.7-4.6c0.9-1.5,1.9-2.9,2.8-4.5c0.5-0.7,0.9-1.5,1.3-2.3c0.5-0.7,0.9-1.5,1.4-2.3
						c0.5-0.8,1-1.7,1.5-2.6c0.5-0.9,1.1-2,1.7-3.3c0.6-1.4,1.2-3,1.4-4.8c0.1-0.9,0.1-1.8,0-2.6c-0.2-0.9-0.4-1.7-0.8-2.3
						c-0.8-1.3-2.1-1.5-3.2-1.3c0.9-0.1,0.6,1.5-0.4,2.6c-0.5,0.6-1.1,1.1-1.6,1.4c-0.5,0.3-0.9,0.5-1,0.5c-1.7,1.2-3.4,2.4-5.2,3.8
						c-1.7,1.3-3.6,2.5-5.3,3.8c-1.6,1.4-3.2,2.9-4.5,4.8c-5.3,8-8.5,17-11.1,26c-0.6,1.9-1,3.9-1.5,5.8c-0.5,1.9-0.9,3.9-1.3,5.8
						c-0.4,1.9-0.8,3.8-1.1,5.8l-1,5.9c-0.4,2.4-0.7,4.7-1.2,7.2C268.5,107.9,268.1,110.3,267.9,112.7z"/>
				</g>
			</g>
		</g>
	</g>
	<g>
		<g>
			<g>
				<path class="st0" d="M273.9,254.2l0-0.1C273.9,254.1,273.9,254.2,273.9,254.2z"/>
				<path class="st0" d="M278.9,275.9l-0.2,0C278.8,275.9,278.8,275.9,278.9,275.9z"/>
				<path class="st0" d="M293.7,276.3l0.1,0.1C293.8,276.4,293.8,276.4,293.7,276.3z"/>
				<g>
					<path class="st0" d="M292,267.8c-0.4-1.9-1-3.8-1.6-5.6c-0.3-0.9-0.7-1.8-1.1-2.7c-0.3-0.9-0.7-1.8-1.1-2.8
						c-0.8-1.9-1.8-3.7-2.6-5.6c-0.9-1.9-1.6-3.8-2-5.8c-0.4-2.1-0.8-4.2-1.2-6.4c-0.2-1.1-0.4-2.1-0.7-3.2
						c-0.2-1.1-0.4-2.1-0.7-3.2c-0.5-2.1-0.9-4.2-1.2-6.4c-0.1-1.1-0.3-2.1-0.4-3.2c-0.1-1.1-0.1-2.2-0.2-3.2
						c-0.1-2.1-0.5-4.2-0.9-6.2c-0.2-1-0.4-2.1-0.5-3.1c-0.1-1.1-0.2-2.2-0.2-3.3c0-1.2,0.2-2.4,0.2-3.5c0-0.6-1.2-3.2-1.7-3.7
						c-0.2-0.2-0.9,1.5-1.1,2c-0.6,1.6-1.4,4-1.7,5.2c-0.2,1.2-0.4,2.1-0.5,3c-0.1,0.9-0.2,1.8-0.2,3c-0.1,5.1-0.1,10.2-0.7,15.4
						c-0.5,4.2,0.6,8.5,0.9,12.6c0.2,4.5,0,9.2,1,13.7c0.5,2.4,0.8,4.8,1.1,7.2c0.3,2.4,0.8,4.8,1.5,7.2c0.7,2.3,1.4,4.7,2.1,7
						c0.8,2.3,1.6,4.5,2.3,6.8c0.8,2.7,1.5,5.4,2.4,8.1c1,3.4,2.2,6.7,3.4,10c1.3,3.3,2.6,6.5,3.8,9.8c1.1,3,1.8,5.9,2.6,9
						c0.8,3.1,1.7,6.2,3.4,9.2c1.7,3.1,4.1,7.7,8.4,8.7c1,0.2,2.2-0.3,3.2-0.9c-0.8,0.5-0.9-0.6-0.7-1.8c0.1-1.2,0.5-2.6,0.6-2.7
						c0.1-1,0.1-1.9,0-2.8c-0.1-0.9-0.1-1.8-0.2-2.7c0-3.5,0.7-6.8-0.1-10.1c-0.4-1.7-0.9-3.5-1.5-5.2c-0.6-1.8-1.2-3.5-1.8-5.2
						c-1.2-3.4-2.5-6.8-3.8-10.1c-2-5.8-4.4-11.5-5.9-17.3C293.6,275.1,292.7,271.5,292,267.8z"/>
				</g>
			</g>
		</g>
	</g>
	<g>
		<g>
			<g>
				<path class="st0" d="M157.8,249.2l-0.1-0.3C157.7,249,157.7,249.1,157.8,249.2z"/>
				<path class="st0" d="M188.8,278.9l-0.2,0.1C188.7,279,188.7,279,188.8,278.9z"/>
				<path class="st0" d="M203.6,271.8l0.2,0.1C203.7,271.9,203.6,271.8,203.6,271.8z"/>
				<g>
					<path class="st0" d="M190.7,262.2c-3.1-2.2-6.2-4.1-9-5.9c-2.8-1.9-5.3-3.7-7.5-5.6c-1.1-1-2.2-2-3-3.1l-0.3-0.4
						c-0.1-0.2-0.2-0.3-0.3-0.5l-0.7-1c-0.5-0.7-0.9-1.4-1.3-2.2c-1.7-3-3-6.4-3.9-10c-1-3.8-1.8-7.8-2.9-11.8
						c-0.5-2.1-1-3.9-1.6-5.8c-0.5-1.9-1-3.8-1.5-5.7c-1-3.8-1.6-7.6-1.8-11.4c-0.1-1.9-0.1-3.8-0.1-5.7c0-0.9,0.1-1.9,0.2-2.8
						c0.1-1,0.2-2,0.2-3c0.3-4,0.4-8,0.4-12c-0.1-3.9-0.1-7.8,0.3-11.8c0.1-1,0.3-2,0.4-3c0.1-1,0.4-1.9,0.6-2.9
						c0.1-0.5,0.2-1.8,0.2-3.3c0.1-1.4,0.3-2.8,0.2-3.3c0-0.5-1.8,1.8-2.3,2.6c-1.5,2.3-2.9,6.5-3.4,8.7c-0.9,4.4-1.2,6.5-1.6,11
						c-0.2,2.4-0.5,4.6-0.7,6.9c-0.3,2.3-0.6,4.6-0.8,6.8l-0.5,3.5l-0.3,1.8l-0.2,1.8c-0.3,2.4-0.4,4.9-0.6,7.3
						c-0.2,4,0.3,8,1.1,11.9c0.4,1.9,0.8,3.9,1.3,5.8c0.2,1,0.4,1.9,0.6,2.9c0.2,0.9,0.4,1.8,0.5,2.7c0.7,4,1.2,8.1,1.9,12.3
						c0.8,4.2,1.9,8.6,3.8,12.9l0.8,1.7l0.4,0.9c0.1,0.3,0.3,0.6,0.5,0.9c0.3,0.6,0.7,1.2,1,1.8l1.1,1.7c1.5,2.2,3.2,4.2,5,6
						c3.6,3.6,7.4,6.5,11.2,8.9l5.4,3.5c0.9,0.6,1.7,1.1,2.5,1.7l2.7,1.9l2.9,2l3,1.8l1.5,0.9l1.5,0.8l2.9,1.7
						c4.5,2.5,8.9,5,12.9,7.6l3.7,2.5l3.5,2.6l3.9,3c1.3,1,2.7,2,4,2.9l4.1,2.8l4.1,2.7c1.4,0.9,2.8,1.8,4.2,2.6l4.2,2.6
						c5,3,9.8,6.3,14.6,9.4c2.4,1.6,4.8,3.1,7.2,4.6l1.8,1.1c0.5,0.3,1,0.5,1.6,0.8l0.8,0.4l0.7,0.3c2.1,0.8,3.6,1.1,4.8,1.4
						c1.3,0.3,1.8,0.5,2.2,0.7c0,0,0.1,0,0.1,0c0,0,0,0,0.1,0l0.3,0.3c0.5,0.3,0.9,0.7,1.4,1c1,0.6,1.9,1.2,3,1.7c2,1,4.2,1.7,6.2,2
						c1,0.1,2,0.2,2.9,0.1c0.9-0.1,1.8-0.2,2.6-0.4c1.6-0.5,2.1-1.7,2.3-2.8c-0.1,0.9-1.9,0.2-3.5-1c-0.8-0.6-1.5-1.3-2-1.9
						c-0.5-0.6-0.9-1-1-1.1c-0.6-0.5-1.1-1.1-1.6-1.6c-0.5-0.6-1.1-1.1-1.6-1.6c-0.5-0.6-1-1.1-1.4-1.7c-0.2-0.3-0.4-0.6-0.7-0.9
						c-0.4-0.4-0.7-0.8-1.1-1.1c-1.4-1.4-3.2-2.5-4.6-3.3c-1.4-0.9-2.7-1.6-3.5-2.3c-0.5-0.3-0.7-0.7-1-1c-0.5-0.5-1.1-1-1.7-1.5
						c-1.2-1-2.4-1.9-3.8-2.8c-11.3-7.5-22.9-13.8-33.4-21.3l-1.7-1.2l-1.6-1.2l-3.3-2.5l-3.8-2.8l-1-0.7l-1-0.6l-2-1.2
						c-5.2-3.3-10.4-6-15.3-8.8c-1.4-0.8-2.9-1.7-4.2-2.6c-1.3-0.9-2.7-1.8-4-2.7c-1.3-1-2.6-2-4-3
						C193.7,264.3,192.2,263.3,190.7,262.2z"/>
				</g>
			</g>
		</g>
	</g>
	<g>
		<g>
			<g>
				<path class="st0" d="M223.8,396.2l-0.1,0.1C223.8,396.3,223.8,396.3,223.8,396.2z"/>
				<path class="st0" d="M236.8,383.2l0.1,0.1C236.9,383.3,236.8,383.3,236.8,383.2z"/>
				<path class="st0" d="M231.2,369.6L231.2,369.6C231.2,369.6,231.2,369.6,231.2,369.6z"/>
				<g>
					<path class="st0" d="M224.1,374.7c-1.5,1.3-2.9,2.7-4.1,4.2c-1.2,1.6-2.4,3.2-3.4,4.9c-1,1.8-1.8,3.7-2.7,5.5
						c-0.8,1.9-1.7,3.7-2.8,5.3c-1.1,1.8-2.2,3.6-3.2,5.4c-0.5,0.9-1,1.9-1.4,2.8c-0.4,1-0.8,1.9-1.2,2.9c-0.2,0.5-0.4,1-0.6,1.5
						c-0.2,0.5-0.3,1-0.5,1.5c-0.3,1-0.7,2-1.1,2.9c-0.4,1-0.8,1.9-1.2,2.9c-0.3,1-0.7,2-1,2.9c-0.3,1-0.6,1.9-0.8,2.9
						c-0.2,1-0.3,2-0.4,3l-0.2,1.5c-0.1,0.5-0.1,0.9-0.3,1.6c-0.1,0.7-0.3,1.3-0.4,1.9c-0.1,0.7-0.1,1.3-0.1,2
						c0.1,1.4,0.6,2.9,1.3,4.2c0,0.1,0.1,0.2,0.2,0.3c0.1,0.1,0.2,0.2,0.3,0.2c0.2,0.1,0.4,0.3,0.5,0.3c0.1,0,0.2,0,0.2,0
						c0.1,0,0.1,0,0.2,0c0.2,0,0.3,0.1,0.4,0.1c0.1,0,0.4,0,0.7-0.2c0.3-0.2,0.5-0.5,0.5-0.7c0.2-0.6,0.1-1.6,0-2.5
						c-0.1-0.9-0.1-1.6,0-2.1c0.1-1,0.5-1.7,0.8-2.3c0.2-0.3,0.3-0.6,0.5-1c0.2-0.4,0.3-0.9,0.5-1.4c0.4-1.1,0.7-2.1,1.1-3.2
						c0.4-1,0.9-2,1.4-3.1c0.5-1,1-2,1.5-3c0.6-0.9,1.3-1.8,2-2.7c0.6-0.7,1.1-1.5,1.5-2.2c0.4-0.8,0.9-1.5,1.3-2.3l1.2-2.4
						c0.2-0.4,0.4-0.8,0.7-1.1c0.3-0.4,0.5-0.7,0.8-1.1c2.4-3,5.3-5.6,7.6-8.6c0.6-0.8,1.3-1.5,2-2.3c0.3-0.4,0.7-0.7,1.1-1.1l1.1-1
						c1.5-1.3,3-2.7,4.4-4.1l2.1-2.1c0.7-0.7,1.5-1.4,2.2-2.1l2.2-2c0.8-0.6,1.6-1.2,2.4-1.8c1-0.7,1.9-1.4,2.9-2c1-0.6,2-1.2,3-1.8
						c5.2-3.1,10.2-6.3,15.5-8.5c2.4-1,4.9-1.5,7.4-1.9c2.5-0.4,4.9-0.6,7.2-1.3c2.6-0.7,5.9-0.9,8.4-3.8c0.6-0.7,0.9-2,0.9-3.1
						c-0.1,0.9-0.8,0.4-1.6-0.4c-0.8-0.8-1.7-1.8-1.9-1.9c-0.7-0.5-1.6-0.9-2.4-1.2c-0.8-0.3-1.7-0.5-2.5-0.9
						c-3.3-1.1-6.6-2.5-10.1-2.1c-7.4,1-14.1,4.2-20.3,7.6c-2.7,1.5-5.2,3-7.6,4.7l-3.7,2.5c-1.3,0.8-2.4,1.8-3.7,2.6
						c-0.7,0.5-1.5,1-2.2,1.6c-0.8,0.5-1.5,1.1-2.2,1.6C227.1,372.4,225.5,373.4,224.1,374.7z"/>
				</g>
			</g>
		</g>
	</g>
	<g>
		<g>
			<g>
				<path class="st0" d="M225,87l-0.1,0.2C225,87.1,225,87.1,225,87z"/>
				<path class="st0" d="M235.8,60.2l0.1,0.1C235.9,60.3,235.8,60.2,235.8,60.2z"/>
				<path class="st0" d="M224.3,50.3l0-0.1C224.3,50.3,224.3,50.3,224.3,50.3z"/>
				<g>
					<path class="st0" d="M219.9,59.8c-1.1,2.5-2.1,5.1-3,7.7c-0.8,2.7-1.6,5.3-2.2,8c-0.3,1.4-0.5,2.8-0.8,4.2l-0.7,4.3
						c-0.5,2.8-0.9,5.6-1.7,8.4c-0.4,1.5-0.8,2.9-1.1,4.4s-0.7,2.9-1,4.4c-0.3,1.5-0.6,3-0.8,4.5l-0.3,2.3l-0.2,2.3
						c-0.1,1.5-0.3,3-0.5,4.5l-0.2,2.5c-0.1,0.8,0,1.6,0,2.4c0,3.2,0.2,6.1,0.1,8.9c0,1.4,0,2.7,0.1,4.1l0,4.2c0,1.4,0,2.8-0.1,4.2
						c-0.1,1.4-0.3,2.8-0.6,4.2c-0.3,1.5-0.7,3-1,4.5c-0.2,0.7,0.3,4.6,0.6,5.4c0.1,0.4,1.3-1.8,1.6-2.3c1-1.9,2.5-4.9,3-6.4
						c0.5-1.6,0.9-2.7,1.2-3.9c0.2-0.6,0.3-1.2,0.4-1.8c0.1-0.7,0.2-1.4,0.4-2.2c0.2-1.7,0.5-3.4,0.7-5.2c0.1-1.7,0.3-3.5,0.4-5.2
						l0.3-2.6l0.2-2.6c0.1-0.8,0.2-1.6,0.3-2.4c0.1-0.8,0.3-1.5,0.5-2.3c0.2-0.6,0.3-1.1,0.5-1.7c0.1-0.3,0.1-0.6,0.2-0.9l0.2-1
						c0.3-1.3,0.6-2.7,0.8-4c0.2-1.3,0.5-2.7,0.8-4c0.3-1.3,0.6-2.7,1.1-3.9c1-2.8,2-5.5,3.2-8.2c0.6-1.4,1.1-2.7,1.6-4.1
						c0.5-1.4,1-2.7,1.5-4.1c2-5.9,4.9-11.5,7.3-17.3l3.5-8.9c0.3-0.8,0.6-1.7,0.9-2.5l0.8-2.7l0.1-0.3l0.1-0.4l0.2-0.8
						c0.1-0.6,0.2-1,0.3-1.5l0.2-1.2l0.2-1c0.1-0.4,0.1-0.3,0.1-0.4c0-0.1,0-0.1,0.1-0.2c0-0.1,0.1-0.1,0.1-0.2l0.1-0.1
						c0,0,0,0,0.2-0.2c1.3-1.1,2.5-2.2,3.7-3c1.5-1,2.8-1.7,3.9-1.9l0.2-0.1c0,0,0.1,0,0.1,0l0.2,0l0.8-0.2l1.7-0.3l3.3-0.7
						c4.5-0.9,9.1-1.8,13.7-2.6c8.3-1.5,16.8-1.4,25.3-3.9c2.2-0.6,4.9-1.5,7.4-2.5c1.2-0.5,2.4-1.3,3.5-2c1.1-0.8,2-1.7,2.7-2.7
						c0.7-1,0.5-2.3,0.1-3.4c0.3,0.9-1.1,0.8-2.5,0.5c-1.5-0.3-3-0.9-3.2-1c-0.6-0.1-1.2-0.2-1.8-0.2c-0.6-0.1-1.2-0.1-1.8-0.1
						c-1.2-0.1-2.4-0.1-3.6-0.2c-2.3-0.1-4.5-0.5-6.7-0.8c-2.2-0.2-4.4-0.4-6.7-0.2c-9.7,1-19.2,2.8-29.1,4.7l-6.3,1.3
						c-3.2,0.7-6,2.2-8.2,3.7c-2.3,1.5-4.2,3.2-5.8,4.7l-0.6,0.6l-0.5,0.5l-0.5,0.5l-0.5,0.6c-0.1,0.3-0.3,0.4-0.4,0.6
						c-0.3,0.4-0.7,0.7-0.9,1.2c-0.2,0.4-0.5,0.9-0.7,1.3c-0.2,0.5-0.4,0.9-0.5,1.4c-0.3,0.9-0.6,2.2-0.7,2.7
						c-0.1,0.7-0.3,1.4-0.4,2.1l-0.2,0.8c-0.1,0.3-0.1,0.4-0.1,0.6l-0.1,0.2c0,0.1-0.1,0.2-0.1,0.3l-0.3,0.7
						c-0.2,0.5-0.3,0.9-0.6,1.4c-0.5,1-0.9,2-1.5,3.1L219.9,59.8z"/>
				</g>
			</g>
		</g>
	</g>
	<g>
		<g>
			<g>
				<path class="st0" d="M352.6,109.2l0,0.1C352.6,109.3,352.6,109.3,352.6,109.2z"/>
				<path class="st0" d="M356.8,88.5l0.1,0.1C356.9,88.5,356.9,88.5,356.8,88.5z"/>
				<path class="st0" d="M345.3,79.1l0-0.1C345.3,79,345.3,79,345.3,79.1z"/>
				<g>
					<path class="st0" d="M341.4,88.6c-1.3,4.4-1.9,9-1.6,13.6c0.3,4.7,1.2,9.2,1.4,13.8c0,2.4,0.2,4.8,0.4,7.3
						c0.4,2.4,0.6,4.8,1.4,7.2c0.7,2.5,1.3,4.6,1.9,6.8c0.5,2.3,1,4.5,1.6,6.8c1,4.4,3.4,8.5,4.3,12.9c0.3,1.2,0.5,2.4,0.7,3.6
						c0.1,0.6,2,3.1,2.5,3.5c0.3,0.2,0.5-1.8,0.6-2.4c0.2-1.8,0.4-4.4,0.3-5.7c-0.2-2.6-0.1-3.8-0.7-6.3c-0.6-2.6-1-5.2-1.4-7.8
						c-0.4-2.6-0.6-5.2-0.5-7.9c0-1.1-0.1-2.2-0.2-3.2c-0.1-1-0.2-2-0.4-3c-0.2-1-0.3-2-0.4-3c-0.1-1-0.2-2-0.1-3
						c0.1-1.1,0.2-2.2,0.3-3.3c0.1-1.1,0.3-2.2,0.5-3.3l0.2-1.6l0.2-1.6c0.1-1.1,0.2-2.2,0.3-3.3c0.3-4.7,1.8-9.2,2.8-13.7
						c0.9-4.4,2-8.8,3.9-12.9c0.5-1.2,1.2-2.3,1.8-3.5c0.6-1.1,1.3-2.2,2-3.2c1.9-2.6,3.8-5,5.9-7.2l1.7-1.6c0.6-0.5,1.2-1,1.8-1.5
						c0.6-0.5,1.2-1,1.9-1.4l2-1.3c0.6-0.4,1.2-0.8,1.9-1c0.7-0.3,1.3-0.6,2-0.8c0.7-0.3,1.3-0.5,2-0.8l2.1-0.6
						c0.7-0.2,1.4-0.4,2.1-0.6c0.7-0.2,1.4-0.4,2.2-0.6c0.7-0.2,1.4-0.5,2.1-0.7c0.7-0.2,1.5-0.5,2.2-0.8c3-1.2,7.4-2.4,9.6-6
						c0.5-0.9,0.4-2.2,0.2-3.3c0.4,1.8-4.2-1.1-4.5-1.2c-1.9-0.7-3.9-0.6-5.8-0.9c-1.9-0.2-3.8-0.5-5.6-0.7
						c-1.9-0.1-3.8-0.1-5.7,0.4c-1,0.3-2,0.6-3,1c-1,0.4-2,0.6-3,1.1c-1,0.4-2,0.9-2.9,1.4c-0.5,0.2-1,0.5-1.4,0.7l-1.4,0.8
						l-2.8,1.7c-0.9,0.6-1.8,1.3-2.7,2c-0.9,0.7-1.8,1.3-2.6,2.1l-2.5,2.3c-2.7,2.7-5.1,5.7-7.1,8.8c-1.1,1.5-1.9,3.2-2.9,4.8
						l-1.3,2.4l-0.6,1.2l-0.6,1.2C344.4,80.3,342.6,84.4,341.4,88.6z"/>
				</g>
			</g>
		</g>
	</g>
	<g>
		<g>
			<g>
				<path class="st0" d="M339.4,265.6l0-0.2C339.4,265.5,339.4,265.5,339.4,265.6z"/>
				<path class="st0" d="M343.4,288.7l-0.2,0C343.3,288.8,343.3,288.8,343.4,288.7z"/>
				<path class="st0" d="M358.2,289.8l0.1,0.1C358.2,289.9,358.2,289.8,358.2,289.8z"/>
				<g>
					<path class="st0" d="M356.8,281.2c-0.7-3.9-1.8-8-3.3-11.9c-1.5-3.4-3-7.4-3.3-11.5c-0.1-4.4,0.1-8.7,0.1-13
						c0.1-2.2,0.3-4.3,0.8-6.3c0.1-0.5,0.2-1,0.4-1.6l0.5-1.7c0.3-1.1,0.6-2.2,0.9-3.3c1.2-4.2,1.1-8.7,3-12.5
						c0.5-1,1.1-1.9,1.7-2.7c0.1-0.2,0.3-0.9,0.4-1.6c0-0.3,0.1-0.6,0.1-0.8c0-0.2-0.1-0.1-0.4-0.7c0-0.1,0-0.1,0,0
						c0,0,0.1,0.2,0.1,0.1c-0.1-0.1-0.2-0.2-0.4-0.2c-0.4-0.1-0.9,0.1-1.1,0.2c-1.5,0.6-3.4,2.6-4.2,3.6c-1.5,2.1-2.2,3.2-3.1,5.6
						c-1,2.5-1.8,5-2.7,7.5c-0.5,1.2-0.9,2.5-1.5,3.6c-0.5,1-1.1,2.4-1.7,3.7c-0.6,1.1-0.8,2.2-1.1,3.3c-0.3,1.1-0.5,2.3-0.6,3.4
						c-0.1,1.1-0.3,2.3-0.4,3.4c-0.1,1.1-0.2,2.3-0.4,3.4c-0.7,4.8-1.7,9.7-1.1,14.8c0.1,1.3,0.3,2.7,0.4,4.1l0.2,2l0.2,1.8
						c0.3,2.4,0.5,4.9,1.1,7.4c1.1,4.9,2.5,9.8,4.1,14.9c0.4,1.5,1,3,1.5,4.4c0.5,1.5,1.1,3,1.7,4.4c1.6,3.7,3.7,7.3,6.1,10.5
						l1.9,2.4l1,1.2l1,1.1l2.1,2.2l2.2,2.1c1.3,1.3,2.7,2.4,4,3.7c0.3,0.3,0.6,0.6,1,0.9c0.5,0.4,1.1,0.8,1.6,1.2
						c0.3,0.2,0.6,0.4,0.8,0.5l0.7,0.4l1.4,0.8c3.7,1.8,7,2.9,10.6,3.4c0.9,0.1,2,0.3,3,0.4c0.5,0,1.1,0.1,1.7,0.1l0.4,0l0.2,0
						c0.1,0,0.3,0,0.4-0.1c1.2-0.2,2.4-0.6,4.1-1.2c0.8-0.4,1.7-1.3,2.4-2.3c-0.6,0.8-0.9-0.1-1.4-1.2c-0.5-1.1-1-2.5-1.2-2.6
						c-0.3-0.4-0.7-0.8-1.1-1.1c-0.4-0.3-0.8-0.6-1.3-0.9l-1.3-0.8c-0.4-0.2-0.8-0.5-1.2-0.7c-3-2-5.4-4.6-8.1-5.9
						c-0.7-0.4-1.4-0.7-1.9-1.1l-0.4-0.2c-0.1-0.1-0.3-0.2-0.4-0.2c-0.1-0.1-0.2-0.2-0.4-0.3l-1.8-1.6c-0.6-0.5-1.3-1.1-1.9-1.6
						l-1.8-1.7c-0.6-0.6-1.1-1.2-1.7-1.8c-0.6-0.6-1.1-1.2-1.6-1.8c-0.5-0.6-1-1.3-1.5-1.9c-3.2-4.5-5.9-9.4-7.5-15
						C358,288.7,357.5,285,356.8,281.2z"/>
				</g>
			</g>
		</g>
	</g>
	<g>
		<g>
			<g>
				<path class="st0" d="M362.2,255.8l0-0.1C362.1,255.7,362.1,255.8,362.2,255.8z"/>
				<path class="st0" d="M368.7,275.1l-0.2,0C368.6,275.1,368.7,275.1,368.7,275.1z"/>
				<path class="st0" d="M383.3,273.6l0.1,0.1C383.4,273.7,383.4,273.7,383.3,273.6z"/>
				<g>
					<path class="st0" d="M380.9,266c-1.1-3.3-2.7-6.4-4.4-9.5c-1.9-3.2-4.2-6.3-5.3-9.8c-1.2-3.8-2.1-7.6-3.5-11.2
						c-1.4-3.7-2.1-7.5-2.6-11.4c-0.5-3.7-2.1-7.3-1.6-11c0.1-0.5,0.2-1,0.2-1.4c0.1-0.5,0.2-0.9,0.4-1.4c0.1-0.5-0.5-2.7-0.8-3.3
						c-0.1-0.3-1.3,1-1.6,1.3c-1,1.2-2.1,3.3-2.5,4.4c-0.4,1.1-0.6,1.9-0.7,2.8c-0.1,0.8-0.2,1.7-0.2,2.8c0,4.8,0.5,9.4,0.2,14.2
						c-0.3,3.9,1.4,7.6,1.9,11.4c0.3,2.1,0.5,4.1,0.7,6.2c0.1,1,0.3,2,0.5,3.1c0.2,1,0.5,2,0.8,3c0.7,2.1,1.2,4.3,1.7,6.5l0.4,1.6
						l0.5,1.6c0.3,1.1,0.7,2.2,1.1,3.2l1.3,3.1l1.4,2.9c0.9,2,1.8,3.9,2.6,5.9c0.9,2.3,1.7,4.6,2.5,6.9c0.2,0.7,0.6,1.6,0.9,2.4
						c0.3,0.8,0.7,1.7,1,2.5c0.4,0.8,0.7,1.6,1.1,2.3l1.2,2.2c1.6,2.9,3.3,5.6,4.6,8.2c1.2,2.4,1.9,4.7,2.6,7.3
						c0.6,2.5,1.1,4.8,1.9,6.8c0.2,0.5,0.3,1.1,0.5,1.8c0.1,0.6,0.3,1.2,0.6,1.8c0.2,0.6,0.5,1.2,0.9,1.8c0.4,0.6,0.8,1.2,1.5,1.8
						c0.6,0.6,1.9,1.1,3,1.3c-0.9-0.2-0.3-0.8,0.6-1.5c0.4-0.4,1-0.7,1.3-1c0.4-0.3,0.7-0.6,0.7-0.6c0.6-0.7,1.1-1.6,1.3-2.4
						c0.3-0.9,0.5-1.8,0.8-2.7c1-3.5,2-7,1.2-10.5c-0.4-1.8-1-3.5-1.6-5.2c-0.3-0.9-0.7-1.7-1.1-2.6c-0.4-0.8-0.8-1.6-1.2-2.4
						c-1.6-3.2-3.4-6-4.9-8.8c-1.3-2.3-2.4-4.6-3.3-6.7c-1.1-2.6-2.2-5.3-3.2-8c-0.6-1.6-1.2-3.2-1.7-4.9
						C382.1,269.2,381.5,267.6,380.9,266z"/>
				</g>
			</g>
		</g>
	</g>
	<g>
		<g>
			<g>
				<path class="st0" d="M375.8,119.3l0,0.1C375.8,119.4,375.8,119.4,375.8,119.3z"/>
				<path class="st0" d="M382.6,103l0.1,0.1C382.7,103,382.7,103,382.6,103z"/>
				<path class="st0" d="M371.4,93.6l0-0.1C371.4,93.6,371.4,93.6,371.4,93.6z"/>
				<g>
					<path class="st0" d="M367.7,100.4c-0.7,1.6-1.3,3.2-1.8,4.9c-0.3,0.8-0.5,1.7-0.7,2.5c-0.2,0.9-0.3,1.7-0.4,2.6
						c-0.2,1.8-0.3,3.6-0.5,5.4c-0.1,0.9-0.2,1.8-0.4,2.7c-0.1,0.9-0.3,1.7-0.6,2.6c-0.5,1.8-1.1,3.6-1.6,5.3
						c-0.3,0.9-0.5,1.8-0.7,2.8c-0.2,1-0.4,2-0.5,2.9c-0.4,3.8-1.2,7.4-2.1,11c-0.7,3.6-0.2,7.3-1,10.9c-0.2,1-0.6,1.9-0.8,2.9
						c-0.1,0.5,0.7,3.1,1,3.5c0.2,0.2,1.2-1.2,1.4-1.6c0.4-0.6,0.9-1.4,1.4-2.1c0.5-0.7,0.9-1.4,1.1-1.9c0.9-1.9,1.3-2.8,1.8-4.8
						c1.1-4.1,2.1-8.1,4.2-11.8c0.9-1.5,1.3-3.1,1.8-4.7c0.2-0.8,0.4-1.5,0.7-2.3c0.2-0.8,0.6-1.6,1-2.3c1.7-3.3,3.6-6.5,4.9-9.9
						c0.7-1.8,1.5-3.6,2.4-5.3c0.9-1.7,1.8-3.4,2.5-5.3c0.7-1.8,1.3-3.6,2-5.4c0.7-1.8,1.5-3.5,2.3-5.3c0.5-1,1-2,1.5-3
						c0.5-1,1.1-1.9,1.7-2.9c0.7-1.2,1.4-2.4,2.1-3.6l1-1.9l1.1-1.8c1.4-2.4,2.8-4.8,4.3-7.2c1.5-2,3.2-3.8,4.8-5.7
						c0.4-0.5,0.8-0.9,1.2-1.4c0.4-0.4,0.9-0.9,1.3-1.3c0.8-0.9,1.6-1.9,2.3-2.9c0.6-0.9,1.3-2,2-3.1l0.4-0.6
						c0.1-0.1,0.1-0.2,0.2-0.3l0.2-0.3c0.2-0.4,0.4-0.9,0.6-1.3c0.3-0.9,0.5-1.8,0.5-2.7c0-0.9-0.2-1.8-0.5-2.6
						c-0.1-0.4-0.3-0.8-0.5-1.1c-0.1-0.2-0.2-0.3-0.3-0.4l-0.3-0.3c-0.7-0.4-2-0.7-3.1-0.8c0.9,0.1,0.4,0.6-0.4,1.5
						c-0.8,0.9-1.9,1.4-2,1.4c-0.9,0.6-1.9,1.1-2.7,1.3c-0.1,0-0.1,0-0.2,0l-0.3,0.1l-0.6,0.3c-2.9,1.2-6,2.1-8.3,4.2
						c-2.2,2.4-4.1,4.9-6,7.5c-1.8,2.6-3.3,5.4-5,8.2l-1,1.8l-0.9,1.8l-1.9,3.6L374,88l-1.8,3.6C370.8,94.5,369,97.4,367.7,100.4z"
						/>
				</g>
			</g>
		</g>
	</g>
	<g>
		<g>
			<g>
				<path class="st0" d="M232.1,433.5L232.1,433.5C232.1,433.5,232.1,433.5,232.1,433.5z"/>
				<path class="st0" d="M246.8,424.6l0.1,0.1C246.9,424.7,246.8,424.7,246.8,424.6z"/>
				<path class="st0" d="M241.4,411.2L241.4,411.2C241.4,411.1,241.4,411.1,241.4,411.2z"/>
				<g>
					<path class="st0" d="M235.9,414.2c-2.5,1.5-4.9,3.3-7,5.6c-2.2,2.2-4.1,4.9-6.8,6.4c-1.4,0.8-2.8,1.5-4.3,2.3
						c-0.7,0.4-1.4,0.8-2.1,1.2c-0.7,0.4-1.4,0.8-2.1,1.2c-1.4,0.9-2.8,1.6-4.3,2.2c-1.5,0.6-3,1.2-4.6,1.6
						c-0.8,0.2-1.5,0.5-2.2,0.8l-1.1,0.5l-0.5,0.3l-0.4,0.2c-1.1,0.5-2.5,0.8-4,0.6c-0.8-0.1-1.6-0.4-2.5-0.5
						c-0.2,0-0.9,0.1-1.5,0.4c-0.7,0.3-1.4,0.6-1.6,0.8c-0.2,0.2,1.2,1.1,1.5,1.3c1.2,0.8,2.9,1.9,3.8,2.2c1.9,0.6,2.8,0.9,4.9,0.8
						c0.5-0.1,1.1-0.1,1.6-0.2l1.4-0.3c1-0.2,1.9-0.4,2.9-0.5c2-0.3,3.9-0.7,6-0.8c1.7-0.1,3.2-0.7,4.8-1.3c1.5-0.6,3-1.4,4.6-1.9
						c0.8-0.3,1.7-0.5,2.6-0.7l2.5-0.8c1.7-0.6,3.4-1.2,4.9-2.1c3.2-1.9,6.9-3.1,10-5.2l2.3-1.6l1.1-0.8l1.2-0.9
						c1.5-1.2,3.1-2.5,4.7-3.7c1.7-1.5,3.5-2.9,5.2-4.4c4.3-3.8,7.8-8.2,11.2-12.5c0.8-1,1.6-1.9,2.5-2.7l2.5-2.6
						c1.7-1.8,3.3-3.6,4.5-5.7c1.3-2.3,3.1-5.1,1.9-8.6c-0.3-0.8-1.3-1.7-2.2-2.4c1.5,1.1-3.3,1.1-3.5,1.2c-1.6,0.4-2.8,1.2-4.1,1.8
						c-2.6,1.2-5.5,1.9-7.4,3.7c-2,1.9-3.7,4-5.4,6c-0.8,1-1.6,2.1-2.5,3.1c-0.8,1-1.7,2-2.5,3l-1.1,1.3l-1.1,1.2l-2.2,2.4
						c-0.7,0.8-1.6,1.5-2.4,2.2c-0.8,0.7-1.6,1.4-2.4,2.1c-1,0.7-2.1,1.4-3.2,2.1c-0.5,0.3-1.1,0.7-1.6,1L235.9,414.2z"/>
				</g>
			</g>
		</g>
	</g>
	<g>
		<g>
			<g>
				<path class="st0" d="M330,397.5l0-0.1C330,397.4,330,397.5,330,397.5z"/>
				<path class="st0" d="M331.2,415.4l-0.2,0C331.1,415.4,331.2,415.4,331.2,415.4z"/>
				<path class="st0" d="M345.4,419.3l0,0.1C345.4,419.4,345.4,419.3,345.4,419.3z"/>
				<g>
					<path class="st0" d="M345.9,411.2c-0.1-1.8-0.2-3.6-0.5-5.4c-0.3-1.8-0.8-3.5-1.4-5.3c-0.6-1.8-1.4-3.5-2-5.2l-0.5-1.3
						l-0.2-0.7c-0.1-0.2-0.1-0.4-0.2-0.7c-0.1-0.3-0.2-0.6-0.3-1c-0.1-0.3-0.2-0.7-0.4-1c-0.3-0.7-0.6-1.3-0.9-1.9
						c-0.2-0.3-0.4-0.6-0.6-0.9l-0.5-0.7c-0.3-0.4-0.5-0.7-0.7-1c-0.1-0.1-0.1-0.2-0.2-0.3l-0.1-0.1l-0.2-0.3l-0.7-1.3
						c-0.5-0.9-0.9-1.8-1.4-2.6c-0.6-0.8-1.1-1.7-1.7-2.5c-1.2-1.6-2.4-3.2-3.5-4.8c-0.5-0.8-1.1-1.6-1.7-2.4
						c-0.6-0.8-1.1-1.7-1.7-2.4c-1.2-1.5-2.5-2.9-4-4.1c-0.7-0.6-1.4-1.3-2.1-1.9c-0.7-0.6-1.4-1.3-1.9-2.1
						c-0.6-0.8-1.2-1.7-1.8-2.5c-0.3-0.4-2.8-1.4-3.4-1.4c-0.3,0,0.2,1.7,0.3,2.1c0.4,1.5,1.2,3.6,1.6,4.6c1,1.9,1.5,2.8,2.7,4.5
						c1.3,1.7,2.5,3.5,3.5,5.3c0.5,0.9,1,1.9,1.4,2.8c0.2,0.5,0.4,1,0.6,1.5c0.2,0.5,0.3,1,0.5,1.5c0.2,0.8,0.5,1.6,0.9,2.4
						c0.4,0.8,0.7,1.5,1.1,2.3c0.8,1.5,1.6,3,2.1,4.6l0.2,0.6l0.1,0.3l0,0.2l0.1,0.3c0.1,0.4,0.3,0.8,0.4,1.1l0.4,0.9l0.3,0.7
						l0.2,0.6l0.1,0.2l0,0.1c0,0.1,0,0.1,0,0.2c0,0.1,0,0.3-0.1,0.4c0,0,0,0.1-0.1,0.2c0,0.1,0,0.4,0,0.6c0,0.9,0.1,1.9,0.2,2.8
						c0.3,2,0.3,4,0.3,5.9l0,3c0,1,0,2,0.1,2.9l0.3,2.9l0.2,2.9l0.2,2.9c0,1,0,1.9,0,2.9c0,1.1-0.1,2.2-0.1,3.4
						c-0.1,1.1-0.3,2.2-0.4,3.3c-0.3,2.8-0.8,5.6-1.1,8.3c-0.2,1.4-0.5,2.8-0.7,4.1l-0.4,2.1c-0.1,0.7-0.3,1.4-0.5,2.1
						c-0.6,2.5-1.7,4.7-2.7,6.9c-0.5,1.1-1.1,2.1-1.5,3.1c-0.5,1-0.9,2-1.4,3c-0.2,0.5-0.5,1.1-0.7,1.7c-0.2,0.6-0.5,1.2-0.7,1.8
						c-0.3,1.4-0.6,2.7-0.2,4.5c0.2,0.9,1,1.9,1.8,2.7c-0.7-0.7,0.2-0.9,1.3-0.9c1.1-0.1,2.5-0.1,2.6-0.1c0.9-0.2,1.6-0.6,2.4-1.1
						c0.7-0.4,1.5-0.9,2.2-1.4c1.4-1,2.9-1.8,4.2-2.9c0.6-0.5,1.3-1.1,1.8-1.7c0.5-0.6,1-1.3,1.4-2.1c3.4-6.4,4.4-12.8,5.6-19.5
						l0.5-4.3c0.1-0.7,0.2-1.4,0.2-2.1l0.1-2.1l0.3-4.3l0.2-4.2c0-0.8,0.1-1.7,0.2-2.6c0-0.9,0.1-1.7,0.1-2.6
						C345.8,414.7,345.9,413,345.9,411.2z"/>
				</g>
			</g>
		</g>
	</g>
	<g>
		<g>
			<g>
				<path class="st0" d="M289.4,413.6l0-0.1C289.4,413.6,289.4,413.6,289.4,413.6z"/>
				<path class="st0" d="M291.1,430.4l-0.2,0C291,430.5,291,430.5,291.1,430.4z"/>
				<path class="st0" d="M305.5,430.5L305.5,430.5C305.6,430.5,305.6,430.5,305.5,430.5z"/>
				<g>
					<path class="st0" d="M305,424.7c-0.1-1.3-0.4-2.6-0.7-3.9c-0.3-1.3-0.7-2.6-1.2-3.9c-0.5-1.4-1.1-2.7-1.6-4.1
						c-0.5-1.4-0.9-2.9-0.9-4.3c0-1.6-0.1-3.1-0.1-4.7c0-1.6-0.1-3.1-0.3-4.8c-0.2-1.6-0.3-3.2-0.3-4.9c0-1.6,0.1-3.2,0.2-4.8
						c0.1-1.6-0.1-3.1-0.3-4.6c-0.1-1.5-0.3-3.1,0.1-4.5c0.2-0.8,0.5-1.5,0.7-2.3c0.1-0.4-0.6-2.4-0.9-2.9c-0.2-0.2-1.2,0.9-1.5,1.2
						c-0.9,1-2.1,2.6-2.5,3.4c-0.9,1.7-1.1,2.5-1.4,4.3c-0.6,3.7-0.9,7.3-2.3,10.9c-0.6,1.4-0.7,2.9-0.8,4.4
						c-0.1,1.5-0.1,3.1-0.4,4.6l-1,5c-0.3,1.7-0.5,3.4-0.4,5.1c0.2,3.6-0.4,7.4,0.3,11.1c0.2,0.9,0.3,1.8,0.5,2.7l0.7,2.7
						c0.4,1.8,1,3.6,1.5,5.5c0.3,1.1,0.6,2,0.9,3c0.3,1,0.6,2,0.9,3c1.3,5.1,3.6,9.7,5.4,14.6c0.9,2.2,1.5,4.4,2.1,6.7
						c0.7,2.2,1.3,4.5,2.7,6.5c1.4,2.1,3,5.1,6.5,5.6c0.9,0.1,2.1-0.4,3.1-0.9c-1.7,0.9,0.6-3.3,0.7-3.6c0.5-1.5,0.3-2.9,0.5-4.3
						c0.1-1.4,0.4-2.7,0.6-4.1c0.2-1.3,0.3-2.6-0.1-3.8c-0.6-2.5-1.6-4.9-2.5-7.3c-0.9-2.4-1.9-4.8-2.8-7.1c-0.9-2-1.5-4.1-2.3-6.1
						L307,435c-0.3-1-0.8-2.1-0.9-3c-0.3-1.2-0.5-2.3-0.7-3.5C305.3,427.2,305.1,426,305,424.7z"/>
				</g>
			</g>
		</g>
	</g>
</g>
</svg>
