<?xml version="1.0" encoding="utf-8"?>
<!-- Generator: Adobe Illustrator 20.1.0, SVG Export Plug-In . SVG Version: 6.00 Build 0)  -->
<svg version="1.1" id="Layer_1" xmlns="http://www.w3.org/2000/svg" xmlns:xlink="http://www.w3.org/1999/xlink" x="0px" y="0px"
	 viewBox="0 0 500 500" style="enable-background:new 0 0 500 500;" xml:space="preserve">
<style type="text/css">
	.st0{fill:#FFFFFF;}
</style>
<g>
	<g>
		<g>
			<g>
				<path class="st0" d="M65.1,116.8l0.4-0.6C65.3,116.4,65.2,116.6,65.1,116.8z"/>
				<path class="st0" d="M52.3,211l-0.3-0.2C52.2,211.1,52.3,211.1,52.3,211z"/>
				<path class="st0" d="M63.9,201.6L63.9,201.6C63.9,201.5,63.9,201.6,63.9,201.6z"/>
				<g>
					<path class="st0" d="M56.1,189c-0.1-0.7-0.2-1.4-0.3-2.1c0-0.7,0-1.6,0-2.3c0-0.8,0.2-1.7,0.2-2.6c0.1-0.9,0.3-1.8,0.4-2.7
						c0.7-3.7,1.7-7.6,2.8-11.8c1.1-4.1,2.1-8.2,3.2-12.3c0.6-2,1.1-3.9,1.7-5.9c0.6-1.9,1.3-3.9,1.9-5.8
						c2.7-7.8,6.2-15.3,10.7-22.5c4.4-7.1,9.8-13.8,15.9-19.9c1.6-1.6,3.4-3.1,5-4.7c1.7-1.5,3.4-3.1,5.1-4.6l5.4-4.3l2.7-2.2
						c0.9-0.7,1.9-1.3,2.8-2l5.6-4c0.9-0.7,1.9-1.3,2.9-1.9l2.9-1.9l2.9-1.9c1-0.6,1.9-1.3,2.9-1.8c2-1.1,4-2.3,6-3.4
						c2-1.2,4.1-2.2,6.1-3.2c2.1-1,4.1-2,6.2-3c2.1-0.9,4.2-1.7,6.4-2.6l3.2-1.3l3.3-1.1l6.5-2.1c2.2-0.6,4.4-1.2,6.7-1.7
						c1.1-0.3,2.2-0.6,3.4-0.8l3.4-0.7c2.3-0.5,4.5-1,6.8-1.4c4.4-0.7,8.8-1.6,13.3-2.3c4.4-0.8,8.9-1.2,13.4-1.8
						c2.2-0.3,4.5-0.4,6.7-0.6l3.4-0.3l3.4-0.1c2.3-0.1,4.5-0.2,6.8-0.2c2.3,0,4.5,0.1,6.8,0.1c2.4,0.1,4.8,0.2,7.1,0.4
						c2.3,0.2,4.6,0.6,6.9,1c1.1,0.2,4.5,0.6,7.9,1.2c0.9,0.1,1.7,0.3,2.5,0.5c0.8,0.2,1.6,0.3,2.3,0.5c1.4,0.3,2.5,0.6,3.1,0.7
						c0.5,0.1-0.7-0.7-2.4-1.5c-0.8-0.5-1.7-0.8-2.6-1.2c-0.8-0.4-1.6-0.7-2-0.9c-2.9-1.2-6.8-2.5-10.7-3.4
						c-3.8-0.9-7.6-1.4-10.1-1.6c-5.2-0.3-9-0.6-12.8-0.7c-1.9,0-3.8,0-6-0.1c-2.1,0-4.4,0.1-7.1,0.3c-11,0.6-21.8,1.8-32.5,3.6
						c-10.7,1.9-21.3,4.3-31.9,7.4c-4.2,1.4-8.6,2.8-12.7,4.7c-2.1,0.9-4.2,1.9-6.3,2.8c-2,1.1-4,2.2-6.1,3.3
						c-4.1,2.1-7.9,4.6-11.9,7c-2,1.2-3.8,2.5-5.7,3.8c-1.9,1.3-3.8,2.6-5.6,3.8c-2,1.4-3.9,2.9-5.9,4.4c-2,1.5-4,2.9-5.8,4.5
						c-3.8,3.2-7.6,6.2-11.2,9.7c-7.2,6.8-13.8,14.5-19.2,23.1c-5.9,9-10.5,19-14,29l-1.3,3.8c-0.4,1.3-0.8,2.5-1.2,3.8l-2.2,7.3
						c-1.5,4.9-3,10-3.9,15.7c-0.2,0.8-0.2,1.7-0.3,2.5c-0.1,0.9-0.2,1.7-0.2,2.6c0,1.8-0.1,3.6,0.2,5.6c0.4,3.8,1.6,7.6,3.4,10.9
						c1.7,3.3,3.8,6.1,5.8,8.5l1.5,1.8l1.1,1.4c0.4,0.5,0.9,1,1.3,1.6c0.9,1.1,1.8,1.9,2.8,2.8c0.5,0.4,1,0.7,1.5,1.1
						c0.5,0.4,1,0.7,1.5,1.1c1.4,0.8,2.9,1.3,4.4,1.6c1.5,0.2,3.1,0.1,4.7-0.3c3.1-1,5.4-3.3,6.8-6.1c0.4-0.7,0.6-1.6,0.9-2.4
						l0.4-1.3c0.1-0.4,0.3-0.8,0.3-1.3l0.5-2.8l0.1-0.7l0.1-0.8l0.1-0.6c0.1-0.4,0.2-0.9,0.3-1.3l0.3-1.1c0.1-0.2,0.1-0.3,0.2-0.6
						l0.3-0.7l0.5-1.4c3.9-10.6,8.7-20.9,14.9-30.3c3.8-6,8.2-11.6,12.8-16.9c4.7-5.2,9.8-10.1,15.3-14.4
						c11-8.7,23.6-15.6,36.9-20.9c1.5-0.6,3-1.2,4.5-1.8c1.5-0.6,3.1-1.1,4.7-1.7c3.1-1.1,6.2-2.2,9.3-3.1c6.1-1.9,12.1-3.4,18-4
						l5-0.6c1.7-0.2,3.5-0.4,5.1-0.6l4.9-0.7l4.8-0.6c3.2-0.5,6.2-0.6,9.2-0.9c1.6-0.1,3.2-0.1,4.8-0.1l2.4-0.1c0.8,0,1.6,0,2.4,0
						c6.8-0.1,14.8,0.7,22.5,1.5c1.9,0.2,3.8,0.4,5.7,0.7c1.9,0.3,3.7,0.5,5.5,0.7c3.6,0.5,7,0.8,10,1.1c2.9,0.2,4.2-0.8,4.6-1.9
						c-0.3,0.9-3.8-0.8-7.5-2.7c-1.8-0.9-3.7-1.9-5.2-2.7c-1.5-0.8-2.6-1.3-2.9-1.4c-1.6-0.7-3.3-1.3-5.1-1.9
						c-1.8-0.5-3.5-1-5.4-1.5c-1.8-0.5-3.7-0.9-5.5-1.3c-1.8-0.4-3.7-0.8-5.5-1.1c-1.8-0.3-3.5-0.7-5.3-1c-1.7-0.3-3.5-0.5-5.2-0.8
						c-0.9-0.1-1.7-0.3-2.6-0.4l-2.6-0.3c-1.7-0.2-3.5-0.3-5.3-0.5c-7.3-0.3-14.6,0.2-21.9,1.2l-5.6,0.6l-2.9,0.3l-3.2,0.4
						c-4.2,0.7-8.4,1.6-12.3,2.7c-4,1.1-7.8,2.4-11.6,3.8l-5.6,2l-5.6,2.1c-7.5,2.9-15,6.3-22.2,10.3c-7.2,4-14.1,8.5-20.7,13.7
						c-5.5,4.4-10.8,9.2-15.5,14.5c-1.2,1.3-2.3,2.7-3.5,4c-1.1,1.4-2.2,2.7-3.3,4.1l-1.6,2.1l-1.5,2.1c-1,1.4-2.1,2.8-3,4.3
						c-3.9,5.8-7.4,11.9-10.6,18.2c-0.8,1.6-1.5,3.2-2.2,4.7l-1.1,2.4l-1,2.4l-2,4.8l-1.8,4.9l-0.5,1.5c-0.1,0.3-0.2,0.5-0.3,0.8
						l-0.3,0.9l-0.5,1.9l-0.4,1.7l-0.1,0.4l0,0.2l0,0.1l0-0.1c0-0.1,0,0,0,0l0,0.1l-0.1,0.1c0,0.1-0.1,0.2-0.2,0.2
						c-0.1,0-0.2-0.1-0.2-0.2c0-0.1-0.1-0.2-0.1-0.2c-0.5-0.7-1.1-1.4-1.7-2.1c-0.6-0.8-1.1-1.5-1.6-2.2
						C57.8,194.1,56.6,191.6,56.1,189z"/>
				</g>
			</g>
		</g>
	</g>
	<g>
		<g>
			<g>
				<path class="st0" d="M365.2,186.1l0.1-0.5C365.3,185.8,365.2,186,365.2,186.1z"/>
				<path class="st0" d="M351.3,163.8l0.2,0.1C351.4,163.8,351.4,163.8,351.3,163.8z"/>
				<path class="st0" d="M335.3,151.5l-0.1-0.4C335.2,151.3,335.2,151.4,335.3,151.5z"/>
				<g>
					<path class="st0" d="M340.6,180.8c0.5,1.6,1,3.2,1.5,4.7c0.5,1.6,1.1,3.1,1.7,4.6l1.7,4.5l0.8,2.1c0.3,0.8,0.5,1.3,1.2,3
						c0.5,1.4,1.3,2.7,2,4.1c0.8,1.2,1.6,2.4,2.5,3.6c0.8,1.2,1.7,2.3,2.6,3.5c1,1,1.9,1.6,2.8,2c0.9,0.4,1.7,0.8,2.8,1
						c1.1,0.2,2.4,0.2,3.5,0c0.6-0.1,1.2-0.3,1.7-0.4c0.6-0.2,1.1-0.4,1.7-0.6c0.5-0.3,1.1-0.5,1.5-0.9l0.7-0.5l0.7-0.5
						c0.9-0.7,1.6-1.7,2.3-2.6c0.3-0.5,0.6-1,0.9-1.6l0.1-0.2l0.1-0.3l0.1-0.5l0.3-1l2-8.1c0-0.1,0.1-0.4,0.1-0.5l0-0.3l0.1-0.6
						l0.2-1.2l0.4-2.4l0.7-4.8c0.2-1.6,0.5-3.2,0.9-4.7c0.3-1.6,0.6-3.1,1-4.7c0.7-3.1,1.6-6.2,2.4-9.3c4-13,9.2-25.5,15.1-37.7
						c2.9-6.2,6.4-11.9,10.2-17.5c3.6-5.7,7.9-11,12-16.6c2.1-2.6,4.1-5.2,6.2-7.8l3-4c1-1.3,2.1-2.6,3.1-3.9
						c2.1-2.6,4.2-5.2,6.4-7.7c2.2-2.5,4.4-5.1,6.7-7.4c1.2-1.3,2.5-2.3,3.8-3.4c0.7-0.5,1.2-1.1,2-1.6l2.1-1.4
						c0.3-0.2,1-0.8,1.7-1.5c0.1-0.1,0.2-0.2,0.3-0.3c0.1-0.1,0.3-0.2,0.4-0.3c0.3-0.2,0.5-0.5,0.8-0.7c0.5-0.5,1.1-1.1,1.6-1.6
						c1-1.2,2-2.5,2.6-4c0.3-0.7,0.5-1.6,0.6-2.3c0-0.4,0-0.8,0-1.1c-0.1-0.4-0.1-0.7-0.2-0.9c-0.1-0.4-0.1,0-0.1,0.9
						c-0.1,0.8-0.4,1.9-1,2.6c-1.1,1.6-2.5,2.6-3.2,3.1c-1,0.8-2.3,1.5-3.5,2.2c-1.2,0.7-2.5,1.4-3.8,2.1c-1.3,0.7-2.4,1.6-3.5,2.3
						c-1,0.8-2,1.5-2.7,2.1c-1.4,1.3-2.6,2.4-3.8,3.5c-1.1,1.1-2.1,2-3.1,3c-2,2-3.9,4-6.6,6.9c-10.9,11.9-20.9,24-30.7,36.9
						c-1,1.3-2,2.6-3,3.9c-0.9,1.4-1.8,2.8-2.7,4.2c-1.8,2.8-3.4,5.8-5,8.8l-1.2,2.2l-1.1,2.3c-0.7,1.5-1.5,3-2.2,4.6
						c-1.4,3-2.7,6.1-4.2,9.1c-0.7,1.6-1.4,3.3-2.1,5c-0.7,1.7-1.5,3.3-2.1,5l-2,5l-1,2.5l-0.9,2.5l-1.7,5.1
						c-0.6,1.7-1.1,3.4-1.6,5.2c-0.5,1.7-1,3.5-1.5,5.2c-0.4,1.7-0.8,3.5-1.2,5.2l-1.3,5.4c-0.1,0.4-0.2,0.7-0.3,1.1
						c-0.1,0.3-0.3,0.6-0.5,0.7c-0.3,0.1-0.6,0.2-0.9-0.1c-0.3-0.6-0.6-1.1-0.7-1.6l-0.1-0.4l-0.4-1.3l-0.5-1.4l-0.5-1.5l-1.9-5.2
						c-2.5-6.7-4.7-13.5-6.3-20.3c-0.3-1.7-0.7-3.4-1-5.1c-0.3-1.7-0.6-3.4-0.8-5.2c-0.2-1.7-0.4-3.4-0.5-5.2l-0.2-5.3
						c-0.1-2.1,0-4.2,0-6.2c0-2.1,0-4.2,0.2-6.2c0.2-2.1,0.3-4.2,0.5-6.2l0.8-6.2c0.1-1.3,0.4-2.6,0.6-3.9l0.6-3.8l0.8-3.8l0.4-1.9
						c0.1-0.6,0.3-1.3,0.5-1.9l1-3.8c0.3-1.3,0.8-2.5,1.1-3.7c0.7-2.5,1.6-5,2.5-7.4c1.8-4.9,3.8-9.8,6.1-14.6l0.8-1.8
						c0.3-0.6,0.6-1.2,0.8-1.7c0.6-1,1.1-2.1,1.7-3.1l2-2.9l2.2-2.7c5.7-6.2,13.5-10.2,21.4-11.4c4-0.7,8-0.5,11.9,0.2
						c1,0.1,1.9,0.4,2.9,0.6l1.4,0.4l1.4,0.5c1.1,0.4,2.2,0.8,3.4,1.2l2.2,0.7c0.7,0.3,1.4,0.4,2.2,0.6c1,0.2,2.2,0.5,3.2,0.7
						c1.1,0.2,2.2,0.3,3.3,0.5c1.1,0.1,2.2,0.2,3.3,0.3c1.1,0.1,2.2,0.1,3.3,0.2c1.1,0,2.2,0,3.2,0c1.1,0,2.1,0,3.1,0
						c1,0,2-0.1,3-0.1c1,0,2-0.1,3-0.1c0.8,0,1.6-0.1,2.2-0.2l0.8-0.2l0.7-0.2c0.9-0.2,1.7-0.5,2.5-0.7c1.5-0.5,2.9-1.1,4-1.6
						c0.9-0.4,1.3-0.9,1.4-1.4c0-0.1,0.1-0.3,0.1-0.4c0.1-0.1,0.2-0.2,0.2-0.4c0.1-0.3,0.3-0.5,0.3-0.8c-0.1,0.2-0.3,0.3-0.4,0.3
						c-0.1,0.1-0.4,0-0.9,0c-0.9-0.1-2.3-0.3-3.8-0.5c-2.9-0.4-6.2-1-6.7-1.3c-0.1,0-0.1,0-0.1,0c-5-1.5-10.7-2.1-15.7-3.4
						c-0.6-0.2-1.2-0.3-1.8-0.5c-0.6-0.2-1.2-0.4-1.7-0.6c-0.6-0.2-1.1-0.4-1.7-0.6l-1.6-0.7l-1.5-0.7l-1.4-0.8
						c-0.5-0.3-0.9-0.5-1.5-0.8l-1.9-1c-5.1-2.6-10.9-4.3-17.4-4.3c-6.7,0-13.4,1.5-19.6,4.2c-6.1,2.7-11.7,6.6-16.4,11.4
						c-1.2,1.2-2.3,2.5-3.3,3.8c-1.1,1.3-2,2.7-3,4.1c-1,1.4-1.8,2.9-2.6,4.3l-0.6,1.1l-0.3,0.6l-0.2,0.5l-1,2
						c-2.6,5.4-4.9,10.9-7,16.6c-3.5,9.7-6.1,19.8-7.6,30.1c-1.4,10.2-2,20.4-1.8,30.7c0.1,6.1,0.5,12.6,1.6,18.9
						C337.2,168.5,338.8,174.8,340.6,180.8z"/>
				</g>
			</g>
		</g>
	</g>
	<g>
		<g>
			<g>
				<path class="st0" d="M83.7,396.4l0.4,0.5C83.9,396.7,83.8,396.5,83.7,396.4z"/>
				<path class="st0" d="M58.2,319.9l0.1,0.2C58.3,319.9,58.3,319.9,58.2,319.9z"/>
				<path class="st0" d="M58.6,296.5l0.5-0.3C58.9,296.3,58.7,296.4,58.6,296.5z"/>
				<g>
					<path class="st0" d="M41.1,335.7c0,1.2,0.1,2.4,0.1,3.6c0.1,1.2,0.1,2.4,0.3,3.5l0.5,3.5l0.3,1.8c0.1,0.6,0.3,1.1,0.4,1.7
						c0.6,2.3,1.1,4.6,1.9,6.7c0.7,2.1,1.4,4.3,2.3,6.3c3.3,8.3,7.7,16.1,12.6,23.2c10.3,14.4,22.5,27.2,36.7,38.3
						c3.7,2.9,7.7,5.6,11.7,8.1c4,2.4,8,4.7,12.2,6.8c8.2,4.3,16.8,8,25.6,11.1c8.9,3,17.8,5.6,26.9,7.4c4.5,0.9,8.9,1.8,13.4,2.7
						c4.5,0.9,8.9,1.8,13.5,2.7l3.3,0.7c0.6,0.1,1.1,0.2,1.7,0.3l1.8,0.2l1.8,0.2c0.6,0.1,1.2,0.1,1.8,0.1c1.2,0.1,2.4,0.2,3.5,0.1
						c4.7,0,9.2-0.4,13.6-0.8c2.2-0.2,4.4-0.4,6.5-0.6l6.7-0.6l6.7-0.8l6.7-0.9c2.4-0.4,4.7-0.8,7.1-1.1c2.3-0.4,4.7-0.8,7.1-1.3
						c1.2-0.2,4.7-1.3,8.1-2.9c1.7-0.8,3.4-1.7,4.7-2.5c1.3-0.9,2.3-1.6,2.8-2c0.4-0.4-1.1,0.2-2.9,0.9c-1.8,0.6-4,1.3-5,1.5
						c-6.3,1.7-15.9,2.4-20.8,3c-5,0.6-8.6,0.9-12.2,1.1c-0.9,0.1-1.8,0.1-2.8,0.2c-0.9,0-1.9,0.1-2.9,0.1c-2,0.1-4.2,0.2-6.8,0.2
						c-5.3,0.2-10.5,0.6-15.6,0.4l-1.9-0.1c-0.6,0-1.3-0.1-1.9-0.2l-1.9-0.2l-1.8-0.3c-0.6-0.1-1.2-0.2-1.8-0.3l-1.9-0.4l-3.8-0.9
						c-5.1-1.2-10.2-2.4-15.2-3.5c-2.5-0.6-5.2-1.2-7.6-1.9l-3.7-1c-1.2-0.3-2.5-0.6-3.7-1.1c-15.7-4.8-32.2-10.8-46.7-19.3
						c-2-1.1-3.9-2.3-5.8-3.5c-1-0.6-2-1.2-2.9-1.8l-2.7-1.9c-1.8-1.2-3.6-2.6-5.3-4l-1.3-1c-0.4-0.3-0.8-0.7-1.3-1.1l-2.5-2.2
						c-6.6-5.9-12.6-12.4-18.3-19.4c-1.5-1.8-2.9-3.8-4.4-5.7c-0.7-0.9-1.4-2-2.1-2.9c-0.7-1-1.4-2-2-3c-2.6-4-5-8.1-7.2-12.2
						c-2.1-4.2-4.1-8.4-5.6-12.8c-0.9-2.2-1.5-4.4-2.2-6.6c-0.4-1.1-0.6-2.2-0.9-3.2c-0.2-1.1-0.6-2.1-0.8-3.2l-0.5-3
						c-0.1-0.5-0.2-1-0.2-1.5l-0.1-1.5l-0.2-3l0.1-3l0-1.5c0-0.5,0.1-1,0.2-1.5l0.3-3c0.1-1,0.4-2,0.6-3c0.2-1,0.4-2,0.7-3
						c0.6-2,1.1-4,1.9-5.9l0.6-1.4c0.2-0.5,0.4-1,0.4-1c0-0.1,0.1-0.1,0.2-0.3c0.1-0.1,0.2-0.2,0.3-0.3c0.1-0.1,0.2-0.2,0.4-0.4
						c2.3-2.2,6.1-4.5,9.4-5.6c-2.1-0.4-4.3-0.7-6.4-1.1c0.3,0.2,0.7,0.5,0.9,0.7l0.7,2.3l0.7,2.2c0.2,0.7,0.5,1.4,0.8,2.2l1.6,4.3
						l1.9,4.2c2.6,5.6,5.8,11,9.4,15.9c2.3,3.1,4.6,6,7,8.9c1.2,1.4,2.4,2.8,3.7,4.2l1.9,2.1l1.9,2c2.5,2.8,5.2,5.3,7.9,8
						c2.7,2.5,5.4,5.1,8.3,7.5c11.3,9.7,23.6,18.3,37.3,25.1c6.2,3,12.7,5.6,19.5,7.5l2.6,0.7c0.9,0.2,1.7,0.5,2.6,0.6
						c1.8,0.3,3.6,0.6,5.3,0.9c1.7,0.2,3.4,0.4,5.2,0.5c1.7,0.1,3.4,0.2,5.2,0.3c6.9,0.2,13.6-0.1,20.3-0.8
						c6.7-0.7,13.1-1.7,19.6-2.8c3.4-0.6,7.2-1.2,11.1-1.9c3.9-0.8,7.9-1.6,11.7-2.6c1.9-0.5,3.9-0.9,5.7-1.4
						c0.9-0.3,1.9-0.5,2.8-0.8c0.5-0.1,0.9-0.3,1.4-0.4l0.8-0.2c0.3-0.1,0.6-0.2,0.9-0.3c2.2-0.8,3.7-1.7,4.8-2.3
						c1.2-0.6,1.9-1,2.6-1.3c1.2-0.6,2.5-1.1,3.2-2.1c-0.3,0.4-0.9,0-1.9-0.4c-0.5-0.2-1.1-0.4-1.9-0.5c-0.8-0.1-1.7-0.1-2.6-0.1
						c-1.9,0.1-4,0.4-5.6,0.5c-1.6,0.1-2.8-0.1-3.1-0.1c-6.8,0.1-14.1,0.9-21.2,1.4c-13.5,0.4-25.7,0.8-40,1.3c-1.8,0-3.6,0-5.4,0.1
						c-1.8-0.1-3.6,0-5.4-0.2l-2.7-0.2l-2.6-0.3c-1.8-0.1-3.4-0.5-5-0.7c-6.6-1.2-13.2-3.6-19.6-6.6c-12.8-6-24.9-14.4-36-24
						c-9.5-8.2-18.1-17.2-25.9-26.9c-3.8-4.8-7.2-9.7-9.8-14.9c-1.2-2.7-2.5-5.3-3.5-8.2l-0.8-2.1c-0.3-0.7-0.4-1.4-0.7-2.2
						l-0.7-2.5l-0.7-2.3l-0.3-1.1c-0.1-0.4-0.2-0.8-0.5-1c-1.3-1.1-2.7-2.1-4.1-3.3l-3.3-2.6l-3.9,1.4c-4.4,1.6-8,3.5-11.7,6.2
						c-0.9,0.7-1.8,1.4-2.8,2.3c-0.9,0.9-1.9,1.8-3,3.3c-0.3,0.4-0.5,0.7-0.7,1.1c-0.2,0.4-0.5,0.8-0.6,1.1l-0.7,1.6l-1.2,2.9
						C42.9,318.7,41.1,327.2,41.1,335.7z"/>
				</g>
			</g>
		</g>
	</g>
	<g>
		<g>
			<g>
				<path class="st0" d="M277.5,274l0,0.2C277.6,274.1,277.6,274.1,277.5,274z"/>
				<path class="st0" d="M277.2,251.7l0.2,0C277.3,251.7,277.2,251.7,277.2,251.7z"/>
				<path class="st0" d="M263.1,247l0-0.1C263,246.9,263.1,247,263.1,247z"/>
				<g>
					<path class="st0" d="M262.4,256.4c0,4.2,0.5,8.4,1.4,12.6c1,4.3,2.5,8.4,2.9,12.7c0.3,4.6,0.6,9.1,1.4,13.6
						c0.2,1.1,0.4,2.3,0.5,3.4c0.1,1.1,0.2,2.2,0.3,3.4c0.2,2.4,0.4,4.6,0.6,6.9c0.2,2.2,0.6,4.2,0.9,6.3c0.3,2,0.3,4.1-0.2,5.9
						c-0.3,1-0.8,1.9-1.2,2.7c-0.1,0.2-0.2,0.9-0.2,1.7c-0.1,0.7-0.2,1.5-0.1,1.8c0,0.3,1.6-0.5,2-0.8c0.7-0.5,1.5-1.2,2.1-1.9
						c0.7-0.8,1.2-1.6,1.5-2.2c0.3-0.6,0.5-1.1,0.7-1.6c0.2-0.5,0.3-1,0.5-1.4c0.1-0.5,0.2-1,0.3-1.5c0.1-0.5,0.2-1.1,0.2-1.8
						c0.4-5.5-0.2-10.8,0.8-15.8c0.8-4.3-0.2-8.6,0.1-12.9c0.3-4.6,1-9.2,0.7-13.8c-0.2-2.5,0-4.9,0.1-7.3c0.1-2.4,0.2-4.9,0.1-7.3
						c-0.2-2.4-0.3-4.8-0.4-7.2c-0.1-2.4-0.2-4.8-0.2-7.2c0-2.8,0.1-5.6,0.3-8.4c0.5-7,0.7-14.2,1-21.5c0-0.8,0.1-1.6,0.2-2.5
						c0.1-0.8,0.1-1.7,0.2-2.5c0.2-1.7,0.3-3.3,0.5-5c0.1-1.7,0.2-3.4,0.2-5.1c0-0.9,0-1.7-0.1-2.6c-0.1-0.9-0.2-1.7-0.4-2.6
						c-0.2-0.9-0.3-1.9-0.5-2.9c-0.2-1-0.4-2.1-0.8-3.1c-0.8-2-1.9-3.9-3.7-5.1c-0.8-0.6-2.2-0.5-3.3-0.3c0.9-0.2,0.6,0.9,0,2
						c-0.6,1.1-1.4,2.3-1.5,2.5c-0.4,0.9-0.6,1.8-0.8,2.7c-0.2,0.9-0.5,1.8-0.7,2.7c-0.6,1.7-1.3,3.3-1.8,4.9
						c-0.6,1.6-1.2,3.2-1.3,4.9c-0.7,7.2-0.8,14.5-1.2,22.1c-0.1,3.2-0.3,6.5-0.4,9.8c-0.1,3.3-0.2,6.6-0.2,9.9
						C262.8,248.3,262.5,252.3,262.4,256.4z"/>
				</g>
			</g>
		</g>
	</g>
	<g>
		<g>
			<g>
				<path class="st0" d="M184.2,222.6l-0.1-0.2C184.1,222.5,184.1,222.6,184.2,222.6z"/>
				<path class="st0" d="M212.3,231.5l0,0.2C212.3,231.6,212.3,231.5,212.3,231.5z"/>
				<path class="st0" d="M212.1,216.6l0.1-0.1C212.2,216.6,212.2,216.6,212.1,216.6z"/>
				<g>
					<path class="st0" d="M204.6,218.2c-0.8,0.1-1.5,0.2-2.2,0.3c-0.3,0-0.6,0-1,0.1c-0.3,0-0.6,0-0.9,0c-1.1,0-2,0-3-0.1
						c-1-0.2-1.8-0.2-2.5-0.9c-0.7-0.6-1.1-2-0.8-3.5c0.3-1.6,1.1-3.4,2-5.1c0.9-1.7,2-3.4,3.2-5.1c2.3-3.4,5.9-5.7,9.6-7.3
						c1.8-0.7,3.6-1.7,5.5-2.3c1-0.3,1.9-0.7,3-0.9c0.5-0.1,1-0.2,1.5-0.2l0.8-0.1c0.1,0,0.3,0,0.4,0l0.3,0c0.8,0.1,1.8,0.4,3.2,0.7
						c0.3,0.1,1.4-0.1,2.6-0.4c0.6-0.2,1.2-0.4,1.7-0.7c0.5-0.3,0.9-0.6,1-0.8c0.1-0.2-0.5-0.2-1.2-0.3c-0.7-0.1-1.4-0.3-1.7-0.4
						c-1.9-0.6-4-2.1-5.4-2.4c-0.4-0.1-0.7-0.1-1-0.2c-0.3,0-0.6-0.1-0.8-0.1c-0.5-0.1-1-0.1-1.5-0.1c-1,0-2-0.1-3.3,0.2
						c-0.7,0.1-1.4,0.2-2.1,0.3c-0.3,0.1-0.7,0.1-1,0.2l-1,0.3c-0.7,0.2-1.4,0.3-2.1,0.6c-0.7,0.2-1.4,0.4-2,0.7
						c-2.7,0.9-5.4,2.1-8.1,3.4c-2.2,1.1-4.1,2.7-5.8,4.6c-1.7,1.9-3,4-4.5,6.1c-1.5,2.3-3,4.8-3.9,7.9c-0.2,0.8-0.4,1.6-0.5,2.5
						l-0.1,1.3c0,0.4,0,0.9,0,1.4c0,0.5,0,0.9,0.1,1.4c0.1,0.5,0.2,1,0.3,1.5c0.2,1,0.6,1.9,1.1,2.8c0.2,0.5,0.5,1,0.8,1.4
						c0.3,0.4,0.6,0.9,0.9,1.3c0.7,0.8,1.4,1.5,2.1,2.3c0.8,0.6,1.5,1.2,2.3,1.8c0.8,0.5,1.7,1,2.6,1.4c3.5,1.6,7.2,2.1,10.4,1.8
						c3.2-0.3,6.1-1,8.8-1.9c2.7-0.9,5.2-2,7.7-3.2c1.4-0.7,2.9-1.3,4.3-2.1c1.4-0.8,2.9-1.5,4.2-2.3c7-4.1,12.5-9.5,18-14.2
						c2.5-2.2,5.1-3.7,7.6-5.3c1.3-0.8,2.7-1.6,4-2.4c0.6-0.4,1.3-0.9,1.9-1.3c0.6-0.5,1.3-0.9,1.9-1.4c1.4-1.1,3-2.2,4.4-3.7
						c1.4-1.5,2.6-3.2,3-5.2c0.2-1-0.3-2.2-1-3.2c1,1.6-4.4,0.4-4.7,0.4c-2,0-3.8,0.6-5.8,1c-1.9,0.4-3.7,0.6-5.5,0.9
						c-1.8,0.4-3.6,0.9-5.3,1.9c-1.8,0.9-3.5,2.2-5.1,3.4c-0.8,0.6-1.7,1.2-2.5,1.9c-0.8,0.6-1.5,1.2-2.2,1.9
						c-2.9,2.5-5.7,5.1-8.5,7.3c-1.2,1-2.4,1.9-3.6,2.9c-1.2,0.9-2.4,1.8-3.6,2.6l-1.8,1.2l-1.9,1.1c-1.2,0.7-2.6,1.4-3.9,1.9
						C211,216.9,207.6,217.8,204.6,218.2z"/>
				</g>
			</g>
		</g>
	</g>
	<g>
		<g>
			<g>
				<path class="st0" d="M195.2,290L195.2,290C195.2,290,195.2,290.1,195.2,290z"/>
				<path class="st0" d="M213.7,291.6l-0.1,0.1C213.6,291.7,213.7,291.7,213.7,291.6z"/>
				<path class="st0" d="M223,280.1l0.1,0C223.1,280.1,223.1,280.1,223,280.1z"/>
				<g>
					<path class="st0" d="M213.2,276.2c-1.2-0.3-2.3-0.6-3.6-0.7c-1.2-0.1-2.4-0.3-3.7-0.3c-1.2,0-2.5,0.1-3.7,0.2l-0.9,0.1
						c-0.3,0-0.6,0.1-0.9,0.2c-0.6,0.1-1.2,0.3-1.8,0.4c-2.5,0.5-4.9,1.4-7.5,2.6c-0.6,0.3-1.2,0.6-2.1,1.1
						c-0.8,0.5-1.5,0.9-2.2,1.5c-1.3,1.1-2.5,2.3-3.4,3.7c-0.3,0.5-0.5,1-0.8,1.4c-1.4,3-1.2,6.5,0,9.5c0.1,0.4,0.3,0.7,0.5,1.1
						c0.2,0.4,0.4,0.8,0.6,1c0.3,0.6,0.7,1.1,1.1,1.6c0.8,1,1.6,1.9,2.4,2.7c1.8,1.8,3.7,3.4,5.6,5c1.9,1.6,3.8,3,5.8,4.4
						c3.9,2.7,8.5,3.7,12.3,6c1,0.6,2,1.3,3,2c0.5,0.3,3.5,0.7,4.2,0.6c0.3-0.1-0.9-1.6-1.2-2c-1.1-1.4-2.8-3.3-3.8-4.1
						c-2-1.7-2.9-2.4-5-3.8c-4.3-2.8-8.5-5.7-11.2-9.9c-1-1.7-2.3-3.1-3.4-4.5c-0.6-0.7-1.1-1.4-1.4-2.1c-0.1-0.2-0.2-0.4-0.2-0.5
						c0-0.1-0.1-0.2-0.1-0.3c-0.1-0.2-0.1-0.4-0.1-0.6c0-0.6,0.3-1.2,0.8-1.6c0.4-0.3,0.8-0.4,1.2-0.5c0.2,0,0.3,0,0.5-0.1l1.3-0.4
						c0.8-0.2,1.8-0.3,2.8-0.3l3,0.1c1,0.2,2,0.3,3.1,0.4c1,0.1,2,0.4,3.1,0.5c4.1,0.6,8.3,1.6,12.2,3.5c1.1,0.6,2.3,1.1,3.4,1.8
						l1.6,1c0.5,0.3,1.1,0.8,1.6,1.1c1.3,1,2.7,2,4,2.9l4,3.1c1.4,1,2.7,2.1,4,3.2c1.3,1.1,2.7,2.2,4,3.4c5,4.4,8.3,9.4,13,13.5
						c1.2,1.1,2.6,2.4,4.2,3.5c1.5,1.1,3.3,2,5.4,2.1c1,0,2.1-0.6,3-1.4c-1.4,1.2-0.9-4.2-1-4.5c-0.1-1-0.4-1.9-0.8-2.8
						c-0.4-0.9-0.8-1.8-1.1-2.7c-1.3-3.6-2.2-7.1-4.6-10.1c-1.3-1.5-2.7-2.9-4.1-4.3c-1.4-1.4-2.7-2.6-4.2-3.9
						c-1.4-1.3-2.9-2.5-4.4-3.8c-1.5-1.3-3-2.5-4.6-3.7l-4-3.1c-1.4-1-2.9-1.9-4.3-2.9l-2.2-1.4c-0.7-0.5-1.6-0.9-2.3-1.4
						c-0.8-0.4-1.6-0.9-2.4-1.3l-2.4-1.2c-0.5-0.2-1-0.5-1.5-0.7c-0.5-0.2-1-0.5-1.5-0.7c-1-0.4-2-0.9-3.1-1.4
						c-1.1-0.4-2.1-0.8-3.2-1.2C215.5,276.7,214.3,276.5,213.2,276.2z"/>
				</g>
			</g>
		</g>
	</g>
	<g>
		<g>
			<g>
				<path class="st0" d="M180.1,246.9L180.1,246.9C180.1,246.8,180.1,246.8,180.1,246.9z"/>
				<path class="st0" d="M180.1,254.7l-0.1,0C180,254.7,180,254.7,180.1,254.7z"/>
				<path class="st0" d="M190.7,255.7L190.7,255.7C190.7,255.7,190.7,255.7,190.7,255.7z"/>
				<g>
					<path class="st0" d="M191.1,252.7c0-1.3-0.3-2.6-0.9-3.9c-0.6-1.3-1.6-2.7-1.6-4.1c0-1.5,0.1-2.9-0.2-4.5
						c-0.3-1.6-0.1-3.2-0.1-4.9c0-0.9-0.3-1.7-0.7-2.5c-0.2-0.4-0.3-0.8-0.5-1.3c-0.2-0.4-0.3-0.9-0.4-1.3c-0.2-0.5-0.3-1-0.4-1.6
						c-0.1-0.3-1.5-0.9-1.8-0.8c-0.2,0-0.2,1-0.2,1.3c-0.1,0.4-0.1,0.9-0.2,1.3c-0.1,0.4-0.2,0.8-0.2,1c0,0.4-0.1,0.8-0.2,1.1
						c-0.1,0.3,0,0.6,0,0.9c0,1.5-0.2,3.1-1.2,4.7c-0.4,0.6-0.5,1.3-0.6,2c-0.1,0.7-0.1,1.5-0.3,2.2c-0.5,1.6-1.3,3.1-1.3,4.8
						c0,1.7-0.6,3.4-0.5,5.2c0.1,1.7,0.4,3.4,0.6,5.1c0.1,1,0.1,2,0.1,3c0,1.3,0.2,2.5,0.4,3.8c0.2,1.2,0.5,2.5,0.7,3.7
						c0.1,0.6,0.1,1.1,0.1,1.7l0,1.7c0,1.2,0.1,2.3,0.6,3.4c0.5,1.1,1.1,2.7,3.5,3c0.6,0.1,1.5-0.2,2.4-0.4
						c-1.3,0.4,1.1-1.7,1.2-1.8c0.6-0.8,0.8-1.4,1.2-2.1c0.7-1.4,1.9-2.6,2-3.8c0.1-2.4-0.5-4.7-0.8-7c-0.1-1-0.3-2-0.5-3
						c-0.2-1-0.2-2-0.3-3c0-0.6,0-1.2,0-1.8C191,254,191.1,253.4,191.1,252.7z"/>
				</g>
			</g>
		</g>
	</g>
	<g>
		<g>
			<g>
				<path class="st0" d="M375.3,314.5l0.2,0.5C375.4,314.8,375.4,314.6,375.3,314.5z"/>
				<path class="st0" d="M337.9,346.8l-0.2-0.1C337.8,346.8,337.8,346.8,337.9,346.8z"/>
				<path class="st0" d="M351.7,360.9l0,0.4C351.7,361.1,351.7,361,351.7,360.9z"/>
				<g>
					<path class="st0" d="M353.6,335.1c0.2-1.4,0.4-2.8,0.6-4.1c0.2-1.4,0.5-2.7,0.8-4.1c0.5-2.7,1.2-5.3,2-7.9
						c0.4-1.3,0.8-2.5,1.2-3.6c0.2-0.6,0.5-1.1,0.7-1.6l0.1-0.2l0-0.1l0,0c0,0,0,0,0,0l0-0.1c0-0.2,0.1-0.8,0.5-1c0,0,0.1,0,0.1,0
						c0.2-0.1,0.5,0,0.7,0.1c0.1,0.1,0.2,0.1,0.4,0.2l0.2,0.2c0.1,0.1,0.1,0.1,0.3,0.4c1.3,2.1,2.4,4.7,3.5,7.5
						c1.1,2.8,2.3,5.6,3.4,8.5c1.1,2.8,2.2,5.7,3.2,8.6c1.1,3.1,2.3,6.3,3.5,9.4c1.3,3.1,2.5,6.3,3.9,9.3c2.8,6.1,5.8,12.1,9.4,17.8
						c7,11.5,14.2,22.5,22.8,33c2.1,2.5,4.4,4.9,6.6,7.3l6.8,6.8c4.6,4.5,9.2,9,13.9,13.6c2.5,2.4,5.1,4.8,8,7
						c0.4,0.3,1.1,0.7,2.1,1.3c1,0.5,2.2,1.1,3.4,1.7c1.3,0.5,2.5,1.1,3.5,1.4c1.1,0.4,1.9,0.6,2.4,0.7c0.4,0.1-0.5-0.6-1.6-1.5
						c-1.1-0.8-2.4-1.9-3-2.3c-3.7-2.9-8.5-8-10.9-10.6c-2.5-2.6-4.2-4.6-6-6.6c-1.8-2-3.5-4-6-6.7c-2.5-2.9-5-5.7-7.5-8.5
						c-1.3-1.4-2.4-2.9-3.6-4.3c-1.2-1.4-2.4-2.8-3.5-4.3l-3.3-4.5c-1.1-1.5-2.1-3.1-3.1-4.6c-1-1.6-2-3.1-2.9-4.7
						c-0.9-1.6-1.8-3.2-2.7-4.9c-5.6-10.6-12.3-21.3-16.6-32.6c-2.3-6.1-4.2-12.3-6.1-18.7c-0.9-3.2-1.9-6.4-2.9-9.6l-1.5-4.7
						c-0.5-1.6-1-3.3-1.6-5c-0.4-1.2-0.9-2.4-1.4-3.6c-0.3-0.6-0.5-1.2-0.9-1.9c-0.2-0.4-0.5-0.9-0.7-1.3l-0.8-1.4
						c-2.2-3.6-5.1-6.5-8.9-7.4c-1-0.2-2-0.4-3-0.3c-1,0.1-2,0.2-3,0.5c-1.9,0.6-3.7,1.6-5.3,3c-1.6,1.4-3,3.2-4.1,5.1
						c-0.2,0.2-0.3,0.5-0.4,0.7l-0.4,0.6l-0.5,1c-0.3,0.6-0.6,1.3-0.9,1.9c-1.2,2.6-2.1,5.1-2.9,7.6c-0.8,2.5-1.4,5.1-1.9,7.6
						c-1.5,7.5-2,14.9-2.2,22.2c-0.1,3.6-0.1,7.2-0.1,10.8c0,1.8,0.1,3.7,0.1,5.5c0.1,1.8,0,3.7,0.2,5.5l0.4,6.4
						c0.1,2.1,0.4,4.3,0.6,6.4l0.3,3.2l0.5,3.2c0.3,2.1,0.6,4.2,1,6.4c1.9,10.8,5.3,21.3,9.6,31.3c2.2,4.9,4.6,9.8,7.1,14.5l1,1.8
						c0.3,0.6,0.6,1.2,1,1.8c0.8,1.3,1.5,2.6,2.4,3.8l2.7,3.6c1,1.1,2,2.2,3,3.3c3.8,3.9,8.1,7.2,12.8,9.9c4.7,2.7,9.8,4.7,15.2,5.8
						c5.3,1.1,10.9,1.4,16.5,0.6c1.4-0.2,2.7-0.5,4.1-0.8c1.4-0.3,2.7-0.8,4-1.2c1.4-0.4,2.6-1,3.9-1.6l1.9-0.9l1.6-0.8
						c4.4-2.3,9.4-4.7,14.2-6.8c1.2-0.5,2.4-1,3.5-1.5c1.1-0.4,2.3-1,3.3-1.4c0.5-0.2,1.1-0.4,1.6-0.6c0.5-0.2,1.1-0.5,1.4-0.6
						c0.8-0.4,2.1-0.7,3.3-1.3c0.6-0.2,1.2-0.6,1.6-0.9c0.5-0.4,0.9-0.8,1.1-1.2c0.3-0.8,0.2-1.4-0.1-1.9c0.1,0.2,0,0.4-0.3,0.7
						c-0.1,0.1-0.4,0.2-0.7,0.3c-0.3,0.1-0.6,0.2-0.9,0.2c-1.3,0.1-2.7-0.1-4.1-0.4c-2.8-0.4-6-0.8-6.4-0.7c-5,0.1-10.4,1.6-15.5,3
						c-4.9,1.3-9.7,3-13.6,3.6c-4.1,0.7-8.3,0.7-12.6,0.4c-9.2-0.7-18-4.7-24.5-11.1c-1.6-1.6-3.1-3.3-4.5-5.2
						c-0.7-0.9-1.3-1.9-1.9-2.9l-0.5-0.7c-0.2-0.2-0.3-0.5-0.5-0.8l-0.9-1.8c-2.6-4.6-4.8-9.4-7-14.2c-3.5-8.2-6.3-16.6-8.2-25.2
						l-0.7-3.2c-0.2-1.1-0.4-2.2-0.5-3.3l-0.5-3.3l-0.3-1.7l-0.2-1.7l-0.7-6.7l-0.4-6.7c-0.1-2.7,0-5.4-0.1-8.1
						c0-2.7,0.2-5.6,0.3-8.4C352.5,346,352.9,340.5,353.6,335.1z"/>
				</g>
			</g>
		</g>
	</g>
</g>
</svg>
