<svg id="Layer_1" data-name="Layer 1" xmlns="http://www.w3.org/2000/svg" viewBox="0 0 453.57 334.47"><defs><style>.cls-1{fill:#231f20;}</style></defs><title>helper</title><path class="cls-1" d="M150.05,395.4a.37.37,0,0,0-.18.05C150,395.43,150.07,395.42,150.05,395.4Z" transform="translate(-20 -78.78)"/><path class="cls-1" d="M223.23,410.27l-.86-.19A7.48,7.48,0,0,0,223.23,410.27Z" transform="translate(-20 -78.78)"/><path class="cls-1" d="M105.24,393.68l.11,0-3.15.17,1.52-.08Z" transform="translate(-20 -78.78)"/><path class="cls-1" d="M382.09,396.62h0Z" transform="translate(-20 -78.78)"/><path class="cls-1" d="M288.24,407.38c.28-.08.77-.19,1.24-.29A7.87,7.87,0,0,0,288.24,407.38Z" transform="translate(-20 -78.78)"/><path class="cls-1" d="M81.45,394.57l1.28-.07A5,5,0,0,0,81.45,394.57Z" transform="translate(-20 -78.78)"/><path class="cls-1" d="M36.61,403.23h.12C36.79,403.21,36.72,403.22,36.61,403.23Z" transform="translate(-20 -78.78)"/><path class="cls-1" d="M54.15,400l1.25-.29A9.52,9.52,0,0,0,54.15,400Z" transform="translate(-20 -78.78)"/><path class="cls-1" d="M56,399.54l-.6.14A3.79,3.79,0,0,0,56,399.54Z" transform="translate(-20 -78.78)"/><path class="cls-1" d="M280.91,93.72c-1.26.38-2.32.78-3.43,1.18Z" transform="translate(-20 -78.78)"/><path class="cls-1" d="M473.13,350.36l.05.28C473.16,350.37,473.14,350.33,473.13,350.36Z" transform="translate(-20 -78.78)"/><path class="cls-1" d="M279.58,95l-.89.25Z" transform="translate(-20 -78.78)"/><path class="cls-1" d="M105.55,392c.66-.08,1.67-.13,2.51-.18a9.15,9.15,0,0,0,1.5-.09A32.57,32.57,0,0,0,105.55,392Z" transform="translate(-20 -78.78)"/><path class="cls-1" d="M467.95,319.93l-.05-.86Z" transform="translate(-20 -78.78)"/><path class="cls-1" d="M279.58,95l1-.29-.32,0Z" transform="translate(-20 -78.78)"/><path class="cls-1" d="M470.71,199.58v0Z" transform="translate(-20 -78.78)"/><path class="cls-1" d="M471.1,191.59l0,1.71C471.12,192.4,471.12,191.92,471.1,191.59Z" transform="translate(-20 -78.78)"/><path class="cls-1" d="M277.48,94.91l-2,.68C276.23,95.35,276.86,95.13,277.48,94.91Z" transform="translate(-20 -78.78)"/><path class="cls-1" d="M466.74,105.14l.38.76C467,105.57,466.84,105.31,466.74,105.14Z" transform="translate(-20 -78.78)"/><path class="cls-1" d="M282.27,408.51l-.69.12C281.51,408.66,281.56,408.67,282.27,408.51Z" transform="translate(-20 -78.78)"/><path class="cls-1" d="M340.71,396.32h0Z" transform="translate(-20 -78.78)"/><path class="cls-1" d="M337.56,396.82c1-.1,2.4-.34,3.15-.5C339.71,396.44,338.78,396.58,337.56,396.82Z" transform="translate(-20 -78.78)"/><path class="cls-1" d="M347.53,395.64l-.37,0Z" transform="translate(-20 -78.78)"/><path class="cls-1" d="M284.12,405.46s0,0,0,0h0Z" transform="translate(-20 -78.78)"/><path class="cls-1" d="M296.59,403l.87-.12Z" transform="translate(-20 -78.78)"/><path class="cls-1" d="M379.16,393.58h0Z" transform="translate(-20 -78.78)"/><path class="cls-1" d="M469.7,379l-.25,5.53c0,1.29-.14,2.57-.21,3.85l-.11,1.91-.05,1a3.37,3.37,0,0,0,0,.39v.75c.06,2.63.27,5.12.11,7.43s-.73,4.39-2.09,5.71c-.6.46,0,.17-.76.41a8.41,8.41,0,0,1-1.56.22,22.48,22.48,0,0,1-3.5-.16c-.86-.09-1.76-.18-2.69-.23l-.7,0h-.24l-1.23-.33L451.49,404l-9.71-2.71c-6.48-1.77-13.09-3.45-20.34-4.72l-.94-.16-.28,0-.23,0h-.12l-.45,0-1.71-.13-3.1-.2-5.38-.28c-3.41-.16-6.73-.32-11.46-.7-4.51-.36-9.08-.82-13.64-1.29l-.44,0a2.1,2.1,0,0,0-.32,0h-6.26c-2.3,0-4.59.11-6.86.18-9.83.43-17.41,1.51-27,2.49.67-.17.42-.29,1.31-.48-2.35.32-4.64.66-7.05,1s-5,.7-7.88,1.05c-3.89.45-4.82.25-9.25,1.19-5.35.66-10.55,1.24-17.3,2.54-.72.66-14.38,3-20.57,4.27-2.53.52-4.85,1-7.17,1.55l-3.52.78c-1.19.26-2.42.54-3.7.72-6.56,1-10.13,1.49-17,2a79.42,79.42,0,0,1-10.43.06,70.88,70.88,0,0,1-10-1.33c-3.84-.87-6.2-1.59-8.46-2.18l-8-2.15c-6.85-1.83-5.73-1.6-13.3-3.85a136.67,136.67,0,0,0-15.54-3.63c-5.26-.79-10.47-1.57-15.75-2.19-6.95-.84-14-1.59-20.91-2.1-7.42-.55-13.73-.83-19.73-1.16-3-.17-5.91-.34-8.87-.56s-6-.14-9.06-.17c-3.76.34-11.19.85-19,1.69s-16.07,2-21.53,2.85c-5.25.81-13.18,2.11-20.79,3.61s-14.89,3.11-18.9,4.29c1.07-.2,11.33-2.08,10.25-1.73.41-.13.89-.3,1.09-.39.24.12,1,0-.29.41l10.63-2.39c2.2-.33.77-.06,4.76-.79-.42.15-.14.19-.78.38.8-.21,1.58-.4,2.84-.63.4,0,1.21-.14,1.55-.15l5-.91c.09,0,.8,0,1,0a48.12,48.12,0,0,1,7.58-1.32c3.46-.58,7-1.14,10.64-1.61.35.06,1.68,0,1.56.07l4.53-.63c-.11.14,1,0-.32.31,1-.17,2.52-.3,3.62-.46.76,0,2.49-.14,3.08-.12l.71-.17c.69-.06.88,0,1.57-.06a40.57,40.57,0,0,1,4.8-.35c1.43,0,2.93-.1,5.26-.2.33-.05.13-.09.34-.13l1.25,0c.25.05,1.24.07,1.64.12,0,0,.15-.06.42-.1l5.47-.06c1.8,0,3.58.15,5.37.25a4,4,0,0,0-.61.09c3.7.21,7.41.37,10.91.52,2.05.46,13.32,1.09,18.85,1.6l.27-.06c4,.44,8.39.78,11.69,1.24-.18,0-.17.07,0,.14l7.29.92-.65-.17c1.3.12,2.58.31,3.79.46.39.09-.64,0-.21.05.76.15,2.68.4,3.59.58.25,0-1.13-.12-1.13-.12,1,.11,1.53.19,2.08.21l4.31.74c-1.44-.35.06,0,.46-.11a76.38,76.38,0,0,1,8.15,1.87c2.4.53,5.24,1.34,6.76,1.78l1.58.39c.42.17,1.64.57,2.25.8.12,0-.57-.22-.6-.25l4,1.18c.71.32,4.26,1.48,8.09,2.66s8,2.28,9.74,2.72l0,.11c.36,0,1.31.19,1.55.2.46.14.82.27,1.08.37,1,.2,2.32.59,3.82.87s3.14.55,4.67.74c-.69-.35,4.21.27,10,.28a118,118,0,0,0,14.73-.9c.47,0,.37,0,.53.05,1.05-.17,2.18-.38,3-.55,0,0,0,.1.19.12,2-.46,3.35-.63,6.13-1.16-.45.13-1.42.32-1.76.4,6.89-1.43,14.56-3.14,21.62-4.41,0,0-.62.16-.66.21l2.58-.49c-.25.08-.33.12-.25.14l6.68-1.22,1.24-.33,8.88-1.58-1.11.24,3.75-.73c.39-.05-.24.1.19,0,6-1.11,8.62-1.43,14.49-2.28.15-.06-.61,0-.56,0,2.58-.38,2.39-.32,3.85-.46.21,0,1.52-.21,1.94-.26-.2.07-.48.14-.82.22,1.84-.45,6.74-1.08,11.75-1.57s10.16-.79,12.48-.89,4.87-.47,7.68-.65,5.82-.33,8.84-.37l4.52-.09h7.4l1,.1,3.79.37c4.47.42,8.19.63,13.5,1.14L419.65,400l3.74.7,3.84.78c2.55.53,5.09,1.11,7.61,1.71,5,1.2,10,2.52,14.84,3.9l5.3,1.57,1.36.41.33.1a2.8,2.8,0,0,0,.61.14l.81,0c.8.05,1.6.15,2.33.24a30.05,30.05,0,0,0,3.89.24,14.61,14.61,0,0,0,2.42-.25l.59-.14c.22,0,.32-.09.67-.19a1.47,1.47,0,0,0,.79-.38l.55-.47a10.19,10.19,0,0,0,2.89-4.46,18.09,18.09,0,0,0,.82-4.78c.09-2,0-3.83-.05-5.59l0-1.3v-.64s0-.06,0,0v-.14l0-.33.14-2.62c.1-1.74.18-3.48.22-5.24s.11-3.53.12-5.35c.1-8.12.23-13.23,0-19.92l-.07.68c0-2.9-.12-6.23-.35-8.77l.06-1.75c-.13-1.6-.28-4-.45-5.47,0-2.43-.25-7.18-.47-11.07-.17.28-.09.35-.35-2.5.06-.24.08-1.42.15-1.52-.18.22-.41-2.28-.56-5.76a64.63,64.63,0,0,0-.53-9.4c0-.4,0-1,.07-1.3l-.44-9.44c-.1-3.37,0-6.59,0-8.47-.08-.58-.15-2.23-.22-2.78s.14-1.6.22-2c-.07-.09-.16-1.2-.22-1.45.09-11.21,0-23,0-34.47,0-10.11-.19-18.67,0-28.16l-.13,3.64c-.13-4.39.1-9.43.18-14.22.1-5,.12-10,.28-15,.32-9,.4-11.7.67-21.44a21.52,21.52,0,0,0,.18-4.41c.06-.82.11-2.82.2-3.7l-.05-2.39c.45-4.59,1.41-22,1.08-29.74a116.31,116.31,0,0,0-1.16-13.75c-.38-2.64-.9-5.16-1.33-7.19s-.85-3.51-1-4.19a31.71,31.71,0,0,0-4.56-9.83,39.19,39.19,0,0,0-6.24-6.44,42.08,42.08,0,0,0-5.92-3.45,54.59,54.59,0,0,0-7.42-2.87c-7.75-2.35-15.59-3.49-23.29-5l-5.86-1c-2-.37-3.93-.56-5.89-.85s-3.93-.58-5.9-.75l-5.92-.59c-2-.22-4-.32-5.93-.45l-5.94-.37-5.94-.19c-2-.07-4-.13-5.94-.1h-5.94c-2,0-4,.1-5.94.15s-4,.1-5.93.21l-5.93.36a328.12,328.12,0,0,0-36.72,4.54,245.11,245.11,0,0,0-33.23,8.38c-1.07.46-4.09,1.46-2.88,1.25-2.33.76-3.48.88-3.9,1.14,3.22-.9-.89.61,2.28-.2l-2,.64c-.38.21,2.7-.93,2.25-.62l.49-.39c1.63-.46,2.54-.69,3.13-.79a29.69,29.69,0,0,1,6.09-2l-1,.29c3-.81,1.87-.35,2.51-.48l-.66.18,2.55-.57c-1.92.44-5,1.47-3.38,1,3.58-.9-.94.19,1.73-.56,1.65-.46,1.22-.21,1.17-.12l1.49-.41c.74-.21,1.49-.39,1.49-.39s-2,.5-.75.29l3.75-1c.77.11,4.09-1.12,5.88-1.24-2.71.68.26,0-.15.22l6.71-1.39c.64-.09-1.75.44-.73.22,1.28-.18,2.06-.49,2.73-.63s5-.89,4.88-.68c4.6-.66,1.88-.6,6.17-1.16.29,0-.56.14-1.24.25s-1.19.22-.24.11l4.43-.69a12.24,12.24,0,0,1-2.5.52c3-.39,5.66-.73,8.14-1l7-.59c2.25-.22,4.49-.31,6.84-.49s4.82-.41,7.58-.58c1.56,0-1.11.15-2.21.3,1.46-.2,5.17-.35,8.89-.48s7.45,0,8.94,0c.24,0,.32-.08.55-.12,9.39.17,20.87.33,31.13,1.36-.17,0-.86-.12-.84-.16,1.38.07,3.36.2,5.29.37a13.51,13.51,0,0,0,1.64.34c-.44-.09-.87-.16-1.12-.23,1.1.23,11.53,1.62,22.5,3.74,5.51,1,11.1,2,15.59,3.19a57.63,57.63,0,0,1,9.28,3.15,28.24,28.24,0,0,1,10.71,7.87,23,23,0,0,1,3.32,5.7,45.15,45.15,0,0,1,1.91,6.58c2.24,9.1,2.78,18.49,2.72,27.87.1-.19.09.46.17.74l-.59,10.57c-.24,4.36-.52,9.36-.64,14.44s-.32,10.09-.48,14.66-.27,8.61-.31,11.52c-.08,3.56-.59,12.85-.32,16.07-.17,9.05-.21,18.63-.2,28.7,0,8.13-.22,32.88.23,37.31-.07,2.48-.09,5.29,0,8.14l0-2s.09,0,.1-.12c0,1.23.06,2.82.07,4.25-.28,1.34-.24,6.62-.18,12.47.24,5.87.66,12.21.66,15.68a16.06,16.06,0,0,1,.51,3.46c-.57,2.27,1.64,26,1.35,29.32.17,2.84.11,1.69.18,4.41-.06-.75-.14-1.74-.21-2.42.19,2.67.35,5.76.35,8.67,0-.14,0-.19.07-.13l0,2.09c0,1.29,0,3.08,0,5.11C469.94,370.25,469.83,375.24,469.7,379Z" transform="translate(-20 -78.78)"/><path class="cls-1" d="M282.5,405.76l1.62-.3s.06-.08.79-.26Z" transform="translate(-20 -78.78)"/><path class="cls-1" d="M359.68,394.53l.59-.08A2.84,2.84,0,0,0,359.68,394.53Z" transform="translate(-20 -78.78)"/><path class="cls-1" d="M378.64,393.48c-1.36,0-.15.07.51.1C379.19,393.55,379.16,393.52,378.64,393.48Z" transform="translate(-20 -78.78)"/><path class="cls-1" d="M239.13,410.87c.28,0,.46,0,.41,0C239.16,410.83,239.08,410.85,239.13,410.87Z" transform="translate(-20 -78.78)"/><path class="cls-1" d="M119.12,391.6l.49,0Z" transform="translate(-20 -78.78)"/><path class="cls-1" d="M125.89,392.17l1.37.06C126.66,392.19,126.23,392.17,125.89,392.17Z" transform="translate(-20 -78.78)"/><path class="cls-1" d="M268.31,408.93c.44-.08.87-.16,1.24-.25C268.87,408.8,268.53,408.87,268.31,408.93Z" transform="translate(-20 -78.78)"/><path class="cls-1" d="M128.66,392.28l1.7.11s0,0,0,0Z" transform="translate(-20 -78.78)"/><path class="cls-1" d="M117,391.61h2.17C118.26,391.57,117.58,391.58,117,391.61Z" transform="translate(-20 -78.78)"/><path class="cls-1" d="M195.9,400.31l.18,0C197.38,400.63,196.57,400.44,195.9,400.31Z" transform="translate(-20 -78.78)"/><path class="cls-1" d="M136.11,392.48l.23,0h-.23Z" transform="translate(-20 -78.78)"/><path class="cls-1" d="M109.56,391.73c.32,0,.62,0,.85-.06l-1,0C109.53,391.71,109.56,391.72,109.56,391.73Z" transform="translate(-20 -78.78)"/><path class="cls-1" d="M170.69,395.71a2.1,2.1,0,0,0-.69,0C170.57,395.81,170.93,395.84,170.69,395.71Z" transform="translate(-20 -78.78)"/><path class="cls-1" d="M258.85,260a.28.28,0,0,0,.06.14C258.89,260,258.87,259.93,258.85,260Z" transform="translate(-20 -78.78)"/><path class="cls-1" d="M259.83,198v.72A5,5,0,0,0,259.83,198Z" transform="translate(-20 -78.78)"/><path class="cls-1" d="M258.23,297.07a.73.73,0,0,0,0-.09l0,2.61Z" transform="translate(-20 -78.78)"/><path class="cls-1" d="M215.71,90.43l.8.21Z" transform="translate(-20 -78.78)"/><path class="cls-1" d="M259.4,144.12c0-.24-.08-.65-.12-1.05A6,6,0,0,0,259.4,144.12Z" transform="translate(-20 -78.78)"/><path class="cls-1" d="M256.57,316.65l.11-1.05A3.4,3.4,0,0,0,256.57,316.65Z" transform="translate(-20 -78.78)"/><path class="cls-1" d="M256.54,354.31a.77.77,0,0,0,0-.1C256.55,354.16,256.54,354.21,256.54,354.31Z" transform="translate(-20 -78.78)"/><path class="cls-1" d="M257.07,339.6l0-1.05A6.49,6.49,0,0,0,257.07,339.6Z" transform="translate(-20 -78.78)"/><path class="cls-1" d="M257,338l0,.51A2.59,2.59,0,0,0,257,338Z" transform="translate(-20 -78.78)"/><path class="cls-1" d="M22.69,389.2c0,1.08.08,2,.15,3Z" transform="translate(-20 -78.78)"/><path class="cls-1" d="M96.52,80.76l.23-.06C96.54,80.73,96.5,80.75,96.52,80.76Z" transform="translate(-20 -78.78)"/><path class="cls-1" d="M23.52,390.55v.77C23.52,391,23.53,390.79,23.52,390.55Z" transform="translate(-20 -78.78)"/><path class="cls-1" d="M256.57,296.71c-.08-1.09.06-3.32,0-3.3A28.24,28.24,0,0,0,256.57,296.71Z" transform="translate(-20 -78.78)"/><path class="cls-1" d="M72.13,88.17l-.69.16Z" transform="translate(-20 -78.78)"/><path class="cls-1" d="M23.52,390.55l0-.89,0,.27C23.51,390.12,23.52,390.33,23.52,390.55Z" transform="translate(-20 -78.78)"/><path class="cls-1" d="M20.35,153.49v0l0-.25Z" transform="translate(-20 -78.78)"/><path class="cls-1" d="M20.25,160.1l0-1.41A13.61,13.61,0,0,0,20.25,160.1Z" transform="translate(-20 -78.78)"/><path class="cls-1" d="M22.84,392.18l.09,1.71C22.91,393.28,22.87,392.73,22.84,392.18Z" transform="translate(-20 -78.78)"/><path class="cls-1" d="M20.92,231.34l0-.65C20.9,231,20.91,231.19,20.92,231.34Z" transform="translate(-20 -78.78)"/><path class="cls-1" d="M259.66,149.15v.58C259.69,149.79,259.7,149.75,259.66,149.15Z" transform="translate(-20 -78.78)"/><path class="cls-1" d="M246.89,103.84h0Z" transform="translate(-20 -78.78)"/><path class="cls-1" d="M248.93,105.25a10.08,10.08,0,0,0-2-1.41C247.54,104.27,248.13,104.69,248.93,105.25Z" transform="translate(-20 -78.78)"/><path class="cls-1" d="M242.13,101.46l.27.11Z" transform="translate(-20 -78.78)"/><path class="cls-1" d="M256.91,147.31h0v0Z" transform="translate(-20 -78.78)"/><path class="cls-1" d="M256.15,136.91c0-.18,0-.44,0-.72C256.13,136.36,256.13,136.6,256.15,136.91Z" transform="translate(-20 -78.78)"/><path class="cls-1" d="M217.24,94h0Z" transform="translate(-20 -78.78)"/><path class="cls-1" d="M120.33,82.72l4.57,0c8.53-.09,16.74-.1,25,.37,11.5.62,21.63,2.38,33.45,4.15,4.17.59,7,1.05,9.8,1.39s5.48.82,9.31,1.57c7.28,1.56,14.64,3.67,21.79,5.78L235,99l5.15,1.58a28.1,28.1,0,0,1,5.17,2c-.53-.15-.42,0-1.1-.17a18.45,18.45,0,0,1,4.76,2.81,13.47,13.47,0,0,1,3.78,4.79,9.38,9.38,0,0,1,.84,3.24l.07.73,0,.81V115a3.49,3.49,0,0,0,0,.42l.09.54.25,1.24c.46,4.4.71,8.69,1.37,14.29.32.3.67,3.3,1,6.87l.4,5.52.28,4.79c.25,4.24.55,7.79.69,12.11.13,5.5.12,8.46.22,14.19.1,6.8,0,10.65-.28,17.13-.16,3.29-.3,5.31-.37,7.26s-.16,3.85-.06,6.88c.21,5.86.17,4.93.12,11.43l-.11,26.18-.19,17.31c-.06,12.26.19,20.84-.58,31,.43,6.21.12,24.49-.08,33.59-.2,8.75-.87,26.48-.35,33.36.05-.9.48-9.49.58-8.56,0-.35-.1-.77-.14-1,.17-.17.18-.83.34.31l-.09-9c.12-1.83.1-.63.18-4,.06.36.16.15.22.69,0-.68-.07-1.34-.06-2.4,0-.33.1-1,.15-1.28l0-4.2c0-.07.11-.65.16-.8a36.27,36.27,0,0,1,0-6.35c0-2.9,0-5.87,0-8.89.11-.28.18-1.38.28-1.27l-.07-3.78c.12.11.14-.83.27.29l-.07-3c.06-.63.14-2.05.2-2.54l-.11-.6c0-.58.09-.73.07-1.3-.15-3.36.17-4.48.13-8.33,0-.27-.08-.11-.12-.29v-1c.07-.2.13-1,.19-1.35,0,0-.05-.12-.08-.35.09-3.07.05-6,.11-9a2.8,2.8,0,0,0,.11.5c0-3.06,0-6.13,0-9,.37-1.71.34-11,.39-15.62a1.92,1.92,0,0,1-.08-.22c.12-3.3,0-7,.16-9.71,0,.14.09.14.13,0,0-1.68.08-4.31.07-6.08l-.09.55c0-1.08,0-2.15,0-3.15,0-.33,0,.53.08.17,0-.64,0-2.24.08-3,0-.21,0,.93,0,.93,0-.82,0-1.28-.09-1.73l.11-3.62c-.14,1.23,0-.05-.17-.37.12-2.09,0-5.76.23-7,0-2,0-4.49,0-5.8,0-.25-.05-1.07-.06-1.35s.1-1.43.14-2c0-.1,0,.5-.07.53l0-3.45c.11-.64.16-3.71.21-7s.29-6.78.33-8.28l.1,0c0-.3-.08-1.08-.13-1.28,0-.39.09-.7.14-.92.06-1.65.27-4.5.36-7-.28.59-.2-3.44-.15-8.13s.12-10,.08-12.09c0-.39.09-.3.12-.43,0-.87-.12-1.82-.18-2.54,0,0,.11,0,.14-.14-.18-1.72-.19-2.79-.29-5.11,0,.39.09,1.19.13,1.48-.27-5.77-.67-12.28-1-18.21,0,0,.08.53.12.56,0-.69-.12-1.46-.16-2.17,0,.21.08.28.11.22-.08-1.45-.27-4.12-.42-5.61l-.19-1c-.16-2.38-.48-5-.75-7.44l.15.93c-.13-1.1-.28-2.11-.45-3.14,0-.33.08.2,0-.16l-.84-6.07-.36-2.75,0-.37v-.21l0-.88a14.44,14.44,0,0,0-.3-1.89c-.07-.13.09.56,0,.51a15.81,15.81,0,0,0-.57-2.08,11.72,11.72,0,0,0-.46-1.3c0-.09-.18-.41-.35-.74l-.48-.83c.13.15.29.35.48.61a26.54,26.54,0,0,0-2.63-3.36,23,23,0,0,0-4.9-3.92,30.64,30.64,0,0,0-5.75-2.57c-1.72-.64-3.17-1.2-4.07-1.56L231.16,95c-2.24-.7-4.62-1.47-7-2.17-4.81-1.49-9.71-2.84-13.53-3.83-1.81-.43-3.48-.79-5.23-1.17s-3.59-.77-5.75-1.22c-5-1.1-9.52-1.95-14.61-2.81-8.63-1.45-17.27-2.42-25.58-3.36-2.75-.28-6.44-.81-8.9-.94-1.54-.1-4.48-.21-6.4-.28l-7.29-.35c-3.1-.06-6-.08-8.87-.06l-8.73.25c-3.35.19-6.1.2-8.68.36s-5,.36-7.76.64l.56,0c-2.38.17-5.13.46-7.21.79-.37,0-1,0-1.45,0-1.31.23-3.31.48-4.48.74-1,.06-2.49.22-4.11.44l-5,.76c.25.15.3.06-2,.57-.21,0-1.19,0-1.28,0,.21.16-1.83.59-4.68,1.14a35.18,35.18,0,0,0-7.65,1.75c-.33,0-.84.13-1.08.14-1,.27-2.26.57-3.57,1l-4,1.22L50,90.82c-.43.25-1.69.79-2.1,1-.39.07-1.3.33-1.64.4,0,.1-.86.53-1,.67L42,94.23l-3.25,1.48-1.63.75-1.61.82-3,1.51a19,19,0,0,0-6.87,3.78,11.38,11.38,0,0,0-2.57,3.35c-.15.33-.29.66-.43,1l-.16.52-.08.26c0-.09,0,0,0,0l-.17.34-.2.43-.38.87A21.2,21.2,0,0,0,20,115.72c0,.66,0,1.07,0,1.57l0,1.45,0,2.86c0,3.79.09,7.52,0,11.44l.09-3c.18,3.63,0,7.79,0,11.75l.12,12.38c0,7.45,0,9.71.28,17.71a20.43,20.43,0,0,0,0,3.63c-.05.67-.07,2.32-.12,3.05l.13,2c-.33,3.84-.13,18.17-.07,24.48,0,4.58.38,18.45.19,20.63.2,2.82.38,14.59.09,15.4.09,2,0,8.42,0,11.71q.15,38.93.53,77.93c.21,18.34.42,43.15,1.28,58.51.13.95.23,3.56.37,2.56.06,2-.15,2.95,0,3.34.06-2.75.33.85.46-1.84l0,1.73c.09.35-.12-2.35,0-1.92l-.24-.48a22.27,22.27,0,0,1,.14-2.66,27,27,0,0,1-.31-5.28l0,.87c0-2.55.14-1.56.17-2.1V384l.1-2.15c-.07,1.62.14,4.32.12,2.9,0-3-.05.79-.1-1.49,0-1.41.11-1,.18-1l0-2.54c.11.09,0,1.68.11.65l-.14-3.2c.27-.6-.16-3.49.09-5,.08,2.31.09-.21.18.16l-.06-5.65c0-.53.1,1.49.08.63a19.83,19.83,0,0,0-.08-2.31c.07-.49,0-4.22.15-4.06.09-3.84-.24-1.61-.17-5.18.11-.48,0,2.83.15,1.25l-.07-3.7a8.4,8.4,0,0,1,.17,2.11c.07-10,.61-15.42.39-24.57.12-1.29.09.93.19,1.84-.25-2.43.17-12.32.16-14.78,0-.2-.08-.27-.1-.45.25-7.79,0-17.3.07-25.85a6.28,6.28,0,0,1-.07.71c-.08-1.14-.15-2.79-.18-4.4a9.4,9.4,0,0,0,.17-1.38c0,.37-.07.74-.11.94.4-1.82.06-35.12,0-40.5-.09-15.66,0-31.52-.29-47.13-.1.16-.1-.38-.19-.61.39-8.33.08-32.69-.16-42.3-.07-2.93.19-10.59-.15-13.24l-.16-23.66V117a9.66,9.66,0,0,1,.09-1.67,15,15,0,0,1,.4-1.83,24.14,24.14,0,0,1,1.51-4l.14-.29a3.07,3.07,0,0,0,.21-.57l.14-.44a6.8,6.8,0,0,1,.39-.85,7,7,0,0,1,1.12-1.54,11.87,11.87,0,0,1,3.21-2.34c.59-.31,1.2-.57,1.79-.81l.88-.33a4.18,4.18,0,0,0,.74-.31l.43-.23c2.21-1.16,3.88-2.14,4.67-2.59,1.87-.77,3.93-1.76,6.08-2.64l-1.54.61s0-.08-.13-.05c.91-.42,2.1-.93,3.17-1.39a31.28,31.28,0,0,0,3.53-1.13c.85-.3,1.79-.68,2.82-1l3.24-1.12A91.07,91.07,0,0,1,68.8,89.08a10.56,10.56,0,0,1,2.69-1c1,.14,6.16-1,11.53-1.91a113,113,0,0,1,12.26-1.68c2.32-.33,1.38-.18,3.61-.4l-2,.33c2.18-.32,4.71-.64,7.11-.79-.12,0-.16,0-.11-.07l.46,0,1.25-.11,4.19-.33c1.66-.16,3.52-.2,5.34-.25Z" transform="translate(-20 -78.78)"/><path class="cls-1" d="M257,148.67l-.06-1.35s-.07-.06-.15-.67Z" transform="translate(-20 -78.78)"/><path class="cls-1" d="M232.59,98.4l-.47-.11A1.92,1.92,0,0,0,232.59,98.4Z" transform="translate(-20 -78.78)"/><path class="cls-1" d="M217.61,94.22c1.09.25.14,0-.38-.21C217.2,94,217.22,94.07,217.61,94.22Z" transform="translate(-20 -78.78)"/><path class="cls-1" d="M258,185c0-.23,0-.38-.06-.34C257.95,184.95,258,185,258,185Z" transform="translate(-20 -78.78)"/><path class="cls-1" d="M256.71,285.58l0-.4C256.73,285.25,256.72,285.4,256.71,285.58Z" transform="translate(-20 -78.78)"/><path class="cls-1" d="M257,280v-1.13C257,279.37,257,279.73,257,280Z" transform="translate(-20 -78.78)"/><path class="cls-1" d="M257.81,160.62c0-.37,0-.73-.08-1.05C257.75,160.15,257.78,160.43,257.81,160.62Z" transform="translate(-20 -78.78)"/><path class="cls-1" d="M257,277.72l0-1.4s0,0,0,0Z" transform="translate(-20 -78.78)"/><path class="cls-1" d="M256.67,287.35l0-1.77A17.2,17.2,0,0,0,256.67,287.35Z" transform="translate(-20 -78.78)"/><path class="cls-1" d="M257.58,221.91v-.15C257.52,220.67,257.54,221.35,257.58,221.91Z" transform="translate(-20 -78.78)"/><path class="cls-1" d="M256.8,271.58v-.19l0-.41Z" transform="translate(-20 -78.78)"/><path class="cls-1" d="M256.54,293.41c0-.27,0-.51,0-.7l0,.8C256.51,293.43,256.53,293.41,256.54,293.41Z" transform="translate(-20 -78.78)"/><path class="cls-1" d="M257.23,243c.05.4.09.55.12.56C257.34,243.06,257.32,242.76,257.23,243Z" transform="translate(-20 -78.78)"/></svg>