<?xml version="1.0" encoding="utf-8"?>
<!-- Generator: Adobe Illustrator 20.1.0, SVG Export Plug-In . SVG Version: 6.00 Build 0)  -->
<svg version="1.1" xmlns="http://www.w3.org/2000/svg" xmlns:xlink="http://www.w3.org/1999/xlink" x="0px" y="0px"
	 viewBox="0 0 500 500" style="enable-background:new 0 0 500 500;" xml:space="preserve">
<style type="text/css">
	.st0{fill:#231F20;}
	.st1{fill:none;stroke:#000000;stroke-width:2;stroke-miterlimit:10;}
	.st2{display:none;}
	.st3{display:inline;}
	.st4{fill:#FFFFFF;}
</style>
<g id="Layer_1">
	<g>
		<g>
			<g>
				<g>
					<path class="st0" d="M221.8,372.7l-0.4,0.1C221.6,372.8,221.7,372.8,221.8,372.7z"/>
					<path class="st0" d="M275.7,359l-0.1,0.2C275.7,359.1,275.7,359.1,275.7,359z"/>
					<path class="st0" d="M283.2,342.3l0.3-0.1C283.4,342.2,283.3,342.2,283.2,342.3z"/>
					<g>
						<path class="st0" d="M261.3,347.6c-4.9,1.1-10,2.4-14.9,3.8c-5,1.4-9.9,3-14.7,4.7c-5,1.8-9.9,3.6-14.8,5.4
							c-2.5,0.9-5,1.8-7.4,2.6c-2.5,0.8-5,1.6-7.3,2.1c-1.2,0.3-2.2,0.4-3.6,0.5c-1.3,0.1-2.6,0.1-3.8,0.1c-2.5,0-4.9-0.3-7.4-0.8
							c-5.1-1-10.5-2.6-16-3.9c-11.1-2.6-21.7-5.6-32.8-8.3c-5.4-1.3-10.9-2.2-16.6-2.5c-5.7-0.4-11.6-0.1-17.4,1.2
							c-3.1,0.6-6.1,1.5-9,2.6c-0.7,0.3-2.7,1.4-4.6,2.8c-1.9,1.4-3.5,2.9-4,3.5c-0.2,0.3,0.7-0.1,1.8-0.5c1.1-0.4,2.5-0.9,3-1.1
							c1.9-0.6,4.3-1.4,6.6-1.9c2.3-0.5,4.5-0.9,6-1.1c3-0.5,5.2-0.5,7.4-0.6c2.2,0,4.4,0.1,7.4,0.4c6.3,0.7,12.4,2.2,18.5,3.9
							c6.1,1.7,12.2,3.7,18.2,6c4.9,1.8,9.9,3.4,15,4.9c5.1,1.5,10.2,3.1,15.9,4.4c3.1,0.7,6.4,1.1,9.5,1.2c1.6,0,3.1,0.1,4.8,0
							c1.7-0.1,3.5-0.4,5-0.7c3-0.6,5.8-1.2,8.6-1.9c2.8-0.7,5.6-1.4,8.3-2.1c11.8-3.2,23.7-5.5,35.4-8.5c5.8-1.4,11.8-3.1,17.6-4.8
							c5.8-1.7,11.6-3.4,17.4-5.1c6.8-2,13.6-3.9,20.3-5.9c4.3-1.2,8.5-2.5,12.8-3.9l6.4-2l3.2-1l1.5-0.5c0.2-0.1,0.5-0.1,0.7-0.3
							l0.6-0.5l1.9-1.4l2.9-2.1l2.5-1.8c0.2-0.2,0.5-0.3,0.6-0.5l0.3-0.7l0.5-1.3l1.6-4l1.3-3c1.7-3.9,3.5-7.8,5.5-11.7
							c1.8-3.5,3.7-6.8,5.8-10c1.3-2.1,2.3-3.9,3.2-5.8c1-1.9,1.9-3.8,2.7-5.7c1.7-3.8,3.2-7.6,4.6-11.5l0.5-1.5
							c0.2-0.5,0.3-0.9,0.5-1.6c0.4-1.3,0.8-2.8,0.9-4.3c0.4-3.1,0-6.5-1.1-9.6c-1.2-3.2-3.3-6.2-5.7-8.4c-1.2-1.1-2.4-2.1-3.6-2.9
							l-0.9-0.6l-0.9-0.6c-0.6-0.4-1.3-0.8-2-1.2c-2.7-1.5-5.5-2.4-8.2-2.9c-2.7-0.5-5.2-0.4-7.3,0.1c-2.1,0.5-2.7,1.8-2.8,2.9
							c0.1-0.9,2.6-0.3,4.9,1c2.3,1.3,4.3,3.1,4.5,3.4c1.6,1.3,3.3,2.6,4.7,4c0.7,0.7,1.5,1.5,2.2,2.3c0.7,0.8,1.3,1.6,1.8,2.4
							c1,1.6,1.5,3.1,1.6,4.5c0.1,1.4-0.1,2.7-0.6,3.9c-0.2,0.6-0.5,1.2-0.9,1.9c-0.2,0.3-0.4,0.8-0.6,1.3c-0.2,0.5-0.4,0.9-0.7,1.4
							c-0.9,1.8-1.8,3.7-2.6,5.7c-1.8,4.1-3.6,8.2-5.6,12l-0.7,1.3c-0.3,0.5-0.4,0.7-0.7,1.2c-0.6,1-1.3,2.1-1.9,3.1
							c-1.2,2.1-2.4,4.2-3.5,6.4c-2.2,4.3-4.3,8.6-6.3,13l-1.4,3.3l-1,2.4c0,0.1-0.1,0.3-0.1,0.3l-0.1,0.1l-2.6,1.9l-0.6,0.4
							c0,0,0,0-0.1,0l-2.6,0.9l-5.6,1.8l-11.3,3.6c-7.6,2.4-15.1,4.7-22.8,6.9C280.2,342.9,270.7,345.4,261.3,347.6z"/>
					</g>
				</g>
			</g>
		</g>
		<g>
			<g>
				<g>
					<path class="st0" d="M320.9,266.4l0.2-0.3C321,266.3,320.9,266.3,320.9,266.4z"/>
					<path class="st0" d="M286.1,285.3l0.1-0.2C286.1,285.2,286.1,285.3,286.1,285.3z"/>
					<path class="st0" d="M277.4,299.1l-0.3,0.1C277.3,299.1,277.4,299.1,277.4,299.1z"/>
					<g>
						<path class="st0" d="M297.3,297.4l3.3-0.4c1.1-0.1,2.1-0.2,3.5-0.4c2.6-0.4,5.4-1.1,8.1-2.3c2.7-1.2,5.2-2.8,7.3-4.8
							c1.1-1,2.1-2.1,3-3.2c0.4-0.6,0.9-1.1,1.2-1.7l1-1.5c2.6-4.2,4.7-8.7,6.5-12.9c0.9-2.1,1.8-4.2,2.8-6.2c1-2,2-3.9,3.2-5.9
							c2.5-4.2,5-8.2,7.7-12c1.3-1.9,2.7-3.8,4.2-5.6c0.7-0.9,1.4-1.8,2.2-2.7c0.7-0.8,1.7-1.9,2.5-3.2c1.7-2.5,2.9-5.5,3.1-8.7
							c0.1-3.2-0.7-6.1-1.9-8.7c-0.6-1.3-1.3-2.5-2.1-3.7c-0.8-1.2-1.8-2.3-2.8-3.3c-2.1-1.9-4.2-3.4-6.2-4.8
							c-7.9-5.3-16.3-9.6-23.9-15.2c-2-1.5-4-3-6-4.6c-1-0.7-6.6-3.5-7.9-3.9c-0.6-0.2,2,2.5,2.8,3.3c2.4,2.4,6.1,6.1,8.2,7.8
							c4.1,3.5,6,5.1,10.5,8.2c2.3,1.6,4.6,3.3,6.9,4.9c2.3,1.6,4.6,3.2,6.8,4.8c2.2,1.6,4.3,3.3,5.6,5.1c1.3,1.8,2.3,4.1,2.6,6.3
							c0.1,0.9,0.2,1.7,0.1,2.4c0,0.4-0.1,0.7-0.2,1c-0.1,0.4-0.2,0.7-0.3,1.1c-0.5,1.4-1.4,2.8-2.7,4.2l-1.2,1.3
							c-0.4,0.4-0.8,0.9-1.2,1.4c-0.8,0.9-1.6,1.9-2.4,2.8c-1.5,1.9-3,3.8-4.5,5.7c-3.1,4.1-6.1,8.2-8.9,12.3
							c-1.4,2.1-2.9,4.4-4.1,6.5c-1.3,2.2-2.5,4.3-3.6,6.4c-1.2,2.2-2.5,4.3-4,6.3c-0.7,1-1.4,2-2.2,2.9c-0.4,0.5-0.7,0.9-1.1,1.2
							c-0.3,0.4-0.7,0.7-1,1c-1.4,1.3-3,2.2-4.8,2.9c-0.9,0.4-1.8,0.6-2.8,0.9c-1,0.2-2,0.4-3.2,0.6c-10.3,1.3-20.6,2.7-30.9,3.8
							l-1,0.1l-1-0.1c-0.3,0-0.4-0.1-0.6-0.1l-0.1-0.2c0-0.1-0.1-0.1-0.2-0.3l-0.1-0.2l-0.4-0.6l-0.9-1.3c-1.2-1.7-2.4-3.3-3.6-4.9
							c-2.6-3.3-5.4-6.3-8.5-9.1l-4.4-3.9l-2.2-1.9c-0.4-0.3-0.8-0.7-1.3-1.1c-0.5-0.4-1.1-0.9-1.8-1.3c-1.3-0.8-2.2-1.2-3.1-1.7
							l-1.3-0.6c-0.4-0.2-0.7-0.3-1.1-0.6l-1.7-1l-0.4-0.2c0,0-0.1,0-0.1-0.1l0-0.1l0-0.2l0.1-1c0.1-2,0.2-4,0.2-6
							c0.3-14.5-0.1-28.9-4.6-43c-0.6-1.9-1.3-3.9-2.1-6c-0.8-2.1-1.7-4.1-2.8-6.1c-2-4-4.5-7.5-7.2-9.7c-1.3-1.1-2.6-0.9-3.5-0.4
							c0.7-0.4,1.3,1.6,1.7,3.8c0.3,2.2,0.4,4.6,0.5,4.9c0.6,3.6,1.6,7.4,2.2,11.1c1,7.1,0.8,13.7,1.6,21c0.8,7.7,1.3,15.4,1.1,23.1
							c0,1.9-0.1,3.9-0.2,5.8c0,0.5,0,0.9-0.1,1.5c-0.1,1-0.1,1.9-0.2,2.9l-0.2,3l-0.1,1.5l-0.1,0.7l0,0.4c0.1,0.1,0.2,0.1,0.3,0.2
							c3,1.8,5.9,3.5,8.9,5.3c0.5,0.3,1,0.6,1.6,0.8l1.4,0.7c0.9,0.5,1.7,0.9,2,1.1c0.3,0.2,1.4,1.2,2.5,2.1l3.3,2.9l1.5,1.4
							c0.5,0.4,1,0.9,1.5,1.3c1,0.9,1.9,1.8,2.8,2.8c1.8,1.9,3.5,3.8,5.1,5.9c0.8,1,1.5,2.1,2.3,3.1c0.2,0.3,1,1.5,1.6,2.6l2.1,3.6
							l6.8,0.9l1,0.1l0.9,0.1c0.3,0,0.6,0.1,0.9,0.1l2.5-0.3C280.2,299,288.8,298.3,297.3,297.4z"/>
					</g>
				</g>
			</g>
		</g>
		<g>
			<g>
				<g>
					<path class="st0" d="M465.3,122.8l1.2,0.1C466,122.8,465.6,122.8,465.3,122.8z"/>
					<path class="st0" d="M350.5,129.7l0.2-0.2C350.5,129.6,350.5,129.7,350.5,129.7z"/>
					<path class="st0" d="M326.8,144.7l-0.7,0C326.5,144.8,326.7,144.8,326.8,144.7z"/>
					<g>
						<path class="st0" d="M373.9,143.5c21.2-0.8,42.4-2.5,63.3-5c5.4-0.6,10.7-1.3,16.1-2l8-1.1l2-0.3l1-0.1c0.2,0,0.2,0,0.3-0.1
							l1.2-0.3l0.7-0.1l0.4-0.1l0.2,0c0.1,0,0.1,0.1,0.1,0.1l1,1c0,0.8-0.3,1.8-0.6,2.7l-0.2,0.4c-0.1,0.2-0.1,0.2-0.2,0.5
							c-0.3,0.5-0.6,1-0.9,1.5c-0.6,1-1.3,2-2,2.9c-1.3,1.6-3.2,3.4-5.2,5c-4.3,3.5-9,6.8-13.7,10.1c-2.3,1.7-4.7,3.3-6.9,4.8
							c-1.1,0.7-2.3,1.4-3.3,2c-0.3,0.1-0.5,0.3-0.8,0.4c-0.3,0.1-0.5,0.2-0.8,0.3c-0.6,0.2-1.2,0.4-1.8,0.6
							c-2.3,0.7-4.9,1.2-7.6,1.5c-2.7,0.4-5.6,0.7-8.4,0.9c-5.7,0.5-11.5,1.1-17.2,1.6c-23.3,2.3-45.7,3.5-68.9,5
							c-6.3,0.4-12.6,1.1-18.9,1.7l-9.4,1l-4.7,0.5c-1.2,0.1-1.8,0.3-2.6,0.4l-2.3,0.4l-1.8,0.3l-0.9,2c0,0,0,0.1,0,0.1l0,0
							c0,0,0,0,0.1,0c0.1,0,0.3,0.1,0.4,0.2c0.3,0.1,0.5,0.3,0.8,0.5l0.2,0.1l0.1,0.1c0.1,0,0.1,0.1,0.2,0.1
							c0.1,0.1,0.3,0.3,0.3,0.3c0,0,0.1,0.1,0,0c-0.1-0.1-0.1-0.2-0.1-0.3c0.3,1.9-0.4-2.5-0.3-2.1l0,0l0,0l0,0l-0.1,0l-0.1,0
							c-0.1,0-0.2,0-0.3,0l-0.6,0.1c-0.4,0.1-0.8,0.1-1.2,0.3c-1.6,0.5-2.9,1.8-4,3.1c-1.1,1.4-1.6,2.1-2.4,2.9
							c-0.7,0.8-1.5,1.6-2.4,2.4c-3.4,3.1-7.4,6.1-11.3,9c-4.8,3.6-9.5,6.9-14.5,9.5c-1.2,0.7-4.9,2.8-8.7,4.7
							c-3.8,1.9-7.8,3.4-9.1,4c-0.6,0.3,1.2,0.1,3.4-0.4c2.2-0.4,4.9-1.1,6-1.5c3.8-1.1,8.5-2.8,12.8-5c4.3-2.2,8.2-4.8,10.8-6.5
							c5.2-3.6,9-6.2,12.8-9.2c1.9-1.5,3.7-3.1,5.5-5.2c0.4-0.5,0.8-1,1.1-1.3c0.3-0.4,0.7-0.7,1.2-1c0.4-0.3,1-0.5,1.6-0.4l0.4,0
							c0.1,0,0.1,0,0.3,0c0.3-0.1,0.6-0.1,0.8-0.3c0.6-0.3,1-0.7,1.2-1.1c0.2-0.3,0.4-0.7,0.5-0.9c0.1-0.2,0.1-0.3,0.2-0.5l-1.6,1.4
							l2.5-0.4l1.2-0.2c0.4-0.1,0.6-0.1,1.1-0.1c1.7-0.1,3.3-0.2,5-0.3c3.3-0.2,6.6-0.4,9.9-0.6c6.6-0.4,13.1-0.9,19.7-1.2
							c13.1-0.6,26.2-1,39.5-1.3c10.8-0.2,21.6-0.9,32.6-1.7c5.5-0.4,11-0.8,16.6-1.3c2.8-0.3,5.6-0.5,8.5-1c1.5-0.2,3-0.5,4.5-0.9
							c0.8-0.2,1.5-0.4,2.3-0.7c0.8-0.3,1.4-0.5,2.3-0.8c3.4-1.5,5.9-3.2,8.5-4.8c2.5-1.6,5-3.3,7.4-4.9c2.4-1.6,4.9-3.3,7.4-5
							c2.5-1.8,4.9-3.6,7.4-5.7c1.2-1.1,2.5-2.2,3.8-3.7c1.1-1.3,2.2-2.7,3.1-4.1c0.2-0.4,0.5-0.7,0.7-1.1l0.3-0.6
							c0.1-0.2,0.2-0.3,0.4-0.6c0.6-1.1,1.2-2.3,1.7-3.5c1-2.4,1.8-4.8,2.3-7.2c0.2-1.1,0.1-2.3-0.1-3.2c0-0.2-0.1-0.4-0.2-0.7
							c0-0.1-0.1-0.2-0.1-0.3l-0.2-0.4l-1-1.4l-1.9-2.8l-0.5-0.7c-0.2-0.2-0.3-0.6-0.6-0.5l-1.7-0.1l-6.9-0.4l-3.5-0.2
							c-0.3,0-0.6-0.1-0.9,0l-0.7,0.1l-1.1,0.1c-24.9,2.4-49.9,3.4-74.9,4.8c-12.3,0.7-24.6,1.3-37,1.9c-12.4,0.6-24.7,1.2-37.1,1.6
							c-7.2,0.3-14.4,0.5-21.6,0.7c-7.2,0.2-14.4,0.4-21.5,0.3c-2.2,0-4.4-0.1-6.4-0.2l-1.2-0.1l-1.7-0.2c-1.2-0.2-2.4-0.3-3.5-0.5
							c-4.8-0.6-9.5-0.9-14.3-1c-9.6-0.2-19.2,0.6-28.7,2.3c-18.9,3.6-37,11.4-52.7,22.5c-1.8,1.2-3.5,2.5-5.2,3.8l-1.2,0.9
							l-1.1,0.8c-0.7,0.5-1.5,1-2.3,1.5c-3.2,2.1-6.7,4-10.2,6c-7,3.9-14.3,7.5-21.5,11.2c-7.2,3.7-14.5,7.4-21.8,11.1
							c-7.3,3.7-14.6,7.6-21.8,11.5c-15.3,8.3-36.5,18.7-48.6,27.6c-2.9,2.2-3.4,3.8-2.9,4.8c-0.4-0.9,4.2-2.4,9.1-3.8
							c4.9-1.4,10-2.7,10.6-3c8.1-2.7,16.8-6.4,25.1-9.7c8.1-3.2,15.8-6.3,23.5-9.6c7.7-3.2,15.5-6.7,23.7-10.8
							c8.6-4.3,17.2-8.7,25.7-13.3c4.3-2.3,8.5-4.7,12.8-7.2c2.1-1.3,4.3-2.7,6.5-4.2l1.7-1.2l1.4-1.1c0.9-0.7,1.8-1.4,2.8-2.1
							c14.6-10.7,31.4-18.2,49.3-21.5c3.8-0.7,7.6-1.2,11.5-1.5c3.9-0.3,7.7-0.5,11.6-0.5c3.9,0,7.8,0.2,11.6,0.5
							c1.9,0.2,3.9,0.4,5.8,0.6l3,0.4l2,0.2l1.7,0.1c4.5,0.2,8.6,0.1,12.7,0c4.1-0.1,8.3-0.2,12.4-0.3l24.6-0.8
							C333.3,144.7,353.6,144.2,373.9,143.5z"/>
					</g>
				</g>
			</g>
		</g>
		<g>
			<g>
				<path class="st1" d="M287.7,189"/>
			</g>
		</g>
		<g>
			<g>
				<g>
					<path class="st0" d="M286.6,227.5L286.6,227.5C286.6,227.5,286.6,227.5,286.6,227.5z"/>
					<path class="st0" d="M290.7,228.5l-0.2,0.1C290.6,228.5,290.6,228.5,290.7,228.5z"/>
					<path class="st0" d="M306.9,227.5l0,0.1C306.9,227.6,306.9,227.5,306.9,227.5z"/>
					<g>
						<path class="st0" d="M305.2,221.5l-0.1-0.2l-0.2-0.2l-0.4-0.4l-0.5-0.4l-0.6-0.3l-0.6-0.3c-0.2-0.1-0.5-0.2-0.8-0.2l-0.9-0.2
							l-1-0.1c-2.5-0.4-5.1-0.6-7.5-0.8l-1.8-0.1c-0.4,0-0.7,0-1,0.1l-2,0.2c-0.7,0-1.2,0.1-1.7,0.1c-0.5,0-1.1-0.1-1.6-0.2
							c-2.3-0.6-4.4-1.7-6.8-2.7c-2.3-1-4.3-2.6-6-4.4c-1.7-1.7-3.9-3-5-5.3c-0.3-0.6-0.4-1.2-0.6-1.8c-0.1-0.3-1.3-1.4-1.8-1.6
							c-0.2-0.1-0.4,1.1-0.5,1.4c-0.1,0.5-0.1,1.2-0.1,1.9c0,0.6,0.1,1.3,0.2,1.6c0.2,0.8,0.4,1.3,0.6,1.9c0.2,0.5,0.5,1.1,0.9,1.7
							c1.8,2.8,4,5.1,6.1,7.9c1.7,2.3,4.5,3.4,6.9,4.9c1.3,0.8,2.7,1.7,4.2,2.3c0.7,0.4,1.5,0.6,2.3,0.9l0.6,0.2l0.5,0.1
							c0.3,0.1,0.7,0.2,1,0.2c0.4,0.1,0.7,0.1,1.1,0.2l0.5,0.1c0.2,0,0.4,0.1,0.4,0.1c0.1,0.1,0.2,0.2,0.3,0.2
							c0.1,0.2,0.1,0.3,0.3,0.3c0.2,0,0.5-0.1,0.9,0c0.3,0.1,0.4,0.5,0.1,0.5c-0.3,0.1-0.6,0.2-0.9,0.3l-0.1,0
							c-0.1,0-0.1,0.1-0.2,0.1l-0.1,0.1l0,0l-0.1,0.1l-2.2,2.1c-1.7,1.6-3.3,3.4-4.8,5.3c-1.4,1.8-2.8,3.6-3.9,5.4
							c-1.2,1.7-2.1,3.4-2.8,5.1c-0.7,1.8-1.8,3.9-0.9,6.5c0.2,0.6,1,1.3,1.7,1.8c-1.2-0.8,2.5-1,2.7-1.1c1.2-0.4,2.1-1.2,3.1-1.9
							c2-1.3,4.1-2.4,5.3-4.1c1.3-1.8,2.3-3.4,3.4-4.8c1.1-1.4,2.3-2.7,3.8-4.1l2.1-2c1.4-1.3,2.7-2.5,5-3.4
							c2.4-0.9,3.5-2.4,4.1-3.4c0.6-1,0.8-1.7,1-2.2c0.1-0.1,0.1-0.3,0.2-0.6c0.1-0.3,0.1-0.6,0.2-1c0.1-0.8,0-1.7-0.2-2.5
							c-0.2-0.8-0.5-1.6-0.7-1.9C306,222.4,305.6,221.9,305.2,221.5z"/>
					</g>
				</g>
			</g>
		</g>
	</g>
</g>
<g id="Layer_2" class="st2">
	<g class="st3">
		<g>
			<path class="st4" d="M64,250.8c0-33.4,0-66.7,0-100.1c122.2,0,244.5,0,366.7,0c-1.2,1-2.5,1.2-4,0.6c-0.6-0.3-1,0-1.1,0.6
				c-0.1,0.3-0.2,0.6-0.3,1c-0.8-0.1-1.7-0.1-2.4-0.4c-2.2-1.2-4.5-0.9-6.9-0.6c-2.4,0.3-4.9,0.6-7.3,0.9c-0.6,0.1-1.2,0.3-1.8,0.5
				c-0.6,0.2-1.3,0.5-1.9,0.5c-3.4,0.1-6.8-0.1-10.2,0.1c-3.4,0.1-6.7,0.6-10.1,0.9c-2.8,0.3-5.6,0.6-8.4,0.8
				c-1.6,0.1-3.2,0.1-4.8,0.1c-0.3,0-0.5,0-0.8,0c-4.1,0.3-8.2,0.7-12.3,1c-0.8,0.1-1.7,0-2.3,0.3c-2,1.1-4.2,0.7-6.3,0.8
				c-1.2,0-2.5,0.4-3.7,0.6c-0.7,0.1-1.5,0.5-2.2,0.5c-9.2,0-18.3,0-27.5,0c-0.5,0-1,0.1-1.5,0.2c-1.1,0.2-2.1,0.7-3.2,0.7
				c-12.6,0.1-25.2,0-37.8,0c-0.7,0-1.5-0.1-2,0.3c-1.5,1.1-3.2,0.9-4.8,0.8c-2.3-0.1-4.6-0.4-6.9-0.4c-2.9,0-5.8,0.3-8.7,0.4
				c-0.3,0-0.6-0.1-0.8,0.1c-0.3,0.3-0.7,0.6-0.8,1c0,0.1,0.5,0.6,0.8,0.7c0.6,0.2,1.3,0.3,2,0.4c0,0.1,0,0.2,0,0.3
				c-1.6,0.2-3.2,0.5-4.9,0.7c0.1-1.2-0.2-2.5-1.9-2.9c-1.7,0.9-2.6,0.9-4.2-0.1c-0.3-0.2-0.7-0.2-1-0.3c-0.9-0.1-1.9,0.4-2.5-0.8
				c-0.1-0.1-0.4-0.2-0.5-0.1c-1.8,0.3-3.7-0.8-5.3,0.8c-0.1,0.1-0.4,0.1-0.6,0.1c-0.8,0-1.5-0.1-2.3,0c-0.9,0.1-1.9,0-2.5,0.4
				c-1.4,1.1-2.9,0.8-4.3,0.4c-1.2-0.3-2.3-0.2-3.4,0.5c-0.4,0.2-0.8,0.5-1.2,0.5c-2.5,0-4.8,0.6-6.9,2.1c-0.2,0.1-0.5,0-0.7,0.1
				c-0.3,0.1-0.7,0.2-1,0.3c-0.7,0.3-1.4,0.5-2.1,0.8c-1.5,0.5-3.1,0.8-4.6,1.4c-1.2,0.5-2.3,1.2-3.4,1.8c-2.5,1.3-5.1,2.4-7.6,3.9
				c-2.2,1.3-4.4,2.1-6.9,1.8c-0.4,0-0.9,0.3-1.3,0.4c0,0.2,0,0.3,0.1,0.5c0.6,0.2,1.2,0.3,2.1,0.5c-0.6,0.4-1,0.7-1.5,0.9
				c-0.9,0.4-2,0.7-2.8,1.2c-2.4,1.5-4.8,3.1-7.1,4.7c-0.8,0.6-1.6,1.2-2.4,1.8c-2.5,1.5-5.1,3.1-7.7,4.5c-0.9,0.5-1.9,0.8-2.8,1.3
				c-0.7,0.3-1.4,0.6-2,1c-0.8,0.6-1.5,1.3-2.3,1.9c-3.4,2.1-7,4-10.2,6.3c-3.5,2.5-7,4.7-10.8,6.6c-0.4,0.2-0.7,0.6-1.1,0.9
				c-0.3,0.3-0.6,0.6-1,0.8c-7.2,4.1-14.2,8.4-21,13.1c-3.1,2.2-6.2,4.5-9.4,6.4c-2,1.2-2.8,2.6-2.4,4.8c0.1,0.3,0,0.6,0,0.8
				c0.2,0.6,0.3,1.3,0.8,1.6c0.7,0.5,1.5,0.2,2.3-0.4c1.4-1.1,3-2.2,4.5-3.1c2.4-1.5,5-2.9,7.4-4.4c2.4-1.5,4.7-3.1,7.2-4.6
				c0.7-0.4,1.6-0.6,2.4-1c0.7-0.4,1.4-0.9,2.1-1.3c0.2-0.1,0.3-0.5,0.6-0.6c1.5-0.9,3-1.6,4.4-2.5c2.7-1.7,5.7-3,8.1-5.3
				c0.6-0.6,1.5-0.9,2.3-1.3c1.6-0.8,3.3-1.4,4.8-2.4c1.6-1.1,3-2.5,4.5-3.7c0.2-0.2,0.5-0.2,0.8-0.3c1-0.3,2.2-0.4,3-0.9
				c0.8-0.5,1.6-1.4,2-2.3c0.3-0.8,0.6-1.4,1.5-1.7c0.5-0.2,0.9-0.6,1.4-0.9c1.7-1,3.4-2.1,5.3-2.8c1-0.4,2.1-0.2,3.2-1.1
				c2.3-1.7,5-2.8,7.4-4.3c1.3-0.8,2.7-1.5,3.8-2.5c2.5-2.2,5.5-3.5,8.6-4.5c0.5-0.2,0.9-0.5,1.3-0.8c1.9-1.1,3.8-2.2,5.7-3.2
				c0.3-0.2,0.7-0.3,1.1-0.3c0.7-0.1,1.5-0.3,1.7,0.8c0,0.2,0.4,0.4,0.6,0.5c0.1,0,0.4-0.2,0.4-0.3c0-0.2,0-0.6-0.1-0.8
				c-0.1-0.2-0.4-0.3-0.4-0.3c1-0.8,2-1.6,3.1-2.4c0.2-0.2,0.5-0.2,0.8-0.3c0.8-0.2,1.5-0.4,2.3-0.5c2-0.4,4-0.8,6-1.2
				c0.8-0.2,1.8-0.2,2.5-0.6c2.2-1.4,4.4-1.8,6.9-0.6c1.2,0.6,2.6,0.3,3.9-0.7c-0.7-0.2-1.2-0.4-1.8-0.5c1-1,12.5-1.8,13.9-1
				c-1,0.6-2.4-0.4-3.3,1.1c0.8,0.1,1.4,0.2,1.9,0.2c2,0,3.9,0,5.9,0.1c0.6,0,1.2,0.2,1.6,0.5c0.8,0.5,1.6,0.5,2.5,0.2
				c0.9-0.3,1.9-0.6,2.8-0.7c4.8-0.2,9.6,0.6,14.2-1.2c0.6-0.2,1.3-0.7,1.6-1.2c0.5-1,1.2-1.3,2.3-1.2c1.7,0.2,3.3,0.2,5,0.2
				c1.3,0,2.6-0.5,3.9-0.5c5.1-0.1,10.2,0,15.4,0c1.5,0,3-0.5,4.6-0.7c1.1-0.2,2.1-0.4,3.2-0.4c6.7-0.1,13.3-0.1,20-0.1
				c0.3,0,0.5-0.1,0.8-0.2c0.6-0.2,1.2-0.7,1.9-0.7c7.2-0.1,14.4,0.1,21.6-0.1c4.6-0.1,9.2,0.4,13.8-0.8c3.4-0.9,7.1-0.6,10.7-0.9
				c3.3-0.2,6.5-0.5,9.8-0.7c1.1-0.1,2.1-0.3,3.2-0.4c2.6-0.1,5.3,0.1,7.8-0.4c2.9-0.6,5.7-0.6,8.6-0.7c0.1,0,0.2,0,0.4,0
				c0.1,0,0.4-0.1,0.4-0.2c0.5-1,1.4-0.8,2.2-0.8c2.6-0.1,5.3,0.4,7.7-0.9c0.5-0.3,1.2-0.2,1.8-0.2c1.1,0,2.2,0.1,3.2,0
				c0.7-0.1,1.5-0.3,2.2-0.7c1.2-0.6,2.9-0.3,3.7,0.6c0.3,0.3,1,0.5,1.5,0.5c0.8,0,1.6-0.4,2.5-0.4c3.3-0.1,6.6-0.1,9.8-0.1
				c0.6,0,1.2,0.1,1.7,0.1c0.3,1.2,0.6,2.3,0.9,3.5c-0.1,0.1-0.4,0.4-0.5,0.7c-0.5,1.2-1.1,2.4-1.5,3.6c-1.1,2.8-2.9,5.2-5.1,7.3
				c-2,2-3.9,4.2-5.8,6.4c-1.7,1.9-3.4,3.7-5.1,5.5c-0.2,0.2-0.2,0.4-0.3,0.6c-0.3,1.2-1.1,2.2-2.3,2.6c-2.3,0.8-3.9,2.7-5.9,3.9
				c-0.5,0.3-1.2,0.6-1.8,0.7c-2.3,0.1-4.6,0-6.8,0.1c-0.4,0-0.9,0.3-1.3,0.4c-0.5,0.2-1,0.6-1.6,0.7c-1.1,0.1-2.1-0.1-3.1-0.2
				c-0.4,0.3-0.8,0.7-1.2,0.9c-0.6,0.2-1.3,0.2-1.9,0.3c-3,0.1-5.9-0.1-8.9,0.9c-2.2,0.7-2.9-0.1-3-2.4c-0.1-2.3,0.4-4.8-1.2-6.9
				c-0.6-0.7-1-0.9-1.6-0.2c-1.4,1.6-1.5,3.5-1.1,5.5c0.2,1,0.4,2.1,0.4,3.2c0,1.4-0.3,1.7-1.7,1.7c-1.8,0-3.5,0-5.3,0
				c-0.4,0-1,0-1.1,0.2c-0.8,1-1.8,0.8-2.8,0.9c-1.1,0.1-2.3,0-3.3,0.8c-0.4,0.3-1,0.3-1.5,0.3c-1.4,0-2.7,0-4.1,0
				c-0.7,0-1.6-0.1-2.1,0.3c-1.5,1.1-3.1,0.8-4.7,0.9c-0.7,0.1-1.4,0.5-2.2,0.8c-0.7,0.3-1.4,0.8-2.1,0.8c-2.9,0.1-5.8,0.1-8.6,0
				c-1.6,0-1.9-0.3-1.8-1.9c0.1-2.5-0.5-4.6-1.8-6.7c-0.7-1-1.6-1.5-2.6-1.1c-1.1,0.4-2.1,1.1-3.1,1.8c-0.2,0.1-0.2,0.7-0.2,1.1
				c0,0.6,0.3,1.3,0.1,1.9c-0.3,1-0.3,1.8,0.5,2.6c0.6,0.7,0.3,2-0.5,2.3c-1.9,0.6-3.5-0.6-3.5-2.2c0-1.4,0-2.7-0.1-4.1
				c-0.1-1.1-0.7-1.6-1.8-1.2c-1.8,0.6-4.5,4-4.8,5.8c-0.1,0.4-0.9,1.2-1.1,1.1c-2.9-1.3-5.9-1-9-1c-0.3,0-0.8,0-0.8,0.1
				c-0.3,1.2-1.3,0.7-2,0.9c-1.5,0.4-2.9,1-4.3,1.4c-0.8,0.2-1.6,0.3-2.4,0.4c-0.1-1.9-0.1-1.8,1.5-1.8c0.7,0,1.5-0.4,2.2-0.6
				c0-0.1-0.1-0.2-0.1-0.3c-0.7-0.2-1.5-0.5-2.4-0.8c0.3-0.5,0.5-1,0.8-1.3c0.9-0.9,1.3-2,1.3-3.3c0-0.7,0-1.4,0-2.2
				c-0.1-1,0-1.8,1.3-2c0.2,0,0.4-0.4,0.6-0.6c-0.3-0.1-0.5-0.4-0.8-0.4c-0.5-0.1-1,0-1.6-0.1c-1.9-0.3-3.3,0.4-4.5,1.8
				c-0.5,0.6-1.3,1.1-2,1.4c-1.2,0.5-1.7,1.4-1.9,2.6c-0.1,0.8-0.2,1.6-0.2,2.4c-0.4,4-2.3,7.2-5.1,9.9c-1,1.1-2.2,2-3.2,3
				c-1.5,1.4-2.7,3-4.8,3.7c-0.3,0.1-0.7,0.3-0.9,0.6c-2.5,2.5-6.2,3.4-8.6,5.9c-0.2,0.2-0.4,0.3-0.6,0.4c-1.7,0.7-3.1,1.8-4.4,3
				c-0.8,0.7-2,1-3.1,1.4c-0.9,0.3-1.4-0.3-1.6-1.1c-0.2-0.6-0.3-1.2-0.6-1.8c-0.9-1.6-0.6-3.4-0.1-5c0.5-1.6,0.7-1.7-0.7-2
				c-0.5-1.1-1-1.9-1.4-2.9c-0.8-2-1.4-4-2.4-5.9c-1-2.1-2.6-2.6-4.8-2.1c-0.8,0.2-1,0.6-1.2,1.4c-0.8,3.3,0.2,6.7,0.1,10
				c0,0.9,0.4,1.8,0.6,2.7c0.1,0.5,0.3,1.1,0.4,1.7c-1.1,0.1-2.1,0.1-3,0.3c-0.2,0-0.4,0.4-0.6,0.6c0.2,0.2,0.4,0.4,0.6,0.4
				c0.3,0.1,0.7,0.1,1.1,0.1c1.2,0.1,2.4,0.1,3.6,0.2c0.7,0.1,1.1,0.3,1.1,1.2c0,1.1,0.3,2.2,0.7,3.2c0.7,1.7,0.4,2.7-1.1,3.6
				c-0.9,0.5-1.3,2-0.9,3c0.2,0.4,0.2,1.1,0,1.5c-0.7,1.9,0.7,4.2,2.7,4.4c1.6,0.2,1.6,0.2,1.7,1.9c0,0.4,0,0.8,0,1.2
				c0.1,0.6,0.2,1.2,0.6,1.6c0.7,0.7,0.6,1.2,0,1.9c-0.4,0.5-0.6,1.6-0.3,2c1.1,1.4,0.9,2.9,1,4.5c0,0.5,0.2,1,0.4,1.5
				c0.2,0.5,0.5,0.9,0.5,1.4c0.1,5.2,0.1,10.3,0.1,15.5c0,1.5,0.1,2.9,1.4,3.9c0.3,0.2,0.3,0.6,0.5,0.9c0.2,0.3,0.5,0.7,0.8,0.9
				c1.1,0.6,2.4,0.9,3.2,1.8c2.3,2.4,4.4,5.1,6.6,7.6c1.9,2.2,3.9,4.5,5.9,6.6c0.8,0.8,1.5,1.6,1.7,2.8c0.1,0.6,0.7,1.1,1.2,1.6
				c0.6,0.7,1.3,1.4,1.9,2.1c0.8,0.8,1.6,1.6,2.4,2.4c0.9,0.9,1.8,1.7,2.7,2.6c0.6,0.6,1.3,0.5,1.9-0.1c0.2-0.2,0.5-0.6,0.8-0.7
				c2.7-0.5,5.4-1,8.1-1.5c1.9-0.4,3.8-0.8,5.6-1.3c1.3-0.3,2.5-0.6,3.8-0.9c0.8-0.2,1.5-0.4,2.3-0.7c0.5-0.1,1-0.3,1.5-0.4
				c2.8-0.3,5.8,0.7,8.4-1.1c0.1-0.1,0.2,0,0.4,0c2.4-0.6,4.8-1.1,7.1-1.8c1-0.3,1.9-1,2.6-1.8c2-2,3.4-4.4,4.4-7.1
				c0.5-1.2,1.1-2.4,1.8-3.5c1-1.5,1.7-3.1,1.2-5c-0.2-1,0.2-1.3,0.9-1.8c0.4-0.3,0.8-0.8,1.1-1.2c0.3-0.4,0.5-0.8,0.8-1.2
				c0.4-0.5,0.9-0.8,1.2-1.3c1.2-1.9,2.3-3.8,3.4-5.6c0.2-0.3,0.5-0.4,0.7-0.7c1-1,2-1.8,2.8-2.9c1.3-1.8,1.1-2.1-0.9-2.7
				c-0.1,0-0.1-0.1-0.1,0c0.9-1.5,1.8-2.9,2.5-4.3c0.2-0.5,0-1.2,0-1.8c0-0.3-0.1-0.5-0.2-0.8c0.3,0.1,0.7,0.1,0.9,0.2
				c0.7,0.7,1.5,0.8,2.5,0.8c2.6,0,5.3-0.4,7.6,1.2c0.2,0.1,0.5,0.2,0.7,0.2c1.2-0.1,2,0.5,2.8,1.3c0.6,0.5,1.2,1,1.9,1.4
				c2,1.3,3.7,3,5.2,4.7c-1.2,1.5-1.9-0.3-2.9-0.4c0.1,0.8,1.9,2.2,2.7,2.2c0.8,0,1,0.3,1,1.1c0,0.9-0.2,2,0.2,2.6
				c1.2,1.7,0.9,3.4,0.8,5.2c0,0.7-0.3,1.4-0.7,1.9c-1.4,1.7-2.2,3.6-2.7,5.7c-0.4,1.5-0.7,3-1.3,4.3c-1.1,2.3-2.3,4.5-2.8,7.1
				c-0.4,2.1-1.2,4.3-3.4,5.5c-1.1,0.6-2.2,1.4-3.2,2.2c-0.4,0.3-0.7,0.8-0.8,1.3c-0.5,3.3-0.6,6.7-1.9,9.8c-1.2,3-2,6.2-3.1,9.4
				c-0.2,0.7-1.2,0.9-1.5,0.4c-0.5-0.8-0.9-1.7-1.3-2.7c-0.5-1.2-0.9-2.5-1.5-3.7c-1.2-2.3-2.5-4.6-3.8-6.9c-0.6-1.1-1.2-2.4-2-3.4
				c-1.1-1.3-2.4-2.5-3.7-3.7c-0.3-0.2-0.8-0.3-1.2-0.2c-1,0.3-2,0.7-3.2,1.1c-0.2,0.8-0.4,1.7-0.6,2.7c-0.3,1.2,0,2.4,0.9,3
				c0.9,0.7,1.7,1.4,2.4,2.2c1.1,1.3,2.9,2.1,2.6,4.3c-0.1,0.5,0.3,1.1,0.5,1.6c1.3,3.2,3.4,5.7,5.7,8.3c0.3,0.3,0.4,0.8,0.6,1.2
				c-0.4,0.2-0.9,0.3-1.3,0.5c-1.2,0.5-2.7,0.9-3.7,1.7c-1,0.9-1.9,1.8-3.4,1.6c-0.3,0-0.6,0.1-0.9,0.2c-2.8,1-5.7,2-8.5,3.1
				c-0.4,0.2-0.7,0.6-1,1c-0.2,0.2-0.4,0.3-0.5,0.5c-0.2-0.2-0.3-0.4-0.5-0.6c-0.1-0.2-0.1-0.3-0.2-0.6c-0.7,0.1-1.4,0.1-2,0.3
				c-0.8,0.3-1.4,1.1-2.1,1.3c-2.2,0.8-4.5,1.5-6.7,2.2c-1.8,0.6-3.6,1.4-5.5,2.1c-1,0.4-2.3-0.2-2.9,1.2c-0.1,0.1-0.6,0-0.9,0.1
				c-0.8,0.2-1.5,0.4-2.2,0.7c-0.4,0.1-0.7,0.3-1.1,0.4c-1.3,0.4-2.7,0.8-4,1.2c-3.2,1-6.3,2.6-9.8,2.8c-0.3,0-0.6,0.2-0.9,0.3
				c-1.1,0.2-2.1,0.4-3.2,0.7c-0.5,0.1-1,0.2-1.4,0.4c-0.5,0.2-1,0.6-1.4,0.6c-1.1-0.2-2.2-0.5-2.8,0.9c-0.1,0.2-0.5,0.2-0.8,0.2
				c-2.7,0.3-5.3,1-7.6,2.5c-0.4,0.2-0.8,0.4-1.2,0.4c-0.7-0.1-1.5-0.2-1.9-0.6c-0.7-0.7-0.3-3.2,0.4-4.1c-0.8-1.4-1.4-1.7-2.9-1.4
				c-1.7,0.4-3.4,0.9-5,1.5c-1.2,0.5-2.4,1.1-3.5,1.9c-1.1,0.8-2,1.8-3,2.8c-1.1,1.1-2.4,1.9-4,2.2c-0.6,0.1-1.2,0.5-1.8,0.7
				c-3.5,1-6.9,2.4-10.5,2.8c-4.3,0.5-8.7,0.3-13,0.1c-1.7-0.1-3.8,0.8-5.2-1c-0.1-0.2-0.6,0-0.9,0c-1.5-0.1-3,0-4.4-0.3
				c-3-0.6-6-1.6-9.2-1.4c-0.1,0-0.4,0-0.4-0.1c-1-1-2.4-0.8-3.6-1.1c-1.2-0.2-2.3-0.8-3.4-0.9c-1.4-0.2-2.8,0.2-4-0.9
				c-0.2-0.2-0.6-0.1-0.9-0.1c-1.1-0.1-2.3,0.1-3.2-0.4c-2-1.2-4.2-0.9-6.3-1.6c-2.8-0.9-5.9-0.6-8.7-1.8c-0.4-0.2-0.9-0.2-1.3-0.2
				c-1.9,0.2-3.7-0.3-5.5-0.9c-0.7-0.2-1.6-0.3-2.3-0.3c-2,0.1-3.9,0.3-5.7-0.7c-0.3-0.2-0.7-0.2-1-0.2c-4.5,0-9,0-13.6-0.1
				c-3.5-0.1-6.5,0.9-9.3,2.8c-1.2,0.8-2.5,1.4-3.7,2.1c-0.8,0.4-1.6,0.8-2.4,1.3c-0.2,0.1-0.3,0.5-0.3,0.7c0,1.4,0,2.8,0,4.2
				c0,0.2,0.1,0.5,0.3,0.6c1.3,0.7,2.5,1.6,4.1,1.5c1.4-0.2,3,0,4.2-1.1c0.4-0.4,0.8-0.8,1.2-1c2.1-0.9,4.3-1.7,6.7-1.7
				c1.3,0,2.6,0.1,4,0c0.9,0,1.7-0.3,2.6-0.4c0.5-0.1,1-0.2,1.5-0.1c2.4,0.3,4.8,0.7,7.2,0c0.5-0.1,1,0.2,1.5,0.4
				c0.6,0.2,1.1,0.6,1.6,0.7c0.8,0.1,1.7,0,2.5,0.1c0.4,0,0.8,0.3,1.1,0.6c1,1.3,1.6,1.4,3,0.6c0.2-0.1,0.4-0.2,0.5-0.2
				c1.7,0.1,3.5-0.1,4.9,0.5c1.5,0.6,2.9,0.5,4.4,0.7c2.4,0.3,4.8,1.2,7.3,1.3c1.9,0.1,3.9,0.8,5.8,1.4c1.2,0.3,2.4,0.9,3.6,1.1
				c1.7,0.2,3.4,0.2,5,0.1c4.3-0.4,8.3,0.6,12.4,1.5c0.2,0,0.4,0.2,0.7,0.3c0.6,0.2,1.2,0.4,1.8,0.4c3.4,0.1,6.8-0.3,10.1,0.9
				c0.2,0.1,0.6-0.1,0.8-0.3c0.7-0.7,1.2-0.8,1.8,0c0.2,0.2,0.5,0.4,0.7,0.6c-54.6,0-109.3,0-163.9,0c0-38.2,0-76.3,0-114.5
				c0.7,0.1,1.4,0.5,2.1-0.3c0.3-0.3,0.9-0.6,1.4-0.6c0.7,0,1.4,0.3,2.1,0.3c1,0,2.2,0.1,2.8-0.4c1.7-1.3,3.5-1.6,5.5-1.5
				c0.6,0,1.1-0.5,1.7-0.8c0.8-0.4,1.6-0.9,2.5-1.3c0.9-0.4,1.9-0.7,2.8-1.2c3-1.7,6-3.5,8.9-5.4c1.4-0.9,2.5-2,3.8-3
				c0.2-0.2,0.6-0.2,0.8-0.4c0.7-0.5,1.9-0.9,2-1.4c0.3-1.7,0.1-3.5,0.1-5.2c-2.3,0.4-5.7,2.9-6.2,4c-1.2,0.6-2,1-2.9,1.4
				c-0.7,0.4-1.4,0.7-2.1,1.1c-1.3,1-1.9,1.1-3.3,0.1c0.3,1.9-1,2.5-2.4,3c-1.1,0.5-2.3,1-3.2,1.7c-1.2,1-2.4,1.7-4,1.7
				c-0.3,0-0.7,0.1-0.9,0.3c-1.7,1.3-3,3-5.3,3.3c-0.3,0-0.6,0.2-0.9,0.4c-1.2,0.8-2.7,1-3.1,2.7c0,0.2-0.5,0.3-0.8,0.4
				C64.9,250.8,64.5,250.8,64,250.8z"/>
			<path class="st4" d="M441.7,154.5c0,70.6,0,141.1,0,211.7c-70.2,0-140.5,0-210.7,0c0.1,0,0.1-0.1,0.2-0.1c4-1.3,8.4-0.4,12.3-2.3
				c0.1,0,0.2,0,0.2,0c0.8-0.4,1.5-0.7,2.3-1.1c0.2-0.1,0.4-0.4,0.6-0.5c2.7-1,5.4-2,8.1-2.9c0.5-0.2,1.3-0.1,1.8,0.2
				c2.1,1,4.2,1,6.4,0.2c2.3-0.9,4.6-1.8,6.9-2.6c0.8-0.3,1.8-0.3,2.6-0.5c0.4-0.1,0.8-0.3,1.2-0.4c0.5-0.3,0.9-0.8,1.4-0.8
				c0.8-0.1,1.6,0.2,2.5,0.3c0.6,0.1,1.1,0.1,1.2-0.7c0-0.2,0.3-0.6,0.5-0.7c1.8-0.4,3.6-0.8,5.4-1.2c0.7-0.1,1.3-0.3,2-0.5
				c4.8-1.5,9.5-3.1,14.3-4.6c2.3-0.7,4.8-1.3,7.1-2.1c2.2-0.7,4.3-1.6,6.6-1.7c0.2,0,0.6-0.1,0.6-0.2c0.3-1,1.2-0.7,1.9-0.8
				c0.4-0.1,0.8-0.3,1.1-0.5c0.2-0.1,0.4-0.5,0.6-0.4c1.8,0.3,3.3-0.9,5-1.3c0.6-0.2,1.2-0.5,1.8-0.7c1.5-0.4,2.7-1.7,4.4-1.8
				c0.6,0,1.3-0.5,1.9-0.7c0.8-0.2,1.5-0.6,2.3-0.6c1.7,0.1,2.8-1.1,4.2-1.6c0.9-0.4,1.8-0.8,2.6-0.5c1.2,0.5,2.2-0.4,3.3-0.1
				c0.1,0,0.3-0.3,0.5-0.4c0.2-0.2,0.5-0.4,0.7-0.5c1.2-0.3,2.4-0.5,3.6-0.7c2.2-0.4,2.6-0.9,2.1-2.9c0,0,0.1-0.1,0.2-0.3
				c0.2,0.2,0.4,0.5,0.6,0.7c0.3,0.2,0.6,0.4,1,0.6c0.1-0.4,0.4-0.9,0.3-1.2c-0.3-1-0.7-2-1.2-2.8c-0.6-0.9-0.3-1.2,0.3-1.9
				c1.4-1.6,3.2-2.7,4.2-4.7c2.6-5.2,5.7-10.1,8.7-15.2c0.1-0.2,0.3-0.3,0.4-0.5c0.3-0.5,0.7-1,0.9-1.5c0.8-2.8,1.5-5.6,3.3-8
				c0.5-0.6,1.3-1.2,2.1-1.4c1-0.3,2.2-0.2,3.5-0.4c-0.3-2.5-0.5-5-0.9-7.5c-0.1-0.6-0.4-1.3-0.7-1.9c-0.6-1.2-1-2.3-0.6-3.7
				c0.2-0.8,0.3-1.7,0.3-2.6c0-1.1,0.1-2.1,1.2-2.8c0.3-0.2,0.4-0.6,0.5-0.9c0.2-1.5,0.3-3,0.6-4.5c0.4-1.7-0.9-2.8-1.3-4.2
				c-0.3-1.2-1.4-2.1-1.9-3.3c-1-2.2-2.6-3.9-4.3-5.5c-1.4-1.2-2.9-2.3-4.5-3.3c-1.8-1.1-3.6-2.1-5.6-2.9c-1.4-0.5-1.6-0.4-1.5-1.9
				c0-0.4,0.1-0.8,0.2-1.2c0.7-1.6,0.9-3.2,0.5-4.9c-0.1-0.6-0.2-1.5,0.1-1.7c1.2-0.8,0.9-1.8,0.6-2.9c-0.1-0.4,0-0.9,0.1-1.3
				c0.3-1,0.1-1.9-0.5-2.9c-0.4-0.7-0.6-1.6-1-2.4c-0.1-0.2,0-0.5-0.1-0.5c-0.9-0.5-1.6-1.6-2.9-1.3c-0.4,0.1-1-0.1-1.4-0.3
				c-0.5-0.2-0.9-0.5-1.4-0.7c-1.1-0.4-2.4-0.6-3.4-1.3c-1.1-0.7-1.9-1.8-2.9-2.7c-1.2-1.1-2.4-2.1-3.5-3.1
				c-0.1-0.1-0.2-0.1-0.3-0.2c-1.1-0.8-2.3-1.6-3.4-2.4c-1.8-1.2-3.5-2.6-5.5-3.3c-1.5-0.5-2.3-1.4-3.1-2.4c-0.7-1-0.5-1.7,0.6-2.2
				c1-0.5,2-0.9,3.1-1.3c0.9-0.3,1.5-0.7,1.5-1.8c0-0.3,0.3-0.9,0.6-0.9c1-0.3,2-0.6,3-0.6c2.2,0,4.4,0.1,6.6,0.2
				c0.3,0,0.7-0.1,1-0.3c0.8-0.4,1.5-0.4,2.2,0.1c1.2,0.8,2.5,0.6,3.8,0.1c1.3-0.4,2.6-0.7,3.9-0.7c4-0.1,8,0.4,11.9-1
				c0.4-0.2,1.1,0,1.5,0.2c1.3,0.8,2.5,0.8,3.9,0.4c2.6-0.7,5.2-1.3,7.9-1.8c1.4-0.3,2.9-0.1,4.3-0.2c2.1-0.1,4.3-0.3,6.4-0.5
				c0.4,0,0.8,0,1-0.2c1.2-0.9,2.6-0.8,4-0.9c0.8,0,1.6-0.3,2.4-0.5c0.6-0.1,1.2-0.5,1.8-0.5c2.4,0,4.7,0,7-0.7
				c0.5-0.2,1.1-0.4,1.3-0.8c0.3-0.6,0.8-0.7,1.3-0.7c0.4,0,0.7,0,1.1,0c2.2,0,3.3-0.9,4-3c0.1-0.2,0.3-0.5,0.5-0.6
				c1-0.2,1.7-1,2.5-1.3c1.9-0.9,2.9-2.4,3.6-4.2c0.5-1.4,1.3-2.6,2.5-3.6c2-1.7,3.9-3.6,5.8-5.4c0.7-0.7,1.3-1.4,1.8-2.2
				c1.7-2.7,3.5-5.4,5.1-8.1c1.1-1.9,2.1-3.8,2.9-5.9c0.6-1.4,0.6-3.2,1.3-4.5c0.7-1.4,0.8-2.7,0.8-4.1
				C441.5,155.5,441.7,155,441.7,154.5z"/>
			<path d="M441.7,154.5c-0.1,0.5-0.2,0.9-0.2,1.4c0,1.4-0.1,2.8-0.8,4.1c-0.7,1.3-0.7,3.1-1.3,4.5c-0.8,2-1.8,4-2.9,5.9
				c-1.6,2.8-3.3,5.4-5.1,8.1c-0.5,0.8-1.1,1.6-1.8,2.2c-1.9,1.8-3.8,3.7-5.8,5.4c-1.1,1-1.9,2.2-2.5,3.6c-0.7,1.8-1.7,3.3-3.6,4.2
				c-0.8,0.4-1.5,1.1-2.5,1.3c-0.2,0-0.4,0.3-0.5,0.6c-0.7,2.1-1.8,2.9-4,3c-0.4,0-0.7,0-1.1,0c-0.6,0-1,0.1-1.3,0.7
				c-0.2,0.4-0.8,0.6-1.3,0.8c-2.3,0.8-4.6,0.7-7,0.7c-0.6,0-1.2,0.3-1.8,0.5c-0.8,0.2-1.6,0.5-2.4,0.5c-1.4,0.1-2.8,0-4,0.9
				c-0.2,0.2-0.7,0.2-1,0.2c-2.1,0.2-4.3,0.4-6.4,0.5c-1.4,0.1-2.9,0-4.3,0.2c-2.6,0.5-5.3,1.1-7.9,1.8c-1.4,0.4-2.6,0.4-3.9-0.4
				c-0.4-0.3-1.1-0.4-1.5-0.2c-3.9,1.4-7.9,0.9-11.9,1c-1.3,0-2.7,0.3-3.9,0.7c-1.3,0.4-2.6,0.6-3.8-0.1c-0.8-0.5-1.5-0.5-2.2-0.1
				c-0.3,0.2-0.7,0.3-1,0.3c-2.2-0.1-4.4-0.2-6.6-0.2c-1,0-2,0.3-3,0.6c-0.3,0.1-0.6,0.6-0.6,0.9c0,1.1-0.6,1.4-1.5,1.8
				c-1,0.4-2.1,0.8-3.1,1.3c-1.1,0.5-1.3,1.3-0.6,2.2c0.8,1.1,1.6,1.9,3.1,2.4c2,0.6,3.7,2.1,5.5,3.3c1.2,0.7,2.3,1.6,3.4,2.4
				c0.1,0.1,0.2,0.1,0.3,0.2c1.2,1,2.4,2.1,3.5,3.1c1,0.9,1.8,2,2.9,2.7c1,0.6,2.2,0.8,3.4,1.3c0.5,0.2,0.9,0.5,1.4,0.7
				c0.4,0.2,1,0.4,1.4,0.3c1.3-0.3,2,0.8,2.9,1.3c0.1,0.1,0.1,0.4,0.1,0.5c0.3,0.8,0.5,1.6,1,2.4c0.5,0.9,0.8,1.8,0.5,2.9
				c-0.1,0.4-0.2,0.9-0.1,1.3c0.2,1.1,0.6,2.1-0.6,2.9c-0.3,0.2-0.2,1.1-0.1,1.7c0.3,1.7,0.2,3.3-0.5,4.9c-0.2,0.4-0.2,0.8-0.2,1.2
				c-0.1,1.6,0.1,1.4,1.5,1.9c1.9,0.7,3.8,1.8,5.6,2.9c1.6,1,3.1,2.1,4.5,3.3c1.8,1.5,3.4,3.3,4.3,5.5c0.5,1.2,1.6,2.1,1.9,3.3
				c0.4,1.4,1.7,2.5,1.3,4.2c-0.3,1.5-0.4,3-0.6,4.5c0,0.3-0.2,0.8-0.5,0.9c-1.1,0.7-1.2,1.7-1.2,2.8c0,0.9,0,1.8-0.3,2.6
				c-0.4,1.4,0,2.5,0.6,3.7c0.3,0.6,0.6,1.2,0.7,1.9c0.3,2.5,0.6,4.9,0.9,7.5c-1.3,0.1-2.5,0.1-3.5,0.4c-0.8,0.2-1.6,0.8-2.1,1.4
				c-1.8,2.4-2.5,5.2-3.3,8c-0.2,0.5-0.6,1-0.9,1.5c-0.1,0.2-0.3,0.3-0.4,0.5c-2.9,5-6.1,10-8.7,15.2c-1,2.1-2.8,3.2-4.2,4.7
				c-0.6,0.7-0.9,1-0.3,1.9c0.6,0.8,0.9,1.8,1.2,2.8c0.1,0.3-0.2,0.8-0.3,1.2c-0.3-0.2-0.7-0.4-1-0.6c-0.2-0.2-0.4-0.4-0.6-0.7
				c-0.1,0.2-0.2,0.2-0.2,0.3c0.5,2,0.1,2.5-2.1,2.9c-1.2,0.2-2.4,0.5-3.6,0.7c-0.3,0.1-0.5,0.3-0.7,0.5c-0.2,0.1-0.4,0.5-0.5,0.4
				c-1.1-0.3-2.1,0.6-3.3,0.1c-0.8-0.3-1.7,0.1-2.6,0.5c-1.4,0.6-2.5,1.7-4.2,1.6c-0.8,0-1.5,0.3-2.3,0.6c-0.6,0.2-1.3,0.6-1.9,0.7
				c-1.7,0.1-2.8,1.4-4.4,1.8c-0.6,0.2-1.2,0.5-1.8,0.7c-1.7,0.4-3.1,1.5-5,1.3c-0.2,0-0.4,0.3-0.6,0.4c-0.4,0.2-0.7,0.5-1.1,0.5
				c-0.7,0.1-1.5-0.2-1.9,0.8c0,0.1-0.4,0.2-0.6,0.2c-2.3,0.1-4.5,0.9-6.6,1.7c-2.3,0.8-4.7,1.4-7.1,2.1c-4.8,1.5-9.5,3.1-14.3,4.6
				c-0.6,0.2-1.3,0.3-2,0.5c-1.8,0.4-3.6,0.8-5.4,1.2c-0.2,0.1-0.5,0.4-0.5,0.7c-0.1,0.8-0.6,0.8-1.2,0.7c-0.8-0.1-1.7-0.3-2.5-0.3
				c-0.5,0-0.9,0.5-1.4,0.8c-0.4,0.2-0.8,0.4-1.2,0.4c-0.9,0.2-1.8,0.2-2.6,0.5c-2.3,0.8-4.6,1.8-6.9,2.6c-2.1,0.8-4.3,0.8-6.4-0.2
				c-0.5-0.2-1.3-0.3-1.8-0.2c-2.7,0.9-5.4,1.9-8.1,2.9c-0.2,0.1-0.4,0.4-0.6,0.5c-0.8,0.4-1.5,0.7-2.3,1.1c-0.1,0-0.2,0-0.2,0
				c-3.9,1.9-8.3,0.9-12.3,2.3c-0.1,0-0.1,0.1-0.2,0.1c-1,0-2.1,0-3.1,0c-0.2-0.2-0.5-0.4-0.7-0.6c-0.6-0.8-1.2-0.8-1.8,0
				c-0.2,0.2-0.6,0.4-0.8,0.3c-3.3-1.2-6.7-0.7-10.1-0.9c-0.6,0-1.2-0.3-1.8-0.4c-0.2-0.1-0.4-0.2-0.7-0.3
				c-4.1-0.9-8.2-1.9-12.4-1.5c-1.7,0.2-3.4,0.1-5-0.1c-1.2-0.1-2.4-0.7-3.6-1.1c-1.9-0.5-3.8-1.2-5.8-1.4c-2.5-0.1-4.8-1-7.3-1.3
				c-1.5-0.2-2.9-0.1-4.4-0.7c-1.5-0.6-3.3-0.4-4.9-0.5c-0.2,0-0.4,0.1-0.5,0.2c-1.3,0.8-1.9,0.7-3-0.6c-0.2-0.3-0.7-0.5-1.1-0.6
				c-0.8-0.1-1.7,0-2.5-0.1c-0.6-0.1-1.1-0.5-1.6-0.7c-0.5-0.2-1.1-0.5-1.5-0.4c-2.4,0.7-4.8,0.3-7.2,0c-0.5-0.1-1,0-1.5,0.1
				c-0.9,0.1-1.7,0.4-2.6,0.4c-1.3,0.1-2.6,0-4,0c-2.4,0-4.5,0.8-6.7,1.7c-0.5,0.2-0.8,0.6-1.2,1c-1.2,1.1-2.7,0.9-4.2,1.1
				c-1.6,0.2-2.8-0.7-4.1-1.5c-0.2-0.1-0.3-0.4-0.3-0.6c0-1.4,0-2.8,0-4.2c0-0.2,0.2-0.6,0.3-0.7c0.8-0.5,1.6-0.9,2.4-1.3
				c1.3-0.7,2.6-1.3,3.7-2.1c2.8-2,5.9-2.9,9.3-2.8c4.5,0.1,9,0.1,13.6,0.1c0.4,0,0.7,0,1,0.2c1.8,1,3.8,0.8,5.7,0.7
				c0.8-0.1,1.6,0,2.3,0.3c1.8,0.6,3.6,1.1,5.5,0.9c0.4,0,0.9,0,1.3,0.2c2.8,1.2,5.9,0.9,8.7,1.8c2.1,0.7,4.3,0.4,6.3,1.6
				c0.8,0.5,2.1,0.3,3.2,0.4c0.3,0,0.7-0.1,0.9,0.1c1.2,1.1,2.6,0.7,4,0.9c1.2,0.2,2.3,0.7,3.4,0.9c1.2,0.2,2.6,0,3.6,1.1
				c0.1,0.1,0.3,0.1,0.4,0.1c3.2-0.2,6.1,0.8,9.2,1.4c1.4,0.3,2.9,0.2,4.4,0.3c0.3,0,0.8-0.1,0.9,0c1.5,1.8,3.5,0.9,5.2,1
				c4.3,0.2,8.7,0.4,13-0.1c3.6-0.4,7-1.8,10.5-2.8c0.6-0.2,1.2-0.6,1.8-0.7c1.6-0.3,2.9-1.1,4-2.2c1-0.9,1.9-2,3-2.8
				c1.1-0.8,2.3-1.4,3.5-1.9c1.6-0.6,3.3-1.1,5-1.5c1.5-0.4,2.1-0.1,2.9,1.4c-0.7,0.8-1,3.3-0.4,4.1c0.4,0.4,1.3,0.5,1.9,0.6
				c0.4,0,0.9-0.2,1.2-0.4c2.3-1.5,4.9-2.2,7.6-2.5c0.3,0,0.7-0.1,0.8-0.2c0.6-1.4,1.6-1.1,2.8-0.9c0.4,0.1,0.9-0.4,1.4-0.6
				c0.5-0.2,1-0.3,1.4-0.4c1.1-0.2,2.1-0.4,3.2-0.7c0.3-0.1,0.6-0.3,0.9-0.3c3.5-0.2,6.6-1.7,9.8-2.8c1.3-0.4,2.7-0.8,4-1.2
				c0.4-0.1,0.7-0.3,1.1-0.4c0.7-0.2,1.5-0.5,2.2-0.7c0.3-0.1,0.8,0,0.9-0.1c0.6-1.3,1.9-0.8,2.9-1.2c1.8-0.7,3.6-1.4,5.5-2.1
				c2.2-0.8,4.5-1.4,6.7-2.2c0.8-0.3,1.4-1,2.1-1.3c0.6-0.3,1.3-0.2,2-0.3c0.1,0.3,0.1,0.5,0.2,0.6c0.1,0.2,0.3,0.4,0.5,0.6
				c0.2-0.2,0.4-0.3,0.5-0.5c0.3-0.3,0.6-0.8,1-1c2.8-1.1,5.7-2.1,8.5-3.1c0.3-0.1,0.6-0.2,0.9-0.2c1.5,0.1,2.3-0.7,3.4-1.6
				c1-0.9,2.4-1.2,3.7-1.7c0.4-0.2,0.9-0.3,1.3-0.5c-0.2-0.4-0.3-0.9-0.6-1.2c-2.2-2.5-4.4-5.1-5.7-8.3c-0.2-0.5-0.6-1.1-0.5-1.6
				c0.3-2.2-1.5-3-2.6-4.3c-0.7-0.9-1.5-1.6-2.4-2.2c-0.9-0.6-1.2-1.8-0.9-3c0.2-1,0.4-1.9,0.6-2.7c1.1-0.4,2.1-0.8,3.2-1.1
				c0.4-0.1,0.9,0,1.2,0.2c1.3,1.2,2.6,2.4,3.7,3.7c0.8,1,1.4,2.2,2,3.4c1.3,2.3,2.6,4.6,3.8,6.9c0.6,1.2,1,2.5,1.5,3.7
				c0.4,0.9,0.8,1.8,1.3,2.7c0.3,0.5,1.3,0.3,1.5-0.4c1-3.1,1.8-6.3,3.1-9.4c1.3-3.2,1.4-6.5,1.9-9.8c0.1-0.5,0.4-1,0.8-1.3
				c1-0.8,2-1.6,3.2-2.2c2.2-1.2,3-3.3,3.4-5.5c0.5-2.6,1.7-4.8,2.8-7.1c0.6-1.4,0.9-2.9,1.3-4.3c0.5-2.1,1.3-4,2.7-5.7
				c0.4-0.5,0.6-1.3,0.7-1.9c0.1-1.8,0.4-3.5-0.8-5.2c-0.4-0.6-0.2-1.7-0.2-2.6c0-0.7-0.2-1.1-1-1.1c-0.8,0-2.6-1.4-2.7-2.2
				c1,0.1,1.7,1.9,2.9,0.4c-1.5-1.7-3.2-3.4-5.2-4.7c-0.7-0.4-1.3-0.9-1.9-1.4c-0.8-0.8-1.6-1.4-2.8-1.3c-0.2,0-0.5,0-0.7-0.2
				c-2.4-1.5-5.1-1.1-7.6-1.2c-1,0-1.8,0-2.5-0.8c-0.2-0.2-0.6-0.2-0.9-0.2c0.1,0.3,0.2,0.5,0.2,0.8c0,0.6,0.3,1.3,0,1.8
				c-0.7,1.5-1.7,2.9-2.5,4.3c-0.1,0,0,0,0.1,0c2,0.6,2.2,0.9,0.9,2.7c-0.8,1.1-1.9,2-2.8,2.9c-0.2,0.2-0.5,0.4-0.7,0.7
				c-1.1,1.9-2.2,3.8-3.4,5.6c-0.3,0.5-0.8,0.9-1.2,1.3c-0.3,0.4-0.5,0.8-0.8,1.2c-0.3,0.4-0.6,1-1.1,1.2c-0.7,0.4-1.2,0.8-0.9,1.8
				c0.4,1.8-0.2,3.4-1.2,5c-0.7,1.1-1.3,2.3-1.8,3.5c-1,2.6-2.4,5-4.4,7.1c-0.7,0.8-1.7,1.5-2.6,1.8c-2.3,0.7-4.7,1.2-7.1,1.8
				c-0.1,0-0.3,0-0.4,0c-2.6,1.7-5.6,0.8-8.4,1.1c-0.5,0.1-1,0.3-1.5,0.4c-0.8,0.2-1.5,0.5-2.3,0.7c-1.3,0.3-2.5,0.6-3.8,0.9
				c-1.9,0.4-3.7,0.9-5.6,1.3c-2.7,0.5-5.4,1-8.1,1.5c-0.3,0.1-0.5,0.4-0.8,0.7c-0.6,0.6-1.3,0.7-1.9,0.1c-0.9-0.9-1.8-1.7-2.7-2.6
				c-0.8-0.8-1.6-1.6-2.4-2.4c-0.7-0.7-1.3-1.4-1.9-2.1c-0.4-0.5-1-1-1.2-1.6c-0.3-1.2-1-1.9-1.7-2.8c-2-2.2-3.9-4.4-5.9-6.6
				c-2.2-2.5-4.3-5.2-6.6-7.6c-0.8-0.8-2.1-1.1-3.2-1.8c-0.3-0.2-0.6-0.6-0.8-0.9c-0.2-0.3-0.3-0.7-0.5-0.9c-1.3-1-1.4-2.4-1.4-3.9
				c0-5.2,0-10.3-0.1-15.5c0-0.5-0.4-0.9-0.5-1.4c-0.2-0.5-0.4-1-0.4-1.5c-0.1-1.5,0.1-3.1-1-4.5c-0.3-0.4,0-1.5,0.3-2
				c0.6-0.7,0.7-1.2,0-1.9c-0.4-0.4-0.4-1-0.6-1.6c-0.1-0.4,0-0.8,0-1.2c-0.1-1.7-0.1-1.7-1.7-1.9c-2.1-0.2-3.4-2.5-2.7-4.4
				c0.2-0.5,0.2-1.1,0-1.5c-0.4-0.9,0-2.4,0.9-3c1.6-0.9,1.8-1.9,1.1-3.6c-0.4-1-0.7-2.1-0.7-3.2c0-0.9-0.4-1.1-1.1-1.2
				c-1.2-0.1-2.4-0.1-3.6-0.2c-0.4,0-0.7,0-1.1-0.1c-0.2-0.1-0.4-0.3-0.6-0.4c0.2-0.2,0.4-0.5,0.6-0.6c0.9-0.1,1.8-0.2,3-0.3
				c-0.2-0.6-0.3-1.2-0.4-1.7c-0.2-0.9-0.6-1.8-0.6-2.7c0.1-3.3-0.9-6.6-0.1-10c0.2-0.8,0.5-1.2,1.2-1.4c2.2-0.5,3.8,0.1,4.8,2.1
				c0.9,1.9,1.6,3.9,2.4,5.9c0.4,0.9,0.9,1.8,1.4,2.9c1.3,0.3,1.2,0.4,0.7,2c-0.5,1.6-0.8,3.3,0.1,5c0.3,0.5,0.4,1.2,0.6,1.8
				c0.2,0.9,0.7,1.4,1.6,1.1c1.1-0.3,2.3-0.6,3.1-1.4c1.4-1.2,2.7-2.3,4.4-3c0.2-0.1,0.5-0.2,0.6-0.4c2.5-2.6,6.1-3.4,8.6-5.9
				c0.2-0.3,0.6-0.5,0.9-0.6c2-0.6,3.3-2.3,4.8-3.7c1.1-1,2.2-2,3.2-3c2.7-2.8,4.6-6,5.1-9.9c0.1-0.8,0.1-1.6,0.2-2.4
				c0.2-1.2,0.7-2,1.9-2.6c0.7-0.3,1.5-0.8,2-1.4c1.2-1.4,2.7-2.1,4.5-1.8c0.5,0.1,1,0,1.6,0.1c0.3,0,0.5,0.3,0.8,0.4
				c-0.2,0.2-0.4,0.6-0.6,0.6c-1.3,0.1-1.4,1-1.3,2c0,0.7,0,1.4,0,2.2c0,1.2-0.4,2.3-1.3,3.3c-0.3,0.3-0.5,0.8-0.8,1.3
				c0.9,0.3,1.7,0.5,2.4,0.8c0,0.1,0.1,0.2,0.1,0.3c-0.7,0.2-1.5,0.7-2.2,0.6c-1.5-0.1-1.6-0.1-1.5,1.8c0.8-0.1,1.6-0.2,2.4-0.4
				c1.4-0.4,2.9-1,4.3-1.4c0.7-0.2,1.7,0.3,2-0.9c0-0.1,0.5-0.1,0.8-0.1c3,0,6.1-0.3,9,1c0.2,0.1,1-0.7,1.1-1.1
				c0.3-1.8,3-5.2,4.8-5.8c1.1-0.3,1.7,0.1,1.8,1.2c0.1,1.4,0.1,2.7,0.1,4.1c0,1.6,1.6,2.7,3.5,2.2c0.7-0.2,1.1-1.6,0.5-2.3
				c-0.8-0.8-0.8-1.6-0.5-2.6c0.2-0.6-0.1-1.3-0.1-1.9c0-0.4-0.1-1,0.2-1.1c1-0.7,2-1.4,3.1-1.8c1.1-0.4,2,0.1,2.6,1.1
				c1.3,2,2,4.2,1.8,6.7c-0.1,1.6,0.2,1.9,1.8,1.9c2.9,0.1,5.8,0.1,8.6,0c0.7,0,1.4-0.5,2.1-0.8c0.7-0.3,1.4-0.7,2.2-0.8
				c1.6-0.1,3.2,0.1,4.7-0.9c0.5-0.4,1.4-0.3,2.1-0.3c1.4,0,2.7,0,4.1,0c0.5,0,1.1,0,1.5-0.3c1-0.8,2.2-0.7,3.3-0.8
				c1-0.1,2.1,0.1,2.8-0.9c0.2-0.2,0.7-0.2,1.1-0.2c1.8,0,3.5,0,5.3,0c1.4,0,1.7-0.3,1.7-1.7c0-1.1-0.2-2.1-0.4-3.2
				c-0.4-2-0.2-3.9,1.1-5.5c0.6-0.7,1-0.6,1.6,0.2c1.6,2.1,1.1,4.6,1.2,6.9c0.1,2.3,0.8,3.2,3,2.4c2.9-1,5.9-0.8,8.9-0.9
				c0.6,0,1.3-0.1,1.9-0.3c0.5-0.2,0.8-0.6,1.2-0.9c1,0.1,2,0.2,3.1,0.2c0.5,0,1-0.4,1.6-0.7c0.4-0.2,0.9-0.4,1.3-0.4
				c2.3,0,4.6,0,6.8-0.1c0.6,0,1.3-0.3,1.8-0.7c2-1.2,3.6-3,5.9-3.9c1.2-0.4,2-1.3,2.3-2.6c0.1-0.2,0.1-0.5,0.3-0.6
				c1.7-1.8,3.4-3.7,5.1-5.5c1.9-2.1,3.8-4.3,5.8-6.4c2.1-2.2,4-4.5,5.1-7.3c0.5-1.2,1-2.4,1.5-3.6c0.1-0.3,0.4-0.5,0.5-0.7
				c-0.3-1.2-0.6-2.3-0.9-3.5c-0.5,0-1.1-0.1-1.7-0.1c-3.3,0-6.6,0-9.8,0.1c-0.8,0-1.6,0.4-2.5,0.4c-0.5,0-1.2-0.1-1.5-0.5
				c-0.9-1-2.5-1.3-3.7-0.6c-0.7,0.4-1.4,0.6-2.2,0.7c-1.1,0.1-2.2,0-3.2,0c-0.6,0-1.3,0-1.8,0.2c-2.5,1.3-5.1,0.8-7.7,0.9
				c-0.8,0-1.7-0.2-2.2,0.8c-0.1,0.1-0.3,0.1-0.4,0.2c-0.1,0-0.2,0-0.4,0c-2.9,0-5.7,0.1-8.6,0.7c-2.5,0.5-5.2,0.3-7.8,0.4
				c-1.1,0.1-2.1,0.3-3.2,0.4c-3.3,0.3-6.5,0.5-9.8,0.7c-3.6,0.3-7.3,0-10.7,0.9c-4.6,1.2-9.2,0.7-13.8,0.8
				c-7.2,0.1-14.4,0-21.6,0.1c-0.6,0-1.2,0.5-1.9,0.7c-0.2,0.1-0.5,0.2-0.8,0.2c-6.7,0-13.3,0.1-20,0.1c-1.1,0-2.1,0.2-3.2,0.4
				c-1.5,0.2-3,0.6-4.6,0.7c-5.1,0.1-10.2,0-15.4,0c-1.3,0-2.6,0.4-3.9,0.5c-1.7,0.1-3.4,0-5-0.2c-1.1-0.1-1.8,0.1-2.3,1.2
				c-0.3,0.5-1,1-1.6,1.2c-4.6,1.7-9.5,0.9-14.2,1.2c-1,0-1.9,0.3-2.8,0.7c-0.9,0.3-1.7,0.4-2.5-0.2c-0.5-0.3-1.1-0.5-1.6-0.5
				c-2-0.1-3.9,0-5.9-0.1c-0.6,0-1.1-0.1-1.9-0.2c1-1.5,2.4-0.5,3.3-1.1c-1.3-0.8-12.9,0-13.9,1c0.6,0.2,1.1,0.3,1.8,0.5
				c-1.3,1-2.6,1.3-3.9,0.7c-2.5-1.3-4.7-0.8-6.9,0.6c-0.7,0.4-1.7,0.5-2.5,0.6c-2,0.4-4,0.8-6,1.2c-0.8,0.2-1.5,0.3-2.3,0.5
				c-0.3,0.1-0.5,0.1-0.8,0.3c-1,0.8-2,1.6-3.1,2.4c0,0,0.3,0.1,0.4,0.3c0.1,0.2,0.2,0.5,0.1,0.8c0,0.1-0.3,0.4-0.4,0.3
				c-0.2-0.1-0.6-0.3-0.6-0.5c-0.2-1.1-1-0.9-1.7-0.8c-0.4,0.1-0.8,0.2-1.1,0.3c-1.9,1.1-3.8,2.1-5.7,3.2c-0.4,0.3-0.9,0.6-1.3,0.8
				c-3.1,1-6.1,2.3-8.6,4.5c-1.1,1-2.5,1.7-3.8,2.5c-2.5,1.4-5.2,2.6-7.4,4.3c-1.1,0.8-2.1,0.7-3.2,1.1c-1.8,0.7-3.5,1.8-5.3,2.8
				c-0.5,0.3-0.9,0.7-1.4,0.9c-0.9,0.3-1.1,0.8-1.5,1.7c-0.4,0.9-1.1,1.8-2,2.3c-0.9,0.5-2,0.6-3,0.9c-0.3,0.1-0.6,0.1-0.8,0.3
				c-1.5,1.2-2.9,2.6-4.5,3.7c-1.5,1-3.2,1.6-4.8,2.4c-0.8,0.4-1.7,0.7-2.3,1.3c-2.3,2.3-5.3,3.6-8.1,5.3c-1.4,0.9-3,1.7-4.4,2.5
				c-0.2,0.1-0.3,0.4-0.6,0.6c-0.7,0.5-1.4,1-2.1,1.3c-0.8,0.4-1.7,0.5-2.4,1c-2.4,1.5-4.7,3.1-7.2,4.6c-2.4,1.5-5,2.9-7.4,4.4
				c-1.6,1-3.1,2-4.5,3.1c-0.8,0.6-1.5,0.9-2.3,0.4c-0.4-0.3-0.6-1-0.8-1.6c-0.1-0.3,0-0.6,0-0.8c-0.4-2.2,0.4-3.6,2.4-4.8
				c3.3-1.9,6.3-4.2,9.4-6.4c6.8-4.7,13.8-9,21-13.1c0.4-0.2,0.7-0.5,1-0.8c0.4-0.3,0.7-0.7,1.1-0.9c3.8-1.9,7.3-4.2,10.8-6.6
				c3.3-2.3,6.8-4.2,10.2-6.3c0.8-0.5,1.5-1.3,2.3-1.9c0.6-0.4,1.3-0.7,2-1c0.9-0.4,1.9-0.8,2.8-1.3c2.6-1.5,5.2-3,7.7-4.5
				c0.8-0.5,1.6-1.2,2.4-1.8c2.4-1.6,4.7-3.2,7.1-4.7c0.9-0.5,1.9-0.8,2.8-1.2c0.4-0.2,0.8-0.5,1.5-0.9c-0.9-0.2-1.5-0.4-2.1-0.5
				c0-0.2,0-0.3-0.1-0.5c0.4-0.2,0.9-0.5,1.3-0.4c2.5,0.3,4.7-0.5,6.9-1.8c2.4-1.4,5-2.6,7.6-3.9c1.2-0.6,2.2-1.3,3.4-1.8
				c1.5-0.6,3.1-0.9,4.6-1.4c0.7-0.2,1.4-0.5,2.1-0.8c0.3-0.1,0.7-0.2,1-0.3c0.2-0.1,0.5,0,0.7-0.1c2.1-1.5,4.4-2.1,6.9-2.1
				c0.4,0,0.9-0.3,1.2-0.5c1.1-0.7,2.2-0.8,3.4-0.5c1.5,0.4,2.9,0.7,4.3-0.4c0.6-0.5,1.7-0.4,2.5-0.4c0.8-0.1,1.5,0,2.3,0
				c0.2,0,0.5,0,0.6-0.1c1.6-1.6,3.6-0.5,5.3-0.8c0.2,0,0.5,0,0.5,0.1c0.6,1.2,1.6,0.7,2.5,0.8c0.3,0,0.7,0.1,1,0.3
				c1.6,1,2.5,1,4.2,0.1c1.6,0.4,1.9,1.7,1.9,2.9c1.7-0.3,3.3-0.5,4.9-0.7c0-0.1,0-0.2,0-0.3c-0.7-0.1-1.3-0.2-2-0.4
				c-0.3-0.1-0.9-0.6-0.8-0.7c0.1-0.4,0.5-0.8,0.8-1c0.2-0.1,0.5-0.1,0.8-0.1c2.9-0.2,5.8-0.4,8.7-0.4c2.3,0,4.6,0.3,6.9,0.4
				c1.6,0.1,3.3,0.3,4.8-0.8c0.5-0.4,1.3-0.3,2-0.3c12.6,0,25.2,0,37.8,0c1.1,0,2.1-0.5,3.2-0.7c0.5-0.1,1-0.2,1.5-0.2
				c9.2,0,18.3,0,27.5,0c0.7,0,1.5-0.3,2.2-0.5c1.2-0.2,2.5-0.6,3.7-0.6c2.1,0,4.3,0.3,6.3-0.8c0.7-0.3,1.6-0.2,2.3-0.3
				c4.1-0.4,8.2-0.7,12.3-1c0.3,0,0.5,0,0.8,0c1.6,0,3.2,0,4.8-0.1c2.8-0.2,5.6-0.5,8.4-0.8c3.4-0.3,6.7-0.7,10.1-0.9
				c3.4-0.1,6.8,0,10.2-0.1c0.6,0,1.3-0.3,1.9-0.5c0.6-0.2,1.2-0.4,1.8-0.5c2.4-0.3,4.9-0.6,7.3-0.9c2.3-0.3,4.6-0.6,6.9,0.6
				c0.7,0.4,1.5,0.3,2.4,0.4c0.1-0.4,0.2-0.7,0.3-1c0.1-0.6,0.5-0.9,1.1-0.6c1.5,0.6,2.8,0.5,4-0.6c2.5,0,5,0,7.4,0
				c0.2,0.4,0.4,0.7,0.6,1.2c-1,0-1.9,0-3,0c0.6,0.3,1,0.4,1.4,0.6c-0.1,0.4-0.3,0.7-0.5,1.4c0.9-0.2,1.8,0,2.3-0.4
				c1.1-0.9,1.9-0.7,2.8,0.1C441.7,153.9,441.7,154.2,441.7,154.5z M330.6,255.6c-0.2,0.5-0.2,1-0.5,1.3c-1.4,1.4-3.1-0.2-4.6,0.6
				c0,0-0.2-0.1-0.3-0.2c-0.4-0.1-0.8-0.2-1.1-0.4c-0.8-0.4-1.6-0.7-2.3-1.1c-0.8-0.5-1.5-1.1-2.2-1.7c-0.8-0.6-1.4-0.5-2.1,0.2
				c-1,1.1-1,1.1-2.1,0c-0.1-0.1-0.3-0.1-0.5-0.2c-0.5-0.3-1.1-0.6-1.5-1c-1.4-1.6-3.4-2.1-5.3-1.3c-1.5,0.6-3.1,1.3-4.6,2
				c-0.4,0.2-0.9,0.6-0.9,0.9c0,1.2-0.7,1.6-2,1.6c0.4,0.2,0.5,0.3,0.6,0.3c0.7,0.1,1.3,0.3,1.3,1.1c0,0.8-0.6,1-1.2,1.3
				c-1.2,0.5-2.1,1.3-2,2.8c0,1-0.4,1.8-1.5,2.1c-0.3,0.1-0.8,0.4-0.9,0.6c-0.5,1.4-0.9,2.9-1.5,4.3c-0.2,0.4-0.6,0.8-1,1
				c-0.8,0.3-1.7,0.4-2.8,0.7c0.1-0.7,0.1-1.3,0.3-2c0.2-0.8,0.1-1.4-0.8-1.7c-0.2,0.3-0.4,0.6-0.4,0.8c0.2,1.3-0.6,2.1-1.5,2.9
				c-1.7,1.5-3.7,1.7-5.9,2.2c0.1-1.6,0-3.2,0.4-4.6c0.3-1.3,1.2-2.5,1.7-3.8c0.9-2.5,2-4.9,4-6.7c0.1-0.1,0.2-0.5,0.1-0.7
				c-0.6-1.6-1.1-3.2-1.7-4.8c0-0.1-0.1-0.1-0.2-0.2c-1.2-0.3-1.5-1.6-2.2-2.2c-1-0.8-1.8-1.7-2.7-2.6c-1.3-1.3-2.9-2.4-4.3-3.5
				c-2.4-1.9-4.7-3.9-7.2-5.8c-0.6-0.4-1.4-0.6-2.3-0.9c0,2-1.2,2.3-2.4,2.3c0.1,1.3,0.2,2.5,0.3,4c-1.1-0.3-2-0.2-2.5-0.7
				c-0.8-0.7-1.5-0.6-2.5-0.4c0,2.9,0,5.9,0,8.8c0,1.1-0.3,2.3,0.9,3.2c0.2,0.1,0.1,0.7,0.1,1c0,3.1,0,6.2,0,9.4c0,2-0.1,4.1,0,6.1
				c0,0.4,0.4,1.1,0.7,1.2c2.2,0.6,3.5,2.6,5.4,3.7c0.2,0.1,0.3,0.5,0.4,0.7c0.4,0.6,0.7,1.3,1.2,1.8c0.8,0.9,1.7,1.7,2.5,2.6
				c2.2,2.5,4.3,5.1,6.5,7.5c1.6,1.7,2.4,3.7,3,5.8c0.7,2.5,0.6,2.6,3.2,2.4c0.2,0,0.5-0.1,0.7-0.1c1.3-0.3,2.5-0.9,3.8-1
				c2.7-0.2,5.3-0.2,8-0.3c0.3,0,0.7,0.1,0.9-0.1c0.7-0.4,1.4-0.9,2.3-1.6c0.5-2.5,1.1-3,4-3.4c0.7-0.1,1.1,0.1,1.1,0.9
				c0,0.9,0,1.9,0,2.5c0.9,0.5,1.6,0.9,2.4,1.1c0.3,0.1,0.8,0.1,1,0c0.9-0.9,1.8-1.8,2.6-2.9c0.6-0.7,1-1.6,1.3-2.2
				c2.1,0.2,3.2-1.4,4.6-2.1c2-0.9,0.7-3.3,1.6-5c0.3,0.2,0.3,0.5,0.5,0.7c0.3,0.4,0.6,0.7,1,1c0.3-0.4,0.5-0.8,0.8-1.2
				c0.3-0.4,0.6-1.1,1-1.1c2.3-0.2,3.5-1.8,4.8-3.3c1.9-2.1,3.8-4.2,5.6-6.4c0.4-0.5,0.5-1.2,0.8-1.9c-0.8,0-1.3,0-1.8-0.1
				c-0.3-0.1-0.5-0.4-0.8-0.6c0.3-0.2,0.5-0.5,0.8-0.5c0.9-0.1,1.8-0.1,2.8-0.1c0.3,0,0.8-0.1,0.9-0.2c0.5-0.7,1-1.5,1.1-2.3
				c0.2-1.9,1.2-3.2,2.5-4.3c0.6-0.5,0.8-1.1,0.5-1.9c-0.5-1.4-0.2-1.9,1.4-2.2c1-0.2,1.7-1.6,1.3-2.5c-0.2-0.4-0.1-0.8,0-1.3
				c0.1-0.4,0.2-0.8,0.4-1.2c0.2-0.6,0.4-1.1,0.6-1.7c0.3,0.6,0.5,1.1,0.8,1.7c0,0.1,0.1,0.1,0.3,0.3c0.6-0.5,1.2-0.9,1.7-1.4
				c1.7-1.9,3.4-3.8,4.5-6.1c0.7-1.4-0.2-3.3-1.7-3.6c-0.4-0.1-0.7-0.3-1.2-0.5c1.2-1.3,1.2-1.3,0.1-2.5c-0.6-0.6-1.2-1.1-1.7-1.7
				c-1.8-2.4-4.8-3.3-6.6-5.5c-0.2-0.3-0.8-0.3-1.2-0.5c-0.3-0.2-0.7-0.4-0.9-0.7c-0.5-0.5-0.9-1.6-1.4-1.6
				c-1.8-0.2-2.4-1.7-3.5-2.5c-3.9-3-7.9-5.9-11.9-8.8c-0.4-0.3-0.9-0.7-1.1-1.2c-0.5-1-1.3-1.1-2.3-0.9c-1,0.2-2.1,0.5-3.2,0.4
				c-2.1-0.1-4.1-0.4-6.2-0.5c-1.2-0.1-2.2,0.2-3.1,1c-0.4,0.4-0.9,0.5-1.2-0.1c-0.4-0.9-1.1-1-2-1c-1.9,0.1-3.6-0.2-5.4-0.9
				c-2-0.7-4-0.4-5.9,1.2c-2.4,2.1-4.1,4.7-6.5,6.7c-2.3,1.9-4.3,4.3-6.7,6.8c0.8,1.1,1.8,2.5,2.8,3.9c0.6,0.8,1.5,1.3,2.1,2.1
				c1.2,1.7,2.7,3,4.6,3.9c1.7,0.9,3.4,1.9,5.1,2.8c1.4,0.8,2.6,2.1,4.4,1.8c0.2,0,0.6,0.5,0.8,0.8c0.1,0.3,0.1,0.8,0.1,1.4
				c1-0.2,1.9-0.2,2.7-0.5c0.7-0.2,1.4-0.8,2.1-1.1c1.7-0.8,3.5-1.3,5.2-2.2c1.8-1,3.7-1.3,5.8-1.3c0.7,0,1.3-0.3,2-0.4
				c0.3,0,0.7,0,0.9,0.2c0.3,0.2,0.5,0.6,0.7,0.9c0.9,1.2,3.5,1.9,4.4,1.1c1.2-1.1,2.9-0.9,4.3-1.6c0.3-0.2,1.2,0.6,1.7,1
				c0.2,0.3,0.3,0.9,0.1,1.3c-0.3,0.8-0.9,1.6-1.4,2.6c-0.2,0-0.8-0.1-1.1,0.2c-1.1,1-2.4,0.9-3.7,0.9c-0.8,0-1.5,0.1-1.7,1.1
				c-0.1,0.3-0.6,0.5-1,0.6c-0.3,0.1-0.7,0-1,0c0.2,0.3,0.3,0.7,0.6,1c0.5,0.5,1.2,1,1.6,1.6c0.7,1,1.6,1.5,2.6,1.9
				c1,0.4,1.8,1,2.7,1.5c0.3,0.2,0.7,0.2,1,0.3C327.5,255.2,329,255.4,330.6,255.6z"/>
			<path d="M64,250.8c0.5,0,1,0,1.4,0c0.3,0,0.8-0.2,0.8-0.4c0.3-1.7,1.9-2,3.1-2.7c0.3-0.2,0.6-0.4,0.9-0.4c2.3-0.3,3.6-2,5.3-3.3
				c0.3-0.2,0.6-0.3,0.9-0.3c1.6,0,2.8-0.7,4-1.7c0.9-0.8,2.1-1.3,3.2-1.7c1.4-0.6,2.7-1.1,2.4-3c1.3,1,1.9,0.9,3.3-0.1
				c0.6-0.5,1.4-0.8,2.1-1.1c0.8-0.4,1.7-0.9,2.9-1.4c0.5-1.2,4-3.6,6.2-4c0,1.8,0.2,3.5-0.1,5.2c-0.1,0.6-1.3,1-2,1.4
				c-0.2,0.2-0.6,0.2-0.8,0.4c-1.3,1-2.5,2.1-3.8,3c-2.9,1.9-5.9,3.7-8.9,5.4c-0.9,0.5-1.9,0.7-2.8,1.2c-0.9,0.4-1.7,0.9-2.5,1.3
				c-0.6,0.3-1.1,0.8-1.7,0.8c-2,0-3.8,0.2-5.5,1.5c-0.7,0.5-1.9,0.4-2.8,0.4c-0.7,0-1.4-0.3-2.1-0.3c-0.5,0-1,0.3-1.4,0.6
				c-0.7,0.7-1.4,0.4-2.1,0.3C64,251.4,64,251.1,64,250.8z"/>
			<path class="st4" d="M441.7,153.6c-0.9-0.9-1.7-1-2.8-0.1c-0.5,0.4-1.3,0.3-2.3,0.4c0.3-0.7,0.4-1,0.5-1.4
				c-0.4-0.2-0.8-0.3-1.4-0.6c1.1,0,1.9,0,3,0c-0.3-0.5-0.4-0.9-0.6-1.2c1.2,0,2.4,0,3.6,0C441.7,151.6,441.7,152.6,441.7,153.6z"/>
			<path class="st4" d="M330.6,255.6c-1.6-0.2-3.1-0.4-4.5-0.6c-0.3-0.1-0.7-0.1-1-0.3c-0.9-0.5-1.8-1.1-2.7-1.5
				c-1.1-0.4-2-1-2.6-1.9c-0.4-0.6-1.1-1-1.6-1.6c-0.3-0.3-0.4-0.7-0.6-1c0.3,0,0.7,0.1,1,0c0.4-0.1,0.9-0.3,1-0.6
				c0.2-1,0.9-1.1,1.7-1.1c1.3,0,2.6,0.1,3.7-0.9c0.3-0.3,1-0.2,1.1-0.2c0.6-1,1.1-1.7,1.4-2.6c0.2-0.4,0.1-1-0.1-1.3
				c-0.5-0.5-1.4-1.2-1.7-1c-1.3,0.8-3,0.6-4.3,1.6c-1,0.8-3.5,0.1-4.4-1.1c-0.2-0.3-0.4-0.7-0.7-0.9c-0.2-0.2-0.6-0.2-0.9-0.2
				c-0.7,0.1-1.4,0.4-2,0.4c-2,0-3.9,0.3-5.8,1.3c-1.6,0.9-3.5,1.4-5.2,2.2c-0.7,0.3-1.3,0.9-2.1,1.1c-0.8,0.3-1.7,0.3-2.7,0.5
				c0-0.6,0-1-0.1-1.4c-0.1-0.3-0.5-0.9-0.8-0.8c-1.9,0.3-3-1-4.4-1.8c-1.7-1-3.4-1.9-5.1-2.8c-1.9-1-3.4-2.2-4.6-3.9
				c-0.5-0.8-1.5-1.3-2.1-2.1c-1.1-1.3-2-2.8-2.8-3.9c2.4-2.5,4.3-4.9,6.7-6.8c2.4-2,4.1-4.7,6.5-6.7c1.9-1.6,3.8-1.9,5.9-1.2
				c1.8,0.6,3.5,0.9,5.4,0.9c0.8,0,1.6,0,2,1c0.3,0.6,0.8,0.5,1.2,0.1c0.9-0.9,1.9-1.1,3.1-1c2.1,0.2,4.1,0.5,6.2,0.5
				c1,0,2.1-0.2,3.2-0.4c1-0.2,1.8-0.2,2.3,0.9c0.2,0.5,0.7,0.9,1.1,1.2c4,3,8,5.8,11.9,8.8c1.1,0.9,1.8,2.4,3.5,2.5
				c0.5,0,0.9,1.1,1.4,1.6c0.3,0.3,0.6,0.5,0.9,0.7c0.4,0.2,1,0.2,1.2,0.5c1.9,2.3,4.9,3.1,6.6,5.5c0.5,0.6,1.1,1.2,1.7,1.7
				c1.1,1.2,1.1,1.2-0.1,2.5c0.4,0.2,0.8,0.4,1.2,0.5c1.5,0.4,2.3,2.2,1.7,3.6c-1.1,2.3-2.8,4.2-4.5,6.1c-0.5,0.5-1.1,1-1.7,1.4
				c-0.2-0.2-0.2-0.2-0.3-0.3c-0.3-0.5-0.6-1.1-0.8-1.7c-0.2,0.6-0.4,1.1-0.6,1.7c-0.1,0.4-0.3,0.8-0.4,1.2c-0.1,0.4-0.1,0.9,0,1.3
				c0.4,0.9-0.3,2.4-1.3,2.5c-1.5,0.2-1.9,0.7-1.4,2.2c0.3,0.8,0.1,1.4-0.5,1.9c-1.3,1.2-2.3,2.5-2.5,4.3c-0.1,0.8-0.7,1.6-1.1,2.3
				c-0.1,0.2-0.6,0.2-0.9,0.2c-0.9,0.1-1.8,0-2.8,0.1c-0.3,0-0.5,0.3-0.8,0.5c0.3,0.2,0.5,0.5,0.8,0.6c0.5,0.1,1,0.1,1.8,0.1
				c-0.3,0.7-0.4,1.4-0.8,1.9c-1.8,2.2-3.7,4.2-5.6,6.4c-1.3,1.5-2.5,3.1-4.8,3.3c-0.4,0-0.7,0.7-1,1.1c-0.3,0.4-0.5,0.8-0.8,1.2
				c-0.3-0.3-0.7-0.7-1-1c-0.2-0.2-0.2-0.5-0.5-0.7c-1,1.7,0.3,4.1-1.6,5c-1.5,0.7-2.6,2.3-4.6,2.1c-0.4,0.6-0.8,1.5-1.3,2.2
				c-0.8,1-1.7,2-2.6,2.9c-0.2,0.2-0.7,0.2-1,0c-0.7-0.3-1.4-0.7-2.4-1.1c0-0.6,0-1.6,0-2.5c0-0.7-0.3-1-1.1-0.9
				c-2.9,0.3-3.5,0.9-4,3.4c-0.9,0.6-1.6,1.1-2.3,1.6c-0.2,0.1-0.6,0.1-0.9,0.1c-2.7,0.1-5.4,0.1-8,0.3c-1.3,0.1-2.5,0.7-3.8,1
				c-0.2,0.1-0.5,0.1-0.7,0.1c-2.6,0.2-2.5,0.1-3.2-2.4c-0.6-2.1-1.4-4.1-3-5.8c-2.3-2.4-4.3-5-6.5-7.5c-0.8-0.9-1.7-1.7-2.5-2.6
				c-0.5-0.6-0.8-1.2-1.2-1.8c-0.1-0.2-0.2-0.6-0.4-0.7c-1.9-1.1-3.2-3-5.4-3.7c-0.3-0.1-0.7-0.8-0.7-1.2c-0.1-2,0-4.1,0-6.1
				c0-3.1,0-6.2,0-9.4c0-0.4,0.1-0.9-0.1-1c-1.2-0.8-0.9-2.1-0.9-3.2c0-2.9,0-5.8,0-8.8c1-0.2,1.7-0.3,2.5,0.4
				c0.5,0.4,1.4,0.4,2.5,0.7c-0.1-1.5-0.2-2.7-0.3-4c1.2-0.1,2.4-0.3,2.4-2.3c0.9,0.3,1.7,0.5,2.3,0.9c2.4,1.9,4.8,3.8,7.2,5.8
				c1.5,1.2,3,2.2,4.3,3.5c0.9,0.9,1.7,1.8,2.7,2.6c0.7,0.6,1,1.9,2.2,2.2c0.1,0,0.1,0.1,0.2,0.2c0.6,1.6,1.2,3.2,1.7,4.8
				c0.1,0.2,0,0.5-0.1,0.7c-2,1.9-3,4.2-4,6.7c-0.5,1.3-1.4,2.5-1.7,3.8c-0.4,1.4-0.3,2.9-0.4,4.6c2.2-0.5,4.2-0.7,5.9-2.2
				c0.9-0.8,1.7-1.5,1.5-2.9c0-0.2,0.2-0.5,0.4-0.8c0.9,0.3,1,0.9,0.8,1.7c-0.1,0.7-0.2,1.3-0.3,2c1.1-0.3,2-0.4,2.8-0.7
				c0.4-0.2,0.8-0.6,1-1c0.5-1.4,0.9-2.9,1.5-4.3c0.1-0.3,0.6-0.6,0.9-0.6c1.1-0.3,1.6-1.1,1.5-2.1c-0.1-1.5,0.9-2.3,2-2.8
				c0.6-0.3,1.2-0.4,1.2-1.3c0-0.8-0.6-1-1.3-1.1c-0.1,0-0.3-0.1-0.6-0.3c1.3,0,2-0.4,2-1.6c0-0.3,0.5-0.8,0.9-0.9
				c1.5-0.7,3.1-1.3,4.6-2c2-0.8,3.9-0.3,5.3,1.3c0.4,0.4,1,0.7,1.5,1c0.2,0.1,0.4,0.1,0.5,0.2c1.1,1.1,1.1,1.1,2.1,0
				c0.7-0.8,1.3-0.8,2.1-0.2c0.7,0.6,1.4,1.2,2.2,1.7c0.7,0.4,1.5,0.8,2.3,1.1c0.4,0.2,0.7,0.3,1.1,0.4c0.1,0,0.2,0.2,0.3,0.2
				c1.5-0.8,3.3,0.8,4.6-0.6C330.4,256.6,330.4,256.1,330.6,255.6z"/>
		</g>
	</g>
</g>
</svg>
