<?xml version="1.0" encoding="utf-8"?>
<!-- Generator: Adobe Illustrator 20.1.0, SVG Export Plug-In . SVG Version: 6.00 Build 0)  -->
<svg version="1.1" id="Layer_1" xmlns="http://www.w3.org/2000/svg" xmlns:xlink="http://www.w3.org/1999/xlink" x="0px" y="0px"
	 viewBox="0 0 500 500" style="enable-background:new 0 0 500 500;" xml:space="preserve">
<style type="text/css">
	.st0{fill:#FFFFFF;}
</style>
<g>
	<g>
		<g>
			<g>
				<path class="st0" d="M88.3,185.2l0.2-0.6C88.4,184.9,88.3,185,88.3,185.2z"/>
				<path class="st0" d="M67.5,271.9l-0.2-0.2C67.4,271.9,67.5,272,67.5,271.9z"/>
				<path class="st0" d="M88.8,282.5l0.3,0.5C89,282.7,88.9,282.6,88.8,282.5z"/>
				<g>
					<path class="st0" d="M77.3,255.9C77.3,255.9,77.3,255.9,77.3,255.9l0.3-0.5c0.1-0.2,0.2-0.4,0.2-0.6c0.1-0.4,0.3-0.8,0.4-1.1
						c0.5-1.5,0.8-2.8,1-4c0.2-1.2,0.4-2.3,0.5-3.2c0.2-0.9,0.3-1.7,0.5-2.2c0-0.2,0.1-0.3,0.1-0.4c0-0.1,0.1-0.2,0.2-0.5l0.5-1.4
						l1-2.8l2-5.7c1.4-3.8,2.7-7.6,4-11.4c1.4-3.8,2.8-7.6,4.2-11.4c1.4-3.9,2.8-7.8,4.1-11.7c1.4-3.9,2.7-7.9,4.1-11.8
						c2.8-7.9,5.6-15.7,8.8-23.5c3.4-8.3,6.7-16.5,10.1-24.8c1.7-4.1,3.3-8.3,5-12.4l2.4-6.2l1.2-3.1c0.4-0.9,0.7-1.9,1.2-2.7
						c1.7-3.6,4.2-6.8,7.1-9.4c1.5-1.3,3.1-2.5,4.8-3.6c1.7-1,3.5-2,5.4-2.8c7.6-3.2,16-4.2,24.9-4.8c4.3-0.3,8.6-0.6,13-1.1
						l6.4-0.8l3.1-0.4l3.2-0.3c2.1-0.2,4.2-0.3,6.4-0.4c2.1-0.1,4.3-0.2,6.4-0.2l6.5-0.1c2.2,0,4.4,0,6.7-0.2
						c1.2-0.1,2.4-0.1,3.6-0.2c1.2-0.1,2.4-0.3,3.5-0.4c2.2-0.3,4.2-0.5,5.9-0.2c0.1,0,0.2,0,0.4,0.1c0.2,0,0.4,0,0.6,0.1
						c0.6,0.1,1.3,0.1,2.1,0.2c0.4,0,0.8,0.1,1.2,0.1c0.4,0,0.9,0.1,1.3,0c0.9,0,1.9-0.1,2.8-0.1c0.5,0,0.9-0.1,1.4-0.2
						c0.5-0.1,0.9-0.2,1.4-0.2c0.9-0.2,1.8-0.2,2.5-0.5c1.5-0.5,2.7-0.9,3.2-1.1c0.5-0.2-1.1-0.1-3,0c-0.9,0.1-2,0-2.9,0
						c-0.9,0-1.7-0.1-2.2-0.1c-0.8-0.1-1.6-0.2-2.5-0.4c-0.4-0.1-0.9-0.1-1.3-0.2c-0.4-0.1-0.9-0.2-1.3-0.3c-1.8-0.4-3.6-1-5.4-1.1
						c-1.9-0.1-3.7,0-5.4,0.1c-1.7,0.1-3.1,0.2-4.3,0.2c-2.4,0-4.5,0.1-6.4,0c-1.9-0.1-3.7-0.1-5.5-0.2c-3.6-0.2-7.3-0.2-12.3-0.2
						c-2.6,0.1-5.2,0.1-7.8,0.3c-2.6,0.2-5.2,0.4-7.7,0.6c-5,0.4-10.1,0.5-15.2,0.8c-5.1,0.3-10.4,0.7-15.6,1.6
						c-5.3,0.9-10.5,2.5-15.6,4.9c-2.1,1-4,2.2-5.9,3.5c-1.9,1.4-3.7,2.9-5.3,4.7c-3.3,3.5-5.8,7.6-7.7,12
						c-3.3,7.8-6.5,15.7-9.9,23.4c-7.4,16.5-15.2,32.9-22.1,49.7c-3.7,9-7.6,17.9-11.5,26.8c-1,2.2-1.9,4.5-2.8,6.8l-2.7,6.8
						l-2.7,6.9l-1.3,3.4l-0.2,0.4c-0.1,0.1-0.1,0.3-0.2,0.5c-0.1,0.4-0.3,0.8-0.4,1.2c-0.2,0.8-0.4,1.6-0.5,2.3
						c-0.3,1.8-0.5,3.3-0.8,4.5c-0.1,0.6-0.2,1.1-0.3,1.6c-0.1,0.2-0.1,0.4-0.2,0.6l-0.1,0.3c0,0,0,0.1,0,0.1l0,0.1c0,0,0,0-0.1,0.1
						l-0.6,0.9l-0.6,0.9c-0.5,0.6-0.7,1.2-0.9,1.8c-0.1,0.1-0.1,0.3-0.2,0.5l-0.1,0.4l-0.2,0.8c-0.1,0.5-0.1,1.2-0.1,1.9
						c0,0.7,0.1,1.3,0.3,1.9c0.1,0.6,0.4,1.1,0.6,1.6c0.1,0.1,0.1,0.3,0.2,0.4l0.3,0.4l0.5,0.9c0.5,0.5,1,1.1,1.5,1.6l0.2,0.3
						c0.1,0.1,0,0.1,0.1,0.1l0.1,0.1c0,0,0.1,0.1,0.1,0.2c0.1,0.1,0.2,0.4,0.3,0.5c0.2,0.4,0.4,1,0.6,1.7c0.4,1.3,0.8,3.1,1.6,5.2
						c0.2,0.6,0.4,1.1,0.7,1.7l0.4,0.8l0.3,0.5l1.2,2.2l2.3,4.3c3.1,5.8,6.2,11.6,9.2,17.4c2.6,4.9,5.2,9.9,7.7,14.8
						c2.5,4.9,5,9.8,7.4,14.8l4.4,9.5c1.5,3.2,3,6.3,4.3,9.5c2.8,6.4,5.7,12.8,8.3,19.2l4.1,9.7l2.1,4.9c0.7,1.6,1.3,3.2,2,4.8
						c1.2,3.1,2.3,6.1,3.1,9.1c0.2,0.7,0.4,1.5,0.5,2.2l0.4,2.2c0.3,2.3,0.9,4.7,2,7c1,2.1,2.3,4.1,4,5.8c1.6,1.7,3.4,3.1,5.3,4.1
						c1.8,1.1,3.6,1.9,5.4,2.6c0.9,0.3,1.8,0.6,2.6,0.9c0.9,0.3,1.6,0.5,2.4,0.7c3.1,0.9,6.3,1.8,9.4,2.7c3.1,0.8,6.2,1.5,9.3,2.3
						c3.1,0.8,6.2,1.5,9.2,2.2c3,0.7,6.1,1.4,9.1,2.1c3,0.7,5.9,1.5,9,2.2c1.7,0.4,3.3,0.7,5,1.1c0.8,0.2,1.7,0.4,2.5,0.5l2.5,0.4
						c1.8,0.2,3.7,0.6,5.5,0.8c1.9,0.2,3.8,0.4,5.8,0.6c1.9,0.1,3.9,0.3,5.8,0.4l1.5,0.1l0.4,0l0.5,0l0.9,0l1.8,0
						c0.6,0,1.2-0.1,1.7-0.1c4.6-0.3,8.4-1.3,11.6-2.1c0.8-0.2,1.6-0.4,2.3-0.6c0.7-0.2,1.5-0.4,2.1-0.5c0.3-0.1,0.7-0.1,1-0.2
						l0.5-0.1c0.2,0,0.2-0.1,0.3-0.1c0.3-0.1,0.6-0.3,1-0.4c0.4-0.1,0.8-0.2,1.1-0.3c0.4-0.1,0.7-0.2,0.9-0.2
						c0.2-0.1,0.4-0.1,0.6-0.3c0-0.1,0.2,0,0.3,0c0.1,0,0.2,0,0.3,0c0.2,0,0.3-0.1,0.3-0.3c0,0.1-0.3,0-0.6-0.1
						c-0.1,0-0.2-0.1-0.2-0.2c0-0.3-0.4-0.6-0.8-0.8c-0.5-0.2-1.1-0.5-1.7-0.7c-0.3-0.1-0.7-0.2-1.1-0.3c-0.4-0.1-0.9-0.2-1.4-0.3
						c-3.7-0.8-7.9-1.2-8.5-1.2c-3.3-0.1-6.8-0.1-10-0.5c-0.8-0.1-1.6-0.2-2.4-0.4l-2.6-0.5c-1.7-0.4-3.4-0.7-5.1-1.1
						c-6.5-1.5-12.4-3.3-18.1-5.5c-6.1-2.2-12.6-4.4-19.5-6c-3.6-0.9-7.2-1.7-10.8-2.6l-5.3-1.3c-1.8-0.4-3.5-0.9-5.2-1.4l-5.2-1.4
						c-1.8-0.5-3.2-0.9-4.5-1.5c-1.3-0.5-2.4-1.1-3.3-1.8c-0.8-0.6-1.4-1.2-1.9-1.9c-0.5-0.7-0.8-1.5-1-2.6c-0.2-0.7-0.5-3.4-1-5.4
						c-0.9-4.2-2.2-8.1-3.7-11.8c-0.7-1.8-1.4-3.6-2.2-5.3l-2.1-5.1c-1.4-3.4-2.9-6.9-4.3-10.3c-4.9-11.7-10.1-23.4-15.7-35
						l-2.1-4.3l-2.2-4.3l-4.4-8.6l-2.2-4.3l-2.2-4.2l-4.4-8.4c-2.9-5.7-5.8-11.4-8.8-17.2c-0.7-1.5-1.5-2.9-2.2-4.4l-1.1-2.2
						l-0.3-0.5l-0.1-0.2c-0.1-0.1-0.1-0.4-0.2-0.5c-0.3-0.9-0.6-2.2-1.1-4.1c-0.2-0.9-0.6-2-1-3.1c-0.2-0.6-0.5-1.2-0.8-1.8
						c-0.2-0.3-0.3-0.6-0.5-0.9l-0.3-0.5L77.3,255.9L77.3,255.9C77.2,255.9,77.2,255.9,77.3,255.9z"/>
				</g>
			</g>
		</g>
	</g>
	<g>
		<g>
			<g>
				<path class="st0" d="M435.9,101.8l0.1,0.4C436,102,435.9,101.9,435.9,101.8z"/>
				<path class="st0" d="M389.1,72.1l0.1-0.2C389.1,72,389.1,72.1,389.1,72.1z"/>
				<path class="st0" d="M384.7,89.1c0,0-0.2,0.2-0.2,0.2C384.6,89.2,384.6,89.1,384.7,89.1z"/>
				<g>
					<path class="st0" d="M399.7,86.1c6.9,0.9,13.4,4.7,18.5,10.5c2.7,2.9,5,6.5,6.6,10.4c1.7,4,2.7,8.4,3.2,13
						c0.2,2.4,0.3,4.9,0.4,7.4c0,1.2,0.1,2.5,0,3.8l-0.1,3.7l-0.1,3.7c-0.1,1.2-0.2,2.5-0.3,3.7c-0.2,2.5-0.3,5-0.7,7.5
						c-0.2,1.3-0.3,2.5-0.5,3.7c-0.2,1.2-0.3,2.5-0.6,3.7c-0.5,2.5-1,4.9-1.6,7.3c-1.3,4.9-2.7,9.7-4.5,14.5
						c-0.8,2.3-1.6,4.6-2.4,6.9c-0.4,1.2-0.9,2.3-1.3,3.4c-0.4,1.1-0.8,2.3-1.3,3.4l-1.5,3.3l-0.8,1.7l-0.9,1.6
						c-0.6,1.1-1.2,2.1-1.8,3.2c-0.6,1-1.4,2-2.1,3c-1.5,2.1-3.2,4.2-4.8,5.9c-0.2,0.2-0.5,0.6-0.9,1.2c-0.2,0.3-0.4,0.5-0.7,0.9
						c-0.2,0.3-0.5,0.6-0.8,0.9c-0.5,0.6-1.1,1-1.6,1.5c-0.5,0.3-0.9,0.7-1.2,0.9c-0.2,0.2,0.5,0.2,1.4,0.1c0.9-0.1,2-0.4,2.5-0.7
						c1.5-0.6,3.4-1.9,5-3.4c1.6-1.5,3.1-3,4-4.1c0.9-1.1,1.7-2.1,2.4-3c0.8-0.9,1.3-1.8,1.9-2.6c0.6-0.9,1.2-1.8,1.8-2.8
						c0.6-1,1.2-2.1,1.9-3.4l1.1-2c0.3-0.7,0.7-1.4,1-2c0.6-1.4,1.3-2.7,1.9-4.1c1.2-2.8,2.4-5.5,3.5-8.3c1.1-2.8,2.1-5.6,3.2-8.4
						c1-2.8,2.1-5.6,3.1-8.5c0.4-1.2,0.8-2.3,1.2-3.5c0.4-1.2,0.7-2.4,1-3.6c0.5-2.5,1-5,1.4-7.4c0.3-2.5,0.6-5.1,0.9-7.6l0.2-1.9
						l0.1-1.9c0.1-1.3,0.2-2.5,0.3-3.8c0.1-1.4,0.3-2.7,0.3-4.1l0.2-4c0.1-2.7,0.1-5.5,0-8.3c-0.2-5.6-1.1-11.4-3.2-17.1
						c-2.2-6-5.4-11.7-9.8-16.7c-0.5-0.7-1.1-1.2-1.7-1.8l-1.8-1.7c-1.3-1.1-2.6-2.1-4-3.1l-2.2-1.3c-0.7-0.4-1.5-0.9-2.2-1.2
						c-1.6-0.7-3.1-1.5-4.8-1.9c-6.5-2-13.6-2.4-20.2-0.6c-6.6,1.7-12.6,5.2-17.3,9.7l-1.1,1l-0.5,0.5l-0.5,0.6l-2,2.3l-1.7,2.5
						c-0.3,0.4-0.6,0.8-0.8,1.3l-0.7,1.3c-1.8,3.5-3.1,7.1-4,10.5c-0.6,2.2-1,4.3-1.5,6.4c-0.4,2.1-0.8,4.4-1,6.6
						c-0.5,4.4-0.6,8.9-0.4,13.2c0.4,8.8,2.1,17.3,4.1,25.4c1.8,7.3,3.6,14.4,5.4,21.6c1.7,7.1,3.6,14.1,5.9,21.1
						c2.5,7.4,5.5,17.6,10.3,23c1.3,1.5,2.7,1.5,3.8,1.2c-0.9,0.3-1.2-2-1-4.4c0.1-2.4,0.4-4.9,0.4-5.2c0-3.9-0.7-8.1-1.1-12.1
						c-0.8-7.8-0.9-15-2.8-23c-1-4.2-2.1-8.4-3.2-12.5c-1.1-4.1-2.2-8.1-3.2-12.1c-2-8-3.5-15.9-3.9-23.8c-0.1-3.3-0.1-6.7,0.2-10
						l0.2-2.5c0.1-0.8,0.2-1.6,0.3-2.4c0.1-0.8,0.3-1.6,0.4-2.5c0.2-0.9,0.3-1.7,0.5-2.5c0.7-3.3,1.6-6.3,2.8-8.8l1-1.8
						c0.4-0.6,0.7-1.1,1.1-1.6c0.4-0.5,0.8-1,1.2-1.5l0.3-0.4l0.4-0.4l0.8-0.7c2.6-2.3,5.5-4.1,8.7-5.1
						C393.1,85.9,396.5,85.7,399.7,86.1z"/>
				</g>
			</g>
		</g>
	</g>
	<g>
		<g>
			<g>
				<path class="st0" d="M257.5,439.3l0-0.4C257.5,439,257.5,439.2,257.5,439.3z"/>
				<path class="st0" d="M288,483l-0.1,0.1C288,483.1,288,483.1,288,483z"/>
				<path class="st0" d="M298.6,469.3l0.2-0.1C298.7,469.2,298.6,469.3,298.6,469.3z"/>
				<g>
					<path class="st0" d="M284.7,466.2c-5-3.1-9-9.6-12.2-16.9c-0.8-1.8-1.4-3.6-2-5.4c-0.5-1.8-0.8-3.5-0.8-5.3
						c-0.1-3.6,1-7.4,2.9-11.3c1-2.1,2.2-4.1,3.4-6.2c0.6-1.2,1.3-2.4,1.9-3.6l1.5-3.8c1.7-5.2,2.2-10.7,1.8-15.9
						c-0.1-1.3-0.3-2.6-0.4-3.9c-0.1-1.3-0.4-2.5-0.5-3.8l-0.1-0.9l-0.2-1c-0.1-0.7-0.3-1.4-0.5-2.1c-0.4-1.4-0.9-2.7-1.5-4
						c-1.2-2.6-2.8-5-4.8-7c-2-2.1-4.5-3.9-7.5-4.9c-2.8-1-6.1-1.2-9-0.5c-1.7,0.4-2.4,0.7-3.5,1c-1,0.3-2.1,0.5-3.1,0.7
						c-4.2,0.8-8.6,0.6-12.8-0.7c-2.2-0.7-4.4-1.7-6.5-2.7c-0.4-0.2-1.4-0.5-2.7-0.9c-1.3-0.4-2.7-0.8-3.8-1.2
						c-0.5-0.2-1-0.3-1.4-0.3c-0.4-0.1-0.5,0-0.7,0c-0.1,0,0,0.1,0.2,0.4c0.2,0.2,0.9,0.6,1.4,1c0.8,0.7,1.5,1.3,1.9,1.6
						c1.3,1.1,3,2.3,4.8,3.4c1.7,1.1,3.5,2,4.8,2.5c2.5,1,4.5,1.6,6.5,2c2,0.4,4.1,0.6,7,0.6c0.7,0,1.5-0.1,2.2-0.1l1.1-0.1l1.1-0.2
						c0.7-0.1,1.5-0.2,2.2-0.4c0.7-0.2,1.5-0.4,2-0.4c2.3-0.4,4.5-0.1,6.5,0.8c4,2,6.9,6.4,7.6,10.9c0.1,0.5,0.1,0.9,0.2,1.4
						c0,0.5,0.1,0.9,0.1,1.4c0.1,1.1,0.1,2.1,0.2,3.2c0.1,2.1,0.2,4.3,0.2,6.4c-0.1,4.2-0.7,8.2-2.4,11.8c-0.5,1-0.9,1.9-1.5,2.8
						c-0.6,0.9-1,1.7-1.8,2.9c-1.4,2.1-2.8,4.3-4.2,6.7c-1.3,2.3-2.6,4.9-3.4,7.8c-0.9,2.9-1.4,6-1.4,9.1c0,3.3,0.5,6.4,1.2,9.4
						c0.3,1.5,0.7,2.9,1.1,4.3c0.5,1.4,0.9,2.8,1.4,4.1c0.5,1.4,1,2.8,1.7,4.1l1,2.1l1.1,2c0.7,1.4,1.7,2.6,2.6,3.9
						c0.5,0.6,1,1.3,1.6,1.9c0.5,0.6,1.1,1.2,1.7,1.8l1.8,1.7c0.7,0.5,1.3,1,2,1.5c0.6,0.5,1.4,1,2.1,1.4c0.7,0.4,1.4,0.9,2.2,1.2
						c3,1.5,6.2,2.4,9.4,3c6.4,0.9,12.6,0.2,18.2-1.1c6.5-1.5,12.5-3.8,18.4-6.1c7.3-2.9,14.2-6.1,21-8.5c3.4-1.2,6.8-2.2,10.2-2.9
						c3.4-0.7,6.7-1.1,10.3-1.2c6.5-0.2,12.9,0.6,19.2,1.9c6.3,1.3,12.5,2.9,18.9,4.7c3.4,0.9,7.3,2.2,11.1,3.3c3.8,1.1,7.7,2,11,2
						c1.6,0,2.6-0.9,3.2-2c-0.4,0.8-2-0.5-3.5-2.1c-1.6-1.6-3.1-3.4-3.4-3.6c-2.8-2.4-6.4-4.4-9.7-6.4c-6.5-3.9-12.6-7.6-20.5-9.5
						c-8.3-2-16.9-3-25.6-2.8c-1.1,0-2.2,0.1-3.3,0.1l-1.6,0.1c-0.5,0-1.1,0.1-1.7,0.2c-1.1,0.1-2.3,0.2-3.4,0.4l-3.3,0.6
						c-4.4,0.9-8.7,2.1-12.8,3.6c-6.9,2.5-13.4,5.4-19.6,8.1c-3.1,1.3-6.2,2.6-9.2,3.7c-3,1.1-6.1,2-9.1,2.7
						c-3.5,0.8-7,1.1-10.2,0.7C289.8,468.7,287.1,467.7,284.7,466.2z"/>
				</g>
			</g>
		</g>
	</g>
	<g>
		<g>
			<g>
				<path class="st0" d="M419.4,397.2l0.1-0.3C419.4,397,419.4,397.1,419.4,397.2z"/>
				<path class="st0" d="M391.5,416.4l0.1-0.1C391.5,416.3,391.5,416.4,391.5,416.4z"/>
				<path class="st0" d="M374.8,421.9l-0.3-0.2C374.7,421.8,374.8,421.9,374.8,421.9z"/>
				<g>
					<path class="st0" d="M397.1,433.2c3.1,0.5,6.9,0.4,10.4-0.7c0.9-0.3,1.8-0.6,2.6-1.1l1.2-0.6c0.4-0.2,0.8-0.5,1.2-0.7
						c0.4-0.3,0.8-0.5,1.1-0.8l1-0.9l0.5-0.4c0.2-0.1,0.3-0.3,0.4-0.4l0.7-0.7l2.6-2.8c0.9-0.9,1.6-2,2.4-3c1.6-2,2.9-4.3,4.2-6.5
						c0.7-1.1,1.2-2.4,1.8-3.6l0.8-1.8c0.3-0.6,0.5-1.2,0.7-1.8l1.3-3.7l1-3.8c0.2-0.6,0.3-1.2,0.5-1.9l0.4-1.9
						c0.2-1.3,0.5-2.5,0.7-3.8c0.2-1.3,0.3-2.5,0.5-3.8c0.1-0.6,0.2-1.3,0.3-1.9l0.2-1.8c0.3-2.6,0.5-5.2,0.8-7.7
						c0.2-1.3,0.2-2.6,0.2-3.9l0.2-3.9l0.1-3.9c0-1.3-0.1-2.6-0.1-3.9c-0.1-2.6-0.2-5.2-0.4-7.8c-0.8-5.2-1.1-10.3-2-15.4
						c-0.9-5.1-2-10.2-3.5-15.3c-1.5-4.9-3.7-9.6-6.2-14c-2.5-4.4-5.4-8.6-8.3-12.8c-1.5-2.3-3.1-4.5-4.9-6.6
						c-0.5-0.5-1.9-1.9-3.6-3.1c-0.4-0.3-0.8-0.6-1.2-0.9c-0.5-0.3-1-0.7-1.4-1c-0.3-0.2-0.8-0.4-1.1-0.5c-0.2,0-0.5-0.1-0.6-0.1
						c-0.3,0-0.6,0-0.7,0c-0.3,0-0.4,0.1-0.5,0.1c0,0-0.1,0.1,0.1,0.3c0.2,0.2,0.6,0.3,1.6,0.8c0.2,0.1,0.4,0.2,0.5,0.3
						c0.1,0.1,0.1,0.1,0.2,0.2l0,0l0,0l0.2,0.1l0,0l0,0l0,0l0,0l0.1,0.1l0.1,0.2c0.1,0.2,0.3,0.5,0.4,0.7c0.3,0.4,0.5,0.8,0.7,1
						c1,1.5,2.2,3.4,3.3,5.2c1.1,1.8,2.1,3.6,2.8,4.8c1.5,2.3,2.4,4.1,3.3,5.9c0.5,0.9,0.9,1.8,1.5,2.8c0.5,1,1,2,1.7,3.3
						c5.1,10.3,7.9,21.3,8.2,32.5l0.1,1.7l0,1.7c0,1.2,0.1,2.3,0.1,3.5c0.1,1.2,0.1,2.3,0.2,3.5l0.1,1.7l0,1.8c0,2.3,0,4.7,0.1,7
						c0,0.6,0,1.2,0,1.7l-0.1,1.7c-0.1,1.2-0.2,2.3-0.3,3.5c-0.4,5-1.5,9.9-2.3,14.8c-1,4.6-2.3,9.1-4,13.3
						c-1.8,4.5-4.5,8.7-7.6,12.4l-2.5,2.7c-0.9,0.9-1.8,1.7-2.7,2.5c-0.4,0.4-1,0.9-1.2,1.1c-0.1,0.1-0.3,0.2-0.4,0.3
						c-0.1,0.1-0.3,0.2-0.4,0.2c-0.1,0.1-0.3,0.2-0.4,0.2l-0.4,0.2c-0.3,0.1-0.6,0.2-0.9,0.3c-0.6,0.2-1.3,0.2-2.1,0.2l-0.6,0
						c-0.2,0-0.4,0-0.7-0.1l-1.6-0.2c-2.1-0.4-4.2-1-6.2-1.9c-3.9-1.7-7.3-4.5-10-8.1c-3.2-4.2-5.6-9.5-7.3-15
						c-2.1-6.9-3.3-14.1-3.5-21.6c0-1.9-0.1-3.7,0-5.6l0.1-2.8l0.2-2.8c0.2-3.8,0.7-7.5,1.3-11.2c1.1-6.7,3.3-13.1,5.8-19.4
						c2.4-6.2,5.6-12.2,8.5-18.4c0.4-0.8,0.9-1.7,1.3-2.6c0.5-1,1-2,1.5-3c0.5-1.1,1-2.2,1.5-3.3c0.4-1.2,0.9-2.3,1.3-3.6
						c0.2-0.6,0.3-1.3,0.5-1.9l0.2-0.9c0.1-0.4,0.1-0.7,0.2-1.1c0.1-0.7,0.2-1.4,0.3-2.1c0-0.3,0.1-0.7,0.1-1c0-0.3,0-0.5,0-0.8
						c0-0.5-0.1-1-0.1-1.5c0-0.2-0.1-0.5-0.1-0.7l0,0l0,0c0,0.1,0.1-0.6,0-0.3l0,0l0,0l0,0c0,0,0,0-0.1,0c-0.2,0-0.4-0.1-0.6-0.1
						c-0.7-0.1-1-0.3-0.9-0.3c0,0,0,0,0,0l0.1,0.1c0.1,0.1,0.2,0.1,0.2,0.2c0,0,0,0.1,0.1,0.1c0.2,0.1,0.1,0,0.1,0l-0.1-0.1
						c-0.1-0.4,0-1.1-0.1-1.7c-0.1-0.6-0.3-1.2-0.6-1.7c0.3,0.4-0.1,0.8-0.7,1.1c-0.6,0.3-1.2,0.5-1.8,1.2c-0.2,0.2-0.3,0.4-0.4,0.6
						c-0.2,0.3-0.3,0.5-0.4,0.8c-0.3,0.5-0.6,0.9-0.8,1.4c-0.5,0.8-0.9,1.4-1,1.5c-1.9,3.2-3.9,6.5-6.4,9.5
						c-1.2,1.5-2.4,2.9-3.7,4.3c-0.6,0.7-1.2,1.5-1.9,2.2c-0.6,0.8-1.2,1.5-1.8,2.3c-1.1,1.6-2.3,3.1-3.3,4.8c-1,1.7-2,3.5-2.9,5.4
						c-3.7,8.1-6.3,16.7-7.9,25.5c-0.5,2.2-0.7,4.4-1,6.6c-0.1,1.1-0.3,2.2-0.4,3.3l-0.2,3.3l-0.2,3.3c0,1.1-0.1,2.2-0.1,3.4
						c-0.1,2.2,0,4.5,0,6.8c0.2,7.7,1.4,15.5,3.7,23.1c0.6,1.9,1.2,3.8,1.9,5.6l1.1,2.8c0.4,0.9,0.8,1.8,1.2,2.7
						c1.7,3.6,3.8,7.2,6.4,10.6c1.5,2,3.3,4,5.2,5.8c2,1.8,4.1,3.5,6.4,5C386.4,430.6,391.8,432.4,397.1,433.2z"/>
				</g>
			</g>
		</g>
	</g>
	<g>
		<g>
			<g>
				<path class="st0" d="M327.2,33.9l0.4,0C327.4,33.9,327.3,33.8,327.2,33.9z"/>
				<path class="st0" d="M275.6,31.5l0.1-0.2C275.6,31.4,275.5,31.5,275.6,31.5z"/>
				<path class="st0" d="M269.7,47.7l-0.1,0.1C269.6,47.8,269.6,47.8,269.7,47.7z"/>
				<g>
					<path class="st0" d="M286.1,45.9c2.4,0.1,4.8,0.2,7.1,0.2c2.3,0,4.6,0,6.9-0.1c2.3-0.1,4.5-0.1,6.7-0.2l3.3-0.1l3.2,0l3.3-0.1
						l1.7,0l1.7,0c2.3,0,4.5,0.2,6.8,0.3c2.3,0.2,4.6,0.4,7.1,0.6c0.6,0,1.3,0.1,1.9,0.2l2,0.1c1.3,0.1,2.6,0,4,0
						c1.3-0.1,2.8-0.1,4-0.2l3.9-0.4c1.3-0.1,2.6-0.4,3.9-0.5c1.3-0.2,2.6-0.4,3.9-0.7c5.1-1,10.1-2.4,14.9-4
						c4.9-1.8,9.6-3.5,14.3-5.2c1.2-0.5,2.3-0.8,3.4-1.1c1.1-0.4,2.3-0.7,3.4-1.1c2.3-0.6,4.7-1,7-1.6c2.3-0.3,4.6-0.7,6.9-1
						l3.5-0.3c1.2-0.1,2.3-0.3,3.5-0.3c4.7-0.2,9.4-0.1,14,0.9c1.2,0.3,2.5,0.6,3.7,0.9c1.2,0.3,2.4,0.7,3.6,1
						c0.3,0.1,0.9,0.2,1.7,0.3c0.9,0.1,1.9,0.2,2.9,0.3c0.6,0,0.9,0,0.9,0l0,0c0,0,0.1-0.2,0.1-0.2c0.1-0.1,0.1-0.3,0.2-0.4l0.2-0.3
						c0-0.1,0.1-0.2,0.2-0.3c0.1-0.1,0.2-0.2,0.2-0.3c0,0,0.1-0.1,0.1-0.1c0,0,0,0-0.1,0c-0.1,0-0.2,0.1-0.3,0.1
						c-0.3,0.1-0.5,0-0.9,0.1l-0.1,0c0,0,0,0,0,0l0,0c0,0,0,0,0,0c0,0,0,0.1,0.1,0.1c0,0.1,0.1,0,0.3,0c0.1-0.1,0.1-0.1,0.2-0.1
						c0,0,0.2,0,0.4,0c0.2,0,0.2,0,0.4-0.1c0.1,0,0.1-0.1-0.2,0.2c-0.1,0.1,0,0,0-0.1c0,0-0.1-0.1-0.1-0.2c-0.2-0.2-0.6-0.4-0.9-0.5
						c-0.9-0.4-1.8-0.8-2.7-1.3c-0.9-0.4-1.9-0.9-2.9-1.3c-0.5-0.2-1-0.4-1.4-0.6c-0.5-0.2-0.9-0.3-1.4-0.5
						c-0.9-0.3-1.7-0.6-2.4-0.8c-1.3-0.4-2.5-0.8-3.6-1c-1.1-0.2-2.1-0.4-3.1-0.6c-1-0.2-2-0.4-3.2-0.5c-1.1-0.1-2.4-0.2-3.8-0.3
						c-3-0.3-5.9-0.1-8.9-0.1l-1.1,0l-1.1,0.1l-2.2,0.2l-2.2,0.2c-0.7,0.1-1.5,0.1-2.2,0.3l-4.4,0.8c-0.7,0.1-1.5,0.2-2.2,0.4
						l-2.2,0.5l-4.4,1c-1.4,0.3-2.8,0.7-4.2,1c-9,2.1-17.9,5.4-26.8,6.5c-2.4,0.2-4.8,0.5-7.2,0.5c-2.4,0.1-4.8,0.1-6.9-0.1
						c-1.1-0.1-2.2-0.3-3.2-0.4c-1.1-0.2-2.2-0.4-3.5-0.7l-3.7-0.8c-1.3-0.3-2.6-0.5-3.9-0.7c-1.4-0.2-2.8-0.4-4.2-0.6
						c-1.4-0.2-2.8-0.4-4.2-0.5l-4.3-0.5c-1.4-0.2-2.9-0.3-4.2-0.4c-2.8-0.2-5.6-0.4-8.4-0.5c-2.7-0.1-5.4-0.2-8.2-0.2l-7.8-0.2
						l-2.2,0c-0.8,0-1.7,0-2.5,0.1c-1.6,0.1-3.3,0.3-4.8,0.6c-3.1,0.6-6.1,1.4-8.9,2.4c-3.2,1.1-6.9,3.2-9.6,6.3
						c-1.6,1.8-2.7,3.9-3.6,5.9c-0.8,2.1-1.3,4.1-1.6,6c-0.3,1.9-0.4,3.8-0.4,5.6l0,1.3l0,1.4c0,0.9,0.1,1.9,0.2,2.8
						c0.4,4.6,1.5,8.8,2.5,12.6l0.7,2.8l0.7,2.8l1.4,5.8l2.8,11.5c0.9,3.8,1.7,7.6,2.5,11.5c0.3,1.5,0.6,3.1,0.9,4.6l0.4,2.3
						c0.1,0.8,0.3,1.6,0.3,2.1l0.2,1.8l-0.1,1.8c0,0.3,0,0.6,0,0.9l-0.1,0.9c-0.1,0.6-0.1,1.2-0.3,1.8c-0.2,0.6-0.3,1.1-0.4,1.7
						l-0.3,1.3c-0.1,0.6-0.3,1.3-0.4,1.9L262,133l0,0.1c0,0,0,0,0,0l0,0l0,0l0,0c0,0-0.1,0-0.1,0c-0.1,0-0.2-0.1-0.1-0.1
						c0,0,0,0,0,0l0,0l-0.1,0c-0.1,0,0,0-0.2,0l-0.5-0.1c-3.5-0.6-7.9-1.6-12.4-2.1c-2.2-0.3-4.4-0.4-6.6-0.3
						c-2.2,0.1-4.3,0.3-6.5,1.1c-0.3,0.1-0.6,0.2-0.8,0.3c-0.2,0.1-0.5,0.3-0.7,0.4c-0.4,0.3-0.6,0.7-0.8,1c-0.3,0.7-0.2,1.3,0,1.9
						c-0.1-0.4,0.4-0.9,1.5-0.9c1,0,2.2,0.4,3.3,0.9c2.1,1,4.1,2.4,4.4,2.6c3.4,1.8,7.2,3.1,10.8,4.7c1.7,0.8,3.3,1.5,5,2.2l0.6,0.3
						c0.2,0.1,0.4,0.2,0.7,0.3c0.6,0.2,1.2,0.4,1.9,0.6c1.3,0.4,2.7,0.8,4.2,1c3,0.4,6.2-0.1,8.6-2.2c1.2-1,2.1-2.4,2.6-3.8
						c0.2-0.7,0.5-1.4,0.5-2.3c0-0.4,0.1-0.9,0.1-1.3c0-0.4,0.1-0.9,0-1.4l-0.2-1.5l-0.1-0.7c0-0.2,0-0.2,0-0.3c0-0.3,0-0.7,0.1-0.9
						c0.1-0.3,0.1-0.2,0.3-1l0.4-1.9c0.1-0.6,0.3-1.3,0.4-1.9l0.2-1.9l0.2-1.9l0-1.9l0-1.9c0-0.6-0.1-1.3-0.2-1.9l-0.2-1.9
						c0-0.4-0.1-0.6-0.1-0.9l-0.2-0.8l-1.3-6.2c-0.9-4.1-1.8-8.3-2.7-12.4c-1-4.1-1.9-8.1-2.9-12.2l-1.2-5.2
						c-0.4-1.7-0.9-3.7-1.3-5.3c-0.9-3.5-1.8-6.7-2.3-9.7c-0.3-1.5-0.4-2.9-0.5-4.3c-0.1-1.4,0-3,0.1-4.3c0.1-1.3,0.4-2.5,0.7-3.4
						c0.3-0.9,0.8-1.6,1.3-2.1c0.6-0.6,1.4-1.2,2.6-1.6c0.5-0.2,1.5-0.5,2.4-0.8c0.9-0.3,1.8-0.5,2.7-0.7c1.8-0.4,3.5-0.6,5.1-0.6
						l1.2,0l1.2,0.1L286.1,45.9z"/>
				</g>
			</g>
		</g>
	</g>
	<g>
		<g>
			<g>
				<path class="st0" d="M296.8,281.7l0,0.2C296.8,281.8,296.8,281.8,296.8,281.7z"/>
				<path class="st0" d="M318.3,252.2l0.1,0.1C318.4,252.3,318.3,252.2,318.3,252.2z"/>
				<path class="st0" d="M301.6,251L301.6,251C301.6,251,301.6,251,301.6,251z"/>
				<g>
					<path class="st0" d="M301.2,251.5L301.2,251.5l-0.4,0.3l-1,0.7l-2.3,1.5c-1.6,1-3.3,2.2-5,3.6c-1.7,1.4-3.5,3.1-5.2,5.2
						c-1.7,2.1-3,5-3.5,8c-0.1,0.8-0.2,1.5-0.3,2.3c0,0.7,0,1.5,0.1,2.2l0,0.5c0,0.2,0,0.4,0,0.5l0.1,0.6l0.1,0.6l0.1,0.7
						c0.3,1.8,0.5,4,1,6.4c0.2,0.6,0.3,1.2,0.5,1.9c0.2,0.7,0.5,1.3,0.8,1.9c0.3,0.6,0.7,1.3,1.1,1.9c0.4,0.6,0.8,1,1.2,1.5l0.6,0.8
						l0.7,0.7c0.5,0.5,0.9,0.9,1.4,1.3l1.5,1.2c0.5,0.4,1.1,0.7,1.6,1c2.3,1.4,4.9,2.3,7.4,2.6c2.5,0.4,5,0.3,7.4,0
						c2.4-0.4,4.7-1.1,6.9-2.1l1.6-0.8c0.5-0.3,1-0.6,1.5-0.9c0.5-0.3,1-0.7,1.5-1.1l0.7-0.6l0.6-0.5c6.1-5.3,12.5-9.8,19.3-14
						c1.7-1,3.3-2,4.8-3.1l4.8-3.1c1.6-1.1,3.3-2,5-2.9c1.7-0.9,3.4-1.8,5.2-2.3c1.9-0.7,3.9-1.3,5.8-1.9c1-0.2,5.4-2.7,6.2-3.5
						c0.4-0.3-2.7-0.2-3.6-0.2c-1.4,0.1-3.2,0.2-5,0.4c-1.7,0.3-3.3,0.6-4.4,0.9c-1.1,0.3-2,0.5-2.9,0.8c-0.9,0.3-1.6,0.6-2.4,0.8
						c-1.6,0.6-3.1,1.2-5.2,2.1c-8.6,4.1-16.5,8.9-24.9,13.4c-1.7,0.9-3.3,1.9-4.9,3c-0.8,0.5-1.6,1.1-2.4,1.7
						c-0.8,0.6-1.6,1.2-2.2,1.5c-1.2,0.8-2.6,1.5-4,2c-0.7,0.3-1.5,0.4-2.2,0.6c-0.7,0.1-1.5,0.2-2.2,0.2c-1.6,0-3.1-0.2-4.4-0.7
						c-1.3-0.5-2.4-1.2-3.2-2c-0.2-0.2-0.4-0.4-0.6-0.6c-0.2-0.2-0.3-0.5-0.5-0.7c-0.2-0.2-0.3-0.5-0.5-0.8
						c-0.1-0.2-0.4-0.6-0.4-0.7c-0.2-0.6-0.4-1.7-0.5-3.4c0-0.4,0-0.9,0-1.4l0-1.6l0-0.9l0-1l0-0.5l0-0.2c0-0.1,0-0.1,0-0.1
						c0-0.1,0-0.3,0-0.4c0.1-1,0.4-1.7,1.1-2.5c0.6-0.8,1.8-1.8,3.3-2.8c1.4-1,3.2-2.1,5-3.2c0.9-0.6,1.9-1.2,2.9-1.9l0.4-0.2
						c0.1-0.1,0.2-0.1,0.4-0.3l1.2-0.9c0.8-0.6,1.6-1.2,2.3-1.9c3.1-2.6,5-5.7,5.1-9.3c0.1-3.7-1.8-6.6-4.9-9.2
						c-0.7-0.7-1.5-1.3-2.3-1.9l-1.5-1.2c-0.8-0.7-1.6-1.4-2.3-2c-3.4-3.2-6.5-6.6-8.1-9.9c-0.1-0.3-0.3-0.5-0.4-0.8l-0.3-0.7
						c-0.1-0.3-0.1-0.3-0.1-0.4c0-0.1,0-0.2,0-0.2c0-0.2,0-0.4,0.1-0.6c0.1-0.2,0.3-0.3,0.5-0.4c0,0,0.2-0.1,0.4-0.2
						c0.2-0.1,0.4-0.2,0.7-0.3c0.5-0.2,1-0.4,1.5-0.5c1.1-0.3,2.3-0.5,3.5-0.7c1.2-0.1,2.5-0.2,3.5-0.1c0.2,0,0.6,0.1,0.9,0.1l1,0.2
						c0.7,0.1,1.3,0.2,2,0.3l2,0.5c0.7,0.2,1.3,0.3,2,0.6c4.8,1.6,9.3,4.4,14.1,7.3c2.4,1.5,4.8,2.9,7.2,4.4
						c2.3,1.4,4.7,2.7,7.2,4.1c1.3,0.7,2.7,1.5,4.2,2.3c1.5,0.8,3,1.7,4.6,2.4c3.1,1.5,6.5,2.7,9.4,2.8c1.5,0.1,2.5-0.8,3.1-1.8
						c-1,1.6-4.6-5.4-4.9-5.8c-1.9-2.5-4.4-4.7-6.6-7c-2.2-2.2-4.2-4.5-6.4-6.7c-1.1-1.1-2.3-2.1-3.5-3.1c-0.6-0.5-1.3-1-1.9-1.5
						c-0.6-0.5-1.3-0.9-2-1.3c-2.8-1.8-5.8-3.6-8.9-5.3c-3.2-1.6-6.5-3.3-10.1-4.5c-1.8-0.7-3.7-1.2-5.5-1.7
						c-0.9-0.3-1.9-0.4-2.9-0.6l-2.9-0.5c-2.4-0.3-4.5-0.2-6.6,0c-2.1,0.2-4.2,0.5-6.3,1.1c-1.8,0.5-3.7,1.2-5.6,2.2
						c-1.2,0.6-2.3,1.4-3.4,2.3c-1,0.9-2,1.9-2.7,3.1c-0.8,1.1-1.4,2.4-1.8,3.7c-0.4,1.3-0.6,2.7-0.6,4c0,1.4,0.2,2.8,0.6,4
						c0.2,0.6,0.4,1.3,0.6,1.9c0.1,0.4,0.2,0.5,0.3,0.8l0.3,0.7c1.6,3.6,3.6,6.5,5.8,9.1c2.1,2.6,4.4,4.8,6.7,6.9
						c0.7,0.6,1.3,1.2,2,1.9c0.6,0.6,1.6,1.5,1.4,1.3c0,0.1,0.1,0.2,0,0.2C301.4,251.5,301.2,251.5,301.2,251.5z"/>
				</g>
			</g>
		</g>
	</g>
	<g>
		<g>
			<g>
				<path class="st0" d="M211.9,398.2l0.1,0.1C212,398.2,211.9,398.2,211.9,398.2z"/>
				<path class="st0" d="M195.8,390L195.8,390C195.8,390,195.8,390,195.8,390z"/>
				<path class="st0" d="M187.8,397.9l-0.1,0C187.8,397.9,187.8,397.9,187.8,397.9z"/>
				<g>
					<path class="st0" d="M194.2,401.6c2.9,1.5,6,2.8,9.2,3.7c1.6,0.4,3.3,0.8,4.9,1.3c1.6,0.4,3.2,1,4.7,1.8
						c3.2,1.6,6.3,3.4,9.7,4.8c1.7,0.7,3.3,1.5,4.9,2.3c1.6,0.9,3.2,1.7,4.8,2.6c0.8,0.4,1.6,0.8,2.4,1.1c0.8,0.3,1.7,0.6,2.5,0.9
						c1.7,0.6,3.3,1.2,5,2c0.9,0.4,1.7,1,2.5,1.4c0.2,0.1,0.6,0.2,1.2,0.3c0.6,0.1,1.3,0.1,1.8,0.1c0.5-0.1,0.8-0.2,1-0.2
						c0.2-0.1-1.1-0.9-1.5-1.3c-0.2-0.1-0.3-0.2-0.6-0.4c-0.9-1-2.1-2.1-2.8-2.6c-0.8-0.6-1.4-1-2-1.4c-0.6-0.4-1.2-0.8-2.1-1.3
						c-0.9-0.5-1.8-1-2.7-1.5c-0.9-0.5-1.8-1.1-2.6-1.6c-1.7-1.1-3.4-2.3-5-3.7c-2.6-2.3-5.9-3.5-8.7-5.5c-1.5-1.1-3-2.2-4.6-3.3
						c-1.5-1.1-3.1-2.1-4.8-2.9c-3.7-1.8-6.9-4.1-10.4-5.7c-3.5-1.6-7.1-3.1-10.6-4.9c-2.1-1-4.1-2-6.4-3c-1.3-0.6-3-1.3-3.9-1.7
						l-0.4-0.2c0,0-0.1,0-0.1-0.1c-0.1,0-0.2-0.1-0.2-0.2c-0.1-0.1-0.2-0.4-0.1-0.6c0.1-0.2-0.1,0.1,0.3-0.6
						c0.1-0.3,0.2-0.5,0.4-0.8l0.5-1c0.3-0.6,0.7-1.5,1-2.1c0.3-0.7,0.6-1.4,0.9-2c0.5-1.3,1-2.4,1.5-3.4c0.5-1,0.9-1.7,1.3-2.3
						c0.4-0.5,0.6-0.8,0.9-1.1c0.1-0.1,0.1-0.2,0.3-0.2c0,0,0.1-0.1,0.1-0.1l0.3-0.2c0.4-0.2,1.1-0.6,1.9-1c0.4-0.2,0.8-0.5,1.2-0.8
						c0.5-0.3,0.8-0.6,1.3-1.1c0.8-0.8,1.6-1.9,1.9-3c0.3-1.2-0.5-1.9-1.2-2.3c0.3,0.2,0.2,0.4-0.1,0.7c-0.2,0.1-0.4,0.3-0.6,0.3
						c-0.2,0.1-0.5,0.1-0.8,0.1c-1.1,0.1-2.1-0.3-2.2-0.3c-1.5-0.2-2.8-0.2-4.6-0.1c-1.7,0.1-3.7,0.6-5.3,1.6
						c-1.7,1-3.1,2.5-3.9,4.1c-0.9,1.7-1.5,3.3-2,4.7c-0.5,1.4-1,2.6-1.4,3.5c-0.3,0.5-0.6,1.2-1,2c-0.2,0.4-0.4,0.8-0.6,1.4
						c-0.3,0.7-0.5,1.4-0.7,2.1c-0.4,1.4-0.4,2.9-0.2,4.3c0,0.4,0.1,0.7,0.2,1l0.3,1c0.1,0.3,0.3,0.6,0.4,1c0.2,0.3,0.3,0.6,0.5,0.9
						c1.2,2.1,3.4,3.6,5.6,4.6c0.8,0.4,1.5,0.6,2.2,0.9l1.7,0.7c1.1,0.5,2.2,0.8,3.3,1.4l3.4,1.6
						C188.7,398.5,191.4,400.1,194.2,401.6z"/>
				</g>
			</g>
		</g>
	</g>
	<g>
		<g>
			<g>
				<path class="st0" d="M172.6,346.3L172.6,346.3C172.6,346.3,172.6,346.3,172.6,346.3z"/>
				<path class="st0" d="M171.2,338.4l0.1,0C171.2,338.4,171.2,338.4,171.2,338.4z"/>
				<path class="st0" d="M161.1,334.5l0-0.1C161.1,334.5,161.1,334.5,161.1,334.5z"/>
				<g>
					<path class="st0" d="M160.2,340.9c0.1,2.3,0.7,4.7,2.1,7c1.4,2.3,3.6,4.2,5.6,6c2.1,1.9,4.6,3.2,7.2,3.6
						c2.5,0.3,4.8,0.7,7.1,0.8c1,0.1,1.8-0.1,2.7,0c0.2,0,0.4,0,0.7,0c0.2,0,0.4,0.1,0.6,0.1c0.2,0.1,0.4,0.1,0.6,0.2
						c0.2,0.1,0.3,0.2,0.4,0.3c0.2,0.3,0.5,0.5,0.5,0.8c0,0,0.1,0.1,0.2,0.1c0.1,0,0.2,0,0.4,0.2c0.4,0.2,0.9,0.4,1.1,0.4
						c0.2,0,0.2-1.1,0.2-1.4c0-0.5,0-1-0.1-1.6c0-0.3-0.1-0.5-0.3-0.7c-0.1-0.2-0.2-0.4-0.4-0.5c-0.2-0.3-0.4-0.5-0.6-0.7
						c-0.2-0.2-0.4-0.3-0.6-0.5c-0.4-0.3-0.8-0.6-1.5-0.8c-0.7-0.2-1.3-0.4-2-0.6c-0.6-0.1-1.4-0.3-1.9-0.4
						c-0.6-0.1-1.1-0.3-1.7-0.5c-0.5-0.2-1.1-0.5-1.6-0.8c-0.4-0.3-0.8-0.5-1.2-0.6c-0.4-0.2-0.8-0.3-1.2-0.4
						c-0.8-0.3-1.5-0.5-2-1.1c-0.3-0.3-0.5-0.6-0.7-0.9c-0.2-0.3-0.3-0.6-0.5-0.9c-0.3-0.6-0.5-1.2-0.8-1.8c-0.7-1.3-0.6-3.2-0.9-5
						c-0.1-0.5-0.2-0.9-0.2-1.4c-0.1-0.5-0.2-1.1-0.2-1.3c-0.1-0.6,0-0.9,0-1c0-0.2,0.5-0.6,1.2-1c1.9-1,4.8-2.2,8.2-3.3
						c0.8-0.3,1.6-0.5,2.4-0.7c0.3,0,1.1-0.3,1.8-0.6l1-0.4l1-0.5l1-0.5c0.3-0.2,0.6-0.4,0.9-0.6c0.6-0.4,1.2-0.8,1.8-1.2
						c0.6-0.4,1.1-0.9,1.7-1.3l0.8-0.7l0.2-0.2c0.1-0.1,0-0.2,0-0.2l-0.2-0.5c-0.5-1.4-1.1-3-1.9-4.5c-0.8-1.5-1.8-2.8-3.2-3.4
						c-0.7-0.3-1.6,0-2.4,0.3c0.7-0.3,0.5,0.4,0.1,1c-0.4,0.6-1,1.2-1,1.2c-0.6,0.8-0.8,1.3-1.2,1.8c-0.5,0.4-0.9,0.6-1.9,0.4
						c-0.8-0.1-1.4-0.3-1.6-0.4c-0.2-0.1-0.4-0.1-0.5-0.2c0,0-0.2,0-0.4,0.1l-0.6,0.2l-1.2,0.4c-1.6,0.5-3.3,1.1-5.2,1.8
						c-1.6,0.6-3.3,1.4-5.1,2.5c-0.4,0.3-0.9,0.6-1.3,0.9c-0.4,0.3-0.9,0.7-1.3,1.1c-0.4,0.4-0.9,0.9-1.3,1.4
						c-0.4,0.6-0.9,1.1-1.2,1.8c-0.4,0.8-0.8,1.6-1,2.4c-0.1,0.4-0.2,0.8-0.3,1.2c-0.1,0.4-0.1,0.8-0.2,1.2
						c-0.1,0.4-0.1,0.7-0.1,1.1c0,0.3,0,0.7,0,1C160.2,339.8,160.2,340.3,160.2,340.9z"/>
				</g>
			</g>
		</g>
	</g>
	<g>
		<g>
			<g>
				<path class="st0" d="M170.7,309L170.7,309C170.7,309,170.7,309,170.7,309z"/>
				<path class="st0" d="M170.8,306.7l0.1,0.1C170.9,306.7,170.9,306.7,170.8,306.7z"/>
				<path class="st0" d="M163.3,299.1L163.3,299.1C163.4,299.1,163.3,299.1,163.3,299.1z"/>
				<g>
					<path class="st0" d="M160,305.4c-0.1,0.7,0,1.6,0.2,2.4c0-1,0-2,0-2.9c-0.3,1.1-0.4,2.3-0.4,3.4c0,0.6,0,1.1,0.1,1.6l0,0.4
						l0,0.2c0,0.1,0.1,0.1,0.1,0.2c0.1,0.3,0.2,0.5,0.4,0.8c0.7,1.2,1.7,2.2,2.8,3c1.1,0.8,2.2,1.3,3.3,2c1.7,1,3.3,1.8,4.9,2.1
						c0.4,0.1,0.8,0.2,1.1,0.3c0.4,0.2,0.9,0.4,1.3,0.6c0.9,0.4,1.7,0.7,2.6,1.1c1.7,0.6,3.6,0,5.3,0.6c0.5,0.1,0.9,0.3,1.4,0.5
						c0.2,0.1,1.4-0.6,1.6-0.9c0.1-0.1-0.6-0.8-0.8-1c-0.6-0.6-1.4-1.4-1.8-1.7c-0.8-0.6-1.2-0.8-2-1.1c-1.7-0.6-3.3-1.4-4.2-2.9
						c-0.1-0.2-0.2-0.3-0.3-0.4c-0.1-0.1-0.3-0.3-0.5-0.4c-0.3-0.3-0.7-0.5-1-0.6c-0.7-0.4-1.4-0.7-1.9-1.2
						c-0.3-0.3-0.5-0.5-0.8-0.8l-0.3-0.4c-0.1-0.1-0.1-0.1-0.1-0.2c0-0.1,0-0.1,0-0.1c0-0.3,0-0.5-0.1-0.6c-0.1-0.1-0.1-0.3,0.1-0.5
						c0.2-0.3,0.4-0.5,0.4-0.7l0-0.1l-3.4-1.7c0.1,0,0.1,0,0.2,0c0.1,0,0.1,0,0.3,0c0.1,0,0.3,0,0.4,0.1c0.1,0,0.1,0,0.2,0.1
						c0.1,0,0.2,0,0.3,0.1c0.4,0.1,0.8,0.3,1.4,0.6c0.1,0.1,0.3,0.1,0.4,0.2l0,0c0,0,0,0,0-0.1c0-0.2,0.3-0.7,0.8-1.1
						c0.5-0.5,1.2-1.1,2-1.6c0.5-0.3,1-0.7,1.5-1.1c0.5-0.4,1.1-0.9,1.6-1.4l3.1-3c0.9-0.9,1.9-1.6,2.9-2.3c0.9-0.6,1.8-1.2,2.4-2.2
						c0.7-0.9,1.6-1.8,0.9-4.2c-0.2-0.6-0.7-1.4-1.3-2.1c0.9,1.1-2-0.3-2.1-0.3c-1-0.2-1.8,0-2.6,0c-0.4,0-0.9,0-1.3,0
						c-0.4,0-0.8,0-1.2,0.1c-0.8,0.1-1.6,0.2-2.2,0.6c-0.3,0.2-0.6,0.4-0.9,0.6c-0.3,0.2-0.5,0.4-0.8,0.6c-0.5,0.4-1,0.8-1.4,1.3
						c-0.4,0.5-0.9,0.8-1.3,1.2l-1.3,1.2c-0.4,0.4-0.7,0.6-1.2,1l-1.4,1.2c-1,0.8-2,1.7-3.1,2.7c-0.6,0.6-1.4,1.3-2.2,2.3
						c-0.2,0.3-0.4,0.5-0.6,0.8c-0.2,0.3-0.4,0.7-0.6,1c-0.2,0.4-0.4,0.9-0.5,1.4c-0.1,0.2-0.1,0.5-0.2,0.8
						C160,304.7,160,305,160,305.4z"/>
				</g>
			</g>
		</g>
	</g>
	<g>
		<g>
			<g>
				<path class="st0" d="M176.7,260L176.7,260C176.7,260.1,176.7,260.1,176.7,260z"/>
				<path class="st0" d="M189.5,246.1l0.2,0C189.5,246.1,189.5,246.1,189.5,246.1z"/>
				<path class="st0" d="M174.5,248.6L174.5,248.6C174.4,248.7,174.5,248.6,174.5,248.6z"/>
				<g>
					<path class="st0" d="M173.9,249c-0.2,0,0.5,0,0.5,0.6c0,0,0,0.1,0,0.1l0,0.1l-0.3,0.2c-0.4,0.3-0.8,0.7-1.2,1
						c-0.7,0.7-1.4,1.4-2.1,2.1c-1.3,1.4-2.5,2.8-3.8,4.1c-0.7,0.7-1.3,1.4-1.9,2.2c-0.3,0.4-0.7,0.9-1.1,1.4
						c-0.3,0.5-0.6,1.1-0.9,1.6c-1,2.3-1.2,4.9-0.7,7c0.1,0.6,0.2,1.1,0.4,1.6c0.1,0.3,0.1,0.5,0.2,0.8l0.3,0.8
						c0.2,0.5,0.4,1.1,0.7,1.6c0.3,0.5,0.5,1,0.9,1.4c1.2,1.8,2.8,3.3,4.4,4.5c1.6,1.2,3.6,1.9,5.1,2.4c1.5,0.6,3,1.3,4.2,2.3
						c0.3,0.3,0.6,0.6,0.8,0.9l0.7,0.9c0.1,0.1,0.5,0.4,1.1,0.7c0.4,0.3,0.9,0.6,1.1,0.7c0.2,0.1,0.2-1.2,0.2-1.6
						c-0.2-1.2-1-3.2-1.8-3.9c-1.3-1.6-2.1-2.3-3.8-3.4c-0.5-0.3-0.9-0.6-1.4-0.8L175,278l-0.6-0.4c-0.4-0.2-0.8-0.5-1.1-0.8
						c-0.4-0.3-0.7-0.6-1-0.9c-1.3-1.2-2.3-2.7-2.6-4.2c-0.1-0.6-0.1-1.1-0.3-1.7c0-0.3-0.1-0.7-0.1-1c0-0.3,0-0.6-0.1-0.9
						c-0.1-1.2,0.1-2.1,0.7-2.9c0.2-0.2,0.3-0.4,0.6-0.6l0.3-0.3l0.5-0.4c0.6-0.5,1.3-1,1.9-1.5c1.3-1,2.6-1.8,3.8-2.7
						c0.7-0.5,1.3-0.9,2-1.2l0.5-0.2c0.2-0.1,0.4-0.2,0.7-0.3l1.4-0.4l0.7-0.2c0.3,0,0.6-0.1,0.8-0.1l1.7-0.2l0.4,0l0.3-0.1l0.6-0.3
						l1.1-0.6l0.9-0.5l0.5-0.3c0.1-0.1,0.2-0.2,0.2-0.3l0.4-0.5c0.1-0.2,0.2-0.2,0.3-0.4l0.1-0.2c0-0.1,0.1-0.1,0.2-0.2l0.4-0.7
						c0.5-1.1,0.8-2.6,0.6-3.9c-0.2-1.3-0.6-2.4-1.3-3.4c-0.7-1-1.6-2-2.8-2.9c-1.2-0.9-2.6-1.7-4.1-2.5c-0.9-0.4-1.8-0.8-2.8-1.2
						l-2.3-1c-1-0.4-2-0.9-2.7-1.3c-0.5-0.3-0.8-0.5-0.9-0.6c-0.3-0.2-0.3-0.3-0.5-0.4c-0.1-0.2-0.3-0.6-0.4-1.4
						c-0.1-0.7-0.1-2,0-3.2l0.1-0.6l0-0.3l0-0.1c0-0.1,0.1-0.2,0.1-0.3c0.1-0.2,0.3-0.2,0.5-0.1c0.1,0,0.2,0.1,0.2,0.2
						c0.3,0.1,0.9,0.1,1.7,0.2c1.4,0.1,3.1,0.1,5-0.2c0.9-0.2,1.8-0.4,2.8-0.8c0.5-0.2,0.9-0.4,1.3-0.6c0.4-0.2,0.8-0.4,1.1-0.7
						c1.5-1,3.1-2.1,4.4-3.7c0.1-0.2,0.4-0.4,0.5-0.7c0.2-0.2,0.4-0.5,0.5-0.7c0.1-0.1,0.2-0.3,0.2-0.4l0.1-0.3
						c0.1-0.2,0.1-0.4,0.2-0.6c0.4-0.7,0.5-1.3,0.6-1.9c0-0.3,0.1-0.7,0.1-1c0-0.4,0-0.8-0.1-1.1c0-0.2-0.1-0.3-0.1-0.4
						c-0.1-0.1-0.1-0.1-0.2-0.2c-0.2-0.1-0.3-0.2-0.5-0.3c-0.4-0.2-0.8-0.3-1.3-0.4c0.3,0.1,0.4,0.3,0.3,0.5
						c-0.1,0.1-0.2,0.4-0.4,0.6c-0.2,0.2-0.4,0.4-0.6,0.5c-0.9,0.6-2,0.5-2.2,0.6c-0.4,0.1-0.7,0.2-1.1,0.3l-1,0.3
						c-0.6,0.2-1.3,0.4-2,0.5c-1.3,0.2-2.6,0.2-3.6,0c-0.9-0.2-1.8-0.5-2.8-0.6l-1.8-0.2l-0.6,0l-0.7,0c-0.2,0-0.6,0-0.9,0l-1.1,0
						c-1.4,0.2-2.8,0.4-4,1.1c-0.3,0.1-0.6,0.3-0.9,0.5c-0.3,0.2-0.6,0.4-0.8,0.6c-0.5,0.5-1,0.9-1.4,1.5l-0.6,0.8
						c-0.2,0.3-0.3,0.6-0.5,0.9c-0.1,0.3-0.3,0.6-0.4,1c-0.1,0.3-0.2,0.7-0.3,1l-0.3,1c-0.1,0.3-0.2,0.7-0.2,0.9
						c-0.1,0.5-0.1,1.1-0.2,1.6l0,0.4l0,0.3l0,0.6c0,0.4,0,0.8,0,1.3l0,1.4l0.1,1.6c0,0.4,0.2,1,0.3,1.4c0.1,0.5,0.2,1,0.4,1.5
						c0.2,0.5,0.4,1,0.6,1.6c0.3,0.5,0.6,1,0.9,1.5c0.3,0.5,0.7,0.9,1.1,1.4c0.4,0.4,0.8,0.9,1.2,1.2c0.8,0.6,1.7,1.3,2.5,1.7
						c1.6,0.8,2.8,1.3,4,1.8l0.9,0.4l0.1,0.1c0,0,0.1,0,0.1,0.1C174.4,248.8,174.1,249,173.9,249z"/>
				</g>
			</g>
		</g>
	</g>
	<g>
		<g>
			<g>
				<path class="st0" d="M186.3,198.7L186.3,198.7C186.2,198.7,186.3,198.7,186.3,198.7z"/>
				<path class="st0" d="M189.4,179.1l0.1-0.1C189.5,179,189.5,179.1,189.4,179.1z"/>
				<path class="st0" d="M180.8,185.9l-0.1,0C180.7,185.9,180.8,185.9,180.8,185.9z"/>
				<g>
					<path class="st0" d="M182.7,188.1c0.1,0.2,0.2,0.5,0.2,0.5l0,0c0,0,0,0,0,0.1l0.1,0.5l0.2,1.2c0,0.2,0.1,0.4,0.1,0.6l0,0.1l0,0
						l0,0l0,0c-2,3.9,2.8-5.3,2.3-4.3l0,0l0,0l0,0l-0.1,0.1l-0.3,0.3c-0.3,0.4-0.7,0.7-1,1.1c-0.3,0.4-0.2,0.4-0.3,0.5
						c0,0.1,0,0.1-0.2,0.2l-0.4,0.4l-1.7,1.4c-1.1,0.9-2.3,1.8-3.6,2.6c-1,0.6-2,1.2-3,1.7c-0.5,0.3-1.1,0.6-1.7,0.9l-2,0.8
						c-0.4,0.8-0.8,1.5-1.2,2c-0.1,0.2-0.2,0.2-0.2,0.4l-0.1,0.7l-0.1,0.7c0,0.2,0,0.4,0.1,0.7c0.2,1,0.7,1.9,1.2,2.9
						c0.5,0.9,1,1.8,1.7,2.6c1.3,1.6,3.2,2.7,5.3,3.6l0.8,0.3l0.6,0.2c0.4,0.1,0.7,0.2,1.1,0.3l1,0.3l0.4,0.1c0.1,0,0.3,0.1,0.4,0.1
						c1.1,0.4,2.3,1.1,2.9,2c0.4,0.5,0.6,1.1,0.7,1.5c0,0.1,0.3,0.3,0.5,0.5c0.3,0.2,0.5,0.4,0.6,0.6c0.1,0,0.3,0,0.5-0.2
						c0.2-0.2,0.4-0.5,0.5-0.6c0.2-0.5,0.3-1.2,0.2-1.9c-0.1-0.7-0.3-1.4-0.5-1.8c-0.4-0.8-0.8-1.4-1.2-1.9c-0.4-0.5-0.9-1-1.7-1.6
						c-0.4-0.3-0.8-0.6-1.3-0.8l-1.3-0.6c-0.8-0.4-1.7-0.8-2.1-1.1c-0.9-0.6-1.7-1.4-1.6-2.3c0-0.6,0-1.1-0.2-1.6
						c-0.1-0.6,0.6-0.7,1.1-0.9c0.1,0,0.2-0.1,0.3-0.1c0.2,0,0.3-0.1,0.5-0.1l0.6-0.1l0.5-0.1l0.1,0l0.1,0l0.3-0.1l0.5-0.2
						c1.4-0.5,2.9-1,4.3-1.8c0.3-0.2,0.7-0.4,1.1-0.5l1.3-0.6c0.3-0.1,0.6-0.4,0.9-0.6l0.3-0.2l0.2-0.2l1-0.6l0.5-0.3l0.1-0.1l0,0
						l0,0l0,0c4.2-7.9,1.2-2.2,2.1-4l0,0l0-0.1l0-0.1l0-0.4c0-0.5,0.1-0.9,0.1-1.4c0-0.5,0-0.9,0-1.4c0-0.2,0-0.5-0.1-0.8
						c0-0.3-0.1-0.7-0.2-1.1c-0.1-0.4-0.2-0.8-0.3-1.1c-0.9-2.7-2.5-4.7-4.3-6.3c-1-0.8-2-1.5-3.2-2.1c-0.7-0.3-1.3-0.6-1.9-1
						c-1.4-0.8-2.5-1.8-3.3-2.7c-1-1.2-1.5-2.3-1.7-3.7c-0.3-1.4-0.2-3.3,0.3-5.3l0.1-0.3c0-0.1,0-0.1,0-0.1c0,0,0-0.1,0.1-0.1
						c0.1-0.1,0,0.1,0,0.3c0.1,0,0.2,0,0.2,0.1c0,0,0,0,0,0c0,0,0.2-0.1,0.2-0.1l0.6-0.2c1.4-0.4,3-0.6,4.9-1.2
						c1.1-0.3,2.2-0.5,3.3-1c0.6-0.2,1.1-0.5,1.7-0.9c0.4-0.2,0.2-0.4,0.5-0.6c0.3-0.2,0.6-0.5,1-0.7c0.8-0.6,0.8-1.6,0.7-2.5
						c0.2,0.8-0.9,0.5-1.5-0.2c-0.6-0.6-1.4-1.3-1.5-1.4c-1.2-0.8-2.5-1-3.8-1.3c-1.3-0.4-2.5-0.8-3.8-1.1c-1.3-0.3-2.7-0.4-4.2,0
						c-0.8,0.2-1.6,0.5-2.3,0.7l-0.6,0.2L175,154l-0.4,0.2c-0.6,0.3-1.1,0.6-1.6,0.9l-0.8,0.5l-0.4,0.3c-0.1,0.1-0.3,0.1-0.4,0.3
						l-1.1,1.9c-0.4,0.6-0.6,1.1-0.9,1.7l-0.2,0.9l-0.2,0.8c-0.7,2.9-1.1,6.1-0.5,9.7c0.4,3.1,1.9,6.3,4,8.6c2,2.4,4.3,4,6.5,5.4
						c0.7,0.4,1.3,0.8,2,1.2l0.4,0.3l0.1,0.1c0.1,0.1,0.2,0.2,0.3,0.3C182.1,187.2,182.5,187.7,182.7,188.1z"/>
				</g>
			</g>
		</g>
	</g>
	<g>
		<g>
			<g>
				<path class="st0" d="M183.2,133.6L183.2,133.6C183.2,133.7,183.2,133.7,183.2,133.6z"/>
				<path class="st0" d="M196.8,122.9l0,0.1C196.9,122.9,196.8,122.9,196.8,122.9z"/>
				<path class="st0" d="M193.9,112L193.9,112C194,112,194,112,193.9,112z"/>
				<g>
					<path class="st0" d="M187.3,116.2c-0.8,0.5-1.3,1-2,1.5c-0.6,0.5-1.3,1.1-1.9,1.6c-1.2,1.1-2.4,2.4-3.6,3.7
						c-0.6,0.7-1.2,1.4-1.7,2.2c-0.6,0.8-1.1,1.5-1.7,2.3c-0.5,0.8-1.1,1.5-1.6,2.4c-0.3,0.4-0.5,0.8-0.9,1.3l-0.8,1.2
						c-0.3,0.4-0.6,0.9-0.9,1.3l-0.6,1l0,0.9c0,0.3,0,0.7,0,1c0,0.4,0.1,0.8,0.2,1.2c0.1,0.4,0.3,0.9,0.5,1.3
						c0.2,0.4,0.5,0.8,0.8,1.1c1.2,1.3,2.2,1.7,3.1,2.1c2,0.8,3.8,1.1,5.2,1.2l1.1,0.2c0.4,0.1,0.7,0.2,1,0.3
						c0.7,0.3,1.4,0.6,2.2,1.1c0.8,0.4,1.7,0.9,2.7,1.4c0.3,0.1,0.5,0.2,0.8,0.3l0.8,0.3l0.4,0.1c0.1,0,0.2,0.1,0.3,0.1
						c0.4,0.1,0.9,0.1,1.4,0.1c0.5,0,1.1,0.1,1.5,0.4c0.5,0.3,0.6,0.9,0.5,1.4c-0.1,0.5-0.4,1-0.8,1.4c-0.5,0.4-0.9,0.8-1.3,1.1
						c0,0-0.1,0.2-0.1,0.3c-0.1,0.3-0.3,0.6-0.4,0.9c-0.3,0.7-0.5,1.4-0.5,1.7c0,0.3,1.4-0.5,1.8-0.7c0.3-0.2,0.6-0.4,1-0.6
						c0.3-0.2,0.7-0.4,1.1-0.6c0.7-0.5,1.5-1,1.9-1.5c0.5-0.4,0.8-0.8,1.1-1.2c0.3-0.4,0.6-0.8,0.7-1.2c0.2-0.4,0.4-0.8,0.4-1.3
						c0.1-0.5,0.1-1-0.1-1.6c-0.2-0.6-0.6-1.1-1-1.5c-0.4-0.4-0.9-0.7-1.5-0.9c-1-0.5-2.3-0.8-3.6-1.1c-0.3-0.1-0.7-0.2-1-0.3
						l-0.3-0.1c-0.1,0-0.1,0-0.1-0.1l-0.3-0.1c-0.4-0.1-0.7-0.5-1.1-0.7c-0.7-0.5-1.5-1.2-2.3-1.9c-0.4-0.3-0.8-0.6-1.2-0.9
						c-0.4-0.3-0.9-0.5-1.4-0.8c-0.5-0.3-1-0.4-1.5-0.5l-0.7-0.2l-0.6-0.2c-0.9-0.2-1.6-0.4-2.2-0.6l-0.7-0.3
						c-0.1-0.1-0.3-0.2-0.4-0.2c-0.1-0.1-0.2-0.1-0.2-0.2c0,0,0-0.1,0-0.1c0,0,0,0,0,0l-0.2,0.2c-0.1,0.1-0.1,0.2-0.2,0.2
						s-0.2,0.2-0.3,0.2l-0.1,0.1l0,0c0,0-0.1,0.1-0.1,0.1c0.1-0.1,0.2-0.1,0.3-0.1c0,0,0.2-0.1,0.3-0.1c0.1,0,0.3-0.1,0.4-0.1
						c0.1,0,0.2,0,0.4,0c0.3,0,0.2,0,0.2-0.1c0,0,0,0,0-0.1l-0.7,2.2l1.3-1.4c0.2-0.2,0.5-0.6,0.5-0.5c0.1-0.1,0.3-0.3,0.5-0.5
						c0.4-0.4,0.8-0.7,1.2-1.1l1.2-1.2c2.6-2.5,6-4.3,9.1-6.9l1.1-1l1.1-0.8l2.1-1.7l1.1-0.9l1.1-0.8c0.8-0.5,1.5-1.1,2.3-1.6
						c1.8-1.2,3.8-2.3,5.7-3.3c2.4-1.4,5-2.7,7.4-4.1c2.5-1.3,5-2.7,7.5-4c4.6-2.3,9.6-3.5,14.1-6.3c0.6-0.4,1.2-0.8,1.9-1.2
						c0.8-0.5,1.8-1.1,2.6-2c0.9-0.8,1.6-1.9,2.1-3c0.5-1.2,0.6-2.3,0.4-3.3c-0.2-1-1.1-1.5-1.9-1.7c0.7,0.2,0,1-0.9,1.5
						c-0.4,0.3-1,0.4-1.4,0.5c-0.4,0.1-0.7,0.1-0.8,0.1c-1.4,0.3-2.6,0.6-4,0.7c-2.9,0.2-5.7,0-8.5,1c-5.7,2.1-11.1,5-16.5,7.9
						c-4.6,2.5-9.1,5.2-13.7,8.1c-1.4,0.8-2.8,1.7-4.2,2.6C190.1,114.3,188.7,115.2,187.3,116.2z"/>
				</g>
			</g>
		</g>
	</g>
	<g>
		<g>
			<g>
				<path class="st0" d="M250.1,158.5L250.1,158.5C250.1,158.5,250,158.5,250.1,158.5z"/>
				<path class="st0" d="M250.1,160.2l-0.1-0.1C250,160.1,250,160.2,250.1,160.2z"/>
				<path class="st0" d="M256.8,170.2L256.8,170.2C256.8,170.3,256.8,170.3,256.8,170.2z"/>
				<g>
					<path class="st0" d="M262.6,166.1c0.4-0.7,0.7-1.6,0.9-2.4c0.2-0.8,0.1-1.7,0.1-2.6c0-0.4-0.1-0.9-0.2-1.3
						c-0.1-0.4-0.1-0.8-0.3-1.2c-0.3-0.8-0.7-1.6-1.2-2.3c-1-1.5-2.5-2.7-3.9-3.7l-1.2-0.6l-0.6-0.3c-0.2-0.1-0.4-0.2-0.6-0.2
						c-0.4-0.2-0.8-0.3-1.2-0.5l-1.1-0.3l-1.1-0.4l-0.6-0.3c-0.4-0.2-0.9-0.4-1.3-0.6c-0.4-0.2-0.9-0.4-1.3-0.7
						c-0.4-0.2-0.9-0.5-1.4-0.7c-1.9-0.9-3.3-2.4-4.7-4.1c-1.3-1.6-3.2-2.7-3.9-4.6c-0.2-0.5-0.3-1-0.4-1.5c0-0.1-0.3-0.4-0.6-0.6
						c-0.3-0.2-0.6-0.5-0.8-0.6c-0.2-0.1-0.6,0.8-0.7,1.1c-0.1,0.4-0.3,1-0.4,1.6c-0.1,0.6-0.1,1.1,0,1.4c0.2,1.4,0.4,2,1,3.2
						c1.3,2.4,2.9,4.6,4.4,7.2c1.2,2.1,3.5,3.2,5.4,4.8c0.5,0.4,1.1,0.8,1.7,1.2l0.4,0.3c0.1,0.1,0.2,0.1,0.2,0.2l0.4,0.3
						c0.1,0.1,0.1,0.1,0.2,0.1l0.1,0.1l0.1,0.2c0.1,0.1,0.1,0.2,0.2,0.3c0.2,0.1,0.2,0.4,0.1,0.6c-0.1,0.2-0.3,0.3-0.2,0.4
						c0,0.2,0.1,0.4,0,0.5c-0.1,0.1-0.3,0.2-0.5,0.2c-0.1,0-0.3,0-0.4,0l0,0l0,0l-0.1,0l-0.6,0l-1.2,0c-3.9,0.1-7.6,1-11.1,1.6
						c-1.6,0.3-3.2,0.3-4.8,0.3l-1.2,0l-0.3,0l-0.2,0l-0.3,0l-1.2,0.2c-0.2,0-0.4,0-0.6,0.1l-0.5,0.3l-1.1,0.6l-0.3,0.2l-0.3,0.2
						c-0.2,0.1-0.3,0.2-0.5,0.3c-1.4,1-3.4,2.2-3.6,4.9c0,0.6,0.3,1.6,0.7,2.3c-0.7-1.2,2.4,0.4,2.6,0.5c1.1,0.3,2.1,0.2,3.1,0.3
						c1,0.1,2,0.2,3,0.3c0.2,0.2,0.4,0.3,0.6,0.5l0.2,0.2c0,0,0,0,0.1,0l0.2,0c0.1,0,0.2,0,0.4,0c4,0,7.6-0.9,11.1-1.5
						c1.5-0.2,3-0.4,4.4-0.6l1.1-0.1l0.5,0l0.3,0l0.5,0l4.6-0.3c0.5,0,0.9,0,1.4-0.1c0.4,0,0.8-0.2,1.2-0.3c0.8-0.2,1.5-0.5,2.1-0.9
						C260.6,168.7,261.8,167.6,262.6,166.1z"/>
				</g>
			</g>
		</g>
	</g>
	<g>
		<g>
			<g>
				<path class="st0" d="M241.3,195.6l-0.1,0C241.2,195.6,241.3,195.6,241.3,195.6z"/>
				<path class="st0" d="M247.2,194l-0.1,0C247.1,194,247.1,194,247.2,194z"/>
				<path class="st0" d="M257.4,197.5L257.4,197.5C257.4,197.6,257.4,197.5,257.4,197.5z"/>
				<g>
					<path class="st0" d="M254.3,187.5l-0.5-0.3c-0.1-0.1-0.3-0.2-0.5-0.3c-0.4-0.2-0.9-0.4-1.3-0.6c-0.4-0.1-0.9-0.3-1.3-0.4
						c-0.4-0.1-0.8-0.2-1.3-0.2c-1.6-0.2-2.9,0-3.9,0.2l-0.7,0.2l-0.6,0.2c-0.4,0.1-0.8,0.2-1.3,0.3c-0.9,0.1-1.8,0.1-2.6-0.2
						c-1.8-0.7-3.4-1.7-5.1-2.8c-1.8-1.1-3.1-2.7-4.1-4.5c-0.6-1-1.4-1.9-2-3c-0.4-0.5-0.7-1.1-1.1-1.6c-0.4-0.5-0.9-0.9-1.2-1.3
						c-0.2-0.2-0.4-0.5-0.5-0.7c-0.2-0.2-0.3-0.5-0.4-0.6c-0.2-0.2-1-0.4-1.4-0.4c-0.1,0-0.2,0.1-0.4,0.4c-0.1,0.2-0.2,0.5-0.2,0.7
						c-0.2,0.9,0.2,2.4,0.5,3c0.6,1.2,0.7,1.6,0.9,2.5c0,0,0,0.1,0,0.1c0.9,2.7,2.2,5.2,3.4,8.1c1,2.4,3.4,3.7,5.3,5.4
						c2.1,1.8,4.6,3.6,7.6,4.2c0.8,0.1,1.6,0.3,2.3,0.4l1,0.2l0.9,0.2c1.1,0.2,1.7,0.5,2,0.6c0,0,0.1,0,0.1,0l0.1,0
						c0,0,0.1,0,0.1,0.1l0.3,0.1l0,0l0.3-0.4c0.3-0.4,0.6-0.8,0.9-1.2c0.2-0.3,0.4-0.6,0.6-0.9c0.1-0.1,0.2-0.3,0.4-0.4l0.2-0.2
						l0-0.1c0.1-0.1,0.1-0.1,0.2-0.2c0.1,0,0,0,0,0c0,0-0.1,0-0.1,0c0,0-0.1,0-0.1,0c0,0-0.1,0-0.2,0l-0.3,0c-0.3,0-0.7,0-1,0
						l-0.2,0l-0.7,0c-0.5,0-1-0.1-1.4-0.1l0,0l-0.3,3.2c0,0.2-0.2,0.4-0.5,0.5c-0.1,0-0.1,0-0.4,0.1c-0.2,0.1-0.5,0.2-0.8,0.3
						l-0.4,0.2l-0.5,0.2c-0.3,0.1-0.7,0.2-1.1,0.3c-1.5,0.4-3.2,0.8-5.1,1.1c-3.2,0.5-6.3-0.1-9.9,1.1c-0.5,0.2-1,0.3-1.6,0.5
						c-0.3,0.1-0.5,0.2-0.8,0.3c-0.3,0.1-0.8,0.3-1.2,0.5l-0.5,0.3l-0.1,0.1c0,0.1-0.1,0.1-0.1,0.1l-0.2,0.2
						c-0.2,0.1-0.3,0.3-0.4,0.4c-0.1,0.1-0.3,0.3-0.4,0.5c-0.5,0.6-0.7,1.4-0.7,2.1c0.2,0.5,0.7,1.4,1.2,2.1c-0.4-0.6,0-0.4,0.9-0.4
						c0.8,0.1,1.5,0.5,1.6,0.6l0.5,0.2l0.4,0.2c0.3,0.1,0.6,0.3,0.9,0.4c0.3,0.1,0.7,0.2,1,0.3c1.9,0.7,3.6,1.8,5.4,1.8
						c2,0,4-0.3,5.9-0.6c1-0.2,1.8-0.3,2.8-0.5c1-0.2,2-0.4,3.1-0.7c0.5-0.1,0.9-0.2,1.4-0.4c0.5-0.2,1-0.3,1.5-0.5
						c0.5-0.2,1-0.4,1.5-0.6l0.8-0.4c0.3-0.1,0.6-0.3,0.9-0.5c0.7-0.4,1.3-0.9,1.9-1.4l0.8-0.8c0.3-0.3,0.6-0.5,0.8-0.9
						c0.9-1.3,1.5-2.8,1.8-4.3c0.1-0.4,0.2-1,0.2-1.3l0.1-0.8c0-0.2,0.1-0.5,0.1-0.6l0.1-0.5l0.1-0.5l0.1-0.2l0.1-0.4l0.1-0.4l0-0.2
						l0-0.1l0-0.2c0-0.3,0-0.5,0-0.8l0-0.4c0-0.1,0-0.2-0.1-0.5c-0.2-0.8-0.4-1.6-0.8-2.3c-0.4-0.7-1-1.4-1.3-1.6
						c-0.2-0.2-0.4-0.3-0.6-0.5l-0.3-0.2L255,188L254.3,187.5z"/>
				</g>
			</g>
		</g>
	</g>
	<g>
		<g>
			<g>
				<path class="st0" d="M238.8,225L238.8,225C238.8,225,238.7,225,238.8,225z"/>
				<path class="st0" d="M238.9,226.5l-0.2-0.1C238.8,226.4,238.9,226.4,238.9,226.5z"/>
				<path class="st0" d="M249.8,234.1L249.8,234.1C249.8,234.1,249.8,234.1,249.8,234.1z"/>
				<g>
					<path class="st0" d="M253.7,229.7c0.2-0.7,0.4-1.4,0.3-2.1c0-0.7,0-1.4-0.2-2.1c-0.1-0.7-0.4-1.3-0.8-1.9
						c-0.4-0.6-0.9-1.2-1.4-1.8c-1-1.1-2.3-2.1-3.6-2.6c-0.3-0.1-0.7-0.3-1-0.4c-0.4-0.1-0.7-0.3-1-0.4c-0.7-0.2-1.4-0.5-2.1-0.6
						c-0.7-0.2-1.5-0.4-2.3-0.6l-1.1-0.3l-0.9-0.2c-0.9-0.2-1.9-0.4-2.7-0.5c-1.8-0.2-3.2-1.1-4.5-2.3c-0.6-0.5-1.3-0.9-2-1.5
						c-0.7-0.5-1.3-1.1-1.6-1.9c-0.1-0.4-0.2-0.9-0.3-1.3c0-0.2-1.1-0.9-1.4-1.1c-0.2-0.1-0.6,0.9-0.6,1.1c-0.3,0.8-0.5,2.2-0.4,2.8
						c0.2,1.2,0.3,1.8,1,2.9c1.4,2.2,3.2,3.9,5.2,6c0.8,0.8,1.8,1.4,2.9,1.7c1,0.4,2,0.6,2.9,1.1c0.8,0.6,0.6,1.3,0.9,1.4
						c0.2,0.1,0.2,0.4,0,0.5c-0.1,0.2-0.3,0.3-0.2,0.4c0.2,0.3,0.2,0.6-0.2,0.7c-0.2,0.1-0.5,0-0.7,0c-0.1,0-0.1,0-0.2,0
						c0,0-0.1,0-0.1,0l-0.5,0l-2.2,0.1c-1.5,0.1-2.9,0.1-4.5,0.1c-1.5,0-3-0.4-4.7-0.5c-0.9-0.1-1.8-0.1-2.9,0.1
						c-1.1,0.2-2.3,0.5-3.7,1.3c-0.7,0.4-1.5,1-2.2,1.8c-0.7,0.8-1.3,1.7-1.6,2.7c-0.6,1.9-0.2,3.5,0.8,4.5c0.5,0.5,1.5,0.6,2.3,0.6
						c-0.7,0-0.3-0.5,0.3-0.9c0.6-0.4,1.5-0.6,1.6-0.6c1-0.4,1.6-0.6,2.2-0.4c1.2,0.4,1.9,1.8,3.1,2c1.2,0.2,2.7,0.3,4.3,0.4
						c1.7,0.1,3.5,0,5.3,0c1.7-0.1,2.6-0.1,5.8-0.6c2.7-0.4,5.3-1.1,7.3-2.1C250.9,233.8,252.8,232.2,253.7,229.7z"/>
				</g>
			</g>
		</g>
	</g>
	<g>
		<g>
			<g>
				<path class="st0" d="M248.9,345.9L248.9,345.9C248.9,345.9,248.9,345.9,248.9,345.9z"/>
				<path class="st0" d="M248.3,345.3l-0.2-0.1C248.2,345.3,248.2,345.3,248.3,345.3z"/>
				<path class="st0" d="M260.4,353.5l-0.1,0C260.3,353.5,260.3,353.5,260.4,353.5z"/>
				<g>
					<path class="st0" d="M266,350c-1.6-2.2-3.4-4.4-5.1-6.5c-0.9-1.1-1.8-2.1-2.7-3.1l-0.3-0.4l-0.3-0.3l-0.5-0.6l-1.1-1.1
						c-0.7-0.7-1.5-1.4-2.2-2c-1.1,0.2-2.1,0.4-3.1,0.6c-0.9,0.2-1.8,0.3-2.7,0.5c-0.6,0.1-1.1,0.2-1.7,0.3
						c-2.4,0.2-4.8,0.2-7.2,0.6c-2.4,0.4-4.7,0.3-7.1,0.3c-0.3,0-0.6,0-0.9,0l-0.8,0.1c-0.2,0-0.4,0-0.6,0.1l-0.7,0
						c-0.9,0-1.9-0.2-2.8-0.9c-0.5-0.3-0.9-0.7-1.3-1.1c-0.2-0.2-1.8-0.4-2.2-0.3c-0.2,0,0.2,1.1,0.3,1.4c0.4,0.9,1.1,2.2,1.6,2.8
						c0.5,0.5,0.9,0.9,1.3,1.2c0.4,0.3,0.9,0.6,1.6,0.9c0.7,0.3,1.5,0.5,2.3,0.6c0.4,0.1,0.8,0.1,1.1,0.2l1,0.1
						c1.4,0.2,2.8,0.5,4.2,1c2.3,0.8,4.7,0.3,6.9,0.6c1.2,0.2,2.4,0.4,3.7,0.6l0.9,0.1c0.3,0,0.7,0.1,0.7,0.1
						c0.1,0.1,0.2,0.1,0.4,0.1c0.1,0,0.1,0,0.2,0c0,0.1,0.1,0.1,0.1,0.2c0,0.1,0.1,0.3,0.1,0.4c-0.2-0.1-0.7-0.5-0.9-0.8
						c-0.1-0.1-0.1-0.3-0.2-0.4l-0.1-0.2c0,0,0,0,0,0c-0.1,0.1-0.2,0.2-0.5,0.3c-0.1,0-0.3,0.1-0.4,0.1l-0.1,0l0,0l0,0l-0.1,0
						l-1.2,0.4c-1.9,0.6-3.7,1.4-5.2,2.1l-1.2,0.5L238,349l-0.7,0.2l-0.3,0.1l0,0l0,0c0.1,0-0.1,0,0.1,0l0,0l0,0l-0.1,0l-0.2,0.1
						l-0.3,0.1c-0.4,0.2-0.9,0.4-1.3,0.6c-0.3,0.2-0.5,0.3-0.8,0.5l-1.3,0.8c-0.4,0.2-0.8,0.5-1.2,0.7c-0.8,0.5-1.6,0.9-2.4,1.4
						c-0.8,0.5-1.6,1-2.3,1.5c-0.7,0.5-1.4,1.1-2.1,1.8c-1.3,1.4-3.3,3.5-2.8,6.3c0.1,0.7,0.8,1.4,1.5,1.9c-0.5-0.4,0.1-0.6,0.9-0.6
						c0.8,0,1.7,0.1,1.8,0.1c1.2,0,2.1-0.4,3.2-0.6c1-0.2,2.1-0.2,3-0.4c1-0.1,1.9-0.3,2.7-0.7c1.7-0.9,3.3-2,4.6-2.8l0.5-0.3
						l0.1-0.1l0,0c0,0,0,0,0,0l0,0h0h0l-0.1-0.2c-0.3-0.7-0.5-1.3-0.7-2l-0.3-1l-0.1-0.5l-0.1-0.3c-1.3-3.5,1.7,4.8,1.4,3.9h0l0,0
						l0,0l0.2-0.1l0.7-0.2l1.4-0.5l1.6-0.6c0.9-0.4,1.7-0.7,2.5-1l2.3-1c0.4-0.2,0.8-0.3,1.1-0.5l0.3-0.1l0.4-0.1l1.2-0.4
						c0.4-0.1,0.8-0.3,1.2-0.4l1.3-0.2l2.7-0.5c0.8-0.1,1.7-0.2,2.6-0.3c0.9-0.1,1.8-0.2,2.8-0.3c1.8-0.2,3.6-0.3,5.4-0.5l-0.4-0.6
						l-0.5-0.7C266.8,351.1,266.4,350.6,266,350z"/>
				</g>
			</g>
		</g>
	</g>
	<g>
		<g>
			<g>
				<path class="st0" d="M247.2,309.2L247.2,309.2C247.2,309.2,247.2,309.2,247.2,309.2z"/>
				<path class="st0" d="M247.5,316.7l-0.1,0C247.4,316.7,247.4,316.7,247.5,316.7z"/>
				<path class="st0" d="M250.8,322.3L250.8,322.3C250.8,322.3,250.8,322.3,250.8,322.3z"/>
				<g>
					<path class="st0" d="M258.6,313.9c0-0.7,0-1.3,0-2l0-1l0-0.2l0-0.1l0-0.2l-0.1-0.9c-0.2-1.2-0.4-2.3-0.6-3.5l-0.3-1.7l-0.2-0.8
						c0-0.1,0-0.3-0.1-0.4l-0.3-0.3c-0.6-0.9-1.5-1.6-2.5-2.1c-1-0.5-2-0.7-3.1-0.7c-0.5,0-1.1,0-1.6,0c-0.6,0.1-1.1,0.1-1.6,0.3
						c-1,0.2-2,0.4-3,0.6c-0.6,0.1-1.2,0.2-1.7,0.2c-0.3,0-0.4,0-0.6,0l-1.1-0.1c-0.7-0.1-1.5-0.1-2.2-0.2c-0.8,0-1.5,0-2.3,0
						c-1.5,0-3.1,0.2-4.7,0.3c-0.8,0.1-1.6,0.2-2.3,0.3c-0.8,0.1-1.7,0.2-2.2,0.2c-0.3,0-0.6,0.1-0.8,0.1c-0.3,0-0.5,0-0.8,0.1
						c-0.6,0.1-1.1,0.1-1.7,0.1c-0.3,0-0.6,0-0.8,0l-0.8-0.1c-0.5-0.2-1.1-0.4-1.5-0.7c-0.5-0.4-0.9-0.8-1.3-1.3
						c-0.1-0.1-0.5-0.2-1-0.4c-0.4-0.2-0.9-0.3-1.2-0.3c-0.2,0-0.1,1.1,0,1.5c0.2,1.1,1,2.6,1.6,3.2c1.2,1.2,2,1.7,3.7,2.3
						c1.8,0.5,3.7,0.7,5.6,0.5c0.5,0,0.9,0,1.3,0c0.4,0,0.8,0,1.1,0.1s0.7,0.1,1.1,0.1c0.4,0.1,0.8,0.2,1.1,0.3
						c0.6,0.2,1.2,0.3,1.8,0.3c0.6,0.1,1.2,0.2,1.9,0.2c1.2,0.1,2.6,0.2,3.8,0.6l0.5,0.1c0.2,0.1,0.5,0.1,0.8,0.2
						c0.6,0.1,1,0.2,1.6,0.2c0.5,0,1,0.1,1.4,0.1l0.7,0c0.2,0,0.5,0,0.4,0c0.4,0.2,0.6,0.3,0.9,0.3c0.3,0,0.4,0.5,0.2,0.8l-0.2,0.4
						l0,0.1c0,0,0,0,0,0l0,0.1l0,0.3c0,0.4,0,0.8,0,1.2c0,1.6,0.1,3,0.1,4.6l5.3-5.2l-0.5,0l-0.3,0l-0.4,0c-0.4,0-1.2,0-1.9,0.1
						c-1.4,0.1-2.8,0.7-3.9,1.4l-0.9,0.5l-0.4,0.2c-0.3,0.2-0.5,0.3-0.8,0.4c-0.6,0.3-1.2,0.4-1.9,0.6c-1.7,0.4-3.8,0.8-6.1,1.2
						c-2.3,0.5-5,1.1-7.7,2.2c-0.6,0.2-1.2,0.5-1.8,0.8l-1.6,0.8c-1,0.5-2.1,1-3.2,1.7c-1.1,0.7-2.2,1.5-3.2,2.5c-1,1-2,2.3-2.7,4
						c-0.2,0.4-0.4,0.9-0.5,1.4c-0.2,0.5-0.3,1.1-0.4,1.6c-0.1,0.6-0.1,1.2-0.1,1.8c0,0.1,0,0.3,0,0.4l0,0.2c0,0.1,0,0.2,0,0.2
						l0.1,0.1c0,0.1,0.1,0,0.1,0.1c0,0.1,0.1,0.3,0.1,0.5c0.1,0.3,0.2,0.6,0.3,0.9c0.2,0.6,0.6,1.2,1.1,1.7c0.5,0.5,1.4,0.8,2.3,0.9
						c-1.4-0.2,1.8-2.2,2-2.3c0.2-0.2,0.5-0.5,0.6-0.7c0.1-0.1,0.2-0.3,0.3-0.5c0.1-0.2,0.1-0.3,0.2-0.5l0.1-0.3l0.1-0.2
						c0-0.1,0.1-0.2,0.2-0.3c0.2-0.2,0.3-0.3,0.5-0.5c0.7-0.6,1.5-0.8,2.3-1c0.8-0.2,1.6-0.4,2.3-0.8c0.8-0.4,1.6-0.9,2.5-1.4
						l1.4-0.7c0.3-0.2,0.4-0.2,0.6-0.3c0.2-0.1,0.3-0.2,0.5-0.2c0.7-0.3,1.5-0.6,2.4-0.8c0.9-0.2,1.9-0.5,3.1-0.7
						c1.9-0.4,4.1-0.7,6.5-1.4c0.6-0.2,1.2-0.4,1.8-0.6c0.6-0.2,1.2-0.5,1.8-0.8c0.6-0.3,1.2-0.6,1.8-0.9l0.9-0.5l0.3-0.2
						c0.1-0.1,0.1,0,0.2,0c0,0,0,0,0.3,0.1l0.2,0l0.3,0l0.7,0.1l5.6,0.5l0.4-6.4C258.4,315.8,258.5,314.9,258.6,313.9z"/>
				</g>
			</g>
		</g>
	</g>
	<g>
		<g>
			<g>
				<path class="st0" d="M243.7,283.8L243.7,283.8C243.7,283.8,243.7,283.8,243.7,283.8z"/>
				<path class="st0" d="M243.7,285.3l-0.2-0.1C243.6,285.3,243.7,285.3,243.7,285.3z"/>
				<path class="st0" d="M252.5,293.9l-0.1,0.1C252.5,294,252.5,293.9,252.5,293.9z"/>
				<g>
					<path class="st0" d="M258.6,289.5c0.4-0.7,0.7-1.4,0.9-2.3c0.2-0.8,0.2-1.7,0-2.6c-0.3-1.7-1.1-3.2-2.3-4.4
						c-0.3-0.3-0.6-0.6-1-0.9l-1.1-0.8c-0.4-0.2-0.8-0.4-1.2-0.6l-0.6-0.3l-0.7-0.2l-1.3-0.5l-1.4-0.4c-0.4-0.1-0.9-0.2-1.3-0.3
						c-0.5-0.1-0.9-0.2-1.3-0.3c-1-0.2-1.9-0.4-2.9-0.6l-0.6-0.1l-0.5-0.1l-1-0.1c-1.3-0.2-2.5-0.3-3.7-0.3c-0.3,0-0.5,0-0.9,0
						l-1-0.1c-0.7-0.1-1.3-0.1-1.9-0.2c-1.2-0.1-2.4-0.4-3.5-0.6c-1.1-0.2-2.2-0.3-3.3-0.4c-1.1-0.1-2.1-0.3-2.9-0.9
						c-0.4-0.3-0.7-0.7-0.8-1c-0.1-0.1-0.3-0.1-0.6-0.2c-0.3,0-0.6-0.1-0.8-0.1c-0.1,0-0.2,0.2-0.3,0.4c-0.1,0.2-0.2,0.6-0.2,0.7
						c-0.1,0.9,0.5,2.4,1.1,2.9c1,1.1,1.6,1.6,3,2.1c2.8,1.2,5.7,1.7,8.3,3.1c0.5,0.3,1.1,0.5,1.5,0.6c0.4,0.1,1.2,0.3,1.8,0.4
						c1.2,0.2,2.4,0.3,3.4,0.7c1.5,0.5,1.4,0.8,1.7,1c0.2,0.3,0.2,0.5,0.5,0.6c0.3,0.1,0.3,0.3,0.2,0.5c-0.1,0.2-0.3,0.4-0.3,0.5
						c0,0.3-0.1,0.6-0.6,0.7c-0.1,0-0.3,0-0.4,0l-0.1,0l-0.1,0l-0.3,0l-1.1,0.1c-1.9,0.2-3.8,0.4-5.9,0.8c-0.5,0.1-1.1,0.2-1.7,0.4
						c-0.3,0.1-0.7,0.2-1.1,0.3c-0.4,0.1-0.9,0.3-1.1,0.4c-0.9,0.4-1.8,0.8-2.7,1.1c-3.3,1.2-6.7,1.4-9.5,2.6
						c-0.4,0.2-1,0.4-1.4,0.6c-0.5,0.2-1,0.4-1.4,0.8l-4.4,3.5l0.1,0.6c0.2,0.9,0.5,1.8,1.3,2.6c0.5,0.5,1.4,0.8,2.2,1
						c-1.4-0.3,1.9-1.7,2.1-1.8c0.2-0.1,0.4-0.3,0.5-0.4c-0.3,0.3-0.6,0.5-0.9,0.8c0.8,0.4,1.7,0.6,2.6,0.8c2.1,0.6,4.3,1.5,6.4,1.1
						c2.2-0.4,4.2-1.1,6.2-1.8c1-0.4,1.9-0.8,2.9-1.1l0.3-0.1c0,0,0,0,0,0c0,0,0.1,0,0.3-0.1c0.3-0.1,0.7-0.2,1.1-0.2l5.1-0.8
						l1.4-0.2l1.9-0.3c1.7-0.3,3.3-0.7,4.9-1.1c1.9-0.5,3.6-1.2,5.1-2.1C256.8,291.8,257.9,290.8,258.6,289.5z"/>
				</g>
			</g>
		</g>
	</g>
	<g>
		<g>
			<g>
				<path class="st0" d="M241.2,255.7L241.2,255.7C241.1,255.7,241.1,255.7,241.2,255.7z"/>
				<path class="st0" d="M242.6,257.2l-0.2,0C242.5,257.2,242.6,257.2,242.6,257.2z"/>
				<path class="st0" d="M254.6,262.7L254.6,262.7C254.6,262.7,254.6,262.7,254.6,262.7z"/>
				<g>
					<path class="st0" d="M256.9,256.9l0-0.5c0-0.2-0.1-0.4-0.2-0.6c-0.2-0.4-0.4-0.8-0.6-1.2c-0.2-0.4-0.5-0.8-0.8-1.1l-0.9-1.1
						c-0.7-0.7-1.4-1.4-2.2-2c-0.8-0.6-1.6-1.2-2.6-1.6c-0.5-0.2-0.9-0.5-1.4-0.6l-1.5-0.5c-0.5-0.2-1-0.3-1.4-0.4l-0.3-0.1l-0.3,0
						l-0.5-0.1c-1.3-0.1-2.6-0.3-3.7-0.5c-2.5-0.6-4.7-1.2-6.9-1.4c-0.4-0.1-0.8-0.1-1.2-0.2c-0.4-0.1-0.7-0.2-1.2-0.4
						c-0.6-0.2-1-0.3-1.3-0.4c-0.2-0.1-0.4-0.2-0.6-0.3c-0.5-0.3-1.1-0.7-1.6-1.1c-1-0.7-2.1-1-3-1.4c-0.9-0.4-1.7-0.9-1.9-1.5
						c-0.1-0.4-0.1-0.7-0.1-1.1c0-0.1-0.2-0.3-0.4-0.5c-0.2-0.2-0.4-0.5-0.6-0.6c-0.1-0.1-0.8,0.5-1,0.8c-0.1,0.2-0.3,0.4-0.4,0.7
						c-0.1,0.3-0.2,0.5-0.3,0.8c-0.1,0.6-0.1,1.2,0,1.5c0.4,1.5,0.9,2.2,2,3.2c1.6,1.4,3.3,2.3,4.4,3.6c0.5,0.4,0.9,0.8,1.4,1.1
						c0.3,0.2,0.5,0.3,0.7,0.4c0.2,0.1,0.3,0.3,0.4,0.4c0.1,0.1,0.4,0.3,0.7,0.5c0.3,0.2,0.5,0.3,0.8,0.5c0.6,0.3,1.2,0.5,1.7,0.7
						c1.2,0.4,2.3,0.6,3.4,1.1c2.2,1,4.2,2.2,6,2.9c0.3,0.1,0.4,0.3,0.4,0.5c0,0.2,0,0.3,0.1,0.4c0.1,0.1,0.4,0.2,0.5,0.5
						c0.1,0.1,0,0.1,0,0.2c-0.1,0-0.1,0.1-0.2,0.1c-0.2,0.1-0.5,0.1-0.8,0.1l-0.1,0l0,0c0,0,0,0-0.1,0l-0.3,0.1l-1.3,0.4
						c-0.8,0.3-1.7,0.7-2.5,0.8c-0.8,0.2-1.5,0.4-2.3,0.6c-0.9,0.2-1.7,0.3-2.6,0.5c-1.7,0.3-3.4,0.2-5.3,0.4l-1.4,0.1
						c-0.4,0-0.9,0.1-1.3,0.2c-0.5,0.1-1,0.2-1.5,0.4c-0.3,0.1-0.6,0.2-0.9,0.3l-0.5,0.2l-0.5,0.3c-0.4,0.2-0.8,0.4-1.2,0.6
						c-0.4,0.3-0.8,0.6-1.2,0.9c-0.7,0.6-1.5,1.4-1.8,2.1c-0.2,0.4-0.4,0.8-0.5,1.1l-0.1,0.5c-0.1,0.2-0.1,0.5-0.2,0.7
						c-0.3,0.9,0,1.8,0.3,2.5c0.4,0.5,1.3,0.9,2.1,1.2c-0.3-0.1-0.4-0.3-0.2-0.4c0.1-0.1,0.5-0.4,0.8-0.5c0.3-0.2,0.8-0.2,1.2-0.3
						c0.3,0,0.6,0,0.6,0c1.1-0.2,2-0.5,2.8-0.4c0.8,0.1,1.4,0.6,2.1,0.9c0.4,0.2,0.8,0.3,1.2,0.4c0.5,0.1,1,0.1,1.4,0.1
						c3.4-0.1,7.5-0.6,12.1-1.9c1-0.2,1.8-0.6,2.6-0.9l2.9-1.1l2.3-0.8l1.2-0.4c0.4-0.1,0.5-0.3,0.8-0.5l3.1-2
						c1.3-0.8,2.6-1.6,3.9-2.4c0.2-0.1,0.1-0.3,0.2-0.5l0-0.6l-0.1-1.2C257,258.2,257,257.6,256.9,256.9z"/>
				</g>
			</g>
		</g>
	</g>
</g>
</svg>
