<?xml version="1.0" encoding="utf-8"?>
<!-- Generator: Adobe Illustrator 16.0.0, SVG Export Plug-In . SVG Version: 6.00 Build 0)  -->
<!DOCTYPE svg PUBLIC "-//W3C//DTD SVG 1.1//EN" "http://www.w3.org/Graphics/SVG/1.1/DTD/svg11.dtd">
<svg version="1.1" id="Layer_1" xmlns="http://www.w3.org/2000/svg" xmlns:xlink="http://www.w3.org/1999/xlink" x="0px" y="0px"
	 width="240.945px" height="240.945px" viewBox="21.258 21.258 240.945 240.945"
	 enable-background="new 21.258 21.258 240.945 240.945" xml:space="preserve">
<path d="M141.718,21.708c-16.386,26.397-52.371,69.514-83.033,91.074v29.28c29.405-21.547,58.194-51.232,77.819-80.67l5.226-7.836
	l5.227,7.838c19.561,29.342,48.699,58.85,77.818,80.539v-29.118C193.556,91.258,157.977,48.069,141.718,21.708z M141.718,81.725
	c-16.386,26.396-52.371,69.513-83.033,91.073v29.281c29.405-21.545,58.194-51.231,77.819-80.668l5.226-7.839l5.227,7.839
	c19.561,29.343,48.699,58.85,77.818,80.539v-29.119c-31.219-21.558-66.798-64.745-83.057-91.105V81.725z M141.718,141.396
	c-16.386,26.396-52.371,69.513-83.033,91.073v29.282c29.405-21.547,58.194-51.231,77.819-80.669l5.226-7.839l5.227,7.839
	c19.561,29.343,48.699,58.851,77.818,80.539v-29.12C193.556,210.945,157.977,167.757,141.718,141.396L141.718,141.396z"/>
</svg>
