<?xml version="1.0" encoding="utf-8"?>
<!-- Generator: Adobe Illustrator 16.0.0, SVG Export Plug-In . SVG Version: 6.00 Build 0)  -->
<!DOCTYPE svg PUBLIC "-//W3C//DTD SVG 1.1//EN" "http://www.w3.org/Graphics/SVG/1.1/DTD/svg11.dtd">
<svg version="1.1" id="Layer_1" xmlns="http://www.w3.org/2000/svg" xmlns:xlink="http://www.w3.org/1999/xlink" x="0px" y="0px"
	 width="33.307px" height="33.31px" viewBox="8.995 0.567 33.307 33.31" enable-background="new 8.995 0.567 33.307 33.31"
	 xml:space="preserve">
<g>
	<polygon points="30.85,8.886 9.432,31.574 11.662,33.877 32.234,10.027 	"/>
	<g>
		<path d="M32.816,8.912l-0.855-0.69l0.021,0.413l1.793-1.794l-0.352,0.035l0.733,0.491l-0.059-0.41l-1.67,1.993L32.816,8.912z
			 M34.466,6.904l-0.732-0.49l-0.19-0.128l-0.16,0.163L31.59,8.242L31.371,8.46l0.24,0.194l0.855,0.69l0.213,0.17l0.174-0.208
			l1.67-1.993l0.199-0.237L34.466,6.904z"/>
	</g>
	<polygon points="31.053,16.811 31.58,17.874 32.751,18.043 31.902,18.871 32.104,20.039 31.053,19.487 30.007,20.039 
		30.205,18.871 29.358,18.043 30.529,17.874 	"/>
	<polygon points="23.994,8.695 24.618,9.833 25.758,10.458 24.618,11.081 23.994,12.222 23.371,11.081 22.229,10.458 23.371,9.833 	
		"/>
	<polygon points="38.748,3.875 39.297,5.962 41.371,6.497 39.365,6.926 38.748,9.123 38.334,6.894 36.125,6.497 38.266,5.962 	"/>
	<g>
		<path d="M36.545,8.855l1.002,3.811l0.042,0.156l0.157,0.042l3.787,0.978l0.012-0.541l-3.665,0.783l-0.163,0.037l-0.047,0.161
			l-1.123,4.006l0.539,0.024l-0.757-4.066l-0.035-0.19l-0.189-0.033l-4.033-0.722l0.019,0.542l3.912-0.978l0.164-0.042l0.039-0.165
			l0.879-3.811L36.545,8.855z M35.867,12.325l-3.912,0.978l0.02,0.544l4.032,0.722l-0.225-0.223l0.758,4.067l0.54,0.024l1.123-4.006
			l-0.209,0.197l3.665-0.784l0.011-0.54l-3.785-0.978l0.199,0.199l-1.002-3.811l-0.54,0.009l-0.879,3.811L35.867,12.325z"/>
	</g>
	<g>
		<path d="M18.293,9.13l0.801,3.042l0.042,0.158l0.157,0.041l3.024,0.786l0.013-0.541l-2.928,0.624l-0.165,0.035l-0.046,0.162
			l-0.898,3.203l0.541,0.024l-0.604-3.251l-0.035-0.19l-0.19-0.033l-3.222-0.576l0.019,0.542l3.125-0.786l0.165-0.041l0.038-0.167
			l0.703-3.042L18.293,9.13z M17.792,11.833l-3.125,0.786l0.019,0.542l3.222,0.575l-0.224-0.223l0.604,3.251l0.54,0.024l0.897-3.203
			l-0.209,0.197l2.928-0.624l0.012-0.541l-3.024-0.786l0.2,0.198L18.831,8.99l-0.54,0.009l-0.702,3.042L17.792,11.833z"/>
	</g>
	<polygon points="40.862,16.623 41.217,17.271 41.864,17.626 41.217,17.98 40.862,18.626 40.508,17.98 39.861,17.626 40.508,17.271 
			"/>
	<polygon points="34.724,0.567 35.291,1.603 36.328,2.169 35.291,2.735 34.724,3.772 34.157,2.735 33.121,2.169 34.157,1.603 	"/>
	<polygon points="24.702,2.126 25.055,2.773 25.702,3.129 25.055,3.484 24.702,4.133 24.347,3.484 23.699,3.129 24.347,2.773 	"/>
	<polygon points="28.469,4.423 29.082,5.662 30.447,5.862 29.457,6.826 29.691,8.185 28.469,7.543 27.249,8.185 27.481,6.826 
		26.492,5.862 27.857,5.662 	"/>
</g>
</svg>
