<?xml version="1.0" encoding="utf-8"?>
<!-- Generator: Adobe Illustrator 16.0.0, SVG Export Plug-In . SVG Version: 6.00 Build 0)  -->
<!DOCTYPE svg PUBLIC "-//W3C//DTD SVG 1.1//EN" "http://www.w3.org/Graphics/SVG/1.1/DTD/svg11.dtd">
<svg version="1.1" id="Layer_1" xmlns="http://www.w3.org/2000/svg" xmlns:xlink="http://www.w3.org/1999/xlink" x="0px" y="0px"
	 width="260.504px" height="260.504px" viewBox="10.889 9.558 260.504 260.504"
	 enable-background="new 10.889 9.558 260.504 260.504" xml:space="preserve">
<path d="M137.185,10.372C76.383,9.742,11.003,53.669,10.923,135.38l11.849-28.454c-5.251,40.017-4.291,81.515,21.476,112.112
	l-23.099-10.122c21.725,38.63,69.942,50.367,111.2,51.217c-63.637-22.125-94.773-70.637-96.965-123.666
	C31.662,19.218,179.693,15.943,224.05,94.517c-1.891-10.791-4.773-21.273-8.646-31.064c42.855,49.359,32.826,118.961-11.787,140.089
	c-13.425,2.187-27.089,6.676-33.746,10.519c-32.414,18.714-3.471,70.055,29.468,51.038c5.226-3.018,12.957-9.579,20.204-17.357
	c35.632-32.952,54.312-65.461,51.548-104.604c-3.61,16.111-10.616,32.058-19.722,46.883c34.966-81.285,4.404-146.098-80.188-166.839
	c6.697,3.23,13.012,7.546,18.753,12.933c-31.786-13.15-72.594-12.523-103.465,1.94c15.538-14.505,35.862-24.21,56.581-27.483
	C141.102,10.458,139.145,10.392,137.185,10.372L137.185,10.372z M126.256,99.065l-10.986,55.677
	c-1.638,2.109-3.122,3.793-5.001,5.503l-14.222-27.181l-12.57,6.605l17.368,33.741c2.48,6.352,5.547,11.449,8.394,15.791
	c15.537,23.697,35.735,19.518,52.763,5.291l48.321-26.825l-7.036-12.456l-36.615,20.451c-0.84-1.746-1.809-3.627-2.799-5.265
	l37.546-35.964l-9.711-10.35l-36.8,35.301c-1.305-1.284-2.347-2.507-3.746-3.621l24.961-43.23l-12.586-7.268l-25.392,43.348
	c-2.098-0.726-4.274-1.219-6.419-1.52l8.668-45.341L126.256,99.065L126.256,99.065z"/>
</svg>
