<?xml version="1.0" encoding="utf-8"?>
<!-- Generator: Adobe Illustrator 16.0.0, SVG Export Plug-In . SVG Version: 6.00 Build 0)  -->
<!DOCTYPE svg PUBLIC "-//W3C//DTD SVG 1.1//EN" "http://www.w3.org/Graphics/SVG/1.1/DTD/svg11.dtd">
<svg version="1.1" id="Your_Icon" xmlns="http://www.w3.org/2000/svg" xmlns:xlink="http://www.w3.org/1999/xlink" x="0px" y="0px"
	 width="66.671px" height="66.666px" viewBox="17.961 1.111 66.671 66.666" enable-background="new 17.961 1.111 66.671 66.666"
	 xml:space="preserve">
<path d="M80.89,34.275l-7.999-3.198l2,2.399h-6.838c-0.408-10.804-7.277-15.07-12.352-18.197c-2.505-1.544-4.667-2.878-5.319-4.505
	c-1.892-4.723,0.646-6.862,0.942-7.091L49.42,1.111c-0.126,0.094-2.032,1.534-2.704,4.384l-18.85,25.582h-6.163l3.198,3.198
	l-3.198,3.199h6.163l18.82,25.543c0.626,3.017,2.529,4.656,2.654,4.76l2.046-2.458c-0.029-0.024-2.994-2.569-1.004-7.542
	c0.647-1.623,2.818-2.908,5.329-4.398c5.131-3.045,12.107-7.212,12.357-18.302h6.822l-2,2.398L80.89,34.275z M54.023,18.003
	c4.914,3.028,10.445,6.464,10.832,15.473H32.101l-2.313-2.313L46.53,8.441c0.099,1.059,0.363,2.229,0.882,3.521
	C48.457,14.571,51.16,16.239,54.023,18.003z M54.078,50.626c-2.888,1.714-5.614,3.331-6.667,5.962
	c-0.514,1.281-0.778,2.455-0.877,3.526L29.788,37.387l2.312-2.312h32.771C64.633,44.339,59.039,47.682,54.078,50.626z"/>
</svg>
