<?xml version="1.0" encoding="utf-8"?>
<!-- Generator: Adobe Illustrator 16.0.0, SVG Export Plug-In . SVG Version: 6.00 Build 0)  -->
<!DOCTYPE svg PUBLIC "-//W3C//DTD SVG 1.1//EN" "http://www.w3.org/Graphics/SVG/1.1/DTD/svg11.dtd">
<svg version="1.1" id="Layer_1" xmlns="http://www.w3.org/2000/svg" xmlns:xlink="http://www.w3.org/1999/xlink" x="0px" y="0px"
	 width="265.606px" height="265.606px" viewBox="9.688 -4.197 265.606 265.606"
	 enable-background="new 9.688 -4.197 265.606 265.606" xml:space="preserve">
<path d="M142.492,17.733C77.485,48.275,23.442,137.238,9.688,203.599c39.719,0,68.772,12.646,89.741,34.895l5.796-6.331
	c-15.535-15.985-35.95-29.036-62.873-42.024c14.473-36.004,36.555-90.495,64.62-93.667c10.981-1.242,22.727,5.389,35.519,24.048
	c40.044-66.585,78.069,21.337,100.138,69.619c-26.401,14.314-46.782,27.385-62.544,43.581l5.121,5.761
	c20.67-22.011,49.637-35.881,90.088-35.881C258.98,138.067,208.853,50.032,142.492,17.733z M98.355,152.439
	c-8.47-0.045-14.619,3.563-14.619,9.222c0,6.965,9.32,14.415,20.813,16.644c11.493,2.229,20.813-1.616,20.813-8.581
	c0-6.964-9.32-14.415-20.813-16.644C102.395,152.662,100.311,152.451,98.355,152.439L98.355,152.439z M184.914,152.439
	c-1.955,0.012-4.039,0.222-6.194,0.641c-11.493,2.229-20.813,9.68-20.813,16.644c0,6.965,9.319,10.81,20.812,8.581
	c11.494-2.229,20.814-9.68,20.814-16.644C199.533,156.002,193.384,152.393,184.914,152.439L184.914,152.439z"/>
</svg>
