<?xml version="1.0" encoding="utf-8"?>
<!-- Generator: Adobe Illustrator 21.1.0, SVG Export Plug-In . SVG Version: 6.00 Build 0)  -->
<svg version="1.1" id="Layer_1" xmlns="http://www.w3.org/2000/svg" xmlns:xlink="http://www.w3.org/1999/xlink" x="0px" y="0px"
	 viewBox="0 0 507.6 507.9" style="enable-background:new 0 0 507.6 507.9;" xml:space="preserve">
<g>
	<g>
		<g>
			<path d="M101.2,243.2L101.2,243.2C101.2,243.2,101.2,243.2,101.2,243.2z"/>
			<path d="M94.8,243l0-0.2C94.8,242.8,94.8,242.9,94.8,243z"/>
			<path d="M93.7,264.1L93.7,264.1C93.7,264.1,93.7,264.1,93.7,264.1z"/>
			<g>
				<path d="M96.3,265.1c1.2,0.2,2.3-0.4,3.4-1.6c1.2-1.3,2.3-3.2,3.5-3.4c1.3-0.2,2.5-0.1,3.8-0.9c1.3-0.8,2.5-0.6,3.8-0.4
					c1.2,0.2,2.5-1.6,3.7-0.8c0.3,0.2,0.7,0.5,1,0.8c0.2,0.1,1-1.2,1.1-1.8c0.1-0.3-0.4-1.7-0.5-2.1c-0.4-1.2-1.1-2.8-1.4-3.3
					c-0.7-1-1-1.5-1.7-1.8c-1.5-0.7-2.9-1.1-4.4-3.1c-1.2-1.6-2.4-0.6-3.6-1.3c-1.3-0.8-2.6-2.2-3.9-2.1c-1.4,0.1-2.8-1.1-4.2-1
					c-1.4,0.2-2.8,0.7-4.1,0.7c-0.8,0-1.6-0.1-2.4-0.2c-2.1-0.4-4.1,0.2-6.1,0.1c-1.9-0.1-3.7-2.2-5.6-1.4c-1,0.4-2.3,0.7-2.9,5.2
					c-0.1,1.1-0.1,3,0,4.8c-0.1-2.8,1.2,3,1.3,3.3c0.5,1.6,1.1,2.3,1.6,3.4c1,2.2,2,5,3,5.6c2.1,1.3,4.2,0.9,6.2,0.8
					c1.8,0,3.5-0.4,5.3-0.3C94.1,264.4,95.2,264.9,96.3,265.1z"/>
			</g>
		</g>
	</g>
</g>
<g>
	<g>
		<g>
			<path d="M375.6,261.6L375.6,261.6C375.6,261.6,375.6,261.6,375.6,261.6z"/>
			<path d="M382.5,262.2l0,0.2C382.5,262.4,382.5,262.3,382.5,262.2z"/>
			<path d="M385,241.2L385,241.2C385.1,241.1,385.1,241.2,385,241.2z"/>
			<g>
				<path d="M382.2,240.1c-1.3-0.2-2.6,0.2-3.9,1.4c-1.4,1.2-2.8,3.1-4.1,3.2c-1.4,0.2-2.8,0-4.3,0.7c-1.5,0.7-2.8,0.5-4.3,0.3
					c-1.4-0.2-2.8,1.5-4.2,0.8c-0.4-0.2-0.7-0.5-1.1-0.8c-0.2-0.1-1.1,1.2-1.3,1.8c-0.1,0.3,0.5,1.7,0.6,2.1
					c0.5,1.2,1.2,2.8,1.6,3.3c0.8,1,1.1,1.5,1.9,1.8c1.6,0.7,3.2,1.2,4.7,3.2c1.2,1.6,2.6,0.7,3.9,1.5c1.4,0.9,2.7,2.3,4.1,2.3
					c1.5,0,3,1.3,4.5,1.2c1.5-0.1,3-0.5,4.6-0.5c0.9,0,1.8,0.2,2.6,0.4c2.2,0.6,4.5,0.1,6.8,0.3c2,0.2,4,2.5,6.2,1.7
					c1.1-0.4,2.7-0.5,3.6-5c0.2-1.1,0.3-3,0.3-4.8c0,2.8-1.2-3.1-1.3-3.3c-0.5-1.7-1.1-2.4-1.6-3.5c-1-2.2-1.9-5.1-2.9-5.8
					c-2.2-1.4-4.5-1.1-6.8-1.2c-2-0.1-3.9,0.1-5.9-0.1C384.7,240.8,383.5,240.3,382.2,240.1z"/>
			</g>
		</g>
	</g>
</g>
<g>
	<g>
		<g>
			<path d="M241.2,115.3L241.2,115.3C241.2,115.3,241.3,115.3,241.2,115.3z"/>
			<path d="M242.2,113.8l0,0.4C242.2,114,242.2,113.9,242.2,113.8z"/>
			<path d="M244.4,81.9l0.1,0.1C244.4,81.9,244.4,81.9,244.4,81.9z"/>
			<g>
				<path d="M239.7,70.9c-0.9,2.8-1.7,5.9-2.5,9.2c-0.8,3.4-1.5,6.9-2.1,10.4c-0.6,3.6-1.1,7.2-1.6,10.2c-0.5,3-1,5.7-1.7,8
					c-0.4,1.2-0.8,2.5-1.2,3.6l-0.8,2.2c-0.5,1.4-1.1,2.9-1.5,4.5c-0.8,3.1-2.2,6.1-3.6,9.1c-1.3,2.9-1.2,6.3-2.7,9
					c-0.4,0.7-0.9,1.5-1.3,2.2c-0.2,0.4,0,2.6,0.2,3.1c0.1,0.2,1.4-0.6,1.7-0.9c1.1-0.8,2.7-2,3.3-2.7c1.2-1.4,1.8-2.1,2.6-3.7
					c1.7-3.3,3.3-6.5,5.9-9.2c2.1-2.2,2.8-5.3,4.5-8l0.7-1.1l0.3-0.5l0.2-0.1c0.2-0.2,0.5-0.3,0.7-0.4c0.4-0.2,0.6-0.2,0.7-0.5
					c0.1-0.4,0.3-0.4,0.4-0.3c0.2,0.1,0.3,0.3,0.3,0c0-0.2,0-0.5,0.1-0.6c0.1-0.1,0.3-0.1,0.4,0.3c0.1,0.3,0.2,0.7,0.3,1.2
					c0,0.3,0.1,0.4,0.1,0.6l0.1,0.1l0.1,0.2l0.3,0.5l3.7,6.8c2.2,4,2.8,8.4,5.2,12.1c1.3,2,2.7,4.8,6.2,5.4c0.9,0.1,2.1-0.2,3.2-0.7
					c-1.7,0.8,0.8-3.2,0.9-3.5c0.5-1.5,0.4-2.9,0.6-4.4c0.3-2.8,1-5.7,0.2-8.2c-0.9-2.7-2.1-5.2-3.3-7.5l-1.9-3.4l-0.9-1.7l-0.9-1.8
					l-1.3-2.7l-0.7-1.4l-0.7-1.5c-0.9-2.1-1.9-4-2.7-6.2c-1.8-4.2-3.5-8.8-5.2-13.3c-0.9-2.4-1.8-5.1-2.7-7.8
					c-0.9-2.7-1.9-5.4-2.8-8.1C240,69.8,239.9,70.4,239.7,70.9z"/>
			</g>
		</g>
	</g>
</g>
<g>
	<g>
		<g>
			<path d="M232.2,395.8L232.2,395.8C232.2,395.8,232.2,395.8,232.2,395.8z"/>
			<path d="M232.1,402.3l-0.2,0C231.9,402.3,232,402.3,232.1,402.3z"/>
			<path d="M253.2,403.3L253.2,403.3C253.3,403.3,253.3,403.3,253.2,403.3z"/>
			<g>
				<path d="M254.1,400.5c0.1-1.2-0.4-2.5-1.7-3.6c-1.3-1.2-3.3-2.4-3.5-3.7c-0.3-1.3-0.2-2.7-1-4c-0.8-1.3-0.7-2.6-0.5-4
					c0.2-1.3-1.7-2.5-1-3.8c0.2-0.4,0.5-0.7,0.8-1.1c0.1-0.2-1.2-1-1.8-1.1c-0.3-0.1-1.7,0.5-2,0.7c-1.2,0.5-2.8,1.3-3.3,1.7
					c-1,0.8-1.4,1.1-1.7,1.9c-0.6,1.6-1,3.1-2.9,4.7c-1.6,1.3-0.5,2.5-1.2,3.8c-0.8,1.4-2.1,2.7-2,4.1c0.1,1.4-1.1,2.9-0.9,4.3
					c0.2,1.4,0.7,2.8,0.8,4.2c0,0.8-0.1,1.6-0.2,2.5c-0.4,2.1,0.1,4.2,0,6.2c-0.1,1.9-2.3,3.7-1.5,5.6c0.4,1,0.6,2.3,5.1,3.2
					c1.1,0.2,3,0.3,4.8,0.3c-2.8,0,3-1.1,3.3-1.2c1.7-0.5,2.4-1,3.5-1.6c2.2-1,5.1-1.9,5.7-3c1.3-2.3,1-4.5,0.9-6.7
					c0-1.9-0.4-3.8-0.2-5.7C253.6,402.9,254,401.7,254.1,400.5z"/>
			</g>
		</g>
	</g>
</g>
<g>
	<g>
		<g>
			<g>
				<path d="M247.7,308l-0.3,0.2C247.6,308.1,247.7,308.1,247.7,308z"/>
				<path d="M285.2,279.4l0.1,0.2C285.3,279.4,285.3,279.4,285.2,279.4z"/>
				<path d="M279.6,263.4l0.1-0.2C279.7,263.3,279.6,263.3,279.6,263.4z"/>
				<g>
					<path d="M268.4,275.8c-5.5,5.2-11.6,10.1-17.8,14.9c-6.4,5-13.2,10-20.8,14c-8,4.2-16.2,8.1-24.1,12.9
						c-7.9,4.9-15.6,9.5-23.5,14.3c-7.6,4.6-14.3,10.4-22,14.6c-2.1,1.1-4.2,2.1-6.2,3.2c-0.5,0.3-1.9,1.3-3.2,2.4
						c-1.4,1.1-2.7,2.2-3.1,2.7c-0.4,0.4,3-0.5,4-0.7c3.1-0.9,7.7-2.4,10-3.4c4.6-2,6.7-3,11.1-5.6c9.1-5.3,17.9-10.6,27.5-14.7
						c3.9-1.7,7.6-3.6,11.4-5.6c3.8-2,7.6-4,11.5-5.7c8.5-3.6,17.2-6.9,25.5-11.5c8.8-5,18-9.8,26-16.9c7.8-6.9,14.6-15.3,19.7-24.5
						c0.8-1.3,1.5-2.7,2.2-4.1l2-4.1c1.2-2.5,2.4-5.1,3.6-7.6c6.3-12.8,12.4-26,17.7-39.8c4.7-12.2,10.2-23.6,14.4-35.8
						c1.1-3.2,2.5-7,3.6-10.7c1.1-3.7,1.9-7.4,1.7-10.6c-0.1-1.6-1.1-2.5-2.1-3c0.8,0.4-0.4,1.9-1.9,3.4c-1.5,1.5-3.3,2.9-3.5,3.1
						c-2.3,2.6-4.2,5.9-6.2,8.9c-3.9,5.8-7.9,10.9-10.8,17.6c-3.1,7-5.8,14-8.5,21l-2,5.1c-0.7,1.7-1.4,3.4-2.1,5.1
						c-1.4,3.4-2.9,6.8-4.5,10.2l-8.1,17.5l-4,8.9c-0.7,1.6-1.3,2.8-1.9,4.1c-0.7,1.3-1.3,2.6-2.1,3.9
						C278.4,265.3,273.7,270.9,268.4,275.8z"/>
				</g>
			</g>
		</g>
	</g>
	<g>
		<g>
			<g>
				<path d="M195.5,249l-0.1,0.3C195.4,249.2,195.5,249.1,195.5,249z"/>
				<path d="M219.3,217.5l0,0.2C219.3,217.6,219.3,217.5,219.3,217.5z"/>
				<path d="M221,200.7l0.2-0.1C221.1,200.6,221.1,200.6,221,200.7z"/>
				<g>
					<path d="M203.4,210.6c-0.9,0.8-1.8,1.6-2.7,2.4c-0.9,0.9-1.7,1.7-2.6,2.6c-1.6,1.8-3.1,3.7-4.4,5.6c-2.6,3.9-4.6,8-6.2,12.1
						c-3.2,8.5-4.7,16.9-7.6,24.9c-3,8.4-6.5,16.6-9.6,25c-3.1,8.5-6.8,16.5-10.5,24.8c-3.6,8-5.9,16.5-9.5,24.6c-1,2.1-2,4.3-3,6.4
						c-0.5,1-1.6,6.9-1.6,8.1c0,0.5,2-2.4,2.5-3.2c0.9-1.3,2-3,3-4.6c1-1.6,2-3.2,2.6-4.2c2.4-4.4,3.5-6.4,5.6-11
						c4.4-9.5,8.8-18.6,14.1-27.6c4.3-7.2,7.2-15.6,10.9-23.3l3-6.3c1-2.1,2-4.2,2.9-6.3c1.9-4.2,3.6-8.4,5.3-12.6
						c1.7-4.4,3.8-8.6,6.1-12.4c2.4-3.8,4.9-7.2,7.8-10.2c5.5-5.9,13.3-10.3,22-14.1c5-2.2,10.4-4.3,15.8-6.8
						c12.9-5.9,25.7-12.3,38.5-18.5c11.6-5.6,23.6-10.1,34.8-16.9c5.9-3.6,14.1-8.5,17.4-14.3c0.8-1.4,0.5-2.7-0.2-3.7
						c1,1.6-7.5,2.3-8,2.4c-3.4,0.8-6.8,2.2-10.1,3.3c-6.6,2-12.7,3.2-19.2,6.1c-13.6,6.1-26.8,12.8-40.4,19.3l-17.3,8.4l-4.2,2
						c-1.4,0.6-2.8,1.3-4.2,1.9l-8.8,3.8C218.6,201.4,210.7,204.9,203.4,210.6z"/>
				</g>
			</g>
		</g>
	</g>
</g>
<g>
	<g>
		<g>
			<path d="M247.4,56l-1.3,0C246.6,56,247,56.1,247.4,56z"/>
			<path d="M407,142.6l-0.8,0.1C406.6,142.9,406.8,142.8,407,142.6z"/>
			<path d="M484.5,153.5c0.2,0.4,0.5,0.9,0.7,1.3C484.9,154.1,484.7,153.8,484.5,153.5z"/>
			<g>
				<path d="M430,66.8l-6.3-6.1l-3.2-3l-3.3-2.9l-6.6-5.7l-6.9-5.3l-3.5-2.6l-3.6-2.5l-7.3-4.8c-2.5-1.5-5-3-7.5-4.4l-3.8-2.2
					l-3.9-2c-2.6-1.3-5.2-2.7-7.8-3.9l-7.9-3.5c-1.3-0.6-2.6-1.2-4-1.7l-4.1-1.5c-2.7-1-5.4-2-8.1-3c-5.5-1.7-10.9-3.5-16.5-4.8
					c-2.8-0.7-5.5-1.4-8.3-2c-2.8-0.5-5.6-1.1-8.4-1.6c-11.6-1.9-23.1-3.1-34.7-3.2L270.1,0c-1.4,0-2.9,0.1-4.3,0.1
					c-2.9,0.1-5.7,0.1-8.6,0.2C251.4,0.7,245.7,1,240,1.7l-4.2,0.5l-2.1,0.2l-2.1,0.3c-2.8,0.4-5.6,0.9-8.4,1.3
					c-2.8,0.4-5.6,1.1-8.4,1.6l-4.2,0.8c-1.4,0.3-2.8,0.6-4.1,0.9c-2.8,0.6-5.5,1.3-8.3,1.9c-2.7,0.7-5.5,1.5-8.2,2.2
					c-2.8,0.7-5.5,1.5-8.2,2.3l-4.1,1.2l-2,0.6l-2,0.7l-8.5,2.9c-2.8,1-5.6,2.1-8.4,3.2c-1.4,0.6-2.8,1.1-4.2,1.7l-4.1,1.8l-4.1,1.8
					l-2.1,0.9c-0.7,0.3-1.3,0.7-2,1l-8,4c-2.7,1.4-5.2,2.9-7.8,4.4c-1.3,0.7-2.6,1.5-3.9,2.2l-3.8,2.4l-3.8,2.4
					c-1.3,0.8-2.5,1.6-3.7,2.5l-7.3,5.2c-1.2,0.9-2.4,1.8-3.6,2.7l-3.5,2.8L91.3,61c-1.2,0.9-2.2,2-3.4,2.9l-6.6,6L75,76.3
					c-1,1.1-2.1,2.1-3.1,3.2l-3,3.3L66,86.2c-1,1.1-2,2.2-2.9,3.4l-5.5,7c-0.9,1.2-1.8,2.4-2.6,3.6l-2.6,3.7l-2.6,3.6
					c-0.9,1.2-1.6,2.5-2.4,3.7c-1.6,2.5-3.2,5-4.8,7.5c-1.5,2.5-3,5.1-4.5,7.6c-1.6,2.5-2.9,5.1-4.3,7.7c-1.4,2.6-2.8,5.1-4,7.8
					l-3.8,7.9l-3.5,8.1c-9,21.6-15.2,44.4-18.1,68c-0.4,2.8-0.6,5.7-0.8,8.6c-0.2,2.9-0.4,5.7-0.4,8.6l0,8.6
					c0.1,2.9,0.3,5.7,0.4,8.6c0.8,11.4,2.4,22.7,5,33.8c2.5,11.1,5.6,22,9.3,32.7l1.4,4c0.5,1.3,1,2.6,1.5,4c1,2.6,2,5.3,3,7.9
					c2.2,5.2,4.2,10.5,6.6,15.7c1.2,2.8,2.4,5.6,3.7,8.3c1.3,2.7,2.6,5.5,3.9,8.2l4.3,8.1l1.1,2l1.2,2l2.4,3.9
					c1.5,2.6,7.6,9.4,14.3,15.6c6.6,6.2,13.9,11.5,16.5,13c1.2,0.7-0.5-2.9-2.6-7.1c-2.3-4.1-4.7-9.2-5.8-11.3
					c-3.7-7-7.7-16-11.3-24.6c-0.9-2.1-1.7-4.3-2.5-6.4c-0.8-2.1-1.6-4-2.3-6c-1.3-3.9-2.6-7.3-3.6-10c-1-2.8-1.9-5.4-2.7-7.9
					c-0.2-0.6-0.4-1.2-0.6-1.8c-0.2-0.6-0.4-1.2-0.5-1.8c-0.3-1.2-0.7-2.3-1-3.5c-0.3-1.1-0.7-2.2-1-3.3c-0.2-0.5-0.3-1.1-0.5-1.6
					c-0.1-0.5-0.3-1.1-0.4-1.6c-0.6-2.1-1.1-4.2-1.6-6.3c-0.6-2.1-1-4.2-1.5-6.3c-0.5-2.1-1-4.3-1.6-6.6c-0.9-4.6-2.1-9.6-3-15.4
					c-2.1-12-3.1-24.1-3.2-36.1c0-12,1-23.9,3.1-35.5c2.1-11.6,5.2-23,9.5-33.9c4.3-10.9,9.7-21.3,16.1-31
					c5.1-7.9,10.5-15.5,16-23.1c1.4-1.9,2.8-3.7,4.2-5.6c0.7-1,1.5-1.8,2.2-2.8l2.2-2.7c2.9-3.7,6.1-7.2,9.2-10.8
					c1.6-1.7,3.3-3.4,4.9-5.1l2.4-2.6c0.8-0.8,1.7-1.6,2.6-2.4l5.2-4.9c1.8-1.5,3.6-3,5.4-4.6l2.7-2.3l2.8-2.1
					c1.9-1.4,3.8-2.8,5.7-4.2c2-1.3,3.9-2.5,5.9-3.8c1-0.6,1.9-1.3,3-1.8l3.1-1.7l3.3-1.8c1.1-0.6,2.2-1.2,3.3-1.7l6.8-3.2
					c2.3-1,4.6-1.9,6.9-2.9c1.2-0.5,2.3-1,3.5-1.4l3.5-1.2l3.5-1.2l1.8-0.6l1.8-0.5l7.1-2.1c2.4-0.6,4.8-1.2,7.2-1.8
					c2.4-0.6,4.8-1.1,7.2-1.5c4.8-1.1,9.7-1.7,14.5-2.5l7.3-0.8l1.8-0.2l1.8-0.1l3.7-0.3c9.7-0.7,19.5-1,29.2-0.7
					c10.4,0.3,20.7,1.6,30.8,3.8c10.1,2.3,19.9,5.5,29.4,9.4c9.5,3.8,18.6,8.6,27.4,13.8c8.8,5.2,17.2,10.9,25.3,17.3
					c2.1,1.5,4,3.1,5.9,4.7c1.9,1.6,3.9,3.2,5.7,4.9l5.6,5.1l5.3,5.4c1.8,1.7,3.4,3.7,5.2,5.6l2.5,2.8c0.9,0.9,1.6,2,2.4,2.9
					c1.6,2,3.2,3.9,4.8,5.9l4.5,6.1c5.8,8.3,10.9,17.1,15.4,26.2c4.4,9.2,7.9,18.7,10.7,28.5c6.4,22.9,8.5,47.1,5.7,70.6
					c-1.7,14.9-5,29.5-9.7,43.6l-0.9,2.7l-1,2.6l-2,5.2c-0.3,0.9-0.7,1.7-1.1,2.6l-1.1,2.6c-0.8,1.7-1.4,3.4-2.2,5.1
					c-3.2,6.7-6.6,13.3-10.6,19.6c-7.8,12.7-16.9,24.5-27.4,35.2c-10.5,10.6-22.3,20-35,27.8c-11.5,7.1-23.8,12.5-36.5,16.4
					c-12.7,3.9-25.7,6.4-38.8,7.5c-13.1,1.1-26.2,1-39.2-0.2c-13-1.2-25.9-3.3-38.8-6.3c-0.9-0.2-1.7-0.4-2.6-0.6
					c-0.9-0.2-1.7-0.5-2.6-0.7c-1.8-0.5-3.6-1-5.4-1.5c-0.9-0.2-1.8-0.5-2.7-0.8c-0.9-0.3-1.8-0.6-2.7-0.9c-0.9-0.3-1.9-0.6-2.8-0.9
					c-0.9-0.3-1.9-0.6-2.8-0.9c-3.7-1.4-7.5-2.6-11.2-4.2c-1.9-0.8-3.8-1.5-5.7-2.2c-1.9-0.8-3.7-1.6-5.6-2.4
					c-15.1-6.2-29.5-13.2-43.4-16.8c-6.7-1.8-12.3,0.9-16,4.5c1.5-1.5,3.4-0.3,5.5,2.3c1.1,1.3,2.1,3,3.3,5c1.2,1.9,2.4,3.9,3.6,6.1
					c1.2,2.2,2.4,4.4,3.6,6.5c1.2,2.1,2.4,4.2,3.4,6c0.5,0.9,1,1.8,1.4,2.5c0.5,0.7,0.9,1.4,1.2,2c0.7,1.2,1.2,2,1.5,2.2
					c1.3,1.7,2.7,3.3,4.1,5c1.5,1.6,3,3.1,4.6,4.7c0.8,0.8,1.6,1.5,2.4,2.3c0.8,0.8,1.6,1.6,2.5,2.3c1.7,1.4,3.4,2.9,5.2,4.3
					l2.7,2.2c0.9,0.7,1.8,1.3,2.8,2l5.6,4l1.4,1l1.4,0.9l2.9,1.9c1.9,1.3,3.8,2.6,5.8,3.8c15,9.5,30.3,17.9,47,24.1
					c16.7,6.2,34.9,10.2,54.8,10.3c20.8-0.1,41.7-2.8,62-8.3c20.2-5.6,39.7-13.8,57.9-24.4c18.1-10.7,34.9-23.6,49.9-38.3
					c1.9-1.8,3.7-3.7,5.5-5.6l5.4-5.7l5.1-6c1.7-2,3.4-4,5-6.1c3.2-4.2,6.5-8.3,9.4-12.7c1.5-2.2,3-4.3,4.5-6.5l4.2-6.7
					c18.8-30.6,31-65.2,35.5-100.8c4.6-35.5,1.9-71.9-7.7-106.4c-0.6-2.6-1.5-5.1-2.3-7.7c-0.8-2.6-1.6-5.2-2.5-7.7
					c-0.9-2.5-1.8-5.1-2.8-7.6c-0.5-1.3-0.9-2.6-1.4-3.8l-1.6-3.8c-1-2.5-2.1-5.1-3.2-7.6c-1.2-2.5-2.3-5-3.5-7.4l-1.8-3.7l-1.9-3.6
					c-1.3-2.4-2.6-4.9-3.9-7.3C459,100.8,445.5,82.7,430,66.8z"/>
			</g>
		</g>
	</g>
</g>
<g>
	<path d="M331.6,160.7c-13.5,1.3-26,9.3-37.5,16c-10,5.8-20.3,8.8-31,12.5c-11.7,4.3-24.7,10.3-34.7,17.8c-6,4.5-12,9.3-18,13.8
		c-5.8,4.5-9.3,10.8-13,16.8c-4,6.3-6.3,13.3-9.8,19.8c-3.3,6-2.8,11.3-6.1,17.3c-3.3,6.3-3.8,11-7,17c-3.1,5.4-5.7,13.6-9.8,22.3
		c-3.3,7-1.8,6.1-15,30c-2.7,4.8,11.3,5.7,16.1,3.4c6.8-2.8,13.8-6.3,19.5-11c6-5,10.5-9.5,18-12.5c6.5-2.3,13.5-4,19.5-7.3
		c6.8-3.5,12-8.8,17.5-13.8c5.5-4.8,12-8.3,18-12.3c21.3-14.2,27.5-43,39.8-64.3c5.5-9.3,9.5-19.3,14.3-28.8
		c5.3-10.5,18.5-21.3,19.3-33.3"/>
	<g>
		<g>
			<path d="M207.3,319l0.6-0.2C207.6,318.9,207.5,319,207.3,319z"/>
			<path d="M160.4,331.3l0,0.2C160.4,331.4,160.4,331.3,160.4,331.3z"/>
			<path d="M161.6,312l0.2-0.5C161.7,311.8,161.6,311.9,161.6,312z"/>
			<g>
				<path d="M145.5,345.3c0.1,0.9,0.3,1.7,0.7,2.5c0.4,0.8,1,1.4,1.7,2c0.7,0.5,1.5,1,2.4,1.4c0.4,0.2,0.9,0.3,1.4,0.5
					c0.2,0.1,0.5,0.1,0.7,0.2l0.5,0.1c2.4,0.5,4.6,0.6,6.8,0.5c1.1,0,2.2-0.1,3.4-0.3c1.2-0.2,2.3-0.4,3.7-0.9l2.9-1.2
					c0.9-0.4,1.8-0.8,2.8-1.3c3.7-1.7,7.2-3.7,10.7-6.1c1.7-1.2,3.4-2.4,4.9-3.8c1.5-1.3,2.9-2.6,4.4-3.9c2.9-2.6,5.8-5,8.9-6.8
					c0.8-0.4,1.6-0.9,2.4-1.3c0.8-0.4,1.6-0.7,2.5-1l5.6-2c3.8-1.4,7.7-2.8,11.4-4.8c3.7-1.9,7.2-4.5,10.4-7.1
					c1.7-1.4,3.3-2.9,4.9-4.3c1.6-1.4,3.1-3,4.6-4.2c3.2-2.6,6.7-4.8,10.3-7.1c1.8-1.1,3.6-2.3,5.4-3.5c0.9-0.6,1.8-1.3,2.7-1.9
					c0.9-0.7,1.8-1.3,2.6-2.1c1.6-1.5,3.3-3,4.8-4.6c1.5-1.6,2.9-3.4,4.2-5.1c2.6-3.6,4.9-7.3,7-11.1c2.1-3.8,3.9-7.6,5.7-11.5
					c3.6-7.7,6.8-15.6,10.7-23.1c0.9-1.8,1.9-3.6,2.9-5.4c1-1.8,2.1-3.6,3-5.5c2-3.7,3.7-7.5,5.4-11.3c1.7-3.8,3.4-7.5,5.2-11.2
					c0.9-1.9,1.8-3.6,2.9-5.3c1.1-1.7,2.3-3.3,3.6-4.9c2.7-3.5,5.6-6.8,8.2-10.5c0.7-0.9,2.4-3.8,3.7-7c0.4-0.8,0.6-1.6,0.8-2.4
					c0.3-0.8,0.4-1.6,0.5-2.3c0.2-0.7,0.2-1.4,0.2-1.9c0-0.5,0.1-1,0.1-1.3c0-0.5-0.3,0.9-0.7,2.7c-0.5,1.7-1.4,3.7-1.8,4.5
					c-2.6,5.4-8.8,12-11.7,15.6c-3,3.6-5.1,6.4-6.8,9.5c-1.7,3.1-3.2,6.2-5.3,10.5c-2.1,4.5-4.3,8.9-6.6,13.2
					c-1.1,2.2-2.4,4.2-3.6,6.3l-1.8,3.2l-1.7,3.3c-4.5,8.7-8.3,17.7-12.8,26.3c-3.7,6.9-7.7,13.8-12.7,19.8
					c-2.6,2.9-5.3,5.7-8.5,7.9c-0.8,0.6-1.5,1.2-2.4,1.7l-2.5,1.6c-1.7,1.1-3.4,2.1-5.1,3.2c-3.7,2.3-7.5,4.7-11,7.8
					c-3.3,2.9-6.4,5.8-9.8,8.2c-1.7,1.2-3.4,2.4-5.1,3.3c-0.9,0.5-1.8,1-2.7,1.4c-0.9,0.4-1.8,0.9-2.8,1.2
					c-3.8,1.6-7.9,2.8-12.1,4.1l-1.7,0.6c-0.6,0.2-1.2,0.4-1.8,0.6c-1.2,0.5-2.4,1-3.5,1.6c-2.2,1.2-4.4,2.5-6.3,4
					c-2,1.5-3.8,3-5.6,4.5l-2.6,2.2c-0.9,0.7-1.7,1.3-2.6,2c-3.5,2.5-7.4,4.7-11.5,6.5c-1,0.5-2,0.9-3.1,1.4l-1.6,0.7l-0.8,0.3
					c-0.2,0.1-0.3,0.1-0.5,0.2c-1.5,0.5-3.7,0.7-5.7,0.6c-0.9,0-1.7-0.1-2.6-0.2c-0.4-0.1-0.8-0.1-1.2-0.2c-0.1,0-0.1,0-0.2-0.1
					c-0.1,0-0.2-0.1-0.3-0.2c-0.1-0.1,0-0.2,0.1-0.3l4.6-8.7c1.7-3.2,3.3-6.4,4.9-9.7c0.8-1.7,1.6-3.4,2.3-5.1
					c0.7-1.7,1.3-3.3,2.1-4.8c1.5-3.3,2.9-6.7,4.3-10c1-2.5,2-5,3-7.3c0.5-1.2,1.1-2.3,1.6-3.4c0.3-0.6,0.6-1.1,0.9-1.7
					c0.4-0.7,0.7-1.3,1-2c1.3-2.6,2.2-5.3,3-7.8c0.9-2.5,1.8-4.8,2.9-6.9c0.4-0.7,0.9-1.6,1.2-2.5c0.4-0.9,0.7-1.8,1-2.7
					c0.6-1.8,1-3.5,1.4-5.1c0.4-1.6,0.8-3.1,1.3-4.5c0.3-0.7,0.5-1.4,0.9-2l1.1-2.2c3.2-6.3,5.4-12.6,8.7-17.9
					c3.6-5.8,6.8-11.4,11.4-15.3l0.8-0.7l1-0.8l2-1.5l4-3.1l8-6.1c1.2-0.9,2.4-1.9,3.6-2.7c1.2-0.9,2.4-1.7,3.6-2.5
					c2.5-1.6,5-3.1,7.6-4.4c5.2-2.7,10.6-5.1,16.1-7.3c1.4-0.5,2.8-1,4.1-1.5c1.4-0.5,2.8-1,4.2-1.4c2.9-1,5.7-1.9,8.6-2.9
					c5.8-2,11.7-4.2,17.4-7.2c0.7-0.4,1.5-0.8,2.3-1.3c0.4-0.2,0.8-0.4,1.2-0.7c0.4-0.2,0.7-0.5,1.1-0.7c1.5-0.9,3-1.8,4.6-2.8
					c3.1-1.9,6.3-3.8,9.4-5.5c6.3-3.5,12.4-6.2,17.4-7.7c2.4-0.8,3.2-1.4,3.1-2c0,0.2-0.8,0.4-2.2,0.5c-1.3,0.1-3.1,0.3-4.9,0.6
					c-3.6,0.5-7.4,1.5-7.9,1.7c-6.1,1.9-12.3,5.1-18.2,8.1c-2.9,1.5-5.6,2.9-8.3,4.1c-2.8,1.2-5.6,2.3-8.4,3.2
					c-5.7,1.9-11.7,3.6-18.2,5.7c-6.9,2.3-13.6,5-20.2,8.2c-3.3,1.6-6.5,3.3-9.6,5.2c-1.6,1-3.1,1.9-4.7,3c-1.5,1-3.1,2.2-4.4,3.2
					c-5.7,4.3-11.3,8.7-17,13c-3.2,2.6-5.7,5.6-7.9,8.7c-2.2,3.1-4,6.2-5.9,9.2c-3.5,5.6-5.6,11.5-8.2,16.7c-0.3,0.7-0.6,1.3-1,1.9
					l-1.1,2.1c-0.8,1.6-1.4,3.2-1.8,4.8c-0.9,3.2-1.4,6.1-2.4,8.5c-0.2,0.6-0.5,1.2-0.7,1.8l-1,2c-0.7,1.5-1.4,3-1.9,4.5
					c-1.1,3-2,5.9-3.1,8.4c-0.3,0.6-0.6,1.3-0.9,1.9c-0.3,0.6-0.5,1.1-1,1.9c-0.8,1.4-1.5,2.9-2.1,4.3c-1.3,2.9-2.4,5.7-3.6,8.5
					c-1.3,3.2-2.6,6.3-4.1,9.5c-0.8,1.7-1.5,3.4-2.2,5c-0.7,1.6-1.4,3.1-2.1,4.6c-1.5,3.1-3.2,6.2-4.9,9.3
					c-1.9,3.4-3.8,6.8-5.7,10.3C145.7,343,145.4,344.1,145.5,345.3z"/>
			</g>
		</g>
	</g>
</g>
</svg>
