<?xml version="1.0" encoding="utf-8"?>
<!-- Generator: Adobe Illustrator 16.0.0, SVG Export Plug-In . SVG Version: 6.00 Build 0)  -->
<!DOCTYPE svg PUBLIC "-//W3C//DTD SVG 1.1//EN" "http://www.w3.org/Graphics/SVG/1.1/DTD/svg11.dtd">
<svg version="1.1" id="Layer_1" xmlns="http://www.w3.org/2000/svg" xmlns:xlink="http://www.w3.org/1999/xlink" x="0px" y="0px"
	 width="500px" height="500px" viewBox="0 0 500 500" enable-background="new 0 0 500 500" xml:space="preserve">
<g>
	<g>
		<g>
			<g>
				<path fill="#FFFFFF" d="M305.622,117.608l0.572,0.286C305.948,117.745,305.811,117.604,305.622,117.608z"/>
				<path fill="#FFFFFF" d="M246.9,176.634l-0.403-0.145C246.641,176.645,246.779,176.661,246.9,176.634z"/>
				<path fill="#FFFFFF" d="M285.408,197.838l-0.041,0.919C285.425,198.326,285.427,198.049,285.408,197.838z"/>
				<g>
					<path fill="#FFFFFF" d="M282.605,157.203l-0.032-2.926c-0.001-0.962,0.075-1.854,0.095-2.784l0.064-2.766
						c-0.011-0.466,0.05-0.911,0.09-1.361c0.034-0.384,0.106-1.128,0.064-0.884c-0.152,0.342-0.309,0.084-0.527-0.25
						c-0.165-0.29-0.352-0.742-0.535-1.444c-0.013-0.57,0.143-0.901,0.466-1.299c0.246-0.275,0.604-0.52,1.098-0.704
						c0.246-0.092,0.526-0.169,0.839-0.228c0.157-0.03,0.321-0.055,0.495-0.075l0.265-0.026l0.133-0.013
						c0.087,0.016,0.286,0.092,0.424,0.136c2.438,0.823,4.884,1.687,7.309,2.594l3.607,1.39l1.748,0.706l0.816,0.334
						c0.124,0.05,0.259,0.107,0.338,0.132l0.183,0.045c5.296,2.67,10.589,5.562,15.686,8.771c3.736,2.38,7.486,4.703,11.157,7.174
						c3.665,2.484,7.326,4.965,10.986,7.446c3.672,2.465,7.361,4.905,11.091,7.296c3.712,2.441,7.453,4.864,11.265,7.196
						c15.342,9.35,29.267,20.005,43.71,30.82c6.981,5.224,14.399,9.754,21.71,14.355c7.357,4.582,14.521,9.358,21.085,14.976
						c1.749,1.502,3.458,3.045,5.158,4.594c1.665,1.577,3.328,3.153,4.996,4.734c1.643,1.536,11.93,6.75,14.319,7.318
						c1.084,0.265-2.73-5.656-3.82-7.289c-3.582-5.299-9.34-13.262-12.791-16.749c-3.438-3.595-5.97-6.225-8.613-8.761
						c-1.322-1.267-2.672-2.513-4.179-3.84c-1.516-1.308-3.188-2.7-5.146-4.282c-8.092-6.55-16.128-12.919-23.96-19.459
						c-7.842-6.54-15.459-13.379-22.782-20.718c-5.902-5.946-12.729-11.121-19.624-16.175c-6.86-5.091-14.046-9.892-20.63-15.254
						c-2.785-2.262-5.548-4.555-8.307-6.859c-2.745-2.317-5.62-4.504-8.434-6.76c-5.672-4.481-11.354-8.903-17.272-13.169
						l-1.053-0.679l-0.766-0.481l-1.413-0.867l-2.745-1.622c-1.825-1.052-3.661-2.06-5.525-3.031l-5.368-2.796
						c-2.784-1.433-5.585-2.847-8.403-4.191c-5.607-2.655-11.426-5.237-16.744-6.151c-2.646-0.446-5.124-0.526-7.431-0.245
						c-1.159,0.141-2.273,0.359-3.41,0.704c-0.57,0.17-1.146,0.373-1.751,0.649c-0.301,0.136-0.61,0.293-0.89,0.453
						c-0.276,0.166-0.454,0.274-0.657,0.446l-2.408,1.908c-0.049,0.043-0.103,0.073-0.148,0.126l-0.128,0.208l-0.254,0.416
						l-0.51,0.832l-1.021,1.667l-4.112,6.716c-1.321,4.874-2.48,9.759-3.698,14.705c-0.346,1.197-0.494,2.557-0.687,3.88
						l-0.557,3.985l-0.273,1.995l-0.135,0.998l-0.044,0.374l-0.03,0.308c-0.073,0.819-0.179,1.644-0.212,2.46
						c-0.068,2.734-0.147,5.491-0.148,8.202c0.108,2.629,0.203,5.298,0.357,7.886l0.65,7.474l0.75,7.103l0.698,6.828l0.221,2.152
						l0.171,1.45l0.107,0.653l0.039,0.168l0.041,0.16l0.024,0.067l0.051,0.135c0.037,0.09,0.079,0.179,0.124,0.268
						c0.202,0.341,0.407,0.719,0.378,1.126c0.003,0.2-0.029,0.397-0.055,0.595l0.016,0.602c0.031,0.091-0.081,0.092-0.135,0.13
						c-0.857,0.409-1.827,0.609-2.75,0.645l-0.345,0.008c-0.146,0.003-0.058-0.011-0.788,0.024
						c-1.133,0.066-2.332,0.092-3.537,0.113c-2.448,0.022-5.033-0.029-7.744-0.113l-5.32-0.15l-2.769-0.045l-2.679,0.018
						l-10.716,0.142c-7.143,0.128-14.282,0.317-21.419,0.524c-14.386,0.381-28.242,0.983-42.303,1.264
						c-6.342,0.131-12.644,0.04-18.924-0.139c-6.281-0.307-12.539-0.741-18.798-1.106c-6.259-0.371-12.519-0.695-18.804-0.841
						c-3.143-0.073-6.292-0.101-9.452-0.067c-3.159,0.064-6.329,0.129-9.511,0.194c-13.486,0.431-31.679,0.346-43.238,7.632
						c-2.809,1.769-3.762,4.994-3.858,7.858c0.15-4.7,14.794,5.355,15.891,5.83c6.507,2.891,13.75,4.228,20.667,6.251
						c3.349,0.979,6.613,2.03,9.85,3.077c1.62,0.521,3.232,1.039,4.843,1.557c1.612,0.492,3.224,0.945,4.844,1.394
						c6.479,1.779,13.08,3.234,20.248,3.747c7.51,0.538,15.009,0.898,22.503,1.134c1.874,0.051,3.748,0.128,5.62,0.137l5.614-0.02
						l11.227-0.145c7.484-0.137,14.969-0.345,22.462-0.571c3.729-0.11,7.461-0.22,11.197-0.33c3.681-0.088,7.365-0.177,11.054-0.265
						l18.81-0.494l9.404-0.283l4.702-0.143c1.608-0.06,3.003-0.042,4.593-0.056c3.104-0.012,6.384,0.005,9.884-0.063
						c1.763-0.041,3.548-0.093,5.404-0.192c0.904-0.033,1.877-0.118,2.816-0.18c0.753-0.029,2.579-0.245,4.036-0.408
						c6.077-0.688,12.021-2.022,17.463-4.005c1.326-0.536,2.706-1.015,3.99-1.597l3.849-1.755l7.835-3.589
						c0.498-0.226,0.993-0.452,1.485-0.704c0.015-1.721,0.029-3.445,0.044-5.173l0.033-2.663c-0.011-0.921,0.102-1.831-0.072-2.773
						c-0.503-1.984,0.249-3.458,0.389-5.134c0.238-1.638,0.384-3.262,0.388-4.837c0.01-1.577-0.101-3.147-0.368-4.876
						c-0.301-1.733-0.763-3.571-1.431-5.391c-0.146-0.487-0.33-0.837-0.502-1.228c-0.155-0.343-0.427-0.937-0.349-0.785
						c0.008-0.071,0.021-0.23,0.015-0.338l-0.122-2.772C283.097,171.246,282.616,163.828,282.605,157.203z"/>
				</g>
			</g>
		</g>
	</g>
	<g>
		<g>
			<g>
				<path fill="#FFFFFF" d="M287.366,355.279l0.122-0.086C287.445,355.198,287.443,355.131,287.366,355.279z"/>
				<path fill="#FFFFFF" d="M283.034,282.55l0.702-0.367C283.296,282.3,283.115,282.431,283.034,282.55z"/>
				<path fill="#FFFFFF" d="M246.43,316.116l-0.565,0.004C246.132,316.156,246.301,316.145,246.43,316.116z"/>
				<g>
					<path fill="#FFFFFF" d="M248.983,317.824l-0.021-0.011l-0.004-0.003l0,0.318l0.003,0.734l0.029,2.938
						c0.046,2.276,0.093,4.551,0.14,6.822l0.053,0.601l0.021,0.241l5.008-0.317l4.756-0.245c1.317-0.072,2.731-0.113,3.974-0.144
						l1.598-0.041l1.505-0.002c0.41-0.004,0.821,0.005,1.232,0.026l0.522,0.021c0.151,0.006,0.303,0.018,0.454,0.033l0.227,0.028
						c17.217,2.061-23.314-2.763-19.164-2.391l-0.03-0.268l-0.119-1.07l-0.026-0.224l-0.004,0.019l-0.007,0.038l-0.012,0.063
						l0.032-0.144c0.024-0.108,0.078-0.343,0.062-0.262c-0.076,0.353-0.153,0.783-0.213,1.172c-0.299,1.613-0.143,3.165-0.157,4.728
						l0.03,2.34l0.019,1.129l0.039,0.669l0.168,2.672l0.379,5.181l0.398,4.529l0.226,2.266l0.059,0.566l0.03,0.283
						c0.006,0.024,0.009,0.14,0.013,0.245l0.01,0.311l0.086,2.475c0.108,3.372,0.267,6.348,0.423,9.378
						c0.168,2.977,0.336,5.951,0.503,8.923l0.273,4.352l0.142,2.146l0.072,1.065l0.019,0.266l0.066,0.209l0.137,0.415
						c0.497,1.459,1.039,2.698,1.64,3.825c0.594,1.132,1.225,2.151,1.926,3.093c0.704,0.943,1.41,1.87,2.327,2.662l1.389,1.294
						c0.494,0.435,0.978,0.951,1.619,1.329c0.291,0.208,0.635,0.397,0.964,0.592l0.248,0.145l0.03,0.019l0.016,0.009
						c0.029-0.035-0.044,0.092,0.069-0.076l0.065,0.033l0.131,0.066l0.523,0.266c0.697,0.349,1.396,0.666,2.099,0.886
						c1.421,0.404,2.765,0.543,4.07,0.576c2.614,0.04,5.139-0.412,7.863-1.192c0.685-0.204,1.377-0.429,2.096-0.677l0.541-0.188
						c0.181-0.063,0.372-0.214,0.557-0.315l1.114-0.68l4.403-2.675c2.857-1.714,5.718-3.43,8.584-5.148
						c2.82-1.67,5.605-3.295,8.381-4.876l4.159-2.339l1.983-1.102l1.428-0.827c7.488-4.222,14.944-8.426,22.397-12.628
						c3.723-2.108,7.434-4.234,11.125-6.404l5.538-3.263l5.771-3.482l0.702-0.445c0.204-0.196,0.445-0.333,0.665-0.503
						c0.441-0.324,0.92-0.649,1.328-0.974c0.846-0.692,1.396-1.199,2.044-1.771c3.525-3.293,7.026-6.562,10.514-9.818
						c3.441-3.172,6.891-6.274,10.37-9.333c6.946-6.099,14.051-12.116,21.176-17.869l2.487-2.004l1.132-0.903l0.281-0.229
						c0.004,0.002,0.006,0.002,0.006,0c0-0.003-0.001-0.008-0.005-0.016l-0.006-0.015l-0.404-0.703l-1.074-1.93l-1.034-1.954
						l-0.501-0.985l-0.247-0.495l-0.123-0.248c-0.868-1.464,7.008,11.636,3.685,6.098l0.18-0.114l0.357-0.228l0.716-0.459
						l1.425-0.924l2.833-1.875c0.934-0.606,1.895-1.307,2.852-2.01l2.857-2.103l5.682-4.218c1.93-1.394,3.669-2.824,5.505-4.217
						c1.817-1.397,3.646-2.776,5.496-4.125c1.85-1.35,3.72-2.67,5.621-3.949c1.861-1.344,3.753-2.646,5.686-3.899
						c2.067-1.333,4.162-2.618,6.266-3.896l3.157-1.919l0.789-0.481l0.395-0.241c0.132-0.081,0.285-0.18,0.307-0.173
						c0.107-0.04,0.21-0.083,0.308-0.131c0.12-0.024,0.236-0.053,0.349-0.085c0.055-0.017,0.116-0.048,0.184-0.097
						c0.227-0.141,0.487-0.302,0.776-0.482c0.584-0.378,1.272-0.853,2.02-1.396c1.288-1.104,2.842-2.463,4.242-3.868
						c1.333-1.426,2.69-2.848,3.672-4.101c0.997-1.248,1.75-2.278,2.06-2.855c0.284-0.523-1.372-0.082-3.316,0.564
						c-1.924,0.667-4.277,1.432-5.241,1.794c-1.606,0.591-3.525,1.154-5.407,1.792c-0.987,0.276-2.013,0.521-3.002,0.777
						l-1.424,0.345c-0.461,0.182-0.922,0.363-1.381,0.544c-3.736,1.514-7.227,3.027-9.489,4.197
						c-9.099,4.805-13.512,6.732-22.326,12.252c-2.281,1.431-4.562,2.682-6.822,4.025c-2.264,1.316-4.521,2.63-6.773,3.939
						c-2.367,1.264-4.729,2.525-7.088,3.785c-0.477,0.281-0.95,0.575-1.417,0.877l-0.95,0.655l-1.786,1.252l-3.338,2.42
						c-8.739,6.407-17.35,12.664-26.499,18.427c-3.752,2.363-7.36,4.979-10.868,7.672c-1.715,1.343-3.436,2.689-5.16,4.039
						c-0.83,0.651-1.699,1.356-2.398,1.871c-0.754,0.577-0.955,0.706-1.391,0.954c-3.771,2.007-7.546,4.017-11.307,6.02
						c-3.867,2.048-7.752,4.025-11.689,5.827c-4.338,1.987-8.704,3.92-13.075,5.847l-6.558,2.892l-3.276,1.454l-1.637,0.73
						l-0.409,0.184l-0.201,0.091l-0.085,0.027l-0.335,0.109c-1.773,0.582-3.331,1.094-4.772,1.655
						c-0.709,0.273-1.446,0.593-2.078,0.888c-0.392,0.16-0.771,0.366-1.214,0.561c-0.436,0.2-1.024,0.315-1.318-0.153
						c-0.249-0.461-0.168-1.064-0.07-1.604c0.268-1.1,0.528-2.133,0.771-2.975l0.186-0.601l0.081-0.153l0.04-0.07l0.01-0.017
						l0.005-0.009l0.003-0.111l0.009-0.5l0.089-8.013l0.005-3.634l-0.031-3.455l-0.012-1.275c-0.002-0.136-0.008-0.16,0.011-0.242
						c0.018-0.009,0.022,0.021,0.035,0.028c0.002,0.001,0.004,0,0.005-0.002l0.129-0.616l0.128-0.741l0.04-0.299l0.024-0.236
						c0.03-0.315,0.054-0.631,0.07-0.947c0.017-0.377,0.021-0.65,0.023-0.975l-0.008-0.549c-0.017-0.603-0.04-0.939-0.061-1.241
						c-0.011-0.13-0.011-0.111-0.015-0.135l0.001,0.104l-0.005,0.057l-0.002,0.015l-0.002-0.052l-0.003-0.104
						c-0.427-14.918-0.854-29.824-1.281-44.739l-14.98-0.312c-4.973-0.14-9.93-0.293-14.858-0.485l-9.969-0.628l-2.119-0.136
						c-0.7-0.048-1.405-0.095-2.188-0.113l-4.569-0.155c-1.681-0.043-3.396,0.028-5.093,0.041l-2.55,0.046l-2.462,0.167
						l-4.924,0.336c-1.612,0.137-3.144,0.338-4.72,0.502l-8.898,0.959c-2.77,0.263-5.508,0.632-8.301,0.781
						c-28.043,2.159-56.719,2.539-86.014,1.334c-13.247-0.544-26.392-2.051-39.728-3.174c-3.325-0.296-6.678-0.54-10.042-0.749
						c-3.354-0.228-6.734-0.387-10.136-0.475c-1.699-0.038-3.399-0.075-5.102-0.112c-0.304,0-0.218-0.016-0.23-0.021
						c-0.001-0.008-0.002-0.011-0.003-0.012l-0.052,0.626c-0.038,0.271-0.037,0.412-0.05,0.582
						c-0.026,0.338-0.077,0.688-0.155,1.047c-0.064,0.321-0.074,0.462-0.145,0.719c-0.03,0.116-0.066,0.234-0.106,0.355l-0.043,0.16
						l-0.06,0.173c-0.014,0.04-0.073,0.171-0.055,0.132c0.005-0.008,0.004-0.001-0.005,0.02c-0.019,0.038,0.016-0.034,0.044-0.085
						l0.082-0.136c0.251-0.415,0.855-1.215,2.17-2.44l0.061-0.053c0.001,0-0.001,0.003-0.002,0.004l-0.007,0.011
						c-0.005,0.003-0.011,0.024-0.017,0.013c-0.012-0.01-0.026-0.019-0.043-0.025c-0.033-0.023-0.083,0.009-0.133-0.07
						c-0.051-0.058-0.115-0.096-0.187-0.157c-0.066-0.096-0.141-0.188-0.226-0.277c-0.323-0.44-0.734-1.112-1.153-1.995
						c-0.404-0.914-0.825-1.994-1.231-3.203c-0.38-1.235-0.784-2.554-1.144-3.967c-0.741-2.813-1.411-5.875-2.227-8.904
						c-0.796-3.039-1.721-6.057-2.988-8.948c-1.226-2.801-4.08-4.479-6.855-5.265c2.27,0.669,0.047,3.729-2.475,7.271
						c-2.579,3.484-5.426,7.565-5.669,8.151c-1.583,3.433-2.569,7.263-3.065,11.302c-0.453,4.049-0.512,8.292,0.043,12.745
						c0.513,4.296,1.627,8.854,4.239,13.43c1.32,2.274,3.077,4.502,5.237,6.507c2.171,2.009,4.798,3.669,7.598,4.937
						c2.823,1.266,5.75,1.994,8.674,2.438c1.719,0.41,3.367,0.786,5.079,1.126c1.702,0.339,3.421,0.637,5.169,0.889
						c1.756,0.272,3.54,0.496,5.359,0.661c30.465,2.762,61.453,4.246,93.59,3.974c13.647-0.117,27.429-0.796,41.263-2.173
						c3.46-0.363,6.917-0.671,10.383-1.164l9.992-1.278l4.502-0.555c0.768-0.11,1.464-0.146,2.175-0.196l2.129-0.151l2.129-0.153
						c0.719-0.065,1.364-0.024,2.049-0.043c1.358,0.014,2.684-0.079,4.068,0.01c1.066,0.057,2.136,0.114,3.208,0.172
						c1.084,0.063,2.349,0.209,3.518,0.313c1.249,0.125,2.501,0.25,3.757,0.376l0.993,0.104c0.284,0.031,0.822,0.083,0.686,0.081
						l0.054,0.059c0.214,0.165,0.317,0.34,0.283,0.497C249.245,317.787,249.078,317.863,248.983,317.824z"/>
				</g>
			</g>
		</g>
	</g>
</g>
</svg>
