<?xml version="1.0" encoding="utf-8"?>
<!-- Generator: Adobe Illustrator 16.0.0, SVG Export Plug-In . SVG Version: 6.00 Build 0)  -->
<!DOCTYPE svg PUBLIC "-//W3C//DTD SVG 1.1//EN" "http://www.w3.org/Graphics/SVG/1.1/DTD/svg11.dtd">
<svg version="1.1" id="Layer_1" xmlns="http://www.w3.org/2000/svg" xmlns:xlink="http://www.w3.org/1999/xlink" x="0px" y="0px"
	 width="500px" height="500px" viewBox="0 0 500 500" enable-background="new 0 0 500 500" xml:space="preserve">
<g>
	<g>
		<g>
			<g>
				<path fill="#FFFFFF" d="M78.641,63.928c0,0-0.312,0.052-0.614,0.123c-0.305,0.066-0.609,0.132-0.609,0.132
					C77.97,64.087,78.335,64.066,78.641,63.928z"/>
				<path fill="#FFFFFF" d="M255.73,147.8l-0.747,0.291C255.664,148.055,255.788,147.934,255.73,147.8z"/>
				<path fill="#FFFFFF" d="M278.813,91.687l0.979-0.947C279.299,91.166,279.014,91.455,278.813,91.687z"/>
				<g>
					<path fill="#FFFFFF" d="M241.832,88.964c-7.611-7.846-15.977-14.82-24.735-20.928l-6.642-4.424l-6.772-4.09
						c-4.551-2.599-9.186-5.109-13.679-7.32c-9.088-4.521-18.56-8.667-28.424-12.099c-9.84-3.439-20.152-6.128-30.536-7.82
						l-3.985-0.617l-4.037-0.49c-2.67-0.363-5.425-0.508-8.127-0.747c-5.47-0.291-10.963-0.447-16.489-0.125
						c-5.509,0.211-11.036,0.908-16.465,1.775c-5.331,0.911-10.672,2.139-15.959,3.671c-5.285,1.543-10.526,3.392-15.622,5.652
						c-1.273,0.563-2.529,1.177-3.791,1.765l-0.944,0.446l-1.02,0.537l-2.042,1.097c-1.372,0.692-2.67,1.598-3.988,2.421
						c-1.33,0.799-2.566,1.808-3.829,2.74c-4.981,3.859-9.428,8.622-12.889,14.059c-3.473,5.427-5.924,11.496-7.272,17.671
						c-1.453,6.546-1.661,13.162-0.996,19.455c0.178,1.569,0.43,3.116,0.653,4.672c0.104,0.81,0.262,1.469,0.402,2.178l0.43,2.103
						c0.525,2.815,1.295,5.565,1.974,8.337c3.03,10.997,7.266,21.553,12.402,31.432c2.554,4.948,5.297,9.759,8.214,14.403
						c2.889,4.671,5.943,9.182,9.08,13.589c3.137,4.422,6.346,8.699,9.669,12.919c3.435,4.161,6.872,8.324,10.312,12.492
						c14.24,16.329,28.781,31.518,43.15,46.658c3.61,3.775,7.221,7.552,10.835,11.331c3.58,3.784,7.27,7.591,10.751,11.388
						c3.518,3.804,7.043,7.615,10.578,11.438c3.529,3.832,7.083,7.622,10.589,11.617c13.556,15.258,27.651,29.727,40.708,44.914
						l4.85,5.727c0.803,0.958,1.625,1.905,2.41,2.875l2.329,2.927l4.642,5.871c1.53,1.97,2.958,4.001,4.434,6.007
						c1.436,2.013,2.978,4.032,4.307,6.056l1.991,3.038l0.991,1.522l0.919,1.561c1.203,2.093,2.482,4.149,3.532,6.316l1.638,3.219
						c0.555,1.068,0.993,2.188,1.49,3.281c4.132,9.391,6.985,19.144,8.693,29.072c0.162,1.229,0.789,3.636,1.485,6.672
						c0.318,1.526,0.668,3.205,1.035,4.961c0.358,1.761,0.601,3.616,0.935,5.471c0.366,1.854,0.504,3.725,0.744,5.52
						c0.242,1.937,0.474,3.787,0.684,5.468c0.121,0.907,0.236,1.768,0.343,2.571c0.119,0.761,0.245,1.406,0.358,2.024
						c0.229,1.22,0.432,2.19,0.597,2.83c0.15,0.582,0.352,0.04,0.574-1.17c0.111-0.605,0.228-1.379,0.346-2.262
						c0.118-0.918,0.251-1.95,0.391-3.038c0.137-1.111,0.28-2.279,0.423-3.441c0.143-1.065,0.285-2.126,0.418-3.126
						c0.239-1.996,0.531-3.77,0.556-4.84c0.648-7.045,0.468-16.138-0.741-24.842c-1.17-8.705-3.402-16.944-5.348-22.395
						c-1.03-2.735-2.025-5.288-3.02-7.686c-1.073-2.354-2.034-4.62-3.076-6.733c-1.073-2.094-2.08-4.127-3.135-6.08
						c-1.108-1.923-2.193-3.807-3.28-5.695c-2.289-3.646-4.635-7.272-7.243-11.237c-1.369-1.93-2.797-3.945-4.315-6.086
						c-1.534-2.128-3.122-4.417-4.956-6.759c-1.869-2.441-3.736-4.88-5.6-7.313c-1.881-2.42-3.815-4.781-5.717-7.17l-2.863-3.571
						l-2.908-3.515c-1.941-2.34-3.879-4.676-5.815-7.011c-7.833-9.198-15.636-18.359-23.427-27.508
						c-7.911-9.106-15.811-18.199-23.719-27.302c-3.931-4.507-7.842-9.035-11.733-13.59l-5.815-6.856
						c-1.901-2.316-3.804-4.634-5.708-6.955c-6.204-7.506-12.381-14.981-18.776-22.385c-3.064-3.763-6.168-7.508-9.298-11.244
						l-2.353-2.8l-2.212-2.875l-4.446-5.74l-4.466-5.731c-1.451-1.952-2.905-3.938-4.311-5.914
						c-2.848-3.952-5.549-7.939-8.167-11.947c-5.14-8.039-9.801-16.219-13.327-24.621c-3.894-9.074-6.682-18.383-8.32-27.783
						l-0.551-3.532c-0.042-0.287-0.104-0.604-0.128-0.865l-0.063-0.764l-0.137-1.523c-0.144-1.021-0.069-1.999-0.109-2.987
						c-0.064-0.997,0.063-1.941,0.11-2.896c0.293-3.794,1.187-7.272,2.61-10.333c2.865-6.099,7.96-10.63,14.725-13.585
						c0.215-0.097,0.396-0.193,0.637-0.293l0.783-0.305l1.562-0.615c1.027-0.437,2.111-0.762,3.166-1.144
						c1.05-0.393,2.141-0.702,3.222-1.034c1.072-0.35,2.172-0.642,3.277-0.927c4.406-1.166,8.958-2.055,13.636-2.717
						c2.518-0.38,4.956-0.556,7.404-0.773c1.228-0.084,2.464-0.093,3.695-0.146c0.616-0.017,1.23-0.054,1.849-0.055l1.859,0.032
						c1.241,0.04,2.473-0.003,3.72,0.1l3.733,0.24c1.247,0.102,2.499,0.267,3.748,0.395c1.247,0.115,2.501,0.304,3.756,0.504
						c2.504,0.338,5.023,0.851,7.539,1.333c1.259,0.26,2.523,0.57,3.784,0.852c1.271,0.269,2.51,0.599,3.738,0.945l3.699,1.005
						c1.236,0.311,2.452,0.77,3.678,1.146l3.671,1.18l3.645,1.35c9.715,3.623,19.265,8.133,28.761,13.265
						c4.809,2.607,9.384,5.173,13.813,7.911c2.191,1.397,4.455,2.714,6.551,4.204c2.133,1.451,4.305,2.861,6.326,4.418
						c8.46,6.169,16.168,13.058,22.892,20.748c0.86,0.948,1.705,1.887,2.54,2.922l2.768,3.387c0.984,1.201,2.056,2.486,3.227,3.816
						c0.596,0.672,1.182,1.333,1.85,2.037c0.914,0.987,1.875,1.949,2.855,2.885c3.914,3.757,8.371,6.807,13.072,9.016
						c0.59,0.268,1.189,0.505,1.787,0.75c0.6,0.231,1.19,0.512,1.812,0.622c1.231,0.29,2.439,0.635,3.738,0.757l3.828,0.524
						c0.634,0.081,1.285,0.188,1.903,0.249l1.843,0.165c2.252-1.001,4.494-2.007,6.686-3.053c1.096-0.539,2.221-0.985,3.291-1.6
						l3.188-1.907l1.593-0.952c0.527-0.322,1.002-0.713,1.505-1.065l2.979-2.169l0.744-0.542c0.225-0.169,0.342-0.283,0.519-0.428
						l0.973-0.825l1.937-1.659c1.181-1.111,2.427-2.235,3.539-3.349c1.093-1.109,2.249-2.239,3.247-3.327l1.545-1.646l1.319-1.354
						l2.59-2.649c3.352-3.636,7.137-6.841,10.787-10.187c1.892-1.603,3.869-3.117,5.799-4.683c0.977-0.771,1.927-1.569,2.924-2.317
						l3.06-2.17c9.833-7.065,20.402-13.313,31.584-18.787c2.783-1.384,5.651-2.662,8.472-3.998l2.124-0.992l2.059-0.879
						c1.367-0.565,2.733-1.19,4.099-1.709c5.46-2.176,10.899-3.838,16.255-5.073c6.762-1.497,13.348-2.102,19.575-1.63
						c6.098,0.467,11.901,2.088,17.315,4.803c10.833,5.382,20.086,15.344,26.292,27.384c0.84,1.466,1.486,3.048,2.195,4.595
						c0.756,1.525,1.28,3.161,1.91,4.748c1.187,3.205,2.139,6.488,2.938,9.903c1.583,6.785,2.393,13.766,2.42,20.786
						c0.067,14.043-3.028,28.227-8.848,41.274c-2.595,5.918-5.837,11.537-9.543,16.789c-3.725,5.292-7.977,10.376-12.573,15.188
						c-9.302,9.603-19.997,18.27-31.487,26.643c-11.469,8.405-23.684,16.534-36.019,25.538
						c-12.339,8.892-24.465,18.575-36.16,29.072c-3.059,2.835-6.318,5.739-9.55,8.82c-3.176,3.124-6.441,6.337-9.758,9.6
						c-3.209,3.323-6.423,6.726-9.63,10.156c-1.678,1.783-2.897,3.17-4.534,4.941c-1.527,1.667-3.189,3.503-4.813,5.373
						c-3.307,3.757-6.507,7.97-9.283,12.116c-1.373,2.097-2.709,4.177-3.865,6.271c-0.597,1.061-1.19,2.113-1.778,3.157
						c-0.709,1.287-1.163,2.257-1.662,3.307c-3.765,8.155-6.484,15.757-8.026,23.523c-0.365,1.903-0.488,3.625-0.41,5.211
						c0.078,1.593,0.355,3.047,0.814,4.315c1.019,2.111,2.72,2.816,4.129,2.981c-0.578-0.061-1.056-0.761-1.027-1.979
						c-0.013-0.285,0.05-0.682,0.115-1.081c0.065-0.423,0.17-0.77,0.284-1.197c0.237-0.803,0.564-1.628,0.965-2.471
						c1.606-3.36,4.391-7.092,7.453-10.674c3.06-3.578,6.396-6.996,9.091-9.613c2.669-2.642,4.814-4.296,5.264-4.768
						c0.695-0.672,1.364-1.368,2.071-2.034c0.706-0.664,1.415-1.331,2.128-2.002c1.384-1.368,2.89-2.637,4.321-3.972
						c2.963-2.595,5.983-5.129,9.17-7.666c3.213-2.597,6.445-5.209,9.67-7.815c3.209-2.557,6.354-5.169,9.591-7.576
						c3.145-2.302,6.247-4.574,9.322-6.825c3.105-2.196,6.265-4.248,9.354-6.34c1.561-1.028,3.067-2.097,4.657-3.082l4.732-2.973
						c3.163-1.967,6.23-4.002,9.462-5.907c6.359-3.899,12.771-7.83,19.344-11.859c6.531-4.08,13.297-8.313,20.264-13.081
						c14.586-9.987,29.473-20.672,43.339-33.656c6.919-6.487,13.56-13.558,19.605-21.306l4.416-5.933
						c1.402-2.077,2.811-4.152,4.186-6.249c1.291-2.15,2.59-4.297,3.854-6.465c1.178-2.217,2.363-4.432,3.511-6.666
						c8.896-18.014,14.011-38.076,14.362-58.515c0.181-10.209-0.832-20.492-3.068-30.534c-0.63-2.5-1.163-5-1.903-7.493
						l-1.155-3.738l-0.585-1.867l-0.676-1.838c-0.933-2.441-1.781-4.91-2.904-7.285l-1.608-3.587
						c-0.538-1.195-1.192-2.346-1.788-3.52c-4.128-7.941-9.235-15.495-15.421-22.344c-6.176-6.839-13.469-12.969-21.758-17.798
						c-8.262-4.85-17.556-8.293-27.083-9.945c-9.595-1.679-19.026-1.591-28.032-0.441c-9.01,1.163-17.553,3.407-25.519,6.271
						c-1.022,0.33-2.007,0.701-2.978,1.088l-2.932,1.142c-1.978,0.74-3.855,1.575-5.745,2.401l-2.835,1.239l-2.675,1.265
						l-5.322,2.537c-14.161,6.875-28.15,14.831-41.348,24.323c-1.159,0.828-2.34,1.626-3.486,2.483l-3.394,2.66
						c-2.25,1.797-4.57,3.513-6.777,5.396c-4.356,3.841-8.84,7.596-12.94,11.832l-3.147,3.108l-1.548,1.534l-1.235,1.258
						c-1.649,1.689-3.216,3.125-4.749,4.476l-2.01,1.618c-0.078,0.034-0.198,0.104-0.229,0.097c-0.093,0.018-0.179,0.02-0.254,0.008
						c-0.105-0.028-0.188-0.141-0.227-0.232c-0.021-0.046-0.035-0.091-0.043-0.133c-0.006-0.025-0.002-0.03-0.013-0.069l-0.26-0.291
						l-0.326-0.38l-0.677-0.803c-1.881-2.245-4.09-5.321-6.976-8.741l-4.239-4.938c-0.696-0.836-1.436-1.626-2.194-2.397
						L241.832,88.964z"/>
				</g>
			</g>
		</g>
	</g>
</g>
</svg>
