<?xml version="1.0" encoding="utf-8"?>
<!-- Generator: Adobe Illustrator 16.0.0, SVG Export Plug-In . SVG Version: 6.00 Build 0)  -->
<!DOCTYPE svg PUBLIC "-//W3C//DTD SVG 1.1//EN" "http://www.w3.org/Graphics/SVG/1.1/DTD/svg11.dtd">
<svg version="1.1" id="Layer_1" xmlns="http://www.w3.org/2000/svg" xmlns:xlink="http://www.w3.org/1999/xlink" x="0px" y="0px"
	 width="500px" height="500px" viewBox="0 0 500 500" enable-background="new 0 0 500 500" xml:space="preserve">
<g>
	<g>
		<g>
			<g>
				<path fill="#FFFFFF" d="M75.257,115.051l-0.245,0.662C75.144,115.424,75.275,115.254,75.257,115.051z"/>
				<path fill="#FFFFFF" d="M140.325,56.45l-0.163,0.408C140.338,56.708,140.357,56.569,140.325,56.45z"/>
				<path fill="#FFFFFF" d="M160.745,19.582l0.662-0.082C161.087,19.501,160.891,19.536,160.745,19.582z"/>
				<g>
					<path fill="#FFFFFF" d="M109.411,26.561l-4.375,1.971l-4.005,2.137c-1.323,0.734-2.665,1.419-3.96,2.215l-3.845,2.477
						c-5.116,3.314-9.877,7.253-14.327,11.451c-1.13,1.03-2.138,2.191-3.199,3.289c-1.038,1.121-2.103,2.216-3.093,3.371
						l-2.856,3.549c-0.945,1.185-1.893,2.364-2.716,3.623c-1.691,2.486-3.432,4.935-4.85,7.536l-2.193,3.854l-1.625,3.151
						l-0.836,1.643l-0.955,1.827l-0.948,1.827c-0.313,0.602-0.625,1.203-0.972,1.931l-1.992,4.157
						c-0.328,0.643-0.651,1.522-0.969,2.296l-0.938,2.386c-0.3,0.784-0.627,1.612-0.892,2.356l-0.568,1.903l-1.138,3.803
						c-0.381,1.24-0.76,2.586-1.14,3.917l-1.143,3.979c-0.398,1.289-0.723,2.745-1.082,4.121l-1.06,4.166
						c-0.192,0.676-0.328,1.417-0.471,2.149l-0.433,2.19l-0.874,4.362l-0.593,3.257c-0.232,1.123-0.559,2.382-0.847,3.567
						l-1.038,4.002l-0.135,0.505l-0.132,0.567l-0.264,1.134l-0.532,2.268l-0.142,0.6l-0.096,0.538l-0.19,1.072l-0.381,2.142
						l-0.768,4.278c-0.512,2.85-1.065,5.701-1.406,8.522l-1.168,8.479c-0.087,0.728-0.213,1.364-0.269,2.167l-0.193,2.33
						l-0.362,4.659l-0.069,4.489c-0.021,1.498-0.045,3.007,0.013,4.415l0.125,4.297c0.042,1.454,0.112,2.763,0.172,4.152
						c0.071,1.39,0.117,2.698,0.219,4.155l0.322,4.366l0.356,4.361c0.129,1.451,0.353,2.862,0.534,4.293
						c0.719,5.772,1.569,11.352,2.321,16.908c0.382,2.75,0.763,5.495,1.144,8.237l1.275,8.405l0.618,4.211l0.303,2.107l0.385,2.084
						c0.507,2.78,1.015,5.563,1.523,8.353c0.258,1.394,0.486,2.798,0.766,4.187c0.296,1.382,0.593,2.767,0.89,4.152
						c0.591,2.773,1.184,5.555,1.779,8.347c1.248,5.347,2.738,10.595,4.36,15.83c1.748,5.22,3.487,10.451,5.46,15.532
						c3.76,10.256,7.868,20.291,10.808,30.627c1.492,5.478,2.702,10.844,4.235,16.617c0.183,0.699,0.741,2.038,1.504,3.687
						c0.381,0.824,0.814,1.726,1.276,2.663c0.26,0.498,0.526,1.007,0.794,1.521c0.277,0.524,0.512,0.911,0.775,1.375
						c1.006,1.713,1.664,2.8,2.045,3.415c0.057,0.082,0.112,0.163,0.166,0.241c0.049,0.074,0.066,0.122,0.106,0.185
						c0.07,0.117,0.158,0.236,0.245,0.353c0.08,0.201,0.203,0.396,0.317,0.547c0.109,0.137,0.321,0.117,0.653-0.07
						c0.149-0.099,0.409-0.22,0.566-0.428c0.153-0.211,0.388-0.441,0.545-0.769c0.709-1.239,0.661-3.797,0.548-4.933
						c-0.083-0.941-0.204-1.974-0.337-3.101c-0.122-1.107-0.198-2.239-0.311-3.402c-0.212-2.323-0.452-4.733-0.709-7.077
						c-0.513-4.672-1.085-9.146-1.658-12.136c-0.564-3.036-1.088-5.645-1.604-8.028c-0.509-2.392-0.997-4.581-1.521-6.767
						c-0.998-4.377-2.182-8.729-3.822-14.677c-0.831-3.07-1.659-6.13-2.485-9.182c-0.741-3.06-1.48-6.111-2.218-9.156
						c-0.381-1.515-0.72-3.046-1.031-4.589l-0.958-4.606c-0.611-3.072-1.312-6.128-1.779-9.207l-1.479-9.215
						c-0.26-1.533-0.418-3.074-0.583-4.614l-0.479-4.619c-0.736-6.151-0.798-12.333-0.895-18.488
						c0.023-5.042-0.211-10.33-0.485-15.377c-0.146-2.549-0.363-5.118-0.472-7.619c-0.12-2.51-0.356-5.053-0.443-7.54l-0.24-7.442
						c-0.053-2.567-0.076-5.333-0.08-7.908l0.033-3.788l0.029-1.89l0.104-1.794c0.082-1.19,0.163-2.378,0.244-3.563
						c0.03-0.604,0.108-1.167,0.202-1.717l0.264-1.663l0.289-1.793c0.111-0.619,0.157-1.142,0.325-1.842l0.873-3.988l1.781-7.946
						l2.102-7.729l1.035-3.854l1.089-3.109l1.386-3.68l0.773-2.117c0.258-0.728,0.51-1.352,0.772-2.226l0.768-2.471l0.376-1.24
						c0.12-0.388,0.2-0.583,0.3-0.884l1.112-3.313l0.529-1.66l0.68-1.724l1.328-3.465l0.322-0.869l0.382-0.905l0.757-1.817
						l1.474-3.652l1.739-4.069l0.885-2.027l0.223-0.506l0.187-0.346l0.364-0.668l0.709-1.34l0.346-0.673
						c0.14-0.241,0.327-0.511,0.488-0.764l2.028-3.117l5.203-7.386l0.696-0.988l0.58-0.775l1.136-1.514
						c0.77-0.995,1.462-2.06,2.309-2.972l2.419-2.839c0.811-0.938,1.716-1.774,2.557-2.672l1.275-1.33
						c0.427-0.44,0.906-0.824,1.353-1.242l2.698-2.477l2.853-2.292l1.413-1.159l1.5-1.06l2.969-2.158
						c1.046-0.653,2.085-1.318,3.117-1.997l1.525-1.006l1.614-0.899l3.214-1.828c2.08-1.024,4.129-2.082,6.13-2.8
						c0.502-0.198,1.004-0.424,1.504-0.608l1.489-0.437c0.99-0.278,1.979-0.69,2.969-0.811l1.482-0.297l0.741-0.16
						c0.259-0.053,0.448-0.117,0.843-0.152l4.191-0.501c11.104-1.454,22.728-2.126,34.596-2.716c3.49-0.152,6.94-0.334,10.464-0.437
						c3.503-0.133,7.066-0.16,10.521-0.355c6.939-0.344,13.88-0.652,20.82-0.921c17.542-0.69,35.03-1.75,52.538-2.998
						c17.442-1.152,34.878-2.303,52.317-3.455c4.041-0.234,8.071-0.414,12.097-0.554c2.074-0.085,3.846-0.09,5.752-0.121
						c1.876-0.017,3.75-0.034,5.623-0.051c7.303-0.111,15.413,0.156,23.214,0.267l1.475,0.024l1.112,0.056l2.657,0.114l0.769,0.031
						c0.27,0.009,0.471,0.025,0.837,0.024l1.989,0.004l0.995-0.004l0.503-0.005l0.617-0.04l2.473-0.194l1.235-0.118l0.426-0.039
						l0.271-0.02l1.081-0.084c0.72-0.061,1.438-0.139,2.153-0.141l2.14-0.079l2.117,0.016c2.805,0.082,5.543,0.318,8.181,0.724
						c1.289,0.267,2.605,0.458,3.841,0.794l0.948,0.208l0.976,0.287c0.645,0.193,1.337,0.343,1.927,0.567
						c2.663,0.828,5.155,1.983,7.244,3.276c1.086,0.627,1.98,1.348,2.921,2.049c0.389,0.403,0.916,0.717,1.289,1.146
						c0.206,0.201,0.423,0.398,0.649,0.591c0.194,0.218,0.39,0.437,0.601,0.65c1.672,1.701,3.222,3.917,4.796,6.562
						c0.194,0.33,0.397,0.661,0.609,0.992c0.197,0.353,0.394,0.703,0.587,1.048c0.38,0.678,0.796,1.357,1.163,1.974
						c0.781,1.273,1.555,2.442,2.328,3.615c0.768,1.144,1.838,2.102,3.05,2.936c1.222,0.832,2.621,1.517,3.985,1.946
						c-0.56-0.179-0.842-0.523-0.907-0.974c-0.056-0.449,0.094-1.016,0.349-1.709c0.537-1.366,1.552-3.284,2.463-5.54
						c1.896-4.468,3.188-10.103,3.204-10.858c0.275-4.458-0.574-9.352-2.652-13.965c-2.04-4.632-5.178-8.949-8.748-12.711
						c-3.458-3.657-7.329-6.771-11.385-9.425l-1.531-1l-1.551-0.91c-1.041-0.602-2.075-1.229-3.188-1.755
						c-1.099-0.538-2.209-1.114-3.339-1.606c-1.146-0.467-2.291-0.935-3.439-1.403c-4.647-1.717-9.534-2.943-14.613-3.583
						c-1.266-0.136-2.546-0.257-3.842-0.36c-1.287-0.063-2.585-0.084-3.899-0.1c-1.319-0.04-2.623,0.079-3.956,0.142l-1,0.064
						l-0.501,0.035l-0.252,0.019l-0.086-0.012c-0.222-0.033-0.438-0.053-0.654-0.061l-5.474-0.267
						c-3.09-0.08-5.099-0.095-7.45-0.123c-4.614-0.039-9.14-0.076-13.813-0.018c-4.819,0.121-9.64,0.277-14.459,0.461l-3.569,0.146
						l-3.36,0.167l-6.719,0.359l-6.762,0.393l-7.134,0.465c-4.599,0.308-9.198,0.616-13.802,0.925l-6.479,0.418l-7.145,0.393
						c-2.417,0.123-4.702,0.279-6.996,0.432l-6.902,0.45c-15.664,1.047-31.322,2.094-46.981,3.141l-23.503,1.52
						c-3.939,0.282-7.795,0.398-11.662,0.523c-3.848,0.107-7.801,0.313-11.698,0.447c-4.751,0.159-9.543,0.318-14.366,0.479
						c-2.416,0.063-4.937,0.208-7.412,0.303c-2.494,0.118-4.967,0.187-7.499,0.343c-2.547,0.184-5.1,0.368-7.656,0.553l-3.84,0.284
						l-0.48,0.036l-0.597,0.079l-1.229,0.174l-2.458,0.365c-3.325,0.405-6.43,1.322-9.604,2.137
						c-1.565,0.438-3.02,1.011-4.532,1.529l-2.244,0.809C110.787,25.926,110.125,26.261,109.411,26.561z"/>
				</g>
			</g>
		</g>
	</g>
	<g>
		<g>
			<g>
				<path fill="#FFFFFF" d="M90.528,489.147l-0.429,0.072C90.294,489.211,90.428,489.253,90.528,489.147z"/>
				<path fill="#FFFFFF" d="M152.895,481.368l-0.067,0.402C152.918,481.626,152.921,481.488,152.895,481.368z"/>
				<path fill="#FFFFFF" d="M162.185,444.863l0.365-0.092C162.371,444.777,162.263,444.814,162.185,444.863z"/>
				<g>
					<path fill="#FFFFFF" d="M134.49,446.976l-2.556,0.501l-1.275,0.264c-0.251,0.056-0.324,0.061-0.463,0.085l-0.381,0.065
						c-1.014,0.178-2.021,0.385-3.025,0.623l-0.753,0.185c-0.259,0.061-0.59,0.095-0.882,0.146l-1.803,0.298l-1.802,0.332
						l-0.901,0.179l-1.034,0.168c-5.158,0.854-12.318,2.24-17.494,3.973c-5.745,1.769-11.435,3.807-17.172,5.628
						c-2.869,0.911-5.749,1.767-8.654,2.508c-1.377,0.362-3.201,0.756-3.747,0.903c-0.645,0.188-1.225,0.25-1.861,0.238
						c-1.317-0.054-2.621-0.521-3.694-1.308c-0.261-0.204-0.549-0.398-0.756-0.627l-0.937-0.91
						c-0.429-0.373-0.767-0.881-1.162-1.308c-0.374-0.458-0.794-0.859-1.147-1.354c-2.944-3.803-5.482-8.386-7.897-13.42
						c-2.44-5.075-3.94-10.725-4.867-16.515c-0.929-5.803-1.293-11.781-1.393-17.892c-0.022-1.474-0.068-2.95-0.167-4.423
						c-0.1-1.481-0.155-2.827-0.281-4.252c-0.144-2.801-0.342-5.617-0.304-8.412c-0.006-5.587,0.726-11.214,3.041-16.146
						c1.272-2.606,2.892-4.956,4.519-7.155c0.21-0.264,0.451-0.886,0.694-1.712c0.245-0.824,0.571-1.787,0.835-2.829
						c0.334-0.974,0.599-2.042,0.872-2.898c0.267-0.861,0.45-1.603,0.473-2.03c0.02-0.39-1.047-0.185-2.329,0.237
						c-1.297,0.398-2.67,1.153-3.308,1.463c-0.982,0.554-2.075,1.241-3.19,2.029c-1.076,0.812-2.244,1.687-3.257,2.653
						c-2.115,1.884-3.877,3.983-4.88,5.504c-2.02,3.086-3.323,5.515-4.396,8.033c-0.529,1.264-1.035,2.551-1.453,3.989
						c-0.464,1.436-0.843,3.019-1.238,4.866c-0.759,3.818-1.318,7.656-1.657,11.491c-0.166,1.904-0.308,3.864-0.41,5.726
						c-0.083,1.867-0.233,3.729-0.297,5.605c-0.359,7.501-0.644,15.067-0.885,23.077c-0.173,6.486,1.214,13.136,3.608,19.699
						c2.389,6.571,5.805,13.049,10.063,19.374l1.767,2.568l0.989,1.241l0.526,0.646l0.662,0.771l1.359,1.526l1.461,1.389
						l1.496,1.365c0.517,0.433,1.077,0.811,1.625,1.21c4.399,3.174,9.743,5.095,15.329,5.635c1.381,0.098,2.847,0.218,4.192,0.186
						l3.254-0.071c1.62-0.042,3.238-0.104,4.854-0.189c3.232-0.173,6.458-0.445,9.672-0.872c3.419-0.455,6.853-0.772,10.292-1.022
						l5.163-0.336l2.583-0.146l1.292-0.071l1.188-0.03l4.694-0.121l5.271-0.172l1.321-0.059l1.454-0.113l2.939-0.273l2.937-0.322
						c1.036-0.166,2.123-0.389,3.179-0.601l3.136-0.659l1.563-0.343l1.125-0.265l4.102-1.026l4.372-0.876
						c1.48-0.287,3.082-0.517,4.619-0.778c6.338-0.938,13.282-1.954,20.031-2.745c7.926-0.915,15.869-1.694,23.825-2.318
						l1.884-0.153l1.61-0.087l1.602-0.098l0.8-0.054l0.894-0.043l3.632-0.183l4.036-0.263c1.292-0.066,2.861-0.259,4.335-0.421
						l4.133-0.491l7.213-0.925l7.209-0.955l3.621-0.473l3.739-0.425c4.986-0.561,9.975-1.098,14.972-1.567
						c2.288-0.209,4.623-0.357,6.931-0.471c2.267-0.121,4.528-0.241,6.785-0.362c4.499-0.203,8.995-0.318,13.489-0.479
						c4.537-0.189,8.888-0.303,13.275-0.626c4.384-0.32,8.764-0.821,13.153-1.639c0.795-0.14,1.624-0.286,2.479-0.437
						c0.575-0.176,1.248-0.172,1.93-0.266c1.375-0.171,2.934-0.192,4.642-0.326c0.125-0.006,0.175-0.036,0.362-0.025l0.901,0.127
						l0.897,0.112l1.078,0.109l1.093,0.084c0.409,0.026,0.901,0.046,1.346,0.057c0.469,0.01,0.874,0.016,1.39,0.005
						c0.57-0.015,1.14-0.044,1.703-0.089l0.841-0.078c0.271-0.028,0.668-0.087,0.994-0.139c0.685-0.109,1.362-0.243,2.026-0.4
						c0.661-0.154,1.501-0.422,2.22-0.68c0.749-0.275,1.446-0.542,2.195-0.936c0.734-0.375,1.448-0.784,2.129-1.222
						c0.688-0.437,1.247-0.908,1.839-1.397c0.289-0.246,0.57-0.497,0.845-0.752c0.281-0.259,0.543-0.518,0.737-0.747
						c0.426-0.479,0.831-0.97,1.214-1.469c1.442-1.943,2.145-3.628,2.569-5.014c0.273-0.777,0.338-1.326,0.447-1.939
						c0.099-0.603,0.188-1.214,0.173-1.689c0.008-0.507,0.001-1.005-0.02-1.493c-0.028-0.478-0.111-0.884-0.181-1.317
						c-0.078-0.422-0.157-0.85-0.267-1.242c-0.117-0.381-0.244-0.754-0.381-1.121c-0.517-1.445-1.598-2.423-2.828-3.212
						c-1.242-0.774-2.685-1.297-4.072-1.645c2.251,0.547,0.435,3.066-2.48,5.3c-1.43,1.086-3.2,2.03-4.593,2.202
						c-1.409,0.214-2.116-0.411-2.225-0.44c-0.771-0.421-1.319-1.076-2.099-1.734c-0.404-0.352-0.812-0.707-1.221-1.063
						c-0.523-0.376-1.183-0.77-1.789-1.144l-1.904-1.118c-0.652-0.346-1.331-0.638-2.011-0.96c-0.69-0.317-1.38-0.636-2.066-0.952
						c-0.701-0.298-1.423-0.542-2.144-0.826c-0.711-0.271-1.416-0.541-2.118-0.809c-0.712-0.269-1.445-0.441-2.181-0.666
						c-1.451-0.423-3.104-0.851-4.17-1.191c-2.399-0.724-4.784-1.445-7.187-2.084c-4.803-1.276-9.678-2.22-14.854-2.183
						c-5.365,0.063-10.59,0.346-15.854,0.725c-5.184,0.429-10.362,0.857-15.543,1.286c-10.444,0.948-20.741,2.081-31.769,3.493
						l-12.702,1.585l-6.333,0.53l-3.534,0.285l-3.893,0.394l-13.488,1.646c-4.443,0.528-8.891,1.026-13.344,1.476
						c-2.663,0.266-5.353,0.495-8.061,0.707c-1.355,0.101-2.714,0.202-4.076,0.305c-1.403,0.088-2.81,0.176-4.219,0.264
						l-2.126,0.129l-2.232,0.173c-1.501,0.125-3.004,0.251-4.509,0.377C140.885,446.009,137.813,446.284,134.49,446.976z"/>
				</g>
			</g>
		</g>
	</g>
	<g>
		<g>
			<g>
				<path fill="#FFFFFF" d="M170.433,372.143l-0.233,0.026C170.305,372.181,170.375,372.237,170.433,372.143z"/>
				<path fill="#FFFFFF" d="M204.311,371.756l-0.057,0.393C204.313,372.015,204.321,371.878,204.311,371.756z"/>
				<path fill="#FFFFFF" d="M210.554,336.352l0.201-0.054C210.658,336.285,210.599,336.312,210.554,336.352z"/>
				<g>
					<path fill="#FFFFFF" d="M196.603,335.074c-6.264-0.105-12.504,0.934-18.641,3.16c-6.323,2.293-12.564,5.683-19.023,6.206
						c-6.845,0.515-13.336,0.266-20.63,1.98c-3.535,0.822-7.193,1.206-10.345,1.455c-3.276,0.221-6.522,0.306-9.928,0.191
						c-6.481-0.103-12.998,2.911-19.693,1.824c-1.794-0.302-3.583-0.827-5.381-1.206c-0.221-0.048-0.66,0.058-1.206,0.26
						c-0.273,0.101-0.573,0.225-0.886,0.366c-0.322,0.146-0.71,0.339-1.066,0.526c-1.455,0.763-2.842,1.68-3.263,2.223
						c-0.36,0.491,2.595,2.596,3.337,3.159c1.289,0.864,2.752,2.087,4.216,3.059c1.448,0.995,2.824,1.843,3.755,2.242
						c3.76,1.61,5.521,2.336,9.378,2.829c7.971,1.034,15.772,1.524,24.124,4.264c1.758,0.549,3.192,0.91,4.765,1.072
						c1.542,0.17,3.08,0.181,4.619,0.146c1.539-0.034,3.079-0.113,4.613-0.122c1.622,0.023,3.271,0.129,4.892,0.414
						c3.511,0.608,7.07,1.501,10.562,2.14c3.491,0.639,6.982,1.092,10.471,0.928c7.424-0.352,14.88,1.505,22.299,1.007
						c7.315-0.474,14.605-1.508,21.935-1.688c4.277-0.099,8.559-0.061,12.842,0.134c10.839,0.483,21.541-0.667,32.422-0.741
						c4.863-0.034,9.686,0.801,14.513,1.465c1.207,0.166,2.414,0.321,3.621,0.449l1.813,0.171l0.907,0.066l0.453,0.027l0.7,0.012
						c1.08-0.007,2.364-0.073,3.534-0.181c1.188-0.16,2.388-0.302,3.556-0.591c2.367-0.492,4.572-1.532,6.769-2.531l0.174-0.107
						c0.854-0.533,1.783-1.113,2.743-1.712c0.957-0.552,1.881-1.223,2.821-2.099c1.069-0.855,2.071-1.918,2.939-3.291
						c0.938-1.374,1.813-3.051,2.373-5.129c0.557-2.019,0.085-5.249-0.605-8.025c1.147,4.563-6.75-3.555-7.318-3.826
						c-1.593-0.984-3.17-1.615-4.779-2.031c-1.618-0.396-3.261-0.666-4.972-1.092c-1.866-0.414-3.684-0.816-5.483-1.216
						c-1.292-0.984-2.231-2.165-2.846-3.264c-0.153-0.264-0.288-0.547-0.402-0.775c-0.076-0.225-0.294-0.463-0.837-0.65
						c-0.943-0.387-1.901-0.68-2.884-0.851c-11.424-1.975-22.571-1.135-34.013-0.833c-9.706,0.251-19.391,1.02-29.104,0.982
						C208.631,335.839,202.606,335.19,196.603,335.074z"/>
				</g>
			</g>
		</g>
	</g>
	<g>
		<g>
			<g>
				<path fill="#FFFFFF" d="M334.859,249.964l-0.15,0.198C334.787,250.082,334.861,250.049,334.859,249.964z"/>
				<path fill="#FFFFFF" d="M360.535,224.529l0.112,0.214C360.638,224.646,360.59,224.579,360.535,224.529z"/>
				<path fill="#FFFFFF" d="M352.668,203.417l0.152-0.162C352.732,203.315,352.691,203.368,352.668,203.417z"/>
				<g>
					<path fill="#FFFFFF" d="M340.001,213.519c-1.233,1.093-2.376,2.093-3.521,3.197l-1.778,1.74
						c-0.721,0.709-1.432,1.427-2.131,2.153l-1.04,1.094l-0.94,1.118c-0.617,0.749-1.224,1.504-1.818,2.266
						c-1.159,1.519-2.166,3.057-3.175,4.613c-1.93,3.122-3.671,6.455-5.494,9.68c-0.937,1.594-1.777,3.25-2.738,4.816
						c-0.939,1.582-1.971,3.098-2.998,4.62c-1.122,1.588-2.241,3.171-3.358,4.753l-3.224,4.814c-1.079,1.583-2.076,3.283-3.04,5.001
						c-0.948,1.717-1.939,3.433-2.739,5.214c-3.295,7.145-6.932,13.641-10.675,20.257c-0.902,1.622-1.688,3.388-2.424,5.124
						c-0.363,0.875-0.736,1.747-1.063,2.635l-0.937,2.676c-0.605,1.787-1.305,3.535-1.936,5.297
						c-0.652,1.756-1.383,3.477-2.261,5.146c-0.944,1.772-1.883,3.534-2.826,5.304c-0.156,0.3-0.316,1.094-0.464,2.094
						c-0.011,0.255,0.023,0.517,0.006,0.853c-0.057,0.367-0.046,0.683-0.159,1.145c-0.145,0.799-0.352,1.754-0.331,2.128
						c0.005,0.277,0.708-0.132,1.481-0.633c0.368-0.21,0.763-0.456,1.103-0.675c0.313-0.194,0.59-0.381,0.755-0.494
						c0.353-0.242,0.661-0.511,1.066-0.918c1.851-1.86,4.025-4.306,5.008-5.751c1.24-1.723,2.151-2.971,2.979-4.263
						c0.415-0.646,0.811-1.301,1.22-2.028c0.438-0.713,0.893-1.497,1.398-2.413c2.035-3.823,4.217-7.415,6.551-10.993
						c1.205-1.798,2.443-3.574,3.742-5.32c1.305-1.727,2.673-3.401,4.122-5.04c1.16-1.342,2.234-2.703,3.22-4.131
						c0.995-1.418,1.875-2.936,2.8-4.392c1.903-2.872,3.582-5.838,5.931-8.447c2.429-2.866,5.104-5.511,7.653-8.228
						c2.635-2.643,5.112-5.389,7.495-8.214c2.441-3.02,5.369-5.951,8.114-8.498c0.693-0.67,1.386-1.222,2.07-1.842
						c0.685-0.602,1.358-1.239,2.04-1.76c0.677-0.55,1.343-1.11,1.994-1.686c0.743-0.65,1.635-1.446,2.424-2.187
						c1.588-1.49,3.228-3.021,4.603-4.472l2.148-2.208l1.072-1.105l0.959-0.943l1.898-1.86l2.137-1.896l1.078-0.943l1.173-0.989
						l2.368-1.96l2.928-2.456l0.727-0.603l0.591-0.446l1.18-0.892l1.178-0.891c0.402-0.297,0.751-0.592,1.245-0.892l2.78-1.778
						l3.753-2.402l1.929-1.261c0.625-0.395,1.354-0.961,2.021-1.438l3.979-2.958l3.309-2.514l3.295-2.535
						c1.146-0.817,2.339-1.605,3.509-2.407c2.35-1.597,4.678-3.198,7.213-4.684c2.271-1.363,4.513-2.6,6.92-3.793
						c2.404-1.17,4.803-2.336,7.201-3.503c4.988-2.471,10.406-5.508,15.147-10.301c0.621-0.638,1.27-1.303,1.937-1.988
						c0.674-0.683,1.218-1.437,1.835-2.185c0.596-0.754,1.198-1.529,1.759-2.319c0.505-0.785,0.991-1.586,1.443-2.399
						c0.947-1.639,1.574-3.263,2.01-4.919c0.455-1.672,0.548-3.273,0.368-4.926c-0.186-1.597-1.544-3.039-2.928-4.055
						c2.275,1.677-6.204,3.313-6.697,3.468c-1.478,0.612-2.845,1.35-4.157,2.108c-1.288,0.798-2.599,1.515-3.927,2.111
						c-5.223,2.268-10.207,2.362-15.205,4.787l-1.997,0.962l-2.047,1.02c-1.411,0.708-2.811,1.436-4.199,2.179
						c-1.394,0.752-2.755,1.483-4.149,2.292l-4.16,2.459c-1.381,0.838-2.754,1.651-4.129,2.534l-4.121,2.75l-4.113,2.778
						l-4.07,3.059l-6.361,4.803c-1.685,1.354-4.021,2.89-6.105,4.352l-3.524,2.482c-0.594,0.424-1.172,0.81-1.779,1.265
						l-1.866,1.482l-3.605,2.895l-2.833,2.345c-1.266,0.974-2.541,1.956-3.825,2.944c-0.688,0.528-1.377,1.059-2.068,1.59
						c-0.694,0.534-1.38,1.037-2.114,1.664l-2.172,1.807l-1.075,0.904l-0.918,0.804L340.001,213.519z"/>
				</g>
			</g>
		</g>
	</g>
	<g>
		<g>
			<g>
				<path fill="#FFFFFF" d="M410.774,199.296l0.179-0.176C410.857,199.181,410.765,199.184,410.774,199.296z"/>
				<path fill="#FFFFFF" d="M385.019,225.668l-0.252-0.306C384.828,225.493,384.924,225.591,385.019,225.668z"/>
				<path fill="#FFFFFF" d="M406.063,254.827l-0.105,0.185C406.036,254.949,406.061,254.888,406.063,254.827z"/>
				<g>
					<path fill="#FFFFFF" d="M418.173,243.377c2.682-3.529,4.063-6.041,4.357-6.961c0.03-0.113,0.053-0.235,0.07-0.368
						c0.002-0.093-0.04-0.115-0.071-0.197c-0.025-0.044-0.021-0.056-0.076-0.136l-0.239-0.28l-0.118-0.141l-0.015-0.018
						l-0.007-0.009c0.74,0.827,0.206,0.227,0.372,0.411l0.012-0.014l0.021-0.028l0.177-0.228l0.692-0.923
						c0.912-1.246,1.775-2.548,2.591-3.909c1.682-2.802,3.197-5.827,4.887-8.709c1.784-2.935,3.825-5.763,6.285-8.023
						c1.313-1.201,2.644-2.372,3.976-3.538l2.001-1.763l2.052-1.92c2.708-2.621,5.312-5.498,7.484-8.832
						c2.183-3.35,4.464-6.547,6.689-9.876c2.207-3.341,4.347-6.827,6.156-10.614c1.735-3.662,2.395-7.768,2.62-11.743l0.303-5.591
						c0.129-1.58,0.482-3.351,0.986-5.438c0.28-1.1,0.558-2.354,0.771-3.699c0.175-1.395,0.313-2.883,0.143-4.538
						c-0.015-0.771-1.199-3.16-2.926-4.949c-0.839-0.924-1.809-1.628-2.617-2.164c-0.836-0.472-1.529-0.766-1.932-0.84
						c-0.368-0.067-0.3,1.058-0.242,2.251c0.052,1.237,0.037,2.563-0.03,3.137c-0.096,1.863-0.652,3.95-1.477,5.524
						c-0.809,1.598-1.728,2.8-2.208,3.643c-0.965,1.68-1.797,2.882-2.466,4.213c-0.339,0.671-0.643,1.366-0.93,2.171
						c-0.289,0.706-0.563,1.416-0.841,2.269c-1.216,3.474-2.715,6.709-4.78,9.554c-2.061,2.84-4.683,5.275-7.983,7.008
						c-2.665,1.39-4.604,3.312-6.633,5.363c-2.031,2.034-4.146,4.167-6.811,5.675c-1.396,0.796-3.047,1.618-4.645,2.413
						c-1.604,0.797-3.21,1.587-4.785,2.412c-1.576,0.824-3.12,1.684-4.602,2.621c-0.74,0.468-1.465,0.956-2.17,1.47
						c-0.743,0.557-1.468,1.139-2.168,1.752c-2.979,2.608-6.306,4.792-9.635,7.004l-1.248,0.832l-0.622,0.418l-0.311,0.21
						c-0.104,0.07-0.188,0.119-0.382,0.29c-0.671,0.563-1.333,1.143-1.985,1.735l-0.486,0.448l-0.415,0.42l-0.818,0.851
						c-0.547,0.576-1.092,1.168-1.499,1.676c-0.438,0.528-0.886,1.079-1.294,1.607c-0.7,0.943-1.443,1.996-1.926,2.786
						c-0.57,0.908-0.945,1.532-1.368,2.243l-0.91,1.517l-0.17,0.292c-0.063,0.105-0.08,0.169-0.233,0.363l-0.74,0.988l-1.478,1.984
						c-1.075,1.367-2.147,2.705-3.329,4.101c-1.222,1.431-2.407,2.759-3.783,4.253c-3.096,3.298-6.569,7.007-9.997,11.104
						l-1.603,2.007c-0.531,0.668-1.054,1.348-1.536,2.104l-1.455,2.223l-1.33,2.111c-1.17,1.926-2.293,3.849-3.497,5.578
						c-1.171,1.792-2.427,3.375-3.701,4.91c-1.321,1.436-2.659,2.831-4.135,3.917c-0.323,0.247-0.656,0.49-0.962,0.701
						c-0.289,0.01-0.867,0.033-2.146,0.147c-1.22,0.108-3.222,0.254-5.813,0.68l-0.967,0.16c-0.328,0.058-0.735,0.152-1.1,0.229
						l-1.122,0.252l-0.561,0.131c-0.195,0.047-0.207,0.025-0.319,0.042c-0.709,0.054-1.38,0.188-2.059,0.303
						c-0.693,0.068-1.352,0.237-2.029,0.396c-0.695,0.116-1.357,0.357-2.063,0.588c-0.812,0.217-1.666,0.532-2.646,0.757
						c-0.482,0.131-0.97,0.302-1.476,0.495c-0.519,0.161-1.045,0.365-1.578,0.626c-0.265,0.129-0.542,0.278-0.801,0.434
						c-0.231,0.143-0.467,0.302-0.705,0.479c-0.479,0.356-0.972,0.786-1.485,1.303c-0.647,0.48-1.468,0.994-2.165,1.639
						c-0.36,0.318-0.716,0.663-1.065,1.034c-0.176,0.195-0.349,0.389-0.52,0.578l-0.257,0.306c-0.027,0.055-0.118,0.096-0.094,0.164
						c-0.401,0.011-0.802,0.038-1.197,0.083c-0.77,0.088-1.492,0.247-2.141,0.454c-0.144,0.05-0.361,0.111-0.433,0.158l-0.222,0.142
						c-0.146,0.096-0.283,0.194-0.416,0.295c-0.264,0.2-0.502,0.407-0.715,0.619c-0.106,0.105-0.207,0.213-0.301,0.32
						s-0.005,0.158-0.016,0.242c0.089,0.611,0.261,1.267,0.339,1.974c0.058,0.363,0.107,0.675,0.199,1.093
						c0.229,0.834,0.45,1.638,0.667,2.425c0.176,0.638,0.341,1.237,0.503,1.826c-0.172-0.623-0.308-1.117-0.475-1.724
						c-0.026-0.092-0.029-0.111-0.027-0.112l-0.001-0.034l-0.001-0.066c0.002-0.038,0.005-0.078,0.007-0.12
						c0.01-0.075,0.026-0.14,0.051-0.196c0.055-0.112,0.129-0.186,0.199-0.221c0.039-0.019,0.084-0.028,0.134-0.03
						c0.045-0.007,0.009,0.012,0.123-0.011c0.098-0.014,0.197-0.027,0.299-0.042c0.204-0.022,0.418-0.033,0.637-0.03
						c0.156,0.004,0.315,0.008,0.477,0.012c0.197,0.01,0.396,0.029,0.596,0.06s0.397,0.07,0.592,0.121l0.145,0.04l0.072,0.021
						l0.035,0.012c-0.043-0.006,0.11,0.017-0.095-0.013l0.001,0.002l0.004,0.004l0.055,0.063c0.072,0.091,0.146,0.184,0.223,0.278
						c0.301,0.394,0.615,0.877,0.928,1.4c0.626,1.046,1.241,2.259,1.727,3.23c0.491,0.948,0.886,1.679,0.983,1.801
						c0.596,0.742,1.248,1.391,1.939,1.978c0.689,0.58,1.394,1.046,2.127,1.512c1.461,0.951,3.009,1.672,4.594,2.554
						c1.529,0.901,3.106,1.663,4.732,2.514c1.626,0.82,3.313,1.483,5.062,2.114c1.741,0.56,3.546,0.96,5.395,1.177
						c0.915,0.067,1.842,0.085,2.775,0.044c0.467-0.021,0.936-0.057,1.405-0.107l0.352-0.041c0.121-0.016,0.246-0.034,0.291-0.027
						l0.39-0.01c1.928-0.116,4.689-0.447,8.306-1.416c0.96-0.286,1.842-0.523,2.859-0.89c1.051-0.398,2.052-0.763,3.13-1.248
						c1.117-0.538,2.215-1.072,3.324-1.697c1.131-0.689,2.246-1.416,3.34-2.169c6.85-5.029,12.305-11.231,16.702-17.529
						c0.444-0.633,0.898-1.267,1.325-1.904l1.224-1.92c0.833-1.283,1.562-2.572,2.3-3.863l0.552-0.97l0.371-0.627l0.65-1.106
						l0.637-1.118c0.23-0.374,0.514-0.749,0.766-1.126l0.775-1.132c0.249-0.377,0.511-0.758,0.836-1.149l1.844-2.327l2.138-2.407
						c0.696-0.786,1.574-1.664,2.364-2.479c0.941-0.959,2.06-2.025,3.167-3.056c1.157-1.077,2.322-2.16,3.492-3.248
						c1.184-1.077,2.43-2.311,3.661-3.551l0.921-0.93c0.323-0.336,0.561-0.546,1.006-1.073
						C416.72,245.174,417.594,244.155,418.173,243.377z"/>
				</g>
			</g>
		</g>
	</g>
	<g>
		<g>
			<g>
				<path fill="#FFFFFF" d="M375.053,142.247l0.204-0.086C375.158,142.177,375.078,142.142,375.053,142.247z"/>
				<path fill="#FFFFFF" d="M341.25,156.332l-0.123-0.376C341.132,156.102,341.187,156.227,341.25,156.332z"/>
				<path fill="#FFFFFF" d="M351.717,190.697l-0.146,0.139C351.658,190.803,351.697,190.752,351.717,190.697z"/>
				<g>
					<path fill="#FFFFFF" d="M364.389,185.831c1.373-0.641,2.713-1.345,4.021-2.112c0.653-0.383,1.299-0.783,1.937-1.199
						l0.949-0.635l0.687-0.479c0.862-0.619,1.635-1.356,2.648-2.098c0.481-0.38,0.943-0.783,1.433-1.206
						c0.549-0.417,1.095-0.855,1.639-1.312c1.046-0.934,2.446-1.982,3.683-3.017c0.637-0.52,1.394-1.083,2.083-1.616l2.158-1.62
						c1.53-1.128,3.011-2.127,4.652-3.227c0.805-0.53,1.614-1.021,2.438-1.5c0.832-0.527,1.676-1.023,2.537-1.481
						c1.476-0.768,2.947-1.534,4.418-2.298l2.008-1.026l2.237-1.058l2.22-1.1l2.255-1.188c1.537-0.835,3.048-1.729,4.521-2.712
						c1.545-1.051,3.174-2.07,4.785-2.977l2.053-1.141c0.575-0.333,1.204-0.609,1.841-0.874c2.547-1.068,5.427-1.732,8.64-2.37
						c3.069-0.611,6.275-1.997,9.638-3.561l5.149-2.415c0.881-0.41,1.771-0.775,2.683-1.186c0.456-0.195,0.917-0.381,1.385-0.556
						c0.287-0.108,0.315-0.109,0.467-0.156l0.378-0.095l0.076-0.015c0.528-0.081,1.035-0.134,1.51-0.169
						c0.479-0.018,0.92-0.088,1.429,0.11c0.244,0.053,0.822-0.343,1.521-0.771c0.175-0.114,0.358-0.241,0.544-0.377
						c0.096-0.074,0.189-0.146,0.279-0.215c0.123-0.078,0.242-0.153,0.356-0.225l0.085-0.056c0.033-0.019,0.14-0.037,0.203-0.056
						c0.146-0.041,0.287-0.08,0.424-0.117c0.271-0.082,0.512-0.156,0.739-0.25c0.453-0.185,0.795-0.365,1.012-0.515
						c0.402-0.296-0.949-0.771-2.15-1.563c-0.373-0.383-0.615-0.787-0.876-1.153c-0.267-0.37-0.501-0.694-0.643-0.891
						c-0.483-0.633-1.065-1.374-1.752-2.064c-0.68-0.696-1.495-1.293-2.265-1.546c-0.756-0.234-1.456-0.255-2.155-0.31
						c-0.691-0.039-1.331-0.024-1.865,0.024c-0.393,0.041-0.774,0.084-1.011,0.055c-0.46,0.055-0.929,0.142-1.331,0.18
						c-0.366,0.008-0.716,0.015-1.055,0.022c-0.654,0.026-1.268,0.051-1.888,0.077c-1.216,0.072-2.424,0.2-4.018,0.449
						c-3.651,0.55-7.408,0.901-11.533,1.195c-4.117,0.313-8.543,0.498-13.6,0.98c-0.511,0.054-1.019,0.126-1.524,0.216
						c-0.491,0.083-1.064,0.227-1.381,0.251c-0.743,0.108-1.461,0.264-2.161,0.457c-1.406,0.386-2.679,0.917-4.223,1.513
						c-1.477,0.59-2.938,1.222-4.422,1.787c-1.563,0.603-3.154,1.141-4.805,1.503c-1.727,0.336-3.74,0.863-5.721,1.347l-2.976,0.74
						c-0.682,0.093-1.351,0.19-2.005,0.3l-0.972,0.174l-1.039,0.151c-0.69,0.107-1.367,0.232-2.031,0.384
						c-0.727,0.14-1.466,0.3-2.181,0.493c-0.359,0.097-0.712,0.201-1.07,0.314c-0.395,0.116-0.787,0.24-1.177,0.374
						c-3.184,1.11-7.265,1.823-11.588,2.964l-3.307,0.934c-1.134,0.396-2.268,0.812-3.393,1.251
						c-0.547,0.215-1.16,0.456-1.646,0.667l-1.296,0.606c-0.859,0.416-1.705,0.857-2.535,1.331
						c-3.273,1.867-6.475,3.861-9.687,5.822l-4.833,2.919c-1.602,1.002-3.218,1.977-4.861,2.905
						c-3.839,2.163-7.744,4.208-11.73,6.122l-0.942,0.458l-1.081,0.601l-2.157,1.243c-1.433,0.832-2.829,1.836-4.223,2.78
						c-1.385,0.993-2.735,2.096-4.081,3.167c-1.316,1.173-2.631,2.328-3.899,3.574c-5.062,5.002-9.561,11.128-12.998,17.873
						c-3.1,6.056-6.052,12.5-7.601,19.298c-0.753,3.374-1.26,6.824-1.275,10.184c-0.006,0.84,0.005,1.682,0.032,2.523l0.024,0.553
						l0.03,0.458l0.075,0.917c0.111,1.193,0.306,2.51,0.574,3.796c0.602,2.787,1.145,6.229,2.808,9.675
						c1.652,3.403,4.325,6.627,8.725,8.145c2.111,0.735,5.302,0.072,8.025-0.801c-2.232,0.73-1.481-1.223-0.06-3.199
						c1.499-2.009,3.646-3.976,3.851-4.216c2.242-2.926,3.059-5.6,4.673-8.288c1.563-2.601,3.494-5.036,5.104-7.622
						c0.406-0.626,0.776-1.334,1.144-1.897c0.384-0.475,0.735-0.936,1.044-1.388c0.578-0.922,1.17-1.734,1.427-2.593
						c0.683-1.746,1.224-3.336,1.896-4.786c0.582-1.482,1.296-2.838,1.977-4.24c0.205-0.34,0.398-0.686,0.582-1.035
						c0.095-0.173,0.175-0.355,0.274-0.525l0.329-0.496c0.214-0.333,0.419-0.671,0.617-1.015c0.212-0.339,0.487-0.66,0.718-0.998
						c0.912-1.357,2.125-2.664,3.407-3.968c2.268-2.18,4.972-4.356,8.09-6.333c0.319-0.233,0.93-0.57,1.404-0.856l1.515-0.89
						l3.041-1.76c2.033-1.163,4.082-2.3,6.155-3.394C353.541,190.208,359.134,188.297,364.389,185.831z"/>
				</g>
			</g>
		</g>
	</g>
	<g>
		<g>
			<g>
				<path fill="#FFFFFF" d="M321.169,350.576c0,0,0.085-0.147,0.169-0.294c0.094-0.146,0.188-0.294,0.188-0.294
					C321.333,350.239,321.18,350.378,321.169,350.576z"/>
				<path fill="#FFFFFF" d="M341.389,440.286l-0.393,0.195C341.221,440.484,341.329,440.394,341.389,440.286z"/>
				<path fill="#FFFFFF" d="M373.027,418.278l0.336,0.084C373.218,418.287,373.113,418.271,373.027,418.278z"/>
				<g>
					<path fill="#FFFFFF" d="M356.106,403.521c-0.82-0.967-1.525-2.08-2.314-3.106c-0.39-0.518-0.729-1.1-1.106-1.64
						c-0.36-0.56-0.771-1.067-1.106-1.662c-0.696-1.16-1.464-2.263-2.131-3.489l-1.04-1.755c-0.203-0.387-0.426-0.767-0.669-1.144
						c-1.637-3.027-2.748-6.148-3.008-10.444c-0.128-2.188,0.015-4.632,0.508-7.21l0.433-1.954c0.167-0.657,0.376-1.316,0.562-1.987
						c0.202-0.668,0.462-1.329,0.691-2.006c0.236-0.677,0.521-1.269,0.78-1.92c1.09-2.497,2.359-4.74,3.947-6.601
						c1.606-1.825,3.552-3.315,5.856-4.409l1.891-0.801l0.82-0.264c0.272-0.103,0.54-0.18,0.803-0.227
						c1.063-0.304,2.071-0.379,3.099-0.411c1.021-0.034,2.067,0.106,3.191,0.351c1.121,0.245,2.313,0.613,3.594,1.16
						c1.278,0.535,2.625,1.189,4.039,1.968c1.414,0.781,2.948,1.705,4.315,2.547c2.747,1.748,5.281,3.565,7.502,5.551
						c1.129,0.994,2.149,2.056,3.034,3.195c0.919,1.123,1.667,2.341,2.348,3.601c0.662,1.27,1.208,2.605,1.643,4
						c0.227,0.688,0.385,1.43,0.568,2.125c0.102,0.645,0.267,1.29,0.3,1.929c0.095,0.645,0.083,1.269,0.103,1.894
						c0.013,0.317-0.041,0.546-0.048,0.823c-0.013,0.268-0.018,0.534-0.07,0.785c-0.118,1.025-0.439,2.019-0.847,2.958
						c-0.843,1.882-2.343,3.425-4.151,4.37c-0.438,0.221-0.886,0.422-1.33,0.622c-0.459,0.147-0.916,0.388-1.368,0.487
						c-0.9,0.276-1.886,0.578-2.883,0.64c-1.888,0.235-4.415-0.171-6.807-1.089c-2.377-0.973-4.604-2.526-6.206-4.445
						c-0.358-0.497-0.744-0.988-1.044-1.51c-0.257-0.536-0.604-1.045-0.752-1.606l-0.296-0.817l-0.155-0.839l-0.083-0.414
						l-0.021-0.104l-0.003-0.013c0.163-0.159-1.438,1.365-0.754,0.714l0.013-0.014l0.05-0.051l0.1-0.104l0.398-0.412
						c0.396-0.287,0.181-0.514,0.221-0.735c0.061,0.074,0.104,0.156,0.132,0.24c0.015,0.045,0.024,0.09,0.028,0.135
						c0.005,0.015-0.001,0.063,0.009,0.049l0.03-0.053c0.039-0.071,0.073-0.141,0.102-0.21c0.036-0.121,0.196-0.356,0.267-0.524
						c0.099-0.19,0.262-0.421,0.372-0.627l0.469-0.676c0.68-0.919,1.573-1.846,2.477-2.586c0.229-0.163,0.519-0.667,0.868-1.234
						c0.334-0.543,0.75-1.248,0.983-1.688c0.082-0.167,0.088-0.193,0.135-0.327l0.029-0.088l0.015-0.047l0.002-0.006l0.001-0.003
						l0.001-0.001c-0.168,0.052,0.375-0.118-0.375,0.115l0.03-0.017l0.062-0.034l0.488-0.268c0.644-0.356,1.256-0.706,1.809-1.035
						c1.017-0.587,1.813-1.099,2.189-1.445c0.342-0.314-0.938-0.74-2.562-1.108c-0.822-0.173-1.772-0.274-2.59-0.382
						c-0.206-0.024-0.406-0.048-0.597-0.07l-0.071-0.008l-0.004-0.001c0.075-0.023-0.173,0.053,0.169-0.054h-0.002l-0.006-0.001
						l-0.012-0.002l-0.023-0.004l-0.092-0.015c-0.063-0.01-0.123-0.02-0.181-0.028c-0.245-0.035-0.455-0.064-0.614-0.087
						c-1.08-0.034-2.474,0.214-3.922,0.768c-1.452,0.551-2.918,1.412-4.276,2.429c-2.731,2.022-4.849,4.87-5.649,7.277
						c-0.174,0.636-0.401,1.154-0.479,1.907c-0.051,0.354-0.095,0.708-0.132,1.061c-0.018,0.259-0.035,0.515-0.052,0.767
						l-0.021,0.358l-0.011,0.177l-0.002,0.022v0.011l-0.001,0.006c-0.033-0.19,0.045,0.266,0.038,0.221l0.004,0.05l0.009,0.099
						c0.025,0.266,0.051,0.527,0.075,0.786c0.057,0.524,0.112,1.035,0.166,1.537c0.162,0.992,0.414,1.93,0.639,2.871
						c0.304,0.899,0.631,1.784,0.981,2.669c1.557,3.434,3.854,6.642,7.984,9.881c2.163,1.627,4.494,3.063,7.057,4.09
						c2.545,1.028,5.26,1.856,8.212,2.116c2.917,0.288,5.857,0.058,8.772-0.618c2.881-0.706,5.739-1.688,8.311-3.267
						c2.571-1.542,4.985-3.474,6.898-5.876c1.934-2.382,3.479-5.111,4.602-8.063c1.145-2.916,1.77-6.23,2.055-9.257
						c0.17-1.519,0.179-3.018,0.185-4.539l-0.092-2.271c-0.047-0.735-0.118-1.422-0.179-2.142
						c-0.414-4.612-1.881-9.338-4.173-13.637c-2.26-4.334-5.36-8.132-8.691-11.398c-3.354-3.227-6.979-5.963-10.524-8.323
						c-1.719-1.162-3.57-2.347-5.545-3.505c-1.961-1.162-4.091-2.295-6.391-3.329c-4.912-2.285-11.046-3.827-17.281-3.722
						c-3.089,0.078-6.182,0.465-9.069,1.19c-0.771,0.161-1.36,0.366-2.031,0.558l-1.963,0.601c-1.315,0.368-2.606,0.92-3.901,1.465
						c-5.171,2.168-10.115,5.39-14.193,9.219c-4.121,3.836-7.26,8.122-9.817,12.441c-2.724,4.645-5.158,9.652-6.977,15.135
						c-1.813,5.466-3.045,11.414-3.155,17.618c-0.113,6.191,0.884,12.563,2.965,18.449c0.499,1.481,1.136,2.883,1.735,4.316
						c0.575,1.242,1.124,2.322,1.703,3.485c0.553,1.146,1.191,2.271,1.848,3.39c0.667,1.113,1.27,2.244,2.021,3.325
						c5.588,8.622,12.927,16.555,21.577,22.717c4.282,3.133,8.902,5.758,13.622,7.985c2.354,1.154,4.764,2.092,7.17,3.044
						c1.206,0.459,2.425,0.842,3.638,1.264l1.821,0.615l1.83,0.524c2.848,0.873,5.698,1.504,8.554,2.156
						c1.672,0.284,3.318,0.602,5.026,0.812l2.603,0.244l1.304,0.109l1.336,0.031l2.679,0.028c0.894,0.001,1.809-0.09,2.713-0.142
						c1.812-0.081,3.628-0.369,5.44-0.656c0.911-0.12,1.797-0.362,2.693-0.559c0.889-0.22,1.8-0.396,2.665-0.674
						c1.736-0.538,3.495-1.071,5.134-1.769c4.206-1.678,8.077-3.829,11.457-6.193c3.389-2.363,6.383-4.898,9.102-7.456l1.99-1.925
						l1.876-1.926l0.479-0.498l0.597-0.667l1.181-1.346c0.806-0.889,1.474-1.858,2.196-2.799c2.787-3.817,4.914-7.904,6.495-11.869
						c3.156-7.979,4.355-15.356,5.359-21.824l0.691-4.705l0.172-1.238l0.184-1.499c0.109-0.999,0.265-1.999,0.313-2.998
						c0.357-4.007,0.314-7.979,0.099-11.872c-0.204-3.526-0.622-6.926-1.087-10.271c-0.521-3.296-1.092-6.553-1.778-9.655
						c-1.341-6.247-2.947-12.084-4.544-17.587l-0.604-2.048c-0.201-0.684-0.519-1.527-0.776-2.283l-1.673-4.66l-0.864-2.328
						l-1.013-2.229c-0.684-1.485-1.381-2.968-2.094-4.446c-0.365-0.729-0.696-1.496-1.101-2.192l-1.21-2.102
						c-0.814-1.397-1.645-2.789-2.493-4.172c-0.822-1.417-1.788-2.661-2.713-3.973c-0.938-1.295-1.893-2.579-2.866-3.852
						c-1.036-1.339-2.179-2.628-3.323-4.009c-1.161-1.348-2.322-2.809-3.59-4.123c-2.526-2.642-5.161-5.394-7.998-7.669
						c-1.408-1.161-2.839-2.292-4.299-3.305c-1.468-0.983-2.956-1.89-4.462-2.69c-2.962-1.611-6.222-2.767-9.369-3.282
						c-3.08-0.502-5.869,1.303-7.857,3.359c1.629-1.691,3.135,1.605,4.192,5.366c0.545,1.869,0.925,3.896,1.193,5.513
						c0.274,1.612,0.443,2.807,0.523,3.056c0.978,3.001,2.184,5.915,3.527,8.723c1.346,2.809,2.598,5.656,3.747,8.468
						c1.003,2.781,1.848,5.526,2.633,8.21c0.646,2.742,1.352,5.373,1.933,7.989c1.107,5.257,2.232,10.215,3.725,15.165
						c0.388,1.3,0.788,2.585,1.203,3.859l1.312,4.488c0.862,2.975,1.697,5.85,2.407,8.6c0.714,2.755,1.346,5.413,1.838,7.963
						c0.475,2.541,0.817,4.98,1.017,7.324c0.217,2.35,0.195,4.572,0.074,6.753c-0.045,1.093-0.197,2.157-0.319,3.227l-0.688,4.673
						c-0.895,6.069-1.921,11.127-3.375,14.588c-0.608,1.478-1.237,2.684-1.912,3.666c-0.354,0.472-0.686,0.946-1.064,1.357
						c-0.077,0.136-0.6,0.661-0.969,1.052c-0.395,0.406-0.793,0.85-1.18,1.219c-1.563,1.601-3.077,2.942-4.538,4.153
						c-1.459,1.198-2.845,2.094-4.152,2.854c-2.633,1.44-4.815,2.053-7.471,2.158c-0.34-0.01-0.68-0.009-1.02,0.001
						c-0.335,0.024-0.72-0.066-1.078-0.081c-0.708-0.012-1.508-0.197-2.29-0.313c-0.331-0.027-0.949-0.2-1.454-0.314l-1.58-0.373
						c-1.073-0.214-2.046-0.595-3.074-0.876l-0.911-0.272l-0.877-0.331l-1.754-0.661c-1.154-0.467-2.256-1.011-3.377-1.523
						c-2.149-1.156-4.27-2.344-6.173-3.796c-1.968-1.367-3.723-2.989-5.459-4.623l-1.241-1.303l-0.628-0.642l-0.586-0.694
						l-1.191-1.367L356.106,403.521z"/>
				</g>
			</g>
		</g>
	</g>
	<g>
		<g>
			<g>
				<path fill="#FFFFFF" d="M337.941,84.197l-0.037-0.456C337.897,83.947,337.844,84.083,337.941,84.197z"/>
				<path fill="#FFFFFF" d="M366.943,128.875l-0.321,0.265C366.804,129.093,366.893,128.987,366.943,128.875z"/>
				<path fill="#FFFFFF" d="M386.099,98.94l0.097-0.037C386.154,98.883,386.124,98.904,386.099,98.94z"/>
				<g>
					<path fill="#FFFFFF" d="M383.408,95.173c-0.896-0.971-1.923-2-3.094-3.135c-0.589-0.571-1.174-1.104-1.818-1.697l-0.962-0.856
						l-0.481-0.415l-0.257-0.205c-0.35-0.268-0.729-0.519-1.144-0.756c-0.374-0.244-0.681-0.486-1.083-0.712
						c-0.431-0.225-0.733-0.453-1.101-0.673c-0.374-0.22-0.811-0.439-1.125-0.658c-1.553-0.894-3.18-1.915-4.262-3.309
						c-0.208-0.322-0.5-0.71-0.688-1.075c-0.125-0.333-0.354-0.725-0.42-1.105c-0.146-0.759-0.115-1.589,0.236-2.272
						c0.2-0.349,0.345-0.749,0.638-1.039c0.126-0.161,0.244-0.329,0.358-0.504c0.149-0.14,0.308-0.271,0.451-0.419
						c0.154-0.135,0.267-0.324,0.44-0.438c0.176-0.113,0.344-0.235,0.508-0.366c0.281-0.301,0.746-0.478,1.136-0.738l0.298-0.199
						c0.087-0.066,0.318-0.166,0.47-0.25l1.02-0.536l1.131-0.714c0.777-0.491,1.659-0.861,2.622-1.074
						c0.962-0.182,1.981-0.122,2.963,0.134c0.491,0.128,0.972,0.302,1.434,0.536l0.704,0.351l0.908,0.58
						c2.41,1.613,4.701,3.922,6.424,6.303c0.819,1.132,1.726,2.176,2.391,3.006c0.328,0.397,0.65,0.782,0.837,0.958
						c0.056,0.049,0.144,0.136,0.147,0.111l0.046,0c0.065-0.008-0.112,0.026,0.325-0.049l0.463-0.065l0.233-0.026l0.118-0.012
						l0.059-0.005l0.015-0.001c1.048,0.457-1.41-0.625-1.157-0.51l0.002,0.011l0.078,0.351l0.154,0.701l0.076,0.351l0.019,0.083
						l-0.004-0.046l-0.002-0.093c-0.044-0.063,0.141-0.125,0.226-0.178c0.108-0.053,0.221-0.1,0.339-0.138
						c0.117-0.038,0.24-0.068,0.365-0.089c0.131-0.021,0.096-0.004,0.156-0.004c0.075,0.009,0.162,0.028,0.256,0.06
						c0.035,0.011,0.124,0.046,0.119,0.046l-0.082-0.033c-0.048-0.022-0.084-0.044-0.107-0.063l-0.015-0.014l-0.128-0.068
						c-0.083-0.047-0.162-0.096-0.235-0.146c-0.144-0.095-0.327-0.255-0.234-0.194c0.074,0.103-0.607,0.626-1.775,0.783
						c-1.246,0.181-2.853,0.071-4.497,0.017c-0.395-0.009-1.479,0.72-2.68,1.565c-1.185,0.85-2.47,1.804-2.854,2.367
						c-0.373,0.511,2.684,2.489,3.568,2.96c1.426,0.806,3.247,1.646,5.076,2.256c1.815,0.585,3.658,0.946,4.895,0.865
						c2.492-0.11,4.522-0.554,6.507-1.699c1.923-1.146,4.069-3.231,4.867-7.065c0.093-0.538,0.166-1.086,0.218-1.635l0.036-0.412
						l0.013-0.232l0.021-0.427l0.042-0.853l0.003-0.053l-0.056-0.503l-0.021-0.168l-0.043-0.337l-0.095-0.674
						c-0.278-1.8-0.785-3.221-1.313-4.626c-1.095-2.722-2.427-5.032-3.847-7.285c-1.427-2.242-2.955-4.39-4.603-6.551
						c-0.841-1.065-1.691-2.156-2.615-3.237c-0.44-0.554-0.936-1.087-1.423-1.639l-0.735-0.833l-0.92-0.899
						c-2.014-1.984-4.532-3.567-7.245-4.634c-1.367-0.506-2.749-1.054-4.197-1.292c-0.72-0.142-1.442-0.281-2.168-0.385
						c-0.732-0.053-1.468-0.092-2.203-0.119c-2.951-0.002-5.843,0.703-8.617,1.692l-2.075,0.801l-1.66,0.622l-0.808,0.289
						c-0.26,0.088-0.648,0.249-0.968,0.369l-2.027,0.777c-5.922,2.332-11.761,6.45-15.652,12.246
						c-0.936,1.463-1.923,2.94-2.597,4.571c-0.364,0.805-0.713,1.622-1.043,2.448c-0.31,0.832-0.533,1.694-0.774,2.555
						c-0.222,0.86-0.47,1.743-0.612,2.604c-0.126,0.857-0.233,1.721-0.319,2.588c-0.227,1.75-0.13,3.436-0.026,5.143
						c0.587,7.193,2.547,13.851,5.501,19.638c0.741,1.438,1.566,2.787,2.396,4.169c0.837,1.368,1.79,2.549,2.73,3.807l0.721,0.921
						l0.572,0.697l1.081,1.258c0.723,0.825,1.542,1.683,2.348,2.487c0.871,0.84,1.668,1.628,2.631,2.497l1.422,1.282l1.572,1.336
						c2.191,1.798,4.774,3.766,8.144,5.596c1.694,0.923,3.476,1.723,5.299,2.365c0.914,0.318,1.828,0.636,2.762,0.868
						c0.925,0.245,1.888,0.503,2.731,0.646c3.527,0.697,6.616,0.896,9.259,0.997c6.214,0.27,12.597-0.055,19.19-1.264
						c4.154-0.774,8.331-2.071,12.364-3.938c4.027-1.887,7.896-4.339,11.407-7.294c7.061-5.896,12.499-13.83,15.755-22.332
						c3.001-7.667,4.938-15.604,5.239-23.629c0.271-7.998-1.182-15.968-4.891-22.858c-1.973-3.62-3.903-6.666-5.792-8.293
						c-0.962-0.829-1.937-1.303-3.125-1.503c-0.613-0.126-1.239-0.134-1.996-0.185c-0.36-0.003-0.757-0.021-1.189-0.058
						c-0.416-0.071-0.859-0.168-1.339-0.273c-1.84-0.402-5.044-0.785-7.904-0.848c2.354,0.086,0.97,1.144-0.691,2.841
						c-1.696,1.674-3.557,4.306-3.675,4.611c-0.829,1.901-1.098,3.856-1.211,5.709c-0.115,1.864-0.084,3.666-0.269,5.429
						c-0.182,1.697-0.501,3.316-0.936,4.761c-0.451,1.391-1.012,2.784-1.495,4.041c-1.026,2.552-2.031,4.714-2.267,6.676
						c-0.518,4.131-1.287,7.495-2.433,10.38c-1.154,2.871-2.688,5.318-5.063,7.279c-1.001,0.833-2.114,1.61-3.4,2.277
						c-1.284,0.663-2.655,1.318-4.237,1.761c-1.57,0.45-3.233,0.855-5.057,1.006c-0.879,0.138-1.846,0.112-2.769,0.174
						c-0.945-0.027-1.958-0.018-2.859-0.101l-0.815-0.077l-0.656-0.116c-0.227-0.036-0.438-0.075-0.565-0.128l-0.45-0.133
						c-0.462-0.212-0.355-0.336-0.392-0.47c0.004-0.046,0.005-0.078,0.001-0.099c0.006-0.047,0.012-0.09,0.01-0.116
						c0.019,0.004-0.071-0.133-0.113-0.189l-0.225-0.269L383.408,95.173z"/>
				</g>
			</g>
		</g>
	</g>
	
		<path fill-rule="evenodd" clip-rule="evenodd" fill="none" stroke="#000000" stroke-width="5" stroke-linecap="round" stroke-linejoin="round" stroke-miterlimit="10" d="
		M421.657,152.5"/>
	<g>
		<g>
			<g>
				<path fill="#FFFFFF" d="M371.83,144.553l0.029,0.091C371.86,144.601,371.89,144.567,371.83,144.553z"/>
				<path fill="#FFFFFF" d="M369.578,130.936l0.235-0.017C369.731,130.909,369.649,130.92,369.578,130.936z"/>
				<path fill="#FFFFFF" d="M348.259,131.992l-0.044-0.074C348.213,131.958,348.232,131.979,348.259,131.992z"/>
				<g>
					<path fill="#FFFFFF" d="M348.348,137.689c0.312,2.51,1.286,4.898,2.965,7.132c1.726,2.302,4.102,4.471,4.786,7.006
						c0.69,2.692,1.033,5.421,2.296,8.008c1.27,2.603,1.547,5.301,1.824,8.082c0.266,2.681,2.472,5.011,2.205,7.781
						c-0.077,0.741-0.288,1.499-0.412,2.246c-0.063,0.367,1.524,1.892,2.18,2.13c0.299,0.108,1.51-1.153,1.829-1.501
						c1.036-1.139,2.365-2.844,2.731-3.668c0.74-1.668,1.062-2.443,1.125-4.035c0.133-3.289,0.026-6.453,1.423-9.931
						c1.127-2.813-0.354-5.298-0.063-7.999c0.323-2.927,1.189-5.95,0.573-8.729c-0.647-2.958,0.01-6.146-0.724-9.09
						c-0.721-2.902-1.785-5.734-2.338-8.668c-0.321-1.713-0.561-3.441-0.709-5.187c-0.378-4.41-1.716-8.626-2.423-12.966
						c-0.641-3.923,0.818-8.157-0.688-11.933c-0.799-1.998-1.484-4.782-6.226-5.625c-1.151-0.205-3.085,0.055-4.768,0.396
						c2.763-0.559-2.551,2.888-2.787,3.106c-1.438,1.33-1.934,2.575-2.848,3.851c-1.769,2.473-4.269,4.863-4.492,7.147
						c-0.469,4.786,0.719,9.203,1.588,13.731c0.736,3.849,1.777,7.636,2.344,11.518
						C348.071,132.812,348.054,135.282,348.348,137.689z"/>
				</g>
			</g>
		</g>
	</g>
</g>
</svg>
