<?xml version="1.0" encoding="utf-8"?>
<!-- Generator: Adobe Illustrator 19.1.0, SVG Export Plug-In . SVG Version: 6.00 Build 0)  -->
<svg version="1.1" id="Layer_1" xmlns="http://www.w3.org/2000/svg" xmlns:xlink="http://www.w3.org/1999/xlink" x="0px" y="0px"
	 viewBox="-508.5 691 89.8 89.8" style="enable-background:new -508.5 691 89.8 89.8;" xml:space="preserve">
<style type="text/css">
	.st0{fill:#FFFFFF;}
</style>
<path class="st0" d="M-463.6,691l-32.9,47.8l2,1.4l0.3-0.4v41h2.2v-0.2l0.2,0.2h56h0.1h2.1V739l0.9,1.3l2-1.4L-463.6,691z
	 M-486.7,779h-4.1v-1.5h4.1V779z M-490.3,774.6v-12.7h2.7v12.7H-490.3L-490.3,774.6z M-486.7,760.1h-4.1v-7.7h4.1V760.1z
	 M-486.7,750.7h-4.1v-11.2h4.1V750.7z M-490.1,737.7l5.4-7.8v7.8H-490.1z M-481.2,779h-1.2l1.2-4.4V779z M-481.2,769.9l-2.4,9h-1.3
	v-1.5h0.4v-2.6h-0.4v-22.5l0,0v1.2h3.2v6.3h0.5V769.9z M-481.2,749.5h-3.7v1.2l0,0v-11.2h3.7V749.5L-481.2,749.5z M-482.9,737.7
	v-10.1h-0.2l5.2-7.5v17.6H-482.9z M-479.5,760h0.6v-6.3h2.1l-2.6,9.7L-479.5,760L-479.5,760z M-475.8,779h-3.7v-11l3.7-13.7V779z
	 M-475.8,749.5h-3.7v-10h3.7V749.5z M-471.2,718v19.8h-5V718H-471.2z M-475.2,716.2l4.1-5.9v5.9H-475.2z M-470.3,779h-3.7v-25.3h3.7
	V779z M-470.3,749.5h-3.7v-10h3.7V749.5z M-464.4,718v19.8h-5V718H-464.4z M-469.4,716.2v-8.5l5-7.2v15.7H-469.4L-469.4,716.2z
	 M-464.8,739.5v10h-3.7v-10H-464.8z M-464.8,779h-3.7v-3.6h3.7V779z M-464.6,773.8h-2.5v-2.6h2.5V773.8z M-464.6,770.6h-2.5v-3.2
	h2.5V770.6z M-464.6,766.7h-2.5v-3.2h2.5V766.7z M-464.6,762.9h-2.5v-2.6h2.5V762.9z M-461.7,763.5v3.2h-2.5v-3.2H-461.7z
	 M-464.1,762.9v-2.6h2.5v2.6H-464.1z M-461.7,767.4v3.2h-2.5v-3.2H-461.7z M-461.7,771.2v2.6h-2.5v-2.6H-461.7z M-459.3,779h-3.7
	v-3.6h3.7V779z M-458.2,773.8h-2.5v-2.6h2.5V773.8z M-458.2,770.6h-2.5v-3.2h2.5C-458.2,767.4-458.2,770.6-458.2,770.6z
	 M-458.2,766.7h-2.5v-3.2h2.5V766.7z M-458.2,762.9h-2.5v-2.6h2.5V762.9z M-455.2,763.5v3.2h-2.5v-3.2H-455.2z M-457.7,762.9v-2.6
	h2.5v2.6H-457.7z M-455.2,767.4v3.2h-2.5v-3.2H-455.2z M-455.2,771.2v2.6h-2.5v-2.6H-455.2z M-453.8,779h-3.7v-3.6h3.7V779z
	 M-453.8,753.7v4.5v0.3h-14.7v-5.9h14.7V753.7z M-459.8,718v19.8h-2.9V718H-459.8z M-462.6,716.2v-15.6l5,7.2v8.3
	C-457.7,716.2-462.6,716.2-462.6,716.2z M-459.3,739.5v10h-3.7v-10H-459.3z M-453.8,749.5h-3.7v-10h3.7V749.5z M-455.9,716.2v-5.7
	l4,5.7H-455.9z M-448.3,779h-3.7v-24.3l3.7,13.7V779z M-448.3,763.8l-2.7-10.1h2v6.3h0.7V763.8z M-448.3,749.5h-3.7v-10h3.7V749.5z
	 M-449.1,737.7v-17.5l5.1,7.4h-0.1v10.1C-444.2,737.7-449.1,737.7-449.1,737.7z M-446.5,779v-4l1.1,4H-446.5z M-442.8,779h-1.4
	l-2.3-8.6V760h0.3v-6.3h3.4V779L-442.8,779z M-442.8,749.5h-3.7v-10h3.7V749.5z M-436.6,779h-4.5v-26.5h4.5V779z M-442.4,737.7V730
	l5.3,7.7H-442.4z M-436.6,750.7h-4.5v-11.2h4.5V750.7z M-435.1,737.5l-14-20.4l0,0l-0.1-0.1l-13.6-19.8h-1.5l-27.8,40.3h-0.6
	l29.1-42.2l29.1,42.2H-435.1z"/>
</svg>
