<?xml version="1.0" encoding="utf-8"?>
<!-- Generator: Adobe Illustrator 19.1.0, SVG Export Plug-In . SVG Version: 6.00 Build 0)  -->
<svg version="1.1" id="Layer_1" xmlns="http://www.w3.org/2000/svg" xmlns:xlink="http://www.w3.org/1999/xlink" x="0px" y="0px"
	 viewBox="-538.1 723.8 70.1 70.1" style="enable-background:new -538.1 723.8 70.1 70.1;" xml:space="preserve">
<g>
	<path d="M-504,754.7l-16.3,19.9c-0.1,0.1-0.1,0.2-0.1,0.3v18.6c0,0.2,0.2,0.4,0.4,0.4h7.2c0.2,0,0.4-0.2,0.4-0.4v-20.2
		c0-0.2,0.2-0.4,0.4-0.4h16.3c0.2,0,0.4,0.2,0.4,0.4v20.1c0,0.2,0.2,0.4,0.4,0.4h7.2c0.2,0,0.4-0.2,0.4-0.4v-18.5
		c0-0.1,0-0.2-0.1-0.3l-15.9-19.9C-503.5,754.5-503.9,754.5-504,754.7z"/>
	<path d="M-524.9,773.1l9.5-11.7c0,0,0.1-0.1,0.1-0.2V744l-11.1-20c-0.1-0.2-0.4-0.2-0.5,0l-11.1,20v0.1v49.5c0,0.2,0.1,0.3,0.3,0.3
		h12.5c0.2,0,0.3-0.1,0.3-0.3v-20.3C-525,773.2-525,773.2-524.9,773.1z M-532.7,749.8c0-3.5,3.1-6.2,6.7-5.9
		c3.2,0.3,5.5,3.1,5.5,6.2v8.8c0,0.2-0.1,0.3-0.3,0.3h-11.7c-0.2,0-0.3-0.1-0.3-0.3L-532.7,749.8L-532.7,749.8z"/>
	<path d="M-479.7,724.3l-10.9,19.6c0,0.1-0.1,0.1-0.1,0.2v18.8c0,0.1,0,0.2,0.1,0.3l8.1,9.9c0.1,0.1,0.1,0.2,0.1,0.3v20.1
		c0,0.2,0.2,0.4,0.4,0.4h13.5c0.2,0,0.4-0.2,0.4-0.4v-49.4c0-0.1,0-0.1-0.1-0.2l-10.8-19.6C-479.1,724-479.6,724-479.7,724.3z
		 M-473.7,759.1H-485c-0.2,0-0.4-0.2-0.4-0.4V750c0-3.1,2.3-5.9,5.5-6.2c3.6-0.3,6.7,2.4,6.7,5.9v8.9
		C-473.3,758.9-473.4,759.1-473.7,759.1z"/>
</g>
</svg>
