<?xml version="1.0" encoding="utf-8"?>
<!-- Generator: Adobe Illustrator 19.1.0, SVG Export Plug-In . SVG Version: 6.00 Build 0)  -->
<svg version="1.1" id="Layer_1" xmlns="http://www.w3.org/2000/svg" xmlns:xlink="http://www.w3.org/1999/xlink" x="0px" y="0px"
	 viewBox="-1021.5 1380.9 97.5 97.5" style="enable-background:new -1021.5 1380.9 97.5 97.5;" xml:space="preserve">
<g>
	<path d="M-959.4,1404.1c-4.2-1.3-8.7-2-13.3-2c-6.7,0-13.1,1.5-19,4.1c-17.5,8-29.8,26.7-29.8,48.4c0,0.9,0,1.8,0.1,2.7h97.3
		c0-0.9,0.1-1.8,0.1-2.7C-924,1430.7-939,1410.4-959.4,1404.1z M-986.4,1407l2.2-0.6l2,2.1c0.1,0.1,0.3,0.2,0.5,0.1l4.6-3.2h3.1
		l4.9-0.6l3.2,21.4c0,0.2,0.2,0.3,0.4,0.3c0.2,0,0.3-0.1,0.4-0.3l1.6-16.1l1.6,6c0,0.2,0.2,0.3,0.4,0.3c0.2,0,0.3-0.1,0.4-0.3
		l1.7-9.2l0.8,2l1,1.9c0.1,0.2,0.3,0.2,0.4,0.2l2.9-0.7l0.3,2.9l1.5,9.6c0,0.2,0.2,0.3,0.4,0.3c0.2,0,0.3-0.1,0.4-0.3l1.6-6.7
		l1.2-2.8l4.1,1.7l1.4,3.8c0,0,0,0.1,0.1,0.1l1.5,2.1c0.5,0.3,1,0.7,1.4,1.2c0.4,0.4,0.8,0.9,1.1,1.4l0.2,0.1v0.1
		c2.1,2.6,3.9,5.5,4.8,8.7c0.6,1.2,1,2.5,1.4,3.8c0.7,1.1,1.2,2.3,1.5,3.5c0.4,0.8,0.7,1.7,1,2.6c0.4,1.3,0.4,2.4,0.1,3.4
		c0,0.9,0,1.9,0,2.9c0.1,1.9,1.3,3.9,1.9,4.7c-1.1,0.4-3.7,1.2-4.5,1.4c-0.2,0.1-0.7,0.1-1.7,0.1s-2.2-0.1-2.9-0.1h-0.9
		c-0.4,0-5.4-1-8.4-1.6c-1.3-0.2-5-0.9-5.6-1.1c-0.3-0.1-0.8-1.8-1.1-3.4v-0.1l-1.1-2.6c-0.1-0.1-0.2-0.2-0.3-0.2s-0.3,0.1-0.3,0.2
		l-1.9,3l-2-4.7l-1.1-10.4c0-0.2-0.2-0.3-0.4-0.3c-0.2,0-0.3,0.1-0.4,0.3l-1.8,8c0,0.1-1.5,9.3-1.8,10.7c-0.3,1.2-1.8,2.9-2.2,3.3
		c-0.8,0-4.3,0.1-6.9,0.1c-2.3,0-2.8-0.1-2.8-0.1c-0.6-0.2-2.4-0.4-4.6-0.7c-0.7-0.1-1.3-0.1-1.6-0.2c-0.4-0.1-1.2-0.5-1.9-0.8
		c-1-0.5-1.9-1-2.6-1c-0.2,0-0.4,0.1-0.5,0.2c-0.4,0.3-2.8,0.8-4.3,0.8c-0.5,0-0.6-0.1-0.7-0.1c-0.3-0.1-0.8-0.2-1.4-0.2
		c-0.9,0-2,0.1-2.3,0.1l-20.1-0.9l2-10.3c0.8-4,2.3-7.8,4.4-11.3l9.1-14.6c0.6-0.8,2-2.7,3-3.4l2,9.4c0,0.2,0.2,0.3,0.4,0.3
		c0.2,0,0.3-0.1,0.4-0.3l1.8-11.9l2.1-1.5c0.4-0.5,1-0.9,1.6-1.2l0,0"/>
</g>
</svg>
