<?xml version="1.0" encoding="utf-8"?>
<!-- Generator: Adobe Illustrator 19.1.0, SVG Export Plug-In . SVG Version: 6.00 Build 0)  -->
<svg version="1.1" id="Layer_1" xmlns="http://www.w3.org/2000/svg" xmlns:xlink="http://www.w3.org/1999/xlink" x="0px" y="0px"
	 viewBox="-509.5 684 97.5 97.5" style="enable-background:new -509.5 684 97.5 97.5;" xml:space="preserve">
<style type="text/css">
	.st0{fill:#FFFFFF;}
</style>
<g>
	<path class="st0" d="M-447.4,707.1c-4.2-1.3-8.7-2-13.3-2c-6.7,0-13.1,1.5-19,4.1c-17.5,8-29.8,26.7-29.8,48.4c0,0.9,0,1.8,0.1,2.7
		h47.3h39.3h10.7c0-0.9,0.1-1.8,0.1-2.7C-412,733.7-427,713.4-447.4,707.1z M-477.7,711c0,0.1,0,0.3,0,0.4c0,0.2-0.1,0.3,0,0.5v0.1
		c0,0.1,0,0.2,0,0.2c0,0.3-0.1,0.8-0.1,1.1c0,0.1-0.3,0.3-0.4,0.5c-0.1,0.1-0.2,0.2-0.3,0.3l0,0l-0.1,0.1c-0.1,0.2-0.1,0.6-0.1,1
		c0,0.1,0,0.2,0,0.3c0,0.3-0.2,0.9-0.3,1s-0.3,0.5-0.3,0.7c0,0.1,0,0.1,0,0.2v0.1c0,0.1,0,0.2,0,0.4c0.3-0.6,0.6-1.3,0.8-1.6
		c0.3-0.6,0.9-1.4,0.9-1.4l0,0c0,0,1.1-0.3,1.4-0.5c0.2-0.1,0.5-0.3,0.8-0.5c0.2-0.1,0.3-0.2,0.4-0.3c0.1-0.1,0.5-0.4,0.9-0.6
		c0.1-0.1,0.1-0.1,0.1-0.1l0,0l0.1-0.1c-0.3-0.2-0.6-0.5-0.6-0.7c-0.1-0.2,0-0.7,0-1c0-0.2,0-0.8,0-1.1l2.3-0.6l2,2.1
		c0.1,0.1,0.3,0.2,0.5,0.1l4.6-3.2h3.1l4.9-0.6l3.2,21.4c0,0.2,0.2,0.3,0.4,0.3c0.2,0,0.3-0.1,0.4-0.3l1.6-16.1l1.6,6
		c0,0.2,0.2,0.3,0.4,0.3c0.2,0,0.3-0.1,0.4-0.3l1.7-9.2l0.8,2l1,1.9c0.1,0.2,0.3,0.2,0.4,0.2l2.9-0.7l0.3,2.9l1.5,9.6
		c0,0.2,0.2,0.3,0.4,0.3c0.2,0,0.3-0.1,0.4-0.3l1.6-6.7l1.2-2.8l4.1,1.7l1.4,3.8c0,0,0,0.1,0.1,0.1l2.9,3.9l0.1,0.1l1.3,0.8v5.7
		c0,0.2,0.1,0.3,0.3,0.4c0.1,0,0.3,0.2,0.7,1l0.2,0.4c0.7,1.2,1.5,2.7,2,3.1l0.2,0.2c0.4,0.4,0.7,0.7,1,1.6c0.3,1,0,3.1,0,3.1
		c0,0.1,0,0.2,0.1,0.3l4.3,4.1c0,0.6-0.1,3,0,5.1c0.1,1.9,1.3,3.9,1.9,4.7c-1.1,0.4-3.7,1.2-4.5,1.4c-0.2,0.1-0.7,0.1-1.7,0.1
		s-2.2-0.1-2.9-0.1c-0.4,0-0.8,0-0.9,0c-0.4,0-5.4-1-8.4-1.6c-1.3-0.2-5-0.9-5.6-1.1c-0.3-0.1-0.8-1.8-1.1-3.4v-0.1l-1.1-2.6
		c-0.1-0.1-0.2-0.2-0.3-0.2s-0.3,0.1-0.3,0.2l-1.9,3l-2-4.7l-1.1-10.4c0-0.2-0.2-0.3-0.4-0.3c-0.2,0-0.3,0.1-0.4,0.3l-1.8,8
		c0,0.1-1.5,9.3-1.8,10.7c-0.3,1.2-1.8,2.9-2.2,3.3c-0.8,0-4.3,0.1-6.9,0.1c-2.3,0-2.8-0.1-2.8-0.1c-0.6-0.2-2.4-0.4-4.6-0.7
		c-0.7-0.1-1.3-0.1-1.6-0.2c-0.4-0.1-1.2-0.5-1.9-0.8c-1-0.5-1.9-1-2.6-1c-0.2,0-0.4,0.1-0.5,0.2c-0.4,0.3-2.8,0.8-4.3,0.8
		c-0.5,0-0.6-0.1-0.7-0.1c-0.3-0.1-0.8-0.2-1.4-0.2c-0.9,0-2,0.1-2.3,0.1c-1.7-0.5-3.6-1.2-3.8-1.5c-0.3-0.3-0.9-0.5-1.9-0.8
		c-0.9-0.3-1.9-0.6-2.4-1c-0.4-0.3-1-0.4-1.8-0.4c-1.3,0-2.7,0.4-2.8,0.4l-4.7,2.2l0.3-0.9l1.6-2.4c0-0.1,0.1-0.1,0.1-0.2v-10.5
		c0.5-1.6,1.4-4.3,1.7-4.7l0.3-0.4c0.6-0.8,2.3-3.2,2.7-3.4c0.5-0.3,1.8-1.3,2.5-2.1c0.6-0.7,2-1.6,2-1.6c0.1-0.1,0.2-0.2,0.2-0.3
		c0-0.2,0.5-4.6,0.5-5.9c0-1.1,0.8-3.2,0.9-3.6c0.6-0.8,2-2.7,3-3.4l2,9.4c0,0.2,0.2,0.3,0.4,0.3c0.2,0,0.3-0.1,0.4-0.3l1.8-11.9
		l3.9-2.8L-477.7,711z M-477,710.8l2.1-0.5c-0.2,0.4-0.6,1.1-0.7,1.3c0,0.1-0.1,0.1-0.1,0.2c-0.1,0.2-0.3,0.7-0.4,0.7l0,0
		c-0.2,0-0.4-0.7-0.5-0.9c0-0.1-0.1-0.2-0.1-0.3C-476.8,711.2-476.9,711-477,710.8z"/>
	<path class="st0" d="M-474.4,722.1c0-0.1-0.1-0.2-0.1-0.3c-0.1-0.2-0.1-0.3-0.2-0.4c0,0-0.2-0.2-0.3-0.2s-0.2,0-0.3,0
		c0-0.1,0-0.2,0-0.3l0,0c-0.1-0.2-0.5-0.4-0.7-0.4c-0.3-0.1-0.4-0.3-0.4-0.4l0,0c-0.1-0.3-0.2-0.4-0.3-0.4l0,0
		c-0.1,0-0.3,0.3-0.3,0.4c-0.1,0.2-0.2,0.4-0.5,0.5l0,0c-0.1,0-0.1,0-0.2,0.1l0,0l0,0c-0.1,0-0.2,0.1-0.2,0.2l0,0
		c0,0.1-0.1,0.3-0.1,0.5c-0.1,0-0.2,0-0.3,0s-0.3,0.2-0.3,0.2c-0.1,0.1-0.2,0.3-0.2,0.4s-0.1,0.2-0.1,0.3s-0.2,0.2-0.3,0.3
		c0,0-0.1,0.1,0,0.2c0,0.1,0.1,0.1,0.1,0.1c0.1,0,0.5,0.1,0.8,0.1c0.1,0,0.2,0,0.2,0c0.2,0,0.6-0.3,0.8-0.4c0.2,0.1,0.5,0.4,0.9,0.4
		l0,0c0.3,0,0.6-0.1,0.8-0.4c0.2,0.1,0.6,0.3,0.8,0.4c0.3,0.1,1-0.1,1-0.1c0.1,0,0.1,0,0.1-0.1s0-0.1,0-0.2
		C-474.2,722.3-474.4,722.1-474.4,722.1z"/>
	<path class="st0" d="M-479.5,720.7c0.1,0.1,0.3,0.2,0.4,0.2l0,0c0.1,0,0.2-0.1,0.4-0.2l0.1-0.1c0.1-0.1,0.2-0.1,0.3-0.1
		c0.1-0.1,0.3-0.2,0.5-0.2c0.3-0.1,0.4-0.3,0.4-0.4c0,0,0.2-0.5,0.4-0.5c0.2,0,0.3,0.2,0.5,0.5l0,0c0,0.1,0.1,0.2,0.3,0.3
		c0.1,0,0.6,0.2,0.8,0.5c0.9-0.4,0.9-0.5,0.9-0.6s0-0.1,0.1-0.2c0-0.2,0.1-0.3,0.2-0.6c0.1-0.2,0.5-0.6,0.8-0.8
		c-0.4-0.3-1.3-1.1-1.6-1.3c-0.2-0.1-0.7-0.4-0.9-0.4l-2.3,2.1c0,0,0,0-0.1,0c0,0,0,0-0.1,0v-0.1l2.3-2.2h0.1c0,0,0.8,0.3,1,0.5
		c0.3,0.2,1.2,1,1.6,1.3l0,0c0,0-0.7-2.1-0.8-2.8c0-0.2,0-0.7,0-0.9c0-0.2,0.1-0.7,0.2-0.9l0,0c0-0.2,0.2-0.6,0.2-0.6s0,0,0-0.1
		c-0.1,0.1-0.2,0.1-0.3,0.2c-0.2,0.2-0.6,0.5-0.8,0.6h-0.1c-0.1,0.1-0.2,0.2-0.4,0.3c-0.3,0.2-0.6,0.4-0.8,0.5
		c-0.3,0.2-1.3,0.4-1.5,0.5c-0.1,0.1-0.7,0.8-0.9,1.4c-0.2,0.4-0.7,1.4-1,2c0,0,0,0,0,0.1c0,0.1-0.1,0.2-0.1,0.3
		c-0.1,0.1-0.1,0.3-0.2,0.5c-0.1,0.4-0.1,0.6,0,0.8C-479.8,720.2-479.6,720.6-479.5,720.7z"/>
</g>
</svg>
