<?xml version="1.0" encoding="utf-8"?>
<!-- Generator: Adobe Illustrator 19.1.0, SVG Export Plug-In . SVG Version: 6.00 Build 0)  -->
<svg version="1.1" xmlns="http://www.w3.org/2000/svg" xmlns:xlink="http://www.w3.org/1999/xlink" x="0px" y="0px"
	 viewBox="0 0 500 500" style="enable-background:new 0 0 500 500;" xml:space="preserve">
<style type="text/css">
	.st0{fill:none;stroke:#000000;stroke-linecap:round;stroke-linejoin:round;stroke-miterlimit:10;}
	.st1{fill:none;stroke:#000000;stroke-width:2;stroke-linecap:round;stroke-linejoin:round;stroke-miterlimit:10;}
	.st2{fill:#231F20;}
	.st3{display:none;}
	.st4{display:inline;}
	
		.st5{fill-rule:evenodd;clip-rule:evenodd;fill:none;stroke:#000000;stroke-width:2;stroke-linecap:round;stroke-linejoin:round;stroke-miterlimit:10;}
</style>
<g id="Layer_1">
	<g>
		<g>
			<g>
				<path class="st0" d="M318.6,229"/>
			</g>
		</g>
		<g>
			<g>
				<path class="st1" d="M286,324.2"/>
			</g>
		</g>
		<g>
			<g>
				<g>
					<path class="st2" d="M128.8,293.4l-0.4-0.1C128.6,293.4,128.7,293.5,128.8,293.4z"/>
					<path class="st2" d="M180.9,297.2l-0.1,0.2C180.9,297.3,180.9,297.2,180.9,297.2z"/>
					<path class="st2" d="M190.4,282.3l0.3,0C190.5,282.2,190.4,282.2,190.4,282.3z"/>
					<g>
						<path class="st2" d="M170.3,282.8c-9,0-18-0.1-26.8-0.5c-4.6-0.2-9.2-0.5-13.8-1c-4.6-0.5-9.2-1.4-13.8-2.6
							c-9.7-2.6-19-6.1-28.4-9.6c-4.7-1.7-9.3-3.8-13.7-6c-4.4-2.3-8.8-4.7-13-7.4c-4.1-2.6-8.3-5-12.3-7.7c-4-2.7-7.8-5.7-11.1-9.2
							c-0.9-0.9-1.7-1.9-2.5-2.9c-0.8-1-1.5-2-2.3-3c-0.3-0.5-1.7-1.8-2.9-3.1c-0.3-0.3-0.6-0.7-0.9-1c-0.3-0.3-0.6-0.6-0.8-0.9
							c-0.5-0.6-0.9-1-1.2-1.2c-0.2-0.2-0.1,0.6,0.2,1.6c0.1,0.5,0.3,1,0.4,1.5c0.2,0.5,0.3,0.9,0.4,1.1c1.2,3.3,4,8,5.8,10.2
							c1.8,2.2,3.1,3.8,4.6,5.3c0.7,0.8,1.5,1.5,2.3,2.3c0.9,0.8,1.8,1.6,2.9,2.5c9.3,7.7,19.2,13.9,29.3,20.3
							c4.1,2.6,8.6,4.7,13.1,6.7c4.6,1.9,9.2,3.7,13.8,5.6c4.9,2,9.9,4,14.9,5.7c5.1,1.7,10.2,3.2,15.5,4.2c5.6,1.1,11.3,2.2,17,3
							c2.9,0.4,5.7,0.6,8.6,0.9c2.9,0.2,5.7,0.3,8.6,0.4c11.3,0.1,22.6-1,33.8-2.5c1.6-0.2,3.3-0.4,4.9-0.7l4.9-0.8
							c1.6-0.2,3.3-0.6,5-0.9l2.5-0.5c0.8-0.2,1.7-0.3,2.5-0.6c8.1-2,15.8-4.3,23.6-6.7c7.7-2.4,15.4-4.8,23.1-7.1
							c3.5-1.1,6.9-1.9,10.4-2.7c1.8-0.5,3.4-0.8,5.1-1.1c1.7-0.3,3.3-0.7,5-0.9c6.8-1,13.6-1.7,20.5-2.3c1.8-0.2,3.8-0.3,5.9-0.4
							c2.1-0.2,4.2-0.2,6.3-0.4c2.1-0.2,4.2-0.3,6.2-0.7c2-0.3,3.8-0.7,5.5-1.3c1.6-0.6,2.2-1.8,2.4-3c-0.1,0.9-2.1,0.2-4.3-0.7
							c-2.1-1-4.4-2.1-4.7-2.2c-3.7-1.3-7.9-1.9-11.9-2.6c-7.8-1.3-15.1-2.7-23.6-1.7c-2.2,0.2-4.4,0.6-6.6,0.9
							c-2.2,0.4-4.4,0.9-6.6,1.4c-2.2,0.5-4.2,1.1-6.3,1.6c-2.1,0.6-4.2,1.1-6.2,1.7c-8.2,2.4-16.3,5-24.4,7.4
							c-3.5,1.1-6.9,2.1-10.3,3.1l-5.2,1.5l-5.1,1.4c-1.7,0.5-3.4,1-5,1.3c-1.6,0.4-3.2,0.8-4.9,1.1c-3.5,0.6-6.9,1.2-10.4,1.5
							C187.6,282.5,179,282.8,170.3,282.8z"/>
					</g>
				</g>
			</g>
		</g>
		<g>
			<g>
				<g>
					<path class="st2" d="M288.1,338.6l-0.3,0C288,338.6,288.1,338.7,288.1,338.6z"/>
					<path class="st2" d="M335.9,335.6l0,0.2C335.9,335.7,335.9,335.7,335.9,335.6z"/>
					<path class="st2" d="M337.7,318.9l0.2-0.1C337.8,318.8,337.7,318.8,337.7,318.9z"/>
					<g>
						<path class="st2" d="M323,324.2c-1.8,0.4-3.6,0.7-5.4,1c-1.8,0.2-3.6,0.5-5.5,0.7c-1.8,0.2-3.7,0.3-5.6,0.4
							c-1.9,0.1-3.9,0.1-5.8,0.2c-8.1,0.2-16.5,0.1-25-1.2c-2.3-0.3-4.5-0.7-6.8-1c-2.3-0.3-4.5-0.6-6.8-0.9
							c-4.6-0.5-9-0.9-13.5-1.2c-9.2-0.5-18-1.7-27.3-2.2c-2.2-0.1-4.5-0.1-6.7-0.1c-1.1,0-2.3,0.1-3.5,0.2
							c-1.2,0.1-2.3,0.2-3.5,0.4c-2.3,0.3-4.6,0.8-7,1.5c-2.3,0.7-4.6,1.5-6.9,2.6c-2.4,1.2-4.8,2.8-6.7,4.7c-0.5,0.5-1.6,2.2-2.5,4
							c-0.4,0.9-0.8,1.8-1,2.6c-0.2,0.8-0.4,1.4-0.4,1.7c0,0.3,0.6-0.3,1.2-1c0.7-0.8,1.5-1.6,1.9-2c1.2-1.2,2.8-2.6,4.4-3.6
							c1.6-1,3.2-1.8,4.3-2.3c2.2-1,3.9-1.3,5.6-1.7c0.4-0.1,0.9-0.2,1.3-0.3c0.4-0.1,0.9-0.1,1.4-0.2c0.9-0.2,2-0.2,3.2-0.4
							c2.5-0.2,5-0.2,7.5-0.1c2.6,0.2,5.1,0.4,7.6,0.6l3.8,0.4l3.8,0.6c2.5,0.4,5,0.9,7.6,1.5c4.1,1,8.3,1.6,12.6,2.1
							c2.1,0.3,4.3,0.5,6.4,0.8c1.1,0.2,2.1,0.3,3.2,0.5c1,0.2,2.1,0.3,3.1,0.5c8.9,1.7,17.7,4.4,27.1,5.6l3.8,0.5l3.8,0.5
							c2.5,0.4,5.1,0.6,7.7,0.8c5.3,0.4,10.7,0.4,16.1-0.5c5.3-0.8,10.5-2.3,15.6-4.5c5-2.2,9.9-5,14.3-8.9c0.6-0.6,1.3-1.1,1.9-1.8
							l1.8-1.9c0.6-0.7,1.1-1.4,1.6-2.1c0.3-0.4,0.5-0.7,0.8-1.1l0.7-1.2c1-1.5,1.7-3.3,2.4-5.1c0.3-0.9,0.6-1.8,0.8-2.7
							c0.2-1,0.4-1.9,0.5-2.9c0.3-2.5,0.1-5.1-0.5-7.7c-0.6-2.5-1.7-4.9-3-7c-2.8-4.2-6.4-7.2-10.1-9.4c-7.6-4.4-15.3-6.1-23.2-7.2
							c-7.1-0.9-14.2-0.9-21.2-0.1c-7,0.8-14.1,2.8-20.6,6.4c-3.4,2-7.4,4.5-10.6,7.9c-3,3.3-5,6.5-6,9.5c-0.5,1.5,0.1,2.7,0.9,3.6
							c-0.6-0.7,1-1.6,3-2.4c1.9-0.8,4.1-1.5,4.4-1.7c0.8-0.4,1.6-0.8,2.3-1.2c0.4-0.2,0.8-0.4,1.1-0.7l1.2-0.6
							c0.8-0.4,1.5-0.8,2.3-1.2c0.8-0.3,1.6-0.7,2.4-1c0.7-0.3,1.5-0.5,2.3-0.7c0.8-0.2,1.5-0.5,2.3-0.6c1.5-0.3,3-0.6,4.5-0.8
							c3-0.5,6-0.8,9.2-1.4c3.3-0.6,6.7-0.9,10.1-1c3.4-0.1,6.7,0,10,0.3c3.3,0.4,6.6,0.9,9.7,1.8c0.8,0.2,1.5,0.5,2.3,0.7l1.2,0.4
							l1.1,0.4c1.5,0.6,2.8,1.3,4,2c2.1,1.3,3.8,2.7,4.9,4.3c0.6,0.8,0.9,1.5,1.3,2.3c0.1,0.4,0.3,0.8,0.3,1.2l0.1,0.6
							c0,0.2,0,0.4,0,0.6c0.1,1.7-0.5,3.7-1.4,5.5c-0.3,0.5-0.5,0.9-0.8,1.4c-0.3,0.4-0.7,0.9-1,1.4c-0.8,0.9-1.6,1.8-2.6,2.6
							C336.3,320.2,329.8,322.8,323,324.2z"/>
					</g>
				</g>
			</g>
		</g>
		<g>
			<g>
				<g>
					<path class="st2" d="M458.4,322.6l-0.6,0.7C458.1,323,458.3,322.8,458.4,322.6z"/>
					<path class="st2" d="M471.1,204.6l0.3,0.2C471.2,204.5,471.1,204.5,471.1,204.6z"/>
					<path class="st2" d="M446.1,191.1l-0.4-0.5C445.9,190.9,446,191,446.1,191.1z"/>
					<g>
						<path class="st2" d="M464.9,231.3c4.5,19.7,3.7,40.6-3,59.4c-1.8,4.8-3.8,9.5-6.4,14.1c-0.6,1.1-1.3,2.2-2,3.3l-1,1.7
							c-0.3,0.6-0.7,1.1-1.1,1.6l-2.2,3.2l-2.4,3.1c-6.5,8.2-14.9,14.9-24.1,20.7c-19.6,12.2-42,18.9-65,20.7
							c-11.6,0.9-23.1,0.1-34.5-1.9c-2.9-0.4-5.6-1.2-8.4-1.8c-1.4-0.3-2.8-0.6-4.2-1l-4.2-1.2l-4.2-1.2c-1.4-0.4-2.7-1-4.1-1.5
							c-2.7-1-5.4-1.9-8.3-3.1c-10.8-4.3-21.9-7.8-33.1-10.9c-5.6-1.5-11.2-3-16.9-4.2c-5.7-1.2-11.5-2.3-17.5-2.8
							c-6.3-0.6-12.8-0.7-19.2,0.2c-0.8,0.1-2.4,0.4-4.3,1c-1,0.3-2,0.6-3.1,1c-1.1,0.3-2.2,0.8-3.3,1.3c-0.6,0.2-1.1,0.4-1.7,0.7
							c-0.5,0.3-1.1,0.5-1.6,0.8c-1,0.5-2,1-2.9,1.5c-1.7,1-3,1.8-3.7,2.3c-0.6,0.4,1.3-0.3,3.6-1.1c0.3-0.1,0.6-0.2,0.9-0.3
							c0.3-0.1,0.6-0.2,0.9-0.3c0.6-0.2,1.2-0.4,1.8-0.5c0.6-0.2,1.1-0.3,1.6-0.5c0.5-0.1,0.9-0.2,1.2-0.3c4-1.1,9.2-1.9,14.2-2.1
							c5-0.2,9.6,0.1,12.8,0.5c6.4,0.7,11,1.7,15.6,2.8c4.6,1.1,9.3,2.3,15.6,4.3c13.1,3.9,25.8,8.5,38.3,13.7
							c12.7,5.3,25.9,9.3,39.7,11.9c11.1,2,22.8,2.5,34.5,1.5c11.6-1,23.2-3.4,34.2-6.7c11.9-3.7,23.5-8.8,34.2-15.4
							c2.6-1.7,5.3-3.4,7.9-5.2c2.5-2,5.2-3.8,7.5-6l1.8-1.6l0.9-0.8l0.9-0.8l3.4-3.4c1.1-1.2,2.2-2.4,3.2-3.6
							c0.5-0.6,1.1-1.2,1.6-1.8l1.5-1.9c8.5-10.9,14.7-23.5,18.5-36.7c3.8-13.3,4.8-27.2,3.3-40.9c-0.7-6.7-2-13.4-3.9-19.9
							c-1.9-6.5-4.3-12.8-7.3-18.9c-3-6.1-6.5-11.9-10.5-17.4l-3.2-4l-3.4-3.9c-1.2-1.2-2.4-2.5-3.6-3.7c-1.2-1.2-2.5-2.3-3.7-3.5
							c-11.7-10.5-25.1-18.7-39.1-25.2c-35.5-16.3-76.1-20.6-114.3-12.4c-8.6,1.8-17.1,4.2-25.3,7.2c-2.1,0.7-4.1,1.5-6.1,2.4
							c-2,0.8-4.1,1.6-6,2.6c-2,0.9-4,1.8-6,2.8l-5.8,3l-1.5,0.8l-1.4,0.8l-2.8,1.7l-5.5,3.3c-3.5,2.1-7.1,4.3-10.6,6.4
							c-3.6,2.1-7.2,4.2-10.8,6.3c-3.6,2.1-7.3,4.2-10.9,6.3c-7.6,4.3-16.6,8.7-25.6,11.6c-4.5,1.5-9,2.5-13.3,3.3
							c-2.1,0.5-4.2,0.7-6.3,1.1c-2,0.3-3.9,0.6-5.8,0.9c-3.5,0.4-4.8,1.7-4.9,2.8c0.1-1,4.9,0.1,10,0.9c2.5,0.3,5.2,0.7,7.3,0.9
							c1,0.1,2,0.2,2.7,0.2c0.7,0,1.2,0,1.4,0c8.9,0,18.6-2.4,27.5-5.7c4.3-1.5,8.4-3.2,12.5-4.9c4-1.7,7.9-3.5,11.8-5.3
							c3.9-1.9,7.8-3.8,11.8-5.8c3.9-2.1,8-4.4,12.1-6.8l6.2-3.6c2-1.2,4.2-2.3,6.2-3.4c1.1-0.5,2.1-1.1,3.1-1.6l3.2-1.5l3.2-1.5
							c1.1-0.5,2.2-0.9,3.3-1.4c8.7-3.6,17.7-6.5,26.9-8.6c18.3-4.2,37.4-5.3,56.3-3.2c16,1.8,31.9,5.8,46.8,11.9
							c7.5,3.1,14.7,6.7,21.5,10.8c6.9,4.1,13.3,8.9,19.1,14.2C451.2,194.6,460.6,212.5,464.9,231.3z"/>
					</g>
				</g>
			</g>
		</g>
		<g>
			<g>
				<g>
					<path class="st2" d="M232.5,202.1l-0.2,0.1C232.4,202.2,232.4,202.1,232.5,202.1z"/>
					<path class="st2" d="M265.7,186.8l0,0.2C265.7,186.9,265.7,186.8,265.7,186.8z"/>
					<path class="st2" d="M267.8,170.8l0.2-0.1C267.9,170.7,267.8,170.8,267.8,170.8z"/>
					<g>
						<path class="st2" d="M253.1,176.1c-1.6,0.7-3.2,1.4-4.8,2.1c-1.5,0.8-3.1,1.6-4.6,2.4c-3,1.7-6,3.4-8.9,5.3
							c-3,1.9-5.8,3.9-8.7,5.8c-2.9,1.9-5.9,3.8-9,5.4l-2.5,1.3l-2.4,1.1c-0.8,0.4-1.6,0.7-2.4,1.1l-2.5,0.9
							c-3.3,1.3-6.7,2.3-10,3.3c-6.9,2-13.9,2.3-20.9,1.5c-3.4-0.3-6.8-0.8-10.1-1.4c-0.8-0.2-1.7-0.4-2.5-0.6
							c-0.8-0.2-1.7-0.4-2.5-0.7c-0.8-0.3-1.6-0.6-2.4-0.9l-1.2-0.5l-1.1-0.6c-0.8-0.5-1.6-0.9-2.3-1.4c-0.8-0.5-1.5-1.1-2.2-1.6
							c-0.4-0.3-1.6-0.7-2.9-1.3c-1.2-0.6-2.6-1.1-3-1.2c-0.5-0.1,1.2,2.2,1.7,2.9c0.8,1.1,1.9,2.3,3.1,3.4c1.1,1.2,2.3,2.1,3.2,2.7
							c1.7,1.3,3,2,4.4,2.8c1.4,0.8,2.8,1.4,4.9,2.1c4.2,1.5,8.5,2.6,12.9,3.2c2.2,0.4,4.4,0.6,6.6,0.9l3.4,0.3l1.7,0.1
							c0.6,0,1.1,0,1.7,0.1c1.8,0.1,3.7,0.1,5.6-0.2c0.9-0.1,1.9-0.2,2.8-0.4c0.9-0.2,1.8-0.4,2.8-0.6l2.8-0.6l2.7-0.8
							c0.9-0.3,1.8-0.5,2.7-0.8c0.9-0.3,1.8-0.6,2.7-0.8c2-0.5,3.8-1.2,5.8-1.8l1.4-0.5c0.5-0.2,0.9-0.3,1.3-0.5l2.7-1.1
							c3.6-1.4,7.1-2.9,10.6-4.6c3.7-1.9,7.4-3.4,11-5c3.7-1.6,7.3-3.2,10.9-4.9c7.1-3.3,14.2-6.6,21.5-9.2
							c4.3-1.5,8.6-2.8,12.9-3.9c2.8-0.6,5.5-1.4,8.2-1.8l4.1-0.8l4.1-0.6c2.8-0.5,5.5-0.6,8.2-0.9l2.1-0.2c0.7-0.1,1.4,0,2.1,0
							l4.2,0l1.9,0c0.6,0,1.3,0.1,1.9,0.2c1.2,0.1,2.5,0.3,3.7,0.4c2.5,0.2,4.9,0.9,7.4,1.3c2.5,0.4,4.9,1.1,7.4,1.6
							c2.5,0.5,5,1,7.6,1.5c5.4,0.9,12.7,2.7,18.1,1c1.3-0.4,2-1.6,2.3-2.7c-0.5,1.8-5.5-3.6-5.9-3.9c-2.4-1.8-5.2-2.9-7.9-4.4
							c-2.6-1.4-5-2.7-7.6-4c-2.5-1.3-5.3-2.3-8.2-3.1c-12.6-3-26.1-3.3-39.3-1.4c-11.1,1.6-21.8,4.7-32.2,8.3
							c-1.6,0.5-3.1,1.1-4.7,1.6c-1.6,0.6-3.1,1.1-4.7,1.7C259.4,173.6,256.2,174.8,253.1,176.1z"/>
					</g>
				</g>
			</g>
		</g>
		<g>
			<g>
				<g>
					<path class="st2" d="M234.9,202.6l0.3-0.3C235.1,202.4,235,202.5,234.9,202.6z"/>
					<path class="st2" d="M189.9,236.8l0-0.2C189.9,236.7,189.9,236.8,189.9,236.8z"/>
					<path class="st2" d="M185.6,255l-0.3,0.2C185.4,255.1,185.5,255,185.6,255z"/>
					<g>
						<path class="st2" d="M207.5,243.2c9.3-6.1,17.8-13.3,25.4-20.9c7.9-7.9,14.8-16.1,23.3-22.7c4.5-3.4,9.1-6.6,14-9.2
							c4.8-2.7,9.9-4.8,15.2-6.7c5.3-1.9,10.8-3.1,16.4-3.9c2.8-0.4,5.7-0.7,8.5-1.1c2.8-0.2,5.7-0.5,8.6-0.7
							c2.8-0.1,5.5-0.3,8.3-0.5l8.2-0.2c5.6,0.2,11.2,0.5,16.8,1.3c3,0.4,6,0.9,9,1.4c1.5,0.2,9,0.1,10.5-0.2
							c0.7-0.1-3.6-1.5-4.8-1.8c-3.9-1.2-9.9-2.8-13-3.5c-6.3-1.2-9.3-1.8-15.8-2.5c-0.8-0.1-1.7-0.2-2.5-0.3l-2.6-0.1
							c-1.7-0.1-3.4-0.2-5.1-0.3c-1.7-0.1-3.4,0-5.1,0c-1.7,0-3.4,0-5.1,0.1c-3.4,0.2-6.8,0.3-10.1,0.5c-3.4,0.2-6.7,0.3-10.2,0.6
							c-5.6,0.4-11.3,1.6-16.9,3.4c-5.6,1.8-11,4.2-16.2,6.8c-1.4,0.6-2.8,1.4-4.2,2.2c-1.4,0.8-2.8,1.5-4.1,2.3
							c-2.6,1.7-5.3,3.3-7.8,5.1c-5.1,3.5-9.8,7.3-14.3,11.3c-4.8,4.3-9.6,8.2-14.5,12.1c-4.9,3.8-9.8,7.5-14.8,11.1
							c-2.4,1.8-4.9,3.5-7.4,5.2c-1.2,0.9-2.5,1.6-3.8,2.5c-1.3,0.8-2.5,1.7-3.8,2.4c-2.6,1.5-5.2,3.1-7.9,4.3l-4,2
							c-1.3,0.6-2.7,1.2-4,1.7c-6.4,2.5-13.1,4.4-20,5.8c-8.8,1.8-17.2,2.9-26,3c-8.7,0.1-17.5-0.7-26.1-2.4
							c-7.8-1.6-15.4-4.1-22.7-6.9c-7.3-2.9-14.5-6.4-22.1-9.7c-8-3.5-18.9-8.8-27-9.3c-2-0.1-3,0.8-3.5,1.9c0.8-1.7,8,6,8.6,6.5
							c3.4,2.9,7.4,5.4,11.1,8c7.3,5.1,13.7,10.3,22.5,14.2c2.3,1,4.6,2,7,2.9l7.2,2.5l7.3,2.1c2.5,0.6,4.9,1.2,7.4,1.7
							c10,2.1,20.2,3.1,30.6,3l3.3,0l3.3-0.2l3.3-0.2l1.7-0.1l1.6-0.2l6.6-0.9c2.1-0.4,4.2-0.8,6.4-1.2c8.5-1.8,16.8-4.2,25.1-7.4
							c2.5-1,5-2.1,7.3-3.2c1.2-0.6,2.4-1.1,3.6-1.7c1.2-0.6,2.4-1.2,3.6-1.8c1.2-0.6,2.4-1.3,3.5-1.9c1.2-0.6,2.3-1.3,3.5-2l3.5-2
							C205.3,244.6,206.4,243.9,207.5,243.2z"/>
					</g>
				</g>
			</g>
		</g>
	</g>
</g>
<g id="Layer_2" class="st3">
	<g class="st4">
		<g>
			<g>
				<g>
					<path class="st2" d="M401.6,167.5l-0.7-0.3C401.2,167.4,401.4,167.5,401.6,167.5z"/>
					<path class="st2" d="M468.2,247.9l-0.2-0.2C468.1,247.9,468.2,247.9,468.2,247.9z"/>
					<path class="st2" d="M479.9,274.1l-0.2,0.7C479.8,274.5,479.9,274.2,479.9,274.1z"/>
					<g>
						<path class="st2" d="M478.6,222.1c-3.8-11.5-10.3-21.9-18.2-30.5l-3-3.2c-1-1-2.1-2-3.1-3l-1.6-1.5l-1.6-1.4l-3.3-2.8
							c-4.5-3.5-9.1-6.9-13.9-9.8c-2.4-1.6-5-3-7.5-4.4c-1.2-0.7-2.5-1.4-3.8-2c-1.3-0.6-2.6-1.4-3.9-1.9
							c-5.2-2.5-10.5-4.6-15.9-6.6c-5.4-1.9-10.9-3.6-16.4-5.2c-5.5-1.5-11.1-2.9-16.7-4c-6-1.3-11.9-2.3-17.9-3.1c-3-0.4-6-0.7-9-1
							l-4.5-0.4c-1.5-0.1-3-0.2-4.5-0.3c-6-0.4-12.1-0.3-18.1-0.2c-6,0.2-12.1,0.6-18.1,1.4c-6,0.8-12,1.6-17.9,2.8
							c-5.9,1.1-11.8,2.6-17.6,4.1c-2.9,0.8-5.8,1.7-8.6,2.6c-2.9,0.9-5.7,2-8.5,3c-5.6,2.2-11.2,4.5-16.7,7.4
							c-2.7,1.3-5.2,2.7-7.7,4l-7.6,4.1c-5,2.7-10.1,5.3-15.2,7.7c-5.1,2.4-10.4,4.4-15.7,6.2c-1.3,0.4-2.7,0.8-4,1.2
							c-1.3,0.4-2.7,0.8-4.1,1l-4.1,0.9c-1.4,0.3-2.8,0.4-4.1,0.6c-2.9,0.5-5.9,0.6-8.9,0.9c-1.5,0.1-3,0-4.4,0.1
							c-1.5,0-3,0.1-4.4,0c-0.7,0-2.2,0-4,0c-0.5,0-0.9,0-1.4,0c-0.5,0-1,0-1.5-0.1c-1.1,0-2.2-0.1-3.3-0.1c-1.1,0-2.2,0-3.3-0.1
							c-1.1-0.1-2.1-0.2-3-0.2c-1.8-0.1-3.3-0.2-4.1-0.2c-0.7,0,1.1,0.5,3.4,1.2c1.1,0.3,2.4,0.6,3.5,0.9c1.1,0.3,2.1,0.4,2.7,0.6
							c1,0.2,2.1,0.4,3.2,0.6c1.1,0.2,2.3,0.4,3.5,0.5c1.2,0.1,2.4,0.3,3.7,0.4c1.2,0.1,2.5,0.3,3.7,0.3c1.2,0,2.5,0.1,3.7,0.1
							c1.2,0,2.4,0.1,3.5,0c2.2-0.1,4.2-0.1,5.8-0.3c1.6-0.2,3.2-0.4,4.6-0.5c0.7-0.1,1.4-0.2,2.1-0.3c0.7-0.1,1.3-0.2,2-0.3
							c1.3-0.2,2.5-0.5,3.8-0.7c1.2-0.2,2.4-0.6,3.6-0.8c1.2-0.3,2.4-0.6,3.6-0.9c1.2-0.4,2.4-0.7,3.7-1.1c0.6-0.2,1.3-0.4,2-0.6
							c0.7-0.2,1.3-0.5,2-0.7c1.4-0.5,2.9-1,4.5-1.6c6.5-2.5,12.8-5.4,19-8.4c3.1-1.5,6.1-3,9.2-4.6l4.5-2.3c1.5-0.8,3-1.5,4.5-2.2
							c12.1-5.7,24.8-9.7,37.9-12.2c10.6-2,21.5-3.6,32.6-4.4c11.1-0.8,22.2-0.9,33.1,0.2c5.9,0.5,11.7,1.4,17.5,2.4
							c5.8,1.1,11.5,2.3,17.2,3.8c5.7,1.5,11.3,3.2,16.8,5.2c5.5,2,11,4.1,16.3,6.5c5.7,2.6,11.1,5.5,16.3,8.8
							c5.3,3.3,10.3,6.9,15.1,10.8c1.2,1,2.4,1.9,3.5,3l3.4,3.1c2.1,2.1,4.3,4.3,6.2,6.5c4,4.5,7.5,9.3,10.4,14.4
							c2.9,5,5.1,10.4,6.6,15.9c0.5,1.4,0.7,2.8,1,4.2c0.1,0.7,0.3,1.4,0.4,2.1l0.3,2.1l0.3,2.1l0.2,2.2c0.1,1.5,0.3,3,0.3,4.5
							c0.3,6-0.1,11.9-1,17.7l-0.4,2.2l-0.2,1.1c-0.1,0.4-0.2,0.7-0.3,1.1l-1.1,4.3l-1.4,4.1c-0.1,0.3-0.2,0.7-0.3,1l-0.4,1l-0.8,2
							c-5.4,12.5-14.6,23.2-25.8,31.7c-1.8,1.3-3.5,2.7-5.4,3.9l-2.8,1.9c-0.9,0.6-1.8,1.3-2.8,1.8l-5.8,3.5c-2,1.1-4,2.1-6,3.2
							c-1,0.5-2,1.1-3,1.5l-3.1,1.4c-2.1,0.9-4.1,1.9-6.2,2.7l-6.3,2.5l-6.4,2.2l-1.6,0.5c-0.5,0.2-1.1,0.3-1.6,0.5l-3.3,0.9
							l-3.3,0.9c-1.1,0.3-2.2,0.5-3.3,0.8c-2.2,0.5-4.4,1-6.6,1.5l-6.7,1.2c-1.1,0.2-2.2,0.4-3.4,0.5l-3.4,0.4l-3.4,0.4
							c-1.1,0.1-2.3,0.2-3.4,0.3c-2.3,0.2-4.5,0.4-6.8,0.5l-6.8,0.2c-11.2,0.2-22.2-0.6-33.2-2c-2.7-0.4-5.5-0.7-8.2-1.2l-8.2-1.4
							l-1-0.2l-0.9-0.2c-0.6-0.1-1.1-0.2-1.7-0.4l-1.8-0.5l-1.9-0.6c-0.6-0.2-1.3-0.4-1.9-0.6l-0.2-0.1c-0.1,0,0,0-0.1,0l0,0
							c0,0,0,0,0,0c0,0,0,0,0,0c0,0,0,0,0,0l-0.4-0.4c-0.6-0.5-1.3-1.2-2-1.7c-1.6,4.7-3.2,9.4-4.7,14.1c11.2-0.2,22.7-1.4,34.1-4.3
							c0.6-0.1,1.2-0.3,1.8-0.4c0.6-0.2,1.2-0.4,1.8-0.5c1.2-0.4,2.4-0.7,3.7-1.1c1.2-0.4,2.5-0.9,3.8-1.3c1.3-0.5,2.6-0.9,3.8-1.5
							c1.3-0.6,2.5-1.1,3.8-1.7l1-0.4l0.9-0.5l1.9-1c2.5-1.3,4.9-2.9,7.3-4.4c9.3-6.5,16.5-15.2,19.6-22.7c1.5-3.7,1-5.3,0-5.9
							c0.4,0.2-0.2,1.4-1.3,3c-0.6,0.8-1.2,1.7-2.1,2.6c-0.8,0.9-1.8,1.8-2.7,2.7c-0.9,0.9-2,1.7-3,2.5c-1,0.8-1.9,1.5-2.8,2.1
							c-1.7,1.2-3,2-3.3,2.2c-7.2,4.9-15.5,9.2-24.1,11.8c-7.3,2.1-14.6,3.1-21.9,3.6c-7.3,0.5-14.7,0.6-22.6,0.5l-16.8-0.1
							l12.8,12.1c0.7,0.7,1.5,1.4,2.2,2.1c0.7,0.6,1.5,1.2,2.4,1.7c0.5,0.2,0.9,0.4,1.4,0.6l1.3,0.4c2.4,0.8,5,1.7,7.7,2.4l2.1,0.5
							c0.4,0.1,0.7,0.1,1,0.2l0.9,0.2l3.7,0.6c5,0.9,10,1.5,15,2.2c10.1,1.1,20.2,1.7,30.4,1.7c10.2-0.1,20.4-0.9,30.6-2.3
							c10.2-1.6,20.2-3.9,30.1-7l6.3-2.1c2.1-0.8,4.1-1.6,6.2-2.4l3.1-1.2c1-0.4,2-0.9,3-1.4l6-2.8l5.8-3.1c1-0.5,2-1,2.9-1.6
							l2.8-1.7c1.9-1.2,3.8-2.2,5.6-3.5l5.5-3.8c7.2-5.2,14.1-11.2,20.1-18.1c6-6.9,11.1-14.7,14.7-23.3c2.3-5.1,3.8-10.5,5.1-15.9
							c0.3-1.4,0.5-2.7,0.8-4.1c0.1-0.7,0.3-1.4,0.4-2.1l0.2-2.1c0.2-1.4,0.3-2.8,0.5-4.2l0.2-4.2l0.1-2.1l0-2.1l0-4.2
							c-0.1-1.4-0.1-2.8-0.2-4.1c-0.1-1.4-0.1-2.8-0.3-4.2l-0.5-4.3l-0.8-4.3c-0.2-1.4-0.7-2.8-1-4.2
							C479.5,224.8,479.1,223.4,478.6,222.1z"/>
					</g>
				</g>
			</g>
		</g>
		<g>
			<g>
				<g>
					<path class="st2" d="M140.1,238.1l-0.3-0.1C139.9,238.1,140,238.1,140.1,238.1z"/>
					<path class="st2" d="M187.4,255.7l-0.2,0.1C187.3,255.8,187.4,255.8,187.4,255.7z"/>
					<path class="st2" d="M202.8,246.8l0.3,0.1C203,246.9,202.9,246.8,202.8,246.8z"/>
					<g>
						<path class="st2" d="M184.1,238c-4.4-2.1-9-4.1-13.8-5.6c-2.4-0.8-4.7-1.6-7.1-2.3c-2.4-0.6-4.8-1.2-7.2-1.7
							c-1.2-0.3-2.5-0.6-3.7-0.8l-3.8-0.6c-2.5-0.4-5-0.8-7.5-1.1c-2.5-0.2-5-0.5-7.6-0.8c-1.3-0.1-2.5-0.3-3.8-0.4
							c-1.3-0.1-2.5-0.2-3.8-0.3c-2.7-0.2-5.4-0.6-8-0.8c-2.7-0.1-5.4-0.2-8-0.3c-2.7-0.2-5.4,0-8,0.1l-4,0.2
							c-1.3,0.1-2.7,0.1-4,0.3c-2.7,0.4-5.3,0.7-8,0.9c-2.6,0.2-5.3,0.6-8,1.1c-5.3,0.9-10.6,2.2-15.8,3.8c-5,1.6-9.8,3.8-14.4,6.3
							c-4.6,2.5-9.1,5.3-13.5,8.3c-2.4,1.6-4.7,3.3-6.9,5.4c-0.5,0.5-1.9,2.3-3,4.4c-0.5,1-1,2.2-1.2,3.1c-0.3,0.9-0.4,1.8-0.4,2.2
							c0,0.4,0.5-0.5,1.3-1.5c0.7-1,1.7-2,2.1-2.4c1.4-1.4,3.2-2.9,5-4.1c1.8-1.3,3.6-2.3,4.8-3c2.4-1.5,4.3-2.4,6.2-3.3
							c1.9-0.9,3.7-1.9,6.3-3.1c10.8-5,22.2-8.3,33.8-8.6l1.7,0l1.8,0c1.2,0,2.4-0.1,3.6-0.1c1.2-0.1,2.4-0.1,3.6-0.2
							c1.2-0.1,2.4-0.2,3.6-0.2c2.4,0,4.9-0.1,7.3-0.1c1.2,0,2.4-0.1,3.6,0c1.2,0.1,2.4,0.2,3.6,0.3c2.6,0.3,5.2,0.5,7.7,0.9
							l7.6,1.3c2.5,0.4,5,1.1,7.6,1.6c2.5,0.6,5.1,0.9,7.5,1.6c2.7,0.6,5.3,1.3,8,2l7.8,2.7l1.9,0.7c0.6,0.2,1.3,0.5,1.9,0.8
							l3.8,1.6l3.8,1.5c1.3,0.5,2.5,1.1,3.8,1.6c5.1,2.2,10.3,4.5,15.4,6.7c5.3,2.3,10.9,4.4,16.7,6.1l2.6,0.7l2.5,0.6
							c1.7,0.4,3.4,0.8,5,1.1c1.7,0.3,3.4,0.7,5.1,1c1.7,0.3,3.4,0.6,5.1,0.8c8.6,1.2,17.3,1.7,26.1,1.2c4.7-0.2,9.7-1.2,14.5-3.3
							c2.4-1.1,4.8-2.6,7-4.6c2.2-2,4.2-4.7,5.3-8c1-3,1.1-6.4,0.4-9.3c-0.7-3-2.1-5.5-3.7-7.7c-1.6-2.1-3.5-3.9-5.4-5.4
							c-2-1.4-4-2.7-6.1-3.6c-4.2-2-8.6-3.1-13.1-3.5l-1.7-0.1c-0.6,0-1.1,0-1.7,0c-0.6,0-1.1,0-1.7,0l-1.7,0.1
							c-0.5,0-1.2,0.1-1.6,0.1l-1.5,0.2c-1,0.2-2,0.3-3,0.5c-1.1,0.2-2.2,0.4-3.3,0.6c-1.1,0.2-2.2,0.5-3.4,0.8
							c-2.2,0.6-4.6,1.1-6.8,1.9c-2.2,0.7-4.3,1.5-6.2,2.4c-1.9,0.9-3.6,1.8-5.1,2.9c-1.4,1.1-1.6,2.4-1.4,3.6
							c-0.4-1.8,9,0.1,9.6,0.1c2,0.1,4.1,0,6.1-0.1c2.1-0.1,4.1-0.2,6.2-0.2c1,0,1.9,0,2.9,0c0.9,0.1,1.9,0.1,2.8,0.2
							c0.9,0.1,1.8,0.1,2.7,0.2c0.9,0.1,1.8,0.1,2.6,0.3c3.3,0.5,6.5,1.3,9.6,2.3c1.7,0.5,3.2,1.2,4.7,2c1.4,0.8,2.7,1.7,3.7,2.6
							c1,0.9,1.7,1.9,2,2.7c0.3,0.8,0.3,1.3,0.2,1.8c-0.1,0.5-0.4,1.1-1.1,1.8c-0.7,0.7-1.7,1.5-3.1,2.1c-1.3,0.6-2.8,1.2-4.5,1.5
							c-0.8,0.2-1.7,0.3-2.5,0.5l-1.3,0.1c-0.5,0-0.9,0.1-1.4,0.1c-6.9,0.4-14,0.1-21-0.6c-3.5-0.4-7-0.9-10.5-1.5
							c-1.7-0.3-3.5-0.7-5.2-1.1l-2.6-0.6l-2.4-0.7C200.3,246.1,192.5,242,184.1,238z"/>
					</g>
				</g>
			</g>
		</g>
		<g>
			<g>
				<g>
					<path class="st2" d="M227.2,203.1l-0.3,0C227,203.1,227.1,203.1,227.2,203.1z"/>
					<path class="st2" d="M269.6,201.8l-0.1,0.1C269.6,201.9,269.6,201.8,269.6,201.8z"/>
					<path class="st2" d="M280.8,189.1l0.3,0C281,189.1,280.9,189.1,280.8,189.1z"/>
					<g>
						<path class="st2" d="M261.7,186.5c-2.1-0.1-4.3-0.1-6.3-0.1c-2.1,0-4.2,0.2-6.3,0.3c-4.2,0.4-8.4,0.7-12.5,1.6
							c-2.1,0.4-4.3,0.8-6.3,1.4c-2.1,0.5-4.1,1-6.2,1.6l-3.1,0.8c-0.5,0.1-1.1,0.3-1.6,0.4l-1.5,0.4c-2,0.5-4,1-6.1,1.4
							c-4.4,0.9-8.7,1.6-13,2.5c-4.3,0.8-8.6,1.5-12.9,2.4c-2.2,0.4-4.3,0.7-6.5,1l-3.2,0.4l-1.6,0.2l-1.6,0.1
							c-4.2,0.3-8.4,0.2-12.7-0.3c-4.1-0.5-8.1-1-12.1-1.9c-4-0.9-7.9-2.2-11.5-4.2c-1-0.5-1.9-1.1-2.8-1.7
							c-0.9-0.6-1.8-1.2-2.7-1.9c-0.2-0.2-0.7-0.4-1.3-0.7c-0.6-0.3-1.3-0.7-2.1-1c-1.5-0.7-3-1.4-3.6-1.5c-0.5-0.1,1.6,2.5,2.2,3.2
							c2,2.4,5.5,5.6,7.6,7c4.1,2.8,6.2,3.9,11,5.7c10,3.6,20.5,4.7,31.1,5.1c2.1,0,4.2,0,6.4-0.1c2.1-0.2,4.3-0.3,6.4-0.6
							c2.1-0.3,4.3-0.6,6.4-0.9c2.1-0.3,4.2-0.5,6.3-0.8c4.5-0.5,9.1-0.9,13.6-1.5c2.2-0.3,4.5-0.6,6.7-0.9c1.9-0.2,4.3-0.5,6.5-0.8
							c2.3-0.3,4.7-0.7,7-0.8c2.3-0.1,4.6-0.3,6.9-0.4l7,0l3.5-0.1c1.2,0,2.3,0,3.5,0c4.6,0,9.2,0,13.6,0.3c2.3,0.1,4.4,0.5,6.6,0.7
							c2.1,0.4,4.3,0.7,6.4,1.3c1.2,0.3,2.5,0.6,3.6,1.1c1.2,0.4,2.4,0.8,3.5,1.3c1.1,0.5,2.1,0.9,2.9,1.4c0.2,0.1,0.4,0.2,0.6,0.4
							c0.2,0.1,0.3,0.2,0.5,0.3c0.2,0.1,0.2,0.2,0.3,0.3c0.1,0,0,0,0,0.1c0,0,0,0,0,0c0.2-0.2,0.4-0.3,0.6-0.5
							c0.4-0.3,0.8-0.7,1.2-0.9l0.2-0.1l0.1-0.1c0.1,0,0.1-0.1,0.2-0.1c0.1-0.1,0.3-0.2,0.5-0.2c0.1,0,0.2-0.1,0.3-0.1
							c0,0,0.1,0,0.1-0.1c0.1,0,0.2-0.1,0.3-0.1c0.3,0,0.1-0.1,0.2-0.3c0,0,0-0.1,0-0.1l0,0c0,0,0,0-0.1,0l-0.3,0.2l-0.3,0.2l0,0
							l0,0c-0.3,0.3,0.3-0.4,0.3-0.3l0,0l0,0l-0.1,0c0,0-0.1,0-0.1-0.1l0,0l-0.2-0.1c-0.2-0.2-0.3-0.3-0.5-0.5
							c-0.3-0.3-0.5-0.6-0.7-1l-0.1-0.3l-0.2-0.4c-0.1-0.2-0.3-0.5-0.4-0.7c0-0.1-0.1,0-0.2,0c-0.3,0.1-0.8,0.2-1.4,0.2
							c-1.2,0.1-2.7,0.1-4.3,0.1l-2.7-0.1l-2.6-0.1l-10.5-0.2l-5.5,0l-1.4,0l-1.4,0.1l-2.8,0.1l-2.5,0.1l-2.5,0.2l-2.5,0.2l-2.5,0.2
							c-1.7,0.1-3.3,0.4-5,0.6c-1.7,0.2-3.3,0.5-5,0.8c-6.6,1.2-13.4,3.2-19.7,6.9c-1.7,1-3.6,2.2-5.4,3.6c-0.5,0.4-0.9,0.7-1.4,1.1
							l-1.3,1.2c-0.9,0.8-1.6,1.8-2.4,2.7c-0.4,0.5-0.8,0.9-1.1,1.4c-0.3,0.5-0.6,1-0.9,1.5c-0.5,1-1.1,2-1.4,2.9
							c-0.3,1-0.6,1.9-0.9,2.8c-0.2,0.9-0.3,1.7-0.3,2.5c0.3,0.3,0.1,1.5,0.4,2.1c0.2,0.9,0.8,1.2,1.3,1.4c-0.2-0.1-0.3-0.3-0.2-0.7
							c0-0.2,0.1-0.3,0.2-0.5c0.1-0.2,0.2-0.3,0.3-0.5c0.1-0.2,0.2-0.2,0.4-0.3c0.2-0.2,0.3-0.3,0.5-0.5c0.3-0.3,0.7-0.7,1.1-1
							c1.7-1.3,3.6-2.4,3.9-2.5c0.7-0.5,1.4-1,2-1.5c0.7-0.5,1.4-0.9,2.1-1.4l1-0.7c0.3-0.2,0.7-0.4,1.1-0.6c0.7-0.4,1.5-0.7,2.2-1
							c0.7-0.3,1.5-0.5,2.2-0.8c0.7-0.2,1.5-0.4,2.2-0.6c1.5-0.3,3-0.6,4.5-0.9c3-0.5,5.9-1,9.1-1.6c6.6-1.4,13.5-2.4,20.4-2.7
							c6.7-0.5,13.9-0.1,21.5,0.1l2.4,0.1l2.2,0.1c1.7,0.1,3.5,0.1,5.5-0.1c1-0.1,2.1-0.2,3.2-0.4c0.6-0.1,1.2-0.3,1.8-0.4l1-0.3
							c0.3-0.1,0.7-0.2,1.1-0.4c0.4-0.2,0.8-0.4,1.1-0.5c0.4-0.2,0.8-0.5,1.2-0.8l0.6-0.4c0.2-0.2,0.4-0.4,0.7-0.6
							c0.4-0.4,0.8-0.8,1.2-1.3c0.4-0.5,0.7-1.1,1.1-1.7l0.2-0.4c-0.3,0.8,0.4-1.2,0.4-1l0,0l0,0l0,0l0-0.1l0.1-0.3l0.1-0.3l0.1-0.3
							l0.1-0.4c0-0.3,0.1-0.5,0.1-0.8c0.1-0.5,0.1-1.1,0.1-1.6c0-0.3,0-0.5,0-0.8l-0.1-0.5c-0.1-0.7-0.3-1.4-0.6-2
							c-0.2-0.5-0.5-1.1-0.8-1.6c-0.2-0.3-0.3-0.5-0.4-0.7l-0.4-0.6l-0.4-0.6c-0.1-0.2-0.3-0.3-0.4-0.4c-0.3-0.3-0.6-0.6-0.8-0.8
							l-0.8-0.7c-0.5-0.5-1-0.8-1.5-1.1c-1.9-1.3-3.7-2.1-5.4-2.9c-1.7-0.8-3.3-1.3-5-1.8c-0.8-0.3-1.7-0.6-2.5-0.8l-2.5-0.7
							C278.2,188,269.9,186.8,261.7,186.5z"/>
					</g>
				</g>
			</g>
		</g>
		<g>
			<g>
				<g>
					<path class="st2" d="M144.9,286.6l-0.3-0.1C144.7,286.5,144.8,286.6,144.9,286.6z"/>
					<path class="st2" d="M192.3,309l-0.2,0.1C192.2,309.1,192.3,309.1,192.3,309z"/>
					<path class="st2" d="M208.1,300.5l0.3,0.1C208.2,300.6,208.1,300.5,208.1,300.5z"/>
					<g>
						<path class="st2" d="M189,291.3c-8.6-4.2-17.5-8.1-26.6-11.4c-4.7-1.7-9.4-3.3-14-4.9c-4.6-1.7-9.2-3.5-13.8-5.6
							c-4.8-2.2-9.7-4.4-14.7-6.4l-3.8-1.4l-1.9-0.7l-1.9-0.6l-3.9-1.2c-1.3-0.4-2.6-0.7-3.9-1.1c-10.4-2.7-20.6-5.5-31.5-7
							c-5.2-0.7-10.6-0.8-15.8-0.6c-5.3,0.3-10.5,0.9-15.8,1.5c-1.4,0.1-2.8,0.4-4.2,0.6l-2.1,0.3c-0.7,0.1-1.4,0.3-2.1,0.4
							c-0.7,0.2-2.7,0.8-4.6,1.7c-1.9,0.9-3.8,1.9-4.3,2.3c-0.5,0.4,3.6,0,4.8-0.2c0.9-0.1,2-0.2,3.1-0.2c1.1-0.1,2.2-0.2,3.4-0.2
							c2.2-0.1,4.3-0.1,5.8-0.3c1.4,0,2.7-0.1,3.8-0.1c0.6,0,1.1,0,1.7-0.1c0.5,0,1.1,0,1.6,0c1.1,0,2.1,0,3.3-0.1
							c1.2,0,2.4,0,3.9,0c12,0.2,23.6,2.2,34.7,6.5c4.5,1.7,9.2,3.2,13.9,4.7c2.4,0.8,4.6,1.6,6.9,2.4c2.3,0.9,4.5,1.8,6.7,2.9
							c9.5,4.5,18.5,10.1,28.5,14.7c5.3,2.4,10.3,4.9,15.4,7.5c5.1,2.6,10.2,5.2,15.4,7.6c10.3,4.8,20.8,9.3,31.5,13.6
							c1.5,0.7,3.1,1.3,4.7,1.9l4.7,1.8l2.4,0.9l2.4,0.9c1.6,0.6,3.2,1.2,4.9,1.7c16.6,5.4,34.2,7.7,51.7,6.8
							c7.9-0.4,15.8-1,23.6-2.5c1.9-0.4,3.9-0.8,5.8-1.3c1.9-0.5,3.8-1,5.7-1.6c1.9-0.6,3.9-1.3,5.7-2c1.8-0.8,3.8-1.5,5.5-2.5
							c3.8-1.8,8.1-4.1,12-6.6c3.9-2.5,7.4-5.1,9.7-7.9c1.1-1.4,1-2.8,0.5-3.8c0.4,0.9-1.8,1.3-4.2,1.7c-2.4,0.3-5,0.5-5.3,0.5
							c-4,0.8-8,2.3-11.9,3.4c-1,0.3-1.9,0.5-2.8,0.8c-0.9,0.2-1.9,0.4-2.8,0.6c-1.8,0.4-3.7,0.7-5.5,1.1c-1.8,0.3-3.6,0.6-5.4,1
							c-1.9,0.3-3.7,0.7-5.7,1.1c-8.1,1.8-16.3,2.9-24.5,3.3c-8.2,0.4-16.5,0.2-24.8-1c-7-1-14-2.4-20.9-4.4
							c-3.4-1-6.8-2.1-10.2-3.3l-5.1-2c-1.7-0.6-3.4-1.3-5.1-2c-2-0.9-4.1-1.7-6.1-2.6c-2-0.9-4.1-1.9-6.1-2.8
							c-2-0.9-4.1-1.9-6.2-2.9C193.1,293.2,191.1,292.2,189,291.3z"/>
					</g>
				</g>
			</g>
		</g>
	</g>
</g>
<g id="Layer_3" class="st3">
	<g class="st4">
		<g>
			<g>
				<g>
					<path class="st2" d="M141.4,258.3l-0.3-0.1C141.2,258.3,141.3,258.3,141.4,258.3z"/>
					<path class="st2" d="M188.7,275.6l-0.1,0.1C188.6,275.7,188.7,275.7,188.7,275.6z"/>
					<path class="st2" d="M202.9,265.2l0.3,0C203.1,265.2,203,265.2,202.9,265.2z"/>
					<g>
						<path class="st2" d="M184.2,258.3c-8.7-3.2-17.5-6.1-26.4-8.4c-9.2-2.4-18.5-4.4-27.6-7.5c-2.4-0.8-4.8-1.6-7.2-2.4
							c-2.4-0.8-4.8-1.6-7.3-2.4c-2.5-0.8-4.9-1.5-7.4-2.2c-2.5-0.6-5-1.2-7.6-1.8l-1.9-0.4l-1.9-0.3c-1.3-0.2-2.6-0.5-3.9-0.7
							c-1.3-0.2-2.6-0.5-3.8-0.7c-1.3-0.2-2.5-0.4-3.8-0.6c-5.1-0.7-10.3-1.3-15.6-1.5c-5.1-0.2-10.2,0.3-15.3,1.1
							c-5,0.9-10,2.1-15,3.4c-1.3,0.4-2.6,0.7-4,1.1c-1.3,0.4-2.6,0.9-3.9,1.3c-0.6,0.2-2.4,1.3-4.1,2.4c-1.7,1.2-3.3,2.4-3.8,2.9
							c-0.4,0.4,3.5-0.6,4.5-0.8c3.5-0.8,8.8-1.9,11.5-2.4c1.3-0.3,2.5-0.5,3.6-0.6c0.5-0.1,1.1-0.2,1.6-0.3c0.5-0.1,1-0.1,1.5-0.2
							c2-0.3,4-0.6,6.8-0.9c11.4-1.2,22.7-0.2,33.7,2.9c8.7,2.7,18.1,4.5,26.9,8c9.6,3.7,18.9,8.2,28.6,11.6
							c5.2,1.8,10.3,3.9,15.4,5.9c5.1,2,10.3,4.1,15.5,5.9c5.2,1.8,10.3,3.5,15.5,5.3c1.2,0.5,2.7,0.8,4.1,1.3l4.1,1.2
							c2.8,0.7,5.6,1.3,8.5,2l5,0.8c0.8,0.1,1.7,0.3,2.5,0.4l2.5,0.2l5.1,0.5l5.1,0.1c1.1,0,2.2,0.1,3.2,0l3.2-0.2
							c2.2-0.2,4.3-0.3,6.5-0.7c2.1-0.4,4.3-0.7,6.4-1.2l6.3-1.7c4.2-1.2,8.3-2.8,12.4-4.9c4.1-2.1,8.1-4.8,11.6-8.6
							c0.8-0.8,1.5-1.8,2.3-2.8c0.7-1,1.3-2.1,2-3.1l0.8-1.7l0.4-0.9l0.3-0.9l0.6-1.8c0.2-0.6,0.3-1.2,0.4-1.9
							c0.5-2.5,0.5-5,0.4-7.4c-0.1-1.2-0.3-2.3-0.5-3.5c-0.3-1.2-0.6-2.4-1.1-3.6c-1.7-4.7-4.9-8.9-8.5-11.8c-3.6-3-7.6-5-11.7-6.4
							c-4.3-1.5-9.3-2.6-14.1-2.9c-1.2-0.1-2.4-0.1-3.5-0.1c-1.2,0-2.3,0.1-3.4,0.2c-1.1,0.2-2.2,0.3-3.2,0.6
							c-1,0.3-1.8,0.6-2.6,0.9c-1.6,0.7-2.1,2-2.2,3.1c0-0.9,2.1-0.4,4.3,0.5c2.2,0.9,4.4,2,4.7,2.2c3.6,1.4,7.4,2.6,10.9,4.3
							c6.6,3.3,11.4,7.8,14.2,12.2c0.8,1.2,1.2,2.4,1.6,3.7c0.1,0.3,0.2,0.6,0.2,1l0.1,1.1c0.1,0.4,0.1,0.7,0.1,1c0,0.3,0,0.7,0,1
							c-0.1,1.3-0.3,2.4-0.7,3.6c-0.5,1.1-1.1,2.2-2,3.2c-1.7,2.1-4.5,4.1-7.6,5.7c-3.1,1.6-6.7,3-10.4,4.1l-4.8,1.3
							c-0.8,0.3-1.6,0.4-2.4,0.5l-2.4,0.4l-2.4,0.4c-0.8,0.1-1.6,0.2-2.4,0.3c-1.6,0.1-3.3,0.3-4.9,0.4c-6.6,0.2-13.2-0.3-19.7-1.6
							c-1.9-0.5-3.9-1-5.9-1.5c-1-0.2-1.9-0.6-2.9-0.9c-1-0.3-1.9-0.7-2.9-1l-1.5-0.5c-0.5-0.2-1-0.4-1.5-0.6l-3.1-1.2
							C188.3,259.9,186.2,259.1,184.2,258.3z"/>
					</g>
				</g>
			</g>
		</g>
		<g>
			<g>
				<g>
					<path class="st2" d="M133.5,284.3l-0.3-0.2C133.4,284.2,133.4,284.3,133.5,284.3z"/>
					<path class="st2" d="M176.6,307.8l-0.2,0.1C176.5,307.9,176.6,307.8,176.6,307.8z"/>
					<path class="st2" d="M191.8,299.4l0.3,0.1C192,299.4,191.9,299.4,191.8,299.4z"/>
					<g>
						<path class="st2" d="M174.6,290.2c-7.8-4.3-15.8-8.3-23.9-11.8c-8.4-3.6-17-7-25.2-11.4c-4.3-2.3-8.6-4.7-13-7
							c-4.4-2.3-8.9-4.4-13.6-6.3c-9.4-3.7-18.6-7.2-28.4-9.9c-9.5-2.5-19.4-2.7-29-3.5c-2.6-0.3-5.2-0.5-7.8-0.6
							c-0.3,0-1,0-1.8,0.1c-0.8,0.1-1.8,0.3-2.7,0.4c-1.9,0.3-3.8,0.8-4.4,1c-0.5,0.2,3.2,1,4.3,1.2c0.9,0.2,1.8,0.3,2.8,0.5
							c1,0.2,2,0.4,3.1,0.6c2,0.4,4,0.7,5.3,1c5.3,0.9,7.7,1.3,13.1,2.2c1.4,0.2,2.8,0.5,4.1,0.7c1.4,0.3,2.7,0.6,4.1,0.9
							c1.4,0.3,2.7,0.6,4,1c1.3,0.4,2.7,0.7,4,1.1c5.2,1.6,10.3,3.7,15.2,6.3c7.9,4.2,16.6,7.5,24.3,12.3c4.2,2.5,8.4,5.4,12.6,8
							c4.2,2.7,8.5,5.3,12.8,7.7c2.3,1.3,4.6,2.6,6.9,4l6.9,4.1c4.6,2.7,9.3,5.4,14,8l7,3.7c2.4,1.2,4.8,2.4,7.3,3.5
							c4.9,2.3,9.8,4.5,14.8,6.5c5.9,2.4,11.8,4.7,18,6.6c7.8,2.4,15.8,4.2,24,4.9l3.1,0.3c1,0.1,2.1,0.1,3.1,0.2
							c2.1,0.1,4.1,0.1,6.1,0.1c4.1,0,8.3-0.2,12.6-0.7c1.9-0.3,3.9-0.6,5.8-1c1-0.2,2-0.4,2.9-0.7l1.5-0.4c0.5-0.1,1.1-0.3,1.5-0.5
							c1.9-0.6,3.4-1.2,4.8-1.6c1.4-0.4,2.8-0.7,3.7-0.8l0.3,0c0.1,0,0.2,0,0.2,0c0.1,0,0.2,0,0.2,0c0,0,0,0,0.1,0l0,0l0-0.2
							c0-0.1,0-0.3,0-0.3c0-0.2,0-0.4,0.1-0.6c0-0.2,0.1-0.4,0.1-0.6l0.1-0.3l0-0.1c0,0,0-0.1,0-0.1c-0.1-0.3-0.1-0.6-0.1-0.9
							c0-0.4,0.3-0.2,0.5-0.2l0.4,0l0.1,0l0,0l0,0c-0.8,1.7,1.1-2.3,0.9-1.9l0,0c0,0,0,0,0-0.1c0,0,0,0,0.1-0.1c0,0,0,0,0,0
							c0,0,0,0-0.1,0c-0.2,0.1-0.9,0.3-1.9,0.3c-0.2,0-0.6,0-0.8-0.1l-0.9-0.1c-0.3-0.1-0.7-0.1-1-0.2c-0.4-0.1-0.7-0.2-1.1-0.3
							c-0.3-0.1-0.2-0.1-0.2-0.1l0,0l0,0l-0.1,0.2c-0.3,0.6-1,1.8-1.8,2.8c-0.4,0.5-0.8,1-1.2,1.5l-0.3,0.3c0,0,0,0,0,0c0,0,0,0,0,0
							l-0.1,0.1c0,0-0.1,0.1-0.2,0.1l-0.3,0.2c-0.4,0.2-0.8,0.4-1.2,0.6c-0.8,0.4-1.7,0.9-2.5,1.4c-1.8,0.9-3.7,1.8-5.5,2.9
							c-1.8,1-3.7,2.1-5.3,3.3c-1.6,1.2-3.1,2.5-4.3,3.8c-1.1,1.3-1,2.7-0.5,3.7c-0.4-0.9,1.7-1.2,4-1.4c2.3-0.2,4.7-0.1,5-0.1
							c3.7-0.4,7.6-1.5,11.4-2.4c0.9-0.2,1.9-0.5,2.8-0.7c0.5-0.1,0.9-0.2,1.4-0.3l0.7-0.2l0.9-0.3c0.6-0.2,1.3-0.5,1.8-0.9
							c0.6-0.4,1.2-0.9,1.6-1.2c0.9-0.7,1.7-1.3,2.5-2.1c1.5-1.5,3-3,4.3-5.4c0.3-0.6,0.7-1.3,0.9-2.1c0.3-0.8,0.6-1.8,0.6-3.2
							l0-0.5l0-0.6l-0.1-0.6c0-0.2-0.1-0.5-0.1-0.7c-0.1-0.5-0.2-0.9-0.5-1.4c-0.2-0.5-0.5-1-0.8-1.4c-0.3-0.5-0.7-0.9-1.1-1.3
							c-0.2-0.2-0.4-0.4-0.6-0.6l-0.8-0.6l-0.6-0.4c-0.6-0.4-1.4-0.7-2.2-1l-0.6-0.2l-0.4-0.1l-0.8-0.2l-0.8-0.1l-0.7-0.1
							c-0.5,0-1-0.1-1.4-0.1c-1.7,0-3.2,0.2-4.5,0.5c-2.7,0.5-4.9,1.3-6.9,2.1l-2.8,1c-0.6,0.2-1.5,0.4-2.3,0.7
							c-1.6,0.4-3.3,0.8-5.1,1c-3.5,0.5-7.2,0.7-11,0.7c-1.9,0-3.9,0-5.8-0.1c-0.9-0.1-1.9-0.1-2.8-0.2l-2.8-0.3
							c-12.9-1.3-25.7-5-38.1-10.2C189.5,298.2,182.1,294.3,174.6,290.2z"/>
					</g>
				</g>
			</g>
		</g>
		<g>
			<g>
				<g>
					<path class="st2" d="M323.4,323.1l-0.2,0.1C323.3,323.2,323.4,323.2,323.4,323.1z"/>
					<path class="st2" d="M346,305.2l0.1,0.1C346,305.3,346,305.2,346,305.2z"/>
					<path class="st2" d="M347.7,289.1l0.3-0.1C347.9,289,347.8,289.1,347.7,289.1z"/>
					<g>
						<path class="st2" d="M332.5,297.1c-4.3,3.4-8.1,7-11.7,10.9c-3.6,4-7,8.2-11.4,11.3c-4.6,3.2-9.5,5.9-14.3,8.5
							c-4.9,2.6-10.2,3.9-15.7,4.3c-5.7,0.4-11.2,2.4-16.7,2.2c-1.4-0.1-2.9-0.2-4.3-0.4c-0.3-0.1-1.4,0.2-2.4,0.3
							c-1,0.2-2.1,0.4-2.5,0.6c-0.3,0.2,1.6,1.3,2.2,1.6c0.9,0.5,2.2,0.9,3.4,1.4c1.2,0.4,2.4,0.7,3.2,0.8c3.3,0.5,4.8,0.6,8.1,0.5
							c1.7-0.1,3.4-0.2,5.1-0.2c0.8,0,1.7-0.1,2.5-0.1l1.2,0l1.3-0.1c1.8-0.1,3.5-0.1,5.3-0.3l2.7-0.2c0.9-0.1,1.8-0.2,2.7-0.3
							c0.7-0.1,1.5-0.2,2.2-0.3c0.7-0.1,1.4-0.4,2.1-0.6c1.4-0.4,2.8-0.9,4.2-1.5c2.8-1.1,5.4-2.5,8-3.7c5.7-2.6,11.4-5.4,16.3-9.2
							c5.2-4,10.6-7.5,15.5-11.6l3.5-3l1.7-1.5l1-0.8l0.2-0.2l0.1-0.1l0.1-0.1c0.3-0.3,0.8-0.9,1.3-0.6c0.3,0.1,0.4,0.4,0.5,0.7
							c0,0.2,0.1,0.3,0.1,0.5c0,0.2,0,0,0,1c0,3.8-0.4,7.4-1.7,10.7c-1.3,3.4-3.3,6.6-6,9.5c-2.4,2.6-5.5,4.8-8.7,6.7
							c-3.2,2-6.6,3.9-9.9,6.2c-3.5,2.4-8.7,5.4-10.5,9.8c-0.4,1.1,0,2.4,0.5,3.4c-0.9-1.6,5.3-0.6,5.7-0.6c2.4-0.1,4.7-0.8,7.1-1.3
							c4.6-0.9,9.1-1.4,13.4-3.9c4.5-2.6,8.9-5.8,12.7-9.9c3.9-4.1,7.2-9,9.4-14.7c0.9-2.4,1.6-4.9,2-7.5c0.1-0.6,0.2-1.3,0.3-1.9
							l0.2-1.9c0.1-1.3,0.1-2.5,0.1-3.7c0-0.6,0-1.3-0.1-1.9l-0.1-1c0-0.5-0.1-1-0.2-1.5c-0.1-1-0.3-2-0.6-2.9
							c-0.3-0.9-0.5-1.9-0.9-2.8c-0.7-1.8-1.7-3.4-2.9-4.7l-1-0.9c-0.3-0.3-0.7-0.5-1.1-0.8c-0.4-0.3-0.8-0.5-1.1-0.7l-0.3-0.2
							l-0.1,0c0,0,0,0,0,0l0,0l-0.2-0.1l-0.6-0.3c-4-1.8-8.6-1.1-12.8,1.4c-1,0.6-2.1,1.3-3.1,2.1l-1.9,1.4L332.5,297.1z"/>
					</g>
				</g>
			</g>
		</g>
		<g>
			<g>
				<g>
					<path class="st2" d="M467.9,297.5l-0.3,0.4C467.7,297.8,467.8,297.7,467.9,297.5z"/>
					<path class="st2" d="M477.8,225.6l0.2,0.1C477.9,225.6,477.8,225.5,477.8,225.6z"/>
					<path class="st2" d="M459.2,217.4l-0.2-0.3C459.1,217.3,459.2,217.3,459.2,217.4z"/>
					<g>
						<path class="st2" d="M466.3,242.1c0.7,5.7,0.8,11.4,0.3,17.2c-0.5,5.7-1.6,11.4-3.2,17c-3.4,11.5-9.2,22.7-18,31.8
							c-4.6,4.9-9.8,9.2-15.2,13.2c-5.4,4-11.2,7.6-17.1,11c-11.9,6.8-24.7,11.3-38.1,14.5c-6.5,1.5-12.9,3-19.5,4
							c-6.6,1.1-13.2,1.7-19.9,1.6c-1.8,0-3.5-0.1-5.3-0.3c-1.8-0.1-3.5-0.3-5.3-0.4c-0.4,0-1.3,0-2.4,0c-1.1,0-2.4,0-3.7,0
							c-2.6,0-5.3,0-6.2,0.2c-0.8,0.1,4.2,1.6,5.7,2c4.6,1.3,12,2.5,15.8,2.8c7.7,0.6,11.3,0.6,19.3,0c8.2-0.7,16.2-2,24.1-3.6
							c7.9-1.7,15.8-3.8,23.6-6.2c12.8-3.9,25-11.2,36.2-18.9c6.1-4.2,11.9-8.8,17.3-14.1c5.4-5.3,10.2-11.2,14-17.8
							c4.1-7,7.6-14.5,10-22.4l0.9-3l0.7-3c0.5-2,0.8-4.1,1.1-6.1c0.5-4.1,0.9-8.3,0.7-12.4c-0.2-8.2-1.8-16.3-4.3-24
							c-2.5-7.7-6.2-15-10.5-21.8c-2.6-3.9-5.3-7.8-8.3-11.3l-1.1-1.3l-1.2-1.3l-2.4-2.6c-1.7-1.6-3.2-3.4-5-4.9
							c-2.1-2-4.4-3.9-6.6-5.8c-2.3-1.8-4.6-3.6-7.1-5.2c-4.8-3.3-9.8-6.2-14.8-8.9c-10.2-5.4-20.8-9.7-31.5-13.3
							c-4.9-1.6-9.8-3.2-14.7-4.6c-4.9-1.4-9.8-2.7-14.8-3.8c-10-2.2-20.2-3.7-30.8-3.7c-5.6,0-12.2,0.2-18.6,1.4
							c-1.6,0.2-3.2,0.7-4.7,1c-1.5,0.4-3,0.9-4.4,1.4c-1.4,0.6-2.8,1.1-4,1.7c-1.2,0.7-2.4,1.3-3.4,2c-2,1.4-2.2,2.9-1.8,4
							c-0.3-0.8,2.7-1.5,5.9-1.5c1.6-0.1,3.2,0.1,4.5,0.2c1.3,0.1,2.2,0.2,2.4,0.3c5.2,0.2,10.8,0.2,16.1,0.8
							c10.3,1.2,19.2,3.8,29.7,5.9c11,2.2,21.9,5,32.6,8.5c10.6,3.5,21.1,7.7,30.9,13c4.2,2.2,8.2,4.6,12.2,7.2
							c3.9,2.6,7.6,5.4,11.1,8.4c3.5,3,6.8,6.3,9.9,9.7c3,3.5,5.8,7.1,8.2,11C461.3,220.4,465,231.1,466.3,242.1z"/>
					</g>
				</g>
			</g>
		</g>
		<g>
			<g>
				<g>
					<path class="st2" d="M232.7,169.1l-0.2,0.1C232.6,169.2,232.7,169.2,232.7,169.1z"/>
					<path class="st2" d="M260,163.2l0,0.2C260.1,163.3,260.1,163.2,260,163.2z"/>
					<path class="st2" d="M264.8,148.5l0.2,0C264.9,148.5,264.9,148.5,264.8,148.5z"/>
					<g>
						<path class="st2" d="M252.1,149.4c-5.6,0.9-11.1,2.5-16.2,4.7c-5.3,2.4-10.2,5.3-15.5,7.3c-2.8,1.1-5.6,2.1-8.3,3.3
							c-2.8,1.1-5.4,2.4-8,3.8c-5.3,2.8-10.7,4.9-16.2,7.1c-5.3,2.1-10.1,5.4-15.5,7.2c-1.5,0.5-2.9,0.9-4.4,1.3
							c-0.7,0.2-3.9,2.5-4.4,3.1c-0.2,0.3,2.2,0.3,2.8,0.3c2.2,0,5.4-0.3,7-0.6c3.2-0.6,4.7-0.9,7.9-2c6.5-2.2,12.7-4.6,19.4-6
							c2.7-0.6,5.3-1.6,7.9-2.6c2.6-1.1,5.1-2.2,7.8-3c5.7-1.6,11.5-2.7,17.1-4.5c5.9-1.9,12.1-2.7,18-3.9
							c5.9-1.3,11.8-2.4,17.7-2.6c1.7-0.1,3.5,0,5.2,0c1.7,0,3.4,0.2,5.1,0.3c4.3,0.5,8.6,1,12.8,1.9c1,0.2,2.1,0.4,3.1,0.7l3.5,0.9
							c2.4,0.6,4.8,1.1,7.3,1.6c2.3,0.4,4.5,0.9,7.3,1.1c0.7,0.1,1.5,0.1,2.3,0.1c0.4,0,0.9,0,1.4-0.1l0.8-0.1l0.4-0.1l0.5-0.1
							c0.3-0.1,0.6-0.2,1-0.3c0.4-0.2,0.8-0.3,1.2-0.5c0.9-0.5,1.9-1.1,2.9-2.3l0.3-0.4l0.2-0.2l0.2-0.4c0.3-0.5,0.5-1,0.7-1.5
							c0.1-0.3,0.2-0.5,0.3-0.8c0.1-0.2,0.2-0.7,0.1-0.6l0-0.2l0-0.2l0,0l0.1-1l0-0.1l0-0.2l0-0.4c0-0.2,0-0.5-0.1-0.7
							c-0.1-0.5-0.2-1-0.3-1.5c-0.1-0.3-0.1-0.4-0.2-0.6l-0.2-0.5c-0.2-0.3-0.3-0.7-0.5-1l-0.3-0.5l-0.2-0.3c-0.3-0.4-0.6-0.8-1-1.2
							c-0.3-0.3-0.5-0.5-0.8-0.8l-0.4-0.4l-0.3-0.3l-0.7-0.5c-0.2-0.2-0.4-0.3-0.6-0.4l-0.6-0.4l-0.5-0.3c-1.4-0.7-2.6-1.2-3.8-1.7
							c-0.6-0.2-1.1-0.4-1.7-0.6l-0.7-0.2l-0.2-0.1l0,0l0,0l-0.2,0.4l-0.4,1.1l-0.4,1.1c-1,2.7,1.2-3.3,1-2.7l0,0l0,0l0,0l-0.2-0.1
							c-1-0.4-1.9-0.7-2.9-1c-2.1-0.7-4.5-1.4-7-2c-2.5-0.6-5-0.8-7.3-0.1c-1.1,0.3-1.9,1.4-2.4,2.4c0.7-1.7,3.7,3.8,4,4.1
							c1.6,1.9,3.6,3.3,5.5,4.8c1.8,1.5,3.5,3.1,5.3,4.5c0.9,0.6,1.9,1.3,2.9,2c0.8,0.6,1.6,1.1,2,1.4c0.1,0.1,0.2,0.2,0.2,0.2l0,0
							l0.3-0.4l0.3-0.4l0.3-0.4l0.2-0.4c0.2-0.2,0.3-0.5,0.5-0.7c0.2-0.2,0.4-0.4,0.6-0.6c0.1-0.2,0.3-0.3,0.4-0.4
							c0.2-0.1,0.3-0.3,0.5-0.4c0.2-0.1,0.2-0.2,0.3-0.2c0.1-0.1,0.2-0.1,0.4-0.2c0.1,0,0.1,0,0.1-0.1c0,0,0,0,0.1,0l0,0l0,0l0,0
							c0.6,0.2-0.9-0.3-0.7-0.3l0,0l0.1,0.3l0.1,0.1c0,0,0.1,0.1,0,0.1c0,0,0-0.1,0-0.1c0.1-0.1-0.1-0.1-0.2-0.2
							c0,0-0.1-0.1-0.2-0.2c-0.1-0.1-0.2-0.2-0.2-0.3c0-0.1-0.2-0.3-0.3-0.4c-0.1-0.2-0.2-0.3-0.2-0.5l-0.1-0.3l-0.1-0.3
							c-0.1-0.2-0.2-0.5-0.2-0.7c-0.1-0.2-0.1-0.5-0.2-0.7c-0.1-0.3-0.2-0.6-0.2-0.9l-0.1-0.5c0-0.1-0.1-0.4,0-0.3c0,0,0,0,0,0
							c0,0-0.1,0-0.1,0c-0.4,0-1.3-0.1-2.2-0.2c-0.9-0.1-2-0.3-3.1-0.5c-2.1-0.4-4.4-0.9-6.6-1.5l-3.4-0.9c-1.4-0.4-2.6-0.6-3.9-0.9
							c-8.9-1.9-18-2.5-26.9-2.2C263.1,148.3,257.6,148.7,252.1,149.4z"/>
					</g>
				</g>
			</g>
		</g>
		<g>
			<g>
				<g>
					<path class="st2" d="M284.1,196.2l-0.3-0.1C283.9,196.2,284,196.2,284.1,196.2z"/>
					<path class="st2" d="M326.3,217.4l-0.2,0.1C326.3,217.5,326.3,217.5,326.3,217.4z"/>
					<path class="st2" d="M343.6,213.8l0.3,0.2C343.8,213.9,343.7,213.8,343.6,213.8z"/>
					<g>
						<path class="st2" d="M326.7,199.6c-8.2-5.6-17.2-9.6-26.5-12.3c-9.6-2.7-19.2-4-28.9-5.6c-10.2-1.7-20.5-2.7-30.9-2.2
							c-10.4,0.6-20.4,1.2-30.6,2.5c-5,0.6-9.7,1.7-14.5,2.6c-2.4,0.5-4.8,0.8-7.1,1.2c-1.2,0.2-2.4,0.4-3.6,0.5
							c-1.2,0.1-2.4,0.2-3.6,0.2c-1.3,0.1-2.6,0.1-3.8,0.1c-1.3,0-2.6,0.1-3.8,0c-1.2,0-7.5,1.1-8.8,1.5c-0.6,0.2,3.2,1,4.2,1.2
							c1.7,0.3,3.9,0.7,6,1.1c2.1,0.2,4.1,0.4,5.5,0.4c5.6,0.2,8.2,0.1,13.9-0.4c5.8-0.6,11.6-1.4,17.3-1.9c2.8-0.3,5.7-0.3,8.5-0.5
							c2.8,0,5.7,0,8.5,0.2c2.3,0.2,4.6,0.2,6.9,0.2c2.3,0.1,4.7,0,7,0.1l3.5,0.1c1.2,0.1,2.3,0.1,3.5,0.2c2.3,0.1,4.6,0.4,6.9,0.7
							c2.5,0.3,4.9,0.9,7.3,1.3l3.6,0.8c1.2,0.3,2.4,0.5,3.6,0.9l3.6,0.9c1.2,0.3,2.4,0.7,3.6,1c2.4,0.6,4.7,1.4,7.1,2
							c5,1.5,9.9,3.4,14.6,5.6c2.4,1.1,4.7,2.3,7,3.5c1.2,0.6,2.3,1.3,3.4,1.9c1.1,0.6,2.3,1.2,3.4,1.9l3.3,1.9
							c1.1,0.6,2.1,1.4,3.2,2.1c1.1,0.7,2.1,1.4,3.2,2.2c1.1,0.8,2.1,1.5,3.1,2.2c2,1.5,4,3.1,5.8,4.7c1.8,1.6,3.4,3.3,4.6,5
							c0.1,0.2,0.2,0.3,0.4,0.5l0.2,0.3l0.1,0.1l0,0c0.1,0.1,0.1,0.2,0.2,0.3c0.1,0.2,0.1,0.3,0.2,0.5c0.1,0.4,0,0.7-0.2,1
							c-0.2,0.2-0.4,0.4-0.7,0.3c-0.3,0-0.6-0.2-0.8-0.3l-0.6-0.4c-0.7-0.5-1.5-0.9-2.4-1.5l-5-3.3l-5.2-3.2
							c-3.5-2.1-7.1-4.3-11-6.1c-3.8-2-7.7-3.6-11.7-5c-7.2-2.6-14.5-4.9-22.1-6.2c-7.6-1.3-15.6-1.8-23.7-0.2
							c-4.2,0.8-9.3,2.2-13.7,4.5c-2.2,1.1-4.3,2.6-6,4.1c-0.9,0.8-1.7,1.6-2.3,2.4c-0.7,0.8-1.3,1.6-1.8,2.5
							c-0.9,1.6-0.5,3,0.3,3.8c-0.6-0.7,1.4-1.8,3.7-2.4c1.1-0.3,2.3-0.5,3.3-0.7c0.9-0.1,1.6-0.2,1.8-0.2c3.7-0.8,7.5-1.7,11.3-1.9
							c3.6-0.2,7.1,0.1,10.4,0.6c3.4,0.5,6.7,1.1,10.4,1.6c3.8,0.5,7.6,1.2,11.4,2.2c3.8,0.9,7.5,2,11.1,3.4
							c3.7,1.3,7.3,2.8,10.7,4.5c3.5,1.7,6.9,3.7,10.3,5.8c2,1.3,4,2.5,6,3.8l6.3,4c0.4,0.3,1.6,1,2.6,1.5c0.5,0.3,1,0.5,1.6,0.8
							c0.5,0.3,1.1,0.5,1.6,0.7c2.1,0.8,4.3,1.3,6.3,1.3c2.1,0,4.1-0.4,5.9-1.4c0.9-0.5,1.8-1.1,2.5-1.7c0.7-0.7,1.4-1.5,2-2.3
							c1-1.6,1.9-3.4,2.4-5.3c0.5-1.9,0.6-4,0.3-6c-0.1-1-0.4-2.1-0.6-3.1c-0.4-1-0.7-2-1.2-3c-0.5-1-1-1.9-1.6-2.9
							c-0.4-0.6-0.8-1.3-1.2-1.8c-1.6-2.2-3.3-4.1-5-5.8c-1.7-1.8-3.5-3.4-5.3-4.9c-1.8-1.5-3.7-3-5.5-4.4
							C330.6,202.4,328.6,201,326.7,199.6z"/>
					</g>
				</g>
			</g>
		</g>
	</g>
</g>
<g id="Layer_4" class="st3">
	<g class="st4">
		<g>
			<g>
				<g>
					<path class="st2" d="M173.5,374.5l-0.3,0.1C173.4,374.5,173.5,374.5,173.5,374.5z"/>
					<path class="st2" d="M210.6,361.7l0,0.2C210.7,361.8,210.7,361.8,210.6,361.7z"/>
					<path class="st2" d="M213.2,345.6l0.2-0.1C213.3,345.6,213.2,345.6,213.2,345.6z"/>
					<g>
						<path class="st2" d="M198,351c-6.5,2.7-12.5,5.5-18.6,8.1c-6.2,2.7-12.8,5.4-19.8,6.5c-7.4,1.2-14.8,1.4-22.3,1.7
							c-7.5,0.3-14.8-0.6-22-2.6c-1.8-0.4-3.4-0.9-5.1-1.4l-2.6-0.7l-2.5-0.9l-2.5-0.9c-0.8-0.3-1.6-0.7-2.4-1.1
							c-0.8-0.4-1.6-0.8-2.4-1.2c-0.8-0.4-1.5-0.9-2.3-1.4c-0.8-0.5-1.6-1.1-2.3-1.7l-2.3-1.8c-0.7-0.5-5.2-2.6-6.2-2.9
							c-0.5-0.1,1.3,2.3,1.8,3c0.8,1.1,2,2.4,3.1,3.6c0.6,0.6,1.1,1.2,1.6,1.7c0.5,0.5,1,0.9,1.4,1.3c0.8,0.7,1.6,1.3,2.2,1.8
							c0.7,0.5,1.4,1,2,1.4c0.7,0.4,1.3,0.9,2.1,1.3c0.7,0.5,1.6,0.9,2.6,1.4c8.3,4.1,17,6.3,25.9,8.7c1.8,0.4,3.7,0.7,5.5,1
							c1.9,0.2,3.8,0.2,5.7,0.3c1.9,0.1,3.8,0,5.7,0c1.9,0,3.8,0,5.7,0c2,0,4.1,0,6.1,0l6.1-0.2c2-0.2,4.1-0.4,6.1-0.6
							c2-0.3,4-0.7,6.1-1.1c4.3-1,8.6-2,12.8-3.2c2.1-0.6,4.2-1.3,6.3-2c2-0.7,4.1-1.5,6-2.3c7.7-3.3,14.9-6.9,22.3-9.2l1.6-0.5
							l1.6-0.4l3.3-0.8c2.2-0.5,4.5-0.9,6.7-1.3c11.4-1.7,23-2.5,34.7-1.6c5.3,0.3,10.5,1.3,15.6,2.3c5.1,1.1,10.2,2.2,15.5,3.2
							c5.6,1,12.9,2.8,18.4,1.4c1.3-0.4,2.1-1.5,2.4-2.6c-0.6,1.8-5.5-3.8-6-4.1c-1.2-0.9-2.6-1.7-3.9-2.4c-1.4-0.7-2.8-1.4-4.2-2.1
							c-2.7-1.4-5.2-2.8-7.8-4.1c-2.7-1.2-5.4-2.4-8.5-3.1c-6.5-1.5-13-2.5-19.7-3c-6.6-0.6-13.3-0.5-20.1-0.2l-4.3,0.3
							c-1.4,0.1-2.9,0.3-4.3,0.4c-1.4,0.2-2.9,0.3-4.3,0.5l-4.3,0.7c-1.4,0.2-2.9,0.5-4.3,0.8l-4.3,0.9l-4.2,1.1l-2.1,0.6l-2.1,0.6
							C210.9,346,204.2,348.5,198,351z"/>
					</g>
				</g>
			</g>
		</g>
		<g>
			<g>
				<g>
					<path class="st2" d="M135.5,135.6l-0.3,0C135.3,135.7,135.4,135.7,135.5,135.6z"/>
					<path class="st2" d="M173,139.3l-0.1,0.1C172.9,139.4,172.9,139.3,173,139.3z"/>
					<path class="st2" d="M185.8,128.9l0.2,0.1C185.9,128.9,185.9,128.9,185.8,128.9z"/>
					<g>
						<path class="st2" d="M169,122.9c-2-0.4-4-0.9-6-1.2c-2-0.3-4.1-0.5-6.1-0.7c-2.1-0.1-4.1-0.1-6.1,0c-2,0.1-4,0.3-6,0.5
							c-8.2,1.1-15.9,3.4-23.7,5.2c-8.3,1.9-16.3,4.2-24,7.4c-7.7,3.3-15.3,5.9-23.1,8.9c-1.9,0.7-3.7,1.5-5.6,2.3
							c-1.8,0.8-3.6,1.8-5.4,2.7c-3.6,1.8-7.2,3.5-10.9,5c-2,0.8-4,1.5-6,2.3c-1,0.4-5.4,3.4-6.1,4.2c-0.3,0.4,2.9-0.1,3.8-0.3
							c2.9-0.5,7.2-1.4,9.4-2c2.2-0.6,3.8-1.1,5.4-1.6c1.6-0.5,3.2-1,5.3-1.9c2.2-0.8,4.4-1.7,6.6-2.5c2.2-0.7,4.4-1.5,6.6-2.2
							c2.2-0.7,4.4-1.4,6.7-2.1c2.2-0.7,4.5-1.1,6.8-1.6c3.7-0.8,7.4-2.1,11-3.2c3.6-1.2,7.3-2.4,11-3.2c8-1.7,16-2.4,23.9-3.3
							c2.1-0.3,4.2-0.3,6.3-0.4c2.1,0,4.2,0.1,6.2,0.2c2.1,0.1,4.1,0.4,6.1,0.6c2,0.3,4,0.6,6.1,0.9c8,1.3,16,3.6,23.6,7l3.3,1.5
							l3.3,1.7c2.2,1.1,4.4,2.4,6.6,3.6c5.6,3.2,11.3,6.3,17.3,9.3c5.9,3,12.2,5.7,18.6,8.1c1.5,0.5,2.9,1,4.4,1.6
							c1.5,0.5,3,0.9,4.4,1.4l2.2,0.7l2.2,0.6l4.5,1.2c6,1.3,12,2.4,18.1,2.6c6.5,0.2,15.1,0.4,20.4-2.5c1.3-0.7,1.7-2,1.7-3.1
							c-0.1,1.9-6.8-2.2-7.3-2.4c-3-1.2-6.3-1.8-9.3-2.8c-3-0.9-5.8-2-8.6-3c-1.4-0.5-2.8-1-4.2-1.5c-0.7-0.2-1.4-0.4-2.2-0.6
							c-0.7-0.2-1.5-0.4-2.2-0.6c-1.6-0.4-3.2-0.7-4.7-1.1c-1.6-0.4-3.1-0.8-4.7-1.2c-3-0.9-6.1-1.8-9.1-2.9
							c-6-2.1-11.9-4.7-17.8-7.8c-5-2.6-10.1-5.3-15.3-8.1l-3.9-2.1c-1.3-0.7-2.6-1.4-4-2.1l-4.1-2c-1.4-0.7-2.8-1.3-4.2-1.9
							C183.7,127.7,176.6,124.8,169,122.9z"/>
					</g>
				</g>
			</g>
		</g>
		<g>
			<g>
				<g>
					<path class="st2" d="M105.9,255l-0.2-0.1C105.7,255,105.8,255,105.9,255z"/>
					<path class="st2" d="M142.4,261.2l-0.1,0.2C142.4,261.3,142.4,261.3,142.4,261.2z"/>
					<path class="st2" d="M150.7,247.5l0.2,0C150.8,247.5,150.7,247.5,150.7,247.5z"/>
					<g>
						<path class="st2" d="M136.7,245.9c-6.3-0.9-12.7-1.5-19.1-2.1c-6.6-0.5-13.4-0.9-20-2.5c-3.5-0.8-7-1.9-10.4-2.8
							c-3.5-0.9-6.9-1.9-10.4-2.7c-3.5-0.9-6.9-1.9-10.3-3.1c-3.3-1.3-6.7-2.5-10-3.9c-1.6-0.7-3.2-1.3-4.8-1.9l-1.2-0.4l-1.2-0.5
							l-2.4-1c-3.2-1.2-6.2-2.9-9-4.9c-1.5-1.1-2.8-2.3-4.2-3.5c-0.2-0.2-0.9-0.5-1.7-0.9c-0.2-0.1-0.5-0.2-1-0.5
							c-0.2-0.1-0.4-0.3-0.7-0.4c-0.2-0.1-0.5-0.3-0.7-0.4c-0.1-0.1-0.2-0.1-0.4-0.2c-0.1-0.1-0.3-0.1-0.4-0.2
							c-0.1-0.1-0.3-0.1-0.4-0.2c-0.1-0.1-0.3-0.1-0.5-0.2c-0.2,0-0.3-0.1-0.4-0.1c-0.1,0-0.1,0-0.2,0c-0.1,0-0.2,0-0.3,0
							c-0.4,0-0.7-0.1-0.9,0c-0.3,0,0,0.1,0.5,0.3c0.1,0.1,0.3,0.1,0.4,0.2c0.1,0.1,0.2,0.2,0.3,0.2c0.2,0.2,0.5,0.4,0.6,0.6
							c0.7,0.8,1.2,1.6,1.4,1.9c0.2,0.4,0.5,0.8,0.8,1.2c1.4,1.8,3.4,4.2,4.7,5.4c1.5,1.4,2.7,2.3,3.9,3.2c1.2,0.9,2.4,1.8,4.2,2.8
							c1.9,1,3.7,2.2,5.6,3.1c1.9,1,3.8,1.9,5.7,2.9c1.9,0.9,3.8,1.8,5.7,2.8c1.9,0.9,3.8,2,5.7,2.9c6.1,3.3,13.2,4.8,19.6,7.2
							c3.5,1.3,7,2.7,10.5,3.9c1.8,0.6,3.6,1.2,5.3,1.8c1.8,0.6,3.6,1,5.5,1.5c3.9,1,7.9,1.9,11.8,2.9l3,0.7c1,0.2,2,0.4,3,0.6
							c2,0.4,4,0.7,6.1,1c8,1,16.1,1.3,24.3,1.2c2.4,0,4.8,0,7.2-0.2c2.4-0.1,4.8-0.3,7.2-0.5c6.1-0.6,12.2-1.9,18.1-3.8
							c5.9-1.9,11.7-4.7,16.9-7.6l2.9-1.5c1.1-0.6,2.1-1.2,3-1.8c0.9-0.7,1.7-1.4,2.3-2.2c0.3-0.4,0.6-0.9,0.9-1.3l0.7-1.5l0.2-0.6
							c0-0.2,0.1-0.4,0.2-0.6c0.1-0.4,0.2-0.8,0.3-1.2c0.1-0.4,0.1-0.8,0.1-1.2c0-0.4,0-0.8,0-1.2c-0.1-1.6-0.5-3.2-1.2-4.8
							c-0.7-1.5-1.7-3-2.9-4.4c-0.3-0.4-0.6-0.7-0.9-1c-0.3-0.3-0.7-0.7-1-1c-0.3-0.3-0.7-0.6-1.1-0.9l-0.9-0.7
							c-3.3-2.8-6.9-5.3-10.8-7.2c-1.4-0.6-2.9-1.4-4.5-2c-1.6-0.6-3.2-1.2-4.9-1.6c-0.8-0.2-1.7-0.4-2.5-0.6
							c-0.8-0.1-1.6-0.2-2.4-0.3c-1.6-0.1-3.1,0-4.5,0.4c-1.3,0.4-2,1.5-2.3,2.6c0.3-0.9,1.6,0,2.9,1.2c1.3,1.2,2.5,2.7,2.6,2.9
							c2.1,1.9,4.6,3.5,6.7,5.3c4.1,3.6,6.9,7.6,10.7,11.1c0.3,0.6,0.2,0.8,0,1.1c-0.1,0.1-0.3,0.1-0.4,0.1c0.3-0.2-1,0.5-1.8,1
							l-2.6,1.3c-3.5,1.7-6.8,3.2-10.5,4.4c-8.8,2.9-18.4,4.2-28.2,4.2C148.8,247.4,142.7,246.7,136.7,245.9z"/>
					</g>
				</g>
			</g>
		</g>
		<g>
			<g>
				<g>
					<path class="st2" d="M118,275.6l-0.3-0.1C117.8,275.6,117.9,275.7,118,275.6z"/>
					<path class="st2" d="M163.3,283.4l-0.1,0.1C163.3,283.5,163.3,283.4,163.3,283.4z"/>
					<path class="st2" d="M180.3,276.9l0.1,0.1l0.2,0.2c-0.1-0.1-0.1-0.2-0.2-0.2C180.4,276.9,180.4,276.9,180.3,276.9z"/>
					<g>
						<path class="st2" d="M157,267.2c-2.2-0.3-4.3-0.6-6.5-0.9c-2.2-0.3-4.2-0.4-6.3-0.6c-2.1-0.2-4.1-0.3-6.2-0.5l-3-0.2l-1.5-0.1
							l-1.5-0.1c-2.1-0.2-4.1-0.3-6.2-0.5c-2.1-0.3-4.2-0.5-6.2-0.8c-1-0.1-2.1-0.3-3.1-0.5l-3.1-0.6c-1-0.2-2.1-0.4-3.1-0.7
							c-1-0.3-2.1-0.6-3.1-0.9c-4.4-1.3-8.6-3-12.8-4.5c-2.1-0.8-4.3-1.5-6.4-2.3c-2.1-0.7-4.4-1.6-6.6-2.3
							c-8.9-2.9-17.4-5.9-25.4-9.9c-3.9-1.9-7.7-3.8-11.3-6.1c-3.6-2.3-6.7-5-9-8.4c-0.6-0.9-1.2-1.9-1.7-2.9c-0.5-1-1-2-1.5-3
							c-0.2-0.5-1.3-1.9-2.3-3.3c-1-1.4-2.1-2.8-2.5-3.2c-0.4-0.4,0.3,3.1,0.6,4.1c0.7,3.1,2.3,7.9,3.6,10.1c0.6,1.1,1.2,2.1,1.8,3
							c0.6,0.9,1.2,1.6,1.8,2.4c0.6,0.8,1.3,1.5,2,2.3c0.7,0.8,1.6,1.5,2.6,2.4c4.3,3.5,9,6.4,13.7,9c4.8,2.6,9.6,4.9,14.3,7.4
							c3.8,2,7.9,3.6,11.9,5.2l3,1.2l3.1,1.2c2.1,0.8,4.1,1.7,6.1,2.6c8.6,4.1,17.6,7.8,27.1,10.1l3.8,0.9l3.8,0.8l3.8,0.9
							c1.3,0.3,2.6,0.5,3.8,0.7c2.5,0.5,5.1,1,7.6,1.3c2.5,0.4,5.1,0.7,7.4,1l5.9,0.7l5.7,0.9c0.9,0.2,1.9,0.3,2.9,0.5l1.2,0.2
							c0.1,0,0.2,0,0.2,0c0.3,0.1,0.7,0.1,0.9,0.4c0.2,0.2,0.4,0.5,0.3,0.8c-0.1,0.2-0.2,0.4-0.4,0.6c-0.1,0.1-0.2,0.2-0.3,0.2
							l-0.4,0.3c-2,1.4-4.2,2.7-6.7,4l-1.2,0.6l-1.2,0.6l-2.3,1.2c-1.5,0.8-3.1,1.5-4.7,2.3l-2.4,1.1l-2.4,1.1
							c-1.6,0.7-3.2,1.4-4.9,2.1l-10.1,4.2l-5,2l-4.9,1.8c-1.5,0.5-3,0.9-4.4,1.3c-1.5,0.5-3,0.7-4.5,1.1c-1.5,0.3-3,0.7-4.5,0.9
							l-4.6,0.6c-6.2,0.7-12.4,1.2-18.8,2c-6.8,0.8-16.2,1.4-22,4.7c-1.4,0.8-1.8,2.1-1.7,3.3c-0.1-1.9,7.8,1.6,8.4,1.8
							c3.4,0.9,7.2,1.2,10.9,1.7c7,1,13.5,2.5,21.2,1.7l3-0.3c1-0.1,2-0.3,3-0.4l3-0.5c1-0.2,2-0.3,3-0.6l6-1.4
							c2-0.6,3.9-1.2,5.9-1.8c1.9-0.7,3.8-1.4,5.7-2c1.9-0.7,3.7-1.4,5.5-2.2c3.6-1.5,7.2-2.9,10.7-4.4c1.5-0.6,3.1-1.3,4.6-2
							c1.5-0.7,3.1-1.3,4.6-2.1c1.5-0.7,3.1-1.5,4.6-2.2l4.6-2.5c2.9-1.6,6-3.3,9.1-5.5l1.2-0.9c0.6-0.5,1.2-1,1.8-1.5
							c1.2-1,2.3-2.1,3.3-3.3c2-2.3,3.2-4.9,3.6-7.7c0.2-1.4,0.1-2.9-0.2-4.3c-0.4-1.4-1-2.8-1.8-4c-0.8-1.1-1.7-2-2.7-2.9
							c-1.1-0.9-2.3-1.6-3.6-2.3c-1.3-0.7-2.8-1.2-4.2-1.6l-1.1-0.3l-0.9-0.2l-1.3-0.3C163.7,268.5,160.3,267.8,157,267.2z"/>
					</g>
				</g>
			</g>
		</g>
		<g>
			<g>
				<g>
					<path class="st2" d="M151.8,333.8l-0.3,0.1C151.7,333.9,151.7,333.9,151.8,333.8z"/>
					<path class="st2" d="M189.5,324.8l0,0.2C189.5,324.9,189.5,324.9,189.5,324.8z"/>
					<path class="st2" d="M192.6,309l0.2-0.1C192.7,308.9,192.7,308.9,192.6,309z"/>
					<g>
						<path class="st2" d="M178,313c-3.3,0.9-6.5,1.8-9.8,2.8c-1.6,0.6-3.2,1-4.8,1.5c-1.6,0.5-3.2,1-4.8,1.6
							c-3.3,1.2-6.6,2.2-10,3.3c-1.7,0.5-3.4,1-5.1,1.4c-1.7,0.4-3.5,0.7-5.2,1l-2.8,0.4l-2.8,0.3l-5.6,0.6l-5.6,0.6
							c-1.8,0.1-3.7,0.4-5.5,0.5c-0.9,0.1-1.8,0.1-2.7,0.2c-0.9,0-1.8-0.1-2.7-0.1c-1.8,0-3.6-0.3-5.4-0.6c-0.9-0.1-1.8-0.2-2.7-0.4
							l-2.7-0.6c-0.9-0.2-1.8-0.4-2.7-0.6c-0.9-0.2-1.8-0.4-2.8-0.7c-3.6-0.8-7.2-1.5-11-2c-1.9-0.2-3.8-0.5-5.6-0.8
							c-1.9-0.2-3.7-0.5-5.6-0.9c-2-0.4-3.9-0.9-5.8-1.3c-1-0.2-5.9,0-6.9,0.3c-0.5,0.1,2.3,1.4,3,1.8c2.5,1.1,6.3,2.7,8.3,3.3
							c4,1.3,5.9,1.8,10,2.8c8.5,2.1,16.7,4.8,25.6,7.3c1.8,0.6,3.7,0.8,5.6,1.1c1,0.1,1.9,0.1,2.9,0.2l2.9,0
							c3.8-0.1,7.6-0.4,11.2-0.5c3.9-0.1,7.9-0.1,11.9-0.4c2-0.1,4-0.2,6-0.4c2-0.2,4-0.5,5.9-0.9c2.1-0.4,4.2-0.6,6.3-1l6.3-1.1
							c4.2-0.7,8.4-1.6,12.5-2.8c4.1-1.1,8-2.5,12-3.8l3-1l2.9-1.1l5.9-2.1c4.5-1.6,9-3.2,13.4-4.5c5.2-1.6,10.3-3,15.4-4l3.8-0.6
							l1-0.2l1-0.1c0.6-0.1,1.2-0.1,1.8-0.2c0.5,0,1.1-0.1,1.5-0.1c0.1,0,0.2,0,0.3,0l0.2,0c0.1,0,0.1,0,0.2,0
							c0.2,0,0.4,0.1,0.5,0.3c0,0,0.1,0.1,0.1,0.1l0.2,0.2c0.1,0.1,0.1,0.2,0.2,0.2c0.3,0.5,0.4,0.9,0.4,1c0,0.1,0,0.2-0.1,0.3
							c0,0.1-0.1,0.1-0.2,0.3c-0.3,0.6-1.5,1.9-3,3c-1.6,1.2-3.6,2.4-5.7,3.5c-1.1,0.6-2.2,1.2-3.3,1.9c-0.7,0.4-1.4,0.9-2.1,1.4
							c-0.4,0.2-0.7,0.5-1,0.7l-0.9,0.7c-2.8,2.1-5.4,4.6-7.5,7c-2.1,2.4-3.7,4.6-4.8,6.9c-0.5,1.1-0.2,2.5,0.3,3.5
							c-0.4-0.8,1.1-1.1,2.9-1.3c1.7-0.3,3.8-0.5,4-0.6c3-0.9,5.6-2.6,8.3-3.9c2.6-1.2,5.1-2,7.4-2.5c2.7-0.7,5.7-1.7,8.7-3.5
							c1.8-1.1,3.7-2.5,5.5-4.2c0.9-0.9,1.8-1.8,2.6-2.9c0.8-1.1,1.6-2.4,2.3-3.9c0.3-0.7,0.6-1.5,0.8-2.4c0.2-0.9,0.4-1.8,0.5-2.7
							c0.1-1.8,0-3.6-0.5-5.4c-0.5-1.7-1.2-3.2-2-4.5l-0.6-1l-0.6-0.9c-0.5-0.7-1.2-1.4-1.8-2.1c-1.8-1.8-4.1-3-6.6-3.6
							c-0.6-0.1-1.2-0.3-1.9-0.3c-0.6-0.1-1.3-0.1-1.7-0.1c-0.9,0-1.8,0-2.7,0c-1.7,0.1-3.2,0.3-4.5,0.5l-4.2,0.7
							c-5.8,1-11.4,2.6-16.7,4.3c-2.7,0.8-5.3,1.8-7.9,2.7l-7.7,2.7c-3.1,1.1-6.1,2-9.2,2.9C184.3,311.2,181.2,312,178,313z"/>
					</g>
				</g>
			</g>
		</g>
		<g>
			<g>
				<g>
					<path class="st2" d="M243,203.2L243,203.2C243,203.2,243,203.2,243,203.2z"/>
					<path class="st2" d="M233.6,208.8l0-0.2C233.6,208.7,233.6,208.7,233.6,208.8z"/>
					<path class="st2" d="M233.4,223.5l-0.1,0.1C233.3,223.5,233.3,223.5,233.4,223.5z"/>
					<g>
						<path class="st2" d="M242.3,221.3c2-0.8,4-1.8,6-3.3c1.9-1.5,3.9-3.4,5.3-6.1c0.7-1.4,1.3-3,1.6-4.7c0.3-1.7,0.1-3.4-0.2-4.9
							c-0.4-1.6-0.9-2.7-1.4-3.9l-0.8-1.7c-0.3-0.5-0.6-1-0.9-1.6c-1.3-2.1-2.7-4-4.3-5.6c-1.5-1.6-3.2-3-5-4.1
							c-3.5-2.3-6.6-4.6-9.4-7.2c-0.7-0.6-1.5-1.2-2.3-1.7c-0.8-0.5-1.7-1.1-2.5-1.6c-1.7-1.1-3.4-2-4.9-3.4
							c-0.8-0.7-1.6-1.4-2.4-2.2c-0.4-0.4-3.1-1-3.7-0.9c-0.3,0,0.6,1.7,0.8,2.1c0.8,1.4,1.9,3.4,2.6,4.2c1.3,1.8,2,2.6,3.6,4.1
							c1.6,1.6,3.2,3.1,4.8,4.8c1.6,1.7,3.2,3.4,4.5,5.3c2.2,3,5.4,4.8,7.1,7.5c0.9,1.4,1.5,2.9,1.8,4.2c0.3,1.2,0.3,2.5,0.3,2.6
							c0,0.1-0.1,0.2-0.2,0.4c-0.2,0.2-0.5,0.4-0.9,0.7c-0.9,0.6-2.2,1.3-3.6,2c-2.9,1.5-6.4,2.9-10.1,3.7c-2.2,0.4-4.4,0.7-6.4,0.7
							c-5.9,0.1-12,0.5-18,0.3c-1.4-0.1-2.7-0.2-4-0.4c-1.3-0.2-2.6-0.5-4-0.7l-2-0.3c-0.6-0.1-1.3-0.2-1.9-0.3
							c-1.3-0.2-2.6-0.3-3.9-0.3c-1.4-0.1-3-0.2-4.6,0c-1.6,0.1-3.1,0.6-4.6,1.8c-0.7,0.6-1.2,1.8-1.5,2.9c0.2-0.9,0.9-0.3,1.5,0.7
							c0.6,0.9,1.3,2.1,1.4,2.2c1.2,1.4,2.8,2.1,4.2,3.1c2.8,1.9,5.3,4,8.6,4.8c6.7,1.4,13.5,1.3,20.2,1.2l4.3-0.1l4.3-0.3
							c0.7,0,1.6-0.1,2.4-0.2c0.8-0.1,1.6-0.2,2.4-0.3c1.6-0.2,3.1-0.5,4.6-0.7C234.6,223.5,238.4,222.8,242.3,221.3z"/>
					</g>
				</g>
			</g>
		</g>
		<path class="st5" d="M212.4,248.1"/>
		<g>
			<g>
				<g>
					<path class="st2" d="M438.9,183.5l-0.5-0.4C438.7,183.3,438.8,183.4,438.9,183.5z"/>
					<path class="st2" d="M469.5,272.7l0-0.2C469.5,272.7,469.5,272.7,469.5,272.7z"/>
					<path class="st2" d="M468.9,295.5l-0.3,0.6C468.8,295.8,468.9,295.6,468.9,295.5z"/>
					<g>
						<path class="st2" d="M479,253.2c-0.1-2.5,0-4.9-0.3-7.4c-0.1-1.2-0.2-2.5-0.3-3.7l-0.5-3.7c-0.8-4.9-1.9-9.7-3.5-14.4
							l-0.6-1.8c-0.2-0.6-0.4-1.1-0.7-1.7l-1.3-3.4c-1-2.2-2-4.5-3.1-6.6c-2.2-4.4-4.8-8.5-7.6-12.4l-2.2-3l-2.4-2.9
							c-0.8-1-1.6-1.9-2.5-2.8c-0.8-0.9-1.6-1.9-2.5-2.7c-3.5-3.6-7.2-6.8-11-9.9c-7.8-6.1-16.3-11.2-25.4-15.3
							c-19.3-8.7-40.6-12.4-61.6-10.4c-21,2-41.1,8.8-58.6,20.8c-16.9,11.6-30,28.2-37.6,47.1c-2.1,5-3.7,10.2-4.9,15.6
							c-0.1,0.7-0.4,2-0.6,3.6c-0.2,1.7-0.5,3.7-0.6,5.7c-0.3,4-0.2,8.1-0.1,9.4c0,0.6,0.2-1.1,0.4-3.2c0.1-2.1,0.6-4.6,0.7-5.6
							c0.1-0.4,0.1-0.9,0.2-1.4c0.1-0.5,0.2-0.9,0.3-1.4c0.2-1,0.4-2,0.6-3c0.2-1,0.5-2.1,0.7-3.1c0.3-1,0.5-2.1,0.8-3.1
							c0.6-2.1,1.2-4.1,1.9-5.9c0.3-0.9,0.6-1.8,0.9-2.5c0.3-0.8,0.6-1.5,0.9-2.2c2.1-5.2,4.1-8.9,6.1-12.5c1.1-1.8,2.1-3.6,3.4-5.5
							c1.2-1.9,2.7-3.9,4.4-6.2c7.2-9.4,16-17.4,25.7-23.8c4.9-3.2,10-6,15.3-8.3c5.3-2.4,10.8-4.3,16.4-5.8
							c1.1-0.3,2.3-0.6,3.4-0.9c1.2-0.3,2.3-0.5,3.5-0.8c2.3-0.4,4.7-1,7-1.3c1.2-0.2,2.4-0.4,3.6-0.5l3.6-0.4l1.8-0.2l1.8-0.1
							l3.6-0.2c9.7-0.4,19.4,0.2,28.7,2.2c20.2,4.2,39,13.8,54.1,27.7c4.1,3.7,7.7,7.7,11.1,12c3.3,4.3,6.3,8.8,8.8,13.6
							c5,9.6,8.5,20,9.9,30.7c1.5,10.6,1,21.4-1.3,31.8c-1.2,5.2-2.9,10.3-4.9,15.2c-2.1,4.9-4.6,9.7-7.6,14.1
							c-6.8,10.5-15.8,19.6-26,26.8c-25.8,18.5-59.6,25.1-90.7,18.8c-14.1-2.8-27.3-8.4-39.1-16.2c-11.7-7.8-22-17.7-29.9-29.6
							c-4.2-6.3-8.3-14.2-11-22.3c-1.5-4-2.5-8.1-3.4-12c-0.4-1.9-0.8-3.8-1.1-5.6c-0.3-1.8-0.7-3.5-0.9-5.1
							c-0.5-3.1-1.1-4.1-1.7-4.1c0.2,0,0.3,1.1,0.3,2.7c0,0.8,0,1.8-0.1,2.8c0,1,0,2.1,0,3.3c0,0.6,0,1.1,0,1.7
							c0,0.6,0.1,1.1,0.1,1.6c0,1.1,0.1,2.1,0.1,3c0.1,1.8,0.3,3.1,0.3,3.4c0.5,3.8,1.4,7.7,2.5,11.7c1.2,3.9,2.6,7.8,4.3,11.5
							c3.2,7.2,7,13.8,11.5,19.9c4.6,6.2,10,11.9,16.6,17.2c3.4,2.8,7.1,5.3,10.9,7.7c3.8,2.3,7.7,4.5,11.7,6.3
							c8,3.8,16.5,6.7,25.1,8.6c17.3,3.8,35.4,4,52.9,0.4c14.8-3,29.1-8.8,41.8-17.2c6.3-4.2,12.3-8.9,17.7-14.3
							c5.4-5.4,10.2-11.3,14.4-17.7C473.1,291,479,272.2,479,253.2z"/>
					</g>
				</g>
			</g>
		</g>
	</g>
</g>
<g id="Layer_5" class="st3">
	<g class="st4">
		<g>
			<g>
				<g>
					<path class="st2" d="M167.4,171.7l-0.2-0.1C167.3,171.7,167.4,171.7,167.4,171.7z"/>
					<path class="st2" d="M194.6,194.1l-0.2,0.1C194.5,194.2,194.6,194.1,194.6,194.1z"/>
					<path class="st2" d="M210.1,189.7l0.2,0.1C210.2,189.7,210.2,189.7,210.1,189.7z"/>
					<g>
						<path class="st2" d="M199.8,178.4c-1.2-1.3-2.6-2.5-3.9-3.8c-0.7-0.6-1.3-1.2-2-1.8l-2.2-1.8l-2.2-1.7
							c-0.7-0.6-1.6-1.1-2.4-1.6l-2.4-1.5l-1.2-0.7l-1.3-0.7c-7-3.6-14.4-5.7-22-7.5c-4-1-8.1-1.6-12.2-1.7
							c-4.1-0.1-8.3,0.3-12.3,1.3c-8,2.2-15.5,5.8-21.8,11.1c-3,2.5-5.5,5.6-7.8,8.7c-2.2,3.1-4.3,6.3-6.5,9.3
							c-1.2,1.6-2.4,3.2-3.6,4.8c-0.6,0.8-2.3,5.5-2.4,6.5c-0.1,0.5,2.2-1.5,2.8-2.1c2-1.8,5-4.7,6.4-6.2c2.8-3.1,4.1-4.5,6.9-7.6
							c2.8-3.2,5.8-6.2,9.2-8.6c3.3-2.4,7-4.3,10.8-5.2c3.1-0.8,6.2-1.6,9.4-2.1c3.2-0.5,6.5-0.7,9.7-0.2c6.9,1,13.3,3.9,19.6,7
							c3.3,1.7,6.5,3.7,9.3,6.2l2.2,1.8c0.7,0.6,1.4,1.3,2.1,2l2.1,1.9l2.1,2c5.7,5.3,11.4,11.2,17.9,17c1.8,1.7,3.9,3.3,5.9,4.9
							c0.5,0.4,1,0.8,1.5,1.2l1.6,1.1c1.1,0.8,2.2,1.5,3.3,2.2c5.7,3.5,12.2,6,18.8,7.3c3.3,0.6,6.7,1,10,1.1
							c3.4,0.1,6.7-0.1,10-0.4c3-0.3,5.9-0.8,8.8-1.2c2.9-0.6,5.8-1.2,8.6-2c5.6-1.6,11.1-3.8,16.1-6.8c5.3-3.1,12.3-7.9,14.4-13.4
							c0.5-1.3,0-2.6-0.7-3.5c0.6,0.7-1,1.3-2.8,1.7c-1.8,0.4-3.8,0.5-4,0.6c-2.9,0.7-5.7,1.9-8.5,2.7c-5.5,1.6-10.7,2-16,3.6
							c-5.6,1.7-11.2,3-16.7,3.7c-5.5,0.7-11.1,0.6-16.4-0.5c-2.3-0.4-4.5-1.1-6.7-1.8c-2.2-0.8-4.3-1.7-6.3-2.8c-1-0.5-2-1.2-3-1.7
							c-1-0.7-2-1.3-2.9-2c-1.9-1.5-3.8-2.9-5.7-4.7C208.8,188.3,204.6,183.3,199.8,178.4z"/>
					</g>
				</g>
			</g>
		</g>
		<g>
			<g>
				<g>
					<path class="st2" d="M106.1,259.4l-0.2,0C106,259.4,106.1,259.4,106.1,259.4z"/>
					<path class="st2" d="M137.9,262.8l-0.1,0.1C137.9,262.9,137.9,262.8,137.9,262.8z"/>
					<path class="st2" d="M150.1,252.5l0.2,0.1C150.2,252.5,150.1,252.5,150.1,252.5z"/>
					<g>
						<path class="st2" d="M135.4,246.6c-1.8-0.4-3.5-0.9-5.3-1.2c-1.8-0.3-3.6-0.5-5.4-0.6c-1.8-0.1-3.6-0.1-5.5,0
							c-1.8,0.1-3.6,0.3-5.3,0.5c-7.2,1.1-13.9,3.4-20.7,5.1c-7.2,1.8-14.1,4.1-20.7,7.1c-3.3,1.6-6.6,3-9.9,4.4l-2.5,1l-2.5,1.1
							c-1.7,0.7-3.3,1.4-5,2.1c-1.6,0.7-3.2,1.4-4.8,2.2c-1.5,0.8-3.1,1.7-4.6,2.5c-3,1.7-6.1,3.3-9.3,4.7c-1.7,0.7-3.4,1.4-5.2,2.1
							c-0.9,0.4-4.5,3.3-5.1,4c-0.3,0.3,2.6-0.1,3.3-0.2c2.6-0.4,6.4-1.2,8.2-1.8c1.9-0.6,3.3-1,4.6-1.5c1.4-0.5,2.7-1,4.6-1.7
							c1.9-0.8,3.8-1.6,5.7-2.4c1.9-0.7,3.8-1.4,5.7-2.1c1.9-0.7,3.8-1.3,5.8-1.9c1.9-0.6,3.9-1.1,5.9-1.5c3.2-0.7,6.4-1.9,9.5-3.1
							c1.6-0.5,3.1-1.2,4.7-1.7c1.6-0.5,3.1-1,4.7-1.4c6.9-1.6,13.8-2.3,20.5-3.1c1.8-0.3,3.6-0.3,5.4-0.4c1.8,0,3.5,0.1,5.3,0.2
							c1.8,0.1,3.5,0.4,5.2,0.6c1.7,0.3,3.4,0.6,5.1,0.9c6.8,1.2,13.5,3.4,20,6.6c0.9,0.5,1.9,0.9,2.8,1.4l2.8,1.6
							c1.8,1,3.7,2.2,5.6,3.4c4.7,3,9.6,5.9,14.6,8.8c5.1,2.8,10.4,5.5,16,7.8c1.3,0.5,2.6,1,3.8,1.5c1.3,0.5,2.6,0.9,3.9,1.4
							c2.6,1,5.2,1.7,7.8,2.5c5.2,1.3,10.6,2.4,15.9,2.6c5.7,0.2,13.2,0.4,17.9-2.5c1.1-0.7,1.5-2,1.5-3.1c-0.1,1.9-5.9-2.2-6.3-2.4
							c-2.6-1.2-5.4-1.8-8.1-2.7c-2.6-0.9-5-2-7.4-2.9c-2.4-1.1-4.8-1.9-7.3-2.6c-2.7-0.7-5.3-1.5-8-2.2c-1.3-0.4-2.6-0.9-3.8-1.3
							c-0.6-0.2-1.3-0.4-1.9-0.7l-1.9-0.7c-5-2-10-4.5-15-7.3c-4.3-2.4-8.5-5-13-7.6l-3.3-1.9c-1.1-0.6-2.2-1.3-3.4-1.9l-3.5-1.9
							c-1.2-0.6-2.4-1.2-3.6-1.8C148.3,251.3,142.1,248.5,135.4,246.6z"/>
					</g>
				</g>
			</g>
		</g>
		<g>
			<g>
				<g>
					<path class="st2" d="M237.8,256.8l-0.2,0C237.7,256.8,237.8,256.8,237.8,256.8z"/>
					<path class="st2" d="M269.9,262.8l-0.1,0.2C269.9,262.9,269.9,262.9,269.9,262.8z"/>
					<path class="st2" d="M277.2,249.1l0.2,0C277.3,249,277.3,249.1,277.2,249.1z"/>
					<g>
						<path class="st2" d="M265.2,247.5c-2.7-0.3-5.4-0.8-8.2-1.1c-2.7-0.2-5.5-0.6-8.3-0.8c-5.8-0.4-11.7-0.8-17.4-2.3
							c-3-0.8-6-1.8-9-2.7c-3-0.9-6-1.8-9-2.6c-3-0.8-6-1.8-8.9-2.9c-2.8-1.2-5.7-2.4-8.5-3.7c-1.3-0.7-2.7-1.3-4.1-1.8
							c-1.4-0.6-2.7-1.2-4.1-1.8l-2-0.9c-0.7-0.3-1.3-0.7-1.9-1.1c-1.3-0.8-2.5-1.6-3.7-2.5c-1.2-1.1-2.3-2.2-3.4-3.3
							c-0.1-0.1-0.5-0.3-0.9-0.6c-0.5-0.3-0.7-0.3-1.3-0.7c-0.6-0.3-1.2-0.8-1.9-1.1c-0.2-0.1-0.3-0.2-0.6-0.3
							c-0.2-0.1-0.4-0.2-0.6-0.2c-0.1,0-0.5-0.1-0.8-0.2c-0.3,0-0.5,0-0.7,0c-0.3,0,0,0.1,0.5,0.3c0.1,0.1,0.3,0.1,0.5,0.2
							c0.1,0.1,0.2,0.2,0.3,0.2c0.2,0.2,0.4,0.4,0.6,0.6c0.6,0.8,0.9,1.5,1.1,1.8c0.3,0.6,0.5,1.1,0.9,1.6c0.4,0.6,0.8,1.1,1.2,1.7
							c0.8,1.1,1.6,2.2,2.2,2.8c1.2,1.3,2.2,2.2,3.2,3c1,0.8,2,1.8,3.6,2.7c1.6,1,3.2,2,4.8,3c1.6,0.9,3.2,1.8,4.9,2.7
							c1.6,0.9,3.3,1.7,4.9,2.7c1.6,0.9,3.2,1.9,4.8,2.8c2.6,1.5,5.4,2.8,8.3,3.8c2.9,1,5.8,2,8.6,3.1c3,1.2,6,2.6,9.1,3.8
							c1.5,0.6,3.1,1.2,4.6,1.8c1.6,0.5,3.2,1,4.8,1.4c3.4,0.9,6.9,1.9,10.3,2.8l2.6,0.7c0.9,0.2,1.8,0.4,2.6,0.6
							c1.8,0.4,3.5,0.7,5.3,1c7,1,14.2,1.2,21.5,1.1l3.2-0.1l3.2-0.2l1.6-0.1l1.6-0.2l3.2-0.3c5.4-0.6,10.9-2,16-4
							c1.3-0.5,2.6-1,3.8-1.6c0.6-0.3,1.3-0.6,1.9-0.9l1.8-1c1.2-0.6,2.4-1.3,3.6-2c0.6-0.3,1.2-0.7,1.7-1l2.2-1.3
							c1.6-1,3.4-1.9,4.6-3.2c1.3-1.1,2.1-2.6,2.8-4.3c0.5-1.4,0.7-2.9,0.7-4.4c0-1.5-0.4-3-0.9-4.4c-1.1-2.9-3.3-5.5-5.8-7.8
							c-2.9-2.7-6-5.2-9.5-7.1c-1.2-0.6-2.5-1.3-3.9-1.9c-1.4-0.6-2.8-1.2-4.3-1.6c-0.7-0.2-1.5-0.4-2.2-0.5
							c-0.7-0.1-1.5-0.2-2.2-0.2c-1.4-0.1-2.8,0-4.1,0.4c-1.2,0.4-1.9,1.5-2.2,2.6c0.3-0.9,1.4,0,2.5,1.2c1.1,1.2,2,2.7,2.1,2.8
							c1.7,1.9,3.8,3.4,5.5,5.1c3.3,3.4,5.4,7.2,8.5,10.4c0.2,0.3,0.1,0.5,0.1,0.7c0,0.2-0.1,0.3-0.2,0.4c-0.1,0.1-0.2,0.1-0.3,0.1
							l-0.1,0l-0.9,0.5c-0.7,0.4-1.4,0.8-2.1,1.2c-1.4,0.8-2.8,1.5-4.2,2.2c-1.4,0.6-2.8,1.3-4.3,1.8c-3.7,1.4-7.5,2.5-11.6,3.1
							c-4,0.7-8.1,1.1-12.3,1C275.6,248.9,270.4,248.3,265.2,247.5z"/>
					</g>
				</g>
			</g>
		</g>
		<g>
			<g>
				<g>
					<path class="st2" d="M247.3,276.2l-0.3-0.1C247.2,276.2,247.2,276.2,247.3,276.2z"/>
					<path class="st2" d="M286.9,283.7l-0.1,0.1C286.9,283.8,286.9,283.8,286.9,283.7z"/>
					<path class="st2" d="M302.8,276.9l0.3,0.3C303,277,302.9,277,302.8,276.9z"/>
					<g>
						<path class="st2" d="M282,267.7c-1.9-0.3-3.8-0.6-5.7-0.8c-1.9-0.2-3.7-0.4-5.5-0.6c-1.8-0.2-3.6-0.3-5.3-0.5
							c-1.8-0.1-3.5-0.2-5.2-0.4c-1.8-0.2-3.6-0.3-5.4-0.5c-1.8-0.2-3.6-0.5-5.4-0.7c-3.6-0.7-7.2-1.4-10.7-2.7
							c-0.9-0.3-1.9-0.6-2.8-1l-2.8-1.1l-5.5-2.2c-1.8-0.7-3.7-1.5-5.5-2.2c-1.9-0.8-3.8-1.5-5.8-2.2c-7.8-2.7-15-5.6-21.8-9.5
							c-6.4-3.7-13.1-7.2-16.7-13.7c-0.9-1.7-1.7-3.5-2.5-5.4c-0.4-0.8-3.3-5-4.1-5.8c-0.4-0.3,0,2.8,0.2,3.6c0.2,1.4,0.6,3.2,1,4.9
							c0.5,1.7,1,3.3,1.4,4.3c0.4,1.1,0.9,1.9,1.3,2.7c0.4,0.8,0.9,1.5,1.4,2.3c0.2,0.4,0.5,0.7,0.7,1.1c0.3,0.3,0.6,0.7,0.9,1.1
							c0.3,0.4,0.6,0.7,1,1.1c0.4,0.4,0.8,0.8,1.2,1.2c3.5,3.5,7.5,6.2,11.5,8.8c4,2.5,8.2,4.8,12.2,7.3c3.3,2,6.8,3.5,10.3,5
							c3.4,1.5,7.1,3,10.5,4.8c7.4,3.9,15.1,7.7,23.5,9.9c2.2,0.6,4.4,1.3,6.7,1.8c2.2,0.5,4.5,1.2,6.7,1.6c4.5,1,8.9,1.7,13.2,2.2
							l5.2,0.7l5,0.9c0.8,0.1,1.6,0.3,2.5,0.5c0.3,0.1,0.2,0,0.2,0l0.1,0l0.2,0c0.3,0.1,0.6,0.2,0.8,0.4c0.2,0.2,0.3,0.4,0.2,0.7
							c-0.1,0.4-0.4,0.7-0.8,1c0,0-0.1,0.1-0.1,0.1l-0.6,0.4c-0.4,0.3-0.9,0.6-1.3,0.9c-0.9,0.6-1.9,1.2-2.9,1.8l-2,1.2l-2,1.1
							l-1.9,1.1c-0.7,0.4-1.3,0.7-2,1c-2.7,1.4-5.5,2.7-8.3,4.1l-8.6,4c-2.9,1.3-5.7,2.6-8.5,3.7c-10.1,3.9-20.5,4.3-31.7,5.7
							c-5.9,0.8-14.1,1.3-19.2,4.7c-1.2,0.8-1.5,2.1-1.4,3.3c-0.1-1.9,6.9,1.6,7.4,1.8c3,0.9,6.3,1.2,9.5,1.7
							c6.2,1,11.9,2.5,18.7,1.7c7.1-0.8,14.3-2.3,21.1-5c1.6-0.7,3.3-1.3,4.9-2l4.7-2.1c3.1-1.4,6.2-2.8,9.3-4.2
							c5.3-2.5,10.8-5.3,16-8.5c1.2-0.7,2.5-1.6,3.9-2.5c0.7-0.5,1.3-0.9,2-1.4l1-0.8l0.5-0.4l0.6-0.5c1.1-0.9,2.1-1.8,3-2.8
							c0.9-1,1.8-2,2.5-3.1c1.4-2.2,2.2-4.6,2.3-7c0-1.1-0.1-2.3-0.4-3.5c-0.3-1.2-0.8-2.2-1.4-3.3l-1.1-1.4
							c-0.2-0.2-0.4-0.5-0.6-0.7l-0.7-0.6c-0.8-0.9-1.9-1.5-3-2.2l-1.8-0.9c-0.6-0.3-1.3-0.5-1.9-0.7c-0.6-0.3-1.3-0.4-2-0.6l-1-0.3
							l-0.6-0.2c-1.4-0.4-3-0.7-4.5-1.1l-2.3-0.5C283.5,268,282.7,267.8,282,267.7z"/>
					</g>
				</g>
			</g>
		</g>
		<g>
			<g>
				<g>
					<path class="st2" d="M290.8,328.3l-0.3,0.1C290.6,328.3,290.7,328.3,290.8,328.3z"/>
					<path class="st2" d="M327.4,316.1l0,0.2C327.4,316.2,327.4,316.1,327.4,316.1z"/>
					<path class="st2" d="M330,300.1l0.2-0.1C330.1,300,330.1,300,330,300.1z"/>
					<g>
						<path class="st2" d="M315,305.1l-4.8,1.9c-1.6,0.7-3.1,1.2-4.7,1.9c-3.1,1.2-6.2,2.7-9.3,4c-3.2,1.4-6.3,2.9-9.6,4.1
							c-1.6,0.6-3.3,1.2-4.9,1.8c-1.7,0.6-3.4,0.9-5.1,1.3c-1.8,0.4-3.7,0.7-5.5,1.1l-5.5,0.9c-1.8,0.3-3.7,0.6-5.5,0.8
							c-1.8,0.3-3.7,0.6-5.6,0.9c-3.7,0.6-7.3,0.9-10.8,0.7l-2.6-0.2l-2.7-0.5c-0.9-0.2-1.8-0.3-2.7-0.5c-0.9-0.2-1.8-0.4-2.7-0.6
							c-1.7-0.4-3.5-0.8-5.3-1.2l-5.5-1c-1.8-0.4-3.7-0.7-5.6-1c-1.9-0.4-3.7-0.7-5.6-1.1c-1.9-0.5-3.9-0.9-5.8-1.4
							c-1-0.2-5.9,0-6.9,0.2c-0.5,0.1,2.2,1.5,3,1.8c2.5,1.2,6.3,2.8,8.3,3.5c4,1.3,5.8,2,9.8,3.2c2.1,0.6,4.2,1.3,6.3,1.9
							c1.1,0.3,2.1,0.6,3.2,1l3.2,0.9c2.1,0.7,4.3,1.2,6.5,1.7c0.6,0.1,1.1,0.3,1.7,0.4l1.7,0.3c1.2,0.2,2.3,0.5,3.5,0.6
							c0.9,0.1,1.9,0.3,2.9,0.3c0.9,0,1.9,0,2.8,0c1.9,0,3.7-0.2,5.6-0.3c3.7-0.4,7.4-0.8,11-1.1c2-0.2,4-0.2,6-0.4l6-0.6l3-0.4
							c1-0.1,2-0.3,3-0.5c2-0.4,3.9-0.8,5.9-1.3c2.1-0.5,4.1-1.1,6.2-1.6c2.1-0.5,4.2-1,6.2-1.6c2-0.6,4.1-1.2,6.1-1.9
							c2-0.6,4.1-1.3,6-2.1c7.8-3.1,15-6.6,22.4-8.8l1.6-0.5l0.4-0.1l0.2-0.1l0.1,0l0.3-0.1l1.1-0.2c0.4,0,0.7-0.1,1,0
							c0.2,0,0.5,0.1,0.7,0.2c0.1,0.1,0.2,0.3,0.2,0.4c0,0.2-0.1,0.3-0.2,0.4c-0.2,0.3-0.4,0.5-0.6,0.7c-0.1,0.1-0.2,0.2-0.4,0.3
							l-0.2,0.2l-0.1,0.1l-0.5,0.3c-1.9,1.2-3.9,2.2-6,3.2c-4.5,2.2-9.7,3.8-14.6,5.2c-2.4,0.8-5,1.4-7.5,2.1
							c-1.2,0.4-2.5,0.8-3.7,1.1c-1.2,0.4-2.5,0.8-3.8,1.2c-2.7,0.9-6.1,1.8-9.3,3.3c-3.2,1.5-6.3,3.4-8.1,6
							c-0.9,1.2-0.6,2.5-0.1,3.5c-0.4-0.8,1.3-1.1,3.2-1.1c1.9,0.1,3.8,0.4,4,0.4c3,0.1,6-0.3,9-0.3c2.9,0,5.8,0.1,8.7,0
							c2.9-0.1,5.8-0.5,8.9-1.2c3.2-0.8,6.3-1.9,9.5-3c3-1.1,6.1-2.3,9.2-3.8c1.5-0.7,3.1-1.5,4.6-2.3c0.8-0.4,1.5-0.8,2.3-1.3
							l1.1-0.7l0.6-0.4l0.9-0.6c2.7-1.7,5-3.6,7.2-5.6c0.5-0.5,1-1,1.5-1.5c0.5-0.5,1-1,1.4-1.5l1.2-1.5c0.2-0.3,0.4-0.5,0.6-0.8
							l0.5-0.8l0.6-1c0.2-0.3,0.4-0.6,0.5-0.9l0.8-1.8c0.4-1.2,0.6-2.4,0.7-3.6c0-1.2-0.1-2.4-0.6-3.7c-0.4-1.3-1.2-2.6-2.1-3.5
							c-1.6-1.6-3.2-2.6-5.2-3.3c-1-0.3-2.2-0.6-3.4-0.7c-0.6-0.1-1.4,0-2.2,0.1l-2.3,0.2l-4.5,0.4c-1.5,0.2-2.9,0.6-4.4,0.9l-4.4,1
							l-2.6,0.8C327.7,300.5,321.2,302.8,315,305.1z"/>
					</g>
				</g>
			</g>
		</g>
		<g>
			<g>
				<g>
					<path class="st2" d="M435.2,322.6l-0.4,0.2C435,322.7,435.1,322.7,435.2,322.6z"/>
					<path class="st2" d="M480,277.6l0.1,0.2C480.1,277.6,480,277.6,480,277.6z"/>
					<path class="st2" d="M467.4,264.2l-0.1-0.2C467.3,264.1,467.4,264.1,467.4,264.2z"/>
					<g>
						<path class="st2" d="M461.7,282c-1.3,2-2.8,4-4.3,5.9c-1.6,1.9-3.2,4-4.9,5.7c-3.3,3.6-7,6.9-10.9,10.1
							c-4.1,3.2-8.5,6.2-13.2,8.8c-2.4,1.3-4.9,2.5-7.4,3.8c-2.5,1.1-5.1,2.2-7.7,3.3c-11.1,4.2-22.4,7.3-33.9,10.3
							c-2.9,0.7-5.8,1.4-8.7,2c-2.9,0.5-5.8,1-8.7,1.5c-5.9,0.9-11.8,1.7-17.7,2.3c-1.4,0.2-2.9,0.3-4.3,0.5
							c-1.4,0.1-2.9,0.2-4.3,0.3l-8.6,0.6c-5.8,0.4-11.5,0.8-17.4,0.8c-3.1,0-6.2-0.1-9.4-0.2c-1.5,0-9.2,1.1-10.7,1.6
							c-0.7,0.2,3.9,1,5.2,1.2c4.2,0.7,10.5,1.5,13.8,1.7c6.6,0.5,9.7,0.6,16.5,0.6c3.5,0,7,0,10.5-0.1c1.7,0,3.5,0,5.2-0.1
							c1.7-0.1,3.5-0.3,5.2-0.4l5.2-0.4l5.2-0.4c3.5-0.2,6.9-0.5,10.4-0.7c11.4-0.7,22.9-4,34.1-6.7c6.1-1.5,12.1-3.1,18.1-5
							c3-1,6-1.9,8.9-3.1c2.9-1.2,5.8-2.3,8.8-3.8c6.2-3,12.3-6.4,18.1-10.6c5.7-4.2,11-9.3,15.3-14.8c4.3-5.5,8.1-11.8,10.3-19.3
							c1.1-3.7,1.6-7.7,1.4-11.8c-0.2-4.1-1.2-8.2-2.9-11.8c-0.2-0.6-0.5-1-0.7-1.5l-0.7-1.4c-0.5-0.9-0.9-1.9-1.5-2.7l-1.6-2.7
							c-0.5-0.9-1.1-1.7-1.7-2.6c-2.3-3.4-4.9-6.5-7.5-9.6c-6.8-7.6-14.4-14-22.4-19.8c-8-5.8-16.2-10.8-24.8-15.7
							c-1.9-1.1-3.9-2.1-5.8-3.2c-1.9-1-3.8-2.2-5.8-3.1c-3.9-2-7.8-4.1-11.8-5.8c-7.9-3.8-16.1-6.9-24.7-9.3
							c-2.3-0.6-4.8-1.2-7.3-1.9c-2.6-0.7-5.2-1.1-7.9-1.6c-0.7-0.1-1.3-0.2-2-0.3l-1-0.1l-0.5-0.1l-0.4,0c-1-0.1-2.4-0.3-3.7-0.4
							c-2.6-0.2-5.2-0.1-7.6,0.5c-1.1,0.3-2,0.9-2.4,1.4c-0.4,0.6-0.5,1.2-0.5,1.8c-0.1-0.5,0.7-0.6,1.8-0.5
							c0.5,0.1,1.1,0.2,1.8,0.4c0.6,0.2,1.3,0.5,1.9,0.8c2.5,1.2,4.8,2.9,5.1,3.1c2,1.1,4.2,2.1,6.4,3c2.2,0.9,4.4,1.7,6.5,2.8
							c2,1,4,2,5.9,2.9c1.9,1,3.8,2.1,5.7,3.1c3.8,2,7.6,4.1,11.9,5.9c8.9,4,17.6,8.3,26,12.9c8.3,4.8,16.8,9.9,24.5,15.6
							c3.3,2.4,6.6,4.9,9.6,7.5c3.1,2.6,6.1,5.3,8.8,8.2c2.8,2.8,5.3,5.9,7.6,9l1.6,2.4c0.5,0.8,1,1.6,1.5,2.4
							c0.2,0.4,0.5,0.8,0.7,1.2l0.6,1.2l0.6,1.2l0.3,0.6l0.2,0.5l0.5,1.3c0.2,0.4,0.2,0.9,0.4,1.3c0.3,0.9,0.3,1.8,0.5,2.6
							c0.1,1.8,0.1,3.6-0.4,5.5l-0.1,0.7l-0.2,0.7c-0.1,0.5-0.3,1-0.4,1.4c-0.4,1-0.7,1.9-1.2,2.9C464,278.1,462.9,280,461.7,282z"
							/>
					</g>
				</g>
			</g>
		</g>
		<g>
			<g>
				<g>
					<path class="st2" d="M355.1,207.1L355.1,207.1C355.1,207.1,355.1,207.1,355.1,207.1z"/>
					<path class="st2" d="M348.5,212l0-0.2C348.5,211.9,348.5,211.9,348.5,212z"/>
					<path class="st2" d="M349.5,226.5l-0.1,0.1C349.5,226.5,349.5,226.5,349.5,226.5z"/>
					<g>
						<path class="st2" d="M357.7,224c1.8-0.9,3.7-2.1,5.4-3.8c1.7-1.7,3.3-3.9,4.2-6.8c0.9-2.9,0.6-6-0.3-8.6c-0.8-2.2-2-4.1-3-5.9
							c-1.1-1.9-2.3-3.5-3.7-5c-1.3-1.4-2.7-2.7-4.3-3.8c-3.1-2.1-5.6-4.3-8-6.7c-1.2-1.2-2.7-2.1-4.1-3.1c-1.4-1-3-1.9-4.2-3.2
							c-0.6-0.7-1.3-1.4-2-2.1c-0.3-0.3-2.8-0.9-3.3-0.8c-0.3,0,0.4,1.6,0.5,2c0.6,1.4,1.5,3.2,2,4.1c1.1,1.7,1.5,2.5,2.9,3.8
							c1.3,1.5,2.7,2.9,3.9,4.5c1.3,1.6,2.6,3.2,3.6,5c0.8,1.4,2,2.5,3,3.6c1.1,1.1,2.2,2.1,2.8,3.3c0.7,1.3,1.2,2.7,1.5,3.8
							c0,0.3,0.1,0.6,0.2,0.8c0,0.3,0,0.5,0.1,0.8c0,0.5,0.1,1,0.1,1.1c0,0.2,0,0.4-0.2,0.5c-0.1,0.1-0.3,0.2-0.5,0.4
							c-0.5,0.4-1.4,0.9-2.4,1.6c-2.1,1.4-5,2.9-8.2,3.6c-1.8,0.4-3.7,0.7-5.5,0.8l-0.8,0l-1,0l-2,0.1c-1.3,0.1-2.6,0.1-3.9,0.2
							c-1.3,0.1-2.6,0.1-3.9,0.1c-1.3,0-2.6,0-3.9,0c-4.8-0.2-9.2-2-13.8-2c-1.2-0.1-2.6-0.2-4,0c-1.4,0.2-2.7,0.6-4.1,1.8
							c-0.7,0.6-1.2,1.8-1.5,2.9c0.3-0.9,0.8-0.3,1.3,0.6c0.5,0.9,1.1,2.1,1.2,2.2c1,1.4,2.4,2.1,3.6,3c0.6,0.5,1.2,1,1.8,1.5
							c0.6,0.5,1.2,0.9,1.8,1.4c1.2,0.8,2.5,1.6,3.9,1.9c6,1.4,12,1.3,18,1.1c1.3,0,2.6-0.1,3.9-0.2l3.9-0.3c3-0.3,5.7-0.8,8.5-1.4
							C350.7,226.5,354.1,225.7,357.7,224z"/>
					</g>
				</g>
			</g>
		</g>
		<path class="st5" d="M250,250"/>
	</g>
</g>
</svg>
