<?xml version="1.0" encoding="utf-8"?>
<!-- Generator: Adobe Illustrator 16.0.0, SVG Export Plug-In . SVG Version: 6.00 Build 0)  -->
<!DOCTYPE svg PUBLIC "-//W3C//DTD SVG 1.1//EN" "http://www.w3.org/Graphics/SVG/1.1/DTD/svg11.dtd">
<svg version="1.1" xmlns="http://www.w3.org/2000/svg" xmlns:xlink="http://www.w3.org/1999/xlink" x="0px" y="0px" width="500px"
	 height="500px" viewBox="0 0 500 500" enable-background="new 0 0 500 500" xml:space="preserve">
<g id="Layer_1">
</g>
<g id="Layer_2">
	<g>
		<g>
			<g>
				<g>
					<path fill="#FFFFFF" d="M356.739,76.271l0.163,0.051C356.839,76.278,356.816,76.205,356.739,76.271z"/>
					<path fill="#FFFFFF" d="M335.031,63.673l0.255-0.3C335.175,63.458,335.094,63.568,335.031,63.673z"/>
					<path fill="#FFFFFF" d="M310.568,89.692l-0.174-0.061C310.456,89.692,310.514,89.702,310.568,89.692z"/>
					<g>
						<path fill="#FFFFFF" d="M320.053,97.813c4.657,3.155,10.07,5.223,15.979,5.912c6.136,0.696,12.554,0.033,18.027,1.739
							c5.803,1.822,11.662,3.813,18.003,3.804c6.334-0.025,12.211,1.047,18.572,1.502c3.062,0.242,6.133-0.579,9.102-1.385
							c1.488-0.458,2.962-0.861,4.445-1.178c1.479-0.379,2.972-0.619,4.539-0.612c1.662-0.052,3.385,0.051,5.113,0.021
							c0.434,0.022,1.457-0.881,2.4-1.877c0.944-1.007,1.788-2.146,1.966-2.744c0.146-0.531-2.834-1.98-3.591-2.379
							c-2.575-1.169-6.114-3.074-7.682-3.507c-3.26-1.078-4.633-1.506-7.586-1.756c-6.011-0.473-11.904-1.416-17.071-5.449
							c-2.066-1.662-4.263-2.251-6.534-2.864l-1.704-0.407c-0.567-0.149-1.133-0.327-1.693-0.506
							c-1.119-0.381-2.221-0.758-3.238-1.44c-4.458-2.764-8.23-6.74-12.884-8.732c-5.02-2.127-8.877-6.503-13.732-9.036
							c-4.806-2.514-9.891-4.802-14.422-8.024c-2.632-1.895-5.16-3.948-7.541-6.183c-6.009-5.624-12.802-10.347-18.627-16.169
							c-0.769-0.782-1.48-1.616-2.155-2.481c-0.334-0.435-0.65-0.883-0.964-1.333l-0.463-0.681l-0.115-0.171l-0.057-0.086
							l-0.135-0.166l-0.563-0.678l-0.649-0.755l-0.163-0.188c-0.039-0.019-0.029-0.091-0.107-0.065l-0.084-0.093l-0.335-0.37
							c-0.444-0.499-0.902-0.985-1.399-1.431c-0.5-0.458-0.952-0.907-1.521-1.36l-1.54-1.251c-0.774-0.639-1.497-1.223-2.228-1.788
							c-0.689-0.525-1.416-1.075-2.104-1.55c-2.78-1.94-5.601-3.48-8.781-4.394c-2.389-0.676-5.18-1.584-8.305-1.575
							c-3.115,0.019-6.719,0.934-10.027,4.045c-1.634,1.519-2.479,4.666-2.964,7.483c0.358-2.309,1.675-0.801,2.403,1.395
							c0.787,2.171,1.137,5,1.226,5.256c1.016,3.247,2.541,5.085,3.69,7.619c2.189,4.863,3.215,10.71,5.825,13.329
							c0.336,0.367,0.746,0.736,1.033,1.061l0.452,0.479c0.161,0.157,0.295,0.311,0.319,0.395l-0.089,0.115
							c-0.01,0.062-0.016,0.115-0.018,0.16l-0.035,0.264l-0.034,0.016c0.007,0.022-0.067-0.042,0.045,0.086l0.441,0.524l0.896,1.037
							c0.599,0.692,1.224,1.35,1.851,2.009c1.25,1.324,2.549,2.594,3.875,3.833c2.641,2.493,5.406,4.847,8.158,7.233
							c6.446,5.548,13.446,10.385,20.251,15.578C311.61,91.133,315.595,94.768,320.053,97.813z"/>
					</g>
				</g>
			</g>
		</g>
		<g>
			<g>
				<g>
					<path fill="#FFFFFF" d="M229.949,300.678l-0.067-0.758C229.889,300.263,229.844,300.489,229.949,300.678z"/>
					<path fill="#FFFFFF" d="M222.993,406.752l-0.314-0.302C222.75,406.664,222.871,406.734,222.993,406.752z"/>
					<path fill="#FFFFFF" d="M246.274,442.424l-0.332,0.72C246.135,442.817,246.226,442.599,246.274,442.424z"/>
					<g>
						<path fill="#FFFFFF" d="M263.929,393.109c0.508-2.847,0.934-5.699,1.274-8.557c0.178-1.429,0.339-2.858,0.464-4.289
							l0.198-2.146l0.111-2.046c0.285-5.455,0.494-10.911,0.625-16.355c0.025-1.36,0.075-2.723,0.068-4.08l-0.137-4.063
							c-0.101-2.707-0.221-5.409-0.359-8.106c-0.14-2.697-0.299-5.389-0.477-8.073c-0.181-2.685-0.565-5.338-0.868-7.997
							c-0.695-5.468-1.363-10.926-2.217-16.331c-0.927-5.376-1.853-10.752-2.781-16.137l-0.67-4.028l-0.748-4.006
							c-0.489-2.672-0.956-5.347-1.396-8.027c-0.438-2.68-0.849-5.366-1.223-8.062c-0.408-2.685-0.823-5.367-1.171-8.067
							c-0.771-5.708-1.401-11.444-2.218-17.104c-0.801-5.666-1.602-11.325-2.402-16.983c-1.728-11.255-3.594-22.507-5.843-33.629
							c-2.25-11.191-3.905-22.227-5.091-33.267c-1.139-11.033-1.657-22.05-1.695-33.16c0.098-10.648-0.078-21.395,0.246-32.23
							c0.389-10.843,1.123-21.728,3.106-32.57c1.039-5.785,2.351-11.511,3.478-17.318c0.275-1.433,0.338-5.834,0.21-10.269
							c-0.142-4.444-0.437-8.886-0.779-10.359c-0.306-1.335-3.612,6.942-4.5,9.229c-2.921,7.523-7.065,19.025-8.657,25.039
							c-1.586,6.092-2.775,10.554-3.73,15.108c-0.488,2.274-0.942,4.563-1.397,7.079c-0.418,2.526-0.827,5.281-1.269,8.477
							c-1.75,13.218-2.942,26.41-3.478,39.743c-0.532,13.298-0.419,26.534-0.614,39.892c-0.167,10.817,1.11,21.689,2.564,32.471
							c0.734,5.369,1.469,10.747,2.201,16.104c0.678,5.343,1.348,10.694,1.71,15.987c1.802,22.992,2.015,45.803,3.576,68.412
							c1.664,24.115-0.306,47.955-2.081,71.452c-0.904,11.037-2.629,22.005-5.621,32.345c-2.953,10.339-7.233,20.059-13.043,28.068
							c-6.803,9.341-15.508,16.066-25.636,19.36c-3.203,1.02-6.583,1.835-9.854,2.287c-3.331,0.474-6.817,0.649-10.364,0.525
							c-7.086-0.234-14.403-1.489-21.387-3.795c-3.491-1.144-6.924-2.494-10.203-4.104c-3.272-1.618-6.407-3.452-9.341-5.486
							c-5.899-4.043-10.826-9.03-14.407-14.452c-1.651-2.445-2.832-5.051-3.778-7.664c-0.204-0.663-0.486-1.303-0.639-1.975
							l-0.507-1.99c-0.221-1.348-0.531-2.667-0.595-4.025c-0.046-0.653-0.174-1.402-0.128-1.907
							c0.009-0.555-0.031-1.106,0.045-1.647c0.037-0.542,0.064-1.081,0.174-1.611l0.11-0.795l0.188-0.786
							c0.479-2.09,1.274-4.131,2.38-6.156c2.232-4.041,5.775-7.99,10.125-11.477c4.349-3.486,9.47-6.519,14.845-8.872
							c2.848-1.241,6.048-2.265,9.286-3.012c0.799-0.133,1.624-0.365,2.421-0.47l1.209-0.214l1.117-0.153
							c1.575-0.187,3.362-0.351,5.461-0.411c2.265-0.075,4.509-0.15,6.707-0.224c2.363-0.094,4.888-0.232,7.426-0.51
							c5.096-0.557,10.377-1.684,14.878-3.951c1.1-0.566,1.962-1.204,2.625-1.89c0.68-0.725,1.152-1.482,1.461-2.245
							c0.62-1.526,0.598-3.073,0.311-4.475c0.251,1.131-1.066,1.698-3.128,1.698c-2.063-0.004-4.769-0.678-7.315-1.688
							c-5.097-2.057-9.691-5.308-10.369-5.595c-3.954-1.876-8.164-3.508-12.831-4.713c-2.333-0.6-4.78-1.078-7.351-1.393
							c-2.523-0.289-5.057-0.466-7.582-0.521c-9.775-0.221-19.366,1.049-28.752,4.342c-4.682,1.668-9.306,3.868-13.765,6.792
							c-4.45,2.927-8.75,6.579-12.583,11.195c-3.968,4.873-7.472,10.438-9.942,16.723c-2.463,6.264-3.969,13.185-4.021,20.159
							l-0.003,2.611l0.162,2.595c0.092,1.801,0.353,3.27,0.566,4.869c0.121,0.786,0.212,1.577,0.368,2.357l0.498,2.334l0.521,2.332
							c0.202,0.769,0.434,1.528,0.655,2.291c1.768,6.109,4.347,11.938,7.519,17.281c6.363,10.728,14.99,19.362,24.384,26.198
							c9.433,6.853,19.759,11.92,30.576,15.477c2.289,0.792,4.633,1.411,6.965,2.065c2.362,0.561,4.712,1.153,7.113,1.573
							c4.778,0.915,9.639,1.53,14.581,1.755c4.938,0.233,9.935,0.19,14.996-0.367c5.027-0.525,10.234-1.502,15.095-2.886
							c4.906-1.438,9.773-3.191,14.428-5.478c4.645-2.283,9.116-4.939,13.286-7.967c4.145-3.053,8.002-6.419,11.548-10.01
							c3.538-3.601,6.701-7.444,9.612-11.395c6.935-9.474,12.303-19.776,16.439-30.332
							C259.033,414.867,261.988,404.018,263.929,393.109z"/>
					</g>
				</g>
			</g>
		</g>
	</g>
	<g>
		<g>
			<g>
				<g>
					<path fill="#FFFFFF" d="M191.734,302.878l-0.473,0.001C191.474,302.901,191.61,302.966,191.734,302.878z"/>
					<path fill="#FFFFFF" d="M260.945,309.904l-0.188,0.37C260.904,310.16,260.943,310.027,260.945,309.904z"/>
					<path fill="#FFFFFF" d="M280.135,276.765l0.422,0.002C280.359,276.729,280.232,276.737,280.135,276.765z"/>
					<g>
						<path fill="#FFFFFF" d="M251.399,271.581c-13.132-1.859-26.656-2.469-40.195-1.392c-3.498,0.313-6.96,0.621-10.452,1.076
							c-3.494,0.461-6.972,0.932-10.441,1.349c-3.487,0.503-6.968,0.982-10.448,1.331c-1.737,0.151-3.485,0.362-5.237,0.54
							c-1.75,0.171-3.503,0.306-5.262,0.396c-14.876,0.87-29.825,2.241-44.287,6.517c-14.539,4.253-28.39,8.274-42.451,13.2
							c-13.575,4.773-25.227,13.269-38.357,18.165c-3.509,1.3-7.079,2.392-10.612,3.622c-1.739,0.604-9.028,6.493-10.208,8.18
							c-0.539,0.762,5.31,0.568,6.927,0.486c5.294-0.28,13.242-1.135,17.092-2.053c7.819-1.784,11.405-2.731,18.919-5.44
							c15.464-5.64,30.695-10.714,46.815-11.797c1.626-0.103,3.237-0.272,4.838-0.496c0.8-0.112,1.598-0.237,2.394-0.375
							l2.396-0.325c3.19-0.453,6.354-1.079,9.521-1.731c3.203-0.498,6.411-0.997,9.606-1.494c1.592-0.27,3.215-0.369,4.827-0.478
							c1.613-0.103,3.223-0.174,4.827-0.198c13.961-0.083,27.773,1.985,41.801,2.361c14.992,0.396,29.838,3.871,45.109,5.336
							c15.076,1.449,30.399,2.645,45.913,4.424l13.646,1.573l6.856,0.799l6.865,0.747c5.749,0.712,11.668,1.037,17.516,1.427
							c2.951,0.129,5.925,0.185,8.886,0.261l4.445,0.096c1.485,0.014,2.987-0.04,4.479-0.06l8.963-0.181
							c1.498-0.037,3.06-0.143,4.586-0.212l4.566-0.306c6.062-0.46,12.035-1.105,17.986-1.851
							c10.753-1.369,21.41-2.316,32.158-4.132c10.73-1.817,21.567-4.391,32.296-9.631c5.651-2.794,12.494-6.313,18.671-12.071
							l1.133-1.07c0.376-0.376,0.754-0.79,1.121-1.187c0.738-0.816,1.439-1.582,2.126-2.459c0.691-0.904,1.346-1.814,1.957-2.725
							c0.612-0.899,1.198-1.996,1.719-2.979c2.08-4.114,3.367-8.797,2.806-13.273c-0.07-1.055-0.466-1.874-0.928-2.571
							c-0.463-0.698-1.024-1.259-1.643-1.708c-1.238-0.897-2.702-1.357-4.108-1.612c1.158,0.195,1.235,1.181,0.672,2.492
							c-0.072,0.162-0.146,0.329-0.244,0.499c-0.113,0.172-0.237,0.346-0.37,0.521c-0.265,0.351-0.564,0.707-0.889,1.059
							c-0.613,0.729-1.466,1.32-2.312,1.863c-3.458,2.187-7.458,2.457-7.889,2.583c-2.541,0.715-5.205,1.463-7.902,2.222
							c-1.298,0.351-2.626,0.665-3.923,0.967c-1.354,0.254-2.63,0.542-3.997,0.682c-5.206,0.626-10.328,0.45-15.383,0.388
							c-5.063-0.068-10.075-0.032-15.303,0.836c-10.954,1.817-22.003,3.563-33.051,4.969c-5.521,0.696-11.044,1.298-16.513,1.715
							l-4.086,0.274l-4.063,0.183c-2.804,0.037-5.609,0.073-8.419,0.11l-3.584,0.039l-3.618-0.084l-7.238-0.138
							c-2.418-0.057-4.87-0.217-7.305-0.317c-2.446-0.132-4.86-0.188-7.334-0.382c-4.929-0.367-9.863-0.651-14.785-1.166
							c-2.464-0.241-4.918-0.47-7.389-0.743l-7.434-0.904C276.306,275.786,263.98,273.387,251.399,271.581z"/>
					</g>
				</g>
			</g>
		</g>
		<g>
			<g>
				<g>
					<path fill="#FFFFFF" d="M312.345,224.874l0.458,0.115C312.604,224.915,312.488,224.819,312.345,224.874z"/>
					<path fill="#FFFFFF" d="M247.086,202.042l0.262-0.32C247.182,201.801,247.115,201.922,247.086,202.042z"/>
					<path fill="#FFFFFF" d="M221.243,230.188l-0.407-0.094C221.019,230.175,221.143,230.193,221.243,230.188z"/>
					<g>
						<path fill="#FFFFFF" d="M247.688,241.454c12.15,4.651,24.843,8.238,37.909,10.349c13.486,2.161,27.204,2.904,40.517,5.995
							c14.101,3.299,28.255,6.404,42.822,7.293c7.308,0.524,14.493,0.996,21.649,1.726c3.592,0.252,7.18,0.556,10.781,0.886
							c1.799,0.195,3.61,0.271,5.426,0.379c1.815,0.106,3.637,0.215,5.465,0.322c1.762,0.102,3.527,0.167,5.287,0.167
							c1.75-0.048,3.5-0.132,5.247-0.238c3.495-0.222,6.982-0.5,10.461-0.81c3.478-0.387,6.947-0.747,10.421-0.963
							c1.736-0.117,3.476-0.158,5.217-0.223c1.742-0.079,3.487-0.108,5.239-0.072c1.871,0.044,3.742,0.145,5.615,0.254
							c1.874,0.098,3.749,0.264,5.635,0.244c1.868,0.016,10.859-3.112,12.497-4.303c0.746-0.536-4.892-2.304-6.427-2.771
							c-2.538-0.754-5.715-1.598-8.722-2.317c-3.019-0.825-5.872-1.512-7.797-1.802c-7.779-1.106-11.37-1.837-19.226-2.115
							c-16.223-0.798-31.94-1.953-47.247-6.876c-3.086-1.023-6.225-1.775-9.4-2.371c-3.166-0.708-6.37-1.271-9.587-1.784
							c-3.222-0.461-6.43-1.131-9.623-1.756c-1.596-0.324-3.186-0.665-4.763-1.035c-1.575-0.379-3.13-0.861-4.671-1.346
							c-13.377-4.19-26.168-9.985-39.659-13.964c-14.4-4.205-27.958-11.027-42.388-15.86c-14.249-4.761-28.708-9.234-43.239-14.282
							c-8.511-2.916-16.884-6.098-25.504-9.001c-21.483-7.823-44.215-12.839-67.166-17.03c-2.604-0.449-5.202-0.91-7.785-1.429
							l-3.869-0.796l-3.887-0.722c-2.592-0.505-5.179-1.01-7.765-1.515l-7.824-1.294c-1.31-0.209-2.607-0.429-3.933-0.617
							l-4.089-0.44l-4.106-0.393c-1.374-0.111-2.739-0.266-4.135-0.268c-2.781-0.064-5.573-0.078-8.37-0.023
							c-1.397-0.006-2.802,0.162-4.205,0.28c-1.403,0.133-2.808,0.285-4.211,0.458c-1.482,0.208-3.045,0.311-4.621,0.616
							c-1.581,0.273-3.204,0.562-4.846,0.878c-0.819,0.165-1.645,0.331-2.475,0.497l-1.242,0.267l-1.438,0.328
							c-0.913,0.239-1.591,0.455-2.319,0.688c-0.712,0.23-1.407,0.468-2.09,0.713c-2.73,0.983-5.309,2.109-7.564,3.443
							c-2.218,1.338-4.254,2.859-5.203,4.664c-0.208,0.912-0.915,2.084-1.422,3.355c-0.532,1.276-0.992,2.65-1.318,4.036
							c0.275-1.124,0.807-1.085,1.623-0.723c0.912,0.56,2.137,1.312,3.388,2.08c2.979,1.793,6.537,3.91,6.983,4.087
							c2.782,1.052,5.691,1.618,8.599,2.039c1.437,0.223,2.957,0.354,4.188,0.629c1.386,0.261,2.761,0.531,4.115,0.846
							c2.622,0.611,5.144,1.26,7.612,2.149c2.467,0.852,4.858,1.612,7.239,2.45c2.385,0.883,4.747,1.683,7.139,2.318
							c1.192,0.285,2.414,0.683,3.643,0.969c1.231,0.299,2.479,0.548,3.752,0.738c1.349,0.221,2.63,0.336,4.027,0.609l4.121,0.692
							c2.745,0.446,5.488,0.804,8.224,1.313l8.211,1.333c2.734,0.5,5.469,0.974,8.207,1.427c10.94,1.986,21.909,4.195,32.883,6.98
							c9.325,2.356,18.666,4.968,27.999,7.861l6.999,2.129c2.333,0.713,4.664,1.409,6.992,2.238
							c4.658,1.595,9.307,3.218,13.939,4.888C224.713,231.945,236.04,236.989,247.688,241.454z"/>
					</g>
				</g>
			</g>
		</g>
	</g>
</g>
<g id="brushes" display="none">
	<g display="inline">
		<g>
			<rect x="300.415" y="7.814" fill="none" width="101.17" height="8.367"/>
			<g>
				<path fill="#FFFFFF" d="M387.919,10.449c0.009-0.033,0.016-0.074,0.019-0.131C387.922,10.371,387.917,10.414,387.919,10.449z"/>
				<path fill="#FFFFFF" d="M379.947,9.607l0.093-0.063C379.979,9.554,379.956,9.576,379.947,9.607z"/>
				<path fill="#FFFFFF" d="M392.696,10.805c-0.007,0.011-0.007,0.019-0.012,0.031c0.074,0.006,0.174,0.014,0.336,0.023
					L392.696,10.805z"/>
				<path fill="#FFFFFF" d="M362.941,8.66l0.106-0.004C363,8.654,362.969,8.641,362.941,8.66z"/>
				<path fill="#FFFFFF" d="M373.02,9.293c-0.031,0.054-0.084,0.074-0.136,0.092C372.949,9.394,373.001,9.383,373.02,9.293z"/>
				<path fill="#FFFFFF" d="M395.22,13.63l-0.136-0.191C395.086,13.521,395.135,13.607,395.22,13.63z"/>
				<path fill="#FFFFFF" d="M400.065,12.859c-0.004-0.014-0.005-0.025-0.013-0.043C400.046,12.834,400.054,12.847,400.065,12.859z"
					/>
				<path fill="#FFFFFF" d="M398.172,12.094c-0.041,0.017-0.088,0.05-0.136,0.083C398.094,12.171,398.167,12.171,398.172,12.094z"/>
				<path fill="#FFFFFF" d="M397.972,12.225c0.021-0.016,0.043-0.032,0.064-0.047C398,12.184,397.971,12.191,397.972,12.225z"/>
				<path fill="#FFFFFF" d="M301.175,9.6c-0.14-0.008-0.259,0.137-0.384,0.256L301.175,9.6z"/>
				<path fill="#FFFFFF" d="M347.544,8.549l0.03-0.078C347.546,8.496,347.541,8.523,347.544,8.549z"/>
				<path fill="#FFFFFF" d="M301.001,11.256l-0.099-0.039C300.938,11.248,300.971,11.258,301.001,11.256z"/>
				<path fill="#FFFFFF" d="M392.653,14.139c-0.14,0.186-0.427-0.037-0.425,0.145C392.377,14.254,392.587,14.394,392.653,14.139z"/>
				<path fill="#FFFFFF" d="M344.289,15.596l-0.092,0.01C344.241,15.607,344.269,15.604,344.289,15.596z"/>
				<path fill="#FFFFFF" d="M301.001,11.256l0.114,0.045c-0.01-0.035-0.022-0.063-0.034-0.094
					C301.056,11.234,301.029,11.252,301.001,11.256z"/>
				<path fill="#FFFFFF" d="M331.511,8.469c0.002,0,0.003,0,0.005,0c0.012-0.012,0.021-0.02,0.032-0.033L331.511,8.469z"/>
				<path fill="#FFFFFF" d="M330.66,8.166c0.06-0.02,0.117-0.039,0.182-0.061C330.746,8.086,330.695,8.117,330.66,8.166z"/>
				<path fill="#FFFFFF" d="M300.791,9.855l-0.22,0.146C300.65,9.98,300.722,9.921,300.791,9.855z"/>
				<path fill="#FFFFFF" d="M321.492,8.439c0.029-0.006,0.058-0.012,0.084-0.023C321.54,8.414,321.513,8.421,321.492,8.439z"/>
				<path fill="#FFFFFF" d="M373.666,9.402c0.021,0.018,0.049,0.027,0.074,0.041C373.748,9.4,373.743,9.369,373.666,9.402z"/>
				<polygon fill="#FFFFFF" points="367.331,14.371 367.329,14.371 367.329,14.375 				"/>
				<path fill="#FFFFFF" d="M367.669,14.14c-0.105-0.042-0.257,0.093-0.338,0.231C367.438,14.371,367.537,14.332,367.669,14.14z"/>
				<path fill="#FFFFFF" d="M366.605,14.275c0.013,0.008,0.023,0.015,0.039,0.023C366.631,14.285,366.618,14.277,366.605,14.275z"/>
				<path fill="#FFFFFF" d="M373.41,14.646c0-0.006,0.001-0.014,0-0.02c-0.002,0.007-0.003,0.011-0.004,0.018L373.41,14.646z"/>
				<path fill="#FFFFFF" d="M372.063,14.677c-0.023-0.037-0.057-0.064-0.093-0.083C371.992,14.63,372.023,14.661,372.063,14.677z"/>
				<polygon fill="#FFFFFF" points="363.25,14.803 363.251,14.794 363.244,14.797 				"/>
				<path fill="#FFFFFF" d="M350.587,15.994c0.302,0.048,0.532,0.082,0.593,0.082c1.104-0.006,2.166-0.408,3.237-0.624
					c1.488-0.3,2.815,0.898,4.364,0.541c1.09-0.251,1.49-1.235,2.499-1.5c0.961-0.252,1.949,0.262,2.912,0.221
					c1.04-0.045,1.85-0.992,2.869-0.921c-0.072,0.202-0.047,0.482-0.144,0.686c0.503-0.298,0.978-0.729,1.598-0.505
					c0.416,0.151,0.51,0.877,0.988,0.323c0.571,0.34,1.125,0.895,1.854,0.731c0.087-1.097,1.558-0.628,2.229-0.68
					c0.549-0.042,1.007-0.361,1.565-0.367c0.709-0.006,1.092,0.13,1.83-0.051c0.876-0.215,1.372-0.208,2.208,0.129
					c0.85,0.343,1.042,0.5,1.819,0.041c0.754-0.445,0.633-0.346,1.469-0.284c1.125,0.083,2.246-0.039,3.37-0.073
					c0.741-0.023,1.488,0.115,2.228,0.047c1.578-0.144,2.682-0.841,3.995,0.426c0.798-1.008,3.152-0.864,4.323-0.679
					c1.126,0.179,3.408,1.14,4.293,0.003c-0.115-0.094-1.222-0.782-1.103-0.995c-0.045,0.08-0.099,0.217-0.122,0.303
					c-0.022-0.33-0.107-0.346,0.039-0.692c-0.393,0.095-0.779,0.222-1.157,0.363c-0.236-0.2-0.081-0.185-0.512-0.271
					c0.047-0.132,0.019-0.32,0.089-0.457c-0.088,0.104-0.173,0.168-0.309,0.177c-0.042-0.091-0.129-0.169-0.165-0.272
					c-0.032-0.001-0.541,0-0.54,0.011c-0.009-0.09-0.084-0.212-0.103-0.308c-0.117,0.349-0.56,0.493-0.818,0.137
					c-0.373,0.107-0.755,0.222-1.144,0.248c-0.036-0.217-0.178-0.323-0.163-0.526c-0.13,0.104-0.363,0.121-0.486,0.229
					c0.014-0.245-0.106-0.262,0.037-0.542c-0.111,0.092-0.27,0.107-0.388,0.209c-0.08-0.099-0.265-0.218-0.327-0.332
					c-0.027,0.08-0.054,0.159-0.077,0.24c-0.074,0.016-0.094-0.156-0.167-0.111c-0.432,0.394-0.577-0.216-1.072-0.057
					c-0.035,0.083-0.014,0.165-0.037,0.244c-0.044,0.007-0.088,0.009-0.133,0.004c-0.026-0.127-0.132-0.235-0.174-0.344
					c-0.001,0.058-0.016,0.112-0.045,0.162c-0.396-0.11-0.775,0.043-1.156,0c0.029-0.079,0.051-0.159,0.064-0.242
					c-0.394,0.001-0.788,0.109-1.16,0.232c-0.221-0.702-1.42-0.437-2.011-0.434c-0.008,0.055-0.018,0.109-0.028,0.163
					c-0.425-0.169-0.896,0.034-1.25-0.136c0.019-0.088,0.018-0.176-0.004-0.264c-0.217-0.058-0.555-0.094-0.782-0.046
					c0.021,0.058,0.046,0.115,0.071,0.171c-0.14,0.079-0.277,0.053-0.406,0.106c-0.042-0.075,0.068-0.082,0.021-0.162
					c-0.082-0.088-0.288-0.049-0.387-0.123c-0.027-0.008,0.119-0.105,0.12-0.095c-0.105,0.077-0.164,0.078-0.222,0.211
					c-0.122-0.074-0.329-0.089-0.467-0.17c0.158,0.268-0.007,0.014-0.047,0.349c-0.269-0.212-0.741,0.019-0.895-0.381
					c-0.263,0.061-0.577,0.021-0.746,0.002c-0.032-0.008-0.138,0.112-0.174,0.125c-0.048-0.085-0.185-0.19-0.254-0.262
					c-0.013,0.049,0.064,0.094,0.068,0.143c-0.104,0.03-0.361,0.012-0.444,0.055c-0.165-0.415-1.587-0.476-1.972-0.492
					c-0.002-0.068-0.004-0.136-0.006-0.205c-0.038,0.105-0.139,0.229-0.164,0.33c-0.051-0.065-0.091-0.136-0.119-0.214
					c-0.212-0.041-0.579-0.316-0.903-0.405c0.152,1.023-2.07,0.225-2.597,0.238c-0.05-0.031-0.038-0.19-0.055-0.242
					c-0.112,0.071-0.233,0.157-0.326,0.254c0.001-0.074-0.001-0.213-0.018-0.29c-0.221,0.274-0.358,0.288-0.657,0.308
					c0.05-0.039,0.153-0.096,0.19-0.148c-0.742,0.204-1.579,0.37-2.341,0.202c0.002-0.083,0.068-0.079,0.073-0.152
					c-0.089-0.048-0.188,0.027-0.279-0.013c0.027-0.059,0.037-0.121,0.029-0.185c-0.187-0.04-0.529-0.091-0.722-0.079
					c-0.045,0.067-0.091,0.134-0.136,0.201c-0.307-0.078-0.65-0.067-0.959-0.015c0.035-0.038,0.075-0.07,0.12-0.096
					c-0.142,0.047-0.273,0.081-0.406,0.158c-0.042-0.028,0.027-0.114-0.02-0.119c-0.645,0.237-0.93,0.049-1.562-0.001
					c-0.017,0.073,0.065,0.091,0.059,0.16c-0.277,0.005-0.257-0.03-0.413-0.164c-0.022-0.036-0.163,0.012-0.208-0.016
					c0.022-0.073,0.053-0.143,0.09-0.208c-0.401,0.713-2.102,0.021-2.597-0.4c-0.965,0.608-2.557-0.188-3.567-0.18
					c-0.477,0.004-0.872,0.273-1.438,0.256c-0.656-0.02-1.244-0.049-1.906,0.011c-1.12,0.101-2.233,0.266-3.305-0.01
					c-0.354-0.091-0.83-0.44-1.146-0.473c-0.197-0.02-0.573,0.187-0.82,0.194c-0.319,0.011-0.62-0.128-0.934-0.152
					c-0.793-0.06-1.484,0.171-2.254,0.314c-0.857,0.16-1.397-0.22-2.105-0.177c0.022,0.056,0.047,0.11,0.071,0.165
					c-0.307-0.093-0.659-0.13-0.93,0.098c-0.047-0.099-0.133-0.182-0.185-0.273c-0.169,0.139-0.429,0.19-0.581,0.376
					c-0.257-0.317-0.762-0.256-1.175-0.281c0.028,0.379,0.036,0.212-0.267,0.417c-0.025-0.158-0.15-0.321-0.16-0.49
					c0.022,0.385-0.244,0.541-0.614,0.44c-0.138-0.424-0.811-0.515-1.001,0.005c-0.042-0.082-0.107-0.183-0.138-0.27
					c-0.542-0.048-1.51,0.18-1.912-0.151c-0.063,0.162-0.236,0.287-0.296,0.426c-0.05-0.148-0.17-0.286-0.213-0.449
					c-0.01,0.151-0.127,0.304-0.154,0.434c-1.189-0.278-2.444-0.377-3.661-0.5c-1.074-0.108-1.983,0.254-2.993-0.038
					c0.146,0.055,0.257,0.155,0.387,0.224c-0.467,0.299-1.003-0.055-1.512-0.103c-0.53-0.051-1.065,0.101-1.594,0.053
					c-0.959-0.086-1.249-0.117-2.279,0.296c-0.281-0.208-0.206-0.262-0.467-0.038c-0.087-0.114-0.299-0.185-0.394-0.293
					c-0.07,0.079-0.187,0.139-0.255,0.226c-0.494-0.723-2.338-0.524-3.15-0.496c-0.589,0.021-2.374,0.485-2.655,0.074
					c-0.363,0.36-1.878,0.533-1.982-0.042c-0.258,0.144-1.083-0.159-1.507-0.182c-3.34-0.185-6.688-0.299-10.029-0.106
					c-2.36,0.136-5.553,0.187-7.531,1.687c-0.122,0.248-0.459,0.41-0.33,0.707c-0.26,0.094-0.379-0.347-0.43-0.098
					c0.354,0.166-0.109,0.646,0.236,0.957l-0.222,0.061c-0.046,0.178,0.302-0.202,0.247,0.121l0.063-0.466
					c0.18,0.07,0.278,0.168,0.342,0.326c0.169-0.182,0.276-0.814,0.68-0.539l-0.111,0.028c0.328-0.017,0.201,0.301,0.27,0.377
					l-0.072-0.004l0.276,0.235c-0.209-0.157-0.556,0.222-0.374,0.195c0.392,0.13-0.102-0.113,0.192-0.17
					c0.182-0.024,0.131,0.225,0.123,0.37l0.327-0.018c-0.012,0.217-0.217-0.012-0.084,0.212l0.412-0.23
					c0.077,0.549,0.449-0.264,0.638,0.253c-0.297,0.129,0.026,0.184-0.021,0.362l0.728-0.031c0.068,0.076-0.191,0.169-0.081,0.142
					c0.137,0.151,0.225-0.134,0.298-0.13c0.063,0.15,0.543-0.006,0.523,0.357c0.493,0.244,0.207-0.461,0.667-0.254
					c0.061,0.221-0.365,0.053-0.161,0.281l0.477-0.082c-0.043,0.107-0.093,0.358-0.271,0.311c1.289,0.291,1.984,1.454,3.162,1.158
					c0.166,0.263-0.119,0.176-0.237,0.35c0.313-0.46,1.585,0.518,1.902,0.544c0.025-0.065,0.034-0.146,0.059-0.199
					c1.002,0.616,2.227,0.306,3.327,0.525c-0.019-0.064-0.093-0.075-0.091-0.156c0.146-0.14,0.358-0.267,0.565-0.298
					c0.037,0.23,0.14,0.258,0.178,0.353c-0.048-0.088-0.095-0.143-0.121-0.235c0.234,0.821,4.521,0.642,5.213,0.66
					c2.015,0.053,4.057,0.404,6.066,0.122c-0.021-0.205,0.049-0.19,0.079-0.366c1.072,0.896,4.207,0.648,5.444,0.325
					c0.377-0.098,1.363,0.54,1.704-0.101c0.96,0.057,1.977,0.032,3.045,0.03c0.862-0.002,3.49,0.771,3.962-0.066
					c0.264,0.169,0.562,0.238,0.865,0.19c-0.07-0.041-0.152-0.036-0.217-0.081c0.005-0.024,0-0.177-0.013-0.195
					c0.131-0.074,0.3-0.093,0.451-0.099c0.285,1.164,2.245-0.213,2.98,0.526c0.027-0.341,0.16-0.437,0.369-0.642
					c0.236,1.406,2.768-0.205,3.119,0.527c0.303-0.108,0.181-0.049,0.47-0.006c-0.08,0.07-0.186,0.156-0.259,0.236
					c0.285-0.174,0.614-0.256,0.925-0.132c-0.015-0.051-0.02-0.102-0.014-0.155C348.457,15.637,349.779,15.866,350.587,15.994z"/>
				<path fill="#FFFFFF" d="M373.585,14.691l-0.175-0.045c0,0.065-0.008,0.139-0.088,0.21L373.585,14.691z"/>
				<path fill="#FFFFFF" d="M365.313,14.505c-0.021,0.023-0.043,0.044-0.063,0.079C365.293,14.572,365.308,14.539,365.313,14.505z"
					/>
				<path fill="#FFFFFF" d="M363.305,15.018c0.144-0.063,0.016-0.141-0.055-0.215C363.246,14.861,363.25,14.932,363.305,15.018z"/>
				<path fill="#FFFFFF" d="M378.271,13.921c-0.03,0.028-0.049,0.066-0.044,0.127C378.268,13.996,378.276,13.957,378.271,13.921z"/>
				<path fill="#FFFFFF" d="M391.221,14.134c-0.017-0.015-0.031-0.023-0.052-0.044C391.179,14.111,391.197,14.125,391.221,14.134z"
					/>
				<path fill="#FFFFFF" d="M390.503,13.677c-0.035-0.001-0.081,0.008-0.146,0.042C390.421,13.734,390.467,13.711,390.503,13.677z"
					/>
				<path fill="#FFFFFF" d="M375.131,14.027c-0.048,0.01-0.095,0.031-0.136,0.092C375.069,14.113,375.106,14.072,375.131,14.027z"/>
				<path fill="#FFFFFF" d="M390.208,13.783l-0.181-0.031c-0.001,0.02-0.003,0.033-0.003,0.057L390.208,13.783z"/>
				<path fill="#FFFFFF" d="M391.448,14.17c-0.071-0.01-0.167-0.01-0.228-0.036C391.311,14.213,391.382,14.215,391.448,14.17z"/>
				<path fill="#FFFFFF" d="M383.024,13.55c-0.006,0.005-0.013,0.004-0.02,0.007C382.864,13.682,382.952,13.629,383.024,13.55z"/>
				<path fill="#FFFFFF" d="M389.418,14.281c-0.008-0.004-0.017-0.008-0.024-0.012l-0.053,0.08L389.418,14.281z"/>
				<path fill="#FFFFFF" d="M392.229,14.283c-0.034,0.007-0.065,0.02-0.09,0.053c0.027,0.011,0.061,0.021,0.103,0.033
					C392.231,14.332,392.229,14.307,392.229,14.283z"/>
				<path fill="#FFFFFF" d="M385.735,14c0.051-0.108,0.07-0.182,0.072-0.237C385.747,13.767,385.709,13.816,385.735,14z"/>
			</g>
		</g>
	</g>
</g>
</svg>
