<?xml version="1.0" encoding="utf-8"?>
<!-- Generator: Adobe Illustrator 16.0.0, SVG Export Plug-In . SVG Version: 6.00 Build 0)  -->
<!DOCTYPE svg PUBLIC "-//W3C//DTD SVG 1.1//EN" "http://www.w3.org/Graphics/SVG/1.1/DTD/svg11.dtd">
<svg version="1.1" id="Layer_1" xmlns="http://www.w3.org/2000/svg" xmlns:xlink="http://www.w3.org/1999/xlink" x="0px" y="0px"
	 width="500px" height="500px" viewBox="0 0 500 500" enable-background="new 0 0 500 500" xml:space="preserve">
<g>
	<g>
		<g>
			<g>
				<path fill="#FFFFFF" d="M86.135,107.42l-0.273,0.778C85.989,107.85,86.081,107.625,86.135,107.42z"/>
				<path fill="#FFFFFF" d="M171.571,42.207l-0.229,0.092C171.559,42.259,171.595,42.229,171.571,42.207z"/>
				<path fill="#FFFFFF" d="M196.394,33.809l0.709-0.041C196.763,33.78,196.552,33.794,196.394,33.809z"/>
				<g>
					<path fill="#FFFFFF" d="M147.109,37.056c-1.35,0.126-2.886,0.394-4.377,0.671l-2.213,0.519
						c-0.733,0.186-1.451,0.419-2.176,0.629c-2.876,0.904-5.639,2.066-8.274,3.401l-1.953,1.032l-1.898,1.101
						c-1.24,0.758-2.423,1.57-3.635,2.355c-2.459,1.511-4.688,3.353-6.974,5.102l-0.854,0.662l-0.804,0.721l-1.606,1.443
						c-1.051,0.981-2.178,1.883-3.16,2.933c-1.972,2.086-4.038,4.085-5.798,6.344c-0.902,1.108-1.846,2.184-2.705,3.32l-2.492,3.467
						c-0.41,0.581-0.837,1.149-1.23,1.74l-1.126,1.803l-2.24,3.603l-2.08,3.824c-0.693,1.28-1.383,2.558-2.004,3.774l-3.893,7.49
						c-0.65,1.269-1.258,2.606-1.888,3.905c-0.301,0.664-0.647,1.287-0.911,1.982l-0.812,2.066c-1.16,2.786-1.942,5.421-2.861,8.11
						c-0.915,2.664-1.727,5.418-2.601,8.124c-0.853,2.722-1.552,5.526-2.343,8.287c-0.673,2.804-1.247,5.667-1.882,8.479
						c-0.626,2.727-1.253,5.459-1.883,8.2l-1.03,4.512l-0.514,2.254l-0.257,1.126l-0.179,1.127
						c-0.473,3.005-0.945,6.007-1.417,9.007c-0.222,1.501-0.504,2.997-0.676,4.501l-0.544,4.51c-0.35,3.011-0.752,5.998-1.054,9.028
						l-0.333,4.594c-0.049,0.765-0.124,1.533-0.15,2.296l-0.046,2.287l-0.089,4.574l0.047,4.545c0.024,3.04,0.101,6.033,0.16,9.049
						c0.115,3.037,0.23,6.075,0.346,9.117c0.043,1.532,0.154,3.054,0.272,4.572c0.111,1.519,0.221,3.035,0.331,4.55
						c0.189,3.033,0.501,6.036,0.773,9.04c0.265,3.006,0.557,5.999,0.868,8.981c0.302,2.986,0.579,5.968,0.971,8.959
						c0.735,5.977,1.366,11.97,2.395,17.924c0.477,2.982,0.913,5.979,1.424,8.97c0.56,2.98,1.121,5.971,1.684,8.972l0.821,4.337
						c0.282,1.442,0.616,2.873,0.925,4.31l1.908,8.598l0.481,2.147l0.557,2.13l1.12,4.258l2.244,8.51l2.235,8.508
						c0.776,2.825,1.648,5.618,2.458,8.433c1.645,5.618,3.268,11.249,4.833,16.898c1.613,6.036,3.214,12.028,4.824,18.054
						c0.201,0.744,0.642,2.228,1.208,4.078c0.56,1.838,1.242,4.093,2.033,6.271c0.766,2.161,1.401,4.238,1.6,5.964
						c0.154,0.867,0.086,1.627,0.121,2.273c-0.067,0.636-0.12,1.143-0.155,1.477c-0.025,0.308,0.062,0.048,0.222-0.563
						c0.197-0.604,0.337-1.586,0.37-2.71c0.054-2.254-0.66-5.047-0.97-6.255c-0.266-1.002-0.549-2.07-0.845-3.185
						c-0.265-1.123-0.54-2.293-0.822-3.489c-0.57-2.39-1.165-4.887-1.748-7.331c-1.174-4.881-2.3-9.556-3.108-12.726
						c-1.637-6.416-2.893-11.09-4.151-15.813c-0.641-2.357-1.285-4.725-1.99-7.319c-0.356-1.296-0.729-2.649-1.123-4.087
						c-0.353-1.446-0.727-2.979-1.127-4.622c-1.648-6.792-3.348-13.522-4.933-20.252c-1.385-6.776-2.881-13.504-4.02-20.283
						l-0.907-5.072c-0.311-1.689-0.603-3.38-0.83-5.081l-1.465-10.187c-0.266-1.695-0.443-3.401-0.611-5.109l-0.521-5.121
						c-0.34-3.416-0.71-6.824-0.935-10.281c-0.422-5.564-0.85-11.198-1.281-16.872c-0.165-2.829-0.331-5.668-0.497-8.514
						c-0.184-2.845-0.185-5.689-0.292-8.54c-0.103-2.836-0.126-5.728-0.161-8.61c-0.018-2.865-0.035-5.728-0.052-8.585l0.106-4.243
						c0.055-1.409,0.035-2.83,0.182-4.216c0.25-2.792,0.384-5.544,0.82-8.353l1.22-9.072c0.184-1.516,0.441-3.015,0.708-4.513
						l0.777-4.496l0.777-4.495c0.14-0.744,0.235-1.508,0.412-2.236l0.537-2.181l2.188-8.875l2.188-8.942
						c0.621-2.914,1.553-5.79,2.418-8.677c0.41-1.445,0.906-2.883,1.404-4.322l1.472-4.321l1.549-4.336l0.775-2.171l0.387-1.086
						l0.421-1.009c2.173-5.778,5.585-11.268,8.765-17.167c3.097-5.623,6.472-10.987,10.413-15.952
						c3.993-4.903,8.437-9.396,13.288-13.411c2.523-1.883,4.978-3.856,7.683-5.486c2.622-1.78,5.326-3.299,8.11-4.581
						c2.744-1.259,5.57-2.249,8.458-2.888c1.445-0.316,2.865-0.55,4.501-0.727l4.75-0.574c1.586-0.181,3.162-0.407,4.756-0.553
						l4.793-0.406l4.793-0.407l4.822-0.32c6.421-0.415,12.899-0.825,19.38-1.159c6.506-0.225,12.955-0.775,19.422-1.238
						c15.095-1.077,30.194-2.153,45.282-3.229c9.528-0.683,19.087-1.47,28.514-2.002c9.839-0.705,18.994-1.529,28.593-2.266
						l7.177-0.555l3.589-0.278l3.529-0.231c4.716-0.283,9.374-0.663,14.138-0.869l14.254-0.564c2.175-0.076,4.702,0.04,7.388-0.229
						l2.062-0.265l1.667-0.261l1.658-0.257l1.668-0.157c8.056-0.751,16.114,0.542,23.24,3.976
						c7.124,3.36,13.011,8.748,16.424,15.666c1.737,3.433,2.938,7.17,3.683,11.047c0.731,3.869,1.079,7.941,0.932,11.797
						c-0.166,3.866-0.901,7.589-2.47,10.95c-0.415,0.828-0.887,1.63-1.315,2.455c-0.192,0.424-0.501,0.787-0.768,1.172l-0.816,1.149
						c-1.083,1.54-2.427,2.92-3.785,4.164c-0.341,0.369-0.763,0.606-1.147,0.917c-0.396,0.291-0.783,0.607-1.191,0.893
						c-0.427,0.241-0.857,0.484-1.291,0.73c-0.43,0.258-0.865,0.512-1.323,0.685c-1.801,0.801-3.903,1.293-6.231,1.572
						c-1.155,0.154-2.376,0.234-3.632,0.327c-1.307,0.119-2.62,0.238-3.936,0.358c-2.637,0.25-5.25,0.479-7.896,0.77
						c-2.562,0.283-5.101,0.563-7.586,0.838c-2.521,0.249-4.988,0.493-7.371,0.729c-2.41,0.261-4.737,0.537-6.938,0.822
						c-1.099,0.146-2.173,0.284-3.2,0.444c-1.013,0.189-1.994,0.373-2.939,0.549c-3.584,0.618-4.674,1.266-4.7,1.857
						c0.009-0.235,1.244-0.351,3.124-0.389c1.89-0.029,4.461-0.248,7.099-0.167c5.269,0.041,10.684,0.222,11.42,0.229
						c1.109-0.003,2.233-0.006,3.368-0.009c1.144-0.033,2.298-0.067,3.462-0.101c2.337-0.07,4.637-0.226,6.999-0.317
						c2.354-0.1,4.725-0.201,7.088-0.302c2.342-0.136,4.757-0.094,7.185-0.342c2.347-0.232,4.715-0.69,6.981-1.556
						c0.281-0.11,0.57-0.209,0.845-0.331l0.802-0.403l1.604-0.815c1.045-0.577,1.983-1.3,2.979-1.953
						c0.896-0.753,1.811-1.502,2.667-2.299c0.79-0.852,1.662-1.638,2.383-2.559l2.159-2.784l1.825-3.057
						c2.227-4.228,3.434-9.021,3.752-13.849c0.149-1.219,0.079-2.416,0.106-3.638c0.038-1.228-0.081-2.427-0.154-3.65
						c-0.15-2.442-0.516-4.915-1.024-7.427c-1.063-5.261-3.063-10.429-5.941-15.123c-2.959-4.636-6.833-8.775-11.378-11.854
						l-1.709-1.144c-0.576-0.369-1.179-0.688-1.768-1.032c-1.171-0.71-2.405-1.27-3.627-1.862c-1.222-0.591-2.491-1.04-3.737-1.561
						c-1.291-0.421-2.577-0.878-3.885-1.242c-5.245-1.435-10.684-1.993-16.055-1.786c-2.689,0.082-5.356,0.413-7.995,0.862
						c-0.73,0.127-1.141,0.151-1.675,0.224c-0.508,0.065-1.005,0.146-1.597,0.146l-1.715,0.06l-1.857,0.006
						c-1.24,0.015-2.716,0.038-3.925,0.091l-3.757,0.151l-7.519,0.304l-3.766,0.161l-3.811,0.245l-7.627,0.492l-3.816,0.247
						l-3.743,0.285l-7.486,0.572l-25.621,2.046l-3.151,0.239l-3.236,0.207l-6.465,0.423l-12.806,1.001
						c-17.072,1.355-34.168,2.55-51.263,3.783c-2.556,0.18-5.123,0.36-7.699,0.541c-1.288,0.089-2.579,0.179-3.872,0.268
						c-1.29,0.055-2.583,0.11-3.877,0.165c-5.171,0.178-10.398,0.475-15.641,0.741c-2.635,0.146-5.275,0.292-7.918,0.438
						l-3.973,0.229l-3.993,0.305c-2.665,0.226-5.327,0.358-8,0.665L147.109,37.056z"/>
				</g>
			</g>
		</g>
	</g>
	<g>
		<g>
			<g>
				<path fill="#FFFFFF" d="M149.697,475.477l-0.369,0.021C149.494,475.492,149.603,475.499,149.697,475.477z"/>
				<path fill="#FFFFFF" d="M202.843,471.66l-0.1,0.085C202.839,471.713,202.854,471.685,202.843,471.66z"/>
				<path fill="#FFFFFF" d="M213.661,463.911l0.316-0.029C213.825,463.889,213.731,463.899,213.661,463.911z"/>
				<g>
					<path fill="#FFFFFF" d="M191.854,464.972c-4.915,0.306-9.851,0.565-14.789,1.064c-4.93,0.581-10.019,1.231-14.583,1.913
						c-4.833,0.67-9.783,1.117-14.791,1.581c-5.051,0.463-10.035,0.998-15.104,1.369c-5.367,0.384-10.71,0.765-16.051,1.146
						l-8.01,0.606c-2.586,0.201-5.138,0.264-7.63,0.02c-2.506-0.241-4.899-0.854-7.055-1.939c-2.25-1.174-4.397-2.519-6.323-4.134
						c-1.902-1.637-3.621-3.477-5.096-5.518c-1.437-2.07-2.639-4.313-3.611-6.688c-1.846-4.593-2.929-9.528-3.419-14.567
						c-0.259-2.553-0.334-4.977-0.011-7.429c0.312-2.434,0.984-4.817,2.031-7.024c1.107-2.363,2.64-4.477,4.407-6.368
						c0.439-0.459,1.645-1.968,3.084-3.291c0.688-0.692,1.455-1.308,2.067-1.854c0.642-0.509,1.151-0.927,1.393-1.148
						c0.22-0.202-0.538,0.136-1.488,0.594c-0.933,0.477-2.033,1.118-2.485,1.432c-1.533,0.97-3.336,2.43-4.887,4.047
						c-1.553,1.611-2.83,3.386-3.533,4.686c-1.468,2.611-2.198,4.731-2.739,6.898c-0.515,2.173-0.838,4.444-0.758,7.548
						c0.177,6.302,1.161,12.608,3.547,18.515c2.348,5.916,6.392,11.227,11.561,15.215l1.601,1.176
						c0.545,0.379,1.124,0.702,1.691,1.053c1.097,0.694,2.414,1.347,3.723,1.84c2.642,1.004,5.424,1.472,8.144,1.633
						c2.701,0.173,5.466,0.005,7.959-0.167c2.547-0.159,5.086-0.303,7.604-0.408c5.455-0.208,10.904-0.416,16.36-0.625
						c5.437-0.238,10.879-0.476,16.345-0.715l4.389-0.2l4.435-0.238c1.473-0.05,2.971-0.209,4.463-0.337l4.438-0.387l8.567-0.734
						c1.418-0.149,2.87-0.22,4.319-0.302l4.345-0.271c11.441-0.771,22.951-1.684,34.446-2.41c3.348-0.189,6.738-0.469,10.05-0.562
						l10.064-0.391l6.455-0.289l6.344-0.37l12.679-0.787c8.464-0.517,16.864-1.132,25.381-1.537
						c15.302-0.934,30.203-1.159,45.557-2.401c1.043-0.103,2.005-0.113,3.043-0.162c1.028-0.066,2.092-0.056,3.173-0.039
						c0.541,0.004,1.086,0.008,1.634,0.011c0.548,0.028,1.099,0.058,1.649,0.086l1.659,0.073c0.552,0.047,1.104,0.093,1.652,0.14
						c0.551,0.041,1.099,0.083,1.644,0.124c0.578,0.04,1.209,0.115,1.847,0.136c1.268,0.057,2.618,0.063,4.114-0.255
						c1.479-0.295,3.118-1.109,4.115-2.199c1.012-1.066,1.546-2.152,1.884-3.095c0.33-0.925,0.353-1.564,0.252-2.007
						c-0.098-0.443-0.318-0.689-0.577-0.811c0.204,0.097,0.028,0.653-0.44,1.422c-0.461,0.758-1.225,1.767-2.285,2.508
						c-0.507,0.387-1.123,0.633-1.682,0.806c-0.582,0.134-1.122,0.189-1.596,0.162c-0.94-0.03-1.595-0.219-1.754-0.239
						c-0.953-0.166-1.918-0.398-2.901-0.655c-1.004-0.242-2.044-0.471-3.088-0.697c-2.098-0.396-4.245-0.743-6.365-0.96
						c-0.514-0.063-1.024-0.124-1.532-0.185c-0.51-0.037-1.018-0.074-1.523-0.11c-1.003-0.062-2.045-0.173-3.004-0.191
						c-1.948-0.067-3.878-0.134-5.821-0.2c-3.888-0.111-7.836-0.154-12.109,0.012c-8.953,0.35-17.866,0.838-26.779,1.383
						c-8.862,0.426-17.817,1.05-26.775,1.587l-11.429,0.716c-3.796,0.233-7.656,0.512-11.363,0.688l-5.609,0.297l-5.768,0.256
						c-3.87,0.134-7.641,0.418-11.45,0.635C210.662,463.944,201.253,464.458,191.854,464.972z"/>
				</g>
			</g>
		</g>
	</g>
	<g>
		<g>
			<g>
				<path fill="#FFFFFF" d="M215.644,407.581l-0.25,0.011C215.506,407.592,215.58,407.602,215.644,407.581z"/>
				<path fill="#FFFFFF" d="M251.787,406.682l-0.069,0.08C251.784,406.733,251.795,406.706,251.787,406.682z"/>
				<path fill="#FFFFFF" d="M259.244,399.443l0.216-0.016C259.356,399.428,259.292,399.434,259.244,399.443z"/>
				<g>
					<path fill="#FFFFFF" d="M244.407,399.493c-6.671,0.124-13.34,0.497-19.931,1.095c-6.79,0.618-13.521,1.454-20.416,1.721
						c-7.304,0.243-14.488,0.187-21.866,0.854c-3.685,0.298-7.353,0.472-10.916,0.717c-3.589,0.207-7.17,0.45-10.836,0.481
						c-7.047,0.192-14.071,0.854-21.153,0.769c-1.892-0.045-3.772-0.091-5.662-0.137c-0.232-0.005-0.698,0.024-1.28,0.075
						c-0.58,0.044-1.279,0.12-1.995,0.264c-1.421,0.252-2.826,0.535-3.278,0.676c-0.407,0.128,2.398,0.354,3.162,0.412
						c1.265,0.046,2.845,0.328,4.367,0.475c1.52,0.172,2.972,0.314,3.959,0.376c3.995,0.244,5.858,0.367,9.954,0.402
						c8.462,0.09,16.712-0.034,25.154,0.053c3.41,0.072,6.802,0.013,10.248-0.134c1.718-0.068,3.438-0.137,5.152-0.205
						c1.732-0.026,3.465-0.024,5.179,0.007c3.712,0.062,7.431,0.213,11.139,0.253c3.708,0.041,7.421,0.044,11.146-0.076
						c7.927-0.256,15.836-0.07,23.762-0.355c7.814-0.27,15.612-0.628,23.434-0.827c4.564-0.114,9.131-0.201,13.694-0.256
						c11.535-0.14,23.023-0.61,34.553-0.857c5.211-0.112,10.355-0.047,15.505-0.018c2.576,0.014,5.149,0.021,7.741-0.012
						c1.508-0.066,3.034-0.186,4.634-0.583l1.197-0.312c0.403-0.124,0.819-0.305,1.226-0.462l1.127-0.473l0.833-0.37
						c1.186-0.512,2.432-1.134,3.799-1.673c1.392-0.505,2.809-1.06,4.215-1.623c1.446-0.513,2.857-1.061,4.161-1.647
						c1.321-0.574,2.555-1.167,3.582-1.816c1.001-0.629,1.181-1.344,1.046-1.9c0.225,0.92-6.159,0.486-6.61,0.562
						c-1.363,0.104-2.79,0.252-4.216,0.52c-1.431,0.292-2.877,0.587-4.295,0.877c-1.368,0.328-2.701,0.705-4.044,1.047
						c-0.641,0.158-1.424,0.398-1.88,0.453l-0.763,0.148l-0.82,0.064c-1.075,0.104-2.246,0.035-3.421-0.023
						c-1.353-0.096-2.755-0.164-4.202-0.182c-12.156-0.146-24.183,0.263-36.361,0.575c-10.348,0.264-20.685,0.63-31.035,0.836
						C257.206,399.337,250.802,399.415,244.407,399.493z"/>
				</g>
			</g>
		</g>
	</g>
	<g>
		<g>
			<g>
				<path fill="#FFFFFF" d="M303.476,264.595l-0.172,0.212C303.385,264.714,303.445,264.66,303.476,264.595z"/>
				<path fill="#FFFFFF" d="M331.324,236.616l-0.003,0.107C331.355,236.657,331.347,236.629,331.324,236.616z"/>
				<path fill="#FFFFFF" d="M333.1,225.79l0.178-0.158C333.188,225.701,333.136,225.75,333.1,225.79z"/>
				<g>
					<path fill="#FFFFFF" d="M320.518,236.703l-3.989,3.618l-2.003,1.853l-2.114,1.994c-2.788,2.681-5.239,5.566-7.574,8.462
						c-2.36,2.971-4.588,6.06-6.851,9.118c-1.156,1.51-2.2,3.107-3.333,4.643c-1.108,1.554-2.277,3.068-3.383,4.642
						c-4.858,6.526-9.397,13.208-13.426,20.32c-3.88,7.161-7.644,14.108-11.525,21.274c-3.712,6.987-6.468,14.369-9.546,21.6
						c-0.816,1.937-1.627,3.86-2.442,5.794c-0.099,0.238-0.26,0.731-0.448,1.353c-0.091,0.303-0.19,0.636-0.295,0.984
						c-0.096,0.299-0.195,0.61-0.295,0.922c-0.488,1.261-1.212,2.767-1.351,3.274c-0.074,0.229,0.373-0.293,0.897-0.943
						c0.533-0.624,1.106-1.379,1.341-1.71c0.74-1.062,1.532-2.703,2.313-4.184c0.771-1.5,1.488-2.938,1.942-3.929
						c0.971-1.98,1.683-3.433,2.4-4.895c0.342-0.737,0.686-1.478,1.062-2.288c0.393-0.803,0.82-1.677,1.314-2.688
						c1.952-4.223,4.135-8.237,6.354-12.242c2.272-3.999,4.606-7.945,7.097-11.813c0.985-1.574,1.98-3.164,2.983-4.766
						c0.993-1.601,1.919-3.263,2.921-4.87c2.064-3.175,3.982-6.439,6.286-9.418c2.386-3.288,4.962-6.42,7.481-9.593
						c2.612-3.098,5.136-6.267,7.775-9.355c2.734-3.327,5.68-6.577,8.641-9.632c0.732-0.783,1.51-1.484,2.26-2.232
						c0.758-0.735,1.498-1.495,2.294-2.162l4.82-4.321c1.63-1.493,3.293-2.982,4.811-4.506l2.324-2.274l1.162-1.138l1.144-1.063
						l2.284-2.112l2.422-2.059c1.595-1.366,3.32-2.752,4.984-4.123l2.96-2.501l0.739-0.621l0.706-0.553l1.411-1.107
						c0.958-0.728,1.842-1.497,2.86-2.19l3.065-2.072l3.965-2.65c1.337-0.889,2.671-1.763,4.006-2.782l7.691-5.746l3.724-2.811
						c1.28-0.896,2.597-1.752,3.894-2.63c2.602-1.746,5.187-3.508,7.907-5.129c4.836-3.006,9.804-5.757,14.753-8.547
						c5.001-2.842,10.102-6.001,14.634-10.264c0.596-0.568,1.217-1.161,1.856-1.771c0.647-0.604,1.193-1.312,1.808-1.987
						c0.598-0.687,1.208-1.383,1.797-2.093c0.54-0.733,1.082-1.468,1.62-2.197c1.086-1.461,1.99-2.95,2.797-4.376
						c0.818-1.428,1.44-2.791,1.904-4.052c0.445-1.225,0.148-1.919-0.312-2.26c0.76,0.567-4.806,4.842-5.188,5.15
						c-1.093,1.024-2.223,2.101-3.35,3.189c-1.094,1.122-2.279,2.163-3.451,3.147c-4.596,3.769-9.248,6.055-14.631,9.221
						c-11.501,6.563-23.234,13.346-34.237,21.615l-6.847,5.125c-2.118,1.652-4.559,3.217-6.873,4.815l-3.6,2.503
						c-0.6,0.424-1.203,0.823-1.8,1.267l-1.775,1.411c-1.162,0.934-2.412,1.902-3.501,2.809l-3.194,2.688
						c-1.331,1.068-2.675,2.145-4.026,3.229c-1.37,1.135-2.767,2.195-4.143,3.407C325.59,231.913,323.08,234.293,320.518,236.703z"
						/>
				</g>
			</g>
		</g>
	</g>
	<g>
		<g>
			<g>
				<path fill="#FFFFFF" d="M360.865,261.422l-0.105,0.213C360.812,261.541,360.854,261.485,360.865,261.422z"/>
				<path fill="#FFFFFF" d="M379.403,233.313l0.025,0.098C379.443,233.347,379.427,233.322,379.403,233.313z"/>
				<path fill="#FFFFFF" d="M379.127,223.113l0.154-0.136C379.202,223.036,379.157,223.078,379.127,223.113z"/>
				<g>
					<path fill="#FFFFFF" d="M369.541,234.235l-0.671,0.792L368.067,236l-1.6,1.974l-0.788,0.994l-0.704,1.038l-1.39,2.083
						c-1.783,2.804-3.3,5.698-4.657,8.595c-2.79,5.964-4.937,11.987-8.192,17.488c-3.459,5.796-7.547,11.077-12.352,15.676
						c-0.614,0.565-1.207,1.157-1.846,1.689l-1.94,1.557c-0.648,0.514-1.299,0.875-1.948,1.321
						c-0.713,0.348-1.383,0.751-2.129,1.057c-2.946,1.286-6.22,2.066-9.628,3.046c-1.585,0.5-3.166,0.998-4.747,1.497
						c-0.762,0.27-1.557,0.417-2.334,0.637c-0.781,0.204-1.561,0.425-2.36,0.554l-2.388,0.449l-2.42,0.273
						c-0.807,0.104-1.621,0.125-2.435,0.142c-0.814,0.005-1.627,0.06-2.443-0.006c-0.868-0.063-1.733-0.125-2.6-0.188
						c-0.863-0.086-1.724-0.22-2.585-0.32c-0.279-0.044-0.94-0.024-1.724-0.073c-0.828-0.023-1.786-0.051-2.605-0.074
						c-1.207-0.086-2.201,0.556-2.253,0.6c-0.073,0.057,0.042,0.102,0.461,0.063c0.241-0.041,0.532-0.063,0.834-0.071
						c0.306,0.03,0.622,0.073,0.912,0.161c0.291,0.076,0.476,0.141,0.647,0.193c0.174,0.055,0.322,0.101,0.428,0.134
						c0.573,0.168,1.221,0.359,1.898,0.559c0.683,0.179,1.403,0.331,2.111,0.491c1.414,0.343,2.79,0.524,3.729,0.632
						c0.477,0.053,0.921,0.102,1.342,0.147c0.422,0.022,0.82,0.043,1.203,0.063c0.77,0.032,1.477,0.063,2.186,0.093
						c0.71-0.008,1.423-0.041,2.206-0.076c0.783-0.03,1.635-0.079,2.613-0.225c2.033-0.21,4.026-0.617,6.012-1.034
						c1.927-0.516,3.846-1.03,5.762-1.544c3.772-0.965,7.741-1.688,11.722-3.421c0.817-0.303,1.573-0.812,2.362-1.238
						c0.76-0.458,1.407-0.962,2.112-1.458l1.035-0.757l0.981-0.825c0.646-0.562,1.322-1.097,1.938-1.692
						c2.522-2.336,4.767-4.932,6.952-7.484c4.692-5.564,8.587-11.761,11.821-18.039c3.461-6.688,7.166-13,11.566-18.482l1.625-2.031
						c0.623-0.772,1.333-1.583,1.89-2.371c1.2-1.593,2.215-3.149,3.251-4.582c1.023-1.458,2.055-2.735,3.165-3.837l0.85-0.804
						l1.07-0.866l2.148-1.724c3.356-2.675,6.712-5.33,10.117-7.957c4.371-3.326,8.689-6.693,12.993-10.108
						c4.306-3.538,8.496-7.326,12.309-11.593c3.469-3.824,6.622-7.98,9.168-12.585c2.547-4.597,4.29-9.736,5.005-15.059
						c0.05-0.346,0.1-0.7,0.151-1.06c0.038-0.32,0.078-0.647,0.117-0.978c0.091-0.699,0.184-1.417,0.277-2.147
						c0.184-1.511,0.354-3.195,0.274-4.986c-0.072-1.78-0.443-3.687-1.221-5.316c-0.77-1.632-1.882-2.917-3.001-3.703
						c-1.113-0.74-1.826-0.511-2.226-0.114c0.309-0.332,1.31,0.975,1.772,2.542c0.498,1.569,0.355,3.176,0.335,3.374
						c0.003,2.497-0.57,5.065-1.353,7.625c-0.195,0.625-0.389,1.243-0.58,1.855c-0.19,0.626-0.379,1.267-0.581,1.819
						c-0.4,1.144-0.755,2.271-1.238,3.362c-0.838,2.217-1.915,4.335-2.942,6.655c-4.538,9.671-12.213,17.597-20.951,24.682
						l-11.488,9.049l-11.592,9.235c-0.582,0.458-1.167,0.917-1.754,1.377l-0.884,0.69c-0.302,0.243-0.574,0.425-0.918,0.75
						c-0.645,0.594-1.348,1.178-1.904,1.814l-0.881,0.942l-0.801,0.955C372.928,229.656,371.272,232.206,369.541,234.235z"/>
				</g>
			</g>
		</g>
	</g>
	<g>
		<g>
			<g>
				<path fill="#FFFFFF" d="M308.68,206.582l-0.189,0.096C308.577,206.638,308.639,206.622,308.68,206.582z"/>
				<path fill="#FFFFFF" d="M338.481,194.629l-0.032,0.096C338.496,194.679,338.496,194.649,338.481,194.629z"/>
				<path fill="#FFFFFF" d="M342.435,185.564l0.174-0.079C342.522,185.516,342.472,185.541,342.435,185.564z"/>
				<g>
					<path fill="#FFFFFF" d="M329.862,190.009c-1.411,0.521-2.818,1.054-4.219,1.6c-1.403,0.541-2.799,1.097-4.158,1.744
						c-2.734,1.251-5.438,2.552-8.101,3.901l-4.093,2.107c-1.362,0.717-2.71,1.373-4.106,2.203
						c-2.795,1.527-5.442,3.331-8.098,5.153c-2.784,1.986-5.38,4.221-7.746,6.687c-0.579,0.627-1.121,1.29-1.68,1.936l-0.829,0.977
						l-0.75,1.04c-0.495,0.697-1.001,1.386-1.475,2.095l-1.298,2.207c-1.644,3.008-3.1,6.06-4.173,9.245
						c-0.297,0.787-0.572,1.58-0.79,2.391c-0.232,0.806-0.486,1.608-0.705,2.421c-0.372,1.638-0.803,3.274-1.052,4.952
						c-0.317,1.609-0.434,3.236-0.569,4.856c-0.106,1.602-0.156,3.172-0.233,4.758l-0.19,4.769c-0.058,1.596-0.211,3.177-0.25,4.791
						c-0.069,1.717-0.232,3.421-0.275,5.147c0.015,0.858,0.74,5.104,0.997,5.898c0.117,0.362,0.414-2.168,0.492-2.856
						c0.142-1.141,0.228-2.569,0.413-3.928c0.215-1.36,0.4-2.651,0.491-3.529c0.096-0.888,0.159-1.654,0.249-2.363
						c0.099-0.709,0.188-1.36,0.279-2.014c0.174-1.309,0.297-2.624,0.481-4.44c0.206-1.877,0.41-3.743,0.614-5.602
						c0.25-1.822,0.487-3.635,0.894-5.41c0.771-3.551,1.895-7.005,3.524-10.211c0.34-0.64,0.681-1.283,1.023-1.929
						c0.325-0.652,0.657-1.303,1.042-1.928c0.358-0.638,0.719-1.277,1.079-1.918l1.195-1.857l0.594-0.933l0.661-0.883l1.325-1.76
						l1.468-1.633l0.739-0.803c0.261-0.254,0.536-0.493,0.804-0.736c4.617-4.294,10.17-7.265,15.948-9.879
						c3.239-1.385,6.518-2.667,9.791-3.951c3.284-1.261,6.515-2.64,9.825-3.856l9.696-3.814c3.26-1.299,6.521-2.598,9.784-3.898
						l11.497-4.482l7.136-2.826l3.554-1.44l3.621-1.523l7.194-3.037l6.971-2.861c8.842-3.215,17.67-6.079,26.133-10.509
						c2.209-1.229,4.819-2.651,7.254-4.171c2.478-1.598,4.033-2.834,5.521-3.679c0.718-0.421,1.034-1.042,1.063-1.624
						c-0.037,0.486-1.187,0.14-2.594,0.117c-1.399-0.064-2.975,0.157-3.176,0.193c-2.431,0.636-4.848,1.647-7.251,2.471
						c-1.16,0.386-2.293,0.763-3.415,1.136c-1.14,0.326-2.268,0.648-3.402,0.973c-1.129,0.333-2.257,0.683-3.397,1.074
						c-1.134,0.408-2.291,0.826-3.495,1.259c-2.501,0.961-4.995,1.921-7.488,2.879c-2.517,0.896-5.021,1.815-7.521,2.748
						c-2.556,1.005-5.154,2.085-7.728,3.14c-2.479,1.038-4.962,2.078-7.45,3.12l-3.137,1.32l-3.243,1.326l-6.483,2.659
						c-4.356,1.804-8.555,3.456-12.826,5.124C340.786,186.14,335.265,188.012,329.862,190.009z"/>
				</g>
			</g>
		</g>
	</g>
	<g>
		<g>
			<g>
				<path fill="#FFFFFF" d="M342.992,435.92l-0.119-0.389C342.922,435.708,342.944,435.825,342.992,435.92z"/>
				<path fill="#FFFFFF" d="M389.796,451.273l-0.025,0.137C389.828,451.314,389.821,451.282,389.796,451.273z"/>
				<path fill="#FFFFFF" d="M391.417,438.15c0.008,0.006,0.134-0.248,0.134-0.248C391.487,438.021,391.447,438.095,391.417,438.15z"
					/>
				<g>
					<path fill="#FFFFFF" d="M377.424,450.804c-4.431,1.277-8.68,1.943-12.318,0.879c-1.842-0.476-3.556-1.422-5.187-2.654
						c-0.402-0.282-0.83-0.662-1.256-1.031c-0.426-0.366-0.861-0.726-1.254-1.12c-0.829-0.755-1.589-1.564-2.352-2.375
						c-3.047-3.4-5.395-7.387-6.697-11.84c-0.653-2.222-1.063-4.545-1.211-6.918c-0.054-1.188-0.087-2.385-0.031-3.589
						c0.027-1.2,0.163-2.257,0.423-3.359c1.059-4.631,4.349-8.518,8.527-11.167c2.108-1.32,4.361-2.458,6.669-3.035
						c2.311-0.6,4.699-0.707,7.1-0.308c2.316,0.398,4.384,1.41,6.01,3.114c1.632,1.677,2.913,3.907,4.003,6.217
						c1.078,2.292,1.856,4.677,2.122,7.097c0.267,2.417,0.028,4.859-0.761,7.195c-0.712,2.172-1.965,4.141-3.66,5.385
						c-1.686,1.25-3.822,1.697-6.033,1.259c-4.368-0.596-7.794-5.242-7.905-9.729c-0.025-0.3-0.001-0.596,0.022-0.89
						c0.01-0.297,0.043-0.588,0.108-0.873c0.054-0.287,0.091-0.576,0.193-0.848l0.126-0.413l0.062-0.207l0.068-0.133
						c0.313-0.706,1.181-1.51,2.154-2.079c0.233-0.151,0.719-0.455,1.362-0.789c0.646-0.319,1.467-0.642,2.278-0.811
						c0.202-0.043,0.398-0.063,0.599-0.1c0.189-0.012,0.377-0.022,0.561-0.033c0.182,0.02,0.319-0.009,0.533,0.035
						c0.206,0.035,0.405,0.07,0.595,0.103c0.366,0.054,0.746,0.131,1.074,0.201c0.32,0.064,0.577,0.112,0.747,0.138
						c0.32,0.055-0.508-0.361-1.467-0.778c-0.467-0.195-1-0.429-1.42-0.523c-0.451-0.098-0.877-0.129-1.139-0.131
						c-1.708-0.039-4.04,0.571-5.864,1.896c-0.896,0.658-1.722,1.503-2.074,2.517c-0.362,0.961-0.582,1.885-0.642,2.644
						c-0.148,1.532-0.027,2.898,0.275,4.106c0.308,1.206,0.69,2.307,1.261,3.319c0.562,1.014,1.213,2.005,2.128,2.93
						c0.907,0.924,2.034,1.847,3.598,2.523c1.594,0.646,3.253,1.025,5.007,1.001c1.739-0.021,3.502-0.509,5.015-1.399
						c3.038-1.812,4.969-4.934,5.858-8.107c0.985-3.155,1.153-6.601,0.565-9.87c-0.578-3.284-1.791-6.362-3.261-9.263
						c-1.203-2.367-2.905-4.808-5.388-6.581c-2.458-1.793-5.557-2.672-8.373-2.869c-2.904-0.239-5.884,0.199-8.584,1.127
						c-2.718,0.935-5.122,2.245-7.441,3.773c-2.487,1.684-4.782,3.787-6.603,6.348c-0.896,1.287-1.673,2.673-2.297,4.137
						c-0.598,1.474-1.043,3.012-1.328,4.578c-0.251,1.618-0.342,3.038-0.401,4.517c-0.05,1.477-0.018,2.963,0.09,4.452
						c0.226,2.978,0.812,5.967,1.803,8.838c2.091,6.129,5.839,11.622,10.443,15.959l0.863,0.819l0.975,0.817
						c0.632,0.561,1.374,1.026,2.073,1.526c1.467,0.933,3.061,1.714,4.738,2.293c3.377,1.12,6.979,1.301,10.25,0.854
						c1.627-0.199,3.191-0.53,4.699-0.927c0.765-0.189,1.491-0.411,2.24-0.631l2.465-0.95c3.2-1.478,5.799-3.701,7.956-5.982
						c0.569-0.567,1.059-1.152,1.563-1.735c0.516-0.582,0.994-1.165,1.458-1.747l1.386-1.734c0.451-0.577,0.896-1.112,1.371-1.811
						l1.396-1.986c0.434-0.679,0.8-1.394,1.2-2.09l0.586-1.053l0.49-1.086c0.317-0.727,0.661-1.448,0.953-2.18
						c1.342-3.432,2.188-6.923,2.896-10.343c0.354-1.725,0.653-3.391,0.947-5.104l0.363-2.686l0.18-1.344l0.082-1.346
						c0.375-4.541,0.104-9.063-0.475-13.469c-0.579-4.408-1.458-8.732-2.514-12.941c-2.158-8.51-5.117-16.756-8.444-24.74
						c-3.021-7.223-6.126-14.214-9.184-21.191c-1.515-3.478-3.061-6.952-4.529-10.434c-0.748-1.738-1.491-3.46-2.345-5.296
						c-0.83-1.809-1.665-3.632-2.586-5.353c-0.954-1.83-1.992-3.821-3.063-5.875c-1.058-2.007-2.148-4.075-3.22-6.108
						c-0.556-1.018-1.063-1.972-1.601-3.014c-0.548-1.035-1.149-2.114-1.876-3.15c-0.723-1.035-1.583-2.028-2.573-2.833
						c-0.979-0.813-2.098-1.405-3.159-1.73c-1.033-0.322-1.757-0.271-2.211-0.109c-0.457,0.159-0.661,0.419-0.73,0.696
						c0.048-0.207,0.686-0.157,1.549,0.258c0.865,0.395,1.913,1.191,2.67,2.194c1.546,2.016,2.001,4.453,2.125,4.749
						c0.3,0.95,0.607,1.923,0.92,2.908c0.33,0.993,0.712,1.979,1.085,2.979c0.381,0.999,0.765,2.003,1.147,3.005
						c0.398,0.989,0.796,1.976,1.189,2.951c0.755,1.899,1.453,3.747,2.138,5.569c0.713,1.821,1.323,3.633,1.943,5.441
						c1.266,3.568,2.572,7.497,4.277,11.437c3.556,8.349,7.402,16.431,10.823,24.598c3.444,8.162,6.451,16.398,8.568,24.903
						c0.915,3.657,1.632,7.296,2.202,10.931c0.556,3.635,0.788,7.254,0.782,10.844c-0.091,3.608-0.553,7.008-1.275,10.792
						c-0.686,3.66-1.521,7.179-2.811,10.394c-0.442,0.921-0.818,1.893-1.309,2.785l-0.762,1.321l-0.379,0.664l-0.446,0.612
						c-1.062,1.554-2.699,3.498-4.113,5.175c-1.454,1.668-2.941,3.179-4.482,4.428C380.753,449.42,379.148,450.245,377.424,450.804z
						"/>
				</g>
			</g>
		</g>
	</g>
	<g>
		<g>
			<g>
				<path fill="#FFFFFF" d="M336.869,116.731l-0.025,0.172C336.86,116.827,336.88,116.778,336.869,116.731z"/>
				<path fill="#FFFFFF" d="M341.846,92.081l0.064,0.066C341.896,92.096,341.871,92.082,341.846,92.081z"/>
				<path fill="#FFFFFF" d="M336.344,85.134l0.032-0.152C336.354,85.053,336.346,85.099,336.344,85.134z"/>
				<g>
					<path fill="#FFFFFF" d="M333.533,95.361c-0.529,2.313-0.942,4.641-1.331,6.972c-0.358,2.336-0.751,4.656-0.911,7.007
						l-0.519,7.234c-0.102,1.208-0.203,2.416-0.305,3.626c-0.103,1.225-0.254,2.423-0.298,3.788
						c-0.035,0.69-0.091,1.424-0.107,2.076l-0.029,1.903l-0.056,3.8c-0.008,2.54-0.016,5.077-0.023,7.628
						c0.014,2.576-0.053,5.112-0.162,7.646c-0.116,2.548-0.231,5.096-0.35,7.684c-0.063,1.248-0.085,2.495-0.09,3.741l0.168,3.756
						c0.124,2.503,0.2,4.993,0.114,7.506c0.008,1.36,0.016,2.712,0.024,4.071c0.011,0.662,0.765,3.861,1.024,4.481
						c0.12,0.281,0.403-1.668,0.476-2.21c0.21-1.777,0.565-4.514,0.636-5.885c0.229-2.799,0.446-4.106,0.525-6.964
						c0.051-1.475,0.101-2.94,0.15-4.4c0.092-1.461,0.221-2.918,0.345-4.371c0.265-2.91,0.547-5.786,1.021-8.709
						c0.756-4.72,0.668-9.712,0.988-14.566c0.209-2.569,0.398-5.417,0.755-7.542c0.401-2.38,0.991-4.961,1.407-7.512
						c0.461-2.722,0.974-5.429,1.585-8.117c0.635-2.685,1.266-5.367,1.781-8.079c1.043-5.337,2.085-10.652,3.591-15.797
						c0.437-1.502,0.942-2.974,1.42-4.459c0.499-1.475,1.091-2.904,1.64-4.353c2.925-7.219,6.559-14.139,11.531-19.832
						c0.571-0.636,1.107-1.303,1.718-1.891l1.909-1.67c0.646-0.541,1.253-1.124,1.927-1.622l2.074-1.42
						c0.697-0.461,1.351-0.981,2.072-1.403l2.187-1.238c0.734-0.404,1.421-0.89,2.182-1.258c0.762-0.366,1.52-0.745,2.275-1.142
						c3.177-1.769,7.848-3.224,10.557-5.427c0.654-0.552,0.749-1.248,0.628-1.808c0.222,0.914-4.339,0.103-4.705,0.106
						c-1.003-0.058-1.999,0.115-3.015,0.299c-1.022,0.188-2.054,0.378-3.069,0.565l-0.742,0.125l-0.716,0.181
						c-0.479,0.119-0.954,0.237-1.427,0.354c-0.958,0.245-1.907,0.487-2.86,0.731c-1.879,0.589-3.707,1.442-5.633,2.466
						c-0.957,0.616-1.882,1.284-2.817,1.938c-0.914,0.681-1.907,1.273-2.722,2.074l-2.535,2.301
						c-0.411,0.395-0.859,0.756-1.236,1.182l-1.128,1.282l-2.237,2.583c-0.734,0.87-1.328,1.839-1.996,2.758
						c-0.643,0.934-1.313,1.857-1.929,2.806l-1.695,2.916c-3.778,6.659-6.421,13.809-8.53,20.958
						C335.801,86.51,334.556,90.931,333.533,95.361z"/>
				</g>
			</g>
		</g>
	</g>
	<g>
		<g>
			<g>
				<path fill="#FFFFFF" d="M376.81,59.44l-0.071,0.083C376.774,59.489,376.805,59.474,376.81,59.44z"/>
				<path fill="#FFFFFF" d="M389.436,54.356l-0.053,0.064C389.415,54.404,389.43,54.38,389.436,54.356z"/>
				<path fill="#FFFFFF" d="M396.344,50.418l0.114,0.085C396.408,50.457,396.373,50.433,396.344,50.418z"/>
				<g>
					<path fill="#FFFFFF" d="M387.243,46.432c-2.384-0.147-4.83,0.462-6.741,1.458c-1.956,0.979-3.47,2.245-4.779,3.485
						c-0.652,0.601-1.345,1.413-1.991,2.125c-0.683,0.7-1.216,1.546-1.796,2.325c-0.604,0.761-1.056,1.637-1.571,2.454
						c-0.543,0.801-0.922,1.701-1.402,2.542l-0.368,0.675l-0.302,0.707l-0.6,1.412c-0.376,0.948-0.624,1.942-0.927,2.912
						c-0.183,1-0.411,1.994-0.508,3.003l-0.091,1.518l-0.032,0.758l0.045,0.759c0.207,4.053,0.97,7.934,2.626,11.645
						c0.421,0.88,0.932,1.719,1.449,2.541c0.605,0.768,1.168,1.563,1.829,2.271c0.692,0.682,1.312,1.425,2.034,2.063
						c0.704,0.667,1.387,1.26,1.998,1.901c0.328,0.342,0.612,0.681,0.908,1.024c0.25,0.347,0.545,0.682,0.757,1.025
						c0.103,0.17,0.58,0.56,0.967,0.991c0.229,0.205,0.404,0.433,0.56,0.626c0.16,0.191,0.304,0.345,0.392,0.415
						c0.081,0.064,0.108-0.205,0.107-0.561c0.009-0.357-0.037-0.795-0.099-0.972c-0.197-1.236-1.222-3.062-1.874-3.854
						c-1.281-1.658-1.95-2.279-3.122-3.897c-2.543-3.216-4.029-7.126-4.068-11.071c-0.017-0.792,0.036-1.592-0.018-2.379
						c0.019-0.791,0.036-1.585,0.055-2.381c0.104-0.788,0.134-1.587,0.282-2.365c0.196-0.766,0.302-1.555,0.617-2.272
						c1.205-3.18,3.269-5.797,5.504-8.152c0.147-0.16,0.288-0.327,0.442-0.48l0.503-0.422l1.012-0.832
						c0.702-0.555,1.54-1.102,2.273-1.554c1.513-0.906,2.92-1.509,4.192-1.75c0.635-0.122,1.263-0.157,1.919-0.114
						c0.658,0.074,1.345,0.216,2.054,0.467c1.258,0.436,2.452,1.282,3.457,2.472c1.177,1.371,2.052,3.139,2.573,4.968
						c0.672,2.308,0.854,4.772,0.395,6.808l-0.2,0.734c-0.083,0.231-0.191,0.437-0.275,0.661c-0.057,0.189-0.252,0.526-0.399,0.813
						c-0.156,0.309-0.311,0.548-0.465,0.822c-0.618,1.037-1.236,1.778-1.832,2.125c-0.146,0.061-0.278,0.139-0.415,0.211
						c-0.157,0.034-0.308,0.076-0.454,0.129c-0.282,0.038-0.594,0.072-1.001,0.022c-0.783-0.062-1.712-0.357-2.542-0.735
						c-0.825-0.383-1.61-0.915-2.044-1.351c-0.047-0.053-0.097-0.103-0.149-0.149c-0.027-0.044-0.056-0.082-0.09-0.118
						c-0.05-0.041-0.023-0.051-0.045-0.068c-0.007-0.01-0.014-0.008-0.025-0.025l-0.051-0.121c-0.07-0.159-0.15-0.313-0.244-0.463
						c-0.107-0.149-0.102-0.313-0.18-0.464c-0.234-0.659-0.366-1.454-0.236-2.453c-0.004-0.249,0.093-0.505,0.105-0.775l0.035-0.413
						c0.034-0.137,0.063-0.275,0.088-0.417c0.052-0.283,0.079-0.58,0.099-0.884c0.056-0.292,0.091-0.593,0.103-0.905
						c0.021-0.605-0.352-1.178-0.771-1.566c0.341,0.324-0.284,0.694-1.085,1.067c-0.738,0.398-1.616,0.892-1.727,0.97
						c-1.108,1.02-1.925,2.569-2.316,4.293c-0.33,1.649-0.389,3.48,0.168,5.189c0.075,0.406,0.352,0.964,0.614,1.429
						c0.136,0.222,0.279,0.443,0.43,0.664c0.151,0.204,0.309,0.395,0.472,0.591c0.655,0.747,1.397,1.393,2.22,1.889
						c1.729,1.055,3.565,1.738,5.621,2.048c1.034,0.141,2.124,0.19,3.309,0.037c0.61-0.099,1.222-0.224,1.785-0.438l0.857-0.308
						c0.278-0.122,0.546-0.274,0.815-0.417c2.183-1.184,3.644-3.027,4.604-4.597c0.227-0.388,0.474-0.793,0.678-1.17l0.302-0.562
						l0.15-0.281l0.165-0.365c0.216-0.49,0.442-0.984,0.625-1.48l0.432-1.493c0.771-3.393,0.476-6.661-0.343-9.698
						c-0.877-3.027-2.259-5.907-4.386-8.441c-1.256-1.517-2.862-2.921-4.796-3.99c-1.005-0.55-1.944-0.942-2.983-1.248
						C389.5,46.699,388.38,46.503,387.243,46.432z"/>
				</g>
			</g>
		</g>
	</g>
</g>
</svg>
