<?xml version="1.0" encoding="utf-8"?>
<!-- Generator: Adobe Illustrator 16.0.0, SVG Export Plug-In . SVG Version: 6.00 Build 0)  -->
<!DOCTYPE svg PUBLIC "-//W3C//DTD SVG 1.1//EN" "http://www.w3.org/Graphics/SVG/1.1/DTD/svg11.dtd">
<svg version="1.1" id="Layer_1" xmlns="http://www.w3.org/2000/svg" xmlns:xlink="http://www.w3.org/1999/xlink" x="0px" y="0px"
	 width="500px" height="500px" viewBox="0 0 500 500" enable-background="new 0 0 500 500" xml:space="preserve">
<g>
	<g>
		<g>
			<path fill="#FFFFFF" d="M178.596,426.312l-0.572-0.216C178.272,426.213,178.414,426.34,178.596,426.312z"/>
			<path fill="#FFFFFF" d="M272.951,447.462l-0.149,0.485C273.031,447.711,273.026,447.565,272.951,447.462z"/>
			<path fill="#FFFFFF" d="M274.453,407.059l0.443-0.291C274.667,406.874,274.538,406.967,274.453,407.059z"/>
			<g>
				<path fill="#FFFFFF" d="M262.019,419.572c-2.509-1.636-4.978-2.746-7.228-3.529c-2.244-0.773-4.091-1.17-5.625-1.477
					c-1.548-0.3-2.653-0.457-3.407-0.582l-0.864-0.143c-0.178-0.033-0.173-0.024-0.171-0.017c-0.004,0.012-0.004,0.008-0.006,0.013
					l-0.005,0.011c0.014,0.009-0.018-0.002-0.071-0.021l-0.129-0.045l-1.305-0.461l-2.78-0.964
					c-1.856-0.635-3.719-1.252-5.588-1.851c-3.738-1.199-7.503-2.329-11.296-3.389c-3.823-1.175-7.684-2.334-11.56-3.391
					c-3.998-1.097-8.006-2.127-12.044-3.157c-4.076-1.035-8.153-2.064-12.215-3.146c-8.125-2.166-16.188-4.545-24.056-7.62
					c-8.309-3.313-16.581-6.609-24.849-9.905c-4.14-1.633-8.292-3.237-12.47-4.783c-2.09-0.773-4.186-1.532-6.292-2.273l-3.068-1.07
					c-0.773-0.282-1.578-0.527-2.316-0.86c-3.068-1.223-5.719-3.06-7.981-5.416c-1.141-1.167-2.128-2.522-3.065-3.94
					c-0.913-1.443-1.709-3.012-2.429-4.651c-2.857-6.728-3.757-14.37-4.193-23.113c-0.229-4.176-0.583-8.599-1.25-13.149
					l-0.985-6.357l-0.488-3.012l-0.37-3.082l-0.362-3.089c-0.109-1.037-0.182-2.097-0.268-3.146
					c-0.164-2.102-0.313-4.197-0.381-6.354c-0.085-2.165-0.104-4.215-0.146-6.551c-0.013-1.139-0.015-2.278-0.002-3.419l0.01-0.858
					l-0.037-0.904l-0.059-1.813c-0.025-1.3-0.05-2.597-0.075-3.892l-0.26-3.744l-0.048-0.808l-0.016-0.71
					c-0.023-0.487,0.007-0.889,0.023-1.238c0.019-0.352,0.086-0.631,0.113-0.942c0.085-0.303,0.104-0.604,0.207-0.895
					c0.048-0.139,0.053-0.348,0.068-0.781c0.066-1.026,0.099-2.483,0.067-4.124c-0.079-0.875-0.177-1.795-0.291-2.724
					c-0.127-0.931-0.199-1.859-0.466-2.79c-0.772-3.744-2.338-6.862-3.003-7.898c-0.358-0.538-0.639,1.349-0.918,3.5
					c-0.089,1.068-0.38,2.247-0.598,3.262c-0.23,1.017-0.387,1.88-0.54,2.396c-0.34,1.062-0.708,2.215-1.104,3.449
					c-0.439,1.185-1,2.393-1.505,3.654c-1.171,2.101-1.683,4.744-1.897,7.203c-0.207,2.476-0.298,4.572-0.503,6.19
					c-0.212,2.406-0.342,4.419-0.66,6.366c-0.268,1.934-0.47,3.647-0.69,5.486c-0.207,1.815-0.388,3.633-0.525,5.638
					c-0.12,2.018-0.217,4.211-0.282,6.758c0.013,2.654-0.041,5.291,0.042,7.952c0.11,2.626,0.22,5.244,0.33,7.858
					c0.24,4.89,0.173,9.905,0.207,15.155c0.042,5.244,0.191,10.71,0.922,16.419c0.347,2.866,0.854,5.729,1.542,8.648
					c0.716,2.916,1.624,5.875,2.798,8.85c0.937,2.41,2.213,4.767,3.685,7.049c1.543,2.243,3.27,4.438,5.3,6.38
					c3.992,3.962,8.907,6.995,13.923,9.151c7.819,3.306,15.731,6.459,23.212,10.237c16.207,8.183,31.979,17.25,48.851,24.102
					c2.244,0.911,4.474,1.854,6.693,2.818c2.229,0.974,4.474,1.988,6.697,3.008c4.454,2.045,8.882,4.15,13.315,6.253
					c2.185,1.072,4.507,2.051,6.798,3.046l6.906,2.939c2.31,0.966,4.627,1.913,6.956,2.834l3.501,1.361l0.52,0.194l0.267,0.1
					l0.387,0.127c0.545,0.174,1.087,0.356,1.639,0.507c1.11,0.311,2.235,0.563,3.146,0.74c1.876,0.356,3.253,0.529,4.113,0.665
					l0.904,0.144c0.082,0.015,0.102,0.02,0.158,0.021c-0.122,0.471,0.32-1.198,0.682-2.127l0.145-0.393l0.08-0.251l0.173-0.502
					c0.122-0.334,0.255-0.666,0.401-0.996l0.111-0.246l0.067-0.166l0.127-0.304c0.089-0.202,0.188-0.404,0.295-0.604l0.215-0.411
					c0.056-0.105,0.118-0.211,0.186-0.316c0.021-0.05,0.098-0.113,0.079-0.15l-0.076-0.112c-0.048-0.076-0.089-0.159-0.124-0.246
					l-0.045-0.133c0.001-0.019,0.081,0.107,0.117,0.154l0.279,0.395l0.14,0.196l0.069,0.099l0.004,0.007
					c4.579-4.057-6.25,5.517-5.049,4.61l0.379,0.345c0.257,0.228,0.523,0.45,0.797,0.667c0.548,0.434,1.129,0.842,1.732,1.216
					c1.181,0.741,2.559,1.377,3.724,1.774c0.543,0.18,1.099,0.338,1.661,0.473c0.563,0.134,1.132,0.244,1.7,0.33l0.427,0.06
					l0.338,0.038l0.483,0.041c0.645,0.048,1.294,0.068,1.939,0.061c0.593-0.011,1.004-0.044,1.515-0.087
					c0.986-0.083,1.9-0.247,2.826-0.452c0.212-0.046,0.48-0.113,0.771-0.194l0.834-0.248l0.823-0.278l0.501-0.188
					c0.382-0.152,0.763-0.318,1.141-0.498c1.513-0.716,2.965-1.659,4.215-2.723l0.289-0.252l0.011-0.01l0.006-0.005
					c0.906,1.557-7.869-13.576-4.155-7.171l-0.008-0.005l-0.015-0.011l-0.029-0.021l-0.061-0.049
					c-0.041-0.035-0.084-0.074-0.127-0.119c-0.016-0.02,0.066,0.069,0.072,0.085c0.084,0.095,0.281,0.342,0.375,0.506
					c0.195,0.276,0.484,0.718,0.659,1.081c0.323,0.554,0.695,1.259,0.956,1.902c0.236,0.487,0.497,1.047,0.717,1.575
					c0.236,0.557,0.41,1.033,0.646,1.669c0.267,0.662,0.176,0.413,0.201,0.456l0.02-0.013c0.019-0.01,0.011-0.017,0.05-0.034
					l0.331-0.129c0.604-0.222,1.837-0.552,3.66-1.13c2.204-0.691,4.356-1.592,6.386-2.703c4.062-2.246,8.125-4.493,12.19-6.741
					c3.997-2.186,8.01-4.347,12.049-6.465l7.423-3.862c2.476-1.275,4.986-2.575,7.379-3.742c4.85-2.38,9.678-4.776,14.576-7.054
					c3.143-1.37,6.271-2.764,9.39-4.176c3.126-1.403,6.198-2.876,9.392-4.214c6.355-2.722,12.568-5.594,19.021-8.277l9.601-4.097
					l4.932-2.098l2.36-1.002l2.231-0.924c2.894-1.174,5.447-2.071,7.747-2.644c0.562-0.114,1.148-0.304,1.686-0.376l1.716-0.289
					c3.098-0.427,6.533-1.277,9.988-2.863c3.117-1.419,6.19-3.475,8.714-5.875c2.548-2.396,4.501-5.039,5.984-7.512
					c1.491-2.487,2.564-4.84,3.443-7.024l0.618-1.608l0.542-1.537c0.201-0.562,0.291-0.889,0.43-1.317l0.386-1.222
					c1.043-3.264,2.085-6.522,3.126-9.778c0.965-3.197,1.802-6.292,2.699-9.451l1.29-4.663l1.2-4.495
					c0.792-2.979,1.529-6.091,2.31-8.843c0.368-1.42,0.736-2.842,1.104-4.266l0.522-2.144l0.528-2.268
					c0.414-1.821,0.809-3.65,1.181-5.486c0.177-0.916,0.389-1.842,0.52-2.754l0.357-2.739c0.12-0.968,0.243-1.956,0.368-2.963
					c0.131-1.012,0.259-2.037,0.321-3.007c0.147-1.977,0.299-4.01,0.452-6.073c0.097-1.966,0.153-3.915,0.183-5.899l0.014-1.485
					l-0.001-2.156c-0.009-0.786-0.028-1.57-0.058-2.35c-0.028-0.782-0.138-1.438-0.214-2.157c-0.093-0.701-0.186-1.399-0.279-2.097
					c-0.109-0.664-0.249-1.241-0.38-1.859c-0.14-0.604-0.279-1.207-0.418-1.807c-0.15-0.54-0.308-1.042-0.468-1.558
					c-0.165-0.511-0.33-1.018-0.493-1.522c-0.168-0.431-0.335-0.858-0.501-1.284c-0.178-0.423-0.354-0.844-0.528-1.261
					c-0.171-0.354-0.341-0.704-0.51-1.052c-0.183-0.348-0.363-0.691-0.542-1.033c-0.18-0.326-0.335-0.576-0.516-0.869
					c-0.35-0.561-0.756-1.168-1.086-1.599c-0.347-0.476-0.773-0.965-1.155-1.465c-0.194-0.332-0.394-0.286-0.615-0.409l-0.364-0.052
					c-0.128-0.018-0.275-0.043-0.299-0.027l-0.324,0.031l-0.646,0.037c-0.431,0.014-0.86,0.007-1.287-0.021
					s-0.852-0.078-1.271-0.147c-0.091-0.021-0.24-0.027-0.283-0.065l-0.143-0.109l-0.284-0.219c-0.366-0.281-0.717-0.552-1.053-0.81
					l-0.126-0.097l-0.062-0.048l-0.031-0.023c9.743,4.184,2.7,1.158,4.875,2.091l-0.001-0.002l-0.001-0.005l-0.004-0.01l-0.05-0.152
					c-0.036-0.101-0.072-0.2-0.107-0.297c-0.023-0.145-0.112-0.087-0.187-0.083l-0.029,0.003l-0.408-0.14l-0.849-0.302
					c-0.557-0.212-1.107-0.421-1.652-0.628c-0.538-0.222-1.069-0.44-1.595-0.656l-0.775-0.339l-0.191-0.085
					c-0.03-0.006-0.048-0.003-0.071-0.005l-0.136-0.006c-0.358-0.022-0.701-0.086-1.022-0.186c-0.321-0.099-0.62-0.234-0.893-0.396
					c-0.136-0.082-0.266-0.17-0.389-0.264c-0.129-0.098-0.103-0.15-0.16-0.227c-0.15-0.278-0.294-0.542-0.429-0.792l-0.051-0.093
					l-0.024-0.046l-0.012-0.022c0.286,0.175-0.393-0.242-0.322-0.198l0.001,0.001l0.001,0.001l0.003,0.004
					c0.015,0.018,0.026,0.035,0.033,0.053c0.008,0.018,0.013,0.034,0.014,0.05c0.005,0.021,0.044,0.114,0.055,0.167
					c0.016,0.063,0.025,0.124,0.03,0.185c0.008,0.08-0.01,0.035,0.035,0.386c0.058,0.522,0.076,1.027,0.062,1.513l-0.017,0.36
					l-0.001,0.022l-0.001,0.012c0.08,9.275,0.022,2.569,0.041,4.64l0.002-0.008l0.006-0.017l0.01-0.033l0.04-0.132
					c0.039-0.089,0.023-0.177,0.105-0.267c0.163-0.092,0.314-0.187,0.454-0.285l0.201-0.149c0.06-0.05,0.109-0.098,0.271-0.164
					c0.532-0.253,0.934-0.537,1.304-0.85c0.563-0.389,0.992-0.829,1.284-1.243c0.575-0.825,0.715-1.62,0.646-2.133
					c-0.07-0.528-0.327-0.834-0.63-1.018c0.123,0.076,0.169,0.276,0.074,0.609c-0.094,0.324-0.348,0.81-0.813,1.251
					c-1.129,1.062-2.668,1.204-2.891,1.286l-0.071,0.031l-0.019,0.008c-0.006-0.684,0.011,1.531-0.015-1.532l0.003-0.036
					l0.004-0.071l0.007-0.144c0.008-0.193,0.011-0.388,0.009-0.585c-0.005-0.395-0.031-0.799-0.082-1.21
					c-0.019-0.135-0.017-0.147-0.016-0.165l-0.003-0.07c-0.003-0.047-0.01-0.095-0.02-0.143c-0.074-0.254-0.064-0.247-0.104-0.308
					l-0.008-0.01l-0.004-0.005c0.143,0.087-0.323-0.2,0.319,0.195l0.005,0.009l0.037,0.068l0.074,0.139l0.154,0.283
					c0.104,0.193,0.211,0.392,0.322,0.597c0.262,0.256,0.708,0.504,1.123,0.662c0.431,0.164,0.903,0.259,1.396,0.274
					c0.009-0.032,0.279,0.095,0.203,0.065l-0.008,0.009l-0.016,0.016l-0.035,0.032c-0.027,0.029-0.048,0.022-0.092,0.083
					l-0.158,0.258l-0.042,0.064l-0.021,0.033l-0.003,0.004c-0.078,0.249,0.104-0.334,0.085-0.272l-0.005,0.008l-0.01,0.017
					l-0.078,0.131l-0.167,0.266l-0.179,0.271c-0.044,0.051-0.065,0.04-0.105,0.064l-0.123,0.056
					c-0.046,0.018-0.097,0.032-0.146,0.13c-0.106,0.156-0.216,0.315-0.325,0.478c-0.112,0.199-0.227,0.402-0.341,0.606
					c-0.227,0.424-0.457,0.855-0.688,1.289c-1.938,3.553-3.844,8.083-4.024,8.595c-0.958,3.437-1.521,6.872-2.495,9.759
					c-0.56,1.558-1.121,3.124-1.683,4.688c-0.607,1.673-1.197,3.388-1.874,4.986c-0.654,1.546-1.323,3.06-1.997,4.547
					c-0.651,1.51-1.45,2.855-2.162,4.249c-1.381,2.789-3.095,5.316-4.569,7.867c-0.356,0.577-0.786,1.412-1.186,2.173
					c-0.397,0.776-0.796,1.556-1.195,2.338c-0.785,1.571-1.546,3.172-2.273,4.808c-1.51,3.332-2.636,6.533-3.652,10.015
					c-0.999,3.542-1.998,7.079-2.995,10.614l-1.398,5.186c-0.473,1.697-0.997,3.262-1.477,4.899l-1.435,4.864l-0.351,1.217
					l-0.087,0.304l-0.072,0.199l-0.14,0.395c-0.091,0.284-0.184,0.479-0.27,0.706c-0.086,0.243-0.172,0.404-0.249,0.579
					c-0.078,0.197-0.151,0.315-0.216,0.437c-0.064,0.149-0.12,0.215-0.164,0.281c-0.046,0.1-0.077,0.104-0.094,0.121l-0.01,0.018
					c-0.005-0.001-0.023-0.004,0.101,0.073l0.227,0.138c0.303,0.188,0.602,0.389,0.896,0.604c2.249,1.605,2.827,2.588,2.662,2.338
					c-0.168-0.235-1.022-1.768-1.688-4.706l-0.023-0.123l0.005,0.002c0.007,0.002,0.002,0.001-0.004-0.001l-0.029-0.006
					c-0.019-0.002-0.037,0-0.055,0.006l-0.025,0.011c-0.029,0.005,0.046-0.003-0.068,0.014l-0.244,0.038l-0.974,0.155
					c-1.283,0.225-2.632,0.4-3.855,0.7c-5.048,1.073-9.61,2.661-13.539,4.215l-2.864,1.158l-2.68,1.119l-5.071,2.13
					c-3.47,1.457-6.942,2.914-10.42,4.374c-11.832,4.975-23.668,10.313-35.41,16.05l-4.412,2.112l-4.37,2.26l-8.745,4.516
					l-17.042,8.802c-3.925,2.003-7.912,3.979-11.959,5.96c-3.962,1.922-7.971,3.866-12.033,5.836
					c-0.035-0.018-0.063-0.028-0.092-0.05c-0.024-0.005-0.02-0.018-0.002-0.038l-0.604,0.137c-0.639,0.151-1.387,0.313-2.598,0.639
					c-0.513,0.129-1.269,0.359-1.92,0.556l-1.153,0.39c-0.384,0.133-0.77,0.27-1.23,0.458l-1.313,0.545
					c-0.463,0.208-0.958,0.449-1.431,0.685c-0.918,0.438-2.001,1.098-2.971,1.705c-2.035,1.36-4.072,3.034-5.758,4.959l-0.635,0.722
					l-0.156,0.183l-0.078,0.091l-0.02,0.023l-0.01,0.011c-13.675-10.887,18.619,14.847,15.288,12.192l-0.049-0.026l-0.391-0.211
					l-0.195-0.106c-0.057-0.076-0.105-0.159-0.147-0.244c-0.083-0.171-0.134-0.355-0.153-0.543c-0.01-0.095-0.012-0.189-0.006-0.284
					l-0.087-0.211c-0.055-0.14-0.102-0.281-0.141-0.424l-0.12-0.511l-0.023-0.138c-0.006-0.049,0.005,0.012,0.01,0.051l0.016,0.121
					c0.008,0.081,0.013,0.164,0.014,0.248l-0.001,0.127l0.015,0.244c0.026,0.346-0.043,0.687-0.064,1.049
					c-0.01,0.182-0.041,0.365-0.095,0.545c-0.026,0.091-0.059,0.18-0.097,0.268c-0.025,0.078-0.018,0.127-0.043,0.19
					c-0.019,0.059-0.048,0.116-0.086,0.17c-0.019,0.027-0.04,0.053-0.063,0.077l-0.037,0.035l-0.02,0.018l-0.01,0.008
					c-2.818,3.257,24.495-28.318,12.932-14.954l-0.114-0.103l-0.456-0.411l-0.113-0.104l-0.058-0.051l-0.146-0.122l-0.926-0.74
					C263.317,420.478,262.674,420.014,262.019,419.572z"/>
			</g>
		</g>
	</g>
</g>
<g>
	<g>
		<g>
			<path fill="#FFFFFF" d="M95.849,60.624l0.439-0.17C96.084,60.51,95.933,60.494,95.849,60.624z"/>
			<path fill="#FFFFFF" d="M59.544,118.81l-0.421-0.066C59.285,118.859,59.428,118.852,59.544,118.81z"/>
			<path fill="#FFFFFF" d="M95.605,114.972c-0.01,0.003,0.127,0.08,0.127,0.08C95.703,114.994,95.65,114.977,95.605,114.972z"/>
			<g>
				<path fill="#FFFFFF" d="M95.328,107.344c0.322-1.532,0.709-3.129,1.391-5.012c0.682-1.873,1.685-4.015,3.23-6.373
					c1.556-2.5,3.791-5.06,6.792-7.144c3.009-2.078,6.83-3.629,11.092-4.115c2.251-0.265,4.583-0.409,6.993-0.49
					c1.18-0.032,2.467-0.1,3.607-0.07l3.479,0.039l3.489-0.018l3.519,0.155c2.354,0.111,4.729,0.022,7.141,0.185
					c1.213,0.044,2.422,0.112,3.627,0.201c1.205,0.091,2.407,0.175,3.599,0.408c2.387,0.408,4.752,0.87,7.113,1.414
					c4.762,1.251,9.459,2.717,14,4.506c2.23,0.801,4.415,1.565,6.678,2.196c1.144,0.297,2.224,0.684,3.348,1.011
					c1.11,0.347,2.25,0.652,3.349,1.029c1.088,0.392,2.179,0.79,3.263,1.208c0.542,0.211,1.085,0.419,1.619,0.646l1.546,0.767
					c1.024,0.525,2.034,1.082,3.018,1.68c0.96,0.63,1.857,1.351,2.736,2.094c0.935,0.809,1.807,1.616,2.744,2.58
					c0.487,0.478,0.817,0.882,1.232,1.32c0.399,0.431,0.658,0.807,1,1.193c0.167,0.19,0.479,0.375,1.008,0.569
					c0.255,0.096,0.444,0.169,0.724,0.251c0.248,0.07,0.506,0.144,0.765,0.217c0.563,0.128,0.957,0.265,1.481,0.395
					c0.392,0.163,0.825,0.314,1.131,0.375c0.28,0.052,0.777-0.474,1.23-1.363c0.383-0.838,0.576-2.03,0.521-2.542
					c0.053-1.704-0.683-4.056-1.799-6.154c-1.108-2.109-2.306-4.01-3.283-5.12c-0.975-1.138-1.836-2.131-2.651-3.037
					c-0.804-0.928-1.636-1.634-2.453-2.391c-0.827-0.739-1.682-1.452-2.645-2.198c-0.975-0.72-2.084-1.413-3.375-2.218l-2.008-1.233
					c-0.675-0.395-1.363-0.753-2.045-1.131c-1.369-0.737-2.729-1.511-4.109-2.219c-2.771-1.37-5.535-2.789-8.327-4.078
					c-2.779-1.383-5.573-2.616-8.352-4.049c-2.795-1.317-5.506-2.827-8.402-4.3c-1.157-0.612-2.344-1.16-3.554-1.657
					c-1.214-0.487-2.429-0.976-3.713-1.289c-2.547-0.685-5.153-1.214-7.77-1.695c-2.652-0.368-5.336-0.62-7.994-0.971l-1.994-0.264
					l-2.014-0.176c-1.341-0.131-2.678-0.292-4.013-0.498c-1.43-0.209-2.93-0.486-4.317-0.669l-4.221-0.546
					c-2.87-0.333-5.842-0.6-8.932-0.679c-6.146-0.176-12.941,0.519-19.584,3.02c-3.521,1.344-7.048,2.921-10.451,4.789
					c-3.399,1.899-6.759,4.106-9.895,6.735c-0.812,0.611-1.541,1.355-2.289,2.072c-0.745,0.722-1.483,1.455-2.214,2.197
					c-1.404,1.551-2.725,3.225-3.996,4.925c-0.587,0.898-1.162,1.809-1.722,2.729c-0.554,0.925-1.132,1.831-1.569,2.838
					c-0.91,1.986-1.862,3.948-2.434,6.097c-2.567,8.294-2.807,17.496-0.479,25.907c2.289,8.433,6.864,15.896,12.36,21.779
					l1.206,1.296l0.607,0.644l0.748,0.678c1.009,0.902,2.038,1.788,3.079,2.653c1.066,0.772,2.15,1.519,3.243,2.254l0.822,0.544
					l0.819,0.463l1.649,0.912c4.386,2.333,8.741,3.904,12.623,5.007c1.263,0.383,2.408,0.646,3.624,0.959
					c1.203,0.301,2.281,0.511,3.43,0.761c1.12,0.242,2.439,0.44,3.652,0.647c1.238,0.224,2.479,0.354,3.722,0.493
					c4.97,0.545,9.942,0.634,14.798,0.375c9.719-0.553,18.868-2.44,27.489-4.475c3.899-0.926,7.71-1.722,11.468-2.451l2.803-0.538
					l2.699-0.479l5.396-0.946c7.187-1.284,14.327-2.746,21.23-5.44c7.311-2.854,17.382-6.073,21.58-15.113
					c1.434-2.402,0.87-5.651-0.071-8.353c0.389,1.108-0.102,1.565-1.049,1.611c-0.236,0.012-0.5-0.003-0.783-0.04
					c-0.271-0.047-0.546-0.131-0.845-0.225c-0.594-0.192-1.248-0.457-1.918-0.759c-2.68-1.208-5.617-3.013-5.982-3.145
					c-4.413-1.592-8.765-1.571-13.132-2.263c-8.458-1.343-16.482-4.032-24.681-2.756c-4.294,0.67-8.53,1.507-12.728,2.462
					c-3.917,0.935-7.829,1.87-11.742,2.805c-7.564,1.789-14.683,3.237-21.469,3.544c-2.875,0.109-5.681,0.078-8.441-0.106
					l-2.059-0.181c-0.684-0.07-1.357-0.184-2.038-0.267c-0.349-0.049-0.66-0.078-1.04-0.142l-1.152-0.2l-1.153-0.198l-1.046-0.212
					c-2.795-0.554-5.006-1.212-6.438-1.873c-0.297-0.185-0.604-0.347-0.923-0.489c-0.246-0.171-0.431-0.341-0.676-0.471
					c-0.225-0.142-0.306-0.338-0.5-0.461l-0.135-0.096l-0.204-0.26l-0.419-0.51c-1.363-1.605-2.133-3.329-2.433-4.924
					C94.88,110.3,95.023,108.814,95.328,107.344z"/>
			</g>
		</g>
	</g>
</g>
<g>
	<g>
		<g>
			<path fill="#FFFFFF" d="M436.057,257.837l-0.541-0.007C435.758,257.854,435.913,257.926,436.057,257.837z"/>
			<path fill="#FFFFFF" d="M490.075,219.487l0.354,0.224C490.33,219.545,490.2,219.496,490.075,219.487z"/>
			<path fill="#FFFFFF" d="M455.471,208.396l-0.076-0.161C455.395,208.316,455.424,208.363,455.471,208.396z"/>
			<g>
				<path fill="#FFFFFF" d="M453.143,214.55c-0.07,0.179-0.335,0.318-0.436,0.534c-0.029,0.113-0.21,0.204-0.29,0.323
					c-0.106,0.114-0.176,0.245-0.282,0.38c-0.145,0.128-0.28,0.267-0.408,0.418c-0.135,0.149-0.22,0.32-0.427,0.476
					c-0.178,0.162-0.35,0.333-0.517,0.517l-0.253,0.282l-0.33,0.276c-0.453,0.372-0.807,0.813-1.377,1.217
					c-0.534,0.413-0.993,0.893-1.638,1.324c-0.625,0.439-1.149,0.948-1.872,1.414l-1.993,1.443l-3.58,2.643
					c-1.065,0.749-2.032,1.375-3.128,1.842c-2.101,0.921-5.301,0.812-8.891-0.897c-0.926-0.422-1.897-0.921-2.873-1.436
					l-3.086-1.678c-1.412-0.728-2.825-1.449-4.255-2.131c-1.493-0.586-2.994-1.15-4.499-1.687
					c-6.138-1.944-12.569-2.346-18.31-1.511c-1.418,0.225-2.831,0.449-4.24,0.672c-1.455,0.229-2.492,0.482-4.479,0.811
					c-3.539,0.637-6.898,1.722-10.022,3.306c-6.204,3.135-11.574,8.206-14.179,14.835c-0.221,0.628-0.478,1.25-0.631,1.898
					c-0.153,0.649-0.293,1.303-0.42,1.958c-0.137,1.326-0.302,2.658-0.173,3.993c-0.004,1.337,0.35,2.647,0.594,3.952
					c0.386,1.31,0.763,2.596,1.175,3.885l0.223,0.72c0.069,0.223,0.161,0.534,0.196,0.612c0.09,0.257,0.203,0.514,0.268,0.775
					c0.144,0.521,0.321,1.045,0.445,1.577c0.105,0.534,0.239,1.07,0.321,1.615c0.061,0.546,0.146,1.094,0.176,1.648
					c0.13,2.215-0.196,4.515-1.13,6.698c-0.813,1.916-2.027,3.711-3.22,5.542c-0.187,0.313-0.354,1.218-0.445,2.339
					c-0.061,0.563-0.117,1.18-0.152,1.801c-0.019,0.314-0.038,0.626-0.057,0.93c-0.018,0.171,0.003,0.266-0.043,0.495
					c-0.033,0.209-0.066,0.414-0.099,0.613c-0.063,0.374-0.113,0.728-0.153,1.055c0.024,0.354-0.023,0.647-0.017,0.93
					c-0.002,0.554,0.056,0.978,0.12,1.253c0.146,0.525,1.599-0.807,3.092-1.838c0.215-0.146,0.428-0.291,0.634-0.432
					c0.184-0.104,0.361-0.203,0.526-0.297c0.331-0.188,0.6-0.355,0.779-0.471c1.602-1.011,3.514-2.412,5.192-3.935
					c1.669-1.519,3.124-3.159,3.876-4.387c1.553-2.467,2.523-4.471,3.225-6.585c0.712-2.114,1.153-4.37,1.21-7.515
					c0.039-0.967-0.018-1.927-0.063-2.888c-0.016-0.482-0.05-0.96-0.109-1.432l-0.038-0.354l-0.017-0.24l-0.031-0.464
					c-0.146-1.695-0.468-3.294-0.082-4.866c0.334-1.562,1.189-2.968,2.297-4.056c2.246-2.186,5.52-3.033,8.245-2.389
					c0.59,0.139,1.183,0.278,1.777,0.417c0.267,0.071,0.521,0.136,0.767,0.187l0.184,0.037c0.076,0.01,0.233,0.008,0.346,0.012
					l0.737,0.004c1.919,0.063,3.79-0.007,5.521,0.08c3.483,0.107,6.649,0.566,9.2,2.216c0.678,0.465,1.358,0.862,1.965,1.468
					l0.923,0.813l0.229,0.198l0.307,0.254l0.78,0.631c2.047,1.677,4.305,3.41,6.875,5.088c2.546,1.674,5.605,3.321,9.186,4.558
					c3.563,1.244,7.685,1.982,11.682,1.936c4.278-0.024,8.208-0.604,11.772-1.313c1.841-0.341,3.458-0.778,5.157-1.192
					c1.618-0.469,3.153-0.852,4.802-1.427c1.638-0.576,3.256-1.082,4.93-1.848l2.486-1.099c0.837-0.426,1.675-0.881,2.506-1.337
					c1.656-0.852,3.33-2.052,4.95-3.187c0.812-0.593,1.612-1.306,2.4-1.978c0.788-0.679,1.564-1.371,2.302-2.193
					c0.733-0.781,1.454-1.573,2.159-2.375c0.68-0.862,1.34-1.75,1.986-2.64c0.663-0.87,1.244-1.827,1.804-2.8
					c0.548-0.977,1.148-1.918,1.602-2.944c1.992-4.048,3.154-8.343,3.834-12.521c0.116-1.025,0.219-2.05,0.311-3.074l0.124-1.534
					l0.018-1.477l-0.004-2.949l-0.208-2.811c-0.298-3.75-0.985-7.165-1.723-10.492c-1.731-7.32-4.094-13.896-6.301-20.03
					c-1.395-3.841-2.901-7.473-4.309-10.847c-1.397-3.375-2.74-6.581-3.863-9.626c-1.096-3.033-2.007-5.944-2.646-8.761
					c-0.241-1.393-0.576-2.796-0.676-4.157l-0.116-1.026l-0.06-0.514l-0.026-0.589l-0.102-2.357
					c-0.158-5.723,1.249-11.478,2.87-17.069c1.65-5.619,3.518-11.126,4.715-17.037c0.621-3.144,1.666-6.75,2.031-10.564
					c0.416-3.798,0.096-7.853-1.938-12.065c-1.011-2.055-3.687-3.959-6.225-5.285c2.079,1.096,0.09,2.236-2.56,3.251
					c-2.596,1.028-5.853,1.979-6.188,2.163c-3.969,2.203-6.678,5.539-9.751,8.643c-6,5.967-12.681,11.689-15.385,20.167
					c-2.835,8.826-4.125,18.238-4.034,27.868c0.006,1.203,0.082,2.419,0.131,3.628l0.091,1.816c0.039,0.62,0.123,1.309,0.187,1.959
					c0.148,1.313,0.26,2.651,0.47,3.942l0.672,3.858c1.035,5.066,2.47,9.857,4.036,14.347c1.343,3.791,2.81,7.347,4.272,10.705
					l4.23,9.483c0.69,1.532,1.267,2.934,1.895,4.402c0.544,1.394,1.161,2.84,1.616,4.181c1.026,2.735,1.752,5.383,2.283,7.832
					c0.576,2.711,0.505,5.123,0.133,6.707C454.215,213.401,453.639,213.965,453.143,214.55z"/>
			</g>
		</g>
	</g>
</g>
<g>
	<g>
		<g>
			<path fill="#FFFFFF" d="M390.929,95.383l-0.243-0.067C390.787,95.366,390.834,95.45,390.929,95.383z"/>
			<path fill="#FFFFFF" d="M404.517,110.006l-0.341-0.208C404.281,109.894,404.402,109.958,404.517,110.006z"/>
			<path fill="#FFFFFF" d="M427.144,138.477l-0.28,0.365C427.024,138.693,427.103,138.579,427.144,138.477z"/>
			<g>
				<path fill="#FFFFFF" d="M442.636,107.966c0.483-4.548-0.002-9.156-1.437-13.453c-0.386-1.064-0.753-2.136-1.265-3.146
					c-0.478-1.026-0.991-2.031-1.597-2.986c-0.296-0.481-0.585-0.966-0.901-1.433l-1.017-1.356
					c-0.354-0.434-0.647-0.936-1.051-1.311l-1.189-1.146c-1.585-1.523-3.173-3.022-4.757-4.489l-0.594-0.549
					c-0.193-0.173-0.415-0.397-0.554-0.476l-0.942-0.655l-1.896-1.278c-2.477-1.735-5.269-3.086-7.988-4.376
					c-1.409-0.655-2.921-1.139-4.371-1.671l-2.188-0.753c-0.727-0.245-1.492-0.403-2.232-0.601l-4.436-1.077l-4.439-0.727
					c-0.733-0.114-1.459-0.248-2.186-0.347l-2.187-0.214c-1.433-0.155-2.868-0.31-4.306-0.464c-1.425-0.079-2.839-0.179-4.243-0.309
					c-0.693-0.058-1.422-0.154-2.081-0.203c-0.639-0.031-1.275-0.073-1.912-0.125c-2.691-0.245-5.377-0.489-8.06-0.733
					c-1.333-0.163-2.693-0.152-4.041-0.212l-4.048-0.115l-4.044-0.063c-1.349,0.015-2.707,0.145-4.059,0.235
					c-2.706,0.217-5.405,0.464-8.09,0.881c-2.702,0.561-5.373,1.021-8.034,1.405c-2.653,0.336-5.334,0.803-8.01,1.25
					c-5.352,0.919-10.732,1.992-16.139,3.544c-5.22,1.497-10.057,4.178-14.606,7.13c-4.571,2.961-8.854,6.169-13.518,8.972
					c-2.503,1.487-5.073,2.934-7.496,4.63c-0.574,0.437-1.874,2.242-2.847,4.269c-0.251,0.499-0.494,1.003-0.717,1.49
					c-0.108,0.245-0.215,0.485-0.318,0.716c-0.049,0.117-0.098,0.231-0.146,0.344l-0.035,0.084l-0.004,0.01l-0.002,0.005
					c0.111-0.138-0.976,1.208-0.516,0.64l-0.001,0.002l-0.005,0.021l-0.01,0.041l-0.037,0.162c-0.009,0.018,0.015-0.011-0.021,0.044
					l-0.095,0.154l-0.18,0.313c-0.115,0.21-0.223,0.425-0.32,0.64c-0.099,0.216-0.188,0.433-0.267,0.649l-0.103,0.301l-0.037,0.153
					c-0.047,0.203-0.089,0.403-0.124,0.601l-0.049,0.292l-0.015,0.2c-0.049,0.587-0.005,0.884,0.037,1.111
					c0.028,0.078,0.057,0.152,0.082,0.222c0.031,0.043,0.069,0.033,0.103,0.053l0.025,0.01c0.455,0.085,0.9,0.169,1.337,0.251
					c0.172,0.032,0.342,0.063,0.51,0.094l0.175,0.026c0.115,0.02,0.229,0.038,0.338,0.057c0.44,0.078,0.834,0.166,1.182,0.254
					c0.632,0.167,0.661,0.181,0.215,0.056c-0.224-0.06-0.567-0.147-1.02-0.239c-0.227-0.045-0.48-0.092-0.759-0.135l-0.224-0.033
					c-0.314-0.06-0.636-0.122-0.963-0.185c-0.063-0.015,0.014-0.005,0.014-0.009c0.147,0.019,0.323-0.066,0.545-0.375
					c0.056-0.08,0.113-0.162,0.173-0.247c0.069-0.122,0.14-0.246,0.212-0.374c0.194-0.342,0.396-0.698,0.604-1.063
					c0.202-0.376,0.443-0.743,0.711-1.074l0.102-0.123c0.026-0.028,0.023-0.013,0.036-0.022l0.056-0.02l0.112-0.04l0.056-0.02
					l0.015-0.005c-0.283,0.351,0.388-0.479,0.319-0.394l0.002,0l0.003-0.001l0.008-0.002l0.03-0.007l0.122-0.031l0.242-0.063
					c0.317-0.086,0.633-0.171,0.931-0.252c0.578-0.168,1.085-0.315,1.393-0.405c1.945-0.64,4.424-1.322,6.633-2.012
					c2.289-0.613,4.311-1.25,5.644-1.708c2.621-1.023,4.59-1.589,6.448-2.3c0.951-0.323,1.878-0.674,2.864-1.092
					c0.999-0.398,2.089-0.815,3.308-1.355c5.091-2.133,10.303-3.723,15.633-4.605c5.328-0.875,10.784-1.007,16.251-0.104
					c0.552,0.09,1.101,0.163,1.647,0.22c0.555,0.077,1.115,0.157,1.67,0.213c1.112,0.118,2.219,0.181,3.322,0.203
					s2.205,0.003,3.306-0.042l1.651-0.084l1.667,0.013c2.221-0.008,4.445-0.016,6.661-0.023c0.555,0.012,1.106-0.001,1.66,0.045
					l1.659,0.185c1.104,0.138,2.201,0.307,3.287,0.52c4.709,0.78,9.325,2.436,13.9,3.651c1.059,0.343,1.927,0.725,2.893,1.045
					l1.409,0.475l1.341,0.57c0.884,0.384,1.817,0.64,2.677,1.023c0.857,0.385,1.725,0.728,2.613,1.024
					c3.69,1.464,6.844,3.879,9.616,6.635c0.669,0.736,1.341,1.455,2.024,2.153l0.128,0.13c0.038,0.04,0.023,0.04,0.038,0.062
					l0.047,0.1l0.091,0.193l0.182,0.362c0.153,0.259,0.175,0.371,0.233,0.525c0.065,0.142,0.089,0.292,0.181,0.428
					c0.145,0.281,0.227,0.597,0.273,0.951c0.015,0.089,0.02,0.179,0.029,0.274c-0.001,0.056,0.02,0.074,0.002,0.164l-0.079,0.358
					c-0.112,0.654-0.329,1.227-0.506,1.832c-0.832,2.297-2.294,4.456-4.89,6.458c-1.512,1.149-3.354,2.223-5.436,3.17
					c-0.498,0.25-1.063,0.463-1.604,0.688c-0.537,0.238-1.102,0.432-1.673,0.612l-1.697,0.565l-0.845,0.284l-0.878,0.213
					c-5.859,1.506-11.994,2.573-18.676,2.854c-1.685,0.029-3.335,0.152-5.069,0.093l-2.577-0.026l-2.575-0.156
					c-3.442-0.143-6.851-0.613-10.237-1.172c-6.131-1.091-11.817-3.678-17.28-6.387c-5.479-2.672-10.748-5.86-16.491-8.137
					c-0.854-0.378-1.747-0.773-2.665-1.18c-0.995-0.445-2.122-0.946-3.221-1.406c-1.25-0.505-2.5-0.994-3.855-1.448
					c-0.727-0.232-1.457-0.451-2.189-0.655c-0.743-0.202-1.428-0.397-2.272-0.552c-0.81-0.159-1.618-0.296-2.421-0.41l-1.198-0.152
					c-0.49-0.055-1.021-0.103-1.523-0.139c-1.017-0.073-2.019-0.104-2.995-0.092l-0.727,0.017l-0.359,0.015l-0.179,0.008
					l-0.104,0.031c-0.271,0.091-0.542,0.182-0.809,0.271c-0.537,0.192-1.067,0.405-1.592,0.643c-0.262,0.119-0.522,0.243-0.78,0.375
					l-0.049,0.024l-0.006,0.003c0.35-1.773-3.072,15.445-1.624,8.161v0.02l-0.001,0.038l-0.007,0.154l-0.028,0.309
					c-0.026,0.206-0.065,0.413-0.119,0.619c-0.135,0.664-0.324,0.98-0.281,0.911c-0.001,0.003-0.009,0.017-0.007,0.014l0.086-0.138
					c0.06-0.087,0.122-0.167,0.188-0.238c0.039-0.045,0.052-0.047,0.114-0.121l0.252-0.297c0.172-0.191,0.352-0.368,0.536-0.53
					c0.094-0.078,0.186-0.155,0.275-0.23c0.195-0.182,0.386-0.36,0.573-0.534c0.38-0.341,0.752-0.651,1.116-0.936
					c0.183-0.139,0.362-0.274,0.538-0.407c0.199-0.145,0.396-0.287,0.588-0.425l0.359-0.284l-0.047,0.028l-0.095,0.055l-0.193,0.112
					c-0.521,0.312-1.115,0.634-1.783,0.89c-1.299,0.574-2.631,1.332-3.819,2.129c0.961-0.681,1.519-0.323,1.563,0.171
					c-0.004,0.087-0.019,0.241-0.07,0.368c-0.065,0.088-0.129,0.292-0.228,0.407c-0.094,0.148-0.187,0.34-0.247,0.533
					c-0.078,0.223-0.077,0.444-0.05,0.711c0.012,0.283,0.155,0.517,0.279,0.812c0.334,0.312,0.485,0.594,0.729,0.892
					c0.44,0.587,0.854,1.165,1.219,1.681c0.359,0.521,0.691,0.959,0.907,1.326c0.21,0.37,0.344,0.616,0.399,0.69
					c2.514,3.434,5.173,5.991,7.514,9.387c0.585,0.841,1.12,1.67,1.683,2.531c0.582,0.886,1.158,1.764,1.732,2.638
					c0.648,0.903,1.293,1.801,1.938,2.698c0.661,0.883,1.344,1.723,2.043,2.57c1.413,1.664,2.857,3.366,4.537,4.788
					c1.672,1.434,3.481,2.76,5.481,3.888c8.476,4.556,17.774,7.649,27.307,9.47c2.371,0.534,4.786,0.804,7.191,1.141
					c1.205,0.149,2.407,0.344,3.616,0.441l3.631,0.268l3.634,0.249c1.214,0.05,2.431,0.064,3.646,0.095
					c2.412,0.094,4.919-0.006,7.395-0.039c8.471-0.243,17.316-1.594,25.98-4.281c2.162-0.699,4.328-1.357,6.441-2.255l3.182-1.276
					c1.056-0.445,2.098-0.95,3.145-1.427c4.192-2.006,8.47-4.441,12.653-7.59c2.5-1.873,4.986-4.014,7.359-6.435
					c2.336-2.471,4.618-5.157,6.52-8.19l0.729-1.124l0.664-1.165c0.437-0.78,0.878-1.564,1.291-2.36
					c0.746-1.61,1.56-3.238,2.135-4.899c0.297-0.802,0.631-1.71,0.941-2.686c0.306-1.055,0.589-2.123,0.849-3.195l0.372-1.612
					l0.26-1.627L442.636,107.966z"/>
			</g>
		</g>
	</g>
</g>
<g>
	<g>
		<g>
			<path fill="#FFFFFF" d="M21.495,176.911l0.04-0.372C21.497,176.703,21.417,176.801,21.495,176.911z"/>
			<path fill="#FFFFFF" d="M18.828,231.665l-0.411-0.081C18.568,231.696,18.707,231.698,18.828,231.665z"/>
			<path fill="#FFFFFF" d="M54.166,228.527l0.055-0.008C54.227,228.502,54.205,228.509,54.166,228.527z"/>
			<g>
				<path fill="#FFFFFF" d="M55.202,220.138c0.081-1.25,0.143-2.5,0.187-3.751c0.037-1.228,0.086-2.564,0.053-3.672
					c-0.04-2.309-0.152-4.617-0.336-6.923c-0.1-1.195-0.183-2.196-0.298-3.268c-0.113-1.06-0.244-2.121-0.395-3.184
					c-0.146-1.056-0.33-2.143-0.5-3.181c-0.132-0.978-0.285-1.962-0.458-2.953c-0.178-1.021-0.375-2.051-0.583-3.089l-0.318-1.564
					l-0.236-1.639c-0.328-2.201-0.598-4.413-0.792-6.638c-0.075-1.167-0.144-2.281-0.176-3.494l-0.017-1.9l0.014-2.04l0.034-2.155
					l0.004-2.304c-0.002-1.522-0.075-3.074-0.104-4.56l-0.136-2.275c-0.041-0.766-0.089-1.519-0.178-2.196l-0.457-4.184
					c-0.125-1.401-0.413-2.751-0.617-4.125c-0.234-1.365-0.429-2.746-0.752-4.074c-1.102-5.401-2.75-10.558-4.844-15.496
					c-2.188-4.906-4.07-9.726-5.868-14.49l-0.33-0.899l-0.256-0.798l-0.49-1.579c-0.318-1.055-0.636-2.111-0.955-3.169
					c-0.525-2.142-0.856-4.332-1.302-6.504c-0.188-2.139-0.661-4.222-1.103-6.336c-0.162-1.065-0.348-2.132-0.546-3.205
					c-0.173-1.075-0.466-2.145-0.53-3.241c-0.52-4.354-0.659-8.875,0.646-13.213c0.36-1.155,0.774-2.291,1.194-3.415
					c0.195-0.557,0.437-1.127,0.699-1.707l0.736-1.727c0.194-0.469,0.174-1.83,0.046-3.424l-0.044,0.054
					c-0.005-0.024,0.009-0.131,0.013-0.192l0.031-0.433c0.007-0.269,0.004-0.422-0.005-0.641c-0.009-0.201-0.019-0.418-0.044-0.553
					c-0.011-0.08-0.033-0.088-0.049-0.136c-0.018-0.039-0.034-0.087-0.06-0.077l-1.529-0.346l-0.861-0.191l-0.7-0.174
					c-0.384-0.109-0.767-0.218-1.146-0.326c-0.274-0.08-0.544-0.175-0.809-0.284c-0.207-0.072-0.36-0.126-0.537-0.209l-0.251-0.129
					l-0.169-0.08c-0.107-0.056-0.211-0.122-0.31-0.199c-0.061-0.035-0.116-0.073-0.17-0.122l-0.078-0.078l-0.026-0.021
					c-0.017-0.017-0.035-0.038-0.051-0.064c0.024,0.034,0.015,0.025,0.048,0.102c0.055,0.121,0.048,0.165,0.084,0.327
					c0.04,0.175,0.051,0.339,0.041,0.489c0.01,0.2,0.018,0.441-0.003,0.633c-0.015,0.212-0.063,0.342-0.078,0.606
					c-0.05,0.463-0.138,0.835-0.218,1.114c-0.148,0.424,0.033,0.06,0.186-0.858c0.047-0.536,0.159-0.872,0.115-1.423
					c0.005-0.199,0.005-0.364-0.045-0.57c-0.031-0.162-0.04-0.239-0.101-0.358c-0.099-0.213,0.042,0.359,2.019,1.014l0.186,0.061
					l0.087,0.027l-0.014-0.006c-0.019-0.007-0.037-0.018-0.056-0.02l-0.117,0.018c-0.077,0.001-0.156,0.058-0.229,0.1
					c-0.147,0.097-0.274,0.216-0.375,0.342c-0.129,0.169-0.262,0.344-0.409,0.536c-0.075,0.095-0.147,0.193-0.231,0.33
					c-0.079,0.112-0.178,0.311-0.233,0.316c-1.293,1.352-2.74,3.016-4.027,4.64c-0.666,0.807-1.206,1.622-1.679,2.38
					c-0.475,0.757-0.875,1.456-1.163,2.042c-0.628,1.319-1.237,2.466-1.662,3.559c-0.423,1.093-0.792,2.111-1.125,3.143
					c-0.333,1.033-0.634,2.079-0.913,3.236c-0.202,1.167-0.383,2.444-0.554,3.931c-0.454,3.069-0.433,6.158-0.554,9.261
					l-0.036,1.164l0.049,1.16l0.093,2.328l0.083,2.338c0.029,0.781,0.026,1.569,0.131,2.34c0.16,1.552,0.309,3.115,0.441,4.693
					c0.077,0.786,0.107,1.589,0.21,2.374l0.336,2.355c0.215,1.58,0.411,3.182,0.585,4.812c0.165,1.535,0.278,2.894,0.364,4.365
					c0.145,2.343,0.457,4.581,0.961,6.789c0.418,2.193,1.082,4.355,1.604,6.485c1.201,4.268,2.192,8.494,2.344,12.725
					c-0.043,2.276-0.024,4.545-0.299,6.753c-0.185,2.262-0.458,4.336-0.898,5.912c-0.171,0.811-0.459,1.589-0.672,2.361
					l-0.422,1.374l-0.449,1.583l-0.458,1.75l-0.452,1.951c-0.292,1.275-0.525,2.705-0.733,4.065
					c-0.234,1.465-0.418,2.932-0.67,4.392c-0.115,0.738-0.264,1.444-0.365,2.207l-0.314,2.292l-0.685,4.589
					c-0.238,1.534-0.498,3.092-0.626,4.5c-0.316,2.865-0.65,5.847-0.86,8.64c-0.19,2.704-0.305,5.409-0.273,8.12
					c-0.023,2.471-0.007,4.938,0.027,7.415l0.011,0.987l-0.003,1.616c-0.012,1.086,0.049,2.137,0.131,3.181
					c0.06,1.06,0.192,2.068,0.33,3.076c0.122,1.025,0.313,1.982,0.498,2.952c0.173,0.985,0.411,1.888,0.632,2.818
					c0.111,0.466,0.226,0.925,0.356,1.36l0.499,1.76c0.366,1.276,0.784,2.369,1.169,3.56c0.382,1.172,0.902,2.276,1.342,3.416
					c1.925,4.461,4.848,8.387,8.461,11.538c4.26,3.658,9.511,6.007,15.078,7.171c2.807,0.578,5.627,0.858,8.589,0.967l1.948,0.042
					l1.735-0.031l1.738-0.047c0.567-0.027,1.099-0.08,1.65-0.121c5.565-0.442,10.267-1.605,14.111-2.56l11.122-2.747l11.523-2.886
					c3.783-0.897,7.486-1.693,11.25-2.469c0.849-0.173,1.699-0.332,2.549-0.479l1.276-0.212l0.639-0.101
					c0.207-0.031,0.483-0.077,0.46-0.058c0.379,0.035,0.769,0.104,0.899,0.278c0.369,0.318,0.525,0.807,0.464,1.247
					c-0.048,0.439-0.298,0.725-0.473,0.918c-0.185,0.187-0.173,0.088,0.187-0.019l0.076-0.019c0.337-0.036,0.631-0.071,1.639,0.499
					l0.096,0.059c0.016,0.015,0.035,0.01,0.053,0.013l0.028,0.002c0.005,0.024,0.005,0.069,0.007,0.104l0.06,0.872
					c0.047,0.585,0.111,1.181,0.193,1.769c0.167,1.202,0.405,2.392,0.744,3.633c0.69,2.452,1.702,4.981,3.515,7.921
					c0.933,1.211,2.31,1.867,3.793,2.16c1.504,0.279,3.098,0.227,4.532,0.071c-0.59,0.064-1.008-0.038-1.285-0.279
					c-0.251-0.254-0.339-0.658-0.247-1.155c0.09-0.491,0.339-1.068,0.713-1.717c0.374-0.615,0.856-1.193,1.396-1.728
					c2.152-2.13,5.099-3.749,5.369-4.018c0.849-0.759,1.611-1.546,2.324-2.356l0.525-0.612c0.178-0.24,0.366-0.526,0.546-0.789
					c0.362-0.54,0.717-1.104,1.074-1.683c1.42-2.325,2.825-4.918,4.367-7.7c1.337-2.406,2.651-4.946,3.713-7.51
					c0.884-2.218,1.596-4.454,2.015-6.604c0.412-2.164,0.615-4.22,0.241-6.373c-0.179-1.07-0.495-2.151-0.972-3.19
					c-0.464-1.043-1.094-2.015-1.715-2.831c-0.622-0.811-1.242-1.444-1.808-1.979c-0.268-0.257-0.58-0.51-0.915-0.759l-0.5-0.373
					c-0.161-0.122-0.336-0.246-0.575-0.379c-1.126-0.688-2.503-1.448-4.241-2.058c-1.642-0.836-3.832-0.61-5.882-0.698l-1.56-0.025
					c-0.514-0.018-1.074,0.027-1.496-0.12l-2.73-0.624l-2.752-0.608l-2.867-0.257l-2.882-0.248
					c-0.969-0.037-1.957,0.061-2.938,0.087l-2.954,0.136c-0.501,0.001-0.971,0.09-1.444,0.169l-1.423,0.234l-2.851,0.476
					l-1.387,0.235l-0.794,0.15l-3.174,0.62c-4.222,0.847-8.459,1.758-12.646,2.703c-4.052,0.977-8.109,1.955-12.177,2.936
					l-5.186,1.248c-1.555,0.381-3.938,0.97-5.571,1.422c-3.566,0.968-6.45,1.766-8.688,2.167c-1.128,0.212-2.066,0.317-2.881,0.365
					c-0.11,0.009-0.202,0.024-0.327,0.029l-0.205,0.001c-0.095,0.001-0.021-0.003-0.04-0.002c0.017-0.002,0.029,0.02-0.018,0.015
					c-0.061,0.004-0.122,0.004-0.183,0c-0.242-0.014-0.489-0.114-0.61-0.33c-0.153-0.265,0.002-0.666,0.213-0.882
					c-0.159-1.225-0.177-2.256-0.116-3.083c0.03-0.197,0.041-0.397,0.057-0.586c0.043-0.172,0.074-0.343,0.092-0.513L55.202,220.138
					z"/>
			</g>
		</g>
	</g>
</g>
<g>
	<g>
		<g>
			<path fill="#FFFFFF" d="M278.092,199.21l0.063-0.027C278.124,199.173,278.1,199.113,278.092,199.21z"/>
			<path fill="#FFFFFF" d="M250.335,177.384l0.152-0.382C250.361,177.124,250.332,177.259,250.335,177.384z"/>
			<path fill="#FFFFFF" d="M246.685,221.396l-0.001,0.077C246.692,221.481,246.69,221.45,246.685,221.396z"/>
			<g>
				<path fill="#FFFFFF" d="M247.063,223.367c-0.047,0.172-0.031-0.054,0.319-0.301c0.044-0.031,0.094-0.063,0.15-0.093
					c0.09,0.053-0.19-0.289-0.072-0.213l0.894,0.862l0.917,0.848l1.087,0.903l1.104,0.872c0.364,0.283,0.731,0.563,1.196,0.865
					c0.88,0.588,1.775,1.147,2.678,1.672c0.956,0.53,2.056,1.031,3.094,1.481c1.017,0.465,2.188,0.829,3.354,1.146
					c1.168,0.307,2.313,0.621,3.504,0.728c1.218,0.145,2.436,0.235,3.633,0.272c1.143-0.041,2.271-0.137,3.385-0.266l0.83-0.105
					l0.412-0.058l0.103-0.015l0.052-0.008l0.013-0.002c-0.6,0.023-0.163,0.006-0.296,0.01l0.011-0.004l0.088-0.03l0.698-0.242
					l0.697-0.244l0.499-0.225l0.505-0.228c0.169-0.076,0.522-0.155,0.773-0.233c0.567-0.159,1.041-0.303,1.763-0.484
					c1.255-0.331,2.796-0.732,4.428-1.25c0.892-0.3,1.72-0.576,2.62-0.936c0.955-0.404,1.886-0.826,2.8-1.283
					c0.966-0.542,1.909-1.119,2.814-1.718l0.17-0.112c-0.159,0.099,1.424-0.888,0.755-0.472l0.004-0.004l0.008-0.008l0.016-0.017
					l0.031-0.033l0.125-0.132l0.252-0.263l0.507-0.519l0.52-0.515c0.411-0.368,0.815-0.744,1.213-1.127s0.787-0.771,1.168-1.166
					c0.355-0.38,0.811-0.823,1.04-1.155c0.549-0.708,1.086-1.422,1.611-2.139c0.532-0.711,0.944-1.49,1.408-2.238
					c1.862-3.208,3.024-6.656,3.502-9.955c0.476-3.302,0.4-6.496-0.079-9.531c-0.512-3.024-1.457-5.893-2.773-8.59
					c-0.348-0.668-0.705-1.33-1.072-1.983c-0.4-0.644-0.829-1.275-1.257-1.897c-0.409-0.627-0.93-1.219-1.418-1.809l-0.751-0.871
					c-0.226-0.245-0.371-0.366-0.563-0.553c-5.893-5.513-10.093-11.948-13.984-18.656c-0.91-1.627-1.991-3.14-3.154-4.613
					c-1.094-1.496-2.244-2.96-3.392-4.443c-1.185-1.468-2.167-3.024-3.082-4.63c-0.898-1.61-1.729-3.272-2.115-5.097
					c-0.442-1.939-0.723-3.919-1.023-5.86c-0.105-0.939-3.734-4.715-5.027-5.338c-0.585-0.286-1.86,3.167-2.167,4.164
					c-0.502,1.595-1.073,3.645-1.416,5.584c-0.299,1.919-0.47,3.761-0.418,4.952c0.054,1.204,0.102,2.258,0.176,3.225
					c0.114,0.947,0.241,1.812,0.403,2.668c0.333,1.708,0.772,3.402,1.607,5.616c3.539,9.132,8.13,17.375,11.04,27.056
					c0.582,1.979,1.432,3.784,2.43,5.482c0.497,0.854,1.028,1.688,1.581,2.509l0.844,1.222l0.215,0.303
					c0.077,0.107,0.062,0.106,0.098,0.164l0.153,0.256c0.238,0.302,0.406,0.725,0.631,1.086c0.161,0.42,0.374,0.812,0.473,1.264
					c0.163,0.425,0.176,0.891,0.241,1.326c-0.028,0.442-0.011,0.881-0.17,1.273c-0.267,0.852-0.705,1.548-1.222,1.781
					c-0.086,0.1-0.262,0.085-0.359,0.117l-0.146,0.031l-0.174-0.049c-0.038-0.009-0.123-0.047-0.102-0.031
					c0.148,0.089,0.187,0.104,0.239,0.13c0.094,0.042,0.285,0.18,0.34,0.226c-0.012-0.012,0.001-0.008,0.031,0.019l0.013,0.011
					l0.02-0.099c0.016-0.071,0.034-0.141,0.058-0.208c0.047-0.136,0.109-0.265,0.186-0.384c0.037-0.06,0.078-0.116,0.123-0.17
					l0.067-0.079c0.036-0.029-0.116,0.001-0.166,0l-0.884,0.066l-0.885,0.067l-0.221,0.017l-0.11,0.008l-0.028,0.002l-0.014,0.001
					l-0.007,0c-3.462-4.102,4.709,5.589,3.867,4.589l-0.02-0.03c-0.052-0.081-0.1-0.162-0.143-0.242
					c-0.085-0.161-0.154-0.319-0.207-0.473l-0.037-0.114c-0.016-0.045-0.006-0.047-0.064-0.172c-0.085-0.196-0.163-0.393-0.234-0.59
					c-0.142-0.394-0.255-0.79-0.339-1.183l-0.058-0.295l-0.027-0.15l-0.079-0.283c-0.104-0.377-0.197-0.756-0.28-1.135
					s-0.156-0.758-0.219-1.138l-0.087-0.569c-0.009-0.09,0.007-0.029,0.01-0.049c0.06,0-0.051-0.013-0.101-0.014
					c-0.13-0.007-0.176,0.024-0.519,0.033l-0.438,0.025c-0.126,0.01-0.421,0.004-0.624,0.004l-1.704-0.031l-1.875-0.048
					l-0.412-0.014l-0.206-0.008l-0.013,0l-0.007,0c-0.067,1.4,0.142-3.134-0.153,3.139l0.004,0.021l0.006,0.043l0.011,0.087
					c0.028,0.234,0.041,0.478,0.036,0.73c-0.056,2.095-0.674,1.702,1.058-0.793c0.519-0.831,1.094-1.542,1.757-2.221l0.647-0.785
					l0.016-0.052c0.009-0.032,0.015-0.058,0.016-0.079c0.007-0.007-0.045-0.143-0.068-0.202l-0.047-0.112l-0.025-0.055l-0.014-0.026
					l-0.135-0.193l-0.581-0.827l-0.406-0.68l-0.819-1.361c-2.174-3.642-4.421-7.366-6.982-10.213
					c-2.511-2.788-5.156-4.831-7.861-6.211c-1.349-0.729-2.723-1.215-4.137-1.673c-1.395-0.453-3.036-0.69-4.752-0.763
					c-1.733-0.075-3.359,0.184-4.642,0.536c-0.649,0.161-1.27,0.392-1.893,0.614c-0.609,0.189-1.272,0.497-1.932,0.798
					c-2.633,1.195-5.566,3.032-8.383,5.787c-0.801,0.872-1.62,1.691-2.409,2.6c-0.792,0.898-1.575,1.826-2.379,2.696
					c-0.811,0.859-1.593,1.774-2.434,2.584l-1.257,1.222c-0.417,0.408-0.819,0.805-1.362,1.255c-0.33,0.292-0.305,0.256-0.407,0.337
					l-0.237,0.18c-0.159,0.124-0.316,0.245-0.462,0.332c-0.29,0.176-0.606,0.431-0.863,0.551c-0.54,0.311-1.029,0.543-1.365,0.622
					c-0.081,0.02-0.159,0.043-0.233,0.071c-0.071,0.035,0.001-0.02,0.042-0.048c0.044-0.031,0.09-0.058,0.138-0.083
					c0.096-0.048,0.198-0.082,0.304-0.101l-0.824,0.226c-0.086-0.021-0.123,0.117-0.162,0.245l-0.124,0.366l-0.124,0.366
					l-0.062,0.183c1.129,2.929-2.532-6.541,2.529,6.57l0.003,0.01l0.006,0.021l0.013,0.041l0.024,0.083
					c0.065,0.221,0.119,0.45,0.162,0.684c0.043,0.231,0.07,0.501,0.104,0.646c0.069,0.321,0.065,0.807,0.085,0.995
					c0.005,0.127,0.001,0.26-0.013,0.397c-0.006,0.102-0.004,0.152-0.016,0.238c-0.037,0.216-0.029,0.191-0.05,0.269
					c-0.018,0.057,0.01-0.035,0.012-0.035c0.016-0.041,0,0.01,0.039-0.089c0.063-0.142,0.11-0.214,0.256-0.46l0.216-0.304
					c0.095-0.136,0.195-0.263,0.3-0.379l0.378-0.425c0.143-0.155,0.276-0.268,0.441-0.427c0.174-0.174,0.353-0.337,0.538-0.489
					l0.281-0.221l0.322-0.268c0.218-0.173,0.44-0.334,0.667-0.483c0.233-0.161,0.498-0.359,0.751-0.52
					c0.499-0.304,1.074-0.672,1.659-0.989c0.566-0.283,1.229-0.677,1.855-0.945c0.313-0.131,0.657-0.317,0.988-0.458l0.444-0.192
					l-0.004,0.007c-0.014-0.031-0.054-0.101-0.103-0.23c-0.098-0.257-0.224-0.686-0.324-1.169c-0.102-0.483-0.179-1.029-0.221-1.513
					c-0.018-0.236-0.032-0.464-0.035-0.627c-0.009-0.143-0.004-0.189-0.008-0.288l0.219-1.318c0.088-0.455,0.086-0.891,0.232-1.366
					l0.387-1.415c0.117-0.469,0.238-0.942,0.456-1.449c1.318-3.745,4.26-7.481,7.538-11.889c1.563-2.042,3.504-4.996,4.796-6.842
					c1.406-2.104,2.56-4.266,3.789-6.764c0.61-1.306,1.311-2.706,1.959-4.201c0.712-1.548,1.389-3.202,1.863-4.94
					c0.237-0.87,0.427-1.763,0.55-2.678c0.124-0.919,0.208-1.912,0.189-2.893c-0.03-1.977-0.409-4.025-1.287-6.133
					c-0.855-2.05-3.397-4.097-5.824-5.618c3.967,2.52-7.952,3.025-8.577,3.156c-3.922,0.994-6.727,3.094-10.021,4.739
					c-3.181,1.68-6.584,3.01-9.709,4.794c-1.559,0.912-3.065,1.898-4.461,3.014c-0.698,0.558-1.369,1.148-2.004,1.777
					c-0.612,0.599-1.119,1.144-1.618,1.778c-3.068,3.922-6.182,8.551-8.899,14.206c-2.708,5.637-4.954,12.351-5.825,19.779
					c-0.187,1.607-0.26,3.329-0.25,4.737c0.008,1.453,0.075,2.836,0.202,4.201c0.257,2.731,0.708,5.423,1.489,8.324
					c0.677,2.463,1.602,5.093,3.176,8.03c0.818,1.489,1.795,3.045,3.105,4.674c1.348,1.646,2.977,3.334,5.141,4.917
					c2.172,1.582,4.818,2.962,7.699,3.827c2.886,0.85,5.829,1.136,8.49,1.006c2.598-0.159,4.879-0.616,6.912-1.286l1.02-0.341
					l0.414-0.146l0.621-0.234l1.235-0.491l1.221-0.521l0.589-0.266l0.433-0.22l1.719-0.9c1.141-0.612,2.098-1.244,3.139-1.888
					c1.899-1.282,3.667-2.604,5.21-3.91l0.581-0.49l0.145-0.123c0.038-0.032-0.003,0.004-0.001,0.002l-0.051,0.041
					c-0.048,0.033,0.018-0.019,0.022-0.024l0.114-0.09c0.077-0.056,0.153-0.104,0.229-0.134c0.187-0.072,0.366,0.054,0.459,0.34
					C247.161,222.736,247.114,223.225,247.063,223.367z"/>
			</g>
		</g>
	</g>
</g>
<g>
	<g>
		<g>
			<path fill="#FFFFFF" d="M391.091,291.585l0.048-0.122C391.105,291.512,391.055,291.529,391.091,291.585z"/>
			<path fill="#FFFFFF" d="M382.724,307.723l-0.197-0.134C382.583,307.652,382.654,307.693,382.724,307.723z"/>
			<path fill="#FFFFFF" d="M400.111,320.246l-0.02,0.109C400.121,320.313,400.123,320.278,400.111,320.246z"/>
			<g>
				<path fill="#FFFFFF" d="M404.256,314.066c1.617-2.897,2.626-6.088,2.969-9.558c0.143-1.703,0.14-3.486,0.268-5.234
					c0.125-1.748,0.467-3.46,1.148-4.984c1.485-3.236,3.343-6.286,4.398-9.878c0.533-1.786,1.259-3.476,2.096-5.103
					c0.849-1.611,1.775-3.208,2.705-4.852c0.452-0.788,0.793-1.63,1.085-2.492c0.275-0.877,0.486-1.787,0.719-2.68
					c0.46-1.792,0.998-3.52,1.992-5.095c0.551-0.831,1.231-1.608,1.831-2.432c0.074-0.101,0.109-0.347,0.116-0.669
					c0.003-0.16-0.002-0.34-0.013-0.529l-0.005-0.072l-0.003-0.036v-0.009v-0.005c-0.038,0.12,0.324-1.048,0.171-0.554v-0.001
					l-0.001-0.002l-0.004-0.018l-0.033-0.141l-0.073-0.285c-0.058-0.193-0.115-0.387-0.171-0.571l-0.046-0.139l-0.044-0.211
					c-0.033-0.14-0.065-0.273-0.096-0.402c-0.134-0.508-0.286-0.895-0.417-1.087c-0.119-0.175-0.586,0.236-1.08,0.662
					c-0.487,0.49-1.025,0.735-1.251,0.88c-0.092,0.057-0.187,0.115-0.283,0.176l-0.146,0.092l-0.073,0.047l-0.037,0.024
					l-0.019,0.012l-0.01,0.006l-0.002,0.001c0.01-0.033-0.092,0.296-0.05,0.156l-0.001,0.001l-0.005,0.003
					c-0.214,0.106-0.436,0.218-0.662,0.331c-0.447,0.229-0.899,0.469-1.327,0.706c-0.855,0.477-1.609,0.942-2.022,1.297
					c-0.839,0.716-1.433,1.236-1.97,1.786c-0.559,0.542-1.039,1.12-1.605,1.954c-0.578,0.858-1.152,1.712-1.726,2.563
					c-0.606,0.837-1.228,1.66-1.879,2.462c-1.283,1.605-2.77,3.114-4.607,4.44c-1.464,1.067-2.405,2.49-3.267,3.977
					c-0.852,1.478-1.621,3.023-2.779,4.354c-1.249,1.432-2.628,2.786-3.905,4.269c-1.277,1.469-2.477,2.974-3.3,4.752
					c-1.813,3.813-4.618,6.708-6.22,10.324c-1.571,3.561-2.821,7.221-4.551,10.747c-0.506,1.078-1.03,2.147-1.575,3.208
					l-0.412,0.794l-0.104,0.198c-0.04,0.076-0.073,0.133-0.073,0.134l-0.071,0.107c-0.096,0.144-0.195,0.28-0.298,0.409
					c-0.604,0.807-0.53,0.927-0.838,1.293c-0.303,0.311-0.744,0.187-1.09-0.051c-0.081-0.055-0.156-0.138-0.216-0.234l-0.041-0.076
					c-0.01-0.009,0.007-0.008-0.023-0.024l-0.125-0.06l-0.248-0.12l-0.988-0.487c-1.335-0.656-2.426-1.255-3.143-1.765
					c-0.103-0.065-0.16-0.124-0.243-0.185c-0.079-0.061-0.164-0.122-0.173-0.154c-0.064-0.078,0.001-0.112-0.002-0.163
					c0.027-0.091,0.063-0.161,0.089-0.205c0.042-0.081,0.09-0.077-0.095,0.045c-0.09,0.055-0.174,0.088-0.313,0.124
					c-0.07,0.018-0.154,0.034-0.264,0.051l-0.085,0.013c-0.018-0.006-0.024,0.023-0.054-0.011l-0.1-0.141
					c-0.136-0.187-0.277-0.37-0.427-0.551c-0.351-0.474-0.719-0.913-1.168-1.386c-0.247-0.273-0.505-0.533-0.771-0.776
					c-0.274-0.254-0.513-0.439-0.876-0.741c-0.338-0.271-0.686-0.518-1.039-0.735c-0.177-0.108-0.355-0.21-0.534-0.304
					c-0.178-0.087-0.346-0.119-0.521-0.172c-0.704-0.178-1.383-0.309-2.147-0.252c-1.469,0.082-3.051,1.292-4.315,2.474
					c0.518-0.487,0.814-0.438,0.959-0.098c0.069,0.172,0.11,0.402,0.096,0.688c-0.028,0.3-0.094,0.637-0.188,0.979
					c-0.165,0.663-0.544,1.446-0.861,1.954c-0.315,0.514-0.638,0.896-0.67,0.965c-0.497,0.886-0.859,1.641-1.131,2.462
					c-0.154,0.364-0.23,0.909-0.303,1.447c-0.077,0.54-0.137,1.093-0.189,1.665c-0.21,2.204-0.141,4.636,0.697,6.896
					c0.813,2.258,2.358,4.362,4.674,5.761c0.6,0.366,1.268,0.727,1.734,0.972l0.696,0.37l0.64,0.319l1.213,0.573l1.083,0.482
					l1.824,0.8l3.853,1.862c2.69,1.199,5.295,1.778,7.822,1.786c0.316-0.007,0.633,0.006,0.949-0.017l0.949-0.108
					c0.635-0.032,1.259-0.244,1.887-0.397l1.914-0.507c0.614-0.234,1.192-0.591,1.779-0.877c2.013-0.989,3.624-2.471,5.011-4.186
					c0.688-0.866,1.315-1.833,1.872-2.863l1.321-3.146l1.324-3.131l0.666-1.561l0.428-0.949c0.508-1.099,1.032-2.191,1.582-3.271
					C400.847,319.501,402.711,316.837,404.256,314.066z"/>
			</g>
		</g>
	</g>
</g>
<g>
	<g>
		<g>
			<path fill="#FFFFFF" d="M341.021,328.857l0.009-0.015C341.019,328.838,340.996,328.807,341.021,328.857z"/>
			<path fill="#FFFFFF" d="M337.873,329.285l0.059-0.241C337.908,329.142,337.891,329.211,337.873,329.285z"/>
			<path fill="#FFFFFF" d="M329.012,349.493l-0.121-0.015C328.94,349.506,328.978,349.507,329.012,349.493z"/>
			<g>
				<path fill="#FFFFFF" d="M336.938,351.535l0.723,0.024l0.73-0.062c0.486-0.048,0.974-0.106,1.458-0.176s0.968-0.149,1.446-0.239
					c0.469-0.1,0.91-0.243,1.356-0.387c0.772-0.291,1.37-0.545,2.101-0.981c0.703-0.421,1.355-0.858,2.002-1.4
					c0.688-0.591,1.312-1.205,1.919-1.858c0.651-0.72,1.258-1.436,1.819-2.14c0.523-0.708,1.046-1.413,1.565-2.116
					c0.477-0.711,1.001-1.326,1.518-1.945c1.102-1.302,2.119-2.666,2.832-4.194c0.181-0.381,0.352-0.765,0.511-1.151
					c0.149-0.385,0.241-0.761,0.347-1.146c0.099-0.384,0.185-0.77,0.254-1.157c0.05-0.378,0.063-0.749,0.071-1.125
					c0.025-2.993,0.47-5.394,0.777-7.909c0.172-0.86-0.208-1.559-0.37-2.267c-0.046-0.176-0.11-0.375-0.126-0.541
					c-0.008-0.159-0.006-0.319,0.015-0.477c0.021-0.156,0.059-0.31,0.122-0.452c0.067-0.14,0.212-0.235,0.356-0.329
					c0.225-0.129,0.493-0.217,0.735-0.296l-1.241,1.429l0.565-0.131c0.29-0.076,0.534-1.95,0.358-2.588
					c-0.078-0.289-1.597-0.875-2.005-1.021c-0.814-0.293-1.831-0.604-2.649-0.83l-0.071,0.082c-0.557,0.11-1.038,0.245-1.329,0.384
					c-0.761,0.357-1.327,0.686-1.731,1.095c-0.413,0.402-0.823,0.868-1.134,1.549c-0.295,0.695-0.64,1.444-0.86,2.15l-0.349,1.071
					c-0.119,0.348-0.249,0.771-0.373,0.99c-0.258,0.525-0.54,1.047-0.911,1.528c-0.396,0.463-0.844,0.907-1.394,1.291
					c-0.468,0.285-0.766,0.575-0.964,0.883c-0.208,0.295-0.355,0.549-0.445,0.846c-0.211,0.522-0.356,1.013-0.859,1.133
					c-0.256,0.085-0.611,0.072-0.873,0.08c-0.314-0.031-0.6-0.082-0.845-0.138c-0.535-0.149-0.861-0.288-1.039-0.177
					c-0.048,0.03-0.101,0.051-0.156,0.065c-0.083,0.011-0.229,0.004-0.339-0.005c-0.125-0.012-0.226-0.019-0.364-0.045l-0.452-0.096
					c-0.267-0.048-0.619-0.132-0.952-0.163c-0.147-0.063-0.209-0.089-0.268-0.046c-0.123,0.1-0.28,0.28-0.486,0.435
					c-0.2,0.15-0.457,0.249-0.624,0.144c-0.205-0.103-0.306-0.375-0.28-0.666c0.018-0.186,0.008-0.313-0.026-0.423
					c-0.017-0.056-0.04-0.104-0.068-0.152l-0.044-0.073l-0.025-0.036c-0.01-0.016-0.008,0-0.052-0.108
					c-0.534-1.214-1.134-2.715-1.695-4.487c-0.496-1.544-0.603-3.389-1.099-5.514c-0.502-2.095-1.418-4.609-3.808-6.875
					l-7.066-6.699l-6.084,3.604c-0.117,0.069-0.234,0.145-0.35,0.226c-1.378,0.966-3.384,1.897-3.057,6.587
					c0.08,1.141,0.679,2.995,1.291,4.601c-1.004-2.635,2.765,2.204,2.984,2.413c1.329,1.271,2.399,1.635,3.58,2.398
					c0.797,0.516,1.604,1.117,2.396,1.684c-2.601-0.612-5.202-1.224-7.808-1.837c-0.23,0.331-0.469,0.631-0.7,0.896l-0.34,0.368
					l-0.312,0.383l-0.506,0.607c-0.131,0.209-0.222,0.391-0.259,0.536c-0.228,0.974,0.003,2.195,0.445,3.696
					c0.449,1.501,1.1,3.246,1.896,5.32l0.391,0.97l0.444,1.018c0.303,0.674,0.66,1.316,0.99,1.974
					c0.314,0.669,0.739,1.26,1.113,1.884c0.366,0.632,0.806,1.201,1.242,1.771c1.763,2.262,3.881,4.174,6.348,5.586
					C329.784,350.502,333.194,351.58,336.938,351.535z"/>
			</g>
		</g>
	</g>
</g>
<g>
	<g>
		<g>
			<path fill="#FFFFFF" d="M304.304,334.241l-0.106-0.121C304.243,334.172,304.26,334.191,304.304,334.241z"/>
			<path fill="#FFFFFF" d="M304.304,334.109l-0.025,0.039C304.303,334.112,304.307,334.105,304.304,334.109z"/>
			<path fill="#FFFFFF" d="M292.676,346.499l-0.086-0.035C292.616,346.497,292.645,346.505,292.676,346.499z"/>
			<g>
				<path fill="#FFFFFF" d="M302.247,351.747c0.528,0.062,1.351,0.037,2.046-0.023c0.722-0.063,1.441-0.18,2.135-0.342
					c-1.961,0.003-3.922,0.007-5.875,0.01c1.071,0.255,2.229,0.151,3.474-0.331l4.111,0.223c0.809-0.266,1.586-0.598,2.307-0.981
					c0.653-0.385,1.233-0.818,1.787-1.274c0.527-0.454,0.896-0.907,1.299-1.38l0.283-0.354l0.213-0.333l0.402-0.668
					c0.281-0.456,0.452-0.866,0.616-1.266c0.676-1.62,0.937-2.905,1.448-3.87c1.079-2.044,1.968-3.658,1.965-5.413
					c-0.012-0.424,0.028-0.805,0.1-1.13c0.136-0.47,0.36-1.039,0.577-1.527c0.407-1.003,0.88-1.956,1.271-2.944
					c0.208-0.478,0.261-0.988,0.246-1.503c-0.008-0.516-0.065-1.035-0.153-1.541c-0.137-1.018-0.293-1.969,0.17-2.888
					c0.229-0.493,0.598-0.986,0.873-1.503c0.138-0.27-1.178-1.55-1.783-1.746c-0.274-0.089-1.681,0.645-2.053,0.818
					c-1.199,0.629-2.862,1.406-3.383,1.774c-1.1,0.758-1.556,1.063-2.034,1.792c-0.234,0.377-0.464,0.739-0.729,1.077
					c-0.249,0.344-0.52,0.667-0.851,0.948c-0.313,0.292-0.675,0.548-1.115,0.734c-0.216,0.098-0.443,0.183-0.686,0.254
					c-0.253,0.056-0.522,0.092-0.805,0.11c-0.229,0.015-0.416,0.042-0.571,0.082c-0.063-0.003-0.182,0.098-0.276,0.175
					c-0.097,0.081-0.188,0.166-0.273,0.255c-0.334,0.338-0.575,0.721-0.764,1.059c-0.39,0.702-0.643,1.371-1.265,1.735
					c-0.67,0.392-1.449,0.629-2.009,0.65c-0.147,0.031-0.264-0.003-0.371-0.011c-0.111,0-0.199-0.02-0.248-0.076
					c0.003,0.004-0.062-0.05-0.001,0.003l0.413,0.374c0.29,0.286,0.503,0.455,0.72,0.652c0.217,0.199,0.427,0.409,0.629,0.629
					c0.205,0.226,0.404,0.464,0.548,0.6c1.302,1.469,1.608,2.532,1.597,2.642l2.89-6.7c-0.87-0.529-1.734-1.085-2.702-1.229
					l-0.371-0.051l-3.023,8.613c-0.022-0.068-0.032-0.132-0.033-0.188c-0.001-0.067,0.015-0.055,0.007-0.251
					c0.002-0.149,0.022-0.291,0.058-0.422c0.017-0.079,0.042-0.1,0.063-0.22c0.021-0.113,0.046-0.225,0.076-0.333
					c0.122-0.446,0.312-0.754,0.569-1.39c0.26-0.571,0.565-0.968,0.974-1.704c0.198-0.326,0.409-0.642,0.633-0.946l0.343-0.447
					l0.394-0.561l0.412-0.556l0.211-0.272c0.057-0.071,0.014-0.015,0.024-0.028c-0.009,0.009-0.009,0.031-0.027,0.03
					c-0.096-0.037-0.194-0.076-0.339-0.229c-0.338-0.34-0.753-0.945-1.13-1.692c-0.235-0.465-0.555-0.958-0.937-1.47
					c-0.37-0.508-0.957-1.21-1.514-1.762l-1.699-1.738l-0.836-0.877c-0.277-0.303-0.547-0.599-0.793-0.838
					c-0.889-0.918-1.474-2.269-2.029-3.443c-0.385-1.023-0.822-1.939-1.813-2.34c-0.882-0.398-1.693-1.084-5.768,1.113
					c-0.991,0.533-2.567,1.687-3.914,2.753c1.107-0.872,0.713-0.174,0.052,0.809c-0.709,1.023-1.562,2.252-1.653,2.385
					c-0.851,1.545-0.908,2.569-1.266,3.874c-0.188,0.656-0.376,1.314-0.563,1.968c-0.189,0.638-0.374,1.275-0.519,1.886
					c-0.288,1.22-0.411,2.329-0.096,3.076c0.16,0.387,0.36,0.772,0.541,1.11c0.136,0.294,0.285,0.569,0.447,0.831
					c0.322,0.522,0.694,0.988,1.097,1.423c0.454,0.451,0.688,0.79,1.046,1.153l1.018,1.061l0.435,0.452l0.466,0.533l1.229,1.408
					c0.915,1.036,1.902,2.169,3.159,3.542c0.733,0.806,1.605,1.809,2.952,2.938c0.378,0.299,0.725,0.576,1.154,0.873
					c0.509,0.327,1.036,0.638,1.576,0.926c0.607,0.31,1.449,0.636,2.196,0.878c0.33,0.12,0.908,0.252,1.426,0.346
					C301.179,351.63,301.714,351.702,302.247,351.747z"/>
			</g>
		</g>
	</g>
</g>
<g>
	<g>
		<g>
			<path fill="#FFFFFF" d="M261.169,326.104l0.061,0.06C261.212,326.129,261.229,326.088,261.169,326.104z"/>
			<path fill="#FFFFFF" d="M236.446,315.688l-0.138-0.205C236.325,315.588,236.382,315.647,236.446,315.688z"/>
			<path fill="#FFFFFF" d="M252.447,329.915l-0.003,0.075C252.466,329.964,252.463,329.939,252.447,329.915z"/>
			<g>
				<path fill="#FFFFFF" d="M247.303,322.516c-0.001,0.014,0,0.207-0.11,0.552c-0.028,0.098-0.062,0.191-0.101,0.279
					c-0.039,0.086-0.081,0.156-0.141,0.314c-0.114,0.269-0.255,0.516-0.417,0.737c-2.629,0.846-5.258,1.69-7.876,2.531
					c0.211,0.32,0.431,0.635,0.658,0.943c-0.602-2.347-1.205-4.693-1.804-7.027c-0.021,2.496,0.43,4.825,1.179,6.779
					c0.76,1.924,1.747,3.611,2.88,4.936c1.672,2.012,3.569,3.456,5.362,4.742l2.617,1.854l1.225,0.925l0.583,0.481l0.289,0.241
					l0.383,0.35c2.131,1.941,4.248,3.721,6.837,4.656c2.545,0.966,5.366,1.104,7.961,0.407c2.607-0.68,5.007-1.624,7.161-3.008
					c2.162-1.364,4.063-3.149,5.69-5.247c0.409-0.494,0.739-1.046,1.019-1.564c0.271-0.492,0.512-0.997,0.694-1.522l0.28-0.784
					l0.128-0.385l0.073-0.295l0.288-1.182c0.384-1.534,0.911-2.971,1.983-3.857c0.29-0.21,0.595-0.432,0.905-0.577
					c0.313-0.129,0.617-0.248,0.892-0.38c0.138-0.052,0.193-0.457,0.232-1.039c0.033-0.465,0.079-1.074,0.043-1.426
					c-0.019-0.155-0.345-0.43-0.776-0.663c-0.425-0.236-0.964-0.423-1.204-0.49c-0.376-0.074-0.809-0.124-1.279-0.149
					c-0.477-0.033-0.976-0.016-1.436,0.063c-0.471,0.065-0.936,0.157-1.352,0.266c-0.395,0.121-0.733,0.259-0.988,0.391
					c-2.047,1.096-2.946,1.791-4.224,3.522c-0.331,0.452-0.648,0.905-0.945,1.353l-0.456,0.675l-0.402,0.512
					c-0.255,0.342-0.534,0.658-0.836,0.95c-0.27,0.28-0.534,0.504-0.824,0.695c-1.115,0.792-2.463,1.185-3.756,0.706
					c-1.021-0.39-1.652-0.421-2.343-0.403c-0.662,0.007-1.412-0.066-1.828-0.748c-0.222-0.355-0.354-0.777-0.429-1.173
					c-0.04-0.197-0.063-0.392-0.079-0.573c-0.014-0.095-0.001-0.168,0.007-0.243c0.011-0.072,0.043-0.122-0.078-0.319
					c-0.644-1.296-1.228-2.519-1.946-3.479c-0.714-0.946-1.018-2.03-1.033-2.794c-0.022-0.2,0.001-0.363,0.028-0.503
					c-0.004-0.16,0.066-0.248,0.089-0.338c0.001-0.11,0.104-0.104,0.1-0.147c-0.006-0.011,0.019-0.015,0.007-0.006l-0.271,0.016
					c-0.184,0.005-0.375-0.003-0.573-0.023l-0.73-6.228c-0.15-0.244-0.307-0.485-0.469-0.724l-0.163-0.235l-1.683-2.444
					l-1.779-1.006c-1.445-0.816-3.118-1.626-5.568-1.918c-2.354-0.301-4.988,0.172-6.905,1.066
					c-1.865,0.863-3.157,1.925-4.093,2.842c-0.901,0.904-1.572,1.766-2.073,2.508c-1.024,1.513-1.634,2.767-2.18,3.921
					c-0.535,1.149-0.971,2.192-1.395,3.168c-0.505,1.165-0.968,2.249-1.415,3.214c-0.048,0.1-0.129,0.281-0.149,0.313
					c-0.02,0.031-0.032,0.042-0.047,0.062l-0.093,0.101c-0.064,0.063-0.133,0.119-0.206,0.164l-0.031,0.02
					c-0.343,0.22-0.607,0.437-0.971,0.53c-0.172,0.051-0.372,0.085-0.554,0.086c0.094,0.002-0.577-0.019-0.473-0.043l-0.022-0.002
					c-0.007,0.013,0-0.026-0.019,0.028l-0.153,0.527l-0.165,0.524c-0.056,0.174-0.128,0.366-0.137,0.464
					c-0.049,0.242-0.107,0.482-0.175,0.722c-0.135,0.479-0.307,0.953-0.516,1.419c-0.104,0.232-0.218,0.463-0.341,0.69
					c-0.112,0.215-0.113,0.297-0.188,0.45c-0.091,0.207-0.201,0.41-0.331,0.607c-0.065,0.099-0.135,0.195-0.209,0.29
					c-0.064,0.087-0.187,0.217-0.178,0.227c-0.073,0.137-0.217,0.296-0.37,0.402c0.095-0.083,0.161-0.11,0.246-0.14
					c0.376-0.223,0.754-0.354,1.148-0.421c0.844-0.29,1.705-0.463,2.561-0.523c0.066-0.008,0.079,0,0.188-0.018l0.349-0.059
					l0.699-0.107c0.466-0.067,0.933-0.125,1.4-0.174l0.7-0.065c0.05-0.002,0.025,0.003,0.041,0.004l0.034,0.015
					c0.02,0.04,0.045-0.047,0.069-0.107l0.071-0.184c0.043-0.078,0.095-0.325,0.147-0.559c0.104-0.383,0.204-1.09,0.297-1.699
					l0.103-1.136c0.037-0.361,0.049-0.791,0.047-1.24c0.058-1.66-0.245-3.845-0.833-5.839c-0.533-1.621-1.341-3.306-2.154-4.45
					c-1.273-1.865-2.716-3.694-4.863-5.121l-0.968-0.638c-0.36-0.225-0.726-0.431-1.093-0.616c-0.169-0.079-0.401-0.214-0.52-0.23
					l-0.338-0.024c-0.229-0.012-0.462-0.013-0.702-0.002l-0.181,0.01l-0.091,0.007l-0.023,0.002l-0.003,0.001
					c0.079,0.063-0.692-0.555-0.369-0.294l-0.012-0.003l-0.023-0.008l-0.093-0.026c-0.249-0.07-0.497-0.132-0.743-0.183
					c-0.505-0.103-0.942-0.164-1.482-0.188c-0.516-0.022-1.016-0.001-1.489,0.063c-0.599,0.03-1.234,0.112-1.777,0.264
					c-0.134,0.037-0.262,0.08-0.382,0.13c-0.111,0.051-0.266,0.097-0.276,0.18c-0.083,0.149-0.163,0.311-0.238,0.482
					c-0.152,0.343-0.29,0.726-0.413,1.13c-0.248,0.809-0.44,1.705-0.583,2.552c0.117-0.694,0.327-0.824,0.58-0.622
					c0.034,0.041,0.176,0.135,0.324,0.255c0.14,0.116,0.277,0.253,0.405,0.404c0.284,0.303,0.401,0.668,0.514,1.04
					c0.443,1.527-0.194,3.143-0.144,3.336c0.012,0.538-0.072,1.001-0.112,1.409l-0.063,0.583l-0.025,0.608
					c-0.018,0.771-0.049,1.531-0.196,2.287c-0.101,0.448-0.222,0.886-0.365,1.306c-0.166,0.422-0.346,0.823-0.529,1.202
					c-0.211,0.37-0.451,0.691-0.691,0.94c-0.26,0.265-0.523,0.489-0.757,0.678c-0.711,0.555-1.253,0.687-1.488,1.256
					c-0.14,0.328-0.273,0.77-0.394,1.418l-0.043,0.227l-0.042,0.31l-0.079,0.621c-0.028,0.172-0.041,0.517-0.057,0.784l-0.037,0.856
					l0.044,1.172l0.038,0.587c0.013,0.191,0.065,0.506,0.103,0.754c0.083,0.525,0.185,1.051,0.302,1.571
					c0.152,0.592,0.398,1.299,0.644,1.929c0.127,0.322,0.262,0.641,0.404,0.954c0.18,0.349,0.376,0.697,0.582,1.038
					c0.414,0.68,0.867,1.356,1.365,1.955c0.507,0.575,1.057,1.129,1.635,1.644c0.281,0.248,0.602,0.529,0.868,0.722
					c0.259,0.183,0.524,0.361,0.793,0.534c0.538,0.346,1.092,0.67,1.656,0.967c0.311,0.171,0.481,0.226,0.72,0.331l0.677,0.273
					c0.454,0.177,0.913,0.342,1.375,0.494c0.463,0.153,0.749,0.2,1.135,0.298l1.091,0.24c0.368,0.076,0.747,0.151,1.016,0.177
					l0.892,0.106l1.086,0.109c0.745,0.081,1.447,0.063,2.171,0.093c0.718,0.014,1.44,0.066,2.148-0.004l2.133-0.132
					c0.697-0.104,1.393-0.222,2.084-0.352c2.489-0.596,4.898-1.538,6.981-3.032c0.983-0.804,2.003-1.592,2.794-2.594
					c0.426-0.473,0.802-0.993,1.245-1.448c0.379-0.512,0.737-1.044,1.093-1.575c0.571-0.948,1.069-1.951,1.54-2.97l0.679-1.544
					l0.549-1.33c0.467-1.141,0.889-2.147,1.313-3.027c0.536-1.128,1.188-2.076,1.532-2.325c0.032-0.009,0.066-0.029,0.09-0.033
					l0.003,0.01l-0.237-0.162l-0.512-0.368c-0.336-0.246-0.677-0.518-0.993-0.771c-0.569-0.409-1.136-0.901-1.636-1.362
					c-0.447-0.356-0.91-0.86-1.26-1.223c-0.172-0.172-0.335-0.355-0.49-0.551l-0.221-0.288l-0.181-0.221
					c-0.116-0.152-0.223-0.316-0.319-0.489c-0.087-0.136-0.155-0.233-0.22-0.367c-0.137-0.316-0.188-0.38-0.235-0.588l-0.03-0.116
					C247.301,322.52,247.301,322.465,247.303,322.516z"/>
			</g>
		</g>
	</g>
</g>
<g>
	<g>
		<g>
			<path fill="#FFFFFF" d="M196.801,311.785l0.106,0.125C196.866,311.842,196.857,311.763,196.801,311.785z"/>
			<path fill="#FFFFFF" d="M176.787,309.462l-0.036-0.263C176.739,309.302,176.759,309.389,176.787,309.462z"/>
			<path fill="#FFFFFF" d="M184.11,333.479l0.013,0.037C184.128,333.52,184.122,333.505,184.11,333.479z"/>
			<g>
				<path fill="#FFFFFF" d="M184.639,334.45c0.02,0.115-0.023-0.004,0.047-0.391c0.035-0.192,0.099-0.45,0.214-0.771
					c0.1-0.291,0.231-0.606,0.415-0.945c0.387-0.711,0.907-1.369,1.505-1.661c0.584-0.302,1.219-0.218,1.581,0.245
					c0.152,0.199,0.301,0.411,0.446,0.629l0.219,0.328l0.499,0.792c0.353,0.54,0.617,0.925,0.842,1.241
					c0.107,0.15,0.205,0.281,0.285,0.372c0.034,0.037,0.079,0.083,0.104,0.096c0.013,0.008,0.036,0.026,0.044,0.021l0.018-0.001
					c0.017-0.004-0.024,0.009,0.041-0.01l0.223-0.063l4.231,4.509c0.415,0.051,0.834,0.089,1.26,0.113l3.454,0.193l0.533-0.339
					l0.441-0.28c1.574-1.042,3.793-2.185,5.746-4.271c0.241-0.252,0.468-0.526,0.691-0.798l0.323-0.42l0.268-0.373l0.19-0.271
					l0.279-0.425l0.458-0.741c0.553-0.943,1.005-1.855,1.392-2.697c0.37-0.81,0.566-1.59,0.689-2.305
					c0.053-0.331,0.121-0.746,0.123-0.971c-0.004-0.229,0-0.446,0.023-0.672c0.05-0.839,0.55-1.94,1.423-2.252
					c0.456-0.16,0.962-0.086,1.162,0.1c0.027,0.019,0.012-0.034-0.027-0.144c-0.09-0.189-0.256-0.688-0.316-0.935
					c-0.145-0.646-0.098-0.791-0.102-0.826c-0.018,0.156,0.061-0.41-0.033-0.807c-0.075-0.439-0.336-0.85-0.473-1.009
					c-0.417-0.534-1.225-0.999-2.09-1.188c-0.864-0.206-1.735-0.175-2.249-0.052c-1.043,0.258-1.799,0.562-2.475,0.952
					c-0.672,0.397-1.277,0.888-1.971,1.751c-0.354,0.442-0.684,0.908-0.975,1.398l-0.772,1.334
					c-0.469,0.798-0.916,1.531-1.398,2.126c-0.921,1.197-2.195,1.893-2.871,1.061c-0.597-0.487-1.072-0.398-2.196-0.033
					c1.513-0.055,3.032-0.11,4.551-0.166l-1.186-0.368l4.933,4.892c-0.34-1.129-0.719-1.987-1.044-2.738
					c-0.328-0.756-0.617-1.414-0.804-2.018c-0.064-0.21-0.12-0.408-0.158-0.583c-0.012-0.076-0.039-0.175-0.038-0.23l-0.005-0.097
					l-0.055-0.189l-0.604-1.898l-1.303-4.039c-0.233-0.686-0.459-1.405-0.729-2.072c-0.279-0.649-0.571-1.297-0.877-1.937
					c-0.593-1.347-1.322-2.348-2.073-3.364c-0.392-0.592-0.813-0.953-1.223-1.371c-0.41-0.419-0.815-0.854-1.219-1.301l-2.828-1.73
					c-0.424-0.329-1.085-0.497-1.719-0.616c-0.636-0.125-1.29-0.182-1.946-0.224c-1.311-0.071-2.666-0.065-3.958,0.161
					c-2.562,0.446-4.934,1.576-7.004,3.063c-2.098,1.543-3.69,3.212-5.499,5.571c-0.688,0.906-1.34,1.922-1.936,2.989
					c-0.294,0.535-0.601,1.054-0.935,1.545c-0.168,0.231-0.349,0.508-0.504,0.68l-0.241,0.291l-0.082,0.072
					c-0.253,0.233-0.313,0.208-0.426,0.237c-0.404,0.062-0.64,0.19-0.959,0.306c-0.304,0.112-0.695,0.179-1.013,0.049
					c-0.158-0.053-0.208-0.315-0.118-0.603c0.139-0.418,0.456-0.789,0.684-0.948c0.113-0.084,0.202-0.122,0.228-0.131
					c0.011-0.005,0.011-0.003-0.013,0.002c-0.018-0.028-0.017,0.089-0.077-0.112l-0.17-0.438c-0.383-0.976-0.664-1.884-1.415-2.826
					c-0.375-0.449-0.868-0.926-1.553-1.41c-0.327-0.045-0.715-0.102-1.144-0.193c-0.218,0.029-0.445-0.264-0.693-0.416l-0.798-0.606
					c-1.112-0.751-3.117-0.737-4.848-0.599c0.719-0.067,0.935,0.115,0.789,0.428c-0.139,0.313-0.618,0.748-1.198,1.057
					c-1.181,0.536-2.618,1.409-2.762,1.499c-1.579,1.266-2.152,2.694-3.083,4.138c-0.445,0.712-0.938,1.404-1.413,2.1
					c-0.237,0.356-0.473,0.705-0.693,1.088c-0.203,0.471-0.384,0.989-0.544,1.506c-0.642,2.074-0.879,4.426-0.254,6.63
					c0.374,1.33,0.864,2.636,1.474,3.855c0.621,1.214,1.327,2.357,2.046,3.541c1.369,0.862,2.856,1.739,4.264,2.519
					c1.435,0.781,3.136,1.146,4.814,1.484c3.372,0.659,6.917,0.863,10.392,0.351c3.525-0.504,6.925-1.866,9.83-3.933
					c1.456-1.028,2.793-2.22,4.009-3.523c0.318-0.342,0.533-0.588,0.792-0.887l0.478-0.572c0.05-0.067,0.046-0.063,0.075-0.095
					c0.03-0.032,0.064-0.058,0.102-0.071C184.332,333.722,184.619,334.199,184.639,334.45z"/>
			</g>
		</g>
	</g>
</g>
<g>
	<g>
		<g>
			<path fill="#FFFFFF" d="M134.323,319.079l0.077,0.066C134.375,319.107,134.382,319.059,134.323,319.079z"/>
			<path fill="#FFFFFF" d="M124.152,305.917l0.21-0.113C124.28,305.827,124.211,305.871,124.152,305.917z"/>
			<path fill="#FFFFFF" d="M104.613,314.812l-0.09-0.081C104.548,314.781,104.578,314.803,104.613,314.812z"/>
			<g>
				<path fill="#FFFFFF" d="M108.679,322.162c0.578,0.857,1.015,1.367,1.561,1.99c0.521,0.579,1.12,1.202,1.732,1.764
					c1.241,1.147,2.68,2.254,4.307,3.251c0.837,0.513,1.762,1.019,2.647,1.494l2.823,1.461c0.99,0.492,1.873,0.993,2.873,1.522
					c0.25,0.142,0.457,0.248,0.734,0.425l0.812,0.521l0.871,0.482c0.191,0.1,0.379,0.205,0.564,0.315
					c0.453,0.281,0.905,0.561,1.354,0.839l1.999,1.238l1.74-0.012c0.479-0.003,0.958-0.022,1.435-0.06
					c0.529-0.052,1.18-0.18,1.75-0.32c0.644-0.187,1.339-0.457,1.963-0.776c0.611-0.349,1.292-0.782,1.751-1.204
					c0.46-0.41,0.985-0.932,1.249-1.297c0.309-0.391,0.647-0.852,0.811-1.149c0.186-0.315,0.432-0.723,0.538-0.965l0.198-0.413
					l0.097-0.207l0.048-0.104l0.235-0.532l0.011-0.035l0.337-1.114l0.079-0.28l0.107-0.436l0.205-0.943l0.17-0.945l0.035-0.229
					l0.009-0.142l0.016-0.284c0.018-0.368,0.032-0.784,0.028-1.121c-0.013-0.29-0.017-0.583-0.012-0.879
					c0.014-0.277,0.069-0.485,0.106-0.736c0.145-0.546,0.411-1.161,0.826-1.943l0.665-1.25l0.365-0.677l0.383-0.813
					c0.586-1.154,0.941-2.391,1.313-3.639c0.04-0.2,0.082-0.406,0.123-0.612c0.131-0.717,0.165-1.115,0.189-1.491
					c0.021-0.385,0.021-0.671,0.003-0.918c-0.007-0.077-0.022-0.217-0.042-0.253l-0.04-0.069l-0.012-0.019
					c-0.008,0,0.006,0.007-0.019,0l-0.124-0.039c-0.164-0.053-0.327-0.112-0.489-0.178c-1.378-0.595-1.993-1.013-2.301-1.355
					c-0.054-0.048-0.105-0.11-0.149-0.188c-0.002-0.005,0.009,0.022,0.005,0.02c0.003,0.011-0.013-0.021,0.004,0.018
					c0.02,0.049,0.036,0.096,0.048,0.142c0.027,0.104,0.022,0.157,0.033,0.283c0.033,0.188,0.043,0.374,0.032,0.552
					c-0.012,0.178-0.051,0.313-0.063,0.638c-0.024,0.277-0.07,0.548-0.137,0.809c-0.034,0.13-0.072,0.258-0.116,0.383l-0.017,0.047
					c-0.002,0.006-0.007,0.021-0.006,0.017l0-0.001c-0.177-0.055,0.395,0.122-0.396-0.123l0.005,0.002l0.04,0.011l0.08,0.022
					c0.211,0.062,0.421,0.127,0.629,0.199c0.036,0.015,0.14,0.045,0.119,0.048l-0.024,0.014c-0.017,0.008-0.032,0.014-0.047,0.016
					c-0.015,0.003-0.029,0.003-0.042,0.001c-0.014-0.004,0.072,0.077,0.102,0.113c0.086,0.096,0.164,0.189,0.242,0.297
					c0.34,0.534,1.097,1.502,1.745,2.295c0.333,0.409,3.153,0.854,3.914,0.61c0.331-0.11-0.119-2.11-0.194-2.643
					c-0.167-0.88-0.398-1.926-0.633-2.863c-0.242-0.945-0.463-1.748-0.733-2.284c-0.242-0.526-0.564-0.982-0.849-1.408
					c-0.203-0.223-0.414-0.436-0.634-0.638c-0.197-0.173-0.39-0.342-0.583-0.511c-0.149-0.128-0.301-0.252-0.458-0.373l-0.059-0.046
					l-0.03-0.022l-0.015-0.012l-0.007-0.005l-0.004-0.003l-0.229-0.072l-0.229-0.092c-0.158-0.056-0.319-0.113-0.484-0.172
					c-0.652-0.211-1.668-0.365-2.939,0.035c-0.331,0.125-0.675,0.267-0.975,0.444c-0.289,0.186-0.572,0.394-0.84,0.616
					c-0.226,0.214-0.436,0.439-0.64,0.676c-0.203,0.236-0.325,0.438-0.483,0.668c-0.547,0.867-0.861,1.663-1.094,2.332
					c-0.238,0.682-0.421,1.314-0.589,1.86c-0.087,0.284-0.169,0.543-0.251,0.76c-0.077,0.167-0.153,0.331-0.24,0.489
					c-0.186,0.296-0.412,0.567-0.609,0.829c-0.22,0.268-0.494,0.433-0.77,0.695c-0.266,0.229-0.687,0.58-1.04,0.842
					c-0.386,0.302-0.861,0.703-1.318,1.038c-0.406,0.343-0.801,0.779-1.156,1.207c-0.358,0.426-0.703,1.08-1.007,1.647
					c-0.336,0.612-0.494,1.152-0.705,1.745l-0.272,0.865l-0.169,0.653c-0.102,0.414-0.24,1-0.247,0.98
					c-0.016,0.06-0.027,0.12-0.036,0.182c-0.018,0.076,0.024,0.063-0.098,0.322c-0.172,0.396-0.354,0.788-0.553,1.171l-0.01,0.019
					l-0.004,0.009c-0.204,0.464,0.276-0.629,0.227-0.517l-0.001,0.001l-0.001,0.001l-0.012,0.012l-0.023,0.021l-0.047,0.045
					l-0.095,0.085c-0.041,0.052-0.037-0.018-0.054-0.024c0.525,0.305,1.052,0.645,1.555,1.005c2.031,1.282,2.456,2.137,2.404,2.055
					c-0.055-0.1-0.088-0.196-0.104-0.286c0.01-0.004-0.066-0.204-0.089-0.315c-0.033-0.13-0.058-0.261-0.073-0.39
					c-0.018-0.134-0.02-0.247-0.025-0.394c-0.035-0.229-0.06-0.458-0.075-0.687c-0.03-0.456-0.019-0.908,0.031-1.353l4.572-0.998
					l-1.309-1.502l-0.166-0.185l-0.083-0.092c-0.009-0.019-0.007-0.03-0.011-0.045l-0.034-0.155l-0.069-0.204
					c-0.016-0.058-0.05-0.128-0.125-0.234c-0.124-0.189-0.252-0.371-0.385-0.545c-0.134-0.186-0.279-0.399-0.427-0.587
					c-0.297-0.386-0.615-0.72-0.985-1.119c-2.253-2.27-3.569-6.027-6.252-9.123l-1.829-2.09l-1.695-1.904l-0.85-0.958l-0.804-1.076
					c-0.53-0.723-1.046-1.457-1.535-2.208c-1.166-1.707-2.148-3.689-3.101-5.607c-0.605-1.209-1.232-2.435-1.882-3.659
					c-0.654-1.216-1.34-2.414-2.035-3.607c-1.358-2.443-2.761-4.849-3.996-7.389c-2.244-4.602-2.463-10.045-5.551-14.433
					c-0.406-0.578-0.826-1.218-1.307-1.853c-0.602-0.866-1.543-2.177-2.764-3.253c-0.308-0.272-0.626-0.553-0.944-0.778
					c-0.316-0.211-0.637-0.408-0.962-0.59c-0.644-0.367-1.361-0.614-2.052-0.809c-1.43-0.336-2.914-0.287-4.334,0.247
					c-1.399,0.539-2.548,2.174-3.4,3.684c0.347-0.621,0.649-0.667,0.895-0.391c0.121,0.139,0.229,0.349,0.307,0.617
					c0.071,0.282,0.118,0.609,0.141,0.948c0.112,1.378-0.395,2.987-0.433,3.146c-0.252,2.033-0.5,3.083-0.94,4.71
					c-0.736,3.427-2.252,6.852-1.525,9.75c1.494,6.021,4.612,11.355,7.561,16.864c2.582,4.702,5.469,9.232,8.364,14.028
					c0.886,1.438,1.656,2.945,2.54,4.484C106.678,319.079,107.643,320.645,108.679,322.162z"/>
			</g>
		</g>
	</g>
</g>
<g>
	<g>
		<g>
			<path fill="#FFFFFF" d="M152.582,268.301l-0.01,0.032C152.576,268.341,152.579,268.405,152.582,268.301z"/>
			<path fill="#FFFFFF" d="M154.191,268.745l-0.186,0.435C154.082,269.002,154.134,268.878,154.191,268.745z"/>
			<path fill="#FFFFFF" d="M168.282,240.526l0.053,0.003C168.322,240.504,168.304,240.508,168.282,240.526z"/>
			<g>
				<path fill="#FFFFFF" d="M164.472,236.979c-0.696-0.301-1.441-0.515-2.188-0.641c-0.754-0.125-1.504-0.104-2.259-0.065
					c-1.486,0.174-2.961,0.744-4.243,1.603c-0.329,0.228-0.673,0.434-0.979,0.718c-0.306,0.284-0.608,0.579-0.904,0.879
					c-0.605,0.593-1.08,1.269-1.594,1.895l-0.639,0.984c-0.22,0.318-0.416,0.626-0.56,0.918c-0.322,0.577-0.635,1.1-0.951,1.514
					l-0.505,0.623l-0.645,0.703l-0.648,0.709l-0.751,0.867c-0.25,0.301-0.489,0.58-0.742,0.918
					c-0.265,0.372-0.526,0.752-0.781,1.144c-0.255,0.398-0.505,0.779-0.743,1.223c-0.235,0.489-0.462,0.988-0.678,1.497
					c-0.216,0.515-0.439,0.991-0.656,1.464c-0.195,0.508-0.395,0.992-0.599,1.459s-0.415,0.916-0.628,1.354
					c-0.25,0.358-0.506,0.699-0.766,1.037l-0.794,0.993c-0.285,0.299-0.588,0.57-0.887,0.853c-0.175,0.166-0.251,0.225-0.344,0.3
					l-0.281,0.227l-0.591,0.424c-0.378,0.275-0.68,0.632-0.966,1.015l-0.814,1.222c-0.545,0.821-1.205,1.551-2.149,1.675
					c-0.504,0.07-1.048-0.052-1.506-0.099c-0.107-0.023-0.222,0.345-0.338,0.822c-0.058,0.414-0.145,0.954-0.146,1.276
					c-0.031,0.298,0.924,1.46,1.279,1.738c0.52,0.44,1.226,0.914,1.922,1.262c0.685,0.335,1.364,0.584,1.771,0.642
					c1.641,0.217,2.443,0.238,3.77-0.289c1.368-0.561,2.663-1.222,4.021-1.855l1.047-0.46c0.164-0.064,0.385-0.18,0.51-0.197
					c0.123-0.016,0.247-0.025,0.371-0.031c0.5-0.02,0.97,0.037,1.463,0.239c0.769,0.32,1.076,0.17,1.353-0.146
					c0.265-0.3,0.5-0.768,0.787-0.635c0.314,0.151,0.556,0.602,0.707,1.019c0.159,0.409,0.268,0.794,0.422,0.567
					c0.163-0.262,0.345,0.138,0.437,0.621c0.104,0.473,0.107,1,0.285,0.847c0.18-0.155,0.448-0.402,0.623-0.503
					c0.183-0.109,0.276-0.106,0.275,0.105c-0.006,0.246-0.069,0.625-0.2,1.049c-0.167,0.526-0.129,0.694-0.038,0.892
					c0.086,0.186,0.229,0.398,0.221,0.675c-0.002,0.061-0.037,0.131-0.095,0.198l-0.048,0.051c-0.016,0.026-0.042,0.001-0.042,0.129
					l-0.039,0.604c-0.068,0.802-0.178,1.63-0.28,2.414l-0.075,0.577l0.046,1.169c0.041,0.794,0.1,1.594,0.187,2.393
					c0.035,0.195,0.014,0.408,0.1,0.588l0.27,0.535c0.185,0.356,0.376,0.711,0.578,1.062c0.201,0.351,0.41,0.697,0.628,1.04
					l0.335,0.509l0.172,0.251c0.053,0.073,0.074,0.088,0.113,0.134c1.191,1.31,2.451,3.274,7.086,2.367
					c1.128-0.222,2.885-1.066,4.39-1.896c-2.47,1.359,1.751-3.131,1.925-3.384c1.053-1.53,1.242-2.683,1.813-3.998
					c0.276-0.638,0.597-1.286,0.917-1.931c0.134-0.369,0.392-0.514,0.6-0.733c0.219-0.201,0.44-0.386,0.656-0.555
					c0.84-0.667,1.707-1.087,1.999-1.283c0.187,0.086,0.207-0.641,0.245-1.121c0.031-0.496,0.039-0.988,0.029-1.478
					c-0.014-0.51-0.03-0.931-0.089-1.503c-0.114-0.896-0.246-1.816-0.387-2.724l-0.452-2.727l-0.351-2.813l-0.354-2.812
					c-0.104-0.954-0.114-2.021-0.171-3.03c0.099-3.757-0.964-6.24-1.803-8.65c-0.541-0.841-1.072-1.688-1.59-2.555
					c-0.064-0.103-0.131-0.23-0.192-0.314l-0.175-0.203l-0.348-0.413c-0.23-0.279-0.456-0.564-0.679-0.857l-0.394-0.546
					l-0.359-0.477c-0.248-0.319-0.525-0.649-0.864-0.995C166.862,238.36,165.816,237.582,164.472,236.979z"/>
			</g>
		</g>
	</g>
</g>
<g>
	<g>
		<g>
			<path fill="#FFFFFF" d="M191.616,277.017l0.001,0.032C191.622,277.052,191.637,277.102,191.616,277.017z"/>
			<path fill="#FFFFFF" d="M192.376,275.801l0.011,0.524C192.383,276.108,192.38,275.961,192.376,275.801z"/>
			<path fill="#FFFFFF" d="M194.836,242.74l0.099-0.02C194.889,242.708,194.859,242.718,194.836,242.74z"/>
			<g>
				<path fill="#FFFFFF" d="M188.617,241.652c-0.479,0.051-0.905,0.165-1.322,0.331c-0.361,0.169-0.706,0.393-0.955,0.682
					c-0.518,0.584-0.817,1.412-1.079,2.653c-0.497,2.494-1.178,7.326-2.745,10.732l-0.278,0.579
					c-0.383,0.892-0.758,1.958-1.135,2.945c-0.212,0.465-0.324,1.075-0.453,1.66l-0.378,1.756l-0.331,1.659l-0.155,0.827
					c-0.056,0.269-0.077,0.585-0.202,0.751c-0.202,0.399-0.397,0.804-0.582,1.21l-0.27,0.613c-0.076,0.18-0.093,0.236-0.139,0.364
					c-0.642,1.918-2.144,2.929-3.793,3.742c-0.397,0.172-0.709,0.475-1.034,0.774c-0.332,0.311-0.551,0.646-1.128,1.085
					c-0.664,0.503-1.276,1.043-1.916,1.522c-0.604,0.539-1.199,1.058-1.889,1.512l-0.557,0.344l-0.144,0.084
					c-0.055,0.035-0.155,0.119-0.169,0.109l-0.193,0.053l-0.384,0.1c-0.115,0.016-0.19-0.018-0.276-0.02
					c-0.041-0.005-0.037,0.073-0.009,0.21c0.06,0.086,0.166,0.208,0.264,0.387c0.26,0.461,0.345,0.518,0.426,0.682
					c0.082,0.149,0.131,0.29,0.153,0.36c0.035,0.1,0.191,0.499,0.439,0.849c0.241,0.357,0.607,0.705,0.777,0.788
					c1.055,0.848,3.276,0.812,3.965,0.794c1.47-0.082,2.037-0.033,3.096-0.166c0.144-0.017,0.287-0.032,0.426-0.048
					c0.528-0.059,1.292-0.323,1.972-0.5l2.104-0.638c1.432-0.429,2.937-0.835,4.701-1.168c0.771-0.137,1.422-0.47,2.027-0.855
					c0.294-0.196,0.546-0.412,0.801-0.641l0.371-0.351l0.286-0.288c0.303-0.305,0.546-0.735,0.979-0.754
					c0.373-0.006,0.73,0.128,1.013,0.307c0.443,0.262,0.703,0.663,0.74,0.338c0.04-0.306,0.148-0.116,0.256,0.187
					c0.109,0.288,0.21,0.684,0.241,0.388c0.033-0.273,0.065-0.862,0.266-1.139c0.167-0.297,0.398-0.56,0.606-0.52
					c0.246,0.034,0.438,0.389,0.439,0.938c0.017,0.672,0.085,0.826,0.193,0.973c0.102,0.136,0.23,0.272,0.236,0.6
					c0.003,0.311-0.44,1.09-0.84,1.498c-0.395,0.428-0.741,0.561-0.37,0.469c0.1-0.019,0.186-0.022,0.33-0.024
					c0.026-0.047,0.096,0.093,0.165,0.208c0.068,0.112,0.142,0.225,0.22,0.336c0.157,0.222,0.337,0.439,0.548,0.648
					c0.105,0.104,0.218,0.207,0.34,0.307l0.189,0.146l0.1,0.071l0.051,0.036l0.013,0.009l0.007,0.004
					c0.044,0.183-0.098-0.407,0.101,0.41l0.004,0.008l0.007,0.017l0.063,0.132c0.336,0.701,0.739,1.369,1.186,1.968
					c0.224,0.299,0.458,0.581,0.699,0.843c0.206,0.192,0.354,0.258,0.538,0.382c0.671,0.399,1.546,0.877,1.953,0.659
					c0.257-0.037,0.521-0.09,0.793-0.158c0.129-0.042,0.29-0.055,0.397-0.132l0.306-0.267c0.833-0.71,2.451-1.822,3.825-2.851
					c-0.566,0.419-0.741,0.469-0.689,0.287c0.025-0.092,0.105-0.244,0.213-0.444c0.077-0.231,0.181-0.51,0.31-0.797
					c0.257-0.559,0.575-1.259,0.917-1.711c0.31-0.473,0.691-0.726,0.744-0.762c0.086-0.064,0.171-0.118,0.255-0.163l0.124-0.062
					l0.061-0.024l-0.085,0.021l-0.09,0.019l-0.022,0.004l-0.012,0.002l-0.005,0.001h-0.001c-0.083,0.005,0.717-0.041,0.378-0.021
					l0.002-0.002l0.028-0.027l0.109-0.108l0.207-0.214c0.266-0.285,0.495-0.565,0.707-0.844l0.609-0.831
					c0.199-0.285,0.413-0.516,0.621-0.92c0.833-1.428,1.802-3.089,2.541-4.927c0.37-0.917,0.684-1.875,0.898-2.843
					c0.216-0.968,0.341-1.96,0.274-2.829c-0.231-3.729-0.917-7.403-1.73-10.895c-0.112-0.418-0.184-0.917-0.333-1.263l-0.467-1.007
					c-0.307-0.703-0.646-1.256-0.984-1.824c-0.333-0.598-0.686-1.078-1.034-1.579c-0.339-0.533-0.715-0.941-1.083-1.37
					c-1.257-1.461-2.66-2.462-4.245-3.341l-1.255-0.583c-0.45-0.185-0.89-0.391-1.418-0.55c-1.02-0.35-2.188-0.621-3.331-0.825
					c-0.688-0.138-1.387-0.241-2.091-0.405c-0.704-0.18-1.414-0.347-2.131-0.493C191.122,241.55,189.383,241.562,188.617,241.652z"
					/>
			</g>
		</g>
	</g>
</g>
<g>
	<g>
		<g>
			<path fill="#FFFFFF" d="M223.267,263.381l0.008,0.004L223.267,263.381z"/>
			<path fill="#FFFFFF" d="M222.016,262.4l0.044-0.03C222.019,262.399,222.011,262.403,222.016,262.4z"/>
			<path fill="#FFFFFF" d="M238.26,257.391l0.065,0.093C238.315,257.432,238.292,257.405,238.26,257.391z"/>
			<g>
				<path fill="#FFFFFF" d="M230.671,246.958c-1.843-0.94-4.126-1.454-6.125-1.438l-0.676,0.011l-0.067,0.007l-0.136,0.017
					l-0.271,0.041c-0.181,0.031-0.36,0.069-0.54,0.113l-4.686,1.158l-0.014,0.011c-1.025,0.763-2.543,1.971-4.166,4.161
					c-1.369,1.828-2.661,4.574-2.991,7.178c-0.036,0.304-0.093,0.68-0.093,0.915l0.099,0.406c0.057,0.284,0.117,0.5,0.131,0.828
					c0.023,0.677-0.016,1.336-0.1,1.829c-0.42,2.238-0.968,3.945-0.723,5.578c0.256,1.626-0.63,2.843-1.618,3.738
					c-0.476,0.436-0.613,1.152-0.902,1.843c-0.277,0.683-0.714,1.328-1.504,1.379c-0.42,0.024-0.901-0.099-1.328-0.167
					c-0.179-0.034-0.475,1.517-0.473,2.158c0.002,0.294,1.112,1.373,1.449,1.625c1.036,0.889,2.747,1.806,3.523,1.914
					c1.543,0.237,2.327,0.246,3.563-0.344c2.587-1.291,4.641-3.149,7.775-4.925c1.275-0.737,1.932-1.915,2.375-3.096
					c0.426-1.137,0.672-2.218,1.298-3.085c0.681-0.934,1.47-1.768,2.129-2.424c0.171-0.203,0.307-0.265,0.44-0.392l0.187-0.171
					c0.064-0.069,0.153-0.205,0.223-0.307l0.209-0.333l0.096-0.17l0.023-0.042l0.006-0.011l0.003-0.006l-4.317-1.499l-0.01-0.003
					l-0.04-0.014c-0.137-0.051-0.175-0.075-0.16-0.066c0.026,0.016,0.316,0.185,0.811,0.671c0.498,0.494,1.183,1.272,2.173,2.722
					l0.391,0.583c0.065,0.104,0.024,0.053,0.055,0.081l0.08,0.054c0.082,0.023,0.16,0.041,0.281,0.037
					c0.231-0.005,0.545-0.066,0.921-0.201c-1.403,0.35-2.81,0.699-4.217,1.049c0.331,0.017,0.661,0.01,0.991-0.028l0.025-0.003
					l0.006-0.001l-0.387-8.001l0-0.009l-0.001-0.034l0.002-0.07l0.008-0.103c0.007-0.052,0.015-0.075,0.009-0.057
					c-0.007,0.025-0.062,0.18-0.225,0.414c-0.313,0.469-1.085,1.233-2.308,2.012c-0.6,0.379-1.323,0.792-2.129,1.186
					c-0.398,0.192-0.831,0.397-1.277,0.592l-0.298,0.128h0.011c0.007,0.002,0.014-0.005,0.023,0.005
					c0.069,0.041,0.16,0.202,0.222,0.443c0.149,0.561,0.219,1.44,0.156,2.378c-0.156,2.406,0.454,5.155,0.288,8.029
					c-0.071,1.504-0.688,3.075-1.035,5.164c-0.166,1.053-0.263,2.253-0.078,3.722c0.04,0.351,0.124,0.771,0.204,1.15
					c0.084,0.346,0.17,0.693,0.288,1.03c0.223,0.68,0.525,1.336,0.901,1.953c0.79,1.303,1.861,2.774,3.447,3.544
					c1.574,0.774,3.645,0.836,6.229-0.473c1.262-0.64,2.866-2.147,4.192-3.495c-1.081,1.111-0.993,0.367-0.52-0.574
					c0.224-0.463,0.583-1.006,0.816-1.369c0.203-0.343,0.387-0.599,0.409-0.644c0.547-1.086,0.622-1.767,1.276-2.641
					c0.639-0.835,1.693-1.633,2.654-2.165c0.236-0.135,0.476-0.257,0.693-0.362c0.229-0.094,0.445-0.121,0.635-0.198
					c0.379-0.119,0.665-0.272,0.808-0.435c0.593-0.739,0.829-2.101,0.939-3.656c0.026-0.357,0.045-0.88,0.051-1.334
					c0.007-0.468,0.004-0.938-0.005-1.411c-0.033-0.955-0.067-1.911-0.1-2.87c-0.066-1.653-0.256-3.337-0.519-5.115
					c-0.271-1.789-0.584-3.64-1.093-5.872c-0.327-1.353-0.631-2.865-1.499-4.876c-0.446-1.003-1.034-2.145-2.066-3.451
					C234.489,249.604,232.944,248.087,230.671,246.958z"/>
			</g>
		</g>
	</g>
</g>
<g>
	<g>
		<g>
			<path fill="#FFFFFF" d="M348.023,259.127l0.012,0.021C348.043,259.144,348.081,259.153,348.023,259.127z"/>
			<path fill="#FFFFFF" d="M335.734,251.203l-0.237-0.005C335.579,251.221,335.661,251.216,335.734,251.203z"/>
			<path fill="#FFFFFF" d="M356.947,249.841l0.039,0.033C356.989,249.853,356.974,249.844,356.947,249.841z"/>
			<g>
				<path fill="#FFFFFF" d="M337.415,239.558c-0.462,0.3-0.898,0.634-1.309,1.002l-0.311,0.288l-0.616,0.542
					c-0.406,0.365-0.804,0.736-1.189,1.112c-1.542,1.505-2.904,3.091-3.963,4.673c-0.547,0.815-1.017,1.625-1.442,2.404
					c0.343,1.143,0.781,2.28,1.134,3.334c0.729,2.128,1.316,4.001,1.473,5.8c0.171,2.216,0.212,2.995,0.342,4.284
					c0.063,0.6,0.146,1.197,0.265,1.795c0.106,0.578,0.251,1.157,0.453,1.736c0.817,2.336,0.64,4.636,0.449,6.986
					c-0.055,0.55,0.05,1.221,0.14,1.49c0.046,0.156,0.115,0.318,0.185,0.488l0.151,0.518c0.179,0.66,0.17,1.587-0.564,2.229
					c-0.377,0.341-0.908,0.612-1.369,0.921c-0.119,0.078-0.038,0.541,0.086,1.079c0.117,0.538,0.304,1.141,0.487,1.42
					c0.161,0.26,1.794,0.309,2.244,0.29c0.728-0.014,1.578-0.096,2.371-0.232c0.769-0.146,1.474-0.35,1.851-0.552
					c0.747-0.424,1.318-0.761,1.767-1.196c0.472-0.424,0.833-0.906,1.216-1.697c0.371-0.812,0.694-1.661,0.907-2.545
					c0.256-0.947,0.374-1.547,0.61-2.262c0.437-1.392,1.032-2.783,2.012-4.205c1.572-2.293,0.558-4.756,1.222-6.979
					c0.186-0.614,0.408-1.229,0.636-1.843l0.085-0.23c0.028-0.072,0.06-0.062,0.09-0.096l0.179-0.135
					c0.118-0.085,0.234-0.161,0.343-0.23c0.437-0.279,0.766-0.405,0.721-0.662c-0.013-0.069-0.004-0.132,0.021-0.184
					c0.075-0.026,0.166-0.043,0.262-0.053c0.192-0.018,0.407-0.003,0.6,0.024l0.49,0.088c0.063,0.01,0.115,0.013,0.155,0.004
					l0.028-0.009c0.01-0.006-0.004,0.005,0.024-0.016l0.098-0.073c0.13-0.1,0.257-0.202,0.38-0.31
					c0.607-0.528,1.193-1.084,1.775-1.645l-16.861-7.71c0.245,1.303,0.489,2.644,0.801,3.875l0.506,1.777
					c0.163,0.591,0.313,1.201,0.488,1.721l0.807,2.735c0.264,0.837,0.513,1.711,0.739,2.542c0.222,0.782,0.481,1.552,0.764,2.311
					c0.262,0.695,0.541,1.365,0.835,2.039l0.798,1.825c0.146,0.313,0.244,0.573,0.349,0.841l0.158,0.402l0.285,0.768l0.406,1.017
					c0.252,0.288,0.334,0.649,0.508,0.972c0.155,0.327,0.295,0.673,0.459,0.986l0.521,0.905l0.481,0.859l0.41,0.777
					c0.235,0.453,0.454,0.919,0.663,1.395l1.2,2.786c0.397,0.923,0.854,1.793,1.392,2.609c0.526,0.815,1.183,1.565,2.001,2.19
					c1.608,1.266,4.051,3.523,8.557,1.467c1.06-0.519,2.391-1.938,3.485-3.263c-0.895,1.09-0.843,0.113-0.487-1.114
					c0.35-1.233,1.028-2.69,1.075-2.832c0.556-1.79,0.455-2.955,0.7-4.327c0.254-1.377,0.696-2.804,1.01-4.081
					c0.32-1.298,0.519-2.469,0.237-3.314c-0.385-1.287-0.961-2.453-1.47-3.443l-0.211-0.375c-0.08-0.132-0.143-0.244-0.173-0.321
					l-0.132-0.262c-0.06-0.107-0.027-0.078-0.051-0.119c-0.04-0.055-0.027-0.079-0.03-0.093c-0.014-0.013-0.028-0.025-0.032-0.043
					l-0.57-1.578l-0.719-1.796c-1.431-3.55-2.983-6.243-3.426-8.45c-0.091-0.304-0.076-0.535-0.085-0.79l-0.005-0.751
					c0.049-0.463,0.188-0.831,0.201-1.224l0.694-20.534l-19.92,11.743C337.979,239.201,337.694,239.376,337.415,239.558z"/>
			</g>
		</g>
	</g>
</g>
<g>
	<g>
		<g>
			<path fill="#FFFFFF" d="M306.858,256.224l0.446,0.047C307.106,256.249,307,256.238,306.858,256.224z"/>
			<path fill="#FFFFFF" d="M306.54,263.121l-0.177,0.233C306.439,263.253,306.488,263.188,306.54,263.121z"/>
			<path fill="#FFFFFF" d="M325.395,244.576l0.024,0.204C325.43,244.66,325.418,244.603,325.395,244.576z"/>
			<g>
				<path fill="#FFFFFF" d="M317.53,241.076c-4.542-0.199-9.513,0.232-13.866,1.332l-2.884,0.353
					c-0.318,0.136-0.63,0.28-0.936,0.432c-0.571,0.287-1.084,0.57-1.64,0.93c-0.649,0.435-1.271,0.921-1.838,1.438l-0.416,0.394
					l-0.434,0.478c-0.283,0.325-0.552,0.662-0.803,1.006c-0.522,0.692-0.898,1.399-1.211,2.134c-0.159,0.367-0.303,0.737-0.43,1.107
					c-0.133,0.378-0.17,0.655-0.245,0.989c-0.063,0.321-0.118,0.642-0.162,0.961c-0.046,0.324-0.081,0.647-0.07,0.874
					c-0.001,0.504,0.017,1.003,0.052,1.492c0.052,0.429,0.132,0.774,0.205,1.156c0.039,0.18,0.075,0.386,0.121,0.539l0.14,0.435
					c0.095,0.28,0.186,0.592,0.281,0.836c0.193,0.445,0.377,0.954,0.545,1.296l0.238,0.563c0.071,0.16,0.139,0.32,0.2,0.481
					c0.128,0.348,0.21,0.579,0.277,0.872l0.126,0.608l0.065,0.375c0.027,0.249,0.033,0.498,0.031,0.752l-0.084,1.254
					c-0.026,0.457-0.045,0.914-0.05,1.372c-0.024,0.898,0.098,1.941,0.252,2.9c0.225,1.633,0.509,3.378,0.557,5.043
					c0.063,0.847,0.204,1.715,0.28,2.581l0.13,1.308l0.032,0.329l0.016,0.164v0.083l0.002,0.332c0.003,0.212,0.041,0.416,0.106,0.62
					c0.05,0.202,0.076,0.396,0.15,0.598c0.17,0.41,0.278,0.813,0.394,1.247c0.077,0.222,0.105,0.438,0.104,0.649
					c0.008,0.215,0.008,0.434-0.008,0.651c-0.114,0.401-0.263,0.813-0.631,1.091c-0.408,0.29-0.874,0.489-1.352,0.635
					c-0.127,0.029-0.01,0.482,0.003,0.961c0.044,0.49,0.117,1.106,0.23,1.426c0.079,0.308,1.609,0.757,2.092,0.806
					c0.765,0.147,1.618,0.123,2.488,0.014c0.89-0.09,1.595-0.397,2.044-0.642c1.722-1.075,2.462-1.852,3.238-3.723
					c0.666-1.978,1.018-4.099,1.051-6.229l0.022-0.406l0.013-0.205l0.027-0.138l0.123-0.539c0.089-0.356,0.189-0.71,0.307-1.057
					c0.117-0.348,0.25-0.688,0.401-1.023c0.165-0.339,0.409-0.693,0.644-1.026c0.391-0.545,0.613-1.063,0.734-1.582
					c0.152-0.538,0.263-1.116,0.313-1.677c0.074-1.085,0.214-2.385,0.733-3.532l0.072-0.156l0.037-0.078l0.019-0.039
					c0.003-0.009,0.005-0.009,0.01-0.024l0.024-0.143c0.779-2.124,0.992-4.93,1.183-6.438c0.101-0.761,0.172-1.473,0.27-1.782
					c0.022-0.081,0.031-0.205,0.063-0.199l0.031-0.032l0.011-0.016l-0.857,0.005c-0.198-0.004-0.279,0.005-0.376,0.012l-0.294,0.017
					l-0.59,0.017c-0.395,0.003-0.79-0.009-1.188-0.036c-0.929-0.097-1.265-0.067-1.782-0.148c-0.964-0.204-1.235-0.208-1.728-0.45
					c-0.133-0.052-0.186-0.063-0.287-0.13c-0.028-0.015-0.128-0.097-0.097-0.073c0.019,0.014,0.032,0.027,0.043,0.039
					c0.011,0.013,0.018,0.023,0.021,0.032l0.004,0.012l0.081,0.089c0.111,0.132,0.194,0.271,0.251,0.409l0.038,0.104l0.105,0.193
					c0.07,0.135,0.133,0.272,0.187,0.411c0.107,0.277,0.181,0.559,0.221,0.838c-0.457,1.827-0.913,3.651-1.369,5.475
					c0.635,0.339,1.025,0.796,1.581,0.698c0.323-0.055,0.683-0.154,1.073-0.258c0.11-0.025,0.192-0.052,0.236-0.08l0.09-0.04
					c0.018-0.001,0.021,0.013,0.031,0.019c0.036,0.033,0.064,0.076,0.093,0.134c0.037,0.09,0.128,0.204,0.201,0.329
					c0.074,0.129,0.145,0.282,0.143,0.415c0.116,0.332,0.197,0.758,0.261,1.26c0.169,1.251,0.498,3.084,1.002,5.501
					c0.254,1.209,0.573,2.577,0.979,4.045c0.441,1.5,0.926,3.076,1.652,4.75c0.289,0.744,0.654,1.516,0.986,2.288
					c0.19,0.436,0.287,0.67,0.396,0.946l0.344,0.864c0.478,1.192,1.014,2.498,1.735,3.848c0.716,1.346,1.637,2.762,2.978,4.149
					c1.34,1.374,3.083,2.745,5.5,3.708c0.663,0.256,1.405,0.502,2.149,0.722c0.778,0.209,1.644,0.368,2.49,0.482
					c0.877,0.088,1.795,0.098,2.684,0.049c0.891-0.095,1.774-0.264,2.61-0.503c-0.866-0.012-1.722-0.023-2.577-0.036
					c1.281-0.496,2.581-1.493,3.754-3.547c0.585-1.026,0.979-2.938,1.207-4.641c-0.376,2.795-1.976-3.336-2.111-3.63
					c-0.317-0.688-0.669-1.239-1.044-1.731l-0.656-0.01c-0.228-0.358-0.399-0.648-0.523-0.96c-0.121-0.352-0.19-0.627-0.21-1.012
					c-0.054-1.137,0.424-2.367,0.875-3.372c0.457-1.01,0.896-1.803,0.823-2.374c-0.077-0.603-0.283-1.276-0.581-2.04
					c-0.153-0.391-0.319-0.777-0.538-1.245c-0.146-0.287-0.115-0.311-0.15-0.407c-0.021-0.093-0.065-0.148-0.091-0.26
					c-0.125-0.366-0.301-0.876-0.499-1.521c-0.19-0.711-0.401-1.542-0.597-2.611c-0.339-1.787-0.781-4.168-1.607-6.941
					c-0.191-0.675-0.472-1.439-0.712-2.151c-0.299-0.756-0.578-1.501-0.932-2.269l-0.608-1.263l-0.169-0.337l-0.086-0.169
					l-0.009-0.217l-0.027-0.877l-0.046-1.759c0.003-0.633,0.04-1.352,0.062-2.027c0.086-2.233,0.244-5.07,0.42-7.277
					c-0.666-0.071-1.337-0.143-2.013-0.214c-0.588-0.068-1.043-0.136-1.919-0.18c-0.746-0.049-1.495-0.099-2.246-0.148
					L317.53,241.076z"/>
			</g>
		</g>
	</g>
</g>
<g>
	<g>
		<g>
			<path fill="#FFFFFF" d="M286.383,260.339l-0.001,0.039C286.395,260.365,286.433,260.371,286.383,260.339z"/>
			<path fill="#FFFFFF" d="M276.777,259.205l-0.22,0.086C276.65,259.255,276.711,259.231,276.777,259.205z"/>
			<path fill="#FFFFFF" d="M297.583,254.93l0.055,0.088C297.633,254.97,297.612,254.944,297.583,254.93z"/>
			<g>
				<path fill="#FFFFFF" d="M294.173,245.563c-1.206-1.5-3.074-3.321-6.07-4.527c-0.763-0.289-1.556-0.524-2.35-0.697
					c-0.791-0.156-1.604-0.235-2.41-0.267c-0.842-0.041-1.489,0.042-2.23,0.13c-0.359,0.049-0.716,0.109-1.067,0.179l-0.066,0.013
					l-1.34,0.322l-0.024,0.013l-0.047,0.026l-0.094,0.053c-0.251,0.144-0.499,0.297-0.743,0.461l-0.766,0.359
					c-0.289,0.141-0.575,0.291-0.856,0.448c-0.563,0.314-1.107,0.661-1.623,1.03c-0.257,0.185-0.507,0.375-0.749,0.57
					c-0.19,0.169-0.306,0.303-0.458,0.459c-0.286,0.302-0.562,0.613-0.825,0.929s-0.515,0.639-0.752,0.965
					c-0.196,0.309-0.36,0.612-0.527,0.922c-0.316,0.623-0.689,1.316-0.85,1.893c-0.181,0.588-0.336,1.174-0.472,1.751
					c-0.121,0.567-0.146,1.065-0.209,1.588l-0.073,0.765l-0.01,0.702l-0.021,1.355c0.016,0.419,0.022,0.829,0.016,1.231
					c-0.028,0.816-0.021,1.52-0.162,2.241c-0.477,2.904-0.952,5.601-0.527,7.865l0.07,0.387c0.02,0.131,0.04,0.234,0.034,0.464
					l-0.02,1.142c-0.018,0.706-0.059,1.333-0.132,1.956c-0.139,1.217-0.4,2.346-0.688,3.44c-0.283,1.037-0.101,2.109-0.034,3.127
					c0.063,0.972-0.006,1.995-0.649,2.418c-0.338,0.191-0.779,0.253-1,0.1c-0.007-0.009-0.037,0.038,0.132,0.162
					c0.188,0.152,0.402,0.369,0.589,0.632l0.135,0.202l0.061,0.067c0.038,0.046,0.074,0.096,0.104,0.146
					c0.061,0.101,0.1,0.202,0.118,0.254c-0.017-0.034,0.063,0.151,0.133,0.286c0.077,0.151,0.184,0.329,0.315,0.502
					c0.252,0.337,0.648,0.688,0.816,0.752c0.277,0.153,0.616,0.294,1.003,0.396c0.389,0.104,0.772,0.104,1.181,0.104
					c0.835-0.005,1.516-0.245,1.95-0.443c1.579-0.887,2.314-1.503,3.067-2.894c1.555-2.902,2.357-5.873,4.698-8.332
					c0.236-0.253,0.431-0.485,0.593-0.71c0.162-0.235,0.293-0.47,0.396-0.635c0.052-0.092,0.098-0.185,0.138-0.278
					c0.048-0.126,0.106-0.335,0.152-0.501c0.098-0.355,0.178-0.716,0.233-1.015c0.245-1.285,0.334-2.398,0.884-3.375
					c1.159-2.1,3.047-3.705,3.317-4.407c0.03-0.063,0.075-0.17,0.114-0.186l0.024,0.019l0.012,0.01
					c0.004,0.004,0.033,0.023-0.09-0.054c-0.345-0.218-0.681-0.455-1.007-0.712c-0.54-0.353-0.978-0.67-1.416-1.127l-0.158-0.17
					c-0.044-0.043-0.071-0.059-0.107-0.092c-0.068-0.058-0.135-0.119-0.2-0.186c-0.13-0.132-0.253-0.28-0.366-0.445
					c-0.107-0.242-0.226-0.173-0.352-0.198c-0.124-0.02-0.25-0.063-0.368-0.13l-0.086-0.056c-0.012-0.015-0.1-0.053-0.023-0.048
					l0.255-0.023l0.511-0.047l0.255-0.023l0.017-0.002h0.004l0.002-0.001c0.766,1.444-1.041-1.967-0.855-1.616l-0.002-0.007
					l-0.008-0.027l-0.015-0.056l-0.021-0.118c-0.025-0.161-0.004-0.379-0.013-0.376c-0.004-0.051,0.032-0.171,0.005-0.066
					c-0.019,0.048-0.016,0.036-0.099,0.225c-0.227,0.481-1.095,1.485-2.679,2.532c-0.868,0.639-1.727,1.062-2.913,1.714l-0.424,0.21
					c-0.101,0.049-0.084,0.039-0.079,0.035l0.006-0.007c0.007-0.017,0.02-0.01,0.033,0.005l0.089,0.063
					c0.281,0.28,0.667,1.122,0.871,2.072c0.25,1.127,0.381,2.476,0.411,3.891c0.047,1.832,0.275,3.656,0.709,5.981l0.191,0.944
					c0.073,0.343,0.186,0.864,0.296,1.278c0.209,0.878,0.521,1.747,0.851,2.565l0.659,1.575c0.189,0.463,0.357,0.892,0.525,1.345
					c1.187,3.239,0.24,6.923,1.641,9.155c0.21,0.344,0.436,0.763,0.727,1.126c0.26,0.33,0.631,0.654,1.231,0.957l8.12,8.635
					c0.972-0.506,1.979-1.417,2.984-3.047c0.607-0.986,1.141-2.862,1.511-4.541c-0.607,2.754-1.361-3.417-1.449-3.717
					c-0.103-0.353-0.216-0.672-0.349-0.97c0.522,0.555,1.043,1.109,1.6,1.7c0.915-0.946,1.397-1.978,2.084-3.034
					c0.808-1.239,1.8-2.609,2.52-3.875c0.366-0.644,0.681-1.29,0.897-1.928c0.211-0.623,0.32-1.218,0.291-1.799
					c-0.129-2.431-0.714-4.584-1.422-6.571c-0.339-0.953-0.787-2.051-1.074-2.743l-0.05-0.082c-0.013-0.036-0.003,0.029-0.028-0.084
					l-0.092-0.493l-0.844-4.955l-1.072-6.028c-0.246-1.329-0.456-2.772-0.904-4.504c-0.238-0.88-0.512-1.802-0.982-2.897
					l-0.368-0.819c-0.147-0.296-0.323-0.616-0.493-0.919C295.201,246.983,294.673,246.22,294.173,245.563z"/>
			</g>
		</g>
	</g>
</g>
<g>
	<g>
		<g>
			<path fill="#FFFFFF" d="M251.981,281.143l-0.002,0.037C251.985,281.188,252.002,281.256,251.981,281.143z"/>
			<path fill="#FFFFFF" d="M253.446,280.396l-0.068,0.607C253.406,280.751,253.426,280.582,253.446,280.396z"/>
			<path fill="#FFFFFF" d="M259.703,243.281l0.059-0.035C259.738,243.237,259.72,243.252,259.703,243.281z"/>
			<g>
				<path fill="#FFFFFF" d="M254.597,242.598c-0.584,0-1.218,0.086-1.83,0.205c-0.62,0.111-1.182,0.43-1.765,0.721
					c-0.544,0.392-1.1,0.807-1.589,1.382c-0.481,0.59-0.966,1.213-1.357,2c-0.859,1.579-1.501,3.341-2.08,5.05
					c-0.557,1.735-1.033,3.349-1.62,4.531l-0.954,1.843c-0.318,0.678-0.633,1.28-0.938,2.054c-0.606,1.42-1.17,3.271-1.508,5.394
					c-0.317,2.203-0.792,4.144-1.271,5.932c-0.228,0.893-0.54,1.753-0.919,2.58l-0.272,0.622l-0.138,0.311l-0.19,0.269
					c-0.255,0.357-0.512,0.718-0.754,1.087c-0.787,1.152-0.914,2.218-1.105,3.102c-0.159,0.853-0.433,1.531-0.84,1.336
					c-0.103-0.074-0.199-0.132-0.271-0.283l-0.044-0.091l0.024,0.058c-0.014-0.028-0.042-0.104-0.052-0.146
					c-0.004-0.002-0.024-0.119-0.017-0.072c0.012,0.102,0.024,0.268,0.016,0.473c-0.032,0.391-0.231,0.859-0.303,1.177
					c-0.034,0.14,0.025,0.552,0.168,0.981c0.134,0.424,0.374,0.889,0.474,1.049c0.167,0.278,0.387,0.577,0.658,0.87
					c0.266,0.281,0.571,0.517,0.913,0.738c0.663,0.406,1.44,0.612,1.898,0.59c0.957-0.011,1.677-0.191,2.306-0.444
					c0.639-0.259,1.187-0.63,1.789-1.197c0.621-0.587,1.157-1.178,1.665-1.718c0.254-0.271,0.507-0.536,0.75-0.773
					c0.241-0.235,0.519-0.51,0.708-0.611c0.407-0.271,0.875-0.458,1.328-0.58c0.456-0.121,0.834-0.197,1.3-0.097
					c0.746,0.169,0.976-0.064,1.128-0.472c0.153-0.383,0.233-0.938,0.544-0.841c0.334,0.11,0.706,0.569,0.998,1.007
					c0.295,0.428,0.496,0.831,0.574,0.546c0.085-0.319,0.302,0.037,0.472,0.501c0.176,0.448,0.285,0.99,0.394,0.698
					c0.114-0.284,0.245-0.852,0.489-1.216c0.145-0.247,0.154-0.256,0.219-0.3c0.052-0.025,0.101,0.004,0.135,0.11
					c0.081,0.247,0.124,0.695,0.103,1.256l-0.003,0.071c-0.029,0.651,0.067,0.79,0.174,0.943c0.109,0.141,0.234,0.29,0.234,0.618
					c-0.001,0.316-0.441,1.07-0.834,1.451c-0.195,0.201-0.378,0.329-0.469,0.379c-0.04,0.043-0.08-0.003-0.044,0.066
					c0.056,0.153,0.121,0.304,0.196,0.451l0.132,0.243c0.123,0.258,0.253,0.514,0.389,0.767c0.241,0.447,0.498,0.906,0.773,1.365
					c0.333,0.506,0.697,1.018,1.087,1.513c0.194,0.246,0.396,0.495,0.604,0.728c0.21,0.213,0.426,0.422,0.647,0.626
					c0.444,0.408,0.912,0.794,1.396,1.143c0.43,0.255,0.871,0.48,1.324,0.674c0.227,0.097,0.456,0.184,0.687,0.262l0.347,0.109
					c0.104,0.02,0.202,0.029,0.305,0.041c0.812,0.088,1.652,0.037,2.499-0.207l1.89,0.894c0.443-0.4,0.894-0.897,1.357-1.51
					c0.695-0.922,1.42-2.732,1.965-4.362c-0.529,1.58-0.756,0.065-0.862-1.502l-0.21-0.1c0.167-1.104,0.495-2.152,0.516-2.273
					c0.277-1.797,0.359-2.818,1.151-3.639c0.209-0.202,0.437-0.377,0.675-0.521c0.237-0.144,0.505-0.343,0.764-0.469
					c0.131-0.068,0.263-0.13,0.393-0.184c0.07-0.004,0.122-0.093,0.174-0.183l0.157-0.253c0.208-0.339,0.41-0.679,0.601-1.02
					c0.709-1.696,1.217-3.824,1.194-5.782c-0.05-2.046-0.211-4.106-0.441-6.14c-0.354-1.802-0.8-3.536-1.272-5.249
					c-0.485-1.644-1.033-3.092-1.572-4.612c-0.548-1.536-1.097-3.075-1.647-4.617c-0.469-1.356-1.074-3.001-1.624-4.48l-1.683-4.508
					c-1.814,0.145-2.815,0.145-4.019,0.048c-0.754-0.066-1.508-0.229-2.29-0.351c-0.063-0.021-0.279-0.019-0.448-0.023l-0.53-0.011
					l-1.066-0.017L254.597,242.598z"/>
			</g>
		</g>
	</g>
</g>
</svg>
