<?xml version="1.0" encoding="utf-8"?>
<!-- Generator: Adobe Illustrator 16.0.0, SVG Export Plug-In . SVG Version: 6.00 Build 0)  -->
<!DOCTYPE svg PUBLIC "-//W3C//DTD SVG 1.1//EN" "http://www.w3.org/Graphics/SVG/1.1/DTD/svg11.dtd">
<svg version="1.1" id="Layer_1" xmlns="http://www.w3.org/2000/svg" xmlns:xlink="http://www.w3.org/1999/xlink" x="0px" y="0px"
	 width="500px" height="500px" viewBox="0 0 500 500" enable-background="new 0 0 500 500" xml:space="preserve">
<g>
	<g>
		<g>
			<g>
				<path fill="#FFFFFF" d="M182.38,417.377l-0.567-0.227C182.065,417.261,182.221,417.353,182.38,417.377z"/>
				<path fill="#FFFFFF" d="M269.128,438.181l-0.175,0.241C269.152,438.284,269.169,438.218,269.128,438.181z"/>
				<path fill="#FFFFFF" d="M279.714,416.833l0.457-0.264C279.945,416.683,279.811,416.765,279.714,416.833z"/>
				<g>
					<path fill="#FFFFFF" d="M253.087,428.411c-0.007-0.004,0.021,0-0.046-0.04l-0.475-0.222c-0.193-0.09-0.375-0.154-0.563-0.231
						c-0.371-0.144-0.759-0.304-1.119-0.422c-1.477-0.51-2.814-0.802-4.027-1.044c-1.22-0.238-2.267-0.392-3.171-0.548
						c-0.905-0.154-1.675-0.297-2.235-0.452c-0.162-0.034-0.275-0.077-0.398-0.114c-0.12-0.036-0.22-0.057-0.5-0.166l-1.411-0.524
						l-2.825-1.042l-5.658-2.05c-3.776-1.353-7.56-2.676-11.35-3.97c-3.791-1.389-7.575-2.775-11.35-4.157
						c-3.911-1.383-7.815-2.764-11.719-4.144c-3.929-1.373-7.858-2.745-11.794-4.12c-7.86-2.775-15.712-5.643-23.537-8.81
						c-8.277-3.376-16.517-6.737-24.753-10.097c-4.127-1.658-8.253-3.316-12.383-4.976l-6.217-2.441l-3.077-1.202
						c-0.917-0.391-1.855-0.749-2.733-1.213c-3.615-1.733-6.796-4.17-9.448-7.12c-1.339-1.465-2.489-3.107-3.564-4.801
						c-1.049-1.717-1.954-3.537-2.765-5.412c-3.205-7.606-4.249-16.013-4.8-24.868c-0.286-4.261-0.566-8.622-1.093-13.021
						l-0.771-6.412l-0.375-3.139l-0.252-3.172c-0.178-2.113-0.335-4.233-0.416-6.374c-0.101-2.136-0.201-4.268-0.24-6.426
						l-0.132-6.506c-0.047-2.206-0.038-4.4-0.24-6.68c-0.073-1.21-0.146-2.417-0.22-3.622c-0.125-1.229-0.294-2.436-0.437-3.541
						c-0.282-2.224-0.481-4.243-0.208-5.883c0.018-0.1,0.035-0.226,0.051-0.373c0.015-0.168,0.031-0.36,0.05-0.574
						c0.052-0.583,0.114-1.283,0.184-2.062c0.029-0.389,0.059-0.796,0.09-1.219c0.04-0.419,0.056-0.858,0.027-1.318
						c-0.037-0.908-0.075-1.856-0.113-2.804c-0.004-0.471-0.069-0.941-0.155-1.407c-0.078-0.464-0.155-0.923-0.23-1.371
						c-0.179-0.891-0.248-1.755-0.523-2.495c-0.462-1.498-0.856-2.668-1.085-3.229c-0.209-0.512-0.139,1.075-0.022,2.979
						c0.107,0.943,0.022,2.004-0.013,2.931c-0.049,0.929-0.05,1.731-0.11,2.217c-0.117,0.789-0.242,1.631-0.373,2.509
						c-0.075,0.434-0.106,0.88-0.219,1.321c-0.11,0.44-0.223,0.888-0.337,1.34c-0.429,1.832-1.004,3.569-1.101,5.443
						c-0.126,1.858,0.012,3.706,0.134,5.357c0.149,1.653,0.207,3.114,0.208,4.317c0.046,2.421,0.139,4.488,0.012,6.441
						c-0.068,1.946-0.131,3.733-0.194,5.528c-0.151,3.612-0.205,7.267-0.159,12.308c0.098,2.609,0.127,5.21,0.288,7.811
						c0.191,2.585,0.382,5.163,0.572,7.736c0.425,5.009,0.543,10.07,0.794,15.213c0.256,5.139,0.656,10.363,1.627,15.622
						c0.924,5.262,2.473,10.501,4.901,15.57c0.966,2.054,2.185,4.025,3.528,5.938c1.409,1.866,2.929,3.698,4.694,5.307
						c3.464,3.292,7.646,5.83,11.993,7.692c7.838,3.272,15.728,6.49,23.359,9.923c16.531,7.434,32.862,15.211,49.718,22.137
						c8.952,3.662,17.881,7.631,26.779,11.539c2.207,1.006,4.5,1.898,6.772,2.818l6.833,2.734l6.855,2.691l3.438,1.324l0.43,0.165
						c0.135,0.053,0.28,0.107,0.512,0.181c0.41,0.131,0.842,0.278,1.238,0.384c0.807,0.224,1.566,0.396,2.295,0.542
						c1.775,0.344,3.277,0.539,4.482,0.767c0.606,0.11,1.116,0.229,1.565,0.349c0.193,0.069,0.437,0.117,0.594,0.188l0.26,0.094
						c0.047,0.014,0.084,0.03,0.117,0.049l0.053,0.025c0.016,0.008,0.022,0.008,0.116,0.07l0.858,0.569l0.899,0.629
						c0.594,0.489,1.209,0.665,1.818,0.94c0.15,0.062,0.309,0.139,0.453,0.187l0.41,0.098l0.82,0.195
						c0.525,0.132,1.224,0.138,1.867,0.109c0.652-0.037,1.306-0.141,1.922-0.299c0.614-0.143,1.097-0.41,1.636-0.633
						c0.134-0.062,0.261-0.107,0.399-0.181l0.429-0.262l0.85-0.542c0.541-0.454,1.087-0.964,1.599-1.487l0.297-0.246
						c0.093-0.075,0.052-0.036,0.084-0.061l0.087-0.06c0.046-0.044,0.146-0.078,0.218-0.121c0.136-0.087,0.35-0.171,0.548-0.264
						c0.448-0.182,0.969-0.371,1.658-0.571c1.313-0.403,3.132-0.829,5.242-1.631c0.553-0.234,1.076-0.428,1.655-0.727l0.845-0.429
						l0.54-0.291l2.164-1.164l4.33-2.325c5.787-3.076,11.576-6.152,17.371-9.231c4.933-2.574,9.91-5.222,14.827-7.7
						c4.925-2.472,9.827-4.98,14.782-7.386l9.499-4.37c3.167-1.454,6.296-2.972,9.52-4.332c6.422-2.77,12.753-5.671,19.247-8.34
						l9.688-4.079l4.898-2.057c1.609-0.679,3.211-1.349,4.767-1.974c3.12-1.249,6.136-2.317,9.106-3.054
						c0.741-0.158,1.484-0.382,2.221-0.493l2.249-0.379c2.284-0.317,4.688-0.932,7.03-2.01c2.113-0.967,4.142-2.332,5.836-3.953
						c1.709-1.617,3.058-3.449,4.121-5.262c1.068-1.819,1.878-3.633,2.555-5.396c0.331-0.88,0.637-1.751,0.907-2.607
						c0.276-0.854,0.457-1.588,0.69-2.387c0.892-3.136,1.781-6.268,2.67-9.396c0.819-3.115,1.527-6.202,2.292-9.307
						c0.766-3.128,1.467-6.153,2.168-9.203c0.709-3.04,1.363-6.142,2.135-9.083c0.745-3,1.457-5.921,2.175-9.02
						c0.37-1.659,0.741-3.321,1.112-4.986c0.172-0.833,0.382-1.666,0.517-2.503l0.381-2.515c0.241-1.769,0.593-3.651,0.771-5.519
						c0.194-1.875,0.394-3.803,0.596-5.761c0.145-1.912,0.291-3.854,0.438-5.801l0.097-1.461l0.022-0.37l0.013-0.454l0.022-0.907
						l0.025-1.81c0.006-0.603-0.064-1.154-0.097-1.73c-0.33-4.59-1.323-8.424-2.092-11.636c-0.205-0.812-0.404-1.596-0.563-2.313
						c-0.172-0.732-0.381-1.472-0.497-2.128c-0.075-0.34-0.149-0.675-0.223-1.006l-0.119-0.484
						c-0.043-0.182-0.075-0.172-0.114-0.271c-0.15-0.296-0.296-0.631-0.402-1c-0.129-0.425-0.237-0.779-0.326-1.075
						c-0.121-0.355-0.176-0.699-0.213-0.857c-0.053-0.185-0.129-0.377-0.268-0.635c-0.061-0.021,0.004-0.216,0.002-0.322
						c0.007-0.118-0.003-0.218-0.026-0.302c-0.046-0.168-0.143-0.274-0.265-0.348c0.115,0.038,0.021,0.306-0.127,0.573
						c-0.02,0.103-0.106,0.158-0.236,0.18c-0.306-0.049-0.622,0.372-0.841,0.846c-0.244,0.478-0.522,1.051-0.744,1.73
						c-0.107,0.34-0.215,0.703-0.315,1.091c-0.093,0.445-0.187,0.899-0.281,1.355c-0.783,3.74-1.168,7.931-1.214,8.456
						c-0.14,3.321-0.084,6.751-0.53,10c-0.145,0.819-0.242,1.581-0.41,2.432l-0.526,2.58c-0.357,1.713-0.688,3.441-1.087,5.107
						c-1.461,6.498-3.324,12.386-5.495,18.148c-2.152,6.081-4.412,12.592-5.984,19.472c-0.864,3.598-1.727,7.19-2.589,10.782
						l-1.264,5.336c-0.437,1.763-0.947,3.46-1.411,5.193l-1.409,5.174c-0.462,1.825-0.929,3.205-1.469,4.535
						c-0.536,1.306-1.132,2.414-1.75,3.256c-0.623,0.848-1.237,1.427-1.938,1.882c-0.701,0.453-1.55,0.802-2.641,1.039
						c-0.681,0.158-3.392,0.53-5.378,0.961c-4.195,0.893-8.135,2.242-11.775,3.679c-1.815,0.72-3.595,1.449-5.311,2.172
						l-5.113,2.136c-3.445,1.441-6.894,2.884-10.346,4.327c-11.733,4.933-23.42,10.122-34.963,15.698l-4.341,2.056l-4.284,2.198
						l-8.566,4.402l-4.285,2.196l-4.207,2.203l-8.423,4.392c-5.656,2.901-11.395,5.846-17.188,8.817
						c-1.451,0.738-2.905,1.479-4.362,2.22l-2.188,1.113l-0.548,0.278l-0.239,0.105c-0.113,0.067-0.35,0.133-0.52,0.211
						c-0.878,0.313-2.22,0.628-4.097,1.132c-0.903,0.241-1.984,0.576-3.108,1.007c-0.586,0.239-1.157,0.469-1.779,0.79
						c-0.308,0.158-0.601,0.289-0.917,0.483l-0.466,0.276l-0.185,0.111l0.094-0.051
						C253.104,428.463,253.087,428.438,253.087,428.411z"/>
				</g>
			</g>
		</g>
	</g>
	<g>
		<g>
			<g>
				<path fill="#FFFFFF" d="M98.988,69.805l0.376-0.137C99.192,69.722,99.073,69.736,98.988,69.805z"/>
				<path fill="#FFFFFF" d="M69.333,116.58l-0.184-0.084C69.226,116.597,69.288,116.603,69.333,116.58z"/>
				<path fill="#FFFFFF" d="M86.277,120.989c-0.008,0.004,0.157,0.181,0.157,0.181C86.371,121.076,86.313,121.028,86.277,120.989z"
					/>
				<g>
					<path fill="#FFFFFF" d="M83.333,105.93c0.891-6.868,4.696-13.41,10.509-18.516c2.947-2.715,6.491-4.96,10.445-6.64
						c3.966-1.671,8.373-2.746,12.995-3.162c2.446-0.228,4.925-0.346,7.433-0.399c1.244-0.019,2.531-0.073,3.758-0.027l3.705,0.102
						l3.708,0.078c1.236,0.069,2.471,0.208,3.709,0.299c2.474,0.226,4.968,0.294,7.451,0.669c1.252,0.161,2.5,0.32,3.744,0.479
						c1.244,0.17,2.488,0.321,3.71,0.607c2.454,0.515,4.896,1.041,7.333,1.616c4.866,1.304,9.708,2.704,14.465,4.456
						c2.324,0.778,4.588,1.648,6.896,2.431c1.164,0.372,2.272,0.853,3.411,1.274c1.128,0.443,2.279,0.846,3.394,1.319l3.318,1.48
						l1.653,0.759l1.596,0.86c1.062,0.579,2.117,1.17,3.163,1.779c1.024,0.641,2.004,1.35,2.988,2.051
						c2.064,1.468,4.213,3.215,5.907,4.79c0.223,0.196,0.637,0.539,1.22,0.941c0.287,0.203,0.539,0.439,0.85,0.674
						c0.322,0.231,0.601,0.491,0.87,0.756c0.612,0.503,1.03,1.095,1.49,1.569c0.339,0.522,0.656,0.947,0.85,1.151
						c0.177,0.184,0.194-0.484,0.148-1.414c-0.118-0.888-0.421-2.005-0.659-2.451c-0.596-1.544-1.883-3.408-3.362-5.01
						c-1.474-1.612-2.964-3.073-4.064-3.962c-1.108-0.916-2.069-1.709-2.957-2.443c-0.883-0.753-1.779-1.308-2.645-1.93
						c-0.875-0.604-1.765-1.198-2.75-1.836c-0.998-0.612-2.121-1.208-3.413-1.92l-2.006-1.089c-0.675-0.348-1.363-0.661-2.043-0.992
						c-1.367-0.645-2.72-1.326-4.095-1.939c-2.766-1.183-5.516-2.4-8.314-3.457c-2.775-1.145-5.592-2.109-8.389-3.203
						c-2.823-0.98-5.6-2.094-8.491-3.055c-1.16-0.408-2.337-0.791-3.527-1.153c-1.192-0.353-2.382-0.741-3.62-0.973
						c-2.458-0.524-4.951-0.989-7.449-1.434c-2.523-0.331-5.067-0.573-7.591-0.878l-1.894-0.221l-1.904-0.111
						c-1.268-0.08-2.531-0.171-3.79-0.28c-1.358-0.105-2.743-0.271-4.083-0.338l-4.045-0.187c-2.718-0.092-5.478-0.117-8.279,0
						c-5.588,0.218-11.422,1.106-17.053,3.192c-5.977,2.244-11.701,5.44-16.675,9.847c-0.653,0.509-1.211,1.133-1.797,1.726
						l-1.737,1.808c-1.088,1.273-2.103,2.63-3.1,3.991l-1.321,2.182c-0.429,0.736-0.893,1.451-1.218,2.248
						c-0.689,1.569-1.467,3.101-1.906,4.779c-2.045,6.465-2.359,13.58-0.631,20.168c1.702,6.598,5.218,12.558,9.68,17.332
						l0.975,1.053l0.489,0.525l0.573,0.509l2.333,2.008l2.501,1.714c0.416,0.297,0.843,0.551,1.28,0.775l1.301,0.705
						c3.479,1.813,7.061,3.089,10.495,3.986c2.175,0.581,4.316,1.049,6.41,1.45c2.148,0.38,4.377,0.768,6.58,0.971
						c4.419,0.471,8.857,0.569,13.24,0.362c8.773-0.448,17.262-2.086,25.449-4.075c7.258-1.8,14.416-3.574,21.584-5.352
						c7.062-1.74,14.11-3.553,21.132-5.88c7.438-2.464,17.57-5.54,23.036-10.266c1.479-1.273,1.533-2.67,1.16-3.751
						c0.306,0.884-2.028,1.195-4.351,1.033c-2.358-0.107-4.863-0.439-5.189-0.438c-3.944,0.002-8.091,0.715-12.135,1.111
						c-7.832,0.767-15.023,0.858-23.026,2.752c-4.192,0.993-8.356,2.051-12.502,3.156c-4.091,1.111-8.114,2.214-12.12,3.205
						c-8.001,1.985-15.928,3.531-23.809,3.884c-3.344,0.129-6.665,0.071-9.956-0.188l-2.46-0.246
						c-0.818-0.094-1.628-0.235-2.444-0.348c-0.802-0.104-1.647-0.259-2.498-0.419c-0.854-0.151-1.694-0.31-2.492-0.493
						c-3.26-0.69-6.27-1.554-8.834-2.75l-1.824-0.967c-0.564-0.356-1.086-0.744-1.642-1.099c-0.541-0.369-0.965-0.838-1.466-1.235
						l-0.366-0.307l-0.361-0.407l-0.726-0.809c-2.322-2.567-4.101-5.549-5.116-8.733C83.128,112.577,82.889,109.212,83.333,105.93z"
						/>
				</g>
			</g>
		</g>
	</g>
	<g>
		<g>
			<g>
				<path fill="#FFFFFF" d="M436.467,248.142l-0.416-0.012C436.237,248.144,436.358,248.175,436.467,248.142z"/>
				<path fill="#FFFFFF" d="M480.206,217.647l0.129,0.145C480.308,217.674,480.258,217.646,480.206,217.647z"/>
				<path fill="#FFFFFF" d="M466.497,207.122l-0.053-0.235C466.455,207,466.475,207.07,466.497,207.122z"/>
				<g>
					<path fill="#FFFFFF" d="M463.356,220.996c-3.127,5.028-9.627,8.989-16.891,12.178c-1.833,0.841-3.607,1.448-5.395,1.995
						c-1.771,0.486-3.523,0.773-5.315,0.833c-3.558,0.092-7.423-0.986-11.296-2.944c-2.063-1.006-4.057-2.181-6.206-3.375
						c-1.21-0.627-2.418-1.259-3.638-1.862l-3.827-1.481c-5.213-1.72-10.721-2.217-15.93-1.798
						c-1.313,0.103-2.597,0.275-3.887,0.397c-1.285,0.136-2.528,0.374-3.789,0.545l-0.941,0.137l-1.038,0.211
						c-0.697,0.143-1.395,0.283-2.067,0.505c-1.365,0.378-2.687,0.887-3.968,1.479c-2.559,1.19-4.952,2.777-7.037,4.809
						c-2.076,2.027-3.856,4.536-4.926,7.49c-1.046,2.834-1.227,6.071-0.527,9.004c0.401,1.651,0.69,2.438,1.02,3.494
						c0.252,1.028,0.546,2.055,0.709,3.103c0.794,4.17,0.596,8.568-0.694,12.752c-0.684,2.233-1.654,4.374-2.695,6.504
						c-0.177,0.396-0.522,1.443-0.885,2.676c-0.39,1.268-0.83,2.7-1.169,3.801c-0.152,0.517-0.261,0.996-0.332,1.371
						c-0.06,0.38-0.033,0.519-0.034,0.692c0.008,0.146,0.147,0.043,0.358-0.206c0.202-0.243,0.597-0.863,1-1.387
						c0.672-0.77,1.339-1.5,1.638-1.891c1.066-1.307,2.344-3.023,3.445-4.767c1.094-1.742,2.031-3.503,2.53-4.758
						c1.041-2.527,1.627-4.487,2.033-6.506c0.418-2.018,0.649-4.117,0.555-7.007c-0.008-0.749-0.072-1.491-0.15-2.233l-0.109-1.114
						l-0.175-1.103c-0.11-0.737-0.231-1.472-0.409-2.192c-0.151-0.7-0.359-1.53-0.421-2.027c-0.43-2.257-0.142-4.523,0.848-6.529
						c2.01-4.01,6.38-6.899,10.897-7.573c0.46-0.053,0.907-0.144,1.36-0.192c0.456-0.029,0.907-0.068,1.354-0.117
						c1.063-0.05,2.15-0.115,3.224-0.202c2.139-0.1,4.273-0.234,6.355-0.162c4.169,0.077,8.226,0.725,11.802,2.368
						c0.958,0.463,1.932,0.868,2.816,1.484c0.932,0.593,1.721,1.036,2.85,1.816c2.096,1.422,4.297,2.831,6.654,4.158
						c2.345,1.33,4.949,2.553,7.812,3.448c2.854,0.9,5.988,1.411,9.079,1.393c3.3,0,6.448-0.499,9.409-1.165
						c1.51-0.31,2.906-0.744,4.344-1.14c1.39-0.461,2.759-0.858,4.145-1.403c1.381-0.546,2.771-1.028,4.138-1.712l2.055-0.975
						l2.022-1.145c1.358-0.724,2.646-1.704,3.944-2.61c0.643-0.473,1.25-1.034,1.869-1.557c0.618-0.528,1.231-1.062,1.789-1.688
						l1.673-1.799c0.515-0.651,1.016-1.318,1.514-1.982c0.518-0.647,0.953-1.364,1.378-2.089c0.413-0.729,0.892-1.421,1.23-2.189
						c1.529-3.005,2.439-6.234,3.025-9.435c0.943-6.43,0.222-12.579-1.097-18.241c-1.535-6.485-3.775-12.548-6.053-18.373
						c-2.903-7.348-6.098-14.188-8.524-20.979c-1.188-3.391-2.201-6.769-2.93-10.151c-0.67-3.411-1.065-6.679-1.174-10.314
						c-0.239-6.453,0.632-12.872,1.879-19.175c1.275-6.313,2.94-12.544,4.684-18.901c0.907-3.375,2.207-7.273,3.296-11.134
						c1.138-3.842,2.004-7.683,2.047-11.02c0.001-1.63-0.944-2.641-1.959-3.174c0.83,0.441-0.512,1.988-2.138,3.523
						c-1.575,1.555-3.425,3.122-3.633,3.357c-2.437,2.846-4.437,6.361-6.401,9.737c-3.856,6.506-7.601,12.572-9.543,20.523
						c-2.047,8.306-2.991,16.921-2.842,25.619c0.014,1.086,0.092,2.177,0.14,3.266l0.085,1.634c0.036,0.55,0.111,1.126,0.167,1.688
						c0.133,1.127,0.219,2.268,0.401,3.382l0.577,3.337c0.894,4.406,2.14,8.662,3.567,12.757c2.455,6.941,5.438,13.364,8.113,19.562
						c1.341,3.107,2.609,6.163,3.691,9.204c1.128,3.036,2.001,6.085,2.702,9.076c0.806,3.489,1.076,6.986,0.746,10.156
						C465.923,215.855,464.926,218.599,463.356,220.996z"/>
				</g>
			</g>
		</g>
	</g>
	<g>
		<g>
			<g>
				<path fill="#FFFFFF" d="M394.381,86.315l-0.292-0.099C394.217,86.269,394.293,86.323,394.381,86.315z"/>
				<path fill="#FFFFFF" d="M413.632,114.212l-0.113-0.138C413.539,114.163,413.584,114.198,413.632,114.212z"/>
				<path fill="#FFFFFF" d="M419.102,130.825l-0.237,0.275C418.988,130.979,419.057,130.895,419.102,130.825z"/>
				<g>
					<path fill="#FFFFFF" d="M430.443,108.608c0.506-3.139,0.443-6.875-0.744-10.433c-0.314-0.882-0.605-1.773-1.051-2.6
						l-0.641-1.248c-0.226-0.407-0.491-0.782-0.742-1.169c-0.258-0.381-0.514-0.769-0.785-1.133l-0.866-1.029l-0.441-0.506
						c-0.148-0.169-0.305-0.349-0.41-0.438l-0.707-0.669l-2.849-2.64c-0.937-0.886-2.033-1.622-3.047-2.421
						c-2.012-1.628-4.288-2.921-6.491-4.24c-1.144-0.668-2.382-1.183-3.565-1.764l-1.791-0.836c-0.596-0.276-1.232-0.47-1.845-0.706
						l-3.693-1.333l-3.767-1.024c-0.626-0.165-1.246-0.349-1.873-0.499l-1.901-0.365c-1.266-0.237-2.521-0.512-3.781-0.735
						c-1.265-0.171-2.531-0.342-3.801-0.513c-0.629-0.084-1.271-0.2-1.889-0.269l-1.834-0.172c-2.588-0.271-5.169-0.541-7.748-0.811
						c-1.284-0.173-2.588-0.171-3.882-0.244l-3.888-0.163l-3.885-0.143c-1.295-0.019-2.596,0.07-3.894,0.11
						c-2.596,0.115-5.192,0.219-7.783,0.433c-5.203,0.764-10.322,1.097-15.44,2.014c-5.112,0.854-10.207,1.967-15.281,3.525
						c-4.895,1.501-9.56,3.69-13.991,6.217c-4.44,2.529-8.646,5.387-12.846,8.302c-2.25,1.548-4.465,3.143-6.578,4.894
						c-0.497,0.452-1.895,1.943-3.063,3.617c-0.297,0.413-0.593,0.825-0.877,1.221c-0.339,0.493-0.662,0.964-0.956,1.392
						c-0.164,0.254-0.437,0.839-0.48,1.062c-0.049,0.202-0.113,0.462-0.121,0.597c-0.044,0.339-0.04,0.556-0.038,0.736
						c0.014,0.345,0.052,0.432,0.095,0.475c0.042,0.036,0.126,0.072,0.273-0.058c0.175-0.162,0.275-0.574,0.762-1.557
						c0.097-0.185,0.21-0.366,0.333-0.534c0.112-0.145,0.121-0.113,0.188-0.178l0.04-0.032l0.01-0.008l0.128-0.158l0.002-0.001
						l0.002-0.001l0.006-0.003l0.022-0.014l0.089-0.056l0.179-0.111c0.236-0.149,0.471-0.298,0.691-0.438
						c0.436-0.283,0.817-0.532,1.049-0.683c1.474-1.029,3.434-2.194,5.229-3.342c1.833-1.075,3.584-2.103,4.773-2.801
						c2.343-1.453,4.147-2.354,5.901-3.334c0.898-0.458,1.791-0.929,2.757-1.458c0.981-0.499,2.05-1.041,3.286-1.668
						c10.251-5.064,21.254-7.911,32.518-8.165l1.706-0.06l1.728-0.01c1.153-0.014,2.308-0.051,3.463-0.104
						c1.156-0.053,2.313-0.123,3.472-0.203L351.617,80l1.751-0.011c2.335-0.025,4.673-0.049,7.002-0.074
						c0.583,0.003,1.164-0.021,1.745,0.011l1.74,0.13c1.158,0.092,2.313,0.196,3.458,0.318c4.972,0.386,9.87,1.511,14.769,2.324
						c4.627,1.047,9.055,2.3,13.322,4.021c4.528,1.846,8.654,4.493,12.355,7.631l2.695,2.46c0.861,0.864,1.675,1.787,2.525,2.663
						c0.394,0.42,0.947,0.958,1.055,1.167c0.1,0.14,0.224,0.269,0.32,0.405c0.076,0.143,0.157,0.281,0.246,0.415
						c0.103,0.128,0.164,0.271,0.221,0.414l0.207,0.413c0.066,0.307,0.242,0.563,0.281,0.896c0.201,0.591,0.211,1.323,0.248,2.084
						l-0.044,0.61c-0.021,0.217-0.001,0.375-0.062,0.677l-0.249,1.634c-0.406,2.148-1.01,4.21-1.857,6.155
						c-1.726,3.867-4.497,7.259-8.122,10.032c-4.214,3.234-9.541,5.634-14.979,7.348c-6.907,2.097-14.147,3.285-21.61,3.526
						c-1.872,0.02-3.731,0.126-5.623,0.045l-2.828-0.06l-2.822-0.192c-3.771-0.191-7.511-0.712-11.233-1.297
						c-6.734-1.138-13.146-3.308-19.376-5.784c-6.249-2.443-12.245-5.556-18.396-8.494c-0.847-0.43-1.731-0.878-2.642-1.34
						c-0.964-0.479-1.955-0.972-2.962-1.472c-1.077-0.494-2.16-0.994-3.296-1.462c-1.199-0.443-2.336-0.914-3.596-1.269
						c-0.632-0.167-1.262-0.334-1.887-0.5l-0.934-0.227c-0.359-0.061-0.716-0.121-1.072-0.181c-0.714-0.111-1.418-0.205-2.108-0.281
						c-0.332-0.031-0.715-0.085-0.994-0.085c-0.26,0.013-0.518,0.026-0.773,0.039c-0.511,0.03-1.015,0.07-1.51,0.12
						c-0.248,0.028-0.493,0.056-0.735,0.084l-0.046,0.005l-0.005,0.001c0.067,0.009-0.617-0.077-0.327-0.04l0.001,0.002l0.001,0.005
						l0.005,0.021c-0.001,0.032,0.012-0.018-0.007,0.126c-0.026,0.206-0.065,0.413-0.119,0.619c-0.135,0.664-0.324,0.98-0.281,0.911
						c-0.001,0.003-0.009,0.017-0.007,0.014l0.086-0.138c0.06-0.087,0.122-0.167,0.188-0.238c0.039-0.045,0.052-0.047,0.114-0.121
						c0.128-0.154,0.037-0.057,0.038-0.067l-0.121,0.075c-0.395,0.114-1.083,0.041-1.702,0.116c-0.626,0.072-1.2,0.314-1.677,0.632
						c0.388-0.272,0.78,0.141,1.088,0.724c0.327,0.579,0.487,1.218,1.18,1.839c0.158,0.176,0.385,0.272,0.594,0.425
						c0.294,0.152,0.515,0.289,0.768,0.433c0.486,0.29,0.948,0.565,1.355,0.808c0.827,0.468,1.381,0.917,1.507,1.005
						c3.184,1.873,6.501,3.933,9.504,6.4c1.451,1.199,2.869,2.431,4.297,3.672c0.742,0.62,1.482,1.236,2.221,1.852
						c0.75,0.603,1.518,1.169,2.288,1.75c1.556,1.13,3.106,2.338,4.823,3.341c1.711,1.016,3.501,2.004,5.413,2.923
						c8.1,3.677,16.692,6.297,25.471,7.901c2.182,0.479,4.405,0.709,6.616,1.018c1.107,0.135,2.212,0.318,3.324,0.408l3.341,0.249
						l3.343,0.242c1.116,0.049,2.235,0.063,3.354,0.096c2.229,0.096,4.498,0.002,6.755-0.022c7.693-0.218,15.533-1.374,23.127-3.681
						c1.892-0.604,3.796-1.16,5.634-1.941l2.776-1.099c0.92-0.383,1.821-0.822,2.731-1.232c3.622-1.726,7.204-3.792,10.58-6.375
						c2.021-1.536,3.976-3.273,5.814-5.2c1.794-1.97,3.539-4.073,4.953-6.438C427.808,119.265,429.597,113.885,430.443,108.608z"/>
				</g>
			</g>
		</g>
	</g>
	<g>
		<g>
			<g>
				<path fill="#FFFFFF" d="M31.073,178.465l0.048-0.353C31.092,178.27,31.05,178.368,31.073,178.465z"/>
				<path fill="#FFFFFF" d="M28.746,230.11l-0.173-0.09C28.641,230.119,28.698,230.129,28.746,230.11z"/>
				<path fill="#FFFFFF" d="M44.932,236.011l0.095,0.131C44.995,236.073,44.963,236.036,44.932,236.011z"/>
				<g>
					<path fill="#FFFFFF" d="M43.137,219.585c0.104-2.36,0.221-4.784,0.232-7.094c0.003-2.299-0.022-4.596-0.076-6.891
						c-0.054-2.293-0.077-4.456-0.165-6.691l-0.132-3.321l-0.012-3.219l-0.057-3.331l-0.04-1.672l0.044-1.696
						c0.045-2.27,0.155-4.537,0.306-6.812c0.17-2.298,0.414-4.591,0.644-7.13c0.05-0.639,0.124-1.255,0.161-1.91l0.101-1.978
						c0.057-1.314,0.03-2.646,0.029-3.951c-0.082-1.347-0.083-2.75-0.231-4.043l-0.386-3.918c-0.101-1.31-0.365-2.587-0.542-3.881
						c-0.207-1.287-0.369-2.586-0.657-3.85c-0.958-5.116-2.384-10.081-4.045-14.948c-1.757-4.857-3.457-9.614-5.208-14.319
						c-0.462-1.207-0.76-2.289-1.135-3.435c-0.355-1.133-0.711-2.267-1.068-3.403c-0.606-2.3-1.03-4.653-1.56-6.995
						c-0.27-2.303-0.697-4.576-1.031-6.87l-0.345-3.463c-0.097-1.157-0.308-2.311-0.291-3.478
						c-0.198-4.652-0.063-9.371,0.908-13.988c0.269-1.23,0.559-2.45,0.851-3.665c0.26-1.219,0.713-2.409,1.047-3.617
						c0.088-0.296,0.187-0.908,0.284-1.681c0.093-0.852,0.206-1.875,0.317-2.897c0.035-0.593,0.026-0.864-0.016-0.945l-0.01-0.015
						c-0.047-0.026-0.158-0.057-0.221-0.081c-0.15-0.054-0.298-0.118-0.442-0.191l-0.335-0.168c-0.092-0.049-0.181-0.106-0.265-0.17
						c-0.115-0.067-0.216-0.154-0.277-0.222c-0.019-0.005-0.084-0.098-0.063-0.071c0.027,0.046,0.001,0.008,0.045,0.102
						c0.04,0.092,0.053,0.166,0.065,0.257c0.088,0.327,0.046,0.499,0.066,0.929l-0.004,0.134C29.62,65.03,29.621,65,29.62,65.003
						l0.001-0.025c-0.007-0.023,0.029-0.023,0.044-0.035c0.04-0.019,0.077-0.041,0.108-0.063c0.058-0.042,0.043-0.128-0.048-0.27
						c-0.066-0.084-0.062-0.123-0.11-0.211c0.006,0.038,0.009-0.233-0.042-0.415c-0.031-0.162-0.04-0.239-0.101-0.358
						c-0.015-0.075-0.079-0.063,0.231,0.185c0.091,0.055-0.033,0.001-0.055,0.031c-0.045,0.032-0.101,0.052-0.15,0.118
						c-0.211,0.223-0.385,0.616-0.49,0.857c-0.376,0.933-0.821,1.764-1.25,2.71c-0.429,0.944-0.877,1.931-1.316,2.896
						c-0.213,0.488-0.423,0.972-0.628,1.441c-0.192,0.474-0.342,0.942-0.5,1.387c-0.307,0.892-0.57,1.703-0.763,2.364
						c-0.374,1.341-0.763,2.5-0.995,3.594c-0.231,1.094-0.435,2.104-0.625,3.123c-0.189,1.019-0.369,2.046-0.541,3.176
						c-0.094,1.137-0.181,2.376-0.267,3.815c-0.277,2.972-0.1,5.935-0.06,8.899l0.025,1.111l0.11,1.104l0.218,2.209l0.213,2.211
						c0.074,0.737,0.117,1.48,0.271,2.204l0.75,4.385c0.132,0.73,0.221,1.475,0.385,2.199l0.528,2.167l1.021,4.375
						c0.337,1.39,0.674,2.782,1.013,4.176c2.096,8.956,5.44,17.857,6.492,26.836c0.188,2.424,0.47,4.837,0.461,7.246
						c0.075,2.424,0.083,4.78-0.147,6.939c-0.068,1.089-0.273,2.161-0.428,3.231c-0.229,1.134-0.421,2.204-0.699,3.451l-0.763,3.745
						c-0.256,1.265-0.459,2.597-0.668,3.899c-0.233,1.392-0.397,2.792-0.615,4.185c-0.233,1.381-0.382,2.807-0.53,4.235
						l-0.479,4.277c-0.165,1.427-0.348,2.863-0.405,4.243c-0.172,2.778-0.366,5.603-0.484,8.353
						c-0.099,2.715-0.168,5.431-0.179,8.151l-0.163,7.798l-0.034,2.249c-0.025,0.837,0.013,1.66,0.066,2.48
						c0.087,1.643,0.302,3.25,0.586,4.813c0.567,3.131,1.442,6.078,2.436,8.867c1.082,3.231,3.203,6.925,6.318,9.584
						c1.802,1.582,3.892,2.75,5.942,3.56c2.061,0.814,4.098,1.296,6.048,1.602c1.949,0.296,3.806,0.402,5.608,0.445l1.346,0.013
						l1.399-0.049c0.939-0.025,1.868-0.072,2.762-0.182c4.592-0.441,8.785-1.494,12.621-2.47l2.816-0.713l2.784-0.675l5.775-1.387
						l11.542-2.791c3.829-0.882,7.634-1.69,11.459-2.508c1.539-0.326,3.077-0.634,4.613-0.928l2.304-0.433
						c0.76-0.138,1.593-0.31,2.122-0.317l1.787-0.159l1.808,0.057c0.299,0.016,0.6-0.007,0.897,0.037l0.888,0.134
						c0.585,0.104,1.188,0.125,1.754,0.275c0.564,0.156,1.126,0.304,1.688,0.441l1.322,0.314c0.613,0.128,1.311,0.306,1.864,0.358
						l1.668,0.146l0.104,0.008c0.017,0.001,0.006,0.002,0.01,0.003l0.004,0.005l0.008,0.011l0.013,0.021
						c0.015,0.027,0.022,0.051,0.023,0.074c0.006,0.109-0.091,0.157-0.054,0.137c0.007-0.001,0.019-0.002,0.035,0.002l0.013,0.004
						l-0.003,0.1c-0.005,0.056,0.007,0.029-0.012,0.153l-0.091,0.547c-0.587,3.55-1.55,7.943-2.067,12.366
						c-0.258,2.22-0.414,4.445-0.344,6.64c0.077,2.198,0.334,4.306,1.091,6.527c0.101,0.292,0.213,0.552,0.333,0.783
						c0.124,0.242,0.282,0.518,0.431,0.718c0.297,0.447,0.654,0.604,0.975,0.769c0.688,0.272,1.344,0.211,1.893,0.046
						c-0.444,0.123-0.888-0.355-0.88-1.481c0-1.047,0.39-2.174,0.885-3.252c0.998-2.148,2.442-4.119,2.578-4.406
						c1.766-3.377,3.145-7.178,4.743-10.806c0.756-1.69,1.494-3.339,2.225-4.972l0.272-0.627c0.095-0.236,0.171-0.355,0.283-0.7
						c0.208-0.611,0.427-1.189,0.627-1.88c0.436-1.344,0.761-2.736,0.98-4.151c0.383-3.019-0.145-6.152-2.225-8.571
						c-1.033-1.197-2.376-2.063-3.792-2.593c-0.732-0.244-1.43-0.464-2.283-0.525c-0.434-0.025-0.869-0.051-1.307-0.077
						c-0.446-0.014-0.862-0.084-1.375,0.005l-1.484,0.169l-0.745,0.086c-0.17,0.012-0.187-0.008-0.288-0.011
						c-0.297-0.037-0.713-0.021-0.859-0.122c-0.262-0.09-0.195-0.063-1.021-0.263l-1.904-0.442c-0.637-0.13-1.274-0.312-1.915-0.386
						l-1.927-0.215l-1.934-0.188l-1.939,0.002l-1.942,0.027c-0.647,0.033-1.296,0.133-1.944,0.203l-1.944,0.246
						c-0.351,0.04-0.596,0.094-0.852,0.146l-0.776,0.156l-6.203,1.278c-4.126,0.891-8.253,1.783-12.385,2.675
						c-4.056,0.966-8.117,1.933-12.188,2.902l-5.19,1.235c-1.661,0.398-3.652,0.88-5.337,1.331c-3.493,0.916-6.711,1.788-9.713,2.29
						c-1.504,0.258-2.942,0.411-4.334,0.467c-1.446,0.07-2.989,0.021-4.292-0.111c-1.326-0.135-2.5-0.385-3.426-0.729
						c-0.932-0.347-1.6-0.759-2.133-1.253c-0.628-0.598-1.152-1.395-1.598-2.561c-0.186-0.453-0.509-1.508-0.767-2.392
						c-0.251-0.901-0.479-1.796-0.664-2.678c-0.368-1.763-0.588-3.477-0.646-5.121l-0.014-1.222l0.063-1.193L43.137,219.585z"/>
				</g>
			</g>
		</g>
	</g>
	<g>
		<g>
			<g>
				<path fill="#FFFFFF" d="M278.924,208.877l0.189-0.027C279.027,208.854,278.969,208.834,278.924,208.877z"/>
				<path fill="#FFFFFF" d="M249.443,187.386l0.137-0.148C249.456,187.282,249.433,187.335,249.443,187.386z"/>
				<path fill="#FFFFFF" d="M248.171,204.053l0,0.031C248.182,204.079,248.179,204.067,248.171,204.053z"/>
				<g>
					<path fill="#FFFFFF" d="M248.688,204.487l-0.006,0.007l0.257,0.406l0.676,1.044l1.467,2.293
						c1.007,1.562,2.181,3.284,3.555,5.01c1.362,1.728,3.099,3.548,5.235,5.176c2.133,1.651,5.015,2.99,7.951,3.521
						c0.765,0.113,1.529,0.205,2.285,0.275c0.738-0.003,1.473-0.036,2.2-0.078l0.544-0.036c0.163-0.013,0.408-0.025,0.468-0.044
						l0.591-0.104l0.593-0.107l0.678-0.094c1.803-0.264,3.979-0.457,6.431-1.041c0.633-0.175,1.245-0.327,1.88-0.539
						c0.651-0.247,1.295-0.497,1.93-0.767c0.643-0.339,1.275-0.691,1.895-1.053c0.553-0.375,1.033-0.766,1.545-1.151l0.75-0.583
						l0.692-0.672c0.452-0.458,0.933-0.881,1.345-1.373l1.199-1.509c0.401-0.5,0.695-1.071,1.043-1.607
						c1.373-2.319,2.271-4.854,2.65-7.37c0.376-2.518,0.343-5.014-0.005-7.427c-0.378-2.407-1.098-4.722-2.089-6.916l-0.809-1.617
						c-0.304-0.523-0.629-1.037-0.949-1.549c-0.303-0.521-0.7-0.995-1.064-1.482l-0.56-0.722l-0.497-0.585
						c-5.321-6.081-9.763-12.51-13.959-19.302c-0.985-1.651-2.039-3.254-3.124-4.841l-3.086-4.845
						c-1.072-1.598-1.96-3.285-2.853-4.976c-0.877-1.697-1.76-3.4-2.349-5.224c-0.661-1.934-1.291-3.86-1.862-5.805
						c-0.248-0.957-2.732-5.392-3.45-6.212c-0.326-0.374-0.23,2.723-0.185,3.599c0.082,1.417,0.18,3.237,0.411,4.95
						c0.275,1.694,0.586,3.317,0.863,4.397c0.288,1.094,0.537,2.041,0.767,2.917c0.282,0.854,0.551,1.638,0.834,2.42
						c0.574,1.559,1.174,3.132,2.136,5.224c4.06,8.617,8.939,16.484,13.352,24.859c0.881,1.709,1.897,3.344,2.99,4.935
						c0.543,0.799,1.102,1.592,1.668,2.38c0.559,0.777,1.206,1.639,1.546,2.174c0.832,1.21,1.542,2.573,2.009,4.016
						c0.281,0.706,0.406,1.457,0.585,2.183c0.086,0.741,0.218,1.477,0.184,2.203c-0.002,1.564-0.217,3.092-0.729,4.38
						c-0.49,1.299-1.179,2.374-1.977,3.228c-0.229,0.191-0.441,0.386-0.643,0.589c-0.212,0.194-0.484,0.329-0.704,0.509
						c-0.208,0.19-0.487,0.316-0.752,0.454c-0.247,0.113-0.552,0.365-0.707,0.356c-0.643,0.246-1.695,0.446-3.358,0.533
						c-0.442,0.021-0.879,0.044-1.413,0.04l-1.61-0.005l-0.861-0.009l-0.954,0.008l-0.478,0.004l-0.238,0.001
						c-0.066-0.001-0.073-0.01-0.113-0.014c-0.127-0.021-0.253-0.038-0.379-0.05c-1.021-0.107-1.663-0.409-2.508-1.073
						c-0.834-0.647-1.807-1.835-2.812-3.277c-1.012-1.449-2.063-3.161-3.246-5.006c-0.604-0.935-1.202-1.863-1.885-2.858
						l-0.248-0.367c-0.097-0.136-0.134-0.21-0.314-0.446l-0.908-1.216c-0.604-0.813-1.196-1.635-1.884-2.331
						c-2.587-3.056-5.653-5.021-9.273-5.136c-3.712-0.055-6.618,1.793-9.195,4.867c-0.655,0.74-1.296,1.494-1.931,2.253
						l-1.236,1.456c-0.676,0.792-1.356,1.553-2.042,2.3c-3.171,3.446-6.604,6.517-9.887,8.094c-0.255,0.115-0.51,0.254-0.759,0.357
						l-0.734,0.279c-0.317,0.135-0.288,0.101-0.389,0.13c-0.071,0.015-0.165,0.044-0.208,0.044c-0.213,0.033-0.431-0.007-0.613-0.11
						c-0.183-0.118-0.315-0.25-0.431-0.472c-0.02-0.01-0.134-0.245-0.233-0.434c-0.092-0.217-0.197-0.417-0.285-0.662
						c-0.19-0.46-0.358-0.99-0.512-1.538c-0.307-1.102-0.526-2.322-0.655-3.546c-0.124-1.213-0.153-2.48-0.064-3.472
						c0.005-0.201,0.081-0.58,0.133-0.9l0.166-0.99c0.119-0.66,0.193-1.322,0.342-1.982l0.528-1.98
						c0.17-0.66,0.335-1.321,0.598-1.981c1.609-4.792,4.356-9.337,7.285-14.108c1.46-2.409,2.922-4.82,4.39-7.241
						c1.416-2.333,2.707-4.711,4.142-7.174c0.73-1.306,1.525-2.727,2.345-4.192c0.843-1.489,1.692-3.045,2.449-4.62
						c1.506-3.124,2.708-6.473,2.833-9.447c0.062-1.453-0.83-2.467-1.8-3.078c1.583,1.012-5.362,4.628-5.771,4.929
						c-2.528,1.897-4.722,4.382-7.049,6.622c-2.221,2.221-4.522,4.195-6.652,6.421c-1.056,1.125-2.095,2.285-3.101,3.517
						c-0.503,0.616-0.998,1.25-1.482,1.905c-0.472,0.646-0.896,1.281-1.326,1.958c-1.776,2.801-3.571,5.784-5.262,8.887
						c-1.65,3.188-3.279,6.459-4.509,10.094c-0.686,1.759-1.165,3.658-1.657,5.542c-0.276,0.928-0.423,1.913-0.59,2.889l-0.481,2.93
						c-0.273,2.421-0.214,4.503-0.038,6.616c0.192,2.098,0.541,4.175,1.117,6.312c0.5,1.822,1.158,3.664,2.206,5.629
						c0.638,1.163,1.427,2.349,2.33,3.394c0.913,1.038,1.933,1.974,3.071,2.736c1.14,0.755,2.377,1.352,3.678,1.76
						c1.311,0.379,2.669,0.571,4.037,0.579c1.353-0.023,2.767-0.197,4.043-0.57c0.646-0.178,1.29-0.375,1.923-0.588
						c0.358-0.115,0.51-0.196,0.759-0.294l0.682-0.286c3.637-1.553,6.544-3.633,9.112-5.771c2.571-2.149,4.82-4.404,6.932-6.651
						c0.617-0.669,1.237-1.342,1.859-2.017c0.556-0.605,1.458-1.621,1.263-1.366c0.097-0.045,0.162-0.058,0.226-0.034
						C248.754,204.227,248.728,204.474,248.688,204.487z"/>
				</g>
			</g>
		</g>
	</g>
	<g>
		<g>
			<g>
				<path fill="#FFFFFF" d="M395.418,293.777l0.052-0.116C395.441,293.711,395.407,293.735,395.418,293.777z"/>
				<path fill="#FFFFFF" d="M387.251,309.889l-0.091-0.083C387.182,309.853,387.216,309.875,387.251,309.889z"/>
				<path fill="#FFFFFF" d="M395.104,317.851l-0.034,0.103C395.097,317.909,395.104,317.878,395.104,317.851z"/>
				<g>
					<path fill="#FFFFFF" d="M398.809,311.461c1.542-2.933,2.78-6.014,3.679-9.218c0.447-1.606,0.821-3.251,1.261-4.88
						c0.438-1.63,1.02-3.228,1.757-4.748c1.595-3.22,3.399-6.314,4.793-9.699c0.708-1.689,1.492-3.327,2.331-4.934
						c0.859-1.602,1.72-3.204,2.593-4.832c0.422-0.786,0.789-1.6,1.132-2.423c0.324-0.835,0.607-1.69,0.907-2.535
						c0.593-1.692,1.237-3.348,2.045-4.957c0.449-0.85,0.962-1.671,1.436-2.516c0.094-0.173,0.168-0.565,0.28-1.175
						c0.062-0.587,0.109-1.28,0.059-1.781c-0.073-0.472-0.17-0.799-0.245-0.967c-0.122-0.238-0.933,1.113-1.288,1.529
						c-0.117,0.16-0.241,0.331-0.403,0.553c-0.969,0.904-2.126,2.089-2.645,2.795c-0.604,0.817-1.032,1.416-1.443,2.028
						c-0.431,0.604-0.824,1.229-1.317,2.108c-0.507,0.907-1.011,1.808-1.512,2.705c-0.534,0.884-1.078,1.757-1.635,2.619
						c-1.095,1.73-2.32,3.395-3.729,4.971c-2.252,2.556-3.52,5.854-5.479,8.676c-1.066,1.522-2.198,3.005-3.264,4.561
						c-1.067,1.549-2.108,3.109-2.924,4.832c-1.786,3.667-4.056,6.874-5.729,10.446c-1.643,3.521-3.134,7.084-4.85,10.593
						c-0.977,2.12-2.035,4.138-3.017,6.376c-0.62,1.329-1.307,2.952-1.68,3.86l-0.169,0.36c-0.024,0.04-0.042,0.083-0.07,0.121
						c-0.048,0.081-0.11,0.154-0.184,0.218c-0.149,0.128-0.362,0.16-0.558,0.116c-0.17-0.054,0.056,0.058-0.64-0.253
						c-0.256-0.118-0.509-0.232-0.833-0.398l-0.998-0.498c-0.61-0.312-1.48-0.713-2.146-0.997c-0.716-0.315-1.382-0.583-2.023-0.851
						c-1.275-0.526-2.433-1.004-3.393-1.473c-0.963-0.466-1.733-0.926-2.253-1.308c-0.529-0.391-0.788-0.646-1.088-0.898
						c-0.086-0.062-0.172-0.14-0.24-0.251c-0.04-0.049-0.085-0.098-0.135-0.146l-0.163-0.277c-0.23-0.367-0.59-1.138-1.022-1.877
						c-0.245-0.42-0.495-0.821-0.791-1.233c-0.342-0.458-0.636-0.835-1.06-1.26c-0.805-0.816-1.874-1.562-3.028-1.85
						c-1.188-0.277-1.893,0.45-2.341,1.172c0.182-0.301,0.441-0.211,0.701,0.099c0.124,0.155,0.26,0.354,0.346,0.589
						c0.067,0.243,0.117,0.511,0.146,0.774c0.104,1.072-0.297,2.087-0.313,2.214c-0.213,1.489-0.234,2.834-0.15,4.568
						c0.101,1.701,0.594,3.657,1.633,5.326c1.023,1.684,2.503,3.056,4.108,3.927c1.688,0.917,3.275,1.517,4.667,2.042
						c1.394,0.521,2.595,0.961,3.492,1.408c0.533,0.265,1.173,0.602,2.002,0.994c0.436,0.203,0.771,0.37,1.379,0.604
						c0.714,0.288,1.43,0.519,2.129,0.677c1.409,0.372,2.863,0.435,4.268,0.227c0.357-0.015,0.701-0.109,1.044-0.204l1.033-0.271
						c0.348-0.081,0.643-0.302,0.967-0.445c0.313-0.168,0.647-0.303,0.931-0.521c2.07-1.244,3.61-3.393,4.601-5.574
						c0.367-0.808,0.63-1.523,0.871-2.17l0.67-1.664c0.466-1.116,0.849-2.204,1.392-3.342l1.605-3.381
						C395.691,317.023,397.334,314.27,398.809,311.461z"/>
				</g>
			</g>
		</g>
	</g>
	<g>
		<g>
			<g>
				<path fill="#FFFFFF" d="M343.469,333.055l0.04-0.025C343.487,333.035,343.466,333.025,343.469,333.055z"/>
				<path fill="#FFFFFF" d="M335.57,334.516l0.012-0.118C335.571,334.437,335.569,334.478,335.57,334.516z"/>
				<path fill="#FFFFFF" d="M331.736,344.566l-0.12-0.022C331.671,344.565,331.707,344.569,331.736,344.566z"/>
				<g>
					<path fill="#FFFFFF" d="M338.102,345.462c2.312-0.107,4.747-0.735,6.974-2.124c2.311-1.437,4.199-3.597,5.963-5.571
						c1.917-2.099,3.238-4.634,3.556-7.166c0.312-2.534,0.657-4.785,0.848-7.122c0.123-0.95-0.051-1.82-0.017-2.683
						c0.003-0.215-0.016-0.445,0.013-0.652c0.036-0.203,0.077-0.407,0.127-0.609c0.051-0.202,0.109-0.402,0.181-0.596
						c0.073-0.187,0.173-0.277,0.28-0.402c0.25-0.232,0.467-0.453,0.824-0.509c0.039-0.012,0.072-0.076,0.104-0.176
						c0.03-0.097,0.047-0.22,0.175-0.448c0.197-0.409,0.364-0.853,0.373-1.054c0.007-0.185-1.063-0.223-1.354-0.225
						c-0.49,0.005-1.002-0.033-1.599,0.056c-0.319,0.012-0.517,0.14-0.71,0.259c-0.193,0.118-0.364,0.242-0.491,0.354
						c-0.256,0.227-0.485,0.439-0.696,0.646c-0.208,0.208-0.329,0.402-0.479,0.606c-0.266,0.41-0.563,0.845-0.777,1.48
						c-0.194,0.655-0.446,1.331-0.577,1.991c-0.132,0.639-0.279,1.377-0.424,1.949c-0.147,0.568-0.301,1.135-0.511,1.68
						c-0.235,0.535-0.492,1.063-0.81,1.559c-0.281,0.387-0.479,0.778-0.627,1.182c-0.159,0.395-0.313,0.764-0.427,1.159
						c-0.264,0.752-0.542,1.484-1.056,2.004c-0.262,0.297-0.606,0.485-0.884,0.718c-0.326,0.183-0.636,0.348-0.938,0.503
						c-0.647,0.267-1.215,0.513-1.835,0.839c-1.321,0.738-3.179,0.578-5.035,0.873c-0.456,0.086-0.93,0.163-1.427,0.216
						c-0.455,0.058-1.076,0.152-1.311,0.169c-0.648,0.059-0.851,0.044-1.01-0.037c-0.16-0.047-0.589-0.501-0.977-1.239
						c-1.005-1.867-2.229-4.846-3.328-8.185c-0.262-0.771-0.462-1.563-0.684-2.404c-0.045-0.304-0.346-1.092-0.582-1.766
						l-0.373-1.037l-0.452-0.999l-0.464-1.009c-0.164-0.329-0.368-0.613-0.555-0.924c-0.382-0.606-0.77-1.226-1.209-1.771
						c-0.43-0.563-0.865-1.107-1.335-1.667l-0.703-0.813l-0.178-0.198c-0.058-0.073-0.156,0.031-0.232,0.038l-0.492,0.188
						c-1.385,0.54-3.005,1.122-4.497,1.93c-1.486,0.807-2.814,1.831-3.398,3.206c-0.287,0.67-0.047,1.618,0.259,2.421
						c-0.26-0.656,0.415-0.488,1.034-0.114c0.638,0.362,1.153,0.977,1.208,1.034c0.751,0.602,1.34,0.764,1.754,1.213
						c0.363,0.486,0.628,0.91,0.438,1.916c-0.108,0.817-0.331,1.357-0.394,1.584c-0.063,0.243-0.131,0.384-0.175,0.481
						c-0.039-0.047,0.042,0.211,0.095,0.389l0.175,0.559l0.374,1.165c0.523,1.59,1.124,3.312,1.843,5.186
						c0.624,1.598,1.385,3.289,2.525,5.066c0.261,0.437,0.604,0.893,0.946,1.34c0.315,0.443,0.729,0.899,1.144,1.345
						c0.375,0.44,0.946,0.9,1.429,1.327c0.572,0.417,1.141,0.857,1.8,1.192c0.771,0.438,1.599,0.765,2.449,1.047
						c0.405,0.11,0.817,0.214,1.232,0.31c0.413,0.094,0.776,0.132,1.172,0.191c0.405,0.063,0.746,0.08,1.102,0.103
						c0.349,0.021,0.743,0.042,0.98,0.039C337.003,345.477,337.553,345.476,338.102,345.462z"/>
				</g>
			</g>
		</g>
	</g>
	<g>
		<g>
			<g>
				<path fill="#FFFFFF" d="M306.188,334.969l0.005-0.013C306.188,334.956,306.175,334.941,306.188,334.969z"/>
				<path fill="#FFFFFF" d="M303.886,334.832l0.059-0.104C303.922,334.768,303.903,334.8,303.886,334.832z"/>
				<path fill="#FFFFFF" d="M296.336,342.327l-0.061-0.034C296.297,342.317,296.317,342.325,296.336,342.327z"/>
				<g>
					<path fill="#FFFFFF" d="M302.563,345.717c0.698,0.063,1.616-0.039,2.386-0.206c-0.98,0.002-1.961,0.004-2.938,0.006
						c1.1,0.27,2.254,0.421,3.368,0.439c0.557,0.01,1.104-0.013,1.628-0.063l0.39-0.043l0.191-0.025
						c0.06-0.032,0.136-0.059,0.202-0.09c0.274-0.119,0.544-0.246,0.805-0.38c1.238-0.677,2.198-1.743,2.958-2.831
						c0.762-1.119,1.312-2.228,1.962-3.308c0.996-1.72,1.783-3.253,2.147-4.863c0.086-0.396,0.199-0.769,0.33-1.11
						c0.158-0.417,0.356-0.885,0.553-1.312c0.362-0.873,0.746-1.729,1.053-2.619c0.616-1.747,0.047-3.615,0.558-5.296
						c0.125-0.457,0.32-0.913,0.468-1.383c0.074-0.238-0.591-1.4-0.893-1.601c-0.138-0.091-0.839,0.582-1.024,0.755
						c-0.589,0.594-1.448,1.41-1.719,1.814c-0.594,0.823-0.828,1.186-1.149,2.001c-0.626,1.659-1.357,3.29-2.912,4.233
						c-0.155,0.093-0.29,0.192-0.409,0.299c-0.117,0.104-0.284,0.309-0.407,0.471c-0.255,0.34-0.463,0.705-0.644,1.049
						c-0.367,0.699-0.666,1.385-1.157,1.904c-0.266,0.29-0.546,0.535-0.824,0.776l-0.415,0.331
						c-0.067,0.058-0.136,0.098-0.202,0.146c-0.053,0.028-0.077,0.013-0.114,0.02c-0.29,0.029-0.502,0.023-0.607,0.143
						c-0.137,0.136-0.317,0.081-0.54-0.098c-0.289-0.215-0.504-0.406-0.744-0.422l-0.104-0.005l-1.735,3.422
						c-0.022-0.068-0.032-0.132-0.033-0.188c-0.001-0.067,0.015-0.055,0.007-0.251c0.002-0.149,0.022-0.291,0.058-0.422
						c0.017-0.079,0.042-0.1,0.063-0.22c0.021-0.113,0.046-0.225,0.076-0.333c0.122-0.446,0.312-0.754,0.569-1.39
						c0.063-0.135,0.136-0.278,0.201-0.397l-0.001,0.019c0.009,0.025-0.03,0-0.055-0.006c-0.191-0.03-0.654-0.332-1.068-0.759
						c-0.531-0.531-1.073-1.222-1.585-1.99c-0.323-0.482-0.681-0.983-1.071-1.492c-0.383-0.51-0.878-1.112-1.379-1.623l-2.975-3.147
						c-0.869-0.859-1.579-1.929-2.275-2.912c-0.609-0.908-1.247-1.764-2.167-2.368c-0.855-0.66-1.815-1.633-4.199-0.924
						c-0.579,0.172-1.394,0.72-2.067,1.253c1.094-0.89-0.298,1.955-0.314,2.145c-0.227,0.997-0.036,1.757-0.005,2.646
						c0.006,0.44,0.012,0.882,0.017,1.319c0.013,0.421,0.026,0.841,0.061,1.247c0.069,0.813,0.225,1.574,0.618,2.171
						c0.203,0.311,0.426,0.621,0.641,0.906c0.19,0.264,0.389,0.519,0.593,0.766c0.409,0.494,0.842,0.959,1.289,1.409
						c0.482,0.449,0.813,0.885,1.225,1.314l1.193,1.286c0.358,0.376,0.646,0.703,1.01,1.157l1.155,1.386
						c0.821,0.968,1.69,1.978,2.73,3.072c0.61,0.649,1.314,1.382,2.277,2.151c0.264,0.197,0.51,0.388,0.801,0.582
						c0.334,0.204,0.678,0.4,1.027,0.585c0.385,0.19,0.894,0.377,1.351,0.528c0.207,0.078,0.541,0.146,0.844,0.199
						C301.94,345.646,302.252,345.688,302.563,345.717z"/>
				</g>
			</g>
		</g>
	</g>
	<g>
		<g>
			<g>
				<path fill="#FFFFFF" d="M257.238,328.948l0.067,0.079C257.28,328.988,257.277,328.953,257.238,328.948z"/>
				<path fill="#FFFFFF" d="M243.327,316.219l0.014-0.154C243.313,316.129,243.316,316.179,243.327,316.219z"/>
				<path fill="#FFFFFF" d="M245.849,331.206l0.006,0.024C245.858,331.231,245.855,331.221,245.849,331.206z"/>
				<g>
					<path fill="#FFFFFF" d="M246.159,331.733c-0.001,0.176-0.007-0.48,0.646-0.466c0.041-0.005,0.096,0.016,0.133-0.002
						l0.064-0.013l0.236,0.298c0.314,0.41,0.651,0.783,0.987,1.152c0.67,0.742,1.365,1.425,2.067,2.073
						c1.399,1.305,2.806,2.493,4.145,3.757c0.704,0.674,1.436,1.317,2.182,1.949c0.432,0.344,0.94,0.711,1.415,1.051
						c0.529,0.307,1.062,0.615,1.62,0.875c2.291,1.036,4.903,1.172,7.041,0.688c0.557-0.102,1.069-0.247,1.572-0.397
						c0.257-0.077,0.501-0.134,0.766-0.224l0.82-0.315c0.549-0.208,1.09-0.417,1.568-0.714c0.479-0.288,1.018-0.521,1.437-0.864
						c1.84-1.235,3.295-2.771,4.526-4.438c1.19-1.572,1.927-3.628,2.422-5.065c0.567-1.541,1.254-3.012,2.283-4.161
						c0.284-0.289,0.563-0.592,0.866-0.839l0.903-0.705c0.146-0.107,0.434-0.532,0.706-1.051c0.296-0.427,0.606-0.913,0.681-1.15
						c0.09-0.222-1.194-0.213-1.619-0.165c-1.209,0.198-3.166,1.044-3.907,1.755c-1.593,1.337-2.262,2.086-3.358,3.837
						c-0.283,0.456-0.556,0.913-0.812,1.369l-0.392,0.685l-0.374,0.598c-0.236,0.402-0.5,0.782-0.788,1.144
						c-0.266,0.376-0.56,0.725-0.877,1.046c-1.216,1.316-2.731,2.323-4.225,2.56c-0.603,0.145-1.104,0.13-1.656,0.254
						c-0.33,0.028-0.658,0.084-0.977,0.129c-0.305,0.013-0.611,0.05-0.908,0.076c-1.164,0.054-2.111-0.127-2.865-0.749
						c-0.201-0.175-0.402-0.33-0.582-0.57l-0.278-0.313l-0.379-0.452c-0.518-0.616-1.005-1.269-1.485-1.91
						c-0.953-1.295-1.83-2.601-2.712-3.825c-0.464-0.652-0.874-1.336-1.174-2.021l-0.23-0.499c-0.098-0.211-0.206-0.416-0.255-0.651
						l-0.376-1.377l-0.188-0.694c-0.048-0.255-0.064-0.56-0.099-0.838l-0.179-1.719l-0.045-0.434l-0.139-0.29l-0.281-0.579
						l-0.563-1.146l-0.497-0.936l-0.252-0.466c-0.085-0.148-0.166-0.158-0.25-0.243l-0.507-0.393
						c-0.185-0.135-0.231-0.203-0.355-0.305l-0.16-0.136c-0.053-0.045-0.088-0.083-0.238-0.157l-0.738-0.379
						c-1.05-0.523-2.626-0.771-3.911-0.587c-1.32,0.179-2.409,0.649-3.433,1.337c-1.018,0.688-1.98,1.606-2.875,2.795
						c-0.896,1.182-1.71,2.617-2.454,4.149c-0.438,0.89-0.844,1.822-1.247,2.755l-0.983,2.313c-0.433,0.985-0.873,1.958-1.292,2.697
						c-0.271,0.492-0.466,0.78-0.649,0.945c-0.163,0.277-0.335,0.309-0.432,0.464c-0.233,0.127-0.559,0.302-1.35,0.426
						c-0.736,0.131-2.022,0.082-3.163,0.025l-0.589-0.058l-0.267-0.028l-0.074-0.015c-0.1-0.018-0.196-0.053-0.281-0.104
						c-0.161-0.09-0.19-0.322-0.102-0.495c0.041-0.087,0.098-0.16,0.158-0.214c0.063-0.325,0.125-0.931,0.182-1.656
						c0.107-1.423,0.117-3.149-0.208-4.963c-0.208-0.916-0.409-1.817-0.81-2.76c-0.182-0.489-0.382-0.885-0.588-1.272
						c-0.207-0.395-0.419-0.797-0.652-1.135c-0.962-1.524-2.139-3.096-3.727-4.381c-0.17-0.146-0.436-0.351-0.679-0.527
						c-0.247-0.18-0.496-0.351-0.745-0.51c-0.118-0.071-0.265-0.174-0.358-0.213l-0.274-0.102c-0.183-0.064-0.369-0.122-0.555-0.174
						c-0.688-0.365-1.272-0.508-1.928-0.625c-0.331-0.047-0.651-0.07-0.956-0.071c-0.371-0.011-0.759,0.01-1.098,0.063
						c-0.153,0.03-0.349,0.058-0.419,0.128c-0.07,0.069-0.135,0.146-0.196,0.229c-0.122,0.164-0.227,0.349-0.316,0.546
						c-0.179,0.396-0.296,0.841-0.368,1.264c0.059-0.347,0.256-0.396,0.522-0.272c0.114,0.052,0.404,0.228,0.597,0.397
						c0.229,0.173,0.371,0.402,0.515,0.63c0.569,0.935,0.539,2.026,0.606,2.153c0.135,0.37,0.204,0.729,0.305,1.052l0.304,0.978
						c0.223,0.645,0.414,1.312,0.543,1.967c0.226,1.281,0.203,2.579,0.022,3.554c-0.206,0.924-0.479,1.764-0.569,2.772l-0.162,1.819
						l-0.042,0.582l-0.038,0.661c-0.02,0.159,0,0.616,0.004,0.942l0.024,1.063c0.165,1.388,0.389,2.793,1.054,4.005
						c0.135,0.317,0.295,0.622,0.497,0.904c0.192,0.285,0.376,0.58,0.592,0.848c0.484,0.486,0.933,1.029,1.525,1.394l0.844,0.603
						c0.285,0.196,0.613,0.328,0.924,0.485c0.316,0.15,0.637,0.294,0.96,0.431c0.323,0.136,0.683,0.195,1.023,0.297l1.035,0.273
						c0.348,0.093,0.708,0.195,0.949,0.213c0.543,0.076,1.088,0.144,1.635,0.202l0.409,0.043l0.328,0.019l0.639,0.033
						c0.43,0.02,0.833,0.05,1.323,0.042l1.417-0.01l1.578-0.134c0.422-0.02,0.971-0.161,1.449-0.252
						c0.497-0.109,0.972-0.194,1.513-0.41c0.525-0.19,1.046-0.396,1.557-0.613c0.511-0.282,1.017-0.584,1.509-0.9
						c0.513-0.299,0.927-0.686,1.352-1.072c0.403-0.388,0.875-0.783,1.185-1.197c0.625-0.817,1.317-1.708,1.733-2.522
						c0.832-1.562,1.318-2.809,1.832-4.033l0.367-0.894l0.055-0.123c0.02-0.038,0.042-0.072,0.066-0.102
						C245.993,331.277,246.181,331.536,246.159,331.733z"/>
				</g>
			</g>
		</g>
	</g>
	<g>
		<g>
			<g>
				<path fill="#FFFFFF" d="M195.869,319.4l0.053,0.091C195.904,319.447,195.907,319.411,195.869,319.4z"/>
				<path fill="#FFFFFF" d="M176.291,316.242l-0.056-0.113C176.235,316.187,176.26,316.22,176.291,316.242z"/>
				<path fill="#FFFFFF" d="M183.128,324.895l-0.035,0.1C183.12,324.952,183.128,324.921,183.128,324.895z"/>
				<g>
					<path fill="#FFFFFF" d="M185.329,323.001c0.223-0.105,0.505-0.198,0.491-0.229l-0.001-0.018
						c-0.016-0.004,0.007-0.016,0.093-0.031l0.506-0.095l1.217-0.204c0.198-0.035,0.407-0.071,0.552-0.106l0.083-0.026l0.002-0.001
						l0.001-0.001h0c3.854,2.034-5.25-2.771-4.312-2.276l0.008,0.009l0.017,0.017l0.034,0.032l0.067,0.066l0.272,0.261
						c0.365,0.347,0.738,0.686,1.12,1.018c0.353,0.348,0.376,0.224,0.495,0.256c0.052,0.007,0.091-0.014,0.237,0.176l0.36,0.411
						l1.438,1.671c0.946,1.132,1.848,2.313,2.594,3.604c0.576,1.008,1.151,2.013,1.725,3.018c0.292,0.533,0.644,1.062,0.899,1.729
						l0.817,2.026c0.84,0.434,1.527,0.823,2.028,1.179c0.162,0.081,0.168,0.196,0.414,0.241l0.699,0.135l0.696,0.126
						c0.233,0.046,0.438-0.048,0.661-0.081c0.969-0.208,1.942-0.697,2.85-1.185c0.913-0.49,1.781-1.049,2.558-1.727
						c1.557-1.335,2.722-3.208,3.621-5.311l0.305-0.765l0.197-0.57c0.12-0.369,0.22-0.727,0.313-1.082l0.262-1.031l0.102-0.424
						c0.031-0.123,0.069-0.253,0.114-0.386c0.367-1.081,1.076-2.253,2.042-2.916c0.515-0.354,1.081-0.561,1.531-0.653
						c0.113-0.029,0.319-0.292,0.525-0.538c0.202-0.258,0.443-0.48,0.556-0.627c0.047-0.063-0.042-0.289-0.24-0.5
						c-0.191-0.22-0.502-0.39-0.648-0.451c-0.464-0.209-1.179-0.315-1.883-0.242c-0.706,0.06-1.376,0.272-1.787,0.472
						c-0.833,0.41-1.413,0.795-1.944,1.232c-0.529,0.443-1.015,0.94-1.571,1.733c-0.287,0.412-0.554,0.842-0.799,1.331l-0.606,1.259
						c-0.368,0.773-0.796,1.714-1.069,2.08c-0.613,0.938-1.381,1.67-2.272,1.609c-0.631-0.049-1.095,0.007-1.594,0.16
						c-0.638,0.063-0.69-0.623-0.917-1.143c-0.039-0.113-0.074-0.228-0.102-0.346c-0.042-0.174-0.078-0.342-0.101-0.505
						l-0.097-0.558l-0.068-0.512l-0.006-0.06l-0.043-0.13l-0.092-0.271l-0.188-0.538c-0.508-1.426-1.048-2.874-1.77-4.258
						c-0.179-0.343-0.354-0.697-0.522-1.055l-0.607-1.314c-0.125-0.333-0.363-0.604-0.555-0.903l-0.21-0.318l-0.157-0.248
						l-0.622-0.998l-0.309-0.5l-0.078-0.124l-0.01-0.016l-0.002-0.004l-0.001-0.002c-7.914-4.178-2.196-1.158-3.963-2.091
						l-0.014-0.001l-0.056-0.005l-0.112-0.01l-0.397-0.029c-0.488-0.032-0.927-0.053-1.379-0.063
						c-0.451-0.009-0.901-0.009-1.391,0.014c-0.247,0.011-0.501,0.027-0.796,0.057c-0.34,0.034-0.727,0.094-1.081,0.167
						c-0.402,0.1-0.75,0.181-1.069,0.294c-2.674,0.898-4.683,2.467-6.303,4.338c-0.804,0.951-1.504,1.993-2.089,3.184
						c-0.314,0.675-0.626,1.283-0.981,1.871c-0.815,1.363-1.756,2.522-2.728,3.288c-1.242,0.97-2.276,1.478-3.735,1.748
						c-1.447,0.265-3.34,0.161-5.339-0.292l-0.339-0.082c-0.083-0.021-0.06-0.021-0.094-0.035c-0.038-0.021-0.067-0.039-0.091-0.076
						c-0.128-0.109,0.129-0.022,0.26-0.013c0.015-0.079,0.025-0.169,0.059-0.237c0.005-0.02,0.019-0.034,0.03-0.043
						c0-0.029-0.051-0.162-0.074-0.245l-0.176-0.582c-0.406-1.442-0.609-2.998-1.155-4.932c-0.295-1.062-0.54-2.192-0.981-3.321
						c-0.222-0.554-0.493-1.116-0.854-1.66c-0.187-0.396-0.373-0.201-0.586-0.482c-0.212-0.296-0.454-0.615-0.743-0.954
						c-0.571-0.816-1.614-0.789-2.477-0.671c0.766-0.153,0.452,0.857-0.153,1.456c-0.607,0.596-1.276,1.379-1.354,1.469
						c-0.751,1.193-0.97,2.525-1.348,3.834c-0.359,1.281-0.801,2.473-1.071,3.8c-0.268,1.312-0.37,2.725,0.005,4.241
						c0.2,0.801,0.465,1.6,0.738,2.313l0.226,0.561l0.123,0.284l0.195,0.407c0.268,0.554,0.574,1.078,0.89,1.603l0.5,0.767
						l0.252,0.385c0.103,0.119,0.124,0.277,0.314,0.355l1.883,1.131c0.612,0.353,1.092,0.634,1.663,0.915l0.896,0.229l0.814,0.196
						c2.863,0.657,6.085,1.077,9.718,0.524c3.074-0.44,6.275-1.941,8.597-3.963c2.357-2.011,3.988-4.295,5.351-6.484
						c0.408-0.657,0.801-1.318,1.177-1.977l0.258-0.446l0.097-0.118c0.077-0.09,0.162-0.184,0.254-0.278
						C184.393,323.534,184.913,323.187,185.329,323.001z"/>
				</g>
			</g>
		</g>
	</g>
	<g>
		<g>
			<g>
				<path fill="#FFFFFF" d="M130.824,322.44l0.081,0.078C130.873,322.479,130.864,322.441,130.824,322.44z"/>
				<path fill="#FFFFFF" d="M120.082,308.854l0.116-0.042C120.146,308.81,120.11,308.829,120.082,308.854z"/>
				<path fill="#FFFFFF" d="M109.232,311.733l-0.074-0.085C109.184,311.695,109.208,311.719,109.232,311.733z"/>
				<g>
					<path fill="#FFFFFF" d="M113.414,318.413c0.532,0.767,1.018,1.34,1.548,1.978c0.52,0.613,1.076,1.252,1.64,1.857
						c1.135,1.224,2.371,2.423,3.709,3.555c0.689,0.583,1.433,1.151,2.15,1.711c0.766,0.557,1.501,1.11,2.28,1.656
						c0.801,0.538,1.533,1.1,2.363,1.634c0.419,0.284,0.75,0.511,1.264,0.893l1.243,0.759c0.446,0.291,0.891,0.581,1.333,0.869
						l0.959,0.625l0.91-0.012c0.336-0.004,0.673-0.017,1.008-0.038c0.361-0.035,0.781-0.122,1.162-0.208
						c0.413-0.123,0.852-0.293,1.252-0.492c0.384-0.229,0.815-0.486,1.114-0.766c1.299-1.182,1.729-2.225,2.144-3.071
						c0.848-2.014,1.07-3.789,1.239-5.204l0.178-1.115c0.086-0.351,0.204-0.672,0.307-1.012c0.275-0.699,0.636-1.434,1.076-2.233
						c0.431-0.813,0.918-1.672,1.353-2.688c0.107-0.252,0.231-0.477,0.325-0.753l0.265-0.849l0.12-0.386
						c0.031-0.098,0.054-0.224,0.078-0.334c0.086-0.438,0.093-0.903,0.133-1.417c0.048-0.502,0.105-1.094,0.417-1.548
						c0.315-0.469,0.875-0.578,1.359-0.456c0.499,0.107,0.969,0.418,1.377,0.822c0.42,0.458,0.797,0.937,1.126,1.337
						c0.041,0.05,0.151,0.095,0.309,0.141c0.273,0.113,0.603,0.251,0.934,0.389c0.689,0.274,1.45,0.482,1.721,0.492
						c0.252,0-0.54-1.379-0.727-1.761c-0.169-0.305-0.359-0.648-0.558-1.007c-0.176-0.334-0.39-0.695-0.626-1.061
						c-0.469-0.723-1.044-1.473-1.455-1.916c-0.412-0.467-0.823-0.799-1.201-1.134c-0.403-0.266-0.767-0.565-1.176-0.73
						c-0.404-0.178-0.813-0.362-1.288-0.428c-0.467-0.093-1.001-0.085-1.576,0.087c-0.603,0.186-1.086,0.588-1.452,1.029
						c-0.372,0.444-0.667,0.934-0.906,1.468c-0.505,1.045-0.82,2.28-1.132,3.632c-0.068,0.335-0.184,0.684-0.293,1.034l-0.082,0.264
						c-0.025,0.073-0.044,0.099-0.066,0.15l-0.125,0.269c-0.143,0.351-0.463,0.74-0.687,1.095c-0.516,0.727-1.188,1.498-1.924,2.335
						c-0.3,0.358-0.592,0.767-0.865,1.17c-0.276,0.402-0.516,0.934-0.752,1.414c-0.259,0.502-0.376,0.985-0.545,1.488l-0.222,0.745
						l-0.156,0.643c-0.214,0.915-0.375,1.571-0.585,2.188l-0.332,0.749c-0.073,0.125-0.159,0.25-0.239,0.373
						c-0.08,0.111-0.141,0.151-0.208,0.229c-0.042,0.043-0.058,0.01-0.079,0.021c0.004,0.008-0.029-0.017,0.007,0.019l0.244,0.233
						c0.086,0.063,0.169,0.134,0.249,0.211s0.156,0.162,0.227,0.254l0.096,0.131l0.023,0.022c0.022,0.017,0.084,0.121,0.071,0.107
						c-0.055-0.1-0.088-0.196-0.104-0.286c0.01-0.004-0.066-0.204-0.089-0.315c-0.033-0.13-0.058-0.261-0.073-0.39
						c-0.018-0.134-0.02-0.247-0.025-0.394c-0.043-0.328-0.037-0.195-0.051-0.24c-0.019-0.021-0.036-0.037-0.052-0.048l2.244,0.736
						l-1.45-1.296c-0.208-0.188-0.594-0.503-0.546-0.512c-0.076-0.116-0.276-0.332-0.462-0.534c-0.37-0.39-0.744-0.781-1.12-1.217
						l-1.173-1.249c-2.479-2.576-4.328-6.028-6.903-9.118l-0.955-1.137l-0.85-1.065l-1.719-2.124l-0.86-1.065l-0.801-1.149
						c-0.531-0.769-1.055-1.544-1.566-2.328c-1.225-1.793-2.264-3.784-3.329-5.715c-1.351-2.437-2.661-4.957-4.07-7.386
						c-1.349-2.49-2.727-4.958-3.998-7.505c-2.308-4.608-3.54-9.589-6.261-14.109c-0.359-0.597-0.75-1.245-1.153-1.915
						c-0.478-0.777-1.142-1.783-1.99-2.634c-0.809-0.867-1.91-1.644-3.011-2.127c-1.151-0.468-2.318-0.629-3.322-0.428
						c-0.984,0.211-1.454,1.085-1.703,1.904c0.18-0.655,1.028-0.04,1.505,0.918c0.262,0.438,0.389,1,0.484,1.378
						c0.074,0.412,0.084,0.714,0.101,0.771c0.349,1.434,0.636,2.602,0.723,4.042c0.245,2.929,0.037,5.729,1.049,8.469
						c2.1,5.72,5.031,11.061,7.935,16.49c2.531,4.611,5.232,9.128,8.082,13.69c0.842,1.38,1.698,2.784,2.562,4.199
						C111.462,315.593,112.42,317.016,113.414,318.413z"/>
				</g>
			</g>
		</g>
	</g>
	<g>
		<g>
			<g>
				<path fill="#FFFFFF" d="M155.694,255.604l-0.007,0.017C155.695,255.62,155.709,255.635,155.694,255.604z"/>
				<path fill="#FFFFFF" d="M157.411,255.61l-0.11,0.126C157.346,255.685,157.377,255.649,157.411,255.61z"/>
				<path fill="#FFFFFF" d="M167.452,248.866l0.047,0.09C167.487,248.906,167.47,248.881,167.452,248.866z"/>
				<g>
					<path fill="#FFFFFF" d="M163.352,243.082c-0.749-0.422-1.575-0.674-2.405-0.854c-0.837-0.185-1.709-0.108-2.563-0.08
						c-0.428,0.022-0.853,0.139-1.274,0.213c-0.42,0.096-0.84,0.142-1.246,0.345c-0.814,0.343-1.614,0.661-2.335,1.21
						c-1.53,1.003-2.718,2.504-3.703,3.938l-0.628,1.177l-0.31,0.565c-0.089,0.197-0.156,0.411-0.236,0.611
						c-0.154,0.405-0.311,0.8-0.475,1.185l-0.345,1.056l-0.391,1.082l-0.287,0.645c-0.175,0.432-0.393,0.856-0.625,1.284
						c-0.208,0.433-0.448,0.861-0.691,1.299c-0.232,0.449-0.465,0.899-0.7,1.353c-0.931,1.876-2.441,3.335-4.077,4.652
						c-1.558,1.252-2.689,3.206-4.611,3.904c-0.503,0.186-1.038,0.254-1.528,0.361c-0.12,0.018-0.375,0.288-0.632,0.614
						c-0.234,0.275-0.483,0.614-0.551,0.798c-0.076,0.17,0.804,0.615,1.094,0.718c0.438,0.144,1.018,0.286,1.577,0.357
						c0.551,0.057,1.092,0.081,1.428,0.033c1.354-0.206,1.999-0.353,3.181-0.983c2.438-1.344,4.566-2.944,7.192-4.358
						c2.141-1.187,3.243-3.478,4.765-5.42c0.436-0.514,0.828-1.092,1.241-1.662l0.308-0.432c0.102-0.145,0.127-0.152,0.193-0.233
						l0.328-0.37c0.05-0.053,0.109-0.134,0.148-0.163l0.103-0.051l0.177-0.09c0.119-0.052,0.197-0.112,0.272-0.201
						c0.149-0.209,0.424-0.188,0.605-0.069c0.192,0.108,0.283,0.286,0.433,0.242c0.153-0.047,0.366-0.07,0.494,0.023
						c0.135,0.085,0.187,0.254,0.188,0.461c0,0.117-0.01,0.253-0.032,0.357l-0.011-0.015l-0.006-0.008l0.004,0.135l0.016,0.581
						l0.02,1.163c0.09,3.915,0.999,7.591,1.595,11.15c0.274,1.623,0.276,3.218,0.323,4.801l0.036,1.166l0.016,0.29l0.012,0.16
						l0.037,0.3l0.16,1.205c0.042,0.196,0.027,0.414,0.118,0.593l0.281,0.531l0.581,1.06l0.184,0.317l0.161,0.258
						c0.109,0.171,0.223,0.34,0.343,0.506c1.011,1.408,2.204,3.411,4.87,3.59c0.648,0.043,1.553-0.333,2.306-0.747
						c-1.235,0.679,0.417-2.395,0.471-2.581c0.326-1.129,0.198-2.107,0.272-3.148c0.075-1.004,0.235-2.034,0.328-2.985
						c0.18-0.247,0.334-0.432,0.52-0.57l0.235-0.168c0.014-0.024,0.037,0.006,0.042-0.061l0.017-0.176
						c0.009-0.117,0.014-0.235,0.014-0.354c0.004-3.965-0.921-7.577-1.46-11.108c-0.248-1.509-0.442-2.965-0.625-4.425l-0.091-1.079
						l-0.043-0.54l-0.021-0.271l-0.022-0.489l-0.251-4.615c-0.02-0.456-0.04-0.915-0.061-1.375
						c-0.045-0.435-0.155-0.811-0.265-1.191c-0.228-0.753-0.505-1.471-0.879-2.125C165.932,245.066,164.804,243.881,163.352,243.082
						z"/>
				</g>
			</g>
		</g>
	</g>
	<g>
		<g>
			<g>
				<path fill="#FFFFFF" d="M192.777,264.368l-0.013,0.101C192.776,264.425,192.8,264.399,192.777,264.368z"/>
				<path fill="#FFFFFF" d="M191.188,258.491l-0.013,0.117C191.181,258.561,191.184,258.527,191.188,258.491z"/>
				<path fill="#FFFFFF" d="M194.735,248.313l0.077-0.007C194.774,248.298,194.748,248.302,194.735,248.313z"/>
				<g>
					<path fill="#FFFFFF" d="M184.735,251.356l-0.274,0.451c-0.088,0.15-0.169,0.279-0.289,0.526
						c-0.218,0.438-0.421,0.886-0.606,1.337c-0.146,0.438-0.275,0.883-0.391,1.328c-0.113,0.444-0.153,0.835-0.215,1.255
						c-0.18,1.615-0.016,2.892,0.211,3.89l0.191,0.726l0.197,0.633c0.107,0.417,0.219,0.846,0.299,1.289
						c0.119,0.874,0.125,1.802-0.191,2.641c-0.66,1.784-1.734,3.371-2.781,5.111c-1.061,1.772-2.708,3.052-4.503,4.077
						c-1.041,0.584-1.851,1.351-2.971,2.047c-0.545,0.379-1.117,0.69-1.594,1.141c-0.519,0.413-0.936,0.86-1.325,1.153
						c-0.248,0.197-0.521,0.397-0.738,0.524c-0.234,0.153-0.463,0.284-0.643,0.358c-0.214,0.197-0.37,1.006-0.433,1.385
						c-0.005,0.083,0.15,0.229,0.378,0.355c0.223,0.125,0.533,0.242,0.662,0.24c0.878,0.207,2.359-0.249,2.952-0.524
						c1.197-0.558,1.602-0.684,2.514-0.943c-0.038,0.026,0.055-0.012,0.092-0.021c2.742-0.877,5.191-2.183,8.06-3.405
						c2.366-1.022,3.721-3.367,5.366-5.307c1.804-2.103,3.642-4.604,4.163-7.603c0.149-0.786,0.292-1.576,0.411-2.334l0.171-1.024
						l0.17-0.883c0.224-1.099,0.496-1.674,0.587-1.964c0.015-0.035,0.026-0.071,0.033-0.11l0.008-0.061
						c0.01-0.031,0.045-0.095,0.067-0.141l0.134-0.282l-0.008-0.006l-0.437-0.308c-0.41-0.295-0.815-0.598-1.213-0.91
						c-0.334-0.197-0.6-0.382-0.869-0.626c-0.132-0.118-0.257-0.245-0.376-0.38l-0.155-0.18l-0.052-0.042
						c-0.068-0.061-0.127-0.14-0.171-0.235c-0.042-0.093,0.019,0.023,0.026,0.048c0.017,0.044,0.029,0.087,0.037,0.13
						c0.007,0.042,0.01,0.084,0.008,0.123c-0.01-0.01,0.022,0.12,0.034,0.194l0.039,0.255c0.041,0.34,0.042,0.68,0.003,1.013
						l-0.036,0.249l-0.021,0.708c-0.016,0.46-0.051,1.026-0.083,1.396l-0.003-0.014l3.152,0.283
						c0.243,0.031,0.448,0.233,0.475,0.472c0.02,0.071,0.007,0.123,0.149,0.438c0.121,0.236,0.229,0.533,0.337,0.843l0.174,0.449
						l0.158,0.512c0.11,0.333,0.223,0.677,0.32,1.064c0.412,1.47,0.792,3.229,1.137,5.095c0.549,3.225-0.062,6.331,1.113,9.864
						c0.162,0.492,0.324,1.035,0.527,1.583c0.102,0.273,0.213,0.549,0.339,0.819c0.138,0.323,0.327,0.816,0.512,1.188l0.33,0.535
						l0.084,0.128c0.127,0.002,0.09,0.071,0.144,0.103l0.196,0.238c0.131,0.155,0.265,0.304,0.399,0.443
						c0.149,0.134,0.317,0.25,0.476,0.362c0.601,0.453,1.436,0.711,2.094,0.724c0.531-0.218,1.376-0.731,2.063-1.245
						c-0.584,0.406-0.444-0.036-0.446-0.902c0.075-0.78,0.499-1.536,0.565-1.63l0.185-0.463l0.213-0.437
						c0.144-0.34,0.275-0.585,0.379-0.941c0.107-0.343,0.211-0.684,0.341-1.024c0.726-1.925,1.839-3.574,1.811-5.403
						c-0.023-1.998-0.256-3.958-0.573-5.901c-0.16-1.002-0.337-1.793-0.544-2.814c-0.207-0.973-0.432-2.011-0.724-3.109
						c-0.108-0.454-0.248-0.932-0.409-1.422c-0.157-0.485-0.295-0.956-0.513-1.471c-0.213-0.509-0.38-0.994-0.644-1.516
						l-0.397-0.777c-0.134-0.256-0.316-0.597-0.493-0.896c-0.425-0.662-0.886-1.31-1.37-1.926l-0.827-0.827
						c-0.271-0.281-0.54-0.565-0.877-0.768c-1.253-0.943-2.757-1.483-4.295-1.82c-0.449-0.096-0.98-0.193-1.309-0.238l-0.817-0.135
						c-0.206-0.04-0.471-0.081-0.628-0.123l-0.456-0.123l-0.489-0.111l-0.246-0.055l-0.38-0.061l-0.406-0.054l-0.204-0.024
						l-0.102-0.011l-0.185-0.006c-0.251-0.007-0.505-0.004-0.758,0.007l-0.378,0.024c-0.129,0.012-0.227,0.015-0.452,0.06
						c-0.778,0.157-1.578,0.396-2.25,0.799c-0.677,0.375-1.412,0.988-1.647,1.267c-0.173,0.179-0.34,0.365-0.5,0.555l-0.214,0.265
						l-0.119,0.164L184.735,251.356z"/>
				</g>
			</g>
		</g>
	</g>
	<g>
		<g>
			<g>
				<path fill="#FFFFFF" d="M222.188,266.896l-0.002,0.019C222.191,266.913,222.206,266.933,222.188,266.896z"/>
				<path fill="#FFFFFF" d="M223.671,266.752l-0.077,0.176C223.624,266.858,223.647,266.807,223.671,266.752z"/>
				<path fill="#FFFFFF" d="M231.279,255.84l0.061,0.057C231.317,255.858,231.297,255.844,231.279,255.84z"/>
				<g>
					<path fill="#FFFFFF" d="M226.866,251.942c-0.669-0.221-1.388-0.364-2.102-0.335c-0.727,0.024-1.437,0.042-2.063,0.184
						c-0.654,0.126-1.323,0.414-1.946,0.847c-0.625,0.42-1.225,0.876-1.777,1.378c-1.14,1.033-2.054,2.28-2.648,3.587
						c-0.149,0.319-0.281,0.663-0.406,1.012c-0.123,0.351-0.263,0.658-0.373,1.02c-0.215,0.729-0.452,1.401-0.646,2.139
						c-0.241,0.74-0.43,1.522-0.639,2.28l-0.291,1.149l-0.227,0.933c-0.212,0.922-0.399,1.858-0.504,2.714
						c-0.22,1.761-1.135,3.242-2.257,4.482c-0.54,0.6-0.943,1.313-1.451,1.98c-0.5,0.665-1.109,1.279-1.917,1.561
						c-0.43,0.15-0.896,0.215-1.34,0.297c-0.2,0.048-0.935,1.083-1.053,1.444c-0.052,0.169,0.853,0.568,1.116,0.649
						c0.833,0.309,2.154,0.521,2.772,0.431c1.237-0.173,1.84-0.315,2.89-0.971c2.18-1.398,3.91-3.245,5.999-5.155
						c0.849-0.782,1.365-1.811,1.74-2.853c0.366-1.021,0.626-2.021,1.063-2.91c0.649-0.818,1.291-0.563,1.417-0.925
						c0.094-0.219,0.352-0.161,0.526-0.021c0.188,0.142,0.273,0.299,0.404,0.241c0.271-0.179,0.623-0.189,0.719,0.183
						c0.054,0.206,0.049,0.462-0.015,0.679c-0.02,0.069-0.034,0.129-0.043,0.186c-0.002,0.028-0.011,0.056-0.011,0.082l0.029,0.46
						l0.14,2.175c0.086,1.471,0.147,2.947,0.092,4.47c-0.046,1.468-0.363,2.96-0.491,4.711c-0.06,0.879-0.07,1.832,0.091,2.915
						c0.164,1.07,0.508,2.331,1.323,3.663c0.424,0.695,1.016,1.499,1.802,2.206c0.779,0.709,1.745,1.288,2.688,1.59
						c1.921,0.614,3.534,0.207,4.491-0.832c0.473-0.516,0.616-1.484,0.65-2.342c-0.021,0.699-0.522,0.306-0.922-0.332
						c-0.417-0.637-0.622-1.495-0.645-1.57c-0.396-0.98-0.612-1.579-0.413-2.211c0.439-1.223,1.792-1.943,1.955-3.079
						c0.206-1.201,0.333-2.717,0.398-4.327c0.073-1.697,0.024-3.519-0.048-5.312c-0.09-1.655-0.116-2.596-0.565-5.831
						c-0.411-2.695-1.079-5.28-2.107-7.346C231.031,254.764,229.441,252.842,226.866,251.942z"/>
				</g>
			</g>
		</g>
	</g>
	<g>
		<g>
			<g>
				<path fill="#FFFFFF" d="M343.099,256.784l0.007,0.019C343.109,256.796,343.128,256.797,343.099,256.784z"/>
				<path fill="#FFFFFF" d="M342.522,257.422l-0.075,0.173C342.479,257.522,342.499,257.475,342.522,257.422z"/>
				<path fill="#FFFFFF" d="M350.724,245.309l0.033,0.145C350.75,245.37,350.738,245.331,350.724,245.309z"/>
				<g>
					<path fill="#FFFFFF" d="M347.215,239.675c-2.163,1.599-4.39,3.352-6.506,5.13c-1.058,0.889-2.088,1.785-3.068,2.67
						l-0.366,0.332l-0.292,0.279l-0.56,0.545l-1.066,1.083c-0.706,0.739-1.358,1.461-1.967,2.153
						c0.158,1.055,0.411,2.103,0.595,3.076c0.171,0.893,0.341,1.781,0.511,2.67c0.131,0.561,0.228,1.124,0.27,1.692
						c0.159,2.395,0.221,4.823,0.608,7.163c0.418,2.376,0.339,4.699,0.253,7.085c-0.01,0.287-0.005,0.575,0.011,0.862l0.055,0.782
						c0.012,0.212,0.038,0.426,0.061,0.646l-0.003,0.682c-0.047,0.923-0.229,1.923-0.853,2.773
						c-0.316,0.453-0.728,0.862-1.108,1.287c-0.171,0.202-0.354,1.755-0.266,2.167c0.045,0.188,1.1-0.17,1.391-0.285
						c0.939-0.354,2.248-1.084,2.767-1.59c0.507-0.513,0.898-0.897,1.2-1.347c0.326-0.435,0.58-0.919,0.856-1.628
						c0.263-0.74,0.493-1.507,0.616-2.316c0.085-0.424,0.126-0.773,0.167-1.11l0.146-1.036c0.213-1.381,0.506-2.76,0.99-4.158
						c0.772-2.26,0.272-4.661,0.56-6.899c0.167-1.224,0.408-2.447,0.594-3.672l0.127-0.918c0.038-0.268,0.065-0.732,0.101-0.691
						c0.063-0.132,0.096-0.243,0.083-0.371c-0.007-0.067-0.004-0.133,0.007-0.191c0.063-0.033,0.133-0.06,0.202-0.081
						c0.141-0.043,0.283-0.063,0.405-0.068c-0.065,0.226-0.499,0.725-0.819,0.916c-0.136,0.082-0.265,0.15-0.383,0.206l-0.17,0.074
						c-0.011,0.013,0.021,0.019,0.029,0.031c0.072,0.063,0.189,0.219,0.259,0.473c0.039,0.121,0.064,0.255,0.086,0.38l0.014,0.094
						l0.005,0.046l0.003,0.026l0.048,0.146l0.378,1.163c0.627,1.864,1.431,3.711,2.068,5.242l0.486,1.151l0.489,1.326l0.24,0.669
						l0.119,0.335l0.004,0.011l0.002,0.005c-0.019-0.057,0.043,0.132-0.042-0.126l0.002,0.005l0.018,0.041l0.033,0.084l0.069,0.166
						l0.142,0.331c0.194,0.44,0.404,0.876,0.626,1.301c0.189,0.338,0.313,0.513,0.472,0.778l0.779,1.322
						c0.241,0.399,0.474,0.806,0.702,1.216c0.452,0.838,0.903,1.614,1.363,2.41c0.452,0.801,0.953,1.56,1.492,2.297
						c0.529,0.74,1.138,1.438,1.835,2.071c1.396,1.329,3.488,3.335,6.319,2.808c0.668-0.134,1.376-0.806,1.924-1.467
						c-0.447,0.544-0.607-0.113-0.622-0.901c-0.019-0.792,0.122-1.701,0.118-1.796c-0.035-1.206-0.419-2.144-0.619-3.163
						c-0.171-1.025-0.232-2.059-0.362-3.021c-0.118-0.98-0.297-1.908-0.741-2.699c-0.878-1.66-1.968-3.294-2.767-4.632l-0.303-0.49
						l-0.072-0.115l0.022,0.018c0.013,0.014,0.021,0.03,0.024,0.049l0.001,0.015v0.008v0.004l-0.212,0.087
						c-0.656,0.267-1.323,0.508-2,0.726l-1.021,0.308l-0.516,0.14l-0.26,0.066c-3.55,1.263,4.797-1.71,3.939-1.405v-0.003
						l-0.002-0.006l-0.004-0.011l-0.063-0.177l-0.248-0.707l-0.505-1.416l-0.628-1.584c-0.365-0.942-0.697-1.694-1.043-2.492
						l-0.99-2.291c-0.166-0.379-0.321-0.751-0.453-1.103l-0.104-0.27l-0.133-0.361l-0.405-1.177
						c-0.128-0.399-0.284-0.768-0.387-1.194l-0.242-1.348l-0.472-2.713c-0.147-0.753-0.237-1.653-0.328-2.56
						c-0.091-0.912-0.182-1.829-0.273-2.751c-0.163-1.779-0.329-3.577-0.496-5.391l-0.581,0.398l-0.66,0.466
						C348.354,238.841,347.785,239.258,347.215,239.675z"/>
				</g>
			</g>
		</g>
	</g>
	<g>
		<g>
			<g>
				<path fill="#FFFFFF" d="M306.396,258.486l0.006,0.022C306.405,258.502,306.426,258.507,306.396,258.486z"/>
				<path fill="#FFFFFF" d="M313.894,258.204l-0.029,0.118C313.892,258.282,313.896,258.241,313.894,258.204z"/>
				<path fill="#FFFFFF" d="M319.47,254.847l0.016,0.003C319.489,254.846,319.481,254.846,319.47,254.847z"/>
				<g>
					<path fill="#FFFFFF" d="M311.127,247.114c-0.652-0.031-1.306-0.041-1.958-0.028l-0.979,0.034l-0.245,0.013l-0.128,0.009
						l-0.224,0.035l-0.891,0.142c-1.183,0.194-2.344,0.404-3.467,0.627l-1.651,0.342l-0.8,0.177c-0.127,0.039-0.271,0.04-0.383,0.11
						l-0.313,0.251c-0.874,0.633-1.602,1.527-2.079,2.505c-0.479,0.985-0.713,2.033-0.734,3.108
						c-0.044,0.524,0.021,1.084,0.048,1.615c0.085,0.555,0.127,1.086,0.253,1.635c0.201,1.007,0.402,2.012,0.604,3.021
						c0.1,0.618,0.182,1.211,0.183,1.663c0.021,0.255-0.011,0.426-0.011,0.622l-0.106,1.073c-0.073,0.742-0.137,1.485-0.181,2.23
						c-0.022,0.761,0.006,1.545,0.048,2.314c0.031,1.536,0.242,3.12,0.268,4.664c0.052,0.777,0.194,1.562,0.276,2.349
						c0.089,0.75,0.207,1.695,0.244,2.173c0.026,0.278,0.071,0.553,0.129,0.826c0.043,0.274,0.05,0.546,0.093,0.82
						c0.11,0.553,0.121,1.099,0.137,1.66c0.027,0.285,0.005,0.563-0.044,0.836l-0.131,0.83c-0.183,0.522-0.366,1.062-0.715,1.505
						c-0.387,0.469-0.791,0.896-1.271,1.252c-0.127,0.08-0.208,0.548-0.408,0.972c-0.171,0.439-0.327,0.942-0.334,1.165
						c-0.018,0.212,1.127,0.055,1.473-0.027c1.073-0.2,2.622-0.997,3.219-1.63c1.229-1.229,1.705-1.975,2.279-3.691
						c0.455-1.809,0.66-3.7,0.514-5.57c-0.024-0.51-0.011-0.872,0.005-1.251c0.016-0.38,0.037-0.759,0.066-1.135
						s0.067-0.749,0.114-1.119c0.06-0.372,0.19-0.756,0.299-1.128c0.188-0.604,0.292-1.199,0.345-1.797
						c0.084-0.607,0.174-1.236,0.22-1.857c0.067-1.226,0.245-2.553,0.588-3.794l0.145-0.505c0.054-0.208,0.113-0.525,0.165-0.786
						c0.123-0.573,0.151-1.034,0.218-1.561c0.03-0.457,0.072-0.971,0.078-1.389l0.016-0.656c0.003-0.196-0.004-0.454,0.025-0.445
						c0.169-0.411,0.286-0.602,0.305-0.895c0.006-0.342,0.488-0.415,0.792-0.199l0.383,0.189l0.073,0.031
						c0.01,0.002,0.005,0.004,0.024,0.006l0.147,0.008l0.293,0.013c0.391,0.015,0.782,0.021,1.174,0.017
						c1.555-0.023,3.039-0.066,4.649-0.143l-5.167-5.29l0.009,0.498l0.004,0.252l-0.005,0.392c-0.004,0.44-0.018,1.239,0.063,1.925
						c0.121,1.388,0.708,2.781,1.354,3.906l0.532,0.896l0.219,0.398c0.157,0.255,0.284,0.54,0.404,0.831
						c0.254,0.57,0.446,1.206,0.612,1.886c0.424,1.709,0.757,3.75,1.219,6.069c0.467,2.32,1.06,4.952,2.227,7.661
						c0.239,0.61,0.55,1.217,0.832,1.829l0.752,1.564c0.501,1.029,1.048,2.104,1.713,3.183c0.66,1.077,1.453,2.17,2.496,3.209
						c1.042,1.03,2.324,2.03,3.996,2.736c0.446,0.182,0.942,0.351,1.439,0.515c0.512,0.153,1.084,0.261,1.643,0.361
						c0.57,0.082,1.178,0.095,1.766,0.099c0.147,0.005,0.295-0.015,0.442-0.029l0.22-0.026c0.065-0.009,0.177-0.019,0.158-0.028
						l0.13-0.125c0.052-0.048,0.047-0.084,0.078-0.133c0.116-0.034,0.304-0.063,0.451-0.103c0.313-0.078,0.623-0.176,0.926-0.301
						c0.605-0.248,1.185-0.602,1.712-1.099c0.513-0.483,0.777-1.43,0.892-2.281c-0.189,1.396-2.176-1.826-2.33-1.985
						c-0.233-0.24-0.478-0.453-0.729-0.647c-0.126-0.097-0.301-0.196-0.459-0.289c-0.162-0.084-0.323-0.137-0.492-0.202
						l-0.255-0.091l-0.157-0.09c-0.101-0.049-0.195-0.136-0.286-0.21c-0.181-0.164-0.348-0.269-0.488-0.475
						c-0.554-0.68-0.778-1.534-0.971-2.337c-0.193-0.805-0.359-1.563-0.77-2.278c-0.431-0.753-0.881-1.577-1.35-2.461l-0.732-1.386
						c-0.151-0.271-0.202-0.416-0.289-0.596c-0.077-0.18-0.178-0.335-0.247-0.528c-0.313-0.724-0.589-1.546-0.849-2.442
						c-0.245-0.933-0.475-1.933-0.68-3.056c-0.354-1.894-0.738-4.091-1.425-6.458c-0.158-0.583-0.388-1.205-0.582-1.804
						c-0.243-0.614-0.467-1.228-0.751-1.842c-0.298-0.613-0.563-1.231-0.926-1.832l-0.519-0.902l-0.153-0.28
						c-0.065-0.127,0-0.129,0.021-0.187c0.02-0.04,0.039,0.049,0.079-0.272l0.024-0.171l0.029-0.329l0.06-0.675l0.496-5.634
						l-6.388-0.398C313.039,247.233,312.083,247.174,311.127,247.114z"/>
				</g>
			</g>
		</g>
	</g>
	<g>
		<g>
			<g>
				<path fill="#FFFFFF" d="M280.96,261.957l-0.002,0.022C280.964,261.977,280.979,261.994,280.96,261.957z"/>
				<path fill="#FFFFFF" d="M282.543,261.957l-0.083,0.152C282.495,262.045,282.518,262.004,282.543,261.957z"/>
				<path fill="#FFFFFF" d="M291.117,253.145l0.058,0.105C291.156,253.19,291.137,253.161,291.117,253.145z"/>
				<g>
					<path fill="#FFFFFF" d="M286.713,247.06c-0.673-0.404-1.428-0.676-2.255-0.86c-0.833-0.171-1.724-0.163-2.557-0.024
						c-1.704,0.278-3.21,1.124-4.419,2.252c-0.3,0.318-0.622,0.583-0.878,0.957l-0.759,1.091c-0.238,0.375-0.429,0.819-0.635,1.218
						l-0.298,0.607l-0.248,0.666l-0.476,1.3l-0.375,1.366c-0.138,0.433-0.245,0.887-0.347,1.345
						c-0.107,0.452-0.228,0.89-0.349,1.326c-0.202,0.962-0.447,1.89-0.608,2.86l-0.108,0.605l-0.076,0.482l-0.134,0.955
						c-0.16,1.261-0.255,2.511-0.251,3.672c-0.004,0.299-0.002,0.524-0.03,0.882l-0.088,1.025c-0.056,0.656-0.117,1.273-0.195,1.888
						c-0.15,1.215-0.366,2.385-0.611,3.545c-0.243,1.109-0.268,2.232-0.387,3.317c-0.131,1.06-0.344,2.145-0.94,2.889
						c-0.32,0.375-0.7,0.683-1.021,0.846c-0.074,0.083-0.127,0.299-0.171,0.604c-0.044,0.282-0.123,0.563-0.131,0.77
						c-0.003,0.085,0.159,0.22,0.398,0.331c0.229,0.104,0.567,0.221,0.691,0.199c0.908,0.14,2.382-0.529,2.942-1.055
						c1.087-1.048,1.575-1.65,2.144-3.01c1.168-2.829,1.737-5.703,3.101-8.331c0.275-0.522,0.47-1.063,0.626-1.528
						c0.133-0.382,0.321-1.208,0.414-1.762c0.217-1.223,0.344-2.363,0.717-3.422c0.458-1.479,0.75-1.417,1.035-1.661
						c0.276-0.187,0.484-0.235,0.567-0.477c0.095-0.271,0.34-0.298,0.542-0.174c0.212,0.12,0.351,0.332,0.494,0.316
						c0.275-0.026,0.582,0.086,0.692,0.554c0.027,0.128,0.041,0.264,0.041,0.395l-0.003,0.097l-0.002,0.06l0.03,0.263l0.109,1.096
						c0.168,1.881,0.396,3.761,0.769,5.885c0.102,0.549,0.201,1.087,0.36,1.742c0.068,0.304,0.175,0.682,0.297,1.088
						c0.138,0.409,0.339,0.935,0.404,1.075c0.383,0.911,0.757,1.824,1.103,2.716c1.247,3.254,1.414,6.688,2.583,9.514
						c0.174,0.443,0.372,0.951,0.588,1.442c0.191,0.477,0.439,0.958,0.799,1.415l3.484,4.422l0.576-0.104
						c0.896-0.163,1.784-0.534,2.596-1.281c0.491-0.452,0.815-1.378,1.001-2.217c-0.306,1.376-1.688-1.93-1.806-2.096
						c-0.137-0.195-0.281-0.374-0.442-0.544c0.261,0.277,0.521,0.555,0.8,0.851c0.383-0.838,0.559-1.748,0.813-2.649
						c0.596-2.147,1.462-4.346,1.063-6.414c-0.402-2.187-1.072-4.216-1.809-6.159c-0.372-0.976-0.755-1.922-1.136-2.851
						l-0.137-0.333c-0.014-0.029-0.004-0.02-0.013-0.03c-0.008-0.031-0.031-0.076-0.07-0.255c-0.072-0.277-0.152-0.723-0.226-1.147
						l-0.793-5.076l-0.221-1.355l-0.33-1.893c-0.29-1.664-0.66-3.304-1.107-4.864c-0.535-1.864-1.217-3.646-2.107-5.076
						C289.05,248.914,287.988,247.82,286.713,247.06z"/>
				</g>
			</g>
		</g>
	</g>
	<g>
		<g>
			<g>
				<path fill="#FFFFFF" d="M252.876,264.514l-0.02,0.062C252.871,264.55,252.896,264.54,252.876,264.514z"/>
				<path fill="#FFFFFF" d="M254.434,263.041l-0.046,0.199C254.407,263.157,254.42,263.102,254.434,263.041z"/>
				<path fill="#FFFFFF" d="M259.897,251.065l0.063,0.071C259.936,251.093,259.915,251.074,259.897,251.065z"/>
				<g>
					<path fill="#FFFFFF" d="M254.08,248.744l-0.537,0.05c-0.176,0.003-0.387,0.15-0.578,0.224
						c-0.393,0.183-0.784,0.378-1.173,0.587c-0.396,0.175-0.758,0.5-1.122,0.806l-1.081,0.93c-0.683,0.705-1.379,1.356-1.972,2.17
						c-0.582,0.834-1.168,1.617-1.583,2.578c-0.223,0.478-0.461,0.926-0.643,1.413l-0.488,1.465c-0.163,0.474-0.295,0.954-0.4,1.435
						l-0.075,0.345l-0.036,0.254l-0.071,0.502c-0.14,1.318-0.281,2.574-0.547,3.731c-0.597,2.477-1.157,4.705-1.432,6.928
						c-0.059,0.415-0.129,0.831-0.223,1.232c-0.109,0.41-0.202,0.736-0.356,1.205c-0.196,0.564-0.332,1.03-0.438,1.3
						c-0.081,0.226-0.207,0.43-0.345,0.624c-0.338,0.456-0.743,1.064-1.06,1.563c-0.665,1.043-1.012,2.109-1.418,3.026
						c-0.388,0.9-0.905,1.727-1.536,1.923c-0.359,0.112-0.731,0.142-1.08,0.09c-0.081,0.005-0.26,0.203-0.496,0.425
						c-0.234,0.212-0.538,0.443-0.646,0.606c-0.125,0.134,0.548,0.836,0.811,0.999c0.186,0.124,0.412,0.254,0.668,0.38
						c0.253,0.114,0.528,0.187,0.818,0.263c0.563,0.113,1.155,0.113,1.514,0.009c1.487-0.417,2.18-0.897,3.176-1.983
						c1.387-1.596,2.335-3.25,3.631-4.383c0.377-0.454,0.794-0.91,1.112-1.445c0.187-0.293,0.304-0.465,0.443-0.657
						c0.145-0.221,0.266-0.336,0.387-0.445c0.14-0.105,0.342-0.411,0.509-0.674c0.167-0.27,0.327-0.55,0.464-0.833
						c0.254-0.561,0.491-1.156,0.662-1.732c0.377-1.173,0.628-2.313,1.098-3.362c1.001-2.248,2.236-4.248,2.941-5.965
						c0.078-0.252,0.326-0.393,0.522-0.412c0.203-0.032,0.339,0.047,0.438-0.101c0.106-0.142,0.221-0.414,0.45-0.521
						c0.137-0.118,0.14-0.008,0.199,0.035c0.048,0.061,0.093,0.144,0.128,0.246c0.081,0.237,0.137,0.539,0.122,0.766l-0.003,0.104
						l0.001,0.024c-0.004-0.002,0,0.016,0.023,0.086l0.103,0.319l0.431,1.269c0.27,0.825,0.68,1.722,0.831,2.45
						c0.198,0.781,0.448,1.483,0.623,2.327c0.167,0.854,0.329,1.71,0.473,2.571c0.253,1.707,0.205,3.373,0.371,5.305l0.116,1.405
						c0.049,0.447,0.111,0.859,0.184,1.288c0.09,0.468,0.205,0.977,0.352,1.49c0.098,0.305,0.202,0.609,0.315,0.91l0.178,0.453
						l0.262,0.533c0.201,0.376,0.374,0.754,0.639,1.152c0.268,0.398,0.557,0.801,0.865,1.189c0.646,0.71,1.433,1.451,2.14,1.801
						c0.358,0.195,0.752,0.421,1.095,0.515l0.539,0.14c0.233,0.075,0.463,0.142,0.688,0.196c0.876,0.313,1.797,0.043,2.535-0.28
						c0.544-0.396,0.945-1.288,1.223-2.101c-0.112,0.334-0.256,0.371-0.41,0.236c-0.133-0.127-0.397-0.467-0.543-0.818
						c-0.177-0.327-0.236-0.815-0.264-1.159c-0.028-0.349-0.017-0.595-0.023-0.642c-0.223-1.137-0.543-1.979-0.418-2.754
						c0.137-0.763,0.608-1.384,0.938-2.122c0.169-0.398,0.32-0.819,0.418-1.243c0.099-0.466,0.129-0.957,0.123-1.398
						c-0.125-3.432-0.557-7.476-1.873-12.064c-0.23-1.014-0.575-1.763-0.881-2.617l-1.076-2.863l-0.845-2.318l-0.419-1.158
						c-0.142-0.374-0.333-0.546-0.496-0.83l-2.018-3.117c-0.796-1.257-1.592-2.583-2.418-3.938
						c-0.061-0.248-0.313-0.148-0.507-0.157l-0.609,0.024l-1.229,0.052C255.384,248.63,254.783,248.687,254.08,248.744z"/>
				</g>
			</g>
		</g>
	</g>
</g>
</svg>
