<?xml version="1.0" encoding="utf-8"?>
<!-- Generator: Adobe Illustrator 19.1.0, SVG Export Plug-In . SVG Version: 6.00 Build 0)  -->
<svg version="1.1" id="Layer_1" xmlns="http://www.w3.org/2000/svg" xmlns:xlink="http://www.w3.org/1999/xlink" x="0px" y="0px"
	 viewBox="0 0 233.5 58" style="enable-background:new 0 0 233.5 58;" xml:space="preserve">
<style type="text/css">
	.st0{display:none;}
	.st1{display:inline;}
	.st2{display:none;fill:#010101;stroke:#000000;stroke-width:2;stroke-miterlimit:10;}
	.st3{display:none;fill:#010101;stroke:#000000;stroke-width:1.2;stroke-miterlimit:10;}
	.st4{display:none;fill:#010101;}
	.st5{font-family:'MinionPro-Regular';}
	.st6{font-size:13px;}
	.st7{clip-path:url(#SVGID_2_);}
	.st8{clip-path:url(#SVGID_4_);fill:#231F20;}
	.st9{clip-path:url(#SVGID_4_);}
</style>
<g id="Expedition_v4_-_O" class="st0">
	<path class="st1" d="M30.2,33.6c0,0.3,0.4,0.4,1.3,0.5l0.6,0V36h-6.5v-1.9c1.2,0,2.2-0.6,2.9-1.7l0.8-1.2l5.4-7.1l-6.1-8.9
		C28,14.5,27,14.1,25.6,14V12h11.2V14l-1.1,0c-0.7,0-1,0.2-1,0.5c0,0.3,0.4,1.1,1.3,2.3l3,4.4 M44.5,14.5c0-0.3-0.2-0.5-0.7-0.5
		l-1,0V12h6.6V14c-1.4,0.1-2.6,1.1-3.8,2.9l-5,6.5l6.5,9.3c0.7,0.9,1.4,1.3,2.3,1.4V36H38.7v-1.9l0.8,0c0.9,0,1.3-0.2,1.3-0.6
		c0-0.3-0.4-1-1.3-2.3L36,26.2"/>
	<path class="st1" d="M59.3,26.4V30c0,1.5,0,2.4,0.1,2.5c0.2,0.8,0.7,1.3,1.7,1.4c0.8,0.1,1.3,0.1,1.5,0.1V36H50.4v-1.9
		c1.8,0,2.7-0.6,2.7-1.7l0.1-2.4l-0.1-14.4c0-1-0.9-1.5-2.7-1.7V12h11.8c6.4,0,9.6,2.2,9.6,6.5c0,5.3-3.8,7.9-11.4,7.9H59.3z
		 M59.3,24.5h1c3.7,0,5.5-1.9,5.5-5.7c0-3.2-1.7-4.8-5.1-4.8l-1.5,0V24.5z"/>
	<path class="st1" d="M73,36v-1.9c1.8,0,2.7-0.6,2.7-1.7l0.1-2.4l-0.1-14.4c0-1.1-0.9-1.7-2.7-1.7V12h18.6v5.3h-1.9v-0.5v-1.4
		c0-1-0.9-1.5-2.6-1.5l-5.2,0v8.3h2.9l1.5-0.1c0.7,0,1.1-0.5,1.1-1.4v-0.7h1.9v6h-1.9v-0.7c0-0.8-0.4-1.2-1.1-1.3l-1.5-0.1h-2.9v6
		c0,1.8,0.1,2.9,0.3,3.2c0.3,0.6,1.3,0.9,2.9,0.9h1.4l2.2-0.1c0.8,0,1.2-0.3,1.4-1c0-0.1,0-0.8,0-2v-0.6h2.2V36H73z"/>
	<path class="st1" d="M94.1,36v-1.9c1.8,0,2.7-0.6,2.7-1.7L97,30l-0.1-14.4c0-1.1-0.9-1.7-2.7-1.7V12h12.7c3.2,0,5.6,1.2,7.3,3.5
		c1.5,2.1,2.2,4.8,2.2,8.1c0,3.4-0.7,6.2-2.2,8.4c-1.7,2.7-4.2,4-7.3,4H94.1z M103,14v17c0,1.3,0.1,2,0.2,2.3
		c0.2,0.5,0.9,0.8,1.9,0.8c3.2,0,4.8-3.6,4.8-10.7c0-6.3-1.9-9.4-5.6-9.4L103,14z"/>
	<path class="st1" d="M128.9,36h-11.6v-1.9c1.8,0,2.7-0.6,2.7-1.7l0.1-2.4L120,15.6c0-1.1-0.9-1.7-2.7-1.7V12h11.6V14
		c-1.8,0-2.7,0.6-2.7,1.7l-0.1,2.4l0.1,14.4c0,1.1,1,1.7,2.7,1.7V36z"/>
	<path class="st1" d="M134.4,36v-1.5c1.6,0,2.4-0.2,2.6-0.7c0.1-0.4,0.2-1.2,0.2-2.5V14.4h-2.4c-1.1,0-1.8,0.3-2.1,0.8
		c-0.1,0.2-0.2,1-0.2,2.4V18h-1.9v-6h19.2v6h-1.9v-0.5c0-1.4-0.1-2.2-0.2-2.4c-0.2-0.5-0.9-0.7-2-0.7h-2.4v16.8c0,1.2,0,1.9,0.1,2.1
		c0.2,0.7,0.6,1,1.4,1.1c0.7,0.1,1.2,0.1,1.3,0.1V36H134.4z"/>
	<path class="st1" d="M163.1,36h-11.6v-1.9c1.8,0,2.7-0.6,2.7-1.7l0.1-2.4l-0.1-14.4c0-1.1-0.9-1.7-2.7-1.7V12h11.6V14
		c-1.8,0-2.7,0.6-2.7,1.7l-0.1,2.4l0.1,14.4c0,1.1,1,1.7,2.7,1.7V36z"/>
	<path class="st1" d="M186.5,36v-1.9c1.4,0,2.3-0.3,2.6-1c0.2-0.4,0.2-1.4,0.2-3.1v-12c0-1.7-0.1-2.7-0.2-3.1c-0.3-0.7-1.2-1-2.6-1
		V12h5.8l12,15l-0.1-11.4c0-1.1-0.9-1.7-2.7-1.7V12h8.6V14c-1.8,0-2.7,0.6-2.7,1.7l-0.1,2.4v18.2h-3l-12-15.2l0.1,11.4
		c0,1.1,1,1.7,2.8,1.7V36H186.5z"/>
	<g class="st1">
		<path d="M5,36v-1.9c1.8,0,2.7-0.6,2.7-1.7L7.8,30L7.7,9.6C7.7,8.5,6.8,8,5,8V6h18.9v5.3h-2v-0.5V9.5c0-1-0.9-1.5-2.6-1.5h-5.5
			v11.3h3.2l1.5-0.1c0.7,0,1.1-0.5,1.1-1.3v-0.7h1.9v6h-1.9v-0.7c0-0.8-0.4-1.3-1.1-1.3L17.1,21h-3.2v9c0,1.9,0.1,2.9,0.3,3.3
			c0.4,0.5,1.4,0.8,3.1,0.8h1.5l2.2-0.1c0.7,0,1.2-0.4,1.3-1c0-0.1,0-0.7,0-2v-0.6h2.2V36H5z"/>
	</g>
</g>
<path class="st2" d="M174.5,11.7c-6.8,0-12.4,5.6-12.4,12.4s5.6,12.4,12.4,12.4c6.8,0,12.4-5.6,12.4-12.4S181.4,11.7,174.5,11.7z
	 M174.5,13.2c6,0,10.8,4.8,10.8,10.8s-4.8,10.8-10.8,10.8c-6,0-10.8-4.8-10.8-10.8S168.5,13.2,174.5,13.2z M183.8,24"/>
<path class="st3" d="M179.2,18.8l-6.4,3.7l-3,6.8l6.4-3.7L179.2,18.8z M174.5,22.7c0.7,0,1.4,0.5,1.4,1.3c0,0.7-0.5,1.4-1.3,1.4
	c-0.7,0-1.4-0.5-1.4-1.3C173.2,23.4,173.7,22.8,174.5,22.7z"/>
<polygon class="st4" points="175.5,17.6 174.5,17.1 173.5,17.6 174.5,15.1 174.5,15.1 "/>
<rect x="165.8" y="23.9" class="st4" width="1.6" height="0.3"/>
<rect x="181.8" y="23.9" class="st4" width="1.6" height="0.3"/>
<rect x="174.4" y="31.6" class="st4" width="0.3" height="1.6"/>
<g>
	<path d="M29.2,31.1c0.4,0.7,0.5,1.7,0.5,3.1s-0.1,2.1-0.3,2.3c-4.1-0.2-7.9-0.3-11.4-0.3s-5.7,0-6.6-0.1c0.3-2.8,0.5-5.9,0.5-9.3
		V15.4c0-1-0.2-1.7-0.5-2c-0.1-0.1-0.3-0.2-0.6-0.3c-0.2-0.2-0.3-0.6-0.3-1.1s0-0.9,0.1-1.1c1,0,2.5,0,4.4,0s3.3,0,4.4,0
		c2.9,0,6.2-0.1,10.1-0.3c0.2,0.2,0.3,0.9,0.3,2.3s-0.2,2.4-0.5,3.1s-1,1-2,1s-1.7-0.3-2.1-0.9v-2.1c-3.4-0.2-6.1-0.2-8.2-0.2
		c0.3,1.3,0.4,2.9,0.4,4.7c0,0.1,0,0.3,0,0.4V22l7.6-0.4c0.2,0.2,0.3,0.7,0.3,1.3S25.1,24.3,25,25c-0.6,0.1-1.6,0.1-2.8,0.1
		s-2.8-0.1-4.9-0.4v3.4c0,0.1,0,0.3,0,0.4c0,1.9-0.1,3.5-0.4,4.7c2,0,4.8-0.1,8.2-0.2V31c0.2-0.4,0.7-0.7,1.4-0.8
		c0.3-0.1,0.6-0.1,0.9-0.1C28.2,30,28.8,30.4,29.2,31.1z"/>
	<path d="M32.5,13.6l-0.7,0c0,0-0.1-0.2-0.2-0.4s-0.1-0.5-0.1-0.6s0-0.3,0-0.4c1.7-1,3.4-1.4,5.3-1.4c0.5,0,1,0,1.5,0.1
		c1.2,2.7,3,5.9,5.4,9.7c0.8-1.4,1.3-2.3,1.6-2.9s0.8-1.6,1.4-2.9s1.1-2.7,1.5-4c0.7-0.2,1.2-0.2,1.7-0.2c1.7,0,2.6,1,2.6,2.9
		c0,1.3-1.6,3.7-4.7,7c-0.4,0.5-0.9,1-1.5,1.5s-0.9,0.9-1.1,1.1c1.6,2.5,4.5,6.8,8.9,13.1c-0.6,0.4-1.5,0.5-2.6,0.5
		c-2,0-3.2-0.2-3.6-0.6c-0.6-0.6-2.8-3.9-6.6-9.9c-1.8,3-2.9,5.2-3.5,6.5c-0.6,1.4-1,2.6-1.3,3.6c-0.7,0.2-1.2,0.2-1.7,0.2
		c-1.7,0-2.6-1-2.6-2.9c0-1,0.8-2.4,2.3-4.3c1.5-1.9,3.3-3.8,5.2-5.7c-2.7-4.3-4.1-6.7-4.4-7.3s-0.5-0.9-0.6-1.1s-0.2-0.4-0.4-0.5
		s-0.2-0.3-0.4-0.4s-0.2-0.2-0.3-0.3s-0.2-0.1-0.3-0.2C33.1,13.7,32.8,13.6,32.5,13.6z"/>
	<path d="M63.5,26.6v3.9c0,0.9,0.1,2.5,0.2,4.6l0.1,1.1c-1,0.3-2.2,0.5-3.6,0.5S58,36.3,57.6,36c0.3-2.5,0.5-4.4,0.5-5.7V16.3
		c0-1-0.1-1.7-0.3-2s-0.3-0.5-0.4-0.6s-0.2-0.2-0.3-0.3s-0.2-0.1-0.3-0.2c-0.1-0.1-0.3-0.1-0.6-0.2c-0.2-0.6-0.3-1.4-0.2-2.2
		c3.3-0.5,6.8-0.8,10.5-0.8h1c2.5,0,4.6,0.6,6.4,1.8c0.9,0.6,1.5,1.3,2,2.2s0.7,2,0.7,3.1s-0.1,2.1-0.4,3s-0.7,1.7-1.3,2.5
		s-1.4,1.5-2.4,2C70.4,25.9,67.4,26.5,63.5,26.6z M71.4,18.2c0-3.6-1.8-5.4-5.5-5.4c-1,0-2,0.1-2.8,0.2c0.3,1.3,0.4,3,0.4,5.3v5.6
		c3.8-0.1,6.2-0.9,7.2-2.3C71.2,20.8,71.4,19.7,71.4,18.2z"/>
	<path d="M98.1,31.1c0.4,0.7,0.5,1.7,0.5,3.1s-0.1,2.1-0.3,2.3c-4.1-0.2-7.9-0.3-11.4-0.3s-5.7,0-6.6-0.1c0.3-2.8,0.5-5.9,0.5-9.3
		V15.4c0-1-0.2-1.7-0.5-2c-0.1-0.1-0.3-0.2-0.6-0.3c-0.2-0.2-0.3-0.6-0.3-1.1s0-0.9,0.1-1.1c1,0,2.5,0,4.4,0s3.3,0,4.4,0
		c2.9,0,6.2-0.1,10.1-0.3c0.2,0.2,0.3,0.9,0.3,2.3s-0.2,2.4-0.5,3.1s-1,1-2,1s-1.7-0.3-2.1-0.9v-2.1c-3.4-0.2-6.1-0.2-8.2-0.2
		c0.3,1.3,0.4,2.9,0.4,4.7c0,0.1,0,0.3,0,0.4V22l7.6-0.4c0.2,0.2,0.3,0.7,0.3,1.3S94,24.3,93.9,25c-0.6,0.1-1.6,0.1-2.8,0.1
		s-2.8-0.1-4.9-0.4v3.4c0,0.1,0,0.3,0,0.4c0,1.9-0.1,3.5-0.4,4.7c2,0,4.8-0.1,8.2-0.2V31c0.2-0.4,0.7-0.7,1.4-0.8
		c0.3-0.1,0.6-0.1,0.9-0.1C97.2,30,97.8,30.4,98.1,31.1z"/>
	<path d="M103.8,25l0.1-5.7c0-1.1,0-2.2-0.1-3.1s-0.1-1.5-0.3-1.8s-0.3-0.5-0.5-0.6s-0.3-0.2-0.5-0.2s-0.3-0.1-0.3-0.1
		c-0.2,0-0.3-0.4-0.3-0.9s0-0.9,0.1-1.1c4.1-0.9,7.2-1.4,9.2-1.4c5,0,8.8,1.2,11.6,3.6c2.3,2,3.5,4.9,3.5,8.5c0,2.9-0.7,5.5-2.1,7.7
		s-3.3,3.8-5.8,5s-5.2,1.7-8.4,1.7c-1.7,0-3.4-0.1-4.9-0.4c-0.8-0.3-1.2-1.1-1.3-2.4c-0.1-1-0.1-2.5-0.1-4.6V25z M109.2,18.3
		L109,28.9v1.2c0,2.2,0.2,3.5,0.6,3.8c0.4,0.1,0.9,0.1,1.4,0.1s1.1,0,1.9-0.1s1.7-0.3,2.6-0.7s1.8-1.1,2.5-2c0.8-0.9,1.4-2,1.8-3.4
		s0.7-3,0.7-4.6s-0.2-3-0.6-4.2s-0.8-2.2-1.4-3s-1.3-1.4-2-2c-1.5-1-3-1.5-4.6-1.5s-2.6,0.1-3.2,0.2c0.3,1.2,0.4,2.7,0.4,4.4V18.3z"
		/>
	<path d="M130.7,30.4V16.3c0-1.5,0.6-2.4-0.3-2.8c-0.1-0.1-0.3-0.1-0.5-0.2s-0.4-0.1-0.4-0.1c-0.2-0.2-0.3-0.6-0.3-1.2
		s0-0.9,0.1-1.1c0.6-0.1,0.6-0.2,2.1-0.2s3.1,0.1,4.7,0.2v19.6c0,1.1,0.1,2.7,0.2,4.7l0.1,0.9c-1,0.3-2.2,0.5-3.6,0.5
		s-2.3-0.2-2.6-0.5C130.6,33.6,130.7,31.7,130.7,30.4z"/>
	<path d="M163.6,14.7c-0.1,0.8-0.4,1.4-0.7,1.7S162,17,161.2,17s-1.5-0.3-2.1-0.9v-2.5c-1.4,0.1-2.9,0.2-4.7,0.2V29
		c0,2.7,0.1,5,0.4,7c-0.9,0.3-2.1,0.5-3.5,0.5s-2.3-0.2-2.8-0.5l0.5-5.7V13.8l-5-0.2v2.4c-0.2,0.2-0.4,0.4-0.8,0.6s-0.9,0.3-1.5,0.3
		s-1.1-0.2-1.4-0.5s-0.6-0.9-0.7-1.7s-0.2-1.6-0.2-2.5s0.1-1.4,0.3-1.6c3,0.1,6.7,0.2,11.3,0.2s8.7-0.1,12.6-0.2
		c0.2,0.2,0.3,0.8,0.3,1.6S163.8,13.9,163.6,14.7z"/>
	<path d="M168.2,36c0.4,0.3,1.3,0.5,2.6,0.5s2.6-0.2,3.6-0.5l-0.1-0.9c-0.2-2-0.2-3.6-0.2-4.7V10.8c-1.6-0.1-3.1-0.2-4.7-0.2
		s-1.6,0.1-2.1,0.2c0,0.2-0.1,0.6-0.1,1.1s0.1,0.9,0.3,1.2c0,0,0.2,0.1,0.4,0.1s0.4,0.1,0.5,0.2c0.9,0.4,0.3,1.4,0.3,2.8v14.1
		C168.7,31.7,168.5,33.6,168.2,36z"/>
	<path d="M222.9,36c-0.7,0.2-1.3,0.2-1.6,0.2s-1.1-0.1-2.4-0.2c-2.4-1.7-6.8-8.4-13-20.1c0.5,8.6,1,14.7,1.3,18.2l0.2,1.8
		c-1,0.3-2.1,0.4-3.1,0.4s-1.7-0.1-2-0.4c0.3-1.9,0.5-6.6,0.5-14.4c0-4,0-6.3-0.1-6.7s-0.2-0.8-0.3-1c-0.2-0.3-0.5-0.5-0.7-0.5
		s-0.4-0.1-0.5-0.1c-0.2-0.2-0.3-0.6-0.3-1.2s0-0.9,0.1-1.1c0.6-0.1,1.4-0.2,2.3-0.2s2.2,0.1,3.8,0.2c0.7,0.3,1.5,1.1,2.5,2.6
		s2,2.9,3,4.5s2.1,3.6,3.5,6s2.5,4.3,3.4,5.7L218.5,11c0.9-0.3,1.7-0.4,2.5-0.4s1.4,0.2,1.8,0.5c-0.1,1.2-0.1,4.1-0.1,8.6
		S222.8,29.8,222.9,36z"/>
</g>
<rect x="5.1" y="5" width="70.4" height="1"/>
<rect x="5.1" y="5" width="1" height="13.2"/>
<rect x="158.1" y="52" width="70.4" height="1"/>
<rect x="227.5" y="39.8" width="1" height="13.2"/>
<text transform="matrix(1 0 0 1 89.576 47.0995)" class="st5 st6">the roleplaying card game</text>
<g>
	<g>
		<defs>
			<rect id="SVGID_1_" x="175.5" y="11.3" width="25.4" height="25.7"/>
		</defs>
		<clipPath id="SVGID_2_">
			<use xlink:href="#SVGID_1_"  style="overflow:visible;"/>
		</clipPath>
		<g class="st7">
			<defs>
				<rect id="SVGID_3_" x="175.5" y="11.3" width="25.4" height="25.7"/>
			</defs>
			<clipPath id="SVGID_4_">
				<use xlink:href="#SVGID_3_"  style="overflow:visible;"/>
			</clipPath>
			<polyline class="st8" points="180.6,23.7 180.6,23.7 180.6,23.7 			"/>
			<polyline class="st8" points="180.3,23.6 180.3,23.6 180.3,23.6 			"/>
			<polyline class="st8" points="180.2,24.7 180.2,24.7 180.2,24.7 			"/>
			<path class="st8" d="M180.4,24.8c0.1,0,0.1,0,0.2-0.1c0.1-0.1,0.1-0.2,0.2-0.2c0.1,0,0.1,0,0.2,0c0.1,0,0.1,0,0.2,0
				c0.1,0,0.1-0.1,0.2,0c0,0,0,0,0,0c0,0,0-0.1,0.1-0.1c0,0,0-0.1,0-0.1c0-0.1-0.1-0.1-0.1-0.2c0-0.1-0.1-0.1-0.1-0.1
				c-0.1,0-0.1-0.1-0.2-0.2c-0.1-0.1-0.1,0-0.2-0.1c-0.1,0-0.1-0.1-0.2-0.1c-0.1,0-0.1-0.1-0.2,0c-0.1,0-0.1,0-0.2,0
				c0,0-0.1,0-0.1,0c-0.1,0-0.2,0-0.3,0c-0.1,0-0.2-0.1-0.3-0.1c0,0-0.1,0-0.1,0.3c0,0.1,0,0.2,0,0.2c0-0.1,0.1,0.2,0.1,0.2
				c0,0.1,0.1,0.1,0.1,0.2c0.1,0.1,0.1,0.3,0.2,0.3c0.1,0.1,0.2,0,0.3,0c0.1,0,0.2,0,0.3,0C180.2,24.7,180.3,24.7,180.4,24.8"/>
			<polyline class="st8" points="194.3,24.6 194.3,24.6 194.3,24.6 			"/>
			<polyline class="st8" points="194.6,24.6 194.6,24.6 194.6,24.6 			"/>
			<polyline class="st8" points="194.8,23.6 194.8,23.6 194.8,23.6 			"/>
			<path class="st8" d="M194.6,23.5c-0.1,0-0.1,0-0.2,0.1c-0.1,0.1-0.1,0.2-0.2,0.2c-0.1,0-0.1,0-0.2,0c-0.1,0-0.1,0-0.2,0
				c-0.1,0-0.1,0.1-0.2,0c0,0,0,0-0.1,0c0,0-0.1,0.1-0.1,0.1c0,0,0,0.1,0,0.1c0,0.1,0.1,0.1,0.1,0.2c0,0.1,0.1,0.1,0.1,0.1
				c0.1,0,0.2,0.1,0.2,0.2c0.1,0.1,0.1,0,0.2,0.1c0.1,0,0.1,0.1,0.2,0.1c0.1,0,0.1,0.1,0.2,0.1c0.1,0,0.2,0,0.2,0c0,0,0.1,0,0.1,0
				c0.1,0,0.2,0,0.3,0c0.1,0,0.2,0.1,0.3,0.1c0.1,0,0.1,0,0.2-0.2c0-0.1,0-0.2,0-0.2c0,0.1-0.1-0.2-0.1-0.2c0-0.1-0.1-0.1-0.1-0.2
				c-0.1-0.1-0.1-0.3-0.1-0.3c-0.1-0.1-0.2-0.1-0.3-0.1c-0.1,0-0.2,0-0.3,0C194.7,23.5,194.7,23.5,194.6,23.5"/>
			<polyline class="st8" points="187.6,17.3 187.6,17.3 187.6,17.3 			"/>
			<path class="st8" d="M187.6,17.2L187.6,17.2C187.6,17.2,187.6,17.2,187.6,17.2"/>
			<polyline class="st8" points="187.7,15.6 187.8,15.6 187.7,15.6 			"/>
			<path class="st8" d="M187.5,15.1c-0.1,0.3-0.2,0.6-0.2,1c0,0.2-0.1,0.4-0.1,0.5c0,0.2,0,0.3-0.1,0.4c0,0.1,0,0.1-0.1,0.2l0,0.1
				l0,0l0,0l0,0l0,0c0,0.1-0.1,0.1-0.1,0.2c0,0.1,0,0.2-0.1,0.2c0,0.1-0.1,0.1-0.1,0.2c0,0.1,0,0.2-0.1,0.2c0,0.1,0,0.2-0.1,0.2
				c0,0,0,0.1-0.1,0.1c0,0,0,0.1,0,0.2c0,0,0.1,0,0.1,0c0.1,0,0.1-0.1,0.2-0.1c0.1-0.1,0.1-0.1,0.1-0.2c0.1-0.2,0.2-0.3,0.3-0.5
				c0.1-0.1,0.1-0.1,0.1-0.2c0-0.1,0.1-0.1,0.1-0.2l0,0l0,0c0,0,0,0,0,0c0,0,0,0,0,0c0,0,0,0,0,0c0,0,0,0,0,0c0,0,0,0,0,0
				c0,0,0,0,0,0c0,0,0,0,0,0l0,0c0,0,0,0,0,0c0,0,0,0,0,0.1c0,0,0,0,0,0c0,0,0,0,0,0c0,0,0,0,0,0l0.2,0.3c0.1,0.1,0.1,0.2,0.1,0.3
				c0,0.1,0.1,0.2,0.1,0.3c0.1,0.1,0.1,0.2,0.3,0.3c0,0,0.1,0,0.2,0c-0.1,0,0-0.2,0-0.2c0-0.1,0-0.1,0-0.2c0-0.1,0.1-0.3,0-0.4
				c0-0.1,0-0.1-0.1-0.2c0-0.1-0.1-0.1-0.1-0.2c-0.1-0.1-0.1-0.2-0.2-0.3l-0.1-0.3c0-0.1-0.1-0.2-0.1-0.3c-0.1-0.2-0.2-0.4-0.3-0.7
				C187.7,15.5,187.6,15.3,187.5,15.1C187.5,15,187.5,15.1,187.5,15.1"/>
			<polyline class="st8" points="187.1,31.3 187.1,31.3 187.1,31.3 			"/>
			<polyline class="st8" points="187.1,31.6 187.1,31.6 187.1,31.6 			"/>
			<polyline class="st8" points="188.2,31.7 188.2,31.7 188.2,31.7 			"/>
			<path class="st8" d="M188.2,31.5c0-0.1,0-0.1-0.1-0.2c-0.1-0.1-0.2-0.1-0.2-0.2c0-0.1,0-0.1-0.1-0.2c0-0.1,0-0.1,0-0.2
				c0-0.1-0.1-0.1,0-0.2c0,0,0,0,0-0.1c0,0-0.1,0-0.1-0.1c0,0-0.1,0-0.1,0c-0.1,0-0.1,0.1-0.2,0.1c0,0-0.1,0.1-0.1,0.1
				c0,0.1-0.1,0.2-0.1,0.2c-0.1,0.1,0,0.1-0.1,0.2c0,0.1-0.1,0.1-0.1,0.2c0,0.1-0.1,0.1,0,0.2c0,0.1,0,0.1,0,0.2c0,0,0,0.1,0,0.1
				c0,0.1,0,0.2,0,0.3c0,0.1-0.1,0.2-0.1,0.3c0,0,0,0.1,0.3,0.2c0.1,0,0.2,0,0.2,0c-0.1,0,0.2-0.1,0.2-0.1c0.1,0,0.1-0.1,0.2-0.1
				c0.1-0.1,0.3-0.1,0.3-0.1c0.1-0.1,0-0.2,0-0.3c0-0.1,0-0.2,0-0.3C188.2,31.6,188.2,31.6,188.2,31.5"/>
			<path class="st8" d="M187.9,26.9L187.9,26.9C187.9,26.9,187.9,26.9,187.9,26.9"/>
			<path class="st8" d="M189.8,25.5L189.8,25.5C189.8,25.5,189.8,25.5,189.8,25.5"/>
			<polyline class="st8" points="189.5,24.7 189.5,24.7 189.5,24.7 			"/>
			<path class="st8" d="M188.9,25.3c-0.3,0.3-0.6,0.5-0.9,0.7c-0.3,0.3-0.7,0.5-1,0.7c-0.4,0.2-0.8,0.4-1.2,0.6c0,0-0.1,0.1-0.1,0.1
				c0,0-0.1,0.1-0.1,0.1c-0.1,0.1-0.2,0.1-0.3,0.2c-0.1,0.1-0.2,0.1-0.3,0.2c-0.1,0.1-0.2,0.1-0.3,0.2c-0.4,0.2-0.7,0.5-1.1,0.7
				c-0.1,0.1-0.2,0.1-0.3,0.2c-0.1,0-0.3,0.2-0.3,0.3c0,0,0.2,0,0.2,0c0.2,0,0.4-0.1,0.5-0.2c0.2-0.1,0.3-0.2,0.6-0.3
				c0.2-0.1,0.5-0.3,0.7-0.4c0.1-0.1,0.2-0.1,0.3-0.2c0.1-0.1,0.2-0.1,0.4-0.2c0.2-0.1,0.4-0.2,0.6-0.3c0.2-0.1,0.4-0.2,0.6-0.3
				c0.4-0.2,0.9-0.3,1.3-0.6c0.4-0.2,0.9-0.5,1.3-0.8c0.4-0.3,0.7-0.8,1-1.2c0-0.1,0.1-0.1,0.1-0.2l0.1-0.2l0.2-0.4
				c0.3-0.6,0.6-1.3,0.9-2c0.1-0.3,0.2-0.6,0.4-0.9c0.1-0.1,0.1-0.3,0.2-0.4c0.1-0.1,0.1-0.3,0.2-0.4c0.1-0.2,0.1-0.4,0.2-0.5
				c0.1-0.2,0.1-0.4,0.1-0.5c0-0.1-0.1-0.1-0.1-0.2c0.1,0-0.2,0.3-0.3,0.3c-0.1,0.1-0.1,0.1-0.2,0.2c0,0-0.1,0.1-0.1,0.1
				c0,0,0,0.1-0.1,0.1c-0.2,0.3-0.4,0.5-0.5,0.9c-0.2,0.3-0.3,0.7-0.4,1c0,0.1-0.1,0.2-0.1,0.3l-0.1,0.3c-0.1,0.2-0.1,0.3-0.2,0.5
				l-0.1,0.2l-0.1,0.2l-0.2,0.4l-0.2,0.4c0,0.1-0.1,0.1-0.1,0.2c0,0.1-0.1,0.1-0.1,0.2C189.4,24.8,189.2,25,188.9,25.3"/>
			<path class="st8" d="M185.3,23.9L185.3,23.9C185.3,24,185.3,24,185.3,23.9"/>
			<polyline class="st8" points="186.5,22.4 186.5,22.4 186.5,22.4 			"/>
			<path class="st8" d="M186.6,21.5L186.6,21.5C186.6,21.5,186.6,21.5,186.6,21.5"/>
			<path class="st8" d="M185.7,22c0,0-0.1,0.1-0.1,0.1c0,0-0.1,0.1-0.1,0.1c-0.1,0.1-0.2,0.2-0.2,0.3c-0.1,0.2-0.2,0.4-0.3,0.6
				c-0.2,0.4-0.2,0.8-0.4,1.2c-0.1,0.2-0.2,0.4-0.2,0.6c-0.1,0.2-0.2,0.4-0.2,0.6c-0.2,0.4-0.3,0.8-0.5,1.2
				c-0.1,0.2-0.2,0.4-0.2,0.6c-0.1,0.2-0.1,0.4-0.2,0.6c0,0.1-0.1,0.1-0.1,0.2l-0.1,0.2c0,0.1-0.1,0.3-0.1,0.4c0,0,0.1-0.1,0.1-0.2
				c0-0.1,0.1-0.2,0.2-0.2c0,0,0-0.1,0.1-0.1c0,0,0-0.1,0.1-0.1c0.1-0.2,0.2-0.3,0.3-0.5c0.2-0.5,0.4-0.9,0.7-1.4
				c0.1-0.2,0.2-0.4,0.3-0.6c0.1-0.2,0.2-0.4,0.3-0.6c0.1-0.2,0.2-0.4,0.3-0.6c0.1-0.2,0.2-0.4,0.3-0.6c0.1-0.2,0.2-0.4,0.3-0.6
				c0.1-0.2,0.2-0.4,0.4-0.5c0.3-0.3,0.7-0.5,1.1-0.7c0.3-0.1,0.5-0.2,0.8-0.3c0.6-0.3,1.3-0.6,1.9-0.9c0.6-0.3,1.2-0.5,1.7-0.8
				c0.1-0.1,0.3-0.2,0.5-0.3c0.2-0.1,0.3-0.3,0.4-0.4c0-0.1,0-0.1,0-0.2c0,0.1-0.4,0.1-0.4,0.1c-0.1,0-0.2,0-0.3,0.1
				c-0.1,0-0.2,0.1-0.3,0.1c-0.3,0.1-0.6,0.2-1,0.3c-0.7,0.3-1.3,0.6-2,1l-0.9,0.4l-0.2,0.1c-0.1,0-0.1,0.1-0.2,0.1l-0.4,0.2
				C186.5,21.6,186.1,21.7,185.7,22"/>
			<path class="st8" d="M187.9,14.3L187.9,14.3C187.9,14.3,187.9,14.3,187.9,14.3"/>
			<path class="st8" d="M195.9,18.6L195.9,18.6C195.8,18.7,195.9,18.6,195.9,18.6"/>
			<path class="st8" d="M199.7,19.2C199.7,19.2,199.7,19.2,199.7,19.2C199.8,19.2,199.8,19.2,199.7,19.2
				C199.8,19.2,199.7,19.2,199.7,19.2"/>
			<path class="st8" d="M197,14.9l-0.3-0.3l-0.2-0.2l-0.2-0.1L196,14l-0.3-0.3l-0.2-0.1l-0.2-0.1l-0.4-0.2c-0.1-0.1-0.2-0.1-0.4-0.2
				l-0.2-0.1l-0.2-0.1c-0.1-0.1-0.3-0.1-0.4-0.2l-0.4-0.2c-0.1,0-0.1-0.1-0.2-0.1l-0.2-0.1c-0.1-0.1-0.3-0.1-0.4-0.1
				c-0.3-0.1-0.5-0.2-0.8-0.2c-0.1,0-0.3-0.1-0.4-0.1c-0.1,0-0.3-0.1-0.4-0.1c-0.6-0.1-1.2-0.2-1.7-0.2l-0.2,0c-0.1,0-0.1,0-0.2,0
				c-0.1,0-0.3,0-0.4,0c-0.3,0-0.6,0-0.9,0.1l-0.2,0l-0.1,0l-0.1,0c-0.1,0-0.3,0-0.4,0.1c-0.1,0-0.3,0.1-0.4,0.1l-0.2,0
				c-0.1,0-0.1,0-0.2,0c-0.1,0-0.3,0.1-0.4,0.1c-0.1,0-0.3,0.1-0.4,0.1c-0.1,0-0.3,0.1-0.4,0.1l-0.2,0.1l-0.1,0l-0.1,0l-0.4,0.1
				c-0.1,0.1-0.3,0.1-0.4,0.2c-0.1,0-0.1,0.1-0.2,0.1l-0.2,0.1l-0.2,0.1l-0.1,0c0,0-0.1,0-0.1,0l-0.4,0.2c-0.1,0.1-0.3,0.1-0.4,0.2
				c-0.1,0-0.1,0.1-0.2,0.1l-0.2,0.1l-0.2,0.1c-0.1,0-0.1,0.1-0.2,0.1l-0.4,0.3c-0.1,0-0.1,0.1-0.2,0.1l-0.2,0.1l-0.2,0.1
				c-0.1,0-0.1,0.1-0.2,0.1l-0.3,0.3l-0.3,0.3c-0.1,0.1-0.1,0.1-0.2,0.2l-0.1,0.2l-0.1,0.2c0,0.1-0.1,0.1-0.1,0.2l-0.3,0.4
				c0,0.1-0.1,0.1-0.1,0.2l-0.1,0.2l-0.1,0.2c0,0.1-0.1,0.1-0.1,0.2c-0.1,0.1-0.2,0.2-0.2,0.4c-0.1,0.1-0.1,0.3-0.2,0.4
				c-0.1,0.1-0.1,0.3-0.2,0.4c-0.1,0.1-0.1,0.3-0.2,0.4l-0.2,0.4l-0.2,0.4c-0.5,1.1-0.8,2.2-0.9,3.4c0,0.1,0,0.3,0,0.4
				c0,0.1,0,0.3,0,0.4l0,0.4c0,0.1,0,0.3,0,0.4c0,0.6,0.1,1.1,0.2,1.7c0.1,0.6,0.3,1.1,0.5,1.6l0.1,0.2c0,0.1,0.1,0.1,0.1,0.2
				c0.1,0.1,0.1,0.3,0.1,0.4c0.1,0.3,0.2,0.5,0.3,0.8c0.1,0.1,0.1,0.3,0.2,0.4c0.1,0.1,0.1,0.3,0.2,0.4l0.2,0.4l0.1,0.1l0.1,0.1
				l0.1,0.2c0.1,0.1,0.4,0.5,0.7,0.8c0.3,0.3,0.7,0.6,0.8,0.6c0.1,0,0-0.1-0.1-0.4c-0.1-0.2-0.2-0.5-0.3-0.6
				c-0.2-0.3-0.4-0.8-0.6-1.2c0-0.1-0.1-0.2-0.1-0.3c0-0.1-0.1-0.2-0.1-0.3c-0.1-0.2-0.1-0.4-0.2-0.5c0-0.1-0.1-0.3-0.1-0.4
				c0,0,0-0.1,0-0.1c0,0,0-0.1,0-0.1c0-0.1,0-0.1-0.1-0.2c0-0.1,0-0.1,0-0.2c0,0,0-0.1,0-0.1c0,0,0-0.1,0-0.1c0-0.1-0.1-0.2-0.1-0.3
				c0-0.1-0.1-0.2-0.1-0.3c0-0.1-0.1-0.2-0.1-0.3c0-0.2-0.1-0.5-0.1-0.8c-0.1-0.6-0.2-1.2-0.2-1.8c0-0.6,0.1-1.2,0.2-1.8
				c0.1-0.6,0.3-1.1,0.5-1.7c0.2-0.5,0.5-1.1,0.8-1.5c0.3-0.4,0.5-0.8,0.8-1.2c0.1-0.1,0.1-0.2,0.2-0.3c0,0,0.1-0.1,0.1-0.1l0.1-0.1
				c0.1-0.2,0.3-0.4,0.5-0.5c0.1-0.1,0.2-0.2,0.2-0.3l0.1-0.1c0,0,0.1-0.1,0.1-0.1l0.3-0.2c0.1-0.1,0.2-0.2,0.3-0.2l0.1-0.1l0.1-0.1
				c0.1-0.1,0.2-0.1,0.3-0.2c0.1-0.1,0.2-0.1,0.3-0.2c0,0,0.1-0.1,0.1-0.1l0.2-0.1l0.2-0.1c0.1,0,0.1-0.1,0.2-0.1l0.3-0.2
				c0.1-0.1,0.2-0.1,0.3-0.1c0.1,0,0.1,0,0.2-0.1l0.2-0.1l0.2-0.1l0.1,0l0.1,0l0.4-0.1c0.1,0,0.2-0.1,0.4-0.1c0.1,0,0.2-0.1,0.4-0.1
				c0.2-0.1,0.5-0.1,0.7-0.1l0.4,0l0.1,0l0.1,0l0.2,0c0.5,0,1-0.1,1.5,0c0.5,0,1,0.1,1.5,0.2c0.5,0.1,1,0.3,1.5,0.5
				c0.5,0.2,0.9,0.4,1.4,0.7c0.4,0.3,0.9,0.5,1.3,0.9c0.1,0.1,0.2,0.2,0.3,0.2c0.1,0.1,0.2,0.2,0.3,0.2l0.3,0.3l0.3,0.3
				c0.1,0.1,0.2,0.2,0.3,0.3l0.1,0.1c0,0,0.1,0.1,0.1,0.1c0.1,0.1,0.2,0.2,0.2,0.3l0.2,0.3c0.3,0.4,0.5,0.9,0.8,1.3
				c0.2,0.5,0.4,0.9,0.5,1.4c0.3,1.1,0.4,2.3,0.3,3.5c-0.1,0.7-0.2,1.5-0.5,2.2l0,0.1l0,0.1l-0.1,0.3c0,0,0,0.1-0.1,0.1l-0.1,0.1
				c0,0.1-0.1,0.2-0.1,0.3c-0.2,0.3-0.3,0.7-0.5,1c-0.4,0.6-0.8,1.2-1.4,1.8c-0.5,0.5-1.1,1-1.7,1.4c-0.6,0.4-1.2,0.6-1.8,0.8
				c-0.6,0.2-1.3,0.3-1.9,0.4c-0.7,0.1-1.3,0-2,0c-0.6-0.1-1.3-0.2-1.9-0.3c0,0-0.1,0-0.1,0c0,0-0.1,0-0.1,0c-0.1,0-0.2,0-0.3-0.1
				c0,0-0.1,0-0.1,0c0,0-0.1,0-0.1,0c0,0-0.1,0-0.1,0c0,0-0.1,0-0.1,0c-0.2-0.1-0.4-0.1-0.6-0.2c-0.1,0-0.2-0.1-0.3-0.1
				c-0.1,0-0.2-0.1-0.3-0.1c-0.8-0.3-1.5-0.7-2.2-0.8c-0.3-0.1-0.6,0-0.8,0.2c0.1-0.1,0.2,0,0.3,0.1c0.1,0.1,0.1,0.2,0.2,0.2
				c0.1,0.1,0.1,0.2,0.2,0.3c0.1,0.1,0.1,0.2,0.2,0.3c0.1,0.1,0.1,0.2,0.2,0.3c0,0,0,0.1,0.1,0.1c0,0,0,0.1,0.1,0.1
				c0,0.1,0.1,0.1,0.1,0.1c0.1,0.1,0.1,0.2,0.2,0.2c0.1,0.1,0.2,0.2,0.2,0.2c0,0,0.1,0.1,0.1,0.1c0,0,0.1,0.1,0.1,0.1
				c0.1,0.1,0.2,0.1,0.3,0.2l0.1,0.1c0,0,0.1,0.1,0.1,0.1l0.3,0.2l0.1,0.1l0.1,0L183,35c0.1,0.1,0.2,0.1,0.3,0.2
				c0.7,0.5,1.5,0.9,2.3,1.2c0.8,0.3,1.7,0.5,2.7,0.5c1,0,2.1-0.1,3.1-0.4c1-0.3,2-0.7,2.9-1.2c0.9-0.5,1.7-1.2,2.5-1.9
				c0.1-0.1,0.2-0.2,0.3-0.3l0.3-0.3l0.3-0.3c0.1-0.1,0.2-0.2,0.3-0.3c0.2-0.2,0.3-0.4,0.5-0.6c0.1-0.1,0.2-0.2,0.2-0.3l0.2-0.3
				c0.9-1.5,1.5-3.3,1.8-5c0.2-1.8,0.1-3.6-0.4-5.3c0-0.1-0.1-0.3-0.1-0.4c0-0.1-0.1-0.3-0.1-0.4c0-0.1-0.1-0.3-0.1-0.4
				c0-0.1,0-0.1-0.1-0.2l-0.1-0.2c-0.1-0.1-0.1-0.3-0.2-0.4c-0.1-0.1-0.1-0.2-0.2-0.4l-0.1-0.2l-0.1-0.2c-0.1-0.1-0.1-0.2-0.2-0.4
				C198.5,16.6,197.8,15.6,197,14.9"/>
			<path class="st9" d="M192.1,19.5c-0.7,0.1-1.3,0.5-1.9,0.8c-0.5,0.3-1,0.4-1.5,0.6c-0.6,0.2-1.2,0.5-1.7,0.9
				c-0.3,0.2-0.6,0.5-0.9,0.7c-0.3,0.2-0.5,0.5-0.6,0.8c-0.2,0.3-0.3,0.7-0.5,1c-0.2,0.3-0.1,0.6-0.3,0.9c-0.2,0.3-0.2,0.5-0.3,0.8
				c-0.2,0.3-0.3,0.7-0.5,1.1c-0.2,0.3-0.1,0.3-0.7,1.5c-0.1,0.2,0.6,0.3,0.8,0.2c0.3-0.1,0.7-0.3,1-0.5c0.3-0.2,0.5-0.5,0.9-0.6
				c0.3-0.1,0.7-0.2,1-0.4c0.3-0.2,0.6-0.4,0.9-0.7c0.3-0.2,0.6-0.4,0.9-0.6c1.1-0.7,1.4-2.1,2-3.2c0.3-0.5,0.5-1,0.7-1.4
				c0.3-0.5,0.9-1.1,1-1.7"/>
			<path class="st8" d="M185.9,27.4L185.9,27.4C185.9,27.4,185.9,27.4,185.9,27.4"/>
			<path class="st8" d="M183.6,28.1L183.6,28.1C183.6,28.1,183.6,28.1,183.6,28.1"/>
			<path class="st8" d="M183.6,27.1L183.6,27.1C183.6,27.1,183.6,27.1,183.6,27.1"/>
			<path class="st8" d="M182.8,28.8c0,0,0,0.1,0,0.1c0,0,0.1,0.1,0.1,0.1c0,0,0.1,0.1,0.1,0.1c0,0,0,0,0.1,0c0,0,0,0,0,0l0,0
				c0.1,0,0.2,0,0.3,0c0.1,0,0.1,0,0.2,0c0.1,0,0.1,0,0.2,0L184,29c0,0,0.1,0,0.1-0.1c0.2-0.1,0.4-0.2,0.5-0.3c0,0,0.1-0.1,0.1-0.1
				c0,0,0.1-0.1,0.1-0.1c0.1-0.1,0.1-0.1,0.2-0.2c0.1-0.1,0.3-0.2,0.4-0.3c0,0,0.1,0,0.1-0.1c0,0,0.1,0,0.1-0.1l0.3-0.1
				c0.2-0.1,0.4-0.1,0.6-0.2c0.2-0.1,0.4-0.2,0.5-0.4c0.1-0.1,0.2-0.1,0.2-0.2l0.1-0.1l0.1-0.1l0.1,0l0.1-0.1c0,0,0.1-0.1,0.1-0.1
				l0.1-0.1l0.1-0.1l0.3-0.2c0,0,0.1-0.1,0.1-0.1c0,0,0.1-0.1,0.1-0.1c0.1-0.1,0.2-0.1,0.2-0.2c0.1-0.1,0.1-0.2,0.2-0.3
				c0.1-0.2,0.2-0.4,0.3-0.6c0.1-0.2,0.2-0.4,0.3-0.6c0.2-0.4,0.3-0.8,0.5-1.2c0-0.1,0.1-0.2,0.1-0.3l0.1-0.3c0,0,0-0.1,0.1-0.1
				l0.1-0.1c0-0.1,0.1-0.2,0.1-0.3l0.1-0.3l0.1-0.3c0-0.1,0.1-0.2,0.1-0.3c0.1-0.1,0.1-0.2,0.2-0.2c0.1-0.2,0.3-0.3,0.4-0.5
				c0,0,0.1-0.2,0.2-0.4c0,0,0-0.1,0-0.1c0,0,0-0.1,0-0.1c0,0,0-0.1,0-0.1c0,0,0,0,0-0.1c0,0,0,0,0,0.1c0,0.1-0.1,0.2-0.1,0.2
				c-0.1,0.3-0.4,0.6-0.6,0.8c-0.1,0.2-0.3,0.3-0.3,0.5c0,0.1-0.1,0.2-0.1,0.2c0,0.1-0.1,0.2-0.1,0.3c-0.1,0.1-0.1,0.2-0.2,0.3
				l-0.1,0.2l0,0.1l0,0.1c-0.1,0.1-0.1,0.2-0.2,0.3l-0.1,0.2l-0.1,0.2c-0.2,0.4-0.4,0.9-0.6,1.3c-0.2,0.3-0.4,0.7-0.6,1
				c-0.1,0.1-0.3,0.3-0.4,0.4c0,0-0.1,0.1-0.1,0.1l-0.1,0.1c-0.1,0.1-0.2,0.1-0.3,0.2c-0.1,0.1-0.2,0.1-0.3,0.2l-0.1,0.1
				c0,0-0.1,0.1-0.1,0.1c-0.2,0.1-0.3,0.3-0.5,0.4c-0.2,0.1-0.3,0.2-0.5,0.3c-0.2,0.1-0.4,0.1-0.6,0.2l-0.1,0c0,0-0.1,0-0.1,0
				c-0.1,0-0.1,0-0.2,0.1l-0.1,0c0,0-0.1,0-0.1,0c-0.1,0-0.1,0.1-0.2,0.1c-0.1,0.1-0.2,0.1-0.3,0.2c-0.1,0.1-0.2,0.1-0.3,0.2
				c-0.2,0.1-0.4,0.2-0.6,0.3c-0.1,0-0.1,0-0.2,0.1l-0.1,0l0,0c0,0,0,0,0,0c-0.1,0-0.2,0-0.3,0c0,0-0.1,0-0.1,0c0,0,0,0-0.1,0
				c0,0,0,0,0,0c0,0,0,0,0,0c0,0,0,0,0,0l0.2-0.4c0.1-0.2,0.2-0.3,0.2-0.5c0-0.1,0.1-0.2,0.1-0.3l0.1-0.2c0.1-0.2,0.1-0.3,0.2-0.5
				c0.1-0.1,0.1-0.2,0.2-0.4c0,0,0-0.1,0-0.1l0-0.1l0.1-0.2c0.1-0.1,0.1-0.3,0.2-0.4c0-0.1,0.1-0.2,0.1-0.3l0.1-0.1
				c0,0,0-0.1,0.1-0.1c0,0,0-0.1,0-0.1l0-0.1c0,0,0-0.1,0-0.1l0-0.1l0-0.1c0,0,0-0.1,0-0.1l0-0.1l0-0.1c0.2-0.3,0.3-0.6,0.4-0.9
				c0.2-0.3,0.3-0.6,0.6-0.8l0,0l0,0l0.1-0.1l0.2-0.2l0.4-0.3c0.1,0,0.1-0.1,0.2-0.1c0.1,0,0.1-0.1,0.2-0.1c0.1,0,0.1-0.1,0.2-0.1
				l0.2-0.1c0.3-0.1,0.5-0.3,0.8-0.4c0.1,0,0.1-0.1,0.2-0.1c0.1,0,0.1,0,0.2-0.1c0.1,0,0.3-0.1,0.4-0.1c0.3-0.1,0.6-0.2,0.9-0.4
				c0,0,0.1,0,0.1-0.1c0,0,0,0,0.1,0c0,0,0,0,0.1,0c0.1,0,0.2-0.1,0.2-0.1c0.2-0.1,0.3-0.2,0.5-0.3c0.3-0.2,0.6-0.3,0.9-0.4
				c0.1,0,0.2-0.1,0.2-0.1c0,0,0,0-0.1,0c-0.1,0-0.2,0-0.2,0c-0.2,0-0.4,0.1-0.4,0.1c-0.3,0.1-0.6,0.3-0.9,0.4
				c-0.1,0.1-0.3,0.1-0.4,0.2c-0.1,0-0.1,0.1-0.2,0.1c-0.1,0-0.1,0.1-0.2,0.1c-0.3,0.1-0.6,0.2-0.9,0.3c-0.3,0.1-0.7,0.2-1,0.4
				c-0.1,0-0.2,0.1-0.2,0.1c-0.1,0-0.2,0.1-0.2,0.1l-0.1,0.1c0,0-0.1,0-0.1,0.1c-0.1,0.1-0.2,0.1-0.2,0.2l-0.4,0.3l-0.2,0.2
				l-0.1,0.1l-0.1,0c0,0,0,0-0.1,0c-0.2,0.1-0.3,0.3-0.4,0.4c-0.1,0.2-0.2,0.3-0.3,0.5l-0.1,0.2c0,0.1-0.1,0.1-0.1,0.2
				c0,0.1-0.1,0.1-0.1,0.2l0,0.1l0,0.1l-0.1,0.2c0,0,0,0.1-0.1,0.1c0,0,0,0.1,0,0.1c0,0.2-0.1,0.3-0.1,0.4l0,0l0,0l0,0.1
				c0,0.1-0.1,0.2-0.1,0.2c-0.1,0.2-0.1,0.3-0.2,0.4c0,0,0,0.1,0,0.1l0,0.1l-0.1,0.2c-0.1,0.1-0.1,0.3-0.2,0.4
				c-0.1,0.2-0.1,0.3-0.2,0.5c0,0.1-0.1,0.2-0.1,0.2c0,0.1-0.1,0.2-0.1,0.2c-0.1,0.2-0.2,0.3-0.2,0.5c-0.1,0.2-0.2,0.3-0.3,0.5
				C182.8,28.6,182.8,28.6,182.8,28.8C182.8,28.7,182.8,28.7,182.8,28.8"/>
		</g>
		<g class="st7">
			<defs>
				<rect id="SVGID_5_" x="175.5" y="11.3" width="25.4" height="25.7"/>
			</defs>
			<clipPath id="SVGID_6_">
				<use xlink:href="#SVGID_5_"  style="overflow:visible;"/>
			</clipPath>
		</g>
	</g>
</g>
</svg>
