<?xml version="1.0" standalone="yes"?>

<svg version="1.1" viewBox="0.0 0.0 1152.0 864.0" fill="none" stroke="none" stroke-linecap="square" stroke-miterlimit="10" xmlns="http://www.w3.org/2000/svg" xmlns:xlink="http://www.w3.org/1999/xlink"><clipPath id="p.0"><path d="m0 0l1152.0 0l0 864.0l-1152.0 0l0 -864.0z" clip-rule="nonzero"></path></clipPath><g clip-path="url(#p.0)"><path fill="#000000" fill-opacity="0.0" d="m0 0l1152.0 0l0 864.0l-1152.0 0z" fill-rule="nonzero"></path><path fill="#ffffff" d="m673.61346 243.48265l0 0c0 -24.048782 19.495422 -43.544174 43.54419 -43.544174l174.17151 0l0 0c11.548584 0 22.624268 4.587677 30.790344 12.753784c8.166138 8.166122 12.753784 19.24176 12.753784 30.79039l0 301.825c0 24.048767 -19.495361 43.54419 -43.54413 43.54419l-174.17151 0c-24.048767 0 -43.54419 -19.495422 -43.54419 -43.54419z" fill-rule="nonzero"></path><path stroke="#000000" stroke-width="24.0" stroke-linejoin="round" stroke-linecap="butt" d="m673.61346 243.48265l0 0c0 -24.048782 19.495422 -43.544174 43.54419 -43.544174l174.17151 0l0 0c11.548584 0 22.624268 4.587677 30.790344 12.753784c8.166138 8.166122 12.753784 19.24176 12.753784 30.79039l0 301.825c0 24.048767 -19.495361 43.54419 -43.54413 43.54419l-174.17151 0c-24.048767 0 -43.54419 -19.495422 -43.54419 -43.54419z" fill-rule="nonzero"></path><path fill="#ffffff" d="m720.85754 253.98553l0 0c0 -24.048782 19.495422 -43.544174 43.54419 -43.544174l174.17151 0l0 0c11.548584 0 22.624268 4.587677 30.790344 12.753799c8.166138 8.166122 12.753784 19.241745 12.753784 30.790375l0 301.825c0 24.048828 -19.495361 43.54419 -43.54413 43.54419l-174.17151 0c-24.048767 0 -43.54419 -19.495361 -43.54419 -43.54419z" fill-rule="nonzero"></path><path stroke="#000000" stroke-width="24.0" stroke-linejoin="round" stroke-linecap="butt" d="m720.85754 253.98553l0 0c0 -24.048782 19.495422 -43.544174 43.54419 -43.544174l174.17151 0l0 0c11.548584 0 22.624268 4.587677 30.790344 12.753799c8.166138 8.166122 12.753784 19.241745 12.753784 30.790375l0 301.825c0 24.048828 -19.495361 43.54419 -43.54413 43.54419l-174.17151 0c-24.048767 0 -43.54419 -19.495361 -43.54419 -43.54419z" fill-rule="nonzero"></path><path fill="#ffffff" d="m597.9033 513.1584l-82.6142 -82.6142l82.6142 -82.61417l0 56.40152l229.13385 0l0 52.425293l-229.13385 0z" fill-rule="nonzero"></path><path stroke="#000000" stroke-width="16.0" stroke-linejoin="round" stroke-linecap="butt" d="m597.9033 513.1584l-82.6142 -82.6142l82.6142 -82.61417l0 56.40152l229.13385 0l0 52.425293l-229.13385 0z" fill-rule="nonzero"></path><path fill="#ffffff" d="m169.8819 227.75165l0 0c0 -24.048782 19.495392 -43.544174 43.544174 -43.544174l174.1715 0l0 0c11.548645 0 22.624268 4.587677 30.790375 12.753784c8.166138 8.166122 12.753815 19.24176 12.753815 30.79039l0 301.825c0 24.048828 -19.495392 43.54419 -43.54419 43.54419l-174.1715 0c-24.048782 0 -43.544174 -19.495361 -43.544174 -43.54419z" fill-rule="nonzero"></path><path stroke="#000000" stroke-width="24.0" stroke-linejoin="round" stroke-linecap="butt" d="m169.8819 227.75165l0 0c0 -24.048782 19.495392 -43.544174 43.544174 -43.544174l174.1715 0l0 0c11.548645 0 22.624268 4.587677 30.790375 12.753784c8.166138 8.166122 12.753815 19.24176 12.753815 30.79039l0 301.825c0 24.048828 -19.495392 43.54419 -43.54419 43.54419l-174.1715 0c-24.048782 0 -43.544174 -19.495361 -43.544174 -43.54419z" fill-rule="nonzero"></path><path fill="#ffffff" d="m222.07529 248.73755l0 0c0 -24.048782 19.495392 -43.54419 43.54419 -43.54419l174.17148 0l0 0c11.5486145 0 22.624268 4.587677 30.790375 12.753799c8.166107 8.166122 12.753784 19.241745 12.753784 30.79039l0 301.825c0 24.048828 -19.495392 43.54419 -43.54416 43.54419l-174.17148 0c-24.048798 0 -43.54419 -19.495361 -43.54419 -43.54419z" fill-rule="nonzero"></path><path stroke="#000000" stroke-width="24.0" stroke-linejoin="round" stroke-linecap="butt" d="m222.07529 248.73755l0 0c0 -24.048782 19.495392 -43.54419 43.54419 -43.54419l174.17148 0l0 0c11.5486145 0 22.624268 4.587677 30.790375 12.753799c8.166107 8.166122 12.753784 19.241745 12.753784 30.79039l0 301.825c0 24.048828 -19.495392 43.54419 -43.54416 43.54419l-174.17148 0c-24.048798 0 -43.54419 -19.495361 -43.54419 -43.54419z" fill-rule="nonzero"></path><path fill="#ffffff" d="m274.26862 279.62167l0 0c0 -24.048767 19.495392 -43.54416 43.54419 -43.54416l174.17148 0l0 0c11.548645 0 22.624237 4.587677 30.790375 12.753784c8.166138 8.166138 12.753784 19.24176 12.753784 30.790375l0 301.82504c0 24.048767 -19.495361 43.54419 -43.54416 43.54419l-174.17148 0c-24.048798 0 -43.54419 -19.495422 -43.54419 -43.54419z" fill-rule="nonzero"></path><path stroke="#000000" stroke-width="24.0" stroke-linejoin="round" stroke-linecap="butt" d="m274.26862 279.62167l0 0c0 -24.048767 19.495392 -43.54416 43.54419 -43.54416l174.17148 0l0 0c11.548645 0 22.624237 4.587677 30.790375 12.753784c8.166138 8.166138 12.753784 19.24176 12.753784 30.790375l0 301.82504c0 24.048767 -19.495361 43.54419 -43.54416 43.54419l-174.17148 0c-24.048798 0 -43.54419 -19.495422 -43.54419 -43.54419z" fill-rule="nonzero"></path></g></svg>

