<?xml version="1.0" standalone="yes"?>

<svg version="1.1" viewBox="0.0 0.0 1152.0 864.0" fill="none" stroke="none" stroke-linecap="square" stroke-miterlimit="10" xmlns="http://www.w3.org/2000/svg" xmlns:xlink="http://www.w3.org/1999/xlink"><clipPath id="p.0"><path d="m0 0l1152.0 0l0 864.0l-1152.0 0l0 -864.0z" clip-rule="nonzero"></path></clipPath><g clip-path="url(#p.0)"><path fill="#000000" fill-opacity="0.0" d="m0 0l1152.0 0l0 864.0l-1152.0 0z" fill-rule="nonzero"></path><path fill="#ffffff" d="m466.2633 110.94848l0 0c-6.2179565 -21.597565 6.3471985 -43.794624 28.065033 -49.578506l157.28976 -41.889343l0 0c10.42926 -2.7775192 21.617554 -1.321209 31.103577 4.048559c9.486023 5.369768 16.492676 14.213131 19.478638 24.584652l75.876526 263.55206c6.2179565 21.597565 -6.347168 43.794617 -28.065002 49.57852l-157.2898 41.889343c-21.717834 5.7838745 -44.364258 -7.0356445 -50.582153 -28.63321z" fill-rule="nonzero"></path><path stroke="#000000" stroke-width="24.0" stroke-linejoin="round" stroke-linecap="butt" d="m466.2633 110.94848l0 0c-6.2179565 -21.597565 6.3471985 -43.794624 28.065033 -49.578506l157.28976 -41.889343l0 0c10.42926 -2.7775192 21.617554 -1.321209 31.103577 4.048559c9.486023 5.369768 16.492676 14.213131 19.478638 24.584652l75.876526 263.55206c6.2179565 21.597565 -6.347168 43.794617 -28.065002 49.57852l-157.2898 41.889343c-21.717834 5.7838745 -44.364258 -7.0356445 -50.582153 -28.63321z" fill-rule="nonzero"></path><path fill="#ffffff" d="m579.4776 74.76114l0 0c0 -22.552803 18.282715 -40.83546 40.83551 -40.83546l163.33691 0l0 0c10.830261 0 21.216919 4.3022957 28.875061 11.96043c7.658142 7.6581345 11.960388 18.044792 11.960388 28.87503l0 273.00626c0 22.552795 -18.282654 40.83545 -40.83545 40.83545l-163.33691 0c-22.552795 0 -40.83551 -18.282654 -40.83551 -40.83545z" fill-rule="nonzero"></path><path stroke="#000000" stroke-width="24.0" stroke-linejoin="round" stroke-linecap="butt" d="m579.4776 74.76114l0 0c0 -22.552803 18.282715 -40.83546 40.83551 -40.83546l163.33691 0l0 0c10.830261 0 21.216919 4.3022957 28.875061 11.96043c7.658142 7.6581345 11.960388 18.044792 11.960388 28.87503l0 273.00626c0 22.552795 -18.282654 40.83545 -40.83545 40.83545l-163.33691 0c-22.552795 0 -40.83551 -18.282654 -40.83551 -40.83545z" fill-rule="nonzero"></path><path fill="#ffffff" d="m723.9132 71.13998l0 0c8.965576 -20.552109 33.08734 -30.404186 53.87738 -22.00523l150.57068 60.828785l0 0c9.983765 4.033325 17.848328 11.8220825 21.863525 21.652832c4.0151367 9.830765 3.8521118 20.89824 -0.4533081 30.7677l-110.17847 252.56638c-8.965576 20.552094 -33.08728 30.404175 -53.87738 22.005219l-150.57068 -60.828796c-20.7901 -8.398956 -30.375793 -31.868408 -21.410217 -52.420532z" fill-rule="nonzero"></path><path stroke="#000000" stroke-width="24.0" stroke-linejoin="round" stroke-linecap="butt" d="m723.9132 71.13998l0 0c8.965576 -20.552109 33.08734 -30.404186 53.87738 -22.00523l150.57068 60.828785l0 0c9.983765 4.033325 17.848328 11.8220825 21.863525 21.652832c4.0151367 9.830765 3.8521118 20.89824 -0.4533081 30.7677l-110.17847 252.56638c-8.965576 20.552094 -33.08728 30.404175 -53.87738 22.005219l-150.57068 -60.828796c-20.7901 -8.398956 -30.375793 -31.868408 -21.410217 -52.420532z" fill-rule="nonzero"></path><path fill="#ffffff" d="m162.9895 482.85986l0 0c0 -22.552795 18.282654 -40.83545 40.835464 -40.83545l163.33696 0l0 0c10.830231 0 21.216888 4.3022766 28.87503 11.960419c7.6581116 7.658142 11.960419 18.0448 11.960419 28.87503l0 273.00623c0 22.552795 -18.282654 40.83551 -40.83545 40.83551l-163.33696 0c-22.55281 0 -40.835464 -18.282715 -40.835464 -40.83551z" fill-rule="nonzero"></path><path stroke="#000000" stroke-width="24.0" stroke-linejoin="round" stroke-linecap="butt" d="m162.9895 482.85986l0 0c0 -22.552795 18.282654 -40.83545 40.835464 -40.83545l163.33696 0l0 0c10.830231 0 21.216888 4.3022766 28.87503 11.960419c7.6581116 7.658142 11.960419 18.0448 11.960419 28.87503l0 273.00623c0 22.552795 -18.282654 40.83551 -40.83545 40.83551l-163.33696 0c-22.55281 0 -40.835464 -18.282715 -40.835464 -40.83551z" fill-rule="nonzero"></path><path fill="#ffffff" d="m211.9348 501.998l0 0c0 -22.552795 18.282654 -40.83548 40.835464 -40.83548l163.33694 0l0 0c10.830231 0 21.216888 4.302307 28.87503 11.960449c7.658142 7.658142 11.960419 18.0448 11.960419 28.87503l0 273.00623c0 22.552795 -18.282654 40.83545 -40.83545 40.83545l-163.33694 0c-22.55281 0 -40.835464 -18.282654 -40.835464 -40.83545z" fill-rule="nonzero"></path><path stroke="#000000" stroke-width="24.0" stroke-linejoin="round" stroke-linecap="butt" d="m211.9348 501.998l0 0c0 -22.552795 18.282654 -40.83548 40.835464 -40.83548l163.33694 0l0 0c10.830231 0 21.216888 4.302307 28.87503 11.960449c7.658142 7.658142 11.960419 18.0448 11.960419 28.87503l0 273.00623c0 22.552795 -18.282654 40.83545 -40.83545 40.83545l-163.33694 0c-22.55281 0 -40.835464 -18.282654 -40.835464 -40.83545z" fill-rule="nonzero"></path><path fill="#ffffff" d="m260.8801 530.16296l0 0c0 -22.552795 18.282654 -40.83545 40.83545 -40.83545l163.33694 0l0 0c10.830261 0 21.216919 4.302307 28.87503 11.960419c7.658142 7.658142 11.960449 18.04483 11.960449 28.87503l0 273.00623c0 22.552856 -18.282654 40.83551 -40.83548 40.83551l-163.33694 0c-22.552795 0 -40.83545 -18.282654 -40.83545 -40.83551z" fill-rule="nonzero"></path><path stroke="#000000" stroke-width="24.0" stroke-linejoin="round" stroke-linecap="butt" d="m260.8801 530.16296l0 0c0 -22.552795 18.282654 -40.83545 40.83545 -40.83545l163.33694 0l0 0c10.830261 0 21.216919 4.302307 28.87503 11.960419c7.658142 7.658142 11.960449 18.04483 11.960449 28.87503l0 273.00623c0 22.552856 -18.282654 40.83551 -40.83548 40.83551l-163.33694 0c-22.552795 0 -40.83545 -18.282654 -40.83545 -40.83551z" fill-rule="nonzero"></path><path fill="#ffffff" d="m390.5092 731.1366l80.302734 0l0 0c114.32852 0 207.01004 -92.68158 207.01004 -207.01007l0 -5.706482l42.16754 0l-65.16785 -70.90549l-65.16785 70.90549l42.16754 0l0 5.706482l0 0c0 88.923035 -72.086365 161.0094 -161.00943 161.0094l-80.302734 0z" fill-rule="nonzero"></path><path stroke="#000000" stroke-width="12.0" stroke-linejoin="round" stroke-linecap="butt" d="m390.5092 731.1366l80.302734 0l0 0c114.32852 0 207.01004 -92.68158 207.01004 -207.01007l0 -5.706482l42.16754 0l-65.16785 -70.90549l-65.16785 70.90549l42.16754 0l0 5.706482l0 0c0 88.923035 -72.086365 161.0094 -161.00943 161.0094l-80.302734 0z" fill-rule="nonzero"></path></g></svg>

