<?xml version="1.0" standalone="yes"?>

<svg version="1.1" viewBox="0.0 0.0 1152.0 864.0" fill="none" stroke="none" stroke-linecap="square" stroke-miterlimit="10" xmlns="http://www.w3.org/2000/svg" xmlns:xlink="http://www.w3.org/1999/xlink"><clipPath id="p.0"><path d="m0 0l1152.0 0l0 864.0l-1152.0 0l0 -864.0z" clip-rule="nonzero"></path></clipPath><g clip-path="url(#p.0)"><path fill="#000000" fill-opacity="0.0" d="m0 0l1152.0 0l0 864.0l-1152.0 0z" fill-rule="nonzero"></path><path fill="#ffffff" d="m367.85956 560.01373l0 0c-6.0816345 -19.564514 5.1133423 -39.403687 25.00467 -44.31201l144.06155 -35.548218l0 0c9.552185 -2.3570557 19.873291 -0.88534546 28.692749 4.0913696c8.819519 4.9767456 15.415039 13.050812 18.33551 22.446045l68.118164 219.13477c6.081665 19.564575 -5.1133423 39.403748 -25.0047 44.312073l-144.06152 35.548218c-19.891357 4.908325 -40.946625 -6.9729004 -47.02826 -26.537415z" fill-rule="nonzero"></path><path stroke="#000000" stroke-width="24.0" stroke-linejoin="round" stroke-linecap="butt" d="m367.85956 560.01373l0 0c-6.0816345 -19.564514 5.1133423 -39.403687 25.00467 -44.31201l144.06155 -35.548218l0 0c9.552185 -2.3570557 19.873291 -0.88534546 28.692749 4.0913696c8.819519 4.9767456 15.415039 13.050812 18.33551 22.446045l68.118164 219.13477c6.081665 19.564575 -5.1133423 39.403748 -25.0047 44.312073l-144.06152 35.548218c-19.891357 4.908325 -40.946625 -6.9729004 -47.02826 -26.537415z" fill-rule="nonzero"></path><path fill="#ffffff" d="m487.36713 60.407574l0 0c0 -20.659634 16.747955 -37.407574 37.407593 -37.407574l149.6258 0l0 0c9.921082 0 19.435852 3.941143 26.45111 10.956425c7.01532 7.0152817 10.956421 16.53004 10.956421 26.451149l0 226.09822c0 20.659637 -16.747925 37.407593 -37.40753 37.407593l-149.6258 0c-20.659637 0 -37.407593 -16.747955 -37.407593 -37.407593z" fill-rule="nonzero"></path><path stroke="#000000" stroke-width="24.0" stroke-linejoin="round" stroke-linecap="butt" d="m487.36713 60.407574l0 0c0 -20.659634 16.747955 -37.407574 37.407593 -37.407574l149.6258 0l0 0c9.921082 0 19.435852 3.941143 26.45111 10.956425c7.01532 7.0152817 10.956421 16.53004 10.956421 26.451149l0 226.09822c0 20.659637 -16.747925 37.407593 -37.40753 37.407593l-149.6258 0c-20.659637 0 -37.407593 -16.747955 -37.407593 -37.407593z" fill-rule="nonzero"></path><path fill="#ffffff" d="m521.37634 425.50256l70.97638 -70.97638l70.97638 70.97638l-48.456238 0l0 272.2992l-45.040222 0l0 -272.2992z" fill-rule="nonzero"></path><path stroke="#000000" stroke-width="12.0" stroke-linejoin="round" stroke-linecap="butt" d="m521.37634 425.50256l70.97638 -70.97638l70.97638 70.97638l-48.456238 0l0 272.2992l-45.040222 0l0 -272.2992z" fill-rule="nonzero"></path><path fill="#ffffff" d="m602.3643 525.7319l0 0c8.667297 -18.397705 31.134766 -27.535034 50.182434 -20.408813l137.95142 51.611023l0 0c9.146973 3.4221191 16.26593 10.213745 19.790771 18.880737c3.5247803 8.667053 3.166687 18.499512 -0.9954834 27.33435l-99.32153 210.82495c-8.667297 18.397644 -31.134766 27.534973 -50.182434 20.408813l-137.95135 -51.611084c-19.047699 -7.1261597 -27.462646 -27.817383 -18.79535 -46.215088z" fill-rule="nonzero"></path><path stroke="#000000" stroke-width="24.0" stroke-linejoin="round" stroke-linecap="butt" d="m602.3643 525.7319l0 0c8.667297 -18.397705 31.134766 -27.535034 50.182434 -20.408813l137.95142 51.611023l0 0c9.146973 3.4221191 16.26593 10.213745 19.790771 18.880737c3.5247803 8.667053 3.166687 18.499512 -0.9954834 27.33435l-99.32153 210.82495c-8.667297 18.397644 -31.134766 27.534973 -50.182434 20.408813l-137.95135 -51.611084c-19.047699 -7.1261597 -27.462646 -27.817383 -18.79535 -46.215088z" fill-rule="nonzero"></path></g></svg>

