<?xml version="1.0" encoding="utf-8"?>
<!-- Generator: Adobe Illustrator 21.1.0, SVG Export Plug-In . SVG Version: 6.00 Build 0)  -->
<svg version="1.1" id="Layer_1" xmlns="http://www.w3.org/2000/svg" xmlns:xlink="http://www.w3.org/1999/xlink" x="0px" y="0px"
	 viewBox="0 0 79.9 79.6" style="enable-background:new 0 0 79.9 79.6;" xml:space="preserve">
<path d="M58.2,7.9C53.4,2.7,44.1,0,30.7,0C17.2,0,8,2.6,3.2,7.9C-0.2,11.6,0,15.3,0,15.4v4.7v23.7v24.8c0,0.6,0.4,1,1,1h4.6v5.2
	c0,2.7,2.2,4.8,4.8,4.8c2.7,0,4.8-2.2,4.8-4.8v-5.2h31v5.2c0,2.7,2.2,4.8,4.8,4.8c2.7,0,4.8-2.2,4.8-4.8v-5.2h4.6c0.6,0,1-0.4,1-1
	V43.9l0,0V20l0,0v-4.6C61.4,15.3,61.7,11.6,58.2,7.9z M13.3,74.7c0,1.6-1.3,2.8-2.8,2.8s-2.8-1.3-2.8-2.8v-5.2h5.6V74.7z M53.8,74.7
	c0,1.6-1.3,2.8-2.8,2.8s-2.8-1.2-2.8-2.8v-5.2h5.6V74.7z M59.4,67.6H2V44.8h57.4C59.4,44.8,59.4,67.6,59.4,67.6z M59.4,42.8H2V21
	h57.4C59.4,21,59.4,42.8,59.4,42.8z M59.4,15.4v3.7H2v-3.7c0-0.1-0.2-3,2.7-6.1c3-3.3,10-7.2,26-7.2c15.9,0,22.9,3.9,26,7.2
	C59.6,12.3,59.4,15.2,59.4,15.4z"/>
<path d="M12.7,60c3,0,5.4-2.4,5.4-5.4s-2.4-5.4-5.4-5.4s-5.4,2.4-5.4,5.4S9.8,60,12.7,60z M12.7,51.1c1.9,0,3.4,1.5,3.4,3.4
	s-1.5,3.4-3.4,3.4s-3.4-1.5-3.4-3.4S10.9,51.1,12.7,51.1z"/>
<path d="M48.7,60c3,0,5.4-2.4,5.4-5.4s-2.4-5.4-5.4-5.4s-5.4,2.4-5.4,5.4S45.7,60,48.7,60z M48.7,51.1c1.9,0,3.4,1.5,3.4,3.4
	s-1.5,3.4-3.4,3.4s-3.4-1.5-3.4-3.4S46.8,51.1,48.7,51.1z"/>
<path d="M38,6.5H23.4c-2.1,0-3.7,1.7-3.7,3.7s1.7,3.7,3.7,3.7H38c2.1,0,3.7-1.7,3.7-3.7S40.1,6.5,38,6.5z M38,12H23.4
	c-1,0-1.7-0.8-1.7-1.7s0.8-1.7,1.7-1.7H38c1,0,1.7,0.8,1.7,1.7S39,12,38,12z"/>
</svg>
