<?xml version="1.0" encoding="utf-8"?>
<!-- Generator: Adobe Illustrator 21.1.0, SVG Export Plug-In . SVG Version: 6.00 Build 0)  -->
<svg version="1.1" baseProfile="tiny" id="Layer_1" xmlns="http://www.w3.org/2000/svg" xmlns:xlink="http://www.w3.org/1999/xlink"
	 x="0px" y="0px" viewBox="0 0 95 95.1" xml:space="preserve">
<path fill="#010101" stroke="#000000" stroke-miterlimit="10" d="M13.6,16L27,19.8l13.3,3.5c0.1,0,0.2,0,0.2,0
	c0.6,0,1.1-0.5,1.2-1.3c0.1-0.9-0.3-1.8-1-2l-13.3-3.5l-13.3-3.8c-0.7-0.1-1.3,0.4-1.5,1.3C12.5,15,12.9,15.9,13.6,16z"/>
<path fill="#010101" stroke="#000000" stroke-miterlimit="10" d="M13.6,23.5L27,27.3l13.3,3.5c0.1,0,0.2,0,0.2,0
	c0.6,0,1.1-0.5,1.2-1.3c0.1-0.9-0.3-1.8-1-2L27.4,24l-13.3-3.8c-0.7-0.1-1.3,0.4-1.5,1.3C12.5,22.5,12.9,23.3,13.6,23.5z"/>
<path fill="#010101" stroke="#000000" stroke-miterlimit="10" d="M13.6,30.9L27,34.7l13.3,3.5c0.1,0,0.2,0,0.2,0
	c0.6,0,1.1-0.5,1.2-1.3c0.1-0.9-0.3-1.8-1-2l-13.3-3.5l-13.3-3.8c-0.7-0.1-1.3,0.4-1.5,1.3C12.5,29.8,12.9,30.8,13.6,30.9z"/>
<path fill="#010101" stroke="#000000" stroke-miterlimit="10" d="M13.6,38.3L27,42l13.3,3.5c0.1,0,0.2,0,0.2,0
	c0.6,0,1.1-0.5,1.2-1.3c0.1-0.9-0.3-1.8-1-2l-13.3-3.5l-13.3-3.8c-0.7-0.1-1.3,0.4-1.5,1.3C12.5,37.2,12.9,38.1,13.6,38.3z"/>
<path fill="#010101" stroke="#000000" stroke-miterlimit="10" d="M13.6,45.8L27,49.5L40.3,53c0.1,0,0.2,0,0.2,0
	c0.6,0,1.1-0.5,1.2-1.3c0.1-0.9-0.3-1.8-1-2l-13.3-3.5l-13.3-3.8c-0.7-0.1-1.3,0.4-1.5,1.3C12.5,44.7,12.9,45.5,13.6,45.8z"/>
<path fill="#010101" stroke="#000000" stroke-miterlimit="10" d="M13.6,53.1L27,56.9l13.3,3.5c0.1,0,0.2,0,0.2,0
	c0.6,0,1.1-0.5,1.2-1.3c0.1-0.9-0.3-1.8-1-2l-13.3-3.5l-13.3-3.8c-0.7-0.1-1.3,0.4-1.5,1.3C12.5,52.1,12.9,53,13.6,53.1z"/>
<path fill="#010101" stroke="#000000" stroke-miterlimit="10" d="M13.6,60.6L27,64.4l13.3,3.5c0.1,0,0.2,0,0.2,0
	c0.6,0,1.1-0.5,1.2-1.3c0.1-0.9-0.3-1.8-1-2L27.4,61l-13.3-3.8c-0.7-0.1-1.3,0.4-1.5,1.3C12.5,59.6,12.9,60.4,13.6,60.6z"/>
<path fill="#010101" d="M94.2,12.3c-1.6-0.1-3.3-0.1-4.9-0.1V1.9c0-0.5-0.2-0.9-0.5-1.3c-0.3-0.3-0.7-0.4-1-0.4l-40.3,11L7.2,0.1
	c-0.4-0.1-0.7,0-1,0.4C5.9,0.7,5.7,1.3,5.7,1.8v10.3c-1.6,0-3.2,0.1-4.8,0.1c-0.4,0-0.8,0.5-0.8,1.1L0,85.8c0,0.3,0.1,0.5,0.3,0.8
	s0.4,0.3,0.6,0.3c15.4-0.9,30.5,1.8,45,7.7l1.3,0.5c0,0,0.1,0,0.2,0c0.1,0,0.2,0,0.2,0l1.3-0.5c14.5-5.9,29.6-8.5,45-7.6
	c0.2,0,0.4-0.1,0.6-0.3c0.2-0.1,0.3-0.5,0.3-0.8l0.1-72.6C95,12.7,94.7,12.3,94.2,12.3z M46.2,85L8.1,74.5L8.2,3.8l38.1,10.5
	L46.2,85z M86.7,74.5L48.6,85l0.1-70.7L86.8,3.8L86.7,74.5z"/>
<path fill="#010101" stroke="#000000" stroke-miterlimit="10" d="M54.4,23.3c0.1,0,0.2,0,0.2,0L68,19.8l13.3-3.6
	c0.7-0.1,1.1-1.1,1-2s-0.8-1.5-1.5-1.3l-13.3,3.6L54.2,20c-0.7,0.1-1.1,1.1-1,2C53.3,22.8,53.8,23.3,54.4,23.3z"/>
<path fill="#010101" stroke="#000000" stroke-miterlimit="10" d="M54.4,30.8c0.1,0,0.2,0,0.2,0L68,27.3l13.3-3.6
	c0.7-0.1,1.1-1.1,1-2s-0.8-1.5-1.5-1.3L67.5,24l-13.3,3.5c-0.7,0.1-1.1,1.1-1,2C53.3,30.3,53.8,30.8,54.4,30.8z"/>
<path fill="#010101" stroke="#000000" stroke-miterlimit="10" d="M54.4,38.2c0.1,0,0.2,0,0.2,0L68,34.7L81.3,31c0.7-0.1,1.1-1.1,1-2
	s-0.8-1.5-1.5-1.3l-13.3,3.6l-13.3,3.5c-0.7,0.1-1.1,1.1-1,2C53.3,37.7,53.8,38.2,54.4,38.2z"/>
<path fill="#010101" stroke="#000000" stroke-miterlimit="10" d="M54.4,45.6c0.1,0,0.2,0,0.2,0L68,42l13.3-3.6c0.7-0.1,1.1-1.1,1-2
	s-0.8-1.5-1.5-1.3l-13.3,3.6l-13.3,3.5c-0.7,0.1-1.1,1.1-1,2C53.3,45,53.8,45.6,54.4,45.6z"/>
<path fill="#010101" stroke="#000000" stroke-miterlimit="10" d="M54.4,53.1c0.1,0,0.2,0,0.2,0L68,49.5l13.3-3.6
	c0.7-0.1,1.1-1.1,1-2s-0.8-1.5-1.5-1.3l-13.3,3.6l-13.3,3.5c-0.7,0.1-1.1,1.1-1,2C53.3,52.5,53.8,53.1,54.4,53.1z"/>
<path fill="#010101" stroke="#000000" stroke-miterlimit="10" d="M54.4,60.4c0.1,0,0.2,0,0.2,0L68,56.9l13.3-3.6
	c0.7-0.1,1.1-1.1,1-2s-0.8-1.5-1.5-1.3l-13.3,3.6L54.2,57c-0.7,0.1-1.1,1.1-1,2S53.8,60.4,54.4,60.4z"/>
<path fill="#010101" stroke="#000000" stroke-miterlimit="10" d="M54.4,67.9c0.1,0,0.2,0,0.2,0L68,64.4l13.3-3.6
	c0.7-0.1,1.1-1.1,1-2s-0.8-1.5-1.5-1.3L67.5,61l-13.3,3.5c-0.7,0.1-1.1,1.1-1,2S53.8,67.9,54.4,67.9z"/>
<path fill="#010101" stroke="#000000" stroke-miterlimit="10" d="M13.6,68.8L27,72.5L40.3,76c0.1,0,0.2,0,0.2,0
	c0.6,0,1.1-0.5,1.2-1.3c0.1-0.9-0.3-1.8-1-2l-13.3-3.5l-13.3-3.8c-0.7-0.1-1.3,0.4-1.5,1.3C12.5,67.7,12.9,68.5,13.6,68.8z"/>
<path fill="#010101" stroke="#000000" stroke-miterlimit="10" d="M54.5,76.1c0.1,0,0.2,0,0.2,0L68,72.5l13.3-3.6
	c0.7-0.1,1.1-1.1,1-2s-0.8-1.5-1.5-1.3l-13.3,3.6l-13.3,3.5c-0.7,0.1-1.1,1.1-1,2C53.3,75.5,53.8,76.1,54.5,76.1z"/>
</svg>
