<?xml version="1.0" encoding="utf-8"?>
<!-- Generator: Adobe Illustrator 21.1.0, SVG Export Plug-In . SVG Version: 6.00 Build 0)  -->
<svg version="1.1" id="Layer_1" xmlns="http://www.w3.org/2000/svg" xmlns:xlink="http://www.w3.org/1999/xlink" x="0px" y="0px"
	 viewBox="0 0 76.7 77" style="enable-background:new 0 0 76.7 77;" xml:space="preserve">
<g>
	<path d="M55.2,20v-5.7c0-5.9-4.8-10.7-10.7-10.7H32.1c-5.9,0-10.7,4.8-10.7,10.7v5.8h5.5v-5.8c0-2.9,2.3-5.2,5.2-5.2h12.4
		c2.9,0,5.2,2.3,5.2,5.2v5.8L55.2,20L55.2,20z"/>
	<path d="M76.6,39.9c-7.5,3.4-29.2,12.6-38.3,12.6S7.5,43.3,0,39.9V77h76.7L76.6,39.9L76.6,39.9z"/>
	<path d="M76.6,35.9V24.2H0v11.7c5.3,2.4,29.3,12.9,38.3,12.9S71.3,38.3,76.6,35.9z"/>
</g>
</svg>
