<?xml version="1.0" encoding="utf-8"?>
<!-- Generator: Adobe Illustrator 21.1.0, SVG Export Plug-In . SVG Version: 6.00 Build 0)  -->
<svg version="1.1" id="Layer_1" xmlns="http://www.w3.org/2000/svg" xmlns:xlink="http://www.w3.org/1999/xlink" x="0px" y="0px"
	 viewBox="0 0 97.2 97.3" style="enable-background:new 0 0 97.2 97.3;" xml:space="preserve">
<circle cx="36.3" cy="8.1" r="8.1"/>
<path d="M65,47c0,2.3-1.8,4.1-4.1,4.1c-0.2,0-0.4-0.1-0.6-0.1l0,0c0,0-13.7-2.8-14.8-3s-2.2-1.5-2.5-2.2c-0.3-0.8-3.6-7.2-3.6-7.2
	l-2.5,12.3c0,0,11.5,12.2,11.8,12.6c0.4,0.3,1.8,1.2,1.7,5.4c-0.1,3.7,0,20.2,0,23.5v0.1c0,0.1,0,0.1,0,0.1c0,0.2,0,0.4,0,0.4l0,0
	c-0.2,2.4-2.3,4.3-4.8,4.3S41,95.4,40.8,93l0,0V71.2L28.5,58.9c0,0-2.1,12.9-2.3,13.9s-0.5,1.8-1.8,3.3
	c-1.2,1.4-13.2,15.6-15.7,18.5c-0.9,1.2-2.3,2-3.9,2c-2.7,0-4.8-2.2-4.8-4.8c0-1.4,0.6-2.6,1.5-3.5l13.1-15.7l3.7-21.2
	c0,0,3.7-17.9,4-18.8l-4,2.2l-6.4,12.1c-0.4,1.8-2,3.2-4,3.2c-2.3,0-4.2-1.9-4.2-4.2c0-1,0.3-1.9,0.9-2.6l6.9-12.9
	c0,0,0.8-1.7,1.8-2.2S29,19.3,29,19.3s2.9-1.6,5.9-0.6c2.9,0.9,5,3.1,5.8,4s8.6,17.4,8.8,17.7c0.2,0.3-0.4,0.1,0.2,0.3
	c0.5,0.2,9.5,1.7,11.7,2.1C63.5,43,65.1,44.7,65,47z"/>
</svg>
