<?xml version="1.0" encoding="utf-8"?>
<!-- Generator: Adobe Illustrator 21.0.0, SVG Export Plug-In . SVG Version: 6.00 Build 0)  -->
<svg version="1.1" id="Layer_1" xmlns="http://www.w3.org/2000/svg" xmlns:xlink="http://www.w3.org/1999/xlink" x="0px" y="0px"
	 viewBox="0 0 413 413" style="enable-background:new 0 0 413 413;" xml:space="preserve">
<path d="M199.4,0.5c11.9,0,23.9,1,35.9,3.1c85.2,15,152.1,81.9,167.1,167.1c15,85.2-24.9,170.9-99.9,214.2
	c-32.8,18.9-69.3,28-105.5,27.6c-46.6-0.6-92.7-16.9-130-48.1l30.9-36.8c50.9,42.8,123,49,180.6,15.8
	c57.6-33.3,88.2-98.8,76.6-164.3c-11.5-65.5-62.7-116.6-128.2-128.2c-51.7-9.1-103.3,8-139.2,43.9l47.7,47.7H7.5v-128l46.3,46.3
	C92.3,22.5,144.7,0.5,199.4,0.5z"/>
</svg>
