<?xml version="1.0" encoding="utf-8"?>
<!-- Generator: Adobe Illustrator 16.0.0, SVG Export Plug-In . SVG Version: 6.00 Build 0)  -->
<!DOCTYPE svg PUBLIC "-//W3C//DTD SVG 1.1//EN" "http://www.w3.org/Graphics/SVG/1.1/DTD/svg11.dtd">
<svg version="1.1" xmlns="http://www.w3.org/2000/svg" xmlns:xlink="http://www.w3.org/1999/xlink" x="0px" y="0px" width="500px"
	 height="500px" viewBox="0 0 500 500" enable-background="new 0 0 500 500" xml:space="preserve">
<g id="Layer_1" display="none">
	<g display="inline">
		<g>
			<g>
				<g>
					<path fill="#231F20" d="M305.622,117.608l0.572,0.286C305.948,117.745,305.811,117.604,305.622,117.608z"/>
					<path fill="#231F20" d="M246.9,176.634l-0.403-0.145C246.641,176.645,246.779,176.661,246.9,176.634z"/>
					<path fill="#231F20" d="M285.408,197.838l-0.041,0.919C285.425,198.326,285.427,198.049,285.408,197.838z"/>
					<g>
						<path fill="#231F20" d="M282.605,157.203l-0.032-2.926c-0.001-0.962,0.075-1.854,0.095-2.784l0.064-2.766
							c-0.011-0.466,0.05-0.911,0.09-1.361c0.034-0.384,0.106-1.128,0.064-0.884c-0.152,0.342-0.309,0.084-0.527-0.25
							c-0.165-0.29-0.352-0.742-0.535-1.444c-0.013-0.57,0.143-0.901,0.466-1.299c0.246-0.275,0.604-0.52,1.098-0.704
							c0.246-0.092,0.526-0.169,0.839-0.228c0.157-0.03,0.321-0.055,0.495-0.075l0.265-0.026l0.133-0.013
							c0.087,0.016,0.286,0.092,0.424,0.136c2.438,0.823,4.884,1.687,7.309,2.594l3.607,1.39l1.748,0.706l0.816,0.334
							c0.124,0.05,0.259,0.107,0.338,0.132l0.183,0.045c5.296,2.67,10.589,5.562,15.686,8.771c3.736,2.38,7.486,4.703,11.157,7.174
							c3.665,2.484,7.326,4.965,10.986,7.446c3.672,2.465,7.361,4.905,11.091,7.296c3.712,2.441,7.453,4.864,11.265,7.196
							c15.342,9.35,29.267,20.005,43.71,30.82c6.981,5.224,14.399,9.754,21.71,14.355c7.357,4.582,14.521,9.358,21.085,14.976
							c1.749,1.502,3.458,3.045,5.158,4.594c1.665,1.577,3.328,3.153,4.996,4.734c1.643,1.536,11.93,6.75,14.319,7.318
							c1.084,0.265-2.73-5.656-3.82-7.289c-3.582-5.299-9.34-13.262-12.791-16.749c-3.438-3.595-5.97-6.225-8.613-8.761
							c-1.322-1.267-2.672-2.513-4.179-3.84c-1.516-1.308-3.188-2.7-5.146-4.282c-8.092-6.55-16.128-12.919-23.96-19.459
							c-7.842-6.54-15.459-13.379-22.782-20.718c-5.902-5.946-12.729-11.121-19.624-16.175c-6.86-5.091-14.046-9.892-20.63-15.254
							c-2.785-2.262-5.548-4.555-8.307-6.859c-2.745-2.317-5.62-4.504-8.434-6.76c-5.672-4.481-11.354-8.903-17.272-13.169
							l-1.053-0.679l-0.766-0.481l-1.413-0.867l-2.745-1.622c-1.825-1.052-3.661-2.06-5.525-3.031l-5.368-2.796
							c-2.784-1.433-5.585-2.847-8.403-4.191c-5.607-2.655-11.426-5.237-16.744-6.151c-2.646-0.446-5.124-0.526-7.431-0.245
							c-1.159,0.141-2.273,0.359-3.41,0.704c-0.57,0.17-1.146,0.373-1.751,0.649c-0.301,0.136-0.61,0.293-0.89,0.453
							c-0.276,0.166-0.454,0.274-0.657,0.446l-2.408,1.908c-0.049,0.043-0.103,0.073-0.148,0.126l-0.128,0.208l-0.254,0.416
							l-0.51,0.832l-1.021,1.667l-4.112,6.716c-1.321,4.874-2.48,9.759-3.698,14.705c-0.346,1.197-0.494,2.557-0.687,3.88
							l-0.557,3.985l-0.273,1.995l-0.135,0.998l-0.044,0.374l-0.03,0.308c-0.073,0.819-0.179,1.644-0.212,2.46
							c-0.068,2.734-0.147,5.491-0.148,8.202c0.108,2.629,0.203,5.298,0.357,7.886l0.65,7.474l0.75,7.103l0.698,6.828l0.221,2.152
							l0.171,1.45l0.107,0.653l0.039,0.168l0.041,0.16l0.024,0.067l0.051,0.135c0.037,0.09,0.079,0.179,0.124,0.268
							c0.202,0.341,0.407,0.719,0.378,1.126c0.003,0.2-0.029,0.397-0.055,0.595l0.016,0.602c0.031,0.091-0.081,0.092-0.135,0.13
							c-0.857,0.409-1.827,0.609-2.75,0.645l-0.345,0.008c-0.146,0.003-0.058-0.011-0.788,0.024
							c-1.133,0.066-2.332,0.092-3.537,0.113c-2.448,0.022-5.033-0.029-7.744-0.113l-5.32-0.15l-2.769-0.045l-2.679,0.018
							l-10.716,0.142c-7.143,0.128-14.282,0.317-21.419,0.524c-14.386,0.381-28.242,0.983-42.303,1.264
							c-6.342,0.131-12.644,0.04-18.924-0.139c-6.281-0.307-12.539-0.741-18.798-1.106c-6.259-0.371-12.519-0.695-18.804-0.841
							c-3.143-0.073-6.292-0.101-9.452-0.067c-3.159,0.064-6.329,0.129-9.511,0.194c-13.486,0.431-31.679,0.346-43.238,7.632
							c-2.809,1.769-3.762,4.994-3.858,7.858c0.15-4.7,14.794,5.355,15.891,5.83c6.507,2.891,13.75,4.228,20.667,6.251
							c3.349,0.979,6.613,2.03,9.85,3.077c1.62,0.521,3.232,1.039,4.843,1.557c1.612,0.492,3.224,0.945,4.844,1.394
							c6.479,1.779,13.08,3.234,20.248,3.747c7.51,0.538,15.009,0.898,22.503,1.134c1.874,0.051,3.748,0.128,5.62,0.137l5.614-0.02
							l11.227-0.145c7.484-0.137,14.969-0.345,22.462-0.571c3.729-0.11,7.461-0.22,11.197-0.33
							c3.681-0.088,7.365-0.177,11.054-0.265l18.81-0.494l9.404-0.283l4.702-0.143c1.608-0.06,3.003-0.042,4.593-0.056
							c3.104-0.012,6.384,0.005,9.884-0.063c1.763-0.041,3.548-0.093,5.404-0.192c0.904-0.033,1.877-0.118,2.816-0.18
							c0.753-0.029,2.579-0.245,4.036-0.408c6.077-0.688,12.021-2.022,17.463-4.005c1.326-0.536,2.706-1.015,3.99-1.597l3.849-1.755
							l7.835-3.589c0.498-0.226,0.993-0.452,1.485-0.704c0.015-1.721,0.029-3.445,0.044-5.173l0.033-2.663
							c-0.011-0.921,0.102-1.831-0.072-2.773c-0.503-1.984,0.249-3.458,0.389-5.134c0.238-1.638,0.384-3.262,0.388-4.837
							c0.01-1.577-0.101-3.147-0.368-4.876c-0.301-1.733-0.763-3.571-1.431-5.391c-0.146-0.487-0.33-0.837-0.502-1.228
							c-0.155-0.343-0.427-0.937-0.349-0.785c0.008-0.071,0.021-0.23,0.015-0.338l-0.122-2.772
							C283.097,171.246,282.616,163.828,282.605,157.203z"/>
					</g>
				</g>
			</g>
		</g>
		<g>
			<g>
				<g>
					<path fill="#231F20" d="M287.366,355.279l0.122-0.086C287.445,355.198,287.443,355.131,287.366,355.279z"/>
					<path fill="#231F20" d="M283.034,282.55l0.702-0.367C283.296,282.3,283.115,282.431,283.034,282.55z"/>
					<path fill="#231F20" d="M246.43,316.116l-0.565,0.004C246.132,316.156,246.301,316.145,246.43,316.116z"/>
					<g>
						<path fill="#231F20" d="M248.983,317.824l-0.021-0.011l-0.004-0.003l0,0.318l0.003,0.734l0.029,2.938
							c0.046,2.276,0.093,4.551,0.14,6.822l0.053,0.601l0.021,0.241l5.008-0.317l4.756-0.245c1.317-0.072,2.731-0.113,3.974-0.144
							l1.598-0.041l1.505-0.002c0.41-0.004,0.821,0.005,1.232,0.026l0.522,0.021c0.151,0.006,0.303,0.018,0.454,0.033l0.227,0.028
							c17.217,2.061-23.314-2.763-19.164-2.391l-0.03-0.268l-0.119-1.07l-0.026-0.224l-0.004,0.019l-0.007,0.038l-0.012,0.063
							l0.032-0.144c0.024-0.108,0.078-0.343,0.062-0.262c-0.076,0.353-0.153,0.783-0.213,1.172
							c-0.299,1.613-0.143,3.165-0.157,4.728l0.03,2.34l0.019,1.129l0.039,0.669l0.168,2.672l0.379,5.181l0.398,4.529l0.226,2.266
							l0.059,0.566l0.03,0.283c0.006,0.024,0.009,0.14,0.013,0.245l0.01,0.311l0.086,2.475c0.108,3.372,0.267,6.348,0.423,9.378
							c0.168,2.977,0.336,5.951,0.503,8.923l0.273,4.352l0.142,2.146l0.072,1.065l0.019,0.266l0.066,0.209l0.137,0.415
							c0.497,1.459,1.039,2.698,1.64,3.825c0.594,1.132,1.225,2.151,1.926,3.093c0.704,0.943,1.41,1.87,2.327,2.662l1.389,1.294
							c0.494,0.435,0.978,0.951,1.619,1.329c0.291,0.208,0.635,0.397,0.964,0.592l0.248,0.145l0.03,0.019l0.016,0.009
							c0.029-0.035-0.044,0.092,0.069-0.076l0.065,0.033l0.131,0.066l0.523,0.266c0.697,0.349,1.396,0.666,2.099,0.886
							c1.421,0.404,2.765,0.543,4.07,0.576c2.614,0.04,5.139-0.412,7.863-1.192c0.685-0.204,1.377-0.429,2.096-0.677l0.541-0.188
							c0.181-0.063,0.372-0.214,0.557-0.315l1.114-0.68l4.403-2.675c2.857-1.714,5.718-3.43,8.584-5.148
							c2.82-1.67,5.605-3.295,8.381-4.876l4.159-2.339l1.983-1.102l1.428-0.827c7.488-4.222,14.944-8.426,22.397-12.628
							c3.723-2.108,7.434-4.234,11.125-6.404l5.538-3.263l5.771-3.482l0.702-0.445c0.204-0.196,0.445-0.333,0.665-0.503
							c0.441-0.324,0.92-0.649,1.328-0.974c0.846-0.692,1.396-1.199,2.044-1.771c3.525-3.293,7.026-6.562,10.514-9.818
							c3.441-3.172,6.891-6.274,10.37-9.333c6.946-6.099,14.051-12.116,21.176-17.869l2.487-2.004l1.132-0.903l0.281-0.229
							c0.004,0.002,0.006,0.002,0.006,0c0-0.003-0.001-0.008-0.005-0.016l-0.006-0.015l-0.404-0.703l-1.074-1.93l-1.034-1.954
							l-0.501-0.985l-0.247-0.495l-0.123-0.248c-0.868-1.464,7.008,11.636,3.685,6.098l0.18-0.114l0.357-0.228l0.716-0.459
							l1.425-0.924l2.833-1.875c0.934-0.606,1.895-1.307,2.852-2.01l2.857-2.103l5.682-4.218c1.93-1.394,3.669-2.824,5.505-4.217
							c1.817-1.397,3.646-2.776,5.496-4.125c1.85-1.35,3.72-2.67,5.621-3.949c1.861-1.344,3.753-2.646,5.686-3.899
							c2.067-1.333,4.162-2.618,6.266-3.896l3.157-1.919l0.789-0.481l0.395-0.241c0.132-0.081,0.285-0.18,0.307-0.173
							c0.107-0.04,0.21-0.083,0.308-0.131c0.12-0.024,0.236-0.053,0.349-0.085c0.055-0.017,0.116-0.048,0.184-0.097
							c0.227-0.141,0.487-0.302,0.776-0.482c0.584-0.378,1.272-0.853,2.02-1.396c1.288-1.104,2.842-2.463,4.242-3.868
							c1.333-1.426,2.69-2.848,3.672-4.101c0.997-1.248,1.75-2.278,2.06-2.855c0.284-0.523-1.372-0.082-3.316,0.564
							c-1.924,0.667-4.277,1.432-5.241,1.794c-1.606,0.591-3.525,1.154-5.407,1.792c-0.987,0.276-2.013,0.521-3.002,0.777
							l-1.424,0.345c-0.461,0.182-0.922,0.363-1.381,0.544c-3.736,1.514-7.227,3.027-9.489,4.197
							c-9.099,4.805-13.512,6.732-22.326,12.252c-2.281,1.431-4.562,2.682-6.822,4.025c-2.264,1.316-4.521,2.63-6.773,3.939
							c-2.367,1.264-4.729,2.525-7.088,3.785c-0.477,0.281-0.95,0.575-1.417,0.877l-0.95,0.655l-1.786,1.252l-3.338,2.42
							c-8.739,6.407-17.35,12.664-26.499,18.427c-3.752,2.363-7.36,4.979-10.868,7.672c-1.715,1.343-3.436,2.689-5.16,4.039
							c-0.83,0.651-1.699,1.356-2.398,1.871c-0.754,0.577-0.955,0.706-1.391,0.954c-3.771,2.007-7.546,4.017-11.307,6.02
							c-3.867,2.048-7.752,4.025-11.689,5.827c-4.338,1.987-8.704,3.92-13.075,5.847l-6.558,2.892l-3.276,1.454l-1.637,0.73
							l-0.409,0.184l-0.201,0.091l-0.085,0.027l-0.335,0.109c-1.773,0.582-3.331,1.094-4.772,1.655
							c-0.709,0.273-1.446,0.593-2.078,0.888c-0.392,0.16-0.771,0.366-1.214,0.561c-0.436,0.2-1.024,0.315-1.318-0.153
							c-0.249-0.461-0.168-1.064-0.07-1.604c0.268-1.1,0.528-2.133,0.771-2.975l0.186-0.601l0.081-0.153l0.04-0.07l0.01-0.017
							l0.005-0.009l0.003-0.111l0.009-0.5l0.089-8.013l0.005-3.634l-0.031-3.455l-0.012-1.275c-0.002-0.136-0.008-0.16,0.011-0.242
							c0.018-0.009,0.022,0.021,0.035,0.028c0.002,0.001,0.004,0,0.005-0.002l0.129-0.616l0.128-0.741l0.04-0.299l0.024-0.236
							c0.03-0.315,0.054-0.631,0.07-0.947c0.017-0.377,0.021-0.65,0.023-0.975l-0.008-0.549c-0.017-0.603-0.04-0.939-0.061-1.241
							c-0.011-0.13-0.011-0.111-0.015-0.135l0.001,0.104l-0.005,0.057l-0.002,0.015l-0.002-0.052l-0.003-0.104
							c-0.427-14.918-0.854-29.824-1.281-44.739l-14.98-0.312c-4.973-0.14-9.93-0.293-14.858-0.485l-9.969-0.628l-2.119-0.136
							c-0.7-0.048-1.405-0.095-2.188-0.113l-4.569-0.155c-1.681-0.043-3.396,0.028-5.093,0.041l-2.55,0.046l-2.462,0.167
							l-4.924,0.336c-1.612,0.137-3.144,0.338-4.72,0.502l-8.898,0.959c-2.77,0.263-5.508,0.632-8.301,0.781
							c-28.043,2.159-56.719,2.539-86.014,1.334c-13.247-0.544-26.392-2.051-39.728-3.174c-3.325-0.296-6.678-0.54-10.042-0.749
							c-3.354-0.228-6.734-0.387-10.136-0.475c-1.699-0.038-3.399-0.075-5.102-0.112c-0.304,0-0.218-0.016-0.23-0.021
							c-0.001-0.008-0.002-0.011-0.003-0.012l-0.052,0.626c-0.038,0.271-0.037,0.412-0.05,0.582
							c-0.026,0.338-0.077,0.688-0.155,1.047c-0.064,0.321-0.074,0.462-0.145,0.719c-0.03,0.116-0.066,0.234-0.106,0.355
							l-0.043,0.16l-0.06,0.173c-0.014,0.04-0.073,0.171-0.055,0.132c0.005-0.008,0.004-0.001-0.005,0.02
							c-0.019,0.038,0.016-0.034,0.044-0.085l0.082-0.136c0.251-0.415,0.855-1.215,2.17-2.44l0.061-0.053
							c0.001,0-0.001,0.003-0.002,0.004l-0.007,0.011c-0.005,0.003-0.011,0.024-0.017,0.013c-0.012-0.01-0.026-0.019-0.043-0.025
							c-0.033-0.023-0.083,0.009-0.133-0.07c-0.051-0.058-0.115-0.096-0.187-0.157c-0.066-0.096-0.141-0.188-0.226-0.277
							c-0.323-0.44-0.734-1.112-1.153-1.995c-0.404-0.914-0.825-1.994-1.231-3.203c-0.38-1.235-0.784-2.554-1.144-3.967
							c-0.741-2.813-1.411-5.875-2.227-8.904c-0.796-3.039-1.721-6.057-2.988-8.948c-1.226-2.801-4.08-4.479-6.855-5.265
							c2.27,0.669,0.047,3.729-2.475,7.271c-2.579,3.484-5.426,7.565-5.669,8.151c-1.583,3.433-2.569,7.263-3.065,11.302
							c-0.453,4.049-0.512,8.292,0.043,12.745c0.513,4.296,1.627,8.854,4.239,13.43c1.32,2.274,3.077,4.502,5.237,6.507
							c2.171,2.009,4.798,3.669,7.598,4.937c2.823,1.266,5.75,1.994,8.674,2.438c1.719,0.41,3.367,0.786,5.079,1.126
							c1.702,0.339,3.421,0.637,5.169,0.889c1.756,0.272,3.54,0.496,5.359,0.661c30.465,2.762,61.453,4.246,93.59,3.974
							c13.647-0.117,27.429-0.796,41.263-2.173c3.46-0.363,6.917-0.671,10.383-1.164l9.992-1.278l4.502-0.555
							c0.768-0.11,1.464-0.146,2.175-0.196l2.129-0.151l2.129-0.153c0.719-0.065,1.364-0.024,2.049-0.043
							c1.358,0.014,2.684-0.079,4.068,0.01c1.066,0.057,2.136,0.114,3.208,0.172c1.084,0.063,2.349,0.209,3.518,0.313
							c1.249,0.125,2.501,0.25,3.757,0.376l0.993,0.104c0.284,0.031,0.822,0.083,0.686,0.081l0.054,0.059
							c0.214,0.165,0.317,0.34,0.283,0.497C249.245,317.787,249.078,317.863,248.983,317.824z"/>
					</g>
				</g>
			</g>
		</g>
	</g>
</g>
<g id="Layer_2">
	<g>
		<g>
			<g>
				<g>
					<path fill="#231F20" d="M267.91,121.04l0.51,0.344C268.204,121.21,268.093,121.057,267.91,121.04z"/>
					<path fill="#231F20" d="M195.221,68.984l0.359-0.226C195.373,68.775,195.274,68.873,195.221,68.984z"/>
					<path fill="#231F20" d="M160.209,88.112l-0.469-0.25C159.944,88.014,160.089,88.08,160.209,88.112z"/>
					<g>
						<path fill="#231F20" d="M189.214,109.718c13.066,9.469,26.792,17.831,41.08,25.732c14.716,8.01,30.001,15.014,43.895,24.728
							c14.714,10.245,28.92,20.904,44.272,30.254c15.431,9.442,29.375,19.89,43.771,30.683c6.915,5.221,14.195,9.849,21.468,14.523
							c3.63,2.343,7.243,4.708,10.772,7.192l2.629,1.886c0.859,0.649,1.703,1.317,2.545,1.989c1.68,1.348,3.33,2.736,4.94,4.177
							c3.434,3.085,6.701,6.325,10.073,9.462c1.653,1.543,11.986,6.793,14.378,7.363c1.085,0.265-2.74-5.665-3.828-7.295
							c-3.57-5.325-9.358-13.18-12.685-16.812c-3.365-3.669-5.83-6.375-8.435-8.947c-2.634-2.529-5.38-4.962-9.26-8.173
							c-8.022-6.616-15.959-13.161-23.806-19.744c-7.853-6.57-15.527-13.339-22.896-20.672
							c-11.881-11.856-27.014-20.518-39.84-31.424c-6.951-5.888-13.747-11.969-20.662-17.907c-3.457-2.969-6.943-5.903-10.496-8.759
							c-3.575-2.851-7.216-5.625-10.954-8.28c-7.958-5.645-15.579-11.728-23.214-17.798l-5.733-4.543l-5.892-4.443
							c-3.949-2.936-7.944-5.812-12.027-8.569c-8.048-5.435-16.167-10.755-24.268-16.075c-8.139-5.061-16.26-10.152-24.271-15.432
							c-4.674-3.083-9.329-6.195-13.963-9.337l-3.472-2.362l-0.867-0.592l-0.217-0.148l-0.545-0.354l-0.691-0.434l-2.071-1.26
							l-7.543-4.447c-10.792-6.258-21.723-11.982-33.4-17.279l-2.425-1.082l-3.908-1.674c-2.602-1.08-5.214-2.106-7.826-3.027
							c-5.21-1.805-10.458-3.144-15.13-3.071c-2.341,0.024-4.536,0.306-6.644,0.945c-1.058,0.317-2.115,0.7-3.186,1.258
							c-0.53,0.27-1.084,0.6-1.521,0.911c-0.241,0.162-0.394,0.293-0.578,0.437l-0.517,0.562l-4.124,4.51l-3.155,7.04l-2.823,10.768
							l-1.382,5.315l-0.693,2.658l-0.356,1.658c-1.542,6.787-2.864,13.661-3.998,20.575c-1.065,6.928-1.809,13.891-2.214,20.782
							c-0.754,13.804-0.124,26.968,1.512,39.555c0.425,3.318,0.888,6.928,1.366,10.651c0.175,1.214,0.352,2.437,0.529,3.665
							l0.168,1.029l0.228,1.096l0.488,2.184c0.432,1.542,0.842,3.043,1.454,4.6c0.284,0.774,0.587,1.532,0.925,2.252
							c0.331,0.731,0.674,1.474,1.004,2.065l0.506,0.936c0.176,0.326,0.292,0.482,0.441,0.73l0.427,0.675
							c0.064,0.06,0.092,0.035,0.147,0.056c0.214,0.035,0.419,0.097,0.652,0.178c0.443,0.167,0.953,0.427,1.476,0.819l0.403,0.318
							c0.116,0.19,0.228,0.434,0.357,0.656c0.12,0.245,0.281,0.429,0.394,0.74l0.08,0.246c0.022,0.107,0.066,0.104,0.069,0.316
							c0.024,0.337,0.049,0.672,0.073,1.005c0.054,0.662,0.117,1.307,0.191,1.935c0.113,0.644,0.372,1.322,0.561,1.949
							c0.106,0.314,0.211,0.625,0.315,0.935c0.107,0.304,0.215,0.642,0.326,0.779c0.221,0.37,0.448,0.732,0.682,1.089
							c1.821,2.77,5.063,3.625,7.93,3.633c-1.175-0.005-1.446-0.942-1.183-2.362c0.131-0.71,0.396-1.541,0.748-2.436
							c0.176-0.487,0.373-1.068,0.586-1.595c0.108-0.27,0.214-0.539,0.334-0.803l0.508-0.757c0.342-0.491,0.698-1.004,1.041-1.429
							c0.353-0.413,0.66-0.813,0.976-1.218c0.322-0.417,0.636-0.822,0.938-1.211c0.289-0.399,0.548-0.796,0.805-1.181
							c0.532-0.769,0.905-1.491,1.196-2.058c0.305-0.568,0.463-0.977,0.498-1.13c0.557-1.876,0.625-3.913,0.327-5.968
							c-0.084-0.515-0.168-1.032-0.252-1.551l-0.179-1.301l-0.119-1.191l-0.057-1.13c-0.021-1.494,0.021-2.891,0.247-4.403
							c0.076-0.722,0.227-1.493,0.376-2.245c0.16-0.836,0.319-1.669,0.478-2.498c2.719-13.739,6.256-26.27,6.8-39.605
							c0.407-9.229,0.982-17.948,2.277-26.538c0.354-2.147,0.609-4.297,1.051-6.44c0.391-2.144,0.764-4.289,1.266-6.437l0.688-3.223
							l0.07-0.331l0.013-0.039l0.024-0.077l0.047-0.154l0.141-0.493c0.034-0.118,0.064-0.24,0.09-0.368
							c0.02-0.057,0.007-0.146,0.074-0.171c0.058-0.023,0.121-0.018,0.182-0.013c0.242,0.029,0.488,0.112,0.735,0.213l0.929,0.408
							l4.053,1.852c2.715,1.262,5.45,2.573,8.188,3.913c5.476,2.685,10.971,5.488,16.413,8.369c2.718,1.44,5.432,2.904,8.079,4.372
							c1.3,0.723,2.667,1.492,3.744,2.123c0.259,0.149,0.51,0.307,0.295,0.17l0.996,0.651l1.99,1.304
							c5.304,3.48,10.592,6.986,15.853,10.536c6.289,4.248,12.602,8.696,18.962,13.189c1.588,1.124,3.179,2.251,4.772,3.379
							c1.545,1.151,3.092,2.304,4.641,3.458C182.968,105.159,186.083,107.453,189.214,109.718z"/>
					</g>
				</g>
			</g>
		</g>
		<g>
			<g>
				<g>
					<path fill="#231F20" d="M241.179,363.561l0.426-0.396C241.398,363.324,241.23,363.393,241.179,363.561z"/>
					<path fill="#231F20" d="M174.631,408.515l-0.041-0.423C174.517,408.282,174.559,408.415,174.631,408.515z"/>
					<path fill="#231F20" d="M175.909,447.982l-0.416,0.283C175.71,448.163,175.829,448.07,175.909,447.982z"/>
					<g>
						<path fill="#231F20" d="M206.93,432.862c6.873-3.589,13.645-7.377,20.247-11.438l0.155-0.095l1.302-0.766l0.036-0.028
							l0.072-0.056l0.289-0.222l0.578-0.446l1.205-0.94c1.134-0.912,2.253-1.842,3.354-2.785c0.534-0.461,1.131-0.973,1.6-1.4
							l1.106-1.065l2.193-2.146c1.482-1.444,2.804-2.856,4.187-4.304c1.372-1.442,2.713-2.895,4.015-4.355
							c10.8-12.04,20.496-24.821,32.399-35.618c6.297-5.719,12.664-11.269,18.947-16.822l9.272-8.17l2.175-1.885l0.248-0.217
							l0.11-0.09c0.072-0.062,0.143-0.127,0.211-0.196s0.135-0.143,0.2-0.22l0.024-0.029l0.012-0.015l0.007-0.008l0.003-0.003
							l-0.112-0.21c-0.652-1.219-1.292-2.445-1.917-3.68l-0.927-1.858c-0.8-1.314,6.437,10.412,3.383,5.454l0.011-0.007l0.021-0.015
							l0.041-0.028l0.165-0.112c1.755-1.203,3.501-2.424,5.236-3.667c1.745-1.25,3.498-2.474,5.257-3.675
							c1.774-1.267,3.545-2.531,5.312-3.793c3.553-2.508,7.127-4.939,10.73-7.329l5.42-3.56c1.758-1.2,3.519-2.401,5.282-3.604
							c3.547-2.381,7.107-4.77,10.695-7.177c3.465-2.314,6.809-4.791,10.091-7.342c3.211-2.662,6.363-5.393,9.528-8.098
							s6.343-5.385,9.608-7.949c1.633-1.282,3.287-2.535,4.974-3.75l1.271-0.902l0.641-0.446l0.289-0.196l0.162-0.101
							c0.225-0.131,0.405-0.27,0.704-0.372l0.409-0.16c0.084-0.034,0.1-0.032,0.24-0.097l0.403-0.183
							c4.561-2.082,8.763-4.23,12.807-6.612c0.979-0.593,3.473-3.027,5.729-5.618c2.257-2.594,4.318-5.328,4.828-6.407
							c0.468-0.962-6.052,1.346-7.846,1.947c-2.959,1.016-6.614,2.357-10.111,3.528c-3.472,1.218-6.774,2.212-8.902,2.979
							c-1.11,0.388-2.012,0.614-3.222,1.061c-0.583,0.163-1.093,0.471-1.608,0.747c-0.546,0.302-0.967,0.514-1.383,0.725
							c-1.682,0.86-3.213,1.668-4.728,2.507c-3.027,1.677-5.988,3.483-9.953,6.1c-4.088,2.706-8.148,5.394-12.193,8.071
							c-4.102,2.596-8.269,5.068-12.423,7.531c-4.164,2.451-8.357,4.841-12.61,7.137l-3.203,1.699l-3.235,1.547
							c-2.165,1.017-4.345,2.003-6.542,2.954c-3.553,1.538-6.982,3.325-10.348,5.263l-1.261,0.732l-1.325,0.724l-2.638,1.479
							c-1.754,1-3.499,2.023-5.239,3.058l-2.608,1.557l-0.04,0.024l-0.011,0.007c-0.086,0.048,0.721-0.403,0.371-0.207l-0.035,0.021
							l-0.138,0.085l-0.275,0.171l-0.549,0.347l-1.089,0.71l-1.076,0.729l-0.508,0.357l-0.331,0.258
							c-1.76,1.367-3.594,2.766-5.162,4.05c-3.3,2.62-6.458,5.152-9.752,7.531c-14.122,10.304-28.617,19.922-41.62,31.383
							c-6.903,6.088-14.18,11.775-21.362,17.209l-5.309,3.965l-0.308,0.227l-0.201,0.132l-0.397,0.268
							c-0.262,0.181-0.519,0.366-0.771,0.556l-0.376,0.289l-0.188,0.149l-0.366,0.229l-0.732,0.461l-0.366,0.231l-0.091,0.058
							l-0.045,0.029c-0.052-0.064,0.089,0.174,0.176,0.326l0.281,0.491l2.251,3.933l2.251,3.933l1.126,1.966l0.563,0.983
							c-12.108-23.886-3.364-6.618-6.069-11.947l-0.012,0.006l-0.024,0.013l-0.388,0.193l-0.776,0.39l-1.549,0.783l-3.086,1.592
							c-2.052,1.073-4.091,2.172-6.113,3.303c-15.945,8.934-31.51,18.507-47.566,27.261c-4.684,2.558-9.384,5.085-14.103,7.58
							l-7.09,3.719l-7.125,3.817c-3.007,1.607-6.001,3.237-8.985,4.884l-8.688,4.814l-4.291,2.413l-0.676,0.393l-1.184,0.726
							c-0.404,0.228-0.841,0.456-1.323,0.534c-0.238,0.035-0.494,0.019-0.697-0.104c-0.203-0.121-0.341-0.317-0.428-0.529
							c-0.318-0.873-0.131-1.878-0.011-2.83l0.041-0.272l0.026-0.128l0.007-0.035l0.019-0.296l0.037-0.591
							c0.112-1.576,0.224-3.15,0.335-4.722c0.272-3.146,0.392-6.275,0.636-9.409c0.25-3.136,0.412-6.261,0.571-9.387
							c0.17-3.127,0.357-6.259,0.415-9.379c0.075-3.074,0.15-6.149,0.225-9.229c0.077-2.854,0.124-5.707,0.124-8.563
							c-0.013-1.428-0.025-2.857-0.037-4.288l-0.049-2.147l-0.016-0.537l-0.001-0.249l0-0.029v-0.008l-1.379-0.055l-2.52-0.08
							l-2.469-0.118l-1.234-0.076l-0.617-0.043l-0.528-0.025c-1.385-0.066-2.792-0.183-4.154-0.328
							c-0.573-0.04-1.146-0.095-1.717-0.164l-0.856-0.115l-0.428-0.065l-0.346-0.04c-0.457-0.058-0.912-0.136-1.364-0.234
							c-0.247-0.062-0.405-0.079-0.579-0.115c-0.173-0.036-0.345-0.08-0.515-0.131c-0.653-0.176-1.089-0.397-1.14-0.518
							c-0.013-0.039,0.016,0.019-0.099,0.177c-0.047,0.065-0.116,0.128-0.231,0.256c-0.105,0.106-0.193,0.167-0.443,0.391
							l-0.327,0.263l-0.722,0.552c-0.84,0.646-1.696,1.271-2.566,1.874c-23.292,16.915-6.452,4.694-11.649,8.473l0.008,0.01
							l0.015,0.02l0.288,0.388c0.03,0.044,0.457,0.597,0.782,0.973l0.259,0.3l0.533,0.578c0.476,0.497,0.978,0.973,1.501,1.42
							c0.372,0.302,0.214,0.215,1.299,1.022c0.841,0.608,1.75,1.165,2.696,1.646c0.946,0.481,1.928,0.887,2.91,1.207
							c0.702,0.295,4.297,1.158,6.702,0.984c2.709-0.049,5.439-0.707,7.658-1.689c1.969-0.891,3.011-1.578,4.478-2.704
							c1.343-1.067,2.57-2.337,3.575-3.678c1.182-1.616,1.683-2.644,1.724-2.723c0.44-0.837,0.827-1.717,1.149-2.615
							c0.162-0.449,0.307-0.902,0.436-1.357c0.16-0.578,0.176-0.673,0.21-0.808c0.142-0.601,0.258-1.209,0.348-1.82
							c0.108-0.771,0.099-0.798,0.131-1.108l0.059-0.773l0.024-0.541l0.01-0.398l0.001-0.658c-0.009-0.715-0.034-1.103-0.057-1.49
							l-0.07-0.927l-0.018-0.205c-0.004-0.043-0.002-0.012-0.004-0.021h-0.007c-0.006-0.003,0,0.134-0.009,0.194
							c-0.083-1.43-0.167-2.862-0.251-4.297c-0.868-12.986-1.372-30.576-9.026-41.354c-1.859-2.617-5.112-3.384-7.979-3.352
							c4.702-0.04-4.875,14.296-5.314,15.319c-2.679,6.262-3.782,13.144-5.583,19.714c-0.872,3.18-1.817,6.274-2.76,9.337
							c-0.469,1.53-0.935,3.054-1.401,4.576l-0.043,0.143l-0.043,0.263l-0.083,0.537c-0.059,0.377-0.097,0.696-0.129,1
							c-0.027,0.389-0.085,0.438-0.132,0.598c-0.053,0.102-0.103,0.244-0.163,0.244l-0.021,0.011l-0.005,0.002
							c-0.012,0.001-0.011,0.001,0.098-0.002l0.234-0.006l0.938-0.022l3.051-0.086l2.858-0.008c0.765-0.01,1.531,0.006,2.297,0.047
							c0.426,0.03,0.667,0.022,0.955,0.037c0.283,0.014,0.565,0.038,0.847,0.071l0.688,0.077c0.18,0.019,0.416,0.094,0.543,0.116
							c0.105,0.002,0.258,0.103,0.298,0.116c0.061,0.045,0.029,0.065,0.054,0.003c0.012-0.04,0.036-0.073,0.067-0.097
							c0.044-0.062,0.098-0.125,0.155-0.179c0.065-0.048,0.377-0.345,0.623-0.529l0.864-0.658l1.763-1.314l7.106-5.125l-0.016-0.041
							c-0.014-0.031-0.001-0.026-0.1-0.173l-0.11-0.165l-0.153-0.216c-0.163-0.218-0.323-0.422-0.503-0.64
							c-0.333-0.389-0.69-0.762-1.063-1.114l-0.24-0.217l-0.296-0.253c-0.2-0.167-0.405-0.328-0.615-0.483
							c-0.209-0.155-0.423-0.305-0.641-0.448l-0.328-0.21l-0.472-0.276c-0.932-0.52-1.964-0.944-3.015-1.233
							c-0.262-0.072-0.525-0.137-0.788-0.192c-0.307-0.063-0.423-0.091-0.895-0.159c-0.81-0.113-1.667-0.157-2.531-0.115
							c-0.863,0.04-1.731,0.165-2.558,0.365c-0.815,0.192-1.673,0.502-2.163,0.721c-1.15,0.493-2.289,1.184-3.279,2.001
							c-0.248,0.204-0.487,0.415-0.715,0.632c-0.21,0.196-0.489,0.483-0.613,0.618c-0.19,0.205-0.375,0.418-0.555,0.637
							c-0.36,0.438-0.696,0.902-1.001,1.383c-0.153,0.239-0.297,0.483-0.434,0.73l-0.279,0.53c-0.108,0.214-0.21,0.431-0.308,0.651
							c-0.192,0.433-0.375,0.907-0.515,1.328c-0.149,0.438-0.281,0.884-0.395,1.334l-0.192,0.8l-0.592,2.938l-0.179,0.879
							c-0.059,0.305-0.107,0.503-0.154,0.693c-0.184,0.8-0.369,1.603-0.554,2.407c-0.355,1.614-0.68,3.246-0.964,4.901
							c-0.568,3.311-0.974,6.718-1.139,10.261l-0.215,5.203l-0.149,5.107c-0.118,3.39-0.236,6.776-0.355,10.162l-0.421,10.107
							c-0.039,1.686-0.185,3.358-0.268,5.037l-0.14,2.516l-0.033,0.629l-0.074,1.045l-0.198,2.626
							c-0.201,3.512-0.714,6.992-0.837,10.365c-0.148,3.363-0.092,6.619,0.277,9.632c0.411,2.976,1.055,5.754,1.981,8.258
							c0.978,2.464,2.154,4.731,3.652,6.79l1.213,1.488l1.372,1.402L67.984,488c0.482,0.482,1.082,0.875,1.616,1.316
							c2.269,1.685,4.873,2.883,7.354,3.621c4.981,1.471,10.08,1.486,15.791,0.146c4.824-1.142,9.99-3.457,15.1-6.381l12.6-7.205
							l15.749-9.113l7.702-4.469c2.559-1.491,5.241-2.921,7.861-4.376c5.27-2.895,10.556-5.764,15.867-8.588
							C180.33,446.203,193.764,439.758,206.93,432.862z"/>
					</g>
				</g>
			</g>
		</g>
	</g>
</g>
</svg>
