<?xml version="1.0" encoding="utf-8"?>
<!-- Generator: Adobe Illustrator 21.0.0, SVG Export Plug-In . SVG Version: 6.00 Build 0)  -->
<svg version="1.1" id="Layer_1" xmlns="http://www.w3.org/2000/svg" xmlns:xlink="http://www.w3.org/1999/xlink" x="0px" y="0px"
	 viewBox="0 0 500 500" style="enable-background:new 0 0 500 500;" xml:space="preserve">
<g>
	<g>
		<g>
			<path d="M165,385.7l0.3,0C165.1,385.7,165.1,385.6,165,385.7z"/>
			<path d="M121.3,373.8l0.2-0.3C121.3,373.5,121.3,373.7,121.3,373.8z"/>
			<path d="M97.3,401.5l-0.4-0.2C97.1,401.4,97.2,401.5,97.3,401.5z"/>
			<g>
				<path d="M119.6,411.7c4.2,1.3,8.4,2.3,12.9,3.1c4.4,0.7,9,1.2,13.7,1.3c9.7,0.2,19.6-1.1,29.4-0.5c5.7,0.4,12.3,0.2,18.7-1.8
					c1.6-0.6,3.1-1.2,4.7-1.9c1.5-0.8,3-1.6,4.4-2.5c1.3-1,2.7-2,3.9-3.1c0.6-0.6,1.2-1.2,1.7-1.8l0.8-0.9c0.3-0.3,0.6-0.6,0.7-0.9
					c2.9-4.1,6.3-7.8,9.4-11.5c1.6-1.8,3.3-3.6,4.9-5.4c1.6-1.8,3.3-3.5,4.9-5.3c3.2-3.4,5.7-7.4,8.3-11.2c2.6-3.8,5.3-7.5,8.8-10.5
					c0.5-0.4,0.9-0.8,1.4-1.2l0.7-0.6l0.4-0.3l0.2-0.1l0.2-0.2l1.9-1.7l0.9-0.8l0.7-0.7c0.2-0.2,0.6-0.9,0.9-1.6
					c0.2-0.6,0.4-1.3,0.6-2.1c0.5-1.5,0.9-3.2,0.9-3.9c0-0.3-0.9-0.4-2-0.2c-1.1,0.1-2.4,0.4-2.9,0.6c-0.9,0.3-1.8,0.6-2.8,1
					c-1,0.5-2.1,1-3.1,1.5c-1,0.4-2,0.9-2.9,1.2c-0.9,0.4-1.7,0.8-2.2,1.1c-4.7,2.8-6.9,4.1-11,7.8c-4.2,3.8-8.1,7.7-12.2,11.3
					c-2.1,1.8-4.2,3.6-6.4,5.2c-2.2,1.6-4.5,3.2-6.9,4.6c-1.9,1.2-3.7,2.4-5.4,3.8c-0.8,0.7-1.6,1.4-2.4,2.2l-1.2,1.1
					c-0.3,0.2-0.5,0.4-0.8,0.6c-2,1.7-4.2,3-6.9,3l-1.1,0c-0.4,0-0.8-0.1-1.1-0.1l-1.1-0.1l-1.2-0.3c-0.4-0.1-0.8-0.2-1.2-0.3
					l-1.2-0.4l-2.9-0.9c-1.1-0.3-2.1-0.6-3.2-0.9l-3.2-0.9c-1.1-0.3-2.2-0.5-3.2-0.8c-1.1-0.3-2.2-0.5-3.3-0.7
					c-9.5-1.7-18.6-6.4-28.7-8.9c-5-1.2-10.2-2.3-14-3.3c-2-0.5-3.5-1.1-4.8-1.6c-1.3-0.6-2.4-1.2-3.6-2.2c-1.3-1.1-2.8-2.6-4.3-4.4
					c-0.7-0.9-1.5-1.9-2.2-2.9c-0.4-0.5-0.7-1-1.1-1.6l-1.2-1.8c-8-11.9-16.3-23.5-22.9-36.2c-6-11.5-7.8-24.5-14.3-36.4
					c-0.8-1.6-1.7-3.3-2.7-5.1c-0.5-0.9-1-1.8-1.6-2.6c-0.7-1.2-1.4-2.2-2-2.9c-0.6-0.7-1.1-1.2-1.7-1.5c-0.5-0.3-1-0.3-1.5-0.3
					c-1.1-0.2-2.6-0.6-4.3-1.3c-1.7-0.7-4.6-1.5-7.4-1.9c2.3,0.4,0.5,1.4-1.4,3.3c-1,1-2,2.1-2.7,3.1c-0.7,1-1.2,1.9-1.2,2.1
					c-0.8,2.3-0.8,4.6-0.9,6.6l-0.1,1.5c0,0.5-0.1,0.9-0.1,1.5c0,1-0.1,2.1-0.1,3.1c-0.6,8.1-2.5,16-0.2,23.7c0.6,2,1.3,4,2,6
					c0.3,1,0.7,2,1.1,2.9l1.2,2.9c1.6,3.9,3.3,7.7,5.3,11.5l3,5.6L53,347c0.5,0.9,1.1,1.8,1.6,2.7c2.2,3.6,4.4,7.3,6.7,10.8
					c2,3,4,6,6,9c1,1.5,2.1,2.9,3.2,4.4l3.2,4.3l3.2,4.3c1.2,1.6,2.4,3.1,3.8,4.7c2.7,3.2,5.8,6.5,9.6,9.7c2.3,1.9,4.9,3.8,7.5,5.4
					c2.7,1.6,5.4,3.1,8,4.2C111.1,409,115.6,410.4,119.6,411.7z"/>
			</g>
		</g>
	</g>
</g>
<g>
	<g>
		<g>
			<path d="M135.8,208.3l0.2,0C135.9,208.3,135.9,208.2,135.8,208.3z"/>
			<path d="M110.9,206.6l0.1-0.4C110.9,206.4,110.9,206.5,110.9,206.6z"/>
			<path d="M101.2,241l-0.2,0C101.1,241,101.2,241,101.2,241z"/>
			<g>
				<path d="M113,243.8c2.7,0.3,5.3,0.3,8,0c2.6-0.4,5.3-1,7.8-2c2.6-1,5.3-2.3,7.8-3.4c2.6-1.1,5.1-2,7.7-2.2
					c5.6-0.4,10.4-0.3,15.8-1.5c5.4-1.3,10.6-0.8,16.2-0.4c2.7,0.2,5.3-0.4,8-1.1c1.3-0.3,2.7-0.6,4-0.7c1.4-0.1,2.7-0.2,4.1,0
					c1.5,0.2,3,0.8,4.5,1c0.8,0.1,4.2-2.4,4.8-3.5c0.2-0.5-2.2-2.6-2.8-3.1c-1.1-0.9-2.4-1.9-3.6-2.9c-1.2-0.9-2.3-1.8-3.1-2.1
					c-1.5-0.8-2.6-1.3-3.7-1.7c-1.1-0.4-2.2-0.7-3.6-1c-6.1-1-12.1-1.9-18.1-5.2c-2.5-1.4-5-1.7-7.6-1.7c-1.3,0-2.6-0.1-3.9-0.1
					c-1.3-0.1-2.7-0.2-4-0.5c-0.7-0.2-1.4-0.3-2.1-0.5l-2-0.6c-1.4-0.4-2.7-0.8-4.1-1.1c-2.7-0.7-5.3-1.3-8-1.2
					c-2.8,0-5.6-0.4-8.3-1c-1.4-0.3-2.7-0.5-4.1-0.7c-1.4-0.2-2.7-0.4-4-0.4l-7.9,0.1c-1.3,0-2.6-0.1-3.9-0.1
					c-1.3-0.1-2.6-0.2-3.9-0.4c-3-0.5-5.9-1.1-8.8-2.1c-7.4-2.3-14.9-3.5-21.7-6.4c-1.5-0.7-2.9-1.5-4.3-2.5c-1.3-1-2.5-2.1-3.8-3.1
					c-1.3-1-2.4-2.1-3.6-3c-0.6-0.5-1.3-0.9-2-1.2c-0.7-0.4-1.3-0.8-2.1-1.1c-0.8-0.3-1.6-0.7-2.5-1c-0.8-0.2-2.1-0.8-4-1.4
					c-0.5-0.2-1.1-0.3-1.6-0.5l-0.8-0.2c-0.3-0.1-0.6-0.1-1-0.2c-0.6-0.1-1.3-0.2-1.9-0.2c-0.6,0-1.1,0.1-1.7,0.1
					c-1.1,0.2-2.2,0.5-3.2,0.9c-1,0.5-2,1.1-2.9,2c-1.7,1.7-2.7,4.9-3.2,7.7c0.2-1.2,0.6-1.4,1.1-1.2c0.2,0.1,0.5,0.4,0.7,0.8
					c0.2,0.4,0.4,0.9,0.6,1.4c0.4,1,0.6,2.3,0.7,3.3c0.1,1,0.1,1.8,0.1,1.9c0.2,1.6,0.3,2.8,0.5,4.1c0.2,1.2,0.6,2.5,1,3.9
					c0.8,2.7,1.3,5.7,2.2,8.4c1,2.6,2.2,5,4.1,6.7c1,0.9,2.1,1.6,3.1,2.4c1.1,0.7,2.2,1.5,3.3,2.1c1.1,0.7,2.3,1.3,3.4,1.8
					c1.2,0.6,2.3,1.1,3.5,1.6c4.7,2,9.6,3.5,14.5,4.9c2.1,0.6,4.1,1.1,6.2,1.6c2.1,0.5,4.1,0.9,6.2,1.3c2.1,0.4,4,0.8,6.2,1.2
					c2.1,0.4,4.2,0.7,6.3,1.2c2.5,0.4,5,1,7.6,1.6C107.9,243,110.5,243.5,113,243.8z"/>
			</g>
		</g>
	</g>
</g>
<g>
	<g>
		<g>
			<path d="M257.3,235.2l-0.1,0.1C257.2,235.3,257.3,235.3,257.3,235.2z"/>
			<path d="M279.8,230.5l0.1,0.4C279.9,230.7,279.9,230.6,279.8,230.5z"/>
			<path d="M274.3,195.3l0.1-0.1C274.4,195.2,274.3,195.2,274.3,195.3z"/>
			<g>
				<path d="M265.9,196c-1.8,0.3-3.6,0.9-5.2,1.8c-0.8,0.4-1.7,1-2.5,1.5c-0.8,0.5-1.7,1.2-2.5,1.9c-1.7,1.4-3.3,3.1-5,4.6
					c-1.7,1.5-3.5,2.8-5.4,3.2c-2.1,0.5-4.1,0.9-6.2,1.4c-1,0.3-2,0.5-3.1,0.9c-1,0.3-2,0.7-3,1.1c-2,0.9-4.1,1.4-6.2,1.7
					c-1,0.1-2.1,0.2-3.1,0.3c-1.1,0.1-2.1,0-3.2,0c-2.1,0-4,0.8-6,1.5c-1,0.3-2,0.7-3,0.8c-0.5,0.1-1.1,0.2-1.7,0.2
					c-0.6,0-1.2,0-1.8-0.1c-1.3-0.2-2.7-0.7-3.8-0.9c-0.6-0.1-3,2.3-3.5,3.4c-0.2,0.5,1.7,2.6,2.2,3.2c1.7,1.8,4.4,4.2,5.5,5
					c1.2,0.7,2.1,1.3,3,1.7c0.9,0.4,1.8,0.7,3.1,0.9c5.3,0.8,10.4,1.3,15.9,3.8c4.5,2.1,8.8-0.1,13.1,0.4c4.8,0.6,9.8,2.1,14.4,1
					c2.4-0.6,5-0.6,7.5-0.7c2.5-0.1,5.2-0.4,7.6-1.1c2.4-0.8,4.8-1.7,7.2-2.5c2.3-1,4.6-1.9,7-2.6c2.8-0.9,5.6-1.5,8.4-2.2
					c3.5-0.8,6.9-2,10.3-3.3c3.3-1.3,6.5-2.7,9.9-3.9c0.8-0.3,1.5-0.5,2.3-0.6c0.8-0.2,1.5-0.3,2.3-0.4c1.5-0.2,3.1-0.3,4.7-0.5
					c3.3-0.4,6.7-1.1,10-3.2c0.4-0.3,0.9-0.6,1.3-0.9c0.5-0.3,0.9-0.7,1.4-1c0.9-0.7,1.9-1.5,2.7-2.6c0.8-1.1,1.5-2.3,1.9-3.8
					c0.4-1.5,0.5-3.3,0.2-5.3c-0.3-2-1.9-4.8-3.5-7.2c1.3,2-0.3,1.4-2.1,0.3c-1.9-1.1-3.9-2.8-4.2-3c-1.4-0.8-2.5-1.3-3.6-1.7
					c-1.1-0.4-2.2-0.8-3.3-1.3c-2.1-1-4.3-2.4-6.2-3.5c-2-1.1-3.9-2-5.6-1.9c-1.8,0.1-3.6,0.4-5.4,0.8c-0.9,0.2-1.9,0.5-2.8,0.7
					c-0.9,0.3-1.7,0.5-2.6,0.8c-3.4,1.1-6.6,2.5-10,3.8c-5.6,1.9-11.1,4.6-16.7,5.9C273,195.1,269.4,195.5,265.9,196z"/>
			</g>
		</g>
	</g>
</g>
<g>
	<g>
		<g>
			<path d="M254.1,350.9c0,0-0.3,0.2-0.3,0.2C253.9,351,254,351,254.1,350.9z"/>
			<path d="M288.2,316.8l0.3,0.3C288.4,317,288.3,316.9,288.2,316.8z"/>
			<path d="M263.5,290.4l0.1-0.2C263.5,290.2,263.5,290.3,263.5,290.4z"/>
			<g>
				<path d="M253.4,302.2c-2.3,3.2-4.1,6.1-5.4,8.7c-1.3,2.5-2.3,4.7-2.9,6.6c-0.3,0.9-0.6,1.9-0.9,2.7l-0.1,0.3
					c-0.1,0.1-0.2,0.3-0.3,0.4l-0.7,0.8c-0.4,0.5-0.9,1.1-1.5,1.6c-0.6,0.5-1.2,1-1.8,1.5c-0.7,0.5-1.4,0.9-2.1,1.3
					c-0.7,0.4-1.5,0.8-2.3,1.1c-0.8,0.3-1.6,0.7-2.5,0.9c-3.6,1.1-7.6,1.9-11.7,3.1l-1.6,0.4l-1.5,0.4c-0.9,0.3-1.8,0.6-2.7,0.9
					c-1.8,0.6-3.6,1.2-5.3,1.9c-3.5,1.4-7.1,2.1-10.6,2.3c-1.8,0.2-3.5,0.1-5.2,0c-0.9-0.1-1.7-0.2-2.6-0.3c-1-0.1-1.9-0.2-2.9-0.3
					c-4.1-0.4-8.2-0.1-12.3,0.2c-3.9,0.4-7.9,0.7-11.8-0.1c-1-0.2-1.9-0.5-2.8-0.8c-0.5-0.1-0.9-0.3-1.3-0.5l-1.2-0.5
					c-0.4-0.1-1.5,0.1-2.8,0.5c-1.2,0.3-2.5,0.7-3,1.1c-0.2,0.2-0.1,0.9,0.3,1.8c0.4,0.9,0.9,1.9,1.2,2.3c1,1.2,2.4,2.8,3.9,3.9
					c1.6,1.3,3.2,2.2,4.2,2.7c4.4,1.9,6.4,2.7,10.9,3.4c2.4,0.4,4.6,0.8,6.8,1.2c2.2,0.4,4.5,0.9,6.6,1.4l3.6,0.9l1.9,0.5l1.9,0.4
					c2.6,0.6,5.2,1.2,7.9,1.8c4.3,1,8.7,0.5,12.9-0.2c2.1-0.4,4.1-0.9,6.1-1.3l1.5-0.3c0.5-0.1,1-0.2,1.4-0.3
					c0.9-0.1,1.8-0.2,2.6-0.3c4-0.2,8.2-0.2,12.8-0.6c4.6-0.4,9.6-1.3,14.6-3.6l2-0.9l1-0.5c0.4-0.2,0.8-0.4,1.2-0.6
					c0.8-0.4,1.6-0.8,2.4-1.3l2.2-1.4c2.9-1.9,5.5-3.9,7.7-6c2.2-2.1,4.2-4.2,5.9-6.2c1.7-2,3.2-4.1,4.4-6c1.2-1.9,2.3-3.8,3.3-5.4
					l0.7-1.2c0.2-0.4,0.5-0.8,0.7-1.1l1.8-2.8l2.1-3.3l1.9-3.3l0.9-1.6l0.9-1.6l1.7-3.1c2.6-4.6,5.1-8.8,7.6-12.5
					c0.8-1.1,1.6-2.1,2.3-3.2c0.8-1,1.5-1.9,2.2-2.9l3.1-4.1c1.1-1.4,2.1-2.8,3.1-4.3l2.9-4.3l2.7-4.3l1.4-2.2l1.3-2.2l2.7-4.3
					c1.3-2,2.6-4,4.1-5.9c1.4-1.9,2.8-3.8,4.3-5.6c1.4-1.8,2.9-3.6,4.2-5.5c0.7-0.9,1.3-1.8,2-2.8l1-1.4l0.5-0.7l0.2-0.4l0.4-0.7
					c0.5-1,1.1-2,1.6-3c0.5-1,0.9-2.1,1.2-3.2c0.2-0.5,0.3-1.1,0.5-1.6l0.2-0.7l0.1-0.3c0-0.1,0.1-0.2,0.1-0.3l0.1-0.4
					c0-0.1,0.1-0.3,0-0.3c0,0,0-0.1-0.1-0.1c-0.1,0-0.2-0.1-0.3-0.2c-0.1-0.1-0.2-0.2-0.4-0.4c0.2-0.4,0.4-0.7,0.7-1.1
					c0.2-0.4,0.5-0.9,0.7-1.3c0.5-0.9,0.9-1.8,1.2-2.8c0.7-1.9,1.1-3.8,1.3-5.7c0.4-3.8-0.5-7.3-2.4-10.1c-1.5-2.1-4.7-2.9-7.5-3.3
					c2.3,0.3,0.8,2.2-1.6,3.6c-1.2,0.7-2.5,1.2-3.6,1.6c-1.1,0.3-1.9,0.5-2.1,0.6c-2.7,1.1-4.7,2-6.8,2.7c-1,0.6-2,1.2-3.1,1.8
					c-1.3,0.8-2.4,1.8-3.5,2.9c-0.6,0.5-1.1,1.1-1.6,1.7c-0.5,0.6-1.1,1.2-1.5,1.7l-0.7,0.6c-0.2,0.1-0.4,0.2-0.6,0.3
					c-0.4,0.1-0.7,0.2-1,0.2c-0.6,0.1-1.3,0.1-1.8,0.1c-0.1,0-0.1-0.1-0.2,0l-0.4,0.2l-0.7,0.5c-0.5,0.3-0.9,0.7-1.4,1.1
					c-0.9,0.7-1.7,1.6-2.4,2.4c-8.7,10.6-14.6,22.1-21.6,32l-1.1,1.6l-1.1,1.5l-2.3,3.1l-3.1,4.3l-0.8,1.1l-0.7,1.1l-1.4,2.2
					c-3.5,5.8-6.3,11.2-9.1,15.8c-0.8,1.3-1.7,2.7-2.5,3.9c-0.4,0.6-0.9,1.2-1.3,1.7c-0.4,0.6-0.9,1.2-1.3,1.7l-1.3,1.5l-1.6,1.9
					C255.7,299.1,254.5,300.6,253.4,302.2z"/>
			</g>
		</g>
	</g>
</g>
<g>
	<g>
		<g>
			<path d="M403.4,268.2L403.4,268.2C403.5,268.2,403.5,268.2,403.4,268.2z"/>
			<path d="M392.1,256.4l0.3-0.2C392.3,256.2,392.2,256.3,392.1,256.4z"/>
			<path d="M362,275.3l-0.1-0.1C361.9,275.3,362,275.3,362,275.3z"/>
			<g>
				<path d="M367,283.7c1.4,1.7,3,3.2,4.9,4.4c1.9,1.2,4,2.2,6.2,2.8c2.4,0.6,4.9,1,7.3,1.5c2.4,0.4,4.6,0.9,6.5,2
					c2,1.1,3.9,2.2,5.9,3.3c1,0.5,2.1,0.9,3.2,1.3c1.1,0.4,2.2,0.7,3.4,0.9c0.6,0.1,1.1,0.2,1.7,0.4c0.6,0.1,1.1,0.2,1.7,0.4
					c1.1,0.3,2.1,0.6,3.2,1c1,0.4,2,0.9,3.1,1.3c1,0.4,2,0.8,3.1,1.2c1,0.4,2.1,0.6,3.1,0.7l0.2,0l0.3,0l0.5,0l1.1,0l2.1,0
					c1.4,0,2.7,0.1,4,0.2c0.3,0,0.7,0.1,1,0.2c0.3,0.1,0.7,0.1,1,0.2c0.7,0.1,1.3,0.1,2,0.2c1.5,0.1,2.9,0.1,4.4-0.1
					c0.2,0,0.5-0.3,0.8-0.7c0.2-0.2,0.4-0.4,0.6-0.7c0.2-0.2,0.5-0.5,0.4-0.8l0-0.4l-1.4-4.2l0,0l0,0l0-0.1l0-0.2
					c0-0.1,0-0.2-0.1-0.3c0,0,0-0.1,0,0c0,0,0,0.1,0,0.1c0,0.1,0,0.1,0,0.1c0,0,0,0,0,0c0,0,0-0.1,0-0.1c0,0,0-0.1,0-0.1
					c0,0.1,0,0,0.1,0.4c0,0.1,0,0.1,0,0.2c0-0.1,0-0.1-0.1-0.2c-0.1-0.1-0.2-0.2-0.2-0.2c-0.1-0.1-0.2-0.2-0.3-0.3
					c-0.1-0.1-0.3-0.2-0.4-0.2c-0.3-0.2-0.6-0.3-0.8-0.5c-0.5-0.3-1-0.6-1.6-0.9c-1-0.6-1.8-1.2-2.3-1.5c-1.1-0.6-1.8-1.4-2.4-2.1
					c-0.6-0.6-1.2-1.1-2-1.6c-0.8-0.5-1.6-1-2.3-1.4c-0.9-0.6-1.9-1.2-2.7-1.9c-0.9-0.7-1.7-1.4-2.5-2.2c-0.8-0.9-1.4-1.9-2.1-3
					c-0.5-0.9-1.1-1.6-1.7-2.1c-0.6-0.5-1.3-1-2-1.4c-0.7-0.4-1.4-0.7-2.1-1.2c-0.3-0.2-0.7-0.4-1-0.7c-0.3-0.3-0.6-0.6-0.9-0.9
					c-2.3-3-3.7-6.8-6.4-8.7c-0.7-0.5-1.3-1.2-1.9-1.9c-0.3-0.4-0.6-0.7-0.8-1.1l-0.7-1.2c-1-1.6-2-3-3.2-4.3
					c-0.6-0.6-1.3-1.2-2-1.7c-0.7-0.6-1.3-1.2-2-1.8c-0.7-0.6-1.3-1.2-2-1.9c-0.6-0.7-1.2-1.4-1.7-2.1c-0.6-0.9-1.3-1.7-1.8-2.6
					c-0.5-0.9-1-1.9-1.5-2.9c-2.4-5-5.8-9.3-7.6-13.9c-0.8-2.1-0.6-4.4-0.4-6.5c0.2-2.1,0.4-4-0.5-5.7c-0.5-0.9-0.8-2-2-3.1
					c-0.5-0.5-1.3-1.1-2.4-1.6c-1.1-0.6-2.5-1.1-4.3-1.7c-1.8-0.6-5-0.9-7.9-1.1c2.3,0.1,1.1,0.8-0.9,1.6c-2,0.8-4.5,1.7-4.7,1.8
					c-1.4,0.8-2.3,1.6-3.2,2.5c-0.8,0.9-1.5,1.8-2.4,2.8c-1.6,1.9-3.6,3.9-5,5.9c-1.5,2.1-2.5,4.2-2.5,6.4c0,4.4,1,8.6,2.5,12.5
					c1.5,3.9,3.4,7.4,5.3,10.8c1.6,2.9,3.3,5.5,5.2,8.2l5.6,8.1c0.6,0.8,1.1,1.7,1.6,2.5c0.5,0.9,1.1,1.7,1.7,2.6
					C364.6,280.3,365.6,282.1,367,283.7z"/>
			</g>
		</g>
	</g>
</g>
<g>
	<g>
		<g>
			<path d="M91.3,265.5l0.2,0C91.4,265.5,91.3,265.4,91.3,265.5z"/>
			<path d="M65.2,254.6l0.2-0.3C65.3,254.4,65.3,254.5,65.2,254.6z"/>
			<path d="M49.2,286.2C49.2,286.2,49.2,286.3,49.2,286.2C49.2,286.3,49.2,286.3,49.2,286.2z"/>
			<g>
				<path d="M56.3,290.9c2.6,1.3,5.3,2.2,8.1,2.9c2.9,0.6,5.7,1.1,8.8,1c1.6,0,3.2-0.1,4.7-0.1c1.6-0.1,3.2-0.2,4.7-0.3
					c3.1-0.1,6.2-0.1,9.1,0.5c1.5,0.4,3.1,0.7,4.6,1.1c1.5,0.3,3.1,0.7,4.6,1c1.6,0.3,3.1,0.5,4.7,0.6c0.8,0.1,1.6,0.1,2.4,0.2
					c0.8,0,1.6,0,2.4,0c1.6-0.1,3.2,0,4.8,0.1l3,0.1c0.5,0,1,0,1.4,0l1.4,0c1.6,0,3.2,0,4.8-0.1c1.5,0,2.7,0.1,4.1,0.2
					c1.3,0.1,2.5,0,3.8-0.2c1.3-0.1,2.7-0.3,4-0.5c1.4-0.2,2.7-0.3,4.1-0.3c1.4,0.1,2.8,0.3,4.2,0.7c0.7,0.2,1.4,0.6,2.2,0.9
					c0.7,0.3,1.5,0.7,2.2,1c0.7,0.3,4.8-1.4,5.6-2.3c0.4-0.4-1.6-3-2.1-3.7c-1.8-2.3-4.6-5.3-6.1-6.3c-1.5-1-2.6-1.8-3.8-2.4
					c-0.6-0.3-1.2-0.6-1.8-0.8c-0.7-0.2-1.4-0.4-2.2-0.6c-1.8-0.4-3.5-0.8-5.3-1.2c-1.8-0.3-3.6-0.6-5.4-1c-0.9-0.2-1.8-0.4-2.8-0.6
					c-0.9-0.2-1.7-0.4-2.6-0.6c-0.8-0.2-1.5-0.5-2.3-0.8c-0.7-0.3-1.3-0.7-1.9-1.1c-0.4-0.4-0.8-0.7-1.1-0.9
					c-0.1-0.1-0.2-0.1-0.3-0.2l-0.5-0.2c-0.3-0.1-0.6-0.3-0.9-0.4c-1.2-0.4-2.5-0.7-3.8-1c-1.3-0.2-2.6-0.5-3.8-0.8
					c-1.3-0.3-2.5-0.7-3.7-1.3c-2.5-1.4-5-2.9-7.4-4.4c-1.2-0.8-2.5-1.4-3.7-2.1c-1.3-0.7-2.5-1.2-3.9-1.6c-5.7-1.8-10.6-5.9-16.3-8
					l-9.1-3.2c-1-0.3-1.9-0.7-3-1l-3.6-1c-1.3-0.3-2.9-0.6-4-0.8l-1.3-0.2l-0.7-0.1c-0.1,0,0,0,0,0l0,0h0l0,0h0l0,0.2
					c-0.2,1.1-0.5,2.2-0.8,3.3l-0.5,1.6l-0.2,0.8c-0.2,1-0.6,2-1,3l-0.3,0.7c0,0.2,0,0.3,0,0.5c0,0.3-0.1,0.6-0.1,0.9
					c-0.1,0.3-0.2,0.6-0.3,0.9c-0.1,0.4-0.3,0.3-0.5,0.3l-0.5,0.1l-0.3,0.1l-0.1,0l-0.1,0l0,0l0,0l0,0c-9.1,8.1,12.4-11,10.2-9l0,0
					l-0.8-0.9c-0.3-0.3-0.5-0.6-0.7-0.9c-0.2-0.3-0.4-0.6-0.6-0.8l-0.5-0.7l-0.3-0.6c0,0-0.1-0.1-0.1-0.1l0-0.1c0,0,0-0.1,0-0.1
					c0-0.1,0-0.2,0-0.3c0-0.1,0-0.2,0-0.2c0-0.1,0-0.1-0.1-0.2c0,0,0-0.2-0.1-0.4l-0.3-1.6l-0.7-3.2c-0.9-4.4-1.9-8.9-2.7-13.5
					c-1.4-8.4,0.8-17.4-2.5-26.1c-0.9-2.3-1.9-5.1-3.6-7.6c-0.8-1.2-2.1-2.4-3.5-3.4c-1.4-1-3.2-1.7-5.3-2.1c-2-0.4-5.2,0.4-7.9,1.4
					c2.2-0.8,1.4,0.9,0,2.7c-1.4,1.9-3.5,3.8-3.6,4.1c-0.5,0.7-0.9,1.4-1.3,2.1c-0.4,0.7-0.7,1.3-1,2c-0.6,1.3-1,2.6-1.7,3.9
					c-1.2,2.5-2.9,4.9-4.2,7.3c-1.3,2.4-2.3,4.6-2.4,7c-0.3,9.7,1.8,19.1,3.7,29.3l0.7,3.3l0.4,1.6l0.2,1.1l0.3,1.4
					c1,4,2.8,7.7,5.1,11c1.2,1.8,2.2,3,3.2,4.2l1.5,1.7l1.3,1.5l1.2,1.3l0.3,0.3l0,0l0,0l1.7,1.6l0,0l0.1,0.1l0.2,0.1l0.3,0.3
					l0.2,0.2c0.4,0.3,0.7,0.5,1.1,0.8c0.7,0.5,1.5,1,2.3,1.4c0.4,0.2,0.8,0.4,1.2,0.6l0.6,0.3l0.6,0.2c0.8,0.3,1.6,0.6,2.3,0.8
					l0.6,0.2c0.2,0.1,0.3,0.1,0.5,0.1l0.8,0.2l0.8,0.2l0.7,0.1c2.2,0.4,3,0.6,2.9,0.7l0,0c0,0,0.1,0.1,0.1,0.1
					c0.1,0.1,0.1,0.1,0.3,0.2l0.4,0.2l0.2,0.1l0.3,0.2l1.1,0.6l1.4,0.8l0.7,0.4l0.9,0.5L56.3,290.9z"/>
			</g>
		</g>
	</g>
</g>
<g>
	<g>
		<g>
			<path d="M112.1,148.6l0.2,0C112.2,148.6,112.1,148.5,112.1,148.6z"/>
			<path d="M86.8,143.2l0.1-0.3C86.8,143.1,86.8,143.2,86.8,143.2z"/>
			<path d="M71.2,167.5l-0.2,0C71.1,167.6,71.1,167.6,71.2,167.5z"/>
			<g>
				<path d="M83.9,173.2c5.9,1.8,12.1,2.3,18.2,1.5c1.6-0.2,3.1-0.5,4.7-0.9l4.6-1.1c3-0.7,6-1.3,9-1.5c3.2-0.1,6.4-0.4,9.5-0.6
					c3.2-0.5,6.4-0.9,9.5-2.2c3.3-1.1,5.9-2,8.8-2.7c1.4-0.4,2.9-0.7,4.3-1c1.5-0.3,2.9-0.6,4.4-1c5.7-1.1,10.7-5.1,16.6-5.9
					c1.6-0.3,3.2-0.4,4.8-0.6c0.8-0.1,3.9-3.1,4.3-4.1c0.2-0.5-2.6-1.4-3.4-1.7c-2.5-0.8-6.1-1.8-7.8-1.9c-3.4-0.3-5.1-0.5-8.3,0
					c-3.3,0.6-6.7,1-10,1.2c-3.3,0.3-6.8,0.2-10.3-0.3c-1.4-0.2-2.8-0.2-4.2-0.1c-1.2,0-2.4,0.2-3.6,0.4c-1.2,0.2-2.4,0.4-3.7,0.5
					c-1.3,0.1-2.5,0.2-3.7,0c-1.4-0.2-2.7-0.5-4.1-0.7c-1.3-0.2-2.7-0.6-4.1-0.9c-0.7-0.1-1.3-0.3-2-0.4c-0.7-0.1-1.3-0.3-2-0.4
					c-0.7-0.1-1.3-0.2-2-0.3c-0.7-0.1-1.3-0.2-2-0.2c-5.8-0.3-11.2-2.8-16.6-3.9c-5.4-1.1-10.8-2.1-15.7-4.3l-1.1-0.5l-1-0.5l-2-1.1
					c-1.3-0.8-2.5-1.6-3.7-2.5c-3-2.3-5.8-4.5-8.3-6.9l-1.8-1.9c-0.6-0.6-1.2-1.4-1.8-2.1c-0.6-0.7-1.1-1.5-1.6-2.2
					c-0.5-0.8-1-1.5-1.5-2.3c-1.7-2.9-2.6-6.3-3.3-9.8c-0.8-3.5-1.5-7-3.1-10.5c-1.7-3.7-3.3-9.1-10-11.3c-1.6-0.5-4.2-0.2-6.4,0.3
					c3.7-0.9-2.8,5.7-3.1,6.2c-1.6,2.6-1.9,5.2-2.8,7.9c-1.6,5.2-4,10.4-2.9,15.7c1.2,5.5,3.3,10.9,6.3,16.1c1.5,2.6,3.2,5.1,5,7.5
					c1,1.2,1.9,2.4,2.9,3.5l3.2,3.4c3.8,3.7,7.8,7.1,12.2,9.8l1.6,1.1c0.5,0.3,1.1,0.6,1.6,1l3.3,1.9l3.3,1.7l1.7,0.9l1.7,0.8
					c1.3,0.6,2.7,1.3,4,1.9c1.3,0.6,2.7,1.2,4.1,1.9C78.3,171.2,81,172.3,83.9,173.2z"/>
			</g>
		</g>
	</g>
</g>
<g>
	<g>
		<g>
			<path d="M266.6,171.7l-0.2,0C266.4,171.7,266.5,171.8,266.6,171.7z"/>
			<path d="M295.1,167l0,0.3C295.2,167.2,295.2,167.1,295.1,167z"/>
			<path d="M293.6,138.3l0.1-0.1C293.7,138.3,293.6,138.3,293.6,138.3z"/>
			<g>
				<path d="M283.5,139.4c-1.1,0.2-2.3,0.4-3.5,0.7c-1.2,0.3-2.3,0.6-3.5,1c-1.2,0.4-2.3,0.8-3.5,1.4c-1.2,0.5-2.4,1.1-3.5,1.7
					c-3.5,2.4-8.1,5.2-12.8,5.6c-5.1,0.3-10.1-0.1-15.2,0.3c-2.5,0.1-5.1,0-7.3-0.6l-0.9-0.2c-0.3-0.1-0.5-0.1-1-0.2l-2.1-0.6
					c-1.3-0.4-2.6-0.8-3.9-1.2c-2.5-0.8-5.1-0.9-7.7-1.2c-2.6-0.3-5.1-0.7-7.2-2c-1.1-0.7-2.1-1.6-2.8-2.3c-0.2-0.2-1-0.2-1.7,0
					c-0.1,0.1-0.3,0.1-0.4,0.2l-0.2,0.1l0,0c0,0,0,0-0.1,0.1c-0.1,0.1-0.2,0.3-0.4,0.4c-0.2,0.3-0.5,0.5-0.7,0.7
					c-0.1,0.1-0.2,0.2-0.4,0.3c-0.1,0.1-0.2,0.2-0.2,0.2c-0.3,0.3-0.6,0.4-0.8,0.5c-0.2,0.1,0,0,0.3-0.2c0.2-0.1,0.4-0.3,0.6-0.5
					c0.1-0.1,0.1-0.1,0.2-0.2l0.1-0.1c0,0,0,0,0,0c0,0.1-0.1,0.1-0.1,0.2c-0.4,0.5-0.3,1.3-0.3,1.6c0.3,2.2,2.3,5.4,3.5,6.6
					c2.4,2.3,3.7,3.3,6.6,4.7c3,1.4,6,2.5,8.9,3.9c1.5,0.7,2.9,1.4,4.2,2.2c0.3,0.2,0.7,0.4,0.9,0.6c0.1,0.1,0.3,0.2,0.5,0.3
					l0.6,0.3c0.8,0.5,1.6,1,2.4,1.5c1.3,0.9,2.7,1.4,4.1,1.8c1.4,0.4,2.8,0.7,4.2,0.9c1.4,0.2,2.8,0.3,4.2,0.5
					c1.4,0.1,2.8,0.3,4.2,0.6c6,1.3,12,3.2,18.5,2.5c1.7-0.1,3.5-0.4,5.2-0.5l4.8-0.3c1.5-0.1,3-0.2,4.5-0.3c1.5-0.1,3-0.4,4.5-0.7
					c5.9-1.4,12-3.4,18.4-5.4c1.9-0.5,3.8-1.2,5.6-1.9c1.9-0.7,3.8-1.4,5.7-2.1c4.8-1.9,9.4-4.7,13.7-7.9c1-0.8,2-1.7,3.1-2.5
					l1.5-1.3l1.4-1.4l2.8-2.7l2.6-2.8c0.5-0.5,1-1,1.5-1.5c0.5-0.5,0.9-1,1.4-1.5l1.5-1.5l1.6-1.6c0.8-1,1.6-2,2.3-3.1
					c0.4-0.6,0.7-1,1-1.5l0.8-1.4c0.3-0.5,0.6-1,0.8-1.4l0.6-1.2c0.4-0.8,0.8-1.7,1.2-2.5c1.3-3.2,2.3-6.3,2.6-9.5
					c0.1-1.2,0.2-2.5,0.3-3.9c0-0.7,0-1.4,0-2.1l0-0.3c0-0.1,0-0.2,0-0.2l-0.1-0.1c-0.1-0.1-0.1-0.2-0.2-0.3
					c-0.7-0.8-2.1-1.8-4.1-4.2c-1-1.2-3-2.8-4.9-4.1c1.5,1.1,0.3,1.2-1.6,1.4c-0.9,0.1-2,0.3-2.8,0.4c-0.9,0.1-1.5,0.3-1.6,0.4
					c-0.7,0.3-1.3,0.7-1.9,1.2c-0.6,0.5-1,1-1.5,1.6c-0.2,0.3-0.5,0.6-0.7,0.9c-0.2,0.3-0.4,0.5-0.6,0.7c-0.4,0.4-0.8,0.9-1.3,1.3
					c-3.6,3.2-8.1,5.7-9.9,8.4c-0.3,0.3-0.5,0.7-0.7,1l-0.2,0.3c-0.1,0.1-0.1,0.1-0.2,0.2l-0.3,0.3c-0.4,0.5-0.6,0.3-0.6,0.4
					l-0.3,0.2l-0.3,0.4l-0.7,0.7c-0.5,0.5-0.9,1-1.3,1.5c-0.9,0.9-1.8,1.9-2.7,2.8l-2.8,2.7l-2.9,2.4c-0.6,0.4-1.2,0.8-1.8,1.3
					l-0.9,0.6l-0.9,0.6l-1.9,1.2l-2,1.1l-1,0.5l-1.1,0.5l-2.1,0.9c-1.5,0.5-2.9,1.1-4.6,1.5C292.3,138.3,288,138.7,283.5,139.4z"/>
			</g>
		</g>
	</g>
</g>
<g>
	<g>
		<g>
			<path d="M255.8,144.2l-0.2,0.1C255.7,144.3,255.8,144.3,255.8,144.2z"/>
			<path d="M279.5,136.4l0.1,0.3C279.6,136.5,279.6,136.4,279.5,136.4z"/>
			<path d="M273.5,108.3l0.1-0.1C273.6,108.3,273.6,108.3,273.5,108.3z"/>
			<g>
				<path d="M264.2,110.7c-3.9,1.2-7.3,3.3-10.8,6c-3.5,2.9-6.9,6.6-11.1,8.1c-4.5,1.6-9,2.6-13.2,4.7c-4.3,2.1-8.8,2.8-13.4,3.2
					c-1.1,0.1-2.2,0.4-3.2,0.7c-1.1,0.3-2.1,0.7-3.2,1c-1,0.3-2.1,0.6-3.2,0.7c-1.1,0.1-2.1,0.2-3.2-0.1c-0.6-0.1-1.1-0.3-1.6-0.5
					c-0.5-0.2-1-0.4-1.5-0.6c-0.2-0.1-1.1,0.3-1.8,0.7c-0.8,0.4-1.6,0.9-1.9,1.3c-0.3,0.3,0.9,2.4,1.3,3c0.6,0.9,1.6,1.9,2.5,2.8
					c1,0.9,1.9,1.6,2.6,1.9c0.7,0.3,1.3,0.6,1.8,0.9c0.6,0.2,1.1,0.4,1.6,0.6c1,0.3,2.1,0.5,3.5,0.6c5.9,0.4,11.5,0,17.6,1.4
					c5,1.1,9.4-1.4,14.1-1.6c2.6-0.1,5.2-0.1,7.7-0.2c1.3-0.1,2.5-0.2,3.8-0.3c1.3-0.2,2.5-0.5,3.7-0.9c2.6-0.9,5.3-1.3,8-1.8l2-0.4
					c0.7-0.2,1.4-0.3,2-0.5c1.4-0.4,2.7-0.8,4-1.3c1.3-0.5,2.5-1.1,3.8-1.7l3.5-1.8c2.3-1.2,4.7-2.4,7-3.2c2.7-1.1,5.5-2,8.3-2.9
					c0.8-0.2,2-0.7,3.1-1.1c1.1-0.4,2.2-0.8,3.2-1.3c1-0.5,2-1,3-1.5l2.8-1.5c3.6-2,6.8-4,9.8-5.6c2.8-1.4,5.4-1.7,8.4-2.3
					c2.9-0.5,5.3-0.7,7.2-1.7c0.5-0.2,1-0.4,1.6-0.7c0.5-0.2,1-0.5,1.5-1c0.5-0.4,1-1,1.5-1.9c0.6-0.8,1.2-1.8,1.9-3.2
					c0.7-1.4,1.5-3.9,2-6.1c-0.4,1.8-1,0.7-1.7-0.9c-0.4-0.8-0.8-1.8-1.1-2.6c-0.4-0.7-0.7-1.3-0.7-1.4c-0.9-1.1-1.9-2-3-2.6
					c-1.1-0.6-2.3-1.2-3.5-1.8c-1.2-0.6-2.4-1.2-3.5-1.7c-1.2-0.6-2.4-1-3.6-1.5c-0.6-0.2-1.2-0.4-1.8-0.6c-0.6-0.1-1.2-0.3-1.8-0.3
					c-1.2-0.2-2.4-0.2-3.5,0c-1.2,0.2-2.4,0.4-3.5,0.7c-1.1,0.3-2.2,0.6-3.3,1c-1.1,0.4-2.2,0.8-3.4,1.3c-1.1,0.5-2.1,0.9-3.1,1.4
					c-4,2-7.4,4.1-10.6,5.9c-2.7,1.5-5.1,2.7-7.3,3.7c-3.2,1.3-6.5,2.7-9.8,3.9c-2,0.7-3.9,1.3-5.9,1.9c-1,0.3-2,0.6-3,0.9
					C266.1,110.1,265.1,110.5,264.2,110.7z"/>
			</g>
		</g>
	</g>
</g>
<g>
	<g>
		<g>
			<path d="M126.2,119.2l0.2,0C126.3,119.2,126.3,119.2,126.2,119.2z"/>
			<path d="M105.7,110.5l0.2-0.3C105.8,110.3,105.7,110.4,105.7,110.5z"/>
			<path d="M89.5,134.1l-0.2,0C89.4,134.1,89.5,134.1,89.5,134.1z"/>
			<g>
				<path d="M98.1,139.4c2,1,4.2,1.8,6.4,2.3c2.2,0.5,4.5,0.8,6.9,0.8c2.4,0,4.9-0.2,7.3-0.3c2.4-0.1,4.8,0,7,0.6
					c2.3,0.7,4.6,1.4,6.9,2l1.7,0.4c0.6,0.1,1.3,0.3,1.9,0.4c0.7,0.1,1.3,0.2,2,0.3c0.7,0.1,1.3,0.1,1.9,0.1
					c5.1,0.2,9.6,1.3,14.3,2.5c4.6,1.1,9.5-0.5,14.2,0.9c1.3,0.4,2.5,1,3.8,1.4c0.7,0.2,4.1-1.4,4.7-2.2c0.3-0.4-1.6-2.3-2.1-2.8
					c-0.8-0.9-1.8-1.8-2.7-2.7c-0.9-0.9-1.8-1.7-2.3-2.1c-2.4-1.6-3.4-2.4-5.9-3.2c-1.3-0.4-2.6-0.8-3.8-1.3
					c-1.3-0.4-2.5-0.9-3.7-1.4c-2.5-1.1-4.9-2.3-7.1-4.2c-1.8-1.5-3.8-2.1-5.8-2.7c-1-0.3-1.9-0.5-2.8-0.8c-0.4-0.1-1-0.4-1.5-0.6
					c-0.5-0.2-1-0.5-1.5-0.8c-1-0.6-2-1.3-3-1.9c-1-0.7-2-1.4-3-2c-2-1.3-4-2.5-6.2-3.2c-4.7-1.6-8.6-4.9-13.2-6.5
					c-4.5-1.7-9.2-3-13.5-5.1c-1.3-0.6-2.5-1.2-3.7-1.9c-1.2-0.7-2.4-1.4-3.6-2.1c-5.9-3.8-12.3-6.6-18-10.5c-1.3-0.9-2.4-1.9-3.6-3
					c-1.1-1.1-2.1-2.3-3.2-3.4c-1.1-1.1-2.1-2.3-3.2-3.3c-1.1-1-2.3-1.9-3.7-2.7c-0.4-0.2-0.8-0.5-1.2-0.7l-0.2-0.1l-0.3-0.2
					l-0.7-0.5c-0.4-0.3-0.9-0.6-1.3-0.9c-0.6-0.4-1.2-0.7-1.8-1l-0.9-0.5c-0.3-0.1-0.7-0.2-1-0.4c-0.7-0.2-1.3-0.4-2-0.5
					c-0.7-0.1-1.4-0.2-2.1-0.1c-2.8,0-5.4,1.2-7.3,3.4c-1.2,1.4-1.7,4-1.8,6.3c0.1-1.9,1.3-0.8,2.2,0.7c0.4,0.8,0.8,1.7,1,2.5
					c0.2,0.8,0.3,1.4,0.3,1.5c0.8,2.2,1.2,4.1,1.3,5.8c0,0.2,0,0.4,0,0.5c0,0.2,0,0.5,0,0.7c0,0.1,0,0.2,0,0.4l0.1,0.4
					c0.1,0.6,0.2,1.2,0.3,1.8c0.2,1.2,0.4,2.4,0.6,3.5c0.5,2.2,1.3,4.3,2.6,5.9c5.7,6.5,13,10.7,20.2,14.8
					c6.1,3.6,12.6,6.5,18.8,9.7c1.9,1,3.7,2,5.6,3.1C94.3,137.4,96.2,138.4,98.1,139.4z"/>
			</g>
		</g>
	</g>
</g>
<g>
	<g>
		<g>
			<path d="M443.1,262.8L443.1,262.8C443.1,262.8,443.2,262.7,443.1,262.8z"/>
			<path d="M434.1,247.2l0.3-0.2C434.3,247.1,434.2,247.1,434.1,247.2z"/>
			<path d="M403.5,265L403.5,265C403.4,265,403.5,265,403.5,265z"/>
			<g>
				<path d="M405.2,270.3c1.3,2.5,3.5,4.4,6.7,5.8c3.2,1.4,7.5,2.3,9.1,4.8c0.9,1.3,1.6,2.7,2.4,4c0.4,0.7,0.8,1.3,1.3,1.9
					c0.5,0.6,1,1.2,1.6,1.8c1.2,1.1,2.1,2.5,2.6,3.9c0.6,1.4,1,2.9,1.3,4.4c0.1,0.7,0.5,1.4,0.9,2c0.2,0.3,0.5,0.7,0.7,0.9l0.6,0.6
					c0.4,0.4,0.7,0.8,0.8,1.3c0.1,0.2,0.1,0.5,0.1,0.7c0,0.3-0.1,0.6-0.3,0.9c-0.2,0.4-0.4,0.7-0.6,1.1c-0.2,0.4-0.5,0.8-0.7,1.2
					c-0.1,0.2,0.4,0.9,1,1.6c0.6,0.8,1.5,1.5,2,1.7c0.5,0.2,2.8-1.3,3.4-1.7c2-1.2,4.7-2.9,5.6-3.8c0.8-1,1.4-1.7,1.8-2.6
					c0.4-0.9,0.6-1.7,0.7-3c0-0.6,0-1.3,0-1.9c0-0.6-0.1-1.2-0.1-1.7c0-1-0.1-2.1,0-3.2c0.1-2.2,0.2-4.4,1-7
					c0.6-2.1,0.1-3.7-0.5-5.4c-0.6-1.6-1.5-3.1-1.7-4.9c-0.1-1-0.1-2-0.2-3c-0.1-1-0.1-2-0.2-3c-0.2-2-0.6-3.9-1.6-5.5
					c-2-3.4-2.3-7.8-4.6-10.9c-0.6-0.8-1.2-1.5-1.8-2.2l-0.9-1.1l-1.1-1.3c-1.5-1.7-3-3.4-4.4-5.2c-1.7-1.9-3.2-4-4.7-6
					c-3.9-5-9.1-8.5-13.5-12.2c-1-0.8-1.9-1.9-2.7-3c-0.8-1-1.6-2.1-2.3-3.2c-1.6-2.2-3.2-4.1-5.6-5c-0.6-0.2-1.3-0.5-2-0.8
					c-0.7-0.2-1.5-0.4-2.4-0.3c-1.8,0.1-4.1,0.9-7.1,3.3c-1.5,1.2-3.5,3.8-5.1,6.1c2.7-3.9-0.6,5.8-0.7,6.2c-0.6,3-0.2,4.7-0.2,7
					c-0.1,4.4-1.1,9.6,0.3,12c1.4,2.5,3.3,4.3,5,5.9c0.9,0.8,1.9,1.6,2.8,2.3c0.9,0.8,1.8,1.5,2.7,2.3l1.1,1l1,1l2.1,1.9
					c0.8,0.6,1.3,1.3,1.9,2c0.6,0.7,1.2,1.4,1.7,2.1c0.6,0.9,0.9,1.9,1.3,2.8c0.2,0.5,0.4,1,0.6,1.4
					C404.6,269,404.9,269.7,405.2,270.3z"/>
			</g>
		</g>
	</g>
</g>
<g>
	<g>
		<g>
			<path d="M399.9,179.2l-0.1,0C399.9,179.3,399.9,179.3,399.9,179.2z"/>
			<path d="M416.8,178.5l0,0.4C416.8,178.7,416.8,178.6,416.8,178.5z"/>
			<path d="M420.6,143.2l0.1,0C420.7,143.1,420.6,143.2,420.6,143.2z"/>
			<g>
				<path d="M411.9,141.7c-1.9,0-3.9,0.2-5.8,0.8c-1.9,0.6-3.7,1.5-5.5,2.7c-0.9,0.6-1.8,1.3-2.7,2l-1.3,1.1l-0.6,0.5
					c-0.2,0.2-0.4,0.3-0.8,0.5c-1.4,0.7-2.7,1.5-4,2.1c-1.3,0.7-2.5,1.3-3.8,2.1c-0.6,0.4-1.3,0.8-1.9,1.2c-0.6,0.4-1.3,0.9-1.6,1.1
					l-0.1,0.1l-0.1,0.1l0,0l0,0c0.3,0.5-0.6-1.1,0.6,1.1l0,0l0.1,0.1l0.1,0.2c0.3,0.4,0.5,0.9,0.7,1.3l0.3,0.7l0.2,0.3l0.1,0.2
					l0,0.1l0,0l0,0c-1-1.8,2.2,4-2.2-4l0,0l-0.3,0.2l-1.2,0.7c-0.8,0.5-1.6,1-2.4,1.6c-0.9,0.7-1.8,1.5-2.6,2.3
					c-0.4,0.4-0.8,0.8-1.3,1.2c-0.4,0.4-0.8,0.8-1.2,1.1c-0.8,0.7-1.6,1.3-2.5,1.9c-0.9,0.6-1.7,1.2-2.6,1.8
					c-0.9,0.6-1.8,1.1-2.7,1.7c-1.7,1.2-2.9,2.9-4,4.7c-0.6,0.9-1.1,1.7-1.8,2.5c-0.6,0.8-1.4,1.4-2.3,1.9c-1,0.5-2.2,0.9-3.2,1.4
					c-0.5,0.3-0.7,3.7-0.2,4.7c0.2,0.5,3,0.9,3.7,1c2.4,0.3,5.7,0.7,7,0.6c2.6-0.2,3.8-0.4,5.6-1.3c1.9-1,3.8-1.9,5.8-2.5
					c1-0.3,2.1-0.5,3.2-0.6c0.5-0.1,1.1-0.1,1.7-0.1c0.6,0,1.2,0.1,1.8,0.2c1,0.1,1.8,0.1,2.6-0.1c0.7-0.2,1.4-0.4,2-0.7l0.9-0.5
					l0.5-0.2c0.2-0.1,0.4-0.2,0.6-0.3c0.8-0.3,1.7-0.6,2.6-0.7l0.8-0.1l0.4,0l0.1,0l0,0l0,0l0,0h0h0c0.3-0.1-0.4,0.2-0.3,0.2
					l0.4-0.1l0.9-0.3c0.3-0.1,0.7-0.2,0.7-0.2c0.2,0,0.6-0.1,0.7-0.1c0.5,0.2,0.9,0.4,1.2,0.7s0.7,0.5,0.9,0.7
					c0.1,0.1,0.2,0.2,0.3,0.2l0.1,0c0,0,0,0,0.1,0c0.2,0,0.4,0,0.7-0.1c1.9-0.3,3.8,0,5.7,0.2c0.9,0.1,1.9,0.3,2.8,0.3
					c0.9,0.1,1.8,0.1,2.7,0c0.9-0.1,1.8-0.3,2.7-0.5l2.7-0.4c0.9-0.1,1.8-0.3,2.7-0.4c0.9-0.1,1.8-0.1,2.7-0.1c1,0,2.1,0.1,3.1,0.2
					c1,0.1,2,0.4,3,0.6c2.5,0.5,5,0.9,7.5,1.1c1.3,0.1,2.5,0.4,3.7,0.5l1.9,0.3c0.6,0.1,1.3,0.3,1.9,0.5c2.3,0.6,4.1,2.2,5.6,3.5
					c0.8,0.7,1.4,1.3,2.1,1.8c0.3,0.2,0.6,0.4,1,0.6c0.3,0.1,0.8,0.2,1.1,0.2c0.4,0,0.8,0.1,1.3,0.1c0.5,0,0.9,0,1.6-0.3
					c1.3-0.5,3-1.5,6.2-3.7c1.5-1.1,3.9-3.3,5.9-5.4c-1.6,1.7-1.2,0.4-0.5-1.6c0.7-1.9,1.6-4.5,1.7-4.8c0.3-1.5,0.2-2.8,0-4
					c-0.2-1.2-0.5-2.4-0.8-3.6c-0.5-2.4-1-5.2-1.9-7.5c-0.4-1.2-0.9-2.3-1.5-3.3c-0.6-1-1.3-1.8-2.1-2.4c-1.8-1.3-3.5-2.2-5.3-3.1
					c-0.9-0.4-1.8-0.7-2.6-1l-1.3-0.5c-0.4-0.1-0.9-0.3-1.3-0.4c-0.9-0.2-1.7-0.5-2.6-0.7l-2.7-0.5c-1.8-0.3-3.6-0.7-5.5-1
					c-1.5-0.2-3.1-0.4-4.7-0.6c-0.8-0.1-1.6-0.2-2.3-0.2l-2.3-0.1c-1.5-0.1-3.1-0.2-4.6-0.3c-1.5-0.1-3.1-0.1-4.6-0.2
					c-0.9-0.1-1.8-0.2-2.8-0.3c-0.9-0.1-1.9-0.2-2.8-0.3C415.6,142,413.7,141.8,411.9,141.7z"/>
			</g>
		</g>
	</g>
</g>
<g>
	<g>
		<g>
			<path d="M415.1,219.9l-0.1,0C415,220,415.1,220,415.1,219.9z"/>
			<path d="M433.7,218.4l0,0.4C433.7,218.7,433.7,218.6,433.7,218.4z"/>
			<path d="M428.9,183.4L428.9,183.4C428.9,183.3,428.9,183.3,428.9,183.4z"/>
			<g>
				<path d="M424,182.7c-1.1,0-2.2,0.3-3.2,0.9c-1.1,0.5-2.2,1.4-3.3,2.5c-1.2,1.1-2.4,2.5-3.7,3.7c-1.3,1.1-2.7,2-4.1,2.2
					c-1.5,0.1-3,0.2-4.5,0.3c-1.5,0.1-3,0.3-4.7,0.9c-1.7,0.6-3.4,0.8-5,0.8c-1.6,0-3.1-0.2-4.7-0.4c-1.6-0.2-3,0.4-4.5,0.9
					c-0.7,0.2-1.5,0.5-2.2,0.5c-0.7,0.1-1.5,0-2.1-0.4c-0.7-0.4-1.4-1-2.1-1.5c-0.3-0.2-2.4,1.8-2.9,2.7c-0.2,0.4,0.6,2.9,0.9,3.5
					c0.8,2.1,2.3,4.9,3.1,5.8c1.7,1.9,2.5,2.6,4.3,3.2c1.9,0.6,3.8,1.2,5.6,1.9c0.9,0.4,1.8,0.8,2.7,1.4c0.9,0.6,1.8,1.2,2.7,2.1
					c1.4,1.4,2.8,1.6,4.2,1.7c0.7,0,1.5,0.1,2.3,0.1c0.8,0.1,1.6,0.2,2.4,0.6c1.7,0.7,3.4,1.7,5.2,2.4c1.8,0.7,3.6,1.3,5.4,1.1
					c3.9-0.3,8,1.5,12.2,0.6c1-0.2,2-0.5,3-0.7l3.1-1c2-0.6,4.1-1.4,6.2-2l0.9-0.2c0.3-0.1,0.5-0.2,0.8-0.2c0.5-0.2,1-0.3,1.6-0.4
					c1.1-0.3,2.1-0.5,3.2-0.7c5.5-1,10.2-3.9,15.3-5.7c2.3-0.8,4.8-1,7.4-1.2c2.5-0.3,5-0.7,6.9-2.4c2-1.8,5.1-3.6,3.6-11.2
					c-0.4-1.8-1.7-4.8-3.1-7.3c2.2,4.2-4.8-3.3-5.1-3.6c-2.3-2-4-2.5-5.9-3.6c-1.8-1.1-3.7-2.6-5.5-3.7c-1.8-1.2-3.4-2.1-4.7-2.1
					c-2.7,0-5.1,0.6-7.4,1.4c-2.3,0.8-4.5,1.8-6.8,2.7c-1.9,0.8-3.8,1.5-5.7,2.3c-1,0.4-1.9,0.7-2.9,1.1c-0.5,0.2-1,0.3-1.5,0.5
					c-0.2,0.1-0.5,0.2-0.7,0.2l-0.6,0.1c-0.9,0.1-1.9,0.2-2.9,0.1C426,182.8,425.1,182.7,424,182.7z"/>
			</g>
		</g>
	</g>
</g>
</svg>
