<?xml version="1.0" encoding="utf-8"?>
<!-- Generator: Adobe Illustrator 21.0.0, SVG Export Plug-In . SVG Version: 6.00 Build 0)  -->
<svg version="1.1" id="Layer_1" xmlns="http://www.w3.org/2000/svg" xmlns:xlink="http://www.w3.org/1999/xlink" x="0px" y="0px"
	 viewBox="0 0 500 500" style="enable-background:new 0 0 500 500;" xml:space="preserve">
<g>
	<g>
		<g>
			<path d="M109.2,446.1l-0.6-0.4C108.8,445.9,109,446.1,109.2,446.1z"/>
			<path d="M214.9,458.8l0.1,0.4C215.1,459,215,458.9,214.9,458.8z"/>
			<path d="M201.6,450.9l-0.6,0C201.3,450.9,201.5,450.9,201.6,450.9z"/>
			<g>
				<path d="M184.4,435.2c-0.2,0-0.3,0-0.6,0c-0.1,0-0.3,0-0.5,0c-0.2,0-0.3,0-0.5,0l-0.1,0l-0.2,0l-0.4,0c-0.3,0-0.5,0-0.8-0.1
					c-0.2,0-0.6-0.1-1-0.1l-1-0.2c-2.9-0.5-6.5-1.3-10.7-2.3l-3.3-0.8l-3.2-0.7c-1.9-0.4-3.9-0.7-5.7-1.2c-1.9-0.4-3.7-0.8-5.6-1.2
					c-1.8-0.5-3.6-0.9-5.5-1.3c-7.3-1.8-14.6-4.3-21.6-7.9c-7-3.6-13.7-8.2-19.6-14c-1.6-1.5-3-3.2-4.6-4.8c-1.5-1.6-3-3.2-4.5-4.9
					l-4.2-5.1l-2.1-2.6c-0.7-0.9-1.3-1.8-2-2.7l-3.9-5.3c-0.7-0.9-1.3-1.8-1.9-2.7l-1.9-2.8l-1.9-2.7c-0.6-0.9-1.3-1.8-1.8-2.8
					c-1.2-1.9-2.3-3.8-3.6-5.6c-1.3-1.9-2.3-3.8-3.3-5.8c-1-2-2.1-3.9-3.1-5.9c-0.9-2-1.7-4.1-2.6-6.1l-1.3-3.1l-1-3.1l-2-6.3
					c-0.6-2.2-1.1-4.3-1.7-6.5c-0.3-1.1-0.6-2.2-0.8-3.3l-0.7-3.3c-0.4-2.2-0.9-4.4-1.3-6.7c-0.7-4.3-1.6-8.6-2.3-12.9
					c-0.9-4.3-1.5-8.7-2.2-13c-0.3-2.2-0.6-4.4-0.8-6.6l-0.4-3.3c-0.1-1.1-0.1-2.2-0.2-3.3c-0.1-2.2-0.2-4.4-0.2-6.6
					c0-2.2,0.1-4.4,0.3-6.7c0.2-2.4,0.4-4.6,0.8-6.7c0.4-2.2,0.9-4.3,1.4-6.4c0.3-1,0.3-4.2,0.5-7.5c0-0.8,0.1-1.6,0.2-2.4
					c0.1-0.8,0.1-1.6,0.1-2.2c0.1-1.4,0.2-2.5,0.1-3.1c-0.1-0.5-1.2,0.5-2.4,1.9c-0.7,0.7-1.2,1.5-1.8,2.3c-0.6,0.7-1,1.4-1.3,1.8
					c-1.8,2.7-3.7,6.4-5.2,10.1c-0.8,1.9-1.4,3.8-1.9,5.5c-0.5,1.7-0.9,3.4-1.1,4.6c-0.8,5.2-1.5,9-1.8,12.9c-0.2,1.9-0.3,3.9-0.4,6
					c-0.1,2.1-0.1,4.5,0,7.2c0.2,11.1,1.2,22.1,2.5,33.1l1.2,8.2c0.2,1.4,0.4,2.7,0.6,4.1l0.7,4.1c0.2,1.4,0.4,2.8,0.7,4.2l0.8,4.2
					l0.8,4.2l0.4,2.1l0.5,2.1c1.1,4.5,2.3,9.1,4.2,13.5c0.9,2.2,1.8,4.4,2.8,6.6c1.1,2.1,2.2,4.2,3.3,6.3c2.2,4.3,4.8,8.2,7.3,12.3
					c1.2,2.1,2.6,4,3.9,6c1.3,2,2.6,4,3.8,6c1.4,2.1,2.9,4.2,4.3,6.3c1.4,2.1,2.8,4.3,4.4,6.3c3.1,4.1,6.1,8.2,9.6,12.1
					c6.9,7.9,15,15.2,24.2,21c9.7,6.3,20.5,11.5,31,15.5l4,1.5c1.3,0.5,2.6,0.9,3.9,1.3l7.3,2.4c4.8,1.5,10.3,3.3,17,4.3l1.2,0.2
					l1.4,0.1l2.7,0.2l0.7,0.1l0.8,0l1.5,0c1,0,2,0,3-0.1c4.2-0.3,8.7-1.3,12.7-2.9c4.1-1.6,7.5-3.8,10.3-5.8c2.8-2.1,4.9-4,6.8-5.5
					l1.5-1.2c0.8-0.7,1.5-1.3,2.4-2.1l1.2-1.2l0.2-0.2l0.2-0.3l0.5-0.5c0.3-0.3,0.6-0.7,0.9-1.1c0.3-0.4,0.6-0.7,0.8-1.1l0.4-0.6
					l0.1-0.1l0,0l0.1-0.1l0.5-0.8l0.1-0.2l0.1-0.1l0.7-1.1l0.1-0.2c0.3-0.6,0.6-1.1,0.8-1.7c0.3-0.5,0.5-1.3,0.7-1.9
					c0.2-0.7,0.4-1.3,0.6-2.1c0.7-3,0.7-6.7-0.3-10.1c-0.9-3.4-2.7-6.3-4.6-8.4c-1.9-2.1-3.9-3.6-5.8-4.6c-0.5-0.3-0.9-0.5-1.4-0.7
					c-0.4-0.2-0.9-0.4-1.4-0.6c-0.9-0.3-1.7-0.6-2.9-1l-0.8-0.2l-0.8-0.2l-0.5-0.1l-0.2,0l-0.7-0.1l-0.1,0l-0.5-0.1l-1.9-0.3
					l-1.5-0.2c-0.3,0-0.4-0.1-0.6-0.1l-0.6-0.1c-0.2,0-0.4-0.1-0.5-0.1l-0.3-0.1c-0.2,0-1.6-0.5-2.6-0.9c-10-3.6-19.6-8.3-28.1-14.2
					c-1.3-0.9-2.7-1.8-4-2.8l-3.9-2.9c-1.3-1-2.5-2.1-3.8-3.1c-1.3-1-2.5-2.1-3.7-3.1c-4.8-4.3-9.2-8.9-13.2-13.9
					c-8-10-14.5-21.6-19.5-34.3c-0.6-1.4-1.1-2.9-1.6-4.3l-0.8-2.2l-0.8-2.4c-1-3.2-2-6.2-2.8-9.1c-1.6-5.8-2.6-11.2-2.8-16
					l-0.2-2.3l-0.2-2.8c-0.2-1.8-0.3-3.8-0.5-5.3l-0.6-5l-0.5-4.5l-0.3-2.2l-0.1-0.6l0-0.5l-0.1-1c-0.1-1.3-0.2-2.6-0.3-3.9
					c-0.1-1.4-0.1-2.9-0.2-4.3l-0.1-2.2c0-0.7,0-1.5,0-2.2c0-1.6-0.1-3.2-0.1-4.9c0.1-1.7,0.1-3.4,0.1-5.2c0.1-3.6,0.2-7.2,0.3-10.8
					c0-1.8,0-3.6,0-5.4c0-1.8-0.1-3.6-0.2-5.3c-0.2-3.5-0.7-7-1.6-10.3c-0.9-3.2-3.7-5-6.4-6c2.2,0.8-0.1,4-3.2,7.3
					c-1.4,1.7-3.1,3.4-4.4,4.7c-1.3,1.3-2.2,2.4-2.4,2.6c-1.1,1.5-2,3.2-3,4.9c-0.8,1.7-1.6,3.5-2.4,5.3c-0.8,1.8-1.4,3.7-2.1,5.5
					c-0.6,1.9-1.4,3.7-1.9,5.6c-0.6,1.8-1.2,3.6-1.9,5.4c-0.6,1.8-1.1,3.6-1.7,5.4c-0.3,0.9-0.6,1.8-0.8,2.7l-0.7,2.7
					c-0.5,1.8-0.9,3.7-1.3,5.5c-0.3,2-0.6,3.9-0.8,6c-0.1,1-0.2,2.1-0.3,3c0,1-0.1,1.9-0.1,2.9c0,1-0.1,1.9-0.1,2.9c0,1,0,2,0,2.9
					c0,1.8,0.1,3.7,0.3,5.5l0.4,5.4l0.1,1.3l0.1,0.7l0.1,0.9l0.4,3.7c0.7,4.8,1.6,9.5,2.8,13.7c0.3,1.1,0.6,2.2,0.9,3.2l0.9,3.1
					c0.6,2,1.3,4,1.9,5.9l2,5.6l1.1,2.9l1.1,3c3.1,7.9,6.6,15.8,10.9,23.5c4.3,7.7,9.2,15.2,14.8,22.2c4.8,6,10,11.7,15.7,16.8
					c1.4,1.3,2.9,2.5,4.3,3.8c1.5,1.2,3,2.4,4.4,3.5l2.2,1.8l2.3,1.6c1.5,1.1,3.1,2.2,4.6,3.3c6.3,4.2,12.8,7.9,19.5,11.3
					c1.7,0.8,3.4,1.6,5.1,2.4l2.5,1.2l2.6,1.1l5.1,2.2l5.2,2l1.6,0.6l0.4,0.1c0.1,0,0.2,0.1,0.5,0.2l1.2,0.4
					c0.8,0.2,1.7,0.5,2.5,0.7l2.1,0.5l1.1,0.2l0.9,0.2l1.8,0.3l1.5,0.3l0.7,0.1l0.2,0l0.1,0c-0.2,1.7,1.6-14.8,0.9-7.8l0,0l0,0
					l0.1-0.1l0.5-0.4c0.1-0.1,0.4-0.3,0.4-0.4c0-0.2-0.1-0.4-0.1-0.5c0-0.2,0-0.4,0-0.5c0-0.2,0.1-0.3,0.2-0.5
					c0.1-0.3,0.3-0.6,0.4-0.9c0.2-0.3,0.3-0.6,0.5-0.9c0.7-1.1,1.6-1.8,1.9-1.9c0.4-0.1-0.2,0.1-1.3-0.4c-0.2-0.1-0.3-0.1-0.5-0.2
					l-0.2-0.1l-0.1-0.1c0.5,0.4-4.4-3.9-2.4-2.1l0,0l-0.1,0l-0.1,0l-1.9-0.3l-0.9-0.2l-0.5-0.1l-0.2,0c-0.1,0-0.2-0.1-0.2-0.2
					c-0.6-0.6-1.2-1.2-1.7-1.8c-0.5-0.6-0.9-1.3-1.4-2c-0.4-0.3-0.8-0.7-1.1-1c-0.3-0.3-0.2-0.2-0.2-0.2l0,0c0,0,0,0,0,0L194,429
					l-0.2,0.1l-0.6,0.4l-1.3,1c-1.7,1.3-3.1,2.3-4.1,3c-1.1,0.7-1.8,1.1-2.3,1.3C184.9,435.1,184.7,435.2,184.4,435.2z"/>
			</g>
		</g>
	</g>
</g>
<g>
	<g>
		<g>
			<path d="M153.1,138.8l-0.1,0C153,138.8,152.9,138.8,153.1,138.8z"/>
			<path d="M148.2,143.6l-0.3-0.4C147.9,143.4,148,143.5,148.2,143.6z"/>
			<path d="M152,178.7l-0.8,0.1C151.6,178.8,151.8,178.8,152,178.7z"/>
			<g>
				<path d="M202.2,166.7l3.6-1.4c0.7-0.2,1-0.5,1.5-0.8l1.3-0.9l2.7-1.7l1.3-0.9c0.4-0.3,0.7-0.6,1.1-0.9c1.4-1.1,2.9-2.3,4.3-3.5
					c1-1.2,1.8-2.3,2.3-3.3c0.6-1.1,1.1-2.2,1.5-3.4c0.2-0.6,0.4-1.2,0.6-1.9c0.1-0.7,0.3-1.4,0.4-2c0.1-0.6,0.1-1.1,0.2-1.7
					c0-0.6,0.1-1.4,0-2.3c-0.1-1.9-0.5-3.9-1.1-5.5c-0.2-0.4-0.3-0.7-0.5-1c-0.2-0.3-0.3-0.6-0.5-0.9c-0.4-0.7-0.8-1.2-1.2-1.7
					c-0.2-0.2-0.4-0.4-0.6-0.6c-0.2-0.2-0.6-0.4-0.8-0.6c-1.2-0.8-2.4-1.6-3.7-2.4c-2.5-1.5-5.3-2.9-8.1-4.2l-1-0.5l-0.5-0.2
					c-0.1,0-0.2-0.1-0.4-0.1l-0.5-0.1l-3.7-1.2c-2.4-0.8-4.7-1.5-7.1-2.3l-1.7-0.6c-0.7-0.2-1.5-0.3-2.2-0.4l-4.4-0.9
					c-2.9-0.6-5.7-1.2-8.5-1.8c-0.8-0.2-1.4-0.4-2.1-0.6l-2-0.6l-4.1-1.2l-4-1.2c-1.3-0.4-2.7-0.8-4-1.3l-3.9-1.4L154,110l-2.3-0.8
					l-2.3-0.9c-3-1.2-6.1-2.4-9.1-3.7c-1.5-0.6-3-1.2-4.6-1.8c-1.5-0.7-3-1.3-4.5-1.9c-3.1-1.2-6-2.7-8.9-4.3
					c-0.7-0.4-1.5-0.7-2.2-1.2l-2.1-1.3l-4.2-2.7c-5.6-3.5-10.8-7.8-16.1-11.9c-2.5-2.1-5.1-4.1-7.8-5.9c-1.3-0.9-2.7-1.9-4.1-2.8
					c-1.4-0.9-2.7-1.9-4-2.9c-2.7-1.9-5.3-3.9-7.9-6c-2.6-2.1-5.2-4.5-7.2-6.8L66,54.1c-0.3-0.3-0.5-0.6-0.7-1l-1.3-1.9
					c-0.4-0.6-0.9-1.2-1.3-1.9l-1.1-2c-0.2-0.3-0.7-0.9-1.5-1.5c-0.1-0.1-0.2-0.2-0.3-0.2l0,0l0,0l-0.1-0.1l0,0l0,0l0,0l-0.1-0.1
					l-0.2-0.2c-0.2-0.2-0.4-0.4-0.5-0.6c-0.2-0.1-0.3-0.3-0.5-0.5c-0.7-0.6-1.4-1.2-2.1-1.7c-1.6-1.1-3.3-2.2-5.6-3.1
					c-0.5-0.2-1.2-0.4-1.8-0.5c-0.3-0.1-0.7-0.1-1-0.2c-0.3,0-0.7-0.1-1-0.1c-0.8,0-1.4,0-2,0.1c-0.7,0.1-1.2,0.3-1.6,0.4
					c-0.8,0.3,0,0.3,1.6,0.4c0.4,0,0.7,0.2,1.1,0.3c0.4,0.1,0.8,0.2,1.1,0.4c0.3,0.2,0.7,0.4,1,0.6c0.3,0.2,0.6,0.4,0.9,0.6
					c2,1.8,2.8,3.7,3.2,4.5c0.3,0.7,0.6,1.4,0.9,2.1c0.3,0.7,0.5,1.5,0.7,2.2c0.4,1.4,0.8,2.9,1.3,4.3c0.4,1.5,1.1,2.8,1.7,4
					c0.6,1.2,1.2,2.4,1.7,3.1c1.1,1.6,2.1,3,3.1,4.3c0.9,1.2,1.8,2.4,2.7,3.5c1.8,2.2,3.7,4.3,6.5,7.1c11.6,11.5,23.5,22,35.6,33.6
					c1.2,1.2,2.4,2.4,3.8,3.4c1.4,1.1,2.8,2.1,4.2,3.1c2.8,2,5.9,3.7,9,5.3l2.3,1.2l2.4,1.1c1.6,0.8,3.1,1.5,4.7,2.3
					c3.1,1.5,6.3,2.9,9.3,4.6l5,2.5l0.6,0.3l0.2,0.1l0.3,0.3c0.2,0.2,0.4,0.4,0.6,0.5c0.8,0.7,1.4,1.4,1.9,1.9
					c0.5,0.5,0.8,0.9,1.2,1.2c0.4,0.3,0.8,0.5,1.5,0.7c0.6,0.1,1,0.3,1.3,0.4c0.3,0.2,0.4,0.3,0.2,0.7c-0.2,0.3-0.5,0.8-1.3,0.9
					c-0.7,0.1-1.3,0.3-1.9,0.4c-1.1,0.2-1.9,0.2-2.2,0.5c-0.5,0.4-1,0.9-1.8,1.3c-0.4,0.2-0.9,0.4-1.5,0.6l-0.4,0.1l-0.2,0
					c-0.1,0-0.1,0-0.4,0l-4.9,0.2c-1.9,0.1-3.9,0-5.9,0c-2-0.1-3.9-0.1-5.9-0.3c-2-0.2-3.9-0.3-5.9-0.5l-5.9-0.8
					c-1.3-0.2-2.4-0.4-3.6-0.6l-3.5-0.6l-3.5-0.8l-1.7-0.4l-1.7-0.5l-3.5-0.9c-1.2-0.3-2.3-0.7-3.5-1c-2.3-0.6-4.6-1.5-6.9-2.3
					c-4.6-1.7-9.2-3.5-13.8-5.6l-1.7-0.8c-0.5-0.3-1.2-0.6-1.5-0.7c-0.7-0.4-1.5-0.8-2.3-1.2c-0.7-0.5-1.4-1-2.1-1.4
					c-0.6-0.6-1.3-1.1-2-1.6c-2.3-2.1-4-4.7-5.2-7.5c-1.2-2.8-1.8-5.6-1.9-8.4c-0.2-2.8,0.2-5.4,0.8-7.8c0.1-0.6,0.3-1.2,0.5-1.8
					l0.2-0.9c0.1-0.3,0.2-0.6,0.3-0.9s0.2-0.6,0.3-0.9l0.1-0.2l0.2-0.7l0.5-1.4c0.3-0.9,0.6-1.9,0.9-2.8c0.3-0.9,0.4-1.8,0.6-2.7
					c0.1-0.6,0.3-1.3,0.4-2c0.1-0.7,0.3-1.3,0.3-1.9c0.2-1.3,0.3-2.6,0.5-3.9c0.2-2.5,0.3-5,0.2-7.3l0-1.7L64,69.6
					c-0.1-1-0.2-2.2-0.3-3.1c-0.1-1-0.3-2-0.5-2.9c-0.1-0.4-0.2-0.9-0.3-1.3l-0.2-0.7c0-0.1-0.1-0.2-0.1-0.4l-0.1-0.8
					c-0.1-1.7-0.5-3.3-1-4.9c-0.1-0.2-0.1-0.4-0.2-0.6c-0.1-0.1-0.1-0.3-0.2-0.4l-0.4-0.7c-0.2-0.4-0.5-0.9-0.8-1.3
					c-1-1.5-2.2-2.8-3.5-3.6c-0.2-0.1-0.5-0.3-0.8-0.3c-0.3-0.1-0.6-0.1-0.9-0.2c-0.6-0.2-1.3-0.4-1.9-0.6c-1.4-0.4-2.8-0.6-4.2-0.8
					c0.6,0.1,0.9,0.2,1,0.5c0.1,0.2,0.1,0.6,0,1c-0.3,0.7-0.9,2.2-1.7,3.8c-0.8,1.6-1.7,3.2-2.5,4.5c-0.8,1.3-1.5,2-1.7,2.2
					c-0.1,0.1-0.2,0.2-0.2,0.4c-0.7,1.1-1.4,2.4-2,3.7c-0.6,1.3-1.1,2.6-1.6,3.9c-0.5,1.3-1,2.6-1.5,3.8c-0.5,1.2-1,2.4-1.6,3.5
					c-0.3,0.5-0.6,1.1-0.9,1.6c-0.3,0.5-0.7,1-1,1.5c-0.3,0.5-0.7,0.9-1,1.4c-0.4,0.4-0.7,0.8-1.1,1.2c-0.4,0.4-0.7,0.8-1,1.1
					L31,82.1l-0.5,0.4l-0.3,0.2c-0.1,0.1-0.2,0.1-0.3,0.3c-0.5,0.7-1,1.4-1.5,2.1c-3.9,5.6-6.7,12.6-7,20.5
					c-0.3,8.2,1.3,16.4,4.4,23.9c3.1,7.5,7.8,14.3,13.6,20c1.4,1.5,3,2.8,4.6,4c1.5,1.3,3.2,2.5,4.9,3.6c1.7,1.2,3.5,2.1,5.2,3.1
					l1.3,0.7l0.7,0.4l0.5,0.3l2.1,1c5.6,2.7,11.5,5.1,17.6,7.4c10.3,3.8,21.3,6.5,32.4,8c0.7,0.1,1.4,0.2,2.1,0.3l2,0.2l4,0.4
					c2.7,0.3,5.4,0.4,8.1,0.6l4.1,0.2l4.1,0.1c2.7,0,5.4,0.1,8.2,0c1.6,0,3.3-0.1,4.9-0.1l1.4,0c0.1,0,0.2,0,0.4,0l0.5-0.1l1.1-0.1
					c1.4-0.1,2.9-0.3,4.3-0.4c1.4-0.1,2.9-0.3,4.3-0.4c1.4-0.2,2.8-0.5,4.2-0.7c1.4-0.2,2.8-0.5,4.3-0.7l2.1-0.4l2-0.5
					c2.7-0.7,5.5-1.3,8.2-2c2.6-0.8,5.2-1.6,7.9-2.4c1.3-0.4,2.6-0.8,3.8-1.3l3.8-1.3C197.4,168.6,199.8,167.7,202.2,166.7z"/>
			</g>
		</g>
	</g>
</g>
<g>
	<g>
		<g>
			<path d="M388,412l0.4-0.4C388.2,411.8,388,411.8,388,412z"/>
			<path d="M338.5,435.7l0.6-0.4C338.8,435.4,338.6,435.6,338.5,435.7z"/>
			<path d="M281.7,444.4l-0.4-0.7C281.5,444,281.6,444.2,281.7,444.4z"/>
			<g>
				<path d="M324.7,473.6c0.4,0.1,0.9,0.1,1.4,0.1l1.5,0.1l2.9,0.1l2.9,0.1c1,0,2,0.1,3,0l6.1-0.6l3.1-0.3c0.5,0,1-0.2,1.5-0.3
					l1.6-0.3l3.1-0.7l0.8-0.2c0.3-0.1,0.4-0.1,0.6-0.1l1-0.3c0.6-0.2,1.4-0.4,1.9-0.6l1.8-0.6c2.3-0.8,4.7-1.6,6.9-2.7
					c9.1-3.9,17.4-9,24.7-14.8c14.6-11.9,26.8-26.1,38.2-41.1c3.1-4,5.9-8.2,8.5-12.5c0.7-1.1,1.3-2.1,1.8-3.2l1.8-3.1
					c1.2-2.1,2.2-4.2,3.4-6.3c4.3-8.5,8.1-17.4,10.8-26.6c2.8-9.3,5.2-18.5,7.1-28l1.4-6.9c0.4-2.2,0.9-4.4,1.3-6.5
					c1-4.5,1.9-9,2.9-13.5l0.7-3.3c0.1-0.6,0.2-1.1,0.3-1.7l0.3-2l0.2-2c0.1-0.6,0.1-1.3,0.1-1.9c0.1-1.3,0.1-2.6,0.1-3.8
					c-0.1-5-0.7-9.7-1.3-14.1l-0.4-3.3l-0.4-3.2l-0.4-3.4l-0.4-3.5c-0.3-2.3-0.6-4.6-0.8-6.9c-0.3-2.3-0.6-4.6-0.8-6.9
					c-0.3-2.4-0.5-5-0.8-7.4l-0.4-3.6c-0.1-1.2-0.3-2.5-0.5-3.8c-0.2-1.2-1.6-4.9-3.7-8.6c-0.5-0.9-1-1.8-1.6-2.6
					c-0.6-0.8-1.2-1.6-1.7-2.3c-1.1-1.4-2.1-2.4-2.7-2.8c-0.5-0.4-0.2,1.5,0.2,3.6c0.2,1.1,0.3,2.3,0.4,3.3c0.1,1,0.2,1.9,0.2,2.4
					c0.3,3.5,0.3,7.7,0.1,11.6c-0.1,2-0.2,3.9-0.2,5.6c-0.1,1.7-0.1,3.3-0.1,4.5c0.1,5,0,8.6-0.1,12.3c0,0.9,0,1.8,0,2.7
					c0,0.9-0.1,1.9-0.1,2.9c0,1,0,2,0,3.1c0,1.2,0,2.4,0,3.7c0.1,5.4,0.2,10.5-0.1,15.3l-0.1,1.8c-0.1,0.6-0.2,1.2-0.2,1.8l-0.2,1.7
					l-0.4,1.7c-0.1,0.6-0.2,1.1-0.4,1.7l-0.5,1.9l-1,3.7c-0.7,2.5-1.4,5-2.1,7.4c-0.7,2.5-1.5,5.1-2.3,7.7l-1.2,3.8
					c-0.4,1.3-0.8,2.6-1.2,3.7l-1.2,3.5c-0.4,1.2-0.8,2.3-1.4,3.4c-3.1,7.3-5.9,15-8.9,22.6c-3.1,7.6-6.5,15.1-10.9,21.9
					c-1.2,1.9-2.4,3.7-3.7,5.5c-0.6,0.9-1.3,1.8-1.9,2.7l-1.9,2.4c-1.2,1.6-2.6,3.1-4,4.7l-1,1.1c-0.3,0.4-0.7,0.7-1.1,1.1l-2.1,2.2
					c-5.8,5.8-12.1,11.1-18.6,16.5c-1.7,1.4-3.6,2.7-5.4,4.1c-0.9,0.7-1.9,1.3-2.8,1.9c-0.9,0.6-1.9,1.3-2.9,1.9
					c-3.8,2.4-7.7,4.5-11.5,6.3c-3.9,1.8-7.8,3.4-11.7,4.7c-1.9,0.7-3.9,1.3-5.9,1.9c-1,0.4-1.9,0.5-2.7,0.7c-0.1,0-0.1,0.1-0.3,0.1
					c-1.1,0.3-2.5,0.6-4.2,0.4c-0.8-0.1-1.8-0.2-2.5-0.9c-0.3-0.3-0.6-0.6-0.8-1c-0.1-0.2-0.2-0.4-0.3-0.6c0-0.2,0.2-0.3,0.3-0.5
					c1.9-0.5,4-1.3,5.5-2.1l0.1,0l0.5-0.4l1.2-0.9l2.4-1.8c1.6-1.2,3-2.4,4.6-3.7c1.5-1.2,3-2.5,4.5-3.8l2.2-1.9l2.1-2
					c2.9-2.6,5.6-5.4,8.4-8.2c2.7-2.9,5.3-5.7,7.8-8.7c10.2-11.9,19.2-24.9,26.5-39.6c3.3-6.7,6.3-13.7,8.6-21.4l0.8-2.9
					c0.3-1,0.6-1.9,0.7-3c0.4-2,0.8-4.1,1.2-6.1c0.2-1.9,0.5-3.8,0.7-5.7c0.2-1.9,0.4-3.8,0.5-5.6c0.5-7.5,0.3-14.8-0.4-21.7
					c-0.6-7.1-1.7-13.5-3-20c-0.7-3.5-1.4-7.2-2.2-11.1c-0.9-3.9-2-8-3.3-11.9c-0.6-2-1.3-3.9-2-5.7c-0.4-0.9-0.8-1.9-1.1-2.8
					c-0.2-0.5-0.4-0.9-0.6-1.4l-0.2-0.4l-0.2-0.6c-0.2-0.4-0.3-0.8-0.5-1.1c-1.4-3-2.6-4.1-3.5-4.7c-0.1-0.1-0.2-0.1-0.3-0.1
					c-0.1,0-0.2-0.1-0.3-0.1l-0.3,0c-0.1,0-0.2-0.1-0.3-0.1c-0.5-0.2-0.9-0.5-1.3-0.8c-1.7-1.1-4.1-2.2-6.8-2.6
					c1.1,0.2,0.9,0.8,0.3,1.8c-0.3,0.5-0.6,1.2-1,1.9c-0.2,0.4-0.3,0.8-0.5,1.2c-0.1,0.4-0.3,0.8-0.4,1.3c-0.5,1.9-0.8,4.3-1.2,6.1
					c-0.5,1.7-1,3-1.1,3.3c-1.5,7.1-1.4,14.5-2.1,21.7c-0.8,7-2,13.7-2.8,20.4c-0.8,6.7-1.5,13-1.7,19.5c0,1.7-0.1,3.4-0.2,5
					c-0.1,1.6-0.2,3.3-0.4,4.8l-0.2,2.4l-0.3,2.3l-0.1,1.1c0,0.4-0.1,0.7-0.2,1l-0.4,2c-1.2,5.3-3.3,11-6,16.7
					c-2.7,5.7-6.1,11.4-9.8,17c-3.8,5.6-8,11-12.5,16.3c-3.8,4.5-7.9,8.7-12.1,12.9l-3.2,3.1l-3.3,2.9c-1.1,1-2.2,1.9-3.4,2.9
					l-1.7,1.5l-1.7,1.3l-1.7,1.3l-0.4,0.3c-0.1,0.1-0.2,0.2-0.6,0.4l-2,1.3l-4,2.6c-1.4,0.8-2.5,1.8-4.3,2.4l-10,4.2l-10,4.4
					l-0.6,0.3l-0.3,0.1c-0.1,0-0.1,0.1-0.2,0.2l-0.5,0.6l-1.1,1.3l-2.2,2.5l-1.1,1.3c-0.2,0.2-0.3,0.4-0.4,0.5l-0.3,0.5l-1.3,1.9
					l-1.3,1.9l-0.2,0.2c0,0.1,0,0.1,0,0.2l-0.1,0.3l-0.1,0.6l-0.3,1.3l-0.1,0.6l-0.1,0.3c0,0.1-0.1,0.2-0.1,0.4
					c0,1.1-0.1,2.2-0.1,3.3c0,1.3,0.2,2.6,0.5,3.9c0.7,2.6,1.7,5.2,2.9,7.7c1.2,2.5,2.5,5,4.1,7.3c0.7,1.2,1.6,2.3,2.3,3.2
					c0.8,0.9,1.7,1.8,2.5,2.7l1.3,1.4l0.6,0.7c0.2,0.2,0.4,0.5,0.7,0.6l3.5,2.4l1.7,1.2c0.3,0.2,0.6,0.4,0.9,0.6l1.1,0.5l4.4,1.8
					l2.2,0.9c0.8,0.3,1.6,0.5,2.4,0.7l4.8,1.4c1.6,0.6,3.4,0.7,5.1,1.1L324.7,473.6z"/>
			</g>
		</g>
	</g>
</g>
<g>
	<g>
		<g>
			<path d="M271.4,215.9l0.2,0C271.5,215.9,271.4,215.8,271.4,215.9z"/>
			<path d="M249.5,215.9l0-0.4C249.5,215.7,249.4,215.8,249.5,215.9z"/>
			<path d="M244.8,251.2l-0.1,0.1C244.7,251.2,244.7,251.2,244.8,251.2z"/>
			<g>
				<path d="M254.4,252.8c4.3,0.2,8.6-0.8,12.7-3c4.3-2.2,8.4-5.7,12.7-6.2c4.6-0.5,9.1-0.6,13.6-2.2c1.1-0.4,2.3-0.7,3.4-0.9
					c1.1-0.2,2.2-0.4,3.5-0.5c2.5-0.3,4.8-0.4,7-0.4c2.1-0.1,4-0.9,5.8-1.5c1.8-0.6,3.6-0.9,4.9,0c0.7,0.5,1.2,1.2,1.6,1.8
					c0.1,0.1,0.6-0.2,1.3-0.6c0.7-0.4,1.5-0.8,1.9-1.2c0.2-0.2,0.4-0.9,0.5-1.6c0.1-0.8,0.1-1.7,0-2c-0.1-1.2-0.5-2.6-1.1-3.9
					c-0.6-1.3-1.3-2.3-1.9-2.9c-0.6-0.5-1.1-1-1.6-1.4c-0.5-0.4-1-0.7-1.5-1c-0.5-0.3-1-0.5-1.6-0.7c-0.6-0.2-1.2-0.4-1.9-0.5
					c-3-0.6-5.8-0.8-8.5-1.2c-2.7-0.5-5.4-1.1-7.7-2.6c-4.3-2.4-8.6-0.4-12.9-1.4c-4.7-1.1-9.3-3.2-13.8-2.9
					c-2.4,0.2-4.9-0.2-7.3-0.6c-2.4-0.4-4.8-0.8-7.2-0.6l-7.1,0.8c-2.3,0.2-4.7,0.5-7.1,0.5c-1.4,0-2.8,0-4.1-0.1
					c-1.3-0.1-2.7-0.3-4-0.5c-6.8-1-13.9-0.6-21.6-1c-0.9-0.1-1.7-0.2-2.5-0.3c-0.9-0.1-1.8-0.3-2.6-0.5c-1.8-0.4-3.5-0.8-5.3-1.2
					c-1.8-0.3-3.7-0.6-5.5-0.7c-0.9,0-1.9-0.1-2.8,0c-1,0.1-1.9,0.3-2.9,0.5c-1,0.3-2.1,0.5-3.2,0.9c-1.1,0.4-2.2,0.8-3.3,1.6
					c-2.2,1.5-4.1,3.8-4.9,7.8c-0.4,1.9,0.1,5.1,0.7,7.9c-0.5-2.3,0.8-1.2,2.1,0.5c1.4,1.7,2.8,4,3,4.2c1,1.2,2,2.1,3,2.8
					c0.9,0.7,1.9,1.5,2.8,2.3c1.8,1.7,3.4,3.6,5,5.3c1.6,1.7,3.1,3.2,4.7,3.6c6.7,2.1,13.5,1.8,21.2,2.2c1.6,0.1,3.3,0.1,4.9,0.2
					c1.7,0,3.3,0.1,5,0.1c3.4,0,6.9,0.1,10.2,0.2C246.1,251.7,250.3,252.5,254.4,252.8z"/>
			</g>
		</g>
	</g>
</g>
<g>
	<g>
		<g>
			<path d="M224.3,327.9l-0.4,0.2C224,328,224.2,328,224.3,327.9z"/>
			<path d="M238.9,288l0.4-0.1C239.2,287.9,239,287.9,238.9,288z"/>
			<path d="M204.1,295.2L204.1,295.2C204,295.2,204.1,295.2,204.1,295.2z"/>
			<g>
				<path d="M204,300.5c0,0.2,0,0.4,0,0.5c0,0.1,0,0.2,0.1,0.3c0,0,0,0,0.1,0l0,0l0,0c0,0,0,0,0.1,0c0.6,0.1,1,0,1.4,0.1
					c0.4,0,0.8,0.1,1.3,0.1c3.2,0.3,5,1.2,5.2,1.4c0,0,0,0,0,0l0,0l0,0l0,0l0,0l0,0l1.3-0.2v0v0l0,0.3l0,1.1l0,0.5l0,0.3l0,0.1
					c0,0.1,0,0,0,0c0.3-0.1,0.7-0.1,0.9,0c0,0,0-0.1-0.1-0.1l0,0v0v0l0-0.1c-0.1-0.2-0.1-0.3-0.1-0.5c0-0.1,0-0.2,0-0.2
					c0-0.1,0-0.1-0.1-0.3c-0.1-0.3-0.1-0.6-0.1-0.9c0-0.1,0-0.3,0-0.4c0-0.1,0-0.1,0-0.2l0-0.3c0-0.2,0-0.4,0-0.6c0-0.1,0,0,0,0l0,0
					l0,0.1c0,0.1,0,0.2-0.1,0.2c-0.1,0.1-0.2,0.2-0.4,0.2c-0.7,0-2-0.4-3.3-1c-1.3-0.6-2.8-1.3-4.3-1.8c-1.5-0.5-3-1.7-3.9-3
					c-1-1.3-1.7-2.9-2.3-4.5c-0.1-0.4-0.3-0.7-0.4-1c-0.2-0.3-0.4-0.7-0.6-1c-0.2-0.3-0.4-0.7-0.7-1l-0.6-1.1
					c-0.2-0.4-0.4-0.7-0.6-1.1c-0.2-0.4-0.4-0.7-0.5-1.2c-0.2-0.8-0.4-1.8-0.3-2.4c0-0.2,0.1-0.3,0.1-0.5c0.1-0.4,0.4-0.7,0.6-1
					c0.1-0.2,0.3-0.3,0.4-0.6c0.1-0.3,0.3-0.7,0.4-1c0.1-0.2,0-0.7-0.2-1.2c0-0.1-0.1-0.3-0.1-0.4c-0.1-0.2-0.1-0.4-0.2-0.6
					c-0.1-0.4-0.3-0.8-0.5-1.2c-0.2-0.4-0.5-0.9-0.7-1.3c-0.3-0.4-0.5-0.8-0.8-1.2c-0.6-0.7-1.1-1.2-1.5-1.4
					c-0.3-0.2-0.6,0.9-1.1,1.9c-0.2,0.5-0.5,1-0.7,1.4c-0.2,0.4-0.5,0.7-0.6,0.9c-0.9,1.2-2.1,2.2-3.2,3.1c-1.1,0.8-2,1.8-2.5,2.5
					c-0.3,0.6-0.6,1.1-0.8,1.5c-0.2,0.5-0.4,1-0.5,1.5c-0.1,0.4-0.3,0.9-0.4,1.3s-0.2,0.9-0.2,1.4c-0.1,0.5,0,1,0,1.6
					c0,0.8,0.1,1.6,0.1,2.3c0,0.4,0,0.8,0.1,1.2l0.2,1.2c0.1,0.8,0.2,1.6,0.4,2.4c0.2,0.8,0.3,1.6,0.5,2.4c0.7,3.2,1.5,6.5,2.3,10.2
					c0.2,0.8,0.4,1.5,0.7,2.1c0.3,0.7,0.7,1.3,1.1,1.9c0.4,0.6,0.9,1.2,1.4,1.7c0.5,0.6,1.1,1.1,1.7,1.6c2.3,2,4.7,3.6,7.1,5.6
					c2.6,2.2,5.6,4.5,9.9,6.1c1.1,0.4,2.2,0.8,3.6,1c0.7,0.1,1.3,0.2,2,0.3c0.7,0.1,1.5,0.1,2.2,0c0.7,0,1.5,0,2.2-0.1
					c0.8-0.1,1.6-0.3,2.4-0.5c1.6-0.3,3.1-1,4.7-1.7l0.6-0.3l0.3-0.2l0.4-0.2c0.5-0.3,1-0.6,1.4-0.9c1-0.7,1.9-1.4,2.8-2.1l1-0.8
					l0.4-0.3l0.2-0.1l0.1-0.1l0,0l0,0l0,0l1-1.1c1-1.1,2-2.3,2.9-3.5c0.8-1.2,1.6-2.6,2.3-3.9c2.6-5.3,3.4-10.6,3-15
					c-0.4-4.3-1.5-7.9-2.8-11.1c-1.2-3.2-2.6-6.1-3.9-8.9c-0.8-1.7-1.5-3.3-2.3-4.9c-0.8-1.6-1.6-3.4-2.5-4.9
					c-2.1-4.1-4.8-7.5-7.5-10.6c-2.7-3.1-5.3-5.8-7.7-8.6c-2.2-2.6-2.9-5.2-4-7.7c-0.5-1.3-1-2.7-1.7-4c-0.3-0.6-0.7-1.2-1.2-1.8
					c-0.4-0.6-0.9-1.2-1.5-1.8c-1.2-1.2-2.4-2.6-4.4-3.7c-2-1.1-4.7-1.7-8.6-0.9c-1.9,0.4-4.8,2-7.1,3.6c3.9-2.6-2.1,6-2.4,6.5
					c-1.4,2.9-1.4,5.1-2,7.7c-0.5,2.5-1.4,5.1-1.9,7.5c-0.4,2.5-0.6,4.9,0.2,6.9c0.7,2.1,2,4.1,3.1,6c0.6,1,1.3,1.9,1.9,2.9
					c0.6,0.9,1.2,1.6,1.8,2.4c2.4,3,5,5.7,7.1,8.2l2.6,3.2l1.2,1.5l0.6,0.7l0.5,0.7l1,1.5l0.9,1.5c0.6,0.9,1.1,2.1,1.5,3.1
					C204,296.2,204.1,299.1,204,300.5z"/>
			</g>
		</g>
	</g>
</g>
<g>
	<g>
		<g>
			<path d="M297.2,305.4L297.2,305.4C297.2,305.4,297.3,305.4,297.2,305.4z"/>
			<path d="M299,292.6l0.4,0.1C299.2,292.6,299.1,292.6,299,292.6z"/>
			<path d="M267.6,275.8l0-0.2C267.6,275.7,267.6,275.8,267.6,275.8z"/>
			<g>
				<path d="M262.2,287.2c-0.4,1.4-0.7,2.8-0.9,4.3c-0.1,1.5-0.2,3-0.2,4.5c0.1,1.6,0.3,3.1,0.6,4.6l0.2,1.1
					c0.1,0.4,0.2,0.8,0.4,1.1c0.3,0.8,0.5,1.5,0.8,2.3c1.2,3,2.9,6,5.1,9.3c1.1,1.7,2.3,3.4,3.9,5.3c1.6,1.8,3.5,3.8,6,5.5
					c0.7,0.4,1.3,0.8,2.1,1.2l0.5,0.3l0.1,0.1l0.8,0.3l0.1,0l0.4,0.1l0.2,0.1l0.8,0.3c0.5,0.2,1.1,0.3,1.6,0.4
					c0.5,0.1,0.8,0.1,1.3,0.2c0.4,0,0.8,0.1,1.2,0.1c3.2,0.2,5.9-0.5,8.1-1.3c2.1-0.9,3.8-1.9,5.2-3c1.4-1.1,2.5-2.3,3.4-3.5
					c1.8-2.4,3.6-4.6,5.3-6.7c1.7-2.1,3.4-4.2,5-6.3c1.5-2.1,2.2-4.5,2.8-6.9c0.6-2.4,1.3-4.6,2.8-6.5c0.8-1,1.8-1.8,2.7-2.8
					c0.4-0.5-0.4-4-1.1-5c-0.3-0.4-3.2,0.2-3.9,0.4c-2.5,0.6-5.9,1.7-7.2,2.4c-2.6,1.5-3.7,2.2-5.3,4.1c-1.7,1.9-3.3,3.8-5.2,5.3
					c-1.9,1.5-4,2.7-6.6,3.1c-2.1,0.3-3.3,1.1-4.4,2c-0.5,0.4-0.9,0.7-1.2,0.8c-0.1,0-0.2,0.1-0.2,0c-0.1,0-0.1,0-0.1,0l0,0
					c0,0,0,0,0,0c0,0,0-0.1,0,0c0.1,0.3,0.2,0.5,0.3,0.8l0.3,0.8c0.1,0.2,0.2,0.5,0.2,0.7c0.6,2,0.5,3.3,0.5,3.7l0,0c0,0,0,0,0,0
					c0,0,0.1,0,0.1,0s0.1,0,0.1,0.1l0,0c0,0,0,0,0,0l-0.4-0.3l-0.2-0.1l0,0l0,0c-0.4,0,0.5,0,0.4,0v0h0l0,0l0,0l0.1-0.1
					c0,0,0.1-0.1,0.1-0.1c0-0.1,0.1-0.2,0.2-0.2c0.5-0.6,1.8-1.7,4-2.8c1.1-0.6,2.3-1,3.8-1.6l0.1,0c0,0,0,0,0-0.1c0,0,0-0.1,0-0.2
					c-0.1-0.3-0.1-0.8,0-1.5c0.2-0.7,0.3-1.4,0.5-2.1c0.3-0.7,0.6-1.4,0.7-2.1c0.2-0.7,0.5-1.4,0.5-2.2c0.2-3,0.5-6.5,2-9.7
					c0.5-0.9,0.9-1.9,1.5-2.7l0.9-1.3c0.3-0.4,0.7-0.9,1.1-1.3c1-1.1,1.9-2.2,2.7-3.4c1-1.2,1.9-2.5,2.8-3.7c0.9-1.2,1.9-2.6,3-3.9
					c1.1-1.3,2.1-2.6,3.3-3.9c1.1-1.2,2.4-2.2,3.7-3.2c0.7-0.5,1.3-0.9,1.9-1.3l1.9-1.2c0.6-0.4,1.2-0.8,1.8-1.2
					c0.6-0.4,1.2-0.8,1.8-1.3c1.1-0.9,2.1-1.9,2.9-3.1c0.9-1.3,2-2.7,2.5-4.7c0.6-1.9,0.6-4.5-0.8-8.3c-0.7-1.8-2.6-4.5-4.4-6.7
					c1.5,1.8,0,1.4-2,0.6c-2-0.8-4.4-2.1-4.7-2.2c-1.5-0.5-2.9-0.6-4.2-0.7c-1.3,0-2.5,0-3.8,0c-5.1-0.3-10.9-1.3-14.5,0.9
					c-1.8,1.2-3.5,2.4-5.1,3.8c-1.5,1.3-2.8,2.6-4.2,4c-1.3,1.3-2.6,2.9-3.9,4.5c-1.3,1.6-2.6,3.1-3.9,4.9c-1.1,1.5-2.2,2.9-3.3,4.4
					c-1.1,1.6-2.1,3.3-3.2,4.9l-1.6,2.5c-0.5,0.8-1,1.8-1.6,2.7c-0.5,0.9-1.1,1.8-1.5,2.8l-1.5,2.8c-0.3,0.6-0.6,1.1-0.9,1.7
					c-0.3,0.6-0.6,1.2-0.9,1.7c-0.6,1.2-1.2,2.3-1.8,3.5c-0.5,1.2-1.1,2.5-1.6,3.7l-0.4,1l-0.3,1
					C262.6,285.9,262.4,286.6,262.2,287.2z"/>
			</g>
		</g>
	</g>
</g>
<g>
	<g>
		<g>
			<path d="M240.5,331.1L240.5,331.1C240.5,331.1,240.5,331.2,240.5,331.1z"/>
			<path d="M249,331.4l0,0.3C249,331.6,249,331.5,249,331.4z"/>
			<path d="M248.8,303.2L248.8,303.2C248.9,303.1,248.8,303.2,248.8,303.2z"/>
			<g>
				<path d="M246.2,302c-1.2-0.2-2.3,0.6-3.5,2.2c-1.2,1.7-2.6,4.3-3.9,4.4c-0.7,0.1-1.4,0.1-2.1,0.2c-0.4,0-0.7,0.1-1.1,0.2
					c-0.2,0.1-0.4,0.1-0.5,0.2c-0.2,0.1-0.4,0.2-0.7,0.3c-1.7,0.9-3.5,0.6-5.6,0.5c-1.1,0-2.1,0.6-3.2,1.3c-0.5,0.3-1,0.6-1.6,0.9
					c-0.6,0.3-1.1,0.4-1.9,0.5c-0.8,0.1-1.7,0.1-2.5,0.2c-0.2,0.1-0.5,0.7-0.6,1.5c-0.1,0.8-0.1,1.6,0.1,2c0.1,0.2,0.6,0.4,1.2,0.7
					c0.6,0.3,1.2,0.5,1.4,0.7c0.8,0.4,1.7,0.9,2.4,1.4c0.7,0.5,1.3,1,1.6,1.2c0.6,0.4,1,0.9,1.3,1.1c0.3,0.3,0.5,0.4,0.9,0.6
					c0.3,0.2,0.6,0.3,0.9,0.5c0.3,0.2,0.7,0.4,1,0.7c0.7,0.6,1.3,1.4,2,2.7c0.5,1.1,1.1,1.3,1.7,1.4l0.2,0l0.3,0
					c0.2,0,0.4,0,0.6,0.1c0.4,0.1,0.8,0.2,1.1,0.5c1.6,1.2,3.2,3.2,5,3.1c1.8-0.1,3.7,1.6,5.6,1.3c1.8-0.3,3.6-1,5.5-1.2
					c1.1-0.1,2.2,0,3.3,0.1c1.4,0.1,2.8-0.1,4.1-0.3c1.4-0.3,2.7-0.7,4.1-0.8c0.6-0.1,1.3,0,1.9,0.2c0.7,0.1,1.4,0.3,2,0.5
					c1.4,0.3,2.7,0.5,3.8-0.3c1.2-0.9,2.9-1.6,2.2-7.7c-0.2-1.5-0.9-4-1.6-6.1c1.1,3.6-2.5-3.5-2.6-3.8c-1.2-2-2-2.7-2.9-4
					c-1.8-2.5-3.6-6.1-4.8-6.7c-2.4-1.2-4.3-0.5-6.4-0.1c-0.9,0.1-1.8,0.3-2.6,0.5c-0.9,0.2-1.8,0.3-2.7,0.2c-0.5,0-1.1-0.2-1.7-0.3
					C247.3,302.3,246.7,302.1,246.2,302z"/>
			</g>
		</g>
	</g>
</g>
<g>
	<g>
		<g>
			<path d="M290.6,131.6l0.2-0.3C290.6,131.4,290.5,131.5,290.6,131.6z"/>
			<path d="M332.4,174.3l-0.5,0.3C332.1,174.6,332.3,174.4,332.4,174.3z"/>
			<path d="M360.6,140.3L360.6,140.3C360.6,140.3,360.6,140.3,360.6,140.3z"/>
			<g>
				<path d="M360.7,138.7c0.2-0.1,0.1,0-1.1,0.3c-0.6,0.1-1.4,0.3-2.6,0.4c-1.1,0.1-2.7,0.1-4.2-0.2c-1-0.2-1.8-0.4-2.5-0.6
					c-2-0.6-3.2-1.2-3.4-2c-0.2-0.8,0.8-1.8,2.7-2.6c1.2-0.5,2.5-1,3.7-1.5l1.9-0.8l0.9-0.4l0.5-0.2c0.1,0,0.1,0,0.2-0.1l0.1,0l0,0
					l0.1-0.1c6.2-3,12.3-6.3,18-10.2c11.5-7.9,22.8-15.1,33.8-23.8c2.6-2.1,5.1-4.5,7.4-6.9c2.1-2.3,4.3-4.7,6.5-7.1
					c4.4-4.8,8.8-9.7,13.8-14.4c2.7-2.5,5.4-5,8-7.9c0.3-0.4,0.8-1.2,1.3-2.3c0.5-1.1,1-2.5,1.5-3.9c0.4-1.5,0.8-2.9,1-4.1
					c0.2-1.3,0.3-2.3,0.3-2.8c0-0.5-1.2,0.3-2.5,1.4c-1.2,1-2.8,2.1-3.4,2.6c-1,0.8-2.2,1.6-3.4,2.5c-1.2,0.8-2.5,1.7-3.7,2.5
					c-0.6,0.4-1.2,0.8-1.8,1.2c-0.6,0.4-1.2,0.7-1.7,1.1c-1.1,0.7-2,1.3-2.7,1.8c-2.9,2.1-5.2,3.6-7.3,5.1c-2.2,1.5-4.3,3.1-7.1,5.5
					c-3,2.4-5.9,4.8-8.9,7.2c-1.5,1.2-2.9,2.2-4.4,3.3c-1.5,1.1-2.9,2.2-4.4,3.1c-1.5,1-3.1,2-4.6,2.9c-1.5,1-3.2,1.8-4.8,2.6
					c-1.6,0.8-3.2,1.7-4.9,2.4c-1.7,0.7-3.4,1.4-5.1,2.1c-1.4,0.6-2.8,1.1-4.1,1.7c-1.4,0.6-2.7,1.2-4,1.9c-2.6,1.3-5.3,2.6-7.9,4.1
					c-2.6,1.4-5.3,2.7-8,4c-1.4,0.6-2.7,1.2-4.1,1.7l-2.1,0.8l-1.4,0.5c-0.7,0.3-1.3,0.5-1.9,0.7l-8.1,2.5l-4.2,1.3
					c-1.4,0.4-2.9,0.8-4.4,1.2l-9,2.4l-2.3,0.6l-2,0.7l-4.1,1.4l-4.1,1.5l-2.1,0.7l-1,0.4l-0.5,0.2l-0.3,0.2
					c-1.8,1.1-3.6,2.2-5.3,3.3l-2.6,1.7l-0.6,0.4c-0.2,0.1-0.3,0.3-0.5,0.4l-0.9,0.8c-1.1,1-1.9,2-2.7,3c-0.7,0.9-1.1,1.7-1.7,2.7
					c-0.6,0.9-1.2,1.9-1.8,3c-0.5,1.1-0.9,2.3-1.2,3.9c-0.3,1.6-0.3,3.6,0,5.3c0.6,3.5,1.7,6,3.1,8.4c1.4,2.3,3.1,4.4,5.2,6.3
					c1.1,1,2.3,1.9,3.6,2.8c1.3,0.9,3,1.7,4.5,2.5c1.9,1,4.3,1.8,6.5,2.6c1.1,0.4,2.4,0.8,3.6,1.1l3.8,1l4.1,0.8
					c1.4,0.3,2.7,0.6,4.2,0.8c3,0.4,5.8,0.9,9,1.1l4.6,0.4l4.8,0.2c3.2,0.2,6.4,0.2,9.7,0.2c1.6,0,3.2,0,4.9,0l4.7,0
					c1.9-0.1,3.9,0,5.8-0.2l6.8-0.4c2.3-0.1,4.5-0.4,6.7-0.6l3.4-0.3l3.3-0.4c2.2-0.3,4.4-0.5,6.7-0.9c11.7-1.8,23-5.5,33.6-10.1
					c5.2-2.4,10.4-4.9,15.3-7.6l1.8-1c0.6-0.3,1.2-0.6,2-1.1c1.5-0.9,3.1-1.9,4.5-2.9c1.4-1.1,2.9-2.1,4.3-3.2
					c1.4-1.2,2.7-2.4,4-3.6c4.6-4.5,8.8-9.6,12.1-15.1c3.4-5.5,6-11.7,7.6-18.2c1.6-6.5,2.1-13.4,1.2-20.3c-0.3-1.7-0.6-3.4-0.9-5.1
					c-0.4-1.7-0.9-3.4-1.5-5c-0.5-1.7-1.3-3.3-2-4.9c-0.4-0.8-0.7-1.6-1.1-2.3l-0.8-1.5c-2.4-4.3-4.8-8.8-7.3-12.6
					c-0.6-0.9-1.2-1.8-1.9-2.7c-0.6-0.8-1.3-1.7-2-2.5c-0.3-0.4-0.7-0.8-1.1-1.2c-0.4-0.4-0.8-0.7-1.2-0.8c-0.2-0.1-0.4-0.2-0.6-0.4
					l-0.2-0.1l-0.2-0.2l-0.3-0.4c-0.2-0.2-0.5-0.6-0.7-1l-0.4-0.5c-0.1-0.2-0.3-0.4-0.4-0.6c-0.5-0.7-1.3-1.7-2-2.2
					c-0.7-0.4-1.5-0.6-2.2-0.6c-1.6-0.1-3.1,0.1-4.5,0.6c0.6-0.2,1-0.1,1.3,0.2c0.2,0.1,0.3,0.4,0.4,0.6c0,0.1,0.1,0.3,0.1,0.4
					c0,0.2,0,0.4,0,0.6c0,1.6-0.7,3.2-1.6,4.5l-0.6,1c-0.2,0.4-0.4,0.7-0.6,1.1c-0.4,0.8-0.8,1.5-1.1,2.1c-0.7,1.3-1.1,2.3-1.2,2.5
					c-1.5,5.6-0.6,11.5-0.1,17.1c0.1,1.4,0.2,2.7,0.3,4.1c0.1,1.3,0.2,2.7,0.3,4l0.1,1.9c0,0.4,0,0.6,0,0.8l-0.1,0.7l-0.2,1.4
					c0,0.5-0.1,0.9-0.2,1.4c-0.6,3.6-1.7,6.6-2.4,9.7c-1.3,6.4-4.4,12.3-8.9,16.8c-1.1,1.1-2.3,2.2-3.6,3.1c-0.6,0.5-1.3,0.9-2,1.3
					l-0.5,0.3l-0.3,0.2c-0.1,0.1-0.3,0.1-0.4,0.2l-1.7,0.9c-4.4,2.5-8.8,4.6-13.3,6.6c-7.6,3.3-15.2,5.9-23,7.6l-2.9,0.6
					c-1,0.2-2.1,0.4-3.1,0.5l-3.1,0.5l-1.6,0.3l-1.6,0.2c-2.1,0.2-4.2,0.5-6.2,0.7l-6.2,0.3c-1.2,0.1-2.5,0-3.7,0l-0.9,0l-0.1,0
					c0,0-0.1,0-0.1-0.1c-0.1-0.1-0.2-0.2-0.2-0.4C360.3,139.1,360.5,138.8,360.7,138.7z"/>
			</g>
		</g>
	</g>
</g>
</svg>
