<?xml version="1.0" encoding="utf-8"?>
<!-- Generator: Adobe Illustrator 21.0.0, SVG Export Plug-In . SVG Version: 6.00 Build 0)  -->
<svg version="1.1" id="Layer_1" xmlns="http://www.w3.org/2000/svg" xmlns:xlink="http://www.w3.org/1999/xlink" x="0px" y="0px"
	 viewBox="0 0 475 475" style="enable-background:new 0 0 475 475;" xml:space="preserve">
<path d="M183.9,2.6c-2.2,0.1-4.7,0.6-7.8,1.6C130.7,19.9,61.7,61.2,0.5,79.8c10.9,6.7,22.7,12.7,34.9,17.4
	c13.7-6.3,27.1-12.5,38.4-18.8c13.9-7.7,24.6-15.7,29.1-22.2l13.2,9c-7.3,10.7-19.8,19-34.5,27.2c-7.3,4.1-15.3,8-23.5,11.9
	c7.5,1.8,15.1,3.1,22.5,3.7c3.4,0.3,6.7,0.4,10.1,0.5c15.8-9.8,30.8-22.5,35.7-31.6l14.1,7.5c-3.5,6.5-8.7,12.8-14.9,18.7
	c15.6-5.5,29.8-15.4,41.5-31.1l7.2-9.6l6.1,10.4c4.7,8.1,11,14.8,18.2,20.6c5.3-0.8,10-1.4,14.9-1.6v-31c-9.7-7.3-16-18.9-16-31.9
	c0-5.3,1-10.5,3.1-15.3c-2.5-3.6-5.2-6.3-7.8-8.1c-2.2-1.4-4.3-2.4-6.9-2.6C185.2,2.6,184.6,2.5,183.9,2.6z M290.2,2.6
	c-0.3,0-0.7,0-1,0.1c-2.6,0.3-4.8,1.2-6.9,2.6c-2.6,1.7-5.3,4.5-7.8,8.1c2,4.8,3.1,10.1,3.1,15.3c0,13-6.3,24.6-16,31.9v31
	c5,0.3,10.5,0.9,14.9,1.6c7.2-5.8,13.5-12.6,18.2-20.6l6.1-10.4l7.2,9.6c11.8,15.7,25.9,25.6,41.5,31.1
	c-6.3-5.9-11.5-12.2-14.9-18.7l14.1-7.5c4.8,9.1,19.8,21.8,35.7,31.6c3.4,0,6.7-0.2,10.1-0.5c7.5-0.6,15-1.9,22.5-3.7
	c-8.2-3.9-16.1-7.8-23.5-11.9c-14.8-8.2-27.2-16.5-34.5-27.2l13.2-9c4.5,6.5,15.2,14.5,29.1,22.2c11.3,6.3,24.7,12.5,38.4,18.8
	c12.3-4.7,24.1-10.6,34.9-17.4C413.3,61.2,344.3,19.9,298.9,4.2C295.4,3,292.6,2.5,290.2,2.6L290.2,2.6z M237.5,5.5
	c-13.4,0-24,10.7-24,24s10.6,24,24,24s24-10.7,24-24S250.9,5.5,237.5,5.5z M229.5,67.8v24.6c2.8,0.6,5.8,1.6,8,2.9
	c2.7-1.5,5.3-2.3,8-2.9V67.8c-2.6,0.5-5.3,0.8-8,0.8S232.1,68.4,229.5,67.8z M217,107.5c-1.6,0-3.1,0.1-4.7,0.2
	c-12.9,0.9-28.8,5.1-35.4,8.2c-14.9,7.1-21.1,13.8-24.2,20c-3.1,6.2-3.2,12.8-3.2,20.8c0,9.3,4.3,16.2,12.1,22.8
	c7.8,6.6,19.2,12.1,30.8,16.8c21.5,11.3,44.2,22.9,62,36c4.9,3.5,11.2,5.7,16,8.2c4.7-5,7-9.5,7-13.7c0-2.5-0.7-5.3-1.9-8.2
	c-12.2-23.1-35.2-34.2-59.3-47.5l-0.1,0.1c-10.4-4-20-6.4-26.7-6.4l-3.6-15.2c15.8-7.9,27.4-14.6,34.3-20.9
	c6.8-6.2,9.3-11.3,9.2-19.3C225.5,107.5,220.9,107.4,217,107.5L217,107.5z M258,107.5c-4.2,0.1-9.3,0.1-12.5,1.8
	c-0.1,8.1,2.5,13.1,9.2,19.3c6.9,6.3,18.5,13,34.3,20.9l-3.6,15.2c-8,0-20,3.3-32.5,8.7c10,6.4,19.6,13.9,27.5,23.6
	c0.7-0.3,1.4-0.5,2.1-0.8c11.6-4.6,23-10.2,30.8-16.8c7.8-6.6,12.1-13.5,12.1-22.8c0-8-0.1-14.6-3.2-20.8c-3.1-6.2-9.3-12.9-24.2-20
	c-6.5-3.1-22.5-7.2-35.4-8.2C261.2,107.6,259.6,107.5,258,107.5z M237.5,133.3c-1.9,2.6-4.1,5-6.4,7.1c-0.5,0.5-1,0.9-1.6,1.4v17.1
	c2.7,1.2,5.4,2.5,8,3.9c2.6-1.4,5.3-2.7,8-3.9v-17.1c-0.5-0.5-1.1-0.9-1.6-1.4C241.6,138.2,239.4,135.9,237.5,133.3z M200,217.2
	c-1.6,3.4-2.5,6.6-2.5,9.5c0,4.8,3,10.2,9.3,16s15.4,11.7,24.7,17.1c9.3,5.4,18.8,10.4,26.5,15.3c3.8,2.5,7.2,4.9,10,7.8
	c2.8,2.9,5.5,6.6,5.5,11.8c0,4.2-2.2,8.3-4.7,10.8c-2.5,2.5-5.4,4.1-8.3,5.5c-2.3,1.1-4.7,2.1-7.2,3.1c6.6,4.8,12.6,10.1,17.5,15.2
	c2.7-1.2,5.5-2.5,8.2-3.8c7-3.4,13.6-7.1,17.9-11.2c4.4-4.1,6.5-8,6.5-13.6c0-9.9-3.6-17.4-9.6-24.3c-6-6.9-14.5-12.7-23.4-17.7
	c-8.9-5-18-9.2-25.4-13.4c-3.7-2.1-7-4.2-9.9-6.9c-0.1-0.1-0.3-0.3-0.4-0.4C224.3,230.8,210.8,222.6,200,217.2L200,217.2z
	 M202.4,259.8c-8.1,4.8-15.8,10.2-21.3,16.5c-6,6.9-9.6,14.4-9.6,24.3c0,5.6,2.2,9.4,6.5,13.6c4.4,4.1,10.9,7.9,17.9,11.2
	c2.6,1.3,5.3,2.5,7.9,3.7c19.1,9.8,36.7,19.1,54,23.8c4-1.4,4.8-5.1,3.9-9.7c-14.9-14.9-29.8-23.8-47.4-32.3c-2.9-1.4-5.7-3-8.3-5.5
	c-2.5-2.5-4.7-6.6-4.7-10.8c0-5.2,2.7-8.9,5.5-11.8c2.8-2.9,6.2-5.3,10-7.8c1.4-0.9,2.9-1.8,4.4-2.7
	C214.9,268.5,208.3,264.4,202.4,259.8L202.4,259.8z M237.5,281.5c-2.9,1.6-5.6,3.2-8,4.6v13.6c0.8,0.3,1.5,0.7,2.3,1.1
	c1.8,0.8,3.8,1.6,5.7,2.5c2.8-1.3,5.5-2.4,8-3.4v-13.8C242.9,284.6,240.2,283,237.5,281.5z M219.7,355.3c0.6,4.2,2.6,8.1,5.8,12.1
	c3.9,4.9,9.7,9.6,15.7,14.1s12.4,8.6,17.6,13.2c5.3,4.5,10.6,9.8,10.6,18c0,9.9-5.8,17.9-13,27c-7.1,9.1-16.4,18.5-25.5,27.3
	c-2,2-4,3.7-6,5.5c8.2-4.3,16.8-9.5,24.8-15.4c22.4-16.3,39.7-37.7,39.7-52.4c0-4.5-1.7-8-5-12c-3.3-3.9-8.3-7.8-13.6-11.5
	c-5.3-3.7-10.9-7.2-15.8-11.4c-0.6-0.5-1.1-1-1.7-1.5C240.5,364.9,229.6,360.3,219.7,355.3L219.7,355.3z M211.8,375.9
	c-2.6,1.8-5.2,3.5-7.8,5.3c-5.3,3.7-10.3,7.6-13.6,11.5c-3.3,3.9-5,7.5-5,12c0,7.3,4,16.3,11.3,25.6c6.4,8,15.1,16.1,24.8,23.5
	c1.7-1.6,3.4-3.3,5.1-5c-2.8-3-5.5-6.1-7.9-9c-7.3-9.1-13.3-17.1-13.3-27.1c0-8.2,5.3-13.4,10.6-18c2.5-2.1,5.2-4.2,8-6.2
	c-3.9-3.3-7.7-6.8-11-10.9C212.7,377,212.2,376.5,211.8,375.9L211.8,375.9z M237.5,398.6c-2.9,2.1-5.7,4.1-8,5.9v22.9
	c0.6,0.8,1.2,1.5,1.8,2.3c1.9,2.4,4.1,4.9,6.5,7.5c2.2-2.5,4.3-5,6.2-7.4c0.5-0.7,1-1.4,1.5-2v-23.3
	C243.2,402.6,240.4,400.7,237.5,398.6L237.5,398.6z"/>
</svg>
