<?xml version="1.0" encoding="utf-8"?>
<!-- Generator: Adobe Illustrator 19.1.0, SVG Export Plug-In . SVG Version: 6.00 Build 0)  -->
<svg version="1.1" id="Layer_1" xmlns="http://www.w3.org/2000/svg" xmlns:xlink="http://www.w3.org/1999/xlink" x="0px" y="0px"
	 viewBox="-61.8 -603.1 1260 1260" style="enable-background:new -61.8 -603.1 1260 1260;" xml:space="preserve">
<style type="text/css">
	.st0{fill:#000000;}
	.st1{display:none;}
	.st2{display:inline;}
	.st3{display:inline;fill:#FFFFFF;}
</style>
<g id="Layer_1_1_">
	<g>
		<g>
			<g>
				<path class="st0" d="M193.2,1.3L193.2,1.3C193.2,1.3,193.2,1,193.2,1.3z"/>
				<path class="st0" d="M177.5,0.5V0C177.5,0.3,177.5,0.3,177.5,0.5z"/>
				<path class="st0" d="M175,52.6L175,52.6L175,52.6z"/>
				<g>
					<path class="st0" d="M181.4,54.8c2.9,0.5,5.6-1,8.3-3.9c2.9-3.2,5.6-7.9,8.6-8.3c3.2-0.5,6.1-0.2,9.3-2.2s6.1-1.5,9.3-1
						c2.9,0.5,6.1-3.9,9.1-2c0.7,0.5,1.7,1.2,2.5,2c0.5,0.2,2.5-2.9,2.7-4.4c0.2-0.7-1-4.2-1.2-5.2c-1-2.9-2.7-6.9-3.4-8.1
						c-1.7-2.5-2.5-3.7-4.2-4.4c-3.7-1.7-7.1-2.7-10.8-7.6c-2.9-3.9-5.9-1.5-8.8-3.2c-3.2-2-6.4-5.4-9.6-5.2
						c-3.4,0.2-6.9-2.7-10.3-2.5c-3.4,0.5-6.9,1.7-10.3,2c-2,0-3.9,0-5.9-0.5c-5.2-1-10.1,0.5-15.2,0.2c-4.7-0.2-9.3-5.4-13.8-3.4
						c-2.5,1-5.6,1.5-7.1,12.5c-0.2,2.7-0.2,7.4,0,11.8c-0.2-6.9,2.9,7.4,3.2,8.1c1.2,3.9,2.7,5.9,3.9,8.6c2.5,5.4,4.9,12.3,7.4,14
						c5.2,3.2,10.3,2.2,15.2,2c4.4-0.2,8.6-1,13-0.7C176,53.3,178.7,54.6,181.4,54.8z"/>
				</g>
			</g>
		</g>
	</g>
	<g>
		<g>
			<g>
				<path class="st0" d="M867.3,46.2L867.3,46.2C867.3,46.2,867.3,46.5,867.3,46.2z"/>
				<path class="st0" d="M884.2,47.9v0.5C884.2,48.2,884.2,47.9,884.2,47.9z"/>
				<path class="st0" d="M890.4-3.9L890.4-3.9L890.4-3.9z"/>
				<g>
					<path class="st0" d="M883.5-6.6c-3.2-0.5-6.4,0.5-9.8,3.4s-6.9,7.6-10.1,7.9c-3.4,0.5-6.9-0.2-10.6,1.7s-7.1,1.2-10.6,0.7
						c-3.4-0.5-6.9,3.7-10.3,1.7c-1-0.5-1.7-1.5-2.7-2c-0.5-0.2-2.7,2.9-3.2,4.4c-0.2,0.7,1.2,4.2,1.5,5.2c1.2,2.9,2.9,6.9,3.9,8.3
						c2,2.5,2.7,3.7,4.7,4.4c3.9,1.7,7.9,2.9,11.5,7.9c2.9,3.9,6.4,1.5,9.6,3.4c3.4,2.2,6.6,5.6,10.3,5.6s7.4,3.2,11.1,2.9
						c3.7-0.2,7.6-1.2,11.3-1.2c2.2,0,4.4,0.5,6.6,1c5.4,1.2,11.1,0.5,16.7,0.7c5.2,0.2,10.1,5.9,15.2,4.2c2.7-1,6.4-1.2,8.8-12.3
						c0.5-2.7,0.7-7.4,0.7-11.8c0,6.9-2.9-7.6-3.2-8.1c-1.2-4.2-2.7-5.9-3.9-8.8c-2.5-5.4-4.7-12.5-7.4-14.2
						c-5.4-3.4-10.8-2.7-16.7-2.9c-4.9-0.2-9.8,0.2-14.5-0.2C889.4-4.6,886.5-6.1,883.5-6.6z"/>
				</g>
			</g>
		</g>
	</g>
	<g>
		<g>
			<g>
				<path class="st0" d="M537.2-313.1L537.2-313.1C537.2-313.1,537.2-312.8,537.2-313.1z"/>
				<path class="st0" d="M539.7-316.8v1C539.7-316.3,539.7-316.5,539.7-316.8z"/>
				<path class="st0" d="M545.1-394.1l0.2,0.2C545.1-394.1,545.1-394.1,545.1-394.1z"/>
				<g>
					<path class="st0" d="M533.6-420.9c-4.2,13.5-8.6,30.5-11.5,47.4c-1.5,8.8-2.9,17.2-3.9,24.8c-1.2,7.6-2.2,14.5-3.9,19.2
						c-1,2.7-2,5.4-2.7,8.1l-1.5,3.9l-0.2,0.5l-0.2,0.2l-0.2,0.7l-0.5,1.2c-1.5,3.4-2.5,7.1-3.7,11.1c-1,3.9-2.5,7.6-3.9,11.3
						c-1.5,3.7-3.2,7.4-4.9,11.1c-1.5,3.7-2.2,7.4-3.2,11.3c-0.7,3.7-1.7,7.6-3.4,11.1c-1,1.7-2.2,3.7-3.2,5.4
						c-0.5,1-0.2,6.4,0.5,7.6c0.2,0.5,3.4-1.5,4.2-2.2c2.7-2,6.6-4.9,8.1-6.6c2.9-3.4,4.4-5.2,6.1-9.1c4.2-8.1,8.1-16,14.5-22.6
						c2.5-2.7,4.4-6.1,5.9-9.3c1.5-3.4,2.9-7.1,5.2-10.3l0.7-1.2l0.5-0.5c0.2-0.5,0.7-0.7,1-1c0.7-0.7,1.5-1.2,2-1.7
						c0.2-0.2,0.7-0.5,0.7-0.7c0.2,0,0.2-0.2,0.5-0.2c0.2-0.2,0.5-0.5,0.5-0.7c0.2-1,0.7-1,1.2-0.7c0.5,0.2,0.7,0.7,0.7,0l0.2-1.5
						c0.2-0.2,0.7-0.2,1,0.7c0.2,0.7,0.7,1.7,0.7,2.9c0,0.2,0,0.5,0.2,0.7c0,0.2,0.2,0.7,0.2,1c0.2,0.5,0.5,1.2,1,1.7l9.1,16.7
						c2.7,4.9,4.4,10.1,6.1,15.2c2,5.2,3.7,10.1,6.6,14.5c3.2,4.9,6.4,11.8,15.2,13.3c2.2,0.2,5.2-0.5,7.9-1.7c-4.2,2,2-7.9,2-8.6
						c1.2-3.7,1-7.1,1.5-10.8c0.7-6.9,2.5-13.8,0.5-20.1c-1-3.2-2.5-6.4-3.7-9.6c-1.5-3.2-2.9-6.1-4.4-8.8
						c-2.9-5.6-6.1-11.3-9.1-16.9l-6.6-14.2c-2.2-4.7-4.4-9.3-6.6-14.7c-4.2-10.6-8.6-21.4-12.8-32.2c-4.4-11.5-8.8-25-13.8-38.3
						C534.3-423.6,533.8-422.4,533.6-420.9z"/>
				</g>
			</g>
		</g>
	</g>
	<g>
		<g>
			<g>
				<path class="st0" d="M514.9,375.8L514.9,375.8L514.9,375.8z"/>
				<path class="st0" d="M514.6,392h-0.5C514.4,392,514.4,392,514.6,392z"/>
				<path class="st0" d="M566.7,394.2L566.7,394.2L566.7,394.2z"/>
				<g>
					<path class="st0" d="M568.9,387.3c0.2-2.9-1-6.1-4.2-8.8c-3.2-2.9-8.1-5.9-8.6-9.1c-0.7-3.2-0.5-6.6-2.5-9.8
						c-2-3.2-1.7-6.4-1.2-9.8c0.5-3.2-4.2-6.1-2.5-9.3c0.5-1,1.2-1.7,2-2.7c0.2-0.5-2.9-2.5-4.4-2.7c-0.7-0.2-4.2,1.2-4.9,1.7
						c-2.9,1.2-6.9,3.2-8.1,4.2c-2.5,2-3.4,2.7-4.2,4.7c-1.5,3.9-2.5,7.6-7.4,11.5c-3.9,3.2-1.2,6.1-2.9,9.3
						c-2,3.4-5.2,6.6-4.9,10.1c0.2,3.4-2.7,7.1-2,10.6c0.5,3.4,1.7,6.9,1.7,10.3c0,2-0.2,3.9-0.5,6.1c-1,5.2,0.2,10.3,0,15.2
						c-0.2,4.7-5.6,9.1-3.7,13.8c1,2.5,1.5,5.6,12.5,7.9c2.7,0.5,7.4,0.7,11.8,0.7c-6.9,0,7.4-2.7,8.1-2.9c4.2-1.2,5.9-2.5,8.6-3.9
						c5.4-2.5,12.5-4.7,14-7.4c3.2-5.6,2.5-11.1,2.2-16.5c0-4.7-1-9.3-0.5-14C567.4,393.2,568.7,390.3,568.9,387.3z"/>
				</g>
			</g>
		</g>
	</g>
	<g>
		<g>
			<g>
				<g>
					<path class="st0" d="M553.2,160.4l-0.7,0.5C552.7,160.7,553,160.7,553.2,160.4z"/>
					<path class="st0" d="M645.3,89.9l0.2,0.5C645.5,90.2,645.3,89.9,645.3,89.9z"/>
					<path class="st0" d="M631.5,50.6l0.2-0.5C631.5,50.4,631.5,50.6,631.5,50.6z"/>
					<g>
						<path class="st0" d="M604,81.3c-13.5,12.8-28.5,24.8-43.7,36.6c-15.7,12.3-32.4,24.6-51.1,34.4
							c-19.6,10.3-39.8,19.9-59.2,31.7c-2.5,1.5-4.9,2.9-7.4,4.4c-2.5,1.5-4.7,2.9-7.1,4.4c-4.7,2.9-9.6,5.9-14.2,8.8
							c-4.9,2.9-9.6,5.6-14.5,8.6c-4.7,2.9-9.6,5.9-14.2,8.8c-18.7,11.3-35.1,25.3-54,35.9c-5.2,2.7-10.3,5.2-15.5,7.6
							c-2.5,1.2-13.5,10.3-15.5,12.8c-1,1,7.4-1.2,9.8-2c7.6-2.2,18.9-5.9,24.6-8.3c11.3-4.9,16.5-7.6,27.3-13.8
							c11.3-6.4,22.3-12.8,33.4-19.2c5.6-2.9,11.1-6.1,16.7-9.1c5.6-2.7,11.5-5.4,17.4-7.9c9.6-4.2,18.4-9.3,27.8-14
							c9.3-4.9,18.7-9.8,28.2-14c20.9-8.8,42.2-16.9,62.6-28.2c21.6-12.3,44.2-24.1,63.9-41.5c19.2-16.9,35.9-37.6,48.4-60.2
							c2-3.2,3.7-6.6,5.4-10.1l4.9-10.1l8.8-18.7C702-13,717-45.4,730.3-79.3c5.6-15,12-29.5,18.2-44c3.2-7.1,6.1-14.5,9.1-21.9
							c2.9-7.4,5.9-14.5,8.3-22.1c2.7-7.9,5.9-17.2,8.8-26.3c2.7-9.1,4.7-18.2,4.2-26c-0.2-3.9-2.7-6.1-5.2-7.4c4.2,2-12,15-13,16.2
							c-2.9,3.2-5.4,6.9-8.1,10.6c-1.2,2-2.5,3.7-3.7,5.6c-1.2,2-2.5,3.7-3.7,5.6c-9.3,14.2-19.6,26.8-26.5,43
							c-7.6,17.2-14.2,34.4-20.9,51.6c-1.5,4.4-3.4,8.3-5.2,12.5l-5.2,12.5c-3.2,8.3-7.4,16.7-11.1,25l-4.9,10.6l-4.9,10.8
							l-9.8,21.6L647,20.7c-1.7,3.9-3.2,6.9-4.7,10.1c-1.7,3.2-3.2,6.4-5.2,9.6C628.6,55.5,617.1,69,604,81.3z"/>
					</g>
				</g>
			</g>
		</g>
		<g>
			<g>
				<g>
					<path class="st0" d="M424.8,15.3l-0.2,0.7C424.8,15.8,424.8,15.5,424.8,15.3z"/>
					<path class="st0" d="M483.2-62.1v0.5C483.5-61.8,483.5-61.8,483.2-62.1z"/>
					<path class="st0" d="M487.6-103.4l0.5-0.2C487.9-103.6,487.6-103.4,487.6-103.4z"/>
					<g>
						<path class="st0" d="M444.4-79c-2.2,2-4.4,3.9-6.6,5.9c-2.2,2.2-4.2,4.2-6.4,6.4c-3.9,4.4-7.6,9.1-10.8,13.8
							c-6.4,9.6-11.3,19.6-15.2,29.7c-7.9,20.9-11.5,41.5-18.7,61.2c-3.9,10.3-7.6,20.4-11.8,30.7c-4.2,10.1-7.9,20.4-11.8,30.7
							c-7.6,20.9-16.7,40.5-25.8,60.9c-4.4,9.8-8.1,19.9-11.8,30.2c-3.7,10.1-7.1,20.4-11.8,30.2c-1.2,2.7-2.5,5.2-3.7,7.9l-3.4,7.9
							c-1.2,2.7-3.9,16.7-3.9,19.6c0,1.2,4.9-5.9,6.4-7.9c2.2-3.2,4.9-7.4,7.4-11.3c1.2-2,2.5-3.9,3.4-5.6c1-1.7,2-3.4,2.7-4.7
							c5.9-10.6,8.6-15.7,13.8-27c10.8-23.3,21.4-45.7,34.6-67.8c5.4-8.8,9.8-18.4,14-28.2c4.2-9.6,8.1-19.6,12.8-29
							c4.9-10.3,9.8-20.6,14.7-30.9c4.7-10.3,8.8-20.6,13-30.9c4.2-10.8,9.3-21.1,15-30.5c5.9-9.3,12-17.7,19.2-25
							c13.5-14.5,32.7-25.3,54-34.6c12.3-5.4,25.5-10.6,38.8-16.7c31.7-14.5,63.1-30.2,94.5-45.7c28.5-13.8,58-24.8,85.5-41.5
							c7.4-4.7,16-9.8,23.8-15.5c7.9-6.1,14.7-12.5,18.9-19.4c2-3.4,1.2-6.6-0.2-8.8c2.5,3.9-18.4,5.6-19.9,5.9
							c-4.2,1-8.3,2.5-12.3,3.9c-4.2,1.5-8.3,2.9-12.5,4.2c-16,5.2-31.2,7.9-47.2,15.2c-33.4,15-65.8,31.2-99.2,47.4l-42.5,20.6
							l-10.3,4.9c-3.4,1.5-6.9,3.2-10.3,4.7l-21.6,9.3C481.7-101.4,462.1-93,444.4-79z"/>
					</g>
				</g>
			</g>
		</g>
	</g>
	<g>
		<g>
			<g>
				<path class="st0" d="M552.2-458.7H549C550.5-458.5,551.5-458.2,552.2-458.7z"/>
				<path class="st0" d="M944.2-245.8l-2,0.2C943.2-245.3,943.9-245.5,944.2-245.8z"/>
				<path class="st0" d="M1134.5-219.3c0,0,0.5,0.7,0.7,1.7c0.5,0.7,0.7,1.7,0.7,1.7C1135.5-217.5,1135-218.5,1134.5-219.3z"/>
				<g>
					<path class="st0" d="M1000.7-432.2l-15.5-15l-7.9-7.4l-8.1-7.1l-16.2-14l-16.9-13l-8.6-6.4l-8.8-6.1L900.7-513
						c-6.1-3.7-12.3-7.4-18.4-10.8l-9.3-5.4l-9.6-4.9c-6.4-3.2-12.8-6.6-19.2-9.6l-19.4-8.6c-3.2-1.5-6.4-2.9-9.8-4.2l-10.1-3.7
						c-6.6-2.5-13.3-4.9-19.9-7.4c-13.5-4.2-26.8-8.6-40.5-11.8c-6.9-1.7-13.5-3.4-20.4-4.9c-6.9-1.2-13.8-2.7-20.6-3.9
						c-28.5-4.7-56.7-7.6-85.2-7.9l-10.6-0.2c-3.4,0-7.1,0.2-10.6,0.2c-7.1,0.2-14,0.2-21.1,0.5c-14,1-28,1.7-42,3.4l-10.3,1.2
						l-5.2,0.7l-5.2,0.7c-6.9,1-13.8,2.2-20.6,3.2c-6.9,1-13.8,2.7-20.6,3.9l-10.3,2c-3.4,0.7-6.9,1.5-10.1,2.2
						c-6.9,1.5-13.5,3.2-20.4,4.7c-6.6,1.7-13.5,3.7-20.1,5.4c-6.9,1.7-13.5,3.7-20.1,5.6l-10.1,2.9l-4.9,1.5l-4.9,1.7l-20.9,7.1
						c-6.9,2.5-13.8,5.2-20.6,7.9c-3.4,1.5-6.9,2.7-10.3,4.2l-10.1,4.4l-10.1,4.4l-5.2,2.2c-1.7,0.7-3.2,1.7-4.9,2.5l-19.6,9.8
						c-6.6,3.4-12.8,7.1-19.2,10.8c-3.2,1.7-6.4,3.7-9.6,5.4l-9.6,5.9l-9.3,5.9c-3.2,2-6.1,3.9-9.1,6.1l-17.9,12.8
						c-2.9,2.2-5.9,4.4-8.8,6.6l-8.6,6.9l-8.6,6.9c-2.9,2.2-5.4,4.9-8.3,7.1l-16.2,14.7l-15.5,15.5c-2.5,2.7-5.2,5.2-7.6,7.9
						l-7.4,8.1l-7.1,8.1c-2.5,2.7-4.9,5.4-7.1,8.3l-13.5,17.2c-2.2,2.9-4.4,5.9-6.4,8.8l-6.4,9.1l-6.4,8.8c-2.2,2.9-3.9,6.1-5.9,9.1
						c-3.9,6.1-7.9,12.3-11.8,18.4c-3.7,6.1-7.4,12.5-11.1,18.7c-3.9,6.1-7.1,12.5-10.6,18.9c-3.4,6.4-6.9,12.5-9.8,19.2l-9.3,19.4
						l-8.6,19.9c-22.1,53-37.3,109-44.5,167c-1,6.9-1.5,14-2,21.1c-0.5,7.1-1,14-1,21.1v21.1c0.2,7.1,0.7,14,1,21.1
						c2,28,5.9,55.7,12.3,83c6.1,27.3,13.8,54,22.8,80.3l3.4,9.8c1.2,3.2,2.5,6.4,3.7,9.8c2.5,6.4,4.9,13,7.4,19.4
						c5.4,12.8,10.3,25.8,16.2,38.6c2.9,6.9,5.9,13.8,9.1,20.4c3.2,6.6,6.4,13.5,9.6,20.1l10.6,19.9l2.7,4.9l2.9,4.9l5.9,9.6
						c3.7,6.4,18.7,23.1,35.1,38.3c16.2,15.2,34.1,28.2,40.5,31.9c2.9,1.7-1.2-7.1-6.4-17.4c-5.6-10.1-11.5-22.6-14.2-27.8
						c-9.1-17.2-18.9-39.3-27.8-60.4c-2.2-5.2-4.2-10.6-6.1-15.7c-2-5.2-3.9-9.8-5.6-14.7c-3.2-9.6-6.4-17.9-8.8-24.6
						c-2.5-6.9-4.7-13.3-6.6-19.4c-0.5-1.5-1-2.9-1.5-4.4c-0.5-1.5-1-2.9-1.2-4.4c-0.7-2.9-1.7-5.6-2.5-8.6
						c-0.7-2.7-1.7-5.4-2.5-8.1c-0.5-1.2-0.7-2.7-1.2-3.9c-0.2-1.2-0.7-2.7-1-3.9c-1.5-5.2-2.7-10.3-3.9-15.5
						c-1.5-5.2-2.5-10.3-3.7-15.5c-1.2-5.2-2.5-10.6-3.9-16.2c-2.2-11.3-5.2-23.6-7.4-37.8c-5.2-29.5-7.6-59.2-7.9-88.7
						c0-29.5,2.5-58.7,7.6-87.2s12.8-56.5,23.3-83.3s23.8-52.3,39.5-76.1c12.5-19.4,25.8-38.1,39.3-56.7c3.4-4.7,6.9-9.1,10.3-13.8
						c1.7-2.5,3.7-4.4,5.4-6.9l5.4-6.6c7.1-9.1,15-17.7,22.6-26.5c3.9-4.2,8.1-8.3,12-12.5l5.9-6.4c2-2,4.2-3.9,6.4-5.9l12.8-12
						c4.4-3.7,8.8-7.4,13.3-11.3l6.6-5.6l6.9-5.2c4.7-3.4,9.3-6.9,14-10.3c4.9-3.2,9.6-6.1,14.5-9.3c2.5-1.5,4.7-3.2,7.4-4.4
						l7.6-4.2l8.1-4.4c2.7-1.5,5.4-2.9,8.1-4.2l16.7-7.9c5.6-2.5,11.3-4.7,16.9-7.1c2.9-1.2,5.6-2.5,8.6-3.4l8.6-2.9l8.6-2.9
						l4.4-1.5l4.4-1.2l17.4-5.2c5.9-1.5,11.8-2.9,17.7-4.4c5.9-1.5,11.8-2.7,17.7-3.7c11.8-2.7,23.8-4.2,35.6-6.1l17.9-2l4.4-0.5
						l4.4-0.2l9.1-0.7c23.8-1.7,47.9-2.5,71.7-1.7c25.5,0.7,50.8,3.9,75.6,9.3c24.8,5.6,48.9,13.5,72.2,23.1
						c23.3,9.3,45.7,21.1,67.3,33.9s42.2,26.8,62.1,42.5c5.2,3.7,9.8,7.6,14.5,11.5c4.7,3.9,9.6,7.9,14,12l13.8,12.5l13,13.3
						c4.4,4.2,8.3,9.1,12.8,13.8l6.1,6.9c2.2,2.2,3.9,4.9,5.9,7.1c3.9,4.9,7.9,9.6,11.8,14.5l11.1,15c14.2,20.4,26.8,42,37.8,64.3
						c10.8,22.6,19.4,45.9,26.3,70c15.7,56.2,20.9,115.7,14,173.4c-4.2,36.6-12.3,72.4-23.8,107.1l-2.2,6.6l-2.5,6.4l-4.9,12.8
						c-0.7,2.2-1.7,4.2-2.7,6.4l-2.7,6.4c-2,4.2-3.4,8.3-5.4,12.5c-7.9,16.5-16.2,32.7-26,48.1c-19.2,31.2-41.7,60.2-67.3,86.4
						c-25.8,26-54.8,49.1-86,68.3c-28.2,17.4-58.4,30.7-89.6,40.3c-31.2,9.6-63.1,15.7-95.3,18.4c-32.2,2.7-64.3,2.5-96.3-0.5
						c-31.9-2.9-63.6-8.1-95.3-15.5c-2.2-0.5-4.2-1-6.4-1.5s-4.2-1.2-6.4-1.7c-4.4-1.2-8.8-2.5-13.3-3.7c-2.2-0.5-4.4-1.2-6.6-2
						c-2.2-0.7-4.4-1.5-6.6-2.2c-2.2-0.7-4.7-1.5-6.9-2.2c-2.2-0.7-4.7-1.5-6.9-2.2c-9.1-3.4-18.4-6.4-27.5-10.3
						c-4.7-2-9.3-3.7-14-5.4c-4.7-2-9.1-3.9-13.8-5.9c-37.1-15.2-72.4-32.4-106.6-41.5c-16.5-4.4-30.2,2.2-39.3,11.1
						c3.7-3.7,8.3-0.7,13.5,5.6c2.7,3.2,5.2,7.4,8.1,12.3c2.9,4.7,5.9,9.6,8.8,15c2.9,5.4,5.9,11.1,8.8,16
						c2.9,5.2,5.9,10.3,8.3,14.7c1.2,2.2,2.5,4.4,3.4,6.1c1.2,2,2.2,3.4,2.9,4.9c1.7,2.9,2.9,4.9,3.7,5.4c3.2,4.2,6.6,8.1,10.1,12.3
						c3.7,3.9,7.4,7.6,11.3,11.5c2,2,3.9,3.7,5.9,5.6s3.9,3.9,6.1,5.6c4.2,3.4,8.3,7.1,12.8,10.6l6.6,5.4c2.2,1.7,4.4,3.2,6.9,4.9
						L300,547l3.4,2.5l3.4,2.2l7.1,4.7c4.7,3.2,9.3,6.4,14.2,9.3c36.8,23.3,74.4,44,115.4,59.2s85.7,25,134.6,25.3
						c51.1,0,102.4-6.9,152.3-20.4c49.6-13.8,97.5-33.9,142.2-59.9c44.5-26.3,85.7-58,122.5-94.1c4.7-4.4,9.1-9.1,13.5-13.8l13.3-14
						l12.5-14.7c4.2-4.9,8.3-9.8,12.3-15c7.9-10.3,16-20.4,23.1-31.2c3.7-5.4,7.4-10.6,11.1-16l10.3-16.5
						c46.2-75.1,76.1-160.1,87.2-247.5c11.3-87.2,4.7-176.6-18.9-261.3c-1.5-6.4-3.7-12.5-5.6-18.9c-2-6.4-3.9-12.8-6.1-18.9
						c-2.2-6.1-4.4-12.5-6.9-18.7c-1.2-3.2-2.2-6.4-3.4-9.3l-3.9-9.3c-2.5-6.1-5.2-12.5-7.9-18.7c-2.9-6.1-5.6-12.3-8.6-18.2
						l-4.4-9.1l-4.7-8.8c-3.2-5.9-6.4-12-9.6-17.9C1071.9-348.7,1039-392.9,1000.7-432.2z"/>
				</g>
			</g>
		</g>
	</g>
	<g>
		<path d="M759.2-201.3c-33.2,3.2-63.9,22.8-92.1,39.3c-24.6,14.2-49.9,21.6-76.1,30.7c-29,10.6-60.9,25.3-85.2,43.7
			c-14.7,11.1-29.5,22.8-44.2,33.9c-14.2,11.1-22.8,26.5-31.9,41.3c-9.8,15.5-15.5,32.7-24.1,48.6c-8.1,14.7-6.9,27.8-15,42.5
			c-8.1,15.5-9.3,27-17.2,41.7c-7.6,13.3-14,33.4-24.1,54.8c-8.1,17.2-4.4,15-36.8,73.7c-6.6,11.8,27.8,14,39.5,8.3
			c16.7-6.9,33.9-15.5,47.9-27c14.7-12.3,25.8-23.3,44.2-30.7c16-5.6,33.2-9.8,47.9-17.9c16.7-8.6,29.5-21.6,43-33.9
			c13.5-11.8,29.5-20.4,44.2-30.2C631.5,82.3,646.8,11.8,677-40.5c13.5-22.8,23.3-47.4,35.1-70.7c13-25.8,45.4-52.3,47.2-81.8"/>
		<g>
			<g>
				<path class="st0" d="M454,187.4l1.5-0.5C454.7,187.2,454.2,187.2,454,187.4z"/>
				<path class="st0" d="M338.6,217.6v0.5C338.8,217.6,338.6,217.6,338.6,217.6z"/>
				<path class="st0" d="M341.5,170.2l0.5-1.2C341.8,169.5,341.8,169.7,341.5,170.2z"/>
				<g>
					<path class="st0" d="M302,251.8c0.2,2.2,0.7,4.2,1.7,6.1c1,2,2.5,3.4,4.2,4.9c1.7,1.2,3.7,2.5,5.9,3.4c1,0.5,2.2,0.7,3.4,1.2
						c0.5,0.2,1.2,0.2,1.7,0.5l1.2,0.2c5.9,1.2,11.3,1.5,16.7,1.2c2.7,0,5.4-0.2,8.3-0.7c2.9-0.5,5.6-1,9.1-2.2l7.1-2.9
						c2.2-1,4.4-2,6.6-3.2c9.1-4.2,17.9-9.1,26.3-15c2-1.5,4.2-2.9,6.1-4.4c2-1.7,3.9-3.2,5.9-4.9c3.7-3.2,7.1-6.4,10.8-9.6
						c7.1-6.4,14.2-12.3,22.1-16.7c2-1.2,3.9-2,5.9-2.9c2-1,4.2-1.7,6.4-2.7l13.8-4.9c9.3-3.2,18.9-6.9,28-11.8
						c9.1-4.7,17.7-10.8,25.5-17.4c4.2-3.4,8.1-7.1,12-10.6l5.6-5.4l2.9-2.7l2.9-2.2l5.9-4.7c2-1.5,4.2-2.9,6.1-4.4l6.4-4.4l6.6-4.2
						l13.3-8.6c2.2-1.5,4.4-3.2,6.6-4.7c2.2-1.7,4.4-3.2,6.4-5.2c3.9-3.7,8.1-7.4,11.8-11.3c3.7-3.9,7.1-8.3,10.3-12.5
						c6.4-8.8,12-17.9,17.2-27.3c5.2-9.3,9.6-18.7,14-28.2c8.8-18.9,16.7-38.3,26.3-56.7c2.2-4.4,4.7-8.8,7.1-13.3l7.4-13.5
						c1.2-2.2,2.5-4.4,3.7-6.9l3.2-6.9c2.2-4.7,4.4-9.3,6.4-14l6.4-14l6.4-13.8c2.2-4.7,4.4-8.8,7.1-13c2.7-4.2,5.6-8.1,8.8-12
						c6.6-8.6,13.8-16.7,20.1-25.8c1.7-2.2,5.9-9.3,9.1-17.2c1-2,1.5-3.9,2-5.9c0.7-2,1-3.9,1.2-5.6c0.5-1.7,0.5-3.4,0.5-4.7
						s0.2-2.5,0.2-3.2c0-1.2-0.7,2.2-1.7,6.6c-1.2,4.2-3.4,9.1-4.4,11.1c-6.4,13.3-21.6,29.5-28.7,38.3
						c-7.4,8.8-12.5,15.7-16.7,23.3c-2.2,3.7-3.9,7.6-6.1,11.8c-2.2,4.2-4.4,8.8-6.9,14c-2.7,5.4-5.2,11.1-7.9,16.2l-3.9,8.1l-2,3.9
						l-2.2,3.9c-2.9,5.2-5.9,10.3-8.8,15.7l-4.4,7.9l-4.2,8.1c-11.1,21.4-20.4,43.5-31.4,64.6c-9.1,16.9-18.9,33.9-31.2,48.6
						c-6.4,7.1-13,14-20.9,19.4c-2,1.5-3.7,2.9-5.9,4.2l-6.1,3.9c-4.2,2.7-8.3,5.2-12.5,7.9c-4.7,2.7-9.1,5.9-13.8,8.8l-6.6,4.9
						c-2.2,1.7-4.7,3.4-6.6,5.2c-8.1,7.1-15.7,14.2-24.1,20.1c-8.1,6.1-16.7,10.8-26,14.7c-9.3,3.9-19.4,6.9-29.7,10.1l-4.2,1.5
						c-1.5,0.5-2.7,0.7-4.2,1.5c-2.9,1.2-5.9,2.5-8.6,3.9l-4.2,2.2c-1.2,0.7-2.7,1.7-3.9,2.5c-2.7,1.5-5.2,3.4-7.6,5.2
						c-4.9,3.7-9.3,7.4-13.8,11.1c-4.4,3.7-8.6,7.4-12.8,10.3c-8.6,6.1-18.2,11.5-28.2,16c-2.5,1.2-4.9,2.2-7.6,3.4l-3.9,1.7
						l-1.7,0.7c-0.5,0.2-0.7,0.2-1.2,0.5c-3.7,1.2-9.1,1.7-14,1.5c-2.2,0-4.2-0.2-6.4-0.5c-1-0.2-2-0.2-2.9-0.5
						c-0.5,0-0.2,0-0.5-0.2c-0.2,0-0.5-0.2-0.7-0.5s0-0.5,0.2-0.7l11.3-21.4c4.2-7.6,8.1-15.7,12-23.8c2-3.9,3.7-8.1,5.6-12.3
						l5.2-11.8c3.4-8.1,7.4-16.5,10.6-24.6c2.5-6.1,4.9-12,7.6-17.9c0.5-1.5,1.2-2.9,2-4.2l2.2-4.2l4.7-9.1c3.2-6.4,5.4-13,7.6-19.2
						c2.2-6.1,4.4-11.8,7.1-16.9l2.9-6.1c1-2.2,1.7-4.4,2.5-6.6c0.7-2.2,1.2-4.4,2-6.4l1.5-6.1c0.5-2,1-3.9,1.5-5.6l0.7-2.7l1-2.5
						c0.5-1.7,1.5-3.4,2.2-4.9l1.2-2.5l1.5-2.9c8.1-15.5,13.3-30.9,21.6-44c8.8-14.2,16.7-28,28-37.6l2-1.7l2.5-2l4.9-3.7l9.8-7.6
						l19.6-15c2.9-2.2,5.9-4.7,8.8-6.6c2.9-2,5.9-4.2,8.8-6.1c2.9-2,6.1-3.7,9.1-5.6l9.3-5.2c12.8-6.6,26-12.5,39.5-17.7
						c3.4-1.5,6.6-2.5,10.1-3.7c3.4-1.2,6.9-2.5,10.3-3.7c7.1-2.5,14-4.7,21.1-7.1c14.2-4.9,28.7-10.3,42.7-17.7
						c1.7-1,3.7-2,5.6-3.2c1-0.5,2-1,2.9-1.7c1-0.5,1.7-1.2,2.7-1.7c3.7-2.2,7.4-4.4,11.3-6.9c7.6-4.7,15.5-9.3,23.1-13.5
						c15.5-8.6,30.5-15.2,42.7-18.9c5.9-2,7.9-3.4,7.6-4.9c0,0.5-2,1-5.4,1.2c-3.2,0.2-7.6,0.7-12,1.5c-8.8,1.2-18.2,3.7-19.4,4.2
						c-15,4.7-30.2,12.5-44.7,19.9c-7.1,3.7-13.8,7.1-20.6,10.1c-3.4,1.5-6.9,2.7-10.3,4.2c-3.4,1.2-6.9,2.5-10.3,3.7
						c-14,4.7-28.7,8.8-44.7,14c-16.9,5.6-33.4,12.3-49.6,20.1c-3.9,2-8.1,3.9-12,6.1c-3.9,2.2-7.9,4.4-11.8,6.6l-5.6,3.7
						c-2,1.2-3.9,2.5-5.6,3.7c-3.7,2.7-7.6,5.2-10.8,7.9l-20.9,16l-10.3,7.9l-5.2,3.9l-2.7,2c-1,0.7-1.7,1.2-2.7,2.2
						c-7.9,6.4-14,13.8-19.4,21.4c-5.4,7.6-9.8,15.2-14.5,22.6l-5.9,10.3c-2,3.4-3.4,6.9-4.9,10.3c-1.7,3.4-3.2,6.9-4.7,10.3
						l-3.7,4.9l-2.5,4.9l-4.9,10.1c-1,2-2,3.9-2.5,5.9c-0.7,2-1.5,3.9-2,5.9c-2.2,7.9-3.7,15-5.9,20.9l-0.7,2.2l-1,2.2l-2.2,4.9
						c-2,3.7-3.4,7.4-4.9,11.1c-2.7,7.4-4.9,14.5-7.6,20.6c-0.7,1.5-1.2,3.2-2,4.7l-2.5,4.7l-5.4,10.6c-2.9,7.1-5.9,14-8.8,20.9
						c-3.2,7.9-6.6,15.5-10.1,23.3c-1.7,3.9-3.7,8.1-5.4,12c-1.7,3.9-3.2,7.6-5.4,11.5c-3.9,7.6-7.6,15.2-12,22.8
						c-4.7,8.3-9.1,16.7-13.8,25.3c-0.5,1.5-1,2.7-1.5,4.2C302.2,249.1,302,250.3,302,251.8z"/>
				</g>
			</g>
		</g>
	</g>
</g>
<g id="Layer_2" class="st1">
	<g class="st2">
		<g>
			<g>
				<path class="st0" d="M328.5,243.5l-1-0.8C327.9,243,328.2,243.3,328.5,243.5z"/>
				<path class="st0" d="M388.7,415.8l-0.2-0.4C388.5,415.7,388.6,415.8,388.7,415.8z"/>
				<path class="st0" d="M401,461.8l-0.3,1.2C400.8,462.4,400.9,462,401,461.8z"/>
				<g>
					<path class="st0" d="M413.5,377.1c-0.2-9.8-1.1-19.7-2.7-29.4c-1.6-9.7-4.2-19.3-7.3-28.6l-2.5-6.9c-0.9-2.3-1.9-4.5-2.8-6.8
						l-1.4-3.4l-1.6-3.3c-1.1-2.2-2.1-4.4-3.2-6.6c-4.5-8.7-9.7-16.9-15.3-24.8c-5.9-8-12.4-15.6-19.3-22.7
						c-7.1-7-14.6-13.4-22.5-19.4c-8-5.8-16.4-11.1-25.2-15.7c-2.2-1.1-4.4-2.2-6.7-3.3c-2.2-1.1-4.4-2.2-6.7-3.1
						c-2.3-1-4.5-1.9-6.8-2.9l-1.7-0.7l-1.7-0.7l-3.5-1.3l-3.7-1.4c-1.2-0.5-2.4-0.9-3.7-1.3l-7.4-2.5c-2.5-0.9-4.9-1.6-7.3-2.3
						c-2.4-0.8-4.9-1.5-7.3-2.2c-9.8-2.9-19.9-5.6-30.1-7.4c-2.6-0.4-5.2-0.9-7.8-1.2l-7.8-0.9l-7.9-0.5c-2.6-0.1-5.2-0.1-7.8-0.1
						c-10.4,0.1-20.9,0.9-31.2,2.6c-10.4,1.8-20.5,4.2-30.4,7.3c-9.9,3.1-19.5,7.1-28.8,11.6s-18.2,9.9-26.7,15.9
						s-16.6,12.6-24.1,20.1c-7.2,7.1-13.8,14.9-19.7,23.1c-5.8,8.3-11,16.9-15.6,25.9L12,291l-0.8,1.7l-0.7,1.7L9,297.8l-1.5,3.4
						l-0.7,1.7l-0.7,1.7l-2.7,7c-0.9,2.3-1.7,4.7-2.6,7c-0.8,2.3-1.7,4.7-2.5,7c-1.6,4.7-3.2,9.3-4.8,14c-3.5,9.8-7.3,19.6-10.3,30
						c-0.7,2.5-2.5,10.4-3.1,18.5c-0.3,4.1-0.4,8.2-0.2,11.6c0.1,3.4,0.6,6.1,0.8,7.4c0.1,0.6,0.2,0,0.3-1.2
						c0.1-1.2,0.2-3.1,0.4-5.2c0.4-4.2,1.3-9.1,1.7-11.2c1.4-7,4-15.4,7-23.3c2.9-7.9,6-15.3,8-20.5c2-5.2,3.7-9.7,5.3-13.8
						c0.8-2.1,1.5-4.1,2.3-6s1.5-3.8,2.3-5.7c3-7.6,6.3-15.1,11.1-25.2c10.2-20.7,23.9-39.3,40.5-54.7c16.6-15.3,36-27.3,57.1-35
						c8.6-3,17.3-5.8,26.3-7.9s18.1-3.7,27.4-4.7c9.3-0.9,18.6-1.2,27.9-0.8c9.1,0.4,18.2,1.8,27.2,3.9c9.7,2.3,19.3,5.3,28.9,8.5
						c2.4,0.8,4.8,1.6,7.2,2.5l7,2.6c2.4,0.8,4.6,1.8,6.9,2.8s4.6,1.9,6.9,2.9c4.4,2.1,9,4.1,13.3,6.5l3.2,1.7
						c1.1,0.6,2.2,1.1,3.2,1.8l6.2,3.8c8.2,5.3,15.9,11.3,23.3,17.8c1.9,1.8,3.9,3.5,5.7,5.3l5.4,5.6c1.7,1.9,3.4,3.9,5.1,5.9
						c0.9,1,1.7,2,2.5,3l2.4,3.1c6.3,8.3,11.9,17.2,16.7,26.4c4.8,9.2,8.8,18.9,12,28.8c3.2,9.9,5.6,20,7.1,30.2
						c1.5,10.1,2.2,20.4,2,30.7l-0.3,7.7c-0.2,2.6-0.4,5.1-0.6,7.7c-0.5,5.2-1.2,10.5-1.8,15.8l-2.4,15.6
						c-0.9,5.1-1.9,10.3-3.2,15.3c-1.2,5.1-2.7,10.1-4.2,15c-1.6,4.9-3.3,9.8-5.3,14.6c-1.1,2.8-2.4,5.5-3.6,8.2
						c-0.6,1.4-1.3,2.7-2,4l-1,2l-1.1,2c-2.8,5.3-6,10.3-9.4,15.2l-2.6,3.6l-2.7,3.5c-0.5,0.6-0.9,1.2-1.4,1.7l-1.5,1.7
						c-1,1.1-1.9,2.2-2.9,3.3c-4.2,4.5-8.4,9-12.8,13.2c-5.5,5.4-11.3,10.5-17.2,15.2c-5.9,4.8-12.1,9.1-18.5,13.1l-4.8,2.9
						l-4.9,2.7c-1.6,0.9-3.3,1.7-5,2.5l-2.5,1.2l-1.3,0.6l-1.3,0.5l-5.1,2.1c-1.7,0.6-3.5,1.2-5.2,1.8c-0.9,0.3-1.7,0.6-2.6,0.9
						l-2.7,0.7l-2.7,0.7l-1.3,0.4c-0.4,0.1-0.9,0.2-1.3,0.3l-5.4,1.1c-1.8,0.3-3.6,0.5-5.4,0.7l-2.7,0.4l-2.9,0.3
						c-2,0.2-3.9,0.3-5.9,0.5c-7.8,0.6-15.7,1.1-23.5,1.4c-15.7,0.5-31.3,0.5-46.6-1c-6.9-0.7-13.6-1.7-19.9-3.3
						c-1.6-0.3-3.1-0.9-4.7-1.3c-0.8-0.2-1.5-0.4-2.4-0.7l-2.5-0.8c-3.4-1.1-6.6-2.3-9.8-3.4c-6.4-2.4-12.5-5.1-18.3-8.2
						c-5.8-3.1-11.2-6.6-16.5-10.6c-5.2-4-10.2-8.4-15.2-13.1l-3.7-3.6l-3.7-3.7c-1.2-1.2-2.4-2.5-3.7-3.8l-1.8-1.9l-1.7-1.8
						c-4.5-4.8-8.7-10.1-12.8-15.6c-4.1-5.5-7.9-11.2-11.6-17.1c-7.8-12.4-15.8-27.9-21.8-43.3c-3-7.7-5.4-15.3-7.3-22.5
						c-1.8-7.2-2.9-13.8-3.5-19.7c-0.1-1.4-0.3-2.6-0.5-3.6s-0.4-1.8-0.7-2.5c-0.6-1.3-1.4-2-2.2-2.2c0.3,0.1,0.4,0.6,0.4,1.5
						c-0.1,0.9-0.4,2.1-0.6,3.6c-0.1,0.8-0.3,1.6-0.5,2.4c-0.1,0.9-0.3,1.8-0.5,2.8s-0.3,2-0.5,3c-0.1,1-0.3,2.1-0.4,3.2
						c-0.5,4.3-0.6,8.8-0.6,12.4s0.1,6.2,0.2,6.8c0.8,7.5,2.5,15.3,4.7,23.1c2.3,7.7,5.1,15.4,8.2,22.8c6.5,14.4,13,27.7,21,40.5
						c4.1,6.4,8.4,12.8,13.7,18.9c0.7,0.8,1.3,1.5,2,2.3c0.6,0.7,1.3,1.4,2,2.2c1.3,1.4,2.6,2.9,4,4.3c2.7,2.9,5.6,5.8,8.6,8.7
						c6.4,6.1,13.2,11.9,20.7,17.1c7.5,5.2,15.6,9.7,23.8,13.3l6.2,2.6l6.2,2.4l6.2,2.2l6.1,2c1,0.3,2.2,0.7,3.3,1l3.4,1
						c2.2,0.6,4.5,1,6.8,1.6c2.2,0.4,4.5,0.8,6.7,1.2c2.2,0.3,4.4,0.6,6.6,0.9c8.8,1.1,17.6,1.6,26.2,1.8c8.7,0.2,17.3,0.2,25.9-0.1
						c8.6-0.3,17.2-0.7,25.7-1.4l6.4-0.5l3.2-0.3c1.1-0.1,2.3-0.3,3.4-0.4l3.5-0.4c1.1-0.2,2.3-0.3,3.4-0.5l6.8-1.3
						c7.6-1.8,15.2-4,22.3-7.1c3.7-1.4,7.1-3.1,10.6-4.8c1.7-0.8,3.4-1.8,5.1-2.7c1.7-0.9,3.4-1.8,5-2.8l4.9-3
						c1.6-1,3.2-2.1,4.8-3.2c3.2-2.1,6.2-4.4,9.3-6.6c6-4.6,11.8-9.4,17.3-14.5c5.6-5,10.8-10.4,15.9-15.8l3.8-4.1
						c0.6-0.7,1.3-1.3,1.9-2.1l1.9-2.2c2.6-2.9,4.9-6,7.2-9c4.6-6.2,8.7-12.7,12.4-19.4c1.9-3.3,3.6-6.8,5.3-10.2l2.4-5.2
						c0.8-1.7,1.5-3.5,2.2-5.3c6.9-16.8,11.8-34.6,14.9-52.6c0.7-4.5,1.6-9,2.2-13.5s1.2-9,1.7-13.5
						C413.1,395.9,413.6,386.5,413.5,377.1z"/>
				</g>
			</g>
		</g>
	</g>
	<path class="st3" d="M181.7,370.2c4,0,8,0,12,0c10.8,5,21.9,9.6,25,23c0,0.7,0,1.3,0,2c-1.8,6.3-4.9,11.9-10.4,15.5
		c-3.9,2.6-8.4,4.3-12.6,6.5c-3,0-6,0-9,0c-4.3-2.6-8.5-5.3-12.8-7.9c2.1-0.1,4.2-0.5,6.2-0.2c9.9,1.2,19.3,0.9,26.6-7.2
		c5.6-6.2,5.1-12-1.8-16.7c-3.4-2.3-7.1-4.2-10.9-6c-9.4-4.5-20.3-2.1-27.2,5.6c-5.1,5.7-5.4,10-0.9,16c2.4,3.1,5.4,5.8,8.1,8.7
		c-8.4-1.7-12.2-8.2-15.3-15.2c0-1.3,0-2.7,0-4c2.4-6.5,6-12,12.3-15.3C174.4,373.1,178.1,371.7,181.7,370.2z"/>
</g>
</svg>
