<?xml version="1.0" encoding="utf-8"?>
<!-- Generator: Adobe Illustrator 21.0.0, SVG Export Plug-In . SVG Version: 6.00 Build 0)  -->
<svg version="1.1" id="Layer_1" xmlns="http://www.w3.org/2000/svg" xmlns:xlink="http://www.w3.org/1999/xlink" x="0px" y="0px"
	 viewBox="0 0 500 500" style="enable-background:new 0 0 500 500;" xml:space="preserve">
<style type="text/css">
	.st0{fill:#231F20;}
</style>
<g id="Layer_1_1_">
</g>
<g id="Layer_2">
	<g>
		<g>
			<g>
				<g>
					<path class="st0" d="M467.8,277.8l-0.1,0.2C467.8,277.9,467.9,277.8,467.8,277.8z"/>
					<path class="st0" d="M477,241.9l0.1,0.1C477.1,241.9,477.1,241.9,477,241.9z"/>
					<path class="st0" d="M464.1,232.5l0-0.2C464.1,232.4,464.1,232.4,464.1,232.5z"/>
					<g>
						<path class="st0" d="M461.4,246.4c-0.7,3.1-1.3,6.2-1.8,9.3c-0.7,3.1-1.3,6.2-1.7,9.3c-0.2,1.6-0.6,3.3-0.8,5
							c-0.3,1.7-0.6,3.3-0.9,5c-0.3,1.7-0.7,3.3-1.1,4.9c-0.4,1.6-0.9,3.2-1.5,4.8c-2.5,6.6-5.5,12.8-8.8,18.8
							c-3.4,6.1-7.9,11.3-13.2,15.7c-0.6,0.5-1.3,1.1-1.9,1.6l-1.9,1.6l-1.9,1.6c-0.6,0.5-1.3,1-2,1.5l-2,1.5
							c-0.7,0.5-1.4,0.9-2.1,1.3c-1.5,0.8-2.9,1.6-4.5,2.1c-0.8,0.3-1.7,0.6-2.5,0.8l-2.7,0.9c-0.9,0.3-4.9,3-5.5,3.7
							c-0.3,0.3,2.6,0.1,3.4,0c2.6-0.3,6.5-0.8,8.4-1.3c1-0.3,1.9-0.5,2.6-0.7c0.8-0.2,1.5-0.5,2.2-0.8c1.4-0.6,2.9-1.1,4.7-2.1
							c7.6-4.2,14.2-9.6,20.7-15.5c2.6-2.4,4.9-5.3,6.8-8.4c1-1.5,1.9-3.1,2.8-4.7c0.9-1.6,1.7-3.2,2.6-4.7
							c3.8-6.7,7.3-13.6,9.7-20.7c0.6-1.9,1.3-3.8,2-5.6c0.7-1.9,1.3-3.9,2-5.8c0.7-1.9,1.3-3.9,1.9-5.9c0.5-2,1-4,1.4-6
							c0.4-2,0.8-4,1.1-6l0.8-6c0.2-2,0.6-4,0.7-6c0.2-2,0.3-4,0.5-6c0.5-4.7,0.8-9.2,1.3-13.7c1.1-11.5,1.4-23,1.8-34.6
							c0.3-10.5,1.7-20.8,0.4-31.5c-0.2-1.4-0.3-2.9-0.5-4.5c-0.1-0.4-0.1-0.8-0.2-1.2l-0.2-0.9c-0.1-0.8-0.3-1.5-0.4-2.3
							c-0.3-1.7-0.7-3.6-1.6-5.6c-0.9-1.9-2.3-3.8-3.9-4.8c-0.8-0.5-1.5-0.6-2.2-0.4s-1.1,0.5-1.5,0.9c0.3-0.3,0.7-0.1,1.1,0.6
							c0.3,0.6,0.6,1.6,0.6,2.5c0,1.9-0.8,3.6-0.8,3.8c-0.3,1.3-0.7,2.7-1,4.1c-0.3,1.4-0.5,3.1-0.8,4.4c-0.5,2.7-1.2,5.3-1.8,7.9
							c-0.6,2.6-1.1,5.2-1.2,8.1c-0.6,11.8-0.7,23.6-1.3,35.6c-0.3,5.1-0.5,10.2-0.8,15.3L465,221c-0.1,1.3-0.2,2.6-0.3,3.8
							l-0.4,3.7C463.8,234.4,462.5,240.4,461.4,246.4z"/>
					</g>
				</g>
			</g>
		</g>
		<g>
			<g>
				<g>
					<path class="st0" d="M55.4,275.5l0.1,0.2C55.5,275.6,55.5,275.6,55.4,275.5z"/>
					<path class="st0" d="M43,244.2l0.2,0C43.1,244.2,43.1,244.2,43,244.2z"/>
					<path class="st0" d="M27.4,241.2l-0.1-0.2C27.4,241.1,27.4,241.2,27.4,241.2z"/>
					<g>
						<path class="st0" d="M31.2,255.4c2,6.3,4.8,12.5,8.3,18.2c3.6,5.9,7.9,11.3,11.7,17c4.1,6.1,8.5,12,14.2,16.8
							c5.7,4.9,11.3,9.2,17.4,13.3c5.9,3.9,12.6,6.1,18.5,9.6c1.6,0.9,3.1,1.9,4.7,2.9c0.8,0.5,5.2,1.6,6.2,1.6c0.4,0-1.5-2-2.1-2.5
							c-1.8-1.8-4.7-4.3-6.2-5.5c-3.1-2.3-4.6-3.4-7.9-5.4c-6.9-4.2-13.4-8.6-18.6-14.5c-0.5-0.6-1.1-1.1-1.6-1.7
							c-0.5-0.6-1.1-1.2-1.6-1.7l-1.7-1.7l-1.6-1.7c-0.5-0.6-1.1-1.1-1.6-1.7l-1.5-1.8c-0.5-0.6-1-1.2-1.5-1.8
							c-0.5-0.6-0.9-1.3-1.3-2c-3.7-5.7-6.5-11.9-9.7-18c-3.4-6.5-5.5-13.6-8.1-20.5c-2.6-6.8-5.1-13.8-7-20.9l-1.5-6.2
							c-0.5-2.1-1-4.1-1.3-6.3c-0.4-2.7-0.9-5.3-1.4-8c-0.3-1.3-0.4-2.7-0.6-4l-0.6-4l-0.6-4c-0.2-1.3-0.3-2.7-0.4-4l-0.7-8.1
							c-0.4-9.8,0.8-19.3,0.7-29.2c-0.2-5.2,0.2-12.3-2.5-17c-0.7-1.1-1.9-1.6-3.1-1.7c1.9,0.1-2.4,5.7-2.6,6.1
							c-1.2,2.5-2,5.3-2.8,8.1c-1.6,5.2-3.8,10-4.2,15.7c-0.5,6-0.4,12-0.2,18c0.2,3,0.5,6,0.7,9c0.2,1.5,0.2,3,0.4,4.5L20,207
							c0.4,2.6,0.7,5.1,1.1,7.7l1.5,7.6l0.8,3.8l0.9,3.8l1.9,7.5C27.7,243.2,29.3,249.3,31.2,255.4z"/>
					</g>
				</g>
			</g>
		</g>
		<g>
			<g>
				<g>
					<path class="st0" d="M312.1,172l-0.1-0.1C312,171.9,312,172,312.1,172z"/>
					<path class="st0" d="M318.7,193l-0.1-0.1C318.6,193,318.7,193,318.7,193z"/>
					<path class="st0" d="M329.3,204.2l-0.1,0.2C329.2,204.3,329.3,204.2,329.3,204.2z"/>
					<g>
						<path class="st0" d="M333.9,188.4c0-3.5-0.6-7.1-1.8-10.3c-1.1-3.3-2.9-6.3-5-8.9c-2.2-2.7-4.8-4.9-7.7-6.8
							c-2.8-1.9-5.9-3.4-9.2-4.6c-1.9-0.6-3.4-1-5-1.3c-1.6-0.3-3.3-0.6-5-0.7c-0.9-0.1-1.7,0-2.6-0.1c-0.9,0-1.7,0.1-2.6,0.2
							c-0.9,0.1-1.7,0.2-2.6,0.4l-1.3,0.3l-0.6,0.2l-0.7,0.2c-3.6,1.2-7.2,3.8-9.2,7.2c-2.1,3.4-2.8,7.1-2.7,10.8
							c0,0.4,0,0.9,0.1,1.3c0.1,0.4,0.1,0.9,0.2,1.3c0.1,0.8,0.5,1.9,0.9,2.9c0.9,2,2.3,3.5,3.8,4.6c1.5,1.1,3.1,2,4.8,2.6
							c1.6,0.6,3.3,1.1,5.1,1.4c1.9,0.3,3.9,0.5,5.9,0.2c0.2,0,0.5-0.1,1-0.3c0.4-0.2,1-0.5,1.5-0.9c0.6-0.5,0.7-0.7,0.8-0.8l0,0
							l0-0.1c-0.1-0.2-0.1-0.4-0.2-0.6c0-0.1,0-0.1,0-0.1l0-0.1c0-0.1,0-0.1,0-0.2c0-0.1,0-0.1,0-0.2l0-0.1l0,0c0,0,0,0,0,0
							c0,0,0,0,0,0c0,0,0,0,0,0l0,0.1c0,0.1-0.1,0.2-0.1,0.3s-0.1,0.2-0.1,0.2c0,0,0,0.1-0.1,0.1l0,0c0-0.1,0.1-0.1,0.1-0.2
							c0-0.1,0,0,0.1-0.3c0.1-0.3,0.1-0.2,0.1-0.2c0,0,0-0.2-0.2-0.3c-0.2-0.1-0.4-0.1-0.5-0.1c-0.5,0-1.4,0.3-2.3,0.3
							c-1.9,0-3.7-0.6-4.8-0.9c-1.5-0.5-2.5-1-3.5-1.5c-0.9-0.6-1.9-1.1-3-2c-1.1-0.9-2-2.1-2.4-3.2c-0.4-1-0.5-2.6-0.4-4.1
							c0.2-2.9,1.5-5.6,3.4-6.8c0.8-0.5,1.5-0.9,2.3-1.2c0.2-0.1,0.4-0.2,0.6-0.2c0.2-0.1,0.4-0.2,0.6-0.2c0.5-0.1,0.9-0.3,1.5-0.3
							c2.3-0.4,4.7-0.6,7-0.1c1.3,0.3,2.5,0.7,3.8,1.1c0.6,0.2,1.3,0.5,1.9,0.7c0.5,0.3,1,0.4,1.4,0.8c1.9,1.1,3.6,2.6,5.3,4.3
							c1.8,1.8,3.2,4,4.2,6.3c1,2.4,1.5,4.8,1.9,7.2c0.1,0.6,0.1,1.2,0.2,1.8c0.1,0.6,0.1,1.2,0.1,1.8c0,0.6,0,1.2-0.1,1.8
							c0,0.3,0,0.6-0.1,0.9l-0.1,0.8c-0.4,2.2-1.1,3.9-2.3,5c-0.2,0.1-0.4,0.3-0.5,0.5c-0.2,0.2-0.4,0.3-0.6,0.4
							c-0.3,0.3-1.2,0.6-1.9,0.9c-1.4,0.7-2.9,1.1-4.3,1.6c-3.7,0.9-7.4,1.2-11.1,0.6c-1.8-0.3-3.7-0.7-5.5-1.4
							c-0.9-0.3-1.9-0.7-2.8-1.1c-1-0.4-1.9-0.9-2.8-1.4c-3.3-1.8-6-4.2-8.2-6.8c-2.2-2.6-3.9-5.4-5.7-8.4
							c-1.9-3.1-3.2-7.9-6.6-11.1c-0.8-0.8-2.2-0.9-3.3-0.8c0.9-0.1,0.6,1.1,0,2.5c-0.6,1.4-1.3,2.9-1.3,3.1c-0.7,2.4-0.4,5-0.2,7.6
							c0.1,1.3,0.2,2.5,0.4,3.8c0.2,1.2,0.4,2.5,0.7,3.8c0.4,1.2,0.7,2.5,1.3,3.7c0.3,0.6,0.6,1.2,0.9,1.8c0.4,0.6,0.8,1.2,1.2,1.7
							c3.5,4.8,8.3,8.5,13.3,11.4c1.2,0.7,2.5,1.3,3.8,2l1.9,0.9c0.3,0.1,0.6,0.3,1,0.4l1.1,0.4l2.1,0.7l1.1,0.4
							c0.4,0.1,0.7,0.2,1.1,0.3l2.2,0.5c0.7,0.2,1.5,0.4,2.3,0.4c5.2,0.9,10.7,0.5,15.7-0.9c1.3-0.3,2.5-0.7,3.7-1.1l1.8-0.7
							c0.6-0.2,1.2-0.5,1.7-0.8l1.7-0.8l0.9-0.4c0.3-0.1,0.7-0.4,1-0.6c0.7-0.4,1.4-0.8,2-1.3c0.6-0.5,1.3-1.1,1.9-1.6
							c3-2.7,5-6.3,6.2-9.8c0.1-0.4,0.3-0.9,0.4-1.3l0.3-1.3c0.2-0.9,0.4-1.7,0.5-2.5c0.1-0.8,0.3-1.7,0.3-2.5L333.9,188.4z"/>
					</g>
				</g>
			</g>
		</g>
		<g>
			<g>
				<g>
					<path class="st0" d="M174.5,276.1l0.2,0C174.6,276.1,174.6,276,174.5,276.1z"/>
					<path class="st0" d="M152.9,272.9l0.1-0.1C152.9,272.8,152.9,272.8,152.9,272.9z"/>
					<path class="st0" d="M145.5,285.8l-0.1,0C145.4,285.8,145.4,285.8,145.5,285.8z"/>
					<g>
						<path class="st0" d="M154.8,288.2c2.1,0.4,4.2,0.6,6.4,0.8c2.1,0.2,4.3,0,6.4-0.1c2.2-0.2,4.4-0.4,6.6-0.7
							c2.2-0.3,4.4-0.5,6.5-0.3c2.3,0.1,4.6,0.2,6.9,0.3c2.3,0,4.6,0.1,6.9-0.1c4.6-0.4,9.1-0.1,13.7,0.1c2.2,0.1,4.3-0.1,6.9-0.4
							c1.2-0.1,2.4-0.4,3.6-0.6c1.2-0.2,2.4-0.5,3.6-0.7c1.3-0.1,2.6-0.4,3.9-0.7c0.2,0,0.4-0.2,0.8-0.4c0.1-0.1,0.2-0.1,0.3-0.2
							l0.1-0.1l0.1,0l0,0l0.4-0.2l0,0l0,0l0,0c0.2-0.2,0.3-0.3,0.5-0.5l0.1-0.1l0.2-0.2c0.1-0.1,0.2-0.2,0.4-0.4
							c0.2-0.2,0.4-0.5,0.6-0.8c0.2-0.3,0.2-0.4,0.3-0.6c0.1-0.2,0.1-0.4,0.2-0.5c0-0.1,0.1-0.2,0.1-0.3c0-0.1,0-0.1,0-0.2
							c0-0.1,0-0.2,0-0.3c0-0.2,0-0.3,0-0.4c0-0.2-0.5,0.1-0.9,0.5c-0.3,0.3-0.6,0.5-1,0.8c-0.4,0.2-0.8,0.4-0.9,0.5
							c-0.2,0-0.5,0-0.7,0l-0.2,0l0,0h0h0c0,0,0.1,0-0.1,0h0l0,0l0,0l-0.1,0c-0.1,0-0.3,0-0.4,0c-0.5,0-1.1-0.1-1.6-0.1
							c-1-0.1-2-0.1-2.6-0.1c-1.3-0.1-2.1,0-3-0.1c-0.9-0.1-1.8,0-3,0c-0.6,0-1.2-0.1-1.8-0.1c-0.6,0-1.2,0-1.9-0.1
							c-1.3-0.1-2.6-0.3-3.9-0.5c-2.6-0.3-5.1-0.8-7.7-1.5c-2.1-0.6-4.2-0.8-6.3-0.9c-2.1-0.1-4.3-0.2-6.4-0.6
							c-4.5-0.7-8.9-2.1-13.5-2.4c-4.8-0.5-9.5-1.8-14.2-2.4c-4.7-0.5-9.3-1.2-14-2.1c-2.7-0.7-5.3-1.4-7.9-2.2
							c-6.6-2-13.1-3.8-18.9-6.8c-2.6-1.3-4.9-3.1-7-5c-1.1-0.9-2.1-1.9-3.1-2.8c-1-1-2.1-1.8-3.1-2.8c-2.3-1.9-4.9-4.8-8.9-5.3
							c-1-0.1-2.2,0.4-3.1,1.1c0.8-0.5,0.9,0.5,0.8,1.7c-0.1,1.2-0.3,2.7-0.2,2.8c0.1,1,0.3,1.9,0.7,2.9c0.3,0.9,0.7,1.8,1.1,2.8
							c1.4,3.6,2.6,7.4,5.6,10.2c3.1,2.9,6.7,5.3,10.3,7.2c3.7,1.9,7.5,3.5,11.3,4.8c3.3,1.1,6.5,2.1,9.8,2.9
							c3.3,0.8,6.5,1.6,9.8,2.4c1.9,0.4,3.9,0.9,5.9,1.4C150.7,287.3,152.7,287.9,154.8,288.2z"/>
					</g>
				</g>
			</g>
		</g>
		<g>
			<g>
				<g>
					<path class="st0" d="M220.1,198.7l0.1,0C220.2,198.7,220.2,198.7,220.1,198.7z"/>
					<path class="st0" d="M206.8,188.7l0.2,0C206.9,188.7,206.8,188.7,206.8,188.7z"/>
					<path class="st0" d="M192.4,184.1l0-0.2C192.4,184,192.4,184.1,192.4,184.1z"/>
					<g>
						<path class="st0" d="M194.5,198.4c1.6,3.4,4.4,6.2,7.2,8.1c2.9,1.8,5.8,2.9,8.6,3.4c1.4,0.3,2.8,0.5,4.2,0.6
							c1.4,0.1,2.9,0.2,4.3,0.2c2.9,0,6-0.2,9-0.8c3.2-0.6,6.4-1.9,9-3.8c1.3-1,2.5-2,3.5-3.1l0.4-0.4l0.2-0.2l0.2-0.3
							c0.3-0.4,0.6-0.8,0.9-1.2c0.5-0.8,0.9-1.6,1.2-2.4c1.2-3.3,1.6-6.5,1.3-9.7c-0.1-1.6-0.5-3.6-1.3-5.3
							c-0.4-0.9-0.9-1.7-1.4-2.5c-0.3-0.4-0.6-0.7-0.9-1.1c-0.3-0.4-0.6-0.7-1-1c-1.4-1.2-3.2-1.9-5-2c-0.5,0-0.9,0-1.4,0l-1.3,0.2
							c-0.4,0.1-0.9,0.2-1.3,0.4l-1.3,0.5l-2.1,1.1c-0.5,0.3-1.1,0.6-1.6,0.8c-1.1,0.5-2.2,0.9-3.3,1.1l-0.9,0.1l-0.9,0.1
							c-0.3,0-0.6,0.1-0.9,0l-0.4,0c-0.1,0-0.2,0-0.3,0c-0.1,0-0.4,0.1-0.8,0.3c-0.2,0.1-0.4,0.2-0.6,0.2c-0.2,0.1-0.4,0.1-0.6,0.1
							c-0.4,0-0.7,0-1,0c-0.2,0,0.1,0.5,0.3,0.9c0.2,0.5,0.6,1,0.8,1.2c0.2,0.2,0.5,0.3,0.8,0.4c0.7,0.4,1.6,0.6,2.6,0.8
							c0.9,0.1,1.8,0.2,2.4,0.2c1.5-0.1,2.6-0.2,3.7-0.5c0.5-0.1,1.1-0.2,1.7-0.4c0.6-0.2,1.2-0.4,1.8-0.6c0.3-0.1,0.6-0.2,0.9-0.3
							l0.8-0.2c0.3-0.1,0.5,0,0.8-0.1c0.3,0,0.5,0,0.8,0c1,0.1,2,0.7,2.6,1.5c0.6,0.8,0.9,1.8,1,2.7c0,0.4,0,0.9-0.1,1.4
							c-0.1,0.6-0.2,1.1-0.4,1.7c-0.5,1.8-1.1,3.5-1.8,4.7c-0.2,0.3-0.4,0.5-0.5,0.7l-0.1,0.1l-0.1,0.1l-0.3,0.3l-0.5,0.5
							c-0.7,0.6-1.5,1.2-2.3,1.6c-3.6,1.6-7.1,0.9-11.3,0.1c-1.1-0.2-2.4-0.6-3.5-1c-1.1-0.4-2.2-0.9-3.1-1.5
							c-0.9-0.5-1.8-1.1-2.4-1.7c-0.7-0.6-1.2-1.1-1.7-1.7c-0.5-0.5-0.8-1.1-1.2-1.8c-0.1-0.4-0.3-0.7-0.4-1.1
							c-0.1-0.3-0.2-0.9-0.3-1.4c-0.5-2-0.5-4.1-0.2-6c0.4-2.3,1.4-4.4,2.8-6.3c0.5-0.6,0.9-1.2,1.5-1.8l0.8-0.8l0.4-0.4l0.4-0.4
							c1.1-1,2.3-1.9,3.6-2.6c2.6-1.5,5.9-2.5,9.6-3.2c0.8-0.2,1.7-0.3,2.6-0.4l0.7-0.1l0.6,0l1.2,0l1.1,0l0.6,0l0.6,0.1l2.2,0.2
							c2.9,0.5,5.6,1.1,8.4,1.9c3,0.8,6.7,2.8,10.9,2.4c1-0.1,2.1-1,2.8-1.9c-0.6,0.7-1.1-0.3-1.5-1.6c-0.4-1.3-0.8-2.8-0.9-3
							c-0.5-1-1.2-1.9-2-2.7c-0.2-0.2-0.4-0.4-0.6-0.6l-0.6-0.6c-0.4-0.4-0.8-0.8-1.3-1.2c-0.4-0.4-0.8-0.8-1.2-1.2
							c-0.4-0.4-0.8-0.7-1.3-1.1c-0.9-0.7-1.7-1.5-2.7-2.1c-1.9-1.2-4.1-2.4-6.5-2.7l-1.9-0.4c-0.6-0.1-1.3-0.1-1.9-0.2
							c-1.3-0.1-2.6-0.2-3.9-0.1c-1.3,0.1-2.6,0.2-3.8,0.3c-1.2,0.1-2.3,0.3-3.4,0.5c-4.6,0.8-9.8,2.1-14.7,4.8
							c-1.1,0.5-2.1,1.2-3.1,1.9c-0.5,0.4-1,0.7-1.5,1.1l-1.4,1.2l-1.3,1.2l-1.2,1.3c-0.8,0.9-1.6,1.7-2.3,2.7
							c-2.9,3.8-5,8.5-5.8,13.3c-0.3,1.4-0.4,2.9-0.5,4.4c0,1.5,0,3,0.1,4.5l0.3,2.2c0.1,0.7,0.2,1.4,0.4,2.3
							c0.2,0.8,0.4,1.6,0.7,2.5C193.8,196.8,194.1,197.6,194.5,198.4z"/>
					</g>
				</g>
			</g>
		</g>
		<g>
			<g>
				<g>
					<path class="st0" d="M151.9,248.8l-0.1,0C151.8,248.8,151.8,248.9,151.9,248.8z"/>
					<path class="st0" d="M169.9,252.3l-0.1,0.1C169.9,252.4,169.9,252.4,169.9,252.3z"/>
					<path class="st0" d="M178.3,240.3l0.1,0C178.4,240.3,178.4,240.3,178.3,240.3z"/>
					<g>
						<path class="st0" d="M170.2,237c-1-0.3-2-0.5-3-0.7c-1-0.2-2-0.4-3-0.4c-1-0.1-2.1-0.1-3.1-0.1c-1,0-2.1,0-2.9,0.2
							c-0.9,0.1-1.8,0.3-2.7,0.4c-0.9,0.1-1.9,0.3-2.8,0.4c-1.9,0.2-3.9,0.4-5.9,0.3l-0.8,0l-0.8,0l-1.7,0c-1.1,0-2.3,0-3.2,0.2
							c-2.1,0.2-4.1,0.5-6.1,1.1c-4.1,1-8,1.8-12.1,2.8c-1.9,0.6-3.8,1.3-5.6,2.3c-0.9,0.5-1.8,0.9-2.7,1.3
							c-0.9,0.4-1.8,0.9-2.8,1.2c-1,0.3-2.1,0.6-3.1,1c-0.5,0.2-2.4,2.2-2.7,2.8c-0.1,0.3,1.7,0.3,2.2,0.4c1.6,0,3.9,0,5-0.1
							c2.2-0.3,3.2-0.5,5.3-1c2.1-0.6,4.3-1.1,6.5-1.4c2.2-0.2,4.4-0.4,6.6-0.1c3.6,0.3,7.1-0.7,10.7-0.5c3.6,0.4,6.8,1.5,10.9,2
							c1,0.1,2.2,0.3,3.3,0.5c1.1,0.2,2.3,0.4,3.1,0.6c1.8,0.5,3.7,0.8,5.5,1.3l2.8,0.5l2.8,0.7c1.9,0.4,3.8,1.1,5.7,1.8
							c2.2,0.8,4.4,1.8,6.5,2.8c5.4,2.7,11,5,16.2,8c4.8,2.7,8.6,6.7,13.5,9.2c2.6,1.3,6,3.5,9.7,2.4c0.9-0.3,1.8-1.2,2.5-2.2
							c-1.1,1.6-1.6-3.5-1.7-3.8c-0.6-1.7-1.7-3-2.6-4.5c-1.7-2.9-3-6-5.5-8c-2.6-2.2-5.5-4-8.5-5.7c-3-1.7-6-3.2-9.1-4.7
							c-2.6-1.3-5.3-2.4-8-3.6c-1.3-0.6-2.7-1.1-4.1-1.7c-1.4-0.5-2.7-1.1-4.1-1.7c-1.7-0.6-3.3-1.4-5-2
							C173.8,238.3,172.1,237.6,170.2,237z"/>
					</g>
				</g>
			</g>
		</g>
		<g>
			<g>
				<g>
					<path class="st0" d="M432,199.1L432,199.1C432,199.2,432,199.2,432,199.1z"/>
					<path class="st0" d="M445.7,184.2l0.1,0.1C445.8,184.3,445.7,184.2,445.7,184.2z"/>
					<path class="st0" d="M436.3,172.9L436.3,172.9C436.3,172.9,436.3,172.9,436.3,172.9z"/>
					<g>
						<path class="st0" d="M431.7,178.3c-1,1.2-2,2.5-3,3.8c-0.5,0.7-0.9,1.3-1.3,2c-0.5,0.7-0.9,1.4-1.4,2.1
							c-0.9,1.5-1.7,3.1-2.7,4.5c-1,1.5-2,2.9-3.3,4.1c-2.7,2.6-5.7,4.9-8.3,7.7c-0.7,0.7-1.3,1.4-2,2c-0.7,0.6-1.4,1.3-2.1,1.8
							c-0.7,0.5-1.4,1.1-2.1,1.5c-0.7,0.4-1.5,0.9-2.2,1.3c-0.7,0.4-1.4,0.8-2.1,1.3c-0.7,0.4-1.4,0.8-2.2,1.3
							c-0.8,0.4-1.5,0.7-2.3,1c-0.8,0.3-1.6,0.4-2.5,0.5c-0.9,0-1.9-0.1-2.8-0.1c-0.4,0-2.6,1-3.1,1.5c-0.2,0.2,1.2,1,1.7,1.2
							c1.3,0.7,3.5,1.4,4.6,1.6c2.2,0.2,3.3,0.3,5.6-0.3c0.6-0.1,1.1-0.3,1.7-0.5l1.7-0.5c1.1-0.4,2.2-0.9,3.3-1.3
							c1.1-0.5,2.2-1,3.3-1.5c1.1-0.5,2.2-1,3.3-1.5c3.4-1.4,5.9-4.3,9-6.3l5.1-3.2c1.7-1.1,3.3-2.3,4.8-3.7c1.6-1.5,3.2-3,4.9-4.4
							c1.7-1.5,3.3-3.1,4.7-4.8c1.4-1.8,2.6-3.6,3.9-5.4c1.2-1.9,2.3-3.8,3.5-5.7c1.3-2,2.5-3.9,3.9-5.7c1.8-2.4,3.4-4.8,5.2-7.4
							c0.8-1.3,1.7-2.5,2.5-3.9c0.8-1.3,1.7-2.6,2.6-4c0.8-1.2,1.6-2.4,2.5-3.6c0.8-1.2,1.8-2.3,2.6-3.5c0.8-1.3,1.6-2.5,2.3-3.9
							c0.4-0.7,0.7-1.3,1-2c0.2-0.4,0.3-0.9,0.5-1.3c0.1-0.4,0.3-0.9,0.4-1.2c0.1-0.4,0.2-0.8,0.3-1.2c0.1-0.3,0.1-0.3,0.1-0.4
							l0-0.3l0-0.4l0.1-0.6l0.1-0.6l0.1-0.3l0-0.1l0,0l0,0c1.3,0.3-1.8-0.3-1.5-0.3l0,0l0,0l0.2,0.1l0.6,0.3
							c0.6,0.3,0.3,0.2,0.4,0.2l-0.1-0.1c0-0.1-0.1-0.1-0.1-0.2c0.1-0.3,0.1-0.7,0.1-1c0.3-1,0.4-2.1,0.3-3.4
							c-0.1-1.2-1.2-1.9-2.3-2.4c0.9,0.3-0.1,1.2-1.3,1.5c-1.2,0.3-2.5,0.2-2.6,0.3c-0.4,0.1-0.9,0.2-1.3,0.5
							c-0.2,0.1-0.4,0.3-0.6,0.4l-0.3,0.2l-0.1,0.1l0,0l0,0c0-0.1-0.1,0.1,0,0.1l0,0l0,0l0,0l0,0l-0.1,0.1c-0.6,0.6-1.2,1.1-1.8,1.8
							c-0.3,0.3-0.6,0.7-0.9,1c-0.3,0.3-0.6,0.5-0.9,0.8c-0.1,0.1-0.3,0.3-0.4,0.4l-0.4,0.3l-0.8,0.5c-1.2,0.9-2.3,1.8-3.1,2.9
							c-0.4,0.6-0.8,1.2-1.2,1.8c-0.4,0.6-0.9,1.2-1.3,1.8c-0.9,1.2-1.6,2.5-2.4,3.7s-1.7,2.5-2.5,3.8c-0.8,1.3-1.7,2.6-2.6,3.9
							c-1.5,2.2-3,4.6-4.6,6.9c-1.5,2.3-3.1,4.9-4.6,7.1c-0.8,1.2-1.7,2.4-2.7,3.6c-0.4,0.6-1,1.2-1.5,1.7
							C432.6,177.1,432.1,177.7,431.7,178.3z"/>
					</g>
				</g>
			</g>
		</g>
		<g>
			<g>
				<g>
					<path class="st0" d="M66,187L66,187C66,187,66,186.9,66,187z"/>
					<path class="st0" d="M57.1,176.9l0.1-0.1C57.2,176.8,57.1,176.8,57.1,176.9z"/>
					<path class="st0" d="M43.8,182.5L43.8,182.5C43.8,182.5,43.8,182.5,43.8,182.5z"/>
					<g>
						<path class="st0" d="M47.2,188.2c0.9,1.2,2,2.3,3.1,3.3c1.1,1,2.4,1.9,3.8,2.7c0.7,0.4,1.4,0.8,2.1,1.1c0.7,0.3,1.5,0.6,2.2,1
							c1.5,0.6,2.8,1.4,4.1,2.2l2,1.4c0.7,0.4,1.3,0.9,2.1,1.3c1.4,0.8,2.9,1.5,4.4,2c3,0.8,5.6,2.2,8.4,3.7c0.7,0.3,1.3,0.6,2,0.9
							c0.7,0.2,1.4,0.4,2.1,0.6c1.4,0.4,2.8,0.9,4,1.7c0.6,0.4,1.2,1,1.8,1.4c0.3,0.2,2.4,0.3,2.9,0.1c0.2-0.1-0.4-1.4-0.5-1.8
							c-0.6-1.2-1.5-2.8-2.1-3.4c-1.2-1.3-1.8-1.9-3.2-2.8c-3-1.9-5.9-3.6-8.3-6.2c-1-1.1-2.2-1.7-3.4-2.4c-1.1-0.7-2.3-1.3-3.2-2.1
							c-1-1-1.9-2.1-2.8-3.1c-0.5-0.5-0.9-1.1-1.4-1.6c-0.5-0.5-0.9-1-1.5-1.4c-2.2-1.9-3.7-4.6-5.6-6.8c-1.9-2.2-4-4.3-5.7-6.8
							c-1-1.4-1.8-3-2.7-4.6l-0.4-0.7c-0.1-0.2-0.2-0.4-0.3-0.7c-0.2-0.4-0.4-0.8-0.7-1.3l-0.7-1.4l-0.7-1.5c-0.9-2-1.9-4.2-2.8-6.5
							c-0.8-2.1-1.5-4.4-2.4-6.7c-0.9-2.3-2.2-4.8-4.3-6.9c-0.6-0.5-1.2-1.1-1.9-1.7c-0.8-0.5-1.6-1.1-2.4-1.5
							c-0.9-0.4-1.9-0.6-2.8-0.7c-0.9,0-1.9,0.2-2.8,0.6c-0.8,0.4-1.5,1.6-1.9,2.6c0.3-0.9,0.8-0.1,1.1,0.9c0.3,1,0.3,2.2,0.3,2.3
							c0.1,0.8,0.4,1.3,0.5,1.9c0.2,0.6,0.4,1.2,0.4,1.8c0.3,2.4-0.4,4.7,0.2,6.6c1.3,3.9,3.1,8.2,5.2,13.1c0.9,2.1,2,4.3,3.3,6.5
							l1.8,2.9l0.9,1.5l0.9,1.4c0.8,1.1,1.4,2.4,2.2,3.6C45.6,185.9,46.4,187.1,47.2,188.2z"/>
					</g>
				</g>
			</g>
		</g>
		<g>
			<g>
				<g>
					<path class="st0" d="M364.1,245.5l0.1,0C364.1,245.5,364.1,245.4,364.1,245.5z"/>
					<path class="st0" d="M344.3,244.8l0-0.2C344.3,244.6,344.3,244.7,344.3,244.8z"/>
					<path class="st0" d="M341.1,259.1l-0.1,0C341.1,259.1,341.1,259.1,341.1,259.1z"/>
					<g>
						<path class="st0" d="M348.4,259.4c3.3,0.1,6.7-0.1,10.1-0.8c3.5-0.6,7.1-1.7,10.7-1.5c3.8,0.2,7.5,0.8,11.3,0.7
							c3.8,0,7.5,0.7,11.2,1.6c3.5,0.8,7.3,0.5,10.7,1.9c0.9,0.4,1.7,0.9,2.6,1.3c0.4,0.2,2.8,0.2,3.4,0c0.3-0.1-0.7-1.4-1-1.8
							c-0.9-1.2-2.5-2.8-3.5-3.4c-1.9-1.2-2.8-1.8-4.8-2.5c-4.3-1.5-8.6-2.6-12.8-4.6c-3.4-1.6-7.3-1.5-10.9-2.4
							c-3.9-1-7.8-2.3-11.8-2.5c-4.3-0.2-8.5-1.3-12.9-1.2c-2.2,0.1-4.3,0.2-6.5,0.4c-2.2,0.2-4.3,0.4-6.5,0.6
							c-2.5,0.2-5.1,0.5-7.7,0.8c-3.3,0.4-6.6,1.2-9.8,2.3c-3.2,1.1-6.3,2.4-9.3,3.8c-5.4,2.5-10.9,4.2-15.4,7.7
							c-2.4,1.8-5.6,4.1-6,7.9c-0.1,0.9,0.5,2.1,1.1,3.1c-1-1.6,3.8-0.1,4.1,0c1.8,0.2,3.3-0.3,5-0.5c3.2-0.3,6.4,0,9.1-1.2
							c2.9-1.2,5.5-2.5,8.1-3.7c2.6-1.2,5.2-2.3,7.8-3.2c4.5-1.4,9.3-2.5,14.4-2.8c1.5-0.1,3.1-0.1,4.7-0.1
							C345.3,259.3,346.8,259.3,348.4,259.4z"/>
					</g>
				</g>
			</g>
		</g>
		<g>
			<g>
				<g>
					<path class="st0" d="M285.6,386l0.2,0C285.7,386,285.6,386,285.6,386z"/>
					<path class="st0" d="M251.5,387.6l0-0.2C251.4,387.5,251.4,387.6,251.5,387.6z"/>
					<path class="st0" d="M245.5,402.2l-0.2,0C245.4,402.3,245.5,402.2,245.5,402.2z"/>
					<g>
						<path class="st0" d="M260.6,400.9l2.2-0.4c0.7-0.1,1.5-0.3,2-0.4c1.3-0.2,2.5-0.4,3.7-0.6c1.3-0.1,2.6-0.3,3.9-0.4
							c1.4-0.1,2.7-0.2,4.1-0.3l4.4-0.3c1.6-0.1,3.3-0.1,5.4-0.4c2.5-0.3,5-1,7-2.4c1-0.7,1.9-1.5,2.6-2.5c0.3-0.5,0.7-1,1-1.5
							c0.1-0.3,0.3-0.5,0.4-0.8l0.3-0.8c0.1-0.3,0.2-0.6,0.3-0.9c0.2-0.6,0.3-1.3,0.5-1.9l0.2-1c0.1-0.3,0.1-0.6,0.1-0.9
							c0-0.5,0.1-1.1,0.1-1.6l0-1.6c-0.1-2-0.5-3.9-0.9-5.7l-0.3-1.3l-0.3-1.2l-0.7-2.4c-0.5-1.6-1-3.2-1.5-4.8
							c-1-3.2-2.1-6.4-3-9.6c-0.9-3.2-1.7-6.5-2.6-9.7c-1.8-6.3-4.8-12.1-6.1-18.5c-0.4-1.7-0.6-3.4-1-5.1c-0.2-0.8-2.2-4.7-2.8-5.4
							c-0.3-0.3-0.5,2.3-0.5,3.1c-0.1,2.4-0.2,6.1,0,7.9c0.4,3.7,0.6,5.5,1.5,9.1c0.9,3.8,1.8,7.5,2.7,11.2
							c0.8,3.7,1.4,7.5,1.8,11.3c0.2,1.6,0.4,3.1,0.7,4.6c0.3,1.6,0.7,3.1,1,4.6c0.4,1.5,0.8,3.1,1.1,4.6c0.2,0.8,0.3,1.5,0.5,2.3
							c0.1,0.7,0.3,1.4,0.3,2.1c0.2,1.4,0.2,2.7,0,3.9c0,0.3-0.1,0.6-0.1,0.8c-0.1,0.2-0.1,0.5-0.2,0.7c-0.1,0.2-0.2,0.4-0.4,0.6
							c-0.3,0.4-0.7,0.6-1.1,0.6c-0.2,0-0.4,0-0.6,0l-1.3,0c-0.7,0-1.5-0.1-2.4-0.2l-2.8-0.4c-1-0.1-1.9-0.3-2.9-0.4l-3-0.3
							c-2-0.2-4.1-0.2-6.1-0.2c-1,0-2.1,0.1-3.1,0.2c-1,0.1-2.1,0.3-3.1,0.4c-3.8,0.8-7.2,1.7-10.3,2.3c-1.6,0.3-3.1,0.5-4.6,0.6
							c-0.7,0-1.4,0.1-2.2,0l-2.2-0.2c-0.4,0-0.9,0-1.3-0.1l-1.3-0.3l-1.3-0.3l-0.7-0.1l-0.8-0.2c-2.1-0.5-3.8-1-4.9-1.5
							c-0.7-0.3-1.2-0.7-1.7-1.1c-0.4-0.3-0.8-0.8-1-1.2c-0.6-0.9-0.8-2.1-0.7-3c0.1-0.4,0.2-0.8,0.4-1.1l2-3.7
							c0.8-1.3,1.3-2.6,1.9-3.9c0.6-1.3,1.3-2.6,1.7-3.9c1-2.3,1.9-4.6,2.9-6.9l1.4-3.2l1.4-3.1c1.9-4.2,4.1-8.7,5.3-13.9
							c0.7-2.8,1.4-6.2,1.3-9.6c0-3.4-0.9-6.8-2.7-9.1c-0.9-1.1-2.2-1.2-3.3-1.1c0.9-0.1,0.6,1.4,0,3c-0.4,0.8-0.8,1.5-1.1,2.1
							c-0.4,0.6-0.7,1-0.7,1.1c-1.2,2.4-2,4.8-3.2,7c-2.5,4.3-5.7,7.5-8,12.2c-1.2,2.5-2.4,5.1-3.5,7.9c-1,2.5-2,5.1-3,7.4l-0.7,1.8
							l-0.8,1.7c-0.5,1.1-1,2.3-1.6,3.3l-1.8,3.3c-1.3,2.1-2.1,4.5-2.4,6.9c-0.5,4.1,0.4,8.1,2.2,11.5c0.9,1.7,2.1,3.3,3.5,4.6
							c0.7,0.7,1.5,1.3,2.2,1.9c0.8,0.5,1.5,1.1,2.4,1.5c1.6,0.9,3.2,1.5,4.7,1.9c1.5,0.5,2.8,0.7,4,1l0.8,0.2
							c0.3,0.1,0.5,0.1,0.9,0.2l2,0.4l2,0.4c0.7,0.1,1.4,0.2,2.1,0.3c1.7,0.1,3.4,0.4,5.2,0.4c0.9,0,1.8,0,2.6,0l1.3-0.1l1.3-0.1
							C254.6,401.9,257.7,401.4,260.6,400.9z"/>
					</g>
				</g>
			</g>
		</g>
		<g>
			<g>
				<g>
					<path class="st0" d="M332.8,293.8l-0.1,0C332.7,293.8,332.8,293.8,332.8,293.8z"/>
					<path class="st0" d="M354.2,291.9l0,0.2C354.2,292,354.2,292,354.2,291.9z"/>
					<path class="st0" d="M355.7,277.2l0.1,0C355.8,277.2,355.8,277.2,355.7,277.2z"/>
					<g>
						<path class="st0" d="M347.8,277.9c-3.5,0.5-7.1,1-10.6,2.2c-1.8,0.5-3.7,1.1-5.5,1.6c-0.9,0.3-1.9,0.5-2.8,0.7
							c-1,0.2-2,0.3-3,0.4c-4.1,0.3-8,0.2-11.9,0.3c-3.9,0.1-7.6-0.8-11.1-2.2c-0.4-0.2-0.9-0.3-1.3-0.5l-1.3-0.5
							c-0.9-0.3-1.8-0.6-2.6-0.9c-1.7-0.7-3.4-1.6-4.7-2.9c-0.7-0.7-1.3-1.5-1.9-2.3c-0.3-0.4-2.6-1.5-3.3-1.5
							c-0.3,0,0.1,1.6,0.2,2.1c0.2,0.8,0.5,1.8,0.9,2.6c0.4,0.9,0.8,1.7,1.2,2.1c0.7,1,1.3,1.7,1.9,2.3c0.6,0.7,1.3,1.3,2.3,1.9
							c4.2,2.9,8.8,4.9,13.6,7.2c3.9,1.9,8.4,1.5,12.5,2c2.2,0.3,4.4,0.6,6.5,0.8c2,0.3,4.3,0.4,6.4,0.3c2.3-0.1,4.7,0,7-0.1
							c1.2,0,2.4,0,3.5-0.1c0.6,0,1.2,0,1.8-0.1c0.6-0.1,1.2-0.1,1.8-0.2c2.3-0.4,4.6-0.8,6.9-1.3c2.3-0.6,4.6-1.1,6.9-1.6
							c2.7-0.7,5.4-1.3,8-2c3.3-1,6.7-2,9.8-3.5c1.6-0.7,3.2-1.4,4.8-2.1c1.5-0.8,3.1-1.6,4.6-2.3c0.7-0.3,1.4-0.7,2.1-1
							c0.7-0.3,1.1-0.5,1.8-0.7c1.2-0.4,2.5-0.8,3.8-1.2c2.6-0.7,5.2-1.4,7.6-2.4c1.3-0.5,2.8-1,4.1-1.6c1.3-0.7,2.3-1.5,3.2-2.9
							c0.4-0.7,0.8-1.9,1.1-3.1c-0.1,0.5-0.3,0.5-0.5,0.4c-0.3-0.1-0.6-0.5-1-0.9c-0.8-0.8-1.8-1.7-2-1.8c-1.7-1-3.6-1.1-5.4-1.5
							c-3.6-0.7-7.1-1.6-10.6-0.7c-1.8,0.5-3.6,1-5.4,1.8c-0.9,0.4-1.8,0.7-2.7,1.2l-2.3,1.1c-1.5,0.7-2.9,1.4-4.3,2.2
							c-1.5,0.7-3,1.3-4.4,1.9c-2.5,1.2-5.1,2-7.7,3c-1.3,0.5-2.6,0.8-3.9,1.2c-1.3,0.4-2.6,0.7-4,1
							C354.6,277.2,351.3,277.7,347.8,277.9z"/>
					</g>
				</g>
			</g>
		</g>
		<g>
			<g>
				<g>
					<path class="st0" d="M241.5,114.2L241.5,114.2C241.4,114.2,241.5,114.2,241.5,114.2z"/>
					<path class="st0" d="M257.6,113.6l-0.1,0.1C257.6,113.7,257.6,113.6,257.6,113.6z"/>
					<path class="st0" d="M267.7,102.6l0.2,0.1C267.8,102.6,267.7,102.6,267.7,102.6z"/>
					<g>
						<path class="st0" d="M257.4,98.1c-0.7-0.2-1.3-0.3-2-0.5c-0.7-0.1-1.4-0.2-2.1-0.3l-1-0.1l-1.1,0c-0.7,0-1.4,0-2.1,0
							c-2.9,0.2-5.8,1-8.5,2.3c-2.7,1.4-5,3.2-6.9,5.3c-1.9,2-3.5,4.1-5,6.1c-0.4,0.5-0.8,1.1-1.2,1.6l-1.1,1.6l-0.5,0.8l-0.6,1.1
							l-0.5,1.2c-0.2,0.4-0.3,0.9-0.5,1.3c-0.5,1.7-0.6,3.7-0.3,5.4c0.2,0.8,0.3,1.6,0.7,2.4c0.3,0.8,0.6,1.5,1,2.2
							c1.6,2.8,3.8,5,6.2,6.6c1.2,0.8,2.5,1.5,4,2c1.4,0.5,3,0.9,4.6,1l0.8,0l0.5,0c0.3,0,0.7,0,1,0l2.2-0.1c0.7,0,1.6-0.1,2.4-0.2
							c0.9,0,2-0.2,3.1-0.3c1-0.2,2.1-0.4,2.9-1c0.4-0.3,0.8-0.6,1.2-1l0.6-0.5c0,0,0.1-0.1,0.1-0.1l0,0l0.1,0l0,0l0,0l0,0l0,0h0
							l-0.1-0.2l0,0c0,0,0,0,0,0c0,0,0,0,0,0l0,0l0,0l0,0c0.9,0.5,0.2,0.1,0.4,0.2h0l0,0l0,0l0.1,0l0.1,0l0.2-0.1c0,0,0,0,0.1-0.1
							l0.3-0.2c0.4-0.3,0.9-0.6,1.1-0.9c0.3-0.3,0.6-0.7,0.8-1.1c0.1-0.2,0.2-0.4,0.3-0.6c0.1-0.2,0.1-0.4,0.2-0.6
							c0.2-0.9,0.3-1.6,0.2-2.2c0-0.2-0.1-0.4-0.1-0.6c-0.1-0.3-0.2-0.5-0.3-0.8c-0.3-0.6-0.6-1.1-1-1.6c-0.8-0.9-1.6-1.5-1.9-1.7
							c-0.3-0.2-0.1,1.9-0.1,2.5c0,1,0.1,2.3-0.4,3.3c-0.2,0.5-0.6,0.8-1,0.9c-0.2,0-0.7,0.1-1,0.2c-1.4,0.5-1.7,0.9-2.3,1.1
							c-0.5,0.3-1.2,0.3-1.9,0.2c-0.3,0-0.6-0.1-1-0.1c-0.5-0.1-1.2-0.1-1.8-0.2c-0.6-0.1-1.3-0.2-2-0.2c-0.7-0.1-1.4-0.2-2.1-0.2
							l-1.1-0.1c-0.3,0-0.5-0.1-0.8-0.1c-2-0.4-3.8-1.7-4.8-3.5c-0.8-1.4-1.5-2.5-2-3.8c-0.1-0.3-0.2-0.6-0.3-0.9l-0.1-0.5
							c0-0.1,0-0.3,0-0.4c0-0.5,0.1-0.9,0.4-1.2c0.2-0.2,0.4-0.4,0.6-0.7l1-1.1c0.7-0.8,1.5-1.4,2.2-2.1c1.5-1.2,2.9-2.4,4.3-3.3
							c1.5-1,3.1-1.5,4.8-1.7c1.7-0.2,3.4,0,5.2,0.2c0.9,0,1.9,0.3,2.9,0.4c1,0.3,2,0.5,3,0.8c0.5,0.2,1,0.3,1.5,0.5l1.5,0.6
							c1,0.4,2,0.9,2.9,1.4c2.2,1.2,4,2.7,5.4,4.2c1.8,2,3.1,4.1,3.8,6.6c0.2,0.6,0.3,1.3,0.5,1.9c0.1,0.3,0.1,0.7,0.2,1
							c0,0.3,0.1,0.7,0.1,1c0.1,1.1,0,2.2-0.3,3.4c-0.3,1.1-0.8,2.1-1.5,3.3c-0.7,1.1-1.6,2.3-2.5,3.5c-1.8,2.3-3.5,4.3-5.1,6.2
							c-0.4,0.5-0.9,1-1.4,1.6c-0.5,0.5-1,1-1.5,1.7c-0.5,0.6-1,1.1-1.4,1.9c-0.4,0.7-0.8,1.4-1.1,2.4c-0.3,0.9-0.1,2.2,0.3,3.3
							c-0.3-0.9,0.7-0.7,1.9-0.4c1.2,0.4,2.6,0.7,2.8,0.8c2.1,0.2,4.1-0.6,6.1-1.3c1-0.4,2-0.7,2.9-1.1c0.9-0.4,1.9-0.9,2.8-1.3
							c0.9-0.5,1.8-1.1,2.6-1.7c0.9-0.6,1.6-1.4,2.3-2.2l1.1-1.3l1-1.3c0.6-0.9,1.2-1.8,1.8-2.8c1.1-2,2.2-4.2,3-6.8
							c0.2-0.7,0.4-1.3,0.5-2l0.3-2c0.1-1.4,0.2-2.8,0.1-4.2l-0.1-1l-0.1-0.9c-0.1-0.6-0.2-1.2-0.3-1.9c-0.3-1.3-0.5-2.5-0.9-3.8
							c-1.2-4.3-3.6-8.3-6.6-11.5c-3-3.2-6.4-5.6-9.8-7.6c-2-1.2-4.1-2.2-6.2-3.2C262.1,99.6,259.9,98.7,257.4,98.1z"/>
					</g>
				</g>
			</g>
		</g>
	</g>
</g>
</svg>
