<?xml version="1.0" encoding="utf-8"?>
<!-- Generator: Adobe Illustrator 21.0.0, SVG Export Plug-In . SVG Version: 6.00 Build 0)  -->
<svg version="1.1" id="Layer_1" xmlns="http://www.w3.org/2000/svg" xmlns:xlink="http://www.w3.org/1999/xlink" x="0px" y="0px"
	 viewBox="0 0 500 500" style="enable-background:new 0 0 500 500;" xml:space="preserve">
<style type="text/css">
	.st0{display:none;}
	.st1{display:inline;}
	.st2{fill:none;}
	.st3{fill:#FFFFFF;}
</style>
<g id="Layer_1_1_">
</g>
<g id="Layer_2">
	<g>
		<g>
			<g>
				<path d="M477,280.9l-0.1,0.3C477,281,477.1,281,477,280.9z"/>
				<path d="M487,243.4l0.4,0.1C487.2,243.4,487.1,243.4,487,243.4z"/>
				<path d="M453,231.2l0-0.2C453,231.1,453,231.2,453,231.2z"/>
				<g>
					<path d="M449.5,244.2c-0.8,2.8-1.2,5.7-1.4,8.7c-0.4,2.9-0.5,5.9-0.3,9l0.1,1.2l0,1.3l0.1,2.6c0.1,1.8,0.1,3.5,0.1,5.2
						c0,1.7-0.1,3.4-0.2,5c-0.1,0.8-0.2,1.6-0.4,2.4c-0.2,0.8-0.4,1.6-0.6,2.3c-2.2,6.4-5.1,12.1-7.4,18c-0.5,1.5-1.3,2.9-2.2,4.3
						c-0.4,0.7-0.8,1.4-1.3,2c-0.5,0.6-1,1.2-1.5,1.9l-1.5,1.8l-1.7,1.6l-1.7,1.6c-0.6,0.5-1.2,1-1.9,1.5c-0.6,0.5-1.2,1-1.7,1.5
						c-0.6,0.5-1.1,1-1.7,1.6c-0.5,0.5-1.1,1.1-1.6,1.7c-0.5,0.6-1.1,1.1-1.7,1.6c-0.6,0.5-1.2,1-1.8,1.6c-0.6,0.5-1.3,0.9-1.9,1.3
						c-1.3,0.8-2.7,1.5-4.3,1.8c-0.8,0.2-1.7,0.3-2.5,0.4c-0.4,0-0.9,0.1-1.4,0.2l-1.5,0.3c-1,0.2-4.6,4.1-5,5.4
						c-0.2,0.6,3.3,1.6,4.2,1.9c3.1,0.8,7.5,1.8,9.7,1.8c1.1,0,2.1,0,3-0.1c0.9-0.1,1.7-0.2,2.5-0.4c1.6-0.3,3.2-0.7,5.2-1.7
						c1-0.5,2.1-1,3.1-1.5c1-0.5,2-1.1,3-1.6c1-0.6,2-1.1,3-1.7l2.9-1.8c3.9-2.4,7.7-5.1,12-7.6c3.4-2.1,6-5.1,8.1-8.5
						c1.2-1.7,2-3.4,3-5.1c1-1.7,1.9-3.3,3.1-4.9c4.8-6.8,9.7-13.6,12.1-20.9c0.6-2,1.3-3.8,2.1-5.7l2.4-6c0.8-2,1.6-4.1,2.4-6.1
						c0.6-2.1,1.1-4.2,1.5-6.3c0.4-2.1,0.8-4.2,1-6.3l0.6-6.3c0.2-2.1,0.5-4.2,0.6-6.3c0.1-2.1,0.3-4.2,0.5-6.3
						c0.6-5,0.9-9.4,1.6-13.9c1.6-11.5,1.4-23.3,1.8-35.2c0.1-2.7,0.4-5.3,0.8-8s0.8-5.4,1.1-8.1c0.4-2.7,0.6-5.4,0.7-8.2
						c0-1.4,0-2.7-0.1-4.1c-0.1-1.4-0.3-2.8-0.5-4.1c-0.3-1.5-0.5-3-0.9-4.7c-0.1-0.4-0.2-0.8-0.3-1.2c-0.1-0.2-0.2-0.3-0.3-0.6
						c-0.2-0.5-0.5-1.3-0.8-2.2c-0.3-0.9-0.7-2.1-1.2-3.2c-0.3-0.7-0.6-1.2-0.9-1.9c-0.3-0.7-0.7-1.3-1.1-1.9
						c-1.6-2.3-3.8-4-6.4-4.8c-2.5-0.8-5.8,0.5-8.3,1.8c1-0.6,1.6-0.3,1.8,0.4c0.1,0.7-0.1,1.8-0.7,3c-0.5,1.1-1.4,2.2-2.1,3
						c-0.7,0.8-1.4,1.3-1.5,1.4c-1.2,1.4-2.1,2.6-2.9,4c-0.4,0.7-0.8,1.5-1.2,2.3c-0.4,1-0.7,1.6-1.2,2.3c-1.6,2.8-3.6,5.4-5.2,8
						c-1.7,2.6-3.1,5.2-3.5,7.9c-2,11.5-1.7,22.9-2.3,34.7l-0.7,15.1c-0.1,2.5-0.3,5.1-0.5,7.6c-0.1,1.2-0.2,2.6-0.3,3.8l-0.4,3.5
						C452.4,233.1,450.7,238.6,449.5,244.2z"/>
				</g>
			</g>
		</g>
	</g>
	<g>
		<g>
			<g>
				<path d="M64,271l0.1,0.2C64.1,271.1,64.1,271,64,271z"/>
				<path d="M52.6,241.2l0.4-0.1C52.9,241.1,52.7,241.2,52.6,241.2z"/>
				<path d="M16.8,244.3l-0.1-0.2C16.7,244.2,16.7,244.3,16.8,244.3z"/>
				<g>
					<path d="M19.8,259.3c2,6.7,5.3,13,10.1,18.6c4.9,5.8,11.1,10.6,15.3,16.5c4.5,6.3,9.2,12.8,15.8,17.4c3.3,2.3,6.4,4.7,9.4,7
						c1.5,1.2,3,2.3,4.6,3.4c0.8,0.6,1.5,1.1,2.3,1.7c0.8,0.5,1.6,1.1,2.3,1.6c1.5,1.1,3.1,1.9,4.8,2.6c1.7,0.7,3.4,1.4,5.1,2
						c1.7,0.6,3.4,1.2,5,2c1.6,0.7,3.1,1.5,4.6,2.6c1.5,1.1,2.9,2.4,4.4,3.6c0.7,0.6,5.7,0.6,7,0c0.6-0.2-0.8-3.5-1.2-4.4
						c-1.3-2.9-3.5-6.9-4.8-8.5c-2.7-3.2-3.9-4.7-7-7c-0.8-0.6-1.6-1.2-2.4-1.8c-0.8-0.6-1.6-1.2-2.3-1.8c-1.6-1.2-3-2.5-4.4-3.8
						c-1.4-1.3-2.7-2.8-3.9-4.3c-1.2-1.5-2.2-3.2-3.1-4.9c-0.3-0.7-0.8-1.4-1.2-2c-0.4-0.6-0.8-1.2-1.3-1.8
						c-0.4-0.6-0.9-1.1-1.4-1.6c-0.5-0.6-0.9-1.1-1.4-1.6l-1.5-1.6l-1.4-1.7c-0.5-0.6-0.9-1.1-1.3-1.7c-0.4-0.6-0.7-1.3-1.1-1.9
						c-2.8-5.8-4-12.2-7-17.8c-3.3-6-4-13.2-6.7-19.7c-0.6-1.6-1.3-3.2-2-4.9l-2-4.9c-0.6-1.7-1.3-3.3-1.9-5
						c-0.6-1.7-1.2-3.5-1.6-5.1c-0.5-2-0.9-4-1.4-5.9c-0.4-2-0.9-4-1-6c-0.3-2.6-0.7-5.1-1.2-7.6c-0.3-1.3-0.4-2.5-0.6-3.8l-0.6-3.8
						l-0.6-3.8c-0.2-1.3-0.3-2.6-0.5-3.8c-0.3-2.6-0.5-5.1-0.7-7.7c-0.1-2.4,0.1-4.7,0.4-7c0.3-2.3,0.6-4.7,1-7
						c0.4-2.3,0.7-4.7,0.9-7c0.1-1.2,0.1-2.3,0.2-3.5c0-1.2,0-2.4-0.1-3.6c-0.6-5.1-0.4-11.9-7.6-16.8c-1.7-1.2-5-1.8-7.8-2
						c4.7,0.3-5.4,5.5-5.9,5.9c-2.9,2.4-4.4,5.2-6.3,7.9c-3.8,5.2-8.9,10-9.9,16c-1.2,6.2-1.3,12.5-1.2,18.7
						c0.1,3.1,0.5,6.3,0.8,9.4c0.2,1.6,0.3,3.1,0.5,4.7c0.2,1.6,0.4,3.1,0.7,4.7c0.4,2.7,0.7,5.4,1.2,8l1.7,8l0.8,4l1,3.9
						c0.7,2.6,1.3,5.3,1.9,7.9c0.3,1.6,0.7,3.1,1.1,4.7c0.3,1.6,0.7,3.1,1,4.7c0.3,1.6,0.7,3.2,1.1,4.8
						C18.9,256.1,19.3,257.7,19.8,259.3z"/>
				</g>
			</g>
		</g>
	</g>
	<g>
		<g>
			<g>
				<path d="M325.3,152.3l-0.1-0.1C325.2,152.3,325.2,152.3,325.3,152.3z"/>
				<path d="M332.6,175.9l-0.4-0.1C332.4,175.8,332.5,175.9,332.6,175.9z"/>
				<path d="M361.4,197.6l-0.2,0.4C361.3,197.8,361.4,197.7,361.4,197.6z"/>
				<g>
					<path d="M369.9,170.7c0.1-5.9-1-11.8-3.1-17.1c-2-5.4-5.2-10.2-8.9-14.3c-3.9-4.2-8.5-7.5-13.3-10.3c-4.8-2.7-9.9-4.9-15.4-6.8
						c-1.4-0.5-3.1-1-4.2-1.2l-1.8-0.4l-1.9-0.4c-2.5-0.5-5.2-0.8-7.8-1c-1.3-0.1-2.7,0-4.1,0c-1.4,0.1-2.7,0.2-4.1,0.4
						c-0.7,0.1-1.5,0.2-2.2,0.4c-0.7,0.1-1.4,0.3-2.3,0.5c-0.8,0.2-1.6,0.4-2.4,0.7l-1.2,0.4l-1.1,0.5c-3,1.2-5.7,2.9-8.1,4.9
						c-2.4,1.9-4.5,4.3-6.1,6.9c-1.6,2.6-2.9,5.5-3.7,8.5c-0.8,3-1.2,6.2-1.1,9.4c0,0.8,0,1.5,0.1,2.3c0.1,0.8,0.2,1.5,0.3,2.2
						l0.2,1.1l0.1,0.5l0.2,0.7l0,0l0,0l0,0.1l0.1,0.2l0.3,0.7l0.1,0.4l0.3,0.7c0.2,0.5,0.5,1.1,0.8,1.6l0.4,0.8l0.2,0.4l0.2,0.3
						c0.5,0.7,1.1,1.5,1.6,2.1c0.6,0.6,1.2,1.2,1.8,1.8c0.6,0.5,1.3,1,1.9,1.5c2.6,1.9,5.2,3.1,7.9,4.1c2.7,1,5.4,1.8,8.2,2.4
						c3,0.7,6.3,1.1,9.8,0.7c0.2,0,0.5-0.1,0.9-0.3c0.2-0.1,0.4-0.2,0.6-0.3l0.2-0.1l0.1,0l0,0l0.4-0.1l0,0l0,0l0,0
						c0.1,0,0.1-0.1,0.2-0.2c0,0,0.3-0.2,0.6-0.3l0.4-0.2l0.2-0.1l0.1-0.1c0.1-0.1,0.3-0.2,0.4-0.3c0.1-0.1,0.2-0.2,0.3-0.3
						c0.4-0.4,0.7-0.7,0.6-0.9l0-0.1l0,0c0,0,0,0,0,0l-0.1-0.1l-0.1-0.3c-0.2-0.3-0.3-0.7-0.5-1l-0.2-0.5c-0.1-0.2-0.1-0.2-0.2-0.3
						c-0.2-0.4-0.3-0.8-0.5-1.2c-0.1-0.3-0.2-0.5-0.3-0.8c-0.3-0.9-0.2-1.3-0.2-1.3c0-0.1,0,0.2-0.1,0.4c-0.1,0.2-0.1,0.3-0.2,0.4
						c-0.1,0.1-0.2,0.3-0.2,0.3c-0.1,0.1,0,0,0.2-0.3c0-0.1,0.1-0.2,0.1-0.3c0-0.1,0.1-0.1,0.1-0.2c0.1-0.2,0.1-0.3,0.1-0.4
						c0,0-0.1,0.3,0.2,1.3l0,0l0,0l0,0l0-0.1c0,0,0-0.1-0.1-0.1c-0.1-0.1-0.1-0.1-0.2-0.2c-0.1-0.1-0.2-0.1-0.3-0.2
						c-0.7-0.2-1.6-0.2-3.1-0.2l-0.4-0.1l0,0l0,0c-0.1,0,0,0-0.1,0l0,0l0,0l-0.1,0l-0.1,0l-0.2-0.1l-0.8-0.2c-0.5-0.1-1-0.3-1.5-0.5
						c-0.5-0.2-0.9-0.4-1.4-0.5c-0.4-0.2-0.8-0.4-1.2-0.6c-0.8-0.3-1.4-0.8-1.9-1c-2-1-3.3-2-4.5-2.9c-1.2-0.9-2.3-1.8-3.5-3
						c-0.6-0.6-1.2-1.3-1.6-2c-0.2-0.3-0.4-0.6-0.5-1l-0.2-0.5c0-0.1,0-0.2,0-0.2c0,0,0-0.1,0-0.1c0,0,0,0,0-0.2l-0.2-0.9l-0.1-0.5
						l0-0.1l0,0l0,0l0,0c0.1,0.2-0.1-0.5,0.1,0.5v-0.1l0-0.2l0-0.7c0-0.9,0.1-1.7,0.3-2.5c0.6-3.2,2.6-5.9,5.5-6.6
						c2.3-0.5,3.8-0.9,5.4-1.2c0.4-0.1,0.7-0.1,1.4-0.2l0.9-0.1c0.3,0,0.7,0,1,0l1.1,0l1.1,0.1c0.4,0.1,0.7,0.1,1.1,0.2
						c0.4,0.1,0.7,0.2,1.1,0.3c1.5,0.5,3.1,1.2,4.6,1.9l1.2,0.6l0.6,0.3c0.2,0.1,0.4,0.2,0.5,0.3c0.2,0.2,0.4,0.4,0.6,0.5
						c0.2,0.2,0.4,0.3,0.6,0.5c1.6,1.5,3.3,3.4,5.2,5.1c2,1.9,3.4,4.7,4.3,7.4c0.9,2.7,1.2,5.4,1.7,8c0.2,0.6,0.2,1.3,0.3,1.9
						c0.1,0.6,0.1,1.3,0.2,1.9c0,0.3,0.1,0.6,0.1,1l0,1c0,0.7-0.1,1.3-0.1,1.8c-0.1,0.5-0.1,1-0.2,1.4l-0.1,0.3l-0.1,0.2
						c0,0.2-0.1,0.3-0.1,0.4c-0.1,0.4-0.3,0.7-0.6,1c-0.5,0.4-0.2,0.2-2.5,1.3c-1.8,0.7-3.5,1.3-5.2,1.6c-4.4,0.9-8.3,1.2-12.6,0.6
						c-2.1-0.3-4.3-0.8-6.4-1.5l-0.8-0.3l-0.4-0.1l-0.5-0.2l-1.9-0.8l-0.9-0.4l-0.9-0.5l-1.8-0.9c-4.2-2.3-7.2-5.7-9.4-9
						c-2.3-3.4-3.8-6.6-6.2-9.8c-0.3-0.4-0.6-0.9-0.9-1.4c-0.3-0.5-0.7-1-1-1.5c-0.6-1.1-1.4-2.2-2.2-3.3c-0.4-0.6-0.9-1.1-1.5-1.7
						c-0.5-0.6-1.1-1.1-1.8-1.7c-1.4-1.1-2.9-2.1-4.9-3.1c-2-0.9-5.2-0.9-8.1-0.7c2.3-0.2,1.3,1.5-0.4,3.6c-0.9,1.1-1.8,2.2-2.5,3
						c-0.7,0.9-1.3,1.6-1.4,1.8c-2.1,3.8-2.2,7.7-2.6,11.9c-0.2,2-0.4,4.1-0.5,6.2c0,1,0,2.1,0,3.2c0,1.1,0,2.1,0.2,3.2
						c0.3,2.1,0.6,4.3,1.3,6.3c0.3,1,0.7,2.1,1.2,3.1c0.5,1,1.1,1.9,1.7,2.9l1,1.5c0.3,0.5,0.7,0.9,1.1,1.4c0.7,0.9,1.5,1.8,2.3,2.8
						c0.8,0.9,1.6,1.7,2.5,2.5l1.3,1.2c0.4,0.4,0.9,0.8,1.3,1.2c0.9,0.8,1.8,1.5,2.7,2.2c0.9,0.7,1.8,1.4,2.8,2
						c1.9,1.4,3.8,2.5,5.7,3.7c1,0.6,2,1.1,2.9,1.6c1,0.5,2,1,3,1.5l3,1.3c0.5,0.2,1,0.4,1.5,0.7l1.7,0.6c4.5,1.7,9.3,3,14.3,3.8
						c4.2,0.6,8.6,0.9,12.9,0.6c4.3-0.3,8.6-1,12.7-2.1c4.1-1.1,8-2.5,11.7-4.2c0.9-0.4,1.8-0.9,2.8-1.3l1.4-0.7
						c0.2-0.1,0.6-0.3,0.9-0.5l1-0.5c2.5-1.5,4.9-3.2,7.1-5.2c2.6-2.4,4.9-5.1,6.8-8.2c0.5-0.8,1-1.5,1.4-2.3
						c0.4-0.8,0.9-1.6,1.2-2.3c0.7-1.5,1.3-3,1.9-4.5c1.1-3,1.7-5.9,2.2-8.7c0.2-1.4,0.4-2.7,0.5-4.1
						C369.8,173.5,369.9,172.1,369.9,170.7z"/>
				</g>
			</g>
		</g>
	</g>
	<g>
		<g>
			<g>
				<path d="M175.7,270.4l0.2,0C175.7,270.3,175.7,270.3,175.7,270.4z"/>
				<path d="M153.8,266.9l0.1-0.3C153.8,266.7,153.8,266.8,153.8,266.9z"/>
				<path d="M143.5,293.6l-0.2,0C143.4,293.7,143.5,293.6,143.5,293.6z"/>
				<g>
					<path d="M153.3,296.8c2.2,0.5,4.5,0.7,6.8,0.7c2.3,0,4.6-0.4,6.9-0.9c2.4-0.6,4.8-1.3,7.1-2.1c2.3-0.7,4.7-1.2,6.9-1.2
						c2.4,0.1,4.8,0.1,7.2,0.2c2.4,0,4.8-0.1,7.2-0.5c4.8-0.9,9.5-0.5,14.3-0.1c2.3,0.2,4.4-0.2,7.4-0.8c1.4-0.2,2.7-0.7,4-0.9
						c1.3-0.2,2.6-0.6,4-0.7c1.5,0,3-0.1,4.5-0.3c0.2,0,0.5-0.2,0.9-0.5c0.1-0.1,0.2-0.2,0.3-0.2l0.1-0.1l0.1-0.1l0,0l0,0l0,0
						l0.8-0.4l0,0l0,0l0,0c0.1-0.2,0.3-0.4,0.4-0.6l0-0.1l0.3-0.3c0.2-0.2,0.4-0.4,0.6-0.6c0.4-0.4,0.8-0.9,1.1-1.3l0.2-0.3
						c0.1-0.1,0.1-0.2,0.1-0.2c0.1-0.2,0.1-0.3,0.2-0.5c0.1-0.3,0.2-0.6,0.3-0.9c0-0.1,0.1-0.3,0.1-0.4c0-0.1,0-0.2,0-0.2
						c0-0.1,0-0.3,0-0.4c0-0.2-0.1-0.4-0.1-0.6c-0.1-0.2-0.8,0.1-1.6,0.4c-0.3,0.2-0.5,0.3-0.8,0.5c-0.3,0.2-0.6,0.3-0.8,0.5
						c-0.7,0.4-1.2,0.5-1.5,0.6c-0.3,0-0.6-0.1-0.9-0.2l-0.2-0.1l0,0l0,0c-0.4,0.2-0.1,0.1-0.2,0.1l0,0l0,0l0,0l-0.1,0l-0.1,0
						c-0.2-0.1-0.3-0.1-0.5-0.2c-0.6-0.2-1.2-0.5-1.9-0.7c-1.2-0.4-2.2-0.8-2.9-1c-1.3-0.3-2.3-0.6-3.2-0.8c-0.9-0.3-1.8-0.4-3-0.5
						c-0.6-0.1-1.2-0.2-1.8-0.3l-0.9-0.1c-0.3,0-0.7-0.1-1-0.2c-1.3-0.3-2.7-0.5-4-0.8c-2.7-0.6-5.3-1.5-7.9-2.9
						c-2.1-1.1-4.3-1.4-6.5-1.5c-2.2-0.1-4.4-0.2-6.5-0.8c-4.6-1.3-9-3.6-13.7-3.8c-4.9-0.5-9.5-2.5-14.3-3.1
						c-4.8-0.4-9.5-0.8-14.1-1.6c-2.7-0.7-5.3-1.5-7.9-2.3c-6.5-2.3-12.9-3.8-18.3-6.6c-2.5-1.3-4.3-3.3-6-5.3
						c-0.9-0.9-1.6-2-2.5-2.8c-0.8-0.9-1.8-1.7-2.8-2.4c-2.3-1.5-4.6-3.9-10.9-2.6c-1.6,0.3-3.8,1.6-5.7,2.9c1.6-1,1.2,0.3,0.6,1.9
						c-0.7,1.7-1.7,3.8-1.7,4c-0.3,1.4-0.3,2.6-0.3,3.8c0.1,1.2,0.3,2.4,0.4,3.6c0.1,1.2,0.2,2.5,0.4,3.7c0.2,1.2,0.3,2.5,0.6,3.7
						c0.3,1.2,0.6,2.4,1.1,3.5c0.5,1.1,1.1,2.1,1.9,2.9c3.3,3.6,7.3,6.5,11.4,8.7c4.1,2.2,8.4,3.9,12.7,5.4
						c3.6,1.3,7.2,2.2,10.7,3.1c3.5,0.8,7,1.6,10.5,2.6c2.1,0.5,4.2,1.1,6.3,1.7C149,295.7,151.2,296.4,153.3,296.8z"/>
				</g>
			</g>
		</g>
	</g>
	<g>
		<g>
			<g>
				<path d="M200.2,178.6l0.2,0C200.3,178.6,200.3,178.5,200.2,178.6z"/>
				<path d="M186.9,169.9l0.4,0C187.1,169.8,187,169.9,186.9,169.9z"/>
				<path d="M151.4,164.2l0-0.3C151.3,164,151.3,164.1,151.4,164.2z"/>
				<g>
					<path d="M154.7,188.9c0.7,1.5,1.6,3,2.5,4.4c1,1.4,2,2.8,3.1,3.9c0.6,0.6,1.1,1.2,1.7,1.8c0.6,0.5,1.2,1.1,1.8,1.6
						c0.6,0.5,1.2,1,1.9,1.4c0.6,0.4,1.3,0.9,1.9,1.3c5.1,3.1,10.1,4.6,14.7,5.2c2.3,0.3,4.6,0.4,6.8,0.3c2.2,0,4.6-0.1,7-0.3
						c4.8-0.4,9.6-1,14.7-2c2.7-0.5,5.3-1.4,7.8-2.4c2.5-1.1,4.9-2.5,7-4c1-0.8,2.1-1.6,3-2.5c0.4-0.4,1-1,1.5-1.5
						c0.5-0.5,1-1.1,1.5-1.6c1.9-2.2,3.4-4.7,4.3-7.4c1.8-5.4,2.4-10.9,2-16.4c-0.1-1.4-0.3-2.7-0.6-4c-0.3-1.4-0.7-2.8-1.3-4.2
						l-0.5-1.1l-0.1-0.3l0-0.1l0,0l0,0l-0.2-0.3l0-0.1l-0.2-0.3c-0.1-0.2-0.2-0.4-0.3-0.7c-0.2-0.4-0.5-0.8-0.8-1.2
						c-0.3-0.4-0.5-0.8-0.8-1.1c-0.3-0.3-0.5-0.7-0.8-1c-0.6-0.7-1.2-1.3-1.9-2c-2.7-2.5-6.9-4.2-10.6-4.1c-3.8-0.1-6.9,1.2-9.4,2.5
						c-0.8,0.5-1.6,1-2.3,1.4c-0.7,0.4-1.5,0.9-2.2,1.2c-1.5,0.7-3,1.2-4.5,1.4c-0.4,0-0.8,0-1.2,0.1c-0.4,0-0.8-0.1-1.1-0.1
						c-0.8,0-1.4-0.2-2.1-0.3c-0.2,0-0.5,0.1-0.8,0.3c-0.2,0.1-0.4,0.2-0.6,0.4c-0.1,0.1-0.2,0.2-0.3,0.2l-0.2,0.1l0,0l0,0l0,0
						c0.1,3.1-0.3-7,0.3,7l0,0l0,0l-0.1-0.1l-0.1-0.2c-0.3-0.1,0-0.8,0.3-1.1c0-0.1,0.1-0.1,0.1-0.2l0.1-0.3
						c0.1-0.2,0.1-0.4,0.2-0.6s0.2-0.4,0.2-0.6l0.1-0.3c0-0.1,0.1-0.1,0.2-0.4c0.2-0.4,0.4-0.8,0.6-1.2l0.3-0.6
						c0.1-0.2,0.2-0.5,0.2-0.4c0,0,0,0.1-0.1,0.1c-0.1,0-0.2,0.1-0.4,0.1c-0.6,0.1-1.6-0.2-2.1-0.1c-0.5,0,0.5,1.3,0.7,2.3
						c0.2,0.5,0.2,0.9,0.1,1.3c0,0.1,0,0.1-0.1,0.2l0,0.1l-0.1,0.3c0,0.1-0.1,0.1-0.1,0.1c-0.3,0.3-0.4,0.7-0.4,0.9
						c0.1,0.1,0.1,0.2,0.2,0.3l0.1,0.2l0,0l0,0c0.2,1.1-0.2-1.5-0.2-1.2l0,0l0,0l0,0l0.1,0c0.2,0.1,0.3,0.2,0.5,0.4
						c0.3,0.2,0.7,0.5,1.1,0.8c0.8,0.5,1.6,0.9,2.4,1.3c0.9,0.4,1.7,0.7,2.5,0.9c0.8,0.2,1.5,0.4,2.1,0.4c4.6,0.4,6.9,0.2,11-1
						l0.8-0.2l0.4-0.1l0.2-0.1l0.1,0c0.3-0.1,0.7-0.1,1-0.1c0.6,0,1.1,0,1.5,0.2c0.7,0.3,0.8,0.8,1,1.4c0,0.2,0.1,0.4,0.1,0.6
						c0,0.1,0,0.1,0,0.2l0,0.1l0,0.1l0,0l0.1,0.2l0.2,0.8l0,0.1l0,0c0,0.1-0.3-0.5-0.1-0.3v0l0,0l0,0l0,0.1l0,0.2
						c0,0.2-0.1,0.5-0.1,0.8c0,0.3-0.1,0.6-0.2,0.9c-0.1,0.3-0.2,0.6-0.3,0.9c-0.3,0.6-0.6,1.2-1,1.7c-1.4,1.6-1.9,2.8-2.7,4
						c-0.4,0.6-0.9,1.1-1.4,1.6c-0.2,0.1-0.2,0.1-0.5,0.3c-0.2,0.2-0.4,0.3-0.7,0.4c-0.5,0.2-0.9,0.5-1.4,0.6c-1,0.3-2,0.3-2.9,0.2
						c-0.9-0.1-1.8-0.3-2.7-0.6c-1.8-0.5-3.7-1.2-6.1-1.7c-0.3-0.1-0.7-0.2-1-0.2l-0.5-0.1l-0.6-0.2c-0.8-0.2-1.5-0.5-2.2-0.8
						c-1.3-0.6-2.6-1.3-3.5-2c-0.9-0.7-1.7-1.4-2.1-1.9c-0.4-0.5-0.7-0.9-0.9-1c-0.2-0.2-0.4-0.3-0.7-0.6c-0.1-0.2-0.3-0.3-0.4-0.6
						l-0.1-0.2l-0.1-0.1l-0.1-0.2l-0.2-0.8c-0.3-1.1-0.5-2.1-0.6-3.1c-0.1-1-0.1-2,0.1-3c0.2-1.1,0.6-2.2,1.1-3.2c0.5-1,1.1-2,2-2.9
						c0.5-0.6,1-1.2,1.6-1.8c0.3-0.3,0.6-0.6,0.9-0.9l0.4-0.4l0.4-0.4c1.1-1,2.3-1.9,3.7-2.7c2.7-1.6,6.5-2.9,11.5-3.8
						c1.1-0.2,2.3-0.3,3.6-0.4l0.9-0.1l0.7,0l1.4,0.1c1.9,0.2,3.6,0.5,5.3,1c0.4,0.1,0.8,0.2,1.2,0.4l1.2,0.4
						c0.8,0.3,1.5,0.5,2.3,0.7c1.5,0.4,3,0.9,4.6,1.1c1.7,0.2,3.7,0.9,6.1,1.1c2.4,0.2,5.4-0.2,9.2-1.8c1.9-0.8,4.2-3.1,6-5.3
						c-1.5,1.8-1.8,0-1.9-2.5c-0.1-2.4,0-5.5-0.1-5.8c-0.8-3.9-3.1-6.6-5.3-9.7c-2.1-3-4.4-6.1-7.2-8.8c-2.8-2.6-6.2-4.8-10.1-5.8
						c-4.1-1-8.3-1.4-12.4-1.4c-1,0-2.1,0-3.1,0.1l-3,0.3l-0.8,0.1l-0.6,0.1l-1.2,0.2l-2.5,0.4c-3.5,0.6-7.2,1.3-11.2,2.6
						c-4,1.2-8.2,2.9-12.3,5.2c-3.5,1.9-6.9,4.3-9.9,7l-2.2,2.1l-2,2.1c-1.3,1.5-2.6,3-3.7,4.6c-4.7,6.4-8.2,14.3-9.8,22.5
						c-1,4.9-1.3,10-1,14.9c0.1,1.2,0.2,2.5,0.3,3.7c0.2,1.2,0.3,2.3,0.7,3.9l0.5,2.2c0.2,0.7,0.5,1.5,0.7,2.2
						c0.3,0.7,0.5,1.5,0.8,2.2C154,187.5,154.3,188.2,154.7,188.9z"/>
				</g>
			</g>
		</g>
	</g>
	<g>
		<g>
			<g>
				<path d="M150.9,254.5l-0.1,0C150.8,254.5,150.8,254.6,150.9,254.5z"/>
				<path d="M168.4,258.1l-0.1,0.3C168.3,258.3,168.3,258.2,168.4,258.1z"/>
				<path d="M181.4,232.7l0.1,0C181.5,232.7,181.4,232.7,181.4,232.7z"/>
				<g>
					<path d="M172.5,228.6c-1.1-0.3-2.2-0.6-3.4-0.8c-1.2-0.2-2.3-0.4-3.5-0.4c-1.2,0-2.4,0.1-3.6,0.2c-1.2,0.1-2.6,0.3-3.3,0.6
						c-0.9,0.3-1.8,0.7-2.7,1.1c-0.2,0.1-0.4,0.2-0.7,0.3l-0.8,0.3l-1.6,0.5c-0.5,0.2-1,0.3-1.6,0.4l-0.8,0.2l-0.9,0.2
						c-1.1,0.2-2.2,0.3-3.3,0.3l-0.9,0l-0.9,0l-1.9,0.1l-1.9,0.1c-0.3,0-0.6,0-0.9,0.1l-0.8,0.1c-2.2,0.3-4.4,0.7-6.5,1.6
						c-4.3,1.6-8.6,2.3-13,3.2c-2.1,0.6-4.1,1.6-6,2.9c-0.9,0.6-1.9,1.2-2.9,1.6c-1,0.5-1.9,0.9-3,1.2c-1.2,0.2-2.4,0.3-3.6,0.6
						c-0.6,0.1-2.3,3-2.3,4c0,0.4,2.4,1.3,3,1.5c2.1,0.7,4.9,1.6,6.2,1.8c2.6,0.3,3.7,0.4,5.9,0.1c2.2-0.4,4.5-0.7,6.7-0.8
						c2.3,0.1,4.5,0.2,6.9,1.2c0.9,0.4,1.8,0.5,2.7,0.5c0.9,0.1,1.8,0,2.6-0.1l1.3-0.2c0.4,0,0.9-0.1,1.3-0.1c0.9,0,1.8,0,2.7,0.2
						c0.9,0.2,1.6,0.6,2.4,0.9l1.1,0.5l1.3,0.6c0.9,0.4,1.6,0.7,2.5,0.9c1,0.3,2,0.5,2.9,0.6c1,0.1,2.3,0.3,3.5,0.6
						c0.6,0.1,1.2,0.3,1.8,0.4l0.5,0.1c0.1,0,0.2,0.1,0.3,0.1l0.6,0.2c1.6,0.6,3.2,1.1,5,1.5c0.9,0.2,1.7,0.2,2.6,0.4l2.8,0.5
						c1.8,0.3,3.8,0.9,5.6,1.6c2.2,0.8,4.4,1.9,6.4,3c5.2,3,11,5,16.3,8c4.8,2.8,7.9,8.1,13.1,10.2c2.8,1.1,6.2,3.2,11.7-0.4
						c1.3-0.9,3-2.9,4.3-4.8c-2.1,3.1-0.5-5.3-0.6-5.7c0-2.7-0.9-4.4-1.4-6.6c-1-4.2-1.4-9-3.9-11.5c-2.6-2.7-5.6-4.7-8.7-6.6
						c-3.2-1.8-6.4-3.5-9.8-5c-2.8-1.4-5.7-2.6-8.6-3.8c-1.4-0.6-2.9-1.1-4.4-1.8c-1.5-0.6-2.9-1.2-4.4-1.8
						c-1.8-0.7-3.5-1.6-5.5-2.4C176.5,230.1,174.6,229.2,172.5,228.6z"/>
				</g>
			</g>
		</g>
	</g>
	<g>
		<g>
			<g>
				<path d="M438.6,206.2l-0.1,0.1C438.6,206.3,438.7,206.3,438.6,206.2z"/>
				<path d="M453.8,190.1l0.3,0.3C454,190.2,453.9,190.2,453.8,190.1z"/>
				<path d="M427,166.9L427,166.9C427,166.8,427,166.8,427,166.9z"/>
				<g>
					<path d="M422.2,170.7c-0.9,1-1.7,2.1-2.3,3.4c-0.3,0.7-0.5,1.4-0.7,2.2c-0.3,0.8-0.5,1.6-0.6,2.5c-0.3,1.8-0.5,3.9-0.9,5.8
						c-0.5,1.9-1,3.7-2.3,4.9c-2.5,2.6-5.5,4.8-7.6,8.3c-0.5,0.9-1.1,1.7-1.8,2.4c-0.6,0.7-1.4,1.5-1.9,1.9
						c-0.6,0.5-1.2,0.9-1.8,1.3c-0.6,0.3-1.3,0.7-1.9,1c-0.6,0.2-1.2,0.7-1.7,1.2c-0.5,0.4-1,1-1.5,1.5c-0.6,0.5-1.1,0.9-1.8,1.2
						c-0.7,0.3-1.4,0.4-2.2,0.3c-0.8-0.2-1.7-0.6-2.5-0.9c-0.4-0.1-2.2,2.2-2.6,3.2c-0.2,0.5,1.3,2.7,1.7,3.3c1.4,2,3.8,4.2,5.1,4.9
						c2.5,1.2,3.8,1.7,6.4,1.4c0.7,0,1.3-0.2,2-0.3l2-0.4c1.3-0.3,2.6-0.7,3.9-1c1.3-0.4,2.6-0.7,4-1c1.3-0.3,2.8-0.6,4.4-0.8
						c2.2-0.1,3.8-1.1,5.2-2.2c1.5-1.1,2.9-2.4,4.7-3.1c2-0.8,4.2-1.4,6.2-2.2c2.1-0.8,4-1.9,5.6-3.4c1.6-1.6,3.7-3,5.7-4.4
						c2-1.4,4-3,5.5-5c1.5-2,2.7-4.2,4.1-6.3c1.2-2.2,2.4-4.4,3.8-6.5l1-1.4c0.3-0.4,0.6-0.9,0.9-1.3c0.6-0.9,1.3-1.7,2-2.5
						c2-2.2,3.5-4.5,5.2-7.2l2.5-4c0.9-1.4,1.8-2.8,2.7-4.2c0.9-1.2,1.9-2.5,3-3.7c1.1-1.2,2.3-2.3,3.4-3.6c1.1-1.3,2.2-2.7,3.1-4.2
						c0.5-0.7,0.9-1.5,1.2-2.3c0.2-0.6,0.5-1.2,0.6-1.9l0.3-1l0.1-0.2l0-0.2l0-0.3c0-0.2,0.1-0.4,0.1-0.7l0-0.3c0,0,0-0.1,0-0.1l0,0
						c-0.1,0-0.2-0.1-0.3-0.1c-0.2-0.1-0.5-0.3-0.9-0.6c-0.4-0.3-1-0.8-1.8-1.6c-0.9-0.6-1-2.7-1.7-5.2c-0.8-2.3-3.7-3.8-6.3-5
						c1.1,0.5,1.2,0.9,0.7,1.2c-0.5,0.3-1.5,0.5-2.6,0.3c-1.1-0.2-2.2-0.6-3.1-0.8c-0.9-0.3-1.7-0.4-1.8-0.5c-1.6-0.2-3,0.1-4.2,0.5
						c-1.2,0.4-2.3,1-3.5,1.7c-0.6,0.3-1.2,0.6-1.8,0.9c-0.3,0.2-0.6,0.2-0.9,0.3l-0.8,0.2c-0.3,0.1-0.6,0.2-0.8,0.2l-0.8,0
						c-0.5,0-1-0.1-1.4-0.1c-2.1,0.3-4,0.6-5,1.4c-0.5,0.4-1,0.9-1.4,1.3c-0.5,0.5-1,1-1.4,1.5s-0.9,1-1.3,1.5l-1.2,1.6
						c-0.8,1.2-1.6,2.3-2.4,3.5c-0.4,0.6-0.8,1.2-1.2,1.9l-1.3,1.9c-1.4,2.1-3,4.6-4.5,7l-0.6,0.9l-0.6,1l-1.2,2l-1.2,1.9l-0.6,1
						l-0.3,0.5l-0.2,0.3c-0.8,1-1.7,1.9-2.6,2.8c-0.4,0.5-1,0.9-1.4,1.3C423.1,169.8,422.6,170.3,422.2,170.7z"/>
				</g>
			</g>
		</g>
	</g>
	<g>
		<g>
			<g>
				<path d="M72.4,179.7L72.4,179.7C72.4,179.7,72.5,179.6,72.4,179.7z"/>
				<path d="M65.1,170.8l0.3-0.2C65.3,170.7,65.2,170.8,65.1,170.8z"/>
				<path d="M34.7,188.9L34.7,188.9C34.6,188.8,34.6,188.9,34.7,188.9z"/>
				<g>
					<path d="M37.8,195.8c0.9,1.4,2.3,2.7,3.7,3.7c1.4,1,3.2,1.8,5.2,2.3c1,0.2,2,0.4,3.1,0.6c1,0.2,2.1,0.3,3.2,0.4
						c2.1,0.3,3.8,0.7,5.4,1.5c0.8,0.5,1.6,0.9,2.3,1.4c0.8,0.5,1.5,1,2.4,1.4c1.6,0.8,3.4,1.5,5.2,1.7c3.5,0.2,6,1.8,8.7,3.4
						c0.7,0.4,1.4,0.6,2.2,0.8c0.7,0.1,1.5,0.1,2.2,0.2c1.5,0.1,3,0.3,4,1.5c0.5,0.6,1,1.5,1.5,2.1c0.2,0.3,2.9-0.8,3.7-1.6
						c0.4-0.3,0.4-2.9,0.4-3.6c0-2.2-0.3-5.3-0.7-6.4c-0.8-2.2-1.1-3.2-2.5-4.5c-0.7-0.6-1.4-1.3-2-1.9c-0.7-0.6-1.3-1.3-1.9-1.9
						c-1.2-1.4-2.2-3-3-5.2c-0.6-1.8-1.8-2.6-2.8-3.2c-0.9-0.6-1.9-1.1-2.5-2.1c-0.6-1.2-1-2.7-1.5-3.9c-0.2-0.6-0.4-1.2-0.7-1.8
						c-0.3-0.5-0.6-1-1.1-1.3c-0.5-0.3-0.8-0.8-1.2-1.4c-0.3-0.6-0.6-1.1-0.8-1.7c-0.3-0.6-0.5-1.2-0.8-1.8
						c-0.3-0.6-0.6-1.1-1.1-1.5c-1.8-1.7-4-3.3-5.5-5.5c-0.9-1.2-1.6-2.8-2.1-4.3c-0.1-0.2-0.2-0.5-0.3-0.7
						c-0.1-0.2-0.1-0.3-0.2-0.5c-0.1-0.3-0.2-0.5-0.4-0.9c-0.2-0.4-0.3-0.7-0.5-1.1c-0.2-0.4-0.4-0.8-0.6-1.3
						c-0.9-1.8-1.9-3.9-2.9-6.4c-0.8-2.2-1.1-5.1-1.8-8.1c-0.8-3-2.2-6.5-5.4-9.2c-0.9-0.7-1.9-1.5-2.9-2.3
						c-1.2-0.7-2.5-1.4-3.8-1.8c-1.3-0.3-2.8-0.3-4.2,0.1c-1.5,0.4-3,1.2-4.6,2.6c-1.5,1.3-3,4.2-4.2,6.8c1-2.1,1.2-0.6,1,1.4
						c-0.2,2-1.1,4.5-1.2,4.7c-0.4,1.4-0.5,2.5-0.7,3.4c-0.2,1-0.5,1.8-0.9,2.7c-0.4,0.9-0.9,1.8-1.5,2.6c-0.6,0.8-1.2,1.7-1.7,2.4
						l-0.8,1l-0.7,1c-0.4,0.6-0.7,1-0.8,1.5c-0.1,0.5-0.1,0.8-0.1,1.3c0,0.5,0,0.9,0.1,1.3c0.1,0.5,0.2,0.9,0.3,1.4
						c0.1,0.4,0.3,1,0.5,1.5c0.7,2,1.8,4.3,2.9,6.9c0.5,1.2,1.1,2.3,1.8,3.7c0.6,1.2,1.6,2.8,2.3,4c0.7,1,1.4,2.1,2,3.1l1,1.6
						c0.3,0.5,0.7,1.1,1,1.6c0.8,1.3,1.4,2.7,2.2,4.2C36.2,193,36.9,194.4,37.8,195.8z"/>
				</g>
			</g>
		</g>
	</g>
	<g>
		<g>
			<g>
				<path d="M366.1,237.2l0.2,0C366.2,237.1,366.1,237.1,366.1,237.2z"/>
				<path d="M343.5,236.1l0-0.3C343.5,235.9,343.5,236,343.5,236.1z"/>
				<path d="M340.8,264.5l-0.1,0C340.7,264.6,340.8,264.6,340.8,264.5z"/>
				<g>
					<path d="M348.4,265.5c3.4,0.2,7.1-0.3,10.7-1.8c3.8-1.5,7.8-3.8,11.7-3.6c4.1,0.1,8.2,0.8,12.4,0.3c4.3-0.5,8.2,0.4,12.2,1.5
						c1,0.3,1.9,0.3,2.9,0.4c1,0,2,0,3,0c1,0,2,0,3,0.2c1,0.2,1.9,0.4,2.8,0.9c0.9,0.6,1.7,1.3,2.6,1.9c0.4,0.3,3.2-0.5,4-1.1
						c0.4-0.3-0.4-2.5-0.6-3.1c-0.7-2-2.3-4.7-3.2-5.7c-1.9-2-2.9-2.8-5.1-3.8c-4.7-2.1-9.4-3.5-14-6.9c-3.7-2.7-8.1-2-12.1-3.4
						c-4.3-1.6-8.6-3.9-13.1-4.1c-4.8-0.2-9.6-2.1-14.6-2c-1.3,0.1-2.5,0.1-3.7,0.2c-1.2,0.1-2.6,0.3-3.8,0.4
						c-1.3,0.1-2.5,0.3-3.7,0.5l-3.7,0.4l-9,0.8c-3.9,0.4-7.8,1.3-11.6,2.6c-3.8,1.3-7.5,3-11.1,4.6c-6.4,2.9-13.4,3.8-18.2,8.1
						c-2.5,2.3-6.1,4.8-5.1,11.3c0.2,1.6,1.5,3.9,2.7,5.8c-2.1-3.2,5.2,1.5,5.6,1.6c2.5,1,4.5,0.9,6.7,1.3c2.1,0.4,4.3,1,6.3,1.4
						c2,0.4,3.9,0.7,5.5,0.2c3.3-0.9,6.1-2.1,8.8-3.3c2.6-1.1,5.1-2.3,7.7-3.1c4.4-1.4,9.2-2.7,14.5-2.9c1.6-0.1,3.3,0,4.9,0.1
						c0.8,0,1.6,0.1,2.4,0.2L348.4,265.5z"/>
				</g>
			</g>
		</g>
	</g>
	<g>
		<g>
			<g>
				<path d="M273.9,375.5L273.9,375.5C273.9,375.5,273.9,375.4,273.9,375.5z"/>
				<path d="M249.9,377.7l0-0.4C249.9,377.4,249.9,377.6,249.9,377.7z"/>
				<path d="M245.2,413.3l-0.4,0C245,413.4,245.1,413.4,245.2,413.3z"/>
				<g>
					<path d="M263,412.7c0.7-0.1,1.5-0.3,2.1-0.4l1-0.2l0.5-0.1l0.3-0.1c0.4-0.1,0.8-0.2,1.2-0.3c0.2-0.1,0.4-0.1,0.6-0.2
						c0.2-0.1,0.4-0.2,0.7-0.2c0.5-0.1,1-0.3,1.4-0.4l0.7-0.3c-0.1-0.1,0.9-0.1,1.4-0.1l1.2,0c1.5-0.1,2.9-0.1,4.3-0.2l2.1-0.2
						l1-0.1c0.3,0,0.6-0.1,1-0.2c1.3-0.3,2.6-0.6,3.8-0.9l1.8-0.5c0.6-0.2,1.2-0.3,1.7-0.6c2.1-0.9,3.8-2.1,5.4-3.3
						c0.8-0.6,1.6-1.3,2.4-2c0.8-0.7,1.5-1.5,2.3-2.3c1.4-1.7,2.6-3.7,3.5-5.7c0.2-0.5,0.4-0.9,0.6-1.4c0.2-0.5,0.4-1,0.5-1.4
						c0.5-2,0.9-4,1-6c0.1-2.1,0-4.2-0.3-6.4c-1-4.2-2.3-8.4-3.8-12.4c-0.4-1.1-0.8-2.2-1.2-3.4l-0.5-1.7c-0.1-0.3-0.2-0.5-0.2-0.7
						l-0.2-0.6c-0.6-1.6-1.1-3.2-1.6-4.8c-1-3.2-1.7-6.6-2.5-9.9c-1.6-6.3-6.3-11.8-6.9-18.2c-0.2-1.7-0.1-3.5-0.2-5.3
						c0-0.9-3.3-4.3-4.5-4.8c-0.5-0.2-2.1,2.8-2.5,3.6c-1.3,2.7-2.9,6.9-3.2,8.8c-0.6,4-0.8,5.9-0.3,9.6c0.6,3.9,1.2,7.7,1.6,11.5
						c0.3,3.8,0.4,7.7-0.2,11.8c-0.1,0.8-0.2,1.6-0.2,2.4c0,0.4,0,0.8,0,1.2l0,0.6l0,0.3c0,0.9,0.1,1.7,0.3,2.5
						c0.2,0.8,0.4,1.6,0.5,2.4c0.1,0.4,0.1,0.8,0.1,1.1c0,0.3-0.1,0.5-0.2,0.8c-0.3,0.7-0.9,1.2-1.6,1.5c-0.7,0.3-1.5,0.4-2.3,0.3
						c-0.8-0.1-1.4-0.3-1.8-0.3c-0.7,0-1.6-0.6-2.2-1l-0.2-0.2l0,0c0,0,0,0,0.1,0c0.1,0,0.3,0,0.4-0.1c0.1,0,0,0,0,0l-0.1,0l-0.2,0
						l-0.5,0c-1.2-0.1-2.4-0.1-3.6-0.2c-1.2-0.1-2.5,0.1-3.8,0.2c-1.3,0.1-2.5,0.3-3.8,0.5c-4.1,0.9-7.4,2-10,2.6
						c-0.7,0.2-1.2,0.3-1.8,0.4c-0.6,0.1-1,0.2-1.6,0.3l-0.3,0c-0.1,0,0,0-0.1,0c0,0,0,0-0.1,0c-0.2,0-0.3,0-0.5,0
						c-0.7-0.1-1.4-0.4-1.7-0.9c-0.3-0.5-0.6-1-0.8-1.6c-0.2-0.6,0.1-1.1,0.4-1.7l0.4-0.8l0.2-0.4l0.6-1.3c0.5-1.3,1.1-2.5,1.7-3.7
						c0.6-1.2,1.1-2.3,1.7-3.5l0.9-1.7c0.3-0.5,0.5-0.9,0.8-1.4l1.7-2.8c2.3-3.9,4.9-8.5,6.1-14.8c0.6-3.2,1.3-7.4,0.7-11.7
						c-0.6-4.3-2.6-8.6-6.7-11c-2-1.2-5.2-1.1-8.1-0.7c2.3-0.4,1.3,1.5-0.5,3.2c-0.9,0.8-2,1.6-2.9,2.2c-0.9,0.6-1.6,1-1.7,1.1
						c-2.8,2.2-4.3,4.3-6.7,6.1c-4.5,3.4-10.3,5-13.2,9.5c-1,1.6-2,3.3-3,5.2c-0.5,0.9-1,2-1.4,2.9c-0.4,0.8-0.7,1.6-1.1,2.4l-2,4.5
						l-0.5,1.1l-0.1,0.1l0,0.1l-0.1,0.1l-0.3,0.6l-0.6,1.1l-2.3,4.4l-0.7,1.2l-0.3,0.6c-0.1,0.2-0.2,0.4-0.3,0.6l-0.8,2.3l-1.5,4.6
						l-0.4,1.1l-0.2,0.6c0,0.2-0.1,0.4-0.1,0.5c-0.1,0.7-0.2,1.4-0.2,2.2c-0.1,1.5-0.1,3,0,4.5c0.3,4.1,1.5,8.1,3.4,11.8
						c1.9,3.7,4.6,6.9,7.7,9.4c3.2,2.6,6.8,4.5,10.9,5.9l1.6,0.5c0.5,0.2,1.1,0.3,1.6,0.4l3.3,0.8l3.3,0.8c0.5,0.2,1.1,0.2,1.7,0.3
						l1.7,0.2c1.4,0.2,2.7,0.4,4.1,0.6c1.3,0.2,2.9,0.3,4.4,0.4c1.4,0.1,2.3,0,3.4,0l1.6,0l1.5-0.1
						C256.7,413.6,260.2,413.1,263,412.7z"/>
				</g>
			</g>
		</g>
	</g>
	<g>
		<g>
			<g>
				<path d="M331.3,302.2l-0.2,0C331.2,302.2,331.3,302.2,331.3,302.2z"/>
				<path d="M355.8,300.2l0,0.3C355.8,300.4,355.8,300.3,355.8,300.2z"/>
				<path d="M355.1,271.6l0.1-0.1C355.1,271.5,355.1,271.5,355.1,271.6z"/>
				<g>
					<path d="M346.7,271.7c-3.7,0.4-7.4,1.3-11.1,3.3c-1.9,1-3.9,2.1-5.9,3.1c-1,0.5-2,0.9-3,1.3c-1.1,0.3-2.2,0.6-3.3,0.7
						c-4.5,0.4-8.6,0.3-12.7,0.9c-4.2,0.6-8-0.4-11.5-2c-0.4-0.2-0.9-0.3-1.3-0.5c-0.4-0.1-0.9-0.3-1.3-0.4
						c-0.9-0.2-1.9-0.4-2.8-0.7c-1.9-0.5-3.7-1.3-4.9-2.8c-0.6-0.9-1.1-1.8-1.7-2.7c-0.2-0.5-3.2-0.9-4.2-0.8
						c-0.4,0.1-0.7,2.5-0.7,3.2c0,1.1,0,2.5,0.2,3.7c0.2,1.2,0.5,2.4,0.8,3c0.6,1.4,1.2,2.3,1.8,3.2c0.6,0.9,1.3,1.7,2.4,2.5
						c0.6,0.5,1.2,0.9,1.7,1.4c0.6,0.4,1.2,0.8,1.8,1.2c0.6,0.4,1.2,0.8,1.9,1.2l1.9,1.1c2.6,1.6,5.2,3.1,7.9,5
						c1.1,0.7,2.3,1.2,3.5,1.6c1.2,0.3,2.4,0.5,3.7,0.7c2.5,0.2,4.9,0.3,7.3,0.8l7.4,1.8c1.2,0.3,2.2,0.5,3.5,0.6
						c1.2,0.1,2.5,0.2,3.7,0.1c1.3-0.1,2.6-0.1,4,0c1.3,0.1,2.7,0.1,4,0.2c1.4,0.1,2.7,0.1,4.1,0.1c0.7,0,1.4,0,2,0
						c0.7-0.1,1.4-0.2,2-0.3c2.7-0.5,5.3-1,7.9-1.7c2.6-0.7,5.3-1.4,7.9-2c3.1-0.8,6.2-1.5,9.4-2.2c3.9-1.1,7.8-2.3,11.4-4
						c1.8-0.8,3.7-1.6,5.5-2.5c1.8-0.9,3.5-1.8,5.3-2.7c0.8-0.4,1.6-0.7,2.5-1.1l0.3-0.1l0.2-0.1l0.4-0.1c0.3-0.1,0.6-0.2,0.9-0.2
						c1.2-0.3,2.6-0.5,4-0.8c2.7-0.4,5.4-0.9,7.7-2.1c1.2-0.6,2.6-1.1,3.6-2.2c1.1-1.1,1.5-2.6,2.1-5.6c0.3-1.4,0.9-4,1.4-6.2
						c-0.2,0.9-0.4,1.1-0.6,0.9c-0.2-0.2-0.5-0.9-0.9-1.7c-0.8-1.6-2.1-3.5-2.2-3.7c-2-2.1-4.3-2.6-6.5-3.7c-4.4-2-9-4.5-13.3-3.8
						c-2.2,0.4-4.4,0.9-6.5,1.7c-0.5,0.2-1.1,0.4-1.6,0.6c-0.5,0.2-1.1,0.5-1.7,0.7l-0.8,0.4l-0.6,0.3l-1.2,0.5
						c-1.5,0.7-3.1,1.5-4.6,2.3c-1.5,0.7-3.1,1.4-4.6,2c-2.6,1.2-5.3,2.1-7.9,3.2c-1.3,0.6-2.7,0.9-4.1,1.3
						c-1.4,0.4-2.8,0.7-4.1,1.1C353.8,271.3,350.3,271.5,346.7,271.7z"/>
				</g>
			</g>
		</g>
	</g>
	<g>
		<g>
			<g>
				<path d="M233.8,70.1L233.8,70.1C233.8,70.2,233.8,70.2,233.8,70.1z"/>
				<path d="M249.9,70.6l-0.2,0.3C249.8,70.9,249.9,70.8,249.9,70.6z"/>
				<path d="M270.3,41.1l0.2,0.1C270.4,41.1,270.4,41.1,270.3,41.1z"/>
				<g>
					<path d="M254,33.4c-1.1-0.3-2.2-0.5-3.2-0.8c-1.1-0.2-2.3-0.3-3.5-0.4l-1.7-0.1c-0.6,0-1.2,0-1.8,0c-1.2,0-2.4,0.1-3.6,0.2
						c-5,0.5-10,2.1-14.4,4.6c-1.1,0.6-2.2,1.4-3.2,2.2c-0.5,0.4-1,0.8-1.5,1.1l-1.4,1.3l-1.4,1.3c-0.5,0.4-0.9,0.8-1.4,1.4
						c-0.9,1-1.9,2-2.7,3l-0.6,0.8l-0.6,0.8l-1.2,1.6l-1.2,1.5l-0.6,0.7l-0.5,0.8c-1.3,2.1-2.8,4-4.1,6.1l-1.1,1.6
						c-0.3,0.5-0.8,1-1,1.6c-0.6,1.1-1.1,2.2-1.7,3.3l-0.8,1.6l-0.6,1.7l-0.5,1.7l-0.3,1.7c-0.7,4.7,0.4,9.7,2.9,13.7
						c2.5,4.1,5.7,7.5,9.3,10.3c1.8,1.4,3.8,2.6,5.9,3.6c1,0.5,2.1,0.9,3.2,1.4c1.1,0.3,2.2,0.7,3.4,0.9l1,0.2
						c0.4,0,0.7,0.1,1.1,0.1c0.7,0,1.5,0.1,2.2,0.1c1.4,0.1,3.2-0.1,4.8-0.2c0.9-0.1,1.6-0.1,2.3-0.2l2.2-0.3
						c1.4-0.2,2.8-0.3,4.2-0.6c0.8-0.2,1.6-0.4,2.4-0.6l0.3-0.1c0.1-0.1,0.2-0.1,0.3-0.1l0.6-0.2c0.4-0.1,0.8-0.4,1.1-0.5
						c1.4-0.8,2.6-1.9,4.1-2.8l0.2-0.1l-0.1,0.1l-0.2,0.1l-0.2,0.1l0,0l0,0h0c0.3-0.1-0.7,0.3,0.7-0.3l0,0l0,0l0,0l0.1,0l0.2,0
						l0.3-0.1l0.1,0l0,0l0,0l0.1,0c0.2-0.1,0.5-0.3,0.7-0.4c0.9-0.5,1.9-1.3,2.5-1.9c0.7-0.7,1.3-1.4,1.8-2.3
						c0.3-0.4,0.5-0.9,0.7-1.4c0.2-0.4,0.3-0.9,0.5-1.3c0.5-1.8,0.6-3.3,0.5-4.6c0-0.4-0.1-0.7-0.2-1.2c-0.1-0.2-0.2-0.5-0.3-0.8
						c-0.1-0.2-0.2-0.5-0.4-0.8c-0.5-1.1-1.2-2-2-2.7c-1.5-1.5-2.9-2.2-3.6-2.3c-0.3,0-0.6,0.8-0.8,1.8c-0.2,1-0.4,2.2-0.5,2.7
						c-0.1,0.8-0.3,1.8-0.6,2.7c-0.3,0.9-0.6,1.9-1.2,2.6c-0.6,0.7-1.3,0.9-1.8,0.8c-0.3-0.1-0.3-0.2-0.7-0.2c-0.2,0-0.3,0-0.5,0h0
						h0h0h0c0.1,0-0.2,0.1,0.2-0.1l0,0l-0.1,0l-0.1,0c-0.1,0-0.2,0-0.3,0c-0.3,0.1-0.6,0.1-0.9,0.2c-0.2,0-0.3,0.1-0.5,0.1
						c-0.3,0.1-0.6,0.1-0.9,0.2c-0.5,0.2-0.9,0.3-1.4,0.4c-0.2,0.1-0.5,0.1-0.7,0.1c-0.3,0-0.5-0.1-0.8-0.1
						c-0.6-0.1-1.1-0.3-1.7-0.4c-0.2-0.1-0.5-0.1-0.9-0.2c-0.7-0.2-1.4-0.3-2.2-0.5l-1.1-0.2l-0.9-0.2l-0.8-0.2l-0.9-0.2
						c-0.6-0.2-1.2-0.3-1.7-0.6c-2.2-0.9-3.7-3-3.5-5.5c0.1-2-0.3-3.1-0.7-4.3c-0.2-0.6-0.3-1.2-0.3-1.9c0.1-0.6,0.3-1.3,0.9-1.8
						c0.6-0.6,1.5-1,2.2-1.3c0.7-0.3,1.5-0.5,2.1-0.7c1.3-0.3,2.1-0.3,2.6-0.7L234,70c0,0,0.2-0.1,0.2-0.1l0.5-0.2
						c0.2-0.1,0.4-0.2,0.6-0.2l0.6-0.1c0.4-0.1,0.7-0.2,1.1-0.1l0.6,0c0.2,0,0.4,0,0.6,0c1.5,0.1,3,0.6,5,0.7c0.9,0,2.1,0.2,3.2,0.3
						c1.2,0.3,2.3,0.4,3.6,0.8c0.6,0.2,1.3,0.3,1.9,0.5l2,0.7c1.3,0.5,2.5,1.1,3.7,1.7c2.7,1.5,4.7,3.2,6,5c0.8,1.1,1.5,2.1,2.1,3.1
						c0.6,1,1,2,1.5,3.2c0.2,0.6,0.4,1.2,0.5,1.9c0.1,0.3,0.1,0.7,0.2,1.1c0.1,0.4,0.1,0.8,0.1,0.9c0.2,0.9,0,1.6-0.2,2.6
						c-0.2,0.9-0.9,1.9-1.9,3.1c-0.9,1.1-2.3,2.7-3.6,4c-2.5,2.7-4.9,4.7-6.3,7.1c-0.8,1.3-1.8,2.4-2.4,4.1c-0.6,1.7-1,4.1-1.1,8.1
						c0,1.9,0.7,5.1,1.7,7.8c-0.7-2.3,0.7-1.4,2.7-0.2c2,1.3,4.5,2.8,4.8,2.9c3.6,1.2,6.9,0.5,10.5,0c3.5-0.5,7.1-1.1,10.4-2.2
						c3.4-1.1,6.5-2.8,8.8-5.2c0.6-0.6,1.2-1.3,1.7-2c0.5-0.7,1.1-1.3,1.6-2c0.5-0.7,1-1.4,1.5-2.1c0.5-0.7,1-1.5,1.4-2.2
						c1.9-3.1,3.8-6.8,5.1-11.2c0.3-1.1,0.6-2.2,0.9-3.4c0.2-1.2,0.4-2.4,0.6-3.6c0.2-2.4,0.4-4.9,0.2-7.3l-0.1-1.8l-0.2-1.6
						c-0.1-1-0.3-2.1-0.4-3.1c-0.4-2.1-0.8-4.2-1.5-6.3c-0.5-1.8-1.2-3.6-1.9-5.3c-0.8-1.7-1.6-3.5-2.6-5.1c-1.9-3.3-4.2-6.4-6.7-9
						c-5-5.4-10.7-9.3-16-12.5c-1.6-1-3.2-1.9-4.8-2.7c-1.6-0.8-3.2-1.7-4.9-2.5l-2.6-1.2c-0.9-0.4-1.7-0.8-2.7-1.1
						C257.9,34.7,256.1,33.9,254,33.4z"/>
				</g>
			</g>
		</g>
	</g>
</g>
<g id="brushes" class="st0">
	<g class="st1">
		<g>
			<rect x="300.4" y="7.8" class="st2" width="101.2" height="8.4"/>
			<g>
				<path class="st3" d="M387.9,10.4c0,0,0-0.1,0-0.1C387.9,10.4,387.9,10.4,387.9,10.4z"/>
				<path class="st3" d="M379.9,9.6L379.9,9.6C380,9.6,380,9.6,379.9,9.6z"/>
				<path class="st3" d="M392.7,10.8C392.7,10.8,392.7,10.8,392.7,10.8c0.1,0,0.2,0,0.3,0.1L392.7,10.8z"/>
				<path class="st3" d="M362.9,8.7l0.1,0C363,8.7,363,8.6,362.9,8.7z"/>
				<path class="st3" d="M373,9.3c0,0.1-0.1,0.1-0.1,0.1C372.9,9.4,373,9.4,373,9.3z"/>
				<path class="st3" d="M395.2,13.6l-0.1-0.2C395.1,13.5,395.1,13.6,395.2,13.6z"/>
				<path class="st3" d="M400.1,12.9C400.1,12.8,400.1,12.8,400.1,12.9C400,12.8,400.1,12.8,400.1,12.9z"/>
				<path class="st3" d="M398.2,12.1c0,0-0.1,0.1-0.1,0.1C398.1,12.2,398.2,12.2,398.2,12.1z"/>
				<path class="st3" d="M398,12.2C398,12.2,398,12.2,398,12.2C398,12.2,398,12.2,398,12.2z"/>
				<path class="st3" d="M301.2,9.6c-0.1,0-0.3,0.1-0.4,0.3L301.2,9.6z"/>
				<path class="st3" d="M347.5,8.5L347.5,8.5C347.5,8.5,347.5,8.5,347.5,8.5z"/>
				<path class="st3" d="M301,11.3L301,11.3C300.9,11.2,301,11.3,301,11.3z"/>
				<path class="st3" d="M392.7,14.1c-0.1,0.2-0.4,0-0.4,0.1C392.4,14.3,392.6,14.4,392.7,14.1z"/>
				<path class="st3" d="M344.3,15.6L344.3,15.6C344.2,15.6,344.3,15.6,344.3,15.6z"/>
				<path class="st3" d="M301,11.3l0.1,0C301.1,11.3,301.1,11.2,301,11.3C301.1,11.2,301,11.3,301,11.3z"/>
				<path class="st3" d="M331.5,8.5C331.5,8.5,331.5,8.5,331.5,8.5C331.5,8.5,331.5,8.4,331.5,8.5L331.5,8.5z"/>
				<path class="st3" d="M330.7,8.2c0.1,0,0.1,0,0.2-0.1C330.7,8.1,330.7,8.1,330.7,8.2z"/>
				<path class="st3" d="M300.8,9.9l-0.2,0.1C300.6,10,300.7,9.9,300.8,9.9z"/>
				<path class="st3" d="M321.5,8.4C321.5,8.4,321.6,8.4,321.5,8.4C321.5,8.4,321.5,8.4,321.5,8.4z"/>
				<path class="st3" d="M373.7,9.4C373.7,9.4,373.7,9.4,373.7,9.4C373.7,9.4,373.7,9.4,373.7,9.4z"/>
				<polygon class="st3" points="367.3,14.4 367.3,14.4 367.3,14.4 				"/>
				<path class="st3" d="M367.7,14.1c-0.1,0-0.3,0.1-0.3,0.2C367.4,14.4,367.5,14.3,367.7,14.1z"/>
				<path class="st3" d="M366.6,14.3C366.6,14.3,366.6,14.3,366.6,14.3C366.6,14.3,366.6,14.3,366.6,14.3z"/>
				<path class="st3" d="M373.4,14.6C373.4,14.6,373.4,14.6,373.4,14.6C373.4,14.6,373.4,14.6,373.4,14.6L373.4,14.6z"/>
				<path class="st3" d="M372.1,14.7C372,14.6,372,14.6,372.1,14.7C372,14.6,372,14.7,372.1,14.7z"/>
				<polygon class="st3" points="363.2,14.8 363.3,14.8 363.2,14.8 				"/>
				<path class="st3" d="M350.6,16c0.3,0,0.5,0.1,0.6,0.1c1.1,0,2.2-0.4,3.2-0.6c1.5-0.3,2.8,0.9,4.4,0.5c1.1-0.3,1.5-1.2,2.5-1.5
					c1-0.3,1.9,0.3,2.9,0.2c1,0,1.9-1,2.9-0.9c-0.1,0.2,0,0.5-0.1,0.7c0.5-0.3,1-0.7,1.6-0.5c0.4,0.2,0.5,0.9,1,0.3
					c0.6,0.3,1.1,0.9,1.9,0.7c0.1-1.1,1.6-0.6,2.2-0.7c0.5,0,1-0.4,1.6-0.4c0.7,0,1.1,0.1,1.8-0.1c0.9-0.2,1.4-0.2,2.2,0.1
					c0.9,0.3,1,0.5,1.8,0c0.8-0.4,0.6-0.3,1.5-0.3c1.1,0.1,2.2,0,3.4-0.1c0.7,0,1.5,0.1,2.2,0c1.6-0.1,2.7-0.8,4,0.4
					c0.8-1,3.2-0.9,4.3-0.7c1.1,0.2,3.4,1.1,4.3,0c-0.1-0.1-1.2-0.8-1.1-1c0,0.1-0.1,0.2-0.1,0.3c0-0.3-0.1-0.3,0-0.7
					c-0.4,0.1-0.8,0.2-1.2,0.4c-0.2-0.2-0.1-0.2-0.5-0.3c0-0.1,0-0.3,0.1-0.5c-0.1,0.1-0.2,0.2-0.3,0.2c0-0.1-0.1-0.2-0.2-0.3
					c0,0-0.5,0-0.5,0c0-0.1-0.1-0.2-0.1-0.3c-0.1,0.3-0.6,0.5-0.8,0.1c-0.4,0.1-0.8,0.2-1.1,0.2c0-0.2-0.2-0.3-0.2-0.5
					c-0.1,0.1-0.4,0.1-0.5,0.2c0-0.2-0.1-0.3,0-0.5c-0.1,0.1-0.3,0.1-0.4,0.2c-0.1-0.1-0.3-0.2-0.3-0.3c0,0.1-0.1,0.2-0.1,0.2
					c-0.1,0-0.1-0.2-0.2-0.1c-0.4,0.4-0.6-0.2-1.1-0.1c0,0.1,0,0.2,0,0.2c0,0-0.1,0-0.1,0c0-0.1-0.1-0.2-0.2-0.3c0,0.1,0,0.1,0,0.2
					c-0.4-0.1-0.8,0-1.2,0c0-0.1,0.1-0.2,0.1-0.2c-0.4,0-0.8,0.1-1.2,0.2c-0.2-0.7-1.4-0.4-2-0.4c0,0.1,0,0.1,0,0.2
					c-0.4-0.2-0.9,0-1.2-0.1c0-0.1,0-0.2,0-0.3c-0.2-0.1-0.6-0.1-0.8,0c0,0.1,0,0.1,0.1,0.2c-0.1,0.1-0.3,0.1-0.4,0.1
					c0-0.1,0.1-0.1,0-0.2c-0.1-0.1-0.3,0-0.4-0.1c0,0,0.1-0.1,0.1-0.1c-0.1,0.1-0.2,0.1-0.2,0.2c-0.1-0.1-0.3-0.1-0.5-0.2
					c0.2,0.3,0,0,0,0.3c-0.3-0.2-0.7,0-0.9-0.4c-0.3,0.1-0.6,0-0.7,0c0,0-0.1,0.1-0.2,0.1c0-0.1-0.2-0.2-0.3-0.3
					c0,0,0.1,0.1,0.1,0.1c-0.1,0-0.4,0-0.4,0.1c-0.2-0.4-1.6-0.5-2-0.5c0-0.1,0-0.1,0-0.2c0,0.1-0.1,0.2-0.2,0.3
					c-0.1-0.1-0.1-0.1-0.1-0.2c-0.2,0-0.6-0.3-0.9-0.4c0.2,1-2.1,0.2-2.6,0.2c0,0,0-0.2-0.1-0.2c-0.1,0.1-0.2,0.2-0.3,0.3
					c0-0.1,0-0.2,0-0.3c-0.2,0.3-0.4,0.3-0.7,0.3c0,0,0.2-0.1,0.2-0.1c-0.7,0.2-1.6,0.4-2.3,0.2c0-0.1,0.1-0.1,0.1-0.2
					c-0.1,0-0.2,0-0.3,0c0-0.1,0-0.1,0-0.2c-0.2,0-0.5-0.1-0.7-0.1c0,0.1-0.1,0.1-0.1,0.2c-0.3-0.1-0.6-0.1-1,0c0,0,0.1-0.1,0.1-0.1
					c-0.1,0-0.3,0.1-0.4,0.2c0,0,0-0.1,0-0.1c-0.6,0.2-0.9,0-1.6,0c0,0.1,0.1,0.1,0.1,0.2c-0.3,0-0.3,0-0.4-0.2c0,0-0.2,0-0.2,0
					c0-0.1,0.1-0.1,0.1-0.2c-0.4,0.7-2.1,0-2.6-0.4c-1,0.6-2.6-0.2-3.6-0.2c-0.5,0-0.9,0.3-1.4,0.3c-0.7,0-1.2,0-1.9,0
					c-1.1,0.1-2.2,0.3-3.3,0c-0.4-0.1-0.8-0.4-1.1-0.5c-0.2,0-0.6,0.2-0.8,0.2c-0.3,0-0.6-0.1-0.9-0.2c-0.8-0.1-1.5,0.2-2.3,0.3
					c-0.9,0.2-1.4-0.2-2.1-0.2c0,0.1,0,0.1,0.1,0.2c-0.3-0.1-0.7-0.1-0.9,0.1c0-0.1-0.1-0.2-0.2-0.3c-0.2,0.1-0.4,0.2-0.6,0.4
					c-0.3-0.3-0.8-0.3-1.2-0.3c0,0.4,0,0.2-0.3,0.4c0-0.2-0.1-0.3-0.2-0.5c0,0.4-0.2,0.5-0.6,0.4c-0.1-0.4-0.8-0.5-1,0
					c0-0.1-0.1-0.2-0.1-0.3c-0.5,0-1.5,0.2-1.9-0.2c-0.1,0.2-0.2,0.3-0.3,0.4c0-0.1-0.2-0.3-0.2-0.4c0,0.2-0.1,0.3-0.2,0.4
					c-1.2-0.3-2.4-0.4-3.7-0.5c-1.1-0.1-2,0.3-3,0c0.1,0.1,0.3,0.2,0.4,0.2c-0.5,0.3-1-0.1-1.5-0.1c-0.5-0.1-1.1,0.1-1.6,0.1
					c-1-0.1-1.2-0.1-2.3,0.3c-0.3-0.2-0.2-0.3-0.5,0c-0.1-0.1-0.3-0.2-0.4-0.3c-0.1,0.1-0.2,0.1-0.3,0.2c-0.5-0.7-2.3-0.5-3.1-0.5
					c-0.6,0-2.4,0.5-2.7,0.1c-0.4,0.4-1.9,0.5-2,0C320,8.3,319.2,8,318.7,8c-3.3-0.2-6.7-0.3-10-0.1c-2.4,0.1-5.6,0.2-7.5,1.7
					c-0.1,0.2-0.5,0.4-0.3,0.7c-0.3,0.1-0.4-0.3-0.4-0.1c0.4,0.2-0.1,0.6,0.2,1l-0.2,0.1c0,0.2,0.3-0.2,0.2,0.1l0.1-0.5
					c0.2,0.1,0.3,0.2,0.3,0.3c0.2-0.2,0.3-0.8,0.7-0.5l-0.1,0c0.3,0,0.2,0.3,0.3,0.4l-0.1,0l0.3,0.2c-0.2-0.2-0.6,0.2-0.4,0.2
					c0.4,0.1-0.1-0.1,0.2-0.2c0.2,0,0.1,0.2,0.1,0.4l0.3,0c0,0.2-0.2,0-0.1,0.2l0.4-0.2c0.1,0.5,0.4-0.3,0.6,0.3
					c-0.3,0.1,0,0.2,0,0.4l0.7,0c0.1,0.1-0.2,0.2-0.1,0.1c0.1,0.2,0.2-0.1,0.3-0.1c0.1,0.1,0.5,0,0.5,0.4c0.5,0.2,0.2-0.5,0.7-0.3
					c0.1,0.2-0.4,0.1-0.2,0.3l0.5-0.1c0,0.1-0.1,0.4-0.3,0.3c1.3,0.3,2,1.5,3.2,1.2c0.2,0.3-0.1,0.2-0.2,0.4
					c0.3-0.5,1.6,0.5,1.9,0.5c0-0.1,0-0.1,0.1-0.2c1,0.6,2.2,0.3,3.3,0.5c0-0.1-0.1-0.1-0.1-0.2c0.1-0.1,0.4-0.3,0.6-0.3
					c0,0.2,0.1,0.3,0.2,0.4c0-0.1-0.1-0.1-0.1-0.2c0.2,0.8,4.5,0.6,5.2,0.7c2,0.1,4.1,0.4,6.1,0.1c0-0.2,0-0.2,0.1-0.4
					c1.1,0.9,4.2,0.6,5.4,0.3c0.4-0.1,1.4,0.5,1.7-0.1c1,0.1,2,0,3,0c0.9,0,3.5,0.8,4-0.1c0.3,0.2,0.6,0.2,0.9,0.2
					c-0.1,0-0.2,0-0.2-0.1c0,0,0-0.2,0-0.2c0.1-0.1,0.3-0.1,0.5-0.1c0.3,1.2,2.2-0.2,3,0.5c0-0.3,0.2-0.4,0.4-0.6
					c0.2,1.4,2.8-0.2,3.1,0.5c0.3-0.1,0.2,0,0.5,0c-0.1,0.1-0.2,0.2-0.3,0.2c0.3-0.2,0.6-0.3,0.9-0.1c0-0.1,0-0.1,0-0.2
					C348.5,15.6,349.8,15.9,350.6,16z"/>
				<path class="st3" d="M373.6,14.7l-0.2,0c0,0.1,0,0.1-0.1,0.2L373.6,14.7z"/>
				<path class="st3" d="M365.3,14.5C365.3,14.5,365.3,14.5,365.3,14.5C365.3,14.6,365.3,14.5,365.3,14.5z"/>
				<path class="st3" d="M363.3,15c0.1-0.1,0-0.1-0.1-0.2C363.2,14.9,363.2,14.9,363.3,15z"/>
				<path class="st3" d="M378.3,13.9c0,0,0,0.1,0,0.1C378.3,14,378.3,14,378.3,13.9z"/>
				<path class="st3" d="M391.2,14.1C391.2,14.1,391.2,14.1,391.2,14.1C391.2,14.1,391.2,14.1,391.2,14.1z"/>
				<path class="st3" d="M390.5,13.7c0,0-0.1,0-0.1,0C390.4,13.7,390.5,13.7,390.5,13.7z"/>
				<path class="st3" d="M375.1,14c0,0-0.1,0-0.1,0.1C375.1,14.1,375.1,14.1,375.1,14z"/>
				<path class="st3" d="M390.2,13.8l-0.2,0c0,0,0,0,0,0.1L390.2,13.8z"/>
				<path class="st3" d="M391.4,14.2c-0.1,0-0.2,0-0.2,0C391.3,14.2,391.4,14.2,391.4,14.2z"/>
				<path class="st3" d="M383,13.6C383,13.6,383,13.6,383,13.6C382.9,13.7,383,13.6,383,13.6z"/>
				<path class="st3" d="M389.4,14.3C389.4,14.3,389.4,14.3,389.4,14.3L389.4,14.3L389.4,14.3z"/>
				<path class="st3" d="M392.2,14.3C392.2,14.3,392.2,14.3,392.2,14.3C392.2,14.3,392.2,14.4,392.2,14.3
					C392.2,14.3,392.2,14.3,392.2,14.3z"/>
				<path class="st3" d="M385.7,14c0.1-0.1,0.1-0.2,0.1-0.2C385.7,13.8,385.7,13.8,385.7,14z"/>
			</g>
		</g>
	</g>
</g>
</svg>
