<?xml version="1.0" encoding="utf-8"?>
<!-- Generator: Adobe Illustrator 21.0.0, SVG Export Plug-In . SVG Version: 6.00 Build 0)  -->
<svg version="1.1" id="Layer_1" xmlns="http://www.w3.org/2000/svg" xmlns:xlink="http://www.w3.org/1999/xlink" x="0px" y="0px"
	 viewBox="0 0 462 462" style="enable-background:new 0 0 462 462;" xml:space="preserve">
<path d="M231,0.3c-17.8,0-35.6,3.5-52.1,10.4c-16.5,6.8-31.5,16.9-44.1,29.5c-12.6,12.6-22.6,27.7-29.5,44.2
	C98.5,100.8,95,118.5,95,136.4c0,17.8,3.5,35.6,10.4,52c6.8,16.5,16.9,31.5,29.5,44.1c12.6,12.6,27.6,22.6,44.1,29.5l0.2,0.1
	c10,4.1,20.5,7,31.2,8.7l0.1,18.9l0.3,49.2H141v40h70.1l0.4,62.9l0.1,20l40-0.2l-0.1-20l-0.4-62.6H321v-40h-70.2l-0.3-49.4
	l-0.1-18.5c11.2-1.6,22.2-4.6,32.6-8.9c16.5-6.8,31.5-16.9,44.1-29.5c12.6-12.6,22.6-27.6,29.5-44.1c6.8-16.5,10.4-34.2,10.4-52
	c0-17.8-3.5-35.6-10.3-52.1c-6.8-16.5-16.9-31.5-29.5-44.2c-12.6-12.6-27.6-22.6-44.1-29.5C266.6,3.9,248.8,0.3,231,0.3L231,0.3z
	 M231,40.3c12.5,0,25.2,2.5,36.8,7.3s22.3,11.9,31.2,20.8c8.9,8.9,16,19.6,20.8,31.2c4.8,11.6,7.3,24.2,7.3,36.8
	c0,12.5-2.5,25.2-7.3,36.8c-4.8,11.6-12,22.3-20.8,31.1c-8.9,8.9-19.6,16-31.2,20.8c-11.6,4.8-24.2,7.3-36.7,7.3
	c-12.5,0-25.1-2.5-36.7-7.3c-11.6-4.8-22.3-12-31.2-20.8c-8.9-8.9-16-19.6-20.8-31.1c-4.8-11.6-7.3-24.2-7.3-36.8
	c0-12.5,2.5-25.2,7.3-36.8c4.8-11.6,11.9-22.3,20.8-31.2c8.9-8.9,19.6-16,31.2-20.8C205.8,42.8,218.5,40.3,231,40.3L231,40.3z"/>
</svg>
