<?xml version="1.0" encoding="utf-8"?>
<!-- Generator: Adobe Illustrator 19.2.1, SVG Export Plug-In . SVG Version: 6.00 Build 0)  -->
<svg version="1.1" xmlns="http://www.w3.org/2000/svg" xmlns:xlink="http://www.w3.org/1999/xlink" x="0px" y="0px"
	 viewBox="0 0 500 500" style="enable-background:new 0 0 500 500;" xml:space="preserve">
<style type="text/css">
	.st0{fill:#231F20;}
	.st1{display:none;}
	.st2{display:inline;}
</style>
<g id="Layer_1">
	<g>
		<g>
			<g>
				<g>
					<g>
						<g>
							<path class="st0" d="M149.5,402.3c-0.1,0.2-0.2,0.4-0.2,0.6C149.4,402.7,149.5,402.5,149.5,402.3z"/>
							<path class="st0" d="M220.5,420.7l-1,0.1C220.2,420.9,220.4,420.8,220.5,420.7z"/>
							<path class="st0" d="M105.5,399c0.1,0,0.1-0.1,0.1-0.2c-0.7,0-1.6,0-3.1,0.1c0,0,0.8,0,1.5,0C104.8,399,105.5,399,105.5,399z
								"/>
							<path class="st0" d="M382.2,411.6l-1,0C381.6,411.7,381.9,411.7,382.2,411.6z"/>
							<path class="st0" d="M290.6,419.3c0.2-0.3,0.7-0.5,1.2-0.7C291.1,418.7,290.7,418.9,290.6,419.3z"/>
							<path class="st0" d="M80.5,387.3l1.4,0.8C81.8,387.7,81.3,387.3,80.5,387.3z"/>
							<path class="st0" d="M35.8,399.4c0.1,0.1,0.1,0.1,0.2,0.2C36,399.5,35.9,399.5,35.8,399.4z"/>
							<path class="st0" d="M54.1,399.5c0.4-0.2,0.8-0.4,1.2-0.7C54.7,399,54,399.2,54.1,399.5z"/>
							<path class="st0" d="M55.8,398.5c-0.2,0.1-0.4,0.2-0.6,0.4C55.6,398.8,55.8,398.7,55.8,398.5z"/>
							<path class="st0" d="M277.9,83.4c-1.3,0.4-2.2,1.4-3.2,2.3L277.9,83.4z"/>
							<path class="st0" d="M488.6,349.7l0.4,0.3C488.9,349.7,488.8,349.7,488.6,349.7z"/>
							<path class="st0" d="M278.6,91.8l-1,0.1C278,91.9,278.3,91.9,278.6,91.8z"/>
							<path class="st0" d="M105,382.4c1.3-1,4.2,0,4.1-0.9C107.7,381.6,105.6,381.1,105,382.4z"/>
							<path class="st0" d="M451.8,320.9l-0.1-0.9C451.7,320.4,451.7,320.7,451.8,320.9z"/>
							<path class="st0" d="M278.6,91.8l1.1-0.1c-0.1-0.1-0.3-0.2-0.4-0.4C279.1,91.5,278.9,91.7,278.6,91.8z"/>
							<path class="st0" d="M486.6,200C486.6,200,486.6,200,486.6,200c0.1,0.2,0.1,0.2,0.2,0.3L486.6,200z"/>
							<path class="st0" d="M488.3,192.2c0.1,0.6,0.2,1.1,0.3,1.7C488.7,193,488.6,192.5,488.3,192.2z"/>
							<path class="st0" d="M274.6,85.7l-1.8,1.3C273.5,86.7,274.1,86.2,274.6,85.7z"/>
							<path class="st0" d="M480.9,97.7c0.2,0.4,0.5,0.8,0.7,1.2C481.4,98.3,481.1,97.9,480.9,97.7z"/>
							<path class="st0" d="M284.6,420c-0.2-0.1-0.5,0-0.7-0.1C283.8,420.1,283.9,420.3,284.6,420z"/>
							<path class="st0" d="M339.5,385.7L339.5,385.7L339.5,385.7C339.5,385.7,339.5,385.7,339.5,385.7z"/>
							<path class="st0" d="M336.4,387.3c1,0.1,2.4-0.8,3.1-1.6C338.5,385.8,337.5,386.1,336.4,387.3z"/>
							<path class="st0" d="M346.5,385.4c-0.1,0-0.2,0-0.4-0.1C346.3,385.4,346.4,385.4,346.5,385.4z"/>
							<path class="st0" d="M281.8,393.8C281.8,393.8,281.8,393.8,281.8,393.8C281.8,393.8,281.8,393.8,281.8,393.8L281.8,393.8z"/>
							<path class="st0" d="M294.4,391.2c0.3,0.1,0.6,0.2,0.9,0.2C295.1,391.3,294.7,391.2,294.4,391.2z"/>
							<path class="st0" d="M379,381C379,381,379,381,379,381C379,381,379,381,379,381C379,381,379,381,379,381z"/>
							<path class="st0" d="M451.7,378.5c-0.3,2.6-0.6,4.6-0.6,5.2c-0.1,1.9-0.1,3.7-0.1,5.6l0,1.6c0,0.5,0,1,0.1,1.5
								c0,0.5,0,0.7,0.1,1l0.1,0.9c0.1,1,0.3,2,0.4,2.6c0.1,0.4,0.1,0.6,0.2,0.9l0.1,0.3l0,0.1c0,0,0,0,0,0.1c0,0,0.1,0.1,0.1,0.1
								l0,0l0,0l0,0l0,0l0.1,0c0.5,0.1,1,0.1,1.5,0.2l2.5,0.4c0.4,0.1,0.7,0.1,1.1,0.2c0.4,0.1,0.8,0.2,1,0.2
								c0.5,0.1,1.1,0.3,1.6,0.4c0.3,0.1,0.5,0.2,0.7,0.2c0.2,0.1,0.4,0.1,0.6,0.2l0.9,0.4c0.2,0.1,0.5,0.3,0.7,0.4
								c0.6,0.4,0.5,0.4,0.2,0l1.9-2.2c-0.1-0.2-0.2-0.5-0.3-1.4l-0.1-0.7c0-0.3-0.1-0.6-0.1-0.9l-0.1-1.2l0-1.5c0-0.7,0-1.3,0-2
								l0-0.5l0-0.3l0,0l0,0c0,0,0,0-0.1,0l-0.1,0c-0.1,0-0.3,0-0.4,0.1c-0.2,0-0.4,0-0.7,0c-0.6,0-1.5,0-2.5-0.1l-0.3,0
								c-0.1,0-0.2,0-0.3,0c-0.4-0.1-0.9-0.3-1.3-0.4c-0.7-0.2-1.4-0.5-2.2-0.7c-1.4-0.5-2.8-1.1-4.3-1.7c-2.8-1.2-5.7-2.4-8.5-3.6
								c-5.8-2.4-11.9-4.6-19-5.1l-0.3,0l-0.5-0.1c-0.3,0-0.6-0.1-0.9-0.1c-0.6-0.1-1.2,0-1.8-0.1c-0.8,0-0.9,0-1.2,0.1
								c-0.3,0-0.6,0.1-0.9,0.1c-1.1,0.2-2.2,0.4-3.2,0.6c-2,0.5-3.8,1.1-5.6,1.7c-3.5,1.2-7,2.5-11.8,2.7c-2.3,0.1-4.6,0-6.8-0.3
								c-1.1-0.1-2.3-0.3-3.4-0.5l-1.7-0.3c-0.6-0.1-1-0.2-2-0.4c-0.9-0.2-1.9-0.2-2.6-0.2l-1.8-0.2l-3.6-0.3
								c-2.4-0.2-4.8-0.2-7.1-0.1c-5.1,0.3-9.5,1.8-13.9,3.3c-4.4,1.5-8.6,3-13.5,3.3c0.6-1.1,0.2-2.4,1-3.6c-2.3,1-4.6,2.1-7,3
								c-2.4,0.9-5,1.5-8,1.3c-4-0.2-5.5-3.6-9.6-0.2c-5.7-0.8-11.4-2.7-18.1-0.6c0.1,5.5-14,5.8-20.2,7.3c-2.5,0.6-4.8,1.5-7,2.4
								c-1.1,0.4-2.2,0.9-3.3,1.3c-1.1,0.4-2.4,0.8-3.5,0.9c-0.7,0.1-1.5,0.2-2.2,0.3c-0.7,0.1-1.4,0.2-2.1,0.2
								c-1.3,0.1-2.5,0.3-3.7,0.4c-2.4,0.2-4.8,0.5-8,1.2c-3.7,0.7-6.6,0.9-9.5,0.7c-1.4-0.1-2.8-0.4-4.3-0.8
								c-0.7-0.2-1.5-0.4-2.2-0.7c-0.7-0.3-1.4-0.5-2.2-0.9c-1.6-0.8-3-1.5-4.1-2c-1.2-0.6-2.2-1.1-3.3-1.4
								c-2.1-0.7-4.3-0.9-8.1-0.9c-3.7,0.1-5.2,0-6.8-0.3c-1.6-0.4-3.1-1-7-2.3c-5.2-1.7-10.7-3-16.4-3.9l-8.1-1l-8.1-0.9
								c-7.1-0.8-14.2-2.1-21.2-2.3c-7.5-0.2-14,0.4-20,0.2c-1.5,0-3-0.1-4.5-0.3c-1.4-0.2-3.1-0.4-4.6-0.8
								c-1.6-0.3-3.1-0.6-4.8-1.1c-1.7-0.5-3.2-1.1-4.9-1.8c-3.8,2.6-11.4,4.1-19.3,5.3c-8,1.1-16.4,2-22,2.4
								c-5.4,0.4-13.7,0.5-21.5,1.5c-7.8,1-15.1,2.8-18.6,6.5c1.2,0.2,12.1,1.4,11.2,2.6c0.3-0.5,0.7-1.3,0.8-1.7
								c0.6,1.6,1.3,1.5,0.4,3.5c3.5-1.2,7-2.6,10.3-4c2.4,0.6,0.9,0.8,5,0.4c-0.3,0.7,0.1,1.6-0.4,2.4c0.7-0.7,1.4-1.1,2.7-1.4
								c0.5,0.4,1.3,0.6,1.8,1.1c0.1,0,1.4-0.3,2.6-0.5c0.6-0.1,1.2-0.2,1.6-0.3c0.2,0,0.4-0.1,0.5-0.1c0.1,0,0.2,0,0.2-0.1
								c0.2,0.4,1,0.9,1.2,1.3c0.8-1.9,4.8-3.3,7.4-1.9c3.4-1.1,6.8-2.1,10.4-2.7c0.5,1,1.8,1.4,1.8,2.4c1.1-0.7,3.3-1,4.4-1.7
								c0,1.2,1.1,1.2-0.1,2.7c1-0.6,2.4-0.8,3.5-1.4c0.8,0.4,2.5,0.8,3.2,1.4c0.2-0.4,0.4-0.8,0.6-1.2c0.7-0.1,0.9,0.7,1.6,0.4
								c1.9-1.1,3.3-1,4.7-0.6c1.4,0.4,2.9,0.8,5.2,0.3c0.3-0.4,0.1-0.8,0.3-1.2c0.4,0,0.8-0.1,1.2-0.1c0.3,0.6,1.3,1.1,1.7,1.7
								c0-0.3,0.1-0.6,0.4-0.8c1.8,0.2,3.5,0.2,5.3,0.1c1.7-0.1,3.4-0.1,5.2,0.1c-0.3,0.4-0.5,0.8-0.7,1.2c3.7,0.2,7.4-0.1,10.9-0.5
								c1.9,3.6,13.1,3,18.6,3.5c0.1-0.3,0.2-0.5,0.3-0.8c3.9,1.2,8.3,0.6,11.5,1.8c-0.2,0.4-0.3,0.9-0.1,1.3c2,0.5,5,1.1,7.1,1.1
								c-0.2-0.3-0.3-0.6-0.5-0.9c1.3-0.2,2.6,0.1,3.8,0c0.3,0.4-0.7,0.3-0.3,0.8c0.7,0.5,2.6,0.6,3.5,1.1c0.2,0.1-1.2,0.4-1.2,0.3
								c1-0.2,1.6-0.2,2.2-0.7c0.5,0.3,1.3,0.5,2,0.7c0.7,0.2,1.5,0.5,2,0.8c-1.2-1.5,0.1-0.1,0.7-1.7c2.1,1.4,6.4,1.1,7.3,3.5
								c2.3,0.2,5,1.2,6.4,1.7c0.3,0.1,1.4-0.2,1.7-0.2c0.3,0.5,1.3,1.4,1.9,1.9c0.2-0.2-0.4-0.6-0.4-0.9c1,0.1,3.2,0.9,4,0.9
								c0.4,1.2,3.8,2.9,7.6,4.4c3.8,1.5,8.2,2.8,10.1,3.3c-0.1,0.3-0.1,0.7-0.2,1c0.5-0.4,1.6-0.8,2-1.2c0.4,0.4,0.7,0.9,0.9,1.3
								c1.1,0.3,2.5,1.1,4.2,1.8c0.8,0.3,1.8,0.7,2.7,1c0.9,0.3,1.7,0.6,2.6,0.8c-0.5-2.6,5-2.2,11.3-1.9c6.4,0.4,13.5,0.6,16.2,0.2
								c0.5,0.1,0.5,0.9,0.7,1.1c1.1-0.5,2.2-1.1,3.1-1.7c0,0.4,0.2,1.1,0.4,1.4c1-0.8,1.8-1.3,2.7-1.7c0.5-0.2,1-0.3,1.7-0.5
								c0.6-0.1,1.3-0.3,2-0.4c-0.2,0.1-0.5,0.3-0.9,0.5c-0.4,0.2-0.7,0.4-0.9,0.5c7.2-2.4,14.5-4.8,21.7-5.3
								c0.1,0.4-0.6,0.5-0.5,0.9c0.9,0.1,1.7-0.5,2.6-0.4c-0.2,0.3-0.2,0.7-0.1,1c1.7-0.1,4.9-0.5,6.7-0.9c0.3-0.4,0.7-0.8,1.1-1.2
								c2.9-0.1,6-0.8,8.8-1.5c-0.3,0.2-0.6,0.5-1,0.7c1.3-0.4,2.4-0.8,3.6-1.4c0.4,0.1-0.2,0.6,0.3,0.6c5.7-2.1,8.4-1.6,14.2-2.2
								c0.1-0.4-0.7-0.4-0.6-0.7c2.5-0.4,2.4-0.2,3.9,0.3c0.2,0.1,1.5-0.3,1.9-0.2c-0.2,0.4-0.4,0.8-0.7,1.2c1.6-2,6.4-2.7,11.3-2.5
								c5,0.1,10,1.1,12.3,1.9c2.1-0.9,4.6-1.4,7.3-1.6c2.7-0.2,5.6-0.2,8.5,0.1c1.4,0.1,2.9,0.2,4.3,0.4c1.4,0.2,2.8,0.3,4.2,0.5
								c0.3,0,0.7,0.1,1,0.1l0.5,0l0.2,0c0,0,0.1,0,0.1,0c0.3,0.1,0.2,0.1,0.5,0.2c1.3,0.2,2.6,0.4,3.8,0.5c4.5,0.4,8.3-0.6,13.6,0
								c3.1,0.3,6,0.6,8.9,1c1.5,0.1,2.9,0.3,4.4,0.4c0.7,0.1,1.5,0.1,2.3,0.2c0.4,0,0.8,0,1.1,0.1l0.3,0l0,0c0,0,0.1,0,0.1,0
								c0.1,0,0.1,0,0.2,0l0.9,0.1l1.8,0.3c1.2,0.2,2.4,0.4,3.7,0.6c2.4,0.4,4.9,0.8,7.3,1.4c4.9,1.1,9.7,2.5,14.3,4.4
								c0.9,0.4,1.9,0.9,2.8,1.4c0.5,0.3,1,0.6,1.5,0.9c0.1,0.1,0.2,0.1,0.4,0.2l0.7,0.3c0.4,0.2,0.9,0.4,1.3,0.6
								c0.9,0.2,1.7,0.5,2.5,0.7c0.9,0.2,1.8,0.4,2.6,0.6c0.1,0.1,0.6,0.2,0.9,0.3c0.8,0.1,2.4,0.2,5.1,0c1.3-0.1,3-0.3,4.7-0.6
								c1.7-0.3,3.5-0.8,5.1-1.4l3.2-1.1l1.9-1.5c0.6-0.5,1.1-0.9,1.6-1.4c1-0.8,1.8-1.8,2.6-2.7c0.9-1,1.5-1.9,2.2-3
								c0.7-1,1.2-2,1.7-3c0.5-1,0.9-1.9,1.2-2.8c1.3-3.7,1.8-6.6,2-9.1c0.2-3.1,0.1-5.3-0.1-6.9l-0.1-1c0,0-0.1-0.1-0.1-0.1
								c0,0.2,0-0.2,0-0.4l0-0.7l0-1.4c0-1.9-0.1-3.7-0.3-5.6c-0.1-1.9-0.3-3.7-0.4-5.7c-0.6-8.5,1.2-13.8,0.8-20.7
								c-0.3,0.2-0.5,0.5-0.8,0.7c0.4-3,0.5-6.4-0.8-9c0.5-0.5,0.9-1.3,1.3-1.8c-0.8-1.6-1.1-4.1-2.1-5.5c1.5-2.5,0.9-7.3,0.8-11.2
								c-1.9,0.4-1.1,0.4-2.2-2.4c0.8-0.3,1.5-1.5,2.3-1.6c-1.9,0.3-2.8-2.1-2.5-5.6c2-1.4,2.1-7.7-0.5-9.3c0.4-0.4,0.9-1,1.3-1.3
								c0-1.3-0.1-2.7-0.2-4.3c-0.1-1.6-0.2-3.1-0.3-4.7c0-0.4,0-0.8-0.1-1.2c0-0.4,0-0.8,0-1.2c0-0.8,0.1-1.5,0.1-2.2
								c0.1-1.4,0.4-2.7,0.8-3.6c-0.8-0.5-1.4-2.2-2.2-2.8c0.7-0.5,1.4-1.6,2.2-2c-0.7-0.1-1.5-1.2-2.2-1.5
								c1.3-11.3,1.7-23.1,2.3-34.5c0.5-10.1-1.3-18.6,0.2-28c-0.3,1.4-0.8,2.4-1.1,3.6c-1.5-4.4,0.3-9.3,0.6-14.1
								c0.3-4.9-0.3-9.9,0-14.8c0.3-4.4,0.6-7.3,0.5-10.3c0-1.5-0.1-3-0.3-4.7c-0.1-0.9-0.2-1.9-0.4-2.9c-0.1-1.1-0.3-2.2-0.5-3.5
								c1.2-2.7,1.5-2,0.4-4.5c0.6-0.8,0.9-2.9,1.5-3.7c-0.4-0.6-0.7-1.7-1.1-2.3c1.9-2.2,2.8-7.4,3.2-13.4c0.5-6,0.3-12.9,0.1-17.2
								c-0.1-3.1-1-9.5-2.2-15.7c-0.3-1.5-0.6-3-0.9-4.5c-0.3-1.4-0.6-2.8-0.8-4c-0.2-1.1-0.4-2.1-0.5-2.9c0-0.4,0-0.8,0-1.1
								c0-0.3,0-0.7,0.1-0.9c-0.2-0.3-0.4-0.6-0.6-0.9c-0.2-0.4-0.4-0.7-0.7-1.3c-0.5-1.1-1.1-2.3-1.8-3.7c-1.4-2.7-3.2-5.9-5.3-8.7
								c-2.1-2.9-4.3-5.3-6-7.2c-0.8-1-1.6-1.8-2-2.5c-0.5-0.7-0.7-1.3-0.7-1.7c-1.8-0.9-5.1-3.2-8.6-5.2c-3.5-2-7.1-3.6-9.5-4.4
								c-4.8-1.6-9.3-2.6-13.4-3.5l-6-1.3l-2.8-0.6l-2.9-0.6L419,65c-2.1-0.4-4.2-0.7-6.3-1c-2.1-0.3-4.2-0.7-6.3-0.9l-6.3-0.7
								c-2.1-0.3-4.2-0.4-6.3-0.5l-6.3-0.4l-6.3-0.2c-2.1-0.1-4.2-0.1-6.3-0.1l-6.3,0.1c-2.1,0-4.2,0.2-6.3,0.2
								c-2.1,0.1-4.2,0.2-6.3,0.3l-6.2,0.5c-11.7,1.1-25.5,2.9-38.4,6.3c-13,3.3-25.1,8.3-33.4,14.7c-0.8,1.5-3.7,3.3-2.1,4.3
								c-2.3,1.2-4.1-0.6-4.1,0.8c3.5-0.2,0,3.4,3.6,3.9l-1.9,0.9c-0.1,1,2.5-1.8,2.4-0.1l-0.1-2.4c1.8-0.2,2.8,0,3.6,0.6
								c1.3-1.4,1.4-4.7,5.5-4.4l-1,0.4c3-0.9,2.3,1,3,1.2l-0.7,0.2l2.9,0.4c-2.1-0.2-4.8,2.4-3.2,1.9c3.8-0.3-1.1-0.3,1.5-1.3
								c1.6-0.6,1.5,0.8,1.6,1.5c0,0,0.7-0.2,1.5-0.4c0.7-0.2,1.5-0.4,1.5-0.4c0.2,1.1-2,0.4-0.5,1.2l3.5-2c1.3,2.5,3.8-2.3,6.1-0.1
								c-2.6,1.2,0.4,0.8,0.2,1.8l6.7-1.5c0.7,0.2-1.6,1.2-0.6,0.8c1.4,0.5,1.9-1.1,2.6-1.2c0.7,0.6,5-0.9,5.1,0.9
								c4.7,0.4,1.5-2.6,5.9-2.3c0.4,0.5-0.5,0.7-1.1,0.9c-0.7,0.2-1.2,0.3-0.1,0.7l4.3-1c-0.3,0.6-0.6,1.9-2.3,1.9
								c3-0.1,5.7,0.2,8.2,0.6c2.5,0.4,4.9,1,7.1,1.5c2.3,0.4,4.5,0.9,6.8,1.1c2.3,0.2,4.7,0,7.4-0.5c1.6,1.2-1,0.9-2,1.9
								c1.3-1.2,5-0.8,8.6-0.1c3.6,0.8,7.2,2,8.7,2c0.2-0.3,0.3-0.7,0.5-1c4.5,1.5,9.5,1.8,14.6,2.2c1.3,0.1,2.5,0.1,3.8,0.2
								c1.3,0.1,2.5,0.2,3.8,0.3c2.5,0.2,5,0.4,7.4,1c-0.1-0.3-0.8-0.5-0.7-0.9c1.4-0.6,3.3-1,5.2-1c0.2,1.2,1.1,1.4,1.4,1.9
								c-0.4-0.5-0.8-0.8-0.9-1.3c0.2,0.5,1,1,2.2,1.5c1.2,0.5,2.8,1.1,4.7,1.6c1.9,0.5,4.1,1,6.4,1.6c2.4,0.6,4.7,1.1,7.7,1.7
								c5.6,1.2,10.7,2.1,14.4,3.1c1.8,0.5,3.3,0.9,4.5,1.3c1.1,0.4,1.9,0.7,2.3,0.9c1.3,0.6,2.3,1.3,3,1.9c0.7,0.6,1.2,1.1,1.5,1.7
								c0.3,0.5,0.5,1,0.7,1.7c0,0.2,0.1,0.3,0.1,0.6c0,0.2,0.1,0.3,0.2,0.8l0.2,1.2l0.3,1.6l0.3,1.5l0.2,1.4
								c0.2,0.9,0.3,1.8,0.4,2.8c0.3,1.9,0.5,3.8,0.7,5.7c0.4,3.9,0.6,8,0.9,12.4c1-0.2,1,0.4,1.8,0.7c-1.2,2.3-2,5.8-2.7,10.1
								c-0.7,4.3-1.1,9.4-1.3,14.8c-0.1,1.4,0,2.6,0,3.8c0,1.2,0,2.4,0,3.6c0,1.2,0,2.4,0,3.5c0,0.6,0,1.1,0,1.7c0,0.6,0,1.2,0,1.8
								c0.1,4.7,0.3,8.8,0.6,11.8c0.4,3.6-3,13,0.1,16.3c-0.4,9.2-0.4,18.8-0.3,29c0,8.2-3.7,33,0.5,37.4c-0.8,2.5-1.2,5.3-0.9,8.1
								c0.2-0.7,0.2-1.4,0.4-2c0.1,0,0.9,0,1-0.1c0.4,1.2,0.5,2.8,0.5,4.2c-1.5,0.7-2.1,2.3-2.3,4.5c-0.2,2.3,0,5.2,0.3,8.2
								c0.3,3.1,0.8,6.5,1,9.2c0.2,2.8,0,5.3-0.8,7.1c1.7,0.2,2.3,1.4,3.4,3.3c-3.5,1.3-2.8,7.9-1.7,14.4c1.1,6.5,2.5,13.1,0.7,14.8
								c0.6,2.7,0.3,1.7,0.2,4.3c-0.4-0.7-0.8-1.7-1.3-2.3c1,2.6,1.5,5.6,0.9,8.4c0.3-0.1,0.5-0.2,0.8-0.1c0.1,0,0.1,0.8,0,2
								c0,1.2-0.2,3-0.3,4.9C452.7,370.2,452.1,375,451.7,378.5z"/>
							<path class="st0" d="M280.1,393.9l1.7-0.1c-0.1-0.3-0.1-0.7,0.6-1.2L280.1,393.9z"/>
							<path class="st0" d="M358.9,383.3c0.2-0.1,0.4-0.3,0.6-0.4C359.1,382.9,359,383.1,358.9,383.3z"/>
							<path class="st0" d="M378.4,379.9c-1.4,0.3-0.1,0.7,0.5,1.1C379,380.7,379,380.3,378.4,379.9z"/>
							<path class="st0" d="M239.8,402.2c0.3-0.1,0.4-0.3,0.4-0.6C239.9,401.9,239.8,402.1,239.8,402.2z"/>
							<path class="st0" d="M119.3,382c0.2,0.1,0.3,0.1,0.5,0.2C119.8,382.1,119.6,382,119.3,382z"/>
							<path class="st0" d="M126.3,384.6c0.3,0,0.8,0,1.4-0.1C127.1,384.4,126.7,384.5,126.3,384.6z"/>
							<path class="st0" d="M266.8,399.9c0.4-0.1,0.8-0.3,1-0.6C267.2,399.4,266.9,399.7,266.8,399.9z"/>
							<path class="st0" d="M129.1,384.3l1.7,0.3c0-0.1,0-0.2,0-0.3L129.1,384.3z"/>
							<path class="st0" d="M117,381.8c0.7,0,1.7,0,2.3,0.2C118.4,381.6,117.7,381.6,117,381.8z"/>
							<path class="st0" d="M197.6,393.5c0.1,0,0.1,0,0.2,0C199.3,393.3,198.4,393.3,197.6,393.5z"/>
							<path class="st0" d="M136.8,382.2c0.1,0,0.2,0,0.2,0.1l0.5-0.4L136.8,382.2z"/>
							<path class="st0" d="M109.2,381.5c0.3,0,0.6-0.1,0.9-0.3c-0.3,0-0.6-0.1-1-0.1C109.1,381.2,109.1,381.3,109.2,381.5z"/>
							<path class="st0" d="M171.8,386.8c-0.6,0.5-0.8,0.8-0.8,1.1C171.6,387.9,172,387.7,171.8,386.8z"/>
						</g>
					</g>
				</g>
			</g>
		</g>
		<g>
			<g>
				<g>
					<g>
						<g>
							<path class="st0" d="M265.8,260c0.2,0.1,0.4,0.1,0.7,0.2C266.2,260,266,260,265.8,260z"/>
							<path class="st0" d="M270.6,198.4l0.3,0.7C270.8,198.6,270.7,198.5,270.6,198.4z"/>
							<path class="st0" d="M263.6,297.1c0-0.1-0.1-0.1-0.2-0.1c0,0.6-0.1,1.3-0.1,2.6L263.6,297.1z"/>
							<path class="st0" d="M219.5,75.9l0.8,0.2C220,76,219.8,75.9,219.5,75.9z"/>
							<path class="st0" d="M271.6,143.3c-0.3-0.2-0.4-0.6-0.5-1.1C271,142.8,271.1,143.2,271.6,143.3z"/>
							<path class="st0" d="M249.2,316.6l1-1C249.8,315.5,249.4,315.9,249.2,316.6z"/>
							<path class="st0" d="M252.7,354.3c0.1,0,0.1,0,0.2-0.1C252.8,354.1,252.7,354.2,252.7,354.3z"/>
							<path class="st0" d="M256.6,339.6c-0.1-0.3-0.2-0.7-0.4-1.1C256.3,339,256.3,339.6,256.6,339.6z"/>
							<path class="st0" d="M256,338c0.1,0.2,0.2,0.3,0.2,0.5C256.2,338.3,256.2,338,256,338z"/>
							<path class="st0" d="M11.9,389.3c0,1.1,0.7,2,1.3,3L11.9,389.3z"/>
							<path class="st0" d="M94.8,65.3l0.2-0.4C94.8,65.1,94.8,65.2,94.8,65.3z"/>
							<path class="st0" d="M20.2,390.6l-0.2,0.8C20.2,391.1,20.2,390.8,20.2,390.6z"/>
							<path class="st0" d="M246.9,296.6c-0.9-1.1,0.2-3.3-0.7-3.3C246.4,294.4,245.7,296.1,246.9,296.6z"/>
							<path class="st0" d="M75.6,104l-0.6,0.2C75.2,104.1,75.4,104.1,75.6,104z"/>
							<path class="st0" d="M20.2,390.6l0.2-0.9c-0.2,0.1-0.3,0.2-0.5,0.3C20.1,390.2,20.2,390.4,20.2,390.6z"/>
							<path class="st0" d="M4.5,153.5C4.5,153.5,4.5,153.5,4.5,153.5c-0.1-0.1-0.1-0.2-0.2-0.3L4.5,153.5z"/>
							<path class="st0" d="M3,160.1c-0.1-0.5-0.2-0.9-0.3-1.4C2.6,159.5,2.8,159.9,3,160.1z"/>
							<path class="st0" d="M13.2,392.3l0.7,1.7C13.8,393.4,13.5,392.8,13.2,392.3z"/>
							<path class="st0" d="M4.9,231.4c0-0.2-0.1-0.4-0.1-0.7C4.8,231,4.8,231.3,4.9,231.4z"/>
							<path class="st0" d="M271.3,148.5c-0.1,0.2-0.1,0.4-0.2,0.6C271.4,149.2,271.5,149.1,271.3,148.5z"/>
							<path class="st0" d="M240.1,112.4L240.1,112.4L240.1,112.4C240.1,112.5,240.1,112.5,240.1,112.4z"/>
							<path class="st0" d="M241.9,112.3c-0.2-0.4-1.1-0.3-1.7,0.2C240.5,112.6,240.8,112.7,241.9,112.3z"/>
							<path class="st0" d="M238.1,110.9c0,0.1,0,0.1,0.1,0.2C238.2,111,238.2,111,238.1,110.9z"/>
							<path class="st0" d="M245,148c0,0,0.1,0,0.1,0C245.1,148,245.1,148,245,148L245,148z"/>
							<path class="st0" d="M244.1,137.9c0.2-0.2,0.3-0.5,0.4-0.7C244.3,137.4,244.2,137.6,244.1,137.9z"/>
							<path class="st0" d="M213.9,106.2C213.9,106.2,213.9,106.2,213.9,106.2C213.9,106.1,213.9,106.1,213.9,106.2
								C213.9,106.2,213.9,106.2,213.9,106.2z"/>
							<path class="st0" d="M120.8,100.7c2.2,0.2,3.9,0.4,4.3,0.4c8-0.1,15.8-1.9,23.8-2.5c2.8-0.2,5.4,0.1,8,0.7
								c2.6,0.5,5.1,1.4,7.7,2.2c2.5,0.8,5.1,1.7,7.7,2.4c2.6,0.6,5.3,1.1,8.2,1.1c4,0,7-0.9,9.9-2c2.9-1,5.8-2,9.7-1.8
								c3.6,0.2,7.1,1.3,10.6,2.7c1.7,0.7,3.4,1.4,5.1,2.1c1.7,0.7,3.4,1.3,5.1,1.8c1.9,0.5,3.7,0.7,5.6,0.8c1.8,0.1,3.7,0,5.5,0
								c1.8,0,3.7,0,5.5,0.2l0.7,0.1c0.2,0,0.3,0,0.5,0c0.3,0,0.5,0,0.8,0.1c0.5,0.1,1.1,0.3,1.5,0.6c-0.8,0.7-1.5,2-2.2,2.7
								c1.1-0.3,2.4-0.6,3.6-0.3c1.2,0.2,2.3,1.1,2.3,2.5c0,1-0.9,1.9-1.5,2.5c-0.3,0.3-0.5,0.6-0.4,0.8c0,0.2,0.4,0.5,1.1,0.8
								l-0.1,0.2c-0.3,1.2-0.6,2.4-0.9,3.6c-0.3,1.2-0.7,2.2-0.9,3.4c-0.5,2.3-0.7,4.6,0,7.2c2.8,0,3.8,2.9,4.3,6.3
								c0.2,1.7,0.2,3.6,0.3,5.4c0,1.8,0,3.4,0.2,4.7c0.4,4.1,2.2,7.5,2.3,11.8c0.2,5.4-0.5,8.3,0.4,13.9c1.1,6.7,1,10.5-0.9,16.9
								c-0.9,3.2-1.6,5.2-1.8,7.1c-0.2,2,0.1,4,1.2,7.1c2.2,6,1.7,5.1,1.4,11.6c-0.4,8.7,0.1,17.4,0.2,26.1
								c0.1,5.8-0.7,11.5-0.4,17.3c0.6,12.3,4,20.9-2.5,31c5,6.3,4,24.5,3,33.6c-1,8.7-6,26.4-0.4,33.4c0.5-0.9,4-9.5,5.1-8.5
								c-0.4-0.4-1.1-0.8-1.5-1c1.7-0.2,1.7-0.8,3.5,0.3c-0.5-3.1-1.1-6.1-1.7-9c1-1.8,0.9-0.6,1.4-4c0.7,0.4,1.6,0.2,2.3,0.7
								c-0.5-0.7-0.8-1.4-0.9-2.4c0.5-0.3,0.9-1,1.4-1.3c0-0.1,0-1.2,0-2.2c0-0.5,0-1,0-1.4c0-0.4,0-0.6,0-0.6
								c0.4-0.1,1.1-0.6,1.5-0.8c-1.7-0.9-2.4-4.4-0.6-6.4c-0.5-2.9-1-5.9-1.1-8.9c1.1-0.3,1.6-1.4,2.6-1.2c-0.5-1-0.6-2.8-1.1-3.8
								c1.2,0.1,1.3-0.8,2.7,0.3c-0.4-0.9-0.5-2.1-1-3c0.5-0.6,1.1-2,1.7-2.5c-0.4-0.2-0.8-0.4-1.2-0.6c-0.1-0.6,0.8-0.7,0.6-1.3
								c-1.9-3.4,1.1-4.5,0.4-8.3c-0.4-0.3-0.8-0.1-1.2-0.3c0-0.3,0-0.7,0-1c0.6-0.2,1.2-1,1.7-1.3c-0.3,0-0.6-0.1-0.8-0.4
								c0.6-3.1-0.1-6,0.1-9c0.4,0.2,0.8,0.4,1.2,0.5c0-3.1-0.5-6.1-1-9c3.5-1.7,2.3-11,2.3-15.6c-0.3-0.1-0.5-0.1-0.8-0.2
								c0.9-3.3-0.1-7,0.8-9.7c0.4,0.1,0.9,0.1,1.3,0c0.3-1.7,0.5-4.3,0.3-6.1c-0.3,0.2-0.6,0.4-0.9,0.5c-0.4-1.1-0.3-2.2-0.5-3.2
								c0.4-0.3,0.4,0.5,0.8,0.2c0.4-0.6,0.3-2.2,0.6-3c0-0.2,0.5,0.9,0.5,0.9c-0.4-0.8-0.4-1.3-1-1.7c0.4-0.9,0.5-2.6,0.9-3.6
								c-1.3,1.2-0.1-0.1-1.7-0.4c1.1-2.1-0.1-5.8,1.9-7c-0.3-2-0.1-4.5,0-5.8c0-0.3-0.6-1.1-0.6-1.4c0.4-0.4,1-1.4,1.3-2
								c-0.2-0.1-0.5,0.5-0.7,0.5c-0.1-0.8-0.1-2.8-0.3-3.4c1-0.6,1.6-3.6,2-6.9c0.2-1.6,0.4-3.2,0.5-4.7c0.1-1.5,0.2-2.7,0.2-3.5
								c0.3,0,0.7,0,1,0c-0.5-0.3-1.1-1.1-1.6-1.3c0.3-0.4,0.7-0.7,1.1-0.9c0.2-1.7,1.7-4.5,2.2-7.1c-2.6,0.5-2.8-3.5-2.4-8.3
								c0.4-4.8,1.3-10.2,1.3-12.3c0.1-0.4,0.9-0.3,1.2-0.5c-0.4-0.9-0.8-1.8-1.3-2.6c0.4,0,1.1,0,1.5-0.2c-1.4-1.7-1.5-2.8-1.7-5.2
								c0.2,0.4,0.5,1.2,0.8,1.5c-1.2-5.9-2.3-12.5-1.9-18.7c0.4,0,0.4,0.5,0.8,0.5c0.2-0.7-0.2-1.5-0.1-2.2
								c0.3,0.2,0.6,0.3,0.9,0.2c0.1-1.5,0.1-4.3-0.1-5.8c-0.4-0.3-0.7-0.7-1.1-1c0.2-2.5-0.2-5.2-0.7-7.7c0.2,0.3,0.4,0.6,0.6,0.9
								c-0.3-1.1-0.7-2.1-1.2-3.2c0.1-0.4,0.6,0.2,0.6-0.2c-0.5-1.4-0.8-2.7-1-3.8c-0.2-1-0.3-2-0.4-2.9c0-0.3,0-0.7,0-1
								c0-0.3,0-0.6-0.1-0.9c-0.1-0.6-0.1-1.3-0.1-2c-0.1-0.7-0.1-1.4-0.2-2.2c-0.2-0.7-0.3-1.5-0.5-2.3c-0.4-0.1-0.2,0.9-0.6,1
								c-0.5-1.7-0.7-2.4-0.9-3c-0.1-0.6-0.1-1.1-0.2-2.1c0-0.2-0.2-0.6-0.5-1.1c-0.3-0.5-0.6-1-0.7-1.2c0.5,0.1,1,0.2,1.5,0.5
								c-1.4-0.7-3-2.4-5-4.4c-2-2-4.4-4.3-7.1-6.4c-1.4-1-2.8-2-4.3-2.9c-0.7-0.4-1.5-0.9-2.2-1.3c-0.4-0.2-0.7-0.4-1.1-0.6
								l-0.5-0.3l-0.3-0.2c-1.6-1.1-2.9-2.2-3.7-3c-2,0.1-4.3-0.3-6.7-1c-2.3-0.7-4.8-1.7-7.2-2.7c-4.8-2.1-9.7-4.3-13.7-5.4
								c-1.9-0.4-3.7-0.5-5.6-0.6c-1.9-0.1-3.9-0.2-6.1-0.7c-5.2-1.2-9.9-2.2-15.2-2.9c-9.1-1.1-18.1-1.3-26.7-3.6
								c-2.8-0.7-6.6-2.8-9.2-3.1c-1.6-0.2-4.7,0.6-6.8,0.6c-2.6,0-5.1-0.8-7.6-1c-3.3-0.2-6.3,0-9.3,0.3c-3,0.4-6,0.9-9.2,1.3
								c-3.6,0.6-6.6,0.3-9.3,0.2c-1.4-0.1-2.7-0.1-4.1-0.1c-1.3,0-2.7,0-4.1,0.2c0.2,0.3,0.4,0.5,0.6,0.8c-2.5-0.2-5.4-0.1-7.4,1.3
								c-0.4-0.5-1.2-0.8-1.7-1.2c-1.3,0.9-3.4,1.3-4.5,2.5c-1.2-0.6-2.8-0.8-4.5-0.7c-1.7,0.1-3.6,0.5-5.3,0.7
								c0.5,1.8,0.5,1-1.8,2.4c-0.3-0.7-1.5-1.4-1.8-2.2c0.5,1.9-1.5,3-4.7,3.2c-1.5-1.9-7.3-1-8.2,1.9c-0.4-0.3-1.1-0.6-1.5-1
								c-1.1,0.2-2.5,0.6-3.9,1.1c-1.4,0.5-2.9,1-4.4,1.5c-3,1-5.8,1.8-7.7,1.7c-0.2,1-1.4,2.1-1.7,2.9c-0.7-0.5-1.9-0.8-2.6-1.4
								c0.2,0.7-0.5,1.8-0.4,2.5c-1.3,0.3-2.5,0.7-3.8,1.1c-1.2,0.4-2.5,0.9-3.8,1.3l-1.9,0.7l-1.9,0.8l-1.9,0.8l-0.2,0.1
								c0,0-0.1,0-0.1,0l0,0c0,0,0.1-0.1,0-0.1c-0.1,0-0.1,0-0.2,0l-0.1,0c0,0,0,0-0.1,0l-0.3,0.1l-0.7,0.2
								c-0.9,0.3-1.8,0.7-2.7,1.1c-1.8,0.8-3.8,1.9-5.8,3.4c-2,1.5-4.1,3.4-5.9,5.9c-1.8,2.5-3.3,5.6-4.2,8.7l1.4-3.7
								c-0.6,1.1-1,2-1.4,2.9c-1.6,3.6-2.6,7.3-2.8,11c-0.1,0.9-0.1,1.9,0,2.7l0,1.2l0,0.7c0.1,1,0.1,1.9,0.2,2.9
								c0.2,3.8,0.3,7.5-0.4,11.4c0.3-1.1,0.8-2,1.1-3c1.5,3.6-0.2,7.8-0.4,11.8c-0.2,4.1,0.6,8.3,0.4,12.4
								c-0.4,7.5-0.5,9.7,1.6,17.7c-1,2.2-1.3,1.6-0.2,3.6c-0.6,0.7-0.9,2.3-1.4,3.1c0.4,0.5,0.7,1.5,1.1,2
								c-3.6,3.8-2.5,18.2-2.3,24.5c0.1,4.6,2.6,18.4,0.5,20.6c1.8,2.8,2.8,14.6-0.1,15.4c0.7,2-0.7,8.4-0.8,11.7
								c-0.7,26-1.1,52,0.1,78c0.8,18.3,1.3,43.2,8.9,58.5c1.2,0.9,2.1,3.5,3.6,2.5c0.5,2-1.7,3-0.5,3.3c0.8-2.8,3.2,0.8,4.8-1.9
								l0.3,1.7c0.9,0.3-1-2.3,0.6-1.9l-2.3-0.5c0.3-1.4,0.8-2.2,1.6-2.7c-0.9-1.3-4.1-2.1-2.7-5.3l0.1,0.9
								c-0.1-2.5,1.5-1.6,1.9-2.1l0,0.6l1.2-2.2c-0.8,1.6,1.1,4.3,1,2.9c0.6-3-0.6,0.8-0.9-1.5c-0.1-1.4,1.1-1,1.9-1l-0.1-2.5
								c1.1,0.1-0.1,1.7,1.1,0.6l-1.2-3.2c2.7-0.6-1.4-3.5,1.2-5c0.7,2.3,0.9-0.2,1.8,0.1l-0.2-5.7c0.4-0.5,0.9,1.5,0.7,0.6
								c0.8-1.1-0.7-1.7-0.7-2.3c0.7-0.5-0.1-4.2,1.8-4.1c1.2-3.8-2.3-1.6-1.3-5.2c1.1-0.5,0.3,2.8,1.4,1.2l-0.4-3.7
								c0.5,0.3,1.8,0.7,1.6,2.1c1.4-10,7.2-15.5,5.6-24.6c1.3-1.3,0.9,0.9,1.8,1.8c-2.3-2.4,2.5-12.3,2.6-14.8
								c-0.3-0.2-0.7-0.3-1-0.4c3-7.8,1.4-17.3,2.4-25.9c-0.3,0.1-0.4,0.7-0.8,0.7c-0.7-1.1-1.3-2.8-1.5-4.4
								c1.1-0.3,1.3-1.1,1.8-1.4c-0.4,0.4-0.7,0.7-1.2,0.9c4.1-1.8,2.9-35.1,3-40.5c0.1-15.6,1.8-31.5,0.3-47.1
								c-1,0.2-1-0.4-1.8-0.6c4.4-8.3,3-32.7,1.3-42.3c-0.5-2.9,2.6-10.6-0.6-13.2c0.2-7.5,0-15.3,0-23.6c0-0.3,0-0.7,0-1.1
								c0-0.2,0-0.4,0-0.6c0-0.2,0-0.5,0-0.5c0-0.1,0-0.1,0-0.2c0,0,0-0.1,0.1-0.1c0-0.1,0.1-0.1,0.2-0.2c0.1-0.1,0.3-0.2,0.4-0.3
								c0.1,0,0.2-0.1,0.2-0.1c0.1-0.1,0.2-0.2,0.3-0.2l-8.7-6.4c-0.3-0.1-0.1-0.1,0.6,0.4c0.7,0.5,1.7,1.5,2.8,2.9
								c0.3,0.4,0.6,0.8,0.8,1.2c0.3,0.4,0.6,0.9,0.8,1.3c0.3,0.5,0.6,0.9,0.8,1.4l0.4,0.8l0.2,0.4l0.1,0.2c0,0.1,0.1,0.1,0,0.1
								c0,0,0,0,0.1-0.1l0.1,0c0,0,0,0,0,0l0.2-0.1l0.3-0.1c0.4-0.2,0.8-0.3,1.2-0.5c0.6-0.3,1.2-0.7,1.8-1l0.5-0.3
								c0.2-0.1,0.4-0.2,0.4-0.2c0.1-0.1,0.2-0.2,0.3-0.2c0.4-0.3,0.8-0.7,1.1-1c0.7-0.7,1.1-1.4,1.2-2.1c2,0,3.9-0.5,5.7-1.5
								c-0.5,0-1,0.2-1.5,0.2c0-0.1-0.4-0.8-0.5-0.9c0.7-0.7,1.7-1.2,2.6-1.6c1,1.1,2.3,1.3,3.9,1c0.8-0.2,1.6-0.5,2.5-0.8
								c0.9-0.4,1.8-0.8,2.8-1.2c3.8-1.8,8.1-3.8,11.1-2.5c-0.2-1.7,0.6-2.4,1.8-3.7c1.6,3.2,6.2,2,11.1,0.5
								c4.9-1.5,10-3.2,11.5-1.5c2.1-0.8,1.3-0.4,3.4-0.4c-0.6,0.4-1.3,0.9-1.8,1.4c2-1.1,4.4-1.8,6.8-1.4c-0.1-0.2-0.2-0.5-0.2-0.8
								c0-0.1,2.6-0.2,5.6-0.1c1.5,0,3.3,0.1,4.9,0.3C117.7,100.5,119.4,100.6,120.8,100.7z"/>
							<path class="st0" d="M244.9,149.3l0.1-1.3c-0.3,0-0.7,0-1.1-0.6L244.9,149.3z"/>
							<path class="st0" d="M229.2,109.1c-0.2,0.1-0.4,0.1-0.6,0.2C228.9,109.4,229.1,109.3,229.2,109.1z"/>
							<path class="st0" d="M214,107.3c1.1,0,0.3-0.7-0.1-1.1C213.8,106.4,213.8,106.8,214,107.3z"/>
							<path class="st0" d="M249.3,184.8c-0.1-0.2-0.3-0.4-0.6-0.3C249,184.8,249.1,184.9,249.3,184.8z"/>
							<path class="st0" d="M247.1,285.5c0.1-0.1,0.1-0.2,0.2-0.4C247.2,285.1,247.1,285.3,247.1,285.5z"/>
							<path class="st0" d="M249.5,279.9c0-0.3,0-0.6-0.2-1.1C249.2,279.3,249.3,279.6,249.5,279.9z"/>
							<path class="st0" d="M248.7,160.9c-0.1-0.4-0.2-0.7-0.5-1C248.3,160.4,248.5,160.7,248.7,160.9z"/>
							<path class="st0" d="M248.9,277.6l0.2-1.4c-0.1,0-0.2,0-0.3,0L248.9,277.6z"/>
							<path class="st0" d="M246.9,287.2c0-0.6,0.1-1.3,0.2-1.8C246.7,286.2,246.7,286.7,246.9,287.2z"/>
							<path class="st0" d="M250.6,221.9c0,0,0-0.1,0-0.2C249.9,220.6,250.2,221.3,250.6,221.9z"/>
							<path class="st0" d="M246.5,271.5c0-0.1,0-0.1,0.1-0.2l-0.4-0.4L246.5,271.5z"/>
							<path class="st0" d="M246.3,293.3c0-0.3-0.1-0.5-0.3-0.7c-0.1,0.2-0.1,0.5-0.2,0.8C246,293.3,246.1,293.3,246.3,293.3z"/>
							<path class="st0" d="M248.2,242.9c0.5,0.4,0.9,0.6,1.2,0.6C249.4,243,249.1,242.7,248.2,242.9z"/>
						</g>
					</g>
				</g>
			</g>
		</g>
	</g>
</g>
<g id="Layer_2" class="st1">
	<g class="st2">
		<g>
			<g>
				<g>
					<path class="st0" d="M268.7,279.8l0.2,0C268.8,279.8,268.7,279.8,268.7,279.8z"/>
					<path class="st0" d="M239.6,279l0.1-0.2C239.6,278.8,239.6,278.9,239.6,279z"/>
					<path class="st0" d="M232.8,292.8l-0.2,0C232.7,292.8,232.8,292.8,232.8,292.8z"/>
					<g>
						<path class="st0" d="M244.9,293.9c5.4,0.3,10.9,0.1,16.3-0.7c5.6-0.8,11.1-2,16.7-2.2c3-0.1,6-0.2,9-0.3
							c1.5-0.1,3-0.1,4.5-0.2c1.5-0.1,2.9-0.3,4.4-0.4c5.9-0.7,11.8-0.7,17.9-1.1c2.9-0.2,5.9-0.9,8.6-1.4c2.8-0.5,5.6-1,8.4-0.9
							c1.5,0,3,0.2,4.5,0.3c0.7,0,4.3-0.9,5-1.2c0.3-0.2-1.8-1.2-2.4-1.4c-2-0.8-5.2-1.7-6.8-1.9c-3.3-0.4-4.8-0.6-8.2-0.5
							c-1.7,0.1-3.5,0.2-5.2,0.3c-1.7,0.1-3.3,0.2-5,0.2c-3.3,0-6.6-0.2-10-0.8c-2.7-0.4-5.5-0.5-8.4-0.4c-1.4,0-2.9,0.1-4.3,0.1
							c-1.4,0-2.8,0-4.2-0.1c-3-0.2-5.9-0.6-8.9-0.8c-1.5-0.1-3-0.2-4.4-0.3c-1.5-0.1-3-0.2-4.5-0.1c-6.4,0-12.7-0.9-19.1-1
							c-6.3-0.1-12.6,0-18.9-0.3c-3.7-0.2-7.3-0.4-11-0.8c-4.6-0.4-9.2-0.7-13.9-1c-4.8-0.3-9.5-0.4-14.1-0.7
							c-8.5-0.4-16.5-2.2-24.7-2.5c-4.4-0.1-10.1-0.7-14.2,1.7c-1,0.6-1.5,1.8-1.7,2.9c0.3-1.8,4.5,2.8,4.9,3c2,1.4,4.4,2.2,6.6,3.1
							c4.3,1.9,8.2,4.1,13,4.9c9.9,1.5,19.7,1.5,29.4,2.2c8.4,0.6,16.9,0.9,25.3,1.4C234.5,293.1,239.7,293.6,244.9,293.9z"/>
					</g>
				</g>
			</g>
		</g>
		<g>
			<g>
				<g>
					<path class="st0" d="M134.2,394l-0.1,0.2C134.2,394.1,134.2,394.1,134.2,394z"/>
					<path class="st0" d="M145.2,367.5l0.1,0.1C145.3,367.5,145.2,367.5,145.2,367.5z"/>
					<path class="st0" d="M133.5,357.7l0-0.2C133.5,357.6,133.5,357.7,133.5,357.7z"/>
					<g>
						<path class="st0" d="M129.5,368c-0.9,2.3-1.7,4.6-2.5,7c-0.8,2.3-1.4,4.8-2.1,7.2c-0.7,2.5-1.2,5-1.9,7.5
							c-0.4,1.2-0.7,2.5-1.2,3.7c-0.5,1.2-1,2.4-1.5,3.6c-2.4,5-5.2,9.7-7.6,14.8c-2.4,5.1-5.4,9.6-8.6,14.3
							c-3,4.5-5.1,9.6-8.6,13.8c-0.9,1.1-1.9,2.2-2.9,3.3c-0.1,0.1-0.3,0.4-0.5,0.9c0,0.1-0.1,0.2-0.1,0.3c0,0.1,0,0.1-0.1,0.2
							c0,0.2-0.1,0.3-0.1,0.5c-0.1,0.4-0.2,0.7-0.4,0.9c-0.2,0.2-0.3,0.4-0.4,0.6c-0.1,0.1,0.1,0.1,0.3,0.2c0.2,0,0.4,0.1,0.7,0.1
							c0.3,0,0.6,0,0.8,0c0.3,0,0.4-0.2,0.5-0.2c0.4-0.2,0.8-0.4,1.3-0.8c0.5-0.3,1-0.7,1.5-1.1c1-0.7,1.9-1.4,2.5-2
							c2.3-2.2,3.4-3.2,5.3-5.7c4-5.2,7.7-10.4,12.3-15.2c1.8-2,3.3-4.2,4.7-6.6c1.4-2.3,2.7-4.7,4.2-6.9c1.6-2.4,3.4-4.8,4.9-7.2
							c1.6-2.4,3.1-5,4.4-7.7c2.6-5.7,5.9-11.1,8-17.1c2.1-5.9,3.7-11.9,5.4-17.9l1.4-5.3l0.7-2.5c0.2-0.8,0.5-1.6,0.7-2.4
							c1.3-4.1,2.6-8.4,3.6-13c1.1-4.6,1.9-9.5,2-14.7c0.1-1.6,0-3.3,0-5c0-0.8-0.1-1.7-0.2-2.5c-0.1-0.8-0.1-1.7-0.3-2.5l-0.4-2.5
							c-0.2-0.8-0.4-1.7-0.7-2.5c-0.2-0.8-0.5-1.7-0.8-2.4l-0.8-2.1c0,0,0,0,0,0c0,0,0-0.1-0.1-0.2l-0.1-0.3l-0.4-1.6
							c-0.3-1.1-0.6-2.2-1-3.4c-1.3-4-2.8-9.6-6.3-12c-0.2-0.1-0.4-0.2-0.7-0.3l-0.2,0c-0.1,0-0.1-0.1-0.2,0
							c-0.1,0.1-0.3,0.2-0.4,0.2c-0.6,0.2-1.2,0.1-1.8,0c0.2,0,0.4,0.1,0.5,0c0,0,0.1-0.1,0.1-0.1c0,0.1,0,0.2,0,0.3
							c-0.1,0.4-0.3,1-0.5,1.7c-0.5,1.3-1.2,2.8-1.3,3c-0.6,2.3-0.5,4.6-0.7,6.9c-0.2,1.9-0.4,3.7-0.6,5.5c-0.1,0.9-0.1,1.8-0.2,2.8
							c0,0.5,0,0.9,0,1.5c0,0.3,0,0.6,0.2,1c0,0.2,0.1,0.4,0.1,0.6l0.2,0.6l0.1,0.2l0,0.1l0,0l0,0l0,0.1l0,0.1l0,0.2l0.1,0.4
							c0.1,0.3,0.1,0.5,0.2,0.8c1.1,3.6,1.6,7.1,1.5,10.9c0,3.8-0.6,7.8-1.6,12.1c-0.9,3.6-1.9,7.4-3,11.3l-0.8,3l-0.8,3.1l-1.5,5.5
							c-0.6,2.2-1.4,4.4-2.2,6.6C131.1,363.5,130.3,365.7,129.5,368z"/>
					</g>
				</g>
			</g>
		</g>
		<g>
			<g>
				<g>
					<path class="st0" d="M118.8,131l0.1,0.4C118.9,131.3,118.9,131.1,118.8,131z"/>
					<path class="st0" d="M107.7,71.7l0.2,0.1C107.8,71.7,107.7,71.7,107.7,71.7z"/>
					<path class="st0" d="M95,57.3l0.1-0.4C95,57.1,95,57.2,95,57.3z"/>
					<g>
						<path class="st0" d="M94,85.2c0.8,6.1,2.2,11.8,3.7,17.4c1.5,5.6,3.2,10.9,4.7,16.2c3.3,11.2,6.9,22.2,9.5,33.8
							c1.4,6.1,2.7,12.2,4,18.3c1.4,6.1,2.9,12.1,4.6,18.1c3.4,12.1,6.1,24,9,36.2c2.7,11.8,6.8,23.2,9.3,35.1
							c0.6,3.2,1.3,6.3,1.9,9.5c0.3,1.6,3.2,9.1,4,10.5c0.4,0.6,0-4.1,0-5.5c-0.3-4.3-0.9-10.9-1.4-14.3c-1-6.8-1.5-9.9-3-16.8
							c-3-14.1-6.1-27.9-8.1-42.1c-1.6-11.5-5.1-23.1-7.2-34.6c-2.1-12.5-3.8-25.1-6.6-37.5c-0.7-3.3-1.4-6.6-2-10l-1-5
							c-0.3-1.7-0.7-3.4-1-5.1c-1.4-6.5-2.8-13.1-4.2-19.6c-0.7-3.1-1.2-6.3-1.6-9.3c-0.4-3.1-0.7-6.1-0.7-9.2c0-3,0.1-6,0.5-8.9
							c0.4-3,1.1-5.9,2-8.8c1.1-3.3,2.5-6.8,4-9.6c1.6-2.8,3.6-5.3,5.8-7.2c1.4-1.2,3-2.1,4.6-2.9l1.3-0.5c0.4-0.2,0.9-0.3,1.3-0.4
							c0.9-0.3,1.8-0.4,2.7-0.7c3.7-0.6,7.8-0.4,11.9,0.5c3.9,0.9,7.9,2.6,11.9,4.7c4,2.2,8.1,4.7,12.2,7.4c3.7,2.4,7.5,5,11.6,7.4
							c1,0.6,2.1,1.2,3.2,1.8l1.6,0.9l1.7,0.8c2.3,1,4.7,2,7.1,2.7c4.8,1.5,9.5,2.3,13.8,3c2.1,0.3,4.2,0.7,6.4,1
							c1,0.2,2,0.4,3.1,0.5c1,0.2,1.9,0.4,3.3,0.6c2.8,0.5,5.7,0.8,8.6,0.8c2.9,0.1,5.7,0,8.3-0.1c5.2-0.3,9.5-0.5,13.2-0.9
							c1.8-0.1,2.8-1.1,3.3-2.2c-0.4,0.9-2.4-0.5-4.8-1.9c-2.4-1.4-5.1-2.7-5.5-2.8c-4.5-1.6-9.7-2-14.3-3c-2.2-0.5-4.3-1.2-6.2-1.9
							l-1.5-0.6l-1.7-0.7c-1.1-0.4-2.2-0.8-3.4-1.2c-4.5-1.5-9-2.6-13.5-3.7c-4.7-1.1-8.8-2.4-12.8-4.5c-4.1-2.1-8.3-4.8-12.6-7.6
							c-4.3-2.8-8.8-5.7-13.7-8.4c-2.5-1.3-5-2.6-7.8-3.8c-2.7-1.2-5.7-2.1-8.7-2.8c-5-1.1-10.4-1.6-15.8-0.9
							c-2.7,0.3-5.5,1.1-8.1,2c-2.6,1.1-5.2,2.3-7.5,4c-2.3,1.6-4.4,3.5-6.3,5.5c-0.9,1.1-1.8,2.1-2.5,3.2c-0.7,1.1-1.6,2.2-2.2,3.3
							c-0.7,1.1-1.3,2.3-1.9,3.5l-0.8,1.8c-0.3,0.6-0.5,1.1-0.7,1.7c-0.9,2.2-1.8,4.5-2.5,6.9c-1.8,5.6-3.1,11.5-3.5,17.6
							C92.9,73.3,93.2,79.4,94,85.2z"/>
					</g>
				</g>
			</g>
		</g>
		<g>
			<g>
				<g>
					<path class="st0" d="M232.3,120.6l0.2,0C232.4,120.6,232.3,120.6,232.3,120.6z"/>
					<path class="st0" d="M204.3,123.8l0-0.2C204.2,123.7,204.3,123.7,204.3,123.8z"/>
					<path class="st0" d="M211.9,135.8L211.9,135.8C211.9,135.8,211.9,135.8,211.9,135.8z"/>
					<g>
						<path class="st0" d="M214,135.6c1.9-0.3,3.9-0.6,5.8-0.9l2.7-0.4l0.7-0.1l0.9-0.1c0.6-0.1,1.2-0.1,1.8-0.2
							c5-0.7,9.8-2.1,14.6-2.6c5.1-0.5,10.2-1.1,15.1-2.4c1.2-0.3,2.5-0.6,3.7-0.9c1.2-0.3,2.3-0.4,3.5-0.6c2.4-0.3,4.8-0.5,7.3-0.6
							c4.8-0.3,9.5-1.8,14.3-1.5c1.3,0.1,2.6,0.2,3.9,0.3c0.6,0,3.8-0.9,4.4-1.4c0.3-0.2-1.6-1.1-2.1-1.3c-1.7-0.8-4.4-1.7-5.8-2
							c-2.8-0.5-4.1-0.8-6.9-0.8c-5.9-0.1-11.5,0.1-17.5-0.5c-0.6,0-1.2-0.1-1.9,0c-0.6,0-1.2,0-1.8,0.1c-1.2,0.1-2.3,0.2-3.5,0.4
							c-2.3,0.3-4.6,0.7-6.9,0.7c-5,0-9.9-0.5-14.7-0.4c-2.6,0.1-5.1-0.2-7.6-0.5c-3.3-0.4-6.5-0.4-9.5,0.1
							c-0.7,0.1-1.5,0.2-2.2,0.4l-0.5,0.1l-0.6,0.1l-1.4,0.3c-1.9,0.5-3.8,1.2-6,2.7c-2,1.4-3.7,3.2-4.8,5.4c-1.1,2.1-1.6,4.6-1.5,7
							c0.1,1.4,0.3,2.8,0.8,4.2l0.4,1c0.1,0.3,0.3,0.7,0.4,0.9c0.3,0.6,0.5,1.1,0.8,1.7c0.6,1,1.2,1.9,1.9,2.8
							c0.3,0.4,0.7,0.9,1,1.3l1.1,1.1c0.9,1,1.8,1.7,2.7,2.5c0.9,0.7,1.9,1.4,2.8,2.1c1.9,1.2,3.7,2.4,5.5,3.3
							c3.6,2,7.2,3.7,10.3,5.6c2.8,1.7,5.3,3.8,6.6,5.6l0.1,0.2l0.1,0.1l0.2,0.2l0.7,0.8l0.4,0.4l0.3,0.3l0.7,0.6
							c0.9,0.8,1.8,1.5,2.6,2c1.7,1.2,3.2,2.1,4.8,3c1.7,0.9,3.5,1.9,5.1,2.5c1.7,0.7,3.1,1,4.6,0.6c0.7-0.2,2-0.6,3.1-1
							c-0.9,0.4-0.6-0.4-0.7-1.7c0-0.6-0.1-1.3-0.1-1.9c-0.1-0.6-0.1-1-0.2-1.1c-0.7-2.1-2.2-3.7-3.5-5.4c-1.2-1.7-2.3-3.3-3.4-4.9
							c-1.1-1.5-2.2-3-3.1-4l-0.3-0.4c-0.1-0.1-0.1-0.2-0.2-0.3l-0.1-0.1l-0.3-0.4l-0.7-0.8c-0.5-0.5-1-1-1.4-1.4l-1.5-1.3
							c-1.9-1.5-3.9-2.9-5.8-4c-3.8-2.3-7.6-4.1-11-6.1c-2.9-1.6-5.6-3.3-7.6-5c-0.3-0.2-0.4-0.4-0.7-0.6c-0.2-0.2-0.5-0.4-0.6-0.6
							c-0.3-0.4-0.7-0.8-0.9-1.1c-0.5-0.9-0.4-0.7-0.4-0.9c0-0.1,0.2-0.2,0.3-0.2c0,0,0.1,0,0.1,0l0,0c0,0,0.1,0,0.2,0
							C212.9,135.8,213.5,135.7,214,135.6z"/>
					</g>
				</g>
			</g>
		</g>
		<g>
			<g>
				<g>
					<path class="st0" d="M415.2,451.6c0,0,0.1,0.4,0.1,0.9c0,0.4,0,0.9,0,0.9C415.3,452.5,415.3,452,415.2,451.6z"/>
					<path class="st0" d="M359.8,320.8l0.2,0.2C359.9,320.8,359.9,320.7,359.8,320.8z"/>
					<path class="st0" d="M341.7,293.1l0.1-0.9C341.7,292.7,341.7,292.9,341.7,293.1z"/>
					<g>
						<path class="st0" d="M354.7,352.2c3.9,12.7,8.7,25.2,14.2,37.3c5.5,12.1,11.8,23.7,18.1,34.9c3.1,5.5,6.1,10.9,9,16.3
							c1.5,2.7,2.9,5.5,4.3,8.2l1,2.1c0.2,0.4,0.4,0.8,0.6,1.3c0.1,0.2,0.2,0.5,0.4,0.7c0.1,0.2,0.3,0.5,0.3,0.4
							c0.1,0.2,0.3,0.3,0.3,0.6c0,0.3,0.1,0.3,0.1,1.1l5-5.6l-5.2,0.8l-2.6,0.4l-1,0.1c-0.4,0.1-0.7,0.1-1.1,0.2l-1,0.4l-0.6,0.2
							c-2.7,1.1-5.7,1.7-9,2.1c-3.3,0.4-6.8,0.6-10.6,1.1c-1.9,0.2-3.8,0.5-5.7,1c-1.7,0.4-3.4,0.8-5.2,1.2
							c-13.5,2.9-27.5,3.8-41.7,5c-7.1,0.6-14.3,1.2-21.5,2.2c-7.1,1-14,2.1-21,3c-3.5,0.4-7,0.8-10.5,1.1c-1.7,0.1-3.5,0.3-5.2,0.4
							l-1.3,0.1l-1.5,0.1c-1,0.1-1.9,0.2-2.9,0.4c-3.7,0.6-7.2,1.5-10.1,1.7c-1.4,0.1-2.7,0-3.7-0.4c-1-0.4-1.8-1-2.6-1.9l-0.6-0.8
							l-0.3-0.4c-0.1-0.1-0.2-0.3-0.3-0.5c-0.3-0.7-0.7-1.2-1-2c-0.4-0.8-0.7-1.5-1-2.2c-0.3-0.7-0.5-1.3-0.6-1.9
							c-0.1-0.6-0.2-1.4-0.3-2.2l-0.1-1.3c0-0.4,0-0.9-0.1-1.4c-0.1-1.9-0.4-3.9-0.8-5.8c-0.3-1-0.5-2-0.9-3c-0.2-0.5-0.3-1-0.6-1.5
							l-0.7-1.5c-1.1-1.9-2.5-3.9-4.5-5.3c-1.9-1.4-4.2-2.3-6.3-2.8c-2.2-0.5-4.3-0.5-6.4-0.5c-2,0.1-3.9,0.4-5.5,0.6l-5.1,0.8
							c-3.4,0.5-6.8,1-10.2,1.5c-6.8,1-13.6,1.9-20.4,2.8c-13.6,1.7-27.3,3-41.1,3.6c-1.9,0.1-3.7,0.1-5.6,0.2
							c-2,0.1-3.9,0.3-5.8,0.5c-3.8,0.5-7.6,1.3-11.2,2.2c-1.8,0.4-7.1,2.2-12.2,3.9c-1.2,0.4-2.5,0.8-3.7,1.1
							c-1.2,0.3-2.5,0.7-3.6,1c-2.3,0.7-4,1.4-4.8,1.7c-0.8,0.3,1.5-0.1,4.4-0.6c1.5-0.2,3.1-0.4,4.4-0.6c1.4-0.2,2.5-0.4,3.3-0.5
							c4.8-0.9,10.8-2.3,16.7-3.3c2.9-0.5,5.8-0.9,8.4-1.1c2.6-0.2,4.9-0.2,6.9-0.3c15.6-0.3,22.9-0.5,38.9-1.9
							c8.2-0.7,16.4-1.6,24.6-2.5c4.1-0.5,8.1-1,12.2-1.5l6.1-0.8c2-0.2,3.8-0.4,5.6-0.3c1.8,0.1,3.4,0.5,4.8,1.1
							c1.4,0.7,2.5,1.6,3.4,2.9c0.9,1.2,1.5,2.9,1.9,4.6l0.3,1.3l0.2,1.4c0.2,0.9,0.2,1.8,0.2,2.8c0.1,1.9,0,4.1,0.6,6.6
							c0.3,1.3,0.7,2.4,1.1,3.5l0.6,1.5c0.2,0.5,0.4,0.9,0.7,1.5c0.5,1.1,1,2.2,1.8,3.2c0.4,0.5,0.7,1.1,1.2,1.6
							c0.5,0.5,0.9,1,1.5,1.5c0.6,0.4,1.1,0.9,1.7,1.3c0.6,0.3,1.3,0.7,2,1c0.7,0.2,1.4,0.4,2.1,0.7c0.7,0.2,1.3,0.2,2,0.3
							c4.3,0.4,7.8-0.4,11-0.9c1.6-0.3,3.1-0.5,4.6-0.6l1.1-0.1c0.3,0,0.7,0,1.2-0.1l2.6-0.1c6.9-0.3,13.7-0.9,20.5-1.7
							c3.4-0.4,6.8-0.9,10.2-1.3c3.4-0.5,6.7-0.9,10-1.3c6.6-0.7,13.3-1.2,20-1.5c13.5-0.8,27.3-1.4,41.1-4.3l2.6-0.5
							c0.7-0.1,1.4-0.3,2.1-0.4c1.4-0.2,3-0.4,4.5-0.5c3.2-0.3,6.6-0.4,10.2-0.7c3.6-0.4,7.5-1,11.4-2.4l0.3-0.1c0,0,0.1,0,0.1,0
							c0.1,0,0,0,0.6-0.1l2.5-0.3l5.1-0.6l5.7-0.7l0-5.7l0-2.1c0-0.9-0.1-1.7-0.3-2.6c-0.2-0.8-0.6-1.6-1-2.4
							c-0.1-0.2-0.2-0.4-0.3-0.6l-0.2-0.3l-0.1-0.1c-0.1-0.2-0.2-0.3-0.3-0.5c-0.1-0.1-0.2-0.3-0.2-0.5l-0.3-0.6l-0.6-1.3l-1.2-2.7
							l-2.5-5.3c-1.7-3.5-3.4-7.1-5.2-10.5c-3.5-7-7-13.9-10.4-20.7c-6.8-13.7-12.9-27.6-18.1-41.8c-2.6-7-5-14.1-7.2-21.3l-1.6-5.4
							c-0.6-2-1.2-4-1.9-5.9c-1.4-3.8-2.8-7.3-4.2-10.8c-1.3-3.4-2.5-6.8-3.3-10.1c-0.4-1.7-0.7-3.2-0.9-4.8
							c-0.2-1.6-0.3-3.2-0.2-4.9c0.1-6.6,1.7-13.8,3.4-21.1c4-16.9,10.2-33.6,14.8-51.4c2.8-11.2,4.8-22.3,7.5-32.9
							c0.3-1.3,0.7-2.6,1-3.9l0.5-2l0.6-2l2.4-8l4.9-16.1c3.3-11,6.1-22.2,8.3-33.4c2.2-11.3,3.9-22.6,5.2-33.9
							c0.6-5.1,1.2-10.3,1.4-15.7c0.2-5.4,0.2-10.9-0.7-16.5c-0.4-2.8-1.1-5.8-2-8.5c-0.9-2.7-2-5.5-3.5-8.1
							c-1.4-2.7-3.2-5.2-5.4-7.6c-2.1-2.4-4.7-4.5-7.5-6.2c-1.4-0.8-2.9-1.6-4.4-2.2c-1.6-0.7-2.9-1-4.3-1.5
							c-2.8-0.8-5.6-1.4-8.4-1.9c-5.6-0.9-11.1-1-16.4-0.9c-2.7,0.1-5.3,0.2-7.8,0.3l-3.8,0.2l-0.9,0.1l-0.5,0l-0.9,0.1
							c-1.3,0.1-2.4,0.5-3.5,0.8c-2.1,0.8-3.7,1.7-5.2,2.6c-1.4,0.9-2.6,1.9-3.6,2.7c-1,0.8-2,1.6-2.8,2.3c-0.8,0.6-1.6,1.2-2.2,1.5
							l-0.2,0.1l-0.2,0.1c-0.1,0-0.3,0.2-0.3,0.1c0,0-0.1,0-0.1,0l0,0l0,0l-0.2,0c-0.4,0.1-0.9,0.3-1.3,0.4
							c-1.7,0.5-3.3,1.2-4.9,1.9c-3,1.4-5.8,2.9-8.5,4.4c-1.3,0.7-2.6,1.5-3.9,2.2c-0.7,0.4-1.1,0.6-1.5,0.8
							c-0.5,0.2-0.9,0.4-1.5,0.6c-2.1,0.8-5,1.3-8.5,2.2c-1.7,0.5-3.6,1.1-5.4,2l-1.1,0.5l-0.8,0.4c-0.5,0.3-1.1,0.5-1.7,0.7
							c-2.3,0.9-4.7,1.6-7.2,2.2c-4.9,1.1-10,1.7-14.6,2.4c-4.4,0.8-5.8,2.1-5.8,3.2c0-0.5,1.5-0.6,3.8-0.5c2.3,0.1,5.3,0.4,8.4,0.7
							c3.1,0.3,6.2,0.5,8.7,0.6c2.5,0,4.4-0.1,4.8-0.1c2.7-0.3,5.4-0.9,8.1-1.9c2.5-0.9,5-1.4,7.7-1.7c2.7-0.4,5.7-0.8,8.7-1.8
							c0.7-0.2,1.5-0.6,2.2-0.9l1.9-0.9c1.3-0.6,2.5-1.2,3.8-1.7c2.4-1.1,4.8-2.1,7.1-2.9c1.2-0.4,2.3-0.7,3.4-1
							c0.3-0.1,0.5-0.1,0.8-0.2l0.4-0.1c0.1,0,0.4-0.1,0.6-0.1c0.4-0.1,0.9-0.2,1.3-0.4l1.2-0.5c3.1-1.3,5.3-3,7.4-4.4
							c1-0.7,2-1.4,2.9-1.9c0.9-0.5,1.8-0.9,2.4-1.1c0.2-0.1,0.3-0.1,0.5-0.1c0.1,0,0.3-0.1,0.4,0c0.1,0,0.2,0,0.3,0l1,0
							c1.3,0,2.6,0,3.9,0c2.6,0,5.1,0,7.7,0.1c5.1,0.1,10.2,0.5,15.1,1.4c2.6,0.5,5.1,1.1,7.4,2c2,0.8,3.9,1.8,5.5,3.2
							c1.6,1.4,3,3.1,4.3,5c1.2,2,2.3,4.2,3.1,6.5c0.2,0.6,0.4,1.2,0.6,1.8c0.2,0.6,0.3,1.2,0.5,1.7c0.1,0.6,0.3,1.2,0.4,1.8
							l0.3,1.9c0.4,2.5,0.6,5.1,0.6,7.8c0.1,5.4-0.4,11-1,16.7c-1.3,11.6-2.9,23.1-5.1,34.5c-2.2,11.4-4.9,22.7-8.3,33.8l-4.4,14.6
							l-2.2,7.3l-1.1,3.7c-0.4,1.2-0.7,2.5-1.1,3.8c-2.7,10.1-4.6,20.2-6.8,29.9c-4.1,19.1-11.3,38-16.2,58.3
							c-1.4,6-2.9,12.2-3.6,19c-0.3,3.4-0.4,7-0.1,10.6c0.1,0.9,0.2,1.8,0.3,2.7c0.2,0.9,0.3,1.9,0.5,2.7c0.3,1.7,0.8,3.4,1.2,5.1
							c1.9,6.6,4.4,12.5,6.4,18.1c0.5,1.4,1,2.8,1.4,4.1c0.2,0.7,0.4,1.3,0.6,2l0.6,2.3C352.9,346.1,353.8,349.2,354.7,352.2z"/>
					</g>
				</g>
			</g>
		</g>
		<g>
			<g>
				<g>
					<path class="st0" d="M228,214.2l0.2,0C228.1,214.2,228.1,214.2,228,214.2z"/>
					<path class="st0" d="M212,211.1l0.2,0C212.2,211.1,212.1,211.1,212,211.1z"/>
					<path class="st0" d="M200.2,203c0,0,0.2-0.3,0.2-0.3C200.3,202.9,200.2,203,200.2,203z"/>
					<g>
						<path class="st0" d="M196.2,223l0,1.8l1.7-0.1l0.8-0.1c0.3,0,0.4,0,0.7,0l2.5,0l2.5,0l1.7,0.6l1.7,0.6
							c0.6,0.2,1.2,0.4,1.6,0.5c0.7,0.2,1.5,0.4,2.2,0.5c3,0.5,5.8,0.6,8.5,0.4c5.9-0.4,11.1-1.8,16.2-1.4
							c5.9,0.4,11.8,0.7,17.6,0.1c5.9-0.6,11.5-0.8,17.3-1.1c5.6-0.3,11-2.1,16.6-2.2c1.5,0,3,0,4.5,0c0.7,0,4.3-1.3,4.9-1.8
							c0.3-0.2-1.9-0.9-2.6-1.1c-2-0.6-5.2-1.3-6.7-1.4c-3.2-0.3-4.7-0.4-7.9-0.3c-6.6,0.2-13,0.5-19.5-0.6
							c-5.2-0.8-10.6-0.1-15.8-0.8c-1.4-0.2-2.8-0.4-4.2-0.7l-2.1-0.4c-0.7-0.1-1.4-0.3-2.2-0.4c-3.1-0.6-6.1-0.9-9-0.9
							c-3.1-0.1-6-0.4-8.6-1c-1.3-0.3-2.6-0.6-3.8-0.9c-0.3-0.1-0.6-0.2-0.9-0.3l-0.6-0.2c-0.1,0-0.2-0.1-0.2-0.1
							c-0.1,0-0.2,0-0.3-0.1c-0.5,0.1-0.5-0.3-0.5-0.7c0-0.2,0.1-0.4,0.2-0.6c0-0.1,0.1-0.2,0.2-0.3c0,0,0.2-0.2,0.4-0.4
							c0.2-0.2,0.3-0.3,0.5-0.5c0.9-0.9,2.2-1.8,3.6-2.8c1.4-1,3-2,4.7-3.2l0.8-0.6l0.4-0.3c0.1,0,0.2-0.1,0.2-0.1l0.1-0.1
							c0.3-0.2,0.4-0.3,0.8-0.5c0.7-0.5,1.6-1,2.5-1.5l5.7-3.2l12-6.5c0.7-0.4,1.5-0.8,2.2-1.2l1.5-0.8c0.7-0.4,1.3-0.8,2-1.1
							c1.3-0.8,2.5-1.6,3.8-2.4c1.1-0.9,2.2-1.8,3.2-2.8l0.8-1.1c0.3-0.4,0.6-0.8,0.7-1.2c0.3-0.8,0.7-1.6,0.8-2.6
							c0.2-2-0.2-3.7-1-5.5c-0.9-1.7-2.3-3.4-4.1-5c-0.9-0.8-1.8-1.5-2.8-2.3c-0.5-0.4-1-0.7-1.5-1.1l-0.8-0.5l-0.4-0.3l-0.2-0.1
							c-2-1.2-4.4-2.6-6.7-3.5c-1.2-0.5-2.4-0.9-3.6-1.1c-1.2-0.2-2.4-0.3-3.3,0c-0.2,0.1-0.3,0.3-0.6,0.4c-0.1,0.1-0.2,0.1-0.3,0.2
							c-0.1,0.1-0.1,0.2-0.2,0.3c-0.2,0.5-0.5,0.9-0.9,1.4c0.1-0.2,0.2-0.3,0.1-0.4c0,0-0.1-0.1-0.1-0.1c0,0.1,0.1,0.1,0.1,0.2
							c0.1,0.2,0.5,0.9,0.8,1.5c0.6,1.3,1.2,2.8,1.3,3c1.2,2,2.9,3.6,4.4,5.4c0.7,0.9,1.3,1.8,1.9,2.6c0.1,0.1,0.2,0.2,0.2,0.3
							l0,0.2c0,0.1,0.1,0.3,0.1,0.4c0,0.3,0,0.5,0,0.7c-0.1,0.9-0.5,1.3-0.7,1.6c-0.1,0.2-0.5,0.4-0.7,0.4c-0.3,0.1-0.4,0.1-0.6,0.1
							l-4.3,2.3c-3.4,1.8-6.8,3.6-10.2,5.5c-1.8,1-3.6,2-5.5,3c-0.5,0.3-0.9,0.6-1.4,0.8c-0.5,0.3-0.9,0.6-1.5,0.9l-1.6,1l-0.9,0.7
							l-0.9,0.7c-1.1,1-2.6,2.1-4.3,3.3c-1.7,1.2-3.6,2.6-5.6,4.4c-0.3,0.3-0.6,0.6-0.9,0.9c-0.3,0.3-0.6,0.5-1,1
							c-0.8,0.9-1.6,1.8-2.1,2.8l-0.9,1.5c-0.3,0.5-0.5,1.1-0.7,1.6c-0.2,0.5-0.5,1.1-0.7,1.6l-0.5,1.7c-0.1,0.3-0.2,0.6-0.2,0.8
							l-0.1,0.8l-0.2,1.7c-0.1,1.1,0,2.2-0.1,3.4C196.2,218.8,196.2,220.9,196.2,223z"/>
					</g>
				</g>
			</g>
		</g>
	</g>
</g>
</svg>
