<?xml version="1.0" encoding="utf-8"?>
<!-- Generator: Adobe Illustrator 19.2.1, SVG Export Plug-In . SVG Version: 6.00 Build 0)  -->
<svg version="1.1" xmlns="http://www.w3.org/2000/svg" xmlns:xlink="http://www.w3.org/1999/xlink" x="0px" y="0px"
	 viewBox="0 0 500 500" style="enable-background:new 0 0 500 500;" xml:space="preserve">
<style type="text/css">
	.st0{fill:#231F20;}
	.st1{display:none;}
	.st2{display:inline;}
</style>
<g id="Layer_1">
	<g>
		<g>
			<g>
				<g>
					<g>
						<g>
							<path class="st0" d="M149.9,397.7c-0.1,0.1-0.2,0.1-0.2,0.2C149.8,397.9,149.9,397.8,149.9,397.7z"/>
							<path class="st0" d="M222.3,413.7l-0.9-0.1C222,413.8,222.2,413.8,222.3,413.7z"/>
							<path class="st0" d="M105.3,395.5c0.1,0,0.1,0,0.1-0.1c-0.7,0-1.6,0.1-3.1,0.1c0,0,0.8,0,1.5,0
								C104.6,395.5,105.3,395.5,105.3,395.5z"/>
							<path class="st0" d="M382.1,401.6l-1,0C381.6,401.6,381.9,401.7,382.1,401.6z"/>
							<path class="st0" d="M289,411.4c0.3-0.2,0.7-0.3,1.2-0.4C289.6,411,289.2,411.2,289,411.4z"/>
							<path class="st0" d="M81.1,392.1l1.3,0.2C82.4,392.2,81.9,392.1,81.1,392.1z"/>
							<path class="st0" d="M36.3,402c0,0,0.1,0,0.1,0.1C36.5,402,36.5,402,36.3,402z"/>
							<path class="st0" d="M54.1,399.8c0.4-0.1,0.8-0.3,1.2-0.4C54.8,399.5,54.1,399.7,54.1,399.8z"/>
							<path class="st0" d="M55.9,399.2c-0.2,0.1-0.4,0.1-0.6,0.2C55.7,399.3,55.9,399.3,55.9,399.2z"/>
							<path class="st0" d="M279.9,90.3c-1.3,0.4-2.3,1-3.4,1.6L279.9,90.3z"/>
							<path class="st0" d="M478.3,350.1l0.2,0.3C478.4,350.2,478.3,350.1,478.3,350.1z"/>
							<path class="st0" d="M279.3,93.9l-0.9,0.2C278.7,94.1,279,94,279.3,93.9z"/>
							<path class="st0" d="M105.4,388.8c1.3-0.5,4.1-0.1,4-0.5C108,388.4,106,388.3,105.4,388.8z"/>
							<path class="st0" d="M462.6,320.2l-0.1-0.9C462.5,319.8,462.5,320,462.6,320.2z"/>
							<path class="st0" d="M279.3,93.9l1.1-0.2c-0.1,0-0.2-0.1-0.4-0.1C279.7,93.7,279.5,93.8,279.3,93.9z"/>
							<path class="st0" d="M476,199.7C476,199.7,476,199.7,476,199.7c0,0.2,0,0.2,0.1,0.3L476,199.7z"/>
							<path class="st0" d="M476.8,191.8c0,0.6,0,1.1,0.1,1.7C477,192.6,476.9,192.1,476.8,191.8z"/>
							<path class="st0" d="M276.5,91.8l-1.9,0.9C275.3,92.5,275.9,92.2,276.5,91.8z"/>
							<path class="st0" d="M471.5,102.7c0.2,0.3,0.3,0.6,0.5,0.9C471.8,103.1,471.6,102.8,471.5,102.7z"/>
							<path class="st0" d="M283,412.3c-0.2,0-0.5,0-0.7,0.1C282.3,412.5,282.3,412.5,283,412.3z"/>
							<path class="st0" d="M340.3,392.8L340.3,392.8L340.3,392.8C340.3,392.8,340.3,392.8,340.3,392.8z"/>
							<path class="st0" d="M337.2,393.6c1,0,2.4-0.5,3.1-0.9C339.3,392.9,338.4,393.1,337.2,393.6z"/>
							<path class="st0" d="M347.2,392.2c-0.1,0-0.2,0-0.4,0C347,392.3,347.1,392.3,347.2,392.2z"/>
							<path class="st0" d="M283.3,401.6C283.3,401.6,283.3,401.6,283.3,401.6C283.4,401.6,283.4,401.6,283.3,401.6L283.3,401.6z"/>
							<path class="st0" d="M295.8,399.1c0.2,0,0.6,0,0.9,0C296.5,399.1,296.2,399.1,295.8,399.1z"/>
							<path class="st0" d="M379.1,389.4C379.1,389.4,379.1,389.4,379.1,389.4C379.1,389.4,379.1,389.4,379.1,389.4L379.1,389.4z"/>
							<path class="st0" d="M463.7,378.8c-0.2,2.8-0.3,4.9-0.4,5.4c-0.1,2-0.2,4-0.3,5.9l0,1.1l0,1.1l0.1,1.6c0.1,1,0.1,1.9,0.2,2.9
								c0.1,0.9,0.1,1.7,0.1,2.3l0,0.3l0,0.1l0,0l0,0.1c0,0,0,0.1,0,0.2c0.1,0.2,0,0.5-0.1,0.8c-0.1,0.1-0.2,0.2-0.4,0.2
								c-0.1,0-0.2,0-0.3,0.1c-0.1,0-0.1,0-0.2,0l-0.7,0c-0.8-0.1-1.8-0.1-3-0.2c-0.4,0-0.3,0-0.4,0c0,0-0.1,0-0.1,0l-0.7-0.2
								c-1.7-0.5-3.3-0.9-4.9-1.4c-3.2-1-6.4-2.1-9.7-3.1c-6.5-2.1-13.1-4.1-20.6-5.2c-0.4-0.1-0.7-0.1-1.1-0.1
								c-0.3,0-0.6-0.1-0.9-0.1l-0.4,0l-0.2,0c-0.6,0-1.2,0-1.7,0c-1.1,0-2.1,0-3.1,0.1c-2,0.1-3.7,0.2-5.4,0.4
								c-3.5,0.3-6.8,0.6-11.6,0.4c-4.5-0.2-9.1-0.7-13.6-1.3c-0.3,0-0.9-0.1-1.3-0.1l-0.9,0l-1.7-0.1l-3.5-0.1
								c-2.3,0-4.6,0-6.9,0.1c-10,0.5-17.5,3-27.1,3.9c0.6-0.5,0.3-1,1.2-1.5c-2.4,0.5-4.6,1.2-7,1.7c-2.4,0.5-5,1-7.9,1.1
								c-3.9,0.2-5-1.1-9.4,0.7c-5.5,0.2-10.8-0.1-17.6,1.5c-0.4,2.3-14.3,3.9-20.5,5.3c-2.5,0.6-4.8,1.2-7.1,1.8
								c-1.1,0.3-2.3,0.6-3.5,0.9c-1.2,0.3-2.4,0.6-3.6,0.8c-6.4,1-10,1.3-16.6,2c-4,0.4-7.1,0.5-10.1,0.3c-3-0.2-6.1-0.7-9.6-1.7
								c-0.9-0.3-1.7-0.5-2.5-0.8c-0.8-0.3-1.5-0.5-2.1-0.7c-1.3-0.4-2.4-0.8-3.5-1.1c-2.2-0.7-4.4-1.1-8-1.7
								c-7-1.2-5.9-1.1-13.5-3.5c-5.1-1.5-10.4-2.9-15.8-3.7l-7.9-1.1c-2.6-0.3-5.3-0.7-7.9-1c-7-0.8-14-1.8-21-2.2
								c-7.5-0.4-13.8-0.4-19.8-0.7c-3-0.1-5.9-0.4-8.9-0.7c-3-0.2-6.1-0.6-9.3-1.1c-3.8,1.1-11.3,1.9-19.1,2.9
								c-7.9,0.9-16.2,2-21.7,2.7c-5.3,0.7-13.3,1.6-21,2.9c-7.7,1.3-15,3-18.8,5c1.1-0.1,11.6-0.9,10.6-0.3c0.4-0.2,0.8-0.6,1-0.8
								c0.3,0.6,1.1,0.5-0.1,1.4c3.6-1,7.1-1.9,10.5-2.9c2.3,0,0.8,0.2,4.8-0.4c-0.4,0.3-0.1,0.7-0.6,1.1c0.8-0.4,1.5-0.6,2.8-0.9
								c0.4,0.1,1.3,0.1,1.6,0.3c0.3-0.1,5-0.9,5-0.9c0.1,0.2,0.9,0.3,1.1,0.4c1-0.9,5-1.8,7.5-1.5c3.4-0.7,7-1.5,10.6-2
								c0.4,0.4,1.7,0.4,1.7,0.9c1.2-0.3,3.4-0.6,4.5-1c-0.1,0.5,1,0.4-0.2,1.1c1-0.3,2.5-0.5,3.6-0.8c0.8,0.1,2.5,0.2,3.1,0.4
								c0.2-0.2,0.5-0.4,0.7-0.5c0.7-0.1,0.9,0.2,1.6,0.1c2-0.6,3.3-0.5,4.8-0.4c1.4,0.1,2.9,0.2,5.2,0c0.3-0.2,0.1-0.3,0.3-0.5
								c0.4,0,0.8,0,1.2,0c0.3,0.2,1.2,0.4,1.6,0.6c0-0.1,0.1-0.2,0.4-0.3c1.8,0.1,3.6,0,5.4,0c1.8,0,3.5,0.1,5.3,0.2
								c-0.3,0.1-0.5,0.3-0.6,0.4c3.7,0.2,7.4,0.2,10.9,0.2c2,1.5,13.2,1.7,18.8,2.2c0.1-0.1,0.2-0.2,0.3-0.3
								c3.9,0.7,8.4,0.7,11.6,1.4c-0.2,0.2-0.2,0.3,0,0.5c2,0.3,5.1,0.8,7.2,1c-0.2-0.1-0.4-0.3-0.6-0.4c1.3,0,2.6,0.2,3.8,0.3
								c0.4,0.2-0.7,0.1-0.2,0.3c0.7,0.3,2.6,0.5,3.5,0.8c0.3,0.1-1.1,0-1.1,0c1,0,1.6,0.1,2.1-0.1c1.1,0.3,3,0.6,4.2,1
								c-1.4-0.7,0.1,0,0.5-0.6c2.3,0.8,6.7,1.3,7.9,2.4c2.4,0.4,5.2,1.3,6.7,1.7c0.3,0.1,1.3,0.1,1.6,0.2c0.4,0.3,1.5,0.8,2.1,1.2
								c0.1-0.1-0.5-0.4-0.5-0.5c0.9,0.2,3.2,0.9,4,1.1c0.6,0.6,4.1,1.9,7.9,3.2c3.8,1.3,8,2.4,9.9,2.9l0,0.4
								c0.4-0.1,1.4-0.1,1.7-0.3c0.5,0.2,0.8,0.5,1,0.7c1,0.2,2.4,0.8,4,1.2c1.6,0.4,3.3,0.8,4.9,1.1c-0.6-1.1,4.5-0.6,10.4-0.4
								c6,0.2,12.7-0.2,15.2-0.5c0.5,0,0.4,0.3,0.6,0.4c1.1-0.3,2.2-0.6,3.1-0.9c0,0.1,0.1,0.4,0.3,0.6c1-0.4,1.8-0.7,2.8-0.9
								c0.9-0.2,2.1-0.4,3.4-0.7c-0.4,0.2-1.4,0.5-1.8,0.6c7-1.8,14.5-3.7,21.6-4.7c0,0.2-0.6,0.3-0.6,0.4c0.8-0.1,1.7-0.4,2.6-0.5
								c-0.2,0.2-0.3,0.3-0.2,0.4c1.7-0.2,4.9-0.7,6.7-1.1c0.4-0.2,0.8-0.4,1.2-0.6c2.8-0.4,6-1,8.8-1.5c-0.3,0.1-0.7,0.3-1.1,0.4
								c1.3-0.3,2.5-0.6,3.7-1c0.4,0-0.2,0.3,0.2,0.2c5.9-1.5,8.6-1.5,14.4-2.3c0.1-0.2-0.6-0.1-0.6-0.2c2.6-0.4,2.4-0.3,3.9-0.2
								c0.2,0,1.5-0.2,1.9-0.2c-0.2,0.2-0.4,0.3-0.8,0.5c1.8-1,6.6-1.6,11.6-1.9c5-0.3,10.1-0.2,12.4,0.1c2.2-0.5,4.8-0.8,7.6-1
								c2.8-0.1,5.7-0.3,8.7-0.2c1.5,0,3,0,4.5,0.1c1.5,0.1,2.9,0.1,4.3,0.2c0.7,0,1.4,0,2.1,0.1l0.4,0c0.1,0,0.1,0,0.1,0l0.1,0
								l0.3,0l0.5,0.1c1.3,0.2,2.6,0.3,3.8,0.4c4.5,0.4,8.2,0.2,13.5,0.8c3.1,0.3,6,0.6,8.9,0.9c1.5,0.1,2.9,0.3,4.4,0.4
								c1.4,0.1,2.8,0.2,4.3,0.3c0,0,0,0,0.2,0l0.5,0.1l0.9,0.2l1.9,0.3c1.3,0.2,2.5,0.5,3.8,0.7c2.5,0.5,5,1,7.5,1.6
								c5,1.2,9.9,2.5,14.7,4.1c1.6,0.5,3.4,1.2,5.2,1.9l0.7,0.3l0.3,0.1l0.6,0.2c0.4,0.1,0.8,0.3,1.2,0.4c0.4,0,0.9,0.1,1.3,0.1
								l0.1,0c0.1,0,0.1,0,0.1,0l0.1,0l0.1,0l0.2,0c0.2,0,0.3,0.1,0.5,0.1c0.4,0.1,0.7,0.1,1,0.2c0.2,0,0.4,0,0.7,0.1
								c0.3,0,0.6,0,1,0.1c1,0.1,2.1,0.1,3.3,0c1.1-0.1,2.3-0.2,3.4-0.5c1.1-0.3,2.1-0.6,3-0.9c0.5-0.4,0.8-0.7,1.2-1
								c1-0.9,2-1.8,2.7-2.8c0.4-0.5,0.7-1.1,1.1-1.6c0.3-0.6,0.6-1.2,0.9-1.8c0.2-0.6,0.5-1.2,0.7-1.9c0.2-0.7,0.4-1.3,0.5-2l0.2-1
								c0.1-0.3,0.1-0.7,0.1-0.9c0-0.5,0.1-1,0.1-1.4c0.1-2.3,0-4.3-0.1-6c0-0.8-0.1-1.8-0.1-1.9c0-0.9,0.1-1.8,0.1-2.7
								c0.1-1.8,0.1-3.6,0-5.3c0-1.8,0-3.6-0.1-5.5c-0.1-8.2,0.6-13.4,0.3-20.2c-0.1,0.2-0.2,0.5-0.3,0.7c0.1-2.9,0.1-6.3-0.5-8.8
								c0.2-0.5,0.3-1.3,0.5-1.8c-0.3-1.6-0.6-4.1-1-5.5c0.5-2.5,0.1-7.2,0-11.1c-0.7,0.3-0.4,0.4-1-2.5c0.3-0.3,0.6-1.5,0.9-1.6
								c-0.8,0.3-1.2-2.2-1.2-5.7c0.8-1.3,0.6-7.7-0.5-9.4c0.1-0.4,0.3-1,0.5-1.3c0-1.3-0.1-2.8-0.2-4.4c-0.1-1.6-0.2-3.3-0.3-4.9
								c-0.1-3.3,0-6.5,0.3-8.4c-0.3-0.6-0.6-2.2-0.9-2.8c0.3-0.5,0.6-1.6,0.9-2c-0.3-0.1-0.6-1.2-0.9-1.5c0.5-11.2,0.6-23,0.8-34.5
								c0.2-10.1-0.6-18.6,0.1-28.1c-0.1,1.4-0.3,2.4-0.5,3.6c-0.6-4.4,0.2-9.4,0.3-14.2c0.2-5,0-10,0.2-14.9
								c0.2-4.5,0.4-7.4,0.4-10.4c0.1-3,0-6.1-0.2-11c0.5-2.7,0.7-1.9,0.2-4.5c0.2-0.8,0.4-2.9,0.6-3.7c-0.1-0.6-0.2-1.7-0.4-2.4
								c0.8-2.3,1.3-7.6,1.6-13.6c0.3-5.9,0.4-12.4,0.2-16.4c-0.1-2.9-0.6-8.8-1.5-14.4c-0.5-2.8-1-5.5-1.5-7.6
								c-0.5-2.1-0.8-3.6-0.8-4.4c-0.2-0.5-0.4-1.1-0.8-1.9c-0.4-0.8-0.7-1.8-1.2-2.9c-1-2.1-2.3-4.5-3.9-6.7
								c-3.1-4.3-6.9-7.2-7.1-8.1c-1.3-0.8-3.9-2.6-6.8-4c-2.9-1.5-6-2.7-8.1-3.4c-4.2-1.3-8.3-2.2-12.3-3l-5.9-1.1l-5.8-1.1l-6-1.1
								c-2-0.4-4-0.6-6-0.9c-2-0.3-4-0.6-6-0.8l-6.1-0.6c-2-0.2-4-0.3-6.1-0.5l-6.1-0.4l-6.1-0.2c-2-0.1-4-0.1-6.1-0.1l-6.1,0
								c-2,0-4,0.1-6,0.2c-2,0.1-4,0.1-6,0.3l-6,0.4c-11.3,0.9-24.7,2.4-37.3,5.1c-12.6,2.6-24.6,6.4-33.3,10.5
								c-1,0.8-4,2.1-2.6,2.3c-2.3,0.9-3.7,0.4-4,1c3.3-0.7-0.6,1.5,2.7,1.2l-2,0.7c-0.3,0.5,2.6-1.2,2.3-0.5l0.3-1.1
								c1.7-0.4,2.6-0.5,3.3-0.3c1.4-0.8,2-2.4,5.9-2.8l-1,0.3c3-0.8,2,0.1,2.7,0.1l-0.7,0.2l2.7-0.2c-2,0.2-5,1.8-3.3,1.3
								c3.6-0.7-1,0,1.7-0.8c1.6-0.5,1.3,0.1,1.3,0.4c0,0,0.7-0.2,1.5-0.4c0.7-0.2,1.5-0.4,1.5-0.4c0,0.4-2,0.5-0.7,0.6l3.7-1.3
								c1,0.9,4-1.5,6-0.9c-2.7,0.9,0.3,0.3,0,0.7l6.7-1.4c0.7,0-1.7,0.7-0.7,0.4c1.3,0,2-0.7,2.7-0.8c0.6,0.2,5-0.9,5-0.1
								c4.6-0.3,1.8-1.3,6.1-1.5c0.3,0.2-0.5,0.3-1.2,0.5c-0.7,0.1-1.2,0.3-0.2,0.3l4.4-0.8c-0.4,0.3-0.8,0.8-2.4,1
								c3-0.3,5.7-0.4,8.2-0.5c2.5,0,4.8,0.1,7.1,0.1c2.3,0,4.5,0.1,6.8,0c2.3,0,4.8-0.3,7.5-0.6c1.6,0.4-1.1,0.4-2.2,0.8
								c1.4-0.5,5.1-0.5,8.8-0.3c3.7,0.3,7.4,0.7,8.9,0.6c0.2-0.1,0.3-0.3,0.5-0.4c9.3,1.1,20.6,0.8,30.6,2.1
								c-0.2-0.1-0.8-0.2-0.8-0.4c1.4-0.1,3.3-0.2,5.2-0.1c0.3,0.5,1.2,0.6,1.6,0.9c-0.4-0.2-0.8-0.4-1.1-0.6
								c0.2,0.2,1.1,0.5,2.3,0.8c1.3,0.3,3,0.7,5,1c1,0.2,2.1,0.4,3.2,0.6c1.1,0.2,2.3,0.5,3.6,0.7c2.5,0.5,5.2,1,7.9,1.5
								c5.5,1.1,11,2,15.2,3.2c4.2,1.1,7.2,2.3,8.4,2.9c3.6,1.6,6.6,3.8,8.6,6.4c1,1.3,1.8,2.8,2.4,4.4c0.1,0.4,0.3,0.8,0.4,1.2
								c0.1,0.4,0.3,0.8,0.4,1.3l0.8,3.2l0.4,1.7l0.3,1.6c0.2,1.1,0.4,2.1,0.6,3.2c0.3,2.2,0.6,4.3,0.8,6.5
								c0.4,4.4,0.6,8.9,0.6,13.5c0.4-0.2,0.4,0.4,0.7,0.7c-0.5,2.4-0.9,6.1-1.3,10.4c-0.4,4.3-0.7,9.4-0.9,14.6
								c0,5.1-0.3,10-0.4,14.6c-0.1,4.6-0.1,8.7,0,11.6c0.1,3.6-1.4,12.9-0.2,16.1c-0.3,9.1-0.3,18.7-0.2,28.8
								c0,8.2-1.4,32.9,0.3,37.3c-0.3,2.5-0.4,5.3-0.3,8.1c0.1-0.7,0.1-1.4,0.2-2c0.1,0,0.4,0,0.4-0.1c0.2,1.2,0.2,2.8,0.2,4.2
								c-0.6,0.7-0.8,2.3-0.9,4.5c-0.1,2.2,0,5.1,0.1,8c0.4,6.1,1.1,12.4,0.5,15.9c0.7,0.2,1,1.5,1.5,3.4c-1.3,1.2-0.9,7.7-0.2,14.3
								c0.7,6.6,1.4,13.3,0.8,15c0.3,2.8,0.2,1.7,0.2,4.4c-0.2-0.7-0.4-1.7-0.6-2.4c0.5,2.6,0.7,5.7,0.5,8.6
								c0.1-0.1,0.2-0.2,0.3-0.1c0,0,0,0.2,0,0.6c0,0.4,0,0.9,0,1.5c0,1.3,0,3-0.1,5C464.2,370.2,463.9,375.1,463.7,378.8z"/>
							<path class="st0" d="M281.7,401.8l1.6-0.2c0-0.1,0-0.3,0.7-0.6L281.7,401.8z"/>
							<path class="st0" d="M359.4,390.8c0.2-0.1,0.4-0.1,0.6-0.2C359.6,390.6,359.5,390.7,359.4,390.8z"/>
							<path class="st0" d="M378.6,389c-1.4,0.1-0.1,0.3,0.5,0.4C379.1,389.3,379.1,389.1,378.6,389z"/>
							<path class="st0" d="M239.4,408c0.3,0,0.5-0.1,0.4-0.2C239.4,407.8,239.3,407.9,239.4,408z"/>
							<path class="st0" d="M119.2,388.4c0.2,0,0.3,0,0.5,0.1C119.6,388.4,119.4,388.4,119.2,388.4z"/>
							<path class="st0" d="M126,389.7c0.3,0,0.8,0,1.4,0C126.8,389.6,126.4,389.6,126,389.7z"/>
							<path class="st0" d="M267.8,405.9c0.4-0.1,0.8-0.2,1.2-0.4C268.3,405.7,268,405.8,267.8,405.9z"/>
							<path class="st0" d="M128.8,389.6l1.7,0.2c0,0,0-0.1,0-0.1L128.8,389.6z"/>
							<path class="st0" d="M117,388.4c0.7,0,1.6,0,2.2,0C118.3,388.3,117.6,388.3,117,388.4z"/>
							<path class="st0" d="M196.5,398.1c0.1,0,0.1,0,0.2,0C198,398.2,197.2,398.1,196.5,398.1z"/>
							<path class="st0" d="M136.3,389.1c0.1,0,0.2,0,0.2,0l0.5-0.1L136.3,389.1z"/>
							<path class="st0" d="M109.4,388.3c0.3,0,0.6-0.1,0.9-0.1c-0.3,0-0.6,0-1,0C109.4,388.2,109.4,388.3,109.4,388.3z"/>
							<path class="st0" d="M171.1,392.7c-0.5,0.2-0.7,0.3-0.7,0.4C170.9,393.2,171.3,393.1,171.1,392.7z"/>
						</g>
					</g>
				</g>
			</g>
		</g>
		<g>
			<g>
				<g>
					<g>
						<g>
							<path class="st0" d="M261.2,260c0.1,0.1,0.1,0.1,0.3,0.1C261.3,260,261.2,260,261.2,260z"/>
							<path class="st0" d="M263.4,198.2l0.1,0.7C263.5,198.4,263.5,198.2,263.4,198.2z"/>
							<path class="st0" d="M260,297.1C260,297,260,297,260,297.1c-0.1,0.5-0.1,1.3-0.1,2.5L260,297.1z"/>
							<path class="st0" d="M217,85.6l0.8,0.2C217.4,85.7,217.2,85.6,217,85.6z"/>
							<path class="st0" d="M263.5,143.8c-0.1-0.2-0.2-0.6-0.3-1.1C263.2,143.3,263.3,143.7,263.5,143.8z"/>
							<path class="st0" d="M254.1,316.6l0.4-1.1C254.4,315.6,254.2,316,254.1,316.6z"/>
							<path class="st0" d="M255.2,354.3C255.3,354.3,255.3,354.3,255.2,354.3C255.3,354.1,255.3,354.2,255.2,354.3z"/>
							<path class="st0" d="M256.9,339.6c0-0.3-0.1-0.7-0.2-1.1C256.8,339,256.8,339.6,256.9,339.6z"/>
							<path class="st0" d="M256.7,338c0,0.2,0.1,0.3,0.1,0.5C256.8,338.3,256.7,338,256.7,338z"/>
							<path class="st0" d="M19.1,389.2c0,1.1,0.3,2,0.5,3L19.1,389.2z"/>
							<path class="st0" d="M96,75.6l0.2-0.2C96,75.5,95.9,75.6,96,75.6z"/>
							<path class="st0" d="M22.4,390.6l-0.1,0.8C22.4,391,22.4,390.8,22.4,390.6z"/>
							<path class="st0" d="M253.4,296.7c-0.4-1.1,0.1-3.3-0.2-3.3C253.2,294.5,252.9,296.1,253.4,296.7z"/>
							<path class="st0" d="M73.3,93.4l-0.7,0.2C72.9,93.5,73.1,93.5,73.3,93.4z"/>
							<path class="st0" d="M22.4,390.6l0.1-0.9c-0.1,0.1-0.1,0.2-0.2,0.3C22.4,390.1,22.4,390.3,22.4,390.6z"/>
							<path class="st0" d="M15.1,153.5C15.1,153.5,15.1,153.5,15.1,153.5c0-0.1,0-0.2-0.1-0.3L15.1,153.5z"/>
							<path class="st0" d="M14.5,160.1c0-0.5-0.1-0.9-0.1-1.4C14.3,159.4,14.4,159.8,14.5,160.1z"/>
							<path class="st0" d="M19.6,392.2l0.3,1.7C19.9,393.3,19.8,392.8,19.6,392.2z"/>
							<path class="st0" d="M15.6,231.4c0-0.2,0-0.4,0-0.7C15.5,231,15.5,231.2,15.6,231.4z"/>
							<path class="st0" d="M263.5,148.9c0,0.2,0,0.4-0.1,0.6C263.6,149.6,263.6,149.5,263.5,148.9z"/>
							<path class="st0" d="M244.9,106.8L244.9,106.8L244.9,106.8C244.9,106.8,244.9,106.8,244.9,106.8z"/>
							<path class="st0" d="M246.8,107.7c-0.4-0.5-1.3-0.8-1.9-0.9C245.5,107.2,246,107.4,246.8,107.7z"/>
							<path class="st0" d="M241,104.7c0.1,0,0.1,0.1,0.2,0.1C241.2,104.8,241.1,104.7,241,104.7z"/>
							<path class="st0" d="M252.9,147.5C253,147.5,253,147.6,252.9,147.5C253,147.5,253,147.5,252.9,147.5L252.9,147.5z"/>
							<path class="st0" d="M252.1,137.2c0.1-0.2,0.1-0.4,0.1-0.7C252.2,136.7,252.2,136.9,252.1,137.2z"/>
							<path class="st0" d="M216.1,98.1C216.1,98.1,216.1,98.1,216.1,98.1C216.1,98,216.1,98,216.1,98.1L216.1,98.1z"/>
							<path class="st0" d="M120.5,88.7c2.3,0.1,4,0.1,4.5,0.1c8.4-0.1,16.4-0.7,24.6-0.6c2.8,0,5.6,0.3,8.3,0.7
								c2.7,0.3,5.4,0.9,8,1.4c2.7,0.5,5.3,1.1,8.1,1.6c2.7,0.5,5.5,1,8.5,1.2c4.1,0.4,7,0.4,9.8,0.3c2.8-0.1,5.6-0.1,9.4,0.4
								c7.3,1.2,14.4,4,21.5,6c1.9,0.5,3.7,1,5.5,1.3c1.8,0.4,3.6,0.6,5.3,1c1.8,0.3,3.5,0.7,5.3,1.1c0.4,0.1,0.9,0.2,1.3,0.3
								l0.7,0.2l0.6,0.2c0.4,0.1,0.8,0.3,1.1,0.4c0.4,0.1,0.7,0.3,1.1,0.5c-0.6,0.2-0.7,0.7-1.4,0.8c1.5,0.4,3,0.9,4.3,1.7
								c1.3,0.9,2.6,2.1,3.1,3.8c0.4,1.1,0.1,1.9,0,2.6c0,0.2-0.1,0.3-0.1,0.5c0,0.1,0,0.2,0,0.3l0,0.1c0,0.1,0,0,0,0.3
								c0,0.3,0,0.5,0.1,0.8c0.1,0.4,0.1,0.4,0.2,0.7c0.1,0.4,0.3,0.8,0.5,1.2c-0.1,4.4-0.6,8.8,0.3,14.3c1.1,0.2,1.7,3.2,2.1,6.7
								c0.2,1.8,0.3,3.7,0.4,5.5c0.1,1.8,0.1,3.5,0.2,4.7c0.3,4.2,1.1,7.7,1.2,12c0.1,5.5-0.1,8.4,0.3,14.1c0.4,6.8,0.4,10.6-0.5,17
								c-0.4,3.3-0.7,5.3-0.8,7.2c-0.1,2-0.1,3.9,0.4,6.9c0.9,5.9,0.7,5,0.5,11.5c-0.2,8.7,0,17.4,0,26.2c0,5.8-0.3,11.6-0.3,17.3
								c0.2,12.3,1.4,20.8-1.2,31c1.9,6.2,1.4,24.5,0.9,33.6c-0.5,8.7-2.6,26.5-0.4,33.4c0.2-0.9,1.7-9.5,2.1-8.6
								c-0.2-0.4-0.4-0.8-0.6-1c0.7-0.2,0.7-0.8,1.4,0.3c-0.2-3.1-0.4-6.1-0.6-9c0.4-1.8,0.4-0.6,0.6-4c0.3,0.4,0.6,0.2,0.9,0.7
								c-0.2-0.7-0.3-1.3-0.3-2.4c0.2-0.3,0.4-1,0.6-1.3c0-0.1,0-1.2,0-2.2c0-1,0-2,0-2c0.2-0.1,0.4-0.6,0.6-0.8
								c-0.7-0.9-0.9-4.4-0.2-6.4c-0.2-2.9-0.4-5.9-0.4-8.9c0.4-0.3,0.7-1.4,1.1-1.3c-0.2-1-0.2-2.8-0.4-3.8
								c0.5,0.1,0.5-0.8,1.1,0.3c-0.2-0.9-0.2-2.1-0.4-3c0.2-0.6,0.5-2.1,0.7-2.5c-0.2-0.2-0.3-0.4-0.5-0.6c0-0.6,0.3-0.7,0.2-1.3
								c-0.7-3.4,0.5-4.5,0.2-8.3c-0.2-0.3-0.3-0.1-0.5-0.3c0-0.3,0-0.7,0-1c0.3-0.2,0.5-1,0.7-1.3c-0.1,0-0.2-0.1-0.3-0.4
								c0.3-3.1,0-6,0.1-9c0.2,0.2,0.3,0.4,0.5,0.5c0-3.1-0.1-6.1-0.4-9c1.4-1.7,1-11,1-15.6c-0.1-0.1-0.2-0.1-0.3-0.2
								c0.4-3.3,0-7,0.4-9.7c0.2,0.1,0.4,0.1,0.5,0c0.1-1.7,0.2-4.3,0.1-6.1c-0.1,0.2-0.2,0.4-0.3,0.5c-0.2-1.1-0.1-2.2-0.2-3.2
								c0.2-0.3,0.2,0.5,0.3,0.2c0.2-0.6,0.1-2.2,0.3-3c0-0.2,0.2,0.9,0.2,0.9c-0.1-0.8-0.1-1.3-0.4-1.7c0.2-0.9,0.2-2.6,0.4-3.6
								c-0.5,1.2,0-0.1-0.7-0.4c0.4-2.1,0-5.8,0.8-7c-0.1-2,0-4.5,0-5.8c0-0.3-0.2-1.1-0.2-1.4c0.2-0.4,0.4-1.4,0.5-2
								c-0.1-0.1-0.2,0.5-0.3,0.5c-0.1-0.8,0-2.8-0.1-3.4c0.4-0.6,0.7-3.7,0.8-7c0.3-3.2,0.4-6.7,0.5-8.2l0.4,0
								c-0.2-0.3-0.4-1.1-0.6-1.3c0.1-0.4,0.3-0.7,0.5-0.9c0.1-1.7,0.7-4.5,1-7c-1,0.6-1.1-3.5-0.9-8.2c0.2-4.7,0.5-10.1,0.5-12.2
								c0.1-0.4,0.4-0.3,0.5-0.4c-0.2-0.9-0.4-1.8-0.6-2.6c0.1,0,0.4,0,0.6-0.2c-0.6-1.7-0.6-2.8-0.8-5.1c0.1,0.4,0.2,1.2,0.3,1.5
								c-0.6-5.8-1.2-12.4-1.3-18.4c0.2,0,0.2,0.5,0.3,0.6c0-0.7-0.2-1.5-0.1-2.2c0.1,0.2,0.3,0.3,0.4,0.2c0-1.5-0.1-4.2-0.3-5.7
								c-0.2-0.3-0.3-0.7-0.5-1c0-2.4-0.4-5.1-0.7-7.5c0.1,0.3,0.2,0.6,0.3,0.9c-0.2-1.1-0.4-2.1-0.7-3.1c0-0.3,0.3,0.2,0.2-0.2
								c-0.5-2.5-0.8-4.3-1-6.1c-0.1-0.9-0.2-1.8-0.3-2.8l0-0.2c0,0,0,0,0,0c0,0,0-0.1,0-0.1c0,0,0-0.1,0,0l0-0.3c0-0.2,0-0.4,0-0.6
								c-0.1-0.8-0.2-1.6-0.4-2.5c-0.2-0.1,0,0.7-0.2,0.7c-0.3-1.5-0.5-2.2-0.7-2.7c-0.1-0.5-0.2-0.9-0.4-1.7c0-0.1-0.2-0.5-0.4-0.9
								c-0.2-0.4-0.5-0.8-0.6-1c0.2,0.1,0.5,0.3,0.9,0.6c-0.8-0.8-2-2.3-3.6-3.9c-1.6-1.6-3.6-3.3-5.8-4.8c-1.1-0.7-2.3-1.4-3.4-1.9
								c-1-0.5-2-0.9-2.9-1.4c-1.7-0.8-3.1-1.5-3.9-2.1c-1.9-0.3-4-0.9-6.3-1.6c-2.3-0.7-4.7-1.5-7.1-2.3c-4.8-1.7-9.7-3.3-13.6-4.3
								c-1.8-0.4-3.6-0.7-5.4-1c-1.8-0.3-3.7-0.6-5.9-1.1c-5.1-1.1-9.6-2-14.8-2.8c-8.8-1.3-17.6-2.1-25.9-3.4
								c-2.8-0.4-6.5-1.5-9-1.7c-1.6-0.1-4.6,0.1-6.5,0c-2.5-0.1-4.9-0.4-7.4-0.6c-3.1-0.1-6.1-0.1-9,0.1c-2.9,0.2-5.8,0.4-8.9,0.6
								c-3.4,0.3-6.2,0.2-8.9,0.3c-2.7,0.1-5.2,0.1-7.9,0.4c0.2,0.1,0.4,0.2,0.6,0.3c-2.4,0-5.2,0.3-7.3,0.9
								c-0.4-0.2-1.1-0.2-1.5-0.4c-1.3,0.4-3.3,0.8-4.5,1.3c-1.1-0.2-2.6-0.1-4.2,0.1c-1.7,0.2-3.5,0.5-5.1,0.7
								c0.3,0.7,0.4,0.4-2,1.2c-0.3-0.3-1.3-0.4-1.4-0.7c0.3,0.7-1.7,1.4-4.7,1.8c-1.3-0.6-6.6,0.4-7.8,1.8
								c-0.4-0.1-0.9-0.1-1.2-0.2c-1.1,0.3-2.3,0.6-3.7,1c-1.3,0.4-2.8,0.9-4.2,1.3c-2.8,0.9-5.4,1.7-7.1,2c-0.4,0.5-1.6,1.2-2,1.7
								c-0.5-0.1-1.5-0.1-1.9-0.2c0,0.3-0.7,1-0.8,1.3c-1.1,0.4-2.3,0.8-3.4,1.2c-1.1,0.5-2.3,0.9-3.4,1.4l-1.7,0.7l-1.7,0.8
								l-1.7,0.8l-0.8,0.4c-0.2,0.1,0,0-0.1,0l-0.1,0l-0.2,0l-0.1,0l-0.1,0l-0.3,0.1c-0.4,0.1-0.7,0.3-1.1,0.4
								c-0.7,0.3-1.5,0.6-2.2,1c-1.5,0.8-3,1.7-4.4,3c-1.4,1.3-2.8,2.9-3.8,4.9c-0.2,0.5-0.5,1-0.7,1.5l-0.2,0.6l0,0l-0.3,0.5
								l-0.5,1c-0.5,1.2-1,2.4-1.3,3.7c-0.3,1.3-0.6,2.6-0.8,4.4c0,1.1,0,1.4,0,1.9c0,0.5,0,1,0,1.4c0,1,0.1,1.9,0.1,2.9
								c0.1,3.8,0.2,7.5-0.1,11.4c0.1-1.1,0.3-2,0.4-3c0.6,3.6-0.1,7.8-0.1,11.7c-0.1,4.1,0.3,8.3,0.2,12.4
								c-0.1,7.5-0.2,9.7,0.7,17.7c-0.4,2.2-0.5,1.6,0,3.6c-0.2,0.7-0.4,2.3-0.6,3.1c0.2,0.5,0.3,1.5,0.5,2
								c-1.4,3.8-0.9,18.2-0.8,24.5c0.1,4.6,1.1,18.4,0.3,20.6c0.7,2.8,1.2,14.6,0,15.4c0.3,2-0.3,8.4-0.3,11.7
								c-0.2,26-0.2,52,0.4,77.9c0.4,18.3,0.7,43.2,3.8,58.5c0.5,0.9,0.8,3.6,1.4,2.6c0.2,2-0.7,3-0.2,3.3c0.3-2.8,1.3,0.8,1.9-1.9
								l0.1,1.7c0.4,0.3-0.4-2.3,0.2-1.9l-0.9-0.5c0.1-1.4,0.3-2.2,0.6-2.7c-0.4-1.3-1.6-2.1-1.1-5.3l0.1,0.9
								c-0.1-2.5,0.6-1.6,0.7-2.1l0,0.6l0.5-2.2c-0.3,1.6,0.5,4.3,0.4,2.9c0.2-3-0.2,0.8-0.4-1.5c-0.1-1.4,0.4-1,0.7-1l-0.1-2.5
								c0.4,0.1,0,1.7,0.4,0.7l-0.5-3.2c1.1-0.6-0.6-3.5,0.5-5c0.3,2.3,0.4-0.2,0.7,0.2l-0.1-5.7c0.1-0.5,0.3,1.5,0.3,0.6
								c0.3-1.1-0.3-1.7-0.3-2.3c0.3-0.5,0-4.2,0.7-4.1c0.5-3.8-0.9-1.6-0.5-5.2c0.4-0.5,0.1,2.8,0.6,1.2l-0.2-3.7
								c0.2,0.3,0.7,0.7,0.6,2.1c0.5-10,2.8-15.4,2.1-24.6c0.5-1.3,0.4,0.9,0.7,1.8c-0.9-2.4,0.9-12.3,1-14.8
								c-0.1-0.2-0.3-0.3-0.4-0.5c1.2-7.8,0.5-17.3,0.9-25.9c-0.1,0.1-0.1,0.7-0.3,0.7c-0.3-1.1-0.6-2.8-0.6-4.4
								c0.5-0.3,0.5-1.1,0.7-1.4c-0.2,0.4-0.3,0.7-0.5,0.9c1.6-1.8,1-35.1,1-40.5c0-15.7,0.6-31.5-0.1-47.1
								c-0.4,0.2-0.4-0.4-0.7-0.6c1.7-8.3,1-32.7,0.3-42.3c-0.2-2.9,1-10.6-0.3-13.2c0.1-7.5,0-15.4-0.1-23.7c0-0.8,0-1.9,0-3.1
								c0-0.2,0-0.3,0-0.5l0-0.2l0,0c0-0.1,0-0.2,0.1-0.3c0.1-0.3,0.2-0.7,0.3-1.1c0.2-0.5,0.3-1,0.6-1.5c0.1-0.3,0.2-0.5,0.3-0.8
								c0.1-0.3,0.3-0.5,0.4-0.8c0.4-0.8,0.5-1.1,0.7-1.7c0-0.1,0-0.1,0-0.1l0,0l0,0c0,0,0,0,0,0c0-0.1,0.2-0.1,0.3-0.3
								c0.3-0.3,0.9-0.7,1.7-1.1c0.4-0.2,0.8-0.4,1.2-0.6c0.2-0.1,0.3-0.1,1-0.4c0.3-0.1,0.5-0.2,0.8-0.3c0.3-0.2,0.6-0.3,0.9-0.5
								c2.1-1.2,3.6-2.2,4.2-3c1.9-0.5,3.9-1.4,5.9-2.3c-0.5,0.1-1.1,0.4-1.5,0.5c0-0.1-0.1-0.3-0.2-0.3c0.8-0.5,2-1,3-1.5
								c0.7,0.3,2,0.1,3.7-0.4c0.8-0.3,1.7-0.6,2.7-1c1-0.4,2-0.7,3.1-1.2c4.3-1.6,9-3.2,11.9-3.1c0-0.7,1-1.1,2.4-1.9
								c1.2,1.2,6.2,0,11.4-1.1c5.2-1.1,10.6-2.2,12-1.6c2.3-0.5,1.4-0.3,3.6-0.4c-0.6,0.2-1.4,0.5-1.9,0.7c2.1-0.6,4.6-1,7-1
								c-0.1-0.1-0.2-0.2-0.1-0.3c0,0,0.2,0,0.5-0.1c0.3,0,0.7-0.1,1.2-0.1c1.1-0.1,2.5-0.1,4.1-0.2c1.6-0.1,3.4-0.1,5.2-0.1
								C117.2,88.7,119,88.7,120.5,88.7z"/>
							<path class="st0" d="M252.9,148.9l0-1.3c-0.1,0-0.3,0-0.5-0.6L252.9,148.9z"/>
							<path class="st0" d="M231.4,102c-0.2,0-0.3,0-0.5,0C231.3,102.1,231.4,102,231.4,102z"/>
							<path class="st0" d="M216.4,98.6c1.1,0.2,0.2-0.2-0.3-0.5C216.1,98.2,216.1,98.3,216.4,98.6z"/>
							<path class="st0" d="M255.1,184.9c-0.1-0.2-0.1-0.4-0.3-0.3C255,184.9,255,185,255.1,184.9z"/>
							<path class="st0" d="M253.5,285.5c0-0.1,0.1-0.2,0.1-0.4C253.6,285.2,253.5,285.4,253.5,285.5z"/>
							<path class="st0" d="M254.5,280c0-0.3,0-0.6-0.1-1.1C254.4,279.3,254.4,279.7,254.5,280z"/>
							<path class="st0" d="M254.8,160.7c0-0.4-0.1-0.7-0.2-1C254.6,160.2,254.7,160.5,254.8,160.7z"/>
							<path class="st0" d="M254.3,277.7l0.1-1.4c0,0-0.1,0-0.1,0L254.3,277.7z"/>
							<path class="st0" d="M253.4,287.3c0-0.6,0-1.3,0.1-1.8C253.3,286.2,253.3,286.8,253.4,287.3z"/>
							<path class="st0" d="M255.3,221.9c0,0,0-0.1,0-0.2C255,220.7,255.1,221.3,255.3,221.9z"/>
							<path class="st0" d="M253.4,271.5c0-0.1,0-0.1,0-0.2l-0.2-0.4L253.4,271.5z"/>
							<path class="st0" d="M253.1,293.4c0-0.3,0-0.5-0.1-0.7c0,0.2,0,0.5-0.1,0.8C253,293.4,253.1,293.4,253.1,293.4z"/>
							<path class="st0" d="M254.2,242.9c0.2,0.4,0.4,0.5,0.5,0.6C254.7,243,254.6,242.7,254.2,242.9z"/>
						</g>
					</g>
				</g>
			</g>
		</g>
	</g>
</g>
<g id="Layer_2" class="st1">
	<g class="st2">
		<g>
			<g>
				<g>
					<path class="st0" d="M268.7,279.8l0.2,0C268.8,279.8,268.7,279.8,268.7,279.8z"/>
					<path class="st0" d="M239.6,279l0.1-0.2C239.6,278.8,239.6,278.9,239.6,279z"/>
					<path class="st0" d="M232.8,292.8l-0.2,0C232.7,292.8,232.8,292.8,232.8,292.8z"/>
					<g>
						<path class="st0" d="M244.9,293.9c5.4,0.3,10.9,0.1,16.3-0.7c5.6-0.8,11.1-2,16.7-2.2c3-0.1,6-0.2,9-0.3
							c1.5-0.1,3-0.1,4.5-0.2c1.5-0.1,2.9-0.3,4.4-0.4c5.9-0.7,11.8-0.7,17.9-1.1c2.9-0.2,5.9-0.9,8.6-1.4c2.8-0.5,5.6-1,8.4-0.9
							c1.5,0,3,0.2,4.5,0.3c0.7,0,4.3-0.9,5-1.2c0.3-0.2-1.8-1.2-2.4-1.4c-2-0.8-5.2-1.7-6.8-1.9c-3.3-0.4-4.8-0.6-8.2-0.5
							c-1.7,0.1-3.5,0.2-5.2,0.3c-1.7,0.1-3.3,0.2-5,0.2c-3.3,0-6.6-0.2-10-0.8c-2.7-0.4-5.5-0.5-8.4-0.4c-1.4,0-2.9,0.1-4.3,0.1
							c-1.4,0-2.8,0-4.2-0.1c-3-0.2-5.9-0.6-8.9-0.8c-1.5-0.1-3-0.2-4.4-0.3c-1.5-0.1-3-0.2-4.5-0.1c-6.4,0-12.7-0.9-19.1-1
							c-6.3-0.1-12.6,0-18.9-0.3c-3.7-0.2-7.3-0.4-11-0.8c-4.6-0.4-9.2-0.7-13.9-1c-4.8-0.3-9.5-0.4-14.1-0.7
							c-8.5-0.4-16.5-2.2-24.7-2.5c-4.4-0.1-10.1-0.7-14.2,1.7c-1,0.6-1.5,1.8-1.7,2.9c0.3-1.8,4.5,2.8,4.9,3c2,1.4,4.4,2.2,6.6,3.1
							c4.3,1.9,8.2,4.1,13,4.9c9.9,1.5,19.7,1.5,29.4,2.2c8.4,0.6,16.9,0.9,25.3,1.4C234.5,293.1,239.7,293.6,244.9,293.9z"/>
					</g>
				</g>
			</g>
		</g>
		<g>
			<g>
				<g>
					<path class="st0" d="M134.2,394l-0.1,0.2C134.2,394.1,134.2,394.1,134.2,394z"/>
					<path class="st0" d="M145.2,367.5l0.1,0.1C145.3,367.5,145.2,367.5,145.2,367.5z"/>
					<path class="st0" d="M133.5,357.7l0-0.2C133.5,357.6,133.5,357.7,133.5,357.7z"/>
					<g>
						<path class="st0" d="M129.5,368c-0.9,2.3-1.7,4.6-2.5,7c-0.8,2.3-1.4,4.8-2.1,7.2c-0.7,2.5-1.2,5-1.9,7.5
							c-0.4,1.2-0.7,2.5-1.2,3.7c-0.5,1.2-1,2.4-1.5,3.6c-2.4,5-5.2,9.7-7.6,14.8c-2.4,5.1-5.4,9.6-8.6,14.3
							c-3,4.5-5.1,9.6-8.6,13.8c-0.9,1.1-1.9,2.2-2.9,3.3c-0.1,0.1-0.3,0.4-0.5,0.9c0,0.1-0.1,0.2-0.1,0.3c0,0.1,0,0.1-0.1,0.2
							c0,0.2-0.1,0.3-0.1,0.5c-0.1,0.4-0.2,0.7-0.4,0.9c-0.2,0.2-0.3,0.4-0.4,0.6c-0.1,0.1,0.1,0.1,0.3,0.2c0.2,0,0.4,0.1,0.7,0.1
							c0.3,0,0.6,0,0.8,0c0.3,0,0.4-0.2,0.5-0.2c0.4-0.2,0.8-0.4,1.3-0.8c0.5-0.3,1-0.7,1.5-1.1c1-0.7,1.9-1.4,2.5-2
							c2.3-2.2,3.4-3.2,5.3-5.7c4-5.2,7.7-10.4,12.3-15.2c1.8-2,3.3-4.2,4.7-6.6c1.4-2.3,2.7-4.7,4.2-6.9c1.6-2.4,3.4-4.8,4.9-7.2
							c1.6-2.4,3.1-5,4.4-7.7c2.6-5.7,5.9-11.1,8-17.1c2.1-5.9,3.7-11.9,5.4-17.9l1.4-5.3l0.7-2.5c0.2-0.8,0.5-1.6,0.7-2.4
							c1.3-4.1,2.6-8.4,3.6-13c1.1-4.6,1.9-9.5,2-14.7c0.1-1.6,0-3.3,0-5c0-0.8-0.1-1.7-0.2-2.5c-0.1-0.8-0.1-1.7-0.3-2.5l-0.4-2.5
							c-0.2-0.8-0.4-1.7-0.7-2.5c-0.2-0.8-0.5-1.7-0.8-2.4l-0.8-2.1c0,0,0,0,0,0c0,0,0-0.1-0.1-0.2l-0.1-0.3l-0.4-1.6
							c-0.3-1.1-0.6-2.2-1-3.4c-1.3-4-2.8-9.6-6.3-12c-0.2-0.1-0.4-0.2-0.7-0.3l-0.2,0c-0.1,0-0.1-0.1-0.2,0
							c-0.1,0.1-0.3,0.2-0.4,0.2c-0.6,0.2-1.2,0.1-1.8,0c0.2,0,0.4,0.1,0.5,0c0,0,0.1-0.1,0.1-0.1c0,0.1,0,0.2,0,0.3
							c-0.1,0.4-0.3,1-0.5,1.7c-0.5,1.3-1.2,2.8-1.3,3c-0.6,2.3-0.5,4.6-0.7,6.9c-0.2,1.9-0.4,3.7-0.6,5.5c-0.1,0.9-0.1,1.8-0.2,2.8
							c0,0.5,0,0.9,0,1.5c0,0.3,0,0.6,0.2,1c0,0.2,0.1,0.4,0.1,0.6l0.2,0.6l0.1,0.2l0,0.1l0,0l0,0l0,0.1l0,0.1l0,0.2l0.1,0.4
							c0.1,0.3,0.1,0.5,0.2,0.8c1.1,3.6,1.6,7.1,1.5,10.9c0,3.8-0.6,7.8-1.6,12.1c-0.9,3.6-1.9,7.4-3,11.3l-0.8,3l-0.8,3.1l-1.5,5.5
							c-0.6,2.2-1.4,4.4-2.2,6.6C131.1,363.5,130.3,365.7,129.5,368z"/>
					</g>
				</g>
			</g>
		</g>
		<g>
			<g>
				<g>
					<path class="st0" d="M118.8,131l0.1,0.4C118.9,131.3,118.9,131.1,118.8,131z"/>
					<path class="st0" d="M107.7,71.7l0.2,0.1C107.8,71.7,107.7,71.7,107.7,71.7z"/>
					<path class="st0" d="M95,57.3l0.1-0.4C95,57.1,95,57.2,95,57.3z"/>
					<g>
						<path class="st0" d="M94,85.2c0.8,6.1,2.2,11.8,3.7,17.4c1.5,5.6,3.2,10.9,4.7,16.2c3.3,11.2,6.9,22.2,9.5,33.8
							c1.4,6.1,2.7,12.2,4,18.3c1.4,6.1,2.9,12.1,4.6,18.1c3.4,12.1,6.1,24,9,36.2c2.7,11.8,6.8,23.2,9.3,35.1
							c0.6,3.2,1.3,6.3,1.9,9.5c0.3,1.6,3.2,9.1,4,10.5c0.4,0.6,0-4.1,0-5.5c-0.3-4.3-0.9-10.9-1.4-14.3c-1-6.8-1.5-9.9-3-16.8
							c-3-14.1-6.1-27.9-8.1-42.1c-1.6-11.5-5.1-23.1-7.2-34.6c-2.1-12.5-3.8-25.1-6.6-37.5c-0.7-3.3-1.4-6.6-2-10l-1-5
							c-0.3-1.7-0.7-3.4-1-5.1c-1.4-6.5-2.8-13.1-4.2-19.6c-0.7-3.1-1.2-6.3-1.6-9.3c-0.4-3.1-0.7-6.1-0.7-9.2c0-3,0.1-6,0.5-8.9
							c0.4-3,1.1-5.9,2-8.8c1.1-3.3,2.5-6.8,4-9.6c1.6-2.8,3.6-5.3,5.8-7.2c1.4-1.2,3-2.1,4.6-2.9l1.3-0.5c0.4-0.2,0.9-0.3,1.3-0.4
							c0.9-0.3,1.8-0.4,2.7-0.7c3.7-0.6,7.8-0.4,11.9,0.5c3.9,0.9,7.9,2.6,11.9,4.7c4,2.2,8.1,4.7,12.2,7.4c3.7,2.4,7.5,5,11.6,7.4
							c1,0.6,2.1,1.2,3.2,1.8l1.6,0.9l1.7,0.8c2.3,1,4.7,2,7.1,2.7c4.8,1.5,9.5,2.3,13.8,3c2.1,0.3,4.2,0.7,6.4,1
							c1,0.2,2,0.4,3.1,0.5c1,0.2,1.9,0.4,3.3,0.6c2.8,0.5,5.7,0.8,8.6,0.8c2.9,0.1,5.7,0,8.3-0.1c5.2-0.3,9.5-0.5,13.2-0.9
							c1.8-0.1,2.8-1.1,3.3-2.2c-0.4,0.9-2.4-0.5-4.8-1.9c-2.4-1.4-5.1-2.7-5.5-2.8c-4.5-1.6-9.7-2-14.3-3c-2.2-0.5-4.3-1.2-6.2-1.9
							l-1.5-0.6l-1.7-0.7c-1.1-0.4-2.2-0.8-3.4-1.2c-4.5-1.5-9-2.6-13.5-3.7c-4.7-1.1-8.8-2.4-12.8-4.5c-4.1-2.1-8.3-4.8-12.6-7.6
							c-4.3-2.8-8.8-5.7-13.7-8.4c-2.5-1.3-5-2.6-7.8-3.8c-2.7-1.2-5.7-2.1-8.7-2.8c-5-1.1-10.4-1.6-15.8-0.9
							c-2.7,0.3-5.5,1.1-8.1,2c-2.6,1.1-5.2,2.3-7.5,4c-2.3,1.6-4.4,3.5-6.3,5.5c-0.9,1.1-1.8,2.1-2.5,3.2c-0.7,1.1-1.6,2.2-2.2,3.3
							c-0.7,1.1-1.3,2.3-1.9,3.5l-0.8,1.8c-0.3,0.6-0.5,1.1-0.7,1.7c-0.9,2.2-1.8,4.5-2.5,6.9c-1.8,5.6-3.1,11.5-3.5,17.6
							C92.9,73.3,93.2,79.4,94,85.2z"/>
					</g>
				</g>
			</g>
		</g>
		<g>
			<g>
				<g>
					<path class="st0" d="M232.3,120.6l0.2,0C232.4,120.6,232.3,120.6,232.3,120.6z"/>
					<path class="st0" d="M204.3,123.8l0-0.2C204.2,123.7,204.3,123.7,204.3,123.8z"/>
					<path class="st0" d="M211.9,135.8L211.9,135.8C211.9,135.8,211.9,135.8,211.9,135.8z"/>
					<g>
						<path class="st0" d="M214,135.6c1.9-0.3,3.9-0.6,5.8-0.9l2.7-0.4l0.7-0.1l0.9-0.1c0.6-0.1,1.2-0.1,1.8-0.2
							c5-0.7,9.8-2.1,14.6-2.6c5.1-0.5,10.2-1.1,15.1-2.4c1.2-0.3,2.5-0.6,3.7-0.9c1.2-0.3,2.3-0.4,3.5-0.6c2.4-0.3,4.8-0.5,7.3-0.6
							c4.8-0.3,9.5-1.8,14.3-1.5c1.3,0.1,2.6,0.2,3.9,0.3c0.6,0,3.8-0.9,4.4-1.4c0.3-0.2-1.6-1.1-2.1-1.3c-1.7-0.8-4.4-1.7-5.8-2
							c-2.8-0.5-4.1-0.8-6.9-0.8c-5.9-0.1-11.5,0.1-17.5-0.5c-0.6,0-1.2-0.1-1.9,0c-0.6,0-1.2,0-1.8,0.1c-1.2,0.1-2.3,0.2-3.5,0.4
							c-2.3,0.3-4.6,0.7-6.9,0.7c-5,0-9.9-0.5-14.7-0.4c-2.6,0.1-5.1-0.2-7.6-0.5c-3.3-0.4-6.5-0.4-9.5,0.1
							c-0.7,0.1-1.5,0.2-2.2,0.4l-0.5,0.1l-0.6,0.1l-1.4,0.3c-1.9,0.5-3.8,1.2-6,2.7c-2,1.4-3.7,3.2-4.8,5.4c-1.1,2.1-1.6,4.6-1.5,7
							c0.1,1.4,0.3,2.8,0.8,4.2l0.4,1c0.1,0.3,0.3,0.7,0.4,0.9c0.3,0.6,0.5,1.1,0.8,1.7c0.6,1,1.2,1.9,1.9,2.8
							c0.3,0.4,0.7,0.9,1,1.3l1.1,1.1c0.9,1,1.8,1.7,2.7,2.5c0.9,0.7,1.9,1.4,2.8,2.1c1.9,1.2,3.7,2.4,5.5,3.3
							c3.6,2,7.2,3.7,10.3,5.6c2.8,1.7,5.3,3.8,6.6,5.6l0.1,0.2l0.1,0.1l0.2,0.2l0.7,0.8l0.4,0.4l0.3,0.3l0.7,0.6
							c0.9,0.8,1.8,1.5,2.6,2c1.7,1.2,3.2,2.1,4.8,3c1.7,0.9,3.5,1.9,5.1,2.5c1.7,0.7,3.1,1,4.6,0.6c0.7-0.2,2-0.6,3.1-1
							c-0.9,0.4-0.6-0.4-0.7-1.7c0-0.6-0.1-1.3-0.1-1.9c-0.1-0.6-0.1-1-0.2-1.1c-0.7-2.1-2.2-3.7-3.5-5.4c-1.2-1.7-2.3-3.3-3.4-4.9
							c-1.1-1.5-2.2-3-3.1-4l-0.3-0.4c-0.1-0.1-0.1-0.2-0.2-0.3l-0.1-0.1l-0.3-0.4l-0.7-0.8c-0.5-0.5-1-1-1.4-1.4l-1.5-1.3
							c-1.9-1.5-3.9-2.9-5.8-4c-3.8-2.3-7.6-4.1-11-6.1c-2.9-1.6-5.6-3.3-7.6-5c-0.3-0.2-0.4-0.4-0.7-0.6c-0.2-0.2-0.5-0.4-0.6-0.6
							c-0.3-0.4-0.7-0.8-0.9-1.1c-0.5-0.9-0.4-0.7-0.4-0.9c0-0.1,0.2-0.2,0.3-0.2c0,0,0.1,0,0.1,0l0,0c0,0,0.1,0,0.2,0
							C212.9,135.8,213.5,135.7,214,135.6z"/>
					</g>
				</g>
			</g>
		</g>
		<g>
			<g>
				<g>
					<path class="st0" d="M415.2,451.6c0,0,0.1,0.4,0.1,0.9c0,0.4,0,0.9,0,0.9C415.3,452.5,415.3,452,415.2,451.6z"/>
					<path class="st0" d="M359.8,320.8l0.2,0.2C359.9,320.8,359.9,320.7,359.8,320.8z"/>
					<path class="st0" d="M341.7,293.1l0.1-0.9C341.7,292.7,341.7,292.9,341.7,293.1z"/>
					<g>
						<path class="st0" d="M354.7,352.2c3.9,12.7,8.7,25.2,14.2,37.3c5.5,12.1,11.8,23.7,18.1,34.9c3.1,5.5,6.1,10.9,9,16.3
							c1.5,2.7,2.9,5.5,4.3,8.2l1,2.1c0.2,0.4,0.4,0.8,0.6,1.3c0.1,0.2,0.2,0.5,0.4,0.7c0.1,0.2,0.3,0.5,0.3,0.4
							c0.1,0.2,0.3,0.3,0.3,0.6c0,0.3,0.1,0.3,0.1,1.1l5-5.6l-5.2,0.8l-2.6,0.4l-1,0.1c-0.4,0.1-0.7,0.1-1.1,0.2l-1,0.4l-0.6,0.2
							c-2.7,1.1-5.7,1.7-9,2.1c-3.3,0.4-6.8,0.6-10.6,1.1c-1.9,0.2-3.8,0.5-5.7,1c-1.7,0.4-3.4,0.8-5.2,1.2
							c-13.5,2.9-27.5,3.8-41.7,5c-7.1,0.6-14.3,1.2-21.5,2.2c-7.1,1-14,2.1-21,3c-3.5,0.4-7,0.8-10.5,1.1c-1.7,0.1-3.5,0.3-5.2,0.4
							l-1.3,0.1l-1.5,0.1c-1,0.1-1.9,0.2-2.9,0.4c-3.7,0.6-7.2,1.5-10.1,1.7c-1.4,0.1-2.7,0-3.7-0.4c-1-0.4-1.8-1-2.6-1.9l-0.6-0.8
							l-0.3-0.4c-0.1-0.1-0.2-0.3-0.3-0.5c-0.3-0.7-0.7-1.2-1-2c-0.4-0.8-0.7-1.5-1-2.2c-0.3-0.7-0.5-1.3-0.6-1.9
							c-0.1-0.6-0.2-1.4-0.3-2.2l-0.1-1.3c0-0.4,0-0.9-0.1-1.4c-0.1-1.9-0.4-3.9-0.8-5.8c-0.3-1-0.5-2-0.9-3c-0.2-0.5-0.3-1-0.6-1.5
							l-0.7-1.5c-1.1-1.9-2.5-3.9-4.5-5.3c-1.9-1.4-4.2-2.3-6.3-2.8c-2.2-0.5-4.3-0.5-6.4-0.5c-2,0.1-3.9,0.4-5.5,0.6l-5.1,0.8
							c-3.4,0.5-6.8,1-10.2,1.5c-6.8,1-13.6,1.9-20.4,2.8c-13.6,1.7-27.3,3-41.1,3.6c-1.9,0.1-3.7,0.1-5.6,0.2
							c-2,0.1-3.9,0.3-5.8,0.5c-3.8,0.5-7.6,1.3-11.2,2.2c-1.8,0.4-7.1,2.2-12.2,3.9c-1.2,0.4-2.5,0.8-3.7,1.1
							c-1.2,0.3-2.5,0.7-3.6,1c-2.3,0.7-4,1.4-4.8,1.7c-0.8,0.3,1.5-0.1,4.4-0.6c1.5-0.2,3.1-0.4,4.4-0.6c1.4-0.2,2.5-0.4,3.3-0.5
							c4.8-0.9,10.8-2.3,16.7-3.3c2.9-0.5,5.8-0.9,8.4-1.1c2.6-0.2,4.9-0.2,6.9-0.3c15.6-0.3,22.9-0.5,38.9-1.9
							c8.2-0.7,16.4-1.6,24.6-2.5c4.1-0.5,8.1-1,12.2-1.5l6.1-0.8c2-0.2,3.8-0.4,5.6-0.3c1.8,0.1,3.4,0.5,4.8,1.1
							c1.4,0.7,2.5,1.6,3.4,2.9c0.9,1.2,1.5,2.9,1.9,4.6l0.3,1.3l0.2,1.4c0.2,0.9,0.2,1.8,0.2,2.8c0.1,1.9,0,4.1,0.6,6.6
							c0.3,1.3,0.7,2.4,1.1,3.5l0.6,1.5c0.2,0.5,0.4,0.9,0.7,1.5c0.5,1.1,1,2.2,1.8,3.2c0.4,0.5,0.7,1.1,1.2,1.6
							c0.5,0.5,0.9,1,1.5,1.5c0.6,0.4,1.1,0.9,1.7,1.3c0.6,0.3,1.3,0.7,2,1c0.7,0.2,1.4,0.4,2.1,0.7c0.7,0.2,1.3,0.2,2,0.3
							c4.3,0.4,7.8-0.4,11-0.9c1.6-0.3,3.1-0.5,4.6-0.6l1.1-0.1c0.3,0,0.7,0,1.2-0.1l2.6-0.1c6.9-0.3,13.7-0.9,20.5-1.7
							c3.4-0.4,6.8-0.9,10.2-1.3c3.4-0.5,6.7-0.9,10-1.3c6.6-0.7,13.3-1.2,20-1.5c13.5-0.8,27.3-1.4,41.1-4.3l2.6-0.5
							c0.7-0.1,1.4-0.3,2.1-0.4c1.4-0.2,3-0.4,4.5-0.5c3.2-0.3,6.6-0.4,10.2-0.7c3.6-0.4,7.5-1,11.4-2.4l0.3-0.1c0,0,0.1,0,0.1,0
							c0.1,0,0,0,0.6-0.1l2.5-0.3l5.1-0.6l5.7-0.7l0-5.7l0-2.1c0-0.9-0.1-1.7-0.3-2.6c-0.2-0.8-0.6-1.6-1-2.4
							c-0.1-0.2-0.2-0.4-0.3-0.6l-0.2-0.3l-0.1-0.1c-0.1-0.2-0.2-0.3-0.3-0.5c-0.1-0.1-0.2-0.3-0.2-0.5l-0.3-0.6l-0.6-1.3l-1.2-2.7
							l-2.5-5.3c-1.7-3.5-3.4-7.1-5.2-10.5c-3.5-7-7-13.9-10.4-20.7c-6.8-13.7-12.9-27.6-18.1-41.8c-2.6-7-5-14.1-7.2-21.3l-1.6-5.4
							c-0.6-2-1.2-4-1.9-5.9c-1.4-3.8-2.8-7.3-4.2-10.8c-1.3-3.4-2.5-6.8-3.3-10.1c-0.4-1.7-0.7-3.2-0.9-4.8
							c-0.2-1.6-0.3-3.2-0.2-4.9c0.1-6.6,1.7-13.8,3.4-21.1c4-16.9,10.2-33.6,14.8-51.4c2.8-11.2,4.8-22.3,7.5-32.9
							c0.3-1.3,0.7-2.6,1-3.9l0.5-2l0.6-2l2.4-8l4.9-16.1c3.3-11,6.1-22.2,8.3-33.4c2.2-11.3,3.9-22.6,5.2-33.9
							c0.6-5.1,1.2-10.3,1.4-15.7c0.2-5.4,0.2-10.9-0.7-16.5c-0.4-2.8-1.1-5.8-2-8.5c-0.9-2.7-2-5.5-3.5-8.1
							c-1.4-2.7-3.2-5.2-5.4-7.6c-2.1-2.4-4.7-4.5-7.5-6.2c-1.4-0.8-2.9-1.6-4.4-2.2c-1.6-0.7-2.9-1-4.3-1.5
							c-2.8-0.8-5.6-1.4-8.4-1.9c-5.6-0.9-11.1-1-16.4-0.9c-2.7,0.1-5.3,0.2-7.8,0.3l-3.8,0.2l-0.9,0.1l-0.5,0l-0.9,0.1
							c-1.3,0.1-2.4,0.5-3.5,0.8c-2.1,0.8-3.7,1.7-5.2,2.6c-1.4,0.9-2.6,1.9-3.6,2.7c-1,0.8-2,1.6-2.8,2.3c-0.8,0.6-1.6,1.2-2.2,1.5
							l-0.2,0.1l-0.2,0.1c-0.1,0-0.3,0.2-0.3,0.1c0,0-0.1,0-0.1,0l0,0l0,0l-0.2,0c-0.4,0.1-0.9,0.3-1.3,0.4
							c-1.7,0.5-3.3,1.2-4.9,1.9c-3,1.4-5.8,2.9-8.5,4.4c-1.3,0.7-2.6,1.5-3.9,2.2c-0.7,0.4-1.1,0.6-1.5,0.8
							c-0.5,0.2-0.9,0.4-1.5,0.6c-2.1,0.8-5,1.3-8.5,2.2c-1.7,0.5-3.6,1.1-5.4,2l-1.1,0.5l-0.8,0.4c-0.5,0.3-1.1,0.5-1.7,0.7
							c-2.3,0.9-4.7,1.6-7.2,2.2c-4.9,1.1-10,1.7-14.6,2.4c-4.4,0.8-5.8,2.1-5.8,3.2c0-0.5,1.5-0.6,3.8-0.5c2.3,0.1,5.3,0.4,8.4,0.7
							c3.1,0.3,6.2,0.5,8.7,0.6c2.5,0,4.4-0.1,4.8-0.1c2.7-0.3,5.4-0.9,8.1-1.9c2.5-0.9,5-1.4,7.7-1.7c2.7-0.4,5.7-0.8,8.7-1.8
							c0.7-0.2,1.5-0.6,2.2-0.9l1.9-0.9c1.3-0.6,2.5-1.2,3.8-1.7c2.4-1.1,4.8-2.1,7.1-2.9c1.2-0.4,2.3-0.7,3.4-1
							c0.3-0.1,0.5-0.1,0.8-0.2l0.4-0.1c0.1,0,0.4-0.1,0.6-0.1c0.4-0.1,0.9-0.2,1.3-0.4l1.2-0.5c3.1-1.3,5.3-3,7.4-4.4
							c1-0.7,2-1.4,2.9-1.9c0.9-0.5,1.8-0.9,2.4-1.1c0.2-0.1,0.3-0.1,0.5-0.1c0.1,0,0.3-0.1,0.4,0c0.1,0,0.2,0,0.3,0l1,0
							c1.3,0,2.6,0,3.9,0c2.6,0,5.1,0,7.7,0.1c5.1,0.1,10.2,0.5,15.1,1.4c2.6,0.5,5.1,1.1,7.4,2c2,0.8,3.9,1.8,5.5,3.2
							c1.6,1.4,3,3.1,4.3,5c1.2,2,2.3,4.2,3.1,6.5c0.2,0.6,0.4,1.2,0.6,1.8c0.2,0.6,0.3,1.2,0.5,1.7c0.1,0.6,0.3,1.2,0.4,1.8
							l0.3,1.9c0.4,2.5,0.6,5.1,0.6,7.8c0.1,5.4-0.4,11-1,16.7c-1.3,11.6-2.9,23.1-5.1,34.5c-2.2,11.4-4.9,22.7-8.3,33.8l-4.4,14.6
							l-2.2,7.3l-1.1,3.7c-0.4,1.2-0.7,2.5-1.1,3.8c-2.7,10.1-4.6,20.2-6.8,29.9c-4.1,19.1-11.3,38-16.2,58.3
							c-1.4,6-2.9,12.2-3.6,19c-0.3,3.4-0.4,7-0.1,10.6c0.1,0.9,0.2,1.8,0.3,2.7c0.2,0.9,0.3,1.9,0.5,2.7c0.3,1.7,0.8,3.4,1.2,5.1
							c1.9,6.6,4.4,12.5,6.4,18.1c0.5,1.4,1,2.8,1.4,4.1c0.2,0.7,0.4,1.3,0.6,2l0.6,2.3C352.9,346.1,353.8,349.2,354.7,352.2z"/>
					</g>
				</g>
			</g>
		</g>
		<g>
			<g>
				<g>
					<path class="st0" d="M228,214.2l0.2,0C228.1,214.2,228.1,214.2,228,214.2z"/>
					<path class="st0" d="M212,211.1l0.2,0C212.2,211.1,212.1,211.1,212,211.1z"/>
					<path class="st0" d="M200.2,203c0,0,0.2-0.3,0.2-0.3C200.3,202.9,200.2,203,200.2,203z"/>
					<g>
						<path class="st0" d="M196.2,223l0,1.8l1.7-0.1l0.8-0.1c0.3,0,0.4,0,0.7,0l2.5,0l2.5,0l1.7,0.6l1.7,0.6
							c0.6,0.2,1.2,0.4,1.6,0.5c0.7,0.2,1.5,0.4,2.2,0.5c3,0.5,5.8,0.6,8.5,0.4c5.9-0.4,11.1-1.8,16.2-1.4
							c5.9,0.4,11.8,0.7,17.6,0.1c5.9-0.6,11.5-0.8,17.3-1.1c5.6-0.3,11-2.1,16.6-2.2c1.5,0,3,0,4.5,0c0.7,0,4.3-1.3,4.9-1.8
							c0.3-0.2-1.9-0.9-2.6-1.1c-2-0.6-5.2-1.3-6.7-1.4c-3.2-0.3-4.7-0.4-7.9-0.3c-6.6,0.2-13,0.5-19.5-0.6
							c-5.2-0.8-10.6-0.1-15.8-0.8c-1.4-0.2-2.8-0.4-4.2-0.7l-2.1-0.4c-0.7-0.1-1.4-0.3-2.2-0.4c-3.1-0.6-6.1-0.9-9-0.9
							c-3.1-0.1-6-0.4-8.6-1c-1.3-0.3-2.6-0.6-3.8-0.9c-0.3-0.1-0.6-0.2-0.9-0.3l-0.6-0.2c-0.1,0-0.2-0.1-0.2-0.1
							c-0.1,0-0.2,0-0.3-0.1c-0.5,0.1-0.5-0.3-0.5-0.7c0-0.2,0.1-0.4,0.2-0.6c0-0.1,0.1-0.2,0.2-0.3c0,0,0.2-0.2,0.4-0.4
							c0.2-0.2,0.3-0.3,0.5-0.5c0.9-0.9,2.2-1.8,3.6-2.8c1.4-1,3-2,4.7-3.2l0.8-0.6l0.4-0.3c0.1,0,0.2-0.1,0.2-0.1l0.1-0.1
							c0.3-0.2,0.4-0.3,0.8-0.5c0.7-0.5,1.6-1,2.5-1.5l5.7-3.2l12-6.5c0.7-0.4,1.5-0.8,2.2-1.2l1.5-0.8c0.7-0.4,1.3-0.8,2-1.1
							c1.3-0.8,2.5-1.6,3.8-2.4c1.1-0.9,2.2-1.8,3.2-2.8l0.8-1.1c0.3-0.4,0.6-0.8,0.7-1.2c0.3-0.8,0.7-1.6,0.8-2.6
							c0.2-2-0.2-3.7-1-5.5c-0.9-1.7-2.3-3.4-4.1-5c-0.9-0.8-1.8-1.5-2.8-2.3c-0.5-0.4-1-0.7-1.5-1.1l-0.8-0.5l-0.4-0.3l-0.2-0.1
							c-2-1.2-4.4-2.6-6.7-3.5c-1.2-0.5-2.4-0.9-3.6-1.1c-1.2-0.2-2.4-0.3-3.3,0c-0.2,0.1-0.3,0.3-0.6,0.4c-0.1,0.1-0.2,0.1-0.3,0.2
							c-0.1,0.1-0.1,0.2-0.2,0.3c-0.2,0.5-0.5,0.9-0.9,1.4c0.1-0.2,0.2-0.3,0.1-0.4c0,0-0.1-0.1-0.1-0.1c0,0.1,0.1,0.1,0.1,0.2
							c0.1,0.2,0.5,0.9,0.8,1.5c0.6,1.3,1.2,2.8,1.3,3c1.2,2,2.9,3.6,4.4,5.4c0.7,0.9,1.3,1.8,1.9,2.6c0.1,0.1,0.2,0.2,0.2,0.3
							l0,0.2c0,0.1,0.1,0.3,0.1,0.4c0,0.3,0,0.5,0,0.7c-0.1,0.9-0.5,1.3-0.7,1.6c-0.1,0.2-0.5,0.4-0.7,0.4c-0.3,0.1-0.4,0.1-0.6,0.1
							l-4.3,2.3c-3.4,1.8-6.8,3.6-10.2,5.5c-1.8,1-3.6,2-5.5,3c-0.5,0.3-0.9,0.6-1.4,0.8c-0.5,0.3-0.9,0.6-1.5,0.9l-1.6,1l-0.9,0.7
							l-0.9,0.7c-1.1,1-2.6,2.1-4.3,3.3c-1.7,1.2-3.6,2.6-5.6,4.4c-0.3,0.3-0.6,0.6-0.9,0.9c-0.3,0.3-0.6,0.5-1,1
							c-0.8,0.9-1.6,1.8-2.1,2.8l-0.9,1.5c-0.3,0.5-0.5,1.1-0.7,1.6c-0.2,0.5-0.5,1.1-0.7,1.6l-0.5,1.7c-0.1,0.3-0.2,0.6-0.2,0.8
							l-0.1,0.8l-0.2,1.7c-0.1,1.1,0,2.2-0.1,3.4C196.2,218.8,196.2,220.9,196.2,223z"/>
					</g>
				</g>
			</g>
		</g>
	</g>
</g>
</svg>
