<?xml version="1.0" encoding="utf-8"?>
<!-- Generator: Adobe Illustrator 21.1.0, SVG Export Plug-In . SVG Version: 6.00 Build 0)  -->
<svg version="1.1" id="Layer_1" xmlns="http://www.w3.org/2000/svg" xmlns:xlink="http://www.w3.org/1999/xlink" x="0px" y="0px"
	 viewBox="0 0 500 500" style="enable-background:new 0 0 500 500;" xml:space="preserve">
<g>
	<g>
		<g>
			<path d="M180.6,161.4l-0.4,0.1C180.4,161.5,180.5,161.6,180.6,161.4z"/>
			<path d="M237.3,144.2l0.1,0.4C237.4,144.4,237.4,144.3,237.3,144.2z"/>
			<path d="M234.8,107.1l0.3-0.2C234.9,107,234.9,107,234.8,107.1z"/>
			<g>
				<path d="M213.1,114.3c-4.6,1.7-8.9,3.5-13.1,5.4c-4.2,1.9-8.3,3.9-12.4,6c-4.2,2.1-8.5,4.3-12.9,6
					c-4.4,1.7-9.1,2.9-13.8,3.1c-9.9,0.3-19.8-1.6-30.2-3.2c-2.6-0.4-5.2-0.9-7.8-1.7c-2.7-0.7-5.3-1.5-7.9-2.4
					c-5.3-1.7-10.5-3.7-16-5.5c-5.3-1.8-10.8-2.8-16.4-3.6c-5.6-0.8-11.2-1.5-16.8-2.9c-1.5-0.4-3-0.8-4.5-1.2l-1.1-0.3l-1.2-0.3
					c-0.8-0.2-1.6-0.3-2.5-0.5c-0.8-0.1-3.2,0.3-5.5,1c-0.3,0.1-0.6,0.2-0.8,0.3c0,0-0.1,0-0.1,0l0,0l0,0l0,0.1l0,0.2
					c0,0.4,0,0.8,0,1.3c0,0.4,0,0.7,0,1c0,0.3,0,0.6-0.1,1c0,0.5-0.1,1.1-0.2,1.5c-0.1,0.5-0.2,0.7-0.3,1.1
					c-0.2,0.5-0.4,0.8-0.5,0.9c-0.1,0.1,0,0,0.2-0.1c0.3-0.1,0.6-0.2,1.1-0.2c0.8-0.1,2,0,2.7,0.2c0.7,0.1,0,0-1.3-0.1
					c-0.3,0-0.6,0-0.9,0c-0.3,0-0.6,0-0.9,0c-0.6,0.1-0.9,0.2-1,0.3c-0.1,0,0.2-0.1,0.4-0.7c0-0.1,0.1-0.3,0.2-0.5l0.1-0.6
					c0.1-0.3,0.1-0.4,0.1-0.8c0-0.1,0-0.1,0-0.1l0,0l0,0.1c0.1,0.2,0.1,0.3,0.3,0.4c0.2,0.1,0.4,0.2,0.6,0.3c2,1,4.4,2.2,6.7,3.4
					c2.2,1.2,4.3,2.4,5.7,2.9c5.7,2.5,8.2,3.8,14.1,5.7c12,4,23.4,8.8,34.6,16c1.1,0.7,2.3,1.4,3.5,2c1.2,0.6,2.4,1.2,3.7,1.7
					c2.6,1.1,5.3,1.9,8.1,2.7c5.5,1.5,11.2,2.6,16.8,4.1c6.1,1.6,12.4,3,18.9,3.6c6.5,0.7,13,0.7,19.3-0.4
					c6.7-1.1,13.4-2.2,19.9-3.6c6.5-1.4,12.9-3.1,19-5.6c11.8-4.9,22.2-10.6,32.6-14.5c3-1.1,6.1-2.2,9.1-3c3-0.9,6-1.5,8.9-2
					c1.8-0.3,3.8-0.6,5.7-0.9c1-0.2,1.9-0.3,2.9-0.4c1-0.1,1.9-0.3,2.9-0.4c3.8-0.5,7.6-0.8,11.2-0.9c3.7-0.1,7.2,0,10.7,0.4
					c3.5,0.4,6.9,1.1,10.4,2.2c0.8,0.3,1.6,0.5,2.5,0.8l0.3,0.1l0.2,0.1c0.1,0,0.1,0,0.1,0l0.1,0.1c0,0,0.1,0,0.1,0.1
					c0,0,0,0,0.1,0.1c1.7,0.9,3.3,1.8,5,2.7c3.3,1.9,6.4,3.9,9.5,5.9c6.2,4,12.2,8.1,18.4,11.3c1.6,0.9,3.3,1.9,5.1,2.8
					c1.7,1,3.4,1.9,5.2,2.7c3.5,1.6,6.8,2.3,11,2c2.1-0.2,5.1-1.3,7.7-2.6c-2.1,1.1-1.7-1-1.6-4c0.2-2.9,0.2-6.6,0.1-7
					c-1-5-4.1-9.1-6.6-13.3c-5.1-8.2-9.7-16.5-17.5-22c-4.1-2.8-8.4-5.4-12.7-7.7c-2.2-1.2-4.3-2.3-6.5-3.3l-1.7-0.8l-2.6-1.2
					l-2.7-0.9l-1.9-0.6c-5.1-1.6-10.8-2.9-16.4-3.6c-5.7-0.8-11.3-1-16.9-0.9c-9.4,0.2-18.3,1.5-26.9,3.3
					c-9.1,1.9-17.6,4.7-25.7,7.6C231.3,107.7,221.9,111.1,213.1,114.3z"/>
			</g>
		</g>
	</g>
</g>
<g>
	<g>
		<g>
			<path d="M98,336.6l-0.3,0C97.9,336.7,98,336.7,98,336.6z"/>
			<path d="M140.5,333.2l0.1,0.4C140.6,333.5,140.5,333.3,140.5,333.2z"/>
			<path d="M134.4,297.7l0.1-0.1C134.4,297.6,134.4,297.7,134.4,297.7z"/>
			<g>
				<path d="M123,300.1c-2.2,0.4-4.2,1-5.9,1.5c-0.2,0.1-0.4,0.2-0.7,0.2l-1,0.2c-0.6,0.1-1.3,0.3-1.9,0.5
					s-1.3,0.4-2,0.6c-0.7,0.2-1.4,0.4-2.1,0.6c-5.7,1.9-12.2,4.2-18.5,3.5c-6.7-0.8-13.2-2.7-20.3-3.2c-7.1-0.5-13.6-2.9-20.2-5.4
					c-6.4-2.4-13.8-1.9-20-5.3c-1.6-0.9-3.2-2-4.9-3c-0.8-0.5-6,0.1-7.1,0.8c-0.5,0.3,1.4,3.4,1.9,4.2c1.7,2.7,4.4,6.4,6,7.8
					c3.2,2.9,4.6,4.2,8.3,6c7.5,3.8,15,7,22.1,12.5c5.8,4.5,13.2,4.7,19.8,7.5c7.1,3.1,14.4,6.8,22.6,7.5c2.2,0.2,4.3,0.6,6.5,0.8
					l3.3,0.5l1.7,0.3l1.7,0.2l3.5,0.3l1.7,0.1c0.3,0,0.6,0,0.9,0l1,0c1.3,0,2.8-0.1,4-0.2c1.3-0.2,2.6-0.3,3.9-0.6
					c5-1.1,9.5-2.8,13.6-4.5c4.2-1.8,8.1-3.7,11.8-5.5c4.4-2.1,8.7-4.1,12.9-6c10.6-4.7,19.7-10.7,29.2-14.6c4.3-1.8,8.8-2.4,13-3
					c4.3-0.5,8.3-0.8,12.1-2.1c2-0.7,4.4-1.1,6.7-2.3c2.3-1.2,4.6-3.1,6.8-6.7c1.1-1.8,1.7-5,1.9-7.8c-0.2,2.3-1.5,1-2.9-1
					c-1.4-2-3-4.5-3.2-4.8c-1.3-1.4-2.8-2.4-4.4-3.2c-1.5-0.8-3.1-1.5-4.7-2.2c-3.1-1.5-6.2-3.2-9.5-4.4c-1.6-0.6-3.3-1.1-4.9-1.4
					c-1.6-0.3-3.3-0.4-5-0.2c-7,0.8-13.5,2.8-19.6,5.2c-6.1,2.5-11.8,5.4-17.3,8.3c-9.4,4.8-17.9,10.2-26.3,13.8
					c-2.5,1.1-5,1.9-7.5,2.6C127.5,299.2,125.1,299.7,123,300.1z"/>
			</g>
		</g>
	</g>
</g>
<g>
	<g>
		<g>
			<path d="M414.9,128.9l0-0.3C414.9,128.8,414.8,128.8,414.9,128.9z"/>
			<path d="M433,161.4l-0.3,0.3C432.9,161.6,433,161.5,433,161.4z"/>
			<path d="M449.1,134.6L449.1,134.6C449.1,134.6,449.1,134.6,449.1,134.6z"/>
			<g>
				<path d="M450.4,128.5c-0.9-0.7-1.6-1.2-2.2-1.6c-0.6-0.4-1.1-0.6-1.3-0.5c-0.1,0-0.1,0-0.2,0.1c0,0,0.1-0.1-0.3,0.3
					l-0.6,0.6c-0.4,0.4-0.8,0.8-1.2,1.2l0,0l0,0c-15.7,15.4-4.3,4.3-7.8,7.7l0,0l0,0l0,0l0-0.1l0.1-0.1c0.1-0.1,0.1-0.1,0.2-0.2
					c0.1,0,0.1-0.1,0.2-0.1l0.3-0.2c0.2-0.2,0.5-0.3,0.7-0.4c0.1,0,0.3-0.1,0.4-0.2c0.2-0.1,0.3-0.1,0.5-0.2c0.3-0.1,0.6-0.2,1-0.3
					c0.4-0.1,0.8-0.2,1.2-0.3c0.8-0.1,1.7-0.3,2.5-0.3c0.4,0,0.9-0.1,1.3-0.1l0.6,0l0.3,0c0.1,0,0.2,0,0.1,0c-0.3,0-0.6-0.1-0.9-0.2
					c-0.3-0.1-0.5-0.3-0.8-0.5c-1-0.8-1.5-2-1.4-2.7c0.1-0.3,0.2-0.7,0.3-0.8c0,0,0-0.1,0-0.1c0,0,0,0,0,0c-0.2-0.1-0.3-0.3-0.5-0.5
					c-0.2-0.2-0.3-0.3-0.4-0.5l-0.1-0.1l-0.1-0.1l0,0l0,0l0,0c2.1,2.4,0.6,0.7,1.1,1.2l0,0l0.1-0.1c0.1-0.1,0.2-0.2,0.2-0.3
					c0.6-0.7,1.4-1.5,2.5-2.7c1.1-1.2,2.7-2.1,4.6-2.7c0.9-0.3,2-0.6,3-0.9c1.1-0.3,2.2-0.6,3.3-0.9c3.4-0.9,6.4-4.9,10.8-5.1
					c1.2-0.1,2.5,0.1,3.8,0.1c0.6,0,2.7-3.2,2.7-4.3c0-0.5-2.5-2-3.1-2.4c-2.2-1.3-5.1-3.1-6.5-3.5c-2.7-0.9-3.9-1.3-6.3-1.1
					c-2.6,0.3-5.1,0.5-7.7,0.7c-2.3,0.1-4.6-0.3-7.6-1c-4.9-1.1-9.7,2.5-15.3,5.6l-0.6,0.3l-0.7,0.5c-0.5,0.3-1,0.7-1.4,1
					c-0.9,0.7-1.7,1.4-2.5,2.1c-1.5,1.4-2.9,2.9-4,4.5c-2.3,3.1-3.8,6.6-4.3,10.5c-0.1,1.1-0.2,2.2-0.3,3.3l-0.1,1.8l0,0.9l0,1
					c0,0.7,0.1,1.3,0.1,2c0.1,0.7,0.2,1.5,0.3,2.2c0.1,0.4,0.1,0.7,0.2,1.1l0.3,1.2l0.4,1.2c0.1,0.4,0.2,0.8,0.5,1.3
					c0.4,0.9,0.8,1.8,1.3,2.7c0.2,0.4,0.5,0.9,0.8,1.4c0.3,0.5,0.6,0.9,1,1.4c0.3,0.4,0.7,0.9,1,1.3l0.5,0.6
					c0.4,0.4,0.7,0.8,1.1,1.2c1.4,1.4,2.6,2.5,3.8,3.2c1.1,0.7,2.1,1.3,2.8,1.7l0.5,0.3l0.2,0.1l0.7,0.5c1,0.7,2.1,1.4,3.2,1.9
					c4.4,2.3,9.3,3.5,14,3.8c5.5,0.4,10.9-0.5,16-2.5c1.6-0.7,3.2-1.4,4.6-2.4c0.7-0.5,1.5-0.9,2.2-1.5c0.7-0.6,1.4-1.1,2-1.7
					c0.7-0.6,1.3-1.3,1.9-1.9c0.6-0.7,1.2-1.3,1.7-2.1c1.1-1.5,2.1-3,2.9-4.6c0.4-0.8,0.8-1.6,1.1-2.4c0.3-0.8,0.6-1.7,0.9-2.5
					l0.2-0.6l0.1-0.3l0-0.2l0-0.1l0.1-0.5l0.3-1.1c0.4-1.4,0.8-2.9,1.4-4.3c1-2.6,2.8-4.9,4.5-7.3c0.8-1.2,1.7-2.4,2.3-3.8
					c0.3-0.7,0.6-1.3,0.9-2.1c0.3-0.9,0.5-1.8,0.6-2.6c0.1-0.8,0.2-1.6,0.2-2.2c0-0.6-0.2-1.1-0.5-1.7c-0.7-1.1-2.2-2.5-4.8-5.3
					c-1.3-1.3-3.8-3.4-6.2-5c1.9,1.4,0.5,1.2-1.6,0.9c-2-0.3-4.8-0.7-5-0.7c-3.2,0.2-5.2,1.7-7.6,2.7c-2.3,1.1-4.8,1.8-6.9,2.3
					c-2.2,0.8-4.1,1.7-5.2,3.1c-2.3,3-3.9,6.3-5.2,9.8c-0.7,1.8-1.2,3.6-1.8,5.4l-0.4,1.4l-0.2,0.7l0,0.2l0,0l0,0l0,0
					c-0.8-0.2,7,2,3.7,1.1l0,0l0,0l0.1,0c0.1,0,0.2,0.1,0.3,0.1c0.1,0,0.1,0,0.1,0l0,0c0.2,0.1-0.1-0.1-0.2-0.2
					c-0.1-0.1-0.2-0.2-0.3-0.3c-0.1-0.1-0.1-0.2-0.2-0.3c-0.1-0.1-0.1-0.2,0-0.1c0,0.1,0.1,0.4,0,0.8c0,0.5-0.1,0.8-0.2,0.9
					c0,0,0,0,0,0c0-0.1,0.1-0.1,0.1-0.2l0,0l0,0l3.4-4.3l0,0l-0.1-0.1l-0.7-0.7C451.2,129.2,450.8,128.9,450.4,128.5z"/>
			</g>
		</g>
	</g>
</g>
<g>
	<g>
		<g>
			<path d="M78.4,241.8l-0.1,0.2C78.3,241.9,78.4,241.9,78.4,241.8z"/>
			<path d="M101.7,211l0.3,0.1C101.9,211,101.8,211,101.7,211z"/>
			<path d="M71.5,205.9L71.5,205.9C71.5,205.9,71.5,205.9,71.5,205.9z"/>
			<g>
				<path d="M70.2,206.2c0.6-0.9-1.9,2.4-3.3,4.6c-1.5,2.4-2.9,5-4.1,7.6c-2.4,5.6-4.3,11.7-8,16.3
					c-3.9,5-8.2,9.5-11.6,15c-3.4,5.4-7.8,9.8-12.3,14.3c-4.3,4.3-6.8,10.3-11.8,13.8c-1.3,0.9-2.8,1.7-4.1,2.4
					c-0.2,0.1-0.4,0.4-0.6,0.8c-0.2,0.4-0.5,1-0.7,1.5c-0.5,1.1-0.8,2.1-0.8,2.6c0,0.2,0.6,0.5,1.4,0.6c0.8,0.2,1.7,0.1,2.1,0.1
					c2.6-0.1,6.6-0.8,8.3-1.6c3.5-1.5,5-2.2,7.9-4.5c5.8-4.7,11.2-9.6,18-13.3c5.6-3,8.7-8.5,13.4-12.4c5.1-4.2,10.8-7.9,14.9-12.9
					c4.4-5.4,10.2-9.7,14.5-15.4l2.6-3.5c1-1.3,1.9-2.8,2.9-4.1c0.5-0.7,0.8-1.4,1.2-2.1c0.3-0.7,0.7-1.4,1-2.2
					c0.5-1.5,1.1-2.8,1.6-4.3c-0.5-2.7-0.8-5.3-1.7-7.9c-1.1-2.6-2.4-5.2-3.7-7.7l-1.3-2.4l-0.8-1.4l-1.6-2.8l-3.1-5.5
					c-5.1-9.2-11.6-17.2-17.6-25.6c-5.5-7.6-8.8-16.6-16.1-23.4c-1.9-1.8-4.2-3.9-6.9-5.5c-2.8-1.6-6-2.6-9.8-1.8
					c-1.8,0.4-3.7,2.2-5.2,3.9c1.2-1.4,1.6,0.3,1.7,2.3c0,2.1-0.4,4.5-0.4,4.8c0.1,3.2,1.1,5.6,1.6,8.4c1,5.4,0.6,10.9,3,15.2
					c5,8.9,11.3,16.8,17.2,25.2c2.5,3.6,5,7.1,7.4,10.7c1.2,1.8,2.4,3.6,3.5,5.4c0.5,0.9,1.1,1.8,1.6,2.7l0.8,1.3c0,0,0,0.1,0,0.1
					c0,0.2-0.1,0.4-0.4,0.5C70.5,206.3,70.3,206.2,70.2,206.2z"/>
			</g>
		</g>
	</g>
</g>
<g>
	<g>
		<g>
			<path d="M252.7,330.7l-0.3,0.3C252.5,330.9,252.7,330.8,252.7,330.7z"/>
			<path d="M296.4,290.9l0.2,0.4C296.6,291.1,296.5,291,296.4,290.9z"/>
			<path d="M281.7,256.5l0.2-0.3C281.8,256.4,281.7,256.5,281.7,256.5z"/>
			<g>
				<path d="M262.8,271.8c-8.2,7.2-15.6,15.2-22.1,24.1c-6.7,9.1-12.6,19-20.7,26.9c-8.5,8.4-17.4,16.2-25.2,25.3
					c-7.9,9.1-16.7,16.8-25.7,24.7c-8.7,7.6-15.2,17.6-24.5,24.5c-2.5,1.8-5.1,3.5-7.7,5.3c-1.3,0.9-5.4,7.6-5.8,9.4
					c-0.2,0.8,4.7-0.5,6-0.9c4.4-1.3,10.8-3.6,13.7-5.1c5.9-3.2,8.7-4.7,14-8.8c10.9-8.5,21.3-17.1,33.6-24
					c9.9-5.5,17.3-14.7,26.3-21.4c9.8-7.2,20.3-13.7,29.1-22.1c9.4-8.9,20.3-16.2,29.6-25.2c9.2-8.9,18-18.2,27.4-26.9
					c5.5-5.1,11.1-10,16.7-14.9c14.3-12.2,27.5-25.7,41.5-38.3c6.3-5.7,13.1-10.7,19.8-15.8c6.7-5.1,13.3-10.3,19.3-16.9
					c3.2-3.5,7-7.5,10.1-12.1c3-4.6,5.3-9.9,5.1-15.4c-0.1-2.7-2.2-5.2-4.3-7.1c1.8,1.5-0.9,2.7-4,3.3c-3.2,0.7-6.9,0.8-7.3,0.9
					c-5,1.2-9.2,3.7-13.7,5.5c-8.8,3.5-17.9,5.2-25.6,10.8c-16.1,11.8-30.2,25.6-44.8,39.2c-12.4,11.5-24.4,23.4-37.1,34.6
					C278.9,258.4,270.7,264.9,262.8,271.8z"/>
			</g>
		</g>
	</g>
</g>
</svg>
