<?xml version="1.0" encoding="utf-8"?>
<!-- Generator: Adobe Illustrator 21.0.0, SVG Export Plug-In . SVG Version: 6.00 Build 0)  -->
<svg version="1.1" id="Layer_1" xmlns="http://www.w3.org/2000/svg" xmlns:xlink="http://www.w3.org/1999/xlink" x="0px" y="0px"
	 viewBox="0 0 445 445" style="enable-background:new 0 0 445 445;" xml:space="preserve">
<path d="M0.9,354.4h443.2v83H0.9V354.4z M259.3,287.5v-51c24.7-13.4,40.9-38.6,40.9-67.5c0-42.3-34.9-76.6-77.9-76.6
	s-77.9,34.3-77.9,76.6c0,28.5,15.9,53.4,39.4,66.6v51.9l-0.3,31.6H0.9v-83h66.2c-10-20.5-15.6-43.3-15.6-67.3
	c0-89,76.5-161.2,170.9-161.2s170.9,72.2,170.9,161.2c0,24-5.6,46.8-15.6,67.3h66.2v82.9H259.3L259.3,287.5L259.3,287.5z"/>
</svg>
