<?xml version="1.0" encoding="utf-8"?>
<!-- Generator: Adobe Illustrator 21.0.0, SVG Export Plug-In . SVG Version: 6.00 Build 0)  -->
<svg version="1.1" id="Layer_1" xmlns="http://www.w3.org/2000/svg" xmlns:xlink="http://www.w3.org/1999/xlink" x="0px" y="0px"
	 viewBox="0 0 380.7 380.7" style="enable-background:new 0 0 380.7 380.7;" xml:space="preserve">
<path d="M226.9,0v40h85.2l-81.7,82.7l-12.9,13.1c-9.1-6.8-18.9-12.4-29.4-16.8c-16.5-6.8-34.2-10.3-52.1-10.3
	c-17.8,0-35.6,3.5-52,10.3c-16.5,6.8-31.5,16.9-44.1,29.5c-12.6,12.6-22.6,27.6-29.5,44.1C3.5,209.1,0,226.9,0,244.7
	c0,17.8,3.5,35.6,10.3,52c6.8,16.5,16.9,31.5,29.5,44.1s27.6,22.6,44.1,29.5c16.5,6.8,34.2,10.4,52,10.4c17.8,0,35.6-3.5,52.1-10.4
	c16.5-6.8,31.5-16.9,44.1-29.5c12.6-12.6,22.6-27.6,29.5-44.1c6.8-16.5,10.3-34.2,10.3-52c0-17.8-3.5-35.6-10.3-52.1
	c-4.2-10.1-9.6-19.6-16-28.4l13.2-13.4l81.8-82.9v85.9h40V0H226.9L226.9,0z M136,148.7c12.5,0,25.2,2.5,36.8,7.3
	c11.6,4.8,22.3,11.9,31.1,20.8c8.9,8.9,16,19.5,20.8,31.1c4.8,11.6,7.3,24.2,7.3,36.8s-2.5,25.1-7.3,36.7
	c-4.8,11.6-11.9,22.3-20.8,31.2c-8.9,8.9-19.6,16-31.2,20.8c-11.6,4.8-24.2,7.3-36.8,7.3c-12.5,0-25.1-2.5-36.7-7.3
	c-11.6-4.8-22.3-12-31.2-20.8c-8.9-8.9-16-19.6-20.8-31.2c-4.8-11.6-7.3-24.2-7.3-36.7c0-12.5,2.5-25.2,7.3-36.8l0.1-0.2
	c4.8-11.5,11.9-22.1,20.7-30.9c8.8-8.8,19.4-15.9,30.9-20.7l0.2-0.1C110.9,151.2,123.5,148.7,136,148.7L136,148.7z"/>
</svg>
