<?xml version="1.0" encoding="utf-8"?>
<!-- Generator: Adobe Illustrator 21.0.0, SVG Export Plug-In . SVG Version: 6.00 Build 0)  -->
<svg version="1.1" id="Layer_1" xmlns="http://www.w3.org/2000/svg" xmlns:xlink="http://www.w3.org/1999/xlink" x="0px" y="0px"
	 viewBox="0 0 500 500" style="enable-background:new 0 0 500 500;" xml:space="preserve">
<style type="text/css">
	.st0{fill:#231F20;}
</style>
<g id="Layer_1_1_">
</g>
<g id="Layer_2">
	<g>
		<g>
			<g>
				<g>
					<path class="st0" d="M196.9,268.7l-0.5-0.1C196.6,268.7,196.8,268.7,196.9,268.7z"/>
					<path class="st0" d="M267.5,298.8l-0.2,0.1C267.4,298.9,267.5,298.8,267.5,298.8z"/>
					<path class="st0" d="M288.4,293.2l0.4,0.2C288.6,293.3,288.5,293.2,288.4,293.2z"/>
					<g>
						<path class="st0" d="M260,278.7c-13-6.4-26.4-12.2-40.3-16.6c-14.3-4.5-29.1-7.5-44.3-9.5c-8.1-1-16.2-1.5-24.3-1.1
							c-8.1,0.4-16.2,1.6-24.1,3.7c-7.9,2.1-15.4,4.9-22.8,8c-7.3,3.1-14.5,6.6-21.5,10.5c-6.8,3.8-13.2,8.1-19.5,12.4
							c-6.3,4.4-12.4,8.9-18.8,13.2c-3.4,2.2-6.8,4.4-10.2,6.7c-1.7,1.1-9.3,7.6-10.7,9.1c-0.6,0.7,4.7-2,6.2-2.7
							c4.8-2.5,12.2-6.4,15.8-8.6c7.4-4.4,10.8-6.5,18.2-11.2c7.7-4.9,15.3-9.4,23.2-13.5c7.9-4,16-7.5,24.4-10.1
							c6.8-2,13.7-4.1,20.7-5.6c7-1.5,14.2-2.3,21.3-2.2c15.4,0.2,30.4,3.8,45.3,8.2c15.9,4.7,31,12.1,46.3,19.2
							c15.2,7,30.3,14.3,45.9,21.4c4.5,2.1,9.1,4.1,13.8,6l6.9,2.8c2.3,0.9,4.7,1.8,7,2.7c5.9,2.2,12.1,4.2,18.2,6
							c6.2,1.7,12.5,3.1,19,4c6.6,1,13.2,1.3,19.7,1.2c6.5-0.1,13-0.6,19.4-1.5c11.6-1.6,23-4,34.1-8c5.5-2,11-4.4,16.2-7.4
							c5.2-3,10.3-6.5,14.9-10.7c4.9-4.4,10.2-10.4,13.7-17.2c0.8-1.7,1.7-3.4,2.3-5.2c0.3-0.9,0.6-1.7,0.9-2.6
							c0.3-0.8,0.5-1.7,0.7-2.6c0.2-0.9,0.4-1.7,0.6-2.5c0.2-0.8,0.2-1.6,0.3-2.4c0.2-1.6,0.3-3.1,0.1-4.5c-0.2-2.7-1.3-3.7-2.5-3.9
							c0.5,0.1,0.4,0.9,0,2.2c-0.2,0.6-0.4,1.3-0.7,2.1c-0.3,0.8-0.7,1.5-1.2,2.3c-0.4,0.8-0.9,1.6-1.3,2.3c-0.5,0.7-1,1.4-1.4,1.9
							c-0.8,1.1-1.4,2-1.6,2.1c-3.3,4.8-7,9.7-11.4,13.5c-4.3,3.7-8.8,6.5-13.5,9c-4.7,2.5-9.7,4.7-15.1,7
							c-11.3,4.8-23.4,8-35.6,9.8c-6.1,0.9-12.3,1.4-18.5,1.5c-6.2,0.1-12.3-0.2-18.3-1.1c-10.4-1.7-20.8-4.4-31-7.9
							c-5.1-1.7-10.2-3.7-15.3-5.7c-5.1-2.1-10.1-4.2-15.1-6.5C284.6,291.3,272.4,284.8,260,278.7z"/>
					</g>
				</g>
			</g>
		</g>
		<g>
			<g>
				<g>
					<path class="st0" d="M315.2,259.3l0.4,0.2C315.4,259.4,315.3,259.4,315.2,259.3z"/>
					<path class="st0" d="M255.5,229.3l0.2-0.1C255.6,229.2,255.5,229.3,255.5,229.3z"/>
					<path class="st0" d="M236.3,235.1l-0.4-0.2C236.1,235,236.3,235,236.3,235.1z"/>
					<g>
						<path class="st0" d="M260.4,248.6c11,6,22.3,11.5,33.9,16.1c6,2.4,12.1,4.5,18.2,6.6c6.1,2.1,12.3,4.1,18.5,6.1
							c6.6,2.2,13.2,4.1,20,5.7c6.8,1.6,13.6,2.7,20.6,3.3c14,1.2,27.7,1.2,41.6-0.7c6.7-1,13.2-2.8,19.6-4.6
							c6.4-2,12.7-4.2,19.1-6.3c1.7-0.5,3.4-1.2,5.1-1.7c1.7-0.6,3.4-1.1,5-1.8c0.8-0.3,3.2-1.6,5.5-2.9c2.3-1.4,4.5-2.9,5.2-3.4
							c0.6-0.5-4.4,1-5.8,1.4c-2.3,0.7-5.2,1.4-7.9,2.2c-2.8,0.7-5.4,1.4-7.2,1.9c-3.6,0.9-6.2,1.7-8.9,2.3
							c-1.3,0.3-2.7,0.7-4.1,1.1c-1.5,0.4-3,0.8-4.9,1.2c-7.6,1.9-15.1,3.5-22.7,4.3c-7.6,0.8-15.2,0.9-22.7,0.1
							c-6.1-0.7-12.3-1.3-18.6-2.1c-6.2-0.9-12.4-2.1-18.4-3.9c-13-3.8-25.3-9.3-37.8-14.6c-13.4-5.7-26-13-39.1-19.7
							c-13-6.7-25.9-13.4-38.9-20.1l-5.7-3l-5.8-2.9l-5.8-2.9l-5.9-2.8c-4.9-2.4-10-4.5-15-6.6c-5.1-2-10.3-4-15.5-5.6l-3.9-1.3
							c-1.3-0.4-2.7-0.8-4-1.1l-4-1.1c-1.3-0.4-2.7-0.8-4-1.1l-8.1-1.9c-2.7-0.5-5.5-1-8.3-1.5c-2.5-0.5-5-0.7-7.5-1.1l-3.8-0.5
							c-0.6-0.1-1.2-0.2-1.9-0.2l-1.9-0.1c-2.5-0.2-5-0.3-7.6-0.5c-0.6-0.1-1.3-0.1-1.9-0.1l-1.9,0l-3.8,0
							c-10.1-0.1-21.1,1.8-30.8,6.1c-1.3,0.6-2.7,1.1-4,1.8c-1.3,0.7-2.8,1.3-4.1,2.2c-0.7,0.4-1.4,0.8-2,1.2l-1,0.6l-0.6,0.4
							l-0.5,0.4c-1.3,0.9-2.4,1.7-3.6,2.5c-2.2,1.6-4.4,3.1-6.4,4.6c-0.9,0.7-1.8,1.3-2.7,2c-0.8,0.6-1.5,1.1-1.9,1.5
							c-0.1,0.1-0.1,0.2-0.2,0.3c0,0.1-0.2,0.2-0.3,0.3c-0.2,0.2-0.4,0.4-0.6,0.6c-0.3,0.4-0.6,0.8-0.8,1.4c0.1-0.4,0.5-0.1,1.4,0.1
							c0.6,0.2,2,0.3,3.4,0.2c2.9-0.2,6.2-0.7,6.6-0.8c2.5-0.7,5-1.7,7.5-2.8c1.2-0.5,2.5-1.2,3.6-1.6c1.2-0.5,2.4-0.9,3.7-1.4
							c4.7-1.6,9.3-2.5,13.9-3.2c4.6-0.7,9.2-1,14.1-1.3c2.6-0.2,5.3-0.1,8-0.2l4,0c1.3,0.1,2.7,0.2,4,0.2c5.3,0.2,10.7,0.9,16,1.6
							c10.6,1.6,21.2,4.3,31.6,7.8c17.7,5.9,35,13.8,51.9,22.6C239.6,236.9,249.9,242.9,260.4,248.6z"/>
					</g>
				</g>
			</g>
		</g>
		<g>
			<g>
				<g>
					<path class="st0" d="M329.1,143.9l0.1,0C329.2,143.9,329.1,143.9,329.1,143.9z"/>
					<path class="st0" d="M314.8,135.8l0.1-0.1C314.9,135.7,314.9,135.7,314.8,135.8z"/>
					<path class="st0" d="M303.9,145.4l-0.1,0C303.9,145.4,303.9,145.4,303.9,145.4z"/>
					<g>
						<path class="st0" d="M309.9,150.1c2.9,1.9,6.1,3.3,9.5,4.1c3.5,0.8,7.2,1,10.5,2.1c3.5,1.2,7.1,2.3,10.9,2.6
							c3.8,0.3,7.4,0.8,11.2,1c1.8,0.1,3.7-0.3,5.5-0.6c0.9-0.2,1.8-0.4,2.7-0.6c0.9-0.2,1.8-0.4,2.7-0.4l3-0.2
							c0.5,0,2.6-1.7,2.8-2.2c0.1-0.2-1.5-0.7-2-0.8c-1.4-0.3-3.5-0.9-4.5-1c-2-0.3-2.9-0.4-4.8-0.4c-3.9,0-7.7-0.4-11.2-2.2
							c-2.8-1.5-6-1.5-8.8-2.9c-3-1.5-5.8-3.5-8.8-4.9c-3.3-1.4-6.1-3.8-9.2-5.6c-3.1-1.7-6.3-3.4-9.2-5.5c-1.7-1.2-3.4-2.5-5-3.9
							c-4-3.5-8.3-6.7-12.1-10.4c-0.8-0.8-1.6-1.7-2.4-2.7l-0.6-0.7l-0.1-0.2l-0.3-0.3l-0.7-0.7c-1.2-1-1.6-1.3-2.3-1.8
							c-2.5-1.8-4.8-3.2-7.4-4.1c-1.4-0.5-3.1-1-4.8-1.2c-0.9-0.1-1.9-0.1-2.7,0.1c-0.4,0.1-0.9,0.2-1.4,0.4
							c-0.5,0.2-0.9,0.4-1.3,0.7c-0.8,0.6-1.2,1.8-1.4,2.9c0.2-0.9,0.9-0.2,1.5,0.7c0.6,0.9,1,2.2,1.1,2.3c0.4,0.7,0.9,1.3,1.4,1.9
							c0.5,0.6,1,1.1,1.5,1.7c1.8,2.3,3,5,4.9,6.5c0.2,0.2,0.5,0.4,0.7,0.6l0.6,0.5l0.3,0.3c0,0,0.1,0.1,0.1,0.1c0,0,0,0,0,0
							c0,0,0,0,0,0l0,0l0,0l0,0l0.2-0.2c0.6-0.7,1.2-1.4,1.9-2c0.3-0.3,0.7-0.6,1-1l0.3-0.2l0.1-0.1c-7,7-1.9,2-3.5,3.5l0,0l0,0
							l0,0.1c0.5,0.6,1,1.1,1.5,1.6c0.5,0.5,1.1,1.1,1.6,1.7c2.2,2.2,4.5,4.2,6.8,6.2c4,3.4,8.2,6.5,12.4,9.6
							C304.6,146.2,307.2,148.3,309.9,150.1z"/>
					</g>
				</g>
			</g>
		</g>
		<g>
			<g>
				<g>
					<path class="st0" d="M254.4,281.7l0-0.5C254.4,281.4,254.4,281.6,254.4,281.7z"/>
					<path class="st0" d="M250,350l-0.1-0.2C249.9,349.9,249.9,350,250,350z"/>
					<path class="st0" d="M257.2,369.3l-0.2,0.4C257.1,369.5,257.2,369.4,257.2,369.3z"/>
					<g>
						<path class="st0" d="M267.5,339.5c0.6-3.4,1-7,1.2-10.4c0.2-3.4,0.4-6.8,0.5-10.1c0-0.8,0.1-1.7,0.1-2.5l0-2.5l-0.1-5
							c-0.1-1.7-0.1-3.3-0.2-5c-0.1-1.7-0.3-3.3-0.4-5c-1-13.7-3.5-27-5.1-40.5c-1.7-14.4-3.7-28.6-6.3-42.7
							c-1.3-7.1-2.3-14.1-3-21.1c-0.7-7-1.1-14-1.1-21.1c-0.1-6.8,0.3-13.7,0.4-20.5c0.2-3.4,0.5-6.9,0.8-10.3
							c0.2-1.7,0.3-3.4,0.5-5.1c0.2-1.7,0.5-3.4,0.7-5.2c0.6-3.7,1.2-7.3,1.9-11c0.3-1.8,0.5-11.1,0.3-12.9
							c-0.1-0.8-1.7,4.4-2.1,5.9c-1.4,4.8-3.3,12.1-4.1,15.9c-1.7,7.7-2.3,11.3-3.3,19.4c-0.3,2.1-0.4,4.2-0.6,6.2
							c-0.2,2.1-0.3,4.2-0.5,6.2c-0.4,4.1-0.5,8.3-0.6,12.5c-0.2,8.3,0.1,16.6,0.4,24.9c0.2,6.7,1.1,13.6,2,20.3
							c0.9,6.8,2,13.5,2.6,20.2c1.4,14.5,2.1,28.9,3.1,43.3c1,15.3,0.3,30.6-0.9,45.7c-0.6,7.2-1.8,14.4-3.9,21.2
							c-2,6.8-4.9,13.3-8.9,18.8c-4.6,6.4-10.8,11.3-17.9,13.7c-4.6,1.5-9.3,2.3-14.2,2.1c-4.9-0.2-9.9-1-14.6-2.6
							c-9.5-3.1-18.3-8.9-23.5-16.8c-1.2-1.8-2.1-3.6-2.8-5.5c-0.7-1.9-1.2-3.9-1.4-5.9c-0.1-1-0.2-1.9-0.2-2.8c0-0.4,0-0.9,0.1-1.3
							l0.1-0.7l0.1-0.7c0.3-1.8,0.9-3.5,1.7-5.1c3.3-6.6,10.4-12.1,18.2-15.3c2.1-0.8,4.4-1.5,6.8-2c1.2-0.2,2.4-0.4,3.6-0.4
							c0.6,0,1.2-0.1,1.8-0.1c0.7,0,1.4,0,2,0c5.5,0.1,12.4,0.6,17.7-1.4c2.6-1.1,3-2.5,2.8-3.6c0.2,0.9-3.2,1-6.4,0.2
							c-3.2-0.9-6.2-2.3-6.6-2.4c-1.3-0.4-2.6-0.9-3.9-1.2c-0.7-0.2-1.4-0.4-2.1-0.5c-0.7-0.2-1.4-0.3-2.1-0.4
							c-1.4-0.3-3-0.4-4.5-0.6c-1.5-0.1-3-0.1-4.6,0c-5.8,0.2-11.5,1.4-16.9,3.7c-5.4,2.3-10.6,5.7-15,11c-2.2,2.8-4.2,6-5.5,9.6
							c-1.4,3.5-2.2,7.4-2.2,11.3l0,1.5l0.1,1.4c0.1,1,0.2,1.8,0.3,2.8c0.1,0.9,0.3,1.8,0.5,2.7l0.3,1.3l0.4,1.3
							c1,3.5,2.5,6.8,4.3,9.9C161,378,166,383,171.5,387c5.5,4,11.6,7,18.1,9.1c2.7,0.9,5.5,1.6,8.3,2.2c2.8,0.5,5.7,0.9,8.6,1
							c2.9,0.1,5.8,0.1,8.8-0.2c2.9-0.3,5.9-0.9,8.8-1.7c2.9-0.8,5.7-1.8,8.4-3.2c2.7-1.3,5.3-2.9,7.7-4.6c2.4-1.8,4.7-3.7,6.7-5.8
							c2.1-2.1,3.9-4.4,5.6-6.7c4.1-5.6,7.2-11.8,9.7-18.1C264.6,352.7,266.4,346.1,267.5,339.5z"/>
					</g>
				</g>
			</g>
		</g>
	</g>
</g>
</svg>
