<?xml version="1.0" encoding="utf-8"?>
<!-- Generator: Adobe Illustrator 21.0.0, SVG Export Plug-In . SVG Version: 6.00 Build 0)  -->
<svg version="1.1" id="Layer_1" xmlns="http://www.w3.org/2000/svg" xmlns:xlink="http://www.w3.org/1999/xlink" x="0px" y="0px"
	 viewBox="0 0 455 455" style="enable-background:new 0 0 455 455;" xml:space="preserve">
<path d="M2.5,2C2.5,2,36-8.8,94.6,21.6c61,31.7,85.6,116.8,132.9,117.9c47.3-1.1,71.9-86.1,132.9-117.9C419-8.8,452.5,2,452.5,2
	v85.5c0,0-38.1-2.5-58.9,13.5c-15.2,11.6-45.2,54.3-71.4,80.1c38.9,27.8,64,71.9,64,121.4c0,84.2-72.3,152.4-161.6,152.4
	S63,386.7,63,302.5c0-51,26.6-96.2,67.4-123.9c-25.6-26-54.3-66.4-69-77.7C40.6,85,2.5,87.5,2.5,87.5L2.5,2L2.5,2z M151.1,302.3
	c0,40,33,72.4,73.7,72.4s73.7-32.4,73.7-72.4c0-40-33-72.4-73.7-72.4C184,229.9,151.1,262.3,151.1,302.3z"/>
</svg>
