<?xml version="1.0" encoding="utf-8"?>
<!-- Generator: Adobe Illustrator 21.0.0, SVG Export Plug-In . SVG Version: 6.00 Build 0)  -->
<svg version="1.1" id="Layer_1" xmlns="http://www.w3.org/2000/svg" xmlns:xlink="http://www.w3.org/1999/xlink" x="0px" y="0px"
	 viewBox="0 0 500 500" style="enable-background:new 0 0 500 500;" xml:space="preserve">
<g>
	<g>
		<g>
			<path d="M178.6,426.3l-0.6-0.2C178.3,426.2,178.4,426.3,178.6,426.3z"/>
			<path d="M273,447.5l-0.1,0.5C273,447.7,273,447.6,273,447.5z"/>
			<path d="M274.5,407.1l0.4-0.3C274.7,406.9,274.5,407,274.5,407.1z"/>
			<g>
				<path d="M262,419.6c-2.5-1.6-5-2.7-7.2-3.5c-2.2-0.8-4.1-1.2-5.6-1.5c-1.5-0.3-2.7-0.5-3.4-0.6l-0.9-0.1c-0.2,0-0.2,0-0.2,0
					c0,0,0,0,0,0l0,0c0,0,0,0-0.1,0l-0.1,0l-1.3-0.5l-2.8-1c-1.9-0.6-3.7-1.3-5.6-1.9c-3.7-1.2-7.5-2.3-11.3-3.4
					c-3.8-1.2-7.7-2.3-11.6-3.4c-4-1.1-8-2.1-12-3.2c-4.1-1-8.2-2.1-12.2-3.1c-8.1-2.2-16.2-4.5-24.1-7.6
					c-8.3-3.3-16.6-6.6-24.8-9.9c-4.1-1.6-8.3-3.2-12.5-4.8c-2.1-0.8-4.2-1.5-6.3-2.3l-3.1-1.1c-0.8-0.3-1.6-0.5-2.3-0.9
					c-3.1-1.2-5.7-3.1-8-5.4c-1.1-1.2-2.1-2.5-3.1-3.9c-0.9-1.4-1.7-3-2.4-4.7c-2.9-6.7-3.8-14.4-4.2-23.1
					c-0.2-4.2-0.6-8.6-1.2-13.1l-1-6.4l-0.5-3l-0.4-3.1l-0.4-3.1c-0.1-1-0.2-2.1-0.3-3.1c-0.2-2.1-0.3-4.2-0.4-6.4
					c-0.1-2.2-0.1-4.2-0.1-6.6c0-1.1,0-2.3,0-3.4l0-0.9l0-0.9l-0.1-1.8c0-1.3-0.1-2.6-0.1-3.9l-0.3-3.7l0-0.8l0-0.7
					c0-0.5,0-0.9,0-1.2c0-0.4,0.1-0.6,0.1-0.9c0.1-0.3,0.1-0.6,0.2-0.9c0-0.1,0.1-0.3,0.1-0.8c0.1-1,0.1-2.5,0.1-4.1
					c-0.1-0.9-0.2-1.8-0.3-2.7c-0.1-0.9-0.2-1.9-0.5-2.8c-0.8-3.7-2.3-6.9-3-7.9c-0.4-0.5-0.6,1.3-0.9,3.5c-0.1,1.1-0.4,2.2-0.6,3.3
					c-0.2,1-0.4,1.9-0.5,2.4c-0.3,1.1-0.7,2.2-1.1,3.4c-0.4,1.2-1,2.4-1.5,3.7c-1.2,2.1-1.7,4.7-1.9,7.2c-0.2,2.5-0.3,4.6-0.5,6.2
					c-0.2,2.4-0.3,4.4-0.7,6.4c-0.3,1.9-0.5,3.6-0.7,5.5c-0.2,1.8-0.4,3.6-0.5,5.6c-0.1,2-0.2,4.2-0.3,6.8c0,2.7,0,5.3,0,8
					c0.1,2.6,0.2,5.2,0.3,7.9c0.2,4.9,0.2,9.9,0.2,15.2c0,5.2,0.2,10.7,0.9,16.4c0.3,2.9,0.9,5.7,1.5,8.6c0.7,2.9,1.6,5.9,2.8,8.9
					c0.9,2.4,2.2,4.8,3.7,7c1.5,2.2,3.3,4.4,5.3,6.4c4,4,8.9,7,13.9,9.2c7.8,3.3,15.7,6.5,23.2,10.2c16.2,8.2,32,17.2,48.9,24.1
					c2.2,0.9,4.5,1.9,6.7,2.8c2.2,1,4.5,2,6.7,3c4.5,2,8.9,4.1,13.3,6.3c2.2,1.1,4.5,2.1,6.8,3l6.9,2.9c2.3,1,4.6,1.9,7,2.8l3.5,1.4
					l0.5,0.2l0.3,0.1l0.4,0.1c0.5,0.2,1.1,0.4,1.6,0.5c1.1,0.3,2.2,0.6,3.1,0.7c1.9,0.4,3.3,0.5,4.1,0.7l0.9,0.1c0.1,0,0.1,0,0.2,0
					c-0.1,0.5,0.3-1.2,0.7-2.1l0.1-0.4l0.1-0.3l0.2-0.5c0.1-0.3,0.3-0.7,0.4-1l0.1-0.2l0.1-0.2l0.1-0.3c0.1-0.2,0.2-0.4,0.3-0.6
					l0.2-0.4c0.1-0.1,0.1-0.2,0.2-0.3c0,0,0.1-0.1,0.1-0.1l-0.1-0.1c0-0.1-0.1-0.2-0.1-0.2l0-0.1c0,0,0.1,0.1,0.1,0.2l0.3,0.4
					l0.1,0.2l0.1,0.1l0,0c4.6-4.1-6.2,5.5-5,4.6l0.4,0.3c0.3,0.2,0.5,0.5,0.8,0.7c0.5,0.4,1.1,0.8,1.7,1.2c1.2,0.7,2.6,1.4,3.7,1.8
					c0.5,0.2,1.1,0.3,1.7,0.5c0.6,0.1,1.1,0.2,1.7,0.3l0.4,0.1l0.3,0l0.5,0c0.6,0,1.3,0.1,1.9,0.1c0.6,0,1,0,1.5-0.1
					c1-0.1,1.9-0.2,2.8-0.5c0.2,0,0.5-0.1,0.8-0.2l0.8-0.2l0.8-0.3l0.5-0.2c0.4-0.2,0.8-0.3,1.1-0.5c1.5-0.7,3-1.7,4.2-2.7l0.3-0.3
					l0,0l0,0c0.9,1.6-7.9-13.6-4.2-7.2l0,0l0,0l0,0l-0.1,0c0,0-0.1-0.1-0.1-0.1c0,0,0.1,0.1,0.1,0.1c0.1,0.1,0.3,0.3,0.4,0.5
					c0.2,0.3,0.5,0.7,0.7,1.1c0.3,0.6,0.7,1.3,1,1.9c0.2,0.5,0.5,1,0.7,1.6c0.2,0.6,0.4,1,0.6,1.7c0.3,0.7,0.2,0.4,0.2,0.5l0,0
					c0,0,0,0,0,0l0.3-0.1c0.6-0.2,1.8-0.6,3.7-1.1c2.2-0.7,4.4-1.6,6.4-2.7c4.1-2.2,8.1-4.5,12.2-6.7c4-2.2,8-4.3,12-6.5l7.4-3.9
					c2.5-1.3,5-2.6,7.4-3.7c4.9-2.4,9.7-4.8,14.6-7.1c3.1-1.4,6.3-2.8,9.4-4.2c3.1-1.4,6.2-2.9,9.4-4.2c6.4-2.7,12.6-5.6,19-8.3
					l9.6-4.1l4.9-2.1l2.4-1l2.2-0.9c2.9-1.2,5.4-2.1,7.7-2.6c0.6-0.1,1.1-0.3,1.7-0.4l1.7-0.3c3.1-0.4,6.5-1.3,10-2.9
					c3.1-1.4,6.2-3.5,8.7-5.9c2.5-2.4,4.5-5,6-7.5c1.5-2.5,2.6-4.8,3.4-7l0.6-1.6l0.5-1.5c0.2-0.6,0.3-0.9,0.4-1.3l0.4-1.2
					c1-3.3,2.1-6.5,3.1-9.8c1-3.2,1.8-6.3,2.7-9.5l1.3-4.7l1.2-4.5c0.8-3,1.5-6.1,2.3-8.8c0.4-1.4,0.7-2.8,1.1-4.3l0.5-2.1l0.5-2.3
					c0.4-1.8,0.8-3.6,1.2-5.5c0.2-0.9,0.4-1.8,0.5-2.8l0.4-2.7c0.1-1,0.2-2,0.4-3c0.1-1,0.3-2,0.3-3c0.1-2,0.3-4,0.5-6.1
					c0.1-2,0.2-3.9,0.2-5.9l0-1.5l0-2.2c0-0.8,0-1.6-0.1-2.4c0-0.8-0.1-1.4-0.2-2.2c-0.1-0.7-0.2-1.4-0.3-2.1
					c-0.1-0.7-0.2-1.2-0.4-1.9c-0.1-0.6-0.3-1.2-0.4-1.8c-0.1-0.5-0.3-1-0.5-1.6c-0.2-0.5-0.3-1-0.5-1.5c-0.2-0.4-0.3-0.9-0.5-1.3
					c-0.2-0.4-0.4-0.8-0.5-1.3c-0.2-0.4-0.3-0.7-0.5-1.1c-0.2-0.3-0.4-0.7-0.5-1c-0.2-0.3-0.3-0.6-0.5-0.9c-0.4-0.6-0.8-1.2-1.1-1.6
					c-0.3-0.5-0.8-1-1.2-1.5c-0.2-0.3-0.4-0.3-0.6-0.4l-0.4-0.1c-0.1,0-0.3,0-0.3,0l-0.3,0l-0.6,0c-0.4,0-0.9,0-1.3,0
					s-0.9-0.1-1.3-0.1c-0.1,0-0.2,0-0.3-0.1l-0.1-0.1l-0.3-0.2c-0.4-0.3-0.7-0.6-1.1-0.8l-0.1-0.1l-0.1,0l0,0
					c9.7,4.2,2.7,1.2,4.9,2.1l0,0l0,0l0,0l0-0.2c0-0.1-0.1-0.2-0.1-0.3c0-0.1-0.1-0.1-0.2-0.1l0,0l-0.4-0.1l-0.8-0.3
					c-0.6-0.2-1.1-0.4-1.7-0.6c-0.5-0.2-1.1-0.4-1.6-0.7l-0.8-0.3l-0.2-0.1c0,0,0,0-0.1,0l-0.1,0c-0.4,0-0.7-0.1-1-0.2
					c-0.3-0.1-0.6-0.2-0.9-0.4c-0.1-0.1-0.3-0.2-0.4-0.3c-0.1-0.1-0.1-0.1-0.2-0.2c-0.1-0.3-0.3-0.5-0.4-0.8l-0.1-0.1l0,0l0,0
					c0.3,0.2-0.4-0.2-0.3-0.2l0,0l0,0l0,0c0,0,0,0,0,0.1c0,0,0,0,0,0c0,0,0,0.1,0.1,0.2c0,0.1,0,0.1,0,0.2c0,0.1,0,0,0,0.4
					c0.1,0.5,0.1,1,0.1,1.5l0,0.4l0,0l0,0c0.1,9.3,0,2.6,0,4.6l0,0l0,0l0,0l0-0.1c0-0.1,0-0.2,0.1-0.3c0.2-0.1,0.3-0.2,0.5-0.3
					l0.2-0.1c0.1,0,0.1-0.1,0.3-0.2c0.5-0.3,0.9-0.5,1.3-0.9c0.6-0.4,1-0.8,1.3-1.2c0.6-0.8,0.7-1.6,0.6-2.1c-0.1-0.5-0.3-0.8-0.6-1
					c0.1,0.1,0.2,0.3,0.1,0.6c-0.1,0.3-0.3,0.8-0.8,1.3c-1.1,1.1-2.7,1.2-2.9,1.3l-0.1,0l0,0c0-0.7,0,1.5,0-1.5l0,0l0-0.1l0-0.1
					c0-0.2,0-0.4,0-0.6c0-0.4,0-0.8-0.1-1.2c0-0.1,0-0.1,0-0.2l0-0.1c0,0,0-0.1,0-0.1c-0.1-0.3-0.1-0.2-0.1-0.3l0,0l0,0
					c0.1,0.1-0.3-0.2,0.3,0.2l0,0l0,0.1l0.1,0.1l0.2,0.3c0.1,0.2,0.2,0.4,0.3,0.6c0.3,0.3,0.7,0.5,1.1,0.7c0.4,0.2,0.9,0.3,1.4,0.3
					c0,0,0.3,0.1,0.2,0.1l0,0l0,0l0,0c0,0,0,0-0.1,0.1l-0.2,0.3l0,0.1l0,0l0,0c-0.1,0.2,0.1-0.3,0.1-0.3l0,0l0,0L429,259l-0.2,0.3
					l-0.2,0.3c0,0.1-0.1,0-0.1,0.1l-0.1,0.1c0,0-0.1,0-0.1,0.1c-0.1,0.2-0.2,0.3-0.3,0.5c-0.1,0.2-0.2,0.4-0.3,0.6
					c-0.2,0.4-0.5,0.9-0.7,1.3c-1.9,3.6-3.8,8.1-4,8.6c-1,3.4-1.5,6.9-2.5,9.8c-0.6,1.6-1.1,3.1-1.7,4.7c-0.6,1.7-1.2,3.4-1.9,5
					c-0.7,1.5-1.3,3.1-2,4.5c-0.7,1.5-1.5,2.9-2.2,4.2c-1.4,2.8-3.1,5.3-4.6,7.9c-0.4,0.6-0.8,1.4-1.2,2.2c-0.4,0.8-0.8,1.6-1.2,2.3
					c-0.8,1.6-1.5,3.2-2.3,4.8c-1.5,3.3-2.6,6.5-3.7,10c-1,3.5-2,7.1-3,10.6l-1.4,5.2c-0.5,1.7-1,3.3-1.5,4.9l-1.4,4.9l-0.4,1.2
					l-0.1,0.3l-0.1,0.2l-0.1,0.4c-0.1,0.3-0.2,0.5-0.3,0.7c-0.1,0.2-0.2,0.4-0.2,0.6c-0.1,0.2-0.2,0.3-0.2,0.4
					c-0.1,0.1-0.1,0.2-0.2,0.3c0,0.1-0.1,0.1-0.1,0.1l0,0c0,0,0,0,0.1,0.1l0.2,0.1c0.3,0.2,0.6,0.4,0.9,0.6c2.2,1.6,2.8,2.6,2.7,2.3
					c-0.2-0.2-1-1.8-1.7-4.7l0-0.1l0,0c0,0,0,0,0,0l0,0c0,0,0,0-0.1,0l0,0c0,0,0,0-0.1,0l-0.2,0l-1,0.2c-1.3,0.2-2.6,0.4-3.9,0.7
					c-5,1.1-9.6,2.7-13.5,4.2l-2.9,1.2l-2.7,1.1l-5.1,2.1c-3.5,1.5-6.9,2.9-10.4,4.4c-11.8,5-23.7,10.3-35.4,16l-4.4,2.1l-4.4,2.3
					l-8.7,4.5l-17,8.8c-3.9,2-7.9,4-12,6c-4,1.9-8,3.9-12,5.8c0,0-0.1,0-0.1,0c0,0,0,0,0,0l-0.6,0.1c-0.6,0.2-1.4,0.3-2.6,0.6
					c-0.5,0.1-1.3,0.4-1.9,0.6l-1.2,0.4c-0.4,0.1-0.8,0.3-1.2,0.5l-1.3,0.5c-0.5,0.2-1,0.4-1.4,0.7c-0.9,0.4-2,1.1-3,1.7
					c-2,1.4-4.1,3-5.8,5l-0.6,0.7l-0.2,0.2l-0.1,0.1l0,0l0,0c-13.7-10.9,18.6,14.8,15.3,12.2l0,0l-0.4-0.2l-0.2-0.1
					c-0.1-0.1-0.1-0.2-0.1-0.2c-0.1-0.2-0.1-0.4-0.2-0.5c0-0.1,0-0.2,0-0.3l-0.1-0.2c-0.1-0.1-0.1-0.3-0.1-0.4l-0.1-0.5l0-0.1
					c0,0,0,0,0,0.1l0,0.1c0,0.1,0,0.2,0,0.2l0,0.1l0,0.2c0,0.3,0,0.7-0.1,1c0,0.2,0,0.4-0.1,0.5c0,0.1-0.1,0.2-0.1,0.3
					c0,0.1,0,0.1,0,0.2c0,0.1,0,0.1-0.1,0.2c0,0,0,0.1-0.1,0.1l0,0l0,0l0,0c-2.8,3.3,24.5-28.3,12.9-15l-0.1-0.1l-0.5-0.4l-0.1-0.1
					l-0.1-0.1l-0.1-0.1l-0.9-0.7C263.3,420.5,262.7,420,262,419.6z"/>
			</g>
		</g>
	</g>
</g>
<g>
	<g>
		<g>
			<path d="M95.8,60.6l0.4-0.2C96.1,60.5,95.9,60.5,95.8,60.6z"/>
			<path d="M59.5,118.8l-0.4-0.1C59.3,118.9,59.4,118.9,59.5,118.8z"/>
			<path d="M95.6,115c0,0,0.1,0.1,0.1,0.1C95.7,115,95.7,115,95.6,115z"/>
			<g>
				<path d="M95.3,107.3c0.3-1.5,0.7-3.1,1.4-5c0.7-1.9,1.7-4,3.2-6.4c1.6-2.5,3.8-5.1,6.8-7.1c3-2.1,6.8-3.6,11.1-4.1
					c2.3-0.3,4.6-0.4,7-0.5c1.2,0,2.5-0.1,3.6-0.1l3.5,0l3.5,0l3.5,0.2c2.4,0.1,4.7,0,7.1,0.2c1.2,0,2.4,0.1,3.6,0.2
					c1.2,0.1,2.4,0.2,3.6,0.4c2.4,0.4,4.8,0.9,7.1,1.4c4.8,1.3,9.5,2.7,14,4.5c2.2,0.8,4.4,1.6,6.7,2.2c1.1,0.3,2.2,0.7,3.3,1
					c1.1,0.3,2.2,0.7,3.3,1c1.1,0.4,2.2,0.8,3.3,1.2c0.5,0.2,1.1,0.4,1.6,0.6l1.5,0.8c1,0.5,2,1.1,3,1.7c1,0.6,1.9,1.4,2.7,2.1
					c0.9,0.8,1.8,1.6,2.7,2.6c0.5,0.5,0.8,0.9,1.2,1.3c0.4,0.4,0.7,0.8,1,1.2c0.2,0.2,0.5,0.4,1,0.6c0.3,0.1,0.4,0.2,0.7,0.3
					c0.2,0.1,0.5,0.1,0.8,0.2c0.6,0.1,1,0.3,1.5,0.4c0.4,0.2,0.8,0.3,1.1,0.4c0.3,0.1,0.8-0.5,1.2-1.4c0.4-0.8,0.6-2,0.5-2.5
					c0.1-1.7-0.7-4.1-1.8-6.2c-1.1-2.1-2.3-4-3.3-5.1c-1-1.1-1.8-2.1-2.7-3c-0.8-0.9-1.6-1.6-2.5-2.4c-0.8-0.7-1.7-1.5-2.6-2.2
					c-1-0.7-2.1-1.4-3.4-2.2l-2-1.2c-0.7-0.4-1.4-0.8-2-1.1c-1.4-0.7-2.7-1.5-4.1-2.2c-2.8-1.4-5.5-2.8-8.3-4.1
					c-2.8-1.4-5.6-2.6-8.4-4c-2.8-1.3-5.5-2.8-8.4-4.3c-1.2-0.6-2.3-1.2-3.6-1.7c-1.2-0.5-2.4-1-3.7-1.3c-2.5-0.7-5.2-1.2-7.8-1.7
					c-2.7-0.4-5.3-0.6-8-1l-2-0.3l-2-0.2c-1.3-0.1-2.7-0.3-4-0.5c-1.4-0.2-2.9-0.5-4.3-0.7l-4.2-0.5c-2.9-0.3-5.8-0.6-8.9-0.7
					c-6.1-0.2-12.9,0.5-19.6,3c-3.5,1.3-7,2.9-10.5,4.8c-3.4,1.9-6.8,4.1-9.9,6.7c-0.8,0.6-1.5,1.4-2.3,2.1
					c-0.7,0.7-1.5,1.5-2.2,2.2c-1.4,1.6-2.7,3.2-4,4.9c-0.6,0.9-1.2,1.8-1.7,2.7c-0.6,0.9-1.1,1.8-1.6,2.8c-0.9,2-1.9,3.9-2.4,6.1
					c-2.6,8.3-2.8,17.5-0.5,25.9c2.3,8.4,6.9,15.9,12.4,21.8l1.2,1.3l0.6,0.6l0.7,0.7c1,0.9,2,1.8,3.1,2.7c1.1,0.8,2.2,1.5,3.2,2.3
					l0.8,0.5l0.8,0.5l1.6,0.9c4.4,2.3,8.7,3.9,12.6,5c1.3,0.4,2.4,0.6,3.6,1c1.2,0.3,2.3,0.5,3.4,0.8c1.1,0.2,2.4,0.4,3.7,0.6
					c1.2,0.2,2.5,0.4,3.7,0.5c5,0.5,9.9,0.6,14.8,0.4c9.7-0.6,18.9-2.4,27.5-4.5c3.9-0.9,7.7-1.7,11.5-2.5l2.8-0.5l2.7-0.5l5.4-0.9
					c7.2-1.3,14.3-2.7,21.2-5.4c7.3-2.9,17.4-6.1,21.6-15.1c1.4-2.4,0.9-5.7-0.1-8.4c0.4,1.1-0.1,1.6-1,1.6c-0.2,0-0.5,0-0.8,0
					c-0.3,0-0.5-0.1-0.8-0.2c-0.6-0.2-1.2-0.5-1.9-0.8c-2.7-1.2-5.6-3-6-3.1c-4.4-1.6-8.8-1.6-13.1-2.3c-8.5-1.3-16.5-4-24.7-2.8
					c-4.3,0.7-8.5,1.5-12.7,2.5c-3.9,0.9-7.8,1.9-11.7,2.8c-7.6,1.8-14.7,3.2-21.5,3.5c-2.9,0.1-5.7,0.1-8.4-0.1l-2.1-0.2
					c-0.7-0.1-1.4-0.2-2-0.3c-0.3,0-0.7-0.1-1-0.1l-1.2-0.2l-1.2-0.2l-1-0.2c-2.8-0.6-5-1.2-6.4-1.9c-0.3-0.2-0.6-0.3-0.9-0.5
					c-0.2-0.2-0.4-0.3-0.7-0.5c-0.2-0.1-0.3-0.3-0.5-0.5l-0.1-0.1l-0.2-0.3l-0.4-0.5c-1.4-1.6-2.1-3.3-2.4-4.9
					C94.9,110.3,95,108.8,95.3,107.3z"/>
			</g>
		</g>
	</g>
</g>
<g>
	<g>
		<g>
			<path d="M436.1,257.8l-0.5,0C435.8,257.9,435.9,257.9,436.1,257.8z"/>
			<path d="M490.1,219.5l0.4,0.2C490.3,219.5,490.2,219.5,490.1,219.5z"/>
			<path d="M455.5,208.4l-0.1-0.2C455.4,208.3,455.4,208.4,455.5,208.4z"/>
			<g>
				<path d="M453.1,214.6c-0.1,0.2-0.3,0.3-0.4,0.5c0,0.1-0.2,0.2-0.3,0.3c-0.1,0.1-0.2,0.2-0.3,0.4c-0.1,0.1-0.3,0.3-0.4,0.4
					c-0.1,0.1-0.2,0.3-0.4,0.5c-0.2,0.2-0.4,0.3-0.5,0.5l-0.3,0.3l-0.3,0.3c-0.5,0.4-0.8,0.8-1.4,1.2c-0.5,0.4-1,0.9-1.6,1.3
					c-0.6,0.4-1.1,0.9-1.9,1.4l-2,1.4l-3.6,2.6c-1.1,0.7-2,1.4-3.1,1.8c-2.1,0.9-5.3,0.8-8.9-0.9c-0.9-0.4-1.9-0.9-2.9-1.4l-3.1-1.7
					c-1.4-0.7-2.8-1.4-4.3-2.1c-1.5-0.6-3-1.1-4.5-1.7c-6.1-1.9-12.6-2.3-18.3-1.5c-1.4,0.2-2.8,0.4-4.2,0.7
					c-1.5,0.2-2.5,0.5-4.5,0.8c-3.5,0.6-6.9,1.7-10,3.3c-6.2,3.1-11.6,8.2-14.2,14.8c-0.2,0.6-0.5,1.2-0.6,1.9
					c-0.2,0.6-0.3,1.3-0.4,2c-0.1,1.3-0.3,2.7-0.2,4c0,1.3,0.4,2.6,0.6,4c0.4,1.3,0.8,2.6,1.2,3.9l0.2,0.7c0.1,0.2,0.2,0.5,0.2,0.6
					c0.1,0.3,0.2,0.5,0.3,0.8c0.1,0.5,0.3,1,0.4,1.6c0.1,0.5,0.2,1.1,0.3,1.6c0.1,0.5,0.1,1.1,0.2,1.6c0.1,2.2-0.2,4.5-1.1,6.7
					c-0.8,1.9-2,3.7-3.2,5.5c-0.2,0.3-0.4,1.2-0.4,2.3c-0.1,0.6-0.1,1.2-0.2,1.8c0,0.3,0,0.6-0.1,0.9c0,0.2,0,0.3,0,0.5
					c0,0.2-0.1,0.4-0.1,0.6c-0.1,0.4-0.1,0.7-0.2,1.1c0,0.4,0,0.6,0,0.9c0,0.6,0.1,1,0.1,1.3c0.1,0.5,1.6-0.8,3.1-1.8
					c0.2-0.1,0.4-0.3,0.6-0.4c0.2-0.1,0.4-0.2,0.5-0.3c0.3-0.2,0.6-0.4,0.8-0.5c1.6-1,3.5-2.4,5.2-3.9c1.7-1.5,3.1-3.2,3.9-4.4
					c1.6-2.5,2.5-4.5,3.2-6.6c0.7-2.1,1.2-4.4,1.2-7.5c0-1,0-1.9-0.1-2.9c0-0.5,0-1-0.1-1.4l0-0.4l0-0.2l0-0.5
					c-0.1-1.7-0.5-3.3-0.1-4.9c0.3-1.6,1.2-3,2.3-4.1c2.2-2.2,5.5-3,8.2-2.4c0.6,0.1,1.2,0.3,1.8,0.4c0.3,0.1,0.5,0.1,0.8,0.2l0.2,0
					c0.1,0,0.2,0,0.3,0l0.7,0c1.9,0.1,3.8,0,5.5,0.1c3.5,0.1,6.6,0.6,9.2,2.2c0.7,0.5,1.4,0.9,2,1.5l0.9,0.8l0.2,0.2l0.3,0.3
					l0.8,0.6c2,1.7,4.3,3.4,6.9,5.1c2.5,1.7,5.6,3.3,9.2,4.6c3.6,1.2,7.7,2,11.7,1.9c4.3,0,8.2-0.6,11.8-1.3
					c1.8-0.3,3.5-0.8,5.2-1.2c1.6-0.5,3.2-0.9,4.8-1.4c1.6-0.6,3.3-1.1,4.9-1.8l2.5-1.1c0.8-0.4,1.7-0.9,2.5-1.3
					c1.7-0.9,3.3-2.1,5-3.2c0.8-0.6,1.6-1.3,2.4-2c0.8-0.7,1.6-1.4,2.3-2.2c0.7-0.8,1.5-1.6,2.2-2.4c0.7-0.9,1.3-1.8,2-2.6
					c0.7-0.9,1.2-1.8,1.8-2.8c0.5-1,1.1-1.9,1.6-2.9c2-4,3.2-8.3,3.8-12.5c0.1-1,0.2-2.1,0.3-3.1l0.1-1.5l0-1.5l0-2.9l-0.2-2.8
					c-0.3-3.8-1-7.2-1.7-10.5c-1.7-7.3-4.1-13.9-6.3-20c-1.4-3.8-2.9-7.5-4.3-10.8c-1.4-3.4-2.7-6.6-3.9-9.6c-1.1-3-2-5.9-2.6-8.8
					c-0.2-1.4-0.6-2.8-0.7-4.2l-0.1-1l-0.1-0.5l0-0.6l-0.1-2.4c-0.2-5.7,1.2-11.5,2.9-17.1c1.6-5.6,3.5-11.1,4.7-17
					c0.6-3.1,1.7-6.8,2-10.6c0.4-3.8,0.1-7.9-1.9-12.1c-1-2.1-3.7-4-6.2-5.3c2.1,1.1,0.1,2.2-2.6,3.3c-2.6,1-5.9,2-6.2,2.2
					c-4,2.2-6.7,5.5-9.8,8.6c-6,6-12.7,11.7-15.4,20.2c-2.8,8.8-4.1,18.2-4,27.9c0,1.2,0.1,2.4,0.1,3.6l0.1,1.8c0,0.6,0.1,1.3,0.2,2
					c0.1,1.3,0.3,2.7,0.5,3.9l0.7,3.9c1,5.1,2.5,9.9,4,14.3c1.3,3.8,2.8,7.3,4.3,10.7l4.2,9.5c0.7,1.5,1.3,2.9,1.9,4.4
					c0.5,1.4,1.2,2.8,1.6,4.2c1,2.7,1.8,5.4,2.3,7.8c0.6,2.7,0.5,5.1,0.1,6.7C454.2,213.4,453.6,214,453.1,214.6z"/>
			</g>
		</g>
	</g>
</g>
<g>
	<g>
		<g>
			<path d="M390.9,95.4l-0.2-0.1C390.8,95.4,390.8,95.4,390.9,95.4z"/>
			<path d="M404.5,110l-0.3-0.2C404.3,109.9,404.4,110,404.5,110z"/>
			<path d="M427.1,138.5l-0.3,0.4C427,138.7,427.1,138.6,427.1,138.5z"/>
			<g>
				<path d="M442.6,108c0.5-4.5,0-9.2-1.4-13.5c-0.4-1.1-0.8-2.1-1.3-3.1c-0.5-1-1-2-1.6-3c-0.3-0.5-0.6-1-0.9-1.4l-1-1.4
					c-0.4-0.4-0.6-0.9-1.1-1.3l-1.2-1.1c-1.6-1.5-3.2-3-4.8-4.5l-0.6-0.5c-0.2-0.2-0.4-0.4-0.6-0.5l-0.9-0.7l-1.9-1.3
					c-2.5-1.7-5.3-3.1-8-4.4c-1.4-0.7-2.9-1.1-4.4-1.7l-2.2-0.8c-0.7-0.2-1.5-0.4-2.2-0.6l-4.4-1.1l-4.4-0.7
					c-0.7-0.1-1.5-0.2-2.2-0.3l-2.2-0.2c-1.4-0.2-2.9-0.3-4.3-0.5c-1.4-0.1-2.8-0.2-4.2-0.3c-0.7-0.1-1.4-0.2-2.1-0.2
					c-0.6,0-1.3-0.1-1.9-0.1c-2.7-0.2-5.4-0.5-8.1-0.7c-1.3-0.2-2.7-0.2-4-0.2l-4-0.1l-4-0.1c-1.3,0-2.7,0.1-4.1,0.2
					c-2.7,0.2-5.4,0.5-8.1,0.9c-2.7,0.6-5.4,1-8,1.4c-2.7,0.3-5.3,0.8-8,1.2c-5.4,0.9-10.7,2-16.1,3.5c-5.2,1.5-10.1,4.2-14.6,7.1
					c-4.6,3-8.9,6.2-13.5,9c-2.5,1.5-5.1,2.9-7.5,4.6c-0.6,0.4-1.9,2.2-2.8,4.3c-0.3,0.5-0.5,1-0.7,1.5c-0.1,0.2-0.2,0.5-0.3,0.7
					c0,0.1-0.1,0.2-0.1,0.3l0,0.1l0,0l0,0c0.1-0.1-1,1.2-0.5,0.6l0,0l0,0l0,0l0,0.2c0,0,0,0,0,0l-0.1,0.2l-0.2,0.3
					c-0.1,0.2-0.2,0.4-0.3,0.6c-0.1,0.2-0.2,0.4-0.3,0.6l-0.1,0.3l0,0.2c0,0.2-0.1,0.4-0.1,0.6l0,0.3l0,0.2c0,0.6,0,0.9,0,1.1
					c0,0.1,0.1,0.2,0.1,0.2c0,0,0.1,0,0.1,0.1l0,0c0.5,0.1,0.9,0.2,1.3,0.3c0.2,0,0.3,0.1,0.5,0.1l0.2,0c0.1,0,0.2,0,0.3,0.1
					c0.4,0.1,0.8,0.2,1.2,0.3c0.6,0.2,0.7,0.2,0.2,0.1c-0.2-0.1-0.6-0.1-1-0.2c-0.2,0-0.5-0.1-0.8-0.1l-0.2,0
					c-0.3-0.1-0.6-0.1-1-0.2c-0.1,0,0,0,0,0c0.1,0,0.3-0.1,0.5-0.4c0.1-0.1,0.1-0.2,0.2-0.2c0.1-0.1,0.1-0.2,0.2-0.4
					c0.2-0.3,0.4-0.7,0.6-1.1c0.2-0.4,0.4-0.7,0.7-1.1l0.1-0.1c0,0,0,0,0,0l0.1,0l0.1,0l0.1,0l0,0c-0.3,0.4,0.4-0.5,0.3-0.4h0l0,0
					l0,0l0,0l0.1,0l0.2-0.1c0.3-0.1,0.6-0.2,0.9-0.3c0.6-0.2,1.1-0.3,1.4-0.4c1.9-0.6,4.4-1.3,6.6-2c2.3-0.6,4.3-1.2,5.6-1.7
					c2.6-1,4.6-1.6,6.4-2.3c1-0.3,1.9-0.7,2.9-1.1c1-0.4,2.1-0.8,3.3-1.4c5.1-2.1,10.3-3.7,15.6-4.6c5.3-0.9,10.8-1,16.3-0.1
					c0.6,0.1,1.1,0.2,1.6,0.2c0.6,0.1,1.1,0.2,1.7,0.2c1.1,0.1,2.2,0.2,3.3,0.2s2.2,0,3.3,0l1.7-0.1l1.7,0c2.2,0,4.4,0,6.7,0
					c0.6,0,1.1,0,1.7,0l1.7,0.2c1.1,0.1,2.2,0.3,3.3,0.5c4.7,0.8,9.3,2.4,13.9,3.7c1.1,0.3,1.9,0.7,2.9,1l1.4,0.5l1.3,0.6
					c0.9,0.4,1.8,0.6,2.7,1c0.9,0.4,1.7,0.7,2.6,1c3.7,1.5,6.8,3.9,9.6,6.6c0.7,0.7,1.3,1.5,2,2.2l0.1,0.1c0,0,0,0,0,0.1l0,0.1
					l0.1,0.2l0.2,0.4c0.2,0.3,0.2,0.4,0.2,0.5c0.1,0.1,0.1,0.3,0.2,0.4c0.1,0.3,0.2,0.6,0.3,1c0,0.1,0,0.2,0,0.3c0,0.1,0,0.1,0,0.2
					l-0.1,0.4c-0.1,0.7-0.3,1.2-0.5,1.8c-0.8,2.3-2.3,4.5-4.9,6.5c-1.5,1.1-3.4,2.2-5.4,3.2c-0.5,0.2-1.1,0.5-1.6,0.7
					c-0.5,0.2-1.1,0.4-1.7,0.6l-1.7,0.6l-0.8,0.3l-0.9,0.2c-5.9,1.5-12,2.6-18.7,2.9c-1.7,0-3.3,0.2-5.1,0.1l-2.6,0l-2.6-0.2
					c-3.4-0.1-6.9-0.6-10.2-1.2c-6.1-1.1-11.8-3.7-17.3-6.4c-5.5-2.7-10.7-5.9-16.5-8.1c-0.9-0.4-1.7-0.8-2.7-1.2
					c-1-0.4-2.1-0.9-3.2-1.4c-1.2-0.5-2.5-1-3.9-1.4c-0.7-0.2-1.5-0.5-2.2-0.7c-0.7-0.2-1.4-0.4-2.3-0.6c-0.8-0.2-1.6-0.3-2.4-0.4
					l-1.2-0.2c-0.5-0.1-1-0.1-1.5-0.1c-1-0.1-2-0.1-3-0.1l-0.7,0l-0.4,0l-0.2,0l-0.1,0c-0.3,0.1-0.5,0.2-0.8,0.3
					c-0.5,0.2-1.1,0.4-1.6,0.6c-0.3,0.1-0.5,0.2-0.8,0.4l0,0l0,0c0.4-1.8-3.1,15.4-1.6,8.2v0l0,0l0,0.2l0,0.3c0,0.2-0.1,0.4-0.1,0.6
					c-0.1,0.7-0.3,1-0.3,0.9c0,0,0,0,0,0l0.1-0.1c0.1-0.1,0.1-0.2,0.2-0.2c0,0,0.1,0,0.1-0.1l0.3-0.3c0.2-0.2,0.4-0.4,0.5-0.5
					c0.1-0.1,0.2-0.2,0.3-0.2c0.2-0.2,0.4-0.4,0.6-0.5c0.4-0.3,0.8-0.7,1.1-0.9c0.2-0.1,0.4-0.3,0.5-0.4c0.2-0.1,0.4-0.3,0.6-0.4
					l0.4-0.3l0,0l-0.1,0.1l-0.2,0.1c-0.5,0.3-1.1,0.6-1.8,0.9c-1.3,0.6-2.6,1.3-3.8,2.1c1-0.7,1.5-0.3,1.6,0.2c0,0.1,0,0.2-0.1,0.4
					c-0.1,0.1-0.1,0.3-0.2,0.4c-0.1,0.1-0.2,0.3-0.2,0.5c-0.1,0.2-0.1,0.4,0,0.7c0,0.3,0.2,0.5,0.3,0.8c0.3,0.3,0.5,0.6,0.7,0.9
					c0.4,0.6,0.9,1.2,1.2,1.7c0.4,0.5,0.7,1,0.9,1.3c0.2,0.4,0.3,0.6,0.4,0.7c2.5,3.4,5.2,6,7.5,9.4c0.6,0.8,1.1,1.7,1.7,2.5
					c0.6,0.9,1.2,1.8,1.7,2.6c0.6,0.9,1.3,1.8,1.9,2.7c0.7,0.9,1.3,1.7,2,2.6c1.4,1.7,2.9,3.4,4.5,4.8c1.7,1.4,3.5,2.8,5.5,3.9
					c8.5,4.6,17.8,7.6,27.3,9.5c2.4,0.5,4.8,0.8,7.2,1.1c1.2,0.1,2.4,0.3,3.6,0.4l3.6,0.3l3.6,0.2c1.2,0.1,2.4,0.1,3.6,0.1
					c2.4,0.1,4.9,0,7.4,0c8.5-0.2,17.3-1.6,26-4.3c2.2-0.7,4.3-1.4,6.4-2.3l3.2-1.3c1.1-0.4,2.1-0.9,3.1-1.4c4.2-2,8.5-4.4,12.7-7.6
					c2.5-1.9,5-4,7.4-6.4c2.3-2.5,4.6-5.2,6.5-8.2l0.7-1.1l0.7-1.2c0.4-0.8,0.9-1.6,1.3-2.4c0.7-1.6,1.6-3.2,2.1-4.9
					c0.3-0.8,0.6-1.7,0.9-2.7c0.3-1.1,0.6-2.1,0.8-3.2l0.4-1.6l0.3-1.6L442.6,108z"/>
			</g>
		</g>
	</g>
</g>
<g>
	<g>
		<g>
			<path d="M21.5,176.9l0-0.4C21.5,176.7,21.4,176.8,21.5,176.9z"/>
			<path d="M18.8,231.7l-0.4-0.1C18.6,231.7,18.7,231.7,18.8,231.7z"/>
			<path d="M54.2,228.5L54.2,228.5C54.2,228.5,54.2,228.5,54.2,228.5z"/>
			<g>
				<path d="M55.2,220.1c0.1-1.2,0.1-2.5,0.2-3.8c0-1.2,0.1-2.6,0.1-3.7c0-2.3-0.2-4.6-0.3-6.9c-0.1-1.2-0.2-2.2-0.3-3.3
					c-0.1-1.1-0.2-2.1-0.4-3.2c-0.1-1.1-0.3-2.1-0.5-3.2c-0.1-1-0.3-2-0.5-3c-0.2-1-0.4-2.1-0.6-3.1l-0.3-1.6l-0.2-1.6
					c-0.3-2.2-0.6-4.4-0.8-6.6c-0.1-1.2-0.1-2.3-0.2-3.5l0-1.9l0-2l0-2.2l0-2.3c0-1.5-0.1-3.1-0.1-4.6l-0.1-2.3
					c0-0.8-0.1-1.5-0.2-2.2l-0.5-4.2c-0.1-1.4-0.4-2.8-0.6-4.1c-0.2-1.4-0.4-2.7-0.8-4.1c-1.1-5.4-2.8-10.6-4.8-15.5
					c-2.2-4.9-4.1-9.7-5.9-14.5l-0.3-0.9l-0.3-0.8l-0.5-1.6c-0.3-1.1-0.6-2.1-1-3.2c-0.5-2.1-0.9-4.3-1.3-6.5
					c-0.2-2.1-0.7-4.2-1.1-6.3c-0.2-1.1-0.3-2.1-0.5-3.2c-0.2-1.1-0.5-2.1-0.5-3.2c-0.5-4.4-0.7-8.9,0.6-13.2
					c0.4-1.2,0.8-2.3,1.2-3.4c0.2-0.6,0.4-1.1,0.7-1.7l0.7-1.7c0.2-0.5,0.2-1.8,0-3.4l0,0.1c0,0,0-0.1,0-0.2l0-0.4
					c0-0.3,0-0.4,0-0.6c0-0.2,0-0.4,0-0.6c0-0.1,0-0.1,0-0.1c0,0,0-0.1-0.1-0.1l-1.5-0.3l-0.9-0.2L33,65.1c-0.4-0.1-0.8-0.2-1.1-0.3
					c-0.3-0.1-0.5-0.2-0.8-0.3c-0.2-0.1-0.4-0.1-0.5-0.2l-0.3-0.1L30.1,64c-0.1-0.1-0.2-0.1-0.3-0.2c-0.1,0-0.1-0.1-0.2-0.1
					l-0.1-0.1l0,0c0,0,0,0-0.1-0.1c0,0,0,0,0,0.1c0.1,0.1,0,0.2,0.1,0.3c0,0.2,0.1,0.3,0,0.5c0,0.2,0,0.4,0,0.6
					c0,0.2-0.1,0.3-0.1,0.6c0,0.5-0.1,0.8-0.2,1.1c-0.1,0.4,0,0.1,0.2-0.9c0-0.5,0.2-0.9,0.1-1.4c0-0.2,0-0.4,0-0.6
					c0-0.2,0-0.2-0.1-0.4c-0.1-0.2,0,0.4,2,1l0.2,0.1l0.1,0l0,0c0,0,0,0-0.1,0l-0.1,0c-0.1,0-0.2,0.1-0.2,0.1
					c-0.1,0.1-0.3,0.2-0.4,0.3c-0.1,0.2-0.3,0.3-0.4,0.5c-0.1,0.1-0.1,0.2-0.2,0.3c-0.1,0.1-0.2,0.3-0.2,0.3c-1.3,1.4-2.7,3-4,4.6
					c-0.7,0.8-1.2,1.6-1.7,2.4c-0.5,0.8-0.9,1.5-1.2,2c-0.6,1.3-1.2,2.5-1.7,3.6c-0.4,1.1-0.8,2.1-1.1,3.1c-0.3,1-0.6,2.1-0.9,3.2
					c-0.2,1.2-0.4,2.4-0.6,3.9c-0.5,3.1-0.4,6.2-0.6,9.3l0,1.2l0,1.2l0.1,2.3l0.1,2.3c0,0.8,0,1.6,0.1,2.3c0.2,1.6,0.3,3.1,0.4,4.7
					c0.1,0.8,0.1,1.6,0.2,2.4l0.3,2.4c0.2,1.6,0.4,3.2,0.6,4.8c0.2,1.5,0.3,2.9,0.4,4.4c0.1,2.3,0.5,4.6,1,6.8
					c0.4,2.2,1.1,4.4,1.6,6.5c1.2,4.3,2.2,8.5,2.3,12.7c0,2.3,0,4.5-0.3,6.8c-0.2,2.3-0.5,4.3-0.9,5.9c-0.2,0.8-0.5,1.6-0.7,2.4
					l-0.4,1.4l-0.4,1.6l-0.5,1.8l-0.5,2c-0.3,1.3-0.5,2.7-0.7,4.1c-0.2,1.5-0.4,2.9-0.7,4.4c-0.1,0.7-0.3,1.4-0.4,2.2l-0.3,2.3
					l-0.7,4.6c-0.2,1.5-0.5,3.1-0.6,4.5c-0.3,2.9-0.6,5.8-0.9,8.6c-0.2,2.7-0.3,5.4-0.3,8.1c0,2.5,0,4.9,0,7.4l0,1l0,1.6
					c0,1.1,0,2.1,0.1,3.2c0.1,1.1,0.2,2.1,0.3,3.1c0.1,1,0.3,2,0.5,3c0.2,1,0.4,1.9,0.6,2.8c0.1,0.5,0.2,0.9,0.4,1.4l0.5,1.8
					c0.4,1.3,0.8,2.4,1.2,3.6c0.4,1.2,0.9,2.3,1.3,3.4c1.9,4.5,4.8,8.4,8.5,11.5c4.3,3.7,9.5,6,15.1,7.2c2.8,0.6,5.6,0.9,8.6,1
					l1.9,0l1.7,0l1.7,0c0.6,0,1.1-0.1,1.7-0.1c5.6-0.4,10.3-1.6,14.1-2.6l11.1-2.7l11.5-2.9c3.8-0.9,7.5-1.7,11.2-2.5
					c0.8-0.2,1.7-0.3,2.5-0.5l1.3-0.2l0.6-0.1c0.2,0,0.5-0.1,0.5-0.1c0.4,0,0.8,0.1,0.9,0.3c0.4,0.3,0.5,0.8,0.5,1.2
					c0,0.4-0.3,0.7-0.5,0.9c-0.2,0.2-0.2,0.1,0.2,0l0.1,0c0.3,0,0.6-0.1,1.6,0.5l0.1,0.1c0,0,0,0,0.1,0l0,0c0,0,0,0.1,0,0.1l0.1,0.9
					c0,0.6,0.1,1.2,0.2,1.8c0.2,1.2,0.4,2.4,0.7,3.6c0.7,2.5,1.7,5,3.5,7.9c0.9,1.2,2.3,1.9,3.8,2.2c1.5,0.3,3.1,0.2,4.5,0.1
					c-0.6,0.1-1,0-1.3-0.3c-0.3-0.3-0.3-0.7-0.2-1.2c0.1-0.5,0.3-1.1,0.7-1.7c0.4-0.6,0.9-1.2,1.4-1.7c2.2-2.1,5.1-3.7,5.4-4
					c0.8-0.8,1.6-1.5,2.3-2.4l0.5-0.6c0.2-0.2,0.4-0.5,0.5-0.8c0.4-0.5,0.7-1.1,1.1-1.7c1.4-2.3,2.8-4.9,4.4-7.7
					c1.3-2.4,2.7-4.9,3.7-7.5c0.9-2.2,1.6-4.5,2-6.6c0.4-2.2,0.6-4.2,0.2-6.4c-0.2-1.1-0.5-2.2-1-3.2c-0.5-1-1.1-2-1.7-2.8
					c-0.6-0.8-1.2-1.4-1.8-2c-0.3-0.3-0.6-0.5-0.9-0.8l-0.5-0.4c-0.2-0.1-0.3-0.2-0.6-0.4c-1.1-0.7-2.5-1.4-4.2-2.1
					c-1.6-0.8-3.8-0.6-5.9-0.7l-1.6,0c-0.5,0-1.1,0-1.5-0.1l-2.7-0.6l-2.8-0.6l-2.9-0.3l-2.9-0.2c-1,0-2,0.1-2.9,0.1l-3,0.1
					c-0.5,0-1,0.1-1.4,0.2l-1.4,0.2l-2.9,0.5l-1.4,0.2l-0.8,0.1l-3.2,0.6c-4.2,0.8-8.5,1.8-12.6,2.7c-4.1,1-8.1,2-12.2,2.9l-5.2,1.2
					c-1.6,0.4-3.9,1-5.6,1.4c-3.6,1-6.5,1.8-8.7,2.2c-1.1,0.2-2.1,0.3-2.9,0.4c-0.1,0-0.2,0-0.3,0l-0.2,0c-0.1,0,0,0,0,0
					c0,0,0,0,0,0c-0.1,0-0.1,0-0.2,0c-0.2,0-0.5-0.1-0.6-0.3c-0.2-0.3,0-0.7,0.2-0.9c-0.2-1.2-0.2-2.3-0.1-3.1c0-0.2,0-0.4,0.1-0.6
					c0-0.2,0.1-0.3,0.1-0.5L55.2,220.1z"/>
			</g>
		</g>
	</g>
</g>
<g>
	<g>
		<g>
			<path d="M278.1,199.2L278.1,199.2C278.1,199.2,278.1,199.1,278.1,199.2z"/>
			<path d="M250.3,177.4l0.2-0.4C250.4,177.1,250.3,177.3,250.3,177.4z"/>
			<path d="M246.7,221.4L246.7,221.4C246.7,221.5,246.7,221.4,246.7,221.4z"/>
			<g>
				<path d="M247.1,223.4c0,0.2,0-0.1,0.3-0.3c0,0,0.1-0.1,0.1-0.1c0.1,0.1-0.2-0.3-0.1-0.2l0.9,0.9l0.9,0.8l1.1,0.9l1.1,0.9
					c0.4,0.3,0.7,0.6,1.2,0.9c0.9,0.6,1.8,1.1,2.7,1.7c1,0.5,2.1,1,3.1,1.5c1,0.5,2.2,0.8,3.4,1.1c1.2,0.3,2.3,0.6,3.5,0.7
					c1.2,0.1,2.4,0.2,3.6,0.3c1.1,0,2.3-0.1,3.4-0.3l0.8-0.1l0.4-0.1l0.1,0l0.1,0l0,0c-0.6,0-0.2,0-0.3,0l0,0l0.1,0l0.7-0.2l0.7-0.2
					l0.5-0.2l0.5-0.2c0.2-0.1,0.5-0.2,0.8-0.2c0.6-0.2,1-0.3,1.8-0.5c1.3-0.3,2.8-0.7,4.4-1.2c0.9-0.3,1.7-0.6,2.6-0.9
					c1-0.4,1.9-0.8,2.8-1.3c1-0.5,1.9-1.1,2.8-1.7l0.2-0.1c-0.2,0.1,1.4-0.9,0.8-0.5l0,0l0,0l0,0l0,0l0.1-0.1l0.3-0.3l0.5-0.5
					l0.5-0.5c0.4-0.4,0.8-0.7,1.2-1.1s0.8-0.8,1.2-1.2c0.4-0.4,0.8-0.8,1-1.2c0.5-0.7,1.1-1.4,1.6-2.1c0.5-0.7,0.9-1.5,1.4-2.2
					c1.9-3.2,3-6.7,3.5-10c0.5-3.3,0.4-6.5-0.1-9.5c-0.5-3-1.5-5.9-2.8-8.6c-0.3-0.7-0.7-1.3-1.1-2c-0.4-0.6-0.8-1.3-1.3-1.9
					c-0.4-0.6-0.9-1.2-1.4-1.8l-0.8-0.9c-0.2-0.2-0.4-0.4-0.6-0.6c-5.9-5.5-10.1-11.9-14-18.7c-0.9-1.6-2-3.1-3.2-4.6
					c-1.1-1.5-2.2-3-3.4-4.4c-1.2-1.5-2.2-3-3.1-4.6c-0.9-1.6-1.7-3.3-2.1-5.1c-0.4-1.9-0.7-3.9-1-5.9c-0.1-0.9-3.7-4.7-5-5.3
					c-0.6-0.3-1.9,3.2-2.2,4.2c-0.5,1.6-1.1,3.6-1.4,5.6c-0.3,1.9-0.5,3.8-0.4,5c0.1,1.2,0.1,2.3,0.2,3.2c0.1,0.9,0.2,1.8,0.4,2.7
					c0.3,1.7,0.8,3.4,1.6,5.6c3.5,9.1,8.1,17.4,11,27.1c0.6,2,1.4,3.8,2.4,5.5c0.5,0.9,1,1.7,1.6,2.5l0.8,1.2l0.2,0.3
					c0.1,0.1,0.1,0.1,0.1,0.2l0.2,0.3c0.2,0.3,0.4,0.7,0.6,1.1c0.2,0.4,0.4,0.8,0.5,1.3c0.2,0.4,0.2,0.9,0.2,1.3
					c0,0.4,0,0.9-0.2,1.3c-0.3,0.9-0.7,1.5-1.2,1.8c-0.1,0.1-0.3,0.1-0.4,0.1l-0.1,0l-0.2,0c0,0-0.1,0-0.1,0
					c0.1,0.1,0.2,0.1,0.2,0.1c0.1,0,0.3,0.2,0.3,0.2c0,0,0,0,0,0l0,0l0-0.1c0-0.1,0-0.1,0.1-0.2c0-0.1,0.1-0.3,0.2-0.4
					c0-0.1,0.1-0.1,0.1-0.2l0.1-0.1c0,0-0.1,0-0.2,0l-0.9,0.1l-0.9,0.1l-0.2,0l-0.1,0l0,0l0,0h0c-3.5-4.1,4.7,5.6,3.9,4.6l0,0
					c-0.1-0.1-0.1-0.2-0.1-0.2c-0.1-0.2-0.2-0.3-0.2-0.5l0-0.1c0,0,0,0-0.1-0.2c-0.1-0.2-0.2-0.4-0.2-0.6c-0.1-0.4-0.3-0.8-0.3-1.2
					l-0.1-0.3l0-0.1l-0.1-0.3c-0.1-0.4-0.2-0.8-0.3-1.1s-0.2-0.8-0.2-1.1l-0.1-0.6c0-0.1,0,0,0,0c0.1,0-0.1,0-0.1,0
					c-0.1,0-0.2,0-0.5,0l-0.4,0c-0.1,0-0.4,0-0.6,0l-1.7,0l-1.9,0l-0.4,0l-0.2,0h0h0c-0.1,1.4,0.1-3.1-0.2,3.1l0,0l0,0l0,0.1
					c0,0.2,0,0.5,0,0.7c-0.1,2.1-0.7,1.7,1.1-0.8c0.5-0.8,1.1-1.5,1.8-2.2l0.6-0.8l0-0.1c0,0,0-0.1,0-0.1c0,0,0-0.1-0.1-0.2l0-0.1
					l0-0.1l0,0l-0.1-0.2l-0.6-0.8l-0.4-0.7l-0.8-1.4c-2.2-3.6-4.4-7.4-7-10.2c-2.5-2.8-5.2-4.8-7.9-6.2c-1.3-0.7-2.7-1.2-4.1-1.7
					c-1.4-0.5-3-0.7-4.8-0.8c-1.7-0.1-3.4,0.2-4.6,0.5c-0.6,0.2-1.3,0.4-1.9,0.6c-0.6,0.2-1.3,0.5-1.9,0.8c-2.6,1.2-5.6,3-8.4,5.8
					c-0.8,0.9-1.6,1.7-2.4,2.6c-0.8,0.9-1.6,1.8-2.4,2.7c-0.8,0.9-1.6,1.8-2.4,2.6l-1.3,1.2c-0.4,0.4-0.8,0.8-1.4,1.3
					c-0.3,0.3-0.3,0.3-0.4,0.3l-0.2,0.2c-0.2,0.1-0.3,0.2-0.5,0.3c-0.3,0.2-0.6,0.4-0.9,0.6c-0.5,0.3-1,0.5-1.4,0.6
					c-0.1,0-0.2,0-0.2,0.1c-0.1,0,0,0,0,0c0,0,0.1-0.1,0.1-0.1c0.1,0,0.2-0.1,0.3-0.1l-0.8,0.2c-0.1,0-0.1,0.1-0.2,0.2l-0.1,0.4
					L219,198l-0.1,0.2c1.1,2.9-2.5-6.5,2.5,6.6l0,0l0,0l0,0l0,0.1c0.1,0.2,0.1,0.4,0.2,0.7c0,0.2,0.1,0.5,0.1,0.6
					c0.1,0.3,0.1,0.8,0.1,1c0,0.1,0,0.3,0,0.4c0,0.1,0,0.2,0,0.2c0,0.2,0,0.2-0.1,0.3c0,0.1,0,0,0,0c0,0,0,0,0-0.1
					c0.1-0.1,0.1-0.2,0.3-0.5l0.2-0.3c0.1-0.1,0.2-0.3,0.3-0.4l0.4-0.4c0.1-0.2,0.3-0.3,0.4-0.4c0.2-0.2,0.4-0.3,0.5-0.5l0.3-0.2
					l0.3-0.3c0.2-0.2,0.4-0.3,0.7-0.5c0.2-0.2,0.5-0.4,0.8-0.5c0.5-0.3,1.1-0.7,1.7-1c0.6-0.3,1.2-0.7,1.9-0.9
					c0.3-0.1,0.7-0.3,1-0.5l0.4-0.2l0,0c0,0-0.1-0.1-0.1-0.2c-0.1-0.3-0.2-0.7-0.3-1.2c-0.1-0.5-0.2-1-0.2-1.5c0-0.2,0-0.5,0-0.6
					c0-0.1,0-0.2,0-0.3l0.2-1.3c0.1-0.5,0.1-0.9,0.2-1.4l0.4-1.4c0.1-0.5,0.2-0.9,0.5-1.4c1.3-3.7,4.3-7.5,7.5-11.9
					c1.6-2,3.5-5,4.8-6.8c1.4-2.1,2.6-4.3,3.8-6.8c0.6-1.3,1.3-2.7,2-4.2c0.7-1.5,1.4-3.2,1.9-4.9c0.2-0.9,0.4-1.8,0.6-2.7
					c0.1-0.9,0.2-1.9,0.2-2.9c0-2-0.4-4-1.3-6.1c-0.9-2.1-3.4-4.1-5.8-5.6c4,2.5-8,3-8.6,3.2c-3.9,1-6.7,3.1-10,4.7
					c-3.2,1.7-6.6,3-9.7,4.8c-1.6,0.9-3.1,1.9-4.5,3c-0.7,0.6-1.4,1.1-2,1.8c-0.6,0.6-1.1,1.1-1.6,1.8c-3.1,3.9-6.2,8.6-8.9,14.2
					c-2.7,5.6-5,12.4-5.8,19.8c-0.2,1.6-0.3,3.3-0.2,4.7c0,1.5,0.1,2.8,0.2,4.2c0.3,2.7,0.7,5.4,1.5,8.3c0.7,2.5,1.6,5.1,3.2,8
					c0.8,1.5,1.8,3,3.1,4.7c1.3,1.6,3,3.3,5.1,4.9c2.2,1.6,4.8,3,7.7,3.8c2.9,0.9,5.8,1.1,8.5,1c2.6-0.2,4.9-0.6,6.9-1.3l1-0.3
					l0.4-0.1l0.6-0.2l1.2-0.5l1.2-0.5l0.6-0.3l0.4-0.2l1.7-0.9c1.1-0.6,2.1-1.2,3.1-1.9c1.9-1.3,3.7-2.6,5.2-3.9l0.6-0.5l0.1-0.1
					c0,0,0,0,0,0l-0.1,0c0,0,0,0,0,0l0.1-0.1c0.1-0.1,0.2-0.1,0.2-0.1c0.2-0.1,0.4,0.1,0.5,0.3C247.2,222.7,247.1,223.2,247.1,223.4
					z"/>
			</g>
		</g>
	</g>
</g>
<g>
	<g>
		<g>
			<path d="M391.1,291.6l0-0.1C391.1,291.5,391.1,291.5,391.1,291.6z"/>
			<path d="M382.7,307.7l-0.2-0.1C382.6,307.7,382.7,307.7,382.7,307.7z"/>
			<path d="M400.1,320.2l0,0.1C400.1,320.3,400.1,320.3,400.1,320.2z"/>
			<g>
				<path d="M404.3,314.1c1.6-2.9,2.6-6.1,3-9.6c0.1-1.7,0.1-3.5,0.3-5.2c0.1-1.7,0.5-3.5,1.1-5c1.5-3.2,3.3-6.3,4.4-9.9
					c0.5-1.8,1.3-3.5,2.1-5.1c0.8-1.6,1.8-3.2,2.7-4.9c0.5-0.8,0.8-1.6,1.1-2.5c0.3-0.9,0.5-1.8,0.7-2.7c0.5-1.8,1-3.5,2-5.1
					c0.6-0.8,1.2-1.6,1.8-2.4c0.1-0.1,0.1-0.3,0.1-0.7c0-0.2,0-0.3,0-0.5l0-0.1l0,0v0v0c0,0.1,0.3-1,0.2-0.6v0l0,0l0,0l0-0.1
					l-0.1-0.3c-0.1-0.2-0.1-0.4-0.2-0.6l0-0.1l0-0.2c0-0.1-0.1-0.3-0.1-0.4c-0.1-0.5-0.3-0.9-0.4-1.1c-0.1-0.2-0.6,0.2-1.1,0.7
					c-0.5,0.5-1,0.7-1.3,0.9c-0.1,0.1-0.2,0.1-0.3,0.2l-0.1,0.1l-0.1,0l0,0l0,0l0,0l0,0c0,0-0.1,0.3,0,0.2l0,0l0,0
					c-0.2,0.1-0.4,0.2-0.7,0.3c-0.4,0.2-0.9,0.5-1.3,0.7c-0.9,0.5-1.6,0.9-2,1.3c-0.8,0.7-1.4,1.2-2,1.8c-0.6,0.5-1,1.1-1.6,2
					c-0.6,0.9-1.2,1.7-1.7,2.6c-0.6,0.8-1.2,1.7-1.9,2.5c-1.3,1.6-2.8,3.1-4.6,4.4c-1.5,1.1-2.4,2.5-3.3,4c-0.9,1.5-1.6,3-2.8,4.4
					c-1.2,1.4-2.6,2.8-3.9,4.3c-1.3,1.5-2.5,3-3.3,4.8c-1.8,3.8-4.6,6.7-6.2,10.3c-1.6,3.6-2.8,7.2-4.6,10.7c-0.5,1.1-1,2.1-1.6,3.2
					l-0.4,0.8l-0.1,0.2c0,0.1-0.1,0.1-0.1,0.1l-0.1,0.1c-0.1,0.1-0.2,0.3-0.3,0.4c-0.6,0.8-0.5,0.9-0.8,1.3
					c-0.3,0.3-0.7,0.2-1.1-0.1c-0.1-0.1-0.2-0.1-0.2-0.2l0-0.1c0,0,0,0,0,0l-0.1-0.1l-0.2-0.1l-1-0.5c-1.3-0.7-2.4-1.3-3.1-1.8
					c-0.1-0.1-0.2-0.1-0.2-0.2c-0.1-0.1-0.2-0.1-0.2-0.2c-0.1-0.1,0-0.1,0-0.2c0-0.1,0.1-0.2,0.1-0.2c0-0.1,0.1-0.1-0.1,0
					c-0.1,0.1-0.2,0.1-0.3,0.1c-0.1,0-0.2,0-0.3,0.1l-0.1,0c0,0,0,0-0.1,0l-0.1-0.1c-0.1-0.2-0.3-0.4-0.4-0.6
					c-0.4-0.5-0.7-0.9-1.2-1.4c-0.2-0.3-0.5-0.5-0.8-0.8c-0.3-0.3-0.5-0.4-0.9-0.7c-0.3-0.3-0.7-0.5-1-0.7c-0.2-0.1-0.4-0.2-0.5-0.3
					c-0.2-0.1-0.3-0.1-0.5-0.2c-0.7-0.2-1.4-0.3-2.1-0.3c-1.5,0.1-3.1,1.3-4.3,2.5c0.5-0.5,0.8-0.4,1-0.1c0.1,0.2,0.1,0.4,0.1,0.7
					c0,0.3-0.1,0.6-0.2,1c-0.2,0.7-0.5,1.4-0.9,2c-0.3,0.5-0.6,0.9-0.7,1c-0.5,0.9-0.9,1.6-1.1,2.5c-0.2,0.4-0.2,0.9-0.3,1.4
					c-0.1,0.5-0.1,1.1-0.2,1.7c-0.2,2.2-0.1,4.6,0.7,6.9c0.8,2.3,2.4,4.4,4.7,5.8c0.6,0.4,1.3,0.7,1.7,1l0.7,0.4l0.6,0.3l1.2,0.6
					l1.1,0.5l1.8,0.8l3.9,1.9c2.7,1.2,5.3,1.8,7.8,1.8c0.3,0,0.6,0,0.9,0l0.9-0.1c0.6,0,1.3-0.2,1.9-0.4l1.9-0.5
					c0.6-0.2,1.2-0.6,1.8-0.9c2-1,3.6-2.5,5-4.2c0.7-0.9,1.3-1.8,1.9-2.9l1.3-3.1l1.3-3.1l0.7-1.6l0.4-0.9c0.5-1.1,1-2.2,1.6-3.3
					C400.8,319.5,402.7,316.8,404.3,314.1z"/>
			</g>
		</g>
	</g>
</g>
<g>
	<g>
		<g>
			<path d="M341,328.9L341,328.9C341,328.8,341,328.8,341,328.9z"/>
			<path d="M337.9,329.3l0.1-0.2C337.9,329.1,337.9,329.2,337.9,329.3z"/>
			<path d="M329,349.5l-0.1,0C328.9,349.5,329,349.5,329,349.5z"/>
			<g>
				<path d="M336.9,351.5l0.7,0l0.7-0.1c0.5,0,1-0.1,1.5-0.2s1-0.1,1.4-0.2c0.5-0.1,0.9-0.2,1.4-0.4c0.8-0.3,1.4-0.5,2.1-1
					c0.7-0.4,1.4-0.9,2-1.4c0.7-0.6,1.3-1.2,1.9-1.9c0.7-0.7,1.3-1.4,1.8-2.1c0.5-0.7,1-1.4,1.6-2.1c0.5-0.7,1-1.3,1.5-1.9
					c1.1-1.3,2.1-2.7,2.8-4.2c0.2-0.4,0.4-0.8,0.5-1.2c0.1-0.4,0.2-0.8,0.3-1.1c0.1-0.4,0.2-0.8,0.3-1.2c0-0.4,0.1-0.7,0.1-1.1
					c0-3,0.5-5.4,0.8-7.9c0.2-0.9-0.2-1.6-0.4-2.3c0-0.2-0.1-0.4-0.1-0.5c0-0.2,0-0.3,0-0.5c0-0.2,0.1-0.3,0.1-0.5
					c0.1-0.1,0.2-0.2,0.4-0.3c0.2-0.1,0.5-0.2,0.7-0.3l-1.2,1.4l0.6-0.1c0.3-0.1,0.5-2,0.4-2.6c-0.1-0.3-1.6-0.9-2-1
					c-0.8-0.3-1.8-0.6-2.6-0.8l-0.1,0.1c-0.6,0.1-1,0.2-1.3,0.4c-0.8,0.4-1.3,0.7-1.7,1.1c-0.4,0.4-0.8,0.9-1.1,1.5
					c-0.3,0.7-0.6,1.4-0.9,2.1l-0.3,1.1c-0.1,0.3-0.2,0.8-0.4,1c-0.3,0.5-0.5,1-0.9,1.5c-0.4,0.5-0.8,0.9-1.4,1.3
					c-0.5,0.3-0.8,0.6-1,0.9c-0.2,0.3-0.4,0.5-0.4,0.8c-0.2,0.5-0.4,1-0.9,1.1c-0.3,0.1-0.6,0.1-0.9,0.1c-0.3,0-0.6-0.1-0.8-0.1
					c-0.5-0.1-0.9-0.3-1-0.2c0,0-0.1,0.1-0.2,0.1c-0.1,0-0.2,0-0.3,0c-0.1,0-0.2,0-0.4,0l-0.5-0.1c-0.3,0-0.6-0.1-1-0.2
					c-0.1-0.1-0.2-0.1-0.3,0c-0.1,0.1-0.3,0.3-0.5,0.4c-0.2,0.1-0.5,0.2-0.6,0.1c-0.2-0.1-0.3-0.4-0.3-0.7c0-0.2,0-0.3,0-0.4
					c0-0.1,0-0.1-0.1-0.2l0-0.1l0,0c0,0,0,0-0.1-0.1c-0.5-1.2-1.1-2.7-1.7-4.5c-0.5-1.5-0.6-3.4-1.1-5.5c-0.5-2.1-1.4-4.6-3.8-6.9
					l-7.1-6.7l-6.1,3.6c-0.1,0.1-0.2,0.1-0.4,0.2c-1.4,1-3.4,1.9-3.1,6.6c0.1,1.1,0.7,3,1.3,4.6c-1-2.6,2.8,2.2,3,2.4
					c1.3,1.3,2.4,1.6,3.6,2.4c0.8,0.5,1.6,1.1,2.4,1.7c-2.6-0.6-5.2-1.2-7.8-1.8c-0.2,0.3-0.5,0.6-0.7,0.9l-0.3,0.4l-0.3,0.4
					l-0.5,0.6c-0.1,0.2-0.2,0.4-0.3,0.5c-0.2,1,0,2.2,0.4,3.7c0.4,1.5,1.1,3.2,1.9,5.3l0.4,1l0.4,1c0.3,0.7,0.7,1.3,1,2
					c0.3,0.7,0.7,1.3,1.1,1.9c0.4,0.6,0.8,1.2,1.2,1.8c1.8,2.3,3.9,4.2,6.3,5.6C329.8,350.5,333.2,351.6,336.9,351.5z"/>
			</g>
		</g>
	</g>
</g>
<g>
	<g>
		<g>
			<path d="M304.3,334.2l-0.1-0.1C304.2,334.2,304.3,334.2,304.3,334.2z"/>
			<path d="M304.3,334.1L304.3,334.1C304.3,334.1,304.3,334.1,304.3,334.1z"/>
			<path d="M292.7,346.5L292.7,346.5C292.6,346.5,292.6,346.5,292.7,346.5z"/>
			<g>
				<path d="M302.2,351.7c0.5,0.1,1.4,0,2,0c0.7-0.1,1.4-0.2,2.1-0.3c-2,0-3.9,0-5.9,0c1.1,0.3,2.2,0.2,3.5-0.3l4.1,0.2
					c0.8-0.3,1.6-0.6,2.3-1c0.7-0.4,1.2-0.8,1.8-1.3c0.5-0.5,0.9-0.9,1.3-1.4l0.3-0.4l0.2-0.3l0.4-0.7c0.3-0.5,0.5-0.9,0.6-1.3
					c0.7-1.6,0.9-2.9,1.4-3.9c1.1-2,2-3.7,2-5.4c0-0.4,0-0.8,0.1-1.1c0.1-0.5,0.4-1,0.6-1.5c0.4-1,0.9-2,1.3-2.9
					c0.2-0.5,0.3-1,0.2-1.5c0-0.5-0.1-1-0.2-1.5c-0.1-1-0.3-2,0.2-2.9c0.2-0.5,0.6-1,0.9-1.5c0.1-0.3-1.2-1.5-1.8-1.7
					c-0.3-0.1-1.7,0.6-2.1,0.8c-1.2,0.6-2.9,1.4-3.4,1.8c-1.1,0.8-1.6,1.1-2,1.8c-0.2,0.4-0.5,0.7-0.7,1.1c-0.2,0.3-0.5,0.7-0.9,0.9
					c-0.3,0.3-0.7,0.5-1.1,0.7c-0.2,0.1-0.4,0.2-0.7,0.3c-0.3,0.1-0.5,0.1-0.8,0.1c-0.2,0-0.4,0-0.6,0.1c-0.1,0-0.2,0.1-0.3,0.2
					c-0.1,0.1-0.2,0.2-0.3,0.3c-0.3,0.3-0.6,0.7-0.8,1.1c-0.4,0.7-0.6,1.4-1.3,1.7c-0.7,0.4-1.4,0.6-2,0.6c-0.1,0-0.3,0-0.4,0
					c-0.1,0-0.2,0-0.2-0.1c0,0-0.1,0,0,0l0.4,0.4c0.3,0.3,0.5,0.5,0.7,0.7c0.2,0.2,0.4,0.4,0.6,0.6c0.2,0.2,0.4,0.5,0.5,0.6
					c1.3,1.5,1.6,2.5,1.6,2.6l2.9-6.7c-0.9-0.5-1.7-1.1-2.7-1.2l-0.4-0.1l-3,8.6c0-0.1,0-0.1,0-0.2c0-0.1,0-0.1,0-0.3
					c0-0.1,0-0.3,0.1-0.4c0-0.1,0-0.1,0.1-0.2c0-0.1,0-0.2,0.1-0.3c0.1-0.4,0.3-0.8,0.6-1.4c0.3-0.6,0.6-1,1-1.7
					c0.2-0.3,0.4-0.6,0.6-0.9l0.3-0.4l0.4-0.6l0.4-0.6l0.2-0.3c0.1-0.1,0,0,0,0c0,0,0,0,0,0c-0.1,0-0.2-0.1-0.3-0.2
					c-0.3-0.3-0.8-0.9-1.1-1.7c-0.2-0.5-0.6-1-0.9-1.5c-0.4-0.5-1-1.2-1.5-1.8l-1.7-1.7l-0.8-0.9c-0.3-0.3-0.5-0.6-0.8-0.8
					c-0.9-0.9-1.5-2.3-2-3.4c-0.4-1-0.8-1.9-1.8-2.3c-0.9-0.4-1.7-1.1-5.8,1.1c-1,0.5-2.6,1.7-3.9,2.8c1.1-0.9,0.7-0.2,0.1,0.8
					c-0.7,1-1.6,2.3-1.7,2.4c-0.9,1.5-0.9,2.6-1.3,3.9c-0.2,0.7-0.4,1.3-0.6,2c-0.2,0.6-0.4,1.3-0.5,1.9c-0.3,1.2-0.4,2.3-0.1,3.1
					c0.2,0.4,0.4,0.8,0.5,1.1c0.1,0.3,0.3,0.6,0.4,0.8c0.3,0.5,0.7,1,1.1,1.4c0.5,0.5,0.7,0.8,1,1.2l1,1.1l0.4,0.5l0.5,0.5l1.2,1.4
					c0.9,1,1.9,2.2,3.2,3.5c0.7,0.8,1.6,1.8,3,2.9c0.4,0.3,0.7,0.6,1.2,0.9c0.5,0.3,1,0.6,1.6,0.9c0.6,0.3,1.4,0.6,2.2,0.9
					c0.3,0.1,0.9,0.3,1.4,0.3C301.2,351.6,301.7,351.7,302.2,351.7z"/>
			</g>
		</g>
	</g>
</g>
<g>
	<g>
		<g>
			<path d="M261.2,326.1L261.2,326.1C261.2,326.1,261.2,326.1,261.2,326.1z"/>
			<path d="M236.4,315.7l-0.1-0.2C236.3,315.6,236.4,315.6,236.4,315.7z"/>
			<path d="M252.4,329.9L252.4,329.9C252.5,330,252.5,329.9,252.4,329.9z"/>
			<g>
				<path d="M247.3,322.5c0,0,0,0.2-0.1,0.6c0,0.1-0.1,0.2-0.1,0.3c0,0.1-0.1,0.2-0.1,0.3c-0.1,0.3-0.3,0.5-0.4,0.7
					c-2.6,0.8-5.3,1.7-7.9,2.5c0.2,0.3,0.4,0.6,0.7,0.9c-0.6-2.3-1.2-4.7-1.8-7c0,2.5,0.4,4.8,1.2,6.8c0.8,1.9,1.7,3.6,2.9,4.9
					c1.7,2,3.6,3.5,5.4,4.7l2.6,1.9l1.2,0.9l0.6,0.5l0.3,0.2l0.4,0.4c2.1,1.9,4.2,3.7,6.8,4.7c2.5,1,5.4,1.1,8,0.4
					c2.6-0.7,5-1.6,7.2-3c2.2-1.4,4.1-3.1,5.7-5.2c0.4-0.5,0.7-1,1-1.6c0.3-0.5,0.5-1,0.7-1.5l0.3-0.8l0.1-0.4l0.1-0.3l0.3-1.2
					c0.4-1.5,0.9-3,2-3.9c0.3-0.2,0.6-0.4,0.9-0.6c0.3-0.1,0.6-0.2,0.9-0.4c0.1-0.1,0.2-0.5,0.2-1c0-0.5,0.1-1.1,0-1.4
					c0-0.2-0.3-0.4-0.8-0.7c-0.4-0.2-1-0.4-1.2-0.5c-0.4-0.1-0.8-0.1-1.3-0.1c-0.5,0-1,0-1.4,0.1c-0.5,0.1-0.9,0.2-1.4,0.3
					c-0.4,0.1-0.7,0.3-1,0.4c-2,1.1-2.9,1.8-4.2,3.5c-0.3,0.5-0.6,0.9-0.9,1.4l-0.5,0.7l-0.4,0.5c-0.3,0.3-0.5,0.7-0.8,1
					c-0.3,0.3-0.5,0.5-0.8,0.7c-1.1,0.8-2.5,1.2-3.8,0.7c-1-0.4-1.7-0.4-2.3-0.4c-0.7,0-1.4-0.1-1.8-0.7c-0.2-0.4-0.4-0.8-0.4-1.2
					c0-0.2-0.1-0.4-0.1-0.6c0-0.1,0-0.2,0-0.2c0-0.1,0-0.1-0.1-0.3c-0.6-1.3-1.2-2.5-1.9-3.5c-0.7-0.9-1-2-1-2.8c0-0.2,0-0.4,0-0.5
					c0-0.2,0.1-0.2,0.1-0.3c0-0.1,0.1-0.1,0.1-0.1c0,0,0,0,0,0l-0.3,0c-0.2,0-0.4,0-0.6,0l-0.7-6.2c-0.1-0.2-0.3-0.5-0.5-0.7
					l-0.2-0.2l-1.7-2.4l-1.8-1c-1.4-0.8-3.1-1.6-5.6-1.9c-2.4-0.3-5,0.2-6.9,1.1c-1.9,0.9-3.2,1.9-4.1,2.8c-0.9,0.9-1.6,1.8-2.1,2.5
					c-1,1.5-1.6,2.8-2.2,3.9c-0.5,1.1-1,2.2-1.4,3.2c-0.5,1.2-1,2.2-1.4,3.2c0,0.1-0.1,0.3-0.1,0.3c0,0,0,0,0,0.1l-0.1,0.1
					c-0.1,0.1-0.1,0.1-0.2,0.2l0,0c-0.3,0.2-0.6,0.4-1,0.5c-0.2,0.1-0.4,0.1-0.6,0.1c0.1,0-0.6,0-0.5,0l0,0c0,0,0,0,0,0l-0.2,0.5
					l-0.2,0.5c-0.1,0.2-0.1,0.4-0.1,0.5c0,0.2-0.1,0.5-0.2,0.7c-0.1,0.5-0.3,1-0.5,1.4c-0.1,0.2-0.2,0.5-0.3,0.7
					c-0.1,0.2-0.1,0.3-0.2,0.5c-0.1,0.2-0.2,0.4-0.3,0.6c-0.1,0.1-0.1,0.2-0.2,0.3c-0.1,0.1-0.2,0.2-0.2,0.2
					c-0.1,0.1-0.2,0.3-0.4,0.4c0.1-0.1,0.2-0.1,0.2-0.1c0.4-0.2,0.8-0.4,1.1-0.4c0.8-0.3,1.7-0.5,2.6-0.5c0.1,0,0.1,0,0.2,0l0.3-0.1
					l0.7-0.1c0.5-0.1,0.9-0.1,1.4-0.2l0.7-0.1c0.1,0,0,0,0,0l0,0c0,0,0,0,0.1-0.1l0.1-0.2c0-0.1,0.1-0.3,0.1-0.6
					c0.1-0.4,0.2-1.1,0.3-1.7l0.1-1.1c0-0.4,0-0.8,0-1.2c0.1-1.7-0.2-3.8-0.8-5.8c-0.5-1.6-1.3-3.3-2.2-4.5
					c-1.3-1.9-2.7-3.7-4.9-5.1l-1-0.6c-0.4-0.2-0.7-0.4-1.1-0.6c-0.2-0.1-0.4-0.2-0.5-0.2l-0.3,0c-0.2,0-0.5,0-0.7,0l-0.2,0l-0.1,0
					l0,0l0,0c0.1,0.1-0.7-0.6-0.4-0.3l0,0l0,0l-0.1,0c-0.2-0.1-0.5-0.1-0.7-0.2c-0.5-0.1-0.9-0.2-1.5-0.2c-0.5,0-1,0-1.5,0.1
					c-0.6,0-1.2,0.1-1.8,0.3c-0.1,0-0.3,0.1-0.4,0.1c-0.1,0.1-0.3,0.1-0.3,0.2c-0.1,0.1-0.2,0.3-0.2,0.5c-0.2,0.3-0.3,0.7-0.4,1.1
					c-0.2,0.8-0.4,1.7-0.6,2.6c0.1-0.7,0.3-0.8,0.6-0.6c0,0,0.2,0.1,0.3,0.3c0.1,0.1,0.3,0.3,0.4,0.4c0.3,0.3,0.4,0.7,0.5,1
					c0.4,1.5-0.2,3.1-0.1,3.3c0,0.5-0.1,1-0.1,1.4l-0.1,0.6l0,0.6c0,0.8,0,1.5-0.2,2.3c-0.1,0.4-0.2,0.9-0.4,1.3
					c-0.2,0.4-0.3,0.8-0.5,1.2c-0.2,0.4-0.5,0.7-0.7,0.9c-0.3,0.3-0.5,0.5-0.8,0.7c-0.7,0.6-1.3,0.7-1.5,1.3
					c-0.1,0.3-0.3,0.8-0.4,1.4l0,0.2l0,0.3l-0.1,0.6c0,0.2,0,0.5-0.1,0.8l0,0.9l0,1.2l0,0.6c0,0.2,0.1,0.5,0.1,0.8
					c0.1,0.5,0.2,1.1,0.3,1.6c0.2,0.6,0.4,1.3,0.6,1.9c0.1,0.3,0.3,0.6,0.4,1c0.2,0.3,0.4,0.7,0.6,1c0.4,0.7,0.9,1.4,1.4,2
					c0.5,0.6,1.1,1.1,1.6,1.6c0.3,0.2,0.6,0.5,0.9,0.7c0.3,0.2,0.5,0.4,0.8,0.5c0.5,0.3,1.1,0.7,1.7,1c0.3,0.2,0.5,0.2,0.7,0.3
					l0.7,0.3c0.5,0.2,0.9,0.3,1.4,0.5c0.5,0.2,0.7,0.2,1.1,0.3l1.1,0.2c0.4,0.1,0.7,0.2,1,0.2l0.9,0.1l1.1,0.1
					c0.7,0.1,1.4,0.1,2.2,0.1c0.7,0,1.4,0.1,2.1,0l2.1-0.1c0.7-0.1,1.4-0.2,2.1-0.4c2.5-0.6,4.9-1.5,7-3c1-0.8,2-1.6,2.8-2.6
					c0.4-0.5,0.8-1,1.2-1.4c0.4-0.5,0.7-1,1.1-1.6c0.6-0.9,1.1-2,1.5-3l0.7-1.5l0.5-1.3c0.5-1.1,0.9-2.1,1.3-3
					c0.5-1.1,1.2-2.1,1.5-2.3c0,0,0.1,0,0.1,0l0,0l-0.2-0.2l-0.5-0.4c-0.3-0.2-0.7-0.5-1-0.8c-0.6-0.4-1.1-0.9-1.6-1.4
					c-0.4-0.4-0.9-0.9-1.3-1.2c-0.2-0.2-0.3-0.4-0.5-0.6l-0.2-0.3l-0.2-0.2c-0.1-0.2-0.2-0.3-0.3-0.5c-0.1-0.1-0.2-0.2-0.2-0.4
					c-0.1-0.3-0.2-0.4-0.2-0.6L247.3,322.5C247.3,322.5,247.3,322.5,247.3,322.5z"/>
			</g>
		</g>
	</g>
</g>
<g>
	<g>
		<g>
			<path d="M196.8,311.8l0.1,0.1C196.9,311.8,196.9,311.8,196.8,311.8z"/>
			<path d="M176.8,309.5l0-0.3C176.7,309.3,176.8,309.4,176.8,309.5z"/>
			<path d="M184.1,333.5L184.1,333.5C184.1,333.5,184.1,333.5,184.1,333.5z"/>
			<g>
				<path d="M184.6,334.5c0,0.1,0,0,0-0.4c0-0.2,0.1-0.5,0.2-0.8c0.1-0.3,0.2-0.6,0.4-0.9c0.4-0.7,0.9-1.4,1.5-1.7
					c0.6-0.3,1.2-0.2,1.6,0.2c0.2,0.2,0.3,0.4,0.4,0.6l0.2,0.3l0.5,0.8c0.4,0.5,0.6,0.9,0.8,1.2c0.1,0.1,0.2,0.3,0.3,0.4
					c0,0,0.1,0.1,0.1,0.1c0,0,0,0,0,0l0,0c0,0,0,0,0,0l0.2-0.1l4.2,4.5c0.4,0.1,0.8,0.1,1.3,0.1l3.5,0.2l0.5-0.3l0.4-0.3
					c1.6-1,3.8-2.2,5.7-4.3c0.2-0.3,0.5-0.5,0.7-0.8l0.3-0.4l0.3-0.4l0.2-0.3l0.3-0.4l0.5-0.7c0.6-0.9,1-1.9,1.4-2.7
					c0.4-0.8,0.6-1.6,0.7-2.3c0.1-0.3,0.1-0.7,0.1-1c0-0.2,0-0.4,0-0.7c0.1-0.8,0.6-1.9,1.4-2.3c0.5-0.2,1-0.1,1.2,0.1
					c0,0,0,0,0-0.1c-0.1-0.2-0.3-0.7-0.3-0.9c-0.1-0.6-0.1-0.8-0.1-0.8c0,0.2,0.1-0.4,0-0.8c-0.1-0.4-0.3-0.9-0.5-1
					c-0.4-0.5-1.2-1-2.1-1.2c-0.9-0.2-1.7-0.2-2.2-0.1c-1,0.3-1.8,0.6-2.5,1c-0.7,0.4-1.3,0.9-2,1.8c-0.4,0.4-0.7,0.9-1,1.4
					l-0.8,1.3c-0.5,0.8-0.9,1.5-1.4,2.1c-0.9,1.2-2.2,1.9-2.9,1.1c-0.6-0.5-1.1-0.4-2.2,0c1.5-0.1,3-0.1,4.6-0.2l-1.2-0.4l4.9,4.9
					c-0.3-1.1-0.7-2-1-2.7c-0.3-0.8-0.6-1.4-0.8-2c-0.1-0.2-0.1-0.4-0.2-0.6c0-0.1,0-0.2,0-0.2l0-0.1l-0.1-0.2l-0.6-1.9l-1.3-4
					c-0.2-0.7-0.5-1.4-0.7-2.1c-0.3-0.6-0.6-1.3-0.9-1.9c-0.6-1.3-1.3-2.3-2.1-3.4c-0.4-0.6-0.8-1-1.2-1.4c-0.4-0.4-0.8-0.9-1.2-1.3
					l-2.8-1.7c-0.4-0.3-1.1-0.5-1.7-0.6c-0.6-0.1-1.3-0.2-1.9-0.2c-1.3-0.1-2.7-0.1-4,0.2c-2.6,0.4-4.9,1.6-7,3.1
					c-2.1,1.5-3.7,3.2-5.5,5.6c-0.7,0.9-1.3,1.9-1.9,3c-0.3,0.5-0.6,1.1-0.9,1.5c-0.2,0.2-0.3,0.5-0.5,0.7l-0.2,0.3l-0.1,0.1
					c-0.3,0.2-0.3,0.2-0.4,0.2c-0.4,0.1-0.6,0.2-1,0.3c-0.3,0.1-0.7,0.2-1,0c-0.2-0.1-0.2-0.3-0.1-0.6c0.1-0.4,0.5-0.8,0.7-0.9
					c0.1-0.1,0.2-0.1,0.2-0.1c0,0,0,0,0,0c0,0,0,0.1-0.1-0.1l-0.2-0.4c-0.4-1-0.7-1.9-1.4-2.8c-0.4-0.4-0.9-0.9-1.6-1.4
					c-0.3,0-0.7-0.1-1.1-0.2c-0.2,0-0.4-0.3-0.7-0.4l-0.8-0.6c-1.1-0.8-3.1-0.7-4.8-0.6c0.7-0.1,0.9,0.1,0.8,0.4
					c-0.1,0.3-0.6,0.7-1.2,1.1c-1.2,0.5-2.6,1.4-2.8,1.5c-1.6,1.3-2.2,2.7-3.1,4.1c-0.4,0.7-0.9,1.4-1.4,2.1
					c-0.2,0.4-0.5,0.7-0.7,1.1c-0.2,0.5-0.4,1-0.5,1.5c-0.6,2.1-0.9,4.4-0.3,6.6c0.4,1.3,0.9,2.6,1.5,3.9c0.6,1.2,1.3,2.4,2,3.5
					c1.4,0.9,2.9,1.7,4.3,2.5c1.4,0.8,3.1,1.1,4.8,1.5c3.4,0.7,6.9,0.9,10.4,0.4c3.5-0.5,6.9-1.9,9.8-3.9c1.5-1,2.8-2.2,4-3.5
					c0.3-0.3,0.5-0.6,0.8-0.9l0.5-0.6c0.1-0.1,0-0.1,0.1-0.1c0,0,0.1-0.1,0.1-0.1C184.3,333.7,184.6,334.2,184.6,334.5z"/>
			</g>
		</g>
	</g>
</g>
<g>
	<g>
		<g>
			<path d="M134.3,319.1L134.3,319.1C134.4,319.1,134.4,319.1,134.3,319.1z"/>
			<path d="M124.2,305.9l0.2-0.1C124.3,305.8,124.2,305.9,124.2,305.9z"/>
			<path d="M104.6,314.8L104.6,314.8C104.5,314.8,104.6,314.8,104.6,314.8z"/>
			<g>
				<path d="M108.7,322.2c0.6,0.9,1,1.4,1.6,2c0.5,0.6,1.1,1.2,1.7,1.8c1.2,1.1,2.7,2.3,4.3,3.3c0.8,0.5,1.8,1,2.6,1.5l2.8,1.5
					c1,0.5,1.9,1,2.9,1.5c0.2,0.1,0.5,0.2,0.7,0.4l0.8,0.5l0.9,0.5c0.2,0.1,0.4,0.2,0.6,0.3c0.5,0.3,0.9,0.6,1.4,0.8l2,1.2l1.7,0
					c0.5,0,1,0,1.4-0.1c0.5-0.1,1.2-0.2,1.8-0.3c0.6-0.2,1.3-0.5,2-0.8c0.6-0.3,1.3-0.8,1.8-1.2c0.5-0.4,1-0.9,1.2-1.3
					c0.3-0.4,0.6-0.9,0.8-1.1c0.2-0.3,0.4-0.7,0.5-1l0.2-0.4l0.1-0.2l0-0.1l0.2-0.5l0,0l0.3-1.1l0.1-0.3l0.1-0.4l0.2-0.9l0.2-0.9
					l0-0.2l0-0.1l0-0.3c0-0.4,0-0.8,0-1.1c0-0.3,0-0.6,0-0.9c0-0.3,0.1-0.5,0.1-0.7c0.1-0.5,0.4-1.2,0.8-1.9l0.7-1.2l0.4-0.7
					l0.4-0.8c0.6-1.2,0.9-2.4,1.3-3.6c0-0.2,0.1-0.4,0.1-0.6c0.1-0.7,0.2-1.1,0.2-1.5c0-0.4,0-0.7,0-0.9c0-0.1,0-0.2,0-0.3l0-0.1
					l0,0c0,0,0,0,0,0l-0.1,0c-0.2-0.1-0.3-0.1-0.5-0.2c-1.4-0.6-2-1-2.3-1.4c-0.1,0-0.1-0.1-0.1-0.2c0,0,0,0,0,0c0,0,0,0,0,0
					c0,0,0,0.1,0,0.1c0,0.1,0,0.2,0,0.3c0,0.2,0,0.4,0,0.6c0,0.2-0.1,0.3-0.1,0.6c0,0.3-0.1,0.5-0.1,0.8c0,0.1-0.1,0.3-0.1,0.4l0,0
					c0,0,0,0,0,0v0c-0.2-0.1,0.4,0.1-0.4-0.1l0,0l0,0l0.1,0c0.2,0.1,0.4,0.1,0.6,0.2c0,0,0.1,0,0.1,0l0,0c0,0,0,0,0,0c0,0,0,0,0,0
					c0,0,0.1,0.1,0.1,0.1c0.1,0.1,0.2,0.2,0.2,0.3c0.3,0.5,1.1,1.5,1.7,2.3c0.3,0.4,3.2,0.9,3.9,0.6c0.3-0.1-0.1-2.1-0.2-2.6
					c-0.2-0.9-0.4-1.9-0.6-2.9c-0.2-0.9-0.5-1.7-0.7-2.3c-0.2-0.5-0.6-1-0.8-1.4c-0.2-0.2-0.4-0.4-0.6-0.6c-0.2-0.2-0.4-0.3-0.6-0.5
					c-0.1-0.1-0.3-0.3-0.5-0.4l-0.1,0l0,0l0,0l0,0l0,0l-0.2-0.1l-0.2-0.1c-0.2-0.1-0.3-0.1-0.5-0.2c-0.7-0.2-1.7-0.4-2.9,0
					c-0.3,0.1-0.7,0.3-1,0.4c-0.3,0.2-0.6,0.4-0.8,0.6c-0.2,0.2-0.4,0.4-0.6,0.7c-0.2,0.2-0.3,0.4-0.5,0.7c-0.5,0.9-0.9,1.7-1.1,2.3
					c-0.2,0.7-0.4,1.3-0.6,1.9c-0.1,0.3-0.2,0.5-0.3,0.8c-0.1,0.2-0.2,0.3-0.2,0.5c-0.2,0.3-0.4,0.6-0.6,0.8
					c-0.2,0.3-0.5,0.4-0.8,0.7c-0.3,0.2-0.7,0.6-1,0.8c-0.4,0.3-0.9,0.7-1.3,1c-0.4,0.3-0.8,0.8-1.2,1.2c-0.4,0.4-0.7,1.1-1,1.6
					c-0.3,0.6-0.5,1.2-0.7,1.7l-0.3,0.9l-0.2,0.7c-0.1,0.4-0.2,1-0.2,1c0,0.1,0,0.1,0,0.2c0,0.1,0,0.1-0.1,0.3
					c-0.2,0.4-0.4,0.8-0.6,1.2l0,0l0,0c-0.2,0.5,0.3-0.6,0.2-0.5l0,0l0,0l0,0l0,0l0,0l-0.1,0.1c0,0.1,0,0-0.1,0
					c0.5,0.3,1.1,0.6,1.6,1c2,1.3,2.5,2.1,2.4,2.1c-0.1-0.1-0.1-0.2-0.1-0.3c0,0-0.1-0.2-0.1-0.3c0-0.1-0.1-0.3-0.1-0.4
					c0-0.1,0-0.2,0-0.4c0-0.2-0.1-0.5-0.1-0.7c0-0.5,0-0.9,0-1.4l4.6-1l-1.3-1.5l-0.2-0.2l-0.1-0.1c0,0,0,0,0,0l0-0.2l-0.1-0.2
					c0-0.1-0.1-0.1-0.1-0.2c-0.1-0.2-0.3-0.4-0.4-0.5c-0.1-0.2-0.3-0.4-0.4-0.6c-0.3-0.4-0.6-0.7-1-1.1c-2.3-2.3-3.6-6-6.3-9.1
					l-1.8-2.1l-1.7-1.9l-0.8-1l-0.8-1.1c-0.5-0.7-1-1.5-1.5-2.2c-1.2-1.7-2.1-3.7-3.1-5.6c-0.6-1.2-1.2-2.4-1.9-3.7
					c-0.7-1.2-1.3-2.4-2-3.6c-1.4-2.4-2.8-4.8-4-7.4c-2.2-4.6-2.5-10-5.6-14.4c-0.4-0.6-0.8-1.2-1.3-1.9c-0.6-0.9-1.5-2.2-2.8-3.3
					c-0.3-0.3-0.6-0.6-0.9-0.8c-0.3-0.2-0.6-0.4-1-0.6c-0.6-0.4-1.4-0.6-2.1-0.8c-1.4-0.3-2.9-0.3-4.3,0.2c-1.4,0.5-2.5,2.2-3.4,3.7
					c0.3-0.6,0.6-0.7,0.9-0.4c0.1,0.1,0.2,0.3,0.3,0.6c0.1,0.3,0.1,0.6,0.1,0.9c0.1,1.4-0.4,3-0.4,3.1c-0.3,2-0.5,3.1-0.9,4.7
					c-0.7,3.4-2.3,6.9-1.5,9.8c1.5,6,4.6,11.4,7.6,16.9c2.6,4.7,5.5,9.2,8.4,14c0.9,1.4,1.7,2.9,2.5,4.5
					C106.7,319.1,107.6,320.6,108.7,322.2z"/>
			</g>
		</g>
	</g>
</g>
<g>
	<g>
		<g>
			<path d="M152.6,268.3L152.6,268.3C152.6,268.3,152.6,268.4,152.6,268.3z"/>
			<path d="M154.2,268.7l-0.2,0.4C154.1,269,154.1,268.9,154.2,268.7z"/>
			<path d="M168.3,240.5L168.3,240.5C168.3,240.5,168.3,240.5,168.3,240.5z"/>
			<g>
				<path d="M164.5,237c-0.7-0.3-1.4-0.5-2.2-0.6c-0.8-0.1-1.5-0.1-2.3-0.1c-1.5,0.2-3,0.7-4.2,1.6c-0.3,0.2-0.7,0.4-1,0.7
					s-0.6,0.6-0.9,0.9c-0.6,0.6-1.1,1.3-1.6,1.9l-0.6,1c-0.2,0.3-0.4,0.6-0.6,0.9c-0.3,0.6-0.6,1.1-1,1.5l-0.5,0.6l-0.6,0.7
					l-0.6,0.7l-0.8,0.9c-0.2,0.3-0.5,0.6-0.7,0.9c-0.3,0.4-0.5,0.8-0.8,1.1c-0.3,0.4-0.5,0.8-0.7,1.2c-0.2,0.5-0.5,1-0.7,1.5
					c-0.2,0.5-0.4,1-0.7,1.5c-0.2,0.5-0.4,1-0.6,1.5s-0.4,0.9-0.6,1.4c-0.2,0.4-0.5,0.7-0.8,1l-0.8,1c-0.3,0.3-0.6,0.6-0.9,0.9
					c-0.2,0.2-0.3,0.2-0.3,0.3l-0.3,0.2l-0.6,0.4c-0.4,0.3-0.7,0.6-1,1l-0.8,1.2c-0.5,0.8-1.2,1.6-2.1,1.7c-0.5,0.1-1-0.1-1.5-0.1
					c-0.1,0-0.2,0.3-0.3,0.8c-0.1,0.4-0.1,1-0.1,1.3c0,0.3,0.9,1.5,1.3,1.7c0.5,0.4,1.2,0.9,1.9,1.3c0.7,0.3,1.4,0.6,1.8,0.6
					c1.6,0.2,2.4,0.2,3.8-0.3c1.4-0.6,2.7-1.2,4-1.9l1-0.5c0.2-0.1,0.4-0.2,0.5-0.2c0.1,0,0.2,0,0.4,0c0.5,0,1,0,1.5,0.2
					c0.8,0.3,1.1,0.2,1.4-0.1c0.3-0.3,0.5-0.8,0.8-0.6c0.3,0.2,0.6,0.6,0.7,1c0.2,0.4,0.3,0.8,0.4,0.6c0.2-0.3,0.3,0.1,0.4,0.6
					c0.1,0.5,0.1,1,0.3,0.8c0.2-0.2,0.4-0.4,0.6-0.5c0.2-0.1,0.3-0.1,0.3,0.1c0,0.2-0.1,0.6-0.2,1c-0.2,0.5-0.1,0.7,0,0.9
					c0.1,0.2,0.2,0.4,0.2,0.7c0,0.1,0,0.1-0.1,0.2l0,0.1c0,0,0,0,0,0.1l0,0.6c-0.1,0.8-0.2,1.6-0.3,2.4l-0.1,0.6l0,1.2
					c0,0.8,0.1,1.6,0.2,2.4c0,0.2,0,0.4,0.1,0.6l0.3,0.5c0.2,0.4,0.4,0.7,0.6,1.1c0.2,0.4,0.4,0.7,0.6,1l0.3,0.5l0.2,0.3
					c0.1,0.1,0.1,0.1,0.1,0.1c1.2,1.3,2.5,3.3,7.1,2.4c1.1-0.2,2.9-1.1,4.4-1.9c-2.5,1.4,1.8-3.1,1.9-3.4c1.1-1.5,1.2-2.7,1.8-4
					c0.3-0.6,0.6-1.3,0.9-1.9c0.1-0.4,0.4-0.5,0.6-0.7c0.2-0.2,0.4-0.4,0.7-0.6c0.8-0.7,1.7-1.1,2-1.3c0.2,0.1,0.2-0.6,0.2-1.1
					c0-0.5,0-1,0-1.5c0-0.5,0-0.9-0.1-1.5c-0.1-0.9-0.2-1.8-0.4-2.7l-0.5-2.7l-0.4-2.8l-0.4-2.8c-0.1-1-0.1-2-0.2-3
					c0.1-3.8-1-6.2-1.8-8.6c-0.5-0.8-1.1-1.7-1.6-2.6c-0.1-0.1-0.1-0.2-0.2-0.3l-0.2-0.2l-0.3-0.4c-0.2-0.3-0.5-0.6-0.7-0.9
					l-0.4-0.5l-0.4-0.5c-0.2-0.3-0.5-0.6-0.9-1C166.9,238.4,165.8,237.6,164.5,237z"/>
			</g>
		</g>
	</g>
</g>
<g>
	<g>
		<g>
			<path d="M191.6,277L191.6,277C191.6,277.1,191.6,277.1,191.6,277z"/>
			<path d="M192.4,275.8l0,0.5C192.4,276.1,192.4,276,192.4,275.8z"/>
			<path d="M194.8,242.7L194.8,242.7C194.9,242.7,194.9,242.7,194.8,242.7z"/>
			<g>
				<path d="M188.6,241.7c-0.5,0.1-0.9,0.2-1.3,0.3c-0.4,0.2-0.7,0.4-1,0.7c-0.5,0.6-0.8,1.4-1.1,2.7c-0.5,2.5-1.2,7.3-2.7,10.7
					l-0.3,0.6c-0.4,0.9-0.8,2-1.1,2.9c-0.2,0.5-0.3,1.1-0.5,1.7l-0.4,1.8l-0.3,1.7l-0.2,0.8c-0.1,0.3-0.1,0.6-0.2,0.8
					c-0.2,0.4-0.4,0.8-0.6,1.2l-0.3,0.6c-0.1,0.2-0.1,0.2-0.1,0.4c-0.6,1.9-2.1,2.9-3.8,3.7c-0.4,0.2-0.7,0.5-1,0.8
					c-0.3,0.3-0.6,0.6-1.1,1.1c-0.7,0.5-1.3,1-1.9,1.5c-0.6,0.5-1.2,1.1-1.9,1.5l-0.6,0.3l-0.1,0.1c-0.1,0-0.2,0.1-0.2,0.1l-0.2,0.1
					l-0.4,0.1c-0.1,0-0.2,0-0.3,0c0,0,0,0.1,0,0.2c0.1,0.1,0.2,0.2,0.3,0.4c0.3,0.5,0.3,0.5,0.4,0.7c0.1,0.1,0.1,0.3,0.2,0.4
					c0,0.1,0.2,0.5,0.4,0.8c0.2,0.4,0.6,0.7,0.8,0.8c1.1,0.8,3.3,0.8,4,0.8c1.5-0.1,2,0,3.1-0.2c0.1,0,0.3,0,0.4,0
					c0.5-0.1,1.3-0.3,2-0.5l2.1-0.6c1.4-0.4,2.9-0.8,4.7-1.2c0.8-0.1,1.4-0.5,2-0.9c0.3-0.2,0.5-0.4,0.8-0.6l0.4-0.4l0.3-0.3
					c0.3-0.3,0.5-0.7,1-0.8c0.4,0,0.7,0.1,1,0.3c0.4,0.3,0.7,0.7,0.7,0.3c0-0.3,0.1-0.1,0.3,0.2c0.1,0.3,0.2,0.7,0.2,0.4
					c0-0.3,0.1-0.9,0.3-1.1c0.2-0.3,0.4-0.6,0.6-0.5c0.2,0,0.4,0.4,0.4,0.9c0,0.7,0.1,0.8,0.2,1c0.1,0.1,0.2,0.3,0.2,0.6
					c0,0.3-0.4,1.1-0.8,1.5c-0.4,0.4-0.7,0.6-0.4,0.5c0.1,0,0.2,0,0.3,0c0,0,0.1,0.1,0.2,0.2c0.1,0.1,0.1,0.2,0.2,0.3
					c0.2,0.2,0.3,0.4,0.5,0.6c0.1,0.1,0.2,0.2,0.3,0.3l0.2,0.1l0.1,0.1l0.1,0l0,0l0,0c0,0.2-0.1-0.4,0.1,0.4l0,0l0,0l0.1,0.1
					c0.3,0.7,0.7,1.4,1.2,2c0.2,0.3,0.5,0.6,0.7,0.8c0.2,0.2,0.4,0.3,0.5,0.4c0.7,0.4,1.5,0.9,2,0.7c0.3,0,0.5-0.1,0.8-0.2
					c0.1,0,0.3-0.1,0.4-0.1l0.3-0.3c0.8-0.7,2.5-1.8,3.8-2.9c-0.6,0.4-0.7,0.5-0.7,0.3c0-0.1,0.1-0.2,0.2-0.4
					c0.1-0.2,0.2-0.5,0.3-0.8c0.3-0.6,0.6-1.3,0.9-1.7c0.3-0.5,0.7-0.7,0.7-0.8c0.1-0.1,0.2-0.1,0.3-0.2l0.1-0.1l0.1,0l-0.1,0
					l-0.1,0l0,0l0,0l0,0h0c-0.1,0,0.7,0,0.4,0l0,0l0,0l0.1-0.1l0.2-0.2c0.3-0.3,0.5-0.6,0.7-0.8l0.6-0.8c0.2-0.3,0.4-0.5,0.6-0.9
					c0.8-1.4,1.8-3.1,2.5-4.9c0.4-0.9,0.7-1.9,0.9-2.8c0.2-1,0.3-2,0.3-2.8c-0.2-3.7-0.9-7.4-1.7-10.9c-0.1-0.4-0.2-0.9-0.3-1.3
					l-0.5-1c-0.3-0.7-0.6-1.3-1-1.8c-0.3-0.6-0.7-1.1-1-1.6c-0.3-0.5-0.7-0.9-1.1-1.4c-1.3-1.5-2.7-2.5-4.2-3.3l-1.3-0.6
					c-0.4-0.2-0.9-0.4-1.4-0.6c-1-0.4-2.2-0.6-3.3-0.8c-0.7-0.1-1.4-0.2-2.1-0.4c-0.7-0.2-1.4-0.3-2.1-0.5
					C191.1,241.6,189.4,241.6,188.6,241.7z"/>
			</g>
		</g>
	</g>
</g>
<g>
	<g>
		<g>
			<path d="M223.3,263.4L223.3,263.4L223.3,263.4z"/>
			<path d="M222,262.4L222,262.4C222,262.4,222,262.4,222,262.4z"/>
			<path d="M238.3,257.4L238.3,257.4C238.3,257.4,238.3,257.4,238.3,257.4z"/>
			<g>
				<path d="M230.7,247c-1.8-0.9-4.1-1.5-6.1-1.4l-0.7,0l-0.1,0l-0.1,0l-0.3,0c-0.2,0-0.4,0.1-0.5,0.1l-4.7,1.2l0,0
					c-1,0.8-2.5,2-4.2,4.2c-1.4,1.8-2.7,4.6-3,7.2c0,0.3-0.1,0.7-0.1,0.9l0.1,0.4c0.1,0.3,0.1,0.5,0.1,0.8c0,0.7,0,1.3-0.1,1.8
					c-0.4,2.2-1,3.9-0.7,5.6c0.3,1.6-0.6,2.8-1.6,3.7c-0.5,0.4-0.6,1.2-0.9,1.8c-0.3,0.7-0.7,1.3-1.5,1.4c-0.4,0-0.9-0.1-1.3-0.2
					c-0.2,0-0.5,1.5-0.5,2.2c0,0.3,1.1,1.4,1.4,1.6c1,0.9,2.7,1.8,3.5,1.9c1.5,0.2,2.3,0.2,3.6-0.3c2.6-1.3,4.6-3.1,7.8-4.9
					c1.3-0.7,1.9-1.9,2.4-3.1c0.4-1.1,0.7-2.2,1.3-3.1c0.7-0.9,1.5-1.8,2.1-2.4c0.2-0.2,0.3-0.3,0.4-0.4l0.2-0.2
					c0.1-0.1,0.2-0.2,0.2-0.3l0.2-0.3l0.1-0.2l0,0l0,0l0,0l-4.3-1.5l0,0l0,0c-0.1-0.1-0.2-0.1-0.2-0.1c0,0,0.3,0.2,0.8,0.7
					c0.5,0.5,1.2,1.3,2.2,2.7l0.4,0.6c0.1,0.1,0,0.1,0.1,0.1l0.1,0.1c0.1,0,0.2,0,0.3,0c0.2,0,0.5-0.1,0.9-0.2
					c-1.4,0.4-2.8,0.7-4.2,1c0.3,0,0.7,0,1,0l0,0l0,0l-0.4-8v0l0,0l0-0.1l0-0.1c0-0.1,0-0.1,0-0.1c0,0-0.1,0.2-0.2,0.4
					c-0.3,0.5-1.1,1.2-2.3,2c-0.6,0.4-1.3,0.8-2.1,1.2c-0.4,0.2-0.8,0.4-1.3,0.6l-0.3,0.1h0c0,0,0,0,0,0c0.1,0,0.2,0.2,0.2,0.4
					c0.1,0.6,0.2,1.4,0.2,2.4c-0.2,2.4,0.5,5.2,0.3,8c-0.1,1.5-0.7,3.1-1,5.2c-0.2,1.1-0.3,2.3-0.1,3.7c0,0.4,0.1,0.8,0.2,1.1
					c0.1,0.3,0.2,0.7,0.3,1c0.2,0.7,0.5,1.3,0.9,2c0.8,1.3,1.9,2.8,3.4,3.5c1.6,0.8,3.6,0.8,6.2-0.5c1.3-0.6,2.9-2.1,4.2-3.5
					c-1.1,1.1-1,0.4-0.5-0.6c0.2-0.5,0.6-1,0.8-1.4c0.2-0.3,0.4-0.6,0.4-0.6c0.5-1.1,0.6-1.8,1.3-2.6c0.6-0.8,1.7-1.6,2.7-2.2
					c0.2-0.1,0.5-0.3,0.7-0.4c0.2-0.1,0.4-0.1,0.6-0.2c0.4-0.1,0.7-0.3,0.8-0.4c0.6-0.7,0.8-2.1,0.9-3.7c0-0.4,0-0.9,0.1-1.3
					c0-0.5,0-0.9,0-1.4c0-1-0.1-1.9-0.1-2.9c-0.1-1.7-0.3-3.3-0.5-5.1c-0.3-1.8-0.6-3.6-1.1-5.9c-0.3-1.4-0.6-2.9-1.5-4.9
					c-0.4-1-1-2.1-2.1-3.5C234.5,249.6,232.9,248.1,230.7,247z"/>
			</g>
		</g>
	</g>
</g>
<g>
	<g>
		<g>
			<path d="M348,259.1L348,259.1C348,259.1,348.1,259.2,348,259.1z"/>
			<path d="M335.7,251.2l-0.2,0C335.6,251.2,335.7,251.2,335.7,251.2z"/>
			<path d="M356.9,249.8L356.9,249.8C357,249.9,357,249.8,356.9,249.8z"/>
			<g>
				<path d="M337.4,239.6c-0.5,0.3-0.9,0.6-1.3,1l-0.3,0.3l-0.6,0.5c-0.4,0.4-0.8,0.7-1.2,1.1c-1.5,1.5-2.9,3.1-4,4.7
					c-0.5,0.8-1,1.6-1.4,2.4c0.3,1.1,0.8,2.3,1.1,3.3c0.7,2.1,1.3,4,1.5,5.8c0.2,2.2,0.2,3,0.3,4.3c0.1,0.6,0.1,1.2,0.3,1.8
					c0.1,0.6,0.3,1.2,0.5,1.7c0.8,2.3,0.6,4.6,0.4,7c-0.1,0.5,0,1.2,0.1,1.5c0,0.2,0.1,0.3,0.2,0.5l0.2,0.5c0.2,0.7,0.2,1.6-0.6,2.2
					c-0.4,0.3-0.9,0.6-1.4,0.9c-0.1,0.1,0,0.5,0.1,1.1c0.1,0.5,0.3,1.1,0.5,1.4c0.2,0.3,1.8,0.3,2.2,0.3c0.7,0,1.6-0.1,2.4-0.2
					c0.8-0.1,1.5-0.4,1.9-0.6c0.7-0.4,1.3-0.8,1.8-1.2c0.5-0.4,0.8-0.9,1.2-1.7c0.4-0.8,0.7-1.7,0.9-2.5c0.3-0.9,0.4-1.5,0.6-2.3
					c0.4-1.4,1-2.8,2-4.2c1.6-2.3,0.6-4.8,1.2-7c0.2-0.6,0.4-1.2,0.6-1.8l0.1-0.2c0-0.1,0.1-0.1,0.1-0.1l0.2-0.1
					c0.1-0.1,0.2-0.2,0.3-0.2c0.4-0.3,0.8-0.4,0.7-0.7c0-0.1,0-0.1,0-0.2c0.1,0,0.2,0,0.3-0.1c0.2,0,0.4,0,0.6,0l0.5,0.1
					c0.1,0,0.1,0,0.2,0l0,0c0,0,0,0,0,0l0.1-0.1c0.1-0.1,0.3-0.2,0.4-0.3c0.6-0.5,1.2-1.1,1.8-1.6l-16.9-7.7
					c0.2,1.3,0.5,2.6,0.8,3.9l0.5,1.8c0.2,0.6,0.3,1.2,0.5,1.7l0.8,2.7c0.3,0.8,0.5,1.7,0.7,2.5c0.2,0.8,0.5,1.6,0.8,2.3
					c0.3,0.7,0.5,1.4,0.8,2l0.8,1.8c0.1,0.3,0.2,0.6,0.3,0.8l0.2,0.4l0.3,0.8l0.4,1c0.3,0.3,0.3,0.6,0.5,1c0.2,0.3,0.3,0.7,0.5,1
					l0.5,0.9l0.5,0.9l0.4,0.8c0.2,0.5,0.5,0.9,0.7,1.4l1.2,2.8c0.4,0.9,0.9,1.8,1.4,2.6c0.5,0.8,1.2,1.6,2,2.2
					c1.6,1.3,4.1,3.5,8.6,1.5c1.1-0.5,2.4-1.9,3.5-3.3c-0.9,1.1-0.8,0.1-0.5-1.1c0.4-1.2,1-2.7,1.1-2.8c0.6-1.8,0.5-3,0.7-4.3
					c0.3-1.4,0.7-2.8,1-4.1c0.3-1.3,0.5-2.5,0.2-3.3c-0.4-1.3-1-2.5-1.5-3.4l-0.2-0.4c-0.1-0.1-0.1-0.2-0.2-0.3l-0.1-0.3
					c-0.1-0.1,0-0.1-0.1-0.1c0-0.1,0-0.1,0-0.1c0,0,0,0,0,0l-0.6-1.6l-0.7-1.8c-1.4-3.6-3-6.2-3.4-8.4c-0.1-0.3-0.1-0.5-0.1-0.8
					l0-0.8c0-0.5,0.2-0.8,0.2-1.2l0.7-20.5L338.3,239C338,239.2,337.7,239.4,337.4,239.6z"/>
			</g>
		</g>
	</g>
</g>
<g>
	<g>
		<g>
			<path d="M306.9,256.2l0.4,0C307.1,256.2,307,256.2,306.9,256.2z"/>
			<path d="M306.5,263.1l-0.2,0.2C306.4,263.3,306.5,263.2,306.5,263.1z"/>
			<path d="M325.4,244.6l0,0.2C325.4,244.7,325.4,244.6,325.4,244.6z"/>
			<g>
				<path d="M317.5,241.1c-4.5-0.2-9.5,0.2-13.9,1.3l-2.9,0.4c-0.3,0.1-0.6,0.3-0.9,0.4c-0.6,0.3-1.1,0.6-1.6,0.9
					c-0.6,0.4-1.3,0.9-1.8,1.4l-0.4,0.4l-0.4,0.5c-0.3,0.3-0.6,0.7-0.8,1c-0.5,0.7-0.9,1.4-1.2,2.1c-0.2,0.4-0.3,0.7-0.4,1.1
					c-0.1,0.4-0.2,0.7-0.2,1c-0.1,0.3-0.1,0.6-0.2,1c0,0.3-0.1,0.6-0.1,0.9c0,0.5,0,1,0.1,1.5c0.1,0.4,0.1,0.8,0.2,1.2
					c0,0.2,0.1,0.4,0.1,0.5l0.1,0.4c0.1,0.3,0.2,0.6,0.3,0.8c0.2,0.4,0.4,1,0.5,1.3l0.2,0.6c0.1,0.2,0.1,0.3,0.2,0.5
					c0.1,0.3,0.2,0.6,0.3,0.9l0.1,0.6l0.1,0.4c0,0.2,0,0.5,0,0.8l-0.1,1.3c0,0.5,0,0.9,0,1.4c0,0.9,0.1,1.9,0.3,2.9
					c0.2,1.6,0.5,3.4,0.6,5c0.1,0.8,0.2,1.7,0.3,2.6l0.1,1.3l0,0.3l0,0.2v0.1l0,0.3c0,0.2,0,0.4,0.1,0.6c0,0.2,0.1,0.4,0.1,0.6
					c0.2,0.4,0.3,0.8,0.4,1.2c0.1,0.2,0.1,0.4,0.1,0.6c0,0.2,0,0.4,0,0.7c-0.1,0.4-0.3,0.8-0.6,1.1c-0.4,0.3-0.9,0.5-1.4,0.6
					c-0.1,0,0,0.5,0,1c0,0.5,0.1,1.1,0.2,1.4c0.1,0.3,1.6,0.8,2.1,0.8c0.8,0.1,1.6,0.1,2.5,0c0.9-0.1,1.6-0.4,2-0.6
					c1.7-1.1,2.5-1.9,3.2-3.7c0.7-2,1-4.1,1.1-6.2l0-0.4l0-0.2l0-0.1l0.1-0.5c0.1-0.4,0.2-0.7,0.3-1.1c0.1-0.3,0.2-0.7,0.4-1
					c0.2-0.3,0.4-0.7,0.6-1c0.4-0.5,0.6-1.1,0.7-1.6c0.2-0.5,0.3-1.1,0.3-1.7c0.1-1.1,0.2-2.4,0.7-3.5l0.1-0.2l0-0.1l0,0
					c0,0,0,0,0,0l0-0.1c0.8-2.1,1-4.9,1.2-6.4c0.1-0.8,0.2-1.5,0.3-1.8c0-0.1,0-0.2,0.1-0.2l0,0l0,0l-0.9,0c-0.2,0-0.3,0-0.4,0
					l-0.3,0l-0.6,0c-0.4,0-0.8,0-1.2,0c-0.9-0.1-1.3-0.1-1.8-0.1c-1-0.2-1.2-0.2-1.7-0.4c-0.1-0.1-0.2-0.1-0.3-0.1
					c0,0-0.1-0.1-0.1-0.1c0,0,0,0,0,0c0,0,0,0,0,0l0,0l0.1,0.1c0.1,0.1,0.2,0.3,0.3,0.4l0,0.1l0.1,0.2c0.1,0.1,0.1,0.3,0.2,0.4
					c0.1,0.3,0.2,0.6,0.2,0.8c-0.5,1.8-0.9,3.7-1.4,5.5c0.6,0.3,1,0.8,1.6,0.7c0.3-0.1,0.7-0.2,1.1-0.3c0.1,0,0.2-0.1,0.2-0.1l0.1,0
					c0,0,0,0,0,0c0,0,0.1,0.1,0.1,0.1c0,0.1,0.1,0.2,0.2,0.3c0.1,0.1,0.1,0.3,0.1,0.4c0.1,0.3,0.2,0.8,0.3,1.3
					c0.2,1.3,0.5,3.1,1,5.5c0.3,1.2,0.6,2.6,1,4c0.4,1.5,0.9,3.1,1.7,4.8c0.3,0.7,0.7,1.5,1,2.3c0.2,0.4,0.3,0.7,0.4,0.9l0.3,0.9
					c0.5,1.2,1,2.5,1.7,3.8c0.7,1.3,1.6,2.8,3,4.1c1.3,1.4,3.1,2.7,5.5,3.7c0.7,0.3,1.4,0.5,2.1,0.7c0.8,0.2,1.6,0.4,2.5,0.5
					c0.9,0.1,1.8,0.1,2.7,0c0.9-0.1,1.8-0.3,2.6-0.5c-0.9,0-1.7,0-2.6,0c1.3-0.5,2.6-1.5,3.8-3.5c0.6-1,1-2.9,1.2-4.6
					c-0.4,2.8-2-3.3-2.1-3.6c-0.3-0.7-0.7-1.2-1-1.7l-0.7,0c-0.2-0.4-0.4-0.6-0.5-1c-0.1-0.4-0.2-0.6-0.2-1
					c-0.1-1.1,0.4-2.4,0.9-3.4c0.5-1,0.9-1.8,0.8-2.4c-0.1-0.6-0.3-1.3-0.6-2c-0.2-0.4-0.3-0.8-0.5-1.2c-0.1-0.3-0.1-0.3-0.1-0.4
					c0-0.1-0.1-0.1-0.1-0.3c-0.1-0.4-0.3-0.9-0.5-1.5c-0.2-0.7-0.4-1.5-0.6-2.6c-0.3-1.8-0.8-4.2-1.6-6.9c-0.2-0.7-0.5-1.4-0.7-2.2
					c-0.3-0.8-0.6-1.5-0.9-2.3l-0.6-1.3l-0.2-0.3l-0.1-0.2l0-0.2l0-0.9l0-1.8c0-0.6,0-1.4,0.1-2c0.1-2.2,0.2-5.1,0.4-7.3
					c-0.7-0.1-1.3-0.1-2-0.2c-0.6-0.1-1-0.1-1.9-0.2c-0.7,0-1.5-0.1-2.2-0.1L317.5,241.1z"/>
			</g>
		</g>
	</g>
</g>
<g>
	<g>
		<g>
			<path d="M286.4,260.3L286.4,260.3C286.4,260.4,286.4,260.4,286.4,260.3z"/>
			<path d="M276.8,259.2l-0.2,0.1C276.6,259.3,276.7,259.2,276.8,259.2z"/>
			<path d="M297.6,254.9L297.6,254.9C297.6,255,297.6,254.9,297.6,254.9z"/>
			<g>
				<path d="M294.2,245.6c-1.2-1.5-3.1-3.3-6.1-4.5c-0.8-0.3-1.6-0.5-2.4-0.7c-0.8-0.2-1.6-0.2-2.4-0.3c-0.8,0-1.5,0-2.2,0.1
					c-0.4,0-0.7,0.1-1.1,0.2l-0.1,0l-1.3,0.3l0,0l0,0l-0.1,0.1c-0.3,0.1-0.5,0.3-0.7,0.5l-0.8,0.4c-0.3,0.1-0.6,0.3-0.9,0.4
					c-0.6,0.3-1.1,0.7-1.6,1c-0.3,0.2-0.5,0.4-0.7,0.6c-0.2,0.2-0.3,0.3-0.5,0.5c-0.3,0.3-0.6,0.6-0.8,0.9s-0.5,0.6-0.8,1
					c-0.2,0.3-0.4,0.6-0.5,0.9c-0.3,0.6-0.7,1.3-0.9,1.9c-0.2,0.6-0.3,1.2-0.5,1.8c-0.1,0.6-0.1,1.1-0.2,1.6l-0.1,0.8l0,0.7l0,1.4
					c0,0.4,0,0.8,0,1.2c0,0.8,0,1.5-0.2,2.2c-0.5,2.9-1,5.6-0.5,7.9l0.1,0.4c0,0.1,0,0.2,0,0.5l0,1.1c0,0.7-0.1,1.3-0.1,2
					c-0.1,1.2-0.4,2.3-0.7,3.4c-0.3,1-0.1,2.1,0,3.1c0.1,1,0,2-0.6,2.4c-0.3,0.2-0.8,0.3-1,0.1c0,0,0,0,0.1,0.2
					c0.2,0.2,0.4,0.4,0.6,0.6l0.1,0.2l0.1,0.1c0,0,0.1,0.1,0.1,0.1c0.1,0.1,0.1,0.2,0.1,0.3c0,0,0.1,0.2,0.1,0.3
					c0.1,0.2,0.2,0.3,0.3,0.5c0.3,0.3,0.6,0.7,0.8,0.8c0.3,0.2,0.6,0.3,1,0.4c0.4,0.1,0.8,0.1,1.2,0.1c0.8,0,1.5-0.2,2-0.4
					c1.6-0.9,2.3-1.5,3.1-2.9c1.6-2.9,2.4-5.9,4.7-8.3c0.2-0.3,0.4-0.5,0.6-0.7c0.2-0.2,0.3-0.5,0.4-0.6c0.1-0.1,0.1-0.2,0.1-0.3
					c0-0.1,0.1-0.3,0.2-0.5c0.1-0.4,0.2-0.7,0.2-1c0.2-1.3,0.3-2.4,0.9-3.4c1.2-2.1,3-3.7,3.3-4.4c0-0.1,0.1-0.2,0.1-0.2l0,0l0,0
					c0,0,0,0-0.1-0.1c-0.3-0.2-0.7-0.5-1-0.7c-0.5-0.4-1-0.7-1.4-1.1l-0.2-0.2c0,0-0.1-0.1-0.1-0.1c-0.1-0.1-0.1-0.1-0.2-0.2
					c-0.1-0.1-0.3-0.3-0.4-0.4c-0.1-0.2-0.2-0.2-0.4-0.2c-0.1,0-0.2-0.1-0.4-0.1l-0.1-0.1c0,0-0.1-0.1,0,0l0.3,0l0.5,0l0.3,0l0,0h0
					l0,0c0.8,1.4-1-2-0.9-1.6l0,0l0,0l0-0.1l0-0.1c0-0.2,0-0.4,0-0.4c0-0.1,0-0.2,0-0.1c0,0,0,0-0.1,0.2c-0.2,0.5-1.1,1.5-2.7,2.5
					c-0.9,0.6-1.7,1.1-2.9,1.7l-0.4,0.2c-0.1,0-0.1,0-0.1,0l0,0c0,0,0,0,0,0l0.1,0.1c0.3,0.3,0.7,1.1,0.9,2.1
					c0.2,1.1,0.4,2.5,0.4,3.9c0,1.8,0.3,3.7,0.7,6l0.2,0.9c0.1,0.3,0.2,0.9,0.3,1.3c0.2,0.9,0.5,1.7,0.9,2.6l0.7,1.6
					c0.2,0.5,0.4,0.9,0.5,1.3c1.2,3.2,0.2,6.9,1.6,9.2c0.2,0.3,0.4,0.8,0.7,1.1c0.3,0.3,0.6,0.7,1.2,1l8.1,8.6c1-0.5,2-1.4,3-3
					c0.6-1,1.1-2.9,1.5-4.5c-0.6,2.8-1.4-3.4-1.4-3.7c-0.1-0.4-0.2-0.7-0.3-1c0.5,0.6,1,1.1,1.6,1.7c0.9-0.9,1.4-2,2.1-3
					c0.8-1.2,1.8-2.6,2.5-3.9c0.4-0.6,0.7-1.3,0.9-1.9c0.2-0.6,0.3-1.2,0.3-1.8c-0.1-2.4-0.7-4.6-1.4-6.6c-0.3-1-0.8-2.1-1.1-2.7
					l0-0.1c0,0,0,0,0-0.1l-0.1-0.5l-0.8-5l-1.1-6c-0.2-1.3-0.5-2.8-0.9-4.5c-0.2-0.9-0.5-1.8-1-2.9l-0.4-0.8
					c-0.1-0.3-0.3-0.6-0.5-0.9C295.2,247,294.7,246.2,294.2,245.6z"/>
			</g>
		</g>
	</g>
</g>
<g>
	<g>
		<g>
			<path d="M252,281.1L252,281.1C252,281.2,252,281.3,252,281.1z"/>
			<path d="M253.4,280.4l-0.1,0.6C253.4,280.8,253.4,280.6,253.4,280.4z"/>
			<path d="M259.7,243.3L259.7,243.3C259.7,243.2,259.7,243.3,259.7,243.3z"/>
			<g>
				<path d="M254.6,242.6c-0.6,0-1.2,0.1-1.8,0.2c-0.6,0.1-1.2,0.4-1.8,0.7c-0.5,0.4-1.1,0.8-1.6,1.4c-0.5,0.6-1,1.2-1.4,2
					c-0.9,1.6-1.5,3.3-2.1,5.1c-0.6,1.7-1,3.3-1.6,4.5l-1,1.8c-0.3,0.7-0.6,1.3-0.9,2.1c-0.6,1.4-1.2,3.3-1.5,5.4
					c-0.3,2.2-0.8,4.1-1.3,5.9c-0.2,0.9-0.5,1.8-0.9,2.6l-0.3,0.6l-0.1,0.3l-0.2,0.3c-0.3,0.4-0.5,0.7-0.8,1.1
					c-0.8,1.2-0.9,2.2-1.1,3.1c-0.2,0.9-0.4,1.5-0.8,1.3c-0.1-0.1-0.2-0.1-0.3-0.3l0-0.1l0,0.1c0,0,0-0.1-0.1-0.1c0,0,0-0.1,0-0.1
					c0,0.1,0,0.3,0,0.5c0,0.4-0.2,0.9-0.3,1.2c0,0.1,0,0.6,0.2,1c0.1,0.4,0.4,0.9,0.5,1c0.2,0.3,0.4,0.6,0.7,0.9
					c0.3,0.3,0.6,0.5,0.9,0.7c0.7,0.4,1.4,0.6,1.9,0.6c1,0,1.7-0.2,2.3-0.4c0.6-0.3,1.2-0.6,1.8-1.2c0.6-0.6,1.2-1.2,1.7-1.7
					c0.3-0.3,0.5-0.5,0.8-0.8c0.2-0.2,0.5-0.5,0.7-0.6c0.4-0.3,0.9-0.5,1.3-0.6c0.5-0.1,0.8-0.2,1.3-0.1c0.7,0.2,1-0.1,1.1-0.5
					c0.2-0.4,0.2-0.9,0.5-0.8c0.3,0.1,0.7,0.6,1,1c0.3,0.4,0.5,0.8,0.6,0.5c0.1-0.3,0.3,0,0.5,0.5c0.2,0.4,0.3,1,0.4,0.7
					c0.1-0.3,0.2-0.9,0.5-1.2c0.1-0.2,0.2-0.3,0.2-0.3c0.1,0,0.1,0,0.1,0.1c0.1,0.2,0.1,0.7,0.1,1.3l0,0.1c0,0.7,0.1,0.8,0.2,0.9
					c0.1,0.1,0.2,0.3,0.2,0.6c0,0.3-0.4,1.1-0.8,1.5c-0.2,0.2-0.4,0.3-0.5,0.4c0,0-0.1,0,0,0.1c0.1,0.2,0.1,0.3,0.2,0.5l0.1,0.2
					c0.1,0.3,0.3,0.5,0.4,0.8c0.2,0.4,0.5,0.9,0.8,1.4c0.3,0.5,0.7,1,1.1,1.5c0.2,0.2,0.4,0.5,0.6,0.7c0.2,0.2,0.4,0.4,0.6,0.6
					c0.4,0.4,0.9,0.8,1.4,1.1c0.4,0.3,0.9,0.5,1.3,0.7c0.2,0.1,0.5,0.2,0.7,0.3l0.3,0.1c0.1,0,0.2,0,0.3,0c0.8,0.1,1.7,0,2.5-0.2
					l1.9,0.9c0.4-0.4,0.9-0.9,1.4-1.5c0.7-0.9,1.4-2.7,2-4.4c-0.5,1.6-0.8,0.1-0.9-1.5l-0.2-0.1c0.2-1.1,0.5-2.2,0.5-2.3
					c0.3-1.8,0.4-2.8,1.2-3.6c0.2-0.2,0.4-0.4,0.7-0.5c0.2-0.1,0.5-0.3,0.8-0.5c0.1-0.1,0.3-0.1,0.4-0.2c0.1,0,0.1-0.1,0.2-0.2
					l0.2-0.3c0.2-0.3,0.4-0.7,0.6-1c0.7-1.7,1.2-3.8,1.2-5.8c0-2-0.2-4.1-0.4-6.1c-0.4-1.8-0.8-3.5-1.3-5.2c-0.5-1.6-1-3.1-1.6-4.6
					c-0.5-1.5-1.1-3.1-1.6-4.6c-0.5-1.4-1.1-3-1.6-4.5l-1.7-4.5c-1.8,0.1-2.8,0.1-4,0c-0.8-0.1-1.5-0.2-2.3-0.4c-0.1,0-0.3,0-0.4,0
					l-0.5,0l-1.1,0L254.6,242.6z"/>
			</g>
		</g>
	</g>
</g>
</svg>
