<?xml version="1.0" encoding="utf-8"?>
<!-- Generator: Adobe Illustrator 21.0.0, SVG Export Plug-In . SVG Version: 6.00 Build 0)  -->
<svg version="1.1" id="Layer_1" xmlns="http://www.w3.org/2000/svg" xmlns:xlink="http://www.w3.org/1999/xlink" x="0px" y="0px"
	 viewBox="0 0 462 462" style="enable-background:new 0 0 462 462;" xml:space="preserve">
<path d="M152.7,71.3c0-7.7-1-15.7-4.3-22.9c-2.7-4.5-6.3-4.8-9.2-3.1c-3.7,2.1-8,8.4-8,20.6c0.6,82.5-1.6,171.5-2.8,253.6H47.3V71.3
	c0-22.2-9.2-41.3-37.8-41.5l-8.8,0C18.8,9.1,36.9,0.2,66,0.2c18.8,0,36.3,7.4,48.5,20.1l2-1.8l2.3-2c17.5-13.5,37.5-16.3,52.6-16.3
	c18.7,0,36.3,7.4,48.4,20l1.9-1.7l2.3-2c17.5-13.5,37.5-16.3,52.6-16.3c34.4,0,64.4,24.9,65.1,60.8c0.4,19.9,0.3,46.4,0.1,75.3
	c7.9-22.4,23.4-50.9,51-50.9c22.8,0,68.4,1.1,68.4,140.3c0,100.9-52.4,158.5-88.7,186.7c4.7,1.8,9.6,2.5,14.6,2.5
	c25.1,0,45.6-20.5,45.6-20.5V423c0,0-8.6,27.9-71.3,27.9c-18.7,0-33.9-3-46.4-8.3c-38.6,12.3-85.3,19.2-85.3,19.2V431
	c0,0,24-1.2,53.3-13.7c-19.1-26-23.1-63.2-24.9-97.8l-0.2-8.3v-240c0-7.7-1-15.7-4.3-22.9c-2.6-4.4-6-4.7-8.7-3.4
	c-3.4,1.7-7.7,7.1-8.4,17.9c1,75.6-1.7,183.2-2.7,256.6h-81.1L152.7,71.3L152.7,71.3z M340.8,215.7l0,2.1l-0.1,8.5
	c-0.6,36.7-1.3,70.5-1.6,93.3c0,22.5,2,40,5.4,53.5c24.9-28.9,43.9-72.2,43.9-137C388.3,51.8,342.2,170.7,340.8,215.7L340.8,215.7z"
	/>
</svg>
