<?xml version="1.0" encoding="utf-8"?>
<!-- Generator: Adobe Illustrator 20.1.0, SVG Export Plug-In . SVG Version: 6.00 Build 0)  -->
<svg version="1.1" id="Layer_1" xmlns="http://www.w3.org/2000/svg" xmlns:xlink="http://www.w3.org/1999/xlink" x="0px" y="0px"
	 viewBox="0 0 500 500" style="enable-background:new 0 0 500 500;" xml:space="preserve">
<g id="Layer_1_1_">
	<g>
		<g>
			<g>
				<path d="M268.7,279.8l0.2,0C268.8,279.8,268.7,279.8,268.7,279.8z"/>
				<path d="M239.6,278.9l0.1-0.2C239.6,278.8,239.6,278.9,239.6,278.9z"/>
				<path d="M232.8,292.7l-0.2,0C232.7,292.7,232.8,292.7,232.8,292.7z"/>
				<g>
					<path d="M244.9,293.8c5.4,0.2,10.9,0,16.3-0.7c5.6-0.7,11.1-1.8,16.7-2.1c3-0.1,6-0.2,9-0.3c1.5-0.1,3-0.1,4.5-0.2
						c1.5-0.1,2.9-0.3,4.4-0.4c2.9-0.4,5.9-0.6,8.9-0.7c1.5-0.1,3-0.2,4.5-0.2c1.5-0.1,3-0.1,4.5-0.3c2.9-0.3,5.9-0.8,8.6-1.4
						c1.4-0.3,2.8-0.5,4.2-0.7c1.4-0.2,2.8-0.3,4.2-0.2c1.5,0.1,3,0.2,4.5,0.3c0.7,0.1,4.3-0.8,5-1.2c0.3-0.2-1.8-1.1-2.4-1.4
						c-2-0.9-5.1-1.7-6.8-2c-1.7-0.3-2.9-0.4-4.1-0.5c-1.2-0.1-2.4-0.1-4.1,0c-1.7,0.1-3.4,0.2-5.2,0.3c-1.7,0.1-3.3,0.1-5,0.2
						c-1.7,0.1-3.3-0.1-5-0.2c-1.7-0.1-3.3-0.3-5-0.6c-5.4-0.9-11.3,0-16.8-0.4c-3-0.2-5.9-0.6-8.9-0.8c-1.5-0.1-3-0.2-4.4-0.3
						c-1.5-0.1-3-0.2-4.5-0.2c-6.4-0.1-12.7-1-19.1-1.1c-3.1,0-6.3,0-9.4,0.1c-3.1-0.1-6.3-0.2-9.4-0.3c-3.7-0.2-7.3-0.5-11-0.8
						c-4.6-0.4-9.2-0.6-13.9-0.9l-14.1-0.7c-8.5-0.5-16.5-2.2-24.7-2.5c-2.2,0-4.7-0.3-7.2-0.1c-2.5,0.1-4.9,0.5-7,1.7
						c-1,0.6-1.5,1.8-1.7,3c0.3-1.9,4.5,2.7,4.9,3c2,1.5,4.4,2.1,6.6,3.1c2.2,1,4.2,2,6.3,2.9c2.1,0.9,4.3,1.6,6.6,2
						c9.9,1.5,19.7,1.5,29.4,2.2c8.4,0.5,16.9,0.7,25.3,1.3c2.5,0.2,5.1,0.4,7.7,0.6C239.7,293.6,242.3,293.7,244.9,293.8z"/>
				</g>
			</g>
		</g>
	</g>
	<g>
		<g>
			<g>
				<path d="M134.2,394l-0.1,0.2C134.2,394.1,134.2,394.1,134.2,394z"/>
				<path d="M145.2,367.5l0.1,0.1C145.3,367.5,145.2,367.5,145.2,367.5z"/>
				<path d="M133.5,357.7l0-0.2C133.5,357.6,133.5,357.7,133.5,357.7z"/>
				<g>
					<path d="M129.5,368c-0.9,2.3-1.7,4.6-2.5,7c-0.8,2.3-1.4,4.8-2.1,7.2c-0.7,2.5-1.2,5-1.9,7.5c-0.4,1.2-0.7,2.5-1.2,3.7
						c-0.5,1.2-1,2.4-1.5,3.6c-2.4,5-5.2,9.7-7.6,14.8c-2.4,5.1-5.4,9.6-8.6,14.3c-3,4.5-5.1,9.6-8.6,13.8c-0.9,1.1-1.9,2.2-2.9,3.3
						c-0.1,0.1-0.3,0.4-0.5,0.9c0,0.1-0.1,0.2-0.1,0.3c0,0.1,0,0.1-0.1,0.2c0,0.2-0.1,0.3-0.1,0.5c-0.1,0.8-0.6,1.2-0.8,1.5
						c-0.1,0.1,0.4,0.2,0.9,0.3c0.6,0.1,1.2-0.1,1.4-0.2c0.4-0.2,0.8-0.4,1.3-0.8c0.5-0.3,1-0.7,1.5-1.1c1-0.7,1.9-1.4,2.5-2
						c2.3-2.2,3.4-3.2,5.3-5.7c4-5.2,7.7-10.4,12.3-15.2c1.8-2,3.3-4.2,4.7-6.6c1.4-2.4,2.7-4.7,4.2-6.9c1.6-2.4,3.4-4.8,4.9-7.3
						c1.6-2.4,3.1-5,4.4-7.7c2.6-5.7,5.9-11.1,8-17.1c2.1-5.9,3.7-11.9,5.4-17.9l1.4-5.3l0.7-2.5c0.2-0.8,0.5-1.6,0.7-2.4
						c1.3-4.1,2.6-8.4,3.6-13c1.1-4.6,1.9-9.5,2-14.7c0.1-1.6,0-3.3,0-5c0-0.8-0.1-1.7-0.2-2.5c-0.1-0.8-0.1-1.7-0.3-2.5l-0.4-2.5
						c-0.2-0.8-0.4-1.6-0.7-2.5c-0.2-0.8-0.5-1.7-0.8-2.4l-0.8-2.1c0,0,0,0,0,0c0,0,0-0.1-0.1-0.2l-0.1-0.3l-0.4-1.6
						c-0.3-1.1-0.6-2.2-1-3.4c-1.3-4-2.8-9.6-6.3-12c-0.2-0.1-0.4-0.2-0.7-0.3l-0.2,0c-0.1,0-0.1-0.1-0.2,0
						c-0.1,0.1-0.3,0.2-0.4,0.2c-0.6,0.2-1.2,0.1-1.8,0c0.2,0,0.4,0.1,0.5,0c0,0,0.1-0.1,0.1-0.1c0,0.1,0,0.2,0,0.3
						c-0.1,0.4-0.3,1-0.5,1.7c-0.5,1.3-1.2,2.8-1.3,3c-0.6,2.3-0.5,4.6-0.7,6.9c-0.2,1.9-0.4,3.7-0.6,5.5c-0.1,0.9-0.1,1.8-0.2,2.8
						c0,0.5,0,0.9,0,1.5c0,0.5,0.2,1.4,0.5,2.2l0.1,0.2l0,0.1l0,0l0,0l0,0.1l0,0.1l0,0.2l0.1,0.4c0.1,0.3,0.1,0.5,0.2,0.8
						c1.1,3.6,1.6,7.1,1.5,10.9c0,3.8-0.6,7.8-1.6,12c-0.9,3.6-1.9,7.4-3,11.3l-0.8,3l-0.8,3.1l-1.5,5.5c-0.6,2.2-1.4,4.4-2.2,6.6
						C131.1,363.5,130.3,365.7,129.5,368z"/>
				</g>
			</g>
		</g>
	</g>
	<g>
		<g>
			<g>
				<path d="M126.7,126.3l0.3,0.4C126.9,126.5,126.8,126.4,126.7,126.3z"/>
				<path d="M110.7,73l0.2,0.1C110.8,73,110.8,73,110.7,73z"/>
				<path d="M96.6,59.5l0-0.4C96.6,59.3,96.6,59.4,96.6,59.5z"/>
				<g>
					<path d="M96.7,86.2C97,92,97.5,97.7,98,103.3c0.1,1.4,0.3,2.9,0.3,4.1l0.2,1.9l0,0.5l0.1,0.9c0,0.6,0.1,1.3,0.2,1.9
						c0.2,1.3,0.7,2.5,1.1,3.7c0.5,1.1,1.1,2.2,1.8,3c1.3,1.8,2.6,3.1,3.9,4.2c2.6,2.3,4.9,3.9,6.9,5.5c2,1.6,3.7,3.3,5,5.1
						c0.6,0.9,1.2,1.9,1.6,3c0.2,0.5,0.4,1.1,0.6,1.6c0.1,0.3,0.2,0.6,0.2,0.8c0.1,0.3,0.1,0.5,0.2,0.9c0.7,2.9,1.3,5.9,1.8,8.8
						c2.4,12.5,5.1,24.6,7.4,36.8c2.4,12.4,4,24.6,5.7,37.1c0.4,3,0.8,6,1.3,9l0.4,2.2l0.3,2.2l0.3,2.2l0.3,2.3
						c0.8,6.1,1.7,12.2,2.3,18.3c0.2,1.6,0.4,3.3,0.5,4.9l0.3,2.5l0.4,2.5c0.1,0.8,0.7,3.2,1.6,5.5c0.8,2.3,1.7,4.6,2.1,5.4
						c0.3,0.6,0.1-4.2,0-5.6c-0.1-1.1-0.1-2.3-0.1-3.6c0-1.3-0.1-2.6-0.1-4c-0.1-2.6-0.1-5.2-0.2-6.9c-0.2-3.4-0.3-6-0.4-8.5
						c-0.1-2.5-0.3-5.1-0.6-8.6c-0.1-1.8-0.2-3.6-0.3-5.4c-0.1-1.8-0.2-3.7-0.4-5.5c-0.4-3.6-0.7-7.2-1.1-10.8
						c-0.7-7.1-1.4-14.3-1.7-21.5c-0.2-2.9-0.4-5.9-0.8-8.8c-0.2-1.5-0.3-3-0.5-4.4c-0.2-1.5-0.5-3-0.7-4.5c-0.5-3-1-6-1.5-9
						c-0.6-3-1.1-5.9-1.5-8.8l-1.4-9.5c-0.2-1.6-0.5-3.1-0.7-4.7l-0.6-4.7l-0.6-4.7l-0.3-2.3c-0.1-1-0.3-2-0.5-3
						c-0.9-4-2.7-7.8-5.2-10.9c-2.5-3.4-5.4-6-7.9-8.3c-1.2-1.2-2.3-2.2-3.1-3.2c-0.8-1-1.3-1.8-1.4-2.3c-0.1-0.2-0.1-0.4-0.1-0.6
						c0-0.1,0-0.1,0-0.2l0-0.4l0-1.4l0-2.8L113,103c-0.1-3.5-0.3-6.9-0.6-10.3c-0.5-6.7-1.1-13.4-1.5-20c-0.1-1.7-0.2-3.3-0.3-4.9
						l-0.1-2.4l0-2.2c-0.1-1.4,0.1-2.9,0.3-4.4c0.1-0.7,0.2-1.5,0.3-2.2c0.2-0.7,0.3-1.4,0.5-2.1c0.8-3.2,2-6.3,3.6-8.7
						c1.6-2.4,3.6-4.1,6-5.1c0.4-0.1,0.8-0.3,1.1-0.5c0.4-0.1,0.8-0.2,1.2-0.3c0.4-0.1,0.8-0.3,1.3-0.3l1.4-0.1l0.7-0.1
						c0.1,0,0.3,0,0.4,0l0.5,0l1.9-0.1l3.8-0.3c4.9-0.4,9.7-0.7,14.3-0.7c9.2,0,18.1,1.4,25.7,5.3c0.4,0.2,0.9,0.4,1.3,0.7l1.2,0.8
						c0.8,0.5,1.7,1,2.4,1.6l1.1,0.9l1.1,1c0.8,0.6,1.5,1.3,2.3,2c3.1,2.8,6.1,6,9.3,9.1c3.3,3.2,6.7,6.4,10.8,9.4
						c1,0.7,2.2,1.4,3.2,2.2c1.2,0.7,2.3,1.4,3.6,1.9c1.3,0.6,2.6,1.2,4,1.6l1.1,0.3l0.5,0.2l0.4,0.1l1.7,0.4
						c2.4,0.5,5.1,1.2,7.8,1.7c2.7,0.5,5.4,0.9,8.1,1.3c2.6,0.4,5.2,0.7,7.6,0.8c2.4,0.2,4.6,0.3,6.7,0.2c2-0.2,3-1.2,3.4-2.3
						c-0.3,0.9-2.6-0.3-5-1.8c-1.2-0.8-2.4-1.6-3.3-2.2c-1-0.6-1.7-1.1-1.9-1.1c-2.1-1.1-4.4-2-6.8-2.9c-2.3-0.9-4.7-1.7-7-2.6
						c-2.2-0.9-4.2-1.8-6.3-2.8l-1.5-0.7c-0.5-0.2-0.9-0.5-1.3-0.7c-0.4-0.2-0.8-0.5-1.2-0.7l-1.2-0.8c-3.1-2.2-6-5.2-9.5-8.3
						c-3.6-3.3-7.2-7-11.1-10.7c-2-1.9-4-3.7-6.4-5.5c-0.6-0.5-1.2-0.9-1.8-1.3c-0.6-0.4-1.2-0.9-1.9-1.3c-1.3-0.8-2.6-1.6-3.9-2.3
						c-5.3-2.9-11-4.9-16.8-6.1c-5.8-1.2-11.5-1.6-17.1-1.6c-4.8,0-9.4,0.3-13.9,0.6c-2.2,0.2-4.5,0.4-6.6,0.5l-0.8,0.1
						c-0.3,0-0.7,0.1-1,0.1l-2.1,0.3c-1.4,0.1-2.9,0.6-4.3,0.9c-0.4,0.1-0.7,0.2-1.1,0.3l-1.1,0.4l-2.1,0.9c-0.7,0.3-1.3,0.7-2,1.1
						c-0.7,0.4-1.3,0.8-2,1.2l-1.8,1.4c-0.3,0.2-0.6,0.5-0.9,0.7l-0.8,0.8l-1.6,1.6l-1.4,1.7l-0.7,0.9c-0.2,0.3-0.4,0.6-0.6,0.9
						l-1.1,1.8c-0.3,0.6-0.6,1.2-1,1.9c-0.3,0.6-0.6,1.2-0.9,1.9c-1.1,2.5-1.8,5-2.5,7.6c-0.7,3-1.2,6-1.5,9.1
						c-0.1,1.6-0.1,3.2-0.2,4.7c0,1.4,0,2.8,0.1,4.3C96.2,75.2,96.4,80.7,96.7,86.2z"/>
				</g>
			</g>
		</g>
	</g>
	<g>
		<g>
			<g>
				<path d="M232.3,120.6l0.2,0C232.4,120.6,232.3,120.6,232.3,120.6z"/>
				<path d="M204.3,123.8l0-0.2C204.2,123.7,204.3,123.7,204.3,123.8z"/>
				<path d="M211.9,135.8L211.9,135.8C211.9,135.8,211.9,135.8,211.9,135.8z"/>
				<g>
					<path d="M214,135.6c1.9-0.3,3.9-0.6,5.8-0.8l1.4-0.2c0.4,0,0.9-0.1,1.3-0.2l0.7-0.1l0.9-0.1l1.8-0.2c5-0.6,9.8-2,14.6-2.6
						c5.1-0.5,10.2-1.1,15.1-2.4c1.2-0.3,2.5-0.6,3.7-0.9c1.2-0.2,2.4-0.4,3.6-0.6c1.2-0.2,2.4-0.3,3.6-0.4c1.2-0.1,2.5-0.2,3.7-0.2
						c2.4-0.1,4.7-0.6,7.1-1c2.4-0.4,4.8-0.7,7.2-0.6c1.3,0.1,2.6,0.2,3.9,0.4c0.6,0.1,3.8-0.9,4.4-1.4c0.3-0.2-1.6-1.1-2.1-1.3
						c-1.7-0.7-4.4-1.7-5.8-2c-2.8-0.5-4.1-0.7-6.9-0.8c-5.9-0.1-11.5,0.1-17.5-0.4c-0.6-0.1-1.2-0.1-1.8-0.1c-0.6,0-1.2,0-1.8,0.1
						c-1.2,0.1-2.3,0.3-3.5,0.4c-1.2,0.2-2.3,0.3-3.5,0.5c-1.2,0.1-2.3,0.2-3.5,0.2c-5,0-9.9-0.5-14.7-0.4c-1.3,0-2.6,0-3.8-0.1
						l-3.8-0.4c-3.3-0.4-6.4-0.3-9.5,0.1l-2.2,0.4l-0.5,0.1c-0.2,0-0.4,0.1-0.6,0.1l-1.4,0.3c-1.9,0.5-3.8,1.2-6,2.7
						c-2,1.4-3.7,3.2-4.8,5.4c-1.1,2.1-1.6,4.6-1.5,7c0.1,1.4,0.3,2.8,0.8,4.2l0.4,1c0.1,0.3,0.3,0.7,0.4,0.9
						c0.3,0.6,0.5,1.1,0.8,1.7c0.6,1,1.2,1.9,1.9,2.8c0.3,0.4,0.7,0.9,1,1.3l1.1,1.1c0.9,1,1.8,1.7,2.7,2.5c0.9,0.7,1.9,1.4,2.8,2.1
						c1.9,1.2,3.7,2.4,5.5,3.3c3.6,2,7.2,3.7,10.3,5.6c2.8,1.7,5.3,3.8,6.6,5.6l0.1,0.2l0.3,0.3l0.7,0.8l0.4,0.4l0.3,0.3l0.7,0.6
						c0.9,0.8,1.8,1.5,2.6,2c1.7,1.2,3.2,2.1,4.8,3c1.7,0.9,3.5,1.9,5.1,2.5c1.7,0.7,3.1,1,4.6,0.6c0.7-0.2,2-0.6,3.1-1
						c-0.9,0.4-0.6-0.4-0.7-1.7c0-0.6-0.1-1.3-0.1-1.9c-0.1-0.6-0.1-1-0.2-1.1c-0.7-2.1-2.2-3.7-3.5-5.4c-1.2-1.7-2.3-3.3-3.4-4.9
						c-1.1-1.5-2.2-3-3.1-4l-0.3-0.4c-0.1-0.1-0.1-0.2-0.2-0.3l-0.1-0.1l-0.3-0.4l-0.7-0.8c-0.5-0.5-1-1-1.4-1.4l-1.5-1.3
						c-1.9-1.5-3.9-2.9-5.8-4c-3.9-2.3-7.6-4.1-11-6.1c-2.9-1.6-5.6-3.3-7.6-4.9c-0.3-0.2-0.4-0.4-0.7-0.6c-0.2-0.2-0.5-0.4-0.6-0.6
						c-0.3-0.4-0.7-0.8-0.9-1.1c-0.5-0.9-0.4-0.7-0.4-0.9c0-0.1,0.2-0.2,0.3-0.2c0,0,0.1,0,0.1,0l0,0c0,0,0.1,0,0.2,0
						c0.1,0,0.4-0.1,0.6-0.1C213.4,135.7,213.8,135.7,214,135.6z"/>
				</g>
			</g>
		</g>
	</g>
	<g>
		<g>
			<g>
				<path d="M410.8,442l0.4,0.9C411.1,442.5,411,442.2,410.8,442z"/>
				<path d="M356.3,309.5l0.2,0.2C356.4,309.5,356.3,309.5,356.3,309.5z"/>
				<path d="M344.3,279.1l0.2-0.9C344.4,278.6,344.3,278.9,344.3,279.1z"/>
				<g>
					<path d="M351.3,340.5l2.9,9.8c0.9,3.3,2.1,6.5,3.2,9.8c2.1,6.5,4.7,12.8,7.3,19.2c1.4,3.1,2.8,6.2,4.1,9.3
						c0.4,0.8,0.7,1.6,1,2.3l1.1,2.3l2.3,4.6c1.5,3,3,6,4.5,9.1c1.6,2.9,3.2,5.9,4.8,8.8c3.9,6.9,7.7,13.8,11.5,20.7
						c1.8,3.5,3.6,6.9,5.4,10.4l2.8,5.4c0.3,0.6,0.5,0.9,0.7,1.2c0.1,0.1,0.2,0.2,0.3,0.4c0,0.2,0.1,0.3,0.1,0.5l0,0.9
						c1.6-1.8,3.2-3.5,4.7-5.3c-2.9,0.4-5.8,0.9-8.7,1.3c-0.3,0.1-0.6,0-0.9,0.2l-0.9,0.3l-1.1,0.4c-0.6,0.2-1.1,0.4-1.7,0.6
						l-1.8,0.5c-0.6,0.2-1.2,0.3-1.9,0.4c-5.1,1-10.9,1-17.1,2c-4.2,0.8-7.4,1.6-10.9,2.3l-1.3,0.3l-1.3,0.2l-2.6,0.4
						c-1.8,0.3-3.5,0.6-5.3,0.8c-7.1,0.9-14.3,1.6-21.5,2.1l-10.9,0.9c-3.7,0.3-7.3,0.7-11,1.1c-3.7,0.5-7.4,0.9-11,1.5l-5.4,0.8
						l-5.4,0.7c-7.2,1-14.4,1.7-21.5,2.2l-2.9,0.2c-1,0.1-2,0.2-2.9,0.4c-1.9,0.3-3.7,0.7-5.5,1c-1.7,0.3-3.3,0.6-4.8,0.6
						c-1.5,0.1-2.6-0.2-3.6-0.6c-0.5-0.2-0.9-0.6-1.4-0.9c-0.4-0.5-0.9-0.8-1.2-1.4c-0.2-0.3-0.4-0.5-0.6-0.8l-0.5-1
						c-0.4-0.6-0.7-1.5-1-2.2l-0.5-1.2l-0.3-1c-0.3-0.7-0.3-1.4-0.5-2c-0.2-1.5-0.2-3.3-0.4-5.3c-0.2-2-0.6-4-1.1-6.1
						c-0.7-2-1.4-4.1-2.9-6.1c-1.4-1.9-3.2-3.7-5.4-4.8c-2.2-1.1-4.5-1.7-6.7-1.9c-2.1-0.2-4.2-0.1-6.1,0.1l-1.5,0.2l-1.3,0.2
						l-2.6,0.4c-3.5,0.5-7,1-10.5,1.6c-7,1.2-14,2-20.9,2.9c-7,1-14,1.6-21,2.3l-5.3,0.5c-1.8,0.2-3.5,0.2-5.3,0.4
						c-3.5,0.2-7,0.4-10.6,0.6c-1.9,0.1-3.8,0.2-5.6,0.3c-2,0.1-4,0.2-5.9,0.5c-3.9,0.4-7.8,1.2-11.5,2.1c-1.9,0.4-7.3,2.2-12.5,3.9
						c-1.3,0.4-2.6,0.8-3.8,1.1c-0.6,0.2-1.2,0.4-1.8,0.5c-0.6,0.2-1.2,0.4-1.8,0.6c-2.3,0.7-4.1,1.4-5,1.7c-0.8,0.3,1.6,0,4.6-0.5
						c0.7-0.1,1.5-0.2,2.3-0.4c0.7-0.1,1.5-0.2,2.2-0.3c1.4-0.2,2.6-0.4,3.4-0.5c4.9-0.9,11.1-2.4,17.1-3.4c3-0.5,6-0.8,8.6-1
						c2.7-0.1,5.1-0.2,7.1-0.2c8-0.2,13.9-0.3,19.8-0.6c5.9-0.4,11.9-0.7,20.1-1.4c4.2-0.4,8.4-0.9,12.6-1.3
						c4.2-0.4,8.4-0.8,12.6-1.4c4.2-0.5,8.3-1.1,12.5-1.6l3.1-0.4l1.5-0.2c0.5-0.1,1-0.1,1.4-0.1c1.9-0.1,3.8,0,5.4,0.4
						c1.6,0.4,3.1,1.1,4.2,2.2c1.1,1.1,1.9,2.5,2.6,4.1l0.4,1.2l0.3,1.3l0.2,0.7l0.1,0.7l0.2,1.4c0.1,1,0.1,1.9,0.2,2.9
						c0.1,1.1,0.1,2.2,0.2,3.3c0.2,1.2,0.3,2.5,0.7,3.7c0.2,0.6,0.4,1.3,0.6,1.7l0.6,1.5c0.2,0.5,0.4,1,0.7,1.5l0.8,1.6
						c0.2,0.6,0.6,1.1,1,1.6c0.4,0.5,0.7,1.1,1.2,1.6c0.5,0.5,0.9,1,1.5,1.5c0.6,0.4,1.2,0.9,1.8,1.3c0.6,0.4,1.3,0.7,2,1
						c0.7,0.3,1.4,0.5,2.1,0.7c2.8,0.6,5.4,0.5,7.6,0.2c3.7-0.4,6.9-1.1,9.9-1.4c3.4-0.1,6.8-0.3,10.2-0.4c3.5-0.2,7-0.6,10.5-0.9
						c3.5-0.4,7-0.8,10.5-1.2c3.4-0.4,7-1,10.4-1.4c3.4-0.4,6.8-0.8,10.2-1.1c1.7-0.1,3.4-0.3,5.1-0.4c1.7-0.1,3.4-0.2,5.2-0.4
						c3.5-0.2,6.9-0.4,10.3-0.6l9.4-0.6c3.1-0.2,6.3-0.6,9.4-0.9c3.2-0.4,6.3-0.8,9.5-1.3l9.3-1.8l2-0.3c0.7-0.1,1.4-0.2,2.1-0.2
						c1.4-0.2,2.9-0.3,4.4-0.4l4.7-0.3c1.6-0.1,3.2-0.2,5-0.5l2.6-0.3l2.6-0.6l1.3-0.3c0.4-0.1,0.9-0.3,1.3-0.4l1.3-0.4l0.6-0.2l0,0
						c2.8-0.3,5.5-0.6,8.3-0.9l5.6-0.6l0.1-5.7l0-1.3l0-0.7l0-0.8c0-1.1-0.3-2.2-0.7-3.2c-0.1-0.3-0.3-0.5-0.4-0.7
						c-0.1-0.2-0.3-0.5-0.4-0.6l-0.3-0.5c-0.1-0.2-0.2-0.4-0.3-0.4l-0.7-1.4c-1.1-2.3-2.2-4.6-3.3-6.9l-2.6-5.5
						c-0.9-1.8-1.7-3.6-2.6-5.4l-5.4-10.7l-5.3-10.6l-2.6-5.3c-0.9-1.8-1.6-3.5-2.5-5.3l-4.9-10.6c-1.5-3.6-3-7.2-4.5-10.8
						c-0.8-1.8-1.4-3.6-2.1-5.4l-2.1-5.5l-1-2.7l-0.9-2.8l-1.9-5.5c-1.3-3.6-2.3-7.3-3.5-11l-1.7-5.6l-1-3l-1-2.9
						c-2.8-7.7-6-14.6-7.4-21.3c-0.7-3.2-1-6.4-0.8-9.9c0.2-3.5,0.7-7,1.4-10.7c1.6-7.6,3.3-15.3,4.9-22.9c0.9-4.5,1.8-9,2.8-13.4
						l1.5-6.6l1.6-6.5l3.4-13.4l0.9-3.4l0.8-3.4l1.5-6.7l1.9-8.4c0.3-1.4,0.6-2.8,1-4.2l1.1-4.1l2.2-8.5c0.7-3.1,1.2-5.9,1.8-8.8
						l3.2-17c1.1-5.6,2.3-11.2,3.7-16.3c0.4-1.2,0.7-2.5,1.1-3.5c0.1-0.2,0.2-0.6,0.3-0.7c0.1-0.1,0.2-0.3,0.2-0.4l0.1-0.2
						c0-0.1,0.2-0.3,0.2-0.4l0.5-0.8c0.7-1.1,1.4-2.2,2.2-3.3c0.7-1.1,1.5-2.1,2.3-3c0.8-1,1.6-1.9,2.5-2.8c0.4-0.4,0.9-0.9,1.4-1.4
						l1.6-1.5c0.3-0.2,0.6-0.6,0.9-0.9c0.3-0.3,0.6-0.6,0.9-1c0.7-0.8,1.3-1.5,1.9-2.4c0.3-0.4,0.6-0.9,0.9-1.3l0.8-1.4l0.4-0.7
						l0.3-0.7l0.5-1.4c0.2-0.5,0.3-0.9,0.5-1.3l0.4-1.3c0.3-0.9,0.4-1.7,0.6-2.5c0.4-1.6,0.6-3.2,0.9-4.7c0.3-1.5,0.4-3,0.6-4.5
						c0.2-1.5,0.3-2.9,0.5-4.4c0.6-5.8,1.1-11.7,1.4-17.7c0.2-5.4,0.3-10.9-0.3-16.6c-0.3-2.9-0.8-5.9-1.8-9c-0.9-2.8-2-5.6-3.4-8.3
						c-1.4-2.7-3.2-5.4-5.3-7.8c-2.1-2.4-4.7-4.6-7.5-6.4c-2.8-1.8-6-3-9-3.9c-2.9-0.8-5.8-1.4-8.6-1.7c-11.1-1.5-21.8-1.3-32.3-0.9
						l-3.9,0.2l-1,0.1c-0.6,0.1-1.1,0.1-1.7,0.2c-1.1,0.2-2.3,0.5-3.4,0.9c-2.2,0.8-4.1,2-5.6,3.1c-1.5,1.2-2.7,2.3-3.8,3.5
						c-2.1,2.2-3.8,4.3-5.4,6.3c-1.6,2-3.3,4-4.8,5.6c-0.4,0.4-0.8,0.9-1.2,1.4c-0.4,0.5-0.9,0.9-1.4,1.4c-1,0.9-1.9,1.9-2.9,2.8
						c-2.1,1.8-4.2,3.6-6.6,5.3c-2.4,1.9-4.3,3.1-6.9,4.4c-2.5,1.3-5.3,2.6-8.2,3.9c-1.4,0.7-2.9,1.3-4.4,2.1c-0.7,0.3-1.3,0.7-2,1
						c-0.6,0.3-1.2,0.6-1.9,0.9c-1.3,0.5-2.5,1.1-3.8,1.6c-0.6,0.3-1.3,0.5-1.9,0.7c-0.6,0.2-1.3,0.4-1.9,0.6
						c-5,1.7-9.9,2.9-14.2,3.8c-4.2,0.7-5.6,1.9-5.7,3.1c0-0.5,1.5-0.5,3.8-0.4c1.1,0.1,2.4,0.1,3.9,0.2c0.7,0,1.5,0.1,2.2,0.1
						c0.8,0,1.5,0,2.3,0c6.3,0.1,12.9-0.9,13.8-1.1c2.7-0.5,5.4-1.4,8.1-2.3c2.6-0.9,5.3-1.9,8-2.8c2.7-1,5.5-2,8.2-3.3
						c1.4-0.6,2.7-1.3,4.1-2.1c1.3-0.8,2.5-1.6,3.7-2.3c0.6-0.4,1.2-0.7,1.8-1.1c0.6-0.4,1.1-0.8,1.7-1.2c1.1-0.8,2.3-1.6,3.4-2.4
						c1.1-0.8,2.2-1.7,3.3-2.6l1.6-1.3c0.5-0.4,1-0.9,1.6-1.4c1-1,2.1-1.9,3.1-2.9l2.8-2.9c1.8-1.9,3.7-3.8,5.4-5.4
						c1.7-1.6,3.4-2.8,4.5-3c0.1,0,0.3,0,0.4-0.1c0.1,0,0.3,0,0.4,0l1.3,0c1.3,0,2.7,0,4,0c5.4,0,10.8,0,16.4,0.2
						c2.9,0.1,5.8,0.2,8.7,0.5c2.8,0.3,5.6,0.6,8.2,1.2c2.6,0.5,5,1.2,6.9,2.2c1.9,0.9,3.6,2.3,5.2,3.8c1.5,1.6,2.8,3.6,3.9,5.7
						c0.5,1.1,1.1,2.2,1.5,3.4c0.5,1.2,0.9,2.5,1.1,3.5c0.5,2.2,0.9,4.9,1,7.6c0.2,2.7,0.2,5.6,0.1,8.5c-0.1,5.8-0.6,11.6-1.2,17.5
						c-0.3,2.9-0.6,6-1,8.8c-0.2,1.4-0.4,2.7-0.6,4.1c-0.1,0.7-0.3,1.3-0.4,1.9c-0.1,0.7-0.3,1.2-0.5,1.7l-0.2,0.8l-0.3,0.6
						c-0.2,0.5-0.4,0.8-0.5,1.1c-0.4,0.6-0.7,1.1-1.6,2c-0.4,0.4-1,0.9-1.5,1.4l-1.8,1.7l-1.8,1.9l-1.8,2c-1.1,1.3-2.2,2.7-3.2,4.1
						c-0.5,0.7-1,1.4-1.5,2.1l-1.3,2.1l-0.7,1.1l-0.3,0.5l-0.4,0.8c-0.3,0.5-0.5,1.1-0.8,1.6c-0.2,0.5-0.4,0.9-0.5,1.4l-0.5,1.3
						c-0.2,0.5-0.3,0.8-0.4,1.2c-0.2,0.8-0.5,1.6-0.7,2.4c-1.5,5.4-2.6,10.6-3.6,15.7c-1,5.2-2,10.3-2.9,15.4l-1.4,7.5
						c-0.2,1.3-0.5,2.4-0.8,3.6l-0.9,3.4l-2,7.8l-0.5,1.9l-0.4,1.9l-0.8,3.8l-3.3,15.2c-0.5,2.5-1.2,4.9-1.8,7.4l-1.8,7.5
						c-1.3,5.2-2.6,10.3-3.7,15.4c-1.1,5.2-2.2,10.2-3.3,15.3c-0.6,3.1-1.3,6-2,9c-0.7,3-1.3,6-2.1,9.2c-1.4,6.3-2.7,13.1-2.8,20.5
						c0,0.9,0.1,1.9,0.1,2.8c0.1,0.9,0.1,1.9,0.2,2.8c0.3,1.9,0.5,3.8,0.9,5.5c0.2,0.9,0.4,1.8,0.6,2.6l0.7,2.5
						c0.5,1.7,1.1,3.3,1.6,4.9C347.3,329.2,349.7,335,351.3,340.5z"/>
				</g>
			</g>
		</g>
	</g>
	<g>
		<g>
			<g>
				<path d="M228,214.2l0.2,0C228.1,214.2,228.1,214.2,228,214.2z"/>
				<path d="M212,211.1l0.2,0C212.2,211.1,212.1,211.1,212,211.1z"/>
				<path d="M200.2,203c0,0,0.2-0.3,0.2-0.3C200.3,202.9,200.3,203,200.2,203z"/>
				<g>
					<path d="M196.2,223l0,1.8l1.7-0.1l0.8-0.1c0.3,0,0.4,0,0.7,0l2.5,0h2.5l1.7,0.6c1.1,0.4,2.4,0.9,3.3,1.1
						c0.7,0.2,1.5,0.4,2.2,0.5c3,0.5,5.8,0.6,8.5,0.4c5.9-0.4,11.1-1.8,16.2-1.4c3,0.1,5.9,0.4,8.8,0.4c1.5,0,2.9,0,4.4-0.1l2.2-0.1
						l2.2-0.2c2.9-0.3,5.8-0.5,8.7-0.7c1.4-0.1,2.9-0.1,4.3-0.2c1.4-0.1,2.9-0.2,4.3-0.2c2.8-0.1,5.6-0.7,8.3-1.2
						c2.8-0.5,5.5-1,8.3-1.1c1.5,0,3,0,4.5,0c0.7,0,4.3-1.3,4.9-1.8c0.3-0.2-2-0.9-2.6-1.1c-2-0.6-5.1-1.3-6.7-1.4
						c-3.2-0.3-4.7-0.4-7.9-0.3c-3.3,0.1-6.6,0.2-9.8,0.2c-3.2,0-6.5-0.3-9.7-0.7c-2.6-0.4-5.3-0.5-7.9-0.4c-2.7,0-5.3-0.1-7.9-0.3
						c-1.4-0.2-2.8-0.5-4.2-0.7l-4.2-0.8c-3.1-0.6-6.1-0.9-9-0.9c-3.1-0.1-6-0.4-8.6-1c-1.3-0.3-2.6-0.6-3.8-0.9
						c-0.3-0.1-0.6-0.2-0.9-0.3l-0.6-0.2c-0.1,0-0.2-0.1-0.3-0.1c-0.1,0-0.2,0-0.3-0.1c-0.5,0.1-0.5-0.3-0.5-0.7
						c0-0.2,0.1-0.4,0.2-0.6c0-0.1,0.1-0.2,0.2-0.3c0,0,0.2-0.2,0.4-0.4c0.2-0.2,0.3-0.3,0.5-0.5c0.9-0.9,2.2-1.8,3.6-2.8
						c1.4-1,3-2,4.7-3.2l0.8-0.6l0.4-0.3c0.1,0,0.2-0.1,0.2-0.1l0.1-0.1c0.3-0.1,0.4-0.3,0.8-0.5c0.7-0.5,1.6-1,2.5-1.5l5.7-3.2
						l12-6.5c0.7-0.4,1.5-0.8,2.2-1.2l0.6-0.3l0.4-0.2l0.5-0.3l2-1.1c1.3-0.8,2.5-1.6,3.8-2.4c1.1-0.9,2.2-1.8,3.2-2.8l0.8-1.1
						c0.3-0.4,0.6-0.8,0.7-1.2c0.3-0.8,0.7-1.6,0.8-2.6c0.2-2-0.2-3.7-1-5.5c-0.9-1.7-2.3-3.4-4.1-5c-0.9-0.8-1.8-1.5-2.8-2.3
						c-0.5-0.4-1-0.7-1.5-1.1l-0.8-0.5l-0.4-0.3l-0.2-0.1c-2-1.2-4.4-2.6-6.7-3.5c-1.2-0.5-2.4-0.9-3.6-1.1c-1.2-0.2-2.4-0.3-3.3,0
						c-0.2,0.1-0.3,0.3-0.6,0.4c-0.1,0.1-0.2,0.1-0.3,0.2c-0.1,0.1-0.1,0.2-0.2,0.3c-0.2,0.5-0.5,0.9-0.9,1.4
						c0.1-0.2,0.2-0.3,0.1-0.4c0,0-0.1-0.1-0.1-0.1c0,0.1,0.1,0.1,0.1,0.2c0.1,0.2,0.5,0.9,0.8,1.5c0.6,1.3,1.2,2.8,1.3,3
						c1.2,2,2.9,3.6,4.4,5.4c0.7,0.9,1.3,1.8,1.9,2.6c0.1,0.1,0.2,0.2,0.2,0.3l0,0.2c0,0.1,0.1,0.3,0.1,0.4c0,0.3,0,0.5,0,0.7
						c-0.1,0.9-0.5,1.3-0.7,1.6c-0.1,0.2-0.5,0.4-0.7,0.4c-0.3,0-0.4,0.1-0.5,0.1l-4.4,2.4c-3.4,1.8-6.8,3.6-10.2,5.5
						c-1.8,1-3.6,2-5.5,3c-0.5,0.3-0.9,0.6-1.4,0.8c-0.5,0.3-0.9,0.6-1.5,0.9l-1.6,1l-0.9,0.7l-0.9,0.7c-1.1,1-2.6,2.1-4.3,3.3
						c-1.7,1.2-3.6,2.6-5.6,4.4c-0.3,0.3-0.6,0.6-0.9,0.9c-0.3,0.3-0.6,0.6-1,1c-0.8,0.9-1.6,1.8-2.1,2.8l-0.9,1.5
						c-0.3,0.5-0.5,1.1-0.7,1.6c-0.2,0.5-0.5,1.1-0.7,1.6l-0.5,1.7c-0.1,0.3-0.2,0.6-0.2,0.8l-0.1,0.8l-0.2,1.7
						c-0.1,1.1,0,2.2-0.1,3.4C196.2,218.8,196.2,220.9,196.2,223z"/>
				</g>
			</g>
		</g>
	</g>
</g>
</svg>
