<?xml version="1.0" encoding="utf-8"?>
<!-- Generator: Adobe Illustrator 20.1.0, SVG Export Plug-In . SVG Version: 6.00 Build 0)  -->
<svg version="1.1" id="Layer_1" xmlns="http://www.w3.org/2000/svg" xmlns:xlink="http://www.w3.org/1999/xlink" x="0px" y="0px"
	 viewBox="0 0 500 500" style="enable-background:new 0 0 500 500;" xml:space="preserve">
<style type="text/css">
	.st0{fill:#FFFFFF;}
	.st1{display:none;}
	.st2{display:inline;}
	.st3{fill:none;}
</style>
<g id="Layer_1_1_">
</g>
<g id="Layer_2">
	<g>
		<g>
			<g>
				<g>
					<path class="st0" d="M222.3,467.5l-0.2-0.1C222.2,467.4,222.3,467.5,222.3,467.5z"/>
					<path class="st0" d="M258.2,476.7l-0.1,0.1C258.2,476.8,258.2,476.7,258.2,476.7z"/>
					<path class="st0" d="M267.6,463.7l0.2,0C267.7,463.7,267.6,463.7,267.6,463.7z"/>
					<g>
						<path class="st0" d="M253.7,461c-3.1-0.7-6.2-1.3-9.3-1.8c-3.1-0.7-6.2-1.3-9.3-1.7c-1.6-0.2-3.3-0.6-5-0.8
							c-1.7-0.3-3.3-0.6-5-0.9c-1.7-0.3-3.3-0.7-4.9-1.1c-1.6-0.4-3.2-0.9-4.8-1.5c-6.6-2.5-12.8-5.5-18.8-8.8
							c-6.1-3.4-11.3-7.9-15.7-13.2c-0.5-0.6-1.1-1.3-1.6-1.9l-1.6-1.9l-1.6-1.9c-0.5-0.6-1-1.3-1.5-2l-1.5-2
							c-0.5-0.7-0.9-1.4-1.3-2.1c-0.8-1.5-1.6-2.9-2.1-4.5c-0.3-0.8-0.6-1.7-0.8-2.5l-0.9-2.7c-0.3-0.9-3-4.9-3.7-5.5
							c-0.3-0.3-0.1,2.6,0,3.4c0.3,2.6,0.8,6.5,1.3,8.4c0.3,1,0.5,1.9,0.7,2.6c0.2,0.8,0.5,1.5,0.8,2.2c0.6,1.4,1.1,2.9,2.1,4.7
							c4.2,7.6,9.6,14.2,15.5,20.7c2.4,2.6,5.3,4.9,8.4,6.8c1.5,1,3.1,1.9,4.7,2.8c1.6,0.9,3.2,1.7,4.7,2.6
							c6.7,3.8,13.6,7.3,20.7,9.7c1.9,0.6,3.8,1.3,5.6,2c1.9,0.7,3.9,1.3,5.8,2c1.9,0.7,3.9,1.3,5.9,1.9c2,0.5,4,1,6,1.4
							c2,0.4,4,0.8,6,1.1l6,0.8c2,0.2,4,0.6,6,0.7c2,0.2,4,0.3,6,0.5c4.7,0.5,9.2,0.8,13.7,1.3c11.5,1.1,23,1.4,34.6,1.8
							c10.5,0.3,20.8,1.7,31.5,0.4c1.4-0.2,2.9-0.3,4.5-0.5c0.4-0.1,0.8-0.1,1.2-0.2l0.9-0.2c0.8-0.1,1.5-0.3,2.3-0.4
							c1.7-0.3,3.6-0.7,5.6-1.6c1.9-0.9,3.8-2.3,4.8-3.9c0.5-0.8,0.6-1.5,0.4-2.2c-0.1-0.6-0.5-1.1-0.9-1.5c0.3,0.3,0.1,0.7-0.6,1.1
							c-0.6,0.3-1.6,0.6-2.5,0.6c-1.9,0-3.6-0.8-3.8-0.8c-1.3-0.3-2.7-0.7-4.1-1c-1.4-0.3-3-0.5-4.4-0.8c-2.7-0.5-5.3-1.2-7.9-1.8
							c-2.6-0.6-5.2-1.1-8.1-1.2c-11.8-0.6-23.6-0.7-35.6-1.3c-5.1-0.3-10.2-0.5-15.3-0.8l-7.7-0.5c-1.3-0.1-2.6-0.2-3.8-0.3
							l-3.7-0.4C265.6,463.4,259.7,462.1,253.7,461z"/>
					</g>
				</g>
			</g>
		</g>
		<g>
			<g>
				<g>
					<path class="st0" d="M224.6,55l-0.2,0.1C224.4,55.1,224.5,55.1,224.6,55z"/>
					<path class="st0" d="M255.9,42.7l0,0.2C255.9,42.8,255.9,42.7,255.9,42.7z"/>
					<path class="st0" d="M258.9,27.1l0.2-0.1C259,27,258.9,27,258.9,27.1z"/>
					<g>
						<path class="st0" d="M244.7,30.8c-6.3,2-12.5,4.8-18.2,8.3c-5.9,3.6-11.3,7.9-17,11.7c-6.1,4.1-12,8.5-16.8,14.2
							c-4.9,5.7-9.2,11.3-13.3,17.4c-3.9,5.9-6.1,12.6-9.6,18.5c-0.9,1.6-1.9,3.1-2.9,4.7c-0.5,0.8-1.6,5.2-1.6,6.2
							c0,0.4,2-1.5,2.5-2.1c1.8-1.8,4.3-4.7,5.5-6.2c2.3-3.1,3.4-4.6,5.4-7.9c4.2-6.9,8.6-13.4,14.5-18.6c0.6-0.5,1.1-1.1,1.7-1.6
							c0.6-0.5,1.2-1.1,1.7-1.6l1.7-1.7l1.7-1.6c0.6-0.5,1.1-1.1,1.7-1.6l1.8-1.5c0.6-0.5,1.2-1,1.8-1.5c0.6-0.5,1.3-0.9,2-1.3
							c5.7-3.7,11.9-6.5,18-9.7c6.5-3.4,13.6-5.5,20.5-8.1c6.8-2.6,13.8-5.1,20.9-7L273,38c2.1-0.5,4.1-1,6.3-1.3
							c2.7-0.4,5.3-0.9,8-1.4c1.3-0.3,2.7-0.4,4-0.6l4-0.6l4-0.6c1.3-0.2,2.7-0.3,4-0.4l8.1-0.7c9.8-0.4,19.3,0.8,29.2,0.7
							c5.2-0.2,12.3,0.2,17-2.5c1.1-0.7,1.6-1.9,1.7-3.1c-0.1,1.9-5.7-2.4-6.1-2.6c-2.5-1.2-5.3-2-8.1-2.8c-5.2-1.6-10-3.8-15.7-4.2
							c-6-0.5-12-0.4-18-0.2c-3,0.2-6,0.5-9,0.7c-1.5,0.2-3,0.2-4.5,0.4l-4.5,0.6c-2.6,0.4-5.1,0.7-7.7,1.1l-7.6,1.5l-3.8,0.8
							l-3.8,0.9l-7.5,1.9C256.9,27.3,250.8,28.9,244.7,30.8z"/>
					</g>
				</g>
			</g>
		</g>
		<g>
			<g>
				<g>
					<path class="st0" d="M328.1,311.7l0.1-0.1C328.2,311.6,328.1,311.6,328.1,311.7z"/>
					<path class="st0" d="M307.1,318.4l0.1-0.1C307.1,318.3,307.1,318.3,307.1,318.4z"/>
					<path class="st0" d="M295.9,328.9l-0.2-0.1C295.8,328.9,295.9,328.9,295.9,328.9z"/>
					<g>
						<path class="st0" d="M311.7,333.5c3.5,0,7.1-0.6,10.3-1.8c3.3-1.1,6.3-2.9,8.9-5c2.7-2.2,4.9-4.8,6.8-7.7
							c1.9-2.8,3.4-5.9,4.6-9.2c0.6-1.9,1-3.4,1.3-5c0.3-1.6,0.6-3.3,0.7-5c0.1-0.9,0-1.7,0.1-2.6c0-0.9-0.1-1.7-0.2-2.6
							c-0.1-0.9-0.2-1.7-0.4-2.6l-0.3-1.3l-0.2-0.6l-0.2-0.7c-1.2-3.6-3.8-7.2-7.2-9.2c-3.4-2.1-7.1-2.8-10.8-2.7
							c-0.4,0-0.9,0-1.3,0.1c-0.4,0.1-0.9,0.1-1.3,0.2c-0.8,0.1-1.9,0.5-2.9,0.9c-2,0.9-3.5,2.3-4.6,3.8c-1.1,1.5-2,3.1-2.6,4.8
							c-0.6,1.6-1.1,3.3-1.4,5.1c-0.3,1.9-0.5,3.9-0.2,5.9c0,0.2,0.1,0.5,0.3,1c0.2,0.4,0.5,1,0.9,1.5c0.5,0.6,0.7,0.7,0.8,0.8l0,0
							l0.1,0c0.2-0.1,0.4-0.1,0.6-0.2c0.1,0,0.1,0,0.1,0l0.1,0c0.1,0,0.1,0,0.2,0c0.1,0,0.1,0,0.2,0l0.1,0l0,0c0,0,0,0,0,0
							c0,0,0,0,0,0c0,0,0,0,0,0l-0.1,0c-0.1,0-0.2-0.1-0.3-0.1s-0.2-0.1-0.2-0.1c0,0-0.1,0-0.1-0.1l0,0c0.1,0,0.1,0.1,0.2,0.1
							c0.1,0,0,0,0.3,0.1c0.3,0.1,0.2,0.1,0.2,0.1c0,0,0.2,0,0.3-0.2c0.1-0.2,0.1-0.4,0.1-0.5c0-0.5-0.3-1.4-0.3-2.3
							c0-1.9,0.6-3.7,0.9-4.8c0.5-1.5,1-2.5,1.5-3.5c0.6-0.9,1.1-1.9,2-3c0.9-1.1,2.1-2,3.2-2.4c1-0.4,2.6-0.5,4.1-0.4
							c2.9,0.2,5.6,1.5,6.8,3.4c0.5,0.8,0.9,1.5,1.2,2.3c0.1,0.2,0.2,0.4,0.2,0.6c0.1,0.2,0.2,0.4,0.2,0.6c0.1,0.5,0.3,0.9,0.3,1.5
							c0.4,2.3,0.6,4.7,0.1,7c-0.3,1.3-0.7,2.5-1.1,3.8c-0.2,0.6-0.5,1.3-0.7,1.9c-0.3,0.5-0.4,1-0.8,1.4c-1.1,1.9-2.6,3.6-4.3,5.3
							c-1.8,1.8-4,3.2-6.3,4.2c-2.4,1-4.8,1.5-7.2,1.9c-0.6,0.1-1.2,0.1-1.8,0.2c-0.6,0.1-1.2,0.1-1.8,0.1c-0.6,0-1.2,0-1.8-0.1
							c-0.3,0-0.6,0-0.9-0.1l-0.8-0.1c-2.2-0.4-3.9-1.1-5-2.3c-0.1-0.2-0.3-0.4-0.5-0.5c-0.2-0.2-0.3-0.4-0.4-0.6
							c-0.3-0.3-0.6-1.2-0.9-1.9c-0.7-1.4-1.1-2.9-1.6-4.3c-0.9-3.7-1.2-7.4-0.6-11.1c0.3-1.8,0.7-3.7,1.4-5.5
							c0.3-0.9,0.7-1.9,1.1-2.8c0.4-1,0.9-1.9,1.4-2.8c1.8-3.3,4.2-6,6.8-8.2c2.6-2.2,5.4-3.9,8.4-5.7c3.1-1.9,7.9-3.2,11.1-6.6
							c0.8-0.8,0.9-2.2,0.8-3.3c0.1,0.9-1.1,0.6-2.5,0c-1.4-0.6-2.9-1.3-3.1-1.3c-2.4-0.7-5-0.4-7.6-0.2c-1.3,0.1-2.5,0.2-3.8,0.4
							c-1.2,0.2-2.5,0.4-3.8,0.7c-1.2,0.4-2.5,0.7-3.7,1.3c-0.6,0.3-1.2,0.6-1.8,0.9c-0.6,0.4-1.2,0.8-1.7,1.2
							c-4.8,3.5-8.5,8.3-11.4,13.3c-0.7,1.2-1.3,2.5-2,3.8l-0.9,1.9c-0.1,0.3-0.3,0.6-0.4,1l-0.4,1.1l-0.7,2.1l-0.4,1.1
							c-0.1,0.4-0.2,0.7-0.3,1.1L284,293c-0.2,0.7-0.4,1.5-0.4,2.3c-0.9,5.2-0.5,10.7,0.9,15.7c0.3,1.3,0.7,2.5,1.1,3.7l0.7,1.8
							c0.2,0.6,0.5,1.2,0.8,1.7l0.8,1.7l0.4,0.9c0.1,0.3,0.4,0.7,0.6,1c0.4,0.7,0.8,1.4,1.3,2c0.5,0.6,1.1,1.3,1.6,1.9
							c2.7,3,6.3,5,9.8,6.2c0.4,0.1,0.9,0.3,1.3,0.4l1.3,0.3c0.9,0.2,1.7,0.4,2.5,0.5c0.8,0.1,1.7,0.3,2.5,0.3L311.7,333.5z"/>
					</g>
				</g>
			</g>
		</g>
		<g>
			<g>
				<g>
					<path class="st0" d="M224,174.2l0,0.2C224,174.3,224.1,174.2,224,174.2z"/>
					<path class="st0" d="M227.2,152.5l0.1,0.1C227.3,152.5,227.3,152.5,227.2,152.5z"/>
					<path class="st0" d="M214.3,145.1l0-0.1C214.3,145,214.3,145.1,214.3,145.1z"/>
					<g>
						<path class="st0" d="M211.9,154.4c-0.4,2.1-0.6,4.2-0.8,6.4c-0.2,2.1,0,4.3,0.1,6.4c0.2,2.2,0.4,4.4,0.7,6.6
							c0.3,2.2,0.5,4.4,0.3,6.5c-0.1,2.3-0.2,4.6-0.3,6.9c0,2.3-0.1,4.6,0.1,6.9c0.4,4.6,0.1,9.1-0.1,13.7c-0.1,2.2,0.1,4.3,0.4,6.9
							c0.1,1.2,0.4,2.4,0.6,3.6c0.2,1.2,0.5,2.4,0.7,3.6c0.1,1.3,0.4,2.6,0.7,3.9c0,0.2,0.2,0.4,0.4,0.8c0.1,0.1,0.1,0.2,0.2,0.3
							l0.1,0.1l0,0.1l0,0l0.2,0.4l0,0l0,0l0,0c0.2,0.2,0.3,0.3,0.5,0.5l0.1,0.1l0.2,0.2c0.1,0.1,0.2,0.3,0.4,0.4
							c0.2,0.2,0.5,0.4,0.8,0.6c0.3,0.2,0.4,0.2,0.6,0.3c0.2,0.1,0.4,0.1,0.5,0.2c0.1,0,0.2,0.1,0.3,0.1c0.1,0,0.1,0,0.2,0
							c0.1,0,0.2,0,0.3,0c0.2,0,0.3,0,0.4,0c0.2,0-0.1-0.5-0.5-0.9c-0.3-0.3-0.5-0.6-0.8-1c-0.3-0.4-0.4-0.8-0.5-0.9
							c0-0.2,0-0.5,0-0.7l0-0.2l0,0v0v0c0,0,0,0.1,0-0.1v0l0,0l0,0l0-0.1c0-0.1,0-0.3,0-0.4c0-0.5,0.1-1.1,0.1-1.6
							c0.1-1,0.1-2,0.1-2.6c0.1-1.3,0-2.1,0.1-3c0.1-0.9,0-1.8,0-3c0-0.6,0.1-1.2,0.1-1.8c0-0.6,0-1.2,0.1-1.9
							c0.1-1.3,0.3-2.6,0.5-3.9c0.3-2.6,0.8-5.1,1.5-7.7c0.6-2.1,0.8-4.2,0.9-6.3c0.1-2.1,0.2-4.3,0.6-6.4c0.7-4.5,2.1-8.9,2.4-13.5
							c0.5-4.8,1.8-9.5,2.4-14.2c0.5-4.7,1.2-9.3,2.1-14c0.7-2.7,1.4-5.3,2.2-7.9c2-6.6,3.8-13.1,6.8-18.9c1.3-2.6,3.1-4.9,5-7
							c0.9-1.1,1.9-2.1,2.8-3.1c1-1,1.8-2.1,2.8-3.1c1.9-2.3,4.8-4.9,5.3-8.9c0.1-1-0.4-2.2-1.1-3.1c0.5,0.8-0.5,0.9-1.7,0.8
							c-1.2-0.1-2.7-0.3-2.8-0.2c-1,0.1-1.9,0.3-2.9,0.7c-0.9,0.3-1.8,0.7-2.8,1.1c-3.6,1.4-7.4,2.6-10.2,5.6
							c-2.9,3.1-5.3,6.7-7.2,10.3c-1.9,3.7-3.5,7.5-4.8,11.3c-1.1,3.3-2.1,6.5-2.9,9.8c-0.8,3.3-1.6,6.5-2.4,9.8
							c-0.4,1.9-0.9,3.9-1.4,5.9C212.8,150.4,212.2,152.4,211.9,154.4z"/>
					</g>
				</g>
			</g>
		</g>
		<g>
			<g>
				<g>
					<path class="st0" d="M301.4,219.8l0,0.1C301.4,219.8,301.4,219.8,301.4,219.8z"/>
					<path class="st0" d="M311.4,206.4l0,0.2C311.4,206.5,311.4,206.4,311.4,206.4z"/>
					<path class="st0" d="M316,192l0.2,0C316.1,192,316,192,316,192z"/>
					<g>
						<path class="st0" d="M301.6,194.2c-3.4,1.6-6.2,4.4-8.1,7.2c-1.8,2.9-2.9,5.8-3.4,8.6c-0.3,1.4-0.5,2.8-0.6,4.2
							c-0.1,1.4-0.2,2.9-0.2,4.3c0,2.9,0.2,6,0.8,9c0.6,3.2,1.9,6.4,3.8,9c1,1.3,2,2.5,3.1,3.5l0.4,0.4l0.2,0.2l0.3,0.2
							c0.4,0.3,0.8,0.6,1.2,0.9c0.8,0.5,1.6,0.9,2.4,1.2c3.3,1.2,6.5,1.6,9.7,1.3c1.6-0.1,3.6-0.5,5.3-1.3c0.9-0.4,1.7-0.9,2.5-1.4
							c0.4-0.3,0.7-0.6,1.1-0.9c0.4-0.3,0.7-0.6,1-1c1.2-1.4,1.9-3.2,2-5c0-0.5,0-0.9,0-1.4l-0.2-1.3c-0.1-0.4-0.2-0.9-0.4-1.3
							l-0.5-1.3l-1.1-2.1c-0.3-0.5-0.6-1.1-0.8-1.6c-0.5-1.1-0.9-2.2-1.1-3.3l-0.1-0.9l-0.1-0.9c0-0.3-0.1-0.6,0-0.9l0-0.4
							c0-0.1,0-0.2,0-0.3c0-0.1-0.1-0.4-0.3-0.8c-0.1-0.2-0.2-0.4-0.2-0.6c-0.1-0.2-0.1-0.4-0.1-0.6c0-0.4,0-0.7,0-1
							c0-0.2-0.5,0.1-0.9,0.3c-0.5,0.2-1,0.6-1.2,0.8c-0.2,0.2-0.3,0.5-0.4,0.8c-0.4,0.7-0.6,1.6-0.8,2.6c-0.1,0.9-0.2,1.8-0.2,2.4
							c0.1,1.5,0.2,2.6,0.5,3.7c0.1,0.5,0.2,1.1,0.4,1.7c0.2,0.6,0.4,1.2,0.6,1.8c0.1,0.3,0.2,0.6,0.3,0.9l0.2,0.8
							c0.1,0.3,0,0.5,0.1,0.8c0,0.3,0,0.5,0,0.8c-0.1,1-0.7,2-1.5,2.6c-0.8,0.6-1.8,0.9-2.7,1c-0.4,0-0.9,0-1.4-0.1
							c-0.6-0.1-1.1-0.2-1.7-0.4c-1.8-0.5-3.5-1.1-4.7-1.8c-0.3-0.2-0.5-0.4-0.7-0.5l-0.1-0.1l-0.1-0.1l-0.3-0.3l-0.5-0.5
							c-0.6-0.7-1.2-1.5-1.6-2.3c-1.6-3.6-0.9-7.1-0.1-11.3c0.2-1.1,0.6-2.4,1-3.5c0.4-1.1,0.9-2.2,1.5-3.1c0.5-0.9,1.1-1.8,1.7-2.4
							c0.6-0.7,1.1-1.2,1.7-1.7c0.5-0.5,1.1-0.8,1.8-1.2c0.4-0.1,0.7-0.3,1.1-0.4c0.3-0.1,0.9-0.2,1.4-0.3c2-0.5,4.1-0.5,6-0.2
							c2.3,0.4,4.4,1.4,6.3,2.8c0.6,0.5,1.2,0.9,1.8,1.5l0.8,0.8l0.4,0.4l0.4,0.4c1,1.1,1.9,2.3,2.6,3.6c1.5,2.6,2.5,5.9,3.2,9.6
							c0.2,0.8,0.3,1.7,0.4,2.6l0.1,0.7l0,0.6l0,1.2l0,1.1l0,0.6l-0.1,0.6l-0.2,2.2c-0.5,2.9-1.1,5.6-1.9,8.4
							c-0.8,3-2.8,6.7-2.4,10.9c0.1,1,1,2.1,1.9,2.8c-0.7-0.6,0.3-1.1,1.6-1.5c1.3-0.4,2.8-0.8,3-0.9c1-0.5,1.9-1.2,2.7-2
							c0.2-0.2,0.4-0.4,0.6-0.6l0.6-0.6c0.4-0.4,0.8-0.8,1.2-1.3c0.4-0.4,0.8-0.8,1.2-1.2c0.4-0.4,0.7-0.8,1.1-1.3
							c0.7-0.9,1.5-1.7,2.1-2.7c1.2-1.9,2.4-4.1,2.7-6.5l0.4-1.9c0.1-0.6,0.1-1.3,0.2-1.9c0.1-1.3,0.2-2.6,0.1-3.9
							c-0.1-1.3-0.2-2.6-0.3-3.8c-0.1-1.2-0.3-2.3-0.5-3.4c-0.8-4.6-2.1-9.8-4.8-14.7c-0.5-1.1-1.2-2.1-1.9-3.1
							c-0.4-0.5-0.7-1-1.1-1.5l-1.2-1.4l-1.2-1.3l-1.3-1.2c-0.9-0.8-1.7-1.6-2.7-2.3c-3.8-2.9-8.5-5-13.3-5.8
							c-1.4-0.3-2.9-0.4-4.4-0.5c-1.5,0-3,0-4.5,0.1l-2.2,0.3c-0.7,0.1-1.4,0.2-2.3,0.4c-0.8,0.2-1.6,0.4-2.5,0.7
							C303.3,193.4,302.5,193.8,301.6,194.2z"/>
					</g>
				</g>
			</g>
		</g>
		<g>
			<g>
				<g>
					<path class="st0" d="M251.3,151.5l0-0.1C251.3,151.4,251.2,151.5,251.3,151.5z"/>
					<path class="st0" d="M247.8,169.5l-0.1-0.1C247.7,169.5,247.7,169.5,247.8,169.5z"/>
					<path class="st0" d="M259.8,178l0,0.1C259.8,178,259.8,178,259.8,178z"/>
					<g>
						<path class="st0" d="M263,169.8c0.3-1,0.5-2,0.7-3c0.2-1,0.4-2,0.4-3c0.1-1,0.1-2.1,0.1-3.1c0-1,0-2.1-0.2-2.9
							c-0.1-0.9-0.3-1.8-0.4-2.7c-0.1-0.9-0.3-1.9-0.4-2.8c-0.2-1.9-0.4-3.9-0.3-5.9l0-0.8l0-0.8l0-1.7c0-1.1,0-2.3-0.2-3.2
							c-0.2-2.1-0.5-4.1-1.1-6.1c-1-4.1-1.8-8-2.8-12.1c-0.6-1.9-1.3-3.8-2.3-5.6c-0.5-0.9-0.9-1.8-1.3-2.7
							c-0.4-0.9-0.9-1.8-1.2-2.8c-0.3-1-0.6-2.1-1-3.1c-0.2-0.5-2.2-2.4-2.8-2.7c-0.3-0.1-0.3,1.7-0.4,2.2c0,1.6,0,3.9,0.1,5
							c0.3,2.2,0.5,3.2,1,5.3c0.6,2.1,1.1,4.3,1.4,6.5c0.2,2.2,0.4,4.4,0.1,6.6c-0.3,3.6,0.7,7.1,0.5,10.7c-0.4,3.6-1.5,6.8-2,10.9
							c-0.1,1-0.3,2.2-0.5,3.3c-0.2,1.1-0.4,2.3-0.6,3.1c-0.5,1.8-0.8,3.7-1.3,5.5l-0.5,2.8l-0.7,2.8c-0.4,1.9-1.1,3.8-1.8,5.7
							c-0.8,2.2-1.8,4.4-2.8,6.5c-2.7,5.4-5,11-8,16.2c-2.7,4.8-6.7,8.6-9.2,13.5c-1.3,2.6-3.5,6-2.4,9.7c0.3,0.9,1.2,1.8,2.2,2.5
							c-1.6-1.1,3.5-1.6,3.8-1.7c1.7-0.6,3-1.7,4.5-2.6c2.9-1.7,6-3,8-5.5c2.2-2.6,4-5.5,5.7-8.5c1.7-3,3.2-6,4.7-9.1
							c1.3-2.6,2.4-5.3,3.6-8c0.6-1.3,1.1-2.7,1.7-4.1c0.5-1.4,1.1-2.7,1.7-4.1c0.6-1.7,1.4-3.3,2-5
							C261.8,173.4,262.5,171.7,263,169.8z"/>
					</g>
				</g>
			</g>
		</g>
		<g>
			<g>
				<g>
					<path class="st0" d="M301,431.6L301,431.6C300.9,431.6,300.9,431.6,301,431.6z"/>
					<path class="st0" d="M315.9,445.3l-0.1,0.1C315.8,445.4,315.9,445.4,315.9,445.3z"/>
					<path class="st0" d="M327.2,435.9L327.2,435.9C327.2,435.9,327.2,435.9,327.2,435.9z"/>
					<g>
						<path class="st0" d="M321.8,431.3c-1.2-1-2.5-2-3.8-3c-0.7-0.5-1.3-0.9-2-1.3c-0.7-0.5-1.4-0.9-2.1-1.4
							c-1.5-0.9-3.1-1.7-4.5-2.7c-1.5-1-2.9-2-4.1-3.3c-2.6-2.7-4.9-5.7-7.7-8.3c-0.7-0.7-1.4-1.3-2-2c-0.6-0.7-1.3-1.4-1.8-2.1
							c-0.5-0.7-1.1-1.4-1.5-2.1c-0.4-0.7-0.9-1.5-1.3-2.2c-0.4-0.7-0.8-1.4-1.3-2.1c-0.4-0.7-0.8-1.4-1.3-2.2
							c-0.4-0.8-0.7-1.5-1-2.3c-0.3-0.8-0.4-1.6-0.5-2.5c0-0.9,0.1-1.9,0.1-2.8c0-0.4-1-2.6-1.5-3.1c-0.2-0.2-1,1.2-1.2,1.7
							c-0.7,1.3-1.4,3.5-1.6,4.6c-0.2,2.2-0.3,3.3,0.3,5.6c0.1,0.6,0.3,1.1,0.5,1.7l0.5,1.7c0.4,1.1,0.9,2.2,1.3,3.3
							c0.5,1.1,1,2.2,1.5,3.3c0.5,1.1,1,2.2,1.5,3.3c1.4,3.4,4.3,5.9,6.3,9l3.2,5.1c1.1,1.7,2.3,3.3,3.7,4.8c1.5,1.6,3,3.2,4.4,4.9
							c1.5,1.7,3.1,3.3,4.8,4.7c1.8,1.4,3.6,2.6,5.4,3.9c1.9,1.2,3.8,2.3,5.7,3.5c2,1.3,3.9,2.5,5.7,3.9c2.4,1.8,4.8,3.4,7.4,5.2
							c1.3,0.8,2.5,1.7,3.9,2.5c1.3,0.8,2.6,1.7,4,2.6c1.2,0.8,2.4,1.6,3.6,2.5c1.2,0.8,2.3,1.8,3.5,2.6c1.3,0.8,2.5,1.6,3.9,2.3
							c0.7,0.4,1.3,0.7,2,1c0.4,0.2,0.9,0.3,1.3,0.5c0.4,0.1,0.9,0.3,1.3,0.4c0.4,0.1,0.8,0.2,1.2,0.3c0.3,0.1,0.3,0.1,0.4,0.1
							l0.3,0l0.4,0l0.6,0.1l0.6,0.1l0.3,0.1l0.1,0l0,0l0,0c-0.3,1.3,0.3-1.8,0.3-1.5l0,0l0,0l-0.1,0.2l-0.3,0.6
							c-0.3,0.6-0.2,0.3-0.2,0.4l0.1-0.1c0.1,0,0.1-0.1,0.2-0.1c0.3,0.1,0.7,0.1,1,0.1c1,0.3,2.1,0.4,3.4,0.3
							c1.2-0.1,1.9-1.2,2.4-2.3c-0.3,0.9-1.2-0.1-1.5-1.3c-0.3-1.2-0.2-2.5-0.3-2.6c-0.1-0.4-0.2-0.9-0.5-1.3
							c-0.1-0.2-0.3-0.4-0.4-0.6l-0.2-0.3l-0.1-0.1l0,0l0,0c0.1,0-0.1-0.1-0.1,0l0,0l0,0l0,0l0,0l-0.1-0.1c-0.6-0.6-1.1-1.2-1.8-1.8
							c-0.3-0.3-0.7-0.6-1-0.9c-0.3-0.3-0.5-0.6-0.8-0.9c-0.1-0.1-0.3-0.3-0.4-0.4l-0.3-0.4l-0.5-0.8c-0.9-1.2-1.8-2.3-2.9-3.1
							c-0.6-0.4-1.2-0.8-1.8-1.2c-0.6-0.4-1.2-0.9-1.8-1.3c-1.2-0.9-2.5-1.6-3.7-2.4s-2.5-1.7-3.8-2.5c-1.3-0.8-2.6-1.7-3.9-2.6
							c-2.2-1.5-4.6-3-6.9-4.6c-2.3-1.5-4.9-3.1-7.1-4.6c-1.2-0.8-2.4-1.7-3.6-2.7c-0.6-0.4-1.2-1-1.7-1.5
							C323,432.3,322.4,431.8,321.8,431.3z"/>
					</g>
				</g>
			</g>
		</g>
		<g>
			<g>
				<g>
					<path class="st0" d="M313.1,65.6L313.1,65.6C313.1,65.7,313.2,65.7,313.1,65.6z"/>
					<path class="st0" d="M323.2,56.7l0.1,0.1C323.3,56.8,323.3,56.8,323.2,56.7z"/>
					<path class="st0" d="M317.6,43.4L317.6,43.4C317.6,43.4,317.6,43.4,317.6,43.4z"/>
					<g>
						<path class="st0" d="M311.8,46.9c-1.2,0.9-2.3,2-3.3,3.1c-1,1.1-1.9,2.4-2.7,3.8c-0.4,0.7-0.8,1.4-1.1,2.1
							c-0.3,0.7-0.6,1.5-1,2.2c-0.6,1.5-1.4,2.8-2.2,4.1l-1.4,2c-0.4,0.7-0.9,1.3-1.3,2.1c-0.8,1.4-1.5,2.9-2,4.4
							c-0.8,3-2.2,5.6-3.7,8.4c-0.3,0.7-0.6,1.3-0.9,2c-0.2,0.7-0.4,1.4-0.6,2.1c-0.4,1.4-0.9,2.8-1.7,4c-0.4,0.6-1,1.2-1.4,1.8
							c-0.2,0.3-0.3,2.4-0.1,2.9c0.1,0.2,1.4-0.4,1.8-0.5c1.2-0.6,2.8-1.5,3.4-2.1c1.3-1.2,1.9-1.8,2.8-3.2c1.9-3,3.6-5.9,6.2-8.3
							c1.1-1,1.7-2.2,2.4-3.4c0.7-1.1,1.3-2.3,2.1-3.2c1-1,2.1-1.9,3.1-2.8c0.5-0.5,1.1-0.9,1.6-1.4c0.5-0.5,1-0.9,1.4-1.5
							c1.9-2.2,4.6-3.7,6.8-5.6c2.2-1.9,4.3-4,6.8-5.7c1.4-1,3-1.8,4.6-2.7l0.7-0.4c0.2-0.1,0.4-0.2,0.7-0.3
							c0.4-0.2,0.8-0.4,1.3-0.7l1.4-0.7l1.5-0.7c2-0.9,4.2-1.9,6.5-2.8c2.1-0.8,4.4-1.5,6.7-2.4c2.3-0.9,4.8-2.2,6.9-4.3
							c0.5-0.6,1.1-1.2,1.7-1.9c0.5-0.8,1.1-1.6,1.5-2.4c0.4-0.9,0.6-1.9,0.7-2.8c0-0.9-0.2-1.9-0.6-2.8c-0.4-0.8-1.6-1.5-2.6-1.9
							c0.9,0.3,0.1,0.8-0.9,1.1c-1,0.3-2.2,0.3-2.3,0.3c-0.8,0.1-1.3,0.4-1.9,0.5c-0.6,0.2-1.2,0.4-1.8,0.4
							c-2.4,0.3-4.7-0.4-6.6,0.2c-3.9,1.3-8.2,3.1-13.1,5.2c-2.1,0.9-4.3,2-6.5,3.3l-2.9,1.8l-1.5,0.9l-1.4,0.9
							c-1.1,0.8-2.4,1.4-3.6,2.2C314.2,45.2,313,46,311.8,46.9z"/>
					</g>
				</g>
			</g>
		</g>
		<g>
			<g>
				<g>
					<path class="st0" d="M254.6,363.7l0,0.1C254.6,363.8,254.6,363.7,254.6,363.7z"/>
					<path class="st0" d="M255.3,343.9l0.2,0C255.4,343.9,255.4,343.9,255.3,343.9z"/>
					<path class="st0" d="M241,340.8l0-0.1C241,340.7,241,340.7,241,340.8z"/>
					<g>
						<path class="st0" d="M240.7,348c-0.1,3.3,0.1,6.7,0.8,10.1c0.6,3.5,1.7,7.1,1.5,10.7c-0.2,3.8-0.8,7.5-0.7,11.3
							c0,3.8-0.7,7.5-1.6,11.2c-0.8,3.5-0.5,7.3-1.9,10.7c-0.4,0.9-0.9,1.7-1.3,2.6c-0.2,0.4-0.2,2.8,0,3.4c0.1,0.3,1.4-0.7,1.8-1
							c1.2-0.9,2.8-2.5,3.4-3.5c1.2-1.9,1.8-2.8,2.5-4.8c1.5-4.3,2.6-8.6,4.6-12.8c1.6-3.4,1.5-7.3,2.4-10.9c1-3.9,2.3-7.8,2.5-11.8
							c0.2-4.3,1.3-8.5,1.2-12.9c-0.1-2.2-0.2-4.3-0.4-6.5c-0.2-2.2-0.4-4.3-0.6-6.5c-0.2-2.5-0.5-5.1-0.8-7.7
							c-0.4-3.3-1.2-6.6-2.3-9.8c-1.1-3.2-2.4-6.3-3.8-9.3c-2.5-5.4-4.2-10.9-7.7-15.4c-1.8-2.4-4.1-5.6-7.9-6
							c-0.9-0.1-2.1,0.5-3.1,1.1c1.6-1,0.1,3.8,0,4.1c-0.2,1.8,0.3,3.3,0.5,5c0.3,3.2,0,6.4,1.2,9.1c1.2,2.9,2.5,5.5,3.7,8.1
							c1.2,2.6,2.3,5.2,3.2,7.8c1.4,4.5,2.5,9.3,2.8,14.4c0.1,1.5,0.1,3.1,0.1,4.7C240.8,345,240.8,346.4,240.7,348z"/>
					</g>
				</g>
			</g>
		</g>
		<g>
			<g>
				<g>
					<path class="st0" d="M114.1,285.2l0,0.2C114.1,285.3,114.1,285.2,114.1,285.2z"/>
					<path class="st0" d="M112.5,251.1l0.2,0C112.6,251.1,112.5,251.1,112.5,251.1z"/>
					<path class="st0" d="M97.9,245.2l0-0.2C97.8,245,97.8,245.1,97.9,245.2z"/>
					<g>
						<path class="st0" d="M99.2,260.2l0.4,2.2c0.1,0.7,0.3,1.5,0.4,2c0.2,1.3,0.4,2.5,0.6,3.7c0.1,1.3,0.3,2.6,0.4,3.9
							c0.1,1.4,0.2,2.7,0.3,4.1l0.3,4.4c0.1,1.6,0.1,3.3,0.4,5.4c0.3,2.5,1,5,2.4,7c0.7,1,1.5,1.9,2.5,2.6c0.5,0.3,1,0.7,1.5,1
							c0.3,0.1,0.5,0.3,0.8,0.4l0.8,0.3c0.3,0.1,0.6,0.2,0.9,0.3c0.6,0.2,1.3,0.3,1.9,0.5l1,0.2c0.3,0.1,0.6,0.1,0.9,0.1
							c0.5,0,1.1,0.1,1.6,0.1l1.6,0c2-0.1,3.9-0.5,5.7-0.9l1.3-0.3l1.2-0.3l2.4-0.7c1.6-0.5,3.2-1,4.8-1.5c3.2-1,6.4-2.1,9.6-3
							c3.2-0.9,6.5-1.7,9.7-2.6c6.3-1.8,12.1-4.8,18.5-6.1c1.7-0.4,3.4-0.6,5.1-1c0.8-0.2,4.7-2.2,5.4-2.8c0.3-0.3-2.3-0.5-3.1-0.5
							c-2.4-0.1-6.1-0.2-7.9,0c-3.7,0.4-5.5,0.6-9.1,1.5c-3.8,0.9-7.5,1.8-11.2,2.7c-3.7,0.8-7.5,1.4-11.3,1.8
							c-1.6,0.2-3.1,0.4-4.6,0.7c-1.6,0.3-3.1,0.7-4.6,1c-1.5,0.4-3.1,0.8-4.6,1.1c-0.8,0.2-1.5,0.3-2.3,0.5
							c-0.7,0.1-1.4,0.3-2.1,0.3c-1.4,0.2-2.7,0.2-3.9,0c-0.3,0-0.6-0.1-0.8-0.1c-0.2-0.1-0.5-0.1-0.7-0.2c-0.2-0.1-0.4-0.2-0.6-0.4
							c-0.4-0.3-0.6-0.7-0.6-1.1c0-0.2,0-0.4,0-0.6l0-1.3c0-0.7,0.1-1.5,0.2-2.4l0.4-2.8c0.1-1,0.3-1.9,0.4-2.9l0.3-3
							c0.2-2,0.2-4.1,0.2-6.1c0-1-0.1-2.1-0.2-3.1c-0.1-1-0.3-2.1-0.4-3.1c-0.8-3.8-1.7-7.2-2.3-10.3c-0.3-1.6-0.5-3.1-0.6-4.6
							c0-0.7-0.1-1.4,0-2.2l0.2-2.2c0-0.4,0-0.9,0.1-1.3l0.3-1.3l0.3-1.3l0.1-0.7l0.2-0.8c0.5-2.1,1-3.8,1.5-4.9
							c0.3-0.7,0.7-1.2,1.1-1.7c0.3-0.4,0.8-0.8,1.2-1c0.9-0.6,2.1-0.8,3-0.7c0.4,0.1,0.8,0.2,1.1,0.4l3.7,2
							c1.3,0.8,2.6,1.3,3.9,1.9c1.3,0.6,2.6,1.3,3.9,1.7c2.3,1,4.6,1.9,6.9,2.9l3.2,1.4l3.1,1.4c4.2,1.9,8.7,4.1,13.9,5.3
							c2.8,0.7,6.2,1.4,9.6,1.3c3.4,0,6.8-0.9,9.1-2.7c1.1-0.9,1.2-2.2,1.1-3.3c0.1,0.9-1.4,0.6-3,0c-0.8-0.4-1.5-0.8-2.1-1.1
							c-0.6-0.4-1-0.7-1.1-0.7c-2.4-1.2-4.8-2-7-3.2c-4.3-2.5-7.5-5.7-12.2-8c-2.5-1.2-5.1-2.4-7.9-3.5c-2.5-1-5.1-2-7.4-3l-1.8-0.7
							l-1.7-0.8c-1.1-0.5-2.3-1-3.3-1.6l-3.3-1.8c-2.1-1.3-4.5-2.1-6.9-2.4c-4.1-0.5-8.1,0.4-11.5,2.2c-1.7,0.9-3.3,2.1-4.6,3.5
							c-0.7,0.7-1.3,1.5-1.9,2.2c-0.5,0.8-1.1,1.5-1.5,2.4c-0.9,1.6-1.5,3.2-1.9,4.7c-0.5,1.5-0.7,2.8-1,4l-0.2,0.8
							c-0.1,0.3-0.1,0.5-0.2,0.9l-0.4,2l-0.4,2c-0.1,0.7-0.2,1.4-0.3,2.1c-0.1,1.7-0.4,3.4-0.4,5.2c0,0.9,0,1.8,0,2.6l0.1,1.3
							l0.1,1.3C98.1,254.3,98.7,257.4,99.2,260.2z"/>
					</g>
				</g>
			</g>
		</g>
		<g>
			<g>
				<g>
					<path class="st0" d="M206.3,332.4l0-0.1C206.3,332.4,206.3,332.4,206.3,332.4z"/>
					<path class="st0" d="M208.2,353.8l-0.2,0C208.1,353.8,208.1,353.8,208.2,353.8z"/>
					<path class="st0" d="M222.9,355.4l0,0.1C222.9,355.4,222.9,355.4,222.9,355.4z"/>
					<g>
						<path class="st0" d="M222.1,347.5c-0.5-3.5-1-7.1-2.2-10.6c-0.5-1.8-1.1-3.7-1.6-5.5c-0.3-0.9-0.5-1.9-0.7-2.8
							c-0.2-1-0.3-2-0.4-3c-0.3-4.1-0.2-8-0.3-11.9c-0.1-3.9,0.8-7.6,2.2-11.1c0.2-0.4,0.3-0.9,0.5-1.3l0.5-1.3
							c0.3-0.9,0.6-1.8,0.9-2.6c0.7-1.7,1.6-3.4,2.9-4.7c0.7-0.7,1.5-1.3,2.3-1.9c0.4-0.3,1.5-2.6,1.5-3.3c0-0.3-1.6,0.1-2.1,0.2
							c-0.8,0.2-1.8,0.5-2.6,0.9c-0.9,0.4-1.7,0.8-2.1,1.2c-1,0.7-1.7,1.3-2.3,1.9c-0.7,0.6-1.3,1.3-1.9,2.3
							c-2.9,4.2-4.9,8.8-7.2,13.6c-1.9,3.9-1.5,8.4-2,12.5c-0.3,2.2-0.6,4.4-0.8,6.5c-0.3,2-0.4,4.3-0.3,6.4c0.1,2.3,0,4.7,0.1,7
							c0,1.2,0,2.4,0.1,3.5c0,0.6,0,1.2,0.1,1.8c0.1,0.6,0.1,1.2,0.2,1.8c0.4,2.3,0.8,4.6,1.3,6.9c0.6,2.3,1.1,4.6,1.6,6.9
							c0.7,2.7,1.3,5.4,2,8c1,3.3,2,6.7,3.5,9.8c0.7,1.6,1.4,3.2,2.1,4.8c0.8,1.5,1.6,3.1,2.3,4.6c0.3,0.7,0.7,1.4,1,2.1
							c0.3,0.7,0.5,1.1,0.7,1.8c0.4,1.2,0.8,2.5,1.2,3.8c0.7,2.6,1.4,5.2,2.4,7.6c0.5,1.3,1,2.8,1.6,4.1c0.7,1.3,1.5,2.3,2.9,3.2
							c0.7,0.4,1.9,0.8,3.1,1.1c-0.5-0.1-0.5-0.3-0.4-0.5c0.1-0.3,0.5-0.6,0.9-1c0.8-0.8,1.7-1.8,1.8-2c1-1.7,1.1-3.6,1.5-5.4
							c0.7-3.6,1.6-7.1,0.7-10.6c-0.5-1.8-1-3.6-1.8-5.4c-0.4-0.9-0.7-1.8-1.2-2.7l-1.1-2.3c-0.7-1.5-1.4-2.9-2.2-4.3
							c-0.7-1.5-1.3-3-1.9-4.4c-1.2-2.5-2-5.1-3-7.7c-0.5-1.3-0.8-2.6-1.2-3.9c-0.4-1.3-0.7-2.6-1-4
							C222.9,354.2,222.4,350.9,222.1,347.5z"/>
					</g>
				</g>
			</g>
		</g>
		<g>
			<g>
				<g>
					<path class="st0" d="M385.9,241.1L385.9,241.1C385.9,241.1,385.9,241.1,385.9,241.1z"/>
					<path class="st0" d="M386.5,257.3l-0.1-0.1C386.4,257.2,386.5,257.2,386.5,257.3z"/>
					<path class="st0" d="M397.5,267.3l-0.1,0.2C397.5,267.4,397.5,267.4,397.5,267.3z"/>
					<g>
						<path class="st0" d="M402,257c0.2-0.7,0.3-1.3,0.5-2c0.1-0.7,0.2-1.4,0.3-2.1l0.1-1l0-1.1c0-0.7,0-1.4,0-2.1
							c-0.2-2.9-1-5.8-2.3-8.5c-1.4-2.7-3.2-5-5.3-6.9c-2-1.9-4.1-3.5-6.1-5c-0.5-0.4-1.1-0.8-1.6-1.2l-1.6-1.1l-0.8-0.5l-1.1-0.6
							l-1.2-0.5c-0.4-0.2-0.9-0.3-1.3-0.5c-1.7-0.5-3.7-0.6-5.4-0.3c-0.8,0.2-1.6,0.3-2.4,0.7c-0.8,0.3-1.5,0.6-2.2,1
							c-2.8,1.6-5,3.8-6.6,6.2c-0.8,1.2-1.5,2.5-2,4c-0.5,1.4-0.9,3-1,4.6l0,0.8l0,0.5c0,0.3,0,0.7,0,1l0.1,2.2
							c0,0.7,0.1,1.6,0.2,2.4c0,0.9,0.2,2,0.3,3.1c0.2,1,0.4,2.1,1,2.9c0.3,0.4,0.6,0.8,1,1.2l0.5,0.6c0,0,0.1,0.1,0.1,0.1l0,0
							l0,0.1l0,0l0,0l0,0l0,0v0l0.2-0.1l0,0c0,0,0,0,0,0c0,0,0,0,0,0l0,0l0,0l0,0c-0.5,0.9-0.1,0.2-0.2,0.4v0l0,0l0,0l0,0.1l0,0.1
							l0.1,0.2c0,0,0,0,0.1,0.1l0.2,0.3c0.3,0.4,0.6,0.9,0.9,1.1c0.3,0.3,0.7,0.6,1.1,0.8c0.2,0.1,0.4,0.2,0.6,0.3
							c0.2,0.1,0.4,0.1,0.6,0.2c0.9,0.2,1.6,0.3,2.2,0.2c0.2,0,0.4-0.1,0.6-0.1c0.3-0.1,0.5-0.2,0.8-0.3c0.6-0.3,1.1-0.6,1.6-1
							c0.9-0.8,1.5-1.6,1.7-1.9c0.2-0.3-1.9-0.1-2.5-0.1c-1,0-2.3,0.1-3.3-0.4c-0.5-0.2-0.8-0.6-0.9-1c0-0.2-0.1-0.7-0.2-1
							c-0.5-1.4-0.9-1.7-1.1-2.3c-0.3-0.5-0.3-1.2-0.2-1.9c0-0.3,0.1-0.6,0.1-1c0.1-0.5,0.1-1.2,0.2-1.8c0.1-0.6,0.2-1.3,0.2-2
							c0.1-0.7,0.2-1.4,0.2-2.1l0.1-1.1c0-0.3,0.1-0.5,0.1-0.8c0.4-2,1.7-3.8,3.5-4.8c1.4-0.8,2.5-1.5,3.8-2
							c0.3-0.1,0.6-0.2,0.9-0.3l0.5-0.1c0.1,0,0.3,0,0.4,0c0.5,0,0.9,0.1,1.2,0.4c0.2,0.2,0.4,0.4,0.7,0.6l1.1,1
							c0.8,0.7,1.4,1.5,2.1,2.2c1.2,1.5,2.4,2.9,3.3,4.3c1,1.5,1.5,3.1,1.7,4.8c0.2,1.7,0,3.4-0.2,5.2c0,0.9-0.3,1.9-0.4,2.9
							c-0.3,1-0.5,2-0.8,3c-0.2,0.5-0.3,1-0.5,1.5l-0.6,1.5c-0.4,1-0.9,2-1.4,2.9c-1.2,2.2-2.7,4-4.2,5.4c-2,1.8-4.1,3.1-6.6,3.8
							c-0.6,0.2-1.3,0.3-1.9,0.5c-0.3,0.1-0.7,0.1-1,0.2c-0.3,0-0.7,0.1-1,0.1c-1.1,0.1-2.2,0-3.4-0.3c-1.1-0.3-2.1-0.8-3.3-1.5
							c-1.1-0.7-2.3-1.6-3.5-2.5c-2.3-1.8-4.3-3.5-6.2-5.1c-0.5-0.4-1-0.9-1.6-1.4c-0.5-0.5-1-1-1.7-1.5c-0.6-0.5-1.1-1-1.9-1.4
							c-0.7-0.4-1.4-0.8-2.4-1.1c-0.9-0.3-2.2-0.1-3.3,0.3c0.9-0.3,0.7,0.7,0.4,1.9c-0.4,1.2-0.7,2.6-0.8,2.8
							c-0.2,2.1,0.6,4.1,1.3,6.1c0.4,1,0.7,2,1.1,2.9c0.4,0.9,0.9,1.9,1.3,2.8c0.5,0.9,1.1,1.8,1.7,2.6c0.6,0.9,1.4,1.6,2.2,2.3
							l1.3,1.1l1.3,1c0.9,0.6,1.8,1.2,2.8,1.8c2,1.1,4.2,2.2,6.8,3c0.7,0.2,1.3,0.4,2,0.5l2,0.3c1.4,0.1,2.8,0.2,4.2,0.1l1-0.1
							l0.9-0.1c0.6-0.1,1.2-0.2,1.9-0.3c1.3-0.3,2.5-0.5,3.8-0.9c4.3-1.2,8.3-3.6,11.5-6.6c3.2-3,5.6-6.4,7.6-9.8
							c1.2-2,2.2-4.1,3.2-6.2C400.4,261.8,401.4,259.5,402,257z"/>
					</g>
				</g>
			</g>
		</g>
	</g>
</g>
<g id="brushes" class="st1">
	<g class="st2">
		<g>
			<rect x="300.4" y="7.8" class="st3" width="101.2" height="8.4"/>
			<g>
				<path d="M387.9,10.4c0,0,0-0.1,0-0.1C387.9,10.4,387.9,10.4,387.9,10.4z"/>
				<path d="M379.9,9.6L379.9,9.6C380,9.6,380,9.6,379.9,9.6z"/>
				<path d="M392.7,10.8C392.7,10.8,392.7,10.8,392.7,10.8c0.1,0,0.2,0,0.3,0.1L392.7,10.8z"/>
				<path d="M362.9,8.7l0.1,0C363,8.7,363,8.6,362.9,8.7z"/>
				<path d="M373,9.3c0,0.1-0.1,0.1-0.1,0.1C372.9,9.4,373,9.4,373,9.3z"/>
				<path d="M395.2,13.6l-0.1-0.2C395.1,13.5,395.1,13.6,395.2,13.6z"/>
				<path d="M400.1,12.9C400.1,12.8,400.1,12.8,400.1,12.9C400,12.8,400.1,12.8,400.1,12.9z"/>
				<path d="M398.2,12.1c0,0-0.1,0.1-0.1,0.1C398.1,12.2,398.2,12.2,398.2,12.1z"/>
				<path d="M398,12.2C398,12.2,398,12.2,398,12.2C398,12.2,398,12.2,398,12.2z"/>
				<path d="M301.2,9.6c-0.1,0-0.3,0.1-0.4,0.3L301.2,9.6z"/>
				<path d="M347.5,8.5L347.5,8.5C347.5,8.5,347.5,8.5,347.5,8.5z"/>
				<path d="M301,11.3L301,11.3C300.9,11.2,301,11.3,301,11.3z"/>
				<path d="M392.7,14.1c-0.1,0.2-0.4,0-0.4,0.1C392.4,14.3,392.6,14.4,392.7,14.1z"/>
				<path d="M344.3,15.6L344.3,15.6C344.2,15.6,344.3,15.6,344.3,15.6z"/>
				<path d="M301,11.3l0.1,0C301.1,11.3,301.1,11.2,301,11.3C301.1,11.2,301,11.3,301,11.3z"/>
				<path d="M331.5,8.5C331.5,8.5,331.5,8.5,331.5,8.5C331.5,8.5,331.5,8.4,331.5,8.5L331.5,8.5z"/>
				<path d="M330.7,8.2c0.1,0,0.1,0,0.2-0.1C330.7,8.1,330.7,8.1,330.7,8.2z"/>
				<path d="M300.8,9.9l-0.2,0.1C300.6,10,300.7,9.9,300.8,9.9z"/>
				<path d="M321.5,8.4C321.5,8.4,321.6,8.4,321.5,8.4C321.5,8.4,321.5,8.4,321.5,8.4z"/>
				<path d="M373.7,9.4C373.7,9.4,373.7,9.4,373.7,9.4C373.7,9.4,373.7,9.4,373.7,9.4z"/>
				<polygon points="367.3,14.4 367.3,14.4 367.3,14.4 				"/>
				<path d="M367.7,14.1c-0.1,0-0.3,0.1-0.3,0.2C367.4,14.4,367.5,14.3,367.7,14.1z"/>
				<path d="M366.6,14.3C366.6,14.3,366.6,14.3,366.6,14.3C366.6,14.3,366.6,14.3,366.6,14.3z"/>
				<path d="M373.4,14.6C373.4,14.6,373.4,14.6,373.4,14.6C373.4,14.6,373.4,14.6,373.4,14.6L373.4,14.6z"/>
				<path d="M372.1,14.7C372,14.6,372,14.6,372.1,14.7C372,14.6,372,14.7,372.1,14.7z"/>
				<polygon points="363.3,14.8 363.3,14.8 363.2,14.8 				"/>
				<path d="M350.6,16c0.3,0,0.5,0.1,0.6,0.1c1.1,0,2.2-0.4,3.2-0.6c1.5-0.3,2.8,0.9,4.4,0.5c1.1-0.3,1.5-1.2,2.5-1.5
					c1-0.3,1.9,0.3,2.9,0.2c1,0,1.9-1,2.9-0.9c-0.1,0.2,0,0.5-0.1,0.7c0.5-0.3,1-0.7,1.6-0.5c0.4,0.2,0.5,0.9,1,0.3
					c0.6,0.3,1.1,0.9,1.9,0.7c0.1-1.1,1.6-0.6,2.2-0.7c0.5,0,1-0.4,1.6-0.4c0.7,0,1.1,0.1,1.8-0.1c0.9-0.2,1.4-0.2,2.2,0.1
					c0.9,0.3,1,0.5,1.8,0c0.8-0.4,0.6-0.3,1.5-0.3c1.1,0.1,2.2,0,3.4-0.1c0.7,0,1.5,0.1,2.2,0c1.6-0.1,2.7-0.8,4,0.4
					c0.8-1,3.2-0.9,4.3-0.7c1.1,0.2,3.4,1.1,4.3,0c-0.1-0.1-1.2-0.8-1.1-1c0,0.1-0.1,0.2-0.1,0.3c0-0.3-0.1-0.3,0-0.7
					c-0.4,0.1-0.8,0.2-1.2,0.4c-0.2-0.2-0.1-0.2-0.5-0.3c0-0.1,0-0.3,0.1-0.5c-0.1,0.1-0.2,0.2-0.3,0.2c0-0.1-0.1-0.2-0.2-0.3
					c0,0-0.5,0-0.5,0c0-0.1-0.1-0.2-0.1-0.3c-0.1,0.3-0.6,0.5-0.8,0.1c-0.4,0.1-0.8,0.2-1.1,0.2c0-0.2-0.2-0.3-0.2-0.5
					c-0.1,0.1-0.4,0.1-0.5,0.2c0-0.2-0.1-0.3,0-0.5c-0.1,0.1-0.3,0.1-0.4,0.2c-0.1-0.1-0.3-0.2-0.3-0.3c0,0.1-0.1,0.2-0.1,0.2
					c-0.1,0-0.1-0.2-0.2-0.1c-0.4,0.4-0.6-0.2-1.1-0.1c0,0.1,0,0.2,0,0.2c0,0-0.1,0-0.1,0c0-0.1-0.1-0.2-0.2-0.3c0,0.1,0,0.1,0,0.2
					c-0.4-0.1-0.8,0-1.2,0c0-0.1,0.1-0.2,0.1-0.2c-0.4,0-0.8,0.1-1.2,0.2c-0.2-0.7-1.4-0.4-2-0.4c0,0.1,0,0.1,0,0.2
					c-0.4-0.2-0.9,0-1.3-0.1c0-0.1,0-0.2,0-0.3c-0.2-0.1-0.6-0.1-0.8,0c0,0.1,0,0.1,0.1,0.2c-0.1,0.1-0.3,0.1-0.4,0.1
					c0-0.1,0.1-0.1,0-0.2c-0.1-0.1-0.3,0-0.4-0.1c0,0,0.1-0.1,0.1-0.1c-0.1,0.1-0.2,0.1-0.2,0.2c-0.1-0.1-0.3-0.1-0.5-0.2
					c0.2,0.3,0,0,0,0.3c-0.3-0.2-0.7,0-0.9-0.4c-0.3,0.1-0.6,0-0.7,0c0,0-0.1,0.1-0.2,0.1c0-0.1-0.2-0.2-0.3-0.3
					c0,0,0.1,0.1,0.1,0.1c-0.1,0-0.4,0-0.4,0.1c-0.2-0.4-1.6-0.5-2-0.5c0-0.1,0-0.1,0-0.2c0,0.1-0.1,0.2-0.2,0.3
					c-0.1-0.1-0.1-0.1-0.1-0.2c-0.2,0-0.6-0.3-0.9-0.4c0.2,1-2.1,0.2-2.6,0.2c0,0,0-0.2-0.1-0.2c-0.1,0.1-0.2,0.2-0.3,0.3
					c0-0.1,0-0.2,0-0.3c-0.2,0.3-0.4,0.3-0.7,0.3c0,0,0.2-0.1,0.2-0.1c-0.7,0.2-1.6,0.4-2.3,0.2c0-0.1,0.1-0.1,0.1-0.2
					c-0.1,0-0.2,0-0.3,0c0-0.1,0-0.1,0-0.2c-0.2,0-0.5-0.1-0.7-0.1c0,0.1-0.1,0.1-0.1,0.2c-0.3-0.1-0.6-0.1-1,0c0,0,0.1-0.1,0.1-0.1
					c-0.1,0-0.3,0.1-0.4,0.2c0,0,0-0.1,0-0.1c-0.6,0.2-0.9,0-1.6,0c0,0.1,0.1,0.1,0.1,0.2c-0.3,0-0.3,0-0.4-0.2c0,0-0.2,0-0.2,0
					c0-0.1,0.1-0.1,0.1-0.2c-0.4,0.7-2.1,0-2.6-0.4c-1,0.6-2.6-0.2-3.6-0.2c-0.5,0-0.9,0.3-1.4,0.3c-0.7,0-1.2,0-1.9,0
					c-1.1,0.1-2.2,0.3-3.3,0c-0.4-0.1-0.8-0.4-1.1-0.5c-0.2,0-0.6,0.2-0.8,0.2c-0.3,0-0.6-0.1-0.9-0.2c-0.8-0.1-1.5,0.2-2.3,0.3
					c-0.9,0.2-1.4-0.2-2.1-0.2c0,0.1,0,0.1,0.1,0.2c-0.3-0.1-0.7-0.1-0.9,0.1c0-0.1-0.1-0.2-0.2-0.3c-0.2,0.1-0.4,0.2-0.6,0.4
					c-0.3-0.3-0.8-0.3-1.2-0.3c0,0.4,0,0.2-0.3,0.4c0-0.2-0.1-0.3-0.2-0.5c0,0.4-0.2,0.5-0.6,0.4c-0.1-0.4-0.8-0.5-1,0
					c0-0.1-0.1-0.2-0.1-0.3c-0.5,0-1.5,0.2-1.9-0.2c-0.1,0.2-0.2,0.3-0.3,0.4c0-0.1-0.2-0.3-0.2-0.4c0,0.2-0.1,0.3-0.2,0.4
					c-1.2-0.3-2.4-0.4-3.7-0.5c-1.1-0.1-2,0.3-3,0c0.1,0.1,0.3,0.2,0.4,0.2c-0.5,0.3-1-0.1-1.5-0.1c-0.5-0.1-1.1,0.1-1.6,0.1
					c-1-0.1-1.2-0.1-2.3,0.3c-0.3-0.2-0.2-0.3-0.5,0c-0.1-0.1-0.3-0.2-0.4-0.3c-0.1,0.1-0.2,0.1-0.3,0.2c-0.5-0.7-2.3-0.5-3.1-0.5
					c-0.6,0-2.4,0.5-2.7,0.1c-0.4,0.4-1.9,0.5-2,0C320,8.3,319.2,8,318.7,8c-3.3-0.2-6.7-0.3-10-0.1c-2.4,0.1-5.6,0.2-7.5,1.7
					c-0.1,0.2-0.5,0.4-0.3,0.7c-0.3,0.1-0.4-0.3-0.4-0.1c0.4,0.2-0.1,0.6,0.2,1l-0.2,0.1c0,0.2,0.3-0.2,0.2,0.1l0.1-0.5
					c0.2,0.1,0.3,0.2,0.3,0.3c0.2-0.2,0.3-0.8,0.7-0.5l-0.1,0c0.3,0,0.2,0.3,0.3,0.4l-0.1,0l0.3,0.2c-0.2-0.2-0.6,0.2-0.4,0.2
					c0.4,0.1-0.1-0.1,0.2-0.2c0.2,0,0.1,0.2,0.1,0.4l0.3,0c0,0.2-0.2,0-0.1,0.2l0.4-0.2c0.1,0.5,0.4-0.3,0.6,0.3
					c-0.3,0.1,0,0.2,0,0.4l0.7,0c0.1,0.1-0.2,0.2-0.1,0.1c0.1,0.2,0.2-0.1,0.3-0.1c0.1,0.1,0.5,0,0.5,0.4c0.5,0.2,0.2-0.5,0.7-0.3
					c0.1,0.2-0.4,0.1-0.2,0.3l0.5-0.1c0,0.1-0.1,0.4-0.3,0.3c1.3,0.3,2,1.5,3.2,1.2c0.2,0.3-0.1,0.2-0.2,0.4
					c0.3-0.5,1.6,0.5,1.9,0.5c0-0.1,0-0.1,0.1-0.2c1,0.6,2.2,0.3,3.3,0.5c0-0.1-0.1-0.1-0.1-0.2c0.1-0.1,0.4-0.3,0.6-0.3
					c0,0.2,0.1,0.3,0.2,0.4c0-0.1-0.1-0.1-0.1-0.2c0.2,0.8,4.5,0.6,5.2,0.7c2,0.1,4.1,0.4,6.1,0.1c0-0.2,0-0.2,0.1-0.4
					c1.1,0.9,4.2,0.6,5.4,0.3c0.4-0.1,1.4,0.5,1.7-0.1c1,0.1,2,0,3,0c0.9,0,3.5,0.8,4-0.1c0.3,0.2,0.6,0.2,0.9,0.2
					c-0.1,0-0.2,0-0.2-0.1c0,0,0-0.2,0-0.2c0.1-0.1,0.3-0.1,0.5-0.1c0.3,1.2,2.2-0.2,3,0.5c0-0.3,0.2-0.4,0.4-0.6
					c0.2,1.4,2.8-0.2,3.1,0.5c0.3-0.1,0.2,0,0.5,0c-0.1,0.1-0.2,0.2-0.3,0.2c0.3-0.2,0.6-0.3,0.9-0.1c0-0.1,0-0.1,0-0.2
					C348.5,15.6,349.8,15.9,350.6,16z"/>
				<path d="M373.6,14.7l-0.2,0c0,0.1,0,0.1-0.1,0.2L373.6,14.7z"/>
				<path d="M365.3,14.5C365.3,14.5,365.3,14.5,365.3,14.5C365.3,14.6,365.3,14.5,365.3,14.5z"/>
				<path d="M363.3,15c0.1-0.1,0-0.1-0.1-0.2C363.2,14.9,363.3,14.9,363.3,15z"/>
				<path d="M378.3,13.9c0,0,0,0.1,0,0.1C378.3,14,378.3,14,378.3,13.9z"/>
				<path d="M391.2,14.1C391.2,14.1,391.2,14.1,391.2,14.1C391.2,14.1,391.2,14.1,391.2,14.1z"/>
				<path d="M390.5,13.7c0,0-0.1,0-0.1,0C390.4,13.7,390.5,13.7,390.5,13.7z"/>
				<path d="M375.1,14c0,0-0.1,0-0.1,0.1C375.1,14.1,375.1,14.1,375.1,14z"/>
				<path d="M390.2,13.8l-0.2,0c0,0,0,0,0,0.1L390.2,13.8z"/>
				<path d="M391.4,14.2c-0.1,0-0.2,0-0.2,0C391.3,14.2,391.4,14.2,391.4,14.2z"/>
				<path d="M383,13.6C383,13.6,383,13.6,383,13.6C382.9,13.7,383,13.6,383,13.6z"/>
				<path d="M389.4,14.3C389.4,14.3,389.4,14.3,389.4,14.3L389.4,14.3L389.4,14.3z"/>
				<path d="M392.2,14.3C392.2,14.3,392.2,14.3,392.2,14.3C392.2,14.3,392.2,14.4,392.2,14.3C392.2,14.3,392.2,14.3,392.2,14.3z"/>
				<path d="M385.7,14c0.1-0.1,0.1-0.2,0.1-0.2C385.7,13.8,385.7,13.8,385.7,14z"/>
			</g>
		</g>
	</g>
</g>
</svg>
