<?xml version="1.0" encoding="utf-8"?>
<!-- Generator: Adobe Illustrator 16.0.0, SVG Export Plug-In . SVG Version: 6.00 Build 0)  -->
<!DOCTYPE svg PUBLIC "-//W3C//DTD SVG 1.1//EN" "http://www.w3.org/Graphics/SVG/1.1/DTD/svg11.dtd">
<svg version="1.1" id="Layer_1" xmlns="http://www.w3.org/2000/svg" xmlns:xlink="http://www.w3.org/1999/xlink" x="0px" y="0px"
	 width="500px" height="500px" viewBox="0 0 500 500" enable-background="new 0 0 500 500" xml:space="preserve">
<g>
	<g>
		<g>
			<g>
				<path d="M161.911,275.412l-0.388,0.019C161.698,275.431,161.812,275.453,161.911,275.412z"/>
				<path d="M218,273.651l-0.103,0.162C217.998,273.756,218.013,273.701,218,273.651z"/>
				<path d="M228.978,258.876l0.328-0.041C229.147,258.84,229.05,258.855,228.978,258.876z"/>
				<g>
					<path d="M206.186,259.405c-5.132,0.168-10.26,0.447-15.372,0.843c-5.111,0.408-10.218,0.762-15.291,1.328
						c-5.229,0.605-10.441,1.209-15.669,1.813c-5.232,0.586-10.495,0.942-15.817,1.091c-5.637,0.113-11.249,0.226-16.858,0.339
						c-5.611,0.079-11.221,0.164-16.852,0.427c-5.673,0.273-11.232,0.325-16.852,0.394c-5.636,0.114-11.29,0.097-17.005,0.167
						c-5.484,0.149-10.941,0.626-16.395,1.058c-5.422,0.395-10.85,0.742-16.296,0.674c-2.906-0.054-5.765-0.365-8.646-0.525
						c-1.411-0.09-8.561,0.742-9.976,1.139c-0.645,0.181,3.531,1.142,4.701,1.396c3.822,0.83,9.747,1.933,12.816,2.277
						c6.19,0.477,9.083,0.683,15.433,0.699c6.551,0.004,12.985-0.08,19.418-0.03c6.411,0.198,12.76,0.478,19.185,1.085
						c10.457,1.063,21.456,0.437,32.059,0.888c5.747,0.246,11.487,0.491,17.234,0.737c5.75,0.223,11.51,0.418,17.291,0.203
						c12.298-0.411,24.585,0.223,36.887-0.516c6.06-0.353,12.115-0.705,18.171-1.057c6.067-0.434,12.145-0.928,18.229-1.296
						c7.127-0.578,14.256-1.156,21.38-1.734c18.003-1.761,35.86-5.154,53.516-9.558c3.979-1.064,7.955-2.039,11.934-2.979
						c1.987-0.514,3.969-1.119,5.956-1.669l2.976-0.854l2.934-0.954c7.859-2.479,15.489-5.552,22.881-9.295
						c7.839-3.949,18.243-9.488,23.153-15.578c1.202-1.472,1.06-2.868,0.519-3.878c0.873,1.654-9.277,2.693-9.972,2.81
						c-2.091,0.463-4.195,1.12-6.308,1.812c-2.123,0.668-4.246,1.385-6.35,2.016c-8.191,2.35-15.722,3.703-23.966,6.502
						c-2.165,0.705-4.328,1.409-6.49,2.112c-1.073,0.372-2.155,0.701-3.242,1.008l-3.245,0.965
						c-1.089,0.311-2.139,0.686-3.254,0.952l-3.318,0.847l-6.62,1.736l-3.305,0.886l-1.651,0.446l-1.678,0.363l-6.715,1.457
						c-2.238,0.491-4.479,0.981-6.721,1.473c-2.251,0.458-4.536,0.795-6.808,1.195l-5.8,0.989c-1.938,0.313-3.854,0.717-5.813,0.94
						l-11.699,1.57l-2.926,0.389l-2.942,0.281l-5.887,0.554l-5.889,0.536c-1.964,0.173-3.922,0.366-5.909,0.451
						c-4.736,0.26-9.558,0.462-14.417,0.662C216.043,259.182,211.1,259.228,206.186,259.405z"/>
				</g>
			</g>
		</g>
	</g>
	<g>
		<g>
			<g>
				<path d="M209.187,309.15l-0.515,0.035C208.904,309.178,209.056,309.195,209.187,309.15z"/>
				<path d="M283.592,300.892l-0.116,0.183C283.602,300.996,283.615,300.938,283.592,300.892z"/>
				<path d="M296.159,284.023l0.419-0.118C296.374,283.947,296.25,283.986,296.159,284.023z"/>
				<g>
					<path d="M266.639,288.791c-3.332,0.462-6.658,0.952-9.98,1.472l-2.49,0.39l-2.507,0.313l-5.006,0.657
						c-3.334,0.452-6.663,0.934-9.984,1.444c-1.657,0.277-3.327,0.477-4.993,0.693c-1.666,0.226-3.329,0.451-4.991,0.676
						c-3.425,0.5-6.844,0.999-10.262,1.497c-3.424,0.49-6.867,0.87-10.31,1.291c-3.446,0.405-6.901,0.79-10.374,1.128
						c-3.479,0.287-6.976,0.504-10.494,0.663c-3.727,0.155-7.441,0.33-11.16,0.443c-3.72,0.104-7.437,0.209-11.151,0.313
						c-7.425,0.246-14.87,0.444-22.331,0.83c-7.505,0.385-14.925,0.596-22.336,0.727c-7.423,0.171-14.849,0.342-22.388,0.515
						c-7.271,0.153-14.51,0.633-21.744,1.067c-7.231,0.473-14.444,1.084-21.702,1.178c-3.874,0.061-7.725,0.025-11.594,0.053
						c-1.904,0.013-11.417,1.359-13.256,1.854c-0.837,0.226,4.82,0.885,6.39,1.054c5.154,0.556,13.038,1.229,17.088,1.361
						c8.199,0.268,12.016,0.376,20.396,0.179c8.656-0.037,17.198-0.098,25.713-0.06c4.257,0.021,8.508,0.067,12.763,0.159
						c2.128,0.05,4.254,0.093,6.387,0.184c2.134,0.117,4.271,0.234,6.413,0.353c6.923,0.427,14.013,0.414,21.141,0.327
						c7.123-0.077,14.269-0.242,21.303-0.163l11.423,0.197c3.814,0.028,7.629,0.056,11.446,0.083
						c7.632,0.095,15.297-0.165,22.976-0.587c8.185-0.482,16.356-0.965,24.527-1.446c4.088-0.322,8.177-0.701,12.266-1.081
						c4.087-0.41,8.184-0.729,12.252-1.424c8.026-1.278,16.067-2.381,24.009-4.13l11.941-2.408c3.955-0.937,7.912-1.873,11.87-2.811
						l6.938-1.607l6.874-1.88l6.88-1.86l3.442-0.922l1.721-0.464l1.7-0.535c5.727-1.806,11.449-3.64,17.146-5.52
						c5.577-2.084,11.153-4.166,16.728-6.248c5.565-2.128,11.147-4.079,16.678-6.522l4.157-1.749
						c1.386-0.583,2.778-1.149,4.136-1.804l8.203-3.788c2.496-1.091,4.895-2.381,7.338-3.561c2.429-1.209,4.881-2.357,7.294-3.581
						c2.391-1.276,4.777-2.551,7.162-3.823l3.584-1.908c1.183-0.658,2.334-1.374,3.503-2.06c2.327-1.394,4.654-2.789,6.985-4.186
						c1.179-0.679,2.291-1.466,3.42-2.23l3.378-2.316l3.369-2.346c1.125-0.783,2.249-1.57,3.309-2.451
						c2.154-1.716,4.298-3.458,6.429-5.231c1.111-0.96,2.347-1.867,3.479-2.975c1.154-1.078,2.341-2.188,3.547-3.313
						c1.191-1.138,2.401-2.294,3.615-3.453c1.206-1.156,2.388-2.34,3.587-3.715c2.373-2.695,4.751-5.886,6.163-9.596
						c1.468-3.655,1.693-7.669,0.926-10.661c-0.201-0.729-0.432-1.318-0.703-1.775c-0.294-0.452-0.602-0.784-0.911-1.02
						c-0.619-0.472-1.246-0.563-1.813-0.477c0.451-0.075,0.706,0.768,0.692,2.083c-0.021,1.316-0.422,3.086-1.142,4.697
						c-0.711,1.625-1.789,3.029-2.688,4.01c-0.448,0.497-0.861,0.893-1.19,1.181c-0.317,0.29-0.536,0.489-0.62,0.566
						c-1.929,1.901-4.092,3.635-6.395,5.36c-2.335,1.708-4.781,3.393-7.145,5.012c-4.518,3.223-9.268,5.642-13.797,8.376
						l-1.712,1.014c-0.589,0.316-1.18,0.633-1.773,0.951c-1.181,0.641-2.361,1.295-3.545,1.972s-2.37,1.375-3.562,2.102
						c-0.593,0.368-1.189,0.738-1.793,1.112c-0.615,0.356-1.236,0.715-1.863,1.077c-2.607,1.544-5.213,3.086-7.815,4.627
						c-1.278,0.805-2.637,1.484-3.961,2.215l-3.982,2.172l-3.969,2.188c-1.338,0.703-2.705,1.357-4.053,2.041
						c-2.711,1.344-5.391,2.744-8.112,4.067c-10.972,5.173-22.081,9.911-33.783,14.095l-14.755,5.525
						c-1.227,0.481-2.46,0.902-3.695,1.302l-3.702,1.233l-7.405,2.467c-4.903,1.747-9.958,3.03-14.967,4.459l-7.527,2.097
						c-2.522,0.649-5.077,1.183-7.616,1.772c-3.043,0.677-6.112,1.358-9.201,2.044l-2.321,0.507l-2.35,0.416
						c-1.568,0.271-3.142,0.542-4.719,0.813c-3.151,0.545-6.315,1.092-9.485,1.641l-2.376,0.415l-2.396,0.322L266.639,288.791z"/>
				</g>
			</g>
		</g>
	</g>
	<g>
		<g>
			<g>
				<path d="M209.33,217.239l-0.447,0.006C209.084,217.251,209.215,217.277,209.33,217.239z"/>
				<path d="M275.148,214.815l-0.123,0.163C275.145,214.92,275.163,214.864,275.148,214.815z"/>
				<path d="M288.431,200.143l0.389-0.037C288.633,200.109,288.518,200.124,288.431,200.143z"/>
				<g>
					<path d="M261.492,200.671c-3.058,0.117-6.115,0.262-9.168,0.436c-3.055,0.157-6.093,0.483-9.131,0.762
						c-3.037,0.296-6.066,0.622-9.086,0.976c-2.865,0.309-5.725,0.617-8.578,0.925c-1.432,0.203-3.001,0.242-4.499,0.374
						l-4.546,0.344c-3.119,0.223-6.238,0.447-9.362,0.67c-3.193,0.331-6.432,0.66-9.588,0.939c-3.042,0.286-6.102,0.527-9.184,0.698
						c-1.632,0.087-3.262,0.174-4.891,0.261l-2.443,0.126l-2.459,0.029c-3.281,0.032-6.557,0.063-9.833,0.095l-4.915,0.071
						l-4.947,0.024c-3.3,0.024-6.604,0.074-9.914,0.163c-6.665,0.185-13.288,0.298-19.879,0.277
						c-3.264-0.012-6.529-0.023-9.806-0.035c-3.285-0.072-6.583-0.144-9.906-0.217c-12.842-0.344-25.697,0.52-38.664,0.485
						c-1.731-0.042-3.461-0.036-5.194-0.018c-1.734,0.012-3.467,0.023-5.205,0.034c-0.427,0.012-1.281,0.08-2.345,0.251
						c-1.064,0.186-2.339,0.43-3.608,0.69c-2.539,0.519-5.054,1.098-5.86,1.383c-0.728,0.26,4.378,0.68,5.777,0.785
						c1.15,0.077,2.454,0.163,3.818,0.253c1.361,0.096,2.784,0.262,4.17,0.375c2.774,0.258,5.408,0.412,7.2,0.528
						c3.627,0.243,6.276,0.417,8.945,0.534c2.673,0.172,5.366,0.302,9.067,0.402c7.65,0.275,15.21,0.611,22.77,1.031
						c3.788,0.22,7.57,0.438,11.356,0.658c3.798,0.222,7.617,0.487,11.373,0.838c6.11,0.568,12.323,0.644,18.658,0.779
						c6.314,0.109,12.634,0.175,18.917,0.367l10.182,0.431l10.276,0.037c3.381-0.023,6.764-0.046,10.152-0.069l4.824-0.083
						c0.794-0.033,1.616-0.034,2.456-0.017l2.499,0.012l5.334,0.038l5.489,0.093l2.745,0.063l2.831-0.051l5.673-0.105
						c3.649-0.122,7.152-0.298,10.733-0.476c3.563-0.167,7.122-0.446,10.686-0.605c13.975-0.801,28.253-1.721,42.474-2.328
						c4.155-0.138,8.307-0.423,12.46-0.655l12.459-0.662c10.496-0.521,20.972-1.205,31.44-1.916l3.926-0.268l3.914-0.356
						l7.828-0.716l15.659-1.376c9.446-0.791,18.792-1.219,28.148-1.722c4.713-0.364,9.442-0.784,14.181-1.259
						c2.368-0.253,4.747-0.469,7.117-0.812c2.367-0.374,4.738-0.773,7.113-1.206c2.515-0.458,5.25-0.957,8.071-1.471
						c1.409-0.269,2.835-0.537,4.267-0.846c1.442-0.334,2.884-0.684,4.217-1.036c4.962-1.341,9.745-2.634,13.465-3.64
						c1.767-0.415,2.661-1.587,2.929-2.698c-0.249,0.948-2.545-0.143-5.305-1.016c-2.737-0.83-5.864-1.549-6.276-1.576
						c-2.511-0.266-5.154-0.209-7.768-0.087c-2.598,0.138-5.22,0.229-7.803,0.236c-4.992,0.029-9.724-0.1-14.491-0.092
						c-4.783-0.096-9.622-0.19-14.805,0.208c-5.401,0.462-10.912,0.737-16.389,1.113c-5.478,0.374-10.944,0.796-16.411,1.247
						c-5.464,0.472-10.93,0.944-16.402,1.417c-2.736,0.245-5.474,0.489-8.214,0.734l-4.112,0.364l-4.119,0.267
						c-9.342,0.629-18.68,1.258-28.018,1.887l-14.009,0.937c-4.672,0.293-9.34,0.638-14.024,0.764
						c-5.598,0.204-11.295,0.349-17.038,0.491C273.157,200.303,267.386,200.436,261.492,200.671z"/>
				</g>
			</g>
		</g>
	</g>
	<g>
		<g>
			<g>
				<path d="M185.671,254.61l-0.314,0.014C185.498,254.626,185.591,254.649,185.671,254.61z"/>
				<path d="M231.604,252.743l-0.08,0.162C231.605,252.848,231.616,252.792,231.604,252.743z"/>
				<path d="M240.226,238.002l0.269-0.041C240.364,237.966,240.285,237.982,240.226,238.002z"/>
				<g>
					<path d="M221.611,238.591c-4.172,0.182-8.349,0.571-12.49,0.903c-4.14,0.313-8.267,0.743-12.376,1.293
						c-8.424,1.184-16.995,2.587-25.701,2.9c-9.228,0.313-18.352,0.47-27.532,1.151c-9.223,0.643-18.207,0.72-27.424,0.451
						c-4.456-0.1-8.864,0.16-13.345,0.316c-2.24,0.078-4.478,0.145-6.716,0.153c-2.239,0.011-4.487,0.058-6.734-0.051
						c-2.401-0.106-4.789-0.305-7.192-0.444c-1.188-0.083-7.058,0.999-8.195,1.43c-0.516,0.2,2.973,1.031,3.94,1.248
						c3.178,0.675,8.032,1.729,10.515,2.025c2.517,0.31,4.356,0.532,6.211,0.698c1.855,0.195,3.728,0.365,6.3,0.507
						c5.296,0.324,10.607,0.502,15.862,0.844c2.633,0.163,5.263,0.354,7.898,0.59c2.634,0.223,5.266,0.426,7.913,0.729
						c4.279,0.475,8.666,0.511,13.063,0.476c4.391-0.059,8.787-0.211,13.113-0.052c9.383,0.327,18.688,1.098,28.073,0.858
						c5.025-0.168,10.088-0.167,15.133-0.146c5.049,0.009,10.116,0.068,15.128-0.359c4.95-0.396,9.896-0.794,14.842-1.19
						c4.955-0.375,9.853-0.913,14.794-1.268c5.752-0.444,11.539-0.817,17.272-1.155c3.628-0.21,7.251-0.461,10.871-0.736
						c3.64-0.288,7.19-0.542,10.908-0.917c7.373-0.651,14.725-1.55,22.054-2.56c13.238-1.817,26.324-2.876,39.233-6.404
						c3.416-0.925,7.422-2.006,11.219-3.356c3.779-1.38,7.321-3.083,9.809-5.251c1.207-1.056,1.313-2.421,1.033-3.532
						c0.451,1.824-7.972-0.088-8.551-0.131c-3.537-0.234-7.271,0.146-10.895,0.24c-3.507,0.107-6.865-0.018-10.232-0.01
						c-1.684,0.006-3.37,0.046-5.082,0.157c-1.715,0.08-3.454,0.223-5.243,0.476c-14.988,2.124-29.655,4.551-44.672,5.791
						l-19.483,1.662c-6.526,0.559-13.005,1.076-19.506,1.52c-3.884,0.258-7.845,0.483-11.829,0.663
						C229.62,238.255,225.613,238.396,221.611,238.591z"/>
				</g>
			</g>
		</g>
	</g>
</g>
</svg>
