<?xml version="1.0" encoding="utf-8"?>
<!-- Generator: Adobe Illustrator 16.0.0, SVG Export Plug-In . SVG Version: 6.00 Build 0)  -->
<!DOCTYPE svg PUBLIC "-//W3C//DTD SVG 1.1//EN" "http://www.w3.org/Graphics/SVG/1.1/DTD/svg11.dtd">
<svg version="1.1" id="Layer_1" xmlns="http://www.w3.org/2000/svg" xmlns:xlink="http://www.w3.org/1999/xlink" x="0px" y="0px"
	 width="500px" height="500px" viewBox="0 0 500 500" enable-background="new 0 0 500 500" xml:space="preserve">
<g>
	<g>
		<g>
			<path fill="#FFFFFF" d="M164.974,385.723l0.301,0.039C165.143,385.724,165.068,385.645,164.974,385.723z"/>
			<path fill="#FFFFFF" d="M121.256,373.774l0.192-0.349C121.343,373.528,121.289,373.654,121.256,373.774z"/>
			<path fill="#FFFFFF" d="M97.332,401.499l-0.395-0.176C97.107,401.438,97.228,401.485,97.332,401.499z"/>
			<g>
				<path fill="#FFFFFF" d="M119.636,411.721c4.243,1.31,8.429,2.324,12.891,3.084c4.422,0.748,9.008,1.207,13.697,1.284
					c9.694,0.169,19.606-1.115,29.362-0.462c5.743,0.439,12.324,0.25,18.663-1.771c1.577-0.565,3.147-1.179,4.679-1.852
					c1.489-0.807,2.991-1.599,4.394-2.523c1.345-1.011,2.718-2.003,3.936-3.125c0.584-0.585,1.159-1.178,1.722-1.775l0.836-0.903
					c0.257-0.291,0.598-0.636,0.743-0.866c2.949-4.1,6.272-7.78,9.414-11.45c1.598-1.821,3.268-3.607,4.903-5.386
					c1.635-1.769,3.277-3.544,4.931-5.332c3.207-3.429,5.696-7.35,8.321-11.171c2.613-3.768,5.326-7.479,8.808-10.485
					c0.465-0.399,0.941-0.788,1.422-1.171l0.726-0.569l0.365-0.281l0.183-0.141l0.23-0.199l1.873-1.666l0.899-0.835l0.719-0.711
					c0.228-0.222,0.563-0.854,0.858-1.575c0.218-0.585,0.438-1.332,0.636-2.124c0.471-1.507,0.945-3.156,0.923-3.9
					c-0.008-0.332-0.932-0.354-2.032-0.224c-1.094,0.128-2.382,0.407-2.924,0.563c-0.853,0.277-1.819,0.632-2.835,1.048
					c-1.026,0.45-2.062,0.978-3.072,1.457c-0.998,0.434-1.973,0.857-2.861,1.244c-0.882,0.393-1.652,0.773-2.237,1.118
					c-4.74,2.797-6.938,4.147-10.96,7.846c-4.159,3.809-8.074,7.707-12.214,11.318c-2.063,1.801-4.165,3.586-6.365,5.237
					c-2.204,1.631-4.488,3.182-6.886,4.621c-1.932,1.182-3.73,2.409-5.387,3.837c-0.832,0.703-1.637,1.437-2.425,2.189l-1.163,1.131
					c-0.27,0.199-0.53,0.406-0.783,0.621c-1.995,1.719-4.208,2.982-6.926,3.01l-1.083-0.002c-0.371-0.023-0.771-0.102-1.146-0.145
					l-1.125-0.146l-1.186-0.283c-0.395-0.1-0.764-0.154-1.167-0.277l-1.211-0.383l-2.879-0.861
					c-1.067-0.314-2.132-0.615-3.196-0.896l-3.221-0.903c-1.079-0.291-2.153-0.532-3.245-0.783c-1.096-0.271-2.199-0.509-3.31-0.709
					c-9.5-1.721-18.598-6.375-28.715-8.871c-4.973-1.248-10.154-2.294-14.009-3.339c-1.986-0.524-3.525-1.053-4.838-1.645
					c-1.312-0.604-2.421-1.235-3.58-2.207c-1.348-1.117-2.792-2.643-4.259-4.433c-0.736-0.94-1.472-1.863-2.209-2.932
					c-0.375-0.54-0.717-0.979-1.116-1.602l-1.163-1.787c-7.999-11.88-16.339-23.509-22.946-36.206
					c-6.024-11.495-7.834-24.55-14.261-36.406c-0.848-1.583-1.732-3.323-2.727-5.085c-0.499-0.885-1.019-1.758-1.587-2.65
					c-0.706-1.224-1.369-2.17-1.986-2.906c-0.614-0.725-1.143-1.174-1.671-1.465c-0.528-0.292-0.98-0.273-1.549-0.266
					c-1.138-0.164-2.628-0.561-4.328-1.292c-1.669-0.691-4.606-1.488-7.356-1.886c2.256,0.376,0.478,1.405-1.443,3.347
					c-0.953,0.95-1.955,2.111-2.659,3.129c-0.712,1.013-1.188,1.874-1.248,2.051c-0.777,2.257-0.844,4.585-0.903,6.643l-0.053,1.501
					c-0.03,0.471-0.055,0.947-0.062,1.481c-0.025,1.033-0.058,2.069-0.134,3.112c-0.615,8.069-2.483,16.007-0.223,23.659
					c0.611,2.002,1.263,3.987,1.95,5.957c0.346,0.985,0.689,1.967,1.063,2.944l1.198,2.919c1.644,3.875,3.308,7.73,5.332,11.454
					l2.985,5.598l1.52,2.786c0.518,0.923,1.086,1.815,1.629,2.724c2.218,3.606,4.372,7.26,6.663,10.835
					c1.991,3.012,4.011,6.003,6.043,8.984c0.991,1.508,2.091,2.938,3.167,4.385l3.236,4.334l3.24,4.347
					c1.248,1.564,2.435,3.11,3.825,4.718c2.699,3.174,5.774,6.511,9.628,9.743c2.291,1.926,4.859,3.801,7.544,5.448
					c2.666,1.612,5.45,3.056,8.001,4.154C111.141,409.006,115.555,410.433,119.636,411.721z"/>
			</g>
		</g>
	</g>
</g>
<g>
	<g>
		<g>
			<path fill="#FFFFFF" d="M135.838,208.284l0.179-0.021C135.937,208.251,135.884,208.188,135.838,208.284z"/>
			<path fill="#FFFFFF" d="M110.888,206.644l0.087-0.387C110.917,206.384,110.896,206.52,110.888,206.644z"/>
			<path fill="#FFFFFF" d="M101.224,240.979l-0.181,0.029C101.125,241.031,101.179,241.016,101.224,240.979z"/>
			<g>
				<path fill="#FFFFFF" d="M113.032,243.837c2.656,0.308,5.33,0.309,7.995,0.019c2.628-0.357,5.266-0.988,7.845-1.958
					c2.632-1.037,5.258-2.319,7.827-3.435c2.56-1.128,5.14-2.007,7.7-2.222c5.599-0.433,10.42-0.274,15.805-1.502
					c5.35-1.261,10.632-0.818,16.155-0.441c2.688,0.154,5.33-0.448,8.037-1.083c1.344-0.302,2.684-0.577,4.027-0.708
					c1.352-0.149,2.727-0.203,4.116,0.03c1.491,0.235,2.971,0.765,4.532,0.986c0.78,0.125,4.242-2.437,4.784-3.513
					c0.246-0.487-2.177-2.586-2.809-3.14c-1.064-0.906-2.366-1.948-3.565-2.85c-1.2-0.896-2.32-1.753-3.062-2.115
					c-1.502-0.76-2.583-1.309-3.659-1.715c-1.077-0.413-2.167-0.737-3.645-0.976c-6.094-0.994-12.065-1.853-18.141-5.242
					c-2.469-1.373-5.003-1.658-7.634-1.743c-1.309-0.043-2.605-0.052-3.923-0.115c-1.334-0.051-2.664-0.173-3.987-0.479
					c-0.714-0.166-1.439-0.348-2.148-0.536l-2.029-0.571c-1.352-0.389-2.703-0.785-4.052-1.135
					c-2.683-0.714-5.334-1.255-7.993-1.188c-2.787,0.022-5.62-0.425-8.333-1.002c-1.367-0.274-2.73-0.542-4.094-0.735
					c-1.352-0.213-2.687-0.379-4.042-0.381l-7.948,0.053c-1.334,0.032-2.614-0.062-3.919-0.131
					c-1.296-0.088-2.605-0.177-3.883-0.373c-2.96-0.532-5.86-1.105-8.845-2.103c-7.443-2.348-14.933-3.521-21.72-6.35
					c-1.501-0.675-2.909-1.544-4.263-2.478c-1.313-0.99-2.522-2.107-3.762-3.13c-1.271-0.986-2.375-2.138-3.644-3.022
					c-0.627-0.453-1.277-0.864-1.963-1.222c-0.658-0.395-1.33-0.764-2.064-1.054c-0.775-0.312-1.601-0.684-2.51-0.997
					c-0.805-0.208-2.118-0.798-3.993-1.385c-0.528-0.175-1.07-0.334-1.607-0.468l-0.837-0.193c-0.32-0.072-0.64-0.137-0.958-0.193
					c-0.623-0.1-1.306-0.224-1.864-0.209c-0.557,0.015-1.109,0.058-1.652,0.131c-1.088,0.152-2.167,0.49-3.178,0.947
					c-1.025,0.527-1.982,1.106-2.872,1.958c-1.738,1.661-2.664,4.884-3.222,7.731c0.225-1.17,0.632-1.425,1.097-1.151
					c0.23,0.147,0.473,0.379,0.697,0.775c0.225,0.393,0.436,0.867,0.616,1.373c0.36,1.035,0.575,2.27,0.663,3.255
					c0.084,1.013,0.074,1.759,0.096,1.89c0.194,1.629,0.288,2.831,0.549,4.083c0.208,1.206,0.629,2.48,1.048,3.873
					c0.756,2.704,1.35,5.656,2.249,8.396c0.954,2.624,2.208,5.044,4.125,6.746c0.992,0.923,2.069,1.644,3.142,2.41
					c1.079,0.749,2.18,1.464,3.298,2.149c1.113,0.714,2.267,1.278,3.428,1.846c1.162,0.565,2.335,1.107,3.517,1.63
					c4.738,2.005,9.618,3.502,14.453,4.867c2.062,0.645,4.115,1.091,6.174,1.566c2.061,0.478,4.123,0.933,6.159,1.289
					c2.061,0.369,4.044,0.809,6.157,1.159c2.107,0.354,4.21,0.734,6.308,1.161c2.496,0.437,5.013,0.985,7.565,1.567
					C107.906,242.995,110.458,243.471,113.032,243.837z"/>
			</g>
		</g>
	</g>
</g>
<g>
	<g>
		<g>
			<path fill="#FFFFFF" d="M257.289,235.241l-0.149,0.051C257.211,235.29,257.269,235.343,257.289,235.241z"/>
			<path fill="#FFFFFF" d="M279.837,230.455l0.064,0.391C279.906,230.707,279.875,230.573,279.837,230.455z"/>
			<path fill="#FFFFFF" d="M274.31,195.292l0.103-0.085C274.353,195.213,274.324,195.245,274.31,195.292z"/>
			<g>
				<path fill="#FFFFFF" d="M265.898,195.988c-1.815,0.321-3.556,0.916-5.233,1.796c-0.842,0.438-1.655,0.959-2.479,1.531
					c-0.848,0.547-1.68,1.167-2.497,1.86c-1.684,1.429-3.323,3.128-5.033,4.616c-1.709,1.496-3.489,2.779-5.43,3.247
					c-2.055,0.522-4.128,0.902-6.181,1.403c-1.027,0.251-2.049,0.532-3.065,0.876c-1.016,0.343-2.027,0.668-3.029,1.135
					c-2.018,0.918-4.075,1.426-6.155,1.725c-1.04,0.149-2.086,0.247-3.139,0.318c-1.053,0.052-2.112,0.017-3.178,0.014
					c-2.053-0.022-4.035,0.774-6.046,1.461c-1.004,0.343-2.015,0.659-3.034,0.831c-0.471,0.08-1.136,0.155-1.711,0.166
					c-0.597,0.014-1.197-0.022-1.808-0.123c-1.274-0.218-2.735-0.672-3.805-0.945c-0.562-0.14-3.041,2.349-3.469,3.418
					c-0.195,0.484,1.681,2.625,2.206,3.185c1.699,1.833,4.353,4.203,5.549,4.963c1.234,0.74,2.1,1.275,2.953,1.667
					c0.883,0.398,1.838,0.666,3.1,0.854c5.254,0.758,10.389,1.282,15.922,3.814c4.518,2.116,8.75-0.058,13.13,0.396
					c4.778,0.568,9.843,2.149,14.385,1.003c2.425-0.575,4.957-0.61,7.499-0.667c2.547-0.085,5.156-0.35,7.603-1.102
					c2.413-0.766,4.796-1.652,7.152-2.543c2.306-0.968,4.613-1.901,6.987-2.627c2.758-0.862,5.624-1.518,8.383-2.21
					c3.528-0.829,6.927-2.046,10.295-3.33c3.289-1.338,6.544-2.747,9.897-3.902c0.759-0.261,1.534-0.469,2.322-0.642
					c0.787-0.172,1.503-0.279,2.271-0.381c1.477-0.185,3.142-0.337,4.734-0.515c3.309-0.428,6.707-1.05,9.95-3.208
					c0.422-0.274,0.861-0.56,1.314-0.854c0.468-0.319,0.944-0.653,1.417-1.012c0.948-0.729,1.86-1.501,2.687-2.586
					c0.814-1.061,1.486-2.271,1.888-3.758c0.404-1.522,0.525-3.269,0.23-5.292c-0.286-1.97-1.893-4.792-3.474-7.179
					c1.305,1.955-0.277,1.445-2.127,0.339c-1.859-1.094-3.943-2.821-4.175-2.975c-1.369-0.833-2.539-1.329-3.639-1.736
					c-1.097-0.408-2.183-0.778-3.271-1.293c-2.092-0.995-4.287-2.421-6.23-3.522c-2.05-1.124-3.851-1.968-5.612-1.885
					c-1.766,0.079-3.627,0.356-5.419,0.75c-0.938,0.213-1.863,0.457-2.781,0.722c-0.925,0.27-1.727,0.511-2.584,0.797
					c-3.372,1.116-6.646,2.506-9.982,3.76c-5.609,1.915-11.09,4.55-16.748,5.885C273.047,195.088,269.369,195.462,265.898,195.988z"
					/>
			</g>
		</g>
	</g>
</g>
<g>
	<g>
		<g>
			<path fill="#FFFFFF" d="M254.093,350.85c0,0-0.334,0.17-0.331,0.162C253.913,350.971,254.042,350.975,254.093,350.85z"/>
			<path fill="#FFFFFF" d="M288.203,316.808l0.263,0.31C288.411,316.966,288.31,316.873,288.203,316.808z"/>
			<path fill="#FFFFFF" d="M263.478,290.37l0.064-0.213C263.479,290.24,263.466,290.308,263.478,290.37z"/>
			<g>
				<path fill="#FFFFFF" d="M253.374,302.225c-2.329,3.224-4.059,6.137-5.414,8.709c-1.343,2.545-2.269,4.664-2.897,6.579
					c-0.321,0.896-0.587,1.916-0.906,2.724l-0.123,0.343c-0.065,0.122-0.206,0.257-0.306,0.387l-0.67,0.795
					c-0.448,0.538-0.906,1.094-1.517,1.586c-0.58,0.505-1.155,1.017-1.786,1.5c-0.678,0.46-1.371,0.906-2.08,1.328
					c-0.684,0.434-1.503,0.792-2.286,1.137c-0.799,0.339-1.58,0.655-2.467,0.9c-3.594,1.074-7.576,1.922-11.697,3.085l-1.559,0.446
					l-1.459,0.438c-0.9,0.28-1.799,0.573-2.695,0.882c-1.775,0.559-3.552,1.233-5.292,1.86c-3.524,1.359-7.077,2.057-10.589,2.275
					c-1.764,0.151-3.497,0.077-5.234,0.009c-0.865-0.052-1.715-0.178-2.574-0.265c-0.962-0.105-1.926-0.212-2.895-0.318
					c-4.07-0.437-8.236-0.083-12.27,0.226c-3.934,0.389-7.863,0.665-11.754-0.104c-1.031-0.21-1.874-0.508-2.802-0.796
					c-0.472-0.136-0.869-0.313-1.265-0.481l-1.19-0.479c-0.447-0.108-1.515,0.104-2.796,0.522c-1.18,0.334-2.458,0.707-3.026,1.079
					c-0.248,0.162-0.062,0.948,0.32,1.834c0.378,0.873,0.95,1.885,1.247,2.266c0.956,1.219,2.361,2.789,3.933,3.946
					c1.551,1.262,3.151,2.17,4.25,2.677c4.375,1.885,6.394,2.701,10.917,3.442c2.362,0.354,4.577,0.814,6.823,1.238
					c2.236,0.434,4.453,0.887,6.65,1.402l3.643,0.863l1.918,0.479l1.926,0.411c2.62,0.586,5.244,1.173,7.88,1.763
					c4.343,0.985,8.682,0.53,12.858-0.214c2.05-0.422,4.135-0.852,6.13-1.309l1.515-0.313c0.508-0.1,1.029-0.196,1.44-0.256
					c0.879-0.133,1.761-0.234,2.647-0.291c3.959-0.229,8.239-0.196,12.808-0.58c4.573-0.396,9.567-1.31,14.61-3.584l2.031-0.938
					l1.02-0.461c0.352-0.164,0.785-0.406,1.174-0.608c0.791-0.427,1.614-0.843,2.373-1.295l2.24-1.387
					c2.879-1.9,5.474-3.948,7.738-6.021c2.229-2.064,4.221-4.155,5.938-6.208c1.691-2.036,3.185-4.065,4.411-6.025
					c1.2-1.912,2.294-3.767,3.275-5.404l0.722-1.193c0.24-0.401,0.474-0.784,0.693-1.126l1.819-2.845l2.136-3.343l1.882-3.258
					l0.949-1.62l0.854-1.555l1.748-3.084c2.602-4.629,5.081-8.849,7.612-12.467c0.805-1.067,1.578-2.13,2.329-3.216
					c0.764-0.994,1.512-1.914,2.229-2.9l3.087-4.077c1.068-1.413,2.113-2.835,3.065-4.278l2.918-4.319l2.748-4.333l1.377-2.16
					l1.316-2.151l2.674-4.272c1.257-2.043,2.631-4.002,4.061-5.92c1.392-1.898,2.843-3.754,4.298-5.61
					c1.43-1.828,2.857-3.647,4.235-5.506c0.684-0.918,1.348-1.829,1.995-2.762l0.952-1.407l0.464-0.712l0.228-0.359l0.435-0.723
					c0.516-1.011,1.068-2.007,1.557-3.037c0.494-1.026,0.854-2.117,1.238-3.192c0.178-0.538,0.325-1.072,0.478-1.613l0.175-0.666
					l0.08-0.321c0.03-0.118,0.052-0.211,0.061-0.263l0.078-0.398c0.02-0.111,0.066-0.329,0.046-0.296
					c-0.013-0.04-0.032-0.099-0.063-0.099c-0.104-0.049-0.215-0.125-0.293-0.208c-0.129-0.112-0.218-0.227-0.362-0.43
					c0.232-0.371,0.445-0.7,0.681-1.113c0.244-0.444,0.482-0.891,0.711-1.341c0.465-0.896,0.885-1.807,1.216-2.752
					c0.716-1.86,1.146-3.787,1.344-5.655c0.384-3.757-0.458-7.321-2.377-10.095c-1.492-2.094-4.652-2.942-7.488-3.317
					c2.311,0.272,0.805,2.228-1.561,3.606c-1.154,0.7-2.542,1.236-3.603,1.584c-1.113,0.335-1.929,0.498-2.076,0.559
					c-2.714,1.085-4.674,1.996-6.84,2.685c-1.04,0.553-2.008,1.205-3.08,1.838c-1.271,0.819-2.448,1.784-3.549,2.853
					c-0.574,0.526-1.088,1.096-1.617,1.682c-0.527,0.566-1.057,1.247-1.516,1.715l-0.653,0.572c-0.197,0.106-0.397,0.23-0.585,0.315
					c-0.35,0.097-0.688,0.172-1.031,0.205c-0.642,0.094-1.305,0.088-1.843,0.064c-0.074-0.009-0.12-0.062-0.211-0.035l-0.363,0.243
					l-0.715,0.5c-0.47,0.34-0.926,0.695-1.366,1.066c-0.881,0.742-1.697,1.551-2.432,2.444
					c-8.715,10.637-14.56,22.074-21.618,31.993l-1.113,1.595l-1.143,1.527l-2.258,3.075l-3.1,4.315l-0.783,1.109l-0.684,1.086
					l-1.363,2.174c-3.55,5.764-6.337,11.165-9.117,15.783c-0.814,1.297-1.674,2.664-2.539,3.888
					c-0.432,0.578-0.863,1.158-1.298,1.74c-0.435,0.56-0.867,1.212-1.308,1.673l-1.304,1.502l-1.603,1.916
					C255.729,299.051,254.53,300.646,253.374,302.225z"/>
			</g>
		</g>
	</g>
</g>
<g>
	<g>
		<g>
			<path fill="#FFFFFF" d="M403.41,268.208l0.099,0.057C403.478,268.223,403.491,268.151,403.41,268.208z"/>
			<path fill="#FFFFFF" d="M392.084,256.396l0.321-0.229C392.285,256.229,392.178,256.313,392.084,256.396z"/>
			<path fill="#FFFFFF" d="M362.038,275.307l-0.122-0.078C361.945,275.288,361.987,275.308,362.038,275.307z"/>
			<g>
				<path fill="#FFFFFF" d="M366.981,283.686c1.414,1.681,2.966,3.232,4.861,4.438c1.905,1.196,3.978,2.178,6.244,2.841
					c2.401,0.624,4.926,0.979,7.262,1.458c2.4,0.411,4.649,0.901,6.479,2.004c1.958,1.14,3.933,2.232,5.912,3.293
					c0.971,0.546,2.069,0.946,3.157,1.323c1.095,0.371,2.216,0.682,3.37,0.896c0.581,0.108,1.146,0.237,1.698,0.385
					c0.555,0.14,1.117,0.241,1.659,0.39c1.088,0.284,2.137,0.633,3.167,1.029c1.035,0.377,2.033,0.886,3.062,1.264
					c1.026,0.393,2.05,0.811,3.084,1.231c0.998,0.407,2.058,0.616,3.133,0.736l0.202,0.021l0.269,0.013l0.535,0.021l1.064,0.024
					l2.091,0.021c1.376,0.016,2.704,0.053,4.013,0.232c0.328,0.045,0.654,0.099,0.981,0.163c0.326,0.076,0.654,0.14,0.985,0.157
					c0.658,0.091,1.338,0.117,2.023,0.182c1.473,0.106,2.909,0.135,4.351-0.098c0.178-0.025,0.481-0.286,0.833-0.681
					c0.178-0.198,0.362-0.432,0.556-0.684c0.178-0.25,0.455-0.534,0.403-0.776l0.037-0.385l-1.445-4.242l-0.008-0.02l-0.016-0.038
					l-0.028-0.077l-0.048-0.16c-0.025-0.118-0.049-0.231-0.07-0.335c-0.003-0.01-0.006-0.082-0.003-0.045
					c0.001,0.036,0.001,0.07,0.002,0.102c-0.003,0.059-0.01,0.099-0.016,0.124c-0.006,0.022,0.001,0.004,0.009-0.047
					c0.003-0.025,0.007-0.06,0.008-0.103c0.002-0.032-0.008-0.134-0.003-0.061c0.01,0.078,0.003,0.043,0.074,0.37
					c0.018,0.057,0.034,0.111,0.05,0.163c-0.021-0.068-0.04-0.133-0.059-0.193c-0.098-0.081-0.181-0.151-0.244-0.204
					c-0.106-0.083-0.216-0.168-0.328-0.256c-0.135-0.078-0.273-0.158-0.415-0.24c-0.27-0.153-0.551-0.313-0.837-0.477
					c-0.508-0.293-1.037-0.599-1.554-0.896c-0.961-0.558-1.785-1.152-2.315-1.469c-1.077-0.629-1.793-1.408-2.424-2.051
					c-0.636-0.638-1.228-1.12-2.008-1.599c-0.804-0.496-1.56-0.953-2.263-1.417c-0.919-0.591-1.851-1.214-2.73-1.884
					c-0.882-0.677-1.738-1.394-2.523-2.239c-0.752-0.907-1.447-1.912-2.053-3.05c-0.491-0.919-1.076-1.578-1.727-2.09
					c-0.636-0.536-1.29-1.002-1.992-1.384c-0.696-0.393-1.414-0.743-2.097-1.152c-0.34-0.209-0.676-0.413-0.984-0.679
					c-0.306-0.282-0.593-0.591-0.854-0.938c-2.324-2.954-3.691-6.756-6.363-8.707c-0.707-0.542-1.329-1.188-1.905-1.879
					c-0.284-0.35-0.571-0.691-0.828-1.07l-0.736-1.172c-0.969-1.57-1.972-3.022-3.25-4.27c-0.648-0.592-1.326-1.158-2.021-1.716
					c-0.699-0.551-1.334-1.192-2.011-1.787c-0.666-0.607-1.33-1.222-1.973-1.857c-0.625-0.656-1.191-1.376-1.737-2.104
					c-0.622-0.866-1.255-1.71-1.79-2.646c-0.531-0.941-1.031-1.9-1.501-2.875c-2.43-5.019-5.81-9.342-7.594-13.942
					c-0.806-2.09-0.581-4.416-0.386-6.509c0.179-2.116,0.449-3.96-0.461-5.667c-0.484-0.916-0.806-2-1.961-3.073
					c-0.549-0.54-1.32-1.085-2.428-1.64c-1.073-0.555-2.472-1.121-4.332-1.699c-1.81-0.559-5.045-0.925-7.903-1.092
					c2.346,0.146,1.06,0.792-0.879,1.563c-1.955,0.757-4.506,1.692-4.72,1.825c-1.363,0.772-2.346,1.635-3.193,2.536
					c-0.818,0.901-1.523,1.84-2.396,2.812c-1.632,1.868-3.558,3.855-4.991,5.92c-1.485,2.079-2.5,4.233-2.538,6.362
					c-0.032,4.438,0.998,8.62,2.464,12.462c1.473,3.852,3.391,7.374,5.276,10.773c1.614,2.923,3.349,5.543,5.186,8.203l5.611,8.066
					c0.553,0.818,1.081,1.667,1.601,2.533c0.55,0.858,1.104,1.722,1.659,2.589C364.553,280.269,365.603,282.084,366.981,283.686z"/>
			</g>
		</g>
	</g>
</g>
<g>
	<g>
		<g>
			<path fill="#FFFFFF" d="M91.258,265.466l0.185,0.04C91.366,265.468,91.333,265.391,91.258,265.466z"/>
			<path fill="#FFFFFF" d="M65.243,254.593l0.221-0.335C65.347,254.353,65.284,254.475,65.243,254.593z"/>
			<path fill="#FFFFFF" d="M49.189,286.216c-0.001,0-0.021,0.043-0.027,0.044C49.174,286.273,49.176,286.256,49.189,286.216z"/>
			<g>
				<path fill="#FFFFFF" d="M56.257,290.878c2.626,1.253,5.281,2.218,8.114,2.889c2.858,0.631,5.744,1.055,8.816,1.044
					c1.569,0.008,3.152-0.054,4.727-0.125c1.579-0.075,3.185-0.213,4.747-0.272c3.116-0.1,6.197-0.131,9.093,0.536
					c1.522,0.379,3.066,0.714,4.605,1.052c1.539,0.337,3.068,0.693,4.616,0.985c1.562,0.255,3.129,0.478,4.706,0.637
					c0.789,0.078,1.579,0.146,2.374,0.184c0.804,0.012,1.609,0.004,2.418-0.029c1.627-0.067,3.216-0.037,4.784,0.068l2.978,0.117
					c0.521,0.034,0.969,0.021,1.418,0.014l1.358-0.01c1.612-0.023,3.224-0.048,4.843-0.071c1.523-0.048,2.741,0.107,4.088,0.186
					c1.275,0.091,2.545-0.027,3.83-0.238c1.327-0.133,2.688-0.312,4.043-0.487c1.371-0.154,2.694-0.348,4.108-0.276
					c1.402,0.059,2.792,0.261,4.151,0.724c0.725,0.249,1.44,0.557,2.152,0.874c0.737,0.322,1.483,0.656,2.231,0.952
					c0.741,0.293,4.799-1.424,5.64-2.343c0.382-0.416-1.6-3.012-2.146-3.698c-1.814-2.254-4.566-5.263-6.077-6.271
					c-1.523-1.022-2.65-1.764-3.805-2.365c-0.578-0.3-1.161-0.567-1.81-0.813c-0.662-0.227-1.389-0.433-2.236-0.637
					c-1.761-0.413-3.51-0.822-5.253-1.23c-1.793-0.318-3.61-0.615-5.437-0.996c-0.915-0.188-1.834-0.392-2.76-0.615
					c-0.877-0.195-1.726-0.396-2.594-0.633c-0.793-0.248-1.547-0.528-2.31-0.839c-0.674-0.345-1.297-0.729-1.911-1.14
					c-0.403-0.377-0.764-0.683-1.13-0.915c-0.101-0.062-0.161-0.105-0.293-0.171l-0.456-0.207c-0.305-0.132-0.612-0.253-0.92-0.363
					c-1.234-0.442-2.496-0.728-3.769-0.969c-1.274-0.211-2.55-0.536-3.811-0.842c-1.259-0.336-2.501-0.695-3.677-1.309
					c-2.547-1.375-4.997-2.865-7.449-4.412c-1.228-0.753-2.462-1.431-3.723-2.062c-1.259-0.652-2.546-1.207-3.886-1.615
					c-5.727-1.802-10.598-5.853-16.327-7.966l-9.106-3.171c-1.01-0.329-1.941-0.654-3.011-0.979l-3.553-0.971
					c-1.253-0.319-2.927-0.621-4.027-0.774l-1.266-0.176l-0.68-0.107c-0.09-0.013-0.033-0.01-0.035-0.012l0.014,0.001h0.007
					l0.003,0.001h0.002l-0.037,0.168c-0.247,1.092-0.518,2.18-0.813,3.262l-0.458,1.611l-0.164,0.768
					c-0.24,1.021-0.563,2.029-0.967,3.016l-0.319,0.735c0.003,0.158,0.007,0.311-0.002,0.467c-0.016,0.31-0.063,0.619-0.144,0.921
					c-0.082,0.302-0.196,0.597-0.343,0.878c-0.145,0.389-0.343,0.26-0.517,0.334l-0.536,0.105l-0.269,0.053l-0.134,0.026
					l-0.067,0.014l-0.034,0.006l-0.017,0.004l-0.004,0.001c-9.105,8.084,12.399-11.013,10.184-9.047l-0.003-0.003l-0.811-0.941
					c-0.292-0.334-0.471-0.579-0.699-0.864c-0.22-0.278-0.447-0.563-0.588-0.788l-0.478-0.709l-0.302-0.576
					c-0.022-0.049-0.071-0.12-0.074-0.15l0.001-0.077c-0.001-0.049-0.008-0.093-0.021-0.133c-0.047-0.068-0.003-0.185-0.042-0.252
					c-0.047-0.065-0.009-0.168-0.043-0.236c-0.038-0.068-0.04-0.149-0.056-0.224c-0.014-0.038-0.031-0.235-0.074-0.388l-0.332-1.58
					l-0.715-3.209c-0.945-4.389-1.936-8.859-2.665-13.495c-1.354-8.373,0.836-17.375-2.522-26.119
					c-0.86-2.28-1.894-5.132-3.633-7.562c-0.839-1.196-2.07-2.425-3.496-3.37c-1.443-0.958-3.168-1.691-5.258-2.077
					c-2.034-0.376-5.18,0.432-7.879,1.388c2.213-0.789,1.418,0.893-0.004,2.742c-1.419,1.858-3.473,3.846-3.64,4.076
					c-0.502,0.707-0.909,1.39-1.255,2.055c-0.373,0.68-0.686,1.348-0.971,2.007c-0.572,1.318-1.039,2.606-1.682,3.894
					c-1.22,2.469-2.886,4.937-4.205,7.305c-1.318,2.363-2.326,4.643-2.435,6.993c-0.348,9.706,1.757,19.116,3.738,29.271
					l0.696,3.288l0.361,1.641l0.245,1.077l0.329,1.363c1.011,3.951,2.807,7.656,5.054,11.034c1.188,1.814,2.185,3.014,3.182,4.243
					l1.45,1.686l1.342,1.475l1.22,1.313l0.299,0.322l0.019,0.021l0.009,0.01l1.738,1.625l0.038,0.031l0.076,0.063l0.152,0.126
					l0.303,0.251l0.205,0.166c0.354,0.272,0.719,0.537,1.092,0.794c0.747,0.514,1.528,0.994,2.332,1.429
					c0.401,0.217,0.808,0.424,1.217,0.618l0.616,0.283l0.556,0.236c0.771,0.295,1.554,0.567,2.343,0.815l0.593,0.183
					c0.214,0.064,0.301,0.081,0.458,0.123l0.845,0.21l0.848,0.2l0.701,0.15c2.243,0.439,3.027,0.617,2.885,0.724l0.016,0.039
					c0.014,0.016,0.069,0.059,0.102,0.085c0.084,0.063,0.129,0.109,0.27,0.188l0.362,0.206l0.181,0.098l0.26,0.155l1.083,0.638
					l1.376,0.787l0.742,0.416l0.855,0.458L56.257,290.878z"/>
			</g>
		</g>
	</g>
</g>
<g>
	<g>
		<g>
			<path fill="#FFFFFF" d="M112.052,148.573l0.182-0.001C112.154,148.555,112.104,148.5,112.052,148.573z"/>
			<path fill="#FFFFFF" d="M86.771,143.25l0.146-0.283C86.841,143.053,86.798,143.155,86.771,143.25z"/>
			<path fill="#FFFFFF" d="M71.172,167.545l-0.204-0.035C71.055,167.554,71.117,167.559,71.172,167.545z"/>
			<g>
				<path fill="#FFFFFF" d="M83.873,173.165c5.916,1.833,12.128,2.341,18.208,1.485c1.567-0.245,3.125-0.549,4.667-0.861
					l4.589-1.052c3.035-0.706,6.004-1.296,9.011-1.464c3.166-0.063,6.369-0.352,9.537-0.621c3.203-0.502,6.373-0.943,9.512-2.162
					c3.265-1.093,5.937-2.005,8.828-2.711c1.433-0.356,2.875-0.671,4.33-0.966c1.464-0.316,2.934-0.633,4.415-0.953
					c5.746-1.132,10.688-5.12,16.585-5.903c1.578-0.281,3.214-0.385,4.829-0.611c0.805-0.114,3.895-3.072,4.294-4.075
					c0.183-0.454-2.643-1.435-3.398-1.689c-2.518-0.822-6.125-1.796-7.81-1.901c-3.444-0.267-5.06-0.494-8.286,0.032
					c-3.314,0.566-6.657,0.973-9.999,1.241c-3.327,0.284-6.756,0.241-10.3-0.278c-1.424-0.213-2.842-0.189-4.186-0.079
					c-1.236,0.033-2.442,0.194-3.645,0.396c-1.182,0.241-2.44,0.363-3.689,0.453c-1.254,0.073-2.479,0.173-3.748-0.021
					c-1.373-0.206-2.736-0.459-4.085-0.716c-1.347-0.247-2.718-0.647-4.059-0.926c-0.673-0.149-1.343-0.288-2.012-0.411
					c-0.672-0.15-1.344-0.292-2.016-0.41c-0.671-0.118-1.342-0.216-2.015-0.288c-0.671-0.098-1.343-0.169-2.019-0.209
					c-5.789-0.344-11.178-2.837-16.625-3.903c-5.394-1.057-10.816-2.118-15.67-4.33l-1.065-0.475l-1.015-0.54l-2.013-1.104
					c-1.299-0.783-2.536-1.638-3.742-2.509c-2.977-2.275-5.75-4.526-8.3-6.933l-1.821-1.865c-0.606-0.638-1.176-1.372-1.771-2.052
					c-0.558-0.724-1.106-1.458-1.647-2.199c-0.501-0.781-1.028-1.535-1.497-2.344c-1.719-2.919-2.56-6.335-3.322-9.78
					c-0.768-3.458-1.477-6.969-3.063-10.452c-1.692-3.683-3.272-9.118-9.953-11.339c-1.626-0.532-4.218-0.211-6.449,0.311
					c3.654-0.867-2.813,5.702-3.064,6.165c-1.628,2.644-1.946,5.234-2.774,7.904c-1.598,5.153-4.012,10.436-2.914,15.728
					c1.164,5.509,3.341,10.938,6.315,16.079c1.471,2.578,3.195,5.057,5.02,7.47c0.952,1.187,1.896,2.363,2.908,3.526l3.207,3.438
					c3.767,3.71,7.848,7.057,12.16,9.75l1.602,1.05c0.539,0.334,1.088,0.636,1.632,0.956l3.269,1.89l3.31,1.711l1.652,0.861
					l1.667,0.781c1.33,0.611,2.651,1.323,3.999,1.92c1.348,0.614,2.704,1.232,4.065,1.853
					C78.252,171.164,81.036,172.317,83.873,173.165z"/>
			</g>
		</g>
	</g>
</g>
<g>
	<g>
		<g>
			<path fill="#FFFFFF" d="M266.557,171.694l-0.212,0.034C266.441,171.729,266.509,171.774,266.557,171.694z"/>
			<path fill="#FFFFFF" d="M295.14,167.018l0.016,0.319C295.184,167.222,295.168,167.113,295.14,167.018z"/>
			<path fill="#FFFFFF" d="M293.607,138.325l0.127-0.076C293.666,138.257,293.63,138.285,293.607,138.325z"/>
			<g>
				<path fill="#FFFFFF" d="M283.548,139.376c-1.134,0.189-2.328,0.414-3.495,0.7c-1.159,0.286-2.327,0.627-3.522,1.023
					c-1.19,0.398-2.333,0.846-3.537,1.367c-1.165,0.509-2.417,1.113-3.468,1.708c-3.523,2.351-8.083,5.227-12.844,5.617
					c-5.086,0.284-10.1-0.125-15.203,0.328c-2.517,0.147-5.056,0.01-7.282-0.551l-0.858-0.192c-0.305-0.073-0.512-0.11-0.958-0.243
					l-2.128-0.597c-1.309-0.385-2.623-0.771-3.947-1.161c-2.503-0.76-5.117-0.894-7.68-1.168c-2.552-0.271-5.088-0.69-7.164-1.977
					c-1.096-0.688-2.06-1.573-2.824-2.318c-0.183-0.179-1.026-0.166-1.681,0.012c-0.127,0.058-0.333,0.098-0.434,0.184l-0.167,0.131
					l-0.045,0.033c-0.021,0.016-0.004-0.007-0.117,0.11c-0.123,0.144-0.244,0.285-0.361,0.422c-0.241,0.266-0.49,0.505-0.735,0.717
					c-0.125,0.102-0.246,0.201-0.362,0.296c-0.076,0.079-0.152,0.151-0.228,0.218c-0.302,0.267-0.588,0.44-0.782,0.546
					c-0.182,0.091-0.008,0.02,0.33-0.199c0.167-0.111,0.37-0.264,0.575-0.461c0.058-0.051,0.085-0.095,0.18-0.164l0.122-0.098
					c0.005-0.002-0.018,0.021-0.025,0.031c-0.042,0.054-0.087,0.11-0.132,0.168c-0.373,0.474-0.309,1.272-0.271,1.591
					c0.263,2.198,2.299,5.421,3.476,6.551c2.43,2.343,3.664,3.346,6.564,4.671c3.004,1.354,6.008,2.519,8.931,3.853
					c1.453,0.667,2.915,1.378,4.245,2.169c0.325,0.196,0.656,0.401,0.914,0.599c0.108,0.095,0.33,0.211,0.526,0.324l0.595,0.344
					c0.795,0.466,1.596,0.959,2.406,1.485c1.333,0.894,2.666,1.375,4.063,1.797c1.393,0.408,2.835,0.723,4.236,0.862
					c1.412,0.171,2.83,0.306,4.239,0.494c1.4,0.137,2.788,0.309,4.164,0.637c5.954,1.335,12.04,3.219,18.458,2.452
					c1.654-0.132,3.451-0.351,5.227-0.478l4.823-0.308c1.463-0.084,2.969-0.179,4.474-0.335c1.486-0.148,3.008-0.379,4.518-0.73
					c5.942-1.387,12.035-3.403,18.418-5.415c1.855-0.533,3.75-1.248,5.642-1.858c1.894-0.654,3.802-1.409,5.717-2.114
					c4.841-1.945,9.43-4.705,13.669-7.89c1.033-0.827,2.043-1.681,3.057-2.528l1.51-1.281l1.42-1.359l2.83-2.721l2.648-2.833
					c0.485-0.512,0.979-1.014,1.482-1.508c0.466-0.512,0.938-1.017,1.419-1.516l1.462-1.484l1.594-1.593
					c0.787-1.011,1.58-2.038,2.333-3.102c0.413-0.558,0.661-1.002,0.96-1.489l0.827-1.399c0.26-0.453,0.553-0.952,0.775-1.378
					l0.618-1.23c0.395-0.813,0.829-1.688,1.155-2.475c1.333-3.173,2.251-6.279,2.552-9.469c0.12-1.216,0.24-2.525,0.301-3.902
					c0.019-0.706,0.02-1.423-0.012-2.144l-0.013-0.271c-0.006-0.08-0.007-0.215-0.023-0.203l-0.089-0.123
					c-0.065-0.085-0.146-0.176-0.238-0.274c-0.715-0.763-2.058-1.801-4.059-4.217c-1.005-1.154-3.028-2.831-4.911-4.133
					c1.542,1.096,0.259,1.209-1.626,1.404c-0.896,0.113-1.952,0.253-2.827,0.408c-0.895,0.144-1.488,0.335-1.618,0.382
					c-0.694,0.326-1.332,0.735-1.931,1.201c-0.565,0.473-1.041,1.011-1.523,1.58c-0.238,0.286-0.472,0.58-0.702,0.882
					c-0.219,0.26-0.417,0.458-0.626,0.688c-0.414,0.444-0.831,0.878-1.282,1.294c-3.57,3.238-8.106,5.656-9.929,8.37
					c-0.257,0.349-0.499,0.698-0.728,1.047l-0.168,0.262c-0.055,0.077-0.107,0.112-0.159,0.17l-0.295,0.318
					c-0.371,0.532-0.555,0.322-0.632,0.409l-0.268,0.244l-0.344,0.352l-0.696,0.738c-0.457,0.496-0.903,0.999-1.341,1.508
					c-0.922,0.944-1.838,1.866-2.714,2.838l-2.774,2.661l-2.934,2.409c-0.605,0.409-1.204,0.828-1.798,1.255l-0.888,0.646
					l-0.942,0.576l-1.871,1.182l-1.988,1.058l-0.993,0.536l-1.057,0.469l-2.119,0.934c-1.516,0.523-2.945,1.116-4.571,1.512
					C292.294,138.32,288.005,138.692,283.548,139.376z"/>
			</g>
		</g>
	</g>
</g>
<g>
	<g>
		<g>
			<path fill="#FFFFFF" d="M255.813,144.208l-0.159,0.066C255.73,144.261,255.793,144.294,255.813,144.208z"/>
			<path fill="#FFFFFF" d="M279.523,136.353l0.074,0.31C279.6,136.547,279.565,136.443,279.523,136.353z"/>
			<path fill="#FFFFFF" d="M273.542,108.34l0.113-0.091C273.59,108.265,273.558,108.297,273.542,108.34z"/>
			<g>
				<path fill="#FFFFFF" d="M264.219,110.727c-3.86,1.164-7.27,3.294-10.794,6.006c-3.537,2.857-6.853,6.649-11.131,8.104
					c-4.468,1.551-8.978,2.567-13.247,4.669c-4.301,2.116-8.813,2.796-13.366,3.248c-1.099,0.109-2.168,0.381-3.22,0.673
					c-1.055,0.303-2.11,0.699-3.154,0.998c-1.046,0.309-2.116,0.636-3.163,0.747c-1.05,0.127-2.133,0.179-3.152-0.093
					c-0.551-0.133-1.095-0.313-1.632-0.499c-0.531-0.196-1.019-0.447-1.521-0.638c-0.227-0.118-1.063,0.297-1.806,0.672
					c-0.769,0.407-1.618,0.936-1.941,1.3c-0.32,0.323,0.91,2.389,1.34,2.953c0.635,0.948,1.579,1.9,2.528,2.792
					c0.953,0.907,1.927,1.579,2.595,1.917c0.677,0.336,1.275,0.631,1.832,0.876c0.552,0.226,1.063,0.415,1.579,0.576
					c1.032,0.322,2.084,0.542,3.497,0.615c5.889,0.388,11.486,0.011,17.613,1.421c4.985,1.118,9.384-1.369,14.096-1.581
					c2.566-0.112,5.168-0.072,7.728-0.181c1.286-0.053,2.539-0.151,3.786-0.323c1.261-0.197,2.516-0.49,3.73-0.894
					c2.587-0.864,5.3-1.307,8.022-1.771l2.04-0.358c0.684-0.163,1.365-0.333,2.042-0.519c1.354-0.371,2.691-0.801,3.987-1.343
					c1.275-0.534,2.549-1.094,3.796-1.667l3.505-1.764c2.317-1.159,4.732-2.361,7.014-3.239c2.712-1.065,5.467-2.025,8.258-2.871
					c0.78-0.221,2.006-0.667,3.081-1.072c1.104-0.412,2.201-0.846,3.185-1.326c0.998-0.472,2.049-0.954,2.987-1.453l2.786-1.518
					c3.567-2.036,6.757-4.045,9.816-5.604c2.794-1.408,5.375-1.749,8.433-2.33c2.855-0.464,5.293-0.735,7.229-1.696
					c0.487-0.209,1.037-0.437,1.589-0.732c0.493-0.205,1.002-0.512,1.539-1.016c0.474-0.395,0.969-0.979,1.55-1.856
					c0.558-0.827,1.154-1.828,1.916-3.249c0.729-1.37,1.514-3.874,2.026-6.105c-0.439,1.83-0.975,0.73-1.696-0.939
					c-0.357-0.82-0.761-1.832-1.122-2.565c-0.357-0.737-0.652-1.304-0.724-1.398c-0.866-1.111-1.921-2.023-3.01-2.637
					c-1.091-0.623-2.256-1.165-3.456-1.799c-1.188-0.587-2.352-1.163-3.504-1.732c-1.22-0.592-2.366-1.048-3.602-1.49
					c-0.607-0.211-1.236-0.41-1.846-0.566c-0.592-0.146-1.188-0.263-1.787-0.346c-1.186-0.163-2.438-0.203-3.531,0.005
					c-1.159,0.21-2.386,0.447-3.47,0.738c-1.102,0.297-2.167,0.589-3.274,0.971c-1.127,0.408-2.245,0.844-3.355,1.302
					c-1.078,0.461-2.071,0.949-3.1,1.447c-3.986,1.992-7.411,4.135-10.594,5.864c-2.682,1.455-5.084,2.706-7.349,3.694
					c-3.166,1.339-6.475,2.693-9.772,3.875c-2.027,0.714-3.949,1.303-5.93,1.895c-0.987,0.298-1.979,0.597-2.972,0.897
					C266.146,110.106,265.115,110.472,264.219,110.727z"/>
			</g>
		</g>
	</g>
</g>
<g>
	<g>
		<g>
			<path fill="#FFFFFF" d="M126.2,119.208l0.151,0.038C126.289,119.213,126.264,119.15,126.2,119.208z"/>
			<path fill="#FFFFFF" d="M105.694,110.48l0.168-0.269C105.782,110.291,105.73,110.388,105.694,110.48z"/>
			<path fill="#FFFFFF" d="M89.505,134.078l-0.15-0.023C89.415,134.092,89.461,134.094,89.505,134.078z"/>
			<g>
				<path fill="#FFFFFF" d="M98.137,139.351c2.026,1.007,4.158,1.759,6.372,2.269c2.207,0.534,4.5,0.805,6.861,0.816
					c2.425,0.037,4.913-0.181,7.337-0.261c2.418-0.055,4.778,0.009,6.978,0.604c2.32,0.66,4.609,1.365,6.926,1.979l1.743,0.441
					c0.566,0.14,1.28,0.265,1.916,0.379c0.655,0.113,1.313,0.213,1.973,0.296c0.658,0.082,1.263,0.096,1.902,0.119
					c5.089,0.175,9.582,1.302,14.335,2.488c4.62,1.064,9.528-0.509,14.17,0.95c1.26,0.386,2.456,1,3.77,1.417
					c0.682,0.2,4.097-1.393,4.701-2.178c0.274-0.354-1.589-2.313-2.063-2.831c-0.811-0.854-1.801-1.824-2.708-2.706
					c-0.908-0.917-1.758-1.709-2.346-2.105c-2.37-1.578-3.437-2.356-5.924-3.157c-1.28-0.4-2.551-0.815-3.813-1.27
					c-1.261-0.446-2.511-0.895-3.743-1.415c-2.458-1.087-4.873-2.336-7.115-4.196c-1.841-1.462-3.813-2.142-5.833-2.683
					c-1-0.271-1.865-0.531-2.792-0.827c-0.429-0.131-0.962-0.354-1.452-0.575c-0.495-0.225-0.98-0.474-1.451-0.758
					c-1.02-0.613-2.022-1.272-3.02-1.937c-0.99-0.683-1.975-1.37-2.969-2.021c-1.997-1.287-4.004-2.49-6.19-3.227
					c-4.667-1.567-8.59-4.899-13.166-6.537c-4.491-1.667-9.161-2.96-13.466-5.054c-1.254-0.611-2.499-1.245-3.725-1.91
					c-1.208-0.691-2.404-1.408-3.583-2.149c-5.923-3.774-12.289-6.637-18.018-10.529c-1.276-0.897-2.446-1.934-3.566-3.02
					c-1.117-1.09-2.127-2.292-3.184-3.423c-1.065-1.124-2.096-2.262-3.202-3.299c-1.103-1.041-2.348-1.918-3.658-2.711
					c-0.39-0.231-0.798-0.473-1.22-0.723l-0.159-0.094l-0.318-0.223l-0.662-0.462c-0.445-0.302-0.895-0.608-1.348-0.916
					c-0.607-0.356-1.223-0.705-1.841-1.037l-0.931-0.485c-0.32-0.14-0.658-0.239-0.985-0.353c-0.655-0.225-1.317-0.416-2.009-0.517
					c-0.674-0.134-1.371-0.167-2.061-0.146c-2.751,0.049-5.399,1.24-7.335,3.363c-1.241,1.421-1.653,4.005-1.804,6.291
					c0.096-1.876,1.305-0.82,2.197,0.741c0.441,0.78,0.781,1.701,0.987,2.453c0.205,0.766,0.288,1.381,0.324,1.477
					c0.772,2.202,1.216,4.072,1.304,5.797c0.009,0.179,0.011,0.357,0.006,0.535c-0.006,0.233-0.021,0.464-0.044,0.692
					c-0.002,0.122-0.046,0.21-0.02,0.356l0.074,0.438c0.095,0.593,0.189,1.181,0.283,1.766c0.186,1.182,0.375,2.365,0.646,3.468
					c0.525,2.227,1.271,4.296,2.608,5.868c5.697,6.468,13.008,10.666,20.211,14.831c6.145,3.55,12.564,6.484,18.798,9.689
					c1.852,0.997,3.713,2.039,5.584,3.118C94.287,137.354,96.188,138.404,98.137,139.351z"/>
			</g>
		</g>
	</g>
</g>
<g>
	<g>
		<g>
			<path fill="#FFFFFF" d="M443.086,262.751l0.078,0.098C443.147,262.795,443.185,262.731,443.086,262.751z"/>
			<path fill="#FFFFFF" d="M434.111,247.207l0.349-0.188C434.329,247.062,434.212,247.133,434.111,247.207z"/>
			<path fill="#FFFFFF" d="M403.512,265.02l-0.082-0.026C403.44,265.028,403.47,265.032,403.512,265.02z"/>
			<g>
				<path fill="#FFFFFF" d="M405.207,270.275c1.33,2.529,3.462,4.431,6.679,5.761c3.22,1.366,7.474,2.303,9.118,4.754
					c0.908,1.285,1.586,2.652,2.392,3.964c0.403,0.656,0.835,1.299,1.325,1.918c0.458,0.627,0.975,1.23,1.584,1.801
					c1.229,1.147,2.095,2.458,2.645,3.87c0.559,1.411,1.026,2.877,1.293,4.394c0.146,0.728,0.488,1.387,0.916,2.023
					c0.212,0.311,0.461,0.665,0.667,0.863l0.604,0.629c0.391,0.376,0.684,0.813,0.842,1.28c0.063,0.239,0.104,0.468,0.082,0.729
					c-0.031,0.268-0.11,0.586-0.254,0.891c-0.164,0.36-0.394,0.744-0.629,1.107c-0.238,0.383-0.493,0.831-0.707,1.243
					c-0.106,0.172,0.381,0.939,1.02,1.629c0.649,0.754,1.467,1.511,1.975,1.726c0.461,0.183,2.779-1.327,3.396-1.676
					c2.034-1.22,4.739-2.861,5.568-3.839c0.828-0.963,1.433-1.742,1.818-2.606c0.413-0.857,0.619-1.741,0.682-2.956
					c-0.001-0.614-0.007-1.267-0.033-1.866c-0.04-0.587-0.083-1.168-0.097-1.669c-0.041-1.047-0.064-2.104-0.028-3.189
					c0.085-2.18,0.24-4.384,1.049-6.952c0.644-2.08,0.112-3.739-0.51-5.367c-0.618-1.638-1.487-3.128-1.665-4.933
					c-0.098-0.979-0.144-1.988-0.186-3.008c-0.061-1.002-0.127-2.005-0.232-2.996c-0.213-1.98-0.598-3.911-1.588-5.469
					c-2.05-3.361-2.315-7.762-4.639-10.903c-0.574-0.766-1.178-1.511-1.793-2.247l-0.928-1.1l-1.126-1.255
					c-1.529-1.682-3.005-3.398-4.368-5.153c-1.66-1.921-3.212-3.96-4.705-6.039c-3.881-5.013-9.055-8.537-13.479-12.205
					c-1.003-0.847-1.869-1.889-2.677-2.951c-0.803-1.034-1.554-2.139-2.338-3.21c-1.588-2.18-3.236-4.078-5.643-4.994
					c-0.637-0.243-1.307-0.541-2.047-0.775c-0.729-0.223-1.518-0.369-2.424-0.339c-1.81,0.062-4.064,0.851-7.086,3.311
					c-1.47,1.198-3.459,3.767-5.101,6.113c2.696-3.85-0.617,5.759-0.715,6.249c-0.585,2.969-0.162,4.729-0.2,7.015
					c-0.117,4.426-1.103,9.619,0.26,11.963c1.399,2.452,3.264,4.304,5.036,5.939c0.902,0.817,1.91,1.569,2.821,2.322
					c0.893,0.753,1.787,1.507,2.684,2.263l1.145,0.961l1.043,0.959l2.132,1.88c0.762,0.615,1.284,1.289,1.904,1.952
					c0.595,0.669,1.173,1.354,1.715,2.064c0.552,0.875,0.925,1.863,1.333,2.83c0.199,0.484,0.398,0.967,0.611,1.437
					C404.613,269.038,404.898,269.672,405.207,270.275z"/>
			</g>
		</g>
	</g>
</g>
<g>
	<g>
		<g>
			<path fill="#FFFFFF" d="M399.94,179.236l-0.115,0.035C399.88,179.277,399.923,179.335,399.94,179.236z"/>
			<path fill="#FFFFFF" d="M416.798,178.47l-0.025,0.394C416.801,178.731,416.803,178.594,416.798,178.47z"/>
			<path fill="#FFFFFF" d="M420.597,143.194l0.128-0.048C420.663,143.132,420.625,143.153,420.597,143.194z"/>
			<g>
				<path fill="#FFFFFF" d="M411.86,141.732c-1.949-0.024-3.892,0.236-5.792,0.789c-1.887,0.586-3.71,1.518-5.474,2.716
					c-0.906,0.623-1.802,1.298-2.663,2.034l-1.296,1.082l-0.646,0.53c-0.216,0.175-0.39,0.341-0.795,0.534
					c-1.394,0.747-2.722,1.467-4.021,2.095c-1.284,0.68-2.541,1.347-3.768,2.058c-0.647,0.374-1.285,0.76-1.905,1.175
					c-0.602,0.398-1.327,0.904-1.612,1.123l-0.145,0.106l-0.072,0.053l-0.009,0.007l-0.005,0.003c0.28,0.49-0.63-1.094,0.628,1.099
					l0.006,0.01l0.051,0.079l0.102,0.159c0.267,0.425,0.517,0.862,0.748,1.312l0.334,0.683l0.157,0.348l0.076,0.175l0.037,0.088
					l0.019,0.044l0.004,0.011c-0.974-1.768,2.188,3.971-2.183-3.959l-0.005,0.002l-0.308,0.174l-1.225,0.709
					c-0.813,0.487-1.602,0.99-2.385,1.57c-0.924,0.706-1.812,1.471-2.636,2.317c-0.414,0.426-0.834,0.827-1.262,1.207
					c-0.425,0.381-0.793,0.753-1.205,1.101c-0.808,0.699-1.648,1.329-2.517,1.917c-0.869,0.587-1.711,1.207-2.604,1.769
					c-0.874,0.585-1.816,1.098-2.68,1.719c-1.689,1.174-2.908,2.93-4.004,4.714c-0.566,0.878-1.143,1.729-1.814,2.474
					c-0.638,0.776-1.371,1.447-2.297,1.941c-0.994,0.522-2.165,0.884-3.179,1.413c-0.519,0.264-0.671,3.676-0.228,4.693
					c0.2,0.46,2.983,0.883,3.712,1c2.429,0.342,5.685,0.693,7.004,0.605c2.633-0.237,3.761-0.362,5.637-1.267
					c1.884-0.987,3.77-1.861,5.752-2.522c0.998-0.321,2.07-0.514,3.164-0.642c0.55-0.06,1.112-0.093,1.688-0.096
					c0.59,0.018,1.197,0.076,1.818,0.166c1.003,0.146,1.845,0.069,2.603-0.146c0.744-0.181,1.367-0.42,1.985-0.747l0.909-0.495
					l0.453-0.248c0.18-0.087,0.404-0.182,0.605-0.267c0.831-0.345,1.689-0.625,2.623-0.734l0.763-0.08l0.385-0.034l0.097-0.008
					l0.048-0.004l0.024-0.002l0.012-0.001h0.006l0.004,0c0.309-0.146-0.418,0.199-0.341,0.163l0.446-0.138l0.896-0.294
					c0.293-0.099,0.654-0.24,0.708-0.221c0.23-0.024,0.554-0.102,0.71-0.08c0.454,0.189,0.856,0.408,1.219,0.657
					c0.363,0.249,0.675,0.528,0.928,0.725c0.127,0.096,0.24,0.169,0.344,0.21l0.076,0.026c0.048,0.003-0.009,0.019,0.144,0.003
					c0.221-0.019,0.44-0.046,0.659-0.083c1.867-0.348,3.776-0.042,5.66,0.244c0.942,0.145,1.884,0.263,2.809,0.344
					c0.921,0.099,1.833,0.122,2.737-0.003c0.893-0.123,1.783-0.283,2.676-0.458l2.655-0.418c0.888-0.139,1.778-0.271,2.671-0.372
					c0.89-0.087,1.769-0.086,2.653-0.065c1.031,0.035,2.061,0.103,3.087,0.206c1.016,0.144,2.02,0.353,3.02,0.58
					c2.543,0.512,5.013,0.909,7.541,1.122c1.253,0.141,2.482,0.357,3.726,0.54l1.857,0.313c0.624,0.123,1.276,0.301,1.908,0.471
					c2.327,0.631,4.085,2.157,5.638,3.484c0.751,0.675,1.384,1.314,2.114,1.756c0.301,0.243,0.619,0.437,0.968,0.57
					c0.342,0.136,0.76,0.194,1.086,0.235c0.381,0.029,0.784,0.092,1.266,0.076c0.501-0.024,0.905-0.042,1.56-0.277
					c1.326-0.49,2.993-1.462,6.164-3.72c1.529-1.096,3.918-3.315,5.916-5.366c-1.65,1.674-1.233,0.367-0.535-1.563
					c0.714-1.916,1.641-4.499,1.683-4.762c0.284-1.546,0.187-2.791-0.001-4.011c-0.199-1.198-0.49-2.41-0.774-3.623
					c-0.522-2.389-1.028-5.198-1.87-7.515c-0.418-1.187-0.917-2.317-1.531-3.318c-0.599-0.961-1.293-1.753-2.127-2.36
					c-1.778-1.314-3.495-2.191-5.332-3.056c-0.888-0.394-1.752-0.72-2.645-1.042l-1.337-0.458c-0.438-0.14-0.853-0.255-1.282-0.376
					c-0.852-0.238-1.709-0.458-2.569-0.667l-2.715-0.529c-1.816-0.321-3.637-0.681-5.458-0.958
					c-1.549-0.213-3.103-0.391-4.656-0.553c-0.776-0.077-1.555-0.167-2.329-0.225l-2.32-0.115c-1.546-0.078-3.09-0.161-4.632-0.271
					c-1.534-0.063-3.061-0.116-4.591-0.237c-0.915-0.071-1.838-0.18-2.768-0.309c-0.924-0.106-1.853-0.214-2.786-0.321
					C415.643,142.04,413.73,141.758,411.86,141.732z"/>
			</g>
		</g>
	</g>
</g>
<g>
	<g>
		<g>
			<path fill="#FFFFFF" d="M415.102,219.93l-0.121,0.022C415.036,219.963,415.073,220.026,415.102,219.93z"/>
			<path fill="#FFFFFF" d="M433.656,218.429l0.041,0.393C433.706,218.686,433.685,218.55,433.656,218.429z"/>
			<path fill="#FFFFFF" d="M428.886,183.381l0.05-0.067C428.902,183.311,428.89,183.337,428.886,183.381z"/>
			<g>
				<path fill="#FFFFFF" d="M424.001,182.749c-1.125-0.001-2.152,0.329-3.248,0.877c-1.118,0.523-2.191,1.378-3.338,2.478
					c-1.2,1.105-2.403,2.521-3.706,3.663c-1.315,1.119-2.663,2.048-4.068,2.21c-1.502,0.146-2.969,0.187-4.492,0.282
					c-1.548,0.104-2.961,0.322-4.724,0.946c-1.7,0.625-3.351,0.838-4.999,0.841c-1.591,0.019-3.145-0.164-4.741-0.358
					c-1.566-0.175-3.013,0.423-4.489,0.913c-0.739,0.246-1.481,0.464-2.22,0.537c-0.746,0.082-1.473,0.001-2.139-0.384
					c-0.725-0.401-1.415-1.035-2.107-1.515c-0.327-0.237-2.383,1.763-2.891,2.731c-0.231,0.438,0.607,2.871,0.87,3.516
					c0.813,2.112,2.264,4.923,3.098,5.836c1.682,1.876,2.483,2.59,4.303,3.229c1.88,0.646,3.781,1.194,5.571,1.943
					c0.907,0.382,1.813,0.832,2.72,1.394c0.909,0.562,1.823,1.237,2.66,2.087c1.381,1.365,2.796,1.635,4.229,1.729
					c0.681,0.042,1.524,0.062,2.306,0.145c0.791,0.083,1.577,0.238,2.354,0.577c1.69,0.723,3.43,1.655,5.177,2.419
					c1.786,0.713,3.593,1.258,5.421,1.138c3.888-0.306,8.035,1.518,12.224,0.628c1.021-0.215,2.028-0.455,3.039-0.736l3.063-0.986
					c2.017-0.604,4.093-1.438,6.192-1.995l0.924-0.245c0.312-0.08,0.532-0.16,0.804-0.237c0.52-0.154,1.041-0.3,1.566-0.438
					c1.051-0.274,2.112-0.515,3.188-0.722c5.518-0.961,10.182-3.865,15.278-5.66c2.292-0.839,4.839-0.97,7.378-1.224
					c2.52-0.284,5.033-0.667,6.947-2.386c2.031-1.771,5.124-3.6,3.569-11.199c-0.381-1.848-1.749-4.791-3.077-7.328
					c2.16,4.174-4.756-3.301-5.106-3.637c-2.294-1.951-3.96-2.466-5.864-3.632c-1.844-1.13-3.736-2.563-5.48-3.706
					c-1.752-1.158-3.38-2.077-4.678-2.082c-2.728-0.03-5.115,0.609-7.411,1.441c-2.312,0.759-4.515,1.785-6.781,2.69
					c-1.925,0.819-3.813,1.523-5.714,2.284c-0.95,0.373-1.904,0.738-2.867,1.077c-0.481,0.169-0.966,0.331-1.452,0.484
					c-0.235,0.07-0.507,0.163-0.714,0.209l-0.579,0.102c-0.945,0.13-1.855,0.203-2.899,0.137
					C426.043,182.751,425.055,182.728,424.001,182.749z"/>
			</g>
		</g>
	</g>
</g>
</svg>
