<?xml version="1.0" encoding="utf-8"?>
<!-- Generator: Adobe Illustrator 16.0.0, SVG Export Plug-In . SVG Version: 6.00 Build 0)  -->
<!DOCTYPE svg PUBLIC "-//W3C//DTD SVG 1.1//EN" "http://www.w3.org/Graphics/SVG/1.1/DTD/svg11.dtd">
<svg version="1.1" xmlns="http://www.w3.org/2000/svg" xmlns:xlink="http://www.w3.org/1999/xlink" x="0px" y="0px" width="500px"
	 height="500px" viewBox="0 0 500 500" enable-background="new 0 0 500 500" xml:space="preserve">
<g id="Layer_1">
</g>
<g id="Layer_2">
	<g>
		<g>
			<g>
				<path fill="#FFFFFF" d="M477.028,280.859l-0.065,0.253C477.015,281.007,477.095,280.953,477.028,280.859z"/>
				<path fill="#FFFFFF" d="M486.952,243.375l0.374,0.135C487.207,243.419,487.074,243.386,486.952,243.375z"/>
				<path fill="#FFFFFF" d="M453.046,231.24l-0.029-0.201C452.992,231.131,453.012,231.192,453.046,231.24z"/>
				<g>
					<path fill="#FFFFFF" d="M449.482,244.164c-0.765,2.847-1.241,5.741-1.431,8.725c-0.367,2.911-0.483,5.898-0.296,9.03
						l0.081,1.216l0.029,1.3l0.081,2.627c0.065,1.774,0.121,3.474,0.126,5.193c0.012,1.732-0.062,3.394-0.25,5.031
						c-0.095,0.818-0.212,1.639-0.377,2.434c-0.174,0.78-0.383,1.552-0.635,2.31c-2.161,6.438-5.084,12.091-7.381,18.036
						c-0.528,1.536-1.33,2.939-2.163,4.314c-0.421,0.682-0.833,1.378-1.302,2.021c-0.487,0.625-0.985,1.242-1.493,1.852
						l-1.547,1.808l-1.715,1.634l-1.736,1.616c-0.61,0.502-1.246,0.974-1.868,1.464c-0.603,0.469-1.169,0.977-1.711,1.516
						c-0.561,0.516-1.135,1.011-1.677,1.555c-0.547,0.538-1.081,1.099-1.615,1.669c-0.538,0.563-1.13,1.054-1.699,1.588
						c-0.576,0.524-1.159,1.047-1.756,1.555c-0.592,0.517-1.264,0.903-1.918,1.324c-1.323,0.813-2.709,1.538-4.283,1.826
						c-0.828,0.175-1.67,0.297-2.505,0.407c-0.388,0.044-0.884,0.129-1.382,0.219l-1.47,0.276c-0.975,0.197-4.566,4.138-4.995,5.432
						c-0.197,0.583,3.302,1.614,4.239,1.886c3.134,0.841,7.513,1.833,9.737,1.781c1.107-0.021,2.082-0.047,2.981-0.095
						c0.884-0.082,1.68-0.215,2.477-0.366c1.576-0.336,3.188-0.697,5.153-1.677c1.033-0.487,2.063-0.974,3.09-1.458
						c1.028-0.493,1.98-1.101,2.98-1.646c0.982-0.569,2-1.104,2.973-1.697l2.894-1.836c3.917-2.427,7.729-5.063,11.997-7.622
						c3.388-2.13,5.952-5.148,8.098-8.525c1.151-1.652,2.026-3.384,3.042-5.06c1.044-1.676,1.948-3.335,3.074-4.904
						c4.772-6.788,9.728-13.554,12.068-20.914c0.64-1.978,1.327-3.826,2.124-5.701l2.416-5.999c0.819-2.024,1.634-4.06,2.372-6.122
						c0.62-2.076,1.149-4.182,1.54-6.317c0.369-2.105,0.765-4.215,1.022-6.325l0.603-6.329c0.174-2.104,0.463-4.211,0.58-6.3
						c0.127-2.09,0.284-4.174,0.493-6.255c0.557-4.989,0.946-9.359,1.597-13.941c1.564-11.526,1.372-23.291,1.824-35.151
						c0.081-2.692,0.44-5.343,0.777-8.027s0.76-5.368,1.136-8.063c0.361-2.697,0.571-5.433,0.656-8.165
						c0.027-1.369,0.043-2.733-0.063-4.111c-0.115-1.379-0.292-2.759-0.548-4.137c-0.271-1.459-0.526-3.048-0.877-4.677
						c-0.094-0.406-0.188-0.815-0.283-1.227c-0.084-0.216-0.179-0.283-0.282-0.592c-0.209-0.467-0.456-1.267-0.772-2.171
						c-0.313-0.904-0.713-2.057-1.229-3.238c-0.277-0.654-0.551-1.228-0.903-1.917c-0.343-0.68-0.718-1.309-1.127-1.86
						c-1.623-2.268-3.811-3.98-6.428-4.793c-2.546-0.803-5.776,0.467-8.321,1.796c1.05-0.556,1.589-0.307,1.765,0.379
						c0.146,0.705-0.084,1.821-0.658,2.957c-0.544,1.13-1.384,2.236-2.131,3.035c-0.739,0.806-1.377,1.316-1.47,1.43
						c-1.179,1.378-2.116,2.61-2.935,4.049c-0.411,0.712-0.794,1.486-1.161,2.337c-0.351,0.951-0.742,1.574-1.166,2.317
						c-1.646,2.784-3.6,5.396-5.228,7.974c-1.671,2.59-3.093,5.169-3.525,7.905c-1.951,11.48-1.683,22.895-2.284,34.679
						l-0.692,15.095c-0.124,2.531-0.279,5.086-0.452,7.626c-0.094,1.248-0.169,2.595-0.303,3.759l-0.425,3.508
						C452.414,233.069,450.696,238.618,449.482,244.164z"/>
				</g>
			</g>
		</g>
	</g>
	<g>
		<g>
			<g>
				<path fill="#FFFFFF" d="M63.988,271.039l0.116,0.181C64.073,271.127,64.096,271.045,63.988,271.039z"/>
				<path fill="#FFFFFF" d="M52.622,241.196l0.392-0.055C52.87,241.123,52.736,241.154,52.622,241.196z"/>
				<path fill="#FFFFFF" d="M16.767,244.297l-0.108-0.196C16.674,244.206,16.715,244.261,16.767,244.297z"/>
				<g>
					<path fill="#FFFFFF" d="M19.773,259.312c1.988,6.658,5.327,13.036,10.119,18.616c4.94,5.778,11.088,10.583,15.308,16.549
						c4.467,6.333,9.182,12.761,15.757,17.434c3.289,2.34,6.414,4.711,9.45,6.998c1.495,1.215,3.041,2.294,4.561,3.445
						c0.76,0.574,1.521,1.149,2.285,1.728c0.775,0.542,1.553,1.086,2.334,1.632c1.505,1.062,3.12,1.948,4.795,2.644
						c1.672,0.706,3.371,1.408,5.068,1.979c1.694,0.595,3.367,1.239,4.972,1.956c1.606,0.704,3.145,1.534,4.574,2.603
						c1.515,1.12,2.92,2.429,4.405,3.617c0.731,0.589,5.738,0.575,6.967,0.044c0.556-0.238-0.82-3.502-1.212-4.382
						c-1.308-2.863-3.466-6.895-4.793-8.472c-2.656-3.247-3.921-4.672-7.037-7.004c-0.805-0.596-1.607-1.189-2.407-1.782
						c-0.776-0.61-1.55-1.22-2.322-1.827c-1.56-1.193-3.009-2.486-4.406-3.82c-1.433-1.299-2.693-2.762-3.886-4.277
						c-1.231-1.481-2.216-3.181-3.109-4.933c-0.348-0.717-0.785-1.35-1.169-1.989c-0.386-0.637-0.807-1.23-1.254-1.792
						c-0.442-0.568-0.933-1.078-1.405-1.617c-0.463-0.554-0.944-1.087-1.436-1.612l-1.483-1.566l-1.386-1.678
						c-0.451-0.567-0.895-1.137-1.301-1.734c-0.383-0.626-0.739-1.268-1.055-1.932c-2.768-5.785-3.986-12.238-6.999-17.809
						c-3.253-6.003-4.026-13.181-6.681-19.681c-0.644-1.623-1.314-3.242-2-4.859l-1.99-4.934c-0.634-1.674-1.281-3.334-1.864-5.04
						c-0.557-1.695-1.184-3.455-1.578-5.131c-0.487-1.972-0.942-3.954-1.364-5.94c-0.412-1.989-0.86-3.966-1.044-6.004
						c-0.297-2.559-0.696-5.087-1.159-7.604c-0.263-1.251-0.401-2.533-0.593-3.802l-0.583-3.81l-0.615-3.807
						c-0.22-1.267-0.301-2.565-0.454-3.847c-0.268-2.572-0.515-5.147-0.699-7.727c-0.072-2.353,0.108-4.708,0.355-7.043
						c0.251-2.337,0.561-4.653,0.993-6.996c0.39-2.334,0.732-4.659,0.894-6.991c0.064-1.162,0.135-2.338,0.163-3.525
						c0.019-1.184-0.024-2.373-0.146-3.571c-0.6-5.072-0.353-11.93-7.561-16.835c-1.749-1.194-4.965-1.778-7.818-2.002
						c4.69,0.345-5.437,5.46-5.92,5.901c-2.906,2.421-4.369,5.228-6.313,7.928c-3.833,5.215-8.917,10.015-9.907,15.957
						c-1.219,6.177-1.28,12.458-1.155,18.705c0.148,3.133,0.463,6.273,0.75,9.408c0.165,1.568,0.27,3.136,0.492,4.707
						c0.224,1.571,0.448,3.143,0.672,4.717c0.387,2.676,0.743,5.351,1.233,8.012l1.684,7.958l0.837,3.976l1.012,3.944
						c0.668,2.631,1.312,5.269,1.91,7.92c0.339,1.618,0.735,3.087,1.065,4.668c0.345,1.567,0.692,3.145,1.041,4.729
						c0.346,1.589,0.703,3.188,1.114,4.795C18.886,256.109,19.274,257.71,19.773,259.312z"/>
				</g>
			</g>
		</g>
	</g>
	<g>
		<g>
			<g>
				<path fill="#FFFFFF" d="M325.341,152.3l-0.137-0.111C325.25,152.256,325.246,152.336,325.341,152.3z"/>
				<path fill="#FFFFFF" d="M332.61,175.876l-0.373-0.117C332.357,175.821,332.489,175.855,332.61,175.876z"/>
				<path fill="#FFFFFF" d="M361.384,197.567L361.158,198C361.299,197.813,361.36,197.68,361.384,197.567z"/>
				<g>
					<path fill="#FFFFFF" d="M369.912,170.695c0.06-5.877-0.998-11.75-3.06-17.126c-2.041-5.392-5.178-10.221-8.948-14.279
						c-3.909-4.182-8.494-7.524-13.31-10.27c-4.841-2.744-9.876-4.941-15.362-6.802c-1.449-0.454-3.071-0.979-4.187-1.199
						l-1.838-0.431l-1.892-0.372c-2.511-0.502-5.153-0.828-7.834-0.981c-1.335-0.089-2.721-0.043-4.073-0.039
						c-1.384,0.082-2.733,0.19-4.143,0.37c-0.736,0.12-1.471,0.249-2.2,0.388c-0.736,0.145-1.425,0.264-2.252,0.504
						c-0.794,0.216-1.581,0.448-2.358,0.694l-1.156,0.382l-1.118,0.477c-3.014,1.207-5.717,2.917-8.148,4.855
						c-2.443,1.943-4.492,4.318-6.124,6.934c-1.641,2.614-2.876,5.479-3.692,8.493c-0.803,3.019-1.173,6.182-1.13,9.384
						c-0.002,0.776,0.045,1.543,0.144,2.294c0.089,0.754,0.182,1.524,0.349,2.217l0.241,1.061l0.129,0.527l0.196,0.739l0.009,0.023
						l0.018,0.045l0.035,0.091l0.07,0.182l0.29,0.727l0.148,0.362l0.306,0.696c0.243,0.534,0.504,1.062,0.779,1.578l0.423,0.766
						l0.217,0.367l0.197,0.274c0.531,0.724,1.071,1.456,1.645,2.114c0.59,0.619,1.191,1.221,1.8,1.804
						c0.625,0.525,1.26,1.024,1.895,1.515c2.574,1.852,5.241,3.109,7.91,4.125c2.677,1.014,5.367,1.771,8.219,2.381
						c3.031,0.666,6.304,1.134,9.843,0.704c0.218-0.03,0.534-0.124,0.918-0.272c0.192-0.074,0.402-0.162,0.624-0.262l0.169-0.077
						l0.087-0.04l0.043-0.021l0.388-0.138l0.003-0.002l0.007-0.004l0.013-0.009c0.068-0.049,0.139-0.099,0.21-0.151
						c-0.019-0.016,0.348-0.188,0.624-0.341l0.428-0.241l0.214-0.126l0.122-0.087c0.147-0.112,0.297-0.226,0.449-0.341
						c0.147-0.116,0.229-0.202,0.347-0.308c0.416-0.395,0.651-0.712,0.634-0.88l0.008-0.074l-0.023-0.021
						c-0.003-0.004,0,0.003-0.009-0.012l-0.067-0.128l-0.133-0.258c-0.176-0.345-0.344-0.693-0.505-1.044l-0.236-0.529
						c-0.077-0.177-0.104-0.212-0.156-0.327c-0.184-0.383-0.346-0.777-0.484-1.178c-0.124-0.329-0.198-0.5-0.272-0.768
						c-0.269-0.866-0.233-1.251-0.233-1.251c0.012-0.081-0.023,0.175-0.143,0.439c-0.077,0.159-0.146,0.302-0.206,0.426
						c-0.078,0.146-0.153,0.259-0.216,0.346c-0.121,0.15,0.002,0.031,0.204-0.324c0.049-0.09,0.102-0.197,0.15-0.32
						c0.038-0.064,0.076-0.141,0.109-0.229c0.076-0.241,0.088-0.253,0.104-0.37c0.008-0.041-0.065,0.336,0.238,1.31l0.015,0.049
						l-0.004-0.013l-0.01-0.027l-0.021-0.054c-0.016-0.035-0.025-0.076-0.055-0.1c-0.054-0.054-0.105-0.105-0.154-0.153
						c-0.107-0.092-0.243-0.136-0.331-0.183c-0.681-0.24-1.646-0.204-3.055-0.181l-0.38-0.076l-0.023-0.004l-0.012-0.002
						c-0.121,0.042-0.035,0.011-0.063,0.021l-0.003-0.001l-0.007-0.001l-0.052-0.013l-0.103-0.025l-0.204-0.051l-0.803-0.207
						c-0.526-0.138-1.029-0.268-1.521-0.471c-0.469-0.18-0.933-0.358-1.383-0.531c-0.423-0.203-0.834-0.399-1.225-0.587
						c-0.753-0.325-1.392-0.753-1.894-0.957c-2.027-1.015-3.271-1.983-4.465-2.861c-1.152-0.937-2.287-1.78-3.546-3.006
						c-0.627-0.643-1.179-1.298-1.566-1.963c-0.184-0.334-0.401-0.646-0.49-0.975l-0.192-0.466
						c-0.015-0.112,0.019-0.167,0.009-0.235c-0.002-0.032-0.006-0.061-0.014-0.088c-0.01-0.049-0.012,0.014-0.046-0.197
						l-0.164-0.914l-0.081-0.457l-0.01-0.057l-0.006-0.029l-0.002-0.014l-0.001-0.007c0.055,0.206-0.125-0.472,0.122,0.461v-0.087
						l-0.002-0.174l-0.01-0.689c0.011-0.904,0.1-1.725,0.264-2.522c0.638-3.16,2.628-5.904,5.525-6.573
						c2.261-0.53,3.806-0.932,5.448-1.199c0.413-0.064,0.745-0.14,1.409-0.177l0.875-0.091c0.293-0.033,0.688-0.007,1.025-0.012
						l1.051,0.013l1.073,0.138c0.358,0.057,0.706,0.095,1.065,0.185c0.361,0.097,0.72,0.201,1.073,0.314
						c1.53,0.478,3.086,1.197,4.627,1.948l1.175,0.618l0.586,0.309c0.185,0.102,0.429,0.206,0.492,0.299
						c0.207,0.19,0.41,0.368,0.611,0.534c0.2,0.155,0.401,0.316,0.611,0.543c1.65,1.526,3.316,3.35,5.214,5.141
						c2.049,1.917,3.424,4.655,4.256,7.371c0.85,2.744,1.203,5.434,1.685,8.002c0.192,0.634,0.173,1.279,0.298,1.921
						c0.146,0.643,0.115,1.291,0.171,1.943c0.016,0.33,0.07,0.646,0.07,0.993l-0.007,1.039c-0.019,0.66-0.051,1.28-0.107,1.826
						c-0.058,0.541-0.121,1.04-0.208,1.43l-0.056,0.304l-0.069,0.247c-0.038,0.2-0.078,0.273-0.099,0.381
						c-0.087,0.393-0.292,0.729-0.58,0.992c-0.47,0.391-0.189,0.211-2.467,1.254c-1.753,0.706-3.509,1.283-5.233,1.639
						c-4.362,0.878-8.349,1.177-12.563,0.628c-2.103-0.277-4.255-0.78-6.438-1.545l-0.819-0.298l-0.411-0.146l-0.463-0.2
						l-1.867-0.814l-0.933-0.408l-0.881-0.458l-1.76-0.917c-4.177-2.301-7.179-5.716-9.421-9.047
						c-2.274-3.377-3.847-6.582-6.153-9.787c-0.327-0.413-0.572-0.918-0.89-1.398c-0.288-0.501-0.672-0.962-0.957-1.523
						c-0.604-1.095-1.403-2.159-2.222-3.328c-0.426-0.572-0.942-1.115-1.472-1.68c-0.509-0.577-1.09-1.138-1.755-1.679
						c-1.372-1.061-2.89-2.144-4.917-3.055c-1.959-0.888-5.244-0.944-8.09-0.653c2.341-0.225,1.298,1.516-0.358,3.583
						c-0.883,1.073-1.787,2.17-2.502,3.038c-0.745,0.902-1.316,1.598-1.401,1.752c-2.085,3.767-2.152,7.749-2.635,11.938
						c-0.178,2.021-0.36,4.088-0.482,6.196c-0.019,1.04-0.026,2.093-0.012,3.157c0.02,1.063,0.031,2.149,0.177,3.196
						c0.263,2.104,0.574,4.298,1.313,6.339c0.346,1.036,0.745,2.068,1.206,3.089c0.5,0.984,1.072,1.949,1.708,2.896l1.013,1.482
						c0.348,0.486,0.727,0.937,1.095,1.403c0.743,0.925,1.502,1.843,2.275,2.751c0.798,0.869,1.626,1.701,2.457,2.54l1.26,1.246
						c0.428,0.4,0.871,0.77,1.311,1.153c0.882,0.759,1.773,1.509,2.675,2.249c0.911,0.706,1.844,1.363,2.776,2.033
						c1.859,1.382,3.796,2.482,5.73,3.657c0.968,0.583,1.952,1.055,2.935,1.578c0.983,0.496,1.969,1.043,2.961,1.479l2.982,1.325
						c0.508,0.219,0.978,0.436,1.517,0.653l1.685,0.645c4.497,1.701,9.304,2.994,14.297,3.754c4.238,0.644,8.607,0.883,12.935,0.6
						c4.326-0.268,8.597-0.986,12.688-2.064c4.096-1.074,8.018-2.503,11.694-4.188c0.937-0.396,1.842-0.862,2.756-1.31l1.367-0.679
						c0.182-0.083,0.59-0.316,0.886-0.48l0.959-0.545c2.537-1.483,4.937-3.218,7.083-5.236c2.584-2.392,4.878-5.15,6.797-8.194
						c0.481-0.762,0.951-1.533,1.363-2.322c0.421-0.783,0.86-1.6,1.189-2.34c0.728-1.528,1.323-3.037,1.858-4.54
						c1.058-3.003,1.735-5.888,2.207-8.652c0.242-1.415,0.422-2.69,0.538-4.103C369.776,173.508,369.856,172.102,369.912,170.695z"
						/>
				</g>
			</g>
		</g>
	</g>
	<g>
		<g>
			<g>
				<path fill="#FFFFFF" d="M175.652,270.358l0.156-0.003C175.74,270.338,175.698,270.288,175.652,270.358z"/>
				<path fill="#FFFFFF" d="M153.764,266.913l0.099-0.299C153.804,266.71,153.777,266.816,153.764,266.913z"/>
				<path fill="#FFFFFF" d="M143.492,293.619l-0.154,0.009C143.406,293.653,143.453,293.643,143.492,293.619z"/>
				<g>
					<path fill="#FFFFFF" d="M153.313,296.77c2.25,0.453,4.539,0.683,6.846,0.678c2.309,0.025,4.618-0.38,6.934-0.921
						c2.382-0.602,4.765-1.341,7.101-2.062c2.34-0.702,4.651-1.23,6.941-1.184c2.429,0.08,4.818,0.137,7.22,0.152
						c2.396-0.011,4.809-0.051,7.211-0.527c4.841-0.902,9.482-0.482,14.254-0.145c2.339,0.158,4.426-0.234,7.39-0.843
						c1.38-0.225,2.691-0.674,4.024-0.938c1.344-0.229,2.641-0.558,4.023-0.652c1.493-0.049,2.987-0.138,4.498-0.339
						c0.186-0.023,0.502-0.223,0.872-0.522c0.091-0.077,0.187-0.158,0.286-0.242l0.148-0.133l0.075-0.069l0.009-0.009l0.002-0.002
						l0.001-0.001l0.789-0.394l0.003-0.005l0.013-0.019l0.025-0.037c0.135-0.198,0.271-0.412,0.404-0.634l0.049-0.083l0.318-0.273
						c0.217-0.191,0.427-0.395,0.626-0.604c0.399-0.419,0.754-0.868,1.05-1.314l0.212-0.334c0.062-0.107,0.072-0.162,0.109-0.245
						c0.057-0.153,0.113-0.305,0.169-0.453c0.104-0.299,0.19-0.588,0.261-0.861c0.034-0.135,0.069-0.276,0.09-0.394
						c-0.004-0.078-0.008-0.153-0.011-0.227c-0.014-0.146-0.026-0.282-0.038-0.406c-0.031-0.248-0.075-0.448-0.127-0.587
						c-0.099-0.246-0.82,0.063-1.623,0.447c-0.254,0.176-0.518,0.346-0.774,0.497c-0.278,0.155-0.554,0.309-0.814,0.453
						c-0.651,0.35-1.215,0.516-1.528,0.591c-0.317-0.044-0.581-0.146-0.893-0.217l-0.229-0.058l-0.029-0.008l-0.007-0.001
						c-0.396,0.196-0.111,0.054-0.2,0.098l-0.001-0.001l-0.004-0.001l-0.015-0.006l-0.058-0.021l-0.118-0.044
						c-0.155-0.059-0.313-0.117-0.472-0.177c-0.61-0.225-1.247-0.46-1.869-0.689c-1.199-0.428-2.246-0.789-2.932-0.998
						c-1.304-0.334-2.26-0.578-3.22-0.824c-0.918-0.259-1.794-0.363-2.96-0.455c-0.597-0.091-1.191-0.181-1.784-0.271l-0.872-0.126
						c-0.284-0.039-0.657-0.118-0.979-0.176c-1.339-0.253-2.672-0.521-4-0.843c-2.655-0.646-5.304-1.481-7.917-2.902
						c-2.116-1.135-4.303-1.396-6.505-1.518c-2.196-0.136-4.392-0.185-6.52-0.794c-4.632-1.272-9.038-3.606-13.662-3.846
						c-4.875-0.455-9.536-2.538-14.294-3.116c-4.761-0.398-9.479-0.756-14.145-1.648c-2.668-0.662-5.304-1.453-7.904-2.338
						c-6.537-2.308-12.927-3.762-18.331-6.626c-2.454-1.282-4.33-3.305-6.008-5.258c-0.875-0.949-1.631-1.96-2.521-2.802
						c-0.813-0.92-1.765-1.666-2.793-2.374c-2.288-1.473-4.613-3.862-10.948-2.584c-1.56,0.325-3.843,1.596-5.746,2.869
						c1.568-1.04,1.245,0.252,0.572,1.948c-0.686,1.692-1.675,3.804-1.708,4.022c-0.32,1.368-0.336,2.615-0.258,3.837
						c0.093,1.211,0.33,2.356,0.445,3.622c0.104,1.235,0.231,2.458,0.374,3.702c0.15,1.236,0.286,2.526,0.573,3.708
						c0.271,1.199,0.618,2.375,1.088,3.482c0.495,1.07,1.116,2.066,1.896,2.946c3.312,3.624,7.297,6.452,11.434,8.677
						c4.146,2.232,8.443,3.88,12.655,5.365c3.585,1.253,7.15,2.225,10.661,3.1c3.508,0.793,7.002,1.629,10.47,2.577
						c2.079,0.485,4.171,1.097,6.286,1.721C149.019,295.703,151.158,296.371,153.313,296.77z"/>
				</g>
			</g>
		</g>
	</g>
	<g>
		<g>
			<g>
				<path fill="#FFFFFF" d="M200.224,178.593l0.164,0.011C200.318,178.576,200.282,178.51,200.224,178.593z"/>
				<path fill="#FFFFFF" d="M186.854,169.888l0.393-0.028C187.109,169.846,186.974,169.863,186.854,169.888z"/>
				<path fill="#FFFFFF" d="M151.363,164.192l-0.03-0.343C151.309,164.012,151.328,164.114,151.363,164.192z"/>
				<g>
					<path fill="#FFFFFF" d="M154.688,188.948c0.686,1.53,1.636,2.97,2.535,4.403c0.996,1.35,2.004,2.758,3.15,3.933
						c0.565,0.604,1.143,1.196,1.73,1.774c0.594,0.542,1.2,1.06,1.813,1.572c0.614,0.523,1.234,1.004,1.859,1.428
						c0.626,0.439,1.258,0.868,1.896,1.283c5.083,3.108,10.139,4.587,14.704,5.151c2.345,0.265,4.632,0.364,6.777,0.305
						c2.171-0.023,4.633-0.104,6.964-0.268c4.786-0.38,9.646-1.014,14.669-2.044c2.66-0.494,5.309-1.363,7.829-2.411
						c2.53-1.072,4.862-2.46,7.015-3.992c1.016-0.804,2.084-1.595,2.985-2.476c0.424-0.399,1.032-0.977,1.534-1.479
						c0.513-0.523,0.981-1.067,1.458-1.611c1.908-2.156,3.397-4.655,4.301-7.359c1.828-5.418,2.44-10.944,1.968-16.358
						c-0.129-1.359-0.328-2.685-0.624-4.042c-0.307-1.363-0.718-2.796-1.306-4.242l-0.47-1.091l-0.121-0.271l-0.03-0.068
						l-0.015-0.034l-0.008-0.017l-0.175-0.328l-0.04-0.078l-0.159-0.311c-0.119-0.228-0.182-0.371-0.346-0.668
						c-0.244-0.415-0.497-0.828-0.758-1.235c-0.269-0.43-0.52-0.773-0.773-1.109c-0.262-0.342-0.502-0.68-0.795-1.019
						c-0.59-0.678-1.191-1.342-1.919-1.979c-2.661-2.501-6.853-4.156-10.627-4.125c-3.83-0.053-6.939,1.183-9.415,2.523
						c-0.801,0.495-1.565,0.978-2.337,1.429c-0.729,0.423-1.489,0.855-2.228,1.205c-1.481,0.705-2.992,1.238-4.475,1.357
						c-0.396,0.03-0.792,0.047-1.186,0.057c-0.384-0.016-0.757-0.057-1.129-0.089c-0.755-0.034-1.438-0.216-2.1-0.318
						c-0.165-0.022-0.464,0.129-0.823,0.319c-0.182,0.104-0.384,0.234-0.601,0.384c-0.109,0.078-0.221,0.158-0.334,0.239
						l-0.173,0.129l-0.011,0.008l-0.005,0.004l-0.002,0.002c0.126,3.125-0.285-6.994,0.283,7.006l-0.002-0.003l-0.029-0.047
						l-0.059-0.094l-0.118-0.188c-0.292-0.146,0.003-0.792,0.276-1.126c0.035-0.056,0.079-0.072,0.111-0.157l0.097-0.296
						c0.067-0.195,0.14-0.387,0.218-0.575s0.161-0.373,0.249-0.553l0.135-0.268c0.047-0.089,0.082-0.14,0.189-0.387
						c0.18-0.398,0.366-0.791,0.558-1.178l0.291-0.575c0.093-0.179,0.237-0.452,0.19-0.355c-0.023,0.035,0.002,0.105-0.074,0.11
						c-0.122,0.027-0.197,0.086-0.358,0.09c-0.554,0.056-1.627-0.174-2.143-0.133c-0.512-0.003,0.465,1.258,0.683,2.256
						c0.167,0.523,0.154,0.931,0.144,1.283c-0.023,0.074-0.045,0.145-0.066,0.213l-0.026,0.105l-0.086,0.264
						c-0.028,0.078-0.067,0.089-0.097,0.138c-0.251,0.315-0.391,0.661-0.437,0.912c0.07,0.112,0.142,0.226,0.215,0.341l0.11,0.175
						l0.027,0.044l0.002,0.003c0.179,1.084-0.242-1.475-0.198-1.21l0.003,0.003l0.007,0.005l0.014,0.012l0.057,0.045
						c0.155,0.12,0.314,0.243,0.477,0.368c0.331,0.248,0.686,0.501,1.061,0.753c0.752,0.536,1.579,0.928,2.426,1.326
						c0.852,0.415,1.703,0.691,2.492,0.917c0.793,0.234,1.519,0.389,2.08,0.424c4.612,0.375,6.879,0.179,10.986-0.989l0.786-0.228
						l0.392-0.114l0.199-0.058l0.129-0.021c0.346-0.066,0.677-0.121,0.979-0.129c0.605-0.026,1.116,0.034,1.46,0.188
						c0.689,0.343,0.769,0.758,0.992,1.426c0.044,0.203,0.098,0.372,0.138,0.611c0.009,0.052,0.028,0.11,0.029,0.154l-0.032,0.104
						l-0.026,0.09l-0.01,0.041l0.055,0.182l0.238,0.781l0.029,0.098l0.002,0.006c0.031,0.059-0.262-0.486-0.138-0.254l0,0.006
						l-0.001,0.012l-0.002,0.025l-0.01,0.097l-0.019,0.19c-0.011,0.227-0.067,0.523-0.115,0.792
						c-0.037,0.254-0.146,0.588-0.208,0.875c-0.095,0.315-0.204,0.642-0.321,0.945c-0.275,0.617-0.601,1.188-1.029,1.695
						c-1.363,1.602-1.918,2.786-2.7,4.015c-0.376,0.606-0.877,1.127-1.428,1.566c-0.16,0.104-0.23,0.145-0.451,0.306
						c-0.218,0.163-0.438,0.321-0.67,0.426c-0.455,0.242-0.914,0.465-1.395,0.555c-1.026,0.274-2.014,0.288-2.941,0.18
						c-0.917-0.079-1.8-0.337-2.69-0.594c-1.761-0.515-3.699-1.22-6.148-1.651c-0.331-0.066-0.669-0.153-1.001-0.236l-0.499-0.132
						l-0.576-0.187c-0.784-0.248-1.499-0.538-2.194-0.841c-1.347-0.62-2.585-1.31-3.51-2.008c-0.926-0.696-1.665-1.362-2.12-1.883
						c-0.449-0.527-0.685-0.877-0.944-1.043c-0.22-0.178-0.397-0.314-0.67-0.563c-0.087-0.174-0.27-0.294-0.368-0.572l-0.105-0.179
						l-0.06-0.089l-0.058-0.2l-0.248-0.799c-0.286-1.058-0.533-2.112-0.593-3.132c-0.106-1.029-0.053-2.027,0.118-2.993
						c0.185-1.131,0.558-2.204,1.068-3.231c0.512-1.026,1.13-2.019,1.962-2.934c0.509-0.583,1.034-1.169,1.616-1.751
						c0.262-0.302,0.58-0.585,0.884-0.878l0.446-0.445l0.437-0.376c1.148-1.022,2.302-1.893,3.66-2.7
						c2.655-1.615,6.479-2.929,11.517-3.758c1.127-0.19,2.318-0.313,3.566-0.398l0.917-0.053l0.715,0.017l1.42,0.053
						c1.855,0.208,3.648,0.497,5.292,0.991c0.419,0.092,0.825,0.22,1.223,0.351l1.191,0.352c0.771,0.283,1.547,0.471,2.294,0.736
						c1.519,0.438,2.995,0.866,4.628,1.114c1.744,0.244,3.707,0.907,6.132,1.074c2.43,0.167,5.381-0.165,9.249-1.846
						c1.88-0.836,4.22-3.126,6.049-5.327c-1.516,1.801-1.794-0.044-1.866-2.532c-0.092-2.419-0.043-5.548-0.139-5.847
						c-0.819-3.903-3.145-6.59-5.328-9.714c-2.133-3.027-4.436-6.111-7.247-8.815c-2.818-2.646-6.176-4.826-10.1-5.806
						c-4.104-0.991-8.302-1.409-12.426-1.396c-1.026,0.018-2.058,0.038-3.082,0.09l-3.034,0.269l-0.758,0.077l-0.622,0.075
						l-1.237,0.156l-2.549,0.37c-3.477,0.558-7.237,1.348-11.216,2.563c-3.968,1.207-8.179,2.876-12.3,5.167
						c-3.5,1.925-6.87,4.327-9.867,7.036l-2.184,2.08l-1.989,2.124c-1.291,1.47-2.558,2.973-3.721,4.61
						c-4.722,6.436-8.242,14.295-9.75,22.512c-0.951,4.895-1.326,9.97-1.022,14.935c0.102,1.228,0.155,2.495,0.339,3.701
						c0.179,1.25,0.277,2.326,0.654,3.903l0.518,2.197c0.19,0.733,0.457,1.488,0.7,2.229c0.261,0.743,0.495,1.481,0.81,2.219
						C154.01,187.484,154.343,188.219,154.688,188.948z"/>
				</g>
			</g>
		</g>
	</g>
	<g>
		<g>
			<g>
				<path fill="#FFFFFF" d="M150.859,254.496l-0.135-0.001C150.783,254.514,150.816,254.565,150.859,254.496z"/>
				<path fill="#FFFFFF" d="M168.36,258.079l-0.125,0.289C168.297,258.276,168.334,258.174,168.36,258.079z"/>
				<path fill="#FFFFFF" d="M181.387,232.721l0.14,0.009C181.47,232.697,181.426,232.701,181.387,232.721z"/>
				<g>
					<path fill="#FFFFFF" d="M172.536,228.577c-1.113-0.319-2.245-0.58-3.386-0.78c-1.157-0.181-2.253-0.387-3.496-0.355
						c-1.214-0.002-2.43,0.06-3.636,0.19c-1.162,0.137-2.56,0.3-3.272,0.643c-0.891,0.325-1.795,0.705-2.711,1.09
						c-0.234,0.095-0.448,0.195-0.7,0.287l-0.786,0.268l-1.564,0.511c-0.52,0.161-1.037,0.312-1.553,0.445l-0.771,0.187l-0.85,0.177
						c-1.13,0.215-2.241,0.34-3.347,0.324l-0.877-0.018l-0.948,0.039l-1.894,0.077l-1.886,0.086
						c-0.306,0.02-0.645,0.025-0.922,0.062l-0.829,0.115c-2.206,0.32-4.399,0.708-6.545,1.58c-4.297,1.613-8.57,2.31-13.04,3.24
						c-2.13,0.557-4.098,1.61-5.956,2.854c-0.939,0.594-1.876,1.164-2.854,1.628c-0.958,0.511-1.949,0.938-3.042,1.17
						c-1.17,0.24-2.43,0.312-3.604,0.604c-0.601,0.135-2.292,3.041-2.341,3.992c-0.025,0.427,2.355,1.265,2.977,1.495
						c2.088,0.707,4.927,1.563,6.21,1.766c2.569,0.311,3.674,0.416,5.887,0.083c2.238-0.433,4.487-0.663,6.716-0.759
						c2.279,0.056,4.536,0.241,6.894,1.189c0.948,0.37,1.836,0.489,2.729,0.547c0.895,0.067,1.771,0.008,2.645-0.088l1.309-0.157
						c0.443-0.033,0.887-0.063,1.331-0.079c0.887-0.032,1.776-0.009,2.662,0.163c0.904,0.22,1.617,0.585,2.397,0.888l1.119,0.466
						l1.255,0.564c0.85,0.37,1.642,0.679,2.521,0.938c0.972,0.296,1.952,0.513,2.949,0.606c0.988,0.094,2.298,0.316,3.48,0.583
						c0.603,0.135,1.204,0.281,1.807,0.435l0.452,0.116c0.127,0.039,0.212,0.077,0.321,0.116l0.614,0.233
						c1.637,0.627,3.192,1.107,4.965,1.485c0.865,0.153,1.726,0.234,2.623,0.371l2.755,0.533c1.815,0.287,3.788,0.915,5.637,1.562
						c2.181,0.828,4.352,1.891,6.45,2.983c5.25,2.971,10.972,4.96,16.253,8.034c4.783,2.819,7.86,8.061,13.085,10.204
						c2.802,1.105,6.22,3.174,11.712-0.363c1.334-0.859,2.965-2.893,4.262-4.779c-2.118,3.108-0.544-5.258-0.57-5.713
						c-0.029-2.682-0.886-4.44-1.434-6.573c-1.038-4.155-1.39-8.99-3.906-11.495c-2.583-2.67-5.603-4.725-8.699-6.615
						c-3.165-1.815-6.419-3.456-9.755-5.043c-2.787-1.419-5.732-2.575-8.627-3.801c-1.44-0.627-2.944-1.148-4.402-1.75
						c-1.485-0.577-2.888-1.222-4.411-1.816c-1.819-0.72-3.539-1.607-5.451-2.43C176.53,230.093,174.627,229.225,172.536,228.577z"
						/>
				</g>
			</g>
		</g>
	</g>
	<g>
		<g>
			<g>
				<path fill="#FFFFFF" d="M438.65,206.21l-0.094,0.113C438.615,206.289,438.687,206.303,438.65,206.21z"/>
				<path fill="#FFFFFF" d="M453.836,190.092l0.289,0.265C454.044,190.246,453.938,190.16,453.836,190.092z"/>
				<path fill="#FFFFFF" d="M426.999,166.867l0.007-0.099C426.971,166.795,426.977,166.83,426.999,166.867z"/>
				<g>
					<path fill="#FFFFFF" d="M422.206,170.749c-0.865,0.99-1.723,2.086-2.312,3.416c-0.299,0.663-0.539,1.382-0.741,2.157
						c-0.253,0.764-0.456,1.584-0.611,2.466c-0.313,1.813-0.456,3.87-0.94,5.772c-0.458,1.905-1.028,3.696-2.26,4.941
						c-2.499,2.646-5.507,4.824-7.611,8.266c-0.537,0.869-1.135,1.653-1.779,2.375c-0.621,0.698-1.405,1.458-1.932,1.859
						c-0.591,0.453-1.197,0.945-1.839,1.283c-0.644,0.328-1.285,0.683-1.938,0.964c-0.639,0.232-1.159,0.663-1.663,1.167
						c-0.522,0.439-1.02,0.978-1.548,1.51c-0.558,0.462-1.149,0.907-1.789,1.23c-0.666,0.273-1.398,0.381-2.154,0.256
						c-0.832-0.179-1.71-0.644-2.509-0.925c-0.362-0.144-2.173,2.167-2.552,3.231c-0.178,0.473,1.272,2.697,1.729,3.283
						c1.39,1.964,3.787,4.244,5.063,4.895c2.521,1.172,3.84,1.662,6.364,1.371c0.664-0.048,1.309-0.167,1.954-0.299l1.957-0.388
						c1.292-0.299,2.563-0.674,3.911-0.976c1.272-0.382,2.626-0.711,4.028-1.014c1.335-0.321,2.847-0.629,4.353-0.77
						c2.218-0.093,3.775-1.059,5.226-2.164c1.47-1.127,2.853-2.422,4.674-3.111c1.975-0.756,4.153-1.439,6.21-2.223
						c2.059-0.792,4.036-1.912,5.591-3.405c1.649-1.614,3.654-3.033,5.678-4.388c2.004-1.42,3.97-3.042,5.506-4.977
						c1.465-2.001,2.743-4.18,4.052-6.28c1.225-2.19,2.392-4.41,3.76-6.49l0.966-1.441c0.304-0.439,0.615-0.873,0.934-1.302
						c0.643-0.862,1.285-1.687,2.006-2.521c1.968-2.216,3.468-4.495,5.203-7.196l2.517-3.991c0.872-1.415,1.762-2.815,2.708-4.182
						c0.86-1.182,1.881-2.494,2.986-3.665c1.099-1.21,2.298-2.313,3.416-3.592c1.101-1.333,2.165-2.715,3.066-4.194
						c0.45-0.739,0.859-1.502,1.211-2.293c0.228-0.577,0.456-1.237,0.648-1.865l0.273-0.962l0.063-0.242l0.027-0.161l0.042-0.307
						c0.028-0.216,0.058-0.438,0.087-0.663l0.047-0.34c0.004-0.045,0.024-0.142,0.015-0.145l-0.028-0.018
						c-0.087-0.048-0.177-0.098-0.268-0.148c-0.209-0.122-0.495-0.302-0.938-0.638c-0.438-0.336-1.022-0.824-1.799-1.587
						c-0.934-0.574-0.959-2.713-1.719-5.218c-0.807-2.274-3.688-3.841-6.292-5c1.077,0.469,1.164,0.894,0.683,1.217
						c-0.478,0.296-1.509,0.542-2.568,0.33c-1.085-0.162-2.185-0.572-3.137-0.829c-0.946-0.272-1.688-0.45-1.821-0.464
						c-1.64-0.186-2.959,0.07-4.207,0.466c-1.165,0.447-2.289,1.029-3.5,1.652c-0.618,0.314-1.23,0.626-1.838,0.935
						c-0.323,0.204-0.587,0.223-0.874,0.309l-0.849,0.214c-0.279,0.059-0.569,0.163-0.838,0.181l-0.772-0.034
						c-0.505-0.031-0.986-0.079-1.437-0.136c-2.143,0.272-3.98,0.64-4.966,1.444c-0.525,0.428-0.98,0.862-1.439,1.321
						c-0.513,0.473-0.988,0.959-1.435,1.459s-0.862,1.013-1.255,1.539l-1.181,1.639c-0.837,1.153-1.612,2.344-2.371,3.548
						c-0.36,0.586-0.79,1.236-1.223,1.887l-1.298,1.936c-1.441,2.102-3.001,4.639-4.513,7.035l-0.572,0.905l-0.593,0.977
						l-1.206,1.956l-1.239,1.934l-0.638,0.957l-0.324,0.476l-0.24,0.315c-0.77,0.982-1.667,1.899-2.558,2.81
						c-0.42,0.468-0.958,0.879-1.438,1.318C423.12,169.839,422.648,170.284,422.206,170.749z"/>
				</g>
			</g>
		</g>
	</g>
	<g>
		<g>
			<g>
				<path fill="#FFFFFF" d="M72.386,179.654l0.07,0.033C72.44,179.655,72.462,179.597,72.386,179.654z"/>
				<path fill="#FFFFFF" d="M65.134,170.849l0.328-0.215C65.343,170.695,65.231,170.774,65.134,170.849z"/>
				<path fill="#FFFFFF" d="M34.692,188.852l-0.1-0.059C34.609,188.843,34.647,188.854,34.692,188.852z"/>
				<g>
					<path fill="#FFFFFF" d="M37.826,195.809c0.936,1.431,2.269,2.656,3.717,3.674c1.427,1.029,3.237,1.776,5.18,2.26
						c1.001,0.25,2.039,0.435,3.067,0.599c1.045,0.155,2.14,0.254,3.154,0.399c2.068,0.261,3.827,0.722,5.374,1.548
						c0.796,0.46,1.569,0.944,2.339,1.426c0.773,0.478,1.521,0.982,2.368,1.355c1.639,0.77,3.408,1.51,5.208,1.712
						c3.451,0.172,6.042,1.764,8.745,3.435c0.65,0.403,1.387,0.619,2.157,0.752c0.727,0.11,1.484,0.136,2.235,0.19
						c1.5,0.107,2.965,0.321,3.977,1.479c0.536,0.627,0.965,1.453,1.459,2.146c0.238,0.343,2.881-0.811,3.67-1.557
						c0.356-0.335,0.407-2.907,0.402-3.6c-0.014-2.248-0.271-5.321-0.65-6.426c-0.762-2.237-1.149-3.248-2.463-4.482
						c-0.684-0.632-1.364-1.261-2.042-1.887c-0.651-0.624-1.266-1.256-1.86-1.95c-1.182-1.386-2.236-3.004-2.988-5.184
						c-0.58-1.76-1.77-2.552-2.848-3.179c-0.91-0.615-1.932-1.075-2.53-2.131c-0.616-1.204-0.993-2.673-1.461-3.875
						c-0.245-0.581-0.447-1.246-0.733-1.771c-0.282-0.535-0.623-0.984-1.07-1.316c-0.489-0.327-0.849-0.843-1.157-1.402
						c-0.312-0.553-0.574-1.146-0.836-1.726c-0.271-0.559-0.508-1.183-0.794-1.759c-0.291-0.568-0.636-1.08-1.098-1.496
						c-1.778-1.703-4.022-3.253-5.498-5.508c-0.894-1.243-1.552-2.779-2.145-4.262c-0.091-0.238-0.188-0.473-0.29-0.705
						c-0.092-0.221-0.102-0.329-0.166-0.493c-0.108-0.317-0.225-0.534-0.392-0.94c-0.162-0.377-0.33-0.692-0.528-1.101
						c-0.2-0.423-0.409-0.842-0.625-1.259c-0.89-1.806-1.928-3.928-2.871-6.389c-0.848-2.226-1.078-5.057-1.795-8.077
						c-0.763-3.042-2.211-6.491-5.408-9.225c-0.899-0.735-1.851-1.538-2.918-2.265c-1.178-0.744-2.469-1.404-3.846-1.808
						c-1.341-0.283-2.765-0.306-4.233,0.051c-1.482,0.388-3.04,1.232-4.56,2.565c-1.488,1.301-3.024,4.168-4.246,6.753
						c0.99-2.133,1.218-0.617,0.953,1.377c-0.225,1.979-1.089,4.484-1.156,4.718c-0.355,1.442-0.494,2.468-0.739,3.44
						c-0.243,0.967-0.468,1.773-0.88,2.667c-0.411,0.915-0.931,1.812-1.496,2.635c-0.564,0.816-1.176,1.703-1.748,2.412l-0.82,1.021
						l-0.695,0.964c-0.408,0.603-0.703,1.004-0.773,1.463c-0.076,0.457-0.122,0.812-0.12,1.254c0.002,0.455,0.037,0.883,0.102,1.292
						c0.072,0.469,0.174,0.937,0.299,1.383c0.123,0.435,0.291,0.987,0.463,1.461c0.718,2.01,1.771,4.263,2.938,6.949
						c0.532,1.192,1.073,2.344,1.783,3.667c0.595,1.169,1.587,2.834,2.295,3.963c0.686,1.036,1.366,2.073,2.022,3.125l0.965,1.59
						c0.344,0.533,0.682,1.072,1.009,1.617c0.79,1.306,1.427,2.727,2.159,4.163C36.155,192.977,36.935,194.433,37.826,195.809z"/>
				</g>
			</g>
		</g>
	</g>
	<g>
		<g>
			<g>
				<path fill="#FFFFFF" d="M366.075,237.162l0.152-0.003C366.16,237.142,366.119,237.091,366.075,237.162z"/>
				<path fill="#FFFFFF" d="M343.519,236.145l0.033-0.314C343.513,235.938,343.51,236.047,343.519,236.145z"/>
				<path fill="#FFFFFF" d="M340.78,264.546l-0.109,0.046C340.726,264.601,340.758,264.579,340.78,264.546z"/>
				<g>
					<path fill="#FFFFFF" d="M348.389,265.53c3.416,0.176,7.053-0.346,10.745-1.819c3.824-1.461,7.812-3.759,11.721-3.64
						c4.138,0.094,8.163,0.78,12.389,0.277c4.251-0.471,8.219,0.413,12.192,1.476c0.957,0.259,1.947,0.349,2.948,0.38
						c0.989,0.05,1.996,0.031,3.002,0.034c1.015-0.007,2.003,0.042,2.96,0.215c0.953,0.175,1.909,0.433,2.755,0.941
						c0.897,0.557,1.726,1.278,2.578,1.883c0.393,0.299,3.194-0.519,3.979-1.106c0.353-0.259-0.361-2.511-0.606-3.131
						c-0.723-2.031-2.259-4.7-3.201-5.686c-1.906-1.965-2.856-2.803-5.135-3.83c-4.728-2.077-9.426-3.521-13.966-6.933
						c-3.696-2.728-8.128-1.971-12.084-3.423c-4.293-1.606-8.59-3.857-13.126-4.112c-4.816-0.212-9.582-2.109-14.594-1.953
						c-1.251,0.056-2.5,0.143-3.746,0.242c-1.247,0.099-2.568,0.273-3.843,0.409c-1.303,0.131-2.486,0.341-3.734,0.48l-3.731,0.409
						l-9,0.815c-3.886,0.35-7.814,1.343-11.65,2.608c-3.822,1.339-7.53,2.958-11.086,4.591c-6.384,2.928-13.398,3.831-18.188,8.1
						c-2.537,2.271-6.081,4.84-5.063,11.339c0.246,1.58,1.496,3.865,2.746,5.783c-2.053-3.152,5.193,1.459,5.607,1.623
						c2.517,0.999,4.475,0.877,6.667,1.259c2.122,0.37,4.278,1.02,6.307,1.432c2.021,0.436,3.892,0.665,5.458,0.213
						c3.266-0.916,6.106-2.115,8.757-3.313c2.638-1.144,5.122-2.277,7.725-3.135c4.413-1.381,9.177-2.659,14.5-2.929
						c1.551-0.112,3.26,0.031,4.906,0.104c0.834,0.043,1.589,0.149,2.387,0.207L348.389,265.53z"/>
				</g>
			</g>
		</g>
	</g>
	<g>
		<g>
			<g>
				<path fill="#FFFFFF" d="M273.914,375.538l0.031-0.02C273.914,375.504,273.859,375.441,273.914,375.538z"/>
				<path fill="#FFFFFF" d="M249.893,377.687l-0.012-0.394C249.855,377.431,249.869,377.566,249.893,377.687z"/>
				<path fill="#FFFFFF" d="M245.174,413.317l-0.408,0.043C244.96,413.378,245.082,413.355,245.174,413.317z"/>
				<g>
					<path fill="#FFFFFF" d="M263.017,412.71c0.707-0.107,1.492-0.258,2.094-0.37l0.955-0.199l0.453-0.101l0.312-0.053
						c0.415-0.076,0.826-0.179,1.237-0.309c0.206-0.065,0.412-0.137,0.619-0.216c0.198-0.088,0.417-0.161,0.665-0.205
						c0.476-0.114,0.954-0.252,1.438-0.414l0.73-0.263c-0.114-0.059,0.862-0.063,1.43-0.089l1.183-0.044
						c1.476-0.061,2.928-0.143,4.349-0.247l2.107-0.173l1.034-0.1c0.345-0.032,0.645-0.134,0.966-0.199
						c1.302-0.304,2.568-0.621,3.801-0.942l1.822-0.484c0.603-0.157,1.204-0.307,1.692-0.574c2.076-0.93,3.78-2.063,5.418-3.258
						c0.808-0.619,1.591-1.262,2.371-1.954c0.763-0.723,1.528-1.464,2.253-2.32c1.445-1.711,2.641-3.729,3.451-5.747
						c0.24-0.454,0.392-0.939,0.561-1.416c0.16-0.478,0.359-0.952,0.486-1.426c0.479-2.021,0.871-3.981,0.985-6.05
						c0.063-2.076,0.015-4.174-0.313-6.351c-1.005-4.231-2.318-8.424-3.807-12.446c-0.428-1.134-0.825-2.25-1.198-3.356
						l-0.542-1.652c-0.09-0.306-0.168-0.488-0.246-0.686l-0.23-0.601c-0.606-1.601-1.136-3.215-1.614-4.843
						c-0.964-3.244-1.696-6.593-2.496-9.912c-1.558-6.335-6.317-11.761-6.926-18.234c-0.16-1.74-0.102-3.529-0.185-5.282
						c-0.036-0.86-3.321-4.323-4.531-4.848c-0.545-0.24-2.101,2.789-2.503,3.63c-1.305,2.739-2.872,6.858-3.16,8.841
						c-0.584,4-0.822,5.903-0.266,9.642c0.564,3.874,1.215,7.667,1.607,11.522c0.332,3.839,0.352,7.714-0.218,11.751
						c-0.116,0.815-0.166,1.615-0.163,2.405c0.002,0.395,0.017,0.786,0.043,1.176l0.041,0.559l-0.016,0.328
						c-0.023,0.864,0.101,1.662,0.271,2.463c0.169,0.798,0.383,1.598,0.521,2.382c0.068,0.391,0.117,0.776,0.13,1.146
						c-0.014,0.293-0.063,0.548-0.186,0.783c-0.346,0.683-0.935,1.174-1.644,1.462c-0.693,0.276-1.465,0.406-2.268,0.321
						c-0.803-0.09-1.431-0.335-1.833-0.308c-0.682,0.019-1.644-0.578-2.234-1.046l-0.218-0.182l-0.025-0.021
						c-0.016-0.007-0.029-0.015,0.066-0.028c0.133-0.024,0.266-0.043,0.399-0.057c0.065-0.004-0.019-0.006-0.045-0.009l-0.113-0.007
						l-0.226-0.015l-0.452-0.029c-1.206-0.073-2.419-0.13-3.633-0.159c-1.19-0.073-2.501,0.093-3.757,0.202
						c-1.267,0.129-2.531,0.298-3.785,0.513c-4.135,0.906-7.405,1.963-10.012,2.61c-0.697,0.192-1.221,0.283-1.826,0.425
						c-0.582,0.126-1.048,0.175-1.583,0.275l-0.339,0.025c-0.087,0.01-0.039,0.021-0.066,0.03c-0.036,0.016,0.002,0.042-0.101,0.043
						c-0.152,0.01-0.306,0.009-0.457-0.005c-0.697-0.104-1.359-0.394-1.685-0.866c-0.329-0.507-0.639-0.996-0.775-1.562
						c-0.168-0.584,0.138-1.082,0.363-1.664l0.356-0.78l0.189-0.387l0.551-1.322c0.53-1.267,1.107-2.509,1.717-3.739
						c0.585-1.204,1.129-2.312,1.734-3.457l0.907-1.699c0.298-0.542,0.54-0.914,0.814-1.376l1.693-2.783
						c2.316-3.88,4.925-8.538,6.06-14.759c0.588-3.237,1.324-7.406,0.71-11.732c-0.572-4.292-2.635-8.596-6.686-11.016
						c-1.962-1.192-5.22-1.075-8.05-0.669c2.313-0.354,1.286,1.511-0.522,3.181c-0.927,0.842-2.009,1.632-2.905,2.208
						c-0.923,0.579-1.631,0.958-1.747,1.052c-2.832,2.219-4.312,4.309-6.651,6.07c-4.535,3.4-10.305,5.001-13.184,9.463
						c-1.02,1.569-2.031,3.33-2.979,5.191c-0.47,0.917-0.955,1.982-1.376,2.888c-0.38,0.792-0.745,1.588-1.098,2.387l-1.987,4.516
						l-0.459,1.092l-0.057,0.137l-0.028,0.068l-0.071,0.138l-0.286,0.554l-0.571,1.107l-2.265,4.442l-0.658,1.17l-0.329,0.585
						c-0.119,0.196-0.221,0.391-0.267,0.579l-0.763,2.289l-1.52,4.58l-0.38,1.146l-0.19,0.572c-0.036,0.183-0.052,0.359-0.079,0.54
						c-0.105,0.712-0.195,1.434-0.247,2.178c-0.131,1.472-0.105,2.992-0.008,4.52c0.274,4.055,1.476,8.122,3.386,11.777
						c1.928,3.658,4.6,6.891,7.745,9.444c3.151,2.567,6.759,4.511,10.899,5.931l1.583,0.495c0.526,0.169,1.056,0.332,1.613,0.442
						l3.292,0.76l3.29,0.775c0.542,0.152,1.107,0.225,1.673,0.292l1.694,0.225c1.352,0.191,2.709,0.383,4.072,0.575
						c1.314,0.249,2.855,0.314,4.354,0.361c1.356,0.059,2.279,0.05,3.387,0.028l1.61-0.03l1.504-0.083
						C256.699,413.618,260.173,413.145,263.017,412.71z"/>
				</g>
			</g>
		</g>
	</g>
	<g>
		<g>
			<g>
				<path fill="#FFFFFF" d="M331.3,302.16l-0.166,0.021C331.209,302.19,331.26,302.235,331.3,302.16z"/>
				<path fill="#FFFFFF" d="M355.76,300.18l0.005,0.317C355.792,300.384,355.781,300.274,355.76,300.18z"/>
				<path fill="#FFFFFF" d="M355.063,271.57l0.11-0.063C355.113,271.508,355.083,271.534,355.063,271.57z"/>
				<g>
					<path fill="#FFFFFF" d="M346.689,271.722c-3.689,0.39-7.42,1.303-11.121,3.28c-1.926,0.973-3.899,2.076-5.895,3.056
						c-1.001,0.484-2.008,0.925-3.032,1.271c-1.091,0.332-2.242,0.571-3.282,0.667c-4.533,0.408-8.573,0.253-12.668,0.891
						c-4.151,0.648-7.999-0.423-11.499-2.017c-0.424-0.193-0.861-0.346-1.312-0.47c-0.438-0.146-0.876-0.291-1.332-0.404
						c-0.911-0.229-1.87-0.388-2.772-0.69c-1.861-0.482-3.651-1.313-4.893-2.824c-0.62-0.865-1.114-1.835-1.654-2.712
						c-0.216-0.453-3.214-0.938-4.197-0.756c-0.443,0.077-0.657,2.479-0.663,3.169c-0.02,1.083-0.004,2.493,0.201,3.713
						c0.201,1.221,0.493,2.363,0.789,3.035c0.573,1.394,1.156,2.279,1.758,3.17c0.614,0.878,1.311,1.684,2.446,2.54
						c0.584,0.457,1.166,0.912,1.746,1.366c0.593,0.44,1.218,0.819,1.83,1.236c0.617,0.403,1.229,0.832,1.856,1.229l1.911,1.147
						c2.556,1.591,5.188,3.074,7.905,4.989c1.099,0.73,2.281,1.235,3.498,1.62c1.206,0.325,2.449,0.53,3.689,0.678
						c2.468,0.24,4.919,0.266,7.26,0.782l7.419,1.773c1.184,0.261,2.191,0.511,3.491,0.631c1.241,0.131,2.484,0.18,3.726,0.105
						c1.32-0.081,2.645-0.053,3.973,0.028c1.325,0.096,2.689,0.12,4.039,0.207c1.354,0.071,2.712,0.138,4.067,0.143
						c0.678,0.002,1.355-0.011,2.03-0.047c0.681-0.064,1.36-0.16,2.036-0.281c2.666-0.503,5.303-1.024,7.938-1.709
						c2.637-0.731,5.266-1.426,7.929-1.982c3.084-0.837,6.216-1.496,9.351-2.203c3.907-1.063,7.817-2.264,11.449-4.011
						c1.835-0.833,3.69-1.636,5.494-2.509c1.77-0.922,3.544-1.829,5.343-2.691c0.813-0.391,1.645-0.74,2.489-1.063l0.317-0.12
						l0.219-0.068l0.413-0.119c0.262-0.074,0.582-0.153,0.896-0.228c1.241-0.298,2.633-0.529,3.994-0.752
						c2.736-0.445,5.427-0.91,7.675-2.077c1.205-0.629,2.552-1.13,3.569-2.184c1.073-1.051,1.478-2.582,2.094-5.551
						c0.278-1.433,0.936-3.986,1.364-6.23c-0.183,0.923-0.371,1.125-0.58,0.89c-0.209-0.232-0.473-0.936-0.904-1.685
						c-0.792-1.578-2.06-3.514-2.224-3.687c-1.998-2.057-4.298-2.646-6.55-3.653c-4.414-1.971-9.046-4.53-13.295-3.819
						c-2.223,0.375-4.364,0.937-6.527,1.711c-0.534,0.183-1.087,0.401-1.638,0.625c-0.537,0.212-1.106,0.461-1.691,0.736l-0.82,0.38
						l-0.587,0.252l-1.163,0.522c-1.543,0.71-3.056,1.473-4.564,2.255c-1.517,0.748-3.067,1.363-4.61,2.043
						c-2.604,1.214-5.285,2.12-7.942,3.152c-1.315,0.551-2.7,0.898-4.072,1.285c-1.374,0.379-2.755,0.738-4.142,1.063
						C353.833,271.312,350.308,271.549,346.689,271.722z"/>
				</g>
			</g>
		</g>
	</g>
	<g>
		<g>
			<g>
				<path fill="#FFFFFF" d="M233.759,70.138l-0.025,0.042C233.76,70.18,233.806,70.219,233.759,70.138z"/>
				<path fill="#FFFFFF" d="M249.929,70.642l-0.18,0.349C249.836,70.883,249.891,70.758,249.929,70.642z"/>
				<path fill="#FFFFFF" d="M270.283,41.062l0.245,0.068C270.428,41.063,270.351,41.051,270.283,41.062z"/>
				<g>
					<path fill="#FFFFFF" d="M254.009,33.421c-1.072-0.278-2.152-0.531-3.236-0.758c-1.148-0.175-2.307-0.317-3.464-0.432
						l-1.736-0.149c-0.604-0.014-1.218-0.011-1.825-0.004c-1.22,0.019-2.426,0.055-3.641,0.154c-4.967,0.546-10,2.054-14.394,4.63
						c-1.126,0.646-2.175,1.431-3.213,2.171c-0.514,0.38-1.028,0.753-1.518,1.148l-1.386,1.263l-1.35,1.275
						c-0.458,0.446-0.871,0.818-1.365,1.36c-0.95,1.014-1.86,2.034-2.733,3.045l-0.647,0.757l-0.587,0.805l-1.159,1.581
						l-1.155,1.532l-0.577,0.749l-0.504,0.798c-1.339,2.118-2.819,4.044-4.077,6.105l-1.075,1.59
						c-0.34,0.533-0.768,1.041-1.022,1.596c-0.575,1.092-1.134,2.188-1.672,3.284l-0.789,1.644l-0.592,1.668l-0.473,1.704
						l-0.32,1.741c-0.701,4.7,0.426,9.669,2.935,13.708c2.523,4.08,5.663,7.515,9.313,10.285c1.818,1.39,3.755,2.642,5.85,3.624
						c1.021,0.547,2.124,0.918,3.204,1.357c1.119,0.326,2.229,0.718,3.395,0.912l1.049,0.204c0.361,0.043,0.734,0.061,1.104,0.086
						c0.74,0.046,1.485,0.075,2.229,0.091c1.402,0.059,3.213-0.062,4.83-0.157c0.866-0.054,1.554-0.105,2.269-0.177l2.168-0.279
						c1.433-0.191,2.841-0.332,4.229-0.586c0.812-0.207,1.62-0.398,2.43-0.571l0.304-0.064c0.066-0.123,0.191-0.088,0.283-0.139
						l0.603-0.182c0.409-0.1,0.759-0.353,1.145-0.513c1.428-0.845,2.574-1.883,4.077-2.798l0.19-0.117l-0.115,0.063l-0.236,0.132
						l-0.244,0.14l-0.031,0.018l-0.008,0.005l-0.001,0c0.31-0.145-0.694,0.325,0.694-0.325l0.002-0.001l0.006-0.001l0.02-0.005
						l0.081-0.02l0.163-0.039l0.325-0.076l0.082-0.019l0.041-0.009l0.021-0.005l0.086-0.043c0.239-0.123,0.478-0.254,0.714-0.394
						c0.919-0.543,1.91-1.284,2.519-1.947c0.681-0.701,1.303-1.445,1.796-2.34c0.252-0.438,0.485-0.892,0.689-1.351
						c0.172-0.429,0.326-0.871,0.46-1.321c0.539-1.821,0.579-3.334,0.531-4.632c-0.011-0.368-0.098-0.744-0.246-1.248
						c-0.074-0.242-0.166-0.535-0.272-0.791c-0.105-0.239-0.226-0.493-0.358-0.754c-0.533-1.052-1.246-1.956-1.971-2.68
						c-1.464-1.453-2.922-2.188-3.558-2.265c-0.293-0.035-0.604,0.774-0.821,1.803c-0.219,1.028-0.403,2.203-0.498,2.726
						c-0.138,0.828-0.308,1.783-0.57,2.727c-0.254,0.93-0.64,1.917-1.215,2.595c-0.567,0.7-1.316,0.906-1.793,0.814
						c-0.261-0.08-0.28-0.189-0.692-0.177c-0.157-0.004-0.307-0.008-0.451-0.012h-0.027h-0.013h-0.003h-0.002
						c0.074-0.035-0.167,0.078,0.165-0.078l-0.009,0.001l-0.069,0.008l-0.136,0.018c-0.09,0.015-0.178,0.029-0.263,0.042
						c-0.294,0.052-0.633,0.129-0.885,0.186c-0.176,0.03-0.347,0.059-0.514,0.087c-0.333,0.05-0.594,0.147-0.862,0.213
						c-0.516,0.151-0.934,0.322-1.419,0.405c-0.221,0.069-0.494,0.055-0.739,0.082c-0.256,0.005-0.537-0.054-0.804-0.068
						c-0.556-0.14-1.121-0.258-1.732-0.358c-0.192-0.066-0.522-0.112-0.87-0.167c-0.724-0.152-1.445-0.304-2.164-0.456l-1.054-0.238
						l-0.86-0.243l-0.831-0.247l-0.921-0.245c-0.601-0.164-1.176-0.346-1.716-0.561c-2.159-0.91-3.69-2.999-3.546-5.471
						c0.128-1.955-0.266-3.054-0.659-4.295c-0.168-0.613-0.348-1.237-0.284-1.883c0.052-0.64,0.335-1.287,0.941-1.81
						c0.645-0.572,1.47-0.983,2.221-1.307c0.741-0.336,1.481-0.54,2.102-0.701c1.289-0.301,2.123-0.334,2.637-0.736l0.105-0.083
						c0.035-0.025,0.156-0.074,0.23-0.109l0.535-0.239c0.185-0.077,0.365-0.171,0.55-0.234l0.569-0.089
						c0.373-0.061,0.729-0.159,1.117-0.101l0.551,0.012c0.176-0.01,0.355-0.009,0.555,0.045c1.453,0.127,2.986,0.591,4.955,0.716
						c0.928-0.014,2.063,0.236,3.16,0.321c1.181,0.28,2.346,0.393,3.632,0.81c0.634,0.187,1.26,0.324,1.91,0.549l1.962,0.727
						c1.319,0.477,2.547,1.081,3.678,1.708c2.662,1.478,4.666,3.23,6.034,4.98c0.819,1.123,1.475,2.134,2.054,3.139
						c0.597,0.993,1.048,2.034,1.454,3.226c0.231,0.57,0.36,1.242,0.54,1.896c0.092,0.327,0.112,0.711,0.183,1.063
						c0.062,0.359,0.146,0.764,0.124,0.912c0.152,0.859,0.014,1.615-0.249,2.618c-0.228,0.875-0.932,1.922-1.889,3.122
						c-0.92,1.149-2.296,2.69-3.556,4.011c-2.549,2.71-4.885,4.732-6.317,7.098c-0.79,1.259-1.787,2.408-2.425,4.112
						c-0.649,1.719-1.033,4.062-1.087,8.092c-0.018,1.949,0.744,5.134,1.651,7.846c-0.731-2.253,0.743-1.395,2.729-0.161
						c1.964,1.263,4.53,2.798,4.839,2.89c3.614,1.217,6.946,0.463,10.505-0.041c3.476-0.489,7.085-1.08,10.447-2.206
						c3.361-1.117,6.484-2.771,8.791-5.245c0.59-0.646,1.176-1.303,1.743-1.969c0.547-0.663,1.085-1.335,1.614-2.015
						c0.51-0.677,1.003-1.36,1.493-2.05c0.489-0.703,0.971-1.462,1.442-2.201c1.896-3.068,3.75-6.822,5.054-11.216
						c0.304-1.126,0.635-2.21,0.86-3.388c0.222-1.182,0.421-2.371,0.598-3.561c0.233-2.434,0.391-4.891,0.222-7.327l-0.1-1.829
						l-0.19-1.564c-0.141-1.036-0.263-2.061-0.445-3.102c-0.418-2.104-0.849-4.195-1.518-6.314
						c-0.479-1.793-1.228-3.572-1.919-5.332c-0.816-1.729-1.598-3.483-2.605-5.113c-1.897-3.334-4.239-6.356-6.729-9.048
						c-5.02-5.414-10.66-9.31-16.003-12.472c-1.608-0.961-3.19-1.857-4.787-2.746c-1.609-0.837-3.183-1.715-4.858-2.548
						l-2.606-1.202c-0.882-0.393-1.728-0.807-2.695-1.146C257.933,34.663,256.122,33.919,254.009,33.421z"/>
				</g>
			</g>
		</g>
	</g>
</g>
<g id="brushes" display="none">
	<g display="inline">
		<g>
			<rect x="300.415" y="7.814" fill="none" width="101.17" height="8.367"/>
			<g>
				<path fill="#FFFFFF" d="M387.919,10.449c0.009-0.033,0.016-0.074,0.019-0.131C387.922,10.371,387.917,10.414,387.919,10.449z"/>
				<path fill="#FFFFFF" d="M379.947,9.607l0.093-0.063C379.979,9.554,379.956,9.576,379.947,9.607z"/>
				<path fill="#FFFFFF" d="M392.696,10.805c-0.007,0.011-0.007,0.019-0.012,0.031c0.074,0.006,0.174,0.014,0.336,0.023
					L392.696,10.805z"/>
				<path fill="#FFFFFF" d="M362.941,8.66l0.106-0.004C363,8.654,362.969,8.641,362.941,8.66z"/>
				<path fill="#FFFFFF" d="M373.02,9.293c-0.031,0.054-0.084,0.074-0.136,0.092C372.949,9.394,373.001,9.383,373.02,9.293z"/>
				<path fill="#FFFFFF" d="M395.22,13.63l-0.136-0.191C395.086,13.521,395.135,13.607,395.22,13.63z"/>
				<path fill="#FFFFFF" d="M400.065,12.859c-0.004-0.014-0.005-0.025-0.013-0.043C400.046,12.834,400.054,12.847,400.065,12.859z"
					/>
				<path fill="#FFFFFF" d="M398.172,12.094c-0.041,0.017-0.088,0.05-0.136,0.083C398.094,12.171,398.167,12.171,398.172,12.094z"/>
				<path fill="#FFFFFF" d="M397.972,12.225c0.021-0.016,0.043-0.032,0.064-0.047C398,12.184,397.971,12.191,397.972,12.225z"/>
				<path fill="#FFFFFF" d="M301.175,9.6c-0.14-0.008-0.259,0.137-0.384,0.256L301.175,9.6z"/>
				<path fill="#FFFFFF" d="M347.544,8.549l0.03-0.078C347.546,8.496,347.541,8.523,347.544,8.549z"/>
				<path fill="#FFFFFF" d="M301.001,11.256l-0.099-0.039C300.938,11.248,300.971,11.258,301.001,11.256z"/>
				<path fill="#FFFFFF" d="M392.653,14.139c-0.14,0.186-0.427-0.037-0.425,0.145C392.377,14.254,392.587,14.394,392.653,14.139z"/>
				<path fill="#FFFFFF" d="M344.289,15.596l-0.092,0.01C344.241,15.607,344.269,15.604,344.289,15.596z"/>
				<path fill="#FFFFFF" d="M301.001,11.256l0.114,0.045c-0.01-0.035-0.022-0.063-0.034-0.094
					C301.056,11.234,301.029,11.252,301.001,11.256z"/>
				<path fill="#FFFFFF" d="M331.511,8.469c0.002,0,0.003,0,0.005,0c0.012-0.012,0.021-0.02,0.032-0.033L331.511,8.469z"/>
				<path fill="#FFFFFF" d="M330.66,8.166c0.06-0.02,0.117-0.039,0.182-0.061C330.746,8.086,330.695,8.117,330.66,8.166z"/>
				<path fill="#FFFFFF" d="M300.791,9.855l-0.22,0.146C300.65,9.98,300.722,9.921,300.791,9.855z"/>
				<path fill="#FFFFFF" d="M321.492,8.439c0.029-0.006,0.058-0.012,0.084-0.023C321.54,8.414,321.513,8.421,321.492,8.439z"/>
				<path fill="#FFFFFF" d="M373.666,9.402c0.021,0.018,0.049,0.027,0.074,0.041C373.748,9.4,373.743,9.369,373.666,9.402z"/>
				<polygon fill="#FFFFFF" points="367.331,14.371 367.329,14.371 367.329,14.375 				"/>
				<path fill="#FFFFFF" d="M367.669,14.14c-0.105-0.042-0.257,0.093-0.338,0.231C367.438,14.371,367.537,14.332,367.669,14.14z"/>
				<path fill="#FFFFFF" d="M366.605,14.275c0.013,0.008,0.023,0.015,0.039,0.023C366.631,14.285,366.618,14.277,366.605,14.275z"/>
				<path fill="#FFFFFF" d="M373.41,14.646c0-0.006,0.001-0.014,0-0.02c-0.002,0.007-0.003,0.011-0.004,0.018L373.41,14.646z"/>
				<path fill="#FFFFFF" d="M372.063,14.677c-0.023-0.037-0.057-0.064-0.093-0.083C371.992,14.63,372.023,14.661,372.063,14.677z"/>
				<polygon fill="#FFFFFF" points="363.25,14.803 363.251,14.794 363.244,14.797 				"/>
				<path fill="#FFFFFF" d="M350.587,15.994c0.302,0.048,0.532,0.082,0.593,0.082c1.104-0.006,2.166-0.408,3.237-0.624
					c1.488-0.3,2.815,0.898,4.364,0.541c1.09-0.251,1.49-1.235,2.499-1.5c0.961-0.252,1.949,0.262,2.912,0.221
					c1.04-0.045,1.85-0.992,2.869-0.921c-0.072,0.202-0.047,0.482-0.144,0.686c0.503-0.298,0.978-0.729,1.598-0.505
					c0.416,0.151,0.51,0.877,0.988,0.323c0.571,0.34,1.125,0.895,1.854,0.731c0.087-1.097,1.558-0.628,2.229-0.68
					c0.549-0.042,1.007-0.361,1.565-0.367c0.709-0.006,1.092,0.13,1.83-0.051c0.876-0.215,1.372-0.208,2.208,0.129
					c0.85,0.343,1.042,0.5,1.819,0.041c0.754-0.445,0.633-0.346,1.469-0.284c1.125,0.083,2.246-0.039,3.37-0.073
					c0.741-0.023,1.488,0.115,2.228,0.047c1.578-0.144,2.682-0.841,3.995,0.426c0.798-1.008,3.152-0.864,4.323-0.679
					c1.126,0.179,3.408,1.14,4.293,0.003c-0.115-0.094-1.222-0.782-1.103-0.995c-0.045,0.08-0.099,0.217-0.122,0.303
					c-0.022-0.33-0.107-0.346,0.039-0.692c-0.393,0.095-0.779,0.222-1.157,0.363c-0.236-0.2-0.081-0.185-0.512-0.271
					c0.047-0.132,0.019-0.32,0.089-0.457c-0.088,0.104-0.173,0.168-0.309,0.177c-0.042-0.091-0.129-0.169-0.165-0.272
					c-0.032-0.001-0.541,0-0.54,0.011c-0.009-0.09-0.084-0.212-0.103-0.308c-0.117,0.349-0.56,0.493-0.818,0.137
					c-0.373,0.107-0.755,0.222-1.144,0.248c-0.036-0.217-0.178-0.323-0.163-0.526c-0.13,0.104-0.363,0.121-0.486,0.229
					c0.014-0.245-0.106-0.262,0.037-0.542c-0.111,0.092-0.27,0.107-0.388,0.209c-0.08-0.099-0.265-0.218-0.327-0.332
					c-0.027,0.08-0.054,0.159-0.077,0.24c-0.074,0.016-0.094-0.156-0.167-0.111c-0.432,0.394-0.577-0.216-1.072-0.057
					c-0.035,0.083-0.014,0.165-0.037,0.244c-0.044,0.007-0.088,0.009-0.133,0.004c-0.026-0.127-0.132-0.235-0.174-0.344
					c-0.001,0.058-0.016,0.112-0.045,0.162c-0.396-0.11-0.775,0.043-1.156,0c0.029-0.079,0.051-0.159,0.064-0.242
					c-0.394,0.001-0.788,0.109-1.16,0.232c-0.221-0.702-1.42-0.437-2.011-0.434c-0.008,0.055-0.018,0.109-0.028,0.163
					c-0.425-0.169-0.896,0.034-1.25-0.136c0.019-0.088,0.018-0.176-0.004-0.264c-0.217-0.058-0.555-0.094-0.782-0.046
					c0.021,0.058,0.046,0.115,0.071,0.171c-0.14,0.079-0.277,0.053-0.406,0.106c-0.042-0.075,0.068-0.082,0.021-0.162
					c-0.082-0.088-0.288-0.049-0.387-0.123c-0.027-0.008,0.119-0.105,0.12-0.095c-0.105,0.077-0.164,0.078-0.222,0.211
					c-0.122-0.074-0.329-0.089-0.467-0.17c0.158,0.268-0.007,0.014-0.047,0.349c-0.269-0.212-0.741,0.019-0.895-0.381
					c-0.263,0.061-0.577,0.021-0.746,0.002c-0.032-0.008-0.138,0.112-0.174,0.125c-0.048-0.085-0.185-0.19-0.254-0.262
					c-0.013,0.049,0.064,0.094,0.068,0.143c-0.104,0.03-0.361,0.012-0.444,0.055c-0.165-0.415-1.587-0.476-1.972-0.492
					c-0.002-0.068-0.004-0.136-0.006-0.205c-0.038,0.105-0.139,0.229-0.164,0.33c-0.051-0.065-0.091-0.136-0.119-0.214
					c-0.212-0.041-0.579-0.316-0.903-0.405c0.152,1.023-2.07,0.225-2.597,0.238c-0.05-0.031-0.038-0.19-0.055-0.242
					c-0.112,0.071-0.233,0.157-0.326,0.254c0.001-0.074-0.001-0.213-0.018-0.29c-0.221,0.274-0.358,0.288-0.657,0.308
					c0.05-0.039,0.153-0.096,0.19-0.148c-0.742,0.204-1.579,0.37-2.341,0.202c0.002-0.083,0.068-0.079,0.073-0.152
					c-0.089-0.048-0.188,0.027-0.279-0.013c0.027-0.059,0.037-0.121,0.029-0.185c-0.187-0.04-0.529-0.091-0.722-0.079
					c-0.045,0.067-0.091,0.134-0.136,0.201c-0.307-0.078-0.65-0.067-0.959-0.015c0.035-0.038,0.075-0.07,0.12-0.096
					c-0.142,0.047-0.273,0.081-0.406,0.158c-0.042-0.028,0.027-0.114-0.02-0.119c-0.645,0.237-0.93,0.049-1.562-0.001
					c-0.017,0.073,0.065,0.091,0.059,0.16c-0.277,0.005-0.257-0.03-0.413-0.164c-0.022-0.036-0.163,0.012-0.208-0.016
					c0.022-0.073,0.053-0.143,0.09-0.208c-0.401,0.713-2.102,0.021-2.597-0.4c-0.965,0.608-2.557-0.188-3.567-0.18
					c-0.477,0.004-0.872,0.273-1.438,0.256c-0.656-0.02-1.244-0.049-1.906,0.011c-1.12,0.101-2.233,0.266-3.305-0.01
					c-0.354-0.091-0.83-0.44-1.146-0.473c-0.197-0.02-0.573,0.187-0.82,0.194c-0.319,0.011-0.62-0.128-0.934-0.152
					c-0.793-0.06-1.484,0.171-2.254,0.314c-0.857,0.16-1.397-0.22-2.105-0.177c0.022,0.056,0.047,0.11,0.071,0.165
					c-0.307-0.093-0.659-0.13-0.93,0.098c-0.047-0.099-0.133-0.182-0.185-0.273c-0.169,0.139-0.429,0.19-0.581,0.376
					c-0.257-0.317-0.762-0.256-1.175-0.281c0.028,0.379,0.036,0.212-0.267,0.417c-0.025-0.158-0.15-0.321-0.16-0.49
					c0.022,0.385-0.244,0.541-0.614,0.44c-0.138-0.424-0.811-0.515-1.001,0.005c-0.042-0.082-0.107-0.183-0.138-0.27
					c-0.542-0.048-1.51,0.18-1.912-0.151c-0.063,0.162-0.236,0.287-0.296,0.426c-0.05-0.148-0.17-0.286-0.213-0.449
					c-0.01,0.151-0.127,0.304-0.154,0.434c-1.189-0.278-2.444-0.377-3.661-0.5c-1.074-0.108-1.983,0.254-2.993-0.038
					c0.146,0.055,0.257,0.155,0.387,0.224c-0.467,0.299-1.003-0.055-1.512-0.103c-0.53-0.051-1.065,0.101-1.594,0.053
					c-0.959-0.086-1.249-0.117-2.279,0.296c-0.281-0.208-0.206-0.262-0.467-0.038c-0.087-0.114-0.299-0.185-0.394-0.293
					c-0.07,0.079-0.187,0.139-0.255,0.226c-0.494-0.723-2.338-0.524-3.15-0.496c-0.589,0.021-2.374,0.485-2.655,0.074
					c-0.363,0.36-1.878,0.533-1.982-0.042c-0.258,0.144-1.083-0.159-1.507-0.182c-3.34-0.185-6.688-0.299-10.029-0.106
					c-2.36,0.136-5.553,0.187-7.531,1.687c-0.122,0.248-0.459,0.41-0.33,0.707c-0.26,0.094-0.379-0.347-0.43-0.098
					c0.354,0.166-0.109,0.646,0.236,0.957l-0.222,0.061c-0.046,0.178,0.302-0.202,0.247,0.121l0.063-0.466
					c0.18,0.07,0.278,0.168,0.342,0.326c0.169-0.182,0.276-0.814,0.68-0.539l-0.111,0.028c0.328-0.017,0.201,0.301,0.27,0.377
					l-0.072-0.004l0.276,0.235c-0.209-0.157-0.556,0.222-0.374,0.195c0.392,0.13-0.102-0.113,0.192-0.17
					c0.182-0.024,0.131,0.225,0.123,0.37l0.327-0.018c-0.012,0.217-0.217-0.012-0.084,0.212l0.412-0.23
					c0.077,0.549,0.449-0.264,0.638,0.253c-0.297,0.129,0.026,0.184-0.021,0.362l0.728-0.031c0.068,0.076-0.191,0.169-0.081,0.142
					c0.137,0.151,0.225-0.134,0.298-0.13c0.063,0.15,0.543-0.006,0.523,0.357c0.493,0.244,0.207-0.461,0.667-0.254
					c0.061,0.221-0.365,0.053-0.161,0.281l0.477-0.082c-0.043,0.107-0.093,0.358-0.271,0.311c1.289,0.291,1.984,1.454,3.162,1.158
					c0.166,0.263-0.119,0.176-0.237,0.35c0.313-0.46,1.585,0.518,1.902,0.544c0.025-0.065,0.034-0.146,0.059-0.199
					c1.002,0.616,2.227,0.306,3.327,0.525c-0.019-0.064-0.093-0.075-0.091-0.156c0.146-0.14,0.358-0.267,0.565-0.298
					c0.037,0.23,0.14,0.258,0.178,0.353c-0.048-0.088-0.095-0.143-0.121-0.235c0.234,0.821,4.521,0.642,5.213,0.66
					c2.015,0.053,4.057,0.404,6.066,0.122c-0.021-0.205,0.049-0.19,0.079-0.366c1.072,0.896,4.207,0.648,5.444,0.325
					c0.377-0.098,1.363,0.54,1.704-0.101c0.96,0.057,1.977,0.032,3.045,0.03c0.862-0.002,3.49,0.771,3.962-0.066
					c0.264,0.169,0.562,0.238,0.865,0.19c-0.07-0.041-0.152-0.036-0.217-0.081c0.005-0.024,0-0.177-0.013-0.195
					c0.131-0.074,0.3-0.093,0.451-0.099c0.285,1.164,2.245-0.213,2.98,0.526c0.027-0.341,0.16-0.437,0.369-0.642
					c0.236,1.406,2.768-0.205,3.119,0.527c0.303-0.108,0.181-0.049,0.47-0.006c-0.08,0.07-0.186,0.156-0.259,0.236
					c0.285-0.174,0.614-0.256,0.925-0.132c-0.015-0.051-0.02-0.102-0.014-0.155C348.457,15.637,349.779,15.866,350.587,15.994z"/>
				<path fill="#FFFFFF" d="M373.585,14.691l-0.175-0.045c0,0.065-0.008,0.139-0.088,0.21L373.585,14.691z"/>
				<path fill="#FFFFFF" d="M365.313,14.505c-0.021,0.023-0.043,0.044-0.063,0.079C365.293,14.572,365.308,14.539,365.313,14.505z"
					/>
				<path fill="#FFFFFF" d="M363.305,15.018c0.144-0.063,0.016-0.141-0.055-0.215C363.246,14.861,363.25,14.932,363.305,15.018z"/>
				<path fill="#FFFFFF" d="M378.271,13.921c-0.03,0.028-0.049,0.066-0.044,0.127C378.268,13.996,378.276,13.957,378.271,13.921z"/>
				<path fill="#FFFFFF" d="M391.221,14.134c-0.017-0.015-0.031-0.023-0.052-0.044C391.179,14.111,391.197,14.125,391.221,14.134z"
					/>
				<path fill="#FFFFFF" d="M390.503,13.677c-0.035-0.001-0.081,0.008-0.146,0.042C390.421,13.734,390.467,13.711,390.503,13.677z"
					/>
				<path fill="#FFFFFF" d="M375.131,14.027c-0.048,0.01-0.095,0.031-0.136,0.092C375.069,14.113,375.106,14.072,375.131,14.027z"/>
				<path fill="#FFFFFF" d="M390.208,13.783l-0.181-0.031c-0.001,0.02-0.003,0.033-0.003,0.057L390.208,13.783z"/>
				<path fill="#FFFFFF" d="M391.448,14.17c-0.071-0.01-0.167-0.01-0.228-0.036C391.311,14.213,391.382,14.215,391.448,14.17z"/>
				<path fill="#FFFFFF" d="M383.024,13.55c-0.006,0.005-0.013,0.004-0.02,0.007C382.864,13.682,382.952,13.629,383.024,13.55z"/>
				<path fill="#FFFFFF" d="M389.418,14.281c-0.008-0.004-0.017-0.008-0.024-0.012l-0.053,0.08L389.418,14.281z"/>
				<path fill="#FFFFFF" d="M392.229,14.283c-0.034,0.007-0.065,0.02-0.09,0.053c0.027,0.011,0.061,0.021,0.103,0.033
					C392.231,14.332,392.229,14.307,392.229,14.283z"/>
				<path fill="#FFFFFF" d="M385.735,14c0.051-0.108,0.07-0.182,0.072-0.237C385.747,13.767,385.709,13.816,385.735,14z"/>
			</g>
		</g>
	</g>
</g>
</svg>
