<?xml version="1.0" encoding="utf-8"?>
<!-- Generator: Adobe Illustrator 20.1.0, SVG Export Plug-In . SVG Version: 6.00 Build 0)  -->
<svg version="1.1" xmlns="http://www.w3.org/2000/svg" xmlns:xlink="http://www.w3.org/1999/xlink" x="0px" y="0px"
	 viewBox="0 0 500 500" style="enable-background:new 0 0 500 500;" xml:space="preserve">
<style type="text/css">
	.st0{display:none;}
	.st1{display:inline;}
	.st2{fill:#231F20;}
	.st3{fill:none;stroke:#000000;stroke-width:2;stroke-linecap:round;stroke-linejoin:round;stroke-miterlimit:10;}
</style>
<g id="Layer_1" class="st0">
	<g class="st1">
		<g>
			<g>
				<g>
					<path class="st2" d="M149,409.2l-0.4,0.1C148.7,409.3,148.9,409.3,149,409.2z"/>
					<path class="st2" d="M203.7,387.9l0,0.2C203.7,388,203.7,387.9,203.7,387.9z"/>
					<path class="st2" d="M208.9,369.9l0.3-0.2C209.1,369.8,209,369.9,208.9,369.9z"/>
					<g>
						<path class="st2" d="M187.2,378.9c-9.8,4-19.6,8.1-29.3,12.6c-9.9,4.6-19.8,9.5-30.2,13.6c-11,4.3-22,8.6-32.6,14.2
							c-10.6,5.6-20.9,11.1-31,17.8c-9.8,6.5-17.8,14.8-26.7,22c-2.4,1.9-4.8,3.8-7.2,5.7c-1.2,0.9-6.2,6.6-7,7.9
							c-0.4,0.6,3.5-1.7,4.6-2.3c3.5-2.1,8.8-5.4,11.5-7.2c5.3-3.7,7.7-5.5,12.9-9.5c2.7-2.1,5.4-4.1,8.1-6c1.4-1,2.7-1.9,4.1-2.8
							c1.4-0.9,2.7-1.8,4.2-2.7c5.6-3.5,11.5-6.5,17.6-9.1c9.9-4.1,19.8-9.4,30.2-13.1c11.1-4,22.6-7.1,33.9-11.3
							c12-4.4,24.3-8.1,36.3-13.1c11.8-4.9,23.3-10.4,34.8-16.2c6.7-3.4,13.3-6.9,19.9-10.7c8.2-4.8,16.2-10.1,23.8-16
							c3.8-2.9,7.5-5.9,11.1-9.1c3.6-3.1,7.1-6.3,10.6-9.6c6.3-6,12.4-12,18-18.7c5.6-6.6,10.8-13.9,14.7-22
							c0.5-1.1,1.1-2.2,1.6-3.3c0.5-1.2,1-2.4,1.5-3.6c0.5-1.2,1.1-2.7,1.5-4c0.4-1.3,0.8-2.6,1.1-3.9c0.6-2.5,1.1-4.6,1.6-6.4
							c0.5-1.8,0.9-3.6,1.3-5.1c0.4-1.5,0-2.8-0.8-3.7c0.3,0.4,0,0.8-0.7,1.3c-0.6,0.6-1.6,1.2-2.6,2c-2,1.5-4,3.6-4.3,3.9
							c-1.4,1.8-2.5,3.9-3.6,5.9c-0.6,1-1.1,2-1.7,3c-0.3,0.5-0.6,0.9-0.9,1.4c-0.3,0.5-0.6,0.9-1,1.4c-5,7.2-10.4,12.7-16,19.6
							c-1.4,1.8-3,3.6-4.5,5.4c-1.6,1.7-3.1,3.5-4.7,5.2c-3.1,3.5-6.5,6.8-9.8,10c-3.4,3.3-6.9,6.4-10.5,9.6c-3.6,3.1-7.3,6.2-11,9
							c-6.4,4.9-13,9.5-19.9,13.8c-6.9,4.3-14,8.2-21.3,11.8C206,371.2,196.6,375.1,187.2,378.9z"/>
					</g>
				</g>
			</g>
		</g>
		<g>
			<g>
				<g>
					<path class="st2" d="M281.1,424.2l-0.3,0.2C281,424.3,281.1,424.3,281.1,424.2z"/>
					<path class="st2" d="M324,390l0.1,0.2C324.1,390,324.1,390,324,390z"/>
					<path class="st2" d="M316.7,373.8l0.1-0.3C316.7,373.7,316.7,373.8,316.7,373.8z"/>
					<g>
						<path class="st2" d="M306.2,389.5c-5.6,6.4-12.2,12-19.4,17c-7.4,5.2-15.7,9.9-24.8,12.6c-9.8,2.9-19.9,5.1-29.9,7.8
							c-10.1,2.7-20.1,4.5-30.5,6.4c-2.5,0.5-5.1,1.1-7.6,1.8c-2.5,0.8-5.1,1.7-7.5,2.8c-2.4,1.1-4.8,2.2-7.1,3.4l-1.7,0.9l-0.9,0.5
							l-1.1,0.7c-1.3,0.9-2.4,1.8-3.5,2.8c-2.2,2-4.1,4.1-5.9,6.3c-0.4,0.5-1.5,2.4-2.4,4.3c-0.9,1.9-1.7,3.9-1.8,4.6
							c-0.1,0.3,0.6-0.3,1.4-1.1c0.8-0.8,1.7-1.7,2.1-2.1c1.3-1.3,3-2.9,4.6-4.4c1.6-1.5,3.2-2.8,4.3-3.7c1.1-0.9,2-1.6,2.9-2.2
							c0.5-0.3,0.9-0.5,1.3-0.7c0.4-0.2,0.9-0.4,1.4-0.6c1.9-0.8,3.9-1.6,6.5-2.6c5.5-2.2,11.1-3.3,16.9-4.2
							c5.9-0.8,11.8-1.6,17.8-2.1c9.7-0.8,19.6-3.6,29.3-5.4l7.9-1.5c2.6-0.5,5.3-1,8-1.7l4-1c1.3-0.4,2.7-0.8,4-1.2
							c1.3-0.4,2.7-0.9,4-1.3c1.3-0.5,2.6-1.1,3.9-1.6c2.8-1.1,5.4-2.5,8.2-3.8l1-0.5l1-0.5l2-1.1c1.3-0.7,2.7-1.4,4-2.2
							c2.6-1.7,5.2-3.2,7.6-5.2c1.2-1,2.5-1.8,3.6-2.9c1.1-1.1,2.3-2.1,3.4-3.2c1.1-1,2.1-2.2,3.1-3.4l1.5-1.7
							c0.5-0.6,1-1.1,1.5-1.8c1.8-2.5,3.7-4.9,5.2-7.6l1.2-2l0.6-1l0.5-1l2-4.1l0.5-1l0.4-1.1l0.8-2.1l0.8-2.1l0.4-1.1l0.3-1.1
							l1.6-5.1c0.5-1.7,0.8-3.5,1.2-5.2c0.2-0.9,0.4-1.7,0.6-2.6l0.4-2.6c0.2-1.7,0.5-3.5,0.7-5.2c1.8-16.6,2.3-33.2,2.8-49.8
							c0.2-7.5,0.7-14.9,0.9-22.3c0.1-3.7,0.2-7.4,0.2-11.2l0-0.7l0-0.4l0-0.2l0-0.3c0-0.4,0-0.9-0.1-1.3l-0.2-1.2
							c-0.3-1.6-0.7-2.8-1-3.8c-0.7-2-1-3.1-1.1-3.3c0-0.1-0.1-0.1-0.1-0.3c0,0,0,0,0-0.1l0,0l0.1-0.2c0.1-0.3,0.2-0.6,0.3-0.9
							c0.2-0.6,0.4-1.3,0.5-1.9c0.7-2.6,1.1-5.2,1.2-7.8c0.3-5.1-0.5-9.9-2.1-13.3c-0.8-1.7-2.1-2.1-3.2-2.1c0.9,0,0.5,2.2-0.2,4.5
							c-0.8,2.3-1.9,4.6-2,4.9c-1.3,3.7-2.4,7.7-4.2,11c-0.2,0.4-0.4,0.8-0.7,1.2l-0.4,0.6c-0.1,0.2-0.3,0.6-0.4,0.9
							c-0.6,1.2-1,2.6-1.1,4c-0.3,2.8,0.3,5.3,0.5,7c0.1,0.9,0.2,1.6,0.1,2.1c0,0.2-0.1,0.4-0.2,0.6c0,0-0.1,0.3-0.1,0.6l-0.1,0.7
							c-0.2,1.9-0.4,3.9-0.5,6c-0.7,17.2-0.8,34.3-1.8,51.5c-0.4,7.3-0.9,14.6-1.5,21.9l-0.2,2.7c-0.1,0.9-0.2,1.7-0.3,2.5l-0.3,2.5
							c-0.1,0.8-0.2,1.7-0.4,2.5l-1.1,4.9l-1.5,4.8l-0.2,0.7l-0.3,0.7l-0.6,1.4c-0.4,0.9-0.8,1.8-1.2,2.8c-0.9,1.8-1.9,3.6-2.8,5.3
							l-1.7,2.5l-0.8,1.3c-0.3,0.4-0.5,0.9-0.9,1.2l-1.9,2.4l-0.9,1.2C306.9,388.7,306.5,389.1,306.2,389.5z"/>
					</g>
				</g>
			</g>
		</g>
		<g>
			<g>
				<g>
					<path class="st2" d="M479.9,382.9l0,0.3C480,383.1,480,383,479.9,382.9z"/>
					<path class="st2" d="M461.6,334.8l0.2,0C461.7,334.8,461.7,334.8,461.6,334.8z"/>
					<path class="st2" d="M444.2,333.2L444,333C444.1,333.1,444.1,333.2,444.2,333.2z"/>
					<g>
						<path class="st2" d="M454.4,350.9c2.3,3.8,4.4,7.2,6.1,10.8c1.7,3.5,3.1,7.2,4.3,11.2c1.2,4,2.3,8.6,3.3,13.1
							c1,4.5,1.8,9,2.1,13.5c0.1,1.2,0.1,2.3,0.1,3.3c0,0.3,0,0.5,0,0.7l0,0.3l-0.1,0.4l-0.2,1.8c-0.1,1.2-0.3,2.4-0.5,3.5
							c-0.2,1.2-0.4,2.3-0.6,3.5c-0.9,4.7-2.1,9.3-3.3,14c-2.6,9.4-6.7,18-11.4,26.6c-1.1,2.1-2.3,4.2-3.4,6.3l-1.7,3.1
							c-0.6,1-1.1,2-1.7,3c-2.4,4-5.1,7.8-8.3,11.2c-1.7,1.8-3.6,3.4-5.5,5c-0.2,0.2-0.6,0.6-1.1,1.2c-0.5,0.6-1.1,1.2-1.7,1.9
							c-0.6,0.7-1.2,1.3-1.7,1.8c-0.5,0.5-0.9,0.9-1.1,1.2c-0.2,0.2,0.6,0.1,1.5-0.2c0.9-0.3,2-0.8,2.5-1c1.5-0.7,3.4-1.8,5.2-2.9
							c1.7-1.2,3.4-2.4,4.4-3.3c2.1-1.8,3.5-3.2,5-4.7c1.4-1.5,2.7-3.1,4.5-5.3c1.8-2.3,3.4-4.8,4.9-7.3c1.5-2.4,3.1-4.9,4.5-7.3
							c3-4.9,5.8-9.9,8.7-15c4.7-8.3,7.2-18.1,9.5-27.5c0.6-2.6,1.2-5.1,1.7-7.7l0.2-1l0.2-1.3c0.1-0.8,0.1-1.5,0.2-2.2
							c0.1-1.4,0.1-2.8,0.1-4.1c0-5.3-0.4-10.4-1.1-15.6l-0.5-4.1c-0.2-1.4-0.3-2.7-0.5-4.2c-0.2-1.4-0.4-2.9-0.7-4.3
							c-0.1-0.7-0.2-1.4-0.4-2.2l-0.5-2.2c-1.3-5.8-3.7-11.6-6.7-16.6c-2.9-5-6-9.3-8.9-13.7c-1.4-2.2-2.8-4.4-4.2-6.6l-2.1-3.4
							c-0.7-1.2-1.4-2.4-2.2-3.5c-3.4-5.5-7.1-10.7-10.6-15.8c-4.5-6.5-9.2-12.8-13.4-19.1c-4.2-6.3-8.2-12.7-11.1-19.4
							c-2.6-6-4.2-12.2-4.2-17.9c0-2.8,0.4-5.5,1.1-8.1c0.7-2.6,1.7-5,3.1-7.5c0.3-0.7,0.8-1.3,1.2-2c0.2-0.3,0.5-0.7,0.7-1
							c0.3-0.3,0.5-0.7,0.8-1c0.5-0.7,1.1-1.4,1.7-2.1c0.6-0.7,1.2-1.4,1.8-2.1c1.2-1.4,2.9-3.1,4.3-5.2c1.4-2.1,2.7-4.8,2.7-7.5
							c0-1.3-0.4-2.1-0.9-2.6c-0.5-0.5-1.1-0.7-1.7-0.7c0.4,0,0.6,0.7,0.3,1.6c-0.3,0.9-1.1,2.1-2,2.9c-1.9,1.6-4.3,2.2-4.5,2.4
							c-1.7,0.8-3.4,1.7-5.1,2.9c-0.8,0.6-1.7,1.2-2.5,1.8c-0.9,0.6-1.6,1.3-2.4,2c-3.1,2.6-6,5.4-8.3,9c-2.3,3.5-4,7.7-4.6,12.5
							c-0.6,4.9-0.2,9.9,0.7,14.5c1,4.6,2.4,9,4.2,13.1c3.4,8.3,8.1,15.7,12.8,22.9c8.1,12.1,17.1,22.9,24.2,34.4
							c1.1,1.7,2,3.4,3.1,5.3c1.1,1.9,2.2,3.9,3.3,5.8C449.9,343.6,452.2,347.3,454.4,350.9z"/>
					</g>
				</g>
			</g>
		</g>
		<g>
			<g>
				<g>
					<path class="st2" d="M457.5,400.8l0,0.3C457.6,400.9,457.6,400.9,457.5,400.8z"/>
					<path class="st2" d="M440.8,363.3l0.2,0C440.9,363.3,440.9,363.3,440.8,363.3z"/>
					<path class="st2" d="M425,367l-0.2-0.2C424.9,366.9,425,366.9,425,367z"/>
					<g>
						<path class="st2" d="M434,378.3c3.6,5.1,6.8,10,8.9,15.3c2.2,5.4,3.7,12.1,2.9,18.6c-0.1,0.9-0.2,1.7-0.4,2.6l-0.5,2.7
							c-0.4,1.9-0.8,3.8-1.1,5.7c-0.7,3.8-1.2,7.5-1.6,11.3c-0.8,7.6-2.1,14.8-3.8,22.1c-1.7,7-2.4,14.2-5.7,20.5
							c-0.4,0.8-0.9,1.7-1.4,2.5c-0.5,0.8-1,1.6-1.5,2.4c-0.3,0.4-0.6,1.7-1.2,3c-0.5,1.3-0.9,2.7-1,3.2c-0.1,0.5,2.1-1.4,2.8-2
							c1-0.9,2.1-2.1,3.2-3.3c1.1-1.2,2-2.5,2.6-3.3c1.2-1.8,1.9-3.1,2.6-4.5c0.8-1.4,1.3-2.8,2.1-4.9c3.1-8.4,5-16.9,7.8-25.2
							c2.3-6.8,2.8-14.1,4.6-20.8c0.5-1.8,1.1-3.6,1.6-5.4c0.6-2,1.2-4.1,1.6-6.2c0.8-4.2,1.2-8.4,0.9-12.7
							c-0.2-2.3-0.4-4.6-0.8-6.9c-0.2-1.2-0.5-2.3-0.7-3.5c-0.3-1.2-0.6-2.3-1-3.5c-1.4-4.6-3.5-8.8-6-12.6
							c-2.5-3.7-5.3-7.1-8.2-10.3c-1.4-1.6-2.9-3.1-4.4-4.6c-1.4-1.4-2.7-2.9-4.1-4.3c-1.6-1.7-3.1-3.5-4.6-5.2
							c-1.5-1.8-2.9-3.6-4.4-5.4c-3.6-4.6-7.2-9.1-10.6-13.8c-1.8-2.3-3.4-4.7-5.1-7.1c-1.6-2.4-3.2-4.8-4.7-7.3
							c-5.5-9-9.1-18.7-14.2-28c-2.7-4.9-6-11.8-10.6-15c-1.1-0.8-2.5-0.6-3.5-0.1c1.7-0.8,0.7,6.6,0.7,7.1c0.1,3,1,6,1.6,9
							c0.6,2.9,1,5.7,1.6,8.5c0.3,1.4,0.6,2.8,1,4.2c0.4,1.4,0.9,2.8,1.6,4.2c2.6,5.9,5.7,11.6,9,17.1c1.6,2.8,3.5,5.5,5.2,8.2
							c1.9,2.7,3.7,5.4,5.6,8c6.5,8.9,13.7,17.3,21,25.5c2.2,2.4,4.5,5,6.5,7.3C430.4,373.5,432.3,375.9,434,378.3z"/>
					</g>
				</g>
			</g>
		</g>
		<g>
			<g>
				<g>
					<path class="st2" d="M304.8,446.8l-0.4,0.2C304.6,447,304.7,446.9,304.8,446.8z"/>
					<path class="st2" d="M350.4,404.6l0.1,0.2C350.5,404.6,350.4,404.6,350.4,404.6z"/>
					<path class="st2" d="M345.9,386.8L345.9,386.8C345.9,386.8,345.9,386.8,345.9,386.8z"/>
					<g>
						<path class="st2" d="M331.6,405.9c-6.2,8-13.3,15.2-21.1,21.8c-4,3.3-8.3,6.5-12.9,9.3c-1.2,0.7-2.3,1.4-3.5,2
							c-1.2,0.6-2.4,1.2-3.6,1.9c-1.2,0.6-2.5,1.1-3.7,1.7c-1.3,0.6-2.4,1-3.6,1.4c-2.6,0.8-5.2,1.3-7.9,1.6
							c-1.3,0.1-2.7,0.2-4.1,0.2c-0.7,0-1.4,0-2,0l-2.2-0.1c-6-0.2-12-0.2-18,0c-6,0.2-12,0.2-17.9,0.1c-3-0.1-5.9-0.1-8.9-0.3
							c-1.5-0.1-3-0.2-4.4-0.2c-1.6-0.1-3.1-0.1-4.7-0.2c-6.1-0.1-12.1,0.8-18,2.2c-5.9,1.4-11.6,3.4-17.2,5.7c-1.5,0.6-3,1.2-4.5,2
							c-0.7,0.4-1.4,0.7-2.3,1.1c-0.8,0.4-1.5,0.9-2.2,1.3c-0.7,0.4-2.4,1.9-3.8,2.9c-1.4,1-2.9,1.4-3.5,1.5
							c-0.3,0.1,0.4,0.4,1.4,0.6c1,0.2,2.3,0,2.8-0.1c1.9-0.3,4.2-1.6,6.5-2.6c2.3-1,4.6-1.7,6.1-2.3c3.1-1.1,5.3-1.7,7.6-2.3
							c2.3-0.6,4.6-1.2,7.8-1.8c6.6-1.3,13.3-1.8,20-1.4c3.3,0.2,6.7,0.6,10.1,0.9c3.4,0.3,6.9,0.7,10.3,1.1
							c11.1,1.2,22.8,0.6,33.8,1.6c6.5,0.6,13.5,0.2,20.2-1.8c0.9-0.3,1.6-0.5,2.4-0.8l2.3-0.8c1.5-0.5,3-1.1,4.5-1.7l2.2-0.9l2.2-1
							c1.5-0.7,2.9-1.4,4.3-2.2c6-3.3,11.9-6.9,17.5-11c5.5-4.1,10.7-8.8,15.2-14.1c4.5-5.2,8.4-10.8,11.8-16.6l2.3-3.9
							c0.6-0.9,1.4-1.9,2.4-3.1l0.8-0.9l1.3-1.5l1.4-1.7c0.2-0.7,0.3-1.4,0.5-2.1l1.2-5.4l0.5-2.3l0-0.1c0,0,0.1-0.2,0.1-0.2
							l0.2-0.2c0.1-0.1,0.1-0.1,0.3-0.4c1.1-1.9,2.1-3.9,2.9-5.8c1.7-3.9,2.8-7.9,3.8-11.6c0.6-2.4,1.2-4.7,1.7-6.9
							c0.6-2.2,1.2-4.6,1.7-7c1.1-4.7,2.1-9.5,2.8-14.4c1.5-9.8,2-20,0.6-30.3c-0.6-4.5-1.3-8.6-1.6-12.5c-0.3-3.8-0.2-7.5,0.5-10.2
							c0.2-0.7,0.4-1.3,0.7-1.9l0.6-1.5c0.2-0.6,0.5-1.2,0.7-1.9c0.8-2.5,1.4-5.1,1.7-7.7c0.6-5.1,0.3-10.1-0.3-14.5
							c-0.3-2.2-0.6-4.6-1-7.1c-0.1-1.2-0.3-2.3-0.4-3.4c-0.1-0.6-0.1-1.1-0.1-1.7c0-0.6-0.1-1-0.1-1.7c-0.3-5.1-0.7-9.8-1.7-13.6
							c-0.5-1.8-1.6-2.6-2.8-2.8c0.9,0.2,0,2.5-1,4.9c-1,2.5-2.2,5.1-2.3,5.4c-0.7,2.2-1.2,4.5-1.6,6.8c-0.4,2.4-0.6,4.9-0.7,7.3
							c-0.3,4.7-0.5,9-1.1,12.9c-0.6,4-1.5,7.5-2.8,10.9l-0.6,1.3l-0.4,1l-0.5,1.2c-0.3,0.8-0.5,1.6-0.7,2.4
							c-0.2,0.8-0.4,1.6-0.5,2.4c-0.5,3.1-0.6,6.1-0.5,8.9c0.2,5.6,1.2,10.8,1.9,15.5c1.3,8.9,1,18.1-0.4,27.4c-0.6,4-1.4,8-2.3,12
							c-0.4,2-0.9,4-1.4,6.1l-1.5,6.3c-0.9,4.1-1.9,7.9-3.2,11.3c-0.7,1.7-1.4,3.3-2.2,4.8l-0.3,0.6l-0.7,1.1l-0.7,1.1
							c-0.1,0.2-0.2,0.5-0.2,0.7l-0.2,0.8l-0.8,3.8c-0.3,1.2-0.6,2.4-0.8,3.6c0,0.1-0.1,0.1-0.1,0.2l-1.2,1.3
							c-0.5,0.5-0.9,1-1.5,1.6c-1,1.2-2.1,2.6-3.1,4.2C337.4,398,334.6,402.1,331.6,405.9z"/>
					</g>
				</g>
			</g>
		</g>
		<g>
			<g>
				<g>
					<path class="st2" d="M339.2,63.4l-0.1-0.1C339.2,63.4,339.2,63.4,339.2,63.4z"/>
					<path class="st2" d="M342.7,86.7l-0.1-0.1C342.6,86.7,342.7,86.7,342.7,86.7z"/>
					<path class="st2" d="M351.1,99.8L351,100C351.1,100,351.1,99.9,351.1,99.8z"/>
					<g>
						<path class="st2" d="M358.7,84.6c0.8-3.7,0.9-7.6,0.2-11.4c-0.6-3.8-2-7.5-4.1-10.7c-2.1-3.3-4.8-6-7.7-8.3
							c-0.7-0.5-1.6-1.2-2.4-1.7l-1.3-0.8c-0.4-0.2-0.9-0.4-1.3-0.7c-1.8-0.8-3.6-1.5-5.4-2c-3.9-1-7.9-1.3-12-0.4
							c-2,0.5-4.1,1.2-6,2.5c-1.9,1.3-3.6,3.1-4.6,5.2c-1,2.1-1.5,4.3-1.7,6.3c-0.2,2.1,0,4,0.3,5.9c0.3,1.9,0.8,3.7,1.4,5.4
							c0.5,1.6,1.1,3.1,1.7,4.7c2.1,6,5.2,11.6,7.3,17.8c0.6,1.7,1.1,3.3,1.7,5c0.3,0.8,3.1,4.3,3.9,4.8c0.4,0.2-0.1-2.4-0.2-3.2
							c-0.4-2.4-0.8-6-1.2-7.7c-0.8-3.5-1.1-5.2-2.1-8.7c-1.1-3.6-2.1-7.2-3.2-10.9c-0.5-1.8-1.1-3.7-1.4-5.3
							c-0.3-1.6-0.4-3.3-0.1-4.8c0.4-2.4,0.9-4.4,1.9-5.6c0.5-0.6,1-1.1,1.9-1.5c0.9-0.4,1.9-0.7,3-0.7c2.4-0.1,5,0.6,7.1,1.6
							c1.1,0.5,2,1.2,2.9,1.8c0.2,0.2,0.4,0.3,0.6,0.5c0.2,0.2,0.3,0.3,0.5,0.5c0.4,0.5,0.9,0.9,1.3,1.4c1.8,2,3.1,4.5,3.8,7
							c0.7,2.6,0.8,5.2,0.7,7.9c-0.1,2.6-0.6,5.4-1.6,8l-0.4,1l-0.2,0.5l-0.2,0.3c-0.1,0.2-0.2,0.4-0.3,0.7l-0.5,0.8
							c-0.3,0.5-0.8,1.1-1.2,1.6c-0.4,0.5-1,1.1-1.5,1.6c-2.5,2.5-5.5,4.7-8.7,6.7c-2,1.2-4,2.4-6.1,3.4c-2,1-4.1,1.9-5.9,2.4
							c-0.5,0.2-0.8,0.2-1.2,0.3c-0.4,0.1-0.6,0.1-0.9,0.1c-0.1,0-0.2,0-0.4,0c-0.1,0-0.3,0-0.4,0c-0.2,0-0.2,0-0.3-0.1
							c-0.1,0-0.2-0.1-0.4-0.2c-0.2-0.1-0.6-0.5-0.9-0.8c-0.4-0.3-0.6-0.6-0.9-0.9c-0.3-0.3-0.6-0.6-0.8-0.9
							c-1.8-2.3-2.1-5.2-1.7-8.6c0.1-0.8,0.3-1.7,0.4-2.6l0.2-0.7l0.1-0.3l0.1-0.4c0.1-0.7,0.3-1.5,0.4-2.2c0.3-2.8,0.4-5,0.5-6.8
							c0-0.5,0.1-0.9,0.1-1.3c0.1-0.4,0.1-0.8,0.2-1.1c0.1-0.7,0.2-1,0.3-1.5c0-0.1,0.1-0.2,0.1-0.3c0-0.1,0.1-0.2,0.1-0.4
							c0-0.3,0.3-0.6,0.4-0.9c0.1-0.4,0.5-0.7,0.7-1.1c0.1-0.2,0.2-0.4,0.4-0.7c0.2-0.2,0.3-0.4,0.4-0.7c0.6-0.9,0.6-2.3,0.3-3.4
							c0.1,0.5-0.2,0.6-0.7,0.7c-0.2,0-0.5,0-0.9-0.1c-0.3-0.1-0.7-0.1-1.1-0.2c-0.7-0.1-1.6-0.3-2.3-0.3c-0.7,0-1.2,0-1.3,0
							c-0.7,0.1-1.4,0.4-2.1,0.7c-0.6,0.4-1.3,0.8-1.9,1.3c-0.6,0.5-1.2,1.1-1.6,1.7c-0.5,0.6-0.9,1.3-1.4,2
							c-1.6,2.6-2.6,5.3-3.5,7.6c-0.4,1.1-0.8,2.2-1.2,3.3c-0.2,0.5-0.4,0.9-0.5,1.4c-0.2,0.6-0.4,1.4-0.6,2.2
							c-0.3,1.6-0.5,3.3-0.6,5c-0.1,1.7,0,3.5,0.3,5.4c0.6,3.6,2,7.5,4.2,10.6c1.1,1.6,2.4,3,3.8,4.3c0.7,0.6,1.4,1.2,2.1,1.8
							c0.8,0.6,1.9,1.3,3.1,1.9c1.2,0.6,2.5,1,3.8,1.2c0.6,0.1,1.2,0.2,1.8,0.2c0.6,0.1,1,0.1,1.7,0.1c1.1,0,2.4-0.1,3.3-0.3
							c1-0.2,2-0.3,2.8-0.6c5.8-1.6,10.2-4.1,14.6-6.9c4.3-2.8,8.4-5.8,12.3-9.6c2.3-2.3,4.7-4.7,6.9-8.6
							C356.7,91.5,357.9,88.1,358.7,84.6z"/>
					</g>
				</g>
			</g>
		</g>
		<g>
			<g>
				<g>
					<path class="st2" d="M421.9,110.8l0.1,0.2C421.9,110.9,421.9,110.8,421.9,110.8z"/>
					<path class="st2" d="M395.8,95.3l0.1-0.2C395.8,95.2,395.8,95.3,395.8,95.3z"/>
					<path class="st2" d="M393.7,110L393.7,110C393.7,110,393.7,110,393.7,110z"/>
					<g>
						<path class="st2" d="M399.5,110.3c1.3,0.3,2.7,0.8,4.1,1.3c0.7,0.3,1.3,0.6,2,0.9c0.3,0.2,0.6,0.4,1,0.5
							c0.3,0.2,0.7,0.3,1,0.5c0.6,0.4,1.4,0.8,2,1.4c0.3,0.3,0.7,0.5,1,0.8l0.8,1c0.3,0.3,0.5,0.7,0.8,1.1c0.2,0.4,0.5,0.8,0.7,1.2
							c0.2,0.4,0.3,0.8,0.5,1.3c0.1,0.2,0.2,0.4,0.2,0.7l0.1,0.7c0.4,1.9,0.1,3.9-0.1,5.9l-0.2,0.7l0,0.2l0,0.1l0,0.2
							c0,0.3-0.1,0.5-0.2,0.8l-0.2,0.9l-0.2,0.9c-0.3,1.3-1,2.6-1.8,3.6c-0.2,0.2-0.4,0.5-0.7,0.7l-0.3,0.3l-0.2,0.2c0,0,0,0,0,0
							l0-0.1l-0.1-0.1c-0.3-0.6-0.6-1.2-0.9-1.9c-0.5-1.2-1.2-1.9-2-2.9c-0.2-0.3-0.4-0.5-0.6-0.8l-0.3-0.4l-0.2-0.2l-0.2-0.4
							c-0.6-1-1.1-2.1-1.6-3.2c-0.5-1.2-0.9-2.4-1.3-3.6c-0.2-0.6-2.4-3-3.1-3.3c-0.3-0.2-0.3,1.9-0.2,2.5c0.1,1.9,0.3,4.6,0.6,6
							c0.3,1.3,0.6,2.3,0.9,3.3c0.1,0.2,0.2,0.5,0.2,0.7c0.1,0.3,0.2,0.5,0.3,0.8c0.3,0.6,0.5,1.3,0.9,2.1c0.8,1.7,1.5,3.4,2.3,5.1
							c0.4,0.9,0.8,1.7,1.2,2.4l1.3,2.4l1.3,2.4l0.7,1.3l0.3,0.6l0.5-0.4c1.2-1,2.6-2,3.8-3.1c0.5-0.4,1.1-0.9,1.6-1.4
							c0.5-0.5,1-1.1,1.5-1.7c1.1-1.1,1.9-2.7,2.8-4.2c0.2-0.4,0.5-0.7,0.6-1.2l0.5-1.3l1.1-2.5c0.3-0.8,0.6-1.8,0.8-2.7
							c0.2-0.7,0.4-1.3,0.6-2l0.5-2.2c0.2-0.7,0.2-1.5,0.4-2.3c0.3-1.5,0.2-3.1,0.2-4.7c0-0.8-0.2-1.6-0.3-2.4l-0.2-1.2l-0.3-1.2
							c-0.2-0.8-0.4-1.6-0.7-2.3c-0.3-0.8-0.7-1.5-1.1-2.2c-3.3-6.2-8.7-11.5-15.4-13.7c-3.3-1.1-6.9-1.6-10.6-1.2
							c-1.8,0.2-3.6,0.5-5.3,1.1c-0.9,0.3-1.7,0.6-2.5,1l-0.6,0.3l-0.5,0.2c-0.3,0.2-0.7,0.3-1,0.5c-1.6,0.8-3.5,1.8-5.4,3.4
							c-1.9,1.5-3.7,4-4.6,6.4c-1.2,3.1-1.3,5.9-1.3,8.3l0.1,2.9l0.1,2.8c0.1,3.8,0.1,8,0.7,12.4c0.5,3.9,1.2,8.9,4.1,13.3
							c1.4,2.2,3.2,4.2,5.4,5.8c2.2,1.5,4.6,2.7,7,3.2c5.1,1.4,11.6,1.1,14.6-2.3c0.8-0.8,0.8-2.1,0.7-3.3c0.1,0.9-1,0.5-2.2-0.1
							c-1.2-0.6-2.3-1.7-2.4-1.7c-1.8-1-3.6-1.7-5.1-2.6c-1.4-1-2.6-2.2-3.3-3.4c-0.8-1.2-1.3-2.2-1.9-3.1c-0.6-0.9-1.1-1.9-1.4-3.1
							c-0.2-0.6-0.3-1.2-0.5-1.8c-0.1-0.6-0.3-1.5-0.4-2.3c-0.4-3.3-0.5-7.1-0.5-11.2c0-1.8-0.1-3.6-0.2-5.5c-0.1-1.3,0-2.4,0.1-3
							c0.2-0.6,0.2-0.6,0.5-0.9c0.3-0.3,1.2-0.9,2.4-1.5c0.3-0.2,0.8-0.4,1.1-0.5c0.3-0.1,0.6-0.2,0.9-0.3c0.6-0.2,1.2-0.2,1.8-0.3
							C397,109.8,398.2,109.9,399.5,110.3z"/>
					</g>
				</g>
			</g>
		</g>
		<g>
			<g>
				<g>
					<path class="st2" d="M217.6,340.9l-0.6,0.4C217.3,341.1,217.5,341,217.6,340.9z"/>
					<path class="st2" d="M291.2,274.5l0,0.3C291.3,274.6,291.3,274.5,291.2,274.5z"/>
					<path class="st2" d="M287.5,250l0.2-0.5C287.6,249.7,287.5,249.9,287.5,250z"/>
					<g>
						<path class="st2" d="M268.2,281.7c-5.4,6.4-11.3,12.5-17.8,18.1c-1.6,1.4-3.2,2.8-4.9,4.1l-2.5,2l-2.6,2
							c-3.5,2.7-6.9,5.4-10.4,8.2c-14.2,11.1-28.6,22-44.6,30.6c-4.3,2.2-8.5,4.4-12.9,6.4c-2.2,1-4.4,2-6.6,2.9l-6.7,2.9
							c-9,3.9-17.9,8-26.7,12.5c-8.8,4.5-17.5,9-26.1,13.6c-4.3,2.3-8.6,4.6-12.9,7.1c-4.3,2.4-8.6,4.9-12.8,7.5
							c-16.4,10.2-30.9,23.4-43.1,38.5c-3.2,4.1-6.4,8.2-9.1,12.7c-0.7,1.1-2.5,4.6-3.7,8.7c-0.6,2-0.9,4.2-1,6
							c-0.1,1.8,0.2,3.3,0.3,4c0.2,0.6,0.2-1.2,0.7-3.4c0.5-2.2,1.4-4.5,1.9-5.4c1.5-3.2,3.9-6.8,6.4-10c2.4-3.3,5-6.2,6.7-8.2
							c3.5-4,6.2-6.9,8.9-9.6c0.7-0.7,1.4-1.4,2.1-2.1c0.7-0.7,1.5-1.4,2.3-2.1c1.5-1.5,3.3-3,5.3-4.8c8.5-7.3,17.6-13.6,27.1-19.2
							c9.6-5.5,19.5-10.5,29.6-15.1c16.4-7.4,33.3-15.9,50.3-22.6l7-2.7c2.4-0.9,4.7-2,7-2.9c4.6-2,9.3-4.2,13.8-6.5
							c9.1-4.5,17.9-9.6,26.4-15.2c9-5.9,17.9-11.9,26.7-18.1l3.3-2.3c1.1-0.8,2.2-1.5,3.3-2.4l3.3-2.5l3.2-2.6
							c4.3-3.5,8.4-7.2,12.3-11.3c3.8-4,7.5-8.1,10.8-12.6c1.7-2.2,3.2-4.5,4.8-6.8c1.5-2.3,3-4.7,4.3-7.1c1.4-2.4,2.6-4.9,3.9-7.3
							c1.2-2.5,2.4-5,3.4-7.6c1.1-2.5,2-5.2,3-7.8c0.5-1.3,0.8-2.6,1.3-3.9c0.4-1.3,0.8-2.6,1.2-4c0.9-3.2,1.7-6.7,1.8-10.7
							c0-2-0.1-4.1-0.6-6.2c-0.5-2.1-1.3-4.1-2.3-6c-0.5-0.9-1.1-1.8-1.7-2.7l-0.9-1.2l-0.7-0.9c-0.9-1.1-1.8-2.3-2.7-3.5
							c-1.8-2.4-3.5-4.8-5.2-7.2c-4.2-6.2-8-12.6-11.6-19.2c-3.6-6.6-6.9-13.4-9.8-20.2c-1.5-3.4-2.8-6.9-4.1-10.4
							c-1.3-3.5-2.4-7.1-3.5-10.6c-2.1-7.1-3.8-14.3-4.7-21.6c-0.9-6.5-1.1-13-0.4-19.3l0.3-2.3c0.1-0.8,0.3-1.5,0.4-2.3
							c0.1-0.8,0.2-1.5,0.4-2.3l0.5-2.2c0.3-1.5,0.8-2.9,1.3-4.4c0.4-1.4,1-2.9,1.6-4.5c1.2-3.1,2.6-6.4,3.8-10.1
							c0.6-1.9,1.1-3.8,1.5-5.9c0.2-1,0.4-2.1,0.5-3.1c0.1-1,0.2-2,0.3-3c0.2-3.9,0.2-7.1,0.6-9.7c0-0.3,0.1-0.7,0.1-0.9
							c0.1-0.2,0.1-0.5,0.2-0.7c0.1-0.5,0.3-0.9,0.5-1.4c0.4-0.9,0.9-1.8,1.6-2.8c0.8-1,1.8-2.2,3-3.4c1.2-1.2,2.7-2.5,4.3-3.9
							c3.1-2.8,6.3-5.7,9.3-8.6c1.5-1.5,3-2.9,4.5-4.4c0.7-0.7,1.4-1.5,2.1-2.2c0.6-0.7,1.3-1.3,1.9-2c2.4-2.5,4.4-4.3,6.2-5.4
							c0.8-0.5,1.4-1,1.9-1.5c0.5-0.5,0.8-1.1,0.9-1.6c-0.1,0.5-0.9,0.4-2.2,0.4c-0.6,0-1.4,0-2.3,0.1c-0.9,0.1-1.8,0.3-2.8,0.6
							c-2,0.6-4,1.5-5.5,2.3c-1.6,0.8-2.7,1.4-2.9,1.6c-6.2,3.9-12.5,8.7-18.7,13.1c-3,2.1-6.1,4.2-9,7.2c-1.4,1.5-2.8,3.2-3.9,5.1
							c-0.3,0.5-0.5,1-0.8,1.5c-0.3,0.5-0.5,1-0.7,1.6c-0.2,0.5-0.4,1.1-0.5,1.6c-0.2,0.6-0.3,1.1-0.4,1.6c-1,4.1-1.2,7.9-1.7,11.2
							c-0.2,1.7-0.5,3.1-0.9,4.6c-0.4,1.5-0.9,3.1-1.5,4.7c-1.2,3.5-2.9,7.1-4.4,11.3l-0.6,1.6l-0.5,1.6c-0.3,1.1-0.7,2.2-1,3.3
							l-0.7,3.3c-0.1,0.6-0.3,1.1-0.4,1.7l-0.3,1.7c-0.2,1.1-0.4,2.2-0.5,3.3l-0.3,3.3c-0.1,1.1-0.2,2.2-0.2,3.3
							c0,1.1-0.1,2.2-0.1,3.3c0.1,2.2,0,4.4,0.2,6.6l0.2,3.3l0.3,3.2c0.9,8.6,2.9,17,5.2,25.1c1.2,4.1,2.5,8.1,3.9,12
							c1.4,4,2.9,7.9,4.6,11.8c2.8,6.6,5.9,13.1,9.3,19.4c3.4,6.3,7,12.5,11,18.5c2,3,4.1,6,6.2,8.9c1.1,1.4,2.2,2.9,3.3,4.3
							c0.5,0.7,1.1,1.4,1.7,2.1l0.8,1.1l0.5,0.6c1.2,1.7,1.8,3.3,1.8,5.5c0,2.2-0.5,5-1.4,8C286.4,255.1,278.5,269.4,268.2,281.7z"
							/>
					</g>
				</g>
			</g>
		</g>
		<g>
			<g>
				<g>
					<path class="st2" d="M353.7,170l0-0.1C353.7,170,353.7,170,353.7,170z"/>
					<path class="st2" d="M346.1,183.6l0-0.2C346,183.5,346.1,183.6,346.1,183.6z"/>
					<path class="st2" d="M344.4,198.5l-0.2,0C344.3,198.6,344.4,198.5,344.4,198.5z"/>
					<g>
						<path class="st2" d="M358,193.5c2.6-2,4.8-4.4,6.4-7.4c0.4-0.7,0.8-1.5,1.1-2.3l0.5-1.2c0.1-0.4,0.3-0.8,0.4-1.3
							c0.3-0.8,0.4-1.7,0.5-2.6l0.1-0.7l0-0.6l0-1.2c0-3.3-0.6-6.2-1.6-9c-0.9-2.8-2.1-5.4-3.4-8c-1.4-2.7-3.2-5.3-5.6-7.5
							c-1.2-1.1-2.5-2-3.9-2.8c-0.7-0.4-1.4-0.7-2.1-1c-0.8-0.3-1.4-0.6-2.3-0.7l-1.2-0.3l-1.2-0.2c-0.4-0.1-0.9-0.1-1.4-0.2
							c-0.5,0-0.9-0.1-1.4-0.1c-1.9,0-3.7,0.4-5.4,1.2c-1.6,0.8-3.1,2.1-4.1,3.6c-0.3,0.4-0.5,0.8-0.7,1.2c-0.2,0.4-0.4,0.8-0.6,1.3
							c-0.2,0.4-0.3,0.9-0.5,1.3c-0.1,0.4-0.2,0.8-0.3,1.2c-0.2,0.8-0.3,1.5-0.3,2.3c-0.1,0.7-0.1,1.5,0,2.3c0,0.7,0.2,1.5,0.3,2.3
							c0.2,0.8,0.3,1.5,0.6,2.2c0.9,3,2.6,5.3,3.3,7.5c0.4,1.2,0.6,2.2,0.7,3.3c0,0.1,0.1,0.4,0.2,0.6c0.2,0.3,0.3,0.6,0.5,1
							c0.2,0.4,0.4,0.8,0.5,1.1c0.2,0.3,0.3,0.6,0.4,0.7c0.1,0.1,0.4-0.2,0.6-0.7c0.1-0.2,0.3-0.5,0.4-0.7c0.1-0.2,0.2-0.5,0.2-0.6
							c0.2-0.4,0.3-0.9,0.4-1.5c0.1-0.3,0.1-0.5,0.2-0.8c0-0.3,0-0.6,0.1-0.8c0.1-1.1,0-2.3-0.2-3c-0.6-2.9-1.1-4.2-1.7-6.6
							c-0.3-1.3-0.3-2.5-0.3-3.8c0.1-0.6,0.1-1.3,0.3-1.9l0.2-0.9l0.3-0.9l0.1-0.4l0.2-0.3c0.1-0.2,0.2-0.4,0.4-0.6l0.4-0.5
							c0.2-0.2,0.3-0.3,0.5-0.4c0.7-0.5,1.6-0.7,2.4-0.5c0.6,0.1,1.2,0.3,1.6,0.5c0.6,0.2,1.4,0.5,2.3,0.9c1.7,0.8,3.2,1.7,4.3,3.2
							c1.2,1.5,1.9,3.4,2.4,5.3c0.5,1.9,0.8,3.9,1.1,5.8c0.1,0.5,0.1,1,0.1,1.5c0,0.5,0,1-0.1,1.5c-0.1,1-0.4,1.9-0.7,2.5
							c-0.6,1.4-1.7,2.8-2.9,4.2c-1.2,1.3-2.7,2.5-4.2,3.3c-0.4,0.2-0.8,0.4-1.2,0.5c-0.4,0.1-0.8,0.3-1.2,0.3
							c-0.4,0.1-0.8,0.2-1.3,0.2c-0.2,0-0.4,0-0.6,0l-0.7,0c-0.5,0-0.8,0-1.1,0c-0.4,0-0.7,0.1-1.1,0.1l-1.3,0.1L335,185l-1.2,0.1
							l-0.6,0.1c-0.1,0-0.1,0-0.1,0l0,0l-0.1,0l-0.2,0c-0.1,0-0.3,0-0.4,0l-0.8-0.1c-0.6-0.1-1.2-0.2-1.7-0.4
							c-0.5-0.2-0.9-0.3-1.2-0.5c-0.4-0.2-0.7-0.5-1.1-0.8c-0.4-0.4-0.8-0.8-1.2-1.3c-1.7-2.2-3.2-5.3-3.9-8.4
							c-0.7-2.8-0.4-5.6,0.2-8.1c0.3-1.3,0.8-2.5,1.2-3.7c0.3-0.6,0.5-1.2,0.7-1.8c0.3-0.6,0.6-1.2,0.8-1.9c1.2-2.7,3.7-6,3.9-10.1
							c0-1-0.7-2.2-1.4-3c0.6,0.7-0.4,1-1.8,1.2c-1.3,0.2-2.9,0.3-3.1,0.4c-1,0.4-2,0.9-2.9,1.5c-0.5,0.3-1,0.6-1.4,0.9
							c-0.4,0.3-0.9,0.7-1.3,1c-1.8,1.3-3.5,2.7-5.1,4.4c-0.7,0.9-1.4,1.8-2.1,2.8c-0.7,1-1.1,2.2-1.5,3.4c-0.2,0.6-0.4,1.3-0.5,1.9
							l-0.4,2c-0.2,1.3-0.3,2.7-0.4,4c0,2.7,0.2,5.4,0.8,8c0.5,2.6,1.4,5.1,2.5,7.5c0.3,0.6,0.5,1.2,0.9,1.8c0.3,0.6,0.6,1.2,1,1.8
							c0.3,0.6,0.7,1.2,1.1,1.7c0.4,0.6,0.8,1.2,1.2,1.7c1.5,2,3.5,4,6,5.5c2.5,1.6,5.4,2.4,8.1,2.8c1.3,0.2,2.6,0.2,3.8,0.2l1,0
							c0.4,0,0.9,0,1.3-0.1l1.4-0.2l2.7-0.3l1.3-0.1c0,0,0.1,0,0.1,0C346.6,199.2,353.1,197.3,358,193.5z"/>
					</g>
				</g>
			</g>
		</g>
		<g>
			<g>
				<g>
					<path class="st2" d="M379,42.1c0,0-0.1,0-0.2,0.1c-0.1,0-0.2,0.1-0.2,0.1C378.8,42.2,378.9,42.2,379,42.1z"/>
					<path class="st2" d="M409.8,60.7l-0.2,0C409.7,60.7,409.8,60.7,409.8,60.7z"/>
					<path class="st2" d="M427.5,61.3l0.2,0.3C427.6,61.4,427.5,61.4,427.5,61.3z"/>
					<g>
						<path class="st2" d="M415.3,43.7c-2.9-3.7-5.9-7.3-8.9-10.7l-1.3-1.4c-0.4-0.5-1-1-1.5-1.6c-1.1-1.1-2.3-2.1-3.9-3.2
							c-0.4-0.3-0.8-0.5-1.2-0.7c-0.5-0.2-0.9-0.5-1.4-0.7c-0.5-0.2-1-0.4-1.5-0.6c-0.5-0.2-1.1-0.3-1.6-0.4
							c-2.2-0.4-4.4-0.3-6.2,0.1c-1.9,0.4-3.4,1.1-4.8,1.7c-0.7,0.3-1.3,0.7-1.9,1.1l-0.9,0.5l-0.6,0.4c-1.6,1.1-3.3,2-5.1,2.6
							c-3.5,1.2-7.2,1.2-11-0.3c-1.7-0.6-3.3-1.5-5-2.5c-0.8-0.5-1.6-1.1-2.4-1.6c-0.5-0.4-1.1-0.8-1.5-1.4
							c-0.4-0.5-0.9-1.1-1.3-1.9c-0.2-0.4-0.4-0.8-0.6-1.2l-0.5-1.2c-0.4-0.8-0.8-1.7-1.5-2.5c-0.1-0.1-0.3-0.3-0.4-0.4l0.5-0.3
							l1-0.6c0.5-0.3,1.1-0.7,1.7-1l0.9-0.5c0.5-0.2,1-0.5,1.5-0.7c2.1-0.9,4.1-1.4,6.1-1.5c1-0.1,2.1,0,3.2,0.1l0.9,0.1l0.6,0.1
							l1.5,0.4c2.4,0.7,4.8,1.5,7.3,2.2c1.2,0.3,2.4,0.7,3.5,1c0.2,0,0.3,0.1,0.5,0.2l0.8,0.3c0.5,0.2,1,0.4,1.5,0.6
							c0.9,0.4,1.8,1,2.1,1.2c0,0,0.1,0,0.1,0.1l0,0c0,0,0,0,0,0l0.1-0.1c0.1-0.1,0.2-0.2,0.4-0.3c0.1-0.1,0.3-0.2,0.4-0.2l0.2-0.1
							c0.1,0,0.1,0,0.1-0.1c0.1-0.1,0.3-0.1,0.5-0.1c0,0,0,0,0,0c0.1,0-0.1,0-0.1,0c-0.1,0-0.1,0-0.2-0.1c0,0-0.1,0-0.1-0.1l0,0
							l-0.1,0c-0.1-0.1-0.3-0.1-0.4-0.2c-0.1-0.1-0.2-0.2-0.3-0.3c-0.1-0.1-0.1-0.1-0.2-0.2c-0.1-0.1-0.1-0.1-0.1-0.1
							c0,0,0,0.1-0.2,0.2l-0.2,0.1l-0.3,0.2c-0.2,0.1-0.4,0.2-0.6,0.3c-0.2,0.1-0.4,0.2-0.7,0.3c-0.9,0.4-2,0.7-3.1,1
							c-2.2,0.6-4.6,0.9-6.9,1.1c-2.5,0.2-5.1,0.2-7.6,0.2c-1.2,0-7.6,1.1-8.8,1.5c-0.6,0.2,3.2,1.1,4.3,1.3
							c3.5,0.7,8.9,1.4,11.7,1.4c2.8,0,4.9-0.1,7-0.3c1.1-0.1,2.1-0.3,3.3-0.5c1.2-0.3,2.4-0.6,4-1.3c0.8-0.4,1.6-0.8,2.5-1.7
							c0.2-0.3,0.4-0.5,0.6-0.8c0.2-0.4,0.3-0.7,0.4-1.1c0.1-0.4,0.1-0.9,0.1-1.3c-0.1-0.4-0.2-0.8-0.3-1.1
							c-0.1-0.3-0.3-0.6-0.5-0.9c-0.2-0.3-0.3-0.4-0.5-0.7c-0.4-0.5-0.7-0.7-1.1-1c-0.7-0.6-1.4-1.1-2.1-1.5
							c-0.7-0.4-1.4-0.8-2.1-1.1l-1-0.5l-0.6-0.3c-0.2-0.1-0.5-0.2-0.7-0.2l-4.1-1.4L372.6,8l-4.3-1.6L365.7,6
							c-0.8-0.1-1.6-0.2-2.4-0.3c-1.7-0.2-3.4-0.2-5.2,0c-1.7,0.2-3.3,0.6-4.8,1c-0.7,0.2-1.5,0.5-2.2,0.8c-0.9,0.4-2,0.9-3,1.3
							c-2,0.9-4,1.8-6.1,2.7l-3,1.4c-0.5,0.2-1,0.5-1.5,0.7c-0.3,0.3-0.5,0.5-0.8,0.8c1.2,1.4,2.5,3,3.6,4.5
							c1.2,1.5,2.2,2.9,2.7,4.4l0.8,1.9c0.2,0.5,0.4,1,0.7,1.5c0.5,1.1,1.1,2.2,1.8,3.3c0.9,1.5,2.2,2.9,3.6,4.1
							c0.4,0.3,0.6,0.5,0.9,0.7l0.8,0.7c0.5,0.4,1.2,0.9,1.7,1.3c2.4,1.7,5,3.2,7.9,4.4c2.9,1.2,6.2,1.9,9.5,2
							c3.3,0.1,6.6-0.5,9.7-1.5c1.6-0.5,3.2-1.2,4.6-1.9l1.8-0.8c0.5-0.2,1-0.4,1.4-0.6c0.9-0.3,1.6-0.4,2-0.4
							c0.3,0,0.4,0.1,0.7,0.3c0.3,0.2,0.8,0.6,1.4,1.3c0.6,0.7,1.3,1.5,2.1,2.5c1.7,2.2,3.4,4.4,5.2,6.5
							c6.9,8.3,13.7,16.4,18.9,25.3c1.5,2.6,2.9,5.2,4.1,7.9c1.2,2.6,2.3,5.5,3.3,8.4c2.6,7.3,4.9,14.6,6.7,22.2
							c0.9,3.8,1.8,7.5,2.5,11.4c0.4,1.9,0.7,3.8,1,5.7c0.3,1.9,0.6,3.9,0.8,5.7c0.8,6.6,0.5,13.3-0.4,19.9
							c-0.9,6.6-2.3,13.3-3.6,20.2c-1.3,7.3-4,17.3-2.8,24.4c0.3,1.7,1.4,2.5,2.5,2.8c-1.8-0.5,4.2-7.7,4.5-8.2
							c2-3.3,3.6-7.2,5.2-10.8c3.2-7.1,6.6-13.5,8.1-21.9c1.6-8.7,2-17.9,1-27c-0.1-1.1-0.3-2.3-0.4-3.4l-0.5-3.2
							c-0.3-2.1-0.7-4.3-1.1-6.4c-0.8-4.3-1.7-8.5-2.8-12.8c-1.8-7.2-4-14.4-6.6-21.4c-0.6-1.8-1.3-3.5-2-5.2
							c-0.7-1.7-1.4-3.4-2.2-5.3c-1.6-3.6-3.4-7-5.3-10.3C426.2,58.5,420.9,50.9,415.3,43.7z"/>
					</g>
				</g>
			</g>
		</g>
		<g>
			<g>
				<g>
					<path class="st2" d="M149,409.2l-0.4,0.1C148.7,409.3,148.9,409.3,149,409.2z"/>
					<path class="st2" d="M203.7,387.9l0,0.2C203.7,388,203.7,387.9,203.7,387.9z"/>
					<path class="st2" d="M208.9,369.9l0.3-0.2C209.1,369.8,209,369.9,208.9,369.9z"/>
					<g>
						<path class="st2" d="M187.2,378.9c-9.8,4-19.6,8.1-29.3,12.6c-9.9,4.6-19.8,9.5-30.2,13.6c-11,4.3-22,8.6-32.6,14.2
							c-10.6,5.6-20.9,11.1-31,17.8c-9.8,6.5-17.8,14.8-26.7,22c-2.4,1.9-4.8,3.8-7.2,5.7c-1.2,0.9-6.2,6.6-7,7.9
							c-0.4,0.6,3.5-1.7,4.6-2.3c3.5-2.1,8.8-5.4,11.5-7.2c5.3-3.7,7.7-5.5,12.9-9.5c2.7-2.1,5.4-4.1,8.1-6c1.4-1,2.7-1.9,4.1-2.8
							c1.4-0.9,2.7-1.8,4.2-2.7c5.6-3.5,11.5-6.5,17.6-9.1c9.9-4.1,19.8-9.4,30.2-13.1c11.1-4,22.6-7.1,33.9-11.3
							c12-4.4,24.3-8.1,36.3-13.1c11.8-4.9,23.3-10.4,34.8-16.2c6.7-3.4,13.3-6.9,19.9-10.7c8.2-4.8,16.2-10.1,23.8-16
							c3.8-2.9,7.5-5.9,11.1-9.1c3.6-3.1,7.1-6.3,10.6-9.6c6.3-6,12.4-12,18-18.7c5.6-6.6,10.8-13.9,14.7-22
							c0.5-1.1,1.1-2.2,1.6-3.3c0.5-1.2,1-2.4,1.5-3.6c0.5-1.2,1.1-2.7,1.5-4c0.4-1.3,0.8-2.6,1.1-3.9c0.6-2.5,1.1-4.6,1.6-6.4
							c0.5-1.8,0.9-3.6,1.3-5.1c0.4-1.5,0-2.8-0.8-3.7c0.3,0.4,0,0.8-0.7,1.3c-0.6,0.6-1.6,1.2-2.6,2c-2,1.5-4,3.6-4.3,3.9
							c-1.4,1.8-2.5,3.9-3.6,5.9c-0.6,1-1.1,2-1.7,3c-0.3,0.5-0.6,0.9-0.9,1.4c-0.3,0.5-0.6,0.9-1,1.4c-5,7.2-10.4,12.7-16,19.6
							c-1.4,1.8-3,3.6-4.5,5.4c-1.6,1.7-3.1,3.5-4.7,5.2c-3.1,3.5-6.5,6.8-9.8,10c-3.4,3.3-6.9,6.4-10.5,9.6c-3.6,3.1-7.3,6.2-11,9
							c-6.4,4.9-13,9.5-19.9,13.8c-6.9,4.3-14,8.2-21.3,11.8C206,371.2,196.6,375.1,187.2,378.9z"/>
					</g>
				</g>
			</g>
		</g>
		<g>
			<g>
				<g>
					<path class="st2" d="M281.1,424.2l-0.3,0.2C281,424.3,281.1,424.3,281.1,424.2z"/>
					<path class="st2" d="M324,390l0.1,0.2C324.1,390,324.1,390,324,390z"/>
					<path class="st2" d="M316.7,373.8l0.1-0.3C316.7,373.7,316.7,373.8,316.7,373.8z"/>
					<g>
						<path class="st2" d="M306.2,389.5c-5.6,6.4-12.2,12-19.4,17c-7.4,5.2-15.7,9.9-24.8,12.6c-9.8,2.9-19.9,5.1-29.9,7.8
							c-10.1,2.7-20.1,4.5-30.5,6.4c-2.5,0.5-5.1,1.1-7.6,1.8c-2.5,0.8-5.1,1.7-7.5,2.8c-2.4,1.1-4.8,2.2-7.1,3.4l-1.7,0.9l-0.9,0.5
							l-1.1,0.7c-1.3,0.9-2.4,1.8-3.5,2.8c-2.2,2-4.1,4.1-5.9,6.3c-0.4,0.5-1.5,2.4-2.4,4.3c-0.9,1.9-1.7,3.9-1.8,4.6
							c-0.1,0.3,0.6-0.3,1.4-1.1c0.8-0.8,1.7-1.7,2.1-2.1c1.3-1.3,3-2.9,4.6-4.4c1.6-1.5,3.2-2.8,4.3-3.7c1.1-0.9,2-1.6,2.9-2.2
							c0.5-0.3,0.9-0.5,1.3-0.7c0.4-0.2,0.9-0.4,1.4-0.6c1.9-0.8,3.9-1.6,6.5-2.6c5.5-2.2,11.1-3.3,16.9-4.2
							c5.9-0.8,11.8-1.6,17.8-2.1c9.7-0.8,19.6-3.6,29.3-5.4l7.9-1.5c2.6-0.5,5.3-1,8-1.7l4-1c1.3-0.4,2.7-0.8,4-1.2
							c1.3-0.4,2.7-0.9,4-1.3c1.3-0.5,2.6-1.1,3.9-1.6c2.8-1.1,5.4-2.5,8.2-3.8l1-0.5l1-0.5l2-1.1c1.3-0.7,2.7-1.4,4-2.2
							c2.6-1.7,5.2-3.2,7.6-5.2c1.2-1,2.5-1.8,3.6-2.9c1.1-1.1,2.3-2.1,3.4-3.2c1.1-1,2.1-2.2,3.1-3.4l1.5-1.7
							c0.5-0.6,1-1.1,1.5-1.8c1.8-2.5,3.7-4.9,5.2-7.6l1.2-2l0.6-1l0.5-1l2-4.1l0.5-1l0.4-1.1l0.8-2.1l0.8-2.1l0.4-1.1l0.3-1.1
							l1.6-5.1c0.5-1.7,0.8-3.5,1.2-5.2c0.2-0.9,0.4-1.7,0.6-2.6l0.4-2.6c0.2-1.7,0.5-3.5,0.7-5.2c1.8-16.6,2.3-33.2,2.8-49.8
							c0.2-7.5,0.7-14.9,0.9-22.3c0.1-3.7,0.2-7.4,0.2-11.2l0-0.7l0-0.4l0-0.2l0-0.3c0-0.4,0-0.9-0.1-1.3l-0.2-1.2
							c-0.3-1.6-0.7-2.8-1-3.8c-0.7-2-1-3.1-1.1-3.3c0-0.1-0.1-0.1-0.1-0.3c0,0,0,0,0-0.1l0,0l0.1-0.2c0.1-0.3,0.2-0.6,0.3-0.9
							c0.2-0.6,0.4-1.3,0.5-1.9c0.7-2.6,1.1-5.2,1.2-7.8c0.3-5.1-0.5-9.9-2.1-13.3c-0.8-1.7-2.1-2.1-3.2-2.1c0.9,0,0.5,2.2-0.2,4.5
							c-0.8,2.3-1.9,4.6-2,4.9c-1.3,3.7-2.4,7.7-4.2,11c-0.2,0.4-0.4,0.8-0.7,1.2l-0.4,0.6c-0.1,0.2-0.3,0.6-0.4,0.9
							c-0.6,1.2-1,2.6-1.1,4c-0.3,2.8,0.3,5.3,0.5,7c0.1,0.9,0.2,1.6,0.1,2.1c0,0.2-0.1,0.4-0.2,0.6c0,0-0.1,0.3-0.1,0.6l-0.1,0.7
							c-0.2,1.9-0.4,3.9-0.5,6c-0.7,17.2-0.8,34.3-1.8,51.5c-0.4,7.3-0.9,14.6-1.5,21.9l-0.2,2.7c-0.1,0.9-0.2,1.7-0.3,2.5l-0.3,2.5
							c-0.1,0.8-0.2,1.7-0.4,2.5l-1.1,4.9l-1.5,4.8l-0.2,0.7l-0.3,0.7l-0.6,1.4c-0.4,0.9-0.8,1.8-1.2,2.8c-0.9,1.8-1.9,3.6-2.8,5.3
							l-1.7,2.5l-0.8,1.3c-0.3,0.4-0.5,0.9-0.9,1.2l-1.9,2.4l-0.9,1.2C306.9,388.7,306.5,389.1,306.2,389.5z"/>
					</g>
				</g>
			</g>
		</g>
		<g>
			<g>
				<g>
					<path class="st2" d="M479.9,382.9l0,0.3C480,383.1,480,383,479.9,382.9z"/>
					<path class="st2" d="M461.6,334.8l0.2,0C461.7,334.8,461.7,334.8,461.6,334.8z"/>
					<path class="st2" d="M444.2,333.2L444,333C444.1,333.1,444.1,333.2,444.2,333.2z"/>
					<g>
						<path class="st2" d="M454.4,350.9c2.3,3.8,4.4,7.2,6.1,10.8c1.7,3.5,3.1,7.2,4.3,11.2c1.2,4,2.3,8.6,3.3,13.1
							c1,4.5,1.8,9,2.1,13.5c0.1,1.2,0.1,2.3,0.1,3.3c0,0.3,0,0.5,0,0.7l0,0.3l-0.1,0.4l-0.2,1.8c-0.1,1.2-0.3,2.4-0.5,3.5
							c-0.2,1.2-0.4,2.3-0.6,3.5c-0.9,4.7-2.1,9.3-3.3,14c-2.6,9.4-6.7,18-11.4,26.6c-1.1,2.1-2.3,4.2-3.4,6.3l-1.7,3.1
							c-0.6,1-1.1,2-1.7,3c-2.4,4-5.1,7.8-8.3,11.2c-1.7,1.8-3.6,3.4-5.5,5c-0.2,0.2-0.6,0.6-1.1,1.2c-0.5,0.6-1.1,1.2-1.7,1.9
							c-0.6,0.7-1.2,1.3-1.7,1.8c-0.5,0.5-0.9,0.9-1.1,1.2c-0.2,0.2,0.6,0.1,1.5-0.2c0.9-0.3,2-0.8,2.5-1c1.5-0.7,3.4-1.8,5.2-2.9
							c1.7-1.2,3.4-2.4,4.4-3.3c2.1-1.8,3.5-3.2,5-4.7c1.4-1.5,2.7-3.1,4.5-5.3c1.8-2.3,3.4-4.8,4.9-7.3c1.5-2.4,3.1-4.9,4.5-7.3
							c3-4.9,5.8-9.9,8.7-15c4.7-8.3,7.2-18.1,9.5-27.5c0.6-2.6,1.2-5.1,1.7-7.7l0.2-1l0.2-1.3c0.1-0.8,0.1-1.5,0.2-2.2
							c0.1-1.4,0.1-2.8,0.1-4.1c0-5.3-0.4-10.4-1.1-15.6l-0.5-4.1c-0.2-1.4-0.3-2.7-0.5-4.2c-0.2-1.4-0.4-2.9-0.7-4.3
							c-0.1-0.7-0.2-1.4-0.4-2.2l-0.5-2.2c-1.3-5.8-3.7-11.6-6.7-16.6c-2.9-5-6-9.3-8.9-13.7c-1.4-2.2-2.8-4.4-4.2-6.6l-2.1-3.4
							c-0.7-1.2-1.4-2.4-2.2-3.5c-3.4-5.5-7.1-10.7-10.6-15.8c-4.5-6.5-9.2-12.8-13.4-19.1c-4.2-6.3-8.2-12.7-11.1-19.4
							c-2.6-6-4.2-12.2-4.2-17.9c0-2.8,0.4-5.5,1.1-8.1c0.7-2.6,1.7-5,3.1-7.5c0.3-0.7,0.8-1.3,1.2-2c0.2-0.3,0.5-0.7,0.7-1
							c0.3-0.3,0.5-0.7,0.8-1c0.5-0.7,1.1-1.4,1.7-2.1c0.6-0.7,1.2-1.4,1.8-2.1c1.2-1.4,2.9-3.1,4.3-5.2c1.4-2.1,2.7-4.8,2.7-7.5
							c0-1.3-0.4-2.1-0.9-2.6c-0.5-0.5-1.1-0.7-1.7-0.7c0.4,0,0.6,0.7,0.3,1.6c-0.3,0.9-1.1,2.1-2,2.9c-1.9,1.6-4.3,2.2-4.5,2.4
							c-1.7,0.8-3.4,1.7-5.1,2.9c-0.8,0.6-1.7,1.2-2.5,1.8c-0.9,0.6-1.6,1.3-2.4,2c-3.1,2.6-6,5.4-8.3,9c-2.3,3.5-4,7.7-4.6,12.5
							c-0.6,4.9-0.2,9.9,0.7,14.5c1,4.6,2.4,9,4.2,13.1c3.4,8.3,8.1,15.7,12.8,22.9c8.1,12.1,17.1,22.9,24.2,34.4
							c1.1,1.7,2,3.4,3.1,5.3c1.1,1.9,2.2,3.9,3.3,5.8C449.9,343.6,452.2,347.3,454.4,350.9z"/>
					</g>
				</g>
			</g>
		</g>
		<g>
			<g>
				<g>
					<path class="st2" d="M457.5,400.8l0,0.3C457.6,400.9,457.6,400.9,457.5,400.8z"/>
					<path class="st2" d="M440.8,363.3l0.2,0C440.9,363.3,440.9,363.3,440.8,363.3z"/>
					<path class="st2" d="M425,367l-0.2-0.2C424.9,366.9,425,366.9,425,367z"/>
					<g>
						<path class="st2" d="M434,378.3c3.6,5.1,6.8,10,8.9,15.3c2.2,5.4,3.7,12.1,2.9,18.6c-0.1,0.9-0.2,1.7-0.4,2.6l-0.5,2.7
							c-0.4,1.9-0.8,3.8-1.1,5.7c-0.7,3.8-1.2,7.5-1.6,11.3c-0.8,7.6-2.1,14.8-3.8,22.1c-1.7,7-2.4,14.2-5.7,20.5
							c-0.4,0.8-0.9,1.7-1.4,2.5c-0.5,0.8-1,1.6-1.5,2.4c-0.3,0.4-0.6,1.7-1.2,3c-0.5,1.3-0.9,2.7-1,3.2c-0.1,0.5,2.1-1.4,2.8-2
							c1-0.9,2.1-2.1,3.2-3.3c1.1-1.2,2-2.5,2.6-3.3c1.2-1.8,1.9-3.1,2.6-4.5c0.8-1.4,1.3-2.8,2.1-4.9c3.1-8.4,5-16.9,7.8-25.2
							c2.3-6.8,2.8-14.1,4.6-20.8c0.5-1.8,1.1-3.6,1.6-5.4c0.6-2,1.2-4.1,1.6-6.2c0.8-4.2,1.2-8.4,0.9-12.7
							c-0.2-2.3-0.4-4.6-0.8-6.9c-0.2-1.2-0.5-2.3-0.7-3.5c-0.3-1.2-0.6-2.3-1-3.5c-1.4-4.6-3.5-8.8-6-12.6
							c-2.5-3.7-5.3-7.1-8.2-10.3c-1.4-1.6-2.9-3.1-4.4-4.6c-1.4-1.4-2.7-2.9-4.1-4.3c-1.6-1.7-3.1-3.5-4.6-5.2
							c-1.5-1.8-2.9-3.6-4.4-5.4c-3.6-4.6-7.2-9.1-10.6-13.8c-1.8-2.3-3.4-4.7-5.1-7.1c-1.6-2.4-3.2-4.8-4.7-7.3
							c-5.5-9-9.1-18.7-14.2-28c-2.7-4.9-6-11.8-10.6-15c-1.1-0.8-2.5-0.6-3.5-0.1c1.7-0.8,0.7,6.6,0.7,7.1c0.1,3,1,6,1.6,9
							c0.6,2.9,1,5.7,1.6,8.5c0.3,1.4,0.6,2.8,1,4.2c0.4,1.4,0.9,2.8,1.6,4.2c2.6,5.9,5.7,11.6,9,17.1c1.6,2.8,3.5,5.5,5.2,8.2
							c1.9,2.7,3.7,5.4,5.6,8c6.5,8.9,13.7,17.3,21,25.5c2.2,2.4,4.5,5,6.5,7.3C430.4,373.5,432.3,375.9,434,378.3z"/>
					</g>
				</g>
			</g>
		</g>
		<g>
			<g>
				<g>
					<path class="st2" d="M304.8,446.8l-0.4,0.2C304.6,447,304.7,446.9,304.8,446.8z"/>
					<path class="st2" d="M350.4,404.6l0.1,0.2C350.5,404.6,350.4,404.6,350.4,404.6z"/>
					<path class="st2" d="M345.9,386.8L345.9,386.8C345.9,386.8,345.9,386.8,345.9,386.8z"/>
					<g>
						<path class="st2" d="M331.6,405.9c-6.2,8-13.3,15.2-21.1,21.8c-4,3.3-8.3,6.5-12.9,9.3c-1.2,0.7-2.3,1.4-3.5,2
							c-1.2,0.6-2.4,1.2-3.6,1.9c-1.2,0.6-2.5,1.1-3.7,1.7c-1.3,0.6-2.4,1-3.6,1.4c-2.6,0.8-5.2,1.3-7.9,1.6
							c-1.3,0.1-2.7,0.2-4.1,0.2c-0.7,0-1.4,0-2,0l-2.2-0.1c-6-0.2-12-0.2-18,0c-6,0.2-12,0.2-17.9,0.1c-3-0.1-5.9-0.1-8.9-0.3
							c-1.5-0.1-3-0.2-4.4-0.2c-1.6-0.1-3.1-0.1-4.7-0.2c-6.1-0.1-12.1,0.8-18,2.2c-5.9,1.4-11.6,3.4-17.2,5.7c-1.5,0.6-3,1.2-4.5,2
							c-0.7,0.4-1.4,0.7-2.3,1.1c-0.8,0.4-1.5,0.9-2.2,1.3c-0.7,0.4-2.4,1.9-3.8,2.9c-1.4,1-2.9,1.4-3.5,1.5
							c-0.3,0.1,0.4,0.4,1.4,0.6c1,0.2,2.3,0,2.8-0.1c1.9-0.3,4.2-1.6,6.5-2.6c2.3-1,4.6-1.7,6.1-2.3c3.1-1.1,5.3-1.7,7.6-2.3
							c2.3-0.6,4.6-1.2,7.8-1.8c6.6-1.3,13.3-1.8,20-1.4c3.3,0.2,6.7,0.6,10.1,0.9c3.4,0.3,6.9,0.7,10.3,1.1
							c11.1,1.2,22.8,0.6,33.8,1.6c6.5,0.6,13.5,0.2,20.2-1.8c0.9-0.3,1.6-0.5,2.4-0.8l2.3-0.8c1.5-0.5,3-1.1,4.5-1.7l2.2-0.9l2.2-1
							c1.5-0.7,2.9-1.4,4.3-2.2c6-3.3,11.9-6.9,17.5-11c5.5-4.1,10.7-8.8,15.2-14.1c4.5-5.2,8.4-10.8,11.8-16.6l2.3-3.9
							c0.6-0.9,1.4-1.9,2.4-3.1l0.8-0.9l1.3-1.5l1.4-1.7c0.2-0.7,0.3-1.4,0.5-2.1l1.2-5.4l0.5-2.3l0-0.1c0,0,0.1-0.2,0.1-0.2
							l0.2-0.2c0.1-0.1,0.1-0.1,0.3-0.4c1.1-1.9,2.1-3.9,2.9-5.8c1.7-3.9,2.8-7.9,3.8-11.6c0.6-2.4,1.2-4.7,1.7-6.9
							c0.6-2.2,1.2-4.6,1.7-7c1.1-4.7,2.1-9.5,2.8-14.4c1.5-9.8,2-20,0.6-30.3c-0.6-4.5-1.3-8.6-1.6-12.5c-0.3-3.8-0.2-7.5,0.5-10.2
							c0.2-0.7,0.4-1.3,0.7-1.9l0.6-1.5c0.2-0.6,0.5-1.2,0.7-1.9c0.8-2.5,1.4-5.1,1.7-7.7c0.6-5.1,0.3-10.1-0.3-14.5
							c-0.3-2.2-0.6-4.6-1-7.1c-0.1-1.2-0.3-2.3-0.4-3.4c-0.1-0.6-0.1-1.1-0.1-1.7c0-0.6-0.1-1-0.1-1.7c-0.3-5.1-0.7-9.8-1.7-13.6
							c-0.5-1.8-1.6-2.6-2.8-2.8c0.9,0.2,0,2.5-1,4.9c-1,2.5-2.2,5.1-2.3,5.4c-0.7,2.2-1.2,4.5-1.6,6.8c-0.4,2.4-0.6,4.9-0.7,7.3
							c-0.3,4.7-0.5,9-1.1,12.9c-0.6,4-1.5,7.5-2.8,10.9l-0.6,1.3l-0.4,1l-0.5,1.2c-0.3,0.8-0.5,1.6-0.7,2.4
							c-0.2,0.8-0.4,1.6-0.5,2.4c-0.5,3.1-0.6,6.1-0.5,8.9c0.2,5.6,1.2,10.8,1.9,15.5c1.3,8.9,1,18.1-0.4,27.4c-0.6,4-1.4,8-2.3,12
							c-0.4,2-0.9,4-1.4,6.1l-1.5,6.3c-0.9,4.1-1.9,7.9-3.2,11.3c-0.7,1.7-1.4,3.3-2.2,4.8l-0.3,0.6l-0.7,1.1l-0.7,1.1
							c-0.1,0.2-0.2,0.5-0.2,0.7l-0.2,0.8l-0.8,3.8c-0.3,1.2-0.6,2.4-0.8,3.6c0,0.1-0.1,0.1-0.1,0.2l-1.2,1.3
							c-0.5,0.5-0.9,1-1.5,1.6c-1,1.2-2.1,2.6-3.1,4.2C337.4,398,334.6,402.1,331.6,405.9z"/>
					</g>
				</g>
			</g>
		</g>
		<g>
			<g>
				<g>
					<path class="st2" d="M339.2,63.4l-0.1-0.1C339.2,63.4,339.2,63.4,339.2,63.4z"/>
					<path class="st2" d="M342.7,86.7l-0.1-0.1C342.6,86.7,342.7,86.7,342.7,86.7z"/>
					<path class="st2" d="M351.1,99.8L351,100C351.1,100,351.1,99.9,351.1,99.8z"/>
					<g>
						<path class="st2" d="M358.7,84.6c0.8-3.7,0.9-7.6,0.2-11.4c-0.6-3.8-2-7.5-4.1-10.7c-2.1-3.3-4.8-6-7.7-8.3
							c-0.7-0.5-1.6-1.2-2.4-1.7l-1.3-0.8c-0.4-0.2-0.9-0.4-1.3-0.7c-1.8-0.8-3.6-1.5-5.4-2c-3.9-1-7.9-1.3-12-0.4
							c-2,0.5-4.1,1.2-6,2.5c-1.9,1.3-3.6,3.1-4.6,5.2c-1,2.1-1.5,4.3-1.7,6.3c-0.2,2.1,0,4,0.3,5.9c0.3,1.9,0.8,3.7,1.4,5.4
							c0.5,1.6,1.1,3.1,1.7,4.7c2.1,6,5.2,11.6,7.3,17.8c0.6,1.7,1.1,3.3,1.7,5c0.3,0.8,3.1,4.3,3.9,4.8c0.4,0.2-0.1-2.4-0.2-3.2
							c-0.4-2.4-0.8-6-1.2-7.7c-0.8-3.5-1.1-5.2-2.1-8.7c-1.1-3.6-2.1-7.2-3.2-10.9c-0.5-1.8-1.1-3.7-1.4-5.3
							c-0.3-1.6-0.4-3.3-0.1-4.8c0.4-2.4,0.9-4.4,1.9-5.6c0.5-0.6,1-1.1,1.9-1.5c0.9-0.4,1.9-0.7,3-0.7c2.4-0.1,5,0.6,7.1,1.6
							c1.1,0.5,2,1.2,2.9,1.8c0.2,0.2,0.4,0.3,0.6,0.5c0.2,0.2,0.3,0.3,0.5,0.5c0.4,0.5,0.9,0.9,1.3,1.4c1.8,2,3.1,4.5,3.8,7
							c0.7,2.6,0.8,5.2,0.7,7.9c-0.1,2.6-0.6,5.4-1.6,8l-0.4,1l-0.2,0.5l-0.2,0.3c-0.1,0.2-0.2,0.4-0.3,0.7l-0.5,0.8
							c-0.3,0.5-0.8,1.1-1.2,1.6c-0.4,0.5-1,1.1-1.5,1.6c-2.5,2.5-5.5,4.7-8.7,6.7c-2,1.2-4,2.4-6.1,3.4c-2,1-4.1,1.9-5.9,2.4
							c-0.5,0.2-0.8,0.2-1.2,0.3c-0.4,0.1-0.6,0.1-0.9,0.1c-0.1,0-0.2,0-0.4,0c-0.1,0-0.3,0-0.4,0c-0.2,0-0.2,0-0.3-0.1
							c-0.1,0-0.2-0.1-0.4-0.2c-0.2-0.1-0.6-0.5-0.9-0.8c-0.4-0.3-0.6-0.6-0.9-0.9c-0.3-0.3-0.6-0.6-0.8-0.9
							c-1.8-2.3-2.1-5.2-1.7-8.6c0.1-0.8,0.3-1.7,0.4-2.6l0.2-0.7l0.1-0.3l0.1-0.4c0.1-0.7,0.3-1.5,0.4-2.2c0.3-2.8,0.4-5,0.5-6.8
							c0-0.5,0.1-0.9,0.1-1.3c0.1-0.4,0.1-0.8,0.2-1.1c0.1-0.7,0.2-1,0.3-1.5c0-0.1,0.1-0.2,0.1-0.3c0-0.1,0.1-0.2,0.1-0.4
							c0-0.3,0.3-0.6,0.4-0.9c0.1-0.4,0.5-0.7,0.7-1.1c0.1-0.2,0.2-0.4,0.4-0.7c0.2-0.2,0.3-0.4,0.4-0.7c0.6-0.9,0.6-2.3,0.3-3.4
							c0.1,0.5-0.2,0.6-0.7,0.7c-0.2,0-0.5,0-0.9-0.1c-0.3-0.1-0.7-0.1-1.1-0.2c-0.7-0.1-1.6-0.3-2.3-0.3c-0.7,0-1.2,0-1.3,0
							c-0.7,0.1-1.4,0.4-2.1,0.7c-0.6,0.4-1.3,0.8-1.9,1.3c-0.6,0.5-1.2,1.1-1.6,1.7c-0.5,0.6-0.9,1.3-1.4,2
							c-1.6,2.6-2.6,5.3-3.5,7.6c-0.4,1.1-0.8,2.2-1.2,3.3c-0.2,0.5-0.4,0.9-0.5,1.4c-0.2,0.6-0.4,1.4-0.6,2.2
							c-0.3,1.6-0.5,3.3-0.6,5c-0.1,1.7,0,3.5,0.3,5.4c0.6,3.6,2,7.5,4.2,10.6c1.1,1.6,2.4,3,3.8,4.3c0.7,0.6,1.4,1.2,2.1,1.8
							c0.8,0.6,1.9,1.3,3.1,1.9c1.2,0.6,2.5,1,3.8,1.2c0.6,0.1,1.2,0.2,1.8,0.2c0.6,0.1,1,0.1,1.7,0.1c1.1,0,2.4-0.1,3.3-0.3
							c1-0.2,2-0.3,2.8-0.6c5.8-1.6,10.2-4.1,14.6-6.9c4.3-2.8,8.4-5.8,12.3-9.6c2.3-2.3,4.7-4.7,6.9-8.6
							C356.7,91.5,357.9,88.1,358.7,84.6z"/>
					</g>
				</g>
			</g>
		</g>
		<g>
			<g>
				<g>
					<path class="st2" d="M421.9,110.8l0.1,0.2C421.9,110.9,421.9,110.8,421.9,110.8z"/>
					<path class="st2" d="M395.8,95.3l0.1-0.2C395.8,95.2,395.8,95.3,395.8,95.3z"/>
					<path class="st2" d="M393.7,110L393.7,110C393.7,110,393.7,110,393.7,110z"/>
					<g>
						<path class="st2" d="M399.5,110.3c1.3,0.3,2.7,0.8,4.1,1.3c0.7,0.3,1.3,0.6,2,0.9c0.3,0.2,0.6,0.4,1,0.5
							c0.3,0.2,0.7,0.3,1,0.5c0.6,0.4,1.4,0.8,2,1.4c0.3,0.3,0.7,0.5,1,0.8l0.8,1c0.3,0.3,0.5,0.7,0.8,1.1c0.2,0.4,0.5,0.8,0.7,1.2
							c0.2,0.4,0.3,0.8,0.5,1.3c0.1,0.2,0.2,0.4,0.2,0.7l0.1,0.7c0.4,1.9,0.1,3.9-0.1,5.9l-0.2,0.7l0,0.2l0,0.1l0,0.2
							c0,0.3-0.1,0.5-0.2,0.8l-0.2,0.9l-0.2,0.9c-0.3,1.3-1,2.6-1.8,3.6c-0.2,0.2-0.4,0.5-0.7,0.7l-0.3,0.3l-0.2,0.2c0,0,0,0,0,0
							l0-0.1l-0.1-0.1c-0.3-0.6-0.6-1.2-0.9-1.9c-0.5-1.2-1.2-1.9-2-2.9c-0.2-0.3-0.4-0.5-0.6-0.8l-0.3-0.4l-0.2-0.2l-0.2-0.4
							c-0.6-1-1.1-2.1-1.6-3.2c-0.5-1.2-0.9-2.4-1.3-3.6c-0.2-0.6-2.4-3-3.1-3.3c-0.3-0.2-0.3,1.9-0.2,2.5c0.1,1.9,0.3,4.6,0.6,6
							c0.3,1.3,0.6,2.3,0.9,3.3c0.1,0.2,0.2,0.5,0.2,0.7c0.1,0.3,0.2,0.5,0.3,0.8c0.3,0.6,0.5,1.3,0.9,2.1c0.8,1.7,1.5,3.4,2.3,5.1
							c0.4,0.9,0.8,1.7,1.2,2.4l1.3,2.4l1.3,2.4l0.7,1.3l0.3,0.6l0.5-0.4c1.2-1,2.6-2,3.8-3.1c0.5-0.4,1.1-0.9,1.6-1.4
							c0.5-0.5,1-1.1,1.5-1.7c1.1-1.1,1.9-2.7,2.8-4.2c0.2-0.4,0.5-0.7,0.6-1.2l0.5-1.3l1.1-2.5c0.3-0.8,0.6-1.8,0.8-2.7
							c0.2-0.7,0.4-1.3,0.6-2l0.5-2.2c0.2-0.7,0.2-1.5,0.4-2.3c0.3-1.5,0.2-3.1,0.2-4.7c0-0.8-0.2-1.6-0.3-2.4l-0.2-1.2l-0.3-1.2
							c-0.2-0.8-0.4-1.6-0.7-2.3c-0.3-0.8-0.7-1.5-1.1-2.2c-3.3-6.2-8.7-11.5-15.4-13.7c-3.3-1.1-6.9-1.6-10.6-1.2
							c-1.8,0.2-3.6,0.5-5.3,1.1c-0.9,0.3-1.7,0.6-2.5,1l-0.6,0.3l-0.5,0.2c-0.3,0.2-0.7,0.3-1,0.5c-1.6,0.8-3.5,1.8-5.4,3.4
							c-1.9,1.5-3.7,4-4.6,6.4c-1.2,3.1-1.3,5.9-1.3,8.3l0.1,2.9l0.1,2.8c0.1,3.8,0.1,8,0.7,12.4c0.5,3.9,1.2,8.9,4.1,13.3
							c1.4,2.2,3.2,4.2,5.4,5.8c2.2,1.5,4.6,2.7,7,3.2c5.1,1.4,11.6,1.1,14.6-2.3c0.8-0.8,0.8-2.1,0.7-3.3c0.1,0.9-1,0.5-2.2-0.1
							c-1.2-0.6-2.3-1.7-2.4-1.7c-1.8-1-3.6-1.7-5.1-2.6c-1.4-1-2.6-2.2-3.3-3.4c-0.8-1.2-1.3-2.2-1.9-3.1c-0.6-0.9-1.1-1.9-1.4-3.1
							c-0.2-0.6-0.3-1.2-0.5-1.8c-0.1-0.6-0.3-1.5-0.4-2.3c-0.4-3.3-0.5-7.1-0.5-11.2c0-1.8-0.1-3.6-0.2-5.5c-0.1-1.3,0-2.4,0.1-3
							c0.2-0.6,0.2-0.6,0.5-0.9c0.3-0.3,1.2-0.9,2.4-1.5c0.3-0.2,0.8-0.4,1.1-0.5c0.3-0.1,0.6-0.2,0.9-0.3c0.6-0.2,1.2-0.2,1.8-0.3
							C397,109.8,398.2,109.9,399.5,110.3z"/>
					</g>
				</g>
			</g>
		</g>
		<g>
			<g>
				<g>
					<path class="st2" d="M217.6,340.9l-0.6,0.4C217.3,341.1,217.5,341,217.6,340.9z"/>
					<path class="st2" d="M291.2,274.5l0,0.3C291.3,274.6,291.3,274.5,291.2,274.5z"/>
					<path class="st2" d="M287.5,250l0.2-0.5C287.6,249.7,287.5,249.9,287.5,250z"/>
					<g>
						<path class="st2" d="M268.2,281.7c-5.4,6.4-11.3,12.5-17.8,18.1c-1.6,1.4-3.2,2.8-4.9,4.1l-2.5,2l-2.6,2
							c-3.5,2.7-6.9,5.4-10.4,8.2c-14.2,11.1-28.6,22-44.6,30.6c-4.3,2.2-8.5,4.4-12.9,6.4c-2.2,1-4.4,2-6.6,2.9l-6.7,2.9
							c-9,3.9-17.9,8-26.7,12.5c-8.8,4.5-17.5,9-26.1,13.6c-4.3,2.3-8.6,4.6-12.9,7.1c-4.3,2.4-8.6,4.9-12.8,7.5
							c-16.4,10.2-30.9,23.4-43.1,38.5c-3.2,4.1-6.4,8.2-9.1,12.7c-0.7,1.1-2.5,4.6-3.7,8.7c-0.6,2-0.9,4.2-1,6
							c-0.1,1.8,0.2,3.3,0.3,4c0.2,0.6,0.2-1.2,0.7-3.4c0.5-2.2,1.4-4.5,1.9-5.4c1.5-3.2,3.9-6.8,6.4-10c2.4-3.3,5-6.2,6.7-8.2
							c3.5-4,6.2-6.9,8.9-9.6c0.7-0.7,1.4-1.4,2.1-2.1c0.7-0.7,1.5-1.4,2.3-2.1c1.5-1.5,3.3-3,5.3-4.8c8.5-7.3,17.6-13.6,27.1-19.2
							c9.6-5.5,19.5-10.5,29.6-15.1c16.4-7.4,33.3-15.9,50.3-22.6l7-2.7c2.4-0.9,4.7-2,7-2.9c4.6-2,9.3-4.2,13.8-6.5
							c9.1-4.5,17.9-9.6,26.4-15.2c9-5.9,17.9-11.9,26.7-18.1l3.3-2.3c1.1-0.8,2.2-1.5,3.3-2.4l3.3-2.5l3.2-2.6
							c4.3-3.5,8.4-7.2,12.3-11.3c3.8-4,7.5-8.1,10.8-12.6c1.7-2.2,3.2-4.5,4.8-6.8c1.5-2.3,3-4.7,4.3-7.1c1.4-2.4,2.6-4.9,3.9-7.3
							c1.2-2.5,2.4-5,3.4-7.6c1.1-2.5,2-5.2,3-7.8c0.5-1.3,0.8-2.6,1.3-3.9c0.4-1.3,0.8-2.6,1.2-4c0.9-3.2,1.7-6.7,1.8-10.7
							c0-2-0.1-4.1-0.6-6.2c-0.5-2.1-1.3-4.1-2.3-6c-0.5-0.9-1.1-1.8-1.7-2.7l-0.9-1.2l-0.7-0.9c-0.9-1.1-1.8-2.3-2.7-3.5
							c-1.8-2.4-3.5-4.8-5.2-7.2c-4.2-6.2-8-12.6-11.6-19.2c-3.6-6.6-6.9-13.4-9.8-20.2c-1.5-3.4-2.8-6.9-4.1-10.4
							c-1.3-3.5-2.4-7.1-3.5-10.6c-2.1-7.1-3.8-14.3-4.7-21.6c-0.9-6.5-1.1-13-0.4-19.3l0.3-2.3c0.1-0.8,0.3-1.5,0.4-2.3
							c0.1-0.8,0.2-1.5,0.4-2.3l0.5-2.2c0.3-1.5,0.8-2.9,1.3-4.4c0.4-1.4,1-2.9,1.6-4.5c1.2-3.1,2.6-6.4,3.8-10.1
							c0.6-1.9,1.1-3.8,1.5-5.9c0.2-1,0.4-2.1,0.5-3.1c0.1-1,0.2-2,0.3-3c0.2-3.9,0.2-7.1,0.6-9.7c0-0.3,0.1-0.7,0.1-0.9
							c0.1-0.2,0.1-0.5,0.2-0.7c0.1-0.5,0.3-0.9,0.5-1.4c0.4-0.9,0.9-1.8,1.6-2.8c0.8-1,1.8-2.2,3-3.4c1.2-1.2,2.7-2.5,4.3-3.9
							c3.1-2.8,6.3-5.7,9.3-8.6c1.5-1.5,3-2.9,4.5-4.4c0.7-0.7,1.4-1.5,2.1-2.2c0.6-0.7,1.3-1.3,1.9-2c2.4-2.5,4.4-4.3,6.2-5.4
							c0.8-0.5,1.4-1,1.9-1.5c0.5-0.5,0.8-1.1,0.9-1.6c-0.1,0.5-0.9,0.4-2.2,0.4c-0.6,0-1.4,0-2.3,0.1c-0.9,0.1-1.8,0.3-2.8,0.6
							c-2,0.6-4,1.5-5.5,2.3c-1.6,0.8-2.7,1.4-2.9,1.6c-6.2,3.9-12.5,8.7-18.7,13.1c-3,2.1-6.1,4.2-9,7.2c-1.4,1.5-2.8,3.2-3.9,5.1
							c-0.3,0.5-0.5,1-0.8,1.5c-0.3,0.5-0.5,1-0.7,1.6c-0.2,0.5-0.4,1.1-0.5,1.6c-0.2,0.6-0.3,1.1-0.4,1.6c-1,4.1-1.2,7.9-1.7,11.2
							c-0.2,1.7-0.5,3.1-0.9,4.6c-0.4,1.5-0.9,3.1-1.5,4.7c-1.2,3.5-2.9,7.1-4.4,11.3l-0.6,1.6l-0.5,1.6c-0.3,1.1-0.7,2.2-1,3.3
							l-0.7,3.3c-0.1,0.6-0.3,1.1-0.4,1.7l-0.3,1.7c-0.2,1.1-0.4,2.2-0.5,3.3l-0.3,3.3c-0.1,1.1-0.2,2.2-0.2,3.3
							c0,1.1-0.1,2.2-0.1,3.3c0.1,2.2,0,4.4,0.2,6.6l0.2,3.3l0.3,3.2c0.9,8.6,2.9,17,5.2,25.1c1.2,4.1,2.5,8.1,3.9,12
							c1.4,4,2.9,7.9,4.6,11.8c2.8,6.6,5.9,13.1,9.3,19.4c3.4,6.3,7,12.5,11,18.5c2,3,4.1,6,6.2,8.9c1.1,1.4,2.2,2.9,3.3,4.3
							c0.5,0.7,1.1,1.4,1.7,2.1l0.8,1.1l0.5,0.6c1.2,1.7,1.8,3.3,1.8,5.5c0,2.2-0.5,5-1.4,8C286.4,255.1,278.5,269.4,268.2,281.7z"
							/>
					</g>
				</g>
			</g>
		</g>
		<g>
			<g>
				<g>
					<path class="st2" d="M353.7,170l0-0.1C353.7,170,353.7,170,353.7,170z"/>
					<path class="st2" d="M346.1,183.6l0-0.2C346,183.5,346.1,183.6,346.1,183.6z"/>
					<path class="st2" d="M344.4,198.5l-0.2,0C344.3,198.6,344.4,198.5,344.4,198.5z"/>
					<g>
						<path class="st2" d="M358,193.5c2.6-2,4.8-4.4,6.4-7.4c0.4-0.7,0.8-1.5,1.1-2.3l0.5-1.2c0.1-0.4,0.3-0.8,0.4-1.3
							c0.3-0.8,0.4-1.7,0.5-2.6l0.1-0.7l0-0.6l0-1.2c0-3.3-0.6-6.2-1.6-9c-0.9-2.8-2.1-5.4-3.4-8c-1.4-2.7-3.2-5.3-5.6-7.5
							c-1.2-1.1-2.5-2-3.9-2.8c-0.7-0.4-1.4-0.7-2.1-1c-0.8-0.3-1.4-0.6-2.3-0.7l-1.2-0.3l-1.2-0.2c-0.4-0.1-0.9-0.1-1.4-0.2
							c-0.5,0-0.9-0.1-1.4-0.1c-1.9,0-3.7,0.4-5.4,1.2c-1.6,0.8-3.1,2.1-4.1,3.6c-0.3,0.4-0.5,0.8-0.7,1.2c-0.2,0.4-0.4,0.8-0.6,1.3
							c-0.2,0.4-0.3,0.9-0.5,1.3c-0.1,0.4-0.2,0.8-0.3,1.2c-0.2,0.8-0.3,1.5-0.3,2.3c-0.1,0.7-0.1,1.5,0,2.3c0,0.7,0.2,1.5,0.3,2.3
							c0.2,0.8,0.3,1.5,0.6,2.2c0.9,3,2.6,5.3,3.3,7.5c0.4,1.2,0.6,2.2,0.7,3.3c0,0.1,0.1,0.4,0.2,0.6c0.2,0.3,0.3,0.6,0.5,1
							c0.2,0.4,0.4,0.8,0.5,1.1c0.2,0.3,0.3,0.6,0.4,0.7c0.1,0.1,0.4-0.2,0.6-0.7c0.1-0.2,0.3-0.5,0.4-0.7c0.1-0.2,0.2-0.5,0.2-0.6
							c0.2-0.4,0.3-0.9,0.4-1.5c0.1-0.3,0.1-0.5,0.2-0.8c0-0.3,0-0.6,0.1-0.8c0.1-1.1,0-2.3-0.2-3c-0.6-2.9-1.1-4.2-1.7-6.6
							c-0.3-1.3-0.3-2.5-0.3-3.8c0.1-0.6,0.1-1.3,0.3-1.9l0.2-0.9l0.3-0.9l0.1-0.4l0.2-0.3c0.1-0.2,0.2-0.4,0.4-0.6l0.4-0.5
							c0.2-0.2,0.3-0.3,0.5-0.4c0.7-0.5,1.6-0.7,2.4-0.5c0.6,0.1,1.2,0.3,1.6,0.5c0.6,0.2,1.4,0.5,2.3,0.9c1.7,0.8,3.2,1.7,4.3,3.2
							c1.2,1.5,1.9,3.4,2.4,5.3c0.5,1.9,0.8,3.9,1.1,5.8c0.1,0.5,0.1,1,0.1,1.5c0,0.5,0,1-0.1,1.5c-0.1,1-0.4,1.9-0.7,2.5
							c-0.6,1.4-1.7,2.8-2.9,4.2c-1.2,1.3-2.7,2.5-4.2,3.3c-0.4,0.2-0.8,0.4-1.2,0.5c-0.4,0.1-0.8,0.3-1.2,0.3
							c-0.4,0.1-0.8,0.2-1.3,0.2c-0.2,0-0.4,0-0.6,0l-0.7,0c-0.5,0-0.8,0-1.1,0c-0.4,0-0.7,0.1-1.1,0.1l-1.3,0.1L335,185l-1.2,0.1
							l-0.6,0.1c-0.1,0-0.1,0-0.1,0l0,0l-0.1,0l-0.2,0c-0.1,0-0.3,0-0.4,0l-0.8-0.1c-0.6-0.1-1.2-0.2-1.7-0.4
							c-0.5-0.2-0.9-0.3-1.2-0.5c-0.4-0.2-0.7-0.5-1.1-0.8c-0.4-0.4-0.8-0.8-1.2-1.3c-1.7-2.2-3.2-5.3-3.9-8.4
							c-0.7-2.8-0.4-5.6,0.2-8.1c0.3-1.3,0.8-2.5,1.2-3.7c0.3-0.6,0.5-1.2,0.7-1.8c0.3-0.6,0.6-1.2,0.8-1.9c1.2-2.7,3.7-6,3.9-10.1
							c0-1-0.7-2.2-1.4-3c0.6,0.7-0.4,1-1.8,1.2c-1.3,0.2-2.9,0.3-3.1,0.4c-1,0.4-2,0.9-2.9,1.5c-0.5,0.3-1,0.6-1.4,0.9
							c-0.4,0.3-0.9,0.7-1.3,1c-1.8,1.3-3.5,2.7-5.1,4.4c-0.7,0.9-1.4,1.8-2.1,2.8c-0.7,1-1.1,2.2-1.5,3.4c-0.2,0.6-0.4,1.3-0.5,1.9
							l-0.4,2c-0.2,1.3-0.3,2.7-0.4,4c0,2.7,0.2,5.4,0.8,8c0.5,2.6,1.4,5.1,2.5,7.5c0.3,0.6,0.5,1.2,0.9,1.8c0.3,0.6,0.6,1.2,1,1.8
							c0.3,0.6,0.7,1.2,1.1,1.7c0.4,0.6,0.8,1.2,1.2,1.7c1.5,2,3.5,4,6,5.5c2.5,1.6,5.4,2.4,8.1,2.8c1.3,0.2,2.6,0.2,3.8,0.2l1,0
							c0.4,0,0.9,0,1.3-0.1l1.4-0.2l2.7-0.3l1.3-0.1c0,0,0.1,0,0.1,0C346.6,199.2,353.1,197.3,358,193.5z"/>
					</g>
				</g>
			</g>
		</g>
		<g>
			<g>
				<g>
					<path class="st2" d="M379,42.1c0,0-0.1,0-0.2,0.1c-0.1,0-0.2,0.1-0.2,0.1C378.8,42.2,378.9,42.2,379,42.1z"/>
					<path class="st2" d="M409.8,60.7l-0.2,0C409.7,60.7,409.8,60.7,409.8,60.7z"/>
					<path class="st2" d="M427.5,61.3l0.2,0.3C427.6,61.4,427.5,61.4,427.5,61.3z"/>
					<g>
						<path class="st2" d="M415.3,43.7c-2.9-3.7-5.9-7.3-8.9-10.7l-1.3-1.4c-0.4-0.5-1-1-1.5-1.6c-1.1-1.1-2.3-2.1-3.9-3.2
							c-0.4-0.3-0.8-0.5-1.2-0.7c-0.5-0.2-0.9-0.5-1.4-0.7c-0.5-0.2-1-0.4-1.5-0.6c-0.5-0.2-1.1-0.3-1.6-0.4
							c-2.2-0.4-4.4-0.3-6.2,0.1c-1.9,0.4-3.4,1.1-4.8,1.7c-0.7,0.3-1.3,0.7-1.9,1.1l-0.9,0.5l-0.6,0.4c-1.6,1.1-3.3,2-5.1,2.6
							c-3.5,1.2-7.2,1.2-11-0.3c-1.7-0.6-3.3-1.5-5-2.5c-0.8-0.5-1.6-1.1-2.4-1.6c-0.5-0.4-1.1-0.8-1.5-1.4
							c-0.4-0.5-0.9-1.1-1.3-1.9c-0.2-0.4-0.4-0.8-0.6-1.2l-0.5-1.2c-0.4-0.8-0.8-1.7-1.5-2.5c-0.1-0.1-0.3-0.3-0.4-0.4l0.5-0.3
							l1-0.6c0.5-0.3,1.1-0.7,1.7-1l0.9-0.5c0.5-0.2,1-0.5,1.5-0.7c2.1-0.9,4.1-1.4,6.1-1.5c1-0.1,2.1,0,3.2,0.1l0.9,0.1l0.6,0.1
							l1.5,0.4c2.4,0.7,4.8,1.5,7.3,2.2c1.2,0.3,2.4,0.7,3.5,1c0.2,0,0.3,0.1,0.5,0.2l0.8,0.3c0.5,0.2,1,0.4,1.5,0.6
							c0.9,0.4,1.8,1,2.1,1.2c0,0,0.1,0,0.1,0.1l0,0c0,0,0,0,0,0l0.1-0.1c0.1-0.1,0.2-0.2,0.4-0.3c0.1-0.1,0.3-0.2,0.4-0.2l0.2-0.1
							c0.1,0,0.1,0,0.1-0.1c0.1-0.1,0.3-0.1,0.5-0.1c0,0,0,0,0,0c0.1,0-0.1,0-0.1,0c-0.1,0-0.1,0-0.2-0.1c0,0-0.1,0-0.1-0.1l0,0
							l-0.1,0c-0.1-0.1-0.3-0.1-0.4-0.2c-0.1-0.1-0.2-0.2-0.3-0.3c-0.1-0.1-0.1-0.1-0.2-0.2c-0.1-0.1-0.1-0.1-0.1-0.1
							c0,0,0,0.1-0.2,0.2l-0.2,0.1l-0.3,0.2c-0.2,0.1-0.4,0.2-0.6,0.3c-0.2,0.1-0.4,0.2-0.7,0.3c-0.9,0.4-2,0.7-3.1,1
							c-2.2,0.6-4.6,0.9-6.9,1.1c-2.5,0.2-5.1,0.2-7.6,0.2c-1.2,0-7.6,1.1-8.8,1.5c-0.6,0.2,3.2,1.1,4.3,1.3
							c3.5,0.7,8.9,1.4,11.7,1.4c2.8,0,4.9-0.1,7-0.3c1.1-0.1,2.1-0.3,3.3-0.5c1.2-0.3,2.4-0.6,4-1.3c0.8-0.4,1.6-0.8,2.5-1.7
							c0.2-0.3,0.4-0.5,0.6-0.8c0.2-0.4,0.3-0.7,0.4-1.1c0.1-0.4,0.1-0.9,0.1-1.3c-0.1-0.4-0.2-0.8-0.3-1.1
							c-0.1-0.3-0.3-0.6-0.5-0.9c-0.2-0.3-0.3-0.4-0.5-0.7c-0.4-0.5-0.7-0.7-1.1-1c-0.7-0.6-1.4-1.1-2.1-1.5
							c-0.7-0.4-1.4-0.8-2.1-1.1l-1-0.5l-0.6-0.3c-0.2-0.1-0.5-0.2-0.7-0.2l-4.1-1.4L372.6,8l-4.3-1.6L365.7,6
							c-0.8-0.1-1.6-0.2-2.4-0.3c-1.7-0.2-3.4-0.2-5.2,0c-1.7,0.2-3.3,0.6-4.8,1c-0.7,0.2-1.5,0.5-2.2,0.8c-0.9,0.4-2,0.9-3,1.3
							c-2,0.9-4,1.8-6.1,2.7l-3,1.4c-0.5,0.2-1,0.5-1.5,0.7c-0.3,0.3-0.5,0.5-0.8,0.8c1.2,1.4,2.5,3,3.6,4.5
							c1.2,1.5,2.2,2.9,2.7,4.4l0.8,1.9c0.2,0.5,0.4,1,0.7,1.5c0.5,1.1,1.1,2.2,1.8,3.3c0.9,1.5,2.2,2.9,3.6,4.1
							c0.4,0.3,0.6,0.5,0.9,0.7l0.8,0.7c0.5,0.4,1.2,0.9,1.7,1.3c2.4,1.7,5,3.2,7.9,4.4c2.9,1.2,6.2,1.9,9.5,2
							c3.3,0.1,6.6-0.5,9.7-1.5c1.6-0.5,3.2-1.2,4.6-1.9l1.8-0.8c0.5-0.2,1-0.4,1.4-0.6c0.9-0.3,1.6-0.4,2-0.4
							c0.3,0,0.4,0.1,0.7,0.3c0.3,0.2,0.8,0.6,1.4,1.3c0.6,0.7,1.3,1.5,2.1,2.5c1.7,2.2,3.4,4.4,5.2,6.5
							c6.9,8.3,13.7,16.4,18.9,25.3c1.5,2.6,2.9,5.2,4.1,7.9c1.2,2.6,2.3,5.5,3.3,8.4c2.6,7.3,4.9,14.6,6.7,22.2
							c0.9,3.8,1.8,7.5,2.5,11.4c0.4,1.9,0.7,3.8,1,5.7c0.3,1.9,0.6,3.9,0.8,5.7c0.8,6.6,0.5,13.3-0.4,19.9
							c-0.9,6.6-2.3,13.3-3.6,20.2c-1.3,7.3-4,17.3-2.8,24.4c0.3,1.7,1.4,2.5,2.5,2.8c-1.8-0.5,4.2-7.7,4.5-8.2
							c2-3.3,3.6-7.2,5.2-10.8c3.2-7.1,6.6-13.5,8.1-21.9c1.6-8.7,2-17.9,1-27c-0.1-1.1-0.3-2.3-0.4-3.4l-0.5-3.2
							c-0.3-2.1-0.7-4.3-1.1-6.4c-0.8-4.3-1.7-8.5-2.8-12.8c-1.8-7.2-4-14.4-6.6-21.4c-0.6-1.8-1.3-3.5-2-5.2
							c-0.7-1.7-1.4-3.4-2.2-5.3c-1.6-3.6-3.4-7-5.3-10.3C426.2,58.5,420.9,50.9,415.3,43.7z"/>
					</g>
				</g>
			</g>
		</g>
	</g>
</g>
<g id="Layer_3">
	<g>
		<g>
			<g>
				<path class="st2" d="M100.6,372.4l0.2,0.2C100.7,372.6,100.6,372.5,100.6,372.4z"/>
				<path class="st2" d="M75.4,331.7l0.2,0C75.5,331.6,75.5,331.6,75.4,331.7z"/>
				<path class="st2" d="M58.5,326.7l-0.1-0.3C58.4,326.5,58.4,326.6,58.5,326.7z"/>
				<g>
					<path class="st2" d="M66.1,346.9c4.1,8.9,9.5,17.3,16,24.6c3.4,3.8,7,7.2,10.9,10.5c3.9,3.3,8,6.4,12.4,9.2
						c4.6,3,9.8,5.5,15.3,6.8c5.5,1.4,11.1,1.7,16.6,1.2c11-1.2,21-4.4,30.7-8.7c9.3-4.2,17.2-10.4,26.1-14.7
						c2.4-1.1,4.7-2.2,7.1-3.2c0.6-0.2,2.2-1.3,3.8-2.3c1.6-1.1,3.2-2.1,3.7-2.5c0.5-0.4-3.4,0.2-4.4,0.5c-3.5,0.7-8.7,2.3-11.3,3.3
						c-5.2,2.1-7.6,3.2-12.7,5.8c-5.3,2.7-10.4,5.3-15.7,7.4c-2.6,1-5.3,2-8,2.7c-2.7,0.7-5.5,1.3-8.2,1.7
						c-4.5,0.6-8.9,1.1-13.3,1.2c-4.4,0.1-8.8-0.5-12.8-1.9c-4.3-1.5-8.2-4-11.9-7c-3.6-2.9-7-6.3-10.4-9.9
						c-7.2-7.6-12.4-16.8-17.4-26.1c-5-9.2-9.2-18.9-12.5-29c-1.9-5.9-3.5-11.9-4.7-18c-3.2-15.3-5.3-30.8-5.3-46.5
						c0-7.2,0.5-14.5,0.2-22.2c-0.2-3.8-0.5-7.8-1.3-11.7c-0.8-4-2-8-3.8-11.9c-0.9-2-2.1-4.2-3.4-6.4c-1.4-2.2-3-4.3-4.8-6.2
						c-3.7-3.8-8.3-6.5-12.3-7.1c-2-0.2-3,0.7-3.5,1.7c0.4-0.8,2.3,0.6,3.7,2.6c0.7,1,1.4,2,1.8,2.9c0.4,0.9,0.7,1.5,0.8,1.6
						c1.9,3.3,3.9,6.7,5.1,10.3c1.1,3.5,1.6,6.9,1.9,10.3c0.1,0.8,0.1,1.7,0.2,2.5c0,0.8,0.1,1.7,0.1,2.6c0.1,1.8,0.2,3.5,0.3,5.4
						c0.6,7.8,0.3,16,0.3,24.6c0,4.3,0.1,8.7,0.4,13.1c0.2,4.4,0.6,8.8,1.2,13.2c0.9,7.4,2.1,14.8,3.8,22.2
						c1.6,7.3,3.6,14.5,5.9,21.7C59.1,329.6,62.1,338.4,66.1,346.9z"/>
				</g>
			</g>
		</g>
	</g>
	<g>
		<g>
			<g>
				<path class="st2" d="M113.4,447.4l-0.4-0.1C113.2,447.3,113.3,447.4,113.4,447.4z"/>
				<path class="st2" d="M166.4,448.3l-0.1,0.2C166.4,448.4,166.4,448.4,166.4,448.3z"/>
				<path class="st2" d="M172.2,431.8l0.3-0.1C172.3,431.7,172.3,431.8,172.2,431.8z"/>
				<g>
					<path class="st2" d="M153.7,436c-8.4,1.2-16.8,1.8-25,1.4c-4.3-0.2-8.5-0.8-12.6-1.9c-4.1-1.1-8.2-2.8-11.8-5.2
						c-3.9-2.6-7.2-5.7-10.4-9.2c-3.2-3.6-6.3-7.5-10-11.3c-1.9-1.9-3.8-3.7-5.9-5.5c-2.1-1.7-4.4-3.4-7-4.6
						c-2.6-1.3-5.3-2.2-8.2-2.7c-2.9-0.4-5.9-0.4-8.7,0.1c-5.6,0.9-10.5,3.6-14.6,6.9c-4.2,3.4-7.5,7.3-10.7,11.3
						c-1.7,2.1-3.4,4.2-4.9,6.4c-0.8,1.1-3.3,7.2-3.5,8.4c-0.1,0.6,2.6-2.2,3.3-3c1.2-1.3,2.7-2.9,4.2-4.5c1.4-1.5,2.8-3,3.8-4
						c1.9-2,3.3-3.4,4.7-4.7c1.5-1.3,2.9-2.7,5-4.3c2.2-1.6,4.6-3,7-4.1c2.5-1,5-1.7,7.6-2c2.5-0.2,5.1,0,7.4,0.8
						c2.3,0.8,4.5,2,6.3,3.6c6.1,5.2,11.8,12.7,18.1,20.4c3.4,4.2,7.5,8.3,12.1,11.6c4.6,3.4,9.7,6,15.1,7.7
						c11.4,3.7,23.4,5.2,35.1,4c11.5-1.3,22.5-4.6,33-9.1c6.1-2.6,12.1-5.6,17.9-9.3c7.2-4.7,14-10.8,18.9-18.5
						c2.5-3.9,4.4-8,5.8-12.3c1.4-4.3,2.3-8.7,2.8-13c1-7.8,1.1-15.3,1-22.6c-0.2-7.3-0.7-14.4-1.3-21.3c-0.3-3.7-0.6-7.9-0.9-11.9
						c-0.3-4-0.6-7.9-1.6-11.1c-0.4-1.5-1.6-2.3-2.7-2.5c0.5,0.1,0.5,0.6,0.2,1.4c-0.3,0.7-0.8,1.7-1.3,2.7c-0.6,1-1.1,2-1.6,2.9
						c-0.5,0.8-0.8,1.4-0.9,1.6c-1.4,3.6-2,7.8-2.7,11.8c-1.3,7.7-2.5,14.8-2.3,22.7c0.2,8.3,0.5,16.2-0.3,23.7
						c-0.8,7.4-2.8,14.3-6.6,20.2c-3.2,5-7.7,9.4-12.9,13.2c-5.2,3.8-11.1,6.9-17.2,9.5C169.8,432.7,161.7,434.8,153.7,436z"/>
				</g>
			</g>
		</g>
	</g>
	<g>
		<g>
			<g>
				<path class="st2" d="M417.5,350.1l0.2-0.3C417.6,349.9,417.5,350,417.5,350.1z"/>
				<path class="st2" d="M385.2,389.9l0-0.2C385.2,389.8,385.2,389.9,385.2,389.9z"/>
				<path class="st2" d="M381.3,407.7l-0.4,0.1C381.1,407.8,381.2,407.8,381.3,407.7z"/>
				<g>
					<path class="st2" d="M403,394.2c4-3.8,7.5-8,10.6-12.3c3.1-4.3,5.9-8.7,8.4-13.2c5.2-9.4,9.1-19.4,12.9-29.5
						c2-5.4,3.7-10.9,5-16.5c1.2-5.6,2-11.4,2-17.1c0.1-11.6-1.1-22.9-4.8-34c-1.8-5.4-4.5-10.4-7.7-15c-1.6-2.4-3.6-4.9-6.6-6.8
						c-3-1.9-7.2-2.4-10.7-1c-0.9,0.3-1.7,0.8-2.6,1.2c-0.7,0.5-1.5,1-2.2,1.5c-1.4,1.1-2.5,2.3-3.5,3.5c-0.5,0.6-1.7,2.7-2.6,4.7
						c-0.9,2.1-1.6,4.2-1.7,4.9c-0.1,0.7,2.6-2.7,3.4-3.6c1.3-1.5,3-3.3,4.8-4.8c1.8-1.5,3.7-2.6,4.9-3.1c1.3-0.5,2.4-0.7,3.5-0.6
						c0.5,0,1,0.1,1.4,0.3c0.5,0.1,0.9,0.3,1.3,0.5c1.6,0.8,3,2.2,4.6,4.6c0.8,1.2,1.5,2.6,2.3,3.9c0.8,1.3,1.4,2.8,2,4.1
						c0.6,1.4,1.2,2.8,1.7,4.2c0.5,1.5,1,2.9,1.4,4.3c1.6,5.8,2.5,11.9,2.4,17.9c-0.1,4.9-0.2,9.9-0.6,14.8c-0.4,5-1.2,9.9-2.6,14.7
						c-3.1,10.3-8.1,19.8-13.3,29.2c-2.8,5-6,9.8-9.5,14.4l-2.6,3.4l-2.7,3.4c-1.8,2.2-3.6,4.4-5.5,6.5c-3.6,4.1-7.4,8-11.7,10.9
						c-2.1,1.5-4.3,2.8-6.5,3.8c-2.3,1-4.6,1.7-6.9,2.1c-5.4,0.9-10.6-0.2-15.2-3.2c-5.8-3.8-10.7-10-14.5-17c-1.9-3.5-3.6-7.2-5-11
						c-1.4-3.8-2.6-7.7-3.5-11.7c-0.2-0.9-0.4-1.8-0.5-2.7c-0.1-0.9-0.3-1.7-0.4-2.6c-0.1-0.9-0.2-1.7-0.2-2.6
						c-0.1-0.9-0.1-1.7-0.1-2.6c0-3.4,0.3-6.8,1-10c0.7-3.2,1.7-6.3,3.1-9.1c0.4-0.7,0.7-1.4,1.1-2.1l0.6-1l0.6-1
						c0.8-1.3,1.8-2.6,2.9-3.9c2.3-2.8,5.7-6.1,9-10c1.6-2,3.2-4.1,4.4-6.3c1.2-2.2,2.1-4.6,2.4-6.7c0.3-2.1-0.7-3.2-1.7-3.6
						c0.9,0.4-0.7,2.5-2.7,4.1c-2,1.7-4.4,2.8-4.7,3c-3.4,2.3-6.9,4.9-10.6,7.4c-1.8,1.2-3.5,2.4-5.2,3.8c-0.9,0.6-1.7,1.4-2.5,2.1
						c-0.8,0.8-1.7,1.5-2.4,2.4c-3.1,3.4-5.8,7.5-7.4,12.3c-3.4,10.1-3.4,20.9-1.2,30.8c1,4.8,2.4,9.6,4.1,14.2
						c1.7,4.6,3.7,9.2,6.1,13.6c4.1,7.5,9.4,14.8,17.1,20.4c3.8,2.8,8.3,5,13.2,6.2c4.9,1.2,10,1.3,14.7,0.5c5.7-0.9,11-3,15.9-5.7
						c2.4-1.4,4.7-2.9,6.9-4.6C399,397.8,401.1,396.1,403,394.2z"/>
				</g>
			</g>
		</g>
	</g>
	<g>
		<g>
			<g>
				<path class="st2" d="M463,343l0.1-0.5C463,342.7,463,342.8,463,343z"/>
				<path class="st2" d="M436.6,409.3l-0.1-0.2C436.5,409.2,436.6,409.3,436.6,409.3z"/>
				<path class="st2" d="M440.2,429.9l-0.3,0.4C440.1,430.2,440.2,430,440.2,429.9z"/>
				<g>
					<path class="st2" d="M456.2,402.7c2.9-6.3,5.3-12.7,7.6-19.1c2.3-6.3,4.5-12.7,6.4-19.3c3.9-13.5,6.6-27.4,8.4-41.6
						c0.5-3.8,0.8-7.6,0.9-11.4c0.1-3.8,0.1-7.6-0.1-11.5c-0.5-7.6-1.9-15.3-4.4-22.6c-0.6-1.9-1.3-3.6-2-5.4
						c-0.4-0.9-0.8-1.8-1.1-2.7c-0.4-0.9-0.8-1.8-1.2-2.6l-1.2-2.6c-0.4-0.9-0.9-1.7-1.4-2.6c-0.9-1.7-1.9-3.3-2.8-4.9
						c-3.9-6.4-8.2-12.6-13.5-18.4c-2.6-2.8-5.4-5.3-8.7-7.5c-3.3-2.1-6.9-4-11-4.8c-4.1-0.8-8.5-0.6-12.4,0.9
						c-3.9,1.5-7.3,3.9-10.1,6.6c-3,2.9-5.5,6.2-7.7,9.6c-0.5,0.8-1.8,3.6-2.7,6.4c-0.9,2.8-1.6,5.7-1.7,6.7c0,0.4,0.6-0.6,1.4-2
						c0.8-1.3,1.7-2.9,2.2-3.5c1.4-2.2,3.2-4.9,5.2-7.3c1.9-2.4,4-4.5,5.4-5.8c2.9-2.7,5.3-4.2,7.8-5.2c1.3-0.5,2.6-0.9,4-1.2
						c0.7-0.1,1.5-0.1,2.3-0.2c0.8,0,1.7,0,2.6,0.1c0.9,0.1,1.9,0.3,2.8,0.5c0.9,0.3,1.8,0.6,2.7,1c1.8,0.8,3.5,1.8,5.1,2.9
						c1.6,1.1,3.1,2.4,4.6,3.8c1.5,1.4,2.8,2.9,4.1,4.4c5.2,6.2,9.5,13.2,12.9,20.7c2.6,5.9,5,12.1,6.7,18.5
						c1.7,6.4,2.6,13.1,2.6,19.6c0,3.6-0.2,7.1-0.6,10.7c-0.4,3.5-0.9,7.1-1.6,10.6c-0.7,3.5-1.5,7-2.3,10.5
						c-0.9,3.5-1.8,7-2.8,10.5c-2.1,7.5-4.9,14.8-7.8,22.1c-3,7.3-6.1,14.7-9,22c-2.9,7.2-5.9,14.2-9.4,20.8
						c-3.5,6.6-7.5,12.8-12.4,18.1c-5.7,6.1-12.5,11.1-20.1,14.2c-9.6,4.1-20.4,5.9-31.3,6.1c-5.5,0.1-11-0.1-16.5-0.7
						c-2.8-0.3-5.6-0.6-8.5-1c-2.8-0.4-5.6-0.8-8.3-1.2c-4.9-0.9-9.5-2.1-13.7-3.9c-4.2-1.8-8.1-4.1-11.6-6.9
						c-7.1-5.6-12.5-13-17-21.5c-2.4-4.5-4.6-10.1-6.5-15.7c-2-5.6-3.6-11.2-5.6-15.5c-0.9-2.1-2.3-2.7-3.4-2.6
						c0.9-0.1,0.6,3,0.3,6.2c-0.3,3.2-0.7,6.7-0.7,7.1c0,5.6,1.1,11.6,2.5,17.3c1.3,5.6,3,10.9,5.4,16.2c0.6,1.3,1.3,2.6,1.9,3.9
						c0.7,1.3,1.5,2.6,2.3,3.8c1.7,2.5,3.6,5,5.9,7.3c2.4,2.5,5,4.7,7.8,6.7c2.8,2,5.8,3.8,8.9,5.3c6.2,3.1,12.8,5,19.2,6.2
						c3.2,0.6,6.4,1.1,9.5,1.5c3.1,0.4,6.1,0.8,9.3,1.2c6.3,0.7,12.8,1,19.3,0.9c11.1-0.2,22.4-2,33.2-6.1l4-1.7l3.9-2l1.9-1
						l1.9-1.1c1.2-0.8,2.5-1.5,3.7-2.3c4.8-3.3,9.2-7.2,13.1-11.4C443.9,427,450.8,414.8,456.2,402.7z"/>
				</g>
			</g>
		</g>
	</g>
	<g>
		<g>
			<g>
				<path class="st2" d="M145.6,487.5l-0.4,0C145.3,487.5,145.5,487.5,145.6,487.5z"/>
				<path class="st2" d="M208.1,473.8l0,0.2C208.2,473.9,208.2,473.8,208.1,473.8z"/>
				<path class="st2" d="M212.9,455.3l0.3-0.2C213.1,455.2,213,455.2,212.9,455.3z"/>
				<g>
					<path class="st2" d="M191.1,465.1c-10,3.8-20.2,6.5-30.7,8.4c-5.4,0.9-10.8,1.6-16.3,1.8c-5.5,0.1-11.1-0.2-16.6-1.3
						c-5.8-1.2-11.5-3-16.9-5.2c-5.5-2.2-10.8-4.9-15.9-7.9c-5.2-3-9.9-6.6-14.1-10.7c-2.2-2-4.1-4.2-6.1-6.5
						c-1.8-2.1-3.3-4.4-4.5-7c-1.2-2.5-2.2-5.2-3.7-8.2c-0.8-1.5-1.7-3.1-3.1-4.6c-1.3-1.5-3.2-2.7-5-3.4c-3.6-1.5-7.3-1.5-10.7-1
						c-3.4,0.5-6.5,1.6-9.5,2.8c-3.2,1.3-6.2,2.7-9.1,4.4c-0.7,0.4-2.7,1.9-4.5,3.5c-1.8,1.6-3.6,3.4-4.1,4
						c-0.5,0.6,3.9-1.5,5.1-2.1c4-1.9,10.1-4.4,13.2-5.4c3.2-1.1,5.5-1.7,7.9-2c2.3-0.3,4.7-0.5,7.6,0.3c0.8,0.1,1.4,0.5,2.1,0.8
						c0.6,0.3,1.2,0.7,1.7,1.2c1,0.9,1.8,2.2,2.5,3.6c1.3,2.9,2.4,6.5,4,9.9c0.8,1.7,1.7,3.4,2.8,5c0.5,0.8,1.1,1.6,1.7,2.4l1.7,2.2
						c2.3,2.9,4.7,5.7,7.2,8.4c4.1,4.4,9.1,8.2,14.3,11.4c2.6,1.6,5.4,3.1,8.1,4.5c1.4,0.7,2.7,1.4,4.1,2c1.4,0.6,2.8,1.3,4.2,1.9
						c12.1,5.4,25.2,8.9,38.6,9.2c14.2,0.2,28.5-1.1,42.1-5.6c13.3-4.4,25.6-11,37.2-18.4c3.4-2.2,6.7-4.5,9.9-6.8
						c3.3-2.4,6.4-4.8,9.6-7.4c7.9-6.5,15.5-14.3,20.8-24c1.3-2.4,2.5-5,3.5-7.6c1-2.6,1.7-5.3,2.3-7.9c1.2-5.2,1.9-10.3,2.5-15.2
						c1.2-8.7,2.7-17.5,3.6-26.6c0.4-4.5,0.7-9.1,0.6-13.9c-0.1-4.8-0.6-9.3-1.1-13.7c-0.6-4.6-1.1-9.9-1.5-14.7
						c-0.3-4.7-0.5-9.3-0.7-12.9c-0.1-1.8-1.1-2.8-2.1-3.3c0.9,0.4-0.6,2.4-1.9,4.7c-0.4,0.6-0.7,1.2-1,1.8
						c-0.3,0.6-0.7,1.1-0.9,1.6c-0.5,1-0.9,1.8-1,2c-1.7,4.5-2,9.7-2.5,14.6c-0.7,9.1-1.4,17.3-2.2,27c-0.7,9.8-2.2,19.7-3.6,30
						c-0.7,5.1-1.3,10-2.3,14.5c-1,4.6-2.4,8.5-4.6,12.4c-3.7,6.6-9,12.6-15.2,18.1c-3.1,2.8-6.4,5.4-9.8,7.9
						c-3.4,2.5-6.9,5-10.4,7.2C210.1,457,200.7,461.5,191.1,465.1z"/>
				</g>
			</g>
		</g>
	</g>
	<g>
		<g>
			<g>
				<path class="st2" d="M227.1,93.9l-0.2-0.2C227,93.8,227,93.9,227.1,93.9z"/>
				<path class="st2" d="M232.4,128.3l-0.1-0.1C232.3,128.2,232.4,128.3,232.4,128.3z"/>
				<path class="st2" d="M239.5,143.6l-0.2,0.3C239.4,143.7,239.5,143.6,239.5,143.6z"/>
				<g>
					<path class="st2" d="M249,123.9c1-4.8,1.1-9.8,0.4-14.7c-0.8-4.9-2.5-9.6-5-13.8c-2.6-4.3-6-7.9-9.7-11c-0.9-0.8-2-1.6-3.1-2.3
						l-1.7-1c-0.6-0.3-1.1-0.6-1.7-0.9c-2.3-1.1-4.6-2-7-2.6c-5-1.3-10.3-1.8-15.5-0.6c-2.6,0.6-5.2,1.6-7.6,3.1
						c-2.5,1.6-4.6,3.9-5.9,6.5c-5.1,10.8-0.6,21.3,2.3,29.1c2.9,8.1,6.7,16,9.7,24.3c0.8,2.2,1.6,4.5,2.5,6.7
						c0.2,0.5,1.2,2.1,2.2,3.5c1,1.5,2.2,2.8,2.7,3.2c0.4,0.4-0.5-3.1-0.7-4c-0.8-3.1-1.8-7.8-2.4-10.2c-1.3-4.7-1.8-7-3.3-11.7
						c-1.6-4.9-3.1-9.8-4.6-14.7c-0.7-2.5-1.6-5-2.1-7.2c-0.5-2.3-0.7-4.6-0.5-6.8c0.3-3.5,1-6.7,2.7-8.8c0.8-1.1,1.9-1.9,3.3-2.6
						c1.4-0.7,3-1.1,4.6-1.2c3.6-0.3,7.4,0.5,10.7,2c1.6,0.7,3.2,1.6,4.5,2.6c0.3,0.3,0.7,0.5,1,0.8c0.3,0.3,0.6,0.5,0.9,0.8l2,2.1
						c2.7,3,4.6,6.6,5.7,10.4c1.1,3.8,1.4,7.7,1.2,11.7c-0.2,3.9-1,7.9-2.5,11.7l-0.6,1.4l-0.3,0.7l-0.3,0.5
						c-0.2,0.3-0.4,0.7-0.6,1.1c-0.3,0.4-0.5,0.8-0.8,1.2c-1.1,1.6-2.5,3.1-4,4.6c-3.6,3.5-7.8,6.7-12.2,9.4
						c-2.8,1.7-5.7,3.4-8.5,4.8c-2.9,1.4-5.8,2.7-8.5,3.4c-1.3,0.4-2.6,0.6-3.5,0.6l-0.3,0c-0.1,0-0.3,0-0.4,0c-0.3,0-0.5,0-0.7-0.1
						c-0.4-0.1-0.7-0.1-1-0.3c-0.3-0.1-0.6-0.3-1-0.6c-0.4-0.3-1-0.8-1.5-1.2c-0.5-0.4-1-0.9-1.5-1.4c-0.4-0.5-0.9-1-1.3-1.5
						c-2.8-3.7-3.6-8.3-3.1-13.4c0.1-1.3,0.3-2.6,0.5-3.9l0.2-1l0.2-1.1c0.2-0.9,0.4-2,0.4-2.8c0.4-3.6,0.5-6.7,0.7-9.4
						c0.1-0.7,0.1-1.4,0.2-2c0.1-0.6,0.2-1.3,0.4-1.8c0.3-1.2,0.6-2,1-2.9c0.1-0.2,0.2-0.4,0.3-0.6c0.1-0.2,0.3-0.4,0.4-0.6
						c0.2-0.2,0.2-0.5,0.5-0.7c0.2-0.2,0.4-0.4,0.6-0.7c0.3-0.5,0.9-0.9,1.3-1.4c0.2-0.2,0.4-0.5,0.7-0.8c0.3-0.2,0.5-0.5,0.7-0.7
						c0.9-1,1-2.4,0.8-3.5c0.1,0.5-0.3,0.7-1,0.8c-0.3,0-0.7,0-1.2,0c-0.2,0-0.5,0-0.7-0.1c-0.2,0-0.5,0-0.7,0c-1,0-2.1-0.1-2.9,0
						c-0.8,0.1-1.5,0.1-1.7,0.2c-0.9,0.2-1.7,0.7-2.6,1.1c-0.4,0.3-0.8,0.6-1.2,0.8c-0.4,0.3-0.8,0.6-1.2,1c-0.7,0.7-1.5,1.5-2,2.4
						c-0.3,0.4-0.6,0.8-0.9,1.3c-0.3,0.4-0.5,0.9-0.8,1.3c-1.9,3.5-2.9,7-3.9,10.2c-0.4,1.5-0.9,3-1.3,4.6c-0.2,0.8-0.4,1.4-0.6,2.1
						c-0.2,0.8-0.5,1.9-0.7,2.8c-0.4,2.1-0.6,4.3-0.7,6.5c0,2.2,0.1,4.5,0.4,6.8c0.7,4.6,2.5,9.4,5.4,13.3c1.4,2,3,3.8,4.8,5.4
						c0.9,0.8,1.8,1.5,2.7,2.3c1,0.8,2.3,1.6,3.7,2.3c1.4,0.7,3,1.2,4.5,1.4c0.7,0.1,1.5,0.2,2.1,0.3c0.7,0.1,1.3,0.1,2.1,0.1
						c2.9,0,5.3-0.5,7.5-1.1c3.8-1,7-2.4,10.2-3.9c3.1-1.5,6.1-3.2,9-5.1c5.8-3.7,11.2-7.7,16.3-12.7c1.5-1.5,3.1-3.1,4.5-4.8
						c1.5-1.8,2.9-3.7,4.2-6.2C246.5,132.8,248.1,128.5,249,123.9z"/>
				</g>
			</g>
		</g>
	</g>
	<g>
		<g>
			<g>
				<path class="st2" d="M339.1,172.2l0.1,0.2C339.1,172.4,339.1,172.3,339.1,172.2z"/>
				<path class="st2" d="M305.7,152.5l0.1-0.2C305.7,152.4,305.7,152.5,305.7,152.5z"/>
				<path class="st2" d="M301.8,167.6l-0.1,0.1C301.7,167.6,301.8,167.6,301.8,167.6z"/>
				<g>
					<path class="st2" d="M311.1,167.6c1.1,0.2,2.1,0.5,3.2,0.9c1.1,0.4,2.1,0.8,3.2,1.3c2.1,1,4.1,2.1,5.9,3.4
						c1.9,1.4,3.7,3.1,5.2,5.2c1.4,2.1,2.5,4.6,2.8,7.3c0.4,2.8,0.2,5.7-0.3,8.6c-0.5,2.9-1.4,5.7-2.5,8.5l-0.1,0.3l0,0.1l-0.1,0.3
						c-0.1,0.2-0.2,0.4-0.2,0.6c-0.2,0.4-0.4,0.8-0.6,1.2c-0.4,0.8-1,1.5-1.5,2.2c-0.3,0.3-0.6,0.7-0.9,1l-0.5,0.5l-0.2,0.2
						c0,0,0,0-0.1,0.1l0-0.1l-0.1-0.2c-0.4-0.8-0.8-1.6-1.2-2.5c-0.4-0.8-0.8-1.5-1.2-2.2l-0.7-1.1l-1.3-2.1
						c-1.7-2.8-3.4-5.6-4.7-8.5c-0.7-1.6-1.3-3.2-1.9-4.8c-0.3-0.8-3.1-4.2-3.8-4.7c-0.3-0.3,0,2.4,0.1,3.1c0.3,2.4,1,6,1.6,7.8
						c1.1,3.6,1.6,5.2,3.2,8.6c0.4,0.9,0.8,1.8,1.2,2.6c0.5,1.1,1,2.1,1.5,3.2c0.5,1.2,1.1,2.3,1.6,3.5l0.8,1.8l0.9,1.6l1.8,3.4
						l0.9,1.8l0.5,0.9l0.7-0.6c1.8-1.5,3.6-3.1,5.4-4.6c0.8-0.7,1.5-1.5,2.3-2.3c0.7-0.9,1.5-1.8,2.2-2.8c0.7-1,1.4-2,2-3.2l0.8-1.5
						c0.2-0.4,0.4-0.8,0.6-1.2c1.5-3.3,2.5-6.7,3.4-10.2c0.9-3.8,1.4-7.8,1.2-11.8c-0.3-4.1-1.3-8.2-3.3-11.9
						c-1.1-2-2.3-3.9-3.7-5.7c-1.4-1.8-2.9-3.5-4.6-4.9c-1.7-1.5-3.5-2.8-5.4-4c-1.9-1.1-3.9-2.1-6.1-2.8c-4.2-1.4-8.8-2-13.4-1.6
						c-2.3,0.2-4.6,0.7-6.8,1.3c-1.1,0.4-2.2,0.7-3.2,1.2l-0.8,0.3l-0.7,0.3c-0.5,0.2-0.9,0.4-1.4,0.7c-2.1,1.1-4.5,2.3-6.8,4.3
						c-2.3,1.9-4.4,4.8-5.5,7.8c-0.2,0.5-0.4,0.9-0.5,1.4c-0.1,0.5-0.3,0.9-0.4,1.4c-0.2,0.9-0.4,1.8-0.5,2.7l-0.1,1.3l-0.1,1.2
						c-0.1,0.8,0,1.6,0,2.4l0.1,3.9l0.1,3.9c0.1,5.3,0.1,10.8,0.9,16.7c0.6,5.1,1.7,11.5,5.3,16.8c1.8,2.7,4,5.2,6.7,7.1
						c0.7,0.5,1.4,0.9,2.1,1.3l1.1,0.6l1.1,0.5c0.7,0.3,1.5,0.7,2.2,0.9c0.7,0.2,1.5,0.5,2.3,0.7c3.2,0.8,6.9,1.4,10.3,1
						c1.7-0.1,3.3-0.5,4.8-1c1.5-0.4,2.7-1.2,3.8-2.1c1-0.8,1.2-2.2,1-3.3c0.1,0.9-1.4,0.6-2.9,0c-0.4-0.2-0.8-0.3-1.1-0.5
						c-0.4-0.2-0.7-0.4-1-0.6c-0.6-0.3-1-0.6-1.1-0.6c-2.4-1-5-1.7-7.2-2.8c-2.1-1.2-3.8-2.5-5.2-4c-1.4-1.4-2.5-2.8-3.5-4.2
						c-1.1-1.5-2-3.1-2.7-4.9c-0.3-0.9-0.6-1.9-0.8-2.9c-0.2-1-0.4-2.2-0.6-3.4c-0.6-4.7-0.7-10-0.8-15.6c0-2.4-0.1-4.9-0.2-7.4
						c-0.1-1.9,0-3.7,0.3-4.9c0.3-1.2,0.6-1.8,1.4-2.6c0.8-0.8,2.2-1.7,4-2.5c0.5-0.2,1.2-0.5,1.7-0.7c0.5-0.2,0.9-0.4,1.4-0.5
						c0.9-0.3,1.9-0.4,2.9-0.6C307.1,167,309.1,167.1,311.1,167.6z"/>
				</g>
			</g>
		</g>
	</g>
	<g>
		<g>
			<g>
				<path class="st2" d="M87.8,256.9l-0.1-0.3C87.8,256.7,87.8,256.8,87.8,256.9z"/>
				<path class="st2" d="M99.2,295l-0.2,0C99.1,295,99.2,295,99.2,295z"/>
				<path class="st2" d="M115.4,297.8l0.1,0.2C115.4,297.9,115.4,297.8,115.4,297.8z"/>
				<g>
					<path class="st2" d="M110.7,282.8c-2.1-6.8-4.4-13.6-7.2-20.3c-2.9-6.9-6.1-13.7-8.6-20.9c-1.3-3.8-2.6-7.6-4.1-11.4
						c-1.5-3.8-3.1-7.5-5-11.1c-2-3.6-3.9-7.2-5.9-10.7c-2-3.5-4.1-7.1-6.7-10.5c-2.5-3.3-5.6-6.2-9.1-8.5
						c-3.6-2.4-7.4-4.2-11.5-5.5c-2.2-0.7-4.5-1.3-6.8-1.6c-0.6-0.1-2.4,0.1-4.1,0.6c-0.9,0.2-1.7,0.6-2.4,0.8
						c-0.7,0.3-1.2,0.6-1.4,0.8c-0.2,0.2,0.6,0.2,1.5,0.3c0.9,0.1,2,0.2,2.4,0.2c1.5,0.2,3.3,0.6,4.9,1.1c1.6,0.5,3.1,1.2,4,1.6
						c2,0.8,3.3,1.6,4.6,2.4c1.3,0.8,2.6,1.6,4.3,2.9c3.4,2.6,6.3,5.9,8.7,9.5c2.4,3.6,4.3,7.6,5.8,11.8c2.4,6.7,6,13.3,8.1,20.3
						c2.2,7.6,3.6,15.4,5.9,23.2c2.5,8.2,4,16.8,6.7,25.1c1.3,4.1,2.8,8.2,4.4,12.3c1.6,4.1,3.2,8.2,5,12.2
						c2.1,4.8,4.3,9.5,6.8,14.1c3.2,5.9,7.1,11.4,11.6,16.5c2.2,2.5,4.6,5,7.3,7.3c2.7,2.3,5.7,4.5,9.2,6.3
						c3.1,1.6,6.6,2.9,10.1,3.5c3.5,0.7,7.1,0.8,10.7,0.4c3.6-0.4,7.1-1.4,10.4-3.1c3.3-1.6,6.4-4,8.8-6.8c1.3-1.5,2.6-3.2,3.7-5.1
						c1.1-1.9,2-3.9,2.6-6c1.3-4.2,1.2-8.6-0.2-11.6c-0.7-1.5-2-1.8-3.2-1.8c0.9,0,0.5,1.8-0.5,3.5c-1,1.7-2.4,3.2-2.5,3.4
						c-1.7,2.5-3.4,5-5.6,6.8c-2.1,1.8-4.3,3-6.6,3.7c-2.2,0.8-4.4,1.2-6.7,1.8c-1.2,0.2-2.4,0.4-3.6,0.5c-1.2,0.1-2.4,0-3.6-0.1
						c-1.2-0.1-2.3-0.4-3.5-0.7c-1.1-0.3-2.2-0.7-3.3-1.2c-4.3-2-8.7-6-12.7-10.6c-6.8-7.7-12.2-16.8-16.4-26.7
						C114.7,295.8,112.7,289.3,110.7,282.8z"/>
				</g>
			</g>
		</g>
	</g>
	<g>
		<g>
			<g>
				<path class="st2" d="M137.9,199.9l0.1,0.3C137.9,200.1,137.9,200,137.9,199.9z"/>
				<path class="st2" d="M133.2,148l0.2,0.1C133.3,148,133.3,148,133.2,148z"/>
				<path class="st2" d="M120,135.7l0-0.3C120,135.5,120,135.6,120,135.7z"/>
				<g>
					<path class="st2" d="M118.3,158.6c0,10.4,1.3,20.8,3.7,30.8c2.6,10.3,6.4,20.1,9.8,30c1,2.6,1.9,5.2,2.9,7.9
						c1,2.6,2.2,5.1,3.2,7.7c1,2.6,2.3,5,3.6,7.5c1.3,2.5,2.5,5,4,7.3c1.5,2.4,2.8,4.8,4.2,7.2c0.8,1.2,1.5,2.4,2.3,3.6l2.4,3.5
						c3.2,4.5,6.5,8.9,9.8,13.3c3.2,4.2,6.6,8.2,9.7,12.3c3.1,4.1,6.2,8.3,8.3,13c1.1,2.5,2,5,2.8,7.5c0.3,0.6,1,2.4,1.7,4.2
						c0.2,0.4,0.4,0.9,0.5,1.3c0.2,0.4,0.3,0.9,0.4,1.2c0.3,0.8,0.5,1.4,0.7,1.7c0.1,0.3,0.3-0.6,0.4-1.6c0.1-1.1,0.2-2.4,0.2-2.9
						c0-3.7-1.3-9.5-2.4-12.3c-1.1-2.8-2-4.9-3-6.9c-1-2-2.1-4-3.8-6.6c-3.5-5.4-7.2-10.5-10.7-15.6c-3.5-5.1-7-10.3-9.7-15.7
						c-0.6-1.1-1.1-2.2-1.7-3.2c-0.6-1-1.1-2.2-1.7-3.3c-1.1-2.3-2.3-4.5-3.5-6.8c-1.1-2.3-2.2-4.6-3.3-6.9
						c-0.5-1.2-1.1-2.3-1.6-3.5c-0.5-1.2-0.9-2.3-1.3-3.5c-1.9-5.1-3.3-10.3-4.8-15.4c-0.6-2.6-1.3-5.2-2-7.8
						c-0.7-2.6-1.2-5.2-1.8-7.9c-2.6-11.2-3.3-22.6-3.9-34c-0.6-11.3-0.5-22.6,1-33.9c0.1-1.7,0.4-3.3,0.7-4.9l0.8-4.9
						c0.2-1.6,0.6-3.3,0.9-4.9l1-4.9c0.4-2.1,1-4.1,1.4-6.2l1.4-6.1c1-4.1,2.1-8.1,3.3-12c2.4-7.8,5.6-14.9,10.2-21.3
						c0.5-0.7,1-1.4,1.6-2.2l0.8-1.1l0.9-1.2c1.2-1.5,2.4-3,3.7-4.5c2.4-2.9,4.8-5.8,7.3-8.4c2.5-2.6,5-5,7.5-7.1
						c1.3-1,2.6-2,3.9-2.9c1.3-0.9,2.9-1.8,4.3-2.7c3.2-1.9,7.2-3.7,11.1-5.5c1.9-0.9,3.9-1.7,5.6-2.5c1.8-0.8,3.4-1.6,4.9-2.5
						c1.4-0.8,1.9-2.1,1.9-3.3c0,1-2.1,0.5-4.5,0.1c-2.4-0.5-5-0.9-5.4-0.9c-4.2-0.1-8.7,0.9-13,2c-2.1,0.5-4.1,1.1-6.2,1.7
						c-2,0.6-4,1.3-6,2.2c-2.1,0.9-4,2-6,3.3c-1.9,1.3-3.7,2.7-5.4,4.3c-3.6,3.4-6.8,7-9.7,10.6c-1.5,1.8-2.9,3.6-4.3,5.4l-2.1,2.6
						l-2.2,2.9c-2.9,4-5.5,8.3-7.7,12.8c-2.2,4.5-3.9,9.1-5.4,13.7c-1.2,3.9-2.3,7.8-3.2,11.6c-0.9,3.8-1.7,7.7-2.6,11.6
						c-0.8,3.9-1.5,7.8-2.2,11.7l-0.9,5.9c-0.3,2-0.6,3.9-0.8,5.9c-0.3,2.4-0.6,4.8-0.9,7.2c-0.3,2.4-0.4,4.9-0.7,7.3
						c-0.2,2.4-0.4,4.9-0.5,7.4C118.5,153.6,118.4,156.1,118.3,158.6z"/>
				</g>
			</g>
		</g>
	</g>
	<g>
		<g>
			<g>
				<path class="st2" d="M243.5,242.7l0-0.2C243.5,242.6,243.4,242.7,243.5,242.7z"/>
				<path class="st2" d="M231.7,263.8l0-0.2C231.7,263.7,231.7,263.8,231.7,263.8z"/>
				<path class="st2" d="M228.2,279.2c0,0-0.3,0.1-0.3,0.1C228,279.3,228.1,279.2,228.2,279.2z"/>
				<g>
					<path class="st2" d="M245.2,272.8c3.3-2.5,6.1-5.6,8.1-9.3c0.5-0.9,1-1.8,1.4-2.8l0.6-1.5c0.2-0.5,0.3-1,0.5-1.5
						c0.3-1,0.5-2.1,0.7-3.2l0.1-0.8l0.1-0.8l0.1-1.5c0.1-4.1-0.6-8-1.6-11.6c-1.1-3.7-2.5-7.1-4.2-10.5c-1.8-3.6-4.2-6.9-7.2-9.7
						c-1.5-1.4-3.2-2.6-5-3.7c-0.9-0.5-1.8-0.9-2.7-1.3c-1-0.4-1.9-0.8-2.9-1c-2-0.6-4.1-1-6.4-1c-2.2-0.1-4.7,0.3-6.9,1.4
						c-2.2,1.1-4.1,2.9-5.4,4.8c-0.3,0.5-0.6,1-0.8,1.5l-0.4,0.8c-0.1,0.3-0.2,0.5-0.3,0.8l-0.6,1.5c-0.2,0.5-0.3,1-0.4,1.5
						c-0.3,1-0.4,2-0.5,2.9c-0.1,1-0.1,2-0.1,2.9c0,1,0.2,2,0.3,3c0.2,1,0.4,2,0.7,2.9c1.1,3.9,3.2,7,4.4,10c0.6,1.6,1,3.1,1.2,4.6
						c0.1,0.2,0.1,0.5,0.3,1c0.1,0.2,0.2,0.5,0.3,0.7c0.1,0.3,0.2,0.5,0.3,0.8c0.1,0.3,0.2,0.6,0.3,0.8c0.1,0.3,0.2,0.5,0.2,0.8
						c0.2,0.5,0.3,0.9,0.4,1.1c0.1,0.2,0.4-0.3,0.6-1c0.1-0.3,0.3-0.7,0.4-1c0.1-0.3,0.1-0.6,0.2-0.8c0.1-0.6,0.3-1.3,0.3-2
						c0-0.4,0.1-0.7,0.1-1.1c0-0.4,0-0.8,0-1.1c0-1.5-0.3-3-0.5-3.9c-1.1-3.8-1.9-5.5-2.8-8.9c-0.4-1.8-0.6-3.6-0.5-5.4
						c0.1-0.9,0.1-1.8,0.3-2.7l0.3-1.3l0.4-1.2c0.6-1.6,1.3-3.1,2.4-3.9c1-0.9,2.1-1.2,3.3-1.2c1.9,0.1,4.3,0.6,6.8,1.7
						c2.6,1.1,4.8,2.6,6.5,4.7c1.8,2.2,3.1,4.9,4,7.7c0.9,2.8,1.4,5.7,1.8,8.6c0.1,0.8,0.1,1.5,0.2,2.3c0,0.8,0,1.5-0.1,2.3
						c-0.1,1.5-0.5,2.9-0.9,4c-0.9,2.3-2.6,4.7-4.5,6.7c-1.9,2-4.2,3.8-6.7,5c-2.5,1.2-5.2,1.7-7.9,1.6l-1.4-0.1
						c-0.3,0-0.5,0-0.7,0.1l-0.7,0.1l-1.6,0.2l-3.3,0.4l-1.6,0.2c-0.5,0-1.3,0.1-1.2,0.1l-1.2,0c-0.4,0-0.8-0.1-1.2-0.1
						c-1-0.1-1.9-0.3-2.8-0.5c-0.8-0.3-1.6-0.6-2.3-0.9c-0.7-0.4-1.4-0.9-2-1.5c-0.7-0.6-1.3-1.3-2-2.2c-2.6-3.4-4.7-7.9-5.8-12.4
						c-1-4.1-0.9-8.2,0-12.1c0.8-3.9,2.3-7.5,4.1-11.2c0.9-2,2.3-4.2,3.6-6.5c1.4-2.3,2.6-4.7,3.1-7.2c0.2-1.2-0.4-2.4-1.1-3.3
						c0.6,0.7-0.7,1.3-2.4,1.7c-1.6,0.5-3.4,0.9-3.6,1c-2.6,1.2-4.8,3.1-7.1,5.1c-2.2,1.9-4.3,3.9-6.1,6.2c-1.8,2.3-3.4,5-4.3,8.2
						c-1,3.3-1.5,6.8-1.6,10.3c-0.1,3.5,0.3,6.9,1.1,10.3c0.8,3.3,1.8,6.6,3.2,9.7c0.7,1.6,1.5,3.1,2.4,4.6c0.4,0.8,0.9,1.5,1.4,2.2
						c0.5,0.7,1,1.5,1.6,2.2c1.9,2.5,4.4,5,7.5,6.9c3.1,1.9,6.6,3,9.9,3.5c0.8,0.1,1.6,0.2,2.4,0.2c0.8,0,1.6,0.1,2.3,0.1l1.2,0
						c0.3,0,0.5,0,0.8,0l0.8-0.1l1.8-0.2l3.7-0.4l1.9-0.2l0.2,0c0,0,0,0,0,0c0,0,0,0,0,0l-0.1,0c0,0,0.1,0,0.1,0l0.3,0
						c3.9,0.3,8-0.2,11.8-1.3C238.5,277,242.1,275.2,245.2,272.8z"/>
				</g>
			</g>
		</g>
	</g>
	<g>
		<g>
			<g>
				<path class="st2" d="M286.6,60.3l-0.5,0.1C286.3,60.4,286.5,60.4,286.6,60.3z"/>
				<path class="st2" d="M332,86.1l-0.2,0C331.9,86.1,332,86.1,332,86.1z"/>
				<path class="st2" d="M351.7,90.8l0.2,0.4C351.8,91,351.7,90.9,351.7,90.8z"/>
				<g>
					<path class="st2" d="M336.6,66.5c-3.9-5.4-8.2-10.7-13.7-15.4c-2.7-2.3-5.8-4.5-9.4-6.3c-3.6-1.7-7.9-2.9-12.4-2.8
						c-0.6,0-1.2,0.1-1.7,0.1c-0.6,0.1-1.2,0.1-1.7,0.2c-1.1,0.3-2.3,0.5-3.3,0.9l-1.6,0.6c-0.5,0.2-1,0.5-1.5,0.7l-0.7,0.4
						l-0.4,0.2l-0.2,0.1l-0.9,0.5c-2.4,1.4-4.9,2.6-7.5,3.3c-2.6,0.7-5.2,1.1-8,0.9c-2.7-0.1-5.4-0.8-8.1-1.9
						c-2.4-1-4.8-2.2-7.1-3.7c-0.6-0.3-1.1-0.7-1.7-1.1l-0.8-0.6c-0.3-0.2-0.6-0.4-0.8-0.6c-0.9-0.6-1.6-1.4-2.3-2.2
						c-0.7-0.9-1.3-1.8-1.9-3c-0.6-1.1-1.1-2.4-1.7-3.7l-0.5-1l-0.2-0.5l-0.1-0.3c-0.1-0.3-0.3-0.6-0.5-0.9
						c-0.3-0.6-0.7-1.1-1.2-1.7l-0.3-0.3c0,0-0.1,0-0.1-0.1l0.1,0l0.1-0.1l0.6-0.3l1.2-0.7l1.1-0.6l0.6-0.3l1.1-0.6l2.3-1.1
						c0.7-0.3,1.4-0.6,2.2-1c3-1.2,5.8-2,8.7-2.1c1.5-0.1,3,0,4.6,0.2l1.2,0.1l0.6,0.1c0.1,0,0.2,0,0.3,0.1l2.2,0.7
						c3.3,1,6.6,2,9.9,2.9c1.6,0.5,3.3,0.9,4.8,1.4c0.3,0.1,1.2,0.4,1.9,0.7c0.7,0.3,1.4,0.6,2.1,0.9c1.3,0.6,2.6,1.4,3.2,2
						c0.2,0.1,0.2,0.2,0.3,0.3c-0.1,0,0.2-0.1,0.4-0.2c0.2-0.1,0.2-0.1,0.4-0.2l0.3-0.1c0.1,0,0.2,0,0.2,0c0,0,0.1,0,0.1,0
						c0,0,0,0-0.1,0c-0.1,0-0.1,0-0.2-0.1c-0.1,0-0.2-0.1-0.3-0.1c-0.1-0.1-0.2-0.1-0.4-0.2c-0.1,0-0.1-0.1-0.2-0.1c0,0,0,0,0,0
						c0,0,0,0.1-0.1,0.1c-0.2,0.2-0.7,0.6-1.2,0.9c-0.6,0.3-1.2,0.6-1.9,0.9c-1.4,0.5-2.9,1-4.4,1.4c-3.1,0.8-6.3,1.3-9.6,1.6
						c-3.5,0.3-7,0.4-10.5,0.5c-0.9,0-3.4,0.4-6,0.7c-2.6,0.4-5.2,0.7-6,0.9c-0.8,0.2,4.4,1.1,5.8,1.2c4.7,0.7,12,1.2,15.8,1.1
						c3.8-0.1,6.6-0.3,9.5-0.7c1.4-0.2,2.8-0.4,4.4-0.8c1.6-0.4,3.3-0.8,5.3-1.7c1-0.5,2.1-1.1,3.1-2.1c0.5-0.5,1-1.2,1.3-2.2
						c0.3-0.9,0.2-2-0.2-2.8c-0.7-1.6-1.6-2.5-2.5-3.3c-0.9-0.8-1.8-1.4-2.8-1.9c-0.9-0.6-1.9-1-2.8-1.5l-1.4-0.7
						c-0.4-0.2-1.1-0.5-1.7-0.7c-1.9-0.6-3.8-1.2-5.6-1.8l-5.6-1.9l-5.8-2c-0.3-0.1-0.7-0.1-1-0.2l-0.8-0.1l-1.5-0.2
						c-1-0.1-2.1-0.3-3.2-0.4c-2.2-0.2-4.5-0.2-6.8,0.1c-2.1,0.3-4.2,0.8-6.2,1.4c-1,0.3-1.9,0.7-2.9,1.1c-1,0.4-1.8,0.8-2.7,1.2
						c-1.1,0.5-2.2,1-3.3,1.5l-4.2,1.9l-4.2,1.9c-1.3,0.7-3.1,1.3-3.5,2c1.6,1.8,3.3,4,4.8,5.9c0.9,1,1.3,2,1.9,2.9l0.3,0.7l0.3,0.6
						l0.4,0.9c1,2.4,2.1,5.4,3.9,8.2c1.2,1.9,2.7,3.7,4.5,5.1l0.7,0.6l0.6,0.4l1.1,0.9c0.7,0.6,1.5,1.1,2.3,1.7
						c3.1,2.2,6.6,4.2,10.4,5.6c3.8,1.5,8,2.5,12.2,2.6c4.3,0.2,8.5-0.5,12.4-1.8c0.5-0.2,1.1-0.3,1.6-0.5l1.5-0.6l1.5-0.6l1.4-0.7
						l1.4-0.7c0.3-0.1,0.4-0.2,0.5-0.2l0.4-0.2c0.5-0.3,1.1-0.4,1.6-0.5c1.1-0.2,2.2-0.2,3.3-0.1c1.1,0.2,2.3,0.5,3.5,1.1
						c2.4,1.1,4.9,2.9,7.3,5.1c2.4,2.2,4.7,4.7,6.9,7.4c4.4,5.3,8.5,11.1,12.5,17.2l6,9.3c2,3,3.8,6.1,5.6,9.2c2,3.7,4,7.4,5.8,11.2
						c1.8,3.8,3.5,7.6,5,11.5c7.8,19.6,13.1,40.2,14.7,61.3c0.8,9.5,0.5,18.9-0.4,28.3c-0.8,9.4-2.2,18.6-3.8,28
						c-0.2,1.2-0.4,2.5-0.6,3.9c-0.3,1.3-0.5,2.7-0.8,4.1c-0.3,1.4-0.5,2.8-0.8,4.2c-0.3,1.4-0.6,2.8-0.9,4.2
						c-1.1,5.7-2.1,11.2-2.2,15.7c0,2.2,1,3.3,2,3.7c-0.9-0.3,0.6-2.8,2.3-5.4c0.4-0.6,0.9-1.3,1.3-1.9c0.4-0.6,0.8-1.2,1.2-1.7
						c0.7-1,1.2-1.8,1.3-2c0.6-1.1,1.3-2.3,1.9-3.5c0.6-1.2,1.1-2.5,1.6-3.7c0.5-1.3,1-2.6,1.6-3.8c0.5-1.3,1-2.6,1.4-3.9
						c3.8-9.9,7.2-19,8.7-30.3c2.9-23.6,1-47.6-4.6-70.8c-4.7-19.8-12.5-38.7-22.3-56.4c-0.7-1.3-1.5-2.6-2.2-4
						c-0.8-1.3-1.6-2.6-2.3-4c-1.6-2.6-3.1-5.1-4.7-7.7C343.5,77,340.3,71.6,336.6,66.5z"/>
				</g>
			</g>
		</g>
	</g>
	<path class="st3" d="M120.8,358.7"/>
	<path class="st3" d="M38.4,187.7"/>
</g>
<g id="Layer_2" class="st0">
	<g class="st1">
		<g>
			<g>
				<path class="st2" d="M155.6,297.6l-0.2-0.1C155.5,297.5,155.6,297.6,155.6,297.6z"/>
				<path class="st2" d="M192,310.2l-0.1,0.1C192,310.3,192,310.2,192,310.2z"/>
				<path class="st2" d="M202.2,297.6l0.2,0C202.3,297.6,202.2,297.6,202.2,297.6z"/>
				<g>
					<path class="st2" d="M188.5,294c-3-1-6-2.1-9-3.3c-3.5-1.4-7.2-2.6-10.8-3.4c-7.5-1.6-15-2-22.2-3.4c-3.8-0.7-7.6-1.4-11.4-2.1
						l-5.6-1l-2.9-0.5c-1.4-0.3-2.8-0.3-4.2-0.1c-1.4,0.2-2.7,0.6-3.8,1.1c-1.1,0.5-2.1,1-3.1,1.6c-0.9,0.5-1.8,1.1-2.6,1.6
						c-0.8,0.5-1.5,0.9-2.4,1.3c-3.3,1.8-6.6,3.3-10.1,4.6c-3.3,1.2-6.6,2.5-10,3.4c-3.4,0.9-6.9,1.4-10.4,1c-1.9-0.2-3.7-0.6-5.4-1
						c-0.4-0.1-1.8-0.2-3.2-0.2c-1.4-0.1-2.8-0.2-3.3-0.1c-0.5,0.1,1.9,1.7,2.7,2.1c1.2,0.6,2.7,1.5,4.2,2.1
						c1.5,0.7,3.1,1.1,4.1,1.3c1.1,0.2,2,0.3,2.9,0.5c0.9,0.1,1.7,0.2,2.5,0.2c0.8,0.1,1.6,0,2.5,0c0.4,0,0.9,0,1.4-0.1
						c0.5-0.1,1-0.1,1.6-0.2c4.6-0.5,9.1-1.7,13.4-3.1c2.2-0.7,4.3-1.5,6.5-2.3c1.1-0.4,2.2-0.8,3.2-1.2c1.1-0.4,2.1-0.8,3.3-1.3
						c1.8-0.7,3.3-1.5,4.6-1.9c1.3-0.5,2.2-0.6,3.1-0.5c0.2,0,0.4,0.1,0.7,0.1l1.4,0.3l2.7,0.6c1.8,0.4,3.6,0.8,5.4,1.3
						c7.6,2.1,15,4.4,22.3,6.3c3.9,1,7.6,2.4,11.2,3.9l2.7,1.2l2.6,1.3c2,1,4.1,1.9,6.2,2.7c8.5,3.1,17.4,4.7,26.4,5.1
						c5.3,0.2,10.5,0,15.8-0.7c3.3-0.5,6.7-1.1,10-2.2c0.8-0.2,1.6-0.5,2.5-0.8c0.8-0.3,1.6-0.6,2.4-0.9c1.6-0.7,3.2-1.4,4.7-2.2
						c6.2-3.2,11.6-7.8,16.2-13c1-1.2,2-2.4,3-3.6c0.9-1.2,1.9-2.4,2.8-3.7c0.9-1.3,1.8-2.6,2.6-4c0.8-1.4,1.5-2.8,2.2-4.3
						c1.3-3,2.3-6.1,2.9-9.3c0.6-3.2,0.9-6.4,0.8-9.5c-0.1-3.3-0.4-7.1-1.2-10.5c-0.8-3.5-2-6.6-3.9-8.8c-0.9-1.1-2.2-1.3-3.4-1.1
						c1.9-0.3-1.1,6.7-1.3,7.2c-0.7,2.9-0.9,6-1.5,9c-0.6,2.8-1.4,5.4-2.4,7.8c-0.9,2.3-1.8,4.6-2.8,7.1c-1,2.5-2.1,4.8-3.5,7.1
						l-1.1,1.7c-0.3,0.6-0.8,1.1-1.2,1.7c-0.8,1.2-1.7,2.2-2.6,3.3c-1.8,2.1-3.7,4.1-5.8,5.7c-2.1,1.7-4.3,3.2-6.7,4.5
						c-4.1,2.2-8.6,3.6-13.3,4.5c-2.4,0.5-4.8,0.7-7.3,0.9c-1.2,0-2.5,0.1-3.7,0.1c-1.2,0-2.4,0-3.7-0.1
						C200.2,297.4,194.2,296,188.5,294z"/>
				</g>
			</g>
		</g>
	</g>
	<g class="st1">
		<g>
			<g>
				<path class="st2" d="M388.2,255.5l0.2,0C388.3,255.6,388.2,255.5,388.2,255.5z"/>
				<path class="st2" d="M361.1,251.2l0.1-0.1C361.1,251.1,361.1,251.1,361.1,251.2z"/>
				<path class="st2" d="M352.3,263.6l-0.2,0C352.2,263.6,352.2,263.6,352.3,263.6z"/>
				<g>
					<path class="st2" d="M363.9,266.7c5.2,1,10.4,1.3,15.5,1.2c5.2-0.1,10.5-0.7,15.5,0.2c5.4,0.9,10.5,2.3,15.6,3.7
						c5.3,1.4,10.1,3.7,14.4,6.6c2.1,1.4,4.2,2.7,6.2,4.2c2,1.5,3.8,3.3,5,5.4c0.3,0.6,0.6,1.2,0.9,1.8c0.2,0.6,0.5,1.2,0.8,1.8
						c0.1,0.3,0.7,1.1,1.4,1.8c0.6,0.8,1.3,1.6,1.6,1.8c0.3,0.2,0.4-2,0.4-2.6c0-1-0.2-2.3-0.4-3.5c-0.3-1.2-0.5-2.4-0.9-3.1
						c-0.3-0.7-0.6-1.4-0.9-2c-0.3-0.6-0.6-1.1-0.9-1.6c-0.3-0.5-0.6-1-1-1.5c-0.4-0.5-0.8-1.1-1.4-1.7c-4.6-5.1-10.3-8.8-15.8-12.7
						c-4.5-3.2-10.2-4.5-15.4-6.3c-5.6-2-11.3-4-17.1-4.8c-6.1-0.9-12.1-2.4-17.9-3.2c-2.9-0.4-5.8-0.8-8.6-1.2
						c-1.4-0.2-2.8-0.5-4.2-0.8c-1.4-0.3-2.7-0.7-4.1-1c-1.6-0.4-3.1-1-4.7-1.5c-1.6-0.6-3.1-1.2-4.6-1.8
						c-7.7-3.4-15.5-6.8-22.9-11.1c-6.7-3.9-12-9.3-18.1-13.5c-1.7-1.1-3.4-2.6-5.3-3.7c-0.9-0.6-1.9-1.1-2.9-1.5
						c-1-0.4-2-0.7-3.1-0.8c-1.1-0.1-2.3,0.5-3.1,1.2c0.7-0.6,1.1,0.6,1.3,2c0.2,1.4,0.4,3,0.4,3.2c0.3,1.1,0.8,2.2,1.4,3.2
						c0.6,1,1.2,2,1.8,3c0.6,1,1.1,2,1.7,2.9c0.6,1,1.1,1.9,1.8,2.9c1.3,1.8,2.6,3.6,4.4,5.1c3.7,3.2,7.8,5.9,11.9,8.4
						c4.2,2.4,8.4,4.7,12.8,6.8c1.9,0.9,3.7,1.8,5.7,2.6c1.9,0.9,3.8,1.6,5.8,2.4c1.9,0.8,3.9,1.4,5.9,2.2c2,0.7,4,1.3,6.1,2
						C353.8,264.4,358.8,265.7,363.9,266.7z"/>
				</g>
			</g>
		</g>
	</g>
	<g class="st1">
		<g>
			<g>
				<path class="st2" d="M373.4,273.5l0.2,0C373.5,273.5,373.4,273.4,373.4,273.5z"/>
				<path class="st2" d="M345.5,269.5l0.1-0.1C345.5,269.4,345.5,269.4,345.5,269.5z"/>
				<path class="st2" d="M335.5,281.2l-0.2,0C335.4,281.2,335.4,281.2,335.5,281.2z"/>
				<g>
					<path class="st2" d="M347.9,285.1c5.7,1.3,11.6,1.7,17.3,1.4c3-0.2,5.9-0.6,8.8-0.9c3-0.4,5.6-0.7,8.4-0.7
						c5.9,0.1,11.6,0.6,17.4,0.9c5.9,0.3,11.4,1.7,16.9,3.6c5.3,1.8,10.9,2.9,15.6,6c1.3,0.8,2.4,1.8,3.6,2.7c0.6,0.4,4.1,1.7,5,1.8
						c0.4,0-0.9-1.9-1.3-2.5c-0.3-0.4-0.7-0.9-1.1-1.5c-0.4-0.5-0.8-1-1.3-1.5c-0.9-1-1.7-1.9-2.4-2.4c-1.3-1.1-2.3-1.9-3.3-2.6
						c-1-0.7-2.1-1.3-3.6-2.2c-6.4-3.2-12.9-5.6-19.6-8.3c-5.4-2.2-11.6-2.4-17.3-3.3l-4.7-0.8l-4.7-0.7c-1.6-0.2-3.1-0.3-4.7-0.4
						c-1.5-0.1-2.9-0.2-4.4-0.2c-6.3-0.2-12.4-1.6-18.4-2.5c-3-0.5-6-1-8.9-1.7c-2.9-0.7-5.8-1.5-8.7-2.5c-3.3-1.2-6.5-2.6-9.5-4.3
						c-3.7-2-7.4-4.5-11.3-7.1c-4-2.6-8.1-5.3-12.8-7.8c-2.1-1.1-4.3-2.2-6.7-3.1c-1.3-0.5-2-0.8-2.9-1.2c-0.9-0.4-1.7-0.8-2.6-1.2
						c-3.4-1.7-6.9-3.6-10.7-5.3c-2-0.9-4.4-2.1-7-2.9c-2.5-0.8-5.3-1.3-7.7-0.8c-1.2,0.3-2,1.3-2.4,2.4c0.4-0.9,1.4,0.1,2.2,1.4
						c0.9,1.3,1.6,2.8,1.7,2.9c1.5,2,3.4,3.5,5.1,5.2c3.3,3.4,6.1,7,10.6,9.5c2.4,1.3,4.9,2.4,7.5,3.3l0.5,0.2l0.2,0.1l0.2,0.1
						l0.7,0.3c0.5,0.2,0.9,0.3,1.4,0.6c0.9,0.4,1.9,0.9,2.8,1.3c3.8,2,7.7,4.5,11.9,7.3c3.5,2.4,7.3,4.8,11.5,7c2.2,1.1,4.2,2,6.3,3
						c2.1,0.9,4.2,1.8,6.4,2.6C337.1,282.1,342.4,283.9,347.9,285.1z"/>
				</g>
			</g>
		</g>
	</g>
	<g class="st1">
		<g>
			<g>
				<path class="st2" d="M170.9,273.1l-0.3,0C170.7,273.1,170.8,273.2,170.9,273.1z"/>
				<path class="st2" d="M222.7,268.2l0,0.2C222.8,268.3,222.8,268.2,222.7,268.2z"/>
				<path class="st2" d="M221.7,251l0.1-0.2C221.8,250.9,221.7,250.9,221.7,251z"/>
				<g>
					<path class="st2" d="M206.5,260.3c-2.1,1.1-4.2,2.3-6.3,3.5l-2.5,1.5c-0.4,0.2-0.6,0.3-0.7,0.3c-0.1,0-0.2,0.1-0.6,0.1
						c-0.2,0-0.4-0.1-0.6-0.1c-0.1,0-0.3-0.1-0.4-0.1l-1-0.5c-2.6-1.3-5.4-2.2-8.1-2.7c-5.6-1.2-10.9-1.2-15.8-1.3
						c-2.5,0-4.9,0-7.2-0.1c-1.2,0-2.3-0.1-3.5-0.3l-1.7-0.2l-1.8-0.3c-5.2-0.8-10.5-1.7-15.9-2.1c-5.4-0.4-11-0.4-16.5,0.5
						c-5.5,0.9-10.9,2.3-16,4.4c-5.1,2.1-9.9,4.7-14.5,7.7c-8.8,5.8-15.6,13.5-24,18.7c-2.2,1.4-4.5,2.6-6.8,3.6
						c-0.6,0.3-2.1,1.3-3.7,2.4c-1.6,1-3.2,2-3.8,2.4c-0.5,0.4,3.4-0.1,4.4-0.4c1.8-0.3,4-1,6.1-1.7c1-0.4,2-0.8,3-1.1
						c0.9-0.4,1.7-0.8,2.3-1.1c5.1-2.7,7.4-4.2,12.2-7.6c4.9-3.6,9.6-7.1,14.6-10c5-2.9,10.2-5.3,15.7-6.4c4.4-1,8.8-1.7,13.4-2.1
						c4.6-0.3,9.3-0.2,13.9,0.5c5,0.8,10,2,15.2,3.2c5.7,1.3,11.1,1.8,16.2,2.3c5.4,0.5,10.3,1.6,14.2,3.7c0.5,0.2,1,0.6,1.5,0.8
						l1.1,0.6c0.5,0.3,1,0.5,1.5,0.7c2,0.9,4.5,1.5,7.1,1.4c2.6-0.1,5-0.8,6.9-1.8c0.3-0.1,0.5-0.2,0.7-0.4l0.6-0.3l0.9-0.5l1.8-1
						c4.8-2.7,9.7-5.5,14.6-8.5c0.6-0.4,1.2-0.7,2-1.2l1.1-0.7l1.1-0.8c1.4-1.1,2.8-2.4,4-3.7c2.4-2.7,4.3-5.8,5.6-8.9
						c0.8-1.8,1.4-3.6,1.9-5.4c0.5-1.8,0.9-3.6,1.3-5.3l0.1-0.7l0.1-0.8c0.1-0.7,0.2-1.4,0.3-2.2c0.1-1.5,0-3-0.3-4.4
						c-0.4-1.4-1-2.8-1.9-4c-0.4-0.6-0.9-1.2-1.4-1.7c-0.3-0.3-0.5-0.5-0.8-0.8l-0.5-0.5l-2.2-2.1c-0.3-0.3-0.8-0.7-1.1-1l-0.9-1
						c-0.6-0.7-1.2-1.3-1.8-2l-1.6-2.1c-0.6-0.7-1-1.5-1.4-2.2c-0.5-0.7-1-1.5-1.3-2.2c-0.4-0.8-0.8-1.5-1.2-2.3l-1-2.4
						c-1.2-3.3-2-6.7-2.4-10.3c-0.3-3.6-0.4-7.3,0-11.1c0.4-3.4,0.9-6.8,1.7-10.2c0.4-1.7,0.9-3.4,1.3-5.1c0.1-0.4,0.2-0.8,0.4-1.2
						l0.4-1.1l0.4-1.1c0.1-0.4,0.3-0.7,0.4-1c1.1-2.8,2.6-5.4,4.4-7.8c1.8-2.4,3.8-4.7,6.1-6.9c2.4-2.3,5.7-4.8,9.1-7.2
						c3.4-2.4,6.8-4.9,9.1-7.5c1.1-1.3,1.1-2.7,0.7-3.7c0.4,0.9-1.8,1.2-4.2,1.5c-2.4,0.2-4.9,0.4-5.2,0.4c-3.9,0.8-8,2.5-11.9,4.3
						c-3.8,1.8-7.4,3.7-10.8,6.4c-3.4,2.6-6.5,6-8.8,10.2c-0.6,1.1-1.2,2.2-1.7,3.4c-0.5,1.2-1,2.3-1.4,3.5l-1.1,3.6
						c-0.3,1.1-0.6,2.2-0.8,3.3c-1,4.4-1.9,9-2.4,13.7c-0.5,4.7-0.6,9.5-0.1,14.4c0.5,4.9,1.5,9.9,3.3,14.6l1.2,3
						c0.4,1,1,1.9,1.4,2.9c0.9,2,2.2,3.7,3.3,5.6c0.6,0.9,1.3,1.7,1.9,2.6c0.7,0.8,1.3,1.7,2,2.5c1.4,1.5,2.9,3.2,4.3,4.4l2.1,1.9
						l0.1,0.1c0,0,0,0,0.1,0.1c0,0.1,0.1,0.1,0.1,0.2c0,0,0,0.1,0,0.1l0,0c0,0,0,0.1,0,0.1c-0.6,3.2-1.4,6.4-2.6,8.9
						c-1.4,3.1-3.3,5.3-5.9,7l-1,0.6l-1.4,0.8l-2.9,1.6C210.5,258.2,208.5,259.3,206.5,260.3z"/>
				</g>
			</g>
		</g>
	</g>
	<g class="st1">
		<g>
			<g>
				<path class="st2" d="M345.3,321.7L345.3,321.7C345.4,321.7,345.4,321.7,345.3,321.7z"/>
				<path class="st2" d="M335.9,304.1l0.2,0C335.9,304.1,335.9,304.1,335.9,304.1z"/>
				<path class="st2" d="M321.6,307.9L321.6,307.9C321.6,307.9,321.6,307.9,321.6,307.9z"/>
				<g>
					<path class="st2" d="M324.9,314.8c1.6,3.2,3.6,6.7,6.4,9.8c1.4,1.6,3,3.2,4.7,4.7c0.9,0.7,1.7,1.5,2.5,2.2
						c0.8,0.7,1.7,1.4,2.4,2.2c3.3,3.2,6.9,6,10.9,7.9c4.1,1.9,7.8,3.9,11.8,5.7c3.8,1.7,8.1,2,11.9,3.7c1,0.5,2,1,3,1.5
						c0.5,0.2,3.3,0.2,3.9-0.1c0.3-0.1-1-1.5-1.3-1.8c-1.2-1.2-2.9-2.8-3.9-3.5c-2-1.3-2.9-1.9-5-2.9c-4.3-2-8.5-4.1-11.9-7.3
						c-2.7-2.6-6.2-4-8.7-6.6c-2.7-2.8-4.4-6.1-6.5-9c-2.3-3.1-3.4-7.3-5.6-11.3c-1.1-2-2.3-4-3.6-6.1c-1.3-2.1-2.8-4.2-4.2-6.1
						c-1.7-2.3-3.5-4.5-5.2-6.6c-4.4-5.3-9.4-9.6-13.2-14.3c-1.7-2.1-2.9-4.4-3.8-6.7c-1-2.3-1.8-4.5-2.8-6.7
						c-0.5-1.2-1-2.6-1.7-3.9c-0.7-1.4-1.7-2.7-3.2-3.7c-0.8-0.5-2.1-0.6-3.2-0.6c0.9,0,0.5,0.8-0.2,1.7c-0.7,0.9-1.6,2-1.6,2.2
						c-0.9,1.7-1,3.6-1.3,5.4c-0.5,3.6-1.1,7.4,0.3,11c1.5,3.8,3.6,7.1,6,10.1c2.4,3,4.9,5.6,7.4,8.1c4.1,4.3,8.2,8.2,11.2,12.4
						c0.9,1.3,1.7,2.6,2.4,4C323.4,311.7,324.1,313.2,324.9,314.8z"/>
				</g>
			</g>
		</g>
	</g>
	<g class="st1">
		<g>
			<g>
				<path class="st2" d="M250.7,192.2L250.7,192.2C250.7,192.2,250.7,192.2,250.7,192.2z"/>
				<path class="st2" d="M245.4,189.9l0.1-0.1C245.4,189.8,245.4,189.8,245.4,189.9z"/>
				<path class="st2" d="M231.3,193.5l-0.1-0.1C231.3,193.5,231.3,193.5,231.3,193.5z"/>
				<g>
					<path class="st2" d="M236.2,201.9c1.6,1.7,3.9,3.3,6.6,4.2c1.3,0.4,2.7,0.7,4.2,0.7c1.5,0,3-0.2,4.3-0.6
						c1.4-0.4,2.6-1.1,3.6-1.8c1-0.7,1.9-1.5,2.6-2.2c1.5-1.5,2.5-2.8,3.8-4c2.7-2.5,5.5-5.4,7-9.3c0.7-1.9,1.4-3.9,1.8-5.9
						c0.4-2,0.6-4.1,0.5-6.1c-0.1-2-0.7-3.9-1.5-5.5c-0.4-1-0.7-1.5-0.9-2.2c-0.2-0.7-0.4-1.4-0.4-2.2c0-0.8,0-1.7,0-2.6
						c0-0.4-1.3-2.5-1.8-2.8c-0.2-0.1-0.9,1.3-1,1.7c-0.6,1.3-1.3,3.2-1.4,4.2c-0.3,2-0.3,3,0.1,4.9c0.4,1.8,0.5,3.5,0.4,5.2
						c-0.2,1.6-0.8,3.2-1.8,4.4c-0.8,1-1.3,2-2,3c-0.6,1-1.4,2.1-2.5,2.9c-1.1,0.9-2.4,1.6-3.8,2.4c-1.1,0.6-2.3,1.3-3.4,1.9
						c-0.4,0.3-0.8,0.4-1.1,0.4c-0.3,0-0.4-0.1-0.6-0.2c-0.1-0.1-0.2-0.2-0.5-0.4c-0.2-0.2-0.4-0.3-0.7-0.5c-0.6-0.4-1.4-1-2.1-2
						c-0.7-0.9-1.4-2-1.8-3.3c-0.5-1.5-0.8-3-0.8-4.5c0-1.9,0.2-3.6,0.6-4.9c0.1-0.2,0.1-0.3,0.1-0.5l0.3-0.7c0.2-0.5,0.4-1,0.7-1.4
						c0.5-0.9,1-1.8,1.6-2.5c1.1-1.4,2.5-2.2,3.7-2.6c1.3-0.4,2.2-0.5,3.3-0.8c1.2-0.4,2.8-0.2,5.6-2.3c0.7-0.5,1.3-1.7,1.8-2.7
						c-0.4,0.9-0.8,0.2-1.1-0.8c-0.4-1-0.8-2.1-0.9-2.3c-0.2-0.4-0.5-0.7-0.8-1c-0.3-0.3-0.6-0.5-1-0.8c-0.7-0.5-1.4-0.9-2.2-1.3
						c-1.5-0.8-3.1-1.5-4.9-1.9c-0.9-0.2-1.8-0.2-2.8-0.2c-0.9,0.1-1.9,0.2-2.8,0.6c-3.9,1.4-7,4-9.3,6.9c-0.6,0.7-1.1,1.4-1.6,2.2
						c-0.5,0.7-0.9,1.5-1.4,2.3c-0.5,0.8-0.8,1.5-1.2,2.3l-0.6,1.2l-0.6,1.5c-1.2,3.5-1.5,6.9-1.3,10c0.2,3.2,0.9,6.2,1.9,9.1
						c0.3,0.9,0.6,1.8,1,2.7l0.6,1.3l0.7,1.3c0.4,0.9,1,1.8,1.6,2.7c0.3,0.4,0.7,0.9,1,1.3C235.4,201,235.7,201.4,236.2,201.9z"/>
				</g>
			</g>
		</g>
	</g>
	<g class="st1">
		<g>
			<g>
				<path class="st2" d="M292.1,197.5l-0.1,0.2C292.1,197.6,292.2,197.5,292.1,197.5z"/>
				<path class="st2" d="M289.8,178.3l0.2,0C289.9,178.2,289.9,178.2,289.8,178.3z"/>
				<path class="st2" d="M275.5,179.8L275.5,179.8C275.4,179.8,275.4,179.8,275.5,179.8z"/>
				<g>
					<path class="st2" d="M277,186.1c0.2,0.7,0.5,1.3,0.7,2c0.1,0.3,0.3,0.6,0.4,1c0.1,0.2,0.2,0.4,0.3,0.6c0.4,0.7,0.8,1.4,1.3,1.9
						c0.4,0.5,0.9,1,1.1,1.6c0.1,0.3,0.1,0.6,0.1,0.9l-0.1,0.2l-0.4,0.5l-0.8,1.1c-1.1,1.4-2.6,3.7-3.1,6c-0.6,2.3-0.4,4.8,0.8,6.8
						c0.6,1,1.2,2,2,2.8c0.4,0.4,0.8,0.8,1.2,1.2l0.6,0.6l0.4,0.3l0.7,0.6c0.2,0.1,0.3,0.3,0.4,0.4c0.3,0.3,0.5,0.6,0.7,1
						c0.3,0.7,0.6,1.5,0.5,2.3c0,0.2-0.1,0.4-0.1,0.6l-0.3,0.8c-0.1,0.4-0.2,0.7-0.3,1.2c0,0.4-0.1,0.8-0.1,1.3
						c0,0.4,0.1,0.8,0.2,1.2c0.1,0.4,0.2,0.7,0.3,1c0.5,1.4,1,2.2,1.2,2.8c0.1,0.2,0.4,0.4,0.7,0.3c0.1,0,0,0,0.4-0.1
						c0.1,0,0.2-0.1,0.4-0.1c0.1,0,0.1,0,0.1,0c0,0,0,0,0,0c0,0,0,0,0,0c0,0,0.1,0,0.1,0c0.1,0,0.3,0,0.4-0.1
						c0.1-0.1,0.3-0.1,0.4-0.2c0.1-0.1,0.2-0.2,0.2-0.3c0.3-0.5,0.3-1.3,0.3-2c0-0.8-0.1-1.4-0.1-1.8c0-0.8,0.2-1.1,0.4-1.3
						c0.1-0.1,0.1-0.1,0.2-0.1c0,0,0.1-0.1,0.1-0.2l0.2-0.2c0.2-0.3,0.5-0.7,0.8-1.2c0.6-1,1-2.1,1.1-3.2c0.1-1.1-0.1-2.3-0.5-3.3
						c-0.4-1.1-1-2.1-1.7-3c-0.7-1-1.5-1.9-1.7-2.5c-0.1-0.8-0.3-1.3-0.5-1.9c-0.2-0.5-0.1-1.2,0.3-1.6c0.2-0.2,0.5-0.4,0.8-0.5
						c0.2-0.1,0.3-0.2,0.5-0.3l0.7-0.5c0.3-0.2,0.5-0.3,0.8-0.5c0.5-0.5,1-0.9,1.4-1.5c0.9-1.1,1.6-2.3,2-3.7c0.9-2.8,1.2-5.7,1-8.1
						c-0.1-1.2-0.3-2.4-0.6-3.5c-0.1-0.5-0.3-1.1-0.5-1.6c-0.1-0.4-0.3-0.8-0.4-1.2c-1.2-3-2.6-5.9-3.6-8.8c-0.6-1.7-1-3.5-1.3-5.2
						l-0.6-3.2c-0.3-1.3-0.6-2.7-1.1-4.1c-0.9-2.7-2-5.4-3.4-8c-1.2-2.4-2.4-4.8-4-7c-1.5-2.2-3.4-4.3-5.7-5.8
						c-2.4-1.6-5.8-3.4-9.1-1.7c-0.8,0.4-1.5,1.5-2,2.5c0.4-0.8,0.8-0.1,1,0.9c0.3,1,0.3,2.2,0.4,2.3c0.4,1.5,1.1,2.5,1.6,3.8
						c0.9,2.4,0.9,5,1.9,6.6c1,1.7,2,3.4,2.9,5.1c0.9,1.7,1.7,3.5,2.3,5.5c0.3,0.8,0.5,1.7,0.7,2.5c0.3,1.1,0.5,2.3,0.9,3.4
						c0.6,2.3,1.3,4.5,1.9,6.7C275.5,180.7,276.2,183.5,277,186.1z"/>
				</g>
			</g>
		</g>
	</g>
	<g class="st1">
		<g>
			<g>
				<path class="st2" d="M330.7,330.2l0.1,0.1C330.8,330.2,330.8,330.2,330.7,330.2z"/>
				<path class="st2" d="M311,316.7l0.1-0.1C311.1,316.6,311.1,316.7,311,316.7z"/>
				<path class="st2" d="M298.4,324.8l-0.1-0.1C298.4,324.8,298.4,324.8,298.4,324.8z"/>
				<g>
					<path class="st2" d="M306.4,331.5c3.7,2.7,7.7,4.9,11.9,6.6c4.3,1.8,8.7,3.1,12.5,5.6c2,1.3,3.9,2.7,5.9,4.1
						c2,1.4,4,2.8,6.2,4.1c4.4,2.5,8.6,5.4,13.8,7.5c2.5,1,5.2,1.3,7.9,1.3c2.7,0,5.3-0.2,8.1-0.6c1.5-0.2,3-0.5,4.5-0.9
						c0.2-0.1,0.5-0.3,0.9-0.6c0.4-0.3,0.8-0.7,1.2-1.1c0.8-0.8,1.5-1.8,1.6-2.1c0.1-0.3-2.1,0.3-2.7,0.3c-0.5,0.1-1,0.2-1.6,0.2
						c-0.6,0.1-1.1,0.1-1.7,0.1c-0.5,0-1.1,0-1.5,0c-0.5,0-0.9,0-1.2,0c-0.7,0-1.2,0-1.7-0.1c-0.5,0-1-0.1-1.4-0.2
						c-0.9-0.1-1.8-0.2-3.1-0.4c-2.6-0.4-5.1-1.1-7.3-2.3c-2.3-1.2-4.4-2.7-6.2-4.7c-3-3.1-7-5.4-10.4-8.6
						c-3.7-3.5-7.4-7.2-11.7-9.9c-4.5-2.9-8.5-6.4-12.9-9.2c-4.3-2.8-8.6-5.4-12.4-8.5c-2.2-1.8-4.3-3.8-6.2-5.8
						c-4.8-5.2-9.4-10.7-12.9-16.9c-0.8-1.4-1.5-2.9-2.1-4.3c-0.5-1.4-0.9-2.7-1.3-4.2c-0.8-2.9-1.5-6.1-2.8-9.5
						c-0.7-1.8-1.5-4-2.7-6c-1.2-2-2.9-3.9-5-4.8c-1-0.4-2.3,0-3.3,0.5c0.8-0.5,0.9,0.8,0.7,2.1c-0.2,1.3-0.7,2.7-0.8,2.9
						c-0.3,2-0.1,4-0.3,6c-0.3,3.8-1.3,7.5-0.3,11.6c0.5,2.1,1.2,4.3,2.1,6.5c0.2,0.5,0.5,1.1,0.7,1.6l0.7,1.5c0.5,1,1,2,1.5,2.9
						c2.1,3.8,4.6,7.5,7.3,11c2.3,3,4.8,5.8,7.5,8.5c2.7,2.7,5.5,5.1,8.3,7.5C299.4,326,302.8,328.9,306.4,331.5z"/>
				</g>
			</g>
		</g>
	</g>
</g>
</svg>
