<?xml version="1.0" encoding="utf-8"?>
<!-- Generator: Adobe Illustrator 19.2.1, SVG Export Plug-In . SVG Version: 6.00 Build 0)  -->
<svg version="1.1" id="Layer_1" xmlns="http://www.w3.org/2000/svg" xmlns:xlink="http://www.w3.org/1999/xlink" x="0px" y="0px"
	 viewBox="0 0 473 473" style="enable-background:new 0 0 473 473;" xml:space="preserve">
<style type="text/css">
	.st0{fill:#FFFFFF;}
	.st1{fill:none;stroke:#000000;stroke-width:5;stroke-linecap:round;stroke-linejoin:round;}
</style>
<title>magic_small</title>
<path class="st0" d="M105.1,200l-0.3-0.1C104.8,200,104.9,200.1,105.1,200z"/>
<path class="st0" d="M157.7,207.2l-0.1,0.4C157.7,207.5,157.8,207.3,157.7,207.2z"/>
<path class="st0" d="M166.1,171.5l0.2-0.1C166.2,171.4,166.1,171.4,166.1,171.5z"/>
<path class="st0" d="M148.7,170.2c-4-0.3-8-0.5-12-0.6s-8.2,0-12.5,0.2c-8.8,0.4-18.2,1.4-27-0.8c-9.5-2.4-18.6-5.4-28.1-7.4
	c-4.7-1-9.3-2.4-13.8-4.2c-2.2-0.9-4.4-1.8-6.5-2.8l-3.3-1.5c-1-0.5-2.1-1-3.1-1.6c-4-2.1-8.2-3.7-12.4-5.6c-4.2-1.7-8-4.2-11.3-7.3
	c-1.7-1.7-3.2-3.7-4.8-5.5c-0.4-0.4-0.9-0.7-1.4-0.9c-0.7-0.2-1.4-0.4-2-0.8c-1-0.5-2.1-1.2-3.5-1.8c-0.8-0.4-1.7-0.7-2.6-1
	C3.3,128,2,127.9,0.7,128c-0.5,0.1-0.5,0.2-0.2,0.3l0.8,0.2c0.4,0.1,0.8,0.2,1.1,0.4c0.3,0.1,0.6,0.3,1,0.5s0.5,0.4,0.7,0.6
	c0.4,0.4,0.7,0.8,1,1.2c0.6,1.1,1.1,2.4,1.4,3.6c0.1,0.5,0.3,1,0.4,1.5c0.1,0.5,0.2,1,0.4,1.5c0.4,1,0.8,2.2,1.3,3.2
	c0.8,1.8,1.7,3.6,2.8,5.2c3.4,4.7,5.1,6.8,9.6,10.4c4.7,3.7,9.7,6.9,14.7,10.1s9.9,6.4,14.8,10.1c7.9,6,17.9,7.6,26.6,11.6
	c4.7,2.2,9.3,4.5,14.1,6.7c4.8,2.2,9.8,4,15,5.2c5.5,1.3,11.1,2.9,16.7,4.3c5.7,1.5,11.5,2.6,17.4,3c11.9,0.5,23.9-0.1,35.7-2
	c3.5-0.5,7.1-1.2,10.6-2s7.1-1.7,10.6-2.8c1.1-0.4,2.2-0.7,3.3-1.1s2.2-0.8,3.4-1.3c2.2-0.9,4.4-1.9,6.5-3c4.2-2.2,8.3-4.7,12.1-7.6
	c3.7-2.8,7.2-5.8,10.6-9l2.6-2.5l3.8-3.9l3.8-3.9c0.6-0.6,1.2-1.3,1.7-2c0.5-0.7,1-1.4,1.4-2.1c0.9-1.5,1.6-3,2.3-4.6
	c0.6-1.7,1.1-3.4,1.4-5.1c0.4-2.6,0.5-5.2,0.3-7.9c-0.2-2.6-0.7-5.2-1.6-7.7c-1.8-5.3-4.7-10.1-8.5-14.3c-1-1.1-2-2.2-3-3.2
	l-1.6-1.6c-0.3-0.3-0.6-0.7-1-1c-1.3-1.3-2.6-2.5-4.1-3.7c-6.8-5.6-14.7-9.7-23.1-12c-5.1-1.2-10.4-1.1-14.9,1.4
	c-2.2,1.2-3.6,4.2-4.4,6.9c0.7-2.2,2.4-0.4,3.9,2.1c1,1.9,2,3.9,2.7,6c2.3,3.9,5.1,6.6,7.3,10c1.9,3.2,3.6,6.5,4.9,10
	c0.7,1.6,1.4,3.2,2.1,4.7c0.4,0.7,0.8,1.5,1.2,2.1l0.6,1c0,0.1-0.1,0.2-0.1,0.3c0.1,0.7-0.2,1.5-0.6,2.1c-0.1,0.1-0.2,0.2-0.4,0.3
	c-0.1,0.1-0.2,0.2-0.3,0.3l0,0l-0.3,0.3l-0.6,0.6l-1.1,1.1c-0.8,0.7-1.5,1.4-2.3,2.1c-1.5,1.3-3,2.5-4.5,3.6c-4.3,3.2-9,5.8-14,7.8
	c-5.3,2.1-10.8,3.5-16.4,4.2C163.8,171.4,156.3,170.8,148.7,170.2z"/>
<path class="st0" d="M112.9,241.3l-0.4-0.2C112.6,241.3,112.7,241.3,112.9,241.3z"/>
<path class="st0" d="M171.2,256.8l-0.2,0.3C171.1,257,171.2,256.9,171.2,256.8z"/>
<path class="st0" d="M208.5,238.9l0.4,0.5C208.8,239.2,208.7,239,208.5,238.9z"/>
<path class="st0" d="M172,219.1c-5.8-1.3-11.7-2.2-17.6-2.8c-5.4-0.6-10.2-0.9-15.5-1.5c-10.7-1-22.2-2.5-32.7-7.5
	c-5.5-2.6-10.9-5.6-16.3-8.6l-4.1-2.3c-1.5-0.8-2.9-1.6-4.4-2.3c-2.9-1.5-5.9-2.9-8.8-4.1c-11.9-5-22.2-11.1-30.9-18.9
	c-4.2-3.7-8.5-7.1-12.3-11.1c-3.9-4-6.8-8.8-8.6-14.1c-1-2.9-1.6-6-2.3-9.1c-0.8-1.7-1.7-3.3-2.9-4.8c-1.1-1.7-2.3-3.2-3.7-4.6
	c-0.7-0.5-1.4,4.7-1.5,6.2c-0.2,2.4-0.4,5.4-0.4,8.2c0,2.5,0.1,4.9,0.5,7.3c0.5,3,1.2,5.9,2.2,8.8c1,3,2.4,5.8,4,8.5
	c4.2,6.7,9.3,12.8,15,18.3c5.6,5.5,11.4,10.5,17.2,15.9c4.6,4.3,10,7.5,15.2,10.4c2.6,1.5,5.2,2.9,7.7,4.4l1.8,1.2l0.9,0.6l1,0.6
	c1.3,0.9,2.6,1.8,3.8,2.7c5.4,4,10.9,8.1,16.7,11.8c5.8,3.9,12,7.1,18.5,9.7c7,2.7,14.1,5.6,21.5,8c7,2.2,14.2,3.9,21.5,5.1
	c2.9,0.5,5.7,0.9,8.4,1.3c1.3,0.2,2.6,0.5,3.9,0.7c0.3,0,0.6,0.1,0.9,0.1c0.9,0,2.1,0.1,2.8,1c0.2,0.2,0.3,0.5,0.3,0.8
	c0,0.7-0.3,1.4-0.8,1.9c-0.4,0.5-1,0.9-1.6,1.2l-4.8,3.8l-1.4,1.1l-1.3,1l-2.7,2c-3.6,2.6-7.4,5.2-11.4,7.8s-8.1,5.1-12.5,7.8
	s-8.5,5.2-12.6,7.5c-3.5,1.9-7.1,3.5-10.9,4.8c-0.9,0.3-1.8,0.6-2.7,0.8c-0.9,0.3-1.8,0.5-2.7,0.7c-1.8,0.4-3.7,0.9-5.6,1.2
	s-3.8,0.6-5.7,1l-5.8,0.9c-3.9,0.6-7.9,1.2-12.1,2.1c-4.4,0.9-9.7,1.6-15,3.2s-10.5,3.9-14.3,7.9c-1.8,2-2.2,5.3-1.9,8.1
	c-0.2-2.3,2.6-1.3,5.5,0.4s6,4,6.4,4.2c4.9,2.4,10.2,3.2,15.4,4.6c5,1.3,10,2.9,15.1,3.9c5.3,1.2,10.8,1.4,16.2,0.7
	c6.1-0.9,12-2.4,17.8-4.5c3-1,5.8-2.2,8.7-3.5c2.8-1.3,5.4-2.6,8-4c5.1-2.8,9.8-5.6,14.3-8.4l6.9-4.2c2.3-1.4,4.7-2.9,7.1-4.4
	c4.1-2.6,8.2-5.4,12.2-8.4c2-1.5,4-3.1,6-4.7l2.7-2.3l2.9-2.5l1.5-1.3l1-0.9l1.2-1.1c1.6-1.5,3.1-3.1,4.6-4.7
	c2.9-3.1,5.4-6.5,7.5-10.2c4-7.1,5.7-14.8,4.4-22.5c-0.2-1.3-0.5-2.5-0.9-3.8c-0.4-1.2-0.9-2.5-1.4-3.7c-3.4-7.3-9.3-12.8-17.5-16.6
	c-1-0.5-2.1-0.9-3.2-1.3s-2.1-0.9-3.3-1.2l-3.4-1.1c-1.1-0.4-2.2-0.6-3.3-1l-2.8-0.8l-2-0.5C174.5,219.7,173.2,219.4,172,219.1z"/>
<path class="st0" d="M203.9,347.1l-0.5,0.2C203.6,347.3,203.8,347.3,203.9,347.1z"/>
<path class="st0" d="M259.5,325.4v0.4C259.6,325.7,259.6,325.6,259.5,325.4z"/>
<path class="st0" d="M279.3,294.5l0.7,0.3C279.7,294.6,279.5,294.5,279.3,294.5z"/>
<path class="st0" d="M238.9,292.9c-3.1,1.1-6.2,2.3-9.2,3.7c-1.4,0.6-2.7,1.3-3.9,1.9l-3.9,2c-5.3,2.8-10.4,6-15.2,9.6
	c-4.5,3.3-8.4,6.3-12.4,8.5l-1.5,0.8l-1.5,0.6c-0.3,0.1-0.6,0.2-0.9,0.3l-1,0.3c-0.7,0.2-1.4,0.4-2,0.6c-2.8,0.7-5.6,1.3-8.5,1.6
	c-6.2,0.8-12.6,1.3-19.2,2.3c-1.6,0.3-3.3,0.5-5,0.9l-2.5,0.5l-2.4,0.5c-3.1,0.7-6.2,1.5-9.1,2.4c-5.7,1.7-11.5,2.7-17.4,3
	c-2.8,0.1-5.5,0-8.2-0.3c-0.7-0.1-1.3-0.1-2-0.3c-0.7-0.1-1.3-0.2-2-0.4c-1.4-0.3-2.9-0.6-4.3-0.9c-11.2-2.5-23.5-3.4-35.1-8.1
	c-3.1-1.3-6.2-2.7-9.3-4c-2-0.4-4-0.5-6-0.4c-2.1,0-4.1,0.2-6.2,0.6c-0.8,0.3,3.5,3.6,4.7,4.5c3.9,3,9.5,7.3,12.6,9
	c6.2,3.5,9,5.2,15.7,7.8c7,2.6,14,5,21.3,7.2c0.9,0.3,1.8,0.5,2.8,0.8s1.8,0.5,2.8,0.8c2,0.5,4,1,6,1.4c4,0.8,8.1,1.4,12.1,1.9
	c6.6,0.9,13,0.1,19.1-1c3-0.5,6-1.1,8.9-1.5c2.8-0.4,5.5-0.7,8.3-0.7c6.1-0.1,12.5,0.4,19.2,0.5c3.3,0,6.8,0,10.3-0.3l1.3-0.1
	l1.5-0.2c1.1-0.1,2.1-0.3,3.2-0.5c2-0.4,4-0.9,6-1.5c8.2-2.6,15.3-5.6,21.7-8.2c3.2-1.3,6.2-2.5,9-3.5l2.2-0.8l2.6-1
	c1.6-0.7,3.2-1.4,4.6-2c2.9-1.3,5.5-2.5,7.9-3.4c1.9-0.8,3.9-1.4,6-1.8c0.6-0.1,1.3-0.2,1.9-0.2c0.3,0,0.7,0,1,0
	c0.3,0.1,0.5,0.2,0.8,0.3c0.5,0.3,0.9,0.7,1.2,1.2c0.1,0.1,0.3,0.3,0.4,0.5l0.4,0.5l0.4,0.7c0.5,0.8,0.9,1.7,1.2,2.6
	c0.6,1.8,0.8,3.6,0.6,5.5c-0.3,2.9-1,5.8-2.2,8.5c-1.4,3.4-3.1,6.8-5.2,9.9c-4.5,6.9-10,13-16.4,18.2c-5.8,4.5-12.9,7.5-20.8,10.6
	l-6,2.5l-3.1,1.3c-1.4,0.7-2.8,1.4-4.2,2.1c-5,2.7-9.6,6.1-13.7,10c-4.1,3.8-7.9,8-11.3,12.4c-1.5,2.1-2.8,4.3-3.9,6.6
	c-0.5,1.1-0.9,2.3-1.2,3.5c-0.3,1.2-0.6,2.4-0.7,3.7c-0.3,2.4,1.1,5.4,2.7,7.8c-1.3-2,1.4-2.2,4.7-2.4s7.1-0.1,7.6-0.2
	c5.4-1,10-3.8,14.9-5.6c4.3-1.6,8.8-2.9,13.4-3.7c2.1-0.4,4-0.7,5.8-1c0.9-0.1,1.7-0.2,2.6-0.4c1.2-0.3,2.4-0.7,3.6-1.1
	c5.3-1.9,10.4-4.2,15.4-6.7c5.5-2.8,10.7-6,15.6-9.7c2.5-1.9,5-4,7.4-6.1s4.6-4.4,6.7-6.7c4.3-4.6,8.2-9.6,11.7-14.8
	c3.2-4.8,5.9-9.8,8.1-15.1c2.4-5.9,4-12.1,4.6-18.5c1-10.7-1.3-21.4-6.7-30.7c-1.8-3.2-4-6.2-6.5-8.9c-3.5-3.8-7.7-6.9-12.3-9.2
	c-2.4-1.2-4.9-2.1-7.5-2.7c-1.3-0.4-2.6-0.6-3.9-0.8s-2.5-0.3-3.7-0.4c-4.4-0.3-8.9,0-13.2,0.8C246,290.7,242.4,291.7,238.9,292.9z"
	/>
<path class="st0" d="M427.5,367.6l-0.5,0.6C427.2,368,427.4,367.8,427.5,367.6z"/>
<path class="st0" d="M472.1,264.4l0.4,0.3C472.4,264.5,472.3,264.3,472.1,264.4z"/>
<path class="st0" d="M435.7,245.4l-0.1-0.5C435.6,245.1,435.6,245.2,435.7,245.4z"/>
<path class="st0" d="M433,279.5c-2,8-4.5,15.9-7.4,23.7c-1.5,4-3,8-4.8,12c-0.8,2-1.7,4-2.6,6l-0.6,1.5l-0.6,1.4
	c-0.4,1-0.8,1.9-1.3,2.9c-3.5,8-7.9,15.7-12.9,22.9c-5.1,7.4-11.4,13.9-18.5,19.4c-8,6-16.3,11.6-24.8,16.6
	c-8.5,5.1-17.3,9.9-26.2,14.5c-8.9,4.6-18.2,8.4-27.8,11.4c-2.4,0.7-4.8,1.5-7.2,2.1l-3.6,1l-3.6,0.9c-2.4,0.6-5,1.1-7.5,1.7
	L276,419c-4.9,1-9.6,2.2-14.4,3.3l-3.5,0.8l-1.8,0.4c-0.3,0.1-0.5,0.1-0.7,0.1l-0.6,0.1c-2.2,0.3-4.7,0.6-7.2,0.9
	c-10,1.3-20,2-30.1,2c-5.4-0.1-10.8-0.4-16.2-0.5c-3.1,0.3-6.2,0.8-9.3,1.5c-2,0.4-4,0.9-5.6,1.4c-0.8,0.2-1.6,0.4-2.2,0.6
	c-0.5,0.2-1.1,0.3-1.6,0.6c-0.3,0.1,0,0.4,0.7,0.6c0.4,0.1,0.8,0.2,1.3,0.4s1,0.3,1.5,0.4c2.2,0.6,4.7,1.2,5.8,1.4
	c7.2,1.6,18.3,3.8,23.9,4.3c11.5,1.1,16.8,1.6,28.5,1.5c3,0,6-0.1,9.1-0.2l2.3-0.1c0.8,0,1.9-0.1,2.6-0.2l4.6-0.6
	c6.1-0.8,12-1.8,18-2.8l17.9-2.9c6-1.1,12.1-2.1,18.3-3.3c10-2.1,19.8-5.4,29.1-9.7c9.4-4.2,18.6-9.2,27.6-13.8
	c4.9-2.5,9.8-5.1,14.6-7.8c2.4-1.4,4.8-2.7,7.2-4.2l3.6-2.2l3.7-2.4c9.8-6.5,18.6-14.3,26.2-23.3c4-4.8,7.9-9.8,11.5-14.9
	s7-10.5,10.1-15.6c6.1-10.5,11.7-21.6,15.4-33.7c1.9-6,3.3-12.2,4.4-18.4l0.7-4.8l0.3-2.4c0.1-0.8,0.1-1.6,0.2-2.4l0.4-4.8
	c0.1-1.6,0.1-3.3,0.1-4.9c0.1-3.2-0.1-6.5-0.2-9.8c0-1.6-0.3-3.3-0.5-4.9s-0.3-3.3-0.6-4.9l-0.9-4.9l-0.5-2.5l-0.6-2.4l-1.3-4.8
	c-0.2-0.8-0.5-1.5-0.7-2.3l-0.7-2.2c-4.3-13.4-9.7-26.5-16.2-39l-1.5-3c-0.5-1-1.1-1.9-1.6-2.9l-3.3-5.8l-3.5-5.6
	c-0.6-0.9-1.2-1.9-1.8-2.8l-1.8-2.7c-4.8-7.3-10.1-14.2-15.6-20.9s-11.2-13.1-17-19.4l-4.4-4.7l-4.5-4.6c-3-3-6-6-9.1-9
	c-5.6-5.5-11.2-10.8-16.9-16.1c-2.9-2.6-5.7-5.3-8.7-7.8c-1.5-1.3-2.9-2.6-4.4-3.8l-4.5-3.7c-6.1-4.9-12.4-9.6-19-13.8
	c-3.3-2.2-6.7-4.2-10.1-6.2s-7-3.8-10.6-5.5c-7.6-3.6-16.7-7.7-26-10.3c-2.3-0.7-4.6-1.2-6.9-1.7l-1.7-0.3l-0.4-0.1h-0.4h-0.3
	c-0.8-0.1-2-0.3-3.1-0.5c-5-1-10.2-1-15.3-0.1c-0.6,0.1-1.2,0.3-1.8,0.5c-1.4,0.5-2.6,1.5-3.3,2.8c-0.8,1.4-1.1,2.9-0.9,4.5
	c-0.1-1.2,1.2-1.7,3.3-1.3c2.4,0.6,4.6,1.7,6.5,3.3c1.8,1.5,3.5,3.2,5,5c1.3,1.5,2.2,2.7,2.5,2.9s0.8,0.7,1.2,1l1.2,1
	c0.8,0.7,1.6,1.3,2.4,1.9l5,3.6c3.4,2.3,6.7,4.7,9.9,7.2c6.1,4.9,11.4,10.1,16.7,15.2c5.3,5.3,10.9,10.3,16.8,15
	c6.4,5.1,12.8,10.3,18.9,15.5c6.2,5.3,12.2,10.8,18.1,16.4l4.4,4.3l4.4,4.4c2.9,3,5.8,5.9,8.6,8.9c5.6,6,11.1,12.1,16.2,18.5
	c8.7,10.7,16.5,22,23.5,33.8c6.8,11.6,12.2,23.9,16.2,36.8c0.3,0.9,0.6,1.9,0.9,2.8l0.6,2.6l0.6,2.6l0.4,2.6l0.4,2.6l0.2,2.7
	l0.2,2.7v2.7C435.8,264.9,434.8,272.3,433,279.5z"/>
<path class="st0" d="M275.5,97.2L275.5,97.2C275.5,97.1,275.4,97.2,275.5,97.2z"/>
<path class="st0" d="M271.2,104.1l-0.2-0.3C271.1,103.9,271.1,104,271.2,104.1z"/>
<path class="st0" d="M283.3,137.7l-0.2,0.1C283.2,137.8,283.2,137.7,283.3,137.7z"/>
<path class="st0" d="M298.6,129.2c1.7-1.5,3.3-3.3,4.7-5.1c0.4-0.5,0.7-1,1-1.5s0.7-1.1,1-1.6c0.6-1.1,1.2-2.3,1.7-3.5
	c2-4.7,2.8-9.8,2.2-14.8c-0.1-1.3-0.4-2.5-0.7-3.7c-0.3-1.2-0.6-2.3-1.1-3.5c-0.4-1-0.8-2-1.3-2.9c-0.5-0.9-0.9-1.8-1.4-2.6
	c-1.9-3.4-4-6.4-5.5-9.4c-1.6-3.1-3.4-6-5.5-8.9c-1.9-2.6-4.1-5-6.6-7c-4.5-3.6-8.4-7.9-11.7-12.6c-1.8-2.3-4-4.2-6.3-5.9
	c-2.4-1.7-4.5-3.8-6.3-6.2c-0.9-1.4-1.6-2.9-2.5-4.3c-0.4-0.7-4.9-1.8-6.2-1.4c-0.5,0.1-0.3,3.4-0.3,4.3c0.1,2.9,0.5,5.7,1,8.5
	c1,3.4,1.4,4.9,3,7.6s3.3,5.5,4.8,8.5c1.7,3.1,3.1,6.4,4,9.8c0.7,2.5,2,4.8,3.7,6.8c1.6,1.7,2.8,3.8,3.6,5.9c0.6,2.2,1,4.4,1,6.7
	c0,1.7,0.1,3.5,0.4,5.2l0.1,0.6v0.3c0,0.1,0,0.1,0,0.2l0,0.3c0,0.1-0.1,0.2-0.1,0.2c-0.2,0.3-0.4,0.5-0.7,0.7
	c-0.3,0.2-0.6,0.3-0.8,0.4c-0.3,0.1-0.5,0.3-0.6,0.5c-0.7,1.1-1.5,2.1-2.5,3c-1.5,1.3-3.2,2.3-5,3.1c-2.4,1-4.9,1.6-7.4,1.8
	c-0.8,0.1-1.5,0.1-2.1,0.2l-2.3,0.1c-0.9,0.1-1.9,0.1-2.8,0.1s-1.9,0.1-2.9,0.1c-4.1,0.2-8.2,0.1-12.2-0.2
	c-3.7-0.5-7.4-1.5-10.9-2.9c-3.4-1.4-6.9-2.2-10.6-2.4c-2.1-0.2-4.2-0.1-6.3,0.3c-2.2,0.5-4.6,1.9-7.2,4.9c-1.6,2.2-2.8,4.6-3.7,7.1
	c0.8-2.2,1.4-0.7,1.9,1.5c0.5,2.2,1.1,5,1.2,5.3c0.3,0.8,0.7,1.5,1.1,2.2c0.4,0.6,0.8,1.2,1.3,1.8c0.9,1.1,1.9,2.2,2.9,3.4
	c3.6,4.6,7,10.1,11.7,11.8c4.9,1.8,10,2.9,15.3,3.3c5.3,0.5,10.5,0.6,15.8,0.5c2.3,0,4.6-0.1,7.1-0.3l1.9-0.2l0.9-0.1h0.5l0.6-0.1
	c1.6-0.2,3-0.4,4.4-0.7c5.3-1.1,10.4-2.6,15.5-4.5c3.2-1.2,6.4-2.5,9.5-4C292.4,134,295.7,131.8,298.6,129.2z"/>
<path class="st1" d="M125,189.1"/>
</svg>
