<?xml version="1.0" encoding="utf-8"?>
<!-- Generator: Adobe Illustrator 20.1.0, SVG Export Plug-In . SVG Version: 6.00 Build 0)  -->
<svg version="1.1" id="Layer_1" xmlns="http://www.w3.org/2000/svg" xmlns:xlink="http://www.w3.org/1999/xlink" x="0px" y="0px"
	 viewBox="0 0 500 500" style="enable-background:new 0 0 500 500;" xml:space="preserve">
<style type="text/css">
	.st0{fill:#231F20;}
</style>
<g>
	<g>
		<g>
			<g>
				<path class="st0" d="M362.4,319.3l0.1,0.6C362.4,319.6,362.4,319.4,362.4,319.3z"/>
				<path class="st0" d="M416.5,264.7l0.3,0.3C416.6,264.7,416.5,264.7,416.5,264.7z"/>
				<path class="st0" d="M393.6,254.1l-0.3-0.4C393.4,253.9,393.5,254,393.6,254.1z"/>
				<g>
					<path class="st0" d="M397.2,269.6c-2.8,0.7-5.9,0.8-10.3,0.8c-2.1,0-4.5,0.1-7,0.4l-1.9,0.3c-0.6,0.1-1.3,0.3-1.9,0.4
						c-1.3,0.3-2.6,0.7-3.8,1.2c-1.3,0.4-2.5,1.1-3.7,1.6c-1.2,0.6-2.2,1.3-3.4,2c-2.7,1.8-4.8,4-6.3,6.3c-3.1,4.6-4.5,9.2-5.7,13.3
						c-0.6,2.2-1.1,4.2-1.6,6.2l-0.8,3.2c-0.2,0.6-0.3,1.3-0.4,1.9c-0.1,0.6-0.2,1.3-0.3,1.9c-0.3,2.6-0.3,5.1-0.1,7.5
						c0.2,2.4,0.6,4.7,1,6.9c0.4,2.1,0.8,4.1,1.2,6.2c0.2,1,0.4,2,0.5,3c0,0.2,0.1,0.5,0.1,0.7l0.1,0.6l0.1,0.6l0,0.6
						c0.1,3.1-1.2,6.7-2.6,11c-0.7,2.3-1.4,4.8-1.7,7.6c-0.3,2.8,0,5.7,0.8,8.4c0.8,2.8,2.2,5.3,3.7,7.5c1.6,2.2,3.3,3.9,5,5.6
						c1.6,1.6,3.2,3.1,4.5,4.6c1.3,1.5,2.4,3,3.2,4.5c1.6,3,2.1,7,2.1,11.2c0.1,4.3-0.3,8.4-1.6,12c-0.6,1.8-1.6,3.5-2.6,5
						c-1.1,1.6-2.5,3-3.9,4.2c-1.5,1.3-3.2,2.4-4.9,3.4c-1.8,1-3.6,1.9-5.6,2.6c-1.9,0.7-4,1.4-6,1.9c-2,0.5-4.2,0.9-6.4,1.3
						c-8.4,1.5-17.2,2.4-26.1,5.1c-8.9,2.8-16.8,7.5-24.2,12.7c-3.9,2.8-7.7,5.7-11.3,8.9c-0.9,0.8-3.3,3.3-5.6,6
						c-2.3,2.6-4.5,5.3-5.1,6.3c-0.6,0.9,4.8-3.3,6.4-4.5c4.9-3.8,12.6-9.5,16.7-12.1c4.1-2.7,7.2-4.5,10.3-6.2
						c3.2-1.6,6.4-3.1,11.1-4.7c9.6-3.2,19.9-3.5,30.3-5.2c5.2-0.8,10.5-2.1,15.6-4.3c5.1-2.1,10-5.1,14.1-9.6
						c1.7-1.8,3-3.9,4.2-6.1c1.1-2.2,1.9-4.6,2.5-7c0.6-2.4,0.9-4.7,1-7.1c0.1-2.3,0.2-4.6,0-7c-0.1-2.4-0.5-4.9-1.2-7.4
						c-0.4-1.3-0.8-2.5-1.4-3.8c-0.3-0.6-0.6-1.2-1-1.8c-0.3-0.6-0.7-1.1-1-1.6c-2.9-4.3-6.4-7.2-8.9-10.1c-1.4-1.6-2.5-3.1-3.2-4.6
						c-0.7-1.5-1.2-3-1.3-4.6c-0.1-1.5,0.1-3.1,0.6-4.9c0.5-1.8,1.2-3.7,2.1-5.9c0.8-2.2,1.7-4.6,2.3-7.4c0.3-1.4,0.5-2.9,0.5-4.4
						c0-0.8,0-1.6,0-2.3c0-0.4,0-0.7-0.1-1l-0.1-0.9c-0.5-4.9-1.4-9.4-1.6-13.3c-0.1-2.1,0-4,0.3-5.9c0.1-0.5,0.2-0.9,0.3-1.4
						c0.1-0.5,0.2-0.9,0.4-1.4l0.2-0.7l0.3-0.9l0.6-1.8c1.6-4.7,3-9.1,4.9-12.4c0.9-1.6,2-2.9,3-3.7c0.3-0.2,0.5-0.3,0.8-0.5
						l1.2-0.6c0.8-0.5,1.7-0.7,2.5-1.1c1.7-0.6,3.4-1,5.3-1.2c2-0.2,4.2-0.2,6.7-0.2c2,0,4.3-0.1,6.6-0.3c2.4-0.3,4.8-0.7,7.2-1.5
						c0.6-0.2,1.2-0.4,1.8-0.6l1.7-0.8c0.6-0.3,1.2-0.5,1.7-0.8l1.7-1c3.2-1.8,6-4.3,7.2-7.6c0.9-2.4,0.9-5,0.2-7.5
						c-0.3-1.2-0.8-2.4-1.4-3.6c-0.3-0.6-0.6-1.2-1-1.7l-0.7-1.1l-4.7-7.2c-3.2-4.8-6.4-9.6-9.6-14.4c-3.2-4.7-6.5-9.4-9.9-14
						c-1.7-2.3-3.4-4.6-5.2-6.9l-2.6-3.4c-1-1.3-1.4-1.8-2-2.8c-1.5-2.5-2.9-5.5-4.2-8.6c-1.3-3.1-2.5-6.3-3.6-9.5
						c-0.3-0.8-0.5-1.6-0.8-2.4l-0.4-1.2l-0.2-0.6c-0.1-0.2-0.1-0.4-0.1-0.5c-0.3-1.1-0.5-2.2-0.5-3.6c-0.1-2.6,0.5-5.7,1.1-9.1
						c1.2-6.6,3.2-13,5.5-19.6c2.3-6.7,4.8-13.5,6.7-21c0.9-3.3,1.5-6.8,2-10.3c0.4-3.5,0.7-7.1,0.6-10.6l-0.1-2.7
						c0-0.9-0.1-1.8-0.2-2.8c-0.1-0.9-0.2-1.8-0.4-2.7c-0.1-0.9-0.3-1.8-0.5-2.7c-0.7-3.6-1.8-7-3.1-10.3c-2.6-6.6-6-12.7-10-18.3
						c-3.9-5.6-8.4-10.8-13.2-15.6c-5.1-5.1-11.3-10.7-17.9-15.4c-6.5-4.8-13.3-8.6-19-10.7c-2.8-1-4.2-0.4-4.8,0.6
						c0.5-0.8,3.4,1.7,6.2,4.6c2.8,2.9,5.4,6.1,5.8,6.5c4.6,4.8,9.9,9.8,14.4,15c4.4,5.1,8.1,10.1,11.6,15.4
						c3.5,5.2,6.7,10.6,9.8,16.4c3.2,6.1,5.5,12.5,6.2,18.7l0.2,2.3l0.1,2.5c0,0.4,0,0.8,0,1.2l0,1.2c0,0.8,0,1.6-0.1,2.5
						c-0.3,3.3-0.7,6.6-1.5,9.9c-1.5,6.7-3.9,13.4-6.4,20.6c-2.5,7.1-4.9,14.8-6.4,22.7c-0.6,3.2-1.3,6.8-1.4,10.9
						c0,2,0.1,4.2,0.5,6.3c0.2,1,0.6,2.3,0.8,3c0.2,0.8,0.5,1.6,0.8,2.5c2.1,6.5,4.5,12.6,7.7,18.9c0.8,1.6,1.7,3.2,2.8,4.8
						c0.5,0.8,1.3,1.8,1.8,2.5l1.5,1.8c1.9,2.5,3.9,4.9,5.7,7.5c3.8,5,7.4,10.2,10.9,15.4c3.1,4.5,6.1,9.2,9.1,13.9
						c1.5,2.4,3,4.8,4.5,7.2c0.2,0.3,0.4,0.7,0.4,0.7c0,0,0,0,0,0c0,0,0,0,0,0.1c0,0,0,0.1-0.1,0.1c0,0,0,0-0.1,0l0,0c0,0,0,0,0,0
						c0,0,0,0-0.2,0.1C400,268.7,398.6,269.2,397.2,269.6z"/>
				</g>
			</g>
		</g>
	</g>
	<g>
		<g>
			<g>
				<path class="st0" d="M144.3,308.8l0.1,0.5C144.3,309.1,144.3,308.9,144.3,308.8z"/>
				<path class="st0" d="M166.6,242.4l0.2,0.1C166.7,242.4,166.7,242.4,166.6,242.4z"/>
				<path class="st0" d="M147.3,234.4l-0.2-0.3C147.2,234.3,147.2,234.4,147.3,234.4z"/>
				<g>
					<path class="st0" d="M154.4,256.9c-0.6,1.9-1.4,3.5-3.2,5.4c-1.7,1.9-4.1,3.9-6.8,6.4c-2.7,2.4-5.6,5.4-8,9.1
						c-0.6,0.9-1.1,1.9-1.6,2.9l-0.4,0.7c-0.1,0.2-0.2,0.5-0.3,0.7l-0.6,1.5L133,285c-0.2,0.5-0.4,1-0.5,1.5l-0.8,3
						c-0.8,4.1-1.1,8.3-0.7,12.1c0.3,3.8,0.9,7.5,1.5,11c0.6,3.5,1.3,6.8,1.6,10.1c0.2,1.7,0.3,3.2,0.4,4.8c0,1.6,0,3.2-0.2,4.7
						c-0.1,1.7-0.6,3.2-0.9,4.8l-0.8,2.3l-0.2,0.6l-0.1,0.3l-0.2,0.4c-0.2,0.6-0.4,1.2-0.6,1.8c-0.6,2.4-0.7,4.7-0.7,6.6l0,2.7
						l0,1.8c0,0.6,0.1,1.1,0.2,1.7c0.3,2.2,0.8,4.3,1.4,6.2c0.6,1.9,1.3,3.8,2,5.6c1.5,3.6,3.1,6.9,4.5,10.2
						c0.7,1.6,1.4,3.3,1.9,4.8c0.4,1.3,0.5,2.6,0.4,4c-0.1,1.4-0.5,2.8-1.1,4.3c-0.6,1.4-1.4,2.9-2.3,4.3c-0.9,1.4-1.9,2.8-3,4.2
						c-0.5,0.7-1.1,1.4-1.7,2.1c-0.6,0.7-1.2,1.3-1.7,1.9c-2.3,2.5-5,4.6-7.9,6.7c-2.8,2-5.9,4-8.8,6.4c-3,2.3-5.9,5-8.3,8.1
						c-0.6,0.8-1.2,1.6-1.8,2.4c-0.6,0.8-1,1.7-1.6,2.5c-1,1.7-1.8,3.3-2.6,5c-1.6,3.4-3.1,6.7-4.6,10.1c-1.6,3.5-3.1,7-4.7,10.6
						c-0.4,0.9-1.2,3.5-2.1,6.2c-0.8,2.7-1.8,5.3-2,6.2c-0.1,0.4,0.7-0.5,1.5-1.7c0.9-1.2,1.9-2.7,2.3-3.4
						c2.8-4.3,6.5-11.3,8.3-14.9c1.8-3.6,3.2-6.3,4.6-8.9c0.7-1.3,1.5-2.6,2.3-4c0.4-0.7,0.9-1.4,1.3-2.2c0.5-0.7,1-1.5,1.6-2.3
						c2.4-3.2,5.5-5.9,8.8-8.3c3.4-2.4,7-4.6,10.6-7.1c1.8-1.2,3.6-2.6,5.3-4c0.8-0.8,1.7-1.5,2.5-2.3c0.8-0.8,1.7-1.6,2.4-2.4
						c2.9-3.2,6-6.5,8.4-10.8c1-1.7,1.8-3.7,2.3-5.8c0.5-2.1,0.7-4.5,0.4-6.8c-0.1-0.6-0.2-1.1-0.3-1.7c-0.1-0.3-0.1-0.6-0.2-0.8
						l-0.2-0.7c-0.3-1-0.6-1.9-0.9-2.8c-0.6-1.8-1.3-3.5-2-5.1c-1.4-3.3-2.7-6.5-3.8-9.6c-0.5-1.6-1-3.1-1.3-4.6
						c-0.2-0.8-0.3-1.4-0.4-2.2c0-0.7-0.1-1.4-0.1-1.9l0-0.5l0.1-0.8l0.1-1.5c0.1-0.9,0.1-1.8,0.2-2.6c0.1-0.8,0.2-1.4,0.4-2
						c0.1-0.3,0.2-0.6,0.3-0.8c0-0.1,0.1-0.3,0.2-0.4l0-0.1l0.1-0.2l0.2-0.4c1.8-4,2.8-8.4,3.2-12.6c0.8-8.6-0.5-16.5-1.1-23.6
						c-0.3-3.8-0.4-7.4,0.1-10.7c0.3-1.6,0.6-3.2,1.2-4.7l0.4-1.1l0.5-1.1l0.5-1.1l0.2-0.5l0.3-0.5l0.6-0.9l0.7-0.9
						c0.4-0.6,1-1.2,1.5-1.8c1.1-1.2,2.4-2.3,3.8-3.5c1.4-1.2,3-2.5,4.7-3.9c0.8-0.7,1.7-1.5,2.5-2.3c0.8-0.9,1.7-1.7,2.5-2.8
						c1.6-1.9,3.1-4.2,4.2-6.8l0.8-1.9c0.2-0.6,0.4-1.3,0.6-2c0.2-0.7,0.4-1.3,0.4-2.1c0.1-0.8,0.2-1.7,0.2-2.4c0.1-3-0.4-5.4-1-7.7
						c-0.5-2.3-1.3-4.4-2-6.5c-1.6-4.1-3.4-8-5.5-11.7c-1-1.9-2.1-3.7-3.4-5.6l-0.8-1.2c-0.2-0.3-0.5-0.7-0.7-1.1
						c-0.5-0.7-0.9-1.6-1.4-2.4c-2.1-3.8-4.1-8-6.2-12.3c-1.1-2.1-2.2-4.3-3.4-6.5l-1.8-3.1c-0.5-0.8-0.9-1.7-1.3-2.6
						c-2.1-4.5-3.3-9.6-4.1-14.9c-0.8-5.4-1.1-10.9-1.2-16.6c-0.2-11.4,0.4-23.2-0.1-35.5c-0.1-2.8-0.3-5.6-0.6-8.5
						c-0.3-2.6-0.6-5.2-0.8-7.9c-0.5-5.2-1-10.5-1.7-15.8c-0.3-2.7-0.7-5.3-1.1-8c-0.5-2.7-0.9-5.4-1.5-8.1
						c-1.1-5.4-2.8-10.9-4.9-16.2c-0.6-1.4-1.2-2.9-1.9-4.4c-0.7-1.5-1.5-3-2.3-4.6c-0.8-1.5-1.8-3-2.7-4.5
						c-0.4-0.8-0.9-1.5-1.5-2.2c-0.5-0.7-1-1.4-1.6-2.1c-4.2-5.6-9.2-10.2-13.8-12.6c-2.2-1.2-3.6-0.8-4.4,0.1
						c0.6-0.7,2.5,2,4.3,4.8c0.8,1.5,1.5,3,2.1,4.2c0.3,0.6,0.5,1.1,0.7,1.5c0.2,0.4,0.3,0.7,0.3,0.8c2.5,4.9,5.2,10.1,7,15.4
						c0.4,1.3,0.8,2.6,1.2,3.8c0.4,1.3,0.6,2.6,0.9,3.8l0.4,1.9l0.3,1.9c0.2,1.3,0.5,2.5,0.6,3.8c0.8,5.1,1.3,10.3,2.1,16
						c0.8,5.9,1.5,12,2.2,18.1l1.1,9.2c0.4,3.2,0.7,5.8,0.9,8.7c0.3,5.8,0.3,11.8,0.2,17.9c-0.1,6.1-0.2,12.4-0.1,18.8
						c0.1,5.4,0.4,11,1.1,16.6c0.8,5.6,2,11.4,4.2,17.1c1.1,2.8,2.5,5.7,4.2,8.3l0.9,1.5c0.3,0.5,0.6,1,0.9,1.5
						c0.6,1.1,1.2,2.1,1.8,3.3c2.3,4.5,4.6,9.3,7.3,14.3c0.8,1.5,1.7,3,2.7,4.6l0.6,1c0.2,0.3,0.4,0.6,0.5,0.9
						c0.4,0.6,0.7,1.2,1.1,1.9c1.4,2.5,2.7,5.2,3.8,7.9c1.1,2.7,2.1,5.4,2.7,8c0.1,0.6,0.3,1.3,0.4,1.8c0,0.3,0.1,0.6,0.1,0.9
						l0.1,0.8c0,0.3,0,0.5,0,0.7l0,0.3c0,0.1,0,0.2,0,0.2c0,0.1,0,0.2,0,0.3C154.5,256.4,154.4,256.7,154.4,256.9z"/>
				</g>
			</g>
		</g>
	</g>
	<g>
		<g>
			<g>
				<path class="st0" d="M259.6,312.9l0,0.6C259.6,313.2,259.6,313.1,259.6,312.9z"/>
				<path class="st0" d="M289.9,248l0.2,0.1C290,247.9,289.9,248,289.9,248z"/>
				<path class="st0" d="M269.4,239.5l-0.2-0.4C269.3,239.3,269.4,239.4,269.4,239.5z"/>
				<g>
					<path class="st0" d="M279.8,261.1C279.8,261.1,279.8,261.1,279.8,261.1C279.8,261.1,279.8,261.1,279.8,261.1L279.8,261.1
						l-0.2,0.1l-0.2,0.2l-0.5,0.3c-1.3,0.8-2.8,1.7-4,2.2c-0.3,0.1-0.2,0.1-0.2,0.1l-1.2,0.3l-2.7,0.8c-1,0.3-2.2,0.7-3.7,1.4
						c-1.5,0.7-2.9,1.7-4,2.6c-2,1.8-3.3,3.2-4.6,4.7c-1.4,1.6-2.7,3.2-4,5.1c-2.5,3.6-4.5,7.7-5.7,11.9c-1.3,4.4-1.6,8.8-1.7,12.8
						c-0.1,4.1,0.1,7.9,0.2,11.6c0.1,1.9,0.1,3.7,0.1,5.5l0,2.7c-0.1,0.8-0.1,1.6-0.2,2.4c-0.3,3.3-1.3,6.7-2.5,10.2
						c-1.2,3.8-2.7,7.8-3.6,12.1c-0.5,2.2-0.8,4.4-0.9,6.9c0,2.4,0.2,4.8,0.7,7c0.9,4.5,2.5,8.4,3.7,12c1.2,3.6,2.1,7.1,2.1,10.4
						c0,3.4-0.9,6.9-2.3,10.2c-1.4,3.4-3.4,6.7-5.6,9.6c-2.2,3-4.8,5.6-7.7,7.9c-2.9,2.3-6,4-9.5,5.4c-6.7,2.7-14.5,4.1-22.2,7.4
						c-4.1,1.7-7.6,4.2-10.7,7c-3.1,2.8-5.9,5.9-8.4,9.1c-2.7,3.4-5.1,6.9-7.5,10.4c-0.6,0.8-2,3.6-3.5,6.2c-1.5,2.6-3,5.2-3.4,6.1
						c-0.2,0.4,0.8-0.4,2-1.5c1.2-1.1,2.5-2.5,3.1-3.1c3.7-4.1,9-10.9,11.8-14.1c2.8-3.4,5.1-5.6,7.5-7.7c2.4-2,4.9-4,8.7-5.9
						c1-0.5,2-0.9,3-1.3c1.1-0.4,2.1-0.7,3.2-1.1c2.2-0.6,4.4-1.2,6.6-1.8c4.5-1.1,9.1-2.2,13.7-4c4.6-1.8,8.9-4.4,12.7-7.5
						c3.8-3.1,7.2-6.8,10.1-10.9c2.4-3.3,4.4-6.9,5.8-10.9c0.7-2,1.3-4.2,1.6-6.4c0.3-2.2,0.4-4.6,0.1-6.9c-0.2-2.2-0.7-4.4-1.2-6.4
						c-0.5-2-1.2-4-1.8-5.8c-1.2-3.7-2.3-7-2.5-10.1c-0.1-1.7,0-3.2,0.2-4.9c0.3-1.7,0.8-3.5,1.3-5.2c1.1-3.5,2.7-7.2,4.2-11.3
						c0.7-2,1.4-4.2,2-6.4l0.4-1.7l0.3-1.8c0.1-0.6,0.2-1.2,0.3-1.8l0.1-0.9l0.1-0.8c0.4-4.3,0.5-8.6,0.6-12.6
						c0.1-4.3,0.3-8.4,1.1-12c0.7-3.6,2.1-6.8,4.1-9.7c0.3-0.4,0.5-0.7,0.8-1.1l0.9-1.1c0.3-0.4,0.6-0.7,0.9-1.1l1-1l1-1l1.1-1.1
						c0.7-0.7,1.4-1.4,2-1.8c0.3-0.2,0.5-0.4,0.7-0.5c0.2-0.1,0.3-0.2,0.4-0.2c0.3-0.1,1.1-0.4,2-0.7l3.2-0.9c0.2,0,0.8-0.2,1.3-0.4
						c0.5-0.2,0.9-0.4,1.3-0.5l1-0.5l0.9-0.4c1.1-0.6,2.1-1.2,3.2-1.8l1.5-1l1-0.7l1.2-0.9c1.6-1.2,3.2-2.5,4.3-4
						c0.6-0.7,0.9-1.6,1.3-2.4c0.2-0.4,0.4-0.8,0.4-1.3l0.1-1.3c0.1-1.8-0.6-3.7-1.3-5.5c-0.4-0.9-0.8-1.9-1.2-2.8l-0.8-1.6
						c-1-2-2-4-3-6c-1-2-2-3.9-3.1-5.8l-1.6-3l-1.5-2.8c-2.1-3.7-4-7.5-5.9-11.3c-4.3-8.8-8-17.9-10.5-27.1
						c-1.6-5.8-2.8-11.7-3.4-17.6c-0.1-1.5-0.3-3-0.4-4.4c-0.1-1.5-0.1-3-0.2-4.4l0-4.4l0.2-4.6c0.3-6.2,0.9-12.5,1.4-18.9
						c0.5-6.5,0.9-13.1,0.5-20c-0.3-6.2-1.1-12.4-2.6-18.5c-0.7-3-1.6-6-2.6-8.9l-1.7-4.4c-0.6-1.5-1.3-2.8-1.9-4.3
						c-2.7-5.6-5.9-10.9-9.6-15.8c-3.7-4.9-7.7-9.4-11.9-13.7c-4.4-4.5-9.7-9.5-14.8-14.1c-5.2-4.6-10.1-8.8-14.5-11.7
						c-2.1-1.4-3.6-1.2-4.5-0.5c0.8-0.6,2.4,2.3,4.1,5.4c1.7,3.1,3.5,6.4,3.7,6.9c3.3,5.1,7.6,10.1,11.5,15c3.7,4.8,7,9.5,10.2,14.2
						c3.1,4.7,6.2,9.5,9.2,14.6c0.8,1.3,1.5,2.7,2.2,4.1c0.7,1.4,1.3,2.8,2,4.1l0.5,1l0.4,1.1l0.8,2.1c0.6,1.4,1,2.9,1.5,4.3
						c1.8,5.8,2.9,11.8,3.3,17.9c0.9,12.2-1.1,25.3-1.9,39.2l-0.2,4.4c0,1.5,0,3.1-0.1,4.6c0,1.6,0.1,3.1,0.1,4.6
						c0,0.8,0.1,1.5,0.1,2.3l0.2,2.3c0.6,6.1,1.7,12.2,3.2,18.1c3.1,11.8,7.6,22.9,12.7,33.5c1.5,3.2,3.1,6.3,4.8,9.5
						c0.8,1.6,1.7,3.1,2.5,4.7c0.7,1.4,1.5,3,2.3,4.5c1.5,3.1,3.1,6.2,4.5,9.3l0.5,1.1C279.7,260.6,279.9,261.2,279.8,261.1
						C279.9,261.1,279.9,261.1,279.8,261.1C279.8,261.1,279.8,261.1,279.8,261.1z"/>
				</g>
			</g>
		</g>
	</g>
</g>
</svg>
