<?xml version="1.0" encoding="utf-8"?>
<!-- Generator: Adobe Illustrator 21.1.0, SVG Export Plug-In . SVG Version: 6.00 Build 0)  -->
<svg version="1.1" id="Layer_1" xmlns="http://www.w3.org/2000/svg" xmlns:xlink="http://www.w3.org/1999/xlink" x="0px" y="0px"
	 viewBox="0 0 90 90" style="enable-background:new 0 0 90 90;" xml:space="preserve">
<g>
	<path d="M72.8,55.7c-1.6,0-3.1,0.2-4.6,0.6L63,42.6h10.3c1.7,0,3,1.4,3,3s-1.4,3-3,3c-0.9,0-1.6,0.7-1.6,1.6c0,0.9,0.7,1.6,1.6,1.6
		c3.5,0,6.3-2.8,6.3-6.3s-2.8-6.3-6.3-6.3H60.6l0,0l0,0h-0.1c-0.1,0-0.1,0-0.2,0c-0.1,0-0.1,0-0.2,0H60l0,0c-0.1,0-0.1,0.1-0.2,0.1
		c0,0-0.1,0-0.1,0.1l-0.1,0.1l-0.1,0.1l-0.1,0.1l-0.1,0.1l-0.1,0.1c0,0,0,0.1-0.1,0.1c0,0,0,0.1-0.1,0.2v0.1v0.1c0,0.1,0,0.1,0,0.2
		l0,0v0.1c0,0.1,0,0.1,0,0.2c0,0.1,0,0.1,0,0.2v0.1l2.5,6.6L35,48.7l-2.7-8.5h5.5c0.9,0,1.6-0.7,1.6-1.6c0-0.9-0.7-1.6-1.6-1.6H25.2
		c-0.9,0-1.6,0.7-1.6,1.6c0,0.9,0.7,1.6,1.6,1.6h3.6l3,9.6l-5.8,8c-2.6-1.5-5.6-2.4-8.8-2.4C7.7,55.4,0,63.1,0,72.6
		s7.7,17.2,17.2,17.2c8.9,0,16.3-6.9,17.1-15.6H36c0.3,1,0.9,1.8,1.7,2.4l-0.9,3.2c-0.3,0.9,0.2,1.8,1.1,2c0.2,0,0.3,0.1,0.5,0.1
		c0.7,0,1.3-0.5,1.6-1.2l0.9-3.2c2.5-0.2,4.5-2.2,4.5-4.7c0-0.7-0.1-1.3-0.4-1.9l18.2-18.7l2,5.2c-5.7,2.8-9.6,8.7-9.6,15.4
		c0,9.5,7.7,17.2,17.2,17.2S90,82.4,90,72.9S82.3,55.7,72.8,55.7z M33.1,53.6l4.8,15.3c-0.8,0.5-1.4,1.2-1.8,2.1h-1.8
		c-0.4-4.5-2.6-8.4-5.7-11.2L33.1,53.6z M31.1,71H20.4l6.3-8.6C29.1,64.6,30.7,67.6,31.1,71z M17.2,86.6c-7.7,0-14-6.3-14-14
		s6.3-14,14-14c2.5,0,4.8,0.7,6.8,1.8l-8.2,11.2c-0.4,0.5-0.4,1.2-0.1,1.7c0.3,0.5,0.8,0.9,1.5,0.9h13.9
		C30.3,81.2,24.4,86.6,17.2,86.6z M40.5,74.4c-0.8,0-1.5-0.7-1.5-1.5s0.7-1.5,1.5-1.5s1.5,0.7,1.5,1.5S41.4,74.4,40.5,74.4z
		 M43.9,67.4l0.4-1.5c0.3-0.9-0.2-1.8-1.1-2c-0.9-0.3-1.8,0.2-2,1.1l-0.5,1.8L36,51.9l23.3-0.4L43.9,67.4z M72.8,86.9
		c-7.7,0-14-6.3-14-14c0-5.4,3-10,7.5-12.4l5,12.9c0.2,0.6,0.9,1,1.5,1c0.2,0,0.4,0,0.6-0.1c0.8-0.3,1.3-1.3,0.9-2.1l-5-12.9
		c1.1-0.3,2.3-0.4,3.4-0.4c7.7,0,14,6.3,14,14S80.5,86.9,72.8,86.9z"/>
</g>
</svg>
