<?xml version="1.0" encoding="utf-8"?>
<!-- Generator: Adobe Illustrator 21.1.0, SVG Export Plug-In . SVG Version: 6.00 Build 0)  -->
<svg version="1.1" id="Layer_1" xmlns="http://www.w3.org/2000/svg" xmlns:xlink="http://www.w3.org/1999/xlink" x="0px" y="0px"
	 viewBox="0 0 95.1 95.1" style="enable-background:new 0 0 95.1 95.1;" xml:space="preserve">
<path class="st0" d="M14.2,15.6l13.4,3.8l13.3,3.5c0.1,0,0.2,0,0.2,0c0.6,0,1.1-0.5,1.2-1.3c0.1-0.9-0.3-1.8-1-2L28,16l-13.3-3.8
	c-0.7-0.1-1.3,0.4-1.5,1.3C13.1,14.6,13.4,15.4,14.2,15.6z"/>
<path class="st0" d="M14.2,23l13.4,3.8l13.3,3.5c0.1,0,0.2,0,0.2,0c0.6,0,1.1-0.5,1.2-1.3c0.1-0.9-0.3-1.8-1-2l-13.3-3.5l-13.3-3.8
	c-0.7-0.1-1.3,0.4-1.5,1.3C13.1,22,13.4,22.8,14.2,23z"/>
<path class="st0" d="M14.2,30.4l13.4,3.8l13.3,3.5c0.1,0,0.2,0,0.2,0c0.6,0,1.1-0.5,1.2-1.3c0.1-0.9-0.3-1.8-1-2L28,31l-13.3-3.8
	c-0.7-0.1-1.3,0.4-1.5,1.3C13.1,29.3,13.4,30.3,14.2,30.4z"/>
<path class="st0" d="M14.2,37.8l13.4,3.7L40.8,45c0.1,0,0.2,0,0.2,0c0.6,0,1.1-0.5,1.2-1.3c0.1-0.9-0.3-1.8-1-2L28,38.2l-13.3-3.8
	c-0.7-0.1-1.3,0.4-1.5,1.3C13.1,36.8,13.4,37.6,14.2,37.8z"/>
<path class="st0" d="M14.2,45.3L27.5,49l13.3,3.5c0.1,0,0.2,0,0.2,0c0.6,0,1.1-0.5,1.2-1.3c0.1-0.9-0.3-1.8-1-2L28,45.8L14.7,42
	c-0.7-0.1-1.3,0.4-1.5,1.3C13.1,44.2,13.4,45,14.2,45.3z"/>
<path class="st0" d="M14.2,52.6l13.4,3.8L40.8,60c0.1,0,0.2,0,0.2,0c0.6,0,1.1-0.5,1.2-1.3c0.1-0.9-0.3-1.8-1-2L28,53.2l-13.3-3.8
	c-0.7-0.1-1.3,0.4-1.5,1.3C13.1,51.6,13.4,52.5,14.2,52.6z"/>
<path class="st0" d="M14.2,60.1L27.5,64l13.3,3.5c0.1,0,0.2,0,0.2,0c0.6,0,1.1-0.5,1.2-1.3c0.1-0.9-0.3-1.8-1-2l-13.3-3.6l-13.3-3.8
	c-0.7-0.1-1.3,0.4-1.5,1.3C13.1,59.1,13.4,60,14.2,60.1z"/>
<path class="st1" d="M94.8,11.9c-1.6-0.1-3.3-0.1-4.9-0.1V1.4c0-0.5-0.2-0.9-0.5-1.3c-0.3-0.3-0.7-0.4-1-0.4L48,10.8L7.8-0.3
	c-0.4-0.1-0.7,0-1,0.4C6.5,0.2,6.2,0.8,6.2,1.3v10.3c-1.6,0-3.2,0.1-4.8,0.1c-0.4,0-0.8,0.5-0.8,1.1L0.6,85.4c0,0.3,0.1,0.5,0.3,0.8
	s0.4,0.3,0.6,0.3c15.4-0.9,30.5,1.8,45,7.7l1.3,0.5c0,0,0.1,0,0.2,0c0.1,0,0.2,0,0.2,0l1.3-0.5c14.5-5.9,29.6-8.5,45-7.6
	c0.2,0,0.4-0.1,0.6-0.3c0.2-0.1,0.3-0.5,0.3-0.8l0.1-72.6C95.6,12.2,95.2,11.9,94.8,11.9z M46.8,84.6L8.7,74.1L8.8,3.3l38.1,10.5
	L46.8,84.6z M87.2,74.1L49.1,84.6l0.1-70.7L87.4,3.3L87.2,74.1z"/>
<path class="st0" d="M55,22.8c0.1,0,0.2,0,0.2,0l13.4-3.5l13.3-3.6c0.7-0.1,1.1-1.1,1-2s-0.8-1.5-1.5-1.3L68.1,16l-13.3,3.5
	c-0.7,0.1-1.1,1.1-1,2C53.8,22.3,54.3,22.8,55,22.8z"/>
<path class="st0" d="M55,30.3c0.1,0,0.2,0,0.2,0l13.4-3.5l13.3-3.6c0.7-0.1,1.1-1.1,1-2s-0.8-1.5-1.5-1.3l-13.3,3.6L54.8,27
	c-0.7,0.1-1.1,1.1-1,2C53.8,29.8,54.3,30.3,55,30.3z"/>
<path class="st0" d="M55,37.8c0.1,0,0.2,0,0.2,0l13.4-3.5l13.3-3.7c0.7-0.1,1.1-1.1,1-2s-0.8-1.5-1.5-1.3l-13.3,3.6l-13.3,3.5
	c-0.7,0.1-1.1,1.1-1,2C53.8,37.2,54.3,37.8,55,37.8z"/>
<path class="st0" d="M55,45.1c0.1,0,0.2,0,0.2,0l13.4-3.6L81.9,38c0.7-0.1,1.1-1.1,1-2s-0.8-1.5-1.5-1.3l-13.3,3.6l-13.3,3.5
	c-0.7,0.1-1.1,1.1-1,2C53.8,44.5,54.3,45.1,55,45.1z"/>
<path class="st0" d="M55,52.6c0.1,0,0.2,0,0.2,0L68.6,49l13.3-3.6c0.7-0.1,1.1-1.1,1-2s-0.8-1.5-1.5-1.3l-13.3,3.6l-13.3,3.5
	c-0.7,0.1-1.1,1.1-1,2C53.8,52,54.3,52.6,55,52.6z"/>
<path class="st0" d="M55,60c0.1,0,0.2,0,0.2,0l13.4-3.5l13.3-3.6c0.7-0.1,1.1-1.1,1-2s-0.8-1.5-1.5-1.3l-13.3,3.6l-13.3,3.4
	c-0.7,0.1-1.1,1.1-1,2S54.3,60,55,60z"/>
<path class="st0" d="M55,67.5c0.1,0,0.2,0,0.2,0L68.6,64l13.3-3.6c0.7-0.1,1.1-1.1,1-2s-0.8-1.5-1.5-1.3l-13.3,3.5l-13.3,3.5
	c-0.7,0.1-1.1,1.1-1,2S54.3,67.5,55,67.5z"/>
<path class="st0" d="M14.2,68.4l13.4,3.7l13.3,3.5c0.1,0,0.2,0,0.2,0c0.6,0,1.1-0.5,1.2-1.3c0.1-0.9-0.3-1.8-1-2L28,68.8l-13.3-3.8
	c-0.7-0.1-1.3,0.4-1.5,1.3C13.1,67.2,13.4,68.1,14.2,68.4z"/>
<path class="st0" d="M55,75.7c0.1,0,0.2,0,0.2,0l13.3-3.6l13.3-3.6c0.7-0.1,1.1-1.1,1-2s-0.8-1.5-1.5-1.3l-13.3,3.6l-13.3,3.5
	c-0.7,0.1-1.1,1.1-1,2C53.8,75.1,54.3,75.7,55,75.7z"/>
</svg>
