<?xml version="1.0" encoding="utf-8"?>
<!-- Generator: Adobe Illustrator 19.1.0, SVG Export Plug-In . SVG Version: 6.00 Build 0)  -->
<svg version="1.1" id="Layer_1" xmlns="http://www.w3.org/2000/svg" xmlns:xlink="http://www.w3.org/1999/xlink" x="0px" y="0px"
	 viewBox="-509.5 688.4 94.1 94.1" style="enable-background:new -509.5 688.4 94.1 94.1;" xml:space="preserve">
<style type="text/css">
	.st0{fill:#FFFFFF;stroke:#FFFFFF;stroke-miterlimit:10;}
</style>
<path class="st0" d="M-433,777c1.3-0.3,2-0.6,2-0.9c0-1.3-10.4-2.3-23.3-2.3c-1.9,0-3.8,0-5.6,0.1v-9.5l1.2,1.7l-0.2-2.7l3,2.7
	l0.8-2.7l5.2,2.7v-2.3l6.3,2.3c0,0-0.7-2.1-1.6-3c2.3,0.9,9,3,9,3l-5.1-3.8h5.1c-3.4-2.6-6.5-6.1-9.3-10c2.5,0.9,5.7,1.9,5.7,1.9
	l-4.5-3.3h4.5c-2.4-1.9-4.7-4.2-6.7-6.9c2.1,0.7,4.4,1.4,4.4,1.4l-4-3h4c-3.9-3-7.3-7.5-10.2-12.4h0.1c0,0-0.4-1.2-0.9-1.7
	c1.3,0.5,5.1,1.7,5.1,1.7l-2.9-2.2h2.9c-2.7-2.1-5-5.1-7.1-8.4l0.9,0.3c0,0-0.3-1-0.7-1.4c1.1,0.4,4.2,1.4,4.2,1.4l-2.4-1.8h2.4
	c-3.4-2.6-6.2-7.1-8.3-11.6l1.5,0.6c0,0-0.2-0.6-0.5-0.9c0.7,0.3,2.7,0.9,2.7,0.9l-1.6-1.2h1.6c-5.3-4.1-8.3-15.4-8.3-15.4
	s-3,11.3-8.3,15.4h1.6l-1.6,1.2c0,0,2-0.6,2.7-0.9c-0.3,0.3-0.5,0.9-0.5,0.9l1.5-0.6c-2.1,4.4-4.9,8.9-8.3,11.6h2.4l-2.4,1.8
	c0,0,3.1-1,4.2-1.4c-0.4,0.4-0.7,1.4-0.7,1.4l0.9-0.3c-2,3.3-4.4,6.4-7.1,8.4h2.9l-2.9,2.2c0,0,3.8-1.2,5.1-1.7
	c-0.5,0.5-0.9,1.7-0.9,1.7h0.1c-2.9,4.9-6.3,9.4-10.2,12.4h4l-4,3c0,0,2.3-0.7,4.4-1.4c-2.1,2.7-4.3,5.1-6.7,6.9h4.5l-4.5,3.3
	c0,0,3.2-1,5.7-1.9c-2.8,3.9-5.9,7.4-9.3,10h5.1l-5.1,3.8c0,0,6.7-2.1,9-3c-0.9,0.9-1.6,3-1.6,3l6.3-2.3v2.3l5.2-2.7l0.8,2.7l3-2.7
	l-0.2,2.7l1.2-1.7v9.8c-6.2,0.4-10.3,1.1-10.4,1.9c-11.4,0.1-20.3,1.1-20.3,2.3c0,1.3,9.9,2.3,22,2.3c3,0,5.9-0.1,8.5-0.2
	c3.8,0.9,10.8,1.4,18.8,1.4c12.1,0,21.8-1.3,21.8-2.9C-426.8,778.3-429.2,777.6-433,777z"/>
</svg>
