<?xml version="1.0" encoding="utf-8"?>
<!-- Generator: Adobe Illustrator 19.1.0, SVG Export Plug-In . SVG Version: 6.00 Build 0)  -->
<svg version="1.1" id="Layer_1" xmlns="http://www.w3.org/2000/svg" xmlns:xlink="http://www.w3.org/1999/xlink" x="0px" y="0px"
	 viewBox="-268.1 362 70.1 70.1" style="enable-background:new -268.1 362 70.1 70.1;" xml:space="preserve">
<style type="text/css">
	.st0{fill:#FFFFFF;}
</style>
<g>
	<path class="st0" d="M-234,392.8l-16.3,19.9c-0.1,0.1-0.1,0.2-0.1,0.3v18.6c0,0.2,0.2,0.4,0.4,0.4h7.2c0.2,0,0.4-0.2,0.4-0.4v-20.2
		c0-0.2,0.2-0.4,0.4-0.4h16.3c0.2,0,0.4,0.2,0.4,0.4v20.1c0,0.2,0.2,0.4,0.4,0.4h7.2c0.2,0,0.4-0.2,0.4-0.4V413c0-0.1,0-0.2-0.1-0.3
		l-15.9-19.9C-233.5,392.6-233.9,392.6-234,392.8z"/>
	<path class="st0" d="M-254.9,411.2l9.5-11.7c0,0,0.1-0.1,0.1-0.2v-17.2l-11.1-20c-0.1-0.2-0.4-0.2-0.5,0l-11.1,20v0.1v49.5
		c0,0.2,0.1,0.3,0.3,0.3h12.5c0.2,0,0.3-0.1,0.3-0.3v-20.3C-255,411.3-255,411.3-254.9,411.2z M-262.7,387.9c0-3.5,3.1-6.2,6.7-5.9
		c3.2,0.3,5.5,3.1,5.5,6.2v8.8c0,0.2-0.1,0.3-0.3,0.3h-11.7c-0.2,0-0.3-0.1-0.3-0.3v-9.1H-262.7z"/>
	<path class="st0" d="M-209.7,362.4l-10.9,19.6c0,0.1-0.1,0.1-0.1,0.2V401c0,0.1,0,0.2,0.1,0.3l8.1,9.9c0.1,0.1,0.1,0.2,0.1,0.3
		v20.1c0,0.2,0.2,0.4,0.4,0.4h13.5c0.2,0,0.4-0.2,0.4-0.4v-49.4c0-0.1,0-0.1-0.1-0.2l-10.8-19.6
		C-209.1,362.1-209.6,362.1-209.7,362.4z M-203.7,397.2H-215c-0.2,0-0.4-0.2-0.4-0.4v-8.7c0-3.1,2.3-5.9,5.5-6.2
		c3.6-0.3,6.7,2.4,6.7,5.9v8.9C-203.3,397-203.4,397.2-203.7,397.2z"/>
</g>
</svg>
