<?xml version="1.0" encoding="utf-8"?>
<!-- Generator: Adobe Illustrator 16.0.0, SVG Export Plug-In . SVG Version: 6.00 Build 0)  -->
<!DOCTYPE svg PUBLIC "-//W3C//DTD SVG 1.1//EN" "http://www.w3.org/Graphics/SVG/1.1/DTD/svg11.dtd">
<svg version="1.1" xmlns="http://www.w3.org/2000/svg" xmlns:xlink="http://www.w3.org/1999/xlink" x="0px" y="0px" width="500px"
	 height="500px" viewBox="0 0 500 500" enable-background="new 0 0 500 500" xml:space="preserve">
<g id="Layer_1" display="none">
	<g display="inline">
		<g>
			<g>
				<g>
					<path fill="#231F20" d="M268.771,270.089l0.199-0.015C268.881,270.06,268.823,269.995,268.771,270.089z"/>
					<path fill="#231F20" d="M239.961,268.916l0.071-0.392C239.974,268.655,239.96,268.792,239.961,268.916z"/>
					<path fill="#231F20" d="M232.334,303.797l-0.18,0.041C232.239,303.854,232.293,303.833,232.334,303.797z"/>
					<g>
						<path fill="#231F20" d="M244.522,305.879c5.511,0.395,11.065-0.336,16.546-2.271c5.651-1.999,11.188-5.012,16.96-5.521
							c3.041-0.219,6.068-0.295,9.089-0.493c1.506-0.101,3.029-0.226,4.515-0.425c1.438-0.215,2.877-0.494,4.318-0.869
							c2.848-0.756,5.917-1.101,8.886-1.233c1.514-0.082,3.094-0.164,4.648-0.192c1.563-0.03,3.134-0.031,4.726-0.146
							c1.534-0.081,3.047-0.368,4.539-0.743c1.573-0.381,2.736-0.824,4.089-1.253c1.31-0.441,2.645-0.816,4.006-1.022
							c1.352-0.205,2.74-0.32,4.107-0.078c1.464,0.256,2.918,0.746,4.355,1.083c0.367,0.073,1.301-0.395,2.305-1.049
							c0.993-0.646,2.028-1.449,2.382-1.955c0.34-0.46-1.657-2.799-2.271-3.416c-1.907-2.085-5.188-4.547-6.864-5.294
							c-1.701-0.774-2.95-1.245-4.209-1.613c-1.26-0.349-2.521-0.604-4.252-0.679c-0.896-0.037-1.788-0.073-2.679-0.11
							c-0.892-0.034-1.806-0.062-2.604-0.122c-1.65-0.108-3.287-0.237-4.915-0.432c-1.62-0.155-3.269-0.577-4.89-1.01
							c-0.813-0.228-1.622-0.483-2.43-0.773c-0.814-0.295-1.675-0.655-2.511-1.038c-1.361-0.624-2.724-0.975-4.09-1.166
							c-1.411-0.19-2.863-0.22-4.297-0.206c-1.422,0.008-2.918,0.087-4.276,0.045c-1.368-0.038-2.733-0.147-4.089-0.442
							c-2.938-0.637-5.859-1.519-8.766-2.215c-1.454-0.348-2.904-0.649-4.354-0.85c-1.456-0.213-2.955-0.399-4.436-0.391
							c-6.332,0.001-12.588-2.199-18.902-2.052c-3.116,0.073-6.234,0.291-9.356,0.473c-3.12,0.092-6.242,0.124-9.358-0.049
							c-3.637-0.202-7.268-0.553-10.884-1.049c-2.285-0.313-4.573-0.524-6.864-0.675l-3.439-0.188l-3.529-0.145
							c-4.884-0.22-9.676-0.279-14.368-0.589c-2.101-0.14-4.207-0.494-6.248-0.943c-2.028-0.451-4.043-0.989-6.059-1.48
							c-1.969-0.514-3.932-0.982-5.915-1.271c-1.971-0.299-3.887-0.469-5.892-0.299c-2.135,0.192-4.481,0.104-6.949,0.949
							c-2.441,0.812-4.856,2.355-7.209,5.816c-1.136,1.676-1.953,4.835-2.434,7.658c0.399-2.314,1.359-0.892,2.314,1.184
							c0.95,2.074,1.919,4.802,2.07,5.055c1.802,3.107,4.113,4.488,6.271,6.654c2.104,2.104,4.076,4.344,6.167,6.337
							c2.102,1.997,4.249,3.599,6.658,4.285c10.107,2.86,19.898,2.558,29.237,3.171l1.509,0.084l1.601,0.07l3.204,0.118l6.408,0.198
							c4.271,0.136,8.539,0.308,12.799,0.682c2.547,0.226,5.132,0.609,7.74,1.007C239.24,305.414,241.882,305.665,244.522,305.879z"
							/>
					</g>
				</g>
			</g>
		</g>
		<g>
			<g>
				<g>
					<path fill="#231F20" d="M142.99,398.217l-0.072,0.192C142.97,398.332,143.053,398.305,142.99,398.217z"/>
					<path fill="#231F20" d="M154.732,370.632l0.354,0.179C154.979,370.717,154.852,370.665,154.732,370.632z"/>
					<path fill="#231F20" d="M122.806,354.614l-0.007-0.157C122.768,354.522,122.778,354.571,122.806,354.614z"/>
					<g>
						<path fill="#231F20" d="M118.103,363.876c-0.966,2.115-1.594,4.337-2.074,6.653c-0.516,2.309-0.658,4.761-0.725,7.311
							c-0.028,2.636,0.197,5.419,0.086,8.118c-0.042,1.354-0.131,2.694-0.344,3.989c-0.237,1.286-0.583,2.529-1.092,3.698
							c-2.162,4.952-5.011,9.505-6.623,14.875c-1.679,5.396-4.77,9.813-8.098,14.268c-3.168,4.299-3.73,10.374-7.792,14.134
							c-1.09,0.997-2.38,1.847-3.541,2.789c-0.286,0.231-0.491,1.386-0.571,2.628l-0.024,0.469l-0.002,0.059l-0.001,0.029v0.007
							v0.004c12.216,8.068,3.384,2.236,6.11,4.037l-0.003-0.002l-0.027-0.009l-0.213-0.071l-0.421-0.142l-0.208-0.07l-0.103-0.034
							c-0.022-0.014-0.023,0.005-0.062-0.034l-0.125-0.139c-0.327-0.374-0.603-0.781-0.826-1.207
							c-0.223-0.427-0.392-0.872-0.511-1.324c-0.06-0.226-0.107-0.453-0.143-0.681l-0.024-0.171l-0.011-0.085l-0.001-0.011
							c-1.565-3.122-0.434-0.865-0.783-1.562l0,0.003l-0.001,0.005l-0.009,0.039c-0.022,0.107-0.043,0.21-0.063,0.306
							c-0.009,0.051-0.018,0.1-0.027,0.147c-0.002,0.045-0.129,0.15-0.18,0.22c-0.271,0.308-0.46,0.573-0.566,0.774
							c-0.096,0.185,0.166,0.304,0.604,0.405c0.219,0.052,0.482,0.1,0.768,0.15c0.231,0.077,0.333,0.229,0.525,0.34l0.13,0.089
							c0.028,0.037,0.138,0.035,0.049,0.128c-0.046,0.073-0.088,0.149-0.127,0.227l-0.028,0.059l0.072,0.206
							c0.05,0.137,0.105,0.271,0.165,0.403c0.237,0.529,0.548,1.021,0.916,1.456l0.14,0.161l0.072,0.078l0.03,0.011l0.115,0.039
							l0.226,0.076c0.149,0.05,0.292,0.099,0.43,0.145c0.068,0.023,0.136,0.046,0.201,0.067l0.012,0.004l0.006,0.003l0.003,0.001
							c-4.547-2.722-1.26-0.755-2.275-1.362h0.001l0.016-0.002l0.033-0.004l0.063-0.009c0.165-0.022,0.306-0.042,0.413-0.057
							c2.759-0.409,6.639-1.313,8.199-2.092c3.135-1.591,4.576-2.357,6.818-4.679c4.633-4.81,8.733-9.774,15.013-13.644
							c2.523-1.584,4.155-3.824,5.617-6.172c1.426-2.384,2.757-4.811,4.609-6.926c2.03-2.274,4.279-4.449,6.3-6.803
							c2.065-2.315,3.878-4.825,5.154-7.605c0.694-1.467,1.435-2.928,2.267-4.343c0.815-1.427,1.737-2.8,2.573-4.233
							c1.685-2.856,3.397-5.727,4.402-8.909c2.101-6.215,3.255-12.747,5.042-19.07c0.484-1.862,1.001-3.716,1.553-5.563
							c0.3-1.017,0.492-1.589,0.74-2.346c0.227-0.7,0.502-1.463,0.789-2.226c1.424-3.833,2.746-8.257,3.855-13.276
							c1.092-5.041,1.965-10.723,2.144-17.011c0.155-3.768,0.208-7.797-0.075-11.912c-0.218-2.056-0.39-4.158-0.873-6.201
							c-0.22-1.025-0.437-2.069-0.716-3.083l-0.481-1.486l-0.254-0.742l-0.13-0.37c-0.039-0.103,0.005-0.005,0.008-0.003
							l0.036,0.069c0.078-0.046,0.144-0.078,0.201-0.101c0.014-0.008,0.021-0.002,0.031-0.019l0.012-0.017
							c0.004-0.004,0.009,0.003-0.01-0.081l-0.187-0.798c-0.287-1.117-0.685-2.336-1.21-3.499c-0.841-1.878-1.66-4.16-3.251-6.124
							c-0.796-0.982-1.785-1.886-3.063-2.611c-0.649-0.387-1.341-0.655-2.146-0.939c-0.407-0.156-0.808-0.214-1.248-0.307
							c-0.433-0.063-0.915-0.217-1.384-0.194c-0.45,0.053-0.996,0.101-1.604,0.143c-0.756,0.082-1.494,0.161-2.218,0.239
							c-0.4,0.04-0.795,0.079-1.188,0.118l-0.286,0.026l-0.071,0.007c-0.652,0.074,5.637-0.644,2.974-0.339l-0.001,0.002
							l-0.003,0.004l-0.007,0.008l-0.027,0.032l-0.109,0.122c-0.298,0.319-0.634,0.569-0.987,0.758
							c-1.435,0.753-3.022,0.534-4.419,0.295c0.574,0.107,0.983,0.043,1.188-0.238c0.103-0.125,0.142-0.346,0.125-0.493
							c0.017,0.056-0.005,0.122-0.059,0.201c-0.235,0.258-0.899,0.988-1.729,1.729c-1.634,1.534-3.839,3.356-4.024,3.574
							c-2.229,2.656-2.847,5.196-4.143,7.8c-1.131,2.278-2.499,4.531-3.626,6.808c-0.561,1.149-1.075,2.259-1.417,3.519
							c-0.113,0.859-0.146,1.765-0.098,2.664c-0.03,0.93,0.181,1.801,0.354,2.715c0.168,0.643,0.077,0.612,0.066,0.764
							c-0.02,0.127-0.03,0.251-0.031,0.371c-0.117,2.275-0.233,4.539-0.35,6.805c-0.134,2.447-0.424,5.566-1.324,9.329
							c-0.763,3.2-1.705,6.846-2.749,10.953l-0.793,3.177l-0.794,3.307c-0.439,1.728-0.904,3.449-1.415,5.157
							c-0.647,2.036-1.543,4.045-2.396,6.066C119.909,359.825,118.94,361.831,118.103,363.876z"/>
					</g>
				</g>
			</g>
		</g>
		<g>
			<g>
				<g>
					<path fill="#231F20" d="M128.27,128.968l0.108,0.413C128.35,129.19,128.385,129.054,128.27,128.968z"/>
					<path fill="#231F20" d="M117.77,71.677l0.391,0.089C118.031,71.682,117.895,71.667,117.77,71.677z"/>
					<path fill="#231F20" d="M84.149,55.124l0.046-0.474C84.137,54.87,84.132,55.013,84.149,55.124z"/>
					<g>
						<path fill="#231F20" d="M82.088,86.862c0.102,0.831,0.181,1.703,0.318,2.498l0.421,2.388c0.296,1.579,0.592,3.203,0.945,4.731
							c0.731,2.98,1.52,6.06,2.421,8.807c0.444,1.394,0.915,2.835,1.386,4.172c0.47,1.329,0.958,2.652,1.463,3.971
							c1.009,2.658,1.983,4.993,3.093,7.613c4.504,10.964,10.054,21.589,12.858,33.076c1.425,6.096,2.844,12.164,4.262,18.229
							c1.56,6.044,3.29,12.052,5.373,17.995c4.206,11.953,6.711,23.917,9.283,36.267c2.638,11.893,8.48,22.886,10.258,34.964
							c0.472,3.228,0.711,6.495,1.102,9.742c0.192,1.6,4.252,8.806,5.605,10.049c0.617,0.566,1.735-4.604,2.014-6.026
							c0.913-4.68,1.89-11.71,1.874-15.188c-0.034-7.043-0.085-10.306-1.256-17.214c-1.193-7.138-2.517-14.14-3.483-21.207
							c-0.916-7.084-1.567-14.206-1.605-21.514c-0.044-11.816-4.578-23.167-5.945-34.822c-1.319-12.673-1.668-25.514-4.45-37.927
							c-0.741-3.302-1.347-6.63-1.887-9.97l-0.783-5.044l-0.859-5.299c-1.168-6.92-2.335-13.393-3.687-19.368
							c-1.342-5.882-2.258-11.296-2.539-16.391l-0.059-1.882c0.001-0.619-0.103-1.281-0.015-1.865l0.258-3.612
							c0.195-1.214,0.447-2.434,0.659-3.657c0.081-0.613,0.264-1.222,0.455-1.83l0.546-1.828c0.352-1.433,1.021-2.823,1.566-4.229
							c0.282-0.688,0.565-1.475,0.844-1.931c0.29-0.512,0.516-1.118,0.838-1.55c1.159-1.956,2.462-3.362,3.717-4.237
							c1.584-1.133,2.995-1.635,4.975-2.021c2-0.305,4.669-0.248,7.756,0.392c2.588,0.521,5.772,1.794,9.323,3.644
							c3.571,1.896,7.418,4.319,11.54,7.017c3.739,2.441,7.61,5.25,12.065,8.089c1.121,0.709,2.24,1.422,3.48,2.123
							c0.614,0.351,1.19,0.705,1.839,1.051l2.053,1.024l2.071,1.009c0.693,0.343,1.389,0.665,2.083,0.922
							c1.391,0.552,2.793,1.094,4.205,1.623c5.558,1.883,10.724,2.996,15.104,3.817c1.054,0.198,2.11,0.385,3.17,0.559
							c0.958,0.176,1.904,0.338,2.863,0.483c0.999,0.134,1.804,0.307,2.699,0.435l1.323,0.185l0.333,0.041l0.56,0.09l1.223,0.19
							c3.451,0.519,7.026,0.76,10.27,0.713c3.253-0.043,6.171-0.339,8.614-0.795c4.96-0.929,7.814-2.466,11.488-5.25
							c1.748-1.318,3.468-4.135,4.555-6.789c-0.936,2.18-2.339,0.195-4.358-2.238c-1.963-2.454-4.596-5.313-4.965-5.569
							c-4.478-3.25-9.905-4.372-14.126-6.549c-2.059-1.043-3.817-2.268-5.295-3.55l-0.539-0.484l-0.264-0.239
							c-0.046-0.041-0.082-0.078-0.137-0.12l-0.21-0.137l-1.692-1.09c-1.121-0.707-2.327-1.471-3.437-2.094
							c-4.643-2.653-9.108-4.643-13.025-5.932l-1.535-0.487l-1.345-0.516l-1.341-0.483l-1.175-0.541l-1.168-0.504
							c-0.396-0.156-0.711-0.392-1.071-0.572l-1.054-0.552c-0.181-0.095-0.343-0.161-0.541-0.275l-0.61-0.36
							c-3.235-1.851-7.062-4.385-11.28-7.165c-4.211-2.767-8.905-5.835-14.31-8.8c-1.344-0.741-2.794-1.473-4.236-2.193
							c-1.525-0.706-2.978-1.424-4.642-2.077c-0.822-0.328-1.595-0.669-2.461-0.976l-2.606-0.901
							c-0.844-0.309-1.82-0.548-2.739-0.81c-0.922-0.242-1.887-0.538-2.77-0.698c-6.009-1.347-12.722-1.957-19.831-1
							c-3.534,0.436-7.16,1.406-10.67,2.699c-0.872,0.362-1.74,0.736-2.602,1.12l-1.289,0.584l-1.249,0.673
							c-0.829,0.456-1.652,0.922-2.468,1.399c-0.803,0.492-1.563,1.041-2.337,1.574c-1.575,1.048-2.957,2.259-4.355,3.468
							c-1.386,1.213-2.585,2.536-3.835,3.839c-1.104,1.343-2.283,2.698-3.255,4.088c-0.944,1.39-1.983,2.797-2.756,4.213
							c-0.823,1.416-1.658,2.846-2.308,4.265l-1.026,2.141c-0.333,0.71-0.54,1.302-0.814,1.959c-1.014,2.582-2.131,5.099-2.913,7.82
							c-0.5,1.606-1.044,3.2-1.511,4.841c-0.401,1.677-0.803,3.359-1.207,5.047c-0.182,0.854-0.437,1.679-0.553,2.561l-0.402,2.631
							l-0.386,2.646c-0.117,0.882-0.281,1.781-0.305,2.64c-0.183,3.45-0.502,7.054-0.3,10.362c0.061,1.676,0.086,3.404,0.212,5.046
							L82.088,86.862z"/>
					</g>
				</g>
			</g>
		</g>
		<g>
			<g>
				<g>
					<path fill="#231F20" d="M218.413,111.022l0.26-0.056C218.538,110.97,218.401,110.918,218.413,111.022z"/>
					<path fill="#231F20" d="M191.59,122.589l-0.353-0.203C191.335,122.481,191.464,122.543,191.59,122.589z"/>
					<path fill="#231F20" d="M245.298,145.069l0.108,0.044C245.436,145.115,245.383,145.096,245.298,145.069z"/>
					<g>
						<path fill="#231F20" d="M248.895,146.098c0.512,0.27-1.21-0.566-2.926-2.489c-0.895-0.981-1.664-2.236-1.807-3.292
							c-0.167-1.067,0.293-1.949,1.205-2.194c0.479-0.113,0.983-0.22,1.494-0.318l0.773-0.151c0.077-0.015,0.106-0.023,0.141-0.035
							l0.054-0.019l0.237-0.041l0.972-0.172c2.604-0.456,5.132-1.104,7.598-2.131c1.227-0.53,2.455-0.957,3.691-1.305
							c1.206-0.334,2.257-0.51,3.408-0.681c1.129-0.16,2.265-0.269,3.406-0.354c1.142-0.084,2.404-0.067,3.612-0.09
							c2.363-0.014,4.623-0.896,6.96-1.574c2.332-0.68,4.685-1.249,7.094-0.775c1.287,0.258,2.567,0.792,3.845,1.151
							c0.624,0.181,3.661-2.117,4.245-3.149c0.267-0.471-1.663-2.745-2.207-3.342c-1.767-1.96-4.514-4.522-5.917-5.297
							c-2.832-1.53-4.164-2.202-7.026-2.593c-2.952-0.438-5.901-0.608-8.866-1.128c-2.923-0.557-6.079-1.12-9.396-2.38
							c-0.673-0.25-1.344-0.432-2.013-0.558c-0.604-0.121-1.184-0.186-1.769-0.212c-1.16-0.059-2.317,0.065-3.441,0.188
							c-1.128,0.129-2.251,0.303-3.379,0.407c-1.118,0.083-2.238,0.088-3.366-0.088l-0.458-0.075l-0.888-0.038
							c-0.558-0.04-1.082-0.1-1.632-0.152l-3.332-0.344c-1.139-0.132-2.265-0.205-3.468-0.38l-3.697-0.57
							c-2.498-0.367-5.062-0.706-7.553-0.845c-1.252-0.083-2.499-0.139-3.728-0.165l-1.827-0.013
							c-0.573,0.024-1.057,0.113-1.577,0.181c-1.084,0.16-2.197,0.286-3.338,0.388l-1.732,0.137l-0.88,0.058
							c-0.273,0.025-0.48,0.073-0.726,0.108c-1.889,0.3-3.87,0.553-5.843,0.842c-3.429,0.7-6.587,1.899-8.706,3.667
							c-0.948,0.906-1.899,1.771-2.709,2.77c-0.816,1.031-1.655,2.128-2.424,3.485c-1.557,2.626-2.904,6.325-3.273,9.867
							c-0.24,2.052-0.216,3.984-0.05,5.777c0.106,0.878,0.194,1.761,0.368,2.573l0.215,1.244l0.277,1.178
							c0.941,3.958,3.01,7.556,6.527,11.396c0.458,0.479,0.839,0.947,1.362,1.433l1.555,1.453l0.776,0.726
							c0.266,0.242,0.603,0.487,0.9,0.73l1.834,1.462c0.565,0.489,1.33,0.971,2.02,1.457l2.097,1.458
							c1.535,0.957,3.045,1.927,4.63,2.886c1.482,0.858,2.87,1.754,4.295,2.664c1.413,0.915,2.839,1.839,4.188,2.833l2.053,1.494
							c0.41,0.284,0.503,0.414,0.733,0.611l0.605,0.551l0.606,0.553c0.207,0.184,0.423,0.368,0.514,0.559l0.741,1.133l0.093,0.141
							c-0.004,0.025,0.033,0.006,0.08-0.022l0.124-0.068l0.247-0.137l0.247-0.137l0.123-0.068l0.062-0.034l0.015-0.009
							c1.24-0.08-1.671,0.097-1.369,0.084l0.017,0.021l0.273,0.328c0.367,0.437,0.744,0.868,1.13,1.293l0.585,0.633l0.464,0.476
							l0.945,0.934l0.478,0.454l0.402,0.366l0.816,0.721c0.586,0.51,1.009,0.844,1.516,1.241c1.925,1.488,3.617,2.496,5.262,3.132
							c1.723,0.656,3.386,1.431,4.914,1.208c0.225-0.014,0.38-0.073,0.559-0.14c0.18-0.066,0.374-0.144,0.583-0.233
							c0.393-0.191,0.682-0.521,1.165-0.847c0.36-0.394,0.732-0.903,1.313-1.38c0.624-0.355,1.369-0.758,2.212-1.183
							c1.606-0.814,4.36-2.45,6.706-4.047c-1.956,1.295-1.162-0.048-0.314-2.009c0.444-0.964,0.896-2.077,1.211-3.063
							c0.296-0.949,0.489-1.708,0.503-1.849c0.269-3.443-1.033-5.8-1.75-8.505c-0.721-2.643-1.22-5.417-1.66-7.819
							c-0.129-0.608-0.225-1.18-0.318-1.716c-0.104-0.541-0.228-1.059-0.282-1.501c-0.066-0.446-0.214-0.887-0.209-1.197
							c-0.026-0.322-0.146-0.637-0.041-0.746l0.032-0.105l0.007-0.024l-0.421,0.473l-0.931,1.024
							c-0.823,1.045-1.716,2.042-2.676,2.982l-0.732,0.695l-0.375,0.339l-0.19,0.168l-0.096,0.083l-0.048,0.042l-0.024,0.021
							c-1.205,1.39,10.387-12.002,5.479-6.337l-0.222-0.331l-0.452-0.654l-0.832-1.145l-0.706-0.909
							c0.065-0.276,0.098-0.417,0.072-0.509c-0.033-0.174-0.367-0.195-0.581-0.311c-0.157-0.089-0.544-0.168-0.907-0.325
							c-0.353-0.146-0.663-0.408-0.358-0.575c0.184-0.098,0.794-0.063,1.388,0.094C248.101,145.739,248.652,145.977,248.895,146.098
							z"/>
					</g>
				</g>
			</g>
		</g>
		<g>
			<g>
				<g>
					<path fill="#231F20" d="M424.937,460.352l0.008,1.515C424.962,461.193,425.028,460.783,424.937,460.352z"/>
					<path fill="#231F20" d="M369.242,317.256l0.458,0.101C369.493,317.179,369.351,317.188,369.242,317.256z"/>
					<path fill="#231F20" d="M330.646,291.832l0.09-1.027C330.655,291.292,330.638,291.6,330.646,291.832z"/>
					<g>
						<path fill="#231F20" d="M343.244,355.822c4.063,13.169,9.016,26.104,14.943,38.465c1.466,3.095,3.093,6.078,4.656,9.102
							c1.585,3.002,3.17,6.025,4.8,8.969c1.684,2.853,3.366,5.702,5.047,8.549c1.695,2.832,3.423,5.691,5.084,8.355l2.793,4.476
							l1.405,2.233l0.703,1.116l0.353,0.558l0.121,0.107l0.944,0.835c0.317,0.29,0.654,0.619,1.011,0.986
							c0.712,0.733,1.495,1.624,2.348,2.659c0.206,0.262,0.494,0.493,0.681,0.783c0.148,0.3,0.238,0.612,0.349,0.934
							c0.053,0.103,0.005,0.118-0.038,0.137l-0.12,0.069l-0.251,0.138l-0.554,0.278c-0.333,0.184-0.721,0.275-1.101,0.534
							c-0.378,0.267-0.779,0.563-1.237,0.761c-0.897,0.468-1.944,0.754-3.071,1.033l-0.864,0.188l-0.442,0.092
							c-0.1,0.015,0.059,0.013-0.247,0.048l-0.628,0.081l-2.513,0.321l-2.715,0.424c-1.762,0.23-3.797,0.737-5.722,1.163
							c-1.448,0.336-2.898,0.672-4.351,1.01c-1.605,0.343-3.166,0.771-4.81,1.045l-4.931,0.824
							c-0.824,0.133-1.638,0.284-2.471,0.403l-2.528,0.313l-5.054,0.625c-3.441,0.34-6.851,0.683-10.352,0.983l-10.595,0.9
							l-5.364,0.478l-5.446,0.573c-3.604,0.337-7.332,0.937-10.995,1.438c-6.92,1.115-13.847,2.231-20.785,3.35
							c-1.718,0.243-3.432,0.484-5.143,0.727l-2.568,0.347l-2.544,0.244c-1.697,0.156-3.392,0.312-5.084,0.467l-3.032,0.27
							c-0.598,0.047-1.153,0.119-1.684,0.204l-1.618,0.244l-1.5,0.28l-0.342,0.065l-0.093,0.023l-0.339,0.078l-1.362,0.309
							c-0.912,0.193-1.833,0.401-2.772,0.467c-0.935,0.068-1.892,0.032-2.787-0.271c-0.89-0.32-1.644-0.911-2.27-1.609
							c-0.58-0.738-1.046-1.559-1.425-2.42c-0.389-0.854-0.767-1.725-0.945-2.648c-0.193-0.936-0.186-1.848-0.269-2.831
							l-0.075-0.955c-0.052-0.546-0.082-1.077-0.186-1.658l-0.273-1.707c-0.087-0.565-0.185-1.136-0.348-1.743
							c-0.3-1.197-0.555-2.362-1.049-3.632c-0.234-0.627-0.428-1.232-0.714-1.869c-0.304-0.643-0.619-1.282-0.944-1.916
							c-1.4-2.54-3.373-5.169-6.078-7.164c-2.67-1.995-5.732-3.236-8.57-3.869c-2.882-0.665-5.44-0.688-7.88-0.62
							c-2.317,0.078-4.606,0.478-6.12,0.672l-5.065,0.756c-3.373,0.523-6.739,1.083-10.103,1.665
							c-3.358,0.619-6.735,1.103-10.107,1.633l-10.119,1.587c-3.371,0.562-6.758,0.981-10.148,1.395
							c-3.39,0.416-6.783,0.811-10.18,1.17c-1.7,0.171-3.397,0.369-5.102,0.49l-5.117,0.323c-3.414,0.191-6.832,0.333-10.254,0.409
							l-2.739,0.048c-0.938,0.019-1.747,0.008-2.865,0.057l-3.166,0.114c-1.04,0.072-2.064,0.178-3.1,0.268
							c-4.102,0.412-8.094,1.075-11.863,1.886c-1.907,0.363-7.19,2.436-12.059,4.468c-1.172,0.448-2.343,0.896-3.465,1.325
							c-1.241,0.5-2.427,0.978-3.503,1.41c-2.311,0.957-4.109,1.771-4.962,2.259c-0.777,0.444,1.802,0.482,4.886,0.422
							c0.766-0.021,1.571-0.043,2.372-0.064c0.809-0.033,1.474,0.002,2.179-0.007c1.38-0.011,2.593-0.021,3.328-0.026
							c4.883-0.227,11.197-1.004,17.201-1.381c1.499-0.101,2.976-0.188,4.411-0.213c0.716-0.018,1.417-0.057,2.105-0.06
							c0.687,0.007,1.36,0.014,2.018,0.02c1.307-0.021,2.543,0.069,3.681,0.129c1.154,0.055,2.22,0.105,3.174,0.15
							c7.849,0.321,13.619,0.546,19.434,0.624c5.806-0.054,11.657-0.261,19.695-0.713c4.148-0.258,8.272-0.65,12.394-0.973
							c4.117-0.361,8.238-0.625,12.332-1.062c4.097-0.429,8.186-0.855,12.269-1.282l6.129-0.619c0.55-0.06,0.948-0.084,1.356-0.114
							c0.41-0.026,0.834-0.079,1.216-0.067l1.162-0.009l1.078,0.069c1.377,0.145,2.468,0.488,3.152,0.912
							c0.691,0.433,1.056,0.881,1.464,1.603c0.413,0.682,0.748,1.824,0.988,3.136l0.169,1.014l0.086,1.127
							c0.022,0.383,0.083,0.729,0.067,1.151l0.003,0.624l0.038,1.054c0.03,1.397,0.161,2.853,0.242,4.296l0.069,1.088
							c0.042,0.358,0.126,0.705,0.188,1.059l0.403,2.123c0.772,2.78,1.891,5.47,3.153,8.081l1.06,1.885l0.268,0.473l0.321,0.431
							l0.645,0.865c0.43,0.578,0.845,1.176,1.374,1.669c0.513,0.506,0.979,1.072,1.538,1.535c0.564,0.454,1.127,0.92,1.711,1.354
							l1.876,1.114l1.979,0.9c0.676,0.25,1.373,0.439,2.063,0.665c2.267,0.558,4.618,0.896,7.077,0.849
							c1.225-0.005,2.479-0.112,3.735-0.216c1.264-0.154,2.535-0.293,3.818-0.498l1.987-0.297c0.246-0.04,0.31-0.044,0.392-0.051
							l0.258-0.025l0.517-0.053c0.713-0.084,1.244-0.075,1.87-0.132l0.784,0.005l1-0.018l2.65-0.063
							c3.536-0.096,7.107-0.198,10.586-0.531c1.751-0.148,3.503-0.297,5.258-0.445c1.744-0.167,3.457-0.384,5.188-0.579l5.179-0.613
							l5.102-0.679c1.677-0.216,3.453-0.472,5.047-0.651l4.802-0.54l2.398-0.263l2.449-0.191c1.634-0.116,3.266-0.233,4.896-0.35
							c3.283-0.204,6.63-0.325,9.937-0.427c12.668-0.353,25.957-0.53,39.774-2.724l5.185-0.857l0.324-0.055l0.194-0.02l0.387-0.04
							l0.77-0.088c0.52-0.059,0.976-0.15,1.632-0.17l1.825-0.119c0.595-0.047,1.386-0.054,2.068-0.085l1.063-0.04l2.077-0.125
							l4.214-0.266l1.056-0.07l1.03-0.137l2.063-0.275l2.067-0.278l1.035-0.141c0.334-0.065,0.654-0.153,0.981-0.229l3.918-0.95
							l0.981-0.24c0.331-0.076,0.726-0.09,1.086-0.138l2.212-0.241l2.215-0.242c0.739-0.081,1.459-0.155,2.297-0.273l4.858-0.645
							c1.688-0.239,3.093-0.382,4.569-0.551l4.408-0.503c0.2-0.996,0.401-1.993,0.604-2.992l0.294-1.507l0.146-0.756
							c0.022-0.13,0.051-0.244,0.068-0.387l0.008-0.529c0.015-1.39,0.054-2.885,0.026-4.144c-0.017-0.618-0.076-0.988-0.116-1.475
							l-0.119-1.563l-0.057-0.9l-0.029-0.45l-0.205-0.563l-0.818-2.251l-1.626-4.499l-3.218-9l-3.186-9.028
							c-0.271-0.756-0.514-1.508-0.807-2.267l-1.122-2.31l-1.762-3.623l-5.116-10.6l-4.888-10.304
							c-0.804-1.714-1.646-3.434-2.418-5.14l-2.223-5.098l-4.488-10.162c-1.362-3.419-2.744-6.827-4.155-10.224l-3.966-10.281
							c-0.688-1.677-1.284-3.387-1.878-5.097l-1.812-5.121c-1.271-3.393-2.284-6.878-3.396-10.331l-1.681-5.294l-1.066-3.32
							c-0.355-1.127-0.742-2.075-1.114-3.12c-0.377-1.031-0.754-2.051-1.127-2.969l-1.12-2.828l-2.066-5.149
							c-0.688-1.688-1.192-3.15-1.764-4.682l-0.678-2.121c-0.257-0.725-0.404-1.368-0.564-2.012l-0.253-0.973l-0.13-0.485
							l-0.06-0.408c-0.079-0.541-0.174-1.08-0.282-1.62c-0.07-0.565-0.078-1.178-0.138-1.764c-0.016-0.303-0.072-0.578-0.063-0.904
							l0.015-0.973c-0.045-1.252,0.11-2.693,0.202-4.098c0.204-1.507,0.345-2.962,0.663-4.604c0.249-1.563,0.625-3.298,0.971-4.988
							c0.398-1.77,0.775-3.599,1.242-5.306c3.808-16.074,10.075-32.846,14.928-51.206c1.614-5.889,2.788-11.358,4.077-16.968
							l1.833-8.006c0.313-1.311,0.584-2.713,0.926-3.949l0.989-3.775l0.979-3.778l0.485-1.89l0.603-1.986l2.405-7.948l2.39-7.952
							l1.19-3.977l0.595-2l0.598-2.141l2.381-8.563l1.185-4.283c0.386-1.429,0.82-2.848,1.107-4.298
							c1.26-5.776,2.599-11.546,3.78-17.326l2.979-17.372l2.328-17.313l0.399-3.346c0.136-1.106,0.265-2.238,0.379-3.407
							l0.358-3.474l0.289-3.584c0.328-4.838,0.563-9.834,0.191-15.263c-0.085-2.639-0.523-5.516-0.931-8.334
							c-0.234-1.428-0.636-2.944-0.972-4.41l-0.546-2.213l-0.644-2.075c-1.828-5.525-4.438-11.332-8.726-16.844
							c-2.131-2.74-4.669-5.369-7.568-7.676c-2.894-2.311-6.139-4.281-9.517-5.796c-0.845-0.36-1.696-0.71-2.552-1.049
							c-0.769-0.281-1.427-0.483-2.148-0.723c-1.414-0.461-2.836-0.909-4.263-1.342c-1.395-0.338-2.787-0.643-4.188-0.949
							l-2.104-0.446l-2.03-0.297l-4.072-0.553l-3.91-0.298l-1.957-0.133l-1.871-0.048l-3.746-0.076l-3.575,0.056l-1.788,0.036
							l-1.704,0.071l-3.409,0.154l-4.741,0.283c-0.78,0.081-1.561,0.172-2.338,0.276l-0.583,0.08
							c-0.175,0.12-0.381,0.093-0.568,0.147l-1.153,0.222c-1.53,0.333-3.034,0.813-4.485,1.417
							c-2.913,1.191-5.643,2.823-8.206,4.704c-0.638,0.469-1.292,0.963-1.857,1.415l-1.148,0.93l-1.705,1.417l-0.597,0.491
							c-0.201,0.173-0.333,0.258-0.262,0.225c0.049-0.016,0.026,0.044,0.034,0.056c0.005,0.044,0.005,0.099-0.012,0.136
							c-2.068,0.593-3.922,1.373-5.762,2.151c-0.827,0.388-1.66,0.779-2.499,1.173c-0.829,0.397-1.532,0.783-2.31,1.182
							c-2.973,1.571-5.642,3.158-7.948,4.538l-1.605,0.958l-0.124,0.072c-0.021,0.014-0.043,0.029-0.063,0.047
							c-0.04,0.035-0.078,0.078-0.114,0.129c-0.095,0.098-0.346,0.176-0.505,0.302c-0.053,0.062-0.265,0.125-0.437,0.19
							l-0.528,0.208c-0.134,0.069-0.438,0.155-0.72,0.239l-0.837,0.256c-0.235,0.079-0.644,0.189-1.03,0.297l-1.15,0.323
							c-1.674,0.478-3.684,1.065-5.896,1.921c-1.034,0.356-2.243,0.951-3.339,1.459l-0.833,0.403l-0.413,0.204
							c-0.108,0.055-0.102,0.057-0.158,0.088l-0.496,0.304c-0.679,0.393-1.247,0.958-2.056,1.299
							c-1.451,0.851-3.169,1.633-5.069,2.404c-3.792,1.546-8.354,2.934-12.655,4.733c-1.074,0.462-2.009,1.019-2.785,1.637
							c-0.767,0.616-1.357,1.291-1.804,1.996c-0.892,1.41-1.203,2.941-1.177,4.373c-0.021-1.174,1.494-1.466,3.798-1.235
							c2.285,0.238,5.294,1.024,8.347,1.901c1.538,0.437,3.09,0.877,4.566,1.297c1.488,0.401,2.923,0.731,4.22,1.062
							c2.572,0.531,4.582,0.847,5.046,0.877c1.396-0.017,2.835-0.072,4.307-0.163c1.444-0.202,2.915-0.488,4.418-0.787
							c0.411-0.091,0.669-0.119,0.967-0.166l0.866-0.137c0.554-0.115,1.18-0.14,1.773-0.199c0.578-0.065,1.209-0.099,1.854-0.124
							l1.979-0.09c2.709-0.116,5.992-0.291,9.493-1.272l1.307-0.406l0.655-0.21l0.595-0.2l2.095-0.733
							c1.345-0.474,2.69-0.941,3.972-1.357c3.975-1.313,7.711-2.257,10.562-2.272c-0.151,0.074,0.082,0.008,0.148,0.003l0.304-0.054
							l0.606-0.114c0.405-0.117,0.734-0.148,1.106-0.23c0.731-0.122,1.438-0.323,2.144-0.547c1.413-0.436,2.774-1.032,4.121-1.689
							l1.926-1.015l1.545-0.835l1.39-0.755l1.249-0.652l0.554-0.265c0.114-0.031,0.23-0.071,0.323-0.083
							c0.196-0.034,0.383-0.072,0.573-0.094c0.376-0.049,0.736-0.081,1.094-0.069c0.707,0,1.401,0.215,1.999,0.524l0.24,0.121
							l0.116,0.06l0.058,0.03c0.018,0.01,0.124,0.015,0.182,0.022l1.665,0.16c1.068,0.109,2.14,0.219,3.216,0.329
							c1.093,0.093,2.117,0.221,3.147,0.337c1.02,0.126,2.098,0.199,3.075,0.345c4.037,0.471,7.74,1.126,11.161,1.857l2.943,0.792
							c0.88,0.348,1.76,0.667,2.643,0.958c0.884,0.457,1.492,0.938,2.113,1.537c0.594,0.646,1.229,1.443,1.883,2.591
							c0.643,1.159,1.29,2.62,1.855,4.331c0.128,0.432,0.284,0.896,0.392,1.316c0.074,0.406,0.156,0.809,0.248,1.208
							c0.083,0.411,0.209,0.771,0.282,1.216l0.176,1.413c0.06,0.477,0.147,0.923,0.199,1.42l0.09,1.583l0.111,1.581l0.002,1.717
							c0.04,4.58-0.379,9.699-1.005,15.199c-0.288,2.754-0.726,5.598-1.098,8.407l-1.139,8.45c-0.323,2.84-0.887,5.577-1.353,8.355
							l-1.441,8.316l-0.357,2.081c-0.135,0.688-0.302,1.365-0.45,2.048l-0.917,4.091l-1.825,8.19
							c-0.156,0.682-0.292,1.37-0.466,2.046l-0.568,2.017l-1.136,4.036l-2.271,8.079l-0.481,1.718l-0.559,1.844l-1.116,3.692
							l-2.224,7.386l-2.216,7.388l-1.104,3.694c-0.363,1.248-0.684,2.627-1.026,3.935l-2.01,7.949
							c-0.61,2.599-1.121,5.108-1.685,7.666l-3.154,14.764c-0.528,2.379-1.1,4.597-1.645,6.904
							c-0.552,2.287-1.064,4.561-1.776,6.909l-1.991,6.991l-0.499,1.748l-0.544,1.804l-1.094,3.614l-2.197,7.256l-2.217,7.514
							l-1.113,3.756l-1.033,3.916l-2.058,7.854c-0.435,1.578-0.75,3.098-1.128,4.649c-0.361,1.635-0.723,3.272-1.085,4.913
							c-0.679,3.462-1.367,7.035-1.739,11.041c-0.091,1-0.217,1.957-0.268,2.997l-0.117,3.143l-0.043,1.576l0.057,1.648l0.15,3.301
							c0.075,1.109,0.258,2.265,0.398,3.396l0.237,1.704l0.125,0.853c0.047,0.271,0.104,0.512,0.156,0.769l0.659,3.04
							c0.114,0.502,0.222,1.025,0.346,1.508l0.389,1.407c2.073,7.572,4.656,13.811,6.382,18.96l0.609,1.866l0.306,0.93l0.234,0.849
							l1.125,3.966L343.244,355.822z"/>
					</g>
				</g>
			</g>
		</g>
		<g>
			<g>
				<g>
					<path fill="#231F20" d="M228.349,204.51l0.193-0.013C228.456,204.482,228.401,204.417,228.349,204.51z"/>
					<path fill="#231F20" d="M217.497,214.597l0.03,0.003C217.499,214.598,217.494,214.597,217.497,214.597z"/>
					<path fill="#231F20" d="M191.722,195.81l0.183-0.328C191.789,195.608,191.742,195.712,191.722,195.81z"/>
					<g>
						<path fill="#231F20" d="M196.263,234.138c3.85,2.216,8.097,3.583,12.066,4.102c3.986,0.531,7.683,0.269,10.94-0.485
							c3.365-0.781,6.294-2.031,8.972-3.047c2.675-1.02,5.127-1.813,7.392-1.77c3.106,0.017,6.208,0.275,9.263,0.209
							c1.523-0.045,3.046-0.123,4.567-0.264c0.76-0.072,1.521-0.156,2.278-0.268c0.751-0.136,1.5-0.292,2.249-0.473
							c3.011-0.729,5.969-1.014,8.892-1.251c1.467-0.1,2.937-0.147,4.414-0.168c1.468-0.038,2.94-0.076,4.425-0.114
							c2.875-0.041,5.637-0.967,8.385-1.793c2.763-0.802,5.482-1.561,8.345-1.264c1.531,0.167,3.073,0.557,4.598,0.788
							c0.753,0.116,4.143-2.483,4.727-3.569c0.266-0.496-2.166-2.568-2.835-3.111c-2.198-1.783-5.498-4.057-7.127-4.725
							c-3.295-1.342-4.82-1.886-8.036-2.135c-3.32-0.248-6.58-0.396-9.819-0.91c-3.247-0.45-6.464-1.319-9.677-2.797
							c-2.599-1.183-5.131-1.439-7.706-1.423c-2.554-0.036-5.086-0.029-7.555-0.683c-1.32-0.396-2.603-0.913-3.885-1.4l-1.91-0.74
							l-0.949-0.359c-0.307-0.117-0.813-0.259-1.211-0.383c-3.408-1.022-6.578-1.654-9.399-1.692
							c-3.019-0.03-5.583-0.656-7.629-1.398c-2.058-0.745-3.497-1.549-4.725-1.892c-0.25-0.09-0.521-0.149-0.782-0.216
							c-0.241-0.091-0.491-0.166-0.753-0.228l-9.474-2.239l-0.368,0.055l-1.103,0.165c6.255,5.383,12.507,10.762,18.759,16.142
							c-0.003,0.004-0.008,0.009-0.015,0.013l-0.011,0.006l-0.007,0.003l-0.003,0.001l-0.084,0.004
							c-0.458,0.02-0.925,0.018-1.397-0.008c-0.554-0.049-0.741-0.015-1.071-0.034c-0.305-0.013-0.617-0.044-0.935-0.095
							l-0.46-0.084l-0.226-0.026c-0.154-0.023-0.315-0.058-0.482-0.105l-0.234-0.074c0,0.002-0.001,0.002-0.005,0.002
							c-0.008,0-0.024-0.003-0.048-0.012c-0.1-0.039,0.113,0.042,0.239,0.105c0.133,0.064,0.253,0.133,0.361,0.205
							c0.039,0.023,0.028,0.024,0.104,0.065l0.218,0.121c0.143,0.082,0.282,0.167,0.416,0.255c0.269,0.176,0.52,0.364,0.753,0.561
							c0.426,0.295,0.883,0.635,1.288,0.978l0.139,0.119l-0.005,0l-0.012-0.002c-0.005-0.003-0.03,0-0.002-0.021
							c0.088-0.072,0.068-0.111,0.22-0.237c0.349-0.347,1.289-1.028,2.612-1.88c1.324-0.864,3.064-1.917,5.142-3.353l1.278-0.94
							c0.083-0.021,0.178-0.021,0.241-0.06c0.135-0.057,0.387-0.183,0.612-0.314l2.146-1.189l5.247-2.934
							c3.688-2.072,7.529-4.225,11.678-6.42c1.983-1.061,4.042-1.909,6.417-2.989c0.604-0.282,1.15-0.497,1.813-0.828l2.023-1.037
							c0.178-0.095,0.318-0.16,0.526-0.28l0.924-0.626c0.613-0.427,1.219-0.873,1.812-1.335l0.882-0.706l0.433-0.361
							c0.131-0.109,0.128-0.093,0.198-0.146l0.634-0.442l0.315-0.222l0.04-0.028l0.01-0.007l1.145-1.339l0.058-0.074l0.229-0.298
							c0.303-0.401,0.593-0.814,0.868-1.237c0.548-0.839,1.039-1.714,1.49-2.723c0.901-1.988,1.436-4.021,1.688-6.073
							c0.104-0.915,0.15-1.846,0.139-2.771l-0.019-0.676l-0.036-0.575c-0.029-0.384-0.068-0.768-0.117-1.15
							s-0.106-0.764-0.174-1.142l-0.19-0.919c-0.135-0.592-0.306-1.229-0.475-1.768c-0.149-0.468-0.312-0.933-0.487-1.393
							l-0.269-0.67l-0.235-0.539c-0.161-0.358-0.33-0.714-0.506-1.065l-0.456-0.857l-0.462-0.804l-0.415-0.669
							c-1.107-1.72-1.983-2.78-2.774-3.711c-0.793-0.919-1.483-1.636-2.133-2.271c-2.582-2.498-4.707-3.968-6.984-5.154
							c-2.386-1.217-4.956-2.563-7.78-3.014c-1.411-0.226-2.881-0.227-4.397,0.131c-0.757,0.18-1.526,0.448-2.287,0.833
							c-0.752,0.392-1.533,0.872-2.127,1.601c-0.326,0.33-0.713,0.725-1.121,1.167c-0.198,0.229-0.433,0.432-0.575,0.696
							c-0.173,0.289-0.339,0.566-0.5,0.836c-0.696,1.154-1.5,2.413-2.305,3.574c0.329-0.476,0.476-0.788,0.482-0.96
							c0.004-0.081-0.032-0.146-0.095-0.131c0.004,0.064,0.074,0.135,0.096,0.244c0.073,0.22,0.07,0.534,0.081,0.959
							c0.011,0.477,0.022,0.992,0.034,1.516c0.031,2.263-0.165,5.125-0.141,5.406c0.368,3.452,1.689,5.664,2.429,8.387
							c0.705,2.63,1.059,5.438,1.223,7.812c0.071,1.177,0.107,2.262-0.042,3.02c-0.029,0.193-0.096,0.349-0.155,0.489l-0.065,0.087
							l-0.031,0.042l-0.016,0.02c0,0-0.044,0.047,0.076-0.071c0.634-0.632,1.212-1.217,1.852-1.806
							c2.419-2.297,4.697-4.167,6.607-5.377c0.964-0.627,1.861-1.075,2.567-1.301c0.665-0.24,1.15-0.235,1.271-0.199
							c0.057,0.015,0.042,0.014,0.032,0.007c0.015,0.005-0.032-0.014-0.081-0.046l-0.028-0.021l-2.297-2.313l-0.558-0.37
							l-1.116-0.739l-4.463-2.954l-0.558-0.37c-0.19-0.134-0.442-0.432-0.656-0.644c-0.444-0.465-0.877-0.941-1.299-1.426
							c-0.421-0.485-0.832-0.98-1.229-1.483l-0.588-0.763c-0.146-0.182-0.053-0.107-0.065-0.146l0.03-0.043
							c0.159-0.232,0.342-0.445,0.542-0.635c0.013-0.016,0.076-0.064,0.049-0.053l-0.057,0.019l-0.112,0.039l-0.221,0.08
							l-0.429,0.17c-1.385,0.588-3.142,1.492-5.062,2.469c-3.784,1.962-7.863,4.227-12.214,6.544
							c-0.935,0.494-1.89,1.016-2.873,1.568c-0.948,0.523-1.985,1.131-3.003,1.73c-0.486,0.28-1.076,0.65-1.627,0.99l-0.836,0.52
							l-0.43,0.271l-0.504,0.334c-0.671,0.457-1.327,0.873-2.1,1.452l-2.349,1.859c-0.382,0.348-0.833,0.72-1.402,1.163
							l-0.999,0.746l-1.208,0.874c-1.737,1.26-4.053,2.86-6.739,5.282c-0.722,0.654-1.501,1.433-2.24,2.165
							c-0.78,0.839-1.563,1.728-2.323,2.652c-0.773,1.036-1.535,2.046-2.242,3.189c-0.688,1.188-1.395,2.364-1.954,3.654
							c-1.169,2.567-1.993,5.31-2.451,7.948c-0.104,0.648-0.196,1.3-0.277,1.955c-0.076,0.646-0.167,1.34-0.176,1.916
							c-0.049,1.205-0.063,2.419-0.041,3.632l0.351,18.449l21.031-0.05c0.364,0,0.735-0.001,1.114-0.002
							c-3.656-0.812-7.313-1.623-11.205-2.487C195.692,233.813,195.978,233.976,196.263,234.138z"/>
					</g>
				</g>
			</g>
		</g>
	</g>
</g>
<g id="Layer_2">
	<g>
		<g>
			<g>
				<path fill="#231F20" d="M268.771,270.089l0.199-0.015C268.881,270.06,268.823,269.995,268.771,270.089z"/>
				<path fill="#231F20" d="M239.961,268.916l0.071-0.392C239.974,268.655,239.96,268.792,239.961,268.916z"/>
				<path fill="#231F20" d="M232.334,303.797l-0.18,0.041C232.239,303.854,232.293,303.833,232.334,303.797z"/>
				<g>
					<path fill="#231F20" d="M244.522,305.879c5.511,0.395,11.065-0.336,16.546-2.271c5.651-1.999,11.188-5.012,16.96-5.521
						c3.041-0.219,6.068-0.295,9.089-0.493c1.506-0.101,3.029-0.226,4.515-0.425c1.438-0.215,2.877-0.494,4.318-0.869
						c2.848-0.756,5.917-1.101,8.886-1.233c1.514-0.082,3.094-0.164,4.648-0.192c1.563-0.03,3.134-0.031,4.726-0.146
						c1.534-0.081,3.047-0.368,4.539-0.743c1.573-0.381,2.736-0.824,4.089-1.253c1.31-0.441,2.645-0.816,4.006-1.022
						c1.352-0.205,2.74-0.32,4.107-0.078c1.464,0.256,2.918,0.746,4.355,1.083c0.367,0.073,1.301-0.395,2.305-1.049
						c0.993-0.646,2.028-1.449,2.382-1.955c0.34-0.46-1.657-2.799-2.271-3.416c-1.907-2.085-5.188-4.547-6.864-5.294
						c-1.701-0.774-2.95-1.245-4.209-1.613c-1.26-0.349-2.521-0.604-4.252-0.679c-0.896-0.037-1.788-0.073-2.679-0.11
						c-0.892-0.034-1.806-0.062-2.604-0.122c-1.65-0.108-3.287-0.237-4.915-0.432c-1.62-0.155-3.269-0.577-4.89-1.01
						c-0.813-0.228-1.622-0.483-2.43-0.773c-0.814-0.295-1.675-0.655-2.511-1.038c-1.361-0.624-2.724-0.975-4.09-1.166
						c-1.411-0.19-2.863-0.22-4.297-0.206c-1.422,0.008-2.918,0.087-4.276,0.045c-1.368-0.038-2.733-0.147-4.089-0.442
						c-2.938-0.637-5.859-1.519-8.766-2.215c-1.454-0.348-2.904-0.649-4.354-0.85c-1.456-0.213-2.955-0.399-4.436-0.391
						c-6.332,0.001-12.588-2.199-18.902-2.052c-3.116,0.073-6.234,0.291-9.356,0.473c-3.12,0.092-6.242,0.124-9.358-0.049
						c-3.637-0.202-7.268-0.553-10.884-1.049c-2.285-0.313-4.573-0.524-6.864-0.675l-3.439-0.188l-3.529-0.145
						c-4.884-0.22-9.676-0.279-14.368-0.589c-2.101-0.14-4.207-0.494-6.248-0.943c-2.028-0.451-4.043-0.989-6.059-1.48
						c-1.969-0.514-3.932-0.982-5.915-1.271c-1.971-0.299-3.887-0.469-5.892-0.299c-2.135,0.192-4.481,0.104-6.949,0.949
						c-2.441,0.812-4.856,2.355-7.209,5.816c-1.136,1.676-1.953,4.835-2.434,7.658c0.399-2.314,1.359-0.892,2.314,1.184
						c0.95,2.074,1.919,4.802,2.07,5.055c1.802,3.107,4.113,4.488,6.271,6.654c2.104,2.104,4.076,4.344,6.167,6.337
						c2.102,1.997,4.249,3.599,6.658,4.285c10.107,2.86,19.898,2.558,29.237,3.171l1.509,0.084l1.601,0.07l3.204,0.118l6.408,0.198
						c4.271,0.136,8.539,0.308,12.799,0.682c2.547,0.226,5.132,0.609,7.74,1.007C239.24,305.414,241.882,305.665,244.522,305.879z"
						/>
				</g>
			</g>
		</g>
	</g>
	<g>
		<g>
			<g>
				<path fill="#231F20" d="M142.99,398.217l-0.072,0.192C142.97,398.332,143.053,398.305,142.99,398.217z"/>
				<path fill="#231F20" d="M154.732,370.632l0.354,0.179C154.979,370.717,154.852,370.665,154.732,370.632z"/>
				<path fill="#231F20" d="M122.806,354.614l-0.007-0.157C122.768,354.522,122.778,354.571,122.806,354.614z"/>
				<g>
					<path fill="#231F20" d="M118.103,363.876c-0.966,2.115-1.594,4.337-2.074,6.653c-0.516,2.309-0.658,4.761-0.725,7.311
						c-0.028,2.636,0.197,5.419,0.086,8.118c-0.042,1.354-0.131,2.694-0.344,3.989c-0.237,1.286-0.583,2.529-1.092,3.698
						c-2.162,4.952-5.011,9.505-6.623,14.875c-1.679,5.396-4.77,9.813-8.098,14.268c-3.168,4.299-3.73,10.374-7.792,14.134
						c-1.09,0.997-2.38,1.847-3.541,2.789c-0.286,0.231-0.491,1.386-0.571,2.628l-0.024,0.469l-0.002,0.059l-0.001,0.029v0.007
						v0.004c12.216,8.068,3.384,2.236,6.11,4.037l-0.003-0.002l-0.027-0.009l-0.213-0.071l-0.421-0.142l-0.208-0.07l-0.103-0.034
						c-0.022-0.014-0.023,0.005-0.062-0.034l-0.125-0.139c-0.327-0.374-0.603-0.781-0.826-1.207
						c-0.223-0.427-0.392-0.872-0.511-1.324c-0.06-0.226-0.107-0.453-0.143-0.681l-0.024-0.171l-0.011-0.085l-0.001-0.011
						c-1.565-3.122-0.434-0.865-0.783-1.562l0,0.003l-0.001,0.005l-0.009,0.039c-0.022,0.107-0.043,0.21-0.063,0.306
						c-0.009,0.051-0.018,0.1-0.027,0.147c-0.002,0.045-0.129,0.15-0.18,0.22c-0.271,0.308-0.46,0.573-0.566,0.774
						c-0.096,0.185,0.166,0.304,0.604,0.405c0.219,0.052,0.482,0.1,0.768,0.15c0.231,0.077,0.333,0.229,0.525,0.34l0.13,0.089
						c0.028,0.037,0.138,0.035,0.049,0.128c-0.046,0.073-0.088,0.149-0.127,0.227l-0.028,0.059l0.072,0.206
						c0.05,0.137,0.105,0.271,0.165,0.403c0.237,0.529,0.548,1.021,0.916,1.456l0.14,0.161l0.072,0.078l0.03,0.011l0.115,0.039
						l0.226,0.076c0.149,0.05,0.292,0.099,0.43,0.145c0.068,0.023,0.136,0.046,0.201,0.067l0.012,0.004l0.006,0.003l0.003,0.001
						c-4.547-2.722-1.26-0.755-2.275-1.362h0.001l0.016-0.002l0.033-0.004l0.063-0.009c0.165-0.022,0.306-0.042,0.413-0.057
						c2.759-0.409,6.639-1.313,8.199-2.092c3.135-1.591,4.576-2.357,6.818-4.679c4.633-4.81,8.733-9.774,15.013-13.644
						c2.523-1.584,4.155-3.824,5.617-6.172c1.426-2.384,2.757-4.811,4.609-6.926c2.03-2.274,4.279-4.449,6.3-6.803
						c2.065-2.315,3.878-4.825,5.154-7.605c0.694-1.467,1.435-2.928,2.267-4.343c0.815-1.427,1.737-2.8,2.573-4.233
						c1.685-2.856,3.397-5.727,4.402-8.909c2.101-6.215,3.255-12.747,5.042-19.07c0.484-1.862,1.001-3.716,1.553-5.563
						c0.3-1.017,0.492-1.589,0.74-2.346c0.227-0.7,0.502-1.463,0.789-2.226c1.424-3.833,2.746-8.257,3.855-13.276
						c1.092-5.041,1.965-10.723,2.144-17.011c0.155-3.768,0.208-7.797-0.075-11.912c-0.218-2.056-0.39-4.158-0.873-6.201
						c-0.22-1.025-0.437-2.069-0.716-3.083l-0.481-1.486l-0.254-0.742l-0.13-0.37c-0.039-0.103,0.005-0.005,0.008-0.003l0.036,0.069
						c0.078-0.046,0.144-0.078,0.201-0.101c0.014-0.008,0.021-0.002,0.031-0.019l0.012-0.017c0.004-0.004,0.009,0.003-0.01-0.081
						l-0.187-0.798c-0.287-1.117-0.685-2.336-1.21-3.499c-0.841-1.878-1.66-4.16-3.251-6.124c-0.796-0.982-1.785-1.886-3.063-2.611
						c-0.649-0.387-1.341-0.655-2.146-0.939c-0.407-0.156-0.808-0.214-1.248-0.307c-0.433-0.063-0.915-0.217-1.384-0.194
						c-0.45,0.053-0.996,0.101-1.604,0.143c-0.756,0.082-1.494,0.161-2.218,0.239c-0.4,0.04-0.795,0.079-1.188,0.118l-0.286,0.026
						l-0.071,0.007c-0.652,0.074,5.637-0.644,2.974-0.339l-0.001,0.002l-0.003,0.004l-0.007,0.008l-0.027,0.032l-0.109,0.122
						c-0.298,0.319-0.634,0.569-0.987,0.758c-1.435,0.753-3.022,0.534-4.419,0.295c0.574,0.107,0.983,0.043,1.188-0.238
						c0.103-0.125,0.142-0.346,0.125-0.493c0.017,0.056-0.005,0.122-0.059,0.201c-0.235,0.258-0.899,0.988-1.729,1.729
						c-1.634,1.534-3.839,3.356-4.024,3.574c-2.229,2.656-2.847,5.196-4.143,7.8c-1.131,2.278-2.499,4.531-3.626,6.808
						c-0.561,1.149-1.075,2.259-1.417,3.519c-0.113,0.859-0.146,1.765-0.098,2.664c-0.03,0.93,0.181,1.801,0.354,2.715
						c0.168,0.643,0.077,0.612,0.066,0.764c-0.02,0.127-0.03,0.251-0.031,0.371c-0.117,2.275-0.233,4.539-0.35,6.805
						c-0.134,2.447-0.424,5.566-1.324,9.329c-0.763,3.2-1.705,6.846-2.749,10.953l-0.793,3.177l-0.794,3.307
						c-0.439,1.728-0.904,3.449-1.415,5.157c-0.647,2.036-1.543,4.045-2.396,6.066C119.909,359.825,118.94,361.831,118.103,363.876z
						"/>
				</g>
			</g>
		</g>
	</g>
	<g>
		<g>
			<g>
				<path fill="#231F20" d="M134.762,120.892l0.402,0.575C135.002,121.196,134.941,120.989,134.762,120.892z"/>
				<path fill="#231F20" d="M120.767,72.562l0.398,0.099C121.028,72.557,120.891,72.544,120.767,72.562z"/>
				<path fill="#231F20" d="M85.509,58.467l-0.006-0.493C85.469,58.207,85.48,58.354,85.509,58.467z"/>
				<g>
					<path fill="#231F20" d="M84.679,87.014c0.149,3.698,0.422,7.433,0.793,11.035c0.188,1.816,0.411,3.644,0.63,5.357
						c0.228,1.87,0.489,2.95,0.773,6.45l0.378,2.938c0.074,0.484,0.106,0.979,0.215,1.451l0.332,1.409
						c0.526,1.86,1.221,3.676,2.115,5.381c1.776,3.425,4.296,6.376,7.147,8.897c1.031,0.911,2.102,1.771,3.188,2.592l0.804,0.599
						l0.537,0.347l0.984,0.601c1.263,0.751,2.341,1.333,3.28,1.842c1.877,1.016,3.192,1.713,4.279,2.497
						c0.529,0.394,1.001,0.824,1.432,1.343c0.218,0.256,0.411,0.545,0.596,0.854c0.107,0.145,0.167,0.326,0.257,0.49l0.127,0.254
						l0.032,0.064l0.042,0.136l0.084,0.276c0.893,2.944,1.67,5.906,2.275,8.914c0.61,3.218,1.3,6.299,1.961,9.405
						c0.662,3.067,1.322,6.131,1.982,9.195c0.644,3,1.405,6.026,2.071,8.989c0.661,2.96,1.386,5.916,2.21,8.871
						c0.424,1.467,0.79,3.004,1.128,4.547c0.342,1.536,0.66,3.072,0.959,4.607c0.598,3.071,1.117,6.143,1.584,9.222
						c0.934,6.159,1.66,12.349,2.394,18.634c0.376,3.07,0.842,5.903,1.454,8.83l0.464,2.177l0.397,2.093l0.412,2.098l0.41,2.315
						c1.108,6.22,2.318,12.293,2.566,18.562c0.087,1.683,0.142,3.38,0.174,5.079l0.056,2.555l0.167,2.58
						c0.088,0.849,0.979,3.25,2.216,5.593c1.234,2.344,2.608,4.6,3.29,5.263c0.616,0.584,1.721-4.772,2.013-6.188
						c0.213-1.182,0.497-2.51,0.796-3.887c0.288-1.376,0.569-2.796,0.821-4.17c0.528-2.751,1.048-5.345,1.179-7.065
						c0.332-3.497,0.622-6.059,0.758-8.605c0.179-2.551,0.203-5.098,0.094-8.571l-0.017-2.676l-0.037-2.723
						c-0.057-1.878-0.057-3.813-0.185-5.624c-0.176-3.661-0.352-7.307-0.528-10.948c-0.291-7.201-0.314-14.419,0.287-21.78
						c0.241-2.976,0.207-5.949,0.012-8.919c-0.099-1.488-0.23-2.966-0.401-4.46c-0.2-1.532-0.425-3.063-0.663-4.594
						c-0.487-3.057-0.976-6.118-1.462-9.167c-0.525-2.993-0.978-5.988-1.245-8.995l-0.386-4.805l-0.326-4.745
						c-0.096-1.575-0.227-3.175-0.294-4.727l-0.205-4.633c-0.078-1.541-0.167-3.077-0.274-4.609l-0.176-2.295
						c-0.144-1.209-0.31-2.56-0.599-3.854c-0.541-2.611-1.396-5.243-2.542-7.714c-1.143-2.473-2.566-4.758-4.095-6.758
						c-2.081-2.721-4.258-5.012-6.146-6.9l-2.602-2.581l-0.563-0.565l-0.251-0.259l-0.109-0.115l-0.024-0.039
						c-0.065-0.098-0.105-0.179-0.152-0.27c-0.179-0.352-0.301-0.708-0.307-1.074c-0.031-0.363,0.14-0.73,0.261-1.029l0.083-0.813
						l-0.009-1.916l-0.063-3.845c-0.078-2.5-0.211-4.967-0.417-7.446c-0.621-6.611-1.242-13.217-1.863-19.823
						c-0.162-1.66-0.255-3.158-0.36-4.693l-0.153-2.3l-0.04-1.596c-0.096-0.991,0.042-2.296,0.159-3.432
						c0.067-0.579,0.165-1.137,0.245-1.704c0.119-0.532,0.21-1.09,0.339-1.603c0.588-2.401,1.479-4.342,2.275-5.404
						c0.195-0.28,0.406-0.409,0.556-0.658c0.195-0.079,0.311-0.243,0.457-0.33c0.292-0.125,0.554-0.267,0.857-0.293
						c0.1,0.003,0.186-0.016,0.264-0.06c0.092-0.033,0.284,0.009,0.409-0.021c0.069-0.009,0.137-0.023,0.204-0.042
						c0.063-0.021,0.124-0.051,0.245-0.031c0.209,0.012,0.414,0.009,0.617-0.011c0.101-0.01,0.202-0.023,0.303-0.041
						c0.037-0.004,0.023-0.01,0.103-0.014l0.256-0.012l0.513-0.024l2.051-0.103l3.819-0.246c4.903-0.344,9.312-0.657,13.467-0.683
						c8.294-0.083,15.405,1.06,21.1,4.096c0.324,0.169,0.655,0.326,0.972,0.504l0.9,0.613c0.586,0.419,1.229,0.778,1.74,1.259
						l0.809,0.681l0.892,0.835c0.572,0.514,1.242,1.224,1.862,1.847c2.572,2.648,5.392,5.966,8.599,9.424
						c3.237,3.469,6.869,7.181,11.709,10.789c1.181,0.897,2.591,1.792,3.905,2.653c0.734,0.431,1.488,0.854,2.24,1.27
						c0.759,0.414,1.481,0.824,2.367,1.207c0.85,0.386,1.706,0.76,2.567,1.12c0.414,0.184,0.882,0.352,1.372,0.511l1.445,0.471
						l1.454,0.443l0.729,0.21l0.476,0.1l1.859,0.36c2.611,0.474,5.528,1.082,8.384,1.505c2.713,0.34,5.607,0.612,8.345,0.655
						c2.506,0.027,5.037-0.164,7.534-0.708c2.346-0.437,4.665-1.21,6.973-2.481c2.235-1.237,3.853-4.139,4.792-6.844
						c-0.785,2.215-2.731,0.311-4.738-2.291c-1.001-1.3-2.019-2.773-2.84-3.966c-0.836-1.127-1.457-1.984-1.617-2.139
						c-1.925-1.861-4.156-3.419-6.382-4.81c-2.201-1.374-4.449-2.646-6.596-4.072c-1.986-1.437-3.844-2.929-5.654-4.394
						l-1.346-1.095l-0.334-0.271c-0.116-0.091-0.232-0.182-0.262-0.265l-0.305-0.5l-0.565-0.939l-0.588-1.032
						c-1.528-2.664-3.308-5.801-6.164-8.906c-3-3.257-6.374-7.076-10.394-11.065c-2.085-2.028-4.22-4.081-6.925-6.237l-0.986-0.796
						l-1.103-0.816c-0.742-0.53-1.471-1.103-2.236-1.584c-1.527-0.967-3.062-1.936-4.625-2.846
						c-6.331-3.544-13.204-5.907-19.906-7.268c-6.718-1.375-13.271-1.809-19.444-1.828c-5.25-0.023-10.251,0.324-14.819,0.705
						l-6.399,0.528l-0.74,0.057l-1.307,0.13c-0.958,0.103-1.915,0.22-2.87,0.349c-1.86,0.177-3.935,0.785-5.896,1.309
						c-0.496,0.143-0.984,0.27-1.481,0.438l-1.505,0.591c-1,0.405-1.993,0.83-2.975,1.272c-0.986,0.431-1.894,1.022-2.83,1.555
						c-0.918,0.564-1.862,1.09-2.723,1.734c-0.858,0.648-1.707,1.316-2.54,1.998c-0.412,0.345-0.84,0.68-1.227,1.042l-1.124,1.115
						c-0.743,0.751-1.472,1.517-2.185,2.292c-0.632,0.778-1.249,1.568-1.854,2.367l-0.899,1.204
						c-0.282,0.401-0.521,0.801-0.78,1.204c-0.508,0.806-1.005,1.619-1.492,2.436c-0.454,0.809-0.84,1.608-1.251,2.42
						c-0.406,0.811-0.811,1.628-1.12,2.415l-0.976,2.396c-0.303,0.794-0.546,1.567-0.814,2.354c-0.56,1.586-0.92,3.094-1.35,4.645
						c-0.89,3.645-1.497,7.215-1.89,10.782c-0.152,1.872-0.23,3.838-0.314,5.769c-0.019,1.517-0.037,3.039-0.056,4.563
						C84.379,75.882,84.469,81.413,84.679,87.014z"/>
				</g>
			</g>
		</g>
	</g>
	<g>
		<g>
			<g>
				<path fill="#231F20" d="M218.413,111.022l0.26-0.056C218.538,110.97,218.401,110.918,218.413,111.022z"/>
				<path fill="#231F20" d="M191.59,122.589l-0.353-0.203C191.335,122.481,191.464,122.543,191.59,122.589z"/>
				<path fill="#231F20" d="M245.298,145.069l0.108,0.044C245.436,145.115,245.383,145.096,245.298,145.069z"/>
				<g>
					<path fill="#231F20" d="M248.895,146.098c0.512,0.27-1.21-0.566-2.926-2.489c-0.895-0.981-1.664-2.236-1.807-3.292
						c-0.167-1.067,0.293-1.949,1.205-2.194c0.479-0.113,0.983-0.22,1.494-0.318l0.773-0.151c0.077-0.015,0.106-0.023,0.141-0.035
						l0.054-0.019l0.237-0.041l0.972-0.172c2.604-0.456,5.132-1.104,7.598-2.131c1.227-0.53,2.455-0.957,3.691-1.305
						c1.206-0.334,2.257-0.51,3.408-0.681c1.129-0.16,2.265-0.269,3.406-0.354c1.142-0.084,2.404-0.067,3.612-0.09
						c2.363-0.014,4.623-0.896,6.96-1.574c2.332-0.68,4.685-1.249,7.094-0.775c1.287,0.258,2.567,0.792,3.845,1.151
						c0.624,0.181,3.661-2.117,4.245-3.149c0.267-0.471-1.663-2.745-2.207-3.342c-1.767-1.96-4.514-4.522-5.917-5.297
						c-2.832-1.53-4.164-2.202-7.026-2.593c-2.952-0.438-5.901-0.608-8.866-1.128c-2.923-0.557-6.079-1.12-9.396-2.38
						c-0.673-0.25-1.344-0.432-2.013-0.558c-0.604-0.121-1.184-0.186-1.769-0.212c-1.16-0.059-2.317,0.065-3.441,0.188
						c-1.128,0.129-2.251,0.303-3.379,0.407c-1.118,0.083-2.238,0.088-3.366-0.088l-0.458-0.075l-0.888-0.038
						c-0.558-0.04-1.082-0.1-1.632-0.152l-3.332-0.344c-1.139-0.132-2.265-0.205-3.468-0.38l-3.697-0.57
						c-2.498-0.367-5.062-0.706-7.553-0.845c-1.252-0.083-2.499-0.139-3.728-0.165l-1.827-0.013
						c-0.573,0.024-1.057,0.113-1.577,0.181c-1.084,0.16-2.197,0.286-3.338,0.388l-1.732,0.137l-0.88,0.058
						c-0.273,0.025-0.48,0.073-0.726,0.108c-1.889,0.3-3.87,0.553-5.843,0.842c-3.429,0.7-6.587,1.899-8.706,3.667
						c-0.948,0.906-1.899,1.771-2.709,2.77c-0.816,1.031-1.655,2.128-2.424,3.485c-1.557,2.626-2.904,6.325-3.273,9.867
						c-0.24,2.052-0.216,3.984-0.05,5.777c0.106,0.878,0.194,1.761,0.368,2.573l0.215,1.244l0.277,1.178
						c0.941,3.958,3.01,7.556,6.527,11.396c0.458,0.479,0.839,0.947,1.362,1.433l1.555,1.453l0.776,0.726
						c0.266,0.242,0.603,0.487,0.9,0.73l1.834,1.462c0.565,0.489,1.33,0.971,2.02,1.457l2.097,1.458
						c1.535,0.957,3.045,1.927,4.63,2.886c1.482,0.858,2.87,1.754,4.295,2.664c1.413,0.915,2.839,1.839,4.188,2.833l2.053,1.494
						c0.41,0.284,0.503,0.414,0.733,0.611l0.605,0.551l0.606,0.553c0.207,0.184,0.423,0.368,0.514,0.559l0.741,1.133l0.093,0.141
						c-0.004,0.025,0.033,0.006,0.08-0.022l0.124-0.068l0.247-0.137l0.247-0.137l0.123-0.068l0.062-0.034l0.015-0.009
						c1.24-0.08-1.671,0.097-1.369,0.084l0.017,0.021l0.273,0.328c0.367,0.437,0.744,0.868,1.13,1.293l0.585,0.633l0.464,0.476
						l0.945,0.934l0.478,0.454l0.402,0.366l0.816,0.721c0.586,0.51,1.009,0.844,1.516,1.241c1.925,1.488,3.617,2.496,5.262,3.132
						c1.723,0.656,3.386,1.431,4.914,1.208c0.225-0.014,0.38-0.073,0.559-0.14c0.18-0.066,0.374-0.144,0.583-0.233
						c0.393-0.191,0.682-0.521,1.165-0.847c0.36-0.394,0.732-0.903,1.313-1.38c0.624-0.355,1.369-0.758,2.212-1.183
						c1.606-0.814,4.36-2.45,6.706-4.047c-1.956,1.295-1.162-0.048-0.314-2.009c0.444-0.964,0.896-2.077,1.211-3.063
						c0.296-0.949,0.489-1.708,0.503-1.849c0.269-3.443-1.033-5.8-1.75-8.505c-0.721-2.643-1.22-5.417-1.66-7.819
						c-0.129-0.608-0.225-1.18-0.318-1.716c-0.104-0.541-0.228-1.059-0.282-1.501c-0.066-0.446-0.214-0.887-0.209-1.197
						c-0.026-0.322-0.146-0.637-0.041-0.746l0.032-0.105l0.007-0.024l-0.421,0.473l-0.931,1.024
						c-0.823,1.045-1.716,2.042-2.676,2.982l-0.732,0.695l-0.375,0.339l-0.19,0.168l-0.096,0.083l-0.048,0.042l-0.024,0.021
						c-1.205,1.39,10.387-12.002,5.479-6.337l-0.222-0.331l-0.452-0.654l-0.832-1.145l-0.706-0.909
						c0.065-0.276,0.098-0.417,0.072-0.509c-0.033-0.174-0.367-0.195-0.581-0.311c-0.157-0.089-0.544-0.168-0.907-0.325
						c-0.353-0.146-0.663-0.408-0.358-0.575c0.184-0.098,0.794-0.063,1.388,0.094C248.101,145.739,248.652,145.977,248.895,146.098z
						"/>
				</g>
			</g>
		</g>
	</g>
	<g>
		<g>
			<g>
				<path fill="#231F20" d="M422.082,447.938l0.584,1.556C422.426,448.799,422.328,448.355,422.082,447.938z"/>
				<path fill="#231F20" d="M366.037,307.28l0.429,0.106C366.295,307.235,366.154,307.233,366.037,307.28z"/>
				<path fill="#231F20" d="M333.451,276.623l0.149-0.894C333.493,276.149,333.458,276.417,333.451,276.623z"/>
				<g>
					<path fill="#231F20" d="M339.661,343.84l2.929,9.971c0.962,3.399,2.159,6.732,3.326,10.071
						c2.246,6.708,5.009,13.224,7.743,19.717c1.488,3.188,2.976,6.375,4.462,9.559c0.38,0.791,0.745,1.591,1.14,2.371l1.223,2.314
						l2.461,4.611c1.665,3.054,3.329,6.104,4.99,9.151c1.753,2.904,3.503,5.806,5.251,8.703l3.523,5.724l3.46,5.508l3.479,5.503
						c0.187,0.309,0.186,0.254,0.251,0.329l0.164,0.158l0.333,0.33l0.625,0.629c0.859,0.894,1.824,2.021,2.867,3.357
						c0.265,0.331,0.516,0.686,0.811,1.03c0.139,0.178,0.321,0.335,0.442,0.527c0.117,0.193,0.167,0.403,0.231,0.611
						c0.042,0.192,0.156,0.456,0.133,0.6l-0.38,0.164l-0.832,0.326l-1.024,0.358c-0.348,0.169-0.696,0.409-1.069,0.612
						c-0.378,0.188-0.783,0.335-1.195,0.504c-0.419,0.144-0.856,0.257-1.304,0.383c-0.899,0.212-1.853,0.385-2.836,0.528
						c-0.081,0.011-0.068,0.012-0.099,0.021l-0.476,0.055l-0.992,0.11l-1.985,0.218l-4.309,0.611
						c-5.146,1.037-7.7,1.668-11.118,2.418l-1.228,0.276l-1.265,0.208l-2.529,0.417c-1.695,0.263-3.349,0.593-5.078,0.804
						c-3.474,0.403-6.866,0.903-10.435,1.201l-5.298,0.515l-5.401,0.461l-10.94,0.976c-1.834,0.169-3.718,0.391-5.573,0.589
						c-1.87,0.222-3.704,0.373-5.605,0.668c-3.757,0.537-7.63,1.078-11.106,1.694l-5.35,0.922l-5.299,0.876
						c-7.117,1.228-14.094,2.042-21.032,2.555l-3.194,0.271c-0.615,0.044-1.126,0.146-1.693,0.218
						c-0.546,0.082-1.13,0.154-1.623,0.253l-1.449,0.267l-0.644,0.142l-1.408,0.306c-1.854,0.37-3.893,0.751-5.685-0.07
						c-0.454-0.174-0.832-0.482-1.217-0.769c-0.334-0.347-0.699-0.668-0.955-1.081c-0.301-0.38-0.529-0.806-0.748-1.236
						c-0.24-0.42-0.41-0.874-0.608-1.313l-0.287-0.665l-0.223-0.688c-0.18-0.451-0.22-0.938-0.301-1.413
						c-0.077-0.477-0.072-0.962-0.111-1.442l-0.124-1.723c-0.201-2.241-0.621-4.626-1.306-7.103
						c-0.794-2.512-1.764-5.149-3.657-7.78c-1.807-2.597-4.434-5.036-7.429-6.615c-2.992-1.563-6.048-2.274-8.807-2.573
						c-2.703-0.306-5.087-0.153-7.364,0.085l-1.67,0.22l-1.344,0.196l-2.598,0.395c-3.461,0.536-6.916,1.107-10.368,1.702
						c-6.892,1.269-13.826,2.246-20.748,3.352c-6.917,1.155-13.886,1.9-20.856,2.669l-5.233,0.522
						c-1.746,0.161-3.499,0.244-5.25,0.352c-3.503,0.197-7.011,0.345-10.523,0.427c-1.875,0.029-3.747,0.06-5.617,0.089
						c-2.067,0.082-4.341,0.084-6.417,0.323c-4.268,0.346-8.341,1.055-12.25,1.862c-1.98,0.368-7.404,2.482-12.426,4.56
						c-1.209,0.462-2.418,0.924-3.575,1.367c-1.264,0.503-2.471,0.984-3.568,1.421c-2.374,0.974-4.222,1.801-5.1,2.295
						c-0.799,0.45,1.843,0.472,5.002,0.391c0.785-0.025,1.609-0.052,2.43-0.079c0.795-0.021,1.501-0.001,2.217-0.011
						c1.416-0.019,2.659-0.036,3.413-0.046c5.011-0.292,11.49-1.104,17.645-1.487c3.073-0.219,6.069-0.255,8.748-0.218
						c2.684,0.13,5.105,0.247,7.066,0.342c8.053,0.291,13.979,0.559,19.941,0.552c5.957-0.078,11.964-0.274,20.209-0.777
						c4.251-0.351,8.489-0.7,12.715-1.048c4.229-0.347,8.451-0.679,12.646-1.171c4.205-0.443,8.4-0.886,12.59-1.328l3.145-0.323
						c0.572-0.063,0.903-0.074,1.357-0.114c0.431-0.044,0.848-0.067,1.244-0.062c1.615-0.039,3.102,0.096,4.151,0.453
						c1.076,0.354,1.679,0.801,2.144,1.361c0.464,0.561,0.887,1.398,1.246,2.566c0.078,0.31,0.161,0.614,0.252,0.915l0.174,1.059
						l0.095,0.526l0.046,0.588l0.104,1.165c0.024,0.188,0.009,0.415,0.017,0.619l0.003,0.314l0.013,0.436l0.092,2.151
						c0.115,1.45,0.156,2.934,0.334,4.388c0.431,2.883,1.368,5.699,2.591,8.368c1.083,2.764,2.656,5.229,4.576,7.438
						c0.516,0.517,1.007,1.067,1.549,1.563l1.732,1.372l1.904,1.118c0.661,0.313,1.336,0.596,2.008,0.899
						c2.753,1.018,5.67,1.42,8.708,1.47c0.611,0.026,1.232,0.008,1.86-0.036l1.89-0.108c1.271-0.145,2.554-0.262,3.85-0.455
						l1.977-0.275c0.507-0.077,0.534-0.063,0.747-0.083l0.532-0.045c0.368-0.038,0.695-0.055,0.998-0.061l0.938-0.043l0.813,0.022
						l1.048-0.003l2.708-0.032c1.808-0.04,3.62-0.08,5.436-0.121c3.611-0.148,7.174-0.47,10.776-0.748
						c3.534-0.375,7.095-0.766,10.611-1.2l5.236-0.69c1.742-0.23,3.523-0.478,5.126-0.652c3.293-0.378,6.548-0.8,9.94-1.037
						c1.682-0.132,3.361-0.265,5.039-0.396c1.712-0.099,3.422-0.197,5.13-0.296c3.384-0.181,6.906-0.334,10.356-0.438
						c11.696-0.4,23.931-0.91,36.524-3.227l1.178-0.194l0.579-0.096l0.358-0.035l1.419-0.162c0.245-0.026,0.448-0.07,0.725-0.086
						l0.84-0.047l1.672-0.104l1.912-0.064l0.969-0.031l0.804-0.04l0.971-0.058l3.792-0.226c0.632-0.041,1.271-0.067,1.9-0.122
						l1.858-0.238l3.729-0.483c1.237-0.178,2.372-0.525,3.567-0.782l1.773-0.42c0.594-0.139,1.161-0.305,1.857-0.345l4.003-0.422
						l2.01-0.214l2.195-0.283l4.404-0.569c0.765-0.105,1.415-0.17,2.081-0.241l2.004-0.214l4.015-0.433
						c0.417-1.792,0.817-3.604,1.204-5.434c0.062-1.216,0.071-2.564,0.097-3.813c0.033-1.371-0.08-1.973-0.135-2.935l-0.084-1.479
						l-0.04-0.772c-0.025-0.266-0.206-0.63-0.301-0.94l-1.392-3.883c-0.939-2.593-1.881-5.188-2.821-7.785l-3.352-9.239
						l-1.658-4.622c-0.141-0.387-0.268-0.771-0.421-1.158l-0.581-1.178l-1.161-2.358l-5.569-11.292l-5.098-10.605l-2.512-5.277
						c-0.823-1.757-1.536-3.496-2.31-5.244l-4.568-10.454l-4.191-10.53c-0.734-1.74-1.317-3.532-1.978-5.298l-1.954-5.303
						l-0.983-2.648l-0.901-2.678l-1.841-5.345c-1.291-3.485-2.3-7.073-3.437-10.616l-1.759-5.586l-1.096-3.409l-1.152-3.153
						c-0.388-1.086-0.769-2.004-1.152-2.99l-1.13-2.841l-2.085-5.22c-0.354-0.866-0.603-1.602-0.897-2.392
						c-0.285-0.777-0.594-1.576-0.796-2.272l-0.69-2.151l-0.508-1.985l-0.135-0.495c-0.036-0.156-0.043-0.281-0.068-0.423
						l-0.135-0.824l-0.159-0.823c-0.054-0.276-0.044-0.597-0.074-0.894c-0.029-0.613-0.128-1.185-0.134-1.835l0.004-1.986
						c0.108-2.763,0.477-5.841,1.09-9.201c0.642-3.406,1.481-7.065,2.316-11.1l2.479-11.731c0.927-4.483,1.859-9.005,2.83-13.293
						l1.449-6.514l1.616-6.292l3.481-13.498l0.906-3.525l0.79-3.401l1.589-6.799c1.471-6.123,2.818-12.263,4.407-17.858l1.137-4.301
						l0.446-1.689l0.217-0.846l0.161-0.7l0.596-2.69c0.725-3.429,1.308-6.562,1.918-9.754c1.189-6.3,2.332-12.48,3.57-18.437
						l0.946-4.391l0.495-2.099l0.247-1.049l0.256-0.974c0.171-0.632,0.338-1.339,0.507-1.911l0.495-1.66
						c0.079-0.26,0.136-0.356,0.198-0.545c0.051-0.131,0.059-0.155,0.076-0.244c0.066-0.106,0.093-0.199,0.135-0.304l1.426-2.258
						c0.555-0.755,1.094-1.58,1.638-2.295c1.108-1.439,2.093-2.577,3.408-3.873l1.206-1.153l0.835-0.789l0.417-0.395l0.627-0.624
						c0.844-0.848,1.675-1.708,2.43-2.633c0.381-0.459,0.772-0.911,1.129-1.388l1.032-1.462c1.344-1.971,2.413-4.118,3.298-6.333
						c0.484-1.107,0.8-2.207,1.155-3.322l0.498-1.674c0.149-0.539,0.212-0.888,0.32-1.342l0.57-2.578
						c0.161-0.82,0.273-1.563,0.409-2.349l0.377-2.314l0.281-2.17l0.278-2.17l0.227-1.998l0.427-3.999
						c0.551-5.368,1.007-10.836,1.252-16.481c0.187-4.446,0.284-8.974,0.072-13.842c-0.1-2.424-0.315-4.989-0.679-7.705
						c-0.072-0.653-0.233-1.427-0.352-2.133c-0.142-0.739-0.237-1.408-0.429-2.203c-0.384-1.561-0.836-3.338-1.237-4.499
						c-1.635-5.159-4.034-10.552-7.707-15.753c-3.662-5.187-8.873-10.08-15-13.412c-1.53-0.804-3.088-1.575-4.676-2.195
						l-1.186-0.475l-1.09-0.375l-2.189-0.726c-1.383-0.402-2.745-0.767-4.083-1.095c-1.274-0.273-2.605-0.585-3.842-0.805
						c-4.998-0.92-9.626-1.394-14.146-1.704c-4.513-0.301-8.895-0.412-13.213-0.407c-2.154,0.007-4.297,0.037-6.423,0.093
						l-3.172,0.104l-1.907,0.078l-3,0.165c-1.149,0.106-2.301,0.229-3.441,0.393c-1.118,0.243-2.247,0.445-3.345,0.791
						c-2.205,0.634-4.349,1.516-6.346,2.663c-4.037,2.225-7.516,5.413-10.648,8.893c-1.235,1.388-1.938,2.232-2.805,3.271
						l-2.271,2.778l-2.096,2.579l-0.514,0.632l-0.419,0.471l-0.803,0.913c-0.312,0.364-0.625,0.732-0.942,1.104
						c-0.331,0.377-0.779,0.777-1.167,1.172c-0.817,0.788-1.595,1.626-2.474,2.431c-1.821,1.564-3.641,3.288-5.623,4.737
						c-2.272,1.816-2.995,2.405-5.218,3.719c-2.073,1.229-4.623,2.552-7.461,4.046c-1.433,0.761-2.88,1.527-4.484,2.433
						l-1.121,0.636l-0.712,0.443c-0.483,0.292-0.92,0.625-1.436,0.905c-1.014,0.568-1.989,1.21-3.04,1.744
						c-0.517,0.291-1.029,0.579-1.539,0.866c-0.522,0.269-1.042,0.536-1.557,0.801c-4.14,2.154-8.203,4.138-12.004,6.093
						c-3.665,1.808-5.206,4.959-5.417,7.834c0.097-1.171,1.515-1.409,3.656-1.086c1.072,0.206,2.34,0.372,3.733,0.654
						c0.697,0.14,1.426,0.302,2.178,0.478c0.757,0.134,1.528,0.271,2.304,0.408c0.793,0.152,1.59,0.305,2.378,0.456
						c0.801,0.116,1.593,0.23,2.365,0.341c0.79,0.116,1.559,0.229,2.296,0.336c0.744,0.073,1.455,0.144,2.122,0.209
						c2.703,0.302,4.727,0.327,5.199,0.313c2.84-0.146,5.743-0.669,8.66-1.375c2.662-0.627,5.444-1.265,8.283-2.005
						c2.84-0.729,5.767-1.587,8.777-2.694c1.494-0.525,3.066-1.234,4.601-1.943c1.388-0.705,2.77-1.407,4.144-2.105
						c1.923-0.912,3.71-1.971,5.516-3.014c0.909-0.522,1.814-1.043,2.717-1.563c0.879-0.576,1.756-1.149,2.631-1.722
						c0.881-0.58,1.761-1.159,2.638-1.737c0.873-0.628,1.74-1.316,2.613-1.981c0.849-0.659,1.797-1.381,2.566-2.008l2.267-1.86
						l4.313-3.547c0.658-0.525,1.406-1.125,1.897-1.439c0.327-0.122,0.641-0.225,0.945-0.308c1.196-0.364,2.413-0.231,3.359,0.321
						l0.287,0.147l0.138,0.065c0.104,0.018,0.364,0.03,0.538,0.045c0.774,0.057,1.553,0.113,2.335,0.17
						c1.544,0.106,3.103,0.213,4.677,0.321c3.061,0.195,6.183,0.394,9.379,0.598c2.611,0.155,5.149,0.379,7.576,0.664
						c2.452,0.264,4.709,0.663,6.743,1.091c2.041,0.408,3.707,1.024,4.417,1.383c0.759,0.375,1.266,0.839,1.857,1.424
						c1.125,1.154,2.563,3.411,3.652,6.831l0.204,0.637l0.051,0.156l0.012,0.083l0.029,0.165c0.039,0.238,0.117,0.362,0.165,0.784
						c0.049,0.381,0.137,0.656,0.184,1.118l0.165,1.346c0.18,1.973,0.275,4.247,0.293,6.632c-0.005,4.837-0.294,10.058-0.763,15.382
						c-0.234,2.667-0.502,5.356-0.808,8.095l-0.232,2.066l-0.239,1.856l-0.233,1.822l-0.27,1.623l-0.132,0.802l-0.065,0.395
						l-0.074,0.311l-0.272,1.249c-0.074,0.333-0.093,0.353-0.118,0.432c-0.016,0.033-0.065,0.044-0.048,0.096
						c-0.048,0.011-0.034,0.063-0.06,0.09c-0.021,0.028-0.045,0.056-0.07,0.082l-0.019,0.02l-0.271,0.253l-0.623,0.584l-1.834,1.745
						l-2.07,2.103c-1.354,1.477-2.705,2.989-3.882,4.515c-1.27,1.538-2.271,3.033-3.364,4.555c-0.564,0.768-0.983,1.494-1.478,2.244
						l-1.654,2.6c-0.573,1.125-1.173,2.239-1.719,3.383c-0.294,0.571-0.495,1.14-0.731,1.714l-0.338,0.862l-0.279,0.752
						c-0.403,1.061-0.619,1.815-0.873,2.635c-0.241,0.799-0.522,1.67-0.722,2.415c-0.82,2.986-1.505,5.804-2.108,8.526
						c-0.612,2.734-1.159,5.398-1.686,8.042c-1.048,5.277-1.989,10.464-2.918,15.531l-1.387,7.383l-0.345,1.732l-0.333,1.556
						l-0.246,1.044l-0.483,1.914l-2.064,8.154l-0.513,2.039l-0.428,1.961l-0.851,3.919l-3.268,15.198
						c-0.259,1.271-0.546,2.44-0.834,3.605l-0.856,3.518l-1.799,7.345l-1.99,8.006l-0.498,2.001l-0.432,1.961l-0.858,3.918
						l-1.705,7.794l-1.617,7.608c-0.644,3.077-1.325,5.953-2.005,8.921c-0.342,1.475-0.685,2.953-1.028,4.433
						c-0.376,1.567-0.753,3.138-1.13,4.71c-1.535,6.573-3.156,14.231-3.262,23.107c-0.007,1.107,0.062,2.271,0.103,3.404
						c0.063,1.147,0.069,2.265,0.25,3.459l0.474,3.534c0.149,1.238,0.41,2.176,0.627,3.256c0.231,1.039,0.454,2.12,0.71,3.123
						l0.813,2.907l0.414,1.453l0.435,1.345l0.879,2.678l1.747,4.921l1.618,4.435l0.751,2.087l0.64,1.918
						C339.038,341.586,339.306,342.678,339.661,343.84z"/>
				</g>
			</g>
		</g>
	</g>
	<g>
		<g>
			<g>
				<path fill="#231F20" d="M228.349,204.51l0.193-0.013C228.456,204.482,228.401,204.417,228.349,204.51z"/>
				<path fill="#231F20" d="M217.497,214.597l0.03,0.003C217.499,214.598,217.494,214.597,217.497,214.597z"/>
				<path fill="#231F20" d="M191.722,195.81l0.183-0.328C191.789,195.608,191.742,195.712,191.722,195.81z"/>
				<g>
					<path fill="#231F20" d="M196.263,234.138c3.85,2.216,8.097,3.583,12.066,4.102c3.986,0.531,7.683,0.269,10.94-0.485
						c3.365-0.781,6.294-2.031,8.972-3.047c2.675-1.02,5.127-1.813,7.392-1.77c3.106,0.017,6.208,0.275,9.263,0.209
						c1.523-0.045,3.046-0.123,4.567-0.264c0.76-0.072,1.521-0.156,2.278-0.268c0.751-0.136,1.5-0.292,2.249-0.473
						c3.011-0.729,5.969-1.014,8.892-1.251c1.467-0.1,2.937-0.147,4.414-0.168c1.468-0.038,2.94-0.076,4.425-0.114
						c2.875-0.041,5.637-0.967,8.385-1.793c2.763-0.802,5.482-1.561,8.345-1.264c1.531,0.167,3.073,0.557,4.598,0.788
						c0.753,0.116,4.143-2.483,4.727-3.569c0.266-0.496-2.166-2.568-2.835-3.111c-2.198-1.783-5.498-4.057-7.127-4.725
						c-3.295-1.342-4.82-1.886-8.036-2.135c-3.32-0.248-6.58-0.396-9.819-0.91c-3.247-0.45-6.464-1.319-9.677-2.797
						c-2.599-1.183-5.131-1.439-7.706-1.423c-2.554-0.036-5.086-0.029-7.555-0.683c-1.32-0.396-2.603-0.913-3.885-1.4l-1.91-0.74
						l-0.949-0.359c-0.307-0.117-0.813-0.259-1.211-0.383c-3.408-1.022-6.578-1.654-9.399-1.692
						c-3.019-0.03-5.583-0.656-7.629-1.398c-2.058-0.745-3.497-1.549-4.725-1.892c-0.25-0.09-0.521-0.149-0.782-0.216
						c-0.241-0.091-0.491-0.166-0.753-0.228l-9.474-2.239l-0.368,0.055l-1.103,0.165c6.255,5.383,12.507,10.762,18.759,16.142
						c-0.003,0.004-0.008,0.009-0.015,0.013l-0.011,0.006l-0.007,0.003l-0.003,0.001l-0.084,0.004
						c-0.458,0.02-0.925,0.018-1.397-0.008c-0.554-0.049-0.741-0.015-1.071-0.034c-0.305-0.013-0.617-0.044-0.935-0.095l-0.46-0.084
						l-0.226-0.026c-0.154-0.023-0.315-0.058-0.482-0.105l-0.234-0.074c0,0.002-0.001,0.002-0.005,0.002
						c-0.008,0-0.024-0.003-0.048-0.012c-0.1-0.039,0.113,0.042,0.239,0.105c0.133,0.064,0.253,0.133,0.361,0.205
						c0.039,0.023,0.028,0.024,0.104,0.065l0.218,0.121c0.143,0.082,0.282,0.167,0.416,0.255c0.269,0.176,0.52,0.364,0.753,0.561
						c0.426,0.295,0.883,0.635,1.288,0.978l0.139,0.119l-0.005,0l-0.012-0.002c-0.005-0.003-0.03,0-0.002-0.021
						c0.088-0.072,0.068-0.111,0.22-0.237c0.349-0.347,1.289-1.028,2.612-1.88c1.324-0.864,3.064-1.917,5.142-3.353l1.278-0.94
						c0.083-0.021,0.178-0.021,0.241-0.06c0.135-0.057,0.387-0.183,0.612-0.314l2.146-1.189l5.247-2.934
						c3.688-2.072,7.529-4.225,11.678-6.42c1.983-1.061,4.042-1.909,6.417-2.989c0.604-0.282,1.15-0.497,1.813-0.828l2.023-1.037
						c0.178-0.095,0.318-0.16,0.526-0.28l0.924-0.626c0.613-0.427,1.219-0.873,1.812-1.335l0.882-0.706l0.433-0.361
						c0.131-0.109,0.128-0.093,0.198-0.146l0.634-0.442l0.315-0.222l0.04-0.028l0.01-0.007l1.145-1.339l0.058-0.074l0.229-0.298
						c0.303-0.401,0.593-0.814,0.868-1.237c0.548-0.839,1.039-1.714,1.49-2.723c0.901-1.988,1.436-4.021,1.688-6.073
						c0.104-0.915,0.15-1.846,0.139-2.771l-0.019-0.676l-0.036-0.575c-0.029-0.384-0.068-0.768-0.117-1.15s-0.106-0.764-0.174-1.142
						l-0.19-0.919c-0.135-0.592-0.306-1.229-0.475-1.768c-0.149-0.468-0.312-0.933-0.487-1.393l-0.269-0.67l-0.235-0.539
						c-0.161-0.358-0.33-0.714-0.506-1.065l-0.456-0.857l-0.462-0.804l-0.415-0.669c-1.107-1.72-1.983-2.78-2.774-3.711
						c-0.793-0.919-1.483-1.636-2.133-2.271c-2.582-2.498-4.707-3.968-6.984-5.154c-2.386-1.217-4.956-2.563-7.78-3.014
						c-1.411-0.226-2.881-0.227-4.397,0.131c-0.757,0.18-1.526,0.448-2.287,0.833c-0.752,0.392-1.533,0.872-2.127,1.601
						c-0.326,0.33-0.713,0.725-1.121,1.167c-0.198,0.229-0.433,0.432-0.575,0.696c-0.173,0.289-0.339,0.566-0.5,0.836
						c-0.696,1.154-1.5,2.413-2.305,3.574c0.329-0.476,0.476-0.788,0.482-0.96c0.004-0.081-0.032-0.146-0.095-0.131
						c0.004,0.064,0.074,0.135,0.096,0.244c0.073,0.22,0.07,0.534,0.081,0.959c0.011,0.477,0.022,0.992,0.034,1.516
						c0.031,2.263-0.165,5.125-0.141,5.406c0.368,3.452,1.689,5.664,2.429,8.387c0.705,2.63,1.059,5.438,1.223,7.812
						c0.071,1.177,0.107,2.262-0.042,3.02c-0.029,0.193-0.096,0.349-0.155,0.489l-0.065,0.087l-0.031,0.042l-0.016,0.02
						c0,0-0.044,0.047,0.076-0.071c0.634-0.632,1.212-1.217,1.852-1.806c2.419-2.297,4.697-4.167,6.607-5.377
						c0.964-0.627,1.861-1.075,2.567-1.301c0.665-0.24,1.15-0.235,1.271-0.199c0.057,0.015,0.042,0.014,0.032,0.007
						c0.015,0.005-0.032-0.014-0.081-0.046l-0.028-0.021l-2.297-2.313l-0.558-0.37l-1.116-0.739l-4.463-2.954l-0.558-0.37
						c-0.19-0.134-0.442-0.432-0.656-0.644c-0.444-0.465-0.877-0.941-1.299-1.426c-0.421-0.485-0.832-0.98-1.229-1.483l-0.588-0.763
						c-0.146-0.182-0.053-0.107-0.065-0.146l0.03-0.043c0.159-0.232,0.342-0.445,0.542-0.635c0.013-0.016,0.076-0.064,0.049-0.053
						l-0.057,0.019l-0.112,0.039l-0.221,0.08l-0.429,0.17c-1.385,0.588-3.142,1.492-5.062,2.469
						c-3.784,1.962-7.863,4.227-12.214,6.544c-0.935,0.494-1.89,1.016-2.873,1.568c-0.948,0.523-1.985,1.131-3.003,1.73
						c-0.486,0.28-1.076,0.65-1.627,0.99l-0.836,0.52l-0.43,0.271l-0.504,0.334c-0.671,0.457-1.327,0.873-2.1,1.452l-2.349,1.859
						c-0.382,0.348-0.833,0.72-1.402,1.163l-0.999,0.746l-1.208,0.874c-1.737,1.26-4.053,2.86-6.739,5.282
						c-0.722,0.654-1.501,1.433-2.24,2.165c-0.78,0.839-1.563,1.728-2.323,2.652c-0.773,1.036-1.535,2.046-2.242,3.189
						c-0.688,1.188-1.395,2.364-1.954,3.654c-1.169,2.567-1.993,5.31-2.451,7.948c-0.104,0.648-0.196,1.3-0.277,1.955
						c-0.076,0.646-0.167,1.34-0.176,1.916c-0.049,1.205-0.063,2.419-0.041,3.632l0.351,18.449l21.031-0.05
						c0.364,0,0.735-0.001,1.114-0.002c-3.656-0.812-7.313-1.623-11.205-2.487C195.692,233.813,195.978,233.976,196.263,234.138z"/>
				</g>
			</g>
		</g>
	</g>
</g>
</svg>
