<?xml version="1.0" encoding="utf-8"?>
<!-- Generator: Adobe Illustrator 16.0.0, SVG Export Plug-In . SVG Version: 6.00 Build 0)  -->
<!DOCTYPE svg PUBLIC "-//W3C//DTD SVG 1.1//EN" "http://www.w3.org/Graphics/SVG/1.1/DTD/svg11.dtd">
<svg version="1.1" xmlns="http://www.w3.org/2000/svg" xmlns:xlink="http://www.w3.org/1999/xlink" x="0px" y="0px" width="500px"
	 height="500px" viewBox="0 0 500 500" enable-background="new 0 0 500 500" xml:space="preserve">
<g id="Layer_1">
	<g>
		<g>
			<g>
				<path fill="#231F20" d="M268.696,279.792l0.202-0.004C268.808,279.781,268.749,279.755,268.696,279.792z"/>
				<path fill="#231F20" d="M239.583,278.948l0.063-0.156C239.591,278.844,239.58,278.898,239.583,278.948z"/>
				<path fill="#231F20" d="M232.819,292.706l-0.177,0.012C232.726,292.727,232.779,292.72,232.819,292.706z"/>
				<g>
					<path fill="#231F20" d="M244.905,293.808c5.45,0.227,10.918,0.004,16.323-0.702c5.57-0.732,11.068-1.823,16.733-2.128
						c2.993-0.093,5.973-0.186,8.951-0.277c1.486-0.055,2.98-0.114,4.459-0.212c1.46-0.114,2.921-0.253,4.384-0.431
						c2.923-0.358,5.909-0.551,8.855-0.658c1.497-0.076,2.995-0.151,4.498-0.228c1.508-0.062,3.021-0.111,4.545-0.271
						c2.936-0.254,5.883-0.831,8.576-1.377c1.376-0.286,2.764-0.521,4.164-0.674c1.397-0.151,2.807-0.297,4.212-0.245
						c1.503,0.051,2.994,0.196,4.484,0.279c0.717,0.052,4.295-0.813,5.038-1.229c0.337-0.186-1.793-1.113-2.408-1.358
						c-1.979-0.861-5.148-1.72-6.776-1.966c-1.651-0.267-2.858-0.372-4.077-0.46c-1.218-0.068-2.446-0.128-4.127-0.038
						c-1.729,0.088-3.448,0.176-5.159,0.264c-1.672,0.067-3.334,0.126-4.991,0.159c-1.652,0.072-3.324-0.083-4.981-0.182
						c-1.655-0.113-3.313-0.284-5.013-0.58c-5.381-0.919-11.346,0.025-16.766-0.442c-2.978-0.228-5.946-0.554-8.912-0.805
						c-1.483-0.126-2.965-0.233-4.448-0.3c-1.486-0.078-2.99-0.19-4.489-0.201c-6.391-0.082-12.737-1.044-19.122-1.067
						c-3.148-0.011-6.295,0.036-9.444,0.068c-3.146-0.059-6.293-0.154-9.441-0.324c-3.673-0.201-7.345-0.462-11.008-0.78
						c-4.645-0.407-9.228-0.628-13.931-0.863l-14.139-0.68c-8.466-0.452-16.487-2.246-24.705-2.47
						c-2.199-0.019-4.71-0.265-7.221-0.083c-2.498,0.148-4.921,0.516-6.982,1.745c-0.998,0.591-1.493,1.829-1.687,2.958
						c0.298-1.855,4.536,2.722,4.903,2.961c2.006,1.458,4.365,2.117,6.59,3.149c2.161,1.004,4.208,1.97,6.319,2.879
						c2.116,0.913,4.273,1.626,6.645,1.985c9.945,1.495,19.73,1.531,29.377,2.168c8.37,0.472,16.87,0.709,25.29,1.284
						c2.522,0.171,5.085,0.407,7.67,0.649C239.679,293.586,242.294,293.676,244.905,293.808z"/>
				</g>
			</g>
		</g>
	</g>
	<g>
		<g>
			<g>
				<path fill="#231F20" d="M134.237,394.029l-0.079,0.182C134.201,394.133,134.249,394.092,134.237,394.029z"/>
				<path fill="#231F20" d="M145.19,367.513l0.131,0.103C145.289,367.548,145.239,367.522,145.19,367.513z"/>
				<path fill="#231F20" d="M133.46,357.729l0.026-0.158C133.46,357.643,133.456,357.691,133.46,357.729z"/>
				<g>
					<path fill="#231F20" d="M129.471,367.956c-0.939,2.285-1.706,4.628-2.48,6.979c-0.809,2.339-1.409,4.756-2.083,7.158
						c-0.656,2.488-1.2,5.033-1.946,7.521c-0.361,1.247-0.736,2.494-1.171,3.721c-0.458,1.216-0.96,2.418-1.53,3.593
						c-2.412,4.983-5.207,9.715-7.554,14.772c-2.413,5.068-5.371,9.644-8.558,14.269c-3.038,4.473-5.087,9.598-8.551,13.803
						c-0.929,1.119-1.94,2.169-2.899,3.263c-0.118,0.134-0.29,0.449-0.482,0.859c-0.045,0.101-0.092,0.207-0.141,0.316
						c-0.018,0.068-0.037,0.141-0.057,0.214c-0.038,0.156-0.078,0.319-0.118,0.482c-0.111,0.752-0.642,1.17-0.786,1.517
						c-0.069,0.143,0.396,0.207,0.935,0.274c0.561,0.084,1.177-0.074,1.376-0.22c0.383-0.195,0.805-0.419,1.313-0.768
						c0.505-0.343,1.025-0.707,1.527-1.07c1.002-0.725,1.928-1.444,2.499-1.975c2.29-2.163,3.355-3.178,5.308-5.675
						c4.028-5.17,7.736-10.353,12.281-15.184c1.82-1.967,3.301-4.232,4.704-6.554c1.363-2.35,2.729-4.699,4.218-6.938
						c1.639-2.41,3.361-4.779,4.942-7.25c1.63-2.438,3.092-4.992,4.354-7.654c2.617-5.688,5.902-11.113,8.002-17.096
						c2.144-5.857,3.685-11.917,5.379-17.927l1.41-5.291l0.683-2.474c0.215-0.792,0.463-1.606,0.717-2.42
						c1.266-4.106,2.569-8.425,3.636-13.021c1.053-4.603,1.857-9.515,1.959-14.693c0.076-1.631-0.004-3.298-0.038-4.963
						c-0.022-0.832-0.137-1.673-0.201-2.512c-0.072-0.841-0.14-1.684-0.309-2.519l-0.444-2.52c-0.187-0.832-0.431-1.65-0.656-2.479
						c-0.229-0.827-0.458-1.659-0.793-2.441l-0.841-2.102c0.012-0.021,0.03,0.006,0.026-0.044c0.001-0.016-0.029-0.131-0.054-0.231
						l-0.088-0.343l-0.423-1.606c-0.301-1.103-0.631-2.231-1.003-3.353c-1.305-3.956-2.815-9.553-6.319-12.024
						c-0.2-0.108-0.434-0.195-0.691-0.267l-0.197-0.05c-0.066-0.011-0.138-0.054-0.194,0.021c-0.12,0.093-0.256,0.162-0.398,0.212
						c-0.578,0.194-1.214,0.067-1.773-0.029c0.23,0.043,0.395,0.062,0.48,0.027c0.043-0.012,0.059-0.053,0.056-0.058
						c0.015,0.075,0.016,0.163,0.004,0.261c-0.059,0.368-0.251,1.012-0.514,1.667c-0.504,1.328-1.217,2.792-1.268,2.979
						c-0.614,2.269-0.537,4.61-0.737,6.916c-0.164,1.88-0.413,3.705-0.584,5.54c-0.086,0.916-0.148,1.841-0.166,2.78
						c0.005,0.498-0.009,0.932,0.042,1.492c0.028,0.481,0.225,1.423,0.489,2.173l0.072,0.174l0.035,0.079l0.001,0.007l0.005,0.025
						l0.009,0.051l0.02,0.103l0.041,0.204l0.093,0.41c0.067,0.273,0.145,0.546,0.233,0.816c1.078,3.593,1.589,7.103,1.517,10.898
						c-0.049,3.781-0.633,7.812-1.646,12.05c-0.863,3.606-1.925,7.357-2.981,11.304l-0.784,3.002l-0.754,3.063l-1.459,5.537
						c-0.636,2.193-1.433,4.385-2.186,6.602C131.147,363.535,130.309,365.746,129.471,367.956z"/>
				</g>
			</g>
		</g>
	</g>
	<g>
		<g>
			<g>
				<path fill="#231F20" d="M126.695,126.284l0.303,0.445C126.87,126.524,126.803,126.378,126.695,126.284z"/>
				<path fill="#231F20" d="M110.74,73.046l0.163,0.113C110.845,73.049,110.789,73.033,110.74,73.046z"/>
				<path fill="#231F20" d="M96.561,59.514l0.018-0.419C96.555,59.294,96.553,59.419,96.561,59.514z"/>
				<g>
					<path fill="#231F20" d="M96.732,86.246c0.309,5.74,0.764,11.502,1.243,17.102c0.11,1.375,0.272,2.865,0.347,4.11l0.15,1.944
						l0.04,0.487l0.055,0.863c0.033,0.644,0.116,1.289,0.245,1.936c0.227,1.294,0.651,2.533,1.146,3.687
						c0.519,1.117,1.117,2.16,1.754,3.041c1.276,1.789,2.625,3.115,3.883,4.243c2.61,2.292,4.932,3.875,6.928,5.538
						c1.997,1.639,3.661,3.275,4.955,5.125c0.637,0.927,1.178,1.909,1.628,2.952c0.228,0.52,0.419,1.062,0.593,1.615
						c0.103,0.271,0.153,0.563,0.233,0.845c0.073,0.285,0.146,0.546,0.232,0.944c0.657,2.919,1.269,5.852,1.814,8.812
						c2.374,12.523,5.07,24.62,7.403,36.782c2.412,12.372,3.992,24.582,5.685,37.111c0.423,3.038,0.832,5.985,1.324,8.965
						l0.367,2.228l0.292,2.2l0.298,2.201l0.284,2.289c0.775,6.121,1.724,12.168,2.328,18.294c0.178,1.643,0.355,3.278,0.532,4.914
						l0.258,2.46l0.351,2.463c0.143,0.807,0.732,3.195,1.574,5.532c0.838,2.34,1.732,4.641,2.118,5.362
						c0.348,0.649,0.115-4.24,0.043-5.569c-0.08-1.096-0.116-2.343-0.138-3.646c-0.042-1.295-0.086-2.647-0.128-3.971
						c-0.079-2.64-0.082-5.161-0.201-6.854c-0.161-3.436-0.278-5.954-0.397-8.493c-0.104-2.536-0.279-5.082-0.56-8.573
						c-0.104-1.81-0.208-3.614-0.311-5.414c-0.137-1.831-0.211-3.687-0.423-5.48c-0.364-3.606-0.728-7.198-1.09-10.785
						c-0.733-7.136-1.358-14.266-1.737-21.483c-0.154-2.917-0.421-5.856-0.755-8.806c-0.168-1.476-0.346-2.951-0.546-4.434
						c-0.234-1.495-0.469-2.993-0.704-4.492c-0.492-2.993-0.985-5.991-1.476-8.978c-0.553-2.956-1.077-5.905-1.522-8.843
						l-1.396-9.454c-0.219-1.57-0.472-3.146-0.665-4.709l-0.57-4.684l-0.598-4.677l-0.314-2.335
						c-0.146-0.955-0.286-1.97-0.529-2.951c-0.875-3.959-2.747-7.825-5.153-10.944c-2.536-3.354-5.442-5.989-7.887-8.3
						c-1.225-1.154-2.33-2.23-3.142-3.192c-0.843-0.968-1.282-1.774-1.439-2.272c-0.067-0.249-0.084-0.44-0.095-0.642
						c-0.002-0.052,0.015-0.112,0.013-0.166l-0.004-0.379l-0.005-1.387l-0.022-2.771l-0.09-2.603
						c-0.115-3.492-0.319-6.885-0.559-10.315c-0.479-6.708-1.062-13.422-1.472-20.025c-0.125-1.672-0.188-3.281-0.262-4.904
						l-0.109-2.434l0.008-2.153c-0.052-1.408,0.13-2.935,0.303-4.391c0.095-0.732,0.224-1.453,0.337-2.179
						c0.155-0.707,0.283-1.427,0.455-2.123c0.8-3.248,2.005-6.263,3.625-8.662c1.607-2.435,3.646-4.065,6.016-5.072
						c0.387-0.142,0.768-0.292,1.146-0.452c0.387-0.147,0.833-0.193,1.242-0.307c0.428-0.079,0.807-0.253,1.269-0.277l1.356-0.134
						l0.676-0.081c0.094-0.017,0.254-0.026,0.422-0.034l0.483-0.027l1.936-0.111l3.755-0.261c4.93-0.361,9.667-0.686,14.306-0.679
						c9.248-0.023,18.14,1.378,25.737,5.32c0.43,0.219,0.867,0.425,1.291,0.653l1.222,0.766c0.803,0.522,1.655,0.98,2.393,1.576
						l1.142,0.851l1.146,0.95c0.762,0.607,1.529,1.334,2.291,2.007c3.056,2.789,6.097,5.961,9.345,9.132
						c3.258,3.176,6.715,6.418,10.839,9.396c1.014,0.749,2.156,1.446,3.24,2.158c1.197,0.657,2.321,1.354,3.616,1.937
						c1.289,0.586,2.569,1.171,4.021,1.6l1.06,0.34l0.531,0.166l0.436,0.102l1.727,0.39c2.435,0.532,5.109,1.17,7.816,1.706
						c2.657,0.474,5.435,0.924,8.119,1.288c2.587,0.378,5.157,0.663,7.609,0.782c2.37,0.244,4.622,0.341,6.697,0.176
						c2.012-0.159,3.004-1.216,3.383-2.297c-0.317,0.885-2.605-0.331-4.972-1.841c-1.182-0.755-2.384-1.583-3.34-2.248
						c-0.972-0.6-1.688-1.05-1.863-1.138c-2.119-1.053-4.425-2.017-6.755-2.889c-2.322-0.858-4.68-1.679-6.965-2.554
						c-2.165-0.913-4.241-1.847-6.286-2.763l-1.527-0.685c-0.547-0.219-0.939-0.47-1.332-0.71c-0.399-0.245-0.794-0.458-1.185-0.709
						l-1.164-0.831c-3.084-2.209-6.02-5.154-9.455-8.316c-3.601-3.329-7.197-7.047-11.131-10.74
						c-2.004-1.851-4.028-3.716-6.359-5.523c-0.555-0.456-1.151-0.903-1.778-1.343c-0.621-0.432-1.22-0.905-1.862-1.297
						c-1.282-0.789-2.562-1.589-3.863-2.345c-5.281-2.921-11.021-4.908-16.771-6.086c-5.759-1.188-11.526-1.604-17.14-1.622
						c-4.775-0.022-9.447,0.278-13.941,0.627c-2.245,0.17-4.458,0.364-6.56,0.494l-0.797,0.054c-0.254,0.016-0.687,0.07-1.021,0.105
						l-2.144,0.256c-1.416,0.107-2.88,0.582-4.314,0.939c-0.359,0.101-0.719,0.185-1.075,0.305l-1.062,0.426l-2.11,0.886
						c-0.704,0.291-1.348,0.737-2.018,1.111c-0.654,0.405-1.343,0.765-1.952,1.228l-1.805,1.425
						c-0.293,0.244-0.605,0.475-0.879,0.734l-0.796,0.802l-1.567,1.628l-1.354,1.741l-0.666,0.878
						c-0.209,0.297-0.387,0.603-0.58,0.905l-1.124,1.828c-0.345,0.615-0.639,1.239-0.956,1.861
						c-0.313,0.623-0.629,1.247-0.868,1.876c-1.102,2.514-1.842,5.044-2.496,7.568c-0.715,3.017-1.197,6.044-1.485,9.089
						c-0.096,1.559-0.125,3.161-0.178,4.749c0.017,1.423,0.034,2.85,0.051,4.279C96.198,75.193,96.445,80.707,96.732,86.246z"/>
				</g>
			</g>
		</g>
	</g>
	<g>
		<g>
			<g>
				<path fill="#231F20" d="M232.294,120.632l0.161-0.007C232.383,120.62,232.335,120.594,232.294,120.632z"/>
				<path fill="#231F20" d="M204.298,123.768l-0.01-0.178C204.245,123.678,204.263,123.73,204.298,123.768z"/>
				<path fill="#231F20" d="M211.868,135.832l0.015,0.018C211.89,135.847,211.882,135.84,211.868,135.832z"/>
				<g>
					<path fill="#231F20" d="M214.014,135.613c1.932-0.279,3.863-0.558,5.791-0.836l1.387-0.21c0.442-0.043,0.886-0.097,1.334-0.161
						l0.674-0.104l0.917-0.085l1.829-0.207c5.018-0.648,9.801-2.038,14.635-2.569c5.132-0.536,10.187-1.082,15.117-2.36
						c1.234-0.33,2.465-0.617,3.696-0.873c1.22-0.245,2.379-0.393,3.576-0.558c1.188-0.156,2.381-0.292,3.578-0.417
						c1.196-0.125,2.45-0.159,3.685-0.238c2.396-0.119,4.744-0.616,7.126-0.974c2.38-0.36,4.768-0.676,7.182-0.575
						c1.289,0.056,2.57,0.245,3.854,0.353c0.63,0.056,3.761-0.947,4.367-1.376c0.276-0.196-1.618-1.056-2.148-1.281
						c-1.73-0.739-4.399-1.697-5.771-1.969c-2.77-0.512-4.065-0.734-6.889-0.789c-5.856-0.057-11.465,0.053-17.547-0.438
						c-0.613-0.058-1.229-0.087-1.844-0.094c-0.589,0.005-1.169,0.035-1.752,0.08c-1.163,0.084-2.329,0.255-3.485,0.402
						c-1.157,0.155-2.316,0.311-3.471,0.466c-1.154,0.123-2.306,0.21-3.455,0.226c-4.983,0.03-9.876-0.538-14.683-0.424
						c-1.278,0.003-2.561-0.011-3.829-0.116l-3.792-0.417c-3.264-0.354-6.447-0.349-9.459,0.074l-2.178,0.371l-0.543,0.097
						c-0.178,0.031-0.351,0.061-0.604,0.121l-1.394,0.331c-1.862,0.543-3.803,1.204-5.968,2.688
						c-2.031,1.403-3.727,3.245-4.845,5.395c-1.128,2.145-1.632,4.583-1.533,7.004c0.055,1.415,0.321,2.825,0.755,4.184l0.358,1.012
						c0.124,0.34,0.255,0.678,0.39,0.937c0.269,0.556,0.546,1.124,0.836,1.657c0.588,0.971,1.195,1.938,1.885,2.764
						c0.337,0.427,0.676,0.865,1.021,1.277l1.054,1.106c0.894,0.981,1.809,1.703,2.734,2.507c0.92,0.727,1.853,1.421,2.78,2.056
						c1.851,1.243,3.71,2.359,5.521,3.348c3.625,2.011,7.181,3.74,10.346,5.618c2.841,1.672,5.254,3.771,6.573,5.553l0.134,0.164
						l0.256,0.29l0.738,0.792l0.377,0.391l0.339,0.316l0.685,0.625c0.897,0.787,1.751,1.453,2.574,2.041
						c1.653,1.185,3.241,2.143,4.814,2.96c1.658,0.86,3.464,1.875,5.12,2.548c1.686,0.692,3.096,0.958,4.616,0.605
						c0.691-0.204,2.011-0.57,3.055-1.018c-0.909,0.355-0.624-0.383-0.685-1.653c-0.013-0.618-0.084-1.304-0.133-1.884
						c-0.076-0.552-0.142-0.982-0.17-1.068c-0.722-2.101-2.248-3.729-3.509-5.438c-1.232-1.664-2.345-3.319-3.438-4.853
						c-1.076-1.522-2.218-2.96-3.119-3.966l-0.337-0.375c-0.057-0.1-0.117-0.194-0.179-0.283l-0.099-0.132l-0.347-0.389
						l-0.706-0.772c-0.476-0.521-0.96-1.024-1.439-1.435l-1.462-1.291c-1.937-1.54-3.915-2.903-5.825-4.026
						c-3.85-2.32-7.592-4.137-11.006-6.08c-2.886-1.635-5.588-3.279-7.558-4.95c-0.259-0.207-0.433-0.415-0.658-0.617
						c-0.194-0.203-0.474-0.406-0.607-0.601c-0.298-0.391-0.685-0.759-0.883-1.132c-0.501-0.854-0.4-0.709-0.4-0.873
						c0.03-0.14,0.199-0.226,0.325-0.199c0.033,0.006,0.063,0.016,0.089,0.031l0.036,0.022c0.037,0.004,0.131-0.01,0.187-0.024
						c0.073-0.042,0.371-0.08,0.591-0.14C213.429,135.684,213.752,135.676,214.014,135.613z"/>
				</g>
			</g>
		</g>
	</g>
	<g>
		<g>
			<g>
				<path fill="#231F20" d="M410.833,441.951l0.446,0.914C411.086,442.45,410.98,442.171,410.833,441.951z"/>
				<path fill="#231F20" d="M356.25,309.515l0.211,0.209C356.356,309.508,356.293,309.48,356.25,309.515z"/>
				<path fill="#231F20" d="M344.279,279.07l0.174-0.863C344.355,278.617,344.307,278.875,344.279,279.07z"/>
				<g>
					<path fill="#231F20" d="M351.267,340.497l2.896,9.755c0.929,3.291,2.079,6.516,3.187,9.751
						c2.131,6.501,4.73,12.829,7.26,19.162c1.376,3.118,2.752,6.235,4.126,9.349c0.35,0.775,0.683,1.559,1.046,2.326l1.129,2.28
						l2.263,4.552c1.519,3.025,3.034,6.048,4.549,9.067c1.608,2.934,3.214,5.864,4.817,8.791c3.85,6.924,7.691,13.831,11.534,20.742
						c1.813,3.464,3.626,6.928,5.44,10.396l2.83,5.43c0.322,0.64,0.491,0.868,0.706,1.211c0.093,0.127,0.217,0.243,0.269,0.396
						c0.045,0.152,0.059,0.311,0.076,0.471l0.035,0.913c1.576-1.757,3.151-3.515,4.733-5.278c-2.895,0.438-5.794,0.875-8.696,1.314
						c-0.295,0.059-0.57,0.039-0.879,0.162l-0.917,0.327l-1.096,0.402c-0.563,0.203-1.103,0.442-1.685,0.627l-1.811,0.459
						c-0.602,0.158-1.201,0.324-1.861,0.412c-5.096,0.968-10.885,1.049-17.104,2.013c-4.216,0.831-7.381,1.559-10.893,2.313
						l-1.295,0.282l-1.318,0.212l-2.635,0.422c-1.762,0.266-3.501,0.601-5.28,0.811c-7.104,0.896-14.251,1.57-21.518,2.114
						l-10.917,0.889c-3.66,0.348-7.326,0.67-11.003,1.113c-3.675,0.478-7.399,0.937-10.958,1.491l-5.396,0.809l-5.384,0.748
						c-7.227,1.04-14.385,1.734-21.52,2.165l-2.91,0.219c-1.004,0.102-1.991,0.242-2.948,0.397
						c-1.922,0.318-3.714,0.706-5.453,1.041c-1.71,0.329-3.334,0.576-4.795,0.643c-1.461,0.057-2.636-0.161-3.607-0.603
						c-0.51-0.175-0.919-0.559-1.382-0.87c-0.401-0.458-0.866-0.809-1.229-1.419c-0.188-0.286-0.41-0.52-0.583-0.841l-0.516-0.978
						c-0.355-0.587-0.693-1.461-1.039-2.217l-0.512-1.165l-0.327-1.004c-0.286-0.654-0.32-1.358-0.453-2.042
						c-0.189-1.546-0.236-3.258-0.448-5.32c-0.182-1.984-0.559-4.015-1.126-6.06c-0.658-2.038-1.438-4.136-2.859-6.069
						c-1.359-1.93-3.239-3.665-5.413-4.813c-2.181-1.127-4.491-1.673-6.691-1.903c-2.141-0.241-4.165-0.112-6.131,0.092
						l-1.459,0.189l-1.328,0.189l-2.619,0.382c-3.489,0.524-6.976,1.05-10.461,1.574c-6.958,1.152-13.958,1.958-20.941,2.908
						c-6.979,1-14.001,1.604-21.015,2.319l-5.265,0.499c-1.756,0.16-3.518,0.248-5.277,0.368c-3.521,0.222-7.044,0.424-10.57,0.601
						c-1.882,0.088-3.762,0.176-5.639,0.265c-1.953,0.142-3.995,0.19-5.94,0.481c-3.948,0.443-7.783,1.245-11.537,2.144
						c-1.877,0.404-7.272,2.205-12.514,3.945c-1.308,0.407-2.597,0.753-3.844,1.125c-0.623,0.184-1.233,0.362-1.822,0.536
						c-0.626,0.201-1.231,0.396-1.807,0.581c-2.298,0.744-4.112,1.359-4.992,1.696c-0.801,0.307,1.605-0.041,4.561-0.52
						c0.737-0.121,1.511-0.249,2.282-0.377c0.747-0.107,1.491-0.215,2.192-0.315c1.402-0.204,2.634-0.384,3.381-0.492
						c4.902-0.896,11.121-2.369,17.132-3.353c3-0.52,5.957-0.84,8.636-1.046c2.682-0.146,5.092-0.177,7.085-0.223
						c8.011-0.218,13.895-0.315,19.817-0.603c5.917-0.358,11.886-0.749,20.084-1.418c4.226-0.434,8.438-0.865,12.639-1.296
						c4.202-0.428,8.396-0.839,12.562-1.414c4.173-0.53,8.337-1.06,12.496-1.588l3.119-0.393l1.474-0.168
						c0.482-0.063,0.96-0.105,1.432-0.118c1.891-0.107,3.753-0.043,5.395,0.387c1.648,0.417,3.057,1.15,4.164,2.224
						c1.114,1.067,1.943,2.498,2.555,4.119l0.424,1.246l0.304,1.331l0.153,0.664l0.096,0.697l0.195,1.392
						c0.082,0.958,0.128,1.892,0.194,2.887c0.065,1.108,0.081,2.157,0.188,3.32c0.183,1.241,0.304,2.509,0.74,3.689
						c0.188,0.575,0.363,1.258,0.576,1.743l0.625,1.529c0.222,0.519,0.39,1.002,0.657,1.55l0.827,1.649
						c0.247,0.552,0.625,1.093,0.993,1.634c0.39,0.534,0.683,1.093,1.192,1.593c0.478,0.507,0.928,1.03,1.457,1.503
						c0.571,0.448,1.156,0.888,1.75,1.312c0.646,0.353,1.312,0.686,1.981,1.005c0.68,0.253,1.378,0.453,2.076,0.66
						c2.801,0.645,5.363,0.472,7.648,0.234c3.729-0.425,6.923-1.14,9.939-1.369c3.378-0.146,6.772-0.294,10.179-0.441
						c3.51-0.211,7.002-0.572,10.517-0.873c3.48-0.412,6.969-0.825,10.459-1.238c3.448-0.446,6.977-0.964,10.36-1.359
						c3.393-0.396,6.766-0.838,10.202-1.096c1.71-0.146,3.419-0.293,5.126-0.439c1.723-0.118,3.442-0.237,5.159-0.355
						c3.454-0.216,6.896-0.431,10.323-0.645l9.354-0.631c3.129-0.249,6.277-0.583,9.419-0.87c3.151-0.412,6.311-0.829,9.469-1.293
						l9.32-1.771l1.972-0.346c0.656-0.119,1.39-0.156,2.079-0.24c1.364-0.17,2.872-0.25,4.35-0.35l4.651-0.282
						c1.65-0.149,3.224-0.204,4.963-0.468l2.562-0.344l2.643-0.563l1.32-0.292c0.442-0.114,0.889-0.279,1.332-0.419l1.332-0.443
						l0.635-0.215l-0.002,0.003c2.774-0.31,5.55-0.62,8.327-0.93l5.604-0.627l0.054-5.682l0.012-1.346l0.007-0.673l-0.04-0.82
						c-0.036-1.106-0.274-2.209-0.725-3.208c-0.096-0.256-0.251-0.492-0.378-0.738c-0.138-0.249-0.28-0.498-0.367-0.635
						l-0.303-0.502c-0.095-0.159-0.228-0.365-0.251-0.437l-0.651-1.362c-1.092-2.284-2.186-4.574-3.28-6.865l-2.614-5.454
						c-0.867-1.819-1.723-3.649-2.646-5.412l-5.407-10.688l-5.296-10.602l-2.631-5.29c-0.866-1.766-1.64-3.548-2.463-5.32
						l-4.878-10.641c-1.53-3.581-2.976-7.193-4.479-10.783c-0.778-1.785-1.403-3.628-2.1-5.443l-2.056-5.461l-1.024-2.731
						l-0.935-2.765l-1.886-5.524c-1.31-3.609-2.327-7.315-3.469-10.979l-1.717-5.611l-0.957-3.049l-1.044-2.924
						c-2.838-7.695-5.972-14.592-7.431-21.276c-0.665-3.243-0.979-6.446-0.809-9.92c0.177-3.452,0.662-7.014,1.356-10.665
						c1.631-7.639,3.262-15.279,4.895-22.925c0.926-4.483,1.847-8.983,2.828-13.38l1.454-6.631l1.638-6.515l3.369-13.396
						l0.852-3.411l0.755-3.372l1.512-6.743l1.902-8.375c0.322-1.387,0.616-2.799,0.96-4.166l1.066-4.066l2.214-8.535
						c0.707-3.056,1.238-5.885,1.802-8.768l3.229-16.962c1.11-5.574,2.27-11.168,3.69-16.332c0.377-1.211,0.74-2.526,1.138-3.502
						c0.094-0.239,0.197-0.583,0.279-0.737c0.08-0.142,0.151-0.286,0.216-0.434l0.092-0.227c0.04-0.089,0.165-0.265,0.243-0.393
						l0.534-0.837c0.708-1.122,1.413-2.248,2.178-3.272c0.731-1.082,1.521-2.058,2.306-3.036c0.811-0.954,1.604-1.877,2.502-2.762
						c0.421-0.442,0.898-0.9,1.388-1.36l1.572-1.481c0.257-0.233,0.591-0.571,0.895-0.872c0.315-0.321,0.607-0.586,0.938-0.955
						c0.662-0.755,1.324-1.456,1.936-2.369c0.301-0.438,0.63-0.866,0.892-1.32l0.757-1.377l0.367-0.694l0.284-0.673l0.55-1.353
						c0.198-0.462,0.331-0.889,0.455-1.311l0.386-1.279c0.283-0.875,0.433-1.659,0.62-2.47c0.401-1.644,0.62-3.163,0.887-4.717
						c0.258-1.548,0.409-3.025,0.618-4.542c0.188-1.498,0.337-2.913,0.497-4.384c0.624-5.837,1.142-11.731,1.387-17.723
						c0.227-5.42,0.254-10.896-0.29-16.634c-0.32-2.879-0.78-5.891-1.75-9.039c-0.887-2.806-1.997-5.606-3.426-8.337
						c-1.429-2.728-3.184-5.39-5.333-7.829c-2.146-2.433-4.688-4.648-7.548-6.384c-2.827-1.76-6.043-3.01-8.97-3.85
						c-2.925-0.792-5.777-1.352-8.568-1.749c-11.135-1.503-21.762-1.33-32.343-0.879l-3.946,0.206l-1.004,0.058
						c-0.56,0.051-1.119,0.113-1.677,0.186c-1.127,0.188-2.279,0.45-3.369,0.857c-2.198,0.783-4.086,1.951-5.603,3.116
						c-1.482,1.168-2.676,2.333-3.754,3.453c-2.098,2.228-3.773,4.294-5.447,6.297c-1.647,1.972-3.315,4.04-4.841,5.614
						c-0.41,0.448-0.825,0.902-1.244,1.36c-0.428,0.457-0.935,0.896-1.405,1.352c-0.969,0.897-1.911,1.851-2.943,2.754
						c-2.121,1.752-4.246,3.645-6.595,5.267c-2.404,1.852-4.319,3.078-6.925,4.43c-2.538,1.334-5.319,2.605-8.197,3.94
						c-1.443,0.677-2.892,1.348-4.385,2.096c-0.675,0.332-1.346,0.662-2.015,0.991c-0.622,0.293-1.213,0.628-1.853,0.894
						c-1.269,0.542-2.503,1.139-3.785,1.599c-0.634,0.25-1.264,0.498-1.889,0.744c-0.637,0.218-1.269,0.434-1.895,0.648
						c-5.022,1.706-9.864,2.913-14.181,3.755c-4.182,0.719-5.637,1.907-5.729,3.072c0.044-0.468,1.53-0.539,3.779-0.372
						c1.126,0.127,2.446,0.134,3.881,0.203c0.72,0.039,1.466,0.08,2.228,0.122c0.763-0.001,1.541-0.003,2.322-0.005
						c6.276,0.075,12.929-0.862,13.801-1.094c2.676-0.53,5.372-1.357,8.073-2.315c2.631-0.929,5.303-1.873,7.991-2.823
						c2.714-0.962,5.459-2.016,8.187-3.261c1.365-0.601,2.726-1.335,4.065-2.074c1.252-0.778,2.501-1.554,3.741-2.325
						c0.604-0.374,1.207-0.746,1.808-1.117c0.588-0.388,1.149-0.806,1.724-1.206c1.147-0.811,2.287-1.616,3.423-2.418
						c1.121-0.827,2.184-1.727,3.276-2.587l1.627-1.304c0.537-0.446,1.044-0.945,1.567-1.417c1.017-0.953,2.131-1.923,3.066-2.874
						l2.813-2.855c1.848-1.891,3.657-3.787,5.399-5.398c1.736-1.642,3.413-2.766,4.494-3.015c0.142-0.017,0.276-0.042,0.407-0.077
						c0.138-0.013,0.277-0.012,0.41-0.033l1.26-0.007c1.332-0.008,2.671-0.015,4.018-0.023c5.366-0.014,10.828-0.011,16.418,0.167
						c2.93,0.084,5.832,0.242,8.668,0.509c2.842,0.252,5.63,0.617,8.228,1.161c2.607,0.543,5.009,1.225,6.862,2.168
						c1.944,0.938,3.636,2.258,5.165,3.85c1.521,1.601,2.821,3.552,3.945,5.703c0.538,1.099,1.063,2.22,1.504,3.415
						c0.462,1.162,0.881,2.491,1.12,3.473c0.547,2.202,0.86,4.874,1.036,7.593c0.186,2.73,0.176,5.596,0.132,8.462
						c-0.124,5.759-0.573,11.637-1.171,17.542c-0.3,2.93-0.63,6.003-1.012,8.773c-0.16,1.449-0.433,2.741-0.646,4.108
						c-0.122,0.66-0.278,1.251-0.41,1.881c-0.124,0.655-0.297,1.183-0.46,1.714l-0.238,0.803l-0.271,0.645
						c-0.156,0.481-0.364,0.779-0.534,1.116c-0.398,0.641-0.734,1.126-1.646,2.001c-0.361,0.375-0.965,0.924-1.481,1.41
						l-1.779,1.692l-1.833,1.872l-1.761,1.971c-1.09,1.35-2.225,2.701-3.174,4.091c-0.49,0.692-0.997,1.382-1.469,2.078
						l-1.344,2.099l-0.67,1.05l-0.341,0.542l-0.425,0.812c-0.279,0.544-0.55,1.094-0.81,1.646c-0.221,0.505-0.351,0.903-0.528,1.361
						l-0.493,1.333c-0.169,0.451-0.265,0.829-0.399,1.247c-0.244,0.812-0.518,1.649-0.734,2.442
						c-1.481,5.39-2.558,10.55-3.604,15.725c-1.033,5.161-1.978,10.295-2.923,15.38l-1.438,7.536
						c-0.242,1.251-0.499,2.434-0.756,3.598l-0.866,3.444l-1.991,7.781l-0.496,1.945l-0.425,1.923l-0.845,3.846l-3.306,15.197
						c-0.53,2.53-1.182,4.92-1.766,7.387l-1.839,7.469c-1.28,5.154-2.613,10.317-3.663,15.438
						c-1.144,5.152-2.197,10.225-3.255,15.297c-0.625,3.055-1.308,6.029-1.975,9.05c-0.672,3.014-1.334,6.011-2.08,9.172
						c-1.426,6.313-2.747,13.146-2.779,20.519c0.001,0.92,0.071,1.861,0.109,2.792c0.06,0.936,0.059,1.862,0.22,2.811
						c0.261,1.884,0.494,3.819,0.943,5.54c0.205,0.881,0.392,1.783,0.619,2.646l0.736,2.541c0.471,1.73,1.065,3.277,1.6,4.921
						C347.271,329.242,349.702,334.997,351.267,340.497z"/>
				</g>
			</g>
		</g>
	</g>
	<g>
		<g>
			<g>
				<path fill="#231F20" d="M228.015,214.208l0.195-0.001C228.123,214.199,228.066,214.171,228.015,214.208z"/>
				<path fill="#231F20" d="M212.044,211.149l0.181-0.018C212.166,211.133,212.103,211.14,212.044,211.149z"/>
				<path fill="#231F20" d="M200.229,203.036c-0.006-0.003,0.162-0.276,0.162-0.276C200.294,202.881,200.25,202.966,200.229,203.036
					z"/>
				<g>
					<path fill="#231F20" d="M196.2,222.98l0.027,1.843l1.668-0.114l0.835-0.059c0.291-0.023,0.435-0.004,0.659-0.009l2.47,0.008
						h2.474l1.736,0.639c1.125,0.416,2.401,0.895,3.313,1.088c0.741,0.174,1.488,0.362,2.221,0.467
						c2.955,0.515,5.828,0.606,8.54,0.444c5.872-0.368,11.09-1.774,16.156-1.428c2.958,0.107,5.904,0.374,8.836,0.396
						c1.465-0.002,2.929-0.017,4.393-0.057l2.196-0.083l2.185-0.216c2.931-0.329,5.815-0.46,8.684-0.671
						c1.437-0.085,2.874-0.15,4.318-0.205c1.438-0.083,2.883-0.166,4.338-0.249c2.813-0.137,5.57-0.672,8.321-1.174
						c2.759-0.477,5.494-0.981,8.292-1.051c1.495-0.032,2.987,0.019,4.477,0c0.734-0.007,4.27-1.316,4.927-1.803
						c0.3-0.222-1.95-0.893-2.573-1.066c-2.045-0.572-5.15-1.251-6.725-1.418c-3.185-0.329-4.661-0.424-7.864-0.333
						c-3.307,0.104-6.564,0.244-9.813,0.181c-3.248-0.001-6.485-0.26-9.733-0.745c-2.626-0.381-5.27-0.492-7.934-0.438
						c-2.656,0.002-5.309-0.061-7.905-0.342c-1.399-0.194-2.781-0.476-4.163-0.725l-4.236-0.776
						c-3.102-0.553-6.117-0.851-8.998-0.928c-3.072-0.075-5.961-0.413-8.627-0.953c-1.344-0.254-2.599-0.593-3.818-0.938
						c-0.313-0.075-0.602-0.18-0.896-0.275l-0.618-0.198c-0.108-0.046-0.167-0.069-0.264-0.09c-0.1-0.026-0.21-0.044-0.323-0.078
						c-0.491,0.072-0.487-0.34-0.498-0.717c0.02-0.188,0.063-0.395,0.167-0.582c0.044-0.099,0.111-0.185,0.175-0.276
						c0.023-0.035,0.22-0.228,0.361-0.378c0.159-0.158,0.28-0.317,0.479-0.479c0.921-0.877,2.167-1.787,3.566-2.756
						c1.403-0.974,2.979-2.003,4.66-3.245l0.808-0.627l0.402-0.316c0.057-0.043,0.156-0.126,0.179-0.138l0.088-0.053
						c0.257-0.15,0.364-0.271,0.822-0.537c0.71-0.458,1.628-0.976,2.504-1.49l5.732-3.156l12.028-6.501
						c0.744-0.41,1.491-0.803,2.245-1.193l0.571-0.306l0.394-0.219l0.497-0.283l2-1.13c1.273-0.813,2.543-1.625,3.813-2.436
						c1.104-0.895,2.164-1.818,3.222-2.766l0.8-1.145c0.254-0.386,0.578-0.761,0.693-1.174c0.315-0.825,0.699-1.565,0.779-2.604
						c0.193-2.009-0.181-3.702-1.029-5.461c-0.852-1.745-2.324-3.449-4.081-5.018c-0.889-0.781-1.837-1.534-2.82-2.255
						c-0.497-0.357-0.994-0.713-1.503-1.055l-0.766-0.516l-0.389-0.25l-0.216-0.132c-2.03-1.223-4.354-2.583-6.748-3.535
						c-1.196-0.477-2.408-0.852-3.597-1.059c-1.173-0.198-2.388-0.266-3.345-0.002c-0.234,0.059-0.314,0.274-0.552,0.392
						c-0.098,0.078-0.228,0.122-0.26,0.22c-0.056,0.112-0.11,0.22-0.163,0.326c-0.233,0.455-0.53,0.95-0.861,1.393
						c0.135-0.182,0.162-0.313,0.108-0.395c-0.026-0.036-0.078-0.079-0.143-0.06c0.002,0.068,0.082,0.122,0.126,0.199
						c0.144,0.242,0.523,0.859,0.829,1.495c0.646,1.293,1.228,2.832,1.326,2.999c1.226,2.03,2.943,3.636,4.356,5.442
						c0.684,0.874,1.31,1.76,1.902,2.64c0.07,0.106,0.158,0.227,0.209,0.323l0.049,0.212c0.031,0.141,0.055,0.276,0.071,0.406
						c0.033,0.26,0.037,0.497,0.02,0.71c-0.064,0.866-0.514,1.294-0.656,1.556c-0.06,0.242-0.514,0.353-0.719,0.391
						c-0.26,0.049-0.447,0.079-0.546,0.081l-4.352,2.352c-3.403,1.818-6.81,3.637-10.229,5.463
						c-1.815,0.962-3.646,1.963-5.518,3.044c-0.459,0.257-0.944,0.551-1.426,0.844c-0.492,0.304-0.94,0.555-1.466,0.903
						l-1.557,1.033l-0.949,0.723l-0.854,0.678c-1.13,0.996-2.618,2.064-4.314,3.272c-1.696,1.219-3.616,2.579-5.597,4.399
						c-0.292,0.257-0.594,0.578-0.89,0.866c-0.3,0.307-0.58,0.562-0.968,1.005c-0.752,0.907-1.562,1.813-2.131,2.843l-0.936,1.514
						c-0.293,0.513-0.487,1.063-0.738,1.595c-0.212,0.541-0.531,1.066-0.659,1.625l-0.471,1.668
						c-0.075,0.279-0.164,0.559-0.229,0.839l-0.115,0.841l-0.23,1.691c-0.116,1.125-0.043,2.228-0.071,3.351
						C196.178,218.801,196.189,220.891,196.2,222.98z"/>
				</g>
			</g>
		</g>
	</g>
</g>
<g id="Layer_2" display="none">
	<g display="inline">
		<g>
			<g>
				<g>
					<path fill="#231F20" d="M268.696,279.792l0.202-0.004C268.808,279.781,268.749,279.755,268.696,279.792z"/>
					<path fill="#231F20" d="M239.583,278.948l0.063-0.156C239.591,278.844,239.58,278.898,239.583,278.948z"/>
					<path fill="#231F20" d="M232.819,292.706l-0.177,0.012C232.726,292.727,232.779,292.72,232.819,292.706z"/>
					<g>
						<path fill="#231F20" d="M244.905,293.808c5.45,0.227,10.918,0.004,16.323-0.702c5.57-0.732,11.068-1.823,16.733-2.128
							c2.993-0.093,5.973-0.186,8.951-0.277c1.486-0.055,2.98-0.114,4.459-0.212c1.46-0.114,2.921-0.253,4.384-0.431
							c2.923-0.358,5.909-0.551,8.855-0.658c1.497-0.076,2.995-0.151,4.498-0.228c1.508-0.062,3.021-0.111,4.545-0.271
							c2.936-0.254,5.883-0.831,8.576-1.377c1.376-0.286,2.764-0.521,4.164-0.674c1.397-0.151,2.807-0.297,4.212-0.245
							c1.503,0.051,2.994,0.196,4.484,0.279c0.717,0.052,4.295-0.813,5.038-1.229c0.337-0.186-1.793-1.113-2.408-1.358
							c-1.979-0.861-5.148-1.72-6.776-1.966c-1.651-0.267-2.858-0.372-4.077-0.46c-1.218-0.068-2.446-0.128-4.127-0.038
							c-1.729,0.088-3.448,0.176-5.159,0.264c-1.672,0.067-3.334,0.126-4.991,0.159c-1.652,0.072-3.324-0.083-4.981-0.182
							c-1.655-0.113-3.313-0.284-5.013-0.58c-5.381-0.919-11.346,0.025-16.766-0.442c-2.978-0.228-5.946-0.554-8.912-0.805
							c-1.483-0.126-2.965-0.233-4.448-0.3c-1.486-0.078-2.99-0.19-4.489-0.201c-6.391-0.082-12.737-1.044-19.122-1.067
							c-3.148-0.011-6.295,0.036-9.444,0.068c-3.146-0.059-6.293-0.154-9.441-0.324c-3.673-0.201-7.345-0.462-11.008-0.78
							c-4.645-0.407-9.228-0.628-13.931-0.863l-14.139-0.68c-8.466-0.452-16.487-2.246-24.705-2.47
							c-2.199-0.019-4.71-0.265-7.221-0.083c-2.498,0.148-4.921,0.516-6.982,1.745c-0.998,0.591-1.493,1.829-1.687,2.958
							c0.298-1.855,4.536,2.722,4.903,2.961c2.006,1.458,4.365,2.117,6.59,3.149c2.161,1.004,4.208,1.97,6.319,2.879
							c2.116,0.913,4.273,1.626,6.645,1.985c9.945,1.495,19.73,1.531,29.377,2.168c8.37,0.472,16.87,0.709,25.29,1.284
							c2.522,0.171,5.085,0.407,7.67,0.649C239.679,293.586,242.294,293.676,244.905,293.808z"/>
					</g>
				</g>
			</g>
		</g>
		<g>
			<g>
				<g>
					<path fill="#231F20" d="M134.237,394.029l-0.079,0.182C134.201,394.133,134.249,394.092,134.237,394.029z"/>
					<path fill="#231F20" d="M145.19,367.513l0.131,0.103C145.289,367.548,145.239,367.522,145.19,367.513z"/>
					<path fill="#231F20" d="M133.46,357.729l0.026-0.158C133.46,357.643,133.456,357.691,133.46,357.729z"/>
					<g>
						<path fill="#231F20" d="M129.471,367.956c-0.939,2.285-1.706,4.628-2.48,6.979c-0.809,2.339-1.409,4.756-2.083,7.158
							c-0.656,2.488-1.2,5.033-1.946,7.521c-0.361,1.247-0.736,2.494-1.171,3.721c-0.458,1.216-0.96,2.418-1.53,3.593
							c-2.412,4.983-5.207,9.715-7.554,14.772c-2.413,5.068-5.371,9.644-8.558,14.269c-3.038,4.473-5.087,9.598-8.551,13.803
							c-0.929,1.119-1.94,2.169-2.899,3.263c-0.118,0.134-0.29,0.449-0.482,0.859c-0.045,0.101-0.092,0.207-0.141,0.316
							c-0.018,0.068-0.037,0.141-0.057,0.214c-0.038,0.156-0.078,0.319-0.118,0.482c-0.111,0.752-0.642,1.17-0.786,1.517
							c-0.069,0.143,0.396,0.207,0.935,0.274c0.561,0.084,1.177-0.074,1.376-0.22c0.383-0.195,0.805-0.419,1.313-0.768
							c0.505-0.343,1.025-0.707,1.527-1.07c1.002-0.725,1.928-1.444,2.499-1.975c2.29-2.163,3.355-3.178,5.308-5.675
							c4.028-5.17,7.736-10.353,12.281-15.184c1.82-1.967,3.301-4.232,4.704-6.554c1.363-2.35,2.729-4.699,4.218-6.938
							c1.639-2.41,3.361-4.779,4.942-7.25c1.63-2.438,3.092-4.992,4.354-7.654c2.617-5.688,5.902-11.113,8.002-17.096
							c2.144-5.857,3.685-11.917,5.379-17.927l1.41-5.291l0.683-2.474c0.215-0.792,0.463-1.606,0.717-2.42
							c1.266-4.106,2.569-8.425,3.636-13.021c1.053-4.603,1.857-9.515,1.959-14.693c0.076-1.631-0.004-3.298-0.038-4.963
							c-0.022-0.832-0.137-1.673-0.201-2.512c-0.072-0.841-0.14-1.684-0.309-2.519l-0.444-2.52c-0.187-0.832-0.431-1.65-0.656-2.479
							c-0.229-0.827-0.458-1.659-0.793-2.441l-0.841-2.102c0.012-0.021,0.03,0.006,0.026-0.044c0.001-0.016-0.029-0.131-0.054-0.231
							l-0.088-0.343l-0.423-1.606c-0.301-1.103-0.631-2.231-1.003-3.353c-1.305-3.956-2.815-9.553-6.319-12.024
							c-0.2-0.108-0.434-0.195-0.691-0.267l-0.197-0.05c-0.066-0.011-0.138-0.054-0.194,0.021c-0.12,0.093-0.256,0.162-0.398,0.212
							c-0.578,0.194-1.214,0.067-1.773-0.029c0.23,0.043,0.395,0.062,0.48,0.027c0.043-0.012,0.059-0.053,0.056-0.058
							c0.015,0.075,0.016,0.163,0.004,0.261c-0.059,0.368-0.251,1.012-0.514,1.667c-0.504,1.328-1.217,2.792-1.268,2.979
							c-0.614,2.269-0.537,4.61-0.737,6.916c-0.164,1.88-0.413,3.705-0.584,5.54c-0.086,0.916-0.148,1.841-0.166,2.78
							c0.005,0.498-0.009,0.932,0.042,1.492c0.028,0.481,0.225,1.423,0.489,2.173l0.072,0.174l0.035,0.079l0.001,0.007l0.005,0.025
							l0.009,0.051l0.02,0.103l0.041,0.204l0.093,0.41c0.067,0.273,0.145,0.546,0.233,0.816c1.078,3.593,1.589,7.103,1.517,10.898
							c-0.049,3.781-0.633,7.812-1.646,12.05c-0.863,3.606-1.925,7.357-2.981,11.304l-0.784,3.002l-0.754,3.063l-1.459,5.537
							c-0.636,2.193-1.433,4.385-2.186,6.602C131.147,363.535,130.309,365.746,129.471,367.956z"/>
					</g>
				</g>
			</g>
		</g>
		<g>
			<g>
				<g>
					<path fill="#231F20" d="M118.791,131.043l0.097,0.416C118.853,131.27,118.851,131.142,118.791,131.043z"/>
					<path fill="#231F20" d="M107.731,71.723l0.155,0.109C107.835,71.73,107.781,71.712,107.731,71.723z"/>
					<path fill="#231F20" d="M95.032,57.311l0.063-0.406C95.051,57.097,95.036,57.218,95.032,57.311z"/>
					<g>
						<path fill="#231F20" d="M94.043,85.144c0.163,1.537,0.429,3.015,0.707,4.488c0.277,1.473,0.536,2.967,0.85,4.416
							c0.663,2.862,1.322,5.77,2.093,8.526c0.753,2.808,1.53,5.53,2.333,8.232c0.793,2.676,1.585,5.348,2.375,8.012
							c3.262,11.214,6.931,22.239,9.533,33.758c1.354,6.105,2.702,12.183,4.05,18.258c1.469,6.052,3.035,12.081,4.729,18.101
							c3.423,12.108,6.114,24.009,8.885,36.284c2.826,11.806,6.952,23.205,9.444,35.071c0.665,3.169,1.233,6.34,1.865,9.514
							c0.311,1.562,3.112,9.085,3.883,10.487c0.352,0.639,0.108-4.151,0.028-5.477c-0.264-4.354-0.839-10.973-1.343-14.326
							c-1.021-6.788-1.511-9.943-3.012-16.778c-1.537-7.062-3.143-14.008-4.547-20.981c-1.353-6.987-2.597-13.978-3.603-21.072
							c-1.605-11.474-5.147-23.092-7.254-34.601c-2.118-12.507-3.845-25.063-6.557-37.509c-0.722-3.311-1.39-6.63-2.031-9.954
							l-0.955-4.998l-1.022-5.09c-1.405-6.54-2.81-13.079-4.217-19.63c-1.335-6.284-2.21-12.446-2.342-18.492l0.003-2.256
							c0.023-0.748-0.058-1.517,0.058-2.247l0.442-4.434c0.26-1.471,0.583-2.938,0.868-4.41c0.119-0.741,0.336-1.464,0.563-2.187
							l0.653-2.172c0.438-1.709,1.188-3.336,1.823-4.994c0.33-0.818,0.638-1.688,1.021-2.391c0.381-0.727,0.688-1.517,1.128-2.187
							c1.591-2.833,3.557-5.287,5.836-7.165c1.405-1.246,3.009-2.13,4.637-2.936l1.262-0.527c0.412-0.194,0.875-0.276,1.307-0.429
							c0.858-0.323,1.8-0.442,2.706-0.662c3.72-0.618,7.791-0.371,11.903,0.53c3.922,0.865,7.915,2.603,11.937,4.73
							c4.023,2.173,8.051,4.737,12.188,7.408c3.746,2.416,7.532,4.97,11.637,7.373c1.03,0.599,2.058,1.2,3.151,1.763
							c0.543,0.284,1.066,0.579,1.627,0.852l1.737,0.785l1.744,0.779c0.581,0.268,1.166,0.518,1.762,0.708l3.57,1.238
							c4.776,1.428,9.456,2.279,13.83,2.993c2.112,0.343,4.229,0.687,6.354,1.031c1.059,0.15,2.032,0.37,3.046,0.55
							c1.113,0.2,2.228,0.4,3.346,0.601c2.774,0.487,5.745,0.761,8.635,0.835c2.895,0.08,5.706-0.016,8.297-0.143
							c5.213-0.297,9.471-0.505,13.211-0.864c1.794-0.149,2.813-1.137,3.252-2.202c-0.38,0.88-2.393-0.517-4.783-1.85
							c-2.361-1.364-5.087-2.678-5.46-2.8c-4.526-1.585-9.735-1.977-14.313-3.034c-2.223-0.504-4.283-1.156-6.203-1.92l-1.452-0.591
							l-1.666-0.637c-1.109-0.409-2.246-0.873-3.357-1.223c-4.515-1.537-9.031-2.632-13.524-3.691l-1.763-0.408l-1.676-0.474
							l-1.673-0.46l-1.585-0.562l-1.582-0.549c-0.531-0.174-1.008-0.442-1.515-0.653c-1.004-0.475-1.989-0.817-3.022-1.401
							c-4.094-2.1-8.257-4.776-12.564-7.557c-4.304-2.779-8.791-5.701-13.679-8.392c-2.458-1.336-5.004-2.632-7.75-3.751
							c-2.687-1.156-5.673-2.101-8.676-2.795c-4.991-1.122-10.362-1.585-15.841-0.864c-2.735,0.319-5.472,1.065-8.128,2.018
							c-2.617,1.074-5.204,2.325-7.484,4.003c-2.35,1.591-4.373,3.536-6.257,5.548c-0.853,1.057-1.778,2.088-2.544,3.19
							c-0.743,1.11-1.575,2.194-2.194,3.349c-0.66,1.142-1.339,2.282-1.869,3.457l-0.842,1.754c-0.275,0.583-0.464,1.136-0.7,1.706
							c-0.877,2.273-1.871,4.495-2.521,6.871c-0.423,1.404-0.891,2.8-1.28,4.23c-0.324,1.454-0.649,2.914-0.976,4.377
							c-0.144,0.738-0.364,1.457-0.444,2.213l-0.297,2.259l-0.292,2.268c-0.087,0.757-0.222,1.519-0.222,2.271
							c-0.08,3.008-0.327,6.086-0.078,9.043c0.085,1.487,0.125,2.999,0.262,4.471L94.043,85.144z"/>
					</g>
				</g>
			</g>
		</g>
		<g>
			<g>
				<g>
					<path fill="#231F20" d="M232.294,120.632l0.161-0.007C232.383,120.62,232.335,120.594,232.294,120.632z"/>
					<path fill="#231F20" d="M204.298,123.768l-0.01-0.178C204.245,123.678,204.263,123.73,204.298,123.768z"/>
					<path fill="#231F20" d="M211.868,135.832l0.015,0.018C211.89,135.847,211.882,135.84,211.868,135.832z"/>
					<g>
						<path fill="#231F20" d="M214.014,135.613c1.932-0.279,3.863-0.558,5.791-0.836l1.387-0.21
							c0.442-0.043,0.886-0.097,1.334-0.161l0.674-0.104l0.917-0.085l1.829-0.207c5.018-0.648,9.801-2.038,14.635-2.569
							c5.132-0.536,10.187-1.082,15.117-2.36c1.234-0.33,2.465-0.617,3.696-0.873c1.22-0.245,2.379-0.393,3.576-0.558
							c1.188-0.156,2.381-0.292,3.578-0.417c1.196-0.125,2.45-0.159,3.685-0.238c2.396-0.119,4.744-0.616,7.126-0.974
							c2.38-0.36,4.768-0.676,7.182-0.575c1.289,0.056,2.57,0.245,3.854,0.353c0.63,0.056,3.761-0.947,4.367-1.376
							c0.276-0.196-1.618-1.056-2.148-1.281c-1.73-0.739-4.399-1.697-5.771-1.969c-2.77-0.512-4.065-0.734-6.889-0.789
							c-5.856-0.057-11.465,0.053-17.547-0.438c-0.613-0.058-1.229-0.087-1.844-0.094c-0.589,0.005-1.169,0.035-1.752,0.08
							c-1.163,0.084-2.329,0.255-3.485,0.402c-1.157,0.155-2.316,0.311-3.471,0.466c-1.154,0.123-2.306,0.21-3.455,0.226
							c-4.983,0.03-9.876-0.538-14.683-0.424c-1.278,0.003-2.561-0.011-3.829-0.116l-3.792-0.417
							c-3.264-0.354-6.447-0.349-9.459,0.074l-2.178,0.371l-0.543,0.097c-0.178,0.031-0.351,0.061-0.604,0.121l-1.394,0.331
							c-1.862,0.543-3.803,1.204-5.968,2.688c-2.031,1.403-3.727,3.245-4.845,5.395c-1.128,2.145-1.632,4.583-1.533,7.004
							c0.055,1.415,0.321,2.825,0.755,4.184l0.358,1.012c0.124,0.34,0.255,0.678,0.39,0.937c0.269,0.556,0.546,1.124,0.836,1.657
							c0.588,0.971,1.195,1.938,1.885,2.764c0.337,0.427,0.676,0.865,1.021,1.277l1.054,1.106c0.894,0.981,1.809,1.703,2.734,2.507
							c0.92,0.727,1.853,1.421,2.78,2.056c1.851,1.243,3.71,2.359,5.521,3.348c3.625,2.011,7.181,3.74,10.346,5.618
							c2.841,1.672,5.254,3.771,6.573,5.553l0.134,0.164l0.256,0.29l0.738,0.792l0.377,0.391l0.339,0.316l0.685,0.625
							c0.897,0.787,1.751,1.453,2.574,2.041c1.653,1.185,3.241,2.143,4.814,2.96c1.658,0.86,3.464,1.875,5.12,2.548
							c1.686,0.692,3.096,0.958,4.616,0.605c0.691-0.204,2.011-0.57,3.055-1.018c-0.909,0.355-0.624-0.383-0.685-1.653
							c-0.013-0.618-0.084-1.304-0.133-1.884c-0.076-0.552-0.142-0.982-0.17-1.068c-0.722-2.101-2.248-3.729-3.509-5.438
							c-1.232-1.664-2.345-3.319-3.438-4.853c-1.076-1.522-2.218-2.96-3.119-3.966l-0.337-0.375c-0.057-0.1-0.117-0.194-0.179-0.283
							l-0.099-0.132l-0.347-0.389l-0.706-0.772c-0.476-0.521-0.96-1.024-1.439-1.435l-1.462-1.291
							c-1.937-1.54-3.915-2.903-5.825-4.026c-3.85-2.32-7.592-4.137-11.006-6.08c-2.886-1.635-5.588-3.279-7.558-4.95
							c-0.259-0.207-0.433-0.415-0.658-0.617c-0.194-0.203-0.474-0.406-0.607-0.601c-0.298-0.391-0.685-0.759-0.883-1.132
							c-0.501-0.854-0.4-0.709-0.4-0.873c0.03-0.14,0.199-0.226,0.325-0.199c0.033,0.006,0.063,0.016,0.089,0.031l0.036,0.022
							c0.037,0.004,0.131-0.01,0.187-0.024c0.073-0.042,0.371-0.08,0.591-0.14C213.429,135.684,213.752,135.676,214.014,135.613z"/>
					</g>
				</g>
			</g>
		</g>
		<g>
			<g>
				<g>
					<path fill="#231F20" d="M415.19,451.582c0,0,0.036,0.434,0.073,0.868c0.032,0.438,0.051,0.871,0.044,0.845
						C415.292,452.563,415.266,452.008,415.19,451.582z"/>
					<path fill="#231F20" d="M359.851,320.8l0.241,0.196C359.954,320.779,359.888,320.758,359.851,320.8z"/>
					<path fill="#231F20" d="M341.669,293.144l0.105-0.911C341.709,292.667,341.682,292.939,341.669,293.144z"/>
					<g>
						<path fill="#231F20" d="M354.769,352.207c4.007,12.715,8.709,25.231,14.229,37.315c1.364,3.025,2.887,5.964,4.331,8.939
							c1.47,2.96,2.922,5.936,4.422,8.862c3.099,5.731,6.246,11.521,9.357,17.121c2.997,5.459,6.169,10.872,8.955,16.351
							l4.311,8.204l1.078,2.055c0.396,0.75,0.973,1.905,1.229,2.238c0.484,0.594,0.396,0.577,0.463,1.792
							c1.659-1.851,3.319-3.701,4.984-5.558l-5.201,0.818l-2.603,0.405l-0.877,0.129c-0.365,0.063-0.715,0.063-1.107,0.24
							l-1.147,0.412l-0.555,0.21c-2.638,1.145-5.74,1.693-9.025,2.148c-3.267,0.438-6.876,0.666-10.582,1.151l-2.824,0.4
							l-2.891,0.597c-1.728,0.378-3.457,0.757-5.189,1.137c-1.692,0.348-3.354,0.783-5.068,1.06l-5.14,0.829
							c-0.858,0.134-1.71,0.286-2.572,0.404l-2.602,0.31l-5.202,0.619c-3.501,0.332-6.988,0.668-10.514,0.954l-10.612,0.845
							c-7.09,0.538-14.271,1.257-21.443,2.238c-3.551,0.481-7.02,1.018-10.534,1.528c-3.492,0.456-6.992,0.989-10.485,1.406
							c-1.757,0.2-3.511,0.399-5.262,0.599l-2.626,0.291l-2.618,0.193c-1.745,0.127-3.487,0.254-5.229,0.38l-2.807,0.214
							c-1.012,0.063-1.938,0.242-2.905,0.364c-3.728,0.61-7.187,1.546-10.106,1.737c-1.443,0.082-2.711-0.017-3.708-0.364
							c-0.977-0.376-1.807-1.031-2.637-1.931c-0.787-1.047-1.46-2.173-2.13-3.687c-0.317-0.744-0.713-1.55-0.967-2.242l-0.324-0.977
							l-0.17-0.485c-0.042-0.165-0.054-0.336-0.083-0.503c-0.101-0.673-0.249-1.29-0.279-2.188l-0.088-1.244l-0.105-1.335
							c-0.138-1.92-0.379-3.869-0.833-5.849c-0.256-0.993-0.467-1.982-0.87-2.983c-0.19-0.498-0.345-0.997-0.572-1.492l-0.737-1.481
							c-1.085-1.937-2.531-3.861-4.486-5.287c-1.933-1.43-4.166-2.341-6.347-2.823c-2.201-0.512-4.31-0.524-6.358-0.46
							c-1.964,0.075-3.904,0.416-5.537,0.629l-5.105,0.738c-3.4,0.513-6.798,1.025-10.194,1.537c-3.39,0.56-6.8,0.971-10.203,1.425
							l-10.212,1.351c-3.401,0.483-6.816,0.829-10.232,1.181l-10.251,1.033c-1.71,0.157-3.418,0.348-5.132,0.467l-5.145,0.339
							c-3.431,0.216-6.864,0.412-10.3,0.582c-1.857,0.1-3.615,0.154-5.546,0.276l-2.914,0.191c-0.963,0.098-1.917,0.229-2.876,0.343
							c-3.816,0.511-7.563,1.266-11.201,2.171c-1.818,0.405-7.074,2.163-12.172,3.861c-4.921,1.356-10.468,3.2-12.148,3.849
							c-0.78,0.302,1.567-0.03,4.45-0.489c2.924-0.509,6.178-0.907,7.663-1.144c4.782-0.832,10.839-2.272,16.695-3.249
							c1.462-0.25,2.908-0.483,4.323-0.646c0.706-0.087,1.397-0.193,2.081-0.262c0.684-0.058,1.354-0.114,2.008-0.17
							c1.303-0.143,2.548-0.162,3.7-0.198c1.145-0.047,2.218-0.07,3.186-0.089c7.808-0.188,13.537-0.329,19.314-0.53
							c5.767-0.334,11.582-0.736,19.573-1.354c4.125-0.345,8.223-0.818,12.319-1.222c4.091-0.442,8.185-0.786,12.25-1.306
							c4.066-0.515,8.124-1.029,12.176-1.542l6.078-0.761c1.962-0.238,3.778-0.437,5.567-0.327c1.766,0.103,3.425,0.45,4.813,1.117
							c1.391,0.663,2.506,1.643,3.384,2.917c1.775,2.557,2.44,6.258,2.633,9.957c0.129,1.917,0.104,4.112,0.585,6.635
							c0.154,0.594,0.343,1.18,0.521,1.771l0.276,0.884c0.095,0.283,0.2,0.508,0.3,0.765l0.608,1.496
							c0.21,0.504,0.377,0.979,0.671,1.538c0.533,1.08,1.033,2.164,1.817,3.224c0.36,0.532,0.702,1.067,1.2,1.563
							c0.479,0.494,0.898,1.024,1.455,1.471c0.566,0.438,1.136,0.884,1.735,1.286c0.641,0.346,1.296,0.678,1.958,0.993
							c0.673,0.241,1.361,0.447,2.05,0.651c0.678,0.153,1.346,0.239,2.025,0.347c4.292,0.395,7.837-0.433,11.033-0.919
							c1.621-0.281,3.115-0.473,4.589-0.621c1.594-0.075,3.19-0.15,4.789-0.227c3.43-0.16,6.882-0.3,10.291-0.658l5.138-0.47
							c1.709-0.172,3.402-0.394,5.106-0.59l5.104-0.614l5.068-0.681c1.68-0.219,3.397-0.47,5.046-0.661l4.948-0.578
							c6.6-0.742,13.286-1.179,19.944-1.558c13.481-0.75,27.276-1.457,41.108-4.29l2.591-0.502l2.148-0.371
							c0.362-0.06,0.704-0.14,1.081-0.184l1.145-0.119c0.771-0.075,1.507-0.175,2.306-0.234c3.178-0.241,6.574-0.377,10.205-0.715
							c0.896-0.075,1.856-0.232,2.782-0.349c0.932-0.119,1.864-0.243,2.841-0.481l2.893-0.641c0.973-0.307,1.947-0.639,2.918-0.969
							l0.296-0.102l-0.006,0.002c0.005,0-0.028,0.005,0.007,0.002l0.128-0.011l0.586-0.067l2.526-0.294l5.056-0.602l5.674-0.675
							l0.026-5.681l0.011-2.102c-0.035-0.866-0.098-1.731-0.292-2.571c-0.216-0.843-0.561-1.62-1.009-2.372l-0.506-0.837
							l-0.237-0.389l-0.112-0.235l-4.942-10.34c-1.68-3.55-3.332-7.122-5.114-10.563c-3.452-6.918-6.904-13.834-10.355-20.749
							c-0.845-1.72-1.725-3.434-2.543-5.158l-2.375-5.187l-4.762-10.361l-4.38-10.503c-1.415-3.518-2.709-7.082-4.092-10.615
							c-0.7-1.735-1.304-3.505-1.905-5.275l-1.829-5.302c-1.28-3.514-2.294-7.117-3.403-10.689l-1.656-5.408
							c-0.614-1.985-1.229-3.978-1.932-5.843c-1.355-3.794-2.838-7.364-4.142-10.808c-0.689-1.742-1.25-3.415-1.854-5.109
							c-0.49-1.659-1.085-3.337-1.422-4.959l-0.297-1.226l-0.15-0.612l-0.087-0.588l-0.362-2.348
							c-0.088-0.795-0.104-1.613-0.165-2.419c-0.081-0.8-0.059-1.633-0.036-2.467c-0.024-1.647,0.164-3.364,0.299-5.067
							c0.24-1.736,0.432-3.457,0.781-5.238c0.291-1.756,0.69-3.568,1.062-5.367c0.415-1.824,0.799-3.679,1.285-5.469
							c4.007-16.847,10.192-33.644,14.687-51.379c1.492-5.628,2.634-11.128,3.877-16.67c1.254-5.412,2.35-10.941,3.794-16.159
							l1.023-3.963l0.51-1.982l0.609-2.006l2.433-8.024l2.426-8.025c0.8-2.701,1.635-5.289,2.398-8.099
							c6.735-21.983,10.868-44.7,13.478-67.299c0.617-5.12,1.157-10.346,1.407-15.702c0.268-5.343,0.162-10.868-0.726-16.534
							l-0.327-2.122c-0.146-0.712-0.342-1.431-0.513-2.146c-0.372-1.419-0.677-2.895-1.163-4.235
							c-0.909-2.735-2.042-5.464-3.489-8.122c-1.445-2.655-3.213-5.242-5.364-7.605c-2.142-2.366-4.7-4.472-7.515-6.151
							c-1.408-0.838-2.876-1.582-4.382-2.191c-1.565-0.677-2.877-0.999-4.293-1.451l-2.098-0.631
							c-0.699-0.198-1.399-0.311-2.101-0.467c-1.398-0.269-2.815-0.633-4.205-0.805c-5.609-0.882-11.067-0.976-16.384-0.915
							c-1.317,0.037-2.655,0.056-3.957,0.112l-3.889,0.191l-3.82,0.228l-0.954,0.059l-0.477,0.03l-0.921,0.104
							c-1.3,0.135-2.409,0.456-3.527,0.804c-2.09,0.752-3.748,1.707-5.182,2.639c-1.368,0.926-2.569,1.85-3.619,2.696
							c-1.036,0.829-2.008,1.64-2.836,2.273c-0.841,0.65-1.609,1.201-2.161,1.5l-0.226,0.138l-0.178,0.079
							c-0.102,0.037-0.253,0.152-0.302,0.141c-0.034,0.009-0.067,0.021-0.1,0.036l-0.048,0.026l-0.023,0.015l-0.148,0.045
							c-0.434,0.132-0.869,0.264-1.306,0.397c-0.437,0.137-0.874,0.274-1.313,0.412c-0.4,0.153-0.802,0.308-1.206,0.463
							c-0.795,0.315-1.631,0.626-2.358,0.976c-3.063,1.351-5.858,2.881-8.551,4.378c-1.3,0.723-2.609,1.451-3.924,2.182
							l-0.478,0.263l-0.232,0.127l-0.173,0.078l-0.686,0.325c-0.429,0.247-0.959,0.421-1.479,0.611
							c-2.072,0.78-4.952,1.275-8.467,2.247c-0.846,0.223-1.791,0.567-2.671,0.855c-0.892,0.297-1.813,0.744-2.704,1.122
							c-0.64,0.285-1.277,0.568-1.912,0.851c-0.561,0.26-1.119,0.52-1.674,0.778c-1.159,0.44-2.354,0.809-3.512,1.242
							c-1.236,0.32-2.454,0.636-3.651,0.947c-4.928,1.106-10.044,1.645-14.58,2.448c-4.427,0.775-5.805,2.105-5.779,3.247
							c-0.004-0.47,1.498-0.599,3.777-0.526c2.271,0.081,5.294,0.389,8.365,0.692c1.539,0.159,3.083,0.251,4.57,0.39
							c1.48,0.093,2.89,0.121,4.147,0.182c2.496-0.009,4.368-0.092,4.809-0.126c1.324-0.227,2.666-0.456,4.021-0.687
							c1.332-0.356,2.672-0.774,4.037-1.186c1.31-0.382,2.451-0.802,3.763-1.041c0.625-0.154,1.281-0.265,1.945-0.366
							c0.652-0.112,1.32-0.214,2.013-0.305c2.718-0.382,5.693-0.775,8.646-1.811c0.718-0.278,1.491-0.556,2.167-0.846l1.948-0.876
							c1.267-0.576,2.529-1.15,3.785-1.722c2.411-1.063,4.776-2.096,7.082-2.856c0.579-0.22,1.146-0.367,1.71-0.532
							c0.564-0.166,1.129-0.338,1.664-0.426l0.809-0.166l0.401-0.084l0.621-0.15c0.918-0.206,1.721-0.508,2.521-0.823
							c3.066-1.337,5.345-3.037,7.44-4.442c1.041-0.702,2.036-1.371,2.949-1.875c0.918-0.525,1.778-0.92,2.436-1.063l0.248-0.073
							c0.076-0.011,0.143-0.009,0.212-0.017c0.129,0.002,0.283-0.067,0.381-0.031c0.106,0.018,0.201,0.022,0.304,0.014l0.967,0.004
							c1.288,0.002,2.58,0.005,3.878,0.008c2.559,0.021,5.136,0.026,7.676,0.104c5.092,0.148,10.156,0.471,15.094,1.356
							c1.265,0.292,2.55,0.531,3.795,0.841l3.62,1.129c2.032,0.773,3.852,1.84,5.486,3.193c1.608,1.391,3.045,3.063,4.275,5.01
							c1.221,1.958,2.25,4.153,3.094,6.502c3.204,9.152,2.649,20.346,1.402,31.736c-0.29,2.868-0.727,5.762-1.103,8.646l-1.156,8.66
							c-0.33,2.901-0.909,5.738-1.39,8.601l-1.494,8.578l-0.373,2.146c-0.14,0.711-0.313,1.414-0.468,2.121l-0.954,4.239
							l-1.904,8.484c-0.163,0.706-0.306,1.417-0.486,2.119l-0.591,2.092l-1.181,4.186l-2.362,8.379l-0.502,1.781l-0.553,1.826
							l-1.107,3.653l-2.211,7.307l-2.207,7.307l-1.103,3.654c-0.359,1.226-0.659,2.517-0.99,3.772l-1.939,7.583
							c-0.598,2.514-1.111,5.001-1.671,7.503l-3.207,14.791c-4.155,19.155-11.271,38.021-16.194,58.359
							c-0.411,1.507-0.714,3.006-1.073,4.514c-0.331,1.545-0.663,3.093-0.996,4.644c-0.602,3.181-1.2,6.42-1.489,9.858
							c-0.376,3.391-0.367,6.981-0.124,10.597c0.065,0.904,0.229,1.822,0.346,2.734c0.145,0.896,0.225,1.863,0.436,2.701
							c0.402,1.694,0.727,3.478,1.237,5.083c1.86,6.606,4.373,12.541,6.343,18.115c0.447,1.37,1,2.784,1.363,4.115l1.265,4.275
							L354.769,352.207z"/>
					</g>
				</g>
			</g>
		</g>
		<g>
			<g>
				<g>
					<path fill="#231F20" d="M228.015,214.208l0.195-0.001C228.123,214.199,228.066,214.171,228.015,214.208z"/>
					<path fill="#231F20" d="M212.044,211.149l0.181-0.018C212.166,211.133,212.103,211.14,212.044,211.149z"/>
					<path fill="#231F20" d="M200.229,203.036c-0.006-0.003,0.162-0.276,0.162-0.276
						C200.294,202.881,200.25,202.966,200.229,203.036z"/>
					<g>
						<path fill="#231F20" d="M196.2,222.98l0.027,1.843l1.668-0.114l0.835-0.059c0.291-0.023,0.435-0.004,0.659-0.009l2.47,0.008
							h2.474l1.736,0.639c1.125,0.416,2.401,0.895,3.313,1.088c0.741,0.174,1.488,0.362,2.221,0.467
							c2.955,0.515,5.828,0.606,8.54,0.444c5.872-0.368,11.09-1.774,16.156-1.428c2.958,0.107,5.904,0.374,8.836,0.396
							c1.465-0.002,2.929-0.017,4.393-0.057l2.196-0.083l2.185-0.216c2.931-0.329,5.815-0.46,8.684-0.671
							c1.437-0.085,2.874-0.15,4.318-0.205c1.438-0.083,2.883-0.166,4.338-0.249c2.813-0.137,5.57-0.672,8.321-1.174
							c2.759-0.477,5.494-0.981,8.292-1.051c1.495-0.032,2.987,0.019,4.477,0c0.734-0.007,4.27-1.316,4.927-1.803
							c0.3-0.222-1.95-0.893-2.573-1.066c-2.045-0.572-5.15-1.251-6.725-1.418c-3.185-0.329-4.661-0.424-7.864-0.333
							c-3.307,0.104-6.564,0.244-9.813,0.181c-3.248-0.001-6.485-0.26-9.733-0.745c-2.626-0.381-5.27-0.492-7.934-0.438
							c-2.656,0.002-5.309-0.061-7.905-0.342c-1.399-0.194-2.781-0.476-4.163-0.725l-4.236-0.776
							c-3.102-0.553-6.117-0.851-8.998-0.928c-3.072-0.075-5.961-0.413-8.627-0.953c-1.344-0.254-2.599-0.593-3.818-0.938
							c-0.313-0.075-0.602-0.18-0.896-0.275l-0.618-0.198c-0.108-0.046-0.167-0.069-0.264-0.09c-0.1-0.026-0.21-0.044-0.323-0.078
							c-0.491,0.072-0.487-0.34-0.498-0.717c0.02-0.188,0.063-0.395,0.167-0.582c0.044-0.099,0.111-0.185,0.175-0.276
							c0.023-0.035,0.22-0.228,0.361-0.378c0.159-0.158,0.28-0.317,0.479-0.479c0.921-0.877,2.167-1.787,3.566-2.756
							c1.403-0.974,2.979-2.003,4.66-3.245l0.808-0.627l0.402-0.316c0.057-0.043,0.156-0.126,0.179-0.138l0.088-0.053
							c0.257-0.15,0.364-0.271,0.822-0.537c0.71-0.458,1.628-0.976,2.504-1.49l5.732-3.156l12.028-6.501
							c0.744-0.41,1.491-0.803,2.245-1.193l0.571-0.306l0.394-0.219l0.497-0.283l2-1.13c1.273-0.813,2.543-1.625,3.813-2.436
							c1.104-0.895,2.164-1.818,3.222-2.766l0.8-1.145c0.254-0.386,0.578-0.761,0.693-1.174c0.315-0.825,0.699-1.565,0.779-2.604
							c0.193-2.009-0.181-3.702-1.029-5.461c-0.852-1.745-2.324-3.449-4.081-5.018c-0.889-0.781-1.837-1.534-2.82-2.255
							c-0.497-0.357-0.994-0.713-1.503-1.055l-0.766-0.516l-0.389-0.25l-0.216-0.132c-2.03-1.223-4.354-2.583-6.748-3.535
							c-1.196-0.477-2.408-0.852-3.597-1.059c-1.173-0.198-2.388-0.266-3.345-0.002c-0.234,0.059-0.314,0.274-0.552,0.392
							c-0.098,0.078-0.228,0.122-0.26,0.22c-0.056,0.112-0.11,0.22-0.163,0.326c-0.233,0.455-0.53,0.95-0.861,1.393
							c0.135-0.182,0.162-0.313,0.108-0.395c-0.026-0.036-0.078-0.079-0.143-0.06c0.002,0.068,0.082,0.122,0.126,0.199
							c0.144,0.242,0.523,0.859,0.829,1.495c0.646,1.293,1.228,2.832,1.326,2.999c1.226,2.03,2.943,3.636,4.356,5.442
							c0.684,0.874,1.31,1.76,1.902,2.64c0.07,0.106,0.158,0.227,0.209,0.323l0.049,0.212c0.031,0.141,0.055,0.276,0.071,0.406
							c0.033,0.26,0.037,0.497,0.02,0.71c-0.064,0.866-0.514,1.294-0.656,1.556c-0.06,0.242-0.514,0.353-0.719,0.391
							c-0.26,0.049-0.447,0.079-0.546,0.081l-4.352,2.352c-3.403,1.818-6.81,3.637-10.229,5.463
							c-1.815,0.962-3.646,1.963-5.518,3.044c-0.459,0.257-0.944,0.551-1.426,0.844c-0.492,0.304-0.94,0.555-1.466,0.903
							l-1.557,1.033l-0.949,0.723l-0.854,0.678c-1.13,0.996-2.618,2.064-4.314,3.272c-1.696,1.219-3.616,2.579-5.597,4.399
							c-0.292,0.257-0.594,0.578-0.89,0.866c-0.3,0.307-0.58,0.562-0.968,1.005c-0.752,0.907-1.562,1.813-2.131,2.843l-0.936,1.514
							c-0.293,0.513-0.487,1.063-0.738,1.595c-0.212,0.541-0.531,1.066-0.659,1.625l-0.471,1.668
							c-0.075,0.279-0.164,0.559-0.229,0.839l-0.115,0.841l-0.23,1.691c-0.116,1.125-0.043,2.228-0.071,3.351
							C196.178,218.801,196.189,220.891,196.2,222.98z"/>
					</g>
				</g>
			</g>
		</g>
	</g>
</g>
</svg>
