<?xml version="1.0" encoding="utf-8"?>
<!-- Generator: Adobe Illustrator 16.0.0, SVG Export Plug-In . SVG Version: 6.00 Build 0)  -->
<!DOCTYPE svg PUBLIC "-//W3C//DTD SVG 1.1//EN" "http://www.w3.org/Graphics/SVG/1.1/DTD/svg11.dtd">
<svg version="1.1" id="Layer_1" xmlns="http://www.w3.org/2000/svg" xmlns:xlink="http://www.w3.org/1999/xlink" x="0px" y="0px"
	 width="500px" height="500px" viewBox="0 0 500 500" enable-background="new 0 0 500 500" xml:space="preserve">
<g>
	<g>
		<g>
			<g>
				<path fill="#231F20" d="M163.142,395.251l0.314,0.054C163.316,395.272,163.229,395.229,163.142,395.251z"/>
				<path fill="#231F20" d="M118.065,383.293l0.13-0.121C118.104,383.195,118.073,383.243,118.065,383.293z"/>
				<path fill="#231F20" d="M102.992,391.95l-0.304-0.157C102.826,391.881,102.919,391.925,102.992,391.95z"/>
				<g>
					<path fill="#231F20" d="M122.853,400.079c8.418,2.424,17.009,4.506,25.838,5.801c9.091,1.327,18.291,1.859,27.609,2.674
						c5.157,0.48,10.71,0.298,16.006-1.315c5.302-1.567,10.239-4.779,13.815-8.821c6.442-7.403,12.857-14.346,19.257-21.603
						c3.114-3.479,5.917-7.167,8.799-10.791c2.889-3.593,5.817-7.162,9.057-10.453c0.883-0.875,1.763-1.745,2.643-2.616l1.463-1.519
						c0.236-0.253,0.505-0.519,0.712-0.764l0.615-0.735c0.199-0.236,0.546-0.788,0.937-1.445c0.367-0.599,0.791-1.334,1.207-2.087
						c0.909-1.434,1.86-2.889,2.087-3.455c0.233-0.519-2.768,1.345-3.623,1.93c-0.642,0.501-1.368,1.084-2.131,1.713
						c-0.746,0.661-1.525,1.353-2.288,2.027c-0.784,0.632-1.55,1.249-2.248,1.811c-0.705,0.556-1.331,1.068-1.823,1.497
						c-3.981,3.478-5.833,5.117-9.579,9.015c-7.711,8.053-14.891,16.205-23.194,23.335c-1.654,1.471-3.331,2.913-4.923,4.476
						c-0.801,0.772-1.593,1.56-2.38,2.354l-1.174,1.193l-1.081,0.932c-2.828,2.525-6.224,4.331-9.931,4.977l-1.5,0.251
						c-0.506,0.059-1.032,0.057-1.543,0.09l-1.537,0.075l-1.569-0.081c-0.523-0.035-1.036-0.027-1.562-0.092l-1.578-0.215
						c-0.54-0.081-1.014-0.11-1.603-0.229l-1.729-0.321l-3.457-0.616c-1.152-0.202-2.305-0.476-3.458-0.694l-3.468-0.667
						c-1.159-0.248-2.32-0.483-3.486-0.704c-9.941-1.894-19.593-5.424-29.669-8.082c-4.957-1.333-10.02-2.505-14.484-3.903
						c-4.521-1.398-8.177-3.137-11.482-5.862c-3.867-3.221-7.326-7.521-10.652-12.356c-8.67-12.021-16.854-24.381-23.795-37.456
						c-6.324-11.82-10.326-24.335-16.118-36.677c-0.762-1.642-1.591-3.428-2.445-5.27c-0.446-0.915-0.899-1.844-1.354-2.776
						c-0.522-1.065-1.042-2.016-1.537-2.88c-0.989-1.712-1.808-3.025-2.479-4.072c-0.649-1.04-1.253-1.866-1.797-2.922
						c-0.538-1.013-1.553-1.862-2.65-2.268c0.893,0.374-0.216,1.618-0.991,3.512c-0.818,1.864-1.168,4.355-1.155,4.658
						c-0.01,1.916,0.409,3.866,0.837,5.718c0.206,0.914,0.414,1.833,0.62,2.749c0.2,0.938,0.399,1.873,0.596,2.798
						c1.408,7.206,2.178,13.927,4.96,21.159c5.835,15.153,13.691,29.546,22.479,43.363l5.797,8.697
						c0.944,1.465,1.997,2.854,3.024,4.259l3.091,4.21l3.095,4.215c1.13,1.428,2.219,2.86,3.444,4.274
						c2.395,2.826,5.033,5.65,8.16,8.231c1.863,1.541,3.907,2.99,6.057,4.264c2.149,1.245,4.389,2.364,6.582,3.243
						C114.586,397.655,118.792,398.888,122.853,400.079z"/>
				</g>
			</g>
		</g>
	</g>
	<g>
		<g>
			<g>
				<path fill="#231F20" d="M135.831,217.987l0.182-0.009C135.931,217.974,135.877,217.948,135.831,217.987z"/>
				<path fill="#231F20" d="M109.892,216.633l0.066-0.152C109.905,216.529,109.892,216.583,109.892,216.633z"/>
				<path fill="#231F20" d="M102.671,229.974l-0.167,0C102.582,229.988,102.632,229.985,102.671,229.974z"/>
				<g>
					<path fill="#231F20" d="M113.914,231.792c2.534,0.215,5.076,0.296,7.611,0.261c2.521-0.101,5.042-0.3,7.533-0.656
						c5.126-0.773,10.146-2.058,15.25-2.264c5.468-0.223,10.597-0.204,15.975-0.638c5.382-0.462,10.644-0.216,16.1-0.05
						c2.64,0.051,5.258-0.162,7.899-0.472c1.317-0.141,2.633-0.27,3.95-0.342c1.32-0.09,2.649-0.17,3.984-0.121
						c1.428,0.036,2.849,0.227,4.3,0.205c0.719,0.005,4.154-1.247,4.77-1.72c0.28-0.215-1.891-0.922-2.478-1.107
						c-0.974-0.302-2.188-0.642-3.333-0.929c-1.145-0.282-2.235-0.612-2.966-0.722c-1.481-0.251-2.559-0.431-3.641-0.554
						c-1.082-0.13-2.176-0.257-3.671-0.325c-6.172-0.289-12.202-0.702-18.324-2.11c-2.479-0.574-5.023-0.716-7.611-0.764
						c-2.571-0.069-5.176-0.02-7.752-0.248l-8.203-0.834c-2.711-0.27-5.412-0.477-8.123-0.448c-2.867-0.019-5.751-0.177-8.584-0.479
						c-1.421-0.136-2.84-0.27-4.261-0.374c-1.415-0.124-2.823-0.248-4.24-0.296c-2.802-0.063-5.563-0.244-8.344-0.382
						c-1.395-0.048-2.761-0.221-4.141-0.351c-1.375-0.148-2.758-0.278-4.124-0.485c-3.172-0.558-6.329-1.089-9.49-1.94
						c-7.962-1.994-15.877-3.818-23.341-6.785c-1.664-0.709-3.283-1.494-4.877-2.302c-1.561-0.869-3.058-1.83-4.579-2.729
						c-1.546-0.86-2.949-1.935-4.457-2.839c-0.747-0.463-1.505-0.911-2.278-1.338c-0.748-0.465-1.492-0.938-2.269-1.372
						c-0.82-0.463-1.706-0.98-2.642-1.486c-0.901-0.454-1.991-1.118-3.322-1.736c-1.402-0.632-2.992-1.208-4.782-1.392
						c-0.86-0.097-1.804-0.062-2.617,0.049c-0.869,0.18-1.651,0.382-2.33,0.767c-1.333,0.766-1.472,2.096-1.335,3.227
						c-0.145-0.898,1.458-0.608,2.63,0.404c0.586,0.483,1.059,1.098,1.368,1.585c0.305,0.515,0.48,0.886,0.533,0.956
						c1.203,1.742,2.359,3.354,3.789,5.172c1.309,1.749,2.498,3.564,3.828,5.3c1.392,1.625,2.92,3.176,4.801,4.49
						c8.006,5.316,17.033,8.521,26.05,11.093c1.916,0.604,3.852,1.04,5.784,1.51c1.932,0.474,3.866,0.935,5.802,1.297
						c1.945,0.374,3.85,0.821,5.823,1.15l5.905,1.041c2.353,0.361,4.741,0.745,7.153,1.158
						C109.046,231.211,111.477,231.517,113.914,231.792z"/>
				</g>
			</g>
		</g>
	</g>
	<g>
		<g>
			<g>
				<path fill="#231F20" d="M255.37,225.73l-0.148,0.039C255.29,225.76,255.339,225.775,255.37,225.73z"/>
				<path fill="#231F20" d="M277.086,220.8l0.001,0.165C277.112,220.901,277.104,220.847,277.086,220.8z"/>
				<path fill="#231F20" d="M277.512,205.921l0.115-0.057C277.567,205.877,277.534,205.898,277.512,205.921z"/>
				<g>
					<path fill="#231F20" d="M268.998,207.661c-1.893,0.427-3.756,0.964-5.591,1.615c-0.919,0.322-1.824,0.686-2.735,1.054
						c-0.926,0.341-1.843,0.71-2.754,1.109c-1.876,0.822-3.729,1.751-5.614,2.597c-1.885,0.853-3.802,1.621-5.81,1.997
						c-2.127,0.407-4.245,0.813-6.361,1.218c-1.058,0.209-2.114,0.431-3.167,0.678c-1.054,0.246-2.113,0.437-3.167,0.71
						c-2.122,0.53-4.24,0.894-6.368,1.173c-1.064,0.14-2.13,0.259-3.202,0.369c-1.073,0.089-2.154,0.108-3.241,0.16
						c-2.096,0.085-4.16,0.497-6.235,0.864c-1.037,0.184-2.076,0.356-3.12,0.472c-1.054,0.119-2.201,0.213-3.313,0.187
						c-1.188-0.022-2.447-0.155-3.549-0.171c-0.557-0.014-3.22,1.189-3.717,1.656c-0.226,0.213,1.505,0.947,1.987,1.137
						c1.573,0.619,4.005,1.397,5.194,1.651c1.211,0.23,2.083,0.396,2.955,0.504c0.884,0.115,1.802,0.187,3.043,0.207
						c5.143,0.061,10.171,0.144,15.371,0.719c4.226,0.542,8.468-0.597,12.649-0.875c4.549-0.221,9.212,0.004,13.656-1.046
						c2.371-0.522,4.783-0.828,7.199-1.142c2.414-0.34,4.834-0.836,7.202-1.481c2.331-0.66,4.653-1.354,6.958-2.075
						c2.27-0.803,4.541-1.592,6.84-2.299c2.675-0.842,5.41-1.549,8.061-2.396c3.377-1.017,6.7-2.189,10.01-3.387
						c3.263-1.265,6.509-2.561,9.796-3.754c3.018-1.09,5.896-1.779,8.96-2.586c3.057-0.837,6.157-1.738,9.178-3.377
						c3.146-1.671,7.717-4.121,8.656-8.376c0.231-1.003-0.304-2.197-0.935-3.153c0.52,0.782-0.581,0.868-1.806,0.726
						c-1.227-0.135-2.563-0.519-2.732-0.552c-0.972-0.103-1.887-0.06-2.779,0.023c-0.891,0.083-1.803,0.145-2.694,0.165
						c-3.489,0.04-6.778-0.713-10.108,0.102c-1.729,0.428-3.5,0.919-5.24,1.462c-1.776,0.561-3.535,1.168-5.214,1.767
						c-3.396,1.215-6.752,2.543-10.146,3.814c-5.778,1.975-11.466,4.35-17.318,5.926
						C276.304,206.054,272.636,206.924,268.998,207.661z"/>
				</g>
			</g>
		</g>
	</g>
	<g>
		<g>
			<g>
				<path fill="#231F20" d="M250.352,341.896l-0.285,0.131C250.198,341.986,250.293,341.964,250.352,341.896z"/>
				<path fill="#231F20" d="M280.089,310.897l0.077,0.163C280.17,310.964,280.134,310.92,280.089,310.897z"/>
				<path fill="#231F20" d="M273.001,296.074l0.098-0.21C273.039,295.957,273.014,296.021,273.001,296.074z"/>
				<g>
					<path fill="#231F20" d="M263.392,308.973c-2.172,3.133-4.073,6.165-5.929,8.979c-1.856,2.798-3.666,5.342-5.582,7.549
						c-1.01,1.067-2.013,2.176-3.146,3.021l-0.417,0.347c-0.151,0.115-0.338,0.223-0.506,0.335l-1.039,0.673
						c-0.692,0.454-1.387,0.919-2.167,1.299c-2.972,1.688-6.41,2.955-9.981,3.938c-3.799,1.017-7.767,1.842-11.767,2.883
						c-2.053,0.533-3.922,1.037-5.813,1.573c-1.893,0.482-3.783,1.038-5.677,1.492c-3.809,1.006-7.625,1.59-11.436,1.8
						c-1.908,0.146-3.807,0.094-5.71,0.057c-0.95-0.037-1.895-0.146-2.844-0.216c-0.991-0.083-1.985-0.166-2.982-0.249
						c-3.982-0.325-7.995-0.353-11.955-0.364c-3.923,0.065-7.842,0.087-11.752-0.311c-1.041-0.109-2.003-0.276-2.999-0.428
						c-0.996-0.145-1.901-0.404-2.85-0.583c-0.49-0.051-1.826-0.176-3.25-0.192c-1.369-0.108-2.751-0.285-3.27-0.22
						c-0.484,0.021,1.831,1.801,2.58,2.27c2.337,1.456,6.543,2.944,8.743,3.355c4.407,0.866,6.453,1.232,10.986,1.635
						c2.353,0.177,4.632,0.48,6.921,0.735c2.28,0.279,4.55,0.558,6.817,0.835l3.53,0.484l1.803,0.26l1.809,0.171
						c2.421,0.281,4.85,0.4,7.31,0.558c3.98,0.213,7.997-0.337,11.939-1.07c1.949-0.422,3.921-0.817,5.836-1.29
						c0.956-0.214,1.909-0.428,2.86-0.641c0.909-0.189,1.818-0.366,2.726-0.524c3.987-0.652,8.11-1.157,12.332-1.912
						c4.222-0.764,8.59-1.862,12.882-3.766l1.712-0.79l0.857-0.391c0.289-0.137,0.603-0.323,0.902-0.483
						c0.601-0.337,1.226-0.654,1.805-1.016l1.713-1.112c2.213-1.544,4.235-3.246,6.044-5.037c3.596-3.593,6.469-7.425,8.927-11.186
						l3.487-5.403c0.567-0.854,1.128-1.723,1.694-2.521l1.87-2.721l1.98-2.932l1.792-2.956l0.899-1.475l0.832-1.467l1.679-2.924
						c2.527-4.504,4.975-8.865,7.558-12.916l2.494-3.706l2.589-3.485l2.971-3.927c1.011-1.326,2.007-2.66,2.926-4.031l2.816-4.085
						l2.675-4.139c0.905-1.376,1.776-2.76,2.621-4.151l2.582-4.156c3.047-5.013,6.286-9.806,9.396-14.6
						c1.561-2.407,3.102-4.796,4.584-7.226l1.103-1.834c0.251-0.456,0.547-1.036,0.803-1.557l0.385-0.807l0.276-0.733
						c0.8-2.078,1.078-3.594,1.39-4.793c0.29-1.313,0.528-1.821,0.665-2.184c0.019-0.04,0.033-0.084,0.043-0.135
						c0.01-0.03-0.004-0.039,0.023-0.091l0.259-0.343c0.338-0.461,0.677-0.924,1.017-1.388c0.631-0.958,1.237-1.941,1.729-2.964
						c1.026-2.03,1.661-4.178,1.967-6.193c0.128-1.014,0.176-1.999,0.139-2.928c-0.079-0.937-0.177-1.812-0.418-2.622
						c-0.474-1.58-1.699-2.148-2.833-2.3c0.907,0.108,0.196,1.904-1.027,3.472c-0.585,0.791-1.324,1.51-1.876,2.05
						c-0.603,0.526-1.044,0.877-1.131,0.97c-0.509,0.566-1.092,1.091-1.585,1.65c-0.556,0.525-1.065,1.07-1.62,1.57
						c-0.568,0.491-1.09,1.001-1.694,1.427c-0.3,0.233-0.562,0.411-0.886,0.678c-0.384,0.357-0.767,0.712-1.147,1.067
						c-1.398,1.423-2.514,3.152-3.315,4.568c-0.853,1.441-1.562,2.73-2.264,3.5c-0.331,0.473-0.698,0.663-0.979,0.952
						c-0.478,0.52-1.004,1.125-1.491,1.706c-0.988,1.181-1.941,2.427-2.845,3.775c-7.521,11.269-13.815,22.854-21.345,33.434
						l-1.19,1.694l-1.238,1.641l-2.465,3.29l-2.773,3.806l-0.696,0.965l-0.624,0.977l-1.247,1.955
						c-3.272,5.212-6.009,10.417-8.814,15.267c-0.846,1.408-1.697,2.862-2.587,4.246c-0.91,1.332-1.788,2.745-2.742,4.022
						c-1.001,1.314-2.006,2.634-3.013,3.956C265.53,305.94,264.453,307.461,263.392,308.973z"/>
				</g>
			</g>
		</g>
	</g>
	<g>
		<g>
			<g>
				<path fill="#231F20" d="M397.421,275.842l0.103,0.075C397.482,275.876,397.469,275.833,397.421,275.842z"/>
				<path fill="#231F20" d="M384.408,262.864l0.144-0.073C384.489,262.799,384.443,262.829,384.408,262.864z"/>
				<path fill="#231F20" d="M370.801,268.491l-0.092-0.088C370.741,268.454,370.771,268.479,370.801,268.491z"/>
				<g>
					<path fill="#231F20" d="M375.914,275.558c1.325,1.459,2.661,2.91,4.212,4.143c1.561,1.223,3.174,2.371,4.882,3.363
						c1.821,0.959,3.688,1.808,5.484,2.708c1.854,0.83,3.673,1.665,5.321,2.768c1.769,1.138,3.6,2.161,5.398,3.222
						c0.886,0.549,1.869,0.958,2.833,1.385c0.969,0.419,1.948,0.814,2.943,1.173c0.5,0.18,0.993,0.368,1.48,0.563
						c0.489,0.188,0.997,0.327,1.487,0.503c0.986,0.338,1.955,0.701,2.916,1.084c0.968,0.362,1.902,0.827,2.884,1.151
						c0.977,0.344,1.957,0.688,2.944,1.037c0.952,0.338,1.929,0.598,2.911,0.821c0.99,0.182,1.996,0.285,2.99,0.421l1.488,0.209
						c0.521,0.081,0.9,0.147,1.618,0.28c0.653,0.099,1.269,0.313,1.943,0.36c0.664,0.103,1.342,0.088,2.021,0.051
						c1.448-0.121,2.854-0.578,4.206-1.288c0.084-0.042,0.201-0.123,0.341-0.234c0.081-0.071,0.178-0.173,0.242-0.254
						c0.141-0.175,0.264-0.374,0.291-0.517c0.023-0.085,0.031-0.158,0.022-0.221c0-0.074-0.001-0.145-0.001-0.21
						c0.005-0.154,0.058-0.252,0.092-0.37c0.032-0.092,0.016-0.366-0.162-0.66c-0.158-0.276-0.524-0.508-0.715-0.548
						c-0.578-0.231-1.606-0.121-2.514-0.012c-0.887,0.094-1.648,0.057-2.148,0.007c-1.02-0.092-1.681-0.479-2.293-0.827
						c-0.324-0.175-0.572-0.317-0.965-0.485c-0.408-0.172-0.854-0.343-1.373-0.526c-1.069-0.375-2.132-0.748-3.189-1.119
						c-1.031-0.442-2.048-0.9-3.052-1.375c-1.002-0.479-1.996-0.965-2.956-1.521c-0.932-0.62-1.842-1.279-2.719-1.993
						c-0.709-0.576-1.462-1.052-2.245-1.469c-0.771-0.444-1.529-0.909-2.32-1.314l-2.36-1.238c-0.388-0.215-0.778-0.418-1.148-0.663
						c-0.362-0.262-0.718-0.532-1.061-0.818c-3.022-2.417-5.568-5.317-8.554-7.612c-0.785-0.631-1.535-1.303-2.267-1.991
						c-0.362-0.349-0.734-0.685-1.078-1.053l-1.005-1.135c-1.328-1.522-2.703-2.965-4.079-4.437l-2.124-2.088
						c-0.723-0.684-1.363-1.453-2.051-2.177l-2.02-2.22c-0.646-0.766-1.245-1.576-1.849-2.38c-0.689-0.951-1.41-1.876-2.042-2.871
						c-0.626-1-1.241-2.008-1.843-3.021c-3.06-5.159-6.261-10.196-8.479-15.5c-0.998-2.404-1.472-4.924-1.874-7.376
						c-0.416-2.461-0.644-4.858-1.255-7.238c-0.654-2.558-0.928-5.918-3.768-8.35c-0.713-0.594-2.004-0.854-3.146-0.922
						c0.938,0.06,0.407,0.818-0.384,1.644c-0.807,0.821-1.822,1.73-1.899,1.856c-0.533,0.748-0.921,1.554-1.241,2.381
						c-0.292,0.826-0.537,1.674-0.851,2.524c-1.135,3.264-2.538,6.565-2.088,10.123c0.987,7.445,4.222,14.109,7.645,20.292
						c1.465,2.655,3.034,5.157,4.693,7.644l2.524,3.728c0.811,1.26,1.765,2.439,2.622,3.679c0.523,0.734,1.04,1.484,1.555,2.245
						c0.528,0.751,1.101,1.482,1.65,2.234C373.573,272.602,374.623,274.172,375.914,275.558z"/>
				</g>
			</g>
		</g>
	</g>
	<g>
		<g>
			<g>
				<path fill="#231F20" d="M88.186,274.67l0.189,0.054C88.292,274.691,88.246,274.649,88.186,274.67z"/>
				<path fill="#231F20" d="M61.413,263.872l0.121-0.122C61.457,263.776,61.426,263.823,61.413,263.872z"/>
				<path fill="#231F20" d="M51.511,275.355l-0.102-0.002C51.468,275.369,51.484,275.366,51.511,275.355z"/>
				<g>
					<path fill="#231F20" d="M61.026,279.781c2.547,1.13,5.105,2.147,7.742,3.02c2.656,0.832,5.3,1.628,8.047,2.153
						c1.406,0.285,2.816,0.542,4.222,0.795l4.25,0.678c2.812,0.5,5.64,0.948,8.41,1.685c1.458,0.415,2.937,0.764,4.412,1.114
						s2.942,0.72,4.421,1.043c1.49,0.284,2.982,0.557,4.479,0.804l2.25,0.347l2.279,0.205c1.532,0.119,3.042,0.276,4.54,0.463
						l2.508,0.173c0.847,0.068,1.618,0.017,2.43,0.037c3.185-0.027,6.063-0.231,8.879-0.068c1.372,0.038,2.74-0.007,4.114-0.089
						l4.188-0.014c1.404,0.01,2.792-0.033,4.211,0.098c1.415,0.117,2.825,0.293,4.224,0.572c1.486,0.298,2.965,0.693,4.484,1.036
						c0.744,0.168,4.624-0.263,5.4-0.58c0.353-0.145-1.763-1.333-2.349-1.648c-1.933-1.038-4.883-2.454-6.441-2.961
						c-1.575-0.516-2.733-0.891-3.909-1.21c-0.588-0.158-1.179-0.307-1.832-0.446c-0.659-0.119-1.379-0.233-2.214-0.352
						c-1.73-0.24-3.449-0.479-5.161-0.717c-1.745-0.138-3.483-0.275-5.219-0.413l-2.622-0.25l-2.553-0.185
						c-0.823-0.08-1.63-0.176-2.442-0.282c-0.776-0.139-1.533-0.302-2.287-0.47c-0.57-0.184-1.126-0.346-1.687-0.476
						c-0.262-0.053-0.583-0.14-0.919-0.232l-0.987-0.248c-1.32-0.314-2.658-0.566-4.001-0.801c-1.347-0.206-2.678-0.55-4.01-0.834
						c-1.327-0.315-2.651-0.614-3.93-1.058c-2.764-1.006-5.502-1.999-8.205-3.155c-1.355-0.56-2.719-1.073-4.085-1.596
						c-1.362-0.545-2.736-1.05-4.133-1.498c-5.946-1.961-11.493-4.946-17.341-7.292l-8.887-3.515
						c-0.847-0.303-1.658-0.619-2.533-0.909l-2.743-0.811l-0.343-0.1l-0.415-0.093l-0.834-0.179c-0.566-0.12-0.962-0.165-1.451-0.25
						l-1.211-0.183l-0.976-0.163c-0.413-0.092-0.257-0.054-0.364-0.084c-0.073-0.026-0.147-0.05-0.213-0.093
						c-0.071-0.032-0.124-0.093-0.18-0.145l-0.064-0.082c-0.028-0.035,0.006-0.004-0.198-0.228c-1.142-1.293-2.207-2.543-2.98-3.724
						c-1.007-1.498-1.657-2.841-1.933-3.948l-0.067-0.209c-0.012-0.041-0.023-0.057-0.037-0.117l-0.042-0.21l-0.17-0.837
						l-0.346-1.673l-0.708-3.343c-0.907-4.508-1.808-9.052-2.592-13.665c-1.455-8.334-1.435-16.79-3.935-25.25
						c-0.638-2.228-1.48-4.897-2.55-7.355c-0.51-1.225-1.26-2.425-2.034-3.475c-0.789-1.053-1.676-1.968-2.682-2.662
						c-0.979-0.674-2.289-0.513-3.369-0.132c0.885-0.313,0.791,1.067,0.454,2.539c-0.335,1.476-0.917,3.029-0.952,3.224
						c-0.103,0.593-0.165,1.185-0.201,1.774c-0.063,0.601-0.103,1.202-0.13,1.801c-0.055,1.199-0.065,2.394-0.151,3.574
						c-0.136,2.27-0.55,4.491-0.799,6.688c-0.247,2.195-0.369,4.376-0.151,6.704c1.027,9.682,2.814,19.241,4.737,29.12l1.328,6.328
						c0.747,3.217,2.169,5.965,3.683,8.232c1.523,2.275,3.17,4.171,4.705,5.833l0.569,0.613l0.479,0.504l0.54,0.542l0.551,0.527
						c0.258,0.083,0.406,0.298,0.614,0.44c0.403,0.297,0.741,0.692,1.205,0.898c0.441,0.24,0.887,0.477,1.341,0.692
						c0.467,0.188,0.939,0.366,1.416,0.533c0.921,0.326,2.191,0.599,2.705,0.699c0.682,0.126,1.367,0.252,2.055,0.378l0.768,0.156
						c0.277,0.051,0.423,0.103,0.572,0.147l0.234,0.064c0.087,0.026,0.223,0.083,0.332,0.123l0.693,0.262
						c0.474,0.191,0.9,0.302,1.416,0.551c1.008,0.46,1.987,0.882,3.133,1.455L61.026,279.781z"/>
				</g>
			</g>
		</g>
	</g>
	<g>
		<g>
			<g>
				<path fill="#231F20" d="M110.413,147.078l0.148,0.003C110.495,147.072,110.453,147.043,110.413,147.078z"/>
				<path fill="#231F20" d="M89.684,142.853l0.088-0.136C89.719,142.755,89.695,142.805,89.684,142.853z"/>
				<path fill="#231F20" d="M80.244,154.402l-0.148-0.035C80.162,154.397,80.207,154.404,80.244,154.402z"/>
				<g>
					<path fill="#231F20" d="M89.806,158.284c4.429,1.315,9.035,1.861,13.57,1.63c4.69-0.252,9.227-1.233,13.793-1.397
						c2.418-0.011,4.849-0.227,7.262-0.398c2.426-0.352,4.841-0.627,7.226-1.416c2.46-0.683,4.596-1.347,6.846-1.887
						c2.251-0.518,4.503-1.035,6.79-1.56c4.444-0.954,8.453-3.422,12.945-4.289c1.194-0.287,2.415-0.484,3.627-0.744
						c0.602-0.129,3.149-1.97,3.544-2.541c0.18-0.26-1.821-0.539-2.362-0.607c-1.795-0.217-4.42-0.407-5.687-0.307
						c-2.585,0.159-3.807,0.146-6.313,0.686c-2.577,0.576-5.176,1.002-7.766,1.379c-2.581,0.39-5.219,0.582-7.919,0.542
						c-1.088-0.019-2.176,0.085-3.232,0.228c-1.004,0.089-1.998,0.242-2.989,0.416c-0.979,0.205-2.005,0.303-3.022,0.392
						c-1.021,0.075-2.024,0.187-3.049,0.108c-1.109-0.082-2.213-0.187-3.311-0.293c-1.096-0.1-2.205-0.319-3.298-0.453l-1.641-0.207
						l-1.643-0.231c-1.096-0.123-2.19-0.239-3.29-0.325c-4.701-0.313-9.186-1.831-13.672-2.782
						c-4.434-0.942-8.847-2.03-12.902-3.875c-1.211-0.492-2.305-1.16-3.451-1.75c-1.107-0.642-2.172-1.339-3.22-2.046
						c-2.597-1.85-5.011-3.809-7.217-5.939l-1.581-1.656c-0.518-0.568-0.975-1.222-1.468-1.828c-0.481-0.62-0.978-1.227-1.448-1.858
						l-1.252-2.029c-0.364-0.622-0.754-1.214-1.05-1.877c-0.289-0.669-0.564-1.342-0.831-2.014
						c-0.259-0.679-0.546-1.328-0.764-2.028l-0.631-2.112c-0.206-0.706-0.445-1.383-0.644-2.098
						c-0.189-0.724-0.389-1.442-0.607-2.155c-0.213-0.717-0.465-1.41-0.705-2.132c-0.229-0.73-0.484-1.456-0.771-2.176
						c-1.242-3.025-2.423-7.435-6.019-9.563c-0.875-0.514-2.19-0.431-3.306-0.171c1.828-0.435-1.07,4.203-1.178,4.535
						c-0.675,1.915-0.627,3.863-0.897,5.82c-0.225,1.893-0.524,3.759-0.711,5.644c-0.135,1.882-0.058,3.791,0.398,5.727
						c0.29,1.01,0.623,2.014,0.959,3.015c0.361,0.997,0.644,2.007,1.119,2.978c0.44,0.978,0.896,1.952,1.362,2.92
						c0.238,0.482,0.458,0.971,0.719,1.445l0.842,1.402l1.724,2.784c0.58,0.925,1.311,1.77,1.968,2.652
						c0.686,0.869,1.337,1.752,2.062,2.602l2.312,2.483c2.729,2.68,5.666,5.132,8.818,7.117c1.535,1.083,3.175,1.917,4.761,2.875
						l2.444,1.26l1.221,0.631l1.239,0.57C81.44,155.262,85.557,157.032,89.806,158.284z"/>
				</g>
			</g>
		</g>
	</g>
	<g>
		<g>
			<g>
				<path fill="#231F20" d="M266.75,160.227l-0.168,0.022C266.658,160.248,266.71,160.269,266.75,160.227z"/>
				<path fill="#231F20" d="M289.922,156.286l-0.01,0.164C289.943,156.388,289.938,156.333,289.922,156.286z"/>
				<path fill="#231F20" d="M291.005,141.467l0.115-0.052C291.062,141.426,291.028,141.444,291.005,141.467z"/>
				<g>
					<path fill="#231F20" d="M282.373,142.851c-3.934,0.691-7.998,1.771-11.905,3.328c-3.437,1.474-7.403,3.01-11.505,3.25
						c-4.367,0.146-8.683-0.141-13.044-0.133c-2.164-0.065-4.33-0.254-6.317-0.764c-0.529-0.124-0.961-0.207-1.567-0.375
						l-1.722-0.466c-1.095-0.3-2.194-0.602-3.301-0.906c-4.188-1.184-8.725-1.145-12.503-3.041c-0.99-0.506-1.907-1.123-2.713-1.7
						c-0.195-0.141-0.932-0.286-1.55-0.39c-0.3-0.049-0.58-0.085-0.752-0.066c-0.219,0.01-0.135,0.05-0.657,0.352
						c-0.074,0.04-0.078,0.042-0.025,0.014c0.039-0.017,0.23-0.137,0.121-0.056c-0.09,0.072-0.194,0.196-0.194,0.39
						c-0.062,0.37,0.15,0.895,0.248,1.107c0.646,1.455,2.551,3.435,3.601,4.169c2.15,1.515,3.212,2.151,5.643,3.104
						c2.516,0.97,5.028,1.81,7.498,2.726c1.231,0.458,2.466,0.935,3.635,1.457c1.026,0.512,2.449,1.101,3.737,1.742
						c1.075,0.555,2.166,0.847,3.289,1.128c1.122,0.27,2.269,0.506,3.402,0.609c1.138,0.127,2.278,0.253,3.414,0.38
						c1.132,0.096,2.257,0.203,3.371,0.391c4.825,0.744,9.72,1.686,14.78,1.107c1.322-0.096,2.708-0.292,4.085-0.427l2.038-0.201
						l1.835-0.203c2.445-0.272,4.929-0.536,7.412-1.082c4.887-1.068,9.841-2.492,14.896-4.088c1.477-0.424,2.953-0.996,4.437-1.49
						c1.479-0.529,2.953-1.142,4.435-1.72c3.723-1.588,7.255-3.708,10.54-6.144l2.369-1.939l1.174-0.98l1.103-1.049l2.2-2.099
						l2.054-2.21c1.29-1.3,2.414-2.673,3.658-3.977c0.314-0.348,0.596-0.613,0.941-1.028c0.393-0.527,0.778-1.066,1.154-1.615
						c0.182-0.269,0.389-0.564,0.542-0.817l0.395-0.706l0.776-1.43c1.825-3.671,2.892-7.026,3.406-10.611
						c0.133-0.946,0.259-1.972,0.36-3.042c0.04-0.544,0.071-1.097,0.088-1.652l0.006-0.383l-0.015-0.207
						c-0.013-0.139-0.032-0.281-0.06-0.427c-0.194-1.151-0.556-2.375-1.238-4.068c-0.355-0.817-1.321-1.729-2.262-2.382
						c0.772,0.55-0.077,0.926-1.215,1.366c-1.068,0.451-2.47,1.049-2.567,1.179c-0.4,0.322-0.773,0.688-1.128,1.087
						c-0.327,0.404-0.594,0.848-0.873,1.306l-0.762,1.312c-0.235,0.398-0.472,0.791-0.726,1.173
						c-2.032,2.959-4.563,5.365-5.931,8.097c-0.372,0.664-0.705,1.439-1.053,1.919l-0.244,0.41c-0.077,0.113-0.162,0.33-0.225,0.351
						c-0.132,0.12-0.239,0.244-0.328,0.381l-1.571,1.8c-0.549,0.629-1.06,1.3-1.648,1.871l-1.688,1.802
						c-0.559,0.605-1.183,1.122-1.764,1.695c-0.586,0.567-1.173,1.134-1.817,1.623c-0.632,0.507-1.25,1.033-1.891,1.53
						c-4.451,3.225-9.356,5.903-15.028,7.505C289.869,141.636,286.166,142.191,282.373,142.851z"/>
				</g>
			</g>
		</g>
	</g>
	<g>
		<g>
			<g>
				<path fill="#231F20" d="M256.96,137.509l-0.132,0.049C256.89,137.544,256.937,137.556,256.96,137.509z"/>
				<path fill="#231F20" d="M276.273,130.961l0.022,0.161C276.311,131.059,276.296,131.006,276.273,130.961z"/>
				<path fill="#231F20" d="M274.829,116.319l0.101-0.063C274.876,116.273,274.848,116.295,274.829,116.319z"/>
				<g>
					<path fill="#231F20" d="M267.163,118.735c-3.301,1.082-6.361,2.693-9.514,4.447c-3.19,1.868-6.252,4.224-9.847,5.35
						c-3.772,1.21-7.558,2.127-11.244,3.547c-3.712,1.429-7.494,2.09-11.356,2.573c-3.693,0.455-7.293,2.057-10.955,1.607
						c-0.481-0.066-0.959-0.155-1.433-0.247c-0.471-0.101-0.92-0.245-1.377-0.351c-0.462-0.053-2.744,0.5-3.286,0.827
						c-0.25,0.15,0.958,1.266,1.338,1.57c1.174,0.978,3.265,2.145,4.371,2.45c1.117,0.352,1.949,0.563,2.784,0.696
						c0.838,0.144,1.689,0.241,2.841,0.229c4.785,0.021,9.362-0.479,14.213-0.151c3.938,0.251,7.646-1.361,11.448-1.852
						c2.067-0.262,4.147-0.46,6.207-0.736c1.033-0.136,2.049-0.299,3.063-0.497c1.02-0.217,2.034-0.487,3.031-0.81
						c2.121-0.69,4.305-1.17,6.492-1.66l1.641-0.373l1.63-0.485c1.083-0.336,2.158-0.702,3.213-1.124l3.1-1.281l2.938-1.369
						c1.951-0.901,3.946-1.835,5.885-2.584c2.284-0.901,4.591-1.747,6.915-2.537c0.684-0.225,1.587-0.571,2.416-0.894
						c0.844-0.326,1.684-0.662,2.457-1.044c0.782-0.375,1.595-0.745,2.343-1.14l2.229-1.199c2.89-1.62,5.573-3.257,8.212-4.635
						c2.4-1.243,4.71-1.888,7.279-2.604c2.472-0.65,4.761-1.146,6.848-1.872c0.542-0.156,1.142-0.331,1.752-0.533
						c0.586-0.129,1.19-0.311,1.802-0.59c0.581-0.19,1.166-0.469,1.772-0.898c0.593-0.387,1.179-0.825,1.812-1.5
						c0.608-0.646,1.076-1.886,1.333-3.002c-0.221,0.914-0.817,0.312-1.52-0.577c-0.35-0.433-0.724-0.98-1.043-1.35
						c-0.317-0.373-0.565-0.66-0.626-0.708c-0.725-0.556-1.561-1.05-2.416-1.329c-0.856-0.285-1.754-0.535-2.661-0.821
						c-3.458-0.987-7.045-1.976-10.542-1.16c-1.83,0.438-3.521,0.979-5.214,1.609c-0.863,0.345-1.723,0.704-2.578,1.074
						c-0.836,0.376-1.624,0.778-2.433,1.178c-3.164,1.617-6.02,3.359-8.781,4.858c-2.337,1.267-4.558,2.385-6.742,3.296
						c-2.635,1.087-5.342,2.179-8.044,3.187c-1.644,0.603-3.241,1.162-4.873,1.721C270.424,117.605,268.793,118.17,267.163,118.735z
						"/>
				</g>
			</g>
		</g>
	</g>
	<g>
		<g>
			<g>
				<path fill="#231F20" d="M120.52,123.849l0.118,0.035C120.587,123.86,120.562,123.824,120.52,123.849z"/>
				<path fill="#231F20" d="M104.158,117.049l0.095-0.129C104.203,116.954,104.175,117.002,104.158,117.049z"/>
				<path fill="#231F20" d="M94.813,128.229l-0.11-0.029C94.749,128.227,94.783,128.232,94.813,128.229z"/>
				<g>
					<path fill="#231F20" d="M101.583,131.986c1.579,0.718,3.203,1.333,4.864,1.837c0.831,0.25,1.669,0.48,2.519,0.666
						c0.858,0.164,1.723,0.298,2.596,0.403c1.797,0.217,3.619,0.326,5.407,0.516c0.895,0.092,1.778,0.218,2.654,0.364
						c0.881,0.131,1.748,0.307,2.597,0.552c1.789,0.542,3.568,1.081,5.348,1.619c0.887,0.264,1.771,0.52,2.774,0.713
						c0.978,0.208,1.956,0.383,2.898,0.461c3.839,0.412,7.36,1.22,11.049,2.061c3.579,0.748,7.298,0.171,10.899,1.027
						c0.972,0.224,1.908,0.574,2.907,0.804c0.509,0.107,3.064-0.654,3.532-1.039c0.212-0.175-1.217-1.175-1.592-1.439
						c-0.632-0.438-1.415-0.931-2.143-1.389c-0.728-0.486-1.416-0.908-1.888-1.124c-1.908-0.854-2.776-1.296-4.757-1.799
						c-4.075-1.057-8.077-2.085-11.818-4.247c-1.522-0.854-3.121-1.343-4.744-1.763c-0.807-0.21-1.542-0.433-2.31-0.664
						c-0.756-0.233-1.589-0.593-2.342-0.966c-3.307-1.695-6.493-3.629-9.915-4.913c-1.835-0.652-3.591-1.509-5.344-2.357
						c-1.745-0.867-3.443-1.814-5.258-2.496c-1.776-0.7-3.611-1.276-5.376-1.993c-1.764-0.72-3.526-1.455-5.253-2.268
						c-1.007-0.475-2.012-0.958-3.003-1.464c-0.966-0.549-1.924-1.11-2.875-1.683c-1.201-0.724-2.42-1.41-3.649-2.075l-1.853-0.982
						l-1.801-1.053c-2.39-1.417-4.838-2.757-7.16-4.279c-2.038-1.458-3.846-3.183-5.683-4.833c-0.455-0.418-0.931-0.81-1.379-1.232
						c-0.438-0.433-0.883-0.856-1.339-1.266c-0.913-0.819-1.872-1.582-2.921-2.255c-0.936-0.599-1.99-1.274-3.063-1.961
						l-0.621-0.395c-0.11-0.054-0.196-0.147-0.328-0.167l-0.321-0.171c-0.435-0.214-0.851-0.448-1.308-0.59
						c-0.899-0.314-1.833-0.464-2.738-0.453c-0.905,0.01-1.776,0.177-2.558,0.462c-0.39,0.148-0.767,0.317-1.097,0.512
						c-0.189,0.098-0.269,0.203-0.367,0.311l-0.288,0.339c-0.445,0.712-0.678,2.003-0.757,3.146
						c0.083-0.937,0.633-0.404,1.538,0.379c0.886,0.771,1.375,1.92,1.433,2.032c0.648,0.935,1.071,1.857,1.327,2.696
						c0.012,0.074-0.036,0.094,0.022,0.201l0.147,0.304l0.283,0.618c1.246,2.876,2.061,6.007,4.208,8.273
						c2.354,2.193,4.895,4.15,7.496,6.015c2.636,1.803,5.432,3.324,8.16,4.998l1.751,1.044l1.802,0.934l3.611,1.851l3.6,1.866
						l3.633,1.77C95.686,128.85,98.534,130.67,101.583,131.986z"/>
				</g>
			</g>
		</g>
	</g>
	<g>
		<g>
			<g>
				<path fill="#231F20" d="M434.634,267.517l0.065,0.099C434.677,267.566,434.682,267.523,434.634,267.517z"/>
				<path fill="#231F20" d="M425.816,252.86l0.15-0.06C425.904,252.803,425.855,252.829,425.816,252.86z"/>
				<path fill="#231F20" d="M412.34,258.289l-0.068-0.058C412.293,258.268,412.315,258.283,412.34,258.289z"/>
				<g>
					<path fill="#231F20" d="M415.354,263.727c1.537,2.544,3.336,4.874,5.566,6.955c2.221,2.165,4.853,4.144,6.379,6.809
						c0.848,1.393,1.547,2.842,2.306,4.265c0.379,0.712,0.77,1.418,1.185,2.114c0.383,0.709,0.789,1.408,1.233,2.096
						c0.896,1.382,1.648,2.813,2.207,4.312c0.565,1.497,1.153,2.995,1.551,4.568c0.21,0.753,0.498,1.478,0.819,2.193l0.504,1.068
						l0.256,0.526l0.187,0.428c0.515,1.142,0.819,2.512,0.59,4.007c-0.128,0.807-0.358,1.621-0.538,2.49
						c-0.046,0.196,0.149,0.887,0.403,1.546c0.265,0.686,0.603,1.371,0.808,1.581c0.188,0.188,1.097-1.168,1.341-1.517
						c0.812-1.173,1.911-2.88,2.236-3.813c0.633-1.878,0.914-2.826,0.757-4.939c-0.074-0.538-0.145-1.121-0.238-1.629l-0.296-1.447
						c-0.195-0.965-0.383-1.932-0.546-2.909c-0.313-1.96-0.703-3.89-0.776-5.993c-0.065-1.701-0.692-3.223-1.313-4.752
						c-0.614-1.537-1.39-2.989-1.872-4.556c-0.261-0.849-0.502-1.71-0.741-2.576l-0.807-2.546c-0.563-1.691-1.188-3.368-2.104-4.872
						c-1.889-3.243-3.126-6.856-5.222-9.952l-1.587-2.254l-0.807-1.116l-0.921-1.155c-1.249-1.535-2.454-3.102-3.656-4.653
						c-1.494-1.708-2.93-3.479-4.368-5.238c-3.784-4.251-8.181-7.808-12.456-11.208c-0.963-0.781-1.86-1.646-2.745-2.5l-2.639-2.545
						c-1.763-1.722-3.579-3.293-5.714-4.491c-2.271-1.291-5.129-3.136-8.6-1.91c-0.842,0.302-1.716,1.274-2.374,2.212
						c1.08-1.538,1.127,3.263,1.188,3.528c0.368,1.609,1.203,2.776,1.821,4.136c1.174,2.643,1.886,5.482,3.714,7.363
						c1.898,1.977,3.997,3.686,5.994,5.392c1.009,0.849,2.077,1.649,3.076,2.491c0.985,0.848,1.972,1.697,2.961,2.549l1.261,1.085
						l1.177,1.13l2.373,2.246c0.829,0.727,1.473,1.563,2.198,2.353c0.705,0.803,1.404,1.61,2.09,2.43
						c0.74,1.021,1.386,2.126,2.066,3.214c0.338,0.543,0.678,1.088,1.018,1.635L415.354,263.727z"/>
				</g>
			</g>
		</g>
	</g>
	<g>
		<g>
			<g>
				<path fill="#231F20" d="M398.67,169.617l-0.123,0.024C398.604,169.639,398.643,169.659,398.67,169.617z"/>
				<path fill="#231F20" d="M416.605,168.433l-0.032,0.158C416.605,168.538,416.609,168.483,416.605,168.433z"/>
				<path fill="#231F20" d="M420.499,154.294l0.118-0.017C420.562,154.271,420.526,154.279,420.499,154.294z"/>
				<g>
					<path fill="#231F20" d="M412.398,153.798c-1.814,0.053-3.626,0.219-5.419,0.502c-1.784,0.317-3.539,0.805-5.266,1.381
						c-1.784,0.574-3.506,1.378-5.242,2.049l-1.304,0.49l-0.653,0.227c-0.235,0.076-0.385,0.134-0.748,0.228
						c-0.307,0.074-0.648,0.207-0.992,0.312c-0.338,0.116-0.685,0.195-1.006,0.355c-0.659,0.271-1.286,0.6-1.905,0.947
						c-0.321,0.187-0.648,0.397-0.901,0.559l-0.682,0.468c-0.404,0.281-0.749,0.529-0.988,0.68
						c-0.146,0.104-0.234,0.146-0.321,0.196l-0.138,0.085l-0.332,0.172l-1.325,0.694c-0.88,0.468-1.756,0.944-2.613,1.45
						c-0.835,0.55-1.656,1.122-2.455,1.728c-1.634,1.174-3.178,2.398-4.83,3.457c-0.82,0.54-1.598,1.137-2.415,1.688
						c-0.799,0.575-1.654,1.086-2.432,1.708c-1.521,1.173-2.885,2.54-4.116,4.012c-0.632,0.72-1.268,1.43-1.942,2.097
						c-0.642,0.699-1.32,1.357-2.077,1.945c-0.812,0.625-1.693,1.179-2.481,1.834c-0.399,0.32-1.429,2.764-1.44,3.38
						c-0.005,0.28,1.676-0.183,2.125-0.312c1.489-0.44,3.577-1.192,4.552-1.648c1.928-0.974,2.77-1.451,4.473-2.657
						c1.705-1.3,3.477-2.455,5.271-3.537c0.904-0.532,1.867-0.973,2.823-1.409c0.48-0.214,0.967-0.417,1.458-0.609
						c0.506-0.171,1.022-0.321,1.543-0.462c0.842-0.226,1.625-0.545,2.378-0.921c0.763-0.357,1.521-0.728,2.259-1.139
						c1.458-0.848,2.973-1.616,4.57-2.122l0.648-0.202l0.324-0.098l0.163-0.049l0.274-0.105c0.351-0.137,0.767-0.298,1.065-0.435
						l0.895-0.412l0.729-0.338l0.57-0.231l0.207-0.053l0.122-0.006c0.076-0.001,0.149,0.009,0.219,0.014
						c0.148,0.036,0.271,0.04,0.397,0.084c0.046,0.017,0.13,0.038,0.242,0.05c0.121,0.009,0.438-0.006,0.646-0.012
						c0.936-0.035,1.865-0.109,2.789-0.246c1.966-0.32,3.954-0.314,5.932-0.317l2.961-0.037c0.982,0.003,1.961-0.025,2.938-0.112
						l2.888-0.293l2.883-0.2l2.89-0.18c0.963-0.037,1.921-0.004,2.883,0.018c1.121,0.034,2.242,0.083,3.361,0.145
						c1.114,0.104,2.223,0.252,3.329,0.397c2.808,0.305,5.564,0.753,8.349,1.069c1.386,0.192,2.751,0.475,4.128,0.71l2.06,0.381
						c0.688,0.14,1.382,0.323,2.07,0.491c2.507,0.619,4.746,1.663,6.886,2.689c1.057,0.527,2.053,1.078,3.095,1.541
						c0.951,0.548,2.014,0.941,3.007,1.364c0.526,0.224,1.097,0.479,1.709,0.71c0.627,0.218,1.175,0.532,1.844,0.707
						c1.36,0.33,2.7,0.608,4.521,0.169c0.877-0.208,1.913-1.025,2.714-1.845c-0.661,0.668-0.852-0.165-0.942-1.259
						c-0.085-1.088-0.097-2.455-0.132-2.605c-0.21-0.878-0.62-1.611-1.054-2.357c-0.448-0.725-0.914-1.496-1.42-2.18
						c-0.953-1.363-1.834-2.924-2.927-4.164c-0.539-0.646-1.113-1.27-1.742-1.847c-0.631-0.543-1.316-1.006-2.07-1.41
						c-6.43-3.353-12.799-4.356-19.49-5.561l-4.252-0.544c-0.709-0.083-1.418-0.18-2.127-0.246l-2.13-0.143l-4.256-0.301
						l-4.246-0.172c-0.847-0.042-1.7-0.1-2.561-0.166c-0.856-0.036-1.72-0.072-2.585-0.108
						C415.897,153.875,414.138,153.749,412.398,153.798z"/>
				</g>
			</g>
		</g>
	</g>
	<g>
		<g>
			<g>
				<path fill="#231F20" d="M414.803,210.231l-0.114,0.01C414.74,210.246,414.774,210.271,414.803,210.231z"/>
				<path fill="#231F20" d="M431.632,208.597l-0.001,0.161C431.651,208.7,431.646,208.645,431.632,208.597z"/>
				<path fill="#231F20" d="M431.675,194.126l0.075-0.042C431.71,194.09,431.688,194.106,431.675,194.126z"/>
				<g>
					<path fill="#231F20" d="M425.919,194.673c-1.316,0.114-2.591,0.39-3.896,0.698c-1.316,0.283-2.611,0.72-3.934,1.214
						c-1.37,0.481-2.738,1.105-4.15,1.585c-1.417,0.457-2.851,0.855-4.317,0.916c-1.558,0.042-3.098,0.064-4.659,0.067
						c-1.572,0.013-3.089,0.062-4.75,0.293c-1.642,0.228-3.248,0.291-4.855,0.271c-1.585-0.006-3.154-0.087-4.755-0.175
						c-1.556-0.072-3.059,0.135-4.574,0.301c-1.506,0.143-3.06,0.346-4.516-0.061c-0.783-0.203-1.548-0.499-2.317-0.732
						c-0.373-0.116-2.414,0.58-2.854,0.946c-0.2,0.167,0.85,1.202,1.153,1.477c0.977,0.9,2.556,2.11,3.404,2.52
						c1.715,0.857,2.524,1.12,4.324,1.419c3.732,0.627,7.344,0.889,10.942,2.291c1.438,0.566,2.911,0.696,4.395,0.754
						c1.484,0.059,3.08,0.076,4.583,0.373l4.983,1.009c1.686,0.269,3.381,0.483,5.088,0.404c3.632-0.214,7.361,0.393,11.095-0.267
						c0.915-0.159,1.826-0.32,2.736-0.512l2.731-0.694c1.818-0.412,3.629-1.05,5.461-1.531c1.111-0.271,2.021-0.619,3.027-0.913
						c0.986-0.302,1.978-0.59,2.975-0.865c5.092-1.296,9.739-3.629,14.588-5.449c2.181-0.852,4.415-1.482,6.665-2.125
						c2.232-0.674,4.489-1.338,6.472-2.661c2.112-1.355,5.108-2.962,5.577-6.545c0.113-0.871-0.353-2.089-0.883-3.104
						c0.862,1.669-3.333-0.608-3.577-0.691c-1.546-0.468-2.905-0.329-4.329-0.466c-1.378-0.133-2.742-0.404-4.058-0.554
						c-1.322-0.165-2.618-0.259-3.83,0.053c-2.547,0.633-4.943,1.553-7.32,2.51c-2.401,0.888-4.759,1.882-7.15,2.831
						c-2.021,0.854-4.073,1.535-6.114,2.283l-3.073,1.084c-1.009,0.329-2.104,0.758-3.035,0.938
						c-1.164,0.25-2.314,0.536-3.549,0.668C428.394,194.379,427.155,194.526,425.919,194.673z"/>
				</g>
			</g>
		</g>
	</g>
</g>
</svg>
