<?xml version="1.0" encoding="utf-8"?>
<!-- Generator: Adobe Illustrator 16.0.0, SVG Export Plug-In . SVG Version: 6.00 Build 0)  -->
<!DOCTYPE svg PUBLIC "-//W3C//DTD SVG 1.1//EN" "http://www.w3.org/Graphics/SVG/1.1/DTD/svg11.dtd">
<svg version="1.1" id="Layer_1" xmlns="http://www.w3.org/2000/svg" xmlns:xlink="http://www.w3.org/1999/xlink" x="0px" y="0px"
	 width="500px" height="500px" viewBox="0 0 500 500" enable-background="new 0 0 500 500" xml:space="preserve">
<g>
	<g>
		<g>
			<path fill="#FFFFFF" d="M109.188,446.116l-0.622-0.384C108.834,445.923,108.979,446.093,109.188,446.116z"/>
			<path fill="#FFFFFF" d="M214.899,458.822l0.11,0.418C215.055,459.032,214.991,458.908,214.899,458.822z"/>
			<path fill="#FFFFFF" d="M201.608,450.905l-0.553-0.036C201.314,450.923,201.48,450.925,201.608,450.905z"/>
			<g>
				<path fill="#FFFFFF" d="M184.381,435.201c-0.163,0.006-0.339,0.025-0.57,0.03c-0.074,0.035-0.316-0.03-0.468-0.025
					c-0.172-0.009-0.344-0.007-0.517,0.007l-0.132,0.011l-0.203-0.027l-0.406-0.046c-0.271-0.028-0.542-0.05-0.815-0.065
					c-0.241,0.007-0.633-0.084-0.964-0.13l-1.033-0.151c-2.926-0.475-6.543-1.337-10.738-2.329l-3.324-0.764l-3.151-0.682
					c-1.897-0.413-3.869-0.746-5.729-1.168c-1.87-0.407-3.737-0.813-5.603-1.22c-1.806-0.457-3.627-0.893-5.467-1.309
					c-7.305-1.847-14.588-4.268-21.611-7.863c-7.013-3.562-13.729-8.203-19.607-13.994c-1.586-1.477-3.045-3.193-4.559-4.801
					c-1.492-1.64-3.019-3.249-4.479-4.912l-4.193-5.143l-2.105-2.563c-0.696-0.859-1.313-1.776-1.976-2.659l-3.946-5.328
					c-0.687-0.87-1.283-1.799-1.894-2.718l-1.851-2.751l-1.876-2.741c-0.637-0.909-1.276-1.817-1.832-2.773
					c-1.16-1.885-2.342-3.764-3.552-5.637c-1.271-1.859-2.3-3.832-3.347-5.793c-1.036-1.966-2.101-3.921-3.063-5.915
					c-0.863-2.036-1.725-4.068-2.586-6.1l-1.26-3.061l-1.032-3.135l-2.022-6.285c-0.579-2.157-1.112-4.345-1.662-6.522
					c-0.267-1.092-0.557-2.179-0.801-3.279l-0.667-3.318c-0.425-2.22-0.931-4.427-1.291-6.674
					c-0.674-4.337-1.619-8.612-2.347-12.946c-0.875-4.306-1.522-8.663-2.239-13.022c-0.327-2.184-0.554-4.384-0.812-6.581
					l-0.352-3.302c-0.089-1.104-0.144-2.211-0.205-3.318c-0.111-2.214-0.203-4.431-0.216-6.649c0.04-2.225,0.13-4.449,0.285-6.672
					c0.152-2.445,0.429-4.584,0.813-6.735c0.381-2.152,0.857-4.27,1.397-6.356c0.269-1.025,0.272-4.241,0.506-7.504
					c0.028-0.824,0.091-1.642,0.159-2.429c0.053-0.797,0.104-1.559,0.149-2.25c0.128-1.381,0.184-2.519,0.126-3.115
					c-0.053-0.542-1.161,0.496-2.434,1.923c-0.655,0.706-1.243,1.542-1.812,2.285c-0.562,0.745-1.033,1.418-1.286,1.838
					c-1.811,2.705-3.732,6.395-5.245,10.146c-0.771,1.872-1.382,3.755-1.91,5.495c-0.475,1.736-0.874,3.354-1.083,4.63
					c-0.832,5.176-1.522,9-1.822,12.87c-0.177,1.935-0.317,3.881-0.428,6.017c-0.054,2.136-0.051,4.46-0.024,7.153
					c0.212,11.126,1.158,22.13,2.541,33.117l1.175,8.233c0.164,1.382,0.417,2.746,0.649,4.117l0.679,4.125
					c0.236,1.38,0.402,2.763,0.678,4.151l0.837,4.187l0.802,4.229l0.388,2.132l0.492,2.099c1.104,4.514,2.312,9.125,4.217,13.457
					c0.896,2.193,1.837,4.38,2.805,6.561c1.075,2.121,2.198,4.224,3.324,6.329c2.157,4.27,4.807,8.241,7.257,12.318
					c1.19,2.064,2.562,3.996,3.856,5.975c1.3,1.975,2.573,3.963,3.807,5.972c1.404,2.123,2.872,4.203,4.301,6.322
					c1.45,2.101,2.828,4.272,4.419,6.269c3.104,4.066,6.117,8.192,9.627,12.147c6.914,7.901,14.971,15.19,24.204,21.021
					c9.715,6.256,20.499,11.533,31.014,15.498l3.959,1.475c1.317,0.467,2.624,0.878,3.939,1.316l7.285,2.358
					c4.803,1.525,10.316,3.307,17.048,4.316l1.228,0.188l1.353,0.132l2.707,0.23l0.677,0.052l0.752,0.01l1.513,0.002
					c1.013-0.009,2.009-0.016,3.031-0.061c4.233-0.272,8.711-1.274,12.738-2.908c4.064-1.614,7.497-3.79,10.294-5.833
					c2.812-2.067,4.948-3.974,6.772-5.524l1.456-1.243c0.785-0.687,1.492-1.26,2.353-2.128l1.223-1.229l0.156-0.162l0.229-0.256
					l0.453-0.519c0.299-0.349,0.592-0.702,0.879-1.062c0.287-0.359,0.567-0.723,0.84-1.091l0.404-0.554l0.089-0.126l0.032-0.05
					l0.063-0.101l0.505-0.799l0.126-0.2l0.063-0.1l0.668-1.101l0.111-0.21c0.294-0.563,0.572-1.137,0.831-1.717
					c0.253-0.543,0.513-1.269,0.734-1.936c0.222-0.689,0.423-1.332,0.585-2.139c0.692-2.952,0.689-6.711-0.279-10.066
					c-0.932-3.377-2.741-6.341-4.642-8.412c-1.895-2.083-3.938-3.565-5.804-4.602c-0.5-0.292-0.917-0.48-1.388-0.711
					c-0.449-0.21-0.944-0.447-1.364-0.604c-0.886-0.341-1.679-0.645-2.853-0.957l-0.82-0.211l-0.75-0.173l-0.465-0.086l-0.232-0.044
					l-0.737-0.133l-0.118-0.017l-0.472-0.069l-1.857-0.275l-1.512-0.242c-0.28-0.039-0.447-0.08-0.631-0.119l-0.557-0.113
					c-0.175-0.037-0.397-0.071-0.534-0.108l-0.335-0.104c-0.184,0.006-1.573-0.519-2.584-0.892
					c-10.003-3.646-19.563-8.287-28.127-14.194c-1.34-0.949-2.721-1.839-4.039-2.809l-3.921-2.941
					c-1.299-0.987-2.524-2.062-3.798-3.075c-1.294-1.007-2.469-2.087-3.669-3.146c-4.762-4.275-9.202-8.88-13.203-13.919
					c-8.033-10.041-14.545-21.615-19.549-34.333c-0.578-1.428-1.118-2.877-1.624-4.346l-0.77-2.213l-0.789-2.372
					c-1.046-3.164-1.959-6.17-2.791-9.124c-1.598-5.838-2.593-11.25-2.823-16.009l-0.185-2.327l-0.238-2.753
					c-0.164-1.804-0.33-3.773-0.519-5.346l-0.58-4.97l-0.49-4.526l-0.26-2.218l-0.068-0.555l-0.026-0.492l-0.057-0.979
					c-0.082-1.307-0.186-2.61-0.316-3.917c-0.083-1.376-0.085-2.898-0.164-4.346l-0.114-2.202c-0.035-0.734-0.021-1.472-0.043-2.21
					c-0.024-1.563-0.076-3.198-0.078-4.885c0.052-1.688,0.095-3.427,0.113-5.198c0.114-3.551,0.231-7.208,0.347-10.804
					c0.013-1.813,0.025-3.611,0.038-5.371c0.021-1.792-0.101-3.575-0.194-5.344c-0.157-3.536-0.719-7-1.597-10.264
					c-0.911-3.169-3.722-5.046-6.434-5.965c2.231,0.769-0.149,3.978-3.152,7.288c-1.447,1.666-3.07,3.359-4.382,4.713
					c-1.326,1.349-2.21,2.388-2.404,2.639c-1.059,1.546-2.043,3.18-2.964,4.875c-0.84,1.716-1.627,3.494-2.391,5.304
					c-0.804,1.811-1.4,3.655-2.068,5.505c-0.647,1.852-1.358,3.703-1.945,5.567c-0.625,1.813-1.241,3.604-1.852,5.377
					c-0.581,1.792-1.111,3.589-1.671,5.39c-0.275,0.904-0.55,1.807-0.825,2.708l-0.698,2.728c-0.454,1.827-0.908,3.659-1.314,5.532
					c-0.304,1.957-0.58,3.946-0.815,5.971c-0.107,0.994-0.247,2.075-0.297,3.021c-0.043,0.952-0.086,1.91-0.129,2.874
					c-0.032,0.965-0.053,1.937-0.061,2.915c-0.008,0.984-0.004,1.981,0.021,2.855c0.045,1.816,0.143,3.653,0.304,5.518l0.363,5.365
					l0.096,1.318l0.052,0.671l0.087,0.92l0.378,3.684c0.654,4.79,1.583,9.469,2.768,13.727c0.279,1.103,0.58,2.156,0.892,3.188
					l0.933,3.113c0.642,1.989,1.292,4.035,1.949,5.923l1.959,5.635l1.061,2.923l1.106,2.975c3.055,7.922,6.643,15.803,10.869,23.497
					c4.267,7.681,9.186,15.159,14.768,22.234c4.752,6.008,10.031,11.655,15.726,16.817c1.429,1.283,2.894,2.524,4.344,3.782
					c1.466,1.222,2.964,2.364,4.448,3.545l2.235,1.752l2.306,1.647c1.545,1.087,3.064,2.216,4.635,3.258
					c6.282,4.18,12.803,7.925,19.476,11.299c1.67,0.836,3.369,1.599,5.053,2.4l2.532,1.188l2.565,1.088l5.137,2.157l5.192,1.959
					l1.554,0.589l0.389,0.147c0.13,0.049,0.237,0.094,0.472,0.166l1.224,0.385c0.813,0.25,1.654,0.505,2.454,0.725l2.13,0.497
					l1.069,0.242l0.915,0.179l1.808,0.347l1.518,0.281l0.74,0.137l0.185,0.034l0.092,0.018c-0.181,1.705,1.613-14.825,0.861-7.835
					l0.015-0.013l0.03-0.027l0.059-0.053l0.474-0.428c0.132-0.146,0.373-0.275,0.416-0.437c-0.035-0.175-0.059-0.354-0.071-0.535
					c-0.01-0.179-0.021-0.369,0.003-0.546c0.046-0.162,0.101-0.324,0.163-0.487c0.14-0.33,0.261-0.642,0.409-0.945
					c0.175-0.314,0.301-0.59,0.486-0.866c0.702-1.115,1.564-1.769,1.917-1.869c0.356-0.109-0.203,0.147-1.334-0.354
					c-0.172-0.061-0.336-0.131-0.491-0.21l-0.225-0.125l-0.107-0.066c0.504,0.442-4.42-3.891-2.351-2.059l-0.03-0.005l-0.059-0.011
					l-0.119-0.021l-1.899-0.332l-0.95-0.166l-0.475-0.083l-0.238-0.041c-0.079-0.034-0.155-0.127-0.232-0.188
					c-0.612-0.552-1.173-1.152-1.676-1.794c-0.521-0.641-0.91-1.327-1.376-2.036c-0.386-0.344-0.764-0.693-1.135-1.049
					c-0.265-0.258-0.17-0.16-0.194-0.179l-0.012,0.001c-0.015,0.003-0.027,0.008-0.036,0.018l-0.186,0.116l-0.191,0.136
					l-0.588,0.448l-1.328,1.015c-1.685,1.295-3.056,2.331-4.134,3.044c-1.08,0.721-1.844,1.11-2.34,1.3
					C184.923,435.147,184.685,435.172,184.381,435.201z"/>
			</g>
		</g>
	</g>
</g>
<g>
	<g>
		<g>
			<path fill="#FFFFFF" d="M153.104,138.8l-0.13-0.012C152.991,138.803,152.891,138.837,153.104,138.8z"/>
			<path fill="#FFFFFF" d="M148.156,143.617l-0.33-0.351C147.926,143.386,148.043,143.508,148.156,143.617z"/>
			<path fill="#FFFFFF" d="M151.972,178.711l-0.768,0.136C151.578,178.818,151.805,178.768,151.972,178.711z"/>
			<g>
				<path fill="#FFFFFF" d="M202.168,166.729l3.573-1.42c0.66-0.217,0.999-0.536,1.476-0.811l1.339-0.855l2.654-1.718l1.313-0.862
					c0.429-0.288,0.745-0.574,1.12-0.862c1.444-1.149,2.864-2.301,4.259-3.453c0.984-1.173,1.758-2.263,2.339-3.339
					c0.576-1.091,1.078-2.158,1.466-3.385c0.202-0.604,0.387-1.25,0.55-1.922c0.146-0.681,0.32-1.431,0.392-2.047
					c0.08-0.613,0.123-1.127,0.162-1.746c0.034-0.603,0.085-1.375,0.041-2.339c-0.068-1.934-0.526-3.916-1.114-5.535
					c-0.163-0.372-0.318-0.668-0.477-0.982c-0.161-0.328-0.314-0.592-0.471-0.856c-0.4-0.693-0.786-1.202-1.178-1.651
					c-0.197-0.23-0.4-0.385-0.607-0.579c-0.229-0.191-0.563-0.408-0.845-0.607c-1.178-0.813-2.408-1.597-3.681-2.354
					c-2.545-1.514-5.269-2.913-8.063-4.234l-1.049-0.493l-0.527-0.244c-0.062-0.037-0.218-0.086-0.382-0.137l-0.466-0.147
					l-3.681-1.164c-2.363-0.758-4.728-1.517-7.098-2.276l-1.717-0.565c-0.698-0.155-1.488-0.286-2.218-0.431l-4.397-0.866
					c-2.89-0.587-5.702-1.195-8.462-1.836c-0.75-0.159-1.421-0.364-2.1-0.563l-2.036-0.597l-4.053-1.196l-4.033-1.198
					c-1.34-0.403-2.693-0.777-3.98-1.262l-3.895-1.374l-2.315-0.838l-2.318-0.832l-2.28-0.906c-3.038-1.215-6.115-2.352-9.109-3.657
					c-1.511-0.627-3.036-1.233-4.567-1.833c-1.497-0.66-3.007-1.303-4.534-1.926c-3.11-1.194-6.005-2.731-8.906-4.254
					c-0.721-0.394-1.451-0.747-2.157-1.184l-2.111-1.316l-4.184-2.689c-5.627-3.494-10.789-7.777-16.142-11.894
					c-2.538-2.058-5.126-4.068-7.813-5.946c-1.339-0.947-2.692-1.876-4.052-2.801c-1.354-0.934-2.671-1.932-4.008-2.898
					c-2.663-1.95-5.312-3.925-7.869-6.011c-2.559-2.125-5.176-4.466-7.166-6.751l-0.827-0.942c-0.285-0.315-0.539-0.633-0.749-0.952
					l-1.331-1.908c-0.422-0.649-0.912-1.226-1.273-1.921l-1.137-2.017c-0.189-0.327-0.726-0.856-1.464-1.484
					c-0.093-0.078-0.189-0.158-0.286-0.24l-0.037-0.031l-0.009-0.007l-0.074-0.102l-0.002-0.002L59.6,45.476l-0.02-0.019
					l-0.082-0.077l-0.172-0.162c-0.18-0.187-0.363-0.376-0.549-0.568c-0.16-0.148-0.323-0.298-0.487-0.451
					c-0.658-0.589-1.371-1.165-2.133-1.726c-1.556-1.116-3.271-2.208-5.551-3.055c-0.513-0.197-1.211-0.397-1.8-0.534
					c-0.267-0.068-0.687-0.136-1.008-0.181c-0.345-0.046-0.656-0.081-0.983-0.1c-0.761-0.025-1.411,0.007-2.011,0.097
					c-0.659,0.114-1.205,0.272-1.619,0.422c-0.752,0.311,0.04,0.271,1.563,0.429c0.382,0.043,0.708,0.15,1.111,0.255
					c0.39,0.11,0.826,0.245,1.139,0.418c0.335,0.168,0.724,0.355,1.03,0.56c0.286,0.203,0.574,0.419,0.857,0.642
					c2.001,1.802,2.75,3.723,3.164,4.532c0.314,0.668,0.593,1.371,0.86,2.1c0.261,0.709,0.529,1.544,0.724,2.249
					c0.396,1.398,0.85,2.878,1.337,4.338c0.442,1.497,1.114,2.805,1.714,4.037c0.617,1.209,1.181,2.356,1.746,3.142
					c1.126,1.61,2.121,3.025,3.058,4.309c0.926,1.241,1.791,2.364,2.682,3.465c1.774,2.199,3.749,4.315,6.522,7.099
					c11.57,11.467,23.473,21.97,35.589,33.567c1.22,1.189,2.437,2.373,3.792,3.437c1.367,1.055,2.775,2.07,4.211,3.054
					c2.844,2.029,5.929,3.667,9.001,5.347l2.315,1.24l2.36,1.137c1.57,0.764,3.14,1.528,4.706,2.291
					c3.132,1.526,6.292,2.92,9.328,4.578l5,2.508l0.598,0.305l0.173,0.144l0.332,0.285c0.211,0.189,0.415,0.373,0.625,0.547
					c0.821,0.696,1.413,1.366,1.883,1.864c0.469,0.518,0.792,0.943,1.159,1.245c0.367,0.322,0.774,0.527,1.511,0.662
					c0.606,0.114,1.048,0.263,1.317,0.418c0.259,0.151,0.418,0.278,0.216,0.725c-0.162,0.314-0.535,0.806-1.291,0.95
					c-0.703,0.139-1.294,0.333-1.853,0.417c-1.119,0.172-1.861,0.229-2.174,0.474c-0.508,0.361-0.973,0.853-1.834,1.303
					c-0.423,0.22-0.931,0.424-1.503,0.576l-0.44,0.096l-0.226,0.043c-0.093,0.014-0.068,0.026-0.45,0.042l-4.924,0.209
					c-1.943,0.118-3.903,0.035-5.859-0.007c-1.957-0.054-3.909-0.057-5.87-0.264c-1.958-0.168-3.915-0.313-5.87-0.515l-5.858-0.832
					c-1.258-0.156-2.414-0.392-3.576-0.614l-3.498-0.633l-3.478-0.784l-1.741-0.375l-1.732-0.454l-3.468-0.897
					c-1.155-0.32-2.304-0.694-3.458-1.032c-2.313-0.638-4.605-1.5-6.913-2.26c-4.6-1.68-9.202-3.494-13.783-5.637l-1.719-0.792
					c-0.549-0.258-1.236-0.553-1.523-0.742c-0.743-0.436-1.531-0.796-2.264-1.245c-0.699-0.501-1.423-0.962-2.129-1.45
					c-0.647-0.564-1.305-1.112-1.975-1.647c-2.256-2.131-3.99-4.746-5.15-7.498c-1.167-2.755-1.763-5.638-1.912-8.386
					c-0.178-2.759,0.213-5.362,0.769-7.791c0.064-0.627,0.322-1.207,0.474-1.808l0.219-0.906c0.122-0.289,0.233-0.581,0.335-0.876
					s0.193-0.595,0.275-0.9l0.061-0.233l0.245-0.688l0.476-1.38c0.311-0.923,0.608-1.851,0.893-2.781
					c0.3-0.939,0.435-1.801,0.643-2.71c0.132-0.642,0.266-1.293,0.401-1.954c0.14-0.666,0.267-1.33,0.334-1.949
					c0.159-1.267,0.32-2.563,0.485-3.879c0.182-2.461,0.324-5.029,0.249-7.28l-0.043-1.747l-0.109-1.606
					c-0.083-1.049-0.182-2.195-0.317-3.125c-0.133-0.968-0.293-1.953-0.478-2.893c-0.088-0.438-0.184-0.876-0.288-1.312
					l-0.163-0.653c-0.026-0.128-0.06-0.174-0.082-0.37l-0.058-0.772c-0.145-1.722-0.544-3.347-1.045-4.933
					c-0.062-0.19-0.13-0.424-0.191-0.575c-0.06-0.141-0.121-0.28-0.181-0.394l-0.369-0.716c-0.249-0.44-0.507-0.876-0.77-1.26
					c-1.05-1.533-2.228-2.836-3.483-3.616c-0.231-0.115-0.497-0.297-0.762-0.339c-0.314-0.064-0.601-0.123-0.863-0.177
					c-0.59-0.199-1.257-0.393-1.922-0.568c-1.356-0.355-2.766-0.618-4.193-0.757c0.588,0.061,0.858,0.219,0.993,0.471
					c0.133,0.239,0.104,0.627-0.018,0.981c-0.264,0.742-0.942,2.219-1.73,3.778c-0.791,1.564-1.709,3.248-2.501,4.518
					c-0.778,1.254-1.506,2.015-1.651,2.201c-0.079,0.118-0.158,0.236-0.245,0.368c-0.729,1.066-1.414,2.437-1.987,3.675
					c-0.58,1.258-1.105,2.591-1.604,3.851c-0.503,1.264-0.963,2.578-1.479,3.78c-0.504,1.221-1.004,2.447-1.613,3.536
					c-0.298,0.546-0.594,1.089-0.888,1.629c-0.306,0.526-0.653,0.994-0.976,1.477c-0.328,0.468-0.654,0.934-0.979,1.398
					c-0.356,0.421-0.721,0.816-1.072,1.208c-0.355,0.387-0.691,0.775-1.042,1.132l-1.12,0.931l-0.533,0.443l-0.259,0.217
					c-0.084,0.069-0.16,0.12-0.302,0.329c-0.501,0.678-0.999,1.371-1.492,2.078c-3.949,5.621-6.747,12.647-7.024,20.475
					c-0.289,8.182,1.303,16.375,4.441,23.865c3.134,7.5,7.807,14.322,13.609,20.007c1.402,1.476,2.98,2.756,4.551,4.048
					c1.537,1.336,3.236,2.452,4.92,3.59c1.658,1.184,3.453,2.13,5.235,3.102l1.341,0.72l0.672,0.356l0.533,0.251l2.123,0.994
					c5.616,2.689,11.532,5.099,17.563,7.352c10.31,3.764,21.259,6.533,32.42,8.029c0.691,0.095,1.404,0.217,2.077,0.287l2.016,0.204
					l4.031,0.406c2.678,0.318,5.395,0.434,8.102,0.6l4.063,0.244l4.086,0.075c2.725,0.045,5.447,0.15,8.187,0.038
					c1.637-0.029,3.281-0.058,4.931-0.087l1.406-0.03c0.143-0.007,0.24-0.001,0.42-0.019l0.535-0.051l1.072-0.102
					c1.433-0.134,2.869-0.268,4.307-0.402c1.444-0.132,2.891-0.265,4.339-0.398c1.423-0.196,2.819-0.468,4.238-0.699
					c1.418-0.241,2.838-0.482,4.259-0.723l2.141-0.363l2.049-0.485c2.728-0.656,5.506-1.29,8.239-1.979
					c2.622-0.791,5.248-1.583,7.876-2.377c1.342-0.386,2.576-0.837,3.847-1.269l3.798-1.313
					C197.368,168.64,199.751,167.678,202.168,166.729z"/>
			</g>
		</g>
	</g>
</g>
<g>
	<g>
		<g>
			<path fill="#FFFFFF" d="M388,411.977l0.42-0.376C388.218,411.754,388.05,411.811,388,411.977z"/>
			<path fill="#FFFFFF" d="M338.463,435.686l0.56-0.359C338.82,435.442,338.629,435.568,338.463,435.686z"/>
			<path fill="#FFFFFF" d="M281.698,444.367l-0.355-0.68C281.475,444.021,281.588,444.222,281.698,444.367z"/>
			<g>
				<path fill="#FFFFFF" d="M324.7,473.57c0.446,0.103,0.94,0.113,1.432,0.132l1.47,0.063l2.943,0.121l2.946,0.114
					c0.986,0.022,1.95,0.133,2.984-0.028l6.108-0.619l3.052-0.319c0.504-0.029,1.026-0.159,1.546-0.271l1.558-0.339l3.109-0.683
					l0.776-0.172c0.284-0.061,0.365-0.092,0.558-0.14l0.996-0.267c0.643-0.185,1.372-0.351,1.939-0.558l1.757-0.612
					c2.336-0.832,4.682-1.63,6.928-2.657c9.092-3.864,17.42-9.038,24.666-14.836c14.614-11.878,26.772-26.087,38.229-41.147
					c3.058-3.982,5.881-8.159,8.486-12.47c0.694-1.081,1.263-2.114,1.848-3.154l1.756-3.123c1.188-2.07,2.238-4.225,3.353-6.336
					c4.324-8.525,8.055-17.397,10.803-26.64c2.757-9.288,5.241-18.475,7.118-27.978l1.363-6.862c0.444-2.174,0.89-4.35,1.335-6.529
					c0.958-4.469,1.92-8.955,2.889-13.475l0.683-3.314c0.106-0.569,0.218-1.07,0.312-1.698l0.257-1.972l0.232-1.973
					c0.052-0.649,0.07-1.288,0.102-1.933c0.055-1.285,0.118-2.581,0.063-3.813c-0.07-5.015-0.678-9.702-1.252-14.119l-0.418-3.264
					l-0.361-3.178l-0.375-3.429l-0.35-3.501c-0.278-2.319-0.586-4.626-0.812-6.949c-0.313-2.298-0.584-4.604-0.806-6.925
					c-0.307-2.438-0.545-4.956-0.802-7.353l-0.412-3.606c-0.139-1.214-0.322-2.477-0.531-3.756c-0.178-1.22-1.64-4.945-3.706-8.56
					c-0.545-0.904-1.021-1.795-1.627-2.632c-0.585-0.836-1.153-1.62-1.679-2.317c-1.144-1.373-2.134-2.389-2.681-2.836
					c-0.504-0.405-0.217,1.465,0.17,3.601c0.166,1.079,0.286,2.254,0.428,3.267c0.145,1.013,0.156,1.907,0.215,2.434
					c0.298,3.489,0.256,7.693,0.083,11.616c-0.086,1.966-0.163,3.873-0.208,5.612c-0.064,1.733-0.1,3.276-0.071,4.513
					c0.07,5.009-0.021,8.643-0.104,12.267c-0.009,0.902-0.018,1.807-0.026,2.733c-0.026,0.922-0.053,1.866-0.081,2.854
					c-0.009,0.986-0.018,2.017-0.027,3.11c-0.003,1.157-0.005,2.382-0.008,3.696c0.063,5.372,0.226,10.516-0.133,15.346
					l-0.141,1.802c-0.051,0.598-0.153,1.169-0.227,1.753L452.119,294l-0.359,1.671c-0.127,0.569-0.215,1.08-0.371,1.692l-0.5,1.874
					l-1.014,3.738c-0.682,2.488-1.38,4.97-2.1,7.443c-0.725,2.546-1.475,5.106-2.252,7.659l-1.188,3.833
					c-0.403,1.272-0.82,2.599-1.224,3.716l-1.244,3.477c-0.419,1.153-0.834,2.302-1.366,3.433
					c-3.073,7.318-5.858,15.008-8.915,22.58c-3.07,7.58-6.511,15.116-10.929,21.948c-1.164,1.863-2.43,3.672-3.697,5.472
					c-0.633,0.882-1.262,1.843-1.898,2.653l-1.9,2.416c-1.212,1.634-2.63,3.139-3.967,4.677l-1.006,1.149
					c-0.343,0.379-0.717,0.737-1.072,1.106l-2.14,2.203c-5.774,5.817-12.071,11.13-18.563,16.462
					c-1.707,1.438-3.558,2.74-5.35,4.086c-0.887,0.676-1.874,1.29-2.81,1.932c-0.949,0.626-1.896,1.288-2.853,1.854
					c-3.81,2.41-7.671,4.465-11.535,6.333c-3.892,1.765-7.759,3.419-11.704,4.691c-1.946,0.726-3.943,1.258-5.915,1.866
					c-1.022,0.355-1.891,0.506-2.705,0.706c-0.095,0.026-0.15,0.065-0.274,0.106c-1.061,0.332-2.482,0.634-4.213,0.423
					c-0.833-0.109-1.849-0.219-2.458-0.875c-0.323-0.292-0.607-0.627-0.839-0.988c-0.114-0.182-0.219-0.368-0.3-0.563
					c0.032-0.168,0.205-0.341,0.336-0.476c1.882-0.491,3.969-1.338,5.485-2.128l0.092-0.043l0.537-0.397l1.21-0.906l2.415-1.82
					c1.616-1.22,3.042-2.434,4.566-3.659c1.506-1.196,2.98-2.533,4.464-3.81l2.217-1.941l2.145-2.005
					c2.891-2.646,5.616-5.444,8.354-8.231c2.658-2.863,5.323-5.717,7.838-8.717c10.162-11.895,19.165-24.899,26.544-39.613
					c3.286-6.698,6.298-13.719,8.628-21.38l0.827-2.912c0.274-0.972,0.562-1.934,0.746-2.977c0.408-2.033,0.846-4.134,1.187-6.138
					c0.249-1.892,0.542-3.805,0.735-5.691c0.159-1.873,0.38-3.782,0.468-5.639c0.454-7.477,0.263-14.752-0.363-21.749
					c-0.632-7.1-1.693-13.453-2.972-20.043c-0.699-3.474-1.369-7.242-2.236-11.142c-0.944-3.926-2.003-7.952-3.257-11.859
					c-0.627-1.953-1.304-3.876-2.039-5.741c-0.367-0.932-0.75-1.85-1.148-2.75c-0.208-0.464-0.414-0.925-0.619-1.382l-0.179-0.417
					l-0.231-0.58c-0.158-0.385-0.308-0.762-0.485-1.14c-1.398-2.965-2.565-4.118-3.461-4.703c-0.115-0.07-0.209-0.088-0.32-0.136
					c-0.109-0.044-0.226-0.095-0.313-0.08l-0.309-0.016c-0.107-0.023-0.215-0.099-0.327-0.148c-0.456-0.223-0.892-0.488-1.325-0.786
					c-1.655-1.145-4.106-2.179-6.803-2.602c1.103,0.194,0.896,0.788,0.318,1.834c-0.308,0.523-0.64,1.185-0.986,1.948
					c-0.167,0.383-0.327,0.792-0.475,1.223c-0.143,0.429-0.307,0.826-0.421,1.314c-0.516,1.894-0.76,4.316-1.232,6.06
					c-0.467,1.706-1.033,2.976-1.071,3.275c-1.534,7.111-1.425,14.531-2.058,21.696c-0.809,7.011-1.973,13.681-2.802,20.37
					c-0.821,6.708-1.535,13.013-1.683,19.503c-0.043,1.694-0.126,3.353-0.197,5.004c-0.139,1.618-0.177,3.271-0.373,4.834
					l-0.227,2.366l-0.317,2.305l-0.149,1.15c-0.041,0.398-0.14,0.671-0.203,1.013l-0.402,1.95
					c-1.153,5.255-3.26,10.958-5.982,16.656c-2.726,5.709-6.055,11.438-9.794,17.04c-3.753,5.603-7.985,11.044-12.503,16.279
					c-3.823,4.471-7.918,8.74-12.122,12.855l-3.185,3.056l-3.266,2.938c-1.065,0.988-2.232,1.945-3.362,2.915l-1.704,1.452
					l-1.664,1.332l-1.659,1.324l-0.414,0.331c-0.147,0.116-0.205,0.184-0.624,0.444l-2.008,1.294l-4.013,2.586
					c-1.374,0.843-2.528,1.797-4.338,2.417l-9.981,4.171l-9.977,4.423l-0.624,0.275l-0.312,0.139
					c-0.095,0.047-0.104,0.103-0.161,0.154l-0.546,0.627l-1.092,1.255l-2.188,2.509l-1.096,1.254
					c-0.216,0.232-0.286,0.36-0.401,0.521l-0.324,0.465l-1.3,1.861l-1.306,1.861l-0.163,0.232c-0.04,0.069-0.031,0.111-0.049,0.168
					l-0.07,0.318l-0.14,0.638l-0.281,1.274l-0.141,0.639l-0.071,0.318c-0.021,0.123-0.053,0.156-0.057,0.438
					c-0.046,1.087-0.093,2.176-0.14,3.268c0.027,1.26,0.155,2.616,0.481,3.905c0.653,2.602,1.693,5.16,2.852,7.666
					c1.178,2.496,2.549,4.959,4.062,7.259c0.742,1.152,1.555,2.267,2.288,3.22c0.814,0.924,1.669,1.817,2.502,2.733l1.258,1.37
					l0.63,0.687c0.202,0.232,0.406,0.464,0.726,0.65l3.474,2.388l1.741,1.2c0.303,0.192,0.556,0.419,0.898,0.583l1.09,0.452
					l4.375,1.816l2.195,0.911c0.784,0.253,1.597,0.478,2.395,0.719l4.824,1.423c1.552,0.551,3.392,0.741,5.119,1.077L324.7,473.57z"
					/>
			</g>
		</g>
	</g>
</g>
<g>
	<g>
		<g>
			<path fill="#FFFFFF" d="M271.4,215.903l0.151-0.027C271.482,215.867,271.436,215.806,271.4,215.903z"/>
			<path fill="#FFFFFF" d="M249.454,215.941l0.04-0.393C249.455,215.68,249.449,215.817,249.454,215.941z"/>
			<path fill="#FFFFFF" d="M244.778,251.179l-0.14,0.052C244.705,251.242,244.747,251.218,244.778,251.179z"/>
			<g>
				<path fill="#FFFFFF" d="M254.409,252.78c4.296,0.153,8.582-0.82,12.737-2.994c4.282-2.239,8.37-5.713,12.711-6.248
					c4.604-0.547,9.142-0.647,13.635-2.244c1.128-0.404,2.254-0.705,3.38-0.927c1.134-0.225,2.204-0.355,3.534-0.491
					c2.512-0.256,4.821-0.378,7.012-0.436c2.107-0.057,3.966-0.875,5.765-1.463c1.776-0.593,3.552-0.913,4.895-0.043
					c0.708,0.467,1.233,1.196,1.638,1.787c0.128,0.121,0.638-0.153,1.341-0.563c0.667-0.381,1.493-0.803,1.929-1.153
					c0.192-0.158,0.378-0.85,0.458-1.634c0.083-0.774,0.062-1.67,0.013-2.022c-0.132-1.161-0.49-2.641-1.092-3.883
					c-0.568-1.311-1.347-2.315-1.92-2.906c-0.586-0.526-1.124-0.982-1.641-1.384c-0.514-0.385-0.999-0.692-1.502-0.978
					c-0.508-0.293-1.013-0.504-1.58-0.703c-0.569-0.203-1.193-0.374-1.902-0.5c-2.958-0.567-5.812-0.774-8.546-1.227
					c-2.728-0.451-5.383-1.137-7.68-2.641c-4.348-2.396-8.615-0.412-12.915-1.4c-4.651-1.081-9.274-3.236-13.825-2.874
					c-2.429,0.209-4.85-0.211-7.263-0.609c-2.415-0.395-4.82-0.771-7.218-0.561l-7.054,0.762c-2.346,0.25-4.696,0.464-7.05,0.462
					c-1.363-0.012-2.768-0.011-4.095-0.138c-1.335-0.116-2.669-0.27-3.999-0.458c-6.807-0.971-13.933-0.595-21.577-1.011
					c-0.854-0.051-1.695-0.164-2.549-0.303c-0.877-0.123-1.752-0.283-2.628-0.465c-1.753-0.362-3.503-0.817-5.277-1.211
					c-1.833-0.328-3.684-0.605-5.541-0.699c-0.93-0.044-1.854-0.053-2.79,0.02c-0.961,0.114-1.92,0.292-2.873,0.548
					c-1.008,0.272-2.106,0.529-3.222,0.884c-1.117,0.361-2.239,0.775-3.343,1.553c-2.184,1.484-4.086,3.803-4.916,7.765
					c-0.405,1.928,0.087,5.134,0.716,7.928c-0.521-2.291,0.773-1.239,2.15,0.457c1.387,1.693,2.82,4.034,2.988,4.235
					c1.042,1.219,2.019,2.051,2.967,2.776c0.94,0.705,1.898,1.451,2.812,2.291c1.782,1.664,3.417,3.635,4.957,5.283
					c1.587,1.724,3.123,3.163,4.708,3.635c6.717,2.068,13.543,1.767,21.186,2.166c1.555,0.077,3.266,0.122,4.905,0.154
					c1.674,0.025,3.267,0.07,5.007,0.067c3.441,0.003,6.915,0.08,10.231,0.179C246.091,251.731,250.255,252.543,254.409,252.78z"/>
			</g>
		</g>
	</g>
</g>
<g>
	<g>
		<g>
			<path fill="#FFFFFF" d="M224.264,327.897l-0.407,0.196C224.049,328.026,224.196,328.031,224.264,327.897z"/>
			<path fill="#FFFFFF" d="M238.906,287.976l0.394-0.051C239.157,287.905,239.023,287.935,238.906,287.976z"/>
			<path fill="#FFFFFF" d="M204.114,295.178l-0.082-0.066C204.038,295.157,204.07,295.173,204.114,295.178z"/>
			<g>
				<path fill="#FFFFFF" d="M204.043,300.471c-0.023,0.157,0.029,0.376,0.02,0.469c-0.001,0.102,0.029,0.2,0.09,0.301
					c0.009,0.014,0.024,0.021,0.05,0.034l0.045,0.018l0.028,0.01c0.034,0.004-0.048,0.005,0.14,0.014
					c0.574,0.052,0.956,0.036,1.378,0.055c0.422,0.019,0.848,0.057,1.278,0.114c3.241,0.332,4.973,1.239,5.17,1.401
					c-0.01-0.01-0.012-0.015-0.007-0.014l0.013,0.007l0.005,0.003l0.002,0.002l0.001,0.001h0l1.287-0.16v0.004l0,0.018l-0.013,0.272
					l-0.049,1.093l-0.025,0.546l-0.013,0.272l-0.006,0.137c-0.008,0.061,0.029,0.004,0.041,0.012
					c0.273-0.126,0.681-0.105,0.924-0.029c-0.027-0.047-0.043-0.086-0.052-0.114l-0.008-0.035l0-0.011l0-0.005l-0.026-0.063
					c-0.066-0.168-0.114-0.33-0.146-0.484c-0.016-0.077-0.028-0.152-0.036-0.225c-0.004-0.064-0.009-0.132-0.05-0.307
					c-0.059-0.291-0.094-0.575-0.107-0.852c-0.006-0.138-0.008-0.273-0.003-0.406c0-0.072,0.009-0.121,0.006-0.21l-0.017-0.301
					c-0.008-0.199-0.01-0.397-0.006-0.593c0.002-0.073,0.001-0.048,0-0.037l-0.002,0.032l-0.006,0.063
					c-0.016,0.077-0.004,0.188-0.083,0.216c-0.131,0.074-0.222,0.194-0.409,0.182c-0.747,0.009-1.99-0.448-3.299-1.04
					c-1.323-0.588-2.786-1.311-4.321-1.814c-1.547-0.548-2.969-1.672-3.941-3.001c-1.003-1.338-1.744-2.866-2.276-4.462
					c-0.136-0.355-0.26-0.712-0.448-1.044c-0.187-0.332-0.4-0.656-0.597-0.988c-0.207-0.33-0.446-0.651-0.685-0.982l-0.64-1.06
					c-0.218-0.357-0.438-0.72-0.645-1.09c-0.213-0.367-0.411-0.744-0.517-1.174c-0.25-0.833-0.399-1.751-0.318-2.39
					c0.017-0.157,0.073-0.316,0.141-0.474c0.14-0.354,0.399-0.698,0.648-1.011c0.131-0.157,0.257-0.269,0.4-0.601
					c0.142-0.341,0.281-0.684,0.41-1.03c0.063-0.173-0.017-0.673-0.191-1.229c-0.047-0.141-0.097-0.288-0.148-0.442
					c-0.067-0.188-0.136-0.382-0.207-0.581c-0.15-0.396-0.323-0.801-0.511-1.192c-0.201-0.426-0.459-0.918-0.705-1.326
					c-0.257-0.426-0.484-0.775-0.798-1.17c-0.588-0.745-1.133-1.24-1.48-1.432c-0.319-0.175-0.634,0.891-1.059,1.938
					c-0.188,0.541-0.475,1.026-0.727,1.433c-0.248,0.409-0.465,0.734-0.592,0.926c-0.92,1.202-2.121,2.244-3.229,3.104
					c-1.099,0.846-2.039,1.825-2.459,2.529c-0.317,0.578-0.623,1.124-0.838,1.49c-0.198,0.52-0.367,1.017-0.513,1.484
					c-0.149,0.448-0.275,0.883-0.379,1.327s-0.187,0.899-0.25,1.39c-0.059,0.49-0.026,1.023-0.007,1.617
					c0.045,0.779,0.09,1.556,0.134,2.329c0.028,0.39,0.046,0.782,0.086,1.173l0.173,1.17c0.111,0.785,0.229,1.574,0.396,2.352
					c0.159,0.78,0.281,1.587,0.476,2.369c0.684,3.181,1.472,6.451,2.305,10.156c0.156,0.76,0.43,1.452,0.729,2.137
					c0.3,0.686,0.665,1.332,1.096,1.93c0.43,0.605,0.865,1.184,1.382,1.749c0.535,0.556,1.098,1.14,1.667,1.622
					c2.291,2.018,4.731,3.579,7.114,5.62c2.608,2.183,5.554,4.541,9.935,6.137c1.128,0.378,2.214,0.751,3.574,0.951
					c0.652,0.111,1.311,0.206,1.973,0.282c0.684,0.063,1.452,0.055,2.181,0.048c0.747-0.022,1.462-0.032,2.236-0.136
					c0.791-0.121,1.583-0.273,2.369-0.459c1.557-0.315,3.146-1.004,4.651-1.744l0.598-0.305l0.297-0.154l0.358-0.215
					c0.488-0.301,0.972-0.614,1.449-0.941c0.954-0.654,1.879-1.36,2.755-2.101l0.96-0.809l0.37-0.294l0.187-0.146l0.094-0.072
					l0.047-0.036l0.023-0.018l0.012-0.009l0.993-1.078c0.991-1.126,1.979-2.3,2.872-3.523c0.81-1.24,1.643-2.552,2.301-3.863
					c2.645-5.323,3.416-10.616,3.008-14.951c-0.423-4.313-1.538-7.892-2.758-11.124c-1.234-3.232-2.616-6.109-3.908-8.949
					c-0.783-1.653-1.486-3.255-2.347-4.909c-0.842-1.643-1.639-3.361-2.507-4.916c-2.127-4.117-4.821-7.518-7.483-10.644
					c-2.692-3.149-5.334-5.826-7.658-8.636c-2.241-2.599-2.899-5.159-3.984-7.693c-0.512-1.304-1.045-2.733-1.732-3.965
					c-0.343-0.627-0.723-1.228-1.156-1.795c-0.436-0.582-0.938-1.218-1.5-1.767c-1.206-1.208-2.439-2.626-4.439-3.702
					c-2.009-1.096-4.691-1.665-8.632-0.85c-1.917,0.397-4.75,1.994-7.144,3.564c3.931-2.571-2.136,6.024-2.37,6.501
					c-1.399,2.931-1.399,5.136-1.958,7.709c-0.548,2.485-1.4,5.071-1.907,7.538c-0.441,2.493-0.559,4.882,0.194,6.865
					c0.711,2.062,1.952,4.1,3.147,6.034c0.614,0.971,1.256,1.923,1.919,2.857c0.625,0.857,1.212,1.586,1.845,2.365
					c2.447,3.01,5.021,5.659,7.091,8.206l2.596,3.16l1.166,1.502l0.586,0.746l0.51,0.732l1.027,1.464l0.852,1.453
					c0.578,0.925,1.09,2.075,1.516,3.138C204.037,296.229,204.119,299.079,204.043,300.471z"/>
			</g>
		</g>
	</g>
</g>
<g>
	<g>
		<g>
			<path fill="#FFFFFF" d="M297.181,305.398l0.025,0.014C297.215,305.4,297.274,305.379,297.181,305.398z"/>
			<path fill="#FFFFFF" d="M298.967,292.568l0.365,0.149C299.215,292.65,299.086,292.604,298.967,292.568z"/>
			<path fill="#FFFFFF" d="M267.638,275.803l0.02-0.184C267.613,275.692,267.616,275.751,267.638,275.803z"/>
			<g>
				<path fill="#FFFFFF" d="M262.234,287.228c-0.401,1.405-0.737,2.822-0.854,4.344c-0.143,1.502-0.23,2.993-0.168,4.511
					c0.122,1.553,0.338,3.098,0.646,4.612l0.248,1.13c0.107,0.382,0.235,0.768,0.361,1.148c0.255,0.762,0.534,1.514,0.836,2.252
					c1.187,2.974,2.923,5.957,5.1,9.294c1.106,1.661,2.342,3.411,3.911,5.261c1.563,1.834,3.528,3.811,6.03,5.478
					c0.652,0.448,1.343,0.848,2.068,1.203l0.54,0.267l0.136,0.064l0.771,0.338l0.102,0.033l0.404,0.137l0.246,0.084l0.791,0.256
					c0.532,0.16,1.071,0.301,1.611,0.419c0.51,0.106,0.835,0.141,1.264,0.201c0.4,0.047,0.818,0.106,1.204,0.118
					c3.192,0.179,5.931-0.478,8.076-1.315c2.139-0.854,3.803-1.902,5.204-3.001c1.397-1.101,2.534-2.293,3.394-3.478
					c1.825-2.409,3.576-4.574,5.279-6.688c1.714-2.105,3.418-4.153,4.978-6.278c1.521-2.051,2.206-4.537,2.839-6.9
					c0.65-2.371,1.285-4.643,2.814-6.471c0.832-0.978,1.841-1.842,2.725-2.78c0.438-0.469-0.353-4.039-1.052-4.955
					c-0.316-0.421-3.162,0.201-3.921,0.386c-2.495,0.617-5.91,1.7-7.183,2.442c-2.57,1.516-3.74,2.182-5.342,4.096
					c-1.671,1.947-3.29,3.809-5.174,5.335c-1.876,1.519-4.035,2.708-6.586,3.099c-2.062,0.281-3.259,1.107-4.399,1.961
					c-0.515,0.387-0.931,0.673-1.247,0.793c-0.081,0.033-0.152,0.053-0.206,0.048c-0.066,0.013-0.105-0.011-0.139-0.038
					l-0.026-0.019c-0.005-0.003-0.009-0.006-0.009-0.015c0.004,0.007-0.019-0.053,0.024,0.047c0.114,0.263,0.222,0.531,0.319,0.806
					l0.273,0.76c0.083,0.237,0.157,0.481,0.224,0.729c0.597,2.016,0.548,3.287,0.461,3.652l-0.011,0.048
					c0.01,0.008,0.034,0.01,0.05,0.016c0.036,0.011,0.071,0.024,0.105,0.041s0.067,0.035,0.1,0.057l0.046,0.035
					c0.015,0.011,0.044,0.036-0.004-0.002l-0.357-0.272l-0.179-0.136l-0.022-0.018l-0.012-0.008
					c-0.38,0.027,0.515-0.041,0.423-0.033v-0.001h0.001l0.002-0.005l0.004-0.008l0.072-0.113c0.032-0.047,0.064-0.088,0.097-0.124
					c0.048-0.063,0.126-0.166,0.19-0.236c0.55-0.636,1.849-1.684,4.048-2.77c1.104-0.555,2.345-1.045,3.818-1.564l0.07-0.027
					c0.007-0.012,0.011-0.038,0.011-0.054c-0.001-0.025-0.012-0.086-0.035-0.151c-0.096-0.27-0.116-0.813,0.026-1.521
					c0.154-0.707,0.34-1.392,0.513-2.062c0.292-0.717,0.555-1.408,0.717-2.095c0.215-0.704,0.452-1.438,0.46-2.186
					c0.243-2.98,0.486-6.516,2.007-9.713c0.464-0.92,0.904-1.85,1.526-2.69l0.89-1.274c0.283-0.415,0.734-0.875,1.102-1.302
					c0.981-1.095,1.861-2.241,2.685-3.429c0.969-1.208,1.92-2.459,2.835-3.722c0.867-1.248,1.944-2.582,2.991-3.884
					c1.07-1.317,2.064-2.556,3.317-3.894c1.096-1.184,2.35-2.213,3.666-3.18c0.677-0.516,1.283-0.872,1.921-1.273l1.89-1.174
					c0.622-0.394,1.234-0.793,1.825-1.212c0.609-0.394,1.197-0.807,1.752-1.251c1.121-0.877,2.068-1.933,2.888-3.135
					c0.868-1.277,1.99-2.673,2.532-4.659c0.586-1.94,0.581-4.502-0.818-8.251c-0.684-1.823-2.598-4.457-4.428-6.659
					c1.497,1.809,0.002,1.428-1.972,0.607c-1.969-0.825-4.43-2.076-4.687-2.154c-1.548-0.484-2.899-0.646-4.173-0.683
					c-1.262-0.025-2.469,0.047-3.788-0.011c-5.136-0.274-10.875-1.268-14.469,0.871c-1.817,1.157-3.513,2.447-5.117,3.826
					c-1.544,1.331-2.837,2.617-4.163,4.019c-1.279,1.337-2.611,2.92-3.91,4.48c-1.3,1.571-2.577,3.081-3.92,4.852
					c-1.134,1.451-2.239,2.924-3.331,4.404c-1.081,1.562-2.129,3.261-3.183,4.888l-1.58,2.462c-0.525,0.839-1.036,1.811-1.558,2.707
					c-0.508,0.922-1.065,1.811-1.542,2.754l-1.46,2.814c-0.291,0.563-0.61,1.111-0.899,1.687c-0.287,0.579-0.575,1.161-0.865,1.744
					c-0.573,1.176-1.218,2.319-1.765,3.55c-0.541,1.234-1.08,2.483-1.597,3.748l-0.383,0.952l-0.322,0.997
					C262.629,285.882,262.427,286.553,262.234,287.228z"/>
			</g>
		</g>
	</g>
</g>
<g>
	<g>
		<g>
			<path fill="#FFFFFF" d="M240.498,331.096l-0.058,0.015C240.465,331.12,240.481,331.172,240.498,331.096z"/>
			<path fill="#FFFFFF" d="M248.953,331.429l-0.001,0.314C248.963,331.638,248.96,331.528,248.953,331.429z"/>
			<path fill="#FFFFFF" d="M248.841,303.189l0.035-0.044C248.857,303.137,248.848,303.157,248.841,303.189z"/>
			<g>
				<path fill="#FFFFFF" d="M246.175,302.019c-1.174-0.189-2.299,0.564-3.502,2.161c-1.225,1.656-2.554,4.262-3.887,4.443
					c-0.7,0.1-1.394,0.084-2.093,0.168c-0.35,0.041-0.702,0.107-1.059,0.224c-0.181,0.059-0.353,0.13-0.546,0.216
					c-0.223,0.083-0.446,0.181-0.67,0.299c-1.739,0.935-3.535,0.629-5.64,0.467c-1.095-0.025-2.083,0.58-3.162,1.29
					c-0.514,0.328-1.013,0.642-1.596,0.948c-0.572,0.3-1.142,0.426-1.857,0.521c-0.765,0.099-1.654,0.076-2.514,0.221
					c-0.207,0.052-0.469,0.749-0.574,1.511c-0.114,0.765-0.061,1.574,0.107,1.965c0.076,0.18,0.636,0.428,1.213,0.691
					c0.58,0.26,1.169,0.54,1.411,0.661c0.812,0.4,1.659,0.863,2.388,1.408c0.73,0.531,1.282,1.03,1.568,1.25
					c0.562,0.428,0.972,0.86,1.28,1.135c0.326,0.297,0.522,0.449,0.871,0.631c0.349,0.18,0.614,0.302,0.95,0.499
					c0.338,0.197,0.658,0.409,0.96,0.669c0.699,0.583,1.314,1.357,1.978,2.715c0.47,1.064,1.091,1.312,1.685,1.395l0.226,0.028
					l0.291,0.025c0.195,0.018,0.389,0.037,0.583,0.071c0.387,0.068,0.768,0.193,1.139,0.466c1.6,1.176,3.231,3.168,4.98,3.063
					c1.834-0.086,3.689,1.607,5.576,1.292c1.847-0.273,3.645-1.022,5.488-1.188c1.076-0.088,2.161-0.032,3.266,0.089
					c1.398,0.129,2.767-0.07,4.119-0.328c1.354-0.252,2.688-0.676,4.062-0.83c0.621-0.077,1.272,0.024,1.94,0.184
					c0.666,0.137,1.351,0.34,2.033,0.506c1.361,0.32,2.732,0.529,3.849-0.314c1.162-0.899,2.94-1.631,2.178-7.653
					c-0.188-1.466-0.904-3.959-1.6-6.143c1.117,3.588-2.466-3.512-2.622-3.847c-1.159-1.971-1.981-2.735-2.908-4.042
					c-1.793-2.511-3.593-6.08-4.764-6.698c-2.438-1.243-4.346-0.482-6.43-0.134c-0.889,0.112-1.763,0.331-2.645,0.524
					c-0.879,0.203-1.792,0.276-2.701,0.248c-0.545-0.027-1.107-0.177-1.669-0.335C247.308,302.308,246.737,302.106,246.175,302.019z
					"/>
			</g>
		</g>
	</g>
</g>
<g>
	<g>
		<g>
			<path fill="#FFFFFF" d="M290.572,131.561l0.189-0.266C290.641,131.412,290.488,131.479,290.572,131.561z"/>
			<path fill="#FFFFFF" d="M332.355,174.327l-0.517,0.347C332.146,174.572,332.283,174.446,332.355,174.327z"/>
			<path fill="#FFFFFF" d="M360.571,140.327l0.036-0.052C360.594,140.263,360.582,140.288,360.571,140.327z"/>
			<g>
				<path fill="#FFFFFF" d="M360.673,138.697c0.183-0.137,0.083,0.035-1.057,0.317c-0.567,0.136-1.399,0.299-2.556,0.396
					c-1.129,0.1-2.708,0.104-4.169-0.207c-0.952-0.195-1.771-0.409-2.517-0.621c-1.966-0.567-3.243-1.208-3.372-2
					c-0.166-0.808,0.827-1.798,2.703-2.585c1.229-0.507,2.455-1.014,3.681-1.52l1.882-0.843l0.949-0.434l0.478-0.221
					c0.097-0.045,0.104-0.047,0.157-0.077l0.063-0.039l0.03-0.021l0.139-0.068c6.245-2.991,12.346-6.257,18.038-10.22
					c11.459-7.907,22.757-15.06,33.78-23.764c2.629-2.114,5.08-4.529,7.425-6.899c2.142-2.296,4.294-4.691,6.466-7.1
					c4.363-4.834,8.789-9.73,13.779-14.414c2.66-2.525,5.437-5.043,8.009-7.943c0.312-0.363,0.775-1.211,1.287-2.303
					c0.5-1.11,1.016-2.512,1.482-3.908c0.414-1.461,0.83-2.867,1.03-4.132c0.212-1.255,0.317-2.258,0.283-2.784
					c-0.032-0.479-1.185,0.345-2.453,1.351c-1.244,1.034-2.771,2.111-3.366,2.613c-1.03,0.789-2.212,1.628-3.402,2.493
					c-1.244,0.824-2.455,1.708-3.71,2.485c-0.607,0.396-1.209,0.788-1.793,1.169c-0.585,0.368-1.154,0.726-1.696,1.067
					c-1.054,0.695-2.014,1.298-2.742,1.825c-2.949,2.122-5.174,3.562-7.333,5.1c-2.155,1.535-4.27,3.14-7.1,5.453
					c-2.975,2.397-5.931,4.779-8.875,7.151c-1.494,1.209-2.923,2.232-4.387,3.34c-1.464,1.076-2.878,2.189-4.434,3.149
					c-1.527,0.99-3.058,1.964-4.596,2.916c-1.525,0.966-3.181,1.778-4.779,2.637c-1.631,0.82-3.201,1.703-4.914,2.394
					c-1.688,0.722-3.39,1.412-5.105,2.066c-1.372,0.55-2.769,1.075-4.131,1.66c-1.36,0.586-2.695,1.22-4.011,1.89
					c-2.643,1.324-5.308,2.643-7.902,4.088c-2.638,1.369-5.303,2.694-7.962,4.002c-1.354,0.595-2.717,1.168-4.084,1.713
					l-2.058,0.792l-1.438,0.539c-0.69,0.275-1.288,0.458-1.901,0.65l-8.14,2.525l-4.188,1.28c-1.426,0.414-2.909,0.79-4.383,1.193
					l-9.03,2.433l-2.297,0.627l-2.047,0.693l-4.119,1.415l-4.146,1.453l-2.079,0.741l-1.04,0.374l-0.521,0.188l-0.341,0.199
					c-1.792,1.066-3.554,2.158-5.275,3.273l-2.551,1.687l-0.628,0.426c-0.171,0.135-0.309,0.265-0.463,0.398l-0.854,0.773
					c-1.079,1.01-1.942,1.975-2.685,2.96c-0.679,0.857-1.14,1.738-1.737,2.654c-0.571,0.911-1.169,1.898-1.8,3.023
					c-0.471,1.073-0.942,2.335-1.206,3.938c-0.272,1.594-0.295,3.551-0.02,5.288c0.566,3.505,1.728,6.025,3.083,8.354
					c1.388,2.302,3.074,4.384,5.245,6.34c1.096,0.971,2.288,1.914,3.645,2.798c1.301,0.906,2.954,1.67,4.531,2.46
					c1.855,1.027,4.291,1.791,6.509,2.644c1.072,0.445,2.423,0.753,3.65,1.118l3.771,1.045l4.112,0.844
					c1.372,0.278,2.701,0.579,4.213,0.765c2.95,0.415,5.781,0.911,8.972,1.106l4.648,0.392l4.806,0.204
					c3.167,0.182,6.449,0.163,9.673,0.225c1.61,0.045,3.24-0.004,4.859-0.015l4.736-0.047c1.943-0.075,3.9-0.025,5.832-0.185
					l6.785-0.392c2.259-0.145,4.495-0.418,6.747-0.612l3.373-0.314l3.345-0.443c2.244-0.313,4.438-0.533,6.729-0.906
					c11.698-1.826,23.031-5.482,33.557-10.127c5.222-2.376,10.359-4.878,15.253-7.587l1.848-1.004
					c0.62-0.339,1.183-0.624,2.009-1.143c1.521-0.937,3.056-1.854,4.538-2.85c1.439-1.062,2.871-2.139,4.29-3.228
					c1.362-1.159,2.682-2.375,4.008-3.58c4.646-4.521,8.755-9.554,12.145-15.117c3.411-5.545,6.004-11.68,7.554-18.2
					c1.558-6.509,2.058-13.426,1.201-20.323c-0.271-1.715-0.579-3.431-0.924-5.141c-0.397-1.697-0.94-3.366-1.464-5.036
					c-0.482-1.688-1.271-3.26-1.97-4.868c-0.357-0.783-0.748-1.625-1.105-2.345l-0.844-1.507c-2.432-4.262-4.803-8.808-7.265-12.581
					c-0.58-0.932-1.219-1.842-1.89-2.717c-0.59-0.842-1.344-1.696-2.04-2.481c-0.344-0.392-0.712-0.78-1.105-1.165
					c-0.39-0.375-0.813-0.726-1.174-0.804c-0.197-0.075-0.383-0.153-0.596-0.353l-0.157-0.132l-0.163-0.209l-0.333-0.414
					c-0.222-0.235-0.468-0.639-0.715-0.97l-0.38-0.516c-0.142-0.21-0.28-0.419-0.419-0.625c-0.52-0.686-1.269-1.68-1.997-2.189
					c-0.733-0.362-1.473-0.564-2.247-0.644c-1.563-0.145-3.106,0.149-4.482,0.573c0.564-0.175,0.997-0.094,1.325,0.194
					c0.176,0.139,0.275,0.351,0.358,0.6c0.041,0.125,0.074,0.261,0.101,0.406c0.023,0.165,0.034,0.368,0.04,0.564
					c0.05,1.642-0.716,3.185-1.561,4.541l-0.635,1.029c-0.195,0.374-0.389,0.744-0.577,1.104c-0.397,0.763-0.774,1.488-1.107,2.127
					c-0.704,1.321-1.097,2.315-1.179,2.546c-1.508,5.564-0.564,11.46-0.115,17.086c0.1,1.372,0.199,2.726,0.297,4.068
					c0.085,1.333,0.17,2.654,0.254,3.969l0.121,1.95c0.041,0.354,0.003,0.596-0.031,0.838l-0.093,0.733l-0.177,1.411
					c-0.05,0.456-0.098,0.902-0.224,1.364c-0.63,3.591-1.748,6.638-2.355,9.685c-1.304,6.407-4.402,12.335-8.923,16.843
					c-1.135,1.117-2.334,2.171-3.642,3.089c-0.6,0.533-1.338,0.876-2.007,1.317l-0.507,0.325l-0.251,0.166
					c-0.091,0.058-0.264,0.143-0.391,0.214l-1.655,0.889c-4.407,2.453-8.838,4.551-13.297,6.558
					c-7.596,3.264-15.215,5.891-23.011,7.63l-2.925,0.643c-0.999,0.199-2.065,0.35-3.096,0.528l-3.115,0.512l-1.559,0.256
					l-1.561,0.177c-2.081,0.225-4.163,0.472-6.245,0.669l-6.241,0.314c-1.245,0.093-2.486,0.004-3.736,0l-0.876-0.02l-0.058-0.031
					c-0.038-0.021-0.073-0.045-0.104-0.069c-0.131-0.101-0.22-0.232-0.246-0.361C360.276,139.093,360.486,138.823,360.673,138.697z"
					/>
			</g>
		</g>
	</g>
</g>
</svg>
