<?xml version="1.0" encoding="utf-8"?>
<!-- Generator: Adobe Illustrator 16.0.0, SVG Export Plug-In . SVG Version: 6.00 Build 0)  -->
<!DOCTYPE svg PUBLIC "-//W3C//DTD SVG 1.1//EN" "http://www.w3.org/Graphics/SVG/1.1/DTD/svg11.dtd">
<svg version="1.1" id="Layer_1" xmlns="http://www.w3.org/2000/svg" xmlns:xlink="http://www.w3.org/1999/xlink" x="0px" y="0px"
	 width="500px" height="500px" viewBox="0 0 500 500" enable-background="new 0 0 500 500" xml:space="preserve">
<g>
	<g>
		<g>
			<g>
				<path fill="#FFFFFF" d="M114.551,438.029l-0.573-0.365C114.231,437.836,114.384,437.966,114.551,438.029z"/>
				<path fill="#FFFFFF" d="M208.829,450.821l-0.158,0.331C208.883,450.912,208.887,450.838,208.829,450.821z"/>
				<path fill="#FFFFFF" d="M199.377,439.259l-0.059,0.012C199.336,439.278,199.355,439.272,199.377,439.259z"/>
				<g>
					<path fill="#FFFFFF" d="M186.787,447.036c-0.699,0.126-1.409,0.224-2.146,0.268c-0.742,0.045-1.555-0.018-2.33,0.006
						c-0.804-0.02-1.702-0.161-2.551-0.22c-0.864-0.081-1.808-0.289-2.71-0.418c-3.708-0.671-7.636-1.736-11.788-2.847
						c-4.105-1.063-8.205-2.126-12.296-3.187c-1.967-0.565-3.932-1.132-5.894-1.696c-1.928-0.629-3.854-1.257-5.777-1.884
						c-7.799-2.731-15.348-6.226-22.46-10.698c-7.117-4.447-13.807-9.786-19.885-15.927c-1.648-1.578-3.135-3.354-4.692-5.038
						c-1.534-1.712-3.102-3.392-4.603-5.126l-4.313-5.36l-2.159-2.676c-0.713-0.896-1.346-1.854-2.024-2.776l-4.017-5.576
						c-0.695-0.914-1.298-1.887-1.915-2.853l-1.857-2.893l-1.869-2.889c-0.631-0.959-1.262-1.919-1.807-2.929
						c-1.147-1.988-2.295-3.979-3.444-5.972c-1.219-1.975-2.208-4.057-3.225-6.119c-1.006-2.067-2.05-4.114-3.001-6.197
						c-0.861-2.121-1.72-4.239-2.578-6.354l-1.273-3.18l-1.057-3.252l-2.097-6.514c-0.581-2.223-1.162-4.448-1.745-6.678
						c-0.282-1.117-0.589-2.229-0.85-3.354l-0.72-3.395c-0.461-2.27-1.004-4.528-1.401-6.826c-0.745-4.435-1.637-8.834-2.254-13.284
						c-0.765-4.428-1.245-8.896-1.809-13.357c-0.25-2.234-0.403-4.479-0.601-6.721l-0.27-3.365l-0.149-3.376
						c-0.084-2.252-0.169-4.504-0.207-6.759c0.016-2.257,0.052-4.515,0.114-6.771c0.051-2.439,0.192-4.752,0.445-7.063
						c0.249-2.313,0.594-4.607,1.035-6.883c0.219-1.117,0.558-4.546,1.224-7.938c0.135-0.855,0.313-1.701,0.494-2.51
						c0.173-0.813,0.339-1.59,0.489-2.296c0.35-1.399,0.61-2.529,0.704-3.099c0.086-0.519-0.656,0.744-1.54,2.377
						c-0.461,0.81-0.849,1.746-1.245,2.57c-0.389,0.826-0.713,1.562-0.879,2.016c-1.242,2.944-2.477,6.827-3.377,10.653
						c-0.928,3.82-1.397,7.593-1.597,10.149c-0.322,5.16-0.644,8.956-0.663,12.787c-0.021,1.917-0.041,3.842-0.063,5.952
						c0.05,2.109,0.144,4.404,0.253,7.063c0.554,10.978,1.768,21.795,3.553,32.514c1.854,10.707,4.288,21.277,7.437,31.916
						c1.424,4.228,2.779,8.578,4.741,12.696c0.938,2.079,1.879,4.166,2.823,6.258c1.082,2.021,2.167,4.046,3.252,6.072
						c2.087,4.105,4.645,7.938,7.032,11.854c1.158,1.982,2.507,3.831,3.793,5.714c1.281,1.889,2.557,3.771,3.828,5.646
						c1.432,1.988,2.931,3.928,4.391,5.9c1.481,1.955,2.891,3.974,4.512,5.816c3.16,3.757,6.237,7.581,9.694,11.17
						c6.839,7.201,14.549,13.758,23.102,19.202c9.037,5.857,19.008,10.457,29.024,13.973l3.768,1.305
						c1.258,0.414,2.521,0.778,3.783,1.168l7.337,2.201c4.865,1.458,10.02,3.046,15.748,3.932c0.807,0.153,1.672,0.241,2.545,0.317
						c0.873,0.075,1.723,0.176,2.613,0.22c1.848-0.008,3.648,0.074,5.564-0.173c3.781-0.418,7.621-1.622,10.89-3.363
						c3.309-1.712,6.071-3.838,8.489-5.805l1.773-1.463l1.35-1.111c0.539-0.432,1.042-0.883,1.56-1.326
						c1.085-0.865,1.909-1.841,2.834-2.772c0.416-0.48,0.747-0.987,1.125-1.479c0.371-0.492,0.734-0.989,1.067-1.505
						c0.782-1.417,1.269-2.878,1.564-4.368c0.248-1.491,0.133-3.126-0.341-4.668c-1.024-3.107-3.273-5.378-6.114-6.786
						c-0.662-0.395-1.594-0.586-2.417-0.86l-1.266-0.386c-0.43-0.121-0.818-0.283-1.312-0.339l-2.827-0.471l-0.707-0.118
						l-0.787-0.14l-0.64-0.138c-0.42-0.095-0.872-0.174-1.266-0.277l-1.121-0.327c-0.2-0.063-0.347-0.084-0.591-0.177l-0.704-0.259
						l-1.408-0.518c-10.64-3.873-20.912-8.742-30.275-14.945c-5.971-3.818-11.584-8.188-16.858-12.824
						c-5.237-4.674-10.1-9.759-14.447-15.285c-8.735-11.027-15.618-23.579-20.94-36.932c-0.616-1.503-1.198-3.02-1.751-4.549
						c-0.562-1.504-1.121-3.07-1.676-4.652c-1.114-3.146-2.155-6.228-3.136-9.297c-1.91-6.113-3.391-12.126-4.007-17.979
						l-0.584-4.989c-0.206-1.707-0.395-3.483-0.637-5.095l-0.705-4.942l-0.623-4.777c-0.508-3.221-0.584-6.18-0.886-9.249
						c-0.083-1.554-0.073-3.171-0.126-4.759l-0.067-2.396c-0.016-0.799,0.02-1.6,0.023-2.4c-0.057-6.776,0.651-14.823,1.54-22.483
						c0.219-1.915,0.4-3.824,0.705-5.689c0.278-1.868,0.457-3.717,0.706-5.504c0.526-3.57,0.833-6.962,1.055-9.975
						c0.162-2.935-0.799-4.201-1.882-4.573c0.897,0.315-0.787,3.844-2.697,7.508c-0.902,1.845-1.88,3.722-2.663,5.209
						c-0.799,1.483-1.274,2.608-1.401,2.873c-0.651,1.629-1.283,3.319-1.886,5.051c-0.522,1.75-1.025,3.542-1.521,5.353
						c-0.535,1.808-0.88,3.652-1.291,5.49c-0.39,1.841-0.84,3.675-1.139,5.511c-0.333,1.779-0.663,3.535-0.989,5.276
						c-0.287,1.749-0.518,3.492-0.78,5.231c-0.127,0.871-0.254,1.741-0.38,2.609l-0.26,2.613c-0.166,1.745-0.339,3.492-0.479,5.259
						c-0.306,7.25,0.209,14.56,1.197,21.855l0.639,5.638l0.339,2.909l0.404,3.217c0.683,4.225,1.576,8.389,2.749,12.332
						c1.129,3.976,2.423,7.821,3.75,11.557l1.993,5.556l2.114,5.646c2.946,7.529,6.331,14.956,10.272,22.156
						c3.98,7.181,8.527,14.121,13.677,20.654c4.386,5.545,9.229,10.752,14.459,15.523c1.313,1.186,2.661,2.333,3.991,3.499
						c1.351,1.134,2.745,2.202,4.117,3.304l2.067,1.638l2.14,1.538c1.434,1.015,2.839,2.073,4.298,3.048
						c5.835,3.91,11.91,7.424,18.151,10.587c1.563,0.784,3.157,1.497,4.735,2.248l2.373,1.113l2.412,1.017l4.83,2.014l4.897,1.82
						l1.469,0.547c0.261,0.092,0.455,0.181,0.771,0.276l0.925,0.281l1.853,0.541l1.742,0.392l0.437,0.097l0.219,0.049l0.109,0.023
						l-0.104-0.021c-0.085-0.02,0.001,0.002-0.008,0.001l0.081,0.028l0.144,0.054c0.085,0.039,0.156,0.112,0.152,0.212
						c-0.003,0.104-0.103,0.183-0.18,0.229c-0.078,0.046-0.152,0.068-0.208,0.082c-0.698,0.55-1.398,1.101-2.101,1.653
						c-0.75,0.584-1.473,1.127-2.18,1.628C191.913,445.325,189.436,446.54,186.787,447.036z"/>
				</g>
			</g>
		</g>
	</g>
	<g>
		<g>
			<g>
				<path fill="#FFFFFF" d="M183.909,137.926l-0.467-0.098C183.649,137.88,183.78,137.936,183.909,137.926z"/>
				<path fill="#FFFFFF" d="M161.625,151.833l0.091-0.183C161.611,151.729,161.603,151.787,161.625,151.833z"/>
				<path fill="#FFFFFF" d="M149.306,167.894l-0.436,0.059C149.08,167.939,149.209,167.919,149.306,167.894z"/>
				<g>
					<path fill="#FFFFFF" d="M178.64,162.498c1.59-0.476,3.168-0.978,4.714-1.534c1.551-0.547,3.121-1.071,4.636-1.675l4.458-1.742
						l2.072-0.798c0.845-0.328,1.318-0.488,2.954-1.182c1.374-0.522,2.739-1.282,4.087-1.964c1.222-0.819,2.443-1.624,3.634-2.458
						c1.216-0.79,2.334-1.747,3.472-2.638c0.968-1.005,1.592-1.917,2.015-2.775c0.44-0.861,0.751-1.725,0.955-2.818
						c0.194-1.1,0.216-2.363-0.014-3.537c-0.147-0.583-0.258-1.176-0.435-1.745c-0.217-0.554-0.354-1.144-0.638-1.663
						c-0.273-0.522-0.515-1.066-0.858-1.532l-0.481-0.723l-0.542-0.66c-0.733-0.914-1.671-1.642-2.631-2.321
						c-0.478-0.343-1.042-0.609-1.557-0.914l-0.2-0.109l-0.261-0.067l-0.522-0.134l-1.04-0.265l-8.123-2.034
						c-0.147-0.034-0.373-0.098-0.454-0.105l-0.298-0.044l-0.597-0.089l-1.194-0.178l-2.389-0.357l-4.78-0.728
						c-1.608-0.227-3.161-0.537-4.719-0.854c-1.559-0.323-3.12-0.646-4.684-0.97c-3.118-0.69-6.195-1.564-9.294-2.438
						c-13.04-3.98-25.482-9.193-37.678-15.115c-6.166-2.933-11.921-6.431-17.549-10.227c-5.739-3.599-11.048-7.863-16.57-11.976
						c-2.614-2.052-5.196-4.149-7.843-6.157l-3.969-3.016c-1.32-1.01-2.594-2.083-3.893-3.123c-2.585-2.096-5.165-4.202-7.708-6.352
						c-2.533-2.179-5.1-4.434-7.369-6.723c-1.288-1.204-2.349-2.512-3.435-3.795c-0.526-0.658-1.125-1.247-1.59-1.955l-1.444-2.075
						c-0.238-0.339-0.779-0.969-1.482-1.743c-0.088-0.097-0.179-0.195-0.271-0.297c-0.113-0.134-0.228-0.272-0.346-0.412
						c-0.235-0.273-0.48-0.542-0.731-0.809c-0.505-0.53-1.055-1.058-1.636-1.568c-1.177-1.015-2.472-1.976-3.971-2.623
						c-0.718-0.327-1.571-0.547-2.333-0.626c-0.427-0.018-0.798-0.019-1.133,0.018c-0.358,0.06-0.658,0.134-0.887,0.203
						c-0.417,0.14,0.004,0.109,0.851,0.139c0.811,0.076,1.884,0.435,2.644,0.981c1.555,1.078,2.587,2.542,3.055,3.171
						c0.751,1.03,1.486,2.253,2.157,3.539c0.693,1.23,1.418,2.517,2.127,3.775c0.682,1.302,1.561,2.413,2.325,3.468
						c0.783,1.035,1.462,2.021,2.108,2.709c1.296,1.415,2.42,2.64,3.459,3.773c1.061,1.091,2.036,2.092,3.014,3.098
						c1.968,1.995,4.049,3.94,6.919,6.583c11.932,10.855,24.044,20.937,36.937,30.673c1.295,1,2.572,2.034,3.947,2.962
						c1.384,0.917,2.789,1.821,4.208,2.714c2.807,1.845,5.809,3.386,8.783,4.993l2.238,1.189l2.285,1.093
						c1.522,0.731,3.043,1.461,4.562,2.19c3.042,1.446,6.136,2.729,9.138,4.168c1.642,0.736,3.305,1.419,4.956,2.137
						c1.66,0.692,3.295,1.465,4.977,2.099l5.031,1.958l2.522,0.973l2.549,0.884l5.115,1.747c1.708,0.583,3.443,1.052,5.171,1.57
						c1.729,0.495,3.47,1.021,5.201,1.461c1.73,0.4,3.461,0.801,5.194,1.203l5.438,1.25c0.372,0.102,0.728,0.21,1.054,0.319
						c0.313,0.098,0.577,0.268,0.721,0.532c0.116,0.263,0.166,0.608-0.053,0.858c-0.597,0.347-1.08,0.571-1.572,0.693l-0.354,0.11
						l-1.256,0.431l-1.367,0.469l-1.466,0.53l-5.172,1.945c-6.732,2.507-13.495,4.695-20.337,6.25
						c-1.713,0.344-3.425,0.721-5.141,1.042c-1.719,0.255-3.439,0.552-5.161,0.773c-1.729,0.157-3.434,0.361-5.187,0.479
						l-5.341,0.205c-2.077,0.122-4.162,0.046-6.245,0.014c-2.083-0.044-4.166-0.034-6.247-0.223
						c-2.082-0.151-4.164-0.275-6.242-0.455l-6.222-0.75c-1.322-0.135-2.595-0.362-3.871-0.579l-3.833-0.635l-3.803-0.812
						l-1.902-0.399c-0.631-0.147-1.257-0.323-1.887-0.482l-3.771-0.971c-1.252-0.347-2.493-0.75-3.741-1.12
						c-2.504-0.704-4.956-1.634-7.43-2.471c-4.91-1.826-9.786-3.802-14.579-6.074l-1.8-0.841c-0.589-0.28-1.241-0.561-1.711-0.843
						c-1.011-0.576-2.062-1.087-3.052-1.697l-2.885-1.964l-2.692-2.219c-6.213-5.706-10.167-13.481-11.404-21.422
						c-0.656-3.976-0.521-7.998,0.164-11.872c0.096-0.986,0.408-1.927,0.64-2.885l0.356-1.437l0.507-1.395
						c0.39-1.123,0.78-2.248,1.171-3.375l0.731-2.162c0.252-0.724,0.367-1.438,0.551-2.161c0.219-1.048,0.547-2.16,0.681-3.237
						c0.162-1.087,0.328-2.199,0.497-3.329c0.096-1.094,0.193-2.207,0.291-3.329c0.101-1.13,0.108-2.19,0.157-3.298
						c0.046-1.113,0.05-2.167,0.048-3.227c0-1.065-0.01-2.123-0.034-3.123c-0.032-1.008-0.064-2.009-0.096-2.996
						c-0.045-1-0.089-1.986-0.133-2.954c-0.008-0.792-0.078-1.642-0.187-2.187l-0.159-0.784l-0.17-0.699
						c-0.233-0.893-0.483-1.71-0.739-2.47c-0.512-1.52-1.062-2.892-1.582-4.005c-0.419-0.876-0.883-1.345-1.43-1.394
						c-0.134-0.036-0.292-0.059-0.415-0.141c-0.121-0.084-0.246-0.164-0.374-0.236c-0.256-0.146-0.524-0.265-0.796-0.35
						c0.229,0.055,0.272,0.268,0.315,0.438c0.057,0.103,0.024,0.395-0.017,0.851c-0.093,0.896-0.273,2.293-0.481,3.754
						c-0.398,2.925-1.017,6.181-1.344,6.699c-0.02,0.066-0.029,0.098-0.036,0.121c-1.548,5.013-2.12,10.699-3.442,15.731
						c-0.163,0.605-0.325,1.207-0.486,1.805c-0.171,0.591-0.387,1.153-0.577,1.722c-0.196,0.562-0.39,1.122-0.584,1.679
						l-0.702,1.578l-0.696,1.541l-0.824,1.428c-0.279,0.492-0.516,0.894-0.814,1.451l-0.975,1.888
						c-2.592,5.063-4.25,10.926-4.254,17.36c0.003,6.732,1.475,13.43,4.165,19.563c2.687,6.139,6.589,11.727,11.393,16.394
						c1.153,1.22,2.469,2.26,3.763,3.325c1.262,1.108,2.675,2.013,4.062,2.954c1.36,0.986,2.852,1.752,4.32,2.558l1.104,0.599
						l0.553,0.298l0.506,0.239l2.021,0.95c5.358,2.579,10.928,4.863,16.587,6.981c9.662,3.526,19.77,6.146,30.071,7.579
						c10.176,1.358,20.375,1.952,30.659,1.75c6.063-0.065,12.612-0.546,18.938-1.565
						C166.325,165.918,172.562,164.346,178.64,162.498z"/>
				</g>
			</g>
		</g>
	</g>
	<g>
		<g>
			<g>
				<path fill="#FFFFFF" d="M394.212,419.431l0.456-0.391C394.457,419.209,394.306,419.303,394.212,419.431z"/>
				<path fill="#FFFFFF" d="M317.677,444.907l0.197-0.104C317.717,444.811,317.677,444.855,317.677,444.907z"/>
				<path fill="#FFFFFF" d="M294.295,444.53l-0.342-0.541C294.104,444.256,294.206,444.417,294.295,444.53z"/>
				<g>
					<path fill="#FFFFFF" d="M333.543,462.004c1.186,0.003,2.37-0.097,3.556-0.149c1.182-0.086,2.376-0.087,3.547-0.258l3.51-0.526
						l1.752-0.275c0.586-0.087,1.147-0.264,1.722-0.393c2.258-0.585,4.643-1.084,6.703-1.851c2.125-0.72,4.267-1.391,6.322-2.277
						c8.323-3.3,16.106-7.68,23.198-12.649c14.443-10.256,27.246-22.495,38.263-36.673c2.933-3.741,5.62-7.671,8.102-11.722
						c2.438-4.024,4.673-8.049,6.825-12.179c4.278-8.243,8.033-16.775,11.052-25.607c3.032-8.88,5.584-17.779,7.408-26.909
						c0.883-4.451,1.765-8.902,2.651-13.37c0.909-4.466,1.823-8.948,2.743-13.465l0.66-3.283c0.104-0.555,0.223-1.079,0.313-1.658
						l0.242-1.775l0.231-1.776c0.056-0.59,0.08-1.178,0.119-1.766c0.069-1.177,0.155-2.356,0.131-3.514
						c0.046-4.661-0.363-9.188-0.778-13.6c-0.208-2.199-0.406-4.388-0.564-6.548l-0.568-6.74l-0.774-6.734l-0.942-6.706
						c-0.382-2.375-0.762-4.741-1.141-7.105c-0.4-2.322-0.789-4.683-1.308-7.083c-0.228-1.166-1.343-4.694-2.917-8.101
						c-0.758-1.712-1.724-3.351-2.522-4.693c-0.881-1.311-1.634-2.313-2.021-2.789c-0.357-0.432,0.194,1.072,0.896,2.872
						c0.625,1.842,1.284,4.023,1.487,4.991c1.675,6.278,2.362,15.867,2.974,20.763c0.578,4.953,0.859,8.583,1.064,12.238
						c0.052,0.914,0.138,1.825,0.174,2.764c0.03,0.937,0.062,1.896,0.094,2.9c0.074,2.032,0.154,4.242,0.247,6.801
						c0.234,5.318,0.568,10.525,0.381,15.603l-0.078,1.898c-0.03,0.632-0.113,1.251-0.167,1.876l-0.181,1.867l-0.308,1.833
						c-0.11,0.614-0.187,1.209-0.322,1.838l-0.428,1.901l-0.86,3.797c-1.183,5.083-2.362,10.158-3.544,15.239
						c-0.609,2.533-1.229,5.162-1.864,7.623l-0.96,3.693c-0.32,1.23-0.633,2.46-1.057,3.669
						c-4.822,15.733-10.817,32.153-19.264,46.688c-1.11,1.98-2.314,3.907-3.521,5.831c-0.606,0.952-1.188,1.951-1.814,2.862
						l-1.88,2.728c-1.203,1.848-2.614,3.559-3.956,5.308l-1.012,1.308c-0.344,0.432-0.72,0.84-1.077,1.261l-2.166,2.508
						c-5.86,6.62-12.415,12.638-19.366,18.292c-1.831,1.525-3.781,2.918-5.674,4.37c-0.94,0.73-1.957,1.387-2.933,2.082
						c-0.988,0.678-1.965,1.389-2.972,2.02c-3.979,2.648-8.068,5.016-12.221,7.197c-4.191,2.084-8.416,4.058-12.79,5.592
						c-2.157,0.855-4.381,1.502-6.588,2.2c-1.116,0.393-2.178,0.606-3.248,0.869c-1.073,0.241-2.134,0.565-3.213,0.759l-3.017,0.47
						c-0.503,0.075-1.005,0.174-1.509,0.234l-1.519,0.094l-3.039,0.21l-3.042-0.069l-1.522-0.03
						c-0.509-0.004-1.011-0.105-1.517-0.152l-3.032-0.343c-1.011-0.123-2.003-0.396-3.007-0.582
						c-0.996-0.227-2.016-0.35-2.991-0.692c-1.967-0.602-3.963-1.109-5.87-1.946l-1.449-0.567c-0.48-0.195-1.039-0.389-0.988-0.394
						c-0.098-0.047-0.116-0.054-0.299-0.199c-0.087-0.056-0.212-0.184-0.331-0.293c-0.116-0.101-0.244-0.227-0.378-0.375
						c-2.184-2.303-4.479-6.146-5.625-9.379c-0.365,2.13-0.73,4.265-1.097,6.4c0.242-0.295,0.513-0.67,0.736-0.9l2.318-0.689
						l2.176-0.653c0.722-0.244,1.439-0.521,2.159-0.781l4.314-1.594l4.238-1.887c5.589-2.644,10.99-5.833,15.863-9.425
						c3.078-2.256,6.035-4.597,8.861-6.975c1.442-1.163,2.826-2.437,4.235-3.658l2.102-1.854l2.039-1.917
						c2.75-2.525,5.349-5.197,7.967-7.85c2.538-2.729,5.093-5.443,7.498-8.294c9.732-11.292,18.347-23.634,25.133-37.283
						c3.018-6.202,5.616-12.657,7.513-19.473l0.664-2.578c0.223-0.859,0.458-1.713,0.587-2.611c0.301-1.771,0.637-3.565,0.893-5.325
						c0.17-1.72,0.387-3.446,0.51-5.166c0.09-1.715,0.245-3.443,0.271-5.151c0.213-6.855-0.144-13.629-0.833-20.286
						c-0.687-6.699-1.742-13.093-2.817-19.62c-0.591-3.449-1.172-7.201-1.89-11.068c-0.791-3.87-1.64-7.851-2.561-11.742
						c-0.46-1.946-0.938-3.869-1.435-5.745c-0.257-0.936-0.511-1.861-0.761-2.774c-0.131-0.455-0.262-0.907-0.392-1.355
						l-0.249-0.811c-0.098-0.297-0.193-0.622-0.298-0.877c-0.838-2.201-1.693-3.661-2.321-4.844
						c-0.621-1.159-1.046-1.924-1.344-2.565c-0.607-1.172-1.097-2.548-2.099-3.193c0.407,0.288,0.03,0.931-0.382,1.925
						c-0.23,0.497-0.397,1.129-0.54,1.888c-0.141,0.758-0.148,1.664-0.111,2.616c0.085,1.909,0.444,4,0.501,5.618
						c0.067,1.597-0.086,2.808-0.058,3.086c0.098,6.805,0.927,14.143,1.424,21.182c0.442,13.538,0.84,25.665,1.31,40.021
						c0.049,1.816,0.05,3.621,0.053,5.422c-0.064,1.788-0.037,3.59-0.179,5.354l-0.153,2.655l-0.262,2.625
						c-0.117,1.796-0.493,3.367-0.737,5.032c-1.228,6.596-3.605,13.204-6.602,19.609c-6.037,12.833-14.437,24.938-24.05,36.019
						c-8.167,9.459-17.206,18.139-26.944,25.929c-4.828,3.834-9.685,7.215-14.944,9.817c-2.665,1.249-5.321,2.505-8.16,3.467
						l-2.097,0.775c-0.703,0.252-1.445,0.439-2.166,0.662l-2.456,0.73l-2.276,0.681l-1.139,0.34
						c-0.358,0.135-0.835,0.152-0.982,0.496c-1.069,1.328-2.142,2.66-3.281,4.075l-2.646,3.285l1.408,3.935
						c1.568,4.386,3.545,8.024,6.198,11.73c0.697,0.925,1.405,1.842,2.281,2.786c0.873,0.945,1.779,1.875,3.326,2.978
						c0.374,0.257,0.744,0.519,1.147,0.729c0.379,0.199,0.849,0.479,1.128,0.586l1.552,0.661l2.869,1.197
						C316.523,460.251,325.007,462.008,333.543,462.004z"/>
				</g>
			</g>
		</g>
	</g>
	<g>
		<g>
			<g>
				<path fill="#FFFFFF" d="M271.83,225.597l0.154-0.016C271.915,225.58,271.868,225.557,271.83,225.597z"/>
				<path fill="#FFFFFF" d="M249.532,225.979l0.042-0.157C249.534,225.875,249.528,225.93,249.532,225.979z"/>
				<path fill="#FFFFFF" d="M244.803,240.078l-0.137,0.021C244.731,240.104,244.772,240.095,244.803,240.078z"/>
				<g>
					<path fill="#FFFFFF" d="M254.203,240.705c4.213-0.011,8.423-0.473,12.555-1.414c4.257-0.97,8.412-2.521,12.727-2.852
						c4.572-0.337,9.09-0.572,13.61-1.376c1.136-0.205,2.267-0.368,3.395-0.5c1.131-0.133,2.233-0.223,3.44-0.336
						c2.353-0.217,4.619-0.436,6.861-0.605c2.159-0.164,4.219-0.612,6.259-0.884c2.029-0.274,4.065-0.341,5.905,0.237
						c0.978,0.31,1.869,0.772,2.696,1.244c0.222,0.086,0.903,0.19,1.662,0.236c0.735,0.077,1.511,0.183,1.837,0.12
						c0.306-0.028-0.508-1.586-0.821-2.02c-0.48-0.651-1.16-1.494-1.946-2.146c-0.76-0.723-1.613-1.201-2.196-1.538
						c-0.615-0.267-1.147-0.498-1.64-0.71c-0.502-0.191-0.971-0.333-1.447-0.475c-0.477-0.149-0.956-0.238-1.486-0.33
						c-0.531-0.096-1.111-0.175-1.778-0.216c-5.512-0.43-10.831,0.238-15.82-0.751c-4.26-0.799-8.617,0.162-12.892-0.073
						c-4.628-0.265-9.239-1.012-13.845-0.723c-2.452,0.169-4.901,0.04-7.347-0.079c-2.446-0.115-4.889-0.223-7.33-0.095
						c-2.41,0.151-4.808,0.269-7.206,0.362c-2.4,0.102-4.802,0.19-7.207,0.191c-2.818,0.036-5.591-0.12-8.36-0.326
						c-7.035-0.526-14.182-0.676-21.545-0.965c-0.828-0.037-1.65-0.102-2.475-0.171c-0.835-0.052-1.667-0.119-2.5-0.195
						c-1.668-0.167-3.333-0.333-4.998-0.5c-1.694-0.093-3.396-0.166-5.104-0.166c-0.854,0.003-1.709,0.014-2.568,0.069
						c-0.868,0.094-1.736,0.214-2.604,0.367c-0.919,0.161-1.919,0.321-2.944,0.521c-1.025,0.207-2.073,0.411-3.091,0.847
						c-2.032,0.802-3.911,1.931-5.099,3.67c-0.578,0.846-0.509,2.152-0.259,3.27c-0.207-0.917,0.872-0.597,2.004-0.024
						c1.136,0.573,2.311,1.401,2.459,1.467c0.909,0.399,1.818,0.638,2.722,0.833c0.899,0.176,1.825,0.458,2.714,0.729
						c1.729,0.563,3.346,1.253,4.941,1.813c1.617,0.638,3.23,1.184,4.949,1.327c7.231,0.697,14.474,0.763,22.079,1.165
						c3.218,0.149,6.483,0.272,9.765,0.353c3.311,0.055,6.634,0.166,9.897,0.177C246.089,240.296,250.15,240.627,254.203,240.705z"
						/>
				</g>
			</g>
		</g>
	</g>
	<g>
		<g>
			<g>
				<path fill="#FFFFFF" d="M220.419,318.988l-0.249,0.118C220.286,319.062,220.37,319.052,220.419,318.988z"/>
				<path fill="#FFFFFF" d="M229.287,290.848l0.165,0.006C229.388,290.82,229.333,290.828,229.287,290.848z"/>
				<path fill="#FFFFFF" d="M214.397,290.996l-0.064-0.102C214.351,290.948,214.372,290.979,214.397,290.996z"/>
				<g>
					<path fill="#FFFFFF" d="M215.958,298.501c0.121,0.781,0.16,1.486,0.257,2.193c0.008,0.326,0.028,0.649,0.064,0.978
						c0.041,0.332,0.005,0.59,0.038,0.896c0.027,1.15,0.033,2.021-0.07,2.952c-0.179,1.02-0.248,1.827-0.855,2.503
						c-0.6,0.687-1.988,1.106-3.549,0.798c-1.649-0.316-3.42-1.069-5.138-1.993c-1.722-0.928-3.429-2.033-5.068-3.163
						c-3.351-2.349-5.73-5.855-7.331-9.63c-0.739-1.844-1.694-3.588-2.308-5.537c-0.344-0.956-0.718-1.912-0.855-2.952
						c-0.091-0.511-0.168-1.025-0.226-1.542l-0.071-0.775c-0.007-0.124-0.023-0.271-0.018-0.377l0.033-0.282
						c0.089-0.802,0.428-1.834,0.683-3.168c0.054-0.335-0.075-1.407-0.429-2.613c-0.219-0.629-0.44-1.233-0.74-1.733
						c-0.307-0.506-0.583-0.87-0.75-1.028c-0.153-0.144-0.207,0.49-0.286,1.171c-0.058,0.688-0.318,1.381-0.374,1.677
						c-0.621,1.924-2.065,3.988-2.37,5.381c-0.069,0.352-0.133,0.679-0.194,0.989c-0.045,0.303-0.067,0.568-0.097,0.836
						c-0.054,0.529-0.095,1.019-0.12,1.511c-0.037,0.983-0.098,1.982,0.161,3.331c0.113,0.701,0.226,1.399,0.339,2.097
						c0.06,0.349,0.109,0.7,0.18,1.048l0.262,1.031c0.17,0.691,0.346,1.382,0.573,2.055c0.219,0.676,0.403,1.37,0.666,2.032
						c0.948,2.699,2.088,5.36,3.41,8.082c1.1,2.197,2.689,4.114,4.65,5.8c1.922,1.659,3.99,3.041,6.079,4.486
						c2.274,1.548,4.766,3.038,7.902,3.936c0.798,0.205,1.578,0.43,2.476,0.508l1.317,0.137c0.449,0.025,0.932-0.006,1.398-0.021
						c0.474-0.029,0.938-0.036,1.419-0.112c0.487-0.092,0.975-0.197,1.46-0.314c0.974-0.188,1.918-0.646,2.846-1.078
						c0.505-0.219,0.951-0.521,1.4-0.822c0.45-0.301,0.896-0.608,1.335-0.924c0.807-0.664,1.537-1.391,2.274-2.12
						c0.613-0.758,1.237-1.526,1.801-2.329c0.488-0.833,1.013-1.683,1.419-2.554c1.621-3.528,2.068-7.18,1.811-10.41
						c-0.263-3.207-1.021-6.098-1.936-8.811c-0.92-2.713-2.022-5.245-3.157-7.73c-0.686-1.443-1.331-2.872-2.112-4.282
						c-0.768-1.408-1.489-2.865-2.325-4.202c-4.073-6.989-9.502-12.47-14.21-17.965c-2.229-2.501-3.676-5.075-5.343-7.601
						c-0.801-1.293-1.558-2.677-2.408-3.963c-0.422-0.65-0.859-1.291-1.318-1.919c-0.458-0.637-0.924-1.309-1.425-1.941
						c-1.062-1.361-2.243-2.956-3.696-4.387c-1.456-1.44-3.157-2.633-5.214-3.047c-1-0.201-2.206,0.327-3.164,0.955
						c1.575-1.027,0.408,4.35,0.406,4.681c-0.007,2.024,0.605,3.846,0.976,5.766c0.354,1.857,0.551,3.714,0.907,5.528
						c0.403,1.811,0.944,3.592,1.883,5.282c0.928,1.783,2.189,3.462,3.377,5.14c0.606,0.836,1.224,1.664,1.85,2.485
						c0.621,0.782,1.241,1.5,1.871,2.245c2.491,2.935,5.061,5.703,7.346,8.516c1.003,1.196,1.907,2.389,2.862,3.577
						c0.855,1.205,1.829,2.38,2.592,3.604l1.209,1.823l1.066,1.862c0.731,1.215,1.357,2.564,1.945,3.877
						C214.709,292.105,215.591,295.547,215.958,298.501z"/>
				</g>
			</g>
		</g>
	</g>
	<g>
		<g>
			<g>
				<path fill="#FFFFFF" d="M287.814,307.935l0.036,0.095C287.843,307.984,287.858,307.949,287.814,307.935z"/>
				<path fill="#FFFFFF" d="M289.415,289.481l0.138,0.085C289.514,289.516,289.463,289.493,289.415,289.481z"/>
				<path fill="#FFFFFF" d="M277.874,280.096l0.038-0.147C277.88,280.013,277.871,280.059,277.874,280.096z"/>
				<g>
					<path fill="#FFFFFF" d="M274.005,289.934c-0.305,1.17-0.593,2.342-0.706,3.571c-0.141,1.219-0.279,2.431-0.321,3.655
						c0.02,1.243,0.077,2.481,0.172,3.707l0.077,0.916c0.047,0.308,0.111,0.617,0.17,0.924c0.12,0.613,0.25,1.223,0.389,1.826
						c0.511,2.461,1.397,4.918,2.641,7.47c0.328,0.649,0.631,1.214,1.122,2.088c0.45,0.759,0.937,1.479,1.467,2.152
						c1.063,1.343,2.305,2.495,3.716,3.391c0.459,0.307,0.955,0.549,1.438,0.802c2.975,1.385,6.461,1.213,9.47-0.041
						c0.382-0.145,0.748-0.331,1.116-0.505c0.361-0.174,0.753-0.4,1.019-0.552c0.575-0.342,1.115-0.705,1.628-1.084
						c1.021-0.757,1.927-1.585,2.718-2.436c1.78-1.847,3.43-3.684,4.975-5.57c1.555-1.878,3.037-3.791,4.397-5.801
						c2.668-3.892,3.675-8.485,6.007-12.325c0.633-1.03,1.321-2.017,1.964-3.034c0.317-0.503,0.705-3.528,0.56-4.207
						c-0.063-0.31-1.612,0.876-2.03,1.21c-1.374,1.102-3.323,2.841-4.144,3.807c-1.654,1.961-2.431,2.852-3.763,4.982
						c-2.776,4.337-5.73,8.479-9.864,11.161c-1.674,1.047-3.08,2.285-4.546,3.445c-0.709,0.565-1.409,1.056-2.094,1.433
						c-0.167,0.094-0.351,0.188-0.497,0.248c-0.095,0.04-0.193,0.077-0.296,0.104c-0.202,0.059-0.409,0.086-0.61,0.081
						c-0.65-0.018-1.227-0.327-1.558-0.779c-0.289-0.383-0.4-0.817-0.451-1.171c-0.03-0.19-0.027-0.32-0.059-0.497l-0.358-1.346
						c-0.209-0.829-0.346-1.779-0.34-2.801l0.078-3.042c0.151-1.026,0.291-2.042,0.391-3.057c0.15-1.019,0.38-2.043,0.479-3.076
						c0.607-4.072,1.64-8.276,3.494-12.201c0.563-1.133,1.092-2.283,1.787-3.35l0.993-1.62c0.319-0.54,0.764-1.063,1.143-1.591
						c0.998-1.33,1.955-2.681,2.89-4.047l3.118-4.038c0.995-1.36,2.135-2.704,3.249-4.047c1.127-1.346,2.211-2.67,3.428-4.011
						c4.383-4.953,9.369-8.268,13.462-12.985c1.104-1.219,2.435-2.618,3.516-4.212c1.124-1.547,1.979-3.316,2.076-5.385
						c0.047-1.006-0.621-2.145-1.352-3.027c1.213,1.437-4.16,0.92-4.512,0.984c-0.996,0.137-1.939,0.41-2.844,0.753
						c-0.893,0.355-1.77,0.754-2.681,1.093c-3.563,1.269-7.119,2.198-10.072,4.604c-1.491,1.304-2.932,2.66-4.335,4.051
						c-1.373,1.376-2.629,2.749-3.908,4.16c-1.263,1.383-2.524,2.883-3.777,4.372c-1.252,1.494-2.514,2.952-3.735,4.57l-3.118,4.05
						c-1.001,1.407-1.944,2.9-2.915,4.348l-1.446,2.186c-0.476,0.739-0.903,1.559-1.357,2.334c-0.438,0.791-0.924,1.555-1.323,2.368
						l-1.222,2.43c-0.24,0.487-0.506,0.963-0.734,1.461c-0.225,0.502-0.45,1.007-0.676,1.512c-0.441,1.018-0.948,2.014-1.352,3.069
						c-0.394,1.063-0.788,2.131-1.184,3.2C274.548,287.671,274.319,288.823,274.005,289.934z"/>
				</g>
			</g>
		</g>
	</g>
	<g>
		<g>
			<g>
				<path fill="#FFFFFF" d="M244.662,323.012l-0.054,0.005C244.632,323.021,244.647,323.04,244.662,323.012z"/>
				<path fill="#FFFFFF" d="M252.521,323.074l-0.01,0.118C252.524,323.152,252.524,323.111,252.521,323.074z"/>
				<path fill="#FFFFFF" d="M253.468,312.419l0.041-0.02C253.488,312.397,253.477,312.405,253.468,312.419z"/>
				<g>
					<path fill="#FFFFFF" d="M250.548,312.076c-1.305-0.047-2.592,0.285-3.9,0.856c-1.342,0.599-2.717,1.601-4.109,1.609
						c-1.494,0.018-2.873-0.118-4.466,0.18c-1.601,0.275-3.201,0.15-4.941,0.14c-0.867,0.041-1.695,0.301-2.544,0.685
						c-0.417,0.168-0.828,0.334-1.259,0.539c-0.426,0.198-0.866,0.3-1.334,0.447c-0.5,0.158-1.045,0.268-1.58,0.443
						c-0.271,0.125-0.883,1.491-0.82,1.847c0.025,0.157,1.044,0.209,1.29,0.249c0.433,0.055,0.89,0.07,1.338,0.184
						c0.445,0.103,0.815,0.197,1.034,0.217c0.429,0.019,0.775,0.146,1.066,0.175c0.304,0.053,0.551,0.018,0.945,0.042
						c1.527-0.036,3.116,0.151,4.684,1.194c0.615,0.403,1.295,0.535,1.968,0.593c0.691,0.061,1.474,0.068,2.184,0.297
						c1.56,0.493,3.128,1.31,4.751,1.264c1.716-0.02,3.437,0.642,5.173,0.471c1.707-0.129,3.392-0.443,5.094-0.604
						c0.993-0.083,1.992-0.098,2.995-0.117c1.266-0.047,2.52-0.217,3.768-0.408c1.249-0.187,2.479-0.507,3.731-0.688
						c0.564-0.089,1.14-0.108,1.719-0.111l1.736-0.037c1.159-0.037,2.328-0.091,3.4-0.589c1.127-0.537,2.728-1.082,3.021-3.509
						c0.07-0.59-0.154-1.537-0.415-2.356c0.418,1.347-1.685-1.097-1.799-1.207c-0.768-0.642-1.444-0.822-2.143-1.211
						c-1.35-0.73-2.645-1.932-3.816-1.994c-2.443-0.081-4.704,0.458-7.044,0.839c-0.999,0.128-1.992,0.296-2.988,0.453
						c-0.994,0.168-2.009,0.222-3.018,0.272c-0.605,0.021-1.223-0.003-1.844-0.029C251.802,312.159,251.173,312.095,250.548,312.076
						z"/>
				</g>
			</g>
		</g>
	</g>
	<g>
		<g>
			<g>
				<path fill="#FFFFFF" d="M312.344,127.844l0.451-0.162C312.592,127.745,312.447,127.769,312.344,127.844z"/>
				<path fill="#FFFFFF" d="M344.584,165.267l-0.139,0.152C344.571,165.371,344.595,165.317,344.584,165.267z"/>
				<path fill="#FFFFFF" d="M358.694,151.45l0.372-0.025C358.889,151.422,358.777,151.432,358.694,151.45z"/>
				<g>
					<path fill="#FFFFFF" d="M332.926,149.558c-1.406-0.159-2.771-0.405-4.143-0.625c-1.386-0.192-2.718-0.496-4.066-0.757
						c-2.689-0.504-5.335-1.201-7.863-1.962c-1.261-0.384-2.477-0.802-3.615-1.244c-0.574-0.219-1.111-0.451-1.635-0.681
						l-0.188-0.088l-0.091-0.042l-0.006,0.004c-0.01,0.005-0.014,0.013-0.031,0.013l-0.095,0.005c-0.241,0.007-0.754-0.1-0.966-0.54
						c-0.019-0.036-0.03-0.071-0.039-0.107c-0.065-0.223-0.021-0.457,0.093-0.693c0.057-0.119,0.134-0.237,0.227-0.36l0.153-0.184
						c0.074-0.074,0.057-0.095,0.367-0.274c2.136-1.28,4.721-2.411,7.466-3.518c2.822-1.138,5.65-2.279,8.488-3.423
						c2.799-1.097,5.688-2.202,8.579-3.221c3.134-1.106,6.278-2.326,9.411-3.473c3.111-1.288,6.257-2.534,9.317-3.917
						c6.09-2.823,12.081-5.85,17.805-9.377c11.535-7.033,22.509-14.209,33.046-22.786c2.517-2.086,4.909-4.352,7.278-6.573
						l6.784-6.762c4.536-4.553,9.049-9.187,13.593-13.928c2.413-2.55,4.803-5.141,7.015-7.967c0.266-0.353,0.735-1.109,1.296-2.067
						c0.546-0.972,1.142-2.184,1.721-3.389c0.517-1.255,1.073-2.468,1.412-3.548c0.35-1.072,0.603-1.928,0.693-2.362
						c0.082-0.395-0.645,0.505-1.484,1.623c-0.812,1.139-1.919,2.381-2.34,2.951c-2.93,3.69-8.012,8.474-10.596,10.896
						c-2.593,2.489-4.58,4.213-6.562,5.973c-1.979,1.765-3.975,3.543-6.718,5.988c-2.863,2.526-5.709,5.035-8.543,7.535
						c-1.424,1.261-2.854,2.407-4.279,3.608c-1.435,1.177-2.82,2.4-4.337,3.473l-4.472,3.29c-1.481,1.103-3.079,2.058-4.619,3.08
						c-1.571,0.982-3.079,2.045-4.717,2.931c-1.618,0.903-3.238,1.808-4.861,2.714c-10.578,5.622-21.306,12.252-32.631,16.565
						c-6.106,2.268-12.331,4.208-18.736,6.054c-3.177,0.932-6.393,1.886-9.627,2.882l-4.71,1.468c-1.588,0.487-3.286,1.021-5,1.643
						c-1.186,0.429-2.391,0.885-3.623,1.413c-0.622,0.251-1.209,0.533-1.896,0.851c-0.417,0.185-0.882,0.453-1.341,0.705
						l-1.376,0.757c-3.555,2.166-6.473,5.107-7.393,8.878c-0.191,0.965-0.355,1.974-0.328,2.977c0.06,0.999,0.158,2.004,0.464,2.959
						c0.553,1.923,1.598,3.694,3.001,5.268c1.4,1.577,3.157,2.956,5.072,4.12c0.232,0.152,0.483,0.296,0.729,0.438l0.62,0.351
						l0.974,0.523c0.646,0.335,1.29,0.65,1.93,0.943c2.562,1.173,5.085,2.083,7.616,2.861c2.524,0.787,5.089,1.394,7.65,1.881
						c7.487,1.484,14.93,1.978,22.184,2.17c3.642,0.115,7.222,0.117,10.783,0.142c1.786,0.009,3.663-0.06,5.49-0.082
						c1.837-0.06,3.683,0.001,5.514-0.155l6.421-0.388c2.139-0.147,4.262-0.426,6.394-0.629l3.195-0.331l3.173-0.466
						c2.118-0.328,4.225-0.574,6.356-0.963c10.826-1.897,21.348-5.265,31.295-9.591c4.94-2.222,9.823-4.553,14.524-7.13l1.771-0.953
						c0.593-0.32,1.166-0.61,1.824-1.031c1.27-0.789,2.56-1.549,3.802-2.378l3.588-2.7c1.134-0.975,2.23-1.998,3.341-3.002
						c3.865-3.795,7.204-8.076,9.885-12.761c2.707-4.672,4.654-9.801,5.754-15.152c1.108-5.347,1.363-10.936,0.614-16.469
						c-0.244-1.373-0.504-2.748-0.777-4.121c-0.327-1.36-0.777-2.693-1.184-4.038c-0.366-1.36-1.018-2.617-1.554-3.918l-0.856-1.916
						l-0.799-1.561c-2.273-4.413-4.733-9.436-6.842-14.172c-0.496-1.184-1.012-2.354-1.514-3.499
						c-0.429-1.142-0.963-2.262-1.388-3.345c-0.208-0.542-0.425-1.075-0.649-1.599c-0.22-0.508-0.484-1.106-0.644-1.391
						c-0.378-0.824-0.745-2.07-1.271-3.326c-0.234-0.58-0.595-1.224-0.921-1.633c-0.401-0.526-0.796-0.91-1.175-1.075
						c-0.774-0.3-1.411-0.186-1.925,0.065c0.211-0.104,0.438,0.017,0.678,0.322c0.128,0.136,0.218,0.386,0.31,0.664
						c0.099,0.288,0.169,0.602,0.188,0.904c0.146,1.275-0.129,2.731-0.399,4.134c-0.441,2.767-0.757,5.985-0.72,6.377
						c0.08,5.049,1.604,10.413,3.031,15.456c1.325,4.859,2.969,9.696,3.571,13.603c0.702,4.126,0.696,8.264,0.374,12.624
						c-0.694,9.164-4.729,17.96-11.094,24.49c-1.593,1.626-3.307,3.143-5.167,4.466c-0.876,0.736-1.897,1.267-2.859,1.881
						l-0.729,0.453c-0.235,0.151-0.479,0.304-0.789,0.461l-1.751,0.937c-4.646,2.569-9.404,4.806-14.202,6.956
						c-8.194,3.523-16.599,6.334-25.209,8.185l-3.23,0.683c-1.089,0.209-2.211,0.364-3.315,0.548l-3.325,0.532l-1.662,0.266
						l-1.671,0.188l-6.683,0.723l-6.698,0.388c-2.67,0.122-5.363,0.042-8.07,0.061c-2.734-0.028-5.625-0.154-8.402-0.271
						C343.789,150.689,338.268,150.285,332.926,149.558z"/>
				</g>
			</g>
		</g>
	</g>
</g>
</svg>
