<?xml version="1.0" encoding="utf-8"?>
<!-- Generator: Adobe Illustrator 16.0.0, SVG Export Plug-In . SVG Version: 6.00 Build 0)  -->
<!DOCTYPE svg PUBLIC "-//W3C//DTD SVG 1.1//EN" "http://www.w3.org/Graphics/SVG/1.1/DTD/svg11.dtd">
<svg version="1.1" id="Layer_1" xmlns="http://www.w3.org/2000/svg" xmlns:xlink="http://www.w3.org/1999/xlink" x="0px" y="0px"
	 width="500px" height="500px" viewBox="0 0 500 500" enable-background="new 0 0 500 500" xml:space="preserve">
<g>
	<g>
		<g>
			<g>
				<path fill="#231F20" d="M299.916,405.031l1.035,0.512C300.49,405.305,300.197,405.131,299.916,405.031z"/>
				<path fill="#231F20" d="M188.54,328.439l0.058,0.349C188.633,328.488,188.595,328.424,188.54,328.439z"/>
				<path fill="#231F20" d="M185.189,291.69l0.276-0.928C185.318,291.202,185.24,291.479,185.189,291.69z"/>
				<g>
					<path fill="#231F20" d="M174.542,362.563c2.182,1.983,4.5,3.338,6.746,4.367l5.039,2.378l10.039,4.7
						c6.716,3.104,13.428,6.207,20.131,9.307c6.758,3.106,13.508,6.209,20.244,9.306c3.394,1.526,6.704,3.078,10.165,4.561
						c3.494,1.472,6.986,2.952,10.468,4.262c14.363,5.549,28.501,10.228,41.68,16.671l4.82,2.566
						c0.796,0.432,1.627,0.849,2.397,1.295l2.339,1.405c3.184,1.965,6.464,4.038,9.814,6.028c3.351,2,6.801,3.931,10.386,5.718
						c3.591,1.78,7.313,3.437,11.342,4.699c4.239,1.328,8.878,2.302,13.977,1.769c2.536-0.269,5.176-1.091,7.544-2.432
						c0.576-0.363,1.195-0.674,1.721-1.102l1.579-1.282c0.493-0.454,0.927-0.953,1.385-1.437c0.22-0.246,0.462-0.483,0.658-0.74
						l0.567-0.781c1.592-2.076,2.56-4.322,3.441-6.535l1.978-5.854c1.285-3.887,2.657-7.773,3.809-11.656
						c2.407-7.796,4.748-15.481,7.246-23.102c1.317-3.773,2.636-7.549,3.954-11.327c1.376-3.845,2.753-7.691,4.131-11.542
						c10.748-31.091,19.708-61.53,32.295-91.507c12.166-29.081,23.568-58.485,33.419-88.664c0.65-2.016,1.366-4.013,1.973-6.033
						l1.806-6.062c1.204-4.042,2.408-8.081,3.616-12.132c0.575-1.991,1.931-8.065,3.243-14.151c0.171-0.931,0.342-1.862,0.505-2.753
						c0.041-0.231,0.083-0.459,0.123-0.685l0.062-0.341c0.006-0.027,0.008-0.059,0.018-0.083l0.088-0.006l0.177-0.013
						c0.475-0.036,0.934-0.07,1.369-0.103c1.766-0.137,3.27-0.266,4.025-0.367c0.688-0.092-1.208-0.373-3.98-0.663
						c-0.705-0.07-1.446-0.143-2.184-0.216l-0.566-0.053c-0.103,0.085-0.123,0.27-0.188,0.4c-0.11,0.292-0.218,0.578-0.323,0.856
						c-0.435,1.192-0.815,2.24-1.047,2.875c-3.535,10.532-8.954,26.675-11.748,34.996c-1.498,4.185-2.747,7.821-3.979,11.158
						c-1.259,3.326-2.415,6.382-3.576,9.45c-1.151,3.07-2.406,6.121-3.699,9.491c-1.279,3.375-2.771,7.012-4.461,11.236
						c-7.009,17.443-14.457,34.464-21.8,51.519c-7.372,17.15-13.718,34.622-20.272,52.067
						c-5.294,14.114-10.242,28.673-15.715,43.021l-2.022,5.421l-2.007,5.547c-1.327,3.699-2.729,7.386-3.869,11.1
						c-1.2,3.696-2.398,7.386-3.592,11.063c-1.179,3.642-2.34,7.288-3.561,10.873l-4.125,11.513
						c-0.172,0.453-0.346,1.018-0.516,1.379l-0.498,1.116l-0.245,0.558l-0.295,0.492l-0.568,0.992
						c-0.851,1.178-1.763,2.143-2.773,2.833c-1.041,0.637-2.202,1.051-3.55,1.265c-1.33,0.236-2.892,0.161-4.502-0.058
						c-3.244-0.437-6.75-1.679-10.187-3.191c-6.926-3.112-13.645-7.424-20.421-11.974c-1.71-1.143-3.413-2.301-5.244-3.487
						c-0.945-0.62-1.883-1.17-2.819-1.705l-2.816-1.63l-2.822-1.624c-0.951-0.507-1.914-0.979-2.871-1.469
						c-1.922-0.954-3.833-1.974-5.771-2.862c-8.243-3.873-16.531-7.207-24.667-10.607c-4.083-1.675-8.084-3.394-12.068-5.12
						c-3.942-1.793-7.802-3.522-11.777-5.524c-7.904-3.874-15.808-7.749-23.714-11.625c-7.911-3.858-15.995-7.648-24.026-11.411
						l-11.906-5.546l-1.16-0.552c-0.339-0.159-0.618-0.345-0.932-0.507c-0.537-0.361-1.075-0.707-1.417-1.066
						c-0.38-0.351-0.655-0.679-0.83-0.996c-0.205-0.312-0.32-0.611-0.4-0.977c-0.191-0.691-0.152-1.767,0.196-3.09l0.058-0.245
						l0.109-0.376l0.23-0.782l0.461-1.565l0.922-3.129l3.688-12.519c2.46-8.345,4.885-16.716,7.549-24.938
						c2.628-8.252,5.257-16.508,7.888-24.768c6.597-19.046,13.962-37.871,21.834-56.523l7.564-17.652l3.779-8.941l1.88-4.493
						l1.802-4.521c4.818-12.049,9.249-24.228,13.438-36.438c4.193-12.208,8.144-24.454,12.194-36.572
						c4.06-12.109,8.221-24.107,13.102-35.617c1.061-2.632,2.287-5.141,3.448-7.691c0.567-1.285,1.217-2.507,1.847-3.743
						l1.896-3.699c0.558-1.019,1.076-1.825,1.596-2.455c0.127-0.131,0.249-0.258,0.365-0.394c0.112-0.119,0.181-0.142,0.259-0.232
						c0.113-0.109,0.16-0.113,0.25-0.161c0.161-0.068,0.341-0.081,0.504-0.045c0.095,0.029,0.131,0.023,0.262,0.109
						c0.035,0.021,0.071,0.037,0.108,0.05c0.029,0.004,0.079,0.023,0.163,0.08l0.448,0.251l6.854,4.665l1.829,1.248l1.867,1.179
						l3.733,2.357c2.471,1.608,5.021,3.057,7.551,4.547l3.806,2.217l3.854,2.108c20.572,11.259,42.094,20.271,63.963,28.535
						c11.529,4.334,25.089,9.432,38.188,14.356c1.627,0.611,3.247,1.22,4.854,1.825c1.659,0.608,3.306,1.211,4.935,1.808
						c3.418,1.207,6.646,2.138,9.653,3.043c6.026,1.772,11.104,3.491,15.229,5.586c0.989,0.519,1.856,0.908,2.569,1.239
						c0.364,0.157,0.708,0.283,1.024,0.387c0.303,0.117,0.584,0.206,0.846,0.269c1.046,0.253,1.762,0.102,2.184-0.284
						c-0.175,0.157-0.569-0.031-1.121-0.478c-0.281-0.22-0.583-0.524-0.952-0.851c-0.375-0.321-0.787-0.697-1.23-1.118
						c-1.807-1.642-4.377-3.771-7.301-5.663c-2.906-1.903-6.071-3.64-8.584-4.979c-2.518-1.336-4.365-2.302-4.81-2.518
						c-1.341-0.647-2.698-1.303-4.07-1.966c-1.36-0.683-2.735-1.373-4.121-2.068c-2.797-1.381-5.636-2.805-8.527-4.144
						c-5.769-2.724-11.652-5.379-17.376-8.024c-22.158-10.267-41.854-19.642-64.642-30.919
						c-11.931-5.928-23.521-12.321-34.484-19.526l-4.073-2.749l-2.037-1.371l-1.207-0.8c-0.524-0.331-1.002-0.666-1.608-0.971
						c-0.593-0.309-1.113-0.61-1.875-0.903c-0.704-0.293-1.424-0.562-2.234-0.761c-1.57-0.45-3.208-0.583-4.829-0.532
						c-3.247,0.186-6.382,1.539-8.885,3.623c-0.541,0.482-1.135,1.008-1.594,1.497c-0.427,0.478-0.899,0.974-1.268,1.456
						c-0.363,0.479-0.761,0.975-1.079,1.454c-0.314,0.478-0.64,0.963-0.934,1.442l-0.813,1.425l-0.615,1.198l-1.195,2.354
						c-1.647,3.127-3.055,6.314-4.516,9.49c-5.641,12.75-10.122,25.692-14.489,38.566c-4.337,12.882-8.48,25.731-12.884,38.475
						c-3.741,10.829-7.641,21.564-11.776,32.191l-3.143,7.95l-3.281,7.885l-6.716,15.956c-8.941,21.361-17.512,42.976-25.13,65.028
						c-2.146,6.602-4.311,13.26-6.489,19.96c-2.167,6.697-4.463,13.438-6.494,20.201c-2.088,6.765-4.185,13.558-6.286,20.362
						l-1.572,5.108l-0.393,1.277l-0.197,0.639l-0.115,0.4l-0.125,0.464c-0.34,1.221-0.608,2.527-0.744,3.919
						c-0.294,2.758-0.037,5.929,1.091,8.91C170.532,358.121,172.463,360.682,174.542,362.563z"/>
				</g>
			</g>
		</g>
	</g>
	<g>
		<g>
			<g>
				<path fill="#231F20" d="M340.2,374.295l0.05-0.135C340.221,374.218,340.188,374.25,340.2,374.295z"/>
				<path fill="#231F20" d="M328.955,375.202l0.091-0.087C328.99,375.133,328.967,375.167,328.955,375.202z"/>
				<path fill="#231F20" d="M320.069,382.718l-0.132-0.046C319.995,382.704,320.036,382.715,320.069,382.718z"/>
				<g>
					<path fill="#231F20" d="M328.506,387.199c0.963,0.473,1.935,0.926,2.916,1.359l0.436,0.188l0.729,0.298l1.453,0.588
						l2.885,1.142l1.424,0.552c0.116,0.027,0.241,0.129,0.35,0.096l0.31-0.244l0.616-0.489c0.812-0.661,1.643-1.282,2.404-1.97
						l2.219-2.069c0.347-0.375,0.672-0.78,0.983-1.183l0.23-0.306l0.153-0.221l0.301-0.441c1.568-2.494,2.356-5.11,2.932-7.411
						c0.557-2.329,1.065-4.383,1.84-6.485c1.615-4.411,3.377-8.72,4.718-13.232c1.349-4.54,3.102-8.774,5-13.122
						c1.81-4.195,2.695-8.734,4.752-12.821c0.553-1.09,1.164-2.146,1.737-3.226c0.282-0.531,0.81-3.562,0.75-4.218
						c-0.027-0.299-1.345,1.073-1.703,1.458c-1.169,1.264-2.84,3.25-3.552,4.335c-1.439,2.195-2.099,3.223-3.247,5.605
						c-2.36,4.93-4.601,9.74-7.485,14.402c-2.337,3.771-3.535,8.236-5.502,12.221l-3.28,6.445c-0.541,1.078-1.07,2.161-1.571,3.258
						c-0.239,0.526-0.465,1.047-0.686,1.575c-0.222,0.489-0.432,0.982-0.633,1.472c-0.442,0.979-0.926,1.878-1.485,2.602
						c-0.285,0.356-0.548,0.733-0.879,1.018c-0.105,0.099-0.097,0.068-0.148,0.105l-0.138,0.058
						c-0.088,0.038-0.173,0.063-0.254,0.076l-0.112,0.024c-0.035,0.002-0.075-0.056-0.11-0.077
						c-0.071-0.058-0.136-0.107-0.199-0.146c-0.031-0.02-0.063-0.037-0.096-0.052l-0.723-0.329
						c-4.615-2.065-9.295-3.967-13.876-6.11c-2.673-1.252-5.329-2.541-7.965-3.873c-1.665-0.84-3.343-1.652-5.026-2.448l-2.53-1.183
						c-0.849-0.392-1.704-0.781-2.461-1.154l-2.352-1.126c-0.784-0.372-1.572-0.734-2.34-1.188
						c-1.542-0.883-3.095-1.681-4.615-2.658c-5.524-3.393-10.206-8.076-16.332-11.447c-1.577-0.909-3.567-1.938-5.532-2.741
						c-1.995-0.782-4.157-1.184-6.02-0.91c-0.914,0.14-1.539,0.911-1.914,1.684c0.641-1.256,2.84,3.204,2.991,3.438
						c0.281,0.381,0.583,0.74,0.898,1.085c0.308,0.363,0.626,0.718,0.951,1.063c0.649,0.692,1.321,1.359,1.943,2.058
						c1.212,1.323,2.243,2.799,3.361,4.136c1.109,1.336,2.298,2.658,3.764,3.817c6.144,4.843,12.968,9.227,20.637,12.783
						c0.821,0.406,1.576,0.755,2.325,1.099l2.269,1.041l4.539,2.071c3.026,1.383,6.049,2.774,9.047,4.222
						C321.185,383.425,324.814,385.386,328.506,387.199z"/>
				</g>
			</g>
		</g>
	</g>
	<g>
		<g>
			<g>
				<path fill="#231F20" d="M70.83,154.6l0.101-0.183C70.879,154.495,70.833,154.539,70.83,154.6z"/>
				<path fill="#231F20" d="M76.129,179.824l-0.119,0.036C76.064,179.868,76.102,179.849,76.129,179.824z"/>
				<path fill="#231F20" d="M87.473,177.532l0.091,0.103C87.53,177.579,87.5,177.55,87.473,177.532z"/>
				<g>
					<path fill="#231F20" d="M82.556,169.812c-2.032-2.905-3.487-5.486-4.002-7.306c-0.277-0.963-0.315-2.145,0.258-3.578
						c0.542-1.416,1.666-2.893,3.084-4.122c0.727-0.668,1.573-1.272,2.38-1.896l2.633-1.836c1.73-1.266,3.542-2.418,5.275-3.726
						c1.753-1.301,3.618-2.381,5.481-3.452c1.916-0.986,3.821-1.986,5.827-2.875c1.925-0.869,3.73-1.973,5.604-2.965
						c1.852-1.028,3.749-1.982,5.781-2.625c1.082-0.349,2.181-0.628,3.282-0.925c0.539-0.148,2.9-1.792,3.3-2.278
						c0.182-0.221-1.607-0.265-2.104-0.268c-1.622-0.005-4.083,0.103-5.278,0.352c-2.429,0.479-3.574,0.685-5.915,1.567
						c-4.869,1.755-9.466,3.805-14.472,5.396c-2.007,0.686-3.944,1.632-5.778,2.777c-0.925,0.559-1.851,1.118-2.773,1.675
						c-0.918,0.566-1.824,1.148-2.766,1.661c-2.011,1.099-4.157,2.208-6.241,3.725c-2.06,1.514-4.158,3.377-5.695,6.12
						c-0.832,1.421-1.456,3.116-1.866,4.865c-0.139,0.879-0.289,1.794-0.309,2.677c0.017,0.871-0.022,1.799,0.134,2.614
						c0.456,3.404,1.733,6.209,3.219,8.581l1.144,1.7l1.204,1.574l2.119,2.771c1.358,1.823,2.798,3.562,3.99,5.557l2.132,3.429
						c0.71,1.141,1.395,2.3,2.021,3.51c1.607,3.031,3.385,5.939,5.009,8.979l2.495,4.512c0.823,1.51,1.594,3.056,2.372,4.594
						c0.699,1.395,1.333,2.809,1.941,4.23c0.573,1.441,1.145,2.879,1.716,4.316c1.156,2.866,2.325,5.731,3.835,8.498
						c1.624,2.914,3.566,6.989,6.791,8.599c0.782,0.392,1.757,0.179,2.539-0.176c-1.283,0.583-0.161-3.987-0.151-4.291
						c0.07-1.819-0.339-3.604-0.562-5.393c-0.435-3.462-0.356-6.795-1.637-10.118c-1.326-3.485-2.826-6.874-4.506-10.191
						c-0.832-1.662-1.663-3.321-2.537-4.967c-0.894-1.64-1.788-3.282-2.685-4.927c-1.477-2.815-3.16-5.552-4.784-8.309
						c-1.576-2.773-3.406-5.461-5.08-8.219c-0.969-1.66-2.1-3.314-3.203-4.999c-0.555-0.842-1.112-1.687-1.67-2.534L82.556,169.812z
						"/>
				</g>
			</g>
		</g>
	</g>
	<g>
		<g>
			<g>
				<path fill="#231F20" d="M322.054,108.477l0.131,0.051C322.128,108.499,322.098,108.465,322.054,108.477z"/>
				<path fill="#231F20" d="M299.65,115.77l-0.089-0.089C299.581,115.735,299.615,115.759,299.65,115.77z"/>
				<path fill="#231F20" d="M307.994,123.536l-0.022,0.103C307.993,123.593,307.997,123.562,307.994,123.536z"/>
				<g>
					<path fill="#231F20" d="M311.02,117.95c0.3-0.345,0.547-0.662,0.694-0.772c0.075-0.114,0.133-0.1,0.172-0.193
						c0.064-0.006,0.066-0.116,0.148-0.134c0.193-0.209,1.011-0.517,2.3-0.497c0.659,0.02,1.377,0.045,2.149,0.164
						c0.36,0.025,0.816,0.136,1.253,0.232l1.313,0.3c1.746,0.433,3.511,0.848,5.156,1.651c3.515,1.584,6.885,3.459,10.514,4.975
						c3.646,1.545,6.978,3.489,10.443,5.478c1.69,0.94,3.49,1.661,5.271,2.406c1.82,0.695,3.615,1.416,5.286,2.423l2.704,1.595
						c0.452,0.259,3.075,0.66,3.641,0.57c0.257-0.041-0.866-1.28-1.175-1.613c-1.026-1.094-2.605-2.631-3.473-3.27
						c-1.722-1.391-2.518-2.024-4.413-3.123c-1.947-1.156-3.849-2.354-5.721-3.569c-1.86-1.262-3.669-2.597-5.403-4.107
						c-1.409-1.229-3.018-2.194-4.657-3.115c-1.66-0.911-3.359-1.772-4.921-2.819l-5.167-3.375
						c-1.744-1.108-3.621-2.059-5.529-2.903c-0.961-0.43-2.167-0.946-3.408-1.392c-0.644-0.211-1.247-0.452-1.964-0.615
						l-1.044-0.262c-0.367-0.071-0.756-0.125-1.135-0.183c-0.735-0.139-1.61-0.133-2.434-0.147
						c-0.884,0.073-1.761,0.132-2.676,0.402c-1.798,0.457-3.598,1.432-4.86,2.632c-1.263,1.167-2.213,2.44-2.915,3.642
						c-0.703,1.204-1.261,2.382-1.71,3.502c-0.247,0.568-0.435,1.118-0.611,1.663l-0.556,1.64l-0.564,1.636
						c-0.201,0.55-0.38,1.086-0.521,1.601l-1.124,3.646l-1.124,3.44c-0.459,1.485-0.987,2.755-1.466,4.085l-0.357,0.995
						c-0.118,0.333-0.224,0.647-0.39,1.063c-0.298,0.781-0.617,1.573-0.887,2.347c-1.109,3.113-1.979,6.145-2.964,8.994
						c-0.889,2.57-2.058,4.889-3.304,6.962c-1.251,2.08-2.543,3.887-3.791,5.654c-0.35,0.45-0.75,0.919-1.135,1.445
						c-0.428,0.475-0.87,0.966-1.258,1.535c-0.443,0.504-0.854,1.058-1.192,1.7c-0.366,0.607-0.702,1.246-0.915,2.015
						c-0.21,0.741,0.056,1.706,0.428,2.479c-0.301-0.638,0.526-0.66,1.534-0.557c0.518,0.065,1.059,0.133,1.488,0.188
						c0.426,0.035,0.753,0.063,0.822,0.057c0.825-0.091,1.698-0.253,2.479-0.589s1.599-0.685,2.391-1.066
						c3.082-1.438,6.105-3.212,8.102-6.222c2.067-3.153,3.438-6.489,4.565-9.682c1.127-3.201,2.021-6.303,3.075-9.174
						c0.837-2.144,2.015-5.404,2.875-8.168l1.196-4.146l1.176-3.863c0.227-0.802,0.542-1.433,0.823-2.153
						c0.291-0.698,0.585-1.401,0.879-2.107C309.739,119.881,310.444,118.71,311.02,117.95z"/>
				</g>
			</g>
		</g>
	</g>
	<g>
		<g>
			<g>
				<path fill="#231F20" d="M107.952,307.787l0.361,0.722C108.159,308.18,108.076,307.957,107.952,307.787z"/>
				<path fill="#231F20" d="M57.564,203.704l0.24,0.139C57.664,203.673,57.599,203.663,57.564,203.704z"/>
				<path fill="#231F20" d="M34.062,188.138l-0.33-0.595C33.876,187.834,33.978,188.01,34.062,188.138z"/>
				<g>
					<path fill="#231F20" d="M53.923,230.789l6.646,14.551c2.353,4.867,4.652,9.784,7.118,14.559
						c4.901,9.575,10.05,18.943,15.241,28.128c5.371,9.478,10.698,18.835,15.788,28.36c1.29,2.375,2.458,4.791,3.687,7.197
						c1.196,2.415,2.457,4.816,3.583,7.269c1.104,2.463,2.209,4.931,3.317,7.403l1.635,3.729c0.547,1.278,1.094,2.557,1.642,3.838
						c9.084,21.834,19.573,42.586,29.676,63.474c2.091,4.337,4.169,8.654,6.04,13.023c0.954,2.18,1.906,4.355,2.856,6.529
						c0.939,2.179,1.753,4.396,2.629,6.593l2.571,6.608l0.21,0.547c0.088,0.243,0.197,0.438,0.271,0.602l0.384,0.811l0.768,1.62
						l1.533,3.244c1.208,2.566,2.418,5.136,3.63,7.709l2.261,4.808l1.134,2.413l0.568,1.21c0.192,0.391,0.361,0.898,0.622,0.94
						c1.181-0.955,2.327-1.919,3.556-2.882l1.846-1.447c0.617-0.489,1.235-0.978,1.864-1.394l1.885-1.31l0.945-0.657
						c0.135-0.101,0.375-0.242,0.522-0.335l0.315-0.188c0.848-0.493,1.669-1.017,2.541-1.489
						c9.523-5.323,19.877-9.588,30.289-14.078c2.639-1.144,5.179-2.275,7.751-3.353c2.58-1.083,5.185-2.131,7.811-3.169
						c5.249-2.077,10.567-4.11,15.889-6.303c5.682-2.328,11.33-4.864,16.741-8.067c1.327-0.784,5.178-3.463,8.624-6.636
						c0.869-0.78,1.686-1.623,2.487-2.399c0.198-0.195,0.395-0.39,0.588-0.581l0.287-0.285l0.196-0.181
						c0.265-0.219,0.467-0.516,0.746-0.681c1.004-0.846,2.08-1.141,2.581-1.374c0.23-0.107,0.008-0.141-0.521-0.139
						c-0.264,0.002-0.615-0.013-0.985,0.09c-0.379,0.077-0.828,0.143-1.25,0.341c-0.222,0.086-0.448,0.174-0.678,0.263l-0.644,0.378
						c-0.406,0.205-0.976,0.637-1.443,0.954c-0.958,0.671-1.8,1.261-2.31,1.619c-3.401,2.266-7.845,4.823-12.248,6.893
						c-4.398,2.083-8.692,3.795-11.632,4.914c-11.884,4.553-17.653,5.978-29.928,10.81c-7.89,3.158-15.874,6.045-23.712,9.442
						c-3.918,1.697-7.803,3.505-11.609,5.555c-0.959,0.491-1.892,1.055-2.836,1.591l-0.675,0.386
						c-0.091,0.046-0.274,0.164-0.405,0.242l-0.856,0.521c-1.129,0.693-2.179,1.43-3.15,2.184c-0.171,0.233-0.22-0.081-0.301-0.244
						l-0.23-0.546l-0.451-1.076l-0.867-2.094l-0.414-1.014l-0.213-0.521l-0.365-0.844l-1.456-3.38l-1.448-3.387l-0.721-1.696
						l-0.18-0.424c-0.045-0.115-0.077-0.184-0.081-0.227c-0.009-0.035-0.001-0.018-0.028-0.094l-0.075-0.221l-0.149-0.441
						c-0.789-2.357-1.579-4.718-2.369-7.081c-3.418-10.409-7.942-20.641-12.558-30.819c-2.366-5.044-4.735-10.096-7.096-15.129
						c-2.354-5.016-4.697-10.027-6.875-15.017c-4.835-10.795-9.178-21.683-13.341-32.605c-4.319-11.242-8.98-22.406-14.38-33.142
						c-11.313-22.994-22.79-45.392-33.229-68.165c-10.453-22.702-21.163-45.516-33.557-67.719l-5.572-9.649
						c-0.268-0.445-0.371-0.689-0.54-1.008l-0.478-0.908l-0.243-0.451l-0.167-0.458l-0.349-0.907
						c-0.435-1.208-0.661-2.405-0.769-3.594c-0.202-2.371,0.357-4.792,1.531-7.271c1.17-2.474,2.956-4.939,5.085-7.266
						c5.453-5.904,12.701-10.971,20.251-15.533c3.794-2.288,7.708-4.461,11.697-6.583l12.263-6.399l24.291-13.811
						c2.047-1.117,3.966-2.407,5.954-3.603l5.917-3.651l11.846-7.284c3.636-2.229,6.945-4.226,10.57-6.375
						c1.803-1.067,3.604-2.133,5.403-3.198c1.823-1.136,3.645-2.272,5.465-3.406c0.911-0.536,1.82-1.194,2.728-1.843l2.724-1.938
						c0.895-0.656,1.843-1.276,2.693-1.964c0.869-0.688,1.703-1.365,2.511-2.032c3.239-2.665,6.229-5.167,9.228-7.24
						c2.976-2.044,5.949-3.69,8.644-4.4c0.682-0.24,1.323-0.284,1.968-0.432c0.319-0.043,0.626-0.038,0.938-0.071l0.465-0.045
						c0.153,0,0.303,0.02,0.454,0.025c0.301,0.017,0.603,0.024,0.903,0.023c0.121,0.056,0.227,0.021,0.375,0.089
						c0.269,0.049,0.636,0.219,1.057,0.428c0.855,0.448,1.946,1.257,3.061,2.339c1.122,1.061,2.27,2.383,3.454,3.833
						c0.643,0.77,1.062,1.397,1.599,2.086c0.509,0.687,0.995,1.466,1.501,2.195c0.491,0.809,0.987,1.572,1.484,2.417
						c0.514,0.866,0.947,1.644,1.581,2.63c4.812,8.197,11.392,16.888,17.96,24.607c1.635,1.916,3.274,3.801,4.902,5.628
						c1.689,1.867,3.343,3.676,5.016,5.389c0.887,0.846,1.758,1.676,2.611,2.489c0.853,0.807,1.702,1.579,2.599,2.268
						c1.764,1.394,3.438,2.73,5.092,3.727c3.19,2.021,4.886,1.838,5.67,1.005c-0.323,0.341-1.293-0.43-2.579-1.793
						c-0.642-0.682-1.363-1.511-2.119-2.421c-0.74-0.933-1.486-1.985-2.236-3.031c-0.37-0.526-0.742-1.055-1.109-1.578
						c-0.358-0.529-0.675-1.084-1-1.609c-0.632-1.057-1.232-2.059-1.76-2.942c-1.019-1.785-1.694-3.139-1.887-3.437
						c-2.228-3.664-4.675-7.487-7.203-11.291c-2.453-3.83-5.072-7.629-7.238-11.51c-0.539-0.931-1.075-1.855-1.607-2.775
						l-0.787-1.377l-0.69-1.412c-0.91-1.868-1.811-3.72-2.708-5.563c-1.761-3.71-3.572-7.963-6.294-11.845
						c-1.245-1.845-2.643-3.746-4.326-5.609c-1.707-1.851-3.693-3.714-6.391-5.253c-1.356-0.751-2.859-1.445-4.59-1.859
						c-0.417-0.122-0.861-0.201-1.31-0.272c-0.424-0.064-0.949-0.166-1.284-0.172c-0.749-0.04-1.5-0.081-2.254-0.122
						c-3.007-0.004-6.041,0.476-8.833,1.399c-2.916,0.974-5.56,2.272-7.993,3.695c-2.424,1.434-4.611,3.003-6.7,4.587
						c-2.089,1.589-4.013,3.207-5.887,4.764l-2.739,2.275l-1.321,1.068l-1.355,0.97l-2.701,1.943l-1.346,0.977
						c-0.454,0.323-0.972,0.623-1.454,0.935c-1.981,1.236-3.879,2.487-5.918,3.72l-6.176,3.703l-6.34,3.857
						c-8.195,5.033-16.392,10.067-24.599,15.108c-8.336,4.722-16.684,9.449-25.051,14.188l-10.997,5.717
						c-3.728,1.968-7.462,4.015-11.162,6.197c-7.387,4.387-14.701,9.209-21.446,15.442c-3.353,3.133-6.583,6.642-9.271,10.943
						c-0.657,1.093-1.33,2.158-1.882,3.37c-0.285,0.593-0.582,1.173-0.848,1.78l-0.716,1.898c-0.514,1.235-0.78,2.644-1.132,3.976
						c-0.156,0.678-0.221,1.397-0.324,2.096c-0.076,0.707-0.221,1.4-0.204,2.122c-0.016,1.433-0.081,2.873,0.144,4.288
						c0.087,0.708,0.166,1.423,0.282,2.124l0.504,2.049c0.698,2.729,1.841,5.208,3.119,7.5l6.134,10.714
						C37.131,193.737,45.557,212.178,53.923,230.789z"/>
				</g>
			</g>
		</g>
	</g>
</g>
</svg>
