<?xml version="1.0" encoding="utf-8"?>
<!-- Generator: Adobe Illustrator 16.0.0, SVG Export Plug-In . SVG Version: 6.00 Build 0)  -->
<!DOCTYPE svg PUBLIC "-//W3C//DTD SVG 1.1//EN" "http://www.w3.org/Graphics/SVG/1.1/DTD/svg11.dtd">
<svg version="1.1" id="Layer_1" xmlns="http://www.w3.org/2000/svg" xmlns:xlink="http://www.w3.org/1999/xlink" x="0px" y="0px"
	 width="500px" height="500px" viewBox="0 0 500 500" enable-background="new 0 0 500 500" xml:space="preserve">
<g>
	<g>
		<g>
			<path fill="#231F20" d="M172.653,128.202l0.075-0.344C172.674,128.006,172.585,128.088,172.653,128.202z"/>
			<path fill="#231F20" d="M150.808,165.875l-0.199-0.351C150.638,165.676,150.719,165.787,150.808,165.875z"/>
			<path fill="#231F20" d="M163.521,200.591l-0.286,0.253C163.392,200.753,163.472,200.67,163.521,200.591z"/>
			<g>
				<path fill="#231F20" d="M184.609,184.082c1.102-1.073,1.998-2.339,2.969-3.534c0.95-1.213,1.881-2.442,2.79-3.684
					c0.473-0.608,0.87-1.268,1.266-1.927l1.18-1.98c0.775-1.325,1.528-2.661,2.256-4.004c0.361-0.616,0.729-1.483,1.083-2.269
					l1.032-2.405l0.494-1.206c0.168-0.408,0.25-0.742,0.378-1.117l0.677-2.194l0.637-2.196c0.218-0.741,0.326-1.406,0.486-2.113
					c0.292-1.395,0.563-2.79,0.81-4.183c1.7-11.287,1.191-22,3.319-32.304c2.235-10.89,4.615-21.577,5.206-32.732
					c0.127-2.819,0.354-5.584,0.596-8.396c0.133-1.454,0.266-2.905,0.398-4.355c0.15-1.483,0.154-2.846,0.258-4.271
					c0.397-5.695,0.704-11.137,1.018-16.738c0.108-2.687,0.011-5.374-0.175-8.054c-0.22-2.679-0.574-5.349-0.876-8.014
					c-0.28-2.663-0.66-5.332-0.849-8c-0.099-1.334-0.162-2.67-0.175-4.009c-0.038-1.345-0.045-2.699,0.023-4.057
					c0.073-1.451,0.205-2.903,0.346-4.359c0.141-1.456,0.196-2.968,0.264-4.459c0.014-0.368-0.158-1.087-0.441-1.976
					c-0.299-0.902-0.636-1.905-1.177-3.048c-1.015-2.224-2.181-4.33-2.797-4.95c-0.281-0.284-0.807,0.806-1.324,2.087
					c-0.516,1.286-1.026,2.755-1.236,3.382c-1.476,4.117-3.614,9.921-4.307,12.879c-1.265,5.958-2.002,8.71-2.331,14.71
					c-0.239,3.097-0.476,6.174-0.712,9.239c-0.312,3.058-0.645,6.097-1.043,9.122c-0.446,3.017-1.01,6.01-1.656,8.991
					c-0.701,2.944-1.592,5.792-2.589,8.63c-0.46,1.09-0.863,2.127-1.215,3.23c-0.384,1.165-0.714,2.339-1.004,3.522
					c-0.623,2.396-1.079,4.83-1.558,7.297c-0.913,4.923-1.784,9.916-3.385,14.645c-3.528,10.24-8.243,20.063-11.001,30.099
					c-1.493,5.304-3.646,10.361-5.9,14.744c-0.575,1.013-1.139,2.028-1.683,3.038c-0.561,0.776-1.013,1.516-1.554,2.348
					c-0.704,0.923-1.382,1.857-2.03,2.81c-0.324,0.476-0.64,0.957-0.948,1.444c-0.296,0.496-0.693,0.917-1.021,1.389
					c-0.675,0.91-1.337,1.832-1.989,2.765l-0.491,0.699l-0.558,0.648l-1.107,1.309c-0.752,0.863-1.423,1.797-2.228,2.628
					l-2.446,2.479c-0.411,0.413-0.804,0.842-1.229,1.246l-1.35,1.146l-2.706,2.302c-0.95,0.726-1.959,1.397-2.942,2.093
					c-1,0.679-1.949,1.412-3.05,1.987l-3.747,2.119c-1.272,0.68-2.632,1.26-3.944,1.888l-1.986,0.919l-2.077,0.805
					c-1.392,0.525-2.764,1.069-4.171,1.563c-14.327,4.804-29.706,9.103-45.943,11.481c-7.453,1.098-14.849,1.142-21.935,1.058
					c-7.118-0.071-13.868-0.375-20.57,0.112c-3.55,0.216-7.665,0.229-11.705,0.752c-4.052,0.522-8.136,1.754-12.019,4.592
					c-1.892,1.41-3.229,4.422-3.985,7.185c0.632-2.263,2.348-0.532,4.144,1.887c1.802,2.317,3.748,5.341,4.047,5.604
					c3.509,3.411,7.942,5.218,12.216,7.409c4.146,2.124,8.231,4.387,12.479,6.132c4.258,1.792,8.651,3.03,13.343,3.248
					c4.899,0.19,9.718,0.056,14.46-0.266c4.725-0.342,9.364-0.875,13.923-1.509c9.281-1.311,18.63-3.192,28.104-5.512
					c4.021-0.926,8.061-2.152,12.083-3.343l6.038-2.021c2.011-0.651,4.019-1.505,6.026-2.251l3.008-1.164l2.998-1.31l2.997-1.31
					l1.498-0.659l1.487-0.737l5.95-2.953l5.885-3.293c1.186-0.621,2.333-1.39,3.503-2.111c1.17-0.728,2.345-1.458,3.523-2.191
					c1.196-0.697,2.333-1.546,3.491-2.361c1.156-0.823,2.315-1.648,3.477-2.476c1.182-0.795,2.271-1.757,3.391-2.675l3.337-2.807
					c1.138-0.909,2.137-1.996,3.187-3.023L184.609,184.082z"/>
			</g>
		</g>
	</g>
</g>
<g>
	<g>
		<g>
			<path fill="#231F20" d="M374.325,187.786l0.224,0.147C374.461,187.85,374.438,187.751,374.325,187.786z"/>
			<path fill="#231F20" d="M347.735,153.474l0.386-0.12C347.963,153.346,347.838,153.403,347.735,153.474z"/>
			<path fill="#231F20" d="M311.569,160.66l-0.201-0.304C311.432,160.518,311.5,160.604,311.569,160.66z"/>
			<g>
				<path fill="#231F20" d="M321.601,181.328c2.552,4.29,5.615,8.44,9.071,12.352c3.467,3.909,7.496,7.575,11.967,10.779
					c4.617,3.3,9.735,6.109,14.953,8.523c5.226,2.423,10.506,4.44,15.589,6.552c10.81,4.475,21.419,7.113,31.842,7.819
					c10.5,0.667,20.147,2.505,30.048,4.57c4.749,0.988,9.674,1.195,14.449,1.539c4.792,0.354,9.803,1.012,15.151,2.225
					c2.861,0.649,5.862,1.39,9.074,1.686c0.777,0.097,3.167-0.546,5.423-1.534c1.127-0.508,2.225-1.078,3.095-1.631
					c0.87-0.568,1.526-1.071,1.82-1.407c0.267-0.306-0.86-0.74-2.141-1.166c-1.288-0.417-2.737-0.945-3.345-1.139
					c-2.025-0.727-4.398-1.687-6.5-2.701c-2.11-1.03-3.977-2.01-5.249-2.568c-5.126-2.244-7.313-3.514-12.775-5.125
					c-11.381-3.367-22.582-5.918-33.335-11.111c-4.333-2.098-8.911-3.142-13.4-4.12c-4.488-0.973-8.935-1.874-12.854-3.651
					c-4.243-1.923-8.022-4.283-11.372-6.718c-3.367-2.443-6.32-4.937-9.498-7.356c-3.394-2.576-6.236-6.048-8.901-9.849
					c-2.673-3.806-5.186-7.934-8.102-11.954c-2.885-3.947-5.78-8.097-8.596-12.373l-2.095-3.231l-1.629-2.709l-1.495-2.913
					c-0.464-1.023-0.909-2.07-1.354-3.11c-2-4.958-3.51-10.376-4.549-15.866c-1.277-6.947-2.475-13.932-3.095-20.766
					c-0.103-1.688-0.297-3.411-0.316-5.06c-0.023-0.829-0.071-1.671-0.08-2.491l0.029-2.426c-0.012-0.824,0.062-1.584,0.111-2.361
					l0.076-1.162l0.038-0.582l0.073-0.843l0.294-3.374l0.232-3.25c0.534-7.755,1.59-15.075,2.342-22.527
					c0.735-7.428,1.123-14.902,0.02-22.524c-0.313-2.028-0.567-4.208-1.016-6.502c-0.215-1.142-0.454-2.296-0.733-3.451
					c-0.304-1.172-0.646-2.342-1.041-3.491c-0.383-1.139-0.853-2.288-1.404-3.41c-0.549-1.12-1.141-2.177-1.848-3.211
					c-1.461-2.107-3.155-3.892-5.425-5.385c-2.166-1.407-5.427-1.131-8.21-0.458c2.268-0.568,1.565,2.015,0.092,4.561
					c-1.499,2.563-3.688,5.117-3.896,5.449c-1.125,2-1.865,3.99-2.562,6.001c-0.66,1.995-1.277,4.006-2.063,5.968
					c-3.082,7.615-7.64,14.292-8.567,21.991c-0.979,8.068-1.493,16.116-2.005,23.825c-0.152,1.876-0.268,3.819-0.445,5.538
					l-0.27,3.266c-0.087,1.292-0.218,2.618-0.249,3.882c-0.201,5.106-0.004,10.017,0.328,14.871
					c0.628,8.221,2.038,16.143,3.913,23.967c1.907,7.827,4.229,15.523,7.243,23.36c0.464,1.178,0.93,2.362,1.397,3.55
					c0.469,1.192,1.026,2.409,1.537,3.623c0.494,1.208,1.093,2.45,1.7,3.697l0.905,1.87l0.419,0.835l0.397,0.774
					C316.925,173.031,319.101,177.212,321.601,181.328z"/>
			</g>
		</g>
	</g>
</g>
<g>
	<g>
		<g>
			<path fill="#231F20" d="M118.909,331.617l-0.282-0.108C118.745,331.576,118.798,331.671,118.909,331.617z"/>
			<path fill="#231F20" d="M154.738,356.402l-0.325,0.234C154.554,356.588,154.658,356.497,154.738,356.402z"/>
			<path fill="#231F20" d="M188.072,341.111l0.277,0.293C188.246,341.242,188.156,341.16,188.072,341.111z"/>
			<g>
				<path fill="#231F20" d="M171.134,322.049c-4.041-3.283-8.144-5.955-12.307-8.247c-2.078-1.135-4.18-2.186-6.296-3.138
					c-1.065-0.486-2.124-0.935-3.195-1.373l-1.612-0.643l-1.828-0.703c-1.354-0.512-2.71-0.996-4.061-1.46
					c-0.682-0.25-1.342-0.438-1.996-0.604l-1.966-0.519c-1.306-0.331-2.612-0.693-3.896-0.984l-3.811-0.809
					c-2.524-0.595-4.996-1.039-7.423-1.639c-2.425-0.631-4.81-1.189-7.14-1.99c-9.858-3.271-19.554-6.447-29.801-7.699
					c-10.292-1.227-19.918-3.56-30.28-5.292c-2.521-0.373-5.06-0.546-7.636-0.554c-2.627,0.073-5.157,0.108-7.865,0.432
					l-3.896,0.369c-1.164,0.117-2.33,0.212-3.497,0.271c-2.334,0.118-4.676,0.093-7.015-0.193c-2.466-0.293-5.045-0.903-7.598-1.335
					c-1.26-0.216-7.606,1.906-8.839,2.904c-0.561,0.456,3.151,2.836,4.18,3.462c3.386,2.047,8.539,4.792,11.222,5.6
					c2.719,0.822,4.727,1.415,6.756,1.865c1.014,0.226,2.034,0.415,3.153,0.58c0.56,0.083,1.144,0.159,1.764,0.23
					c0.594,0.067,1.223,0.14,1.897,0.217c10.618,1.09,21.395,3.663,31.35,9.074c2.016,1.07,4.091,1.976,6.217,2.714
					c2.128,0.716,4.291,1.354,6.467,1.962l3.271,0.883l3.239,0.98c1.074,0.338,2.142,0.692,3.195,1.076
					c1.048,0.398,2.074,0.848,3.084,1.327c8.753,4.171,16.807,9.631,24.88,13.318l0.816,0.367l0.756,0.402l1.498,0.83
					c0.974,0.567,2.031,1.133,2.832,1.762l2.552,1.865l3.139,2.457c4.154,3.277,8.217,6.511,12.296,9.248
					c4.032,2.698,7.743,5.27,10.825,7.851c3.049,2.6,5.375,5.136,7.094,8.223c1.006,1.807,1.868,3.797,2.606,6
					c0.712,2.244,1.325,4.653,1.81,7.229c0.606,3.268,1.198,6.711,1.783,10.249c0.557,3.578,1.146,7.195,1.672,10.926
					c1.079,7.422,2.079,15.048,2.79,22.751c0.318,3.485,0.408,6.98,0.413,10.466c-0.011,3.468-0.042,7.018-0.164,10.394
					c-0.094,3.409-0.143,6.809-0.011,10.206c0.033,0.85,0.077,1.699,0.135,2.548c0.03,0.838,0.073,1.675,0.132,2.513
					c0.117,1.675,0.297,3.352,0.555,5.031c1.252,7.132,1.528,16.755,9.172,22.846c1.852,1.481,5.106,1.95,7.97,1.955
					c-2.349-0.008-1.119-2.04,0.754-4.184c1.873-2.14,4.388-4.406,4.61-4.713c1.35-1.847,2.306-3.796,3.152-5.777
					c0.406-0.992,0.814-1.991,1.222-2.987c0.393-0.998,0.746-1.996,1.169-2.987c1.615-3.839,3.531-7.545,5.117-11.335
					c0.396-0.947,0.772-1.899,1.117-2.859c0.327-0.951,0.609-1.903,0.858-2.868c0.495-1.929,0.828-3.896,0.92-5.926
					c0.427-8.589-0.07-16.722-0.758-24.975c-0.722-8.237-1.752-16.5-2.881-25.019c-0.982-7.256-2.176-14.596-4.066-22.423
					c-0.934-3.896-2.043-7.923-3.526-12.101c-1.466-4.16-3.298-8.472-5.619-12.698c-2.758-5.049-6.205-10.036-9.945-14.291
					C178.906,328.84,174.996,325.199,171.134,322.049z"/>
			</g>
		</g>
	</g>
</g>
<g>
	<g>
		<g>
			<path fill="#231F20" d="M349.019,388.692l-0.083,0.281C348.992,388.854,349.081,388.797,349.019,388.692z"/>
			<path fill="#231F20" d="M369.905,353.421l0.25,0.314C370.101,353.594,370.005,353.496,369.905,353.421z"/>
			<path fill="#231F20" d="M350.949,322.146l0.201-0.268C351.028,321.98,350.975,322.066,350.949,322.146z"/>
			<g>
				<path fill="#231F20" d="M335.067,338.18c-6.081,7.998-10.236,17.125-12.416,26.561c-0.59,2.423-0.96,4.896-1.381,7.329
					c-0.325,2.464-0.713,4.881-0.989,7.313c-0.151,1.212-0.32,2.412-0.496,3.607c-0.153,1.202-0.325,2.396-0.523,3.577
					c-0.21,1.179-0.399,2.362-0.631,3.533c-0.116,0.585-0.24,1.168-0.375,1.748l-0.207,0.861l-0.197,0.756
					c-2.191,8.554-5.674,16.666-8.083,25.821c-2.404,9.19-6.523,17.998-9.462,28.122c-1.312,4.925-1.624,10.142-1.352,15.254
					c0.063,1.278,0.078,2.552,0.152,3.815c0.116,1.264,0.214,2.521,0.277,3.778c0.052,2.527,0.312,4.986,0.202,7.517l-0.106,2.029
					l-0.031,2.006l-0.042,2.02l-0.014,1.014c-0.001,0.347-0.009,0.646,0.008,1.087c0.006,0.202,0.064,0.499,0.204,1.085
					c0.056,0.157,0.115,0.332,0.181,0.52c0.101,0.179,0.173,0.38,0.274,0.584c0.191,0.412,0.417,0.862,0.665,1.329
					c0.484,0.934,1.232,1.891,1.903,2.768c1.428,1.639,2.358,2.108,2.965,2.373c0.303,0.107,0.7-0.705,1.024-1.746
					c0.09-0.245,0.149-0.548,0.194-0.862c0.046-0.303,0.093-0.604,0.136-0.889c0.062-0.606,0.115-1.139,0.147-1.461
					c0.111-1.345,0.353-2.854,0.764-4.409c0.519-1.477,1.032-2.89,1.442-4.211c0.431-1.312,0.685-2.476,0.933-3.352
					c0.655-2.597,1.026-4.437,1.453-6.263c0.226-0.912,0.416-1.817,0.58-2.804c0.174-0.984,0.261-2.054,0.522-3.271
					c0.222-1.253,0.443-2.503,0.665-3.749c0.271-1.233,0.613-2.45,0.915-3.661c0.166-0.604,0.289-1.209,0.49-1.805l0.612-1.778
					c0.436-1.18,0.769-2.354,1.319-3.504c0.511-1.153,1.033-2.294,1.573-3.42c0.589-1.127,1.231-2.241,1.877-3.338
					c0.625-1.094,1.379-2.187,2.137-3.259c0.765-1.075,1.526-2.118,2.413-3.18c5.531-6.741,7.756-15.889,12.18-24.175l3.636-6.809
					l3.435-6.93c1.945-3.978,3.922-7.882,5.433-11.959c1.604-4.353,3.983-8.343,6.421-12.191c2.448-3.858,5.108-7.454,7.36-11.265
					c4.553-7.376,9.37-14.606,15.696-20.007c0.911-0.795,1.815-1.604,2.798-2.28c0.974-0.701,1.899-1.434,2.915-2.101
					c2.114-1.265,4.13-2.645,6.388-3.681c5.54-2.825,11.232-5.446,17.258-7.643c1.528-0.509,3.02-1.089,4.574-1.562
					c1.565-0.453,3.088-0.986,4.691-1.381c3.082-0.863,6.626-1.57,10.027-2.261c1.545-0.328,3.112-0.536,4.684-0.689
					c1.569-0.164,3.14-0.289,4.708-0.393c3.146-0.188,6.344-0.17,9.491-0.265c3.227-0.011,6.39-0.09,9.639-0.303
					c3.286-0.203,6.478-0.594,9.839-1.282c6.952-1.435,16.907-2.854,21.993-11.092c1.234-1.995,1.247-5.268,0.867-8.106
					c0.597,4.659-8.516-4.031-9.099-4.418c-3.755-2.325-7.661-3.105-11.471-4.569c-7.409-2.857-14.216-7.021-22.081-7.091
					c-4.087-0.08-8.23,0.171-12.353,0.528c-2.056,0.149-4.129,0.477-6.188,0.75c-2.059,0.308-4.124,0.573-6.169,0.981l-6.133,1.248
					c-1.027,0.22-2.028,0.421-3.075,0.665l-3.213,0.806c-4.284,1.086-8.569,2.43-12.848,3.891
					c-7.271,2.541-14.387,5.84-21.219,9.746l-5.078,3.038l-4.928,3.326c-1.655,1.056-3.245,2.373-4.865,3.572
					c-0.798,0.619-1.634,1.207-2.401,1.854l-2.307,1.939C348.047,323.686,340.916,330.517,335.067,338.18z"/>
			</g>
		</g>
	</g>
</g>
<g>
	<g>
		<g>
			<path fill="#231F20" d="M472.299,80.21l-0.231,0.579C472.192,80.534,472.328,80.38,472.299,80.21z"/>
			<path fill="#231F20" d="M486.065,17.596l0.36-0.209C486.248,17.408,486.141,17.497,486.065,17.596z"/>
			<path fill="#231F20" d="M438.792,68.292l-0.094,0.108C438.691,68.419,438.731,68.37,438.792,68.292z"/>
			<g>
				<path fill="#231F20" d="M436.531,71.418c-0.503,0.467,1.161-1.241,3.213-0.804c1.065,0.204,2.123,1.127,2.583,2.825
					c0.06,0.209,0.11,0.429,0.152,0.657c0.001,0.04,0.021,0.033,0.005,0.111l-0.045,0.222l-0.091,0.443l-0.187,0.885
					c-0.254,1.178-0.529,2.349-0.831,3.511c-0.601,2.322-1.325,4.609-2.223,6.836c-1.903,4.718-3.922,9.334-5.842,14.047
					c-0.958,2.352-1.889,4.714-2.762,7.105c-0.872,2.398-1.682,4.878-2.405,7.367l-0.561,1.872l-0.604,1.94
					c-0.429,1.391-0.87,2.766-1.323,4.129l-0.342,1.021c-0.112,0.337-0.178,0.616-0.27,0.927l-0.531,1.812
					c-0.361,1.205-0.738,2.404-1.127,3.598c-1.558,4.782-3.313,9.485-5.101,14.283c-1.726,4.644-2.669,9.534-3.717,14.381
					c-1.035,4.867-2.089,9.771-4.19,14.335c-1.156,2.416-2.384,4.864-3.517,7.35c-0.559,1.236-0.252,8.234,0.384,9.71
					c0.29,0.671,3.605-2.478,4.488-3.339c2.934-2.866,6.843-7.259,8.483-9.61c3.289-4.785,4.777-7.003,7.011-12.219
					c2.408-5.386,4.696-10.731,7.227-15.971c2.545-5.259,5.342-10.423,8.758-15.427c0.689-1.01,1.317-2.056,1.895-3.111
					c0.579-0.857,1.101-1.727,1.579-2.611c0.239-0.442,0.469-0.888,0.688-1.336l0.781-1.567c0.52-1.065,1.016-2.143,1.502-3.225
					c1.917-4.306,3.817-8.812,6.303-12.887c2.702-4.422,5.65-8.778,8.42-13.197c1.389-2.206,2.726-4.46,3.978-6.747l0.92-1.726
					l0.446-0.87l0.73-1.559c0.981-2.115,1.938-4.254,2.855-6.4c1.998-4.579,3.93-9.064,6.026-13.651
					c2.086-4.581,4.278-9.245,6.502-14.002l1.671-3.581c0.352-0.659,0.387-1.061,0.508-1.534l0.326-1.393
					c0.432-1.857,0.845-3.717,1.23-5.57c0.772-3.705,1.433-7.383,1.919-10.916l0.179-1.303c-0.074-0.247-0.203-0.415-0.303-0.625
					l-0.639-1.2l-1.271-2.393l-1.239-2.4l-0.602-1.207l-0.199-0.251c-0.107-0.116-0.169-0.201-0.313-0.343
					c-0.243-0.264-0.643-0.598-0.944-0.81c-1.231-0.841-2.151-1.164-3.135-1.535c-0.97-0.342-1.939-0.608-2.981-0.807
					c-2.094-0.364-4.319-0.661-6.964-0.614c-3.078,0.032-6.757,0.555-11.125,2.04c-4.392,1.522-9.27,3.791-14.236,6.205
					c-6.294,3.066-12.834,6.665-19.325,10.336l-9.733,5.611l-5.688,3.365c-6.856,4.087-13.697,8.279-20.391,11.831
					c-1.499,0.792-3.01,1.509-4.392,2.074c-0.675,0.273-1.36,0.534-1.854,0.672c-0.15,0.051-0.224,0.057-0.323,0.079l-0.141,0.03
					c-0.041,0.007-0.033-0.011-0.051-0.015l-0.017-0.009l-0.005-0.002l0.163,0.434l0.392,1.066l0.384,1.069
					c0.126,0.359,0.281,0.575,0.415,0.873c0.276,0.557,0.537,1.122,0.782,1.692c0.49,1.142,0.92,2.311,1.284,3.5
					c0.042,0.145,0.098,0.307,0.125,0.438l0.052,0.361l0.102,0.723l0.205,1.444l0.204,1.444l0.025,0.181
					c-1.248-6.132,2.811,13.854-2.794-13.726l-0.024,0.005l-0.1,0.02l-0.198,0.041l-0.793,0.168l-1.582,0.374l-0.786,0.205
					l-0.679,0.216l-1.354,0.453c-0.436,0.155-0.934,0.32-1.314,0.48l-1.165,0.489c-0.774,0.332-1.576,0.683-2.214,1.014
					c-2.833,1.382-4.975,2.74-7.052,4.097c-4.007,2.69-7.249,5.306-10.11,7.852c-2.854,2.542-5.358,5.086-7.447,7.5
					c-1.117,1.302-2.279,2.538-3.32,3.725c-1.04,1.198-1.904,2.205-2.26,3.048c-0.129,0.26-0.119,0.385-0.144,0.595
					c-0.058,0.24,0.047,0.35,0.121,0.542c0.111,0.198,0.066,0.41,0.053,0.663c-0.014,0.266-0.049,0.517-0.094,0.801
					c-0.178,1.124-0.628,2.479-1.323,3.877c-0.653,1.371-1.371,3.913-1.747,6.417c0.366-2.063,1.192,0.115,3.205,2.404
					c0.499,0.527,1.049,1.122,1.616,1.629c0.567,0.465,1.156,0.996,1.693,1.346c0.538,0.364,1.035,0.68,1.423,0.914
					c0.383,0.21,0.651,0.332,0.75,0.364c1.179,0.397,2.462,0.505,3.74,0.485c0.619-0.023,1.262-0.067,1.892-0.144
					c0.606-0.088,1.219-0.195,1.838-0.318c2.416-0.517,4.695-1.308,6.986-1.989c4.384-1.326,8.651-2.516,12.575-3.845
					c3.909-1.311,7.525-2.852,10.375-4.695c1.5-0.989,2.879-1.829,4.005-2.413c0.286-0.156,0.563-0.306,0.784-0.386
					c0.22-0.083,0.496-0.253,0.64-0.266c0.149-0.025,0.367-0.146,0.437-0.122c0.038,0.008,0.072,0.013,0.104,0.013l0.045-0.003
					l0.011-0.002c-0.032-0.074-0.082-0.214-0.117-0.272l-0.226-0.453c-0.293-0.608-0.559-1.236-0.796-1.882
					c-0.236-0.614-0.443-1.411-0.621-1.802c-0.178-0.482-0.327-0.982-0.448-1.498c-0.06-0.258-0.112-0.52-0.157-0.785l-0.009-0.05
					l-0.004-0.025c-2.105-6.28,2.862,8.525,2.356,7.001l0.049-0.01l0.097-0.021L396,91.475l0.097-0.021l0.25-0.065l0.768-0.221
					l0.763-0.241l0.691-0.236l1.435-0.532l1.175-0.473l1.026-0.438c2.561-1.127,4.614-2.157,6.659-3.214
					c4.033-2.1,7.777-4.231,11.502-6.386c3.676-2.147,7.356-4.296,11.046-6.451l4.497-2.636l0.235-0.201l0.558-0.493
					c0.407-0.342,0.961-0.719,1.221-0.679c0.151,0.028,0.051,0.382-0.251,0.863l-0.25,0.385c-0.095,0.15-0.24,0.3-0.351,0.426
					C436.839,71.117,436.651,71.306,436.531,71.418z"/>
			</g>
		</g>
	</g>
</g>
<g>
	<g>
		<g>
			<path fill="#231F20" d="M19.023,439.344l0.22-0.496C19.119,439.075,18.969,439.236,19.023,439.344z"/>
			<path fill="#231F20" d="M15.171,489.478l-0.349,0.301C14.98,489.696,15.088,489.585,15.171,489.478z"/>
			<path fill="#231F20" d="M62.523,434.307l0.093-0.113C62.624,434.174,62.583,434.227,62.523,434.307z"/>
			<g>
				<path fill="#231F20" d="M64.799,431.044c0.585-0.561-1.339,1.414-4.061,1.927c-1.407,0.285-2.856,0.041-3.556-0.971
					c-0.36-0.496-0.557-1.171-0.543-1.943c0.005-0.387,0.058-0.799,0.16-1.22l0.085-0.317l0.049-0.159l0.107-0.255
					c0.148-0.345,0.308-0.688,0.479-1.029c0.858-1.656,1.714-3.31,2.569-4.96l1.725-3.36l0.855-1.682l0.8-1.764l1.553-3.554
					c0.512-1.183,1.011-2.37,1.409-3.653c0.42-1.259,0.822-2.522,1.202-3.792c0.371-1.263,0.775-2.564,0.982-3.767
					c2.103-9.805,5.101-18.93,7.804-28.602c0.617-2.342,1.033-4.729,1.358-7.124c0.229-2.43,0.359-4.87,0.518-7.292
					c0.208-2.408,0.229-4.865,0.435-7.284c0.17-2.431,0.633-4.797,1.025-7.246c0.487-2.597,1.244-5.174,1.774-7.819
					c0.197-1.352-2.067-7.948-3.097-9.111c-0.466-0.527-2.758,3.345-3.365,4.355c-0.496,0.852-1.031,1.805-1.567,2.786
					c-0.549,0.981-1.033,1.992-1.642,2.966c-1.147,1.949-2.137,3.766-2.632,5.003c-0.514,1.252-0.901,2.326-1.337,3.313
					c-0.443,0.987-0.828,1.89-1.177,2.797c-0.715,1.813-1.22,3.647-1.888,6.174c-2.8,10.41-6.151,20.49-12.396,29.585
					c-1.251,1.837-2.25,3.765-3.201,5.729c-0.461,0.985-0.886,1.985-1.287,2.996l-0.585,1.522l-0.283,0.766l-0.296,0.694
					c-0.793,1.841-1.508,3.703-2.33,5.534c-0.952,1.832-1.961,3.63-3.116,5.316c-1.342,1.841-2.804,3.654-4.221,5.445l-0.268,0.336
					l-0.376,0.5l-0.762,1.016l-1.534,2.053l-3.088,4.193c-0.474,0.627-1.143,1.648-1.73,2.515l-1.811,2.723
					c-1.206,1.829-2.405,3.688-3.587,5.566c-0.625,0.947-1.097,1.864-1.605,2.795l-1.484,2.796
					c-0.974,1.868-1.914,3.742-2.806,5.605c-1.871,3.95-3.864,7.906-5.999,11.974c-0.898,1.981-1.643,3.929-2.5,5.927
					c-0.815,1.98-1.721,4.024-2.488,6.003c-1.073,3.722-1.462,6.677-1.503,9.135c-0.038,2.464,0.271,4.438,0.865,6.124
					c0.597,1.689,1.271,3.126,2.457,4.874c0.312,0.441,0.663,0.92,1.135,1.445c0.472,0.521,1.106,1.135,1.738,1.607
					c1.265,0.948,2.298,1.384,3.261,1.75c1.922,0.69,3.688,0.975,5.599,1.157c1.893,0.179,3.915,0.189,6.145,0.063
					c2.606-0.161,5.563-0.587,9.09-1.668c3.359-0.881,8.063-3.458,12.353-5.417l1.036-0.489l1.158-0.681l2.329-1.381l4.684-2.809
					c3.129-1.873,6.293-3.912,9.449-5.897l2.369-1.506c0.786-0.449,1.569-0.855,2.353-1.287l4.702-2.563l2.348-1.286l0.293-0.161
					l0.195-0.097l0.369-0.181l0.737-0.362l2.943-1.451l1.469-0.729l1.288-0.616l2.47-1.171l5.046-2.355l5.176-2.367l2.621-1.175
					l0.627-0.274l0.507-0.204l1.014-0.407c4.91-1.97,10.434-2.484,16.126-2.672c5.708-0.206,11.591-0.18,17.875-1.155
					c3.338-0.511,7.359-0.886,11.355-2.056c4.009-1.171,7.954-3.165,10.978-6.978c1.46-1.853,1.845-5.105,1.786-7.969
					c0.075,4.701-8.104-4.921-8.678-5.372c-3.561-2.699-7.463-3.841-11.303-5.59c-7.392-3.403-14.553-7.845-23.232-7.739
					c-2.247-0.006-4.554,0.198-6.836,0.378c-2.313,0.293-4.608,0.538-6.942,1.032c-4.641,0.84-9.329,2.232-13.938,3.979
					l-3.445,1.409l-0.768,0.328l-0.668,0.295l-1.335,0.593l-5.374,2.422l-5.505,2.514c-1.752,0.813-3.506,1.627-5.262,2.44
					l-1.892,0.906l-0.943,0.461c-0.109,0.053-0.091,0.045-0.097,0.049l-0.014,0.01l-0.028,0.02l-0.237,0.184l-0.548,0.48
					c-0.39,0.345-0.888,0.76-1.1,0.723c-0.123-0.024,0.004-0.395,0.315-0.894c0.153-0.247,0.346-0.521,0.545-0.786
					C64.429,431.412,64.663,431.175,64.799,431.044z"/>
			</g>
		</g>
	</g>
</g>
<g>
	<g>
		<g>
			<path fill="#231F20" d="M444.728,437.618l-0.048-0.058C444.678,437.586,444.614,437.602,444.728,437.618z"/>
			<path fill="#231F20" d="M445.395,443.413l-0.576-0.667C445.214,443.204,445.278,443.278,445.395,443.413z"/>
			<path fill="#231F20" d="M476.208,491.045l-0.287,0.062C476.088,491.121,476.166,491.092,476.208,491.045z"/>
			<g>
				<path fill="#231F20" d="M494.222,484.745c0.829-0.985,1.272-1.629,1.664-2.263c0.38-0.618,0.674-1.189,0.917-1.784
					c0.471-1.196,0.773-2.468,0.885-4.084c0.072-1.651,0.004-3.585-0.535-6.294c-0.282-1.361-0.66-2.901-1.293-4.78l-0.25-0.723
					c-0.078-0.24-0.169-0.486-0.346-0.771l-0.913-1.631l-1.834-3.229l-3.774-6.475c-1.424-2.065-2.965-4.045-4.393-5.997
					l-2.141-2.885l-1.049-1.414l-0.518-0.7c-0.169-0.231-0.27-0.439-0.407-0.659l-3.021-5.083l-1.45-2.455l-0.713-1.207l-0.78-1.191
					c-1.031-1.58-2.025-3.132-2.979-4.667l-1.403-2.294c-0.25-0.438-0.391-0.598-0.58-0.888l-0.529-0.787
					c-0.697-1.054-1.363-2.12-1.992-3.208c-0.678-1.197-1.297-2.21-1.92-3.258l-1.858-3.143c-1.255-2.063-2.51-4.122-3.798-6.144
					l-1.968-2.991l-1.006-1.482l-1.112-1.508c-1.504-2.003-3.063-3.966-4.698-5.866c-1.67-1.862-3.291-3.658-4.815-5.547
					c-0.766-0.937-1.513-1.884-2.248-2.837c-0.748-0.921-1.481-1.851-2.206-2.788c-1.447-1.873-2.853-3.786-4.244-5.707
					c-1.381-1.901-2.768-3.81-4.164-5.732c-2.691-3.733-5.936-6.857-9.138-10.106c-1.554-1.617-3.089-3.254-4.51-4.979
					c-0.709-0.863-1.396-1.747-2.029-2.664c-0.605-0.921-1.169-1.873-1.68-2.861c-1.064-2.117-2.012-4.334-2.918-6.483
					c-0.416-1.042-5.294-4.648-6.78-5.1c-0.677-0.207-0.856,3.877-0.855,5.03c-0.01,1.863,0.071,4.211,0.294,6.418
					c0.275,2.167,0.642,4.204,1.04,5.491c1.585,5.25,2.502,7.587,5.242,12.188c5.711,9.41,11.802,18.214,15.442,28.599
					c0.735,2.096,1.609,4.043,2.668,5.903c1.052,1.859,2.259,3.636,3.315,5.394c1.104,1.757,2.251,3.489,3.335,5.251
					c1.073,1.897,2.101,3.83,2.923,5.832c0.859,2.166,1.729,4.357,2.466,6.543l1.139,3.271c0.208,0.564,0.352,1.053,0.494,1.533
					l0.446,1.451l0.463,1.431l0.238,0.707l0.122,0.352c0.05,0.134,0.01,0.105,0.019,0.165c-0.019,0.309-0.033,0.586-0.032,0.838
					c0.01,0.504,0.05,0.92,0.283,1.344c0.242,0.459,0.313,0.915,0.266,1.274c-0.051,0.364-0.247,0.644-0.409,0.808
					c-0.283,0.347-0.707,0.192-0.183,0.869c0.133,0.173,0.284,0.368,0.422,0.593c0.146,0.214,0.236,0.516,0.171,0.664
					c-0.096,0.285-0.221,0.412-0.389,0.531c-0.329,0.216-0.921,0.232-1.709-0.133c-0.913-0.405-1.938-1.023-2.721-1.693
					c-0.247-0.212-0.471-0.386-0.688-0.534l-0.161-0.106l-1.073-0.509l-2.435-1.124c-3.251-1.484-6.521-2.911-9.799-4.322
					l-9.839-4.225l-4.804-2.083c-1.543-0.658-3.219-1.459-4.818-2.207c-5.914-2.814-11.865-6.734-18.835-10.165
					c-1.777-0.84-3.496-1.709-5.434-2.437l-2.86-1.1l-0.359-0.133l-0.181-0.066c-0.039-0.017-0.034-0.021-0.054-0.031l-0.167-0.102
					c-0.123-0.07-0.18-0.094-0.447-0.223l-1.46-0.653l-1.732-0.74c-1.206-0.499-2.506-1.015-3.835-1.492
					c-2.824-1.007-6.081-2.502-9.36-3.289c-1.602-0.392-3.298-0.611-4.893-0.485c-0.403,0.031-0.823,0.079-1.261,0.144
					c-0.373,0.085-0.764,0.188-1.184,0.307c-0.92,0.197-1.555,0.638-2.516,1.037c-0.121,0.056-0.238,0.109-0.351,0.161
					c-0.104,0.067-0.194,0.151-0.302,0.229c-0.209,0.159-0.44,0.325-0.689,0.496c-0.498,0.343-1.067,0.703-1.669,1.072
					c-1.206,0.737-2.537,1.514-3.731,2.303c0.989-0.632,1.394-0.587,1.45-0.071c-0.004,0.255,0.076,0.68,0.077,1.189
					c0.015,0.51-0.028,1.134,0.021,1.788c0.024,0.696,0.05,1.4,0.074,2.07c0.049,0.709,0.096,1.383,0.137,1.978
					c0.088,1.229,0.185,2.16,0.24,2.33c1.293,4.354,4.16,7.51,6.623,11.016c2.414,3.408,4.672,6.909,7.479,10.114
					c0.711,0.799,1.429,1.587,2.261,2.342c0.413,0.38,0.81,0.752,1.26,1.12c0.47,0.368,0.951,0.73,1.444,1.083
					c0.447,0.348,1.106,0.713,1.722,1.056l0.948,0.508c0.23,0.14,0.33,0.239,0.504,0.356c0.625,0.45,1.268,0.853,1.939,1.198
					c5.629,2.942,11.84,6.339,18.917,9.739c1.794,0.857,3.618,1.722,5.514,2.57l5.724,2.517c3.712,1.639,7.43,3.278,11.156,4.923
					c3.161,1.412,6.334,2.794,9.509,4.164l4.764,2.049l8.294,2.897c11.053,3.867,21.973,7.737,33.088,11.869
					c1.672,0.63,3.352,1.263,5.037,1.897l1.275,0.487c0.346,0.06,0.626,0.036,0.943,0.06c0.611,0.019,1.258,0.067,1.819,0.037
					c2.359-0.018,4.444-0.286,6.327-0.737c1.894-0.448,3.563-1.074,5.178-1.945c0.81-0.445,1.603-0.94,2.459-1.613
					c0.427-0.334,0.882-0.725,1.375-1.193C493.302,485.787,493.824,485.216,494.222,484.745z"/>
			</g>
		</g>
	</g>
</g>
<g>
	<g>
		<g>
			<path fill="#231F20" d="M56.979,71.044l0.153,0.275C57.083,71.187,57.101,71.076,56.979,71.044z"/>
			<path fill="#231F20" d="M54.232,61.076l0.558,0.613C54.607,61.478,54.412,61.266,54.232,61.076z"/>
			<path fill="#231F20" d="M27.9,16.038l0.265-0.122C28.016,15.939,27.943,15.984,27.9,16.038z"/>
			<g>
				<path fill="#231F20" d="M10.392,30.284c-1.789,4.517-2.173,10.272-0.551,17.167c1.578,6.854,5.103,14.511,9.151,21.456
					c2.088,3.59,4.303,7.013,6.475,10.234l1.602,2.343c0.414,0.523,0.747,0.874,1.122,1.319l2.155,2.52
					c1.406,1.673,2.756,3.354,3.937,5.022c0.594,0.838,1.135,1.662,1.612,2.463c0.478,0.777,0.851,1.646,1.227,2.494
					c0.79,1.734,1.495,3.837,2.21,5.849c0.721,2.003,1.383,4.186,2.106,6.261c1.416,4.241,2.938,8.542,4.857,12.788
					c0.978,2.146,1.87,4.322,2.675,6.5c0.432,1.111,0.844,2.224,1.241,3.34c0.409,1.126,0.743,2.211,1.199,3.401l1.258,3.519
					l0.527,1.572l0.477,1.48c0.312,0.989,0.624,1.979,0.937,2.973c0.302,1.022,0.575,2.14,0.864,3.211
					c0.275,1.044,0.599,2.072,0.958,3.089c0.371,1.053,0.793,2.147,1.228,3.204c0.437,1.063,0.894,2.119,1.358,3.169
					c0.5,1.076,1.06,2.183,1.584,3.266l1.56,3.263l1.842,3.57c0.645,1.18,1.338,2.327,1.958,3.52
					c0.675,1.128,1.33,2.279,1.946,3.444c1.337,2.394,2.58,4.832,3.823,6.927c0.153,0.26,0.614,0.653,1.243,1.1
					c0.611,0.428,1.359,0.877,2.153,1.319c1.573,0.871,3.157,1.617,3.909,1.732c0.672,0.113,0.497-3.888,0.339-5.027
					c-0.207-1.824-0.603-4.112-1.052-6.224c-0.434-2.128-0.868-4.064-1.222-5.272c-0.752-2.438-1.115-4.18-1.482-5.86
					c-0.226-0.819-0.373-1.659-0.571-2.547c-0.103-0.442-0.218-0.896-0.351-1.371c-0.115-0.531-0.237-1.092-0.367-1.695
					c-0.288-1.229-0.576-2.455-0.862-3.677c-0.302-1.193-0.51-2.529-0.763-3.781c-0.235-1.276-0.47-2.549-0.705-3.821l-0.678-3.976
					c-0.359-2.621-0.965-5.451-1.364-8.288c-0.246-1.523-0.312-2.614-0.403-3.875l-0.094-1.84c-0.022-0.614-0.017-1.302-0.012-1.952
					c0.074-8.445-3.89-16.52-5.227-25.311c-0.367-2.392-0.666-4.795-1.086-7.321c-0.208-1.264-0.359-2.471-0.622-3.79l-0.894-4.035
					c-0.289-1.346-0.717-2.727-1.091-3.96c-0.388-1.255-0.783-2.438-1.199-3.594c-0.83-2.31-1.734-4.488-2.76-6.575l-0.792-1.668
					l-0.126-0.282l-0.036-0.1l-0.063-0.198c-0.062-0.232-0.096-0.466-0.105-0.689c-0.019-0.447,0.063-0.842,0.186-1.152
					c0.234-0.652,0.657-0.84,0.306-1.469c-0.175-0.324-0.401-0.711-0.61-1.167c-0.203-0.445-0.412-0.999-0.361-1.479
					c0.063-0.48,0.359-0.69,0.651-0.757c0.302-0.069,0.656-0.007,1.041,0.157c0.899,0.379,1.831,1.132,2.563,1.865
					c0.228,0.239,0.445,0.416,0.651,0.578c0.103,0.08,0.205,0.153,0.307,0.221l0.038,0.025l0.263,0.126l0.586,0.279l1.173,0.554
					l2.353,1.091c0.81,0.364,1.503,0.708,2.471,1.09l5.475,2.215c7.342,2.795,14.775,5.137,22.177,7.412
					c6.697,1.977,13.12,4.626,19.681,6.805c6.549,2.181,13.223,4.035,20.163,4.411c7.331,0.441,17.204,1.391,23.889-5.52
					c1.625-1.667,2.372-4.852,2.649-7.702c-0.227,2.338-2.038,0.876-3.823-1.23c-1.789-2.101-3.537-4.863-3.783-5.131
					c-1.505-1.572-3.125-2.763-4.772-3.847c-1.645-1.095-3.308-2.113-4.9-3.279c-6.168-4.57-11.181-10.257-17.689-12.663
					c-6.837-2.521-13.641-4.507-20.337-6.59c-6.696-2.07-13.331-4.149-19.766-6.697l-4.069-1.667l-1.021-0.41l-1.158-0.523
					l-2.325-1.049l-2.326-1.045l-0.582-0.261l-0.311-0.143l-0.528-0.28l-2.112-1.12l-8.426-4.47
					c-0.707-0.39-1.393-0.719-2.073-1.037l-2.05-0.977l-4.096-1.957l-4.091-1.963c-1.308-0.536-2.544-0.918-3.82-1.389
					c-1.251-0.418-2.428-0.682-3.647-1.034c-1.188-0.298-2.309-0.475-3.462-0.704c-1.086-0.125-2.196-0.285-3.247-0.355
					c-1.025-0.03-2.089-0.12-3.055-0.058c-2.382,0.042-4.614,0.322-6.817,0.872c-2.199,0.568-4.384,1.379-6.731,2.816
					c-1.15,0.736-2.372,1.621-3.416,2.616c-1.056,0.986-1.981,1.987-2.75,3c-0.79,1.001-1.447,2-2.018,3.032
					C11.306,28.131,10.814,29.183,10.392,30.284z"/>
			</g>
		</g>
	</g>
</g>
</svg>
