<?xml version="1.0" encoding="utf-8"?>
<!-- Generator: Adobe Illustrator 16.0.0, SVG Export Plug-In . SVG Version: 6.00 Build 0)  -->
<!DOCTYPE svg PUBLIC "-//W3C//DTD SVG 1.1//EN" "http://www.w3.org/Graphics/SVG/1.1/DTD/svg11.dtd">
<svg version="1.1" xmlns="http://www.w3.org/2000/svg" xmlns:xlink="http://www.w3.org/1999/xlink" x="0px" y="0px" width="500px"
	 height="500px" viewBox="0 0 500 500" enable-background="new 0 0 500 500" xml:space="preserve">
<g id="Layer_1">
</g>
<g id="Layer_2">
	<g>
		<g>
			<g>
				<g>
					<path fill="#231F20" d="M467.836,277.754l-0.074,0.242C467.804,277.891,467.85,277.827,467.836,277.754z"/>
					<path fill="#231F20" d="M477.025,241.869l0.144,0.096C477.127,241.889,477.075,241.869,477.025,241.869z"/>
					<path fill="#231F20" d="M464.075,232.498l0.001-0.208C464.061,232.388,464.063,232.45,464.075,232.498z"/>
					<g>
						<path fill="#231F20" d="M461.35,246.416c-0.726,3.084-1.337,6.187-1.832,9.321c-0.678,3.077-1.277,6.173-1.738,9.321
							c-0.204,1.604-0.568,3.301-0.836,4.956c-0.283,1.674-0.591,3.311-0.914,4.959c-0.313,1.656-0.689,3.275-1.112,4.89
							c-0.406,1.626-0.902,3.213-1.489,4.771c-2.46,6.627-5.474,12.819-8.769,18.845c-3.369,6.083-7.919,11.263-13.196,15.701
							c-0.639,0.534-1.263,1.084-1.878,1.646l-1.93,1.577l-1.912,1.613c-0.64,0.537-1.335,0.993-2.003,1.496l-2.035,1.467
							c-0.679,0.494-1.429,0.866-2.15,1.291c-1.458,0.821-2.934,1.623-4.544,2.131c-0.847,0.296-1.697,0.569-2.545,0.839
							l-2.681,0.875c-0.896,0.301-4.881,2.998-5.549,3.733c-0.305,0.333,2.589,0.089,3.379,0.015
							c2.616-0.263,6.456-0.785,8.424-1.277c0.992-0.252,1.853-0.472,2.647-0.674c0.78-0.245,1.481-0.513,2.19-0.777
							c1.398-0.563,2.861-1.065,4.66-2.142c7.628-4.168,14.189-9.637,20.716-15.542c2.603-2.431,4.872-5.293,6.812-8.412
							c1.046-1.518,1.865-3.139,2.782-4.707c0.941-1.563,1.73-3.165,2.634-4.707c3.825-6.7,7.324-13.557,9.674-20.715
							c0.64-1.909,1.269-3.777,1.957-5.648c0.671-1.883,1.294-3.87,1.955-5.801c0.651-1.945,1.301-3.896,1.92-5.856
							c0.503-1.983,0.96-3.981,1.368-5.991c0.385-1.984,0.818-3.961,1.127-5.952l0.774-5.986c0.231-1.996,0.574-3.983,0.73-5.98
							c0.167-1.996,0.346-3.99,0.545-5.983c0.525-4.703,0.834-9.172,1.302-13.719c1.105-11.473,1.425-23.035,1.755-34.646
							c0.334-10.478,1.652-20.823,0.423-31.485c-0.166-1.407-0.347-2.938-0.532-4.518c-0.054-0.394-0.107-0.791-0.162-1.189
							l-0.16-0.941c-0.126-0.761-0.251-1.524-0.376-2.282c-0.299-1.674-0.736-3.633-1.629-5.564c-0.855-1.911-2.271-3.75-3.909-4.77
							c-0.786-0.509-1.54-0.573-2.16-0.429s-1.124,0.497-1.535,0.895c0.33-0.33,0.737-0.059,1.104,0.552
							c0.338,0.628,0.599,1.583,0.585,2.542c0.042,1.928-0.803,3.627-0.843,3.843c-0.343,1.34-0.678,2.673-0.967,4.098
							c-0.312,1.387-0.49,3.05-0.777,4.41c-0.547,2.739-1.222,5.324-1.766,7.92c-0.587,2.603-1.118,5.228-1.225,8.051
							c-0.585,11.839-0.667,23.602-1.285,35.568c-0.252,5.079-0.539,10.179-0.842,15.279l-0.513,7.667
							c-0.099,1.268-0.169,2.578-0.3,3.812l-0.4,3.707C463.772,234.446,462.479,240.438,461.35,246.416z"/>
					</g>
				</g>
			</g>
		</g>
		<g>
			<g>
				<g>
					<path fill="#231F20" d="M55.392,275.538l0.113,0.2C55.462,275.645,55.452,275.573,55.392,275.538z"/>
					<path fill="#231F20" d="M43.042,244.203l0.168,0.017C43.142,244.176,43.087,244.182,43.042,244.203z"/>
					<path fill="#231F20" d="M27.427,241.205l-0.078-0.198C27.372,241.105,27.399,241.164,27.427,241.205z"/>
					<g>
						<path fill="#231F20" d="M31.203,255.403c2.045,6.317,4.758,12.484,8.26,18.197c3.603,5.897,7.883,11.289,11.725,17.041
							c4.067,6.094,8.545,11.991,14.17,16.84c5.656,4.884,11.292,9.229,17.37,13.292c5.891,3.907,12.561,6.119,18.498,9.605
							c1.588,0.928,3.127,1.923,4.702,2.876c0.775,0.47,5.217,1.625,6.184,1.64c0.439,0.008-1.542-1.979-2.096-2.521
							c-1.829-1.763-4.683-4.347-6.242-5.476c-3.126-2.339-4.608-3.367-7.937-5.431c-6.871-4.22-13.42-8.642-18.594-14.539
							c-0.517-0.597-1.092-1.138-1.612-1.726c-0.521-0.587-1.058-1.157-1.607-1.716l-1.668-1.661l-1.627-1.722
							c-0.544-0.574-1.107-1.128-1.643-1.712l-1.543-1.809c-0.508-0.606-1.017-1.21-1.503-1.829
							c-0.459-0.645-0.907-1.295-1.337-1.951c-3.741-5.703-6.48-11.944-9.663-18.007c-3.407-6.483-5.488-13.584-8.114-20.501
							c-2.574-6.829-5.105-13.798-7.035-20.937l-1.512-6.222c-0.481-2.079-1.018-4.144-1.311-6.263
							c-0.436-2.663-0.911-5.313-1.412-7.958c-0.282-1.316-0.43-2.658-0.625-3.991l-0.576-4.001l-0.589-4
							c-0.21-1.332-0.281-2.685-0.426-4.026l-0.72-8.071c-0.43-9.809,0.789-19.317,0.684-29.194
							c-0.184-5.239,0.229-12.312-2.485-16.96c-0.658-1.13-1.931-1.565-3.072-1.657c1.875,0.143-2.4,5.708-2.61,6.141
							c-1.247,2.516-1.989,5.343-2.796,8.056c-1.632,5.248-3.81,9.997-4.151,15.732c-0.541,5.991-0.354,12.003-0.162,18.006
							c0.182,3.002,0.486,6.003,0.748,9.007c0.152,1.501,0.243,3.007,0.449,4.506l0.631,4.503c0.37,2.553,0.688,5.111,1.131,7.653
							l1.525,7.595l0.76,3.796l0.948,3.757l1.86,7.527C27.71,243.216,29.257,249.328,31.203,255.403z"/>
					</g>
				</g>
			</g>
		</g>
		<g>
			<g>
				<g>
					<path fill="#231F20" d="M312.058,171.957l-0.118-0.106C311.986,171.905,312.003,171.955,312.058,171.957z"/>
					<path fill="#231F20" d="M318.737,193.026l-0.146-0.073C318.636,193.002,318.688,193.021,318.737,193.026z"/>
					<path fill="#231F20" d="M329.301,204.176l-0.127,0.239C329.248,204.309,329.282,204.236,329.301,204.176z"/>
					<g>
						<path fill="#231F20" d="M333.915,188.441c0.003-3.531-0.602-7.056-1.761-10.335c-1.146-3.289-2.92-6.288-5.049-8.898
							c-2.21-2.688-4.823-4.95-7.654-6.842c-2.842-1.888-5.89-3.429-9.23-4.597c-1.89-0.637-3.355-0.984-5.03-1.312
							c-1.634-0.341-3.33-0.557-5.043-0.675c-0.854-0.067-1.73-0.045-2.593-0.058c-0.871,0.04-1.744,0.094-2.613,0.184
							c-0.868,0.141-1.74,0.236-2.595,0.449l-1.277,0.326l-0.637,0.172l-0.685,0.246c-3.644,1.222-7.194,3.759-9.19,7.172
							c-2.057,3.372-2.818,7.14-2.707,10.804c0.005,0.445,0.035,0.889,0.096,1.33c0.054,0.442,0.101,0.883,0.202,1.32
							c0.143,0.806,0.466,1.937,0.906,2.896c0.918,1.974,2.314,3.506,3.811,4.643c1.504,1.148,3.115,1.971,4.758,2.618
							c1.646,0.648,3.334,1.112,5.097,1.419c1.875,0.337,3.855,0.496,5.919,0.167c0.171-0.031,0.499-0.124,1.021-0.308
							c0.418-0.191,0.951-0.485,1.477-0.881c0.63-0.459,0.743-0.652,0.757-0.771l-0.01-0.018l-0.032-0.092
							c-0.063-0.188-0.114-0.38-0.156-0.574c-0.024-0.129-0.031-0.104-0.044-0.148l-0.031-0.09c-0.02-0.062-0.033-0.125-0.042-0.191
							c-0.01-0.066-0.014-0.133-0.013-0.202l0.004-0.096l-0.002,0.02c-0.003,0.025-0.01,0.041-0.016,0.048
							c-0.003,0.004-0.006,0.006-0.008,0.006c-0.002,0.002-0.002-0.005-0.004,0.004l-0.021,0.092c-0.03,0.118-0.069,0.22-0.11,0.307
							s-0.085,0.159-0.126,0.219c-0.018,0.025-0.047,0.066-0.054,0.069l0.012-0.039c0.02-0.056,0.077-0.11,0.137-0.201
							c0.038-0.07,0.04-0.043,0.113-0.257c0.07-0.267,0.051-0.175,0.067-0.209c0.032-0.02-0.011-0.218-0.166-0.305
							c-0.163-0.071-0.366-0.116-0.517-0.096c-0.519-0.028-1.433,0.305-2.32,0.289c-1.913-0.042-3.725-0.581-4.776-0.909
							c-1.515-0.461-2.519-0.978-3.492-1.49c-0.948-0.557-1.894-1.101-2.991-2.007c-1.118-0.939-1.976-2.071-2.377-3.207
							c-0.374-1.018-0.475-2.635-0.369-4.063c0.198-2.89,1.489-5.606,3.432-6.808c0.794-0.471,1.479-0.912,2.319-1.211
							c0.184-0.104,0.411-0.161,0.626-0.232c0.222-0.064,0.41-0.17,0.647-0.222c0.488-0.098,0.871-0.262,1.495-0.345
							c2.27-0.449,4.656-0.569,7.003-0.068c1.266,0.252,2.532,0.666,3.788,1.107c0.615,0.24,1.3,0.492,1.853,0.74
							c0.474,0.281,0.95,0.442,1.412,0.767c1.865,1.131,3.619,2.636,5.315,4.277c1.818,1.752,3.196,4,4.157,6.338
							c0.967,2.35,1.533,4.781,1.91,7.2c0.145,0.594,0.133,1.2,0.212,1.801c0.094,0.602,0.059,1.207,0.073,1.813
							c0.036,0.606-0.011,1.217-0.063,1.831c-0.027,0.301-0.023,0.629-0.073,0.909l-0.137,0.844
							c-0.395,2.244-1.101,3.925-2.297,4.953c-0.187,0.146-0.364,0.3-0.537,0.463c-0.184,0.155-0.438,0.251-0.645,0.392
							c-0.3,0.252-1.178,0.598-1.863,0.907c-1.418,0.715-2.898,1.09-4.348,1.559c-3.703,0.927-7.381,1.197-11.081,0.65
							c-1.845-0.301-3.699-0.716-5.521-1.415c-0.899-0.264-1.876-0.714-2.839-1.14c-0.983-0.399-1.865-0.928-2.802-1.386
							c-3.299-1.782-5.995-4.214-8.188-6.824c-2.205-2.627-3.92-5.404-5.655-8.35c-1.903-3.145-3.234-7.94-6.595-11.057
							c-0.837-0.751-2.167-0.896-3.306-0.781c0.937-0.088,0.592,1.143,0.004,2.523c-0.604,1.374-1.272,2.903-1.345,3.111
							c-0.652,2.437-0.374,5.032-0.226,7.645c0.109,1.256,0.225,2.515,0.367,3.783c0.218,1.236,0.38,2.527,0.728,3.767
							c0.355,1.233,0.708,2.523,1.301,3.718c0.281,0.608,0.585,1.217,0.916,1.825c0.358,0.583,0.753,1.159,1.173,1.733
							c3.538,4.838,8.3,8.542,13.254,11.382c1.249,0.691,2.517,1.341,3.792,1.951l1.929,0.856c0.326,0.14,0.634,0.287,0.976,0.419
							l1.063,0.381l2.132,0.747l1.069,0.367c0.359,0.113,0.74,0.187,1.11,0.281l2.239,0.523c0.746,0.177,1.491,0.352,2.27,0.421
							c5.197,0.868,10.665,0.476,15.688-0.86c1.29-0.265,2.492-0.717,3.706-1.148l1.818-0.651c0.598-0.23,1.155-0.52,1.734-0.779
							l1.72-0.803l0.858-0.404c0.297-0.146,0.682-0.393,1.016-0.59c0.688-0.427,1.384-0.832,2.045-1.31
							c0.646-0.521,1.285-1.057,1.912-1.604c2.956-2.73,5.027-6.34,6.158-9.785c0.146-0.434,0.303-0.874,0.432-1.307l0.307-1.274
							c0.201-0.853,0.408-1.72,0.501-2.533c0.107-0.83,0.26-1.653,0.308-2.496L333.915,188.441z"/>
					</g>
				</g>
			</g>
		</g>
		<g>
			<g>
				<g>
					<path fill="#231F20" d="M174.538,276.075l0.153,0.004C174.623,276.067,174.581,276.041,174.538,276.075z"/>
					<path fill="#231F20" d="M152.864,272.884l0.07-0.146C152.886,272.783,152.869,272.835,152.864,272.884z"/>
					<path fill="#231F20" d="M145.481,285.795l-0.14-0.008C145.405,285.806,145.447,285.805,145.481,285.795z"/>
					<g>
						<path fill="#231F20" d="M154.76,288.183c2.113,0.375,4.247,0.64,6.386,0.786c2.139,0.176,4.287,0.047,6.426-0.102
							c2.205-0.197,4.402-0.424,6.587-0.712c2.185-0.271,4.36-0.453,6.536-0.349c2.305,0.141,4.589,0.205,6.877,0.276
							c2.286,0.044,4.579,0.105,6.873-0.108c4.618-0.379,9.072-0.097,13.659,0.099c2.23,0.093,4.332-0.054,6.87-0.429
							c1.22-0.109,2.396-0.442,3.586-0.646c1.2-0.17,2.356-0.485,3.562-0.661c1.301-0.142,2.571-0.394,3.856-0.689
							c0.158-0.035,0.447-0.183,0.796-0.393c0.086-0.054,0.177-0.11,0.271-0.168l0.142-0.092l0.072-0.047l0.009-0.007l0.398-0.199
							l0.003-0.003l0.015-0.014l0.029-0.027c0.153-0.151,0.313-0.31,0.473-0.468l0.059-0.062l0.187-0.163
							c0.127-0.115,0.25-0.234,0.368-0.357c0.236-0.246,0.45-0.506,0.633-0.765c0.219-0.288,0.231-0.432,0.328-0.636
							c0.076-0.19,0.142-0.374,0.199-0.549c0.026-0.086,0.052-0.17,0.077-0.252c0.006-0.058,0.011-0.114,0.017-0.168
							c0.008-0.109,0.015-0.21,0.021-0.302c0.009-0.185,0.007-0.332-0.006-0.434c-0.026-0.18-0.451,0.137-0.938,0.528
							c-0.331,0.28-0.594,0.515-0.973,0.759c-0.401,0.25-0.75,0.399-0.947,0.477c-0.237,0.027-0.458,0.022-0.704,0.039l-0.184,0.009
							l-0.023,0.002h-0.003h-0.001c-0.045,0.021,0.098-0.049-0.101,0.049h-0.006l-0.012-0.001l-0.048-0.004l-0.096-0.009
							c-0.128-0.01-0.259-0.021-0.391-0.031c-0.514-0.036-1.05-0.074-1.573-0.11c-1.024-0.054-1.956-0.085-2.589-0.132
							c-1.268-0.052-2.149-0.006-3.047-0.07c-0.897-0.069-1.774-0.041-2.966-0.019c-0.615-0.032-1.227-0.064-1.838-0.097
							c-0.604-0.026-1.2-0.05-1.867-0.135c-1.296-0.137-2.587-0.282-3.874-0.454c-2.574-0.347-5.141-0.776-7.698-1.535
							c-2.069-0.6-4.2-0.764-6.341-0.858c-2.138-0.107-4.278-0.197-6.366-0.553c-4.535-0.726-8.943-2.114-13.482-2.398
							c-4.798-0.501-9.488-1.758-14.211-2.441c-4.705-0.505-9.349-1.19-13.984-2.078c-2.663-0.655-5.308-1.385-7.936-2.156
							c-6.61-2.019-13.095-3.847-18.888-6.817c-2.626-1.329-4.894-3.125-6.994-4.986c-1.08-0.901-2.052-1.897-3.109-2.793
							c-0.986-0.973-2.063-1.841-3.124-2.758c-2.337-1.891-4.947-4.813-8.878-5.342c-0.976-0.113-2.179,0.438-3.13,1.073
							c0.785-0.519,0.888,0.499,0.827,1.732c-0.071,1.233-0.276,2.685-0.245,2.84c0.091,0.996,0.348,1.948,0.655,2.892
							c0.321,0.933,0.739,1.818,1.078,2.767c1.374,3.582,2.553,7.387,5.553,10.157c3.112,2.906,6.658,5.269,10.343,7.202
							c3.691,1.938,7.52,3.46,11.345,4.811c3.256,1.139,6.522,2.076,9.773,2.92c3.259,0.768,6.508,1.567,9.75,2.405
							c1.949,0.421,3.92,0.909,5.911,1.404C150.725,287.324,152.732,287.857,154.76,288.183z"/>
					</g>
				</g>
			</g>
		</g>
		<g>
			<g>
				<g>
					<path fill="#231F20" d="M220.138,198.715l0.141,0.019C220.217,198.717,220.181,198.686,220.138,198.715z"/>
					<path fill="#231F20" d="M206.755,188.715l0.16,0.011C206.858,188.7,206.803,188.703,206.755,188.715z"/>
					<path fill="#231F20" d="M192.376,184.097l-0.003-0.203C192.36,183.99,192.365,184.051,192.376,184.097z"/>
					<g>
						<path fill="#231F20" d="M194.53,198.443c1.61,3.391,4.359,6.188,7.196,8.053c2.868,1.837,5.82,2.873,8.601,3.441
							c1.432,0.278,2.844,0.479,4.208,0.587c1.372,0.13,2.868,0.208,4.315,0.232c2.947,0.006,5.954-0.194,9.011-0.789
							c3.244-0.59,6.401-1.938,9.026-3.816c1.283-0.961,2.502-1.996,3.521-3.148l0.391-0.427l0.195-0.216l0.231-0.288
							c0.302-0.386,0.618-0.774,0.85-1.176c0.513-0.798,0.915-1.616,1.221-2.437c1.218-3.306,1.56-6.46,1.31-9.708
							c-0.124-1.558-0.539-3.596-1.319-5.299c-0.376-0.877-0.906-1.665-1.43-2.459c-0.251-0.405-0.605-0.728-0.914-1.089
							c-0.32-0.353-0.637-0.708-1.028-0.983c-1.376-1.233-3.208-1.858-5.011-1.959c-0.456-0.005-0.91-0.028-1.362-0.011
							l-1.346,0.236c-0.45,0.054-0.882,0.196-1.308,0.361l-1.271,0.485l-2.138,1.068c-0.544,0.276-1.1,0.562-1.647,0.803
							c-1.096,0.486-2.207,0.897-3.321,1.101l-0.891,0.148l-0.874,0.064c-0.288,0.011-0.579,0.057-0.858,0.038l-0.419-0.007
							c-0.136-0.002-0.194-0.014-0.293-0.02c-0.119,0-0.381,0.104-0.752,0.259c-0.167,0.068-0.357,0.186-0.559,0.248
							c-0.2,0.058-0.401,0.072-0.589,0.073c-0.377-0.003-0.703,0.005-0.99,0.019c-0.167,0.02,0.097,0.456,0.287,0.911
							c0.219,0.479,0.604,1.009,0.814,1.165c0.217,0.177,0.469,0.276,0.82,0.405c0.689,0.354,1.62,0.588,2.568,0.767
							c0.92,0.118,1.829,0.216,2.443,0.155c1.515-0.083,2.625-0.242,3.707-0.465c0.538-0.116,1.086-0.24,1.654-0.414
							c0.565-0.166,1.238-0.385,1.77-0.562c0.294-0.094,0.606-0.213,0.878-0.284l0.789-0.19c0.255-0.075,0.533-0.049,0.792-0.078
							c0.261-0.034,0.522-0.008,0.78,0.041c1.031,0.129,1.964,0.701,2.571,1.5c0.577,0.826,0.909,1.771,0.973,2.682
							c0.039,0.448-0.013,0.893-0.067,1.386c-0.072,0.564-0.179,1.124-0.358,1.673c-0.545,1.75-1.108,3.485-1.846,4.674
							c-0.179,0.294-0.367,0.543-0.546,0.739l-0.067,0.083l-0.135,0.13l-0.269,0.26l-0.538,0.516
							c-0.748,0.62-1.514,1.203-2.347,1.556c-3.635,1.634-7.106,0.935-11.313,0.119c-1.085-0.232-2.35-0.599-3.474-1.032
							c-1.118-0.437-2.189-0.915-3.112-1.453c-0.921-0.537-1.757-1.092-2.435-1.656c-0.674-0.568-1.224-1.119-1.721-1.653
							c-0.469-0.538-0.846-1.115-1.197-1.765c-0.138-0.353-0.328-0.678-0.433-1.083c-0.149-0.335-0.24-0.875-0.342-1.385
							c-0.539-2.04-0.487-4.072-0.218-6.042c0.352-2.302,1.424-4.418,2.813-6.331c0.483-0.584,0.861-1.225,1.451-1.756l0.795-0.846
							l0.39-0.429l0.433-0.358c1.116-1.005,2.285-1.897,3.623-2.629c2.631-1.499,5.88-2.499,9.629-3.158
							c0.821-0.162,1.741-0.26,2.607-0.366l0.654-0.07l0.581-0.015l1.155-0.023l1.147-0.017l0.57-0.008l0.56,0.063l2.214,0.234
							c2.896,0.515,5.617,1.087,8.4,1.945c3.022,0.803,6.694,2.75,10.86,2.363c1.034-0.135,2.058-0.99,2.79-1.869
							c-0.607,0.719-1.102-0.287-1.525-1.566c-0.419-1.273-0.784-2.849-0.897-2.979c-0.527-0.972-1.217-1.86-1.961-2.727
							c-0.188-0.214-0.373-0.438-0.571-0.642l-0.623-0.578c-0.421-0.397-0.841-0.793-1.257-1.186
							c-0.406-0.403-0.808-0.802-1.206-1.197c-0.406-0.394-0.846-0.725-1.274-1.093c-0.866-0.714-1.749-1.452-2.69-2.124
							c-1.933-1.162-4.053-2.364-6.521-2.745l-1.936-0.356c-0.648-0.114-1.291-0.115-1.94-0.168
							c-1.29-0.055-2.611-0.191-3.889-0.112c-1.278,0.078-2.559,0.177-3.838,0.293c-1.243,0.127-2.294,0.318-3.449,0.487
							c-4.593,0.778-9.755,2.085-14.714,4.818c-1.068,0.521-2.056,1.238-3.053,1.923c-0.487,0.357-1.013,0.667-1.46,1.072
							l-1.362,1.192l-1.34,1.212l-1.186,1.315c-0.773,0.896-1.599,1.723-2.255,2.749c-2.852,3.828-4.956,8.466-5.799,13.332
							c-0.268,1.444-0.375,2.923-0.548,4.408c0,1.468-0.042,2.973,0.058,4.451l0.265,2.198c0.104,0.745,0.157,1.432,0.386,2.294
							c0.185,0.823,0.399,1.646,0.708,2.473C193.775,196.827,194.139,197.639,194.53,198.443z"/>
					</g>
				</g>
			</g>
		</g>
		<g>
			<g>
				<g>
					<path fill="#231F20" d="M151.886,248.834l-0.132-0.008C151.813,248.839,151.848,248.867,151.886,248.834z"/>
					<path fill="#231F20" d="M169.914,252.322l-0.081,0.139C169.881,252.421,169.903,252.37,169.914,252.322z"/>
					<path fill="#231F20" d="M178.321,240.277l0.123,0.023C178.391,240.275,178.353,240.271,178.321,240.277z"/>
					<g>
						<path fill="#231F20" d="M170.199,237.042c-0.981-0.257-1.972-0.486-2.967-0.684c-1.005-0.178-1.971-0.414-3.027-0.439
							c-1.038-0.062-2.076-0.09-3.108-0.085c-1.011,0.011-2.138,0.025-2.923,0.154c-0.888,0.114-1.781,0.256-2.68,0.4
							c-0.879,0.15-1.906,0.265-2.848,0.378c-1.875,0.191-3.93,0.401-5.932,0.316l-0.795-0.037l-0.831,0.022l-1.661,0.045
							c-1.089,0.047-2.254,0.021-3.243,0.179c-2.05,0.246-4.094,0.511-6.109,1.096c-4.052,1.045-8.01,1.809-12.096,2.777
							c-1.943,0.571-3.824,1.327-5.604,2.308c-0.9,0.463-1.799,0.915-2.718,1.313c-0.9,0.444-1.813,0.856-2.779,1.166
							c-1.033,0.327-2.11,0.563-3.123,0.958c-0.513,0.184-2.428,2.224-2.661,2.814c-0.107,0.266,1.71,0.341,2.195,0.359
							c1.615,0.04,3.907-0.023,5.027-0.118c2.231-0.284,3.217-0.454,5.328-0.989c2.139-0.644,4.315-1.057,6.464-1.437
							c2.195-0.233,4.367-0.441,6.625-0.146c3.582,0.336,7.117-0.708,10.697-0.51c3.605,0.401,6.844,1.53,10.921,2.04
							c1.009,0.11,2.179,0.275,3.284,0.465c1.111,0.19,2.299,0.404,3.138,0.636c1.843,0.46,3.651,0.809,5.541,1.269l2.802,0.538
							l2.843,0.714c1.892,0.419,3.826,1.12,5.715,1.781c2.208,0.834,4.392,1.834,6.548,2.825c5.385,2.697,10.956,5.004,16.236,7.989
							c4.772,2.729,8.594,6.691,13.506,9.245c2.629,1.321,5.962,3.453,9.716,2.363c0.913-0.265,1.804-1.231,2.453-2.174
							c-1.061,1.553-1.596-3.518-1.705-3.81c-0.597-1.729-1.661-3.047-2.56-4.505c-1.72-2.85-2.969-5.962-5.53-7.99
							c-2.64-2.175-5.538-3.965-8.461-5.694c-2.98-1.651-5.998-3.231-9.104-4.708c-2.598-1.326-5.314-2.438-7.993-3.609
							c-1.333-0.6-2.721-1.092-4.074-1.654c-1.372-0.536-2.691-1.136-4.092-1.656c-1.672-0.628-3.298-1.375-5.045-2.037
							C173.798,238.277,172.055,237.571,170.199,237.042z"/>
					</g>
				</g>
			</g>
		</g>
		<g>
			<g>
				<g>
					<path fill="#231F20" d="M432.017,199.129l-0.096,0.099C431.971,199.19,432.016,199.18,432.017,199.129z"/>
					<path fill="#231F20" d="M445.702,184.206l0.102,0.124C445.784,184.269,445.744,184.232,445.702,184.206z"/>
					<path fill="#231F20" d="M436.309,172.913l0.04-0.096C436.317,172.854,436.309,172.885,436.309,172.913z"/>
					<g>
						<path fill="#231F20" d="M431.663,178.264c-0.966,1.249-2.031,2.455-2.961,3.774c-0.469,0.657-0.911,1.339-1.342,2.038
							c-0.471,0.677-0.921,1.375-1.351,2.097c-0.881,1.487-1.687,3.074-2.685,4.545c-0.979,1.482-1.982,2.947-3.312,4.142
							c-2.737,2.574-5.705,4.896-8.325,7.734c-0.663,0.714-1.347,1.392-2.048,2.043c-0.693,0.639-1.44,1.315-2.109,1.815
							c-0.695,0.52-1.373,1.089-2.11,1.536c-0.741,0.438-1.47,0.911-2.23,1.316c-0.748,0.355-1.445,0.798-2.142,1.255
							c-0.721,0.396-1.432,0.832-2.154,1.264c-0.751,0.363-1.517,0.713-2.301,1.018c-0.805,0.252-1.642,0.417-2.485,0.5
							c-0.916,0.048-1.854-0.062-2.76-0.074c-0.433-0.006-2.625,1.038-3.062,1.496c-0.201,0.201,1.238,1.011,1.659,1.223
							c1.344,0.743,3.491,1.435,4.616,1.601c2.235,0.188,3.339,0.262,5.567-0.284c0.587-0.114,1.15-0.291,1.712-0.479l1.693-0.547
							c1.112-0.404,2.189-0.885,3.31-1.312c1.057-0.514,2.155-0.992,3.256-1.485c1.054-0.528,2.185-1.045,3.305-1.508
							c3.419-1.415,5.874-4.314,9.003-6.259l5.148-3.167c1.711-1.079,3.348-2.339,4.841-3.725c1.582-1.492,3.237-2.974,4.937-4.392
							c1.665-1.47,3.256-3.076,4.709-4.779c1.366-1.755,2.612-3.617,3.896-5.428c1.191-1.889,2.318-3.819,3.55-5.679
							c1.307-2.018,2.528-3.859,3.887-5.749c1.811-2.391,3.428-4.809,5.151-7.387c0.847-1.286,1.692-2.522,2.537-3.851
							c0.845-1.327,1.696-2.648,2.57-3.956c0.809-1.151,1.601-2.397,2.46-3.564c0.841-1.191,1.752-2.319,2.576-3.549
							c0.795-1.263,1.576-2.545,2.294-3.87c0.358-0.662,0.701-1.335,1.021-2.02c0.168-0.421,0.329-0.878,0.48-1.321
							c0.149-0.444,0.308-0.929,0.372-1.25c0.092-0.38,0.187-0.778,0.285-1.187c0.063-0.251,0.06-0.282,0.081-0.41l0.039-0.333
							l0.02-0.352l0.148-0.595l0.139-0.622l0.06-0.314l0.014-0.079l0.004-0.02l0.001-0.005c1.309,0.253-1.784-0.348-1.461-0.284
							l0.01,0.005l0.041,0.018l0.16,0.073l0.631,0.308c0.605,0.321,0.324,0.165,0.363,0.176l-0.066-0.066
							c-0.03-0.066-0.146-0.073-0.127-0.226c0.068-0.329,0.113-0.676,0.13-1.044c0.254-1.042,0.408-2.062,0.288-3.421
							c-0.145-1.218-1.242-1.94-2.283-2.405c0.866,0.348-0.124,1.175-1.261,1.458c-1.162,0.254-2.459,0.23-2.623,0.284
							c-0.446,0.112-0.87,0.232-1.282,0.507c-0.207,0.125-0.413,0.262-0.618,0.409l-0.307,0.228l-0.076,0.059l-0.038,0.03
							l-0.002,0.002c0.043-0.091-0.061,0.125-0.05,0.103l-0.001,0.001l-0.004,0.003l-0.008,0.006l-0.015,0.013l-0.116,0.102
							c-0.623,0.557-1.205,1.055-1.849,1.805c-0.306,0.317-0.649,0.72-0.938,0.981c-0.294,0.259-0.585,0.516-0.874,0.771
							c-0.146,0.122-0.292,0.263-0.435,0.367l-0.419,0.276l-0.796,0.526c-1.216,0.857-2.323,1.761-3.117,2.905
							c-0.422,0.601-0.807,1.209-1.209,1.818c-0.446,0.603-0.878,1.21-1.297,1.823c-0.858,1.226-1.582,2.473-2.438,3.735
							c-0.856,1.262-1.688,2.539-2.514,3.823c-0.813,1.279-1.744,2.609-2.622,3.909c-1.501,2.187-3.039,4.554-4.562,6.862
							c-1.51,2.309-3.052,4.894-4.573,7.127c-0.845,1.208-1.749,2.405-2.656,3.606c-0.429,0.616-0.97,1.165-1.466,1.742
							C432.646,177.102,432.148,177.679,431.663,178.264z"/>
					</g>
				</g>
			</g>
		</g>
		<g>
			<g>
				<g>
					<path fill="#231F20" d="M65.991,186.952l0.075,0.053C66.038,186.974,66.033,186.938,65.991,186.952z"/>
					<path fill="#231F20" d="M57.089,176.854l0.142-0.072C57.173,176.794,57.126,176.823,57.089,176.854z"/>
					<path fill="#231F20" d="M43.813,182.524l-0.07-0.067C43.764,182.498,43.788,182.516,43.813,182.524z"/>
					<g>
						<path fill="#231F20" d="M47.245,188.246c0.875,1.225,1.979,2.312,3.089,3.345c1.093,1.047,2.413,1.91,3.768,2.677
							c0.698,0.396,1.411,0.764,2.12,1.125c0.723,0.349,1.491,0.647,2.213,0.98c1.479,0.632,2.785,1.411,4.12,2.206l2.038,1.35
							c0.677,0.448,1.333,0.925,2.069,1.283c1.436,0.75,2.909,1.515,4.423,2.017c3.017,0.845,5.641,2.235,8.36,3.68
							c0.655,0.348,1.343,0.622,2.045,0.862c0.686,0.229,1.383,0.423,2.078,0.629c1.389,0.412,2.764,0.866,3.958,1.698
							c0.636,0.448,1.227,0.974,1.845,1.449c0.302,0.234,2.402,0.26,2.921,0.056c0.235-0.091-0.356-1.406-0.528-1.762
							c-0.563-1.16-1.521-2.789-2.114-3.437c-1.197-1.312-1.767-1.911-3.208-2.832c-3.008-1.913-5.858-3.619-8.342-6.248
							c-0.982-1.067-2.239-1.731-3.432-2.375c-1.106-0.674-2.26-1.288-3.23-2.133c-1.015-0.974-1.896-2.114-2.834-3.116
							c-0.482-0.482-0.895-1.066-1.364-1.566c-0.462-0.51-0.949-0.986-1.479-1.416c-2.224-1.911-3.652-4.588-5.628-6.76
							c-1.948-2.161-4-4.326-5.655-6.838c-1.014-1.414-1.822-3.018-2.66-4.563l-0.394-0.737c-0.129-0.241-0.213-0.443-0.325-0.664
							c-0.21-0.441-0.438-0.833-0.653-1.319l-0.673-1.401l-0.685-1.476c-0.919-2.027-1.865-4.193-2.8-6.484
							c-0.84-2.073-1.471-4.354-2.351-6.682c-0.913-2.33-2.19-4.778-4.305-6.855c-0.595-0.542-1.229-1.136-1.921-1.703
							c-0.764-0.546-1.582-1.066-2.428-1.479c-0.91-0.371-1.865-0.623-2.79-0.694c-0.947-0.042-1.917,0.164-2.78,0.579
							c-0.848,0.41-1.462,1.556-1.879,2.622c0.334-0.88,0.831-0.091,1.12,0.895c0.318,0.963,0.319,2.201,0.336,2.328
							c0.135,0.773,0.37,1.328,0.537,1.949c0.169,0.617,0.356,1.164,0.449,1.754c0.321,2.396-0.411,4.727,0.201,6.554
							c1.276,3.888,3.079,8.209,5.202,13.095c0.899,2.068,2.038,4.331,3.338,6.477l1.809,2.883l0.886,1.452l0.942,1.438
							c0.75,1.15,1.427,2.372,2.182,3.577C45.616,185.86,46.408,187.069,47.245,188.246z"/>
					</g>
				</g>
			</g>
		</g>
		<g>
			<g>
				<g>
					<path fill="#231F20" d="M364.06,245.482l0.135,0.003C364.135,245.475,364.097,245.448,364.06,245.482z"/>
					<path fill="#231F20" d="M344.29,244.753l0.033-0.158C344.288,244.649,344.284,244.704,344.29,244.753z"/>
					<path fill="#231F20" d="M341.128,259.062l-0.105,0.026C341.073,259.091,341.104,259.079,341.128,259.062z"/>
					<g>
						<path fill="#231F20" d="M348.414,259.408c3.275,0.069,6.662-0.122,10.06-0.788c3.508-0.635,7.085-1.674,10.653-1.454
							c3.778,0.203,7.481,0.757,11.293,0.732c3.833,0.007,7.473,0.706,11.154,1.568c3.549,0.791,7.333,0.483,10.685,1.905
							c0.873,0.405,1.709,0.893,2.56,1.322c0.404,0.214,2.836,0.181,3.43-0.043c0.268-0.097-0.694-1.439-0.985-1.81
							c-0.908-1.229-2.541-2.812-3.456-3.438c-1.854-1.241-2.757-1.759-4.829-2.503c-4.298-1.495-8.555-2.556-12.762-4.578
							c-3.417-1.605-7.285-1.46-10.862-2.362c-3.876-1.01-7.756-2.283-11.771-2.547c-4.269-0.232-8.507-1.272-12.877-1.221
							c-2.165,0.051-4.329,0.167-6.549,0.367c-2.16,0.212-4.32,0.425-6.482,0.638c-2.533,0.229-5.098,0.502-7.69,0.827
							c-3.28,0.4-6.561,1.227-9.772,2.254c-3.196,1.095-6.312,2.4-9.308,3.807c-5.396,2.531-10.929,4.243-15.396,7.699
							c-2.366,1.836-5.611,4.088-6.018,7.935c-0.099,0.935,0.458,2.123,1.082,3.082c-1.024-1.577,3.797-0.055,4.091-0.03
							c1.785,0.155,3.347-0.283,4.998-0.454c3.201-0.323,6.37-0.046,9.094-1.202c2.855-1.196,5.517-2.494,8.116-3.728
							c2.602-1.189,5.164-2.297,7.826-3.168c4.529-1.418,9.32-2.471,14.403-2.831c1.498-0.14,3.093-0.093,4.659-0.114
							C345.329,259.313,346.809,259.338,348.414,259.408z"/>
					</g>
				</g>
			</g>
		</g>
		<g>
			<g>
				<g>
					<path fill="#231F20" d="M285.57,385.987l0.16-0.005C285.666,385.979,285.612,385.95,285.57,385.987z"/>
					<path fill="#231F20" d="M251.462,387.604l0.034-0.164C251.449,387.5,251.449,387.556,251.462,387.604z"/>
					<path fill="#231F20" d="M245.522,402.227l-0.241,0.021C245.396,402.253,245.468,402.242,245.522,402.227z"/>
					<g>
						<path fill="#231F20" d="M260.603,400.874l2.188-0.419c0.687-0.121,1.464-0.318,2.046-0.377
							c1.251-0.154,2.46-0.449,3.742-0.609c1.306-0.102,2.577-0.316,3.928-0.436c1.376-0.07,2.727-0.222,4.147-0.321l4.355-0.255
							c1.563-0.065,3.297-0.104,5.371-0.358c2.528-0.268,4.994-0.991,6.996-2.352c1.019-0.66,1.883-1.524,2.621-2.468
							c0.334-0.501,0.703-0.977,0.951-1.527c0.141-0.266,0.26-0.543,0.41-0.801l0.336-0.834c0.093-0.299,0.187-0.602,0.28-0.903
							c0.221-0.627,0.348-1.277,0.483-1.928l0.182-0.976c0.051-0.317,0.057-0.581,0.084-0.864c0.032-0.538,0.098-1.096,0.089-1.617
							l-0.031-1.566c-0.128-2.039-0.462-3.945-0.885-5.741l-0.338-1.32l-0.339-1.224l-0.698-2.415
							c-0.477-1.607-0.978-3.21-1.518-4.805c-1.05-3.211-2.065-6.409-2.994-9.629c-0.932-3.215-1.744-6.479-2.639-9.746
							c-1.753-6.27-4.803-12.146-6.145-18.473c-0.36-1.692-0.63-3.397-0.959-5.095c-0.16-0.833-2.206-4.683-2.833-5.372
							c-0.282-0.314-0.476,2.342-0.518,3.079c-0.13,2.414-0.157,6.082,0.037,7.917c0.396,3.707,0.581,5.454,1.464,9.105
							c0.902,3.777,1.831,7.494,2.653,11.229c0.769,3.737,1.385,7.491,1.783,11.319c0.152,1.552,0.443,3.074,0.745,4.622
							c0.296,1.552,0.655,3.098,1.033,4.642c0.38,1.544,0.76,3.09,1.139,4.63c0.174,0.773,0.348,1.546,0.521,2.315
							c0.132,0.711,0.271,1.423,0.326,2.094c0.153,1.403,0.173,2.729,0.005,3.859c-0.031,0.288-0.062,0.574-0.139,0.819
							c-0.065,0.246-0.116,0.543-0.171,0.677c-0.118,0.219-0.233,0.413-0.376,0.579c-0.277,0.378-0.697,0.592-1.101,0.629
							c-0.2,0.024-0.391,0.021-0.57,0.015l-1.297-0.041c-0.696-0.029-1.486-0.117-2.358-0.229l-2.813-0.354
							c-0.955-0.118-1.889-0.265-2.86-0.373l-2.968-0.27c-1.95-0.241-4.057-0.172-6.105-0.188c-1.023-0.037-2.086,0.143-3.13,0.243
							c-1.048,0.121-2.096,0.258-3.14,0.413c-3.772,0.75-7.177,1.669-10.347,2.26c-1.592,0.313-3.094,0.495-4.573,0.62
							c-0.723,0.005-1.433,0.07-2.166,0.028l-2.21-0.182c-0.432-0.05-0.856-0.037-1.294-0.135l-1.311-0.269l-1.311-0.265
							l-0.655-0.131l-0.779-0.191c-2.116-0.523-3.827-0.967-4.914-1.518c-0.726-0.317-1.229-0.707-1.669-1.063
							c-0.396-0.346-0.75-0.766-1.038-1.239c-0.589-0.945-0.833-2.109-0.718-2.98c0.052-0.44,0.173-0.813,0.358-1.149l2.033-3.669
							c0.764-1.29,1.342-2.602,1.944-3.91c0.591-1.307,1.257-2.62,1.745-3.914c0.973-2.305,1.938-4.594,2.902-6.877l1.409-3.231
							l1.423-3.103c1.938-4.195,4.063-8.688,5.314-13.948c0.662-2.76,1.362-6.184,1.307-9.639c-0.02-3.44-0.889-6.845-2.651-9.084
							c-0.852-1.096-2.176-1.24-3.309-1.079c0.918-0.14,0.623,1.44-0.042,2.976c-0.355,0.771-0.767,1.529-1.118,2.108
							c-0.379,0.581-0.669,0.988-0.717,1.087c-1.172,2.36-1.961,4.819-3.24,7.04c-2.471,4.301-5.725,7.475-8.03,12.236
							c-1.208,2.497-2.402,5.107-3.486,7.871c-1.012,2.506-1.965,5.051-2.971,7.405l-0.735,1.801l-0.799,1.698
							c-0.548,1.11-1.002,2.329-1.632,3.335l-1.838,3.292c-1.286,2.125-2.093,4.531-2.393,6.921
							c-0.534,4.089,0.377,8.052,2.192,11.455c0.908,1.709,2.104,3.266,3.495,4.636c0.675,0.692,1.472,1.326,2.231,1.883
							c0.77,0.53,1.549,1.062,2.357,1.466c1.613,0.89,3.218,1.46,4.684,1.915c1.485,0.453,2.764,0.734,3.961,1.019l0.834,0.195
							c0.268,0.064,0.545,0.13,0.909,0.198l2.041,0.403l2.042,0.397c0.674,0.146,1.406,0.165,2.107,0.251
							c1.701,0.149,3.387,0.403,5.171,0.37c0.894,0.029,1.754-0.003,2.613-0.046l1.296-0.059l1.252-0.112
							C254.622,401.949,257.739,401.4,260.603,400.874z"/>
					</g>
				</g>
			</g>
		</g>
		<g>
			<g>
				<g>
					<path fill="#231F20" d="M332.812,293.796l-0.146,0.014C332.731,293.813,332.775,293.835,332.812,293.796z"/>
					<path fill="#231F20" d="M354.185,291.902l-0.015,0.162C354.2,292.005,354.197,291.95,354.185,291.902z"/>
					<path fill="#231F20" d="M355.742,277.213l0.108-0.041C355.795,277.177,355.764,277.193,355.742,277.213z"/>
					<g>
						<path fill="#231F20" d="M347.842,277.944c-3.521,0.468-7.081,1.034-10.604,2.17c-1.826,0.543-3.676,1.113-5.537,1.643
							c-0.932,0.26-1.868,0.497-2.814,0.688c-0.98,0.178-1.992,0.308-2.95,0.367c-4.123,0.256-7.99,0.196-11.884,0.322
							c-3.931,0.137-7.644-0.767-11.147-2.209c-0.423-0.175-0.853-0.328-1.288-0.469l-1.28-0.479
							c-0.865-0.299-1.755-0.562-2.591-0.945c-1.726-0.659-3.361-1.585-4.707-2.869c-0.683-0.736-1.303-1.519-1.941-2.263
							c-0.277-0.39-2.631-1.456-3.289-1.525c-0.297-0.034,0.097,1.649,0.233,2.129c0.224,0.756,0.504,1.759,0.907,2.609
							c0.399,0.854,0.832,1.656,1.175,2.15c0.671,1.03,1.292,1.652,1.896,2.316c0.617,0.651,1.275,1.271,2.305,1.943
							c4.185,2.933,8.794,4.878,13.577,7.16c3.936,1.853,8.41,1.479,12.458,2.007c2.218,0.296,4.405,0.606,6.535,0.847
							c2.036,0.258,4.252,0.382,6.44,0.271c2.327-0.116,4.659-0.002,7.021-0.058c1.179-0.008,2.359-0.018,3.539-0.058
							c0.59-0.021,1.18-0.049,1.768-0.088c0.59-0.065,1.18-0.149,1.768-0.244c2.316-0.398,4.623-0.767,6.917-1.288
							c2.292-0.563,4.582-1.103,6.888-1.584c2.66-0.729,5.354-1.339,8.032-2.029c3.333-1.027,6.697-2.041,9.846-3.528
							c1.589-0.707,3.198-1.379,4.764-2.122c1.539-0.79,3.08-1.572,4.634-2.333c0.702-0.344,1.412-0.667,2.129-0.977
							c0.698-0.297,1.146-0.483,1.8-0.714c1.209-0.438,2.503-0.818,3.787-1.18c2.577-0.721,5.154-1.404,7.559-2.35
							c1.28-0.508,2.761-0.95,4.06-1.607c1.326-0.656,2.306-1.456,3.201-2.88c0.425-0.682,0.842-1.948,1.057-3.069
							c-0.092,0.461-0.282,0.55-0.533,0.415c-0.251-0.134-0.578-0.518-0.995-0.885c-0.798-0.808-1.846-1.731-1.984-1.816
							c-1.677-0.972-3.569-1.139-5.392-1.473c-3.56-0.665-7.06-1.554-10.56-0.669c-1.832,0.466-3.614,1.045-5.395,1.759
							c-0.896,0.357-1.771,0.732-2.701,1.189l-2.315,1.1c-1.459,0.701-2.904,1.429-4.348,2.166
							c-1.453,0.708-2.951,1.293-4.432,1.942c-2.499,1.158-5.1,1.997-7.669,2.951c-1.273,0.509-2.607,0.835-3.927,1.203
							c-1.322,0.362-2.647,0.714-3.977,1.048C354.616,277.171,351.27,277.677,347.842,277.944z"/>
					</g>
				</g>
			</g>
		</g>
		<g>
			<g>
				<g>
					<path fill="#231F20" d="M241.462,114.169l-0.089,0.072C241.418,114.216,241.459,114.216,241.462,114.169z"/>
					<path fill="#231F20" d="M257.626,113.558l-0.091,0.133C257.588,113.654,257.612,113.605,257.626,113.558z"/>
					<path fill="#231F20" d="M267.708,102.553l0.151,0.054C267.794,102.567,267.747,102.555,267.708,102.553z"/>
					<g>
						<path fill="#231F20" d="M257.361,98.092c-0.654-0.162-1.311-0.313-1.969-0.454c-0.688-0.102-1.38-0.189-2.07-0.266
							l-1.036-0.106l-1.075-0.017c-0.718-0.001-1.43,0-2.146,0.036c-2.905,0.248-5.832,0.985-8.456,2.306
							c-2.671,1.409-4.992,3.241-6.869,5.255c-1.875,2.013-3.476,4.073-4.985,6.09c-0.399,0.535-0.831,1.055-1.202,1.596
							l-1.088,1.63l-0.542,0.817l-0.606,1.059l-0.547,1.166c-0.16,0.425-0.314,0.853-0.453,1.285
							c-0.526,1.741-0.612,3.683-0.328,5.373c0.151,0.82,0.341,1.623,0.656,2.38c0.299,0.76,0.557,1.542,1.01,2.2
							c1.597,2.77,3.774,4.982,6.183,6.581c1.213,0.819,2.522,1.53,3.955,2.049c1.417,0.539,2.955,0.904,4.567,0.985l0.774,0.036
							l0.521,0.007c0.348,0.001,0.695-0.006,1.042-0.019l2.24-0.093c0.74-0.034,1.578-0.107,2.377-0.167
							c0.886-0.038,2.046-0.186,3.073-0.302c1.009-0.182,2.058-0.404,2.898-1.04c0.431-0.287,0.799-0.647,1.187-0.998l0.577-0.546
							c0.039-0.036,0.119-0.113,0.125-0.114l0.033-0.019l0.066-0.034l0.013-0.006l0.007-0.003l0.003-0.001l0.002-0.001h0.001
							l-0.124-0.184l-0.01-0.007c-0.007-0.006-0.016-0.014-0.023-0.026c-0.009-0.012-0.018-0.026-0.026-0.045l-0.003-0.007
							l-0.001-0.001v0c0.865,0.49,0.24,0.136,0.434,0.245l0.002,0l0.003-0.001l0.014-0.004l0.055-0.019l0.108-0.038l0.217-0.075
							c0.048-0.02,0.046-0.008,0.135-0.054l0.324-0.188c0.416-0.26,0.871-0.588,1.15-0.909c0.313-0.331,0.606-0.677,0.827-1.096
							c0.114-0.204,0.223-0.416,0.317-0.628c0.076-0.203,0.146-0.412,0.207-0.623c0.248-0.854,0.259-1.592,0.225-2.24
							c-0.005-0.179-0.052-0.376-0.123-0.637c-0.07-0.272-0.178-0.545-0.309-0.823c-0.261-0.575-0.623-1.113-1-1.575
							c-0.76-0.926-1.555-1.542-1.875-1.679c-0.308-0.153-0.105,1.925-0.097,2.545c0.034,0.953,0.099,2.271-0.393,3.269
							c-0.24,0.489-0.637,0.765-0.962,0.857c-0.235,0.037-0.743,0.113-1.021,0.178c-1.408,0.487-1.711,0.869-2.293,1.148
							c-0.536,0.312-1.206,0.303-1.925,0.2c-0.252-0.043-0.627-0.068-1.045-0.096c-0.477-0.065-1.19-0.132-1.826-0.196
							c-0.641-0.061-1.334-0.154-1.997-0.231c-0.655-0.086-1.356-0.159-2.071-0.231l-1.063-0.115
							c-0.309-0.044-0.514-0.095-0.771-0.139c-1.952-0.442-3.754-1.71-4.82-3.475c-0.808-1.404-1.526-2.549-1.964-3.763
							c-0.066-0.307-0.197-0.597-0.269-0.898l-0.075-0.453c0.001-0.13-0.004-0.259-0.014-0.387c0.013-0.46,0.141-0.874,0.421-1.232
							c0.151-0.202,0.355-0.438,0.601-0.689l1.035-1.092c0.696-0.788,1.475-1.425,2.197-2.1c1.511-1.234,2.938-2.391,4.338-3.284
							c1.482-1.009,3.124-1.494,4.774-1.655c1.651-0.187,3.376,0.014,5.245,0.213c0.91,0.047,1.886,0.294,2.852,0.442
							c0.986,0.275,1.977,0.454,2.989,0.828c0.505,0.173,1.011,0.315,1.519,0.513l1.522,0.623c1.022,0.407,1.992,0.902,2.916,1.415
							c2.167,1.203,3.996,2.655,5.439,4.242c1.753,2.046,3.063,4.116,3.813,6.608c0.216,0.607,0.341,1.267,0.492,1.918
							c0.076,0.325,0.099,0.678,0.155,1.015c0.05,0.34,0.114,0.7,0.105,0.958c0.13,1.138-0.034,2.239-0.322,3.41
							c-0.255,1.051-0.811,2.135-1.496,3.257c-0.663,1.116-1.586,2.319-2.451,3.462c-1.768,2.269-3.533,4.267-5.126,6.241
							c-0.44,0.492-0.939,0.997-1.422,1.576c-0.51,0.525-1.046,1.024-1.516,1.661c-0.504,0.564-0.996,1.142-1.403,1.892
							c-0.425,0.713-0.841,1.429-1.136,2.382c-0.29,0.908-0.073,2.222,0.288,3.308c-0.289-0.896,0.677-0.746,1.88-0.406
							c1.213,0.39,2.615,0.749,2.79,0.752c2.119,0.17,4.098-0.629,6.143-1.299c0.997-0.367,1.972-0.726,2.938-1.082
							c0.93-0.415,1.868-0.852,2.803-1.338c0.949-0.48,1.752-1.072,2.604-1.704c0.86-0.633,1.584-1.37,2.269-2.196l1.063-1.311
							l0.951-1.345c0.631-0.896,1.241-1.816,1.808-2.796c1.145-1.969,2.223-4.241,2.969-6.804c0.17-0.654,0.368-1.287,0.492-1.965
							l0.342-2.043c0.123-1.391,0.224-2.791,0.123-4.184l-0.052-1.045l-0.115-0.937c-0.085-0.622-0.153-1.241-0.262-1.864
							c-0.251-1.252-0.501-2.502-0.898-3.75c-1.219-4.251-3.627-8.31-6.592-11.495c-2.965-3.229-6.395-5.636-9.776-7.598
							c-2.029-1.201-4.07-2.22-6.2-3.242C262.146,99.644,259.867,98.716,257.361,98.092z"/>
					</g>
				</g>
			</g>
		</g>
	</g>
</g>
<g id="brushes" display="none">
	<g display="inline">
		<g>
			<rect x="300.415" y="7.814" fill="none" width="101.17" height="8.367"/>
			<g>
				<path fill="#231F20" d="M387.919,10.449c0.009-0.033,0.016-0.074,0.019-0.131C387.922,10.371,387.917,10.414,387.919,10.449z"/>
				<path fill="#231F20" d="M379.947,9.607l0.093-0.063C379.979,9.554,379.956,9.576,379.947,9.607z"/>
				<path fill="#231F20" d="M392.696,10.805c-0.007,0.011-0.007,0.019-0.012,0.031c0.074,0.006,0.174,0.014,0.336,0.023
					L392.696,10.805z"/>
				<path fill="#231F20" d="M362.941,8.66l0.106-0.004C363,8.654,362.969,8.641,362.941,8.66z"/>
				<path fill="#231F20" d="M373.02,9.293c-0.031,0.054-0.084,0.074-0.136,0.092C372.949,9.394,373.001,9.383,373.02,9.293z"/>
				<path fill="#231F20" d="M395.22,13.63l-0.136-0.191C395.086,13.521,395.135,13.607,395.22,13.63z"/>
				<path fill="#231F20" d="M400.065,12.859c-0.004-0.014-0.005-0.025-0.013-0.043C400.046,12.834,400.054,12.847,400.065,12.859z"
					/>
				<path fill="#231F20" d="M398.172,12.094c-0.041,0.017-0.088,0.05-0.136,0.083C398.094,12.171,398.167,12.171,398.172,12.094z"/>
				<path fill="#231F20" d="M397.972,12.225c0.021-0.016,0.043-0.032,0.064-0.047C398,12.184,397.971,12.191,397.972,12.225z"/>
				<path fill="#231F20" d="M301.175,9.6c-0.14-0.008-0.259,0.137-0.384,0.256L301.175,9.6z"/>
				<path fill="#231F20" d="M347.544,8.549l0.03-0.078C347.546,8.496,347.541,8.523,347.544,8.549z"/>
				<path fill="#231F20" d="M301.001,11.256l-0.099-0.039C300.938,11.248,300.971,11.258,301.001,11.256z"/>
				<path fill="#231F20" d="M392.653,14.139c-0.14,0.186-0.427-0.037-0.425,0.145C392.377,14.254,392.587,14.394,392.653,14.139z"/>
				<path fill="#231F20" d="M344.289,15.596l-0.092,0.01C344.241,15.607,344.269,15.604,344.289,15.596z"/>
				<path fill="#231F20" d="M301.001,11.256l0.114,0.045c-0.01-0.035-0.022-0.063-0.034-0.094
					C301.056,11.234,301.029,11.252,301.001,11.256z"/>
				<path fill="#231F20" d="M331.511,8.469c0.002,0,0.003,0,0.005,0c0.012-0.012,0.021-0.02,0.032-0.033L331.511,8.469z"/>
				<path fill="#231F20" d="M330.66,8.166c0.06-0.02,0.117-0.039,0.182-0.061C330.746,8.086,330.695,8.117,330.66,8.166z"/>
				<path fill="#231F20" d="M300.791,9.855l-0.22,0.146C300.65,9.98,300.722,9.921,300.791,9.855z"/>
				<path fill="#231F20" d="M321.492,8.439c0.029-0.006,0.058-0.012,0.084-0.023C321.54,8.414,321.513,8.421,321.492,8.439z"/>
				<path fill="#231F20" d="M373.666,9.402c0.021,0.018,0.049,0.027,0.074,0.041C373.748,9.4,373.743,9.369,373.666,9.402z"/>
				<polygon fill="#231F20" points="367.331,14.371 367.329,14.371 367.329,14.375 				"/>
				<path fill="#231F20" d="M367.669,14.14c-0.105-0.042-0.257,0.093-0.338,0.231C367.438,14.371,367.537,14.332,367.669,14.14z"/>
				<path fill="#231F20" d="M366.605,14.275c0.013,0.008,0.023,0.015,0.039,0.023C366.631,14.285,366.618,14.277,366.605,14.275z"/>
				<path fill="#231F20" d="M373.41,14.646c0-0.006,0.001-0.014,0-0.02c-0.002,0.007-0.003,0.011-0.004,0.018L373.41,14.646z"/>
				<path fill="#231F20" d="M372.063,14.677c-0.023-0.037-0.057-0.064-0.093-0.083C371.992,14.63,372.023,14.661,372.063,14.677z"/>
				<polygon fill="#231F20" points="363.25,14.803 363.251,14.794 363.244,14.797 				"/>
				<path fill="#231F20" d="M350.587,15.994c0.302,0.048,0.532,0.082,0.593,0.082c1.104-0.006,2.166-0.408,3.237-0.624
					c1.488-0.3,2.815,0.898,4.364,0.541c1.09-0.251,1.49-1.235,2.499-1.5c0.961-0.252,1.949,0.262,2.912,0.221
					c1.04-0.045,1.85-0.992,2.869-0.921c-0.072,0.202-0.047,0.482-0.144,0.686c0.503-0.298,0.978-0.729,1.598-0.505
					c0.416,0.151,0.51,0.877,0.988,0.323c0.571,0.34,1.125,0.895,1.854,0.731c0.087-1.097,1.558-0.628,2.229-0.68
					c0.549-0.042,1.007-0.361,1.565-0.367c0.709-0.006,1.092,0.13,1.83-0.051c0.876-0.215,1.372-0.208,2.208,0.129
					c0.85,0.343,1.042,0.5,1.819,0.041c0.754-0.445,0.633-0.346,1.469-0.284c1.125,0.083,2.246-0.039,3.37-0.073
					c0.741-0.023,1.488,0.115,2.228,0.047c1.578-0.144,2.682-0.841,3.995,0.426c0.798-1.008,3.152-0.864,4.323-0.679
					c1.126,0.179,3.408,1.14,4.293,0.003c-0.115-0.094-1.222-0.782-1.103-0.995c-0.045,0.08-0.099,0.217-0.122,0.303
					c-0.022-0.33-0.107-0.346,0.039-0.692c-0.393,0.095-0.779,0.222-1.157,0.363c-0.236-0.2-0.081-0.185-0.512-0.271
					c0.047-0.132,0.019-0.32,0.089-0.457c-0.088,0.104-0.173,0.168-0.309,0.177c-0.042-0.091-0.129-0.169-0.165-0.272
					c-0.032-0.001-0.541,0-0.54,0.011c-0.009-0.09-0.084-0.212-0.103-0.308c-0.117,0.349-0.56,0.493-0.818,0.137
					c-0.373,0.107-0.755,0.222-1.144,0.248c-0.036-0.217-0.178-0.323-0.163-0.526c-0.13,0.104-0.363,0.121-0.486,0.229
					c0.014-0.245-0.106-0.262,0.037-0.542c-0.111,0.092-0.27,0.107-0.388,0.209c-0.08-0.099-0.265-0.218-0.327-0.332
					c-0.027,0.08-0.054,0.159-0.077,0.24c-0.074,0.016-0.094-0.156-0.167-0.111c-0.432,0.394-0.577-0.216-1.072-0.057
					c-0.035,0.083-0.014,0.165-0.037,0.244c-0.044,0.007-0.088,0.009-0.133,0.004c-0.026-0.127-0.132-0.235-0.174-0.344
					c-0.001,0.058-0.016,0.112-0.045,0.162c-0.396-0.11-0.775,0.043-1.156,0c0.029-0.079,0.051-0.159,0.064-0.242
					c-0.394,0.001-0.788,0.109-1.16,0.232c-0.221-0.702-1.42-0.437-2.011-0.434c-0.008,0.055-0.018,0.109-0.028,0.163
					c-0.425-0.169-0.896,0.034-1.25-0.136c0.019-0.088,0.018-0.176-0.004-0.264c-0.217-0.058-0.555-0.094-0.782-0.046
					c0.021,0.058,0.046,0.115,0.071,0.171c-0.14,0.079-0.277,0.053-0.406,0.106c-0.042-0.075,0.068-0.082,0.021-0.162
					c-0.082-0.088-0.288-0.049-0.387-0.123c-0.027-0.008,0.119-0.105,0.12-0.095c-0.105,0.077-0.164,0.078-0.222,0.211
					c-0.122-0.074-0.329-0.089-0.467-0.17c0.158,0.268-0.007,0.014-0.047,0.349c-0.269-0.212-0.741,0.019-0.895-0.381
					c-0.263,0.061-0.577,0.021-0.746,0.002c-0.032-0.008-0.138,0.112-0.174,0.125c-0.048-0.085-0.185-0.19-0.254-0.262
					c-0.013,0.049,0.064,0.094,0.068,0.143c-0.104,0.03-0.361,0.012-0.444,0.055c-0.165-0.415-1.587-0.476-1.972-0.492
					c-0.002-0.068-0.004-0.136-0.006-0.205c-0.038,0.105-0.139,0.229-0.164,0.33c-0.051-0.065-0.091-0.136-0.119-0.214
					c-0.212-0.041-0.579-0.316-0.903-0.405c0.152,1.023-2.07,0.225-2.597,0.238c-0.05-0.031-0.038-0.19-0.055-0.242
					c-0.112,0.071-0.233,0.157-0.326,0.254c0.001-0.074-0.001-0.213-0.018-0.29c-0.221,0.274-0.358,0.288-0.657,0.308
					c0.05-0.039,0.153-0.096,0.19-0.148c-0.742,0.204-1.579,0.37-2.341,0.202c0.002-0.083,0.068-0.079,0.073-0.152
					c-0.089-0.048-0.188,0.027-0.279-0.013c0.027-0.059,0.037-0.121,0.029-0.185c-0.187-0.04-0.529-0.091-0.722-0.079
					c-0.045,0.067-0.091,0.134-0.136,0.201c-0.307-0.078-0.65-0.067-0.959-0.015c0.035-0.038,0.075-0.07,0.12-0.096
					c-0.142,0.047-0.273,0.081-0.406,0.158c-0.042-0.028,0.027-0.114-0.02-0.119c-0.645,0.237-0.93,0.049-1.562-0.001
					c-0.017,0.073,0.065,0.091,0.059,0.16c-0.277,0.005-0.257-0.03-0.413-0.164c-0.022-0.036-0.163,0.012-0.208-0.016
					c0.022-0.073,0.053-0.143,0.09-0.208c-0.401,0.713-2.102,0.021-2.597-0.4c-0.965,0.608-2.557-0.188-3.567-0.18
					c-0.477,0.004-0.872,0.273-1.438,0.256c-0.656-0.02-1.244-0.049-1.906,0.011c-1.12,0.101-2.233,0.266-3.305-0.01
					c-0.354-0.091-0.83-0.44-1.146-0.473c-0.197-0.02-0.573,0.187-0.82,0.194c-0.319,0.011-0.62-0.128-0.934-0.152
					c-0.793-0.06-1.484,0.171-2.254,0.314c-0.857,0.16-1.397-0.22-2.105-0.177c0.022,0.056,0.047,0.11,0.071,0.165
					c-0.307-0.093-0.659-0.13-0.93,0.098c-0.047-0.099-0.133-0.182-0.185-0.273c-0.169,0.139-0.429,0.19-0.581,0.376
					c-0.257-0.317-0.762-0.256-1.175-0.281c0.028,0.379,0.036,0.212-0.267,0.417c-0.025-0.158-0.15-0.321-0.16-0.49
					c0.022,0.385-0.244,0.541-0.614,0.44c-0.138-0.424-0.811-0.515-1.001,0.005c-0.042-0.082-0.107-0.183-0.138-0.27
					c-0.542-0.048-1.51,0.18-1.912-0.151c-0.063,0.162-0.236,0.287-0.296,0.426c-0.05-0.148-0.17-0.286-0.213-0.449
					c-0.01,0.151-0.127,0.304-0.154,0.434c-1.189-0.278-2.444-0.377-3.661-0.5c-1.074-0.108-1.983,0.254-2.993-0.038
					c0.146,0.055,0.257,0.155,0.387,0.224c-0.467,0.299-1.003-0.055-1.512-0.103c-0.53-0.051-1.065,0.101-1.594,0.053
					c-0.959-0.086-1.249-0.117-2.279,0.296c-0.281-0.208-0.206-0.262-0.467-0.038c-0.087-0.114-0.299-0.185-0.394-0.293
					c-0.07,0.079-0.187,0.139-0.255,0.226c-0.494-0.723-2.338-0.524-3.15-0.496c-0.589,0.021-2.374,0.485-2.655,0.074
					c-0.363,0.36-1.878,0.533-1.982-0.042c-0.258,0.144-1.083-0.159-1.507-0.182c-3.34-0.185-6.688-0.299-10.029-0.106
					c-2.36,0.136-5.553,0.187-7.531,1.687c-0.122,0.248-0.459,0.41-0.33,0.707c-0.26,0.094-0.379-0.347-0.43-0.098
					c0.354,0.166-0.109,0.646,0.236,0.957l-0.222,0.061c-0.046,0.178,0.302-0.202,0.247,0.121l0.063-0.466
					c0.18,0.07,0.278,0.168,0.342,0.326c0.169-0.182,0.276-0.814,0.68-0.539l-0.111,0.028c0.328-0.017,0.201,0.301,0.27,0.377
					l-0.072-0.004l0.276,0.235c-0.209-0.157-0.556,0.222-0.374,0.195c0.392,0.13-0.102-0.113,0.192-0.17
					c0.182-0.024,0.131,0.225,0.123,0.37l0.327-0.018c-0.012,0.217-0.217-0.012-0.084,0.212l0.412-0.23
					c0.077,0.549,0.449-0.264,0.638,0.253c-0.297,0.129,0.026,0.184-0.021,0.362l0.728-0.031c0.068,0.076-0.191,0.169-0.081,0.142
					c0.137,0.151,0.225-0.134,0.298-0.13c0.063,0.15,0.543-0.006,0.523,0.357c0.493,0.244,0.207-0.461,0.667-0.254
					c0.061,0.221-0.365,0.053-0.161,0.281l0.477-0.082c-0.043,0.107-0.093,0.358-0.271,0.311c1.289,0.291,1.984,1.454,3.162,1.158
					c0.166,0.263-0.119,0.176-0.237,0.35c0.313-0.46,1.585,0.518,1.902,0.544c0.025-0.065,0.034-0.146,0.059-0.199
					c1.002,0.616,2.227,0.306,3.327,0.525c-0.019-0.064-0.093-0.075-0.091-0.156c0.146-0.14,0.358-0.267,0.565-0.298
					c0.037,0.23,0.14,0.258,0.178,0.353c-0.048-0.088-0.095-0.143-0.121-0.235c0.234,0.821,4.521,0.642,5.213,0.66
					c2.015,0.053,4.057,0.404,6.066,0.122c-0.021-0.205,0.049-0.19,0.079-0.366c1.072,0.896,4.207,0.648,5.444,0.325
					c0.377-0.098,1.363,0.54,1.704-0.101c0.96,0.057,1.977,0.032,3.045,0.03c0.862-0.002,3.49,0.771,3.962-0.066
					c0.264,0.169,0.562,0.238,0.865,0.19c-0.07-0.041-0.152-0.036-0.217-0.081c0.005-0.024,0-0.177-0.013-0.195
					c0.131-0.074,0.3-0.093,0.451-0.099c0.285,1.164,2.245-0.213,2.98,0.526c0.027-0.341,0.16-0.437,0.369-0.642
					c0.236,1.406,2.768-0.205,3.119,0.527c0.303-0.108,0.181-0.049,0.47-0.006c-0.08,0.07-0.186,0.156-0.259,0.236
					c0.285-0.174,0.614-0.256,0.925-0.132c-0.015-0.051-0.02-0.102-0.014-0.155C348.457,15.637,349.779,15.866,350.587,15.994z"/>
				<path fill="#231F20" d="M373.585,14.691l-0.175-0.045c0,0.065-0.008,0.139-0.088,0.21L373.585,14.691z"/>
				<path fill="#231F20" d="M365.313,14.505c-0.021,0.023-0.043,0.044-0.063,0.079C365.293,14.572,365.308,14.539,365.313,14.505z"
					/>
				<path fill="#231F20" d="M363.305,15.018c0.144-0.063,0.016-0.141-0.055-0.215C363.246,14.861,363.25,14.932,363.305,15.018z"/>
				<path fill="#231F20" d="M378.271,13.921c-0.03,0.028-0.049,0.066-0.044,0.127C378.268,13.996,378.276,13.957,378.271,13.921z"/>
				<path fill="#231F20" d="M391.221,14.134c-0.017-0.015-0.031-0.023-0.052-0.044C391.179,14.111,391.197,14.125,391.221,14.134z"
					/>
				<path fill="#231F20" d="M390.503,13.677c-0.035-0.001-0.081,0.008-0.146,0.042C390.421,13.734,390.467,13.711,390.503,13.677z"
					/>
				<path fill="#231F20" d="M375.131,14.027c-0.048,0.01-0.095,0.031-0.136,0.092C375.069,14.113,375.106,14.072,375.131,14.027z"/>
				<path fill="#231F20" d="M390.208,13.783l-0.181-0.031c-0.001,0.02-0.003,0.033-0.003,0.057L390.208,13.783z"/>
				<path fill="#231F20" d="M391.448,14.17c-0.071-0.01-0.167-0.01-0.228-0.036C391.311,14.213,391.382,14.215,391.448,14.17z"/>
				<path fill="#231F20" d="M383.024,13.55c-0.006,0.005-0.013,0.004-0.02,0.007C382.864,13.682,382.952,13.629,383.024,13.55z"/>
				<path fill="#231F20" d="M389.418,14.281c-0.008-0.004-0.017-0.008-0.024-0.012l-0.053,0.08L389.418,14.281z"/>
				<path fill="#231F20" d="M392.229,14.283c-0.034,0.007-0.065,0.02-0.09,0.053c0.027,0.011,0.061,0.021,0.103,0.033
					C392.231,14.332,392.229,14.307,392.229,14.283z"/>
				<path fill="#231F20" d="M385.735,14c0.051-0.108,0.07-0.182,0.072-0.237C385.747,13.767,385.709,13.816,385.735,14z"/>
			</g>
		</g>
	</g>
</g>
</svg>
