<?xml version="1.0" encoding="utf-8"?>
<!-- Generator: Adobe Illustrator 16.0.0, SVG Export Plug-In . SVG Version: 6.00 Build 0)  -->
<!DOCTYPE svg PUBLIC "-//W3C//DTD SVG 1.1//EN" "http://www.w3.org/Graphics/SVG/1.1/DTD/svg11.dtd">
<svg version="1.1" id="Layer_1" xmlns="http://www.w3.org/2000/svg" xmlns:xlink="http://www.w3.org/1999/xlink" x="0px" y="0px"
	 width="500px" height="500px" viewBox="0 0 500 500" enable-background="new 0 0 500 500" xml:space="preserve">
<g>
	<g>
		<g>
			<path fill="#231F20" d="M232.151,246.002l0.022,0.162C232.172,246.091,232.193,246.041,232.151,246.002z"/>
			<path fill="#231F20" d="M231.111,221.214l0.16,0.039C231.215,221.209,231.16,221.205,231.111,221.214z"/>
			<path fill="#231F20" d="M216.583,217.382l-0.037-0.134C216.549,217.313,216.563,217.354,216.583,217.382z"/>
			<g>
				<path fill="#231F20" d="M216.722,227.063c0.04,2.255,0.204,4.449,0.464,6.735c0.271,2.299,0.614,4.528,1.156,6.846
					c0.569,2.381,1.148,4.692,1.842,7.091c0.661,2.381,1.17,4.742,1.653,7.2c0.215,1.297,0.429,2.592,0.644,3.884
					c0.291,1.294,0.616,2.587,0.937,3.874l0.499,1.927c0.089,0.323,0.164,0.633,0.269,0.967l0.389,1.056
					c0.258,0.729,0.552,1.346,0.851,1.963c0.294,0.63,0.605,1.236,0.94,1.804c2.642,4.644,4.896,9.015,7.374,13.548
					c2.417,4.36,6.007,7.87,8.573,12.197c0.692,1.16,1.327,2.372,2.101,3.553c0.161,0.29,1.023,0.968,1.941,1.576
					c0.427,0.302,0.971,0.599,1.413,0.818c0.442,0.222,0.803,0.372,1.002,0.417c0.353,0.059-0.657-2.075-0.781-2.632
					c-0.673-1.863-1.419-4.558-1.943-5.836c-1.065-2.575-1.509-3.783-2.856-6.208c-2.704-5.038-5.31-10.036-6.681-15.59
					c-0.572-2.233-1.44-4.318-2.286-6.336l-0.573-1.477c-0.167-0.471-0.285-0.896-0.429-1.344c-0.231-1.042-0.416-2.161-0.538-3.24
					l-0.179-1.767c-0.066-0.582-0.108-1.173-0.095-1.785l-0.041-3.611l-0.046-1.793l0.002-1.833
					c-0.017-1.219-0.075-2.434-0.195-3.646c-0.194-2.632-0.137-5.269-0.068-7.958c0.082-2.713,0.167-5.387-0.018-8.176
					c-0.09-1.364-0.182-2.715-0.304-4.085l-0.443-4.158l-0.218-2.077l-0.298-2.111c-0.2-1.41-0.389-2.82-0.557-4.233
					c-0.1-0.886-0.194-1.441-0.312-2.347c-0.05-0.397-0.122-0.858-0.197-1.327c-0.062-0.441-0.163-0.959-0.271-1.48
					c-0.095-0.514-0.229-1.027-0.434-1.725c-0.186-0.694-0.473-1.356-0.75-2.021c-0.271-0.667-0.671-1.273-1.031-1.896
					c-0.206-0.294-0.458-0.554-0.685-0.834l-0.349-0.413c-0.048-0.082-0.139-0.109-0.152-0.236l-0.227-0.25l-0.247-0.263
					l-0.125-0.129l-0.063-0.064l-0.032-0.032l0.113,0.126c-0.204-0.246-0.456-0.494-0.634-0.719
					c-0.135-0.216-0.279-0.42-0.435-0.616c-0.249-0.447-0.524-0.87-0.726-1.396c-0.437-1.015-0.782-2.262-1.006-3.722
					c-0.438-2.97-0.361-6.57-0.254-10.647c0.027-0.971,0.054-1.938,0.081-2.902l0.034-1.51l0.004-1.438
					c0.001-0.961,0.036-1.917,0.024-2.885l-0.091-2.925c-0.222-3.911-0.724-7.962-2.352-11.891
					c-0.205-0.518-0.418-1.058-0.639-1.614c-0.227-0.554-0.534-1.114-0.817-1.681c-0.292-0.566-0.598-1.135-0.918-1.695
					l-0.493-0.834c-0.191-0.269-0.393-0.533-0.594-0.792c-0.816-1.035-1.675-2.002-2.635-2.772
					c-1.034-0.736-2.121-1.295-3.243-1.588c-1.094-0.285-2.257,0.316-3.157,1.023c0.736-0.585,0.991,0.656,1,2.006
					c0.006,0.676-0.049,1.378-0.108,1.924c-0.065,0.551-0.181,0.981-0.176,1.065c-0.045,1.07,0.048,2.066,0.177,3.03
					c0.096,0.98,0.139,1.981,0.151,2.938c-0.08,3.794-1.167,7.073-1.041,10.622l0.083,1.387l0.027,1.415
					c0.015,0.945,0.101,1.859,0.087,2.821l0.059,2.833l-0.004,1.325l-0.027,1.409c-0.071,3.884-0.35,8.381,0.35,13.609
					c0.344,2.401,0.995,4.995,2.167,7.554c0.555,1.282,1.326,2.536,2.142,3.729c0.442,0.581,0.896,1.156,1.356,1.72
					c0.459,0.505,0.92,0.934,1.386,1.398c0.06,0.021,0.06,0.084,0.115,0.115c0.036,0.096,0-0.065,0.146,0.51
					c0.051,0.251,0.11,0.468,0.16,0.813c0.052,0.311,0.105,0.62,0.156,1.016c0.085,0.661,0.25,1.728,0.303,2.404
					c0.18,1.976,0.366,3.949,0.444,6.007C216.616,222.86,216.669,224.962,216.722,227.063z"/>
			</g>
		</g>
	</g>
</g>
<g>
	<g>
		<g>
			<path fill="#231F20" d="M423.389,393.333l-0.49,0.618C423.125,393.679,423.291,393.515,423.389,393.333z"/>
			<path fill="#231F20" d="M457.23,287.329l0.179,0.207C457.336,287.331,457.278,287.302,457.23,287.329z"/>
			<path fill="#231F20" d="M438.626,267.954l-0.211-0.569C438.502,267.662,438.567,267.83,438.626,267.954z"/>
			<g>
				<path fill="#231F20" d="M443.14,309.226c-0.042,1.169-0.18,2.332-0.306,3.495c-0.13,1.163-0.23,2.329-0.374,3.49l-0.524,3.476
					l-0.263,1.737l-0.34,1.728l-0.668,3.456l-0.819,3.432l-0.402,1.718l-0.479,1.702l-0.949,3.407
					c-2.757,9.035-6.351,17.882-10.598,26.465c-1.14,2.18-2.205,4.444-3.416,6.54l-1.773,3.201l-1.902,3.126l-0.954,1.565
					l-1.019,1.523l-2.041,3.054l-2.176,2.965l-1.091,1.485l-1.154,1.437l-2.32,2.876l-2.449,2.778l-1.233,1.387l-1.291,1.337
					l-2.599,2.67c-3.588,3.443-7.324,6.788-11.359,9.815c-4.265,3.21-8.651,6.261-13.231,9.015c-2.25,1.437-4.609,2.702-6.919,4.044
					c-2.365,1.25-4.696,2.56-7.108,3.725c-9.588,4.766-19.538,8.854-29.734,12.619c-10.255,3.799-20.633,6.955-31.082,10.019
					c-2.609,0.745-5.243,1.572-7.841,2.237c-2.598,0.658-5.197,1.317-7.803,1.978l-3.911,0.986c-1.327,0.253-2.655,0.507-3.985,0.76
					c-2.66,0.506-5.327,1.012-8.005,1.52c-5.21,0.812-10.411,1.622-15.609,2.431c-5.248,0.655-10.438,1.431-15.728,2.041
					c-5.283,0.65-10.541,1.221-15.807,1.732c-5.256,0.411-10.527,0.838-15.779,0.833c-5.563,0.079-11.325,0.021-17.006,0.046
					c-2.84,0.031-16.712,1.232-19.462,1.718c-1.244,0.215,6.964,0.941,9.259,1.129c7.514,0.646,19.079,1.303,25.023,1.438
					c3.019,0.054,5.643,0.122,8.067,0.137c2.421-0.053,4.645-0.101,6.878-0.149c2.238-0.043,4.474-0.166,6.923-0.323
					c2.447-0.159,5.123-0.313,8.193-0.573c6.344-0.478,12.672-1.092,18.982-1.698l2.365-0.224l2.357-0.303l4.712-0.605
					c3.137-0.43,6.287-0.719,9.4-1.322l9.373-1.589c1.571-0.22,3.105-0.646,4.66-0.97l4.657-1.034l4.671-1.021
					c1.563-0.334,3.056-0.743,4.59-1.106c3.057-0.737,6.116-1.476,9.182-2.216c19.857-4.724,40.46-11.919,59.489-21.191
					c5.147-2.51,10.216-5.206,15.181-8.125c4.929-2.977,9.78-6.126,14.428-9.602c4.62-3.506,9.136-7.201,13.337-11.271
					c1.086-0.979,2.071-2.063,3.108-3.098c1.024-1.045,2.058-2.085,3.019-3.193l2.924-3.291l2.776-3.425
					c3.844-4.934,7.508-10.017,10.744-15.367c3.211-5.305,6.258-10.665,8.952-16.282c2.683-5.608,5.14-11.362,7.137-17.317
					c1.978-5.96,3.567-12.078,4.679-18.308c1.019-6.158,1.599-12.389,1.749-18.63c0.087-6.246-0.325-12.479-1.09-18.654
					c-1.693-12.303-5.062-24.445-10.291-35.82c-6.101-13.274-14.711-25.342-24.928-35.62c-0.788-0.833-1.64-1.596-2.458-2.395
					c-0.831-0.783-1.64-1.604-2.504-2.333l-5.129-4.477l-5.296-4.212c-1.778-1.381-3.607-2.667-5.41-4.001
					c-7.277-5.209-14.768-9.935-22.256-14.473l-11.222-6.703l-11.532-6.538l-23.013-12.293c-2.661-1.468-5.315-2.932-7.964-4.393
					c-2.646-1.479-5.23-3.012-7.757-4.534c-5.013-3.071-9.69-6.304-13.749-9.932c-0.502-0.457-1.03-0.894-1.511-1.364l-1.414-1.426
					c-0.924-0.873-1.943-2.076-2.931-3.169l-5.968-6.657c-1.988-2.181-4.002-4.502-6.022-6.797c-2.187-2.464-4.376-4.931-6.57-7.403
					c-1.134-1.238-2.44-2.247-3.897-3.003c-1.458-0.762-3.081-1.166-4.721-1.293c-0.816-0.098-1.658-0.048-2.485,0.005l-2.278,0.285
					l-2.535,0.37c-3.367,0.497-6.809,1.02-10.138,1.559c-2.043,0.328-4.177,0.671-6.374,1.024c-1.098,0.177-2.212,0.357-3.337,0.539
					c-1.225,0.225-2.605,0.521-3.913,0.795c-4.937,1.173-9.557,2.532-14.155,3.98c-9.135,2.904-17.734,6.178-24.059,9.54
					c-3.06,1.628-3.715,3.162-3.417,4.268c-0.5-1.806,18.227-3.088,19.561-3.24c4.029-0.556,8.22-1.287,12.447-2.048
					c4.206-0.732,8.547-1.562,12.575-1.984c0.657-0.063,1.312-0.124,1.963-0.186c0.658-0.057,1.392-0.078,2.08-0.117
					c1.398-0.067,2.787-0.134,4.168-0.2c2.761-0.125,5.493-0.248,8.222-0.37c2.704-0.128,5.403-0.256,8.121-0.385l0.509-0.027
					c0.149-0.006,0.4-0.027,0.406-0.013l0.334,0.043c0.2,0.04,0.389,0.079,0.561,0.169c0.353,0.167,0.577,0.515,0.712,0.84
					l0.066,0.125c0.021,0.041,0.021,0.058,0.15,0.218l0.589,0.75c0.395,0.5,0.791,1.001,1.189,1.505
					c0.806,1.001,1.618,2.011,2.439,3.032c1.664,2.033,3.345,4.08,5.176,6.166c3.107,3.472,6.212,6.94,9.313,10.407l0.585,0.648
					l0.667,0.67l1.358,1.343c0.455,0.444,0.904,0.9,1.367,1.333l1.421,1.244c1.879,1.696,3.855,3.196,5.83,4.684
					c3.972,2.94,8.069,5.442,12.113,7.83c4.036,2.386,8.061,4.566,12.123,6.788c4.062,2.247,8.085,4.354,12.125,6.5
					c4.065,2.137,7.98,4.284,11.984,6.422c3.97,2.151,7.791,4.417,11.701,6.62c3.917,2.307,7.851,4.674,11.724,7.022
					c6.575,4.022,13.057,8.076,19.254,12.387c6.175,4.33,12.076,8.915,17.574,13.847c5.414,4.961,10.373,10.371,14.731,16.208
					c4.311,5.868,8.02,12.151,11.025,18.761C441.429,272.938,444.388,291.381,443.14,309.226z"/>
			</g>
		</g>
	</g>
</g>
<g>
	<g>
		<g>
			<path fill="#231F20" d="M58.805,376.905l0.116,0.457C58.877,377.155,58.87,377.015,58.805,376.905z"/>
			<path fill="#231F20" d="M59.179,308.111l0.126,0.165C59.28,308.141,59.23,308.108,59.179,308.111z"/>
			<path fill="#231F20" d="M49.158,289.905l0.111-0.435C49.202,289.675,49.171,289.805,49.158,289.905z"/>
			<g>
				<path fill="#231F20" d="M42.302,319.93c-0.891,6.872-1.41,13.814-1.333,20.75c0.077,6.934,0.607,13.846,1.657,20.635
					c0.291,1.754,0.641,3.506,0.967,5.25l0.502,2.612l0.641,2.596c0.442,1.727,0.83,3.455,1.316,5.167l1.564,5.111
					c2.263,6.764,4.867,13.422,8.116,19.895c3.435,6.849,7.625,13.315,12.597,19.126c1.288,1.412,2.515,2.883,3.865,4.231
					l4.157,3.938c2.926,2.44,5.867,4.877,9.087,6.905c6.377,4.206,12.966,7.813,19.822,10.702l2.552,1.133
					c0.853,0.356,1.711,0.673,2.566,1.013c1.711,0.671,3.424,1.342,5.14,2.014c3.481,1.212,6.94,2.541,10.516,3.612
					c6.842,2.238,13.894,3.688,20.939,4.923l5.296,0.868l5.31,0.75l2.652,0.395l2.659,0.336c1.775,0.229,3.541,0.478,5.32,0.75
					c2.229,0.263,4.162,0.278,6.094,0.316c1.868,0.021,3.734,0.044,5.605,0.065c0.898,0.021,3.598-0.274,6.102-0.328
					c1.254-0.03,2.438,0.021,3.331,0.123c0.436,0.056,0.787,0.129,1.093,0.173c0.243,0.074,0.457,0.115,0.609,0.133
					c0.139,0.014,0.09-0.105-0.093-0.333c-0.099-0.109-0.199-0.267-0.384-0.416c-0.205-0.142-0.435-0.302-0.677-0.47
					c-1.067-0.627-2.683-1.15-3.397-1.321c-4.69-1.3-12.595-1.594-16.382-2.084c-7.71-1.407-11.388-2.241-19.276-3.908
					c-8.162-1.759-16.12-3.93-23.832-6.706c-1.944-0.642-3.845-1.405-5.745-2.162c-1.901-0.754-3.802-1.499-5.655-2.369
					c-1.851-0.858-3.751-1.656-5.543-2.593c-1.772-0.952-3.547-1.907-5.325-2.863c-5.554-3.386-11.217-6.737-16.416-10.763
					c-5.163-4.041-9.945-8.597-13.827-13.719c-4.16-5.583-7.401-11.756-10-18.167c-2.57-6.431-4.592-13.093-6.047-19.984
					c-1.597-7.322-2.334-14.844-2.549-22.444c-0.211-7.585,0.062-15.169,0.631-22.756c0.564-7.471,1.498-14.965,2.93-22.328
					l0.531-2.762l0.266-1.382l0.33-1.365l1.324-5.462c0.465-1.814,1.043-3.596,1.564-5.395l0.808-2.691l0.941-2.646
					c2.883-8.247,6.449-16.259,10.819-23.808c10.884-19.15,25.53-35.979,42.731-50.308c3.948-3.179,7.881-6.309,12.029-9.184
					c4.078-2.958,8.254-5.716,12.5-8.491c8.498-5.54,17.272-11.062,25.729-17.727c4.47-3.515,9.721-7.813,14.297-12.59
					c4.587-4.754,8.412-10.031,10.329-14.716c0.932-2.281,0.356-3.626-0.541-4.337c0.721,0.566-1.606,2.715-4.279,4.596
					c-1.36,0.922-2.741,1.837-3.883,2.492c-1.147,0.652-1.988,1.112-2.174,1.237c-4.506,2.997-9.144,6.499-13.925,9.401
					c-9.296,5.583-18.269,9.38-28.068,15.588c-20.685,12.941-40.468,28.43-56.966,47.663l-2.636,3.054
					c-0.874,1.022-1.659,2.125-2.492,3.184l-2.46,3.211c-0.801,1.085-1.68,2.109-2.405,3.253l-4.522,6.728
					c-0.779,1.105-1.437,2.285-2.131,3.442l-2.065,3.482c-5.373,9.365-9.861,19.24-13.455,29.416
					c-1.167,3.014-2.027,6.151-3.048,9.264c-0.528,1.553-0.894,3.151-1.339,4.735c-0.426,1.589-0.854,3.183-1.283,4.779
					C44.519,306.846,43.108,313.333,42.302,319.93z"/>
			</g>
		</g>
	</g>
</g>
<g>
	<g>
		<g>
			<path fill="#231F20" d="M169.509,262.149l-0.038,0.173C169.497,262.247,169.534,262.204,169.509,262.149z"/>
			<path fill="#231F20" d="M180.43,238.561l0.111,0.123C180.519,238.615,180.476,238.581,180.43,238.561z"/>
			<path fill="#231F20" d="M171.157,226.46l0.068-0.154C171.18,226.373,171.162,226.42,171.157,226.46z"/>
			<g>
				<path fill="#231F20" d="M164.865,236.268c-2.633,4.576-4.602,9.687-5.854,15.015c-0.315,1.366-0.496,2.776-0.726,4.153
					c-0.198,1.389-0.475,2.74-0.581,4.142c-0.287,2.779-0.703,5.486-1.101,8.228l-0.381,2.159l-0.192,1.077l-0.126,1.086l-0.49,4.34
					c-0.158,1.445-0.137,2.904-0.18,4.355c-0.026,1.453-0.036,2.906,0.137,4.357c0.138,1.46,0.235,2.903,0.302,4.34
					c0.135,1.433,0.273,2.856,0.374,4.283l0.146,2.142l0.281,2.167c0.198,1.445,0.324,2.913,0.571,4.368
					c0.61,2.777,1.364,5.528,2.536,8.108c0.555,1.3,1.021,2.626,1.574,3.914c0.576,1.28,1.097,2.577,1.527,3.923l0.33,1.085
					l0.151,0.535l0.089,0.423c0.111,0.562,0.271,1.106,0.283,1.645c0.013,0.132,0.115,0.373,0.279,0.675
					c0.159,0.303,0.274,0.675,0.466,1.057c0.21,0.38,0.32,0.783,0.453,1.128c0.132,0.346,0.262,0.635,0.362,0.783
					c0.091,0.134,0.37-0.195,0.665-0.663c0.301-0.464,0.613-1.076,0.672-1.348c0.139-0.441,0.326-0.971,0.438-1.54
					c0.078-0.563,0.146-1.176,0.196-1.796c-0.022-1.195-0.146-2.436-0.275-3.166c-0.269-1.523-0.463-2.622-0.713-3.704
					c-0.112-0.545-0.29-1.065-0.402-1.665c-0.119-0.597-0.262-1.238-0.442-1.976c-0.187-0.759-0.373-1.515-0.558-2.269l-0.279-1.125
					l-0.179-1.146c-0.236-1.524-0.464-3.037-0.664-4.543c-0.065-1.528-0.105-3.049-0.101-4.562c0.003-0.379,0-0.754,0.016-1.134
					l0.117-1.157c0.084-0.771,0.183-1.541,0.296-2.309c0.29-2.481,0.5-4.97,0.481-7.476c0.031-1.251,0.148-2.499,0.234-3.744
					c0.099-1.243,0.202-2.482,0.521-3.682l0.961-3.882l1.224-3.795l0.587-1.888l0.67-1.863c0.44-1.242,0.785-2.508,1.167-3.768
					c1.644-5.401,4.609-10.157,7.079-15.357c2.534-5.098,5.086-10.285,8.142-15.319c1.781-2.948,3.636-5.853,5.559-8.783
					c1.214-1.833,2.387-3.721,3.536-5.635c1.16-1.891,2.262-3.856,3.357-5.825c1.268-2.288,1.706-3.098,3.02-4.903
					c1.214-1.7,2.652-3.587,3.997-5.633c2.467-3.653,4.9-7.518,6.728-11.618c1.841-4.094,3.124-8.393,3.627-12.8
					c0.483-4.644,0.781-10.912-2.211-14.631c-0.708-0.905-1.999-1.173-3.145-1.176c0.94,0,0.403,1.192-0.392,2.388
					c-0.795,1.2-1.848,2.389-1.943,2.55c-0.593,0.983-1.099,2.002-1.524,3.031c-0.436,1.026-0.804,2.064-1.342,3.034
					c-0.497,0.944-1.017,1.844-1.531,2.72c-0.552,0.846-1.099,1.685-1.648,2.527c-0.256,0.414-0.513,0.828-0.772,1.245
					c-0.272,0.406-0.532,0.814-0.776,1.229c-0.494,0.828-0.893,1.697-1.322,2.566c-1.646,3.737-3.428,7.135-5.614,10.458
					c-1.116,1.672-2.33,3.326-3.74,5.25c-0.705,0.972-1.468,2.011-2.288,3.334l-0.614,1.022l-0.456,0.795l-0.832,1.464
					c-3.752,6.641-7.733,13.357-11.949,20.129C170.162,227.689,167.332,231.807,164.865,236.268z"/>
			</g>
		</g>
	</g>
</g>
<g>
	<g>
		<g>
			<path fill="#231F20" d="M202.351,79.054l-0.195,0.034C202.244,79.081,202.306,79.098,202.351,79.054z"/>
			<path fill="#231F20" d="M230.71,75.372l-0.034,0.163C230.72,75.476,230.722,75.42,230.71,75.372z"/>
			<path fill="#231F20" d="M234.904,60.591l0.173-0.039C234.993,60.557,234.941,60.571,234.904,60.591z"/>
			<g>
				<path fill="#231F20" d="M223.019,61.562c-2.612,0.324-5.208,0.759-7.781,1.309c-2.579,0.52-5.135,1.15-7.662,1.9
					c-5.194,1.536-10.342,3.532-15.675,4.352c-5.422,0.844-10.958,0.929-16.658,1.489c-2.877,0.263-5.755,0.423-8.562,0.385
					c-1.409-0.01-2.818-0.042-4.231-0.084c-1.41-0.051-2.797-0.188-4.208-0.285c-2.738-0.135-5.383-0.244-8.083-0.314l-1.011-0.033
					l-0.88-0.106c-0.568-0.051-1.214-0.199-1.844-0.347c-0.624-0.135-1.271-0.333-1.909-0.545c-0.634-0.204-1.27-0.445-1.902-0.723
					c-1.343-0.576-2.654-1.275-4.014-1.916c-0.633-0.32-4.529-0.703-5.413-0.52c-0.375,0.082,1.546,1.634,2.008,2.069
					c1.639,1.398,4.124,3.406,5.516,4.212c1.395,0.828,2.451,1.399,3.539,1.926c1.111,0.5,2.244,0.959,4,1.388
					c6.751,1.385,13.38,1.911,20.064,3.262c5.364,1.041,11.007,0.397,16.648,0.599l4.615,0.125c1.543-0.008,3.138-0.006,4.66-0.042
					c2.951-0.093,5.896-0.261,8.821-0.674c6.22-0.907,12.553-0.833,18.756-1.883l9.095-1.563l4.5-0.746
					c1.502-0.238,2.975-0.371,4.469-0.534c1.74-0.169,3.476-0.356,5.222-0.471l5.257-0.157c2.281-0.072,4.126-0.057,7.319-0.418
					c0.777-0.067,1.283-0.187,1.916-0.285l1.813-0.313c1.234-0.2,2.34-0.465,3.505-0.702c4.613-0.972,9.07-2.087,13.565-3.126
					c2.028-0.47,4.063-0.861,6.098-1.231c2.035-0.365,4.07-0.705,6.273-1.174c1.056-0.191,2.216-0.513,3.359-0.834
					c0.576-0.171,1.135-0.3,1.724-0.519l1.767-0.682c0.585-0.245,1.18-0.451,1.751-0.75l1.705-0.922
					c0.557-0.322,1.144-0.626,1.662-0.988c0.513-0.366,1.021-0.741,1.524-1.124c4.286-3.254,8.789-7.882,9.227-12.666
					c0.122-1.165-0.624-2.258-1.452-3.049c1.34,1.319-4.867,2.055-5.21,2.144c-2.309,0.615-4.265,1.896-6.396,2.574
					c-0.508,0.178-1.01,0.342-1.505,0.499c-0.505,0.129-1.01,0.217-1.499,0.318c-0.98,0.197-1.919,0.393-2.861,0.448
					c-0.928,0.101-1.799,0.235-2.731,0.298c-0.454,0.049-0.9,0.115-1.34,0.202c-0.46,0.076-0.962,0.142-1.438,0.251
					c-4.015,0.853-8.881,1.809-13.44,2.882c-4.603,1.059-9.211,2.196-13.751,3.113c-1.964,0.424-3.792,0.733-5.634,1.069
					l-2.212,0.275l-3.163,0.207l-6.325,0.394c-2.109,0.127-4.219,0.399-6.332,0.566c-1.265,0.099-2.542,0.199-3.826,0.299
					c-1.26,0.124-2.528,0.249-3.801,0.374C228.109,61.011,225.495,61.247,223.019,61.562z"/>
			</g>
		</g>
	</g>
</g>
<g>
	<g>
		<g>
			<path fill="#231F20" d="M239.276,39.195l-0.294,0.048C239.115,39.23,239.206,39.243,239.276,39.195z"/>
			<path fill="#231F20" d="M282.232,36.526l-0.09,0.156C282.226,36.63,282.24,36.576,282.232,36.526z"/>
			<path fill="#231F20" d="M291.633,22.523l0.26-0.018C291.768,22.499,291.69,22.507,291.633,22.523z"/>
			<g>
				<path fill="#231F20" d="M273.392,21.826c-2.104,0.007-4.217-0.042-6.312,0.093c-2.092,0.152-4.182,0.333-6.265,0.543
					l-3.119,0.338c-1.036,0.141-2.067,0.319-3.099,0.488c-2.06,0.346-4.11,0.721-6.147,1.126c-2.101,0.397-4.169,0.989-6.242,1.49
					c-2.068,0.54-4.141,1.012-6.194,1.59c-2.054,0.58-4.11,1.139-6.178,1.652c-2.068,0.5-4.143,1-6.228,1.504
					c-2.215,0.493-4.425,0.984-6.631,1.476c-2.188,0.566-4.373,1.132-6.557,1.697l-3.269,0.871l-3.231,1.004
					c-2.15,0.684-4.294,1.392-6.427,2.138c-2.129,0.805-4.242,1.594-6.361,2.334l-3.178,1.094l-3.08,1.012
					c-4.085,1.326-8.339,2.37-12.706,3.503c-4.205,1.055-8.386,2.581-12.517,4.207l-3.086,1.327l-1.545,0.651
					c-0.513,0.227-1.018,0.486-1.528,0.724c-1.019,0.484-2.043,0.955-3.076,1.409c-0.519,0.238-1.05,0.533-1.578,0.791
					c-0.533,0.259-1.063,0.527-1.58,0.836c-2.256,1.199-4.439,2.674-6.404,4.492c-0.231,0.234-0.683,0.718-1.144,1.409
					c-0.434,0.713-1.005,1.527-1.413,2.436c-0.903,1.774-1.396,3.674-1.496,4.302c-0.041,0.29,0.567-0.312,1.256-1.043
					c0.653-0.757,1.563-1.537,1.915-1.89c0.569-0.593,1.349-1.143,2.075-1.749c0.758-0.58,1.594-1.117,2.384-1.629
					c1.641-0.971,3.22-1.733,4.294-2.225c0.542-0.245,1.048-0.473,1.526-0.689c0.492-0.184,0.956-0.357,1.401-0.523
					c0.86-0.358,1.757-0.569,2.583-0.864c0.841-0.279,1.676-0.57,2.582-0.906c0.933-0.284,1.942-0.601,3.102-0.984
					c9.647-3.086,19.487-4.716,29.897-6.8c2.045-0.376,4.037-0.852,6.043-1.399c2.003-0.538,3.987-1.185,6.007-1.715
					c4.022-1.119,8.03-2.357,12.092-3.043c8.756-1.702,17.614-2.398,26.378-3.818c2.341-0.33,4.688-0.606,7.035-0.855
					c2.346-0.261,4.711-0.321,7.063-0.479l3.529-0.209c1.175-0.077,2.356-0.072,3.533-0.122c2.355-0.078,4.707-0.187,7.06-0.354
					c4.652-0.112,9.3-0.225,13.948-0.337l7.246-0.06c2.365-0.01,5.024-0.017,6.826,0.043c2.274,0.136,4.382,0.517,6.232,1.193
					c0.442,0.203,0.886,0.397,1.333,0.583c0.116,0.04,0.218,0.102,0.318,0.167l0.258,0.158l0.053,0.042l0.188,0.173
					c0.076,0.068,0.146,0.14,0.202,0.22c0.31,0.045-0.118,0.743-0.263,1.191l-0.281,0.73l-0.068,0.181l-0.047,0.128
					c-0.062,0.162-0.156,0.472-0.23,0.725l-0.345,1.125c-0.201,0.692-0.495,1.575-0.767,2.414c-0.267,0.788-0.563,1.838-0.839,2.779
					l-0.209,0.724l-0.182,0.817l-0.348,1.636l-0.084,0.409l-0.041,0.205c-0.013,0.056-0.015,0.045-0.021,0.071
					c-0.023,0.069-0.041,0.139-0.056,0.21c0.005,0.096-0.108,0.393-0.19,0.644c-0.36,1.074-1.035,2.547-1.782,4.152l-0.584,1.273
					l-0.612,1.42c-0.207,0.497-0.425,1.108-0.628,1.66l-0.369,0.931c-0.859,2.245-2.189,4.107-4.446,6.427l-1.5,1.503L289.63,72.2
					l-1.715,1.723c-0.563,0.584-1.104,1.194-1.658,1.789l-1.655,1.795c-0.533,0.614-1.039,1.251-1.561,1.876l-1.546,1.89
					l-1.424,1.913c-0.978,1.288-1.841,2.546-2.701,3.811c-0.879,1.281-1.701,2.513-2.516,3.757l-1.218,1.877l-0.602,0.948
					l-0.591,1.044c-0.783,1.396-1.551,2.807-2.297,4.234l-0.224,0.411c0.051-0.104,0.107-0.207,0.168-0.306
					c0.089-0.144,0.057-0.087,0.064-0.097l0.002,0.003l0.01,0.011c-0.006,0.021,0.057-0.019-0.048,0.116
					c-0.228,0.284-0.695,0.746-1.233,1.23c-0.541,0.49-1.177,1.026-1.852,1.587c-1.346,1.122-2.844,2.338-4.306,3.65
					s-2.897,2.722-4.165,4.275c-1.267,1.57-2.374,3.222-3.148,5.302c-0.177,0.479-0.291,1.036-0.295,1.462
					c-0.018,0.497,0.038,0.926,0.205,1.23c0.343,0.604,0.855,0.964,1.378,1.198c-0.215-0.095-0.292-0.284-0.256-0.548
					c0.026-0.242,0.27-0.682,0.567-0.998c0.615-0.692,1.579-1.235,2.578-1.636c1.999-0.799,4.189-1.128,4.458-1.229
					c3.247-1.072,6.456-2.657,9.761-4.185c1.237-0.578,2.469-1.147,3.751-1.884c0.65-0.374,1.278-0.762,2.028-1.368
					c0.767-0.613,1.413-1.359,2.004-2.171c1.337-1.42,2.591-2.813,3.86-4.304c1.355-1.516,2.677-3.153,3.908-4.888
					c1.044-1.447,2.062-2.966,3.087-4.3c0.516-0.677,1.002-1.402,1.528-2.043l1.561-1.934c0.495-0.663,1.082-1.251,1.625-1.873
					c0.557-0.611,1.085-1.242,1.653-1.845c1.14-1.192,2.343-2.374,3.739-3.788c1.349-1.34,2.874-3.02,4.31-4.864
					c0.691-1,1.42-1.98,2.029-3.074c0.589-1.111,1.242-2.202,1.663-3.381l0.685-1.749l0.359-0.949
					c0.108-0.283,0.287-0.667,0.425-0.996l0.53-1.155c0.755-1.649,1.666-3.445,2.522-5.913c0.18-0.531,0.36-1.032,0.519-1.751
					l0.366-1.647c0.137-0.557,0.216-1.065,0.369-1.668l0.566-1.942l0.713-2.241c0.658-2.331,2.627-8.607,4.153-13.584l0.149-0.486
					c-0.056-0.141-0.252-0.255-0.371-0.385l-0.824-0.753l-1.647-1.507c-1.076-1.034-2.262-1.915-3.39-2.874
					c-1.044-0.989-2.504-1.772-3.854-2.609l-0.487-0.294l-0.352-0.191c-0.235-0.125-0.466-0.263-0.712-0.358l-1.462-0.616
					c-3.921-1.605-7.965-2.281-11.74-2.49c-3.873-0.127-7.814-0.256-11.787-0.387C281.549,21.908,277.405,21.86,273.392,21.826z"/>
			</g>
		</g>
	</g>
</g>
<g>
	<g>
		<g>
			<path fill="#231F20" d="M170.314,106.794l0.063,0.064C170.356,106.825,170.359,106.789,170.314,106.794z"/>
			<path fill="#231F20" d="M162.625,95.786l0.146-0.065C162.712,95.729,162.664,95.756,162.625,95.786z"/>
			<path fill="#231F20" d="M149.241,101.125l-0.063-0.06C149.195,101.102,149.216,101.119,149.241,101.125z"/>
			<g>
				<path fill="#231F20" d="M151.982,106.383c1.471,2.263,3.25,4.289,5.577,5.94c2.307,1.725,5.113,3.036,7.044,5.08
					c1.087,1.071,2.168,2.137,3.25,3.202c0.965,0.917,1.948,1.703,3.068,2.568c2.246,1.646,3.975,3.853,5.803,6.085
					c1.824,2.173,4.556,3.422,6.387,5.717c0.495,0.618,0.874,1.333,1.421,1.95c0.265,0.318,2.353,0.862,2.875,0.758
					c0.236-0.046-0.087-1.499-0.167-1.879c-0.145-0.633-0.339-1.387-0.534-2.065c-0.193-0.68-0.351-1.339-0.521-1.71
					c-0.333-0.765-0.572-1.315-0.85-1.824c-0.267-0.526-0.566-1.025-1.029-1.651c-1.911-2.592-3.738-5.148-4.92-8.461
					c-0.462-1.334-1.334-2.426-2.264-3.475c-0.898-1.027-2.087-2.105-2.786-3.21c-0.712-1.152-1.346-2.337-2.011-3.48
					c-0.633-1.225-1.313-2.387-2.19-3.396c-1.828-2.252-2.909-5.059-4.682-7.437l-2.709-3.487c-0.906-1.17-1.801-2.35-2.613-3.617
					c-0.951-1.47-1.852-2.955-2.708-4.514c-1.075-1.955-2.296-3.827-3.566-5.704c-0.634-0.938-1.231-1.838-2.013-2.899l-1.1-1.539
					l-1.105-1.458c-2.634-3.514-4.172-7.401-6.773-9.932c-1.465-1.383-2.775-3.198-6.165-3.062
					c-0.834,0.032-2.038,0.548-3.042,1.101c0.825-0.45,0.665,0.263,0.315,1.163c-0.353,0.895-0.885,1.993-0.915,2.119
					c-0.38,1.504-0.05,2.73-0.006,4.134c0.074,1.325,0.06,2.668,0.167,3.987c0.109,1.274,0.345,2.483,0.924,3.522
					c1.178,2.107,2.547,3.962,3.787,5.657l0.953,1.264l0.869,1.232c0.299,0.432,0.569,0.764,0.898,1.275l0.957,1.458
					c2.155,3.297,4.487,6.591,6.619,10.052C149.468,101.914,150.66,104.211,151.982,106.383z"/>
			</g>
		</g>
	</g>
</g>
</svg>
