<?xml version="1.0" encoding="utf-8"?>
<!-- Generator: Adobe Illustrator 16.0.0, SVG Export Plug-In . SVG Version: 6.00 Build 0)  -->
<!DOCTYPE svg PUBLIC "-//W3C//DTD SVG 1.1//EN" "http://www.w3.org/Graphics/SVG/1.1/DTD/svg11.dtd">
<svg version="1.1" id="Layer_1" xmlns="http://www.w3.org/2000/svg" xmlns:xlink="http://www.w3.org/1999/xlink" x="0px" y="0px"
	 width="500px" height="500px" viewBox="0 0 500 500" enable-background="new 0 0 500 500" xml:space="preserve">
<g>
	<g>
		<g>
			<path fill="#231F20" d="M241.828,245.277l0.033,0.149C241.867,245.358,241.926,245.309,241.828,245.277z"/>
			<path fill="#231F20" d="M241.12,220.439l0.396,0.023C241.38,220.423,241.243,220.425,241.12,220.439z"/>
			<path fill="#231F20" d="M205.558,218.681l-0.065-0.116C205.488,218.625,205.516,218.658,205.558,218.681z"/>
			<g>
				<path fill="#231F20" d="M204.661,227.686c-0.021,1.089,0.027,2.173,0.147,3.255c0.12,1.088,0.314,2.13,0.573,3.308
					c0.261,1.146,0.594,2.289,1.001,3.424c0.404,1.125,0.886,2.261,1.468,3.467c0.592,1.217,1.252,2.422,1.919,3.617l2.034,3.653
					c1.335,2.47,2.382,4.868,2.993,7.512c0.288,1.384,0.543,2.765,0.798,4.144c0.34,1.404,0.718,2.817,1.111,4.211
					c0.199,0.698,0.406,1.393,0.625,2.083c0.115,0.354,0.21,0.668,0.351,1.052l0.539,1.309c0.184,0.411,0.383,0.906,0.572,1.237
					l0.586,1.035l0.616,1.016c0.211,0.313,0.427,0.604,0.648,0.902c1.774,2.413,3.192,4.614,4.456,6.959
					c1.278,2.304,2.39,4.675,3.59,7.048c1.142,2.3,3.046,4.137,4.879,5.994c1.84,1.863,3.62,3.726,4.688,6.23
					c0.295,0.674,0.545,1.384,0.792,2.104c0.26,0.725,0.57,1.478,0.889,2.205c0.091,0.184,0.372,0.4,0.863,0.663
					c0.494,0.264,1.125,0.536,1.773,0.767c0.601,0.207,1.42,0.477,2.086,0.623c0.667,0.149,1.218,0.206,1.544,0.159
					c0.297-0.043,0.306-0.973,0.304-1.956c-0.017-0.992-0.021-2.019,0.039-2.438c0.11-2.818,0.676-6.456,0.566-8.019
					c-0.216-3.142-0.263-4.57-1.294-7.13c-1.023-2.67-2.088-5.26-2.814-8.013c-0.74-2.735-1.18-5.622-0.917-8.728
					c0.184-2.51-0.473-4.495-1.172-6.261l-0.445-1.198c-0.112-0.337-0.149-0.543-0.227-0.818c-0.149-0.878-0.24-1.938-0.146-2.924
					c0.05-0.545,0.115-1.089,0.187-1.628l0.114-0.807l0.181-0.854c0.252-1.143,0.51-2.269,0.721-3.373
					c0.109-0.557,0.188-1.088,0.282-1.652c0.106-0.581,0.194-1.157,0.256-1.73c0.125-1.146,0.148-2.277,0.016-3.4
					c-0.133-1.211-0.072-2.534,0.024-3.799c0.108-1.299,0.261-2.509,0.45-3.895c0.36-2.716,0.716-5.331,0.442-8.229
					c-0.134-1.402-0.291-2.773-0.487-4.192l-0.684-4.383l-0.333-2.186l-0.403-2.283c-0.263-1.528-0.497-3.057-0.682-4.593
					l-0.298-2.379l-0.09-0.713l-0.125-0.865c-0.047-0.304-0.072-0.541-0.138-0.901l-0.201-1.071l-0.104-0.535
					c-0.03-0.167-0.072-0.359-0.134-0.597l-0.349-1.331c-0.185-0.779-0.655-2.049-1.089-3.107l-0.171-0.409
					c-0.063-0.144-0.091-0.228-0.245-0.529c-0.253-0.501-0.525-1-0.816-1.489c-0.58-0.979-1.232-1.925-1.933-2.807l-0.265-0.334
					l-0.088-0.118l-0.176-0.236l-0.175-0.237l-0.043-0.059l-0.022-0.03l-0.011-0.015l-0.001-0.002
					c0.574-0.033-5.007,0.282-2.645,0.149l-0.001,0.001l-0.002,0.003l-0.035,0.046c-0.123,0.155-0.277,0.315-0.466,0.474
					l-0.064,0.052l0.01-0.007l0.014-0.009c0.007-0.003,0.01-0.003,0.007,0.001l-0.009,0.009l0.135-0.096
					c0.106-0.073,0.21-0.136,0.313-0.192l0.347-0.177c0.222-0.125,0.444-0.238,0.666-0.338c0.222-0.101,0.443-0.188,0.663-0.263
					c0.19-0.073,0.863-0.353,0.676-0.284c0.006-0.033-0.034,0.022-0.042-0.1c-0.014-0.099-0.062-0.13-0.093-0.276
					c-0.027-0.155-0.066-0.308-0.116-0.461c-0.152-0.777-0.294-2.003-0.341-3.545c-0.054-1.541-0.009-3.399,0.07-5.637l0.082-1.568
					l0.127-1.684c0.096-1.134,0.192-2.265,0.288-3.394l0.343-3.253l0.227-3.374c0.089-1.116,0.054-2.303,0.016-3.473
					c-0.063-1.183-0.078-2.326-0.294-3.542c-0.198-1.205-0.449-2.407-0.769-3.593c-0.294-1.177-0.839-2.407-1.37-3.568
					c-0.291-0.617-0.595-1.261-0.907-1.925c-0.322-0.66-0.741-1.351-1.146-2.028c-0.416-0.68-0.86-1.355-1.342-2.009
					c-0.241-0.327-0.492-0.648-0.752-0.96c-0.287-0.313-0.59-0.619-0.901-0.913c-1.253-1.175-2.659-2.183-4.312-2.828
					c-1.734-0.624-3.66-0.894-5.781-0.646c-2.069,0.239-4.77,2.036-7.02,3.806c1.836-1.465,1.575,0.354,0.667,2.398
					c-0.451,1.024-1.062,2.103-1.584,2.936c-0.527,0.838-1.007,1.472-1.063,1.589c-0.774,1.469-1.238,2.691-1.621,3.815
					c-0.416,1.142-0.834,2.25-1.39,3.317c-2.27,4.273-6.372,7.595-6.994,10.579c-0.075,0.392-0.135,0.776-0.189,1.16
					c-0.077,0.408-0.143,0.811-0.199,1.211c-0.123,0.811-0.151,1.555-0.254,2.401c-0.084,0.81-0.118,1.667-0.152,2.421
					c-0.033,0.329-0.054,0.637-0.073,0.979l-0.067,1.187c-0.084,1.721-0.16,3.875-0.141,6.41c0.027,2.54,0.13,5.473,0.611,8.918
					c0.428,2.95,1.24,6.308,2.73,9.792c1.456,3.497,3.854,7.089,6.647,10.003l1.077,1.068l0.548,0.523l0.276,0.259l0.139,0.128
					l0.069,0.064l0.035,0.032c19.214-22.817,5.326-6.32,9.614-11.411l-0.001,0.008l-0.001,0.015l-0.091,0.977l-0.023,0.244
					c-0.003,0.081,0.009,0.168-0.139,0.223c-0.216,0.122-0.441,0.223-0.672,0.301c-0.231,0.078-0.467,0.134-0.706,0.167
					c-0.119,0.017-0.239,0.028-0.358,0.035l-0.179,0.005c-0.063,0.008-0.153,0.077-0.229,0.111
					c-0.632,0.337-1.281,0.621-1.941,0.849c-0.348,0.125-0.622,0.19-1.039,0.326c-0.517,0.196-1.037,0.379-1.56,0.547
					c-1.046,0.336-2.104,0.616-3.169,0.838c-0.147,0.033-0.235,0.042-0.431,0.092l-0.7,0.188l-1.402,0.357l-0.703,0.169
					c-0.171,0.04-0.093,0.023-0.111,0.028v0.002l0.001,0.008c0.003,0.032,0.003-0.029,0.019,0.077l0.099,0.698l0.148,1.217
					l0.09,0.761l0.038,0.554c0.097,1.778,0.108,3.504,0.019,5.398C204.793,223.76,204.69,225.638,204.661,227.686z"/>
			</g>
		</g>
	</g>
</g>
<g>
	<g>
		<g>
			<path fill="#231F20" d="M430.873,399.509l-0.516,0.666C430.605,399.889,430.811,399.737,430.873,399.509z"/>
			<path fill="#231F20" d="M467.197,286.132l0.415,0.196C467.459,286.116,467.318,286.094,467.197,286.132z"/>
			<path fill="#231F20" d="M428.068,271.384l-0.22-0.499C427.919,271.136,427.993,271.281,428.068,271.384z"/>
			<g>
				<path fill="#231F20" d="M431.087,308.442c-0.043,1.038-0.179,2.071-0.297,3.105l-0.337,3.104l-0.461,3.1l-0.221,1.552
					l-0.292,1.548l-0.553,3.104l-0.679,3.099l-0.324,1.555l-0.396,1.549l-0.766,3.111c-2.242,8.281-5.115,16.622-8.549,25.004
					c-0.927,2.121-1.797,4.383-2.75,6.391l-1.403,3.109l-1.529,3.053l-0.767,1.536l-0.833,1.497l-1.673,3.013l-1.815,2.937
					l-0.915,1.476l-0.983,1.43l-1.985,2.866l-2.134,2.773l-1.082,1.385l-1.146,1.336c-0.769,0.887-1.534,1.783-2.323,2.661
					c-3.237,3.432-6.683,6.742-10.502,9.671c-4.038,3.104-8.214,6.051-12.597,8.719c-2.148,1.392-4.415,2.621-6.626,3.928
					c-2.273,1.217-4.507,2.496-6.829,3.642c-9.213,4.683-18.805,8.813-28.701,12.893c-9.95,4.117-20.211,7.398-30.642,10.481
					l-3.925,1.149c-1.303,0.371-2.644,0.786-3.888,1.076c-2.531,0.627-5.064,1.255-7.604,1.884l-3.812,0.934
					c-1.3,0.235-2.601,0.471-3.903,0.707c-2.604,0.468-5.216,0.938-7.838,1.409c-2.529,0.446-5.115,0.754-7.657,1.203
					c-2.559,0.407-5.083,0.925-7.656,1.331l-7.731,1.24c-2.568,0.431-5.152,0.861-7.797,1.246
					c-5.274,0.812-10.476,1.521-15.697,2.087c-5.186,0.462-10.405,0.856-15.548,0.661c-1.376-0.047-2.749-0.093-4.121-0.14
					l-4.281-0.199c-2.87-0.138-5.738-0.275-8.614-0.413c-0.695-0.031-2.151,0.122-3.862,0.355c-1.711,0.234-3.767,0.57-5.824,0.945
					c-4.113,0.749-8.243,1.651-9.594,2.19c-1.24,0.491,6.92,2.632,9.22,3.191c3.742,0.924,8.542,1.978,13.141,2.843
					c4.604,0.873,8.934,1.621,11.955,1.926c3.041,0.309,5.693,0.595,8.146,0.799c2.443,0.149,4.692,0.264,6.952,0.342
					c2.266,0.097,4.521,0.093,6.989,0.04c2.462-0.055,5.171-0.12,8.246-0.295c3.194-0.181,6.346-0.318,9.546-0.544
					c3.201-0.221,6.393-0.44,9.578-0.659l2.392-0.162l2.393-0.24l4.785-0.477c3.189-0.341,6.386-0.534,9.574-1.037
					c3.202-0.42,6.402-0.84,9.602-1.259c1.61-0.158,3.198-0.523,4.803-0.784l4.819-0.831l4.849-0.799
					c1.632-0.258,3.12-0.565,4.691-0.833c3.101-0.548,6.225-1.072,9.386-1.572c20.394-3.223,41.138-11.502,61.188-20.45
					c5.43-2.425,10.823-5.027,16.143-7.881c5.286-2.912,10.522-6.024,15.563-9.527c5.015-3.532,9.925-7.313,14.488-11.554
					c1.175-1.02,2.251-2.152,3.371-3.238c1.109-1.097,2.224-2.192,3.263-3.364l3.145-3.49l2.967-3.654
					c4.092-5.279,8.048-10.676,11.592-16.34c0.946-1.407,1.714-2.781,2.579-4.173c0.847-1.386,1.696-2.77,2.488-4.202l2.415-4.273
					l2.295-4.373c2.971-5.896,5.714-11.991,7.943-18.364c2.21-6.377,3.973-12.98,5.134-19.739
					c1.069-6.683,1.642-13.456,1.732-20.234c0.028-6.783-0.491-13.538-1.393-20.206c-1.962-13.253-5.722-26.373-11.401-38.733
					c-6.623-14.425-15.908-27.572-26.795-38.762c-0.843-0.906-1.745-1.737-2.619-2.605c-0.884-0.85-1.757-1.745-2.664-2.527
					l-5.429-4.806l-5.574-4.478c-1.87-1.463-3.772-2.81-5.663-4.212c-7.595-5.456-15.318-10.3-22.928-14.877l-11.324-6.706
					l-11.875-6.682l-11.71-6.249c-3.799-2.017-7.703-4.055-11.399-6.089c-2.971-1.639-5.915-3.306-8.829-5.002
					c-2.889-1.739-5.727-3.464-8.24-5.189c-5.164-3.443-9.337-6.983-12.507-10.61c-4.229-5.008-8.459-10.017-12.701-15.04l-1.691-2
					l-0.424-0.499l-0.213-0.25c-0.021-0.03-0.088-0.097-0.17-0.177l-0.223-0.221l-1.784-1.764c-2.396-2.353-4.796-4.707-7.197-7.064
					c-0.614-0.564-1.184-1.231-1.836-1.711c-0.677-0.414-1.386-0.791-2.12-1.14c-1.478-0.698-3.076-1.262-4.654-1.633l-1.184-0.265
					l-1.191-0.179c-0.798-0.108-1.652-0.068-2.481-0.09c-1.672-0.009-3.357,0.034-5.037,0.13c-1.699,0.255-3.404,0.511-5.113,0.767
					l-2.564,0.392l-1.307,0.217c-1.743,0.292-3.513,0.603-5.15,0.912c-2.011,0.373-4.11,0.761-6.271,1.161
					c-1.081,0.203-2.176,0.408-3.284,0.616c-0.751,0.159-1.506,0.319-2.264,0.479c-0.791,0.18-1.585,0.36-2.383,0.541
					c-0.376,0.091-0.845,0.191-1.144,0.28l-0.932,0.271c-0.622,0.184-1.245,0.368-1.869,0.552c-1.229,0.375-2.542,0.751-3.702,1.152
					c-2.347,0.802-4.73,1.63-6.999,2.526c-9.096,3.569-17.403,7.97-23.111,13.494c-2.739,2.674-2.86,6.08-2.102,8.842
					c-1.287-4.511,19.057-0.158,20.455-0.043c4.249,0.245,8.59,0.091,12.932-0.152c2.155-0.117,4.324-0.234,6.487-0.352
					c1.062-0.033,2.122-0.065,3.179-0.098l1.577-0.034l1.401,0.085c0.873,0.065,1.74,0.131,2.603,0.195
					c1.004,0.088,2.002,0.175,2.997,0.262c1.995,0.189,3.972,0.376,5.939,0.562c3.718,0.412,8.817,0.64,9.04,1.489
					c0.665,0.416,1.19,0.697,1.599,1.254c0.414,0.582,0.475,1.482,0.603,2.091c0.043,0.292,0.086,0.586,0.129,0.882l0.024,0.196
					l0.011,0.095l0.006,0.046l0.116,0.168c0.313,0.446,0.626,0.895,0.941,1.345c1.288,1.802,2.563,3.548,4.057,5.369
					c3.046,3.683,6.13,7.338,9.246,10.966l0.584,0.68l0.747,0.781l1.54,1.58c0.518,0.521,1.032,1.056,1.557,1.562l1.594,1.446
					c2.127,1.973,4.311,3.686,6.494,5.374c4.382,3.33,8.749,6.057,12.944,8.587c2.132,1.283,4.115,2.429,6.182,3.601l6.167,3.426
					c4.157,2.321,8.146,4.422,12.198,6.578c3.948,2.114,7.898,4.229,11.852,6.345c2.003,1.042,3.81,2.128,5.71,3.192l5.645,3.205
					l5.854,3.469l5.778,3.481c6.464,3.953,12.759,7.871,18.668,11.948c5.88,4.089,11.407,8.35,16.47,12.846
					c4.938,4.485,9.418,9.342,13.323,14.559c3.857,5.247,7.144,10.843,9.777,16.74C430.224,275.88,432.384,292.668,431.087,308.442z
					"/>
			</g>
		</g>
	</g>
</g>
<g>
	<g>
		<g>
			<path fill="#231F20" d="M68.25,374.682l0.118,0.414C68.335,374.904,68.368,374.768,68.25,374.682z"/>
			<path fill="#231F20" d="M69.02,310.095l0.359,0.203C69.274,310.154,69.145,310.107,69.02,310.095z"/>
			<path fill="#231F20" d="M38.507,286.78l0.089-0.472C38.518,286.524,38.5,286.667,38.507,286.78z"/>
			<g>
				<path fill="#231F20" d="M30.318,318.423c-1.024,7.273-1.491,14.665-1.162,22.044c0.329,7.376,1.313,14.718,3.014,21.853
					c0.459,1.854,0.992,3.714,1.506,5.551l0.79,2.749l0.938,2.739c0.641,1.82,1.229,3.628,1.916,5.424l2.154,5.356l0.529,1.331
					l0.599,1.321l1.187,2.636l1.159,2.631c0.378,0.877,0.85,1.735,1.261,2.604c0.865,1.729,1.633,3.48,2.503,5.205
					c0.906,1.714,1.782,3.438,2.625,5.182c3.773,7.309,8.303,14.273,13.73,20.479c1.401,1.51,2.748,3.072,4.223,4.501
					c1.505,1.399,3.022,2.783,4.551,4.146c3.197,2.551,6.441,5.049,9.97,7.055c7.003,4.161,14,7.811,21.176,10.813l2.673,1.18
					c0.884,0.37,1.756,0.695,2.634,1.049c1.751,0.699,3.505,1.399,5.262,2.102c3.561,1.279,7.097,2.688,10.754,3.841
					c7.003,2.394,14.352,3.516,21.628,4.468l5.461,0.675c1.818,0.217,3.642,0.388,5.453,0.629l5.43,0.735
					c1.813,0.256,3.603,0.563,5.426,0.933c2.758,0.408,4.769,0.534,6.791,0.719c1.858,0.161,3.716,0.322,5.578,0.483
					c0.862,0.08,3.42-0.49,5.514-0.958c1.052-0.24,1.944-0.439,2.503-0.645c0.186-0.058,0.2-0.097,0.314-0.155
					c0.081-0.056,0.211-0.114,0.256-0.175c0.024-0.07,0.034-0.104,0.094-0.214c0.182-0.328,0.362-0.598,0.514-0.808
					c0.141-0.191,0.149-0.199,0.047-0.065c-0.049,0.07-0.122,0.174-0.218,0.31c-0.015,0.012,0.042-0.098,0.057-0.151
					c0.035-0.135,0.125-0.308,0.085-0.507c-0.063-0.194-0.151-0.415-0.263-0.657c-0.583-0.938-2.016-1.911-2.67-2.258
					c-2.111-1.237-5.293-2.365-8.346-3.271c-3.063-0.904-6.003-1.65-7.809-2.135c-0.473-0.106-0.866-0.262-1.272-0.38
					c-0.443-0.15-0.872-0.296-1.29-0.438c-0.84-0.282-1.634-0.549-2.396-0.805c-1.521-0.513-2.919-0.921-4.314-1.369
					c-1.394-0.455-2.793-0.875-4.331-1.293c-0.769-0.2-1.572-0.41-2.425-0.632c-0.848-0.234-1.747-0.481-2.71-0.748
					c-7.973-2.08-15.724-4.498-23.145-7.651c-1.871-0.736-3.693-1.603-5.506-2.473c-1.814-0.866-3.62-1.735-5.369-2.743
					c-1.738-0.992-3.549-1.952-5.178-3.04c-1.616-1.095-3.206-2.211-4.764-3.351c-4.859-3.939-9.988-7.15-14.731-10.872
					c-4.694-3.729-9.111-7.843-12.319-12.73c-3.425-5.324-5.813-11.174-7.713-17.12c-1.873-5.977-3.36-12.04-4.727-18.348
					c-1.502-6.703-1.896-13.714-1.81-20.889c0.092-7.135,0.624-14.223,1.073-21.361c0.442-7.019,1.152-14.158,2.353-21.12
					l0.443-2.611l0.222-1.308l0.286-1.287l1.155-5.154c0.411-1.711,0.937-3.384,1.41-5.077l0.74-2.53l0.88-2.478
					c2.703-7.727,6.125-15.181,10.373-22.136c0.618-1.126,1.331-2.201,2.024-3.284l2.054-3.264c0.646-1.113,1.449-2.116,2.162-3.18
					l2.18-3.163c1.373-2.156,3.061-4.125,4.593-6.19c0.788-1.019,1.541-2.061,2.349-3.069l2.525-2.961
					c6.696-7.922,14.168-15.412,22.468-22.239c3.822-3.037,7.7-5.92,11.856-8.537c4.08-2.694,8.26-5.13,12.568-7.66
					c8.625-5.054,17.715-10.343,26.328-17.605c4.537-3.821,10.025-8.483,14.515-14.066c4.495-5.548,7.871-12.054,8.24-18.401
					c0.182-3.092-1.919-5.648-4.169-7.419c1.837,1.428-1.167,3.204-4.731,4.358c-1.806,0.56-3.687,1.028-5.222,1.306
					c-1.541,0.276-2.671,0.436-2.905,0.511c-5.646,1.786-10.646,4.637-16.04,6.577c-10.492,3.717-20.838,4.937-31.033,10.63
					c-5.333,2.986-10.708,6.224-16.014,9.813c-2.622,1.813-5.226,3.652-7.814,5.514c-2.56,1.942-5.095,3.932-7.623,5.925
					c-10.032,8.157-19.537,17.362-28.284,27.551l-2.791,3.244c-0.924,1.087-1.764,2.263-2.646,3.393l-2.608,3.428
					c-0.85,1.159-1.772,2.254-2.546,3.478l-4.793,7.207c-0.823,1.187-1.52,2.446-2.255,3.683l-2.183,3.723
					c-5.683,10.015-10.438,20.562-14.344,31.373c-1.261,3.207-2.231,6.523-3.372,9.824c-0.588,1.647-1.013,3.334-1.519,5.011
					c-0.488,1.683-0.977,3.369-1.467,5.059c-0.812,3.4-1.734,6.832-2.432,10.263l-1.019,5.157L30.318,318.423z"/>
			</g>
		</g>
	</g>
</g>
<g>
	<g>
		<g>
			<path fill="#231F20" d="M178.8,264.949l-0.021,0.157C178.808,265.042,178.881,265.016,178.8,264.949z"/>
			<path fill="#231F20" d="M189.164,243.51l0.317,0.237C189.389,243.641,189.274,243.567,189.164,243.51z"/>
			<path fill="#231F20" d="M161.606,220.804l0.043-0.173C161.597,220.695,161.592,220.751,161.606,220.804z"/>
			<g>
				<path fill="#231F20" d="M154.205,230.59c-2.92,4.76-4.68,10.596-4.999,16.926c-0.071,1.613,0.036,3.279,0.107,4.896
					c0.102,1.63,0.138,3.207,0.317,4.818c0.284,3.197,0.338,6.224,0,9.189l-0.348,2.333l-0.182,1.162l-0.117,1.171
					c-0.156,1.56-0.31,3.116-0.429,4.674c-0.125,1.556-0.047,3.124,0.005,4.684c0.07,1.562,0.197,3.12,0.567,4.667
					c0.336,1.557,0.572,3.086,0.732,4.606c0.228,1.514,0.415,3.015,0.533,4.522l0.154,2.265l0.262,2.347
					c0.178,1.566,0.271,3.162,0.49,4.744c0.554,3.024,1.748,5.916,3.284,8.576c0.737,1.344,1.372,2.711,2.009,4.061
					c0.66,1.342,1.186,2.728,1.482,4.23c0.078,0.402,0.143,0.811,0.201,1.224l0.042,0.311l0.021,0.155l0.01,0.078l0.002,0.02
					l0,0.003c0.044,0.104-0.389-0.898-0.205-0.474v0.001l0,0.005l0,0.009l0.002,0.034l0.036,0.563l0.065,1.128l0.018,0.282
					c0.021,0.119-0.053,0.068-0.074,0.108l-0.184,0.095c-0.055,0.027,0.027,0.011,0.239-0.002c0.21,0,0.476,0.209,0.835,0.351
					c0.381,0.163,0.701,0.372,1.039,0.574c0.337,0.201,0.669,0.397,0.924,0.508c0.233,0.1,0.92-0.061,1.648-0.401
					c0.733-0.329,1.499-0.861,1.747-1.111c0.45-0.398,0.97-0.922,1.417-1.504c0.415-0.564,0.814-1.244,1.148-1.985
					c0.274-0.728,0.5-1.426,0.685-2.051l0.066-0.231l0.031-0.112l0.015-0.056l0.007-0.027l0.003-0.014l0.002-0.007l0.001-0.004
					l0-0.001c-0.016-0.039,0.037,0.083-0.036-0.087c0.033-0.146,0.066-0.288,0.097-0.425c0.058-0.271,0.101-0.514,0.126-0.725
					c0.207-1.708,0.366-2.915,0.393-4.066c0.026-0.578-0.033-1.124-0.037-1.736c-0.011-0.609-0.059-1.256-0.147-1.987
					c-0.094-0.749-0.188-1.496-0.282-2.241l-0.143-1.104l-0.041-1.119c-0.049-1.487-0.078-2.953-0.04-4.406
					c0.172-1.471,0.41-2.927,0.758-4.358c0.089-0.358,0.176-0.711,0.286-1.071c0.129-0.373,0.267-0.745,0.412-1.116
					c0.291-0.743,0.616-1.48,0.98-2.211c1.098-2.361,1.457-4.623,1.47-6.926c0.047-1.146,0.152-2.287,0.265-3.423
					c0.126-1.135,0.297-2.263,0.791-3.331c0.495-1.162,1.045-2.299,1.594-3.416c0.611-1.107,1.275-2.185,1.855-3.261
					c0.297-0.537,0.565-1.075,0.841-1.609c0.306-0.527,0.592-1.057,0.852-1.591c0.533-1.064,0.906-2.158,1.225-3.279
					c0.376-1.186,0.877-2.331,1.432-3.446l0.425-0.832l0.508-0.804l1.036-1.587c1.278-2.07,2.956-4.279,3.933-6.696
					c2.208-4.831,4.183-10.055,7.195-15c1.76-2.91,3.671-5.728,5.772-8.604c0.66-0.904,1.295-1.805,1.918-2.745
					c0.626-0.955,1.235-1.919,1.831-2.892c1.194-1.916,2.327-3.971,3.441-6.036l0.833-1.545l0.208-0.386l0.104-0.193l0.026-0.048
					l0.013-0.024l0.007-0.012c-3.374-1.868-0.909-0.504-1.649-0.915l0.047,0.024l0.744,0.389l0.739,0.396
					c0.042,0.022,0.167,0.092,0.139,0.075l0.002-0.003l0.004-0.006l0.014-0.026l0.023-0.056l0.018-0.06l0.007-0.032l0.064-0.099
					l0.253-0.396c0.097-0.148,0.136-0.232,0.279-0.436l0.407-0.583c1.103-1.594,2.698-3.703,4.28-6.054
					c2.886-4.181,6.268-8.596,8.83-13.329c2.581-4.723,4.409-9.741,4.638-14.876c0.193-5.36,0.373-12.484-7.117-16.474
					c-1.802-0.975-5.04-1.248-7.904-1.25c2.349-0.003,1.051,1.237-0.893,2.425c-1.943,1.197-4.529,2.306-4.761,2.457
					c-1.422,0.932-2.521,1.881-3.471,2.829c-0.96,0.944-1.787,1.893-2.881,2.728c-1.036,0.815-2.134,1.561-3.218,2.261
					c-1.113,0.686-2.256,1.296-3.284,1.903c-0.493,0.297-0.986,0.594-1.482,0.894c-0.49,0.279-0.947,0.559-1.364,0.845
					c-0.837,0.569-1.482,1.189-2.001,1.803c-2.049,2.723-3.553,4.906-5.29,7.396l-3.366,4.653l-0.581,0.807l-0.293,0.411
					l-0.361,0.525l-0.715,1.055l-0.369,0.557l-0.44,0.716l-0.859,1.445l-0.488,0.861l-0.79,1.398
					c-3.566,6.318-7.225,13.122-11.667,19.933c-1.333,2.091-2.826,4.023-4.334,6.193c-0.752,1.067-1.507,2.139-2.263,3.213
					C155.618,228.253,154.903,229.442,154.205,230.59z"/>
			</g>
		</g>
	</g>
</g>
<g>
	<g>
		<g>
			<path fill="#231F20" d="M203.671,88.667l-0.194,0.046C203.567,88.712,203.633,88.768,203.671,88.667z"/>
			<path fill="#231F20" d="M232.073,85.317v0.397C232.105,85.576,232.095,85.44,232.073,85.317z"/>
			<path fill="#231F20" d="M233.571,49.571l0.179-0.07C233.66,49.498,233.607,49.528,233.571,49.571z"/>
			<g>
				<path fill="#231F20" d="M221.29,49.609c-2.613,0.24-5.186,0.759-7.712,1.565c-2.532,0.777-5.019,1.837-7.453,3.195
					c-2.507,1.398-4.969,3.066-7.474,4.516c-1.252,0.725-2.515,1.396-3.799,1.951c-0.642,0.277-1.289,0.526-1.943,0.738
					c-0.634,0.206-1.365,0.404-1.917,0.498c-4.953,0.995-10.188,0.944-15.788,2.296c-1.432,0.338-2.856,0.573-4.275,0.73
					c-1.427,0.162-2.835,0.236-4.198,0.229c-1.377,0.002-2.753-0.048-4.134-0.125c-1.373-0.085-2.682-0.272-4.034-0.418
					c-2.64-0.231-5.099,0.066-7.688,0.337l-0.967,0.091l-0.661,0.037c-0.387,0.051-0.995-0.032-1.559-0.134
					c-0.544-0.083-1.163-0.266-1.754-0.488c-0.582-0.212-1.173-0.496-1.76-0.856c-1.227-0.75-2.405-1.767-3.69-2.648
					c-0.321-0.219-1.514-0.116-2.859,0.116c-0.33,0.059-0.661,0.127-0.98,0.203c-0.331,0.074-0.683,0.152-0.985,0.237
					c-0.614,0.168-1.108,0.357-1.375,0.539c-0.465,0.342,1.224,3.301,1.53,4.079c1.287,2.568,3.215,6.083,4.472,7.375
					c1.243,1.314,2.221,2.247,3.265,3.056c0.54,0.396,1.12,0.751,1.763,1.105c0.626,0.357,1.51,0.661,2.456,0.994
					c6.934,2.123,13.723,3.096,20.525,6.43c2.731,1.325,5.449,1.561,8.307,1.592c2.855,0.041,5.793-0.16,8.771,0.321
					c1.64,0.222,3.275,0.54,4.964,0.792c1.677,0.227,3.478,0.456,5.101,0.629c3.017,0.346,6.017,0.507,8.945,0.055
					c6.226-0.99,12.748,0.309,18.952-0.913c1.529-0.292,3.053-0.621,4.574-0.962l4.396-0.989c1.45-0.323,2.903-0.638,4.361-0.922
					c1.457-0.282,2.827-0.434,4.254-0.588c1.654-0.159,3.303-0.314,4.968-0.377c1.677-0.014,3.355,0.007,5.031,0.063
					c1.059,0.035,2.114,0.044,3.168,0.033l0.79-0.012l0.197-0.004l0.326-0.018l0.719-0.047c0.957-0.067,1.916-0.152,2.871-0.254
					l0.717-0.079c0.23-0.028,0.353-0.054,0.534-0.082l1.005-0.167l2.007-0.352c1.396-0.236,2.494-0.513,3.732-0.78
					c4.836-1.079,9.327-2.309,13.924-3.313c2.069-0.452,4.176-0.697,6.3-0.87l3.239-0.231l0.824-0.056l0.922-0.097l1.85-0.205
					l0.926-0.111l0.464-0.058l0.528-0.101l2.117-0.44c0.721-0.171,1.378-0.29,2.146-0.538c0.771-0.25,1.541-0.517,2.306-0.801
					c0.766-0.297,1.523-0.558,2.278-0.936c0.754-0.377,1.501-0.775,2.238-1.195c0.724-0.422,1.49-0.851,2.144-1.328
					c0.645-0.479,1.276-0.979,1.893-1.498c0.644-0.548,1.353-1.123,2-1.71c0.585-0.578,1.178-1.179,1.761-1.807
					c0.582-0.628,1.154-1.283,1.695-1.967c0.457-0.659,0.871-1.343,1.248-2.061c1.595-2.902,2.007-6.163,0.721-10.19
					c-0.634-1.957-2.787-4.395-4.86-6.371c1.703,1.618-0.104,1.647-2.359,1.211c-2.26-0.431-4.947-1.344-5.226-1.386
					c-1.72-0.278-3.178-0.29-4.542-0.224c-1.36,0.101-2.652,0.121-3.975-0.02c-0.641-0.068-1.276-0.162-1.901-0.273
					c-0.623-0.146-1.226-0.353-1.809-0.547c-1.164-0.395-2.249-0.807-3.206-1.364c-0.854-0.453-1.711-0.907-2.586-1.372
					c-0.395-0.194-0.76-0.352-1.097-0.459c-0.376-0.113-0.823-0.19-1.201-0.2c-3.187-0.118-8.335,0.685-12.766,1.629
					c-4.524,0.954-9.045,2.157-13.314,3.022l-5.027,1.011c-0.45,0.052-0.437,0.092-0.954,0.204l-3.312,0.258
					c-2.208,0.17-4.414,0.334-6.622,0.47c-2.209,0.14-4.438,0.409-6.664,0.545c-1.332,0.093-2.681,0.148-4.042,0.186
					c-1.304,0.058-2.617,0.116-3.935,0.174C226.501,49.284,223.729,49.38,221.29,49.609z"/>
			</g>
		</g>
	</g>
</g>
<g>
	<g>
		<g>
			<path fill="#231F20" d="M240.741,48.787l-0.282,0.058C240.589,48.84,240.682,48.891,240.741,48.787z"/>
			<path fill="#231F20" d="M282.103,46.564l-0.095,0.392C282.094,46.825,282.109,46.688,282.103,46.564z"/>
			<path fill="#231F20" d="M291.597,11.423l0.254-0.049C291.729,11.36,291.653,11.384,291.597,11.423z"/>
			<g>
				<path fill="#231F20" d="M273.171,9.75c-2.204-0.033-4.426-0.078-6.611,0.105c-2.182,0.2-4.357,0.472-6.521,0.818
					c-1.081,0.173-2.16,0.365-3.234,0.575c-1.073,0.23-2.14,0.51-3.203,0.792c-2.125,0.571-4.232,1.216-6.313,1.935
					c-2.146,0.721-4.247,1.677-6.343,2.547c-2.091,0.908-4.179,1.752-6.244,2.668c-2.064,0.918-4.128,1.781-6.212,2.53
					c-1.041,0.379-2.09,0.71-3.141,1.04c-1.047,0.347-2.101,0.658-3.167,0.926c-2.258,0.564-4.517,1.093-6.771,1.62
					c-2.231,0.612-4.46,1.223-6.688,1.833l-3.325,0.972c-1.096,0.363-2.185,0.75-3.27,1.146c-2.171,0.795-4.323,1.651-6.443,2.601
					c-2.114,1.009-4.226,1.941-6.356,2.781c-1.064,0.422-2.132,0.824-3.204,1.211c-1.057,0.381-1.965,0.69-2.961,1.02
					c-1.916,0.662-4.023,1.188-6.07,1.728c-2.148,0.51-4.305,1.022-6.478,1.538c-4.244,0.96-8.499,2.911-12.7,4.903l-3.181,1.598
					l-1.597,0.763l-1.606,0.82c-1.076,0.54-2.163,1.048-3.273,1.515l-1.801,0.84c-0.614,0.272-1.233,0.55-1.854,0.868
					c-2.672,1.219-5.449,2.708-7.984,4.759c-0.302,0.263-0.806,0.888-1.291,1.785c-0.459,0.922-1.019,2-1.375,3.178
					c-0.806,2.321-1.006,4.725-0.866,5.559c0.067,0.386,1.114-0.167,2.243-0.802c1.094-0.667,2.441-1.304,2.97-1.585
					c0.861-0.483,1.943-0.885,2.95-1.313c1.039-0.401,2.132-0.727,3.137-1.017c2.075-0.529,3.908-0.816,5.076-1.069
					c0.583-0.121,1.127-0.234,1.643-0.341c0.518-0.075,1.007-0.145,1.477-0.213c0.228-0.035,0.452-0.07,0.671-0.104
					c0.235-0.027,0.467-0.054,0.696-0.081c0.45-0.063,0.891-0.124,1.332-0.186c0.871-0.137,1.723-0.305,2.632-0.527
					c0.943-0.174,1.953-0.392,3.101-0.681c4.788-1.143,9.601-2.041,14.686-2.64c5.084-0.625,10.326-0.972,16.12-1.159
					c2.167,0.004,4.165-0.226,6.175-0.626c2-0.39,3.95-0.979,5.926-1.477c3.932-1.053,7.829-2.333,11.876-2.626
					c8.74-0.855,17.553-0.106,25.97-1.55c2.252-0.337,4.522-0.54,6.794-0.678c2.271-0.149,4.562-0.058,6.834-0.069l3.408,0.004
					c1.133-0.01,2.271,0.055,3.403,0.054c2.266,0.02,4.523-0.038,6.777-0.244c2.209-0.08,4.417-0.195,6.629-0.328l3.319-0.208
					c1.125-0.069,2.157-0.155,3.441-0.195c2.46-0.1,4.917-0.191,7.375-0.251c2.332-0.065,5.397-0.084,6.317-0.048
					c1.515,0.097,2.618,0.37,3.293,0.672c0.658,0.32,0.953,0.694,1.423,1.276c0.09,0.135,0.189,0.254,0.302,0.36
					c-1.309-5.946-2.614-11.878-3.92-17.81l-1.516,3.88l-0.731,1.949l-0.451,1.248l-0.505,1.609l-1.162,3.641l-0.782,2.698
					c-0.252,0.978-0.477,2.143-0.691,3.208c-0.093,0.356,0.1,0.111-0.601,1.737l-1.197,2.681l-0.43,0.977l-0.536,1.284l-0.26,0.645
					l-0.133,0.366l-0.253,0.701l-0.063,0.175l-0.206,0.583l-0.003,0.004l-0.005,0.008l-0.01,0.017l-0.034,0.069
					c-0.022,0.046-0.041,0.094-0.057,0.143c-0.042,0.089-0.025,0.218-0.085,0.292c-0.135,0.154-0.098,0.323-0.311,0.549
					c-0.172,0.372-0.906,1.174-1.892,2.208c-0.442,0.439-0.881,0.86-1.345,1.293l-1.683,1.547c-1.242,1.162-2.568,2.375-3.812,3.643
					c-1.263,1.256-2.569,2.485-3.753,3.825c-1.217,1.316-2.46,2.653-3.509,3.941l-1.641,1.965c-0.55,0.663-0.987,1.238-1.482,1.867
					c-0.961,1.233-1.931,2.508-2.761,3.638c-0.858,1.169-1.695,2.356-2.499,3.566c-0.459,0.742-0.956,1.611-1.413,2.424
					l-0.685,1.249l-0.311,0.585c0.072-0.125,0.153-0.248,0.241-0.364c0.031,0.021,0.096,0.068,0.183,0.167
					c0.058,0.066,0.099,0.132,0.137,0.211c0.012,0.015,0.017,0.053,0.039,0.057l0.032,0.021c-0.024,0.035-0.094,0.105-0.141,0.158
					c-0.248,0.255-0.499,0.513-0.752,0.772c-1.08,1.103-2.425,2.455-3.733,4.058s-2.602,3.466-3.692,5.711
					c-0.535,1.11-1.053,2.359-1.477,3.713c-0.113,0.349-0.208,0.689-0.304,1.045c-0.109,0.375-0.205,0.75-0.287,1.122
					c-0.171,0.765-0.402,1.656-0.358,2.346c-0.024,2.865,2.542,5.275,4.856,6.936c-0.958-0.678-0.949-1.38-0.22-1.923
					c0.689-0.516,2.183-0.947,3.608-0.951c2.87-0.035,5.926,0.915,6.282,0.917c4.209,0.283,7.744-0.647,11.868-1.367
					c0.471-0.087,0.939-0.173,1.405-0.259c0.223-0.037,0.499-0.114,0.796-0.208l0.854-0.263c1.14-0.354,2.285-0.762,3.417-1.247
					c1.128-0.487,2.251-1.048,3.273-1.743c1.011-0.694,1.916-1.528,2.902-2.36l0.521-0.522l0.258-0.267
					c0.04-0.041,0.091-0.1,0.123-0.125l0.071-0.034l0.564-0.27l1.089-0.54l1.03-0.548c0.327-0.179,0.778-0.51,1.149-0.769
					c1.543-1.093,2.996-2.391,4.185-3.752c1.127-1.26,2.246-2.668,3.227-3.717c0.501-0.547,0.987-1.176,1.468-1.668
					c0.48-0.495,0.948-0.995,1.404-1.501c0.436-0.522,0.956-0.973,1.427-1.461l1.421-1.457l1.572-1.514l0.924-0.89l1.081-1.068
					c0.388-0.391,0.724-0.712,1.151-1.163l1.315-1.414l0.656-0.721l0.722-0.869l1.419-1.759c0.479-0.645,0.962-1.361,1.429-2.049
					c0.465-0.707,0.938-1.366,1.356-2.162c0.838-1.543,1.716-3.092,2.32-4.717c0.327-0.807,0.642-1.619,0.942-2.435l0.112-0.306
					l0.028-0.077l0.014-0.039l0.007-0.019c1.214,0.289-10.638-2.629-5.563-1.378l0.884,0.236l3.535,0.946l0.885,0.236l0.221,0.059
					c0.025,0.002,0.012-0.011,0.02-0.016l0.015-0.041l0.061-0.163l0.12-0.326l0.058-0.155l0.01-0.004l0.016-0.01
					c0.008-0.007,0.013-0.016,0.014-0.026l0.411-0.908l1.3-2.843l0.378-0.854l0.426-1.036l0.452-1.134l0.444-1.278
					c0.612-1.605,0.864-3.31,1.272-4.97c0.075-0.251,0.083-0.41,0.165-0.749l0.347-1.237c0.354-1.189,0.747-2.376,1.3-4.338
					l0.155-0.543c-0.021,0.073-0.05,0.152-0.079,0.217c-0.047,0.12,0.135-0.417,0.228-0.696l0.657-1.974l1.317-3.947l3.762-11.276
					l-8.039-8.153c-3.836-3.89-8.896-7.345-14.22-9.431c-5.326-2.128-10.592-2.968-15.227-3.26
					c-1.278-0.058-2.562-0.116-3.851-0.173c-0.921-0.055-1.846-0.11-2.773-0.166c-1.854-0.136-3.719-0.274-5.592-0.412
					C281.844,10.074,277.349,9.86,273.171,9.75z"/>
			</g>
		</g>
	</g>
</g>
<g>
	<g>
		<g>
			<path fill="#231F20" d="M177.867,100.703l0.066,0.048C177.92,100.717,177.954,100.659,177.867,100.703z"/>
			<path fill="#231F20" d="M170.957,90.188l0.341-0.198C171.175,90.044,171.059,90.117,170.957,90.188z"/>
			<path fill="#231F20" d="M139.967,107.226l-0.09-0.044C139.889,107.224,139.924,107.231,139.967,107.226z"/>
			<g>
				<path fill="#231F20" d="M142.021,113.214c1.432,2.498,3.71,4.348,7.167,5.452c1.757,0.558,3.644,0.909,5.52,1.39
					c1.85,0.476,3.44,1.045,4.602,2.093c1.291,1.116,2.475,2.312,3.747,3.411c0.945,0.772,1.882,1.272,3.275,1.848
					c2.723,0.985,4.343,3.362,6.052,5.778c0.897,1.202,2.3,1.829,3.777,2.54c0.726,0.353,1.426,0.719,2.024,1.186
					c0.596,0.467,1.175,1.03,1.54,1.794c0.416,0.818,0.602,1.822,1.087,2.715c0.241,0.462,3.333,0.141,4.221-0.445
					c0.402-0.267,0.842-2.913,0.988-3.589c0.188-1.048,0.422-2.357,0.644-3.6c0.205-1.152,0.405-2.198,0.41-2.751
					c0.022-1.131,0.053-1.932-0.01-2.626c-0.056-0.715-0.202-1.341-0.522-2.063c-1.318-2.992-2.745-5.768-2.473-10.428
					c0.044-0.949-0.082-1.694-0.404-2.392c-0.319-0.695-0.761-1.289-1.236-1.854c-0.448-0.55-1.053-1.136-1.57-1.748
					c-0.261-0.308-0.51-0.627-0.737-0.969c-0.113-0.17-0.221-0.347-0.323-0.53c-0.079-0.163-0.101-0.289-0.142-0.446
					c-0.299-1.319-0.387-2.736-0.583-4.02c-0.204-1.41-0.522-2.66-1.328-3.52c-1.733-2.001-1.674-5.348-3.494-7.498
					c-0.903-1.015-1.93-2.046-2.929-3.097c-0.999-1.042-1.971-2.107-2.77-3.363c-0.935-1.449-1.731-2.944-2.442-4.61
					c-0.444-1.04-0.973-2.023-1.553-2.974c-0.59-0.964-1.251-1.919-1.915-2.852l-1.007-1.398l-1.241-1.678l-2.545-3.45
					c-2.884-3.998-2.757-9.367-5.538-10.884c-1.635-0.954-2.508-1.85-9.636,0.83c-1.747,0.643-4.652,2.105-7.16,3.488
					c2.061-1.127,1.203-0.103-0.147,1.362c-1.357,1.453-3.177,3.385-3.319,3.59c-1.758,2.432-1.981,4.132-2.793,6.288
					c-0.764,2.042-1.741,4.227-2.404,6.312c-0.693,2.002-1.097,3.832-0.723,5.131c0.162,0.63,0.357,1.232,0.582,1.809
					c0.223,0.576,0.493,1.146,0.696,1.605c0.437,0.95,1.041,1.876,1.472,2.574c0.241,0.369,0.498,0.725,0.765,1.074
					c0.221,0.323,0.425,0.62,0.652,0.922l0.339,0.447l0.172,0.223l0.233,0.339l0.95,1.422c0.529,0.813,1.084,1.608,1.65,2.398
					l1.756,2.451c1.15,1.619,2.334,3.328,3.344,5.143c0.589,1.078,1.091,2.278,1.618,3.516
					C140.877,110.791,141.384,112.035,142.021,113.214z"/>
			</g>
		</g>
	</g>
</g>
</svg>
