<?xml version="1.0" encoding="utf-8"?>
<!-- Generator: Adobe Illustrator 16.0.0, SVG Export Plug-In . SVG Version: 6.00 Build 0)  -->
<!DOCTYPE svg PUBLIC "-//W3C//DTD SVG 1.1//EN" "http://www.w3.org/Graphics/SVG/1.1/DTD/svg11.dtd">
<svg version="1.1" xmlns="http://www.w3.org/2000/svg" xmlns:xlink="http://www.w3.org/1999/xlink" x="0px" y="0px" width="500px"
	 height="500px" viewBox="0 0 500 500" enable-background="new 0 0 500 500" xml:space="preserve">
<g id="Layer_1">
	<g>
		<g>
			<g>
				<path fill="none" stroke="#000000" stroke-linecap="round" stroke-linejoin="round" stroke-miterlimit="10" d="M318.649,229.012
					"/>
			</g>
		</g>
		<g>
			<g>
				
					<path fill="none" stroke="#000000" stroke-width="2" stroke-linecap="round" stroke-linejoin="round" stroke-miterlimit="10" d="
					M285.983,324.216"/>
			</g>
		</g>
		<g>
			<g>
				<g>
					<path fill="#FFFFFF" d="M128.801,293.441l-0.354-0.069C128.604,293.411,128.703,293.459,128.801,293.441z"/>
					<path fill="#FFFFFF" d="M180.894,297.197l-0.093,0.164C180.893,297.302,180.906,297.246,180.894,297.197z"/>
					<path fill="#FFFFFF" d="M190.384,282.262l0.289-0.05C190.533,282.221,190.448,282.238,190.384,282.262z"/>
					<g>
						<path fill="#FFFFFF" d="M170.343,282.82c-8.962-0.002-17.993-0.115-26.829-0.507c-4.58-0.179-9.192-0.489-13.812-1.034
							c-4.623-0.524-9.243-1.361-13.812-2.592c-9.676-2.643-19.022-6.09-28.441-9.581c-4.748-1.743-9.306-3.778-13.743-6.037
							c-4.438-2.257-8.776-4.709-13.029-7.405c-4.102-2.592-8.266-5.048-12.268-7.747c-3.998-2.691-7.831-5.653-11.076-9.16
							c-0.861-0.938-1.66-1.918-2.475-2.878c-0.753-1.003-1.532-1.985-2.259-2.992c-0.321-0.514-1.701-1.774-2.916-3.139
							c-0.32-0.334-0.64-0.668-0.947-0.988c-0.29-0.33-0.567-0.645-0.818-0.931c-0.51-0.572-0.939-1.023-1.184-1.228
							c-0.222-0.187-0.068,0.598,0.192,1.579c0.133,0.488,0.279,1.031,0.439,1.504c0.18,0.465,0.338,0.874,0.434,1.121
							c1.223,3.273,4.01,8.046,5.797,10.225c1.771,2.224,3.142,3.814,4.612,5.32c0.722,0.771,1.479,1.508,2.338,2.283
							c0.854,0.781,1.782,1.638,2.917,2.548c9.295,7.678,19.247,13.854,29.31,20.344c4.085,2.61,8.562,4.746,13.118,6.712
							c4.573,1.932,9.228,3.686,13.754,5.555c4.912,2.004,9.856,3.96,14.905,5.694c5.055,1.711,10.218,3.187,15.509,4.237
							c5.627,1.12,11.278,2.195,17.023,2.973c2.866,0.4,5.712,0.642,8.578,0.937c2.864,0.215,5.738,0.321,8.612,0.4
							c11.345,0.07,22.6-1.004,33.758-2.475c1.626-0.227,3.262-0.41,4.883-0.663l4.864-0.76c1.6-0.205,3.296-0.599,4.97-0.945
							l2.515-0.526c0.844-0.172,1.684-0.347,2.458-0.556c8.051-1.975,15.848-4.289,23.573-6.677
							c7.744-2.367,15.417-4.829,23.109-7.072c3.489-1.051,6.935-1.896,10.388-2.74c1.75-0.452,3.395-0.753,5.056-1.087
							c1.66-0.331,3.302-0.688,5.02-0.896c6.787-1.034,13.57-1.707,20.492-2.319c1.831-0.203,3.835-0.254,5.9-0.428
							c2.065-0.157,4.203-0.197,6.312-0.41c2.108-0.175,4.192-0.317,6.162-0.667c1.97-0.331,3.822-0.678,5.475-1.296
							c1.604-0.586,2.229-1.832,2.36-2.971c-0.111,0.934-2.146,0.238-4.271-0.725c-2.117-0.999-4.353-2.101-4.66-2.215
							c-3.7-1.346-7.893-1.895-11.932-2.59c-7.811-1.33-15.137-2.65-23.601-1.684c-2.214,0.243-4.404,0.614-6.604,0.942
							c-2.2,0.393-4.401,0.922-6.6,1.401c-2.199,0.495-4.206,1.081-6.314,1.633c-2.086,0.561-4.172,1.131-6.206,1.738
							c-8.206,2.381-16.308,4.956-24.437,7.403c-3.461,1.06-6.906,2.096-10.341,3.11l-5.154,1.532l-5.111,1.418
							c-1.706,0.476-3.428,0.97-5.023,1.298c-1.644,0.357-3.216,0.775-4.919,1.087c-3.47,0.575-6.942,1.153-10.431,1.549
							C187.622,282.466,178.953,282.818,170.343,282.82z"/>
					</g>
				</g>
			</g>
		</g>
		<g>
			<g>
				<g>
					<path fill="#FFFFFF" d="M288.14,338.638l-0.318-0.034C287.964,338.627,288.053,338.665,288.14,338.638z"/>
					<path fill="#FFFFFF" d="M335.86,335.621l-0.035,0.18C335.893,335.72,335.888,335.664,335.86,335.621z"/>
					<path fill="#FFFFFF" d="M337.689,318.855l0.175-0.135C337.772,318.773,337.722,318.815,337.689,318.855z"/>
					<g>
						<path fill="#FFFFFF" d="M322.993,324.225c-1.759,0.429-3.573,0.686-5.369,1.024c-1.825,0.211-3.636,0.536-5.485,0.662
							c-1.838,0.227-3.696,0.281-5.56,0.42c-1.911,0.07-3.883,0.097-5.831,0.197c-8.092,0.188-16.49,0.07-24.998-1.169
							c-2.265-0.33-4.523-0.66-6.78-0.99c-2.259-0.34-4.543-0.627-6.837-0.888c-4.57-0.533-8.999-0.934-13.547-1.227
							c-9.172-0.513-18.022-1.729-27.346-2.184c-2.245-0.114-4.491-0.146-6.731-0.143c-1.147,0.047-2.306,0.116-3.458,0.202
							c-1.163,0.139-2.313,0.214-3.478,0.411c-2.321,0.316-4.65,0.834-6.973,1.454c-2.322,0.687-4.637,1.528-6.91,2.644
							c-2.427,1.18-4.754,2.757-6.712,4.724c-0.497,0.471-1.638,2.202-2.463,4.011c-0.371,0.917-0.751,1.825-0.965,2.6
							c-0.218,0.775-0.367,1.395-0.406,1.712c-0.036,0.289,0.557-0.31,1.23-1.05c0.653-0.753,1.531-1.583,1.862-1.956
							c1.225-1.165,2.753-2.578,4.408-3.599c1.633-1.043,3.231-1.813,4.335-2.259c2.202-0.958,3.901-1.345,5.609-1.688
							c0.426-0.084,0.853-0.169,1.29-0.256c0.443-0.065,0.898-0.133,1.373-0.202c0.935-0.177,1.996-0.235,3.191-0.386
							c2.505-0.203,5.024-0.226,7.542-0.123c2.55,0.171,5.11,0.412,7.646,0.645l3.8,0.381l3.798,0.629
							c2.529,0.444,5.049,0.917,7.567,1.481c4.096,1.012,8.307,1.573,12.594,2.113c2.147,0.271,4.297,0.542,6.439,0.813
							c1.068,0.151,2.135,0.302,3.197,0.452c1.037,0.167,2.068,0.347,3.093,0.545c8.874,1.706,17.698,4.363,27.146,5.589
							l3.766,0.511l3.806,0.477c2.524,0.364,5.115,0.576,7.697,0.827c5.261,0.427,10.747,0.394,16.11-0.471
							c5.298-0.85,10.535-2.309,15.576-4.472c5.033-2.172,9.902-5.03,14.271-8.932c0.625-0.592,1.29-1.106,1.874-1.77l1.774-1.936
							c0.581-0.659,1.095-1.417,1.637-2.128c0.264-0.365,0.541-0.715,0.789-1.097l0.704-1.192c0.986-1.546,1.709-3.323,2.411-5.085
							c0.272-0.913,0.568-1.81,0.791-2.748c0.174-0.966,0.41-1.904,0.492-2.903c0.312-2.498,0.107-5.137-0.458-7.67
							c-0.599-2.548-1.701-4.905-3.02-7.035c-2.757-4.165-6.402-7.236-10.143-9.402c-7.578-4.353-15.307-6.14-23.189-7.157
							c-7.105-0.861-14.168-0.946-21.232-0.117c-7.048,0.822-14.103,2.841-20.646,6.436c-3.433,1.958-7.399,4.499-10.607,7.913
							c-3.021,3.278-5.04,6.544-6.013,9.517c-0.475,1.476,0.104,2.722,0.886,3.56c-0.639-0.69,1.047-1.616,2.985-2.428
							c1.939-0.827,4.097-1.533,4.355-1.658c0.789-0.377,1.57-0.77,2.333-1.197c0.377-0.216,0.756-0.434,1.137-0.652l1.156-0.595
							c0.771-0.39,1.51-0.808,2.275-1.177c0.796-0.336,1.584-0.663,2.363-0.966c0.738-0.316,1.542-0.509,2.301-0.735
							c0.774-0.204,1.497-0.456,2.276-0.599c1.545-0.304,3.012-0.644,4.547-0.833c2.999-0.518,6.038-0.791,9.21-1.374
							c3.349-0.562,6.722-0.863,10.084-1.038c3.368-0.085,6.723-0.01,10.039,0.323c3.299,0.395,6.57,0.941,9.706,1.844
							c0.794,0.201,1.543,0.5,2.318,0.74l1.155,0.378l1.08,0.439c1.459,0.564,2.787,1.26,4.043,1.985
							c2.115,1.252,3.841,2.736,4.947,4.271c0.62,0.751,0.943,1.543,1.296,2.306c0.073,0.404,0.292,0.773,0.313,1.188l0.119,0.604
							c0.003,0.21,0.013,0.419,0.029,0.629c0.147,1.65-0.457,3.716-1.379,5.534c-0.288,0.456-0.496,0.936-0.816,1.392
							c-0.344,0.449-0.679,0.903-1.006,1.364c-0.803,0.867-1.573,1.763-2.556,2.555C336.313,320.15,329.761,322.801,322.993,324.225
							z"/>
					</g>
				</g>
			</g>
		</g>
		<g>
			<g>
				<g>
					<path fill="#FFFFFF" d="M458.414,322.612l-0.563,0.66C458.11,322.981,458.297,322.805,458.414,322.612z"/>
					<path fill="#FFFFFF" d="M471.105,204.575l0.25,0.154C471.207,204.545,471.14,204.532,471.105,204.575z"/>
					<path fill="#FFFFFF" d="M446.135,191.11l-0.438-0.472C445.895,190.874,446.027,191.013,446.135,191.11z"/>
					<g>
						<path fill="#FFFFFF" d="M464.855,231.33c4.469,19.675,3.712,40.555-2.985,59.392c-1.789,4.817-3.849,9.55-6.368,14.065
							c-0.603,1.145-1.326,2.215-1.984,3.331l-1.01,1.662c-0.341,0.553-0.734,1.067-1.099,1.604l-2.233,3.199l-2.44,3.056
							c-6.513,8.195-14.903,14.896-24.113,20.706c-19.551,12.181-41.995,18.923-64.999,20.653
							c-11.591,0.879-23.148,0.124-34.465-1.903c-2.854-0.384-5.636-1.152-8.448-1.768c-1.399-0.339-2.816-0.613-4.204-1.006
							l-4.154-1.231l-4.16-1.235c-1.386-0.422-2.733-0.972-4.104-1.452c-2.749-1.017-5.429-1.932-8.27-3.057
							c-10.793-4.28-21.883-7.805-33.088-10.86c-5.603-1.544-11.215-2.979-16.944-4.205c-5.723-1.229-11.541-2.252-17.48-2.838
							c-6.331-0.63-12.788-0.742-19.235,0.218c-0.786,0.148-2.372,0.435-4.309,0.976c-0.96,0.299-2.016,0.628-3.12,0.973
							c-1.102,0.342-2.205,0.846-3.325,1.277c-0.556,0.228-1.116,0.443-1.659,0.682c-0.533,0.262-1.06,0.521-1.575,0.775
							c-1.023,0.521-2.017,0.979-2.876,1.474c-1.704,1.021-3.04,1.85-3.677,2.29c-0.581,0.399,1.312-0.255,3.613-1.104
							c0.287-0.106,0.582-0.215,0.879-0.325c0.306-0.092,0.615-0.184,0.923-0.275c0.613-0.186,1.224-0.37,1.799-0.544
							c0.571-0.175,1.108-0.338,1.578-0.481c0.474-0.13,0.89-0.214,1.198-0.291c4.019-1.114,9.234-1.856,14.175-2.056
							c4.952-0.185,9.638,0.113,12.801,0.493c6.407,0.676,11.015,1.722,15.642,2.805c4.62,1.121,9.266,2.345,15.613,4.25
							c13.122,3.855,25.83,8.485,38.284,13.659c12.688,5.262,25.947,9.313,39.69,11.851c11.127,1.994,22.847,2.458,34.485,1.479
							c11.648-0.966,23.193-3.364,34.227-6.738c11.949-3.669,23.494-8.804,34.209-15.413c2.624-1.732,5.262-3.446,7.874-5.226
							c2.531-1.952,5.151-3.801,7.523-5.977l1.817-1.585l0.906-0.795l0.86-0.849l3.427-3.413c1.115-1.166,2.152-2.408,3.228-3.616
							c0.526-0.614,1.078-1.206,1.58-1.841l1.48-1.927c8.507-10.861,14.729-23.459,18.47-36.705
							c3.751-13.264,4.768-27.225,3.327-40.879c-0.707-6.736-2.028-13.395-3.92-19.885c-1.881-6.493-4.305-12.828-7.27-18.917
							c-2.965-6.087-6.472-11.931-10.537-17.407l-3.154-4.033l-3.377-3.869c-1.176-1.248-2.391-2.464-3.587-3.695
							c-1.219-1.19-2.473-2.302-3.708-3.456c-11.73-10.498-25.097-18.68-39.121-25.17c-35.536-16.253-76.135-20.599-114.33-12.428
							c-8.632,1.831-17.108,4.191-25.322,7.224c-2.08,0.692-4.101,1.527-6.126,2.353c-2.023,0.829-4.073,1.603-6.04,2.556
							c-1.982,0.919-3.979,1.813-5.951,2.758l-5.819,3.024l-1.455,0.759l-1.417,0.824l-2.833,1.655l-5.522,3.261
							c-3.536,2.129-7.077,4.26-10.625,6.396c-3.599,2.083-7.205,4.169-10.823,6.263c-3.592,2.125-7.275,4.218-10.872,6.263
							c-7.644,4.346-16.588,8.725-25.563,11.572c-4.48,1.469-8.979,2.53-13.272,3.329c-2.14,0.468-4.242,0.714-6.25,1.087
							c-2.013,0.279-3.944,0.565-5.762,0.855c-3.531,0.447-4.787,1.653-4.92,2.79c0.127-0.975,4.866,0.091,9.952,0.863
							c2.536,0.312,5.164,0.737,7.25,0.858c1.05,0.089,1.959,0.167,2.652,0.227c0.693,0.034,1.17,0.037,1.354,0.036
							c8.892-0.02,18.638-2.443,27.484-5.67c4.305-1.527,8.444-3.18,12.454-4.917c4.02-1.744,7.936-3.468,11.837-5.347
							c3.91-1.862,7.848-3.754,11.837-5.795c3.949-2.13,7.967-4.376,12.096-6.804l6.233-3.618c2.024-1.236,4.155-2.274,6.247-3.378
							c1.052-0.541,2.087-1.112,3.149-1.629l3.213-1.492l3.207-1.499c1.08-0.473,2.179-0.902,3.267-1.357
							c8.701-3.629,17.687-6.525,26.859-8.636c18.342-4.23,37.442-5.294,56.314-3.168c16.039,1.773,31.867,5.752,46.775,11.883
							c7.452,3.062,14.675,6.658,21.523,10.809c6.851,4.143,13.32,8.866,19.127,14.186
							C451.222,194.625,460.577,212.48,464.855,231.33z"/>
					</g>
				</g>
			</g>
		</g>
		<g>
			<g>
				<g>
					<path fill="#FFFFFF" d="M232.476,202.084l-0.229,0.121C232.354,202.159,232.433,202.148,232.476,202.084z"/>
					<path fill="#FFFFFF" d="M265.668,186.783l-0.006,0.172C265.704,186.881,265.693,186.826,265.668,186.783z"/>
					<path fill="#FFFFFF" d="M267.79,170.795l0.205-0.101C267.892,170.729,267.832,170.762,267.79,170.795z"/>
					<g>
						<path fill="#FFFFFF" d="M253.123,176.094c-1.601,0.685-3.208,1.366-4.771,2.127c-1.55,0.783-3.087,1.592-4.608,2.426
							c-3.043,1.668-6.026,3.436-8.93,5.301c-3.026,1.929-5.844,3.912-8.745,5.833s-5.858,3.771-8.975,5.379l-2.477,1.267
							l-2.425,1.084c-0.811,0.352-1.609,0.734-2.427,1.063l-2.471,0.939c-3.288,1.279-6.652,2.296-10.049,3.323
							c-6.856,2.045-13.927,2.297-20.944,1.486c-3.395-0.348-6.761-0.794-10.13-1.418c-0.842-0.155-1.658-0.405-2.489-0.612
							c-0.822-0.233-1.666-0.414-2.465-0.718c-0.8-0.302-1.597-0.617-2.386-0.95l-1.177-0.513l-1.121-0.632
							c-0.791-0.463-1.566-0.944-2.335-1.425c-0.76-0.499-1.472-1.076-2.213-1.594c-0.351-0.278-1.648-0.718-2.874-1.314
							c-1.249-0.554-2.554-1.069-3.042-1.161c-0.452-0.091,1.217,2.207,1.716,2.855c0.773,1.091,1.923,2.263,3.054,3.41
							c1.109,1.183,2.321,2.112,3.164,2.72c1.692,1.264,3.04,2.021,4.409,2.774c1.355,0.799,2.823,1.359,4.852,2.127
							c4.226,1.457,8.549,2.562,12.945,3.194c2.192,0.426,4.405,0.563,6.635,0.867l3.359,0.257l1.696,0.146
							c0.567,0.043,1.131,0.045,1.701,0.075c1.838,0.07,3.717,0.078,5.567-0.188c0.929-0.109,1.86-0.236,2.792-0.375
							c0.929-0.151,1.841-0.384,2.762-0.583l2.755-0.639l2.708-0.787c0.899-0.267,1.813-0.488,2.703-0.769
							c0.886-0.288,1.774-0.564,2.667-0.823c1.952-0.518,3.838-1.196,5.751-1.841l1.436-0.487c0.468-0.167,0.899-0.346,1.35-0.519
							l2.675-1.055c3.563-1.421,7.104-2.916,10.551-4.639c3.701-1.861,7.351-3.405,11.028-4.983
							c3.675-1.572,7.335-3.162,10.913-4.944c7.13-3.333,14.207-6.642,21.521-9.246c4.265-1.525,8.586-2.809,12.931-3.881
							c2.755-0.604,5.479-1.363,8.233-1.841l4.115-0.836l4.127-0.625c2.755-0.509,5.493-0.647,8.236-0.878l2.058-0.166
							c0.685-0.069,1.382-0.018,2.072-0.031l4.153,0.022l1.874,0.031c0.626,0.048,1.252,0.121,1.876,0.186
							c1.245,0.147,2.486,0.294,3.727,0.441c2.472,0.24,4.94,0.859,7.397,1.301c2.456,0.417,4.92,1.069,7.4,1.564
							c2.479,0.465,4.991,1.043,7.553,1.465c5.425,0.87,12.735,2.692,18.087,1.024c1.298-0.41,1.983-1.57,2.287-2.675
							c-0.494,1.814-5.494-3.562-5.897-3.858c-2.369-1.783-5.22-2.94-7.867-4.386c-2.573-1.375-5.039-2.734-7.579-4.038
							c-2.546-1.28-5.254-2.296-8.243-3.066c-12.585-3.038-26.094-3.304-39.257-1.422c-11.146,1.57-21.838,4.725-32.199,8.28
							c-1.567,0.504-3.116,1.062-4.675,1.623c-1.563,0.553-3.137,1.108-4.717,1.667C259.367,173.628,256.18,174.768,253.123,176.094
							z"/>
					</g>
				</g>
			</g>
		</g>
		<g>
			<g>
				<g>
					<path fill="#FFFFFF" d="M234.929,202.567l0.302-0.272C235.089,202.411,234.982,202.47,234.929,202.567z"/>
					<path fill="#FFFFFF" d="M189.898,236.819l0.017-0.189C189.852,236.725,189.864,236.781,189.898,236.819z"/>
					<path fill="#FFFFFF" d="M185.6,254.989l-0.317,0.178C185.44,255.096,185.534,255.04,185.6,254.989z"/>
					<g>
						<path fill="#FFFFFF" d="M207.489,243.167c9.32-6.111,17.757-13.281,25.377-20.901c7.861-7.869,14.805-16.096,23.306-22.686
							c4.522-3.399,9.133-6.606,14.026-9.167c4.813-2.736,9.912-4.817,15.197-6.699c5.326-1.869,10.808-3.114,16.403-3.892
							c2.84-0.37,5.686-0.749,8.539-1.066c2.848-0.239,5.708-0.511,8.584-0.709c2.766-0.09,5.522-0.285,8.278-0.478l8.24-0.174
							c5.592,0.24,11.2,0.549,16.772,1.26c2.979,0.388,5.983,0.929,8.982,1.378c1.48,0.225,9.033,0.08,10.518-0.184
							c0.676-0.119-3.627-1.478-4.819-1.841c-3.923-1.193-9.922-2.845-13.029-3.478c-6.324-1.211-9.291-1.762-15.848-2.536
							c-0.85-0.089-1.688-0.224-2.543-0.274l-2.571-0.127c-1.715-0.084-3.426-0.168-5.133-0.251
							c-1.71-0.085-3.403,0.013-5.104,0.006c-1.697,0.026-3.401,0.01-5.095,0.056c-3.367,0.197-6.767,0.269-10.131,0.48
							c-3.377,0.237-6.709,0.323-10.199,0.581c-5.605,0.383-11.309,1.593-16.879,3.378c-5.57,1.779-11.016,4.197-16.166,6.814
							c-1.442,0.643-2.792,1.414-4.154,2.174c-1.355,0.767-2.754,1.49-4.083,2.294c-2.607,1.657-5.309,3.252-7.784,5.06
							c-5.102,3.497-9.811,7.336-14.346,11.305c-4.786,4.261-9.601,8.227-14.496,12.091c-4.926,3.792-9.849,7.549-14.829,11.142
							c-2.417,1.844-4.926,3.506-7.4,5.238c-1.227,0.886-2.523,1.634-3.781,2.46c-1.275,0.791-2.516,1.654-3.819,2.389
							c-2.605,1.467-5.159,3.061-7.854,4.341l-4.003,2.004c-1.339,0.574-2.654,1.184-4.018,1.723
							c-6.377,2.512-13.141,4.414-20.012,5.848c-8.804,1.834-17.246,2.929-25.991,3.033c-8.702,0.106-17.481-0.701-26.142-2.412
							c-7.83-1.601-15.396-4.09-22.67-6.948c-7.307-2.941-14.496-6.394-22.063-9.661c-7.981-3.461-18.86-8.85-27.026-9.261
							c-1.964-0.113-3.009,0.831-3.488,1.871c0.805-1.691,8.033,5.977,8.551,6.479c3.374,2.86,7.412,5.369,11.148,8.04
							c7.257,5.14,13.652,10.296,22.456,14.249c2.333,0.98,4.638,2.013,7.017,2.903l7.211,2.525l7.298,2.091
							c2.454,0.631,4.94,1.16,7.414,1.729c9.956,2.058,20.198,3.129,30.559,3.034l3.302-0.014l3.306-0.222l3.305-0.233l1.652-0.12
							l1.646-0.223l6.58-0.934c2.13-0.403,4.249-0.771,6.36-1.249c8.453-1.79,16.828-4.156,25.119-7.373
							c2.474-1.01,4.994-2.053,7.344-3.211c1.199-0.564,2.402-1.131,3.608-1.699c1.215-0.554,2.362-1.224,3.551-1.833
							c1.18-0.625,2.362-1.252,3.546-1.879c1.18-0.635,2.31-1.342,3.469-2.013l3.457-2.05
							C205.263,244.636,206.371,243.896,207.489,243.167z"/>
					</g>
				</g>
			</g>
		</g>
	</g>
</g>
<g id="Layer_2" display="none">
	<g display="inline">
		<g>
			<g>
				<g>
					<path fill="#FFFFFF" d="M401.585,167.547l-0.723-0.303C401.184,167.389,401.386,167.503,401.585,167.547z"/>
					<path fill="#FFFFFF" d="M468.228,247.895l-0.16-0.211C468.124,247.885,468.178,247.918,468.228,247.895z"/>
					<path fill="#FFFFFF" d="M479.902,274.075l-0.168,0.749C479.829,274.469,479.877,274.245,479.902,274.075z"/>
					<g>
						<path fill="#FFFFFF" d="M478.614,222.061c-3.78-11.505-10.324-21.902-18.213-30.528l-3.002-3.195
							c-1.033-1.024-2.097-2.009-3.146-3.009l-1.581-1.491l-1.643-1.403l-3.293-2.784c-4.515-3.511-9.114-6.859-13.921-9.756
							c-2.439-1.563-4.954-2.958-7.46-4.36c-1.237-0.717-2.523-1.385-3.82-2.039c-1.297-0.646-2.563-1.354-3.883-1.94
							c-5.201-2.524-10.544-4.64-15.915-6.624c-5.388-1.946-10.854-3.617-16.355-5.173c-5.526-1.462-11.075-2.88-16.709-4.029
							c-5.957-1.25-11.936-2.317-17.946-3.079c-2.998-0.437-6.014-0.705-9.021-1.029l-4.522-0.357
							c-1.507-0.123-3.015-0.228-4.525-0.283c-6.035-0.367-12.085-0.34-18.129-0.213c-6.043,0.237-12.086,0.624-18.101,1.384
							c-6.05,0.751-12.036,1.649-17.948,2.836c-5.925,1.113-11.766,2.552-17.564,4.135c-2.887,0.843-5.782,1.653-8.634,2.631
							c-2.876,0.894-5.698,1.966-8.539,3.001c-5.633,2.198-11.25,4.543-16.703,7.355c-2.686,1.312-5.166,2.683-7.717,4.049
							l-7.573,4.063c-5.035,2.71-10.094,5.272-15.227,7.651c-5.13,2.383-10.378,4.43-15.714,6.199
							c-1.338,0.426-2.693,0.787-4.041,1.178c-1.348,0.392-2.698,0.774-4.073,1.047l-4.107,0.892
							c-1.375,0.262-2.766,0.433-4.148,0.646c-2.947,0.513-5.93,0.604-8.883,0.861c-1.481,0.076-2.968,0.05-4.449,0.082
							c-1.482,0.014-2.963,0.076-4.448-0.037c-0.73-0.035-2.195-0.024-4.033,0.018c-0.459,0.012-0.942,0.024-1.442,0.038
							c-0.5-0.017-1.017-0.033-1.546-0.051c-1.06-0.03-2.166-0.061-3.271-0.092c-1.106-0.045-2.22-0.009-3.278-0.107
							c-1.061-0.082-2.075-0.159-2.996-0.229c-1.846-0.132-3.327-0.216-4.063-0.221c-0.67-0.005,1.113,0.538,3.381,1.162
							c1.139,0.304,2.393,0.638,3.51,0.936c1.122,0.296,2.125,0.428,2.728,0.557c0.996,0.182,2.058,0.375,3.167,0.578
							c1.112,0.197,2.272,0.433,3.469,0.533c1.199,0.13,2.425,0.264,3.658,0.398c1.236,0.13,2.484,0.286,3.719,0.301
							c1.239,0.045,2.465,0.089,3.657,0.133c1.195,0.047,2.36,0.087,3.464,0.021c2.212-0.083,4.22-0.141,5.838-0.267
							c1.632-0.188,3.155-0.364,4.598-0.531c0.721-0.091,1.428-0.15,2.108-0.263c0.679-0.119,1.342-0.235,1.991-0.35
							c1.3-0.232,2.548-0.455,3.771-0.673c1.22-0.234,2.393-0.552,3.582-0.827c1.183-0.293,2.378-0.562,3.586-0.895
							c1.199-0.363,2.427-0.734,3.711-1.123c0.642-0.197,1.298-0.399,1.972-0.606c0.664-0.234,1.344-0.475,2.045-0.723
							c1.397-0.508,2.886-1.026,4.464-1.628c6.503-2.529,12.783-5.436,18.951-8.442c3.088-1.502,6.131-3.048,9.175-4.583
							l4.546-2.307c1.513-0.758,3.012-1.454,4.517-2.182c12.063-5.692,24.837-9.713,37.945-12.219
							c10.602-2.005,21.538-3.564,32.59-4.437c11.051-0.774,22.22-0.881,33.09,0.166c5.888,0.538,11.731,1.4,17.538,2.396
							c5.794,1.078,11.545,2.332,17.228,3.822c5.671,1.53,11.291,3.216,16.817,5.155c5.517,1.961,10.953,4.114,16.289,6.485
							c5.68,2.56,11.08,5.465,16.329,8.798c5.302,3.276,10.322,6.91,15.064,10.792c1.164,0.993,2.39,1.925,3.503,2.963l3.369,3.08
							c2.14,2.142,4.306,4.26,6.248,6.543c3.958,4.507,7.473,9.317,10.39,14.424c2.902,5.023,5.068,10.394,6.561,15.946
							c0.45,1.369,0.655,2.8,0.976,4.204c0.135,0.708,0.33,1.403,0.418,2.121l0.288,2.147l0.296,2.147l0.172,2.239
							c0.088,1.494,0.273,2.997,0.287,4.486c0.282,5.978-0.102,11.902-1.016,17.696l-0.373,2.167l-0.186,1.084
							c-0.076,0.357-0.174,0.709-0.26,1.063l-1.057,4.251l-1.377,4.146c-0.117,0.344-0.22,0.694-0.35,1.034l-0.426,1.005
							l-0.85,2.011c-5.399,12.48-14.584,23.218-25.777,31.676c-1.773,1.333-3.493,2.726-5.389,3.923l-2.778,1.868
							c-0.919,0.631-1.845,1.253-2.829,1.81l-5.797,3.462c-1.957,1.106-3.975,2.106-5.955,3.17c-1.003,0.509-1.97,1.088-3.002,1.539
							l-3.065,1.407c-2.052,0.921-4.06,1.942-6.175,2.717l-6.276,2.485l-6.403,2.156l-1.6,0.542
							c-0.538,0.166-1.085,0.307-1.627,0.462l-3.257,0.912l-3.257,0.915c-1.088,0.298-2.199,0.511-3.298,0.771
							c-2.207,0.48-4.396,1.038-6.617,1.458l-6.686,1.17c-1.11,0.217-2.236,0.352-3.361,0.488l-3.374,0.424l-3.373,0.425
							c-1.129,0.111-2.264,0.185-3.395,0.278c-2.266,0.163-4.525,0.392-6.796,0.5l-6.823,0.229
							c-11.157,0.199-22.245-0.577-33.23-1.989c-2.744-0.396-5.49-0.736-8.226-1.176l-8.19-1.424l-1.024-0.177l-0.855-0.198
							c-0.576-0.144-1.125-0.23-1.724-0.412l-1.782-0.505l-1.853-0.593c-0.606-0.189-1.271-0.425-1.917-0.646l-0.243-0.083
							c-0.103-0.035-0.032-0.014-0.057-0.022l-0.011-0.012c-0.008-0.006-0.009-0.02-0.014-0.026
							c-0.006-0.006-0.008-0.017-0.011-0.024c0-0.006,0.008-0.01,0.005-0.007l-0.378-0.354c-0.558-0.526-1.267-1.15-1.952-1.723
							c-1.577,4.696-3.162,9.417-4.747,14.139c11.224-0.229,22.67-1.373,34.079-4.253c0.584-0.146,1.177-0.276,1.771-0.441
							c0.593-0.176,1.192-0.354,1.797-0.535c1.208-0.361,2.438-0.729,3.686-1.104c1.246-0.376,2.489-0.882,3.755-1.328
							c1.256-0.488,2.551-0.875,3.805-1.47c1.261-0.56,2.53-1.124,3.806-1.691l0.954-0.431l0.935-0.494l1.869-0.997
							c2.521-1.261,4.892-2.874,7.253-4.402c9.296-6.484,16.458-15.178,19.636-22.742c1.519-3.705,1.021-5.342,0.043-5.935
							c0.402,0.243-0.197,1.379-1.334,2.953c-0.591,0.771-1.216,1.715-2.099,2.581c-0.847,0.891-1.771,1.824-2.71,2.747
							c-0.928,0.931-2.02,1.729-2.978,2.539c-0.977,0.795-1.885,1.55-2.782,2.112c-1.742,1.177-3.001,2.005-3.288,2.22
							c-7.161,4.92-15.539,9.243-24.108,11.757c-7.348,2.13-14.604,3.109-21.915,3.648c-7.322,0.525-14.725,0.602-22.627,0.55
							l-16.826-0.111l12.784,12.149c0.714,0.68,1.454,1.383,2.211,2.102c0.731,0.646,1.515,1.248,2.388,1.724
							c0.454,0.197,0.894,0.434,1.366,0.601l1.255,0.445c2.377,0.847,4.987,1.686,7.729,2.365l2.11,0.467
							c0.367,0.085,0.685,0.142,0.988,0.191l0.936,0.161l3.741,0.639c4.977,0.918,10.011,1.518,15.033,2.176
							c10.081,1.083,20.231,1.743,30.43,1.67c10.197-0.126,20.418-0.862,30.589-2.325c10.159-1.568,20.238-3.896,30.118-7.022
							l6.267-2.103c2.071-0.751,4.106-1.605,6.16-2.406l3.072-1.223c1.01-0.442,2.006-0.918,3.01-1.376l6.001-2.788l5.845-3.103
							c0.968-0.53,1.962-1.012,2.906-1.581l2.831-1.711c1.88-1.159,3.792-2.241,5.641-3.469l5.507-3.767
							c7.218-5.24,14.066-11.194,20.058-18.097c5.992-6.883,11.073-14.748,14.72-23.274c2.289-5.059,3.822-10.456,5.135-15.896
							c0.257-1.372,0.514-2.747,0.771-4.124c0.121-0.689,0.269-1.378,0.367-2.069l0.249-2.08c0.161-1.389,0.322-2.778,0.483-4.171
							l0.233-4.177l0.112-2.093l-0.003-2.084l-0.015-4.176c-0.054-1.385-0.147-2.765-0.222-4.149
							c-0.078-1.383-0.137-2.756-0.339-4.204l-0.518-4.289l-0.82-4.256c-0.237-1.428-0.656-2.816-1.028-4.215
							C479.455,224.83,479.134,223.413,478.614,222.061z"/>
					</g>
				</g>
			</g>
		</g>
		<g>
			<g>
				<g>
					<path fill="#FFFFFF" d="M140.064,238.132l-0.338-0.075C139.876,238.1,139.97,238.148,140.064,238.132z"/>
					<path fill="#FFFFFF" d="M187.385,255.734l-0.161,0.102C187.336,255.827,187.375,255.784,187.385,255.734z"/>
					<path fill="#FFFFFF" d="M202.804,246.825l0.278,0.075C202.954,246.851,202.87,246.831,202.804,246.825z"/>
					<g>
						<path fill="#FFFFFF" d="M184.134,237.991c-4.397-2.077-9.048-4.124-13.793-5.639c-2.368-0.786-4.716-1.608-7.11-2.274
							c-2.418-0.603-4.836-1.173-7.249-1.708c-1.246-0.264-2.477-0.57-3.732-0.779l-3.778-0.558
							c-2.517-0.355-5.014-0.753-7.521-1.079c-2.529-0.227-5.049-0.473-7.563-0.764c-1.259-0.135-2.51-0.326-3.772-0.45
							c-1.267-0.093-2.534-0.2-3.802-0.325c-2.686-0.245-5.357-0.589-8.036-0.772c-2.684-0.102-5.364-0.203-8.044-0.305
							c-2.679-0.164-5.357-0.01-8.034,0.102l-4.015,0.198c-1.337,0.088-2.678,0.112-4.006,0.326
							c-2.678,0.354-5.334,0.666-7.981,0.947c-2.625,0.238-5.335,0.614-7.995,1.069c-5.318,0.935-10.561,2.169-15.775,3.794
							c-5.028,1.569-9.828,3.758-14.446,6.257c-4.629,2.494-9.076,5.275-13.516,8.285c-2.368,1.616-4.716,3.324-6.896,5.416
							c-0.538,0.503-1.913,2.322-2.962,4.426c-0.53,1.041-0.975,2.154-1.247,3.129c-0.309,0.944-0.385,1.798-0.433,2.182
							c-0.016,0.372,0.539-0.534,1.26-1.515c0.729-0.987,1.667-2.007,2.086-2.423c1.356-1.407,3.202-2.898,5.034-4.145
							c1.83-1.256,3.65-2.276,4.84-3.015c2.436-1.465,4.297-2.388,6.155-3.331c1.858-0.94,3.734-1.874,6.344-3.09
							c10.772-4.955,22.19-8.252,33.76-8.554l1.747-0.044l1.799-0.009c1.203-0.015,2.407-0.051,3.614-0.104
							c1.206-0.053,2.415-0.123,3.625-0.202c1.211-0.056,2.419-0.228,3.636-0.204c2.429-0.035,4.862-0.07,7.286-0.104
							c1.211,0.004,2.422-0.053,3.625,0.028c1.202,0.088,2.4,0.188,3.59,0.306c2.576,0.28,5.151,0.479,7.703,0.868l7.621,1.333
							c2.547,0.351,5.037,1.063,7.557,1.565c2.51,0.564,5.054,0.949,7.546,1.626c2.668,0.642,5.324,1.326,7.965,2.046l7.77,2.688
							l1.938,0.673c0.642,0.237,1.268,0.521,1.903,0.777l3.803,1.559l3.818,1.512c1.271,0.507,2.511,1.08,3.777,1.597
							c5.128,2.248,10.252,4.493,15.376,6.739c5.287,2.286,10.886,4.418,16.725,6.091l2.559,0.733l2.516,0.603
							c1.674,0.407,3.351,0.801,5.036,1.12c1.683,0.342,3.364,0.702,5.057,0.967c1.692,0.277,3.377,0.613,5.079,0.822
							c8.58,1.242,17.28,1.672,26.063,1.176c4.689-0.249,9.653-1.188,14.506-3.328c2.424-1.133,4.838-2.572,7.049-4.604
							c2.197-2.011,4.188-4.736,5.277-8.044c0.99-2.984,1.101-6.36,0.375-9.342c-0.709-2.975-2.07-5.539-3.673-7.707
							c-1.626-2.139-3.491-3.852-5.433-5.36c-1.964-1.414-4.003-2.678-6.115-3.621c-4.21-1.983-8.643-3.076-13.117-3.506
							l-1.681-0.141c-0.56-0.027-1.12-0.028-1.681-0.038c-0.561-0.004-1.123-0.02-1.684-0.006l-1.678,0.097
							c-0.544,0.043-1.156,0.056-1.644,0.134l-1.5,0.221c-0.999,0.16-1.999,0.319-3.001,0.479c-1.059,0.177-2.164,0.363-3.302,0.553
							c-1.141,0.186-2.224,0.498-3.371,0.758c-2.247,0.564-4.649,1.127-6.807,1.863c-2.178,0.725-4.296,1.524-6.235,2.418
							c-1.883,0.864-3.601,1.829-5.05,2.919c-1.407,1.06-1.634,2.44-1.409,3.563c-0.393-1.845,8.955,0.103,9.638,0.111
							c1.997,0.108,4.051,0.042,6.119-0.073c2.064-0.075,4.129-0.159,6.152-0.184c0.977,0.008,1.946-0.049,2.894,0.035
							c0.943,0.072,1.878,0.144,2.809,0.215c0.92,0.073,1.835,0.145,2.75,0.218c0.899,0.08,1.846,0.1,2.644,0.268
							c3.308,0.506,6.463,1.313,9.646,2.303c1.659,0.545,3.227,1.208,4.668,1.966c1.405,0.795,2.665,1.688,3.658,2.627
							c1,0.933,1.689,1.915,2.001,2.707c0.334,0.836,0.33,1.27,0.216,1.75c-0.113,0.468-0.408,1.094-1.112,1.83
							c-0.704,0.721-1.735,1.505-3.066,2.122c-1.343,0.6-2.827,1.166-4.504,1.498c-0.804,0.217-1.704,0.289-2.55,0.455l-1.339,0.122
							c-0.461,0.035-0.854,0.103-1.395,0.107c-6.916,0.367-13.983,0.133-21-0.618c-3.508-0.38-7.012-0.876-10.473-1.542
							c-1.733-0.327-3.464-0.66-5.166-1.088l-2.563-0.606l-2.43-0.718C200.304,246.126,192.508,241.994,184.134,237.991z"/>
					</g>
				</g>
			</g>
		</g>
		<g>
			<g>
				<g>
					<path fill="#FFFFFF" d="M227.209,203.101l-0.295,0.049C227.048,203.136,227.138,203.149,227.209,203.101z"/>
					<path fill="#FFFFFF" d="M269.597,201.76l-0.096,0.149C269.582,201.863,269.6,201.81,269.597,201.76z"/>
					<path fill="#FFFFFF" d="M280.835,189.12l0.284,0.035C280.985,189.124,280.9,189.116,280.835,189.12z"/>
					<g>
						<path fill="#FFFFFF" d="M261.733,186.516c-2.13-0.09-4.254-0.131-6.35-0.082c-2.104-0.005-4.211,0.179-6.311,0.345
							c-4.201,0.377-8.37,0.706-12.504,1.632c-2.117,0.438-4.259,0.84-6.319,1.36c-2.051,0.524-4.101,1.048-6.155,1.574
							l-3.143,0.768c-0.538,0.135-1.116,0.259-1.621,0.397l-1.51,0.408c-2.017,0.533-4.049,1.021-6.107,1.442
							c-4.368,0.913-8.674,1.635-13,2.476c-4.317,0.796-8.612,1.479-12.919,2.41c-2.165,0.36-4.322,0.679-6.478,0.967l-3.23,0.41
							l-1.615,0.189l-1.579,0.098c-4.21,0.268-8.431,0.156-12.65-0.345c-4.062-0.494-8.113-0.996-12.113-1.905
							c-3.992-0.905-7.929-2.226-11.527-4.246c-0.967-0.522-1.895-1.111-2.805-1.723c-0.924-0.584-1.813-1.227-2.704-1.862
							c-0.218-0.159-0.708-0.39-1.319-0.685c-0.606-0.305-1.348-0.654-2.102-0.992c-1.5-0.686-3.001-1.41-3.566-1.548
							c-0.51-0.149,1.573,2.519,2.209,3.228c1.987,2.379,5.534,5.608,7.578,6.991c4.128,2.763,6.199,3.94,11.007,5.719
							c10.01,3.604,20.504,4.735,31.128,5.123c2.105,0.047,4.235-0.019,6.375-0.15c2.134-0.151,4.305-0.276,6.418-0.622
							c2.125-0.306,4.253-0.613,6.374-0.918c2.119-0.275,4.23-0.548,6.323-0.819c4.525-0.524,9.089-0.936,13.568-1.495
							c2.243-0.268,4.508-0.567,6.726-0.882c1.943-0.21,4.28-0.474,6.455-0.794c2.346-0.34,4.711-0.663,7.012-0.78
							c2.319-0.146,4.624-0.332,6.946-0.401l6.997-0.045l3.493-0.083c1.164-0.045,2.336-0.004,3.504-0.032
							c4.603-0.042,9.155-0.023,13.608,0.339c2.25,0.114,4.423,0.451,6.63,0.708c2.144,0.415,4.338,0.729,6.404,1.342
							c1.224,0.317,2.454,0.621,3.613,1.066c1.164,0.425,2.388,0.782,3.5,1.26c1.092,0.451,2.103,0.946,2.937,1.441
							c0.218,0.123,0.405,0.245,0.574,0.364c0.195,0.121,0.322,0.231,0.458,0.335c0.169,0.112,0.192,0.183,0.296,0.259
							c0.064,0.045,0.026,0.046,0.043,0.062c0.005,0.003,0,0.016,0.017,0.009c0.178-0.165,0.441-0.348,0.568-0.482
							c0.354-0.347,0.759-0.657,1.21-0.918l0.171-0.096l0.1-0.076c0.068-0.05,0.14-0.097,0.213-0.142
							c0.148-0.089,0.308-0.167,0.478-0.233c0.085-0.033,0.173-0.063,0.263-0.088c0.035-0.021,0.072-0.039,0.111-0.056
							c0.079-0.034,0.167-0.061,0.264-0.078c0.304,0.016,0.124-0.143,0.213-0.252c0.013-0.028,0.029-0.055,0.05-0.08l0.032-0.035
							c0.02-0.017-0.045,0.03-0.063,0.042l-0.349,0.239l-0.349,0.239l-0.021,0.015l-0.012,0.007
							c-0.25,0.313,0.329-0.416,0.269-0.342l-0.017-0.007l-0.031-0.014l-0.056-0.03c-0.033-0.021-0.059-0.042-0.078-0.062
							l-0.025-0.029l-0.153-0.113c-0.203-0.162-0.326-0.32-0.473-0.529c-0.279-0.303-0.507-0.629-0.682-0.969l-0.125-0.26
							l-0.216-0.358c-0.137-0.24-0.261-0.485-0.371-0.733c0.04-0.098-0.138-0.004-0.22,0.02c-0.346,0.07-0.804,0.179-1.425,0.229
							c-1.201,0.126-2.68,0.14-4.283,0.088l-2.692-0.089l-2.639-0.055l-10.533-0.217l-5.474,0.001l-1.369,0l-1.404,0.065
							l-2.808,0.127l-2.537,0.099l-2.491,0.185l-2.487,0.178l-2.489,0.24c-1.66,0.131-3.321,0.353-4.985,0.57
							c-1.664,0.183-3.329,0.498-4.997,0.788c-6.65,1.229-13.414,3.216-19.741,6.856c-1.707,0.984-3.597,2.172-5.415,3.639
							c-0.454,0.371-0.916,0.726-1.36,1.126l-1.314,1.239c-0.866,0.837-1.61,1.818-2.372,2.738c-0.369,0.471-0.752,0.93-1.079,1.414
							c-0.302,0.497-0.593,0.993-0.872,1.487c-0.532,0.992-1.119,1.965-1.449,2.935c-0.349,0.969-0.641,1.917-0.864,2.833
							c-0.243,0.93-0.266,1.714-0.312,2.54c0.265,0.273,0.102,1.459,0.42,2.125c0.236,0.884,0.802,1.205,1.348,1.351
							c-0.226-0.057-0.307-0.296-0.228-0.689c0.046-0.224,0.107-0.344,0.203-0.528c0.102-0.193,0.208-0.335,0.328-0.474
							c0.14-0.169,0.222-0.237,0.351-0.347c0.151-0.162,0.305-0.313,0.477-0.476c0.346-0.32,0.717-0.652,1.141-0.977
							c1.701-1.307,3.58-2.394,3.857-2.506c0.708-0.472,1.383-0.967,2.036-1.478c0.659-0.505,1.41-0.913,2.081-1.383l1.017-0.684
							c0.333-0.229,0.718-0.402,1.069-0.603c0.7-0.403,1.453-0.73,2.189-1.038c0.702-0.31,1.464-0.522,2.167-0.768
							c0.736-0.212,1.459-0.402,2.189-0.579c1.533-0.293,2.98-0.632,4.469-0.885c2.997-0.483,5.945-0.959,9.13-1.615
							c6.643-1.391,13.521-2.354,20.425-2.718c6.718-0.46,13.895-0.08,21.478,0.067l2.39,0.059l2.22,0.076
							c1.697,0.054,3.523,0.08,5.522-0.063c0.996-0.067,2.065-0.194,3.208-0.403c0.565-0.1,1.214-0.27,1.813-0.418l1.019-0.333
							c0.34-0.119,0.658-0.222,1.063-0.414c0.382-0.173,0.762-0.356,1.135-0.547c0.378-0.194,0.843-0.511,1.245-0.785l0.613-0.443
							c0.202-0.152,0.44-0.384,0.652-0.583c0.435-0.423,0.846-0.84,1.231-1.329c0.389-0.538,0.748-1.112,1.063-1.7l0.229-0.443
							c-0.31,0.834,0.439-1.169,0.362-0.964l0.003-0.009l0.005-0.018l0.011-0.035l0.021-0.071l0.084-0.283l0.084-0.283l0.062-0.256
							l0.078-0.382c0.048-0.257,0.088-0.519,0.118-0.783c0.061-0.528,0.085-1.064,0.071-1.591c-0.006-0.262-0.021-0.525-0.046-0.778
							l-0.091-0.525c-0.135-0.69-0.325-1.417-0.56-2.042c-0.232-0.543-0.496-1.08-0.784-1.596c-0.15-0.281-0.284-0.47-0.422-0.663
							l-0.426-0.583l-0.444-0.567c-0.142-0.165-0.271-0.297-0.411-0.445c-0.273-0.286-0.558-0.576-0.838-0.843l-0.783-0.664
							c-0.545-0.466-1.001-0.75-1.514-1.123c-1.933-1.273-3.695-2.112-5.431-2.864c-1.739-0.761-3.341-1.261-5.024-1.843
							c-0.834-0.272-1.662-0.594-2.501-0.825l-2.517-0.681C278.242,188.02,269.889,186.84,261.733,186.516z"/>
					</g>
				</g>
			</g>
		</g>
		<g>
			<g>
				<g>
					<path fill="#FFFFFF" d="M144.904,286.614l-0.337-0.146C144.715,286.541,144.802,286.609,144.904,286.614z"/>
					<path fill="#FFFFFF" d="M192.281,309.003l-0.16,0.101C192.231,309.095,192.27,309.052,192.281,309.003z"/>
					<path fill="#FFFFFF" d="M208.061,300.52l0.291,0.098C208.218,300.557,208.13,300.53,208.061,300.52z"/>
					<g>
						<path fill="#FFFFFF" d="M189,291.255c-8.624-4.178-17.493-8.076-26.562-11.413c-4.704-1.694-9.44-3.283-13.996-4.889
							c-4.609-1.664-9.202-3.483-13.792-5.558c-4.834-2.217-9.749-4.371-14.731-6.379l-3.789-1.418l-1.897-0.698l-1.933-0.626
							l-3.876-1.22c-1.291-0.378-2.579-0.715-3.874-1.061c-10.424-2.715-20.602-5.456-31.459-7.036
							c-5.242-0.706-10.552-0.821-15.832-0.578c-5.284,0.319-10.522,0.856-15.788,1.512c-1.415,0.118-2.801,0.39-4.208,0.563
							l-2.108,0.294c-0.701,0.113-1.391,0.271-2.089,0.411c-0.677,0.166-2.689,0.828-4.599,1.732
							c-1.91,0.911-3.775,1.874-4.346,2.279c-0.51,0.364,3.644-0.04,4.764-0.153c0.923-0.12,1.984-0.183,3.088-0.245
							c1.093-0.078,2.234-0.159,3.351-0.238c2.233-0.104,4.349-0.143,5.76-0.278c1.438-0.05,2.683-0.094,3.834-0.134
							c0.572-0.023,1.12-0.046,1.657-0.067c0.539,0.002,1.066,0.003,1.594,0.005c1.055-0.002,2.11-0.019,3.262-0.054
							c1.154,0.007,2.409,0.014,3.862,0.022c11.984,0.15,23.62,2.235,34.75,6.486c4.498,1.719,9.18,3.162,13.892,4.726
							c2.366,0.754,4.622,1.598,6.926,2.404c2.266,0.918,4.524,1.805,6.706,2.865c9.474,4.524,18.507,10.145,28.515,14.678
							c5.298,2.419,10.292,4.865,15.395,7.511c5.076,2.585,10.162,5.241,15.397,7.648c10.314,4.763,20.831,9.282,31.543,13.586
							c1.545,0.658,3.119,1.268,4.698,1.867l4.723,1.83l2.365,0.916l2.433,0.865c1.619,0.585,3.24,1.167,4.888,1.675
							c16.565,5.402,34.186,7.678,51.716,6.831c7.926-0.356,15.777-1.041,23.557-2.506c1.935-0.416,3.87-0.833,5.809-1.251
							c1.914-0.515,3.829-1.045,5.744-1.596c1.91-0.63,3.858-1.291,5.735-2.036c1.85-0.783,3.75-1.546,5.513-2.454
							c3.847-1.841,8.099-4.128,11.994-6.58c3.875-2.464,7.361-5.104,9.698-7.878c1.132-1.358,1.029-2.751,0.544-3.789
							c0.396,0.854-1.788,1.347-4.176,1.653c-2.384,0.313-4.954,0.479-5.285,0.537c-3.963,0.759-7.99,2.306-11.946,3.394
							c-0.958,0.253-1.904,0.503-2.843,0.751c-0.939,0.211-1.87,0.421-2.796,0.629c-1.844,0.438-3.676,0.727-5.481,1.089
							c-1.813,0.342-3.614,0.601-5.436,0.969c-1.871,0.282-3.743,0.669-5.675,1.111c-8.124,1.75-16.294,2.892-24.533,3.326
							c-8.233,0.427-16.54,0.187-24.809-0.972c-7.027-0.952-14.007-2.405-20.863-4.366c-3.438-0.989-6.8-2.082-10.202-3.329
							l-5.124-1.951c-1.709-0.646-3.414-1.305-5.1-2.04c-2.017-0.866-4.05-1.74-6.097-2.62c-2.038-0.91-4.074-1.886-6.124-2.837
							c-2.049-0.946-4.103-1.924-6.158-2.937C193.127,293.243,191.063,292.249,189,291.255z"/>
					</g>
				</g>
			</g>
		</g>
	</g>
</g>
<g id="Layer_3" display="none">
	<g display="inline">
		<g>
			<g>
				<g>
					<path fill="#FFFFFF" d="M141.36,258.336l-0.329-0.109C141.177,258.283,141.264,258.342,141.36,258.336z"/>
					<path fill="#FFFFFF" d="M188.686,275.601l-0.145,0.115C188.646,275.697,188.679,275.651,188.686,275.601z"/>
					<path fill="#FFFFFF" d="M202.903,265.228l0.276,0.044C203.051,265.236,202.968,265.226,202.903,265.228z"/>
					<g>
						<path fill="#FFFFFF" d="M184.16,258.297c-8.679-3.242-17.456-6.056-26.416-8.398c-9.241-2.415-18.54-4.386-27.647-7.505
							c-2.406-0.841-4.823-1.643-7.238-2.442c-2.42-0.796-4.801-1.625-7.274-2.362c-2.456-0.75-4.907-1.501-7.379-2.204
							c-2.52-0.622-5.046-1.218-7.583-1.775l-1.907-0.427l-1.938-0.33c-1.288-0.226-2.573-0.451-3.855-0.676
							c-1.278-0.239-2.553-0.477-3.827-0.715c-1.273-0.235-2.549-0.38-3.821-0.583c-5.101-0.721-10.258-1.294-15.552-1.506
							c-5.104-0.204-10.234,0.273-15.272,1.14c-5.047,0.865-9.993,2.114-14.953,3.421c-1.324,0.366-2.643,0.731-3.961,1.096
							c-1.304,0.426-2.607,0.853-3.914,1.28c-0.642,0.217-2.404,1.278-4.127,2.358c-1.679,1.167-3.294,2.396-3.771,2.875
							c-0.425,0.432,3.475-0.574,4.521-0.849c3.548-0.837,8.84-1.916,11.537-2.367c1.344-0.313,2.538-0.461,3.622-0.648
							c0.542-0.092,1.061-0.18,1.57-0.267c0.512-0.068,1.013-0.134,1.515-0.201c1.996-0.305,4.008-0.558,6.765-0.898
							c11.418-1.245,22.73-0.238,33.716,2.882c8.725,2.667,18.111,4.495,26.91,7.996c9.56,3.724,18.887,8.173,28.634,11.591
							c5.19,1.833,10.28,3.857,15.399,5.896c5.137,2.049,10.278,4.092,15.507,5.917c5.166,1.767,10.328,3.532,15.49,5.298
							c1.247,0.454,2.714,0.836,4.072,1.252l4.146,1.229c2.807,0.693,5.636,1.335,8.464,1.968l5.03,0.83
							c0.839,0.134,1.675,0.287,2.517,0.406l2.548,0.234l5.1,0.472l5.136,0.088c1.082,0.003,2.166,0.064,3.248,0.01l3.243-0.236
							c2.16-0.186,4.334-0.264,6.461-0.704c2.133-0.38,4.282-0.698,6.396-1.159l6.266-1.686c4.156-1.212,8.275-2.776,12.352-4.851
							c4.052-2.094,8.11-4.754,11.64-8.585c0.822-0.811,1.523-1.835,2.263-2.773c0.711-0.979,1.336-2.068,1.953-3.136l0.799-1.71
							l0.388-0.862l0.306-0.899l0.578-1.814c0.169-0.61,0.268-1.234,0.395-1.854c0.514-2.492,0.513-4.978,0.354-7.391
							c-0.142-1.184-0.301-2.334-0.526-3.522c-0.326-1.204-0.558-2.446-1.052-3.607c-1.729-4.749-4.884-8.917-8.518-11.845
							c-3.63-2.988-7.636-5.02-11.661-6.417c-4.271-1.49-9.276-2.616-14.067-2.909c-1.199-0.087-2.383-0.124-3.534-0.08
							c-1.157,0.035-2.266,0.061-3.396,0.238c-1.116,0.153-2.185,0.344-3.191,0.579c-0.955,0.25-1.801,0.56-2.625,0.907
							c-1.584,0.68-2.121,1.961-2.173,3.105c0.045-0.938,2.133-0.365,4.301,0.47c2.211,0.898,4.367,2.006,4.655,2.174
							c3.561,1.446,7.444,2.585,10.868,4.251c6.572,3.25,11.437,7.774,14.214,12.248c0.783,1.166,1.228,2.402,1.566,3.656
							c0.064,0.325,0.158,0.622,0.222,0.959l0.14,1.077c0.074,0.362,0.078,0.704,0.077,1.039c-0.002,0.334,0.046,0.68,0.026,1.001
							c-0.061,1.291-0.324,2.445-0.707,3.56c-0.497,1.082-1.074,2.164-1.963,3.212c-1.732,2.109-4.457,4.068-7.569,5.713
							c-3.134,1.636-6.68,3.023-10.396,4.063l-4.767,1.277c-0.787,0.251-1.603,0.355-2.41,0.504l-2.423,0.433l-2.422,0.441
							c-0.809,0.137-1.633,0.161-2.448,0.25c-1.635,0.136-3.267,0.325-4.906,0.432c-6.574,0.219-13.186-0.34-19.72-1.609
							c-1.936-0.491-3.887-0.985-5.852-1.483c-0.986-0.218-1.946-0.602-2.919-0.916c-0.97-0.329-1.943-0.658-2.918-0.988
							l-1.462-0.493c-0.494-0.172-1.023-0.391-1.534-0.584l-3.096-1.193C188.306,259.872,186.232,259.084,184.16,258.297z"/>
					</g>
				</g>
			</g>
		</g>
		<g>
			<g>
				<g>
					<path fill="#FFFFFF" d="M133.532,284.316l-0.297-0.157C133.364,284.236,133.438,284.307,133.532,284.316z"/>
					<path fill="#FFFFFF" d="M176.569,307.779l-0.157,0.099C176.517,307.871,176.555,307.828,176.569,307.779z"/>
					<path fill="#FFFFFF" d="M191.842,299.385l0.265,0.098C191.986,299.423,191.906,299.396,191.842,299.385z"/>
					<g>
						<path fill="#FFFFFF" d="M174.628,290.219c-7.78-4.35-15.771-8.3-23.929-11.793c-8.411-3.625-16.981-7.026-25.16-11.419
							c-4.328-2.341-8.594-4.735-13.016-7.018c-4.423-2.255-8.913-4.418-13.585-6.253c-9.37-3.728-18.57-7.21-28.391-9.874
							c-9.531-2.49-19.353-2.669-29.02-3.529c-2.592-0.297-5.171-0.457-7.776-0.631c-0.32-0.02-0.962,0.02-1.764,0.098
							c-0.799,0.111-1.757,0.27-2.71,0.442c-1.909,0.346-3.797,0.752-4.405,0.983c-0.548,0.208,3.239,0.974,4.273,1.174
							c0.851,0.154,1.815,0.329,2.824,0.512c1.002,0.208,2.05,0.424,3.075,0.636c2.042,0.414,3.978,0.726,5.289,0.987
							c5.265,0.898,7.715,1.316,13.103,2.235c1.379,0.245,2.754,0.488,4.125,0.731c1.358,0.303,2.712,0.606,4.063,0.909
							c1.354,0.279,2.687,0.644,4.014,1.018c1.325,0.381,2.659,0.706,3.963,1.144c5.243,1.644,10.319,3.744,15.215,6.273
							c7.865,4.156,16.555,7.546,24.336,12.305c4.189,2.544,8.368,5.362,12.57,8.035c4.206,2.691,8.454,5.32,12.839,7.743
							c2.338,1.286,4.627,2.631,6.939,3.978l6.949,4.062c4.625,2.722,9.258,5.439,14.01,7.953l7.039,3.686
							c2.404,1.182,4.814,2.353,7.253,3.487c4.873,2.274,9.818,4.45,14.835,6.539c5.859,2.43,11.843,4.672,17.975,6.605
							c7.755,2.412,15.797,4.18,24.007,4.943l3.078,0.275c1.027,0.079,2.061,0.107,3.091,0.161c2.083,0.116,4.075,0.144,6.12,0.149
							c4.085,0.001,8.273-0.151,12.555-0.707c1.941-0.287,3.881-0.561,5.839-0.996c0.976-0.173,1.954-0.436,2.933-0.7l1.469-0.39
							c0.468-0.123,1.101-0.343,1.541-0.49c1.857-0.642,3.352-1.187,4.797-1.615c1.411-0.424,2.752-0.72,3.661-0.774l0.323-0.021
							c0.1-0.004,0.152,0.018,0.229,0.019c0.058,0.011,0.171-0.009,0.181,0.015c0.019,0.019,0.037,0.029,0.055,0.032l0.007,0.001
							l0.027-0.199c0.024-0.145,0.041-0.269,0.038-0.348c0.009-0.189,0.027-0.38,0.057-0.572c0.028-0.191,0.067-0.385,0.117-0.578
							l0.082-0.29l0.048-0.146c0-0.04-0.021-0.068-0.028-0.104c-0.086-0.269-0.121-0.563-0.088-0.861
							c-0.038-0.446,0.332-0.211,0.539-0.232l0.357,0.04l0.09,0.01l0.045,0.005l0.022,0.003c-0.833,1.708,1.148-2.326,0.943-1.912
							l0.002-0.003c0.011-0.018,0.024-0.036,0.041-0.056c0.017-0.019,0.036-0.037,0.06-0.056c0.019-0.015-0.009,0.007-0.009,0.006
							c-0.017,0.009,0.011-0.009-0.085,0.047c-0.225,0.122-0.856,0.279-1.919,0.25c-0.206-0.028-0.558-0.021-0.828-0.063
							l-0.914-0.14c-0.334-0.055-0.662-0.127-0.982-0.217c-0.373-0.076-0.742-0.167-1.104-0.274
							c-0.258-0.075-0.19-0.063-0.195-0.066l-0.013,0.02l-0.02,0.04l-0.088,0.18c-0.304,0.632-1.005,1.768-1.766,2.781
							c-0.383,0.514-0.792,1.026-1.164,1.463l-0.261,0.298c-0.01,0.017,0.026-0.012,0.016,0.007c0.003,0.017,0.021,0.021,0.004,0.05
							l-0.123,0.086c0.01,0-0.097,0.055-0.202,0.11l-0.299,0.156c-0.4,0.211-0.808,0.425-1.221,0.643
							c-0.825,0.44-1.674,0.894-2.536,1.354c-1.783,0.908-3.682,1.846-5.478,2.866c-1.846,1.022-3.686,2.117-5.308,3.273
							c-1.638,1.168-3.135,2.485-4.281,3.81c-1.122,1.3-1,2.667-0.516,3.704c-0.398-0.851,1.724-1.242,3.986-1.413
							c2.257-0.189,4.68-0.08,4.991-0.113c3.743-0.372,7.604-1.476,11.444-2.38c0.935-0.236,1.857-0.47,2.772-0.701
							c0.462-0.113,0.922-0.227,1.38-0.339l0.689-0.168l0.903-0.286c0.608-0.183,1.255-0.535,1.823-0.911
							c0.568-0.365,1.206-0.872,1.593-1.153c0.879-0.663,1.673-1.333,2.452-2.055c1.547-1.465,3.004-3.001,4.342-5.353
							c0.33-0.604,0.653-1.262,0.94-2.092c0.28-0.808,0.553-1.783,0.604-3.159l0.009-0.512l-0.04-0.598l-0.066-0.6
							c-0.03-0.208-0.086-0.454-0.138-0.679c-0.106-0.453-0.237-0.905-0.464-1.417c-0.207-0.49-0.452-0.968-0.785-1.446
							c-0.319-0.479-0.676-0.917-1.076-1.303c-0.198-0.197-0.405-0.387-0.617-0.568l-0.801-0.571l-0.595-0.422
							c-0.614-0.353-1.434-0.734-2.187-1.004l-0.576-0.195l-0.391-0.096l-0.787-0.174l-0.794-0.149l-0.702-0.067
							c-0.456-0.033-0.959-0.078-1.381-0.075c-1.714,0.003-3.187,0.21-4.519,0.473c-2.66,0.538-4.854,1.316-6.911,2.054l-2.77,1.019
							c-0.628,0.233-1.53,0.438-2.316,0.668c-1.629,0.434-3.327,0.771-5.079,1.02c-3.5,0.513-7.199,0.703-11.023,0.708
							c-1.894,0.004-3.9-0.025-5.765-0.137c-0.948-0.053-1.896-0.082-2.845-0.153l-2.847-0.268
							c-12.914-1.302-25.737-4.998-38.099-10.226C189.472,298.203,182.067,294.325,174.628,290.219z"/>
					</g>
				</g>
			</g>
		</g>
		<g>
			<g>
				<g>
					<path fill="#FFFFFF" d="M323.431,323.132l-0.159,0.132C323.349,323.212,323.411,323.194,323.431,323.132z"/>
					<path fill="#FFFFFF" d="M345.987,305.171l0.077,0.14C346.047,305.257,346.018,305.21,345.987,305.171z"/>
					<path fill="#FFFFFF" d="M347.734,289.087l0.296-0.053C347.889,289.045,347.801,289.063,347.734,289.087z"/>
					<g>
						<path fill="#FFFFFF" d="M332.519,297.124c-4.278,3.355-8.134,7.036-11.671,10.923c-3.637,3.997-7.047,8.231-11.415,11.316
							c-4.628,3.246-9.459,5.886-14.332,8.476c-4.922,2.614-10.235,3.908-15.691,4.312c-5.713,0.407-11.244,2.392-16.717,2.232
							c-1.444-0.104-2.9-0.21-4.287-0.445c-0.339-0.065-1.396,0.165-2.438,0.326c-1.04,0.163-2.113,0.39-2.481,0.561
							c-0.346,0.152,1.627,1.27,2.216,1.572c0.935,0.52,2.179,0.947,3.392,1.404c1.215,0.419,2.402,0.696,3.211,0.848
							c3.271,0.499,4.828,0.645,8.138,0.514c1.697-0.076,3.383-0.152,5.063-0.229c0.839-0.041,1.659-0.051,2.485-0.072l1.236-0.022
							l1.313-0.059c1.754-0.09,3.537-0.068,5.298-0.275l2.682-0.194c0.899-0.067,1.782-0.207,2.691-0.289
							c0.732-0.075,1.466-0.181,2.197-0.309c0.726-0.144,1.43-0.36,2.143-0.567c1.421-0.425,2.845-0.897,4.189-1.522
							c2.753-1.144,5.359-2.544,8.012-3.732c5.727-2.598,11.395-5.402,16.28-9.184c5.182-4.02,10.642-7.513,15.457-11.625
							l3.526-3.039l1.749-1.517l0.953-0.828l0.222-0.195l0.075-0.074l0.118-0.12c0.272-0.345,0.8-0.855,1.327-0.61
							c0.285,0.136,0.443,0.446,0.511,0.744c0.034,0.151,0.051,0.304,0.051,0.452c0.006,0.211-0.027,0.039,0.006,0.992
							c0.034,3.82-0.421,7.357-1.682,10.726c-1.259,3.367-3.286,6.592-5.975,9.506c-2.449,2.633-5.506,4.759-8.708,6.745
							c-3.215,1.99-6.583,3.869-9.908,6.15c-3.501,2.418-8.683,5.372-10.522,9.847c-0.441,1.085-0.047,2.353,0.516,3.351
							c-0.914-1.647,5.272-0.629,5.667-0.636c2.416-0.078,4.727-0.818,7.088-1.304c4.563-0.947,9.064-1.383,13.41-3.875
							c4.527-2.612,8.865-5.849,12.729-9.924c3.853-4.053,7.235-9.006,9.401-14.696c0.942-2.402,1.57-4.943,1.987-7.489
							c0.09-0.64,0.195-1.278,0.263-1.918l0.15-1.921c0.087-1.263,0.094-2.456,0.07-3.723c-0.013-0.627-0.046-1.267-0.086-1.91
							l-0.09-1.046c-0.038-0.478-0.118-0.976-0.188-1.471c-0.117-0.997-0.35-1.961-0.559-2.928c-0.279-0.938-0.545-1.882-0.93-2.753
							c-0.716-1.773-1.703-3.354-2.909-4.696l-0.963-0.946c-0.326-0.31-0.714-0.54-1.068-0.813
							c-0.354-0.274-0.752-0.494-1.132-0.734l-0.289-0.175l-0.072-0.043c-0.017,0.003-0.014-0.037-0.047,0.001l-0.038-0.018
							l-0.152-0.074l-0.61-0.294c-4.035-1.765-8.639-1.133-12.814,1.399c-1.049,0.606-2.081,1.35-3.066,2.087l-1.887,1.445
							L332.519,297.124z"/>
					</g>
				</g>
			</g>
		</g>
		<g>
			<g>
				<g>
					<path fill="#FFFFFF" d="M467.861,297.547l-0.271,0.434C467.719,297.79,467.822,297.677,467.861,297.547z"/>
					<path fill="#FFFFFF" d="M477.753,225.573l0.192,0.095C477.855,225.55,477.796,225.544,477.753,225.573z"/>
					<path fill="#FFFFFF" d="M459.232,217.416l-0.2-0.323C459.115,217.254,459.177,217.349,459.232,217.416z"/>
					<g>
						<path fill="#FFFFFF" d="M466.335,242.052c0.686,5.697,0.788,11.444,0.302,17.165c-0.493,5.721-1.613,11.401-3.248,16.979
							c-3.36,11.455-9.193,22.671-17.951,31.833c-4.618,4.861-9.782,9.192-15.206,13.177c-5.433,3.981-11.152,7.597-17.064,10.981
							c-11.922,6.804-24.682,11.342-38.091,14.481c-6.471,1.504-12.943,2.968-19.503,4.031c-6.554,1.063-13.197,1.72-19.854,1.577
							c-1.776-0.013-3.544-0.131-5.308-0.25c-1.765-0.093-3.521-0.28-5.281-0.44c-0.433-0.046-1.307-0.021-2.399-0.022
							c-1.093-0.005-2.407,0.012-3.725,0.043c-2.633,0.043-5.274,0.036-6.154,0.16c-0.806,0.088,4.235,1.602,5.668,1.958
							c4.646,1.269,11.965,2.527,15.779,2.827c7.705,0.567,11.345,0.634,19.257,0.025c8.177-0.681,16.2-1.956,24.128-3.637
							c7.932-1.68,15.772-3.754,23.646-6.155c12.763-3.933,24.965-11.18,36.152-18.892c6.078-4.188,11.927-8.812,17.287-14.082
							c5.375-5.255,10.175-11.229,14.048-17.826c4.096-7.027,7.643-14.465,9.95-22.387l0.854-2.972l0.698-3.018
							c0.506-2.005,0.763-4.063,1.119-6.104c0.506-4.108,0.852-8.263,0.669-12.417c-0.19-8.196-1.778-16.298-4.298-24.015
							c-2.532-7.727-6.184-15.004-10.476-21.808c-2.572-3.923-5.281-7.766-8.334-11.305l-1.12-1.349l-1.174-1.297l-2.355-2.588
							c-1.653-1.635-3.233-3.36-4.969-4.904c-2.122-2.037-4.382-3.903-6.637-5.777c-2.32-1.78-4.634-3.575-7.062-5.193
							c-4.804-3.304-9.771-6.231-14.85-8.93c-10.173-5.358-20.76-9.688-31.545-13.347c-4.887-1.629-9.757-3.19-14.657-4.621
							c-4.906-1.406-9.837-2.698-14.823-3.817c-9.98-2.171-20.203-3.695-30.77-3.708c-5.582-0.019-12.213,0.218-18.585,1.358
							c-1.588,0.244-3.166,0.656-4.693,1.013c-1.529,0.394-3.017,0.881-4.433,1.357c-1.416,0.555-2.763,1.091-4.012,1.72
							c-1.245,0.663-2.401,1.289-3.425,2.027c-1.991,1.445-2.183,2.885-1.789,3.959c-0.322-0.848,2.725-1.482,5.898-1.505
							c1.577-0.059,3.202,0.092,4.453,0.158c1.264,0.119,2.182,0.249,2.396,0.251c5.19,0.184,10.752,0.157,16.063,0.766
							c10.287,1.226,19.167,3.834,29.697,5.885c11.046,2.19,21.946,4.965,32.587,8.502c10.632,3.535,21.051,7.75,30.9,12.999
							c4.17,2.246,8.249,4.638,12.166,7.21c3.891,2.569,7.596,5.376,11.146,8.35c3.491,3.036,6.796,6.263,9.853,9.695
							c3.012,3.467,5.758,7.14,8.189,10.992C461.256,220.398,465.048,231.131,466.335,242.052z"/>
					</g>
				</g>
			</g>
		</g>
		<g>
			<g>
				<g>
					<path fill="#FFFFFF" d="M232.713,169.13l-0.185,0.067C232.614,169.175,232.677,169.182,232.713,169.13z"/>
					<path fill="#FFFFFF" d="M260.046,163.151l-0.035,0.162C260.055,163.255,260.057,163.2,260.046,163.151z"/>
					<path fill="#FFFFFF" d="M264.843,148.539l0.184-0.031C264.938,148.508,264.883,148.52,264.843,148.539z"/>
					<g>
						<path fill="#FFFFFF" d="M252.136,149.411c-5.64,0.867-11.115,2.479-16.246,4.716c-5.273,2.36-10.183,5.292-15.479,7.319
							c-2.794,1.1-5.594,2.142-8.338,3.297c-2.766,1.12-5.394,2.432-8.037,3.81c-5.285,2.811-10.656,4.939-16.203,7.131
							c-5.319,2.106-10.089,5.408-15.54,7.181c-1.456,0.471-2.938,0.851-4.403,1.291c-0.721,0.215-3.852,2.483-4.371,3.142
							c-0.237,0.299,2.164,0.304,2.826,0.292c2.173-0.037,5.437-0.258,7.036-0.571c3.236-0.634,4.738-0.945,7.873-2.029
							c6.481-2.242,12.728-4.562,19.42-5.954c2.707-0.565,5.306-1.561,7.888-2.625c2.582-1.051,5.144-2.24,7.775-2.955
							c5.701-1.627,11.496-2.745,17.051-4.507c5.928-1.898,12.079-2.654,18.025-3.927c5.869-1.252,11.763-2.388,17.703-2.594
							c1.731-0.095,3.457-0.028,5.185-0.033c1.724,0.036,3.435,0.214,5.146,0.332c4.301,0.495,8.579,0.99,12.768,1.929
							c1.027,0.227,2.149,0.441,3.101,0.669l3.473,0.884c2.367,0.582,4.766,1.128,7.262,1.611c2.29,0.42,4.531,0.899,7.304,1.124
							c0.701,0.052,1.455,0.08,2.287,0.061c0.436-0.017,0.896-0.049,1.372-0.098l0.805-0.124l0.408-0.074l0.488-0.123
							c0.339-0.095,0.619-0.163,1.001-0.303c0.405-0.157,0.809-0.333,1.201-0.524c0.909-0.5,1.871-1.097,2.884-2.304l0.345-0.427
							l0.164-0.219l0.223-0.352c0.289-0.479,0.544-1,0.748-1.536c0.103-0.268,0.192-0.539,0.269-0.811
							c0.071-0.236,0.164-0.659,0.147-0.583l0.049-0.189l0.048-0.189l0.001-0.006l0.113-1.032l0.002-0.091l0.002-0.184l-0.007-0.371
							c-0.009-0.249-0.027-0.499-0.056-0.749c-0.056-0.5-0.15-0.997-0.277-1.474c-0.067-0.263-0.129-0.422-0.194-0.596l-0.215-0.521
							c-0.152-0.345-0.323-0.685-0.51-1.012l-0.289-0.481l-0.223-0.31c-0.304-0.41-0.634-0.806-0.98-1.18
							c-0.287-0.292-0.528-0.509-0.808-0.757l-0.412-0.352l-0.337-0.255l-0.675-0.484c-0.228-0.158-0.395-0.255-0.598-0.383
							l-0.584-0.352l-0.526-0.289c-1.396-0.746-2.596-1.24-3.755-1.678c-0.578-0.217-1.134-0.408-1.66-0.583l-0.701-0.229
							l-0.179-0.059l-0.01-0.002l-0.003-0.001l-0.162,0.442l-0.418,1.138l-0.425,1.135c-0.981,2.683,1.208-3.309,0.99-2.719
							l-0.006-0.002l-0.011-0.004l-0.045-0.017l-0.178-0.067c-0.951-0.36-1.914-0.698-2.893-1.008
							c-2.071-0.677-4.489-1.447-6.955-2.025c-2.467-0.571-4.988-0.794-7.293-0.141c-1.12,0.319-1.896,1.399-2.356,2.449
							c0.747-1.726,3.724,3.777,3.997,4.091c1.568,1.867,3.587,3.26,5.473,4.771c1.813,1.49,3.492,3.053,5.268,4.513
							c0.947,0.647,1.898,1.299,2.87,1.963c0.794,0.551,1.571,1.076,2.044,1.438c0.125,0.092,0.182,0.166,0.227,0.215l-0.018,0.016
							l0.266-0.385l0.321-0.436l0.331-0.423l0.237-0.35c0.165-0.23,0.344-0.452,0.534-0.666c0.188-0.213,0.401-0.422,0.604-0.612
							c0.125-0.159,0.266-0.309,0.42-0.448c0.155-0.139,0.324-0.266,0.507-0.379c0.195-0.116,0.205-0.172,0.338-0.244
							c0.107-0.064,0.229-0.116,0.361-0.151c0.115-0.03,0.075-0.039,0.136-0.052c0.02-0.005,0.041-0.009,0.065-0.01l0.037,0
							l0.02,0.001l0.01,0.001c0.644,0.246-0.87-0.335-0.713-0.271l0.005,0.008l0.148,0.26l0.074,0.13
							c0.022,0.038,0.063,0.114,0.042,0.064c-0.012-0.042-0.009-0.087,0.007-0.125c0.121-0.06-0.146-0.143-0.186-0.244
							c-0.012-0.031-0.116-0.13-0.207-0.239c-0.085-0.104-0.156-0.213-0.213-0.326c-0.031-0.09-0.16-0.276-0.25-0.445
							c-0.092-0.171-0.17-0.347-0.233-0.524l-0.086-0.268l-0.142-0.35c-0.091-0.237-0.169-0.477-0.235-0.718
							c-0.069-0.246-0.11-0.472-0.169-0.738c-0.086-0.3-0.16-0.601-0.225-0.903l-0.089-0.454c-0.022-0.127-0.063-0.379-0.048-0.313
							c0.009-0.003,0.019-0.004-0.009-0.008c-0.036-0.006-0.07-0.009-0.104-0.01c-0.389-0.008-1.322-0.073-2.244-0.196
							c-0.949-0.123-1.988-0.294-3.051-0.493c-2.132-0.399-4.365-0.901-6.614-1.459l-3.438-0.889
							c-1.385-0.358-2.625-0.597-3.947-0.902c-8.872-1.939-17.958-2.468-26.875-2.156
							C263.063,148.311,257.564,148.659,252.136,149.411z"/>
					</g>
				</g>
			</g>
		</g>
		<g>
			<g>
				<g>
					<path fill="#FFFFFF" d="M284.099,196.199l-0.32-0.082C283.92,196.162,284.007,196.212,284.099,196.199z"/>
					<path fill="#FFFFFF" d="M326.318,217.421l-0.169,0.069C326.25,217.5,326.295,217.466,326.318,217.421z"/>
					<path fill="#FFFFFF" d="M343.632,213.777l0.253,0.231C343.774,213.887,343.696,213.82,343.632,213.777z"/>
					<g>
						<path fill="#FFFFFF" d="M326.698,199.626c-8.172-5.574-17.247-9.635-26.497-12.268c-9.558-2.715-19.216-3.999-28.873-5.636
							c-10.247-1.675-20.532-2.672-30.868-2.227c-10.39,0.551-20.352,1.175-30.613,2.454c-4.983,0.641-9.699,1.662-14.468,2.626
							c-2.38,0.459-4.757,0.85-7.148,1.215c-1.195,0.176-2.392,0.352-3.592,0.481c-1.199,0.095-2.4,0.17-3.604,0.219
							c-1.285,0.051-2.567,0.079-3.846,0.103c-1.279,0.021-2.557,0.066-3.833-0.003c-1.246-0.039-7.523,1.055-8.77,1.505
							c-0.568,0.203,3.174,1.009,4.231,1.219c1.722,0.345,3.917,0.737,6.038,1.072c2.113,0.234,4.145,0.387,5.524,0.432
							c5.598,0.228,8.191,0.075,13.87-0.434c5.835-0.618,11.614-1.396,17.252-1.883c2.834-0.251,5.678-0.344,8.512-0.464
							c2.844,0.009,5.685-0.019,8.532,0.165c2.3,0.172,4.622,0.169,6.943,0.219c2.32,0.077,4.651,0.019,6.987,0.117l3.504,0.083
							c1.167,0.069,2.332,0.138,3.495,0.206c2.329,0.115,4.634,0.407,6.91,0.732c2.467,0.344,4.902,0.88,7.34,1.332l3.627,0.834
							c1.209,0.268,2.414,0.548,3.606,0.879l3.59,0.925c1.195,0.307,2.374,0.677,3.564,0.998c2.389,0.619,4.734,1.368,7.114,2.02
							c5.031,1.485,9.933,3.356,14.621,5.601c2.38,1.052,4.653,2.296,6.962,3.462c1.159,0.575,2.255,1.257,3.394,1.865
							c1.126,0.628,2.281,1.21,3.372,1.892l3.283,1.929c1.09,0.649,2.123,1.378,3.191,2.06c1.053,0.687,2.124,1.369,3.229,2.154
							c1.08,0.75,2.125,1.489,3.148,2.243c2.042,1.505,4.003,3.054,5.782,4.676c1.783,1.612,3.396,3.315,4.607,4.991
							c0.137,0.175,0.242,0.347,0.359,0.519l0.173,0.257l0.087,0.128l0.027,0.044c0.061,0.103,0.119,0.203,0.155,0.281
							c0.081,0.17,0.149,0.346,0.183,0.528c0.078,0.361,0.007,0.744-0.209,1.022c-0.161,0.225-0.435,0.378-0.72,0.336
							c-0.312-0.034-0.576-0.183-0.813-0.317l-0.595-0.376c-0.738-0.46-1.472-0.95-2.367-1.538l-5.028-3.264l-5.169-3.248
							c-3.528-2.126-7.125-4.251-10.989-6.119c-3.783-1.977-7.716-3.555-11.684-5.049c-7.193-2.63-14.465-4.888-22.082-6.234
							c-7.593-1.322-15.596-1.754-23.668-0.193c-4.247,0.832-9.285,2.169-13.737,4.547c-2.238,1.132-4.286,2.568-6.043,4.056
							c-0.856,0.787-1.659,1.559-2.347,2.376c-0.673,0.839-1.291,1.633-1.757,2.483c-0.914,1.647-0.469,2.953,0.261,3.835
							c-0.589-0.696,1.437-1.78,3.73-2.389c1.124-0.339,2.343-0.509,3.258-0.672c0.946-0.114,1.631-0.169,1.785-0.203
							c3.703-0.773,7.515-1.729,11.278-1.932c3.632-0.204,7.055,0.122,10.436,0.575c3.389,0.463,6.744,1.067,10.386,1.556
							c3.816,0.508,7.613,1.246,11.373,2.181c3.762,0.923,7.485,2.046,11.144,3.361c3.652,1.317,7.279,2.774,10.716,4.542
							c3.452,1.677,6.879,3.664,10.336,5.79c2.008,1.275,3.987,2.49,6.047,3.832l6.255,4.005c0.421,0.272,1.646,0.98,2.646,1.51
							c0.51,0.3,1.046,0.518,1.57,0.77c0.526,0.252,1.054,0.495,1.59,0.671c2.13,0.839,4.293,1.317,6.347,1.285
							c2.056,0.001,4.06-0.413,5.871-1.373c0.919-0.453,1.76-1.055,2.526-1.734c0.699-0.75,1.426-1.471,2.038-2.289
							c1.034-1.649,1.941-3.381,2.409-5.313c0.45-1.924,0.583-3.954,0.292-6.011c-0.1-1.028-0.388-2.056-0.646-3.085
							c-0.376-1.013-0.703-2.04-1.216-3.018c-0.451-1.007-0.981-1.938-1.551-2.859c-0.418-0.629-0.818-1.263-1.247-1.833
							c-1.584-2.188-3.274-4.083-5.011-5.842c-1.735-1.764-3.522-3.389-5.339-4.931c-1.813-1.544-3.667-3.004-5.495-4.39
							C330.645,202.351,328.623,200.98,326.698,199.626z"/>
					</g>
				</g>
			</g>
		</g>
	</g>
</g>
<g id="Layer_4" display="none">
	<g display="inline">
		<g>
			<g>
				<g>
					<path fill="#FFFFFF" d="M173.542,374.49l-0.269,0.064C173.396,374.534,173.481,374.542,173.542,374.49z"/>
					<path fill="#FFFFFF" d="M210.636,361.723l-0.009,0.173C210.671,361.821,210.662,361.766,210.636,361.723z"/>
					<path fill="#FFFFFF" d="M213.182,345.649l0.217-0.102C213.29,345.582,213.226,345.615,213.182,345.649z"/>
					<g>
						<path fill="#FFFFFF" d="M197.972,351.027c-6.52,2.657-12.505,5.47-18.567,8.083c-6.249,2.711-12.771,5.355-19.756,6.451
							c-7.395,1.171-14.807,1.428-22.261,1.749c-7.512,0.286-14.84-0.59-21.956-2.59c-1.75-0.379-3.434-0.924-5.15-1.389
							l-2.585-0.678l-2.523-0.861l-2.525-0.884c-0.84-0.303-1.633-0.721-2.445-1.092c-0.807-0.386-1.608-0.784-2.399-1.2
							c-0.79-0.42-1.531-0.944-2.28-1.442c-0.793-0.547-1.572-1.104-2.341-1.674l-2.263-1.821c-0.749-0.532-5.204-2.632-6.221-2.854
							c-0.462-0.103,1.332,2.313,1.846,2.979c0.828,1.106,1.952,2.396,3.065,3.62c0.559,0.607,1.103,1.213,1.628,1.724
							c0.533,0.5,1.025,0.939,1.435,1.278c0.837,0.686,1.562,1.279,2.232,1.828c0.68,0.539,1.353,0.962,2.015,1.413
							c0.667,0.442,1.346,0.874,2.1,1.333c0.743,0.483,1.601,0.908,2.608,1.377c8.27,4.077,17.008,6.346,25.941,8.665
							c1.811,0.422,3.668,0.735,5.546,0.986c1.878,0.199,3.776,0.247,5.677,0.323c1.903,0.105,3.802,0.023,5.696,0.005
							c1.894-0.025,3.784,0.015,5.653-0.031c2.025-0.027,4.065,0.045,6.097-0.021l6.11-0.246c2.031-0.175,4.066-0.386,6.101-0.631
							c2.033-0.256,4.046-0.69,6.06-1.113c4.271-0.988,8.559-1.974,12.82-3.176c2.128-0.588,4.189-1.297,6.282-1.975
							c2.03-0.736,4.069-1.507,6.035-2.346c7.74-3.347,14.876-6.899,22.337-9.224l1.628-0.526l1.642-0.426l3.285-0.841
							c2.199-0.531,4.459-0.868,6.683-1.294c11.369-1.652,23.018-2.497,34.717-1.644c5.286,0.321,10.453,1.341,15.588,2.349
							c5.127,1.125,10.235,2.226,15.484,3.178c5.586,0.952,12.948,2.787,18.4,1.427c1.333-0.354,2.081-1.481,2.436-2.571
							c-0.565,1.808-5.509-3.849-5.959-4.112c-1.214-0.912-2.552-1.696-3.926-2.445c-1.379-0.728-2.803-1.387-4.178-2.124
							c-2.659-1.443-5.211-2.805-7.844-4.133c-2.655-1.218-5.392-2.422-8.488-3.096c-6.461-1.549-13.05-2.453-19.685-2.963
							c-6.633-0.556-13.338-0.521-20.075-0.248l-4.3,0.253c-1.432,0.075-2.866,0.282-4.298,0.421
							c-1.432,0.174-2.866,0.271-4.294,0.513l-4.287,0.68c-1.431,0.198-2.852,0.517-4.274,0.817l-4.266,0.906l-4.238,1.122
							l-2.121,0.558l-2.075,0.648C210.89,346.037,204.204,348.488,197.972,351.027z"/>
					</g>
				</g>
			</g>
		</g>
		<g>
			<g>
				<g>
					<path fill="#FFFFFF" d="M135.492,135.625l-0.264,0.042C135.348,135.657,135.428,135.672,135.492,135.625z"/>
					<path fill="#FFFFFF" d="M172.95,139.255l-0.118,0.126C172.914,139.354,172.942,139.305,172.95,139.255z"/>
					<path fill="#FFFFFF" d="M185.81,128.923l0.247,0.076C185.944,128.949,185.869,128.929,185.81,128.923z"/>
					<g>
						<path fill="#FFFFFF" d="M168.973,122.891c-1.995-0.43-3.984-0.888-6.003-1.202c-2.034-0.254-4.072-0.474-6.104-0.659
							c-2.051-0.057-4.1-0.067-6.134-0.048c-2.029,0.057-4.019,0.314-6.006,0.513c-8.181,1.052-15.862,3.384-23.651,5.165
							c-8.261,1.897-16.303,4.189-24.01,7.388c-7.665,3.34-15.338,5.87-23.096,8.938c-1.879,0.714-3.725,1.503-5.555,2.324
							c-1.823,0.838-3.598,1.78-5.393,2.671c-3.572,1.824-7.195,3.509-10.925,4.989c-1.988,0.797-4.004,1.503-6.007,2.27
							c-0.987,0.378-5.389,3.431-6.136,4.233c-0.341,0.364,2.87-0.12,3.751-0.265c2.902-0.479,7.247-1.361,9.387-2.007
							c2.17-0.644,3.761-1.116,5.363-1.592c1.594-0.492,3.176-1.04,5.323-1.856c2.215-0.842,4.417-1.68,6.609-2.514
							c2.223-0.749,4.438-1.495,6.65-2.24c2.217-0.725,4.439-1.424,6.677-2.08c2.237-0.658,4.537-1.146,6.835-1.645
							c3.729-0.757,7.379-2.059,11.036-3.243c3.649-1.215,7.315-2.37,10.994-3.176c7.989-1.696,15.999-2.444,23.86-3.321
							c2.096-0.25,4.194-0.286,6.288-0.389c2.092-0.034,4.169,0.115,6.245,0.168c2.062,0.136,4.081,0.427,6.118,0.59
							c2.025,0.319,4.049,0.624,6.083,0.899c7.994,1.308,15.968,3.598,23.641,7.006l3.346,1.521l3.298,1.679
							c2.184,1.081,4.422,2.39,6.619,3.6c5.587,3.178,11.317,6.328,17.259,9.323c5.943,3,12.18,5.735,18.637,8.103
							c1.473,0.515,2.935,1.048,4.39,1.592c1.481,0.474,2.959,0.946,4.434,1.417l2.213,0.723l2.227,0.606l4.464,1.203
							c5.965,1.336,12.023,2.436,18.123,2.582c6.468,0.242,15.101,0.438,20.405-2.468c1.296-0.698,1.716-1.986,1.743-3.132
							c-0.055,1.875-6.83-2.186-7.31-2.4c-2.97-1.211-6.259-1.804-9.347-2.759c-3.003-0.864-5.769-2.015-8.575-2.953
							c-1.393-0.512-2.781-1.02-4.211-1.452c-0.714-0.22-1.439-0.416-2.174-0.61c-0.726-0.217-1.465-0.416-2.222-0.593
							c-1.577-0.397-3.19-0.668-4.732-1.114c-1.552-0.416-3.104-0.815-4.655-1.198c-3.034-0.948-6.089-1.757-9.051-2.891
							c-5.969-2.132-11.888-4.714-17.813-7.751c-5.049-2.589-10.104-5.29-15.302-8.061l-3.919-2.063
							c-1.328-0.683-2.591-1.388-3.979-2.056l-4.087-2.035c-1.371-0.668-2.784-1.28-4.172-1.928
							C183.74,127.672,176.564,124.766,168.973,122.891z"/>
					</g>
				</g>
			</g>
		</g>
		<g>
			<g>
				<g>
					<path fill="#FFFFFF" d="M105.878,254.984l-0.249-0.052C105.739,254.964,105.806,255.006,105.878,254.984z"/>
					<path fill="#FFFFFF" d="M142.428,261.235l-0.084,0.15C142.416,261.339,142.432,261.285,142.428,261.235z"/>
					<path fill="#FFFFFF" d="M150.694,247.516l0.205-0.017C150.801,247.492,150.74,247.5,150.694,247.516z"/>
					<g>
						<path fill="#FFFFFF" d="M136.678,245.883c-6.317-0.884-12.653-1.539-19.092-2.067c-6.624-0.498-13.375-0.872-19.981-2.532
							c-3.5-0.839-6.955-1.889-10.431-2.803c-3.47-0.942-6.905-1.938-10.432-2.735c-3.517-0.87-6.915-1.94-10.297-3.065
							c-3.317-1.257-6.661-2.521-9.951-3.933c-1.563-0.711-3.153-1.344-4.761-1.945l-1.207-0.449l-1.177-0.503l-2.363-1
							c-3.203-1.249-6.175-2.948-9.015-4.852c-1.452-1.111-2.799-2.338-4.2-3.485c-0.23-0.191-0.898-0.544-1.703-0.924
							c-0.186-0.058-0.516-0.238-0.954-0.504c-0.22-0.129-0.441-0.257-0.658-0.383c-0.217-0.126-0.463-0.259-0.714-0.388
							c-0.122-0.062-0.242-0.123-0.359-0.182c-0.14-0.063-0.276-0.124-0.409-0.183c-0.132-0.055-0.26-0.109-0.382-0.16
							c-0.132-0.052-0.314-0.112-0.458-0.157c-0.15-0.043-0.293-0.083-0.427-0.122c-0.071-0.017-0.141-0.033-0.207-0.049
							c-0.099-0.016-0.193-0.031-0.284-0.045c-0.365-0.049-0.668-0.052-0.885-0.04c-0.303,0.027-0.019,0.116,0.534,0.336
							c0.138,0.057,0.29,0.124,0.449,0.202c0.143,0.077,0.215,0.156,0.334,0.242c0.208,0.17,0.484,0.371,0.623,0.558
							c0.714,0.771,1.165,1.591,1.389,1.938c0.231,0.367,0.457,0.764,0.753,1.167c1.418,1.849,3.424,4.184,4.65,5.359
							c1.513,1.358,2.691,2.271,3.878,3.199c1.2,0.908,2.416,1.833,4.239,2.822c1.87,1.043,3.704,2.157,5.595,3.123
							c1.899,0.958,3.792,1.913,5.681,2.867c1.897,0.921,3.798,1.793,5.682,2.751c1.889,0.938,3.755,1.974,5.651,2.931
							c6.106,3.25,13.16,4.756,19.615,7.16c3.507,1.282,6.962,2.703,10.52,3.929c1.771,0.628,3.55,1.237,5.343,1.81
							c1.797,0.563,3.64,1.021,5.484,1.457c3.934,0.97,7.861,1.938,11.789,2.908l2.96,0.727c0.992,0.226,2.002,0.397,3.004,0.589
							c2.01,0.369,4.027,0.709,6.054,0.989c8.003,1.005,16.113,1.293,24.299,1.229c2.392-0.038,4.783-0.05,7.188-0.204
							c2.4-0.071,4.808-0.311,7.219-0.509c6.073-0.606,12.218-1.856,18.136-3.838c5.938-1.944,11.654-4.694,16.895-7.589
							l2.892-1.548c1.083-0.558,2.137-1.156,3.038-1.825c0.854-0.696,1.669-1.383,2.276-2.231c0.327-0.407,0.604-0.863,0.872-1.323
							l0.725-1.46l0.198-0.577c0.024-0.204,0.107-0.395,0.159-0.593c0.127-0.391,0.238-0.786,0.282-1.195
							c0.074-0.405,0.113-0.812,0.13-1.221c0.042-0.409,0.033-0.816,0.015-1.224c-0.077-1.629-0.464-3.227-1.15-4.761
							c-0.678-1.538-1.679-3.008-2.88-4.385c-0.291-0.35-0.61-0.685-0.938-1.015c-0.317-0.338-0.652-0.663-1-0.98
							c-0.34-0.324-0.69-0.64-1.052-0.946l-0.852-0.737c-3.298-2.788-6.893-5.258-10.783-7.18c-1.393-0.624-2.88-1.372-4.462-1.998
							c-1.588-0.608-3.223-1.245-4.894-1.643c-0.831-0.213-1.66-0.407-2.48-0.558c-0.827-0.124-1.644-0.214-2.441-0.262
							c-1.589-0.118-3.12,0.03-4.496,0.394c-1.338,0.355-2.029,1.502-2.344,2.604c0.257-0.904,1.616,0.04,2.906,1.232
							c1.295,1.197,2.466,2.738,2.644,2.882c2.117,1.917,4.572,3.479,6.702,5.303c4.113,3.59,6.918,7.562,10.667,11.063
							c0.254,0.552,0.229,0.843-0.002,1.069c-0.13,0.111-0.304,0.109-0.396,0.148c0.313-0.189-0.989,0.533-1.775,0.968l-2.583,1.327
							c-3.454,1.703-6.849,3.244-10.479,4.362c-8.826,2.896-18.443,4.217-28.18,4.189
							C148.786,247.362,142.733,246.672,136.678,245.883z"/>
					</g>
				</g>
			</g>
		</g>
		<g>
			<g>
				<g>
					<path fill="#FFFFFF" d="M118.003,275.646l-0.321-0.07C117.825,275.615,117.912,275.663,118.003,275.646z"/>
					<path fill="#FFFFFF" d="M163.293,283.367l-0.121,0.134C163.266,283.468,163.292,283.418,163.293,283.367z"/>
					<path fill="#FFFFFF" d="M180.33,276.854l0.109,0.129l0.173,0.236c-0.073-0.118-0.133-0.206-0.165-0.241
						C180.389,276.91,180.358,276.88,180.33,276.854z"/>
					<g>
						<path fill="#FFFFFF" d="M156.973,267.242c-2.154-0.317-4.313-0.605-6.474-0.864c-2.167-0.262-4.203-0.429-6.314-0.603
							c-2.056-0.157-4.11-0.314-6.161-0.472l-3.036-0.194l-1.521-0.081l-1.5-0.143c-2.074-0.169-4.145-0.337-6.215-0.506
							c-2.076-0.263-4.152-0.525-6.231-0.789c-1.045-0.123-2.083-0.301-3.117-0.509l-3.11-0.624
							c-1.036-0.223-2.075-0.439-3.106-0.705c-1.026-0.284-2.052-0.583-3.075-0.9c-4.355-1.25-8.571-2.995-12.844-4.521
							c-2.133-0.779-4.27-1.546-6.42-2.291c-2.122-0.707-4.407-1.593-6.616-2.277c-8.948-2.878-17.384-5.9-25.428-9.943
							c-3.863-1.946-7.705-3.802-11.252-6.08c-3.578-2.277-6.682-4.95-9.012-8.443c-0.629-0.917-1.167-1.912-1.731-2.868
							c-0.509-1.016-1.048-1.988-1.538-3.024c-0.239-0.511-1.265-1.857-2.288-3.273c-1.043-1.385-2.1-2.827-2.544-3.233
							c-0.394-0.389,0.306,3.115,0.552,4.063c0.703,3.149,2.279,7.868,3.572,10.111c0.617,1.142,1.235,2.09,1.777,2.995
							c0.597,0.863,1.177,1.643,1.765,2.427c0.614,0.761,1.298,1.471,2.035,2.267c0.748,0.783,1.637,1.521,2.645,2.426
							c4.296,3.543,8.985,6.393,13.724,8.992c4.752,2.575,9.573,4.926,14.326,7.442c3.843,2.031,7.925,3.625,11.939,5.226
							l2.994,1.21l3.123,1.21c2.075,0.815,4.132,1.653,6.146,2.554c8.625,4.057,17.572,7.844,27.095,10.129l3.789,0.938l3.826,0.831
							l3.823,0.863c1.274,0.287,2.552,0.479,3.829,0.723c2.549,0.459,5.143,0.951,7.607,1.285c2.472,0.369,5.052,0.682,7.438,0.988
							l5.887,0.693l5.665,0.917c0.938,0.152,1.897,0.287,2.863,0.498l1.166,0.245c0.075,0.004,0.154,0.02,0.233,0.032
							c0.313,0.058,0.66,0.149,0.929,0.372c0.24,0.186,0.364,0.518,0.25,0.807c-0.082,0.231-0.242,0.428-0.417,0.598
							c-0.089,0.085-0.181,0.164-0.277,0.237l-0.443,0.315c-1.95,1.404-4.226,2.695-6.695,3.996l-1.225,0.646l-1.155,0.579
							l-2.301,1.169c-1.504,0.81-3.116,1.519-4.699,2.258l-2.375,1.111l-2.442,1.06c-1.634,0.706-3.238,1.429-4.918,2.115
							l-10.053,4.184l-4.973,2.001l-4.928,1.806c-1.485,0.525-2.96,0.912-4.439,1.349c-1.465,0.462-2.982,0.743-4.483,1.052
							c-1.511,0.285-2.98,0.653-4.515,0.854l-4.58,0.637c-6.152,0.726-12.355,1.241-18.807,1.96
							c-6.795,0.826-16.234,1.364-22.011,4.702c-1.393,0.808-1.758,2.127-1.695,3.271c-0.095-1.877,7.839,1.599,8.403,1.754
							c3.447,0.929,7.212,1.205,10.853,1.726c7.036,0.992,13.519,2.452,21.176,1.738l3-0.278c1-0.112,2.002-0.282,3.003-0.428
							l3.002-0.47c1.001-0.152,2-0.32,2.997-0.564l5.977-1.385c1.965-0.576,3.923-1.184,5.881-1.792
							c1.915-0.651,3.782-1.356,5.673-2.043c1.864-0.703,3.659-1.448,5.491-2.175c3.577-1.471,7.159-2.944,10.749-4.421
							c1.529-0.615,3.084-1.306,4.63-1.976c1.546-0.675,3.09-1.333,4.641-2.093c1.548-0.745,3.098-1.453,4.64-2.232l4.612-2.458
							c2.851-1.557,5.993-3.31,9.119-5.5l1.193-0.865c0.575-0.458,1.249-0.95,1.826-1.466c1.21-1.011,2.323-2.114,3.29-3.278
							c1.962-2.328,3.21-4.928,3.554-7.655c0.174-1.398,0.112-2.865-0.249-4.285c-0.353-1.424-1-2.771-1.828-4.021
							c-0.78-1.057-1.659-2.034-2.72-2.9c-1.057-0.865-2.288-1.602-3.604-2.251c-1.316-0.652-2.765-1.155-4.234-1.602l-1.114-0.321
							l-0.86-0.228l-1.254-0.318C163.662,268.534,160.252,267.834,156.973,267.242z"/>
					</g>
				</g>
			</g>
		</g>
		<g>
			<g>
				<g>
					<path fill="#FFFFFF" d="M151.808,333.833l-0.264,0.053C151.664,333.87,151.746,333.882,151.808,333.833z"/>
					<path fill="#FFFFFF" d="M189.51,324.829l-0.025,0.173C189.537,324.931,189.532,324.874,189.51,324.829z"/>
					<path fill="#FFFFFF" d="M192.632,308.963l0.202-0.092C192.732,308.901,192.673,308.931,192.632,308.963z"/>
					<g>
						<path fill="#FFFFFF" d="M178.031,312.963c-3.279,0.87-6.547,1.754-9.772,2.805c-1.607,0.551-3.234,1.004-4.85,1.503
							c-1.615,0.501-3.223,1.031-4.825,1.592c-3.286,1.228-6.619,2.221-9.976,3.268c-1.683,0.498-3.367,1.032-5.086,1.417
							c-1.722,0.375-3.46,0.705-5.217,0.965l-2.79,0.402l-2.805,0.315l-5.607,0.62l-5.568,0.586
							c-1.812,0.125-3.667,0.398-5.452,0.476c-0.909,0.055-1.814,0.108-2.717,0.162c-0.891-0.025-1.779-0.051-2.667-0.077
							c-1.759,0.001-3.596-0.345-5.394-0.57c-0.904-0.139-1.802-0.232-2.71-0.421l-2.724-0.565
							c-0.908-0.193-1.818-0.388-2.731-0.582c-0.92-0.224-1.843-0.447-2.77-0.672c-3.563-0.849-7.238-1.479-10.971-2.015
							c-1.886-0.242-3.767-0.533-5.631-0.808c-1.862-0.241-3.715-0.54-5.558-0.942c-1.956-0.397-3.881-0.872-5.83-1.296
							c-0.958-0.208-5.881,0.029-6.881,0.308c-0.454,0.125,2.254,1.425,3.012,1.772c2.481,1.14,6.326,2.719,8.321,3.316
							c4.02,1.293,5.906,1.794,9.993,2.85c8.487,2.132,16.703,4.779,25.567,7.261c1.757,0.583,3.704,0.816,5.635,1.06
							c0.974,0.144,1.931,0.147,2.897,0.178l2.901,0.042c3.823-0.125,7.555-0.418,11.182-0.538
							c3.941-0.115,7.895-0.098,11.867-0.357c1.983-0.123,3.976-0.195,5.955-0.435c1.979-0.245,3.957-0.53,5.928-0.879
							c2.093-0.393,4.212-0.638,6.303-1.028l6.288-1.109c4.218-0.651,8.359-1.637,12.467-2.779
							c4.072-1.058,8.004-2.524,11.982-3.838l2.978-1.002l2.95-1.068l5.854-2.115c4.537-1.625,8.984-3.16,13.432-4.508
							c5.22-1.576,10.338-2.969,15.431-4.032l3.807-0.635l0.951-0.162l0.989-0.132c0.632-0.078,1.22-0.146,1.76-0.184
							c0.544-0.042,1.053-0.064,1.485-0.055c0.104,0.004,0.229-0.004,0.317,0.007l0.203,0.011c0.061,0.003,0.104,0.006,0.155,0.015
							c0.197,0.027,0.4,0.105,0.525,0.27c0.039,0.046,0.08,0.084,0.11,0.146l0.154,0.199c0.078,0.088,0.117,0.167,0.161,0.245
							c0.345,0.529,0.427,0.915,0.393,1.049c-0.015,0.091-0.02,0.18-0.074,0.257c-0.023,0.083-0.087,0.133-0.167,0.287
							c-0.289,0.569-1.457,1.857-3.05,3.017c-1.596,1.192-3.558,2.36-5.662,3.539c-1.111,0.62-2.224,1.241-3.341,1.863
							c-0.716,0.44-1.428,0.891-2.134,1.352c-0.351,0.23-0.71,0.461-1.048,0.699l-0.947,0.74c-2.764,2.101-5.399,4.616-7.522,6.953
							c-2.141,2.363-3.743,4.595-4.796,6.877c-0.503,1.141-0.207,2.473,0.318,3.49c-0.423-0.849,1.072-1.112,2.861-1.305
							c1.732-0.274,3.775-0.467,3.996-0.566c2.951-0.86,5.619-2.627,8.32-3.868c2.599-1.233,5.122-1.966,7.44-2.505
							c2.701-0.7,5.713-1.685,8.686-3.531c1.841-1.146,3.683-2.465,5.48-4.167c0.896-0.857,1.783-1.793,2.623-2.916
							c0.839-1.103,1.642-2.365,2.287-3.868c0.336-0.721,0.602-1.55,0.837-2.379c0.222-0.87,0.388-1.754,0.458-2.66
							c0.139-1.796,0.004-3.645-0.496-5.375c-0.471-1.704-1.171-3.226-1.969-4.503l-0.607-0.959l-0.647-0.867
							c-0.538-0.722-1.164-1.385-1.769-2.064c-1.772-1.802-4.08-3.019-6.555-3.575c-0.619-0.143-1.243-0.26-1.876-0.335
							c-0.64-0.092-1.273-0.121-1.718-0.149c-0.941-0.035-1.849-0.031-2.679,0.016c-1.688,0.086-3.182,0.271-4.509,0.457
							l-4.243,0.681c-5.79,1.043-11.387,2.564-16.705,4.344c-2.71,0.845-5.279,1.802-7.914,2.695l-7.695,2.714
							c-3.063,1.061-6.1,2.029-9.217,2.933C184.295,311.179,181.153,312.045,178.031,312.963z"/>
					</g>
				</g>
			</g>
		</g>
		<g>
			<g>
				<g>
					<path fill="#FFFFFF" d="M243.036,203.235l-0.008-0.021C243.023,203.223,242.998,203.229,243.036,203.235z"/>
					<path fill="#FFFFFF" d="M233.616,208.785l-0.016-0.16C233.587,208.684,233.598,208.738,233.616,208.785z"/>
					<path fill="#FFFFFF" d="M233.359,223.458l-0.121,0.05C233.3,223.498,233.335,223.48,233.359,223.458z"/>
					<g>
						<path fill="#FFFFFF" d="M242.322,221.31c2.026-0.777,4.049-1.807,6.017-3.297c1.946-1.505,3.901-3.388,5.349-6.143
							c0.745-1.365,1.294-3.02,1.553-4.679c0.283-1.681,0.148-3.393-0.154-4.927c-0.359-1.59-0.888-2.707-1.403-3.878l-0.842-1.664
							c-0.309-0.515-0.606-1.031-0.895-1.553c-1.269-2.143-2.727-3.956-4.273-5.55c-1.548-1.597-3.202-2.954-4.956-4.089
							c-3.521-2.292-6.577-4.617-9.437-7.15c-0.717-0.63-1.45-1.187-2.27-1.731c-0.821-0.544-1.663-1.059-2.495-1.58
							c-1.656-1.053-3.409-2.006-4.857-3.375c-0.767-0.742-1.591-1.436-2.402-2.155c-0.412-0.351-3.107-0.984-3.728-0.89
							c-0.282,0.042,0.552,1.655,0.776,2.083c0.76,1.429,1.947,3.381,2.628,4.234c1.343,1.806,1.969,2.597,3.569,4.056
							c1.611,1.571,3.21,3.073,4.768,4.764c1.587,1.683,3.171,3.377,4.502,5.252c2.152,3.012,5.362,4.783,7.112,7.47
							c0.914,1.436,1.519,2.924,1.82,4.195c0.308,1.22,0.327,2.526,0.31,2.606c-0.003,0.136-0.077,0.23-0.245,0.416
							c-0.168,0.179-0.454,0.437-0.908,0.732c-0.87,0.596-2.193,1.27-3.643,2.03c-2.864,1.531-6.444,2.948-10.148,3.686
							c-2.153,0.43-4.414,0.696-6.436,0.715c-5.92,0.053-11.988,0.468-17.984,0.261c-1.356-0.059-2.701-0.204-4.036-0.384
							c-1.328-0.213-2.642-0.475-3.957-0.709l-1.971-0.333c-0.648-0.126-1.296-0.242-1.947-0.338
							c-1.297-0.201-2.623-0.301-3.944-0.33c-1.38-0.063-2.994-0.201-4.625,0.006c-1.577,0.144-3.142,0.581-4.642,1.809
							c-0.725,0.594-1.224,1.815-1.507,2.925c0.235-0.91,0.879-0.258,1.529,0.661c0.646,0.917,1.313,2.103,1.415,2.218
							c1.215,1.43,2.758,2.1,4.194,3.077c2.795,1.942,5.332,4.039,8.563,4.796c6.737,1.389,13.474,1.308,20.238,1.208l4.319-0.131
							l4.337-0.265c0.668-0.038,1.571-0.102,2.36-0.189c0.807-0.082,1.589-0.181,2.368-0.286c1.554-0.213,3.081-0.464,4.609-0.742
							C234.605,223.47,238.428,222.78,242.322,221.31z"/>
					</g>
				</g>
			</g>
		</g>
		
			<path fill-rule="evenodd" clip-rule="evenodd" fill="none" stroke="#000000" stroke-width="2" stroke-linecap="round" stroke-linejoin="round" stroke-miterlimit="10" d="
			M212.367,248.122"/>
		<g>
			<g>
				<g>
					<path fill="#FFFFFF" d="M438.948,183.499l-0.523-0.446C438.657,183.256,438.802,183.398,438.948,183.499z"/>
					<path fill="#FFFFFF" d="M469.519,272.702l-0.039-0.208C469.47,272.679,469.49,272.715,469.519,272.702z"/>
					<path fill="#FFFFFF" d="M468.938,295.462l-0.274,0.573C468.802,295.764,468.882,295.593,468.938,295.462z"/>
					<g>
						<path fill="#FFFFFF" d="M479.021,253.19c-0.087-2.467-0.049-4.94-0.317-7.398c-0.116-1.229-0.181-2.464-0.345-3.688
							l-0.522-3.667c-0.826-4.863-1.91-9.695-3.513-14.352l-0.57-1.754c-0.203-0.58-0.437-1.149-0.653-1.724l-1.338-3.432
							c-1.023-2.23-1.959-4.499-3.137-6.646c-2.198-4.371-4.819-8.498-7.642-12.437l-2.231-3.005l-2.374-2.885
							c-0.774-0.974-1.616-1.89-2.457-2.805c-0.849-0.908-1.649-1.858-2.537-2.726c-3.454-3.566-7.183-6.835-11.038-9.937
							c-7.82-6.067-16.329-11.241-25.439-15.336c-19.255-8.736-40.602-12.355-61.554-10.354
							c-21.041,2.018-41.111,8.816-58.614,20.832c-16.873,11.6-29.971,28.22-37.646,47.116c-2.106,5.03-3.681,10.239-4.888,15.559
							c-0.129,0.658-0.408,1.979-0.646,3.647c-0.174,1.677-0.479,3.679-0.584,5.695c-0.303,4.031-0.163,8.056-0.11,9.362
							c0.029,0.596,0.216-1.076,0.419-3.156c0.145-2.084,0.591-4.559,0.721-5.636c0.063-0.441,0.127-0.897,0.193-1.366
							c0.09-0.465,0.183-0.942,0.277-1.43c0.189-0.973,0.388-1.986,0.59-3.023c0.187-1.038,0.502-2.075,0.748-3.129
							c0.28-1.047,0.487-2.115,0.823-3.14c0.647-2.055,1.192-4.082,1.89-5.867c0.322-0.898,0.629-1.753,0.913-2.547
							c0.282-0.794,0.611-1.503,0.866-2.151c2.077-5.242,4.053-8.877,6.08-12.494c1.068-1.78,2.091-3.595,3.386-5.478
							c1.213-1.934,2.703-3.922,4.395-6.243c7.234-9.416,16.004-17.401,25.723-23.826c4.881-3.187,10.014-5.955,15.321-8.323
							c5.308-2.367,10.798-4.337,16.439-5.789c1.128-0.333,2.28-0.595,3.435-0.857c1.151-0.267,2.307-0.535,3.465-0.803
							c2.342-0.417,4.667-0.969,7.046-1.276c1.185-0.178,2.37-0.357,3.559-0.536l3.588-0.392l1.797-0.195l1.806-0.118l3.614-0.242
							c9.651-0.364,19.403,0.243,28.707,2.212c20.169,4.174,38.998,13.827,54.105,27.688c4.054,3.655,7.709,7.722,11.055,12.001
							c3.32,4.299,6.339,8.834,8.85,13.637c5.028,9.586,8.501,19.98,9.91,30.705c1.502,10.556,1,21.375-1.299,31.785
							c-1.171,5.207-2.862,10.292-4.942,15.213c-2.084,4.921-4.598,9.675-7.559,14.146c-6.844,10.484-15.788,19.589-26.013,26.847
							c-25.841,18.479-59.552,25.124-90.659,18.8c-14.069-2.832-27.35-8.378-39.095-16.15
							c-11.726-7.787-22.029-17.742-29.923-29.615c-4.184-6.273-8.317-14.197-11.041-22.341c-1.472-4.037-2.473-8.142-3.432-11.984
							c-0.36-1.941-0.815-3.808-1.125-5.603c-0.271-1.799-0.66-3.501-0.875-5.101c-0.45-3.105-1.129-4.088-1.701-4.098
							c0.235,0.007,0.319,1.077,0.313,2.704c-0.015,0.814-0.032,1.768-0.051,2.796c0.006,1.03,0.013,2.136,0.019,3.251
							c0.004,0.559-0.014,1.123,0.003,1.68c0.025,0.556,0.051,1.105,0.076,1.642c0.044,1.078,0.087,2.101,0.124,3.003
							c0.141,1.799,0.281,3.12,0.313,3.436c0.45,3.802,1.382,7.731,2.479,11.678c1.221,3.903,2.605,7.832,4.281,11.542
							c3.172,7.216,6.951,13.77,11.516,19.934c4.572,6.155,9.992,11.882,16.602,17.211c3.437,2.828,7.123,5.321,10.854,7.73
							c3.804,2.287,7.667,4.49,11.701,6.342c8.023,3.782,16.455,6.704,25.118,8.587c17.314,3.804,35.404,3.998,52.859,0.377
							c14.835-3.037,29.12-8.845,41.806-17.169c6.343-4.159,12.284-8.942,17.688-14.288c5.393-5.356,10.225-11.29,14.372-17.685
							C473.055,290.957,479,272.152,479.021,253.19z"/>
					</g>
				</g>
			</g>
		</g>
	</g>
</g>
<g id="Layer_5" display="none">
	<g display="inline">
		<g>
			<g>
				<g>
					<path fill="#FFFFFF" d="M167.435,171.721l-0.215-0.096C167.313,171.676,167.364,171.729,167.435,171.721z"/>
					<path fill="#FFFFFF" d="M194.584,194.081l-0.165,0.057C194.506,194.151,194.554,194.121,194.584,194.081z"/>
					<path fill="#FFFFFF" d="M210.109,189.652l0.168,0.136C210.207,189.712,210.155,189.673,210.109,189.652z"/>
					<g>
						<path fill="#FFFFFF" d="M199.814,178.372c-1.188-1.276-2.562-2.547-3.873-3.788c-0.675-0.619-1.314-1.243-2.03-1.841
							l-2.179-1.769l-2.203-1.726c-0.741-0.566-1.579-1.072-2.368-1.597l-2.412-1.527l-1.212-0.739l-1.267-0.664
							c-6.977-3.638-14.443-5.705-21.955-7.545c-3.994-0.979-8.08-1.622-12.213-1.749c-4.127-0.125-8.307,0.261-12.324,1.345
							c-8.04,2.195-15.544,5.791-21.813,11.125c-3.041,2.544-5.542,5.581-7.81,8.676c-2.249,3.117-4.281,6.298-6.549,9.315
							c-1.214,1.611-2.448,3.183-3.634,4.802c-0.587,0.801-2.326,5.471-2.438,6.494c-0.059,0.464,2.193-1.538,2.804-2.097
							c2.029-1.84,4.99-4.698,6.396-6.21c2.817-3.089,4.133-4.493,6.864-7.636c2.833-3.223,5.836-6.18,9.161-8.591
							c3.315-2.411,6.962-4.254,10.813-5.213c3.082-0.817,6.181-1.559,9.377-2.075c3.184-0.5,6.467-0.685,9.651-0.234
							c6.928,0.994,13.33,3.915,19.574,6.982c3.335,1.664,6.457,3.738,9.274,6.216l2.15,1.796c0.71,0.617,1.393,1.315,2.097,1.958
							l2.119,1.941l2.131,2.046c5.693,5.305,11.435,11.211,17.888,16.97c1.813,1.72,3.875,3.305,5.886,4.923
							c0.512,0.399,0.988,0.82,1.528,1.202l1.621,1.147c1.063,0.789,2.21,1.468,3.328,2.19c5.727,3.545,12.199,6.016,18.848,7.296
							c3.328,0.625,6.691,0.979,10.045,1.094c3.353,0.08,6.687-0.079,9.982-0.419c2.982-0.308,5.904-0.751,8.811-1.249
							c2.884-0.558,5.757-1.166,8.561-1.973c5.615-1.584,11.056-3.756,16.076-6.767c5.327-3.127,12.271-7.881,14.415-13.356
							c0.527-1.319,0.021-2.564-0.681-3.47c0.575,0.74-1.021,1.331-2.804,1.708c-1.796,0.365-3.759,0.512-4.005,0.557
							c-2.89,0.687-5.697,1.897-8.538,2.712c-5.524,1.557-10.678,1.961-15.996,3.603c-5.606,1.665-11.159,3.031-16.704,3.652
							c-5.537,0.669-11.057,0.58-16.391-0.471c-2.268-0.44-4.48-1.09-6.664-1.827c-2.152-0.826-4.305-1.679-6.338-2.821
							c-1.046-0.504-2.017-1.172-3.031-1.749c-0.974-0.67-1.958-1.268-2.914-2.02c-1.904-1.524-3.844-2.938-5.666-4.718
							C208.754,188.263,204.573,183.312,199.814,178.372z"/>
					</g>
				</g>
			</g>
		</g>
		<g>
			<g>
				<g>
					<path fill="#FFFFFF" d="M106.138,259.371l-0.225,0.04C106.016,259.401,106.085,259.417,106.138,259.371z"/>
					<path fill="#FFFFFF" d="M137.928,262.79l-0.112,0.126C137.89,262.887,137.918,262.839,137.928,262.79z"/>
					<path fill="#FFFFFF" d="M150.089,252.489l0.215,0.072C150.208,252.514,150.142,252.495,150.089,252.489z"/>
					<g>
						<path fill="#FFFFFF" d="M135.428,246.624c-1.76-0.425-3.518-0.862-5.303-1.183c-1.806-0.25-3.616-0.465-5.42-0.644
							c-1.825-0.063-3.649-0.067-5.458-0.046c-1.802,0.061-3.562,0.313-5.321,0.514c-7.236,1.053-13.924,3.374-20.696,5.108
							c-7.187,1.848-14.149,4.061-20.747,7.129c-3.274,1.596-6.552,3.016-9.863,4.358l-2.489,0.994l-2.468,1.059
							c-1.653,0.697-3.313,1.396-4.984,2.101c-1.614,0.676-3.192,1.426-4.753,2.207c-1.547,0.811-3.057,1.695-4.58,2.545
							c-3.032,1.733-6.12,3.33-9.321,4.725c-1.708,0.747-3.45,1.405-5.174,2.124c-0.851,0.354-4.516,3.262-5.111,4.031
							c-0.271,0.349,2.56-0.077,3.336-0.205c2.555-0.425,6.359-1.218,8.214-1.814c1.879-0.599,3.256-1.036,4.643-1.478
							c1.377-0.457,2.739-0.97,4.58-1.735c1.898-0.793,3.785-1.581,5.663-2.366c1.908-0.718,3.81-1.424,5.717-2.104
							c1.908-0.681,3.821-1.334,5.751-1.945c1.922-0.631,3.922-1.072,5.914-1.536c3.234-0.7,6.365-1.915,9.494-3.054
							c1.567-0.548,3.123-1.156,4.694-1.658c1.572-0.496,3.146-0.974,4.727-1.357c6.878-1.589,13.772-2.26,20.474-3.105
							c1.789-0.254,3.578-0.271,5.364-0.37c1.784-0.039,3.55,0.117,5.315,0.169c1.75,0.131,3.452,0.413,5.175,0.566
							c1.71,0.313,3.42,0.585,5.14,0.854c6.76,1.226,13.53,3.365,20.004,6.554c0.941,0.474,1.887,0.931,2.821,1.424l2.776,1.566
							c1.834,1.007,3.728,2.238,5.577,3.369c4.709,2.979,9.569,5.93,14.634,8.765c5.084,2.826,10.436,5.453,16.032,7.761
							c1.283,0.497,2.554,1.012,3.819,1.538c1.273,0.507,2.578,0.924,3.862,1.402c2.568,1.006,5.176,1.688,7.787,2.494
							c5.224,1.344,10.557,2.418,15.909,2.562c5.679,0.236,13.228,0.422,17.853-2.487c1.131-0.699,1.502-1.988,1.532-3.133
							c-0.058,1.874-5.924-2.18-6.336-2.395c-2.57-1.205-5.417-1.798-8.078-2.744c-2.591-0.857-4.955-2.004-7.356-2.928
							c-2.355-1.065-4.766-1.874-7.319-2.612c-2.724-0.651-5.328-1.492-7.951-2.229c-1.277-0.449-2.554-0.882-3.834-1.301
							c-0.646-0.192-1.274-0.438-1.898-0.698l-1.883-0.742c-5.02-2.019-10.013-4.453-15.015-7.28
							c-4.264-2.432-8.545-4.952-12.962-7.554l-3.336-1.939c-1.134-0.645-2.2-1.303-3.395-1.94l-3.505-1.931
							c-1.172-0.641-2.396-1.223-3.59-1.842C148.333,251.295,142.113,248.465,135.428,246.624z"/>
					</g>
				</g>
			</g>
		</g>
		<g>
			<g>
				<g>
					<path fill="#FFFFFF" d="M237.827,256.792l-0.218-0.049C237.705,256.773,237.761,256.814,237.827,256.792z"/>
					<path fill="#FFFFFF" d="M269.898,262.828l-0.077,0.152C269.887,262.932,269.901,262.878,269.898,262.828z"/>
					<path fill="#FFFFFF" d="M277.218,249.069l0.176-0.017C277.31,249.045,277.257,249.053,277.218,249.069z"/>
					<g>
						<path fill="#FFFFFF" d="M265.169,247.522c-2.728-0.343-5.44-0.83-8.188-1.098c-2.747-0.22-5.511-0.641-8.307-0.811
							c-5.753-0.436-11.662-0.752-17.381-2.333c-3.028-0.805-6.015-1.805-9.022-2.678c-2.999-0.907-5.967-1.846-9.029-2.601
							c-3.04-0.837-5.983-1.83-8.885-2.922c-2.841-1.198-5.729-2.386-8.516-3.749c-1.329-0.672-2.69-1.268-4.07-1.832
							c-1.381-0.562-2.696-1.234-4.057-1.84l-2.022-0.95c-0.674-0.319-1.292-0.727-1.931-1.102c-1.266-0.772-2.504-1.594-3.68-2.498
							c-1.188-1.06-2.298-2.189-3.447-3.262c-0.141-0.132-0.474-0.334-0.909-0.567c-0.515-0.283-0.67-0.277-1.279-0.685
							c-0.554-0.35-1.187-0.755-1.934-1.114c-0.202-0.094-0.324-0.156-0.564-0.25c-0.232-0.09-0.449-0.163-0.646-0.22
							c-0.141-0.048-0.511-0.127-0.761-0.151c-0.263-0.029-0.484-0.031-0.654-0.023c-0.312,0.028-0.019,0.111,0.546,0.344
							c0.14,0.06,0.294,0.132,0.454,0.217c0.13,0.081,0.199,0.159,0.308,0.248c0.191,0.171,0.446,0.38,0.557,0.56
							c0.608,0.758,0.933,1.519,1.108,1.845c0.297,0.556,0.463,1.067,0.871,1.616c0.373,0.556,0.772,1.133,1.173,1.693
							c0.801,1.12,1.611,2.17,2.207,2.829c1.226,1.306,2.215,2.157,3.2,3.041c1.009,0.847,2.008,1.753,3.564,2.693
							c1.588,1,3.157,2.034,4.758,2.989c1.626,0.903,3.247,1.811,4.86,2.744c1.618,0.914,3.25,1.731,4.858,2.659
							c1.617,0.894,3.2,1.913,4.819,2.837c2.608,1.523,5.44,2.764,8.335,3.766c2.896,0.996,5.812,2.012,8.604,3.138
							c3.027,1.238,5.996,2.616,9.076,3.805c1.532,0.608,3.072,1.199,4.627,1.752c1.558,0.548,3.168,0.99,4.777,1.411
							c3.435,0.941,6.864,1.881,10.293,2.821l2.588,0.707c0.873,0.207,1.757,0.385,2.638,0.568c1.765,0.361,3.538,0.692,5.321,0.964
							c7.043,0.967,14.218,1.203,21.465,1.109l3.178-0.055l3.191-0.175l1.598-0.083l1.601-0.152l3.206-0.301
							c5.387-0.644,10.854-1.956,16.033-3.965c1.313-0.457,2.579-1.045,3.85-1.618c0.632-0.291,1.279-0.562,1.896-0.871l1.833-0.952
							c1.241-0.621,2.407-1.298,3.573-1.975c0.578-0.339,1.188-0.665,1.74-1.014l2.226-1.349c1.649-0.989,3.404-1.946,4.592-3.161
							c1.277-1.142,2.097-2.636,2.773-4.272c0.465-1.411,0.733-2.906,0.684-4.397c-0.044-1.49-0.359-2.962-0.907-4.389
							c-1.08-2.856-3.275-5.516-5.752-7.797c-2.856-2.717-6.023-5.168-9.523-7.063c-1.219-0.602-2.517-1.315-3.904-1.923
							c-1.396-0.585-2.832-1.2-4.314-1.583c-0.736-0.206-1.473-0.389-2.201-0.535c-0.737-0.118-1.467-0.203-2.181-0.245
							c-1.423-0.106-2.804,0.045-4.056,0.415c-1.217,0.36-1.897,1.5-2.242,2.593c0.28-0.897,1.434,0.026,2.499,1.193
							c1.071,1.173,1.998,2.673,2.144,2.813c1.734,1.863,3.784,3.357,5.517,5.099c3.34,3.432,5.425,7.169,8.455,10.371
							c0.152,0.33,0.122,0.478,0.121,0.653c-0.016,0.158-0.08,0.292-0.183,0.38c-0.1,0.095-0.246,0.106-0.322,0.138l-0.051,0.017
							l-0.859,0.524c-0.711,0.44-1.409,0.809-2.112,1.22c-1.402,0.845-2.804,1.499-4.206,2.234c-1.435,0.6-2.813,1.324-4.305,1.812
							c-3.722,1.397-7.526,2.476-11.576,3.119c-4.023,0.667-8.14,1.087-12.326,1.034
							C275.582,248.922,270.38,248.269,265.169,247.522z"/>
					</g>
				</g>
			</g>
		</g>
		<g>
			<g>
				<g>
					<path fill="#FFFFFF" d="M247.327,276.186l-0.282-0.068C247.169,276.156,247.245,276.203,247.327,276.186z"/>
					<path fill="#FFFFFF" d="M286.924,283.728l-0.11,0.135C286.895,283.828,286.919,283.777,286.924,283.728z"/>
					<path fill="#FFFFFF" d="M302.814,276.896l0.275,0.308C302.969,277.044,302.887,276.96,302.814,276.896z"/>
					<g>
						<path fill="#FFFFFF" d="M281.992,267.74c-1.897-0.31-3.801-0.59-5.706-0.842c-1.869-0.234-3.666-0.406-5.507-0.567
							c-1.779-0.151-3.557-0.302-5.332-0.452c-1.754-0.129-3.52-0.212-5.239-0.414c-1.784-0.19-3.592-0.266-5.39-0.496
							c-1.806-0.242-3.611-0.484-5.419-0.727c-3.6-0.656-7.228-1.4-10.749-2.664c-0.934-0.326-1.872-0.63-2.797-0.981l-2.755-1.128
							l-5.508-2.246c-1.838-0.74-3.682-1.47-5.539-2.177c-1.902-0.766-3.846-1.524-5.779-2.19
							c-7.773-2.697-15.017-5.64-21.779-9.531c-6.429-3.729-13.125-7.203-16.67-13.699c-0.95-1.716-1.745-3.505-2.509-5.358
							c-0.409-0.845-3.342-5.048-4.122-5.813c-0.354-0.343,0.036,2.792,0.184,3.648c0.214,1.417,0.579,3.176,0.999,4.859
							c0.455,1.663,0.962,3.255,1.44,4.275c0.438,1.056,0.911,1.929,1.341,2.748c0.411,0.831,0.88,1.543,1.353,2.262
							c0.241,0.358,0.481,0.716,0.729,1.084c0.281,0.344,0.569,0.696,0.87,1.065c0.309,0.364,0.632,0.745,0.975,1.149
							c0.361,0.38,0.757,0.764,1.179,1.183c3.502,3.458,7.481,6.236,11.516,8.774c4.041,2.548,8.18,4.842,12.242,7.281
							c3.287,1.975,6.819,3.505,10.287,5.019c3.37,1.52,7.076,3.025,10.541,4.753c7.428,3.871,15.104,7.678,23.468,9.929
							c2.227,0.579,4.42,1.26,6.681,1.768c2.244,0.531,4.485,1.194,6.736,1.594c4.542,0.972,8.937,1.678,13.226,2.23l5.201,0.673
							l4.966,0.868c0.829,0.149,1.646,0.269,2.503,0.476c0.26,0.059,0.173,0.032,0.238,0.045l0.104,0.012l0.213,0.034
							c0.283,0.056,0.594,0.154,0.817,0.37c0.184,0.162,0.281,0.417,0.227,0.657c-0.096,0.426-0.444,0.744-0.77,0.993
							c-0.04,0.032-0.088,0.061-0.12,0.082l-0.565,0.432c-0.419,0.312-0.858,0.621-1.313,0.928c-0.91,0.613-1.876,1.211-2.896,1.812
							l-2.037,1.187l-1.95,1.09l-1.94,1.104c-0.65,0.365-1.345,0.694-2.014,1.046c-2.661,1.414-5.461,2.74-8.267,4.083l-8.644,3.991
							c-2.869,1.301-5.708,2.57-8.51,3.653c-10.076,3.938-20.511,4.255-31.669,5.709c-5.889,0.817-14.14,1.336-19.176,4.664
							c-1.212,0.805-1.514,2.123-1.443,3.267c-0.107-1.876,6.893,1.611,7.387,1.768c3.031,0.937,6.336,1.214,9.542,1.742
							c6.195,0.983,11.946,2.47,18.739,1.739c7.062-0.751,14.28-2.348,21.066-4.963c1.645-0.657,3.313-1.313,4.931-1.994
							l4.738-2.096c3.085-1.407,6.174-2.817,9.271-4.229c5.338-2.476,10.765-5.265,16.018-8.508c1.155-0.721,2.53-1.572,3.851-2.466
							c0.668-0.453,1.34-0.918,2.015-1.415l1.015-0.764l0.508-0.397l0.622-0.505c1.071-0.901,2.099-1.82,3.02-2.826
							c0.937-0.99,1.775-2.044,2.455-3.146c1.406-2.193,2.196-4.563,2.275-7.012c0.034-1.149-0.093-2.324-0.405-3.469
							c-0.306-1.152-0.835-2.229-1.439-3.285l-1.104-1.407c-0.188-0.23-0.356-0.475-0.561-0.693l-0.669-0.615
							c-0.839-0.867-1.934-1.535-3.004-2.224l-1.757-0.895c-0.598-0.285-1.259-0.489-1.889-0.739
							c-0.628-0.258-1.3-0.436-1.962-0.637l-0.997-0.297l-0.63-0.174c-1.433-0.391-2.971-0.708-4.463-1.058l-2.26-0.506
							C283.468,268.006,282.713,267.844,281.992,267.74z"/>
					</g>
				</g>
			</g>
		</g>
		<g>
			<g>
				<g>
					<path fill="#FFFFFF" d="M290.768,328.288l-0.26,0.07C290.627,328.335,290.71,328.341,290.768,328.288z"/>
					<path fill="#FFFFFF" d="M327.374,316.063l-0.011,0.174C327.408,316.163,327.399,316.107,327.374,316.063z"/>
					<path fill="#FFFFFF" d="M330.033,300.067l0.217-0.097C330.142,300.003,330.078,300.035,330.033,300.067z"/>
					<g>
						<path fill="#FFFFFF" d="M314.997,305.103l-4.771,1.852c-1.561,0.652-3.137,1.235-4.697,1.865
							c-3.126,1.241-6.185,2.697-9.289,3.962c-3.182,1.371-6.326,2.912-9.6,4.083c-1.628,0.621-3.27,1.223-4.932,1.782
							c-1.662,0.563-3.376,0.922-5.096,1.302c-1.829,0.37-3.653,0.739-5.476,1.107l-5.521,0.855
							c-1.832,0.316-3.687,0.557-5.542,0.821c-1.85,0.259-3.714,0.592-5.555,0.876c-3.744,0.642-7.293,0.886-10.789,0.717
							l-2.596-0.207l-2.668-0.455c-0.891-0.16-1.78-0.302-2.677-0.483c-0.901-0.214-1.804-0.429-2.711-0.646
							c-1.739-0.394-3.523-0.785-5.321-1.153l-5.452-1.041c-1.805-0.369-3.703-0.663-5.578-1.016
							c-1.875-0.392-3.726-0.694-5.567-1.127c-1.948-0.474-3.885-0.944-5.831-1.418c-0.979-0.226-5.875-0.049-6.882,0.215
							c-0.455,0.119,2.229,1.454,2.981,1.812c2.459,1.184,6.29,2.781,8.254,3.452c4.002,1.32,5.791,2.009,9.849,3.152
							c2.114,0.645,4.214,1.284,6.306,1.922c1.054,0.324,2.107,0.647,3.158,0.971l3.206,0.922c2.118,0.666,4.322,1.174,6.531,1.748
							c0.556,0.138,1.096,0.307,1.667,0.427l1.737,0.336c1.163,0.229,2.341,0.493,3.503,0.629c0.944,0.137,1.904,0.251,2.866,0.329
							c0.941,0.036,1.89,0.05,2.842,0.047c1.911-0.002,3.735-0.164,5.599-0.319c3.679-0.395,7.354-0.761,11.015-1.081
							c1.979-0.169,3.975-0.212,5.956-0.438l5.964-0.635l2.988-0.354c0.992-0.143,1.971-0.346,2.956-0.53
							c1.968-0.382,3.931-0.806,5.883-1.291c2.091-0.471,4.124-1.116,6.198-1.628c2.064-0.546,4.151-1.028,6.214-1.585
							c2.044-0.604,4.09-1.212,6.128-1.851c2.043-0.63,4.072-1.301,6.044-2.11c7.81-3.105,15.031-6.611,22.382-8.824l1.604-0.487
							l0.401-0.121l0.201-0.061l0.07-0.017l0.269-0.061l1.063-0.228c0.437-0.049,0.739-0.066,1.035-0.028
							c0.237,0.037,0.479,0.067,0.687,0.218c0.126,0.09,0.221,0.255,0.194,0.424c-0.021,0.167-0.101,0.314-0.185,0.448
							c-0.178,0.263-0.38,0.503-0.616,0.732c-0.118,0.114-0.246,0.225-0.381,0.333l-0.204,0.154l-0.084,0.06l-0.536,0.346
							c-1.885,1.166-3.905,2.238-6.009,3.237c-4.55,2.166-9.703,3.788-14.566,5.224c-2.42,0.8-4.966,1.399-7.454,2.142
							c-1.239,0.377-2.482,0.754-3.729,1.133c-1.23,0.364-2.463,0.755-3.757,1.167c-2.693,0.886-6.058,1.837-9.322,3.325
							c-3.24,1.475-6.33,3.449-8.084,5.991c-0.858,1.212-0.604,2.528-0.086,3.549c-0.43-0.833,1.326-1.11,3.159-1.114
							c1.874,0.075,3.789,0.395,4.044,0.432c2.968,0.095,5.991-0.274,9.002-0.327c2.934-0.043,5.762,0.104,8.719-0.016
							c2.923-0.121,5.828-0.475,8.89-1.22c3.191-0.85,6.345-1.938,9.491-2.985c3.033-1.113,6.104-2.347,9.187-3.769
							c1.54-0.712,3.081-1.477,4.617-2.304c0.768-0.427,1.536-0.829,2.3-1.293l1.146-0.681l0.57-0.357l0.862-0.567
							c2.658-1.713,5-3.587,7.17-5.555c0.543-0.489,0.986-1.005,1.484-1.506c0.464-0.507,1.016-1.004,1.409-1.519l1.239-1.536
							c0.196-0.256,0.437-0.512,0.598-0.768l0.47-0.768l0.585-0.955c0.186-0.317,0.423-0.642,0.518-0.945l0.755-1.85
							c0.446-1.218,0.61-2.373,0.658-3.562c0.021-1.183-0.109-2.417-0.575-3.733c-0.438-1.322-1.249-2.569-2.091-3.51
							c-1.553-1.612-3.177-2.604-5.239-3.286c-1.038-0.326-2.155-0.588-3.448-0.705c-0.607-0.109-1.414,0.021-2.154,0.073
							l-2.254,0.193l-4.501,0.383c-1.482,0.243-2.941,0.626-4.413,0.93l-4.373,0.959l-2.644,0.781
							C327.72,300.451,321.195,302.774,314.997,305.103z"/>
					</g>
				</g>
			</g>
		</g>
		<g>
			<g>
				<g>
					<path fill="#FFFFFF" d="M435.228,322.594l-0.391,0.193C435.016,322.708,435.143,322.676,435.228,322.594z"/>
					<path fill="#FFFFFF" d="M479.957,277.579l0.104,0.178C480.054,277.618,480.009,277.581,479.957,277.579z"/>
					<path fill="#FFFFFF" d="M467.377,264.192l-0.058-0.243C467.332,264.067,467.353,264.14,467.377,264.192z"/>
					<g>
						<path fill="#FFFFFF" d="M461.661,281.953c-1.29,2.005-2.764,3.976-4.278,5.944c-1.556,1.928-3.213,3.96-4.852,5.692
							c-3.284,3.597-6.968,6.942-10.924,10.065c-4.08,3.216-8.458,6.187-13.164,8.781c-2.429,1.277-4.878,2.541-7.358,3.769
							c-2.519,1.141-5.075,2.227-7.669,3.262c-11.068,4.191-22.397,7.317-33.87,10.313c-2.896,0.714-5.787,1.365-8.674,1.996
							c-2.904,0.536-5.806,1.035-8.71,1.517c-5.888,0.857-11.803,1.685-17.741,2.271c-1.435,0.155-2.865,0.331-4.295,0.521
							c-1.436,0.13-2.879,0.176-4.315,0.284l-8.627,0.637c-5.77,0.43-11.472,0.838-17.373,0.781
							c-3.132-0.027-6.247-0.148-9.38-0.209c-1.542-0.03-9.226,1.1-10.702,1.554c-0.672,0.206,3.914,0.991,5.183,1.195
							c4.173,0.672,10.532,1.524,13.794,1.749c6.592,0.461,9.688,0.635,16.49,0.6c3.515-0.021,7.008-0.044,10.486-0.065
							c1.739-0.027,3.481,0.021,5.214-0.06c1.73-0.14,3.458-0.278,5.185-0.417l5.188-0.377l5.154-0.423
							c3.456-0.243,6.915-0.486,10.389-0.73c11.369-0.718,22.91-3.973,34.076-6.725c6.058-1.501,12.106-3.104,18.078-5.035
							c2.971-1.004,5.981-1.929,8.893-3.134c2.934-1.171,5.837-2.285,8.789-3.757c6.219-3.047,12.35-6.43,18.062-10.642
							c5.721-4.175,11.008-9.286,15.27-14.839c4.281-5.526,8.078-11.847,10.294-19.252c1.079-3.704,1.628-7.738,1.424-11.814
							c-0.218-4.063-1.152-8.186-2.868-11.835c-0.223-0.58-0.468-1.016-0.707-1.483l-0.721-1.395
							c-0.489-0.924-0.939-1.878-1.496-2.748l-1.604-2.664c-0.528-0.894-1.144-1.708-1.712-2.566
							c-2.292-3.419-4.87-6.547-7.503-9.598c-6.763-7.594-14.432-14.032-22.408-19.781c-8.001-5.783-16.22-10.846-24.769-15.709
							c-1.903-1.138-3.883-2.112-5.801-3.195c-1.941-1.037-3.824-2.187-5.795-3.143c-3.906-1.989-7.771-4.061-11.771-5.836
							c-7.913-3.766-16.144-6.866-24.699-9.313c-2.278-0.594-4.758-1.24-7.314-1.906c-2.558-0.656-5.241-1.127-7.872-1.594
							c-0.66-0.105-1.317-0.21-1.97-0.314l-0.977-0.141l-0.483-0.066l-0.397-0.042c-1.042-0.104-2.445-0.293-3.704-0.383
							c-2.604-0.198-5.236-0.126-7.646,0.476c-1.125,0.252-1.984,0.85-2.394,1.409c-0.433,0.576-0.529,1.19-0.477,1.76
							c-0.051-0.466,0.673-0.607,1.767-0.53c0.527,0.07,1.123,0.231,1.758,0.415c0.628,0.197,1.263,0.49,1.902,0.769
							c2.523,1.196,4.804,2.92,5.145,3.088c2.014,1.109,4.198,2.054,6.358,2.974c2.17,0.941,4.401,1.741,6.497,2.791
							c2.04,0.978,4.007,1.965,5.945,2.941c1.942,0.962,3.807,2.068,5.716,3.061c3.832,1.957,7.619,4.094,11.901,5.917
							c8.885,4.04,17.577,8.277,26.048,12.923c8.334,4.773,16.761,9.863,24.529,15.571c3.315,2.418,6.556,4.909,9.637,7.533
							c3.115,2.596,6.055,5.336,8.823,8.185c2.81,2.826,5.287,5.862,7.59,8.965l1.646,2.367c0.526,0.798,0.989,1.62,1.489,2.428
							c0.24,0.407,0.505,0.806,0.727,1.219l0.638,1.249l0.642,1.246l0.322,0.623l0.207,0.539l0.505,1.271
							c0.187,0.419,0.229,0.867,0.36,1.297c0.288,0.855,0.332,1.756,0.471,2.639c0.082,1.8,0.083,3.63-0.393,5.54l-0.136,0.711
							l-0.215,0.72c-0.148,0.48-0.263,0.961-0.426,1.444c-0.39,0.967-0.689,1.94-1.184,2.911
							C464.031,278.094,462.877,280.031,461.661,281.953z"/>
					</g>
				</g>
			</g>
		</g>
		<g>
			<g>
				<g>
					<path fill="#FFFFFF" d="M355.131,207.087l-0.011-0.026C355.116,207.074,355.092,207.084,355.131,207.087z"/>
					<path fill="#FFFFFF" d="M348.513,211.983l-0.03-0.157C348.477,211.885,348.492,211.938,348.513,211.983z"/>
					<path fill="#FFFFFF" d="M349.528,226.489l-0.108,0.053C349.476,226.531,349.508,226.513,349.528,226.489z"/>
					<g>
						<path fill="#FFFFFF" d="M357.7,224.02c1.848-0.887,3.698-2.085,5.421-3.772c1.707-1.667,3.32-3.931,4.184-6.811
							c0.881-2.913,0.608-6.029-0.286-8.55c-0.849-2.216-1.973-4.085-2.999-5.865c-1.091-1.896-2.333-3.532-3.659-4.98
							c-1.327-1.447-2.744-2.728-4.272-3.777c-3.067-2.125-5.642-4.313-8.026-6.683c-1.157-1.164-2.651-2.124-4.099-3.102
							c-1.439-0.982-2.963-1.891-4.172-3.188c-0.64-0.702-1.331-1.375-2.013-2.063c-0.348-0.337-2.771-0.931-3.348-0.833
							c-0.261,0.043,0.357,1.598,0.522,2.01c0.565,1.375,1.459,3.246,1.999,4.055c1.058,1.711,1.548,2.463,2.877,3.831
							c1.331,1.478,2.653,2.876,3.933,4.465c1.295,1.58,2.602,3.194,3.642,4.96c0.849,1.432,1.969,2.533,3.046,3.6
							c1.075,1.063,2.163,2.099,2.83,3.315c0.733,1.311,1.203,2.655,1.467,3.825c0.046,0.292,0.098,0.572,0.161,0.844
							c0.029,0.269,0.047,0.523,0.095,0.77c0.04,0.472,0.099,1.018,0.119,1.113c0.009,0.187-0.049,0.369-0.154,0.518
							c-0.126,0.147-0.266,0.206-0.511,0.411c-0.492,0.383-1.378,0.939-2.411,1.65c-2.083,1.42-5.02,2.873-8.152,3.63
							c-1.823,0.45-3.749,0.731-5.524,0.803l-0.808,0.024l-0.953,0.017l-1.957,0.065c-1.298,0.074-2.616,0.102-3.929,0.156
							c-1.313,0.062-2.627,0.108-3.944,0.108c-1.314,0-2.636,0.043-3.946-0.035c-4.782-0.168-9.213-1.992-13.812-2.015
							c-1.19-0.055-2.582-0.182-4.005,0.035c-1.376,0.168-2.731,0.614-4.11,1.847c-0.665,0.596-1.173,1.809-1.483,2.912
							c0.259-0.904,0.788-0.262,1.319,0.647c0.526,0.908,1.07,2.085,1.157,2.199c1.026,1.418,2.379,2.069,3.632,3.047
							c0.608,0.468,1.205,0.964,1.805,1.458c0.597,0.479,1.19,0.924,1.802,1.356c1.218,0.847,2.508,1.609,3.938,1.936
							c6.003,1.393,11.999,1.264,18.028,1.141c1.285-0.039,2.561-0.055,3.855-0.156l3.945-0.28c3.025-0.297,5.696-0.816,8.471-1.433
							C350.662,226.476,354.146,225.694,357.7,224.02z"/>
					</g>
				</g>
			</g>
		</g>
		
			<path fill-rule="evenodd" clip-rule="evenodd" fill="none" stroke="#000000" stroke-width="2" stroke-linecap="round" stroke-linejoin="round" stroke-miterlimit="10" d="
			M250,250"/>
	</g>
</g>
</svg>
