<?xml version="1.0" encoding="utf-8"?>
<!-- Generator: Adobe Illustrator 19.2.1, SVG Export Plug-In . SVG Version: 6.00 Build 0)  -->
<svg version="1.1" id="Layer_1" xmlns="http://www.w3.org/2000/svg" xmlns:xlink="http://www.w3.org/1999/xlink" x="0px" y="0px"
	 viewBox="0 0 500 500" style="enable-background:new 0 0 500 500;" xml:space="preserve">
<style type="text/css">
		.st1{fill-rule:evenodd;clip-rule:evenodd;fill:none;stroke:#000000;stroke-width:5;stroke-linecap:round;stroke-linejoin:round;stroke-miterlimit:10;}
</style>
<g>
	<g>
		<g>
			<g>
				<path class="st0" d="M124.5,209.3l-0.4-0.1C124.3,209.3,124.4,209.4,124.5,209.3z"/>
				<path class="st0" d="M177.2,216.5l-0.1,0.4C177.2,216.8,177.2,216.6,177.2,216.5z"/>
				<path class="st0" d="M185.5,180.8l0.2-0.1C185.6,180.7,185.6,180.7,185.5,180.8z"/>
				<g>
					<path class="st0" d="M168.1,179.5c-4-0.3-8-0.5-12-0.6c-4.1-0.1-8.2,0-12.5,0.2c-8.8,0.5-18.1,1.4-27-0.8
						c-9.5-2.4-18.6-5.4-28.1-7.4c-4.8-1-9.3-2.4-13.8-4.2c-2.2-0.9-4.4-1.8-6.5-2.8c-1.1-0.5-2.1-1-3.2-1.6c-1-0.5-2.1-1-3.1-1.6
						c-4-2.1-8.2-3.7-12.3-5.5c-4.1-1.9-8.1-4.1-11.3-7.3c-1.7-1.7-3.2-3.7-4.8-5.5c-0.2-0.2-0.7-0.6-1.4-0.9
						c-0.6-0.2-0.9-0.1-2-0.8c-1-0.5-2.1-1.2-3.5-1.8c-0.8-0.3-1.5-0.7-2.6-1c-0.9-0.3-2.5-0.6-3.8-0.4c-0.5,0.1-0.5,0.2-0.2,0.3
						c0.2,0,0.5,0.1,0.8,0.2c0.3,0.1,0.9,0.2,1.1,0.4c0.3,0.1,0.7,0.3,1,0.5c0.2,0.2,0.5,0.4,0.7,0.6c0.4,0.4,0.8,0.8,1,1.2
						c0.9,1.6,1.2,3,1.4,3.6c0.1,0.5,0.3,1,0.4,1.5c0.1,0.5,0.2,1,0.4,1.5c0.4,1,0.8,2.2,1.3,3.2c0.9,2.1,1.9,4,2.8,5.2
						c3.4,4.7,5.1,6.8,9.7,10.4c4.7,3.7,9.7,6.9,14.7,10.1c5,3.2,9.9,6.4,14.8,10.1c7.9,6,17.9,7.6,26.6,11.6
						c4.7,2.2,9.3,4.5,14.1,6.7c4.8,2.1,9.8,4,15,5.2c5.5,1.3,11.1,2.9,16.7,4.3c5.6,1.4,11.5,2.6,17.4,3c11.6,0.7,23.6-0.2,35.7-2
						c3.5-0.5,7.1-1.2,10.7-2c3.6-0.8,7.1-1.7,10.6-2.8c1.1-0.4,2.2-0.7,3.3-1.1c1.1-0.4,2.2-0.8,3.3-1.3c2.2-0.9,4.4-1.9,6.5-3
						c4.2-2.2,8.3-4.7,12.1-7.6c3.8-2.8,7.4-5.9,10.6-9l2.6-2.5l3.8-3.9l3.8-3.9c0.7-0.6,1.2-1.3,1.7-2c0.5-0.7,1-1.4,1.4-2.1
						c0.9-1.5,1.6-3,2.3-4.6c0.6-1.6,1-3.4,1.4-5.1c0.4-2.6,0.6-5.2,0.3-7.9c-0.2-2.6-0.7-5.2-1.6-7.7c-1.7-5.1-4.6-9.9-8.5-14.2
						c-1-1.1-2-2.2-3-3.2l-1.6-1.6c-0.3-0.3-0.6-0.7-1-1c-1.3-1.3-2.6-2.5-4.1-3.7c-2.8-2.3-5.9-4.5-9.1-6.2c-4-2.2-8.9-4.6-14-5.8
						c-5.1-1.2-10.4-1.1-14.9,1.4c-2.2,1.2-3.6,4.2-4.4,6.9c0.7-2.2,2.4-0.4,3.9,2.1c1.5,2.5,2.6,5.7,2.7,6c2.3,3.9,5.1,6.6,7.3,10
						c2.1,3.3,3.5,6.7,4.9,10c0.7,1.6,1.4,3.2,2.2,4.7c0.4,0.7,0.8,1.5,1.2,2.2c0.2,0.3,0.4,0.7,0.7,1c0,0.1-0.1,0.2-0.1,0.3
						c0,1.2-0.3,1.7-0.6,2.1c-0.1,0.1-0.3,0.2-0.4,0.3c-0.1,0.1-0.2,0.2-0.3,0.2c0,0,0,0,0,0l-0.3,0.3l-0.6,0.6l-1.1,1.1
						c-0.8,0.7-1.5,1.4-2.3,2.1c-1.5,1.3-3,2.5-4.5,3.6c-4.4,3.2-9,5.8-14,7.8c-5.2,2.1-10.7,3.5-16.4,4.2
						C183.2,180.7,175.7,180.1,168.1,179.5z"/>
				</g>
			</g>
		</g>
	</g>
	<g>
		<g>
			<g>
				<path class="st0" d="M132.3,250.7l-0.4-0.2C132.1,250.6,132.2,250.7,132.3,250.7z"/>
				<path class="st0" d="M190.7,266.1l-0.2,0.3C190.6,266.3,190.6,266.2,190.7,266.1z"/>
				<path class="st0" d="M228,248.2l0.4,0.5C228.3,248.4,228.2,248.3,228,248.2z"/>
				<g>
					<path class="st0" d="M191.4,228.4c-6.3-1.4-12.2-2.2-17.6-2.8c-5.4-0.6-10.2-0.9-15.5-1.5c-10.7-1-22.2-2.5-32.6-7.5
						c-5.5-2.6-10.9-5.6-16.3-8.6l-4.1-2.3c-1.5-0.8-2.9-1.6-4.4-2.3c-2.9-1.5-5.9-2.9-8.8-4.1c-11.9-5-22.2-11.1-30.9-18.8
						c-4.2-3.7-8.5-7.1-12.3-11.1c-3.7-3.8-6.8-8.6-8.6-14.1c-1-2.9-1.6-6-2.3-9.1c-0.2-0.8-1.5-2.8-2.9-4.8c-1.4-2-2.9-4.1-3.7-4.6
						c-0.7-0.5-1.4,4.7-1.5,6.2c-0.2,2.4-0.4,5.4-0.4,8.2c0,2.8,0.2,5.5,0.5,7.3c0.7,3.6,1.3,6.2,2.2,8.8c0.9,2.6,2,5.2,4,8.5
						c4.3,6.8,9.4,12.8,14.9,18.3c5.6,5.5,11.4,10.5,17.2,15.9c4.6,4.3,10,7.5,15.2,10.4c2.6,1.5,5.2,2.9,7.7,4.4l1.8,1.1l0.9,0.6
						l1,0.6c1.3,0.9,2.6,1.7,3.8,2.7c5.4,4,10.9,8.1,16.7,11.8c5.8,3.8,11.9,7.2,18.5,9.7c7,2.7,14.1,5.6,21.5,8
						c7.5,2.4,14.8,4,21.5,5.1c2.9,0.5,5.7,0.9,8.4,1.3c1.3,0.2,2.6,0.5,3.9,0.7c0.5,0.1,0.8,0.1,0.9,0.1c0.9,0,2.1,0.1,2.8,1
						c0.2,0.2,0.3,0.5,0.3,0.8c0.1,0.7-0.3,1.3-0.8,1.8c-0.5,0.5-1,0.9-1.6,1.2l-4.8,3.8l-1.4,1.1l-1.3,1l-2.7,2
						c-3.6,2.6-7.4,5.2-11.3,7.8c-4,2.6-8.1,5.1-12.5,7.8c-4.4,2.7-8.5,5.2-12.6,7.5c-3.7,2-7.3,3.6-10.9,4.8
						c-0.9,0.3-1.8,0.6-2.7,0.8c-0.9,0.2-1.8,0.5-2.7,0.7c-1.8,0.4-3.7,0.9-5.5,1.2c-1.8,0.4-3.8,0.7-5.7,1
						c-1.9,0.3-3.9,0.6-5.8,0.9c-3.9,0.6-7.9,1.2-12.1,2.1c-4.4,0.9-9.7,1.6-15,3.2c-5.3,1.5-10.5,3.8-14.3,7.9
						c-1.8,2-2.2,5.3-1.9,8.1c-0.2-2.3,2.6-1.3,5.5,0.4c2.9,1.7,6,4,6.4,4.2c4.9,2.4,10.2,3.2,15.4,4.6c5,1.3,10,2.9,15.1,3.9
						c5.1,1,10.5,1.5,16.2,0.7c6-0.9,12-2.4,17.8-4.4c2.9-1,5.9-2.2,8.7-3.5c2.8-1.3,5.4-2.6,8-4c5.1-2.8,9.8-5.6,14.3-8.4
						c2.3-1.4,4.6-2.8,6.9-4.2c2.3-1.4,4.7-2.9,7.1-4.4c4.1-2.6,8.2-5.4,12.2-8.4c2-1.5,4-3.1,6-4.7l2.7-2.3l2.9-2.5l1.5-1.3l1-0.9
						l1.2-1.1c1.6-1.5,3.1-3.1,4.6-4.7c2.9-3.2,5.5-6.6,7.5-10.2c4-7.1,5.7-14.8,4.4-22.5c-0.2-1.3-0.5-2.5-0.9-3.8
						c-0.4-1.2-0.9-2.5-1.4-3.7c-3.4-7.3-9.2-12.8-17.5-16.6c-1-0.5-2.1-0.9-3.2-1.3c-1.1-0.4-2.1-0.9-3.3-1.2l-3.4-1.1
						c-1.1-0.4-2.2-0.6-3.3-1l-2.8-0.8l-2-0.5C194,229.1,192.7,228.7,191.4,228.4z"/>
				</g>
			</g>
		</g>
	</g>
	<g>
		<g>
			<g>
				<path class="st0" d="M223.4,356.5l-0.5,0.2C223.1,356.6,223.3,356.6,223.4,356.5z"/>
				<path class="st0" d="M279,334.8l0,0.4C279,335,279,334.9,279,334.8z"/>
				<path class="st0" d="M298.7,303.8l0.7,0.3C299.1,303.9,298.9,303.8,298.7,303.8z"/>
				<g>
					<path class="st0" d="M258.4,302.2c-3.4,1.1-6.4,2.4-9.2,3.7c-1.4,0.6-2.7,1.3-3.9,1.9l-3.9,2c-6,3.1-10.9,6.4-15.2,9.6
						c-4.5,3.3-8.4,6.3-12.4,8.5l-1.5,0.7l-1.5,0.6c-0.2,0.1-0.6,0.2-0.9,0.3l-1,0.3c-0.7,0.2-1.4,0.4-2,0.6
						c-2.7,0.7-5.6,1.3-8.5,1.6c-6.2,0.8-12.6,1.3-19.2,2.3c-1.7,0.3-3.3,0.5-5,0.9l-2.5,0.5l-2.4,0.5c-3.1,0.7-6.2,1.5-9.1,2.4
						c-6,1.7-11.8,2.7-17.4,3c-2.8,0.1-5.6,0-8.2-0.3c-0.7-0.1-1.3-0.2-2-0.3c-0.7-0.1-1.3-0.2-2-0.4c-1.4-0.3-2.9-0.6-4.3-0.9
						c-11.2-2.5-23.5-3.4-35.1-8.1c-3.1-1.3-6.2-2.7-9.3-4c-0.8-0.3-3.3-0.5-6-0.4c-2.6,0-5.3,0.3-6.2,0.6c-0.8,0.3,3.5,3.6,4.7,4.5
						c3.9,3,9.5,7.3,12.6,9c6.2,3.6,9,5.2,15.7,7.8c7,2.6,14,5,21.3,7.2c0.9,0.3,1.8,0.5,2.8,0.8c0.9,0.3,1.8,0.5,2.8,0.8
						c2,0.5,4,1,6,1.3c4,0.8,8.1,1.4,12.1,1.9c6.6,0.9,13,0.1,19.1-0.9c3-0.5,6-1.1,8.9-1.5c2.7-0.4,5.5-0.7,8.3-0.7
						c6.1-0.1,12.5,0.4,19.2,0.5c3.3,0,6.8,0,10.3-0.2l1.3-0.1l1.6-0.2c1.1-0.1,2.2-0.3,3.2-0.5c2.1-0.4,4.1-0.9,6-1.5
						c8.2-2.6,15.3-5.6,21.7-8.2c3.2-1.3,6.2-2.5,9-3.5l2.2-0.8l2.6-1c1.6-0.7,3.2-1.4,4.6-2c2.9-1.3,5.5-2.5,7.9-3.4
						c2.4-0.9,4.5-1.5,6-1.8c0.8-0.1,1.4-0.2,1.9-0.2c0.5,0,0.7,0,1,0c0.3,0.1,0.5,0.2,0.8,0.3c0.2,0.2,0.5,0.3,0.9,0.8
						c0.1,0.1,0.2,0.3,0.3,0.4c0.1,0.1,0.2,0.3,0.4,0.5l0.4,0.5l0.4,0.7c0.5,0.9,0.9,1.8,1.2,2.6c0.5,1.8,0.8,3.5,0.6,5.5
						c-0.2,2.5-0.9,5.4-2.2,8.5c-1.2,3.2-3,6.5-5.2,9.9c-4.3,6.6-10.3,13.4-16.4,18.2c-5.8,4.5-12.9,7.4-20.8,10.6
						c-2,0.8-4,1.6-6.1,2.4l-3.1,1.3c-1.4,0.7-2.8,1.4-4.2,2.1c-5.4,2.9-9.9,6.4-13.7,10c-4,3.8-8.2,8.1-11.3,12.4
						c-1.6,2.2-2.9,4.3-3.9,6.6c-0.5,1.1-0.9,2.3-1.2,3.4c-0.3,1.2-0.6,2.4-0.7,3.7c-0.3,2.4,1.1,5.5,2.7,7.8
						c-1.3-2,1.4-2.2,4.7-2.4c3.3-0.1,7.1-0.1,7.6-0.2c5.4-1,10-3.8,14.9-5.6c4.7-1.8,9.2-2.9,13.4-3.7c2.1-0.4,4-0.7,5.8-1
						c0.9-0.1,1.7-0.2,2.6-0.4c1.2-0.3,2.4-0.7,3.6-1.1c5-1.9,10.2-4,15.4-6.7c5.2-2.7,10.6-5.9,15.7-9.7c2.6-1.9,5-4,7.4-6.1
						c2.4-2.2,4.6-4.4,6.7-6.7c4.2-4.6,8.1-9.4,11.7-14.8c3-4.6,5.8-9.6,8.1-15.1c2.2-5.6,4-11.7,4.6-18.5c0.6-6.7-0.1-14.1-2.4-21
						c-1.1-3.5-2.6-6.7-4.4-9.7c-1.7-2.9-3.8-6-6.5-8.9c-3.2-3.5-7.5-7-12.3-9.2c-2.4-1.1-4.9-2.1-7.5-2.7c-1.3-0.4-2.6-0.6-3.9-0.8
						c-1.2-0.2-2.5-0.3-3.7-0.4c-4.9-0.3-9.3,0.1-13.2,0.8C265.2,300.1,261.6,301.1,258.4,302.2z"/>
				</g>
			</g>
		</g>
	</g>
	<g>
		<g>
			<g>
				<path class="st0" d="M447,376.9l-0.5,0.6C446.7,377.2,446.9,377.1,447,376.9z"/>
				<path class="st0" d="M491.6,273.7l0.4,0.3C491.8,273.7,491.7,273.7,491.6,273.7z"/>
				<path class="st0" d="M455.2,254.7l-0.1-0.5C455.1,254.5,455.1,254.6,455.2,254.7z"/>
				<g>
					<path class="st0" d="M452.4,288.8c-1.9,7.8-4.4,15.7-7.4,23.7c-1.5,4-3.1,8-4.7,12c-0.8,2-1.7,4-2.6,6l-0.6,1.5l-0.6,1.4
						c-0.4,1-0.8,1.9-1.3,2.9c-3.6,7.9-7.7,15.6-12.9,22.9c-5.1,7.2-11.2,13.9-18.5,19.4c-7.9,6-16.3,11.5-24.9,16.6
						c-8.6,5.1-17.3,9.8-26.2,14.5c-9,4.7-18.2,8.4-27.7,11.4c-2.4,0.7-4.8,1.5-7.2,2.1l-3.6,1l-3.6,0.9c-2.4,0.6-5,1.1-7.5,1.7
						c-2.5,0.5-5.1,1.1-7.6,1.6c-4.9,1-9.7,2.2-14.4,3.3l-3.6,0.8l-1.8,0.4c-0.3,0.1-0.5,0.1-0.7,0.1l-0.6,0.1
						c-2.2,0.3-4.7,0.6-7.2,0.9c-9.9,1.2-20,2.1-30.1,2c-5.4-0.1-10.8-0.4-16.2-0.5c-1.3,0-5.3,0.7-9.3,1.5c-2,0.4-4,0.9-5.6,1.3
						c-0.8,0.2-1.6,0.4-2.2,0.6c-0.7,0.2-1.2,0.4-1.6,0.6c-0.3,0.1,0,0.3,0.7,0.6c0.3,0.1,0.8,0.2,1.3,0.4c0.5,0.1,1,0.3,1.5,0.4
						c2.2,0.6,4.7,1.2,5.8,1.4c7.2,1.6,18.3,3.8,23.9,4.3c11.5,1.1,16.8,1.6,28.5,1.5c3,0,6.1-0.1,9.1-0.2l2.3-0.1
						c0.8-0.1,1.9-0.1,2.6-0.2c1.5-0.2,3-0.4,4.6-0.6c6.1-0.8,12-1.8,18-2.8c6-1,11.9-1.9,17.9-2.9c6-1.1,12.1-2.1,18.3-3.3
						c9.9-1.9,19.7-5.5,29.1-9.7c9.4-4.2,18.6-9.2,27.7-13.8c4.9-2.5,9.8-5.1,14.6-7.8c2.4-1.4,4.8-2.7,7.2-4.2l3.6-2.2l3.7-2.4
						c9.7-6.5,18.7-14.3,26.2-23.3c4-4.8,7.9-9.8,11.5-14.9c3.6-5.1,7-10.5,10.1-15.6c6.1-10.5,11.7-21.6,15.4-33.7
						c1.9-5.9,3.3-12.1,4.4-18.4l0.7-4.8l0.3-2.4c0.1-0.8,0.1-1.6,0.2-2.4l0.4-4.8c0.1-1.6,0.1-3.3,0.2-4.9c0.2-3.2-0.1-6.5-0.2-9.8
						c0-1.6-0.3-3.3-0.4-4.9c-0.2-1.6-0.3-3.3-0.6-4.9l-0.9-4.9l-0.5-2.4l-0.6-2.4l-1.3-4.8c-0.2-0.8-0.4-1.5-0.7-2.2l-0.7-2.2
						c-4.3-13.5-9.8-26.6-16.2-39l-1.5-3c-0.5-1-1.1-1.9-1.6-2.9l-3.3-5.7l-3.5-5.6c-0.6-0.9-1.2-1.9-1.8-2.8l-1.8-2.7
						c-4.8-7.3-10.1-14.2-15.6-20.9c-5.4-6.7-11.2-13.1-17-19.4l-4.4-4.7l-4.5-4.6c-3-3-6-6-9.1-9c-5.6-5.5-11.2-10.8-16.9-16.1
						c-2.9-2.6-5.7-5.2-8.7-7.8c-1.5-1.3-2.9-2.6-4.4-3.8l-4.5-3.7c-6.1-4.9-12.3-9.6-19-13.8c-3.3-2.2-6.7-4.2-10.1-6.2
						c-3.5-1.9-7-3.8-10.6-5.5c-7.6-3.6-16.7-7.7-26-10.3c-2.3-0.7-4.6-1.2-6.9-1.7c-0.6-0.1-1.1-0.2-1.7-0.3l-0.4-0.1l-0.2,0
						l-0.2,0l-0.3,0c-0.8-0.1-2-0.3-3.1-0.5c-4.7-0.8-9.9-1.2-15.3-0.1c-0.6,0.1-1.3,0.3-1.8,0.6c-0.6,0.2-1.1,0.5-1.5,0.8
						c-0.8,0.6-1.4,1.3-1.9,2c-0.9,1.5-1,3-0.9,4.5c-0.1-1.1,1.2-1.7,3.3-1.3c2.1,0.4,4.5,1.7,6.5,3.3c2,1.6,3.7,3.5,5.1,5.1
						c1.3,1.5,2.2,2.7,2.5,2.9c0.4,0.3,0.8,0.7,1.2,1c0.4,0.3,0.8,0.6,1.2,1c0.8,0.6,1.6,1.3,2.4,1.9c1.6,1.2,3.3,2.4,5,3.6
						c3.4,2.3,6.7,4.7,9.8,7.2c6.1,4.9,11.4,10.1,16.7,15.2c5.3,5.2,10.7,10.2,16.8,15c6.4,5.1,12.8,10.2,18.9,15.5
						c6.2,5.3,12.2,10.8,18.1,16.4l4.4,4.3l4.4,4.4c2.9,3,5.8,5.9,8.6,8.9c5.6,6,11.1,12.2,16.2,18.5c8.7,10.8,16.6,22.1,23.5,33.8
						c6.8,11.8,12.3,24.1,16.2,36.8c0.3,0.9,0.6,1.9,0.9,2.8l0.6,2.5l0.6,2.5l0.4,2.6l0.4,2.6l0.2,2.7l0.2,2.7l0,2.7
						C455.4,273.9,454.3,281.3,452.4,288.8z"/>
				</g>
			</g>
		</g>
	</g>
	<g>
		<g>
			<g>
				<path class="st0" d="M295,106.5L295,106.5C294.9,106.4,294.9,106.5,295,106.5z"/>
				<path class="st0" d="M290.7,113.4l-0.2-0.3C290.5,113.2,290.6,113.3,290.7,113.4z"/>
				<path class="st0" d="M302.7,147l-0.2,0.1C302.7,147.1,302.7,147,302.7,147z"/>
				<g>
					<path class="st0" d="M318.1,138.6c1.7-1.5,3.3-3.2,4.7-5.1c0.4-0.5,0.7-1,1.1-1.5c0.3-0.5,0.7-1.1,1-1.7
						c0.7-1.1,1.2-2.3,1.7-3.5c2-4.8,2.8-10,2.2-14.9c-0.1-1.3-0.4-2.5-0.7-3.7c-0.3-1.2-0.7-2.4-1.1-3.5c-0.4-1.2-0.9-2-1.3-2.9
						c-0.5-0.9-0.9-1.8-1.4-2.6c-1.9-3.4-4-6.4-5.5-9.4c-1.7-3.2-3.5-6.2-5.5-8.9c-2-2.7-4.2-5-6.6-7c-4.9-3.9-8.6-8.2-11.7-12.6
						c-1.6-2.2-4-4.1-6.3-5.9c-2.3-1.8-4.6-3.7-6.3-6.2c-0.9-1.4-1.6-2.9-2.6-4.3c-0.4-0.7-4.9-1.7-6.2-1.4
						c-0.5,0.1-0.3,3.4-0.2,4.3c0.2,2.9,0.5,6.9,1,8.5c1,3.4,1.4,4.9,3,7.6c1.7,2.8,3.3,5.5,4.8,8.5c1.6,3.1,3.1,6.3,4,9.8
						c0.7,2.8,2.2,4.9,3.7,6.8c1.5,1.9,3,3.8,3.6,5.9c0.8,2.3,0.9,4.7,1,6.7c0.1,2.1,0,3.7,0.3,5.2l0.1,0.6l0,0.3c0,0.1,0,0.1,0,0.2
						l-0.1,0.3c0,0.1-0.1,0.2-0.1,0.2c-0.1,0.3-0.5,0.5-0.7,0.7c-0.3,0.2-0.6,0.3-0.8,0.4c-0.3,0.1-0.3,0.1-0.6,0.5
						c-0.4,0.7-1.2,1.9-2.5,3c-1.3,1.2-3,2.3-5,3.1c-2.3,0.9-5,1.6-7.4,1.8c-0.8,0.1-1.5,0.1-2.1,0.1l-2.3,0.1
						c-0.9,0.1-1.9,0.1-2.8,0.1c-0.9,0.1-1.9,0.1-2.9,0.1c-4,0.1-8.1,0.1-12.2-0.2c-3.7-0.4-7.3-1.7-10.9-2.9
						c-3.5-1.3-7-2.4-10.6-2.5c-1.9,0-4.1-0.3-6.3,0.3c-2.2,0.5-4.5,1.9-7.2,4.9c-1.3,1.5-2.7,4.4-3.7,7.1c0.8-2.2,1.4-0.7,1.9,1.5
						c0.5,2.2,1.1,5,1.2,5.3c0.3,0.8,0.7,1.5,1.1,2.2c0.4,0.7,0.9,1.2,1.3,1.8c0.9,1.1,1.9,2.2,2.8,3.4c3.6,4.6,7,10.1,11.7,11.8
						c5,1.8,10.1,2.8,15.3,3.3c5.2,0.5,10.4,0.6,15.8,0.5c2.3,0,4.7-0.1,7.1-0.3l1.9-0.2l0.9-0.1l0.5,0l0.6-0.1
						c1.6-0.2,3-0.4,4.4-0.7c5.5-1.1,10.4-2.6,15.5-4.5c3-1.2,6.2-2.4,9.5-4C311.6,143.4,314.9,141.4,318.1,138.6z"/>
				</g>
			</g>
		</g>
	</g>
	<path class="st1" d="M144.4,198.5"/>
</g>
</svg>
