<?xml version="1.0" encoding="utf-8"?>
<!-- Generator: Adobe Illustrator 16.0.0, SVG Export Plug-In . SVG Version: 6.00 Build 0)  -->
<!DOCTYPE svg PUBLIC "-//W3C//DTD SVG 1.1//EN" "http://www.w3.org/Graphics/SVG/1.1/DTD/svg11.dtd">
<svg version="1.1" xmlns="http://www.w3.org/2000/svg" xmlns:xlink="http://www.w3.org/1999/xlink" x="0px" y="0px" width="500px"
	 height="500px" viewBox="0 0 500 500" enable-background="new 0 0 500 500" xml:space="preserve">
<g id="Layer_1">
</g>
<g id="Layer_2">
	<g>
		<g>
			<g>
				<g>
					<g>
						<path fill="#231F20" d="M147.692,228.233l-0.32,0.035C147.517,228.261,147.613,228.278,147.692,228.233z"/>
						<path fill="#231F20" d="M194.067,224.472l-0.078,0.164C194.07,224.576,194.08,224.521,194.067,224.472z"/>
						<path fill="#231F20" d="M202.682,209.582l0.271-0.046C202.821,209.543,202.741,209.561,202.682,209.582z"/>
						<g>
							<path fill="#231F20" d="M183.614,210.572c-8.565,0.625-17.098,1.7-25.497,3.245c-8.653,1.592-17.201,3.613-26.038,4.509
								c-9.36,0.952-18.645,1.618-27.952,2.935c-9.361,1.302-18.509,1.991-27.934,2.565c-9.085,0.565-18.022,2.435-27.122,2.64
								c-2.429,0.052-4.847,0.01-7.272,0.029c-1.193,0.009-7.115,1.334-8.254,1.825c-0.519,0.225,3.052,0.894,4.043,1.066
								c3.255,0.565,8.237,1.254,10.793,1.394c5.171,0.282,7.581,0.398,12.853,0.217c10.887-0.376,21.494-0.862,32.315-0.474
								c8.753,0.336,17.805-1.109,26.626-1.344c9.559-0.249,19.106-0.148,28.662-1.013c10.164-0.929,20.365-0.977,30.523-1.962
								c5.004-0.52,10.004-1.04,15.006-1.559c4.995-0.525,9.993-1.037,15.088-1.521c5.912-0.546,11.779-1.137,17.598-1.597
								c3.662-0.307,7.321-0.613,10.979-0.919c3.648-0.327,7.248-0.521,10.871-0.809l5.39-0.225
								c1.793-0.058,3.602-0.194,5.375-0.144c3.555,0.051,7.145-0.049,10.643,0.305l2.38,0.191l1.187,0.105
								c0.183,0.021,0.206,0.033,0.314,0.052c0.107,0.011,0.142,0.045,0.168,0.079l0.048,0.048l0.022,0.024l0.258,0.147l2.201,1.264
								c1.439,0.835,2.878,1.669,4.314,2.502c1.413,0.825,2.863,1.649,4.192,2.479c1.348,0.832,2.734,1.635,4.059,2.471
								c1.293,0.854,2.592,1.697,3.903,2.522c1.32,0.817,2.525,1.767,3.82,2.614l1.934,1.286c0.644,0.435,1.256,0.928,1.895,1.381
								c1.347,0.979,2.812,2.046,4.323,3.145c1.467,1.197,3.005,2.404,4.583,3.53c0.783,0.573,1.602,1.083,2.38,1.64
								c0.776,0.561,1.559,1.088,2.345,1.571c1.57,0.967,3.154,1.756,4.724,2.273c1.525,0.501,2.783-0.074,3.62-0.856
								c-0.688,0.64-1.682-1.081-2.56-3.053c-0.875-1.97-1.646-4.199-1.784-4.468c-0.801-1.655-1.916-3.142-3.059-4.652
								c-1.163-1.508-2.339-3.033-3.49-4.526c-1.18-1.401-2.316-2.804-3.457-4.206c-0.572-0.698-1.135-1.408-1.722-2.094
								l-1.86-1.962c-1.271-1.282-2.54-2.646-3.979-3.819c-1.438-1.176-2.959-2.328-4.6-3.438c-1.726-1.074-3.463-2.121-5.208-3.16
								c-1.725-0.999-3.434-1.943-5.159-2.898l-5.292-2.906c-0.848-0.43-1.686-0.95-2.546-1.306l-2.694-0.203l-3.215-0.247
								c-8.207-0.728-16.297-0.402-24.358-0.078c-13.662,0.758-26.958,2.636-40.076,3.756c-1.959,0.151-3.935,0.304-5.923,0.457
								c-2.018,0.126-4.049,0.253-6.088,0.38C191.831,210.026,187.719,210.272,183.614,210.572z"/>
						</g>
					</g>
				</g>
			</g>
			<g>
				<g>
					<g>
						<path fill="#231F20" d="M383.095,175.48l-0.763-0.684C382.669,175.11,382.875,175.331,383.095,175.48z"/>
						<path fill="#231F20" d="M448.183,257.907l0.104-0.293C448.129,257.815,448.131,257.886,448.183,257.907z"/>
						<path fill="#231F20" d="M433.296,288.744l-0.666,0.589C432.943,289.081,433.146,288.895,433.296,288.744z"/>
						<g>
							<path fill="#231F20" d="M479.123,249.508l0.963-0.795c0.152-0.137,0.338-0.255,0.464-0.408l0.346-0.476l1.094-1.506
								l1.385-1.904l4.644-6.388l-6.341-4.791c-20.348-15.374-40.932-30.423-61.575-44.984c-2.826-1.986-5.649-3.97-8.471-5.953
								c-1.392-0.992-2.872-1.973-4.19-2.972l-3.987-2.995c-1.341-0.973-2.65-2.035-3.957-3.108l-3.931-3.196
								c-2.612-2.222-5.225-4.444-7.84-6.669l-3.945-3.393l-0.986-0.85l-1.219-0.955l-1.295-0.99
								c-0.455-0.368-1.125-0.745-1.722-1.119l-1.819-1.121l-0.906-0.558c-0.347-0.031-0.722,0.044-1.08,0.061l-3.99,0.341
								l-5.164,0.498c-6.894,0.654-13.817,1.263-20.785,1.803c-7.38,0.562-14.742,1.121-22.097,1.681
								c-3.672,0.31-7.366,0.459-11.049,0.68l-11.05,0.625c-14.735,0.842-29.438,1.731-44.231,2.781
								c-14.878,1.057-29.547,1.936-44.226,2.732c-14.685,1.014-29.373,2.028-44.285,3.058c-3.593,0.263-7.184,0.526-10.773,0.79
								c-3.588,0.266-7.161,0.739-10.738,1.115c-7.147,0.822-14.288,1.643-21.428,2.463l-21.371,2.916l-10.702,1.364
								c-3.558,0.444-7.118,0.889-10.679,1.333c-7.615,0.925-15.171,1.641-22.788,2.621c-3.752,0.492-22.428,4.235-26.015,5.193
								c-1.632,0.436,9.533-0.325,12.624-0.549c5.08-0.364,11.496-0.884,17.635-1.395c6.152-0.422,12.035-0.868,16.027-1.241
								c16.164-1.559,23.688-2.112,40.173-3.997c4.25-0.528,8.513-0.848,12.756-1.227c4.244-0.37,8.477-0.738,12.701-1.106
								c2.112-0.183,4.222-0.365,6.33-0.547c2.108-0.181,4.212-0.381,6.326-0.479c4.221-0.238,8.437-0.477,12.65-0.714
								c8.425-0.464,16.838-0.9,25.26-1.292c4.211-0.184,8.424-0.368,12.642-0.552c4.219-0.161,8.459-0.184,12.699-0.26
								c13.717-0.195,27.755-0.845,41.835-1.567c14.097-0.723,28.246-1.519,42.147-2.005c15.053-0.395,30.116-1.29,45.2-2.052
								c7.331-0.411,14.669-0.821,22.017-1.233c0.165,0.019,0.324-0.063,0.486,0.105l0.239,0.17
								c0.059,0.031,0.194,0.158,0.424,0.356l0.826,0.685l0.42,0.342l0.517,0.479l2.067,1.918c2.741,2.545,5.556,5.12,8.391,7.689
								c1.481,1.371,3.07,2.716,4.608,4.075c1.558,1.351,3.061,2.734,4.708,4.035l4.846,3.959l4.8,3.682
								c6.381,4.907,12.76,9.811,19.138,14.715c12.748,9.821,25.502,19.638,38.42,29.285l10.28,7.663
								c-0.498-3.284-0.996-6.563-1.494-9.843l-1.498,2.096l-0.184,0.26l-0.044,0.066l-0.006,0.008l-0.003,0.004l-0.206,0.172
								c-1.437,1.194-2.881,2.388-4.185,3.627l-2.001,1.843l-1.904,1.847l-3.713,3.654l-3.606,3.534
								c-1.194,1.117-2.38,2.242-3.576,3.313l-1.802,1.538l-0.9,0.771c-0.303,0.244-0.612,0.464-0.918,0.698l-3.967,3.028
								c-1.467,1.158-3.034,2.303-4.407,3.484l-4.018,3.563c-1.329,1.185-2.536,2.321-3.812,3.483
								c-0.626,0.569-1.266,1.176-1.881,1.714l-1.842,1.598c-2.354,2.081-5.148,4.385-7.813,6.619
								c-2.715,2.227-5.28,4.534-7.918,6.802c-7.039,6.119-13.888,12.295-20.927,17.924c-1.749,1.44-3.563,2.733-5.341,4.107
								l-2.683,2.026l-2.76,1.881l-2.759,1.881c-0.921,0.624-1.826,1.275-2.793,1.819l-5.711,3.418l-0.945,0.567
								c-0.091,0.055-0.189,0.093-0.293,0.11c-0.075,0.018-0.014-0.009-0.139,0.011c-0.113,0.034-0.419,0.026-0.636,0.043
								c-0.96,0.046-2.207,0.004-3.489-0.1c-2.577-0.192-5.344-0.572-8.215-0.966l-2.225-0.296
								c-0.772-0.098-1.539-0.193-2.515-0.271l-1.345-0.079l-1.081-0.053l-2.163-0.105l-8.65-0.413l-17.298-0.8l-17.335-1.219
								l-34.666-2.448l-17.328-1.252l-17.282-1.569c-21.029-1.946-41.616-4.144-62.475-6.426
								c-10.406-1.125-20.822-2.233-31.292-3.273c-5.238-0.5-10.477-1.068-15.756-1.46c-5.281-0.376-10.581-0.729-15.904-1.053
								c-22.542-1.349-52.719-3.18-71.628-2.538c-4.617,0.243-6.183,1.382-6.337,2.517c0.134-0.931,6.205,0.226,12.493,1.664
								c6.284,1.44,12.796,3.174,13.689,3.28c10.743,1.977,22.696,3.464,34.075,4.959c11.034,1.486,21.429,3.116,32.003,4.606
								c10.568,1.594,21.3,3.267,32.984,4.545c12.252,1.359,24.44,2.665,36.704,3.887c12.289,1.171,24.567,2.342,36.849,3.513
								c6.143,0.561,12.287,1.122,18.434,1.684c6.146,0.557,12.296,0.922,18.449,1.388c12.308,0.884,24.631,1.769,36.983,2.655
								c5.728,0.4,11.441,0.857,17.18,1.201l17.271,0.774l8.636,0.384l2.158,0.096l1.079,0.048l0.667,0.042
								c1.087,0.097,2.545,0.297,3.938,0.478c2.849,0.373,5.821,0.769,9.028,0.985c1.613,0.105,3.264,0.182,5.24,0.068
								c0.503-0.033,0.951-0.044,1.565-0.138c0.637-0.097,1.434-0.191,2.071-0.384c1.368-0.283,2.563-0.999,3.802-1.606
								c8.565-4.957,16.828-10.772,24.505-16.913c7.68-6.186,14.815-12.654,21.997-18.85c2.356-2.014,4.705-4.104,7.109-6.047
								c1.198-0.986,2.398-1.975,3.601-2.964l1.812-1.493l1.934-1.641c1.268-1.09,2.631-2.208,3.823-3.281l3.596-3.227
								c1.21-1.092,2.329-2.021,3.498-3.044l1.736-1.502c0.578-0.481,1.147-0.871,1.721-1.313l3.535-2.666l2.191-1.605
								c0.734-0.535,1.468-1.072,2.128-1.644c2.756-2.232,5.335-4.563,7.743-6.856c2.335-2.233,4.672-4.47,7.011-6.706
								c1.141-1.107,2.269-2.089,3.396-3.106c0.563-0.518,1.128-1.011,1.696-1.458L479.123,249.508z"/>
						</g>
					</g>
				</g>
			</g>
			<g>
				<g>
					<g>
						<path fill="#231F20" d="M140.463,274.791h-0.321C140.286,274.8,140.379,274.827,140.463,274.791z"/>
						<path fill="#231F20" d="M186.827,276.951l-0.1,0.151C186.815,277.055,186.833,277.001,186.827,276.951z"/>
						<path fill="#231F20" d="M197.574,263.438l0.281-0.005C197.721,263.421,197.637,263.427,197.574,263.438z"/>
						<g>
							<path fill="#231F20" d="M178.391,261.711c-4.321-0.297-8.65-0.482-12.971-0.55c-2.16-0.06-4.32,0.005-6.477,0.102
								c-2.157,0.091-4.31,0.211-6.457,0.36c-8.85,0.619-17.617,1.678-26.546,1.586l-3.543-0.048l-3.537,0.047
								c-2.356,0.035-4.709,0.07-7.063,0.105c-4.706,0.086-9.409,0.221-14.126,0.511c-9.474,0.601-18.739,0.464-28.177,0.452
								c-2.286,0-4.541,0.046-6.841,0.192l-6.94,0.583l-3.461,0.285c-1.153,0.087-2.296,0.15-3.508,0.305
								c-2.371,0.276-4.638,0.599-6.857,0.734c-2.363,0.144-4.643,0.121-6.74-0.127c-0.521-0.053-2.063,0.063-3.572,0.005
								c-1.52-0.019-2.985-0.35-3.534-0.359c-0.248-0.002,0.21,0.488,0.871,1.087c0.343,0.268,0.741,0.547,1.104,0.801
								c0.372,0.229,0.716,0.411,0.924,0.527c1.368,0.732,3.312,1.41,5.271,1.801c1.956,0.4,3.887,0.571,5.181,0.6
								c2.624,0.049,4.531,0.009,6.415-0.02c0.932-0.012,1.868-0.022,2.893-0.035c1.042,0.03,2.175,0.047,3.483,0.052
								c2.699,0.007,5.38,0.014,8.05,0.021c2.669,0.018,5.388,0.158,8.071,0.263c5.39,0.225,10.735,0.608,16.117,1.241
								c8.699,1.019,17.819,0.284,26.617,0.74c9.53,0.358,19,1.729,28.568,1.879c10.183,0.246,20.304,1.143,30.459,1.739
								c10.021,0.451,20.043,0.668,30.07,1.234c5.839,0.514,11.675,1.087,17.5,1.718c7.359,0.796,14.726,1.429,22.089,2.033
								c3.121,0.326,6.828,1.032,10.613,1.625c3.803,0.598,7.791,1.144,12.146,1.202c0.963,0.04,2.014-0.031,3.023-0.056
								c1.035-0.061,2.105-0.169,3.186-0.312c1.124-0.217,2.201-0.349,3.389-0.739c0.585-0.183,1.153-0.321,1.748-0.56
								c0.599-0.252,1.194-0.515,1.787-0.787c0.302-0.139,0.61-0.283,0.765-0.379l0.584-0.323l1.168-0.647l2.34-1.293
								c1.6-0.846,3.03-1.771,4.512-2.679c3.002-1.813,5.753-3.693,8.56-5.625c2.714-1.89,5.422-3.913,8.012-5.882
								c2.763-2.17,6.033-4.46,9.058-6.871c1.523-1.146,2.98-2.355,4.284-3.632c1.336-1.146,2.523-2.363,3.475-3.673
								c0.923-1.272,0.795-2.657,0.336-3.706c0.37,0.864-1.536,1.243-3.683,1.451c-1.071,0.103-2.203,0.164-3.111,0.208
								c-0.884,0.086-1.536,0.156-1.684,0.187c-1.771,0.399-3.563,0.993-5.364,1.644c-1.75,0.718-3.492,1.509-5.252,2.216
								c-6.731,2.788-13.054,5.166-19.23,9.055c-3.252,2.004-6.425,4.049-9.569,5.771l-1.176,0.678
								c-0.378,0.219-0.856,0.515-0.961,0.508c-0.2,0.061-0.337,0.166-0.567,0.233c-0.246,0.058-0.486,0.127-0.725,0.207
								c-1.092,0.231-2.429,0.417-3.965,0.426c-3.07,0.039-6.608-0.385-10.277-0.959c-3.716-0.567-7.492-1.356-12.039-1.865
								c-13.381-1.169-26.766-2.138-40.138-3.411C194.952,263.067,186.675,262.282,178.391,261.711z"/>
						</g>
					</g>
				</g>
			</g>
		</g>
		<g>
			<g>
				<g>
					<path fill="#231F20" d="M38.976,272.213l0.003,0.237C38.985,272.344,39.012,272.275,38.976,272.213z"/>
					<path fill="#231F20" d="M41.123,236.265l0.156,0.073C41.228,236.271,41.173,236.259,41.123,236.265z"/>
					<path fill="#231F20" d="M27.276,228.228l-0.014-0.218C27.254,228.113,27.262,228.178,27.276,228.228z"/>
					<g>
						<path fill="#231F20" d="M26.222,243.08c-0.213,3.18-0.232,6.291-0.272,9.536c-0.067,3.289-0.031,6.504,0.15,9.855
							c0.336,6.897,1.236,13.82,1.616,21.004c0.508,7.668,1.795,15.032,3.915,22.085c1.063,3.551,2.031,7.024,2.894,10.503
							c0.44,1.747,0.832,3.472,1.228,5.218l0.298,1.315l0.359,1.397c0.24,0.934,0.481,1.87,0.723,2.81
							c0.518,1.791,1.232,3.505,1.928,5.218c0.809,1.646,1.597,3.309,2.472,4.896c1.749,3.179,3.558,6.267,5.08,9.474
							c0.806,1.726,1.53,3.466,2.314,5.167c0.398,0.85,3.403,4.411,4.199,4.999c0.362,0.267-0.146-2.544-0.301-3.322
							c-0.499-2.553-1.485-6.376-2.128-8.245c-0.671-1.878-1.163-3.253-1.659-4.639c-0.257-0.684-0.527-1.362-0.838-2.098
							c-0.298-0.736-0.623-1.536-0.998-2.463c-0.839-1.887-1.486-3.811-2.184-5.701c-0.34-0.948-0.577-1.92-0.865-2.874
							c-0.269-0.959-0.574-1.906-0.73-2.883l-0.545-2.898c-0.175-0.959-0.305-2.041-0.443-3.062
							c-0.266-2.077-0.499-4.146-0.67-6.234c-0.549-6.741-2.82-13.323-3.298-19.849c-0.179-1.767-0.172-3.511-0.202-5.248
							c-0.078-1.746,0.091-3.445,0.132-5.148l0.047-1.276l0.127-1.322l0.219-2.641c0.131-1.761,0.204-3.514,0.242-5.288
							c0.117-1.929,0.289-3.853,0.486-5.771c0.197-1.918,0.417-3.823,0.665-5.813l0.687-5.909l0.149-1.48l0.092-1.527
							c0.056-1.019,0.101-2.039,0.131-3.06c0.052-1.999,0.117-4.054,0.123-6.003l-0.039-5.749c0.018-3.822,0.037-7.65,0.253-11.455
							c0.095-2.227,0.251-4.442,0.448-6.651c0.174-2.213,0.385-4.42,0.671-6.609c1.344-11.07,2.623-22.087,5.491-32.644
							c0.716-2.355,1.414-4.711,2.311-6.967l1.388-3.354c0.462-1.115,0.913-2.232,1.463-3.297c2.043-4.341,4.183-8.563,6.305-12.847
							c0.564-1.137,1.179-2.375,1.813-3.651c0.682-1.244,1.404-2.511,2.019-3.835c0.31-0.66,0.6-1.329,0.861-2.005
							c0.259-0.678,0.572-1.295,0.801-1.957c0.479-1.304,0.804-2.634,0.905-3.972c0.096-1.3-0.677-2.414-1.544-3.163
							c0.708,0.619-0.583,1.437-2.141,2.172c-1.554,0.731-3.386,1.4-3.599,1.522c-1.282,0.718-2.333,1.718-3.45,2.708
							c-1.083,1.013-2.21,2.042-3.27,3.086c-1.004,1.024-2.021,2.014-3.038,3.008c-1.004,0.999-2.073,1.973-2.952,3.061
							c-0.916,1.071-1.812,2.179-2.67,3.354c-0.426,0.589-0.853,1.191-1.249,1.82c-0.365,0.639-0.717,1.299-1.053,1.983
							c-5.732,11.475-8.729,23.859-10.676,36.186c-1.713,10.51-2.442,21.034-3.086,31.48
							C26.902,230.257,26.491,236.76,26.222,243.08z"/>
					</g>
				</g>
			</g>
		</g>
	</g>
</g>
</svg>
