<?xml version="1.0" encoding="utf-8"?>
<!-- Generator: Adobe Illustrator 16.0.0, SVG Export Plug-In . SVG Version: 6.00 Build 0)  -->
<!DOCTYPE svg PUBLIC "-//W3C//DTD SVG 1.1//EN" "http://www.w3.org/Graphics/SVG/1.1/DTD/svg11.dtd">
<svg version="1.1" xmlns="http://www.w3.org/2000/svg" xmlns:xlink="http://www.w3.org/1999/xlink" x="0px" y="0px" width="500px"
	 height="500px" viewBox="0 0 500 500" enable-background="new 0 0 500 500" xml:space="preserve">
<g id="Layer_1">
</g>
<g id="Layer_2">
	<g>
		<g>
			<g>
				<g>
					<path fill="#231F20" d="M149.059,214.736l-0.311,0.029C148.888,214.773,148.981,214.833,149.059,214.736z"/>
					<path fill="#231F20" d="M194.176,213.714l-0.071,0.397C194.182,213.976,194.19,213.838,194.176,213.714z"/>
					<path fill="#231F20" d="M201.943,178.037l0.261-0.065C202.077,177.966,202,177.992,201.943,178.037z"/>
					<g>
						<path fill="#231F20" d="M183.756,177.332c-8.227-0.019-16.412,1.087-24.489,3.392c-4.163,1.186-8.295,2.648-12.473,3.883
							c-4.197,1.228-8.411,2.235-12.691,2.527c-4.534,0.303-9.051,0.461-13.563,0.742c-4.508,0.275-9.011,0.666-13.56,1.569
							c-9.122,1.753-18.025,1.837-27.231,1.913c-8.791,0.221-17.315,3.722-26.147,3.048c-2.358-0.186-4.714-0.606-7.074-0.875
							c-1.16-0.133-6.795,2.398-7.855,3.477c-0.483,0.489,3.057,2.621,4.038,3.179c3.22,1.833,8.126,4.198,10.621,4.878
							c5.049,1.377,7.398,1.979,12.498,2.215c5.265,0.254,10.463,0.378,15.649,0.819c5.166,0.508,10.325,1.283,15.53,2.696
							c8.406,2.282,16.991,0.117,25.534,1.196c9.214,1.096,18.393,3.186,27.629,2.788c9.874-0.446,19.788,1.311,29.667,0.72
							c2.438-0.158,4.856-0.299,7.304-0.55l7.333-0.753c4.888-0.499,9.775-0.962,14.68-1.208c2.862-0.144,5.726-0.251,8.593-0.323
							l2.15-0.047l0.538-0.01c0.036,0.004,0.045,0.01,0.068,0.016l0.117,0.035c0.157,0.057,0.277,0.074,0.45,0.252l0.286,0.247
							c0.021,0.014,0.001,0.01,0.057,0.037l0.313,0.138l0.626,0.274l1.256,0.543c1.676,0.72,3.361,1.421,5.048,2.107
							c3.284,1.32,6.588,2.583,9.898,3.83l9.57,3.763c1.622,0.611,3.081,1.328,4.612,2.007l4.527,2.101
							c0.68,0.323,1.353,0.657,2.019,1c0.649,0.365,1.275,0.762,1.905,1.153c1.256,0.79,2.489,1.609,3.707,2.444l3.617,2.536
							c1.189,0.865,2.313,1.853,3.473,2.761c2.304,1.847,4.618,3.642,7.036,5.281c2.357,1.817,4.813,3.495,7.479,4.925
							c1.411,0.758,2.927,1.618,4.546,2.434c1.599,0.873,3.272,1.784,5.069,2.466c3.588,1.385,7.612,2.024,12.163,0.79
							c2.212-0.604,4.587-2.87,6.387-5.098c-1.48,1.825-2.154-0.289-2.513-2.975c-0.355-2.683-0.409-5.947-0.491-6.297
							c-0.978-4.215-3.175-7.491-4.959-11.135c-1.802-3.456-3.344-7.088-5.172-10.521c-0.914-1.715-1.896-3.382-3.016-4.942
							c-1.187-1.489-2.51-2.876-4.028-4.104c-1.591-1.286-3.209-2.535-4.851-3.751l-2.479-1.801l-2.599-1.618
							c-1.742-1.063-3.503-2.097-5.276-3.109c-1.78-0.984-3.546-2.067-5.376-2.892c-3.633-1.726-7.324-3.474-10.988-5.035
							c-3.638-1.475-7.279-2.951-10.931-4.432c-3.017-1.185-6.045-2.339-9.077-3.482l-9.652-3.676l-4.368-1.702l-1.091-0.426
							l-0.545-0.213c-0.181-0.074-0.359-0.163-0.565-0.118l-2.386,0.136l-7.823,0.434c-3.159,0.171-6.321,0.312-9.485,0.402
							C199.424,177.599,191.578,177.22,183.756,177.332z"/>
					</g>
				</g>
			</g>
		</g>
		<g>
			<g>
				<g>
					<path fill="#231F20" d="M379.112,182.828l-0.837-0.605C378.639,182.512,378.843,182.744,379.112,182.828z"/>
					<path fill="#231F20" d="M434.098,251.303l-0.069-0.47C433.934,251.099,433.994,251.229,434.098,251.303z"/>
					<path fill="#231F20" d="M433.188,297.326l-0.592,0.6C432.903,297.666,433.075,297.482,433.188,297.326z"/>
					<g>
						<path fill="#231F20" d="M480.12,258.469l1.919-1.55l4.182-3.451c0.097-0.081,0.199-0.158,0.289-0.244l0.217-0.299l0.435-0.597
							l0.867-1.195l1.594-2.197l1.729-2.392l11.621-16.078l-15.863-11.889c-18.841-14.121-38.159-27.556-57.847-40.166
							c-11.836-7.582-23.798-14.916-35.668-22.458c-5.935-3.771-11.848-7.595-17.709-11.526c-0.752-0.492-1.438-0.984-2.108-1.479
							l-2.039-1.489l-4.067-3.015l-2.027-1.526c-0.671-0.527-1.331-1.09-1.995-1.637c-1.319-1.111-2.641-2.223-3.963-3.336
							c-1.394-1.201-2.786-2.35-4.174-3.595l-4.159-3.721c-2.787-2.509-5.572-5.015-8.355-7.521l-4.2-3.796
							c-0.499-0.434-1.042-0.958-1.62-1.389l-1.757-1.327l-3.514-2.644l-3.711-2.346l-0.927-0.586l-0.464-0.293l-0.231-0.146
							c-0.075-0.057-0.153-0.104-0.251-0.077l-2.221,0.132l-8.863,0.531l-11.31,0.976l-11.155,1.043
							c-7.438,0.725-14.877,1.514-22.326,2.4c-3.747,0.446-7.483,0.866-11.211,1.262c-3.726,0.405-7.445,0.777-11.176,1.031
							c-7.453,0.563-14.884,1.047-22.32,1.479c-14.873,0.859-29.753,1.527-44.875,2.167c-14.603,0.568-29.121,1.954-43.637,3.228
							c-7.258,0.637-14.516,1.246-21.785,1.71c-7.272,0.493-14.563,0.916-21.873,1.038c-7.807,0.134-15.574,0.032-23.376,0.083
							c-3.84,0.024-22.952,3.348-26.628,4.58c-1.673,0.559,9.771,2.227,12.942,2.656c10.422,1.409,26.337,3.127,34.5,3.475
							c8.263,0.351,14.315,0.599,20.41,0.702c6.096,0.114,12.249,0.167,20.69,0.011c17.441-0.296,34.652-0.688,51.824-0.811
							c17.193-0.205,34.354-0.14,51.686,0.555c7.008,0.256,14.085,0.333,21.213,0.069c7.131-0.297,14.303-0.756,21.483-1.26
							c7.181-0.51,14.372-1.021,21.536-1.529c3.584-0.238,7.162-0.458,10.731-0.646c1.786-0.085,3.568-0.17,5.348-0.254l0.668-0.028
							l0.302-0.011l0.12,0.002l0.477,0.013l0.931,0.04l0.97,0.058c0.293,0.168,0.562,0.447,0.834,0.661
							c0.563,0.426,0.99,0.997,1.455,1.469c0.055,0.057,0.116,0.145,0.177,0.213l0.092,0.106l0.047,0.052l0.12,0.122l1,1.016
							l1.998,2.033l3.992,4.067l8.156,8.256c2.723,2.755,5.653,5.501,8.488,8.246l2.148,2.056l2.271,2.011l4.567,4.01
							c3.099,2.776,6.025,5.045,9.034,7.47c5.994,4.789,12.059,9.504,18.229,14.107c26.265,19.586,51.109,40.859,77.469,60.334
							l4.819,3.554c-1.251-8.25-2.501-16.486-3.75-24.723l-1.637,2.317l-0.204,0.289l-0.021,0.037l-0.042,0.073l-0.086,0.148
							l-0.068,0.078l-0.034,0.038l-0.018,0.019l-0.012,0.012l-0.155,0.131l-2.478,2.103c-3.153,2.811-6.202,5.672-8.968,8.441
							c-5.623,5.561-10.681,10.857-15.646,15.415l-3.703,3.228c-1.233,1.04-2.467,1.911-3.694,2.888l-0.921,0.717l-1.31,0.978
							l-2.702,2.022c-1.74,1.355-3.369,2.726-5.015,4.089c-6.35,5.454-11.839,10.824-17.119,15.434
							c-0.831,0.75-1.628,1.405-2.429,2.073l-2.508,2.094l-5.607,4.637l-5.602,4.634l-5.458,4.669l-10.805,9.259
							c-3.589,3.102-7.113,6.059-10.646,9.015c-7.244,6.07-14.408,11.79-21.686,17.19c-1.789,1.422-3.665,2.635-5.513,3.911
							l-5.544,3.815l-1.383,0.957l-1.43,0.872l-2.86,1.736l-5.202,3.184c-0.192,0.129-0.394,0.261-0.63,0.287
							c-0.114,0.021-0.23,0.034-0.348,0.043c-0.059,0.009-0.117-0.001-0.176,0.004c-0.03,0.005-0.058,0.008-0.081,0.005
							l-0.275,0.002c-2.429-0.034-5.575-0.322-8.796-0.696l-5.04-0.626c-1.762-0.225-3.53-0.462-5.63-0.691l-1.702-0.168
							l-1.244-0.092l-0.738-0.037l-2.894-0.122l-5.241-0.22l-20.967-0.907l-10.481-0.483l-5.24-0.252l-5.252-0.377
							c-10.653-0.778-21.218-1.772-31.738-2.851c-5.267-0.547-10.495-1.08-15.769-1.683c-5.277-0.604-10.55-1.21-15.825-1.814
							c-10.551-1.198-21.113-2.351-31.735-3.328c-10.536-1.063-21.118-1.961-31.823-2.55c-22.618-1.085-53.433-4.033-73.22,1.607
							c-4.811,1.361-6.561,4.451-6.856,7.3c0.491-4.675,24.54,7.499,26.319,8.132c5.362,1.915,11.048,3.469,16.82,4.92
							c5.782,1.411,11.636,2.84,17.357,4.235c11.091,2.786,21.59,5.816,32.312,8.54c5.36,1.36,10.779,2.649,16.347,3.784
							c5.54,1.086,11.229,2.025,17.17,2.748c12.463,1.5,24.854,2.879,37.354,4.029c12.525,1.128,25.051,2.131,37.586,3.063
							c3.135,0.227,6.264,0.479,9.406,0.671l9.456,0.458c6.306,0.289,12.614,0.579,18.927,0.869l9.472,0.421l4.739,0.21l1.186,0.053
							l0.592,0.026l0.297,0.013l0.074,0.003c-0.029-1.814,0.116,4.064-0.056-4.067l0.005,0.626l0.019,2.505l0.005,0.626
							c-0.002,0.278,0.005,0.381,0.021,0.313l0.074,0.004l0.146,0.007l0.129,0.008l-0.004,0.002
							c0.012,0.005-0.049-0.002,0.022,0.004l0.784,0.078c1.184,0.127,2.696,0.326,4.221,0.527l4.801,0.623
							c3.321,0.41,6.772,0.81,10.65,1.04c0.694,0.034,1.358,0.076,2.09,0.096l1.084,0.031l1.363,0.013
							c2.136-0.005,4.256-0.108,6.356-0.379c2.097-0.279,4.162-0.739,6.159-1.421c2.013-0.648,3.806-1.785,5.662-2.801l7.185-4.366
							l3.308-2.027l1.651-1.018l1.587-1.099l6.341-4.404c2.101-1.479,4.265-2.906,6.237-4.494l6.039-4.661l3.017-2.334
							c0.982-0.789,1.926-1.597,2.892-2.394c3.813-3.203,7.758-6.392,11.377-9.618c3.69-3.22,7.404-6.447,10.951-9.604l5.387-4.759
							l5.329-4.639l5.327-4.618l5.345-4.438l5.352-4.424c1.935-1.619,4.214-3.444,6.069-5.104
							c5.202-4.519,9.895-8.871,14.396-12.619c1.116-0.925,2.246-1.885,3.319-2.682c1.086-0.84,2.179-1.705,3.215-2.387l3.838-2.717
							c1.581-1.146,3.223-2.291,4.75-3.464c6.038-4.739,11.315-9.614,16.246-14.245C471.291,266.406,475.782,262.188,480.12,258.469
							z"/>
					</g>
				</g>
			</g>
		</g>
		<g>
			<g>
				<g>
					<path fill="#231F20" d="M139.037,301.457l-0.308-0.001C138.866,301.477,138.951,301.546,139.037,301.457z"/>
					<path fill="#231F20" d="M184.112,305.167l-0.108,0.392C184.097,305.428,184.117,305.291,184.112,305.167z"/>
					<path fill="#231F20" d="M194.198,270.068l0.248-0.048C194.327,270.007,194.253,270.027,194.198,270.068z"/>
					<g>
						<path fill="#231F20" d="M177.215,267.869c-1.924-0.203-3.808-0.318-5.779-0.389c-2.084-0.107-4.173-0.144-6.264-0.106
							c-2.09,0.04-4.187,0.139-6.276,0.338c-2.083,0.226-4.166,0.525-6.249,0.9c-8.584,1.545-17.16,4.187-25.708,3.957
							c-9.053-0.255-17.991-1.077-27.083-0.358c-4.573,0.362-9.052,0.315-13.522,0.059c-2.235-0.119-4.465-0.33-6.707-0.497
							c-2.241-0.184-4.491-0.367-6.758-0.552c-8.745-0.754-17.588,1.775-26.27,0.125c-2.318-0.446-4.61-1.126-6.923-1.655
							c-1.138-0.261-6.996,1.629-8.158,2.583c-0.529,0.433,2.756,2.945,3.669,3.609c2.998,2.18,7.6,5.074,9.992,6.028
							c4.843,1.929,7.097,2.787,12.109,3.588c5.175,0.83,10.286,1.55,15.365,2.535c2.54,0.498,5.071,1.041,7.597,1.734
							c2.524,0.722,5.043,1.557,7.56,2.553c8.136,3.211,16.947,2.082,25.265,3.896c9.007,1.962,17.904,4.903,27.048,5.387
							c4.866,0.256,9.682,1.06,14.497,1.845c4.824,0.805,9.518,1.729,14.433,1.976c2.554,0.106,5.109,0.175,7.661,0.228
							c2.556,0.028,5.089,0.161,7.669,0.014c5.131-0.192,10.28-0.282,15.372-0.298c5.843-0.234,11.691-0.328,17.554-0.278
							l2.777,0.004l1.388-0.011c0.482-0.013,1.06-0.066,1.585-0.101c2.143-0.18,4.321-0.297,6.431-0.616
							c2.101-0.342,4.219-0.668,6.294-1.089l6.125-1.492c8.041-2.254,15.556-5.334,22.783-8.578
							c6.537-2.928,13.116-5.379,19.413-8.267c3.196-1.405,6.217-2.983,9.218-4.683c2.92-1.751,5.793-3.646,8.38-5.881
							c5.544-4.683,13.159-10.673,13.178-20.189c0.014-2.309-1.63-5.136-3.381-7.403c2.849,3.73-9.09,0.592-9.785,0.511
							c-2.15-0.12-4.124,0.115-6.044,0.448c-1.926,0.318-3.806,0.715-5.74,0.952c-7.531,0.862-14.983,0.165-21.182,2.739
							c-6.508,2.727-12.593,5.659-18.565,8.335c-5.965,2.672-11.835,5.086-17.721,6.648c-1.247,0.283-2.49,0.582-3.73,0.895
							c-1.241,0.312-2.465,0.458-3.696,0.716c-1.234,0.281-2.449,0.381-3.667,0.531l-1.828,0.23c-0.65,0.07-1.494,0.096-2.232,0.146
							c-6.103,0.349-12.214,0.668-18.329,0.789c-3.583-0.084-7.173-0.42-10.806-0.706c-1.817-0.174-3.626-0.244-5.458-0.489
							C180.884,268.287,179.05,268.061,177.215,267.869z"/>
					</g>
				</g>
			</g>
		</g>
		<g>
			<g>
				<g>
					<path fill="#231F20" d="M41.464,306.332l0.013,0.47C41.492,306.591,41.558,306.456,41.464,306.332z"/>
					<path fill="#231F20" d="M44.851,235.383l0.391,0.144C45.112,235.396,44.975,235.372,44.851,235.383z"/>
					<path fill="#231F20" d="M9.965,219.623l-0.04-0.43C9.907,219.397,9.926,219.526,9.965,219.623z"/>
					<g>
						<path fill="#231F20" d="M7.755,248.849c-0.17,3.132-0.269,6.264-0.295,9.398c-0.046,3.157,0.073,6.211,0.073,9.488
							c0.04,3.231,0.152,6.463,0.338,9.694c0.189,3.251,0.439,6.41,0.793,9.764c0.359,3.41,0.787,6.813,1.222,10.209
							c0.448,3.404,0.827,6.755,1.375,10.249c0.499,3.46,0.944,6.91,1.273,10.361c0.165,1.726,0.3,3.452,0.399,5.181
							c0.087,1.725,0.309,3.531,0.394,5.299c0.82,15.068,2.538,29.669,6.171,43.762c0.46,1.771,0.891,3.54,1.302,5.304
							c0.428,1.749,0.832,3.497,1.216,5.245c0.766,3.505,1.462,6.981,2.112,10.453c0.655,3.487,1.235,6.955,1.786,10.434
							l0.411,2.615c0.133,0.867,0.265,1.737,0.446,2.692c0.335,1.867,0.671,3.739,1.009,5.618c0.163,0.906,0.339,1.81,0.526,2.711
							c0.208,0.893,0.471,1.768,0.719,2.647c0.507,1.757,1.051,3.501,1.617,5.236c0.53,1.751,1.251,3.41,1.906,5.099l2.018,5.027
							c1.46,3.27,2.854,6.568,4.207,9.836c1.388,3.234,2.587,6.588,3.657,9.913c1.112,3.591,2.004,7.235,3.054,10.783
							c0.535,1.777,6.003,9.28,7.618,10.534c0.733,0.572,0.863-5.239,0.863-6.851c0.013-5.279-0.468-13.223-1.131-17.097
							c-0.723-3.916-1.176-6.787-1.775-9.615c-0.637-2.822-1.283-5.63-2.337-9.416c-0.265-0.979-0.566-1.948-0.802-2.928
							l-0.703-2.93c-0.453-1.95-0.972-3.88-1.361-5.824c-0.691-3.901-1.542-7.748-1.845-11.646
							c-0.199-1.959-0.402-3.836-0.546-5.847c-0.133-2.052-0.244-4.108-0.327-6.173c-0.162-4.143-0.239-8.241-0.148-12.414
							c0.293-13.419-3.716-26.572-3.843-39.52l-0.039-2.624l0.074-2.601l0.186-5.184c0.041-0.86,0.048-1.727,0.115-2.579
							l0.215-2.551l0.398-5.077c0.08-1.662,0.335-3.439,0.507-5.176c0.184-1.743,0.348-3.484,0.487-5.227
							c0.289-3.49,0.428-6.949,0.498-10.479c0.156-3.812,0.449-7.614,0.808-11.41c0.358-3.791,0.778-7.561,1.234-11.483
							c0.447-3.884,0.889-7.77,1.255-11.662l0.26-2.92c0.074-0.982,0.117-1.997,0.167-2.995c0.094-2.003,0.159-4.009,0.188-6.017
							c0.052-3.948,0.084-7.936,0.068-11.844l-0.216-11.349c-0.112-7.558-0.142-15.105,0.134-22.634
							c0.324-8.786,0.901-17.542,1.77-26.238c2.18-21.955,3.674-43.798,7.816-65.034c1.881-9.591,4.929-18.735,8.181-27.642
							c3.269-8.914,6.729-17.569,9.59-26.52c0.387-1.184,0.791-2.42,1.207-3.692c0.451-1.25,0.91-2.541,1.355-3.862
							c0.217-0.664,0.436-1.333,0.656-2.004c0.227-0.666,0.454-1.335,0.682-2.005c0.443-1.347,0.84-2.728,1.209-4.109
							c0.812-2.712,1.333-5.559,1.679-8.311c0.154-1.391,0.217-2.793,0.172-4.203c-0.008-1.381-0.126-2.773-0.375-4.169
							c-0.487-2.714-2.881-5.023-5.297-6.561c1.977,1.272-0.579,3.038-3.811,4.671c-3.158,1.663-6.958,3.269-7.381,3.543
							c-2.435,1.692-4.64,3.728-6.677,5.916c-2.01,2.201-4,4.494-5.971,6.746C42.528,57.497,34.49,65.479,29.97,76.702
							c-4.65,11.745-7.931,23.833-10.409,35.976c-2.44,12.151-4.091,24.367-5.513,36.59c-2.405,20.792-3.188,41.513-4.205,62.088
							c-0.299,6.151-0.727,12.399-1.103,18.686c-0.179,3.142-0.359,6.296-0.539,9.457l-0.218,4.738l-0.099,2.361L7.755,248.849z"/>
					</g>
				</g>
			</g>
		</g>
	</g>
</g>
</svg>
