<?xml version="1.0" encoding="utf-8"?>
<!-- Generator: Adobe Illustrator 16.0.0, SVG Export Plug-In . SVG Version: 6.00 Build 0)  -->
<!DOCTYPE svg PUBLIC "-//W3C//DTD SVG 1.1//EN" "http://www.w3.org/Graphics/SVG/1.1/DTD/svg11.dtd">
<svg version="1.1" xmlns="http://www.w3.org/2000/svg" xmlns:xlink="http://www.w3.org/1999/xlink" x="0px" y="0px" width="500px"
	 height="500px" viewBox="0 0 500 500" enable-background="new 0 0 500 500" xml:space="preserve">
<g id="Layer_1">
</g>
<g id="Layer_2">
	<g>
		<g>
			<g>
				<g>
					<path fill="#231F20" d="M196.925,268.717l-0.503-0.136C196.645,268.651,196.786,268.716,196.925,268.717z"/>
					<path fill="#231F20" d="M267.487,298.775l-0.206,0.073C267.434,298.864,267.479,298.825,267.487,298.775z"/>
					<path fill="#231F20" d="M288.407,293.175l0.425,0.18C288.635,293.255,288.507,293.205,288.407,293.175z"/>
					<g>
						<path fill="#231F20" d="M259.96,278.743c-12.96-6.37-26.423-12.203-40.338-16.61c-14.339-4.548-29.113-7.547-44.3-9.538
							c-8.053-1.049-16.186-1.503-24.304-1.127c-8.113,0.37-16.203,1.579-24.052,3.716c-7.913,2.138-15.41,4.879-22.755,7.968
							c-7.332,3.104-14.499,6.558-21.527,10.455c-6.778,3.758-13.185,8.051-19.468,12.445c-6.276,4.409-12.427,8.931-18.797,13.152
							c-3.413,2.227-6.802,4.437-10.209,6.659c-1.666,1.105-9.327,7.636-10.692,9.088c-0.622,0.664,4.719-1.975,6.199-2.72
							c4.843-2.462,12.158-6.416,15.813-8.603c7.397-4.429,10.83-6.5,18.239-11.217c7.661-4.852,15.327-9.448,23.216-13.497
							c7.883-4.045,15.999-7.545,24.414-10.104c6.805-2.047,13.722-4.087,20.741-5.552c7.027-1.458,14.219-2.332,21.3-2.226
							c15.376,0.216,30.374,3.809,45.265,8.224c15.921,4.708,30.972,12.144,46.33,19.227c15.163,7.001,30.331,14.345,45.887,21.384
							c4.528,2.068,9.128,4.051,13.751,5.996l6.948,2.831c2.346,0.897,4.667,1.839,7.031,2.71c5.948,2.249,12.054,4.209,18.24,5.954
							c6.222,1.667,12.55,3.054,18.979,4.036c6.566,1.013,13.156,1.318,19.669,1.248c6.521-0.086,12.998-0.599,19.426-1.473
							c11.618-1.579,23.005-4.028,34.076-8.044c5.529-2.007,10.973-4.408,16.225-7.354c5.238-2.967,10.283-6.494,14.884-10.712
							c4.858-4.437,10.203-10.377,13.73-17.219c0.842-1.726,1.748-3.384,2.349-5.155c0.315-0.871,0.628-1.732,0.936-2.583
							c0.306-0.847,0.479-1.734,0.7-2.578c0.206-0.85,0.395-1.686,0.565-2.502c0.152-0.823,0.219-1.648,0.306-2.44
							c0.155-1.59,0.268-3.082,0.123-4.499c-0.194-2.739-1.332-3.695-2.46-3.88c0.464,0.075,0.405,0.932,0.049,2.178
							c-0.178,0.622-0.43,1.34-0.726,2.101c-0.293,0.762-0.749,1.538-1.157,2.322c-0.427,0.781-0.857,1.559-1.29,2.281
							c-0.488,0.694-0.952,1.354-1.361,1.935c-0.82,1.146-1.416,1.956-1.585,2.139c-3.256,4.767-7.021,9.655-11.434,13.501
							c-4.257,3.722-8.807,6.536-13.531,9.039c-4.734,2.503-9.685,4.673-15.074,6.975c-11.309,4.813-23.379,8.003-35.628,9.817
							c-6.128,0.896-12.313,1.431-18.478,1.538c-6.168,0.089-12.298-0.18-18.285-1.141c-10.434-1.666-20.8-4.354-31.032-7.91
							c-5.123-1.738-10.216-3.693-15.302-5.728c-5.056-2.056-10.07-4.199-15.064-6.513
							C284.552,291.26,272.396,284.847,259.96,278.743z"/>
					</g>
				</g>
			</g>
		</g>
		<g>
			<g>
				<g>
					<path fill="#231F20" d="M315.198,259.345l0.425,0.168C315.436,259.429,315.321,259.355,315.198,259.345z"/>
					<path fill="#231F20" d="M255.527,229.305l0.19-0.075C255.584,229.218,255.539,229.256,255.527,229.305z"/>
					<path fill="#231F20" d="M236.338,235.064l-0.363-0.168C236.142,234.99,236.251,235.037,236.338,235.064z"/>
					<g>
						<path fill="#231F20" d="M260.406,248.633c10.967,5.96,22.29,11.482,33.936,16.087c5.986,2.388,12.075,4.515,18.191,6.589
							c6.115,2.082,12.283,4.066,18.51,6.105c6.592,2.166,13.234,4.14,19.991,5.714c6.76,1.553,13.626,2.721,20.578,3.318
							c13.969,1.245,27.678,1.221,41.632-0.704c6.744-0.977,13.205-2.761,19.634-4.647c6.385-2.03,12.706-4.152,19.051-6.316
							c1.714-0.523,3.385-1.152,5.077-1.727c1.687-0.591,3.391-1.141,5.049-1.827c0.816-0.337,3.184-1.567,5.464-2.946
							c2.268-1.416,4.487-2.879,5.163-3.442c0.61-0.507-4.441,0.961-5.82,1.368c-2.276,0.677-5.195,1.406-7.924,2.206
							c-2.778,0.688-5.399,1.382-7.16,1.902c-3.61,0.93-6.203,1.714-8.873,2.339c-1.327,0.334-2.653,0.684-4.101,1.083
							c-1.455,0.369-3.037,0.771-4.87,1.235c-7.561,1.883-15.134,3.452-22.682,4.273c-7.562,0.823-15.169,0.865-22.725,0.071
							c-6.105-0.666-12.323-1.26-18.555-2.146c-6.225-0.892-12.444-2.14-18.418-3.884c-12.958-3.783-25.291-9.306-37.842-14.616
							c-13.383-5.673-26.022-12.987-39.083-19.719c-12.971-6.7-25.918-13.389-38.898-20.094l-5.729-2.954l-5.788-2.882l-5.794-2.879
							l-5.868-2.772c-4.899-2.412-10.007-4.455-15.038-6.619c-5.138-1.974-10.254-3.985-15.535-5.647l-3.933-1.303
							c-1.321-0.41-2.665-0.764-3.996-1.147l-4.003-1.13c-1.333-0.381-2.664-0.765-4.03-1.05l-8.14-1.87
							c-2.743-0.519-5.505-0.966-8.257-1.457c-2.477-0.504-5.006-0.716-7.507-1.051l-3.754-0.481
							c-0.626-0.074-1.248-0.182-1.877-0.229l-1.89-0.125c-2.523-0.172-5.042-0.343-7.56-0.514c-0.63-0.059-1.262-0.07-1.895-0.058
							l-1.898,0.006l-3.801,0.018c-10.145-0.088-21.059,1.8-30.819,6.13c-1.296,0.57-2.662,1.14-3.998,1.845
							c-1.339,0.697-2.767,1.338-4.104,2.151c-0.677,0.394-1.359,0.792-2.044,1.19l-1.025,0.605l-0.603,0.37l-0.547,0.362
							c-1.292,0.88-2.417,1.683-3.573,2.501c-2.22,1.588-4.4,3.149-6.441,4.61c-0.937,0.682-1.841,1.339-2.702,1.966
							c-0.8,0.598-1.506,1.095-1.869,1.498c-0.116,0.113-0.114,0.189-0.169,0.307c-0.047,0.116-0.198,0.201-0.291,0.313
							c-0.209,0.199-0.409,0.404-0.583,0.6c-0.347,0.396-0.609,0.834-0.777,1.36c0.143-0.437,0.528-0.054,1.365,0.112
							c0.637,0.189,1.958,0.283,3.415,0.19c2.918-0.158,6.159-0.742,6.562-0.836c2.497-0.667,5.007-1.665,7.485-2.761
							c1.219-0.529,2.517-1.166,3.613-1.606c1.224-0.457,2.444-0.913,3.651-1.364c4.723-1.582,9.293-2.534,13.855-3.217
							c4.576-0.662,9.16-0.976,14.107-1.311c2.554-0.234,5.294-0.126,7.957-0.167l4.007-0.042c1.337,0.051,2.674,0.158,4.01,0.228
							c5.344,0.165,10.668,0.876,15.989,1.55c10.634,1.586,21.176,4.311,31.603,7.755c17.74,5.86,35.018,13.803,51.94,22.615
							C239.581,236.933,249.894,242.924,260.406,248.633z"/>
					</g>
				</g>
			</g>
		</g>
		<g>
			<g>
				<g>
					<path fill="#231F20" d="M329.089,143.874l0.106,0.038C329.151,143.886,329.131,143.851,329.089,143.874z"/>
					<path fill="#231F20" d="M314.826,135.764l0.112-0.113C314.885,135.678,314.851,135.721,314.826,135.764z"/>
					<path fill="#231F20" d="M303.922,145.422l-0.101-0.046C303.86,145.41,303.893,145.421,303.922,145.422z"/>
					<g>
						<path fill="#231F20" d="M309.906,150.097c2.868,1.873,6.06,3.277,9.463,4.079c3.527,0.813,7.184,1.031,10.512,2.143
							c3.525,1.185,7.097,2.348,10.891,2.611c3.799,0.256,7.402,0.842,11.241,1.044c1.849,0.112,3.7-0.252,5.507-0.629
							c0.903-0.223,1.803-0.417,2.704-0.589c0.896-0.211,1.8-0.366,2.732-0.422l3.008-0.246c0.514-0.043,2.551-1.699,2.831-2.218
							c0.127-0.236-1.521-0.657-1.95-0.773c-1.439-0.305-3.512-0.908-4.474-0.989c-1.993-0.291-2.862-0.383-4.761-0.406
							c-3.885-0.017-7.706-0.435-11.231-2.248c-2.801-1.469-6.003-1.504-8.824-2.883c-3.034-1.482-5.761-3.544-8.818-4.887
							c-3.28-1.429-6.058-3.832-9.204-5.554c-3.11-1.705-6.298-3.373-9.236-5.459c-1.707-1.226-3.366-2.526-4.953-3.915
							c-4.008-3.495-8.268-6.72-12.058-10.441c-0.83-0.83-1.581-1.694-2.378-2.703l-0.58-0.738l-0.132-0.167l-0.346-0.343
							l-0.717-0.673c-1.155-1.037-1.572-1.288-2.257-1.826c-2.494-1.837-4.753-3.214-7.434-4.113
							c-1.378-0.487-3.081-1.042-4.813-1.25c-0.926-0.083-1.855-0.072-2.749,0.093c-0.422,0.078-0.932,0.212-1.406,0.397
							c-0.472,0.184-0.919,0.416-1.334,0.704c-0.81,0.56-1.203,1.8-1.398,2.928c0.152-0.929,0.892-0.236,1.483,0.695
							c0.608,0.905,1.004,2.163,1.082,2.273c0.432,0.736,0.919,1.289,1.414,1.861c0.494,0.575,1.003,1.107,1.461,1.694
							c1.753,2.328,2.974,5.003,4.886,6.543c0.245,0.199,0.532,0.399,0.746,0.584l0.615,0.533l0.312,0.253
							c0.033,0.033,0.145,0.103,0.115,0.103c-0.016,0.007-0.031,0.011-0.045,0.013c-0.015,0.002-0.027,0.002-0.039,0l-0.018-0.005
							l-0.008-0.003l-0.003-0.002l0.177-0.207c0.608-0.697,1.246-1.371,1.912-2.019c0.333-0.324,0.673-0.642,1.02-0.953l0.262-0.232
							l0.132-0.115c-6.987,7.041-1.936,1.954-3.494,3.526l0.003,0.003l0.006,0.007l0.045,0.052c0.479,0.554,0.967,1.1,1.461,1.638
							c0.507,0.546,1.078,1.121,1.624,1.671c2.197,2.181,4.477,4.186,6.809,6.196c3.961,3.41,8.197,6.472,12.405,9.608
							C304.63,146.208,307.161,148.291,309.906,150.097z"/>
					</g>
				</g>
			</g>
		</g>
		<g>
			<g>
				<g>
					<path fill="#231F20" d="M254.395,281.699l-0.038-0.482C254.364,281.435,254.35,281.578,254.395,281.699z"/>
					<path fill="#231F20" d="M249.976,349.96l-0.11-0.17C249.88,349.921,249.926,349.957,249.976,349.96z"/>
					<path fill="#231F20" d="M257.206,369.309L257,369.732C257.112,369.537,257.17,369.408,257.206,369.309z"/>
					<g>
						<path fill="#231F20" d="M267.521,339.47c0.587-3.443,1.043-6.981,1.249-10.388c0.191-3.379,0.353-6.758,0.482-10.13
							c0.027-0.843,0.072-1.686,0.081-2.527l-0.04-2.522l-0.115-5.033c-0.055-1.675-0.108-3.347-0.162-5.018
							c-0.063-1.669-0.251-3.324-0.383-4.982c-1.009-13.684-3.511-26.96-5.114-40.535c-1.719-14.382-3.732-28.552-6.257-42.662
							c-1.27-7.09-2.26-14.085-3.002-21.089c-0.714-7.002-1.084-14.008-1.15-21.094c-0.055-6.803,0.281-13.657,0.406-20.512
							c0.179-3.434,0.48-6.874,0.778-10.308c0.158-1.717,0.322-3.433,0.521-5.149c0.227-1.72,0.474-3.439,0.747-5.155
							c0.625-3.663,1.246-7.299,1.87-10.956c0.298-1.812,0.517-11.07,0.323-12.893c-0.085-0.83-1.651,4.431-2.075,5.888
							c-1.372,4.797-3.332,12.132-4.149,15.948c-1.678,7.709-2.272,11.349-3.334,19.376c-0.312,2.067-0.435,4.158-0.619,6.235
							c-0.174,2.081-0.347,4.155-0.52,6.226c-0.427,4.134-0.522,8.301-0.649,12.457c-0.165,8.313,0.134,16.583,0.383,24.913
							c0.195,6.742,1.05,13.559,1.98,20.346c0.938,6.791,1.951,13.543,2.601,20.232c1.449,14.478,2.133,28.89,3.098,43.286
							c1.025,15.339,0.267,30.575-0.942,45.66c-0.626,7.215-1.822,14.382-3.861,21.2c-2.017,6.815-4.91,13.296-8.886,18.783
							c-4.639,6.396-10.782,11.252-17.94,13.668c-4.558,1.528-9.254,2.256-14.196,2.078c-4.906-0.154-9.894-1.027-14.65-2.609
							c-9.501-3.086-18.299-8.942-23.461-16.776c-1.188-1.754-2.081-3.635-2.81-5.542c-0.737-1.907-1.195-3.884-1.435-5.875
							c-0.144-1.033-0.194-1.901-0.168-2.804c0.01-0.448,0.017-0.896,0.081-1.338l0.064-0.665l0.119-0.658
							c0.311-1.753,0.889-3.466,1.705-5.122c3.329-6.64,10.375-12.131,18.165-15.329c2.073-0.845,4.404-1.545,6.805-2.015
							c1.196-0.185,2.42-0.436,3.616-0.448c0.617-0.021,1.175-0.112,1.849-0.106c0.675,0,1.35-0.001,2.021-0.001
							c5.532,0.09,12.376,0.573,17.691-1.415c2.597-1.075,3.043-2.47,2.814-3.585c0.211,0.886-3.236,1.043-6.404,0.179
							c-3.171-0.883-6.182-2.313-6.609-2.446c-1.278-0.437-2.566-0.856-3.929-1.221c-0.681-0.179-1.366-0.359-2.056-0.54
							c-0.698-0.164-1.419-0.295-2.139-0.439c-1.423-0.329-2.958-0.419-4.477-0.596c-1.52-0.097-3.047-0.109-4.557-0.049
							c-5.849,0.238-11.456,1.414-16.851,3.672c-5.358,2.289-10.608,5.688-14.965,11.038c-2.235,2.827-4.189,6.01-5.543,9.553
							c-1.351,3.532-2.164,7.388-2.169,11.269l0.004,1.453l0.099,1.445c0.051,0.992,0.211,1.847,0.336,2.757
							c0.113,0.902,0.302,1.791,0.507,2.677l0.301,1.331l0.381,1.307c1.023,3.486,2.505,6.817,4.335,9.889
							c3.667,6.163,8.681,11.198,14.198,15.216c5.536,4.028,11.647,7.04,18.053,9.145c2.721,0.906,5.502,1.631,8.331,2.157
							c2.824,0.544,5.694,0.911,8.6,1.047c2.904,0.141,5.836,0.122,8.786-0.201c2.937-0.304,5.938-0.86,8.778-1.663
							c2.855-0.836,5.683-1.847,8.381-3.17c2.693-1.323,5.286-2.858,7.708-4.615c2.407-1.774,4.653-3.733,6.724-5.833
							c2.066-2.105,3.92-4.367,5.632-6.699c4.077-5.597,7.246-11.763,9.684-18.128C264.631,352.685,266.37,346.102,267.521,339.47z"
							/>
					</g>
				</g>
			</g>
		</g>
	</g>
</g>
<g id="brushes" display="none">
	<g display="inline">
		<g>
			<rect x="300.415" y="7.814" fill="none" width="101.17" height="8.367"/>
			<g>
				<path fill="#231F20" d="M387.919,10.449c0.009-0.033,0.016-0.074,0.019-0.131C387.922,10.371,387.917,10.414,387.919,10.449z"/>
				<path fill="#231F20" d="M379.947,9.607l0.093-0.063C379.979,9.554,379.956,9.576,379.947,9.607z"/>
				<path fill="#231F20" d="M392.696,10.805c-0.007,0.011-0.007,0.019-0.012,0.031c0.074,0.006,0.174,0.014,0.336,0.023
					L392.696,10.805z"/>
				<path fill="#231F20" d="M362.941,8.66l0.106-0.004C363,8.654,362.969,8.641,362.941,8.66z"/>
				<path fill="#231F20" d="M373.02,9.293c-0.031,0.054-0.084,0.074-0.136,0.092C372.949,9.394,373.001,9.383,373.02,9.293z"/>
				<path fill="#231F20" d="M395.22,13.63l-0.136-0.191C395.086,13.521,395.135,13.607,395.22,13.63z"/>
				<path fill="#231F20" d="M400.065,12.859c-0.004-0.014-0.005-0.025-0.013-0.043C400.046,12.834,400.054,12.847,400.065,12.859z"
					/>
				<path fill="#231F20" d="M398.172,12.094c-0.041,0.017-0.088,0.05-0.136,0.083C398.094,12.171,398.167,12.171,398.172,12.094z"/>
				<path fill="#231F20" d="M397.972,12.225c0.021-0.016,0.043-0.032,0.064-0.047C398,12.184,397.971,12.191,397.972,12.225z"/>
				<path fill="#231F20" d="M301.175,9.6c-0.14-0.008-0.259,0.137-0.384,0.256L301.175,9.6z"/>
				<path fill="#231F20" d="M347.544,8.549l0.03-0.078C347.546,8.496,347.541,8.523,347.544,8.549z"/>
				<path fill="#231F20" d="M301.001,11.256l-0.099-0.039C300.938,11.248,300.971,11.258,301.001,11.256z"/>
				<path fill="#231F20" d="M392.653,14.139c-0.14,0.186-0.427-0.037-0.425,0.145C392.377,14.254,392.587,14.394,392.653,14.139z"/>
				<path fill="#231F20" d="M344.289,15.596l-0.092,0.01C344.241,15.607,344.269,15.604,344.289,15.596z"/>
				<path fill="#231F20" d="M301.001,11.256l0.114,0.045c-0.01-0.035-0.022-0.063-0.034-0.094
					C301.056,11.234,301.029,11.252,301.001,11.256z"/>
				<path fill="#231F20" d="M331.511,8.469c0.002,0,0.003,0,0.005,0c0.012-0.012,0.021-0.02,0.032-0.033L331.511,8.469z"/>
				<path fill="#231F20" d="M330.66,8.166c0.06-0.02,0.117-0.039,0.182-0.061C330.746,8.086,330.695,8.117,330.66,8.166z"/>
				<path fill="#231F20" d="M300.791,9.855l-0.22,0.146C300.65,9.98,300.722,9.921,300.791,9.855z"/>
				<path fill="#231F20" d="M321.492,8.439c0.029-0.006,0.058-0.012,0.084-0.023C321.54,8.414,321.513,8.421,321.492,8.439z"/>
				<path fill="#231F20" d="M373.666,9.402c0.021,0.018,0.049,0.027,0.074,0.041C373.748,9.4,373.743,9.369,373.666,9.402z"/>
				<polygon fill="#231F20" points="367.331,14.371 367.329,14.371 367.329,14.375 				"/>
				<path fill="#231F20" d="M367.669,14.14c-0.105-0.042-0.257,0.093-0.338,0.231C367.438,14.371,367.537,14.332,367.669,14.14z"/>
				<path fill="#231F20" d="M366.605,14.275c0.013,0.008,0.023,0.015,0.039,0.023C366.631,14.285,366.618,14.277,366.605,14.275z"/>
				<path fill="#231F20" d="M373.41,14.646c0-0.006,0.001-0.014,0-0.02c-0.002,0.007-0.003,0.011-0.004,0.018L373.41,14.646z"/>
				<path fill="#231F20" d="M372.063,14.677c-0.023-0.037-0.057-0.064-0.093-0.083C371.992,14.63,372.023,14.661,372.063,14.677z"/>
				<polygon fill="#231F20" points="363.25,14.803 363.251,14.794 363.244,14.797 				"/>
				<path fill="#231F20" d="M350.587,15.994c0.302,0.048,0.532,0.082,0.593,0.082c1.104-0.006,2.166-0.408,3.237-0.624
					c1.488-0.3,2.815,0.898,4.364,0.541c1.09-0.251,1.49-1.235,2.499-1.5c0.961-0.252,1.949,0.262,2.912,0.221
					c1.04-0.045,1.85-0.992,2.869-0.921c-0.072,0.202-0.047,0.482-0.144,0.686c0.503-0.298,0.978-0.729,1.598-0.505
					c0.416,0.151,0.51,0.877,0.988,0.323c0.571,0.34,1.125,0.895,1.854,0.731c0.087-1.097,1.558-0.628,2.229-0.68
					c0.549-0.042,1.007-0.361,1.565-0.367c0.709-0.006,1.092,0.13,1.83-0.051c0.876-0.215,1.372-0.208,2.208,0.129
					c0.85,0.343,1.042,0.5,1.819,0.041c0.754-0.445,0.633-0.346,1.469-0.284c1.125,0.083,2.246-0.039,3.37-0.073
					c0.741-0.023,1.488,0.115,2.228,0.047c1.578-0.144,2.682-0.841,3.995,0.426c0.798-1.008,3.152-0.864,4.323-0.679
					c1.126,0.179,3.408,1.14,4.293,0.003c-0.115-0.094-1.222-0.782-1.103-0.995c-0.045,0.08-0.099,0.217-0.122,0.303
					c-0.022-0.33-0.107-0.346,0.039-0.692c-0.393,0.095-0.779,0.222-1.157,0.363c-0.236-0.2-0.081-0.185-0.512-0.271
					c0.047-0.132,0.019-0.32,0.089-0.457c-0.088,0.104-0.173,0.168-0.309,0.177c-0.042-0.091-0.129-0.169-0.165-0.272
					c-0.032-0.001-0.541,0-0.54,0.011c-0.009-0.09-0.084-0.212-0.103-0.308c-0.117,0.349-0.56,0.493-0.818,0.137
					c-0.373,0.107-0.755,0.222-1.144,0.248c-0.036-0.217-0.178-0.323-0.163-0.526c-0.13,0.104-0.363,0.121-0.486,0.229
					c0.014-0.245-0.106-0.262,0.037-0.542c-0.111,0.092-0.27,0.107-0.388,0.209c-0.08-0.099-0.265-0.218-0.327-0.332
					c-0.027,0.08-0.054,0.159-0.077,0.24c-0.074,0.016-0.094-0.156-0.167-0.111c-0.432,0.394-0.577-0.216-1.072-0.057
					c-0.035,0.083-0.014,0.165-0.037,0.244c-0.044,0.007-0.088,0.009-0.133,0.004c-0.026-0.127-0.132-0.235-0.174-0.344
					c-0.001,0.058-0.016,0.112-0.045,0.162c-0.396-0.11-0.775,0.043-1.156,0c0.029-0.079,0.051-0.159,0.064-0.242
					c-0.394,0.001-0.788,0.109-1.16,0.232c-0.221-0.702-1.42-0.437-2.011-0.434c-0.008,0.055-0.018,0.109-0.028,0.163
					c-0.425-0.169-0.896,0.034-1.25-0.136c0.019-0.088,0.018-0.176-0.004-0.264c-0.217-0.058-0.555-0.094-0.782-0.046
					c0.021,0.058,0.046,0.115,0.071,0.171c-0.14,0.079-0.277,0.053-0.406,0.106c-0.042-0.075,0.068-0.082,0.021-0.162
					c-0.082-0.088-0.288-0.049-0.387-0.123c-0.027-0.008,0.119-0.105,0.12-0.095c-0.105,0.077-0.164,0.078-0.222,0.211
					c-0.122-0.074-0.329-0.089-0.467-0.17c0.158,0.268-0.007,0.014-0.047,0.349c-0.269-0.212-0.741,0.019-0.895-0.381
					c-0.263,0.061-0.577,0.021-0.746,0.002c-0.032-0.008-0.138,0.112-0.174,0.125c-0.048-0.085-0.185-0.19-0.254-0.262
					c-0.013,0.049,0.064,0.094,0.068,0.143c-0.104,0.03-0.361,0.012-0.444,0.055c-0.165-0.415-1.587-0.476-1.972-0.492
					c-0.002-0.068-0.004-0.136-0.006-0.205c-0.038,0.105-0.139,0.229-0.164,0.33c-0.051-0.065-0.091-0.136-0.119-0.214
					c-0.212-0.041-0.579-0.316-0.903-0.405c0.152,1.023-2.07,0.225-2.597,0.238c-0.05-0.031-0.038-0.19-0.055-0.242
					c-0.112,0.071-0.233,0.157-0.326,0.254c0.001-0.074-0.001-0.213-0.018-0.29c-0.221,0.274-0.358,0.288-0.657,0.308
					c0.05-0.039,0.153-0.096,0.19-0.148c-0.742,0.204-1.579,0.37-2.341,0.202c0.002-0.083,0.068-0.079,0.073-0.152
					c-0.089-0.048-0.188,0.027-0.279-0.013c0.027-0.059,0.037-0.121,0.029-0.185c-0.187-0.04-0.529-0.091-0.722-0.079
					c-0.045,0.067-0.091,0.134-0.136,0.201c-0.307-0.078-0.65-0.067-0.959-0.015c0.035-0.038,0.075-0.07,0.12-0.096
					c-0.142,0.047-0.273,0.081-0.406,0.158c-0.042-0.028,0.027-0.114-0.02-0.119c-0.645,0.237-0.93,0.049-1.562-0.001
					c-0.017,0.073,0.065,0.091,0.059,0.16c-0.277,0.005-0.257-0.03-0.413-0.164c-0.022-0.036-0.163,0.012-0.208-0.016
					c0.022-0.073,0.053-0.143,0.09-0.208c-0.401,0.713-2.102,0.021-2.597-0.4c-0.965,0.608-2.557-0.188-3.567-0.18
					c-0.477,0.004-0.872,0.273-1.438,0.256c-0.656-0.02-1.244-0.049-1.906,0.011c-1.12,0.101-2.233,0.266-3.305-0.01
					c-0.354-0.091-0.83-0.44-1.146-0.473c-0.197-0.02-0.573,0.187-0.82,0.194c-0.319,0.011-0.62-0.128-0.934-0.152
					c-0.793-0.06-1.484,0.171-2.254,0.314c-0.857,0.16-1.397-0.22-2.105-0.177c0.022,0.056,0.047,0.11,0.071,0.165
					c-0.307-0.093-0.659-0.13-0.93,0.098c-0.047-0.099-0.133-0.182-0.185-0.273c-0.169,0.139-0.429,0.19-0.581,0.376
					c-0.257-0.317-0.762-0.256-1.175-0.281c0.028,0.379,0.036,0.212-0.267,0.417c-0.025-0.158-0.15-0.321-0.16-0.49
					c0.022,0.385-0.244,0.541-0.614,0.44c-0.138-0.424-0.811-0.515-1.001,0.005c-0.042-0.082-0.107-0.183-0.138-0.27
					c-0.542-0.048-1.51,0.18-1.912-0.151c-0.063,0.162-0.236,0.287-0.296,0.426c-0.05-0.148-0.17-0.286-0.213-0.449
					c-0.01,0.151-0.127,0.304-0.154,0.434c-1.189-0.278-2.444-0.377-3.661-0.5c-1.074-0.108-1.983,0.254-2.993-0.038
					c0.146,0.055,0.257,0.155,0.387,0.224c-0.467,0.299-1.003-0.055-1.512-0.103c-0.53-0.051-1.065,0.101-1.594,0.053
					c-0.959-0.086-1.249-0.117-2.279,0.296c-0.281-0.208-0.206-0.262-0.467-0.038c-0.087-0.114-0.299-0.185-0.394-0.293
					c-0.07,0.079-0.187,0.139-0.255,0.226c-0.494-0.723-2.338-0.524-3.15-0.496c-0.589,0.021-2.374,0.485-2.655,0.074
					c-0.363,0.36-1.878,0.533-1.982-0.042c-0.258,0.144-1.083-0.159-1.507-0.182c-3.34-0.185-6.688-0.299-10.029-0.106
					c-2.36,0.136-5.553,0.187-7.531,1.687c-0.122,0.248-0.459,0.41-0.33,0.707c-0.26,0.094-0.379-0.347-0.43-0.098
					c0.354,0.166-0.109,0.646,0.236,0.957l-0.222,0.061c-0.046,0.178,0.302-0.202,0.247,0.121l0.063-0.466
					c0.18,0.07,0.278,0.168,0.342,0.326c0.169-0.182,0.276-0.814,0.68-0.539l-0.111,0.028c0.328-0.017,0.201,0.301,0.27,0.377
					l-0.072-0.004l0.276,0.235c-0.209-0.157-0.556,0.222-0.374,0.195c0.392,0.13-0.102-0.113,0.192-0.17
					c0.182-0.024,0.131,0.225,0.123,0.37l0.327-0.018c-0.012,0.217-0.217-0.012-0.084,0.212l0.412-0.23
					c0.077,0.549,0.449-0.264,0.638,0.253c-0.297,0.129,0.026,0.184-0.021,0.362l0.728-0.031c0.068,0.076-0.191,0.169-0.081,0.142
					c0.137,0.151,0.225-0.134,0.298-0.13c0.063,0.15,0.543-0.006,0.523,0.357c0.493,0.244,0.207-0.461,0.667-0.254
					c0.061,0.221-0.365,0.053-0.161,0.281l0.477-0.082c-0.043,0.107-0.093,0.358-0.271,0.311c1.289,0.291,1.984,1.454,3.162,1.158
					c0.166,0.263-0.119,0.176-0.237,0.35c0.313-0.46,1.585,0.518,1.902,0.544c0.025-0.065,0.034-0.146,0.059-0.199
					c1.002,0.616,2.227,0.306,3.327,0.525c-0.019-0.064-0.093-0.075-0.091-0.156c0.146-0.14,0.358-0.267,0.565-0.298
					c0.037,0.23,0.14,0.258,0.178,0.353c-0.048-0.088-0.095-0.143-0.121-0.235c0.234,0.821,4.521,0.642,5.213,0.66
					c2.015,0.053,4.057,0.404,6.066,0.122c-0.021-0.205,0.049-0.19,0.079-0.366c1.072,0.896,4.207,0.648,5.444,0.325
					c0.377-0.098,1.363,0.54,1.704-0.101c0.96,0.057,1.977,0.032,3.045,0.03c0.862-0.002,3.49,0.771,3.962-0.066
					c0.264,0.169,0.562,0.238,0.865,0.19c-0.07-0.041-0.152-0.036-0.217-0.081c0.005-0.024,0-0.177-0.013-0.195
					c0.131-0.074,0.3-0.093,0.451-0.099c0.285,1.164,2.245-0.213,2.98,0.526c0.027-0.341,0.16-0.437,0.369-0.642
					c0.236,1.406,2.768-0.205,3.119,0.527c0.303-0.108,0.181-0.049,0.47-0.006c-0.08,0.07-0.186,0.156-0.259,0.236
					c0.285-0.174,0.614-0.256,0.925-0.132c-0.015-0.051-0.02-0.102-0.014-0.155C348.457,15.637,349.779,15.866,350.587,15.994z"/>
				<path fill="#231F20" d="M373.585,14.691l-0.175-0.045c0,0.065-0.008,0.139-0.088,0.21L373.585,14.691z"/>
				<path fill="#231F20" d="M365.313,14.505c-0.021,0.023-0.043,0.044-0.063,0.079C365.293,14.572,365.308,14.539,365.313,14.505z"
					/>
				<path fill="#231F20" d="M363.305,15.018c0.144-0.063,0.016-0.141-0.055-0.215C363.246,14.861,363.25,14.932,363.305,15.018z"/>
				<path fill="#231F20" d="M378.271,13.921c-0.03,0.028-0.049,0.066-0.044,0.127C378.268,13.996,378.276,13.957,378.271,13.921z"/>
				<path fill="#231F20" d="M391.221,14.134c-0.017-0.015-0.031-0.023-0.052-0.044C391.179,14.111,391.197,14.125,391.221,14.134z"
					/>
				<path fill="#231F20" d="M390.503,13.677c-0.035-0.001-0.081,0.008-0.146,0.042C390.421,13.734,390.467,13.711,390.503,13.677z"
					/>
				<path fill="#231F20" d="M375.131,14.027c-0.048,0.01-0.095,0.031-0.136,0.092C375.069,14.113,375.106,14.072,375.131,14.027z"/>
				<path fill="#231F20" d="M390.208,13.783l-0.181-0.031c-0.001,0.02-0.003,0.033-0.003,0.057L390.208,13.783z"/>
				<path fill="#231F20" d="M391.448,14.17c-0.071-0.01-0.167-0.01-0.228-0.036C391.311,14.213,391.382,14.215,391.448,14.17z"/>
				<path fill="#231F20" d="M383.024,13.55c-0.006,0.005-0.013,0.004-0.02,0.007C382.864,13.682,382.952,13.629,383.024,13.55z"/>
				<path fill="#231F20" d="M389.418,14.281c-0.008-0.004-0.017-0.008-0.024-0.012l-0.053,0.08L389.418,14.281z"/>
				<path fill="#231F20" d="M392.229,14.283c-0.034,0.007-0.065,0.02-0.09,0.053c0.027,0.011,0.061,0.021,0.103,0.033
					C392.231,14.332,392.229,14.307,392.229,14.283z"/>
				<path fill="#231F20" d="M385.735,14c0.051-0.108,0.07-0.182,0.072-0.237C385.747,13.767,385.709,13.816,385.735,14z"/>
			</g>
		</g>
	</g>
</g>
</svg>
