<?xml version="1.0" encoding="utf-8"?>
<!-- Generator: Adobe Illustrator 16.0.0, SVG Export Plug-In . SVG Version: 6.00 Build 0)  -->
<!DOCTYPE svg PUBLIC "-//W3C//DTD SVG 1.1//EN" "http://www.w3.org/Graphics/SVG/1.1/DTD/svg11.dtd">
<svg version="1.1" id="Layer_1" xmlns="http://www.w3.org/2000/svg" xmlns:xlink="http://www.w3.org/1999/xlink" x="0px" y="0px"
	 width="500px" height="500px" viewBox="0 0 500 500" enable-background="new 0 0 500 500" xml:space="preserve">
<g>
	<g>
		<g>
			<g>
				<path fill="#231F20" d="M158.774,264.015l-0.377,0.016C158.566,264.031,158.678,264.055,158.774,264.015z"/>
				<path fill="#231F20" d="M213.645,262.776l-0.103,0.161C213.641,262.881,213.657,262.826,213.645,262.776z"/>
				<path fill="#231F20" d="M224.663,248.273l0.326-0.034C224.832,248.241,224.735,248.254,224.663,248.273z"/>
				<g>
					<path fill="#231F20" d="M202.292,248.416c-10.02,0.293-20.113,0.765-30.067,1.828c-10.251,1.071-20.542,2.582-30.993,2.949
						c-11.087,0.253-22.093,0.883-33.138,1.907c-11.137,1.063-21.865,1.488-32.942,1.915c-5.324,0.207-10.704,0.729-16.032,1.214
						c-2.67,0.241-5.339,0.471-8.013,0.643c-2.682,0.146-5.364,0.29-8.051,0.436c-2.88,0.111-5.749,0.127-8.633,0.206
						c-0.354,0.009-1.06,0.108-1.938,0.26c-0.438,0.08-0.921,0.169-1.425,0.261c-0.421,0.083-0.86,0.17-1.299,0.256
						c-0.397,0.109-0.762,0.13-1.123,0.167c-0.365,0.069-0.717,0.032-1.048,0.036c-0.326,0.02-0.646-0.022-0.917-0.054
						c-0.27-0.026-0.492-0.038-0.644-0.035c-0.278-0.008,0.301,0.517,1.124,1.049c0.805,0.508,1.923,0.905,2.451,0.994
						c0.815,0.185,1.935,0.311,3.076,0.429c1.138,0.114,2.326,0.233,3.489,0.351c2.322,0.214,4.533,0.378,6.03,0.418
						c6.048,0.101,8.885,0.391,15.075,0.275c12.77-0.163,25.263-0.509,38.026,0.16c10.25,0.565,20.891-0.635,31.22-0.636l4.19,0.017
						l4.198,0.142l8.395,0.293c5.597,0.172,11.197,0.27,16.816,0.12c11.961-0.335,24.01,0.276,36.043-0.169
						c11.862-0.579,23.704-1.156,35.575-1.734l10.339-0.366c3.447-0.102,6.892-0.227,10.344-0.212
						c17.435-0.065,34.823-0.801,52.214-1.072c7.866-0.126,15.627,0.104,23.393,0.26c7.765,0.173,15.549,0.172,23.418-0.034
						c8.334-0.255,19.318-0.136,26.379-2.453c1.73-0.604,2.378-1.858,2.493-2.999c-0.099,0.936-2.321,0.265-4.639-0.672
						c-2.313-0.929-4.733-2.16-5.067-2.23c-4.005-1.238-8.509-1.945-12.79-2.699c-8.321-1.591-15.74-3.439-24.547-3.662
						c-18.446-0.521-36.763,0.066-55.228,0.47c-7.85,0.198-15.695,0.396-23.541,0.594l-5.885,0.151l-5.886,0.245l-11.776,0.438
						C221.531,248.197,211.915,248.189,202.292,248.416z"/>
				</g>
			</g>
		</g>
	</g>
	<g>
		<g>
			<g>
				<path fill="#231F20" d="M170.523,236.997l-0.299,0.019C170.359,237.016,170.448,237.038,170.523,236.997z"/>
				<path fill="#231F20" d="M213.77,236.858l-0.084,0.157C213.765,236.963,213.779,236.908,213.77,236.858z"/>
				<path fill="#231F20" d="M222.793,222.761l0.261-0.021C222.929,222.736,222.852,222.745,222.793,222.761z"/>
				<g>
					<path fill="#231F20" d="M205.076,222.122c-1.985-0.026-3.971-0.023-5.956,0.007c-1.989,0.032-4.032,0.108-6.042,0.205
						c-4.034,0.197-8.054,0.511-12.044,0.945c-4.124,0.396-8.162,1.121-12.234,1.698c-4.069,0.585-8.154,1.081-12.291,1.293
						c-8.763,0.443-17.456,0.654-26.187,1.486c-4.392,0.419-8.725,0.669-13.063,0.836c-2.17,0.066-4.34,0.132-6.519,0.198
						c-2.182,0.07-4.358,0.046-6.583,0.195c-4.278,0.22-8.525,0.767-12.763,1.27c-4.244,0.497-8.393,1.022-12.635,1.092
						c-2.259,0.039-4.501-0.015-6.761-0.011c-0.594-0.012-2.23,0.34-3.539,0.557c-1.322,0.23-2.427,0.191-2.869,0.234
						c-0.19,0.016,0.122,0.464,0.716,0.923c0.573,0.478,1.496,0.832,1.906,0.979c1.335,0.483,3.304,0.784,5.135,1.064
						c1.837,0.271,3.595,0.487,4.787,0.563c4.823,0.312,7.082,0.429,11.995,0.289c5.051-0.106,10.029-0.25,14.988-0.287
						c4.977,0.047,9.973,0.335,14.996,0.805c8.126,0.784,16.594-0.195,24.801,0.023c8.888,0.236,17.758,0.866,26.674,0.506
						c2.367-0.074,4.754-0.186,7.102-0.103l7.06,0.215c4.717,0.162,9.375,0.3,14.14,0.233c9.413-0.116,18.925-0.476,28.174-0.466
						c5.438,0.021,10.855,0.023,16.305,0.223c6.893,0.274,13.777,0.385,20.665,0.468c6.921,0.089,13.839,0.15,20.758,0.318
						c12.529,0.164,24.941,1.6,37.172,1.238c1.64-0.054,3.424-0.112,5.264-0.172c1.869-0.052,3.797-0.14,5.691-0.313
						c3.79-0.348,7.452-1.039,10.27-2.473c1.369-0.698,1.81-1.986,1.834-3.131c-0.044,1.879-7.277-2.199-7.803-2.394
						c-3.186-1.181-6.714-1.745-10.076-2.578c-6.539-1.52-12.511-3.52-19.505-3.993c-7.237-0.475-14.428-0.646-21.637-0.74
						c-7.241-0.191-14.487-0.269-21.769-0.402l-18.667-0.242l-4.669-0.051l-4.693,0.013l-9.389-0.034
						C220.278,222.535,212.688,222.223,205.076,222.122z"/>
				</g>
			</g>
		</g>
	</g>
	<g>
		<g>
			<g>
				<path fill="#231F20" d="M378.862,222.379l-0.159-0.031C378.772,222.37,378.813,222.406,378.862,222.379z"/>
				<path fill="#231F20" d="M401.496,228.222l-0.083,0.141C401.468,228.322,401.488,228.271,401.496,228.222z"/>
				<path fill="#231F20" d="M409.771,215.754l0.141,0.014C409.848,215.747,409.805,215.746,409.771,215.754z"/>
				<g>
					<path fill="#231F20" d="M400.569,212.801c-4.184-1.151-8.479-1.866-12.842-2.103c-4.493-0.244-9.05-0.053-13.431-0.999
						c-2.313-0.525-4.616-1.047-6.919-1.569c-2.272-0.518-4.519-0.997-6.84-1.325c-1.165-0.165-2.313-0.369-3.449-0.601
						c-1.135-0.244-2.243-0.578-3.354-0.898c-2.218-0.657-4.412-1.394-6.638-2.143c-2.133-0.769-4.349-1.274-6.563-1.796
						c-2.214-0.525-4.42-1.087-6.459-2.139c-1.092-0.55-2.141-1.186-3.216-1.765c-0.527-0.285-3.645-0.523-4.341-0.352
						c-0.316,0.077,0.999,1.572,1.372,1.976c1.22,1.324,3.172,3.193,4.258,3.956c1.098,0.771,1.906,1.334,2.742,1.847
						c0.846,0.488,1.72,0.926,2.945,1.463c2.537,1.114,5.041,2.213,7.539,3.311c2.515,1.076,4.996,2.253,7.44,3.685
						c0.495,0.29,1.001,0.554,1.516,0.798c0.521,0.227,1.055,0.427,1.592,0.616c1.077,0.377,2.179,0.694,3.287,0.995
						c2.208,0.594,4.478,1.154,6.568,1.932c4.528,1.684,8.947,3.745,13.636,4.856c4.99,1.181,9.751,3.213,14.753,4.337
						c4.931,1.109,9.912,1.99,14.82,3.212c2.861,0.729,5.7,1.561,8.527,2.424c7.14,2.196,14.429,3.755,21.613,5.73
						c6.498,1.788,12.447,4.891,19.128,6.119c0.942,0.181,1.519,0.289,2.556,0.513c0.509,0.096,1.026,0.194,1.545,0.292
						c0.521,0.09,1.146,0.174,1.755,0.231c1.222,0.111,2.583,0.118,3.916-0.139c0.639-0.104,1.315-0.318,1.923-0.571
						c0.305-0.127,0.595-0.266,0.87-0.418c0.281-0.167,0.552-0.358,0.801-0.555c0.976-0.776,1.083-2.087,0.962-3.225
						c0.118,0.911-1.156,0.549-2.213-0.285c-1.085-0.797-1.898-2.024-2.016-2.121c-1.424-1.39-2.93-2.385-4.5-3.662
						c-0.711-0.61-1.592-1.273-2.302-1.872c-0.725-0.599-1.44-1.194-2.172-1.76c-1.464-1.131-2.988-2.146-4.753-2.834
						c-7.397-2.885-15.03-4.663-22.677-6.675c-6.502-1.707-13.041-3.236-19.522-5.033
						C408.542,215.218,404.58,213.906,400.569,212.801z"/>
				</g>
			</g>
		</g>
	</g>
	<g>
		<g>
			<g>
				<path fill="#231F20" d="M384.961,287.834l-0.163,0.061C384.874,287.875,384.931,287.884,384.961,287.834z"/>
				<path fill="#231F20" d="M408.495,278.018l0.024,0.162C408.538,278.112,408.521,278.06,408.495,278.018z"/>
				<path fill="#231F20" d="M407.025,263.054l0.123-0.083C407.083,262.997,407.048,263.024,407.025,263.054z"/>
				<g>
					<path fill="#231F20" d="M397.717,266.818c-2.035,0.905-4.022,1.919-5.944,2.907c-0.963,0.512-1.914,1.05-2.854,1.616
						l-1.402,0.87l-1.392,0.82c-1.917,1.146-3.743,2.452-5.754,3.601c-1.999,1.127-4.168,2.186-6.489,3.098l-1.865,0.759
						c-0.62,0.242-1.242,0.495-1.87,0.82l-1.873,0.918l-0.932,0.464l-0.854,0.492c-2.272,1.319-4.281,2.674-6.174,3.92
						c-0.953,0.633-1.909,1.146-2.876,1.577c-0.484,0.209-0.972,0.363-1.46,0.544c-0.531,0.158-1.119,0.293-1.679,0.433
						c-1.133,0.274-2.248,0.538-3.498,0.754c-1.231,0.235-2.409,0.411-3.737,0.704c-0.627,0.13-1.249,0.28-1.865,0.444
						c-0.615,0.157-1.229,0.337-1.858,0.608c-1.225,0.496-2.521,1.035-3.634,1.554c-2.064,1.062-4.158,1.963-6.344,2.218
						c-1.165,0.133-2.322,0.102-3.455,0.061c-0.275,0.019-1.088,0.237-1.923,0.56c-0.839,0.274-1.712,0.581-2.003,0.788
						c-0.28,0.182,1.455,1.123,1.98,1.366c1.635,0.769,4.403,1.474,5.845,1.485c2.88,0.025,4.263-0.135,7.035-0.921
						c1.472-0.48,2.715-0.712,4.024-1.046l0.969-0.229l1.022-0.146l2.038-0.269c1.349-0.169,2.827-0.259,4.246-0.333
						c1.452-0.083,3-0.196,4.548-0.218c0.631-0.015,1.356-0.158,2.034-0.277c0.692-0.128,1.329-0.347,1.994-0.549
						c1.294-0.439,2.509-1,3.655-1.593c2.286-1.186,4.302-2.474,6.319-3.269c4.06-1.605,8.802-1.909,13.877-3.707
						c2.646-1.031,5.417-1.791,8.096-2.69c2.627-0.952,5.327-1.868,7.813-3.091c2.428-1.215,4.882-2.471,7.239-3.733l3.55-1.875
						c1.189-0.619,2.387-1.23,3.549-1.75l4.127-1.85l2.075-0.895l2.137-0.807c1.803-0.672,3.587-1.38,5.36-2.11l5.401-2.143
						c3.569-1.461,7.258-2.879,10.919-4.235c6.69-2.469,13.775-3.516,20.363-6.904c3.479-1.69,8.289-4.114,9.91-8.188
						c0.394-0.991,0.031-2.254-0.478-3.281c0.818,1.692-4.685-0.042-5.012-0.091c-2.126-0.246-4.093,0.218-6.166,0.237
						c-3.99,0.093-7.692-0.393-11.5,0.602c-7.896,2.172-15.552,5.167-23.403,8.238l-4.999,1.987l-4.992,2.146
						c-3.335,1.375-6.64,3.001-9.992,4.469c-1.948,0.853-3.931,1.72-5.93,2.594C401.674,265.118,399.694,265.969,397.717,266.818z"
						/>
				</g>
			</g>
		</g>
	</g>
	<g>
		<g>
			<g>
				<path fill="#231F20" d="M343.414,287.664l-0.017,0.038C343.412,287.69,343.438,287.695,343.414,287.664z"/>
				<path fill="#231F20" d="M346.886,283.031l0.126,0.096C346.973,283.089,346.928,283.058,346.886,283.031z"/>
				<path fill="#231F20" d="M335.681,274.387v-0.037C335.668,274.359,335.671,274.372,335.681,274.387z"/>
				<g>
					<path fill="#231F20" d="M333.98,275.799c-0.616,0.69-0.854,1.629-0.709,2.859c0.074,0.634,0.235,1.336,0.318,1.994
						c0.021,0.163,0.037,0.328,0.046,0.48c0.01,0.134,0.013,0.264,0.005,0.388c-0.016,0.248-0.07,0.473-0.183,0.653
						c-0.481,0.766-1.068,1.381-1.488,2.479c-0.357,1.096-1.162,1.705-2.115,2.428c-0.445,0.336-0.66,0.905-0.901,1.438
						c-0.244,0.538-0.512,1.132-1.09,1.396c-0.312,0.147-0.695,0.235-1.038,0.37c-0.173,0.07-0.024,1.211,0.2,1.565
						c0.101,0.161,1.134,0.412,1.403,0.482c0.897,0.213,2.09,0.483,2.527,0.496c0.894,0.021,1.274,0.037,1.82-0.23
						c0.612-0.267,1.186-0.555,1.829-0.762c0.648-0.214,1.332-0.31,2.282-0.317c0.755,0.006,1.222-0.319,1.638-0.692
						c0.417-0.378,0.778-0.771,1.368-1.097c0.635-0.318,1.354-0.589,2.029-0.927c0.337-0.169,0.661-0.354,0.955-0.567
						c0.301-0.216,0.469-0.413,0.642-0.671c0.68-1.071,2.081-1.64,2.72-2.758c0.655-1.105,1.002-2.309,1.648-3.325
						c0.38-0.595,0.809-1.157,1.288-1.689c1.235-1.373,1.795-2.957,2.776-4.378c0.438-0.626,1.171-1.097,1.838-1.528
						c0.666-0.435,1.266-0.902,1.456-1.658c0.204-0.805,0.692-1.73-1.4-4.002c-0.509-0.553-1.544-1.338-2.483-1.994
						c1.544,1.072-2.167-0.402-2.359-0.443c-1.136-0.289-1.784-0.183-2.65-0.244c-1.68-0.119-3.722-0.539-4.593-0.005
						c-1.826,1.123-2.542,2.772-3.537,4.354c-0.843,1.365-1.438,2.673-2.349,3.901C335.332,274.496,334.575,275.168,333.98,275.799z
						"/>
				</g>
			</g>
		</g>
	</g>
	<g>
		<g>
			<g>
				<path fill="#231F20" d="M338.922,211.864l0.029,0.013C338.943,211.864,338.952,211.838,338.922,211.864z"/>
				<path fill="#231F20" d="M335.484,208.861l0.105-0.117C335.55,208.78,335.515,208.821,335.484,208.861z"/>
				<path fill="#231F20" d="M325.914,219.25l-0.035-0.001C325.887,219.261,325.898,219.259,325.914,219.25z"/>
				<g>
					<path fill="#231F20" d="M327.007,220.962c0.622,0.631,1.527,0.911,2.716,0.803c1.224-0.11,2.699-0.576,3.518-0.136
						c0.854,0.473,1.566,1.125,2.647,1.281c1.109,0.146,1.817,0.796,2.543,1.482c0.685,0.675,2.167,0.205,2.729,1.137
						c0.15,0.253,0.254,0.586,0.392,0.87c0.071,0.142,1.059-0.264,1.359-0.551c0.136-0.13,0.29-1.144,0.331-1.41
						c0.125-0.881,0.262-2.058,0.229-2.475c-0.069-0.844-0.1-1.217-0.402-1.672c-0.614-0.942-1.283-1.827-1.353-3.478
						c-0.049-1.322-1.154-1.313-1.534-2.23c-0.411-0.999-0.563-2.27-1.329-2.813c-0.818-0.575-1.087-1.838-1.938-2.365
						c-0.838-0.518-1.835-0.887-2.608-1.511c-0.453-0.367-0.869-0.779-1.249-1.237c-0.98-1.173-2.347-1.829-3.484-2.83
						c-1.057-0.911-1.144-2.901-2.645-3.375c-0.783-0.244-1.699-0.798-3.953,1.262c-0.548,0.502-1.338,1.531-2.004,2.463
						c1.099-1.526-0.546,2.124-0.617,2.299c-0.379,1.099-0.369,1.707-0.541,2.522c-0.332,1.583-1.05,3.452-0.744,4.251
						c0.634,1.647,1.94,2.378,3.162,3.363c1.025,0.822,2.187,1.484,3.167,2.419C325.979,219.59,326.427,220.359,327.007,220.962z"/>
				</g>
			</g>
		</g>
	</g>
</g>
<g>
	<g>
		<g>
			<path fill="#231F20" d="M280.779,302.72l-0.086,0.47C280.74,302.98,280.792,302.849,280.779,302.72z"/>
			<path fill="#231F20" d="M286.09,234.009l0.167,0.125C286.194,234.01,286.139,233.992,286.09,234.009z"/>
			<path fill="#231F20" d="M270.593,221.419l-0.068-0.38C270.542,221.223,270.565,221.335,270.593,221.419z"/>
			<g>
				<path fill="#231F20" d="M271.948,247.949c0.003,11.96-0.529,23.939-1.444,35.87c-0.963,12.271-2.349,24.633-5.923,36.738
					c-3.761,12.816-8.668,25.128-14.021,37.35c-2.752,6.129-5.695,12.093-9.147,17.629c-3.451,5.563-7.33,10.859-11.706,15.856
					c-8.373,9.63-17.288,19.042-28.078,26.307c-1.459,0.934-2.913,1.865-4.366,2.795c-1.478,0.896-2.955,1.79-4.436,2.687
					c-0.719,0.451-2.775,2.003-4.785,3.628c-2.032,1.597-4.046,3.231-4.649,3.853c-0.554,0.564,4.229-1.335,5.559-1.881
					c4.325-1.809,10.835-4.899,14.007-6.813c1.629-0.926,2.987-1.812,4.269-2.597c1.283-0.785,2.437-1.544,3.574-2.338
					c2.303-1.549,4.536-3.24,7.535-5.662c12.32-10.125,22.744-21.954,31.934-35.084c7.328-10.681,12.457-23.139,17.559-35.07
					c5.528-12.916,10.439-26.213,13.313-40.155c3.033-14.797,5.681-29.763,5.942-45.005c0.25-15.014-1.151-29.989-3.907-44.833
					c-0.388-2.17-0.75-4.349-1.28-6.47c-0.502-2.128-0.938-4.29-1.501-6.388c-0.548-2.107-1.047-4.23-1.626-6.328l-1.747-6.288
					c-6.187-21.101-15.095-41.243-26.044-60.357c-4.974-8.633-10.107-17.094-16.072-25.142l-2.254-3.017l-2.529-3.057l-2.678-2.912
					c-0.912-0.95-1.868-1.847-2.809-2.767c-3.828-3.593-7.967-6.792-12.32-9.611c-4.604-2.995-10.141-6.188-15.698-8.647
					c-5.558-2.462-11.095-4.244-15.676-4.733c-2.229-0.232-3.362,0.671-3.849,1.708c0.398-0.844,2.776,0.798,5.107,2.761
					c2.336,1.954,4.604,4.213,4.924,4.484c3.947,3.203,8.523,6.19,12.536,9.498c3.882,3.2,7.271,6.515,10.483,9.929
					c3.21,3.422,6.247,6.93,9.362,10.712l1.2,1.501l0.602,0.749l0.6,0.818l2.411,3.257c0.823,1.065,1.579,2.193,2.348,3.307
					l2.317,3.331c1.47,2.283,2.981,4.532,4.418,6.837l2.125,3.482l1.067,1.738l1.015,1.775c5.473,9.426,10.425,19.226,14.784,29.357
					c3.689,8.617,7.014,17.401,9.883,26.322c0.745,2.223,1.409,4.467,2.062,6.715c0.325,1.124,0.67,2.244,0.979,3.372l0.893,3.391
					c0.292,1.13,0.606,2.261,0.878,3.392l0.783,3.393c0.247,1.132,0.552,2.261,0.749,3.396l0.59,3.407
					C271.157,224.985,272.007,236.494,271.948,247.949z"/>
			</g>
		</g>
	</g>
</g>
</svg>
