<?xml version="1.0" encoding="utf-8"?>
<!-- Generator: Adobe Illustrator 16.0.0, SVG Export Plug-In . SVG Version: 6.00 Build 0)  -->
<!DOCTYPE svg PUBLIC "-//W3C//DTD SVG 1.1//EN" "http://www.w3.org/Graphics/SVG/1.1/DTD/svg11.dtd">
<svg version="1.1" id="Layer_1" xmlns="http://www.w3.org/2000/svg" xmlns:xlink="http://www.w3.org/1999/xlink" x="0px" y="0px"
	 width="500px" height="500px" viewBox="0 0 500 500" enable-background="new 0 0 500 500" xml:space="preserve">
<g>
	<g>
		<g>
			<path fill="#231F20" d="M106.201,287.131l-0.223,0.032C106.08,287.17,106.148,287.229,106.201,287.131z"/>
			<path fill="#231F20" d="M138.601,285.942l-0.043,0.396C138.61,286.203,138.613,286.066,138.601,285.942z"/>
			<path fill="#231F20" d="M143.648,250.464l0.193-0.059C143.747,250.396,143.689,250.42,143.648,250.464z"/>
			<g>
				<path fill="#231F20" d="M130.244,249.479c-5.96,0.045-11.865,1.215-17.65,3.581c-5.959,2.42-11.825,6-17.966,6.598
					c-6.503,0.629-12.974,0.683-19.424,2.285c-3.248,0.81-6.454,1.188-9.695,1.386c-3.252,0.212-6.515,0.214-9.83,0.212
					c-6.399-0.006-12.555,3.264-18.985,2.361c-1.719-0.259-3.442-0.713-5.167-1.006c-0.85-0.147-4.892,2.308-5.631,3.371
					c-0.336,0.481,2.29,2.657,3.013,3.228c2.383,1.884,5.974,4.271,7.788,5.041c3.671,1.508,5.372,2.172,9.049,2.543
					c7.594,0.778,14.952,1.124,22.521,4.051c6.165,2.398,12.446,0.413,18.632,1.403c6.7,1.071,13.439,3.145,20.104,2.631
					c7.093-0.521,14.272,1.161,21.361,0.497c3.493-0.327,6.976-0.799,10.46-1.235c3.475-0.427,6.875-0.74,10.335-0.879
					c4.025-0.15,8.057-0.156,12.089-0.015c5.094,0.179,10.165-0.051,15.235-0.351l3.803-0.233l3.833-0.146
					c2.569-0.095,5.093-0.144,7.614-0.123c2.296,0.006,4.526,0.277,6.754,0.626c2.241,0.335,4.418,0.815,6.595,1.242
					c2.192,0.406,4.327,0.836,6.472,1.085c2.163,0.223,4.286,0.346,6.449,0.163c4.654-0.441,10.509-0.044,15.397-6.929
					c1.195-1.685,1.981-4.854,2.409-7.686c-0.356,2.323-1.467,0.9-2.594-1.176c-1.12-2.075-2.279-4.805-2.454-5.058
					c-2.085-3.063-4.68-4.451-7.13-6.598c-2.375-2.03-4.648-4.268-7.04-6.23c-2.379-1.924-4.844-3.467-7.579-4.111
					c-2.833-0.617-5.68-1.051-8.504-1.335c-2.794-0.252-5.638-0.416-8.395-0.442c-2.768-0.036-5.553-0.006-8.271,0.068l-4.104,0.108
					l-4.143,0.183c-9.405,0.369-18.779,1.261-28.192,1.342c-2.815,0.021-5.686-0.11-8.583-0.251
					C135.957,249.565,133.105,249.463,130.244,249.479z"/>
			</g>
		</g>
	</g>
</g>
<g>
	<g>
		<g>
			<path fill="#231F20" d="M99.366,217.788l-0.216,0.017C99.247,217.818,99.309,217.882,99.366,217.788z"/>
			<path fill="#231F20" d="M130.633,218.635l-0.062,0.394C130.629,218.896,130.639,218.759,130.633,218.635z"/>
			<path fill="#231F20" d="M137.086,183.361l0.182-0.052C137.181,183.297,137.127,183.319,137.086,183.361z"/>
			<g>
				<path fill="#231F20" d="M124.568,181.814c-5.648-0.3-11.341,0.427-16.983,2.411c-5.815,2.029-11.626,5.154-17.523,5.407
					c-6.269,0.21-12.471-0.151-18.75,1.033c-6.325,1.205-12.4,0.709-18.724,0.27c-6.091-0.441-12.192,2.403-18.254,1.064
					c-1.619-0.363-3.224-0.96-4.84-1.407c-0.796-0.22-4.832,1.878-5.622,2.874c-0.359,0.451,1.969,2.845,2.615,3.475
					c2.123,2.071,5.371,4.799,7.049,5.667c3.398,1.754,4.978,2.532,8.472,3.153c7.22,1.295,14.232,2.126,21.336,5.603
					c5.737,2.789,11.86,1.21,17.703,2.595c3.167,0.746,6.314,1.75,9.488,2.546c3.184,0.786,6.379,1.386,9.598,1.37
					c6.847-0.04,13.65,2.123,20.507,1.939c6.774-0.223,13.584-1.194,20.377-1.204c3.97-0.018,7.941,0.107,11.916,0.382
					c1.253,0.086,2.516,0.147,3.76,0.188c1.201,0.043,2.4,0.065,3.6,0.073c2.398,0.015,4.794-0.031,7.191-0.094
					c2.404-0.05,4.776-0.176,7.208-0.171c2.429-0.001,4.857,0.021,7.285,0.112c8.742,0.289,17.348,4.286,26.329,3.217
					c4.818-0.571,11.335-0.676,15.485-8.076c1.008-1.8,1.364-5.038,1.417-7.901c-0.094,4.699-5.145-5.197-5.505-5.662
					c-2.234-2.822-4.731-4.084-7.093-6.032c-4.553-3.768-8.638-8.724-13.598-9.936c-2.599-0.634-5.198-1.091-7.798-1.424
					c-2.636-0.31-5.275-0.495-7.917-0.61c-2.642-0.114-5.285-0.158-7.932-0.183c-2.635-0.044-5.359,0.063-8.042,0.063
					c-2.29,0.013-4.58,0.059-6.868,0.117l-6.761,0.19c-4.366,0.123-8.734,0.209-13.104,0.093
					C135.363,182.811,129.959,182.047,124.568,181.814z"/>
			</g>
		</g>
	</g>
</g>
<g>
	<g>
		<g>
			<path fill="#231F20" d="M286.191,177.479l-0.309-0.078C286.016,177.456,286.085,177.545,286.191,177.479z"/>
			<path fill="#231F20" d="M329.78,192.353l-0.21,0.344C329.692,192.599,329.749,192.474,329.78,192.353z"/>
			<path fill="#231F20" d="M350.234,162.028l0.279,0.039C350.392,162.014,350.307,162.009,350.234,162.028z"/>
			<g>
				<path fill="#231F20" d="M332.685,154.471c-4.02-1.483-8.13-2.7-12.319-3.636c-2.095-0.469-4.209-0.867-6.343-1.193
					c-2.14-0.314-4.31-0.539-6.489-0.7c-8.992-0.654-18.228-0.238-26.766-2.608c-4.521-1.261-8.978-2.653-13.469-3.928
					c-2.176-0.628-4.336-1.224-6.535-1.762c-1.098-0.269-2.202-0.522-3.314-0.758c-1.106-0.258-2.218-0.513-3.342-0.738
					c-2.26-0.456-4.476-1.004-6.659-1.625c-2.168-0.671-4.302-1.425-6.418-2.221l-3.162-1.23c-1.046-0.438-2.083-0.9-3.124-1.361
					c-2.071-0.942-4.149-1.888-6.244-2.841c-7.985-3.848-17.31-4.805-24.81-9.867c-1.997-1.347-3.88-2.867-5.813-4.326
					c-0.949-0.709-7.19-1.424-8.684-1.046c-0.679,0.169,1.356,3.829,1.945,4.819c1.915,3.249,5.105,7.842,7.031,9.68
					c1.934,1.88,3.363,3.252,4.87,4.504c1.517,1.236,3.123,2.332,5.399,3.7c9.429,5.636,18.886,10.543,27.923,17.512
					c3.628,2.889,7.89,4.587,12.174,6.204c2.141,0.813,4.354,1.465,6.508,2.247c2.137,0.754,4.345,1.623,6.301,2.572
					c8.589,4.17,16.837,9.264,25.904,12.029c4.826,1.469,9.475,3.459,14.125,5.431c4.646,2.008,9.291,4.044,14.131,5.501
					c9.54,2.885,19.252,5.211,28.713,8.373c5.515,1.864,10.958,3.956,16.362,6.137c13.65,5.54,27.799,9.523,41.608,14.523
					c12.491,4.527,23.45,12.256,36.483,15.416c0.418,0.103,0.846,0.208,1.281,0.314c0.313,0.072,0.631,0.145,0.953,0.219
					c0.775,0.205,1.573,0.416,2.383,0.63c1.801,0.481,4.042,1.08,6.695,1.477c2.64,0.393,5.729,0.566,8.867,0.062
					c3.124-0.492,6.248-1.701,8.562-3.712c2.223-1.967,2.247-5.315,1.855-8.128c0.172,1.162-0.407,1.503-1.344,1.336
					c-0.939-0.19-2.211-0.949-3.284-1.982c-2.217-2.048-3.495-5.054-3.688-5.322c-2.387-3.445-4.877-5.853-7.648-9.033
					c-0.661-0.768-1.353-1.554-2.063-2.351l-1.122-1.198c-0.389-0.406-0.655-0.752-0.986-1.13c-1.265-1.482-2.515-2.956-3.806-4.358
					c-2.583-2.805-5.327-5.323-8.661-7.053c-13.976-7.242-28.784-11.783-43.542-16.895c-12.55-4.339-25.235-8.232-37.708-12.803
					C347.935,160.671,340.391,157.319,332.685,154.471z"/>
			</g>
		</g>
	</g>
</g>
<g>
	<g>
		<g>
			<path fill="#231F20" d="M303.695,345.549l-0.331,0.18C303.521,345.667,303.648,345.677,303.695,345.549z"/>
			<path fill="#231F20" d="M349.47,319.666l0.132,0.384C349.607,319.889,349.546,319.766,349.47,319.666z"/>
			<path fill="#231F20" d="M339.04,284.369l0.223-0.207C339.137,284.23,339.073,284.298,339.04,284.369z"/>
			<g>
				<path fill="#231F20" d="M321.094,294.132c-7.729,4.606-14.722,9.854-21.245,15.691c-1.686,1.459-3.339,3.081-5.024,4.549
					c-1.694,1.472-3.371,2.975-5.151,4.418c-3.593,2.847-7.725,5.52-12.339,7.908l-3.705,1.964
					c-1.248,0.715-2.492,1.374-3.736,2.131c-1.242,0.784-2.491,1.504-3.713,2.352l-1.826,1.28c-0.599,0.428-1.24,0.866-1.747,1.279
					c-4.384,3.368-8.071,6.758-11.396,9.906c-0.824,0.755-1.687,1.589-2.516,2.204c-0.837,0.646-1.696,1.351-2.537,1.836
					c-0.846,0.535-1.704,1.09-2.551,1.441l-1.278,0.605c-0.447,0.199-1.029,0.38-1.539,0.566c-4.189,1.515-8.928,2.511-14.169,3.854
					c-5.04,1.299-10.261,3.752-15.081,6.974l-2.935,1.94c-0.969,0.646-1.932,1.142-2.922,1.682c-0.99,0.555-1.984,0.934-3,1.323
					c-1.016,0.413-2.042,0.644-3.079,0.836c-1.108,0.244-2.216,0.271-3.303,0.313c-1.085,0.091-2.16-0.027-3.205-0.041
					c-0.26-0.026-0.734,0.229-1.351,0.445c-0.613,0.242-1.354,0.595-2.113,0.993c-1.525,0.726-3.183,1.476-3.744,2.008
					c-0.254,0.232,0.409,0.924,1.314,1.64c0.897,0.702,2.052,1.48,2.559,1.732c0.829,0.431,1.797,0.892,2.849,1.348
					c1.055,0.479,2.167,0.759,3.302,1.103c1.138,0.351,2.255,0.543,3.285,0.678c1.026,0.13,1.987,0.259,2.718,0.215
					c1.486-0.069,2.821-0.108,4.025-0.232c1.191-0.147,2.291-0.31,3.389-0.511c2.142-0.465,4.292-1.079,7.018-2.222l1.066-0.435
					l0.533-0.219l0.47-0.171l1.854-0.676c1.197-0.489,2.516-0.802,3.773-1.176c2.55-0.697,5.231-1.205,7.984-1.624
					c1.403-0.207,2.828-0.386,4.261-0.553c1.486-0.186,2.943-0.317,4.479-0.482c1.557-0.194,3.081-0.277,4.718-0.495l2.458-0.275
					c0.425-0.055,0.805-0.059,1.271-0.15l1.387-0.254c1.501-0.276,3.053-0.62,4.407-1.148c1.393-0.502,2.827-1.058,4.055-1.723
					c1.264-0.651,2.566-1.344,3.677-2.082c1.144-0.732,2.327-1.498,3.346-2.256c4.247-3.045,7.923-6.188,11.649-8.02
					c3.771-1.811,7.963-2.989,12.526-4.294c4.537-1.313,9.598-2.756,14.675-5.27c10.737-5.199,21.845-9.275,31.405-15.568
					c2.357-1.548,4.671-3.131,6.921-4.737c2.277-1.604,4.524-3.217,6.735-4.821l6.66-4.754l3.343-2.315
					c1.097-0.715,2.187-1.396,3.291-2.081c2.574-1.59,5.167-3.151,7.775-4.682c1.311-0.759,2.599-1.535,3.938-2.259l4.102-2.082
					c3.464-1.733,6.87-3.554,10.247-5.427c3.459-1.816,6.923-3.66,10.359-5.533l5.16-2.813l5.276-2.776
					c3.524-1.845,7.045-3.659,10.624-5.431c3.269-1.62,6.614-3.032,9.991-4.363c1.697-0.65,3.391-1.301,5.084-1.95l5.126-2.022
					c3.417-1.369,6.82-2.784,10.154-4.367c1.668-0.765,3.316-1.675,4.94-2.628c1.624-0.952,3.223-1.961,4.787-3.041
					c1.657-1.144,3.479-2.352,5.311-3.673c0.913-0.673,1.841-1.321,2.728-2.1c0.888-0.772,1.757-1.579,2.588-2.424
					c3.323-3.381,6.028-7.386,6.78-12.295c0.364-2.389-1.028-5.346-2.617-7.728c1.306,1.954-1.229,2.055-4.142,1.633
					c-2.917-0.419-6.197-1.373-6.575-1.404c-2.303-0.183-4.459,0.005-6.568,0.293c-1.043,0.156-2.092,0.313-3.139,0.469
					c-1.067,0.124-2.135,0.238-3.212,0.308c-8.377,0.533-16.303-0.359-23.832,2.31c-1.953,0.719-3.882,1.475-5.79,2.262
					l-5.733,2.433c-3.834,1.664-7.607,3.435-11.349,5.27c-3.75,1.839-7.563,3.78-11.321,5.718l-5.657,2.924
					c-1.904,1.011-3.812,2.022-5.721,3.035c-3.252,1.715-6.488,3.458-9.718,5.212c-3.229,1.824-6.451,3.735-9.677,5.599
					c-6.479,3.609-12.84,7.778-19.346,11.626c-1.91,1.125-3.837,2.26-5.776,3.402c-1.887,1.098-3.787,2.203-5.694,3.313
					c-1.891,1.09-3.79,2.185-5.692,3.281C324.822,291.93,322.949,293.015,321.094,294.132z"/>
			</g>
		</g>
	</g>
</g>
<g>
	<g>
		<g>
			<path fill="#231F20" d="M224.132,344.448l-0.027,0.093C224.136,344.51,224.204,344.516,224.132,344.448z"/>
			<path fill="#231F20" d="M230.88,332.611l0.342,0.197C231.114,332.729,230.993,332.664,230.88,332.611z"/>
			<path fill="#231F20" d="M200.383,314.717l-0.014-0.09C200.343,314.653,200.353,314.684,200.383,314.717z"/>
			<g>
				<path fill="#231F20" d="M196.705,318.562c-1.265,1.819-1.517,4.135-0.721,7.044c0.41,1.497,1.055,3.135,1.497,4.686
					c0.222,0.77,0.389,1.541,0.458,2.215c0.082,0.595,0.056,1.146-0.125,1.609c-0.196,0.49-0.416,0.964-0.646,1.438
					c-0.271,0.477-0.543,0.952-0.79,1.447c-0.252,0.497-0.455,1.006-0.652,1.569c-0.212,0.566-0.375,1.174-0.462,1.844
					c-0.151,1.337-0.737,2.483-1.471,3.487c-0.713,0.981-1.686,1.938-2.64,2.868c-1.887,1.854-1.157,5.764-3.741,7.33
					c-0.711,0.396-1.586,0.754-2.358,1.18c-0.389,0.226,0.439,2.977,1.13,3.773c0.312,0.36,2.902,0.663,3.576,0.757
					c2.253,0.258,5.188,0.569,6.269,0.496c2.205-0.169,3.154-0.231,4.417-1.014c1.365-0.812,2.548-1.62,4.063-2.321
					c0.746-0.344,1.542-0.646,2.426-0.876c0.89-0.238,1.895-0.443,3.018-0.54c0.911-0.088,1.607-0.331,2.193-0.715
					c0.59-0.399,1.059-0.901,1.493-1.432l1.286-1.617c0.453-0.557,0.962-1.071,1.624-1.482c0.712-0.457,1.494-0.839,2.261-1.315
					c0.768-0.474,1.547-0.957,2.292-1.477c0.372-0.26,0.735-0.529,1.083-0.81l0.51-0.431c0.141-0.123,0.276-0.247,0.406-0.375
					c0.521-0.512,0.955-1.075,1.254-1.714c1.265-2.711,4.481-4.406,5.628-7.215c1.191-2.785,1.548-5.696,2.814-8.278
					c0.725-1.502,1.579-2.94,2.568-4.317c0.624-0.869,1.159-1.787,1.633-2.72c0.456-0.907,0.857-1.839,1.242-2.777
					c0.771-1.878,1.478-3.786,2.427-5.579c0.862-1.596,2.503-2.898,3.989-4.079c1.483-1.208,2.793-2.481,3-4.343
					c0.221-1.979,1.1-4.326-4.831-9.23c-1.443-1.193-4.261-2.812-6.796-4.144c4.166,2.176-5.457-0.425-5.941-0.476
					c-2.887-0.412-4.435-0.004-6.58,0.06c-4.156,0.119-9.3-0.399-11.239,1.071c-2.061,1.563-3.349,3.345-4.399,5.256
					c-1.052,1.914-1.849,3.95-2.775,5.937c-0.395,0.844-0.76,1.7-1.115,2.563l-1.023,2.497c-0.683,1.653-1.399,3.292-2.299,4.843
					C199.569,315.08,197.919,316.811,196.705,318.562z"/>
			</g>
		</g>
	</g>
</g>
<g>
	<g>
		<g>
			<path fill="#231F20" d="M215.535,153.814l0.061,0.036C215.583,153.819,215.616,153.76,215.535,153.814z"/>
			<path fill="#231F20" d="M209.15,146.257l0.3-0.254C209.341,146.079,209.239,146.17,209.15,146.257z"/>
			<path fill="#231F20" d="M181.965,168.765l-0.079-0.01C181.897,168.785,181.925,168.783,181.965,168.765z"/>
			<g>
				<path fill="#231F20" d="M183.631,172.938c1.117,1.58,3.069,2.397,5.857,2.354c2.878-0.042,6.488-0.871,8.156,0.309
					c1.734,1.259,3.052,2.913,5.461,3.468c2.458,0.549,3.785,2.206,5.117,3.954c0.664,0.84,1.807,1.081,2.996,1.377
					c1.194,0.298,2.289,0.657,2.73,1.83c0.232,0.631,0.32,1.446,0.513,2.15c0.102,0.353,2.542-0.436,3.352-1.073
					c0.367-0.288,1.165-2.683,1.38-3.31c0.679-2.081,1.535-4.849,1.66-5.837c0.246-2.006,0.363-2.887-0.093-3.998
					c-0.911-2.325-2.016-4.493-1.338-8.357c0.563-3.082-1.966-3.266-2.376-5.454c-0.44-2.397-0.137-5.36-1.624-6.767
					c-1.588-1.473-1.572-4.453-3.257-5.818c-1.664-1.351-3.775-2.375-5.242-3.959c-0.858-0.931-1.607-1.956-2.254-3.089
					c-1.679-2.901-4.494-4.659-6.623-7.194c-0.975-1.154-1.297-2.901-1.761-4.531c-0.463-1.628-1.04-3.127-2.688-3.839
					c-1.694-0.724-3.553-2.209-9.719,2.23c-1.499,1.081-3.807,3.361-5.782,5.434c3.256-3.389-2.282,4.888-2.534,5.282
					c-1.406,2.506-1.686,3.927-2.486,5.8c-1.546,3.637-4.14,7.854-3.835,9.766c0.625,3.931,3.241,5.836,5.565,8.336
					c1.947,2.084,4.283,3.817,6.079,6.166C181.946,169.568,182.596,171.435,183.631,172.938z"/>
			</g>
		</g>
	</g>
</g>
<g>
	<g>
		<g>
			<path fill="#231F20" d="M134.383,313.656l-0.156,0.504C134.317,313.94,134.428,313.815,134.383,313.656z"/>
			<path fill="#231F20" d="M152.553,238.146l0.376,0.188C152.812,238.178,152.678,238.141,152.553,238.146z"/>
			<path fill="#231F20" d="M118.266,220.676l-0.047-0.409C118.204,220.461,118.225,220.583,118.266,220.676z"/>
			<g>
				<path fill="#231F20" d="M114.261,248.268c-0.282,1.525-0.545,3.053-0.79,4.583c-0.213,1.531-0.592,3.065-0.852,4.604
					c-0.565,3.076-1.056,6.168-1.472,9.282c-0.57,3.109-1.113,6.238-1.557,9.395c-0.238,1.577-0.401,3.164-0.65,4.753
					c-0.266,1.587-0.513,3.182-0.742,4.783c-1.721,13.192-3.525,26.905-8.332,39.905c-1.309,3.437-2.614,6.85-3.981,10.265
					c-1.374,3.421-2.746,6.837-4.118,10.253c-2.732,6.854-5.377,13.822-7.68,20.87c-1.159,3.56-2.4,7.04-3.713,10.504
					c-1.315,3.481-2.696,6.92-4.126,10.338c-2.906,6.877-5.812,13.756-8.763,20.74c-1.357,3.434-2.521,6.938-3.597,10.462
					c-0.975,3.314-1.949,6.627-2.923,9.938c-2.084,6.418-4.944,12.98-8.6,19.382c-1.986,3.389-4.104,6.848-6.041,10.449
					c-0.446,0.914-1.121,3.928-1.533,7c-0.324,3.135-0.469,6.247-0.277,7.317c0.179,0.944,4.193-3.96,5.25-5.24
					c1.782-2.078,4.037-4.709,6.197-7.23c2.183-2.439,4.11-4.768,5.368-6.392c4.919-6.617,7.383-9.579,11.356-17.197l1.527-2.968
					l1.402-3.08c0.896-1.996,1.789-3.986,2.681-5.973c1.722-3.845,3.454-7.659,5.24-11.434c3.841-7.51,7.844-14.853,12.737-21.996
					c3.881-5.747,6.896-12.182,9.746-18.691c2.843-6.521,5.495-13.044,8.794-19.281c7.158-13.413,15.146-26.801,20.262-41.704
					c1.342-3.971,2.889-7.842,4.249-11.859l2.162-5.963c0.718-1.993,1.508-3.95,2.126-6.002c1.31-4.063,2.614-8.141,3.842-12.245
					c1.057-4.178,1.99-8.405,2.798-12.651c1.504-8.42,2.333-16.986,2.839-25.474c0.453-8.507,0.551-16.994,0.497-25.483
					c-0.077-9.908-0.54-19.814-1.404-29.722c-1.134-12.518-3.533-24.948-6.977-37.157c-0.857-3.043-1.847-6.105-2.787-9.093
					l-2.951-8.634c-0.506-1.448-0.944-2.859-1.501-4.338l-1.669-4.439l-1.659-4.442c-0.252-0.73-0.595-1.503-0.929-2.271
					l-0.995-2.303c-0.59-1.393-1.18-2.784-1.768-4.173l-0.434-1.046l-0.522-1.062l-1.046-2.127c-0.694-1.423-1.388-2.845-2.08-4.265
					c-0.705-1.416-1.545-2.74-2.312-4.119c-0.785-1.357-1.569-2.754-2.363-4.084l-2.411-3.718c-0.798-1.218-1.627-2.534-2.409-3.675
					l-2.333-3.374l-2.353-3.368l-2.29-3.208c-1.556-2.132-3.046-4.232-4.739-6.339c-3.385-4.214-6.928-8.335-10.735-12.281
					c-2.016-2.089-4.177-4.389-6.471-6.699c-1.147-1.155-2.327-2.313-3.539-3.448l-0.918-0.85l-1.277-1.146
					c-0.792-0.673-1.53-1.261-2.243-1.786c-1.436-1.07-2.787-1.945-4.045-2.665c-1.268-0.728-2.476-1.318-3.603-1.769
					c-2.316-0.938-4.297-1.284-6.516-1.396c-1.047-0.04-2.361,0.159-3.738,0.442c-1.396,0.28-2.894,0.656-4.242,1.137
					c1.134-0.375,1.535,0.021,1.691,0.937c0.123,0.917,0.123,2.442,0.207,4.208c0.151,3.53,0.75,7.803,0.877,8.288
					c0.91,2.969,2.354,5.737,3.625,8.328c0.337,0.661,0.595,1.261,0.876,1.872l0.939,2.067c0.624,1.377,1.239,2.755,1.808,4.146
					c2.205,5.391,3.972,10.72,6.015,15.872c1.022,2.576,2.113,5.108,3.365,7.586c1.251,2.478,2.651,5.063,4.315,7.505
					c1.784,2.617,3.416,5.036,5.131,7.476l1.285,1.819l1.12,1.707l2.255,3.362c0.416,0.566,0.656,1.083,0.981,1.618l0.931,1.583
					c0.609,1.059,1.32,2.062,1.801,3.178c1.056,2.195,2.232,4.218,3.189,6.738l1.545,3.59c0.516,1.217,0.976,2.619,1.473,3.917
					c0.968,2.673,2.005,5.193,2.921,8.081c0.946,2.808,1.893,5.619,2.84,8.431c0.474,1.406,0.833,2.707,1.257,4.066
					c0.397,1.35,0.846,2.681,1.183,4.058c5.062,18.513,8.089,38.022,7.973,57.584c0.024,1.46-0.062,2.927-0.11,4.397
					c-0.067,1.471-0.1,2.948-0.211,4.425c-0.242,2.952-0.425,5.926-0.804,8.887C116.206,236.477,115.222,242.391,114.261,248.268z"
					/>
			</g>
		</g>
	</g>
</g>
</svg>
