<?xml version="1.0" encoding="utf-8"?>
<!-- Generator: Adobe Illustrator 16.0.0, SVG Export Plug-In . SVG Version: 6.00 Build 0)  -->
<!DOCTYPE svg PUBLIC "-//W3C//DTD SVG 1.1//EN" "http://www.w3.org/Graphics/SVG/1.1/DTD/svg11.dtd">
<svg version="1.1" id="Layer_1" xmlns="http://www.w3.org/2000/svg" xmlns:xlink="http://www.w3.org/1999/xlink" x="0px" y="0px"
	 width="500px" height="500px" viewBox="0 0 500 500" enable-background="new 0 0 500 500" xml:space="preserve">
<g>
	<g>
		<g>
			<path fill="#FFFFFF" d="M428.194,183.738c0.011-0.01-0.23,0.118-0.21,0.114C428.057,183.803,428.15,183.759,428.194,183.738z"/>
			<path fill="#FFFFFF" d="M412.852,337.496l-0.386-0.34C412.591,337.469,412.727,337.525,412.852,337.496z"/>
			<path fill="#FFFFFF" d="M444.104,380.759c0,0-0.194,0.404-0.413,0.794c-0.217,0.393-0.434,0.784-0.434,0.784
				C443.705,381.605,443.961,381.137,444.104,380.759z"/>
			<g>
				<path fill="#FFFFFF" d="M451.665,308.098l0.563-5.281l0.137-1.384l0.137-1.603l0.262-3.205l0.245-3.206l0.115-1.603l0.046-1.46
					l0.162-5.843l0.111-5.531l0.074-5.344l0.207-4.787l0.083-2.398l0.23-2.733c1.271-14.711,2.248-29.416,2.918-44.078l0.147-3.305
					l0.069-1.7l0.041-2.417c0-0.79,0.024-1.639-0.012-2.375l-0.142-2.146c-0.055-0.69-0.091-1.48-0.169-2.084l-0.224-1.868
					c-0.635-4.901-1.233-8.292-1.305-10.723l-0.038-0.481c-0.007-0.153,0.015-0.271,0.018-0.409
					c0.014-0.267,0.021-0.537,0.021-0.812l-0.007-0.415l-0.001-0.052l-0.001-0.026c-0.141,0.632,0.191-0.867,0.157-0.718
					l0.002-0.013l0.003-0.025l0.023-0.206l0.048-0.411l0.107-0.913c0.086-0.704,0.154-1.412,0.203-2.12l0.06-1.06
					c0.021-0.376-0.002-0.603-0.004-0.912c-0.015-0.579-0.039-1.157-0.072-1.733c-0.084-1.155-0.262-2.328-0.473-3.476
					c-0.5-2.303-1.214-4.581-2.279-6.67c-2.049-4.238-5.18-7.696-8.584-10.171c-3.417-2.497-7.104-4.069-10.67-4.978l-4.721-1.203
					l-3.18,1.27c-9.953,3.975-21.875,6.291-32.36,5.518l-2.427-0.256l-2.301-0.378c-0.703-0.178-1.464-0.307-2.127-0.5l-0.979-0.294
					l-0.506-0.146l-0.77-0.25l-6.148-1.998l-6.208-1.772c-8.305-2.235-16.705-3.895-24.998-5.132
					c-8.298-1.245-16.473-2.092-24.464-2.909c-7.995-0.813-15.819-1.613-23.56-2.666c-1.567-0.195-3.122-0.42-4.662-0.685
					c-1.542-0.258-3.093-0.49-4.624-0.777c-1.527-0.304-3.054-0.606-4.577-0.909l-2.538-0.496l-2.937-0.529
					c-3.792-0.507-7.27-0.714-10.398-0.926c-1.467-0.127-3.028-0.217-4.316-0.408c-0.654-0.095-1.393-0.137-1.966-0.28l-0.911-0.178
					l-0.481-0.094l-1.052-0.258c-1.71-0.436-3.41-0.844-5.109-1.245c-1.664-0.305-3.414-0.32-5.129-0.093
					c-3.443,0.463-6.695,1.9-9.535,3.886c-1.425,1.006-2.751,2.107-3.979,3.415l-3.456,3.563l-4.936,5.167
					c-6.644,6.865-13.488,13.656-20.436,20.555c-11.178,11.118-21.791,22.971-31.986,35.295l-7.485,9.42l-1.88,2.344l-1.799,2.428
					l-3.62,4.833l-3.66,4.802c-1.188,1.67-2.419,3.345-3.556,4.987c-2.333,3.303-4.573,6.532-6.886,9.692
					c-4.924,6.702-9.963,13.088-15.245,18.792c-1.283,1.432-4.601,6.11-8.216,10.173c-0.452,0.51-0.904,1.02-1.351,1.523
					c-0.462,0.462-0.919,0.919-1.367,1.366c-0.45,0.44-0.877,0.93-1.313,1.313c-0.438,0.384-0.86,0.754-1.262,1.105
					c-0.402,0.366-0.784,0.713-1.141,1.037c-0.367,0.277-0.708,0.534-1.017,0.769c-0.618,0.481-1.108,0.896-1.423,1.2
					c-0.285,0.277,0.1,0.337,0.915,0.251c0.408-0.043,0.925-0.121,1.52-0.226c0.299-0.056,0.617-0.115,0.948-0.177
					c0.329-0.081,0.661-0.208,1.009-0.318c0.701-0.24,1.437-0.493,2.169-0.744c0.75-0.234,1.436-0.638,2.122-0.938
					c0.681-0.327,1.32-0.634,1.88-0.903c0.553-0.29,1.008-0.582,1.361-0.784c4.657-2.646,10.218-7.032,15.148-11.723
					c4.949-4.679,9.339-9.55,12.159-12.946c5.696-6.889,9.708-12.025,13.916-16.846c4.379-4.806,8.44-9.873,14.562-16.458
					c12.443-13.747,25.669-26.537,39.157-39.186c6.806-6.333,13.601-12.657,20.403-18.988l5.137-4.794
					c0.568-0.49,0.995-0.826,1.486-1.229c0.479-0.395,0.988-0.758,1.526-1.051c1.071-0.59,2.272-0.947,3.487-0.869
					c1.233,0.049,2.317,0.818,3.356,1.291l0.088,0.035l0.035,0.046l0.018,0.02c-0.002,0.004,0.004,0.01,0.101,0.036l0.851,0.238
					l1.713,0.465c1.116,0.27,2.177,0.463,3.277,0.688l0.818,0.16l0.763,0.123l1.529,0.241l2.916,0.426
					c3.756,0.521,6.914,1.001,9.447,1.724c7.745,2.12,15.668,3.721,23.541,4.973c15.774,2.521,31.189,3.674,45.271,6.791
					c6.349,1.411,12.515,3.12,18.529,5.133l4.484,1.567l4.415,1.731l1.102,0.432l0.551,0.215l0.805,0.292
					c1.115,0.385,2.277,0.833,3.371,1.135c1.094,0.302,2.211,0.63,3.297,0.888l3.229,0.688c4.251,0.774,8.359,1.147,12.397,1.297
					c4.042,0.156,7.992,0.035,11.91-0.267c7.845-0.596,15.504-1.954,23.29-4.226c-3.132,0.026-6.289,0.053-9.445,0.08
					c0.218,0.134,0.432,0.194,0.438,0.255c0.003,0.006,0.03-0.001,0.017,0.01c0.007-0.013-0.037,0.053,0.017-0.031
					c0.107-0.181,0.301-0.408,0.387-0.547c0.111-0.158,0.24-0.317,0.388-0.475c0.117-0.138,0.213-0.253,0.348-0.382
					c0.443-0.461,0.919-0.759,1.114-0.859c0.196-0.105,0.209-0.068-0.033-0.036c-0.08,0.015-0.152,0.022-0.216,0.026l-0.091,0.002
					l-0.171,0.011c-0.11,0.004-0.213,0-0.306-0.008c-0.104-0.027-0.276-0.24-0.382-0.369c-0.059-0.075-0.112-0.153-0.161-0.233
					c-0.053-0.069-0.064-0.235-0.209-0.031l-0.685,0.707l-0.343,0.354l-0.021,0.022c-0.284-0.4,0.606,0.927-0.643-0.891
					l-0.017,0.078l-0.032,0.156l-0.064,0.313l-0.25,1.252c-0.316,1.665-0.67,3.388-0.76,4.935c-0.141,1.578-0.301,3.23-0.283,4.62
					c-0.103,5.893,0.41,10.48,0.316,13.603l-0.013,1.167l-0.104,0.913l-0.081,0.952l-0.228,1.637l-0.918,6.547l-1.864,13.089
					c-1.246,8.726-2.488,17.453-3.655,26.191l-0.435,3.277c-0.135,1.125-0.216,2.432-0.321,3.639l-0.29,3.695l-0.137,1.849
					l-0.066,0.924l-0.033,0.851c-0.142,4.409-0.284,8.82-0.426,13.233c-0.03,3.925-0.363,7.087-0.547,10.521l-1.045,12.1
					c-0.159,2.04-0.389,4.066-0.487,6.117l-0.301,6.149l-0.296,6.147l-0.146,3.072l-0.032,3.087l-0.102,12.343
					c0.023,4.116,0.243,8.243,0.353,12.363l0.101,3.091c0.016,0.188,0.025,0.102,0.038,0.266c0.028,0.32,0.002,0.647-0.078,0.963
					c-0.085,0.313-0.222,0.621-0.439,0.866c-0.218,0.249-0.531,0.374-0.808,0.553l-2.064,1.396c-0.786,0.524-1.57,1.064-2.349,1.682
					l-2.329,1.789l-2.011,1.629l-2.823,2.275c-0.48,0.398-0.826,0.634-1.227,0.939l-1.164,0.879l-1.974,1.293
					c-0.279,0.131-0.553,0.269-0.822,0.415l-0.401,0.227c-0.079,0.043-0.105,0.068-0.227,0.127l-0.432,0.203l-13.84,6.468
					l-13.862,6.417l-6.939,3.189l-6.878,3.1l-15.328,6.946l-15.337,7.063l-15.672,7.321l-3.913,1.84l-1.955,0.921l-1.935,0.983
					l-7.73,3.947l-7.724,3.955l-3.86,1.98c-1.289,0.655-2.577,1.313-3.834,2.04l-15.184,8.514c-2.521,1.438-5.081,2.797-7.567,4.3
					l-7.429,4.571l-6.108,3.759c-0.321,0.198-0.642,0.418-0.969,0.595l-0.592-0.247l-1.216-0.472l-7.326-2.71
					c-1.284-0.486-2.633-0.973-3.857-1.465l-3.634-1.479c-1.196-0.498-2.259-1.028-3.393-1.538
					c-0.551-0.261-1.134-0.507-1.658-0.777l-1.527-0.827l-1.526-0.819l-0.764-0.407l-0.686-0.447l-2.743-1.761
					c-2.349-1.625-4.696-3.248-7.041-4.87c-2.363-1.652-4.724-3.303-7.083-4.952l-3.534-2.481l-3.607-2.46l-14.442-9.839
					c-4.979-3.164-9.958-6.329-14.945-9.497c-1.259-0.779-2.484-1.592-3.777-2.341l-3.907-2.219
					c-2.615-1.467-5.232-2.935-7.852-4.404c-2.581-1.422-5.164-2.845-7.751-4.271l-3.302-1.803
					c-1.104-0.601-2.211-1.158-3.327-1.856l-3.355-1.981l-1.691-0.993l-1.732-1.079c-2.364-1.466-4.732-2.934-7.106-4.405
					c-2.249-1.397-4.581-2.848-6.975-4.336c-1.249-0.762-2.422-1.524-3.776-2.308c-1.333-0.777-2.679-1.563-4.036-2.355
					c-0.68-0.394-1.362-0.788-2.046-1.185c-0.721-0.382-1.445-0.766-2.17-1.15c-1.459-0.757-2.927-1.52-4.4-2.284
					c-1.476-0.802-2.957-1.383-4.443-2.055l-4.469-1.93l-0.381-0.184L81.39,364.4l0.026,0.014l0.054,0.027l0.212,0.117
					c0.206,0.118,0.106,0.072,0.112,0.085c-0.026,0.008-0.048,0.007-0.074,0.012c-0.008,0.02-0.1-0.021-0.23-0.082
					c-0.115-0.051-0.242-0.109-0.419-0.206l-0.489-0.255l-0.544-0.301l-1.129-0.633c-1.603-0.931-3.198-1.856-4.779-2.774
					c-3.234-1.893-6.469-3.785-9.614-5.549c-3.137-1.769-6.207-3.42-9.092-4.886c-2.877-1.457-5.639-2.762-7.954-3.687
					c-0.518-0.208-0.913-0.313-1.368-0.416c-0.427-0.088-0.776-0.09-1.187-0.105c-0.38,0.071-0.72,0.136-1.022,0.193
					c-0.368,0.01-0.746,0.036-1.127,0.075c-1.484,0.127-2.816,0.428-4.106,1.043c0.549-0.253,0.83-0.048,1.238,0.385
					c0.183,0.215,0.417,0.512,0.614,0.812c0.104,0.141,0.204,0.297,0.301,0.47c0.119,0.184,0.261,0.395,0.39,0.615
					c1.102,1.805,2.906,4.731,4.809,7.734c3.814,6.041,8.04,12.56,8.669,13.348c2.261,2.8,4.739,5.525,7.381,8.189
					c1.321,1.333,2.686,2.646,4.113,3.949c0.712,0.652,1.45,1.301,2.229,1.956c0.764,0.646,1.782,1.4,2.793,2.013
					c2.141,1.462,4.3,2.887,6.4,4.352c2.027,1.561,4.034,3.085,5.979,4.665c9.019,7.561,16.989,16.066,26.924,23.995l1.847,1.492
					l1.95,1.425c1.316,0.944,2.636,1.891,3.961,2.842c1.225,0.877,2.455,1.757,3.691,2.642c1.186,0.837,2.378,1.678,3.578,2.523
					c2.406,1.672,4.857,3.321,7.37,4.947c1.261,0.804,2.533,1.615,3.816,2.433c1.273,0.868,2.563,1.73,3.875,2.588
					c3.488,2.257,6.973,4.513,10.457,6.768l2.618,1.676l2.605,1.766l5.217,3.515l10.462,6.991l10.524,7.135l5.275,3.546
					c0.236,0.154,0.404,0.277,0.695,0.458l0.855,0.532l1.716,1.059l3.449,2.09c2.281,1.176,4.608,2.439,6.878,3.499l3.384,1.515
					l1.695,0.752l1.639,0.661c2.182,0.875,4.401,1.772,6.445,2.517l6.082,2.256l1.477,0.543l0.37,0.136l0.498,0.192l1.307,0.522
					l5.231,2.088l1.309,0.521l0.654,0.261l0.723,0.303l2.892,1.209l5.785,2.418c6.95-4.248,13.906-8.498,20.866-12.752l6.109-3.75
					l3.056-1.877c1.016-0.63,2.086-1.18,3.127-1.774c4.19-2.336,8.384-4.673,12.581-7.013l6.299-3.512
					c2.122-1.14,4.297-2.2,6.444-3.304l14.976-7.63c5.024-2.496,10.158-4.83,15.229-7.261l31.194-14.754l31.209-14.813l15.521-7.349
					l0.972-0.457l0.485-0.229l0.242-0.114l0.376-0.19c1.009-0.516,2.013-1.044,3.011-1.584l1.482-0.818l1.293-0.833l2.57-1.696
					c0.778-0.552,1.47-1.084,2.207-1.631c0.718-0.539,1.494-1.113,2.062-1.579l3.479-2.777c2.363-1.875,3.333-2.664,6.371-4.44
					l3.745-2.35c1.309-0.743,2.375-1.658,3.423-2.666c2.091-2.006,3.878-4.369,5.311-6.918c2.849-5.14,4.399-10.945,4.453-17.092
					c-0.011-3.718-0.021-7.446-0.032-11.186c0.003-2.964-0.074-5.929,0.109-8.917c0.281-5.969,0.37-11.946,0.961-17.959
					c0.232-3.003,0.465-6.009,0.698-9.016L451.665,308.098z"/>
			</g>
		</g>
	</g>
</g>
<g>
	<g>
		<g>
			<path fill="#FFFFFF" d="M241.011,332.975l-0.374-0.011C240.804,332.99,240.907,333.062,241.011,332.975z"/>
			<path fill="#FFFFFF" d="M285.975,335.092l-0.201,0.361C285.912,335.346,285.959,335.216,285.975,335.092z"/>
			<path fill="#FFFFFF" d="M299.975,301.5l0.175-0.039C300.066,301.442,300.015,301.461,299.975,301.5z"/>
			<g>
				<path fill="#FFFFFF" d="M281.889,297.366c-0.671-0.075-1.371-0.17-2.02-0.211l-1.93-0.09c-1.286-0.051-2.573-0.08-3.859-0.088
					c-1.237,0.02-2.427,0.085-3.64,0.155c-1.193,0.077-2.452,0.155-3.545,0.298c-2.24,0.265-4.563,0.603-6.598,1.015
					c-1.047,0.206-2.103,0.433-3.141,0.674c-0.98,0.225-1.962,0.468-2.946,0.731c-1.959,0.542-3.915,1.084-5.871,1.625
					c-1.946,0.5-3.873,0.944-5.904,1.319c-4.113,0.65-8.394,0.941-12.842,0.381c-4.647-0.573-9.508-1.341-14.51-1.835
					c-2.553-0.205-5.054-0.443-7.713-0.415c-1.29-0.001-2.671-0.011-3.882,0.051c-1.186,0.068-2.373,0.157-3.562,0.27
					c-4.757,0.441-9.37,0.473-13.839,0.106c-4.5-0.319-8.834-1.074-13.101-2.034c-1.017-0.253-2.041-0.454-3.075-0.617
					c-1.044-0.145-2.029-0.383-3.061-0.526l-1.542-0.225l-0.779-0.104l-0.863-0.15l-3.456-0.583
					c-4.658-0.786-9.366-1.63-14.034-3.276c-1.262-0.423-2.487-0.945-3.766-1.398s-2.563-0.922-3.869-1.342
					c-0.654-0.183-2.743,0.056-4.794,0.47c-2.082,0.501-4.107,1.169-4.766,1.633c-0.572,0.42,3.117,3.016,4.056,3.7
					c3.232,2.356,7.678,5.719,9.94,7.12c4.638,2.715,6.676,4.057,11.59,6.021c1.271,0.516,2.539,1.028,3.803,1.541l1.901,0.773
					l2.052,0.759c1.372,0.487,2.741,1.066,4.123,1.493l4.148,1.374c5.54,1.733,11.092,3.372,16.649,5.452
					c4.466,1.644,9.15,2.128,13.66,2.378l1.707,0.092c0.582,0.027,1.025,0.077,1.544,0.114l3.001,0.259
					c0.99,0.084,2.043,0.296,3.051,0.478c1.024,0.204,2.008,0.401,3.035,0.71c2.235,0.672,4.388,1.362,6.695,2.161l3.422,1.166
					l3.542,1.16c1.163,0.381,2.408,0.737,3.651,1.076c1.249,0.337,2.472,0.669,3.757,0.95c2.637,0.522,5.19,1.033,8.02,1.179
					c2.942,0.225,5.881,0.449,8.819,0.675l8.334,0.589l3.963,0.244c1.246,0.078,2.491,0.146,3.736,0.196l3.573,0.134
					c1.143,0.04,2.378-0.003,3.42,0.029l3.205-0.009c1.038,0.013,1.988,0.086,2.992,0.108l1.49,0.044l1.369,0.155l1.377,0.141
					l0.692,0.064l0.347,0.031l0.586,0.088c6.386,1.165,13.494,1.354,19.493,1.151l2.069-0.134l1.663-0.202
					c1.184-0.144,1.983-0.287,2.868-0.428l2.217-0.358c0.359-0.058,0.547-0.071,0.829-0.11l0.329-0.027
					c0.244,0.018,0.486,0.015,0.708,0.132c0.229,0.045,0.431,0.202,0.61,0.34c0.125,0.087,0.19,0.209,0.335,0.287
					c0.198,0.147,0.688,0.444,1.11,0.74c0.907,0.62,2.019,1.432,3.292,2.401l4.414,3.369l1.311,0.965
					c0.446,0.326,0.901,0.655,1.413,1.005c0.505,0.347,0.966,0.678,1.535,1.041l0.821,0.531l0.741,0.467
					c3.336,2.006,6.584,4.025,10.033,5.997l5.116,2.985l5.229,2.964c1.584,0.923,3.163,1.842,4.737,2.76
					c1.577,0.94,3.139,1.915,4.687,2.904c2.538,1.717,5.099,3.417,7.446,5.252c2.446,1.749,4.69,3.615,7.079,5.278
					c1.168,0.854,2.291,1.725,3.496,2.513c0.594,0.4,1.216,0.774,1.818,1.16c0.583,0.401,1.18,0.788,1.791,1.16
					c2.658,1.532,5.423,3.646,8.673,5.157c1.567,0.805,3.289,1.447,5.22,1.818c1.832,0.445,3.871,0.626,6.187,0.42
					c2.25-0.204,5.058-1.922,7.281-3.726c-1.833,1.471-2.064-0.714-1.951-3.49c0.059-1.387,0.201-2.921,0.316-4.166
					c0.081-1.211,0.139-2.127,0.118-2.312c-0.266-2.218-0.925-4.274-1.709-6.296c-0.863-1.931-1.851-3.822-2.726-5.84
					c-0.211-0.494-0.42-0.985-0.628-1.474c-0.222-0.478-0.441-0.952-0.66-1.424c-0.441-0.967-0.878-1.924-1.313-2.877
					c-0.45-0.967-0.898-1.929-1.347-2.891c-0.462-0.961-0.973-1.847-1.487-2.763c-1.041-1.801-2.157-3.606-3.452-5.239
					c-1.31-1.594-2.769-3.092-4.431-4.434c-3.509-2.701-7.165-5.204-10.92-7.355l-5.129-2.972l-4.698-2.625
					c-6.297-3.599-12.768-7.365-19.283-11.467c-0.524-0.348-0.807-0.515-1.34-0.895c-0.454-0.306-1.024-0.73-1.575-1.127
					l-3.974-2.967c-1.483-1.103-3.198-2.331-5.104-3.576l-1.482-0.944l-1.619-0.953c-1.105-0.622-2.244-1.256-3.793-1.967
					c-5.897-2.803-12.448-4.183-18.934-3.541c-0.803,0.073-1.635,0.147-2.411,0.254l-2.019,0.308l-2.737,0.469l-0.977,0.155
					l-0.464,0.071l-0.291,0.026c-0.174,0.014-0.432,0.054-0.534,0.055c-0.009-0.01-0.017-0.018-0.024-0.022l-0.012-0.004h-0.003
					h-0.001l0.008,0.212l0.023,0.933c0.013,0.745,0.011,1.491-0.005,2.239l-0.003,0.14c-0.302,3.175,0.41-4.282,0.334-3.518h-0.006
					h-0.012l-0.047-0.002l-0.095-0.003l-0.189-0.006l-0.759-0.026l-1.522-0.063l-0.763-0.036c-0.251-0.013-0.544-0.021-0.655-0.051
					l-0.924-0.14c-0.613-0.088-1.218-0.154-1.901-0.324c-0.664-0.161-1.32-0.236-1.989-0.446l-2.002-0.563
					c-1.303-0.295-2.607-0.59-3.913-0.885l-2.016-0.427l-1.011-0.207l-0.97-0.137L281.889,297.366z"/>
			</g>
		</g>
	</g>
</g>
<g>
	<g>
		<g>
			<path fill="#FFFFFF" d="M301.054,251.166l0.084,0.16C301.119,251.246,301.159,251.173,301.054,251.166z"/>
			<path fill="#FFFFFF" d="M292.973,225.575l0.393-0.06C293.225,225.503,293.091,225.534,292.973,225.575z"/>
			<path fill="#FFFFFF" d="M257.482,229.791l-0.098-0.149C257.396,229.724,257.432,229.766,257.482,229.791z"/>
			<g>
				<path fill="#FFFFFF" d="M259.316,241.652c1.359,5.325,3.891,10.463,7.784,15.067c0.969,1.18,2.072,2.327,3.165,3.457
					l3.246,3.369c2.197,2.228,4.073,4.53,5.531,7.065c0.726,1.361,1.451,2.719,2.175,4.074c0.76,1.335,1.517,2.669,2.301,3.985
					l1.199,1.959c0.433,0.633,0.876,1.257,1.333,1.874c0.914,1.232,1.883,2.431,2.933,3.574c2.173,2.263,3.986,4.61,5.663,7.132
					c1.762,2.528,3.206,4.862,4.66,7.314c1.385,2.342,3.42,4.201,5.275,6.143c1.849,1.93,3.581,3.979,4.188,6.444
					c0.144,0.649,0.213,1.309,0.281,1.965c0.044,0.644,0.013,1.233,0.053,1.817c0.026,0.162,0.15,0.296,0.43,0.495
					c0.135,0.096,0.299,0.198,0.483,0.306c0.088,0.047,0.201,0.123,0.281,0.15l0.247,0.072c0.19,0.057,0.382,0.113,0.564,0.168
					c0.104,0.032,0.206,0.064,0.304,0.095c0.071-0.031,0.147-0.059,0.227-0.081c0.091-0.024,0.133-0.04,0.271-0.059
					c0.354-0.035,0.688-0.052,0.992-0.057c0.607-0.011,1.099,0.025,1.423,0.057c0.295,0.034,0.027-0.008-0.569-0.042
					c-0.074-0.003-0.154-0.007-0.238-0.01l-0.13-0.004c-0.003-0.002,0.032-0.004,0.046-0.006c0.074-0.012,0.154-0.023,0.24-0.036
					c0.165-0.029,0.34-0.07,0.519-0.127c0.179-0.056,0.361-0.125,0.538-0.207c0.167-0.098,0.293-0.247,0.426-0.367
					c0.259-0.252,0.471-0.493,0.594-0.642c1.622-1.977,2.711-6.097,2.698-7.884c-0.021-3.664-0.165-5.414-1.437-8.54
					c-1.326-3.233-2.8-6.305-4.065-9.479c-1.242-3.168-2.401-6.48-2.61-9.886c-0.118-1.426-0.467-2.704-0.954-3.902
					c-0.496-1.192-1.112-2.313-1.708-3.439c-1.224-2.234-2.652-4.379-3.223-6.898c-1.404-5.403-1.406-11.171-3.562-16.03
					c-2.299-5.222-2.179-11.364-4.245-16.915c-2.028-5.481-4.529-11.105-6.3-17.088c-1.017-3.484-1.959-7.081-2.774-10.717
					c-0.548-2.311-1.164-4.588-1.894-6.852c-0.748-2.265-1.527-4.513-2.372-6.747l-2.615-6.691l-2.759-6.835
					c-1.555-3.959-2.199-7.914-2.703-11.455c-0.513-3.555-0.854-6.593-2.046-9.047c-0.336-0.668-0.56-1.338-0.947-2.059
					c-0.152-0.338-0.333-0.681-0.558-1.028c-0.112-0.174-0.236-0.348-0.372-0.523c-0.116-0.167-0.244-0.333-0.387-0.502
					c-0.287-0.336-0.633-0.678-1.052-1.027c-0.395-0.341-0.832-0.681-1.375-1.039c-1.109-0.72-2.441-1.466-4.245-2.3
					c-1.76-0.806-4.956-1.486-7.794-1.867c2.328,0.33,0.984,1.136-1.037,2.159c-2.007,0.999-4.536,2.32-4.784,2.513
					c-1.436,1.109-2.293,2.361-3.129,3.689c-0.782,1.322-1.38,2.696-2.152,4.122c-2.875,5.43-6.203,11.512-5.428,16.941
					c0.811,5.66,2.486,10.562,4.127,14.852c0.803,2.029,1.605,4.058,2.41,6.09c0.788,2.095,1.577,4.191,2.368,6.294
					c2.559,7.242,5.363,14.488,7.37,22.287C257.387,231.438,258.052,236.577,259.316,241.652z"/>
			</g>
		</g>
	</g>
</g>
<g>
	<g>
		<g>
			<path fill="#FFFFFF" d="M71.958,179.594l-0.063,0.471C71.945,179.857,72.031,179.73,71.958,179.594z"/>
			<path fill="#FFFFFF" d="M88.899,130.847l0.081,0.413C89.03,131.073,88.978,130.944,88.899,130.847z"/>
			<path fill="#FFFFFF" d="M83.405,93.195l0.355-0.259C83.572,93.028,83.47,93.111,83.405,93.195z"/>
			<g>
				<path fill="#FFFFFF" d="M53.831,110.684c-2.175,2.234-3.994,4.801-5.441,7.564c-0.743,1.374-1.345,2.818-1.917,4.274
					c-0.275,0.732-0.514,1.479-0.755,2.225l-0.347,1.122c-0.109,0.369-0.186,0.691-0.277,1.04l-0.5,2.06l-0.107,0.48l-0.056,0.305
					l-0.11,0.611l-0.423,2.448c-0.273,1.633-0.528,3.268-0.763,4.905c-0.251,1.648-0.428,3.256-0.582,4.863
					c-0.159,1.61-0.299,3.222-0.421,4.834c-0.262,3.241-0.363,6.41-0.414,9.603c-0.194,13.123,0.911,26.135-1.151,38.763
					c-0.606,3.304-1.21,6.601-1.814,9.894c-0.684,3.226-1.366,6.448-2.049,9.67c-0.716,3.414-1.409,6.864-2.034,10.311
					c-0.601,3.458-1.263,6.896-1.547,10.431c-0.344,3.54-0.783,7.027-1.294,10.485c-0.236,1.732-0.575,3.442-0.775,5.174
					l-0.709,5.175c-0.5,3.444-1.051,6.881-1.63,10.328c-0.549,3.45-0.941,6.928-1.439,10.425c-0.458,3.367-0.709,6.778-0.872,10.144
					c-0.165,3.255-0.242,6.521-0.346,9.79c-0.104,3.269-0.236,6.541-0.512,9.798c-0.073,0.814-0.137,1.626-0.245,2.44
					c-0.125,0.816-0.261,1.631-0.41,2.444c-0.297,1.627-0.645,3.246-1.057,4.856c-0.886,3.439-1.999,6.814-2.965,10.228
					c-0.475,1.674,0.296,10.634,1.023,12.487c0.329,0.844,3.456-3.841,4.292-5.156c2.743-4.301,6.515-11.015,7.928-14.57
					c1.427-3.596,2.474-6.236,3.365-8.928c0.787-2.721,1.436-5.493,2.161-9.333c0.741-3.974,1.477-7.923,2.209-11.855
					c0.727-3.896,1.444-7.673,2.24-11.48c1.448-7.611,3.762-15.039,6.505-22.367c0.282-0.739,0.537-1.485,0.797-2.231
					c0.28-0.743,0.545-1.49,0.797-2.241c0.504-1.502,0.957-3.019,1.37-4.547c0.827-3.056,1.501-6.16,2.132-9.278
					c0.74-3.103,1.461-6.218,2.234-9.306c0.388-1.543,0.792-3.081,1.227-4.604l0.675-2.274c0.254-0.796,0.508-1.591,0.761-2.384
					c4.726-13.894,9.432-27.452,11.738-41.355c0.604-3.676,1.339-7.343,2.147-10.965c0.817-3.593,1.683-7.198,2.573-10.752
					l2.659-10.546c0.444-1.721,0.868-3.446,1.265-5.177l0.573-2.602c0.062-0.233,0.085-0.285,0.113-0.441l0.04-0.264
					c0.049-0.421,0.196-0.872,0.51-1.234l0.118-0.138l0.062-0.069l0.3-0.211c0.219-0.153,0.383-0.283,0.789-0.542l1.071-0.7
					c1.505-0.966,3.313-2.145,5.001-3.28c5.616-3.779,11.392-7.344,17.702-10.598c7.355-3.817,15.376-7.58,23.527-11.82l3.853-2.026
					l3.807-2.2l3.777-2.229l3.522-2.213l6.857-4.402l3.238-2.07l1.595-1.019c0.537-0.349,1.013-0.609,1.522-0.919
					c0.999-0.583,2.01-1.232,2.993-1.771l2.926-1.567c0.978-0.52,2.013-0.942,3.014-1.424l1.513-0.707l1.628-0.641l3.257-1.287
					l3.491-1.187l1.751-0.588l1.985-0.68l4.868-1.75c4.968-2.023,9.901-4.033,14.819-6.036c4.719-1.934,9.352-3.832,13.886-5.764
					c2.277-0.971,4.528-1.945,6.726-2.929c2.245-1.012,4.339-1.953,6.454-2.962c4.344-2.037,8.601-4.233,12.694-6.586
					c4.357-2.548,9.498-5.185,14.129-8.395c2.301-1.528,4.511-3.344,6.417-5.183c0.96-0.946,1.86-1.96,2.686-3.051
					c0.81-1.036,1.547-2.141,2.201-3.347c1.266-2.341,0.935-5.65,0.113-8.394c0.66,2.256-2.275,1.894-5.679,1.002
					c-3.372-0.801-7.205-2.059-7.69-2.126c-2.866-0.325-5.749-0.207-8.617,0.07c-2.853,0.343-5.741,0.69-8.564,1.03
					c-5.538,0.562-10.958,0.868-16.27,1.536c-2.679,0.333-5.264,0.751-7.889,1.348c-2.647,0.633-5.308,1.449-7.822,2.476
					c-5.342,2.186-10.46,4.431-15.491,6.687c-2.486,1.077-5.006,2.272-7.397,3.283l-3.601,1.585l-3.407,1.397
					c-1.215,0.545-2.048,0.762-3.009,1.123l-1.43,0.526l-2.238,0.74l-4.472,1.499c-1.484,0.493-3.061,1.154-4.584,1.73
					c-3.042,1.115-6.211,2.619-9.303,4.055l-4.574,2.391c-1.503,0.808-2.874,1.656-4.317,2.485
					c-1.252,0.715-2.348,1.411-3.451,2.108l-3.302,2.095l-6.144,4.018l-2.986,1.951l-1.493,0.977l-1.429,0.894
					c-1.899,1.165-3.756,2.367-5.688,3.508c-7.672,4.572-16.044,8.699-25.146,13.276c-2.736,1.42-5.485,2.71-8.324,4.229
					c-1.415,0.733-2.835,1.469-4.259,2.207c-1.424,0.747-2.839,1.568-4.266,2.353c-1.403,0.783-2.81,1.568-4.218,2.354l-3.533,1.945
					l-2.093,1.161l-1.377,0.81l-0.72,0.434l-0.931,0.599C58.271,106.671,55.896,108.523,53.831,110.684z"/>
			</g>
		</g>
	</g>
</g>
<g>
	<g>
		<g>
			<path fill="#FFFFFF" d="M321.08,87l-0.205-0.15C320.953,86.933,320.969,87.03,321.08,87z"/>
			<path fill="#FFFFFF" d="M348.325,111.292l-0.313,0.248C348.149,111.485,348.249,111.39,348.325,111.292z"/>
			<path fill="#FFFFFF" d="M377.364,89.894L377.563,90C377.491,89.921,377.429,89.895,377.364,89.894z"/>
			<g>
				<path fill="#FFFFFF" d="M367.062,78.749c-4.98-4.681-10.704-8.517-17.143-11.382c-6.626-2.925-13.919-4.924-19.536-9.233
					c-2.939-2.288-5.861-4.652-8.837-6.926c-1.493-1.136-2.985-2.25-4.556-3.312c-1.612-1.06-3.264-2.069-4.973-3
					c-0.86-0.468-1.7-0.953-2.523-1.453l-1.223-0.762c-0.369-0.249-0.922-0.553-1.367-0.83l-2.786-1.721
					c-0.918-0.515-1.827-1.04-2.73-1.574c-3.602-2.046-7.121-3.998-10.615-5.752c-3.384-1.732-7.016-2.542-10.461-3.437l-2.397-0.64
					c-0.535-0.126-1.322-0.448-2.049-0.781c-1.51-0.705-3.06-1.637-4.531-2.797c-1.578-1.248-3.092-2.711-4.913-4.055
					c-0.45-0.329-2.148-0.614-4.16-0.692c-1.043-0.039-2.087-0.024-3.169,0.071c-0.254,0.029-0.495,0.058-0.721,0.083
					c-0.281,0.034-0.54,0.074-0.771,0.118c-0.465,0.088-0.825,0.19-1.06,0.29c-0.216,0.092-0.039,0.342,0.327,0.686
					c0.183,0.172,0.412,0.368,0.662,0.58c0.261,0.211,0.524,0.44,0.718,0.683c0.92,0.952,1.618,2.01,1.944,2.445
					c1.982,2.915,4,7.038,5.354,8.73c1.352,1.705,2.338,2.963,3.448,4.11c0.554,0.574,1.149,1.122,1.85,1.689
					c0.381,0.288,0.735,0.572,1.211,0.88c0.44,0.272,0.906,0.561,1.405,0.871c3.77,2.266,7.462,4.309,10.835,6.683
					c3.343,2.364,6.479,5.034,8.549,8.336c0.471,0.642,0.822,1.276,1.271,1.829c0.453,0.587,0.84,0.986,1.472,1.663
					c1.171,1.227,2.445,2.331,3.749,3.402c1.308,1.087,2.631,2.074,3.93,3.232c1.297,1.151,2.543,2.354,3.658,3.687
					c2.416,2.876,4.661,5.953,7.028,8.95c2.367,2.979,4.849,5.801,7.765,8.223c6.233,5.116,10.839,11.912,17.08,16.928
					c3.069,2.479,6.226,4.83,9.371,7.24c3.152,2.433,6.281,4.894,9.271,7.522c3.507,3.066,6.844,6.247,10.219,9.528
					c4.269,4.145,8.802,7.979,13.377,11.755l3.437,2.826l3.502,2.751c2.331,1.838,4.646,3.695,6.918,5.604
					c4.109,3.454,7.609,7.548,11.243,11.513c1.613,1.849,3.173,3.574,4.894,5.23c1.711,1.739,3.543,3.342,5.607,4.73
					c2.15,1.521,4.536,3.47,7.475,4.729c2.862,1.305,6.22,1.979,10.512,0.976c2.083-0.488,4.683-2.474,6.763-4.442
					c-1.71,1.612-1.846-0.328-1.59-2.791c0.259-2.458,0.895-5.454,0.895-5.778c0.054-3.946-1.37-6.886-2.215-10.284
					c-0.415-1.643-0.751-3.334-1.112-5.002c-0.379-1.65-0.762-3.298-1.217-4.901c-0.454-1.604-0.981-3.162-1.647-4.631
					c-0.694-1.46-1.572-2.822-2.631-4.051c-0.558-0.643-1.124-1.278-1.697-1.905l-1.642-1.768c-1.051-1.112-2.124-2.194-3.215-3.25
					c-2.183-2.113-4.439-4.127-6.74-6.086c-2.302-1.958-4.648-3.862-7.01-5.754l-3.549-2.836l-3.478-2.942
					c-3.93-3.356-7.943-6.612-11.936-9.896l-2.987-2.47l-2.978-2.564c-1.976-1.72-3.933-3.463-5.855-5.245
					C376.177,88.11,371.866,83.247,367.062,78.749z"/>
			</g>
		</g>
	</g>
</g>
<g>
	<g>
		<g>
			<path fill="#FFFFFF" d="M112.489,169.26l0.07,0.257C112.548,169.399,112.597,169.315,112.489,169.26z"/>
			<path fill="#FFFFFF" d="M112.361,151.337l0.212,0.387C112.51,151.594,112.435,151.459,112.361,151.337z"/>
			<path fill="#FFFFFF" d="M110.674,116.131l0.518-0.063C110.941,116.062,110.787,116.087,110.674,116.131z"/>
			<g>
				<path fill="#FFFFFF" d="M78.972,122.874c-0.624,0.665-1.263,1.319-1.843,2.022l-1.598,2.22c-0.496,0.76-0.925,1.558-1.385,2.338
					c-0.453,0.784-0.74,1.634-1.111,2.451c-1.341,3.311-1.938,6.763-1.931,10.345c0.014,3.583,0.751,7.367,2.06,11.193l1.107,2.868
					c0.385,0.95,0.837,1.9,1.255,2.837l1.286,2.788l0.322,0.688l0.162,0.342l0.04,0.085l0.021,0.043l0.06,0.192l0.134,0.414
					l0.014,0.014l0.237,0.217l0.269,0.23c0.07,0.034,0.129,0.036,0.204,0.059l0.237,0.061l0.016,0.004l0.167-0.012l0.088-0.005
					l0.022-0.001c-0.396,0.952-0.108,0.267-0.196,0.481l0.005,0.012l0.02,0.048L78.713,165l0.159,0.385l1.297,3.078
					c0.895,2.118,1.79,4.235,2.686,6.356c0.983,2.333,1.913,4.648,2.739,6.954c0.904,2.186,1.695,4.388,2.317,6.642
					c0.695,2.324,1.389,4.643,2.082,6.959c0.695,2.274,1.404,4.455,2.132,6.676c0.717,2.176,1.435,4.274,2.231,6.396
					c0.772,2.102,1.531,4.146,2.431,6.204c0.916,2.064,1.547,4.148,2.205,6.246l0.461,1.576l0.51,1.881l0.327,1.12
					c0.128,0.42,0.278,0.913,0.377,1.186l0.657,1.88c1.634,4.45,3.268,8.901,4.927,13.421c1.546,4.229,3.843,8.079,5.978,11.963
					c2.134,3.879,4.126,7.817,4.971,12.056c0.445,2.259,0.604,4.556,0.774,6.668c0.042,0.515,0.925,1.858,1.803,2.995
					c0.213,0.273,0.459,0.585,0.647,0.782c0.199,0.211,0.43,0.483,0.589,0.568c0.169,0.095,0.377,0.332,0.508,0.265
					c0.04,0.001,0.077,0.002,0.112,0.002c0.112,0.009,0.217,0.017,0.315,0.023c0.489,0.04,0.904,0.096,1.233,0.147
					c0.3,0.049,0.315,0.053,0.102,0.017c-0.111-0.017-0.273-0.041-0.482-0.072c-0.096-0.012-0.203-0.025-0.32-0.04
					c0.032-0.002,0.067-0.003,0.105-0.004c0.144-0.008,0.308-0.027,0.487-0.066c0.187-0.021,0.336-0.209,0.514-0.335
					c0.36-0.262,0.669-0.701,0.928-1.107c0.275-0.393,0.451-0.802,0.566-1.037c1.508-3.161,2.501-8.778,2.459-11.412
					c-0.096-5.39-0.275-7.9-1.664-12.969c-1.448-5.229-3.037-10.313-4.329-15.439c-0.644-2.562-1.218-5.138-1.631-7.71
					c-0.205-1.283-0.376-2.574-0.467-3.819c-0.059-0.638-0.065-1.225-0.083-1.833c0.02-0.54,0.001-1.236,0.169-1.402l0.069-0.164
					c0.013-0.105,0.015-0.269,0.021-0.4l0.012-0.416l0.002-0.104l0-0.026l0-0.013c-0.015-0.07,0.132,0.59,0.07,0.308v-0.007
					l0.001-0.054l0.003-0.217c0.006-0.579-0.003-1.157-0.027-1.734c-0.046-1.155-0.148-2.308-0.291-3.457
					c-0.144-1.148-0.323-2.296-0.537-3.435c-0.245-1.122-0.515-2.24-0.796-3.357c-0.563-2.232-1.16-4.481-1.745-6.622
					c-0.567-2.151-1.082-4.4-1.377-6.498c-0.313-2.294-0.635-4.688-0.795-6.891c-0.175-2.231-0.43-4.496-0.511-6.635
					c-0.064-1.08-0.14-2.153-0.233-3.22l-0.144-1.584l-0.083-1.492c-0.068-0.99-0.163-1.971-0.293-2.946
					c-0.124-1.007-0.315-1.84-0.464-3.098c-0.356-2.481-0.575-4.979-0.727-7.483l-0.007-0.117l-0.003-0.059l-0.001-0.029l0-0.007
					c0.102,0.877,0.027,0.235,0.05,0.428l-0.002-0.027l-0.041-0.435l-0.087-0.87l-0.202-1.742l-0.255-1.513l-0.134-0.752
					l-0.069-0.376c-0.004-0.029-0.055-0.266,0.042,0.138l0.042,0.186l0.001-0.005l0.002-0.011c0.051-0.227,0.108-0.433,0.166-0.617
					c0.235-0.755,0.54-1.052,0.521-1.681c-0.002-0.159,0.016-0.319,0.048-0.482c0.037-0.161,0.076-0.342,0.195-0.382
					c0.203-0.146,0.437-0.339,0.729-0.477c0.287-0.137,0.644-0.285,1.013-0.373c0.181-0.041,0.371-0.073,0.566-0.094l1.508-0.026
					l1.677-0.008c2.681,0.124,5.354,0.266,8.036,0.465c2.724,0.281,5.435,0.582,8.154,0.945c6.935,1.02,13.909,1.741,21.125,2.533
					c1.645,0.188,3.926,0.381,6.03,0.56c2.027,0.126,4.035,0.246,5.983,0.33l11.387,0.427c13.46,0.537,26.14,4.279,38.937,3.441
					c1.684-0.105,3.496-0.166,5.383-0.325c1.846-0.132,3.764-0.358,5.633-0.776c0.916-0.198,1.831-0.45,2.74-0.771
					c0.455-0.161,0.907-0.339,1.357-0.537c0.426-0.186,0.85-0.391,1.272-0.618c0.845-0.453,1.683-0.992,2.509-1.632
					c0.818-0.637,1.529-1.333,2.3-2.169c1.467-1.619,2.479-4.746,3.008-7.56c-0.451,2.309-1.928,0.793-3.584-1.398
					c-1.68-2.111-3.51-4.89-3.777-5.147c-1.573-1.511-3.313-2.662-5.093-3.671c-1.771-0.985-3.598-1.882-5.371-2.914
					c-6.869-4.004-13.076-8.973-20.462-10.202c-7.729-1.276-15.364-1.793-22.823-2.122c-3.651-0.15-7.302-0.301-10.958-0.451
					c-0.91-0.032-1.766-0.084-2.612-0.14l-2.551-0.159c-1.572-0.156-2.952-0.254-5.049-0.521
					c-13.135-1.564-26.717-2.584-40.947-3.237c-1.084-0.033-2.172-0.067-3.265-0.101c-1.822-0.007-3.652-0.015-5.487-0.023
					l-2.92-0.015l-1.466-0.005l-1.419,0.104c-1.905,0.137-3.815,0.275-5.729,0.413c-1.932,0.14-3.868,0.279-5.807,0.419
					l-1.462,0.107l-0.73,0.056l-0.52,0.275l-2.083,1.11l-4.171,2.264l-2.084,1.154l-1.041,0.583l-0.26,0.146l-0.065,0.036
					c0.043,0.078-0.021,0.055-0.026,0.088l-0.114,0.118L78.972,122.874z"/>
			</g>
		</g>
	</g>
</g>
<g>
	<g>
		<g>
			<path fill="#FFFFFF" d="M375.732,276.811l-0.116,0.178C375.685,276.921,375.773,276.911,375.732,276.811z"/>
			<path fill="#FFFFFF" d="M394.666,253.026l0.276,0.285C394.872,253.188,394.769,253.097,394.666,253.026z"/>
			<path fill="#FFFFFF" d="M370.465,226.657l0.067-0.174C370.471,226.544,370.455,226.6,370.465,226.657z"/>
			<g>
				<path fill="#FFFFFF" d="M361.702,235.471c-3.577,4.239-6.26,9.162-7.961,14.779c-0.864,2.916-1.561,5.891-2.428,8.778
					c-0.869,2.882-1.926,5.643-3.563,7.985c-3.481,4.955-7.374,9.507-10.099,15.076l-0.261,0.522l-0.066,0.129l-0.017,0.032
					l-0.008,0.017l-0.002,0.004c-0.075,0.088,0.645-0.748,0.339-0.393l-0.005,0.008l-0.038,0.063l-0.153,0.247l-0.63,0.974
					l-0.284,0.417l-0.171,0.239l-0.351,0.484c-0.075,0.136-0.323,0.384-0.554,0.613l-0.691,0.675
					c-0.443,0.441-0.996,0.889-1.525,1.319c-2.134,1.732-4.603,3.314-7.155,4.922c-4.935,3.114-8.113,8.866-13.805,11.683
					c-0.764,0.362-1.582,0.753-2.401,1.1c-0.813,0.336-1.663,0.739-2.5,1.193c-0.205,0.109-0.486,0.481-0.786,0.995
					c-0.308,0.529-0.664,1.284-0.961,2.016c-0.152,0.376-0.284,0.733-0.417,1.121c-0.147,0.424-0.272,0.832-0.372,1.207
					c-0.198,0.75-0.29,1.364-0.258,1.719c0.027,0.322,1.021,0.226,2.083,0.104c0.505-0.063,1.059-0.131,1.552-0.191
					c0.456-0.021,0.855-0.041,1.098-0.053c3.076-0.256,7.192-0.073,8.968-0.431c3.64-0.655,5.279-0.934,8.354-2.451
					c3.175-1.563,6.292-3.157,9.596-4.609c3.313-1.469,6.757-2.704,10.846-3.893c0.841-0.27,1.649-0.604,2.429-0.987
					c0.176-0.074,0.426-0.238,0.663-0.395l0.703-0.479c0.466-0.327,0.923-0.672,1.371-1.029c0.521-0.419,0.695-0.566,0.994-0.824
					c0.273-0.239,0.542-0.483,0.806-0.733l1.133-1.279l0.708-0.84c1.869-2.259,3.605-4.635,5.889-6.505
					c4.942-4.051,10.668-7.506,14.489-12.534c2.057-2.668,4.44-5.02,6.82-7.382c2.382-2.36,4.751-4.734,6.658-7.469
					c3.757-5.388,7.061-11.134,11.028-16.333c2.305-3.024,4.725-5.962,7.262-8.808c3.204-3.596,6.08-7.434,8.899-11.313
					c1.412-1.933,2.798-3.908,4.226-5.809c1.431-1.896,2.88-3.777,4.383-5.618c2.721-3.328,6.098-6.064,9.326-8.911
					c1.615-1.424,3.193-2.875,4.637-4.445c0.722-0.785,1.409-1.6,2.052-2.456c0.321-0.428,0.631-0.866,0.928-1.316l0.22-0.34
					c0.062-0.098,0.172-0.269,0.177-0.289c0.054-0.102,0.102-0.208,0.146-0.319c0.192-0.526,0.393-0.889,0.513-1.366
					c0.06-0.186,0.099-0.41,0.114-0.685c0.023-0.214,0.021-0.482-0.005-0.823c-0.006-0.301-0.029-0.655-0.074-1.109
					c-0.025-0.519-0.051-1.028-0.075-1.523c-0.015-1.163-0.069-2.722-0.035-4.67c-0.007-1.912-0.638-5.121-1.41-7.877
					c0.619,2.284-0.675,1.319-2.467-0.055c-0.882-0.667-1.927-1.485-2.787-2.073c-0.857-0.587-1.553-1.021-1.693-1.078
					c-3.438-1.372-6.748-0.593-10.229,0.085c-1.652,0.348-3.428,0.708-5.082,1.17c-1.816,0.574-3.113,0.703-4.531,1.037
					c-2.773,0.619-5.323,1.476-7.259,3.071c-4.053,3.345-7.547,7.122-10.818,11.075c-1.636,1.977-3.216,3.998-4.783,6.032
					c-1.571,2.034-3.046,4.087-4.598,6.121c-5.245,6.914-10.069,14.138-15.545,20.876
					C368.985,227.677,365.137,231.403,361.702,235.471z"/>
			</g>
		</g>
	</g>
</g>
<g>
	<g>
		<g>
			<path fill="#FFFFFF" d="M280.063,418.063l-0.054,0.138C280.052,418.148,280.128,418.142,280.063,418.063z"/>
			<path fill="#FFFFFF" d="M291.34,399.98l0.312,0.243C291.56,400.121,291.447,400.043,291.34,399.98z"/>
			<path fill="#FFFFFF" d="M263.977,377.291l0.029-0.144C263.961,377.196,263.958,377.243,263.977,377.291z"/>
			<g>
				<path fill="#FFFFFF" d="M257.589,384.432c-2.406,3.517-3.833,7.642-4.177,12.271c-0.304,4.81,0.496,10.096-1.296,14.035
					c-1.865,4.195-4.083,8.175-4.999,12.818c-0.852,4.699-2.991,8.587-5.295,12.581c-0.138,0.241-0.264,0.487-0.38,0.738
					c-0.112,0.24-0.235,0.54-0.296,0.704c-0.145,0.388-0.253,0.793-0.343,1.214l-0.518,2.515c-0.234,0.765-0.437,1.646-0.87,2.268
					c-0.206,0.325-0.431,0.65-0.705,0.913c-0.289,0.236-0.61,0.44-0.967,0.596c-0.374,0.188-0.819,0.228-1.238,0.281
					c-0.424,0.042-0.819,0.115-1.217,0.096c-0.197-0.01-0.268,0.685-0.364,1.492c-0.101,0.769-0.212,1.752-0.16,2.303
					c0.025,0.249,0.53,0.765,1.159,1.242c0.623,0.479,1.379,0.915,1.713,1.087c1.081,0.567,2.441,0.99,3.842,1.282
					c1.324,0.205,2.653,0.243,3.424,0.092c1.497-0.354,2.718-0.662,3.694-1.187c0.505-0.254,0.99-0.54,1.491-0.889
					c0.488-0.355,0.947-0.79,1.477-1.313l0.809-0.82l0.737-0.853c0.479-0.574,1.011-1.145,1.449-1.738l1.379-1.781
					c0.45-0.564,0.847-1.014,1.292-1.515c1.75-1.947,3.733-3.767,6.289-5.302c4.066-2.495,4.527-6.966,7.483-10.024
					c3.162-3.324,7.392-5.99,9.379-9.899c0.533-1.04,1.186-2.013,1.894-2.95c0.724-0.93,1.532-1.811,2.319-2.7
					c1.583-1.775,3.144-3.551,4.202-5.631l3.032-6.226c1.01-2.08,2.053-4.146,3.28-6.099c1.455-2.265,3.104-4.41,4.831-6.49
					c1.098-1.312,2.108-2.678,3.068-4.076c0.997-1.377,1.947-2.785,2.882-4.204c1.885-2.828,3.637-5.749,5.773-8.406
					c1.903-2.423,4.487-4.285,6.913-6.244c2.846-2.468,6.1-6.024,7.785-11.149c0.895-2.64,1.882-6.082,1.59-9.568
					c-0.13-1.725-0.683-3.462-1.54-5.006c-0.887-1.546-2.307-2.896-4.117-3.966c-1.783-1.042-5.021-1.261-7.884-1.247
					c2.351-0.03,1.035,1.161-0.93,2.094c-1.923,0.969-4.654,1.542-4.891,1.618c-1.498,0.539-2.534,1.062-3.615,1.505
					c-1.051,0.448-1.905,0.862-3.057,1.107c-2.115,0.49-4.491,0.468-6.531,0.449c-2.061-0.015-3.829-0.002-5.003,0.72
					c-0.322,0.2-0.634,0.404-0.934,0.613c-0.157,0.112-0.283,0.191-0.457,0.336l-0.554,0.482c-0.729,0.65-1.431,1.323-2.105,2.016
					c-1.352,1.384-2.604,2.842-3.8,4.344c-2.423,2.978-4.471,6.244-6.693,9.399c-0.941,1.344-1.855,2.706-2.76,4.075
					c-0.89,1.38-1.738,2.79-2.611,4.181c-1.728,2.797-3.523,5.541-5.416,8.233C262.817,378.084,259.979,381.113,257.589,384.432z"/>
			</g>
		</g>
	</g>
</g>
<g>
	<g>
		<g>
			<path fill="#FFFFFF" d="M208.134,392.978l0.126,0.109C208.219,393.023,208.233,392.944,208.134,392.978z"/>
			<path fill="#FFFFFF" d="M192.782,373.886l0.339-0.204C192.989,373.727,192.877,373.805,192.782,373.886z"/>
			<path fill="#FFFFFF" d="M161.686,391.313l-0.137-0.092C161.585,391.288,161.632,391.312,161.686,391.313z"/>
			<g>
				<path fill="#FFFFFF" d="M167.159,400.868c1.465,2.016,3.111,3.859,5.047,5.501c1.969,1.64,4.152,3.079,6.539,4.292
					c1.212,0.63,2.526,1.192,3.853,1.738c1.319,0.549,2.637,1.085,3.91,1.654c1.273,0.568,2.501,1.17,3.644,1.851
					c1.193,0.656,2.299,1.39,3.283,2.252c1.525,1.34,2.976,2.734,4.472,4.089c0.784,0.653,1.573,1.301,2.374,1.933
					c0.25,0.203,0.259,0.187,0.378,0.268l0.293,0.178c0.198,0.118,0.404,0.233,0.619,0.346c0.296,0.148,0.612,0.293,0.957,0.433
					l0.541,0.206c0.162,0.081,0.195,0.231,0.313,0.345l0.034,0.035c0.205,0.231,0.414,0.47,0.625,0.746
					c0.12,0.159,0.234,0.322,0.345,0.489c0.018,0.02,0.073,0.121,0.126,0.22l0.153,0.284l0.303,0.567
					c0.75,1.358,1.496,2.711,2.242,4.064c1.398,2.542,2.637,4.92,3.863,7.286c1.188,2.29,3.045,4.057,4.719,5.837
					c1.658,1.759,3.212,3.637,3.478,5.705c0.13,1.072-0.053,2.211-0.382,2.654c-0.025,0.018-0.018,0.022,0.025,0.028
					c0.026,0.002,0.056,0.003,0.087,0.005l0.062,0.003l0.018,0.001l0.141-0.021l0.312-0.043c0.741-0.133,1.382-0.268,2.176-0.306
					c0.874-0.008,1.337-0.103,1.957-0.057c0.149,0.01,0.299,0.024,0.45,0.045c0.156,0.023,0.311,0.053,0.381,0.045
					c0.186,0.007,0.375,0.033,0.561,0.08c0.093,0.022,0.185,0.051,0.276,0.083c0.098,0.036,0.186,0.072,0.204,0.068
					c0.077,0.016,0.154,0.042,0.229,0.077c0.067,0.03,0.165,0.094,0.197,0.119c-0.011-0.009-0.017-0.015-0.019-0.02
					c-0.004-0.008,0.004-0.006,0.01-0.002c0.007,0.005-0.001-0.003-0.008-0.004c-0.003,0-0.005,0.003,0,0.01l0.015,0.015
					l-0.108-0.071c-0.095-0.056-0.194-0.096-0.287-0.118l-0.069-0.014l-0.145-0.054c-0.104-0.038-0.207-0.068-0.306-0.093
					c-0.1-0.024-0.195-0.042-0.286-0.054c0.052,0.014,0.135,0.029,0.196,0.039c0.138,0.033,0.226-0.018,0.306-0.025
					c1.075-0.14,2.119-1.438,2.762-2.749c0.677-1.333,1.05-2.704,1.136-3.559c0.278-3.449,0.212-5.089-0.798-7.992
					c-1.063-2.985-2.245-5.797-3.113-8.671c-0.434-1.437-0.793-2.891-0.997-4.359c-0.21-1.469-0.272-2.966-0.062-4.395
					c0.125-0.981,0.18-1.777,0.172-2.415l-0.003-0.063l-0.073-0.12l-0.148-0.24l-0.308-0.479l-0.319-0.478
					c-0.117-0.153-0.142-0.367-0.22-0.548l-0.81-2.225c-0.188-0.493-0.322-0.964-0.528-1.441l-0.85-1.399l-1.705-2.803
					c-0.827-0.771-1.639-1.555-2.425-2.368c-0.182-0.19-0.426-0.439-0.552-0.587l-0.311-0.393c-0.203-0.266-0.396-0.541-0.577-0.826
					c-0.686-1.029-1.267-2.199-1.843-3.358c-0.577-1.156-1.144-2.311-1.739-3.427c-1.213-2.185-2.442-4.42-4.158-6.192
					c-0.913-0.946-1.725-1.979-2.482-3.062c-0.738-1.128-1.424-2.297-2.112-3.459c-1.378-2.321-2.761-4.608-4.563-6.656
					c-3.581-3.926-7.59-7.688-10.938-12.018c-1.961-2.567-3.788-5.192-5.533-7.962c-2.166-3.461-4.959-6.966-6.82-9.505
					l-1.583-2.051c-0.506-0.704-0.971-1.449-1.456-2.175l-1.424-2.203c-0.23-0.372-0.474-0.733-0.688-1.118l-0.612-1.182
					c-0.721-1.435-1.265-2.947-1.694-4.504c-0.375-1.606-0.667-3.231-0.998-4.82c-0.338-1.582-0.598-3.244-1.092-4.772
					c-0.5-1.519-1.077-3.072-1.979-4.507c-1.933-3.021-3.731-7.581-11.862-8.318c-1.978-0.172-5.143,0.592-7.868,1.471
					c4.466-1.463-3.473,5.665-3.794,6.146c-2.011,2.703-2.411,5.132-3.504,7.734c-1.021,2.52-2.289,5.096-3.245,7.639
					c-0.949,2.538-1.437,5.046-1.043,7.37c1.833,9.752,7.18,18.357,13.071,26.583l1.911,2.618l0.965,1.289l0.859,1.069l3.456,4.261
					c2.286,2.826,4.634,5.784,6.773,8.808c1.286,1.818,2.534,3.79,3.754,5.771C164.506,396.923,165.744,398.932,167.159,400.868z"/>
			</g>
		</g>
	</g>
</g>
<g>
	<g>
		<g>
			<path fill="#FFFFFF" d="M273.511,109.878V110C273.531,109.949,273.6,109.925,273.511,109.878z"/>
			<path fill="#FFFFFF" d="M276.894,92.733l0.383,0.095C277.151,92.775,277.018,92.749,276.894,92.733z"/>
			<path fill="#FFFFFF" d="M242.618,83.769l-0.036-0.107C242.563,83.708,242.581,83.74,242.618,83.769z"/>
			<g>
				<path fill="#FFFFFF" d="M239.972,90.362c-0.786,3.025-0.46,6.226,1.052,9.612c1.546,3.481,4.224,7.175,3.945,10.407
					c-0.282,3.43-1.122,6.721-0.446,10.336c0.697,3.649-0.368,6.809-1.39,10.096c-0.503,1.578-0.204,3.326-0.015,5.057
					c0.152,1.688,0.166,3.347-0.82,4.764c-0.534,0.752-1.291,1.436-1.901,2.155c-0.299,0.347,1.281,2.971,2.149,3.658
					c0.393,0.313,2.965-0.282,3.65-0.468c2.242-0.588,5.271-1.684,6.315-2.405c2.11-1.451,3.061-2.163,4.09-3.974
					c2.01-3.731,3.52-7.443,7.593-10.766c3.303-2.706,2.177-6.39,4.034-9.408c1.973-3.268,4.986-6.388,5.429-9.96
					c0.498-3.798,3.166-7.226,3.521-11.059c0.359-3.775,0.029-7.643,0.622-11.376c0.338-2.18,0.817-4.34,1.445-6.478
					c1.521-5.435,1.385-11.097,2.318-16.615c0.377-2.534,1.624-4.931,2.691-7.37c0.533-1.219,1.021-2.446,1.331-3.7
					c0.313-1.249,0.452-2.517,0.221-3.936c-0.459-2.924-0.419-6.905-7.732-9.607c-1.779-0.655-5.008-0.97-7.869-1.102
					c4.693,0.245-5.291,2.683-5.76,2.821c-2.859,1.087-4.164,2.362-6.147,3.5c-1.928,1.105-4.114,2.063-6.02,3.072
					c-1.931,1.034-3.54,2.104-4.227,3.369c-1.434,2.652-2.163,5.351-2.608,8.086c-0.485,2.755-0.738,5.574-1.104,8.375
					c-0.319,2.382-0.508,4.782-0.734,7.178c-0.268,2.401-0.571,4.799-1.076,7.167C241.92,84.625,240.685,87.457,239.972,90.362z"/>
			</g>
		</g>
	</g>
</g>
<g>
	<g>
		<g>
			<path fill="#FFFFFF" d="M81.675,337.951l-0.077,0.05C81.64,337.998,81.688,338.048,81.675,337.951z"/>
			<path fill="#FFFFFF" d="M95.528,333.582l0.109,0.379C95.618,333.827,95.575,333.697,95.528,333.582z"/>
			<path fill="#FFFFFF" d="M85.357,299.722l0.044-0.073C85.366,299.649,85.355,299.678,85.357,299.722z"/>
			<g>
				<path fill="#FFFFFF" d="M80.137,299.965c-2.406,0.559-4.73,2.237-6.799,5.16c-1.033,1.485-2.03,3.299-3.026,4.855
					c-1.022,1.62-2.094,2.977-3.439,3.76c-1.424,0.829-2.913,1.488-4.296,2.357c-1.396,0.845-2.736,1.798-3.83,3.157
					c-2.179,2.64-5.169,3.962-8.377,5.82c-1.551,0.876-2.616,2.616-3.617,4.264c-0.499,0.878-0.991,1.721-1.573,2.47
					c-0.555,0.826-1.201,1.554-2.063,2.158c-0.896,0.677-1.952,1.338-2.917,2.111c-0.258,0.174-0.192,1.207,0.037,2.229
					c0.229,1.031,0.647,2.05,1.019,2.456c0.167,0.187,0.954,0.14,1.776,0.074c0.761-0.068,1.651-0.148,2.036-0.183
					c1.18-0.113,2.491-0.226,3.733-0.209c1.215-0.006,2.228,0.031,2.754-0.026c2.267-0.133,3.118-0.064,4.482-0.595
					c2.721-1.048,5.527-2.014,9.697-0.609c3.346,1.166,4.875-1.583,7.631-1.498c1.477,0.015,3.073,0.376,4.535,0.516
					c1.504,0.185,2.873,0.207,4.101-0.323c2.567-1.145,6.08-0.14,9.126-1.505c2.994-1.328,6.209-3.401,9.763-4.983l3.17-1.356
					l3.255-1.312c2.778-1.087,5.278-2.687,7.575-4.396c1.123-0.869,2.293-1.733,3.357-2.62c1.067-0.887,2.145-1.756,3.264-2.577
					c1.57-1.151,3.491-1.455,4.689-1.271l0.453,0.031c0.151,0,0.291,0.007,0.382,0.062c0.206,0.078,0.383,0.128,0.53,0.129
					c0.173-0.038,0.197,0.06,0.228,0.016c0.022-0.019,0.022-0.163-0.013-0.307c-0.072-0.268-0.161-0.591-0.214-1.623
					c-0.091-1.165,0.034-3.008,0.473-6.812c0.215-1.841,0.436-5.092,0.527-7.954c-0.091,2.35-0.459,1.105-1.072-0.791
					c-0.587-1.896-1.514-4.424-1.643-4.646c-0.716-1.334-1.527-2.177-2.396-2.938c-0.871-0.745-1.804-1.399-2.799-2.06
					c-0.972-0.671-2.017-1.389-3.123-2.069c-1.107-0.681-2.204-1.233-3.37-1.722c-2.39-0.97-4.58-1.397-6.55-0.886
					c-3.854,1.073-6.797,2.869-8.926,4.436l-0.652,0.462l-0.582,0.431c-0.384,0.293-0.76,0.595-1.133,0.902
					c-0.747,0.633-1.48,1.128-2.233,1.689c-2.563,1.761-4.79,3.63-7.737,4.623C84.626,299.461,82.366,299.44,80.137,299.965z"/>
			</g>
		</g>
	</g>
</g>
</svg>
