<?xml version="1.0" encoding="utf-8"?>
<!-- Generator: Adobe Illustrator 16.0.0, SVG Export Plug-In . SVG Version: 6.00 Build 0)  -->
<!DOCTYPE svg PUBLIC "-//W3C//DTD SVG 1.1//EN" "http://www.w3.org/Graphics/SVG/1.1/DTD/svg11.dtd">
<svg version="1.1" id="Layer_1" xmlns="http://www.w3.org/2000/svg" xmlns:xlink="http://www.w3.org/1999/xlink" x="0px" y="0px"
	 width="500px" height="500px" viewBox="0 0 500 500" enable-background="new 0 0 500 500" xml:space="preserve">
<g>
	<g>
		<g>
			<g>
				<path fill="#231F20" d="M345.78,365.418l-0.676,0.645C345.423,365.788,345.667,365.65,345.78,365.418z"/>
				<path fill="#231F20" d="M389.793,248.583l0.413,0.219C390.055,248.575,389.915,248.547,389.793,248.583z"/>
				<path fill="#231F20" d="M350.85,231.805l-0.227-0.542C350.696,231.533,350.772,231.692,350.85,231.805z"/>
				<g>
					<path fill="#231F20" d="M353.075,270.668c-1.053,8.648-2.964,17.253-5.592,25.874l-1.008,3.236l-0.489,1.626l-0.602,1.605
						c-0.803,2.142-1.577,4.301-2.343,6.475c-0.912,2.132-1.804,4.28-2.678,6.446l-0.651,1.629l-0.746,1.601l-1.481,3.217
						l-1.505,3.343c-0.497,1.072-0.983,1.978-1.471,2.988c-0.247,0.491-0.478,0.998-0.736,1.482l-0.813,1.426
						c-0.561,0.938-1.041,1.957-1.664,2.855c-2.286,3.782-5.039,7.28-8.105,10.599c-3.063,3.323-6.585,6.316-10.465,8.942
						c-3.88,2.62-8.08,4.943-12.622,6.699c-4.79,1.888-9.778,3.414-14.884,4.657l-3.854,0.873l-3.995,0.764l-4.001,0.766
						l-4.014,0.625c-10.707,1.673-21.457,2.632-32.293,2.987c-21.843,0.72-43.03-4.244-62.81-13.433
						c-2.365-1.163-4.77-2.226-7.154-3.342c-2.341-1.186-4.759-2.315-7.085-3.463l-3.258-1.789
						c-1.078-0.614-2.227-1.117-3.243-1.848l-3.148-2.043l-1.582-1.024l-1.5-1.155c-8.104-6.023-15.298-13.754-20.918-22.776
						c-0.775-1.176-1.451-2.455-2.165-3.682l-1.048-1.859l-0.521-0.93l-0.26-0.465l-0.156-0.378l-0.629-1.478l-0.32-0.725
						l-0.208-0.758c-0.141-0.501-0.289-0.994-0.444-1.481s-0.172-1.012-0.279-1.506c-0.043-0.245-0.158-0.6-0.337-1.037
						c-0.151-0.446-0.265-1.004-0.474-1.613c-0.105-0.309-0.216-0.632-0.331-0.967c-0.072-0.352-0.146-0.715-0.222-1.087
						c-0.151-0.75-0.414-1.535-0.46-2.372c-0.055-0.419-0.11-0.838-0.165-1.252c-0.063-0.418-0.136-0.836-0.125-1.255
						c-0.024-0.836-0.065-1.651-0.117-2.406c0.032-1.509,0.06-2.772-0.036-3.43c-0.081-0.599-1.13,0.656-2.375,2.437
						c-0.571,0.892-1.074,1.923-1.573,2.869c-0.266,0.472-0.417,0.926-0.569,1.326c-0.149,0.406-0.277,0.754-0.374,1.016
						c-0.156,0.441-0.318,0.896-0.484,1.364c-0.129,0.472-0.225,0.961-0.342,1.469c-0.217,1.014-0.506,2.104-0.547,3.221
						c-0.075,1.118-0.262,2.319-0.142,3.489c0.086,1.175,0.046,2.435,0.331,3.6c0.114,0.599,0.228,1.195,0.341,1.786l0.179,0.894
						c0.091,0.284,0.182,0.566,0.272,0.847c0.376,1.114,0.734,2.255,1.144,3.279c0.854,1.99,1.662,3.774,2.362,5.193
						c1.424,2.865,2.822,5.274,4.056,7.549c1.321,2.22,2.613,4.226,3.918,6.242c1.367,1.973,2.861,3.881,4.491,5.983
						c0.824,1.045,1.798,2.047,2.785,3.152c1.016,1.08,2.032,2.282,3.258,3.448c2.575,2.366,5.052,4.849,7.878,6.94l2.066,1.633
						c0.69,0.542,1.366,1.105,2.113,1.569l4.392,2.921c1.467,1.027,2.936,1.812,4.404,2.675l4.403,2.557
						c1.486,0.819,3,1.587,4.499,2.387c1.511,0.774,2.986,1.63,4.527,2.347c12.202,6.027,24.983,11.008,38.355,15.197
						c10.834,3.355,22.498,4.669,34.096,4.76c11.623,0.103,23.181-0.986,34.483-2.127c3.066-0.296,6.109-0.711,9.177-1.051
						c3.097-0.431,6.275-0.878,9.418-1.508c6.302-1.203,12.64-2.785,18.899-4.99c6.252-2.218,12.428-5.022,18.313-8.526
						c5.878-3.501,11.475-7.688,16.463-12.558c5.297-5.185,10.106-10.854,14.32-16.872l1.588-2.256l1.368-2.147l2.73-4.29
						c1.883-2.813,3.508-5.839,5.196-8.819c6.644-11.971,12.102-25.062,14.951-39.035c2.826-13.745,3.423-28.089,1.781-42.054
						c-1.614-13.984-5.406-27.514-10.548-40.201c-1.382-3.779-3.169-7.31-4.831-10.92l-1.263-2.698
						c-0.446-0.881-0.928-1.737-1.391-2.606l-2.803-5.199c-0.477-0.873-0.915-1.719-1.424-2.614l-1.71-2.807
						c-0.561-0.949-1.172-1.839-1.78-2.734c-0.612-0.891-1.207-1.806-1.841-2.672c-1.285-1.708-2.539-3.468-3.902-5.081
						c-0.674-0.817-1.336-1.654-2.024-2.452l-2.092-2.36c-3.562-3.924-7.334-7.569-11.275-10.932
						c-3.953-3.342-8.056-6.434-12.272-9.309c-4.231-2.845-8.582-5.455-13.019-7.879c-4.448-2.4-9-4.571-13.621-6.574
						c-4.632-1.978-9.355-3.733-14.145-5.318c-4.799-1.562-9.685-2.895-14.637-4.042c-9.927-2.221-20.157-3.633-30.763-3.687
						c-2.386-0.052-4.813,0.058-7.225,0.119c-2.434,0.169-4.873,0.265-7.294,0.627c-2.416,0.325-4.875,0.563-7.257,0.975
						c-2.358,0.477-4.713,0.952-7.067,1.428c-9.255,2.186-17.869,5.202-25.817,8.309l-5.85,2.341l-5.618,2.317l-5.387,2.209
						l-1.368,0.572l-1.578,0.684l-3.153,1.387c-8.378,3.815-16.587,8.59-24.151,14.599c-1.986,1.618-4.085,3.253-6.121,5.138
						c-1.023,0.932-2.086,1.835-3.101,2.833c-1.005,1.008-2.021,2.026-3.044,3.052c-1.033,1.009-1.99,2.127-2.962,3.231
						c-0.958,1.119-1.958,2.198-2.86,3.378c-1.808,2.356-3.617,4.706-5.153,7.232c-3.22,4.93-5.648,10.233-7.343,15.316
						c-0.383,1.292-0.729,2.568-1.035,3.822s-0.588,2.479-0.732,3.718c-0.168,1.229-0.294,2.431-0.375,3.601
						c-0.091,1.167-0.116,2.309-0.036,3.436c0.242,4.363,2.889,6.518,5.577,7.499c-1.104-0.4-0.897-1.669,0.043-3.346
						c0.476-0.835,1.109-1.777,1.894-2.736c0.819-0.946,1.75-1.923,2.715-2.876c0.488-0.469,0.978-0.94,1.463-1.407
						c0.514-0.447,1.04-0.876,1.548-1.292c1.02-0.829,1.996-1.589,2.856-2.245c1.758-1.291,3.136-2.119,3.396-2.359
						c3.279-2.825,6.608-5.662,9.916-8.438c0.834-0.688,1.717-1.332,2.563-1.999c0.866-0.649,1.665-1.348,2.574-1.94
						c1.786-1.211,3.483-2.46,5.348-3.476c7.056-4.102,14.285-6.735,21.538-8.993c1.816-0.54,3.64-1.082,5.478-1.629
						c1.868-0.484,3.678-1.053,5.549-1.566c0.939-0.252,1.876-0.515,2.812-0.791c0.468-0.142,0.937-0.284,1.409-0.426
						c0.541-0.175,1.084-0.351,1.629-0.527c2.155-0.714,4.418-1.512,6.533-2.343c9.012-3.547,17.226-6.946,24.985-9.262l2.882-0.803
						c0.955-0.25,1.923-0.604,2.856-0.752l2.812-0.589l1.401-0.308c0.467-0.112,0.933-0.212,1.394-0.25l5.523-0.731l2.789-0.2
						l2.846-0.085c7.649-0.08,15.694,0.772,23.707,2.571c8.021,1.742,16.004,4.382,23.701,7.698
						c13.024,5.716,25.344,13.334,35.129,22.616c2.409,2.334,4.674,4.745,6.733,7.232c2.017,2.512,3.818,5.057,5.403,7.692
						l2.615,4.765c0.854,1.593,1.81,3.156,2.508,4.796c1.481,3.253,3.138,6.46,4.283,9.793c0.377,0.987,0.754,1.977,1.132,2.968
						l0.567,1.488c0.166,0.501,0.3,1.009,0.452,1.513c0.593,2.019,1.188,4.044,1.786,6.077c0.879,4.105,1.873,8.213,2.274,12.378
						C353.979,254.011,354.064,262.376,353.075,270.668z"/>
				</g>
			</g>
		</g>
	</g>
	<g>
		<g>
			<g>
				<path fill="#231F20" d="M86.56,267.894l-0.165,0.034C86.471,267.934,86.524,267.992,86.56,267.894z"/>
				<path fill="#231F20" d="M110.462,267.001l-0.033,0.395C110.468,267.263,110.471,267.126,110.462,267.001z"/>
				<path fill="#231F20" d="M114.754,231.607l0.153-0.057C114.833,231.541,114.788,231.566,114.754,231.607z"/>
				<g>
					<path fill="#231F20" d="M104.055,230.337c-4.787-0.061-9.465,1.151-13.986,3.476c-4.618,2.474-9.008,6.098-13.754,6.837
						c-4.98,0.848-9.994,1.108-14.837,2.939c-4.851,1.849-9.767,2.051-14.768,2.213c-4.826,0.155-9.314,3.604-14.202,2.794
						c-1.306-0.216-2.623-0.667-3.93-0.966c-0.641-0.148-3.597,2.301-4.128,3.361c-0.242,0.484,1.814,2.658,2.386,3.227
						c1.87,1.869,4.722,4.29,6.149,4.999c2.883,1.431,4.241,2.08,7.087,2.35c5.877,0.566,11.6,0.729,17.609,3.407
						c4.871,2.156,9.508-0.05,14.236,0.752c2.563,0.433,5.154,1.086,7.702,1.601c2.543,0.524,5.063,0.865,7.541,0.59
						c5.305-0.649,10.62,1.187,15.828,0.543c2.57-0.315,5.085-0.616,7.636-0.971c2.538-0.311,5.108-0.684,7.642-0.662
						c2.958,0.02,5.917,0.187,8.863,0.497c0.943,0.102,1.832,0.161,2.818,0.23s1.973,0.119,2.96,0.153
						c1.973,0.069,3.948,0.078,5.922,0.07c3.949-0.017,7.897-0.104,11.841,0.077c7.131,0.332,13.99,4.186,21.193,3.049
						c3.813-0.604,8.958-0.751,12.287-8.178c0.809-1.807,1.109-5.046,1.166-7.909c-0.096,4.696-4.075-5.163-4.367-5.625
						c-1.775-2.807-3.77-4.053-5.659-5.985c-3.658-3.745-6.894-8.651-10.828-9.816c-8.244-2.433-16.483-2.041-24.792-2.207
						c-1.765-0.037-3.531-0.041-5.297-0.033l-2.649,0.018l-1.325,0.011l-1.407,0.03c-3.752,0.076-7.499,0.119-11.252-0.038
						C113.273,231.047,108.675,230.469,104.055,230.337z"/>
				</g>
			</g>
		</g>
	</g>
	<g>
		<g>
			<g>
				<path fill="#231F20" d="M264.145,409.395l0.04,0.169C264.188,409.485,264.244,409.428,264.145,409.395z"/>
				<path fill="#231F20" d="M261.452,385.161l0.396-0.006C261.712,385.129,261.575,385.14,261.452,385.161z"/>
				<path fill="#231F20" d="M225.854,384.691l-0.07-0.141C225.781,384.623,225.811,384.663,225.854,384.691z"/>
				<g>
					<path fill="#231F20" d="M225.581,394.912c0.338,4.477,1.798,8.755,4.393,12.764c2.689,4.146,6.393,8.108,7.215,12.536
						c0.825,4.672,1.025,9.308,2.572,13.872c1.616,4.619,1.32,9.19,0.914,13.807c-0.128,1.107-0.051,2.218,0.116,3.337l0.584,3.365
						c0.184,1.124,0.34,2.253,0.353,3.373c-0.007,1.115-0.206,2.212-0.636,3.276c-0.476,1.135-1.151,2.227-1.777,3.305
						c-0.296,0.519,1.377,3.729,2.272,4.499c0.408,0.353,3.005-0.957,3.698-1.354c2.271-1.25,5.338-3.416,6.291-4.662
						c1.001-1.244,1.727-2.179,2.313-3.143c0.579-0.966,0.961-1.964,1.356-3.356c0.853-2.882,1.378-5.752,2.242-8.641
						c0.751-2.878,1.82-5.786,3.357-8.762c2.57-4.871,0.508-9.776,1.388-14.626c0.891-5.243,2.686-10.66,1.912-15.725
						c-0.803-5.399,0.504-10.993-0.5-16.207c-1.01-5.179-2.513-10.056-3.188-15.221c-0.437-3.114-0.726-6.248-0.871-9.405
						c-0.093-1.995-0.287-3.976-0.541-5.946c-0.26-1.965-0.635-3.873-0.996-5.803c-0.738-3.849-1.545-7.682-2.089-11.561
						c-0.511-3.461-0.148-7.017,0.034-10.551c0.182-3.533,0.175-7.057-1.033-10.331c-1.292-3.495-2.377-8.32-10.293-10.141
						c-1.926-0.442-5.167-0.146-7.993,0.317c4.635-0.763-4.321,4.841-4.72,5.216c-2.428,2.225-3.281,4.381-4.826,6.568
						c-2.996,4.232-7.204,8.345-7.6,12.323c-0.413,4.188-0.134,8.235,0.426,12.237c0.521,3.958,1.305,7.851,1.965,11.797
						c0.275,1.675,0.595,3.35,0.904,5.013l0.853,4.945c0.565,3.297,1.095,6.604,1.425,9.935c0.193,2.018,0.226,4.261,0.255,6.433
						C225.393,390.564,225.421,392.758,225.581,394.912z"/>
				</g>
			</g>
		</g>
	</g>
	<g>
		<g>
			<g>
				<path fill="#231F20" d="M406,226.665l0.193-0.018C406.106,226.634,406.051,226.57,406,226.665z"/>
				<path fill="#231F20" d="M377.188,225.795l0.057-0.394C377.189,225.534,377.182,225.671,377.188,225.795z"/>
				<path fill="#231F20" d="M371.76,261.12l-0.159,0.054C371.678,261.186,371.725,261.16,371.76,261.12z"/>
				<g>
					<path fill="#231F20" d="M382.888,262.66c2.503,0.136,5.104,0.036,7.696-0.358c2.566-0.398,5.222-1.078,7.861-2.059
						c2.696-1.003,5.456-2.305,8.206-3.387c2.732-1.063,5.515-1.969,8.32-2.159c5.925-0.379,11.955-0.37,17.913-2.136
						c0.726-0.214,1.534-0.411,2.188-0.569c0.646-0.157,1.296-0.292,1.946-0.409c1.3-0.224,2.611-0.423,3.907-0.43
						c1.298-0.029,2.604-0.047,3.901,0.03c1.289,0.124,2.584,0.249,3.888,0.375c2.48,0.373,5.025-0.109,7.588-0.215
						c0.642-0.042,1.286-0.076,1.929-0.09c0.643-0.008,1.271,0.063,1.901,0.138c1.253,0.185,2.505,0.421,3.647,1.067
						c1.224,0.682,2.359,1.57,3.517,2.321c0.537,0.401,4.362-0.611,5.367-1.341c0.458-0.332-0.685-3.188-1.057-3.965
						c-0.582-1.249-1.374-2.808-2.241-4.101c-0.864-1.296-1.766-2.449-2.434-3.063c-1.343-1.274-2.4-2.066-3.494-2.785
						c-1.102-0.687-2.241-1.337-3.893-1.832c-6.822-2.292-13.668-3.387-20.975-6.4c-1.478-0.577-2.983-0.876-4.493-1.013
						c-0.378-0.034-0.756-0.059-1.134-0.074c-0.338-0.019-0.651-0.031-0.978-0.036c-0.646-0.01-1.291,0.005-1.936,0.031
						c-1.29,0.053-2.578,0.15-3.865,0.178c-1.282,0.035-2.606-0.093-3.897-0.355c-1.404-0.297-2.804-0.655-4.196-1.02
						c-1.407-0.386-2.826-0.806-4.231-1.165c-1.413-0.365-2.804-0.669-4.227-0.899c-1.432-0.238-2.863-0.375-4.3-0.359
						c-6.108,0.074-12.348-2.13-18.729-1.929c-3.191,0.128-6.364,0.377-9.584,0.651c-1.623,0.15-3.244,0.292-4.865,0.402
						l-2.433,0.139c-0.781,0.049-1.549,0.093-2.324,0.12c-3.613,0.131-7.231,0.115-10.853-0.049
						c-9.151-0.412-18.229,0.809-27.348,0.958c-8.244,0.131-16.408-3.271-24.644-1.669c-4.357,0.849-10.285,1.33-13.624,8.957
						c-0.812,1.856-0.939,5.107-0.813,7.968c-0.204-4.692,5.041,4.889,5.407,5.332c2.232,2.686,4.611,3.8,6.914,5.607
						c4.459,3.501,8.504,8.188,13.105,9.096c9.643,1.896,19.093,0.971,28.661,0.599c8.132-0.31,16.241-1.143,24.384-1.162
						c0.609,0.008,1.221,0.016,1.834,0.023c0.609,0.018,1.171,0.064,1.762,0.104c1.167,0.099,2.342,0.198,3.521,0.299
						C378.018,262.222,380.468,262.521,382.888,262.66z"/>
				</g>
			</g>
		</g>
	</g>
	<g>
		<g>
			<g>
				<path fill="#231F20" d="M205.359,97.541l-0.038-0.186C205.317,97.44,205.259,97.501,205.359,97.541z"/>
				<path fill="#231F20" d="M207.688,124.875l-0.396-0.01C207.428,124.901,207.564,124.895,207.688,124.875z"/>
				<path fill="#231F20" d="M243.3,126.621l0.068,0.154C243.372,126.697,243.342,126.652,243.3,126.621z"/>
				<g>
					<path fill="#231F20" d="M243.756,115.444c-0.249-4.974-1.616-9.825-4.174-14.517c-2.652-4.82-6.334-9.556-7.156-14.69
						c-0.868-5.432-1.16-10.871-2.997-16.202c-1.845-5.358-2.036-10.729-2.232-16.284c-0.184-5.352-3.627-10.346-2.914-15.775
						c0.196-1.45,0.626-2.915,0.905-4.372c0.138-0.717-2.357-3.999-3.424-4.577c-0.487-0.263-2.629,2.031-3.19,2.664
						c-1.842,2.079-4.223,5.215-4.914,6.775c-1.398,3.158-2.01,4.624-2.271,7.741c-0.548,6.44-0.68,12.663-3.363,19.227
						c-2.167,5.318,0.046,10.48-0.714,15.733c-0.818,5.692-2.631,11.462-1.957,17.052c0.768,5.966-0.656,12.142,0.257,18.102
						c0.451,2.937,1.044,5.854,1.603,8.774c0.563,2.921,1.052,5.84,1.456,8.808c0.438,3.458,0.729,6.934,0.875,10.428
						c0.186,4.416,0.776,8.778,1.436,13.126l1,6.52c0.3,2.114,0.556,4.178,0.757,6.28c0.357,3.792-0.167,7.637-0.509,11.442
						c-0.167,1.936-0.308,3.715-0.227,5.8c0.073,2.021,0.325,4.034,0.89,6.022c1.195,4.201,2.159,10.015,10.007,12.485
						c1.909,0.599,5.15,0.385,7.983-0.032c-4.649,0.666,4.469-5.313,4.885-5.68c2.502-2.371,3.433-4.711,5.059-7.027
						c1.576-2.242,3.458-4.391,5.018-6.513c0.78-1.061,1.479-2.115,2.019-3.172c0.27-0.529,0.5-1.059,0.68-1.59
						c0.179-0.547,0.307-1.126,0.375-1.695c0.57-4.797,0.436-9.522,0.018-14.211c-0.209-2.343-0.488-4.686-0.787-7.014
						c-0.305-2.224-0.61-4.45-0.916-6.683c-0.977-7.596-2.473-15.125-3.165-22.761c-0.225-2.273-0.227-4.636-0.216-7.019
						C243.858,120.229,243.873,117.828,243.756,115.444z"/>
				</g>
			</g>
		</g>
	</g>
	<g>
		<g>
			<g>
				<path fill="#231F20" d="M240.098,250.765l0.002,0L240.098,250.765z"/>
				<path fill="#231F20" d="M235.276,251.519l0.003,0.002C235.276,251.519,235.276,251.519,235.276,251.519z"/>
				<path fill="#231F20" d="M257.658,270.576l-0.056,0.146C257.657,270.677,257.667,270.627,257.658,270.576z"/>
				<g>
					<path fill="#231F20" d="M263.842,263.597c0.248-0.479,0.473-0.968,0.674-1.468c0.201-0.506,0.38-0.978,0.532-1.588
						c0.152-0.581,0.277-1.171,0.372-1.763c0.048-0.299,0.089-0.587,0.121-0.896c0.029-0.333,0.051-0.666,0.064-0.999
						c0.026-0.667,0.019-1.333-0.023-1.992c-0.043-0.671-0.147-1.437-0.278-2.136c-0.243-1.371-0.736-2.917-1.368-4.294
						c-1.372-2.963-3.557-5.577-5.904-7.528c-2.362-1.962-4.706-3.23-6.641-4.568c-2.065-1.432-4.14-2.411-6.237-2.964
						c-2.09-0.541-4.209-0.619-6.172,0.001c-1.966,0.625-3.723,1.065-5.51,1.581c-1.774,0.522-3.583,1.07-5.359,1.963
						c-1.709,0.885-2.831,2.647-3.565,4.36c-0.401,0.843-0.689,1.699-1.09,2.452c-0.339,0.771-0.834,1.461-1.428,2.084
						c-0.334,0.332-0.72,0.652-1.116,0.987c-0.366,0.328-0.74,0.668-1.078,1.038c-0.167,0.182,0.087,0.978,0.597,1.71
						c0.489,0.747,1.156,1.451,1.618,1.708c0.425,0.201,2.948-0.366,3.599-0.425c1.065-0.176,2.349-0.325,3.451-0.375
						c1.086-0.065,2.035-0.024,2.504-0.038c0.929-0.044,1.602,0.048,2.12,0.093c0.498,0.031,0.914,0.09,1.262,0.059
						c0.765-0.002,1.386,0.13,2.001,0.625c0.3,0.245,0.607,0.609,0.861,1.084c0.139,0.256,0.263,0.539,0.366,0.852
						c0.049,0.15,0.107,0.337,0.152,0.517l0.032,0.137c0.029,0.135,0.011,0.191,0.02,0.007c0.004-0.173,0.069-0.551,0.241-1.036
						c0.179-0.514,0.513-1.105,0.863-1.5c0.063-0.085,0.184-0.195,0.25-0.26c0.054-0.057,0.124-0.118,0.211-0.177
						c0.027-0.024,0.059-0.049,0.111-0.078c0.048-0.025-0.016,0.007,0.001-0.003c-0.072,0.036-0.631,0.238-1.637,0.191
						c-0.298,0.002-0.584-0.022-0.855-0.07c-0.295-0.042-0.725-0.082-1.057-0.165c-0.176-0.039-0.348-0.085-0.515-0.137
						l-0.647-0.153c-0.431-0.115-0.846-0.256-1.242-0.422c-0.828-0.268-1.666-0.605-2.416-1.01l3.763,2.627
						c-0.057-0.023-0.125-0.049-0.404-0.228c-0.198-0.14-0.581-0.428-0.864-0.742c-0.492-0.496-0.969-1.158-1.275-1.722
						c-0.398-0.725-0.515-1.243-0.483-1.123c0.024,0.091,0.144,0.815,0.033,1.887c-0.083,0.959-0.372,2.114-0.77,2.962
						c-0.384,0.861-0.863,1.369-0.925,1.407c-0.024,0.02,0.023-0.021,0.026-0.021c0.029-0.021-0.016,0.015,0.06-0.04
						c0.118-0.08,0.165-0.099,0.407-0.228c0.111-0.038,0.158-0.101,0.31-0.095c0.179,0.021,0.348,0.062,0.503,0.113
						c0.316,0.361,0.544-0.407,0.769-0.7l0.02-0.033c-0.01-0.007-0.107,0.009-0.159,0.013c-0.128,0.016-0.257,0.031-0.389,0.048
						c-0.277,0.041-0.561,0.083-0.854,0.127c-0.6,0.099-1.255,0.223-1.94,0.363c-1.37,0.281-2.856,0.63-4.246,0.977
						c2.278-0.569,1.145,0.127-0.611,0.993c-0.881,0.451-1.909,0.857-2.715,1.294c-0.811,0.426-1.414,0.812-1.509,0.884
						c-2.283,1.849-2.823,3.491-3.648,5.686c-0.382,1.059-0.74,2.226-1.006,3.449c-0.242,1.199-0.405,2.494-0.385,3.729
						c0.021,1.227,0.195,2.487,0.576,3.564c0.379,1.107,0.951,2.096,1.716,2.836c3.256,3.196,7.278,4.757,11.04,5.33
						c3.808,0.583,7.391,0.181,10.859-0.537c2.952-0.625,5.773-1.742,8.494-3.238c2.72-1.503,5.353-3.378,7.918-5.695
						c1.469-1.353,3.012-2.767,4.435-4.481c1.439-1.673,2.729-3.63,3.725-5.738c-0.188,0.438-0.375,0.877-0.574,1.344
						C263.694,263.875,263.769,263.735,263.842,263.597z"/>
				</g>
			</g>
		</g>
	</g>
</g>
</svg>
