<svg xmlns="http://www.w3.org/2000/svg" viewBox="0 0 500 500"><path fill="#FFF" d="M268.7 279.8l.2-.01c-.1 0-.15-.04-.2 0zM239.58 278.95l.07-.16a.19.19 0 0 0-.07.16zM232.82 292.7l-.18.02a.4.4 0 0 0 .18-.01z"/><path fill="#FFF" d="M244.9 293.8c5.45.23 10.92.01 16.33-.7 5.57-.73 11.07-1.82 16.73-2.12l8.95-.28c1.49-.05 2.98-.11 4.46-.21 1.46-.11 2.92-.25 4.39-.43 2.92-.36 5.9-.55 8.85-.66l4.5-.23c1.5-.06 3.02-.1 4.54-.27 2.94-.25 5.89-.83 8.58-1.38 1.38-.28 2.76-.52 4.16-.67 1.4-.15 2.81-.3 4.22-.24 1.5.05 2.99.2 4.48.27.72.06 4.3-.8 5.04-1.22.33-.2-1.8-1.12-2.41-1.36a33.66 33.66 0 0 0-10.85-2.43 34.78 34.78 0 0 0-4.13-.04l-5.16.27c-1.67.06-3.33.12-5 .16-1.64.07-3.31-.09-4.97-.19a48.1 48.1 0 0 1-5.01-.58c-5.39-.91-11.35.03-16.77-.44-2.98-.23-5.95-.55-8.91-.8-1.49-.13-2.97-.24-4.45-.3-1.49-.08-3-.2-4.49-.2-6.4-.09-12.74-1.05-19.12-1.07-3.15-.01-6.3.03-9.45.07a268.32 268.32 0 0 1-20.44-1.1c-4.65-.41-9.23-.64-13.94-.87l-14.13-.68c-8.47-.45-16.5-2.25-24.71-2.47-2.2-.02-4.71-.27-7.22-.08-2.5.14-4.92.51-6.98 1.74-1 .6-1.5 1.83-1.69 2.96.3-1.86 4.54 2.72 4.9 2.96 2 1.46 4.37 2.12 6.6 3.15 2.15 1 4.2 1.97 6.31 2.88 2.12.91 4.28 1.62 6.65 1.98 9.94 1.5 19.73 1.53 29.37 2.17 8.37.47 16.87.71 25.3 1.29 2.52.17 5.08.4 7.66.64 2.59.27 5.2.36 7.81.49zM134.24 394.03l-.08.18c.04-.08.09-.12.08-.18zM145.19 367.51l.13.1a.17.17 0 0 0-.13-.1zM133.46 357.73l.03-.16a.35.35 0 0 0-.03.16z"/><path fill="#FFF" d="M129.47 367.96c-.94 2.28-1.7 4.62-2.48 6.98-.8 2.33-1.4 4.75-2.08 7.15-.66 2.5-1.2 5.04-1.95 7.52-.36 1.25-.73 2.5-1.17 3.73a42.7 42.7 0 0 1-1.53 3.59c-2.41 4.98-5.2 9.71-7.55 14.77-2.42 5.07-5.37 9.64-8.56 14.27-3.04 4.47-5.09 9.6-8.55 13.8-.93 1.12-1.94 2.17-2.9 3.27a4.4 4.4 0 0 0-.48.85l-.14.32-.06.21-.12.49c-.11.75-.64 1.17-.79 1.51-.06.15.4.21.94.28.56.08 1.18-.08 1.38-.22.38-.2.8-.42 1.3-.77.51-.34 1.03-.7 1.54-1.07 1-.73 1.92-1.44 2.5-1.98a42.53 42.53 0 0 0 5.3-5.67c4.03-5.17 7.74-10.35 12.28-15.19a39.85 39.85 0 0 0 4.7-6.55c1.37-2.35 2.74-4.7 4.23-6.94 1.64-2.4 3.36-4.78 4.94-7.25 1.63-2.44 3.09-4.99 4.35-7.65 2.62-5.69 5.9-11.11 8-17.1 2.15-5.85 3.69-11.91 5.38-17.92l1.41-5.3.69-2.47c.21-.8.46-1.6.71-2.42a188.3 188.3 0 0 0 3.64-13.02 72.05 72.05 0 0 0 1.96-14.7c.07-1.62 0-3.3-.04-4.96-.02-.83-.14-1.67-.2-2.5-.07-.85-.14-1.7-.31-2.53l-.44-2.52c-.2-.83-.43-1.65-.66-2.48-.23-.82-.46-1.66-.8-2.44l-.83-2.1c0-.02.03 0 .02-.04l-.05-.23-.09-.35-.42-1.6c-.3-1.1-.63-2.23-1-3.36-1.31-3.95-2.82-9.55-6.32-12.02-.2-.1-.44-.2-.7-.27l-.2-.05c-.06 0-.13-.05-.19.02-.12.1-.25.17-.4.22-.57.19-1.2.06-1.77-.03.23.04.4.06.48.02.05 0 .06-.05.06-.05v.26a9.02 9.02 0 0 1-.51 1.66c-.5 1.33-1.22 2.8-1.27 2.98-.61 2.27-.54 4.61-.74 6.92-.16 1.88-.41 3.7-.58 5.54-.09.92-.15 1.84-.17 2.78a9.58 9.58 0 0 0 .53 3.67l.08.17.03.08v.03l.02.05.02.1.04.2.09.42.23.81a34.8 34.8 0 0 1 1.52 10.9 55.3 55.3 0 0 1-1.65 12.05c-.86 3.6-1.92 7.36-2.98 11.3l-.78 3-.75 3.07-1.46 5.54c-.64 2.19-1.44 4.38-2.19 6.6l-2.5 6.62z"/><g><path fill="#FFF" d="M126.7 126.28l.3.45c-.13-.2-.2-.35-.3-.45zM110.74 73.05l.16.1c-.06-.1-.11-.12-.16-.1zM96.56 59.51l.02-.41c-.02.2-.03.32-.02.41z"/><path fill="#FFF" d="M96.73 86.25c.31 5.74.77 11.5 1.24 17.1.11 1.37.28 2.86.35 4.1l.15 1.95.04.49.06.86a16.76 16.76 0 0 0 3.15 8.66 25.44 25.44 0 0 0 3.88 4.25c2.6 2.3 4.93 3.87 6.92 5.54 2 1.64 3.66 3.27 4.96 5.12a17.28 17.28 0 0 1 2.22 4.57c.1.27.15.56.23.84a228.74 228.74 0 0 1 2.05 9.76c2.37 12.52 5.07 24.62 7.4 36.78 2.41 12.37 4 24.58 5.69 37.11.42 3.04.83 5.99 1.32 8.97l.37 2.23.29 2.2.3 2.2.28 2.29c.78 6.12 1.73 12.16 2.33 18.29l.53 4.91.26 2.46.35 2.47c.14.8.73 3.2 1.57 5.53a60.56 60.56 0 0 0 2.12 5.36c.35.65.12-4.24.05-5.57-.08-1.1-.12-2.34-.14-3.64l-.13-3.98c-.08-2.64-.08-5.16-.2-6.85l-.4-8.5c-.1-2.53-.28-5.07-.56-8.57l-.31-5.4c-.14-1.84-.21-3.7-.42-5.49l-1.1-10.78a430.94 430.94 0 0 1-1.73-21.49c-.15-2.91-.42-5.85-.75-8.8-.17-1.48-.35-2.95-.55-4.44l-.7-4.49-1.48-8.98c-.55-2.95-1.08-5.9-1.52-8.84l-1.4-9.45c-.22-1.57-.47-3.15-.66-4.71l-.57-4.69-.6-4.67-.32-2.34c-.14-.95-.28-1.97-.52-2.95a28.3 28.3 0 0 0-5.16-10.94c-2.53-3.36-5.44-6-7.88-8.3a41.7 41.7 0 0 1-3.15-3.2 7.08 7.08 0 0 1-1.44-2.27 2.9 2.9 0 0 1-.1-.64l.02-.17V108.38l-.03-2.77-.09-2.6c-.11-3.5-.32-6.9-.56-10.32-.48-6.7-1.06-13.42-1.47-20.03-.12-1.67-.19-3.28-.26-4.9l-.11-2.43v-2.16c-.04-1.4.14-2.93.31-4.39.1-.73.22-1.45.34-2.18.15-.7.28-1.42.45-2.12.8-3.25 2-6.26 3.63-8.66a13.32 13.32 0 0 1 6.01-5.07l1.15-.46c.39-.14.83-.19 1.24-.3.43-.08.8-.26 1.27-.28l1.36-.13.67-.09.42-.03.49-.03 1.93-.1 3.76-.27c4.93-.36 9.67-.68 14.3-.68 9.25-.02 18.14 1.38 25.74 5.32.43.22.87.43 1.3.66l1.21.76c.8.52 1.66.98 2.4 1.58l1.14.85 1.15.95c.76.6 1.52 1.33 2.29 2 3.05 2.8 6.1 5.97 9.34 9.14a95.74 95.74 0 0 0 10.84 9.4c1.01.74 2.16 1.44 3.24 2.15 1.2.66 2.32 1.36 3.62 1.94 1.29.58 2.57 1.17 4.02 1.6l1.06.34.53.16.43.1 1.73.4c2.44.53 5.11 1.17 7.82 1.7 2.65.48 5.43.93 8.12 1.3a80 80 0 0 0 7.6.77c2.38.25 4.63.34 6.7.18 2.01-.16 3-1.22 3.39-2.3-.32.89-2.61-.33-4.98-1.84-1.18-.75-2.38-1.58-3.34-2.25-.97-.6-1.68-1.05-1.86-1.14a72.18 72.18 0 0 0-6.75-2.88c-2.33-.86-4.68-1.68-6.97-2.56-2.16-.91-4.24-1.85-6.29-2.76l-1.52-.69c-.55-.22-.94-.47-1.33-.7-.4-.25-.8-.46-1.19-.72l-1.16-.83c-3.09-2.2-6.02-5.15-9.46-8.31-3.6-3.33-7.2-7.05-11.13-10.74a95.5 95.5 0 0 0-6.36-5.53c-.55-.45-1.15-.9-1.78-1.34-.62-.43-1.22-.9-1.86-1.3-1.28-.78-2.56-1.58-3.86-2.34a59.33 59.33 0 0 0-16.77-6.09 86.04 86.04 0 0 0-17.14-1.62c-4.78-.02-9.45.28-13.94.63-2.25.17-4.46.36-6.56.5l-.8.05c-.25.01-.69.07-1.02.1l-2.15.26c-1.41.1-2.88.58-4.31.94-.36.1-.72.18-1.07.3l-1.07.43-2.1.88c-.71.3-1.35.74-2.02 1.11-.66.41-1.35.77-1.96 1.23L109 31.6c-.3.24-.6.47-.88.73l-.8.8-1.56 1.63-1.36 1.74-.66.88c-.21.3-.4.6-.58.9l-1.13 1.83c-.34.62-.64 1.24-.95 1.86-.32.63-.63 1.25-.87 1.88a49.46 49.46 0 0 0-2.5 7.57 66.46 66.46 0 0 0-1.48 9.09c-.1 1.56-.13 3.16-.18 4.75l.05 4.28c.1 5.65.34 11.17.63 16.7z"/></g><g><path fill="#FFF" d="M232.3 120.63h.15c-.07-.01-.11-.04-.16 0zM204.3 123.77l-.01-.18c-.04.09-.03.14 0 .18zM211.87 135.83l.01.02-.01-.02z"/><path fill="#FFF" d="M214.01 135.61l5.8-.83 1.38-.21 1.34-.16.67-.1.92-.1 1.83-.2c5.01-.65 9.8-2.04 14.63-2.57 5.13-.54 10.19-1.08 15.12-2.36 1.23-.33 2.46-.62 3.7-.87 1.21-.25 2.37-.4 3.57-.56 1.19-.16 2.38-.3 3.58-.42 1.2-.12 2.45-.16 3.68-.24 2.4-.11 4.75-.61 7.13-.97s4.77-.68 7.18-.57c1.29.05 2.57.24 3.85.35.63.05 3.77-.95 4.37-1.38.28-.2-1.62-1.05-2.15-1.28a37.9 37.9 0 0 0-5.77-1.97 34.91 34.91 0 0 0-6.89-.79c-5.85-.05-11.46.06-17.54-.43-.62-.06-1.23-.1-1.85-.1-.59 0-1.17.04-1.75.08-1.16.09-2.33.26-3.48.4l-3.48.47c-1.15.12-2.3.21-3.45.23-4.98.03-9.88-.54-14.68-.43a45.2 45.2 0 0 1-3.83-.11l-3.8-.42a38.42 38.42 0 0 0-9.45.07l-2.18.37-.54.1c-.18.03-.36.06-.6.12l-1.4.33a19.5 19.5 0 0 0-5.97 2.7 15.1 15.1 0 0 0-4.85 5.39 13.86 13.86 0 0 0-1.53 7c.06 1.41.32 2.82.76 4.18l.35 1.02c.13.34.26.67.4.93.26.56.54 1.13.83 1.66.59.97 1.2 1.94 1.89 2.76.33.43.67.87 1.02 1.28l1.05 1.1c.9.99 1.81 1.71 2.73 2.51.92.73 1.86 1.42 2.78 2.06a70.75 70.75 0 0 0 5.53 3.35c3.62 2 7.18 3.74 10.34 5.62 2.84 1.67 5.26 3.77 6.57 5.55l.14.16.25.3.74.78.38.4.34.31.68.63a39.2 39.2 0 0 0 7.39 5c1.66.86 3.47 1.87 5.12 2.55 1.69.69 3.1.95 4.62.6.69-.2 2-.57 3.05-1.02-.9.36-.62-.38-.68-1.65-.02-.62-.09-1.3-.14-1.88a13.5 13.5 0 0 0-.17-1.07c-.72-2.1-2.24-3.73-3.5-5.44-1.24-1.66-2.35-3.32-3.44-4.85a46.54 46.54 0 0 0-3.12-3.97l-.34-.37a3.7 3.7 0 0 0-.18-.29l-.1-.13-.34-.39-.7-.77a17.2 17.2 0 0 0-1.45-1.44l-1.46-1.29a51.03 51.03 0 0 0-5.83-4.02c-3.85-2.32-7.59-4.14-11-6.08a51.05 51.05 0 0 1-7.56-4.95c-.26-.2-.43-.42-.66-.62-.2-.2-.47-.4-.6-.6-.3-.4-.69-.76-.89-1.13-.5-.86-.4-.71-.4-.88.03-.14.2-.22.33-.2l.09.04.03.02c.04 0 .13-.01.19-.03.07-.04.37-.08.6-.14.22-.07.54-.07.8-.14z"/></g><g><path fill="#FFF" d="M410.83 441.95l.45.92c-.2-.42-.3-.7-.45-.92zM356.25 309.51l.21.21c-.1-.21-.17-.24-.21-.2zM344.28 279.07l.17-.86c-.1.4-.14.67-.17.86z"/><path fill="#FFF" d="M351.27 340.5l2.9 9.75c.92 3.3 2.07 6.52 3.18 9.75 2.13 6.5 4.73 12.83 7.26 19.16l4.13 9.35c.35.78.68 1.56 1.04 2.33l1.13 2.28 2.26 4.55 4.55 9.07 4.82 8.79c3.85 6.92 7.7 13.83 11.53 20.74l5.44 10.4 2.83 5.43c.33.64.5.87.71 1.2.1.14.22.25.27.4.04.16.06.32.07.48l.04.9 4.73-5.27-8.7 1.32c-.29.05-.56.03-.87.16l-.92.32-1.1.4c-.56.2-1.1.45-1.68.63l-1.81.46c-.6.16-1.2.33-1.86.41-5.1.97-10.89 1.05-17.1 2.02-4.22.83-7.39 1.56-10.9 2.31l-1.3.28-1.31.21-2.64.43c-1.76.26-3.5.6-5.28.8-7.1.9-14.25 1.58-21.51 2.12l-10.92.89c-3.66.35-7.33.67-11 1.11-3.68.48-7.4.94-10.96 1.5l-5.4.8-5.38.75A261.42 261.42 0 0 1 266 468.9l-2.91.21c-1 .1-2 .25-2.95.4-1.92.32-3.71.7-5.45 1.04-1.71.33-3.34.58-4.8.65a7.84 7.84 0 0 1-3.6-.6c-.52-.18-.92-.57-1.39-.88-.4-.46-.86-.8-1.23-1.42-.18-.28-.4-.52-.58-.84l-.52-.98c-.35-.58-.69-1.46-1.03-2.21l-.52-1.17-.32-1c-.29-.66-.32-1.36-.46-2.04-.19-1.55-.23-3.26-.44-5.32a34.53 34.53 0 0 0-1.13-6.06 20.54 20.54 0 0 0-2.86-6.07 15.74 15.74 0 0 0-5.41-4.82 18.74 18.74 0 0 0-6.7-1.9 28.07 28.07 0 0 0-6.12.1l-1.46.18-1.33.2-2.62.37-10.46 1.58c-6.96 1.15-13.96 1.96-20.94 2.9-6.98 1-14 1.61-21.02 2.32l-5.26.5c-1.76.16-3.52.25-5.28.37a826.4 826.4 0 0 1-16.2.87c-1.96.14-4 .19-5.95.48a94.97 94.97 0 0 0-11.54 2.14c-1.87.4-7.27 2.2-12.51 3.95-1.3.4-2.6.75-3.84 1.12l-1.83.54-1.8.58c-2.3.74-4.11 1.36-5 1.7-.8.3 1.61-.05 4.57-.52l2.28-.38 2.19-.32 3.38-.49c4.9-.9 11.12-2.37 17.13-3.35 3-.52 5.96-.84 8.64-1.05 2.68-.14 5.1-.17 7.08-.22 8.02-.22 13.9-.32 19.82-.6 5.92-.36 11.89-.75 20.09-1.42l12.63-1.3c4.2-.43 8.4-.84 12.57-1.41l12.5-1.59 3.11-.4 1.48-.16c.48-.06.96-.1 1.43-.12 1.89-.1 3.75-.04 5.4.39a9.05 9.05 0 0 1 4.16 2.22 11.02 11.02 0 0 1 2.55 4.12l.43 1.25.3 1.33.15.66.1.7.2 1.4c.08.95.12 1.88.19 2.88.06 1.1.08 2.16.19 3.32.18 1.24.3 2.5.74 3.69.18.57.36 1.26.57 1.74l.63 1.53c.22.52.39 1 .65 1.55l.83 1.65c.25.55.63 1.1 1 1.63.38.54.68 1.1 1.19 1.6.47.5.92 1.03 1.45 1.5.57.45 1.16.89 1.75 1.31.65.35 1.31.69 1.98 1 .68.26 1.38.46 2.08.67 2.8.64 5.36.47 7.65.23 3.73-.42 6.92-1.14 9.94-1.37l10.18-.44c3.5-.21 7-.57 10.51-.87l10.46-1.24c3.45-.45 6.98-.96 10.36-1.36 3.4-.4 6.77-.84 10.2-1.1l5.13-.43 5.16-.36 10.32-.65 9.35-.63c3.13-.24 6.28-.58 9.42-.87 3.15-.4 6.31-.82 9.47-1.29l9.32-1.77 1.97-.35c.66-.11 1.4-.15 2.08-.24 1.37-.17 2.88-.25 4.35-.35l4.65-.28c1.65-.15 3.23-.2 4.97-.47l2.56-.34 2.64-.56 1.32-.3c.44-.1.9-.27 1.33-.41l1.34-.45.63-.21 8.33-.93 5.6-.63.05-5.68.02-1.34v-.68l-.04-.82a8.5 8.5 0 0 0-.72-3.2c-.1-.26-.25-.5-.38-.74l-.37-.64-.3-.5c-.1-.16-.23-.36-.25-.44l-.65-1.36-3.28-6.86-2.62-5.46c-.86-1.82-1.72-3.65-2.64-5.41l-5.4-10.69-5.3-10.6-2.64-5.29c-.86-1.77-1.64-3.55-2.46-5.32l-4.88-10.64c-1.53-3.58-2.97-7.2-4.48-10.78-.77-1.79-1.4-3.63-2.1-5.45l-2.05-5.46-1.03-2.73-.93-2.76-1.89-5.53c-1.3-3.6-2.32-7.31-3.47-10.98l-1.71-5.6-.96-3.06-1.04-2.92c-2.84-7.7-5.98-14.6-7.43-21.28a38.95 38.95 0 0 1-.81-9.92c.17-3.45.66-7.01 1.35-10.66l4.9-22.93c.92-4.48 1.84-8.98 2.83-13.38l1.45-6.63 1.64-6.51 3.37-13.4.85-3.41.75-3.37 1.52-6.74 1.9-8.38c.32-1.39.61-2.8.96-4.17l1.06-4.06 2.22-8.54c.7-3.05 1.24-5.88 1.8-8.76l3.23-16.97a237.97 237.97 0 0 1 3.69-16.33c.38-1.21.74-2.52 1.14-3.5.1-.24.2-.58.28-.74.08-.14.15-.28.21-.43l.1-.23c.03-.09.16-.26.24-.4l.53-.83c.7-1.12 1.41-2.25 2.18-3.27.73-1.08 1.52-2.06 2.3-3.04a41.8 41.8 0 0 1 3.9-4.12l1.57-1.48.9-.87c.3-.32.6-.59.93-.96.66-.75 1.32-1.45 1.94-2.37.3-.43.63-.86.89-1.32l.75-1.37.37-.7.29-.67.55-1.35c.2-.46.33-.9.45-1.31l.39-1.28c.28-.88.43-1.66.62-2.47.4-1.65.62-3.17.88-4.72.26-1.55.41-3.02.62-4.54.19-1.5.34-2.91.5-4.39.62-5.83 1.14-11.73 1.39-17.72.22-5.42.25-10.9-.3-16.63a48.2 48.2 0 0 0-1.74-9.04c-.9-2.8-2-5.6-3.43-8.34a39.6 39.6 0 0 0-5.33-7.83 32.98 32.98 0 0 0-16.52-10.23 70.8 70.8 0 0 0-8.57-1.75c-11.13-1.5-21.76-1.33-32.34-.88l-3.95.2-1 .06-1.68.19c-1.13.19-2.28.45-3.37.86-2.2.78-4.08 1.95-5.6 3.11a36.37 36.37 0 0 0-3.76 3.46c-2.1 2.22-3.77 4.29-5.44 6.3-1.65 1.97-3.32 4.03-4.84 5.6l-1.25 1.37c-.43.45-.93.9-1.4 1.35-.97.9-1.91 1.85-2.95 2.75-2.12 1.76-4.24 3.65-6.59 5.27a42.6 42.6 0 0 1-6.93 4.43c-2.53 1.33-5.31 2.6-8.2 3.94-1.44.68-2.88 1.35-4.38 2.1l-2.01.99c-.62.29-1.22.63-1.86.9-1.26.53-2.5 1.13-3.78 1.59l-1.89.74-1.9.65c-5.02 1.7-9.86 2.92-14.18 3.76-4.18.72-5.63 1.9-5.72 3.07.04-.47 1.53-.54 3.77-.37 1.13.12 2.45.13 3.89.2l2.22.12h2.33c6.27.07 12.92-.86 13.8-1.1a58.19 58.19 0 0 0 8.07-2.31l8-2.82c2.7-.97 5.45-2.02 8.18-3.27 1.36-.6 2.72-1.33 4.06-2.07l3.74-2.32 1.81-1.12c.59-.39 1.15-.8 1.73-1.2l3.42-2.43c1.12-.82 2.18-1.72 3.27-2.58l1.63-1.3c.54-.45 1.05-.95 1.57-1.42 1.02-.96 2.13-1.93 3.06-2.88l2.82-2.85c1.85-1.9 3.65-3.79 5.4-5.4 1.73-1.64 3.41-2.77 4.5-3.02.13-.01.27-.04.4-.07.14-.02.27-.01.4-.04h1.27l4.02-.03c5.36-.01 10.82 0 16.41.17 2.93.09 5.84.24 8.67.51 2.84.25 5.63.62 8.23 1.16 2.6.54 5 1.23 6.86 2.17 1.95.94 3.64 2.26 5.17 3.85a25.17 25.17 0 0 1 3.94 5.7 36.43 36.43 0 0 1 2.63 6.89c.54 2.2.86 4.87 1.03 7.6.19 2.72.18 5.59.13 8.46a222.5 222.5 0 0 1-1.17 17.54c-.3 2.93-.63 6-1 8.77-.17 1.45-.44 2.74-.66 4.1-.12.67-.27 1.26-.4 1.89-.13.65-.3 1.18-.47 1.71l-.23.8-.27.65c-.16.48-.37.78-.54 1.12-.4.64-.73 1.12-1.64 2-.37.37-.97.92-1.49 1.4l-1.77 1.7-1.84 1.87-1.76 1.97c-1.09 1.35-2.22 2.7-3.17 4.1-.5.69-1 1.38-1.47 2.07l-1.35 2.1-.67 1.05-.34.54-.42.82c-.28.54-.55 1.09-.81 1.64-.22.5-.35.9-.53 1.36l-.5 1.34c-.16.45-.26.82-.4 1.24l-.73 2.44a230.77 230.77 0 0 0-3.6 15.73c-1.03 5.16-1.98 10.3-2.92 15.38l-1.44 7.54c-.24 1.25-.5 2.43-.76 3.6l-.86 3.44-2 7.78-.49 1.94-.42 1.93-.85 3.84-3.3 15.2c-.54 2.53-1.19 4.92-1.77 7.39l-1.84 7.47c-1.28 5.15-2.61 10.31-3.66 15.43-1.15 5.16-2.2 10.23-3.26 15.3-.62 3.06-1.3 6.03-1.97 9.05-.68 3.01-1.34 6.01-2.08 9.17-1.43 6.32-2.75 13.15-2.78 20.52 0 .92.07 1.86.1 2.8.07.93.07 1.86.23 2.8.26 1.89.5 3.82.94 5.54.2.89.4 1.79.62 2.65l.73 2.54c.48 1.73 1.07 3.28 1.6 4.92 2.26 6.37 4.7 12.13 6.26 17.63z"/></g><g><path fill="#FFF" d="M228.01 214.2h.2c-.09 0-.14-.03-.2 0zM212.04 211.15l.19-.02-.19.02zM200.23 203.04z"/><path fill="#FFF" d="M196.2 222.98l.03 1.84 1.66-.11.84-.06c.3-.02.43 0 .66 0h4.94l1.74.64c1.12.41 2.4.9 3.31 1.09.74.17 1.49.36 2.22.46 2.96.52 5.83.6 8.54.45 5.87-.37 11.1-1.78 16.16-1.43 2.96.1 5.9.37 8.83.4 1.47 0 2.93-.02 4.4-.06l2.2-.08 2.18-.22c2.93-.33 5.81-.46 8.68-.67 1.44-.09 2.88-.15 4.32-.2l4.34-.26c2.81-.13 5.57-.67 8.32-1.17 2.76-.48 5.5-.98 8.3-1.05 1.49-.03 2.98.02 4.47 0 .73 0 4.27-1.32 4.93-1.8.3-.23-1.95-.9-2.58-1.07a52.48 52.48 0 0 0-6.72-1.42 49.2 49.2 0 0 0-7.87-.33c-3.3.1-6.56.24-9.8.18a65.9 65.9 0 0 1-9.74-.74 48.3 48.3 0 0 0-7.94-.44c-2.65 0-5.3-.06-7.9-.34-1.4-.2-2.78-.48-4.16-.73l-4.24-.78c-3.1-.55-6.12-.85-9-.92a49.6 49.6 0 0 1-12.44-1.9c-.32-.07-.6-.17-.9-.27l-.62-.2c-.1-.04-.16-.07-.26-.09-.1-.02-.21-.04-.32-.08-.5.08-.5-.34-.5-.71.02-.2.06-.4.16-.59.05-.1.12-.18.18-.27.02-.04.22-.23.36-.38.16-.16.28-.32.48-.48.92-.88 2.17-1.79 3.57-2.75 1.4-.98 2.98-2 4.66-3.25l.8-.63.4-.31.19-.14.08-.05c.26-.15.37-.27.82-.54.71-.46 1.63-.98 2.5-1.49l5.74-3.16 12.03-6.5 2.24-1.19.57-.3.4-.23.5-.28 2-1.13 3.8-2.43c1.11-.9 2.17-1.82 3.23-2.77l.8-1.15c.25-.38.58-.76.7-1.17.3-.82.7-1.56.77-2.6.2-2.01-.18-3.7-1.03-5.46a17.26 17.26 0 0 0-4.08-5.02 41.18 41.18 0 0 0-4.32-3.31l-.77-.52-.38-.25-.22-.13a47.36 47.36 0 0 0-6.75-3.54c-1.2-.47-2.4-.85-3.6-1.05a8.14 8.14 0 0 0-3.34 0c-.24.05-.32.27-.55.39-.1.07-.23.12-.26.22l-.17.32c-.23.46-.53.95-.86 1.4.14-.19.17-.32.11-.4-.02-.04-.08-.08-.14-.06 0 .07.08.12.12.2.15.24.53.86.83 1.5.65 1.29 1.23 2.83 1.33 3 1.23 2.02 2.94 3.63 4.36 5.43.68.88 1.3 1.76 1.9 2.64.07.11.16.23.2.33l.06.21a4.4 4.4 0 0 1 .09 1.12c-.07.86-.52 1.29-.66 1.55-.06.24-.51.35-.72.4-.26.04-.45.07-.54.07l-4.36 2.36-10.23 5.46a172.66 172.66 0 0 0-6.94 3.89c-.5.3-.94.55-1.47.9l-1.55 1.03-.95.73-.86.67c-1.13 1-2.61 2.07-4.31 3.28-1.7 1.21-3.62 2.57-5.6 4.4-.29.25-.6.57-.89.86-.3.3-.58.56-.96 1-.76.91-1.57 1.82-2.14 2.85l-.93 1.51c-.3.52-.49 1.07-.74 1.6-.21.54-.53 1.06-.66 1.62l-.47 1.67-.23.84-.11.84-.23 1.7c-.12 1.12-.05 2.22-.07 3.34 0 2.1.02 4.18.03 6.27z"/></g></svg>