<svg xmlns="http://www.w3.org/2000/svg" viewBox="0 0 500 500"><path fill="#FFF" d="M268.77 270.09l.2-.02c-.09-.01-.15-.07-.2.02zM239.96 268.92l.07-.4a.94.94 0 0 0-.07.4zM232.33 303.8l-.18.04c.09.01.14 0 .18-.04z"/><path fill="#FFF" d="M244.52 305.88c5.51.4 11.07-.34 16.55-2.27 5.65-2 11.19-5.01 16.96-5.52 3.04-.22 6.07-.3 9.09-.5a41.41 41.41 0 0 0 8.83-1.3c2.85-.75 5.92-1.1 8.89-1.22 1.51-.09 3.09-.17 4.64-.2 1.57-.03 3.14-.03 4.73-.14a23.8 23.8 0 0 0 4.54-.74c1.57-.39 2.73-.83 4.09-1.26 1.3-.44 2.64-.81 4-1.02 1.36-.2 2.74-.32 4.11-.08 1.46.26 2.92.75 4.36 1.09.36.07 1.3-.4 2.3-1.05 1-.65 2.03-1.45 2.38-1.96.34-.46-1.65-2.8-2.27-3.41-1.9-2.09-5.19-4.55-6.86-5.3a30.43 30.43 0 0 0-4.21-1.61c-1.26-.35-2.52-.6-4.25-.68l-2.68-.11c-.9-.03-1.8-.06-2.6-.12-1.66-.11-3.3-.24-4.92-.43a30.6 30.6 0 0 1-4.9-1.01 33.75 33.75 0 0 1-4.94-1.81 14.5 14.5 0 0 0-4.08-1.17 30.15 30.15 0 0 0-4.3-.2c-1.42 0-2.92.08-4.28.04a22 22 0 0 1-4.08-.44c-2.94-.64-5.86-1.52-8.77-2.22-1.45-.35-2.9-.65-4.35-.85-1.46-.21-2.96-.4-4.44-.39-6.33 0-12.59-2.2-18.9-2.05-3.12.07-6.24.29-9.36.47a110.2 110.2 0 0 1-20.24-1.1 98.03 98.03 0 0 0-6.86-.67l-3.44-.19-3.53-.14c-4.89-.22-9.68-.28-14.37-.6-2.1-.13-4.2-.49-6.25-.94-2.03-.45-4.04-.99-6.06-1.48a54.77 54.77 0 0 0-5.91-1.27c-1.97-.3-3.89-.47-5.9-.3-2.13.2-4.47.1-6.94.95-2.44.81-4.86 2.36-7.21 5.82-1.14 1.67-1.95 4.83-2.44 7.66.4-2.32 1.36-.9 2.32 1.18.95 2.07 1.92 4.8 2.07 5.06 1.8 3.1 4.11 4.48 6.27 6.65 2.1 2.1 4.07 4.34 6.17 6.34 2.1 2 4.25 3.6 6.65 4.28 10.11 2.86 19.9 2.56 29.24 3.17l1.51.09 1.6.07 3.2.11 6.41.2c4.27.14 8.54.31 12.8.68 2.55.23 5.13.61 7.74 1.01 2.61.41 5.25.67 7.9.88zM142.99 398.22l-.07.19c.05-.08.13-.1.07-.2zM154.73 370.63l.36.18a.88.88 0 0 0-.36-.18zM122.8 354.61v-.15c-.03.06-.02.11 0 .15z"/><path fill="#FFF" d="M118.1 363.88a31 31 0 0 0-2.07 6.65 38.3 38.3 0 0 0-.73 7.31c-.02 2.64.2 5.42.09 8.12-.04 1.35-.13 2.7-.34 3.99a16.91 16.91 0 0 1-1.1 3.7c-2.16 4.95-5 9.5-6.62 14.87-1.68 5.4-4.77 9.81-8.1 14.27-3.17 4.3-3.73 10.37-7.79 14.13-1.09 1-2.38 1.85-3.54 2.8-.29.22-.5 1.38-.57 2.62l-.02.47v.09l6.1 4.04h-.03l-.21-.08-.42-.14-.21-.07-.1-.03c-.02-.02-.03 0-.06-.04l-.13-.14a6.21 6.21 0 0 1-1.48-3.2l-.02-.18-.01-.09-.79-1.57v.05l-.07.3-.03.15c0 .05-.13.15-.18.22-.27.31-.46.57-.56.78-.1.18.16.3.6.4l.77.15c.23.08.33.23.52.34l.13.09c.03.04.14.03.05.13l-.13.22-.02.06.07.21.16.4c.24.53.55 1.02.92 1.46l.14.16.07.08h.03l.12.05.22.07.43.15.2.07h.02l-2.27-1.36h.05l.06-.01.42-.06c2.75-.4 6.63-1.31 8.2-2.1 3.13-1.58 4.57-2.35 6.81-4.67 4.64-4.81 8.74-9.78 15.02-13.65 2.52-1.58 4.15-3.82 5.61-6.17 1.43-2.38 2.76-4.8 4.61-6.92 2.03-2.28 4.28-4.45 6.3-6.8a30.95 30.95 0 0 0 5.16-7.61c.69-1.47 1.43-2.93 2.26-4.34.82-1.43 1.74-2.8 2.58-4.24 1.68-2.85 3.4-5.72 4.4-8.9 2.1-6.22 3.25-12.75 5.04-19.08.48-1.86 1-3.71 1.55-5.56.3-1.02.5-1.59.74-2.35.23-.7.5-1.46.8-2.22a100.4 100.4 0 0 0 3.85-13.28 92.27 92.27 0 0 0 2.14-17c.15-3.78.2-7.8-.07-11.92-.22-2.06-.4-4.16-.88-6.2-.22-1.03-.43-2.07-.71-3.08l-.48-1.49-.26-.74-.13-.37c-.04-.1 0 0 0 0l.05.06.2-.1c.01 0 .02 0 .03-.02v-.01c.01 0 .02 0 0-.08l-.19-.8a21.8 21.8 0 0 0-1.2-3.5c-.85-1.88-1.67-4.16-3.26-6.13a10.7 10.7 0 0 0-5.2-3.55c-.41-.15-.82-.2-1.26-.3-.43-.07-.91-.22-1.38-.2-.45.06-1 .1-1.6.15l-2.22.24-1.19.11-.29.03h-.07c-.65.08 5.64-.64 2.98-.33l-.01.01-.03.03-.11.13c-.3.31-.63.56-.99.75-1.43.76-3.02.54-4.42.3.58.1.99.04 1.2-.24.1-.12.13-.35.12-.5.01.06 0 .13-.06.2-.24.27-.9 1-1.73 1.74-1.63 1.53-3.84 3.35-4.02 3.57-2.23 2.66-2.85 5.2-4.15 7.8-1.13 2.28-2.5 4.53-3.62 6.81a19.66 19.66 0 0 0-1.42 3.52c-.11.86-.15 1.76-.1 2.66-.03.93.18 1.8.36 2.72.16.64.07.61.06.76l-.03.37-.35 6.8a51.06 51.06 0 0 1-1.32 9.34c-.77 3.2-1.7 6.84-2.75 10.95l-.8 3.18-.79 3.3c-.44 1.73-.9 3.45-1.41 5.16-.65 2.04-1.55 4.05-2.4 6.07-.93 2-1.9 4.01-2.74 6.06z"/><g><path fill="#FFF" d="M134.76 120.9l.4.57c-.16-.27-.22-.48-.4-.58zM120.77 72.56l.4.1a.5.5 0 0 0-.4-.1zM85.5 58.47v-.5c-.03.24-.02.38 0 .5z"/><path fill="#FFF" d="M84.68 87.01a178.74 178.74 0 0 0 1.42 16.4c.23 1.87.5 2.95.78 6.45l.37 2.93c.08.49.1.98.22 1.45l.33 1.41a27.99 27.99 0 0 0 2.12 5.38 31.18 31.18 0 0 0 7.14 8.9c1.03.91 2.1 1.77 3.19 2.6l.8.6.54.34.99.6c1.26.75 2.34 1.33 3.28 1.84 1.87 1.02 3.19 1.72 4.27 2.5a8.15 8.15 0 0 1 2.03 2.2c.1.14.17.32.26.49l.13.25.03.07.04.13.08.28c.9 2.94 1.67 5.9 2.28 8.91.6 3.22 1.3 6.3 1.96 9.4l1.98 9.2c.65 3 1.4 6.03 2.07 8.99.66 2.96 1.39 5.92 2.21 8.87.43 1.47.8 3 1.13 4.55a223.72 223.72 0 0 1 2.54 13.83c.94 6.16 1.66 12.35 2.4 18.63.37 3.07.84 5.9 1.45 8.83l.47 2.18.4 2.1.4 2.09.41 2.31c1.11 6.22 2.32 12.3 2.57 18.57.09 1.68.14 3.38.18 5.07l.05 2.56.17 2.58c.09.85.98 3.25 2.21 5.6 1.24 2.34 2.61 4.6 3.3 5.26.61.58 1.72-4.78 2-6.2.22-1.17.5-2.5.8-3.88.3-1.37.57-2.8.82-4.17.53-2.75 1.05-5.34 1.18-7.06.34-3.5.63-6.06.76-8.6.18-2.56.2-5.1.1-8.58l-.02-2.68-.04-2.72c-.06-1.88-.06-3.81-.18-5.62l-.53-10.95c-.3-7.2-.32-14.42.29-21.78.24-2.98.2-5.95 0-8.92-.1-1.49-.22-2.97-.4-4.46-.2-1.53-.42-3.06-.66-4.6l-1.46-9.16c-.52-3-.98-5.99-1.24-9l-.39-4.8-.33-4.75c-.1-1.57-.22-3.17-.29-4.72l-.2-4.64c-.08-1.54-.17-3.07-.28-4.6l-.17-2.3c-.15-1.2-.31-2.56-.6-3.85a35.67 35.67 0 0 0-6.64-14.48 69.25 69.25 0 0 0-6.15-6.9l-2.6-2.58-.56-.56-.25-.26-.11-.12-.03-.04-.15-.27c-.18-.35-.3-.7-.3-1.07-.04-.36.14-.73.26-1.03l.08-.81-.01-1.92-.06-3.84c-.08-2.5-.21-4.97-.42-7.45l-1.86-19.82c-.16-1.66-.26-3.16-.36-4.7l-.16-2.3-.04-1.59c-.1-1 .05-2.3.16-3.43.07-.58.17-1.14.25-1.7.12-.54.2-1.1.34-1.6a15.9 15.9 0 0 1 2.27-5.41c.2-.28.4-.41.56-.66.2-.08.3-.24.46-.33.29-.13.55-.27.85-.3a.5.5 0 0 0 .27-.05c.09-.04.28 0 .4-.03.07 0 .14-.02.2-.04.07-.02.13-.05.25-.03a3.96 3.96 0 0 0 .92-.05l.1-.01.26-.02.52-.02 2.05-.1 3.82-.25c4.9-.34 9.3-.66 13.46-.68 8.3-.09 15.4 1.06 21.1 4.1.33.16.66.32.97.5l.9.61c.6.42 1.23.78 1.74 1.26l.81.68.9.84c.57.51 1.24 1.22 1.86 1.84 2.57 2.65 5.39 5.97 8.6 9.43a85.75 85.75 0 0 0 11.7 10.79c1.19.9 2.6 1.79 3.91 2.65.73.43 1.49.85 2.24 1.27.76.41 1.48.82 2.37 1.2.85.4 1.7.77 2.56 1.13.42.18.89.35 1.38.5l1.44.48 1.46.44.73.21.47.1 1.86.36c2.61.47 5.53 1.08 8.38 1.5 2.72.35 5.61.62 8.35.66 2.5.03 5.04-.16 7.53-.7a23 23 0 0 0 6.98-2.49c2.23-1.24 3.85-4.14 4.79-6.84-.79 2.21-2.73.3-4.74-2.3a94.3 94.3 0 0 1-2.84-3.96c-.84-1.13-1.46-1.98-1.62-2.14a38.36 38.36 0 0 0-6.38-4.8c-2.2-1.38-4.45-2.65-6.6-4.08a131.37 131.37 0 0 1-5.65-4.4l-1.34-1.09-.34-.27c-.11-.1-.23-.18-.26-.27l-.3-.5-.57-.93-.59-1.04c-1.53-2.66-3.3-5.8-6.16-8.9-3-3.26-6.38-7.08-10.4-11.07a90.41 90.41 0 0 0-6.92-6.23l-.99-.8-1.1-.82c-.74-.53-1.47-1.1-2.24-1.58-1.52-.97-3.06-1.94-4.62-2.85a69.13 69.13 0 0 0-19.9-7.26 98.05 98.05 0 0 0-19.45-1.83c-5.25-.03-10.25.32-14.82.7l-6.4.53-.74.06-1.3.13c-.96.1-1.92.22-2.88.35-1.86.17-3.93.78-5.9 1.3-.49.15-.98.28-1.47.44l-1.5.6c-1 .4-2 .82-2.98 1.27-.99.43-1.9 1.02-2.83 1.55-.92.57-1.87 1.1-2.73 1.74-.85.64-1.7 1.31-2.54 2-.4.34-.84.67-1.22 1.04l-1.13 1.11c-.74.75-1.47 1.52-2.18 2.3a88.1 88.1 0 0 0-1.86 2.36l-.9 1.2c-.28.4-.52.8-.78 1.2L92.2 34.6c-.45.81-.84 1.61-1.25 2.42-.4.81-.81 1.63-1.12 2.42l-.97 2.4c-.3.79-.55 1.56-.82 2.35-.56 1.58-.92 3.1-1.35 4.64a83.98 83.98 0 0 0-1.89 10.79c-.15 1.87-.23 3.83-.31 5.76l-.06 4.57c-.04 5.94.05 11.47.26 17.07z"/></g><g><path fill="#FFF" d="M218.41 111.02l.26-.05c-.13 0-.27-.05-.26.05zM191.59 122.59l-.35-.2c.1.1.22.15.35.2zM245.3 145.07l.1.04c.04 0-.02-.01-.1-.04z"/><path fill="#FFF" d="M248.9 146.1c.5.27-1.21-.57-2.93-2.5a6.87 6.87 0 0 1-1.8-3.28c-.17-1.07.29-1.95 1.2-2.2.48-.11.98-.22 1.5-.31l.76-.16.15-.03.05-.02.24-.04.97-.17c2.6-.46 5.13-1.1 7.6-2.13a27.03 27.03 0 0 1 7.1-1.99c1.12-.16 2.26-.27 3.4-.35 1.14-.09 2.4-.07 3.61-.1 2.37 0 4.63-.89 6.96-1.57 2.34-.68 4.69-1.25 7.1-.77 1.28.25 2.56.79 3.84 1.15.63.18 3.66-2.12 4.25-3.15.26-.47-1.67-2.75-2.21-3.34-1.77-1.96-4.51-4.53-5.92-5.3-2.83-1.53-4.16-2.2-7.02-2.6-2.95-.43-5.9-.6-8.87-1.12-2.92-.56-6.08-1.12-9.4-2.38a12.3 12.3 0 0 0-3.78-.77c-1.16-.06-2.31.06-3.44.19s-2.25.3-3.38.4c-1.11.09-2.23.1-3.36-.08l-.46-.08-.89-.04c-.56-.04-1.08-.1-1.63-.15l-3.33-.34c-1.14-.14-2.27-.2-3.47-.38l-3.7-.57a85.3 85.3 0 0 0-11.28-1.01l-1.83-.02c-.57.03-1.05.12-1.57.18-1.09.16-2.2.3-3.34.4l-1.73.13-.88.06c-.28.02-.48.07-.73.1-1.89.3-3.87.56-5.84.85-3.43.7-6.59 1.9-8.7 3.66-.96.91-1.9 1.78-2.72 2.77a25.67 25.67 0 0 0-5.7 13.35 27.6 27.6 0 0 0-.04 5.78c.1.88.19 1.76.36 2.58l.22 1.24.28 1.18c.94 3.96 3 7.55 6.52 11.4.46.47.84.94 1.37 1.43l1.55 1.45.78.73c.26.24.6.48.9.73l1.83 1.46c.57.49 1.33.97 2.02 1.46l2.1 1.45c1.53.96 3.04 1.93 4.63 2.89 1.48.86 2.87 1.75 4.3 2.66 1.4.92 2.83 1.84 4.18 2.84l2.05 1.5c.41.27.5.4.74.6l.6.55.6.56c.21.18.43.36.52.55l.74 1.14.1.14c0 .02.03 0 .08-.02l.12-.07.25-.14.24-.14.13-.06.06-.04h.01c1.24-.09-1.67.1-1.37.08l.02.02.27.33 1.13 1.29.59.63.46.48.95.93.48.46.4.36.81.72c.59.51 1.01.85 1.52 1.24a21.2 21.2 0 0 0 5.26 3.14c1.73.65 3.39 1.43 4.92 1.2.22 0 .38-.07.56-.14.18-.06.37-.14.58-.23.4-.19.68-.52 1.16-.85.36-.39.74-.9 1.32-1.38.62-.35 1.37-.75 2.2-1.18 1.61-.81 4.37-2.45 6.71-4.05-1.95 1.3-1.16-.04-.31-2 .44-.97.9-2.08 1.21-3.07.3-.95.49-1.7.5-1.85.27-3.44-1.03-5.8-1.75-8.5-.72-2.64-1.22-5.42-1.66-7.82-.12-.6-.22-1.18-.31-1.72-.1-.54-.23-1.06-.29-1.5-.06-.44-.21-.88-.2-1.2-.03-.32-.15-.63-.05-.74l.04-.1v-.03l-.42.47-.93 1.03a31.13 31.13 0 0 1-2.67 2.98l-.74.7-.37.33-.2.17-.09.08-.05.05-.02.02c-1.2 1.39 10.39-12 5.48-6.34l-.22-.33-.45-.65-.84-1.15-.7-.9c.06-.28.1-.43.07-.52-.03-.17-.37-.2-.58-.3-.16-.1-.55-.18-.9-.33-.36-.15-.67-.41-.37-.58.19-.1.8-.06 1.4.1.6.15 1.14.39 1.39.5z"/></g><g><path fill="#FFF" d="M422.08 447.94l.59 1.55c-.24-.7-.34-1.13-.59-1.55zM366.04 307.28l.43.1c-.18-.14-.32-.15-.43-.1zM333.45 276.62l.15-.9c-.1.43-.14.7-.15.9z"/><path fill="#FFF" d="M339.66 343.84l2.93 9.97c.96 3.4 2.16 6.73 3.33 10.07 2.24 6.71 5 13.23 7.74 19.72l4.46 9.56c.38.79.75 1.59 1.14 2.37l1.22 2.31 2.46 4.61 5 9.16 5.25 8.7 3.52 5.72 3.46 5.51 3.48 5.5c.18.31.18.26.25.33l.16.16.34.33.62.63c.86.9 1.82 2.02 2.87 3.36.26.33.51.68.8 1.03.15.17.33.33.45.52.12.2.17.4.23.61.04.2.16.46.13.6l-.38.17-.83.32-1.02.36c-.35.17-.7.41-1.07.61-.38.2-.78.34-1.2.5-.41.15-.85.27-1.3.4-.9.2-1.85.38-2.84.52l-.1.02-.47.06-1 .1-1.98.22-4.3.61c-5.15 1.04-7.7 1.67-11.12 2.42l-1.23.28-1.27.2-2.53.42c-1.7.27-3.35.6-5.07.8-3.48.41-6.87.91-10.44 1.2l-5.3.52-5.4.46-10.94.98c-1.83.17-3.72.4-5.57.59-1.87.22-3.7.37-5.6.67-3.76.53-7.64 1.08-11.11 1.7l-5.35.91-5.3.88a217.53 217.53 0 0 1-21.03 2.55l-3.2.28c-.61.04-1.12.14-1.69.21-.55.09-1.13.16-1.62.26l-1.45.26-.65.15-1.4.3c-1.86.37-3.9.75-5.69-.07-.45-.17-.83-.48-1.22-.77-.33-.34-.7-.67-.95-1.08-.3-.38-.53-.8-.75-1.23-.24-.42-.4-.88-.6-1.32l-.3-.66-.22-.7c-.18-.44-.22-.93-.3-1.4-.08-.48-.07-.97-.1-1.45l-.13-1.72c-.2-2.24-.62-4.62-1.3-7.1a26.2 26.2 0 0 0-3.67-7.78 21.56 21.56 0 0 0-7.43-6.62 24.6 24.6 0 0 0-8.8-2.57c-2.7-.3-5.09-.15-7.37.09l-1.67.22-1.34.2-2.6.39c-3.46.53-6.91 1.1-10.37 1.7-6.89 1.27-13.82 2.24-20.74 3.35-6.92 1.16-13.89 1.9-20.86 2.67l-5.23.52c-1.75.16-3.5.25-5.25.35-3.5.2-7.01.35-10.53.43l-5.61.09c-2.07.08-4.34.08-6.42.32-4.27.35-8.34 1.06-12.25 1.86-1.98.37-7.4 2.49-12.43 4.56l-3.57 1.37-3.57 1.42c-2.37.98-4.22 1.8-5.1 2.3-.8.45 1.84.47 5 .39l2.43-.08c.8-.02 1.5 0 2.22-.01l3.41-.05c5.01-.29 11.5-1.1 17.65-1.48 3.07-.22 6.07-.26 8.75-.22l7.06.34c8.05.29 13.98.56 19.94.55 5.96-.08 11.97-.27 20.21-.78l12.72-1.04c4.23-.35 8.45-.68 12.64-1.17 4.2-.45 8.4-.9 12.6-1.33l3.14-.33c.57-.06.9-.07 1.35-.11.44-.04.85-.07 1.25-.06 1.61-.04 3.1.1 4.15.45 1.08.36 1.68.8 2.14 1.36.47.56.9 1.4 1.25 2.57l.25.91.18 1.06.1.53.04.59.1 1.16c.03.19.01.42.02.62v.31l.01.44.1 2.15c.11 1.45.15 2.94.33 4.39.43 2.88 1.37 5.7 2.6 8.37a25.52 25.52 0 0 0 4.57 7.44c.51.51 1 1.06 1.55 1.56l1.73 1.37 1.9 1.12c.66.31 1.34.6 2.01.9a26.13 26.13 0 0 0 8.7 1.47c.62.02 1.24 0 1.87-.04l1.89-.1c1.27-.15 2.55-.27 3.85-.46l1.98-.28c.5-.07.53-.06.74-.08l.53-.04c.37-.04.7-.06 1-.07l.94-.04.81.02h1.05l2.7-.03 5.45-.12c3.6-.15 7.17-.47 10.77-.75 3.53-.38 7.1-.77 10.61-1.2l5.24-.7c1.74-.22 3.52-.47 5.12-.64 3.3-.38 6.55-.8 9.94-1.04l5.04-.4 5.13-.3c3.39-.17 6.9-.33 10.36-.43 11.7-.4 23.93-.91 36.52-3.23l1.18-.2.58-.09.36-.03 1.42-.16c.24-.03.44-.07.72-.09l.84-.05 1.67-.1 1.92-.06.96-.04.8-.04.98-.05 3.8-.23 1.9-.12 1.85-.24 3.73-.48c1.24-.18 2.37-.53 3.57-.78l1.77-.42c.6-.14 1.16-.31 1.86-.35l4-.42 2-.22 2.2-.28 4.4-.57c.77-.1 1.42-.17 2.09-.24l2-.21 4.02-.44c.41-1.79.81-3.6 1.2-5.43.06-1.22.07-2.56.1-3.81.03-1.37-.08-1.98-.14-2.94l-.08-1.48-.04-.77c-.03-.26-.2-.63-.3-.94l-1.4-3.88-2.81-7.79-3.36-9.24-1.65-4.62c-.15-.38-.27-.77-.43-1.16l-.58-1.17-1.16-2.36-5.57-11.3-5.1-10.6-2.5-5.28c-.83-1.75-1.54-3.5-2.32-5.24L392.93 381l-4.2-10.53c-.73-1.74-1.31-3.54-1.97-5.3l-1.96-5.3-.98-2.65-.9-2.68-1.84-5.35c-1.3-3.48-2.3-7.07-3.44-10.61l-1.76-5.59-1.1-3.4-1.15-3.16c-.38-1.09-.77-2-1.15-2.99l-1.13-2.84-2.08-5.22c-.36-.87-.6-1.6-.9-2.4-.29-.77-.6-1.57-.8-2.26l-.69-2.16-.5-1.98-.14-.5c-.04-.15-.04-.28-.07-.42l-.13-.82-.16-.83c-.06-.27-.05-.6-.08-.89-.02-.61-.12-1.18-.13-1.83v-2c.11-2.75.48-5.83 1.1-9.2.64-3.4 1.48-7.06 2.31-11.1l2.48-11.72c.93-4.49 1.86-9 2.83-13.3l1.45-6.51 1.61-6.3 3.49-13.49.9-3.52.8-3.4 1.58-6.8c1.47-6.13 2.82-12.27 4.4-17.86l1.14-4.3.45-1.7.22-.84.16-.7.6-2.69c.72-3.43 1.3-6.56 1.91-9.75 1.2-6.3 2.33-12.48 3.57-18.44l.95-4.4.5-2.09.24-1.05.26-.97c.17-.63.33-1.34.5-1.91l.5-1.66c.08-.26.13-.36.2-.55.05-.13.06-.15.07-.24.07-.1.1-.2.14-.3l1.42-2.26c.56-.76 1.1-1.58 1.64-2.3 1.11-1.44 2.1-2.58 3.41-3.87l1.2-1.16.84-.78.42-.4.62-.62a36.4 36.4 0 0 0 2.43-2.64c.39-.46.78-.9 1.13-1.38l1.04-1.47a32.8 32.8 0 0 0 3.3-6.33c.48-1.1.8-2.2 1.15-3.32l.5-1.68c.15-.53.2-.88.32-1.34l.57-2.58c.16-.82.27-1.56.4-2.34l.38-2.32.28-2.17.28-2.17.23-2 .43-4c.55-5.36 1-10.83 1.25-16.48.18-4.44.28-8.97.07-13.84-.1-2.42-.32-4.99-.68-7.7-.07-.66-.23-1.43-.35-2.14-.14-.74-.24-1.4-.43-2.2a59.07 59.07 0 0 0-1.24-4.5 56.82 56.82 0 0 0-7.7-15.75 45.15 45.15 0 0 0-15-13.41 46.55 46.55 0 0 0-4.68-2.2l-1.19-.47-1.09-.38-2.19-.72c-1.38-.4-2.74-.77-4.08-1.1-1.27-.27-2.6-.58-3.84-.8-5-.92-9.63-1.4-14.15-1.7-4.5-.31-8.9-.42-13.2-.42-2.16.01-4.3.04-6.43.1l-3.17.1-1.91.08-3 .16c-1.15.11-2.3.23-3.44.4-1.12.24-2.25.44-3.35.79-2.2.63-4.35 1.51-6.34 2.66-4.04 2.23-7.52 5.41-10.65 8.9-1.24 1.38-1.94 2.23-2.8 3.27l-2.28 2.77-2.1 2.58-.5.63-.43.48-.8.9-.94 1.11c-.33.38-.78.78-1.17 1.17-.82.8-1.6 1.63-2.47 2.44-1.82 1.56-3.64 3.28-5.63 4.73-2.27 1.82-2.99 2.4-5.21 3.72-2.08 1.23-4.63 2.55-7.46 4.05-1.44.76-2.88 1.52-4.49 2.43l-1.12.64-.71.44c-.48.3-.92.62-1.44.9-1.01.57-1.99 1.21-3.04 1.75l-1.54.86-1.55.8c-4.14 2.16-8.2 4.14-12 6.1a9.36 9.36 0 0 0-5.42 7.83c.1-1.17 1.51-1.4 3.65-1.08 1.07.2 2.34.37 3.73.65.7.14 1.43.3 2.18.48l2.3.4 2.38.46 2.37.34 2.3.34 2.12.2c2.7.31 4.72.34 5.2.32 2.84-.14 5.74-.67 8.66-1.37 2.66-.63 5.44-1.27 8.28-2a90.22 90.22 0 0 0 8.78-2.7c1.5-.53 3.06-1.24 4.6-1.95l4.14-2.1c1.92-.91 3.71-1.97 5.52-3.01l2.71-1.57 2.64-1.72 2.63-1.74c.88-.62 1.74-1.31 2.62-1.98.85-.66 1.8-1.38 2.56-2l2.27-1.87 4.31-3.54c.66-.53 1.4-1.13 1.9-1.44a11 11 0 0 1 .94-.31 4.23 4.23 0 0 1 3.36.32l.3.15.13.06c.1.02.36.03.54.05l2.33.17 4.68.32 9.38.6c2.6.15 5.15.38 7.57.66 2.46.27 4.71.66 6.75 1.1 2.04.4 3.7 1.02 4.41 1.38.76.37 1.27.83 1.86 1.42 1.13 1.15 2.56 3.41 3.65 6.83l.2.64.06.15.01.09.03.16c.04.24.12.36.16.79.05.38.14.65.19 1.11l.16 1.35c.18 1.97.28 4.25.3 6.63 0 4.84-.3 10.06-.77 15.38-.23 2.67-.5 5.36-.8 8.1l-.24 2.06-.24 1.86-.23 1.82-.27 1.63-.13.8-.07.4-.07.3-.27 1.25c-.08.34-.1.36-.12.43-.02.04-.07.05-.05.1-.05.01-.03.06-.06.09a.9.9 0 0 1-.07.08l-.02.02-.27.26-.62.58-1.84 1.74-2.07 2.1a71.15 71.15 0 0 0-3.88 4.52c-1.27 1.54-2.27 3.04-3.36 4.56-.57.77-.98 1.5-1.48 2.24l-1.65 2.6c-.58 1.13-1.18 2.24-1.72 3.38-.3.58-.5 1.14-.73 1.72l-.34.86-.28.75c-.4 1.06-.62 1.82-.87 2.64-.24.8-.53 1.67-.73 2.41-.82 2.99-1.5 5.8-2.1 8.53a347.7 347.7 0 0 0-1.69 8.04c-1.05 5.28-1.99 10.46-2.92 15.53l-1.38 7.38-.35 1.74-.33 1.55-.25 1.05-.48 1.91-2.07 8.15-.5 2.04-.44 1.96-.85 3.92-3.27 15.2a87.5 87.5 0 0 1-.83 3.6l-.86 3.52-1.8 7.35-1.98 8-.5 2-.43 1.97-.86 3.92-1.7 7.79-1.62 7.6c-.65 3.08-1.33 5.96-2 8.93l-1.04 4.43-1.13 4.71c-1.53 6.57-3.15 14.23-3.26 23.1 0 1.12.06 2.28.1 3.41.07 1.15.07 2.27.25 3.46l.48 3.54c.15 1.23.4 2.17.62 3.25.24 1.04.46 2.12.71 3.12l.82 2.91.41 1.45.44 1.35.88 2.68 1.74 4.92 1.62 4.43.75 2.09.64 1.92c.48 1.32.75 2.4 1.1 3.57z"/></g><g><path fill="#FFF" d="M228.35 204.51l.2-.01c-.1-.02-.15-.08-.2.01zM217.5 214.6h.03-.03zM191.72 195.81l.19-.33a.67.67 0 0 0-.19.33z"/><path fill="#FFF" d="M196.26 234.14a33.2 33.2 0 0 0 12.07 4.1c3.98.53 7.68.27 10.94-.48 3.36-.79 6.3-2.04 8.97-3.05 2.68-1.02 5.13-1.82 7.4-1.77 3.1.01 6.2.27 9.26.2 1.52-.04 3.04-.12 4.56-.26.76-.07 1.52-.15 2.28-.27.75-.13 1.5-.29 2.25-.47a56.67 56.67 0 0 1 8.9-1.25 82 82 0 0 1 4.4-.17l4.43-.11c2.88-.04 5.64-.97 8.39-1.8 2.76-.8 5.48-1.56 8.34-1.26 1.53.17 3.07.56 4.6.79.75.12 4.14-2.48 4.73-3.57.26-.5-2.17-2.57-2.84-3.11-2.2-1.78-5.5-4.06-7.13-4.73-3.3-1.34-4.82-1.88-8.03-2.13-3.32-.25-6.58-.4-9.82-.91a34.1 34.1 0 0 1-9.68-2.8 17.64 17.64 0 0 0-7.7-1.42c-2.56-.04-5.09-.03-7.56-.68-1.32-.4-2.6-.92-3.88-1.4l-1.91-.74-.95-.36c-.31-.12-.82-.26-1.21-.39a35.21 35.21 0 0 0-9.4-1.69 22.92 22.92 0 0 1-7.63-1.4c-2.06-.74-3.5-1.54-4.73-1.89-.25-.09-.52-.15-.78-.21a6.1 6.1 0 0 0-.75-.23l-9.48-2.24-.36.05-1.1.17 18.75 16.14-.01.01-.01.01H221.47c-.46.03-.92.03-1.4 0-.55-.05-.74-.01-1.07-.03-.3-.02-.61-.05-.93-.1l-.46-.08-.23-.03a3.92 3.92 0 0 1-.48-.1l-.23-.08h-.06a2.98 2.98 0 0 1 .6.31l.1.06.23.12a8.08 8.08 0 0 1 1.16.81c.43.3.89.64 1.3.98l.13.12h-.01c-.01 0-.03 0 0-.02.08-.07.06-.11.21-.24.35-.35 1.3-1.03 2.61-1.88 1.33-.86 3.07-1.92 5.15-3.35l1.27-.94c.09-.02.18-.02.25-.06.13-.06.38-.18.6-.32l2.15-1.18 5.25-2.94c3.69-2.07 7.53-4.22 11.68-6.42 1.98-1.06 4.04-1.9 6.42-2.99.6-.28 1.15-.5 1.8-.83l2.03-1.03.53-.28.92-.63c.62-.43 1.22-.87 1.81-1.33l.89-.7.43-.37.2-.15.63-.44.32-.22.04-.03 1.15-1.34.06-.08.23-.3a21.41 21.41 0 0 0 2.36-3.96 20.73 20.73 0 0 0 1.82-8.84l-.02-.68-.03-.57a22.16 22.16 0 0 0-.3-2.3l-.18-.91a23.98 23.98 0 0 0-.97-3.16l-.26-.67-.24-.54a28 28 0 0 0-.5-1.07l-.46-.85-.46-.8-.42-.68a35.7 35.7 0 0 0-4.9-5.98 28.66 28.66 0 0 0-6.99-5.15c-2.39-1.22-4.96-2.57-7.78-3.02a11.21 11.21 0 0 0-4.4.13c-.75.18-1.52.45-2.28.84-.76.39-1.54.87-2.13 1.6-.33.33-.71.72-1.12 1.16-.2.23-.43.44-.58.7l-.5.84c-.7 1.15-1.5 2.41-2.3 3.57.33-.47.47-.79.48-.96 0-.08-.03-.15-.1-.13.01.06.08.13.1.24.07.22.07.54.08.96l.04 1.52c.03 2.26-.17 5.12-.14 5.4.36 3.46 1.68 5.67 2.42 8.4.71 2.62 1.06 5.43 1.23 7.8.07 1.18.1 2.27-.04 3.02-.03.2-.1.35-.16.5l-.06.08-.04.04-.01.02.07-.07c.64-.63 1.22-1.22 1.86-1.8 2.42-2.3 4.7-4.17 6.6-5.38.97-.63 1.86-1.08 2.57-1.3a2.64 2.64 0 0 1 1.27-.2h.03c.02.01-.03 0-.08-.04l-.03-.02-2.3-2.31-.55-.37-1.12-.74-4.46-2.96-.56-.37c-.19-.13-.44-.43-.65-.64a41.72 41.72 0 0 1-2.53-2.91l-.59-.76c-.15-.19-.05-.11-.06-.15l.03-.04c.15-.23.34-.45.54-.64l.05-.05-.06.02-.11.04-.22.08-.43.17c-1.39.59-3.14 1.49-5.06 2.47-3.79 1.96-7.87 4.22-12.22 6.54a127.89 127.89 0 0 0-5.87 3.3c-.49.28-1.08.65-1.63.99l-.84.52-.43.27-.5.33c-.67.46-1.33.88-2.1 1.46l-2.35 1.85c-.38.35-.83.72-1.4 1.17l-1 .74-1.2.88c-1.75 1.26-4.06 2.86-6.75 5.28-.72.65-1.5 1.43-2.24 2.16-.78.84-1.56 1.73-2.32 2.66-.77 1.03-1.54 2.04-2.24 3.19a33.05 33.05 0 0 0-4.68 13.56c-.08.64-.17 1.33-.18 1.9-.05 1.21-.06 2.43-.04 3.64l.35 18.45 21.03-.05h1.11l-11.2-2.49.84.48z"/></g></svg>