<svg xmlns="http://www.w3.org/2000/svg" viewBox="0 0 400 400"><path d="M214.6 29.8c-.8 1.6-1.7 3.5-2.1 4.3-.7 1.6-2 4.4-2.7 5.5-2.6 4.5-8.9 14.2-10.4 16-2 2.4-2.4 2.9-3.2 4-.5.6-.8 1.2-.8 1.3 0 .4 2.3-1.6 3.6-3.1.7-.8 1.5-1.6 1.7-1.8.2-.1 1.2-1.2 2.2-2.4 1.1-1.2 2-2.2 2-2.3.1-.1.8-.9 1.6-2 1.9-2.4 1.8-2.3 1.6-1.6-.4 1.4-.7 5.5-.7 10.7v5.5l.8 1.5c.4.8 1.2 2 1.8 2.5.5.6.8.8.7.6-1.5-1.9-1.7-3.1-1.6-6.6.1-4.6 1.2-14.2 1.7-15.7.1-.3.4-1.3.6-2.1.4-1.5.9-3.4 2.6-9.3.5-1.7 1.3-4 1.9-5.2 1-2.3 1.1-2.8.7-2.8-.4.2-1.2 1.3-2 3m-65.1 7.3c-.1.2.4 1.4 1.4 2.7.3.5.9 1.4 1.2 2 .3.6.9 1.4 1.2 1.8.8.9 3.2 5.6 3.9 7.7.8 2.1 1 5.2.5 6.6-.2.5-.4 1.1-.4 1.4-.1.3-.3.6-.5.6-.2.1-.8.4-1.3.8-3.1 2.1-6.8 2.4-11 .9-.3-.1-1.5-.5-2.8-.9-4.4-1.4-11.4-4.9-15-7.7-.7-.5-1.6-1.2-2-1.5-1.1-.8-2-1.6-2.7-2.5-.5-.6-.7-.7-1-.6-.4.1-.4.2-.1.5.2.2.3.5.3.6 0 .7 2.3 3.5 6.8 8.2.4.4.8 1 .9 1.3.1.3.4.8.7 1 .5.4 4 5 5 6.5 2.8 4.2 4.2 8.7 3.2 10.9-.6 1.5-.4 1.5.7-.1 1.2-1.8 1.5-3 1-4.9-.3-1.2-2.5-5.8-3.1-6.5-.2-.3-1.5-2.4-1.5-2.5 0-.1-1.1-1.7-1.9-2.9-1.1-1.5-1.1-1.5 1.6-.2 1.3.6 2.9 1.2 3.6 1.4.7.2 1.4.4 1.6.5.4.2 3.7.8 6.2 1.2 1 .1 2 .3 2.3.4 3.1.9 8.8-1.2 10.8-3.9 1.5-2 1.5-7 .1-10.7l-.5-1.2 1 .9c.6.5 1.7 1.3 2.5 1.9.8.6 2 1.5 2.7 2.1.7.6 1.8 1.5 2.6 2.1s1.5 1 1.7 1.2c.1.1.7.6 1.3 1.2.6.5 1.3 1.2 1.6 1.4.3.3.8.7 1.2 1 .6.5 1.6 1 1.4.6-.1-.2-1.9-1.9-6.3-6-1.2-1.1-2.9-2.7-3.9-3.6-1-.9-3-2.8-4.4-4.1-3.1-2.9-6.6-6.2-8.5-8.2-1.5-1.6-1.8-1.8-2.1-1.4m10.9 13.2c.1.2.4 1.1.7 2.1.7 1.8 1 3.9.8 5.8-.2 4.4-7.2 7.7-13.9 6.6-.7-.1-2.1-.3-3-.5-3.5-.5-5.9-1.1-9.3-2.2-1.1-.4-1.1-.3-.2.8 5 5.8 7 11.3 4.9 13.6-.3.3-.9 1.1-1.3 1.6-.4.6-1.1 1.2-1.6 1.5-.5.3-2.5 1.5-4.5 2.6-8.1 4.8-12.2 6.2-15.9 5.3-.9-.2-2.2-.5-2.9-.5-3.7-.4-12.5-4.3-15.1-6.7-1.9-1.8-1.8-1.2.2 1.1.6.7 1.8 2.1 2.8 3.2.9 1.1 2.1 2.5 2.5 3.2 3.3 5.8 3.8 6.7 4.1 8.3.2.9.6 2.2.8 2.9.5 1.5.5 1.5-1 .9-4.2-1.6-14.9-2.1-18.9-1-.6.2-1.2.3-1.5.4-.2 0-.6.2-.8.4-.7.4-.8.4-1-.8-.7-3.6-.2-16.4.8-21.9.3-1.6.2-1.5-1.2.8-1.1 1.9-3.2 5-5.5 8.2-7.6 10.8-14.6 11.6-14.4 1.8v-1.7l-2.1 2.2c-4.5 4.7-9 5.7-14.5 3.3-1-.4-1.7-1.8-1.6-3l.1-.7.9.6c2.1 1.4 2.8 1.6 5.6 1.6h2.5l1.8-.9c2.8-1.5 6-4.1 7.9-6.6 1.2-1.6 1.2-1.6.9 0-.9 5 .8 9.8 3.6 9.8.6 0 3.6-1.3 3.4-1.5-.1-.1-.4.1-.9.3-.4.2-1 .4-1.2.4-.2 0-.4.1-.5.2-.2.3-1 .2-1.4-.2-1.9-2.1-1.7-10.8.3-17.4.5-1.7.5-1.6-.9.6-.6 1.1-1.3 2.1-1.5 2.3-.2.2-.4.4-.4.5 0 .5-1.7 2.8-3.6 4.8-3.5 3.6-6.7 5.8-8.4 5.6-4.6-.5-8.1-4.7-8.1-9.6 0-2.2 1.4-7.2 2.8-10.4.6-1.3.7-1.2-2.7-1-22 1.4-30.7 13.9-25.9 36.9.2 1 .5 2.3.6 2.9.1.6.3 1.4.5 1.8.2.4 1 3 2 5.9 1 3.1 2.1 6 2.6 7.1.5 1.1 1.7 3.5 2.6 5.3 2.8 5.8 7.2 13.6 11.6 20.4 1 1.5 1.9 2.9 2 3.2.1.3.3.5.4.6s1.4 1.9 2.8 4c16.1 23.2 31.7 40.6 51.8 57.5 17.4 14.7 39.6 29.2 57.8 37.7l3 1.4 1.2-.4c.7-.2 2-.6 2.9-.9l1.8-.4-.9-.5c-.5-.2-.9-.5-.9-.6s-.1-.2-.3-.2c-.2 0-3-2.7-6.2-5.9-6.4-6.4-7.2-7.1-12.1-10.7-.3-.2-.8-.6-1-.8-1.8-1.6-3.7-2.9-5.1-3.8-.9-.6-1.7-1.1-1.8-1.1-.2-.2-2.3-1.8-4.2-3-2.6-1.7-4.9-3.4-5.7-4-.3-.3-.9-.7-1.3-1-1.5-1-6.3-5-8.1-6.8-1-1-2.3-2.1-2.8-2.6-1.1-.9-3.2-2.8-2.5-2.4a22.54 22.54 0 0 0 2.9 2.1c.7.5 2.7 2 4 3.2 2.3 2.1 5.8 4.6 9.7 6.9 2.8 1.7 3.3 1.9 2.2.8-.8-.8-1.6-2.1-1.4-2.1.1 0 .5.4.9.9 1 1.2 1.1.8.2-1.1-1-2.4-.8-2.4.4-.2.5.8.9 1.6 1 1.8.1.2.3.5.5.9.2.3.6.8.9 1.2l.6.6-.5-1.4c-.9-2.4-1.1-2.9-1.1-3.2 0-1.2-2-4.4-3.5-5.7l-.7-.6.8.4c.5.2.9.5 1 .7l.6.6c.3.2.8.9 1.2 1.5.4.6.8 1.1.8 1 0-.1.1-.1 0 .1 0 .1.1.6.2 1 .2.6.3.7.3.3v-.5l.3.6c.2.3.6 1.6.9 2.8.5 2.1 1.4 3.9 1.1 2.3-.1-.3-.2-2-.2-3.8s-.2-3.4-.3-3.6c-.4-.8-.1-1 .4-.2.5.7.5.9.6 4.7.1 4.2.3 5 1.2 5.8.4.4.4.4.4-1.3-.1-3 2.1-5.5 3.8-4.5.3.2.2.2-.3.3-.9.2-.8.7.2 1.5.5.4 1.4 1.1 2 1.7 1.6 1.5 4.5 2.9 7.9 3.6 2.5.6 3.1 1.3.9 1.2-1.1-.1-1.3.1-.7.5.2.1.3.4.3.7 0 .2.1.9.4 1.4.3.6.4 1 .3.9-.6-.3.9 4 1.5 4.5.1.1.4.5.5.9.1.4.5 1 .8 1.3.3.3.6.7.6.9 0 .9 1.7 3 2.1 2.6.1-.1.2.1.3.4.1.3.3.6.5.7.2.1.5.6.8 1.1.6 1.2 1.4 1.7 1.9 1.4.3-.2.4-.2.5.2.1.3.3.5.7.6.4.1.5.2.4.3-.5.5 1.3 2.1 2.3 2.1.2 0 .4-.1.4-.3 0-.2.1-.3.2-.4.1-.1.2-.1.1 0-.2.2.6 1.1 1 1.1.1 0 .4.2.5.4.5.8 1.2 1.1 2.4 1.3 1.1.1 1.1.1.7-.2-.2-.2-.4-.4-.3-.5.1-.2 1.2.4 1.2.7 0 .1-.1.2-.2.2-.1-.1-.2 0-.2.1 0 .2-1.2.6-2.5.9-.6.1-1.7.4-2.5.8s-1.9.7-2.4.8c-.5.1-1.3.4-1.7.6s-.9.4-1 .4c-.1 0-.2.1-.3.1 0 .1-.5.5-1.1.8-5.4 3.5-7.8 8-7.8 14 0 2.6 0 2.5.8 5.5 1.3 4.5 4.3 8.5 8.8 11.5 1.1.7 3.9 2.2 3.1 1.7-3.8-2.8-7.2-7.3-8.3-11-.6-1.9-.3-1.9.7 0 2.2 4.3 8 10 12.5 12.3 1.9 1 4.9 2.3 5 2.2 0 0-.9-.6-2-1.2-3.6-1.9-8.2-5.7-10.3-8.5-.5-.7-1.5-1.9-2-2.6-2.1-2.7-4-7.3-3.2-7.9.3-.2.4-.1.8.8.7 1.4 2.3 4.2 3 5.1 1.5 2 3.4 3.6 2.2 1.8-.9-1.3-4.1-7.7-4-8 .3-1 3.9 2.1 5.1 4.5 4 8 11.6 13.3 21.1 14.7.5.1 1.4.3 2 .4.9.2 2.3.3 5.8.3 4.3 0 4.7 0 5.3.4.9.5.9.8-.1.4-1.7-.7-4.5.2-5.1 1.7-1 2.2-.5 3.3 2.3 4.6 1.4.7 1.6.7.6 0-1.8-1.2-2.5-2.8-1.7-3.8.8-.9 1.7-1.1 1.7-.4 0 1.7 2.4 2.9 4.8 2.2.6-.1 1.2.9 1.2 2.1 0 1 1.4.5 1.9-.8 1.4-3.2-2.5-7.7-7.5-8.5-.6-.1-1.1-.2-1.2-.3-.1-.1-1.8-.2-3.8-.3-4.5-.2-9.2-1.2-10.2-2.2-.1-.1-.3-.2-.4-.2-.6 0-4.6-2.1-5.2-2.8-.1-.1-.6-.6-1.1-1-3.6-3-7.6-11.4-7.5-15.9v-1.3l.7 2.3c.7 2.6.9 3.1 2.2 5.8 2 4.1 4.1 6.9 6.8 8.9 1.7 1.3 6.9 3.7 8.8 4.1 3 .6 3.5.6 1.5-.2-3.5-1.3-9.1-4.5-10.2-5.9-3.9-5-5.8-11.1-5.7-18.2l.1-3.8 1-1.6c2.1-3.6 4.4-5.7 6.8-6 1.5-.2 1.5-.2-1.4-1.6-4.3-2.1-7.7-4.6-9.5-6.9a52.8 52.8 0 0 1-2.7-3.7l1.3 1.1c.7.7 1.7 1.3 2.1 1.4 1.5.4 1.4.4 1 .7-.4.3 3.1 2.4 4.7 2.8.5.1.8.3.9.6.1.2.4.5.9.7.4.2 1.7.7 2.8 1.3 4 1.8 4.6 1.5 2.8-1.4-3.7-6-12.7-12.3-17.3-12.1l-1.3.1-.3-.9c-.2-.5-.6-1.5-1-2.4-.4-.8-1.1-2.4-1.5-3.5-.9-2.1-1.6-3.5-1.9-3.7-.1-.1-.6-.4-1.1-.8-2.9-2.3-3.1-2.3-3.1-1.3 0 .4-.1.1-.4-.7-.7-2.5-1.9-4.2-3.2-4.9-.3-.2-.7-.4-.9-.6-.9-.9-5.4-1.5-5.6-.8-.1.2.1.2.5.2 1.1-.1 2.3.3 3.4.9.6.4 1.2.7 1.3.7.4 0 .6.5.3.8-.5.6-.3 1.6.5 1.9 1.2.6.6 1.4-1 1.4-.5 0-.9.1-.9.2s.1.2.2.1.3 0 .5.2c.6.4 0 .4-.9-.1-1.8-.9-3.5-3.1-4.4-5.8l-.5-1.5-1.3-.4c-.8-.3-1.8-.4-2.8-.4-.9 0-2.1-.2-2.7-.3-.6-.2-1.6-.3-2.1-.4-3.3-.3-8.5-2.4-9.3-3.8-.2-.4-.8-1.2-1.2-1.8-5.4-7.1-3.9-16.8 3.1-21.1 1.9-1.2 1.9-1.2-2.9-1.3-4 0-4.3-.1-5.5-.5-2.7-1.1-6.5-3.8-7.9-5.8-.6-.8-1.1-1-1.1-.4 0 2.5 6.1 7.7 10 8.4 1.6.3 1.5.2 1 1.1-2.7 4.3-2.8 11.9-.2 17.3.3.5.2.6 0 .2-.2-.2-.7-1.3-1.1-2.4-.4-1.1-1-2.7-1.3-3.4-1.1-2.8-1.1-6.1.1-11.4.1-.4-.1-.5-.9-.9-4.4-2.2-6.8-4.8-9.4-10-2.4-4.8-3.4-10.3-2.5-14.2.2-.8.4-2 .6-2.7.2-1.3 1.9-4.9 2.6-5.7.2-.2.8-.9 1.3-1.5l.9-1.1-1.6.1c-7.5.3-11.1-3.3-9.8-9.6 2.4-11.8 7.3-18 13.6-17.2l1.1.1-1 .1c-2.7.4-3.8 1.5-1.3 1.2 2.5-.2 6.4.6 8.4 1.7 2.8 1.7 6.6 6.7 7.7 10.4.5 1.4.7 1.4.9 0 .1-.5.2-1.3.4-1.7.2-.4.3-1 .3-1.1 0-.4.7-2.6 1.6-4.6.7-1.5 2.5-4.5 3.6-5.6.6-.6.6-1.1.1-1.1-.4 0-1.9 1.3-2.3 2-.1.2-.6 1-1.2 1.8-1 1.4-2.4 4.2-2.8 5.8l-.2.8-.4-.7c-1.2-2.3-4-5.2-5.9-6.1-.4-.2-1-.6-1.4-.8-.3-.2-.7-.5-.9-.6-.2-.1-.1-.1.2 0 2.7.5 5.3 2.9 7.9 7l.4.6.7-2c1.8-5.4 5.7-10.4 8.8-11.3 5.3-1.5 9.2-.5 14.3 3.9 1.4 1.2 3.8 3.9 3.8 4.2 0 .1.1.2.1.3.3.1 2.8 4 3.1 4.9.3.8.9 2.3 2.1 6.2.7 2.4.7 2.3 1.4 1.2.8-1.3.9-1.4 1.2-2.1.3-.8 4-4.4 5.1-5.1.5-.3 1.5-1 2.2-1.6 4.5-3.6 8.2-2.6 7.9 2.2-.1 1.5-1.4 5.8-2 6.8-.4.6-.4.6 2.2 1.8 6.4 3.2 11.4 4.6 18.6 5.1 4 .3 5.5.3 7.6-.1 1.9-.4 2.1-.5.7-.6-.5 0-1.7-.3-2.8-.6-2.4-.6-5.2-1.1-6.2-1.1-1.4 0-1.4-.1.3-1.7 3.7-3.3 5.3-5.5 5.8-7.7.7-4.1 3.4-7.8 8.1-11.5 1.5-1.2.9-1-.7.2-1.1.8-4.4 2-6 2.3l-.9.1.5-.4c.5-.4.4-.4-.3 0s-.9.4-2.7.3l-2-.1.6.5c1.4 1.1 1.7 1.9 1.7 4.1v2l-.8 1.1c-.4.6-1.1 1.3-1.4 1.4-.3.2-1 .6-1.5.9-2.8 1.9-4.3 2.3-7.5 2.2-4.2-.2-6-1.3-8-5.2-2.5-4.8-2.7-8.9-.5-12.5 1.1-1.9.7-2.3-.8-.8-1.8 1.7-7 5.9-7.8 6.1-.3.1-.8.4-1.2.6-2.2 1.5-6.5 2.8-8.6 2.5-2.4-.3-3-.6-6.4-3.9-1.1-1.1-2.5-2.2-3-2.6-2.2-1.5-5.1-5.5-6-8.4-.7-2.1.5-4.6 2.1-4.6 1.3 0 4.3 2.1 4.3 3 0 .1.1.3.3.5.2.1.4.7.5 1.3.3 1.5 1 3.8 1.1 3.7 0 0 .3-.9.5-2 .7-3.2 2.6-8.1 3.8-9.6.9-1.2 5.5-6 6.3-6.5.4-.3 1.4-1.1 2.3-1.8 3.3-2.7 5.3-3.9 7.9-5 2-.8 2.2-.9 1.2-.8-2.6.5-5.7 1.8-8.1 3.6-2.4 1.8-10.2 6-12.9 7-10.1 3.8-21.6-1-22.1-9.1-.4-6.4 3.2-10.9 8.7-10.8 1 0 2 .1 2.2.2.2.1.6.2.8.2.2 0 .6.2.9.5 1 .9 1.1.8 2.4-3.1 2.4-6.8 4.8-9.2 8.5-8.5 3.4.7 4.8.3 6.6-1.7 3.2-3.8 5.9-3.9 10.4-.6 1.2.9 6.2 3.5 8.9 4.7 1.8.8 3.5 1.3 7 2.1 1.6.4 4.2 1 5.9 1.5 3 .8 5.4 1.3 8.1 1.8 3.3.5 6.1 2.2 7.5 4.4.5.7 2.1 2.5 3 3.3 1.1.9 1.2.8 1.2-1.1 0-1.6.6-4.8 1.3-7.2 1-3.6 1.9-6.4 2.4-7.4.7-1.4.7-1.5-.3-.7-5.5 4.4-11.9 2.6-14.3-3.9-.8-2.3-.7-8.8.3-14.2.1-.5-.2-.1-1.3 1.7-3.8 6.3-9.9 10.8-14.6 10.8-2.4 0-4.6-2.2-4.7-4.5v-.7l-.5 1c-1.9 3.6-5.6 4.2-10.5 1.8-2.9-1.4-3.9-2.4-12.1-10.7-2.9-1.8-3.1-1.9-2.9-1.4m70.7 6.5c-.4.3-1.4 1.2-2.4 2.2-6.8 7-10.9 10.5-12.4 10.9-.6.2-.8.5-.3.5 1.4 0 3.9-1.1 6.4-2.8 1.2-.9 2-1.2 1.4-.6-.2.2-2.9 7.9-3.9 11.1-.6 1.9-.6 2.6 0 1.3.2-.5.4-.9.5-1 .1-.1.3-.5 2-4.3.6-1.3 1.4-3.1 1.8-4 .4-.9.9-2 1.2-2.4.2-.5.7-1.6 1.1-2.4 1.4-3.1 3.3-6.3 4.8-8.1.4-.4.6-.8.6-.8-.1-.1-.5.1-.8.4M125.4 58c1.4.7 2.7 1.2 2.7 1 0-.2-2.4-1.2-3-1.3-.5 0-.4 0 .3.3m-34.1 3.1c-.1.3-.5 1.2-.9 2.1-.4.9-1 2.1-1.2 2.8l-1.1 2.5c-.3.7-.8 1.6-1 2.1-1.2 3.1-5.3 11.2-6.3 12.6-1.1 1.5-1.2 2-.1.7 1.1-1.3 5.2-7.6 6.1-9.2 1.1-2.1 1.2-1.8.9 2.4-.3 4.1-.4 14.8-.1 16.3.2.8.2.4.3-2.9.3-9.1 2-23.4 3.4-28 .3-1.1.4-2.4 0-1.4m79.5 9.9c-.1 0-.7.2-1.4.3-1.1.2-1.3.3-2.9 1.9-2.2 2.2-2.3 2.2-6.6 2.1-4.4-.1-5.4.4-6.3 3-.4 1-.3 1.1.4.8.9-.4 1.1-.4.8 0-.1.2-.4.4-.5.4s-.2.1-.2.1c.1.1-.2.5-.5.9s-.8 1.2-.9 1.7c-.2.5-.4 1.2-.6 1.5-.9 1.5-1.9 10.3-1.1 10 .1 0 .3-.4.4-.7.1-.4.3-.8.4-.9.1-.1.4-.8.7-1.5.5-1.4 2.8-6.2 3.1-6.3.1 0 .2-.2.2-.3 0-.5 2.5-3.2 3.1-3.3.4-.1.4-.1 0 .4-.7 1-3 5.3-3 5.6 0 .1.5 0 1.2 0 .7-.1 1.5-.2 1.9-.2 2.4-.2 4.6-1.8 4.8-3.6.1-1 1.7-2.6 2.6-2.6.2 0 .1-.2-.2-.7-.4-.7-.3-.9.5-.5 1 .5 4.4.4 5.7-.2 1.2-.6 1.5-.3.5.7-.3.4-.3.4 2 1.9 2.9 1.9 3 1.9 1.6 0l-.6-.9 1 .7c1.3.8 2.2 1.9 2.7 3 .2.5.8 1.4 1.2 2.1.9 1.5 1.7 3.3 1.7 3.8v.4l.2-.4c.1-.3.3-.4.6-.4.2 0 .6-.1.7-.3 1-.9 3.5-1.1 6.8-.6 1.1.2 2.8.4 3.9.4 2.2.2 1.9.4-.5.4-1.3 0-1.4.1-1.5.4-.1.5-.1.5-1.3.1-1.8-.6-2.8-.3-4.7 1.2l-1.7 1.4-2.1.3c-2.2.4-4.3 1-5.6 1.8-1.6.9-2.6 1.4-3.5 1.7-.8.3-1.5.8-3.8 2.9-.6.6-2.3 2-3.8 3.1-2.7 2.1-2.9 2.4-1.9 2.6.6.1.6.1-.4.5-1.8.8-1.9.9-2.9 2.7-.9 1.6-1.5 3.7-2 6.6-.1.3-.2 1.3-.4 2.1-.2 1.1-.2 1.9-.1 3.2.3 3 .9 4.7 1 2.5 0-2.1 1.1-4.9 2.6-7 .6-.7 2.8-2.6 3.1-2.6.2 0 1.4-.9 2.1-1.5.9-.8.6.1-.6 1.4-1.2 1.5-1.2 1.6.4 1.3 1.9-.4 5.5-2.7 5.5-3.6 0-.1.3-.6.6-1.1.3-.5.8-1.7 1.1-2.5.5-1.8.8-2 2.9-3.3.7-.4 1.7-1.2 2.2-1.7 3.3-3.5 4.5-4.5 5.8-4.7.2 0 .5-.2.7-.3.3-.3.8-.3 1.8.3l.9.5h-.6c-.5 0-1.1-.1-1.4-.2-.5-.2-4.2 1.9-4.2 2.4 0 .1.2 0 .5-.2.5-.3.8-.4 2.5-.4h3.2c4.5-.2 6.4.1 8.7 1.5.3.2.6.4.7.5 0 .1.1.1.2.1s1.2.6 2.3 1.3c1.2.7 2.7 1.7 3.5 2.1.7.4 2 1.3 2.9 2.1.9.7 1.9 1.5 2.2 1.8.3.3 1 .8 1.5 1.2l.9.8v-1.3c0-.9.2-1.8.5-2.7.6-1.6.5-2.1-.4-5.3-1.7-5.9-3.1-7-7.9-6-1 .2-2.3.5-2.9.6-.6.1-2 .4-3 .8-2.3.7-2.5.7-2.2.3.1-.2.5-.4.9-.6 2.7-.9 8.6-2.9 9.8-3.4 1.6-.7 1.6-.7 3.2.5.9.7 1.5 1.6 2.3 3l.5.9-.1-1.1c-.2-1.9.4-.8.8 1.6.6 4 .6 6.2 0 7.8-1.2 2.9.1 6.1 2.8 6.9 1.3.4 1.3.6.4.9-.6.2-.7.3-.6.7.1.3.2 1.2.3 2 .1 1 .2 1.6.4 1.7.2.1.2.4-.2 1.7-.8 2.6-2 4.2-4.9 6.1-3.8 2.5-5.6 5.3-5.4 8.7.1 1.4.2 1.5 1.3 1 2.5-1.1 3.5-1.3 2.9-.6-.2.2-.5.4-.6.4-.1 0-.5.3-.9.8-.4.4-.9.9-1.2 1.1-.3.2-1.5 1-2.6 1.8s-2.2 1.5-2.3 1.5c-.2.1-1 .4-1.7.8-.8.4-1.5.7-1.7.7-.8 0 .4.4 2 .7 4.3.8 7.4.4 10.3-1.2 2-1.1 2.3-1.7 2.4-4.3v-1.1l.3.6c.1.3.3 1.2.4 1.9.1 1.5.2 1.5 1.1.5 1-1.1 1.1-1.5 1.1-3.4 0-2.6.5-3.6 3.3-6.7 3-3.3 3.7-6.5 1.7-8.6-.8-.9-.6-3.9.5-6.5 1.2-2.9 1.2-3.7-.1-5.9-1-1.7-2.2-4.7-2.5-6.5-.1-.7-.4-1.5-.5-1.8-.2-.3-.3-.9-.3-1.3 0-4.8-1.4-7.9-4-8.7-2.1-.6-2.6-1-3-2.2-.8-2.4-1.4-2.9-3.5-2.9-1.5 0-2.1-.4-3.4-2.2-.7-.9-1.8-1.3-3.8-1.4-2-.1-4.3-.7-6.6-1.6-.9-.4-2.4-.9-3.2-1.1-.8-.2-2.2-.7-2.9-1.1l-1.4-.7-2.3.1c-1.3.1-2.6.2-2.9.2-.7.2-.9-.1-.2-.4.4-.2.4-.2-.3-.3-.4-.1-1-.3-1.3-.4s-.7-.3-.9-.3c-.3 0-1-.6-2.1-1.7s-1.9-1.8-2.3-1.9l-1-.3c-.6-.3-2.1-.8-2.2-.8-.3-.1-.5 0-.6 0m-51.4 5c.1.1.2.2.4.2s.3-.1.3-.2-.2-.2-.4-.2-.3.1-.3.2m74.9 6.8c1.9.4 4 1 4.7 1.2.7.3 1.9.6 2.5.7 1.6.3 2.2.6 2.8 1.2.7.7.7.7.2.7-.2 0-1.1.3-2.1.6l-1.8.6-.6-.7c-1-1.2-2.7-2-6.1-3-1.9-.5-4.1-1.7-4.1-2.2 0-.3.1-.4.5-.2.4.3 2.1.7 4 1.1m57.8-.7c-.4.3-1 .6-1.2.7s-1.1.7-2 1.2c-.9.6-3 1.9-4.7 3-3.7 2.3-8.5 5.5-10.3 6.8-.7.5-2.1 1.2-3 1.6-1 .4-1.8.8-1.8 1-.1.5 1.5.6 2.2.1.1-.1.6-.3 1.2-.5.5-.2 1.5-.6 2.1-1s1.2-.7 1.2-.7c.1 0 .9-.5 4.8-3 3.7-2.4 3.7-2.4 3.3-1.9-1.3 1.5-4.3 7.7-4.3 9-.1 3.6 3.7 5 8.5 3.2.2-.1-.4.7-1.4 1.7-5.1 5.3-8.2 13.3-6.5 16.6.7 1.4 1.7 1.3 1-.1-1.8-3.7 4.1-13.5 11.3-19 .7-.5 1.6-1.2 2-1.6.4-.4 1.5-1.2 2.6-1.9 3-2 2.6-2-1.5-.3-1.6.7-3.7 1.5-4.8 1.9-1 .3-2.4.8-3 1.1-1.3.6-4.2 1-4.9.7-3.5-1.3.4-9.8 8-17.1 2.3-2 2.5-2.3 1.2-1.5m-133.6 7.7c4.3 1.1 10.7 6 12.7 9.7.3.6.9 1.5 1.3 2.1 3.8 5.1 3 12-2.3 19-2.3 3.1-2.6 3.3-4.3 3.5-4 .3-7.4-3.7-8.4-9.9l-.2-1.4-.7 1c-2.7 4.1-10.1 3.8-14.6-.6-1.2-1.2-1.4-1.2-.9.2.5 1.7.7 4.3.5 5.9-.3 2.2-1.3 6.2-1.9 7.2-.5 1-1.7 3.9-2.1 5.2-.1.4-.6 1.5-.9 2.4-.4.9-1.1 2.9-1.6 4.4-2.2 6.5-2.6 7.2-4.9 10.4-1.4 1.9-2.8 3.3-4 4.1l-.7.4V152c0-1.7-.4-6.7-.8-9.8-.3-2.5-.5-4.5-.5-7.1v-1.8l-.6 1.3c-1.7 3.4-2.5 4.2-5 5.6-3.9 2.2-10.3.2-13.9-4.3l-.6-.7 1.7 1c.9.5 1.7 1 1.8 1s.3.1.4.2c.3.3 2.9 1.3 3.3 1.3.5 0 .2-.7-.5-1-1.8-.8-3.1-1.7-3.1-2.1 0-.2-.3-.6-.7-.7-.7-.4-2.6-2-4.6-4-1.6-1.6-2.3-2.8-3.9-6.6-.4-1.1-.9-2.1-1.1-2.4-.4-.7-1.4-5-1.7-7.3-.1-1.1-.2-2.1-.3-2.1-.6-1 2-6.3 3.7-7.3 3.2-1.8 5 1.5 6.3 11.7.2 1.6.5 1.2.8-.8.5-4 4.6-12.9 7.3-15.7.5-.6 1.4-1.5 1.9-2.2.5-.6 1.3-1.5 1.7-1.9.9-.9 1-1.3.2-.8-3.4 2-8.4 8.6-10.6 14.2-.9 2.2-1 2.3-1.1 1-.1-.9-.7-3.5-1.1-5.3-1.1-4.5-6.8-3.6-9.3 1.6-.9 1.8-.9 1.7-.3-1.1 1.1-5 4.4-8.8 7.4-8.5 1.9.2 3.8 3.3 4.2 7.1.1 1.2.3 2.3.3 2.4 0 .2.3-.4.6-1.2 1.1-2.9 5-7.7 8.7-10.5 3.3-2.5 4.8-3.8 5.6-4.6.6-.6.8-.7.8-.4-.1.2-.1.5-.1.6-.1.5 0 1.2.2.8.6-1.6.6 6.2-.1 9.8-.3 1.5-.5 3.2-.6 3.8-.2 1.3-.9 4.2-1.7 6.5-.7 2.1-.7 2.2.4.7 2.3-3.2 7-6.9 11.4-8.8 3.9-1.7 11.9-2.9 14.2-2 .5.2 1.1.3 1.5.3.7 0 3.7.9 4.3 1.3.8.6.9-.3.3-2.2-.7-2-1-3.4-1.3-5.8-1.1-4.7 2-6.8 7.5-5.4M241.9 91c-.2.2-.8.7-1.4 1.1-.6.4-2 1.4-3.1 2.2-7.1 5.4-10.6 5.7-14 1.4l-.5-.7.1.6c.3 1.3 1 2.6 2 3.4.8.8 3.6 2.7 3.9 2.7.4 0 1.8 1.4 2.5 2.5 2 3 2.6 4.7 3.4 9 .7 4.3.6 5.5-1 10.7-.7 2.1-.9 2.5-2.8 5.2-.5.7-1.3 1.9-1.7 2.8l-.8 1.6 1.9-1.9c1.8-1.7 3.1-2.7 5.5-3.9 1.3-.6 8.3-2.4 10.2-2.5 2-.2 2.1-.5.2-.6-2-.2-4-.7-5.1-1.2-5.1-2.6-3.8-11.7 2.5-17.9 1.4-1.4 1.5-1.5.8-1.3-1.7.5-4.5.3-5.7-.4-3.5-2-2.6-6.6 2-11.1 1.1-1.1 1.9-2 1.8-2-.3-.1-.5.1-.7.3m-46.6 1.5c.1-.1.3.1.5.3.2.4.5.4 2 .5 2 .1 1.8.4-.8 1-1.2.3-1.6.5-1.9.9-.6.9-1.7 1.8-2.1 1.8-.5 0-.5 0 .3-1 .6-.7 1.3-2.4 1.3-3.2 0-.6.2-1 .4-.6.1.2.2.3.3.3m25 5.7c-.1.3.9 3.2 1.8 5.1.6 1.4 1.7 2.4 1.9 1.8.2-.4.5-.4.5.1-.2 1.6 1.2 4.4 2.6 5l.5.2-.6.3c-.5.2-.7.5-.9 1-.3 1.1-.2 1.2 1.3 2.1 1.4.8 1.6 1.2.7 1.9-1.5 1.3-1.6 1.9-.5 3 1.9 1.8 1.4 6.7-.9 9.7-1 1.3-.8 1.3.3.1 3.5-3.6 5.1-7.9 4-10.9-.2-.6-.4-1.3-.4-1.6 0-.2-.1-.6-.3-.7-.1-.2-.2-.3-.1-.3.2 0 .2-.8 0-4.2-.2-3.2-.2-3.4-1.2-4-.4-.3-.7-.6-.7-.8 0-.5-1.6-1.9-2-1.8-.9.2-4.1-2.9-5.7-5.7-.2-.5-.2-.5-.3-.3m-139.7 3.1c-.1.2-.3 1.3-.6 2.5-1.1 4.7-2.6 9.7-3.7 12.3-.1.3-.6 1.4-1 2.3s-.8 1.9-.9 2.1c-.7 1.6-.6 1.9.3.7.7-1 8.5-9.1 9.6-9.9.4-.3 1.4-1.1 2.1-1.8.7-.7 1.6-1.5 2-1.8 1.8-1.4 3.5-2.6 3.6-2.6.1 0 .2-.2.4-.5.4-.9-1.1-.3-2.8 1.1-1.6 1.3-3.1 2.4-4.1 3.1-1.1.8-3.8 3.1-5.7 5-1.4 1.4-1.6 1.5-1.1.5.2-.4.5-1.4.7-2.3.2-.9.5-1.9.6-2.3.6-3.1 1.3-10.6.6-8.4m158.3.5c0 .2 1.1.8 1.4.7.1 0-.2-.3-.6-.5-.5-.2-.8-.3-.8-.2m-142.2 2.5c0 .1.2.7.4 1.4 2.2 7.2 2.4 13.7.6 20.8-.4 1.7-.7 3.1-.7 3.2 0 0 .1-.1.2-.4.1-.5.6-1.6 1.3-3 1.8-3.9 2.6-10.5 1.7-14.2-.4-1.4 0-1.5 1.4-.2 1.2 1 4 2.6 4.2 2.4 0 0-.3-.4-.8-.8-2.7-2.1-5.7-5.5-6.9-7.9-.6-1.3-1.4-2-1.4-1.3m81.1 3.6c-.1.1-.2.4-.2.6 0 .6.7.3.7-.3.1-.6-.1-.7-.5-.3m-49.7 4.1c0 .2-.2.3-.3.4-.3.1-.3.1 0 .2.4.2.9-.2.9-.6 0-.1-.1-.3-.3-.3s-.3.1-.3.3m-20.6 1.7c.1.4.5.4.5.1 0-.2-.1-.3-.3-.3-.2 0-.3.1-.2.2m224.5 4.5c0 .2.1.3.3.3.2 0 .3-.1.2-.2 0-.3-.5-.4-.5-.1m4.1 1.3c0 .3 1.1 1.2 1.5 1.2.3 0 .5.1.6.3.1.2.4.3.7.3.6 0 .5 0-.6-.6-.6-.3-1.4-.8-1.6-1-.3-.4-.6-.5-.6-.2m-6.9.2c-1.7.2-.8 4.1 2.1 8.3 3.1 4.6 2.6 4 6 7 .2.2.5.6.6.8.2.4 3 1.9 4.1 2.3 2.4.7 5.2 1.3 7 1.6 2.3.3 3.5.8 1.5.6-1.9-.2-6.2-.5-9.4-.6-4.1-.1-5-.2-5.5-.7-.9-.7-4 .3-10.6 3.3-.4.2-1.6.7-2.5 1.2-5.1 2.3-5.4 2.6-6.1 6.2-.3 1.4-.5 2.7-.6 3-.1.4 0 .4.9-.5.6-.5 1.2-1.1 1.5-1.3.2-.2 1-.8 1.6-1.4 1.3-1.2 3.6-3 3.1-2.4l-.9.9c-.3.3-1 .9-1.5 1.5-.5.5-1.6 1.7-2.4 2.5-1.7 1.7-1.9 2-.9 1.6.6-.3 6.9-3.9 9-5.3.5-.3 1.9-1.1 3-1.8 1.1-.6 2.3-1.4 2.7-1.8.9-.8 2.2-1.5 2.2-1.3 0 .1-.2.3-.5.4-.3.1-.5.3-.5.4 0 .3-2.8 2.4-5.3 4.1-2.8 1.9-2.8 1.9-1.1 1.3 2.4-.9 5.7-2.2 6-2.5.1-.1.3-.2.4-.1s-.2.3-.6.6c-.8.5-.9.8-.3.6.7-.2 4.1-1.5 4.7-1.8.3-.1 1.3-.5 2.2-.8 1.2-.4 2.2-.9 3.7-1.9 2.8-1.9 2.8-1.9 2.4-1.4-.2.2-.4.5-.6.6-.7.5-.3.6.6.2 1.8-.8 5.2-2.1 5.3-2 .1.1-.1.3-.4.5l-.1.4.5.1c.2.1 1.6.3 2.9.5 1.3.2 3.7.7 5.2 1s3.4.8 4.3 1c1.5.3 3.4 1 5.3 1.9.4.2 1.1.7 1.6 1.1.4.4 1 .8 1.2.9.7.2 3.5 3.2 3.5 3.7s.5 1.1.8 1c.1-.1.9 1.9 1.1 2.9.8 4.3 1.1 5.3 1.8 6.4 1.1 1.8 2.5 2.7 4.1 2.4.4-.1 1.2 0 1.8.1s1.4.2 1.8.1l.7-.1-.6-.3c-.3-.1-.9-.4-1.4-.6-.4-.2-1-.4-1.4-.5-.8-.2-2-.9-2.1-1.2-.1-.2 0-.2.3 0 .2.2.8.3 1.2.4 3.3.6 5.1 1.5 7.5 3.9 2.6 2.6 3.9 3.4 4.3 2.4.1-.2.2-.5.4-.7.4-.7.3-2-.2-2.7-.2-.4-.4-.7-.4-.8 0-.3-2.1-2.3-3-2.8-1.3-.8-2.4-1.1-4.2-1.2-2.3-.1-5.1-1.7-5.1-2.8 0-.1-.1-.3-.2-.3-.4 0-2.1-4.2-3.1-7.9-.1-.4-.8-1.8-1.5-2.9-.7-1.2-1.5-2.4-1.6-2.7-2.4-4.2-5.1-7.6-7.8-9.9-.7-.6-1.6-1.4-2-1.7s-.9-.8-1.2-1c-.2-.2-.5-.4-.5-.4-.2-.2-1.9-1.5-2.1-1.6l-1-.5c-1.8-1.1-4.9-2.5-7.5-3.4-1.6-.6-3.7-1.3-4.7-1.6-1-.4-3-.8-4.7-1.1-1.6-.3-3.1-.5-3.2-.6-.2-.1-.4-.1-.5-.1-.2 0-1-.4-2.2-1.1-1.5-.8-1.9-.1-.5 1 .5.4.9.7.9.8 0 .1.2.3.5.4.4.2.6.5.8 1.3.8 3.1 4.3 6.9 9.6 10.3 1.6 1 1.8 1.4.4.6-7.5-4-14.8-11.6-14.4-15-.1-.7-3.7-1.3-6.2-1m-193.9 1.1c-.3.2-.5.6-.5.7 0 .2.3 0 .6-.4.7-.7.7-1-.1-.3m-49.4 2c-.2.2-.5.9-.7 1.5-.2.6-.5 1.4-.7 1.8-.2.3-.6 1.4-.9 2.3a25.7 25.7 0 0 1-5.8 9.9c-1.4 1.4-1.5 1.5-.9 1.5 1.3 0 7.4-7 7.4-8.6 0-.1.1-.2.2-.3.1-.1.3 1.2.4 2.8.1 1.6.5 4.7.8 6.9s.6 4.6.7 5.4c.1 1.6.3 2 .6 1.6.2-.2.1-1.4-.1-4.7-.2-2.5-.3-8.1-.4-12.4-.1-4.4-.2-8-.2-7.9 0-.1-.2 0-.4.2m30.7.2c.7.1 2.2.7 2.1.8 0 0-.5-.1-.9-.2s-1.5-.3-2.3-.4c-.8-.1-1.5-.2-1.5-.3-.2-.2 1.4-.2 2.6.1m208.1 1.8c-.9.6-5.2 6.2-5.2 6.7 0 .1-.4.7-.8 1.4-.5.7-1.2 2-1.6 2.7-1.3 2.4-1 1.4.5-1.7.6-1.2 2.7-4.8 3.1-5.2.5-.5.7-1.2.4-1.6-.3-.4-1.1.5-2 2.1-.3.6-.6 1-.7 1-.1-.1 1-2.4 1.3-2.8.4-.5 0-.6-.8-.3-.6.2-.9.4-1 .9-.1.3-.6 1.2-1.1 1.9s-1.2 1.8-1.6 2.3c-.4.6-1 1.5-1.5 2.1-.5.6-1.2 1.7-1.6 2.4-.4.8-1.3 2.3-2.1 3.3-.8 1.1-1.7 2.5-2.2 3.1-1.9 3-5.2 7.1-7.4 9.1-2.5 2.3-3.1 2.7-1.4 1a61.22 61.22 0 0 0 7.9-10.5c.6-1 1.6-2.7 2.3-3.8.7-1 1.5-2.4 1.8-3.1 1.3-2.8 3.1-5.6 4.2-6.6.7-.7 1.3-1.7 1.1-1.9-.2-.1-1.5 1.3-3.1 3.5-.7.9-1.4 1.8-1.5 1.9-.7.8-1.8 2.3-2.2 3-.3.5-.6.8-.6.8-.1-.1.5-1.2 1.5-2.7 2.4-3.6 2.6-3.9 2.4-3.9-.1 0-.6.7-1.2 1.5s-1.2 1.6-1.3 1.7c-.4.4-3.1 3.5-4.2 4.7-1.1 1.3-4.3 4.4-6.1 6.1-2.1 1.9-1.5.9 1.3-2 1.5-1.6 3.3-3.7 4-4.6s1.9-2.5 2.7-3.5c1.5-1.9 4.3-5.9 4.3-6.1 0-1.2-14.3 3.2-22 6.8-1 .5-2.4 1.1-3.2 1.5-.8.4-1.4.7-1.5.7 0 0-1 .4-2.1 1-1.1.5-2.6 1.2-3.3 1.5-1.4.6-6.9 3.3-8.4 4.2-3.3 1.9-6.2 3.8-6.2 4.2 0 .1.4.4.9.7.5.3 1 .6 1 .7.1.1.2.2.3.1.1 0 .4 0 .7.2.3.1.9.3 1.3.4 1 .3 3.2 1.3 3.2 1.5 0 .1-.2.1-.3 0-.2-.1-.5-.2-.6-.2-.2 0-.7-.2-1.2-.4s-1.3-.4-1.8-.5-1.7-.7-2.8-1.2c-1.1-.5-2-.9-2.2-.9-.2 0-.3-.1-.2-.3.1-.3-.2-.6-.5-.4-.1.1-.7.2-1.3.2-1.4 0-3.1.3-3.2.5 0 .1.6.8 1.4 1.5l1.4 1.4c-.2 0-1.9-1.2-2.5-1.7-.3-.3-.8-.7-1-.9-.6-.5-2.3-.8-2-.4.7 1.2 10.2 8.4 10.2 7.7 0-.1.4.1.8.3.4.2.7.5.7.5-.1.1-2.7-1.1-4.2-2.1-.8-.5-1.6-1-1.8-1.1-2.5-1.5-4.7-3.4-6.6-5.5l-1-1.2-1 .1c-2 .2-2.1.5-.9 2.3 1.1 1.6 1.6 2.7 1.3 2.5-.3-.1-1.9-2.1-2.6-3.1-.3-.4-.4-.5-.6-.3-.2.2-.2.1-.2-.3 0-2.8-5.8-4.5-6.2-1.8-.4 2.9.3 7.1 2 12 1 2.8 3.8 9 4.5 9.9.2.3.8 1.3 1.3 2.3.5 1 1.4 2.4 1.9 3.2.5.8 1.5 2.1 2 2.9 1.5 2.2 1.6 2.3 3 3.9 1.6 1.8 3.3 3.5 4.6 4.5 1 .8 2 1.6 4.1 3.4 3.8 3.3 12.9 7.9 17.1 8.6.7.1 1.3.3 1.5.4.1.1 1 .3 2 .5s2 .3 2.2.4c1.1.2 5.1.1 6.8-.2 2.9-.5 4.5-1.4 6.7-3.6 2.4-2.4 3-3.5 5.2-8.1.5-1.1 1.5-5.7 1.7-7.9.2-2 .5-4.8.6-5.1.2-.7.5-4 .6-6.6.1-2.5.3-4.4.6-7 .1-.5.3-1.5.5-2.3.2-.8.4-1.7.5-2 0-.3.2-1.1.4-1.8s.4-1.4.4-1.7l.1-.5.1.5c.1.5.1.4.2-.1 0-.3.1-.8.2-1.1.1-.3.2-.8.3-1.2.2-1 .7-2.9.9-3.6.1-.3.2-.7.3-.8.1-.5 1.5-4.3 2-5.3l.4-1c0-.4 1.2-2.6 1.5-2.8.2-.1.7-.7 1-1.4.6-1.2 3.8-5.1 4.2-5.1.1 0 .4-.2.7-.4.3-.2 1.1-.6 1.7-.8 1.5-.5 1.5-.6 1.1-1.6-.4-.9-.7-.9-2.1-.2-.9.5-.9.4 0-.5l.7-.7-.9-.4c-1-.3-1.3-.3-2 .2m-101.4 1.9c-.2.3-.4.8-.4 1 0 .2-.2 1.1-.6 2-.3.8-.6 1.6-.6 1.8 0 2-3 8.6-4.6 10.2-.7.7-1.1 1.2-.9 1.1 1.8-.8 6.8-.2 9.7 1.2 2.7 1.2 2.7.8 0-2.8-3.3-4.5-3.9-9-1.7-14 .5-1.2-.1-1.5-.9-.5M144 128c-1.1 1.1-2.2 2-5.3 3.9-2.2 1.4-4.3 2.8-4.7 3.2-1 .9-1.3 1.1-4.3 3.3-3.9 2.9-5.5 5.2-6.7 9.9-.9 3.6-.8 4.3 1.3 8.3 3.5 6.5 6.9 9.6 16.6 14.8 1.3.7 6 4.3 6.9 5.4.2.2.5.4.6.4.1 0 .3.1.3.2.3.8 4.9 3.1 8.1 4.1 1.9.6 7.8 2.5 10.2 3.2 1.3.4 3.4 1 4.7 1.2s2.8.6 3.4.8c2.4.7 4.5.6 3-.2-.4-.2-1.3-.7-2-1.2-.7-.4-1.6-.9-2-.9-1-.1-4-1.2-4.8-1.7-1-.6-.9-1 .2-.9 4 .6 8.6.2 6.1-.6-.8-.2-1.7-1.2-1.3-1.4.1-.1 1-.1 1.9 0 2.3.2 6.6-.8 4.9-1.1-.3-.1-.7-.1-1-.2-.3-.1-.6-.3-.7-.5-.2-.4-.2-.4 2.3-.3 3 .1 5.1 0 5.1-.4 0-.1-.1-.3-.3-.3-.1 0-.5-.2-.7-.5l-.5-.5h1.6c.9 0 2.6 0 3.7-.1 2.2 0 3-.3 2-.7-.3-.1-.6-.2-.7-.2-.3 0-.7-.6-.5-.8.2-.2 2.9-.8 3.8-.8.8 0 2.4-.4 2.4-.6 0-.1-.5-.3-1.1-.5-.6-.2-1.1-.4-1.2-.5-.1-.2 1.1-.6 1.7-.6.7 0 2.1-1.1 2.1-1.6 0-.1.1-.3.3-.5.4-.5 1.6-3.5 2.3-6.1.3-1.2.4-1.3.5-2.2.2-1.8.5-1.1.4 1.1-.2 2.6-.7 5.4-1.5 7.6-.3.9-.6 2-.6 2.4 0 .6-.1.9-.6 1.2-.3.2-.9 1.1-1.3 1.8-1 1.8-1.3 2.3-3 5-.8 1.2-1.7 2.7-1.9 3.2-.7 1.3-2.8 3.2-5.4 4.9-.6.4-2.1 1.4-3.3 2.3-2.8 2-6.9 4.2-5.4 2.9.8-.7-1.2-.2-4.4 1.1-.7.3.5-.7 1.6-1.3 1.7-1 2.6-2.5 2.3-4.2-.2-1.2-.8-1.2-1.2 0-.3.9-1.7 2.6-3 3.7-1 .8-2.4 2.6-2.6 3.4-.2.6.9.9 4.1.9 4.1 0 5.2-.3 10.2-3.2.9-.5 1.7-.9 1.7-.9.1 0 .4-.2.7-.4s.6-.3.6-.3c0 .1.1 0 .3-.2.2-.2.3-.3.2-.1-.1.4-3.3 2.6-5.4 3.7-.5.3-1 .6-1.2.7-.2.2-.4.2-.4.1-.1-.1-.1 0-.1.1s-.1.2-.3.2c-.1 0-.4.1-.5.3-1 1.2 4.1-.9 7.2-2.9.8-.6.8-.5-.3.5-1.3 1.2-1.3 1.4 0 .6.5-.3 1-.6 1.2-.7.7-.4 6.4-4.2 7.2-4.8.9-.7 2.2-1.8 3.3-2.9 1.9-1.7 1.6-1.1-.6 1.2-.4.4-1 1.1-1.3 1.5-.3.4-1 1.2-1.5 1.9-2 2.3-1.5 2.1 1.4-.8.7-.6 1.6-1.6 2.2-2 .5-.5 2.1-2 3.5-3.3 2.3-2.3 2.6-2.2.5.1-1.7 1.8-8.9 9-10.4 10.3-.8.7-1.8 1.6-2.1 1.9-.4.4-1.4 1.1-2.3 1.7-.9.6-2.2 1.6-2.8 2.2-.7.6-1.8 1.6-2.6 2.1-2.4 1.8-4.1 3.9-3.6 4.6.1.2.4.3.5.2.6-.2 5.6-3.9 6.6-4.8.3-.3.7-.5.8-.5.4 0-6.4 5.8-8 6.8-.9.5-1.1.9-1.1 1.4 0 .1-.1.6-.3 1.1-.4 1.4-.2 1.6.8 1.5.9-.1.9-.1-1 .7-1.4.6-1 2.1.6 2.1 1.1 0 5.2-1.5 5.9-2.1.2-.2.5-.4.6-.4.2 0 4.2-2.4 5.4-3.3.5-.4 2.4-1.7 4.2-3.1 1.8-1.3 3.6-2.6 3.9-2.9.3-.2.6-.5.5-.6-.1-.1 0-.1 0-.1.1.1.4 0 .7-.3.4-.3.5-.5.3-.6-.2-.1-.1-.2.1-.3.2-.1.3 0 .2.1-1 1.6 6.6-5.9 8.5-8.4.8-1 1.4-2 1.4-2.1 0-.1.1-.3.3-.4.4-.3.5-1 .2-.9-.1.1-.3.2-.3.3 0 .2-1.6 2.3-2.2 3-.2.2-.3.4-.3.5s-.1.2-.3.2c-.3 0 .2-.9 1-1.7.1-.1.3-.4.5-.7s.6-.9 1.1-1.6c.5-.6.9-1.3.9-1.4s.7-1.5 1.5-3c1.8-3.1 2.5-4.7 3.3-7.1.3-1 .8-2.5 1.1-3.5.6-1.8.7-3.4.3-4.4l-.2-.6-.3.7c-.2.4-.3.8-.4.9-.1.5-1.5 3.2-1.7 3.2-.1 0-.1-.2 0-.3.2-.3.6-1.7 1.3-3.8.5-1.7.3-2.3-1.5-4.4-.8-.9-.7-1-2.4 2.1-1.8 3.2-1.9 3.3-.9.7 2.1-5.2 2.3-7.1.9-11.7-.3-.9-.7-1.9-.9-2.3l-.4-.7-.1 2c-.1 2-.8 5-1.2 6.1l-.3.6.1-.8c.1-.4.2-1.4.4-2.1.6-2.6.4-8.9-.3-10.4-.3-.6-.3-.7-.1-.7.2 0 .3-.1.2-.2-.1-.1 0-.1.2.1s.3.3.4.2c.2-.2 1.9 2.1 3.6 4.9 2.1 3.7 3.1 5.2 6.8 10 1.2 1.5 2.2 3.4 3 5.5a48.58 48.58 0 0 1 2.3 6c0 .2.1.4.2.6.1.2 1 3.1 2.2 6.5 2 6 2.8 8.5 3.7 11.9 1 3.4 1.1 3.9 1.2 4 .2.3 0-1.4-.3-3-.2-.9-.5-2.5-.7-3.6-.2-1.1-.7-3.5-1.2-5.4-.8-3.1-1.9-8.9-1.7-8.7.1.1.6 1.9 1.1 4.1 1.9 7.3 2.3 8.7 2.5 8.6.1-.1.1-.3.1-.5-.1-.2-.2-.6-.2-.8-.1-.5-.7-4.6-.8-5.3 0-.3-.1-.8-.2-1-.1-.2-.2-1.7-.2-3.3-.1-3.2.1-2.9.5 1.1.4 3.6 1.1 7.5 1.3 7.7.2.2.1-.8-.2-2.7-.2-1.1-.3-12.2-.2-12.6.3-.8.5.4.5 3.8 0 1.9 0 3.7.1 3.9 0 .2.2 1.4.3 2.6.2 2.2 1.1 6.9 2.1 11 .3 1.2.5 2.2.5 2.2 0 .1.1-.2.2-.5.3-.9.2-6.6-.1-8.1-.4-1.7-.8-8.3-.7-9.4.1-.7.1-.6.3 1 .1 1.6.3 2.7.8 6.1.1.4.1.8.2.9.1.5.3.5.4-.1.1-.3.2-1 .3-1.4.1-.5.2-3 .3-6.5 0-5.1.1-7.2.4-8.4 0-.2.1-1.1.2-2 .3-4.1.5-2 .2 3-.2 3.1-.1 6.2.1 7.1.1.4.2.5.2.3s.2-1 .3-1.6c.2-.7.3-1.3.4-1.5s.2-.9.4-1.6c.3-1.2.5-1.9 2.3-7.2.9-2.8 1.4-5 .9-4.9-.1 0-.4.5-.5 1-.1.5-.3 1-.4 1-.2.1.1-1.4.4-2.4.2-.6 0-1.8-.4-1.8-.1 0-.5 1-.9 2.3-.8 2.5-1.1 2.8-.6.6.2-.8.3-1.6.4-1.8s.2-.7.3-1.2c.3-1.1.3-2-.1-2.3-.2-.2-.3-.6-.3-1.1 0-.4-.1-.8-.2-.9s-.2-.6-.3-1.1c-.2-1.2-.5-1.2-.9 0-.2.5-.4 1-.4 1.2-.1.2-.3.9-.5 1.6-.2.7-.3 1-.3.6.2-1.2.3-1.5 1-3.8.8-2.5.8-2.8.4-3-.2-.1-.3-.2-.3-.4s-.3-.3-1.3-.2l-1.3.1-.6 1.6c-.3.9-.9 2.7-1.2 4-.4 1.3-.7 2.3-.7 2.1 0-.6.6-3.8 1-5.6.4-1.6.4-1.8.2-2.4-.3-.7-.3-.7-2.2-.3-.9.2-1.4 2.6-1.6 6.8-.2 3.8-.4 2.9-.3-1.2.1-3.4.1-4 .6-5.8.6-2.3.7-2.1-1-2.7-1.5-.5-1.9-.4-2 .5l-.1.7-.2-.5-.2-.5-1.5.1c-2.9.3-2.8.1-1.7 4.3 1.2 4.4 1.1 4.7-.2 1.1-1-2.9-1.6-3.6-2.9-3.8-3.3-.4-4.3.7-3 3.4.3.5.6 1.4.8 2 .2.6.6 1.6.8 2.3.6 1.5.5 1.8-.1.4-.2-.6-.7-1.5-.9-2.1-.3-.6-.6-1.4-.7-1.8-.1-.4-.3-.9-.4-1.1-.1-.2-.6-1.1-1-2.1-1-2.1-1.2-2.2-3.8-2.7-5.3-.9-7.6-.5-8.3 1.3-.1.3-.5.5-1.1.7-1.3.4-1.5.5-1.1 1 .3.4.3.4-.6.2-.5-.1-1.6-.2-2.3-.1-.8 0-2.5.1-3.8.1-3.6.1-3.8.2-2 .8l.8.3-.7.1c-.4.1-1.4 0-2.3-.2-11.2-2.1-17.3-2.3-24.5-.8-11.4 2.4-14.9 2.7-19.3 1.7-.8-.2-1.5-.3-1.7-.4s-.3-.2-.3-.3c0-.3 1.3-.5 3.6-.6 2.5 0 6.3-.7 4.5-.8-.3 0-.6-.1-.7-.1-.1 0-.5-.1-.9-.1-.7 0-.6-.1.3-.2 3.5-.5 4.7-.9 6.3-1.7 1.6-.8 1.7-.8.9-.7-.5.1-1.4.2-2 .2-.6 0-1.4.1-1.8.2-.8.1-.4-.2.5-.4.3-.1 1.2-.3 1.9-.5s1.4-.4 1.5-.5c1.2-.2 2.4-.9 1.7-.9-.2 0-.7-.1-.9-.3-.4-.3-.7-.3-1.9-.1-1.1.2-1.5.2-1.9 0-.2-.1-.9-.2-1.6-.2-1.2.1-1.6-.1-.6-.3 1.5-.3 3.2-1 3-1.1-.1-.1-1.6-.2-3.5-.2-4 0-4.2-.2-.6-.8.4-.1.9-.2 1.2-.2.3-.1 1.1-.2 1.8-.2l1.3-.1-1.7-.2c-3.1-.4-7-2.3-8.8-4.3-1.5-1.6-1.8-2.8-1.9-5.8 0-1.3-.1-2.7-.1-3 0-.5-2.4-3.1-2.8-3.1-.2.1-.8.7-1.6 1.5m170.7-.3c-.1.1-.5.6-1 1.2-.4.6-.6 1-.4.8.3-.2 1.8-2.2 1.6-2.2.1 0 0 .1-.2.2m13.2 2.4c-.2.1-.6.3-1.1.4-2.3.6-4.8 3.7-6.3 7.6-.5 1.3-.9 2.3-2.2 5.1-.8 1.9-.8 1.9 1.3.8 5.2-2.8 11-5.5 13.4-6.2.7-.2 1.1-.4 1-.6-.1-.2-.5-.2-2.4 0l-1.2.1 1.1-.4c1.9-.7 2-.8 1.8-1-.2-.3-1.9-.1-3.5.4-.8.2-1.1.3-1.1.1.1-.2 2.2-1 3.3-1.2.8-.1.8-.4.3-1.4-.8-1.4-1.1-1.5-2.2-1.2-.4.1-.5.1-.2-.2.1-.2.4-.3.5-.3.5 0 .5-.3.1-1-.4-.9-1.8-1.5-2.6-1m-140.5 3c-.4.6-.5.8 0 .4.2-.2.4-.5.3-.5-.1-.1-.2-.1-.3.1m123.9 9.2c-.2.3-.7 1.7-1.1 3.2-1.1 3.6-2.3 7.4-2.9 9.4-1.5 5-3.9 11.8-5 14.1-.3.6-.9 2-1.4 3.1-.7 1.8-2.8 5.9-3.6 7.3-.6 1.1-2.8 3.7-3.1 3.7-.2 0-.2-.1.2-.6.7-.7 1.8-2 1.7-2 0 0 .2-.4.6-.9.6-.8 1.6-2.5 1.4-2.5 0 0 .1-.4.3-.8.2-.4.6-1.3.9-2 .2-.6.7-1.7 1-2.4s.6-1.6.6-2c0-.4.3-1.2.5-1.8.3-.6.6-1.5.8-2.1.2-.6.5-1.3.7-1.7s.8-1.8 1.2-3.3c.5-1.5.9-2.8 1-3 .2-.7-.2 0-.9 1.2-.4.6-1 1.7-1.4 2.4-.4.7-.8 1.3-.8 1.4 0 .1-.3.4-.6.8s-.5.6-.5.6 0 .1-.1.3c-.6.7-.6.2 0-.7.3-.6 1.1-2 1.7-3.3.6-1.2 1.6-3.2 2.2-4.3.6-1.1 1.5-3.1 2-4.4s1.2-2.9 1.5-3.6c.8-1.6.6-1.7-.3-.3-1.4 2.1-1.7 2.6-1.8 2.5-.1-.1.5-1.3 2.1-3.9.7-1.2 1.6-2.8 2-3.7.4-.9.8-1.5.8-1.5.5.2.4.5.3.8m-196 2.9c-3.9 1.4-7.7 2-9.1 1.6-.6-.2-1.6-.4-2.2-.6-.6-.1-1.3-.3-1.4-.4-.4-.3-.9-.2-.9.3.1.4.4.6 1.8 1.1 3 1.1 5.2 1.3 7.3.8l1-.3-.6.8c-1.1 1.4-4.5 7.8-4.7 9-.2 1.1.4.8 1.1-.6 1.4-2.8 3.6-6 6.6-9.3 2.9-3 2.9-3 1.1-2.4m231.6-.1c0 .1.2.1.5.1.3-.1.5-.1.5-.2s-.2-.1-.5-.1-.5.1-.5.2m-265.1 2.3c.5 2.4.7 6.9.4 9.9-.5 4.6-.5 4.9 0 4.9s.8-.2 1-.6c.2-.5 2.6-3.6 4-5.2 4-4.5 5.7-5.6 8.2-5.2 5.6.8 7.2 6.9 4 15.5-1.6 4.4-1.6 4-.5 4.1 4.4.6 5.9 4.1 3.1 7.5-.7.8-4.1 2.1-5.7 2.1-2.2 0-2.4 0-1.3-.3 4.2-1.1 5.6-2.3 5.6-5.1 0-1.9-2-4.2-3.6-4.2-.3 0-.2-.2.4-1.4 1-1.8 2.4-6.5 2.3-7.6l-.1-.8-.5 1.5c-1.4 4.3-3.1 6.6-6.4 8.8-1.3.9-1.7 1.7-.6 1.3 1.1-.4 4-.1 5.2.5 4.2 2.1-1.2 6.6-5.7 4.7-.9-.4-1.7-.7-2-.7-.9 0-6.6-7.4-8.9-11.4-.3-.6-.7-1.1-.8-1.1-.6 0-2.6-3.2-4.7-7.5l-.9-1.8v-2.6c0-2 .1-2.8.3-3.2.2-.3.6-1.1.9-1.6.5-1 .5-1.6-.2-1.3-.1.1-.1 0-.1-.2.2-.7 1.5-1.1 3.8-1.1h2.2l.6 2.1m269-1.3c-1.2.2-1.2.3-.6 1.6.3.7.6 1 1.5 1.4l1.1.6-.9.1c-.6.1-.9.2-.8.4 0 .2.1.8.2 1.4.1 1.5-.3.8-.4-.7-.1-1-.2-1.2-.7-1.5-.3-.2-.8-.7-1.2-1.2-.3-.5-.7-1-.7-1s-.5.1-1 .3-1.5.6-2.1.7c-1.1.3-4.7 2.1-7.1 3.5-.6.4-1.7.8-2.3 1.1-1.5.5-1.5.5-.2 1.1.6.3 1.1.5 1.1.6 0 .2-1.8-.1-2.4-.3-1.8-.7-7.7.8-7.3 1.8.7 1.8 1 2.3 1.1 2.2.1 0 .3.1.5.3.2.2.3.4.1.4-.1 0-.2-.1-.2-.2s-.1-.1-.3-.1c-.2.1-.7-.3-1.4-1.1l-1.1-1.2-1.1.5c-1.1.5-4 2.5-4.7 3.2-.6.7-.7 1.7-.7 8.1 0 6.4.1 7.5.6 6.5.3-.6.5-.5.2.1-.6 1.5-.5 4.6.2 5.6.5.7.7.7.9.1.1-.4.2-.2.4 1.1.4 2.3 1.4 4.1 1.8 3.1.1-.3.2-.4.2-.1 0 1.2 1.5 3.5 2 3.2.1-.1.3.4.5.9.5 1.4.8 2 1.1 1.7.2-.2.3 0 .5.9.1.6.6 1.6 1 2.3.7 1.2 1 1.7 1.6 3.1l.3.7v-.7c0-.8-.4-3.7-1-6.3-.4-2.1-.6-4.5-.3-4.5.1 0 .3.6.4 1.4.1.8.4 2 .6 2.6.2.6.6 2.2.9 3.5.6 2.5 1.1 3.9 1.5 4.4.1.2.4.7.5 1.3.3 1.4 2.1 5 2.3 4.9.1-.1.2 0 .2.2 0 .4 1.4 2.9 1.7 3.1.1.1.3.2.3.4 0 .3 1.3 1.9 1.5 1.9.1 0 .2.1.2.3 0 .3 1.4 1.7 1.8 1.7.4 0 .5 0 .9.3.5.4 1 .3 1.5-.1.2-.2.4-.3.6-.2.3.3 1.9-.3 1.9-.7 0-.1-.2-1.1-.3-2.1-.2-1-.3-2.5-.3-3.4 0-1.7 0-1.6 1.5-1.1.2.1.7.2 1 .2.6 0-.6-.5-1.5-.7-.3 0-.9-.2-1.4-.4l-.9-.3v2.9c0 2.5 0 2.9-.3 2.9-.2 0-.6.1-.9.1-.5.1-.6.1-.6-.1 0-.6-1-1.8-1.4-1.6-.3.1-.4 0-.4-.3 0-.2-.3-.7-.6-1.1-.3-.4-.5-.8-.5-.9.1-.2-.9-2.2-1.4-2.8l-.2-.4c.1-.1-.8-2.1-1.1-2.1-.1 0-.1-.2-.1-.4.1-.5-.7-2.4-1.3-3-.3-.3-.3-.4-.1-.3.2.1.3 0 .3-.1 0-.6-.6-2.3-1-2.7-.3-.4-.4-.4-.1-.3.6.2 0-2.3-.7-3.5-.3-.5-.3-.5 0-.4.3.1.3 0 .2-1.4-.2-1.9-.2-4.7.1-5.3.2-.5.2-.5.2 0 0 .4.1.4.5.3l.5-.1-.4.5c-.5.6-.6 2-.1 4.1.2.8.3 1.7.4 1.9.3 1.9 1.5 5.5 2.3 7 .9 1.5 3.1 4.1 3.4 4.1.1 0 .8.4 1.5.9 1.8 1.2 3.5 1.9 5.9 2.3.5.1 1.5.3 3.8 1 .6.2 1.4.4 1.9.6.5.2 1.1.4 1.4.4 1 .1 3.8.9 4.1 1.1.1.1.2.1.2.1 0-.2.9.3 2.1 1 .5.3.8.6.8.8 0 .1.1.3.3.4.2.1.3.2.3.3 0 .1.3.5.7.9 1.5 1.6 1.4 4.3-.3 5.9-1.1 1.1-2.1 1-2.4-.2-.1-.7-.6-.8-.8-.2-.3.9.3 2 1.3 2.5 1.3.6 4.1-.2 4.4-1.2.1-.3.2-.5.3-.5 1.2 0 1.4-5.4.3-6.9-.5-.6-.4-.8.1-.2 2.8 3.3 3.3 6.9 1.1 7.9-1.1.5-1.1 1.1-.2 1.1 2.9 0 4.7-3.4 3.7-6.8-.7-2.3-5.1-5.8-8.1-6.4-.6-.1-1.9-.5-3-.8-2.2-.6-5.1-1.4-5.5-1.4-.2 0-.9-.2-1.7-.6-.8-.3-2-.7-2.8-.8-1.4-.3-4.4-1.5-4.4-1.8-.1-1.6 0-7 .2-8 .3-1.7.3-4.8 0-4.8-1 0-2.3 5.5-2.6 10.7v.8l-.9-1c-.5-.5-1-1.2-1.2-1.5-.2-.3-.5-1-.8-1.5-.6-1-1.4-3.1-1.2-3.1.3 0 .6.5.6.8 0 .4 1.1 2.2 1.7 3.1l.4.5v-.8c0-.4-.2-1.4-.4-2.1-.2-.7-.5-2.4-.7-3.8-.4-3.3-.8-4.7-1.8-6.4-.4-.7-1.6-.9-2.7-.4-.5.3-1 .4-1.1.4-.1-.1.8-.9 1-.9.1 0 .4-.2.7-.5.6-.6.3-1.1-.6-.9-.2 0-.7 0-.9-.1-.4-.2-.4-.2-.1-.2.4 0 .4 0 0-.4s-.4-.4.9-1.6c1.6-1.5 1.6-1.7.4-1.7-.6 0-1-.1-1-.2-.1-.2-.2-.1-.6.1-.3.2-.6.3-.6.3-.2-.2-.5-1.3-.3-1.3.1.1.3-.3.5-.8.9-2.4 3.5-5.3 5-5.6.9-.2.9-.4 0-1.3-.4-.4-.8-.9-.8-.9 0-.1-.3-.5-.7-1a3 3 0 0 1-.7-.9c0-.2 1.1.3 1.6.7 1.2 1.2 2.3 1.8 2.6 1.5.2-.2.3-.2.3.2 0 1 2.3 2.5 2.6 1.7 0-.1.3.2.5.8.6 1.6 2.9 3 3.1 2 .1-.3.2-.3.5.4.7 1.4 2.7 2 3.4 1.1l.4-.6.2.7c.2.6.3.7 1.8.9 2.4.4 2.3.5 3-1.1.2-.5.2-.4.2.3 0 1.1.3 1.4 1.8 1.6 1.1.2 1.4.2 1.7-.1.2-.2.4-.3.5-.3.1 0 .3-.2.4-.3.3-.3.3-.3.2 0-.1 1.2 0 1.2 1.4 1.7 1.5.5 1.9.4 2.5-.3l.4-.5-.1.8c-.1.7-.1.8.4 1.1.3.2.9.5 1.3.8 1 .7 2.3.3 2.3-.7 0-.1.1-.3.2-.3.1-.1.1.4-.1 1-.3 1.2-.3 1.2 1.3 2.2.9.6 1.7.6 1.8.1 0-.1.1-.4.3-.6.2-.3.3-.2.2.7-.1 1-.1 1.1.5 1.6 2.1 2 3 2.3 3.4 1.1l.3-.7v.7c0 1.8.4 2.3 2.6 3.5 1.9 1 2.3.9 2.7-1.3.3-1.6.8-3 1.1-3 .1 0 .1.1 0 .2-.3.5-.5 4.7-.2 5.1.2.3 3.7 1 4.6.9 2.9-.4 3.7-1.6 3.1-4.7-.1-.7-.2-1.3-.1-1.2.2.2 1.2 2.1 1.2 2.4 0 1.3 3.4-1.1 4.4-3.1 1.3-2.5 0-5-2.6-4.9-1.1 0-1.4 0-1.2-.2.6-.5.5-1.2-.4-2.3-1.1-1.4-3.3-1.9-3.6-.8-.4 1.2-.5 1.4-.5.7s-.2-.9-2.2-2.9c-1.8-1.8-3-2.3-4.6-1.8-.6.2-.6.2-.7-.5-.2-1.2-1.2-2.1-3.2-2.8-1.6-.6-3.3-2.5-4.1-4.5-1-2.6-.6-2.4.8.4 1 2 1.5 2.7 2.5 3.2.7.4.7.1.1-.7-.5-.7-.6-1-1.2-3.2-.7-3.1-1.8-5.4-3.3-7.3-.4-.5-.7-1-.7-1.1 0-.1-.2-.2-.4-.2s-.5-.3-.8-.7c-.6-1.1-3.1-2.7-3.4-2.2-.1.1-.4 0-.8-.3-1-.8-4.3-1.8-4-1.3.1.1 0 .2-.1.2s-.2-.1-.3-.3c-.2-.5-1.7-1-3.5-1.3-1.8-.2-2.1-.2-1.7.3.2.3.2.3-.1.2-1.4-.6-1.9-.7-3.8-.7-1.2-.5-2.6-.4-3.2-.3m-275.6.7c0 .1-.2.4-.5.6-.5.6-2.1 3.4-2.1 3.8 0 .1-.1.3-.2.3-.3 0-.2-.5.2-1.6.6-1.4 2.6-3.9 2.6-3.1m123.6 2.6c-.2.1 0 .2.6.2.5 0 .9-.1.9-.2.1-.2-1.1-.2-1.5 0m156 .5c.2.9 1.2 2.5 2 3 .3.2.9.6 1.3.8l.7.4-.1-.7-.1-.7.8.7c.8.7 1.8 1.1 3 1.2.3 0 .6.2.8.3.4.4.5.2.2-.4-.4-.9-.4-.9.8 0 .6.4 1.3.8 1.6.9.3.1.8.3 1.2.6.6.3.8.4 1.1.2.3-.2.4-.2.4 0 0 .9 2.2 3.3 3 3.3.1 0 .3.3.4.6.2 1.1.9 3 1.4 3.5.7.7.2 1.2-.5.5-.2-.2-.3-.2-.5 0-1.1.9-7 .2-9.6-1.2-1.7-.9-5.4-5.4-6-7.2a12 12 0 0 0-1.5-3c-1-1.5-1.3-2.4-1.1-3 .3-.7.5-.6.7.2m8.2.2c1 .5 1.7 1.1 1.3 1.1-.1 0-.9-.3-1.6-.8-1.6-.9-1.3-1.1.3-.3m-112.4 1.1c0 .6.4 1.3.4.7 0-.8.3-.6 1.1 1 .9 1.7 1.8 2.9 5.3 6.7.9 1 2.6 2.3 4.2 3.4.6.4 1.1.8 1.1.9s.1.2.1.1c.2-.1 1.9 1 1.7 1.2-.2.2-2.8-1.5-5.5-3.5-1.1-.8-3.9-3.6-5.3-5.3-.4-.5-.8-.9-.8-.8-.2.2 2.9 4.5 4.3 6 2 2.2 3 3.4 1.9 2.4-.3-.2-.9-.8-1.5-1.3-.5-.5-1.4-1.3-2-1.9-1.2-1.2-1.1-.9 0 .9 3 4.5 7.2 8.4 10 9.4.7.3 1.9.7 2.5 1.1 2.2 1.1 5.7 2.2 9.3 2.8.4.1 1.2.2 1.9.2.6 0 1.2.1 1.3.1.1 0 .1.1.1.2 0 .7-7.7-.5-11-1.7-3.7-1.3-8.8-4.4-11.1-6.8-4.5-4.6-8.9-12.9-8.6-16.4.2-.7.6 0 .6.6m54.2 2.2c-.4.6-.8 1.1-.9 1.2-.1.1.2-.5.7-1.2.5-.7.9-1.2.9-1.2 0 .1-.3.6-.7 1.2m38.3-.6c-.3 1.5.8 3.5 2.3 4.2.6.3.7.3.2.4-.9.1-1.8-.5-2.4-1.9-.3-.7-.7-1.2-.8-1.2-.3 0-.2-.9.2-1.5.5-.8.6-.8.5 0m13.1.6c0 .2.1.3.2.4.1.1.2-.1.2-.3 0-.2-.1-.4-.2-.4s-.2.2-.2.3m-2.2 2.2c-.1.5 0 1.3.1 1.8.2.8 0 1.2-.3.4-.2-.7-.2-2.6 0-2.9.3-.4.3-.3.2.7m7.3.8c0 1.5 1.4 3.6 2.8 4.4 1 .6 1.5.6 1.4.2-.1-.3 1.1-2.1 1.7-2.6.5-.4-1.4-1.3-3.4-1.7-.2 0-.7-.1-1.1-.2-.4-.1-.8-.2-1-.2-.2 0-.4 0-.4.1m-11.3 1.4c-.2 1.2.1 2 1.1 2.9.9.8.9 1-.1.7a2.7 2.7 0 0 1-1.7-3.3c.3-1.5.9-1.7.7-.3m-10.2.1c-.3 1-.1 2.4.4 2.9.2.2.4.6.6.9.1.3.6.7.9.9.9.5.9.7 0 .2-2.4-1.2-3.4-3.6-2.2-5.3.5-.6.6-.6.3.4m-26.4.3c-.1.9-.2 1.9 0 1.8.1-.1.2-.6.3-1.3.1-1.4-.1-1.8-.3-.5m55 .6c0 .3-1.9 2.4-2.4 2.7-.5.3-.3.6.4.7.8.2 1.4.9.8.9-.2 0-.5.1-.5.2-.1.2 1.5.5 1.9.3.2-.1 1-.1 1.9-.1h1.6l-.4-.8c-.2-.4-.8-1.2-1.3-1.8-.5-.5-1.2-1.3-1.5-1.7-.3-.4-.5-.6-.5-.4m-118.1 1.3c.7 1.4.8 2.4.1 1-.3-.6-.5-1.1-.5-1.2 0-.1 0-.2-.1-.3-.1-.1-.2-.2-.2-.3 0-.3.2-.1.7.8m120.8.2c0 .1.1.3.3.5.3.3.3.3.2 0-.1-.2-.1-.4-.1-.5 0-.1-.1-.2-.2-.2s-.2.1-.2.2m-14.5.8c0 .2-.1.2-.2.2-.1-.1-.2-.3-.2-.4s.1-.2.2-.2c.2 0 .2.2.2.4m-23.9.2c.5.2.4.4-.4.4-2.3.1-3 .7-2.2 1.8.3.5 1 1.6 1.4 2.5.4.9 1 2.2 1.4 2.8.5 1.1 1.1 3.8 1.1 5 0 .7-.1.4-.2-.4-.4-2.9-2.4-7.2-4.4-9.4-.4-.4-.6-.8-.6-.9 0-.1-.2-.5-.4-.8l-.4-.6.7-.1c.4-.1 1-.2 1.3-.3.7-.2 2.3-.2 2.7 0m15 .3s-.1.4-.3.7c-.8 2 0 3.6 2.4 4.5 1.6.6 1.6.8.1.5-3.4-.7-4.5-2.3-3.1-4.8.4-.8.9-1.2.9-.9m-33.7.9c-.2.9-.7 6.7-.6 6.8.1.1.2-.9.6-4.2.3-2.7.3-4 0-2.6m45.1.6c.2.6.2.6 0 .4-.1-.1-.3-.5-.4-.8-.1-.7.2-.5.4.4m-50.2.4c-.3 3.1-1.3 9.4-1.9 11.5-.3 1.2-1.4 4.3-1.4 4 0-.1.1-.8.3-1.4.2-.9.6-3.1 1.4-8.1.1-.6.5-2.4.8-3.8.3-1.4.6-2.8.6-3s.1-.4.1-.4c.2 0 .2.5.1 1.2m-56.4 1c.1.1.5.6 1 1.2s1 1.2 1.2 1.5.7.8 1.2 1.3c3.9 4.6 11.5 9.3 16.1 10 1.2.2 2.8.5 3.6.7.8.2 2.3.4 3.3.5 1 .1 1.9.2 1.9.3 0 .4-5.9-.1-10.6-.9-1.5-.2-2-.4-3-1.1-.7-.5-1.7-1.1-2.2-1.4-1-.5-2.6-1.6-2.8-1.9-.1-.1-.7-.5-1.5-1s-1.9-1.4-2.4-1.9c-.6-.5-1.1-1-1.3-1-.3 0-3.5-4.1-4.7-6-1.1-1.8-1.4-2.5-.4-1.2.2.4.6.8.6.9m139.4.2c.7.5.7 1.2-.1 1.2-.4 0-.6-.2-.9-.9-.7-1.3-.5-1.3 1-.3m-29.7.5c.4.4.4.4.1.4-.5 0-1.3-.8-1.3-1.3-.1-.3.1-.2 1.2.9m5.1 1c1.8 0 2.1.5.5.7-.9.1-2.8-.6-2.6-.9.1-.1.2-.1.5 0 .1.1.9.2 1.6.2m-11.9.4c-.5 1.2-.4 1.4.7 2l1 .6-.9-.1c-1.8-.2-2.5-1.4-1.5-2.4.5-.6.9-.6.7-.1m-133.3-.1c0 .1.4.8.9 1.6s.9 1.5.9 1.6.1.1.1.1c.2-.2-1.2-2.9-1.5-3.2-.3-.1-.4-.2-.4-.1m160.8 1.3c-.4.6-.3.6.4.3.5-.2.5-.3.3-.5-.4-.3-.5-.3-.7.2m-7.9.7c0 .9.7 2.2 1.5 2.6.2.1.3.3.3.4 0 .1-.1.1-.2-.1s-.2-.2-.2-.1-.3 0-.6-.1c-1.2-.6-1.8-2-1.4-3.1.3-.8.6-.6.6.4m-154.1 1.1c-.1 4.8-.4 8.1-.8 9-.4.9-.6 1.5-.8 3.9-.1.9-.4 2.5-.6 3.4-.7 3.2-1.2 6.2-1.4 9.5-.5 8.1-.5 7.9.4 12.3.7 3.3 1.1 4.5 1.7 6 .2.4.6 1.4.9 2.1 3.3 7.9 8.3 13.4 18.9 21l.6.4.6-.5.6-.5-.4-2.2c-.4-2.3-.9-3.3-2-4.1-1-.7-5.7-6.1-6.6-7.5-.5-.8-1.1-1.7-1.4-2.1-1.2-1.9-.8-1.8.6.1.6.8 1.1 1.5 1.2 1.6s.3.5.6.8c.5.6 4.9 5.4 5.1 5.4.1 0-.8-4.5-.9-4.6-.1-.1-.3.1-.6.2-1.3.8-2.8-1-2.1-2.7.2-.5.4-.3.3.3-.1 1.9 2.1 2.5 3 .9.6-1.2 0-2-1.9-2.6-.3-.1-.3-.2-.1-.6.1-.3.2-.7.2-.9-.1-.2-.2-1.8-.3-3.4-.2-4.7-1.5-9.5-3.1-11.9-.2-.4-.8-1.8-1.3-3.2-.5-1.4-1.4-4.1-2-6-1.6-4.6-2.3-8.3-1.8-9.3.2-.4.3-.8.3-1-.1-.6-.6-1.7-1-2-.2-.1-.3-.5-.3-.7 0-1.8-1.7-2.5-2.1-1-.1.3-.2.5-.3.5-.1 0-.2.1-.1.1.1.1-.1.6-.3 1.2-.2.6-.6 1.8-.8 2.7-.2.9-.5 1.9-.6 2.3-.1.4-.2 1-.3 1.5-.1.4-.2.9-.2 1.1-.1.2-.1.6-.2 1-.2 1.7-.5 3.4-.6 3.5-.3.2.3-5 .8-7.9.4-2 .7-3.5 1.1-4.5.2-.6.6-2.2.8-3.4.2-1.2.6-2.6.8-3.1.4-.9.5-.8-.7-2.7-1.6-2.7-2.6-4-3-4 .2-.2.2.6.1 1.6m142.9-.7c-.2.8.1 1.1 2.2 1.8 1.1.4 1 .7-.3.5-2.1-.2-3.1-.9-2.6-1.9.6-1.1.9-1.3.7-.4m-116.6.2c-.5.5-1.5 3.6-2.4 7.3-.3 1.2-.8 3-1.1 4-1.4 4.3-2.6 10.9-3.4 18.8-1 9-.3 23.2 1.6 31.7 1.9 8.7 6.9 19.9 9.5 21.3.2.1 1 .8 1.7 1.6 1.7 1.8 3.6 2.4 5.4 1.6.4-.2.7-.2.8-.2.2.2 1.1-.2 2.3-1.1 1.3-1 1.9-1.6 1.3-1.2-.2.1-.1 0 .1-.2s.5-.3.6-.2.2 0 .1-.1c0-.1.4-.5.9-1 2.1-1.7 5-4.8 5.8-6.3.1-.3.6-.8 1-1.3.4-.4 1-1.3 1.3-1.9.3-.6 1-1.7 1.5-2.4.9-1.2 5.6-9 5.6-9.2 0-.3-2.6 3.2-4.9 6.6-.1.1-.2.2-.2.1-.1-.1 1.3-2.5 2.7-4.6.3-.4.7-1.3.9-1.9.4-1.2.4-1.3.6-1 .1.2.3 0 .7-.5 2.4-3.3 3-4.4 3.2-5.1.1-.6.2-.7.2-.4v.5l.5-.6c.3-.3 1.1-1.7 1.9-2.9.8-1.4 1.5-2.4 1.7-2.3.3 0 1.1-1.2 1.8-2.8.2-.6.8-1.8 1.1-2.6.7-1.5 1.1-2.9 1.3-4.4.1-.5.3-1.5.5-2.2.7-2.4.7-4.6.1-4.6-.8 0-1 .3-1.2 1.9-.2 1.5-.5 1.6-.5.2 0-1.2-1.8-1.2-2.8 0-.3.4-.3.4-.1-.3.5-1.7.1-2.4-1.2-2.3-1 .1-1.2.3-2.2 2.4-.4.8-.9 1.6-1.1 1.8-.2.2-.6.8-1 1.2-3.4 4.6-3.9 5.3-6.6 7.9-.6.5-1 1.1-1 1.2s-.2.4-.5.5c-1.1.5.5.8 1.8.3.3-.1.3-.1-.1.2-1.6 1.2-3.2 1-4.6-.9-.8-1-1.2-1.7-2.9-4.8-.6-1.1-2.3-5.4-2.2-5.6 0-.1.6 1 1.3 2.5 1.9 4.1 2.7 5.1 4 5.4.3.1.8.2 1.1.3.4.1.7.1 1 0 .3-.2.5-.2.6 0 .3.7 3.2-1.6 5.6-4.6 1.7-2 4.5-6.3 4.2-6.6-.1-.1-2.5 3.2-2.9 3.8-.3.5-2.7 3.7-3.4 4.5-.3.3-.5.7-.5.7 0 .2-2 1.4-2.1 1.4 0 0-.2.1-.3.3-.1.2-.3.3-.4.2-.1-.1.3-.5.9-.9.9-.7 2.3-2.2 2-2.2-.1 0-.4.2-.7.4-1.1.7-1 .4.6-1.1 1.5-1.5 2.2-2.3 3-3.4l.4-.6-.8.4c-1 .5-1 .2 0-.5.8-.6 3.4-3.4 3.2-3.5 0 0-.4.1-.8.3-.6.4-.5.2.7-.9.8-.7 1.4-1.5 1.4-1.7 0-.8-.8-1.7-1.3-1.4-.1 0-.2-.1-.3-.4-.1-.3-.6-.6-1.4-.9-1.9-.7-9.1-4.2-9.5-4.7-.1-.1-.5-.3-1-.6s-.9-.6-1-.7c-.1-.1-.2-.1-.3.1-.1.2-.2.1-.4-.2-.3-.5-.3-.5-.3.2s.4 1.6.4 1c0-.2.1.2.3.8.2.6.6 1.7 1 2.5.9 1.9.9 2 .5 1.4-.2-.3-.9-1.5-1.6-2.8l-1.2-2.3-.3.6c-.2.3-.5.8-.8 1-.3.3-.5.7-.5.9s-.1.5-.2.5c-.3 0-.2.5.3 1.5.7 1.3 1.7 3.7 1.7 3.9 0 .2-.9-1.3-1.9-3.2l-.8-1.7-.2.6c-.7 1.8-.2 4.5 1.6 8.3.5 1 .4 1.3-.1.5-.2-.3-.3-.5-.2-.5.2 0-1.6-3.4-1.9-3.6-.1-.1-.5-1.3-.9-2.7-.9-3.6-.9-3.6-.6-3.4.2.1.2-.1.1-.7-.1-.5-.1-1.8-.1-3 0-1.9 0-2.1-.3-1.8-.1.2-.3.8-.3 1.3 0 .6-.1.3-.4-1.4-.4-2.4-.8-4.4-.9-4.9-.1-.3-.2-.3-.7-.3l-.6.1-.1 1.9c-.1 1.8-.1 1.7-.1-1v-2.8l-.5.5c-.3.3-.6.5-.8.5-.8 0-3.8 1.8-4.9 3-.6.7-2 2.1-3 3.2a27 27 0 0 0-2.6 3c-1 1.5-2.2 3.9-2.4 4.5-.1.3-.2.5-.3.5-.1 0-.1.1-.1.2.1.1 0 .2-.1.2s-.3.2-.4.4c-.2.4-.2.4-.2-.2 0-1.4.6-4.1 1.1-4.8 3.3-4.4 10-10.5 12.5-11.5l.8-.3-.9-.6c-.5-.3-1.4-1.1-2-1.6-1.2-1.1-1.3-1.2-1.3-.6 0 .2-.3.5-.8.8-2.8 1.4-7.3 6.8-8 9.5-.4 1.7-.6.3-.2-1.6.4-2.1.9-3.3 1.4-3.7.2-.2.7-.7 1-1.2.3-.5.9-1.1 1.4-1.5.4-.3 1.1-.8 1.4-1.2.4-.3.9-.7 1.2-.9.3-.1.9-.5 1.3-.8l.8-.6-.6-.9c-.3-.5-.6-1-.6-1.1s-.2-.5-.5-.8l-.5-.5-.5.5c-.9.8-2.5 1.7-2.6 1.5 0-.1-.3.2-.5.7-.6 1.3-.7 1.2-.2-.4.2-.7.5-1.9.6-2.6.1-.7.3-1.5.5-1.8.1-.3.1-.5 0-.6-.1 0-.2-.4-.2-.8 0-.9-1-1.5-1.6-.9m65.8 2.1c-.1.8-.1 1.5 0 1.6.1.1.2-.6.2-1.4.1-.8.1-1.5 0-1.6 0 0-.1.6-.2 1.4m68.8.6c.4 1.2.8 1.7 2.5 2.8 1.6 1 1.6 1.2-.1.8-2.5-.6-3.8-2.8-3-4.9.1-.3.1-.3.2 0 0 .1.2.7.4 1.3m-9.3-1.2c0 .1-.2.3-.4.6-.9 1.3-.8 1.8.9 3 1.4.9 1.4 1.1.3.8-2.4-.7-3-2.1-1.8-3.8.5-.6 1-.9 1-.6m-114.7 1.5c.3.4.5.7.4.7-.2-.1-1.2-1.5-1.1-1.5 0 0 .3.3.7.8m-7.7 1.5c-.2.4-.2.5.2.3.2-.1.3-.2.3-.4 0-.4-.3-.3-.5.1m-69.5.9c1.3.5 1.3.6.2 1-2 .7-3.5.6-4.9-.3-.2-.1-.6-.3-.9-.5-1.3-.6-1-.7 1.9-.7 2.2 0 2.7.1 3.7.5m156.8-.1c-.1.1 0 .5.2.8l.3.6v-.8c0-.7-.2-1-.5-.6m42 .6c-.2 1.3.4 2.2 2.2 3.1l1 .5-1.2-.1c-2.5-.2-3.6-1.8-2.4-3.6.5-.8.5-.8.4.1m-30.7.1c-.4.4-1 .9-1.3 1.2-.5.4-.5.6-.4 1.2.1.8.5 1.3.7.8.1-.2.7-1 1.5-1.8 1.9-2 1.6-3.2-.5-1.4m-173.9 1.7l1.4.5-1.2.3c-2.1.4-4.2.2-5-.6l-.7-.7.7-.1c1.3-.3 3.3 0 4.8.6m218.2-.6c0 .1-.2.2-.4.2s-.6.1-.8.2-.4.2-.5.1c-.1-.1.9-.7 1.4-.7.1 0 .3.1.3.2m-133.4 1c.6.5 1.9 1.7 2.9 2.5s2.3 1.9 2.9 2.5c.6.5 2.1 1.6 3.4 2.4 1.3.8 2.4 1.5 2.4 1.6.1.1.7.4 1.4.7.7.3 1.7.8 2.1 1.1.5.3 1 .7 1.3.8l.8.4c2.6 1.4 7.9 1.8 12.2.7l.5-.1-.5.3c-.3.2-1 .4-1.6.5-1.8.3-1.6.4 1.7.4s3.4.3.3.5c-7.3.5-13.1-1-19.1-4.9-.5-.4-1.6-1-2.5-1.5-1.6-1-1.6-1-4.5-3.6-2.2-2-3.6-3.4-4.2-4.1-.2-.3-.5-.6-.7-.8-.6-.8.1-.4 1.2.6m76.4.5c-.4.4-.4.4 0 .4.5 0 .9-.3.8-.6-.2-.2-.3-.2-.8.2m-167.6 1.2l1.2.6-.8.2c-1 .3-2.8.3-3.4-.1-.3-.1-.7-.3-1-.4-1.3-.3-1.3-.8.1-.9 1.7-.2 2.5-.1 3.9.6m177.1-.1c-.2.4-.5 1-.6 1.3-.1.4-.4 1.4-.7 2.4-.5 1.7-.9 3.7-.6 3.7.1 0 .7-.3 1.4-.7.7-.4 1.7-.8 2.2-1 1.4-.5 1-.9-1.2-1.5-1.5-.4-.3-1 1.9-1 1.5 0 1.5-.1 0-1.5-.6-.6-1.3-1.4-1.5-1.8-.3-.7-.4-.7-.9.1m-25.1 2.6c-.1.2.2 1 .4 1 0 0 .1-.3.1-.6 0-.5-.3-.7-.5-.4m-213.6.6c6.4 2.1 9.2 13.9 4 16.8-.8.4-1-.1-.4-.8 1.6-1.7 2.5-5.7 1.7-8.2-.5-1.5-1.4-2.3-1.1-.9.4 1.8.1 4.1-.8 5.5-.3.4-2.3 1.8-2.6 1.8-.1 0-2.2-2-4.7-4.5l-4.5-4.5.6-1.5c.7-1.6.9-2 2.2-2.9 2.1-1.2 3.5-1.4 5.6-.8m118.4 2.4c.3.6.1.7-.4.3-.4-.4-.5-.8-.3-1.9l.1-.7.1.9c.2.5.4 1.1.5 1.4m149.8 3a30 30 0 0 1-3.6 4.9c-1.6 1.9-5.8 5.1-6.7 5.1-.2 0-2.6 1.7-2.6 1.8 0 .2.2.1 1.6-.2 1.2-.3 4.4-1.9 7.9-4.1 3.1-1.9 6.7-5.1 7.2-6.4.4-1 .8-.4.6.8-.2.8-.1.8 2.3 0 2-.7 2.3-.8 1.3-1.1-.8-.2-2.6-1.2-3.4-1.9-.4-.3-.7-.6-.8-.6-.2 0-.2.9 0 1.1.1.1.2.2.2.3 0 .1-.1.1-.3-.1-.3-.2-.4-.2-.6.2-.4.6-1.8 2.2-1.9 2.1 0 0 .3-.8.7-1.6.9-1.7.9-2.1.5-2.3-1-.2-1.2 0-2.4 2m-31.2-.4c-.2.4-.1.7.1.7.1 0 .2-.3.2-.6.1-.7-.1-.8-.3-.1m-84.2 1.1c0 .3-.1.5-.2.5-.2-.1-4 1.8-5.1 2.7L252 193c-1.8 1.3-1.9 1.5-2.4 2.2-.2.3-.7 1-1.2 1.5-.4.5-1.1 1.3-1.4 1.7-.3.4-.7.9-.8 1-.1.1-.2.4-.2.5 0 .2 0 .2-.2 0-.2-.3-.7.3-.9 1-.1.3-.2.8-.3 1-.1.2-.1.3.1.2.1-.1.2 0 .1.3-.1.2-.2.3-.2.3-.1-.1-.2.5-.4 1.3-.1.8-.4 1.8-.5 2.3-.5 1.4-.2-3.3.3-5.4.1-.3 4.2-5.1 5.4-6.2.6-.5 1.7-1.5 2.4-2.1.8-.6 1.5-1.3 1.6-1.4 1.2-1.1 5.7-3.8 6-3.7.1 0 .2.3.2.6m79.2 1.2c.2.7.3 1.1.2 1.1-.2-.1-.5-.9-.6-1.9-.1-.8-.1-.7.4.8m-14-.9c0 .1.1.3.3.4.3.2.3.2.2-.1 0-.3-.5-.6-.5-.3m-109.9 2c-.2.5-.7 1.7-1 2.6s-.7 1.8-.8 2c-.1.1-.3.6-.4 1.2-.2.8-.6 1.7-1.7 3.5l-.4.8c-.1.2-.7.8-1.3 1.2-.6.5-1 .7-1 .6.1-.1.6-.9 1.2-1.7 1.1-1.6 2.9-4.9 3.1-5.8.3-1.3-.7-.5-2.3 1.8-2.3 3.4-6.4 7.3-11.1 10.5-.4.3-1.4 1.1-2.4 1.9-1.8 1.5-3 2.4-4.5 3.3-2.2 1.4.3 1 3.5-.4 2.6-1.2 3.1-1.4 3.1-1.3.1.1-.9.7-1.5 1-.2.1-.3.2-.3.3 0 .1-.6.4-1.3.7-.7.3-1.5.7-1.8.9l-.5.4.7-.1c.4-.1.9-.2 1.1-.4s.9-.3 1.5-.4c3.3-.4 6.8-2.1 9.2-4.5 1.6-1.6 2.3-2.1 1.7-1.2-.6.8-1.3 2.2-1.2 2.2.3.3 1.8-.5 2.5-1.3.9-1.1 1.2-.9.6.3-.6 1-.2 1.6.8 1.3 1.3-.3 3.5-4.1 3.5-6 0-.3.2-1.9.5-3.4.4-2.6.5-3.4.2-2.5-.1.2-.3.9-.6 1.5-.9 2-.8 1.2.1-1.4 1-3.6 1.9-9.9.8-7.6m45.3 2.6c.3 1.8 1.3 6.1 2 9.2.5 2.3 1.1 4.4 1.6 5.4.1.3.4 1 .6 1.6.7 1.7 2.9 5.9 3.6 6.9.4.5.7 1.1.7 1.2 0 .3 1.9 2.4 2 2.2 0-.1.6-.1 1.1-.1.6 0 1.4 0 1.8-.1.6-.2.7-.2.6.1-.2.6-.9 4.9-1 6.3 0 .5-.1 1.1-.2 1.4-.1.3-.2.8-.2 1.2-.1.4-.2.8-.3.8-.1.1-.1-.2-.1-.5s.1-1.5.2-2.6.2-2.6.3-3.5c.2-1.7.2-1.8-.4-1.5-.8.4-2.5-.5-3.5-1.8-.5-.6-.9-1.1-1-1.1-.2 0-1.9 2.4-3.3 4.5-1.6 2.5-2.8 4.1-3 4.1-.2 0 .2-.7 1.3-2.5.4-.7 1-1.7 1.3-2.2.3-.5.6-1 .6-1.1.3-.2 2.4-3.5 2.4-3.7 0-.1-.3-.7-.7-1.2-.8-1.1-2.1-3.3-2-3.3.1 0 0-.1-.1-.2s-.5-1-.8-2c-.8-2.2-.5-2.4-3.6 2.2-2.5 3.6-3.2 4.5-5.3 7-.2.3-.4.4-.4.4 0-.1 1.1-1.7 1.6-2.2.3-.4.8-1 3.7-5.4 1.4-2.1 2.7-4 2.9-4.3.3-.4.3-.5-.2-1.9-.3-.8-.5-1.6-.6-1.9 0-.3-.2-.9-.4-1.4l-.3-.9-2.1 1.9c-1.1 1-2.6 2.5-3.3 3.2-1.9 2.1-4.7 4.9-4.4 4.4 2.2-2.9 4.9-5.9 7.8-8.5l1.8-1.7-.4-2.4c-.2-1.3-.5-2.7-.5-3-.1-.8-.3-.8-1.2-.2-.4.3-1.5 1-2.5 1.6-1.9 1.2-2.2 1.5-4.9 3.9-2.1 1.9-2.5 2.1-1.2.6 1.6-1.8 3.9-3.9 6-5.3 1.1-.7 2.3-1.6 2.7-1.9.7-.5.7-.6.6-1.2-.2-1.5-.3-3.9-.1-2.9.5.5.7 1.6.8 2.4m6.1-2c-.2.6-.3 1.1-.3 1.1.2.2.7-1.1.7-1.6 0-.4-.1-.3-.4.5m-42.1 1.7c-.3.7-.2 1.3.4 2 .5.5.5.6.2.6-1.5 0-2-1.4-1-2.9.3-.6.7-.3.4.3m11.6.6c.1 1.1.9 4.7 1 4.5.1-.1-.8-4.9-1-5.3v.8m9.8.1c-.2.3-.4.8-.4 1.1l-.1.7.3-.7.5-1c.3-.6.1-.6-.3-.1m59.2 2.2c-.4.4-.7.9-.7 1 0 .1.4-.3.9-.8 1.1-1.3.9-1.4-.2-.2m-96.3.7c-1.1 1.4-2.3 2.6-2.4 2.5 0 0 .3-.5.7-1 .4-.5 1.1-1.2 1.4-1.6.3-.4.7-.7.8-.7s-.1.4-.5.8m133.9-.4c.1.2.3.4.4.4s.1-.2.1-.4c-.1-.2-.2-.4-.4-.4-.3 0-.3.1-.1.4m-106.8 2.6c.1.3.2.8.2 1 .2 1.1.5 1.1.4.1-.1-.6-.3-1.2-.4-1.4-.3-.2-.3-.2-.2.3m-52 2.7c-1.3 1.2-1.7 1.8-.5.8.6-.6 1.2-1 1.3-1s.2-.1.2-.2c0-.4-.3-.2-1 .4m53.7-.3c0 .2.1.3.2.3s.2-.1.2-.3-.1-.3-.2-.3-.2.1-.2.3m63.1.1c-.7.2-.8.4-1.1 2.6-.5 3.3-1.3 5.2-3 7.8-1.3 2-4.1 7.5-3.8 7.5.1 0 .6-.5 1-1.2.5-.7 1.3-1.8 1.8-2.6s1.1-1.7 1.4-2c.2-.4.4-.6.5-.6.2.2-3.9 7.5-4.3 7.5-.1 0-.2.1-.2.2s-.3.6-.6 1c-.8 1-.7 1.6.3 1.5l.6-.1-.3.5c-.2.3-.8 1.1-1.3 1.7-.5.6-1.4 1.9-2 2.7s-1.7 2.2-2.5 3.1c-1.7 1.8-1.7 1.9-1.3 2 .7.3 5.3-2.5 7.4-4.6l1.3-1.3-1.1 1.3c-3.3 4.2-3.3 4.9.2 5.4l2.1.3-1 .3c-.5.2-1.7.4-2.5.4-.9.1-2 .2-2.5.3-.5.1-1.8.1-2.9.1-1 0-1.9.1-1.9.1 0 .5 2.9 1.1 5.7 1.2 1.2 0 1.3.1.8.2-.4.1-1.8.1-3.1.1-2.5-.1-2.8 0-1.8.6 1.1.6 4.8.8 11.4.4 3.7-.2 10.7-1.8 12-2.7.8-.6 0-3.3-1-3.6-.3-.1-.7 0-.8.1-1.1 1.1-3.3-1.9-4-5.5-.4-1.6-.1-1.6.6.2.7 1.6 1.8 3.6 2.1 3.6 1.2 0 .8-14.8-.5-16-.2-.2-1.3 1-1.4 1.5-.1.2-.2.4-.4.3-.1-.1-1 .7-2 1.7-1.6 1.7-5.3 5.2-6.2 5.8-.5.4.1-.3 2.5-2.9 1-1.1 2.2-2.4 2.5-2.9.3-.5 1.1-1.5 1.7-2.3 1.3-1.6 2.2-2.9 2.2-3.3 0-.1.2-.6.5-1 .6-.9.6-1.3.1-2.1l-.4-.6-.9 1.5c-.5.8-1.1 1.7-1.2 1.8-.3.3-.3.4.7-1.7 1-1.9 1-2.2.3-2.1-.6.1-.8.4-1.8 2.3-.7 1.3-1.8 3.2-2.7 4.2-.2.2-.6.7-.9 1.2-.3.4-.6.7-.6.6 0-.1.3-.5.6-.9s.6-.7.6-.8c0-.1.7-1.3 1-1.5.1-.1.3-.4.5-.9.2-.4.5-1 .7-1.3.2-.3.3-.5.3-.6 0-.1.2-.5.5-1.1.6-1.2 1-2.4 1.1-3 .1-.3.2-.8.4-1.2.4-1 .6-3.3.3-3.4-1.2-.4-1.3-.4-1.4.7-.2 1.3-1.2 4.5-1.3 3.9 0-.2 0-.6.1-.8.1-.2.2-1.2.2-2.2 0-1.7-.1-1.8-1.3-1.4m-74.4.9c0 .1-.2.3-.3.5-.5.5-.4 2.5.1 3.1.3.4.3.4-.1.4-.9 0-1.6-1.8-1.1-2.7.4-.9 1.4-1.8 1.4-1.3m10.2.2c0 .5.3 1.3.3.9 0-.2-.1-.6-.2-.8-.1-.2-.1-.2-.1-.1m51.8.3c-.1.2-.1.3 0 .3s.2-.1.4-.3c.3-.3.3-.3 0-.3-.1 0-.3.2-.4.3m-42.5 6.6c-1 2.7-1.3 4.3-1.4 7 0 1.3-.1 1.6-.2 1.2-.2-.6-.3-2.3-.2-5.2v-2l1-1.1c1.2-1.3 1.3-1.3.8.1m-102.7 2.1c.5.4.7.4.5-.1-.1-.2-.3-.3-.6-.3h-.4l.5.4m1.3.3c0 .3.4.3.5-.1 0-.1-.1-.2-.2-.2s-.3.2-.3.3m87.5.3c0 .1-.1.3-.3.3-.3.2-.7.8-.6 1.2 0 .1 0 .5.1.9 0 .5.1.7.3.6.2-.1.3 0 .3.1 0 .3-.4.4-.9.2-.9-.3-1-2.2-.1-3.1.4-.4 1.2-.5 1.2-.2m-16.3 2.5c.1.5.6.6.6.1 0-.2-.1-.4-.3-.4-.3 0-.4.1-.3.3m-69.6.1c-.2.2-.2.3.2.6.5.4.9.4 1.1-.1.2-.7-.6-1-1.3-.5m9 2.5c0 .5.5 1 .9.9.3-.1.2-.2-.3-.6-.4-.4-.6-.5-.6-.3m45.2-.1c-1 .1-1.1.2-1.1 2.4 0 2.1.1 2.1 1.1.3.4-.7 1-1.6 1.2-2l.4-.7h-1.6m47.5.3l-.4.8c-1.4 2.6-1.6 3.5-1.4 6.2.1 2.2.1 2.4-.3 1.6-1-2.5-.8-5.8.4-6.7.1-.1.5-.6 1-1.2.9-1.2 1.1-1.4.7-.7m-52.3 0c-.5.4-1.5 1.8-2.2 3l-.7 1.2v3.5c0 1.9.1 3.6.1 3.6.3.3.9-.6.8-1.2-.1-.5.1-1.4.8-3.5.5-1.6.9-2.9.9-3 .1-.4 1-2.7 1.3-3.2l.4-.6c.2-.1-1.1 0-1.4.2m-48.8.2c0 .2 1 1.1 1.1 1 .1-.1-.7-1.1-.9-1.1-.1-.1-.2 0-.2.1m44.4-.1c-.1.1-.4.1-.8.1-1.1-.1-1.4.5-1.8 3.1-.1.6-.1 1.2 0 1.2.1.1.2 0 .2-.1s.6-1 1.4-2.1 1.4-2 1.5-2.2c.1-.1-.2-.2-.5 0m.1 2.2c-.7.8-1.4 1.7-1.5 1.9-.1.2-.3.5-.4.5-.1.1-.2.2-.1.2 0 .1-.3.8-.6 1.5-2 4.2-2.3 5.1-2.3 8.2 0 1.4 0 1.5-.2.9-.5-1.3-.5-1.2-.6 1.7 0 .6-.1 1.2-.2 1.4-.2.3-.3.6-.4 1.7-.1.6 0 1 .3 1.5.2.4.5 1 .5 1.3.5 2.4 1.1 1.9 1.5-1.3l.2-2.1.2 1c.2.9.2 1 .4.4.1-.3.3-1.3.5-2.1.2-1 .3-1.6.2-1.6-.1 0-.1-.2-.1-.4.1-.2 0-.4-.2-.5-.9-.6.8-9 2.4-12 .2-.3.6-1.1.9-1.8.3-.7.7-1.4.8-1.6.5-.7-.1-.2-1.3 1.2m12.3.7c-2 1.1-5.3 8-5.4 11.5-.1 2.1-.1 2.1.8-.7.9-3 3.2-7.6 4.7-9.7 1.3-1.7 1.3-1.8-.1-1.1m-63.9.9c-.3.8-.3 3 .1 3.9.2.5.9 1.1 3.2 2.6 1.6 1.1 3.4 2.3 4 2.7.6.4 1.7 1.1 2.4 1.4.7.4 1.7 1 2.3 1.4.6.4 1.1.7 1.1.6.1-.1-1-3.1-1.7-4.7-.4-.8-.7-1.6-.7-1.8 0-.3-.4-.5-1.2-.5-1.5 0-8.6-4.9-8.6-6-.1-.4-.6-.2-.9.4m76.3 3.3c-.3.3-.5.7-.5.9 0 .5-.6 1.2-1.1 1.2-.7.1-5.5 7.3-7 10.5-.6 1.3-.7 2.2-.2 2.2.3 0 1.6-.8 2.3-1.4.4-.3 1.1-.8 1.5-1 1.1-.5 2-1.6 2.7-3 1-2.1.9-2.3-.3-1-1.2 1.3-1.4 1.2-.5-.2.7-1.1 2.8-5 2.6-5.1 0 0 0-.5.2-1 .4-1.3.8-2.8.7-2.8.2.1-.1.4-.4.7m-19.8 1.4c-.7.9-1.4 1.7-1.6 1.9-2.6 2.7-3.3 5.4-2.6 9.4.2 1.1.5 2.5.5 3.1.2 1.2.6 1.9.8 1.4.1-.2.1-.5.1-.7-.8-4.5.7-10.9 3.6-15.4.3-.5.6-1 .6-1.1.2-.4-.3 0-1.4 1.4m24.9-.3c-.4.5-.8 1-1 1.1-.6.6-1.7 2.2-2.8 3.8-.8 1.1-1.3 1.7-1.4 1.6-.2-.2-.6.4-.6.8 0 .1-.2.7-.5 1.3-.3.6-.4 1.1-.4 1.1.2.2 3.8-1.2 4.4-1.7.3-.2.8-.6 1.2-.8.4-.2 1-.5 1.4-.6.4-.2.8-.4.9-.5.9-.7 3.1-2.3 3.3-2.3.1 0 .2-.1.2-.3 0-.5-.5-.3-3.6 1.5-2 1.1-2.4 1.1-.9 0 .6-.4 1.2-.9 1.3-1 .2-.1.7-.5 1.2-.9.8-.6 1.2-1.2.8-1.2-.2 0-1.1-1.3-1.9-2.4-.5-.6-.7-.5-1.6.5m40.9 2c-.1.2-.3.4-.4.4-.1 0 0-.2.2-.5.3-.5.6-.5.2.1m17.3-.2c0 .2-.1.8-.1 1.3s-.1.9-.2.9c-.2 0-.1-1.7.1-2.3.1-.4.3-.3.2.1m-61.8.7l-.2.6c.1.1.6-.7.5-.9 0-.1-.1 0-.3.3m30.9 3.2c-.1.5-.2 1.4-.1 2 .1 1.3-.3 1.1-.4-.2 0-.4-.1-1-.2-1.2-.1-.3 0-.6.1-.7.1-.1.3-.4.4-.7.3-.6.4-.1.2.8m-93.6 2.4c.1.2.1.2 0 .2-.3 0-.4-.5-.4-1.1 0-.5 0-.5.1.1.1.2.2.6.3.8m1.8-.5c-.1.1 0 .5.1.8.2.6.1.9-.2.5-.2-.3-.2-1.2-.1-1.4.3-.3.3-.2.2.1m72.7.5c-.2.3-.4.7-.4.7-.1.1-.2.3-.4.6-1.3 2.6-5.7 7.4-6.6 7.3l-.6-.1.1-1.7c.1-1.9.7-4 1.4-5.6.4-.9.4-1.1.2-1.1-.7 0-5.4 5.1-6.6 7.1-.9 1.5-2.1 5.4-1.8 5.7.2.2 4.7-1.9 6.2-2.9.2-.2.5-.2.9 0 1.4.5 7-1.9 9.9-4.2 1.5-1.2 2.1-1.2 1.1.1-.3.3-.4.7-.3.9.1.4 0 .7-.9 3.2-.2.6-.4 1.4-.5 1.8-.1.4-.1.9-.2 1-.1.2-.3 1.3-.5 2.6-.2 1.2-.5 2.6-.7 3-.8 1.9 1.4 1.8 5.4-.2 1.2-.6 2.4-1.4 3-2 .5-.5 1.4-1.3 2-1.8s1.2-1.1 1.4-1.4l.4-.5-.3-2c-.4-2.8-.7-3.3-1.3-2.1-.2.5-1.8 2.8-2.4 3.4v-.4c.1-.3.2-.6.4-.7.1-.1.3-.3.3-.5 0-.1.1-.5.3-.8.4-.8.8-1.7 1-2.6.2-.8-4.5-5-5.2-4.6-.3.2-.9.7-1.4 1.2-.2.2-1.1 1-2 1.7-3.1 2.5-3.2 2.2-.1-.9 2.9-3 2.9-2.6.1-4.1-1.5-.8-1.5-.8-1.9-.1m-70.4 3.8c0 .2.1.6.3.8.4.4.3.6-.2.4-.4-.1-.8-1.1-.6-1.6.2-.4.5-.2.5.4m52.7 1.9c-.1.2-.4.7-.7 1-.3.3-.7 1-1 1.5-.3.5-.8 1.4-1.2 2-.9 1.4-.8 1.5.6.7.6-.3 1.2-.6 1.4-.6 1 0 2-1.9 2-3.8.1-1.4-.5-1.8-1.1-.8m41.5.6c-.3.9.1 2.4 1.2 4.6.4.9.7 1.7.7 1.7-.2.2-2.5-3.6-2.7-4.5-.1-.3-.3-.7-.4-.8-.4-.4-.1-.9.7-1.6.5-.5.7-.3.5.6m-79.7.9c-.1.1-.2.2-.4.2s-.3-.1-.3-.2.2-.2.4-.2c.3 0 .4.1.3.2m118.3.5c-.2.1-.5.3-.6.5-.9 2.5-1.5 2.9-1.3 1l.1-1.3-.6.1c-1.5.2-1.4.2-1.7 1.5-.1.7-.4 1.5-.5 1.8-.8 1.9-1.1 2.6-1.3 3.4-.1.5-.3.8-.4.8-.1 0-.2.4-.2 1 0 .7 0 1 .2.9.1-.1.2-.2.2-.4 0-.3 1.3-1.6 1.5-1.4.1.1 0 .4-.2.8s-.5 1.1-.7 1.6c-.2.5-.5.9-.6.9s-.2-.1-.1-.2c.2-.4-.2-.6-.5-.3-.4.5-1.9 5-1.9 5.8 0 .5-.1.7-.3.7-.9 0-1.4 2.7-.8 3.9.7 1.3.9 2.1 1.1 3.9.2 2.4 0 2.4-.8.2-.6-1.9-1.5-3.1-1.1-1.6l.1.6-.5-.5c-.7-.7-.8-.7-.3.2.7 1.4 2 5.9 1.7 5.9-.1 0-.2-.3-.3-.7-.3-.8-.4-1.1-1.5-3.6-1-2.1-1.5-2.8-2.9-3.4-1.5-.7-1.7-.5-.7.6 1.8 1.9 3.5 5.2 3.6 6.9 0 .6.3 1.9.6 2.9 1 4 .5 9.4-1.1 12-.1.2-.4.8-.5 1.2-.8 2.4-3 5.6-4.5 6.6-1 .6-1.3 1.1-.6.9.2-.1.9-.1 1.6-.2.7 0 1.6-.2 2-.4l.8-.3-.7.7c-.4.4-.9.7-1.1.7-.2 0-.5.2-.5.3-.1.2-.2.5-.2.7-.2.5 1.6.3 3-.3.6-.3 1-.4.8-.3-.5.5-.3.8.8.7.6-.1 1.1-.1 1.2-.1.1 0 .4-.2.6-.5.4-.5.5-.5.4-.1-.2.8.5.5 1.8-.8l1.3-1.2.4-3.5c.2-1.9.4-4 .4-4.6 0-.7.1-1.2.3-1.3.5-.3 1.9-3.8 1.9-4.7 0-.7.1-1 .7-1.6.8-.8 1.9-2.8 1.9-3.4 0-.2.4-.9.9-1.5.7-.9 1.5-2.2 2.4-4 0-.1-.3-.1-.7 0-.8.1-1.2-.3-1.2-1.1 0-.6.3-.6.5 0 .4 1.7 4.1-1.3 4.9-4.1.4-1.4.3-1.5-.5-.9-.7.4-.9.4-1.2-.5-.2-.5 0-.6.4-.1.3.5.7.2 2.6-1.7 1.6-1.7 2.6-3.9 2-4.5-.1-.1-.2-.1-.2 0s-.1.2-.2.2c-.4 0-.2-.3 1.1-2s2-3.2 2.2-4.9c.1-1 .1-1-.8-.5-.8.5-.9.3-.1-.3.9-.8 2.3-3.8 2.3-4.9 0-1.5.1-1.4-4.2-1.5-2.1 0-5.2-.1-6.7-.2-1.7-.5-3.2-.5-3.5-.5m-130.5.5c0 .2.1.4.3.5.2.1.3.2.2.2-.2.2-.9-.5-.9-.8 0-.1.1-.3.2-.3.2 0 .2.2.2.4m-2.5.2c.2.4.8.9.8.7 0-.2-.7-1-.9-1-.1-.1 0 .1.1.3m127.8.7c-.5.7-.8 1.8-.8 2.6.1.9.5 1 .6.1.1-.4.3-1.2.5-1.7.6-1.6.5-2-.3-1m2.6.3c.1.1-.3 1-.8 2l-.9 1.8v-1c0-1.5.7-3 1.4-3 .1 0 .2.1.3.2m-62.5.5c-.8.4-2.4 1-2.9 1.3-1.2.5-2.9 5.8-2 6.3 2.1 1.1 7.2-3.2 7.9-6.9.1-.7-.5-.8-.7 0-.2.6-2.2 3.6-2.2 3.5-.1-.1.5-2.3 1-3.3l.5-1.1h-.4c-.4-.1-.9 0-1.2.2m-48.5.8c.3 0 .6.1.6.2.1.1-.1.2-.4.2-.6 0-1.4-.5-1.4-.8 0-.1.2-.1.4.1.1.2.5.3.8.3m-12.8.4c-.1.7 0 .8.5 1.1.5.3.5.3.1.3-.2 0-.6-.1-.7-.3-.3-.3-.3-1.5 0-1.5.1 0 .2.2.1.4m126 .1c0 .1-.9 2.5-1.1 2.8-.5.8-.3-.9.2-2 .3-.7.9-1.2.9-.8m-71.5 1c-.3.5-.9 1.2-1.1 1.5-1.7 2.1-1.6 2.5.5 1.8 1.1-.3 2.6-3.6 1.9-4.1-.6-.2-.7-.1-1.3.8m82.2.2c-.2.2-.9-.3-.9-.7 0-.4 0-.3.5.1.3.3.5.6.4.6m-139.2-.3c.2.2.5.4.6.3.1-.1 0-.3-.2-.4-.7-.4-.9-.3-.4.1m36.8.6c-.9.4-1.8 1.1-2.1 1.4-.6.7-2.7 1.6-6.6 2.8-2.2.7-4.6.9-6.2.6-2.7-.5-6.7.6-7.3 2.1-1.4 3.5-.1 7.8 2.2 7.8.2 0 .8.1 1.2.1 1 .2 2.2-.6 1.4-.9-.6-.2-.5-.5.2-.6l.6-.1-.2.8c-.4 1.8.2 1.9 1.1.1.4-.7 1.1-1.9 1.6-2.6.5-.7 1-1.6 1-2 .1-.4.2-.7.3-.7.1 0 .4-.2.6-.4.2-.2 1-.5 1.7-.8 2.2-.7 5.3-2.3 6.8-3.5.5-.4 1.4-1 2-1.3.6-.3 1.5-.9 2-1.3 1.5-1.1 2-1.2 3.1-.8 1.1.5 1.3.2.3-.7-1.4-1-1.7-1-3.7 0m89 2.1c-.4.8-.6 1-.5.6.1-.3.1-.8.2-1 0-.2.1-.4.1-.5 0-.1.2-.3.4-.5.5-.6.5.1-.2 1.4m-118.8-.3c.5.4.2.6-.3.2-.5-.3-.6-.8-.3-1.1.1-.1.2 0 .2.3s.2.5.4.6m71.3.4c-1.4 1-1.8 1.4-1.3 1.3a9 9 0 0 0 2.5-1.6c.3-.6-.2-.5-1.2.3m-38.4.3c-.3.1-.9.7-1.7 2-.7 1.1-1.5 2.1-1.8 2.4l-.5.5.1-.4c.2-.6.2-.6-1.3.4-.7.5-1.7 1.1-2.3 1.4-2.4 1.4-3.8 2.3-4.6 3.1l-.8.8.8-.1c1.5-.3.5.3-2.1 1.3-2.2.8-4 1.9-4.4 2.8-1 1.9 0 6.8 1.8 8.5.9.9 1 .8.5-.4-.3-.7-.3-1-.2-1.1.1 0 .2-.2.2-.3 0-.2.4-.3 1.5-.3l1.5-.1-.3.5c-.4.7-.3 1.5 0 2.7.5 1.4.7 1.3 1.2-.5l.9-2.7c.9-2.1 1.1-2.8 1.5-4.8.6-2.7 1.7-4.3 4.6-6.5.9-.7 1.6-1.3 1.6-1.3 0-.1.3-.3.7-.5.6-.3.3.1-2.6 3.1-.8.8-1.7 2-2.2 2.9-.1.2.2-.1.7-.5 1.3-1.2 7.5-5.4 9.1-6.2.5-.2.6-.2.9 0 .3.3.6.2 1.1-.4.4-.4 1.6-1.2 1.9-1.2.6 0 1.5-1.4 1.2-2-1-2.3-4.4-3.7-7-3.1m81.7.6c-.6.7-1 1.6-.9 2.5.1 1.1.4 1 .7-.2.1-.5.4-1.2.6-1.6.4-.8.2-1.3-.4-.7m5 .5c0 .2-1.2 2.6-1.3 2.6-.2 0 .1-1 .5-1.9.3-.7.8-1.1.8-.7m10.3 1.5c.4.3.2.6-.3.4-.2-.1-.3-.3-.3-.8s.1-.6.1-.3c.1.3.3.6.5.7m-34.1.2c-.3.2-.5.4-.4.4.2 0 1.3-.8 1.1-.8 0 0-.3.2-.7.4m-26.7 1.8c-3.5 1.8-6.9 4.2-6.5 4.5.1.1.4 0 .9-.1.4-.1 1.1-.2 1.5-.3 1.3-.2 2.4-.5 3-.8 2.6-1.3 5-3.7 4.2-4.2-.6-.3-1.2-.1-3.1.9m47.9 0c-.2.2-.4.8-.5 1.3-.3 1.1-.5 1.1-.4-.1.1-.6.3-1 .6-1.3.5-.5.6-.5.3.1m-76.9 1.6c-.4.5-1.3 1.6-1.9 2.4-2.8 3.8-3.9 5.1-5.4 6.7-1.5 1.6-1.9 2.1-1.5 2.1.5 0 3.2-2.3 4.1-3.5.4-.5.6-.8.6-.7 0 .1-.2.5-.4.9s-.4.7-.4.7-.2.1-.2.3c0 1-3.7 4-4.7 3.7-1.1-.2-4 1.5-5.1 3.1-.7 1-.8 3.7-.2 4.7.3.5.3.5.4-1 0-.9.1-1.7.2-1.8.2-.2.2-.1.2.4 0 2.3 1.6 2.6 4.2.8.9-.6 1.7-1 1.7-.9.2.3-1.1 2.4-1.7 3.1-1.1 1.1-1.7 6.5-.8 8 1.3 2.2 2.9 1.4 4.8-2.4l1.1-2.2v-1.9c0-1-.1-2.2-.1-2.7-.2-1.3.3-.7 1.1 1.5.2.6.3.6.1-.8-.2-2.3 1.4-4.6 4.4-6.7 1.3-.9 1.5-.8.8.3-.3.4-.8 1.4-1.2 2.2-.3.8-.8 1.6-.9 2-.8 1.5-.7 1.5.8.4.8-.6 1.7-1.2 2.1-1.3 2.6-.9 5.8-3.9 6.5-6.2.1-.5.3-.9.4-1 .1-.1.2-.6.2-1.2.2-2.3 1.7 0 2 2.9.2 2.5 2.8 5.5 4.8 5.5.9 0 .3-2.5-1.4-5.9-.4-.7-.8-1.9-1.1-2.6-.7-2.2-2-4-4.6-6.1-.4-.3-1.2-1.1-1.9-1.7-2-2-1.9-1.9-4.2-1.9h-2.1l-.7.8m72 1.1c-.4.7-.7 1.6-.6 2.3.1.7.5.7.6-.1.1-.4.3-1.1.5-1.6.7-1.3.3-1.8-.5-.6m14.9 1.4c.3.3.1.6-.3.4-.2-.1-.3-.4-.3-1 0-.8 0-.8.2-.3.1.4.3.8.4.9m-12.8 1.2c-.5 1-.7 1.2-.7.9 0-.8.4-2 .7-2.3.7-.5.7.1 0 1.4m-110.9 1.1c-.3.8-.4 2.3-.1 1.7.2-.3.3-.9.3-1.3 0-.5-.1-.6-.2-.4m77.6 2.8c-8.3 1-15.4 1.8-15.7 1.8-.9-.1-.9.5 0 1.2 3.5 3.1 4.1 3.8 4.6 6.3.2.8.4 1.9.5 2.4.1.5.2 1.5.3 2.2 0 .9.1 1.3.3 1.3.6.1 28.2 5.2 34.5 6.4 1.3.3 2.5.4 2.6.4.3-.2 1-2.3 1.1-3.5.1-.6.3-1.9.4-2.8 1.1-6.8-4.9-16-11.3-17.4-1.6-.2.1-.4-17.3 1.7m-51.7-1.4c-.8.5-2.8 2-2.8 2.1.1.1 3-1.8 3.1-2.1.3-.3.2-.3-.3 0m15.8 1.1c-.8.7-1.8.9-3.1.6-1.4-.3-1.4-.6-.1-.6.6 0 1.7-.1 2.3-.3 1.6-.3 1.6-.3.9.3m79.4.4c.1.5.1.6-.1.6s-.3-.2-.3-.7c.1-.8.2-.8.4.1m-94.6.1l-.6.5.6-.3c.3-.2.6-.4.6-.5.1-.3.1-.2-.6.3m28.1-.1c-.2.1-.4.3-.3.4.1.1.3.1.6-.1s.7-.2 1.2-.2c.5.1.7 0 .6-.1-.2-.2-1.5-.2-2.1 0m-.4 2.2c0 .6.4 2.1.7 2.6.1.2.4 1 .5 1.7.4 1.8.6 1.9.4.1l-.1-1.5.4.5c.8 1 1.3 5.1 1 7.5-.1.8-.1.8.6.8.7.1 1.1-.7 1.1-2.2 0-.3.1-.5.2-.6.3-.2.4.6.4 2v1.2h.7c1 0 1.3-.6 1.6-3.2.2-1.6.5-.8.6 1.3 0 1.7.2 1.8.9.5.6-1.1.6-2.5 0-4.4-1-3.5-2.2-4.5-7-6-.8-.2-1.6-.5-1.7-.6-.3.1-.3.1-.3.3m-19.3 2.3c-.1.1-.9 1-1.9 2-1.6 1.6-1.7 1.7-1.2.9.6-1 1.8-2.2 2.6-2.7.7-.5.6-.5.5-.2m-30.6 1.3c-.4 1.3.6 2.6 3.6 4.7 1.9 1.2 2.6 1.9 4.2 3.9 1.2 1.5 1.5 1.3 1.5-.9 0-3.1-2.6-6-6.9-7.4-2.4-.7-2.3-.7-2.4-.3m-32.9 5.1c-.4.2-1.3.6-1.9.8-1.3.5-2.4 1.1-3.5 2.2-.4.4-1.3 1-1.9 1.5-.7.5-1.1.8-.9.9.2.1 0 .2-.3.3-1.7.7-3.3 1.7-5 3.2-.9.8-1.5 1.2-3.2 1.8-3.7 1.4-6 2.8-8.7 5.6l-2.6 2.6.9-.1c1.3-.2 1.2-.1-.6.9-.9.4-1.9 1-2.2 1.4-.7.6-1 .6-.7 0 .3-.6.2-.6-1.1-.2-2.9 1-8.5 5.2-7.7 5.7.2.1.2.2-.1.3-1.9.7-5.4 2.6-5.8 3.2-.1.2-.8.8-1.4 1.3-.6.5-1.8 1.7-2.5 2.6-.8.9-1.5 1.6-1.7 1.6-1.1 0-7.3 5.1-6.6 5.3.3.1.3.2-1.4 1-3.9 1.9-8.8 8.7-6.6 9.3 2.5.7 5.1-.6 7.4-3.7 1.1-1.4 1.2-1.2.4.5-.7 1.5-1.7 2.7-3 3.5l-1 .6.7.1c1.2.2.2.4-2.2.4-3.2 0-6.6-1.1-6.6-2 0-2.1 1.9-4.4 4.9-6 1.4-.7 1.5-1 .2-1-1.3.1-3.2 1.1-5.2 2.9-2.9 2.5-3.5 3.3-4.4 5-1 1.8-1.3 1.7-.6-.2.3-.9.4-1.4.1-1.1-.3.3-5.8 8.7-6.9 10.5-4.4 7.2-4.7 8-3.6 9.7.3.5.6 1.1.8 1.3.3.5 3.2 1.1 9.6 2.1 8 1.2 18.9.8 24-.9 3.8-1.3 9.2-4.8 6.2-4-3.3.8-12.6 1.8-17 1.8-2.6 0-3.7-.1-6.8-.5-1.2-.1-4.2-.4-6-.6-1.2-.1-3.9-.8-4.5-1.1-.3-.2.6-.2 5.4.1 2.1.1 3.3.1 4.4-.1.9-.2 3.1-.2 5.9-.2 4.4 0 6.8-.2 9.4-.9.6-.2 2.4-.5 4-.7 1.6-.2 3.2-.4 3.6-.5 1.6-.3 5.5-1.5 7.7-2.5 1.3-.6 2.5-1.1 2.6-1.1.1 0 .6-.4 1.1-.9s2-1.5 3.2-2.3c1.2-.8 2.9-1.9 3.6-2.6 2.3-2 5.6-4.7 6.2-5.1.3-.2 2.4-1.8 4.7-3.5 2.3-1.7 4.6-3.5 5.3-4 .6-.5 1.6-1.2 2.1-1.6 3.1-2.6 3.9-3.2 5.2-3.9 1.3-.7 4.2-2.7 4.5-3.1.1-.1 1-.8 2-1.6 3.5-2.6 3.6-2.7 8-7 3.3-3.2 3.3-3.2 1.9-4.2l-1-.7-1.8 1c-2.8 1.6-7.1 3.6-9.8 4.7-1.4.6-4.3 1.9-6.4 2.9-2.2 1.1-4.3 2.1-4.8 2.3-.5.2-2 .9-3.3 1.6-1.4.7-2.9 1.3-3.4 1.3-1.1.2-5.2 2.2-9.6 4.8-6.4 3.8-12.2 7-12.8 7-.1 0-.1-.3.1-.7.2-.4.3-.9.3-1.2 0-.2.1-.5.2-.6.1-.1.5-.7 1-1.4.4-.7 1.2-1.8 1.8-2.5l1-1.2c0-.2-1.5.2-2.7.6-.7.3-1.7.6-2.1.8-.5.2-1.1.4-1.4.6-.8.5-.2 0 1.1-1 1.1-.8 1.7-1.1 3.9-2 .3-.1 1.2-.4 1.9-.5 1.5-.3 1.9-.5 2-1 .4-1.3 3.4-4.8 4.1-4.8.2 0 .2 0 0 .1-.3.2-1.3 1.7-2 3s-.6 1.4.9.6c.5-.3 1.6-.7 2.3-1 2.7-.9 5.1-2.7 6.5-4.7.8-1.2 2.3-2.7 2.7-2.7.1 0 .2-.1.2-.1 0-.1.5-.4 1-.7l1-.6-.9-.1c-1-.1-3 .2-4.1.7-.4.1-.7.2-.7.1-.2-.2.6-.7 2.4-1.5 1.4-.6 2.3-.8 4.8-1.4.3-.1 1-.9 1.9-2.3 1.5-2.3 2.9-4 3.2-3.8.1.1-.2.5-.5 1-.7 1-2.6 5-2.5 5.1.2.2 8.4-3.9 10.8-5.5 2-1.3 5.9-5.5 5.9-6.3 0-.4-1.4-.3-3.4 0-2 .4-2.1.4-1.3-.1.3-.2.6-.5.6-.5 0-.1.2-.4.5-.6 1-1.1 2.9-5.7 2.5-6.1-.1-.1-1.2.6-1.6 1.1-.2.2-.8.7-1.4 1.2-1.2 1-2.1 2.4-2.9 4.3-.3.7-.7 1.5-1 1.9l-.5.6h-2.2c-1.2 0-2.7.1-3.5.3-.7.2-1.5.3-1.7.4-.4.1-.4.1-.2-.2.3-.4 3.5-1.4 4.9-1.6.7-.1 1.2-.3 1.6-.6.3-.3.8-.7 1.2-1 .4-.3 1.2-1.3 1.9-2.3.7-1 1.8-2.4 2.4-3l1.1-1.2-1.8-.1-1.8-.1 1.5-.7c1.4-.7 1.6-.9 2.6-2.3 1.5-2.4 1.3-3-.5-2.1m71.2.6c-3.2 1.1-5 4.1-4.7 8 0 .7.4-.1.4-1.1.1-1.1.8-3.2 1.2-3.2.1 0 .2.8.2 1.9 0 1.7.3 3.5.6 3.7.1 0 .1-.7.2-1.7 0-1.8.4-2.9.4-1.3 0 1.9.1 2 .4.7.6-2.7 1.1-3.1 1.1-.8 0 1.9.2 3 .4 2.5.1-.3.2-.3.2.1 0 .7.6 2.3.9 2.5.2.1.2-.2.2-1.5 0-2.5.5-3.5.7-1.3.1 1.5.7 3.2 1.3 3.7.3.2.3.2.2-.3-.3-1.3-.5-2.3-.3-2.4.1-.1.2.1.3 1 0 .5.5.7.5.2 0-.1.1-.5.3-.8.2-.4.3-.5.2-.1 0 .2 0 .4.1.4s.3.6.4 1.3c.2.9.4 1.5.8 1.9l.6.6-.1-1.1-.1-1.1.5 1c.3.5.5.9.5.9 0-.1.1-.4.1-.8.2-1.4.4-1.7.6-.7.1.5.4 1.3.6 1.8l.5.9v-1.2c0-1.1.6-3 .9-3 .1 0 .1.1 0 .2-.3.5-.1 3.7.2 4.4.5 1 .8 1.1.8.1 0-.9.3-.9.5.1.2.8.5 1.1.5.4 0-.3.1-.8.3-1.2.3-.8 1.4-2.4 1.2-1.7-.3.8-.3 2.8-.1 3.5.3.9.8 1.1.8.4 0-.3.2-.8.4-1.2l.4-.7-.1.9c-.2 1.5.3 2.4.6 1 .1-.4.3-.9.5-1.2l.4-.5v1.2c0 .7.1 1.3.1 1.4.2.4.4.2.4-.5.1-1.2.4-1.5.4-.2 0 .8 0 1.2.3 1.6l.3.5.2-.5c.1-.3.2-.7.2-.9 0-.5.3.3.4 1 0 1 1.2 2 1.2 1.1 0-.2.1-.6.2-.7.1-.2.2-.1.2.4 0 .6.3 1.2.5 1 0 0 .3-.7.6-1.5s.9-1.8 1.3-2.3c.9-1.1.8-1.3-.5-1.3-.8 0-.8 0-.2-.2l.6-.2-.6-.7c-.4-.4-.8-.7-1.1-.7-.2 0-.8-.2-1.2-.5-.9-.6-1.7-.8-3.1-.6l-1 .1.8-.4c.4-.2 1.1-.4 1.6-.4 1.1 0 1-.1-.2-1.2-2.2-1.9-3.2-2.4-4.7-2.3h-.6l.7-.3.7-.3-.7-.6c-.7-.6-1.7-1-2.4-.9l-.4.1.5-.3.5-.3-1.1-.9a9.99 9.99 0 0 0-3.5-2c-.6-.1-.6-.1-.1-.3l.5-.1-.6-.4c-1.5-1.1-3.1-1.5-4-1.2-.3.1-.8.2-1.2.1l-.7-.1.8-.3c.4-.1.9-.3 1-.4-.4-.7-1.6-.6-2.6-.2m-32.2 4.6c-1.3.3-2 .7-1.1.7.5 0 1.5.4 1.7.6.3.3 2.9 1.8 3.9 2.3 1.1.4 1.5.5 3.9.5 3.9 0 4.1-.2.8-.9-2.9-.6-4.4-1.2-5.6-2.1-.6-.5-2.4-1.4-2.6-1.3.1 0-.4.1-1 .2m56.8.9c0 .5.1.6 1 .9.6.2 1.2.4 1.5.6.3.1 1.2.5 2.1.9.9.3 2.2.9 2.9 1.3 1 .6 26.1 6.1 27.6 6.1.2 0 1.9-3.2 1.8-3.4 0 0-3.6-.8-8-1.6s-12.5-2.4-18.1-3.4c-11.7-2.3-10.8-2.2-10.8-1.4m-52.5 4.6c.6.3 2 .6 2 .4 0-.2-1.6-.6-2.1-.6-.3-.1-.3 0 .1.2m66.9 3.6c2.6 2.8 1.6 2.4 10 4.6l6.9 1.8.8-.8.8-.8-8.3-2.4c-4.5-1.3-8.8-2.6-9.5-2.8l-1.3-.4.6.8m9.7.4c0 .1.3.2.7.2.4 0 .6 0 .5-.1-.2-.2-1.2-.3-1.2-.1m-22.1 1.4c-1.8.4-4.6 3.6-4.8 5.4-.1.9.5 3.4.9 3.5.2.1.2-.3.2-1.3 0-2 1-3.3 3-3.7 1.7-.4 1.9-.3 1.7.5-.7 2.5 2.9 5.1 4.9 3.6l.5-.4.1.6c.2.9-.1 2.7-.5 3.6-.7 1.6-2 2.4-4.1 2.7-1.9.3-.3.9 1.6.7 4.1-.6 6.4-3.4 6.4-7.8.1-4.2-5.6-8.5-9.9-7.4m-93.9 1.5c-1 .7-2.1 1.6-2.3 2-.3.4-.4.6-.2.4.2-.1 1-.4 1.7-.5.8-.2 1.5-.4 1.6-.5.1-.1.7-.3 1.3-.5.8-.2 1.1-.4 1-.6-1.2-2-.9-2-3.1-.3m-33.8.6c-.4.2-.6.5-.6.5.1.1 1.3-.5 1.3-.7 0-.2.1-.2-.7.2m56.4-.3c.2.2 3.9 1.1 4 1 .1-.1-2.9-1.1-3.5-1.1-.3 0-.5.1-.5.1m88.7 1.9c0 .3 2.5 2.2 3.8 2.8 1.6.8 2.5.9 4.1.1l1.1-.5-3.2-.9c-1.8-.5-3.8-1.1-4.5-1.3-.7-.2-1.3-.3-1.3-.2m-116.6.5c-.3.2-.4.4-.3.4.3 0 1-.5.8-.7 0 0-.3.1-.5.3m47.9 0c-.9.2-1 .3-.3.5.8.2 1 .1 1-.3s0-.4-.7-.2m-43.4.6c-1.3.2-4 1.4-5.5 2.5-1.2.8-3.3 3.2-3 3.5.1.1 3-1.6 3.9-2.2 1.5-1.2 4.3-2.5 5.2-2.5.4 0 2.8-1.1 2.8-1.3-.1-.2-2.4-.1-3.4 0m-26.2 1.2c-.1.2-.3.5-.5.6-.2.1-.6.9-.9 1.7-.8 1.8-.8 1.9-1.4 1.5-.6-.4-1.2-.4-2.3-.1-.5.1-1 .3-1.2.3-.2 0-.6.1-.9.2-.4.1-.2-.1.6-.4 1-.5 1.8-.7 3.7-1.1.2 0 .6-.4.9-.8.9-1.5 2.6-3.1 2-1.9m16.8 2c-.4.4-1 .7-1.3.8-5.9.9-7.9 1.9-11.9 5.7-2.1 2-5.5 7-3.8 5.5 2.7-2.3 8.2-6.4 8.6-6.4.1 0 .2-.1.2-.2s1.7-1 3.6-2c3.3-1.7 5.5-3.3 5.5-4 .1-.2-.3 0-.9.6m101.9 1c-.4.4-.4.7.1 1.2.6.5.9.5 1.4 0 .9-.8-.6-2-1.5-1.2m26.8 2.3c0 .1.4.3.9.5 1.3.6.9.7-.9.1-1.5-.5-3.9-.6-3.9-.1 0 .1 1 .6 5.6 2.7 3.2 1.5 4.1 1.9 4 1.9-.2 0-4.2-1.4-4.8-1.6a2 2 0 0 0-.8-.3c-.1 0-1.4-.5-2.9-1.2-4.4-1.9-4.2-1.5.8 1.5 1.4.9 2.8 1.8 3 2l.5.4-.6-.2c-.3-.1-1.2-.5-2-.9s-1.9-.9-2.5-1.2c-.6-.3-1.3-.7-1.5-.8-.2-.2-.4-.2-.4-.2-.1.1 3.8 2.8 4.8 3.3.5.2 1.3 1 1.2 1-.6 0-3.3-1.1-5.3-2.1-1-.5-.2.3 1 1 1.6.9 1.1.9-.7.1-6-3.1-6.7-3.4-6.7-3.3 0 .3 4.1 3.5 6 4.7 2.2 1.4 2.7 1.8 2.1 1.8-.2 0-.3-.1-.3-.2s-.1-.2-.1-.1c-.1 0-.4 0-.8-.2-.4-.1-.7-.3-.8-.3-.1 0-.2-.1-.3-.2-.1-.1-.4-.2-.6-.3-.4-.1.2.5 1.1 1.1.5.3.1.4-.3.1-.1-.1-.2-.1-.2-.1 0 .1-.9-.3-1.9-.9-1-.5-1.9-.9-2-.9-.1.1 3.3 3.4 3.5 3.4.1 0 .2.1.2.3.1.2 0 .2-.2.2-.2-.1-.3-.2-.3-.3s-.1-.2-.2-.2c-.3 0-1.4-.8-4-2.7-1.1-.8-2-1.4-2-1.4-.1 0 .9 1.3 3 4 .6.7 1.4 1.7 1.8 2 .4.4 1 1.1 1.3 1.6.6.9.5.9-.7-.2-.3-.3-.6-.5-.7-.5-.3 0-3.1-2.3-5.1-4-1.5-1.4-5.3-4.2-4.7-3.5l3 3c1.6 1.6 2.9 3 2.8 3-.1.1-2.5-1.7-5.4-4.1-2.3-1.9-2.3-1.3.1 1.4 1.5 1.7 3.4 4.1 3.2 4.1-.2 0-2.5-1.6-3.3-2.2-.9-.8-2.8-2.1-2.9-2 0 0 .9 1.9 2 4 3.5 6.7 4.5 8.9 5 10.7.2.8-.1.5-1.8-1.3-1.4-1.5-2.6-3-5.5-6.9l-.7-.9c-.1.1.8 2.9 1.6 5 .4 1.2.5 1.9.2 1.6-.4-.5-1.6-2.5-2.6-4.2-1.5-2.6-1.5-2.5-.3.6 1.8 4.6 4.7 13.4 4.4 13.3-.2 0-1.2-1.4-1.8-2.4-.2-.4-.8-1.2-1.2-1.8-.4-.5-.7-1.1-.7-1.1 0-.2-.8-1.5-.9-1.4-.1.1.9 3.9 1.7 6.7 1.2 4.3 3.8 11.1 4.3 11.2.1 0 .2-.7.3-1.7.2-3.7 3.1-9.6 6.3-12.9 2.2-2.3 7.6-6.5 7.9-6.2.1.1.1.1 0 .2 0 0-.3.3-.7.5-8.2 6.1-13.9 17.7-11.5 23.3.3.6.7 1.6.9 2.2.3.6 1 1.7 1.6 2.4.6.7 1.1 1.5 1.1 1.7 0 1.1 5.3 5.4 7.8 6.3 1.7.7 2.8 1.2 3 1.3.1.1.6.5 1.2.9 3.1 2.1 4.6 4.6 3.4 5.9-.3.3-.7.9-.9 1.2-.5.8-2 1.5-3.8 1.8-.8.1-2.2.3-3 .5-5.2.9-6.3.9-6.8-.1l-.3-.7.5-.1c.6-.1.7.1-.6-2.4-.6-1.2-1.4-3.2-1.7-4.5-.4-1.3-1.1-3.8-1.7-5.7-.6-1.8-1.2-4.1-1.5-5.1-.5-1.8-1.3-3.6-3.6-7.3-1.8-3-2-3.2-1.5-1.5 1.7 6 2.9 12.2 1.8 9.8-.2-.5-.6-1.3-.8-1.8-1-1.8-1.5-3-2.1-4.8-.6-1.8-1.2-2.8-.9-1.7.6 2.6.2 2.1-1-1.3-.6-1.5-1.1-3-1.2-3.2-.1-.3-.2-.7-.3-.9-.1-.2-.3-1.2-.6-2.2-.3-1-.7-3.3-1.1-5.2-.3-1.9-.7-3.7-.8-4.2-.4-1.6 0 3.2.5 6.2.7 4.4 1.1 6.6 1 6.7-.1.1-.6-1.7-1-3.4-.2-.8-.4-1.9-.6-2.5-.4-1.2-1.2-5.8-1.5-8.3-.5-4.3-.5-4.2-.7-1.3-.1 1.5-.1 5.2-.1 8.3.1 3 0 5.5-.1 5.5s-.2-.2-.1-.3c0-.2 0-.7-.1-1.1-.5-3.2-.9-9.6-.9-14.1 0-2.5-.1-3.9-.3-4.2-.1-.3-.3-1-.4-1.7-.3-2.9-1.5-1.5-1.8 2.1 0 .4-.2 1.8-.4 3.1-.3 2.5-1.2 10.1-1.4 12.3-.1.7-.6 3.2-1.2 5.5s-1.4 6-1.9 8.3c-.4 2.3-1 4.7-1.2 5.4-.5 1.6-1.5 6.6-1.4 6.7 0 0 .4-.2.7-.4 1.8-1.4 7.9-1.9 13-1.1.8.1 2 .3 2.7.3.7.1 1.3.2 1.2.3-.1.1-.9.1-1.8 0-2.9-.2-8.5-.1-10.9.4-2.9.5-5.3 2.7-6 5.4-1 4.1-1 7.7.1 9.2.2.3.4.7.5 1 .1.4.6.9 2.9 2.9 1.3 1.1 4.5 3.1 4.5 2.7 0-.1-.8-1.1-1.9-2.3-3.7-4.2-4.7-6.4-3.5-7.8 1.4-1.6 3.8-1.7 7.2-.3 1.2.5 5.2 1 9.3 1.2 1.3.1 3.7.2 5.3.3 3.5.3 13.8.1 15.6-.2 3.1-.6 4-.8 5.4-1.4.8-.3 1.8-.9 2.2-1.3.6-.6.9-.7 1.6-.7 1.1.1 1.5-2.7.6-4.5-.2-.5-.4-.9-.4-1 0-.1-.5-1-1.2-2.1-.7-1-1.7-2.6-2.2-3.5-.6-.9-1.5-2.3-2.2-3.2-.6-.9-2-2.7-3.1-4.2-2.4-3.2-3.1-4.1-2.9-3.6.2.7 3.1 5.6 4.2 7.3.6.9 1.2 1.8 1.3 2 .3.6-2-1.8-3.7-3.8-1.6-1.9-2.7-3.1-2.4-2.5.1.1.5.8.9 1.6.5.8.9 1.4.9 1.5.3.5-1.1-.2-1.7-.9-2.1-2.3-2.1-2.4-1.1-.4.5 1 1.3 2.3 1.8 3 .5.7.8 1.2.6 1-.1-.1-.6-.2-.9-.2-3.8 0-4.5-9.7-.9-13.3.1-.1.3-.4.4-.6.1-.2.8-1 1.6-1.9.8-.8 2.1-2.4 3-3.5 2.3-2.9 5.9-6.3 8.8-8.5 2.2-1.6 10.8-6.2 13.5-7.2.9-.3 2.3-.9 3.2-1.2 2.4-1 4.9-1.6 8.4-2.2l3.1-.5 1.2.4c.7.2 2.1.5 3.3.6 2.6.3 4.4.7 6.8 1.7 1 .4 2.1.8 2.3.8s.9.4 1.6.9c1.2.9 3.2 1.4 3.2.7 0-.3-1.9-1.8-4.1-3.3-1-.6-2.7-1.9-3.9-2.7-1.2-.9-3.2-2.1-4.7-2.9-1.4-.7-3.2-1.7-4.1-2.1l-1.6-.8-4.1.1c-2.3 0-4.3.1-4.5.2-.2.1-.8.2-1.2.2-.4.1-1.3.2-2 .4-2 .5-2.2.3-.3-.3 2-.7 4.6-1.3 5.5-1.4.4 0 .6-.1.6-.3-.1-.4-9.1-3.4-14.1-4.6-2.4-.6-6.1-1.6-8.3-2.3-3.9-.7-8.9-1.4-8.9-.9m-160.7 3.8c-.3.4-.7.9-.9 1-.2.2-.5.6-.8 1s-.6.8-.7 1c-.3.3-1.1 2-1.1 2.4 0 .3-.4.4-2.3.6-.8.1-1.7.2-2 .2-.3.1-.1-.1.4-.3.5-.2 1.3-.4 1.7-.5.8-.1.9-.2 1.8-1.6.5-.8 1.6-2.2 2.5-3.1 1.8-1.7 2.5-2 1.4-.7m67.3 1.9l-1.7.2c-.9.1-2.3.3-3 .4-.8.2-1.4.3-1.4.3v.5c.1.5.1.5-.2.2-.4-.4-1.3-.4-2.8.1-1.8.6-2.1 1.3-1.2 2.8.5.8.5 1.1 0 .6-.6-.6-.9-1.3-.9-2v-.8l-1.9.7c-1.9.7-8.9 4.1-13 6.4-2.5 1.4-3.4 2-8.1 5.6-2.2 1.7-4 2.9-5.1 3.4-1.7.8-3.7 2.3-7.2 5.6-1 .9-2.4 2.1-3 2.7-4 3.3-4.6 4.1-5 6.7-.8 5.8 3.5 13.7 8.1 14.9 1.3.3 1.3.5-.1.4-1.5-.2-2.4-.7-4.7-3-.9-.8-1.8-1.8-2.1-2.1-1.1-1.1-3.2-5-4.3-8.1-.7-2.1-.9-2.2-1.7-1.2-1.2 1.4-1.2 7.8.2 12 .3 1 .3 1.2.1 1.1-.2-.1-.4-.1-.5-.1-.5 0-2.4-3.1-3.4-5.4-.7-1.7-.8-1.4-.3.9.5 2.4 2.3 7.1 3 7.7.1.1.5.6 1 1.2s2.4 2.7 4.2 4.6c1.9 1.9 3.7 3.9 4.1 4.4 6 6.9 12.3 11.3 16.1 11.3.1 0 .2-.2.3-.5.3-1.2 2.4-6.1 3.3-8 .6-1.1 1.2-2.3 1.3-2.8.2-.4.8-1.9 1.5-3.3s1.5-3.2 1.8-4c.3-.8 1-2.1 1.5-3 .5-.8 1.7-3 2.7-4.9 1-1.9 2.4-4.3 3.2-5.4.8-1.1 1.9-2.9 2.6-3.9 1.5-2.5 5.1-7.1 6.5-8.5.6-.6 1.7-1.9 2.5-2.9 1.4-1.8 4.6-5.1 7.7-8.3 1.5-1.5 3-3.2 4.3-4.7l4.5-4.7c2.2-2.3 4.5-4.7 5.1-5.3l1.1-1.2-.8-.1-.8-.1-3 3c-2.9 3-3.8 3.8-6.5 6.1-.7.6-2.5 2.5-4 4.2s-3.4 3.9-4.4 4.9c-1 1-2 2.2-2.3 2.5l-.6.7.5-.8 1.1-1.5c.3-.4 1-1.1 1.4-1.7s1.1-1.3 1.5-1.7c.8-.9 3.3-3.6 4-4.4.3-.3.9-1 1.3-1.5s1.8-2 3-3.3c1.2-1.3 3.1-3.4 4.2-4.5s2.1-2.1 2.1-2.2c0-.2-1.2-.4-3.1-.4h-1.9l-2.2 2.4c-3.7 3.9-8.1 8.3-11.4 11.4-3.5 3.2-3.4 3.2-7.9 7.9-1.8 1.8-3.2 3.3-3.3 3.3-.1-.1.2-.4.6-.8 1.7-1.8 2.6-2.8 3.8-4.2 1.3-1.5 9.5-10.2 10.8-11.3.4-.3 1.3-1.3 2-2.1 2-2.3 3.2-3.6 4.4-4.9.6-.7 1.1-1.2 1.1-1.3-.2-.3-4.5-.3-4.7-.2m17.8 5.7c-3.6 3.1-9.6 9-12.8 12.6-1.4 1.6-2.7 3.1-2.9 3.3-.2.3-.8 1-1.3 1.6-.5.6-1 1.2-1.1 1.3-.1.1-.5.7-1 1.2-.4.6-1.1 1.5-1.6 2-1.6 2-2.9 3.9-2.8 3.9.1.1.9.1 1.8.2 4.2.2 12.7 2.5 16.7 4.5 2.9 1.5 5.5 3.2 6.3 4.3.3.3.7.9 1 1.2 1.1 1.3 1.8 2.2 2.6 3.6.5.8.9 1.5 1 1.5.1.1.2-1.9.2-4.2 0-4.7.1-6.7.6-9.4.2-1 .3-2 .4-2.3.1-.3.2-1 .3-1.6.1-.5.3-2.1.5-3.4.4-2.8.6-3.8 1.8-6.7.5-1.2 1-2.9 1.2-3.8.6-2.5.9-4.5.8-4.6-.3-.3-4.7 9.3-6.1 13.5-.3.8-.6 1.5-.6 1.8-.1.2-.3.7-.4 1-.5 1.3-.5.8-.1-1.2.7-3.1 2-7.7 2.6-9.2.8-2 .9-2.6.5-2.6-.3 0-.3.1-.1-.8.1-.4.2-1 .3-1.5.1-.6.7-2.7 1.7-5.7.1-.3 0-.2-.4.2-.3.3-.6.7-.8.9-.2.2-.3.4-.3.5s-.4.6-.8 1.2c-.5.6-1.4 2.1-2.2 3.3-.7 1.2-1.4 2.2-1.5 2.2-.2 0-.2-.1.1-.8.2-.3.3-.8.2-1-.1-.2.3-1.3.7-2.6l.8-2.1-2 2c-1.1 1.1-2.2 2.3-2.3 2.5-.6 1.1-1.9 2.1-1.9 1.6 0-.3 1.9-3.3 4.3-6.9 1.3-1.9 2.3-3.5 2.2-3.4-.4.1-10.6 10.9-12.9 13.7-1.2 1.4-1.9 2.2-2 1.9 0-.2.1-.4.3-.6.2-.1.5-.7.8-1.1.6-1.1 2.7-4 3.9-5.4.4-.5 1.2-1.5 1.7-2.2 1-1.4 2.1-2.7 3.9-4.8 2.4-2.7 2.2-2.6-1.3.4m-75-1.4c-1.2.2-3.2 1-3.2 1.3 0 .2-1.2.8-2.3 1.3-.9.4-2.6 1.9-3.6 3.3-1.3 1.9-1.5 2.3-1.3 2.3.1 0 .4-.3.6-.6 1.1-1.9 7.2-5.9 10.3-6.7 2.3-.8 2.1-1.3-.5-.9m38.6 7.2c.4.2.3.2-.7.5-2.9.7-3.9 3-1.9 4.5.5.4.2.4-.7 0-2.5-1-.8-5.1 2.1-5.2.4 0 .9.1 1.2.2m153.3 1.1c1.8.5 3.2.6 2.6.3-.4-.2-3.2-.8-3.8-.8-.3 0 .2.2 1.2.5m-211.3.1c-.1.1-.4.6-.8 1-1.4 1.7-2.4 3.9-1.7 3.7 1-.3 1.5-.3.8 0-1 .4-4.5 1.1-4.9 1-.1 0 .3-.2.9-.3 1.1-.2 1.1-.3 1.6-1.3.6-1.2 2-2.9 3.3-3.8.8-.6 1-.7.8-.3m97.6 2.4c-.2.3-.4.5-.4.5s0-.2.2-.5c.1-.3.3-.5.4-.5.1 0 0 .2-.2.5m107.1.4c-2.8.2-8.3 1.6-12.2 3.2-4 1.6-8.9 5-11.6 8.1-1.8 2-1.8 2-.5 2.9 1.1.8.9 1-.8.4-.6-.2-1-.3-1.1-.2 0 0-.4.6-.8 1.3l-.7 1.3.6.8c.6.9 2.9 2.2 3.7 2.2.3 0 .3.1.2.2-.5.5-2.8.2-4-.4-1.4-.7-1.4-.7-1.8.6-.4 1.2-.3 1.2.8 1.6.5.1.9.4.9.5 0 .3-1.3.9-2 .9-.6 0-.5.5.2 1.1.6.5 1.8.9 3.4 1.2.4.1.8.2.8.3.1.1.4.2.8.2h.7l-.5-.4c-1.8-1.5-1.8-3.5.1-2.1 1.4 1.1 2.7 1.7 4.6 2.1 1.5.3 2 .5 1.4.5-.5 0-.6.1-1.5.4-.5.2-1.4.2-2.1.1-.9-.1-1.4 0-1.6.2-.2.2-.9.4-1.5.6-.6.2-1.2.4-1.2.5-.2.3 3.5 2.4 4.7 2.6.3.1.6.2.5.3-.1.1.1.1.4.1.5-.1.5-.1-.2.3-.4.2-1.3.5-1.9.5-1.4.1-1.4.2.6 1.3 1.5.8 2.7 1.2 4.8 1.4 1 .1 1 0 .1-.8-.7-.6-.9-1-.4-.7.1.1 0-.1-.3-.5-.3-.3-.6-.9-.8-1.2-.2-.4-.4-.6-.8-.7-.5-.1-2.5-2.1-2.3-2.3.1-.1.8.2 1.6.6 1.3.6 1.8.7 3.1.8 2 .1 1.8.5-.5 1.1l-.6.2 1.1 1c1.4 1.3 4.6 2.5 6.6 2.4.6 0 .9.2 2 1.2 1.3 1.1 3 1.9 4.2 2 .3 0 .3 0 0 .2-.2.1-.7.2-1.2.1-1-.2-1.1-.1-.2.4.3.2 1 .7 1.5 1 1 .7 1.7.7 5.1.2 1.6-.2 1.6-.3.3-.6-.7-.2-1.2-.5-1.5-.8-.5-.7-.3-.9.6-.6 1.1.3 4.7.3 5.6-.1l.8-.3-1-.5c-.9-.5-2.2-1.6-2-1.8.1-.1.7.1 1.4.4.9.3 1.8.6 2.8.6l1.5.1-.9.5c-1.5.8-.8 1.4 1 .9.6-.2 1.4-.4 1.7-.4s.5-.2.5-.3c0-.1 1-.2 2.5-.2 1.4 0 3.4-.2 4.5-.4 2.9-.5 6.2-.3 7.9.4 1.4.6 1.4.8-.1.8-4.2.1-6.4.8-11.8 3.4-2.1 1-4 1.9-4.1 1.9-.1 0-.1.1-.1.2.1.1.1.3 0 .3-.4.2-1.6 2.1-3.3 4.9-.9 1.6-2.1 3.4-2.6 4.1-.5.7-.9 1.3-.9 1.3s-.4.7-.8 1.5c-3.9 6.7-5.7 17.6-3.2 20 .7.7.8.6 1.4-1.9.6-2.5.6-2.5.1-2l-.4.4.1-.8c.1-.4.3-1.3.6-2 .3-.6.7-2.1 1.1-3.2.7-2.3 1.1-2.6.9-.7-.1 1.4 0 1.5.5.3.2-.5.7-1.5 1.2-2.3l1.3-2.6c.2-.6.5-1.3.6-1.5.1-.2.2-.5.2-.6s.2-.5.4-.7l.4-.5-.1 1-.1 1 .8-.9c.4-.5 1.2-1.8 1.8-2.9 1-2 1.4-2.3 1.4-1.2 0 .8.1.7 1.4-.3.9-.7 1.2-1.1 1.5-2 .8-2.1 1.4-2.6 1.4-1 0 1.1 0 1.1.8.7.7-.4 2.7-.4 2.7 0 0 .2.2.3.4.4 1.4.5 3.2 4 4.3 8.5l.2.7.8-1.4c1-1.8 1.5-2.2 1-.7-.1.3-.3 1.1-.5 1.9-.2.8-.5 1.8-.8 2.2-.3.5-.4.9-.3.9.2 0 1.8-1.7 2-2.2.1-.3.1-.2.1.3-.1.4-.1.8-.2 1-.1.6 3.4 2.8 5.9 3.6l1.4.5.8-.4c1.7-.9 3.8-4.3 5.9-9.5.3-.8 1-2.2 1.4-3.1 1-2 1.7-4.2 2.2-7.3.5-2.9.6-3.4.6-4.2 0-.5.1-.6.3-.4.6.6.2 15-.6 16.9-.1.3-.1.4.2.1.2-.1.3-.4.3-.6 0-.2 0-.3.1 0 .2.4 1.7-3.5 3.6-9.1 1-2.9 1.1-5.8.4-8.6-.2-.9-.5-1.9-.6-2.3-.1-.4-.7-1.7-1.2-2.7-2-3.7-2.8-7.4-3-12.7-.1-5.6-.2-5.8-2.5-6.9-.9-.4-2.1-1.1-2.7-1.4l-1.1-.6h-5c-4.2 0-5.2-.1-6.2-.4-.8-.2-1.7-.3-2.9-.3-1.4 0-1.7 0-1.4-.2.5-.3 3.8-1.1 4.6-1.1.7 0 1.4-.3 1.4-.6 0-.1-.2-.2-.4-.2-.7 0-4.1-1.9-7.9-4.5-4.6-3.1-8.1-4.7-11.3-5.1-.5-.1-1.1-.2-1.4-.2-3.4-1.6-5-1.7-8.1-1.5m-224 1.1c-.1.2-.1.5 0 .7.1.3.2.3.2 0 .1-.6-.1-1.1-.2-.7m130.2 1.9c-.4.9-1 2.3-1.2 3.1-.2.8-.6 2.2-.9 3-.3.9-.5 1.9-.7 2.2-.5 1.9.1-3.6.7-6.5.5-2.4.2-1.9-.8 1.3-.9 2.9-1.4 4.9-1.7 7.3-.2 1.5-1.1 6.1-1.4 6.5-.3.5-.9 3.8-1.4 6.6-.8 5.4-1 7.3-1 10.6 0 3-.2 4.8-.5 4l-1.1-4.3c-.5-2.3-.6-2.5-3.4-5.6-3-3.3-3.7-3.7-9.8-6.2-1.1-.4-2.3-.9-2.7-1.1-4.5-2-5.6-2.3-12.4-2.4-2.2-.1-4.3-.2-4.7-.2l-.7-.1-1.1 1.8c-.6 1-1.5 2.6-2 3.6-.9 1.9-2 3.7-2.6 4.4-.2.2-.9 1.1-1.7 2-.7.8-1.2 1.6-1.2 1.7.2.3 3.9.5 10.5.5 12.3.1 12.5.1 16.2 1.2 1.9.6 5 1.9 6.4 2.7.7.4 2.2 1.2 3.3 1.7 7.1 3.4 6.9 8-.6 13.1-1.6 1.1-2.4 1.8-1.7 1.5.2-.1 1.1-.5 2.2-.9s2.5-1.1 3.2-1.5c.7-.4 1.3-.7 1.3-.6.2.2-3.4 3.4-5 4.6-1.8 1.3-1.8 1.2.1 1.9 2.7 1.1 5 1.7 8.6 2.4.3.1.7.1.8.2.5.1 1.6.3 2.4.4.5 0 .9.1 1 .2.1.1.6.2 1.1.2 2.6.3 3 .3 3.1.4.1.2-3.1.1-5.9-.3-.4 0-1.2-.1-1.9-.2-.6-.1-1.6-.1-2.1-.2-1.9-.2-5.1-1-7.9-2-2.6-1-2.3-1-3.3 0-1.4 1.3-3.4 6.4-2.8 7.4.2.4.2.4-.1.3-.2-.1-.8-.3-1.4-.4-7.7-2.1-9.5-6.1-3.8-8.3.4-.2 1.6-.8 2.5-1.4 4.7-2.9 5.9-3.6 6.9-4.3.6-.4 1.5-1 2.1-1.3 1.4-.8 1-.8-.6 0-1.7.9-4 1.9-4 1.7 0-.1.1-.3.2-.5.5-1 .1-1-.6 0s-1.4 1.8-1.4 1.5c0-.1.1-.4.3-.6.1-.2.5-1 .7-1.7.2-.7.8-2 1.2-2.9 1-2.1 1-3 .1-1.2-.4.7-1 1.8-1.5 2.5s-1.2 1.8-1.6 2.5c-.9 1.4-1.8 2.7-1.7 2.2.1-.2.3-.9.6-1.6.3-.7.7-1.8.9-2.4.2-.7.6-2 1-2.9.3-1 .6-1.8.6-1.9 0-.5-2.7 3.9-3.5 5.8-1.1 2.5-1.6 2.9-1.3 1.2.3-1.5.8-3.1 1.9-5.3.5-1.1.9-2.1.9-2.2-.1-.1.2-1.1.6-2.2.7-2.1.8-2.8.1-1.1-.7 1.6-1.9 3.9-3 5.7-2.1 3.3-2.8 4.6-3.5 6.2-.4.9-1.2 2.3-1.7 3-2.3 3.5-2.4 3.9-1.4 5.9.7 1.5 1.8 2.5 4.2 3.9 1.1.6 2.5 1.5 3.2 2 2.1 1.4 6.7 3 8.5 3 .3 0 1 .2 1.6.4 4.7 1.6 9 2 27.1 2.3 4 .1 7.3.2 7.5.3.2.1 1.6-.1 5.6-1.2 1.1-.3 3.1-.9 4.6-1.5 6.2-2.3 7-3.1 6.5-6-.4-2.4-1.1-8.8-1.1-10.6 0-2.7-.4-2.2-1.1 1.5-.2 1-.5 2.2-.6 2.6l-.3.9.1-1.3c.1-.7.1-2.5 0-3.9-.2-2.8-.3-2.8-.8.4-.3 1.8-.3 1.7-.8-.8-.5-2.7-.8-2.6-1.6.6-.2.7-.3 1.4-.4 1.4-.1.1-1.3-.5-1.9-.9-.5-.3-1.2-.6-1.2-.5 0 .1 1.5 2 2.8 3.6.6.8 1.4 2 1.8 2.6.4.7 1 1.7 1.4 2.2.8 1 1 1.9.8 2.8-.1.3-.1.7-.2.9-.1 1-5.6 3.4-8.8 3.9-.4.1-1 .2-1.3.2l-.5.1.6-1c1.9-3 .4-7.3-4.2-12.2-1.7-1.8-3.4-4.2-3.7-5.3-.9-3.3-.4-10 1.3-15.5.7-2.3 1.6-6.8 1.8-9.1.1-1.1.4-3.9.6-6.2.2-2.4.5-4.7.7-5.2.2-.5.4-1.6.5-2.4.6-4.2.7-5.9.7-5.9l-1.1 4c-3.2 12.8-5 18.9-4.6 15.3.1-.6.2-1.8.2-2.6.2-3.1 1.4-10.4 2.4-14.8.3-1.4.8-3.6 1-4.7.2-1.2.5-2.4.5-2.6.6-2.9-2 5.4-3.2 10-.4 1.7-.8 3.1-.9 3.1-.1 0-.1.1-.1.2.1.2-.8 3.6-1.2 4.3-.3.6-.3 0 .1-2 .1-.5.2-1.3.3-1.7 0-.4.2-1.4.4-2.3.2-1 .3-1.7.1-1.7-.7-.2-.9-.6-.7-1.2.1-.3.2-.8.2-1.1-.1-.5-.1-.5-.2.2-.1.4-.4 1.4-.6 2.2l-.5 1.5.1-1.7c.1-.9.2-2.5.4-3.6s.3-2.2.4-2.5c0-.3.1-1 .2-1.4.1-.8.1-.8-.3-.8-1.1 0-1.3.2-1.5 1.5-.6 3.6-1.1 8.1-1.3 11.1-.1 1.1-.2 2.3-.2 2.8s-.2 2.1-.3 3.5c-.1 1.5-.2 3-.3 3.4-.2 1.4-.5 2.7-.6 2.8-.2.2.3-14.3.6-17.2.1-1.4.8-7.1.9-7.4 0-.2-.2-.3-.8-.3-.5 0-1.1-.2-1.3-.4-.4-.2-.5-.3-.5 0-.2.6-.5 7.2-.5 10.9 0 4-.2 7.6-.3 6 0-.4-.1-1.4-.1-2.1s-.2-2.1-.3-3.2c-.1-1.1-.2-2.3-.2-2.9 0-1.1 0-1.1-1-1.3-.4-.1-.6-.1-.5.1.1.1 0 .3-.1.3-.2.1-.3-8-.2-11 0-.5-.1-.8-.2-.8s-.2 0-.2.1c0 0-.1.8-.3 1.6-.2.8-.5 3.3-.8 5.5-.7 5.4-1.4 10.2-1.6 10.4-.1.1-.2-.2-.1-1.1.4-5.6.4-6.3-.1-6.5-.3-.1-.5-.4-.6-.7l-.1-.5-.1.5c-.1.3-.2.8-.2 1.1-.1.3-.2 1-.3 1.5-.5 2.4.2-6.8.8-9.9.9-2.8.8-2.9-.2-.7m5.7 1.6c-.1.4 0 .7.1.8.2.2.2 0 .2-.6 0-1-.1-1.1-.3-.2m-70.1 1.5c.6.2.6.5 0 .5-2.6 0-3.7 4.4-1.2 4.8 1 .2.9.5-.1.5-1.7-.1-2.3-1.2-2.1-3.3.2-2.1 1.6-3 3.4-2.5m69.4 3.9c-.1 1.2.2 1.7.3.6.1-.4.1-1-.1-1.1-.1-.2-.2-.1-.2.5m-81.8 7.1c1 .3 2.5 1.9 2.5 2.6v.5l-.3-.5c-1.4-2.1-3.9-2.5-5.2-.8-1.6 2-2 3.9-1.3 5.6.6 1.4.1 1.1-.7-.5-1.9-3.3 1.5-8 5-6.9m-20.3 5.4c0 .8.1.8.3 0 .1-.3 0-.6-.1-.6-.2-.1-.2.2-.2.6m233.9 4.1c2.9 4.1 2.2 8.9-1.2 7.8-.5-.2-1-.3-1.2-.3-.5 0-3.8-1.8-4.2-2.3-1.3-1.6-.3-3 4.2-6 1.1-.8 1.3-.7 2.4.8m-53.6 4.8c.7.3 1.7.5 2.3.6 2.3.2 2.5.4.9.8-1.7.5-3 .1-4.5-1.2-1.1-1-.8-1.1 1.3-.2m8.5 2.1c.8.2 2 .4 2.7.4 1.5 0 1.5.2.3.7-1.4.7-3 .4-4.2-.7-1-.9-.8-1 1.2-.4m-32.5 1.5c.3.4.4.7.3.6-.2-.2-1.1-1.3-1-1.3.1-.1.4.3.7.7m-122.8.9c-.3.5-.6.9-.7.9-.1 0-.2.1-.1.1.1.1 0 .4-.2.8s-.2.6-.1.6c.1-.1.2 0 .2.1s-.1.2-.1.3c-.1 0-.4.5-.6 1-.3.5-.5 1-.6 1.1-.1.1-.6 1-1.3 2.1-2.9 5-4.7 7.1-6.1 7.5-1.5.4-2 .3-5.5-1.4-1.9-.9-8.6-7.6-8.6-8.6 0-.1.3.1.7.5 1.6 1.5 2.2 2 4.8 3.8 4.7 3.3 5.5 3.5 8.3 2.3.3-.1.7-.3 1-.4 1.8-.8 4-3.4 7.4-8.9 1.5-2.4 2.6-3.7 1.5-1.8M288 357l-1.1.1.8 1c1.4 1.6 2.1 2 4.3 2.1l1.9.1-.9-1.1c-1-1.1-2.8-2.3-3.4-2.3-.3 0-1 0-1.6.1m-24.5 7.9c.1.2.3.7.5 1.3.2.6.4 1 .5 1 .2 0 .2-.2-.2-1.1-.2-.4-.4-.9-.4-1 0-.1-.1-.3-.2-.4-.2-.1-.3 0-.2.2m-3.5 3.6c0 .3.3.8.5.7.1-.1 0-.3-.2-.5-.2-.3-.3-.3-.3-.2m-126.5 2.3l-.8.3.8-.1c.7-.1 1.1-.2.9-.4-.1 0-.5.1-.9.2m197.9 5.7c-.2 1.8-.8 3.2-1.3 3.3-.8.2-.5-1.2.8-3.2.6-1 .6-1 .5-.1m-22 4.9c-.8 1.4-1.3 3.1-1.1 3.5.6 1 1.1.1 1.5-2.4.4-2.3.3-2.3-.4-1.1m-3.1 6.7c-.4.6-1.3 3.8-1.1 4.2.2.5.4.3.8-.6.2-.5.6-1.3.8-1.9.7-1.5.3-2.9-.5-1.7"/></svg>