<svg xmlns="http://www.w3.org/2000/svg" viewBox="0 0 400 400"><path d="M190.3 16.1c-.8.2-1.8.5-2.3.6-.5.2-2.2.8-3.7 1.3-5.2 1.9-8.8 3.2-11.3 4.3-7 2.9-8.3 3.7-16.3 9.4-4.2 3-5.8 4.3-7.4 6-1.3 1.4-1.3 1.6 0 1.2.5-.2 1.3-.3 1.8-.4 1-.1.9-.1 5.2-3.3 3.1-2.4 3.4-2.6 5.2-3.5.9-.4 2.1-1.1 2.8-1.6 2.7-1.7 12.5-6.4 15.3-7.2 3-.9 3.1-1 3.1-.8 0 .1-.7.4-1.5.7-1.8.7-3.5 1.4-4.1 1.7-.2.1-1.4.8-2.6 1.4-8.5 4.6-11.2 6.1-12.9 7.7-1.2 1.1-3.9 3.8-3.9 4.1 0 .1 1.7.1 3.7.1 4.1 0 7 .3 8.6.9l1.1.4 1.1-.7c2.5-1.5 5.6-1.8 6-.6.2 1 3.8 8.3 5.2 10.6.7 1.2 4.2 3.9 4.6 3.5.1-.1-.2-1-.7-2.1-1-2.5-1-2.6 0-3 .4-.2.8-.4.8-.5 0-.2 1.7-1.1 1.8-1a26.16 26.16 0 0 0 1.7 5c1.1 2.3 1.1 2.4-.2 2.7-.6.2-.5.4.2.7.4.1 1.3.6 2.1 1.1 1.7 1 4.4 2.3 4.7 2.3.5 0-2.8-7.5-4.5-10.3-.7-1.2-1.2-2.4-1.2-3.1 0-.4-.1-.6-.1-.6-.1 0-.1 0-.1-.1s-.3-.7-.6-1.3c-.6-1.2-2.2-5.4-2.2-5.7 0-.1.4.3.8.8.4.6.9 1.1.9 1.1l1.4 1.6c3.1 3.7 8.8 9.4 10.4 10.6 1.2.9 9.1 8.1 11.2 10.2.4.4 1.3 1.3 2 1.8l1.2 1 .1 3c.1 2.8.1 3.1.6 3.9.5.9 8.3 8.8 8.7 8.8.1 0 .3-.7.3-1.6.3-3.2 1.4-10.9 1.7-10.9.1 0 .4.8.7 1.8 1 3.1 3.2 8.5 4.5 11.1 1.4 2.8 1.4 2.7-.4 2.7-1.2 0-3 .3-3 .6 0 .1.5.8 1.2 1.5 1.1 1.3 1.5 1.6 3.9 2.9l1.1.6 4.3.1c6 .1 8.6.8 12.4 3.4 2.2 1.4 5 4 5 4.5 0 .2.1.2.2.2.2-.1.9.8.7 1-.1.1-.7-.5-1.5-1.2s-1.5-1.3-1.6-1.3c-.1 0-.9-.5-1.8-1.1-3-2.2-4.6-2.8-8.3-3.5-2.1-.4-5.7-.6-6.1-.4-.5.3 2.8 2.1 3.9 2.2.6.1 2 .4 3.2.8 1.2.4 2.7.8 3.4 1 1.7.4 4.2 1.7 5.2 2.5.4.4 1.2.9 1.7 1.2.5.3 1.2.8 1.6 1.2 1.1 1.1 4 4.7 4.3 5.4.2.4.6 1 .9 1.4.4.5.6 1.2.8 2.2.1.8.3 1.7.4 2.1 1.1 4.3 1.2 13.1.3 17.3-.2.8-.6 2.6-.9 4-.3 1.4-.7 2.9-.8 3.2-.1.3-.2.8-.2 1.2 0 .7-.6 2-1.7 3.9l-.8 1.3.6.7c.3.4 1.2 1.5 1.9 2.5s1.5 2 1.8 2.2c.3.3 1.1 1.3 1.8 2.4.7 1 1.5 2 1.7 2.2.6.5 2.9 3.4 5 6.2 1.2 1.6 2.9 3.7 4.1 4.9 4.2 4.3 6 6.5 6.2 7.5.2.8 1.2 1.8 3.6 3.4 2 1.4 2 1.4 1.8-1.6-.1-1.1-.2-4.9-.2-8.4 0-6.1-.3-11-.7-13-.2-.9-.5-9.8-.4-13.4 0-1.8.2-4.5.8-10.2.2-2.1.4-4.6.5-5.5.1-.9.2-2.5.4-3.6.5-3.1.7-4.6.8-5.9.1-.6.1-1.4.2-1.7.4-2.3.8-6.1 1.2-10.9.1-.8.1-1.5.2-1.6.3-.5.4-11.6.2-15.3-.2-3.3-.3-9.8-.2-9.6.1.1.2 1 .2 2 0 1.1.1 2.1.2 2.4.1.3.1 1.2.2 2.1.1.9.2 2.7.3 4.2.3 2.9.3 12.8.1 15.8-.4 5.2-.6 7.3-.8 9.2-.2 1.1-.5 3.5-.7 5.3-.2 1.8-.5 4.3-.7 5.7-.2 1.8-.3 4.5-.3 9.8 0 10.5 0 12.4.3 14.1.2.8.4 2.6.6 3.9.5 4 1 5.7 2 5.7.4 0 .4-4.6 0-8-.3-2.4-.5-11.8-.2-12.2.2-.3.2-.3.2.2 0 1.2.2 4.1.3 4.5.1.4.2.4.5.2.2-.1.3-.3.3-.4-.4-.6 2.2.9 2.8 1.6.1.1.8.5 1.7 1.1.9.5 1.9 1.2 2.2 1.5.4.3 1 .7 1.3.9.3.2 1.3.9 2.1 1.5 1.7 1.3 1.7 1.3 1.5.1-.1-.5-.2-2-.3-3.4l-.1-2.6-1.5-.1c-2.3-.1-2.1-.7.7-2l.8-.4-.1-2.4-.1-2.4-1.7-.4c-2.1-.4-3.9-1.2-3.8-1.7.1-.4 2.2-1.5 4.1-2.1l1.6-.5.1-1.5c.1-.8.3-3.1.6-4.9.5-3.8.5-3.8-.6-3.6-3.2.6-3.1-.6.2-2.6 1.4-.8 1.4-.6 1.6-6.4.1-2 .3-5.4.5-7.5.8-10.8 1.1-20.3.6-24.2a44 44 0 0 1-.4-4.2c-.1-1.4-.9-6.8-1.6-10.3-.8-4.3-1.8-7.6-3.7-11.6-.3-.7-.8-1.8-1-2.4-.7-1.6-1.2-2.4-2.5-4.2-1.3-1.7-2.4-3.3-4.5-6.5-1.9-2.9-8.1-9.2-8.5-8.6-.2.3-2.2 2.7-3.2 4-3.8 4.4-3.8 4.3-.7 9.4.5.8 1.1 1.9 1.4 2.3.9 1.7.9 2.7 0 1.3-2.1-3.2-4.4-5.8-6.9-7.5-.4-.3-.8-.2-4.2 1.2-2 .8-4.8 1.5-6.4 1.6-1.2.1-2.6.3-4.1.6-.8.2-2 .4-2.8.6-.8.1-2.3.4-3.4.7-1.1.2-2.4.4-3 .5-.6.1-2.3.3-3.7.6-4.4.8-15.8.6-17.2-.2-.1 0-.6-.1-1.2-.2-5.7-.7-8.5-1.5-12.2-3.4-4.1-2.1-5.3-2.8-5.8-3.2l-.6-.4c-.2 0-6.8-4.5-7.9-5.4-3.2-2.6-4.1-3.4-6.5-5.7-1.5-1.5-3.2-3.5-4.2-4.7-2.3-2.6-2.2-2.5-4.5-2.1m-73.5 10.1c-.6.8-1.2 2.1-1.2 2.7 0 .2-.2.5-.5.8-.3.2-.5.8-.6 1.2-.1.4-.2.9-.3 1-.8 1.4-.3 6 .8 8.5.3.7.6 1.6.7 2s.2.9.3 1.1.2.7.3 1c.1.4.2.8.3 1 .1.2.2.5.2.7 0 .2.2.7.4 1.1.2.4.4.8.4 1 0 .3 1 2.3 1.8 3.6 1.1 1.7 1.8 2.3 3 2.5.5.1 1.4.2 2 .3 1.7.3 5.7.6 6.2.6.4-.1.3-.2-1-1.1-1.4-.9-5.4-4.9-5.4-5.3 0-.1-.1-.3-.3-.4-1.2-1.3-.9-1.3.5 0 .9.9 2.1 2 2.6 2.4a27.36 27.36 0 0 0 8 5.2c1.6.5 2.3.2 1.1-.5-.3-.2-1.2-.9-2-1.5s-1.9-1.5-2.5-1.9c-2.4-1.7-5.7-4.8-6.2-5.9-.3-.6-1.4-2.8-2.4-4.9-3.3-6.7-4.8-11.1-4.8-14.2 0-1.3-.2-1.2-.6.5-.2 1-.1 3.3.3 5.7.1.3-.1.1-.3-.6-.5-1.5-.7-4.6-.3-6.3.3-1.3.3-1.3-.5-.3m165.9.4c-1.1.7-2.4 1.3-4.7 2.1-1 .3-1.1.4-2.5 2.4-.8 1.1-1.8 2.6-2.4 3.3-1.6 2-1.5 1.9 2.6-.2 1.4-.8 2.9-1.4 3.3-1.4.7-.1 1.4-.5 1.4-.8 0-.1.3-.7.7-1.2.4-.5 1-1.4 1.2-1.9.3-.5.8-1.3 1.1-1.9.8-1.3.7-1.4-.7-.4m-15.6 5.1c-1.7.5-3.6 1-4.3 1.3l-1.1.5-1.3 2.6c-.7 1.4-1.3 2.7-1.3 2.7s.5 0 1.2-.1c1.3-.1 1.4-.2 3-.5.5-.1 1.3-.2 1.8-.2 1 0 1.5-.2 1.5-.4 0-.1.6-1.1 1.2-2.2 1.9-3.1 2.7-4.4 2.6-4.5-.2 0-1.6.4-3.3.8m-148.7 3.4c.2.3.6 1.3.5 1.3-.2 0-.9-1.6-.9-1.9 0-.3 0-.3.1 0 .1.2.2.5.3.6m-53.9-.3c0 .1 2.8 1.1 2.9 1.1.2-.2-1.9-1.1-2.4-1.1h-.5m191.7 0l-1.8.2c-1.3.1-1.8.2-2 .5-.3.4-2 3.9-2 4.1 0 .2 1.5.1 2.7-.1.2 0 .4-.1.5-.1.1 0 .4-.3.7-.7.2-.4.9-1.3 1.4-2.1 1.4-1.9 1.4-1.9.9-1.9-.1.1-.3.1-.4.1m-71.1 1.3c.1.4.7 1.8 1.2 3.2l1 2.5-1.7.9c-1.7.9-1.9.9-1.9.4 0-.1-.3-.9-.6-1.6s-.9-2-1.3-2.9l-.7-1.6 1.8-.8c1.8-1 1.8-1 2.2-.1m-119.9.8c1.1.7 2.8 1.9 3.9 2.8 1.2 1 2.3 1.8 2.9 2 .5.2.8.4.6.4-.5 0-.2.4.8 1.2.5.4 1.5 1.3 2.2 2.1.7.8 1.5 1.5 1.7 1.5.2.1.3.2.3.3-.1.1.6.8 1.4 1.6.8.8 1.6 1.5 1.7 1.7.1.1.6.7 1.2 1.3.5.6.9 1.1.9 1.2 0 .3 1.9 2.1 2.7 2.5.3.2.7.5.7.7.1.5 1.7 1.5 2.3 1.6.5 0 .5 0 .1.1-1.1.3 1.8 2.4 3.8 2.7.5.1 1 .2 1 .3.1.1 0 .1-.2.1-1.1-.3-1.7-.3-1.9-.1-.2.2-.3.2-.4 0-.1-.1-.2-.2-.4-.2-.4 0 .7.8 2 1.4 1.6.8 4.1 1.4 5.7 1.4 1.1 0 1.2 0 .5.2l-.8.1 1.1.3c1.2.4 3.4.6 5.1.6.6 0 1.1.1 1.1.2-.1.6 5.5 1 7.2.5.7-.2.7-.2.4.1-.2.2-.6.3-.8.3-.7 0-1 .3-.4.4.5.1 3.3-.1 4.2-.4.3-.1.8-.2 1.3-.3.4-.1 1.2-.3 1.6-.5 1-.3 1.5-.4 1.3-.1-.1.2-2.5 1.1-2.9 1.1-.1 0-.2.1-.3.2-.1.1.1.1.5 0s1.1-.2 1.6-.3c1.5-.3 3.8-.8 5-1.2.5-.1.9-.2.9-.1.1.1-1.3.8-1.6.8-.1 0-.3.1-.3.2s-.1.2-.2.2a2 2 0 0 0-.8.3c-1.2.6 2.3-.1 5.1-.9.8-.3.7-.5-.5-.7-.5-.1-1-.2-1.1-.3-.3-.2-6.5-1.9-7.5-2.1-.5-.1-1.4-.2-2-.4-.6-.1-2-.4-3.2-.6-1.2-.2-2.2-.4-2.2-.4-.3-.3 5.9.5 9.7 1.2.9.2 2 .3 2.4.4.5 0 1.1.2 1.5.3.3.1 1 .2 1.6.3 1.6.2 5.3 1 6.6 1.5.6.2 2 .5 3 .6 1 .1 2.1.3 2.4.5.9.5 1.1.3.3-.3-.4-.3-1-.9-1.5-1.4-.7-.6-1-.8-2-.9a54 54 0 0 1-5.6-.8c-.1-.1-.5-.1-1-.2-.4 0-1.1-.2-1.4-.4-.3-.2-.7-.3-.9-.3-.7 0-4.4-1.5-6.7-2.6-1.4-.7-4.1-1.9-6.1-2.8-2-.8-4.3-1.8-5.2-2.2-1.5-.7-5.3-2.1-5.6-2.1-.1 0-.5-.2-1-.4s-2-.8-3.5-1.2c-2.5-.8-4.7-1.7-5.9-2.6-1.4-1-6.8-2.6-6-1.8 1.2 1.2 6.7 5.1 7.5 5.3.1 0 .3.1.5.2.1.1.4.3.7.5.2.2.8.6 1.3 1 1.1.9 1.7 1.2 2 1.1.1 0 .6.2 1 .6 1 .9 1.5.9.8 0-.2-.2.1 0 .6.4 1.7 1.6 3.1 1.9 1.7.5-.4-.5-.8-.9-.8-.9 0-.1.2-.1.4.2 1.6 1.5 4.6 3.5 5.4 3.5.1 0-.5-.6-1.3-1.4l-1.2-1.2c.2.1.4.3.6.4.2.2.9.7 1.7 1.2 2.2 1.6 2.3 1.6 1.6 1.5-.6-.1-1.5-.3-2.5-.7-.3-.1-1.4-.4-2.3-.7-3.8-1.1-12.1-5.7-15.9-8.8-4.4-3.5-14.1-8.8-21.3-11.5-3.1-1.3-3.3-1.2-.9.2m182.3-1c-.2.2-2.4 3.7-2.5 4 0 .2.9.4 1.2.2.6-.4 2.4-4.3 2-4.3-.3-.1-.6 0-.7.1m-3.3.7c-.8 2-1.3 3.2-1.3 3.3 0 .3.8.2.9-.2.1-.2.5-1.1.9-1.9.9-1.9.9-1.8.3-1.8-.4-.1-.6.1-.8.6M183 38.1l-.9.3.7 1.5c1 1.9 1.3 2.2 2.1 1.9.7-.3.8-.1-.1-2.2-.7-2-.6-2-1.8-1.5M78 41.4c.3.2.7.4.8.4.1 0-.1-.2-.4-.4-.3-.2-.7-.4-.8-.4-.1 0 .1.2.4.4m131.4.8c.3.2.7.5.7.5.1.2 2.3 1.6 2.8 1.9.2.1 1.1.6 1.9 1.1 5.7 3.3 8.3 4.4 14.8 6.6 3.1 1 11.1 1.4 14.3.6.9-.2 2-.5 2.4-.5 3.5-.6 12.3-3 14.6-4 .5-.2 1.6-.6 2.4-.8.8-.2 1.9-.7 2.5-1.1 2.1-1.3 6.6-3.4 7.2-3.4 1.4 0 5.6 5.9 7.6 10.6 2.4 5.7 2.4 5.7 4.3 13.7l.9 3.6c.1.4.3 1.5.4 2.5.4 3.3.8 6.3.9 6.5.2.4.5 3.2.7 6.4.1 2.1.3 5 .5 6.4.3 2.5.3 13.3 0 16.2-.1.5-.1 2.8-.2 5.2-.1 6.3-.4 10.7-.9 14.2-.1.7-.3 3.2-.5 5.6-.2 2.9-.4 4.1-.5 3.6-.1-.4-.2-1.1-.3-1.7a13 13 0 0 1-.3-2.2c-.1-.7-.2-1.6-.2-2-.1-.4-.1-2.2-.2-4.1-.1-3.8-.3-6.3-.7-8.9-.4-2.2-.5-3.3-.6-6.2-.1-1.3-.2-2.7-.3-3.1-.1-.4-.3-1.6-.4-2.7-.1-1.1-.2-2.2-.3-2.5-.1-.5-.3-1.8-.8-5.3a307.57 307.57 0 0 0-1.8-9.7c-.9-4.5-1.8-7.6-3.1-10.4-.7-1.5-1.3-2.8-1.3-2.9 0-.2-2.8-6-3.3-6.7-.3-.4-1.4-2.3-2.4-4.1-2-3.5-4-6.6-4.9-7.7l-.5-.6-1.6.5c-1.6.5-7 1.9-8 2.1-.3.1-2.2.4-4.1.8-11.1 2.3-21.8-.3-31.6-7.7-3.9-2.6-13.3-12.6-10.1-10.3m-155.1 0c0 .3.6 1.6.8 1.7.3.2.2-.6-.1-1.3-.3-.6-.7-.8-.7-.4m139.1 3.2c.5 1 1 1.8 1.1 1.9.3.3-.6-1.8-1.1-2.6-.9-1.4-.9-1 0 .7M56.3 44.1c0 1.2 1.3 4.7 2.1 5.4.5.4.6.9.1.5-.2-.2-.3-.2-.3 0 0 .4.8 1.5 1.7 2.2.4.3.8.7.8.9 0 .2-.2.1-.7-.2-.4-.3-.7-.5-.7-.4 0 .5 2.1 3.4 2.5 3.4.1 0 .3.1.4.3.2.3.2.3-.3.2-.7-.2-.7.1.2 1.1.4.5.7 1 .7 1.1s.5.8 1 1.5c.6.7 1.1 1.6 1.2 1.8.3.7 1.6 2.1 2.3 2.6.3.2.4.3.3.3-.2-.1-.3 0-.3 0 0 .2 1.1 1.2 1.3 1.2.1 0 .2.1.1.2-.2.3 1.2 1.9 1.7 2.1.2.1.4.2.4.4 0 .1.3.5.7.8.4.3 1 .9 1.4 1.2s1.1.9 1.5 1.1c.4.2.8.5.9.7.1.2.4.4 1 .6.5.1.9.3.9.5 0 .5 3.6 1.8 5.6 2 .6.1.8.2.7.3-.2.4 3.6 1.5 5.3 1.5.6 0 1 .1.9.2-.1.1.5.2 1.1.3.7.1 1.9.2 2.8.3 1.8.2 3.2.1 5-.5 1.1-.4 1.1-.1 0 .3-1.3.5-1.4.7-.5.7.9 0 4.3-.6 5.2-1 .8-.3 1.3-.3.7.1-1.2.7 2.5-.1 6-1.3 1.9-.7 2.1-.7 1.4-.2-.8.6 0 .5 4.4-.9 1.2-.4 2.7-.7 3.3-.8 1.3-.1 1-.4-.6-.5-.7-.1-2.2-.3-4.8-.8-.3 0-.7-.1-.9-.1-.2 0-.4-.1-.3-.2.1-.1-.1-.1-.3-.1-.4.1-2.1-.3-1.9-.4l2.8.2c1.5.2 3.3.3 3.9.4 1.9.2 7.2.9 7.6 1 .5.1 2.1-.6 2.5-1.2.4-.6.3-.6-3.9-.8-1.6-.1-3.5-.2-4.2-.3-5.8-.8-8.2-1.2-13.9-2.4-3.8-.8-6.2-1.5-8.9-2.6-.5-.2-.8-.3-1-.1-.1.1-.3.1-.3.1-.2-.4-3.9-2.5-3.9-2.2 0 .2-.5.3-.6 0-.1-.3-1.9-1.4-2.3-1.5-.2 0-.6-.2-.9-.4-.9-.6-3.6-1.8-3.9-1.7-.1.1-.6-.2-1-.5s-.8-.6-.9-.6c-.3 0 .5.8 2 1.9.8.6 1.4 1.1 1.4 1.2 0 .1-.1 0-.3-.1-.2-.1-.3-.2-.3-.1 0 .2-2.3-1.5-3.4-2.6-1.5-1.4-4.4-3.1-3.9-2.3.2.3 0 .2-1.7-1.1-1.1-.9-3.7-2.4-4.1-2.4-.1 0-.6-.3-1-.7-.7-.5-3.2-2.4-4.2-2.9-.4-.3-.3 0 .5.9.4.5.9 1 1 1.2.5.6 2.1 1.9 4.3 3.6 1.1.9 2.6 2 3.2 2.5.6.5 1.8 1.3 2.6 1.7 1.8.9 3.4 1.8 3.8 2.1.2.1 3.8 1.7 6.5 2.8.2.1 1 .4 1.7.7.7.3 1.5.6 1.8.8.3.2.7.3.9.3.5 0 1 .2 1 .4 0 1.1-16.1-5.8-19.7-8.4-.7-.5-1.8-1.3-2.4-1.6-1.9-1.1-4.2-2.7-5.1-3.5-.5-.4-1.6-1.4-2.4-2.1-1.6-1.4-5.4-5.2-6.9-7-.1-.9-.4-1.2-.4-1.1m131.1 3.7l-.6.3.9 1.9c1.1 2.3 1.3 2.6 2 2.1l.5-.3-.5-1.3c-1.2-3.4-1.1-3.3-2.3-2.7m-125.5 1c0 .1.1.3.3.4.2.1.3.2.3 0 0-.1-.1-.3-.3-.4-.2-.1-.3-.1-.3 0m1.4-.1c0 .2 1.9 2.5 2.9 3.5 1.4 1.3 1.2.9-.2-.7-.6-.7-1.2-1.4-1.2-1.5 0-.1-1.5-1.5-1.5-1.3m34 4.2c.8.9.1.5-.9-.5-.9-1-1-1-.3-.5.5.3 1 .8 1.2 1m53.7-1.1c-1 .3-.9.9.2.9.5 0 1.8.8 2.3 1.4.6.7-.9 1.1-1.7.4-1.8-1.6-2.6-2-3.8-2.2-2.6-.4-6.3 2.3-6.3 4.7 0 .5-.2.6-1.5 1.2-1.5.7-3.8 2.1-3.8 2.3-.1 1.9 6.9 7 11.4 8.3.6.2 1.8.5 2.5.8 1.2.4 1.8.4 5.2.4 2.1 0 3.9.1 3.9.1 0 .1-.2.1-.4.1s-1.1.1-2 .2c-3.8.6-10.6-.6-15.3-2.7-2.5-1.1-5.8-1.2-9.2-.1-.7.2 1.4 1.6 3.4 2.2.6.2 1.1.4 1.2.5s.5.2.8.3c.3.1.6.2.6.3 0 .1.2.1.3.2.2 0 .7.1 1.2.2.9.2.9.2-.3.1-.6-.1-1.3-.2-1.5-.3-.2-.1-1-.3-1.8-.5s-2.3-.8-3.5-1.4c-1.8-.9-2.1-1-2.6-.9-.7.3-.7.4.7 1.3 3.7 2.5 7.5 3.7 12.3 4 2.1.1 3.8.3 3.8.3.1.1.4.1.8.1s1.7.1 2.8.2l2.3.2c1.6 0 6.3-.3 6.4-.4.1 0 .1 0 .1.1 0 .2.6.1 2.3-.6.7-.3 2-.7 2.8-.9.9-.2 2.4-.7 3.4-1.1 4.6-1.8 5.3-1.9 7.4-1.3.7.2 2.2.3 4.1.3 5.4 0 5.4 0 9 1.4 3.7 1.4 9.4 5.6 9.4 6.9 0 .2.1.3.2.3.5 0-1.3-2.8-2.7-4.3-.5-.5-.8-.9-.7-.9.5 0 2.6 1.8 3.2 2.8.3.4.4 0 .4-1.4V74l.3.8c.3.7.6 2.1.6 3.2 0 1.4.8-1.2.8-2.7 0-2.2-3.1-6.2-6-7.6-.3-.2-.8-.5-1.1-.8-.5-.5-2.5-1.6-3.5-1.9-.4-.1-.4-.1-.3 1.1.2 2.2-.4 3-2.3 3.1-.4 0-.8.2-.9.3-.1.3-.7.3-1.6.1-.9-.2-.6-.5.5-.5 3.2 0 4.2-1.1 3.2-3.6-.6-1.6-.9-1.8-.9-.5 0 .7-.1 1.1-.3 1.4-.5.5-.9.4-.5-.1.3-.4.3-.8 0-1.7-.9-2.8-2.6-4.9-4.3-5.2-.3-.1-1.4-.3-2.4-.5-3.1-.7-7.1-.1-8.8 1.3-.3.3-.7.4-.8.4-.3-.2-1 .4-1 .8 0 .1-.2.3-.4.3-.3 0-.4-.1-.3-.7.1-.6.1-.7-.5-.6-1 .2-1.1.2-.9 1 .1.4.1.8.1 1 0 .1.1.2.2.2s.1.1.1.2c-.1.1.6.9 1.5 1.9 1.5 1.5 1.6 1.8.3.9-.3-.2-1.1-.7-1.8-1.1-2.3-1.2-5.2-4-6.2-5.9-.7-1.4-.7-1.7 0-2.5.8-.9.7-1-.3-.8-.6.1-.9.1-.7-.1.5-.5 2.6-.5 4 0 .6.2 1.6.5 2.3.7 1.2.3 4.2 1.8 4.9 2.4.3.2.4.2.8.1.8-.4-2.9-3.7-5.1-4.5-3.7-1.3-4.2-1.4-9.6-.7-1.2.1-2.2.2-2.3.1.3-.9-2.9-1.8-4.1-1.5m4.3.1c0 .1.2.4.4.5.2.2.4.3.4.3 0-.1-.2-.3-.4-.5-.3-.3-.4-.4-.4-.3m-93.8 1.7c0 .3-.4.1-.5-.2 0-.1 0-.2.2-.1.2 0 .3.1.3.3m73.9 0c.2.2.7.5 1.2.7.6.3.7.3.4.1-.2-.2-.7-.5-1.2-.7-.5-.3-.6-.3-.4-.1m11.8 1c.5.4 1.2 1.8 1 1.9-1.4 1.2-6 2-6 1.1 0-2.2 3.4-4.2 5-3m26.4 1c0 .3 1 1.2 1.3 1.2.4 0 .2-.7-.3-.9-.2-.1-.4-.3-.4-.3s-.1-.1-.3-.1c-.1 0-.3 0-.3.1m-53.4 2.5c.5.4 4.6 1.4 4.2 1-.1-.1-1.1-.4-2.3-.7-1.4-.3-2.1-.5-1.9-.3m-30.2.1c.2.1.1.2-.3.1-.7-.2-.8-.3-.3-.3.2 0 .5.1.6.2m12.3.3c-.1.1-1.5-.2-1.4-.3.1-.1.4-.1.8.1l.6.2m60.4-.1c0 .1.2.3.4.5l.4.4-.3-.5c-.4-.6-.5-.7-.5-.4m-53.2.2c.4.2.4.2 0 .2-.2 0-.5-.1-.5-.2-.3-.2-.1-.2.5 0m2.8.7c-.4.1-1.7-.5-1.7-.7 0-.1.5 0 1 .2.5.3.8.5.7.5m.9-.5c.4.2.9.5 1 .7.2.2.4.3.5.3s.2.1.2.2.1.2.3.2c.2 0 .3.1.3.2 0 .3-.2.2-1.2-.4-1.7-1.1-2.7-2.1-1.1-1.2m-4.6 1.5c1.1.3 1.4.4.8.3-.5 0-1-.1-1.2-.2-.2-.1-.5-.1-.9-.2-.3-.1-.7-.2-.8-.3-.2-.2-.1-.2.1-.1s1.1.3 2 .5m25.9-.4c-.1.1-.1.3-.1.4 0 .2.1.2.2.1s.2-.3.1-.4c0-.2-.1-.2-.2-.1m43.8 1.1l1.7.5-.1 1.1c-.1 2.2 1.9 3.4 3.3 1.9.3-.4.4-.4.8.1.3.3.6.5.7.5.6 0 1.3 1.4.9 1.8-.5.6-5.1.4-7.1-.3-4.7-1.7-7.5-4-6.7-5.3.5-.8 4.3-.9 6.5-.3m-30 .5c-.3 2.1 1.9 3.7 3.9 2.9.8-.4 1.1-.3.6.1-3.1 3.1-7.6-.1-4.8-3.4.4-.5.4-.5.3.4m-52.2-.2c.4.2-1.7 0-2.2-.2-.2-.1.1-.1.8 0 .6 0 1.2.2 1.4.2m78.8 0c-.6 1 .1 2.2 1.3 2.1 1.1 0 1.3-.2 1.3-1.3s-.2-1.3-1.5-1.3c-.7.1-1 .2-1.1.5m-5.5.9c.1.3 0 .4-.1.4-.2-.1-.4-.9-.2-.9.1 0 .2.2.3.5m-69 1.3c0 .1-.2.2-.5.2h-.5l.5-.2c.3-.1.5-.2.5-.2v.2m1.7-.1l-.8.2c-.4 0-.8 0-.8-.1s.4-.2.8-.2.8 0 .8.1m55.6.8c-.9 1.6.6 3.4 2.6 3.1.8-.1.6.2-.3.4-2.8.8-4.5-1.4-2.8-3.6.6-.6.9-.6.5.1m-28.8.4c0 .1.3.2.6.3s.9.2 1.2.2c.3.1.2-.1-.4-.3-1-.4-1.4-.4-1.4-.2m-36.8.5c.3.3.4.5.3.5-.2 0-1.1-.7-1.1-.9.1-.2.3 0 .8.4m171.8 1.2c.3.9.7 2.7.9 4.1.2 1.4.5 2.6.5 2.8.1.2-.4.8-1.2 1.6-1.9 1.9-4.1 5-5.1 7-.5 1-.9 1.8-1 1.8-.4 0-1.2-6.8-1.5-12.4l-.1-2.5 2.5-1.8c1.9-1.4 2.7-1.9 3.4-2l1-.2c.1 0 .3.7.6 1.6m-137.7-.5c-.8.4-1.4.7-1.3.8.3.3 2.9 0 3.7-.4l.9-.5-.5-.3c-.7-.5-1.2-.4-2.8.4m-32.8.3c.5.5.4.6-.1.2-.2-.2-.5-.4-.5-.4s0-.1.1-.1.4.2.5.3m148.2 2.3c1.3.4 2.7.7 3.2.8 5.3.7 5.1.6 4.5 2.2-.3.7-1.6 3.8-3.1 7.6-2.4 5.9-2.2 5.5-2.8 4.8-.4-.5-.8-1.9-1.8-5.8-.4-1.7-.9-3.5-1.1-3.9-.7-1.7-1.8-6.6-1.5-6.5.2.1 1.4.4 2.6.8m-42.4 1.9c1.5 1.8 1.7 2.2 2.1 2.9.2.4.5.8.6 1 .1.2.4 1 .7 1.9.5 1.9.7 2.2 1.2 2.2.4 0 1.6 1.2 1.6 1.6 0 .1-.3 0-.6-.2-1.4-.8-1.5-.6-.7 2.2.3 1.3 1.2 2.4 1.9 2.4.1 0 .6.4 1.1.9.9.9 1.5 1.8 1.2 1.8-.1 0-1.2-.7-1.8-1.2-.2-.2-.6-.4-1-.5-.6-.1-.6-.1-.2 1 .2.5-.1.2-.8-.8-.4-.6-1-1.2-1.4-1.5-.4-.2-.8-.7-1.1-1.1-.5-.8-1.5-1.4-2.2-1.4-.2 0-.8-.3-1.2-.7-.4-.4-1.7-1.4-2.7-2.2-1.1-.9-2.3-1.8-2.7-2.2-1.9-1.6-4.2-2.6-7.9-3.7-1.4-.4-7.1-.6-9.2-.3-.9.1-2.5.3-3.6.4-3.3.3-5.9 1.3-6.5 2.4-.3.5-.1.7.7.4.4-.1.7-.2.9-.1.3.1-1.6 2.9-2 3.1-.3.1-1 1.5-1.4 2.8-.3 1-.5 1.1-.7.3-.1-.6.2-2.4.6-3.5.2-.5.2-.5-.1-.4-.8.4-2 2-2 2.6 0 .4-.2 1-.6 1.5-.6.9-1.5 3.1-1.4 3.2 0 0 .5 0 1-.1 1-.2 1.4-.1.8.3-1.3.7-2.3 2.5-2.3 4.1 0 .7 0 .7 1-.1.9-.6 2.5-1 2.7-.6.1.1-.1.8-.4 1.5-1.4 3.3-1.6 6.7-.4 7.6.5.4.6.3.6-.5 0-1.3.7-2.8 1.8-3.9 1.6-1.5 1.8-1.4 1 .7-1.5 4.2-.5 6.4 2.6 5.9l1.4-.2v-.7c0-.8.5-1.8 1.3-2.5.6-.6 1.3-.7 1.1-.1-1.2 3 .1 4.6 3.6 4.5.7 0 1.5 0 1.8.1.8.2 1.3 0 1.5-.7l.2-.6.2.8c.4 1.3 1.9 2.5 4 3.2.4.1 1 .4 1.4.7l.7.5v-1.1c0-.6.2-1.4.3-1.7l.3-.7.1 1.2c.2 1.7.8 2.6 2 3 .5.2 1.1.4 1.3.5.2.1.7.3 1.1.5l.7.3v-.8c0-.5.1-1.1.3-1.3l.3-.5.1.5c.1 1.1.3 1.4 1.1 2.3.4.5 1.4 1.2 2 1.7.7.4 1.7 1.1 2.3 1.6 1.2.9 1.4 1 1.2.3-.2-1 .6-4.4 1.1-4.4.1 0 .1.2 0 .3-1 2.4.2 5.4 2.5 5.9.8.2 1.4.6 1.4 1.1 0 .7 6.4 2.2 9.3 2.3 1.3 0 2.6-.4 2.9-.8.1-.1.6-.3 1.1-.5.9-.3 2.1-1.1 2.1-1.4 0-.1-1.1-.1-2.5 0-3.3.2-4-.2-4.4-2.1-.2-1 .1-1.2.5-.3.6 1.3 2.2 1.8 4.5 1.2.7-.2.9-.2 1.4-.2.7 0 2.9-2.3 3.1-3.1.1-.4.2-.8.4-.9.3-.3.4-1.5.1-2.3l-.2-.6.6.5c.9.9 1.1 1.8.5 2.7-.3.4-.5.8-.5.9 0 .1-.4.5-.9.8-1.6 1.1-1.7 1.2-1.3 1.6.5.5 1.1.4 3-.3 2.9-1.2 4.7-3.7 4.4-6.2-.1-.7-.1-1.4-.1-1.6 0-.2 0-.8.1-1.2.2-1-.6-2-2.5-3-.7-.4-1.5-.9-1.9-1.2-.4-.3-1.2-.7-2.1-.9-1.6-.4-1.8-.6-.5-.6 1.2 0 1.7-.4.9-.7-.2-.1-.5-.4-.7-.7-.3-.5-3.1-3.1-3.4-3.1-.1 0-.2.4-.3.8l-.2.8c-.2 0-.8-.9-.9-1.1 0-1.1-1.6-3.2-3.7-4.9-.9-.7-.7-1.1.2-.4.3.2.6.4.7.4.1 0 .4.2.8.5 3.3 2.2-1.3-4-4.8-6.5-.8-.6-1.4-1-1.2-1 .3 0 3 1.3 3.5 1.7.6.4.5-.2-.2-1.1-.2-.3-.6-.9-.8-1.4-.8-1.4-3.1-3.6-4.1-3.9-.5-.1-.8-.3-.7-.4.3-.2 1.5 0 2 .2.6.3.5-.1-.3-1.2-.9-1.1-3-2.7-3.7-2.7-.4 0-.4 0-.1-.2.9-.5-3.2-2.3-5.4-2.3-.1-.2.2.4.8 1m29.7 1.1c0 1.2-.1 2.3-.1 2.6 0 .3-.1.8-.2 1.3-.1.4-.2 1-.2 1.4-.6 3.7-.6 3.3.3 4.4.9.9.9.9 3.1.3.7-.2 1-.4 1-.7 0-.3-1.8-5.9-2.2-6.9-.4-.9-1.2-3.2-1.3-3.7-.2-1.2-.4-.7-.4 1.3M93.7 74.6c-.2.1-.6.2-.8.2-.3 0-.3 0 .1-.2.6-.2 1.2-.2.7 0m68.7.2c-1.4.3-3.7 2.1-7.3 5.4-1.3 1.2-2.4 2.2-2.5 2.2-.2-.2 1.8-2.4 3.9-4.5 1.1-1 1.8-1.9 1.7-1.9-.6 0-5 4.5-7.6 7.9-.8 1-1.6 1.9-1.8 2.1s-.8.8-1.3 1.4c-1.1 1.2-.7.4.6-1.4.9-1.1 1.1-1.4 2.7-3.6 1.2-1.6 2.4-3.1 4-4.9.5-.5.8-1 .8-1 0-.3-1.3.3-1.8.8-1.1 1-1.4 1.2-.8.4.6-.9.7-.9.1-.9-.5 0-1 .5-3.7 3.8-1.1 1.4-2.2 2.6-2.3 2.8-.1.1-.5.7-.8 1.2-.9 1.7-2.9 4.6-3.4 5-.8.7-.6.2.3-1.1.5-.7 1.1-1.7 1.4-2.2 1.4-2.9 3.8-6.4 4.9-7.3.1-.1.2-.3.4-.6.5-.9-.6.1-1.7 1.7-.6.8-1.4 1.9-1.9 2.5s-1 1.3-1.3 1.7c-.3.4-.7 1-1.1 1.4-1 1.2-1.3 1.5-1.2 1.5.1 0 0 .2-.2.4-.8.9-.7.3.2-.7.5-.6.9-1.3 1-1.4.1-.3 1.8-2.9 2.9-4.4 1.1-1.6 1-1.5-5.1 3.5-4.1 3.3-7.6 5.9-8.4 6.3-1.8.8-2.7 1.3-4.9 2.8-3.5 2.4-7.7 4.9-7.8 4.7-.1-.1 3.1-2.5 4.5-3.5 1.7-1.1-.4-.5-2.6.8-3.9 2.3-12.4 5.8-12.4 5.1 0-.1 1.3-1 4.5-3 2.2-1.4 2.2-1.5-.2-1.1-1.5.3-6.1 2.5-7.3 3.5-.2.2-.7 2.1-.9 3.2-.2 1.3 7.3-.4 13.3-3.1 1.1-.5 2.1-.9 2.1-.8.2.2-6.9 4.8-7.3 4.8l-2 1.1c-2.3 1.4-4.7 2.5-4.9 2.3-.1-.1 0-.2.2-.4 1.9-1.4-3.5-1.7-5.6-.3-1.8 1.2-1 2 1.3 1.1 2.9-1.1 5.4-1.4 2.9-.3-.5.2-1 .5-1.1.6-.1.1.1.1.5-.1.3-.2.7-.3.8-.2.1 0-.3.3-.9.5-2.3.9-3.2 1.4-2.7 1.6.5.2-.1.4-1.7.8-.9.2-1.1.5-1.2 1.9 0 1 .9 1 3.4 0 1-.4 3-1.1 4.4-1.7 2.9-1.1 4.5-1.8 7.3-3.1 1-.5 1.9-.8 1.8-.7-.1.1-.5.4-1 .6-1.5.8-3.9 2.2-3.8 2.2 0 0 .8-.2 1.6-.5s1.6-.5 1.7-.6c.1 0 .5-.2.9-.3 1.1-.5 1.5-.6 1.5-.4 0 .2-2.1 1.4-3.8 2.2-.8.3-1.5.7-1.7.8-.2.1-1.5.8-2.9 1.5-2.9 1.5-3.1 1.6-1.4 1.1.7-.2 2.4-.7 3.8-1.2 4.1-1.3 8.8-3.3 11.7-5.1.4-.3 1.2-.7 1.7-1s1.2-.7 1.5-.9l.6-.4-.2.5c-.1.3-.3.5-.3.4-.1-.1-.2.1-.3.3-.8 1.1-7.7 5.4-13.2 8.1-1.1.6-2.2 1.1-2.4 1.2l-4.8 2.4c-6 2.9-7.4 4.2-6.9 6.4.2.7.2.7 1.1.1.7-.5 4.1-2.5 5.2-3.1.3-.2.9-.4 1.4-.6.4-.1.9-.3 1-.4.1-.1.2-.1.2 0s-.3.3-.6.5c-1.2.7-7 4.9-7.2 5.3-.6.8 3-1.1 7-3.7 4.1-2.7 4.2-2.8 7.5-4.4 2.6-1.3 6.8-3.7 7-4.1.1-.1.4-.3.9-.6 1.4-.9-5.7 5.7-8.2 7.5-.4.3-1.3 1-2 1.6-3 2.5-6.7 5.1-9.2 6.4-.8.4-1.4.8-1.4.9s.2.1.4-.1c.9-.5 1.6-.6 1.3-.2-.4.5-2 1.4-2.3 1.4-.3 0-.4.2-.4 1.3 0 1.6-.2 1.6 2-.6 1.7-1.6 2.9-2.7 3.8-3.1.3-.1.3-.1 0 .1-.6.5-3.3 3.8-4.2 5.1l-.9 1.4.4.3c.4.3.4.3.9-.1a152.42 152.42 0 0 1 9.1-7.5c2.8-2.1 4.9-3.6 5.4-3.8.3-.1.8-.5 1.3-.9.4-.4 1-.8 1.2-1 .2-.2.7-.7 1-1.2.6-.9 1.6-1.9 1.9-1.9.1 0 .4-.3.6-.7.3-.4.7-.9.9-1.2.2-.2.4-.5.4-.6 0-.1-.2 0-.4.2s-.7.5-1.1.6c-.7.3-2.8 1.7-3.5 2.4-.3.2-.4.3-.4.2 0-.1.7-.7 1.5-1.4s1.6-1.4 1.9-1.5c.2-.2 1-.8 1.7-1.3.7-.6 1.6-1.4 2.1-1.9s2.1-1.8 3.7-2.9c1.6-1.1 3.3-2.5 3.7-3 .5-.5 1.3-1.4 1.8-1.9s1.4-1.5 2-2.2c.6-.7 1.8-2 2.6-2.9 1.3-1.4 1.9-2.4 1.3-2.2-.2.1-1.5 1.1-3 2.6-.7.6-1.5 1.3-1.8 1.6-.3.2-1 .8-1.4 1.3-.5.4-.9.8-1 .7-.2-.1.6-.9 5.9-5.9 1.8-1.8 3.9-3.9 4.6-4.7.7-.8 1.3-1.6 1.4-1.6l1.4-1.6c3.9-4.9 6.9-8.1 8.2-8.8.7-.4 7.3-6.8 7.7-7.6.2-.4.1-.4-.9-.2m-70.6.2c-1.5.3-2 .4-2 .2s.8-.3 2-.3h.7l-.7.1m-2.7.4c-.4.1-1.3.2-2.1.3-.8.1-1.6.1-1.9.2-.2 0-.6 0-.8-.1-.2-.1.1-.2.9-.2.7 0 1.8-.1 2.4-.2 1.7-.2 2.3-.2 1.5 0m28.9.6c-.3.1-.4.2-.4.3.1.1 2.6-.2 2.7-.4.2-.2-1.8-.1-2.3.1m57 .2c0 .6 1 1.5 2.1 1.8 1.1.3 6.1.8 6.4.6.1-.1.2.3.3.7.4 2.5 2.1 3.8 4.6 3.5l.7-.1-.1.7c-.2 2.7 2.9 6.1 5.1 5.7.5-.1 1.7-1.5 1.7-2.1 0-.2.1-.5.2-.8.2-.4.1 2.8-.1 3.8-.1.7.4 2.2 1.2 3.2.4.5.6.9.6.9-3.7 0-6.5 1.1-7.4 2.9l-.4.8V97c0-.5.1-1 .4-1.4l.4-.7h-.9c-.5 0-1.6-.1-2.3-.3-2.2-.5-4.3 0-5 1-.1.2-.2.3-.2.2 0-.3.5-1.2 1-1.6.6-.5.5-.6-.6-1-.6-.2-1.7-.7-2.6-1.2-.9-.5-1.6-.9-1.7-.9-.1 0-.3-.2-.5-.4-.7-.7-1.8-.4-3.1 1.1-.2.2-.4.3-.5.3-.2-.2.2-.9 1-1.8l.9-.9-.4-.5c-.4-.6-1.1-3.5-1.3-5.4-.1-.7-.2-1.4-.3-1.4-.1-.1-.2-.5-.3-.9-.1-.8-.9-2.3-1.4-2.9-.5-.6.2-.4.8.1 1 1 1.4.7 1.2-1.1-.1-1.1-.1-1.6.1-1.6.3.1.4.3.4.5m-42.5-.1c-3.2.5-5.6 1.1-11.1 2.8-2.7.8-6.4 1.9-8.2 2.5-3.8 1.1-4.1 1.3-.7.6 2.2-.4 3.9-.8 4.4-.8.1 0 .5-.1.8-.2 2.4-.6 2.8-.7 4.1-.8.4 0 1.5-.2 2.3-.4 2.2-.4 2.9-.4 1.1.1-1.4.4-6.2 1.5-6.8 1.7-.2 0-1.2.3-2.2.6-1.1.3-2.3.5-2.7.6-.4.1-1.1.2-1.5.3-1.1.3-3.5.7-4.7.9l-2.2.4c-.6.2-2.2.4-3.4.6-3 .4-7.4 1-8.1 1.2-.3.1-.6.1-.7.2-1 .2-2.5.5-3.6.7-.8.1-1.5.2-1.8.3-3.9.9-5.8 1.1-10.2 1.5-1.3.1-3.2.4-4.3.7-2.5.6-4.9 1-7.4 1.2l-2 .1 2.3.3c2.7.3 5.4.4 7.6.2 5.6-.5 7.9-.3 3.3.2-2.7.3-2.6.3-2.7.4-.1-.1.1 0 .3 0 .3 0 .6 0 .9.1 2.4.5 4.6.5 6.3.2.3-.1.2 0-.1.1-.9.3-.8.5.2.7 1.4.2 4-.3 10.2-2 2.3-.6 3.9-.8 2-.3-.4.1-.9.3-1.2.4-.2.1-1.8.6-3.6 1.1-1.7.5-3.1 1-3 1.1.2.2 2.2.1 3.3-.2 1.3-.3 1.4-.4 4.6-1.3 1.2-.4 2.5-.7 2.7-.8.3-.1.8-.2 1.1-.3 3.3-1.1 5.8-1.8 5.9-1.7.1.1-2.1.9-2.4.9-.1 0-.6.2-1.1.4-.5.2-1 .4-1.2.4-.2 0-.6.2-.9.3-.3.1-.5.2-.5.2s-1.5.4-3.4 1.1c-1.9.6-3.4 1.2-3.4 1.2 0 .4 6.8-1.1 9.4-2.1.3-.1.7-.2.9-.3.2 0 .7-.2 1.1-.4.4-.2.7-.2.7-.2s.1.1.1-.1c.2-.3 1.6-.7 1.6-.5 0 .1-.2.2-.4.3-.2.1-.7.3-1.1.4-.4.2-.7.3-.8.3-.1 0-.4.2-.8.3-.4.2-1.8.7-3.3 1.2-3 1-3.2 1.1-.9 1.1 2 0 4.3-.6 7.2-1.7 1.1-.4 2.1-.8 2.3-.9.2 0 .7-.2 1.2-.5.5-.2.9-.3.9-.3 0 .1.2 0 .4-.2.5-.4.8-.4.6-.1-.1.2-1 .6-3.4 1.7-.4.2-1 .5-1.5.7-.4.2-.8.4-.9.4-.1 0-.4.1-.9.3l-.8.3h1.2c1.8 0 3-.4 9.4-3.3 2-.9 1.2-.2-.9.8-.9.4-1.8.9-2 1l-1 .5c-1 .4-.9.7.1.6 1.9-.3 4.6-1.2 7.5-2.6 1.9-.9 2.6-1.1 1.6-.4-.4.3-.9.5-1 .5-.1 0-.5.2-.8.4l-.6.4.6-.1c.3-.1 1.2-.4 1.9-.7 1.8-.9 3.7-1.5 3.7-1.4 0 .1-.8.5-1.8.9-2 .8-2 .8-1.9 1 .1.1 1.7-.4 3.5-1.1.4-.1 1.8-.8 3.1-1.5s2.4-1.1 2.4-1.1c0 .1-.5.4-1.1.7-.6.3-1.2.6-1.2.7-.1.1-.6.4-1.3.6-1.2.5-1.4.9-.3.5 1.7-.5 4.5-1.6 5.5-2.2 2.5-1.4 3-1.9 6.2-5.1 3.5-3.5 4-3.9 6.1-4.2 1-.1 1.5-.3 3.2-1.3 1.3-.8 1.1-.8-3.3-.8-3.5 0-4.2 0-4.6-.3-.1.3-2.8.1-4.1.3m68.7 1.5c-.3 1.2-.3 1.3.2.6.4-.6.5-1.5.2-1.5-.1.1-.3.4-.4.9m-85.4-.5c-.1.1-.8.4-1.6.8-1.6.7-1.6.9-.1.4 1-.3 2.1-.9 2.1-1.1 0-.3-.3-.3-.4-.1m136.4 5.4c.3 1.1.7 2.2.9 2.5.4.9.2.9-3.6-.4-.8-.3-1.5-.5-1.7-.5-.4 0-.4-.1.1-.9.5-.9 2.4-4.6 2.6-5.3.1-.4.2-.2.6 1.1.3.9.8 2.4 1.1 3.5m-2.6-1.2c-1.1 2.3-1.1 2.4-.7 2.5 1.7.5 2.2.6 2.2.7 0 .1.2.1.4 0 .3-.1.4-.2.3-.4-.1-.2-.2-.7-.3-1.2-.3-1.3-.8-3-1-3.2l-.9 1.6m-59.9-.1c-.2.5-.3.8-.4.7-.1-.2.5-1.6.6-1.6.1 0 0 .4-.2.9m-50.3-.3c-.9.8-2.6 2.7-2.2 2.5.5-.3 3.2-3 2.9-3-.1.1-.4.3-.7.5M271.8 83c.3 1.4.7 2.7.7 3 .1.3.4 1.3.8 2.2.4.9.7 1.8.6 1.8 0 0-.5.3-.9.5-.5.2-1.4.8-2 1.2s-1.5 1-1.9 1.3c-.5.3-1.2.8-1.6 1.2l-.8.7.4-1.1c1.9-5.7 2.9-8.8 3.4-11.5.6-2.3.6-2.3 1.3.7m-94.6-1.4c-1.1.2-1.1.2-1.1 2.1 0 2 .5 3.4 1.6 4.9 1.1 1.5 1.3 1.8.9 1.7-.2-.1-.3 0-.2.1.1.1.2.2.4.2s.3.1.3.2c0 .7 4.8 2.4 7.2 2.4 1.5 0 5.5-1.6 5.5-2.2 0-1.1-6.4-7.6-7.5-7.6 0 0-.1 1.2-.1 2.7 0 4.1-.5 4.8-1.7 2.4-.5-1-1.6-5.9-1.4-6.3.5-.7-1.5-1-3.9-.6m-8.1 1.3c-.1.5-.4 1.5-.7 2.3-.6 1.8-.6 5.1 0 6.2.3.7.3 1-.1.7-1-.6-2.6-4.1-2.6-5.6 0-1.4 2.3-4.4 3.4-4.4.2-.1.1.3 0 .8m94.7.5c-.1.6-.3 1.9-.5 2.9s-.6 3-.8 4.4l-.4 2.5-1-1c-1.5-1.5-1.7-1.8-1.3-2.6.4-.7 1.8-2.9 2.1-3.3.1-.1.1-.2.1-.2-.1 0 0-.1.1-.3.6-.7.3 0-.7 2l-1.1 2.2.7.8c.9.9 1 .8 1.2-1 .1-.7.3-1.9.5-2.6.2-.8.4-1.8.5-2.4.1-1.2.3-1.8.6-2.1.1-.4.1-.3 0 .7m-81 1.6c0 1.3.5 3.5 1 3.9.2.2-.1-.9-.3-1.2-.1-.2-.2-.9-.5-3l-.1-1.1-.1 1.4m-26.6 1c-2.1.6-2.7 3.5-1 4.4 1.1.5 1.3.3 1.5-1.5.1-.9.2-1.9.3-2.2.3-.8.1-.9-.8-.7m-32.4 2.8l-.6.4c-.3.2-.6.2-.6.1s.2-.2.4-.4c.6-.2.8-.3.8-.1m25.7 2.1c-1.1 1.4-1.6 3.7-1.7 7 0 1.4-.2 1.9-.4 1.1-.2-.7-.4-3.3-.4-3.8 0-.3 0-.5-.1-.5-.2 0-1.6 2.2-1.6 2.5 0 .1-.2.3-.4.4-.3.2-.4.6-.5 1.4-.6 4.7-.7 6.5-.8 9.6-.1 2.9-.1 3.8.2 4.8.2.6.4 1.5.4 1.9.1.4.2.9.2 1.1.6 2.2.6 2.6.5 2.7-.2.1-.6-.7-.6-1.2 0-.2-.1-.4-.2-.6-.6-1-2.1-8.1-2.2-10.7-.1-.9-.1-2.1-.2-2.8 0-.7-.1-1.4-.1-1.5 0-.4-.6.2-2.2 2.2l-1.3 1.7.1 1.6c0 .9.2 2.4.4 3.5.4 2.5.9 6.2 1 6.7 0 .2.1.5.2.6.1.1.2.6.2 1.1.1.5.3 1.5.5 2.3.4 1.7.9 4 1 4.7.1.5.3 1.9.4 2.3.9 4.6 5.9 18.4 7.6 21.3.9 1.5 2.9 5.2 3.6 6.4.4.8.8 1.5.8 1.6.1.1.2.3.4.6 1.1 2.2-3.5-5-5-7.7-.4-.8-.8-1.5-.9-1.6-.2-.2-1.2-2.6-2.7-6.1-.4-.9-1-2.5-1.3-3.6-.4-1.1-.9-2.7-1.3-3.6-.7-1.8-2.3-7.8-2.4-9.1-.1-.4-.2-1.2-.3-1.7-1.4-5.6-1.8-7.8-2.1-10.1-.1-.5-.3-1.9-.5-3l-.4-2.1.1 1.9c.1 2.2.2 3 .4 3.8.2 1.1.3 2.3.1 2.2-.2-.2-.6-1.9-1-4.5-.1-.8-.2-1.5-.3-1.6-.2-.4.1 3.5.4 5.4.2 1 .4 2.5.5 3.2.3 2 2.8 12.4 4.1 17.3.3 1.2 2.1 6.7 2.9 9 .3 1 0 .6-.6-.9-1.3-2.8-1.5-3.4-2.1-5.1-.3-1-.9-2.7-1.2-3.8-.4-1.1-.9-2.9-1.2-4l-.9-3.3c-.2-.7-.6-2.3-.9-3.5-.5-2.4-.6-2.8-.8-3.2-.2-.5-1-6.2-1.2-7.5-.1-.6-.2-1.9-.2-2.7-.2-2.4-.3-3.6-.5-3.6-.4 0-.6.6-.5 1.9.1.7.2 2.6.2 4.1.1 1.6.2 3.1.4 3.6.1.5.3 1.3.4 1.9.1.6.7 4.8 1.5 9.3 1.3 8 1.6 9.1 2.6 12.2.3.8.6 2.1.8 2.9 1.2 6 3.6 12.3 5.9 15.9.5.7.8 1.4.8 1.5 0 .1.4.9.9 1.6.8 1.2 1.6 2.9 1.4 2.9-.1 0-1.9-2.6-2.5-3.6-.4-.6-1-1.7-1.5-2.3-1-1.5-2.9-5-3.3-6.2-.2-.5-.6-1.5-.9-2.3-.3-.8-.6-1.7-.7-2-.1-.5-.2-.6-.3-.4-.2.3-.1.9.2 2 .1.3.4 1.4.7 2.3.3 1 .9 2.7 1.4 3.9.5 1.2.9 2.3.9 2.4s.1.2.2.2.2.1.2.2c0 .2.5 1.4 1.6 3.9.6 1.4 3.3 6.7 3.6 7.3.4.7 1.9 2.8 2 2.9.1.1.8 1.1 1.7 2.4s1.8 2.7 2.2 3.2c.6.9 1.1 1.5 2.1 2.7.2.2.9 1.1 1.6 1.8 1.4 1.6 5 5.3 5.9 5.9.4.3.7.6.9.7.9.8 4.8 3.4 5.9 3.9.9.4 1.4.8 1.7 1.3.3.5 1.9 1.9 2.3 1.9.1 0 .6.3 1.2.7.6.4 1.1.7 1.1.7s.7.4 1.5.9 1.6.9 1.9 1c.2.1 1 .4 1.6.7.6.3 1.6.7 2.2 1s1.2.5 1.4.7c.2.1 1.3.6 2.3 1 1.1.4 2.3.9 2.8 1.1.4.2 1.6.6 2.5.8.9.2 1.8.5 1.8.6 0 .1 1.2.2 2.6.2 2.9 0 4.8-.5 6.8-1.8.6-.3 1.2-.8 1.5-.9 1.1-.5 2.7-2.7 3.2-4.1.1-.4 0-.4-1 .3-1.8 1.2-4.3 2-7 2.3l-1 .1 1.1-.4c.6-.2 1.4-.5 1.9-.7 2-.7 4.5-2.1 5.2-3.1 1.2-1.5 1.9-5.5.8-4.4-.3.3-4.7 2.1-6 2.4-2.3.6-8.4.2-11.2-.7-1.7-.5-1.6-.6.2-.2 1.1.2 2.5.3 5.7.3h4.2l2.2-1.1c4.8-2.4 6.6-5.2 7-11 .1-1.6-.3-3.2-1-4-.2-.2-.4-.8-.6-1.4-.8-2.9-2.6-4.8-3.9-4.2-.8.4-1.9 2.6-1.7 3.5.3 1.9-2.5 3.7-5.6 3.7-.4 0-.9.1-1.1.2-.2.1-.9.2-1.5.3-.6.1-1.9.3-2.9.4-1.5.2-4.6.3-5.6 0-.2 0-.6-.1-1.1-.2-4.9-1-12.7-4.9-16.4-8.2-.3-.3-.8-.7-1-.9-.2-.2-.4-.4-.4-.6 0-.1.3 0 .6.4.3.3.8.7 1 .7.2.1.4.2.4.3 0 .1.1.2.2.2s.7.3 1.2.7c.6.4 1.5.9 2.1 1.2.6.3 1.2.6 1.3.8.4.3 1.6.7 1.6.5 0-.1-.1-.2-.2-.2-.2 0-2.7-1.7-3.6-2.4-.7-.6-.3-.5 1.7.6 5.2 2.8 8.7 4.1 11 4.3l1.6.1-1.2-.5c-2.8-1.1-4.3-1.9-5.7-3-1.4-1.1-1.5-1.3 0-.5 1.3.8 4.4 2 6 2.4.7.2 2.5.7 4 1.2 7.1 2.2 12.1.5 12.3-4.3.1-1.4 0-1.5-1-.6-1.2 1.1-2.5 1.4-1.4.4.2-.2.8-1 1.3-1.6l.8-1.2-.1-1.6c-.1-.9-.3-1.8-.4-2.1-.3-.7-1.6-1.4-1.8-1 0 .1-.3.5-.6.8l-.5.5.2-.7c.2-1 .1-3.1-.2-3.7-.6-1.1-3-2.3-3.6-1.8-.3.3-.3.1-.4-1.5-.1-1.8-.7-3.9-1.4-4.6-.4-.4-.6-2-.5-2.7.8-3.9-.9-10.8-3.4-13.4-.8-.8-.8-.8-1.2-4.3-.2-1.3-.4-2.5-.5-2.7-.1-.2-.2-.7-.2-1.1 0-.4-.1-1.2-.3-1.7-.2-.5-.6-2.6-1-4.7-.4-2-.8-4.2-.9-4.7-.1-.5-.2-1.1-.2-1.3 0-.2-.1-.3-.1-.2-.2.2-.7-.3-.5-.5.1-.1 0-.2-.1-.2s-.2 1.8-.2 5.2c0 6.5-.4 11.5-1.1 14.5-.1.6-.3 1.4-.4 1.9-.1.5-.2 1.1-.4 1.5-.2.4-.6 1.7-1 3.1-1 3.4-1.9 4.8-4.2 6.7-.8.6-.6.6 1.5.1 2.3-.5 3.1-1.1 5.1-3.7.1-.2.6-1.3 1-2.4.8-2.1.8-2.1.7-1-.2 1.5-1 4.4-1.6 5.7-1.1 2.4-4.8 4.1-8.5 3.7-1.8-.2-1.7 0 .7.8 2.3.8 1.2.9-1.4.1-.9-.3-1.7-.5-1.8-.4-.3.3 4 2.8 5.5 3 3.3.6 5.6 1 6.2 1 .3 0 .7.1.7.2.2.4 2.4.2 3.5-.3l1.1-.5-.4.6c-.7 1.2-1.3 1.4-3.3 1.4-3.1 0-9.1-1.4-10.8-2.4-.3-.2-1.2-.7-2.1-1.1-1.4-.7-1.9-1-4.2-2.8-.6-.5-1.2-.8-1.2-.8-1 0-7.6-8.2-10.7-13.2-2.7-4.4-4.4-7.4-4.7-8.1-.2-.5-.4-1-.6-1.3-.7-1.1-1.8-3.1-2.4-4.6-.7-1.7-3.3-9.5-3.5-10.7-.1-.4-.1-.8-.2-.8-.1-.2-.9-3.7-.9-4 0-.4.8 1.6 1.7 4.1.9 2.6 1.4 3.9 2.1 5.5.2.5.6 1.5.9 2.2.7 2 1.8 4.6 2.3 5.4.2.4.8 1.3 1.2 2.1 1.1 2.2 1.4 2.2.6 0-.7-1.9-1.8-5.1-2.5-7.4-.3-1.1-.7-2.3-.8-2.5-.1-.3-.4-1.2-.6-2.1-.2-.9-.6-1.8-.8-2.1-.2-.3-.6-1.1-.8-1.8-1.4-3.7-2.3-6.2-2.4-6.9-.1-.4-.2-1.3-.4-1.8-.2-.6-.3-1.2-.4-1.5-.1-.6-.2-1.1-.5-2.2s-.5-4.8-.3-4.6c.1.1.3 1 .5 2.1.5 2.5.4 2.1 1.3 5 1.6 5.7 2 6.3 2 3.8 0-1.8.1-3.7.3-5.6.1-.7.2-2.1.2-3 .1-1 .1-2.2.2-2.7.1-2.1.4-4.8.7-6.6.6-1.9.4-2-.7-.5m53.8 2.4c.5.9.9 1.7 1.1 1.9.3.3-.1.4-1.2.2-.1 0-.1-.2-.1-.5s-.2-1-.4-1.6c-.9-2.5-.7-2.5.6 0m-45.1-.9c-1.6.9-1.4 5.8.2 6.2.9.2 1.1 0 .9-1-.2-1.1-.2-3.8 0-4.7.1-.8-.3-1-1.1-.5m51.7 1c.1.4.4.9.7 1.2l.5.5-.7.1c-1 .2-1.1.1-1-1.4-.1-1.3.1-1.5.5-.4m-19.5.5c-.8.1-.8.1.5.2.8 0 1.5-.1 1.8-.2.5-.2-.9-.2-2.3 0m80.4 3.2c-.4 1-1 3-1.3 4.4-.8 3.1-.7 3-1.5.8-.4-1-.8-2-.9-2.3-.4-.8 0-1.3 2.8-3.7 1-.8.9-.4-.1.6-.5.5-1.2 1.3-1.6 1.9l-.7 1 .5 1.2c.3.6.6 1.1.7 1.1.3-.1 2.3-5.8 2.1-6.1-.1-.1.1-.4.2-.6.6-.7.5-.3-.2 1.7m6.1 2.6c.3 1.9.5 4.1.6 4.9l.1 1.4-3 .1c-3.6.2-3.4.3-2.6-1.5 1.2-2.4 2.5-5.2 3.4-7.4.7-1.6.9-2 .9-1.6.1.4.3 2.2.6 4.1m-70.7-2.2c-1.2 1.6-2.1 6-1.4 6.8.4.5.2.7-.3.3-.2-.1-.7-.3-1-.4-.3-.1-.6-.1-.7-.1 0 0 .1-.1.2-.3.2-.1.4-.7.6-1.2.7-2.8 2.2-5.8 2.9-5.8.1.1-.1.4-.3.7m-9.6 2.5c-.2.2-.5.4-.6.4-.7 0-.9.7-.3 1 1 .4 1.2.9.4.7-.4-.1-1-.1-1.4-.1-1 .1-1.8-.7-1.2-1 1.3-.9 3.6-1.6 3.1-1m17.5 1.9v1.6l1-.1c1.2-.1 1.2 0 0 .4-.6.2-1 .5-1.2.8-.2.5-.7.6-.9.2-.2-.5.7-3.2 1-3.2 0 0 .1.1.1.3m-46.2 1.2c.1.1.7.3 1.4.3.8.1 1.1.1 1-.1-.1-.1-.7-.3-1.4-.3-.9-.1-1.2-.1-1 .1m-65.1 1.2c-.2.5-.2.6.1.6.2 0 .3-.2.3-.6 0-.3 0-.6-.1-.6s-.2.3-.3.6m64.1-.3c-1.9.6-4 2-4 2.7 0 .4.7.5.8.1 0-.1.2.1.4.5.5 1.2 1.5 2.4 2.2 2.6.3.1.6.3.6.4 0 .1.4.2.8.2.9 0 1-.3.4-1-.2-.2-.4-.5-.4-.7 0-.3 0-.3-.2 0-.1.4-.2.3-.6-.3-.5-.8-.3-1.4.4-1.4.3 0 .4.1.4.5v.5l.3-.4.3-.4.7 1c1 1.5 1.6 2 2.6 2.4.5.2 1.1.5 1.3.7.3.3 4.8 1.6 5 1.5 0 0-.1-.4-.3-.8-.5-1-.6-2.5 0-2.8.4-.2.4-.2.3.3-.2 1 2.3 3.6 3.6 3.6.3 0 .7.2.9.5.3.3.8.5 1.3.6l.8.1-.4-.9c-.5-1-.6-2.9-.2-3.6.3-.6.6-.4.5.5-.1 1.1 1.2 3.6 2.3 4 .3.1.7.4 1 .5 1.8 1.2 10 1.9 14.1 1.3 2.1-.3 2.1-.3.3-1.1-2.2-1-2.7-1.2-3.8-2.2-.6-.5-1.7-1.3-2.6-1.8-.9-.5-1.7-1-1.7-1.1-.2-.3-2.1-1.3-3.4-1.9-1.5-.7-1.9-.7-3.8-.5l-1.3.1.7-.3.7-.3-.7-.4c-.4-.2-1-.4-1.4-.4-.4 0-1-.1-1.5-.3-.5-.2-1-.3-1.4-.2-.4.1-.9.2-1.3.2-.5.1-.8 0-1.2-.4-1.3-1.1-5.2-1.3-6.8-.4-.4.2-.7.3-.5.2.3-.3-.8-1.2-1.7-1.6-1.1-.1-2.7-.1-3.5.2m-33.6 2c-.3.3-.5.5-.5.4 0-.2.8-1.1.9-1 .1 0-.1.3-.4.6m77.1-.3c0 .1-.3.3-.7.4-1.8.5-2.7 1.5-2.7 2.9 0 1.2-.1 1.3-.4.5-.9-2.3-.5-3.1 1.9-3.7 1.2-.4 1.9-.4 1.9-.1m-19.2 5.2c.2.1.2 1-.1 1.5-.2.3-.4-.3-.4-1-.1-.7 0-.8.5-.5m84.7 0c-.2.1-1.8.6-3.3.9-.6.1-.6.1-.4 2.7.2 1.9.2 1.9 1.3.4.3-.5.7-.9.7-1 .1-.1.4-.6.7-1.2.7-1.3.9-1.6 1.3-1.5.3.1-.1 1.1-.8 1.8-.2.2-2.2 3.1-3.2 4.6-.3.5-.6-1.8-.6-5.4V111h.6c.4 0 .8 0 .9-.1.8-.1 3-.2 2.8 0m-142.2 1.6c.2 2.2.4 2.3.3.1 0-1-.1-1.7-.2-1.7s-.1.7-.1 1.6m21.2-.7c1.6 3 5.4 7.2 8.1 9.1.5.4 1 .8 1.1.9.1.1.2.2.3.2.3 0 1.5.8 1.5 1 0 .1-.2.1-.3 0-.2-.1-.9-.4-1.5-.7-3.9-1.7-8.4-5.1-10.2-7.7-.6-.8-.7-.7-.3.3 1.4 4 2 5.2 3.2 7.1 1.6 2.5 4.6 5.6 6.5 6.9.6.4 1.2.9 1.3 1 .4.5-3.2-1.5-4.3-2.3-.5-.4-1.4-1.1-2-1.5-.6-.4-1.4-1.2-1.8-1.8-.9-1.3-1-1-.4 1.2 1.5 4.9 6 11.1 9.4 13 2.2 1.3 2.5 1.4 2.3 1.5-.3.2-2.3-.5-2.8-1-3.6-3-4.9-4.2-5.5-4.9-1.6-1.8-2.8-3-3-3-.3 0-.3.5 0 .9.1.2.4.8.6 1.3 1.9 4.4 5.4 8.2 9.5 10.2 5.6 2.8 7.2 1.9 7.6-4l.1-1.6-.4.6c-.9 1.3-.9 1.2-.4-1 .4-1.7.6-6.5.4-6.5-.1 0-.2.1-.4.3-.3.3-1.2.4-1.2.1 0-.1.1-.2.2-.2.6 0 1.8-3.9 1.8-6.2 0-1 0-1-.5-.9l-.5.1.4-1.1c.4-1 .5-3 .2-3-.1 0-.5.2-.9.4-1.3.7-3.1.2-6.7-1.6-3.2-1.6-4-2.1-10.1-6.7-1.5-.7-1.6-.8-1.3-.4m66.6.9c-1.4.4-1.6.7-.7 1.3 1 .6 3.8 3 3.5 3-.1 0 0 .2.2.4.4.5.3.7-.2.3-.7-.7-3.4-2-4.8-2.2-.9-.1-.8 0 .6.7.7.3 1.5.8 1.8 1.1.3.3.6.5.6.5.2 0 1.2 1 1.2 1.2 0 .1-.6-.2-1.4-.7-1.8-1.1-2.1-1.1-.9-.1.5.5 1.7 1.5 2.5 2.4.9.9 2 1.9 2.6 2.4 1.3 1 3.3 3.1 4.1 4.2.3.5.8 1 .9 1.2.2.2.6.8 1 1.5.4.6.7 1.2.8 1.3.2.1.9 2.2 1.2 3.2.3 1.2-.1 4.3-.7 5.6-.6 1.3-.6 2.2.1 2.1.3 0 .5-.1.6-.3 0-.1.3-.4.5-.7.3-.3.5-.7.6-1 .1-.3.3-1 .5-1.7 1-2.9.7-7.4-.6-10-.3-.7-.6-1.2-.6-1.3 0-.1-.4-.9-1-1.8-.5-.9-1-1.7-1-1.8 0-.4 4.5 4.8 5.7 6.6 1.4 2.1 2.5 6.1 2.2 8.7-.2 2.2.4 3.2 1.1 1.8.7-1.4.6-6.5-.1-9.4-1.5-6.3-6.8-12.3-13.8-15.6-1.3-.6-2.9-1.4-3.6-1.7-.7-.3-1.5-.8-1.8-1-.3-.4-.4-.4-1.1-.2m47.3 4.5c0 1.5.1 3 .2 3.2.2.5-.1 3.2-.9 8.7 0 .3-.1 1-.2 1.6-.2 1.7-.8 4.1-1.4 5.6-.3.7-.7 2-.9 2.8l-.4 1.5.6.5c.3.3 1.1 1.4 1.6 2.3.6 1 1.3 2.2 1.6 2.6.3.4 1.3 1.9 2.1 3.2 1.7 2.7 3.5 5.1 4.3 5.8.5.4.7 1 .4 1-.3 0-3.6-3.9-4.4-5.1-.4-.7-1-1.5-1.2-1.8-.3-.3-.5-.6-.5-.8 0-.2-.4-.6-.8-1.1-.4-.4-1.2-1.4-1.7-2.2a7.7 7.7 0 0 0-1.5-1.8c-2-1.6-2-3.7 0-8.5.5-1.1.9-3 1.4-6.7.2-1.5.6-3.9.8-5.3.2-1.4.4-3.9.5-5.6.1-3.4.1-3.2.2-3.1.1.4.2 1.7.2 3.2m9.9 2.7c-.3 3.1-.3 3.4-.4 4.3 0 .6-.1.6-.4.4-.2-.2-1.3-.8-2.5-1.4-2.4-1.2-2.5-1.3-2.1-1.4.2-.1 1.4-1.4 4.7-5.3l.7-.8.1.8c.1.4 0 2-.1 3.4m-135.8-.6c1.1 3.7 3.4 8.9 6.4 14.3 2 3.6 2.8 5 3.5 6 .4.6.8 1.1.8 1.1 0 .1.2.3.3.5.2.2 1.1 1.5 2.1 3 1 1.4 1.8 2.6 1.9 2.7s.5.6.9 1.2c4.6 6 10.8 11.8 16.1 15 2.2 1.3 6.7 3.4 7.4 3.4.3 0 1 .3 1.6.6 1.2.6 3 .9 5.6 1h1.3l-.7.3c-1.2.5-4.8.5-5.8-.1-.9-.5-1.4-.6-1.4-.2 0 .1.1.2.2.2s.6.3 1.2.7c.6.4 1.3.8 1.6.9.3.1.5.3.5.4 0 .2-2.3-.8-4.2-1.8-.9-.5-2.8-1.5-4.3-2.2-4.3-2.2-7.6-4.6-10-7.4-1.4-1.6-1.4-1.7-1.8-1.5-.4.2-1.8-.9-3.1-2.4-.6-.7-1.4-1.6-1.7-1.8-.8-.8-3.5-4.2-5.5-7.1-1.1-1.5-2-2.7-2.2-2.7-.1 0-.3-.2-.4-.4-.1-.3-.2-.3-.2-.1 0 .2.1.5.3.7.2.2.3.3.3.2 0-.3.8 1.2.9 1.7 0 .2 0 .3-.1.2-.1-.1-.2-.2-.2-.4s-.1-.3-.2-.3-.2-.1-.2-.3c0-.2-.1-.3-.2-.3-.2 0-1.7-2.3-3.1-4.7-1.4-2.4-3.7-7.2-4.5-9.6-.4-1.2-1.2-3.3-1.7-4.6-1.1-2.8-2.7-8.4-2.6-9.3-.1-.6.6 1.1 1.2 3.1m64.1-1.6c0 .2.1.2.3.2.2-.1.3-.2.3-.3s-.1-.2-.3-.2c-.1 0-.3.1-.3.3m-68.5 1.9c.1.6.1.8 0 .5-.3-.9-.4-1.8-.2-1.7.1.2.2.7.2 1.2m38.9 2.9c0 2.3-.1 4.9-.2 5.8-.1.9-.2 3-.3 4.7-.2 5.6-.4 7-1.4 9.1-.4.8-.9 2-1.2 2.8-.7 2.1-1.9 3.8-2.8 4.1-.8.3-1.1.9-.5.9 1.2 0 2.4-.6 3.2-1.7 1-1.3 1.1-1.3.5.1-.8 1.8-.8 2 0 1.6 1-.4 3.5-5.5 4-7.9.1-.6.5-1.1.5-.6 0 2-2 7.4-3.3 8.9-.2.2-.3.4-.2.4.2.2 1.7-.9 2-1.4 1.9-3.3 2.4-3.4.9-.3-.9 1.9-.8 1.9.5 1.1 1.8-1.2 3-4.2 3.6-9.4.1-1 .3-2.4.4-3.2.4-3 .5-9 .3-13.5-.3-5.5-.7-4.7-.7 1.5 0 4.4-.6 10.2-1.3 13.8-.2.8-.4.4-.4-.5 0-.5.1-1.5.2-2.4.2-2.6.4-13 .2-14 0-.3-.1-1.1-.2-1.8-.1-1.1-.2-1.3-.5-1.4-.2-.1-.5-.2-.8-.2-.4-.1-.4 0-.4 1.9 0 4.1-.5 11.8-.8 12.1-.2.2-.2-.4-.2-1.9 0-3.2-.3-10.5-.6-12-.1-.4-.2-.7-.4-.7 0 0-.1.9-.1 4.1m-35.6-1.7c.4 1.7 1.1 3.6 1.5 4.4.1.3.5 1.3.8 2.3.8 3 1.5 4.9 1.9 5.4.2.3.4.6.4.7 0 .2 2.4 5.2 3.9 8.2.4.9 1.2 2.4 1.8 3.5.5 1.1 1.3 2.5 1.7 3.1.4.6.6 1.2.6 1.2-.2.2-.6-.4-1.4-1.8-.8-1.2-1.2-1.7-1-1 .1.2.2 1 .4 1.9.2.9.5 1.8.6 2.2.7 1.6-.2.8-1.1-.9-.2-.5-.6-1.2-.9-1.6-1.7-2.8-3.2-6-4.2-8.9-.5-1.4-1.3-3.8-1.9-5.3-1.2-3.3-2.4-7.3-2.9-9.9-.2-1.1-.4-2.2-.5-2.4-.2-.7-.3-1.3-.4-2.5-.3-1.4.1-.7.7 1.4m-18.7-1.4c-.9 1-1 1.2-.3.7.6-.4.9-.9.8-1.1-.1 0-.3.1-.5.4m5.5 1.1c-2.3 1.4-3.1 3.5-3.1 8.1 0 3-.1 3.7-.3 3.9-.2.1-.2.2-.1.2s.2.2.1.5c-.2 1.2 2.8-.7 4.2-2.6.8-1.1 2.4-4 2.3-4.4 0-.1.2-.6.5-1.2.6-1.3.5-1.6-.2-3-.9-1.9-2.1-2.3-3.4-1.5m-6.9.7c-.3.3-.3.5-.2.4.3-.1 1-.9.8-.9-.1 0-.4.2-.6.5m31.4-.2c0 .2.3.9.6 1.5.6 1.1.6 1.2.5.4-.3-1.5-1.1-3.1-1.1-1.9m-32.5 3c-1.7.7-1.9 1.7-1 4.5.6 1.6.8 1.9 1.4 1.9.9 0 1.1-.7 1.7-5.3.2-1.1-.7-1.6-2.1-1.1m152.8 4.3c.7.4 2 1.2 2.8 1.7l1.5 1-.9.4-1.8.7c-.5.2-1.6.6-2.5 1-.9.4-1.6.7-1.7.7-.1 0-.1-.3.2-1.8.2-1.1.4-2.9.4-3.8 0-1 .1-1 2 .1m-160.4-.2c-1.6.8-5.9 5.2-6.1 6.3-.5 2.4.8 6.4 2.8 8.8 1.4 1.6 1.6 1.6.8-.2-1.2-2.6-1.5-7.6-.5-9.9.8-1.9 2.8-4.3 3.1-3.7.2.3.4.1.9-.9.5-1.1.4-1.2-1-.4m158.9 1.7c0 .7-.1 1.6-.1 2.1-.1.8-.1.8.2.7.2-.1.4-.2.6-.2.1 0 .2-.1.3-.2.1-.1 1.9-.8 3-1.2.5-.2.6 0-1.9-1.3l-2.1-1.1v1.2m-155.7 1.4c-.6 1.7-.7 2.7-.5 4.5.2 1.2.2 1.2 1.2-.5 1.1-1.8 1.2-2.6.6-4.3-.5-1.8-.5-1.7-1.3.3m13.5 1c-.4.4-1.2 1.2-1.8 1.7-2.1 1.9-3.2 7.4-2 9.6.5.9 2.4-.7 4-3.2l.7-1.1v-3.9c0-2.1 0-3.9-.1-3.9-.1.1-.5.4-.8.8m-7.9-.2c-1.8 1.1-2.1 4.9-.7 8.1.4.9.7.8 1-.3.1-.5.4-1.3.6-1.9.5-1.2.5-1.8.3-4.5-.2-1.9-.3-2-1.2-1.4m11 1c-1.9 4-1.5 8.7 1 11.3 1.6 1.6 1.9.5.9-3.6-.7-2.8-1-4.4-1.3-7.2l-.2-1.4-.4.9m147 .9c-.2.6-.2 4.3 0 6.2l.1 1.7-.6-.3c-.3-.2-1.2-.6-1.9-1.1-.7-.4-2.1-1-3-1.3-2.3-.7-2.4-.5 1-2.7 1.7-1.1 2.7-1.7 3.6-2.4.9-.5.9-.5.8-.1m-83.1 4.5c.3.4.6.9.8 1.1.5.5 1.6 2.1 3.2 4.5 1.5 2.3 2.7 3.9 3.6 5 .7.7.8 1.2.3.8-.8-.6-4.4-4.5-5.2-5.6-.8-1.1-4.5-5-4.1-4.4.3.6 3.9 6.2 4 6.2.1.1.2.3.4.6.3.6-.2.2-2.7-2.2-1.6-1.5-1.6-1.5-1 .8.4 1.5.5 1.7 2 3.5 3.5 4 97.1 110.7 98 111.6.5.5 1.9 2.2 3.2 3.6l2.3 2.6 1-1c1.3-1.2 1.5-1.4 2.2-1.8.9-.5.9-.3-.1.7-2 2.1-4.4 7.6-3.6 8.1.1.1.2.5.2.9 0 1 .3.8.4-.2.1-2 .6-2.4.6-.5 0 2.6.6 4.2.6 1.8 0-1 0-.9.3.8.2 1 .3 1.8.2 1.9-.3.3-1.3-.2-2.1-1.3-1-1.3-1.1-1.4-1.5-.6-.8 1.6.2 3.1 3.3 4.8l.8.4-.9-.1-.9-.1.6.6c.3.3.9.7 1.2.7.3.1.6.2.6.3 0 .4-1.4.1-2.4-.4-1.4-.7-1.3-.8-1.9.3a7 7 0 0 1-1.4 1.6c-1.5 1.2-1.9 3.1-1.6 6.1.2 1.9 2.4 4.1 4.6 4.8.6.2 1 .4.9.5-.1.2-2 .2-2.8 0-1.6-.5-.3 1.4 2.7 3.8 2.4 1.9 2.5 2 4.5 2.6 1.1.4 2.1.7 2.1.8 0 .4-1.3.8-2.1.7-1.4-.2-1 .1 1.8 1.2 2.9 1.1 3.5 1.2 5 .7.5-.2 1.3-.4 1.6-.4.8-.1 2.6-1.6 2.2-1.8-.1-.1-.2-.3-.2-.6 0-.4-.1-.5-.4-.4-.5.1-.5-.1-.1-.8.5-1 .4-1.9-.4-2.6-.7-.7-.8-.7-1 .7-.3 2.1-1.1 2.9-1.1 1.2 0-2.9-.8-4.7-1.2-3-.4 1.3-.7 1.8-.7 1.2 0-.2.1-.4.2-.4.2 0 .2 0 0-.2-.2-.1-.7-2-.5-2 .1 0 0-.1-.1-.2s-.3-.7-.5-1.3c-.3-1.1-1.2-2-2.1-2.3-.2-.1-.7-.3-.9-.5s-1-.4-1.6-.5c-1.7-.2-1.8-.4-.5-.9 1.4-.6 2.9-1.7 3.2-2.5.1-.3.3-.6.4-.6.2 0 1-1.9 1-2.5 0-.5 0-.5-.6.2-.6.8-1.8 1.9-1.8 1.7 0-.1-.2 0-.3.1-.2.1-.1 0 .3-.4 2-2 2.5-6.1 1.1-8.9-.7-1.4-2.2-3-2.7-3-.1 0-.5-.2-.7-.5-1.1-1-1.3-.9-1.2.6 0 .7 0 1.3-.1 1.3-.2 0-.4-1-.4-2 0-.4-.1-1.6-.2-2.7-.3-2.6.6-6.4 1.6-6.4.1 0 .1.1.1.2-.6 1-1.1 6.3-.6 6.5.2.1.3.3.4.5.1.3.3.4.7.4.5 0 .9.3 2.1 1.5 2.3 2.3 2.7 2.9 3.6 5.4.5 1.5 1.2 2.5 1.9 2.8.4.1 1.9 1.8 3.9 4 1.8 2.1 3.4 3.8 3.5 3.8.9 0 2.4-8.4 1.9-10.4l-.2-.6.6.7.6.7 1.1-1.2c1.2-1.4 1.3-1.3.5.8-.5 1.3-1.1 4.2-.9 4.4 0 0 .4-.2.7-.5.8-.7.7-.4-.1 1.3-.4.8-.9 2.2-1.2 3.3-.3 1-.7 2.3-.9 2.7-.2.5-.3.8-.3.8.2 0 1.6-.9 2.5-1.6l.9-.8-.1.6c0 .3-.2.7-.3.9-.1.2-.2.4-.1.4.1.1-2.5 1.6-2.9 1.6-.6 0-3 4.3-3.2 5.9l-.1 1.1.7-1.4c.4-.8.8-1.6 1-1.8.2-.2.6-.7.9-1.1 1-1.4 2.7-1.9 3.8-1.2.4.2.5 1.6.2 1.5-.2-.1-.4.1-.6.8-.5 1.4-1 1.7-.9.6.1-1.2-.1-1-1.3 1-1 1.8-3.8 5-3.8 4.3 0-.2.1-.3.2-.3.2 0 2.6-4.7 2.6-5.1 0-.7-.7.1-1.9 2.1l-1 1.5c-.2.2-.4.5-.4.6 0 .2-.7 1.2-1.1 1.6-.1.1-.5.8-.8 1.4-.3.6-.8 1.4-1.1 1.7-1.1 1.3.4 1 2.5-.5 1.6-1.1 2-1.2 1.4-.5-.9 1 .6.6 2.1-.6 1.5-1.1 2.3-2 3.9-4.5.9-1.3 1.5-2 1.4-1.7-.1.3-.2.8-.2 1-.2.9.4.5 1.2-.6 1.1-1.7 1.3-2.9 1.1-4.6-.2-1.9.1-2.3.4-.6.1.4.2.7.2.7.2 0 .6-.7.6-1 0-.2.3-.7.6-1.1.3-.4.8-1.3 1-1.9s.6-1.8.9-2.5c.3-.8.5-1.8.5-2.3 0-.5.1-1 .2-1 .1-.1.3-.6.4-1.2.3-1.4.1-1.7-.8-1.2l-.6.3.5-.8c1.4-2.2 1.4-3.5-.3-6.2-1-1.7-2.9-2-5.1-.9-.8.4-.9.2-.1-.3l.6-.4-.5-.5c-.4-.4-.7-.5-1.8-.6-.7 0-1.5-.1-1.7-.1-.8-.1-4 .3-4.2.5-.1.1-.2.6-.3 1.1l-.2.9-37-41.1c-20.3-22.6-37.8-42-38.8-43.1-1-1.1-3.2-3.4-4.7-5.3-3.9-4.5-3.9-4.5-4-4.9-.1-.2-.4-.7-.7-1-.3-.3-.8-.9-1.1-1.3-.3-.4-.7-.8-1-.8s-1-.8-1.7-1.5c-.7-.8-5.6-6.3-10.9-12.2-5.3-5.9-9.8-11.1-10-11.4-.4-.7-.7-1.2-1.1-1.7-.2-.2-.6-.7-1-1.2-.8-1-3.4-3.6-5-5-.6-.5-1.9-1.9-2.9-3s-1.8-2-1.9-1.9c0 0 0 .2.2.4.4.4 1.2 1.7 1.1 1.8 0 0-1-.9-2.1-2-1-1.1-1.5-1.5-1.1-.9m-38.3 1.6c.3.6.9 1.6 1.2 2.1.3.5.7 1.2.8 1.5.1.3.3.5.4.5s.2.1.2.2c0 1.3 4.5 5.5 7.8 7.2.7.4 1.5.8 1.8 1 1.8 1 4.4 1.9 5.1 1.9.7-.1.6-.4-.2-.7-1.2-.4-2.5-1.1-3.2-1.6-.4-.3-1.4-.9-2.2-1.4-2.7-1.5-8.4-6.6-8.8-7.8-.1-.2-.3-.4-.6-.6-.3-.1-.9-.9-1.5-1.8-1.3-1.8-1.6-2.1-.8-.5m-41.8-.5c-.2.3-.2 1.3-.2 3.5.1 4 .5 5.1 1.2 3.1.2-.5.6-1.5.8-2.2.6-1.6.6-2.2.1-3.1-.2-.4-.4-.8-.4-.9.1-.8-1.2-1.1-1.5-.4m-13.8.3c-.2.2-.3.3-.3.4.1.1.3 0 .5-.2s.3-.3.3-.4c0-.1-.2 0-.5.2m33.9 1.1c0 .5.2.9.4.9.1 0 .1-.2.1-.4-.2-.6-.5-.9-.5-.5m-30.8.7c0 .7.6 3.3.8 3.1.1-.1-.1-.9-.3-1.8-.3-.8-.5-1.4-.5-1.3m24.1.4c-3.5 3.8-4.8 7.9-3.6 11.5.7 1.9 2 1.4 3.7-1.6l1-1.7v-2.1c0-2.4.2-2.8 1.2-2.7.7.1.8 0 .3-.7-.5-.6-1.6-2.9-1.6-3.2.1-.3-.4-.1-1 .5m-22.3.7c.3.6.3.9.1 2.1-.5 3-.1 5.4 1.3 7.5.5.8.6 1.1.5 1.4-1.2 3.3-.3 7.5 2.4 10.5 1.3 1.5 1.5 1.5.7-.2-1-2.1-1.2-3.5-1.2-6.4l.1-2.4-.7-.8c-1.1-1.2-1.1-1.7 0-1 1.5.9 1.6.5.3-2.3-.8-1.7-.9-2.2-1-3.6-.1-1.5-.1-1.6-1.2-3.4-1.2-1.9-1.8-2.6-1.3-1.4m41.4 1.4c1.1 2.3 2.4 4.8 2.5 4.7 0-.1-.1-.6-.3-1.3-.2-.6-.3-1.4-.3-1.7 0-.3-.1-.8-.3-1-.3-.4-.3-.3-.2.6.2 1.2 0 1-1.1-1.1-.9-1.9-1.2-2-.3-.2m-28 .1c-.4.9-.5 1.3-.5 3.8 0 1.5 0 2.6.1 2.4.1-.2.3-.1.8.5.9 1.1.9 1.1 1.5-.3.9-2 .9-3.9-.1-5.9-1-1.8-1.2-1.9-1.8-.5m16.4-.3c-.1.1 0 .4.1.7.1.3.2.4.3.3 0-.4-.3-1.3-.4-1m-1.7 2.2c-1.1 1.3-1.1 6.4-.1 10.2.4 1.5.4 3 0 2.7-.4-.3-.6.1-.2.5.7.7 3.1-2.2 3.5-4.3.1-.3-2.7-8.9-2.9-9.2-.1-.1-.2 0-.3.1m160.2 1.1c.1.6.3 1.5.4 2.1.1.6.3 1.2.3 1.5 0 .2.1.4.2.4s1.5.9 3.1 1.9c3 2 8.5 5.2 8.8 5.1.1 0 .1-.6 0-1.3l-.2-1.2-1.4-.9c-7.2-4.8-8.1-5.5-10.3-7.6l-1-1 .1 1m-78.6-.3c-.6.2-1.4.5-1.9.7-1.1.4-1.1.3.3 4.3 1.2 3.7 1.5 4.2 2.1 4.6.5.4.8.4.6.1-.2-.4-.6-2.3-.5-2.2.1.1.4.7.6 1.5.8 2.4 4.5 7.2 4.6 6 .1-.5-.7-4.1-1.1-5.3-.2-.5-.3-.9-.4-1 0-.1 0-.2-.1-.2 0-.1-.1-.2-.1-.2 0-.1-.1-.3-.2-.5-.3-.7-.3-.9-.1-1 .1-.1.2 0 .2.1s.4 1.1.8 2.2 1.1 3.2 1.4 4.7c.5 2.1.8 2.8 1.2 3.2l.5.5v-.5c0-.3-.1-1-.2-1.6-.3-1.5-.4-4.3-.2-4.2.1.1.2.5.3 1 .1.5.2 1.1.2 1.3 0 .2.2 1.3.3 2.3.3 2.1.4 2.6 1.4 3.6.9 1 3.1 3.6 3.9 4.8l.7 1 .1-3.6.1-3.6.2 2.1c.1 1.2.2 3 .3 4 .1 2 .3 2.4 1.7 4l.7.8v-2.5c0-1.5.1-2.5.2-2.6.1-.1.2 0 .2.1s.1.5.2.8c.1.3.2.9.2 1.3 0 2.1.2 3.9.5 4.4.6 1 .7.5.7-3.8 0-2.2 0-4.1.1-4.2.1-.1.2.2.2.7.2 5.7.6 8.9 1 9.4 2.7 3.1 4.1 4.7 5 5.8 1.2 1.5 8.8 9 9 8.8.1-.1.3-.5.5-.8.2-.4 1-1.6 1.8-2.8.8-1.2 1.4-2.2 1.4-2.3 0-.1.1-.2.3-.3.3-.1-.3 1.1-1.6 3.7-.9 1.7-.7 1.7.7-.1.6-.8 1.7-2.2 2.4-3.1 2.4-3.1 2.7-3.6 3.9-5.4 2.3-3.7 1-.2-1.5 4.2-1 1.7-2.3 4.4-3.3 6.7-.3.6-.8 1.5-1.1 2.1l-.7 1 .5.5c2.1 2.4 2.9 3 2.9 2.2 0-.2.2-.5.4-.7.2-.2 1.1-1.3 1.8-2.5 1.7-2.6 2.2-3.2 1.7-1.7a99.6 99.6 0 0 1-2.4 5.6c-.6 1.1-.6 1.1-.2 1.4.5.4.5.4 1.3-1.2 2.2-4.6 3-5.2 1.1-.9-.7 1.5-.4 1.4.7-.2.6-.8 1.3-1.9 1.7-2.4.9-1.2 1.6-2.3 2.5-4 .5-.9 1-1.7 1.2-2s.5-.6.6-.8c.1-.2.2-.3.2-.2 0 .1-.2.5-.5.9s-.5.8-.5.9c0 .1-.1.4-.2.5-.1.1-.3.4-.3.6-.1.5-1.3 3.2-1.5 3.5-.1.2-.3.4-.3.4s-.3.7-.7 1.4l-.7 1.2.9-.9c.5-.5 1.7-1.8 2.6-2.9 3.1-3.6 4.3-4.8 2.7-2.5-.2.3-.8 1.2-1.2 1.9-.8 1.4-5.8 7.9-6.7 8.6-.6.5-.2 1.1.5.6 2.5-1.9 4.7-4.4 8-9.3.5-.7.9-1.2.9-1.2.1.1-1.3 2.8-1.9 3.8-.2.3-.5.9-.7 1.3-1.6 2.8-2.3 3.8-3.8 5.5-1.5 1.7-1.5 1.5.5 3.6 1.8 1.9 2.2 2.1 2.7 1.1.1-.3.3-.5.4-.5.1 0-.1.3-.3.8-.5.8-.6 1.4-.2 1.5.5.2 4.6-4.2 4.6-4.8 0-.1.1-.2.2-.2.4 0-.6 2-2.1 4.1-1.4 2 .5.2 3.2-3 .4-.5.9-.9.9-.8.3.3-1.9 4-3.5 6-.5.6-.8 1.1-.8 1.2 0 .2 3.5 3.6 3.7 3.6.6 0 3.8-5.5 3.6-6.3l-.1-.6-.8.9c-1.1 1.3-1.2 1.2-.3-.6l.8-1.6-.3-1.2c-.6-2.2-.6-3.3.1-4.8.9-1.9 1-3 .2-4.3-.7-1.3-.8-1.3-1.4 0-.6 1.2-1.3 2-1.4 1.8-.1-.1 0-.2.1-.4 1.1-1.5 1.4-4.2.6-5.4-.3-.5-.6-1-.6-1.1s-.2-.7-.5-1.3l-.5-1.1.4-1.5.4-1.5-.6-1a74 74 0 0 1-2.3-4.2c-1.7-3.3-2.6-4.7-4.2-6.3-.5-.5-1.2-1.2-1.5-1.6-.6-.7-.7-.7-1.9-.7-1.6 0-1.9-.1-1.9-.7 0-.4-1.9-3.3-2.3-3.6-.1-.1-.3-.3-.4-.6-.9-1.6-6.6-7.6-8.8-9.2-1.3-1-7.4-4.1-7.5-3.9l-.2 2.7c-.2 4.1-.5 8.1-.7 9.5-.1.7-.3 2.2-.4 3.4-.1 1.2-.3 2.1-.4 2.1s-.1-3.1-.1-6.8c0-7-.2-9.2-1-12.6-.4-1.6-.6-1.7-2.4-1.7-1.6 0-1.7.1-1.7 2.1 0 1.7-.2 2.3-.4 1.4-.1-.3-.2-1-.4-1.7-.2-1.1-.3-1.3-.6-1.2-.9.1-.9.1-.8 3.1.1 3.1-.1 3.7-.6 1.4-.2-1.3-.3-1.7-.7-4.4-.3-2-.4-2.1-1.6-2.3-.6-.1-1.2-.2-1.4-.3-.3-.1-.3 0-.2 2.1.1 1.2.2 4.4.2 7 0 2.6.1 4.9.2 5 0 .1 0 .3-.1.3-.2.1-1.3-4.3-1.5-5.9-.1-.6-.3-2-.6-3-2-7.8-2.1-8.2-2.7-8.5-.6-.3-3.2-.6-3.4-.4-.1.2.3 2.7.4 2.9.3.5.8 5.3.5 5.2-.1-.1-.2-.3-.2-.6s-.4-1.4-.8-2.6c-.4-1.1-1.1-2.9-1.4-3.8-.8-2.2-1.2-2.4-3.3-1.6m64.9 3.5c0 .1.2 1.1.4 2.2s.5 2.6.6 3.3c.2.8.3 2.3.3 3.4l.1 2-1.1-1.1c-.6-.6-1.3-1.4-1.5-1.8-.2-.4-.8-1.2-1.3-1.8-.5-.6-1.2-1.6-1.6-2.1-.4-.6-.9-1.3-1.1-1.5-.7-.7-.1-1.1 2.2-1.8.4-.1 1.1-.4 1.6-.6 1-.5 1.3-.5 1.4-.2M130.7 153c-2.9 3.6-3.6 6.9-2.1 10 .7 1.6.7 1.6 1.4 1.2 1.1-.6 2.5-2.6 3.3-4.5.6-1.7.7-1.5-.1-3.2-.4-.8-.8-2.1-1-2.9-.5-1.9-.4-1.9-1.5-.6m65.4-.4c0 .8 0 .8 3.3 4.5 1.4 1.5 5.3 6 8.7 9.9 3.4 3.9 13.7 15.6 22.9 25.9 9.1 10.4 18.6 21.1 21.1 24 37 42.2 46.9 53.2 47.1 52.8.2-.4.1-.6-1-1.8-.7-.8-23-26.1-49.5-56.4-44-50.1-51.1-58.1-52.2-59.3-.4-.3-.4-.3-.4.4m-88.5.5c0 .3.1.9.2 1.4l.1.9.2-.9c.2-.8.2-1-.1-1.4-.3-.7-.4-.7-.4 0m14.9 1.1c-.5 1.2.5 5.2 1.3 5.5 1.1.3 1.5-2.4.6-3.8-.9-1.5-1.7-2.2-1.9-1.7m73.5 1.5c-.1.4-.2.4 1.8 2.6.8.9 1.4 1.6 1.4 1.7 0 .1.4.6.8 1.1.4.5.8 1.2.8 1.4 0 .4.6 1 7.1 7.4 2.1 2.1 4.6 4.7 5.5 5.8.9 1.1 2.8 3.3 4.2 5 1.5 1.6 6.4 7.3 11 12.5s8.7 9.8 9.1 10.3c.4.4 1 1.1 1.4 1.6 8.1 9.6 59 66.7 59.2 66.4.2-.4-3-4-25.1-29-13.9-15.7-26-29.4-26.8-30.3-2.5-2.8-29.3-33.2-35.3-40-3-3.4-7.6-8.6-10.1-11.5-5.3-6.1-4.8-5.6-5-5m-57.2 2.3c-.5.6-1.2 1.5-1.6 1.8-1.6 1.5-1.6 1.7-1 5.4 0 .2.1.8.2 1.4.1.6.2 1.2.3 1.3.1.1.1.2.1.2-.1 0 .1.5.3 1.1.7 1.7 1 2.3 1.2 2.5.5.4.8 1.8.6 2.3-.2.4-.2.7 0 1.7.1.7.3 1.7.4 2.2.4 3.7 2.5 7.4 3.1 5.7.4-.9 3.3-3.9 3.8-3.9.6 0 .5-.2-.5-1.5-1.6-2.1-2.7-4.7-2.7-6.8 0-.8 0-1.5-.1-1.6s-.5.3-1.2 1c-1.2 1.3-1.7 1.4-.9.2.9-1.4 1.1-1.7 1.6-3.3l.6-1.6-.7-1.5c-.4-.8-.9-2.1-1-2.9-.3-1.1-1.4-4.8-1.5-4.9-.1.1-.5.6-1 1.2m158.9-1.1l.4 1.2c.2.6.4 1.2.4 1.4 0 .4.8.9 4.1 2.5 1.5.7 3.8 2 5.1 2.8 3.6 2.2 3.3 2.1 3.2 1.2-.2-1-.2-1.1-2.5-2.3-2.4-1.3-6-3.5-7.8-4.9-1.5-1.1-2.9-2.1-2.9-1.9m-166.1 6.7c-.8.8-1.7 1.7-2.1 2-.9.6-1.3 1.7-1.6 3.8l-.2 1.7.8 1.6c.8 1.6.9 1.9.2 1.9-.2 0-.4.1-.4.2s-.2.2-.4.3c-.4.1-.4.3.1 2.7.9 4.6.9 4.6 4 1.7l1.8-1.8-.1-1.6c-.1-1.9.6-4.3 1.4-4.9.4-.3.4-.4.2-1l-.2-.7-1 1a14.15 14.15 0 0 1-2.3 1.9c-.1.1-.5.5-.9 1.1-1 1.3-1.5 1.6-1.5.9 0-.4 1.4-2 1.8-2 .4 0 1.9-2.2 2.4-3.5.5-1.2.5-1.3-.5-3.4-.4-.8-.4-1-.2-2.1.4-1.5.4-1.5-1.3.2m-8.3-.9c-.4.4-.3 5.3.1 5.7.3.3 1.5.7 1.9.7.3 0 .9-1.9.9-3 0-1.6-2.2-4.1-2.9-3.4M110 164c.1.4-.3 3.9-.6 4.8-.4 1.2.1 4 1 5.8 1.1 2.2 2.8 4 2.3 2.7-.9-3.1-1.1-5.8-.5-9l.2-1.3-1.1-1.5c-1.3-2-1.4-2-1.3-1.5m190.2 2.6c.2.9.5 2.1.8 2.8.5 1.4 1.8 6.3 2.4 9.3 1.4 6.7 4.1 14.2 6 16.4 2.3 2.7 3.8 4.5 4.6 5.7.5.7 1.4 1.9 2.1 2.6 3.4 3.5 12.1 11.8 14.1 13.6 1.3 1.1 3.5 3.1 4.9 4.4 1.4 1.4 3 2.9 3.5 3.4 1.1 1.1 1.2 1 .8-1-.3-1.3-.4-1.6-1.5-3-2-2.5-2.2-2.7-5.9-8.3-3.2-4.9-4.3-6.5-6.2-10.1-.4-.6-.7-1.3-.9-1.6-.1-.2-.6-1.1-1.1-1.9-.5-.8-1.4-2.4-2-3.5-.8-1.6-1.2-2.1-1.6-2.3-2.5-1.3-6.1-4-5.4-4.2.1 0 1.1.1 2.1.3 1 .2 1.9.4 1.9.4.1 0-1.4-3.6-2.2-5.5-.2-.5-.6-1.2-.9-1.7-.3-.4-.8-1.5-1.2-2.4-.7-1.7-.8-1.7-1.6-1.9-2.7-.7-2.9-1.1-1-1.7 1.3-.4 1.3-.2.6-2.6l-.5-2-1.7-.9c-1-.5-3.1-1.7-4.8-2.8-3.4-2.1-5.2-3.1-5.4-3.1-.2 0-.1.8.1 1.6m-156.6 1.9c-.5 1.3 1.2 6.5 3 8.6 1.1 1.3 5.9 5.3 6.4 5.3.3 0-1-1.5-1.4-1.7-.3-.1-1.3-1.4-2-2.7l-1.1-2c-1.7-3.1-2-3.5-2.4-4.2-.2-.4-.8-1.4-1.3-2.3-1-1.8-.9-1.7-1.2-1m-22.4 2.2c-1.6.7-2.2 3.4-1.3 5.7.8 2.1 2.9-2.2 2.3-4.8-.3-1-.4-1.2-1-.9m-13.2 4.1c-.2 1-.7 3.3-.9 3.8-.1.2-.1.3 0 .3.3 0 1.3-3.7 1.1-4-.1-.1-.2-.1-.2-.1m1.7 1.5c.1.6 0 .8-.3 1-.6.4-1 2.8-1 5.3 0 2 0 2-.3 1.3l-.3-.7-.3.6c-.6 1-1.3 3.3-1.8 5.7-.3 1.3-.6 2.9-.8 3.6-.2.7-.3 1.8-.3 2.5v1.2l-1.9 1.8c-2.2 2.1-3.4 3.9-5.7 8.3-1.6 3.1-1.7 3.3-2.2 2.9-.2-.2-.3-.2-.3.2 0 .5.3.7.8.4 2.5-1.4 3.4-2.1 6.4-5 2.2-2.1 2.8-3.7 3.3-8.9.4-3.8 3.7-8.5 4.8-6.7.2.3.2.4-1 2.6l-.5 1s0 .2-.1.5c-.3.8-1 4.3-1 5.1 0 1.1.2 1 1.7-.5 2.2-2.2 3.1-5.3 2.5-8.1-.2-.7-.3-1.8-.3-2.4 0-1.1-.1-1.2-.7-.8-.7.5-.7.3 0-1 .4-.7.7-1.6.8-2 .1-.4.3-1.2.5-1.8.8-2.5.8-3-.5-4.6a7 7 0 0 1-1.1-1.7c0-.1-.1-.4-.3-.5-.2 0-.2.1-.1.7m13.8 1.3c-.5 1.2-.3 2.6.4 4.2 1.3 2.7 2 2.9 2.6.9.5-1.6.5-1.7-.9-3.1-.9-.9-1.3-1.4-1.4-2-.1-1-.3-1-.7 0m-4.3 1.7c-.2.7-.1 1.9.2 2.5.3.5.6 1 1.6 2.3.2.3.4-.7.4-2.3V180l-.8-.6c-.8-.6-1.2-.7-1.4-.1m-5 2.2c-.2.5-.5 1.3-.8 2-1.4 3.2-.7 7.5 1.2 7.3.9-.1 1-.5.5-2.6-.4-1.6-.5-2.4-.4-4.7-.1-3.1-.1-3.2-.5-2m33-.5c.1.2.1.5.1.7 0 .2-.1 1.5-.1 3-.1 2.8-.1 3.2.8 6.2.6 1.9.5 2.4-.5 2.3-.7-.1-1.2.2-1.2.5 0 .2.1.3.7.2.4-.1.9-.2 1-.2.2 0 .6.1.9.3 1.5.8 2.9.8 2.1 0-.4-.4-.3-1.1.4-4.6l.5-2.3-.9-1.7c-.8-1.7-4.3-5.5-3.8-4.4m-13.4.6c-2.7 1.6-5.2 5-5.2 7.1 0 2.3 2.5 4.3 4.7 3.9.2 0 .2 0 0 .3-.3.3-.1.4 1.1.3 1.1-.1 1.2-.2 1.1-.9-.1-1 2.1-6.5 2.7-6.5.1 0 .4-.2.7-.6l.5-.6-1.1-1c-.6-.5-1.4-1.4-1.9-1.9-.9-1-1-1-2.6-.1m58.1 1c-.3.3 0 .5.6.5.4 0 .6-.1.6-.2-.1-.3-1.1-.5-1.2-.3m-74.2.9c-.7 1.2-1.3 6.9-.7 6.6.1 0 .9-.3 1.6-.6 1.7-.6 2.6-1.5 3.3-3.3.6-1.4.6-1.7.3-1.5-.1.1-.2.3-.2.5 0 .6-.4.5-1.4-.4-1.1-.9-2.6-1.7-2.9-1.3m6 .9c0 .1.2.2.3.2.1 0 .2-.1.3-.2 0-.1-.1-.2-.3-.2s-.4.1-.3.2m15.9 1.7c-.2 2.3-.2 2.8.3 4.3.6 1.9.5 2.1-.9 2-.7-.1-1.3 0-1.7.1-.5.2-.1.3 3.1.3 2.9.1 3.7.1 3.9.4.5.8.1-.2-.5-1.2-.9-1.5-2.5-4.5-2.5-4.8 0-.4-.8-2-1.2-2.2-.4-.2-.4-.1-.5 1.1m-16.4 2.2c-.5.3-1.2.9-1.6 1.2-.8.7-3 1.8-4.4 2.3l-1 .3.1 1c.1 1.1 1.1 2.4 1.9 2.2.4-.1 2.6.3 2.5.4-.1.1-.7.3-1.4.4-1.3.2-1.7.2-2.9-.1-1.3-.3-4.5 6.2-4.5 9.1v.4l.9-.4c1.8-.8 4.1-2.8 4.6-4 .1-.3.3-.5.3-.3s-.1.5-.3.7c-.2.2-.3.4-.2.4.8 0-2.4 3.4-4.1 4.5-1.9 1.2-1.9 1.2-2.3 1.3-.3.1-.3.2-.1.5.2.3.1.6-.4 1.6-.7 1.4-1.2 3.2-1.2 4.8-.1 1.4.1 1.6 1.5 1.4 1.1-.1 1.5.6.5 1.1-.2.1-.9.4-1.5.7-2.5 1.2-3.9-1.4-2.9-5.2.3-1.1.2-1.2-.6-.6-.4.3-1.2.8-1.8 1.1-.9.5-1.1.7-.8.8.2.1.6 0 1.2-.4l.9-.5-.5.6c-.3.3-.7.9-1 1.3-.3.4-.7.9-.9 1.2-1.9 2.2-3.7 5.8-3.7 7.6 0 .4-.1.9-.3 1.2-.2.3-.3.7-.2.9.1.4 0 .5-.4.7-.3.1-.5.4-.5.6 0 .5-.4 1.1-2.1 3.2-1.8 2.2-4.6 8.4-4.2 9.4.5 1.3 8-3.3 9.9-6.1.7-1.1.7-1.1-.5-.9-1.8.2-2-.2-1.9-3.8 0-1.7.3-2.5.8-2.5.2 0 .8-.3 1.2-.6.5-.3 1-.6 1.1-.6s.3-.1.3-.2.6-.6 1.3-1.1c.8-.6 1.4-1.3 1.8-2 .6-1.1.7-1.2.7-.7-.2 1.6-1.8 3.7-3.2 4.1-1 .3-1.3.7-2.1 2.6-1.3 3-1.2 3.1 2 2.5 2.9-.6 3.9-1 3.9-1.6-.1-.5.1-.7.9-1.3 2-1.6 2-1.6 2-3.7 0-2 .4-3.5 1-4.3l.4-.5-.2.6c-.4 1.4.1 4.2.9 5.5.7 1.2 6 .1 7.9-1.6.6-.5.7-.7 2.5-3.5 1.3-2.1 1.3-1.8.1 3.3-.4 1.5-.3 1.6.3 1.5 2.5-.3 5.8-2.9 8.9-6.9l.5-.7-.2.6c-.3 1-.9 2.2-1.8 3.7-1 1.6-1 1.7.6 2.1 3.7.9 8.2-.4 10.8-3.1 1.6-1.7 1.7-1.2.3 1.1-1 1.6-1 1.6 2.8 1.7 4.3 0 4.2.1 8.2-4 3.1-3.1 3.3-2.2.3 1.5-1.1 1.4-1.2 1.5-.9 1.7.2.1.9.6 1.6 1.1 3.9 2.9 8.7 3.2 11.9.7.4-.3 1.3-1 1.8-1.5 2-1.6 1.4-.4-1 2l-1.5 1.5.5.3c.2.2.8.6 1.1.9 2.2 1.9 4.3 2.8 6.2 2.6 3.5-.5 5.6-1 7-1.6 2.8-1.2 2.7-.8-.3 1.6-3.8 3-8.7 4-12.2 2.6-2.4-1-5.3-2.9-5.7-3.8-.2-.4-.5-.7-.6-.6-1.2.3-2.4.4-3.3.4-.8 0-1 .1-1 .2.6 1.5 1.9 4.9 2.1 5.5.7 2.2 1.8 3.5 4.1 4.7 1.3.7 3.4.9 4.3.5.4-.2 1.2-.3 1.9-.3l1.2-.1.4-1c.2-.6.4-1.5.5-2.2.1-1.4.3-1.5.9-.5.4.8.6 1.3.9 3.1.1.4.2.8.4.9.2.1.6.4.9.6l.6.4 2-1.4c1.1-.8 2.7-1.7 3.5-2.2 2.7-1.4 3.6-2.8 3.9-5.8.1-1.1.2-2.4.3-2.8l.1-.7.6 1c1.3 2.4 5 2.3 7.2-.1.5-.5 1.5-1.6 2.2-2.3.7-.8 1.5-1.7 1.7-2.1l.4-.8-.4-1.3c-.5-1.5-.9-2.2-1.5-3.1-.9-1.1-.7-1.2 1-.6 1.1.3 1.5.6 2.4 1.5l1.1 1.1 1-1c2-1.9 2.5-4.1 1.5-6.1-.6-1.2-2.8-1.2-5.1.2-1.1.7-.9.3.6-1.3.8-.8 1.5-1.5 1.4-1.6-.1-.1-1.9-.1-3.9-.1-1 0-1.9-.1-2.8-.4-5.6-1.7-7.2-2-8.1-1.4-.3.2-.7.4-.8.5-.2.1-.5.3-.8.5-1.5 1-1.9.5-.6-.7 1.3-1.2 1.3-1.3-.7-1.9-1.4-.4-4-1.7-4.3-2-.1-.1-.7-.5-1.4-1s-1.3-.9-1.4-1c-.1-.1-.4-.4-.9-.7-.4-.3-1-.7-1.2-.9-1.6-1.5-3.6-1.5-5.4 0l-.7.6.4.4c.3.3.4.6.4 1.1 0 1.3 1 2.3 3.9 4.3 1.5.9 2.2 1.8 1 1.2-.3-.1-.9-.4-1.3-.6-2.6-1.2-3.3-1.5-4.2-2.4-1-1-1.1-1.4-1-2.6 0-.4 1-2.1 1.6-2.8.4-.5.2-2-.3-2-.1 0-.8-.3-1.5-.6-1.2-.6-1.4-.6-2.8-.5-.9.1-2.1.2-2.7.2-.7 0-1.6 0-2.3-.2-1.1-.3-3.1-.2-3.5.1-1.4 1-1.6.5-.2-.6.6-.4 1-.8 1-.9-.2-.2-4-.8-5.5-.9-2.2-.1-6.3-.6-8.4-1-2.5-.5-6.1-.7-9.3-.6h-2.9c0-.1-.4-.1-.9-.1-2 0-2.8-1.1-2.8-3.9 0-1.2-.1-1.7-.3-1.9-.3-.7-.1-.7-1.2 0m-19.8 1.2c-.2.6-.1.8.2.7.1 0 .1-.3 0-.7l-.1-.6-.1.6m113.5 1.3c-.1.1-.2.8-.2 1.4 0 1.5-.4 1.5-.5 0l-.1-1.1-.2 1.2c-.3 2-.9 4.2-1.3 4.5-.2.1-.4.4-.4.5 0 .1-.3.6-.7 1.2-1.1 1.5-1 1.4-1.1 8.7-.1 7.3 0 7.7.7 3.3.5-3.4.8-3.7.7-.9 0 3.1.2 3.3.7.6.3-1.6 1.2-5.7 1.4-6.2.1-.2.1-.4.1-.5 0-.1 0-.1.1 0 .2.2 0 6.4-.2 8.4-.2 1.4.5.6.7-.9.2-1.2.3-1.4.4-2.6.2-1.9.4-1.6.4.9 0 2 .2 3.4.3 1.8 0-.8 0-.6.6-3.1l.5-1.9-.1 3.1c-.1 3 0 3.7.2 2.3.5-2.7 1.1-4.8.8-2.8-.1.9-.2 2.9-.1 3.5 0 .2.3-.8.6-2.2.3-1.4.6-2.7.7-2.9.1-.2.1-.6.2-.8 0-.2.2-.7.3-1 .1-.3.1-.7.1-.7-.1-.1 0-.1.1-.1.2 0 .2 2.4-.1 3.9 0 .3-.1 1.1-.2 2-.1.8-.2 2.2-.3 3.2-.1 1-.2 1.8-.1 1.8.1.1.5-1.7.7-3 0-.3.2-1.1.3-1.7.1-.6.2-1.3.3-1.6.3-2 .6-2.9.9-3.1.2-.2.6-1.2.9-2.2.3-1.1.7-2.2.8-2.4.7-1.4.6-2.2-.4-3.2-.5-.5-1.9-1.8-3-3-2.4-2.4-2.1-2.5-2.5 1.1-.3 2.6-.5 2.1-.6-1.3 0-2.5-.2-3.8-.6-3.8-.1 0-.2.2-.2.4 0 .3-.1.2-.1-.2-.3-.6-.4-.8-.5-.6m-62.5 2.5c-.2.4 0 .6.3.2.2-.2.2-.3 0-.4-.1-.1-.3 0-.3.2m62.2.9c0 .4-.1.7-.2.7 0 0-.1-.3-.1-.7 0-.4.1-.7.2-.7s.2.4.1.7m-113.3 1.4c-.8 1.2-.8 1.2.1.7.6-.3.7-.5.7-1.1 0-.8 0-.9-.8.4m28.1.4c-1.2 1.1-1.6 2.3-1.6 4.1 0 2.7 1.1 3.6 4.5 3.6 3.3 0 2.6.6-1.2 1-1.2.1-2.6.3-3.2.5-1.8.6-3-.1-2.6-1.5.1-.4.3-1.3.5-2 .4-2 3.3-6.4 4.1-6.4.1 0-.1.3-.5.7m-8.5 1.1c-1.2 1.3-1.8 4.4-1.1 5.8.5 1 2.1 1.2 4.1.5.3-.1.3-.1-.1.4-.8.8-1.1 1-3.3 1.2-1.1.1-2.2.3-2.4.4-.8.4-.8-3.1.1-5.3.5-1.3 2.5-3.7 2.9-3.5.1.1 0 .3-.2.5m17.8 1.2c-1.3 1.4-1.1 3.3.5 4.3.8.5 5.2.7 7.1.3 1.3-.2 2.4-1.9 1.7-2.6-.2-.2 0-.9.3-.9.9 0 .7 2.1-.3 3.1-1.5 1.5-5.8 2.9-6.7 2.2-.2-.1-.7-.1-1.5 0-2.9.4-3.8-.8-2.9-4.1.2-.8 2-3.3 2.1-2.9 0 .1-.1.4-.3.6m-32.4 1.9c-1.2 1-1.6 1.6-.8 1.1.9-.5 1.9-1.4 1.8-1.7 0-.1-.4 0-1 .6m.1 2c-.7.8-1.7 1.8-2.1 2.4-1.3 1.6-1.6 1.9-2.9 3.3-1.4 1.6-2 2.5-3.1 4.5-1.9 3.5-2.5 4-2.5 2.3 0-.7 0-.7-.5.4-.3.6-.6 1.1-.7 1.2-.1.1-.3.4-.5.8l-.3.7.5-.4c.3-.2.9-.6 1.3-.8.5-.2 1.5-.8 2.2-1.3s1.9-1.2 2.6-1.5c3-1.5 3.7-2.2 5.4-5.7.7-1.4 1.4-2.7 1.5-2.7.1 0 .1-.5.1-1s.1-1.4.3-2c.7-2.1.4-2.1-1.3-.2m44.1-.6c0 1.3.1 1.5 1.7 1.8 2 .4 2.1.5 2.9.5 1.1 0 .5.3-2 1-3 .8-4.1.6-4.1-.6 0-.9 1.1-3.4 1.5-3.4-.1-.1 0 .3 0 .7m-47.4.9c-.7.6-.9 1-.3.6.7-.4 1.5-1.2 1.2-1.2-.1.1-.5.3-.9.6m122.6.7c-.1.7-.4 1.7-.5 2.2s-.5 2-.9 3.3c-.3 1.3-.8 2.9-1.1 3.5-.6 1.5-1.2 3.9-1.2 4.5v.5l.3-.6c.2-.3.8-2.1 1.5-3.9 1.6-4.4 1.6-4.3.3 2.1-.5 2.5-.2 2.3.6-.3 1.7-5.3 2-6.2 1.9-5.8-.1.3-.2 1.5-.2 2.6-.2 2.7 0 2.6 1.2-.7 1.4-3.9 1.5-3.3.1 1.2-.7 2.4-.8 3.4-.1 1.4.2-.6.5-1.1.6-1.2.3-.1 0 1-.4 1.4-.1.1-.2.3-.2.4 0 .1-.1.6-.3 1-.8 1.9-.4 1.8.5-.1 2.5-5.2 3-7.3 2.2-8.3-1.4-1.6-2.2-2.6-2.7-3.2-.3-.4-.5-.7-.6-.8-.6-.5-.7-.4-1 .8m-133.6 1.1c-.7.7-1.7 1.8-2.3 2.5-.6.7-1.4 1.6-1.8 2-1.2 1.3-1.6 1.9-1.6 2.9l-.1 1 1.5-1.5c.8-.8 1.8-1.8 2.3-2 .8-.4 1.3-1 2.4-3.1.2-.5.5-.9.5-1.1 0-.1.2-.6.4-1 .6-1.3.3-1.2-1.3.3m69.1 2.4c-1.2 4.4-4.1 6.5-8.8 6.5-2.7 0-5.4-1.2-2.9-1.3 2.3-.1 2.5-.1 5-1.3 1.1-.5 2.2-.9 2.5-.9.7 0 1-.2 2.5-2 1.2-1.5 1.9-1.9 1.7-1m-72.9.2c-.4.5-.6 1-.2.8.2-.1.8-1.3.7-1.3-.1 0-.3.2-.5.5m47.4 3.4c.2.8.4 1 1.2 1.1.1 0 .7.2 1.3.4.6.2 1.6.4 2.1.4 1.4.1 1.4.1.3.8-2.2 1.3-3.7 1.4-4.9.3-1.3-1.1-1.5-3-.7-4.6l.4-.6.1.7c0 .4.1 1 .2 1.5m-50.5-.5c-1.7 1.8-2.1 2.2-1.5 1.9.8-.4 3.2-3.2 2.8-3.2-.1.1-.7.6-1.3 1.3m146.5-.7c-.1.1-.2.5-.2 1-.3 2.3-1.3 5.4-2.4 7.8-.7 1.4-1.2 2.6-1.2 2.7 0 .4.4.1 1-.7.3-.5.8-1.1 1.1-1.4l.5-.5-.1.5c0 .3 0 .5.1.5s.2-.1.2-.2.2-.3.3-.5c.9-1 2.2-3 3-4.4l.8-1.6-.4-.5c-.2-.3-.5-.6-.7-.6-.2-.1-.3-.2-.3-.3-.1-.3-1.6-2-1.7-1.8m-135.8.6c-.3.3-1.1.8-1.8 1.1-3.9 1.9-6.6 4.9-7.1 8-.1.8-.3 1.4-.6 1.6l-.4.4-.4-.4-.4-.4-1.3 1.8c-2.2 3.1-3.6 6.4-3.9 9l-.1 1.2.7-1.1c.4-.6.8-1.2.9-1.3 1.7-2.1 3.8-5.3 4.8-7.3.8-1.6.8-1.6.8-.7 0 .4-.1.7-.2.7s-.1.2-.1.4-.1.7-.3 1c-.3.7-.1.9.3.4.2-.2.3-.6.3-1s.1-.9.3-1.1c.2-.2.3-.6.3-.9 0-.6.6-1.1 1.4-1.1.7 0 2.6-1.5 2.8-2.2.1-.2.5-.9 1-1.5.7-.8 2.7-4.6 3.6-6.7.4-.6.1-.5-.6.1m28.5.3c0 1.2 0 1.3.3 1.3.1 0 .8.2 1.4.5 1 .4 1.3.5 2.6.4 1.8-.1 1.8.1.4 1.1-1.7 1.2-3.5 1.4-5.8.7-1.1-.3-1.4-1.8-.5-2.4.3-.2.7-.8 1-1.4.5-1.2.6-1.3.6-.2m-9 1l-.1 1.3.9.1c.5.1 1.6.2 2.4.2.8 0 1.4 0 1.4.1 0 1.4-5.8 3.6-5.9 2.2 0-.9-.6-.9-1.5 0-2.5 2.3-2.8 1.9-.4-.5 1-1 1.9-2 2.1-2.1.1-.1.4-.8.7-1.4.5-1.4.6-1.4.4.1m113.2.5c-.1.2-.2.4-.2.3-.1-.1 0-.3 0-.5s.2-.4.2-.3c.1.1 0 .3 0 .5m-144.7 1.8c-3.4 3.1-5.1 5.4-5.4 7.7-.1.8.1 1.1.4.6.2-.3 2.1-1.6 3.5-2.4 1.6-.9 1.8-1.2 2.2-4.3.3-2.7.4-2.5-.7-1.6m93.6.4c-1.6 2.7-6.4 4.5-9.7 3.7-2.8-.7-5-1.7-6.7-3.3-.8-.7-.5-.7 1.4-.1s6.7.9 8.9.5c.7-.1 1.1-.1 1.4.1.7.4 2.3-.1 3.8-1 1.4-.8 1.5-.8.9.1m57.7-.2c-.1.2-.8 1.7-1.6 3.3l-2 4c-2 3.9 2.9-.5 5.9-5.3.4-.6.4-.6-.1-1-.6-.5-.6-.6-1.3.7-.4.6-.9 1.4-1.1 1.8-.2.4-.4.8-.4.9s-.1.2-.2.2-.3.3-.4.6c-.1.3-.3.6-.3.5-.1-.1.5-1.3 1.3-2.8 1-2 1.3-2.8 1.2-2.9-.5-.5-.8-.5-1 0m3.4 4c-.3.5-1 1.8-1.7 2.8l-1.3 1.9.4.4.4.4.9-.9c.5-.5 1.2-1.2 1.6-1.5.9-.9.8-.5-.3 1.9-.9 1.9-1.1 2.6-.6 1.9.2-.3 1.1-1.7 2.8-4.7l.6-1-.6-.6c-.3-.3-.7-.8-.9-1.1-.4-.6-.7-.5-1.3.5m-144.4 1.1c-1.4 2.1-2.7 4.5-3.1 5.5-.7 1.8-2.2 8.7-1.9 8.7.4 0 3.8-3.8 4.5-5.1.5-1 1.1-1.6 1.5-1.6.3 0 .4-.1.2-.5-.1-.3-.2-.8-.2-1.2 0-.4-.2-1.4-.3-2.2-.2-1.4-.1-3.1.1-4.1.2-.6-.3-.3-.8.5m77.2.8c.5.3 1 .8 1.2.9.5.5 1.5.8 2.5.8.5 0 1.7.2 2.6.5.9.3 2 .5 2.4.6.4.1 1 .4 1.2.6.9.9 3.6.6 6.5-.8 2.6-1.2 2.7-1.2 1.6.6-2 3.3-6.6 5.1-10.3 4-5-1.5-7.1-2.8-8.2-5.1-1.2-2.9-1.1-3.3.5-2.1m70.4 1.6c-.3.5-.8 1.1-.9 1.3-1.6 2-2.4 3.3-2.2 3.7.2.5.6.3 1.4-.8.4-.6 1.4-1.7 2-2.6 1.2-1.5 1.2-1.6.9-2-.3-.6-.5-.6-1.2.4m-31.2-.2c-5.4 1.4-13.4 4.9-9.9 4.4 4.2-.6 6.4-.1 11.4 2.8 1.6.9 4.9 3.3 6 4.4 1.3 1.3 1.8 1.4 1 .2-.5-.8-4.7-4.9-4.8-4.7-.1.1-.1 0-.1-.1 0-.3 0-.3 1.3.4 1.7.9 3.8 2.7 5.2 4.4 1.2 1.4 1.4 1.6 2 1.6.9 0 .8-.3-.4-1.9-2.3-2.8-1.6-2.6 1.2.3l1.2 1.3.9-.3c1.1-.4 1.9-1 1.8-1.4-.1-.8-3.9-3.8-6.3-5-.4-.2-.7-.5-.7-.5 0-.1.1-.1.1-.1.1 0 1.3.7 2.8 1.4 3.3 1.7 3.4 1.7 4.2 2.5.4.3.7.6.7.5.1-.2-.4-1.6-.7-1.6-.1 0-.3-.3-.5-.6-.3-.6-.3-.6.6.2l.9.9.2-.6.2-.6.3.7c.4.9.4 2.4 0 3.1-.2.3-.3.8-.3 1.2 0 .6-.8 1.6-1.3 1.6-.1 0-.5.2-.8.5-.6.5-2.1 1.3-3.1 1.7-.4.2-1.2.2-2.4.1l-1.7-.1-.2.7c-.2.7 0 1.5.7 2 .9.7 5.2 0 7-1.1 1.8-1.1 1.9-1 1 .2-1.4 1.8-3.4 2.7-6.7 3-1.5.1-1.2.4.7.8.5.1 1 .2 1.1.3.2.1.9.1 2.2 0 1.1-.1 2.5-.2 3.2-.2.7 0 1.4-.1 1.7-.3.3-.2.6-.3.6-.3.2 0-.4 1.1-1 1.8-.7.8-.6 3.3.1 5.8 1.5 5.1 1.6 5.6 1.6 8 0 1.9.1 2.1.9 1.5 1-.7.9-.2-.2 1.4-1.4 2-1.7 2.9-1.7 4.8 0 3.2 2.2 7.3 4.2 7.7.4.1.9.3 1.1.4.7.5 2.2-.3 3.3-1.7.4-.5.7-1.9.7-4 0-2.4 0-2.5-1.9-6.4-.9-1.9-1.2-2.8-1.6-4.8-.3-1.3-.6-2.8-.7-3.2-.6-2.2-.7-3.8-.8-7.6 0-3.2-.1-3.6-.3-3.5-1.1.5-1.1 0 .1-1.5 2.1-2.7 1.9-6.8-.5-11.8-.9-1.9-1-1.8-1.2.6-.1 1.7-.2 2.2-.4 2l-.2-2.1c-.2-4-.7-4.6-4.3-4.8-1.7-.1-1.9-.2-3.8-1.2-3.8-2.6-10.8-3.9-13.7-3.2m-129.2.9c-.6.6-.6.6-.1.5.3-.1.6-.3.7-.6.2-.6.1-.6-.6.1m162 1.4c-.3.6-1.1 1.7-1.7 2.5-1.4 1.8-1.6 2.2-1.4 2.7.1.3.2.2.7-.3.7-.7.8-.4.2.5-.8 1.2-.3 1.5.8.4 1.2-1.2 1.5-1.2.8.1-.3.6-.7 1.2-.8 1.4-.1.1-.2.2-.1.2.2 0 3.5-3.4 4.2-4.2.3-.4.6-.7.6-.6 0 .1-1 1.4-2.2 2.8-3.5 4.2-3.8 5.1-.7 2.1 2.4-2.4 3.6-3.5 3.4-3.1-.1.3-2.8 3.4-4.4 5.3-1.2 1.4-.5 1 1-.6.9-.9 1.6-1.5 1.6-1.4 0 .3-1 2.1-1.5 2.6-.2.2-.2.4-.2.5.2.2 2.4-2.2 4.8-5l1.1-1.2-1.5-1.5c-.8-.8-1.6-1.7-1.8-1.9-.3-.4-.9-.6-.9-.3 0 .1-.4.5-.8 1s-.7.7-.6.6c.1-.2.2-.4.2-.6 0-.1.3-.6.6-1.1.5-.8.5-.8.1-1.3-.7-.8-.8-.7-1.5.4m-163.5-.2c-.2.2-.3.4-.2.4.2 0 .7-.6.6-.7 0-.1-.2 0-.4.3m66.6 2.5c-1 .6-2 .8-3.9 1.1-1.4.2-1.4.2-1 2 .6 2.5 2.2 4.9 3.6 5.4.4.1.9.4 1.2.7 1.2 1.1 3.6 2.1 5.5 2.4 1.2.2 2.5.7 2.9 1.2.3.4.3.2 0-1.6-.2-.8-.3-2.2-.4-3-.4-4.6-.5-5.1-1.2-5.4-1.2-.4-4.5-2.2-5.1-2.7l-.6-.5-1 .4m-69.8.8c-.5.5-1.2 1.1-1.5 1.4a4 4 0 0 0-1.3 1.7c-.3.7-.8 1.7-1 2.3a20 20 0 0 0-1.6 6.2c-.1 1 .4 3.8.8 4.6.2.5.3.5.6-.7.2-.6.6-1.6.8-2.1.8-1.5 2.4-6.7 2.8-8.9.4-2.1.4-2.3 1-3.6.9-2 .7-2.3-.6-.9m58.6-.4c-1.4.7-3.5 1.1-4.9 1.1H131l.1 1.6c.3 3.1 1.3 4.8 3.8 6.2 2.6 1.4 2.6 1.4 4.2 1.7.8.2 1.7.3 2 .4.5.2.5.1 0-1.3-.8-2-1.5-4.5-1.8-6.9-.4-3.7-.3-3.5-2-2.8m-10.5 0c-1.3 1.3-4.3 1.9-5.1 1.1-1-.9-1.3.3-.6 3.3.8 3.8 2.6 5.4 6.2 5.4h2l-.1-.8c-.1-.5-.2-2.5-.2-4.5l-.1-3.7-.6-.2c-.3-.1-.6-.3-.7-.4-.1-.5-.5-.5-.8-.2m-16.2 2c-.3.9.6 5.6 1.4 7 .9 1.7.9 1.6 2.9 2.3 2.5.8 4.5 1 4.3.4-1.2-3.9-1.4-4.7-1.4-7.4v-2.7s-.5.1-1.2.3c-1.7.4-3.9.5-4.7 0-.8-.2-1.1-.3-1.3.1m-2.4 1.4c-.1.2-.7.6-1.3.9-1.3.8-1.5 1.1-1.5 2.2 0 .5-.1 1.3-.3 1.7-.9 2.1-1.3 5.9-.8 7.7.2.6.3.6 2.3.2.6-.1 3.1-1.6 3.9-2.3l.7-.6-.8-1.7c-1.1-2.2-1.6-4.4-1.8-6.7-.1-1.5-.1-1.7-.4-1.4m-22.6 1.4c-1 1.2-1.2 1.6-.7 1.1.6-.6 1.6-1.9 1.5-2 0 0-.4.4-.8.9m.8.4c-1.7 1.7-4.8 4.5-5.3 4.7-.9.5-1.1 2.4-.6 4.8.2.8.3 1.9.2 2.6-.3 4.3 4.4-3.4 6-9.9.8-2.9.8-3.3-.3-2.2m167.1.4c-.9.9-4.5 5.8-4.5 6 0 .1-.2.5-.5.9s-.9 1.4-1.4 2c-.5.7-.8 1.2-.8 1.2.2 0 1.1-1 2.2-2.3.6-.8 1.9-2.2 2.7-3.1 2.9-3.2 3.7-4.3 3.2-4.9-.3-.4-.3-.4-.9.2m1.4 1.3c-.1.1-.2.4-.3.6-.1.2-1.2 1.7-2.4 3.4-5.3 7.2-7.2 10-6.8 10 0 0 .5-.5 1-1.2 1.7-2.2 3.8-4.7 5.7-6.6 1.9-1.9 3.2-3.6 3.6-4.4.1-.2.3-.4.4-.4.2 0 0-.5-.4-1.1-.4-.6-.5-.7-.8-.3m-4.4.4c-.2.2-1 1.2-1.9 2.2-3.3 3.5-4.3 4.8-4.3 5.5 0 1.1.4.7 3.5-3.7.9-1.2 1.8-2.5 2-2.8.6-.8 1.2-1.7 1.1-1.7 0 0-.2.2-.4.5m-161 1.5c0 .5.4.7.7.4.2-.2.2-.3-.2-.5-.5-.3-.5-.2-.5.1m-17.1 1.8c-.8 2.3-1.8 6.1-2 7.5-.1.7-.3 1.9-.5 2.6-1.1 4.3-1.4 7.6-.8 9.8.5 1.9 2-.5 3.3-5.4.4-1.3.8-3 1-3.6.3-1.2.3-1.2-.2-3.7-.5-2.6-.6-5.4-.3-7.7.2-1.3.1-1.2-.5.5m184.7 1.6c-.6.7-2.1 2.2-3.3 3.3-1.2 1.2-2.8 2.9-3.6 3.9-.8 1-2.3 2.7-3.2 3.8s-1.7 2-1.7 2c0 .2 3.2-2.4 5.3-4.2 1.9-1.6 1.9-1.5 0 .7-1.2 1.4-4 5.1-4.9 6.4-.5.8-.3.6 1.6-1.3 2.9-2.9 3.1-2.7.5.3-.2.3-.4.5-.4.6s-.3.5-.6.9 0 .2.8-.7c.9-1 1.4-1.3 1.3-1-.1.3 0 .4.1.4s.2-.1.2-.1c0-.2 1.8-2.2 2-2.2.1 0-1.2 1.9-1.4 2.1-.1.1-.4.5-.6 1-.3.5-.6.9-.7.9s-.2.1-.2.1c.1.4-.1.6-.8 1.6-.4.6-.9 1.3-1.1 1.6-.3.7-.2.6 1.4-1.6 1.4-1.8 3.4-4 6.1-6.7 1.1-1.1 2.2-2.1 2.4-2.3.7-.7.5-.2-.2.7-.4.5-1 1.1-1.2 1.4s-.7.8-1 1.2c-.6.7-2.7 3.7-2.7 4 0 .1.5-.4 1.2-1 1.4-1.4 1.9-1.4.8 0-1.2 1.6-1.7 1.9 7.4-4.4.5-.3 1.2-.9 1.5-1.2s.7-.6.8-.6c.1 0 .6-.3 1.1-.7 1.2-.9 1.3-.8.4.3-.8.9-1.4 1.9-1.8 3.1-.6 1.6-2.7 6.5-2.8 6.5-.1 0 0-.4.1-.9s.4-1.4.5-2 .4-1.5.6-1.9c.2-.7.3-1.3.1-1l-.6.8c-.3.4-1.1 1.7-1.7 2.9-1.3 2.4-1.6 2.6-1 .9.2-.6.3-1.1.3-1.1-.3 0-3.2 3.6-4.6 5.6-1.1 1.6-1.2 1.7-.8.7.4-1 .4-1-.3-.3-1.2 1.4-2.9 3.7-3.4 4.8-.3.6-1.1 2.3-1.8 3.7-1.5 3.1-1.6 3.4-.1 1.3.6-.9 1.2-1.8 1.4-1.9.3-.3-2 4.3-3.7 7.2-1.7 3-2.8 5.3-2.6 5.3.1 0 2-2.9 2.7-4.2.3-.5 1.4-2.3 2.4-3.8 1-1.6 2.2-3.4 2.7-4.1 1-1.6 1.1-1.2.2.7-.4.8-.9 1.9-1.1 2.3-.2.4-.4.8-.5.9-.1.1-.2.3-.3.6-.1.3-.1.4 0 .3.2-.2 2.1-3 2.2-3.3.1-.3 1.4-2.2 1.5-2.2.3 0-1.5 3.8-3.1 6.3-.7 1.1-1.7 3-2.4 4.2-1.2 2.4-2.3 4.4-3.1 5.9-.9 1.6.2.1 2.2-3.1 3.6-5.7 4.4-7 4.7-7.2.1-.1.5-.6.7-1 .2-.4.7-1.3 1.1-1.8s1.2-2 1.9-3.2c1.5-2.6 2.1-3.7 2.1-3.5 0 .3-.7 1.6-.9 1.8l-.1.1c.3 0-1.4 3.8-2.1 4.9-.4.6-1.1 1.8-1.5 2.7-1 2-1.6 3-1.9 3.4-.6.8-3.7 6.4-3.5 6.4.1 0 3.1-4.3 4.3-6.2.6-1 1.2-1.9 1.3-1.9.1 0 .2-.2.2-.3 0-.3.8-1.3.9-1.2 0 0-.2.8-.6 1.6-.7 1.6-.8 1.8-.5 1.6.3-.2-.4 1.5-1.5 3.5-2.9 5.5-4.8 9.5-4.9 10.1 0 .4-.2.9-.3 1.1-.4.7-.1.6.4-.1.2-.4.5-.7.6-.7s.5-.7.9-1.5 1.3-2.5 2.1-3.8c2-3.2 3.5-5.9 5.8-10.3 1.9-3.6 3.8-6.5 4-6.3.1.1-.1.4-.3.8-.8 1.6-2.1 3.9-3 5.3-.5.8-1.4 2.3-1.9 3.4-.6 1.1-1.2 2.2-1.4 2.4-.2.3-1.1 1.9-1.9 3.5-.9 1.7-1.8 3.2-1.9 3.4-.2.2-.7 1-1.1 1.8-.4.8-.9 1.7-1.1 2-.4.7-.5.7.9 1 .4.1 1 .4 1.3.6.3.2.8.7 1.3 1 2.5 1.7 2.4 2.1-.2.7-2.2-1.1-2.2-1.1-5.4-.8-2.4.2-3.8.6-4.5 1.1-.2.2-.7.3-1 .3-.7 0-4.8 2-7 3.4a31.2 31.2 0 0 0-7.6 7c-2.2 2.7-2.3 3.1-.5 1.3 4.5-4.4 8.7-7.3 12.3-8.5 1-.3 2-.7 2.2-.8.2-.1.5-.2.7-.1.2 0 .1.2-.4.4-.4.2-.8.3-.8.3l-.4.2c-.2.2-1.2.7-2.1 1.2-1.7.9-4 2.5-5.3 3.6-.3.3-1.7 1.4-2.9 2.5a63.4 63.4 0 0 0-2.8 2.5c-2.1 2.4-4.4 5.3-5.4 6.8-1.8 2.8-2.5 3.8-4.1 6-2 2.8-2.5 3.5-5.5 8.6-2.5 4.3-3.6 6-7.1 10.5-2 2.7-2.3 3.3-.4 1.1l1.3-1.5c.4-.3 3.2-3.4 4.2-4.6.6-.8 1.9-2.1 2.7-3 .9-.9 2.1-2.4 2.7-3.3.6-.9 1.6-2.2 2.1-3 .6-.7 1.8-2.3 2.8-3.6 1.6-2.1 2.4-2.9 1.9-1.8-.3.6-1.4 2.2-1.6 2.3-.1.1-.2.3-.3.5-.1.2-.2.4-.3.4-.1 0-.2.1-.2.2s-.4.7-.8 1.4c-.5.7-1.5 2.4-2.3 3.8-.8 1.4-1.9 3.2-2.5 4.1-.6.9-1.5 2.1-1.9 2.8-.9 1.5-2.6 3.8-3.9 5.3-.5.6-1.1 1.3-1.3 1.7-.2.3-.6.8-.9 1.2-.8.8-.8.9.2.7.5-.1 1.4-.2 2-.4 1.1-.2 3.4-1.1 6.2-2.3l1.3-.6-.5-2.1-.5-2.1.9-1c.5-.6.9-1.1.9-1.2 0-.1.1-.1.2-.1.2 0 .6 1.2 1 3.2.4 1.8.4 1.8 1.4 1 1-.7 1.2-1 1-1.1-.1-.1-.3-.5-.5-1.1-.2-.5-.5-1.7-.8-2.6l-.5-1.6 1.1-1.7 1.1-1.7.3 1.4c.2.8.5 2.3.7 3.3.5 2.2.4 2.1 1.6 1.1 1.2-1 1.2-.7 0-4.3-1.2-3.6-1.2-3.2.5-5.3l1.4-1.7.1.8c.1.5.2 1.6.4 2.6s.3 2.1.4 2.4c0 .3.1.6.2.7.1.1.2.6.3 1.1.2 1.2.4 1.3 1.9.6l1.3-.5-.3-.7c-.4-1-1.8-5.7-2.1-7.5-.4-1.9-.3-2 1.4-4.1 1.3-1.6 1.4-1.6 1.8 1 .2 1.1.4 2.4.6 3 .2.6.5 2.2.9 3.6.3 1.4.7 2.9.9 3.3l.3.8h1.2c1.5 0 1.5 0 1-1.1-.6-1.1-1.5-4.1-2-6.4-1-4.7-1.5-7.3-1.4-7.5.8-.8 3.3-2.4 3.4-2.2.1.1.2 1 .3 2 .1 1 .3 2.5.5 3.4s.4 2.6.6 3.8c.3 1.8.7 3.5 1.4 5.5.1.2.5-.3 2.1-2.4.1-.2-.1-1.1-.5-2.9-1-3.6-1.5-6.7-1.6-9.3l-.1-2.2.8-.4c.5-.2 1.4-.6 2.2-.8l1.3-.5-.1.4c-.4 1.6-.1 8.3.4 10.7.4 1.9.5 1.9 1.4 1.2.4-.3.8-.6.9-.6.6 0 1.3-1.1 1.1-1.8-.4-1.4-.9-5.8-.8-7.4.1-1.5.2-1.7.4-.7 0 .2.1-.2.1-.9v-1.3h2l.1 3.8c.1 2.1.2 4.1.3 4.6.2 1-.1 1.5-2.6 3.5-1.4 1.1-2.1 1.9-2.8 3-.3.4-1.2 1.8-2 3-1.8 2.7-4.8 8.6-5.5 10.9-.1.3-.6 1.1-1.1 1.8-1.1 1.6-1.8 3.6-2.2 6.1-.3 2.1-.6 1.6-.5-.9.1-1.6-.1-2.1-.3-1l-.4 1.2c-.1.3-.2.4-.2.2s.1-.8.2-1.3.2-1 .3-1.1c.2-.3.2-1.1 0-1-.3.2-.2-.1.1-.7.6-1 .1-1.1-.8 0l-.7.7.5-.8c.5-.8 2.7-3.2 4.1-4.3 1.4-1.2.6-1.7-.9-.5-.6.4-1.6 1.1-2.2 1.6-3 2.2-4.8 5.1-5.1 8.3-.4 4.6-.2 5.8 1.7 13.9.2.9.4 1.8.5 2.1.1.3.3 1.3.5 2.2.2.9.4 1.9.5 2.2.5 2.8 2 9.4 3 13.2.9 3.3 1.7 6.7 2.3 10 .1.3.2 1.2.4 2.1.2.9.3 1.8.4 2.1 0 .3.1.7.1.7 0 .2.6.2.6 0 0-.1.1-.2.3-.2.6 0 .7-.6.4-2.7-.6-4.2-1.5-9.3-2.1-12.2 0-.2-.1-.6-.2-.8-.1-.2-.1-.7-.2-1.1-.1-.4-.2-1.1-.4-1.7-.2-.6-.2-1-.1-.9.1.1.2.2.2.3 0 .1.1.5.3.9l.3.8.3-.7c.1-.4.5-1.1.8-1.6.5-.8.5-1 .3-1.9-.4-2.3-1.8-8.5-2.1-9.5-.3-.9-.4-1.6-.8-3.9-.5-3.1-.2-3.8.5-1.1l1.1 4.3c.3 1.2.6 2.3.7 2.4 0 .2.3 1 .5 1.8.3.8.5 1.8.6 2.1.1.4.3 1.5.6 2.4.3 1 .8 2.9 1.1 4.3.3 1.4 1.1 3.9 1.6 5.6 2.6 8.1 2.9 9.3 3.3 10.5.1.5.3.8.4.8.4 0 1.3-1.2 1.4-1.9.3-1.4-2.4-10.5-7.3-25.6-.6-1.9-1.2-3.9-1.3-4.4s-.3-1.5-.5-2.2-.3-1.6-.4-2.1c-.1-.4-.3-1.9-.6-3.2-.3-1.3-.5-2.8-.5-3.3s-.1-1.3-.2-1.7c-.2-.8-.5-6.5-.3-6.3.1.1.3 1.3.6 2.8.6 3.3.6 3.2 1.2 2.5.3-.3 1.8-1.9 3.4-3.5s4-4.3 5.3-6 2.6-3.1 2.8-3.2c.2-.1.4-.3.4-.3 0-.2.5-.9.6-.9.2 0-.1.5-2.2 3.4-.9 1.3-2 2.9-2.5 3.6-1 1.4-1.4 1.9-3.9 4.7-3 3.3-3.2 3.7-1.1 1.9 1.3-1.1 2.4-2.2 4.7-5 1-1.2 1.9-1.9 1.4-1.2-.3.5-3.6 4.8-4.4 5.7-.9 1.1-.9 1.1 1.2-.6 3.3-2.6 6.5-6.6 8.5-10.5 2.2-4.4 6.6-11.1 7.2-11.1.1 0 .5-.3.8-.7.7-.8 2.1-1.8 2.5-1.8.2 0 .1.3-.4.7-.4.4-1 1.1-1.3 1.5-.3.4-.6.8-.7.9-.5.4-2.7 5.3-3.5 7.9-.5 1.5-1.4 3.1-2.7 4.5-1.4 1.6-2.9 3.5-2.7 3.7.1.1 2.2-1.2 3.8-2.4.6-.5 1.3-1 1.5-1.1.2-.1.5-.3.7-.5.2-.1.3-.2.3-.1 0 .3-3 3-5.9 5.4-.7.6-2.1 1.7-3 2.6-2.9 2.6-8.8 6.2-10.1 6.2-.5 0-.5.3-.2 1.6.3 1.4.3 1.4 2.9-.3 3-2 5.5-3.4 4.6-2.5-.3.3-.7.6-.7.6-.1 0-.4.3-.7.6s-.7.6-.8.6c-.1 0-.4.2-.7.5-.9.9-1.9 1.6-3 2.4-1 .7-1.3 1.5-.7 2.4.2.4 2.4-.7 4.4-2.1 1.4-1 4-2.7 4.4-2.9.2-.1-.1.3-.7.8-.5.5-1.3 1.2-1.7 1.6-1 .9-3.9 3-5.1 3.7-.6.3-1 .6-.9.6.1.1 2.3-.7 2.9-1l.5-.3-.4.4c-.2.2-.8.7-1.4 1.1-1.1.7-1.4 1.1-1 1.1.3 0 3-1.3 3.8-1.8.4-.3.8-.5.9-.4.2.1-2.8 2.5-3.8 2.9-.9.4-.9.4-.4 1.7.4 1.4.5 1.4 1.5.3.6-.5 1.9-1.5 3.3-2.2 1.3-.7 3.2-1.8 4.2-2.5s2.3-1.5 2.7-1.9c1.7-1.2 5.2-4 7.4-5.9 3.9-3.5 4.2-3.7 6-5.5 2.3-2.2 2.8-2.7 2.8-2.5 0 .1-.2.4-.4.7-.2.3-1.1 1.2-1.8 2.1-2.4 2.9-9.7 10-12.7 12.3-1.8 1.4-2.8 2.3-2.8 2.4 0 .2 3.5-1.4 6.1-2.7 1.3-.7 2.8-1.3 3.2-1.4 2.1-.6 6.7-3.7 7.7-5.3.3-.5 1.6-2.1 2.7-3.6 1.2-1.5 2.3-2.9 2.4-3.2.2-.3.9-1.2 1.5-2.1 1.6-2.1 1.6-2.2-.4-.3-4.1 3.9-8.5 8.1-9.3 8.8-.5.4-1.2 1.1-1.6 1.5-.9.8-1.2.8-.5 0 1.6-1.9 5.4-6 7.4-8.3 1.3-1.5 2.7-3 3.1-3.5.6-.8 2.9-3.3 8-8.5 2.1-2.1 2.2-2.4 1.6-3.7-.7-1.4-.7-1.4-5.6 3.6-3.9 4-5.1 5.1-7.6 7-.8.6-1.8 1.4-2.3 1.9-.5.4-1.6 1.3-2.5 2-.9.7-1.7 1.3-1.9 1.4-.2.1-1 .9-2 1.8-2.3 2.2-4.1 3.7-5.1 4.4-.5.3-1 .7-1.1.9-.6.6-1.6 1.3-1.7 1.2-.1-.1.2-.4.6-.7.4-.3 2.4-2.2 4.3-4.1 4.6-4.6 11.4-11.3 12.7-12.4.8-.8 2.8-2.9 5.1-5.4.7-.8.6-.7-1.7 1.1-.9.7-1.8 1.4-1.9 1.4-.2.1-.4.2-.6.4-.7.6-3.9 3.1-5 3.9-.6.5-1.7 1.3-2.3 1.7-1.9 1.5-1.3.7 2.8-3.4l4.9-4.9c1.7-1.8 3.5-3.4 6.2-5.4 1.5-1.1 2.7-2 2.8-2.1.2-.2-1-1-1.3-.9-.9.3-4.8 2.9-8 5.3-5.1 3.8-6.4 4.8-6.5 4.7-.1-.1 2.2-2.4 4.2-4.1.6-.5 1.7-1.5 2.4-2 .7-.6 1.5-1.3 1.9-1.6.7-.5 3.5-3 4.4-3.9.5-.5.7-1.3.4-1.3-.3 0-3 1.6-3.3 2-.1.1-.5.4-1 .7l-.9.5.7-.6c.8-.8 2.1-1.7 2.5-2 .2-.1.5-.4.8-.6.2-.2.4-.3.4-.3 0 .1.2 0 .4-.3.7-.7.3-1.1-1.2-1.1-1.3-.1-2.2.3-4.7 1.8-1.2.7-3.5 1.9-3.7 1.9-.1 0-.1-.3 0-.6s0-.8-.1-1.1c-.1-.4-.1-.5.2-.6 1.1-.3-.2-.9-2.7-1.3-1.1-.2-2.4-.5-3-.7-.7-.3-1.4-.4-1.9-.3-1.4.2-2.5-.4-2.3-1.2.1-.4.1-1.1.1-1.6s.1-.9.2-.9c.3 0 2.1 1.3 2.1 1.6 0 .1.1.6.2 1l.1.7h2.2c1.2 0 2.5 0 2.8-.1l.6-.1-.8-.8c-.4-.5-1.2-1.1-1.7-1.5-.5-.3-.9-.8-.9-1 0-.2-.2-.5-.5-.7-.3-.2-.9-.6-1.3-1-1.1-.8-5.8-2.8-8-3.4-6.1-1.6-15.9 1.5-21.7 7-.7.6-1 .6-.6 0 .2-.3.4-.7.4-.8 0-1 9.8-8.2 11.1-8.2.1 0 1-.3 1.9-.7 6.1-2.4 16.3-.7 18.9 3.2.3.4.7.8.8.9.2.1.5.3.6.6.2.3.7 1 1.3 1.6 1 1.1 1.6 2.4 1.6 3.5 0 .5 0 .5.1.2.2-.9-.5-3.6-1.2-4.6-.3-.5-1-1.5-1.4-2.2-1.5-2.3-6.3-7.3-8.4-8.7-1-.7-.4-.7.9 0 1.5.8 3.5 2.2 4.8 3.6.7.7 1.2 1.2 1.2 1.1 0-.5-.8-1.7-1.6-2.5-1.4-1.3-1.1-1.3.9 0s2.2 1.3 2.4-.3c.1-.5.2-1.4.3-1.9.1-.5.3-2.1.4-3.5.1-1.4.3-3.2.4-4.1.5-4 .5-5.8 0-5.8s-.7.7-1.6 4.3c-.3 1.2-.6 2.1-.6 2 0-.4.5-3.3.9-5.1.3-1.6 1.2-6.8 1.4-8.6.1-.6.2-1.5.2-2.1.1-.5.1-1.3.2-1.7.2-2 .3-4.2.1-3.9-.3.5-3.6 10.7-4.2 13.1-.5 1.9-1.5 5-1.7 5.2-.1.1-.2.4-.2.6 0 .2-.1.3-.1.2-.1-.1.2-1.5.6-3 .4-1.5.8-3.3.9-4 .1-.6.5-2.1.9-3.2s.7-2.6.8-3.2c.1-.6.4-1.9.7-2.9.3-1 .7-2.5 1-3.3.2-.9.8-2.6 1.2-3.8.7-2.2 1-3.4.6-3-.1.1-.4.8-.7 1.6-.3.7-.6 1.7-.8 2.1-1.3 3.6-3.1 9-3.9 11.6-.2.8-.5 1.7-.7 2-.1.3-.4 1.1-.6 1.8-.8 3-.8 2.2-.1-1.3a105.4 105.4 0 0 1 4.7-16.5c0-.6 2.4-6.1 3.1-6.9.3-.3.6-1.1.7-1.6.1-.5.2-1.1.3-1.1 0-.1.1-.6.2-1.1.2-1.6.3-2 .4-2.6.7-2.9.7-4.8.2-5.2-.1-.1-.1-.3 0-.8.9-2.4-.4-3-2.4-.9-3.3 3.4-6.2 6.2-6.2 6 0-.1 1-1.6 1.4-1.9.3-.2 1.7-2.1 3.4-4.4l1.9-2.5-.5-.5-.5-.5-.9.9c-1 1-1.1.9-.3-.3l.6-.9-.5-.6c-.8-.8-1-.7-2.8 1-1.9 1.9-2 1.8-.3-.6 1.5-2.1 1.4-2 .7-3-.8-.9-.7-.9-2.1.6m-110.7.2c-.7.2-.1 1.1 2.3 3.6.4.4.9 1.1 1.2 1.6.6 1 .5 1 1.8.6 1.6-.5 2.1-1 1.9-1.7-.5-2.6-1.3-3.8-2.5-3.9-.9 0-1.4-.1-3-.2h-1.7m-11.3.8c-.4.4-.4.5.2 2 .3.7.6 1.6.7 2.1.6 2.5 3.8 4.3 6.9 3.9 1.7-.2 2.2-.6 1.7-1.5-.2-.4-.7-1.3-1.1-2.1-1.1-2.1-1.4-2.4-4.1-3.5-3.1-1.2-3.9-1.4-4.3-.9m-35.9.7c0 .2.1.3.2.3s.2-.1.2-.3-.1-.3-.2-.3-.2.2-.2.3m27.3.2c-.9.8-1.1 4.9-.3 6.6 1.3 2.9 4.9 4.9 7.7 4.5 1.1-.2 1.1-.3-.4-1.9-1.5-1.6-2.4-3.4-2.5-4.9-.1-1.3-1.7-4.1-2.5-4.3-1.2-.2-1.7-.2-2 0m65.1-.1c0 .1.5.4 1.1.6 2.1.8 4 1.8 5.1 2.6 2.1 1.4 6.6 6.8 6.9 8.1 0 .2.1.4.2.5.2.2.6 1.6.8 3 .2 1.8.7 2.6 2.1 3.8 1 .8 1.1.8.8-.7-.1-.6-.3-2-.5-3.1s-.5-2.6-.8-3.3c-.6-1.7-.5-1.8.3-.5.8 1.4 1.5 3.4 1.9 5 .5 2.3.7 3.3.8 3.6.1.2.3.3.6.3.4 0 .5-.1.4-.3-.6-1.3-1-3.7-.7-3.5.1.1.3.4.3.6.1.3.4 1.2.8 2 .7 1.4.7 1.9.2 1.7-.2-.1-.5 0-.7.2-.3.3-.6.3-2.3.2l-2-.1.1.5c.1.9 2.6 1.7 5.2 1.7h1.5l-.9.3c-1.6.5-5.1.2-5.7-.4-.4-.5-.6-.3-.6.6 0 1.1 1.4 2.3 2.9 2.6 1.6.3 1 .8-.7.6-.6 0-1.2-.1-1.4-.2-1.1-.3-.6 3 .7 4.5.2.3.6.8.8 1.2.8 1.5 1.4 2.1 1.4 1.4 0-.1.1-.2.2-.1.4.3.2 11.1-.3 13.5-.4 2.2-.4 2.2-.1 2.1.4-.1.4-.1 0 .4-1.8 2.3-2.8 4.2-3.1 5.9-.7 4.4-.7 4.7.7 7.5 1.2 2.3 2 2.8 4.3 2.6 1-.1 1.5-.2 3.4-1 2.5-1 3.9-5.5 2.6-8.6-.1-.2-.2-1-.3-1.7-.1-.7-.5-2.5-1-4-.9-2.7-1-3.4-.3-2.5 1 1.5 1 1.4.9-.7-.4-5.4 0-10.8.8-11.8.1-.2.5-.9.9-1.7.3-.8 1-1.8 1.4-2.3 1.3-1.7 1.6-2.4 2-4.2.4-1.9.4-2.1-.1-1.7-.2.1 0-.2.5-.8 1.7-2.4 2-4.5.5-5.1-.4-.2-.8-.5-1.1-1.1-.2-.5-.7-1.2-1.1-1.7-.4-.5-.9-1.1-1.1-1.5-.7-1.1-1.7-1.8-1.9-1.2 0 .1-.3-.2-.6-.8-1.1-2.2-5.2-6.7-7.7-8.4-2.6-1.7-6.1-3.2-9-3.7-.6-.1-1.3-.2-1.7-.3-3.5-.7-7.4-.9-7.4-.6m-77.1 2.4c-2.8 4.4-.2 9 6 10.5.8.2 1.8.5 2.2.6 1.5.4 1.1-.7-1.3-3.6-.3-.3-1.1-1.8-1.8-3.4-1.2-2.5-1.4-2.8-1.9-2.9-.9-.2-1.5-.6-1.9-1.2-.6-.7-.8-.7-1.3 0m-21 1.1c-.1.1-.1.4-.1.6v.5l.3-.5c.3-.6.2-1.1-.2-.6m-9.8 2.5c-1.3 1.2-1.3 1.3-1.2 1.9.1.4.3 1.4.5 2.3l.3 1.6.7-1c.4-.5.8-1.1 1-1.3.3-.3.4-4.4.1-4.7 0 0-.6.5-1.4 1.2m186.1-.3c.1.4.2 1.1.2 1.6.1 1 .5 2.4.8 3.1.2.4.1.4-.3 0-.6-.4-1-.4-1.3-.1-.3.4 0 2.3.4 2.5.2.1.3.3.3.5s.2 1 .5 1.9l.5 1.6-.5-.2c-.3-.1-.5-.1-.6-.1-.1.1-.2 0-.3-.1-.2-.2-.2 0-.1.5.1.4.3 1.5.5 2.4s.5 2.1.8 2.7c.5 1.1.5 1.2-.2.7l-.4-.3v1.3c0 2.3.4 2.8 1.3 1.8.6-.6.6-.7.4-1.6-.2-.8-.2-1.1.1-1.7l.3-.7.5.6c.3.3.6.8.8 1.2.3.7.5.8 1.1.4.3-.2.4-.3.1-.7-.6-1.3 0-1.7 1-.7.7.7 1.2.8 2.4.4.7-.3.8-.5.4-1.8-.3-1-.4-1.5-.1-1.3.3.2 0-2-.4-3.3-.6-1.9-1-2.5-1.4-2.4-.3.1-1-.9-1-1.5 0-.7-1.5-2.9-3.8-5.5-1.8-1.8-2.2-2-2-1.2m-46.8 2.2c0 .9 1.5 5.7 2.2 7 .5 1 .8 2.6.5 3.2-.3.6-.2 1.7.1 1.9.1.1.2.5.2.9 0 .9.3 1 1.1.3.9-.8.6-5.4-.6-7.7-.3-.5-.5-1.1-.5-1.2 0-.4-1.9-4.4-2.2-4.5-.4-.2-.8-.2-.8.1m-143.2.5c-.1.3-.5 1.1-.9 1.9-.4.7-.9 1.7-1.1 2.1-.3.9-.3.8-.3 1.4 0 .2-.2.6-.5.8-.5.4-.5 2.3 0 3 .1.1.2.6.2 1.1.4 2.6 1.6-.2 2.9-6.5.5-2.2.5-2.8.2-4-.1-.5-.4-.4-.5.2m-3.2.5c-.2.3-.3.6-.2.6.1.1.3-.1.4-.4.2-.3.3-.6.2-.6 0 0-.2.1-.4.4m196.2 1.3c1.1 2 1.4 5.8.4 5.3-.2-.1-.3-.3-.3-.3.2-.4-.6-2.7-1.1-3.2-.3-.3-.4-2.1-.2-2.4.3-.4.8-.1 1.2.6m-6.2 2.6c-.2.3-.2.5.2 1.5.2.7.5 1.6.5 2.1.3 2.2 2 1.7 1.8-.5-.4-2.8-1.5-4.2-2.5-3.1m-109.5 1.9c.1 1 .2 2.2.3 2.8.1.5.2 1.5.3 2.1.3 3.4.7 6.3 1 6.9.3.7.4 1.4 1.3 5.8.2 1.2.5 2.2.6 2.3.1.1.2.5.4 1 .4 1.2 2.3 5 2.7 5.5.2.2.7.9 1.2 1.5s1.1 1.4 1.5 1.9l.7.8-.1-.6c-.5-2.2-.3-2.1.8.2.6 1.2 1 1.9 1.2 1.9.2 0 .6.1 1 .1 1.1.1 1.2-.8.3-4-.5-1.9-.6-2.4-.3-2.1.1.1.2.2.2.3 0 .1.2.6.5 1.1.3.5.7 1.6 1 2.4.2.8.5 1.4.6 1.3.4-.3.1.8-.4 1.3-2.2 2.3-4.9 1.8-8.6-1.3-.6-.5-1.7-2.3-2.5-4.3-1.2-2.8-1.4-2.8-.9-.1.7 4.1 2.3 7.4 4.7 9.7 1 1 1.4 1.5 1.1 1.4-.8-.2-2.6-1.6-3.5-2.7-2.1-2.6-2.4-2.9-2.2-2.2.6 2.7 3.2 6.1 5.6 7.4 1.4.8 3.9 2.8 4 3.4.1.3.7 1.2 1.2 2.1 1.1 1.6 1.8 3.5 2.1 5.2.1.5.2 1 .3 1 .1.1 0 .8-.3 1.7-.6 2.3-.6 3.8.3 6.2 1.7 4.9 3.2 5.9 6.2 4 2.8-1.8 3.3-1.5 1.1.6-1.8 1.8-1.7 2.1.4.8.7-.4 1.5-.9 1.9-1.1.4-.2.8-.4.9-.5.1-.1.7-.5 1.4-.8.8-.4 1.3-.7 1.4-1 .1-.2.5-1.2 1-2.1l.9-1.7-.1-2.1c-.1-1.2-.2-2.4-.2-2.7 0-.3-.1-1-.2-1.6-.3-3.3-1.2-5.2-3.8-8.4-1.7-2.1-3.6-6.7-4.2-10.3-.2-1.3-.6-.3-.6 1.9-.1 2.3.1 3 1.7 6.9 1.6 3.9 1.8 4.6 1.8 8.4 0 1.7.1 3.5.2 4 .3 1.4.7 3.5.6 3.5l-.4-.6c-.2-.4-1.2-1.5-2.3-2.6-2-2.1-2.3-2.6-1.4-2.1.7.4.7.3.3-1.1-.4-1.5-.3-2 .2-.9.2.4.5 1.1.7 1.6.2.4.4.9.4.9 0 .2.8 1.3 1 1.3.1 0 .1-.2.1-.4-.1-.2-.3-1.6-.5-3.1-.4-3.1-1.1-5.4-2.2-7.4-.8-1.6-1.3-3.2-1.5-4.9-.2-2.1-1.1-1.9-1.3.3-.2 1.4-.4 1.5-.6.3-.1-.8-.2-.9-.3-.6-.2.5-.4.6-1.7 1.4-1.1.6-1 .5.4-1 .4-.5 1-1.2 1.1-1.6l.6-1.2c1.6-2.9 2.1-5.3 1.5-7.1-.1-.5-.6.5-.6 1.3 0 .6-1.2 3.1-1.7 3.7l-.5.6.4-.9c1-2.4 1.2-6.2.3-7.9-.3-.7-.4-.6-.8.8-.5 1.9-1.4 3.9-1.6 3.9-.3 0-.4-.4-.5-2.1-.1-.7-.2-1.5-.2-1.8-.1-.4.2.1.9 1.7.3.6.5-1.8.4-4.1-.1-1.6-.2-2.1-.6-3-.3-.6-.9-1.7-1.2-2.4-.4-.8-1-1.8-1.3-2.2-.3-.5-.9-1.3-1.2-1.9-.3-.5-.9-1.6-1.3-2.3-1.5-2.6-3.7-6.2-4.7-7.8-.5-.7-1-1-.8-.4.3.7.3 2.1.1 1.8-.1-.2-.2-.4-.2-.5 0-.1-.1-.2-.1-.2-.1-.1-.4-.5-.6-1-.3-.6-.4-.7-.3-.3.1.3.2 1 .2 1.5l.1.9-.4-.7c-.2-.4-.5-1-.6-1.4-.1-.4-.4-1-.7-1.4-.6-.8-1.5-2.6-1.8-3.4-1.1-2-1.4-1.4-1.3.5m-70.2-.2c0 .1-.1.5-.1.7-.1.4-.1.4.1.2.3-.5.5-1.2.2-1.2-.1.1-.2.2-.2.3m-15.1 2.3c-2.6 3.5-2.7 5.9-.3 8.2 1.2 1.2 1.2 1.2 1.6-.5.9-3.5 1-8.4.1-9.3 0-.1-.7.6-1.4 1.6m102.1-1.6c-1.5.3-2.1.5-3.2.7-.7.1-1.4.4-1.7.5-.2.1-.7.4-1.1.5-1.1.3-1.9 1.2-1.9 2 0 .9.4.9 1.4.1.7-.6.7-.6 2.1-.5 3.6.4 3.9.5 2.1.6-3.7.3-5.8 2.1-2.5 2.2 2.3 0 3.4.2 4.4.6.5.2 1.2.5 1.5.7l.7.3-1.8.2c-1 .1-1.9.2-2.2.2-.5 0-.5 0-.2.6.1.3.5.6 1 .7.8.2 3.9 2 4.2 2.5.3.4-.2.4-1.5 0-1.1-.3-2-.4-2-.1 0 .5 4.1 7.5 4.8 8.1.2.2.4.5.5.7.1.3.4.4.9.4.4 0 .9.1 1.1.2.3.2.5.1.7 0 .2-.2.3-.1.3.5 0 .4.1 1.3.1 2.1l.1 1.3 1 .6c1.1.7 4.2 3.7 4.2 4.1 0 .3-.2.3-1.7-.5-.8-.4-1.7-.7-2-.8l-.6-.1.5 1.1c.9 2.3 1.1 2.6 2.1 3.6 1.6 1.7 2.1 1.9 2.9 1.1.3-.3.9-.7 1.2-.9.7-.3 1.7-1.3 2.8-2.8.5-.7 1-1.4 1.2-1.6l.3-.4-.1.6c0 .3-.2.7-.4 1-.4.6-1.1 2.8-1.1 3.3 0 .4.6 1 1.4 1.1.3.1 1.3.7 2.2 1.5 2.2 1.7 2.1 1.7 2.4-.1.6-3.8 1.7-6 3.6-7.3 1.4-1 1.4-1.1-.4-2.2-.9-.5-1.6-1-1.7-1.1-.1-.1-.4-.2-.7-.3l-.6-.1.7-.3.7-.3-.5-.3c-.3-.2-1.6-.7-3-1.2s-2.6-1-2.8-1.1c-.2-.1-.7-.5-1.2-.8-.5-.3-1.1-.8-1.5-1.1-.3-.3-.9-.8-1.3-1.1-.4-.3-.7-.5-.6-.6.8-.5 7.8-.6 10.2-.2.7.1 1.3.2 1.3.1.2-.2-.7-.5-1.8-.7-2-.4-2.2-.4-3.5-.7-.1 0-.3 0-.4-.1-1.7-.1 2.6-1.2 5.4-1.3 2.4-.1 2.2 0 2-1.3-.1-.6-.2-2.4-.2-3.9v-2.8l-.5.1c-1.7.4-2.3.4-3.4-.2-1.3-.6-4-1-5.6-.8l-1.1.1-1.9-1.8c-2.3-2.3-3.4-2.8-6-3.1-.4 0-1.1-.3-1.7-.5-1.3-.6-6.5-1.2-7.6-1m15.3.6c.5.4 1.8.9 1.9.8.2-.2-1.3-1.1-2-1.1-.3 0-.3 0 .1.3m-78.9 1.3a3 3 0 0 0 .3 1.8c.2.5.4.9.3.9-.2 0 .5 1.1 1.1 1.7 1.9 1.9 2.8 1.9 6.8.3.9-.4.8-.5-.7-.9-1.3-.3-3.3-1.2-3.8-1.6-.1-.1-.7-.6-1.2-1s-1.3-1.1-1.6-1.4c-.9-.8-1.1-.8-1.2.2m25.8-.6c-.4.1-1.7.5-3 1-1.3.4-2.9.8-3.6.9-1.3.1-1.6.5-.8.8.2.1.7.4 1.1.7 1.2.9 2.7.5 4.9-1.3.7-.6 1.6-1.2 2.1-1.4 1.6-.7 1.2-1.2-.7-.7m136.3.8c.2.3.4.9.6 1.2.3.5.7 3.6.5 3.6-.5 0-1.2-1-1.2-1.6 0-.4-.2-1.4-.4-2.1-.6-1.7-.2-2.5.5-1.1m-79.3.1c2.1 1.1 3.1 1.2 1.3.1-.5-.3-1.3-.6-1.7-.6l-.8-.1 1.2.6m-39 .8c-.2.1-.2.2.1.3.4.2.6 0 .4-.3-.1-.1-.3-.1-.5 0m113.1.7c-.7.8.2 4.1 1.1 4.3 1.3.3 1.5-.6.6-2.9-.6-1.6-1.2-2.1-1.7-1.4m-45.1 1.8c0 1-3.3 3.6-5.3 4.2-.6.2-.6.2-.3-.1.2-.2.4-.2.5-.2.1.1.2 0 .2-.2s.1-.3.2-.3.7-.5 1.4-1.2c.7-.6 1.5-1.3 1.9-1.4.3-.1.8-.5.9-.8.4-.7.5-.7.5 0m-5.8.8c-.1.2-1.9 1.2-2.2 1.2-.1 0 .4-.3 1-.7 1.4-.7 1.4-.7 1.2-.5m-134.4 2c-.3.7-.8 1.8-1.1 2.3s-.5 1.1-.6 1.2c-.1.1-.1.2-.2.3 0 .1-.1.6-.2 1-.4 1.7-.3 5.3.3 7.9.3 1.4.5 2.7.5 2.8 0 .2.1.4.1.5.1.1.2.5.3.8.2.9-1.1-1.8-1.8-3.8-.3-1-.6-1.9-.6-2.2s-.2-1.3-.3-2.3L78 270l-.1 1.2c-.8 7.8 1.9 14.5 6.9 17 1.7.9 1.9.8 1.1-.3-.8-1.1-1.8-3-1.6-3.1.1-.1.7.5 1.5 1.3.9 1 1.7 1.6 2.6 2.1.7.4 1.6.9 2 1.1 1.1.7 1.8.6.7-.1-.9-.6-1.8-1.4-2.3-2.1-.3-.5-.2-.4 1.2.6 2.2 1.5 3.2 1.9 4.1 1.2.6-.5.7-.4.3.4-.3.6-2 2-2.4 2-.2 0-1 .3-1.9.6-1.9.7-2.7.7-4.2.2-1.2-.4-1.3-.4-1.3.4 0 4 8.1 5.7 12.9 2.7 1-.6 1.3-.7 1-.3-.1.1-.2.3-.2.4 0 .3-1.5 1.7-2.4 2.3l-.9.6.5.3c.3.1 1.3.7 2.3 1.1 2.8 1.4 9.1 7.4 11.4 10.9l1.2 1.9.9-.1c4-.5 8.3-1.8 8.8-2.7.4-.7.3-.8-.6-.4-.7.3-1.4.4-3.3.6-1.1.1-1 0 1.5-1.2 2.9-1.4 2.9-1.4 2.8-4.4-.2-5.1-2.5-7.6-6.1-6.7-.9.2-1.3.2-1.6.1-.2-.1-.9-.4-1.5-.6-2.7-.9-4.9-2.4-6.2-4.2-.8-1.2-.8-1.1 1.6.4 2 1.3 4 2.2 5.1 2.2h.6l-.4-.6-2.2-3.5c-1-1.6-2.2-3.7-2.5-4.5-1.4-3.2-2-3.9-4.4-5.3-2.3-1.4-2.8-1.6-4.9-1.6-2.4 0-2.3 0-2 1.3.2.6.2 1.4.2 1.9l-.1.9-.7-1.3c-.7-1.4-1.4-2.1-2-2.1-1.6 0-4.8-2-6.2-3.8-1.4-1.9-4.1-7.8-4.1-8.9 0-.2-.1-.6-.3-1-.3-.8-.4-2-.1-3.1.2-1.7-.1-1.9-.8-.5m36.5-.5c-.2 0-.4.2-.4.3 0 .3.9.2 1.2-.1.2-.3.1-.3-.8-.2m-49.1 2c0 3 1.9 9.5 2.4 8.5.7-1.1 0-5.1-1.4-8-.9-2.2-1-2.2-1-.5m44.8-.9c-.3.1-.2.1.6.1.6-.1 1.1-.1 1.2-.2 0-.2-1.3-.1-1.8.1m37.8 1.9c-2.4.9-4 1.7-5.6 2.9-.7.5-1.3.9-1.4.9-.4 0 3.3-3.3 3.7-3.3.1 0 .1-.1.1-.2 0-.6-7.2 1.4-9.9 2.7-2.4 1.2-6.6 5-9 8.1l-.9 1.1 1 1.2 1 1.2-.7.9c-.4.5-1.2 1.3-1.8 1.8-4.3 3.4-8.2 6.4-9.5 7.2-.7.5-.7.4.5 1.9.6.7 1.3 1.8 1.5 2.3l1.6 3.2 1.1 2.2c0 .1 3.2-2.5 4.2-3.5.3-.3 1.3-1.1 2.3-1.9 1-.8 2.1-1.6 2.3-1.8.3-.3 1.2-.9 2.1-1.5 1.9-1.2 1.9-1.2.9-3.7-.7-1.8-.8-2.1-.5-2.2.1 0 0-.1-.1 0-.3.1-.5-.3-.3-.5.3-.3 1.3 1 2 2.4.8 1.6 2.2 5.3 2.2 5.7 0 .2.1.3.2.3s.2-.1.2-.2c0-1.3 4.5-5.2 8.8-7.6 3.5-2 4.9-2.2 3-.4-1.2 1.1-1.5 1.5-3 3.3-.5.6-1.1 1.3-1.4 1.7-.7.8-.6.8 1.1-.1 2-1 5.1-1.9 6.9-2.1l1.5-.1v-1.2c0-1.1.6-6 .8-7.1.1-.3.3-1.4.5-2.5.4-2 .4-2 0-2.6-.5-.9-1.3-3.1-1.7-4.9-1-4.8-.9-4.7-3.7-3.6m129.7 2.4c0 .1 11 8.3 11.7 8.6.2.1.2 0 .1-.4-.4-1.9-.4-1.9-2-3-1.8-1.2-4.2-3-5.4-4-.5-.4-1-.8-1.3-.9-.4-.2-3.1-.5-3.1-.3m-75.4 1.3c-.1.1-.1.9-.1 1.7v1.7c0 .1-.1 1.8-.1 3.8 0 4.3-.2 4.8-2.8 9.9-1.3 2.6-1.8 4.1-1.8 6v1.1l.9-1.8c.5-1 1.1-2 1.3-2.2 1.7-1.9 2.5-3.3 3.7-6.6.6-1.6.7-7.8.3-8.9-.2-.4-.5-1.7-.8-2.8-.3-1.3-.5-2-.6-1.9m68.9.9c-1.2 1.1-2.2 2.3-3 4-.7 1.4-1.8 4.3-1.7 4.5.2.2 20.3 5.5 20.4 5.4.1-.1.2-.4.3-.7s.5-1.3.9-2l.8-1.4-6.8-4.2c-3.7-2.3-7.4-4.7-8.1-5.3-1.6-1.4-1.6-1.4-2.8-.3m47.9 1.1l-.7.1h.8c.4 0 .9-.1.9-.2.3-.1.1-.1-1 .1M122.3 282c-2.8 2.8-4.8 4.4-7.3 5.5-1.4.6-1.7.9-.6.8.4 0 .8 0 1 .1.8.4 7.4-4.8 11-8.6l.5-.5h-1.8l-2.8 2.7m3.4.2c-1.5 1.4-2.8 2.6-3 2.6-.1 0-.3.1-.3.1-.1.3-1.8 1.5-3.2 2.4-.8.5-1.7 1.1-2.1 1.3l-.8.5.6.5c.8.7.9.6 4-2.1.3-.2.9-.8 1.5-1.2 5.2-4.1 7.1-5.9 6.8-6.3-.4-.7-.9-.4-3.5 2.2m213.2-2.4c0 .1.2.5.5.7.3.3.9.9 1.3 1.5l.8 1.1v2c0 1.9 0 2 .6 2.8.7 1 .6 1.2-.3.4-.8-.7-.8-.7-.6 0 .1.4.1.9 0 1.4-.1.4-.1 1-.1 1.2 0 .2-.1.1-.3-.3-.2-.4-.4-1-.4-1.4 0-.8-.2-1.5-.4-1.5-.1 0-.2.2-.2.4s-.2-.2-.3-1c-.1-.8-.3-1.4-.4-1.4-.2 0-.2.1-.3 1.2 0 .4-.1 1-.1 1.5l-.1.8-.2-.6c-.1-.3-.2-1.2-.2-2 0-1.8-.2-1.6-.9.9-.6 2.2-.5 3 .1 5.2.7 2.5 1 2.8 3 3.2 1.2.2 1.2.2.6.4-1.1.5-2.7 2.7-3.1 4.4-.3 1.2 2.9 1 4.2-.2 1-1 1.2-.7.4.6-.6.9-.6 1-.3 1.2.4.3.4.3-.8 0-1.6-.5-3.2.1-4.8 1.8-.8.9-.9 1.1-.2.8 1.8-.7 4.4-.4 5.6.6.4.3 1.2 1 1.7 1.4 1 .8 1 .8.9 1.7-.1 1.3.1 1.3.6.1.5-1.4.7-2.9.4-3.7-.3-.9.3-.2.6.8s.7.5 1.2-1.4c.1-.2.1 0 0 .5-.1.8 0 .9.2.9s.3-.1.2-.7c-.2-1.3-.2-2.8.1-4.4.3-2.2-.2-3.9-.6-1.8-.2.8-.9 2.9-1 2.8 0 0 0-.5.1-.9.1-.5.2-2.5.3-4.6 0-2 .1-4.3.2-5.1.1-1.4.1-1.4-.3-1.4-.3 0-.5.1-.5.4-.1.2-.2.4-.3.4-.3 0-.2-.4.3-.8 1.1-1.1 1.5-1.9 1.6-3l.1-1.1-.7-.4c-.4-.2-.7-.5-.7-.7s-.4-.6-.8-.9c-1.3-1-4.1-2.8-4.1-2.7 0 .1-.6-.2-1.4-.6-1.2-.9-1.2-.9-1.2-.5m-69.3 2.4c-.1.6-.1 1.1 0 1.1.2.2 20.3 3.6 20.6 3.5.4-.2.4-1.1 0-1.2-.2-.1-4.8-1-10.1-2.1s-9.8-2.1-10-2.2c-.3-.1-.4.1-.5.9m45 5.4c0 .2 1.1 1.6 2.5 3.2 1.7 1.9 2.5 3 2.4 3.2-.2.5.1 1.1.3.7.4-.6.2-1.4-.7-2.4-2.3-2.6-3.3-3.8-3.8-4.4-.4-.7-.7-.8-.7-.3m-44.6 3.3c.2 1.3-.2 1.1 5.4 1.8 2.7.3 7.2.9 9.9 1.2 2.7.3 5 .6 5 .5.1-.1-.2-1.9-.3-2 0 0-4.3-.6-9.4-1.2-5.1-.6-9.6-1.1-10-1.2l-.7-.1.1 1m-78.2.8c0 .6.1.7 1.9 1.9 3.7 2.4 3.6 2.4 3.6 1.4 0-.4-.1-.7-.2-.7-.3 0-3.1-1.8-4.2-2.7-1.1-.7-1.1-.7-1.1.1m39.4 1.6c-.3.5-.5.9-.4.9.2 0 1.3-1.8 1.1-1.8l-.7.9m-97.4 1.2c-2.3 1.7-4.4 3.2-8.4 5.9l-1.4 1 .1 1.5c0 .8.1 1.5.1 1.5.1 0 3-2.3 4.4-3.5.3-.2 2.3-1.7 4.5-3.3 3.4-2.4 4-2.9 3.9-3.3-.1-.2-.1-.7-.1-1 0-1-.2-.9-3.1 1.2m27.7-1.6c0 .1.2.4.4.8.2.3.6 1.3.9 2.1.3.8 1 2.4 1.6 3.6 1.7 3.3 2.6 6.7 2.7 9.6.1 2.1.4 5.8.6 6.2.1.2.4.6.6.8.2.3.6.9.8 1.4.2.5.6 1.3.9 1.6l.6.7-.7-1.3c-1.4-2.6-1.8-4.5-1.9-8.4-.1-5.5-.8-9.3-2.1-10.9-.4-.4-.6-.9-.7-1.7-.2-1.7-.6-2.6-1.3-3-.3-.2-1-.6-1.4-1-.6-.4-1-.6-1-.5m-45.3 1.4c0 .2.1.4.3.4.3 0 .3 0 .2-.5-.2-.4-.5-.3-.5.1m231.4-.2c-.2 1.5-.2 2.1 0 2.1.4 0 .6-1.4.2-2-.1 0-.1-.1-.2-.1m-155.8 1c0 .8 3.1 3.1 4.3 3.1.5 0 .9-.6.5-.7-.1 0-1.2-.7-2.4-1.5-2.7-1.7-2.4-1.6-2.4-.9m157.9.5c-.2.7 0 .8.2.2.1-.3.1-.5.1-.6s-.2.1-.3.4m-189.8 1.3c-.1.3 0 .4.2.4s.3-.2.3-.4-.1-.4-.2-.4-.2.2-.3.4m188.5.1c0 .2.1.3.2.4.1.1.2-.1.2-.3s-.1-.4-.2-.4-.2.1-.2.3m1.8 0c0 .2.2.8.4 1.3.6 1.3.4 1.3-.4.1-1.1-1.7-1.2-1.2-.9 2.9.3 3.2 1.4 6.2 2 5.4.2-.3.2-.2.2.6 0 2.2 1.5 5.9 1.8 4.6.1-.2.1-.1.1.2-.1 1.4.9 2.4 1.1 1.1.2-1.2.7-2.1.6-1-.1.9.1 2.3.3 2.1.1-.1.3-.6.5-1.1.5-1.3 1.8-2.6 2.6-2.6.6 0 1.7.6 1.5.8-.1.1 0 .1.1.1s.2.1.2.2-.2.1-.4.1c-.2-.1-.4 0-.4.2 0 .1-.1.1-.3-.2-.5-.7-.7-.5-.7.8 0 .7-.1 1.3-.2 1.3s-.2-.3-.1-.8c0-.5 0-.7-.1-.7-.1.1-.2 0-.1-.2.2-.6-.4-.8-.7-.3-.4.6-.5 1.4-.6 5.3 0 1.6-.2 3.5-.3 4.2-.2.9-.2 1.3 0 1.6.2.3.1.5-.4 1.3-.9 1.4-.5 1.3 1.3-.3 3.3-2.8 4.8-5.3 5.3-8.8.1-.6.3-1.5.5-2.1.8-2.4 0-4.2-2-4.7-.4-.1-.9-.4-1.1-.6s-.6-.4-.8-.5c-.3-.1-.3-.1 0-.1.4 0 .4-.3 0-.7-.2-.1-.4-.4-.3-.5.1-.7-1.9-3.6-3.2-4.7-.7-.6-1.7-1.7-2.1-2.3-1.5-2.2-1.6-2.3-2.5-2.3-.8 0-.9 0-.9.3m-201.2.5c-.9.2-3.7.6-4.3.6-.9 0-3.7 1.6-3.7 2.1 0 .6 0 .6 1.7 0 1.8-.6 7.6-.8 9.3-.2.1 0 .6.1 1 .2 2.6.4 3.4.6 4.5 1.1.7.3 1.3.5 1.4.5.1-.1-1-3-1.2-3.3-1.1-1-6.5-1.5-8.7-1m125.1 1.7c.2.3.6.7.9.9l.5.4 8.4-.2c9.2-.2 8.6-.1 8.3-.9l-.2-.5h-8c-4.4 0-8.5-.1-9.1-.1l-1.1-.1.3.5m-140 1.9c-1.4 1-3.3 2.4-4.2 3.1-.9.7-2.7 1.9-3.9 2.7-2.3 1.5-2.5 1.7-3.5 3.9 0 .1.1.1.3 0 .2-.1.7-.3 1.1-.3 1.4-.3 2.3-.8 5.1-3.2 1.5-1.3 3.3-2.8 4.1-3.3 2.4-1.6 3.8-3.1 3.8-4.2 0-.8 0-.8-2.8 1.3m198.6-.5l-.3 1.2.5.7c1.1 1.4 1.7-.3.8-2.2-.5-1.1-.6-1.1-1 .3m22.9-.1c.5.5 1.2 1 1.4 1.1.7.4-.5-.8-1.5-1.4l-.9-.6 1 .9m-67.5 1.1s-2.4.1-5.2.1c-6 .1-5.9.1-5.2.7l.6.5h15.4l-.4-.7-.4-.7h-2.4c-1.3.1-2.4.1-2.4.1m16.3 1.1c-.1.1.1.2.4.2.4 0 .5 0 .3-.2-.4-.2-.6-.2-.7 0m-30.8.2c0 .2.6.7.7.6.1-.1-.1-.3-.3-.4-.2-.3-.4-.3-.4-.2m84.4 0c0 .2 1.4 2.6 1.6 2.7.3.2 0-.9-.5-1.6-.4-.7-1.1-1.3-1.1-1.1m-57.9 1c.7.8 2.1 2 2.2 1.8.1-.1-1-1.1-2-1.9l-.8-.6.6.7m39.1 1.5c-1.3.2-3.9 1.5-5.1 2.7-.5.5-4.6 1.5-5.3 1.2-.3-.1-.4-.1-.4.1 0 .3 1.4.9 2 .9.2 0 .9.2 1.6.4 4.1 1.3 10 .8 11-1 .5-.8.3-1.2-.3-.8-.4.3-3.8.6-3.8.3 0-.1.5-.2 1.1-.3 1.2-.3 3.4-1.3 3.4-1.7 0-.4-1.4-1.6-2.1-1.8-1-.1-1.1-.1-2.1 0m-35.9 1c.2.4 1 1 1.3 1 .2 0-.2-.5-.9-1l-.6-.4.2.4m39.1.3c0 .2-.4.3-1.4.5-.8.1-1.6.3-1.8.3-.8.3 0-.2 1-.6 1.3-.5 2.2-.6 2.2-.2m-265.9 1.4l-.9 3c-2.3 7.4-3.9 14.6-4.2 19.2-.1.9-.2 2.1-.2 2.6l-.1 1 1-2c1.5-3.1 1.7-2.8.7 1.2-1 4.1-1 6.1.3 9.2.5 1.3.8 1.4.8.3 0-1 .5-3.2.7-3.4.1-.1.2.2.3 1 .1.7.2 1.7.2 2.2.4 3.9 2.1 7.1 4 7.6.8.2.7-4.8-.2-6.2-.6-1-1.6-2.8-1.6-3.1 0-.1.4.2.9.8.9.9 2.2 1.8 2.2 1.5 0-.9-1.4-3.8-2.5-4.9-2-2.2-3.1-4.3-3-6l.1-.8.3.7c.3.6 1.5 2.3 2.3 3.1.3.4.2-4.2-.1-4.7-2.1-3.1-3.3-7.8-2.2-8.9.2-.2.3-.2.7 1.5.3 1.3 1.1 3.2 1.3 3.2.4 0 .4-5.7-.1-7.8-.2-1-.1-4.1.1-4.5.3-.5-.2-6.8-.6-7.2.1.2 0 .7-.2 1.4m245.6-.8c-.5.2-.8.4-.6.5.3.1 1.3-.4 1.5-.7.1-.3.1-.3-.9.2M90 310c-2.5 3.1-2.5 3.2-2.6 5.3 0 2.9.2 3 1.4.7.2-.5.9-1.5 1.6-2.3.6-.8 1.4-1.9 1.7-2.5l.6-1-.6-.9c-.7-1.1-.6-1.2-2.1.7m215.5-1.3c0 .2.6 1.3.8 1.4.1.1 0-.2-.2-.7-.4-.7-.6-1-.6-.7m-199.4.9c.6.8 1 1 .7.5-.4-.7-.9-1.3-1.1-1.3-.2 0 0 .3.4.8m239.9 1.8c-.2.6-.4 1.1-.5 1.1-.2 0-1.2 1.4-1.5 2 0 .1.2.5.5.9 2 2.4 4 5 5 6.4 1.9 2.7 2 2.7 1.5-1.1-.1-.6-.1-2.1 0-3.4l.1-2.3-.6-.7c-3.8-4.5-4-4.7-4.5-2.9m-.9-.2c-.1.2.2 1.2.3 1 0 0 0-.3-.1-.7 0-.2-.2-.4-.2-.3m-95.8.4c1.5.4 1.4.3 1.3 3.1l-.1 2.5-1.2.5c-.7.3-1.3.5-1.3.5-.2 0-.3-.9-.5-3.2-.1-2.2 0-3 .2-1.4 0 .4.2.9.3 1.2.1.3.2.6.1.7-.1.1 0 .2.1.2.3 0 .1-2-.2-3.2-.4-1.1-.2-1.3 1.3-.9m-37.2.7c-1.9 2.3-6.8 9.8-8.6 13.2-.7 1.3-1.6 3-2.1 3.8-.5.8-1.4 2.7-2.2 4.1-.8 1.5-1.7 3.2-2 3.8-.4.6-1.1 2-1.6 2.9-.5 1-1.3 2.5-1.8 3.4-1.1 2.1-1 2 .5-.2 1.7-2.7 2.7-4.1 3.7-5.2.1-.1.4-.5.6-.8.5-.7.7-.5.3.4-.2.4-.2.5 0 .3s.3-.3.4-.2c.3.3 1.6-1.2 4-4.3.6-.8 1.7-2.2 2.6-3.2.8-1 1.9-2.5 2.3-3.2s1.8-3.1 3.1-5.2c3.1-5.2 3.1-5.5-.2-1-1 1.5-2 2.8-2.1 2.9-.1.2-.5.7-.8 1.2-.7 1.1-1.6 2.1-1.6 1.9 0-.2.5-1 .7-1.2.1-.1.1-.1 0-.1s0-.2.2-.5l.7-1.1c.4-.9.8-1.5 1.4-2.4.3-.4 1-1.7 1.5-2.8.5-1.1 1.2-2.3 1.5-2.8.6-.8 1.2-2 1.2-2.2 0-.3-3.3 4-3.9 5.1l-1.8 2.7c-.6.9-1.6 2.4-2.3 3.4-1.8 3-1.6 2.3.4-1.6 1.2-2.2 1.5-2.8 2.4-4.3.1-.2.5-.9.9-1.6.3-.6 1.2-2 1.8-3 1.8-2.9 2.2-3.9.8-2.2m-118.9 4c-1 1.2-2.4 3.1-3.1 4.3-.7 1.1-1.5 2.2-1.7 2.4-.3.3.2 2.5.7 3 .1.1.2.1 4-5.2 3.4-4.7 3.4-4.6 2.6-5.9-.6-1.1-.5-1.2-2.5 1.4m132.9-1.7c-.6.7-1.7 1.8-1.9 1.8-.1 0 .3-.5.9-1.1 1.1-1 1.6-1.4 1-.7m-22.8 3c-3.7 5.5-4.6 7-5.4 8.7-.5 1-1.1 2.3-1.4 2.8-.3.5-.8 1.5-1.1 2.1-1 1.8-3.4 5.7-5.4 8.8-1.5 2.3-1.9 2.8-3.3 4.7-.5.7-1.7 2.3-2.5 3.6s-1.7 2.4-1.8 2.5c-.1.1-.4.5-.7.9s-.8 1.1-1.2 1.6c-.6.7-.7.9-.4.9.4 0 1.4-.5 1.5-.8.1-.2.3-.5 2-2.6.4-.5 1.7-2.1 2.7-3.5 4.4-5.8 3.7-4.1-1.4 3.7-1.3 2-1.4 2.4-.4 1.8 1.3-.8 5.8-7.5 10.3-15.4.7-1.2 2-3.4 3.1-4.9s2.3-3.7 2.9-4.8c.6-1.1 1.5-2.8 2.1-3.7 1.1-2 1.1-2.6 0-.7-.4.7-1.6 2.6-2.8 4.3-1.1 1.7-2.4 3.7-2.8 4.5-.8 1.5-1.5 2.4-1.5 2.1 0-.4 1.3-3.4 2.1-5.1.5-.9 1.7-3.3 2.8-5.4s2.4-4.6 2.9-5.5c2-3.8 1.9-3.9-.3-.6m39.1-1.7c.1.5.1.6.2.2 0-.3 0-.5-.1-.6-.2-.2-.2 0-.1.4M237 317c0 .4 0 .5.1.3v-.7c-.1-.1-.1 0-.1.4m-6.6-.2c-.1.1 0 .3.1.4.2.2.2.1.2-.2 0-.4-.1-.5-.3-.2m-84.3.3h.7c.2 0 0-.1-.3-.1-.4 0-.5.1-.4.1m194.9.3c-.2.2-.2.2 0 .5.2.2 2 2.3 4 4.6s4.3 4.9 5 5.8l2.8 3.2c.9.9 7.7 8.6 15.2 17.2 7.5 8.5 13.8 15.5 13.9 15.6 1.2.4.4-.6-6.2-8-11.1-12.6-19.1-21.7-20-22.8-.5-.6-1.3-1.5-1.8-2s-1.7-1.9-2.6-3.1c-.9-1.2-1.8-2.2-2-2.3-.2-.1-2-2.1-4.1-4.5-2.1-2.4-3.8-4.3-3.9-4.3.1-.1-.1 0-.3.1m-257.9 1.7c-1.3 1.8-1.7 3-1.8 5.7-.1 3.1-.1 3.2.6 2.1.8-1.2 1.9-2.7 2.1-2.7.1 0-.2.8-.5 1.7-1.1 2.8-2.2 9.6-1.5 9.2.4-.3 1.2-1.6 1.3-2.3.1-.4.2-.7.3-.6.1.1.1.2.1.3-.2.3.6 2.8 1 3.1.4.3.9-.1 1.7-1.5l.6-1-.7-1.1c-.4-.6-.8-1.3-1-1.5-.5-.5.4-3.4 1.4-4.4.5-.5.6-.7.5-1.3-.1-.6-.3-2.4-.4-3.2-.1-.8-.4-2.1-.5-2.2-.2-.1-1.6 1.4-2.3 2.6-.7 1-.9 1.1-.8.1.1-.9.6-2.2 1.3-3.3l.5-.8h-.5c-.4 0-.7.3-1.4 1.1m256.6-.9c-.2.2-.2.2 0 .5.2.2 2.4 2.7 4.9 5.6 2.5 2.9 4.7 5.5 4.9 5.9.1.3 1.5 1.9 3 3.4s8.3 9.1 15.2 16.8c10.3 11.7 12.6 14.1 13 14.1.5 0 .5 0 .2-.3-.2-.2-6-6.8-13-14.8-7-7.9-12.8-14.5-12.8-14.7-.2-.5-2-2.5-6.2-6.9-.9-.9-3.2-3.5-5.1-5.7-1.9-2.2-3.6-4-3.6-4-.2-.1-.4 0-.5.1m-33.4.8c.1.9.6 1.3.8.5.1-.8 0-1.3-.4-1.3s-.5.1-.4.8m-110.4 1.1c-.2.2-.8 1.1-1.5 2-1.2 1.5-2.5 3.3-2.8 3.5-.6.6-4.3 5.4-6.2 8.1-.6.8-1.2 1.6-1.3 1.7-.2.2 1.4-2.6 2.9-4.8.8-1.2 1-1.8.4-1.2-.7.7-2.9 3.3-3 3.5-.1.1-.5.7-1 1.3-.5.6-2.2 2.9-3.9 5.2-3.7 4.8-5.1 6.7-6.4 8-.5.5-1 1.1-1.1 1.3-.1.2-.2.2-.3.2-.1-.1.2-.5.6-1.1.4-.5 1.3-1.8 2.1-2.9 1.5-2 2.8-4.1 5.5-8.6.8-1.4 1.8-2.8 2.1-3.2.9-1.1 4.1-6 4.1-6.2 0-.1-.4.4-.8 1-1 1.3-4 5.6-4.4 6.2-1.2 1.7-2.6 3.7-3 4.1-.3.3-.7.8-.9 1.2-.4.6-1.2 1.6-2.7 3.4-.8.9-.5.3.3-.9.4-.6.9-1.4 1.2-1.8.2-.4.5-.8.6-1 .1-.1.6-.7.9-1.3s.8-1.3 1.1-1.5c.2-.2.3-.5.3-.5-.1-.1-.5.3-.9.8-1.2 1.4-4.4 5.3-5.1 6.3-.4.5-.8 1.1-1 1.3-.2.2-1.4 1.7-2.7 3.3-1.3 1.6-2.9 3.5-3.6 4.2-.8.8-1.3 1.4-1.3 1.7 0 .2-.8 1.4-1.8 2.7-2.1 2.6-2.1 2.6.4 2.1.8-.2 1.6-.2 1.8-.2.6.2 1.4-.4 3-2.3 3-3.7 6.5-7.8 7.4-8.7.5-.5.9-.9.9-1 0-.1.2-.4.5-.8.7-.9.7-.4 0 .8l-.6 1c0 .1-.8 1.3-1 1.5-.1.1-.3.4-.6.8-.7 1.1-4.9 6.5-5.4 7.1-.7.7-.5.8.9.4 1-.3 1.3-.5 2.1-1.4.5-.6 1.4-1.6 2-2.3.6-.6 1.9-2.2 2.9-3.4 1-1.2 2.2-2.7 2.7-3.2s1.1-1.2 1.4-1.6c1.7-2 2.6-3 2.7-2.9.1.1-1.7 2.7-2.4 3.5-.7.7-1.9 2.3-3.1 4.2-.5.8-1.8 2.5-2.8 3.8-1 1.3-1.7 2.3-1.6 2.3.3 0 2.4-.6 2.5-.6.1-.1 2.3-2.8 2.5-2.9.4-.4 2.3-2.8 4.7-6 2.3-3 4.4-5.8 5.6-7.2.1-.1.5-.7.9-1.3.4-.6.8-1.1.9-1.3 1.1-1.4 3-4.3 3.4-5.2.8-1.5 2-3.7 2.6-4.6.3-.4.7-1.3.9-2 .2-.6.5-1.4.6-1.7.7-1.3 0-.4-1.1 1.5-1.2 2-1.7 2.7-1.4 1.8.1-.3.3-.6.4-.8.3-.6 1.2-2.7 1.1-2.7-.1-.1-3.1 4.8-3.6 5.9-.2.4-.7 1.1-1 1.5l-.6.7.5-1c.3-.5.7-1.5 1-2.2s1-2.3 1.7-3.6c2.1-4.2 1.1-2.9-2.9 3.8-2.6 4.4-4.1 6.5-6.2 8.9-.8.9-1.7 2.3-1.7 2.6 0 .6-6.4 8.4-6.9 8.4-.1 0 .3-.7.8-1.5.6-.8 1.1-1.5 1.2-1.5.1 0 .2-.1.2-.2s1-1.7 2.2-3.6c1.2-1.9 2.6-4 3.2-4.9.8-1.2 3-4.3 4.6-6.4.2-.3 1.7-2.3 3.3-4.6 1.6-2.3 3-4.2 3.1-4.3.2-.3.7-1.1.6-1.1-.4 0-.5.2-.7.4m66.6 0c1 .5-.3 1.1-3 1.4-5.7.6-14.1 6.3-17.1 11.5-.7 1.2-1 1.3-.5.2.4-1 .3-1-.5-.2-.4.4-.7.6-.7.5s-.2.1-.5.4c-.3.3-.5.5-.6.5 0 0 .3-.5.8-1.1.5-.5 1.4-1.6 2.1-2.3 5.6-6.5 10.7-9.7 17.2-10.8 2.4-.3 2.4-.3 2.8-.1M143 321.3c-.4 0-.7.2-.8.5-.4.9-10.4 35.9-10.3 36 .2.2 3.6-.3 4.6-.7.6-.2 1.6-.5 2.4-.7 2.3-.5 3-.9 3.1-1.5.4-2.1 5-33.3 4.9-33.4 0-.1-3.1-.3-3.9-.2m220 1.1c-1 2.7-1.7 3.9-3 4.7-3.4 2.3-3.7 2.7-2.4 4 4 4.1 5.7 5.9 6.5 7.1.5.8 1.1 1.4 1.3 1.5.2.1 1.1 1 2.1 2.1 14.5 16.7 19.8 22.5 20 21.8.1-.2-4.7-5.9-6.4-7.7-1.9-2-3.1-3.6-4.4-5.6-.6-1-1.1-1.8-1.2-1.9-.1-.1-.3-.4-.6-.8s-.9-1.2-1.5-1.9-1.3-1.6-1.5-2.1-.8-1.1-1.1-1.5c-.3-.4-1-1.2-1.5-1.9-1-1.4 2.1 1.6 4.1 4 .6.7 1.6 1.8 2.2 2.5 1.8 1.9 2.5 2.7 3.5 4 .5.6 2.8 3.1 5.1 5.4 2.3 2.3 4.7 4.9 5.5 5.7 1.1 1.2 1.5 1.5 1.8 1.5.4-.1-1.4-2.6-6.7-9-.6-.7-1.2-1.4-1.4-1.6-.7-.9-3.1-3.6-4.2-4.7a83.6 83.6 0 0 1-5.7-7.3c-.1-.2-.9-1.2-1.8-2.3-.9-1.1-1.6-2.1-1.6-2.1 0-.2 4.9 4.8 7.9 8 1.4 1.5 3.3 3.3 4.2 4.1.9.8 2.9 2.6 4.5 4.1 3.3 3.2 3.1 3.1 2.7 2.3-.5-.9-3.3-4.3-5.2-6.4-.3-.3-1-1.2-1.7-1.9-.6-.7-1.3-1.5-1.5-1.7-.7-.8-.3-.8.5 0 1.7 1.6 8.1 8 8.6 8.6 3.4 4.1 6.6 7.2 8.9 8.9l.9.7-.7-.8c-.4-.4-8.5-9.4-17.9-20-20.5-22.8-18.2-20.3-18.3-19.8m-226.5.6c-.8.3-1.6.6-1.7.7-.2.2-11.8 33.2-11.7 33.4.1.1 4.3.7 4.4.6.1-.1 5.9-19.5 10.3-34.2.2-.6.3-1 .3-1-.1 0-.8.2-1.6.5m16 .9c-.3 1.3-4.3 29.7-4.2 29.8.2.2 4-1 4.2-1.3.1-.1.3-1.2.4-2.4.1-1.2.4-3.1.6-4.3.5-3.2 2.1-18.1 2-19.1-.1-.5-2.3-3.1-2.7-3.1-.1-.1-.3.1-.3.4m-23.4 2.4c-3.1 1.7-5.2 2.9-7.4 4.4-1.1.8-2.5 1.6-3.1 2s-1.1.6-1.2.7c-.1.1-.4.4-.9.6-3.5 2.3-4 2.7-6.5 5.8-4.5 5.5-6.2 7.6-6.1 7.7 2 1.8 5.6 4.1 10.5 6.6 5.2 2.7 6.6 3 6.7 1.6.2-1.7 1.1-6.4 1.4-7.5.2-.6 2.1-5.7 4.3-11.3 4.6-11.6 4.6-11.7 4.4-11.7 0 0-1 .5-2.1 1.1m100.9 6.6c-2.8.6-6.7 2.4-8.4 3.8-3.5 2.8-4.6 4-6.2 6.9-.4.6-1 1.9-1.5 2.7-.5.9-1.1 1.9-1.3 2.3-1.1 2.1-1.7 3.1-1.8 3-.1-.1.5-1.4 1.1-2.4.1-.2.6-1.1 1-2.1l.8-1.7-.6.6c-1.2 1.1-3.5 4.2-5.7 7.4a35.5 35.5 0 0 1-2.4 3.4c-.1.1-.2.3-.2.6s-.2 1.2-.4 2.1c-.3 1.3-.3 1.8-.1 2.9.2 1.1.5 3.8.9 9.1.2 2.7 1.3 10.3 1.5 10.3.1 0 .1-.1.1-.1-.1-.2-.3-1.9-.4-3.7 0-.6-.1-1.7-.2-2.2-.3-3-.3-4.7-.1-4.6.1.1.2-1.1.1-3.7-.1-4.3.2-4.6.5-.6.1 1.3.3 2.5.4 2.7.1.3 1 5.8 1 6.6 0 .1.1.2.2.1s.2-.2.1-.4c-.2-.5-.3-4.9-.2-4.8.1.1.2.3.2.5s.1.7.2 1c.1.4.2 1 .2 1.5 0 .4.2 1.8.4 3s.2 2.3.2 2.4c-.1.1 0 .2.1.2.4 0-.1-6.6-.7-10.8-.8-5.3-.2-10.1 1.5-12 .2-.3.4-.4.3-.2-.2.3-.2 1.1-.5 5-.1 1.7-.3 3.5-.4 4-.1.5-.1 1.7 0 2.6.1 1 .3 2.9.4 4.2.1 1.3.2 2.7.3 3.1.1.7.2 1.8.4 3.9.2 2.5.3 3.4.9 7.5 1.3 9.7 1.8 11.7 2.5 10.9.2-.2-.2-4.3-.9-8.5-.5-2.8-.8-6.3-.8-8 0-.7-.3-4.1-.5-5.9-.3-2-.3-3-.2-2.9.1.1.2.4.2.8.1.6.3 2.2.4 2.6 0 .1.2.7.3 1.4.2.6.3 1.4.4 1.8.5 3.1 1 6.2 1.3 7.8.2 1.1.6 3.1.9 4.6 1 5.8 1.5 7.3 2.6 7.5.8.2.8 0 .2-2.1-.5-1.5-.9-3.8-1.6-7.2-.2-.9-.6-3.1-1-4.9-.4-1.8-.7-3.8-.8-4.4l-.1-1.2.3 1c.1.5.5 2 .8 3.2.6 2.6 1.3 4.9 1.4 4.9.1 0-.1-3.8-.2-5.4-.1-1.2-.3-17-.2-16.9.1.1.2 1.2.4 2.4.6 4.4 1.4 8.5 1.8 9 .6.9 1.7-1 1.5-2.6-.3-2.1-.4-2.5-.7-5.1-.2-1.4-.4-3.4-.6-4.4-.2-1-.3-2.4-.4-3.1-.2-2.8-.3-3.7-.4-3.9 0-.1 0-.2.1-.2s.3.9.5 2 .4 2 .4 2.1c0 .1.1.5.2 1.1.1.5.3 1.6.5 2.4.4 1.5 1.1 5.3 2 10.3l.9 4.6c.2 1 .7 3.6 1.2 5.6.8 4.1.9 4.2 2.9 7.3 1 1.5 2.3 3 2.3 2.7 0-.5-2.3-12.1-2.5-12.7-.3-.8-2-7.7-2.2-9-.1-.3-.3-1.6-.5-2.7s-.6-3.1-.8-4.3c-.4-2.1-.9-4.6-1.1-5.6-1.5-7.3-1.7-13.5-.5-16.1.9-2 3-4.2 6.6-6.8 1.4-1 .8-.9-1.3.2-2.4 1.4-2.4 1.3-.4-.4 1-.8 1.8-1.4 2.8-1.9.4-.2.7-.4.6-.4-.1-.1-3.5 1.5-4.4 2.1-1.6 1.1-2 1.3-1.9 1.1.3-.9 4.1-3.6 7.1-5 1.1-.5 2-1 2-1.1 0-.1-2.8.8-4.2 1.4-.6.2-1 .4-1 .3s-.1 0-.2.1c-.2.2-2 .8-2.2.8v-.2c.1-.2 6.4-3.3 6.7-3.3.1 0 .3-.1.3-.2-.1.2-1.5.2-2.2.3m46 1.3c-.6.6-1.4 1.5-1.9 2.1-.5.6-1.2 1.4-1.5 1.8-1.4 1.5-1 2 .9 1.2 2.1-.9 4.7-1.5 5.6-1.3 1.5.4 1.5-.6.1-1.9-.7-.7-.9-1-1-1.8-.4-1.4-.9-1.4-2.2-.1m-100.5 1.1c-1.7 2-9.5 12.3-11 14.5-.2.2-.8 1.2-1.5 2.1-.7.9-1.6 2.3-2 3-.4.8-1.1 1.5-1.4 1.7-1.3.8-1.8 1.7-.8 1.7.4 0 .7-.3 1.4-1.5 1.4-2.2 4.8-7.3 6.4-9.4.8-1 2.3-3.1 3.4-4.6 1.1-1.5 2.8-3.7 3.7-4.9 2.1-2.7 2.8-3.6 2.7-3.6-.1.1-.5.5-.9 1m-92.7 1.1c-.4.8-.3 3.2.2 4.7.9 2.9 1.7 3.7 1.7 1.5v-.6l.6.6c.9.9 1.4.5 1.7-1.5.2-1.5-2.1-4.1-2.8-3.1-.2.3-.3.3-.4-.4-.2-1.6-.6-2-1-1.2m193.8 3.1c-.1.1 0 1 .1 1.8.2 1.5.2 1.6-.3 2.2-.2.4-.6 1.1-.9 1.5-.4.8-2.8 4-5.5 7.4-.8 1-2 2.3-2.7 2.9s-1.9 1.6-2.6 2.3c-1.5 1.4-4.9 3.6-7.3 4.8-1 .5-2 1-2.3 1.2-.3.2-2.2 1.2-4.2 2.2-5 2.6-5.9 3.2-5.9 4.2 0 .5.1.5.3.5.2-.1 1-.3 1.8-.6 1.4-.5 5-.7 6.7-.4.4.1.4.5.1.7-.4.3-1.9 1.5-2.1 1.8-.2.2-.4.5-.6.7-.3.3-3.4 2.8-4.9 3.9-1.3.9-1.1 1 2 .4 5-.9 10.5-2.8 13.1-4.5.4-.3.9-.6 1-.6.1 0 .2-.1.2-.2s.2-.3.5-.4c.4-.2.4-.1-.3.6-.5.4-1 .8-1.1.8-.1 0-.2.1-.2.2 0 .2-2.1 1.6-3.5 2.4-.6.3-1.4.8-1.9 1-.4.3-.9.6-1.1.6-.2.1-.6.4-1.1.7-1.5 1-3.7 2.1-5.6 2.7-2.3.8-2.2.7-1.9 1.6l.3.7 1.2-.1c2.7-.2 3.3-.3 4.7-.8 2-.6 5.5-2.1 8.2-3.5 4-2.1 6.4-3.3 6.6-3.3.1 0 .4-.1.6-.2l.8-.4c.2-.1.5-.2.6-.2.5 0 4.9-1.9 5.6-2.4 1-.8 1.2-1.1 2.1-3 .6-1.4 2.3-4.6 2.8-5.5.1-.2.5-.8.8-1.3.4-.6 1.3-2 2.1-3.2.8-1.2 1.5-2.2 1.5-2.3 0-.1.3-.4.6-.8s.6-.8.6-.9c0-.1.2-.4.5-.7 1.3-1.4 1.4-2.6.7-4.6l-.2-.6-.8 1.4c-.4.7-1.4 2.1-2.1 3.1-.8 1-1.9 2.5-2.5 3.3-.6.9-1.4 2-1.8 2.4-.4.5-.8 1.1-1 1.3-2.2 2.7-3.5 3.7-1.6 1.1.4-.5.8-1.1.8-1.1 0-.1.4-.7.8-1.4s.8-1.3.8-1.3c0-.1.3-.6.7-1.2 3.6-5.7 5-11.3 2.9-12.1-.1-.1-.4-.5-.6-.9-1.1-2.9-2.2-2.4-2.3.9l-.1 2.5-.6.6c-.3.4-1.2 1.4-1.9 2.4-1.9 2.7-2.2 2.9-2.2 2.7 0-.1.2-.8.6-1.5.4-.7.8-1.8 1-2.4.2-.6.8-1.9 1.3-3l1-1.9-.3-1.5c-.5-2.2-.5-2.2-1-2.7-.4-.3-.8-.4-1 0m-184.8 1.3c.2 1.2.2 1.2.7.9l.4-.2-.5-.8c-.7-1.1-.8-1.1-.6.1m-4.5 5c-1.1.3.4 3.6 1.7 3.6.3 0 .5-.1.5-.2 0-.6-.7-2.6-1.1-3-.5-.5-.5-.5-1.1-.4m-4.4 3.4c-.5 2.7-.2 5.2 1.1 7.7.4.9 3.1 2.8 3.4 2.4.1-.1-.3-1.4-.5-1.8-.1-.1-.4-1.1-.7-2.1-.3-1.1-.7-2.5-1-3.1-.2-.6-.6-1.6-.7-2-.2-.6-.3-.8-.4-.5-.1.3-.2.2-.5-.4-.4-.9-.5-.9-.7-.2m123-.3c-.5.2-1.6.5-2.5.7-.9.2-1.8.5-2 .7-.2.1-.7.3-1.2.4-1.1.2-1.5.2-6.1 1a52 52 0 0 0-11.4 3.3c-4 1.6-7 2.6-9.2 3-3.1.6-5 1.3-5.9 2.2-.1.1-.5.3-.8.4-.8.2-1 .5-.8 1.6l.2.9h1.4c1.7 0 7.3-1.3 9.8-2.2 3.1-1.1 4.9-1.6 7.6-2.1 1.4-.3 2.8-.5 3.1-.6 1.3-.3.2.3-1.6 1-5 1.8-6.1 2.2-8.3 3.2-1.2.6-2.8 1.3-3.5 1.6l-1.3.6 1-.1c.6-.1 1.6-.2 2.2-.2 1.1-.1 4-.5 6.8-.9 3.4-.5 5.1-.3 2.3.2-1.5.3-3.6.9-5.2 1.5-.8.3-2.5.8-3.9 1.2-3.7 1-3.6 1.1 1.2 1 2.3-.1 5.5-.2 7.1-.2 1.7 0 3.6-.2 4.2-.3 4.2-.7 8.3-1 8-.6-.2.3-1.8.9-3.4 1.3-.7.2-1.4.4-1.7.5-.7.3-5.2 1.1-7.3 1.4-2.8.3-6.9 1-7.1 1.2-.5.5 7.5.6 11.1.2l2.4-.2c.6.2-6.9 2.1-8.4 2.1-.2 0-.4.1-.3.2.1.1.4.1.8.1 2.4-.2 3.2-.3 3.8-.5.4-.1 1.2-.2 1.9-.3.6-.1 1.4-.2 1.7-.2.3 0 1.4-.3 2.5-.5 2.4-.4 2.3-.2-.2 1-1 .5-1.2.6-.8.7.6.1 5.5-.5 6.3-.8.4-.1 1.1-.2 1.7-.2 1.4 0 1.6-.2 1.5-1-.1-.7-.5-.8-2.1-.5l-.7.1.5-.3c.3-.2.6-.3.7-.2.1.1.2 0 .2-.1s.2-.3.4-.3c.6-.2.7-.4.6-1.1-.1-.7-.8-.9-2.1-.5-1.6.4-1-.2.7-.7l1-.3-.1-1.6c-.1-.9-.1-2.3-.1-3.2v-1.6h-.6c-.8 0-.7-.3.3-.8.9-.4 1.8-1.7 1.6-2.3-.1-.1.1-.4.3-.6.4-.3 1.8-2.6 1.7-2.7-.1-.1-2.4.5-3.1.8-2.4 1-1.6.2 1.6-1.5 2.6-1.4 3.1-1.9 3.1-3 0 0-.2 0-.4.1s-.5.2-.6.2c-.1 0-.4.1-.5.2-.3.1-2.8 1-3.3 1.1-.2 0-.3.1-.4.2-.1.1-.4.2-.7.4-.7.3-.5.1.5-.5.4-.2.8-.4.8-.3.1.1.1 0 .1-.1s.8-.5 1.7-.9c3.3-1.4 3.9-1.7 4-2 .3-.6.3-.6-.8-.3m-129.1 2.7c.8 1.8 2.1 4 3 5.2.9 1.1.9 1 .6-1.1-.2-1.6-.3-1.8-.9-2.3-.4-.3-1.2-1.1-1.8-1.7-1.4-1.4-1.4-1.4-.9-.1m11.1.9c-.8.9-.4 2.5.9 3.9.2.2.3.4.3.5 0 .9 1.3 1.3 1.6.5.7-2.8-1.4-6.5-2.8-4.9m9.3 6.9c.4 1.2 1.5 2 2.5 1.9 1.3-.2-.5-2.3-1.9-2.3-.7 0-.7 0-.6.4m-13.5.2c-.2.5 2.1 2.9 3.6 3.7 1.2.6 1.3.5.6-.9-1.1-2.1-3.8-3.9-4.2-2.8m24.4 1.6c0 .6 0 1.1.1 1.1s.2.2.2.5.1 1 .1 1.7c.1 1.3-.3 2-1.4 2.2-1.5.3-1.4.6.3.8.8.1 1.6.3 2 .5.8.5.7.6-.2.4-1-.3-2.8-.2-3.5.2-.7.4-.7.8-.4 2.6.2 1.2.2 1.2 1.8 1.1 1.5 0 4 .9 4 1.4 0 .1-.4 0-.8-.2-.8-.3-3.9-.5-4.2-.2-.5.5.7 1.7 1.5 1.5.1 0 .5.1.9.3l.7.3-.9.1c-.9.1-.9.1-.6.4.2.2.4.4.5.4.1 0 .4.2.7.4.5.4.6.4 1.2.2 1.9-.6 4.5 0 5.5 1.5.5.7 1.2.8 2.6.3.8-.3-.2-1.8-1.4-2-.6-.1-.6-.1-.2-.3.6-.3 1.4 0 2.3.9 1 .9 1.5.9 3-.1 1-.6.2-1.2-1.2-1-.6.1-.7-.2-.2-.4 1.2-.3 1.7-.3 2.4 0 .9.4 1.1.3 2.2-1.2.7-.9.7-1 .2-1.2-.2-.1-.1-.1.3-.2.7-.2 2.7-2.2 2.5-2.5-.1-.2-1.5-.2-2.6 0-.5.1-.9.1-.9.1-.3-.3 1.7-.9 3.1-1 1.5-.1 1.5-.1 1.9-.8.5-.9.6-.9-1.9-1.1-2.9-.3-6.1-1-9.5-2.3-.7-.3-1.8-.6-2.4-.8-2.4-.7-3.6-1.4-6.5-3.6-.7-.5-1.2-.9-1.3-.9.1-.1.1.3.1.9m-16.4-.3c-.1.5.7 2 1.3 2.3 3.3 1.7 4.1 1.4 2.8-.9-.9-1.7-3.8-2.7-4.1-1.4m96.8 0c0 .1-.3.2-.7.2-.7 0-.7 0-.2-.2.6-.2.9-.2.9 0m-99.3 1.4c-.8 1-.5 2 1 3.4s2 .9 1.3-1.5c-.3-1.4-1.7-2.6-2.3-1.9m12.7 2c.3.8.8 1 1.1.6.1-.2-1-1.3-1.3-1.3 0-.1 0 .2.2.7m142.6.3c-.3.2-.5.3-.4.4.1.1.4-.1.7-.3.7-.5.5-.6-.3-.1m-151 1.6c-.4.6 1.8 3.7 3 4.2 1 .4 1.1.4 1-.7-.3-2-.8-2.7-2.5-3.4-1.1-.3-1.4-.4-1.5-.1m23.3 5.6c1.2.6 1.9 1.6 1.5 2-.4.3-.7.1-1.4-.8-.4-.5-.9-.9-1.4-1.1-.4-.2-.9-.4-1-.5-.2-.2 1.7.1 2.3.4m-12 4.4c-.8.3-.8 1.7 0 2.3.6.4 2.2.4 2.5-.1.3-.6-1.4-2.6-2-2.4-.1 0-.3.1-.5.2m5.8 2c-.6.7-.4 1.8.3 2.1.3.1.6.3.6.5 0 .3 1.8.8 2.4.6.7-.2 1-1.5.6-2.2-.6-1-3.4-1.7-3.9-1"/></svg>