<?xml version="1.0" encoding="utf-8"?>
<!-- Generator: Adobe Illustrator 22.1.0, SVG Export Plug-In . SVG Version: 6.00 Build 0)  -->
<svg version="1.1" id="svg" xmlns="http://www.w3.org/2000/svg" xmlns:xlink="http://www.w3.org/1999/xlink" x="0px" y="0px"
	 viewBox="0 0 410 410" style="enable-background:new 0 0 410 410;" xml:space="preserve">
<g id="svgg">
	<path id="path0" d="M222.9,20.6c-0.3,0.8-0.2,0.8,0.6,0.1l0.6-0.7h-0.5C223.2,20,223.1,20.1,222.9,20.6 M246.5,20.6
		c0.7,0.7,0.8,0.7,0.4,0c-0.2-0.3-0.4-0.5-0.7-0.5C245.9,20,246,20.1,246.5,20.6 M231.3,89.6c-8.6,1.3-11.3,2.8-9.9,5.4
		c0.7,1.3,2.1,1.5,5.1,0.7c2.1-0.5,5-0.8,8-0.8c3.5,0,5-0.5,5.4-1.7C240.7,90.8,236,88.9,231.3,89.6 M214.2,93
		c-0.7,0.1-1.6,0.2-2.1,0.3c-0.5,0.1-3.5,0.2-7.2,0.3c-9.2,0.2-9.4,0.3-15,5.9c-4.3,4.4-4.7,5.8-3.6,12.3c0.3,1.7,0.4,2.8,0.4,4.8
		c0,2.9,0.1,3.6,0.9,4c1.2,0.5,2.2-0.7,2.2-2.7c0-3.8,3.4-6.7,9.3-8c4.4-1,5.1-1.4,3.8-2.6c-1.6-1.4-5.9-0.9-9.6,1l-1.1,0.6l0.1-0.5
		c0.7-3.3,4.9-5.4,12-6.1l1.2-0.1l-0.1-0.5c-0.7-2.3-3.7-3.1-7.5-2.1c-0.9,0.2-1.7,0.4-1.7,0.4c-0.5,0,1.7-2,3.1-2.8
		c2.4-1.3,2.8-1.4,7.6-1.6c6.5-0.2,11.4-1.2,11.4-2.3C218.2,93,216.2,92.8,214.2,93 M246.1,93c-1.5,0.2-1.7,0.3-1.1,0.9
		c1.3,1.1,6.3,1.9,11.4,1.9c4.7,0,7.4,0.9,9.6,3.2c1.2,1.2,1.2,1.2-0.9,0.7c-3.8-1-6.5-0.3-7.4,1.7c-0.4,0.8-0.3,0.8,1.6,1
		c7.1,0.8,10.7,2.7,11.5,6.1l0.1,0.5l-0.7-0.4c-4.4-2.6-10.6-2.7-10.6-0.2c0,0.2,1.5,0.8,3.2,1.2c3.6,0.8,4.3,1,5.2,1.5
		c3.3,1.5,5.3,4.2,5.3,6.9c0,2.3,1.4,3.5,2.5,2.2c0.5-0.6,0.5-0.4,0.5-4c0-2,0.1-3.3,0.4-4.9c1.1-6,0.5-7.6-3.9-12
		c-5.4-5.4-6.2-5.7-14.8-5.7c-4.3,0-5.5-0.1-7.1-0.3C248.5,92.9,247.4,92.8,246.1,93 M216.1,96.7c-1.2,0.9-3.3,3.9-3.6,5.1
		c-0.2,0.6,0.5,0.8,2.7,0.8c1.8,0,3,0.3,4.2,1c2,1.2,2.1-1,0.3-4.5C218,96.1,217.4,95.7,216.1,96.7 M227.6,97
		c-3.2,0.3-4.8,1.7-4.5,3.7c0.2,1.5,1.2,1.7,3.8,1c2-0.6,4.7-0.6,7-0.2c2.6,0.5,3.3,0.1,3.4-2.3c0.1-1.8-0.1-1.9-5.2-2.3
		C229.7,96.8,229.5,96.8,227.6,97 M242.8,97.8c-1.3,0.3-1.9,1.2-2.3,3.3c-0.3,1.9-0.3,2.1,0.7,1.6c1.5-0.8,2.5-1.1,4.3-1.1
		c2.2,0,2.4-0.1,2.4-1.6c0-1.5-0.2-1.7-2.1-2C243.4,97.7,243.3,97.7,242.8,97.8 M227.2,103.5c-1,0.3-2.1,1-2.1,1.4
		c0,0.8,2.9,5.5,3.8,6.2c0.4,0.3,0.4,0.3,0.1,0.4c-1.6,0-3.7,2.1-5.6,5.4c-1.3,2.3-1.6,2.5-2.5,1.8c-0.6-0.6-0.4-1.1,1.6-3.6
		c3.1-3.9,3.2-4.2,0.7-5.4c-1.9-1-9.3-2.6-10.7-2.4c-2.9,0.5-3.5,2.6-1.6,5.5c2.7,4.1,5,9,4.6,10.2c-0.1,0.3-0.1,0.6,0,0.6
		c0.3,0,0.7-2.4,0.8-4.4c0.1-2.5,0-3.2-1.1-5.6c-1.1-2.4-1-2.7,0.4-0.9c2.1,2.7,3,6.4,2.2,9.6c-0.1,0.5-0.1,0.5,0.1,0.3
		c0.2-0.2,0.2-0.2,0.1,0.1c-0.3,0.8-0.6,3.2-0.6,4.3c0,1.6,0.6,1.8,6.2,2.4c3.6,0.4,5.4,0.9,5.9,1.6c0.3,0.5,0.6,0.1,0.6-0.8
		c0-1.9,0.9-8,1.2-8c0.3,0,1,4.1,1.3,7.2c0.1,1.4,0.2,1.6,0.4,1.5c0.1,0,2.3-0.6,4.7-1.2c5-1.2,7.1-1.8,7.2-2.1
		c0.1-0.1-0.1-0.7-0.2-1.5c-0.5-2.1-0.8-4.3-0.7-4.8c0.1-0.3,0.2-0.9,0.2-1.3c0.4-3.3,1.9-6.4,3.5-7c1.4-0.6,1.6-0.6,0.9,0
		c-1.2,1.1-2.3,6.2-1.6,6.9c0.4,0.4,0.5,0.2,1.9-2.5c1.2-2.5,1.3-2.6,2.8-3.9c2.4-2.2,2.4-2.5,0.7-4.4c-1.2-1.3-2.4-2-3.3-2
		c-1.9,0-11,2.6-11.9,3.5c-0.7,0.6-0.1,2,1.5,3.6l1.1,1.1l-0.3,0.3c-0.6,0.6-1.4,0.3-3.1-1.3c-1.4-1.3-3-2.2-4.3-2.5
		c-0.5-0.1-0.9-0.2-1.1-0.3c-0.2,0,0.1-0.3,0.6-0.7c2.3-1.5,4.4-4,4.1-4.9C235,104,230,102.7,227.2,103.5 M256.1,112.1
		c-2.7,3.2-4.5,9.3-3.8,12.9c0.1,0.7,2.8,1.9,4.4,1.9c0.7,0,0.7-0.1-0.4-1.2c-1.7-1.8-2.3-3.5-1.8-6c0.6-3.4,2.7-6,5-6
		c0.6,0,0.6-0.2-0.2-1.1C257.9,110.8,257.3,110.7,256.1,112.1 M204,112.4c-0.5,0.4-1.5,1.7-1.5,2c0,0.1,0.2,0.1,0.5,0.1
		c4.5,0,6.7,8.1,3.2,11.8c-1.1,1.2-1.2,1.3-0.3,1.3c1.6,0,4-1.2,4.2-2c0.5-2.6-0.6-7.8-2.3-10.6C206,112.2,205.1,111.5,204,112.4
		 M257.5,114.6c-1.7,1.1-2.8,3.5-2.4,5.2c0.1,0.5,0.1,0.5,0.3-0.5c0.4-2.1,1.3-3.4,2.9-4.2l0.7-0.3l0.4,0.4c0.6,0.6,1.5,2.6,1.6,3.7
		c0.1,1.1,0,1.2-0.5,0.5c-0.6-0.8-1.9-0.8-2.7-0.1c-1.5,1.4-1.1,4.1,0.8,4.9l0.5,0.2l-0.8,0.1c-0.4,0-1-0.1-1.4-0.2
		c-0.8-0.3-0.8-0.3-0.6,0.4c0.7,1.6,2.5,1.5,4.1-0.2C263.7,120.8,261.2,112.2,257.5,114.6 M202.2,115.6c-2.4,2.5-2.6,7.2-0.4,9.6
		c1.5,1.7,3.4,1.8,4.1,0.2c0.3-0.7,0.2-0.8-0.5-0.4c-0.3,0.1-0.9,0.3-1.4,0.3l-0.9,0l0.6-0.3c1.8-1,2.2-3.3,0.7-4.8
		c-0.9-0.9-2.9-0.6-2.9,0.5c0,0.1-0.1,0.1-0.2,0.1c-0.6-0.4,0.4-3.7,1.4-4.7l0.4-0.4l0.7,0.3c1.6,0.8,2.5,2.1,2.9,4.2
		c0.3,1.3,0.5,0.8,0.4-0.7C206.8,116.2,203.8,114,202.2,115.6 M267.3,117.3c-0.9,0.4-1.5,1.5-2.5,4.6c-1,3-0.7,3.5,1.9,4.2
		c2.7,0.7,3.3,1.2,3.2,2.9l0,1.1h0.5c1.7,0,4.7-3.9,4.9-6.4c0.1-1.4-0.2-2.1-1.4-2.6c-0.8-0.4-1.4-0.8-3.9-2.9
		C268.9,117.2,268.1,117,267.3,117.3 M191.9,119c-1.1,0.9-2.3,1.8-2.8,2.1c-1.3,0.6-1.5,0.9-1.5,2.5c0,2.7,2.8,6.6,4.7,6.6h0.6
		l-0.1-0.8c-0.3-2.9,3.2-4,4.1-1.3l0.3,0.8l-1,1.1c-2.2,2.3-2.6,4.4-1.1,6c0.3,0.4,0.9,1,1.3,1.5c2.4,3,3.2,3.3,3,0.9
		c-0.3-4.3,1.7-6.4,3.3-3.4l0.4,0.8l-0.8,1.1c-1,1.4-1.3,2.2-1.1,4.2c0.2,3.1,0.2,3.1,2.6,4.1l1.8,0.7l-0.3-0.5
		c-0.6-1.1,0.2-3.8,1.3-4.4c0.6-0.3,1.5,0,1.4,0.4c-1.3,3.1-0.7,5,1.9,6l0.8,0.3l0.6-1.1c0.4-0.7,1.1-1.5,1.8-2.1
		c1.3-1.1,1.3-1.1,0.4-2.5c-0.8-1.1-3.1-2.9-3.6-2.8c-0.9,0.2-1.7-0.6-2.3-2.2c-0.2-0.6-0.5-1.3-0.8-1.5c-0.3-0.3-0.4-0.7-0.4-1.2
		c0-1-0.5-1.7-1.8-2.6c-0.7-0.5-1.6-1.3-2.2-2c-0.5-0.7-1.2-1.3-1.5-1.4c-0.3-0.1-0.5-0.4-0.7-0.8c-0.1-0.3-0.6-0.9-1-1.3
		c-0.8-0.6-0.8-0.8-0.9-1.6c-0.3-2.4-1.1-4.4-2.4-6C194.6,116.8,194.4,116.8,191.9,119 M261.1,128.2c-0.8,0.6-2.7,3.7-2.3,3.9
		c0.1,0.1,0.1,0.2,0,0.4c-0.1,0.2-0.2,0.6-0.2,0.9c0,1-0.2,1-1.8,1.1c-1.8,0-2.3,0.3-2.7,1.4c-0.5,1.4-1.2,2.7-2.3,3.9
		c-2,2.1-2.6,4.8-1.6,6.8c0.7,1.4,1.4,1.6,3.1,0.8c1.6-0.8,1.8-1.2,1.8-3.8c0-2.3,0.1-2.5,0.9-2.9c1-0.5,2.1,3.5,1.4,4.9
		c-0.1,0.3-0.2,0.5-0.2,0.5c0,0,0.5-0.2,0.9-0.4c0.5-0.2,1.2-0.5,1.7-0.7c1.5-0.5,1.6-0.9,1.6-3.7c0-3.3,0.3-4.2,1.6-4.5l0.5-0.2
		l0,0.8c0,0.4-0.1,1.1-0.2,1.4c-0.4,1.8,0.9,1.5,2.5-0.7c0.4-0.6,1.2-1.4,1.6-1.9c2.5-2.7,0.3-6.9-4.3-8
		C261.8,127.7,261.7,127.7,261.1,128.2 M244.9,130.8c-0.3,0.1-1.9,0.3-3.4,0.5c-6.4,0.8-8.2,1.2-9.4,2.3c-0.7,0.6-0.7,0.7-0.7,0.3
		c0-1.6-8.4-2.9-13.5-2.2l-1,0.1l0.9,0.9c1.1,1,1.2,1.4,0.3,2.2l-0.6,0.6l0.8,0.8c2.1,2.1,4.6,3.2,8.1,3.3c3.9,0.1,5-0.4,5.4-2.8
		c0.4-2,0.6-2.1,0.6-0.2c0,2.1,0,2.2,1.9,2.3c2.8,0.3,6.4-0.4,8-1.4c1.9-1.3,4.2-3.8,3.9-4.2c-0.2-0.3,0-1,0.6-1.9
		C247.4,130.6,246.6,130.4,244.9,130.8 M191,139c2.8,13.2-0.4,23.2-13.6,43.2c-2,3-5.1,7.9-6.9,10.8c-7.1,11.3-9,14-18.2,25.6
		c-14.3,17.9-19.1,25.6-22.8,36.5c-4.2,12.5-3.9,26.3,0.7,31c1.2,1.2,1.2,1.1,0.8-1.1c-2.7-14.2,0.6-30.2,8.9-42.6
		c1.5-2.3,3.3-4.3,7.2-8.4c6.4-6.5,6.7-6.9,13.8-18.9c6.7-11.2,8.8-14.3,16.8-24.3c6.6-8.3,8.9-11.6,12.9-18.1
		c6.7-10.8,7.5-14.9,4.7-22.6c-1.1-3-1.6-4.8-2-7.6c-0.4-2.9-1-4-2.1-4C190.9,138.5,190.9,138.5,191,139 M240.4,139.6
		c-0.6,0.6-1.7,1.2-3.3,1.5l-1.4,0.3l0.2,0.5c0.7,1.7,0.4,2.5-0.4,0.9c-0.6-1.3-1.1-1.4-4.8-0.9c-2.2,0.3-3,0.6-3.8,1.5l-0.4,0.4
		l-0.3-0.8c-0.4-1.1-2-2.1-3.9-2.3l-0.6-0.1l0.1,1.6c0.1,2.5-0.3,3.6-1.7,4.1c-0.6,0.2-0.6,0.3,0.3-1.4c0.7-1.4,0.8-1.4-0.6-1.9
		c-0.6-0.3-0.8-0.3-1.2,0c-1.5,0.8-2.8,5-2.1,6.5c0.7,1.3,2.4,1.5,2.4,0.3l0-0.5l0.2,0.5c0.7,1.7,3.7,1.3,4-0.5c0.2-1.2,1-2.4,2-2.9
		c0.6-0.3,0.6-0.1-0.1,0.8c-1,1.3-1.1,1.6-1.1,2.1c0,1.2,1.2,1.4,3.1,0.5c2.4-1.1,3.2-1.3,7.4-1l2.4,0.1l0.5-0.5
		c0.4-0.4,0.5-0.7,0.5-1.1l0-0.6l0.5,0.6c0.3,0.3,0.9,1.1,1.3,1.6c2.9,3.8,6.6,2,5.6-2.6c-0.6-2.5-1.7-3.9-2.8-3.6
		c-0.6,0.1-0.6,0.2,0,1.5c0.2,0.5,0.4,1,0.3,1.1c-0.2,0.2-0.6-0.3-0.7-0.9c-0.1-0.3-0.4-1.3-0.8-2.1c-0.4-1-0.7-1.7-0.7-2.2
		c0-0.4,0-0.7,0-0.7C240.8,139.1,240.6,139.3,240.4,139.6 M230.3,151c-1.9,0.9-2.3,2.7-1.5,5.7c0.2,0.7,0.3,2.2,0.4,5.4
		c0.1,2.9,0.3,6,0.7,9c2.2,19.8,1.8,23.1-4.8,38.5c-1.5,3.4-2.7,6.3-2.6,6.4c0,0.1,2.1-2.2,4.7-5c6.6-7.3,6.3-7,7.4-6.5
		c0.3,0.1,3.2,2.7,6.4,5.8c3.2,3,5.9,5.5,6,5.4c0,0-0.4-0.8-0.9-1.6c-9.5-15.1-12.6-28.5-10.7-46.3c1.2-11.3,0.8-15.1-1.6-16.6
		C232.6,150.5,231.3,150.4,230.3,151 M248.5,152.9c-1.3,0.9-3.8,2.3-4.5,2.4c-0.7,0.2-0.8-0.3-0.3-1.2c0.5-0.9,0.4-1.1-1-1.5l-1-0.3
		l-1.2,0.4c-0.7,0.2-1.6,0.4-2,0.4h-0.8l0.4,0.8c0.5,0.9,0.5,2.2,0.2,3.5c-0.2,0.9-0.2,0.9,1.1,0.7c2.3-0.4,10.6-5.1,10.6-6
		C250.1,152,249.6,152.1,248.5,152.9 M223.2,153.2c-0.5,0.2-1.2,0.2-2.1,0.2c-2-0.1-2.4,0.2-1.7,1.2c0.9,1.3,0.1,1.9-1.2,1
		c-1.5-1-4.1-2.2-3.8-1.7c1.3,2.1,4.4,3.5,10.1,4.4c2.7,0.5,2.6,0.6,2-1.8c-0.2-1.1-0.4-2.2-0.3-2.4
		C226.3,153.2,224.7,152.8,223.2,153.2 M209.2,167.9c-1,0.5-2.6,3.6-2.6,4.8c0,1.8,5.1,4.5,11.7,6.3c2.3,0.6,2.3,0.6,3.2-0.8
		c0.6-0.9,0.6-0.9,0.7-0.5c0.2,1.3-1.2,4.6-2.8,6.5c-1.6,2.1-2,2-1.4-0.2c0.2-0.6,0.3-1.2,0.4-1.3c0-0.2-0.3-0.3-1.6-0.5
		c-3.2-0.6-7.1-1.9-10-3.4c-2.3-1.1-2.9-1-5,1.3c-2,2.1-3.1,4.1-2.5,4.5c4.1,3,14.1,6.7,16.2,5.9c1.2-0.4-1.3,3.6-3.1,5
		c-1.1,0.9-1.3,0.9-1.3-0.1c0-1.6-0.8-2.2-3.6-3c-3.4-1-6-2.1-8.7-3.9c-1.7-1.1-1.4-1.2-3,0.9c-2.1,2.7-2.7,2,5.7,6.6
		c3.6,2,6.6,3.6,6.6,3.7c0.4,0.3-1.1,2.7-2.6,4.1l-1.4,1.4l-0.1-0.6c0-0.3,0-0.9,0.1-1.2c0.3-0.9,0-1.2-3.6-2.6
		c-3.1-1.2-4.3-1.9-6.1-3.6c-2.6-2.4-4-2.5-6-0.3c-2,2.2-2.3,3.5-1.2,5.1c2.4,3.3,7,5.3,12.8,5.8c0.7,0.1,1.3,0.2,1.3,0.2
		c0,0.7-2.4,3.6-3.5,4.2l-0.5,0.3l0.4-0.8c0.2-0.5,0.4-0.9,0.4-0.9c0,0-0.5-0.1-1.2-0.2c-1.4-0.1-2.5-0.5-5-1.6
		c-3.1-1.4-4.7-1.5-6.1-0.1c-0.6,0.6-0.7,0.8-0.7,1.4c0,0.7,0,0.7-0.6,0.7c-1.1,0-1.4-2.2-0.5-3.8c0.6-1,0.5-1.2-0.5-1.2
		c-1.9,0-4.1,2.3-4.1,4.3c0,1.2,0.7,1.7,3.9,3c3.6,1.4,4.2,1.6,6.2,2.1c2.2,0.5,3.5,1.1,3.5,1.5c0,0.4-1.3,2.2-2,2.7
		c-0.7,0.6-0.8,0.6-0.8,0.1c0-0.5-0.7-1.1-1.4-1.1c-0.3,0-1.2-0.1-1.9-0.3c-3.3-0.6-4.7-0.2-5.6,1.5l-0.3,0.5l0-0.5
		c0-0.3,0.1-0.8,0.2-1.2c0.6-1.6,0.3-2.1-1.6-3c-3.3-1.5-6.1-0.9-6.5,1.4c-0.3,1.9,1.3,2.8,9.2,5.4c4.6,1.5,4.8,1.6,4.3,2.5
		c-0.4,0.8-2.4,2.9-3.1,3.3l-0.5,0.3l0.4-0.9c0.7-1.7,0.9-1.5-2.7-2.5c-3.9-1.1-3.4-1.2-4.8,0.1c-1.8,1.7-2,1.2-0.9-1.7
		c0.1-0.2,0-0.2-0.4-0.2c-0.2,0-1.3-0.4-2.3-0.9c-2.2-1.1-2.5-1-4.3,1.9c-1.5,2.5,0.3,3.8,7,5c1.3,0.2,3.4,0.6,4.6,0.8
		c2.3,0.4,3,0.7,3.1,1.4c0.3,1.8-6.2,2.5-10.6,1.1c-2.3-0.7-2.8-0.7-4,0.5c-0.4,0.4-0.8,0.7-0.8,0.7c0,0-0.1-0.8-0.1-1.8
		c0-2.2-0.1-2.4-1.3-2.3c-2.7,0.3-5.4,2.7-4.6,4.1c1,1.7,13.7,5.2,16.5,4.5c0.9-0.2,0.9-0.4,0,1.6c-0.8,1.7-1.9,3.1-2.7,3.5
		c-0.7,0.4-0.8,0.3-0.7-0.7c0.1-1.6,0-1.7-5.4-2.7c-5.9-1.2-5.9-1.2-7.4,1.4c-0.4,0.6-0.7,1.2-0.8,1.2c-0.4,0.1-0.6-1.4-0.4-2.4
		c0.3-1.2,0.1-1.8-0.5-2.1c-1.4-0.7-2.6-0.1-3.9,2.3c-0.4,0.8-1.1,1.8-1.5,2.3c-1.6,2-1.5,2.1,3.3,3.2c8.5,1.8,12.2,2.2,15.1,1.4
		c0.7-0.2,1.3-0.3,1.3-0.3c0.1,0.1-0.8,1.8-1.5,2.9c-0.4,0.7-1.1,1.8-1.4,2.6c-0.5,1.2-0.8,1.5-1.2,1.7c-0.9,0.4-1,0.2-0.9-1.6
		c0.1-1.6,0.1-1.7-0.3-1.9c-0.6-0.4-5.1-1-13.1-1.7l-3.1-0.3l-1,0.5c-3,1.5-5.4,5.7-4.3,7.7c0.8,1.4,2.1,1.7,10.9,1.8
		c8.3,0.1,8.3,0.1,9.4-1.1c1.7-1.7,1.9-1.1,1.4,4.7c-0.2,2.4-0.3,3.2-0.5,3.2c-0.2,0-0.6-1.1-0.8-2.2c-0.4-2.4-1-2.7-3.7-1.9
		c-4.6,1.3-8.7,1.3-14,0.1c-4-0.9-4.8-0.5-5.9,2.6c-1.2,3.5-0.7,4.7,2.1,5.3c1.8,0.4,4.4,0.5,7,0.3c1.3-0.1,4.3-0.2,6.8-0.3
		c5,0,4.9,0,6.1-1.3c1.4-1.5,1.8-1,1.8,2.1c0,3.6-0.8,4.9-2,3.6c-0.2-0.2-0.6-0.7-1-1.1l-0.7-0.7l-1.3,0c-0.7,0-2.3,0.2-3.5,0.5
		c-4.5,0.9-5.2,1-10.4,1.1c-6.7,0.1-6.8,0.2-6.8,5.1c0,5.8,1.7,7,8.7,6c7.7-1.1,13.2-3.2,15.1-5.6c0.9-1.2,1.4-1.3,1.7-0.3
		c0.3,0.9,0.4,7,0.2,7.4c-0.5,1-1.3,0.9-2.1-0.1c-1.9-2.3-2.2-2.4-5.1-1.1c-3.6,1.6-7.8,2.7-12.2,3.1c-2.6,0.2-3.1,0.4-3.5,1
		c-1,1.4,1.2,7.8,3.1,9c1.2,0.7,7.1-0.1,12.7-1.7c2.3-0.7,2.6-1,3-2.8c0.3-1.3,1.1-2.5,1.4-2.1c0.6,0.6,3.4,5.6,3.5,6.3
		c0.4,2-0.8,2.7-3.3,2.1c-2.1-0.5-3.2-0.4-5,0.4c-3.7,1.6-3.6,1.6-5.5,1.8c-4.3,0.4-3.6,2.3,2.3,6.2c4.2,2.8,6.9,3.3,14.7,2.7
		c1.9-0.1,4.6-0.3,5.9-0.4c9.1-0.4,13.9-2.4,14.3-6c0.1-0.9-0.1-1.1-3.5-3.9c-8.3-6.9-13.9-16.4-11.3-19.3c0.8-0.9,1.6-1.1,6.4-1.5
		c5.5-0.5,7.8-0.9,9.6-1.7c3.7-1.6,3.8-5.2,0.2-6.9c-2.4-1.1-11.3-2.1-11.3-1.2c0,0.3,1,1,2,1.3c1.5,0.6,2.4,1.9,1.6,2.5
		c-0.4,0.3-3.4,0.7-4.5,0.6c-5.5-0.5-9-9.3-7.1-18c2.8-13.3,11-26.3,31-49.3c12.4-14.3,14.2-16.8,17-24.6c1.1-3.1,1.4-3.6,3.3-6.6
		c2.4-3.7,2.2-4-2.8-4.8c-7.1-1.1-8.6-1.4-11.2-2.6C210.3,167.6,209.8,167.5,209.2,167.9 M236.6,268.2c-15.5,0.5-24.2,2.5-31.2,7.1
		c-3.7,2.5-5.7,5-5.9,7.4c-0.2,2,0.2,2.7,2.6,4.7l1,0.9v-0.5c0-2.3,1.9-4.1,5.9-5.4c5.9-2,7.7-1.9,12.9,1c1.6,0.9,3.4,1.8,4,2.1
		c7.6,3.3,10,6.7,8.4,11.6c-1,3-3.5,5.4-8.1,7.7c-1.7,0.9-2.2,1.3-0.8,0.7c0.4-0.2,2-0.7,3.5-1.1c2.9-0.8,4.9-1.7,6.2-2.7l0.8-0.6
		l0.6,0.5c0.3,0.3,1,0.9,1.5,1.4c1.1,1.1,1.7,1.1,2.9,0c1.7-1.7,0.7-4-1.5-3.9c-1.3,0.1-1.3,0-0.5-0.7c2.2-1.8,4.4-2.1,6.8-0.9
		c3.8,1.8,7.1,5.1,8.3,8.1c1.5,3.9,1.6,16.8,0.2,24.2c-0.5,2.5-0.6,4.7-0.3,4.7c0.7,0,2.6-3.3,3.3-5.7c1.7-6,1.6-12.7-0.3-19.3
		c-2-7-7.6-16.4-11.2-19c-1.8-1.3-9.8-5.6-12.8-7c-5.3-2.4-6.3-3-8-4.7c-1.8-1.9-2-3.2-0.6-4.2c2.2-1.6,20.4-3.7,34.4-4
		c3-0.1,5.4-0.2,5.4-0.2c0-0.3-1-1-1.8-1.3C260.1,268.3,247,267.9,236.6,268.2 M267.1,270.2c0,0.6,1,1.4,2.2,1.7
		c0.6,0.1,1.6,0.4,2.2,0.5c0.8,0.2,1.3,0.5,2,1c2,1.6,4,1.4,3.7-0.4c-0.1-0.7,4-0.3,6,0.6c0.9,0.4,1.1,0.6,1.5,1.4
		c1.3,2.2,3.9,2.5,4.9,0.6c0.4-0.7,0.6-0.7,1.6,0c1.2,0.8,2,1.1,3.1,1.3c1,0.2,1.2,0.2,1.2,0.5c0,0.4,0.7,1.7,1.2,2.3
		c0.9,1,3.2,0.3,2.8-0.8c-0.4-1.1,0.3-1.1,1,0c0.7,1,2.2,1.7,3.3,1.7c1,0,1.1,0.1,1.3,2c0.2,2,0.5,2.1,2.5,1.4
		c1.7-0.6,2.2-0.5,4,0.3c0.8,0.4,3.3,1.6,5.5,2.6c2.2,1,6.2,2.9,8.9,4.3c9.3,4.5,13.2,5.4,14.2,3.3c0.4-0.9,1.5-0.6,3.5,1
		c1.7,1.3,1.8,1.4,2.7,1.6c1,0.3,5.8,0.5,13.7,0.6c7.3,0.1,12.2-0.2,18.9-1.1l2.4-0.4l1.8,1.9l1.8,1.9l0.3-0.4
		c0.1-0.2,0.3-1.1,0.4-1.9c0.3-2.2,0.3-2.3,2.2-2.8c2.7-0.7,4.4-1.9,5.1-3.4l0.2-0.6l0.7,0.4c0.4,0.2,1,0.5,1.4,0.6
		c0.5,0.1,1,0.5,1.9,1.4c1.4,1.4,1.7,1.5,1.7,0.3v-0.8l0.7,0.5c4.4,3.6,5.7,11.5,3.3,19.9c-0.3,1.1,0.2,0.5,1-1.1
		c3-5.9,1.9-13.1-3-20.4c-2.3-3.4-4.2-4.9-7.8-5.8c-0.9-0.2-1.8-0.6-2.1-0.8c-5-3.8-34-7-54-6c-10.5,0.5-17.1,1.4-19,2.4
		c-1.2,0.7-1.3,0.8-0.4,1.3c1.8,0.9,4.7,1.1,8.9,0.5c9.6-1.3,21.4-1.3,34.3,0c7.3,0.7,20.8,2.5,21.6,2.9c2.2,0.9,1.2,3.9-1.8,5.3
		c-7.3,3.4-43.6,1.3-54.5-3.1c-2.7-1.1-6.1-2.9-11.2-5.8c-8.3-4.8-11.2-6.3-16.5-8.4c-4.9-2-6.7-2.3-14.5-2.9
		c-1.4-0.1-4.5-0.4-7-0.7c-2.5-0.3-5.4-0.5-6.4-0.6c-1.1-0.1-2.2-0.1-2.5-0.2C267.1,269.9,267.1,269.9,267.1,270.2 M117.4,270.5
		c-0.5,0-2.9,0.3-5.4,0.6c-2.8,0.3-6,0.5-8.3,0.6c-14,0.4-29.7,3.1-48.2,8.5c-1.7,0.5-4.7,1.3-6.7,1.7
		c-15.9,3.7-27.7,13.4-32.2,26.4c-4.2,12.4,2.8,31.7,14,38.5c1.3,0.8,1.3,0.8,0.1-1.1c-2.7-4.1-6.2-11.3-5.9-12.2
		c0.6-2-0.7-5.1-2.1-5.1h-0.6l-0.6-1.8c-3.7-11.4,2.4-26,11.5-27.6c1.5-0.3,1.7-0.1,0.9,1c-1.3,2.1-0.3,3.2,2.2,2.3
		c1.9-0.7,3.9,0,3.4,1.3c-0.1,0.2-0.2,1-0.2,1.7c0,0.8-0.1,1.5-0.3,2.1c-0.6,1.4-0.4,2.3,0.3,2.8c1.1,0.5,1.8,0.3,4.2-1.6
		c1.4-1.1,1.8-1.1,3.3-0.2c1.6,0.9,1.7,1.3,0.9,2.6c-1,1.9-0.6,2.8,1.5,2.8c1.1,0,1.1,0,2-0.9c1.4-1.4,2.3-1.4,5.1-0.1
		c3.1,1.4,9,3,15.1,4.2c1.7,0.3,3.3,0.6,3.5,0.7c0.3,0.1,0.4,0.2,0.4,1.4c0.2,2.7,0.8,3.1,3.9,2.1c1.6-0.5,2.4-1.1,2.5-1.9
		c0.1-0.5,0.1-0.5,0.6-0.4c2.6,0.5,12.2,1.4,18,1.6l4.2,0.2l-0.6,0.8c-1.2,1.5-1.3,2.1-0.4,3c1.6,1.5,3.5,2,4.5,1.2
		c0.6-0.5,0.6-0.7-0.2-1.7c-0.7-0.9-1-2.4-0.6-2.9c0.2-0.2,1.9-0.2,10.6-0.2c24.5,0,54.9-1.6,75.8-4c2.4-0.3,2.6-0.3,2.3,0.3
		c-1.4,2.7-1.1,3.2,3.1,4.6c2.6,0.9,3,0.9,4.1,0c1.7-1.4,1.9-3.4,0.5-5.1c-0.8-1-0.8-1,1.6-1.6c4.6-1.2,8.1-3.5,8.1-5.5
		c0-0.4,4.4-0.7-33.9,2.8c-49.7,4.6-49.1,4.5-60.6,3.5c-14-1.3-37.8-4.5-48.6-6.7c-15.6-3.1-21.3-5.2-24.2-8.8c-2-2.5-3.1-6.2-2.2-8
		c1.3-2.7,14.6-8.6,25.9-11.6l1.8-0.5l-0.4,0.4c-1.2,1.3,0.7,3.5,3.9,4.3l0.4,0.1l0.2-1.9c0.3-2.7,0.3-2.8-0.3-3.3l-0.5-0.5l3.5-0.7
		c8.8-1.7,17.9-2.7,29.4-3.1c1.4-0.1,3.1-0.1,3.6-0.2l1.1-0.1l-0.5,0.6c-1,1.3-1,1.5,0.9,3.3c1.9,1.8,2.1,1.9,3.5,1
		c1.4-0.9,1.2-1.4-1-3.4c-0.9-0.8-1.6-1.5-1.5-1.6c0-0.1,1-0.2,2.1-0.3c6.2-0.6,8.8-1.9,7.3-3.5
		C122.7,270.7,120.5,270.3,117.4,270.5 M99,278.8c-0.7,0.5-0.2,2.3,0.8,2.8c0.8,0.4,0.8,0.8,0.1,1.9c-0.9,1.5-0.8,2.1,0.5,1.6
		c3-1.1,2.8-5.5-0.2-6.3C99.4,278.6,99.2,278.6,99,278.8 M281.4,279c-0.4,0.1-0.7,0.9-0.8,2.2c-0.2,1.4-0.3,1.5-1.2,2
		c-1.2,0.7-1.1,3.5,0.2,3.5c0.7,0,3.8-2.7,4.2-3.7C284.6,281,283,278.4,281.4,279 M92.4,279.2c-0.7,0.4-0.5,1.4,0.6,3
		c0.7,1.1,0.7,1.4,0.2,2.5c-0.9,2,0.4,1.9,2.9-0.3c0.8-0.7,0.1-2.8-1.4-4c-0.1-0.1-0.2-0.3-0.2-0.4
		C94.9,279.6,93.1,278.9,92.4,279.2 M87.3,279.8c-2.3,1.1-3.1,3.1-1.7,4.3c0.3,0.3,1,0.9,1.4,1.3c1.2,1.1,1.9,0.9,2.1-0.6
		c0.1-0.5,0.3-1.4,0.5-2.1c0.4-1.5,0.3-2-0.5-2.8C88.5,279.3,88.5,279.3,87.3,279.8 M80.1,282.6c-1.7,2.1-1.6,3.3,0.2,4.9
		c2.1,1.8,2.7,1.2,2.7-2.7l0-2.8l-0.4-0.5C81.8,280.6,81.5,280.7,80.1,282.6 M111.8,283.8c-0.3,0.7,0.1,1.5,1.4,2.7
		c1.7,1.6,1.8,2.1,1,3.6c-1,1.9-0.7,2,1.2,0.6c1.7-1.3,2.1-1.8,2.1-2.4c0-1.4-2.4-4-4-4.4c-0.3-0.1-0.5-0.2-0.5-0.3
		C113,283.2,112,283.3,111.8,283.8 M294.4,285.2c-2,2.1-2.2,2.4-2.2,3.4c0,1,0.8,2.1,1.5,1.9c2.7-0.7,4.4-2.7,3.9-4.6
		C296.9,283.3,296.3,283.2,294.4,285.2 M300.4,285.5c-0.9,1-1.6,2.1-1.8,2.8c-0.1,0.3-0.3,0.9-0.5,1.3c-0.9,1.9,0.3,2.1,2.8,0.6
		c2.7-1.6,3-2.8,1.3-4.9C301.5,284.5,301.2,284.6,300.4,285.5 M86.5,288.5c-2.1,1.9-2.2,4.9-0.3,6.8c1.9,1.9,4,1.5,2.2-0.4
		c-1.5-1.6-1.5-2.8-0.1-4.7C89.7,288.2,88.2,286.9,86.5,288.5 M78.8,292.2c-1.4,2.3-1.4,2.3-0.1,4.3c1.2,1.9,1.9,2.5,2.7,2.4
		c1.6-0.3,2.3-2.6,1.2-3.7c-0.7-0.6-0.8-1.1-0.8-2.8c0-1.8-0.2-2.1-1-1.9c-0.3,0.1-0.5,0-0.5-0.1C80.3,290,80,290.4,78.8,292.2
		 M289.3,290.9c-0.5,0.2-0.6,0.5-0.7,2.3c-0.1,1.4-0.2,1.8-0.5,2.2c-0.5,0.7-0.5,1.3,0.1,1.6c0.8,0.3,1.6-0.4,3.3-2.7
		C292.5,292.7,290.8,290.3,289.3,290.9 M282.9,291.9c-2.3,2.8-2.8,4.3-1.7,5.9c0.6,1,0.9,1.1,1.8,0.6c1.7-0.9,1.9-1.9,1-5.5
		C283.6,291,283.6,291,282.9,291.9 M294.9,291.8c-0.3,0.2-0.8,0.6-1.2,0.8c-1,0.5-1.3,1.2-1.3,3.2c0,3.2,1.1,3.5,2.6,0.6
		c0.5-0.9,0.8-1.4,1.7-2.5C297.8,292.3,296.3,290.6,294.9,291.8 M68,292.2c-1.7,1.1-1.5,3.5,0.3,4.4c1.8,0.9,2.4,0.4,2.2-2
		C70.3,292.1,69.5,291.3,68,292.2 M304.4,294.1l-2,2.1l0.1,2.9c0.2,4.7,0.4,4.7,3.4,0.1c1.8-2.8,1.8-2.8,1.3-5c-0.3-1-0.5-1.8-0.6-2
		C306.5,292.1,305.7,292.8,304.4,294.1 M298.8,292.6c-0.2,0.1-0.2,0.3-0.2,0.4c0.2,0.5-0.5,1.5-1.7,2.7c-2,2-2.1,2.9-0.9,4.1
		c1.1,1,1.4,1,2.5-0.5c2.5-3.4,2.7-4,1.6-5.9C299.6,292.4,299.3,292.3,298.8,292.6 M318.3,292.8c-3,1.3-3.2,4.3-0.3,7.2
		c1.4,1.5,1.6,1.5,2.6,0.4c2-2.3,2.1-3.8,0.2-6.3C319.8,292.7,319.2,292.4,318.3,292.8 M394.7,294.8c-0.8,1.1-0.3,2.8,1.4,4.6
		c1.9,2,2.9,1.5,2.2-1.2c-0.1-0.5-0.3-1.2-0.3-1.4c-0.1-0.6-0.9-1.4-1.8-2C395.3,294.3,395.1,294.3,394.7,294.8 M327,296.2
		c-2.5,0.4-1.8,5.1,0.9,5.8c1.4,0.4,3.3-2.6,2.6-4.1C329.9,296.9,328.1,296,327,296.2 M390.7,296.7c-1.9,1.1-3.2,4.8-2.1,5.7
		c1.1,0.9,4,2.1,4.5,1.8c0.7-0.4,0.7-1.3-0.1-2.6c-0.8-1.1-1.1-2.5-0.9-3.8C392.3,296.5,391.8,296.1,390.7,296.7 M290.5,297.1
		c-1.1,0.6-2.4,2.3-2.4,3.1c0,0.7,2,3.6,2.6,3.7c1.3,0.2,2.5-3.1,1.6-4.4c-0.2-0.4-0.5-0.9-0.5-1.3
		C291.6,296.9,291.2,296.6,290.5,297.1 M313.6,299.7c-3.5,4.2-3.8,5.6-1.9,8.6c1.4,2.2,1.8,2.3,3.3,0.7c2.8-2.9,3-6.7,0.5-9.5
		C314.7,298.7,314.4,298.7,313.6,299.7 M300.4,299.2c-0.1,0-0.8,0.8-1.6,1.8l-1.4,1.7l0.4,1.7c0.2,0.9,0.6,2.3,0.9,3.1l0.5,1.4
		l0.7-0.8c1.5-1.7,1.8-2.7,1.2-4.8c-0.2-0.8-0.3-2-0.3-2.8c0-0.8-0.1-1.4-0.1-1.4C300.7,299.1,300.5,299.1,300.4,299.2 M373.2,299.9
		c-0.1,0.2,0,0.6,0.5,1.7c0.9,2,0.9,2.1-0.8,2.7c-2.2,0.7-1.3,3.1,1.2,3.1c1.5,0,2.7-0.7,3.4-2c0.6-1.2,0.5-1.5-1.4-3.4
		C373.9,299.5,373.7,299.4,373.2,299.9 M379.8,300.5c-1,1-0.4,3.1,1.3,4.7c2,1.8,2.6,1.9,3.5,0.6c1.1-1.6,0.5-3.6-1.5-4.4
		c-0.5-0.2-1.2-0.6-1.6-0.8C380.8,299.9,380.3,299.9,379.8,300.5 M27.9,302.9c-1.9,1.7-2.3,2.1-2.3,2.7c0,1.2,0.8,1.3,2.3,0.5
		c2.6-1.4,3.5-3,2.3-4.1l-0.6-0.5L27.9,302.9 M246.4,302.8c0,0.1,0.1,0.2,0.2,0.3c0.2,0.2,0.1,0.2-0.2,0.2c-1.7,0-2,1.6-0.5,3
		c2.3,2.2,5,2,3.9-0.3C249.3,305,246.4,302.3,246.4,302.8 M395.1,302.9c-0.1,0.3-0.6,4.3-0.6,4.9c0,0.8,0.6,1.4,1.4,1.4
		c1.9,0.1,2.9-2.7,1.9-4.8c-0.5-1.1-0.9-1.4-1.1-1c-0.1,0.2-0.2,0.2-0.6-0.2C395.6,302.7,395.2,302.6,395.1,302.9 M284.2,304.5
		c-0.9,1.1-0.7,1.8,1,3c1.4,0.9,2.8,0.2,2.1-1.1c-0.1-0.2-0.6-0.8-1-1.4C285.3,303.7,285,303.6,284.2,304.5 M32.8,305.1
		c-2,1-2.1,1.1-1.7,2.7c0.5,2.3,0.5,2.3,2.8,1.1c2.6-1.3,3-1.9,2.7-3.2C36.1,304,35.2,303.8,32.8,305.1 M388.4,305.1
		c-0.2,0.1-0.6,0.4-0.9,0.7c-0.3,0.3-0.7,0.6-0.9,0.8c-0.6,0.5,1.2,3.8,2.2,4.2c1,0.3,2.7-1.8,2.6-3.4
		C391.5,306.1,389.4,304.5,388.4,305.1 M236,307c0.1,0.1-0.1,0.2-0.4,0.2c-0.6,0-1.7,1.1-1.7,1.7c0,0.4,0.9,1.2,2.8,2.6
		c0.4,0.3,2.5-1,2.5-1.5c0-0.3-1.3-1.9-2.2-2.5C236.3,306.9,235.8,306.7,236,307 M380.4,307c0.1,0.2-0.1,0.3-0.9,0.3
		c-1.3,0-1.4,0.3-0.7,1.7l0.5,0.9l-0.5,0.4c-1.3,1,0,2.4,2,2.2c3.5-0.3,5.4-3,2.8-3.9c-1.2-0.4-2-0.8-2.6-1.4
		C380.5,307,380.3,306.9,380.4,307 M295,307.8c-0.5,0.2-1.4,0.2-2.1,0c-1-0.4-1.2,0.9-0.2,1.8c3.1,2.9,4.6,2.6,3.4-0.6l-0.5-1.4
		L295,307.8 M28.4,308.7c-1.5,0.3-2.9,3.5-2.1,5c0.8,1.6,3.3-0.9,3.3-3.4C29.5,308.6,29.4,308.5,28.4,308.7 M302.8,309.7
		c-1.8,1.7-2,2.4-1,3.7c3,3.6,6.2,1.9,4.2-2.2C304.9,308.8,304.1,308.5,302.8,309.7 M33.1,311.5c-0.3,0.2-1,0.7-1.6,0.9
		c-1.8,0.8-3,3.1-2.5,4.9c0.7,2.4,5.6-1.4,5.6-4.3C34.7,311.4,33.9,310.7,33.1,311.5 M220.3,312.1c-1.4,1.4-1.5,2.6-0.1,3.2
		c0.4,0.2,1,0.5,1.3,0.8c1.5,1.2,3.2,0.5,3.2-1.4c0-1.4-0.9-2.5-2.7-3.2l-0.7-0.3L220.3,312.1 M385.3,312.8c-0.5,0.2-1.1,0.7-1.4,1
		c-0.3,0.3-0.6,0.6-0.7,0.6c-0.6-0.1-0.8,1.5-0.3,2.1c0.8,0.9,1.6,0.7,6.5-1.6c1-0.5,1-0.8,0.3-1.5
		C388.5,312.4,386.7,312.1,385.3,312.8 M236,313.4c-0.8,0.5-1.4,1.5-1.5,2.5c-0.3,2.6,5.6,4.1,6.3,1.5
		C241.3,315.2,237.8,312.3,236,313.4 M38.4,313.5c-3.7,1.3-5,5.7-1.4,5.1c2.6-0.5,3.5-1.5,3.6-4.1l0-1.2l-0.7,0
		C39.5,313.2,38.9,313.3,38.4,313.5 M280.6,313.5c-0.4,0-0.7,0.1-0.7,0.2c0,0.1,0.3,0.3,0.7,0.4c0.4,0.1,2,0.7,3.6,1.3
		c1.6,0.6,4.2,1.6,5.7,2.3c13.3,5.8,26.4,9.4,34.1,9.2l2.2,0l-4.5-0.9c-11-2.2-15.8-3.7-24.3-7.8
		C289.3,314.1,285.5,313.1,280.6,313.5 M57.2,315.3c-2.1,2.3-2.3,4.4-0.5,5.5c2.2,1.4,4.4-0.5,4-3.3
		C60.1,313.9,59.1,313.3,57.2,315.3 M245.4,315c0,0.4,0,0.5-0.2,0.2c-0.4-0.6-0.6,0.1-0.7,2.2l-0.1,2l0.8,0.8c0.4,0.5,0.9,1,1.1,1.2
		c0.8,0.9,2.3-0.2,2.3-1.7c0-1.1-0.3-1.6-1.5-3.2c-0.6-0.7-1.2-1.4-1.3-1.7l-0.3-0.4L245.4,315 M226,315.1c-0.3,0.4-1.3,3.5-1.3,3.9
		c0,0.5,0.8,1.1,1.9,1.4c0.6,0.2,1.7,0.8,2.4,1.3c1.9,1.3,1.9,1.3,2.8-1.5c0.7-2.2,0.7-2.5-0.3-3.6C230.1,315,226.7,314.1,226,315.1
		 M25.2,316.8c-1.4,1.5-2,3.8-1.5,5.6l0.2,0.8l0.4-0.7c0.2-0.4,0.8-1,1.4-1.4c1.5-1.2,1.8-2.4,0.8-4.3
		C26.1,315.9,26,315.9,25.2,316.8 M44.5,316.6c-1.5,0.8-2.2,2.9-1.5,4.7c0.3,0.8,0.6,0.8,2.8-0.7c2.2-1.5,2.5-1.8,2.5-2.6
		C48.3,316.4,46.4,315.7,44.5,316.6 M218.2,317.9c-2.1,2.4-2.1,2.9,0.6,5.2c2.3,1.9,2.5,2,3.7,0.9c2.7-2.4,2.4-3.7-1.2-5.8
		C218.9,316.8,219.2,316.9,218.2,317.9 M31.6,318.5c-2.4,1.2-3.4,3.6-2.7,7c0.3,1.4,0.7,1.3,2.2-0.1
		C33.7,322.6,34.2,317.2,31.6,318.5 M235.2,319c-0.1,0.1-0.3,0.2-0.6,0.2c-1.7,0-1.8,1.6-0.5,5.1c1,2.5,1.4,2.5,3.8-0.5
		c1.9-2.4,2.1-2.9,1.2-3.6C238.2,319.4,235.4,318.6,235.2,319 M207.6,320.6c-0.4,0.8-0.8,1.2-1.7,1.8c-2.8,2-2.8,3.9,0,4.3
		c1.4,0.2,1.7,0.3,2.7,1.3c1.2,1.1,1.7,0.9,3.2-1.2c2.6-3.6,1.9-6-2-7C208.3,319.4,208.2,319.4,207.6,320.6 M37.3,321
		c-3.6,2.1-4.1,3.3-2.4,6.1c1.6,2.7,1.7,2.7,4.1,0.3c2.5-2.5,2.8-3.2,1.7-5C39.7,320.7,38.6,320.2,37.3,321 M226.4,322
		c0,0.1,0.1,0.2,0.2,0.4c0.1,0.2,0,0.3-0.7,0.5c-3.3,1.1-3,4.8,0.5,6.6c1.5,0.8,1.6,0.7,3.4-1.1c2.8-2.9,2.6-3.1-3.3-6.5
		C226.5,321.9,226.4,321.9,226.4,322 M89.9,323.9c-2.9,2.2-3.6,3.7-2.5,5.4c2.7,4,3.3,4.4,4.8,2.9c0.9-0.9,1-1.5,0.3-2.3
		c-0.7-0.9-0.7-1.7,0-3.1C93.9,323.6,92.5,322,89.9,323.9 M238.4,325.7c-1.9,2.7-2,2.5,0.4,4.5c2.6,2.3,2.8,2.2,4.1-0.7
		c1.3-2.7,1-3.3-1.9-5.2c-0.4-0.3-0.8-0.5-0.8-0.6C240.1,323.4,239.9,323.7,238.4,325.7 M44.7,324c-2.1,1-2.6,5.9-0.8,7.8
		c0.7,0.7,2.3-0.1,4.5-2.2C50.8,327.4,47.7,322.7,44.7,324 M110.3,325.9c-2.2,1.9-2.7,2.9-2,3.9c0.3,0.5,4.4,3.8,4.5,3.7
		c0.2-0.2,0-1.3-0.4-2.3c-0.7-1.5-0.7-1.6,0.6-3.4c1.4-2,1.3-2.6-0.4-2.8c-0.5-0.1-0.7-0.2-0.6-0.4
		C112.2,324.2,112.1,324.3,110.3,325.9 M54.8,325.1c-0.2,0.1-0.7,0.3-1.1,0.3c-1.5,0.2-1.5,0.3-1.5,3.6c0,3.7,0.3,4.7,1.6,4.7
		c1.4,0,4.4-2.8,4.2-3.9c-0.3-1.3-1.8-4.7-2.1-4.7c-0.2,0-0.4,0-0.5-0.1C55.2,324.9,54.9,325,54.8,325.1 M63.5,326.5
		c-2.8,0.8-4.3,3.8-3.2,6.5c1.4,3.5,1.7,3.6,5.2,0.7c3.6-3,3.6-3.2,0.7-6C64.7,326.2,64.6,326.2,63.5,326.5 M30.7,327
		c-1.8,0.9-2.1,2.1-1.4,4.9c0.6,2.5,0.7,2.5,1.6,2.5c2.3,0,3.6-3,2.6-6.2C33.1,326.9,32,326.4,30.7,327 M231.3,329.1
		c-2,2.2-2,2.2-0.8,3.3c2,2,4.1,1.9,5.2-0.3c1-2,0.1-4.1-1.9-4.5c-0.3-0.1-0.5-0.2-0.5-0.3C233.2,327,232.9,327.3,231.3,329.1
		 M171.1,328.7c-0.1,0.1-0.2,0.3-0.3,0.6c-0.1,0.3-0.5,0.9-0.9,1.3s-1.3,1.6-1.9,2.6l-1.2,1.8l0.6,0.6c1.9,1.7,5.2,3.7,6,3.7
		c1,0,1.2-1.1,0.4-2.1c-1.2-1.5-1.4-2.6-0.9-5.2c0.5-2.7,0.3-3.4-1-3.3C171.6,328.6,171.2,328.6,171.1,328.7 M195.9,329
		c0.1,0.2,0,0.3-0.6,0.3c-0.9,0-1.5,0.6-1.5,1.6c0,0.7,0,0.8,1.6,2.1l0.6,0.5l0,1.8c-0.1,3.6,1.7,3.7,3.4,0.1
		c1.6-3.2,1.2-4.8-1.2-5.7c-0.4-0.1-1.1-0.4-1.5-0.7C195.7,328.6,195.8,328.6,195.9,329 M38.4,329.9c-0.8,0.4-2.7,2.4-2.9,3.2
		c-0.3,0.9-0.1,1.5,1.1,3.7c1.4,2.6,2,2.8,3.4,0.8c2.5-3.4,2.5-3.9,0.7-6.7C39.8,329.7,39.4,329.5,38.4,329.9 M212.2,330.6
		c-1.4,0.6-2,1.7-1.2,2.5c0.5,0.5,0.3,1.1-0.5,2c-1.6,1.6-1.5,3.2,0.2,3.7c0.3,0.1,1.1,0.6,1.6,1c1.5,1.3,2.1,1.1,3.2-0.8
		c2.2-3.9,1.9-6.2-1.2-8.1C213.2,330.1,213.2,330.1,212.2,330.6 M116.9,331.1c-0.6,0.3-2.3,1.8-2.3,2c0,0.1,0.1,0.1,0.2,0
		c0.2-0.2-0.1,0.1-1.3,1.1c-1.3,1.1-1.4,2.7-0.2,4.2c2.5,2.9,5.4,2.9,3.2,0c-1.3-1.7-1.2-2.4,0.2-4.1c1.4-1.6,1.7-2.8,1-3.2
		C117.4,330.8,117.5,330.8,116.9,331.1 M105.2,331.9c-1.8,1.4-2.7,2.7-2.7,4.2c0,1.4,0.5,2.1,2.6,3.6c2.6,1.8,3.2,1.6,1.7-0.6
		c-1.4-2.1-1.5-2.8-0.4-4.5c0.9-1.4,0.8-2.8-0.2-2.8c-0.2,0-0.2,0,0-0.2C106.5,331,106.2,331.2,105.2,331.9 M47.1,332.9
		c-1.7,0.5-3.6,2.3-3.6,3.3c0,0.5,2.5,5.3,2.8,5.3c0.6-0.1,5.4-4.8,5.4-5.3C51.6,334.1,49.1,332.3,47.1,332.9 M227.1,334.7
		c-0.2,0.2-0.5,0.6-0.7,1c-0.4,0.8-0.8,1.1-1.5,1.3c-2,0.4-1.8,1.3,0.8,4.2c1.1,1.2,1.1,1.2,2.9,0.3c3.7-2.1,4.1-3.7,1.6-5.7
		c-0.5-0.4-0.9-0.8-1.1-0.9C228.8,334.3,227.5,334.3,227.1,334.7 M32.5,336c-0.7,0.5-1.6,2.8-1.5,3.5c0.1,0.5,3.7,3.7,4.2,3.9
		c2.2,0.6,2.5-2.3,0.6-5.1C34.4,336,33.4,335.4,32.5,336 M166.2,337.2c-1.4,1-2.9,3.1-2.9,4c0,0.7,3.8,3.8,4.7,3.9
		c1.1,0.1,1.1-0.2,0.2-2.2c-0.8-1.7-0.8-2.4-0.3-3.5c0.6-1.2,0.4-2.2-0.4-1.9c-0.2,0.1-0.3,0-0.3-0.3
		C167.1,336.6,167,336.6,166.2,337.2 M100.2,339.2c-0.6,0.3-0.6,0.5,0,0.5c0.2,0-0.1,0.2-0.7,0.5c-1.3,0.6-2.9,1.7-3.4,2.3
		c-1.2,1.5,2.7,6.7,4,5.3c0.3-0.3,0.2-0.7-0.5-1.3c-1.2-1.1-0.9-2.4,1.1-4.7C102.8,339.6,102.4,338,100.2,339.2 M206.1,339.2
		c-1,0.2-3.4,3.6-3.4,4.8c0,0.7,0.4,1,2.8,2.5c1.4,0.9,2,0.9,2.9,0.3c2.8-1.9,3.5-4,1.8-5.6c-0.6-0.6-3.3-2.2-3.6-2.1
		C206.6,339.1,206.3,339.1,206.1,339.2 M110.8,339.5c-0.2,0.1-0.3,0.1-0.3,0.1c0-0.1-2.2,2.2-2.7,2.9c-0.8,1-0.6,1.9,0.9,3.3
		c2.2,2.1,4.2,1.8,2.7-0.3c-0.9-1.2-0.8-1.4,0.2-3.1c1.1-1.8,1.3-2.3,0.9-2.7C112.2,339.3,111.3,339.3,110.8,339.5 M69.1,340.8
		c-3.5,1.6-4.1,5-1.4,8c2,2.2,2.8,1.9,6.4-2.4c1.7-2.1,1.7-2.2,0-3.9C72,340.4,70.8,340,69.1,340.8 M183.7,342.3
		c-3.7,2.5-3.5,4.6,0.8,9.2c1.2,1.3,1.4,1.4,1.8,0.9c0.5-0.6,0.4-1.6-0.6-3.3c-1-2-1-2.3,0.1-4.2c1-1.8,1-2.2,0-2.2
		c-0.6,0-0.8-0.1-1.1-0.4l-0.3-0.4L183.7,342.3 M39,344.5c-0.8,0.6-1.1,1.7-0.6,2.8c0.7,1.8,4.7,3.3,6,2.3c0.6-0.5,0.5-1.8-0.1-1.8
		c-0.1,0-0.5-0.4-0.8-0.8C41.8,344.5,40.2,343.6,39,344.5 M200.3,361.5c-2.2,0.3-6,0.9-9.8,1.6c-19.3,3.5-39.1,4.6-70.8,3.7
		c-15.2-0.4-40.8-0.4-40.4,0c0.2,0.2,4.1,0.8,7.1,1.1c1.3,0.1,4.2,0.3,6.6,0.3c2.6,0.1,5.9,0.2,8.3,0.5c35,3.4,68.9,1.8,102.5-5
		c3.4-0.7,6.5-1.3,6.7-1.3C213,361.8,203.5,361.1,200.3,361.5"/>
</g>
</svg>
