<svg xmlns="http://www.w3.org/2000/svg" viewBox="0 0 410 410"><path d="M222.9 20.6c-.3.8-.2.8.6.1l.6-.7h-.5c-.4 0-.5.1-.7.6m23.6 0c.7.7.8.7.4 0-.2-.3-.4-.5-.7-.5-.3-.1-.2 0 .3.5m-15.2 69c-8.6 1.3-11.3 2.8-9.9 5.4.7 1.3 2.1 1.5 5.1.7 2.1-.5 5-.8 8-.8 3.5 0 5-.5 5.4-1.7.8-2.4-3.9-4.3-8.6-3.6M214.2 93c-.7.1-1.6.2-2.1.3-.5.1-3.5.2-7.2.3-9.2.2-9.4.3-15 5.9-4.3 4.4-4.7 5.8-3.6 12.3.3 1.7.4 2.8.4 4.8 0 2.9.1 3.6.9 4 1.2.5 2.2-.7 2.2-2.7 0-3.8 3.4-6.7 9.3-8 4.4-1 5.1-1.4 3.8-2.6-1.6-1.4-5.9-.9-9.6 1l-1.1.6.1-.5c.7-3.3 4.9-5.4 12-6.1l1.2-.1-.1-.5c-.7-2.3-3.7-3.1-7.5-2.1-.9.2-1.7.4-1.7.4-.5 0 1.7-2 3.1-2.8 2.4-1.3 2.8-1.4 7.6-1.6 6.5-.2 11.4-1.2 11.4-2.3-.1-.3-2.1-.5-4.1-.3m31.9 0c-1.5.2-1.7.3-1.1.9 1.3 1.1 6.3 1.9 11.4 1.9 4.7 0 7.4.9 9.6 3.2 1.2 1.2 1.2 1.2-.9.7-3.8-1-6.5-.3-7.4 1.7-.4.8-.3.8 1.6 1 7.1.8 10.7 2.7 11.5 6.1l.1.5-.7-.4c-4.4-2.6-10.6-2.7-10.6-.2 0 .2 1.5.8 3.2 1.2 3.6.8 4.3 1 5.2 1.5 3.3 1.5 5.3 4.2 5.3 6.9 0 2.3 1.4 3.5 2.5 2.2.5-.6.5-.4.5-4 0-2 .1-3.3.4-4.9 1.1-6 .5-7.6-3.9-12-5.4-5.4-6.2-5.7-14.8-5.7-4.3 0-5.5-.1-7.1-.3-2.4-.4-3.5-.5-4.8-.3m-30 3.7c-1.2.9-3.3 3.9-3.6 5.1-.2.6.5.8 2.7.8 1.8 0 3 .3 4.2 1 2 1.2 2.1-1 .3-4.5-1.7-3-2.3-3.4-3.6-2.4m11.5.3c-3.2.3-4.8 1.7-4.5 3.7.2 1.5 1.2 1.7 3.8 1 2-.6 4.7-.6 7-.2 2.6.5 3.3.1 3.4-2.3.1-1.8-.1-1.9-5.2-2.3-2.4-.1-2.6-.1-4.5.1m15.2.8c-1.3.3-1.9 1.2-2.3 3.3-.3 1.9-.3 2.1.7 1.6 1.5-.8 2.5-1.1 4.3-1.1 2.2 0 2.4-.1 2.4-1.6s-.2-1.7-2.1-2c-2.4-.3-2.5-.3-3-.2m-15.6 5.7c-1 .3-2.1 1-2.1 1.4 0 .8 2.9 5.5 3.8 6.2.4.3.4.3.1.4-1.6 0-3.7 2.1-5.6 5.4-1.3 2.3-1.6 2.5-2.5 1.8-.6-.6-.4-1.1 1.6-3.6 3.1-3.9 3.2-4.2.7-5.4-1.9-1-9.3-2.6-10.7-2.4-2.9.5-3.5 2.6-1.6 5.5 2.7 4.1 5 9 4.6 10.2-.1.3-.1.6 0 .6.3 0 .7-2.4.8-4.4.1-2.5 0-3.2-1.1-5.6-1.1-2.4-1-2.7.4-.9 2.1 2.7 3 6.4 2.2 9.6-.1.5-.1.5.1.3s.2-.2.1.1c-.3.8-.6 3.2-.6 4.3 0 1.6.6 1.8 6.2 2.4 3.6.4 5.4.9 5.9 1.6.3.5.6.1.6-.8 0-1.9.9-8 1.2-8 .3 0 1 4.1 1.3 7.2.1 1.4.2 1.6.4 1.5.1 0 2.3-.6 4.7-1.2 5-1.2 7.1-1.8 7.2-2.1.1-.1-.1-.7-.2-1.5-.5-2.1-.8-4.3-.7-4.8.1-.3.2-.9.2-1.3.4-3.3 1.9-6.4 3.5-7 1.4-.6 1.6-.6.9 0-1.2 1.1-2.3 6.2-1.6 6.9.4.4.5.2 1.9-2.5 1.2-2.5 1.3-2.6 2.8-3.9 2.4-2.2 2.4-2.5.7-4.4-1.2-1.3-2.4-2-3.3-2-1.9 0-11 2.6-11.9 3.5-.7.6-.1 2 1.5 3.6l1.1 1.1-.3.3c-.6.6-1.4.3-3.1-1.3-1.4-1.3-3-2.2-4.3-2.5-.5-.1-.9-.2-1.1-.3-.2 0 .1-.3.6-.7 2.3-1.5 4.4-4 4.1-4.9-.7-1.9-5.7-3.2-8.5-2.4m28.9 8.6c-2.7 3.2-4.5 9.3-3.8 12.9.1.7 2.8 1.9 4.4 1.9.7 0 .7-.1-.4-1.2-1.7-1.8-2.3-3.5-1.8-6 .6-3.4 2.7-6 5-6 .6 0 .6-.2-.2-1.1-1.4-1.8-2-1.9-3.2-.5m-52.1.3c-.5.4-1.5 1.7-1.5 2 0 .1.2.1.5.1 4.5 0 6.7 8.1 3.2 11.8-1.1 1.2-1.2 1.3-.3 1.3 1.6 0 4-1.2 4.2-2 .5-2.6-.6-7.8-2.3-10.6-1.8-2.8-2.7-3.5-3.8-2.6m53.5 2.2c-1.7 1.1-2.8 3.5-2.4 5.2.1.5.1.5.3-.5.4-2.1 1.3-3.4 2.9-4.2l.7-.3.4.4c.6.6 1.5 2.6 1.6 3.7.1 1.1 0 1.2-.5.5-.6-.8-1.9-.8-2.7-.1-1.5 1.4-1.1 4.1.8 4.9l.5.2-.8.1c-.4 0-1-.1-1.4-.2-.8-.3-.8-.3-.6.4.7 1.6 2.5 1.5 4.1-.2 3.3-3.7.8-12.3-2.9-9.9m-55.3 1c-2.4 2.5-2.6 7.2-.4 9.6 1.5 1.7 3.4 1.8 4.1.2.3-.7.2-.8-.5-.4-.3.1-.9.3-1.4.3h-.9l.6-.3c1.8-1 2.2-3.3.7-4.8-.9-.9-2.9-.6-2.9.5 0 .1-.1.1-.2.1-.6-.4.4-3.7 1.4-4.7l.4-.4.7.3c1.6.8 2.5 2.1 2.9 4.2.3 1.3.5.8.4-.7-.3-3.3-3.3-5.5-4.9-3.9m65.1 1.7c-.9.4-1.5 1.5-2.5 4.6-1 3-.7 3.5 1.9 4.2 2.7.7 3.3 1.2 3.2 2.9v1.1h.5c1.7 0 4.7-3.9 4.9-6.4.1-1.4-.2-2.1-1.4-2.6-.8-.4-1.4-.8-3.9-2.9-1.1-1-1.9-1.2-2.7-.9m-75.4 1.7c-1.1.9-2.3 1.8-2.8 2.1-1.3.6-1.5.9-1.5 2.5 0 2.7 2.8 6.6 4.7 6.6h.6l-.1-.8c-.3-2.9 3.2-4 4.1-1.3l.3.8-1 1.1c-2.2 2.3-2.6 4.4-1.1 6 .3.4.9 1 1.3 1.5 2.4 3 3.2 3.3 3 .9-.3-4.3 1.7-6.4 3.3-3.4l.4.8-.8 1.1c-1 1.4-1.3 2.2-1.1 4.2.2 3.1.2 3.1 2.6 4.1l1.8.7-.3-.5c-.6-1.1.2-3.8 1.3-4.4.6-.3 1.5 0 1.4.4-1.3 3.1-.7 5 1.9 6l.8.3.6-1.1c.4-.7 1.1-1.5 1.8-2.1 1.3-1.1 1.3-1.1.4-2.5-.8-1.1-3.1-2.9-3.6-2.8-.9.2-1.7-.6-2.3-2.2-.2-.6-.5-1.3-.8-1.5-.3-.3-.4-.7-.4-1.2 0-1-.5-1.7-1.8-2.6-.7-.5-1.6-1.3-2.2-2-.5-.7-1.2-1.3-1.5-1.4-.3-.1-.5-.4-.7-.8-.1-.3-.6-.9-1-1.3-.8-.6-.8-.8-.9-1.6-.3-2.4-1.1-4.4-2.4-6-1.3-1.8-1.5-1.8-4 .4m69.2 9.2c-.8.6-2.7 3.7-2.3 3.9.1.1.1.2 0 .4s-.2.6-.2.9c0 1-.2 1-1.8 1.1-1.8 0-2.3.3-2.7 1.4-.5 1.4-1.2 2.7-2.3 3.9-2 2.1-2.6 4.8-1.6 6.8.7 1.4 1.4 1.6 3.1.8 1.6-.8 1.8-1.2 1.8-3.8 0-2.3.1-2.5.9-2.9 1-.5 2.1 3.5 1.4 4.9-.1.3-.2.5-.2.5s.5-.2.9-.4l1.7-.7c1.5-.5 1.6-.9 1.6-3.7 0-3.3.3-4.2 1.6-4.5l.5-.2v.8c0 .4-.1 1.1-.2 1.4-.4 1.8.9 1.5 2.5-.7.4-.6 1.2-1.4 1.6-1.9 2.5-2.7.3-6.9-4.3-8-1.3-.5-1.4-.5-2 0m-16.2 2.6c-.3.1-1.9.3-3.4.5-6.4.8-8.2 1.2-9.4 2.3-.7.6-.7.7-.7.3 0-1.6-8.4-2.9-13.5-2.2l-1 .1.9.9c1.1 1 1.2 1.4.3 2.2l-.6.6.8.8c2.1 2.1 4.6 3.2 8.1 3.3 3.9.1 5-.4 5.4-2.8.4-2 .6-2.1.6-.2 0 2.1 0 2.2 1.9 2.3 2.8.3 6.4-.4 8-1.4 1.9-1.3 4.2-3.8 3.9-4.2-.2-.3 0-1 .6-1.9.6-.8-.2-1-1.9-.6M191 139c2.8 13.2-.4 23.2-13.6 43.2-2 3-5.1 7.9-6.9 10.8-7.1 11.3-9 14-18.2 25.6-14.3 17.9-19.1 25.6-22.8 36.5-4.2 12.5-3.9 26.3.7 31 1.2 1.2 1.2 1.1.8-1.1-2.7-14.2.6-30.2 8.9-42.6 1.5-2.3 3.3-4.3 7.2-8.4 6.4-6.5 6.7-6.9 13.8-18.9 6.7-11.2 8.8-14.3 16.8-24.3 6.6-8.3 8.9-11.6 12.9-18.1 6.7-10.8 7.5-14.9 4.7-22.6-1.1-3-1.6-4.8-2-7.6-.4-2.9-1-4-2.1-4-.3 0-.3 0-.2.5m49.4.6c-.6.6-1.7 1.2-3.3 1.5l-1.4.3.2.5c.7 1.7.4 2.5-.4.9-.6-1.3-1.1-1.4-4.8-.9-2.2.3-3 .6-3.8 1.5l-.4.4-.3-.8c-.4-1.1-2-2.1-3.9-2.3l-.6-.1.1 1.6c.1 2.5-.3 3.6-1.7 4.1-.6.2-.6.3.3-1.4.7-1.4.8-1.4-.6-1.9-.6-.3-.8-.3-1.2 0-1.5.8-2.8 5-2.1 6.5.7 1.3 2.4 1.5 2.4.3v-.5l.2.5c.7 1.7 3.7 1.3 4-.5.2-1.2 1-2.4 2-2.9.6-.3.6-.1-.1.8-1 1.3-1.1 1.6-1.1 2.1 0 1.2 1.2 1.4 3.1.5 2.4-1.1 3.2-1.3 7.4-1l2.4.1.5-.5c.4-.4.5-.7.5-1.1v-.6l.5.6c.3.3.9 1.1 1.3 1.6 2.9 3.8 6.6 2 5.6-2.6-.6-2.5-1.7-3.9-2.8-3.6-.6.1-.6.2 0 1.5.2.5.4 1 .3 1.1-.2.2-.6-.3-.7-.9-.1-.3-.4-1.3-.8-2.1-.4-1-.7-1.7-.7-2.2v-.7c.3-.3.1-.1-.1.2M230.3 151c-1.9.9-2.3 2.7-1.5 5.7.2.7.3 2.2.4 5.4.1 2.9.3 6 .7 9 2.2 19.8 1.8 23.1-4.8 38.5-1.5 3.4-2.7 6.3-2.6 6.4 0 .1 2.1-2.2 4.7-5 6.6-7.3 6.3-7 7.4-6.5.3.1 3.2 2.7 6.4 5.8 3.2 3 5.9 5.5 6 5.4 0 0-.4-.8-.9-1.6-9.5-15.1-12.6-28.5-10.7-46.3 1.2-11.3.8-15.1-1.6-16.6-1.2-.7-2.5-.8-3.5-.2m18.2 1.9c-1.3.9-3.8 2.3-4.5 2.4-.7.2-.8-.3-.3-1.2.5-.9.4-1.1-1-1.5l-1-.3-1.2.4c-.7.2-1.6.4-2 .4h-.8l.4.8c.5.9.5 2.2.2 3.5-.2.9-.2.9 1.1.7 2.3-.4 10.6-5.1 10.6-6 .1-.1-.4 0-1.5.8m-25.3.3c-.5.2-1.2.2-2.1.2-2-.1-2.4.2-1.7 1.2.9 1.3.1 1.9-1.2 1-1.5-1-4.1-2.2-3.8-1.7 1.3 2.1 4.4 3.5 10.1 4.4 2.7.5 2.6.6 2-1.8-.2-1.1-.4-2.2-.3-2.4.1-.9-1.5-1.3-3-.9m-14 14.7c-1 .5-2.6 3.6-2.6 4.8 0 1.8 5.1 4.5 11.7 6.3 2.3.6 2.3.6 3.2-.8.6-.9.6-.9.7-.5.2 1.3-1.2 4.6-2.8 6.5-1.6 2.1-2 2-1.4-.2.2-.6.3-1.2.4-1.3 0-.2-.3-.3-1.6-.5-3.2-.6-7.1-1.9-10-3.4-2.3-1.1-2.9-1-5 1.3-2 2.1-3.1 4.1-2.5 4.5 4.1 3 14.1 6.7 16.2 5.9 1.2-.4-1.3 3.6-3.1 5-1.1.9-1.3.9-1.3-.1 0-1.6-.8-2.2-3.6-3-3.4-1-6-2.1-8.7-3.9-1.7-1.1-1.4-1.2-3 .9-2.1 2.7-2.7 2 5.7 6.6 3.6 2 6.6 3.6 6.6 3.7.4.3-1.1 2.7-2.6 4.1l-1.4 1.4-.1-.6c0-.3 0-.9.1-1.2.3-.9 0-1.2-3.6-2.6-3.1-1.2-4.3-1.9-6.1-3.6-2.6-2.4-4-2.5-6-.3s-2.3 3.5-1.2 5.1c2.4 3.3 7 5.3 12.8 5.8l1.3.2c0 .7-2.4 3.6-3.5 4.2l-.5.3.4-.8c.2-.5.4-.9.4-.9s-.5-.1-1.2-.2c-1.4-.1-2.5-.5-5-1.6-3.1-1.4-4.7-1.5-6.1-.1-.6.6-.7.8-.7 1.4 0 .7 0 .7-.6.7-1.1 0-1.4-2.2-.5-3.8.6-1 .5-1.2-.5-1.2-1.9 0-4.1 2.3-4.1 4.3 0 1.2.7 1.7 3.9 3 3.6 1.4 4.2 1.6 6.2 2.1 2.2.5 3.5 1.1 3.5 1.5 0 .4-1.3 2.2-2 2.7-.7.6-.8.6-.8.1s-.7-1.1-1.4-1.1c-.3 0-1.2-.1-1.9-.3-3.3-.6-4.7-.2-5.6 1.5l-.3.5v-.5c0-.3.1-.8.2-1.2.6-1.6.3-2.1-1.6-3-3.3-1.5-6.1-.9-6.5 1.4-.3 1.9 1.3 2.8 9.2 5.4 4.6 1.5 4.8 1.6 4.3 2.5-.4.8-2.4 2.9-3.1 3.3l-.5.3.4-.9c.7-1.7.9-1.5-2.7-2.5-3.9-1.1-3.4-1.2-4.8.1-1.8 1.7-2 1.2-.9-1.7.1-.2 0-.2-.4-.2-.2 0-1.3-.4-2.3-.9-2.2-1.1-2.5-1-4.3 1.9-1.5 2.5.3 3.8 7 5 1.3.2 3.4.6 4.6.8 2.3.4 3 .7 3.1 1.4.3 1.8-6.2 2.5-10.6 1.1-2.3-.7-2.8-.7-4 .5-.4.4-.8.7-.8.7s-.1-.8-.1-1.8c0-2.2-.1-2.4-1.3-2.3-2.7.3-5.4 2.7-4.6 4.1 1 1.7 13.7 5.2 16.5 4.5.9-.2.9-.4 0 1.6-.8 1.7-1.9 3.1-2.7 3.5-.7.4-.8.3-.7-.7.1-1.6 0-1.7-5.4-2.7-5.9-1.2-5.9-1.2-7.4 1.4-.4.6-.7 1.2-.8 1.2-.4.1-.6-1.4-.4-2.4.3-1.2.1-1.8-.5-2.1-1.4-.7-2.6-.1-3.9 2.3-.4.8-1.1 1.8-1.5 2.3-1.6 2-1.5 2.1 3.3 3.2 8.5 1.8 12.2 2.2 15.1 1.4.7-.2 1.3-.3 1.3-.3.1.1-.8 1.8-1.5 2.9-.4.7-1.1 1.8-1.4 2.6-.5 1.2-.8 1.5-1.2 1.7-.9.4-1 .2-.9-1.6.1-1.6.1-1.7-.3-1.9-.6-.4-5.1-1-13.1-1.7l-3.1-.3-1 .5c-3 1.5-5.4 5.7-4.3 7.7.8 1.4 2.1 1.7 10.9 1.8 8.3.1 8.3.1 9.4-1.1 1.7-1.7 1.9-1.1 1.4 4.7-.2 2.4-.3 3.2-.5 3.2s-.6-1.1-.8-2.2c-.4-2.4-1-2.7-3.7-1.9-4.6 1.3-8.7 1.3-14 .1-4-.9-4.8-.5-5.9 2.6-1.2 3.5-.7 4.7 2.1 5.3 1.8.4 4.4.5 7 .3 1.3-.1 4.3-.2 6.8-.3 5 0 4.9 0 6.1-1.3 1.4-1.5 1.8-1 1.8 2.1 0 3.6-.8 4.9-2 3.6-.2-.2-.6-.7-1-1.1l-.7-.7H163c-.7 0-2.3.2-3.5.5-4.5.9-5.2 1-10.4 1.1-6.7.1-6.8.2-6.8 5.1 0 5.8 1.7 7 8.7 6 7.7-1.1 13.2-3.2 15.1-5.6.9-1.2 1.4-1.3 1.7-.3.3.9.4 7 .2 7.4-.5 1-1.3.9-2.1-.1-1.9-2.3-2.2-2.4-5.1-1.1-3.6 1.6-7.8 2.7-12.2 3.1-2.6.2-3.1.4-3.5 1-1 1.4 1.2 7.8 3.1 9 1.2.7 7.1-.1 12.7-1.7 2.3-.7 2.6-1 3-2.8.3-1.3 1.1-2.5 1.4-2.1.6.6 3.4 5.6 3.5 6.3.4 2-.8 2.7-3.3 2.1-2.1-.5-3.2-.4-5 .4-3.7 1.6-3.6 1.6-5.5 1.8-4.3.4-3.6 2.3 2.3 6.2 4.2 2.8 6.9 3.3 14.7 2.7 1.9-.1 4.6-.3 5.9-.4 9.1-.4 13.9-2.4 14.3-6 .1-.9-.1-1.1-3.5-3.9-8.3-6.9-13.9-16.4-11.3-19.3.8-.9 1.6-1.1 6.4-1.5 5.5-.5 7.8-.9 9.6-1.7 3.7-1.6 3.8-5.2.2-6.9-2.4-1.1-11.3-2.1-11.3-1.2 0 .3 1 1 2 1.3 1.5.6 2.4 1.9 1.6 2.5-.4.3-3.4.7-4.5.6-5.5-.5-9-9.3-7.1-18 2.8-13.3 11-26.3 31-49.3 12.4-14.3 14.2-16.8 17-24.6 1.1-3.1 1.4-3.6 3.3-6.6 2.4-3.7 2.2-4-2.8-4.8-7.1-1.1-8.6-1.4-11.2-2.6-1.3-1-1.8-1.1-2.4-.7m27.4 100.3c-15.5.5-24.2 2.5-31.2 7.1-3.7 2.5-5.7 5-5.9 7.4-.2 2 .2 2.7 2.6 4.7l1 .9v-.5c0-2.3 1.9-4.1 5.9-5.4 5.9-2 7.7-1.9 12.9 1 1.6.9 3.4 1.8 4 2.1 7.6 3.3 10 6.7 8.4 11.6-1 3-3.5 5.4-8.1 7.7-1.7.9-2.2 1.3-.8.7.4-.2 2-.7 3.5-1.1 2.9-.8 4.9-1.7 6.2-2.7l.8-.6.6.5c.3.3 1 .9 1.5 1.4 1.1 1.1 1.7 1.1 2.9 0 1.7-1.7.7-4-1.5-3.9-1.3.1-1.3 0-.5-.7 2.2-1.8 4.4-2.1 6.8-.9 3.8 1.8 7.1 5.1 8.3 8.1 1.5 3.9 1.6 16.8.2 24.2-.5 2.5-.6 4.7-.3 4.7.7 0 2.6-3.3 3.3-5.7 1.7-6 1.6-12.7-.3-19.3-2-7-7.6-16.4-11.2-19-1.8-1.3-9.8-5.6-12.8-7-5.3-2.4-6.3-3-8-4.7-1.8-1.9-2-3.2-.6-4.2 2.2-1.6 20.4-3.7 34.4-4 3-.1 5.4-.2 5.4-.2 0-.3-1-1-1.8-1.3-2.2-.8-15.3-1.2-25.7-.9m30.5 2c0 .6 1 1.4 2.2 1.7.6.1 1.6.4 2.2.5.8.2 1.3.5 2 1 2 1.6 4 1.4 3.7-.4-.1-.7 4-.3 6 .6.9.4 1.1.6 1.5 1.4 1.3 2.2 3.9 2.5 4.9.6.4-.7.6-.7 1.6 0 1.2.8 2 1.1 3.1 1.3 1 .2 1.2.2 1.2.5 0 .4.7 1.7 1.2 2.3.9 1 3.2.3 2.8-.8-.4-1.1.3-1.1 1 0 .7 1 2.2 1.7 3.3 1.7 1 0 1.1.1 1.3 2 .2 2 .5 2.1 2.5 1.4 1.7-.6 2.2-.5 4 .3.8.4 3.3 1.6 5.5 2.6s6.2 2.9 8.9 4.3c9.3 4.5 13.2 5.4 14.2 3.3.4-.9 1.5-.6 3.5 1 1.7 1.3 1.8 1.4 2.7 1.6 1 .3 5.8.5 13.7.6 7.3.1 12.2-.2 18.9-1.1l2.4-.4 1.8 1.9 1.8 1.9.3-.4c.1-.2.3-1.1.4-1.9.3-2.2.3-2.3 2.2-2.8 2.7-.7 4.4-1.9 5.1-3.4l.2-.6.7.4c.4.2 1 .5 1.4.6.5.1 1 .5 1.9 1.4 1.4 1.4 1.7 1.5 1.7.3v-.8l.7.5c4.4 3.6 5.7 11.5 3.3 19.9-.3 1.1.2.5 1-1.1 3-5.9 1.9-13.1-3-20.4-2.3-3.4-4.2-4.9-7.8-5.8-.9-.2-1.8-.6-2.1-.8-5-3.8-34-7-54-6-10.5.5-17.1 1.4-19 2.4-1.2.7-1.3.8-.4 1.3 1.8.9 4.7 1.1 8.9.5 9.6-1.3 21.4-1.3 34.3 0 7.3.7 20.8 2.5 21.6 2.9 2.2.9 1.2 3.9-1.8 5.3-7.3 3.4-43.6 1.3-54.5-3.1-2.7-1.1-6.1-2.9-11.2-5.8-8.3-4.8-11.2-6.3-16.5-8.4-4.9-2-6.7-2.3-14.5-2.9-1.4-.1-4.5-.4-7-.7-2.5-.3-5.4-.5-6.4-.6-1.1-.1-2.2-.1-2.5-.2-.9.1-.9.1-.9.4m-149.7.3c-.5 0-2.9.3-5.4.6-2.8.3-6 .5-8.3.6-14 .4-29.7 3.1-48.2 8.5-1.7.5-4.7 1.3-6.7 1.7-15.9 3.7-27.7 13.4-32.2 26.4-4.2 12.4 2.8 31.7 14 38.5 1.3.8 1.3.8.1-1.1-2.7-4.1-6.2-11.3-5.9-12.2.6-2-.7-5.1-2.1-5.1h-.6l-.6-1.8c-3.7-11.4 2.4-26 11.5-27.6 1.5-.3 1.7-.1.9 1-1.3 2.1-.3 3.2 2.2 2.3 1.9-.7 3.9 0 3.4 1.3-.1.2-.2 1-.2 1.7 0 .8-.1 1.5-.3 2.1-.6 1.4-.4 2.3.3 2.8 1.1.5 1.8.3 4.2-1.6 1.4-1.1 1.8-1.1 3.3-.2 1.6.9 1.7 1.3.9 2.6-1 1.9-.6 2.8 1.5 2.8 1.1 0 1.1 0 2-.9 1.4-1.4 2.3-1.4 5.1-.1 3.1 1.4 9 3 15.1 4.2 1.7.3 3.3.6 3.5.7.3.1.4.2.4 1.4.2 2.7.8 3.1 3.9 2.1 1.6-.5 2.4-1.1 2.5-1.9.1-.5.1-.5.6-.4 2.6.5 12.2 1.4 18 1.6l4.2.2-.6.8c-1.2 1.5-1.3 2.1-.4 3 1.6 1.5 3.5 2 4.5 1.2.6-.5.6-.7-.2-1.7-.7-.9-1-2.4-.6-2.9.2-.2 1.9-.2 10.6-.2 24.5 0 54.9-1.6 75.8-4 2.4-.3 2.6-.3 2.3.3-1.4 2.7-1.1 3.2 3.1 4.6 2.6.9 3 .9 4.1 0 1.7-1.4 1.9-3.4.5-5.1-.8-1-.8-1 1.6-1.6 4.6-1.2 8.1-3.5 8.1-5.5 0-.4 4.4-.7-33.9 2.8-49.7 4.6-49.1 4.5-60.6 3.5-14-1.3-37.8-4.5-48.6-6.7-15.6-3.1-21.3-5.2-24.2-8.8-2-2.5-3.1-6.2-2.2-8 1.3-2.7 14.6-8.6 25.9-11.6l1.8-.5-.4.4c-1.2 1.3.7 3.5 3.9 4.3l.4.1.2-1.9c.3-2.7.3-2.8-.3-3.3l-.5-.5 3.5-.7c8.8-1.7 17.9-2.7 29.4-3.1 1.4-.1 3.1-.1 3.6-.2l1.1-.1-.5.6c-1 1.3-1 1.5.9 3.3 1.9 1.8 2.1 1.9 3.5 1 1.4-.9 1.2-1.4-1-3.4-.9-.8-1.6-1.5-1.5-1.6 0-.1 1-.2 2.1-.3 6.2-.6 8.8-1.9 7.3-3.5-.5-.7-2.7-1.1-5.8-.9M99 278.8c-.7.5-.2 2.3.8 2.8.8.4.8.8.1 1.9-.9 1.5-.8 2.1.5 1.6 3-1.1 2.8-5.5-.2-6.3-.8-.2-1-.2-1.2 0m182.4.2c-.4.1-.7.9-.8 2.2-.2 1.4-.3 1.5-1.2 2-1.2.7-1.1 3.5.2 3.5.7 0 3.8-2.7 4.2-3.7.8-2-.8-4.6-2.4-4m-189 .2c-.7.4-.5 1.4.6 3 .7 1.1.7 1.4.2 2.5-.9 2 .4 1.9 2.9-.3.8-.7.1-2.8-1.4-4-.1-.1-.2-.3-.2-.4.4-.4-1.4-1.1-2.1-.8m-5.1.6c-2.3 1.1-3.1 3.1-1.7 4.3.3.3 1 .9 1.4 1.3 1.2 1.1 1.9.9 2.1-.6.1-.5.3-1.4.5-2.1.4-1.5.3-2-.5-2.8-.6-.6-.6-.6-1.8-.1m-7.2 2.8c-1.7 2.1-1.6 3.3.2 4.9 2.1 1.8 2.7 1.2 2.7-2.7V282l-.4-.5c-.8-.9-1.1-.8-2.5 1.1m31.7 1.2c-.3.7.1 1.5 1.4 2.7 1.7 1.6 1.8 2.1 1 3.6-1 1.9-.7 2 1.2.6 1.7-1.3 2.1-1.8 2.1-2.4 0-1.4-2.4-4-4-4.4-.3-.1-.5-.2-.5-.3 0-.4-1-.3-1.2.2m182.6 1.4c-2 2.1-2.2 2.4-2.2 3.4s.8 2.1 1.5 1.9c2.7-.7 4.4-2.7 3.9-4.6-.7-2.6-1.3-2.7-3.2-.7m6 .3c-.9 1-1.6 2.1-1.8 2.8-.1.3-.3.9-.5 1.3-.9 1.9.3 2.1 2.8.6 2.7-1.6 3-2.8 1.3-4.9-.7-.8-1-.7-1.8.2m-213.9 3a4.61 4.61 0 0 0-.3 6.8c1.9 1.9 4 1.5 2.2-.4-1.5-1.6-1.5-2.8-.1-4.7 1.4-2-.1-3.3-1.8-1.7m-7.7 3.7c-1.4 2.3-1.4 2.3-.1 4.3 1.2 1.9 1.9 2.5 2.7 2.4 1.6-.3 2.3-2.6 1.2-3.7-.7-.6-.8-1.1-.8-2.8 0-1.8-.2-2.1-1-1.9-.3.1-.5 0-.5-.1 0-.4-.3 0-1.5 1.8m210.5-1.3c-.5.2-.6.5-.7 2.3-.1 1.4-.2 1.8-.5 2.2-.5.7-.5 1.3.1 1.6.8.3 1.6-.4 3.3-2.7 1-1.6-.7-4-2.2-3.4m-6.4 1c-2.3 2.8-2.8 4.3-1.7 5.9.6 1 .9 1.1 1.8.6 1.7-.9 1.9-1.9 1-5.5-.4-1.9-.4-1.9-1.1-1m12-.1c-.3.2-.8.6-1.2.8-1 .5-1.3 1.2-1.3 3.2 0 3.2 1.1 3.5 2.6.6.5-.9.8-1.4 1.7-2.5 1.1-1.6-.4-3.3-1.8-2.1m-226.9.4c-1.7 1.1-1.5 3.5.3 4.4 1.8.9 2.4.4 2.2-2-.2-2.5-1-3.3-2.5-2.4m236.4 1.9l-2 2.1.1 2.9c.2 4.7.4 4.7 3.4.1 1.8-2.8 1.8-2.8 1.3-5-.3-1-.5-1.8-.6-2-.1-.1-.9.6-2.2 1.9m-5.6-1.5c-.2.1-.2.3-.2.4.2.5-.5 1.5-1.7 2.7-2 2-2.1 2.9-.9 4.1 1.1 1 1.4 1 2.5-.5 2.5-3.4 2.7-4 1.6-5.9-.5-1-.8-1.1-1.3-.8m19.5.2c-3 1.3-3.2 4.3-.3 7.2 1.4 1.5 1.6 1.5 2.6.4 2-2.3 2.1-3.8.2-6.3-1-1.4-1.6-1.7-2.5-1.3m76.4 2c-.8 1.1-.3 2.8 1.4 4.6 1.9 2 2.9 1.5 2.2-1.2-.1-.5-.3-1.2-.3-1.4-.1-.6-.9-1.4-1.8-2-.9-.5-1.1-.5-1.5 0m-67.7 1.4c-2.5.4-1.8 5.1.9 5.8 1.4.4 3.3-2.6 2.6-4.1-.6-1-2.4-1.9-3.5-1.7m63.7.5c-1.9 1.1-3.2 4.8-2.1 5.7 1.1.9 4 2.1 4.5 1.8.7-.4.7-1.3-.1-2.6-.8-1.1-1.1-2.5-.9-3.8.2-1.3-.3-1.7-1.4-1.1m-100.2.4c-1.1.6-2.4 2.3-2.4 3.1 0 .7 2 3.6 2.6 3.7 1.3.2 2.5-3.1 1.6-4.4-.2-.4-.5-.9-.5-1.3-.2-1.3-.6-1.6-1.3-1.1m23.1 2.6c-3.5 4.2-3.8 5.6-1.9 8.6 1.4 2.2 1.8 2.3 3.3.7 2.8-2.9 3-6.7.5-9.5-.8-.8-1.1-.8-1.9.2m-13.2-.5c-.1 0-.8.8-1.6 1.8l-1.4 1.7.4 1.7c.2.9.6 2.3.9 3.1l.5 1.4.7-.8c1.5-1.7 1.8-2.7 1.2-4.8-.2-.8-.3-2-.3-2.8 0-.8-.1-1.4-.1-1.4s-.2 0-.3.1m72.8.7c-.1.2 0 .6.5 1.7.9 2 .9 2.1-.8 2.7-2.2.7-1.3 3.1 1.2 3.1 1.5 0 2.7-.7 3.4-2 .6-1.2.5-1.5-1.4-3.4-2.2-2.5-2.4-2.6-2.9-2.1m6.6.6c-1 1-.4 3.1 1.3 4.7 2 1.8 2.6 1.9 3.5.6 1.1-1.6.5-3.6-1.5-4.4-.5-.2-1.2-.6-1.6-.8-.7-.7-1.2-.7-1.7-.1m-351.9 2.4c-1.9 1.7-2.3 2.1-2.3 2.7 0 1.2.8 1.3 2.3.5 2.6-1.4 3.5-3 2.3-4.1l-.6-.5-1.7 1.4m218.5-.1c0 .1.1.2.2.3.2.2.1.2-.2.2-1.7 0-2 1.6-.5 3 2.3 2.2 5 2 3.9-.3-.5-1-3.4-3.7-3.4-3.2m148.7.1c-.1.3-.6 4.3-.6 4.9 0 .8.6 1.4 1.4 1.4 1.9.1 2.9-2.7 1.9-4.8-.5-1.1-.9-1.4-1.1-1-.1.2-.2.2-.6-.2-.5-.5-.9-.6-1-.3m-110.9 1.6c-.9 1.1-.7 1.8 1 3 1.4.9 2.8.2 2.1-1.1-.1-.2-.6-.8-1-1.4-1-1.3-1.3-1.4-2.1-.5m-251.4.6c-2 1-2.1 1.1-1.7 2.7.5 2.3.5 2.3 2.8 1.1 2.6-1.3 3-1.9 2.7-3.2-.5-1.7-1.4-1.9-3.8-.6m355.6 0c-.2.1-.6.4-.9.7-.3.3-.7.6-.9.8-.6.5 1.2 3.8 2.2 4.2 1 .3 2.7-1.8 2.6-3.4.1-1.3-2-2.9-3-2.3M236 307c.1.1-.1.2-.4.2-.6 0-1.7 1.1-1.7 1.7 0 .4.9 1.2 2.8 2.6.4.3 2.5-1 2.5-1.5 0-.3-1.3-1.9-2.2-2.5-.7-.6-1.2-.8-1-.5m144.4 0c.1.2-.1.3-.9.3-1.3 0-1.4.3-.7 1.7l.5.9-.5.4c-1.3 1 0 2.4 2 2.2 3.5-.3 5.4-3 2.8-3.9-1.2-.4-2-.8-2.6-1.4-.5-.2-.7-.3-.6-.2m-85.4.8c-.5.2-1.4.2-2.1 0-1-.4-1.2.9-.2 1.8 3.1 2.9 4.6 2.6 3.4-.6l-.5-1.4-.6.2m-266.6.9c-1.5.3-2.9 3.5-2.1 5 .8 1.6 3.3-.9 3.3-3.4-.1-1.7-.2-1.8-1.2-1.6m274.4 1c-1.8 1.7-2 2.4-1 3.7 3 3.6 6.2 1.9 4.2-2.2-1.1-2.4-1.9-2.7-3.2-1.5m-269.7 1.8c-.3.2-1 .7-1.6.9-1.8.8-3 3.1-2.5 4.9.7 2.4 5.6-1.4 5.6-4.3.1-1.6-.7-2.3-1.5-1.5m187.2.6c-1.4 1.4-1.5 2.6-.1 3.2.4.2 1 .5 1.3.8 1.5 1.2 3.2.5 3.2-1.4 0-1.4-.9-2.5-2.7-3.2l-.7-.3-1 .9m165 .7c-.5.2-1.1.7-1.4 1-.3.3-.6.6-.7.6-.6-.1-.8 1.5-.3 2.1.8.9 1.6.7 6.5-1.6 1-.5 1-.8.3-1.5-1.2-1-3-1.3-4.4-.6m-149.3.6c-.8.5-1.4 1.5-1.5 2.5-.3 2.6 5.6 4.1 6.3 1.5.5-2.2-3-5.1-4.8-4m-197.6.1c-3.7 1.3-5 5.7-1.4 5.1 2.6-.5 3.5-1.5 3.6-4.1v-1.2h-.7c-.4-.1-1 0-1.5.2m242.2 0c-.4 0-.7.1-.7.2s.3.3.7.4c.4.1 2 .7 3.6 1.3 1.6.6 4.2 1.6 5.7 2.3 13.3 5.8 26.4 9.4 34.1 9.2h2.2l-4.5-.9c-11-2.2-15.8-3.7-24.3-7.8-8.1-4.1-11.9-5.1-16.8-4.7m-223.4 1.8c-2.1 2.3-2.3 4.4-.5 5.5 2.2 1.4 4.4-.5 4-3.3-.6-3.6-1.6-4.2-3.5-2.2m188.2-.3c0 .4 0 .5-.2.2-.4-.6-.6.1-.7 2.2l-.1 2 .8.8c.4.5.9 1 1.1 1.2.8.9 2.3-.2 2.3-1.7 0-1.1-.3-1.6-1.5-3.2-.6-.7-1.2-1.4-1.3-1.7l-.3-.4-.1.6m-19.4.1c-.3.4-1.3 3.5-1.3 3.9 0 .5.8 1.1 1.9 1.4.6.2 1.7.8 2.4 1.3 1.9 1.3 1.9 1.3 2.8-1.5.7-2.2.7-2.5-.3-3.6-1.4-1.6-4.8-2.5-5.5-1.5m-200.8 1.7c-1.4 1.5-2 3.8-1.5 5.6l.2.8.4-.7c.2-.4.8-1 1.4-1.4 1.5-1.2 1.8-2.4.8-4.3-.4-.9-.5-.9-1.3 0m19.3-.2c-1.5.8-2.2 2.9-1.5 4.7.3.8.6.8 2.8-.7 2.2-1.5 2.5-1.8 2.5-2.6 0-1.6-1.9-2.3-3.8-1.4m173.7 1.3c-2.1 2.4-2.1 2.9.6 5.2 2.3 1.9 2.5 2 3.7.9 2.7-2.4 2.4-3.7-1.2-5.8-2.4-1.4-2.1-1.3-3.1-.3m-186.6.6c-2.4 1.2-3.4 3.6-2.7 7 .3 1.4.7 1.3 2.2-.1 2.6-2.8 3.1-8.2.5-6.9m203.6.5c-.1.1-.3.2-.6.2-1.7 0-1.8 1.6-.5 5.1 1 2.5 1.4 2.5 3.8-.5 1.9-2.4 2.1-2.9 1.2-3.6-.9-.8-3.7-1.6-3.9-1.2m-27.6 1.6c-.4.8-.8 1.2-1.7 1.8-2.8 2-2.8 3.9 0 4.3 1.4.2 1.7.3 2.7 1.3 1.2 1.1 1.7.9 3.2-1.2 2.6-3.6 1.9-6-2-7-1.5-.4-1.6-.4-2.2.8m-170.3.4c-3.6 2.1-4.1 3.3-2.4 6.1 1.6 2.7 1.7 2.7 4.1.3 2.5-2.5 2.8-3.2 1.7-5-1-1.7-2.1-2.2-3.4-1.4m189.1 1c0 .1.1.2.2.4s0 .3-.7.5c-3.3 1.1-3 4.8.5 6.6 1.5.8 1.6.7 3.4-1.1 2.8-2.9 2.6-3.1-3.3-6.5 0 0-.1 0-.1.1m-136.5 1.9c-2.9 2.2-3.6 3.7-2.5 5.4 2.7 4 3.3 4.4 4.8 2.9.9-.9 1-1.5.3-2.3-.7-.9-.7-1.7 0-3.1 1.4-3.2 0-4.8-2.6-2.9m148.5 1.8c-1.9 2.7-2 2.5.4 4.5 2.6 2.3 2.8 2.2 4.1-.7 1.3-2.7 1-3.3-1.9-5.2-.4-.3-.8-.5-.8-.6-.1-.3-.3 0-1.8 2M44.7 324c-2.1 1-2.6 5.9-.8 7.8.7.7 2.3-.1 4.5-2.2 2.4-2.2-.7-6.9-3.7-5.6m65.6 1.9c-2.2 1.9-2.7 2.9-2 3.9.3.5 4.4 3.8 4.5 3.7.2-.2 0-1.3-.4-2.3-.7-1.5-.7-1.6.6-3.4 1.4-2 1.3-2.6-.4-2.8-.5-.1-.7-.2-.6-.4.2-.4.1-.3-1.7 1.3m-55.5-.8c-.2.1-.7.3-1.1.3-1.5.2-1.5.3-1.5 3.6 0 3.7.3 4.7 1.6 4.7 1.4 0 4.4-2.8 4.2-3.9-.3-1.3-1.8-4.7-2.1-4.7-.2 0-.4 0-.5-.1-.2-.1-.5 0-.6.1m8.7 1.4c-2.8.8-4.3 3.8-3.2 6.5 1.4 3.5 1.7 3.6 5.2.7 3.6-3 3.6-3.2.7-6-1.5-1.5-1.6-1.5-2.7-1.2m-32.8.5c-1.8.9-2.1 2.1-1.4 4.9.6 2.5.7 2.5 1.6 2.5 2.3 0 3.6-3 2.6-6.2-.4-1.3-1.5-1.8-2.8-1.2m200.6 2.1c-2 2.2-2 2.2-.8 3.3 2 2 4.1 1.9 5.2-.3 1-2 .1-4.1-1.9-4.5-.3-.1-.5-.2-.5-.3-.1-.3-.4 0-2 1.8m-60.2-.4c-.1.1-.2.3-.3.6-.1.3-.5.9-.9 1.3s-1.3 1.6-1.9 2.6l-1.2 1.8.6.6c1.9 1.7 5.2 3.7 6 3.7 1 0 1.2-1.1.4-2.1-1.2-1.5-1.4-2.6-.9-5.2.5-2.7.3-3.4-1-3.3-.3-.1-.7-.1-.8 0m24.8.3c.1.2 0 .3-.6.3-.9 0-1.5.6-1.5 1.6 0 .7 0 .8 1.6 2.1l.6.5v1.8c-.1 3.6 1.7 3.7 3.4.1 1.6-3.2 1.2-4.8-1.2-5.7-.4-.1-1.1-.4-1.5-.7-1-.4-.9-.4-.8 0m-157.5.9c-.8.4-2.7 2.4-2.9 3.2-.3.9-.1 1.5 1.1 3.7 1.4 2.6 2 2.8 3.4.8 2.5-3.4 2.5-3.9.7-6.7-.9-1.2-1.3-1.4-2.3-1m173.8.7c-1.4.6-2 1.7-1.2 2.5.5.5.3 1.1-.5 2-1.6 1.6-1.5 3.2.2 3.7.3.1 1.1.6 1.6 1 1.5 1.3 2.1 1.1 3.2-.8 2.2-3.9 1.9-6.2-1.2-8.1-1.1-.8-1.1-.8-2.1-.3m-95.3.5c-.6.3-2.3 1.8-2.3 2 0 .1.1.1.2 0 .2-.2-.1.1-1.3 1.1-1.3 1.1-1.4 2.7-.2 4.2 2.5 2.9 5.4 2.9 3.2 0-1.3-1.7-1.2-2.4.2-4.1 1.4-1.6 1.7-2.8 1-3.2-.3-.3-.2-.3-.8 0m-11.7.8c-1.8 1.4-2.7 2.7-2.7 4.2 0 1.4.5 2.1 2.6 3.6 2.6 1.8 3.2 1.6 1.7-.6-1.4-2.1-1.5-2.8-.4-4.5.9-1.4.8-2.8-.2-2.8-.2 0-.2 0 0-.2.3-.6 0-.4-1 .3m-58.1 1c-1.7.5-3.6 2.3-3.6 3.3 0 .5 2.5 5.3 2.8 5.3.6-.1 5.4-4.8 5.4-5.3-.1-2.1-2.6-3.9-4.6-3.3m180 1.8c-.2.2-.5.6-.7 1-.4.8-.8 1.1-1.5 1.3-2 .4-1.8 1.3.8 4.2 1.1 1.2 1.1 1.2 2.9.3 3.7-2.1 4.1-3.7 1.6-5.7-.5-.4-.9-.8-1.1-.9-.3-.6-1.6-.6-2-.2M32.5 336c-.7.5-1.6 2.8-1.5 3.5.1.5 3.7 3.7 4.2 3.9 2.2.6 2.5-2.3.6-5.1-1.4-2.3-2.4-2.9-3.3-2.3m133.7 1.2c-1.4 1-2.9 3.1-2.9 4 0 .7 3.8 3.8 4.7 3.9 1.1.1 1.1-.2.2-2.2-.8-1.7-.8-2.4-.3-3.5.6-1.2.4-2.2-.4-1.9-.2.1-.3 0-.3-.3-.1-.6-.2-.6-1 0m-66 2c-.6.3-.6.5 0 .5.2 0-.1.2-.7.5-1.3.6-2.9 1.7-3.4 2.3-1.2 1.5 2.7 6.7 4 5.3.3-.3.2-.7-.5-1.3-1.2-1.1-.9-2.4 1.1-4.7 2.1-2.2 1.7-3.8-.5-2.6m105.9 0c-1 .2-3.4 3.6-3.4 4.8 0 .7.4 1 2.8 2.5 1.4.9 2 .9 2.9.3 2.8-1.9 3.5-4 1.8-5.6-.6-.6-3.3-2.2-3.6-2.1 0 0-.3 0-.5.1m-95.3.3c-.2.1-.3.1-.3.1 0-.1-2.2 2.2-2.7 2.9-.8 1-.6 1.9.9 3.3 2.2 2.1 4.2 1.8 2.7-.3-.9-1.2-.8-1.4.2-3.1 1.1-1.8 1.3-2.3.9-2.7-.3-.4-1.2-.4-1.7-.2m-41.7 1.3c-3.5 1.6-4.1 5-1.4 8 2 2.2 2.8 1.9 6.4-2.4 1.7-2.1 1.7-2.2 0-3.9-2.1-2.1-3.3-2.5-5-1.7m114.6 1.5c-3.7 2.5-3.5 4.6.8 9.2 1.2 1.3 1.4 1.4 1.8.9.5-.6.4-1.6-.6-3.3-1-2-1-2.3.1-4.2 1-1.8 1-2.2 0-2.2-.6 0-.8-.1-1.1-.4l-.3-.4-.7.4M39 344.5c-.8.6-1.1 1.7-.6 2.8.7 1.8 4.7 3.3 6 2.3.6-.5.5-1.8-.1-1.8-.1 0-.5-.4-.8-.8-1.7-2.5-3.3-3.4-4.5-2.5m161.3 17c-2.2.3-6 .9-9.8 1.6-19.3 3.5-39.1 4.6-70.8 3.7-15.2-.4-40.8-.4-40.4 0 .2.2 4.1.8 7.1 1.1 1.3.1 4.2.3 6.6.3 2.6.1 5.9.2 8.3.5 35 3.4 68.9 1.8 102.5-5 3.4-.7 6.5-1.3 6.7-1.3 2.5-.6-7-1.3-10.2-.9"/></svg>