<?xml version="1.0" encoding="utf-8"?>
<!-- Generator: Adobe Illustrator 23.0.1, SVG Export Plug-In . SVG Version: 6.00 Build 0)  -->
<svg version="1.1" xmlns="http://www.w3.org/2000/svg" xmlns:xlink="http://www.w3.org/1999/xlink" x="0px" y="0px"
	 viewBox="0 0 500 500" style="enable-background:new 0 0 500 500;" xml:space="preserve">
<style type="text/css">
	.st0{display:none;}
	.st1{display:inline;}
	.st2{clip-path:url(#SVGID_3_);}
	.st3{clip-path:url(#SVGID_4_);fill:#024751;}
	.st4{fill:#231F20;}
</style>
<g id="Layer_1" class="st0">
	<g class="st1">
		<defs>
			<rect id="SVGID_1_" x="60.3" y="33" width="377.5" height="430.3"/>
		</defs>
		<defs>
			<path id="SVGID_2_" d="M368.9,246.2l38.8-38.5c40.1-39.9,40.1-104.8,0-144.7C367.5,23.1,302.1,23.1,262,63l-14.1,14
				c-18.7-26.6-49.5-44-84.7-44C106.4,33,60.3,78.8,60.3,135.3v221.7c0,56.5,46.1,102.3,102.9,102.3c35.2,0,72-24.4,90.7-51l8.1,21
				c40.1,39.9,105.5,39.9,145.7,0s40.1-104.8,0-144.7L368.9,246.2L368.9,246.2z"/>
		</defs>
		<clipPath id="SVGID_3_">
			<use xlink:href="#SVGID_1_"  style="overflow:visible;"/>
		</clipPath>
		<clipPath id="SVGID_4_" class="st2">
			<use xlink:href="#SVGID_2_"  style="overflow:visible;"/>
		</clipPath>
		<rect x="22.5" y="-4.7" class="st3" width="453" height="501.7"/>
	</g>
</g>
<g id="Layer_2">
	<g>
		<g>
			<g>
				<path class="st4" d="M459.8,120.1l0.1,0.5C459.8,120.4,459.9,120.3,459.8,120.1z"/>
				<path class="st4" d="M428.9,56.8l0.4-0.2C429.1,56.6,429,56.7,428.9,56.8z"/>
				<path class="st4" d="M395.6,74l-0.3-0.2C395.4,73.9,395.5,74,395.6,74z"/>
				<g>
					<path class="st4" d="M409,90c1.3,1.9,2.7,3.7,3.9,5.5c0.6,0.9,1.2,1.8,1.8,2.5c0.6,1,1.2,1.9,1.8,2.9l1,1.4l0.9,1.5
						c0.6,1,1.2,2,1.8,2.9c0.6,1,1.1,2,1.7,3l0.9,1.5l0.8,1.6l1.8,3.2l1.7,3.3c0.6,1.1,1.1,2.3,1.6,3.4c0.5,1.2,1,2.3,1.4,3.5
						c1.7,4.8,2.8,9.9,2.8,15.1c-0.3,11-2.8,21.6-6.4,31.7l-0.7,1.9c-0.3,0.7-0.6,1.4-0.9,2.1c-0.6,1.4-1.2,2.7-1.9,4
						c-1.3,2.6-2.8,5.1-4.3,7.5c-3.1,4.8-6.7,9.4-10.6,13.9c-3.8,4.3-7.2,9.1-10.8,13.7c-1.8,2.3-3.7,4.6-5.6,6.8
						c-1,1.1-2,2.1-3.1,3.2c-0.5,0.5-1.1,1-1.6,1.5c-0.5,0.5-1,0.9-1.6,1.3c-2.3,1.7-5,3.2-7.6,4.8c-0.6,0.4-2.1,2.2-3.6,4.2
						c-1.5,2-3,4.3-3.4,5.4c-0.2,0.5,1.2,0.1,2.7-0.2c1.4-0.3,3.1-0.7,3.8-0.8c2.3-0.5,5.1-1.2,7.8-2.1c2.6-0.8,5.1-1.8,6.7-2.7
						c3.2-1.8,5.3-3.2,7.4-4.6c2.1-1.5,4.1-3.1,6.8-5.4c5.4-4.9,10.6-9.9,15.8-15.1c5.2-5.2,10.4-10.6,15.8-16.2
						c2.2-2.3,4.1-4.8,5.8-7.3c0.4-0.6,0.8-1.3,1.2-1.9c0.4-0.7,0.8-1.3,1.2-2.1c0.8-1.5,1.6-3,2.3-4.5c2.8-6.2,4.8-12.7,6.9-19
						c2.2-6.8,3.9-13.9,4.9-21.1c1-7.2,0.9-14.6-0.3-21.9c-1.3-7.7-2.8-15.4-5.3-22.9c-0.5-1.9-1.2-3.8-1.9-5.6
						c-0.7-1.8-1.4-3.7-2.3-5.5c-0.9-1.8-1.7-3.6-2.7-5.4c-1.1-1.9-2.1-3.6-3.3-5.3c-4.5-6.5-9.6-12.2-15.1-17.5l-2.1-2
						c-0.7-0.7-1.4-1.3-2.1-1.9c-1.5-1.2-2.8-2.6-4.4-3.7c-1.5-1.2-3-2.4-4.5-3.6l-4.7-3.4c-7.3-5.2-15.2-9.7-23.4-13.5
						c-2.6-1.1-5.3-2.3-8-3.2c-2.7-0.9-5.5-1.7-8.2-2.5c-2.8-0.6-5.6-1.3-8.4-1.8l-4.2-0.6c-1.4-0.2-2.8-0.4-4.3-0.5
						c-11.4-1.1-22.9-0.6-34,1.2c-1.3,0.2-2.5,0.4-3.8,0.6c-1.3,0.2-2.5,0.4-3.7,0.7c-2.5,0.4-4.9,0.9-7.4,1.4
						c-4.9,1-9.8,2.2-14.5,3.6l-3.5,1.1l-3.4,1.2c-1.1,0.4-2,0.7-3.5,1.3c-1.3,0.6-2.8,1.1-4,1.8c-5.2,2.5-9.8,5.6-13.8,9.1
						c-4.3,3.7-8.9,8-12.3,12.8c-3.5,4.8-5.7,10-5.7,15.2c0,2.5,1.9,5.2,3.8,7.3c-0.8-0.9-0.5-1.5,0.3-1.9c0.9-0.5,2.3-0.8,4-1.1
						c3.2-0.5,7-0.7,7.4-0.8c5.2-1.2,9.5-3.8,14.2-5.3c4.5-1.5,9-2.2,13.1-2.7c1.9-0.2,3.9-0.5,5.9-0.7c0.9-0.2,1.8-0.2,2.7-0.3
						l0.6-0.1l0.9-0.2c0.6-0.1,1.1-0.3,1.7-0.5c4.6-1.4,8.9-2.6,13.2-3.6c4.3-1.1,8.5-2,12.8-2.7c8.5-1.4,16.9-1.8,25.3-1
						c0.9,0,1.8,0.2,2.7,0.3l2.7,0.4c0.9,0.1,1.8,0.3,2.6,0.5l2.6,0.6c0.4,0.1,0.9,0.2,1.3,0.3l1.3,0.4l2.6,0.7
						c0.9,0.3,1.7,0.4,2.6,0.8l2.5,0.9c6.7,2.5,13.1,5.8,19,10.2c1.7,1.3,3.5,2.7,5,4.2c0.8,0.8,1.7,1.5,2.4,2.3
						c0.8,0.8,1.5,1.6,2.3,2.4C403.5,82.9,406.4,86.4,409,90z"/>
				</g>
			</g>
		</g>
	</g>
	<g>
		<g>
			<g>
				<path class="st4" d="M393.3,468.4l-0.5,0.2C393.1,468.5,393.2,468.5,393.3,468.4z"/>
				<path class="st4" d="M448.9,423.1l0.3,0.3C449.1,423.2,449,423.1,448.9,423.1z"/>
				<path class="st4" d="M424,395l0.1-0.3C424,394.9,424,394.9,424,395z"/>
				<g>
					<path class="st4" d="M411.9,411.6c-2.9,3.5-6.1,6.7-9.2,10.1c-0.8,0.8-1.7,1.6-2.5,2.4l-1.2,1.3c-0.4,0.4-0.9,0.8-1.3,1.2
						c-0.9,0.8-1.7,1.6-2.5,2.5c-0.9,0.8-1.8,1.6-2.6,2.4c-3.7,3.3-7.6,6.7-12,9.5c-4.4,2.8-9.3,5.1-14.5,6.4
						c-5.6,1.3-11.2,2-17.2,2.6c-3.1,0.3-6,0.6-8.9,0.8c-2.9,0.2-5.8,0.5-8.7,0.7c-11.8,0.9-23.2-1.6-33.9-5.9
						c-2.5-1.2-5.2-2-7.7-3.1l-1.9-0.7c-0.7-0.2-1.3-0.5-1.9-0.8l-3.8-1.7l-1-0.4l-0.9-0.5l-1.8-1c-1.2-0.7-2.5-1.3-3.6-2.1
						c-2.3-1.6-4.5-3.4-6.4-5.4c-2-2.2-3.7-4.7-5.4-7.1c-0.4-0.6-2.2-1.9-4.1-3.2c-1.9-1.3-3.9-2.6-4.7-2.9c-0.4-0.1-0.4,1-0.2,2.4
						c0.1,1.4,0.5,3,0.7,3.7c0.5,2.3,1.4,5,2.5,7.6c1.1,2.6,2.3,5,3.3,6.5c2.1,3,3.7,5.1,5.5,7.1c1.8,2,3.9,3.7,6.9,6
						c6.2,4.6,12.9,8.3,19.9,11.7c6.9,3.3,14.1,6.2,21.6,9c6.1,2.3,12.6,3.1,19.1,3.3c6.5,0.2,13.1-0.3,19.2-0.1
						c6.8,0.1,14,0.1,21.2-0.8c7.2-0.8,14.4-2.5,21.3-5.4c7.3-3.1,14.5-6.4,21.5-10.5l2.6-1.6l1.3-0.8c0.4-0.3,0.8-0.6,1.2-0.9
						c1.6-1.2,3.3-2.3,4.9-3.5c1.6-1.3,3.1-2.6,4.6-4c0.8-0.7,1.5-1.3,2.2-2.1l2.1-2.2c5.5-5.8,10.2-12.5,14.1-19.3l1.5-2.6l0.7-1.3
						l0.7-1.3l2.6-5.3l2.3-5.4c0.8-1.8,1.4-3.7,2.1-5.5c3.2-8.6,5.4-17.4,6.9-26.4c0.5-2.8,0.8-5.7,1.1-8.6l0.1-2.2
						c0-0.7,0-1.5,0.1-2.2l0.1-4.4c0-1.5-0.1-2.9-0.1-4.4l-0.3-4.4c-0.1-1.5-0.4-2.9-0.5-4.4c-0.2-1.4-0.4-2.9-0.6-4.3
						c-1.1-5.7-2.4-11.4-4.3-16.9c-0.9-2.8-2-5.4-3-8.1c-0.5-1.3-1.1-2.6-1.7-4c-0.6-1.3-1.1-2.6-1.8-3.9c-0.6-1.2-1.1-2.3-1.7-3.5
						l-1.7-3.4c-0.6-1.2-1.1-2.3-1.7-3.4c-0.6-1.1-1.2-2.3-1.8-3.4c-2.4-4.5-5-8.9-7.7-13c-0.7-1-1.3-2-2-3l-2.3-3.1
						c-0.7-1.1-1.6-2-2.4-3.1c-0.8-1-1.6-2-2.5-3c-3.4-3.9-7.2-7.5-11.3-10.7c-4.4-3.4-9.6-7.2-15.4-9.7c-5.7-2.6-11.8-3.9-17.4-2.6
						c-2.7,0.6-4.8,3.2-6.1,5.8c1.1-2.1,3,0.3,4.4,3.3c1.5,3,2.6,6.7,2.7,7.1c2.4,4.7,5.7,8.5,8.2,12.8c2.4,4.2,4.1,8.5,5.8,12.6
						c1.7,4.1,3.3,8.1,5.7,11.7c1.3,2,2.5,4,3.8,6l1.8,2.9l1.8,2.9c2.3,3.9,4.4,7.8,6.3,11.7c3.8,7.8,6.6,16,8.1,24.3
						c1.2,7.1,1.5,14.3,0.8,21.6c-0.3,3.7-0.9,7.4-1.7,11l-0.3,1.4l-0.4,1.3l-0.7,2.7l-0.9,2.6c-0.3,0.9-0.6,1.7-0.9,2.6
						c-0.4,1-0.8,2-1.3,3c-0.5,1-1,2-1.5,2.9l-0.7,1.5l-0.8,1.4c-0.6,0.9-1.1,1.9-1.7,2.8l-1.9,2.7l-0.9,1.4l-1,1.3l-2,2.6
						C413.4,410,412.6,410.7,411.9,411.6z"/>
				</g>
			</g>
		</g>
	</g>
	<g>
		<g>
			<g>
				<path class="st4" d="M35.5,156.6l0-0.8C35.5,156.2,35.4,156.4,35.5,156.6z"/>
				<path class="st4" d="M34.2,273.5l-0.4-0.2C33.9,273.5,34.1,273.6,34.2,273.5z"/>
				<path class="st4" d="M70.4,296.4l0.1,0.7C70.5,296.8,70.4,296.6,70.4,296.4z"/>
				<g>
					<path class="st4" d="M70.3,249.5c-0.1-10.5-0.4-21-0.9-31.4c-0.2-5.2-0.5-10.4-0.8-15.6c-0.3-5.2-0.5-10.4-0.9-15.5
						c-0.4-5.3-0.8-10.7-1.2-16c-0.3-5.3-0.5-10.6-0.7-15.9c-0.1-2.7-0.1-5.3-0.2-8c-0.1-2.7,0-5.4,0-8c0.2-5.2,0.6-10.3,1.5-15.1
						c2-10.1,5.9-19.8,11-28.8c0.3-0.6,0.6-1.1,1-1.7l1-1.6c0.7-1.1,1.3-2.2,2.1-3.3l2.3-3.2l1.1-1.6l1.2-1.5l2.4-3.1
						c0.8-1,1.7-2,2.6-2.9l1.3-1.5c0.4-0.5,0.9-1,1.3-1.4l2.8-2.8c0.5-0.5,0.9-1,1.4-1.4l1.5-1.3l3-2.6c1-0.8,2.1-1.6,3.2-2.4
						c1.1-0.8,2.1-1.6,3.2-2.3c2.2-1.4,4.4-2.9,6.8-4l3.5-1.8l3.6-1.6c9.6-4.1,20-6.3,30.6-6.7c5.1-0.2,10.2-0.2,15.3,0.2
						c5.1,0.4,10.3,1,15.3,2.1c2.5,0.5,5,1.2,7.6,2c1.3,0.4,2.5,0.8,3.7,1.2l1.8,0.6l1.8,0.7c4.8,2,9.4,4.4,13.7,7.5
						c4.5,3.3,8.6,7,12.4,11c0.5,0.5,1.5,1.3,2.9,2.3c1.4,1,3,2.3,4.6,3.6c3.3,2.5,6.5,5.3,7.7,6c0.6,0.4,0.1-1.5-0.8-3.6
						c-0.4-1.1-1-2.2-1.4-3.3c-0.5-1-1-1.9-1.2-2.5c-1.9-3.5-4.6-7.8-7.7-11.7c-3-3.9-6.3-7.4-8.8-9.5c-5-4.3-8.9-7.1-13.1-9.6
						c-1-0.6-2.1-1.2-3.2-1.8c-1.1-0.6-2.3-1.2-3.5-1.8c-1.2-0.6-2.5-1.1-3.9-1.7c-1.4-0.6-2.8-1.1-4.4-1.7
						c-13.3-4.8-27.4-7-41.6-6.8c-7.1,0.1-14.2,0.9-21.3,2.3c-3.6,0.6-7,1.6-10.6,2.5c-1.8,0.5-3.5,1.1-5.2,1.6l-2.6,0.8
						c-0.9,0.3-1.7,0.6-2.6,1c-11.2,4.1-21.6,11-30.5,19.4c-9,8.4-16.4,18.3-22.9,28.6c-1.8,2.7-3.4,5.7-5,8.6
						c-0.8,1.4-1.5,3-2.2,4.5c-0.7,1.5-1.5,3-2.1,4.5l-1.8,4.7l-0.9,2.4l-0.8,2.4l-1.5,4.8c-0.5,1.6-0.9,3.2-1.3,4.9
						c-1.5,6.5-2.5,12.8-3.3,18.8c-0.7,6-1.2,12.1-1.6,18.2l-0.7,9.7c-0.1,3.2-0.3,6.4-0.5,9.6c-0.4,6.4-0.8,12.8-1.3,19.3
						c-0.7,12.8-1.1,25.7-0.8,38.5c0.7,25.2,2.6,50.3,3.8,75.2c0.6,13.8,0.2,28.5,0.8,43.9c0.4,9.7,1.3,19.8,3.5,30
						c0.2,1.3,0.6,2.6,0.9,3.8l1,3.8c0.8,2.6,1.6,5.1,2.4,7.7l1.5,3.8c0.5,1.3,1,2.5,1.6,3.8c1.2,2.5,2.3,5,3.6,7.4
						c5.3,9.8,12.1,18.4,19.6,25.9c7.6,7.5,16,14,25,19.4c8.1,4.9,16.5,9.2,25.2,12.7c8.7,3.5,17.8,6.2,27.2,7.9
						c9.4,1.7,19.2,2.4,29.1,1.6c9.9-0.8,19.9-3,29.5-7.1c1.3-0.6,2.5-1.1,3.8-1.7c0.6-0.3,1.3-0.6,2-1c0.7-0.4,1.4-0.7,2.1-1.1
						c1.4-0.7,2.7-1.5,4-2.3c0.7-0.4,1.3-0.8,2-1.2c0.6-0.4,1.2-0.9,1.9-1.3c5-3.5,9.6-7.4,13.6-11.5c8-8.3,13.7-17.4,15.9-26
						c1.1-4.2-0.8-7.2-3.1-8.9c0.9,0.7,0.4,1.9-1,3.3c-1.4,1.4-3.6,2.8-6,4.1c-4.8,2.6-10.3,4.5-10.9,4.8c-4,2-7.8,4.2-11.8,6.3
						c-3.9,2.1-7.9,4.1-11.8,5.4c-0.9,0.4-1.9,0.6-2.9,0.9c-0.9,0.3-1.9,0.5-2.8,0.7c-0.9,0.2-1.8,0.4-2.8,0.5
						c-0.9,0.1-1.9,0.2-2.8,0.4c-0.9,0.1-1.9,0.2-2.8,0.3l-2.8,0.2l-2.8,0l-1.4,0l-1.4,0c-0.9,0-1.8,0-2.7-0.1
						c-0.9-0.1-1.8-0.1-2.7-0.2c-1.8,0-3.7-0.3-5.5-0.4c-3.7-0.4-7.4-0.7-11.2-1.1c-16.2-1.7-32.2-7-46.3-15.2
						c-14-8.2-26.2-19.5-33.2-32.8c-3-5.6-5.3-11.8-6.9-18.6c-1.7-6.7-2.7-14-3.3-21.5c-0.6-7.6-0.9-15.4-1-23.6
						c-0.2-8.1-0.2-16.5-0.5-25.3C70.6,289.9,70.6,269.6,70.3,249.5z"/>
				</g>
			</g>
		</g>
	</g>
	<g>
		<g>
			<g>
				<path class="st4" d="M340.3,337.9c0.2-0.3,0.3-0.5,0.5-0.8C340.5,337.5,340.3,337.7,340.3,337.9z"/>
				<path class="st4" d="M351.6,368l0.3-0.2C351.7,367.9,351.6,367.9,351.6,368z"/>
				<path class="st4" d="M321.9,383.5l-0.5-0.3C321.7,383.4,321.8,383.4,321.9,383.5z"/>
				<g>
					<path class="st4" d="M353.7,401.9c1.3,0.6,2.7,1.3,4.1,1.9l2,0.9l1.7,0.7l0,0l0,0l0.7,0.4c0.7,0.4,1.5,0.9,3.3,1.6
						c0.5,0.2,1,0.4,1.6,0.5c0.4,0.1,0.7,0.2,1.1,0.3l0.6,0.1c0.2,0,0.5,0.1,0.7,0.1c0.5,0.1,1.1,0.1,1.6,0.2c0.2,0,0.6,0,1,0
						c0.4,0,0.7,0,1.1,0c1.3,0,3.5-0.5,5.2-1.2l13.9-5.8l-4.6-13.9c-1-3-2.1-5.1-3.1-6.7c-0.9-1.6-1.8-2.9-2.3-3.7l-0.3-0.5
						c0,0-0.1-0.2-0.2-0.4l-0.3-0.5l-1-1.8l-2.1-3.6c-1.4-2.4-2.9-4.8-4.4-7.2c-1.5-2.4-3-4.8-4.4-6.9c-1-1.5-1.9-2.9-2.8-4.3
						l-0.3-0.5c-0.1-0.2-0.2-0.4-0.3-0.4l-0.3-0.2c-0.2-0.2-0.4-0.3-0.6-0.5c-0.4-0.4-0.7-0.9-1.1-1.5c-0.2-0.3-0.2-0.6-0.1-0.9
						c0.1-0.2,0.2-0.5,0.4-0.7c0.1-0.3,0.3-0.5,0.5-0.8l0.3-0.4l0.1-0.1c0,0,0,0,0.1-0.2l0.5-0.6c1.4-1.5,2.9-3.1,4.3-4.6
						c2.8-3.1,5.6-6.2,8.5-9.2c4.9-5.2,9.8-10.4,14.7-15.7c0.1-0.1,0.2-0.2,0.3-0.3l0.8-0.7c0.3-0.3,0.7-0.6,1.1-1
						c0.2-0.2,0.5-0.5,0.9-1c0.3-0.3,0.5-0.5,1.1-1.5l0.2-0.4c0.1-0.2,0.2-0.5,0.3-0.7l0.1-0.4c0-0.1,0.1-0.2,0.2-0.5
						c0.2-0.5,0.3-1.1,0.4-1.7c0-0.3,0.1-0.4,0.1-1.2c0-0.6-0.1-1.2-0.2-1.9c-0.1-0.6-0.3-1.2-0.6-1.8c-0.3-0.6-0.7-1.4-1.2-2
						c-0.5-0.6-1.1-1.2-1.7-1.7c-0.2-0.1-0.3-0.2-0.5-0.3l-0.3-0.2c-0.2-0.1-0.4-0.2-0.6-0.3c-0.8-0.4-1.7-0.7-2.6-0.9l-0.9-0.2
						l-0.8,0c-8.5,0.2-17,0.4-25.5,1c-1.8,0.1-3.4,0.2-5.1,0.3c-1.7,0.1-3.4,0.1-5.1,0.1c-2.8,0-5.6,0-8.3,0.1l-2,0l-0.5,0
						c-0.2,0-0.4,0-0.5-0.2c-0.2-0.3-0.3-0.6-0.5-0.9l-1.8-3.6c-2.4-5.1-4.9-10.1-7.4-15.3c-1.1-2.3-2.3-4.6-3.5-6.9
						c-1.1-2.3-2.2-5-3.4-7.2c-1.1-2.1-2.4-3.7-3.6-5.1c-1.2-1.4-2.1-2.6-3.1-3.7c-0.9-1.1-1.8-2.1-2.8-3c-1.2-0.9-2.7-1.6-4.2-2
						l-0.3-0.1c-0.1,0-0.2-0.1-0.3,0l-0.4,0.4l-0.7,0.8l-1.4,1.6l-2.9,3.2c-1,1.2-1.9,2.6-2.7,4.3c-0.4,0.8-0.9,1.7-1.3,2.7
						c-0.4,1-0.9,1.9-1.4,2.9c-1.3,2.8-2.7,5.5-4.1,8.4c-0.7,1.5-1.4,2.8-2.1,4.2l-2.2,4.2c-0.2,0.3-0.4,0.9-0.7,1.6
						c-0.1,0.1-0.1,0.3-0.2,0.5c0,0.1-0.1,0.3-0.1,0.4c-0.1,0.3-0.2,0.6-0.3,0.9c-0.4,1.3-0.9,2.9-1.3,4.5c-0.9,3.2-1.6,6.4-1.7,7.6
						c-0.1,1,4.3-4.1,5.4-5.5c1-1.2,2-2.5,3.1-3.9c1.1-1.4,2.3-3,3.3-4.4c2.1-2.8,3.9-5,4.9-6.4c1.1-1.5,1.8-2.8,2.4-3.9
						c0.6-1.1,1.1-2.1,1.7-3c0.7-0.9,1.3-1.8,1.9-2.8c0.3-0.5,0.7-1.1,1-1.6c0.1-0.1,0.2-0.3,0.3-0.4c0,0,0-0.1,0.1-0.1
						c0,0,0.1,0.1,0.1,0.1l0.3,0.2c0.3,0.3,0.7,0.7,1,1c0.4,0.5,0.8,0.9,1.1,1.4c0.4,0.5,0.6,1.1,0.8,1.6c0.4,1.1,0.8,2.2,1.2,3.3
						c0.4,1.1,0.7,2.2,1.2,3.2c0.4,1,0.8,2,1.3,3c1,2.3,1.9,4.5,2.7,6.7l0.6,1.6l0.3,0.8l0.5,1.1l1.9,4.7l1.9,4.7l2.8,6.7
						c0.5,1.1,1.1,2.2,1.7,3.2c0.3,0.5,0.6,1,1,1.4c0.3,0.4,0.7,0.9,1.2,1.2c2,0.8,4.2,1.5,6.7,1.8l0.3,0c1.4,0.1,2.8,0.3,4.3,0.4
						l2.1,0.2l1.4,0.2c1.9,0.2,3.8,0.4,5.8,0.5c3.9,0.3,8,0.3,11.8,0.3c7.7,0,15.5-0.1,23.2,0.2l-0.1-9.8c0-0.2,0.1-0.1-0.1-0.1
						c-0.1,0-0.2-0.1-0.3-0.1c-0.1-0.1-0.3-0.2-0.4-0.3c-0.6-0.4-1.4-1.1-2.3-1.9c-0.5-0.4-0.9-0.8-1.4-1.3l-0.8-0.8l-0.8-0.8
						l-0.9-0.9l-0.4-0.4c0,0,0,0,0,0c0,0,0,0,0,0c-0.1,0.1-0.3,0.2-0.6,0.4l-0.3,0.2l-0.5,0.4c-0.4,0.3-0.7,0.6-1,0.9l-9.6,8.7
						c-3.1,2.8-6.2,5.5-9.3,8.2c-3.1,2.7-6.1,5.3-9.1,7.8l-2.6,2.1l-4.4,3.6c-0.4,0.3-0.8,0.6-1.1,0.9l-0.9,1l-1.8,2
						c-0.6,0.7-1,1.4-1.4,2.1c-0.4,0.7-0.7,1.6-1,2.4c-0.2,0.9-0.4,1.8-0.4,2.7l-0.1,1.4c0,0.5,0,0.9,0,1.4c0.1,1.9,0.5,3.8,0.8,5.7
						c0.4,1.9,0.9,3.8,1.6,5.7c0.3,0.9,0.6,1.9,1,2.8l0.8,2c1,2.4,2,4.7,3,6.9l2.8,6.1l5.6,11.9l1.4,3l0.5,1l0.5,0.9l0.9,1.6
						c0.5,0.9,1,1.7,1.2,2.2c0.1,0.3,0.2,0.5,0.3,0.6c0,0.1,0,0.1,0,0.1l0,0c0,0,0,0,0,0c0,0,0,0,0,0l0.2-0.1
						c0.4-0.2,0.9-0.3,1.3-0.4l11.9-4.5c-0.1-0.1-0.1-0.7,0.1-1.6c0.3-0.9,0.7-2,1.6-3.9l0.7-1.4c0.3-0.6,0.6-1.2,1-1.8l1.5-2.7
						l0.4-0.8c0.1-0.2,0.1-0.1,0.1-0.1l0,0c0,0,0,0,0,0l-0.7-0.4c-0.8-0.5-1.6-0.9-2.5-1.3l-6.3-2.7c-2-0.9-3.9-1.7-5.9-2.6
						c-3.9-1.8-7.8-3.6-11.5-5.5c-3.8-1.9-7.5-3.9-11.1-6c-1.8-1.1-3.6-2.1-5.3-3.3l-2.7-1.7l-3-2c-2-1.3-4.1-2.7-6.2-3.9
						c-1-0.6-2.1-1.2-3.2-1.7c-1.1-0.5-2.2-0.8-3.2-1.1c-1.1-0.3-2.1-0.4-3.3-0.5c-1.2,0-2.2,0.1-3.3,0.4c-2.1,0.5-4.3,1.4-6.4,2.7
						l-6.1,3.7l-3.5,2l-6.9,4c-5.1,2.9-10.1,5.9-15.2,9l-7.5,4.6c-1.3,0.8-2.5,1.5-3.7,2.2l-3.9,2.3c-0.7,0.4-1.3,0.8-1.9,1.3
						l-1.1,0.8l-0.7,0.5l-0.2,0.1l-0.1,0l0,0c0,0,0,0,0,0l0.2,0.3l0.4,0.7l1.4,2.4c0.4,0.7,0.8,1.5,1.1,2.1c0.3,0.6,0.6,1.2,0.9,1.8
						l0.2,0.5l0.2,0.4c0.1,0.2,0.2,0.5,0.3,0.8l0.3,0.7c0.1,0.2,0.1,0.4,0.2,0.6c0.1,0.2,0.1,0.4,0.1,0.6c0,0.1,0.1,0.3,0.1,0.4
						c0,0.1,0,0.2,0,0.2l0,0.1l0,0l0,0c0-0.2,0,2,0,1l0,0l0,0c0,0,0,0,0.1,0c0.1,0,0.1,0,0.2,0c0.2,0,0.4,0,0.5,0.1
						c0.2,0,0.5,0.1,0.8,0.2l0.4,0.1l0.2,0.1l0.3,0.1c0.4,0.1,0.7,0.2,1.1,0.3l1.2,0.4c1,0.3,2,0.7,2.9,1c1.3,0.4,2.7,1,4,1.5l1,0.4
						l0.6,0.2c0,0,0,0,0,0l0,0l0,0l0.2-0.4c0.1-0.3,0.5-1.2,0.7-1.9l2.9-8.5l1.3-4c0.4-1.1,0.9-2.3,1.4-3.6l3.5-8.3
						c0.6-1.5,1.3-3.1,1.9-4.9l1.5-4.4c0.5-1.5,1.1-3.1,1.6-4.6c1-2.8,2.2-5.5,3-8.3c0.9-2.8,1-5.5,0.5-8c-0.6-2.4-1.7-4.9-3.7-7.2
						c-2.6-3-6.1-7.1-6.9-8.2l-2.1-2.6c-0.1-0.1,0-0.1,0-0.1l0,0l0,0l0-0.1l0-0.1c0-0.3,0.2-0.5,0.4-0.6c0.2-0.1,0.4,0,0.5,0
						c0.1,0-0.1,0-0.3-0.2c-0.2-0.1-0.3-0.2-0.3-0.4c0-0.2-0.1-0.5,0.2-0.9c0.1-0.1,0.1-0.2,0.2-0.4l0.1-0.2
						c0.1-0.1-0.1-0.1,0.6-0.2c1.8-0.4,3.5-0.8,5.2-1.3c3.4-1,6.5-2.2,9.1-3.8c2.6-1.5,3.3-4.2,3.3-6.4c0.1,3.8-14.4-3.6-15.5-4
						c-1.6-0.5-3.1-0.9-5.2-1.3c-2-0.4-4.2-0.7-6.4-1c-2.3-0.3-4.6-0.5-7.1-0.8c-1.3-0.1-2.5-0.3-3.8-0.4c-0.6-0.1-1.3-0.2-1.9-0.2
						c-0.6,0-1.3-0.1-1.9-0.1c-1.3-0.1-2.5-0.2-3.8-0.3c-0.6,0-1.3-0.1-1.9-0.1l-1-0.1l-0.2,0l-0.2,0l-0.3,0
						c-1.9,0.1-3.7,0.3-5.5,0.5c-1.8,0.2-3.5,0.5-5.2,0.9c-0.9,0.2-1.5,0.4-2.1,0.5c-0.3,0.1-0.6,0.2-0.8,0.3
						c-0.1,0.1-0.3,0.1-0.4,0.2c-0.1,0-0.2,0.1-0.2,0.2l0,0.2c-0.2,0.9-0.6,1.8-1,2.8l-0.3,0.7l-0.2,0.4l0,0.5c0,0.7,0,1.4,0,2.2
						c0,0.7,0,1.5,0,2.2l0,1.2c0.1,0.4,0.3,0.9,0.4,1.4c0,0.2,0.3,0.5,0.4,0.8l0.5,0.8c0.3,0.5,0.7,1.1,1,1.6
						c0.3,0.5,0.7,1.1,1.5,1.7c0.7,0.6,1.4,1.2,2.1,1.8c0.2,0.4,0.3,0.7,0.5,1.1c0.2,0.4,0.2,0.7,0.6,1.1l1.9,2.2l3.8,4.5
						c2.6,3.1,5.2,6.1,7.8,9.2l3.7,4.3l2.1,2.5l1,1.2l0.1,0.2c0,0.1,0.1,0.1,0.1,0.1l0,0l0,0.1l0.1,0.2l0.1,0.2c0,0,0,0.1,0,0.1
						l-0.1,0.1l-0.2,0.4l-2,5.8l-1,2.9c-0.3,0.8-0.6,1.7-1,2.6c-0.8,1.9-1.6,3.9-2.6,6c-0.9,2.2-1.9,4.4-2.9,7.1l-0.7,2l-0.6,1.6
						l-1.1,3.3l-2.2,6.4L244,386l-0.3,0.7c-0.1,0.3-0.2,0.6-0.5,1.4l-0.2,0.7l-0.1,0.5c-0.1,0.3-0.1,0.6-0.2,0.9l-0.1,0.5
						c-0.1,0.4-0.1,0.8-0.2,1.2c0,0.4-0.1,0.8-0.1,1.2c0,0.3,0,0.1,0,1.2c0,0.8,0.2,1.7,0.3,2.5c0.2,0.8,0.4,1.7,0.8,2.5
						c0.2,0.4,0.3,0.8,0.5,1.1l0.3,0.5l0.3,0.6c0.1,0.2,0.3,0.5,0.5,0.7c1.3,1.9,3.5,3.9,6,5.1c1.3,0.6,2.6,1,3.8,1.2
						c0.6,0.1,1.2,0.2,1.8,0.2c0.3,0,0.6,0,0.8,0l0.2,0c0.3,0,0.6,0,0.9,0c1.1,0,2.6-0.3,3.1-0.4c0.4-0.1,0.7-0.2,1.1-0.3l0.5-0.2
						l0.3-0.1c0.5-0.2,0.9-0.3,1.3-0.5l0.9-0.4c0.3-0.2,0.5-0.3,0.8-0.4l0.7-0.4c1.6-1,2.6-1.7,3.4-2.3l1-0.8l3.5-2.1
						c1.2-0.7,2.5-1.5,3.7-2.2l7.2-4.4l14.4-8.9l11.9-7.3l0.2-0.1c0.1-0.1,0.2-0.1,0.3,0c0.1,0.1,0.2,0.1,0.2,0.2l0.1,0.1
						c0.1,0,0,0,0.2,0.2c2.8,1.9,6.2,4.3,9.5,6.4c3.3,2.1,6.7,4.2,10.1,6.2C339.7,394.8,346.7,398.6,353.7,401.9z"/>
				</g>
			</g>
		</g>
	</g>
	<g>
		<g>
			<g>
				<path class="st4" d="M338.4,146.7c0.1-0.3,0.3-0.5,0.5-0.8C338.6,146.3,338.5,146.5,338.4,146.7z"/>
				<path class="st4" d="M349.9,176.1l0.3-0.2C350,175.9,349.9,176,349.9,176.1z"/>
				<path class="st4" d="M320.6,191.7l-0.5-0.2C320.3,191.6,320.4,191.7,320.6,191.7z"/>
				<g>
					<path class="st4" d="M351.7,209.8c1.3,0.6,2.6,1.3,4,1.9l2,0.9l1.6,0.7l0,0l0,0l0.7,0.4c0.7,0.4,1.5,0.9,3.3,1.6
						c0.5,0.2,1,0.4,1.6,0.5c0.4,0.1,0.7,0.2,1.1,0.3l0.6,0.1c0.2,0,0.5,0.1,0.7,0.1c0.5,0.1,1.1,0.1,1.6,0.2c0.2,0,0.6,0,1,0
						c0.4,0,0.7,0,1.1,0c1.3,0,3.5-0.5,5.2-1.2l13.9-5.8l-4.6-13.9c-1-3-2.1-5-3-6.7c-0.9-1.6-1.7-2.8-2.3-3.7l-0.3-0.5
						c0,0-0.1-0.2-0.2-0.4l-0.3-0.4l-1-1.8l-2.1-3.6c-1.4-2.4-2.8-4.7-4.3-7c-1.4-2.3-3-4.7-4.3-6.7c-1-1.5-1.9-2.9-2.7-4.2
						l-0.3-0.5c-0.1-0.1-0.1-0.1-0.1-0.1c0,0,0,0-0.1-0.1l-0.3-0.2c-0.2-0.1-0.4-0.3-0.6-0.5c-0.4-0.4-0.7-0.9-1.1-1.4
						c-0.2-0.3-0.2-0.6-0.1-0.8c0.1-0.2,0.2-0.5,0.3-0.7c0.1-0.2,0.3-0.5,0.4-0.8l0.3-0.4l0.1-0.2c0,0,0.1-0.2,0.2-0.2l0.3-0.3
						c1.4-1.5,2.8-3,4.2-4.6c2.8-3,5.5-6.1,8.3-9c4.8-5.1,9.6-10.2,14.4-15.3c0.1-0.1,0.2-0.2,0.3-0.3l0.8-0.7
						c0.3-0.3,0.6-0.6,1.1-1c0.2-0.2,0.5-0.5,0.9-1c0.3-0.3,0.5-0.5,1.1-1.5l0.2-0.4c0.1-0.2,0.2-0.5,0.3-0.7l0.1-0.4
						c0.1-0.1,0.1-0.2,0.2-0.5c0.2-0.5,0.3-1.1,0.4-1.7l0-0.4l0-0.3l0-0.5c0-0.6-0.1-1.2-0.2-1.9c-0.1-0.6-0.3-1.2-0.6-1.8
						c-0.3-0.6-0.7-1.4-1.2-2c-0.5-0.6-1.1-1.2-1.7-1.7c-0.2-0.1-0.3-0.2-0.5-0.3l-0.3-0.2c-0.2-0.1-0.4-0.2-0.6-0.3
						c-0.8-0.4-1.7-0.7-2.6-0.9l-0.9-0.2l-0.8,0c-8.3,0.2-16.7,0.4-25,1c-1.7,0.1-3.3,0.2-5,0.3c-1.7,0.1-3.3,0.1-5,0.1
						c-2.7,0-5.4,0-8.1,0.1l-2,0l-0.5,0c-0.2,0-0.3,0-0.5-0.1c-0.2-0.3-0.3-0.6-0.5-0.9l-1.7-3.6c-2.4-5-4.9-10.1-7.3-15.2l-2-4
						c-0.7-1.4-1.4-2.6-2-4.1c-1.2-2.9-2.6-5.8-4.1-7.9c-0.8-1.1-1.5-2-2.3-2.9l-1.9-2.4c-0.6-0.7-1.2-1.4-1.7-2
						c-0.6-0.7-1.1-1.3-1.7-1.8c-0.6-0.6-1.6-1.1-2.4-1.5c-0.4-0.2-0.9-0.4-1.4-0.5c-0.2-0.1-0.5-0.2-0.7-0.2c-0.1,0-0.1,0-0.2,0
						c-0.1,0-0.1,0-0.2,0l-0.2,0.2l-3.6,4c-0.6,0.7-1.2,1.3-1.8,2c-0.6,0.8-1.2,1.6-1.7,2.5c-0.5,0.9-1.1,1.9-1.6,3.1
						c-0.5,1.2-1.1,2.4-1.7,3.6c-1.3,2.7-2.6,5.4-4,8.2c-1.4,2.8-2.8,5.5-4.3,8.3c-1,1.9-1.7,4.6-2.6,7.8c-0.8,3.1-1.6,6.3-1.6,7.4
						c-0.1,1,4.2-4,5.4-5.4c1-1.1,2-2.5,3.1-3.8c1.1-1.3,2.3-2.9,3.3-4.3c2.1-2.7,3.8-4.8,4.8-6.2c1.1-1.5,1.8-2.7,2.4-3.8
						c0.6-1.1,1.1-2,1.7-2.9c0.6-0.9,1.2-1.8,1.9-2.8c0.3-0.5,0.6-1,1-1.6c0.1-0.1,0.2-0.3,0.3-0.4c0,0,0-0.1,0.1-0.1
						c0,0,0.1,0.1,0.1,0.1l0.2,0.2c0.3,0.3,0.6,0.7,1,1c0.6,0.8,1.3,1.5,1.6,2.4c0.4,0.9,0.7,1.8,1,2.7c0.6,1.8,1.2,3.6,1.9,5.2
						c1.4,3.3,2.7,6.5,3.9,9.5l0.4,1.1l0.2,0.5l0.1,0.3l0.2,0.4l1.4,3.3l2.8,7l2,4.8c0.7,1.6,1.5,3.1,2.4,4.5c0.2,0.3,0.5,0.7,0.7,1
						c0.2,0.3,0.5,0.6,0.8,0.9c0.4,0.3,0.7,0.4,1,0.5l1.1,0.4c0.4,0.1,0.7,0.3,1.1,0.4l1.2,0.3c0.8,0.2,1.7,0.3,2.6,0.4l0.1,0
						c1.4,0.1,2.8,0.3,4.2,0.4l2.1,0.2l1.4,0.2c1.9,0.2,3.7,0.4,5.6,0.5c3.8,0.3,7.8,0.3,11.6,0.3c7.6,0,15.2-0.1,22.7,0.2l-0.1-9.8
						c0-0.2,0.1-0.1-0.1-0.1c-0.1,0-0.2-0.1-0.3-0.1c-0.1-0.1-0.3-0.2-0.4-0.2c-0.6-0.4-1.4-1.1-2.2-1.8c-0.5-0.4-0.9-0.8-1.4-1.3
						l-0.8-0.7l-0.8-0.8l-1.4-1.4c0,0,0,0,0,0c-0.1,0.1-0.3,0.2-0.6,0.4l-0.3,0.2l-0.5,0.4c-0.4,0.3-0.7,0.6-1,0.9l-9.4,8.5
						c-3.1,2.7-6.1,5.4-9.1,8c-3,2.6-6,5.1-9,7.6l-1.1,0.9l-0.6,0.5l-1,0.8l-4.3,3.5c-0.3,0.3-0.8,0.6-1,0.9l-0.9,1l-1.7,2
						c-0.6,0.7-1,1.3-1.4,2.1c-0.4,0.7-0.7,1.5-0.9,2.4c-0.2,0.9-0.4,1.7-0.4,2.6l-0.1,1.3c0,0.4,0,0.9,0,1.4
						c0.1,1.8,0.4,3.7,0.8,5.5c0.4,1.9,0.9,3.7,1.5,5.6c0.3,0.9,0.6,1.8,1,2.8l0.3,0.7l0.2,0.6l0.4,0.9c1,2.4,2,4.6,2.9,6.7l2.8,6
						l5.5,11.7l1.4,2.9l0.5,0.9l0.5,0.9l0.9,1.6c0.5,0.9,0.9,1.7,1.2,2.2c0.1,0.3,0.2,0.5,0.3,0.6c0,0.1,0,0.1,0,0.1l0,0l0,0l0.1,0
						l0.3-0.1c0.4-0.1,0.8-0.3,1.3-0.4l11.7-4.4c-0.1-0.1-0.1-0.7,0.1-1.6c0.2-0.9,0.7-2,1.5-3.8l0.7-1.4c0.3-0.6,0.6-1.2,1-1.8
						l1.5-2.6l0.4-0.7l0.2-0.4l0,0c0,0,0,0,0,0l-0.7-0.4c-0.8-0.5-1.6-0.9-2.4-1.3l-6.2-2.7c-1.9-0.8-3.9-1.7-5.8-2.6
						c-3.8-1.7-7.6-3.5-11.3-5.4c-3.7-1.9-7.3-3.8-10.9-5.9c-1.8-1-3.5-2.1-5.2-3.2l-2.6-1.7l-3.1-2c-2-1.3-4-2.6-6.1-3.8l-1.6-0.9
						c-0.5-0.3-1-0.5-1.6-0.8c-1.1-0.4-2.1-0.8-3.2-1.1c-1.1-0.3-2.1-0.4-3.2-0.5c-1.2,0-2.2,0.1-3.2,0.4c-2.1,0.4-4.2,1.3-6.3,2.6
						l-6.1,3.7l-3.4,2l-6.8,4c-5,2.9-9.9,5.8-14.9,8.8l-7.4,4.5l-3.7,2.2l-3.8,2.3c-0.6,0.4-1.3,0.8-1.9,1.3l-1.1,0.8l-0.7,0.5
						l-0.2,0.1l-0.1,0l0,0l0.7,1.2l1.4,2.3c0.4,0.7,0.8,1.5,1.1,2.1c0.3,0.6,0.6,1.2,0.9,1.8l0.2,0.4l0.2,0.4
						c0.1,0.2,0.2,0.5,0.3,0.7l0.2,0.7c0.1,0.2,0.1,0.4,0.2,0.6c0.1,0.2,0.1,0.4,0.1,0.6c0,0.1,0.1,0.3,0.1,0.4c0,0.1,0,0.1,0,0.2
						l0,0.1l0,0l0,1l0,0l0,0l0,0c0,0,0,0,0.1,0c0.1,0,0.1,0,0.2,0c0.2,0,0.4,0,0.5,0.1c0.2,0,0.5,0.1,0.8,0.2l0.4,0.1l0.2,0.1
						l0.3,0.1c0.4,0.1,0.7,0.2,1.1,0.3l1.2,0.4c1,0.3,1.9,0.6,2.9,1c1.3,0.4,2.6,0.9,3.9,1.4l1.8,0.7l0,0l0,0l0.2-0.4
						c0.1-0.3,0.5-1.2,0.7-1.9l2.8-8.4l1.3-3.9c0.4-1.1,0.9-2.3,1.4-3.5l3.4-8.1c0.6-1.5,1.2-3,1.8-4.8l1.5-4.3
						c0.6-1.6,1.1-3.2,1.7-4.7c1-2.7,2.1-5.5,2.9-8.2c0.8-2.8,1-5.4,0.5-7.9c-0.6-2.3-1.7-4.8-3.7-7.1l-4-4.7l-1-1.2l-0.5-0.6
						l-0.3-0.3l-1-1.3l-1-1.3l-0.5-0.6c-0.1-0.1-0.1-0.1-0.1-0.1l0,0c0-0.1,0-0.2,0-0.3c0-0.3,0.2-0.5,0.4-0.5c0.2-0.1,0.4,0,0.5,0
						c0.1,0-0.1,0-0.3-0.2c-0.2-0.1-0.3-0.2-0.3-0.4c0-0.2-0.1-0.5,0.1-0.9c0.1-0.2,0.2-0.5,0.5-0.8l0,0c0,0,0,0,0,0l0.1,0l0.3-0.1
						l0.6-0.1c0.4-0.1,0.9-0.2,1.3-0.3c0.9-0.2,1.7-0.4,2.5-0.7c3.3-1,6.3-2.2,9-3.8c2.6-1.5,3.3-4.2,3.2-6.4
						c0.1,3.8-14.1-3.7-15.2-4c-0.8-0.3-1.6-0.5-2.4-0.7c-0.9-0.2-1.9-0.4-2.9-0.6c-2-0.4-4.1-0.7-6.3-1c-2.2-0.3-4.6-0.5-7-0.8
						c-1.3-0.1-2.5-0.3-3.8-0.4c-0.6-0.1-1.3-0.2-1.9-0.2l-1.8-0.1c-1.2-0.1-2.4-0.2-3.7-0.2l-1.9-0.1l-0.9-0.1l-0.2,0l-0.2,0
						l-0.3,0c-1.8,0.1-3.6,0.3-5.4,0.5c-1.7,0.2-3.5,0.5-5.1,0.9c-0.9,0.2-1.5,0.4-2,0.5c-0.3,0.1-0.6,0.2-0.8,0.3
						c-0.1,0.1-0.3,0.1-0.4,0.2c-0.1,0-0.2,0.1-0.2,0.2l0,0.2c-0.3,0.9-0.6,1.8-1,2.7l-0.3,0.7l-0.2,0.3l0,0.5c0,0.7,0,1.4,0,2.1
						c0,0.7,0,1.4,0,2.2l0,1.1c0.1,0.4,0.2,0.9,0.3,1.4c0,0.2,0.2,0.5,0.4,0.8l0.5,0.8c0.3,0.5,0.6,1.1,1,1.6
						c0.4,0.5,0.6,1.1,1.2,1.6c0.7,0.6,1.4,1.2,2,1.7l0.7,0.5c0.2,0.2,0.1,0.4,0.2,0.5l0.4,1.1c0,0.2,0.3,0.4,0.4,0.5l0.5,0.5
						l0.9,1.1l3.7,4.4c2.6,3,5.1,6,7.6,8.9l3.9,4.5l2.2,2.6l1,1.2l0.1,0.1c0,0,0,0,0,0l0,0l0,0.1l0.1,0.2l0.1,0.2c0,0,0,0.1,0,0.1
						l-0.1,0.1l-0.2,0.4l0,0l-0.2,0.7l-0.6,1.6l-1.1,3.2l-1,2.9c-0.3,0.8-0.6,1.6-1,2.5c-0.7,1.8-1.6,3.8-2.5,5.9
						c-0.9,2.1-1.9,4.4-2.8,6.9l-0.7,1.9l-0.5,1.6l-1.1,3.2l-2.1,6.3l-0.1,0.3l-0.3,0.7c-0.1,0.3-0.2,0.6-0.5,1.3l-0.2,0.7l-0.1,0.5
						c-0.1,0.3-0.1,0.6-0.2,0.9l-0.1,0.5c-0.1,0.4-0.1,0.8-0.2,1.2c0,0.4-0.1,0.8-0.1,1.2l0,0.3l0,0.1l0,0.6c0,0.8,0.1,1.7,0.3,2.5
						c0.2,0.8,0.4,1.7,0.7,2.5c0.2,0.4,0.3,0.8,0.5,1.2l0.3,0.6l0.1,0.3c0.1,0.2,0.3,0.4,0.4,0.7c1.2,1.9,3.1,3.9,5.6,5.3
						c2.5,1.4,5.2,1.9,7.2,1.9c0.3,0,0.6,0,0.9,0c1.1,0,2.6-0.3,3.1-0.4c0.4-0.1,0.7-0.2,1.1-0.3l0.5-0.2l0.3-0.1
						c0.4-0.2,0.9-0.3,1.3-0.5l0.9-0.4c0.3-0.2,0.5-0.3,0.8-0.4l0.7-0.4c1.6-0.9,2.5-1.7,3.3-2.2l1-0.7l3.5-2.1
						c1.2-0.7,2.4-1.4,3.6-2.2l7.1-4.4l14.1-8.7l11.5-7.1l0.2-0.1c0.1-0.1,0.2-0.1,0.3,0c0.2,0.1,0.3,0.2,0.5,0.3
						c2.6,1.8,6,4.2,9.2,6.2c3.2,2.1,6.5,4.2,9.9,6.1C338,202.9,344.8,206.5,351.7,209.8z"/>
				</g>
			</g>
		</g>
	</g>
	<g>
		<g>
			<g>
				<path class="st4" d="M179.4,234.4c0.1-0.3,0.3-0.5,0.5-0.8C179.6,234,179.4,234.2,179.4,234.4z"/>
				<path class="st4" d="M190.9,263.6l0.3-0.2C191,263.4,191,263.5,190.9,263.6z"/>
				<path class="st4" d="M161.6,279.2l-0.5-0.2C161.4,279.1,161.5,279.2,161.6,279.2z"/>
				<g>
					<path class="st4" d="M192.7,297.3c1.3,0.6,2.6,1.3,4,1.9l2,0.9l1.6,0.7l0,0l0,0l0.7,0.4c0.7,0.4,1.5,0.9,3.3,1.6
						c0.5,0.2,1,0.4,1.6,0.5c0.4,0.1,0.7,0.2,1.1,0.3l0.6,0.1c0.2,0,0.5,0.1,0.7,0.1c0.5,0.1,1.1,0.1,1.6,0.2c0.2,0,0.6,0,1,0
						c0.4,0,0.7,0,1.1,0c1.3,0,3.5-0.5,5.2-1.2l13.9-5.8l-4.6-13.9c-1-3-2.1-5-3-6.6c-0.9-1.6-1.7-2.8-2.3-3.7l-0.3-0.5
						c0,0-0.1-0.2-0.2-0.4l-0.3-0.4l-1-1.8l-2.1-3.5c-1.4-2.4-2.8-4.7-4.3-7c-1.4-2.3-3-4.7-4.3-6.7c-1-1.5-1.9-2.9-2.7-4.2
						l-0.3-0.5c-0.1-0.1-0.1-0.1-0.2-0.2l-0.3-0.2c-0.2-0.1-0.4-0.3-0.5-0.5c-0.4-0.4-0.7-0.9-1.1-1.4c-0.2-0.3-0.2-0.6-0.1-0.8
						c0.1-0.2,0.2-0.5,0.3-0.7c0.1-0.2,0.3-0.5,0.4-0.8l0.3-0.4l0.1-0.2c0,0,0,0,0-0.1l0.1-0.1l0.3-0.3c1.4-1.5,2.8-3,4.2-4.5
						c2.8-3,5.5-6,8.3-9c4.8-5.1,9.6-10.2,14.4-15.3c0.1-0.1,0.2-0.2,0.3-0.3l0.8-0.7c0.3-0.3,0.6-0.6,1.1-1c0.2-0.2,0.5-0.5,0.9-1
						c0.3-0.3,0.5-0.5,1.1-1.5l0.2-0.4c0.1-0.2,0.2-0.5,0.3-0.7l0.1-0.4c0.1-0.1,0.1-0.2,0.2-0.5c0.2-0.5,0.3-1.1,0.4-1.7l0-0.4
						l0-0.3l0-0.5c0-0.6-0.1-1.2-0.2-1.9c-0.1-0.6-0.3-1.2-0.6-1.8c-0.3-0.6-0.7-1.4-1.2-2c-0.5-0.6-1.1-1.2-1.7-1.7
						c-0.2-0.1-0.3-0.2-0.5-0.3L233,196c-0.2-0.1-0.4-0.2-0.6-0.3c-0.8-0.4-1.7-0.7-2.6-0.9l-0.9-0.2l-0.8,0
						c-8.3,0.2-16.6,0.4-24.9,1c-1.7,0.1-3.3,0.2-5,0.3c-1.6,0.1-3.3,0.1-5,0.1c-2.7,0-5.4,0-8,0.1l-2,0l-0.5,0
						c-0.2,0-0.3,0-0.5-0.1c-0.2-0.3-0.3-0.6-0.5-0.9l-1.7-3.6c-2.4-5-4.9-10.1-7.3-15.2l-2-4c-0.7-1.4-1.4-2.6-2-4.1
						c-1.2-2.9-2.6-5.8-4.1-7.8c-0.8-1-1.5-2-2.3-2.8l-1.9-2.4c-0.6-0.7-1.2-1.4-1.7-2c-0.6-0.7-1.1-1.3-1.7-1.8
						c-0.6-0.6-1.5-1.1-2.4-1.5c-0.4-0.2-0.9-0.4-1.3-0.5c-0.2-0.1-0.5-0.2-0.7-0.2c-0.1,0-0.1,0-0.2,0c-0.1,0-0.1,0-0.2,0l-0.2,0.2
						l-3.6,4c-0.6,0.7-1.2,1.3-1.8,2c-0.6,0.8-1.2,1.6-1.7,2.5c-0.5,0.9-1.1,1.9-1.6,3.1c-0.5,1.1-1.1,2.3-1.7,3.6
						c-1.3,2.7-2.6,5.4-4,8.2c-1.4,2.8-2.8,5.4-4.3,8.3c-0.3,0.6-1,2.4-1.3,3.5c-0.4,1.3-0.8,2.8-1.3,4.4c-0.8,3.1-1.5,6.3-1.6,7.4
						c0,1,4.2-3.9,5.4-5.3c1-1.1,2-2.4,3.1-3.8c0.5-0.7,1.1-1.4,1.7-2.1c0.5-0.7,1.1-1.4,1.6-2.1c2.1-2.7,3.8-4.7,4.8-6.2
						c1.1-1.4,1.8-2.7,2.4-3.7c0.6-1.1,1.1-2,1.7-2.9c0.6-0.9,1.2-1.8,1.9-2.7c0.3-0.5,0.6-1,1-1.6c0.1-0.1,0.2-0.3,0.3-0.4
						c0,0,0-0.1,0.1-0.1c0,0,0.1,0.1,0.1,0.1l0.2,0.2c0.3,0.3,0.6,0.7,1,1c0.6,0.7,1.3,1.5,1.6,2.4c0.4,0.9,0.7,1.8,1,2.7
						c0.6,1.8,1.2,3.6,1.9,5.2c1.4,3.3,2.7,6.5,3.9,9.4l0.9,2.3l1.4,3.3l2.8,7l2,4.7c0.7,1.6,1.5,3.1,2.4,4.5c0.2,0.3,0.5,0.7,0.7,1
						c0.2,0.3,0.5,0.6,0.8,0.9c0.4,0.2,0.7,0.4,1,0.5l1.1,0.4c0.7,0.3,1.6,0.4,2.3,0.7c0.8,0.1,1.7,0.3,2.6,0.4l0.1,0
						c1.4,0.1,2.8,0.3,4.2,0.4l2.1,0.2l1.4,0.2c1.8,0.2,3.7,0.4,5.6,0.5c3.8,0.3,7.8,0.3,11.5,0.3c7.6,0,15.1-0.1,22.6,0.2l-0.1-9.8
						c0-0.2,0.1-0.1-0.1-0.1c-0.1,0-0.2-0.1-0.3-0.1c-0.1-0.1-0.3-0.2-0.4-0.2c-0.6-0.4-1.4-1-2.2-1.8c-0.5-0.4-0.9-0.8-1.4-1.3
						l-0.8-0.7l-0.8-0.8l-1.4-1.5c0,0,0,0,0,0c-0.1,0.1-0.3,0.2-0.6,0.4l-0.3,0.2l-0.5,0.4c-0.4,0.3-0.7,0.6-1,0.9l-9.4,8.4
						c-3,2.7-6.1,5.4-9.1,8c-3,2.6-6,5.1-8.9,7.6l-1.1,0.9l-0.6,0.4l-1,0.9l-4.3,3.5c-0.3,0.3-0.8,0.6-1,0.9l-0.9,1l-1.7,2
						c-0.6,0.7-1,1.3-1.4,2.1c-0.4,0.7-0.7,1.5-0.9,2.4c-0.2,0.9-0.4,1.7-0.4,2.6l-0.1,1.3c0,0.4,0,0.9,0,1.4
						c0.1,1.8,0.4,3.7,0.8,5.5c0.4,1.8,0.9,3.7,1.5,5.5c0.3,0.9,0.6,1.8,0.9,2.7c0.2,0.4,0.4,1,0.5,1.3l0.4,0.9
						c0.9,2.4,1.9,4.6,2.9,6.7l2.8,6l5.4,11.6l1.4,2.9l0.5,0.9l0.5,0.9l0.9,1.6c0.5,0.9,0.9,1.7,1.2,2.2c0.1,0.3,0.2,0.4,0.3,0.6
						c0,0.1,0,0.1,0,0.1l0,0c0,0,0.1,0,0.2-0.1l0.3-0.1c0.4-0.1,0.8-0.3,1.3-0.4l11.6-4.4c-0.1-0.1-0.1-0.7,0.1-1.6
						c0.2-0.9,0.7-2,1.5-3.8l0.7-1.4c0.3-0.6,0.6-1.2,1-1.8l1.5-2.6l0.4-0.7l0.2-0.4c0-0.1,0,0,0,0c0,0,0,0,0,0l-0.7-0.4
						c-0.8-0.5-1.6-0.9-2.4-1.3l-6.1-2.6c-1.9-0.8-3.8-1.7-5.7-2.5c-3.8-1.7-7.6-3.5-11.2-5.3c-3.7-1.9-7.3-3.8-10.8-5.9
						c-1.8-1-3.5-2.1-5.2-3.2l-2.6-1.7l-3.1-2c-2-1.3-4-2.6-6.1-3.8l-1.5-0.9c-0.5-0.3-1-0.5-1.6-0.8c-1-0.4-2.1-0.8-3.2-1.1
						c-1.1-0.3-2.1-0.4-3.2-0.5c-1.2,0-2.2,0.1-3.2,0.4c-2,0.4-4.2,1.3-6.3,2.6l-6.1,3.7l-3.4,2l-6.8,3.9c-5,2.9-9.9,5.8-14.8,8.7
						l-7.4,4.5l-3.7,2.2l-3.8,2.2c-0.6,0.4-1.3,0.8-1.9,1.3l-1.1,0.8l-0.7,0.5l-0.2,0.1l-0.1,0l0,0l0.7,1.2l1.3,2.3
						c0.4,0.7,0.8,1.5,1.1,2.1c0.3,0.6,0.6,1.2,0.9,1.8l0.2,0.4l0.2,0.4c0.1,0.2,0.2,0.5,0.3,0.7l0.2,0.7c0.1,0.2,0.1,0.4,0.2,0.6
						c0.1,0.2,0.1,0.4,0.1,0.6c0,0.1,0.1,0.3,0.1,0.4c0,0.1,0,0.1,0,0.2l0,0.1l0,0c0-0.9,0,1.3,0,1l0,0l0,0l0,0c0,0,0,0,0.1,0
						c0.1,0,0.1,0,0.2,0c0.2,0,0.4,0,0.5,0.1c0.2,0,0.5,0.1,0.8,0.2l0.4,0.1l0.2,0.1l0.3,0.1c0.4,0.1,0.7,0.2,1.1,0.3l1.2,0.4
						c1,0.3,1.9,0.6,2.9,1c1.3,0.4,2.6,0.9,3.9,1.4l1.8,0.7l0,0l0,0l0.2-0.4c0.1-0.3,0.5-1.2,0.7-1.9l2.8-8.3l1.3-3.9
						c0.4-1.1,0.8-2.2,1.4-3.5l3.4-8.1c0.6-1.5,1.2-3,1.8-4.8l1.5-4.3c0.6-1.6,1.1-3.2,1.7-4.8c1-2.7,2.1-5.4,2.9-8.2
						c0.8-2.7,0.9-5.4,0.4-7.9c-0.6-2.3-1.7-4.8-3.6-7l-4-4.7l-1-1.2l-0.5-0.6l-0.3-0.3l-1-1.3l-1-1.3l-0.5-0.6l0-0.1
						c0-0.1,0-0.2,0-0.3c0-0.3,0.2-0.5,0.4-0.5c0.2-0.1,0.4,0,0.5,0c0.1,0-0.1,0-0.3-0.2c-0.2-0.1-0.3-0.2-0.3-0.4
						c-0.1-0.2-0.1-0.5,0.1-0.9c0.1-0.2,0.2-0.5,0.5-0.8l0-0.1c0,0,0.2,0,0.3-0.1l0.6-0.1c0.4-0.1,0.9-0.2,1.3-0.3
						c0.8-0.2,1.7-0.4,2.5-0.7c3.3-1,6.3-2.2,8.9-3.8c2.5-1.5,3.3-4.2,3.2-6.4c0.1,3.8-14.1-3.7-15.1-4c-0.8-0.3-1.5-0.5-2.4-0.7
						c-0.9-0.2-1.9-0.4-2.8-0.6c-2-0.4-4.1-0.7-6.3-1c-2.2-0.3-4.6-0.5-7-0.8c-1.3-0.1-2.5-0.3-3.7-0.4c-0.6-0.1-1.3-0.2-1.9-0.2
						l-1.8-0.1c-1.2-0.1-2.4-0.2-3.6-0.2l-1.9-0.1c-0.6,0-1.3-0.1-1.7,0c-1.8,0.1-3.6,0.3-5.3,0.5c-1.7,0.2-3.4,0.5-5.1,0.9
						c-0.9,0.2-1.5,0.4-2,0.5c-0.3,0.1-0.6,0.2-0.8,0.3c-0.1,0.1-0.3,0.1-0.4,0.2c-0.1,0-0.2,0.1-0.2,0.2l0,0.2
						c-0.3,0.9-0.6,1.8-1,2.7l-0.3,0.7l-0.2,0.3l0,0.5c0,0.7,0,1.4,0,2.1c0,0.7,0,1.4,0,2.2l0,1.1c0.1,0.4,0.2,0.9,0.3,1.4
						c0,0.2,0.2,0.5,0.4,0.7l0.5,0.8c0.3,0.5,0.6,1.1,1,1.6l0.5,0.8l0.3,0.4l0.4,0.4c0.6,0.6,1.3,1.1,2,1.7c1.1,0.7,1,1.4,1.3,2.1
						c0,0.1,0,0.2,0.1,0.3l0.2,0.3l0.5,0.5l0.9,1.1l3.7,4.4c2.5,3,5.1,5.9,7.6,8.9l3.9,4.5l2.2,2.7l1,1.2l0.1,0.1l0,0l0,0l0,0.1
						l0.1,0.2l0.1,0.2c0,0,0,0.1,0,0.1l-0.1,0.1l-0.2,0.4l0,0l-0.2,0.6l-0.6,1.6l-1.1,3.2c-0.8,2.4-1.2,3.5-2,5.4
						c-0.7,1.8-1.6,3.8-2.5,5.9c-0.9,2.1-1.8,4.3-2.8,6.9l-0.7,1.9l-0.5,1.6l-1.1,3.2l-2.1,6.3l-0.1,0.3l-0.3,0.7
						c-0.1,0.3-0.2,0.6-0.5,1.3l-0.2,0.7l-0.1,0.5c-0.1,0.3-0.1,0.6-0.2,0.9l-0.1,0.5c-0.1,0.4-0.1,0.8-0.2,1.2
						c0,0.4-0.1,0.8-0.1,1.2l0,0.3l0,0.7c0,0.8,0.1,1.7,0.3,2.5c0.2,0.8,0.4,1.7,0.7,2.5c0.2,0.4,0.3,0.8,0.5,1.2l0.3,0.6l0.1,0.3
						l0.4,0.6c1.1,1.9,3.1,3.9,5.6,5.3c2.5,1.4,5.2,1.9,7.3,2l0.5,0l0.4,0c0.6,0,1.2-0.1,1.8-0.2l0.4-0.1l0.3-0.1l0.5-0.1
						c0.4-0.1,0.7-0.2,1.1-0.3l0.5-0.2l0.3-0.1c0.4-0.2,0.9-0.3,1.3-0.5l0.9-0.4c0.3-0.2,0.5-0.3,0.8-0.4l0.7-0.4
						c1.6-0.9,2.5-1.7,3.3-2.2l1-0.7l3.5-2.1c1.2-0.7,2.4-1.4,3.6-2.1l7-4.3L141,281l11.4-7l0.2-0.1c0.1-0.1,0.2-0.1,0.3,0
						c0.2,0.1,0.3,0.2,0.4,0.3c2.6,1.8,6,4.1,9.2,6.2c3.2,2.1,6.5,4.1,9.8,6.1C179,290.4,185.8,294,192.7,297.3z"/>
				</g>
			</g>
		</g>
	</g>
</g>
</svg>
