<?xml version="1.0" encoding="utf-8"?>
<!-- Generator: Adobe Illustrator 23.0.1, SVG Export Plug-In . SVG Version: 6.00 Build 0)  -->
<svg version="1.1" xmlns="http://www.w3.org/2000/svg" xmlns:xlink="http://www.w3.org/1999/xlink" x="0px" y="0px"
	 viewBox="0 0 500 500" style="enable-background:new 0 0 500 500;" xml:space="preserve">
<style type="text/css">
	.st0{display:none;}
	.st1{display:inline;}
	.st2{clip-path:url(#SVGID_3_);}
	.st3{clip-path:url(#SVGID_4_);fill:#024751;}
	.st4{fill:#231F20;}
</style>
<g id="Layer_1" class="st0">
	<g class="st1">
		<defs>
			<rect id="SVGID_1_" x="60.3" y="33" width="377.5" height="430.3"/>
		</defs>
		<defs>
			<path id="SVGID_2_" d="M368.9,246.2l38.8-38.5c40.1-39.9,40.1-104.8,0-144.7C367.5,23.1,302.1,23.1,262,63l-14.1,14
				c-18.7-26.6-49.5-44-84.7-44C106.4,33,60.3,78.8,60.3,135.3v221.7c0,56.5,46.1,102.3,102.9,102.3c35.2,0,72-24.4,90.7-51l8.1,21
				c40.1,39.9,105.5,39.9,145.7,0s40.1-104.8,0-144.7L368.9,246.2L368.9,246.2z"/>
		</defs>
		<clipPath id="SVGID_3_">
			<use xlink:href="#SVGID_1_"  style="overflow:visible;"/>
		</clipPath>
		<clipPath id="SVGID_4_" class="st2">
			<use xlink:href="#SVGID_2_"  style="overflow:visible;"/>
		</clipPath>
		<rect x="22.5" y="-4.7" class="st3" width="453" height="501.7"/>
	</g>
</g>
<g id="Layer_2">
	<g>
		<g>
			<g>
				<g>
					<path class="st4" d="M456,121.2l0.1,0.5C456.1,121.5,456.1,121.3,456,121.2z"/>
					<path class="st4" d="M425.7,56.3l0.4-0.2C425.9,56.1,425.8,56.2,425.7,56.3z"/>
					<path class="st4" d="M391.8,72.6l-0.3-0.2C391.7,72.5,391.8,72.6,391.8,72.6z"/>
					<g>
						<path class="st4" d="M405.3,89.3l1,1.4l1,1.4c0.7,1,1.3,1.9,1.9,2.8l0.9,1.3l0.4,0.6l0.4,0.8c0.6,1,1.2,2,1.8,3
							c0.7,1,1.2,2,1.8,3c0.6,1,1.3,2,1.8,3.1c1.1,2.1,2.4,4.2,3.5,6.3c2.5,4.4,4.7,9.1,6.5,14c0.4,1.2,0.8,2.5,1.2,3.8
							c0.3,1.3,0.6,2.6,0.8,3.9c0.1,0.7,0.2,1.3,0.4,2l0.2,2c0.1,1.3,0.2,2.7,0.2,4c-0.1,5.6-0.9,11.2-2,16.6
							c-1.1,5.5-2.7,10.7-4.5,16l-0.7,2l-0.9,2.1c-0.6,1.4-1.3,2.8-1.9,4.1c-1.3,2.7-2.8,5.3-4.3,7.8c-3.1,5-6.8,9.7-10.7,14.3
							c-3.8,4.5-7.2,9.4-10.9,14.1c-1.8,2.4-3.7,4.7-5.7,7c-1,1.1-2.1,2.2-3.1,3.3c-0.5,0.5-1.1,1-1.6,1.6c-0.5,0.5-1,0.9-1.6,1.3
							c-2.4,1.8-5,3.3-7.7,5c-0.7,0.4-2.2,2.3-3.7,4.3c-1.5,2-3.1,4.4-3.4,5.5c-0.2,0.5,1.2,0.1,2.7-0.2c1.4-0.3,3.1-0.7,3.9-0.9
							c2.3-0.6,5.2-1.4,7.9-2.3c2.7-0.9,5.2-1.9,6.7-2.8c3.2-1.9,5.4-3.3,7.5-4.8c2.1-1.5,4.2-3.2,6.8-5.6
							c5.5-5.1,10.7-10.3,16-15.7c5.2-5.4,10.5-10.9,15.9-16.7c2.2-2.3,4.1-4.9,5.8-7.5c0.4-0.7,0.8-1.3,1.2-2
							c0.4-0.7,0.8-1.3,1.2-2.1c0.8-1.5,1.6-3.1,2.3-4.6c2.8-6.3,4.8-12.9,6.9-19.3c2.2-7,4-14.1,5-21.5c1-7.3,1-14.8-0.2-22.2
							c-0.4-2-0.6-3.9-1-5.9l-1.1-5.9c-0.9-3.9-1.7-7.8-3-11.6l-0.9-2.9c-0.3-1-0.7-1.9-1-2.8c-0.7-1.9-1.4-3.8-2.2-5.6
							c-0.8-1.8-1.7-3.7-2.6-5.5c-0.4-0.9-1-1.9-1.5-2.8c-0.5-0.9-1.1-1.8-1.7-2.7c-4.5-6.8-9.5-12.7-15-18.2
							c-5.5-5.5-11.4-10.6-17.8-15.3c-7.4-5.4-15.3-10.2-23.6-14.3c-2.7-1.2-5.4-2.3-8.1-3.4c-2.8-0.9-5.6-1.8-8.4-2.7
							c-2.8-0.8-5.7-1.4-8.5-2c-2.9-0.5-5.8-1-8.7-1.3c-11.7-1.2-23.4-0.7-34.8,1.1c-2.6,0.4-5.1,0.8-7.7,1.3
							c-2.6,0.4-5.1,1-7.6,1.5c-5,1.1-10,2.3-14.8,3.8l-3.6,1.1l-3.5,1.2l-1.6,0.6c-0.3,0.1-0.5,0.2-0.9,0.3l-1,0.4
							c-1.4,0.6-2.8,1.2-4.1,1.9c-5.3,2.6-10,5.8-14,9.4c-4.3,3.8-9,8.3-12.5,13.2c-3.5,4.9-5.8,10.2-5.8,15.5
							c0,2.5,1.9,5.3,3.8,7.3c-0.8-0.9-0.5-1.5,0.3-2c0.9-0.5,2.4-0.9,4-1.2c3.3-0.6,7.1-0.9,7.5-1c5.2-1.4,9.6-4,14.4-5.6
							c4.6-1.6,9.1-2.4,13.3-3c2-0.3,3.9-0.5,6-0.8c0.9-0.2,1.8-0.2,2.7-0.4c0.2,0,0.4-0.1,0.7-0.1l0.9-0.2c0.6-0.1,1.2-0.3,1.7-0.5
							c4.7-1.4,9.1-2.7,13.5-3.8c2.2-0.6,4.4-1,6.5-1.6c2.2-0.4,4.3-0.9,6.5-1.2c2.2-0.4,4.3-0.6,6.5-0.9l3.2-0.3
							c0.5,0,1.1-0.1,1.6-0.1l1.6,0l3.2-0.1l3.2,0.1l1.6,0l1.6,0.1l3.2,0.3c1.8,0.2,3.6,0.6,5.4,0.8c1.8,0.4,3.6,0.8,5.4,1.1
							c3.5,1,7.1,1.9,10.5,3.3c6.8,2.6,13.3,6.2,19.2,10.8c0.9,0.7,1.7,1.4,2.6,2.1c0.8,0.8,1.7,1.5,2.5,2.3l1.2,1.2l1.2,1.2
							c0.8,0.8,1.6,1.6,2.3,2.5C399.8,81.9,402.6,85.5,405.3,89.3z"/>
					</g>
				</g>
			</g>
		</g>
		<g>
			<g>
				<g>
					<path class="st4" d="M394.4,474.7l-0.5,0.2C394.1,474.8,394.3,474.8,394.4,474.7z"/>
					<path class="st4" d="M453.3,428.7l0.2,0.3C453.5,428.9,453.4,428.8,453.3,428.7z"/>
					<path class="st4" d="M429.3,399.6l0.1-0.3C429.3,399.4,429.3,399.5,429.3,399.6z"/>
					<g>
						<path class="st4" d="M416.2,416.9l-1.2,1.4l-1.3,1.3c-0.8,0.9-1.7,1.7-2.5,2.6c-0.8,0.9-1.8,1.7-2.6,2.6
							c-0.9,0.8-1.7,1.8-2.6,2.6c-3.5,3.4-7.2,6.7-11.1,10.1c-4,3.4-8.3,6.8-13,9.7c-4.7,2.9-9.9,5.2-15.5,6.4
							c-5.9,1.3-11.9,2-18.2,2.6c-3.2,0.3-6.3,0.6-9.3,0.8l-4.6,0.3l-4.6,0.3c-6.2,0.4-12.3,0-18.3-1.1c-6-1.1-11.8-2.9-17.5-5.1
							c-2.7-1.2-5.5-2-8.2-3.2l-2.1-0.8l-1-0.4l-1-0.4l-4-1.8l-1-0.4l-1-0.5l-1.9-1c-1.3-0.7-2.6-1.4-3.8-2.2
							c-2.5-1.6-4.8-3.5-6.8-5.7c-2.2-2.3-4-4.9-5.9-7.4c-0.4-0.6-2.4-2-4.4-3.3c-2-1.3-4.1-2.7-4.9-3c-0.4-0.1-0.4,1.1-0.2,2.5
							c0.2,1.4,0.6,3.1,0.8,3.8c0.6,2.3,1.6,5.2,2.8,7.9c1.2,2.7,2.6,5.1,3.7,6.7c2.2,3.1,4,5.3,6,7.3c1.9,2.1,4.2,3.8,7.3,6.2
							c6.6,4.7,13.6,8.6,20.9,12c7.3,3.4,14.8,6.3,22.6,9.2c6.3,2.3,13.2,3.2,20,3.4c3.4,0.1,6.8,0.1,10.2,0c1.7,0,3.3-0.1,5-0.1
							c1.7,0,3.2,0,4.9,0c7.1,0.2,14.6,0.1,22.1-0.7c7.5-0.8,15-2.4,22.2-5.3c7.6-3.1,15.2-6.4,22.5-10.5c7.3-4,14.1-9.2,20.1-15.2
							l4.3-4.6c1.4-1.6,2.6-3.3,3.9-4.9c0.6-0.8,1.3-1.6,1.9-2.5l1.8-2.6l1.7-2.6c0.3-0.4,0.6-0.9,0.9-1.3l0.8-1.3
							c4.4-7.1,7.8-14.6,10.8-22.3c3.5-9,6-18.2,7.6-27.6c0.5-3,0.9-6,1.2-9c0.3-3,0.3-6.1,0.3-9.2l0-2.3c0-0.8-0.1-1.5-0.1-2.3
							l-0.3-4.6c-0.1-1.5-0.3-3-0.5-4.6l-0.7-4.6c-1.2-6-2.6-12-4.6-17.7c-1.9-5.8-4.3-11.3-6.9-16.7c-0.6-1.2-1.2-2.4-1.8-3.7
							c-0.6-1.2-1.2-2.4-1.8-3.6c-0.6-1.2-1.2-2.4-1.9-3.6c-0.6-1.2-1.2-2.4-1.9-3.5c-2.6-4.7-5.4-9.2-8.2-13.5
							c-0.7-1.1-1.4-2.1-2.2-3.1l-2.4-3.2c-0.8-1.1-1.7-2.1-2.5-3.2c-0.9-1-1.7-2.1-2.6-3.1c-3.6-4-7.6-7.7-11.9-11
							c-4.6-3.5-10.1-7.4-16.1-10c-6-2.7-12.3-4-18.1-2.8c-2.8,0.6-4.8,3.2-6.1,5.8c1-2.1,3.1,0.3,4.7,3.4c1.7,3.1,2.9,6.8,3.1,7.2
							c2.7,4.8,6.2,8.7,9,13.2c2.6,4.3,4.6,8.7,6.5,13c1.9,4.3,3.7,8.3,6.3,12.1l2,3l2.1,3.2c0.7,1,1.3,2.1,2,3.1l1.9,3
							c2.5,4.1,4.7,8.1,6.8,12.3c1.1,2.1,1.9,4.2,2.9,6.2c0.4,1.1,0.8,2.1,1.2,3.2l0.6,1.6l0.5,1.6c1.6,4.3,2.5,8.6,3.4,13
							c0.2,1.9,0.5,3.8,0.7,5.6c0.1,1.9,0.3,3.8,0.4,5.7l0,5.7c0,1-0.1,1.9-0.2,2.9c-0.1,1-0.1,1.9-0.2,2.9
							c-0.8,7.7-2.6,15.5-5.5,22.6c-0.5,1.1-0.8,2.2-1.4,3.2c-0.5,1-1,2.1-1.6,3.1c-0.5,1.1-1.2,2-1.7,3c-0.6,1-1.1,2-1.9,2.9
							c-0.7,0.9-1.3,1.9-2,2.9l-0.5,0.7l-0.5,0.7l-1.1,1.4c-0.7,0.9-1.4,1.8-2.2,2.7C417.7,415.1,416.9,416,416.2,416.9z"/>
					</g>
				</g>
			</g>
		</g>
		<g>
			<g>
				<g>
					<path class="st4" d="M29.4,152l0-0.8C29.4,151.5,29.3,151.8,29.4,152z"/>
					<path class="st4" d="M28.1,268.9l-0.4-0.2C27.8,268.9,28,268.9,28.1,268.9z"/>
					<path class="st4" d="M64.3,291.8l0.1,0.7C64.4,292.1,64.3,291.9,64.3,291.8z"/>
					<g>
						<path class="st4" d="M64.2,244.9c-0.1-10.5-0.4-21-0.9-31.4c-0.2-5.2-0.5-10.4-0.8-15.6c-0.3-5.2-0.5-10.4-0.9-15.5
							c-0.4-5.3-0.8-10.7-1.2-16c-0.3-5.3-0.5-10.6-0.7-15.9c-0.1-2.7-0.1-5.3-0.2-8c-0.1-2.7,0-5.4,0-8c0.2-5.2,0.6-10.3,1.5-15.1
							c2-10.1,5.9-19.8,11-28.8c0.3-0.6,0.6-1.1,1-1.7l1-1.6c0.7-1.1,1.3-2.2,2.1-3.3l2.3-3.2l1.1-1.6l1.2-1.5l2.4-3.1
							c0.8-1,1.7-2,2.6-2.9l1.3-1.5c0.4-0.5,0.9-1,1.3-1.4l2.8-2.8c0.5-0.5,0.9-1,1.4-1.4l1.5-1.3l3-2.6c1-0.8,2.1-1.6,3.2-2.4
							c1.1-0.8,2.1-1.6,3.2-2.3c2.2-1.4,4.4-2.9,6.8-4l3.5-1.8l3.6-1.6c9.6-4.1,20-6.3,30.6-6.7c5.1-0.2,10.2-0.2,15.3,0.2
							c5.1,0.4,10.3,1,15.3,2.1c2.5,0.5,5,1.2,7.6,2c1.3,0.4,2.5,0.8,3.7,1.2l1.8,0.6l1.8,0.7c4.8,2,9.4,4.4,13.7,7.5
							c4.5,3.3,8.6,7,12.4,11c0.5,0.5,1.5,1.3,2.9,2.3c1.4,1,3,2.3,4.6,3.6c3.3,2.5,6.5,5.3,7.7,6c0.6,0.4,0.1-1.5-0.8-3.6
							c-0.4-1.1-1-2.2-1.4-3.3c-0.5-1-1-1.9-1.2-2.5c-1.9-3.5-4.6-7.8-7.7-11.7c-3-3.9-6.3-7.4-8.8-9.5c-5-4.3-8.9-7.1-13.1-9.6
							c-1-0.6-2.1-1.2-3.2-1.8c-1.1-0.6-2.3-1.2-3.5-1.8c-1.2-0.6-2.5-1.1-3.9-1.7c-1.4-0.6-2.8-1.1-4.4-1.7
							c-13.3-4.8-27.4-7-41.6-6.8c-7.1,0.1-14.2,0.9-21.3,2.3c-3.6,0.6-7,1.6-10.6,2.5c-1.8,0.5-3.5,1.1-5.2,1.6l-2.6,0.8
							c-0.9,0.3-1.7,0.6-2.6,1c-11.2,4.1-21.6,11-30.5,19.4c-9,8.4-16.4,18.3-22.9,28.6c-1.8,2.7-3.4,5.7-5,8.6
							c-0.8,1.4-1.5,3-2.2,4.5c-0.7,1.5-1.5,3-2.1,4.5l-1.8,4.7l-0.9,2.4l-0.8,2.4l-1.5,4.8c-0.5,1.6-0.9,3.2-1.3,4.9
							c-1.5,6.5-2.5,12.8-3.3,18.8c-0.7,6-1.2,12.1-1.6,18.2l-0.7,9.7c-0.1,3.2-0.3,6.4-0.5,9.6c-0.4,6.4-0.8,12.8-1.3,19.3
							c-0.7,12.8-1.1,25.7-0.8,38.5c0.7,25.2,2.6,50.3,3.8,75.2c0.6,13.8,0.2,28.5,0.8,43.9c0.4,9.7,1.3,19.8,3.5,30
							c0.2,1.3,0.6,2.6,0.9,3.8l1,3.8c0.8,2.6,1.6,5.1,2.4,7.7l1.5,3.8c0.5,1.3,1,2.5,1.6,3.8c1.2,2.5,2.3,5,3.6,7.4
							c5.3,9.8,12.1,18.4,19.6,25.9c7.6,7.5,16,14,25,19.4c8.1,4.9,16.5,9.2,25.2,12.7c8.7,3.5,17.8,6.2,27.2,7.9
							c9.4,1.7,19.2,2.4,29.1,1.6c9.9-0.8,19.9-3,29.5-7.1c1.3-0.6,2.5-1.1,3.8-1.7c0.6-0.3,1.3-0.6,2-1c0.7-0.4,1.4-0.7,2.1-1.1
							c1.4-0.7,2.7-1.5,4-2.3c0.7-0.4,1.3-0.8,2-1.2c0.6-0.4,1.2-0.9,1.9-1.3c5-3.5,9.6-7.4,13.6-11.5c8-8.3,13.7-17.4,15.9-26
							c1.1-4.2-0.8-7.2-3.1-8.9c0.9,0.7,0.4,1.9-1,3.3c-1.4,1.4-3.6,2.8-6,4.1c-4.8,2.6-10.3,4.5-10.9,4.8c-4,2-7.8,4.2-11.8,6.3
							c-3.9,2.1-7.9,4.1-11.8,5.4c-0.9,0.4-1.9,0.6-2.9,0.9c-0.9,0.3-1.9,0.5-2.8,0.7c-0.9,0.2-1.8,0.4-2.8,0.5
							c-0.9,0.1-1.9,0.2-2.8,0.4c-0.9,0.1-1.9,0.2-2.8,0.3l-2.8,0.2l-2.8,0l-1.4,0l-1.4,0c-0.9,0-1.8,0-2.7-0.1
							c-0.9-0.1-1.8-0.1-2.7-0.2c-1.8,0-3.7-0.3-5.5-0.4c-3.7-0.4-7.4-0.7-11.2-1.1c-16.2-1.7-32.2-7-46.3-15.2
							c-14-8.2-26.2-19.5-33.2-32.8c-3-5.6-5.3-11.8-6.9-18.6c-1.7-6.7-2.7-14-3.3-21.5c-0.6-7.6-0.9-15.4-1-23.6
							c-0.2-8.1-0.2-16.5-0.5-25.3C64.5,285.3,64.4,265,64.2,244.9z"/>
					</g>
				</g>
			</g>
		</g>
		<g>
			<g>
				<g>
					<path class="st4" d="M276.8,256.4c0.2-0.3,0.4-0.7,0.6-1C277.1,255.8,276.9,256.1,276.8,256.4z"/>
					<path class="st4" d="M290.5,296.4l0.4-0.3C290.6,296.2,290.5,296.3,290.5,296.4z"/>
					<path class="st4" d="M252.4,315.2l-0.6-0.3C252.1,315,252.3,315.1,252.4,315.2z"/>
					<g>
						<path class="st4" d="M294,339.3c1.8,0.8,3.6,1.7,5.3,2.5l2.7,1.2l2.2,1l0,0c0,0,0,0,0,0l1,0.6c0.9,0.5,2,1.2,4.2,2
							c0.7,0.3,1.3,0.5,2.1,0.7c0.5,0.1,0.9,0.2,1.4,0.4l0.7,0.1c0.2,0,0.6,0.1,0.9,0.2c0.7,0.1,1.3,0.2,2,0.2c0.3,0,0.8,0,1.3,0
							c0.5,0,0.9,0,1.4-0.1c0.5,0,0.9-0.1,1.4-0.1l0.3,0l0.4-0.1l0.9-0.2c1.2-0.3,2.3-0.6,3.5-1l17.5-6.9l-5.8-17.7
							c-1.3-3.8-2.7-6.5-3.9-8.6c-1.2-2.1-2.3-3.8-3-4.9l-0.5-0.7c0-0.1-0.2-0.3-0.3-0.5l-0.3-0.6l-1.4-2.4l-2.8-4.8
							c-1.9-3.2-3.8-6.3-5.7-9.4c-1.9-3.1-4-6.3-5.8-9.1c-1.3-2-2.5-3.9-3.6-5.7c-1.3-2.5-1.4-2-2-2.7c-0.5-0.5-0.9-1.1-1.4-1.9
							c-0.2-0.4-0.3-0.8-0.1-1.1c0.1-0.3,0.3-0.6,0.5-0.9c0.2-0.3,0.4-0.7,0.6-1c0.1-0.2,0.3-0.4,0.3-0.5c0,0,0,0,0,0l0.1-0.1
							l0.2-0.2l0.4-0.4l0.7-0.8c1.9-2,3.8-4,5.7-6.1c3.7-4,7.4-8.1,11.2-12c3.9-4.1,7.8-8.3,11.7-12.4l5.7-6.1l1.4-1.5l0.5-0.6
							c0.1-0.1,0.2-0.2,0.3-0.3l1.7-1.5c0.4-0.3,0.7-0.7,1.3-1.3c0.3-0.3,0.6-0.6,1.2-1.4c0.2-0.2,0.4-0.5,0.5-0.8
							c0.1-0.2,0.3-0.5,0.4-0.7l0.2-0.4c0.1-0.2,0.2-0.5,0.3-0.7s0.2-0.5,0.3-0.7l0.1-0.4c0.1-0.3,0.2-0.5,0.2-0.8
							c0.1-0.5,0.2-1.1,0.3-1.7l0-0.4c0-0.1,0-0.4,0-0.7c0-0.6,0-1.2-0.1-1.8c-0.1-0.6-0.2-1.2-0.4-1.8c-0.1-0.3-0.2-0.6-0.3-0.9
							c-0.1-0.3-0.2-0.6-0.4-0.9c-0.7-1.4-1.8-2.7-3-3.7c-0.3-0.2-0.6-0.5-0.9-0.7c-0.2-0.1-0.4-0.2-0.6-0.3
							c-0.4-0.2-0.8-0.4-1.2-0.6c-0.8-0.4-1.7-0.6-2.5-0.8l-1.1-0.2l-1,0c-11.2,0.2-22.3,0.5-33.5,1.3c-2.4,0.2-4.6,0.3-6.8,0.4
							c-2.3,0.1-4.5,0.1-6.8,0.2c-3.8,0-7.5,0-11.3,0.1l-2.6,0l-0.7,0c-0.2,0-0.4-0.1-0.5-0.3l-0.6-1.2c-0.8-1.7-1.6-3.3-2.4-5
							c-3.1-6.3-6.1-12.6-9.2-19c-1.8-3.6-3.6-7.2-5.4-10.8c-1.8-3.6-3.3-7.8-5.4-10.9c-1-1.5-2.1-2.9-3-4.1l-2.7-3.3
							c-1.6-2.1-3.1-3.8-4.7-5.4c-0.9-0.8-2.1-1.5-3.3-2c-0.6-0.3-1.2-0.5-1.8-0.7c-0.3-0.1-0.6-0.2-0.9-0.3c-0.1,0-0.2,0-0.2-0.1
							c0,0-0.1,0-0.1,0c0,0,0,0-0.1,0.1l-0.3,0.3l-2.2,2.5l-1.2,1.4c-0.4,0.5-0.8,0.9-1.3,1.3c-0.9,0.9-1.7,1.9-2.6,3
							c-0.8,1.1-1.6,2.3-2.3,3.6c-0.7,1.3-1.4,2.8-2.1,4.5c-0.7,1.6-1.5,3.2-2.3,4.9c-1.7,3.7-3.5,7.3-5.3,11.1
							c-0.9,1.9-1.9,3.7-2.8,5.6l-1.4,2.8l-0.7,1.4l-0.5,1c-1.3,2.5-5.2,16.5-5.4,19.5c-0.1,1.4,5.5-5.4,7-7.3
							c2.5-3.1,5.5-7.1,8.4-10.9c2.8-3.8,5.1-6.7,6.5-8.7c0.7-1,1.4-1.9,1.8-2.8c0.5-0.9,0.9-1.7,1.3-2.4c0.8-1.5,1.4-2.8,2.3-4.1
							c0.8-1.2,1.7-2.4,2.5-3.8c0.4-0.7,0.9-1.4,1.3-2.2c0.1-0.2,0.2-0.4,0.3-0.6c0,0,0-0.2,0.1-0.1c0.1,0,0.1,0.1,0.2,0.1l0.3,0.3
							c0.4,0.4,0.9,0.9,1.3,1.4c0.8,1,1.7,2,2.2,3.2c0.5,1.2,0.9,2.4,1.3,3.6c0.8,2.4,1.6,4.7,2.5,6.9c1.9,4.4,3.6,8.5,5.2,12.5
							l3.5,8.4c1.2,2.9,2.4,5.9,3.6,8.8l2.7,6.3c0.9,2.2,1.9,4.3,3.1,6.1c0.6,0.9,1.2,1.8,1.9,2.5c0.8,0.9,1.8,1,2.8,1.4
							c0.5,0.2,1,0.4,1.5,0.5l1.6,0.4l0.8,0.2l0.9,0.1l1.7,0.2c0.3,0,0.6,0.1,0.8,0.1c1.9,0.2,3.7,0.3,5.6,0.5l1.4,0.1l1,0.1
							l1.9,0.2c2.5,0.3,5,0.5,7.6,0.6c5.1,0.3,10.5,0.4,15.5,0.4c10.2,0,20.4-0.2,30.4,0.3l-0.1-12.3c0,0,0-0.1,0-0.1c0,0,0,0,0,0
							c0,0,0,0-0.1,0c0,0-0.1,0-0.1,0c-0.1,0-0.3-0.1-0.4-0.2c-0.2-0.1-0.4-0.2-0.5-0.3c-0.8-0.5-1.9-1.4-3-2.4
							c-0.6-0.6-1.2-1.1-1.9-1.7l-1-1l-1.1-1.1l-1.1-1.1l-0.1-0.1c0,0,0,0,0,0l0,0l0,0c0,0,0,0,0,0l-0.8,0.6
							c-0.3,0.2-1.5,1.1-2.3,1.9l-0.6,0.6l-0.4,0.4l-0.8,0.7l-3.2,2.9l-6.4,5.8c-4.2,3.8-8.4,7.6-12.6,11.2
							c-4.2,3.6-8.3,7.2-12.4,10.6l-3.1,2.5l-1.2,1l-1.5,1.2l-3,2.4l-1.5,1.2c-0.4,0.4-0.8,0.9-1.2,1.3l-2.5,2.7
							c-0.9,0.9-1.5,1.8-2,2.8c-0.5,1-1,2.1-1.3,3.3c-0.3,1.2-0.5,2.3-0.6,3.5l-0.1,1.8c0,0.6,0,1.2,0.1,1.8c0.1,2.5,0.7,5,1.2,7.5
							c0.6,2.5,1.2,5,2.1,7.5c0.2,0.6,0.4,1.2,0.6,1.9l0.6,1.5l0.9,2.4c1.3,3.2,2.6,6.1,3.9,8.9l3.7,8l7.3,15.6l1.9,3.9l0.3,0.6
							l0.3,0.7l0.6,1.2l1.2,2.1c0.7,1.2,1.3,2.3,1.6,3c0.2,0.4,0.3,0.7,0.4,0.9c0,0.1,0.1,0.2,0.1,0.2c0,0,0,0,0,0l0,0c0,0,0,0,0,0
							l0.2-0.1l0.9-0.3l15.7-5.9c-0.1-0.2-0.2-0.9,0.1-2.1c0.3-1.2,0.9-2.6,2-5.1l1-1.9c0.4-0.8,0.8-1.6,1.3-2.4l2-3.5l0.1-0.2
							l0.1-0.1l0,0l0,0l0,0c0,0,0,0,0,0l-0.8-0.5c-1-0.6-2.1-1.2-3.2-1.7c-22-9.4-41.1-18.2-60-31.3l-1.7-1.1l-2-1.3
							c-1.4-0.9-2.7-1.7-4.1-2.5c-1.4-0.8-2.8-1.6-4.2-2.3c-1.4-0.6-2.8-1.2-4.2-1.5c-1.4-0.4-2.8-0.6-4.3-0.6
							c-1.5,0-2.9,0.2-4.3,0.5c-1.4,0.3-2.8,0.8-4.2,1.4c-1.4,0.6-2.8,1.4-4.2,2.3l-7.6,4.5l-4.5,2.7l-9.1,5.3
							c-6.7,3.9-13.3,7.8-19.9,11.8l-9.9,6c-1.6,1-3.3,2-4.9,2.9l-5.1,3c-0.4,0.3-0.9,0.5-1.3,0.8l-0.6,0.4l-0.6,0.4l-1.4,1
							l-0.9,0.7L161,313l-0.1,0.1l0,0c0,0.1-0.1-0.2,0.3,0.6l1.8,3.1c0.3,0.5,0.5,0.9,0.8,1.4l0.4,0.7c0.1,0.2,0.2,0.5,0.3,0.7
							c0.4,0.8,0.8,1.6,1.2,2.4l0.3,0.6l0.2,0.5c0.1,0.3,0.3,0.7,0.4,1l0.3,1c0.1,0.3,0.2,0.5,0.3,0.8c0.1,0.3,0.1,0.5,0.2,0.8
							c0.1,0.2,0.1,0.4,0.1,0.6c0,0.1,0,0.2,0,0.3l0,0.2l0,0l0,0c0,2.7,0,0.8,0,1.4l0,0c0,0,0,0,0,0c0-0.1,0.4-0.1,1,0
							c1.1,0.2,2.8,0.7,5,1.4c2.2,0.7,5.1,1.7,8.8,3.2l1.4,0.5c0.3,0.1,0.2,0.1,0.2,0.1l0,0l0,0l0-0.1l0.2-0.6l0.4-1
							c0.2-0.5,0.4-1,0.5-1.4l3.7-11.2l1.8-5.2c0.5-1.4,1.2-3.1,1.8-4.7l4.6-10.9c0.8-2,1.6-4,2.5-6.3l2-5.7
							c0.7-1.9,1.4-3.9,2.1-5.8l0.9-2.3l1-2.7c0.7-1.8,1.3-3.6,1.9-5.4c1.2-3.6,1.5-7.2,1-10.5c-0.4-1.6-0.9-3.1-1.7-4.7
							c-0.8-1.6-1.8-3.1-3-4.6l-5.4-6.3l-1.4-1.6l-0.7-0.9l-1.4-1.7L192,237l-1.4-1.7l-0.2-0.2c-0.1-0.1,0,0,0-0.1l0,0l0-0.1
							c0-0.5,0.2-0.7,0.4-0.8c0.2-0.1,0.5,0,0.6,0c0.1,0-0.1,0-0.4-0.2c-0.2-0.2-0.3-0.3-0.3-0.5c0-0.2,0-0.6,0.3-1.1
							c0.1-0.1,0.2-0.3,0.3-0.5l0.1-0.1l0,0l0,0l0.1,0l0.9-0.2c0.6-0.1,1.2-0.2,1.8-0.3c2.3-0.5,4.6-1,6.8-1.6
							c4.4-1.2,8.5-2.8,12-4.7c3.4-1.9,4.4-5.2,4.3-8.1c0.1,4.7-18.9-4.5-20.3-4.9c-2.1-0.6-4.2-1.2-6.4-1.6
							c-2.6-0.5-5.3-0.8-8.3-1.2c-2.9-0.4-6-0.7-9.2-1c-1.6-0.2-3.3-0.3-4.9-0.5c-1.7-0.2-3.4-0.3-5-0.5c-1.7-0.1-3.3-0.3-5-0.4
							c-0.9-0.1-1.7-0.1-2.6-0.2l-1.3-0.1l-0.3,0l-0.2,0l-0.5,0c-2.4,0.2-4.8,0.4-7.2,0.7c-2.4,0.3-4.7,0.7-6.9,1.2
							c-1.3,0.3-2,0.5-2.7,0.7c-0.4,0.1-0.7,0.2-1.1,0.4c-0.2,0.1-0.3,0.1-0.5,0.2c-0.1,0-0.2,0.1-0.2,0.2l-0.1,0.2
							c-0.3,1.2-0.7,2.5-1.2,3.7l-0.4,0.9l-0.2,0.5l0,0.7c0.1,1,0.1,1.9,0.2,2.9c0.1,1,0.1,2,0.2,3c0,0.5,0.1,1,0.1,1.6
							c0.2,0.6,0.5,1.3,0.8,1.9c0.1,0.3,0.4,0.7,0.6,1l0.7,1.1l0.7,1.1l0.4,0.5l0.5,0.6c0.9,0.8,1.8,1.5,2.7,2.3l0.7,0.6
							c0.1,0,0.1,0.1,0.2,0.1l0.1,0.1l0.1,0.3l0.5,1.1c0.2,1,1.3,2,2.1,2.9l2.5,3l5.1,6c3.5,4.1,7,8.1,10.4,12.1l1.3,1.5l0.8,0.9
							l1.4,1.6l2.7,3.2l1.4,1.6l0.3,0.4l0.2,0.2l0,0l0,0.1l0.1,0.3c0.3,0.3-0.1,0.7-0.3,1l-2.9,8.3l-1.3,3.8
							c-0.4,1.1-0.9,2.2-1.4,3.5c-1,2.5-2.2,5.1-3.4,7.9c-1.2,2.8-2.5,5.8-3.7,9.2l-0.9,2.5l-0.7,2.1l-1.4,4.3
							c-1,2.8-1.9,5.6-2.9,8.4l0,0l-0.2,0.5l-0.4,0.9c-0.2,0.4-0.3,0.8-0.6,1.7l-0.3,0.9l-0.2,0.7l-0.1,0.4l-0.1,0.6l-0.1,0.8
							c-0.1,0.4-0.1,0.7-0.2,1.1l0,0.4l0,0.5c0,0.3,0,0.7,0,1l0,0.6c0,0.3,0,0.7,0,1c0,0.7,0.1,1.3,0.2,2l0.1,0.7
							c0.1,0.4,0.2,0.7,0.3,1.1c0.2,0.7,0.4,1.5,0.7,2.2c0.3,0.7,0.6,1.4,1,2.1l0.2,0.3l0.3,0.5c0.2,0.3,0.4,0.6,0.6,0.9
							c0.4,0.6,0.9,1.2,1.4,1.8c1,1.2,2.2,2.2,3.4,3c1.2,0.8,2.5,1.5,4,2.1c1.4,0.6,3,1,4.5,1.1c0.8,0.1,1.5,0.1,2.2,0.2l0.1,0
							c0.4,0,0.7,0,1.1,0c1.4-0.1,3.2-0.4,3.9-0.6c0.4-0.1,0.9-0.2,1.3-0.4l0.7-0.2l0.4-0.2c0.6-0.2,1.2-0.4,1.7-0.7l1.2-0.6
							c0.4-0.2,0.7-0.4,1-0.5l0.9-0.5c0.5-0.3,1-0.6,1.4-0.9c0.4-0.3,0.8-0.5,1.1-0.8c0.7-0.5,1.3-0.9,1.8-1.3l1.4-1l4.7-2.8
							c1.6-1,3.2-1.9,4.8-2.9l9.5-5.8l18.9-11.7l16.1-9.9l0.3-0.2c0.1-0.1,0.2-0.1,0.3,0c0.1,0.1,0.2,0.1,0.3,0.2l0.1,0.1l0.1,0.1
							l0,0l0.2,0.1l0.5,0.4c3.7,2.5,8.1,5.6,12.4,8.3c4.3,2.8,8.7,5.5,13.2,8.1C275.7,330,284.8,334.9,294,339.3z"/>
					</g>
				</g>
			</g>
		</g>
	</g>
</g>
</svg>
