<svg xmlns="http://www.w3.org/2000/svg" viewBox="0 0 500 500"><path d="M163.14 395.25l.32.05c-.14-.03-.23-.07-.32-.05zM118.06 383.3l.13-.13c-.09.02-.12.07-.13.12zM103 391.95l-.31-.16c.14.1.23.13.3.16z"/><path d="M122.85 400.08c8.42 2.42 17.01 4.5 25.84 5.8 9.1 1.33 18.3 1.86 27.61 2.67 5.16.48 10.71.3 16-1.31a30.27 30.27 0 0 0 13.82-8.82c6.44-7.4 12.86-14.35 19.26-21.6 3.11-3.48 5.92-7.17 8.8-10.8a137.8 137.8 0 0 1 9.05-10.45l2.65-2.62 1.46-1.51c.24-.26.5-.52.71-.77l.62-.73a55.74 55.74 0 0 0 2.14-3.53c.91-1.44 1.86-2.9 2.09-3.46.23-.52-2.77 1.34-3.63 1.93-.64.5-1.36 1.08-2.13 1.71l-2.28 2.03a4964.03 4964.03 0 0 1-4.08 3.3 123.6 123.6 0 0 0-9.57 9.02c-7.72 8.06-14.9 16.2-23.2 23.34-1.65 1.47-3.33 2.91-4.92 4.47-.8.78-1.6 1.56-2.38 2.36l-1.18 1.2-1.08.92a20.22 20.22 0 0 1-9.93 4.98l-1.5.25c-.5.06-1.03.06-1.54.1l-1.54.07-1.57-.09c-.52-.03-1.03-.02-1.56-.09l-1.58-.21c-.54-.08-1.01-.11-1.6-.23l-1.73-.32-3.46-.62c-1.15-.2-2.3-.47-3.45-.7l-3.47-.66c-1.16-.25-2.32-.48-3.49-.7-9.94-1.9-19.59-5.43-29.67-8.09-4.95-1.33-10.02-2.5-14.48-3.9-4.52-1.4-8.18-3.14-11.48-5.86-3.87-3.22-7.33-7.52-10.65-12.36-8.67-12.02-16.86-24.38-23.8-37.45-6.32-11.82-10.33-24.34-16.12-36.68l-2.44-5.27-1.36-2.78a50.08 50.08 0 0 0-1.53-2.88c-1-1.7-1.81-3.02-2.48-4.07-.65-1.04-1.26-1.86-1.8-2.92a5.07 5.07 0 0 0-2.65-2.27c.9.38-.22 1.62-.99 3.51a16.63 16.63 0 0 0-1.16 4.66c0 1.92.41 3.87.84 5.72l.62 2.75.6 2.8c1.4 7.2 2.18 13.92 4.96 21.16 5.83 15.15 13.69 29.54 22.48 43.36l5.8 8.7c.94 1.46 2 2.85 3.02 4.26l3.09 4.2 3.1 4.22c1.12 1.43 2.21 2.86 3.44 4.27a64.78 64.78 0 0 0 8.16 8.24 47.76 47.76 0 0 0 12.64 7.5c4.42 1.82 8.62 3.06 12.68 4.25zM135.83 217.99l.18-.01c-.08 0-.13-.03-.18 0zM109.9 216.63l.06-.15a.2.2 0 0 0-.07.15zM102.67 229.97h-.17c.08.02.13.02.17 0z"/><path d="M113.91 231.8c2.54.2 5.08.29 7.62.25 2.52-.1 5.04-.3 7.53-.65 5.12-.78 10.14-2.06 15.25-2.27 5.47-.22 10.6-.2 15.97-.64 5.38-.46 10.65-.21 16.1-.05a58 58 0 0 0 7.9-.47 76.24 76.24 0 0 1 7.94-.46c1.42.04 2.84.23 4.3.2.71.01 4.15-1.24 4.77-1.72.28-.21-1.9-.92-2.48-1.1-.98-.3-2.19-.64-3.34-.93-1.14-.28-2.23-.61-2.96-.72a67.5 67.5 0 0 0-3.64-.56 45.82 45.82 0 0 0-3.67-.32c-6.17-.3-12.2-.7-18.33-2.11a36.6 36.6 0 0 0-7.6-.77c-2.58-.07-5.18-.02-7.76-.24l-8.2-.84a73.95 73.95 0 0 0-8.13-.45 86.67 86.67 0 0 1-8.58-.48c-1.42-.13-2.84-.27-4.26-.37-1.42-.12-2.82-.25-4.24-.3-2.8-.06-5.56-.24-8.34-.38-1.4-.05-2.77-.22-4.15-.35-1.37-.15-2.75-.28-4.12-.48-3.17-.56-6.33-1.1-9.49-1.94-7.96-2-15.88-3.82-23.34-6.79-1.66-.7-3.28-1.5-4.88-2.3-1.56-.87-3.06-1.83-4.58-2.73-1.54-.86-2.95-1.93-4.45-2.84-.75-.46-1.5-.9-2.28-1.34-.75-.46-1.5-.93-2.27-1.37-.82-.46-1.7-.98-2.64-1.48-.9-.46-2-1.12-3.32-1.74-1.4-.63-3-1.2-4.79-1.4-.86-.09-1.8-.05-2.61.06-.87.18-1.65.38-2.33.76-1.34.77-1.48 2.1-1.34 3.23-.14-.9 1.46-.6 2.63.4a6.9 6.9 0 0 1 1.37 1.59c.3.51.48.89.53.96a99.12 99.12 0 0 0 3.8 5.17c1.3 1.75 2.49 3.56 3.82 5.3a25.77 25.77 0 0 0 4.8 4.49c8 5.31 17.03 8.52 26.05 11.1 1.92.6 3.85 1.03 5.78 1.5 1.94.47 3.87.94 5.8 1.3 1.95.37 3.86.82 5.83 1.15l5.9 1.04c2.36.36 4.75.74 7.16 1.16 2.4.34 4.84.65 7.27.92zM255.37 225.73l-.15.04c.07-.01.12 0 .15-.04zM277.09 220.8v.17a.22.22 0 0 0 0-.17zM277.51 205.92l.12-.06a.21.21 0 0 0-.12.06z"/><path d="M269 207.66a48.85 48.85 0 0 0-8.33 2.67c-.92.34-1.84.71-2.75 1.1-1.88.83-3.73 1.76-5.62 2.6-1.88.86-3.8 1.63-5.8 2l-6.37 1.22c-1.06.21-2.11.43-3.16.68-1.06.25-2.12.44-3.17.7-2.12.54-4.24.9-6.37 1.18-1.06.14-2.13.26-3.2.37-1.07.09-2.16.1-3.24.16-2.1.09-4.16.5-6.24.87-1.03.18-2.07.35-3.12.47-1.05.12-2.2.21-3.31.18-1.19-.02-2.45-.15-3.55-.17-.56-.01-3.22 1.2-3.72 1.66-.22.21 1.5.95 2 1.14 1.56.62 4 1.4 5.18 1.65 1.22.23 2.09.4 2.96.5.88.12 1.8.19 3.04.2 5.15.07 10.17.15 15.37.73 4.23.54 8.47-.6 12.65-.88 4.55-.22 9.21 0 13.66-1.04 2.37-.53 4.78-.83 7.2-1.15 2.41-.34 4.83-.83 7.2-1.48 2.33-.66 4.65-1.35 6.96-2.07 2.27-.8 4.54-1.6 6.84-2.3 2.67-.84 5.4-1.55 8.06-2.4 3.38-1.01 6.7-2.19 10-3.38 3.27-1.27 6.52-2.56 9.8-3.76 3.02-1.09 5.9-1.78 8.96-2.58 3.06-.84 6.16-1.74 9.18-3.38 3.15-1.67 7.72-4.12 8.66-8.38.23-1-.3-2.2-.94-3.15.52.78-.58.87-1.8.73-1.23-.14-2.57-.52-2.73-.56-.98-.1-1.9-.06-2.78.03-.9.08-1.8.14-2.7.16-3.49.04-6.78-.71-10.1.1-1.73.43-3.5.92-5.25 1.47a150.5 150.5 0 0 0-5.2 1.76c-3.4 1.22-6.76 2.55-10.16 3.82-5.77 1.97-11.46 4.35-17.31 5.92-3.5 1-7.16 1.87-10.8 2.61zM250.35 341.9l-.28.13c.13-.04.22-.07.28-.13zM280.09 310.9l.08.16c0-.1-.04-.14-.08-.16zM273 296.07l.1-.2a.68.68 0 0 0-.1.2z"/><path d="M263.4 308.97c-2.18 3.14-4.08 6.17-5.94 8.98a73.5 73.5 0 0 1-5.58 7.55c-1 1.07-2.01 2.18-3.14 3.02l-.42.35-.5.33-1.05.68c-.69.45-1.38.92-2.16 1.3a43.97 43.97 0 0 1-9.98 3.93c-3.8 1.02-7.77 1.85-11.77 2.89-2.05.53-3.92 1.03-5.81 1.57-1.9.48-3.79 1.04-5.68 1.5-3.81 1-7.63 1.58-11.44 1.8-1.9.14-3.8.09-5.7.05-.96-.04-1.9-.15-2.85-.22l-2.98-.25c-3.99-.32-8-.35-11.96-.36-3.92.06-7.84.09-11.75-.31-1.04-.11-2-.28-3-.43-1-.14-1.9-.4-2.85-.58-.49-.05-1.83-.18-3.25-.2-1.37-.1-2.75-.28-3.27-.21-.48.02 1.83 1.8 2.58 2.27a31.67 31.67 0 0 0 8.74 3.35c4.41.87 6.46 1.23 10.99 1.64 2.35.17 4.63.48 6.92.73l6.82.84 3.53.48 1.8.26 1.8.17c2.43.28 4.86.4 7.32.56 3.98.21 8-.34 11.94-1.07 1.95-.42 3.92-.82 5.83-1.3.96-.2 1.91-.42 2.86-.63.91-.2 1.82-.37 2.73-.53 3.99-.65 8.11-1.15 12.33-1.9a56.05 56.05 0 0 0 12.88-3.77l1.72-.8.85-.39c.3-.13.6-.32.9-.48.6-.34 1.23-.65 1.81-1.01l1.71-1.12a46.1 46.1 0 0 0 6.05-5.03c3.6-3.6 6.47-7.43 8.92-11.19l3.5-5.4c.56-.86 1.12-1.73 1.69-2.52l1.87-2.72 1.98-2.94 1.79-2.95.9-1.48.83-1.46 1.68-2.93c2.52-4.5 4.97-8.86 7.56-12.91l2.49-3.71 2.59-3.49 2.97-3.92a82 82 0 0 0 2.93-4.03l2.81-4.09 2.68-4.14c.9-1.37 1.77-2.76 2.62-4.15l2.58-4.15c3.05-5.02 6.29-9.81 9.4-14.6 1.56-2.41 3.1-4.8 4.58-7.23l1.1-1.83c.25-.46.55-1.04.8-1.56l.39-.8.28-.74c.8-2.08 1.07-3.6 1.39-4.8.29-1.3.52-1.82.66-2.18a.56.56 0 0 0 .04-.13c.01-.03 0-.04.03-.1l.26-.34 1.01-1.39c.63-.95 1.24-1.94 1.73-2.96a20.76 20.76 0 0 0 1.97-6.2 13.08 13.08 0 0 0-.28-5.55c-.47-1.57-1.7-2.14-2.83-2.3.9.12.2 1.91-1.03 3.48-.58.8-1.32 1.51-1.88 2.05-.6.53-1.04.88-1.13.97-.5.57-1.09 1.1-1.58 1.65-.56.52-1.07 1.07-1.62 1.57-.57.5-1.1 1-1.7 1.43-.3.23-.56.4-.88.67l-1.15 1.07a22.2 22.2 0 0 0-3.31 4.57c-.86 1.44-1.57 2.73-2.27 3.5-.33.47-.7.66-.98.95a51.28 51.28 0 0 0-4.33 5.48c-7.52 11.27-13.82 22.86-21.35 33.44l-1.19 1.7-1.24 1.63-2.46 3.3-2.77 3.8-.7.96-.62.98-1.25 1.95c-3.27 5.22-6.01 10.42-8.82 15.27-.84 1.41-1.7 2.86-2.58 4.25-.91 1.33-1.79 2.74-2.74 4.02l-3.02 3.96c-1.22 1.55-2.3 3.07-3.36 4.58z"/><g><path d="M397.42 275.84l.1.08c-.04-.04-.05-.09-.1-.08zM384.4 262.86l.15-.07c-.06 0-.1.04-.14.07zM370.8 268.5l-.1-.1.1.1z"/><path d="M375.91 275.56a36.47 36.47 0 0 0 4.22 4.14 42.86 42.86 0 0 0 4.88 3.36c1.82.96 3.69 1.81 5.48 2.71 1.86.83 3.67 1.67 5.32 2.77 1.77 1.14 3.6 2.16 5.4 3.22.89.55 1.87.96 2.83 1.39.97.42 1.95.81 2.95 1.17l1.48.56c.49.2 1 .33 1.48.5.99.34 1.96.7 2.92 1.09.97.36 1.9.83 2.88 1.15l2.95 1.04c.95.34 1.93.6 2.9.82 1 .18 2 .28 3 .42l1.49.2 1.62.29c.65.1 1.26.31 1.94.36.66.1 1.34.09 2.02.05 1.45-.12 2.85-.58 4.2-1.29.09-.04.2-.12.35-.23.08-.07.17-.18.24-.26.14-.17.26-.37.29-.51a.56.56 0 0 0 .02-.22v-.21c0-.16.06-.26.1-.37.02-.1 0-.37-.17-.66-.16-.28-.52-.51-.71-.55-.58-.23-1.61-.12-2.52-.01-.89.09-1.65.05-2.15 0-1.02-.09-1.68-.48-2.29-.82-.32-.18-.57-.32-.96-.49-.41-.17-.86-.34-1.38-.53l-3.19-1.11c-1.03-.45-2.04-.9-3.05-1.38-1-.48-2-.96-2.95-1.52a35 35 0 0 1-2.72-2c-.71-.57-1.47-1.05-2.25-1.46-.77-.45-1.53-.91-2.32-1.32l-2.36-1.23c-.39-.22-.78-.42-1.15-.67-.36-.26-.71-.53-1.06-.82-3.02-2.41-5.57-5.31-8.55-7.6-.79-.64-1.54-1.31-2.27-2-.36-.35-.73-.68-1.08-1.05l-1-1.14c-1.33-1.52-2.7-2.96-4.08-4.43l-2.12-2.1c-.73-.68-1.37-1.44-2.06-2.17l-2.02-2.22c-.64-.76-1.24-1.57-1.84-2.38-.7-.95-1.41-1.87-2.05-2.87-.62-1-1.24-2-1.84-3.02-3.06-5.16-6.26-10.2-8.48-15.5-1-2.4-1.47-4.92-1.87-7.38-.42-2.46-.65-4.85-1.26-7.23-.65-2.56-.93-5.92-3.77-8.35-.7-.6-2-.86-3.14-.93.94.06.4.82-.39 1.65-.8.82-1.82 1.73-1.9 1.85a10.7 10.7 0 0 0-1.24 2.38c-.29.83-.53 1.68-.85 2.53-1.13 3.26-2.53 6.56-2.08 10.12.98 7.45 4.22 14.11 7.64 20.3 1.47 2.65 3.03 5.15 4.7 7.64l2.52 3.73c.8 1.26 1.76 2.43 2.62 3.67.52.74 1.04 1.49 1.55 2.25.53.75 1.1 1.48 1.65 2.23 1.14 1.48 2.2 3.05 3.48 4.44z"/></g><g><path d="M88.19 274.67l.19.05c-.09-.03-.13-.07-.2-.05zM61.41 263.87l.12-.12c-.07.03-.1.07-.12.12zM51.51 275.36h-.1.1z"/><path d="M61.03 279.78a84.64 84.64 0 0 0 7.74 3.02c2.65.83 5.3 1.63 8.05 2.15 1.4.29 2.81.55 4.22.8l4.25.68c2.8.5 5.64.95 8.4 1.68 1.46.42 2.94.77 4.42 1.12s2.94.72 4.42 1.04c1.49.28 2.98.56 4.48.8l2.25.35 2.28.2c1.53.12 3.04.28 4.54.47l2.5.17c.85.07 1.62.02 2.44.04 3.18-.03 6.06-.23 8.88-.07 1.37.04 2.74 0 4.1-.09l4.2-.01c1.4 0 2.79-.04 4.2.1 1.42.11 2.83.29 4.23.57 1.49.3 2.97.69 4.49 1.03.74.17 4.62-.26 5.4-.58.35-.14-1.77-1.33-2.35-1.65a51.3 51.3 0 0 0-6.44-2.96 79 79 0 0 0-3.91-1.2c-.6-.16-1.18-.31-1.83-.45-.66-.12-1.38-.24-2.22-.35l-5.16-.72-5.22-.41-2.62-.25-2.55-.19c-.83-.08-1.63-.18-2.45-.28-.77-.14-1.53-.3-2.28-.47-.57-.19-1.13-.35-1.69-.48-.26-.05-.58-.14-.92-.23l-.99-.25a67.71 67.71 0 0 0-4-.8c-1.34-.2-2.67-.55-4-.83-1.33-.32-2.66-.62-3.94-1.06-2.76-1-5.5-2-8.2-3.16-1.36-.56-2.72-1.07-4.09-1.6a62.49 62.49 0 0 0-4.13-1.49c-5.95-1.96-11.5-4.95-17.34-7.3l-8.89-3.5c-.84-.3-1.66-.62-2.53-.91l-2.74-.82-.35-.1-.41-.09-.84-.18c-.56-.12-.96-.16-1.45-.25l-1.2-.18-.98-.16-.37-.09c-.07-.02-.14-.05-.21-.1-.07-.02-.12-.08-.18-.14l-.06-.08-.2-.23a34.72 34.72 0 0 1-2.98-3.72c-1.01-1.5-1.66-2.84-1.94-3.95l-.06-.2-.04-.12-.04-.21-.17-.84-.35-1.67-.7-3.35c-.91-4.5-1.81-9.05-2.6-13.66-1.45-8.34-1.43-16.8-3.93-25.25a60.68 60.68 0 0 0-2.55-7.36 17.15 17.15 0 0 0-2.04-3.47 11.75 11.75 0 0 0-2.68-2.66c-.98-.68-2.29-.52-3.37-.14.89-.3.8 1.07.46 2.54-.34 1.48-.92 3.03-.96 3.23-.1.59-.16 1.18-.2 1.77-.06.6-.1 1.2-.13 1.8-.05 1.2-.06 2.4-.15 3.58-.13 2.27-.55 4.49-.8 6.68-.24 2.2-.37 4.38-.15 6.7 1.03 9.69 2.82 19.25 4.74 29.13l1.33 6.33a25.07 25.07 0 0 0 3.68 8.23 47.46 47.46 0 0 0 4.7 5.83l.57.61.48.5.54.55.55.53c.26.08.41.3.62.44.4.3.74.69 1.2.9.44.24.89.47 1.34.69a21.94 21.94 0 0 0 4.12 1.23l2.06.38.77.15c.28.05.42.1.57.15l.23.06.34.13.69.26c.47.19.9.3 1.42.55 1 .46 1.98.88 3.13 1.46l3.55 1.68z"/></g><g><path d="M110.41 147.08h.15c-.06 0-.1-.04-.15 0zM89.68 142.85l.1-.13a.22.22 0 0 0-.1.13zM80.24 154.4l-.14-.03c.06.03.1.03.14.03z"/><path d="M89.8 158.28a40.52 40.52 0 0 0 13.58 1.63c4.69-.25 9.22-1.23 13.79-1.4 2.42 0 4.85-.22 7.26-.4 2.43-.34 4.84-.62 7.23-1.4 2.46-.69 4.6-1.35 6.84-1.9l6.8-1.55c4.44-.96 8.45-3.43 12.94-4.3 1.2-.28 2.41-.48 3.62-.74.6-.13 3.15-1.97 3.55-2.54.18-.26-1.82-.54-2.36-.6a37.4 37.4 0 0 0-5.69-.31c-2.58.16-3.8.14-6.31.68-2.58.58-5.18 1-7.77 1.38-2.58.4-5.22.59-7.92.55-1.09-.02-2.17.08-3.23.22-1 .1-2 .25-2.99.42-.98.2-2 .3-3.02.4-1.02.07-2.02.18-3.05.1-1.1-.08-2.21-.19-3.31-.3-1.1-.1-2.2-.31-3.3-.45l-1.64-.2-1.64-.23a97.9 97.9 0 0 0-3.3-.33c-4.7-.31-9.18-1.83-13.66-2.78-4.44-.94-8.85-2.03-12.9-3.88-1.22-.49-2.31-1.16-3.46-1.75a56.1 56.1 0 0 1-3.22-2.04 62.75 62.75 0 0 1-7.21-5.94l-1.59-1.66c-.51-.57-.97-1.22-1.46-1.83-.48-.62-.98-1.22-1.45-1.85l-1.25-2.03c-.37-.62-.76-1.22-1.05-1.88-.3-.67-.57-1.34-.83-2.01-.26-.68-.55-1.33-.77-2.03l-.63-2.11c-.2-.71-.44-1.39-.64-2.1l-.61-2.16c-.21-.71-.47-1.4-.7-2.13-.23-.73-.49-1.45-.78-2.17-1.24-3.03-2.42-7.44-6.02-9.57-.87-.51-2.19-.43-3.3-.17 1.83-.43-1.07 4.2-1.18 4.54-.67 1.91-.63 3.86-.9 5.82-.22 1.89-.52 3.76-.7 5.64-.14 1.88-.07 3.8.39 5.73.29 1 .62 2.01.96 3.01.36 1 .64 2 1.12 2.98.44.98.9 1.95 1.36 2.92.24.48.46.97.72 1.45l.84 1.4 1.73 2.78c.58.93 1.3 1.77 1.96 2.65.69.87 1.34 1.76 2.07 2.6l2.3 2.49a53.22 53.22 0 0 0 8.83 7.12c1.53 1.08 3.17 1.91 4.76 2.87l2.44 1.26 1.22.63 1.24.57a83.29 83.29 0 0 0 12.3 4.9z"/></g><g><path d="M266.75 160.23l-.17.02c.08 0 .13.02.17-.02zM289.92 156.29v.16a.2.2 0 0 0 0-.16zM291 141.47l.12-.05a.2.2 0 0 0-.12.05z"/><path d="M282.37 142.85c-3.93.7-8 1.77-11.9 3.33-3.44 1.47-7.4 3-11.5 3.25-4.37.14-8.69-.14-13.05-.13a29.23 29.23 0 0 1-6.32-.77c-.53-.12-.96-.2-1.56-.37l-1.73-.47-3.3-.9c-4.19-1.19-8.72-1.15-12.5-3.05-1-.5-1.9-1.12-2.71-1.7-.2-.14-.94-.28-1.55-.39-.3-.05-.58-.08-.76-.06-.22 0-.13.05-.65.35-.08.04-.08.04-.03.01.04-.01.23-.13.12-.05-.09.07-.2.2-.2.39-.05.37.16.9.26 1.1a13.15 13.15 0 0 0 3.6 4.17 22.14 22.14 0 0 0 5.64 3.1c2.52.98 5.03 1.82 7.5 2.73a62 62 0 0 1 3.63 1.46c1.03.51 2.45 1.1 3.74 1.74 1.08.56 2.17.85 3.29 1.13 1.12.27 2.27.5 3.4.61l3.42.38c1.13.1 2.25.2 3.37.4 4.82.73 9.72 1.68 14.78 1.1 1.32-.1 2.7-.3 4.08-.43l2.04-.2 1.83-.2c2.45-.28 4.93-.54 7.42-1.09a171.2 171.2 0 0 0 14.9-4.08c1.47-.43 2.95-1 4.43-1.5 1.48-.52 2.95-1.14 4.43-1.71a52.23 52.23 0 0 0 10.54-6.15l2.37-1.94 1.18-.98 1.1-1.05 2.2-2.1 2.05-2.2c1.3-1.3 2.42-2.68 3.66-3.98.32-.35.6-.61.94-1.03.4-.53.78-1.06 1.16-1.61.18-.27.39-.57.54-.82l.4-.7.77-1.44a34.07 34.07 0 0 0 3.4-10.6 38.74 38.74 0 0 0 .45-4.7l.01-.39-.01-.2a19.3 19.3 0 0 0-1.3-4.5 6.76 6.76 0 0 0-2.26-2.38c.77.55-.08.93-1.22 1.37a21.74 21.74 0 0 0-2.57 1.18c-.4.32-.77.68-1.12 1.08-.33.4-.6.85-.88 1.3l-.76 1.32c-.23.4-.47.8-.73 1.17-2.03 2.96-4.56 5.37-5.93 8.1-.37.66-.7 1.44-1.05 1.92l-.24.41c-.08.11-.17.33-.23.35-.13.12-.24.24-.33.38l-1.57 1.8c-.55.63-1.06 1.3-1.65 1.87l-1.68 1.8c-.56.61-1.19 1.13-1.77 1.7-.58.57-1.17 1.13-1.81 1.62-.64.51-1.25 1.04-1.9 1.53a47.45 47.45 0 0 1-15.02 7.5c-3.36 1-7.06 1.56-10.86 2.22z"/></g><g><path d="M256.96 137.5l-.13.06c.06-.02.1 0 .13-.05zM276.27 130.96l.03.16a.22.22 0 0 0-.03-.16zM274.83 116.32l.1-.06a.2.2 0 0 0-.1.06z"/><path d="M267.16 118.73c-3.3 1.09-6.36 2.7-9.51 4.45-3.2 1.87-6.25 4.23-9.85 5.35-3.77 1.21-7.56 2.13-11.24 3.55-3.71 1.43-7.5 2.09-11.36 2.57-3.7.46-7.3 2.06-10.95 1.6a26.3 26.3 0 0 1-1.44-.24c-.47-.1-.92-.24-1.37-.35-.47-.05-2.75.5-3.29.83-.25.15.96 1.26 1.34 1.57a15.17 15.17 0 0 0 7.15 3.14c.84.15 1.7.24 2.84.23 4.79.02 9.37-.48 14.22-.15 3.94.25 7.64-1.36 11.45-1.85 2.06-.26 4.14-.46 6.2-.74a30.3 30.3 0 0 0 6.1-1.3c2.12-.7 4.3-1.17 6.49-1.66l1.64-.38 1.63-.48c1.08-.34 2.16-.7 3.21-1.13l3.1-1.28 2.94-1.37c1.95-.9 3.95-1.83 5.89-2.58 2.28-.9 4.59-1.75 6.91-2.54a53.07 53.07 0 0 0 4.87-1.93c.79-.38 1.6-.75 2.35-1.14l2.23-1.2c2.89-1.62 5.57-3.26 8.2-4.64 2.4-1.24 4.72-1.89 7.29-2.6 2.47-.65 4.76-1.15 6.85-1.87.54-.16 1.14-.34 1.75-.54a8.93 8.93 0 0 0 1.8-.59 6.54 6.54 0 0 0 1.77-.9c.6-.38 1.18-.82 1.81-1.5a7.1 7.1 0 0 0 1.34-3c-.22.92-.82.31-1.52-.57-.35-.44-.73-.98-1.05-1.35-.31-.38-.56-.66-.62-.71a8.36 8.36 0 0 0-2.42-1.33c-.85-.29-1.75-.54-2.66-.82-3.46-.99-7.04-1.98-10.54-1.16a44.37 44.37 0 0 0-7.8 2.68c-.83.38-1.62.78-2.43 1.18-3.16 1.62-6.02 3.36-8.78 4.86a74.3 74.3 0 0 1-6.74 3.3 254.33 254.33 0 0 1-8.04 3.18c-1.65.6-3.24 1.16-4.88 1.72l-4.88 1.7z"/></g><g><path d="M120.52 123.85l.12.03c-.05-.02-.08-.06-.12-.03zM104.16 117.05l.1-.13a.26.26 0 0 0-.1.13zM94.81 128.23l-.1-.03c.04.03.07.03.1.03z"/><path d="M101.58 131.99a39.36 39.36 0 0 0 7.39 2.5c.85.16 1.72.3 2.6.4 1.79.22 3.61.33 5.4.52.9.09 1.78.22 2.65.36.88.13 1.75.3 2.6.55l5.35 1.62a28 28 0 0 0 2.77.72c.98.2 1.96.38 2.9.46 3.84.4 7.36 1.22 11.05 2.06 3.58.75 7.3.17 10.9 1.02.97.23 1.9.58 2.9.8.51.12 3.07-.65 3.54-1.03.2-.18-1.22-1.18-1.6-1.44-.63-.44-1.41-.93-2.14-1.39a15.7 15.7 0 0 0-1.89-1.12c-1.9-.86-2.77-1.3-4.75-1.8-4.08-1.06-8.08-2.09-11.82-4.25a19.4 19.4 0 0 0-4.75-1.76c-.8-.21-1.54-.43-2.3-.67a16.4 16.4 0 0 1-2.35-.96c-3.3-1.7-6.49-3.63-9.91-4.91-1.84-.66-3.6-1.51-5.35-2.36-1.74-.87-3.44-1.82-5.25-2.5-1.78-.7-3.62-1.27-5.38-1.99a109.1 109.1 0 0 1-8.26-3.73c-.96-.55-1.92-1.11-2.87-1.69a90.2 90.2 0 0 0-3.65-2.07l-1.85-.98-1.8-1.06c-2.4-1.41-4.84-2.75-7.16-4.27-2.04-1.46-3.85-3.19-5.69-4.84-.45-.42-.93-.8-1.38-1.23-.43-.43-.88-.86-1.34-1.27a22.88 22.88 0 0 0-2.92-2.25l-3.06-1.96-.62-.4c-.11-.05-.2-.14-.33-.16l-.32-.17c-.43-.22-.85-.45-1.3-.6a8.04 8.04 0 0 0-5.3.01 7.2 7.2 0 0 0-1.1.52c-.19.1-.27.2-.37.3l-.29.35c-.44.7-.67 2-.75 3.14.08-.93.63-.4 1.54.38.88.77 1.37 1.92 1.43 2.03a9.75 9.75 0 0 1 1.33 2.7c0 .07-.04.1.02.2l.14.3.29.62c1.24 2.88 2.06 6.01 4.2 8.28a75.1 75.1 0 0 0 7.5 6.01c2.64 1.8 5.43 3.32 8.16 5l1.75 1.04 1.8.94 3.62 1.85 3.6 1.86 3.63 1.77c2.9 1.41 5.74 3.23 8.8 4.55z"/></g><g><path d="M434.63 267.52l.07.1c-.02-.05-.02-.1-.07-.1zM425.82 252.86l.15-.06a.26.26 0 0 0-.15.06zM412.34 258.29l-.07-.06c.02.04.05.05.07.06z"/><path d="M415.35 263.73a32 32 0 0 0 5.57 6.95c2.22 2.17 4.85 4.15 6.38 6.81.85 1.4 1.55 2.84 2.3 4.27.38.7.77 1.41 1.19 2.11.38.7.79 1.4 1.23 2.1a22.2 22.2 0 0 1 2.21 4.3c.56 1.5 1.15 3 1.55 4.58.21.75.5 1.47.82 2.19l.5 1.07.26.52.19.43c.51 1.14.82 2.51.59 4-.13.81-.36 1.63-.54 2.5-.05.2.15.88.4 1.54.27.69.6 1.37.81 1.58.19.2 1.1-1.16 1.34-1.51a21.73 21.73 0 0 0 2.24-3.82c.63-1.87.91-2.82.75-4.93-.07-.54-.14-1.13-.23-1.63l-.3-1.45c-.2-.97-.38-1.93-.55-2.9-.3-1.97-.7-3.9-.77-6-.07-1.7-.7-3.23-1.32-4.75-.6-1.54-1.39-3-1.87-4.56-.26-.85-.5-1.71-.74-2.58l-.8-2.54a23.65 23.65 0 0 0-2.1-4.87c-1.9-3.25-3.14-6.86-5.23-9.96l-1.59-2.25-.8-1.12-.93-1.15c-1.25-1.54-2.45-3.1-3.65-4.65-1.5-1.71-2.93-3.48-4.37-5.24-3.78-4.25-8.18-7.81-12.46-11.21a43.17 43.17 0 0 1-2.74-2.5l-2.64-2.55a27.55 27.55 0 0 0-5.71-4.49c-2.28-1.29-5.13-3.13-8.6-1.9-.85.3-1.72 1.27-2.38 2.2 1.08-1.53 1.13 3.27 1.19 3.53.37 1.61 1.2 2.78 1.82 4.14 1.17 2.64 1.89 5.48 3.71 7.36 1.9 1.98 4 3.69 6 5.4 1 .84 2.08 1.64 3.07 2.49l2.97 2.54 1.26 1.09 1.17 1.13 2.38 2.25c.83.72 1.47 1.56 2.2 2.35.7.8 1.4 1.6 2.09 2.43.73 1.02 1.38 2.12 2.06 3.21l1.02 1.64 1.05 1.85z"/></g><g><path d="M398.67 169.62l-.12.02c.05 0 .1.02.12-.02zM416.6 168.43l-.03.16c.04-.05.04-.1.04-.16zM420.5 154.3l.12-.02a.2.2 0 0 0-.12.01z"/><path d="M412.4 153.8c-1.82.05-3.63.22-5.42.5-1.78.32-3.54.8-5.27 1.38-1.78.58-3.5 1.38-5.24 2.05l-1.3.49-.66.23c-.23.07-.38.13-.74.23-.31.07-.65.2-1 .3-.33.12-.68.2-1 .36-.66.27-1.29.6-1.9.95-.33.19-.65.4-.9.56l-.69.47c-.4.28-.75.53-.99.68-.14.1-.23.14-.32.2l-.14.08-.33.17-1.32.7c-.88.46-1.76.94-2.62 1.44-.83.55-1.65 1.13-2.45 1.73-1.64 1.18-3.18 2.4-4.83 3.46-.82.54-1.6 1.14-2.42 1.69-.8.57-1.65 1.08-2.43 1.7a26.52 26.52 0 0 0-4.11 4.02c-.64.72-1.27 1.43-1.95 2.1-.64.7-1.32 1.35-2.07 1.94-.82.62-1.7 1.18-2.48 1.83-.4.32-1.43 2.77-1.44 3.38-.01.28 1.67-.18 2.12-.31 1.49-.44 3.58-1.2 4.55-1.65a28.76 28.76 0 0 0 4.48-2.65c1.7-1.3 3.47-2.46 5.27-3.54a30.43 30.43 0 0 1 4.28-2.02c.5-.17 1.02-.32 1.54-.46.84-.23 1.63-.55 2.38-.92.76-.36 1.52-.73 2.26-1.14a23.02 23.02 0 0 1 4.57-2.12l.65-.2.32-.1.16-.05.28-.1c.35-.15.76-.3 1.06-.44l.9-.42.73-.33.57-.23.2-.06h.12l.22.01c.15.04.27.04.4.08.05.02.13.04.24.05h.65c.93-.04 1.86-.12 2.79-.25 1.96-.32 3.95-.32 5.93-.32l2.96-.04c.98 0 1.96-.02 2.94-.1l2.89-.3 2.88-.2 2.89-.18c.96-.04 1.92 0 2.88.02 1.12.03 2.24.08 3.36.14 1.12.1 2.23.25 3.33.4 2.81.3 5.57.75 8.35 1.07 1.39.19 2.75.47 4.13.7l2.06.39c.69.14 1.38.32 2.07.49 2.5.62 4.75 1.66 6.89 2.69 1.05.52 2.05 1.08 3.09 1.54.95.55 2.01.94 3 1.36.53.23 1.1.48 1.72.71.62.22 1.17.53 1.84.71 1.36.33 2.7.6 4.52.17.88-.2 1.91-1.03 2.72-1.85-.67.67-.86-.16-.95-1.26-.08-1.08-.1-2.45-.13-2.6a8.65 8.65 0 0 0-1.05-2.36c-.45-.72-.92-1.5-1.42-2.18-.96-1.36-1.84-2.92-2.93-4.16a11.39 11.39 0 0 0-3.81-3.26c-6.43-3.35-12.8-4.35-19.5-5.56l-4.24-.54c-.71-.09-1.42-.18-2.13-.25l-2.13-.14-4.26-.3-4.24-.17c-.85-.05-1.7-.1-2.56-.17l-2.59-.1c-1.73-.06-3.5-.2-5.23-.14z"/></g><g><path d="M414.8 210.23l-.11.01c.05 0 .08.03.11 0zM431.63 208.6v.16a.26.26 0 0 0 0-.16zM431.68 194.13l.07-.05c-.04.01-.06.03-.07.05z"/><path d="M425.92 194.67c-1.32.12-2.6.4-3.9.7-1.31.28-2.6.72-3.93 1.22-1.37.48-2.74 1.1-4.15 1.58a16.4 16.4 0 0 1-4.32.92c-1.56.04-3.1.06-4.66.06-1.57.02-3.09.07-4.75.3-1.64.22-3.25.29-4.85.27-1.59 0-3.16-.09-4.76-.18-1.55-.07-3.06.14-4.57.3-1.5.15-3.06.35-4.52-.06-.78-.2-1.55-.5-2.31-.73-.38-.12-2.42.58-2.86.95-.2.16.85 1.2 1.15 1.47.98.9 2.56 2.11 3.4 2.52a12.5 12.5 0 0 0 4.33 1.42c3.73.63 7.35.9 10.94 2.3 1.44.56 2.92.69 4.4.75 1.48.06 3.08.07 4.58.37l4.99 1c1.68.28 3.38.5 5.08.41 3.64-.21 7.37.4 11.1-.26.91-.16 1.83-.32 2.74-.52l2.73-.69c1.81-.41 3.63-1.05 5.46-1.53 1.1-.27 2.02-.62 3.02-.91.99-.3 1.98-.6 2.98-.87 5.1-1.3 9.74-3.63 14.59-5.45 2.18-.85 4.41-1.48 6.66-2.12 2.23-.68 4.5-1.34 6.47-2.66 2.12-1.36 5.11-2.97 5.58-6.55.11-.87-.35-2.09-.88-3.1.86 1.67-3.33-.61-3.58-.7-1.54-.46-2.9-.32-4.33-.46-1.38-.13-2.74-.4-4.06-.55a10.3 10.3 0 0 0-3.83.05 55.26 55.26 0 0 0-7.32 2.5c-2.4.9-4.75 1.9-7.15 2.84-2.02.85-4.07 1.53-6.11 2.28l-3.07 1.09c-1.01.33-2.1.75-3.04.93-1.16.25-2.31.54-3.55.67l-3.7.44z"/></g></svg>