<svg xmlns="http://www.w3.org/2000/svg" viewBox="0 0 500 500"><path fill="#FFF" d="M164.97 385.72l.3.04c-.13-.04-.2-.12-.3-.04zM121.26 373.77l.19-.34c-.1.1-.16.22-.2.34zM97.33 401.5l-.4-.18c.18.12.3.17.4.18z"/><path fill="#FFF" d="M119.64 411.72c4.24 1.31 8.42 2.32 12.89 3.08 4.42.75 9 1.21 13.7 1.29 9.69.17 19.6-1.12 29.36-.46 5.74.44 12.32.25 18.66-1.77a72.18 72.18 0 0 0 4.68-1.86c1.49-.8 2.99-1.6 4.4-2.52 1.34-1.01 2.71-2 3.93-3.12.58-.59 1.16-1.18 1.72-1.78l.84-.9c.25-.3.6-.64.74-.87 2.95-4.1 6.27-7.78 9.41-11.45 1.6-1.82 3.27-3.6 4.9-5.38l4.94-5.34c3.2-3.42 5.7-7.35 8.32-11.17 2.61-3.77 5.32-7.48 8.8-10.48.47-.4.95-.79 1.43-1.17l.72-.57.37-.28.18-.14.23-.2 1.87-1.67.9-.83.72-.72c.23-.22.57-.85.86-1.57.22-.58.44-1.33.64-2.12.47-1.51.94-3.16.92-3.9 0-.34-.93-.36-2.03-.23-1.1.13-2.38.4-2.93.57-.85.27-1.82.63-2.83 1.04-1.03.45-2.06.98-3.07 1.46l-2.86 1.24c-.89.4-1.66.78-2.24 1.12-4.74 2.8-6.94 4.15-10.96 7.85-4.16 3.8-8.08 7.7-12.22 11.32-2.06 1.8-4.16 3.58-6.36 5.23a85.73 85.73 0 0 1-6.89 4.62 40.58 40.58 0 0 0-7.8 6.03l-1.17 1.13c-.27.2-.53.4-.78.62-2 1.72-4.21 2.98-6.93 3.01h-1.08c-.37-.02-.77-.1-1.15-.15l-1.12-.14-1.19-.28c-.4-.1-.76-.16-1.17-.28l-1.2-.38-2.89-.87a118.6 118.6 0 0 0-3.2-.9l-3.21-.9c-1.08-.29-2.16-.53-3.25-.78-1.1-.27-2.2-.5-3.3-.7-9.5-1.73-18.6-6.38-28.72-8.88-4.98-1.25-10.16-2.3-14.01-3.34a30.77 30.77 0 0 1-4.84-1.64 15.05 15.05 0 0 1-3.58-2.2 33.02 33.02 0 0 1-4.26-4.44c-.74-.94-1.47-1.86-2.2-2.93-.38-.54-.73-.98-1.13-1.6l-1.16-1.8c-8-11.87-16.34-23.5-22.94-36.2-6.03-11.5-7.84-24.55-14.27-36.4-.84-1.59-1.73-3.33-2.72-5.09a57.2 57.2 0 0 0-1.59-2.65 20.3 20.3 0 0 0-1.99-2.9 6.07 6.07 0 0 0-1.67-1.47c-.52-.3-.98-.27-1.55-.27a17.6 17.6 0 0 1-4.32-1.29c-1.67-.69-4.6-1.49-7.36-1.88 2.26.37.48 1.4-1.44 3.34-.96.95-1.96 2.11-2.66 3.13a14.02 14.02 0 0 0-1.25 2.05c-.78 2.26-.84 4.59-.9 6.65l-.06 1.5c-.03.47-.05.94-.06 1.48a64.02 64.02 0 0 1-.13 3.11c-.62 8.07-2.48 16-.22 23.66.6 2 1.26 3.99 1.95 5.96.34.98.68 1.96 1.06 2.94l1.2 2.92c1.64 3.87 3.3 7.73 5.33 11.45l2.98 5.6 1.52 2.79c.52.92 1.09 1.81 1.63 2.72 2.22 3.6 4.37 7.26 6.67 10.84 1.99 3 4 6 6.04 8.98.99 1.5 2.09 2.94 3.17 4.38l3.23 4.34 3.24 4.35c1.25 1.56 2.44 3.1 3.83 4.71a80.07 80.07 0 0 0 9.62 9.75 63.26 63.26 0 0 0 15.55 9.6 128.2 128.2 0 0 0 13.7 5zM135.84 208.28l.18-.02c-.08 0-.14-.07-.18.02zM110.89 206.64l.09-.38a1.1 1.1 0 0 0-.1.38zM101.22 240.98l-.18.03c.08.02.14 0 .18-.03z"/><path fill="#FFF" d="M113.03 243.84c2.66.3 5.33.3 8 .02 2.63-.36 5.26-1 7.84-1.96 2.63-1.04 5.26-2.32 7.83-3.44 2.56-1.13 5.14-2 7.7-2.22 5.6-.43 10.42-.27 15.8-1.5 5.35-1.26 10.64-.82 16.16-.44 2.69.15 5.33-.45 8.04-1.09 1.34-.3 2.68-.57 4.02-.7 1.36-.15 2.73-.2 4.12.03 1.49.23 2.97.76 4.53.98.78.13 4.24-2.43 4.79-3.51.24-.49-2.18-2.59-2.81-3.14a79.42 79.42 0 0 0-3.57-2.85c-1.2-.9-2.32-1.75-3.06-2.12-1.5-.76-2.58-1.3-3.66-1.71a17.43 17.43 0 0 0-3.65-.98c-6.09-.99-12.06-1.85-18.14-5.24-2.47-1.37-5-1.66-7.63-1.74-1.3-.04-2.6-.05-3.92-.12a21.17 21.17 0 0 1-3.99-.48c-.71-.16-1.44-.34-2.15-.53l-2.03-.57c-1.35-.4-2.7-.79-4.05-1.14a28.44 28.44 0 0 0-8-1.19c-2.78.03-5.61-.42-8.32-1a72.83 72.83 0 0 0-4.1-.73 26.16 26.16 0 0 0-4.04-.38l-7.95.05c-1.33.03-2.61-.06-3.92-.13-1.3-.09-2.6-.18-3.88-.37a61.63 61.63 0 0 1-8.85-2.1c-7.44-2.36-14.93-3.53-21.72-6.36-1.5-.67-2.9-1.54-4.26-2.48-1.31-.99-2.52-2.1-3.76-3.13-1.27-.98-2.38-2.13-3.65-3.02-.62-.45-1.27-.86-1.96-1.22a14 14 0 0 0-2.06-1.05c-.78-.32-1.6-.69-2.51-1-.8-.2-2.12-.8-4-1.39a22.3 22.3 0 0 0-1.6-.46l-.84-.2-.96-.19c-.62-.1-1.3-.22-1.86-.2a11.72 11.72 0 0 0-4.83 1.08c-1.03.52-1.98 1.1-2.87 1.95-1.74 1.66-2.67 4.88-3.22 7.73.22-1.17.63-1.43 1.1-1.15.22.14.47.38.69.77.22.4.44.87.62 1.38.36 1.03.57 2.27.66 3.25.08 1.01.07 1.76.1 1.9.19 1.62.28 2.82.54 4.07.21 1.21.63 2.48 1.05 3.88.76 2.7 1.35 5.65 2.25 8.4.95 2.62 2.2 5.04 4.13 6.74.99.92 2.06 1.64 3.14 2.4s2.18 1.47 3.3 2.16c1.1.71 2.26 1.28 3.42 1.84 1.17.57 2.34 1.11 3.52 1.63 4.74 2 9.62 3.5 14.45 4.87 2.06.65 4.12 1.1 6.18 1.57 2.06.47 4.12.93 6.16 1.29 2.06.36 4.04.8 6.15 1.15 2.11.36 4.21.74 6.31 1.17 2.5.43 5.01.98 7.57 1.56 2.53.52 5.08 1 7.65 1.36zM257.29 235.24l-.15.05c.07 0 .13.05.15-.05zM279.84 230.46l.06.39c0-.14-.02-.28-.06-.4zM274.31 195.3l.1-.1c-.06.01-.09.05-.1.1z"/><path fill="#FFF" d="M265.9 195.99a17.9 17.9 0 0 0-5.23 1.8c-.85.43-1.66.95-2.48 1.52-.85.55-1.68 1.17-2.5 1.86-1.68 1.43-3.32 3.13-5.03 4.62-1.71 1.5-3.5 2.78-5.43 3.25-2.06.52-4.13.9-6.18 1.4-1.03.25-2.05.53-3.07.88-1.02.34-2.03.67-3.03 1.13a22.34 22.34 0 0 1-6.15 1.73c-1.04.15-2.09.24-3.14.31-1.06.06-2.11.02-3.18.02-2.05-.02-4.04.77-6.05 1.46-1 .34-2.01.66-3.03.83-.47.08-1.14.16-1.71.17-.6.01-1.2-.02-1.81-.13-1.27-.21-2.73-.67-3.8-.94-.57-.14-3.05 2.35-3.47 3.42-.2.48 1.68 2.62 2.2 3.18 1.7 1.84 4.36 4.2 5.55 4.97 1.24.74 2.1 1.27 2.95 1.66.89.4 1.84.67 3.1.86 5.26.75 10.4 1.28 15.93 3.81 4.51 2.12 8.75-.06 13.13.4 4.77.56 9.84 2.15 14.38 1 2.43-.58 4.96-.61 7.5-.67a29.3 29.3 0 0 0 7.6-1.1c2.42-.77 4.8-1.65 7.16-2.54a74.2 74.2 0 0 1 6.98-2.63c2.76-.86 5.63-1.52 8.39-2.21a81.03 81.03 0 0 0 10.29-3.33c3.29-1.34 6.54-2.75 9.9-3.9a20.92 20.92 0 0 1 4.59-1.03c1.48-.18 3.14-.33 4.73-.51 3.31-.43 6.71-1.05 9.95-3.2l1.32-.86c.47-.32.94-.66 1.42-1.01.94-.73 1.86-1.5 2.68-2.59a10.63 10.63 0 0 0 1.89-3.76c.4-1.52.53-3.27.23-5.29-.29-1.97-1.9-4.8-3.47-7.18 1.3 1.96-.28 1.45-2.13.34-1.86-1.1-3.94-2.82-4.18-2.98a20.1 20.1 0 0 0-3.63-1.73c-1.1-.4-2.19-.78-3.28-1.3-2.09-.99-4.28-2.42-6.23-3.52-2.05-1.12-3.85-1.96-5.6-1.88a32.4 32.4 0 0 0-5.43.75 68.98 68.98 0 0 0-5.37 1.52c-3.36 1.11-6.64 2.5-9.97 3.76-5.61 1.91-11.1 4.55-16.75 5.88-3.4.86-7.07 1.23-10.54 1.76zM254.1 350.85l-.34.16c.15-.04.28-.03.33-.16zM288.2 316.8l.27.32a.59.59 0 0 0-.27-.31zM263.48 290.37l.06-.21c-.06.08-.07.15-.06.21z"/><path fill="#FFF" d="M253.37 302.23a72.23 72.23 0 0 0-5.41 8.7 42.74 42.74 0 0 0-2.9 6.58c-.32.9-.58 1.92-.9 2.73l-.13.34c-.06.12-.2.26-.3.39l-.67.8c-.45.53-.9 1.09-1.52 1.58-.58.5-1.15 1.02-1.78 1.5-.68.46-1.38.9-2.08 1.33-.69.43-1.5.79-2.3 1.13-.79.34-1.57.66-2.46.9-3.6 1.08-7.57 1.93-11.7 3.09l-1.55.44-1.46.44c-.9.28-1.8.58-2.7.88-1.77.56-3.55 1.24-5.29 1.86a35.33 35.33 0 0 1-10.59 2.28c-1.76.15-3.5.08-5.23 0-.87-.04-1.72-.17-2.58-.26l-2.9-.31c-4.06-.44-8.23-.09-12.26.22-3.94.39-7.87.67-11.76-.1-1.03-.21-1.87-.51-2.8-.8-.47-.13-.87-.31-1.26-.48l-1.2-.48c-.44-.1-1.5.1-2.79.52-1.18.34-2.46.71-3.02 1.08-.25.16-.07.95.31 1.84.38.87.95 1.88 1.25 2.26a21.58 21.58 0 0 0 3.94 3.95 20.92 20.92 0 0 0 4.24 2.68c4.38 1.88 6.4 2.7 10.92 3.44 2.36.35 4.58.81 6.82 1.24 2.24.43 4.46.88 6.65 1.4l3.65.86 1.92.48 1.92.41 7.88 1.76c4.34.99 8.68.53 12.86-.21 2.05-.42 4.13-.85 6.13-1.31l1.51-.31a31.74 31.74 0 0 1 4.1-.55c3.95-.23 8.23-.2 12.8-.58a44.3 44.3 0 0 0 14.61-3.58l2.03-.94 1.02-.46c.35-.17.79-.4 1.17-.61.8-.43 1.62-.84 2.38-1.3l2.24-1.38a62.36 62.36 0 0 0 18.08-18.26c1.2-1.9 2.3-3.76 3.28-5.4l.72-1.2.7-1.12 1.81-2.84 2.14-3.35 1.88-3.26.95-1.62.85-1.55 1.75-3.08a152.3 152.3 0 0 1 7.61-12.47c.81-1.07 1.58-2.13 2.33-3.22.77-1 1.52-1.91 2.23-2.9l3.09-4.07a82.62 82.62 0 0 0 3.06-4.28l2.92-4.32 2.75-4.33 1.38-2.16 1.31-2.16 2.68-4.27c1.25-2.04 2.63-4 4.06-5.92 1.4-1.9 2.84-3.75 4.3-5.6 1.43-1.84 2.85-3.65 4.23-5.51a99.8 99.8 0 0 0 2-2.77l.95-1.4.46-.71.23-.36.44-.73c.51-1 1.06-2 1.55-3.03.5-1.03.86-2.12 1.24-3.2.18-.53.33-1.07.48-1.6l.17-.67.08-.33c.03-.11.06-.2.06-.26l.08-.4c.02-.1.07-.33.05-.3-.01-.03-.03-.1-.06-.1-.1-.04-.22-.12-.3-.2a2.22 2.22 0 0 1-.36-.43c.23-.37.45-.7.68-1.11.25-.45.48-.9.71-1.34.47-.9.89-1.81 1.22-2.76a22.35 22.35 0 0 0 1.34-5.65c.39-3.76-.46-7.32-2.37-10.1-1.5-2.09-4.66-2.94-7.5-3.31 2.32.27.81 2.23-1.55 3.6-1.16.7-2.55 1.24-3.6 1.59-1.12.33-1.94.5-2.08.56-2.72 1.08-4.68 2-6.84 2.68-1.04.55-2.01 1.2-3.08 1.84a23 23 0 0 0-3.55 2.85c-.58.53-1.09 1.1-1.62 1.68-.53.57-1.06 1.25-1.51 1.72l-.66.57-.58.32a9.92 9.92 0 0 1-2.87.27c-.08-.01-.13-.07-.22-.04l-.36.24-.72.5c-.47.34-.92.7-1.36 1.07a18.9 18.9 0 0 0-2.43 2.44c-8.72 10.64-14.56 22.08-21.62 32l-1.11 1.6-1.15 1.52-2.26 3.07-3.1 4.32-.78 1.1-.68 1.1-1.37 2.17c-3.55 5.76-6.33 11.16-9.11 15.78a87.01 87.01 0 0 1-2.54 3.89l-1.3 1.74c-.43.56-.87 1.21-1.3 1.67l-1.31 1.5-1.6 1.92a103.41 103.41 0 0 0-3.8 4.93z"/><g><path fill="#FFF" d="M403.41 268.2l.1.07c-.03-.05-.02-.12-.1-.06zM392.08 256.4l.33-.23c-.13.06-.23.14-.33.23zM362.04 275.3l-.12-.07c.02.06.07.08.12.08z"/><path fill="#FFF" d="M366.98 283.69a21.52 21.52 0 0 0 4.86 4.43c1.9 1.2 3.98 2.18 6.25 2.84 2.4.63 4.92.98 7.26 1.46 2.4.41 4.65.9 6.48 2 1.96 1.15 3.93 2.24 5.9 3.3.98.55 2.08.95 3.17 1.32 1.1.37 2.21.68 3.37.9.58.1 1.14.24 1.7.38.55.14 1.11.25 1.65.4 1.1.28 2.14.63 3.17 1.02 1.03.38 2.03.89 3.06 1.27 1.03.39 2.05.8 3.09 1.23 1 .4 2.05.61 3.13.73l.2.02.27.02.53.02 1.07.02 2.09.02c1.38.02 2.7.06 4.01.24.33.04.66.1.98.16.33.08.66.14.99.16.66.09 1.34.11 2.02.18 1.47.1 2.91.13 4.35-.1.18-.02.48-.29.84-.68l.55-.68c.18-.25.46-.54.4-.78l.04-.39-1.44-4.24-.01-.02-.02-.04-.03-.07-.04-.16-.07-.34v-.04.1l-.02.12v-.04l.02-.1c0-.04-.01-.14 0-.07 0 .08 0 .05.07.37l.05.17-.06-.2-.25-.2-.32-.26-.42-.24-.84-.47-1.55-.9c-.96-.56-1.78-1.15-2.31-1.47-1.08-.63-1.8-1.4-2.43-2.05a10.3 10.3 0 0 0-2-1.6c-.81-.5-1.57-.95-2.27-1.42-.92-.59-1.85-1.21-2.73-1.88a20 20 0 0 1-2.52-2.24c-.75-.9-1.45-1.91-2.06-3.05a6.45 6.45 0 0 0-1.72-2.09c-.64-.54-1.3-1-2-1.38-.69-.4-1.4-.75-2.1-1.16-.33-.2-.67-.4-.97-.67-.31-.29-.6-.6-.86-.94-2.32-2.96-3.69-6.76-6.36-8.71-.7-.54-1.33-1.19-1.9-1.88-.3-.35-.58-.69-.83-1.07l-.74-1.17a21.85 21.85 0 0 0-3.25-4.27 41.6 41.6 0 0 0-2.02-1.72c-.7-.55-1.34-1.19-2.01-1.78a67.7 67.7 0 0 1-1.98-1.86c-.62-.66-1.19-1.38-1.73-2.1-.62-.87-1.26-1.71-1.8-2.65-.52-.94-1.02-1.9-1.5-2.88-2.42-5.01-5.8-9.34-7.59-13.94-.8-2.09-.58-4.41-.38-6.5.18-2.12.45-3.97-.46-5.67-.49-.92-.81-2-1.97-3.08a9.44 9.44 0 0 0-2.42-1.64 26.8 26.8 0 0 0-4.34-1.7c-1.8-.55-5.04-.92-7.9-1.09 2.35.15 1.06.8-.88 1.57-1.95.75-4.5 1.69-4.72 1.82a13.17 13.17 0 0 0-3.2 2.54c-.8.9-1.51 1.84-2.39 2.8-1.63 1.88-3.56 3.86-4.99 5.93-1.48 2.08-2.5 4.23-2.54 6.36-.03 4.44 1 8.62 2.47 12.46a84.35 84.35 0 0 0 5.27 10.78 95.47 95.47 0 0 0 5.19 8.2l5.61 8.06c.55.82 1.08 1.67 1.6 2.54l1.66 2.59c1.14 1.73 2.2 3.54 3.57 5.15z"/></g><g><path fill="#FFF" d="M91.26 265.47l.18.04c-.07-.04-.1-.12-.18-.04zM65.24 254.6l.22-.34a.72.72 0 0 0-.22.33zM49.19 286.22l-.03.04c.01.01.02 0 .03-.04z"/><path fill="#FFF" d="M56.26 290.88a40.15 40.15 0 0 0 8.11 2.89c2.86.63 5.74 1.05 8.82 1.04 1.57 0 3.15-.05 4.72-.12 1.58-.08 3.19-.22 4.75-.28 3.12-.1 6.2-.13 9.1.54 1.52.38 3.06.71 4.6 1.05 1.54.34 3.07.7 4.62.99 1.56.25 3.12.48 4.7.63.79.08 1.58.15 2.38.19.8.01 1.6 0 2.41-.03 1.63-.07 3.22-.04 4.79.07l2.98.11c.52.04.96.03 1.41.02l1.36-.01 4.84-.07c1.53-.05 2.75.1 4.1.18 1.27.1 2.54-.02 3.82-.23 1.33-.14 2.69-.32 4.05-.5 1.37-.15 2.69-.34 4.1-.27a14.68 14.68 0 0 1 6.3 1.6c.74.32 1.49.66 2.24.95.74.3 4.8-1.42 5.64-2.34.38-.42-1.6-3.01-2.15-3.7-1.81-2.25-4.56-5.26-6.08-6.27a40.67 40.67 0 0 0-3.8-2.37c-.58-.3-1.16-.56-1.81-.8-.66-.23-1.39-.44-2.24-.64l-5.25-1.23c-1.8-.32-3.61-.62-5.44-1a83.9 83.9 0 0 1-2.76-.62c-.87-.2-1.72-.4-2.6-.63a29 29 0 0 1-2.3-.84 18.9 18.9 0 0 1-1.91-1.14c-.4-.37-.77-.68-1.13-.91l-.3-.17-.45-.21a24.74 24.74 0 0 0-4.69-1.33c-1.27-.21-2.55-.54-3.81-.84-1.26-.34-2.5-.7-3.68-1.31-2.54-1.38-5-2.87-7.45-4.42a49.22 49.22 0 0 0-3.72-2.06 23.07 23.07 0 0 0-3.89-1.61c-5.72-1.8-10.6-5.86-16.32-7.97l-9.1-3.17c-1.02-.33-1.95-.65-3.02-.98l-3.55-.97a41.77 41.77 0 0 0-4.03-.77l-1.27-.18-.68-.1c-.09-.02-.03-.02-.03-.02h.02l-.03.17a76.9 76.9 0 0 1-.81 3.26l-.46 1.61-.17.77a20.1 20.1 0 0 1-.96 3.02l-.32.73v.47a4.44 4.44 0 0 1-.5 1.8c-.14.39-.33.26-.5.33l-.54.1-.27.06-.14.03-.06.01h-.04l-.02.01 10.18-9.04-.81-.95c-.3-.33-.47-.58-.7-.86-.22-.28-.45-.57-.59-.8l-.47-.7-.3-.58c-.03-.05-.08-.12-.08-.15v-.07c0-.05 0-.1-.02-.14-.05-.06 0-.18-.04-.25-.05-.06-.01-.17-.05-.23-.03-.07-.04-.15-.05-.23-.02-.04-.03-.23-.08-.39l-.33-1.58-.71-3.2c-.95-4.4-1.94-8.86-2.67-13.5-1.35-8.37.84-17.38-2.52-26.12-.86-2.28-1.9-5.13-3.63-7.56a13.46 13.46 0 0 0-8.76-5.45c-2.03-.37-5.18.43-7.88 1.39 2.22-.79 1.42.9 0 2.74-1.42 1.86-3.47 3.85-3.64 4.08a23.65 23.65 0 0 0-2.23 4.06c-.57 1.32-1.03 2.6-1.68 3.9-1.22 2.46-2.88 4.93-4.2 7.3-1.32 2.36-2.33 4.64-2.44 7-.35 9.7 1.76 19.1 3.74 29.26l.7 3.3.36 1.63.24 1.08.33 1.36a36.3 36.3 0 0 0 5.06 11.04c1.18 1.81 2.18 3.01 3.18 4.24l1.45 1.68 1.34 1.48 1.22 1.31.3.32.02.03 1.74 1.63.04.03.08.07.15.12.3.25.2.17a26.08 26.08 0 0 0 4.65 2.84l.62.28.55.24c.77.3 1.56.56 2.34.81l.6.19.46.12.84.2.85.2.7.16c2.24.44 3.03.62 2.88.72l.02.04.1.09c.09.06.13.1.27.18l.36.21.19.1.25.15 1.09.64 1.37.79.75.41.85.46 1.93.98z"/></g><g><path fill="#FFF" d="M112.05 148.57h.18c-.08-.01-.13-.07-.18 0zM86.77 143.25l.15-.28a.72.72 0 0 0-.15.28zM71.17 167.54l-.2-.03c.09.04.15.05.2.03z"/><path fill="#FFF" d="M83.87 173.16a41.8 41.8 0 0 0 18.21 1.49c1.57-.24 3.13-.55 4.67-.86l4.59-1.05c3.03-.7 6-1.3 9-1.47 3.17-.06 6.38-.35 9.54-.62 3.2-.5 6.38-.94 9.52-2.16 3.26-1.1 5.93-2 8.82-2.71a102 102 0 0 1 4.33-.97l4.42-.95c5.75-1.13 10.69-5.12 16.59-5.9 1.57-.28 3.2-.39 4.82-.61.8-.12 3.9-3.08 4.3-4.08.18-.45-2.64-1.43-3.4-1.69-2.52-.82-6.12-1.8-7.81-1.9-3.44-.27-5.06-.5-8.29.03-3.31.57-6.65.98-10 1.24-3.32.29-6.75.25-10.3-.27a18.23 18.23 0 0 0-4.18-.08c-1.24.03-2.44.2-3.65.4-1.18.23-2.44.36-3.69.45-1.25.07-2.47.17-3.74-.02-1.38-.21-2.74-.46-4.09-.72-1.34-.25-2.72-.65-4.06-.93-.67-.15-1.34-.28-2-.4a30.15 30.15 0 0 0-4.03-.7 23.6 23.6 0 0 0-2.03-.21c-5.79-.35-11.18-2.84-16.62-3.9-5.4-1.06-10.82-2.13-15.67-4.34l-1.07-.47-1.01-.54-2.02-1.1a54.2 54.2 0 0 1-3.74-2.52 103.99 103.99 0 0 1-8.3-6.93l-1.82-1.86c-.6-.64-1.18-1.38-1.77-2.06-.56-.72-1.1-1.45-1.65-2.2-.5-.78-1.03-1.53-1.5-2.34-1.71-2.92-2.56-6.33-3.32-9.78-.77-3.46-1.47-6.97-3.06-10.45-1.7-3.68-3.27-9.12-9.95-11.34-1.63-.53-4.22-.21-6.45.31 3.65-.87-2.82 5.7-3.07 6.17-1.62 2.64-1.94 5.23-2.77 7.9-1.6 5.15-4.01 10.44-2.91 15.73a55 55 0 0 0 6.31 16.08 70.05 70.05 0 0 0 7.93 11l3.2 3.43a71.59 71.59 0 0 0 12.17 9.75l1.6 1.05c.54.34 1.09.64 1.63.96l3.27 1.89 3.3 1.7 1.66.87 1.67.78c1.33.61 2.65 1.32 4 1.92l4.06 1.85c2.74 1.13 5.53 2.29 8.36 3.13z"/></g><g><path fill="#FFF" d="M266.56 171.7l-.21.03c.1 0 .16.04.2-.04zM295.14 167.02l.02.32a.6.6 0 0 0-.02-.32zM293.6 138.32l.13-.07c-.06 0-.1.03-.12.07z"/><path fill="#FFF" d="M283.55 139.38a47.8 47.8 0 0 0-3.5.7 46.91 46.91 0 0 0-7.06 2.39c-1.16.5-2.41 1.1-3.46 1.7-3.53 2.35-8.09 5.23-12.85 5.62-5.08.28-10.1-.12-15.2.33-2.52.15-5.06 0-7.28-.55l-.86-.2c-.3-.07-.51-.1-.96-.24l-2.13-.6-3.94-1.16c-2.5-.76-5.12-.89-7.68-1.16-2.56-.27-5.1-.7-7.17-1.98a17.48 17.48 0 0 1-2.82-2.32c-.19-.18-1.03-.16-1.68.01-.13.06-.34.1-.44.19l-.16.13-.05.03-.12.11-.36.42a8.48 8.48 0 0 1-1.1 1.02 3.82 3.82 0 0 1-1 .76c-.19.1-.01.02.33-.2.16-.1.37-.26.57-.46.06-.05.09-.1.18-.16l.12-.1-.02.03-.13.17c-.38.47-.31 1.27-.28 1.59.27 2.2 2.3 5.42 3.48 6.55 2.43 2.34 3.67 3.35 6.57 4.67 3 1.35 6 2.52 8.93 3.85 1.45.67 2.91 1.38 4.24 2.17.33.2.66.4.92.6.1.1.33.21.52.33l.6.34c.8.47 1.6.96 2.4 1.48 1.34.9 2.67 1.38 4.07 1.8 1.39.41 2.83.72 4.23.86 1.41.17 2.83.31 4.24.5 1.4.13 2.79.3 4.16.63 5.96 1.34 12.04 3.22 18.46 2.46 1.66-.14 3.45-.35 5.23-.48l4.82-.3c1.46-.1 2.97-.19 4.48-.34 1.48-.15 3-.38 4.51-.73 5.95-1.4 12.04-3.4 18.42-5.42 1.86-.53 3.75-1.25 5.64-1.86 1.9-.65 3.8-1.4 5.72-2.11a60.65 60.65 0 0 0 13.67-7.9c1.03-.82 2.04-1.67 3.06-2.52l1.5-1.28 1.43-1.36 2.83-2.72 2.64-2.83c.49-.52.98-1.02 1.49-1.51.46-.51.93-1.02 1.42-1.52l1.46-1.48 1.6-1.6a85.08 85.08 0 0 0 2.32-3.1c.42-.55.67-1 .96-1.49l.83-1.4.78-1.37.61-1.23c.4-.82.83-1.69 1.16-2.48a32.2 32.2 0 0 0 2.55-9.47c.12-1.21.24-2.52.3-3.9.02-.7.02-1.42 0-2.14l-.02-.27c0-.08 0-.22-.03-.2l-.08-.13a3.7 3.7 0 0 0-.24-.27c-.72-.77-2.06-1.8-4.06-4.22-1-1.15-3.03-2.83-4.91-4.13 1.54 1.1.26 1.2-1.63 1.4-.9.11-1.95.25-2.83.4-.89.15-1.48.34-1.61.4-.7.32-1.34.73-1.93 1.2-.57.46-1.05 1-1.53 1.57l-.7.88c-.22.26-.42.46-.63.7-.4.44-.83.87-1.28 1.29-3.57 3.23-8.1 5.65-9.93 8.37-.25.34-.5.7-.72 1.04l-.17.26c-.06.08-.1.12-.16.17l-.3.32c-.37.53-.55.32-.63.41l-.27.25-.34.35-.7.74-1.34 1.5c-.92.95-1.84 1.87-2.71 2.84l-2.78 2.66-2.93 2.41-1.8 1.26-.89.64-.94.58-1.87 1.18-1.99 1.06-.99.53-1.06.47-2.12.94c-1.51.52-2.94 1.11-4.57 1.51-3.77 1.06-8.06 1.43-12.51 2.12z"/></g><g><path fill="#FFF" d="M255.81 144.2l-.16.07c.08 0 .14.02.16-.06zM279.52 136.35l.08.31a.69.69 0 0 0-.08-.3zM273.54 108.34l.11-.1c-.06.03-.1.06-.1.1z"/><path fill="#FFF" d="M264.22 110.73c-3.86 1.16-7.27 3.3-10.8 6-3.53 2.86-6.85 6.65-11.13 8.1-4.46 1.56-8.97 2.57-13.24 4.68-4.3 2.11-8.82 2.8-13.37 3.24-1.1.11-2.17.38-3.22.68-1.05.3-2.1.7-3.15 1-1.05.3-2.12.63-3.17.74a8.37 8.37 0 0 1-3.15-.1c-.55-.12-1.1-.3-1.63-.49-.53-.2-1.02-.45-1.52-.64-.23-.12-1.06.3-1.8.67-.78.41-1.63.94-1.95 1.3-.32.33.91 2.4 1.34 2.96.64.95 1.58 1.9 2.53 2.79.95.9 1.93 1.58 2.6 1.92.67.33 1.27.63 1.83.87.55.23 1.06.42 1.58.58 1.03.32 2.08.54 3.5.61 5.88.4 11.48.01 17.6 1.42 5 1.12 9.39-1.36 14.1-1.58 2.57-.1 5.17-.07 7.73-.18a39.5 39.5 0 0 0 3.79-.32c1.26-.2 2.51-.5 3.73-.9 2.58-.86 5.3-1.3 8.02-1.77l2.04-.35 2.04-.52c1.35-.37 2.7-.8 3.99-1.35a122 122 0 0 0 3.8-1.66l3.5-1.77a82.78 82.78 0 0 1 15.27-6.1c.78-.23 2-.67 3.08-1.08 1.1-.41 2.2-.84 3.19-1.32 1-.48 2.04-.96 2.98-1.46l2.79-1.52c3.57-2.03 6.76-4.04 9.82-5.6 2.79-1.4 5.37-1.75 8.43-2.33 2.85-.46 5.3-.73 7.23-1.7.48-.2 1.03-.43 1.59-.73.49-.2 1-.51 1.53-1.01.48-.4.97-.98 1.55-1.86a37.1 37.1 0 0 0 1.92-3.25 28.78 28.78 0 0 0 2.03-6.1c-.44 1.83-.98.73-1.7-.94-.36-.82-.76-1.83-1.12-2.57-.36-.73-.65-1.3-.73-1.4a10.34 10.34 0 0 0-3-2.63c-1.1-.63-2.26-1.17-3.46-1.8l-3.5-1.73a35.02 35.02 0 0 0-5.45-2.06 17.5 17.5 0 0 0-1.79-.35c-1.19-.16-2.44-.2-3.53 0a44.25 44.25 0 0 0-10.1 3.02c-1.08.46-2.07.95-3.1 1.45-3.99 1.99-7.41 4.13-10.6 5.86a97.83 97.83 0 0 1-7.34 3.7c-3.17 1.33-6.48 2.69-9.78 3.87-2.02.71-3.94 1.3-5.93 1.9l-2.97.9c-.97.29-2 .65-2.9.9z"/></g><g><path fill="#FFF" d="M126.2 119.2l.15.05c-.06-.04-.09-.1-.15-.04zM105.7 110.48l.16-.27a.78.78 0 0 0-.17.27zM89.5 134.08l-.15-.03c.07.04.11.04.16.03z"/><path fill="#FFF" d="M98.14 139.35a28.8 28.8 0 0 0 6.37 2.27c2.2.53 4.5.8 6.86.82 2.42.03 4.91-.18 7.34-.26 2.42-.06 4.78 0 6.98.6 2.32.66 4.6 1.36 6.92 1.98l1.74.44c.57.14 1.28.26 1.92.38.65.11 1.31.21 1.97.3.66.08 1.27.09 1.9.11 5.1.18 9.59 1.3 14.34 2.5 4.62 1.06 9.53-.52 14.17.94 1.26.39 2.46 1 3.77 1.42.68.2 4.1-1.4 4.7-2.18.27-.35-1.59-2.31-2.06-2.83-.81-.85-1.8-1.82-2.71-2.7-.9-.92-1.76-1.72-2.35-2.11-2.37-1.58-3.43-2.36-5.92-3.16a93.05 93.05 0 0 1-7.56-2.68 29.46 29.46 0 0 1-7.11-4.2 15.24 15.24 0 0 0-5.83-2.68c-1-.27-1.87-.53-2.8-.83a14.1 14.1 0 0 1-2.9-1.33 77.12 77.12 0 0 1-3.02-1.94c-.99-.68-1.97-1.37-2.97-2.02-2-1.29-4-2.5-6.19-3.23-4.67-1.56-8.59-4.9-13.16-6.53-4.5-1.67-9.17-2.96-13.47-5.06a96.04 96.04 0 0 1-3.72-1.9c-1.21-.7-2.4-1.42-3.59-2.16-5.92-3.77-12.29-6.63-18.02-10.53a29.75 29.75 0 0 1-3.56-3.02c-1.12-1.09-2.13-2.29-3.19-3.42-1.06-1.12-2.1-2.26-3.2-3.3a21.49 21.49 0 0 0-3.66-2.71l-1.22-.72-.15-.1-.32-.22-.66-.46-1.35-.92c-.61-.35-1.23-.7-1.84-1.03l-.93-.49c-.32-.14-.66-.24-.99-.35a11.12 11.12 0 0 0-4.07-.67c-2.75.05-5.4 1.24-7.33 3.37-1.25 1.42-1.66 4-1.8 6.29.09-1.88 1.3-.82 2.19.74.44.78.78 1.7.99 2.45.2.77.28 1.38.32 1.48a20.9 20.9 0 0 1 1.3 5.8 6.82 6.82 0 0 1-.03 1.22c0 .13-.05.21-.02.36l.07.44.28 1.76c.19 1.19.38 2.37.65 3.47.52 2.23 1.27 4.3 2.6 5.87 5.7 6.47 13.01 10.67 20.22 14.83 6.14 3.55 12.56 6.48 18.8 9.69 1.85 1 3.7 2.04 5.58 3.12a82.68 82.68 0 0 0 5.72 3.1z"/></g><g><path fill="#FFF" d="M443.09 262.75l.07.1c-.01-.06.02-.12-.07-.1zM434.11 247.2l.35-.18c-.13.04-.25.11-.35.19zM403.51 265.02l-.08-.03c.01.04.04.04.08.03z"/><path fill="#FFF" d="M405.2 270.27c1.34 2.53 3.47 4.44 6.69 5.77 3.22 1.36 7.47 2.3 9.11 4.75.91 1.28 1.59 2.65 2.4 3.96a19.58 19.58 0 0 0 2.9 3.72 10.44 10.44 0 0 1 2.65 3.87 22.61 22.61 0 0 1 1.3 4.4c.14.73.48 1.38.9 2.02.22.31.47.67.68.86l.6.63c.4.38.68.82.84 1.28.06.24.1.47.08.73-.03.27-.1.59-.25.9-.16.35-.4.74-.63 1.1-.24.38-.5.83-.7 1.24-.11.17.37.94 1.01 1.63a7.26 7.26 0 0 0 1.98 1.73c.46.18 2.78-1.33 3.4-1.68 2.03-1.22 4.73-2.86 5.56-3.84.83-.96 1.44-1.74 1.82-2.6.41-.86.62-1.74.68-2.96 0-.61 0-1.27-.03-1.87-.04-.58-.08-1.16-.1-1.66-.04-1.05-.06-2.1-.03-3.2a25.1 25.1 0 0 1 1.05-6.95c.65-2.08.12-3.73-.5-5.36-.62-1.64-1.5-3.13-1.67-4.94-.1-.97-.15-1.98-.19-3-.06-1-.12-2-.23-3-.21-1.98-.6-3.91-1.59-5.47-2.05-3.36-2.31-7.76-4.64-10.9a54.28 54.28 0 0 0-1.79-2.25l-.93-1.1-1.12-1.25c-1.53-1.69-3-3.4-4.37-5.16a85.4 85.4 0 0 1-4.7-6.04c-3.89-5-9.06-8.53-13.49-12.2-1-.85-1.86-1.89-2.67-2.95-.8-1.04-1.56-2.14-2.34-3.21-1.59-2.18-3.24-4.08-5.64-5-.64-.24-1.31-.54-2.05-.77a7.3 7.3 0 0 0-2.42-.34c-1.81.06-4.07.85-7.09 3.31-1.47 1.2-3.46 3.77-5.1 6.11 2.7-3.85-.62 5.76-.72 6.25-.58 2.97-.16 4.73-.2 7.02-.11 4.42-1.1 9.62.26 11.96 1.4 2.45 3.27 4.3 5.04 5.94.9.82 1.91 1.57 2.82 2.32.9.76 1.79 1.5 2.68 2.27l1.15.96 1.04.96 2.13 1.88c.77.61 1.29 1.28 1.9 1.95.6.67 1.18 1.35 1.72 2.06.56.88.93 1.86 1.34 2.83a44.27 44.27 0 0 0 1.47 3.3z"/></g><g><path fill="#FFF" d="M399.94 179.24l-.12.03c.06 0 .1.06.12-.03zM416.8 178.47l-.03.4c.03-.14.03-.28.03-.4zM420.6 143.2l.12-.05c-.06-.02-.1 0-.12.04z"/><path fill="#FFF" d="M411.86 141.73a19.8 19.8 0 0 0-5.8.8 20.75 20.75 0 0 0-5.47 2.7c-.9.63-1.8 1.3-2.66 2.04l-1.3 1.08-.64.53c-.22.18-.4.34-.8.54-1.39.74-2.72 1.46-4.02 2.1-1.28.67-2.54 1.34-3.77 2.05a34.04 34.04 0 0 0-3.51 2.3l-.15.1-.07.06h-.01l.63 1.1v.02l.05.07.1.16c.27.43.52.87.75 1.32l.34.68.15.35.08.17.04.09.01.04v.01c-.97-1.76 2.2 3.98-2.17-3.95l-.32.17-1.22.71a24.02 24.02 0 0 0-5.02 3.89c-.42.42-.84.82-1.27 1.2-.42.39-.79.76-1.2 1.1-.8.7-1.65 1.33-2.52 1.92-.87.59-1.7 1.21-2.6 1.77-.88.59-1.82 1.1-2.68 1.72-1.69 1.17-2.9 2.93-4 4.71-.57.88-1.15 1.73-1.82 2.48a7.59 7.59 0 0 1-2.3 1.94c-.99.52-2.16.88-3.18 1.41-.51.27-.67 3.68-.22 4.7.2.46 2.98.88 3.7 1 2.44.34 5.7.69 7.01.6 2.64-.24 3.76-.36 5.64-1.27a38.97 38.97 0 0 1 5.75-2.52 16.72 16.72 0 0 1 4.85-.74c.6.02 1.2.08 1.82.17 1 .15 1.85.07 2.6-.15a8.31 8.31 0 0 0 1.99-.74l.9-.5.46-.25.6-.26a9.74 9.74 0 0 1 2.63-.74l.76-.08.39-.03h.1l.04-.01h.04l-.33.16.44-.14.9-.3c.3-.1.65-.24.7-.22.24-.02.56-.1.72-.08.45.2.85.41 1.22.66.36.25.67.53.92.73.13.1.24.16.35.2l.07.03c.05 0 0 .02.15 0 .22-.01.44-.04.66-.08 1.86-.35 3.77-.04 5.66.25.94.14 1.88.26 2.8.34.93.1 1.84.12 2.74 0 .9-.13 1.79-.29 2.68-.46l2.65-.42c.9-.14 1.78-.27 2.68-.37a21.8 21.8 0 0 1 2.65-.07c1.03.04 2.06.1 3.09.21 1.01.14 2.02.35 3.02.58 2.54.51 5 .9 7.54 1.12 1.25.14 2.48.36 3.72.54l1.86.31c.62.13 1.28.3 1.9.48 2.33.63 4.1 2.15 5.65 3.48.75.67 1.38 1.31 2.11 1.76a3.55 3.55 0 0 0 2.05.8c.38.03.79.1 1.27.08.5-.03.9-.05 1.56-.28 1.33-.49 3-1.46 6.16-3.72a53.81 53.81 0 0 0 5.92-5.37c-1.65 1.68-1.23.37-.54-1.56.72-1.92 1.65-4.5 1.69-4.76.28-1.55.18-2.8 0-4.01-.2-1.2-.5-2.41-.78-3.63-.52-2.38-1.03-5.2-1.87-7.51a17.44 17.44 0 0 0-1.53-3.32 8.25 8.25 0 0 0-2.13-2.36 30.12 30.12 0 0 0-7.97-4.1l-1.34-.45-1.28-.38c-.85-.24-1.71-.46-2.57-.67l-2.72-.53c-1.81-.32-3.63-.68-5.45-.95-1.55-.22-3.1-.4-4.66-.56-.78-.07-1.55-.16-2.33-.22l-2.32-.12c-1.54-.08-3.09-.16-4.63-.27-1.53-.06-3.06-.11-4.6-.24a46.2 46.2 0 0 1-2.76-.3l-2.79-.33c-1.86-.2-3.77-.48-5.64-.5z"/></g><g><path fill="#FFF" d="M415.1 219.93l-.12.02c.06.01.1.08.12-.02zM433.66 218.43l.04.4c0-.14-.01-.28-.04-.4zM428.89 183.38l.05-.07c-.04 0-.05.03-.05.07z"/><path fill="#FFF" d="M424 182.75c-1.12 0-2.15.33-3.25.88-1.12.52-2.19 1.37-3.34 2.47-1.2 1.1-2.4 2.53-3.7 3.67-1.32 1.12-2.66 2.05-4.07 2.2-1.5.15-2.97.2-4.5.29-1.54.1-2.95.32-4.72.95-1.7.62-3.35.83-5 .84-1.59.02-3.14-.17-4.74-.36-1.56-.18-3 .42-4.48.91-.74.25-1.49.47-2.22.54-.75.08-1.48 0-2.14-.39-.73-.4-1.42-1.03-2.11-1.51-.33-.24-2.38 1.76-2.9 2.73-.22.44.62 2.87.88 3.52.81 2.1 2.26 4.92 3.1 5.83 1.68 1.88 2.48 2.6 4.3 3.23 1.88.65 3.78 1.2 5.57 1.94.9.39 1.81.84 2.72 1.4.91.56 1.82 1.24 2.66 2.09a6.01 6.01 0 0 0 4.23 1.72c.68.05 1.52.07 2.3.15.8.08 1.58.24 2.36.58 1.69.72 3.43 1.65 5.18 2.42 1.78.7 3.59 1.25 5.42 1.13 3.89-.3 8.03 1.52 12.22.63 1.02-.21 2.03-.45 3.04-.73l3.06-1c2.02-.6 4.1-1.43 6.2-1.99l.92-.24c.31-.08.53-.16.8-.24a52.6 52.6 0 0 1 4.76-1.16c5.52-.96 10.18-3.86 15.28-5.66 2.29-.84 4.83-.97 7.37-1.22 2.52-.29 5.04-.67 6.95-2.39 2.03-1.77 5.12-3.6 3.57-11.2-.38-1.84-1.75-4.79-3.08-7.32 2.16 4.17-4.75-3.3-5.1-3.64-2.3-1.95-3.96-2.47-5.87-3.63-1.84-1.13-3.73-2.57-5.48-3.71-1.75-1.16-3.38-2.08-4.68-2.08-2.72-.03-5.11.6-7.4 1.44-2.32.76-4.52 1.78-6.79 2.69-1.92.82-3.81 1.52-5.71 2.28a85.9 85.9 0 0 1-4.32 1.56c-.24.07-.5.17-.71.21l-.58.1c-.95.14-1.86.2-2.9.14a34.8 34.8 0 0 0-3.1-.07z"/></g></svg>