<?xml version="1.0" encoding="utf-8"?>
<!-- Generator: Adobe Illustrator 22.1.0, SVG Export Plug-In . SVG Version: 6.00 Build 0)  -->
<svg version="1.1" id="svg" xmlns="http://www.w3.org/2000/svg" xmlns:xlink="http://www.w3.org/1999/xlink" x="0px" y="0px"
	 viewBox="0 0 410 410" style="enable-background:new 0 0 410 410;" xml:space="preserve">
<g id="svgg">
	<path id="path0" d="M218.8,36.7c-0.8,0.2-6.3,4.2-7.1,5.1c-0.4,0.5-0.4,0.5,2.7-0.3c1.4-0.4,3.1-0.7,3.6-0.8
		c1.4-0.3,7.8-0.5,8.8-0.3c1.1,0.2,1.1,0.2-0.5-1C222.7,36.9,220.5,36.2,218.8,36.7 M235.4,39.7c-2.4,2.1-4.3,2.6-9.7,2.4
		c-5-0.1-7.1,0.1-11.4,1.3c-2.8,0.8-4.4,1.4-9.1,3.7c-2.3,1.1-5,2.3-6,2.6c-1,0.3-1.9,0.7-2.2,1c-1.4,1.3-5.3,3.6-5.8,3.4
		c-0.5-0.2-0.2-0.6,0.9-1.1c0.6-0.3,1.7-0.9,2.5-1.4l1.3-0.9l-0.1-1l-0.1-1l-0.7,0.5c-0.4,0.3-2.3,1.4-4.2,2.4
		c-7.9,4.4-9.6,6.2-10.5,11c-1,4.9-2.8,6.6-12.2,11.7c-5.2,2.8-8.2,4.9-8.2,5.8c0,1.4,2.6,0.9,4.8-1c1.4-1.2,2.5-1.8,3.4-1.8
		c1.2,0,1,0.4-1.4,2.6c-2.5,2.2-2.7,2.5-2.2,2.9c0.5,0.4,0.8,0.3,3.1-1.4c2.7-2,4-2.8,5.3-3.3c0.6-0.2,1.5-0.6,2-0.8
		c0.6-0.3,1-0.4,1.4-0.3c0.5,0.1-3.7,3.8-7,6c-1.2,0.8-1.9,1.7-1.8,2.2c0.1,0.3,0,0.6-0.2,0.9c-0.3,0.5,0,1.2,1,2
		c0.4,0.3,1,0.8,1.2,1l0.4,0.4l-1-0.2c-0.5-0.1-1-0.2-1.1-0.2c-0.1,0-0.1,0-0.1,0.1c0,0.5,2.3,2.4,3.6,3.1l1.3,0.6l-0.7,0.1
		c-1.1,0.1-2.7-0.2-3.8-0.7c-1.2-0.5-1.3-0.5-0.8,0.4c0.4,0.7,1,1.3,2,1.6l0.6,0.2l-0.7,0.2c-1.2,0.3-2.6,0.1-3.8-0.7
		c-1.5-1.1-1.1,2,0.4,3.1c1.6,1.2,6.6,1.7,9.5,1c1.3-0.3,1.3-0.3,0.7-0.9c-0.6-0.6-0.8-1.2-0.5-1.1c0.9,0.3,2.5,0.5,4.1,0.4
		c2-0.1,2.1-0.1,1.8-0.5c-0.2-0.2-0.1-0.2,0.4-0.2c0.3,0,2.1,0.1,4,0.2c5.9,0.2,8,0.9,10.2,3.8c1,1.4,1.4,1.6,2.1,1.6
		c0.9,0,0.6,0.6-0.5,1.1l-0.4,0.2l0.6,0.3c0.3,0.1,0.7,0.3,0.9,0.3c0.5,0,0,0.9-0.6,1.2c-0.3,0.1-0.3,0.2,0.2,0.4
		c0.5,0.2,0.5,0.2,0.6,1.6c0.1,0.8,0.1,2,0.2,2.7c0.3,4-3.7,10.1-5.7,8.6c-0.5-0.4-0.6-0.3-0.5,0.4c0.1,0.7,0,0.8-0.3,0.5
		c-0.2-0.2-0.8,0.6-1.2,1.7l-0.3,0.9l0-0.6c0-0.3,0.1-0.8,0.2-1.1l0.2-0.5l-0.4,0.3c-0.2,0.2-0.6,0.7-0.9,1.1
		c-0.6,0.9-0.9,0.7-0.7-0.7c0.1-0.9,0.1-0.9-0.6,0l-0.5,0.7l-0.1-0.5c-0.1-0.3-0.1-0.7-0.1-1.1c0-0.7-0.2-0.8-0.6-0.3
		c-0.3,0.3-0.3,0.3-0.4-0.4l-0.1-0.7l-0.4,0.8c-2,4.3,2.6,6.3,7,3.1l0.8-0.6h2.5c2.8,0,3-0.1,2-1.1l-0.5-0.5l0.8-0.3
		c0.8-0.3,2.3-0.3,3.2-0.1c0.7,0.2,0.7,0-0.1-1c-0.7-1-0.7-1,0.7-1.6c2.1-1,8.3-0.6,9.9,0.7l0.5,0.4l-0.1-0.8
		c-0.1-0.4-0.1-1-0.2-1.3c-0.1-0.7,0-0.7,1.5-0.2c1.5,0.5,3.1,1.3,4.2,2.1l0.9,0.7l0.5-0.5c0.3-0.3,0.7-0.8,0.9-1.2l0.5-0.8l0.8,0.5
		c0.4,0.3,1.6,1.3,2.5,2.2c0.9,1,1.8,1.8,1.9,1.8c0.1,0,2-1.7,4.1-3.8s4-3.8,4.1-3.8c0.3,0.2,0.3,1.3,0.1,2.1c-0.3,1-0.2,1,0.9-0.1
		c1.3-1.4,1.6-1.8,4.2-6c3.2-5.1,3.6-5.6,6.6-6.4l1-0.3l-0.7-0.6c-0.7-0.6-2.5-2.7-2.3-2.8c0.1-0.1,5.8,0.3,7.8,0.5l0.9,0.1
		l-0.7-0.8c-1.8-2.1-2.6-5.3-1.8-7.9c0.2-0.8,0.4-0.8,0.6,0c0.3,0.8,1.7,2.4,2.5,2.8c0.8,0.4,0.8,0.3,0-0.9
		c-2.8-4.3-3.4-7.9-2.3-14.6c0.6-3.7,0.8-9,0.4-9.4c-0.1-0.1-0.2,0-0.3,0.6c-2.1,14.9-4.3,17.8-13.7,18.9c-2.1,0.3-2.2,0.4-0.7,0.7
		c2.5,0.6,5.7,0.2,7.9-0.9l1-0.5l-0.9,0.9c-1.9,1.9-5,4.1-7.6,5.4c-1.9,0.9-1.1,2,1.9,2.9c0.8,0.2,1.3,0.4,1.3,0.6
		c0,0.5-4.8,4.5-8.6,7.2c-2.5,1.8-2.5,1.7-0.2,1.4c3.6-0.5,3.6,0,0.1,2c-1.1,0.6-2.9,1.7-4.1,2.4c-3,1.9-2.4,1.8-6.6,1
		c-4-0.7-4-0.7-0.4-1c3.9-0.4,7.5-3.4,9.9-8.1c1.6-3.2,2.7-4.6,3.5-4.6c0.9,0-0.2-0.2-1.5-0.3c-1.7-0.1-4.6-0.8-4.6-1
		c0-0.2,1.5-2.2,2.7-3.5c2.1-2.3,2.6-3,2.4-3.1c-0.1-0.1-1.2-0.3-2.4-0.5c-2.5-0.5-2.5-0.5-1.4-1c0.7-0.4,2.6-2.1,2.6-2.4
		c0-0.1-0.3,0.1-0.7,0.4c-1.5,1.1-5.3,2-10,2.3c-1.9,0.1-2.1,0-0.5-0.6c2.1-0.8,3.8-1.8,3.8-2.3c0-0.5-0.6-0.4-2.4,0.5
		c-3.7,1.8-8.6,2.6-6.2,0.9c0.6-0.4,1.4-1.1,2-1.7c0.5-0.6,1.5-1.4,2.2-1.8c2.1-1.4,4.6-4.2,4.2-4.7c-0.3-0.4-0.6-0.3-1.2,0.5
		c-1.5,2-3.5,3.6-5.7,4.2c-2,0.6-2.1,0.6-0.5-0.4c2.1-1.3,3.8-2.8,3.7-3.2c-0.1-0.6-0.6-0.5-1.7,0.5c-3.7,3.1-6.9,4.5-10.9,4.6
		l-2.7,0.1l0.9-0.5c1.7-0.9,3.9-2.7,4.6-3.9c0.1-0.1,0.8-0.7,1.6-1.2c3.1-2.2,5.2-4.1,4.8-4.5c-0.3-0.4-0.5-0.3-1.8,0.8
		c-2.6,2.3-6.3,4.8-8.2,5.6c-1.4,0.6-1.5,0.5-0.2-0.4c2.4-1.7,2.6-1.8,1.9-2.2c-0.2-0.1-0.6,0.1-2,1c-0.9,0.6-1.9,1.3-2.3,1.5
		l-0.6,0.4l0.1-0.8l0.1-0.8l-1,0.8c-1.2,0.9-2.6,1.6-4.2,2.1c-1.4,0.4-1.6,0.4-0.7-0.2c1.1-0.8,2.6-2.4,2.5-2.7
		c-0.2-0.5-0.6-0.5-1.2,0.2c-1.6,1.7-4.5,3.4-6.3,3.6l-1,0.1l0.4-0.6c0.3-0.5,0.3-0.8,0.3-1.6c-0.1-1.4-0.2-1.4-1.1-0.5
		c-1.8,1.7-4.2,2.5-7.6,2.6c-2.5,0-2.5,0-1.6-0.9c1.9-2.1,2.8-4.1,3.6-8.3c1.1-6,3.6-7.7,13.3-9.3c0.7-0.1,0.8-0.2,0.6-0.3
		c-0.8-0.3-2.1-1-2.1-1.1c0-0.1,1.2-0.5,2.7-0.9c1.5-0.4,4.7-1.5,7.1-2.4c9.9-3.5,12.1-4.3,15.5-5.3c4.4-1.3,5.3-1.7,7.6-3.5
		c1.1-0.8,2-1.4,2.2-1.4c0.7,0-0.3-0.3-1.5-0.4c-0.7-0.1-1.7-0.2-2.2-0.3l-1-0.2l1.5-0.6c0.9-0.3,1.8-0.8,2.2-1l0.7-0.3l-0.7-0.1
		c-0.4-0.1-1.4-0.3-2.3-0.4c-0.9-0.2-2.4-0.4-3.2-0.4c-1.6-0.1-1.9-0.2-1.5-0.7c0.3-0.3,1.7-0.2,4.8,0.4c1.1,0.2,2.5,0.4,3,0.5
		l1,0.1l0.8-0.8l0.8-0.8l-2.7,0c-1.5,0-3.5-0.1-4.5-0.2c-2.1-0.2-5.3-0.3-6.3-0.1c-0.6,0.1-0.6,0.1-0.6-0.2c0-0.7,2.4-1,5.4-0.6
		c3.5,0.4,3.7,0.4,5.5-0.6c1.8-1.1,2.7-1.9,2.9-2.8C236.5,38.8,236.4,38.7,235.4,39.7 M259.3,40.2c-3,1.4-5.7,1.9-13.4,2
		c-3.5,0.1-5.4,0.2-5,0.3c1.2,0.3,1.8,0.5,3.6,1.6c3.5,2.1,6.9,2.5,11,1.2c1.1-0.3,1.1-0.3,0.5,0.5c-0.6,0.8-2,1.9-3.1,2.2l-0.9,0.3
		l0.7,0.3c2.9,1.3,9.3,2,12.3,1.3l0.4-0.1l-0.4,0.3c-1.3,1.1-4,2.1-6.2,2.3l-1.2,0.1l0.9,0.4c2.1,1.1,9.2,2.1,14.9,2.1
		c1.7,0,1.7,0,0.9,1.3c-0.7,1.2-0.7,1.1,0.1,1.2c1.8,0.3,4.1,1.8,7.9,5.2c2.9,2.7,3,2.7,2.7,1.9c-0.8-1.9-3.2-5.9-4-6.5
		c-0.4-0.3-0.3-0.8,0-0.8c0.8,0,3.6,4.5,4.9,7.9c0.4,0.9,0.9,1.8,1.4,2.4c2.7,3.3,5.2,8.1,6.3,12.5c0.5,1.9,0.6,2.2,1.1,2
		c1.1-0.4-1.7-8.1-4.8-12.8c-0.3-0.4-0.1-0.3,0.8,0.4c0.7,0.6,1.2,1.2,1.4,1.6c0.2,0.4,0.9,1.8,1.6,3.1c2.8,5.1,3.3,6.9,3.8,13.5
		c0.4,5.3,1,8.4,2.2,10.9c0.9,1.9,2.4,3.8,3,3.8c0.8,0,0.7-0.4-0.3-1.5c-2.4-2.6-3.3-5.7-3.9-13.2c-0.6-6.6-1.6-10.6-3.5-13.2
		c-0.1-0.1-0.4-0.7-0.8-1.3l-0.6-1.2l1.2,1.1c2.7,2.4,3.2,3.2,4.9,8.3c0.6,1.8,1.3,3.7,1.6,4.2c0.6,1.2,1.3,2.2,1.1,1.7
		c-0.4-1.4-0.6-2.8-0.8-4.7c-0.4-5-0.7-6.3-2.4-9.3c-0.8-1.5-1-2.1-0.6-2.1c0.3,0,1.4,1.9,2.3,4c0.8,1.9,1.1,3.4,1.3,6.4
		c0.2,2.7,0.5,4.5,1.2,6.6c0.6,1.7,3.8,4.4,8.2,6.6l1.8,0.9l-1.5,0c-2.1,0-4.4-0.6-6-1.5c-0.8-0.5-0.7-0.2,0.4,1.1
		c3,3.5,6.7,5.6,11.3,6.5c2.1,0.4,2.6,0.9,0.9,0.8c-4.4-0.2-10.6-3.8-13.7-8.1c-1.2-1.6-1.2-1.6-0.7,1.1c0.9,4.2,3.2,6.6,7.2,7.5
		c1.3,0.3,1.6,0.4,1.4,0.7c-0.4,0.7-4.4-0.7-6.3-2.2l-1-0.8l0.4,1.1c0.7,2,1.8,3.8,2.7,4.7c1,1,1,1-1.1,0.6
		c-2.8-0.5-5.6-1.8-7.9-3.4c-1.2-0.9-1.5-1-0.9-0.4c1.4,1.4,1.9,4.4,1.5,8.3c-0.2,1.5-0.3,1.5-0.6,0.2c-0.5-2.6-1.7-4.8-2.3-4.3
		c-0.3,0.3-0.3,0.4,0.3,1.6c2.2,4.9,1.4,11.1-2.1,16c-0.7,1-0.5,1,1,0.3c4.5-2.3,6.9-5.7,7.9-11.1c0.2-1,0.3-1.2,0.5-1.2
		c0.6,0,0,3.4-1.2,6c-0.5,1.1-0.6,1.6-0.7,3c-0.3,4.4-4,8.4-7.8,8.3c-2.3,0-2.4,0.8-0.2,1c2.5,0.2,5.2-1.4,7.2-4.3l0.6-0.9l-0.1,0.7
		c-0.1,0.4-0.1,0.9-0.2,1.2l-0.1,0.6l1.2-0.9c3.6-2.6,6-3.9,9.6-5.2c7.7-2.7,10.1-5.1,8.5-8.8c-0.1-0.2,0-0.2,1.4,0
		c2.2,0.5,3.1,1,4.7,2.6c3.5,3.6,2.8,5-3.6,7.4c-3.3,1.3-5.2,2.4-2.6,1.6c4.5-1.4,9.1-0.2,10.7,2.9l0.2,0.5l-1.5-0.3
		c-9.4-1.9-16-2-17.9-0.3l-0.7,0.7l0.8-0.1c1.3-0.2,5.2-0.1,6.6,0.1c1.6,0.3,4.5,1,4.4,1.2c-0.1,0.1-2.8,0.1-6.1,0.2
		c-7.6,0.1-8,0.2-12.5,2.8c-4.2,2.4-7.6,3-10.3,1.6c-0.9-0.5-0.9-0.4,0.1,0.8l1,1.1l-0.9,0.4c-1.2,0.5-2.6,0.9-4.1,1l-1.2,0.1
		l0.3,0.4c0.5,0.5,1.9,1.3,2.4,1.3c0.3,0,1.5,0,2.7-0.1c2.1-0.1,2.2-0.1,2.2,0.2c0,0.3-0.2,0.3-1.9,0.4c-2,0.1-3.3,0.4-5.3,1
		c-0.7,0.2-1.3,0.4-1.4,0.3c-0.1,0-0.5,0.2-1,0.6c-0.5,0.4-0.8,0.6-0.6,0.6c3.8-1.3,8.8-1.8,8.8-0.9c0,0.3-0.1,0.3-1.3,0.3
		c-7.6,0-14,4.3-12.1,8.1c0.4,0.7,1.1,1.5,1.7,1.6c0.4,0.1,0.5,0.8,0.1,0.8c-0.8,0-2.2-1.3-2.6-2.4l-0.2-0.6l-0.3,0.5
		c-0.4,0.6-0.3,1.1,0.5,2.3c0.5,0.7,0.6,0.9,0.4,1.1c-0.3,0.3-0.7,0-1.3-1l-0.5-0.9l-0.5,1.1c-1,2.2-1.7,5-2.4,8.7
		c-0.2,1.1-0.7,3.9-1.2,6.2c-1.9,10-1.9,14.1,0.2,17.9c0.5,0.9,0.9,1.8,1,2c0,0.5,0.2,0.4,0.6-0.4c0.5-1,1-1.3,2.1-1.6
		c1.5-0.3,1.7-0.9,1.2-2.8c-0.8-2.9,0.2-7,2.2-9.2l0.6-0.7l-0.1,1.1c-0.1,0.6-0.3,1.9-0.5,2.9c-0.5,2.7-0.4,4.5,0.5,8.1
		c0.4,1.6,0.7,3.4,0.8,4.3l0.1,1.6l0.3-0.6c0.9-2.1,3.8-2.1,4.7,0c0.5,1.2,0.5,0.7-0.1-1.2c-1.4-4.4-1.7-7.8-0.8-9.7
		c0.9-2,2.9-4.2,2.5-2.9c-1,3.3-1.2,7.9-0.5,11.5c0.3,1.6,0.5,3.1,0.6,3.5l0,0.7l0.5-0.8c0.8-1.4,2.1-2,2.9-1.3l0.5,0.3l0.1-0.6
		c0.1-0.3,0.1-2,0.1-3.7c0-3.4,0.2-4.8,0.7-6.1l0.4-0.8l0.1,0.7c0.4,2.6,0.6,6.6,0.5,8.1c-0.1,0.9-0.2,1.9-0.1,2.3l0.1,0.7l0.4-0.7
		c1.5-2.8,4.5-4.1,5-2.2c0.1,0.3,0.4,0.9,0.6,1.3l0.4,0.6l0.1-2.5c0.1-3.5,1.4-7.8,3-9.8c0.7-0.9,0.3,1.9-0.4,3.3
		c-1,2-1.3,3-1.3,4.4c0,1.4,0.1,1.6,0.6,1c1.6-2.2,3.2-2.1,4.5,0.3c0.9,1.6,1.4,1.6,3.1-0.1c1.8-1.8,2.3-3.4,2.7-7.8
		c0.1-1.6,0.4-3.3,0.5-3.9c0.3-1.3,1.3-3.7,1.4-3.7c0.1,0,0.1-0.1,0.1-0.2c0-0.4,1.3-3.1,2-4.1c1.7-2.5,1.9-3.3,2.1-8.3
		c0.1-2.2,0.2-4,0.3-4.2c0.5-1.6-3.3,2.5-4.9,5.3c-0.2,0.3-0.2,0.3-0.5,0.1c-0.6-0.5,1.9-4,4.3-5.9c1.2-1,1.9-1.8,1.5-1.8
		c-0.8,0-5.3,3.8-6.3,5.4c-0.4,0.6-1,0.8-1,0.3c0-1.1,4.4-5.1,7.3-6.5c0.4-0.2,1.1-0.8,1.6-1.3c0.9-0.9,2.5-2.1,4.1-3.1l0.8-0.5
		l-0.1,3.5c-0.1,5-0.8,9.2-2.3,13.5c-0.3,0.8-0.5,1.5-0.4,1.6c0.2,0.3,4.2-6.2,4.2-6.8c0-0.2,0.2-1.1,0.5-1.9
		c0.9-2.8,1-5.7,0.4-10.1c-0.2-1.8-0.2-2.1,0.3-2c0.6,0.2,1,8.4,0.5,10.4c-0.3,1.2,0.7-1.4,1.4-3.7c0.5-1.5,1-3.1,1.2-3.6
		c0.6-1.4,0.2-5.1-0.8-8.8c-0.5-1.8-0.5-1.9-0.1-1.9c0.5,0,1.5,4,1.8,7.1c0.1,0.8,0.2,1.4,0.3,1.3c0.4-0.2,2,2.2,2.9,4.2
		c0.5,1.2,0.6,1.3,1,0.3c0.9-2.8,1.1-8.1,0.4-9.4c-0.2-0.4,0-0.4,0.4,0c0.3,0.3,0.3,0.3,0.2-0.1c-0.7-2.5-3.7-6.4-6.1-7.9
		c-1.1-0.7-0.8-1.4,0.3-0.7c2.8,1.7,5.5,5.4,6.7,9.1c0.2,0.7,0.7,1.6,1.1,2.2l0.8,1.1l0.1-0.8c0.1-1-0.3-2.8-0.9-4.2
		c-0.5-1.2-0.5-1.2-0.1-1.2c0.8,0,1.7,3.1,1.7,5.9c0,1.6,0.1,2,0.6,3.4c0.6,1.5,1.1,3.5,1.1,4.3c0,1.2,0.7-0.4,1-2.4
		c0.5-3.4-0.1-7.4-1.9-12.9c-0.9-2.5-0.8-2.5,1.4-0.3c5.1,5.1,6.5,12.2,3.8,19c-0.4,1.1-1.9,3.7-2.1,3.7c0,0-1.3-1.4-2.8-3.1
		c-1.5-1.7-2.8-3.1-2.9-3c-0.1,0-0.3,0.8-0.7,1.7c-0.7,2.1-2.1,5.1-2.2,5c-0.1-0.1-0.5-1.1-1-2.3c-0.8-2-0.9-2.2-1.3-2.2
		c-0.6,0-1.6,1.1-1.9,2c-0.1,0.4-0.7,1.8-1.1,3.2c-1.7,4.9-5,11.9-6.2,13.3c-0.4,0.5-0.9,0.8-1.7,1.2c-1.8,0.8-2.1,1.1-0.9,1.3
		c1.5,0.2,4.5-1.1,5.6-2.4c2.5-3.2,4.1-7.3,5.4-13.7l0.2-1.2l0.6,1.3c1.2,2.4,1.7,5.2,1.6,7.6c-0.1,1.5-0.1,1.5,0.8,0.2
		c1.8-2.6,2.6-5.5,3.3-11l0.1-0.8l0.7,1c1.1,1.8,2.4,4.3,3.2,6.4c0.4,1.1,0.8,2,0.8,2c0,0,1.5-1.8,3.4-4.1l3.3-4.2l0.3,0.9
		c0.4,1.2,0.5,3.2,0.3,3.5c-0.1,0.2-0.2,0.3,0,0.3c0.3,0,1.1-1.4,1.4-2.4c0.4-1.7,0-7.9-0.9-13.6c-0.2-1.2-0.3-2.2-0.2-2.2
		c0.8,0,2.9,1.8,3.8,3.2c1.7,2.7,0.1-3-2.1-7.4c-1.2-2.4-1.2-2.3-7.3-12.7c-2.5-4.3-5.4-9.3-6.4-11.2c-2.2-4-3.3-5.9-4.7-7.7
		c-1-1.3-1-1.3-0.6-1.4c1.2-0.1,3.7,0.6,4.5,1.3c0.6,0.5,0.5,0.2-0.3-0.9c-2.8-4.2-7.7-6.9-12.9-7.3l-1.7-0.1l1.1-0.7
		c1-0.7,2.6-2.3,2.6-2.6c0-0.1-0.2,0-0.4,0.2c-1.7,1.3-6.8-1-14.1-6.3c-1.3-0.9-1.2-1,0.7-0.6c0.6,0.1,1.2,0.2,1.2,0.2
		c0,0-0.9-0.5-2.1-1.1c-3.9-2-8.8-6-11.2-9.4l-0.3-0.4l1.2,0.5c2.7,1.1,4.8,1.4,4.8,0.7c0-0.3-0.1-0.4-1.9-0.8
		c-1.6-0.4-4.3-1.6-5.3-2.3c-0.3-0.2-1.2-1.4-2.1-2.7c-2-2.9-3.9-5.4-4.8-6l-0.7-0.5l1.7,0c1,0,2.1,0.1,2.5,0.2
		c0.7,0.1,1.2,0.1,0.7-0.1c-0.5-0.2-5.3-3.1-8.1-4.9l-3.1-2l0.7-0.1c3.1-0.6,4.7-1.4,6.7-3.3c1.5-1.5,1.8-2,1-1.6
		c-1.7,0.8-12.5,0.1-16.3-1.2c-0.8-0.3-2.2-1-3.6-1.8c-1.9-1.2-2.7-1.5-4.7-2.2c-1.3-0.4-2.4-0.8-2.6-0.9c-0.1-0.1,0.8-0.4,2.1-0.9
		l2.3-0.8l-3.5,0.1c-4.7,0.1-8.4-0.4-12.1-1.5l-1.2-0.4l1.1-0.8c1.5-1.1,4.4-4.1,3.9-4.1c-0.1,0-0.7,0.1-1.4,0.3
		c-1.5,0.4-4,0.6-4.8,0.4l-0.6-0.1l1.1-1.1c0.6-0.6,1-1.1,1-1.1C260.5,39.7,260,39.9,259.3,40.2 M236.8,58c-1.5,0.2-3.6,0.7-5,1.2
		l-1.1,0.4V59c0-0.4,0-0.6-0.1-0.6c-0.2,0-1.7,1.3-3.5,3.1c-2.2,2.3-2.9,2.6-4.7,2.6c-1.2,0-1.2,0-1.2,0.4c0,0.6,1.3,0.8,2.6,0.5
		c0.5-0.1,0.9-0.2,0.9-0.2c0,1-1.7,4-3.2,5.7c-1,1.1-1,1.3-0.5,1.6c0.4,0.3,3.2-2.9,3.8-4.4c0.1-0.1,2.7-2.2,3.1-2.4
		c0.1-0.1,0,0.3-0.3,0.9c-0.3,0.5-0.5,1.3-0.6,1.7l-0.1,0.7l0.7-1c1.2-1.9,4.7-4.1,6.4-4.1c0.1,0-0.4,0.3-1,0.6
		c-1.9,1.1-4.2,4.2-4.6,6.3c-0.1,0.5-0.1,0.5,0.5-0.3c1.1-1.3,2.6-2.6,3.6-3.1l0.5-0.2l-0.6,0.9c-1.4,2.1-1.8,4.1-1.3,6.7
		c0.2,1,0.4,2.2,0.4,2.6c0,0.7,0,0.7,0.6-0.9c1.9-5,2.6-5.8,6.6-7.2c4-1.4,5.3-1.9,5.8-2l0.5-0.1l-0.1,1.1c-0.1,1.4-0.6,2.3-1.7,3.4
		c-0.9,0.9-0.8,1.1,0.5,0.9l0.5-0.1l-0.3,0.5c-0.2,0.3-0.7,0.7-1.1,0.9c-1.5,0.9-1.4,0.9-0.4,0.8c1.2-0.1,1.2,0,0,1.1
		c-1.8,1.6-3.5,2.6-5.9,3.4l-1.4,0.4l0.6,0.3c2.1,1.1,7.5-1.8,9.8-5.3c2-2.9,2.5-7.9,1-9c-1.5-1-5.6,0.1-11.2,2.9
		c-0.4,0.2,0.7-1.4,1.5-2.2c1.2-1.1,2.1-1.5,5.4-2.1c3.5-0.7,3.6-0.7,4.7,0.3c1,0.9,1.1,0.9,0.6-0.6c-0.6-2.2-1.7-3.1-4.7-4.2
		c-1.7-0.6-1.8-0.7-1.4-1.1c0.1-0.1,0.2-0.3,0.1-0.3C241.5,57.8,238.2,57.8,236.8,58 M272.1,64.5c0,0,0.4,0.6,0.9,1.3
		c0.8,1,1.9,2.8,2.8,4.4c0.2,0.3,1,0.9,2.3,1.7c1.1,0.7,2,1.3,2,1.3c0,0-0.8-0.2-5.9-1.8c-2.4-0.8-3.3-0.9-5.1-0.7
		c-1,0.1-1,0.2,0.1,0.9c0.5,0.3,1.9,1.6,3.1,2.8c1.2,1.2,3,2.7,3.9,3.4c2,1.5,2.8,2.4,3.4,3.6c0.5,1.2,0.5,1.2-0.6,0.4
		c-1.7-1.3-4.3-2.3-6.7-2.6c-1.3-0.1-1.2,0,0.6,1.3c6.4,4.6,9.9,10.6,9.4,16.3c-0.2,2-0.1,2-2.3,0.9c-2.9-1.5-5.5-2-12.4-2.5
		c-3.6-0.3-6.2-0.6-6.7-0.7c-0.7-0.2-0.1,0.2,1.1,0.7c3,1.3,5.8,3.6,7.2,6.1l0.4,0.6l-2-0.6c-1.1-0.4-2.9-0.9-3.9-1.3
		c-1-0.3-1.9-0.6-1.9-0.6c0,0,0.4,0.3,0.8,0.5c1.6,0.9,5,4.2,4.7,4.5c0,0-0.7-0.1-1.5-0.2c-3.9-0.6-7.1-0.8-9.2-0.6
		c-2.8,0.3-2.8,0.3-2.1,0.8c1.1,0.9,1.9,2.4,1.9,3.7v0.6l-1.1-0.5c-2.2-0.9-3.2-1.1-6.1-1.1c-3.1,0-2.9-0.1-4.5,2.5
		c-1.5,2.5-3,4.4-4.9,6.3c-1.9,1.9-1.9,1.9-1.2,1.8c1.6-0.3,3.1-1.5,5.3-4.3l1.4-1.7l0.1,2.4l0.1,2.4l1.6-2.3
		c2.8-4.2,3.2-4.4,6.8-3.7c3.2,0.6,3.9,0.6,6.1,0.2c3.3-0.7,4.5-0.5,6.3,0.8c1.3,1,2.4,0.4,3.9-2c1.8-2.9,3-3.1,4.4-0.5
		c0.3,0.6,0.7,1.2,0.8,1.3c0.5,0.3,2.2-2.5,2.5-4l0.1-0.8l0.5,0.7c0.5,0.8,1.1,2.3,1.1,2.8c0,0.6,0.3,0.3,0.5-0.5
		c0.5-2,0.1-4.4-0.8-6.1c-0.3-0.5-0.5-0.9-0.4-0.9c0,0,1.3,0.7,2.8,1.6c3.2,1.8,2.9,1.9,3.7-0.4c1-3.2,1.3-7.8,0.7-10.5
		c-0.1-0.6-0.2-1-0.1-1c0.5,0,2.7,2.3,3.5,3.6c0.2,0.4,0.4,0.7,0.4,0.7c0,0,0-0.8,0-1.8c0-1,0.1-2.9,0.3-4.2
		c0.4-3.3-0.1-5.8-1.6-8.9c-1.6-3.3-9.2-12-12.1-14.1C274.4,65.5,272.1,64.2,272.1,64.5 M202.8,65.7c-0.6,0.2-2.2,0.4-3.5,0.6
		c-2.9,0.3-3.7,0.5-4.8,1c-0.9,0.4-2.7,2.2-2.7,2.6c0,0.1-0.1,0-0.3-0.2c-0.9-1.2-2.3,2.4-1.8,4.5c0.4,1.4-0.4,3-2.1,4
		c-1,0.6-1.1,1.1-0.4,1.2c0.8,0.1,3.2-2,3.2-2.8c0-0.1,0.3-0.1,0.6,0c0.8,0.1,1.1-0.4,1.1-1.5c0-1.1,0.1-1.2,1.9-2.3
		c3.1-1.9,6.8-2,10.1-0.2c2,1.1,5.9,1.6,8,0.9c1.5-0.5,1.3-1.4-0.2-1c-1.5,0.3-3,0.4-4.3,0.2l-1.2-0.2l1.1-0.2
		c1.2-0.3,2.8-1,3.6-1.7c0.7-0.6,0.7-0.6-0.7-0.6c-0.7,0-1.5-0.1-1.8-0.3l-0.6-0.2l0.8-0.4c0.4-0.2,1-0.7,1.4-1
		c0.6-0.7,0.8-1.1,0.3-0.9c-0.6,0.3-2.2,0.4-5,0.3l-2.8-0.1l0.8-0.8c0.4-0.4,0.8-0.9,0.8-1C204.3,65.3,204.3,65.3,202.8,65.7
		 M226.3,69c-0.1,0.1-0.3,0.6-0.6,1.1c-0.6,1.2-1.4,2.2-2.1,3c-0.6,0.7-0.7,1.2,0,1.2c0.8,0,4-4.8,3.5-5.3
		C226.8,68.8,226.5,68.7,226.3,69 M254.1,70.4c-0.3,1-0.5,3.2-0.4,3.5c0,0.2,0.1,1.3,0.2,2.5c0.2,5.1,1.1,8.1,2.9,10.6
		c0.4,0.6,0.7,0.8,0.9,0.8c0.6-0.1,0.5-0.5-0.2-1.4c-0.9-1.2-1.7-3.1-2.1-5.1c-0.1-0.4,0-0.3,0.4,0.3c1.6,2.8,4.9,6.2,5.8,5.9
		c0.5-0.2,0.3-0.7-0.4-1.1c-1.7-1.1-3.7-3.6-4.9-6c-0.9-1.9-0.8-1.9,0.4-0.3c2.2,3,4.9,4.7,4.9,3.2c0,0-0.4-0.4-1-0.7
		c-3.8-2.6-6.3-7.2-5.8-10.6c0.3-1.8,0.3-2.1-0.2-2.1C254.3,69.8,254.2,70,254.1,70.4 M239.7,70.5c-3.5,1.1-7.2,3.8-4.8,3.5
		c1.3-0.1,1.3-0.1,0.1,0.6l-0.9,0.6l0.8,0.1l0.8,0.1l-1.1,0.7c-1.3,0.8-1.3,1-0.3,1.5c1.3,0.6,2.7,0.4,5.3-1c1.7-0.9,2.8-2,1.4-1.5
		c-0.7,0.3-2.5,0.5-2.7,0.4c-0.2-0.1,0.2-0.5,1.7-1.4c1.9-1.3,2.3-1.6,1.3-1.3c-0.3,0.1-1.1,0.2-1.7,0.2l-1.2,0l1.6-0.9
		C243.3,70.2,243.2,69.5,239.7,70.5 M191,71.6c-0.1,0.4-0.2,0.7-0.3,0.7c-0.1,0-0.1-0.2,0.2-1C191.2,70.6,191.3,70.8,191,71.6
		 M198.4,73.5c-0.9,0.3-1.3,0.8-0.7,0.8c0.9,0,1.3,1.1,0.6,1.6c-0.8,0.5-1.6-0.3-1.1-1.1c0.3-0.4-0.3-0.4-0.7,0
		c-1.2,1.2,1,2.9,2.7,2.1C201.8,75.4,201.2,72.5,198.4,73.5 M157.2,83.1c-1.1,0.6-0.8,1.4,0.8,1.9c1.6,0.5,4.9,2.4,4.9,2.9
		c0,0.4-1.6,0-3.3-0.7c-3.2-1.5-4-0.9-2.7,1.9c0.7,1.4,5.5,6.6,5.8,6.3c0,0-0.1-1.1-0.3-2.4c-0.4-2.7-0.3-3,0.6-2.8
		c0.5,0.1,0.7,0.6,0.9,1.8c0.1,1.2,0.3,1.2,1.1,0.2c2.7-3.2,1.9-5.1-3.3-7.9C159.1,82.7,158.3,82.5,157.2,83.1 M195.7,94.3
		c0.6,0.3,1.3,0.7,1.6,1c1.5,1.3,4,1.7,5.8,0.8c0.6-0.3,1-0.4,1.1-0.3c0.6,0.6-1.4,1.5-3.1,1.5c-1,0-1.1,0-0.9,0.3
		c0.5,0.6,1.5,1,2.6,0.8c1.1-0.1,1.4,0,1.1,0.5c-0.5,0.6-2.4,0.4-3.6-0.3c-0.3-0.2-0.7-0.4-0.7-0.3c-0.1,0-0.7-0.5-1.5-1.3
		c-1.5-1.5-2.7-2.2-3.9-2.4c-0.9-0.1-1.2-0.3-1-0.7C193.2,93.5,194.4,93.7,195.7,94.3 M183.7,97.5c-1.3,0.2-3.7,0.8-4.1,1
		c-0.4,0.2-0.4,0.5,0.2,1.1c0.6,0.7,1,0.7,1.6,0c0.4-0.5,0.5-0.6,1.4-0.5c0.9,0.1,1,0,1.2-0.4c0.2-0.4,0.2-0.4,0.5-0.2
		c0.5,0.4,1.1,0.3,1.3-0.2c0.2-0.3,0.3-0.4,0.6-0.3c1.9,0.5,2.1,0.6,2.5,0.4c0.4-0.2,0.7-0.7,0.5-0.9
		C189.2,97.3,184.9,97.3,183.7,97.5 M175.4,99.7c-0.4,0.1-1,0.2-1.3,0.2c-1.9-0.1-0.2,2.9,2.7,4.8c0.5,0.3,1.5,1,2.1,1.4
		c1.8,1.2,1.8,1.2,1-0.4c-0.4-0.8-1.1-2.3-1.4-3.3C177.3,99.3,177.1,99.1,175.4,99.7 M169.2,100.4c0.3,0.9,1.8,2.5,2.9,3.1
		c0.3,0.2,0.4,0.2,0.3,0c0-0.1-0.3-0.7-0.5-1.4c-0.4-1.2-0.9-1.6-2-1.6c-0.3,0-0.6-0.1-0.7-0.2C169.1,100.1,169.1,100.1,169.2,100.4
		 M293.2,104.1c-0.6,2.5-1.9,4.6-5.3,8.5c-5.1,5.9-5.7,8.1-3.1,12.1l0.6,1l0.2-1.2c0.1-0.7,0.4-1.7,0.7-2.2l0.5-1l-0.1,2.6
		c-0.2,8-2.3,11.4-5.8,9.6c-0.9-0.5-2.1-1.6-2.5-2.4l-0.4-0.7l-0.1,2.9c-0.2,5-0.9,7.2-3.2,10.1c-4.5,5.5-8.4,13-8.5,16l0,1.2
		l-0.5-1c-0.2-0.6-0.5-1.5-0.6-2.1c-0.4-2.4-0.7-2.4-2,0.4c-1.4,2.9-2,5.3-2.3,8.5c-0.2,1.8-0.2,2.1-0.6,1.9
		c-0.8-0.3,0.3-6.5,1.8-9.7c0.9-2.2,1-2.2,0.3-1.3c-2.6,3.5-4.8,10.4-4.8,15.1c0,1-0.3,1.5-0.7,1c-0.3-0.4,0.1-4.3,0.7-6.8l0.3-1.4
		l-0.4-0.4c-0.5-0.5-0.5-0.4-1,1.1c-0.8,2.3-1,3.8-1,7.8c0,3.5,0,3.6-0.3,3.6c-1.1-0.2-0.3-9.5,1-12.6l0.4-1l-0.8-1.2l-0.8-1.2
		l-0.2,2.1c-0.3,3-0.9,5.5-1.5,5.5c-0.3,0-0.3-0.3,0.2-2.3c0.3-1.3,0.5-2.2,0.5-4.3l0.1-2.6l-0.7-1.9c-0.4-1.1-0.8-2.6-0.9-3.5
		c-0.1-0.9-0.3-1.6-0.3-1.6c-0.1-0.1-0.5,1.7-0.6,2.9c-0.1,1.3-0.4,1.8-0.8,1.4c-0.3-0.3,0.2-3.6,0.9-5.8c0.3-1,0.7-2.2,0.8-2.7
		c0.3-1.2,0.6-2,2-5.2c0.6-1.4,1.3-2.9,1.4-3.4c0.3-0.8,0.3-0.8,0.3,2.2c0,4.1,0.7,8.3,1.8,11.5l0.4,1.1l0.1-3.1
		c0.2-5.7,2.7-14.4,3.7-12.8c0.1,0.1-0.2,0.9-0.6,1.7c-1.3,2.9-2,6-2.3,9.4c-0.3,3-0.2,3.1,0.3,1.6c0.6-1.6,1.3-2.8,3.5-6.3
		c2.8-4.3,3.9-6.9,5.2-12l0.6-2.4l0.1,2.7c0.2,4.1-0.1,9.8-0.7,14.4l-0.1,0.7l0.5-1c0.3-0.6,1.1-1.9,1.8-3c2-2.9,3.1-6.2,4.5-13.4
		c0.7-3.7,1.4-6.3,1.6-6.3c0,0,0.7,0.4,1.4,0.9c2.3,1.5,2.5,1.5,1.3-0.4c-2.3-3.8-3.4-8.7-2.4-10.9c0.6-1.3,0.4-1.1-1.8,1.9
		c-3.4,4.5-4.5,6.5-4.8,8.3l-0.1,0.9l-0.5-1.1c-0.3-0.6-0.6-1.4-0.6-1.8c-0.1-0.8,0-0.8-1.8,0.3c-4.5,2.8-7.3,6.2-8.3,10.1l-0.2,0.9
		l0-0.8c0-2,1.3-5.1,3.5-8.2c2-2.7,2.8-4,2.8-4.1c-0.4-0.4-4.9,2.7-7,4.8c-1,1-1.9,1.8-2,1.7c-1.2-0.4,4-4.9,7.9-6.9
		c2.2-1.1,2.8-2.2,2.5-4.7l-0.1-0.9l-0.2,0.9c-0.8,3.5-7.2,4-11.5,0.9c-1-0.7-0.2,0.1,1.6,1.6l2,1.6l-0.7,0.2
		c-1.7,0.4-4.7,3.8-6.4,7.2c-1.5,2.8-2.8,4.1-5,4.9c-0.6,0.2-0.9,0.4-0.8,0.4c0.5,0,3.8-1,5.5-1.7c0.9-0.4,1.7-0.7,1.7-0.7
		s-0.5,0.8-1.1,1.8c-4.1,6.1-6.8,12.1-7.3,16.6c-0.1,1.1-0.1,1.1,0.5,0.2c0.3-0.4,0.9-1.2,1.5-1.8c0.7-0.7,1.3-1.7,1.9-2.7
		c1.5-2.9,4.3-6.8,4.9-6.8c0.6,0,0.4,0.4-0.9,2c-2.6,3.2-4.3,6.4-4.9,9c-0.2,0.9-0.5,2.3-0.8,3.1c-0.8,2.9-0.8,3.7-0.6,16
		c0.6,37.6,0.4,33.4,1.3,32.6c0.3-0.3,0.9-0.8,1.3-1c1-0.7,1.1-2.4,0.7-7c-0.3-2.8-0.3-3,0.1-3c1.1-0.2,1.1,15.8-0.1,21
		c-0.2,1-0.4,1.9-0.4,2c0,0.1,0.5-0.4,1.1-1.1c1.3-1.4,1.3-1.4,1.5,0.7c0.4,5.4,2.3,13.2,4.7,19.2c0.8,2,0.8,1.9,0.3-0.9
		c-1.3-7.2-1.7-17.5-0.8-22.7c0.2-1.2,0.8-0.7,0.7,0.5c-0.9,8.5-0.2,18.1,1.8,26.4c0.8,3.3,0.9,3,0.3-2.4
		c-0.8-8.2-0.3-17.6,0.9-16.8c0.2,0.1,0.2,0.4,0,1.7c-0.7,4.3-0.8,9.3-0.1,15.1c0.2,1.7,0.4,4,0.4,5.2l0.1,2.2l1.8,4.9
		c2.1,5.8,3.8,10.2,3.9,10.2c0,0,0-0.4-0.1-0.9c-0.4-2.4-0.3-6.9,0.1-8.1c0.2-0.5,0.6-0.2,0.6,0.3c-0.5,5.7,0,9.9,1.5,12.8
		c1,2.1,1,2.1,1.7,0c0.3-1,1-2.6,1.5-3.6l0.9-1.8l0.3,1.8c0.4,2.4,1.5,7.9,2,9.9c0.4,1.4,0.4,1.8,0.2,2.8c-0.5,3.6,0,8.3,1.4,12.3
		c0.8,2.3,2.3,5.4,2.7,5.4c0.6,0.1,0.6-0.4-0.3-2.2c-1.9-3.8-3-8.4-3-12.5l0-1.5l0.3,1.1c1.4,4.8,4.7,14.1,5.1,14.5
		c0.3,0.3,0.6-4,0.4-5.6c-0.6-5,0.2-14.2,1.2-13.4c0.2,0.2,0.2,0.5-0.1,1.9c-0.9,5.2-0.9,12.3,0.1,8.4c0.3-1.1,0.7-2.7,1-3.5
		c0.3-0.8,0.6-2,0.7-2.7c0.3-2.1,0.9-4.1,1.1-4.2c0.5-0.2,0.5,0.3,0.1,1.8c-1.7,7.2-1.2,10.5,3.1,18.8c5.1,9.9,6,11.8,6.7,13.8
		c0.8,2.3,1.4,4.6,1.4,5.4c0,0.3,0.1,0.5,0.1,0.5c0.1,0-0.2-3.1-0.6-6.8l-0.8-6.8l-1.4-3.6c-2.7-6.8-4.2-13.5-3-13.6
		c0.3,0,0.4,0,0.4,0.8c0,4.2,3.7,15.3,6.4,19.4c0.6,0.9,1.5,2.5,2,3.6l1,2.1l0.1-0.6c0.3-1.9,0.1-3-0.6-4.4
		c-1.1-1.8-2.5-4.8-3.2-6.5c-1.6-3.9-2.5-10.3-1.5-10.3c0.3,0,0.3,0.1,0.4,2.2c0.1,2.5,0.4,3.9,1.3,6.5c0.6,1.7,3.4,7.7,3.7,7.7
		c0.1,0,0.3-4.8,0.5-10.7c0.2-5.9,0.4-10.7,0.4-10.7c0,0,0.4,0.4,0.7,1c1.2,1.9,2.2,4.6,2.2,6.5l0,0.8l0.2-0.8
		c0.6-2.9,1.3-4.4,3.9-8.9c3.2-5.4,3.7-7,4.7-17.4c0.7-6.7,0.7-7.4,0.5-9.1c-0.5-3.9-0.4-8.2,0.2-8.2c0.2,0,0.3,0.6,0.3,3.4
		c0.1,3.9,0.4,5.2,2.2,9c1.1,2.4,1.2,2.3,0.3-0.4c-1.5-4.6-2.1-9.6-1.6-14.2c0.3-2.3,0.3-2.6,0.6-2.5c0.3,0.1,0.3,0.4,0,3.5
		c-0.8,8.1,2.2,17.9,6.7,21.9c1.5,1.3,1.7,1.3,0.9,0.1c-2.6-4.3-4.7-11.7-4.7-16.6l0-1.4l0.4,1.8c1.2,5.2,4.6,12.9,5.6,12.5
		c0.4-0.2,0.3-0.5-0.8-2.5c-3.1-5.6-5.3-14.6-4.6-18.6c0.3-1.5,0.4-1.3,0.7,1.2c0.5,5.8,3.4,13.7,4.5,12.5c0.1-0.2,0-0.6-0.6-1.9
		c-1.4-3-2.6-7-2.8-9.7l-0.1-1.1l0.4,0.5c2.3,2.9,3.1,3.9,4.4,5.2l1.5,1.5l-1.2-1.5c-3.7-4.7-4.1-8.3-2.3-18.3
		c0.7-3.6,1.7-10.5,1.5-10.6c-0.1-0.1-3.4,7.2-4,8.9c-0.7,2-1,4.1-1,5.6c0,0.8,0,0.9-0.3,0.9l-0.4,0.1l0.1-2.1c0.1-3,0.7-4.8,3-9.7
		c3.2-6.9,3.8-10.1,2.9-15.8c-0.4-2.7-0.5-2.7-0.5,0.3c0,4.5-0.9,9-1.8,9c-0.3,0-0.3-0.4,0.1-1.6c0.9-2.5,1.2-7.3,0.9-11.2
		c-0.3-2.7-0.4-3-1.9-5.4c-1.4-2.3-1.6-2.5-1.4-1.9c1.9,5,2.1,14.7,0.5,21.3c-0.6,2.5-0.7,2.8-1.1,2.8c-0.4,0-0.4,0,0.2-2.3
		c1.8-7,1.6-18.1-0.3-21.5c-0.3-0.5-1.7,5.3-1.5,6.2c0.7,4.2,0.1,12-1.3,16.7c-1.4,4.6-4.4,10.9-5.3,10.9c-0.5,0-0.4-0.4,0.2-1.4
		c3.8-6,5.8-13.3,5.8-21c0-4.8,0-4.9-1.4-1.2c-0.6,1.6-1.3,3.4-1.6,4c-0.3,0.7-0.4,1.3-0.4,1.9c0,4.7-2.1,10.5-6.5,17.7
		c-1.9,3.1-2,3.3-2.3,2.9c-0.2-0.2,0-0.5,0.8-1.8c4-6.3,6.2-11.3,6.9-15.6c0.4-2.5,0.3-2.4-1.2,0.6c-1.5,2.9-2.6,4.7-4.4,7.5
		c-1.2,1.9-1.1,1.9-1.6-0.5c-0.6-3.3-1.9-7.4-1.6-5.3c0.5,4.5-1,10.9-3.7,15.7c-1.4,2.5-2.4,4.6-2.7,5.6c-0.1,0.5-0.3,0.7-0.5,0.7
		c-0.8,0,0.1-2.3,2.6-6.8c2.5-4.4,3.3-7.4,3.5-12.6l0.1-2.7l-0.8,2.3c-0.8,2.4-1.8,4.9-2.7,6.7c-0.9,1.8-2.9,5.1-3,5
		c-0.1-0.1-0.3-0.7-0.5-1.4c-1.3-4.2-3.3-6.7-12.7-15.7c-3.8-3.6-5.8-5.9-7.1-8.2l-0.8-1.4l0.1,0.8c0.6,4.7,3.5,10,9.2,16.9
		c1.5,1.8,1.7,2.1,1.4,2.3c-0.3,0.2-0.7-0.3-2.9-3.1c-5.7-7-8.5-13.1-8.6-18.1c0-1.6-0.2-1.9-0.6-0.9c-1.3,2.9-1.2,6.8,0.2,9.7
		l0.6,1.2l-0.7-0.7c-2.3-2.5-4.6-6.5-5.6-9.5c-0.3-0.9-0.3-0.7-0.1,0.8c0.8,4.6,2.6,9.2,5.2,13.4c0.6,1,1.1,1.9,1.1,2
		c-0.4,0.6-2-1.6-3.7-5.1c-2.5-5.1-3.3-8.5-4-16.4c-0.1-1.1-0.3-2.9-0.4-3.8c-0.1-1-0.1-3.1-0.1-4.8c0-1.7,0-3,0-3
		c0,0-0.3,0.9-0.5,2c-1.9,7.4-1.8,14.3,0.3,19.5c0.6,1.5,0.6,1.9,0.2,1.9c-0.2,0-0.5-0.4-0.9-1.6c-2.5-6.4-2.3-14,0.5-22.9
		c0.4-1.3,0.8-2.8,0.9-3.2c0.5-3.2,1.1-7,1.1-7c-0.5-0.5-3.8,7.6-4.7,11.4c-0.5,2-0.5,2.1-0.9,1.9c-1-0.6,2.4-9.8,5.4-14.4
		c0.6-0.9,0.9-1.7,1.2-2.7l0.4-1.5l-1.1,1.2c-1.9,2-3.1,3.6-3.7,4.9c-0.5,1.1-0.9,1.5-1.1,1c-0.3-0.8,2-4,5.5-7.8
		c0.9-0.9,1.1-1.3,1.6-2.6c3-8.6,8.4-16.9,14.4-22.2c1.6-1.4,3.3-2.9,3.7-3.4l0.7-0.8l0.1-2.3c0.3-5.1,1.2-11.8,1.8-12.9
		c0.2-0.5,0.4-0.4,1.4,0.3c0.8,0.6,2.3,1.4,2.4,1.3c0,0-0.2-0.6-0.4-1.3c-0.6-1.4-0.9-2.5-1.3-4.3c-0.5-2.5-0.6-3.7-0.7-7.8
		l-0.1-4.2L293.2,104.1 M194,108.2c-0.2,0.2-0.4,0.5-0.4,0.6c0,0.1-0.1,0.2-0.1,0.2c-0.1,0-0.2,0.2-0.4,0.5
		c-0.1,0.3-0.3,0.5-0.6,0.5c-0.6,0-1.1,0.5-1,0.8c0.1,0.3,0,0.3-0.4,0.3c-0.6,0-0.9,0.3-0.9,0.8c0,0.2-0.1,0.5-0.3,0.5
		c-0.3,0.1-0.3,0.7,0,0.9c0.5,0.4,1.1,0.1,1.7-0.8c0.3-0.5,1-1.3,1.6-1.9c1.2-1.1,2.2-2.5,2.1-2.8
		C195.1,107.7,194.3,107.8,194,108.2 M195.8,110.2c0,0.2,0.1,0.6,0.2,0.9c0.2,0.6-0.1,0.7-1.4,0.4c-0.8-0.2-0.8-0.2-0.5,0.8
		c0.2,0.5,0.3,0.9,0.2,0.9c-0.1,0.1-1.5-0.2-2-0.3c-0.2-0.1-0.3,0-0.1,0.6c0.2,0.8,0.1,1.1-0.4,1.1c-0.5,0-0.4,0.2,0.3,0.8
		c0.8,0.7,1.3,0.7,2.3,0c1.4-0.9,3.3-3.5,3.6-4.8c0-0.2-0.2-0.3-0.6-0.4c-0.4-0.1-0.9-0.2-1.1-0.2
		C195.8,109.9,195.8,110,195.8,110.2 M187,112.9c0.7,3.3,2.8,5.5,4.3,4.6c1.1-0.6,0.8-1.4-0.8-2.2c-0.5-0.3-1.4-0.9-1.8-1.3
		c-0.5-0.4-1.1-1-1.3-1.2l-0.5-0.4L187,112.9 M184.8,113.2c0,0.2,0.2,0.7,0.5,1.3c0.7,1.4,2,2.4,1.7,1.4c-0.1-0.2-0.2-0.8-0.2-1.3
		c-0.1-0.6-0.2-0.9-0.4-1c-0.2-0.1-0.7-0.3-1.6-0.7C184.8,113,184.8,113.1,184.8,113.2 M247.8,118.6c-3,2.3-5,2.9-9.9,2.9
		c-2.2,0-3.7,0.1-4.2,0.2l-0.8,0.2l1.2,0c1.5,0,3.1,0.4,4.3,0.9l1,0.4l-1.6,0.4c-3.6,0.9-7.3,2.9-9.6,5.1c-0.9,0.9-0.9,0.9,1.2,0.3
		c1-0.3,1.8-0.5,1.9-0.5s-1.4,1.5-3.3,3.4c-1.9,1.9-3.4,3.4-3.3,3.4c0.1,0,1.4-0.8,3-1.7c1.6-0.9,2.9-1.6,3-1.6c0.5,0.3-0.2,0.8-4,3
		l-4.1,2.4l-2.9,2.9c-1.6,1.6-2.8,2.9-2.7,2.9c0.1,0,0.8-0.1,1.6-0.4l1.5-0.4l-0.7,0.9c-1.2,1.5-3.7,3.9-5.1,5.2
		c-0.8,0.7-1.5,1.3-1.6,1.3c-0.2,0.1,2.9,0,3.4-0.1c0.2,0-0.5,0.7-1.5,1.7c-2,2-3.3,3.9-4.5,6.4c-1.3,2.7-1.3,3,0,1.7
		c1-0.9,2.8-2,3.8-2.3l0.4-0.1l-0.3,0.9c-0.8,2.6-3.5,8.8-5,11.4c-0.7,1.1-0.6,1.1,1.8-0.2c2.4-1.3,2.2-1.3,1.8-0.1
		c-0.2,0.5-0.6,2-0.9,3.3c-0.5,2-0.9,2.9-2.2,5.8c-0.9,1.9-1.9,4.2-2.3,5.1c-1.5,4.2-3,6.9-4.7,8.4c-3.1,2.8-6.6,5.1-10.1,6.6
		c-1.7,0.7-2.3,1.3-1.6,1.5c0.8,0.3,6.5-2.7,9.4-4.9c0.7-0.5,1.4-1.1,1.6-1.2c1.1-0.8-7.1,10.5-8.4,11.6c-0.5,0.4-0.3,0.5,1,0.5
		c1.2,0,3.2,0.2,3.3,0.4c0,0-0.1,0.8-0.2,1.7c-0.6,3.4-1.1,11.3-0.8,11.3c0.2,0,1.9-1.1,2.9-2l1.1-0.9l-0.1,2.1
		c-0.1,1.1-0.1,2.8-0.2,3.6c-0.1,1.6,0.1,3.6,0.5,5.1l0.3,0.9l0.4-0.5c1.4-1.7,2.4-4.9,2.4-7.4c0-1.6,0-1.7,0.4-1.6
		c0.2,0.1,0.3,0.4,0.3,0.9c0.1,3.4-0.7,6.2-2.4,8.5c-0.7,0.9-0.8,1.2-0.5,1.3c1,0.2,3.7-5.6,4-8.6c0.1-1.2,0.7-1.5,0.7-0.3
		c0,2.5-1.5,6.2-3.4,8.6l-1.1,1.3l0.9,1.8c1.6,3.2,3.4,5.7,8.7,12.2c1.7,2.1,3.6,4.5,4.3,5.3c2.6,3.3,5.4,3.8,9.8,1.8l1-0.4
		l-0.5-0.5c-1.4-1.2-1.3-3.5,0.2-4.3c0.7-0.4,0.7-0.4-0.8-0.8c-4.7-1.5-7.1-4.5-8.5-10.6c-0.3-1.5-0.3-1.5,0.7,0.3
		c2.6,4.7,5,7.1,9.1,9.2c1.7,0.9,2,1,3.3,2.5c1.9,2.1,3.1,2.7,4.3,2.2l0.4-0.2l-0.7-0.6c-1.5-1.4-0.9-4.4,0.8-4.4
		c0.8,0-0.8-1.5-2.9-2.8c-3.1-1.9-4.9-4.6-6.3-9.1c-0.6-2-0.6-2,1.5,1c1.9,2.8,6.6,7.9,8.4,9.2c0.5,0.4,1,0.8,1,0.9
		c0.3,0.5,0.5,0.2,0.5-0.6c0-0.7,0.1-0.9,0.4-1.3c0.6-0.6,0.4-1.2-1.7-3.1c-1.5-1.4-1.9-2-2.9-3.8c-0.7-1.1-1.4-2.4-1.7-2.8
		l-0.5-0.7l0.6,0.4c2.6,1.8,5.3,4.4,6.1,5.7c0.3,0.5,0.7,1.1,1,1.4c0.3,0.3,0.6,0.8,0.7,1.1c0.1,0.4,0.1,0.3,0.2-0.6
		c0-3.1,1.5-3.7,3.6-1.5c1.8,1.9,2.7,1.7,2.7-0.7c0-1.1-0.1-1.5-0.4-1c-0.5,0.8-2.1-0.1-3.3-1.7c-1-1.3-1.4-1.8-2.7-2.7
		c-1.4-1-2.3-2.1-2.8-3.6c-0.7-2.1-0.7-2-1.3-2c-0.7,0-1.4,0.4-1.8,1c-0.2,0.3-0.4,0.5-0.5,0.5c-1.1-0.2,0.6-2,2-2.2
		c0.5-0.1,0.6-0.2,0.5-0.5c-0.1-0.2-0.1-0.4-0.1-0.5c0-0.7-3.2-0.2-3.2,0.6c0,0.1-0.2,0.1-0.3,0.1c-0.5,0-0.4-0.5,0-1
		c0.5-0.5,1.5-0.9,2.3-0.9c0.8,0,0.7-0.3-0.1-1.2l-0.4-0.5l0.7,0.3c1.4,0.6,2.4,2,3.1,4.3c0.9,3.2,2.6,5.1,2.9,3.2
		c0.2-1.7,2-1.7,3,0.1c0.8,1.3,1.5,0.6,1.5-1.4c0-2.6-1.1-5.1-3.4-8.2c-3.4-4.5-6.3-6.9-12.7-10.3c-4-2.1-5.5-3.5-8.5-7.3
		c-1-1.2-2.2-2.8-2.7-3.4l-1-1.1l0.9,0.4c0.5,0.2,4.4,2.1,8.8,4.3c7.7,3.8,8.9,4.3,7.2,3.2c-1.8-1.2-2.7-2.9-4.4-7.8
		c-0.7-2.2-1.7-4.7-2.4-6.1c-2.5-5.1-2.9-7.5-1.7-9.8l0.5-0.9l-0.9,0.8c-1,0.9-2,1.7-3.1,2.2l-0.7,0.4l0.5-0.7
		c1.2-1.9,2.1-4.7,2.3-7.4c0.1-1.7,0.1-1.7-0.9-0.6c-0.9,1-2.5,2.3-3.7,2.9c-0.6,0.3-1.5,1-2.3,1.7c-2.2,2.1-4.7,3.5-4.7,2.7
		c0-0.1,0.7-0.6,1.5-1.2c2.4-1.6,3.5-2.8,4.6-5l1-1.9l-2.3,2.3c-2.8,2.8-3.8,3.6-4.1,3.4c-0.4-0.2-0.3-0.3,2.1-2.5
		c5.7-5.2,7.1-7.5,10.7-18.1l0.9-2.7l-2.6,0l-2.6,0l0.8-0.6c4.1-2.9,9.4-7.9,9.4-8.8c0-0.1-0.7,0.1-1.5,0.3c-2,0.5-4.9,1-5.1,0.7
		c-0.4-0.4,0-0.6,1.1-0.8c1.4-0.1,3.1-0.5,4.7-1c1.4-0.4,1.5-0.5,2.1-2.8l0.4-1.5l0,1.2c0.1,6.8-1.3,12-4,14.9c-0.9,1-1,1.1-0.6,1.4
		c0.8,0.6,3.3-3,4.3-6.1c0.8-2.4,1-4.5,1.3-9.7c0.4-8.2,0.6-8.8,5-12.3c3.2-2.6,4.1-3.5,5-4.6c1.1-1.4,1-1.4,0.9-0.3
		c-0.1,1.1-0.6,2.6-1.1,3.4c-0.2,0.3-0.4,0.7-0.6,1c-0.6,1,2.1-2,3.1-3.4c2.2-3.3,3.4-7.1,2.9-9.6
		C249.2,117.5,249.2,117.5,247.8,118.6 M239.1,154.1c0,0.2,0.2,0.9,0.5,1.6c0.8,2.1,2.3,6.8,2.9,9.2c0.6,2.3,0.8,2.7,1.3,2.2
		c0.4-0.4-1.7-8.1-3.3-12.2C239.9,153.8,239.1,153.3,239.1,154.1 M237.8,157c-0.1,0.1,0.3,1.2,0.8,2.4c2.3,5.2,3.2,9.6,3.2,15.5
		c0,3.8,0.1,4,0.8,3.5c0.4-0.2,0.3-6.4-0.1-9C241.6,163.2,238.5,155.1,237.8,157 M234.1,157.7c-0.1,0.1,0,0.4,0.2,0.6
		c2.4,3.3,3.5,5.6,4.7,10.4c1.3,4.9,1.3,7.8,0.3,13.5c-1,5.4-1.1,8.4-0.5,8.7c0.5,0.2,0.6-0.2,0.7-2.1c0-1.9,0.2-3,1-7.4
		c1-5.3,0.6-9.8-1.4-15.8C237.7,161,234.7,156.3,234.1,157.7 M290,158.7c0.7,0.2,1.7,0.2,2.7,0.2c1.5-0.1,1.6,0,1.6,0.3
		c0,0.3-0.2,0.4-0.8,0.5c-1.8,0.3-4.9-0.3-4.9-0.9C288.6,158.4,288.6,158.4,290,158.7 M289.6,160.5c0.7,0.2,1.3,0.3,2.3,0.2
		c1.4-0.1,2,0.4,0.8,0.7c-1.8,0.4-4.8-0.2-4.8-0.9C287.9,160,287.9,160,289.6,160.5 M290.1,162.3c0.5,0,0.6,0.1,0.6,0.3
		c0,0.5-2.7,0.4-3.1-0.2c-0.3-0.4,0.2-0.6,1-0.4C289.1,162.2,289.7,162.3,290.1,162.3 M346.1,170.9c0,0.1,0.3,0.7,0.7,1.4
		c0.8,1.8,1.4,3.7,1.9,6.4c1.5,8.5,2.2,10.5,4.3,13.3l0.7,0.9l-1.5,0c-1.8,0.1-1.6,0.2-2.4-2c-1.6-4.6-4.5-9-5.7-8.7
		c-0.5,0.2-0.4,0.6,0.3,1.2c2.1,1.7,5.4,8.5,5.4,11.2c0,2.6,0.9,5.3,3.5,10.7c1.6,3.4,3.2,7,2.9,7c-0.1,0-2.7-3.4-3.4-4.5
		c-0.4-0.6-1-1.6-1.3-2.3c-0.4-1-0.6-1.3-0.9-1.3c-1.2,0,0.3,2.8,3.5,6.9c1.8,2.3,2.7,3.8,2.7,4.3v0.5l-1.2-0.8
		c-0.7-0.4-1.3-0.8-1.3-0.9c0-0.4-2.3-2.9-4.3-4.6c-2.4-2.1-3.1-2.8-4.1-4.4c-0.6-1-0.8-1.1-1.2-0.6c-0.4,0.7,1.3,2.7,6,7.1
		c2.1,1.9,2.1,2,0.6,1.5c-3.2-1.2-9.9-6.5-11.1-8.9c-0.7-1.4-1.8-1.4-1.2,0c0.8,1.9,3.3,4.4,7,6.8c4.6,3.1,4.8,3.3,5.4,4.5
		c0.5,1,1.4,2.5,2.2,3.8l0.3,0.4l-0.4-0.3c-0.2-0.1-0.9-0.6-1.6-1c-1.1-0.7-4.2-2.5-4.8-2.7c-0.3-0.1-0.8,0.3-0.7,0.6
		c0,0.1,1,0.7,2.2,1.4c4.7,2.6,6.8,4.2,8.7,7.1c2.5,3.7,4.5,8.1,5,10.7l0.2,0.9l-0.6-0.7c-0.8-1-2-1.5-3.3-1.5
		c-1.1,0-1.7,0.2-1.1,0.4c1,0.3,2.4,5,4,13.9c0.4,2,0.7,3.8,0.8,4c0.2,0.7-3.3-1.5-4.7-2.9c-0.5-0.5-0.9-0.8-1-0.8
		c-0.3,0,0,3.7,0.4,4.9c0.3,0.9,0.4,1.1,0.2,1.1c-0.4,0-0.4,0.3,0.1,1.5c0.6,1.5,0.6,1.5-0.3,0.4c-1.2-1.5-3.1-3.2-5.9-5.3
		c-5.7-4.3-7.4-6.7-7.3-10.4l0.1-1.6h-0.4c-0.5,0-0.6,0.4-0.7,2.1c0,3.5,2,6.5,7.4,10.5c3,2.2,5.3,4.4,6.7,6.2
		c0.9,1.1,2.4,3.6,2.4,3.8c0,0.1-0.6-0.4-1.3-1c-1.4-1.2-2.7-2.1-7.8-5.5c-4.6-3-5-3.4-6.4-5.5c-3.1-4.7-4.6-9.4-5.5-17.3
		c-0.4-3.2-0.5-3.7-1.1-3.5c-0.4,0.1-0.3,1.4,0.4,5.8c1.1,7.5,2.6,11.6,6.3,17c0.8,1.1,0.9,1.4,1.2,3c0.2,1.1,0.6,2.3,1,3.3l0.7,1.5
		l-1.6-1.7c-4.1-4.2-6.8-8.9-8.3-14.6c-0.3-1.2-0.4-1.4-0.7-1.5c-1.5-0.2,1.2,7.2,4.5,12.2c1.2,1.8,1.8,2.5,5.7,6.4
		c2.4,2.4,4.7,4.8,5.1,5.3c0.4,0.5,0.8,1,0.9,1c0.1,0,0.8,0.8,1.5,1.8c3.7,4.9,5.4,9.3,5.2,13.7c-0.1,2.6-0.2,2.7-0.9,0.8
		c-1.3-3.8-3.7-7.9-6.6-11.3l-0.5-0.6l0,4.2c0,3.2-0.1,4.1-0.2,3.8c-1.9-4.5-3.3-6.7-7.9-12.4c-1.1-1.3-2.5-3.2-3.2-4.3
		c-1.4-2-1.6-2.1-0.9-0.8c0.6,1.3,1.1,2.8,2.1,6.3c0.4,1.7,0.9,3.3,1.1,3.6c0.2,0.3,1,1.5,1.8,2.7c4.5,7,8.5,16.8,6.9,16.8
		c-0.1,0-0.3-0.2-0.4-0.5c-1-4.7-3.7-10.7-7.2-16c-0.3-0.5-4.4-3.5-4.1-3c0.1,0.1,0.7,1,1.4,2c2.5,3.6,3.9,6.4,5.7,11.8
		c1,2.9,1.1,3.5,0.6,3.4c-0.2,0-0.6-1-1.3-3c-2.1-6.3-3.5-8.9-7.9-14.8c-5.4-7.2-8-12.3-9.1-18c-0.5-2.7-0.6-2.8-0.9-1.3
		c-1.1,4.7-0.1,11,3,19c0.5,1.3,0.9,2.3,0.9,2.4c0,0-0.3,0.1-0.6,0.1c-0.9,0-1.8-0.8-3.2-2.8c-0.7-1-1.7-2.3-2.3-3l-1.1-1.2
		l-1.1,0.9c-2.4,2-2.4,8,0,13c0.7,1.5,0.8,1.6,0.4,1.8c-0.5,0.2-1.8-2.6-2.4-5.3c-0.4-1.6-0.5-4.7-0.3-6.6l0.1-1l-0.9,0.9
		c-1.8,1.8-2.3,4.7-1.5,9.9c0.2,1.2-0.2,0.3-0.7-1.8c-1.3-4.7-1.4-10.4-0.3-14.7c0.2-0.9,0.2-1.1,0-1.3c-0.5-0.5-0.8-0.1-1.1,1.4
		c-1.8,7.6-0.1,17.3,4.1,23.4c0.3,0.4,0.7,1.2,1.1,1.9c1.3,2.6,4.1,4.9,6.5,5.4c0.7,0.1,0.8,0.8,0.1,0.8c-0.8,0-2.8-1-4-1.9
		c-2.1-1.6-4.8-3.5-4.9-3.3c-0.1,0.1,1.5,2.7,2.3,3.8c1.5,2,4.3,4.1,7.3,5.6c1.8,0.9,1.9,0.9,1.5,1.2c-0.2,0.2-0.5,0.1-1.8-0.6
		c-5-2.4-7.9-5.3-10.1-10.1c-0.4-0.8-0.9-1.8-1.3-2.3c-0.4-0.5-0.8-1.2-0.9-1.5c-0.5-1.3-0.4-0.4,0.2,1.3c1.9,5.4,4.9,10.3,9,14.5
		l2.1,2.1h-0.9c-1.7,0-2.3-0.2-4.1-1.8c-6-5.4-8.2-10-9.3-19.5c-0.2-1.9-0.3-2.4-0.6-2.6c-0.7-0.4-0.7,0.1-0.4,2.9
		c0.9,8,2.8,12.8,6.8,17.1c1.5,1.6,1.4,1.5-1.7-0.9c-1.6-1.3-4-3.2-5.1-4.2l-0.5-0.4l0.4,0.9c1,2.3,2.7,4.7,4.7,6.9
		c1.1,1.1,1.2,1.3,1,1.5c-0.8,0.7-5.2-5.1-6.8-9c-0.4-0.9-1-2-1.3-2.5c-0.4-0.5-0.8-1.2-0.9-1.5l-0.2-0.6l-0.1,0.6
		c-0.9,4.6,3,11.2,9.6,16.4c3.9,3.1,7.4,7.5,8.6,10.8c0.3,0.7,0.5,1,0.7,1.1c1.3,0.2-0.4-3.8-3-6.8c-0.8-1-0.8-1,0.9,0.2
		c2.3,1.5,4,4,4.7,6.8c0.3,1,0.4,1.3,0.7,1.3c0.8,0.1,0.5-2-0.7-4.2l-0.7-1.3l0.6,0.7c1.9,2.2,3.5,4.7,4.7,7.2
		c0.7,1.6,1.4,2.1,1.5,1.3c0.1-0.4-1.6-3.8-2.7-5.5c-0.5-0.8-0.9-1.4-0.8-1.4c0.3,0,2.4,1.7,2.8,2.2c1.7,2.4,2.8,5.4,3.3,9.7
		c0.1,0.9,0.2,1,0.5,1c1.6,0-0.7-8.1-3.2-11.6c-0.8-1.1-1-1.5-1.3-2.7c-0.5-2.3-0.4-2.4,0.6-0.7c0.5,0.8,1.5,2.4,2.3,3.5
		c4.2,5.9,4.8,7.3,4.9,13c0.1,3.7,0.2,4,0.8,3.5c0.2-0.2,0.3-0.6,0.2-3.7c-0.1-5.7-0.7-7.2-4.8-13c-3.5-5-4.5-7-4.5-9.5
		c0-0.9-0.2-2.2-0.4-3.2c-0.9-3.8-0.4-12.4,0.7-11.4c0.2,0.2,0.1,0.5-0.1,1.7c-0.8,4.5-0.2,10.2,1.5,13.8c0.5,1,3.5,5.1,3.2,4.3
		c-0.1-0.1-0.4-1-0.8-1.8c-1.5-3.3-2.2-7.6-1.3-7.6c0.3,0,0.3,0.1,0.4,1.3c0.1,2.3,0.6,3.9,2.7,8.4c1.9,4.1,3.9,6.3,7.1,7.9l0.7,0.3
		l0-4.9c0-6,0.4-10.6,0.8-8.8c0.1,0.3,1.1,4.6,2.4,9.6l2.3,9.1l0.1-1.3c0.6-5.4-0.1-13-1.7-18c-0.4-1.3-0.4-1.7,0.2-1.5
		c0.4,0.1,1.5,4.7,2,7.9c0.6,3.9,0.6,9.9,0.1,13c-0.1,0.6-0.2,2.4-0.3,4.2c-0.1,2.5-0.2,3.4-0.5,4.2c-0.3,0.8-0.4,1.4-0.1,1.1
		c0,0,0.4-0.5,0.8-1c0.9-1.1,1.8-2.5,2.7-4.1c0.4-0.7,0.6-1.2,0.6-1.1c0,0.6-1.3,3.6-2.8,6.5c-2.6,5-3.5,8.7-2.6,10.4
		c0.5,0.9,1.1,0.3,0.8-0.8c-0.5-2,0.3-4.9,2.2-8.4l0.5-1l0,1.6c0,2,0.3,2.9,1,3c0.5,0.1,0.5,0.2,0.1-1.9c-0.3-1.6-0.1-2.9,1.1-6.9
		c0.8-2.6,1.3-5.5,1.6-8.6c0.1-1.4,0.3-2.8,0.4-3c0.3-0.6,0.1,7.2-0.2,8.8c-0.2,1.3-0.1,1.8,0.4,1.8c0.8,0,1.3-8.2,0.7-12.4
		c-0.3-2-0.3-3.3-0.1-6.5l0.1-1.9l0.3,0.7c0.8,1.9,1.8,6.5,1.8,8.9c0,1.5,0.2,1.1,0.6-1c0.5-3,0.6-4.4,0.7-7.7
		c0.1-3,0.1-3.2,0.3-2.6c2.4,7,1.4,16.5-2.7,24.4c-0.9,1.8-0.9,2.7,0,2c0.7-0.6,3.9-8.4,3.9-9.6c0-0.2,0-0.3,0.1-0.2
		c0.1,0.1-0.1,1.9-1.3,8.2c-0.5,3-1,5.5-0.9,5.6c0,0.1,1.1-1,2.3-2.4c1.2-1.4,2.3-2.5,2.3-2.4c0.2,0.2-1.2,3.8-2.5,6.6
		c-2.2,4.7-2.8,6.9-3.3,11.5c-0.4,3.7-0.4,4.6,0,4.7c0.5,0.1,0.6-0.1,0.9-2.8c0.4-4.2,1.1-7.4,2-9.7c0.5-1.1,2.7-5.7,2.5-5.2
		c-0.7,2.3-1.8,9.9-2,13.2c-0.1,1.1-0.1,2.6-0.2,3.2c-0.1,1.4,0.1,1.5,0.4,0c0.3-1.6,1.3-4.6,2.7-7.8c4.7-11.1,5.1-14.3,3.1-22.4
		c-0.3-1.2-0.5-2.2-0.5-2.2c0,0,0.8,1,1.7,2.2c2,2.6,1.9,2.6,1.8,1.2c-0.2-1.9-0.6-3.4-1.8-7c-0.7-2-1.4-4.3-1.5-5.1
		c-0.1-0.8-0.3-1.6-0.3-1.8c-0.1-0.3,0.1-0.2,0.9,0.6c2.8,2.9,7.1,5.4,7,4.2c0-0.3-0.3-0.6-1.4-1.2c-4.6-2.6-6.7-5-7.7-8.6
		c-0.7-2.4-1.7-5.1-2.6-7.2c-0.7-1.6-0.7-1.6,0.7-0.8c2.9,1.5,5.5,4.8,6.3,8.1l0.3,1.1l0.3-0.5c1.4-2.6,1.1-6.9-0.7-11
		c-0.4-0.8-0.6-1.5-0.5-1.4c0.5,0.3,3.1,4.9,3.1,5.5c0,0.2,0.5,0.5,0.8,0.4c0.3-0.1,0.2-0.6-0.3-1.9c-0.9-2.1-2.3-4.1-5.5-7.7
		c-2.9-3.2-6.8-10.4-6.1-11.1c0.3-0.3,5.4,4.1,7.8,6.6c1.8,1.9,1.8,1.9,0.4,0c-4.5-5.9-7.5-14-8-21.8c-0.1-2-0.1-2,0.7-0.8l0.6,0.9
		l0-2.2c0-3.1-0.6-17.9-0.8-20.6l-0.1-1.2l0.6,0.5c0.5,0.5,1.2,0.9,1.4,0.9c0.3,0-0.4-4.4-1.8-11.4c-0.4-2-0.7-3.7-0.7-3.7
		c0.2-0.2,2.6,5,3.6,8.2c0.6,1.7,0.8,2,1.3,1.6c0.5-0.5-1.8-6.4-4.5-11.1c-2.5-4.4-3.2-7.3-2.7-10.9c0.2-1.7,0.2-2.3-0.3-3.1
		c-0.3-0.5-0.5-0.5,3.1,1.1c1.5,0.7,2.7,1.2,2.8,1.1c0.1,0-1.9-3.8-4.3-8.4c-2.4-4.6-4.4-8.3-4.4-8.4c0,0,1,0.1,2.1,0.3
		c2.4,0.4,2.4,0.4,1.5-0.7c-1.5-1.8-3.2-4.5-5-7.9l-1-1.8l0.9,0.9c2.5,2.3,7,4.2,7,2.9c0-0.3-0.1-0.4-0.8-0.6
		c-2.9-0.8-4.6-1.9-7.3-5c-2.2-2.6-2.5-3.3-0.6-1.3c1.7,1.8,3.2,2.6,4.6,2.7c1.3,0,1.2-0.6-0.2-1c-2.8-0.9-4.7-2.9-7.4-7.8
		c-2-3.5-4.8-7.2-5.5-7.2c-0.1,0-0.6-0.5-1.2-1.1C346.5,171.2,346,170.8,346.1,170.9 M281.7,187.5c-0.9,0.4-1.4,2.5-1,3.9
		c0.7,2,4.3,6.3,5.1,6c0.1,0-0.4-1.1-1.1-2.4c-1.4-2.6-1.6-3.4-1.1-4.5c0.4-0.8,0.3-1.3-0.1-2.1C283,187.4,282.5,187.1,281.7,187.5
		 M307.6,187.7c-1.3,0.9-0.7,6.6,1,8.6c0.8,1,1.2,1.2,0.9,0.5c-0.4-0.8-0.2-2.6,0.5-4.1C311,190.6,309.2,186.7,307.6,187.7
		 M300.9,190.7c-2,1.7-1.3,6.6,1.4,9.8c0.8,0.9,0.8,0.8,0.2-1.7c-0.7-3.1-0.7-3.9,0.1-5.1C303.9,191.7,302.5,189.3,300.9,190.7
		 M287.7,191.3c-0.9,1-1,2.8-0.3,4.2c1.1,2.2,4.5,5.9,4.9,5.4c0,0-0.4-1-1-2.1c-1.6-3-1.8-3.7-1.3-5
		C290.8,191.9,288.9,189.8,287.7,191.3 M294.4,192.7c-1.1,0.8-1.4,3.1-0.5,4.6c1.2,2.3,4.3,5.7,4.8,5.2c0,0-0.4-1-1.1-2.2
		c-1.5-2.7-1.7-3.4-1.2-4.5c0.4-1.1,0.4-1.3,0-2.1C295.9,192.6,295.1,192.2,294.4,192.7 M241.2,229.3c-1.1,0.4-0.8,1.6,0.7,3.5
		c1.2,1.5,1.7,1.7,3.8,1.6c1.8-0.1,3.4-0.4,2-0.5c-1,0-2.1-0.9-3.8-3.1C242.9,229.3,242.1,228.9,241.2,229.3 M252.3,236
		c-3.5,13.4-5.9,20.7-9.3,27.6c-1.9,4-5.3,7.6-10.1,10.8c-1.9,1.2-1.9,1.3-1.8,1.7c0.3,0.7,3.3-1.2,6.7-4.2l1.5-1.3l-1,1.6
		c-0.5,0.9-1.6,2.8-2.3,4.1c-2.1,3.9-2.2,3.9-7.6,6.6c-5.6,2.8-7.7,4.7-9.2,8.4c-0.9,2.2,0.2,1.9,1.3-0.3c1.6-3.2,3.5-4.8,8.8-7.4
		c2.5-1.2,3-1.4,2.7-1.1c-0.5,0.7-2.7,2.7-4.2,3.8c-3.3,2.5-6.1,5.7-7.7,8.7c-0.8,1.5-1.7,3.9-1.6,3.9c0,0,1.8-1.1,3.9-2.5
		c2.1-1.4,4-2.6,4.1-2.7c0.1-0.1-0.1,0.5-0.5,1.3c-2.1,4-3.7,9.7-4.2,14.5l-0.1,1.1l1.2-1.3c0.8-0.9,1.4-1.8,2.2-3.2
		c1.7-3.3,5-8,5.6-8c0.6,0,0.3,0.5-1.1,2.3c-2.5,3.4-4.4,6.8-4.6,8.3c-0.1,0.4-0.3,1.6-0.6,2.6c-1.5,5.5-1.5,10.7-0.2,15.7
		c0.2,0.8,0.6,1,0.9,0.7c0.2-0.2,0.2-0.4-0.1-1.5c-0.7-2.9-1-8.3-0.6-10.7l0.2-0.8l0.1,1.4c0.4,5.1,1.6,9.6,3.7,14
		c0.4,0.8,0.7,1.4,0.7,1.4c0,0,0.1-0.8,0.2-1.7c0.1-0.9,0.4-2.2,0.6-3c0.4-1.3,0.4-1.4,0.2-2.9c-0.3-2.1-0.3-6.8,0-7
		c0.4-0.4,0.6,0.1,0.6,2.6c0,5,0.7,8.1,2.2,10.2c0.2,0.3,0.2,0.2,0.1-0.6c-0.3-1.7-0.1-5,0.2-5c0.3,0,0.3,0.2,0.4,2.3
		c0.1,2.5,0.4,4.7,0.9,5.4c0.2,0.2,1.1,1.7,2.2,3.2c1.7,2.5,3.8,6.4,4.3,7.9c0.1,0.3,0.2,0.5,0.3,0.5c0,0-0.1-0.5-0.3-1.1
		c-0.2-0.5-0.3-1-0.3-1.1c0-0.1,0.4,0.6,0.8,1.5c1.5,2.7,3.2,5.2,5.4,7.5c1.5,1.7,1.6,1.7,1.5,0.7c-0.4-3.7-1.1-5.8-5.5-16.3
		c-3.3-7.8-4.1-10-5-14.1c-0.6-2.9-0.7-8.1-0.1-10.4c0.7-2.9,2-5.9,2.6-6c0.4-0.1,0.4,0.2-0.5,2.1c-2.3,5.1-2.4,10.8-0.5,17.5
		c1.1,3.6,1,3.6,1,0.4c0-2.7,0.4-6,0.5-4.3c0.3,4,1.7,8.2,3.7,11.5c0.3,0.5,0.9,1.8,1.3,2.7c2.2,5.5,5.1,10.9,5.7,10.6
		c0.4-0.2,0.3-0.7-0.6-2.3c-2.9-5.2-4.2-8.5-4.6-11.2c-0.2-1.1-0.5-3.4-0.8-4.9c-1.3-6.6-1.7-17.7-0.6-17.7c0.2,0,0.2,0.7,0.2,4.4
		c-0.1,4.2,0.1,6.5,0.5,9.7c0.2,1.6,0.4,1.4,0.6-0.6l0.1-1.2l0.1,0.8c0.9,5.6,3.6,13.6,4.8,14.3c0.8,0.5,0.7-0.4-0.3-2.5
		c-1.9-4.2-3.2-8.7-3.7-13.1l-0.3-2.3l0.5-2c0.5-2,0.5-2,0.2-4.2c-0.4-3.7-0.3-11.8,0.1-11.9c0.3,0,0.3,0,0.3,4.4
		c0,3.9,0.2,6.9,0.3,6.7c0.2-0.2,0.8-5.1,1-8.2c0.3-4.1,0.6-6,1.2-7.8c0.7-2.1,0.8-2,0.6,1.4c-0.1,3.6,0,4.4,1,5.3l0.6,0.5l0.1-1
		c0.2-1.4,0.5-2.8,1-3.8c0.2-0.5,0.4-0.7,0.3-0.6c-1.1,3.9,1.7,14.9,3.3,13.3c0.2-0.2,0.2-0.4-0.5-1.7c-2.2-4.1-2.6-8.7-1.3-14.2
		c0.3-1.5,1.5-3.9,1.3-2.8c-0.7,4.9,0.2,13.6,1.5,13.4c0.4-0.1,0.4-0.3,0-2.4c-1.1-4.7-0.8-12.5,0.6-15.9c0.3-0.7,0.5-1.5,0.6-1.8
		l0.1-0.6l1.2,1.2c1.6,1.6,5.3,4.2,5.7,3.9c0,0,0-0.5-0.2-1.1c-0.1-0.6-0.5-3.2-0.9-5.7c-0.4-2.6-0.8-5.5-1-6.5l-0.3-1.8l-1.5-2.3
		c-0.8-1.3-1.6-2.3-1.6-2.3c-0.4,0,0.3,4.6,1,6.6c0.3,0.8,0.3,1.1,0.2,1.2c-0.7,0.7-1.8-3.6-1.9-7.2c-0.1-2.8-0.3-3.1-0.8-1.3
		c-0.7,2.7-2,5.4-3.7,7.9c-1.2,1.8-1.6,2.2-1.5,1.5c0.6-2.6,1.3-12.7,0.8-11.9c-0.1,0.1-0.6,0.9-1,1.7c-1.7,2.8-3.1,4.6-8.9,10.5
		c-2.4,2.4-6.6,5.6-7,5.4c-0.4-0.2-0.1-0.6,0.9-1.3c4.3-2.8,7.9-6.6,9.6-10.1c0.9-1.9,2.6-5.9,2.5-6c0,0-0.9,0.8-1.9,1.8
		c-2.8,2.8-9.3,8.1-9.7,7.9c-0.4-0.3-0.1-0.6,1.4-1.8c6.5-5,10.6-9.1,11.3-11.6c0.5-1.5,1.4-5.3,1.3-5.3c0,0-0.4,0.5-0.9,1.1
		c-1,1.4-2.9,3.4-3.6,3.9l-0.5,0.4l0.4-0.7c1.7-2.7,2.5-5.2,3.5-10.1c0.9-4.7,0.9-4.5-0.2-3.1c-1.3,1.7-1.7,2.1-2.1,2.1
		c-0.5,0-0.3-0.4,0.6-1.4c0.5-0.5,1.3-1.6,1.8-2.3l0.9-1.4l-0.1-1.2c-0.2-2.6-1.4-9.5-1.7-9.8C252.5,235.4,252.3,235.7,252.3,236
		 M240.9,237.9c-1,0.7-0.9,1.3,0.4,2.6c1.3,1.3,1.6,1.3,4.6,0.6c2.1-0.5,2.1-0.5,0.9-0.8c-1.8-0.5-2.7-1-3.6-1.8
		C242.1,237.5,241.7,237.4,240.9,237.9 M238.3,242.3c-2.2,2.2,1.6,4.3,5.8,3.3c1.8-0.4,2.1-0.6,1.1-0.6c-1.1,0-2.7-0.8-4-2.1
		C239.8,241.5,239.2,241.4,238.3,242.3 M235.3,245.5c-1.4,1.2-0.1,3.4,2.3,4c1.3,0.3,3.7,0,5.7-0.7c0.1-0.1-0.3-0.3-1-0.5
		c-1.4-0.5-2.5-1.1-3.7-2C236.8,245,236.1,244.8,235.3,245.5 M226.7,247.6c-0.7,0.7-0.6,1.5,0.3,2.4c1.3,1.3,3.2,1.6,6.3,0.9
		c2.1-0.5,2.1-0.6,0.8-0.9c-1.2-0.3-2.6-0.9-3.6-1.8C228.9,246.9,227.6,246.7,226.7,247.6 M285.3,294.7c-0.5,2.4-0.6,8.9-0.3,11.6
		c0.1,0.7,0.1,1.3,0.1,1.3c0,0-0.5-0.8-1.1-1.8c-1.2-2-1.4-2.2-1.3-1c0.5,4.2,0.5,12.2,0,12.9c-0.3,0.5-0.8,0.6-1.1,0.2
		c-0.4-0.5-1.1,0-2.1,1.7c-0.4,0.7-0.6,1-0.5,0.5c2.5-7.2,3.1-12.7,1.6-16.1c-0.7-1.5-1.2-0.7-0.7,1c1,3.2,0.8,5.6-1.2,12.6
		c-0.5,1.8-1,3.8-1.2,4.6c-0.2,1.4-1.8,5-2.6,5.9l-0.3,0.4l0.1-1.7c0.1-2.1,0.5-4,1.1-6.1c0.5-1.7,0.5-2.1-0.1-2
		c-1,0.1-2,5.1-2,10.1l0,3.9l3.2,12.4c1.8,6.8,3.3,12.5,3.4,12.6c0.1,0.1,0.1,0,0.1-0.3c-0.4-2-3.7-25.6-3.7-26.3
		c0-1.2,0.5-2,2.4-3.9c2.2-2.2,2.6-2.6,2.8-2.1c0.7,1.2,2.5,2.6,3.4,2.6h0.4l-0.1-1.5c-0.2-2.5,0.2-5.9,1.1-8.5l0.3-1l0.8,1.4
		c1.5,2.5,3.6,4.8,3.4,3.7c-0.3-1.2-0.4-4.2-0.4-8.4c0-9.3-0.2-10.3-3.4-15.9C285.6,294.1,285.5,294,285.3,294.7 M315.2,313.6
		c0,0.5,0.8,2.8,1.3,4.1c0.7,1.5,1.5,2.7,4.5,7c3,4.3,4.4,7.1,4.6,9.8c0.1,1,0.1,1.1,0.6,1.1c0.9,0.1,0.3-3.5-1-6
		c-0.1-0.3-0.2-0.5-0.2-0.5c0.6,0,3.2,7.1,3.7,10.1c0.1,0.8,0.4,1,0.8,0.7c0.6-0.5-0.8-5.6-2.4-9.1l-0.6-1.4l1.3,1.2
		c5.8,5.3,9,11.4,9,17.4c0,0.9,0.1,1.7,0.1,1.7c0.5,0,1.9-2.2,2.2-3.5l0.2-0.9l0.3,0.8c1.5,4.7,1.6,10.6,0.2,15.9
		c-0.5,2-0.5,2,0.5,0.3c1.6-2.9,2.4-5,3.3-8.6c0.4-1.4,0.6-2.3,0.6-2.2c0,0.2,0.1,1.2,0.2,2.2c0.1,1.4,0.1,2.5,0,4.1
		c-0.3,3.4-0.3,3.7,0.1,3.7c0.4,0.1,0.5-0.1,0.7-2c0.2-1.6,0.2-6.3,0-7.6c-0.1-0.5-0.1-0.8,0-0.8c0.3,0.2,1.9,2.7,2.6,4.2l0.8,1.5
		l0-3.1c0-3.3-0.1-3.9-1.2-7.4c-0.3-0.8-0.7-2.5-0.9-3.8c-0.3-1.5-0.7-2.8-1-3.7c-0.3-0.8-0.7-1.8-0.8-2.2l-0.2-0.7l-0.1,1.7
		c-0.3,3.7-0.7,7.5-0.9,7.3c-0.1-0.1-0.2-0.5-0.4-1c-0.9-2.5-2.5-5-4.8-7.7c-1.8-2.1-1.7-2-1.2-0.6c0.9,2.5,1.3,4.4,0.7,4.4
		c-0.3,0-0.4-0.3-0.6-1.5c-0.7-3.4-2-5.9-4.7-9.2c-2-2.4-9.2-9.7-10.6-10.8l-0.7-0.6l0.4,0.7c1,1.7,2.2,3.5,3.5,5.1
		c1.3,1.7,1.5,2.2,1.1,2.4c-0.4,0.1-4.6-5.8-5.8-8.3c-0.6-1.1-1-1.5-3.5-3.5C315.3,313.3,315.2,313.3,315.2,313.6 M263.7,321.1
		c-0.7,1.7-1.1,6.6-0.8,9.7c0.5,6.8,2.2,12.1,6.3,20.3c2.8,5.5,3.9,9.1,3.9,12.7c0,2.7-0.1,2.9-0.7,1.6c-0.8-1.8-3.4-5.2-3.8-5.2
		c-0.1,0,0,0.4,0.3,1c0.8,2.1,0.9,4.2,0.2,6.5l-0.3,1.1l-0.6-1.9c-0.3-1-1-2.9-1.5-4.2c-0.5-1.4-1-3.1-1.3-4.1
		c-1.4-7.2-4.1-14-7.9-20.2c-1-1.7-1.3-2-1.7-2c-0.7,0-0.6,0.4,0.8,2.7c3,4.8,5.6,11,6.9,16c0.1,0.4,0.2,0.9,0.3,1.1
		c0,0.2-0.4-0.6-1.1-1.7c-0.6-1.1-1.2-2.1-1.3-2.3c-0.1-0.2-0.6-1.3-1.2-2.6c-2.2-4.8-5-9.8-5.5-9.8c-0.6,0-0.5,0.5,0.6,2.5
		c0.6,1.1,1.5,2.8,1.9,3.6l0.8,1.6l-1-1.1c-0.5-0.6-1-1.1-1-1.2c-0.1-0.2-3.1-2.8-3.1-2.8c0,0,0.3,1,0.9,2.1
		c2.5,5.4,4.1,10.6,4.1,13.5c0,0.5-0.1,0.4-0.4-0.7c-1.1-4-3.3-7.8-5.6-10c-0.9-0.8-2.1-1.4-2.4-1.1c-0.2,0.2,0.2,2.2,0.9,3.7
		c2.1,5,2.7,8.5,2,12.3c-0.7,3.9-2.2,5.3-6,5.8c-5.3,0.7-6.1,0.9-7.6,2.6c-2.2,2.6-2.7,3-4.6,3.7c-2.1,0.8-3.2,1.4-3.9,2.3
		c-0.7,1-0.7,1.5,0.1,0.8c2.6-2.2,6.5,0.3,5,3.2l-0.3,0.6l0.5-0.4c2.3-1.7,5-0.9,5.2,1.6c0,0.5,0,1.1-0.1,1.3
		c-0.3,0.6-0.1,0.4,1.3-1c1.6-1.6,4.4-3.6,3.4-2.5c-0.3,0.3-1.1,1.8-1.1,1.9c0,0.1,0.2,0,0.5-0.2c1.3-1,2.9,0.3,2.9,2.3
		c0,0.5,0.1,0.9,0.1,0.9c0.1,0,0.5-0.3,1.1-0.5c3-1.5,5.7,0.6,5.8,4.6l0,0.6l0.6-0.1c0.9-0.2,2.3-0.9,4.4-2.3c3.1-2.1,4.3-3.5,4.8-6
		c0.4-1.8,0.5,1.5,0.2,4.5c-0.1,1.2,0.1,0.9,2.1-2.3c3.5-5.5,5.2-6.4,8.5-4.4c1.5,0.9,5.5,2.6,5.7,2.4c0,0-0.2-1.2-0.6-2.5
		c-1.2-4.1-1.9-7.5-2.9-13.6c-0.1-0.4,0.1-0.3,0.5,0.6c0.9,1.7,3.2,3.9,5.1,5.1c0.4,0.3,0.4,0.2-0.3-0.6c-1-1.1-1.8-2.7-2.5-5.1
		c-0.3-1-1.3-4.2-2.2-7.1c-0.9-2.9-1.9-6-2.2-6.9c-0.8-2.9-1-1.2-0.2,2.7c0.3,1.8,0.5,4.2,0.2,4.2c-0.7,0-3.5-5-4.8-8.7
		c-1.6-4.7-2.2-8.1-2.2-13.5l0-4.1l-0.4,0c-1.7,0.2-0.4,12.6,1.9,18.6c0.3,0.7,0.5,1.3,0.5,1.3c0,0.2-2-3.7-2.9-5.7
		c-3.8-8.5-5-16.5-3.6-23.6c0.2-0.9,0.3-1.7,0.2-1.8C264.4,320.6,263.9,320.7,263.7,321.1 M363.4,354.4c-0.4,1.2,1.1,6.9,2.5,9.4
		c0.5,0.8,0.5,1.1,0.5,2l0,1.1l1.6,2c2.1,2.7,2,2.6,1.9,2.8c-0.2,0.4-0.6,0.1-1.7-1.2c-0.6-0.8-1.1-1.4-1.2-1.4
		c-0.2,0.2,0.8,1.7,3,4.2c1,1.1,1.1,1.4,0.7,1.5c-0.2,0.1-0.7-0.4-1.7-1.4l-1.4-1.5l0.6,2.2c0.7,2.7,0.7,2.6-0.1,2.5
		c-5.2-0.8-8.1-3.1-10-7.9c-0.5-1.1-1-1.6-1.3-1c-0.1,0.3,0.8,2.6,1.5,3.8l0.6,1l-0.5-0.4c-1.8-1.3-3.9-5.6-4.3-8.8
		c-0.3-2.2-0.3-2.2-0.8-2.2h-0.4l0.1,1.5c0.1,2,0.6,3.8,1.6,5.9c0.5,1,0.8,2,0.8,2.2c0,0.9,0.7,2.5,1.7,4c0.3,0.4,0.1,0.5-0.7,0.3
		c-1.4-0.3-3.6-2.4-4.8-4.5c-0.5-0.9-0.8-1.1-1.1-0.7c-0.3,0.3-0.3,0.5,0.5,1.7c0.7,1,0.7,1.1,0.3,0.8c-1.1-0.7-3.8-2.7-5.3-3.8
		c-1.9-1.5-2-1.5-1.3,0.4c2.2,6,6.3,10.6,12.4,13.9c2.3,1.3,3.1,2,4.1,3.9c1.5,2.9,2.3,3.2,2.2,0.7c-0.1-1.9,1-2.6,3.7-2.4
		c1,0,1.8,0.1,1.8,0c0,0-0.6-1.2-1.4-2.6c-1.6-2.9-1.6-2.9-0.2-1.9c1.9,1.3,3.2,2.7,5.1,5.7c0.2,0.3,0.2,0.3,0.2-0.2
		c0.1-2.5,3.9-3.5,6.2-1.5c0.7,0.6,0.1-1-1-2.8c-0.5-0.8,1.5,1.2,2.8,2.8c0.7,0.9,1.2,1.2,0.6,0.3c-0.4-0.6-0.3-1.2,0.2-1.5
		c0.3-0.2,1.6,0.1,3.3,0.9l0.7,0.3l0.1-0.6c0.2-1.3-0.6-2.8-2.3-4.2c-2.1-1.8-1.8-1.9,0.7-0.2l2.4,1.6l1.5-0.1
		c1.7-0.1,3.2,0.2,4.4,0.9c0.9,0.5,1.1,0.4,0.9-0.5c-0.3-1.4-1.7-2.9-5.9-6.2c-1.3-1.1-3.1-2.5-4-3.2c-3.3-2.6-5.7-5.4-7.2-8.1
		l-0.7-1.4l-0.2,0.9c-0.2,1.1,0.1,4.1,0.5,5.8c0.2,0.7,0.3,1.2,0.2,1.2c0,0-0.6-0.3-1.2-0.7c-1.5-0.9-2.6-2.9-3.1-5.7
		c-0.4-1.8-0.4-1.9-0.7-1.9c-0.7,0-0.5,2,0.3,4.2c0.5,1.3,0.5,1.3-0.8,0.2c-1.5-1.3-2.6-3.9-2.6-6.2c0-1-0.2-1.3-0.6-1.3
		c-0.5,0.1-0.5,2-0.1,3.6c0.4,1.6,0.2,1.5-0.7-0.4c-0.9-2-1.4-3.7-1.8-6.2C364.3,354.3,363.8,353.5,363.4,354.4 M231,378.8
		c-3,1.4-6.4,5.2-7.1,7.8c-0.3,1-0.2,1,1-0.5c1.7-2.2,2.9-2.9,5.5-3.5c2.9-0.6,3.8-1.6,3.2-3.5C233.2,378.2,232.5,378.1,231,378.8
		 M235.5,382.8c-2.6,1.2-4.8,5.4-5.3,10c-0.1,1.2,0.1,1.4,0.4,0.4c0.6-2.1,3.1-4.7,6-6.2C239.9,385.2,238.9,381.3,235.5,382.8
		 M389.6,382.7c-2.5,1.1-2.7,3-0.6,4.8c0.7,0.6,1.1,1,1.7,2.3l0.8,1.5l0.1-2.2C391.9,383.6,391.4,382,389.6,382.7 M243.3,384.7
		c-1.7,1.6-1.8,1.9-1.8,5.4c0,1.7,0,3,0,3c0,0,0.4-0.6,0.7-1.4c0.8-1.6,1.4-2.6,2.5-3.7C247.3,385.3,245.9,382.2,243.3,384.7
		 M383.6,385.4c-2.3,1.1-2.5,2.8-0.5,4.6c1.1,1,2.4,2.9,2.4,3.8c0.1,0.9,0.3-1.6,0.3-3.5C385.9,385.2,385.5,384.4,383.6,385.4
		 M366.7,386.2c-2,1.2-2.1,2.8-0.2,4.3c0.9,0.7,1.2,1.1,1.8,2.4c0.4,0.8,0.8,1.6,0.8,1.6c0.3,0.3,0-8.1-0.3-8.5
		C368.3,385.5,367.7,385.6,366.7,386.2 M250.6,386.8c-1.6,1.6-1.7,3.5-0.5,5.4c0.3,0.4,0.6,1.2,0.8,1.7c0.3,1,0.3,1.1,1-2.1
		C252.9,387.1,252.3,385,250.6,386.8 M375.8,386.5c-2.3,1.1-2.6,3-0.7,4.5c1.1,0.9,1.4,1.2,2.1,2.8l0.6,1.3l0.1-3.1
		C378.1,386.4,377.7,385.5,375.8,386.5"/>
</g>
</svg>
