<svg xmlns="http://www.w3.org/2000/svg" viewBox="0 0 500 500"><path fill="#FFF" d="M109.19 446.12l-.62-.39c.26.2.4.36.62.39zM214.9 458.82l.1.42c.06-.2 0-.33-.1-.42zM201.6 450.9l-.54-.03c.25.05.42.06.55.03z"/><path fill="#FFF" d="M184.38 435.2c-.16 0-.34.03-.57.03-.07.04-.31-.03-.47-.02h-.51l-.14.01-.2-.02-.4-.05-.82-.06c-.24 0-.63-.09-.96-.13l-1.04-.15c-2.92-.48-6.54-1.34-10.73-2.33l-3.33-.77-3.15-.68c-1.9-.41-3.87-.75-5.73-1.17l-5.6-1.22c-1.8-.45-3.63-.9-5.47-1.3-7.3-1.85-14.59-4.28-21.61-7.87a78.65 78.65 0 0 1-19.6-14c-1.6-1.47-3.05-3.19-4.57-4.8-1.49-1.64-3.02-3.24-4.48-4.9l-4.19-5.15-2.1-2.56c-.7-.86-1.32-1.78-1.98-2.66l-3.95-5.33c-.68-.87-1.28-1.8-1.89-2.72l-1.85-2.75-1.88-2.74c-.63-.9-1.27-1.82-1.83-2.77a303.86 303.86 0 0 0-3.55-5.64c-1.27-1.86-2.3-3.83-3.35-5.8-1.03-1.96-2.1-3.91-3.06-5.9l-2.59-6.1-1.26-3.07-1.03-3.13-2.02-6.29c-.58-2.16-1.11-4.34-1.66-6.52-.27-1.1-.56-2.18-.8-3.28l-.67-3.32c-.43-2.22-.93-4.42-1.3-6.67-.67-4.34-1.61-8.61-2.34-12.95-.87-4.3-1.52-8.66-2.24-13.02-.32-2.18-.55-4.38-.8-6.58l-.36-3.3a150.43 150.43 0 0 1-.42-9.97c.04-2.22.13-4.45.28-6.67.15-2.45.43-4.59.82-6.74.38-2.15.85-4.27 1.4-6.35.26-1.03.26-4.24.5-7.5.03-.83.09-1.65.16-2.44l.15-2.25c.12-1.38.18-2.51.12-3.11-.05-.54-1.16.5-2.43 1.92-.66.7-1.24 1.54-1.81 2.29-.57.74-1.04 1.42-1.29 1.84a60.58 60.58 0 0 0-7.15 15.64 48.58 48.58 0 0 0-1.09 4.63c-.83 5.17-1.52 9-1.82 12.87-.18 1.93-.32 3.88-.43 6.01-.05 2.14-.05 4.46-.02 7.16a312.33 312.33 0 0 0 2.54 33.11l1.17 8.24c.17 1.38.42 2.74.65 4.11l.68 4.13c.24 1.38.4 2.76.68 4.15l.84 4.19.8 4.23.39 2.13.49 2.1c1.1 4.51 2.31 9.12 4.22 13.45.9 2.2 1.83 4.38 2.8 6.56 1.08 2.13 2.2 4.23 3.33 6.33 2.15 4.27 4.8 8.24 7.25 12.32 1.2 2.07 2.56 4 3.86 5.98 1.3 1.97 2.57 3.96 3.8 5.97 1.41 2.12 2.88 4.2 4.3 6.32 1.46 2.1 2.83 4.27 4.43 6.27 3.1 4.07 6.11 8.2 9.62 12.15a111.67 111.67 0 0 0 24.2 21.02 166.91 166.91 0 0 0 31.02 15.5l3.96 1.47c1.32.47 2.62.88 3.94 1.32l7.28 2.35c4.8 1.53 10.32 3.31 17.05 4.32l1.23.19 1.35.13 2.71.23.68.05.75.01h1.51c1.01 0 2.01-.01 3.03-.06a41.68 41.68 0 0 0 12.74-2.9 46.8 46.8 0 0 0 10.3-5.84c2.8-2.06 4.94-3.97 6.77-5.52l1.45-1.24c.79-.7 1.5-1.26 2.36-2.13l1.22-1.23.16-.16.22-.26.46-.52a38.97 38.97 0 0 0 1.72-2.15l.4-.56.09-.12.03-.05.06-.1.5-.8.14-.2.06-.1.67-1.1.1-.21a19.33 19.33 0 0 0 1.56-3.65 20.8 20.8 0 0 0-4.34-20.62 22.86 22.86 0 0 0-5.79-4.6c-.5-.3-.91-.48-1.39-.72-.44-.2-.94-.44-1.36-.6-.89-.34-1.68-.64-2.85-.96l-.82-.2-.75-.18-.47-.09-.23-.04-.74-.13-.11-.02-.48-.07-1.85-.27-1.52-.25c-.28-.04-.44-.08-.63-.12l-.55-.1-.54-.12-.33-.1c-.19 0-1.58-.52-2.59-.9-10-3.64-19.56-8.28-28.12-14.19-1.34-.95-2.72-1.84-4.04-2.8l-3.92-2.95c-1.3-.98-2.53-2.06-3.8-3.07-1.3-1-2.47-2.09-3.67-3.15-4.76-4.27-9.2-8.88-13.2-13.92-8.04-10.04-14.55-21.61-19.55-34.33a87.73 87.73 0 0 1-1.63-4.35l-.77-2.2-.79-2.38a211.83 211.83 0 0 1-2.79-9.12c-1.6-5.84-2.59-11.25-2.82-16.01l-.18-2.33-.24-2.75c-.17-1.8-.33-3.78-.52-5.35l-.58-4.97-.5-4.53-.25-2.21-.07-.56-.03-.5-.05-.97c-.08-1.3-.19-2.61-.32-3.92-.08-1.37-.08-2.9-.16-4.34l-.12-2.2c-.03-.74-.02-1.48-.04-2.21-.02-1.57-.08-3.2-.08-4.89.05-1.69.1-3.43.11-5.2l.35-10.8.04-5.37c.02-1.8-.1-3.58-.2-5.35-.15-3.53-.71-7-1.6-10.26-.9-3.17-3.71-5.05-6.42-5.97 2.23.77-.15 3.98-3.16 7.3a121.4 121.4 0 0 1-4.38 4.7 38.86 38.86 0 0 0-2.4 2.64 55.58 55.58 0 0 0-2.97 4.88c-.84 1.72-1.62 3.5-2.39 5.3-.8 1.81-1.4 3.66-2.07 5.5-.64 1.86-1.35 3.71-1.94 5.58l-1.85 5.37c-.58 1.8-1.11 3.6-1.67 5.4l-.83 2.7-.7 2.73c-.45 1.83-.9 3.66-1.31 5.53-.3 1.96-.58 3.95-.82 5.97-.1 1-.24 2.08-.3 3.02l-.12 2.88a116.77 116.77 0 0 0-.04 5.77 90 90 0 0 0 .3 5.51l.36 5.37.1 1.32.05.67.09.92.38 3.68c.65 4.8 1.58 9.47 2.77 13.73.28 1.1.58 2.16.89 3.19l.93 3.11c.64 1.99 1.3 4.04 1.95 5.92l1.96 5.64 1.06 2.92 1.1 2.98c3.06 7.92 6.65 15.8 10.88 23.5A166.25 166.25 0 0 0 114.17 397c4.75 6 10.03 11.65 15.73 16.81 1.43 1.29 2.9 2.53 4.34 3.79 1.47 1.22 2.97 2.36 4.45 3.54l2.24 1.75 2.3 1.65c1.55 1.09 3.07 2.22 4.64 3.26 6.28 4.18 12.8 7.92 19.47 11.3 1.67.83 3.37 1.6 5.06 2.4l2.53 1.19 2.56 1.08 5.14 2.16 5.2 1.96 1.55.59.39.15c.13.04.23.09.47.16l1.22.39a87 87 0 0 0 2.46.72l2.13.5 1.06.24.92.18 1.8.35 1.53.28.74.13.18.04.1.02.85-7.84.02-.01.03-.03.06-.05.47-.43c.13-.15.37-.27.42-.44a4.12 4.12 0 0 1-.07-.53c-.01-.18-.02-.37 0-.55.04-.16.1-.32.16-.48.14-.33.26-.65.41-.95.18-.31.3-.59.49-.87a4.7 4.7 0 0 1 1.91-1.86c.36-.11-.2.14-1.33-.36a4.1 4.1 0 0 1-.5-.2l-.22-.13-.1-.07c.5.44-4.42-3.9-2.35-2.06h-.03l-.06-.01-.12-.03-1.9-.33-.95-.16-.48-.09-.23-.04c-.08-.03-.16-.12-.24-.19a14.27 14.27 0 0 1-1.67-1.79c-.52-.64-.91-1.33-1.38-2.04l-1.13-1.04c-.27-.26-.17-.16-.2-.18-.02 0-.04 0-.04.02l-.2.11-.18.14-.59.45-1.33 1.01a79.6 79.6 0 0 1-4.13 3.04 12.65 12.65 0 0 1-2.34 1.3c-.5.2-.75.22-1.05.25zM153.1 138.8l-.13-.01c.02.01-.08.05.13.01zM148.16 143.62l-.33-.35c.1.12.21.24.33.35zM151.97 178.71l-.77.14c.38-.03.6-.08.77-.14z"/><path fill="#FFF" d="M202.17 166.73l3.57-1.42c.66-.22 1-.54 1.48-.81l1.34-.86 2.65-1.71 1.31-.87c.43-.28.75-.57 1.12-.86 1.45-1.15 2.87-2.3 4.26-3.45a20.17 20.17 0 0 0 2.34-3.34 20.06 20.06 0 0 0 2.02-5.3c.14-.69.32-1.44.39-2.05.08-.62.12-1.13.16-1.75.04-.6.09-1.38.04-2.34a18.67 18.67 0 0 0-1.11-5.53c-.17-.38-.32-.67-.48-.99-.16-.32-.31-.59-.47-.85-.4-.7-.79-1.2-1.18-1.65-.2-.23-.4-.39-.6-.58-.23-.2-.57-.41-.85-.61-1.18-.81-2.4-1.6-3.68-2.35a96.5 96.5 0 0 0-8.06-4.24l-1.05-.5-.53-.23a2.5 2.5 0 0 0-.38-.14l-.47-.15-3.68-1.16-7.1-2.28-1.71-.56c-.7-.16-1.5-.29-2.22-.43l-4.4-.87c-2.89-.59-5.7-1.2-8.46-1.84-.75-.16-1.42-.36-2.1-.56l-2.04-.6-4.05-1.2-4.03-1.2c-1.34-.4-2.7-.77-3.98-1.25l-3.9-1.38-2.31-.83-2.32-.84-2.28-.9c-3.04-1.22-6.12-2.35-9.11-3.66-1.51-.63-3.04-1.23-4.57-1.83-1.5-.66-3-1.3-4.53-1.93-3.11-1.2-6-2.73-8.9-4.25-.73-.4-1.46-.75-2.16-1.19l-2.12-1.31-4.18-2.7c-5.63-3.49-10.79-7.77-16.14-11.89a137.67 137.67 0 0 0-7.81-5.94c-1.34-.95-2.7-1.88-4.06-2.8-1.35-.94-2.67-1.93-4-2.9a189.6 189.6 0 0 1-7.87-6.01 63.83 63.83 0 0 1-7.17-6.75l-.83-.94a7.97 7.97 0 0 1-.75-.96l-1.33-1.9c-.42-.65-.9-1.23-1.27-1.93l-1.14-2.01a7.73 7.73 0 0 0-1.46-1.49l-.29-.24-.03-.03h-.01l-.08-.1v-.01l-.02-.02-.08-.08-.17-.16-.55-.57-.49-.45a28.8 28.8 0 0 0-2.13-1.73 22.91 22.91 0 0 0-5.55-3.05 14.86 14.86 0 0 0-2.81-.72 11 11 0 0 0-3 0c-.66.11-1.2.27-1.62.42-.75.31.04.27 1.57.43.38.04.7.15 1.1.26.4.1.83.24 1.15.41.33.17.72.36 1.03.56.28.2.57.42.85.65 2 1.8 2.75 3.72 3.17 4.53a30.22 30.22 0 0 1 1.58 4.35c.4 1.4.85 2.88 1.34 4.34.44 1.5 1.11 2.8 1.71 4.03.62 1.21 1.18 2.36 1.75 3.14 1.13 1.61 2.12 3.03 3.06 4.31.92 1.24 1.79 2.37 2.68 3.47a90.53 90.53 0 0 0 6.52 7.1c11.57 11.46 23.48 21.97 35.6 33.56a47.67 47.67 0 0 0 3.78 3.44 92.07 92.07 0 0 0 4.21 3.06c2.85 2.02 5.93 3.66 9 5.34l2.32 1.24 2.36 1.14 4.7 2.29c3.14 1.53 6.3 2.92 9.33 4.58l5 2.5.6.31.18.15.33.28.62.55c.82.7 1.42 1.36 1.89 1.86.46.52.79.94 1.15 1.25.37.32.78.52 1.52.66.6.11 1.04.26 1.31.42.26.15.42.27.22.72-.16.32-.54.8-1.3.95-.7.14-1.29.33-1.85.42-1.11.17-1.86.23-2.17.47-.5.36-.97.86-1.83 1.3a7.4 7.4 0 0 1-1.5.58l-.45.1-.22.04c-.1.01-.07.03-.45.04l-4.93.21c-1.94.12-3.9.04-5.86 0-1.95-.06-3.9-.06-5.87-.27-1.95-.17-3.91-.31-5.87-.51l-5.85-.84c-1.26-.15-2.42-.39-3.58-.61l-3.5-.63-3.48-.79-1.74-.37-1.73-.46-3.47-.9c-1.15-.31-2.3-.69-3.45-1.03-2.32-.63-4.61-1.5-6.92-2.26-4.6-1.68-9.2-3.49-13.78-5.63l-1.72-.8c-.55-.25-1.24-.55-1.52-.74-.75-.43-1.53-.8-2.27-1.24-.7-.5-1.42-.96-2.13-1.45-.64-.57-1.3-1.11-1.97-1.65a22.21 22.21 0 0 1-5.15-7.5 25.06 25.06 0 0 1-1.91-8.38 26.9 26.9 0 0 1 .77-7.8c.06-.62.32-1.2.47-1.8l.22-.9a14.08 14.08 0 0 0 .6-1.78l.07-.24.25-.68.47-1.39c.31-.92.6-1.85.9-2.78.3-.94.43-1.8.64-2.7l.4-1.96c.14-.67.27-1.33.33-1.95l.49-3.88c.18-2.46.32-5.03.25-7.28l-.05-1.74-.1-1.61a51.57 51.57 0 0 0-.8-6.02c-.09-.44-.18-.87-.29-1.31l-.16-.65c-.03-.13-.06-.18-.08-.37l-.06-.78a22.58 22.58 0 0 0-1.05-4.93l-.19-.57a5.55 5.55 0 0 0-.18-.4l-.37-.71c-.25-.44-.5-.88-.77-1.26a12.62 12.62 0 0 0-3.48-3.62c-.23-.11-.5-.3-.76-.34l-.87-.18a30.23 30.23 0 0 0-6.11-1.32c.59.06.86.22 1 .47.13.24.1.63-.03.98a61.99 61.99 0 0 1-4.23 8.3c-.77 1.25-1.5 2.01-1.65 2.2l-.24.37a26.6 26.6 0 0 0-1.99 3.67c-.58 1.26-1.1 2.6-1.6 3.85-.5 1.27-.97 2.58-1.48 3.78-.5 1.22-1 2.45-1.62 3.54l-.88 1.63c-.31.52-.66 1-.98 1.47l-.98 1.4c-.35.42-.72.82-1.07 1.21-.36.39-.7.78-1.04 1.13l-1.12.93-.54.45-.25.21c-.09.07-.16.12-.3.33l-1.5 2.08a38.03 38.03 0 0 0-7.02 20.48 56.84 56.84 0 0 0 4.44 23.86 61.09 61.09 0 0 0 13.6 20c1.4 1.48 2.99 2.76 4.56 4.06 1.54 1.33 3.23 2.45 4.92 3.59 1.66 1.18 3.45 2.13 5.23 3.1l1.34.72.68.35.53.25 2.12 1c5.62 2.69 11.53 5.1 17.57 7.35a154.99 154.99 0 0 0 32.42 8.03c.69.1 1.4.22 2.07.29l2.02.2 4.03.4c2.68.32 5.4.44 8.1.6l4.06.25 4.09.08c2.73.04 5.45.15 8.19.03l4.93-.08 1.4-.03c.15-.01.24 0 .42-.02l.54-.05 1.07-.1 4.3-.4 4.35-.4c1.42-.2 2.82-.47 4.24-.7l4.25-.73 2.15-.36 2.04-.49c2.73-.65 5.51-1.29 8.24-1.97l7.88-2.38c1.34-.39 2.58-.84 3.85-1.27l3.8-1.31c2.58-.86 4.96-1.82 7.38-2.77z"/><g><path fill="#FFF" d="M388 411.98l.42-.38c-.2.15-.37.21-.42.38zM338.46 435.69l.56-.36c-.2.11-.4.24-.56.36zM281.7 444.37l-.36-.68c.14.33.25.53.36.68z"/><path fill="#FFF" d="M324.7 473.57c.45.1.94.11 1.43.13l1.47.07 2.95.12 2.94.11c.99.02 1.95.13 2.99-.03l6.1-.62 3.06-.32c.5-.03 1.02-.16 1.54-.27l1.56-.34 3.1-.68.78-.17c.29-.06.37-.1.56-.14l1-.27c.64-.18 1.37-.35 1.94-.56l1.75-.6c2.34-.84 4.69-1.64 6.93-2.67 9.1-3.86 17.42-9.03 24.67-14.83 14.61-11.88 26.77-26.09 38.23-41.15 3.06-3.98 5.88-8.16 8.48-12.47.7-1.08 1.27-2.11 1.85-3.15l1.76-3.13c1.18-2.07 2.23-4.22 3.35-6.33 4.32-8.53 8.05-17.4 10.8-26.64a306.86 306.86 0 0 0 7.12-27.98l1.36-6.86 1.34-6.53 2.89-13.48.68-3.3c.1-.58.22-1.08.31-1.7l.26-1.98.23-1.97c.05-.65.07-1.29.1-1.94.06-1.28.12-2.58.07-3.8-.07-5.02-.68-9.71-1.26-14.13l-.41-3.26-.36-3.18-.38-3.43-.35-3.5c-.28-2.32-.59-4.63-.81-6.95-.31-2.3-.59-4.6-.8-6.92-.31-2.44-.55-4.96-.8-7.36l-.42-3.6a79.65 79.65 0 0 0-.53-3.76c-.18-1.22-1.64-4.94-3.7-8.56-.55-.9-1.03-1.8-1.64-2.63a80.66 80.66 0 0 0-1.67-2.32 24.05 24.05 0 0 0-2.69-2.83c-.5-.4-.21 1.46.17 3.6.17 1.08.3 2.25.43 3.26.15 1.02.16 1.91.22 2.44.3 3.49.25 7.7.08 11.61-.09 1.97-.16 3.88-.2 5.62-.07 1.73-.1 3.27-.08 4.51.07 5-.02 8.64-.1 12.27l-.03 2.73-.08 2.85-.03 3.11v3.7c.06 5.37.22 10.52-.14 15.35l-.14 1.8c-.05.6-.15 1.17-.23 1.75l-.23 1.74-.36 1.67c-.13.57-.21 1.08-.37 1.7l-.5 1.87-1.01 3.74a490.5 490.5 0 0 1-2.1 7.44c-.73 2.54-1.48 5.1-2.26 7.66l-1.18 3.83c-.4 1.27-.82 2.6-1.23 3.72l-1.24 3.47c-.42 1.16-.84 2.3-1.37 3.44-3.07 7.31-5.86 15-8.91 22.58-3.07 7.58-6.51 15.11-10.93 21.94a120.54 120.54 0 0 1-3.7 5.48c-.63.88-1.26 1.84-1.9 2.65l-1.9 2.41c-1.21 1.64-2.63 3.14-3.96 4.68l-1.01 1.15c-.34.38-.72.74-1.07 1.1l-2.14 2.21c-5.78 5.82-12.07 11.13-18.57 16.46-1.7 1.44-3.55 2.74-5.35 4.09-.88.67-1.87 1.29-2.8 1.93-.95.63-1.9 1.29-2.86 1.85a115.27 115.27 0 0 1-11.53 6.34 111.1 111.1 0 0 1-11.7 4.69c-1.95.72-3.95 1.26-5.92 1.86-1.02.36-1.9.51-2.7.71l-.28.1a9.84 9.84 0 0 1-4.21.43c-.84-.11-1.85-.22-2.46-.88a4.93 4.93 0 0 1-1.14-1.55c.03-.17.2-.34.33-.47 1.89-.5 3.97-1.34 5.49-2.13l.1-.04.53-.4 1.2-.9 2.42-1.83c1.62-1.22 3.04-2.43 4.57-3.66 1.5-1.2 2.98-2.53 4.46-3.8l2.22-1.95 2.14-2c2.9-2.65 5.62-5.45 8.36-8.23 2.66-2.87 5.32-5.72 7.84-8.72a195.98 195.98 0 0 0 26.54-39.61c3.29-6.7 6.3-13.72 8.63-21.38l.83-2.91c.27-.98.56-1.94.74-2.98.41-2.03.85-4.14 1.19-6.14.25-1.9.54-3.8.73-5.7.16-1.86.38-3.77.47-5.63.46-7.48.26-14.75-.36-21.75-.63-7.1-1.7-13.45-2.97-20.04-.7-3.48-1.37-7.24-2.24-11.14-.94-3.93-2-7.96-3.26-11.86a94.3 94.3 0 0 0-3.18-8.5l-.62-1.38-.18-.41-.23-.58c-.16-.39-.31-.76-.49-1.14-1.4-2.97-2.56-4.12-3.46-4.7-.11-.08-.2-.1-.32-.14-.1-.05-.22-.1-.31-.08l-.31-.02c-.1-.02-.22-.1-.33-.15-.45-.22-.89-.48-1.32-.78a17 17 0 0 0-6.8-2.6c1.1.19.9.78.31 1.83a21.21 21.21 0 0 0-1.46 3.17c-.14.43-.3.83-.42 1.32-.52 1.89-.76 4.31-1.23 6.06-.47 1.7-1.03 2.97-1.07 3.27-1.54 7.11-1.43 14.53-2.06 21.7-.8 7-1.97 13.68-2.8 20.37-.82 6.7-1.54 13-1.69 19.5-.04 1.7-.12 3.35-.2 5-.13 1.62-.17 3.27-.37 4.84l-.22 2.36-.32 2.3-.15 1.16c-.04.4-.14.67-.2 1.01l-.4 1.95a78.8 78.8 0 0 1-5.99 16.66 138.36 138.36 0 0 1-9.79 17.04 169.18 169.18 0 0 1-12.5 16.28 199.67 199.67 0 0 1-12.12 12.85l-3.19 3.06-3.27 2.94c-1.06.98-2.23 1.94-3.36 2.91l-1.7 1.45-1.67 1.33-1.65 1.33-.42.33c-.15.12-.2.18-.62.44l-2.01 1.3-4.01 2.58c-1.38.85-2.53 1.8-4.34 2.42l-9.98 4.17-9.98 4.42-.62.28-.32.14c-.09.05-.1.1-.16.15l-.54.63-1.1 1.25-2.18 2.51-1.1 1.26c-.21.23-.28.36-.4.52l-.32.46-1.3 1.86-1.3 1.87-.17.23c-.04.07-.03.1-.05.17l-.07.31-.14.64-.28 1.28-.14.63-.07.32c-.03.13-.06.16-.06.44l-.14 3.27c.03 1.26.15 2.61.48 3.9.65 2.6 1.7 5.16 2.85 7.67a59.5 59.5 0 0 0 6.35 10.48c.82.92 1.67 1.82 2.5 2.73l1.26 1.37.63.69c.2.23.4.46.73.65l3.47 2.39 1.74 1.2c.3.19.56.41.9.58l1.1.45 4.37 1.82 2.2.9c.77.26 1.59.49 2.39.73l4.82 1.42c1.55.55 3.4.74 5.12 1.08l5.26.92z"/></g><g><path fill="#FFF" d="M271.4 215.9l.15-.02c-.07-.01-.11-.07-.15.02zM249.45 215.94l.04-.4c-.03.14-.04.28-.04.4zM244.78 251.18l-.14.05c.07.01.1-.01.14-.05z"/><path fill="#FFF" d="M254.4 252.78c4.3.15 8.6-.82 12.75-3 4.28-2.23 8.37-5.7 12.7-6.24 4.61-.55 9.15-.65 13.64-2.25 1.13-.4 2.26-.7 3.38-.92 1.14-.23 2.2-.36 3.54-.5a92.5 92.5 0 0 1 7-.43c2.11-.06 3.97-.88 5.77-1.46 1.78-.6 3.55-.92 4.9-.05.7.47 1.23 1.2 1.64 1.8.12.11.63-.16 1.34-.57.66-.38 1.49-.8 1.93-1.15.19-.16.37-.85.45-1.64.09-.77.07-1.67.02-2.02a12.66 12.66 0 0 0-1.1-3.88 10 10 0 0 0-1.92-2.91c-.58-.53-1.12-.98-1.64-1.38-.51-.39-1-.7-1.5-.98a11.71 11.71 0 0 0-3.48-1.2c-2.96-.57-5.81-.78-8.55-1.23-2.72-.45-5.38-1.14-7.68-2.64-4.34-2.4-8.61-.41-12.91-1.4-4.65-1.08-9.28-3.24-13.83-2.88-2.43.21-4.85-.2-7.26-.6-2.41-.4-4.82-.78-7.22-.57l-7.05.77c-2.35.25-4.7.46-7.05.46-1.36-.01-2.77-.01-4.1-.14a74.92 74.92 0 0 1-4-.46c-6.8-.97-13.93-.6-21.57-1.01a40.75 40.75 0 0 1-5.18-.77c-1.75-.36-3.5-.81-5.28-1.2-1.83-.34-3.68-.61-5.54-.7a22.2 22.2 0 0 0-2.79.01c-.96.12-1.92.3-2.87.55-1 .27-2.1.53-3.22.88-1.12.36-2.24.78-3.35 1.56-2.18 1.48-4.08 3.8-4.91 7.76-.4 1.93.09 5.14.71 7.93-.52-2.3.78-1.24 2.15.46 1.4 1.69 2.82 4.03 3 4.23a18.51 18.51 0 0 0 2.96 2.78c.94.7 1.9 1.45 2.81 2.29 1.78 1.66 3.42 3.63 4.96 5.28 1.59 1.73 3.12 3.16 4.7 3.64 6.72 2.06 13.55 1.76 21.2 2.16 1.55.08 3.26.12 4.9.16 1.67.02 3.27.07 5 .06 3.45 0 6.92.08 10.24.18 4 .17 8.16.98 12.32 1.22z"/></g><g><path fill="#FFF" d="M224.26 327.9l-.4.2c.19-.07.34-.07.4-.2zM238.9 287.98l.4-.06a.84.84 0 0 0-.4.06zM204.11 295.18l-.08-.07c0 .05.04.06.08.07z"/><path fill="#FFF" d="M204.04 300.47c-.02.16.03.38.02.47 0 .1.03.2.1.3l.04.03.05.02.03.01.14.02c.57.05.95.03 1.37.05.43.02.85.06 1.28.12 3.24.33 4.97 1.23 5.17 1.4v-.02.01h.01l1.3-.15v.02l-.02.27-.05 1.1-.02.54-.02.27v.14c-.01.06.03 0 .04.01.27-.13.68-.1.92-.03a.6.6 0 0 1-.05-.11v-.05l-.03-.07a2.99 2.99 0 0 1-.19-.7c0-.07 0-.14-.05-.31a5.6 5.6 0 0 1-.1-1.26v-.21l-.02-.3v-.6-.03.03l-.01.06c-.02.08 0 .2-.08.22-.14.07-.23.2-.41.18-.75.01-2-.45-3.3-1.04-1.33-.59-2.79-1.31-4.32-1.81a8.62 8.62 0 0 1-3.94-3c-1-1.34-1.75-2.87-2.28-4.47-.14-.35-.26-.7-.45-1.04l-.6-.99c-.2-.33-.44-.65-.68-.98l-.64-1.06-.65-1.09a6.43 6.43 0 0 1-.84-3.56c.03-.16.08-.32.15-.48.14-.35.4-.7.65-1 .13-.17.26-.28.4-.61.14-.34.28-.68.4-1.03.07-.17 0-.67-.18-1.23l-.15-.44-.2-.58a15.2 15.2 0 0 0-2.02-3.69 5.94 5.94 0 0 0-1.48-1.43c-.32-.18-.64.89-1.06 1.94a7.32 7.32 0 0 1-.73 1.43l-.59.92a17.81 17.81 0 0 1-3.23 3.1 10.6 10.6 0 0 0-2.46 2.54c-.31.58-.62 1.12-.84 1.49a25.8 25.8 0 0 0-.89 2.8c-.1.45-.18.9-.25 1.4-.06.49-.02 1.02 0 1.62l.13 2.32c.03.4.05.79.09 1.18l.17 1.17c.11.78.23 1.57.4 2.35.15.78.28 1.59.47 2.37.68 3.18 1.47 6.45 2.3 10.15.16.76.44 1.46.73 2.14.3.69.67 1.33 1.1 1.93a17.81 17.81 0 0 0 3.05 3.37c2.3 2.02 4.73 3.58 7.11 5.62 2.61 2.19 5.56 4.54 9.94 6.14 1.13.38 2.21.75 3.57.95.65.11 1.31.2 1.98.28.68.07 1.45.06 2.18.05.74-.02 1.46-.03 2.23-.14.8-.12 1.59-.27 2.37-.45 1.56-.32 3.15-1 4.65-1.75l.6-.3.3-.16.36-.21a35.8 35.8 0 0 0 4.2-3.04l.96-.81.37-.3.19-.14.1-.08.04-.03.02-.02h.01l1-1.09c.99-1.12 1.97-2.3 2.87-3.52a40.4 40.4 0 0 0 2.3-3.86 28.07 28.07 0 0 0 3-14.95 42.42 42.42 0 0 0-2.75-11.13c-1.24-3.23-2.62-6.1-3.9-8.95-.8-1.65-1.5-3.25-2.36-4.9-.84-1.65-1.64-3.37-2.5-4.92-2.13-4.12-4.82-7.52-7.49-10.65-2.69-3.14-5.33-5.82-7.65-8.63-2.25-2.6-2.9-5.16-3.99-7.7-.51-1.3-1.04-2.73-1.73-3.96-.34-.63-.72-1.23-1.16-1.8-.43-.58-.93-1.21-1.5-1.76-1.2-1.2-2.44-2.63-4.44-3.7-2-1.1-4.69-1.67-8.63-.85-1.91.4-4.75 2-7.14 3.56 3.93-2.57-2.14 6.02-2.37 6.5-1.4 2.93-1.4 5.14-1.96 7.71-.55 2.49-1.4 5.07-1.9 7.54-.45 2.5-.57 4.88.19 6.86a31.7 31.7 0 0 0 3.14 6.04c.62.97 1.26 1.92 1.92 2.85.63.86 1.22 1.6 1.85 2.37 2.45 3.01 5.02 5.66 7.09 8.2l2.6 3.17 1.16 1.5.59.74.5.74 1.03 1.46.86 1.45a20.6 20.6 0 0 1 1.51 3.14 17.6 17.6 0 0 1 1 6.81z"/></g><g><path fill="#FFF" d="M297.18 305.4l.03.01c0-.01.06-.03-.03-.01zM298.97 292.57l.36.15a1.76 1.76 0 0 0-.36-.15zM267.64 275.8l.02-.18c-.05.07-.04.13-.02.18z"/><path fill="#FFF" d="M262.23 287.23c-.4 1.4-.73 2.82-.85 4.34-.14 1.5-.23 3-.17 4.51.12 1.56.34 3.1.65 4.62l.25 1.13a36.7 36.7 0 0 0 1.2 3.4 54 54 0 0 0 5.1 9.29 55.26 55.26 0 0 0 3.9 5.26 29.36 29.36 0 0 0 6.03 5.48c.66.45 1.35.85 2.07 1.2l.54.27.14.06.77.34.1.03.4.14.25.08.8.26c.52.16 1.06.3 1.6.42.51.1.84.14 1.27.2a19.16 19.16 0 0 0 9.28-1.2c2.14-.85 3.8-1.9 5.2-3 1.4-1.1 2.54-2.3 3.4-3.48 1.82-2.4 3.57-4.57 5.27-6.68 1.72-2.1 3.42-4.16 4.98-6.28 1.52-2.05 2.2-4.54 2.84-6.9.65-2.37 1.29-4.64 2.82-6.47.83-.98 1.84-1.84 2.72-2.78.44-.47-.35-4.04-1.05-4.96-.32-.42-3.16.2-3.92.39-2.5.62-5.91 1.7-7.19 2.44-2.57 1.52-3.74 2.18-5.34 4.1a41.35 41.35 0 0 1-5.17 5.33 13.74 13.74 0 0 1-6.59 3.1 8.7 8.7 0 0 0-4.4 1.96c-.51.39-.93.67-1.24.8a.48.48 0 0 1-.21.04c-.07.02-.1 0-.14-.04l-.02-.01-.01-.02.02.05.32.8.27.76c.09.24.16.48.23.73.6 2.02.54 3.29.46 3.65l-.01.05.05.02a.67.67 0 0 1 .2.1l.05.03c.01.01.04.04 0 0l-.36-.27-.18-.14-.02-.02h-.02c-.38.02.52-.05.43-.04v-.01l.08-.11c.03-.05.06-.1.1-.13l.18-.23c.55-.64 1.85-1.69 4.05-2.77 1.1-.56 2.35-1.05 3.82-1.57l.07-.03v-.05a3.24 3.24 0 0 1 0-1.67c.15-.7.34-1.4.51-2.06.3-.72.56-1.41.72-2.1.21-.7.45-1.44.46-2.18.24-2.98.49-6.52 2-9.72.47-.92.91-1.85 1.53-2.69l.9-1.27c.28-.42.73-.88 1.1-1.3.98-1.1 1.86-2.24 2.68-3.43.97-1.21 1.92-2.46 2.83-3.72.87-1.25 1.95-2.59 3-3.89 1.07-1.32 2.06-2.55 3.31-3.9a25.54 25.54 0 0 1 3.67-3.17c.68-.52 1.28-.87 1.92-1.28l1.89-1.17c.62-.4 1.23-.8 1.82-1.21.61-.4 1.2-.8 1.76-1.25a13.8 13.8 0 0 0 2.88-3.14c.87-1.27 2-2.67 2.54-4.66.58-1.94.58-4.5-.82-8.25-.69-1.82-2.6-4.45-4.43-6.66 1.5 1.81 0 1.43-1.97.61s-4.43-2.08-4.69-2.15c-1.55-.49-2.9-.65-4.17-.69-1.26-.02-2.47.05-3.79 0-5.14-.28-10.87-1.28-14.47.86a44.62 44.62 0 0 0-5.12 3.83 55.15 55.15 0 0 0-4.16 4.02 89.56 89.56 0 0 0-3.9 4.48c-1.3 1.57-2.59 3.08-3.93 4.85a199.33 199.33 0 0 0-3.33 4.4c-1.08 1.57-2.13 3.27-3.18 4.9l-1.58 2.45c-.53.84-1.04 1.82-1.56 2.71-.5.92-1.07 1.81-1.54 2.76l-1.46 2.8c-.3.57-.61 1.12-.9 1.7l-.87 1.74c-.57 1.18-1.21 2.32-1.76 3.55-.54 1.23-1.08 2.48-1.6 3.75l-.38.95-.32 1c-.21.66-.41 1.33-.6 2z"/></g><g><path fill="#FFF" d="M240.5 331.1l-.06.01c.03.01.04.06.06-.01zM248.95 331.43v0zM248.84 303.19l.04-.04c-.02-.01-.03 0-.04.04z"/><path fill="#FFF" d="M246.18 302.02c-1.18-.19-2.3.56-3.5 2.16-1.23 1.66-2.56 4.26-3.9 4.44-.7.1-1.39.09-2.09.17a5.37 5.37 0 0 0-1.6.44 5.7 5.7 0 0 0-.67.3c-1.74.94-3.54.63-5.64.47-1.1-.03-2.08.58-3.16 1.29-.52.32-1.02.64-1.6.94a5.3 5.3 0 0 1-1.86.53c-.76.1-1.65.07-2.51.22-.2.05-.47.75-.57 1.5-.12.77-.07 1.58.1 1.97.08.18.64.43 1.22.7.58.25 1.16.53 1.4.65.82.4 1.67.87 2.4 1.41.72.53 1.28 1.03 1.56 1.25.56.43.97.86 1.28 1.14.33.3.52.45.87.63s.62.3.95.5c.34.2.66.4.96.67.7.58 1.32 1.35 1.98 2.71.47 1.07 1.1 1.31 1.69 1.4l.22.02.3.03.58.07c.38.07.76.2 1.14.47 1.6 1.17 3.23 3.16 4.98 3.06 1.83-.09 3.68 1.6 5.57 1.3 1.85-.28 3.65-1.03 5.49-1.2 1.08-.08 2.16-.03 3.27.1 1.4.12 2.76-.08 4.11-.34 1.36-.25 2.7-.67 4.07-.83a5.5 5.5 0 0 1 1.94.19c.66.14 1.35.34 2.03.5 1.36.32 2.73.53 3.85-.3 1.16-.9 2.94-1.64 2.18-7.66a42.9 42.9 0 0 0-1.6-6.15c1.11 3.6-2.47-3.5-2.63-3.84-1.16-1.97-1.98-2.74-2.9-4.04-1.8-2.52-3.6-6.08-4.77-6.7-2.44-1.25-4.34-.48-6.43-.14-.89.12-1.76.33-2.64.53-.88.2-1.8.27-2.7.25a7.74 7.74 0 0 1-1.67-.34c-.57-.18-1.14-.38-1.7-.47z"/></g><g><path fill="#FFF" d="M290.57 131.56l.2-.26c-.13.11-.28.18-.2.26zM332.36 174.33l-.52.34c.3-.1.44-.22.52-.34zM360.57 140.33l.04-.06c-.02 0-.03.02-.04.06z"/><path fill="#FFF" d="M360.67 138.7c.19-.14.09.03-1.05.31a16.85 16.85 0 0 1-6.73.2c-.95-.2-1.77-.42-2.52-.63-1.96-.57-3.24-1.2-3.37-2-.16-.8.83-1.8 2.7-2.58l3.69-1.52 1.88-.85.95-.43.47-.22.16-.08.06-.04.03-.02.14-.07c6.25-2.99 12.35-6.25 18.04-10.22 11.46-7.9 22.76-15.06 33.78-23.76a89.98 89.98 0 0 0 7.43-6.9c2.14-2.3 4.3-4.69 6.46-7.1 4.37-4.83 8.8-9.73 13.78-14.41 2.66-2.53 5.44-5.05 8.01-7.95.31-.36.78-1.2 1.29-2.3.5-1.1 1.01-2.51 1.48-3.9.41-1.47.83-2.87 1.03-4.14.21-1.25.32-2.26.28-2.78-.03-.48-1.18.34-2.45 1.35-1.24 1.03-2.77 2.1-3.37 2.61-1.03.79-2.2 1.63-3.4 2.5-1.24.82-2.45 1.7-3.7 2.48l-1.8 1.17-1.7 1.07c-1.05.69-2.01 1.3-2.74 1.82-2.95 2.12-5.17 3.56-7.33 5.1a128.88 128.88 0 0 0-7.1 5.45l-8.88 7.15c-1.5 1.21-2.92 2.24-4.38 3.34-1.47 1.08-2.88 2.2-4.44 3.15-1.53 1-3.06 1.97-4.6 2.92-1.52.97-3.18 1.78-4.77 2.64-1.63.82-3.2 1.7-4.92 2.39a138.2 138.2 0 0 1-5.1 2.07c-1.37.55-2.77 1.07-4.13 1.66-1.36.58-2.7 1.22-4.01 1.89-2.65 1.32-5.31 2.64-7.9 4.08-2.64 1.37-5.3 2.7-7.97 4-1.35.6-2.72 1.17-4.08 1.72l-2.06.8-1.44.53c-.69.28-1.29.46-1.9.65l-8.14 2.53-4.19 1.28c-1.42.4-2.9.79-4.38 1.19l-9.03 2.43-2.3.63-2.04.7-4.12 1.4-4.15 1.46-2.08.74-1.04.37-.52.2-.34.2c-1.8 1.06-3.55 2.15-5.28 3.26l-2.55 1.7-.62.42c-.18.13-.31.26-.47.4l-.85.77a22.94 22.94 0 0 0-2.69 2.96c-.68.85-1.14 1.74-1.73 2.65-.57.91-1.17 1.9-1.8 3.03a15.97 15.97 0 0 0-1.23 9.22c.57 3.5 1.73 6.03 3.08 8.36a27.54 27.54 0 0 0 5.25 6.34 30.9 30.9 0 0 0 3.64 2.8c1.3.9 2.96 1.66 4.53 2.45 1.86 1.03 4.3 1.8 6.51 2.65 1.08.44 2.43.75 3.65 1.12l3.77 1.04 4.12.84c1.37.28 2.7.58 4.21.77 2.95.41 5.78.91 8.97 1.1l4.65.4 4.8.2c3.17.18 6.45.16 9.68.23 1.6.04 3.24 0 4.86-.02l4.73-.05c1.95-.07 3.9-.02 5.84-.18l6.78-.4c2.26-.14 4.5-.41 6.75-.6l3.37-.32 3.35-.44c2.24-.32 4.43-.54 6.72-.9 11.7-1.83 23.04-5.49 33.56-10.14a217.84 217.84 0 0 0 15.25-7.58l1.85-1c.62-.35 1.19-.63 2.01-1.15 1.52-.94 3.06-1.85 4.54-2.85 1.44-1.06 2.87-2.14 4.29-3.23 1.36-1.16 2.68-2.37 4-3.58a77.12 77.12 0 0 0 12.15-15.11c3.41-5.55 6-11.68 7.56-18.2a57.22 57.22 0 0 0 1.2-20.33c-.27-1.71-.58-3.43-.93-5.14-.4-1.7-.94-3.36-1.46-5.03-.48-1.7-1.27-3.26-1.97-4.87a83.4 83.4 0 0 0-1.1-2.35l-.85-1.5c-2.43-4.27-4.8-8.81-7.26-12.59a34.06 34.06 0 0 0-1.9-2.71 29.15 29.15 0 0 0-3.14-3.65 2.97 2.97 0 0 0-1.17-.8c-.2-.08-.39-.16-.6-.36l-.16-.13-.16-.2-.33-.42c-.22-.24-.47-.64-.72-.97l-.38-.52-.42-.62c-.52-.69-1.27-1.68-2-2.19a6.5 6.5 0 0 0-2.24-.64c-1.56-.15-3.1.14-4.48.57.56-.18 1-.1 1.32.2.18.13.28.34.36.6a3.17 3.17 0 0 1 .14.96c.05 1.64-.71 3.19-1.56 4.54l-.63 1.03-.58 1.1-1.1 2.13c-.71 1.32-1.1 2.32-1.19 2.55-1.5 5.56-.56 11.46-.11 17.09l.3 4.06.25 3.97.12 1.95c.04.36 0 .6-.03.84l-.1.73-.17 1.41c-.05.46-.1.9-.23 1.37-.63 3.59-1.74 6.64-2.35 9.68a33.15 33.15 0 0 1-8.92 16.85 28.88 28.88 0 0 1-3.65 3.09c-.6.53-1.33.87-2 1.31l-.5.33-.26.16-.4.22-1.65.89a173.3 173.3 0 0 1-13.3 6.55c-7.59 3.27-15.2 5.9-23 7.63l-2.93.65c-1 .2-2.06.35-3.1.53l-3.11.5-1.56.26-1.56.18c-2.08.23-4.16.47-6.25.67l-6.24.31c-1.24.1-2.48 0-3.73 0l-.88-.02-.06-.03a.82.82 0 0 1-.1-.07.64.64 0 0 1-.25-.36c-.05-.26.16-.53.34-.65z"/></g></svg>