<svg xmlns="http://www.w3.org/2000/svg" viewBox="0 0 500 500"><path d="M114.55 438.03l-.57-.37c.25.18.4.3.57.37zM208.83 450.82l-.16.33c.21-.24.22-.31.16-.33zM199.38 439.26l-.06.01.06-.01z"/><path d="M186.79 447.04c-.7.12-1.41.22-2.15.26-.74.05-1.55-.01-2.33.01-.8-.02-1.7-.16-2.55-.22-.86-.08-1.8-.29-2.71-.42-3.7-.67-7.64-1.73-11.79-2.85l-12.3-3.18-5.89-1.7-5.77-1.88a110.83 110.83 0 0 1-22.46-10.7 110.1 110.1 0 0 1-19.89-15.93c-1.65-1.58-3.13-3.35-4.7-5.04-1.53-1.7-3.1-3.39-4.6-5.12l-4.3-5.36-2.17-2.68c-.71-.9-1.34-1.85-2.02-2.77l-4.02-5.58c-.7-.91-1.3-1.89-1.91-2.85l-1.86-2.9-1.87-2.88a39.51 39.51 0 0 1-1.8-2.93l-3.45-5.98c-1.22-1.97-2.2-4.05-3.23-6.11-1-2.07-2.05-4.12-3-6.2l-2.57-6.36-1.28-3.18-1.05-3.25-2.1-6.51-1.75-6.68c-.28-1.12-.59-2.23-.85-3.35l-.72-3.4c-.46-2.27-1-4.53-1.4-6.82-.74-4.44-1.63-8.84-2.25-13.29-.77-4.43-1.25-8.9-1.81-13.36-.25-2.23-.4-4.47-.6-6.72l-.27-3.36-.15-3.38c-.08-2.25-.17-4.5-.2-6.76 0-2.25.04-4.51.1-6.77a79.66 79.66 0 0 1 1.49-13.94c.22-1.12.55-4.55 1.22-7.94.14-.86.31-1.7.5-2.51l.48-2.3c.35-1.4.61-2.53.7-3.1.1-.52-.65.75-1.53 2.38-.46.81-.85 1.75-1.25 2.57a70.2 70.2 0 0 0-5.85 22.82c-.32 5.16-.64 8.95-.66 12.79l-.07 5.95c.05 2.1.15 4.4.26 7.06.55 10.98 1.76 21.8 3.55 32.51a280.64 280.64 0 0 0 7.44 31.92c1.42 4.23 2.78 8.58 4.74 12.7l2.82 6.25 3.25 6.08c2.09 4.1 4.65 7.93 7.03 11.85 1.16 1.98 2.51 3.83 3.8 5.71 1.28 1.9 2.55 3.78 3.83 5.65 1.43 1.99 2.93 3.93 4.39 5.9 1.48 1.96 2.89 3.97 4.5 5.82 3.17 3.75 6.25 7.58 9.7 11.17a123.4 123.4 0 0 0 23.1 19.2c9.04 5.86 19.01 10.46 29.03 13.97l3.77 1.3c1.25.42 2.52.78 3.78 1.17l7.34 2.2c4.86 1.46 10.02 3.05 15.74 3.94.81.15 1.68.24 2.55.31.87.08 1.72.18 2.61.22 1.85 0 3.65.08 5.57-.17a30.86 30.86 0 0 0 10.89-3.36 49.46 49.46 0 0 0 8.49-5.8l1.77-1.47 1.35-1.11c.54-.43 1.04-.88 1.56-1.33 1.08-.86 1.9-1.84 2.83-2.77.42-.48.75-.99 1.13-1.48.37-.49.73-.99 1.06-1.5a14.94 14.94 0 0 0 1.57-4.37c.25-1.5.13-3.13-.34-4.67a11.65 11.65 0 0 0-6.12-6.78c-.66-.4-1.59-.59-2.41-.86l-1.27-.39c-.43-.12-.82-.28-1.31-.34l-2.83-.47-.7-.12-.8-.14-.63-.14c-.42-.1-.87-.17-1.27-.27l-1.12-.33c-.2-.06-.35-.08-.59-.18l-.7-.26-1.41-.51c-10.64-3.88-20.91-8.75-30.28-14.95a139.57 139.57 0 0 1-16.86-12.82 119.9 119.9 0 0 1-14.44-15.29c-8.74-11.03-15.62-23.58-20.94-36.93a246.77 246.77 0 0 1-3.43-9.2 316.42 316.42 0 0 1-3.14-9.3c-1.9-6.11-3.39-12.12-4-17.98l-.59-4.99c-.2-1.7-.4-3.48-.63-5.1l-.7-4.93-.63-4.78c-.5-3.22-.59-6.18-.89-9.25-.08-1.55-.07-3.17-.12-4.76l-.07-2.4c-.02-.8.02-1.6.02-2.4-.05-6.77.65-14.82 1.54-22.48.22-1.91.4-3.82.7-5.69.29-1.86.46-3.71.71-5.5.53-3.57.84-6.96 1.06-9.98.16-2.93-.8-4.2-1.88-4.57.9.32-.79 3.85-2.7 7.51-.9 1.84-1.88 3.72-2.66 5.2-.8 1.5-1.28 2.62-1.4 2.88-.66 1.63-1.29 3.32-1.89 5.05-.52 1.75-1.03 3.54-1.52 5.36-.54 1.8-.88 3.65-1.3 5.49-.38 1.84-.83 3.67-1.13 5.5l-.99 5.28c-.29 1.75-.52 3.5-.78 5.23l-.38 2.61-.26 2.62c-.17 1.74-.34 3.49-.48 5.25-.3 7.25.21 14.56 1.2 21.86l.64 5.64.34 2.9.4 3.22a98.7 98.7 0 0 0 2.75 12.34c1.13 3.97 2.42 7.82 3.75 11.55l2 5.56 2.1 5.64a191.15 191.15 0 0 0 10.28 22.16 153.67 153.67 0 0 0 13.67 20.65 131.21 131.21 0 0 0 14.46 15.53c1.32 1.18 2.66 2.33 4 3.5 1.35 1.13 2.74 2.2 4.11 3.3l2.07 1.64 2.14 1.54c1.43 1.01 2.84 2.07 4.3 3.04a173.35 173.35 0 0 0 18.15 10.6c1.56.78 3.15 1.49 4.73 2.24l2.38 1.11 2.4 1.02 4.84 2.01 4.9 1.82 1.46.55c.26.1.46.18.77.28l.93.28 1.85.54 1.74.4.44.09.22.05.11.02-.1-.02c-.09-.02 0 0-.01 0l.08.03.14.05c.09.04.16.11.15.21 0 .1-.1.19-.18.23a.76.76 0 0 1-.2.08l-2.1 1.66a60.5 60.5 0 0 1-2.18 1.63c-2.86 2.02-5.33 3.24-7.98 3.74zM183.9 137.93l-.46-.1c.2.05.34.1.47.1zM161.63 151.83l.09-.18c-.1.08-.12.14-.1.18zM149.3 167.9l-.43.05c.21-.01.34-.03.44-.06z"/><path d="M178.64 162.5c1.59-.48 3.17-.98 4.71-1.54 1.55-.54 3.12-1.07 4.64-1.67l4.46-1.74 2.07-.8c.84-.33 1.32-.49 2.95-1.18 1.38-.52 2.74-1.28 4.1-1.97 1.21-.82 2.43-1.62 3.62-2.45 1.22-.8 2.34-1.75 3.48-2.64.96-1 1.59-1.92 2.01-2.78a9.95 9.95 0 0 0 .94-6.35c-.14-.59-.26-1.18-.43-1.75-.22-.55-.36-1.14-.64-1.66-.27-.52-.52-1.07-.86-1.53l-.48-.73-.54-.66a12.63 12.63 0 0 0-2.63-2.32c-.48-.34-1.04-.6-1.56-.91l-.2-.11-.26-.07-.52-.13-1.04-.27-8.13-2.03c-.14-.03-.37-.1-.45-.1l-.3-.05-.6-.09-1.19-.18-2.39-.35-4.78-.73c-1.6-.23-3.16-.54-4.72-.86l-4.68-.97c-3.12-.69-6.2-1.56-9.3-2.43-13.03-3.98-25.48-9.2-37.67-15.12A135.48 135.48 0 0 1 110.7 96.1c-5.74-3.6-11.05-7.86-16.57-11.97-2.62-2.05-5.2-4.15-7.84-6.16l-3.97-3.01c-1.32-1.01-2.6-2.09-3.9-3.13a486.3 486.3 0 0 1-7.7-6.35 128 128 0 0 1-7.37-6.72c-1.3-1.2-2.35-2.51-3.44-3.8-.52-.66-1.12-1.24-1.59-1.95l-1.44-2.08c-.24-.34-.78-.97-1.48-1.74l-.28-.3-.34-.4a24.94 24.94 0 0 0-2.37-2.39 15.67 15.67 0 0 0-3.97-2.62 7.8 7.8 0 0 0-2.33-.63c-.43-.01-.8-.01-1.14.02-.35.06-.65.14-.88.2-.42.15 0 .11.85.14.81.08 1.88.44 2.64.99 1.56 1.07 2.59 2.54 3.06 3.17a28.42 28.42 0 0 1 2.15 3.54l2.13 3.77c.68 1.3 1.56 2.41 2.33 3.47.78 1.03 1.46 2.02 2.1 2.7l3.46 3.78 3.02 3.1c1.97 2 4.05 3.94 6.92 6.58a521.28 521.28 0 0 0 36.93 30.67c1.3 1 2.58 2.04 3.95 2.97 1.38.91 2.79 1.82 4.2 2.71 2.82 1.85 5.82 3.39 8.8 5l2.23 1.18 2.28 1.1 4.57 2.19c3.04 1.44 6.13 2.72 9.13 4.16 1.65.74 3.31 1.42 4.96 2.14 1.66.7 3.3 1.47 4.98 2.1l5.03 1.96 2.52.97 2.55.89 5.12 1.74c1.7.59 3.44 1.05 5.17 1.57 1.73.5 3.47 1.02 5.2 1.46l5.2 1.2 5.43 1.26c.37.1.73.2 1.05.32.32.1.58.26.72.53.12.26.17.6-.05.86a6 6 0 0 1-1.57.69l-.36.1-1.25.44-1.37.47-1.46.53-5.18 1.94a160.3 160.3 0 0 1-20.33 6.25c-1.72.35-3.43.72-5.14 1.05-1.72.25-3.44.55-5.17.77-1.72.16-3.43.36-5.18.48l-5.34.2c-2.08.12-4.17.05-6.25.02-2.08-.05-4.16-.04-6.25-.23-2.08-.15-4.16-.27-6.24-.45l-6.22-.75c-1.32-.14-2.6-.36-3.87-.58l-3.83-.64-3.8-.8-1.9-.4c-.64-.15-1.27-.33-1.9-.49l-3.77-.97c-1.25-.35-2.49-.75-3.74-1.12-2.5-.7-4.95-1.63-7.43-2.47-4.9-1.83-9.78-3.8-14.58-6.07l-1.8-.85c-.59-.28-1.24-.56-1.7-.84-1.02-.57-2.07-1.09-3.06-1.7l-2.88-1.96-2.7-2.22a37.09 37.09 0 0 1-11.4-21.42c-.66-3.98-.52-8 .16-11.87.1-.99.41-1.93.64-2.89l.36-1.43.5-1.4 1.18-3.37.73-2.17c.25-.72.37-1.43.55-2.16.22-1.05.55-2.16.68-3.23l.5-3.33.29-3.33c.1-1.13.1-2.2.16-3.3a131.58 131.58 0 0 0-.08-9.35l-.14-2.95c0-.8-.08-1.64-.19-2.19l-.16-.78-.17-.7a39.24 39.24 0 0 0-2.32-6.48c-.42-.87-.88-1.34-1.43-1.39-.13-.04-.29-.06-.41-.14a4.7 4.7 0 0 0-1.17-.59c.23.06.27.27.31.44.06.1.03.4-.01.85-.1.9-.28 2.3-.48 3.76-.4 2.92-1.02 6.18-1.35 6.7l-.03.12c-1.55 5-2.12 10.7-3.45 15.73l-.48 1.8c-.17.6-.39 1.16-.58 1.72l-.58 1.68-.7 1.58-.7 1.54-.83 1.43c-.27.5-.51.9-.8 1.45l-.98 1.89a38 38 0 0 0-4.26 17.36c0 6.73 1.48 13.43 4.17 19.56a52 52 0 0 0 11.39 16.4c1.15 1.22 2.47 2.26 3.76 3.32 1.26 1.1 2.68 2.01 4.06 2.96 1.36.98 2.86 1.75 4.32 2.55l1.1.6.56.3.5.24 2.03.95a199.4 199.4 0 0 0 16.59 6.98 147.08 147.08 0 0 0 30.07 7.58 201.33 201.33 0 0 0 30.66 1.75 129.7 129.7 0 0 0 18.93-1.57c6.38-.97 12.61-2.54 18.69-4.4z"/><g><path d="M394.21 419.43l.46-.39c-.21.17-.36.26-.46.4zM317.68 444.9l.2-.1c-.16.01-.2.06-.2.1zM294.3 444.53l-.35-.54c.15.27.26.43.35.54z"/><path d="M333.54 462c1.19 0 2.37-.1 3.56-.14 1.18-.1 2.37-.1 3.55-.26l3.5-.53 1.76-.27c.58-.1 1.14-.27 1.72-.4 2.26-.58 4.64-1.08 6.7-1.85 2.13-.72 4.27-1.39 6.32-2.27 8.33-3.3 16.11-7.68 23.2-12.65a180.96 180.96 0 0 0 38.27-36.68c2.93-3.74 5.62-7.67 8.1-11.72 2.44-4.02 4.67-8.05 6.82-12.18a186.89 186.89 0 0 0 11.05-25.6 211.16 211.16 0 0 0 7.41-26.91l2.65-13.37 2.75-13.47.66-3.28c.1-.56.22-1.08.31-1.66l.24-1.77.23-1.78c.06-.6.08-1.18.12-1.77.07-1.17.16-2.35.13-3.51.05-4.66-.36-9.19-.78-13.6-.2-2.2-.4-4.39-.56-6.55l-.57-6.74-.77-6.73-.94-6.7-1.14-7.11c-.4-2.33-.8-4.69-1.31-7.09a46.4 46.4 0 0 0-5.44-12.8 42.04 42.04 0 0 0-2.02-2.78c-.36-.43.2 1.07.9 2.87a57.3 57.3 0 0 1 1.48 5c1.68 6.27 2.36 15.86 2.97 20.76.58 4.95.86 8.58 1.07 12.23.05.92.14 1.83.17 2.77l.1 2.9.24 6.8c.24 5.32.57 10.52.38 15.6l-.07 1.9c-.03.63-.12 1.25-.17 1.88l-.18 1.86-.3 1.84c-.12.61-.2 1.2-.33 1.83l-.43 1.9-.86 3.8-3.54 15.24c-.61 2.53-1.23 5.16-1.87 7.62l-.96 3.7c-.32 1.23-.63 2.46-1.05 3.67-4.83 15.73-10.82 32.15-19.27 46.68-1.1 1.98-2.31 3.91-3.52 5.84-.6.95-1.19 1.95-1.81 2.86l-1.88 2.73c-1.2 1.84-2.62 3.55-3.96 5.3l-1.01 1.31c-.35.43-.72.84-1.08 1.26l-2.16 2.51a163.25 163.25 0 0 1-19.37 18.3c-1.83 1.52-3.78 2.91-5.67 4.36-.94.73-1.96 1.39-2.94 2.08-.98.68-1.96 1.4-2.97 2.02a136.73 136.73 0 0 1-12.22 7.2c-4.2 2.09-8.42 4.06-12.79 5.6-2.16.85-4.38 1.5-6.59 2.2-1.11.39-2.18.6-3.25.86-1.07.24-2.13.57-3.2.76l-3.03.47c-.5.08-1 .18-1.5.24l-1.52.09-3.04.2-3.04-.06-1.53-.03c-.5 0-1-.1-1.51-.15l-3.04-.34c-1-.13-2-.4-3-.59-1-.22-2.02-.35-3-.69-1.96-.6-3.96-1.1-5.86-1.94l-1.45-.57c-.48-.2-1.04-.4-1-.4-.09-.04-.1-.05-.29-.2-.09-.05-.21-.18-.33-.29-.12-.1-.24-.22-.38-.37a29.38 29.38 0 0 1-5.62-9.38l-1.1 6.4c.24-.3.51-.67.74-.9l2.31-.7 2.18-.64 2.16-.78 4.31-1.6 4.24-1.89a96.34 96.34 0 0 0 15.86-9.42c3.08-2.26 6.04-4.6 8.86-6.98 1.45-1.16 2.83-2.43 4.24-3.65l2.1-1.86 2.04-1.91c2.75-2.53 5.35-5.2 7.97-7.85 2.54-2.73 5.09-5.45 7.5-8.3 9.73-11.3 18.34-23.63 25.13-37.28 3.02-6.2 5.61-12.66 7.51-19.47l.66-2.58c.23-.86.46-1.72.6-2.61.3-1.77.63-3.57.88-5.33.17-1.72.4-3.44.51-5.16.1-1.72.25-3.45.28-5.16.2-6.85-.15-13.62-.84-20.28-.68-6.7-1.74-13.1-2.81-19.62-.6-3.45-1.18-7.2-1.9-11.07-.79-3.87-1.63-7.85-2.56-11.74a221.1 221.1 0 0 0-1.43-5.75l-.76-2.77-.4-1.36-.24-.8c-.1-.3-.2-.63-.3-.88-.84-2.2-1.7-3.66-2.32-4.85-.62-1.16-1.05-1.92-1.35-2.56-.6-1.17-1.1-2.55-2.1-3.2.41.3.04.94-.38 1.93-.23.5-.4 1.13-.54 1.89s-.14 1.66-.1 2.61c.08 1.91.44 4 .5 5.62.06 1.6-.1 2.8-.06 3.09.1 6.8.92 14.14 1.42 21.18l1.31 40.02c.05 1.82.05 3.62.05 5.42-.06 1.79-.03 3.6-.18 5.36l-.15 2.65-.26 2.63c-.12 1.8-.5 3.36-.74 5.03-1.23 6.6-3.6 13.2-6.6 19.6-6.04 12.84-14.44 24.95-24.05 36.03a203.8 203.8 0 0 1-26.94 25.93c-4.83 3.83-9.69 7.21-14.95 9.81-2.66 1.25-5.32 2.5-8.16 3.47l-2.1.77c-.7.26-1.44.44-2.16.67l-2.46.73-2.27.68-1.14.34c-.36.13-.84.15-.98.5l-3.29 4.07-2.64 3.28 1.4 3.94a46.18 46.18 0 0 0 6.2 11.73c.7.92 1.41 1.84 2.29 2.78.87.95 1.77 1.88 3.32 2.98.38.26.75.52 1.15.73.38.2.85.48 1.13.59l1.55.66 2.87 1.2a68.35 68.35 0 0 0 24.75 4.77z"/></g><g><path d="M271.83 225.6l.15-.02c-.06 0-.11-.02-.15.02zM249.53 225.98l.04-.16a.22.22 0 0 0-.04.16zM244.8 240.08l-.13.02c.06 0 .1 0 .13-.02z"/><path d="M254.2 240.7a57.2 57.2 0 0 0 12.56-1.4c4.25-.98 8.41-2.53 12.72-2.86 4.58-.34 9.1-.57 13.61-1.38 1.14-.2 2.27-.36 3.4-.5 1.13-.13 2.23-.22 3.44-.33 2.35-.22 4.62-.44 6.86-.6 2.16-.17 4.22-.62 6.26-.9 2.03-.27 4.06-.33 5.9.25a14 14 0 0 1 2.7 1.24c.22.09.9.19 1.66.24.74.07 1.51.18 1.84.12.3-.03-.5-1.6-.82-2.02-.48-.66-1.16-1.5-1.95-2.15-.76-.72-1.61-1.2-2.2-1.54a20.1 20.1 0 0 0-3.09-1.19c-.47-.14-.95-.23-1.48-.32-.53-.1-1.1-.18-1.77-.22-5.52-.43-10.84.24-15.82-.75-4.26-.8-8.62.16-12.9-.07-4.62-.27-9.24-1.02-13.84-.73-2.45.17-4.9.04-7.35-.08a73.79 73.79 0 0 0-7.33-.1 302.71 302.71 0 0 1-14.41.56c-2.82.04-5.6-.12-8.36-.32-7.04-.53-14.18-.68-21.55-.97-.82-.04-1.65-.1-2.47-.17-.84-.05-1.67-.12-2.5-.2l-5-.5c-1.7-.09-3.4-.16-5.1-.16-.86 0-1.71.01-2.57.07-.87.1-1.74.21-2.6.36-.92.17-1.92.33-2.95.53-1.02.2-2.07.4-3.09.84-2.03.8-3.91 1.93-5.1 3.67-.58.85-.5 2.15-.26 3.27-.2-.91.87-.6 2-.02 1.14.57 2.32 1.4 2.46 1.47.91.4 1.82.63 2.73.83.9.17 1.82.46 2.71.73 1.73.56 3.35 1.25 4.94 1.81 1.62.64 3.23 1.18 4.95 1.33 7.23.7 14.47.76 22.08 1.16 3.22.15 6.48.27 9.76.36 3.32.05 6.64.16 9.9.17 3.92.07 7.98.4 12.03.48z"/></g><g><path d="M220.42 318.99l-.25.12c.12-.05.2-.06.25-.12zM229.29 290.85h.16a.18.18 0 0 0-.16 0zM214.4 291l-.07-.1c.02.05.04.08.07.1z"/><path d="M215.96 298.5c.12.78.16 1.49.25 2.2.01.32.03.64.07.97.04.33 0 .6.04.9.02 1.15.03 2.02-.07 2.95-.18 1.02-.25 1.83-.86 2.5-.6.69-1.99 1.1-3.55.8a18.76 18.76 0 0 1-5.13-2 55.3 55.3 0 0 1-5.07-3.16c-3.35-2.34-5.73-5.85-7.33-9.63-.74-1.84-1.7-3.58-2.31-5.53-.35-.96-.72-1.91-.86-2.95-.09-.52-.16-1.03-.22-1.55l-.07-.77c-.01-.12-.03-.27-.02-.38l.03-.28c.09-.8.43-1.83.68-3.17a9.47 9.47 0 0 0-1.17-4.35c-.3-.5-.58-.86-.75-1.02-.15-.15-.2.49-.28 1.17-.06.69-.32 1.38-.38 1.68-.62 1.92-2.06 3.98-2.37 5.38l-.19.99-.1.83c-.05.53-.1 1.02-.12 1.51-.03.99-.1 1.99.16 3.33l.34 2.1.18 1.05.27 1.03c.17.7.34 1.38.57 2.06.22.67.4 1.37.67 2.03.94 2.7 2.08 5.36 3.4 8.08 1.1 2.2 2.7 4.11 4.65 5.8 1.93 1.66 4 3.04 6.08 4.49a27.02 27.02 0 0 0 7.9 3.93c.8.2 1.58.43 2.48.5l1.32.15c.45.02.93-.01 1.4-.02.47-.03.94-.04 1.42-.12.48-.09.97-.2 1.46-.31.97-.19 1.91-.65 2.84-1.08.5-.22.95-.52 1.4-.82.45-.3.9-.6 1.34-.93.8-.66 1.53-1.39 2.27-2.12.61-.75 1.24-1.52 1.8-2.32.49-.84 1.02-1.69 1.42-2.56a20.98 20.98 0 0 0 1.81-10.4c-.26-3.21-1.02-6.1-1.93-8.82a81.52 81.52 0 0 0-3.16-7.73c-.69-1.44-1.33-2.87-2.11-4.28-.77-1.4-1.5-2.87-2.33-4.2-4.07-7-9.5-12.47-14.2-17.97-2.24-2.5-3.68-5.07-5.35-7.6-.8-1.3-1.56-2.68-2.4-3.96-.43-.65-.87-1.3-1.33-1.92-.45-.64-.92-1.31-1.42-1.94-1.06-1.36-2.24-2.96-3.7-4.39a10.45 10.45 0 0 0-5.21-3.05c-1-.2-2.2.33-3.17.96 1.58-1.03.41 4.35.41 4.68 0 2.02.6 3.85.98 5.77.35 1.85.55 3.71.9 5.52.4 1.82.95 3.6 1.89 5.29.92 1.78 2.19 3.46 3.37 5.14.6.83 1.23 1.66 1.85 2.48.62.78 1.24 1.5 1.87 2.25 2.5 2.93 5.07 5.7 7.35 8.51 1 1.2 1.9 2.4 2.86 3.58.86 1.2 1.83 2.38 2.6 3.6l1.2 1.83 1.07 1.86a36.15 36.15 0 0 1 4.56 13.43z"/></g><g><path d="M287.81 307.94l.04.09c0-.05 0-.08-.04-.1zM289.42 289.48l.13.09a.24.24 0 0 0-.13-.09zM277.87 280.1l.04-.15a.28.28 0 0 0-.04.15z"/><path d="M274 289.93c-.3 1.17-.59 2.35-.7 3.58a45.32 45.32 0 0 0-.32 3.65c.02 1.24.07 2.48.17 3.7l.08.92a56.22 56.22 0 0 0 .56 2.75 31.76 31.76 0 0 0 5.23 11.71c1.06 1.35 2.3 2.5 3.71 3.4.46.3.96.54 1.44.8 2.98 1.38 6.46 1.2 9.47-.04.38-.15.75-.34 1.12-.51.36-.17.75-.4 1.02-.55a19.58 19.58 0 0 0 4.34-3.52 92.4 92.4 0 0 0 9.37-11.37c2.67-3.9 3.68-8.49 6.01-12.33.63-1.03 1.32-2.01 1.96-3.03.32-.5.7-3.53.56-4.2-.06-.32-1.6.87-2.03 1.2a38.4 38.4 0 0 0-4.14 3.8c-1.65 1.97-2.43 2.86-3.76 4.99-2.78 4.34-5.73 8.48-9.87 11.16-1.67 1.05-3.08 2.29-4.54 3.45a15.16 15.16 0 0 1-2.6 1.68 2.2 2.2 0 0 1-.9.18 2 2 0 0 1-1.56-.78 2.5 2.5 0 0 1-.45-1.17l-.06-.5-.36-1.34c-.2-.83-.34-1.78-.34-2.8l.08-3.04c.15-1.03.3-2.05.4-3.06.14-1.02.37-2.04.47-3.08.6-4.07 1.64-8.27 3.5-12.2.56-1.13 1.09-2.28 1.78-3.35l1-1.62c.32-.54.76-1.06 1.14-1.59 1-1.33 1.95-2.68 2.89-4.05l3.12-4.03c1-1.36 2.13-2.7 3.25-4.05 1.12-1.35 2.2-2.67 3.42-4.01 4.39-4.96 9.37-8.27 13.47-12.99 1.1-1.22 2.43-2.62 3.51-4.2a9.9 9.9 0 0 0 2.08-5.4c.05-1-.62-2.14-1.35-3.02 1.2 1.44-4.16.92-4.52.98-1 .14-1.93.41-2.84.76-.9.35-1.77.75-2.68 1.09-3.56 1.27-7.12 2.2-10.07 4.6a94.92 94.92 0 0 0-4.34 4.05 117.44 117.44 0 0 0-3.9 4.16c-1.27 1.39-2.53 2.89-3.78 4.38-1.25 1.49-2.52 2.95-3.74 4.57l-3.12 4.05c-1 1.4-1.94 2.9-2.91 4.34l-1.45 2.19c-.47.74-.9 1.56-1.35 2.33-.44.8-.93 1.56-1.33 2.37l-1.22 2.43c-.24.49-.5.97-.73 1.46l-.68 1.52c-.44 1.01-.95 2-1.35 3.06l-1.18 3.2c-.43 1.06-.66 2.21-.98 3.32z"/></g><g><path d="M244.66 323.01h-.05c.02.01.04.03.05 0zM252.52 323.07v.12a.3.3 0 0 0 0-.12zM253.47 312.42l.04-.02c-.02 0-.03 0-.04.02z"/><path d="M250.55 312.08c-1.3-.05-2.6.28-3.9.85-1.34.6-2.72 1.6-4.11 1.61-1.5.02-2.87-.12-4.47.18-1.6.28-3.2.15-4.94.14-.87.04-1.7.3-2.54.69-.42.16-.83.33-1.26.53-.43.2-.87.3-1.34.45-.5.16-1.04.27-1.58.45-.27.12-.88 1.49-.82 1.84.03.16 1.05.21 1.3.25.43.06.88.07 1.33.18.45.1.82.2 1.04.22.43.02.77.15 1.06.18.3.05.55.02.95.04a7.7 7.7 0 0 1 4.68 1.2c.62.4 1.3.53 1.97.59.7.06 1.47.06 2.18.3 1.56.49 3.13 1.3 4.75 1.26 1.72-.02 3.44.64 5.18.47 1.7-.13 3.39-.44 5.1-.6.98-.09 1.98-.1 2.99-.12 1.26-.05 2.52-.22 3.76-.41 1.25-.19 2.48-.5 3.74-.69.56-.09 1.14-.1 1.71-.11l1.74-.04a8.55 8.55 0 0 0 3.4-.59c1.13-.53 2.73-1.08 3.02-3.5a6.67 6.67 0 0 0-.41-2.36c.41 1.35-1.69-1.1-1.8-1.2-.77-.65-1.45-.83-2.15-1.22-1.35-.73-2.64-1.93-3.81-2-2.44-.07-4.7.47-7.05.85-1 .12-1.99.3-2.98.45a25.77 25.77 0 0 1-4.87.24c-.62-.05-1.25-.11-1.87-.13z"/></g><g><path d="M312.34 127.84l.46-.16c-.2.06-.35.09-.46.16zM344.58 165.27l-.13.15c.12-.05.15-.1.13-.15zM358.7 151.45l.37-.03c-.18 0-.3.01-.38.03z"/><path d="M332.93 149.56c-1.41-.16-2.78-.4-4.15-.63-1.38-.19-2.71-.5-4.06-.75-2.7-.5-5.34-1.2-7.87-1.97a51.35 51.35 0 0 1-5.25-1.92l-.18-.09-.1-.04c-.01 0-.01.02-.03.02h-.1c-.24 0-.75-.1-.96-.54a.46.46 0 0 1-.04-.1.96.96 0 0 1 .1-.7c.05-.12.13-.24.22-.36l.15-.18c.08-.08.06-.1.37-.28a54.55 54.55 0 0 1 7.46-3.52l8.5-3.42c2.8-1.1 5.68-2.2 8.57-3.22 3.14-1.1 6.28-2.33 9.41-3.47 3.11-1.29 6.26-2.54 9.32-3.92a170.27 170.27 0 0 0 17.8-9.38c11.54-7.03 22.51-14.2 33.05-22.78 2.52-2.09 4.9-4.35 7.28-6.58l6.78-6.76c4.54-4.55 9.05-9.18 13.6-13.93 2.4-2.55 4.8-5.14 7.01-7.96.27-.36.74-1.11 1.3-2.07a63.2 63.2 0 0 0 1.72-3.39c.51-1.25 1.07-2.47 1.4-3.55.36-1.07.61-1.92.7-2.36.08-.4-.64.5-1.48 1.62-.81 1.14-1.92 2.39-2.34 2.96-2.93 3.69-8.01 8.47-10.6 10.9-2.6 2.48-4.58 4.2-6.56 5.96l-6.72 6-8.54 7.53c-1.42 1.26-2.85 2.4-4.28 3.6-1.43 1.18-2.82 2.4-4.34 3.48l-4.47 3.29c-1.48 1.1-3.08 2.06-4.62 3.08-1.57.98-3.08 2.04-4.71 2.93l-4.87 2.71c-10.57 5.63-21.3 12.26-32.63 16.57-6.1 2.27-12.33 4.2-18.73 6.05-3.18.93-6.4 1.89-9.63 2.88l-4.71 1.47a103.8 103.8 0 0 0-5 1.65c-1.19.42-2.4.88-3.62 1.4-.62.26-1.21.54-1.9.86-.42.18-.88.45-1.34.7l-1.38.76c-3.55 2.17-6.47 5.1-7.39 8.88-.19.96-.35 1.97-.33 2.98.06 1 .16 2 .47 2.96.55 1.92 1.6 3.69 3 5.26a22.17 22.17 0 0 0 5.07 4.12c.23.16.48.3.73.44l.62.35.97.53a61.53 61.53 0 0 0 9.55 3.8c2.52.79 5.09 1.4 7.65 1.88 7.49 1.49 14.93 1.98 22.18 2.17 3.65.12 7.23.12 10.79.14 1.78.01 3.66-.06 5.49-.08 1.83-.06 3.68 0 5.51-.15l6.42-.4c2.14-.14 4.26-.42 6.4-.62l3.19-.33 3.17-.47c2.12-.33 4.23-.57 6.36-.96a138.9 138.9 0 0 0 31.3-9.6c4.93-2.21 9.82-4.54 14.52-7.12l1.77-.95c.6-.32 1.17-.61 1.82-1.04 1.27-.79 2.56-1.55 3.8-2.37l3.6-2.7c1.13-.98 2.22-2 3.33-3 3.87-3.8 7.2-8.08 9.89-12.77a50.55 50.55 0 0 0 6.37-31.62c-.25-1.37-.5-2.75-.78-4.12-.33-1.36-.78-2.7-1.18-4.04-.37-1.36-1.02-2.61-1.56-3.91l-.85-1.92-.8-1.56a286.55 286.55 0 0 1-6.84-14.17c-.5-1.19-1.02-2.36-1.52-3.5-.43-1.14-.96-2.26-1.39-3.35a45.97 45.97 0 0 0-1.29-2.99c-.38-.82-.74-2.07-1.27-3.32a7.16 7.16 0 0 0-.92-1.64c-.4-.52-.8-.9-1.18-1.07a2.3 2.3 0 0 0-1.92.06c.2-.1.44.02.68.33.12.13.21.38.3.66.1.29.18.6.2.9.14 1.28-.13 2.73-.4 4.14a60.64 60.64 0 0 0-.72 6.37c.08 5.05 1.6 10.42 3.03 15.46 1.32 4.86 2.97 9.7 3.57 13.6.7 4.13.7 8.27.37 12.63a39.7 39.7 0 0 1-16.26 28.95c-.88.74-1.9 1.27-2.86 1.88l-.73.46c-.23.15-.48.3-.79.46l-1.75.94a188.2 188.2 0 0 1-14.2 6.95c-8.2 3.52-16.6 6.34-25.2 8.19l-3.24.68c-1.09.2-2.21.36-3.31.55l-3.33.53-1.66.27-1.67.18-6.68.73-6.7.38c-2.67.13-5.37.05-8.07.07-2.74-.03-5.63-.16-8.4-.28-5.6-.25-11.12-.66-16.46-1.38z"/></g></svg>