<svg xmlns="http://www.w3.org/2000/svg" viewBox="0 0 400 400"><path d="M117.4 44.2c-4.4.4-6.3.9-5.7 1.5.2.2.5.2 1.5 0 1.6-.3 6.8-.3 8.6.1 2.2.4 4.8.9 6 1 1.1.1 3.7.8 4 1 .4.4-4.3.5-5.6.2-1.4-.4-11.3-.3-12.3.1s-.3.6 2.1.8c1.3.1 2.9.2 3.6.2l1.2.1-1.6.6c-1.6.6-1.7.6-5.4.6-2.1 0-4.6.1-5.5.2-3.3.3-4 .4-6.4.5-4.6.2-9.3 1.1-15.1 2.9-1.2.4-2.8.8-3.5 1-1.5.3-6.4 1.8-7 2.1-.2.1-1.5.6-2.8 1-2.2.8-3 1.3-2.7 1.6.1.1.6 0 1.1-.1 3.4-.9 4.2-1 5.5-1.2 1.4-.2 4.6-.9 5.8-1.4 4.7-1.8 12.3-3 21.7-3.4 1.2-.1 3-.2 4-.2 1.9-.1 5.5.1 5.3.3-.2.2-2.6.8-3.3.8-.6 0-3.2.7-4.1 1.1-.8.3-.7.8.1.7l8.4-.8c.7-.1 1.5-.1 2 0 1 .2 1.7 0 2-.8l.2-.6h18c7.8 0 14.6 0 15.1.1.5 0 3.2.1 6 .2 3.6.1 6 .2 8.2.5 1.7.2 4.2.5 5.6.6 1.3.1 3.1.3 3.8.5s1.9.3 2.4.4c1.1.1 2.2.3 3.2.4.3 0 1.9.3 3.5.5s4 .6 5.3.8c1.3.2 3.5.6 5 .8 1.4.2 3.5.6 4.5.8 1 .2 2.1.4 2.4.5 2.6.5 9.9 2.2 9.3 2.2-.1 0-2.3-.2-4.8-.5s-6-.6-7.8-.8c-1.8-.2-4-.4-5-.6-1-.1-3-.4-4.6-.5-1.6-.1-3.6-.3-4.5-.5-.9-.1-3.3-.3-5.4-.4-3.2-.1-3.8-.2-4.4-.5-1.2-.7-7.4-.8-12.5-.2-1 .1-3.5.2-5.4.3-4.2.1-5 .4-1.8.8.6.1 1.7.3 2.5.4.8.2 1.9.3 2.4.3.8 0 .9.1.5.2-.6.2-4.3.1-5.6-.2-.5-.1-1.7-.4-2.6-.6-.9-.2-2.8-.5-4.2-.7-1.4-.2-2.9-.4-3.3-.6-1.5-.5-8.5-.9-8.5-.4 0 .3 1.1.5 4.3.8.6.1 2.1.5 3.3.9 1.2.4 3.3 1 4.5 1.3 1.2.3 3.2.9 4.4 1.2 5.3 1.5 12.3 1.1 14.9-.9.4-.3 1.3-.6 2.6-.9 1.1-.2 2.1-.5 2.2-.6.2-.2 1.5-.2 2.6 0 .9.2 4.7.7 7 .9.9.1 2.1.2 2.7.4.6.1 2.8.5 4.9.8 2 .3 4.1.6 4.5.7.8.2 10.3 1.4 13.3 1.8.9.1 2.4.4 3.5.7 1.1.3 3.1.7 4.5.9 1.4.2 3 .5 3.6.7s2.1.5 3.4.8c1.3.3 3.5.8 4.9 1.1 1.4.4 3.2.8 4.1 1 .9.2 1.8.4 2 .5.3.1 1.2.4 2.1.6.9.2 2 .5 2.6.7s1.9.5 2.8.8 2.5.7 3.3 1c.9.3 2.9.9 4.5 1.3s3.4.9 3.9 1.1c.5.2 1.8.6 2.9.9 2.2.6 4.1 1.2 7.9 2.6 5.8 2.1 7.6 2.8 8.6 3.3.6.3 2.1.9 3.3 1.4 6.9 2.7 15.1 6 17.5 7.2 1.2.6 3.6 1.6 5.5 2.3 1.8.7 3.6 1.4 3.9 1.6 1.5.7 6.9 3 8.7 3.7 2.5 1 8.9 4.3 9.8 4.9.3.2 3.6 1.5 4.6 1.7.2.1.4.2.4.3s.2.2.4.2.9.4 1.6.9c1.3.9 2.5 1.3 2.5.9 0-.2-.6-1-.8-1-.1 0-1.1-.6-2.3-1.4-3.6-2.4-5.5-3.6-7.7-4.8-1.1-.6-2.8-1.6-3.6-2.2-1.5-1-6.3-3.9-6.5-3.9 0 0-.4-.2-.7-.4-.3-.2-.8-.5-1-.7-.9-.5-2.2-1.2-3.2-1.8-.6-.3-1.1-.6-1.2-.7-.1-.1-1.3-.6-2.7-1.3-1.5-.6-4.9-2.3-7.6-3.7-2.7-1.4-5.9-2.9-6.9-3.4-3.4-1.5-4-1.8-6.7-3.2-1.4-.7-3.3-1.5-4-1.8-2.2-.8-4.8-1.9-6.7-2.8-1-.5-2-.9-2.2-.9-.2 0-1.8-.6-3.6-1.3-5.2-2.1-5.8-2.3-6.1-2.3-.2 0-.3-.1-.4-.2-.1-.1-.6-.3-1.1-.4-.6-.1-2.3-.7-3.8-1.2s-3.8-1.3-5.1-1.6c-1.3-.4-3.4-1-4.7-1.4-1.3-.4-3.3-1-4.4-1.4-1.1-.3-3-1-4.1-1.4a63.1 63.1 0 0 0-9.3-2.8c-1.3-.3-3.2-.7-4.3-1-1.1-.3-2.1-.5-2.2-.5-.1 0-.4-.2-.6-.4-.2-.2-1-.5-1.8-.7-1.5-.3-3.7-1-6.1-1.8-.8-.3-3.1-.8-5.3-1.1-2.1-.4-4.3-.8-4.9-.9-.5-.1-2-.3-3.3-.4-1.3-.1-3.1-.4-4-.5-.9-.2-2.1-.3-2.6-.3-.6 0-1.5-.1-2.2-.3-.6-.2-1.7-.3-2.3-.3-.6 0-1.4-.1-1.8-.2-.7-.2-2.4-.3-5.8-.5-1.4-.1-2.9-.2-3.2-.2-.3 0-1.4-.1-2.3-.2-1-.1-2-.1-2.2-.2-.3 0-1.1-.1-1.8-.1h-1.3l1.1-.3c2.8-.7 4.6-.8 6.4-.6.9.2 1.7.2 1.8.2.1-.1-2.4-.7-3.1-.7-.3 0-1-.1-1.4-.2-.6-.2-1-.2-2 0-1.4.3-7 .1-5.8-.2 2-.5 3.1-.6 6.2-.7 3.7-.1 4.6 0 8.1.9 2.7.6 2.8.5.6-.6-3.9-2-6.2-2.7-8.4-2.7-3.1 0-3.8.1-4.2.4-1.3 1.1-12.7 2.1-18.4 1.5-1.2-.1-3.5-.2-5.1-.2-2.5 0-3.1-.1-5.6-.7-1.5-.4-3-.7-3.3-.8-.3-.1-1.3-.3-2.1-.5-.9-.2-2-.5-2.5-.5-.5-.1-1.3-.1-1.7-.2-2.1.1-7.2.1-9.6.3m61.5 6.2c.4.2 1.2.2 1.1 0-.1-.1-.4-.2-.7-.2-.5 0-.6 0-.4.2m-58.6 6c0 .2.3.4.8.6 1.2.4 6 2.9 6.7 3.5 1.2.9 4.3 2.3 7 3.1 1.5.5 3.3 1.1 3.8 1.4s1.3.6 1.6.7c.3.1.9.4 1.5.6 3.2 1.5 8.1 1.8 17.1.9 2.4-.2 1.3-.6-2-.6-5.6-.1-9.5-.7-12-1.9-.6-.3-2.1-.9-3.4-1.3-1.3-.5-3.8-1.3-5.6-2-1.8-.6-3.8-1.4-4.5-1.6-.7-.3-1.9-.7-2.6-1-.7-.3-1.5-.6-1.8-.8-2.5-1.1-6.6-2.2-6.6-1.6m-1.5 2c-.5.1-1.7.4-2.6.6-2 .4-7.2 2-9.6 3-.9.3-2.4.9-3.3 1.3-2.4.9-4.4 1.9-4.4 2.2 0 .4.2.3 4.3-1 3.8-1.3 5.7-1.7 9.5-2.4 1.1-.2 2.7-.5 3.6-.6s3-.4 4.5-.5c3.2-.3 3.4-.4 2-1.2-.5-.3-1.1-.8-1.4-1-.5-.6-1.2-.7-2.6-.4m7.7 5.9c-1 .4-2.2 1-2.6 1.2-.5.2-1.1.5-1.5.6-.7.2-3.6 1.9-3.3 2 .1 0 .5 0 .9-.2.9-.4 3.8-1.3 4.8-1.5.5-.1 2.1-.5 3.6-.8s2.9-.6 3.2-.7c.6-.1.6-.4-.1-.7-.3-.1-.7-.3-.9-.4-.9-.5-2.3-.3-4.1.5m38 2.6c-.5.3-.5 1.4-.1 2.1.5 1.1 2.9 2.6 4.5 2.9.4.1.9.2 1.2.2.3.1 2.3.2 4.6.2 5.1.1 6.9.5 10.1 1.9 1.2.5 2.9 1.3 3.8 1.6.9.3 2.4 1 3.3 1.6l2.6 1.3c.8.4 2.4 1.1 9.5 4.6 1.7.8 3.3 1.6 3.5 1.7l1.4.7c1.4.9 3 1.6 3.3 1.6.5 0 .4-.5-.2-.8-1-.4-5.2-3-6.2-3.8-.5-.4-2.2-1.3-3.7-2.1-1.5-.7-3.4-1.8-4.3-2.4-.9-.6-1.6-1-1.7-1s-1-.5-2-1.1c-1.8-1.1-8.3-4.2-10.7-5-2.4-.9-3.7-1.1-7.1-1.2-4.6-.1-5.8-.5-7.2-2-.8-.9-1-.9-3.2-1.1-.7 0-1.3.1-1.4.1m20.7 1.3c-.2.3.4.8 1.6 1.6l2.6 1.7c.8.6 2.6 1.7 3.9 2.5 1.3.8 2.8 1.7 3.4 2.1 1.7 1.1 4.9 2.8 7.7 4 1.4.6 3.8 1.9 5.4 2.9 1.6 1 3.5 2.1 4.1 2.4 2.1 1.1 3.1 1.7 5 2.8 2.1 1.3 5.9 3.2 8.4 4.2 1 .4 1.9.8 2.1 1 .2.1.6.3.9.4.6.1 3.7 1.4 4.9 2 1.9.9 2.6.6.8-.4-.2-.1-1.5-.8-2.8-1.6-1.3-.8-4-2.2-5.9-3.2-7.8-4.2-9.6-5.3-6.7-4.1.7.3 2.3 1 3.4 1.5s3 1.3 4.1 1.8l4.7 2.1c.5.2.9.5 1 .6l.1.1c0-.1 1.1.4 2.3 1 1.3.6 2.4 1.2 2.4 1.2s1.2.5 2.6 1.2c1.4.7 3.4 1.6 4.5 2 1.8.8 2.4 1.1 4.5 2.4.4.2 1.4.8 2.3 1.2.9.4 1.9 1 2.2 1.2.7.4 2.7 1.3 4.8 2.3.7.3 1.2.5 1.2.4 0-.1-.1-.2-.2-.2s-.7-.4-1.2-.8c-1-.9-5.7-4-5.9-4-.3 0-7.7-3.8-9.6-4.9-1.1-.7-2.5-1.4-3-1.6-.5-.3-.9-.5-.8-.6.2-.2 2.6 1 3.8 1.8 1.1.7 1.4.9 6.2 3.2 3.6 1.7 6.8 3.3 7 3.5.1.1 1.6 1 3.4 2 1.8 1 3.5 2.2 4 2.5 1.5 1.2 10.3 5.3 10.7 5 0 0-.6-.6-1.5-1.2s-1.6-1.2-1.7-1.4c-.1-.1-.2-.3-.3-.3-.4-.1-.7-.2-.7-.4s1.4.5 4 2c4.1 2.4 7.8 5 9.2 6.5 1.4 1.4 5 4 6.2 4.4.6.2.7.3.4.4-.6.2-2.5.2-3-.1-2.8-1.5-10-5.8-12.1-7.2-.8-.5-1.5-.9-1.6-.9-.1 0-.7-.4-1.4-.8a21 21 0 0 0-2.4-1.4c-.6-.3-1.1-.6-1.2-.7-.2-.3-1 .1-.9.4 0 .3.9 1 2.3 1.9.2.1.9.6 1.6 1 .7.4 1.3.8 1.3.8s1 .7 2.1 1.5c4.7 3.6 5.4 4.1 9.6 6.5 1.4.8 2.5 1.5 2.5 1.6 0 .1.3.5.7.8.4.3 1 1 1.3 1.6.3.6.7 1.2.9 1.5l.4.5 1.2-.5c4.4-2 7.5 1 4.2 4.1-.5.5-1 1-1 1.2 0 .7 2.3-.1 3.4-1.2.2-.2.6-.5.9-.6 1.8-.9 3-3.6 2.4-5.4-.5-1.8-1.8-2.6-4.2-2.8-2.6-.2-5.6-2.7-7.4-6.4-1.1-2.2-2.5-4.1-3.1-4.4-.4-.1-.7-.5-2.4-2.2-1.3-1.3-2.7-2.2-4.8-2.8-.8-.2-2-.6-2.6-.9-1.4-.6-4.3-1.2-6.2-1.4-3.3-.3-5.8-.9-7.7-2-3.1-1.7-9.3-4.7-9.9-4.7-.1 0-1.6-.8-3.5-1.7-4.1-2-8.3-4-8.6-4-.1 0-.5-.1-.7-.3-.7-.3-2.3-.6-2.3-.4 0 .1-.4 0-.9-.3s-1.8-.8-2.9-1.3c-1.1-.4-2.7-1.1-3.7-1.5-1-.4-2.5-1-3.4-1.3-.9-.3-1.7-.7-1.9-.8-.3-.2-5.7-3-5.9-3-.1 0-1.3-.6-2.7-1.4-1.4-.8-2.6-1.3-2.7-1.3-.2.1-2.7-1-3.2-1.5-.1-.1-1.5-.7-3-1.4-4.7-2-4.7-2-4.7-2.4 0-.2-.7-1-1.6-1.8-2.2-1.9-3-2.8-4-4-.4-.6-.9-1.2-1.1-1.5-.3-.4-4.3-.8-4.3-.4 0 .3 1.1 1.7 1.8 2.3.4.3.8.7 1 .8.2.2.9.6 1.6.9.7.4 1.9 1.1 2.7 1.7.8.6 1.6 1.1 1.9 1.2.2.1.4.2.4.3 0 .2-1.8-.6-3.1-1.3-.7-.4-1.5-.8-2-.9-1.8-.6-4.7-1.8-5.2-2.1-.3-.2-1.4-.8-2.4-1.3-1.1-.5-2.1-1.1-2.4-1.2-1-.4-1.4-.5-1.6-.3m40.6 25.5c.1.3 2.7 1.8 3.2 1.8.1 0 .6.3 1.2.6.5.3 2.9 1.6 5.4 2.9 4.1 2.1 5.1 2.6 6.2 3.3.2.1.5.3.7.4 1 .4 6.5 3.3 6.7 3.5l.1.1c0-.1.6.2 1.2.6.7.4 2.3 1.2 3.7 1.9 3.4 1.6 4.5 2.2 6.7 3.6 2.2 1.3 7 4 7.3 4 .1 0 1.1.6 2.3 1.3 6.8 4 10.3 7.1 11.3 10.5.8 2.5 3.4 4.2 5.3 3.4.4-.2 1.2-.3 1.8-.3 2.5 0 2.9-1 .5-1.2-2.2-.2-4.2-1.5-4.4-2.9-.2-1.9-.4-2.2-1.6-3.4-1.3-1.3-2.7-2.3-3.2-2.3-.2 0-.9-.5-1.7-1-.8-.6-2.4-1.6-3.7-2.4-1.3-.7-2.9-1.7-3.6-2.2-.7-.4-3.4-1.9-6-3.1-2.6-1.3-5.6-2.9-6.7-3.5-1.1-.7-2.9-1.6-3.9-2.1-2.1-1-14-7-17.3-8.7-6.3-3.3-8.8-4.4-10.6-4.8-.8-.3-.9-.3-.9 0m17 5.6c0 .4.2.5 3.5 2.2 1.7.9 3.5 1.8 4 2.1 2.5 1.5 7.2 3.5 9 3.9 1 .2 1.7.5 4.2 1.8 3.2 1.6 4 1.9 3.9 1.4 0-.2-1.3-1-3.4-2-1.8-.9-3.5-1.9-3.8-2.1-.7-.6-4.8-2.6-8.1-4-1.6-.7-3.1-1.3-3.3-1.4-.2-.1-.8-.4-1.4-.5-1.4-.4-2.6-.9-3.2-1.2-.8-.6-1.4-.6-1.4-.2M108.6 109c-2.6.7-5.4 2.9-6.6 5.2-1.2 2.3-2.3 6.6-1.8 6.9.4.2.5.2 1.1-.3 1.3-1.1 2.6-1.6 5.8-2 1.5-.2 1-.6-1-.8-1.2-.1-2-.1-2.6.1-1.2.3-1.2.2.1-1 1.7-1.7 5.3-3.2 6.8-2.8.3.1 1.1-.7.9-.9-.2-.2-2.4-.2-3.5 0l-1.1.1 1-.4c1.2-.5 3.2-.8 3.7-.5.2.1.4.2.5.2.2 0 .8.6.8 1 0 .1.1.4.2.5.3.5-.1.5-.4.1-.7-.9-.9.4-.2 1.4.2.3.9.8 1.4 1.1 1.6.8 4.6 3.4 5.1 4.4.4.7.5.7 1.2 0 1.2-1.2 1.2-.6 0 1.1-.5.7-.8 1.2-.8 1.2.5 0 2.4-1.3 3.5-2.4 2-1.9 2.1-2.5.6-3.8-.5-.4-2.1-1.9-3.4-3.2-1.4-1.3-2.8-2.6-3.1-2.8-.4-.2-.8-.5-.9-.7-.4-.3-1.6-.9-1.7-.7-.1.1-.3-.1-.5-.4-.8-1-2.8-1.2-5.1-.6m-18.2 4.6c-3 3.3-5.3 10.8-4.3 14.1l.2.6.2-.6c.3-.8 1-3 1.1-3.8.2-1.1.2-.9.4.9.2 1.9.5 3.1.9 3.1h.5c.2 0 .2.4.2 1.3 0 1.6.4 2.5 2 4.2 1.2 1.3 1.3 1.2.4-.9-.2-.5-.2-.5.1-.3.2.1.3.3.3.5 0 .4 3.3 4.6 4.8 6 1.9 1.8 2.8 2.4 1.5.9-.5-.6.1-.4 1.3.5 1.9 1.4 2.3 1.5 3.4 1 .3-.2 1.2-.5 1.8-.7 1.8-.6 2-.7 4.3-2.8 2.2-2.1 3.6-3.2 3.9-3.2.1 0 .3-.1.5-.3.2-.2.3-.3.4-.2s-.3.6-.9 1.1c-1.8 1.9-2.3 2.6-1.7 2.5.1 0 .5 0 .8.1.3.1.7.1.9-.1.3-.2.4-.1.5.1.1.2.2.3.3.3.6 0 1.4.8 1 1.1-.3.2-.3.3-.1.3.4 0-.8.9-2.1 1.6-1.6.9-1.8 1-.9.9 1.5-.2-.5.6-2.7 1.1-.1 0-.3.1-.5.2s-1.1.3-2.1.6c-4.9 1.2.6 1.4 6.1.3a24 24 0 0 1 2.7-.5c.6 0 2.5-.8 2.8-1.2.2-.3.8-.4 2.1-.5 3.7-.3 7.5-1.1 7.9-1.7.2-.2.5-.4.8-.4.4 0 1.4-.3 3-.8 1.1-.4.8-1.5-.8-2.5-.7-.5-2.2-1.9-3.3-3.1-2.8-3.1-3.7-3.6-7.3-4.3-5.3-1-7.4-.4-11.7 3.8-3 2.9-4.3 3.8-5.4 3.7-.7-.1-.9 0-1.2.3-.3.4-.3.4-.7 0-.2-.2-.6-.4-1.2-.4-.5 0-.9-.1-1-.2-.1-.1-.3-.2-.5-.2-.9 0-3.8-3.8-4.4-5.8l-.4-1.3-1.3-.3c-.7-.2-1.4-.3-1.5-.3-.5 0 .2-.4.8-.4 1.3 0 1.4-.7.4-2.6-2-4.1-2.5-8.4-1.4-11.3.4-1.5.2-1.6-.9-.4m46.9 1.3c-2.4.1-2.6.2-4.9 1.2-.8.3-1.7.7-2 .8-.3.1-1.1.4-1.9.8-.8.3-1.6.6-1.8.6-.4 0-1.3 2-1.5 3.4-.1.4-.3.9-.6 1.2-.7.6-.7 1.4-.2 2.6.5 1 .9 1.3.9.7 0-.4 1.7-3 2-3.1.3-.1 0 .7-.5 1.5-1.2 2-.6 4 1.7 5.1.5.2 1.5.9 2.2 1.6.7.6 1.9 1.5 2.6 2.1.8.5 1.9 1.4 2.6 1.9.7.5 1.5 1.1 2 1.3.4.2 1.1.6 1.5.8 1.1.7 3.9 2.1 5.4 2.8.7.3 1.9.8 2.6 1.2 2.1 1 3.2 1.1 6.8 1 4.3-.2 5-.3 6.8-1.2.7-.4 1.9-1 2.6-1.5 1.3-.8 1.3-.8.6-.2-3.3 3-4.8 3.9-7.2 4-4.9.3-7 .2-8.5-.1-4.8-1.2-5.4-1.4-9.1-3.1-1.8-.8-1.8-.8-1.2-.3 2.2 1.9 3.1 2.7 3.9 3.2.5.3.9.7 1 .7.1.1.6.4 1.1.8.6.4 1.2.8 1.3.9 1.6 1.6 9 2.4 11.5 1.3.3-.1 1.3-.5 2.2-.7 1.6-.4 3.1-1.2 5.9-2.8 2.6-1.6 3.4-2.2 6.2-4.5 1.4-1.2 3.3-2.8 4-3.5 3-2.6 6.9-4.9 9-5.4 1.2-.3 1.9-.7 2.3-1.2.1-.2.4-.4.6-.4 1.4 0-.4-1.7-2.5-2.3-.8-.2-1.9-.6-2.3-.8-.4-.2-1.2-.4-1.7-.5l-.9-.1.1.9c.1 1.5-1.3 2.8-5.5 5.1-1.3.7-1.3.6.2-.5 3.9-2.9 5.1-5 3.1-5.5-.3-.1-.9-.4-1.3-.7-1-.7-2.3-.7-2.3.1 0 1.4-6.5 4.9-10.5 5.8-1.1.2-1.6.2-.7-.1.7-.2 2.7-1.1 3.8-1.7.5-.3 1.1-.6 1.3-.7.8-.3 4.3-2.7 4.3-3 0-.3-.3-.6-1.2-1-2.5-1.3-2.4-1.6.1-.8 1.7.6 2.4.7 1.9.2-.3-.3-3.8-1-4.1-.9-.2.1-.3 0-.2 0 .2-.2-.9-.7-1.5-.7-.2 0-.6.1-.7.3-1.4 1.7-6.3 3.7-11.7 4.7-.9.2-1.9.4-2.2.4-.3.1-.4 0-.3-.1.1-.1.7-.3 1.3-.4 2.9-.6 10.7-3.7 10.7-4.3 0-.1-.6-.4-1.4-.8-.8-.4-1.8-1-2.4-1.3-1-.7-1.9-.8-2.6-.4-.8.6-2.7 1.5-3.4 1.7-.4.1-1.6.4-2.6.7-3.6.9-7.3 1.5-9.6 1.5-1.6 0-1.7-.1-.2-.3 1.3-.2.9-.1 5.1-1.1 6.8-1.7 8.4-2.3 7.4-2.6-.2-.1-.8-.4-1.2-.7-1.5-1.2-4.1-2.1-7.5-2.6-1-.1-2.4-.5-3.2-.8-1-.5-1.4-.5-5.5-.2m-26.4 2c-.1.3-.2.7-.1 1 .1.4 0 .5-.2.2-.4-.3-.6-.1-.7.6-.1.4.3.9 1.9 2.5 1.1 1.1 2.4 2.5 2.9 3.1 1.2 1.3 1.4 1 .3-.6-.4-.7-1.1-1.7-1.4-2.4-.3-.6-.9-1.6-1.2-2.1-.5-.8-.6-1.1-.5-1.7.3-1.1-.6-1.6-1-.6m153.1 1c-.6 1.3-.6 1.7-.1 3.3.7 2.2-.2 4.1-3.5 7.6-.2.2-.4.5-.6.7-2 2.4-2.5 2.9-2.6 3-.1.1-.4.5-.9 1-.4.5-1.7 1.9-2.9 3.1-1.9 2-2.6 3-2 3 .3 0 3.1-1.9 4.2-2.9.6-.6 1.4-1.3 1.7-1.5.3-.2.5-.4.6-.4s.6-.4 1.2-.9c1.3-1.1 1.4-1 .4.4-.5.6-1.1 1.5-1.4 1.9-.3.4-.7.9-.8 1.1-.4.4-.4 1-.1 1 1.8 0 9-9.2 9-11.4 0-.7.8-2.8 1.4-3.6 1-1.4 0-4.7-1.7-5.7-1.2-1-1.3-1-1.9.3m8.1 5.1c-.2 0-.6.7-1 1.5a28.35 28.35 0 0 1-4.3 6.1c-.9 1.1-1.7 2.6-1.3 2.6.3 0 4.2-4 5.5-5.7.4-.5 1-1.3 1.5-1.8.8-.9 1.4-2.2 1-2.2-.1 0-.2-.1-.2-.3 0-.2-.1-.3-.3-.4-.4 0-.5 0-.9.2m-149 1.8c0 .5.6 1.4.6.9 0-.2-.1-.6-.3-.8-.3-.3-.3-.3-.3-.1m79.1 4.7c-2.2 4-3.3 8.8-3.5 15.2-.2 6.7.1 8.1 1.6 8.2.5 0 .6.2.1.6-.5.5-1 .4-1.7-.3-.6-.5-.7-.6-.7-.2 0 .2-.1.4-.1.6 0 .1-.1.3-.1.5 0 .7-.4.3-.5-.6-.1-.5-.4-2-.8-3.3-1-3.4-1.4-5.8-1.4-7.8 0-1.9-.2-3.5-.4-3.5-.7 0-1.1 12.6-.4 14.3.5 1.2.5 2.1 0 1.2l-.3-.5-.1.7c-.3 1.5.7 6.9 1.6 9.2l1.8 4.1c.7 1.6 1.5 3.4 1.8 4.2.9 2 2.5 6.9 2.6 8 .2 1.7.3 6.8.1 7.9-.1.6-.1 1.1 0 1.2.2.2.5-.8 1.1-3.8.3-1.2.5-2.1.5-1.9.2 1.6-.2 4.8-.7 6.6-.3.9-.6 2.1-.8 2.7-.2.6-.4 1.3-.6 1.6-.4.6-1.4 3.4-2 5.5-.2.8-.5 1.6-.7 1.7-1.1.8-1.6 4.3-.8 5.7.5.9.4.9 1 .4l.5-.5-.1 1.1a4 4 0 0 0 .2 1.9c.2.6.3 1.2.2 1.7-.2 1.1.1 1.1.7-.1.4-.9 1-1.2.6-.3-.4 1 .4 3 1.9 4.7 1.4 1.6.3 2-1.4.5-.5-.5-1.2-1-1.5-1.1l-.5-.3.4-.2c.6-.2.3-.9-.9-1.6-.7-.5-.9-.6-.8-1 .1-.3-.1-.7-.6-1.4-.4-.5-.9-1.3-1.1-1.8s-.6-1-.8-1.2c-.4-.4-.3-.5.7-.6 1.3-.1.8-2.3-.8-3.6-.9-.7-.9-.7-2.6-.7-2.7 0-5.5-.2-6.2-.6l-.6-.3.7-.1c1.1-.2 1.1-.3 0-.6-.5-.1-1.2-.3-1.5-.4-.3-.1-1.5-.1-2.6-.1-1.8.1-2 .1-2-.2 0-.3-.2-.3-1.2-.3-2.2 0-5.4-.9-5.6-1.5 0-.1.3-.1 1 .1.6.2 2.3.4 3.8.5 1.5.1 3.2.2 3.8.3 1.1.1 1.6-.5.7-.8-1.9-.6-4-1-7.3-1.5-3.4-.5-4.9-.8-5.5-1.1-3.9-2.1-6.1-3.7-6.8-5.2l-.2-.5.6.4c.3.2 1 .9 1.6 1.4.9.8 2.8 2 3.2 2 .1 0 .7.3 1.3.6 1.6.8 6.6 2.1 6.1 1.6-.2-.2-4.2-2.4-4.8-2.7-3.6-1.6-6.8-3.6-8.7-5.4-.2-.2-.7-1-1.1-1.7-.4-.7-.8-1.2-.8-1.1 0 .4 1.3 3.3 1.8 4 .7.9.7 1.2.2.7-.5-.5-1.5-2-1.5-2.3 0-.1-.3-.8-.6-1.6-2-4.2 1.1-7.6 7.6-8.1 3.2-.3 4-.8 1.5-1-.6-.1-1.3-.1-1.5-.2-2.4-.7-5.4 0-9 2-2.2 1.2-3.6 5.3-2.7 8.2.1.5.3 1 .4 1.3.1.3.3.5.8.6.8.2 1.1.8 1 1.9-.1 1.1 1 2.9 1.6 2.6 1.4-.6 2.6-.2 3.7 1.4 1.3 1.8 4.3 3.6 9 5.6.6.2 1.4.6 1.8.8.4.2.8.3.8.3.1 0 .1 0 0 .1s0 .2 0 .3h-.1c-.2 0-.8-.2-1.5-.4-2.9-.9-6.2-2.6-8.1-4.4l-1.4-1.3-.1.6c-.1.4-.2.7-.2.9-.3.6 5.4 4.5 8.1 5.5.4.1.8.4 1 .5.4.3 2.2.9 3.1 1 .4 0 1.3.2 2.1.5.8.2 2.5.6 3.9.9 1.4.3 2.9.7 3.3.9a8.8 8.8 0 0 0 2.5.7c1.1.4-.1-.5-1.5-1.2-1-.5-1.6-.8-1.3-.8.3.1.7.1.9.2.2 0 .6.1.8.2.2 0 .5.1.7.2.6.2.4-.2-.4-.9-.9-.7-.8-.9.3-.3.8.4 3.9 3.8 4.7 5.2 2 3.4 5.3 6.9 8.8 9.1 2.2 1.4 3 2.2 3.6 3.3.6 1.2 1.9 1.8 3.5 1.8 2.1-.1 2.1-.7.2-2.3-.3-.3-.9-1-1.3-1.5-.8-1.1-.6-1.1.7-.2.6.4 2.6.8 3.1.6.8-.3.1-1.6-2.6-4.3-2.5-2.6-3.6-4.6-4.8-8.4-.2-.6-.3-1.8-.3-2.9 0-2-.1-2.1-.6-1.5-.7.8-1.1.5-.5-.5.2-.3.4-.9.5-1.3.5-2.5 2-6.4 3.2-8.5.6-1 1.1-2.1 1.3-3.1.2-.9.6-2.2.9-3 .4-1.4 1.1-5 1.1-6.3 0-1.4-1.7-6.1-3.7-9.8-.6-1.1-1.4-3-1.8-4.3-.9-2.4-1.4-3.7-1.9-4.2-.5-.6-.4-6 .2-7.1.1-.2.2-.4.2-.5 0-.1.1-.4.2-.9.1-.4.2-.9.3-1 .2-.9.7-2.3 1.2-3 .3-.4.5-.9.5-1 0-1 3.4-3 5.4-3.2 2.7-.3 7.8.7 8.6 1.7.4.4 1.4-.7 1.1-1.2-.6-1-4.7-2.7-6.4-2.8-1.2 0-6.1.4-6.3.5-.1.1-.9.2-1.8.3-2.5.3-2.8.4-2.8 2 0 1.8-.3 1-.5-1.3-.2-2.1-.2-7.8 0-9.4.1-.6.2-1.6.3-2.3.1-.7.4-2.2.7-3.4.4-2.9.4-3-.6-1.2m9.7.9c-1.8 2.6-2.4 3.9-4.3 8.4-.7 1.6-1.5 4.6-1.3 4.7.1.1.5 0 1-.1s1.1-.2 1.5-.3l.7-.1v-1.6c0-1.4.2-2.1 1.1-4.8.6-1.8 1.1-3.5 1.2-3.9.1-.4.4-1.1.6-1.6 1.2-2.4.9-2.8-.5-.7m-124.1-.6c-.3.9.9 4.7 2.2 6.3 1.6 2.2 6.4 6.5 7.3 6.5.6 0 .6-.5-.1-.9-.9-.5-4.3-4.3-5.4-6-.2-.4-.7-1.1-1.2-1.5-.9-1.1-1.6-2.2-1.9-3.4-.3-1.1-.7-1.5-.9-1m192.2 1.7c-.4.2-1.9.8-3.4 1.3s-2.9 1-3.2 1.2c-.3.2-1.3.5-2.2.7-.9.3-2.5.8-3.6 1.2-1 .4-3.1 1.2-4.7 1.7s-3.5 1.3-4.4 1.6c-3 1.3-9.9 3.9-10.8 4.1-.2 0-2.7.9-5.6 2-2.9 1.1-5.8 2.1-6.3 2.3-2.8.9-3.4 1.1-3.8 1.3-.2.1-1.2.5-2.1.8-1.8.7-2.1 1-.8 1 .7 0 5.9-1.7 9.1-2.9.7-.3 2-.7 2.7-.9 2.9-.8 3.2-.9 3.8-1.2.9-.4 1.6-.6 1.6-.4 0 .2-2.6 1.3-4.5 2.1-.9.3-2.5 1-3.6 1.5s-3.2 1.3-4.6 1.8c-5.9 2.2-1.4 1.4 7.1-1.3 3.7-1.2 10.2-3.7 14.5-5.6 2.3-1 4.5-2 5.8-2.4.8-.3 2.1-.8 2.8-1.2.8-.3 2.1-.9 2.9-1.3 1.6-.7 3.9-1.6 7.9-3.4 1.2-.5 2.6-1.1 3-1.2 1.4-.4 3.9-1.8 4.2-2.2.5-1.1-.4-1.3-1.8-.6m9.6 1l-.6.2c-.9.2-3.2 1.1-5.6 2.3-1.3.6-3.4 1.6-4.6 2.2-1.2.6-2.6 1.2-2.9 1.5l-1.4.7c-1 .5-1 1 .1.8.5-.1.9-.2 1-.3.1-.1.9-.4 1.7-.7 2-.8 4.3-1.8 4.8-2 .5-.2 6.3-2.2 7.5-2.5 1.1-.3 1.6-1.1 1-1.7-.4-.6-.8-.7-1-.5m-206.7 1.7c-.3.4-1 2.8-1.2 4.2-.1.7-.3 1.9-.4 2.7-.7 4.4.3 12.7 2.3 18.1.9 2.5 2.1 3.5 3.1 2.5l.5-.4-.4-.6c-.4-.5-1.3-2.5-2.3-5.1-.7-1.6-1.3-4.5-1.4-6.2-.1-1.9.1-1.8.6.4.3 1.2 1 3.1 3.8 9.2.7 1.4.9.5.3-1-1.2-2.9-.7-2.8 1.1.2.3.4.5.6.7.5.3-.1.4.4.1.6-.2.1-.3.9-.1.9 0 0 .6-.2 1.3-.4.7-.2 2.1-.5 3.2-.5l1.9-.1v-.6c0-.3.1-.8.3-1l.3-.4.5.4c1.1.8 2.4.4 5.2-1.8 1.6-1.2 1.8-1.5 1.8-1.9-.1-.5-.1-.5.9-.2.9.3 1.4 1.2.8 1.6-.2.1-.9.9-1.6 1.7-.8.9-1.8 1.8-2.6 2.4-2.1 1.4-2.3 1.4-5.1 1.3-1.4-.1-3.5-.1-4.8-.1h-2.3l-.5.6c-1.7 2-1.1 2.4 4.2 2.4h4.4l.9-.8c.7-.6 1-.7 1.1-.5.5.5 2.1.1 2.9-.8.1-.1 1.3-1.1 2.8-2.3 3.1-2.5 3.2-2.8 2.1-4l-.6-.7.5.1c.6.1 1.8.9 1.6 1.1-.1.1.1.1.3.1 2.6-.1-4-5.1-7.1-5.4-1.2-.1-2.2.5-2.2 1.3 0 .6-3.2 3.2-4.3 3.4-.3.1-1.1.3-1.8.5-2.3.7-3 .5-3.9-.8-3.7-5.3-5.7-11.8-5.7-17.9-.4-3-.6-3.5-1.2-2.7m138.8 3.4c-1.5 1.5-5.2 5.9-5.1 6 .1.1.6.3 1.1.6l1 .5.9-1.8c.5-1 1.5-2.7 2.3-3.8 2.1-2.9 2-3.6-.2-1.5m-46.4 1.4c-.3.2-.8.6-1 .9-1.2 1.6-2 2.4-3.7 3.8l-1.9 1.5c-.1 0-.6.3-1.2.7-.6.4-1.2.7-1.3.7-.3 0-.2.6.1.9.2.2 1.5.4 3.5.6 3.4.3 3.8.4 10.5 2.8 2.4.8 2.8.9 2.8.2 0-1.1-2.1-6-3.5-8.2-.4-.7-.9-1.5-1-1.8-.3-.7-2-2.4-2.4-2.4-.2 0-.6.1-.9.3m91.5.3c-.3.1-.8.4-1.2.5-1.1.4-2.7 1.2-2.7 1.3 0 .1.2 0 2.3-.8 1.6-.7 2.6-1.2 2.3-1.2-.1 0-.4.1-.7.2m-74.2 3.4c0 .6 0 .9.1.5V142c0-.3-.1 0-.1.7m72.8.7c-1.1.5-2.5 1.1-3 1.3-.5.2-1.2.4-1.4.6-.2.1-.9.5-1.6.9-.6.4-1.6.9-2.1 1.1-.5.3-1.5.9-2.3 1.4-1.4.8-5.6 3-9.2 4.7-2 .9-4.4 2.3-5.3 3-.3.3-.7.6-.8.7-.1.1-.9.6-1.8 1.1-.8.5-2.2 1.4-3 2-1.5 1.1-3.1 1.9-5 2.7-1.2.5-1.4.8-.5.9.8.1 3.6-.5 4.1-.9.7-.5 1.6-.8 1.1-.4-2 1.6-5.7 2.3-7.3 1.5-.7-.3-.8-.3-.8.2 0 .8.6 1.3 1.9 1.7 3.3 1 6.4.1 9.4-2.8 7.5-7.1 11.1-9.8 20.8-15.4 1.8-1.1 5.9-3.4 7.5-4.2 2.5-1.4 2-1.4-.7-.1m-4.9.3c-.7.3-2.2 1-4.3 2-1.3.6-4 1.9-6.1 2.8-2.1.9-4.8 2.1-6 2.6-2.1.9-3.8 1.4-2 .5 1-.5.9-.5 3.7-2l2.4-1.3c.1 0 1.4-.7 3-1.5 4.8-2.4 6.1-3.5 1.9-1.5-2.1 1-3.8 1.7-4.5 1.9-.4.1-2 .8-4 1.7-1.1.5-2.9 1.2-5.3 2-1.1.4-2.3.9-2.8 1.1-2 .9-5.5 1.4-6.1 1-2.2-1.4-5.4-2.5-7.2-2.6-1.4 0-1.6-.1-.9-.4l.4-.2h-.4c-.2 0-.5-.1-.6-.3-.1-.4-.9-.4-2.1 0-.5.2-1.4.4-2 .6-2.9.8-5.3 3.1-6.3 6-.2.6-.4 1.2-.5 1.4-.1.3 0 .3.4-.1.9-.8.9-.6.1 1-1.8 3.6-1.9 5.5 0 2.7 2.6-3.9 2.9-3.7.9.5-1.6 3.1-1.8 3.8-1.8 4.5l.1.8.4-.7c.5-1 .7-.8.4.5-.5 1.9.1 2.8.8 1.2.4-.8 1-1.3.7-.5-.1.2-.3.8-.4 1.4l-.3 1 .7.7c.5.6.7.7.9.5.4-.4.5-.3.4.1-.2.9.6.2 1.9-1.4 1.3-1.6 2.1-4.4 1.7-5.7-.1-.4-.3-1-.3-1.2-.2-.7-.3-3.8-.2-4.5.1-.8.5-.8.6-.1.2 2.9 2.2 6.1 2.7 4.5.2-.6.3-.3.1.3-.4 1.3.9 1.6 1.7.5l.5-.7-.1.7c-.3 1.9 1.2.6 2.5-2 .8-1.6 1.2-2.1 1.4-1.5.1.2.2.1.7-.2.9-.7 3.5-1.8 5.2-2.3.9-.3 1.9-.6 2.2-.7.3-.1 1-.3 1.5-.4 3.5-1 8.8-3.4 13.4-6.1.8-.4 2.6-1.5 4.1-2.2 1.5-.8 2.9-1.5 3-1.7.2-.1 1.2-.8 2.3-1.4 2.1-1.3 2.8-1.8 1.5-1.3m-51.1 3.8c-1 .2-1.2.6-.4.6 1 0 3.5.7 4.7 1.2.8.4 1.1.4 1.5.3 1.3-.6-.2-1.7-2.7-2-.6-.1-1.4-.2-1.8-.2-.3-.1-.9 0-1.3.1m-94 .7c-2 .4-2.2.8-.8 1.4.5.2 1.1.5 1.2.6.6.3 1.7.9 2.1 1.1.2.1.5.4.5.5.1.2.3.4.4.4.2.1.7.3 1.2.6s1 .5 1.2.5c.2 0 .7.3 1.3.7 1.5 1.1 5.7 3.7 8.1 5.1.5.3 1 .6 1.1.6 1.9 1.5 8.1 2.7 13.3 2.7h4.1l-.9-.9c-.7-.7-1.1-.9-1.9-1-.5-.1-1.3-.2-1.8-.3-.5-.1-1.3-.2-1.8-.3-1.1-.1-2.3-.4-2.5-.6-.1-.1 1.2-.1 2.8-.1 2.6 0 2.9 0 2.6-.3-.7-.8-2-1.2-6.1-1.7-4.2-.5-4.2-.7-.1-.8h3.4l-.7-.7c-1-1-2.5-1.5-4.1-1.5-3.3.1-8.4-1.2-13.4-3.4-6.4-2.5-7.8-2.9-9.2-2.6m91.3 1.2c-.1.1.1.2.3.2.2 0 .4-.1.5-.2.1-.1-.1-.2-.3-.2-.2 0-.4.1-.5.2m2.3 0c.2.1.5.2.8.2.4 0 .4 0 .2-.2-.2-.1-.5-.2-.8-.2-.4 0-.4.1-.2.2m-67.5.7c-.9.1-.8.5.2 1.2 2.6 1.7 3.3 2.2 4.5 3.4 2.1 2 4.2 3.3 6.4 3.8 1.5.4 3.3 1.5 5.9 3.5 1.7 1.4 5.6 2.7 9.5 3.3 2.3.3 2.2.6.6-2.4-2.3-4.1-5.6-8.3-6.6-8.3-.2 0-.4-.1-.6-.3-.4-.5-2.9-1.9-3.6-2-.8-.1-1 .6-.4 1.4.2.2.6.9.9 1.5.3.6.8 1.3 1 1.5.5.5.5.8 0 .6-.3-.1-.3-.1 0 .2.4.5.8.9 1 .8.1 0 .3.2.4.5l.3.6h-1.3c-1.8 0-2.3-.2-1.4-.6 1-.4.8-.7-2.8-4.6-.7-.7-1.5-1.7-1.8-2.2-.4-.7-.6-.9-1-.8-.6 0-1.2-.1-2.5-.8-.9-.4-1.2-.5-2.1-.4-3.4.4-3.9.4-5.5-.1-.4.2-.8.2-1.1.2m31.1 2.5c.1.2.5.4.9.6.4.2.8.4.8.5s.4.4.9.7c1.1.6 3.7 3.2 4.4 4.3.3.4.7 1 1 1.3.3.2.7 1 .9 1.7.8 2.2 1.8 1.8 1.4-.6-.4-2.4-1.9-5-3.8-6.4-1.8-1.3-6.8-2.9-6.5-2.1m-6 2c-.4 1.6-.3 1.9 1.9 5.3 1.8 2.7 4.1 7.2 3.6 7.2l-1.2-.4c-.6-.2-1.5-.4-2-.4s-1.6-.1-2.5-.3c-2-.3-2-.4-.3.9.8.6 1.9 1.4 2.4 1.8 2.2 1.7 5.3 3.1 7 3.2.5 0 1.2.1 1.4.1.7 0 1.2-2.9.6-3.8-.2-.4-.2-.3-.2 1.5s-.2 1.6-.5-.4c-.9-6.4-3.2-11.4-6.1-13.5-.6-.4-1.1-.7-1.1-.6-.1.1-.6-.2-1.1-.7-1.2-.8-1.6-.8-1.9.1m15.2 1.2c0 .1.3.7.7 1.5.4.8.8 1.7 1 2.1.5 1 .6 1.2 2.7 3.3 1.8 1.8 2.1 2.3 2.9 4.1.1.3.4.7.6.9.8.6-.7-4.7-1.8-6.6-1.1-1.8-6.1-6.2-6.1-5.3m-7 .9s.1.2.3.3c.4.4 1.7 2.7 1.8 3.2.1.3.4 1.6.8 3 .5 1.8.7 2.8.7 3.6 0 .8.1 1.6.4 2.3.2.6.4 1.7.5 2.3.1.6.2 1.6.3 2 .1.6.1.8-.1.8-.7 0-2.1-.6-2.7-1.1-.4-.3-1-.7-1.4-.7-.4-.1-1.2-.4-1.8-.6-1.7-.8-1.5-.2 1.1 3 2.2 2.7 3.1 3.2 7 3.8 2.6.4 2.6.3 2.6-1.8 0-1-.1-1.9-.2-2.1-.1-.2-.3-1.4-.5-2.7-.4-2.6-2.1-8.2-2.8-8.7-.2-.2-.6-.8-.8-1.4-1.2-2.1-5.2-6.4-5.2-5.2m70.4 4.9l-1.5 1.2.5.5.5.5-.9-.1c-.8-.1-.9-.1-1.6.5-.4.4-1 .9-1.3 1.1-.5.5-.5.5-.2.7.2.2.6.4.8.6.2.2.8.6 1.3 1s1.6 1.4 2.6 2.3c.9.9 2.3 2 3 2.5.7.5 1.8 1.3 2.3 1.9 1.8 1.8 4.3 3.7 6.3 4.8 1.6.8 1.6.7-.1-.9-.7-.7-1.9-1.9-2.6-2.7-1.8-2.1-2.4-2.7-2.9-3.3-.3-.3-.4-.5-.4-.6.1-.1 2.4 2.1 4.9 4.8.7.8 1.8 1.8 2.3 2.2.5.4 1.2 1 1.6 1.3 1.3 1.2 3.1 2.3 6.7 4.2 2.1 1.1 5.2 2.8 6.9 3.8 2.8 1.7 8.1 4.4 8.5 4.4.1 0 .6.2 1.2.5s1.1.5 1.2.5c.3 0 .2-.6-.1-.7-.2-.1-.5-.3-.7-.5-.2-.2-.5-.4-.6-.4-.1 0-.3-.1-.3-.2s-.9-.7-2-1.2-3.2-1.8-4.8-2.8c-1.5-1-4.1-2.5-5.8-3.4-1.6-.8-3.3-1.8-3.8-2.2-.4-.4-1.9-1.4-3.3-2.2-2.2-1.4-3.4-2.2-5.2-3.8-.3-.3-.3-.3-.1-.2.2.2.4.2.4.1s.2 0 .4.2c1.3.9.7 0-1.6-2.5-2.1-2.3-3.3-3.7-2.9-3.5.8.5 3.2 2.5 3.4 3 .2.3.8 1 1.4 1.7.6.6 1.3 1.5 1.5 1.9.4.8.8 1.1 2.1 1.6.4.2 1.9 1.1 3.3 2.1 3.5 2.5 7.1 4.8 7.6 4.8l1.4.8c.7.5 2.1 1.2 3 1.7.9.5 1.7.9 1.8 1 .3.3 1.1.2 1.1-.1 0-.3-1.7-1.5-4.3-3.2-1.8-1.1-6.2-4.2-7.6-5.5-.4-.3-1-.7-1.3-.9-3-1.7-4-2.6-5.3-4.8-.7-1.2-1.4-2.3-1.6-2.5-5.4-6.4-6.7-7.6-11-9.6-.7-.4-1.5-.8-1.7-1.1-.6-.7-.7-.7-2.5.7m-48.1.4c-.1.1 0 .1.1.1s.2.1.1.2.1.5.2.8c.2.4.5 1.1.7 1.6.2.5.7 1.5 1 2.2.6 1 1.9 4.2 2 5 0 .1.1.3.2.5.4.6 0 .3-.6-.4-.6-.8-1.7-3.2-3-6.5-.7-1.7-.9-2.5-1.2-4.2l-.1-.5.3.5c.3.3.4.6.3.7m3.6 2.1c.3.9 1.1 2.9 1.9 4.5 1.3 2.7 2 4.7 1.9 4.8-.2.2-3.7-6.4-4-7.8-.1-.4-.3-1.3-.5-1.9-.2-.6-.3-1.5-.3-2v-.9l.3.8c0 .5.4 1.5.7 2.5m-9.7-2c.2.4.7 1.1.9 1.6.5.9.8 1.3.5.6-.4-1-1-2.2-1.4-2.5l-.5-.4.5.7m-21.6.5c.3.7.7 1.2.7.9 0-.3-.6-1.4-.8-1.4-.1 0 0 .3.1.5m14.8.1c0 .1.1.4.2.7 1.1 2.9 1.7 10.4 1.2 13.8-.1.6-.2 1.5-.3 1.9l-.1.7H184c-1.6 0-3-.3-4.5-1-.7-.3-1.4-.5-1.6-.5-.3.1-.4 1-.1 1.2.1.1.2.3.2.4 0 .2.3.7.7 1.3.4.5.7 1 .7 1.1 0 .3 2.2 2 2.6 2.1.1 0 .1.1-.2.2-.5.2-.6.8-.2 1.1.3.3 1.2 2 1.1 2.2-.3.8 3.5 4.3 4.6 4.3.1 0 .7.4 1.2.8 1.1.8 4.6 2.7 5.4 2.8.3.1.7.1 1.1.2.3.1.6.1.7.2.8.5 1.2-3.7 1.1-9.5-.1-2.6-.2-4.9-.2-5.2-.1-.3-.2-1.2-.3-2.1-.4-3-.5-2.6-.5 2.1 0 4.4-.2 6.8-.4 6.5-.1-.1-.1-.4-.2-.8-.1-2.1-.5-5.7-.7-6.7-.1-.6-.2-1.2-.2-1.4 0-.2-.1-.4-.1-.5-.1-.2-.5-1.8-.6-3-.2-1.3-.8-3.4-.8-3.2 0 .1 0 .9.1 1.6.5 3.1-.3 13.5-1.1 14.4 0 0-.7-.2-1.5-.4-.8-.3-2-.6-2.6-.8-1.3-.4-2.9-1.1-3.3-1.7-.2-.2.1-.1.9.3 2.3 1.2 4.5 1.8 5.1 1.4.6-.5.8-6.2.2-10.1-.4-3.1-2-8.3-1.7-5.6.2 1.9.4 7.4.3 8.2l-.1.8v-.7c0-.4-.2-1.7-.3-2.8-.2-1.2-.3-2.4-.4-2.7-.4-3.2-2.3-8.9-3.1-9.5-.1-.1-.1-.4-.1-.7.1-.4 0-.7-.4-1-.4-.3-.6-.4-.6-.4m37.7 4.7c-.2.1-.2.2-.1.3s.3 0 .5-.2c.3-.3.1-.4-.4-.1m6.2 0c.2.1.5.2.7.2.3 0 .3 0 .1-.2-.2-.1-.5-.2-.7-.2-.3 0-.3 0-.1.2m5.6.1c-.4.3-.4.3.1.2.2-.1.5-.2.5-.3.2-.3-.2-.2-.6.1m4 .7c-.5.8-.5.8.1 1.2 2 1.4 2.1 1.9.2.9-.4-.2-.9-.4-1.1-.4-.5 0-1.8 2-1.7 2.5.1.3 0 .4-.2.4s-.3.2-.3.6c-.1.8.9 1.4 3.7 2.4.9.4 1.7.7 1.7.8 0 .1-3.8-.7-4.5-1-.6-.2-.6-.2-.3.5.7 1.6 3.6 2.8 7.2 2.9 1.2.1 2.5.2 2.7.3.7.4 1.6.5 1.9.3.3-.2 1.3.2 4.2 1.7.5.2 3.2 1.7 4.2 2.2.3.2 11.8 5.8 14.3 7 1.9.9 3.5 1.8 4.2 2.3.3.2 1.1.7 1.8.9 1.5.6 6.2 3.4 6.6 3.7.1.2.3.3.4.3s.8.4 1.5.9 1.9 1.2 2.6 1.5c.7.3 1.4.7 1.6.8.2.1.7.4 1.2.7.5.3 1.3.8 1.8 1.2 1.3 1 2.1 1.3 2.1.8 0-.3-1.1-1.5-1.4-1.5-.2 0-.9-.5-1.5-1.2-.3-.3-.8-.7-1.1-.9-.3-.2-1.2-.9-2.1-1.5-.8-.6-1.9-1.5-2.5-1.9-1.3-1-4.9-3.2-6.7-4.1-.7-.4-1.5-.8-1.6-1-.2-.2-.4-.3-.6-.3-.2 0-.9-.3-1.6-.8-1.2-.7-5.4-2.8-7.3-3.6-4.3-1.9-13.1-6.5-13.4-7-.1-.1 0-.2 0-.1.1 0 .5.2 1 .4.4.2 2.2 1 3.9 1.9 1.7.8 3.8 1.8 4.6 2.2.8.4 2.2 1 2.9 1.4.8.4 1.9.8 2.4 1 .5.2 1.7.7 2.5 1.1 1.4.6 1.5.7 1 .2-.3-.3-.7-.5-.7-.5-.1 0-.7-.4-1.5-.9-3.5-2.3-11.3-6.6-13.6-7.5-.9-.4-2.1-1-2.8-1.4-.7-.4-1.3-.8-1.3-.8-.6 0-4.7-2.9-5.5-4-.9-1.1-1.6-1.8-3.9-3.8-2-1.2-4.5-1.8-5.1-.8m-11.5.3c0 1-2.9 4.2-4.7 5.1-1.3.7.4.9 1.8.2 1.1-.5.8-.2-.6.7-.7.5-1.4.8-1.8.8-.9 0-.8.7.2 1 .7.2.9.2 1.4 0 .3-.1 1.6-.6 2.8-1 3.5-1.3 4.2-1.8 5.5-4.1.9-1.8.9-1.8-.5-2.1-.7-.1-1.8-.4-2.4-.6-1.4-.4-1.7-.4-1.7 0m-130.6 1c-.6 1.5 0 12.3.9 13.9.1.2.4 1 .6 1.9.5 2.1 1.1 3.7 1.7 4.9.5.9.5 1.1.3 1.7-.1.4-.4 1-.5 1.4l-.2.7-1-1.6c-2.2-3.4-2.9-5.2-3.6-9.1-.5-3-1.2-2.2-1.3 1.3-.1 3.9 1.1 7.6 4.1 12.6 1 1.7 1.1 2 1.1 3v1.1l-.8-.5c-.5-.3-1.1-.8-1.4-1-2.2-1.9-3.5-2.1-2.8-.3.4.9 3.2 4 4.2 4.6l.5.3v6.4c0 7.9 0 13.4.1 14.6 0 .5.2 2 .3 3.3.1 1.3.3 3.3.5 4.4.2 1.1.4 2.6.5 3.4.2 1.6.3 1.9 2 8.5 1.5 5.9 3.7 11.6 5.6 14.9.8 1.3.8 1.3 1.9.5 1.1-.8 1.1-.8.7-2.1-2.3-6.6-4-13.9-4.4-19-.1-.8-.2-3.1-.4-5.1-.3-3.7-.2-10.4.1-13.3.3-2.4.6-4.2.8-4.5.3-.6.2-1.1-.4-2.2-.3-.6-.6-1.4-.7-1.9l-.1-.9 1.2 1.5c1.5 1.9 2.4 2.7 4.2 3.7.8.5 1.9 1.2 2.4 1.5 1.1.8 5.5 3.5 5.6 3.5.4 0 0-.5-1-1.4-1.8-1.6-2.8-2.7-3.2-3.4-.1-.2-.7-.9-1.2-1.5s-1.4-1.8-2-2.6c-1.2-1.8-3.3-4-4.3-4.6-1.1-.6-2.9-2.6-3.4-3.6s-.3-1.1.5-.2c.3.4 1.6 1.4 3 2.4 1.3.9 3 2.3 3.7 2.9 1.5 1.3 1.7 1.5 3.7 2.8 2.6 1.7 2.5 1.5-.5-1.1l-1.7-1.5c-.1-.1-.7-.6-1.3-1.2-1.9-1.7-1.2-1.4 2.2.8 1.4.9 4.2 3 4.3 3.2 0 .1.1.1.2.1.2 0 2 1.2 2.6 1.8 3.6 3.3 4.8 4.1 4.8 3.3 0-.2-1.5-1.9-3.5-3.9-.8-.8-2.1-2.3-2.9-3.2-2.3-3-6.3-6.3-10.5-8.6-1.7-.9-3.1-2.2-3.5-3.2-.1-.3-.3-.5-.3-.6-.1-.1-.3-.4-.4-.9l-.3-.8.4.5c1.6 1.9 2.4 2.6 4.4 3.6 2.2 1.1 5.5 1.5 6.7.9.7-.4.4-.9-.6-1-1.7-.2-5.1-2.3-5.6-3.4l-.2-.5 1.2.6c1.3.7 4.1.9 5 .3.3-.1.7-.2 1-.2 1.1.1 1-1.5-.4-4.2-1.8-3.7-5.4-5.9-7.6-4.6-.4.2-.7.4-.8.4-.2 0-.3-2.4-.3-5.6 0-4.3-.1-4.9-.6-4.9-.4 0-.4 0-.8 2-.2 1-.9 5.8-1.1 7.5-.1 1.1-.7 1.1-1.1.1-.2-.4-.4-1-.5-1.3-.1-.3-.2-.5-.2-.6-.2-.7-1.2-3.7-1.3-3.8-.1-.1-.5-1.4-1-2.8-.5-1.5-.9-2.9-1-3.2-.2-.7-.7-4.6-.7-5.6s-.4-2.1-.7-2.1c-.5.1-.7.4-.9.8m123.3 1.5c-.2.2-.6.3-.8.3s-.5.1-.7.3c-.2.2-.2.3 0 .3.4 0 1.5-.5 1.8-.8.2-.5.2-.5-.3-.1m-64.4 2.1c0 .2.3.4.6.6.8.4 2 1.4 3.5 2.8 1 1 1.2 1 1.7.9 1-.3.9-.6-.5-1.8-1.6-1.7-5.3-3.3-5.3-2.5m41 2.1c0 .6 0 .8.2.6.1-.2.1-.5 0-.9-.1-.5-.2-.5-.2.3m16.2.7c-.6.6.1 4.4 1.2 6.8.7 1.4.7 1.7.5 2.1-.2.4-.2.5 0 .7.2.1-.1.5-.9 1.3-1.6 1.7-3.1 3.6-3.6 4.9-.1.3-.7 1.3-1.2 2.2-2.3 3.8-4.1 9.4-3.1 9.4.2 0 .6-.9.6-1.2 0-2.5 6.7-12.3 9.1-13.2 1-.4 1.4-.8 1.8-2.1.1-.4.1-.4.3.1.3.8.6.2.7-1.4.1-2.1-1-4.5-2.4-5.5-.7-.5-1.3-1.4-1.8-3.1-.3-1-.8-1.4-1.2-1m-60.2 2.9c-4.7.4-12 3.5-14.9 6.2-1.7 1.6-1.2 2.3.7.8 1.5-1.2 5.1-2.6 7-2.6.3 0 .8-.1 1-.2.3-.1 1.8-.5 3.2-.7l.5-.1-.5.2c-.9.4-.4.7 1.2.7.8 0 2.2.2 3.1.4 1.9.5 1.8.5 2.2-.8.2-.6.6-1.6 1.1-2.3 1-1.7.2-2-4.6-1.6m54.2.8c0 .3.1.5.2.5.7 0 1 8 .3 9-.2.3-.4.8-.6 1.3-.1.4-.4 1.1-.6 1.5-.2.4-.6 1.3-.9 2-.9 2.2-1.9 4-1.4 2.4.1-.4.3-.9.3-1.2.2-.6 1.3-3.7 1.9-5 .2-.4.3-.7.2-.7s.1-.4.2-.8c.4-1.1.5-6.5.2-8.4-.1-.7-.2-1.3-.1-1.2.2-.1.3.3.3.6m-32.5 2c-.4.4 0 .8 1.1 1.3 1.2.5 1.2.6.6.6-1.3.1-3.4-.5-5.6-1.6-.7-.4-.8-.3-.5.4.5 1.2 2.6 2.9 3.9 3.2.9.2.9.2.1.6-.9.4-1.5.4-2.5.2-1.5-.3-.6 1.1 1.2 1.7.9.3 1.7.1 2.9-.7 1.4-.9 1.6-.7.7.7-.7 1-.9 1.6-.5 1.6.8 0 2.7-1.6 3.2-2.8l.3-.6v.5c0 1.5-.8 2.8-2.6 4-1.3.8-1.9 1-3.3 1.1-.8 0-.7.7.2 1 4.3 1.5 10-4.1 7-6.8-.9-.8-1.1-1.1-1.9-3.1-.2-.6-.5-1-.6-1-.4-.4-3.6-.4-3.7-.3m-20.2.2c-1.6.2-3.3.2-2.6 0 .3-.1 1.2-.2 2.1-.1h1.7l-1.2.1m6.2 4.8c.5 1.3 1.3 3.1 1.8 3.7.3.5.3.5-.4-.2-1.6-1.5-1.7-1.8-2.1-5.3-.1-.7-.1-1.5 0-1.8.1-.4.2-.2.3 1.1.1 1 .3 2.1.4 2.5m83.2-3.6c.1.3.4.4 1.8.8.6.2 2.7 1 4.7 1.9 1.9.9 4.3 1.9 5.3 2.3 2.1.9 3.4 1.5 7.9 3.7 4.7 2.3 5 2.4 5.8 2.5.8.1 2.2.8 7.7 3.7 1.3.7 2.9 1.4 3.5 1.6 1.3.4 1.7.7 7.8 5.7.3.2 1.2 1.1 2.1 2 3.1 3.1 2.8 1.1-.4-2.3-.8-.8-2-2.2-2.8-3-1.5-1.6-4.2-3.5-6.4-4.4-1.2-.5-4.2-1.9-7.5-3.5-1.3-.7-3.2-1.5-4.1-1.9l-3-1.3c-2-1-6.4-3-8.4-3.7-1-.4-2.6-1-3.6-1.4-1-.4-2.7-1.1-3.8-1.4-1.1-.4-2-.7-2.1-.8-.3-.5-4.6-.8-4.5-.5m-21.9 2.9c0 .7.1 1.4.3 1.8.4.8.3.9-.5.2-.5-.4-.7-.5-1-.3-.2.1-.8.5-1.4.8-4.8 2.4-11.8 13.1-11.7 17.8 0 .8 0 .8.6-1.2 1.5-5 10.3-13.3 15.2-14.3 1.5-.3 2.5-.7 2.9-1.2.9-1.1-1.7-4.3-3.7-4.7l-.7-.1v1.2m-68.1-.7c-6.7 2-13.5 6.1-16.5 9.9-.2.2-.5.7-.8 1-.6.7-.7 1.5-.3 1.5.1 0 .6-.4 1-.9s.9-1 1-1.2c.1-.1.4-.4.5-.6.7-.9 3.8-2.8 6.4-3.7.8-.3 1.8-.7 2.1-.8 2.2-1 7.6-2.7 8.6-2.7s1.3-1.2.4-2.1c-.5-.7-1.1-.8-2.4-.4m45.6 2c-.2 3.4-.5 6-.9 7.5-.2.8-.5 1.9-.6 2.5-.1.6-.3 1.2-.4 1.2-.5.3-5.5-2.4-6.7-3.6-.8-.8-1.5-1-1.5-.4 0 .8 1 2.9 1.4 2.9.1 0 .6.5 1.2 1.1.6.6 1.3 1.2 1.5 1.3 1.2.5 4.1 1.6 4.7 1.7l.7.1.6-2.2c.6-2.2.6-2.3.6-6.3 0-7.1-.4-10.4-.6-5.8m40.8-.5c-.1.1-.3.8-.5 1.6-.8 3-1.8 4.5-3 4.5-.3 0-.8.1-1.1.3-.6.3-2-.2-2.9-1.1-1.5-1.5-6.1-.2-11.6 3.4-8.3 5.4-13.1 11.2-12.5 14.9.2.9.3.8.7-.4.9-2.7 4.4-6.5 8.9-9.5 4.6-3.1 8.3-5.1 10.6-5.6 1.4-.4 1.6-.5 1.7-.9l.1-.5.5.6c.6.7 2.5 1.3 4.3 1.5.7.1 1.5.2 1.7.2.5.1 1.4-.3 1.7-.8.2-.4.5-.3.5 0 0 .5.5.3.9-.2.3-.5.9-4.8.9-7-.1-1.1-.5-1.7-.9-1m2.8.2c0 .1.1.9.2 1.8.2 1.8-.1 5.4-.7 6.5-.4.7-.4 1.1-.1 1.6.4.7 0 .7-1.1.1l-1-.6-2 .2c-1.1.1-3 .5-4.2.8l-5.2 1.3c-4.6 1.1-11.3 4.2-12.6 5.7-.1.1-.4.3-.8.6-2.5 1.7-5.3 4.9-6 6.7-.7 1.9-.2 2.5.8 1.1 3.2-4.5 12.4-10.3 18.6-11.9 8.7-2.2 12.4-2.3 13.6-.5.6.9 1.5.3 1.2-.7-.1-.3-.1-.5.1-.6.2-.1 1.1.6 1.3 1.1.2.8 1.1-.3 1.1-1.4 0-.3.1-.6.2-.7.1-.1.2-.7.3-1.2.2-1.3.4-1.4.6-.3.2 1.7.1 3.1-.4 4.7l-.5 1.6-1.4-.2c-7.1-.8-21.6 1.8-26.3 4.7-.4.3-.9.5-1 .5-.1 0-.2.1-.2.2s-.6.5-1.2 1c-3.3 2.2-6.2 5.7-4.8 5.7.2 0 .4-.1.4-.2s.2-.2.4-.3c.2-.1 1.2-.7 2.1-1.4a9 9 0 0 1 1.9-1.2c.1 0 .2-.1.2-.2s2.5-1.4 3.4-1.8c.2-.1.9-.4 1.6-.6 1.1-.5 6.2-2 7.8-2.5 6-1.5 15.6-1.6 18.2-.2.9.5 1.3.2 1.1-.8l-.1-.6.6.6c.6.6.6.6 1.1.3.3-.2.6-.3.8-.3.2 0 .4-.8.6-3.6.1-1.5.2-2 .4-1.3 0 .1.2.8.4 1.4.4 1.7 0 5-.8 6.3l-.4.7-1.6-.1c-.9 0-3.8-.2-6.6-.3-5.3-.3-5.7-.3-12.8.5-6 .6-13.2 2.6-15.7 4.3-3.3 2.2-3.7 3.8-.6 2.4.8-.4 1.9-.8 2.5-.9.6-.1 1.2-.3 1.4-.4.2-.1 1.2-.4 2.2-.7 1.1-.3 2.2-.6 2.5-.8.4-.2 1.8-.4 4-.5 1.9-.1 5.2-.3 7.3-.5 2.1-.2 5.5-.3 7.5-.4 3.8-.1 5.1-.2 4.6-.5-.2-.1-7.6-.3-9.6-.2-.4 0-.5 0-.4-.2.7-.7 13.1-.9 16-.2 1.6.4 2 .4 2.2.1.2-.3 1-3.2 1.3-4.9.2-1 .3-1.3.4-1 .3.7.4 3.6.1 4.8-.3 1.3-.1 1.7.3 1.1.6-.8 1.1-8.4.6-10.2-.1-.4 0-.3.3.3.3.5.5 1.3.6 1.8.1.5.3 1.7.4 2.7.3 1.8.2 4.3-.2 6-.1.2 0 .4.1.4.4 0 1.3-3.5 1.7-6.1.1-1 .3-1.9.4-1.9.6 0 .5 4.5-.1 7.7l-.1.7.6-.2c1.6-.5 2.1-3.9 1.3-7.8-1.5-7.2-3.9-11.2-7.6-12.7-.4-.2-.4-.2.1.9.5 1.2.4 1.3-.3.4-.9-1.2-2.7-2.7-3.7-3.2-.8-.3-.9-.2-.5.5.6 1.1.3 1-.9-.3-1.4-1.6-4.2-3-3.4-1.6.4.7.2.6-.7-.4-1-.8-1.8-1.2-1.8-.7m-60.6 2.3c-.2.3-.3.9-.3 1.9 0 1.7-1.1 3.3-2.4 3.5-1.1.2-.7.9.6 1.3 2 .5 3.9-.5 4.6-2.4.4-1.2-.5-2.3-1.1-1.3-.3.5-.3.5-.3-.5.1-1.9-.6-3.4-1.1-2.5m-26.1 1.5c-2.4 1.1-7.2 6.2-5.1 5.4.3-.1.6-.3.6-.4.5-.7 5.4-3.5 6.3-3.5.4 0 .6-1 .3-1.5-.4-.6-1-.6-2.1 0m29.7 3.3c0 .7-.5 1.5-1.2 1.6-1 .2-1.3 1.7-.3 2 1.1.3 1.7.1 2.6-.7 1.1-1.1 1.1-1.6 0-2.6-1-.9-1.1-.9-1.1-.3m103.3.1c0 .4 3.9 3.3 5.3 3.9.2.1.6.4 1 .6.9.6 4.4 2.3 6.3 3.1 1.4.5 3.1 1.4 3 1.6-.2.2-5.5-1.7-8-2.9-2.1-1-7.1-4.1-8.6-5.4-1.1-.9-2.3-.8-1.4.1.8.8 3.2 2.9 3.5 3.1.2.1.4.2.4.3.1.1.5.3.9.6.5.2 1.2.7 1.6 1.1 1.5 1.3 5.2 3.4 7.8 4.4.6.2 1.3.5 1.6.6.2.1 1.2.4 2.2.6 2.3.6 2.7.8 1.9 1-.6.1-.6.1.1 2a7.4 7.4 0 0 0 2.9 3.4l.8.4 1-.8c1.5-1.2 2.7-1 3.3.5l.3.6.7-1c1.5-2.2.9-6.2-1.2-8.5-1.8-2-3.7-2.7-8.8-3.5-1.8-.3-3.7-.6-4.2-.8-.5-.2-1.6-.5-2.5-.8-2-.6-3.6-1.3-3.8-1.5-.4-.5-6.1-3.1-6.1-2.7m-127.7 1.6c-.9.3-1.5.7-2.4 1.6-.2.2-.8.7-1.5 1.1-1.8 1.2-4.8 4.9-5.8 7-.4 1-1.5 3.9-1.4 3.9l2-2c1-1.1 2.5-2.4 3.3-2.9.8-.5 2.3-1.5 3.5-2.3 1.2-.8 2.7-1.6 3.4-1.9 1.2-.4 1.8-.9 1.5-1.2-.1-.1-.6 0-2 .6-2.1.9-3.3 1.5-3.8 1.9-.3.2-1 .6-1.5.9l-.9.5.9-.8c1.2-1.1 3.5-2.6 5.2-3.4 3.4-1.8 3.1-4.2-.5-3m66.9-.1c-.5.3-.5.3-.1.3.6 0 1.1-.2.9-.4 0-.2-.2-.2-.8.1m-40.6 1c-.7 1.3-.7 1.4 0 1.7.9.4 2-1.4 1.4-2.1-.6-.8-.9-.7-1.4.4m95.3 1.4c0 .2 1 .8 1.4.8.3 0-.5-.7-1-.8-.2-.1-.4-.1-.4 0m-165.8.9c0 .6.4 1 1.4 1.8.6.4 1.5 1.2 2.1 1.7 4.2 3.8 5.9 5.2 8.2 6.7.7.5 1.3.9 1.4 1 .1.2 3.1 2.2 3.2 2.2.1 0 7.2 4.7 7.3 4.9.1.2 1.6 1.1 2.8 1.8 2.1 1.2 6.9 3.5 8.7 4.2 1 .4 2.8 1 3.8 1.4 1.1.4 2.2.8 2.4.9 1.2.4 5.4 2.2 5.9 2.6.3.2.6.4.7.4.1 0 .7.4 1.3 1 1.4 1.2 1.4 1.2 1 .1-.4-1-1.1-1.5-3.1-2.6-.7-.4-1.5-.8-1.8-1-.7-.5-2.6-1.4-4.5-2.2-1.5-.6-3.5-1.7-2.7-1.4.2.1 1.2.4 2.3.7 2.1.7 3.3 1.1 4.9 1.9.5.3 1.3.6 1.7.7 2.3.8 3.8 2 4.6 3.5.5.9 1.8 2.3 2 2 .1-.1 0-.3-.1-.5-.2-.4-1.2-3.5-1.6-4.9-.3-1-.9-1.4-5.4-3.5-4.3-2-4.8-2.2-9.4-3.6-5.6-1.6-6-1.8-16.5-7.3-1.3-.7-2.7-1.4-3-1.6-.3-.2-1-.6-1.5-.9l-1.8-1.1c-3.4-1.8-5-2.9-9.1-6.1-1.3-1-3.3-2.3-3.6-2.3-.1 0-.3-.1-.4-.3-.1-.6-1.2-.6-1.2-.2m158.3-.1c.1.1.8.6 1.7 1.2 1.6 1 2.6 1.9 7.1 6.6.9 1 1.8 2 2 2.2.2.3 1.2.6 1.2.3 0-.2-.5-1-1.6-2.5-.7-.9-1.7-2.3-2.4-3.2-1.3-1.8-2-2.3-4.7-3.4-1.1-.5-2.2-1-2.6-1.1-.7-.3-.8-.3-.7-.1m-35.6 1.5c0 .1.3.2.6.3.7.1.5-.3-.2-.4-.3-.1-.4-.1-.4.1m-10.3 1.4c-.1 0-.7.2-1.3.4-.6.2-1.1.4-1.1.4.1.1 3.1-.7 3.3-.8.1-.2-.6-.1-.9 0m12.8 5c.2.2 1.5.3 1.5.1 0-.1-.4-.2-.8-.2s-.7.1-.7.1m-63.2.8c-1.8.3-2 .6-1.9 2.2.2 2.3 2.3 2.8 3.1.7.1-.3.5-.7.8-.8.4-.2.7-.4.7-.4.2-.2 1.1-.6 1.6-.6.3 0 .5-.2.5-.4.1-.9-2.2-1.1-4.8-.7m-11.8.2c0 .6 1.7 4.8 2.7 6.9.7 1.5 1.6 3.2 1.8 3.8.3.6.9 1.7 1.3 2.4s.9 1.7 1 2.1c.1.4.6 1.4 1 2.2 1.2 2.4 2.5 5.7 2.7 6.7.2 1.1 1 4 2.1 7.2 2.1 6.6 2.7 11.1 2 16.6-.1.8-.2 1.8-.3 2.3l-.1.9h1.3c.9 0 1.3-.1 1.4-.2.1-.2.2-1.9.3-3.1 0-.7.3.1.6 1.9s1.7 2.3 1.7.7v-.7l.3 1c.3.8 1.6 1.7 1.9 1.2.5-.9-.7-9.1-2.2-15.6-.3-1.3-.8-3.4-1-4.6-.4-2.1-1-4.5-1.7-6.8-.2-.6-.7-2.5-1.1-4.1-1-3.8-1.4-5-1.6-4.3-.1.4.7 6.6.9 6.9 0 .1.2 1 .3 2 .1 1 .2 2.1.3 2.5.1.6.1.6-.1.3-.1-.3-.2-.2-.1.5.1.5.1 1.2.2 1.5 0 .3.1.7.2.9.1.2.1.2-.2 0-.2-.1-.3-.4-.3-.5 0-.1-.1-.6-.3-.9-.2-.4-.5-1.4-.8-2.3-.3-.9-.6-1.9-.7-2.2-.4-1.4-1.1-4-1.3-4.6-.1-.8-.8-3-1.1-3.6-.1-.2-.4-1.2-.7-2.2-1.3-4.1-3.9-11.1-4.1-10.9-.1.1.8 4.5 1.4 6.6.3 1 .5 2.3.6 2.7l.1.9-.3-.7c-.2-.4-.6-1.5-1-2.4-.4-1-1.2-2.9-1.8-4.4-.6-1.4-1.3-3.1-1.4-3.7-.3-1.2-1.8-2.6-1.6-1.5 0 .1.1.5.2 1 .2 1-.1.7-.6-.6-.1-1-1.9-2.5-1.9-1.8m131.4.3c-1.2.1-4.7 1.3-5.5 1.9-.3.2-1.1.3-2.6.3-1.2 0-2.3.1-2.3.1-.1 0-.2.2-.3.4-.1.5-1.1.8-3.9 1.6-1.2.3-3.2.9-4.5 1.3-1.8.6-3 .8-4.9 1-1.4.1-3.3.5-4.3.7-4.1 1.1-13 2.4-19.2 2.8-1.6.1-3.1.2-3.2.3-.3.2-6.9.6-9.6.6-2.9 0-5.2-.4-7.5-1.3s-7.3-.9-5.6.1c.5.3 1.5 2.1 1.2 2.2-.1.1-.8-.2-1.5-.6-4.9-2.5-9.4 2.9-6.8 8 .9 1.9 2.2 2.6 1.5.8-1.2-2.8 1.9-5.2 3.4-2.6.2.4.3.3.4-.7.2-1.9.5-2.1 4.3-2.6 3.7-.5 6.3-.6 7.5-.2 1.1.4 5 .4 6.5.1.4-.1 2-.3 3.6-.4 1.6-.1 3.6-.3 4.5-.4.9-.1 2.3-.2 3.1-.2h1.5l-2.5.5c-1.4.3-3.4.6-4.4.7-2.8.3-4.7.8-4.7 1.2 0 .3 4.8.1 8.5-.3 1.4-.2 2.8-.3 3-.3.6 0-5 1.5-6.4 1.7-2 .2-1.5.9.5.8 1.6-.1 5.6-.8 7.2-1.2 2-.5 6.3-1.4 9-1.9 1.3-.3 3.4-.8 4.6-1.1l3.6-.9c.8-.2 1.8-.4 2.1-.5 2.8-.9 9.1-2.1 10.4-2.1.3 0 1.7-.2 2.9-.5 1.6-.3 3.7-.6 6.8-.8 5-.3 5.6-.4 10.8-1.6 2-.5 2-.4 1.1-1.6l-1.5-2.2c-1.2-1.8-1.6-2.2-2.6-2.6-1.3-.5-2.6-.7-4.2-.5m-115.2 1.7c-3.5 1.4-4.4 3.2-3 5.9 1 2 2.7 1.8 2.2-.3-.4-1.8.6-3.6 3.3-5.5 1.4-1-.1-1.1-2.5-.1m5.1.4c-2.1 1-5.4 5.2-5.7 7.2-.2 1.6.9 4 1.8 4 .2 0 .4.1.4.2.1.2.5.2 1.2.2h1.1l.1 1.5c.1 2.3 1.3 3.9 2.8 3.9.4 0 .6.1.8.6.3.8 2.1 2.5 2.6 2.5.2 0 .5.3.7.8.7 1.5 2.5 2.2 3.5 1.4.4-.3.4-.3.3.1-.3 1.3 1.8 3.4 3.3 3.3 1.1-.1 1.2-.1 1.4.4.2.3.5.7.8 1 .3.2.5.5.4.5-.1.1-.3 0-.5-.2s-.4-.3-.4-.2c0 .1.1.3.3.4.2.1.3.6.3 1.1 0 2.6 2.7 4.4 5.9 3.9 1.5-.2 1.7-.5.8-1.1l-.8-.5 1-.1c2-.2 3.1-2.4 2.3-4.6-.2-.6-.5-1.3-.6-1.7-.2-.7-.2-.6-.3.6-.3 2.6-.5 3.4-.8 3.1-.2-.2-.5-3.8-.5-5.5l.1-1.7-.8-.1c-.8-.1-2.1-1.2-2.1-1.7 0-.1-.1-.4-.1-.7l-.1-.5.4.5c1.2 1.4 2.3 1.1 3.4-1.1.8-1.6.8-1.9 0-1.5-.8.4-2.2.3-3.1-.2l-.8-.4-.4.5c-.9 1-1.1 3-.5 4.2.5.9.5 1.3.1 2.6-.4 1.5-.4 4.7.1 5.8.3.7.3.8.1.7-.2-.1-.5-.2-.8-.2-.5-.1-1.8-1.6-1.5-1.6.9 0 1.3-1.4.7-2.2-.9-1.1-1.1-4.4-.8-8.6.3-2.9-.9-2-1.7 1.2-1 4.5-1 4.6-1.3 4-.2-.6-.5-.7-.5-.1-.1 1.2-.4-1.4-.4-3.4 0-2.1 0-2.4.6-3.8.3-.8.6-1.6.5-1.6-.1-.1-1.5 1.4-1.5 1.6 0 .1-.3.8-.7 1.5-.4.7-.8 1.8-.9 2.4-.3 1.3-.5 1.6-.6.9-.1-.3-.2-.5-.4-.5-.3 0-.6-1.7-.4-2.5 0-.3.1-.8.2-1.2.1-.9.7-2.9 1-3.6 1.3-2.6-2.3 1.6-4 4.7-.2.4-.2.3-.2-.2 0-.3-.1-.7-.2-.9-.3-.5 1-4.2 2.1-5.6.6-.7.6-.9.1-.9-.9 0-3.5 2.3-4.5 3.9l-.4.7v-.6-2.6s.1-.3.1-.5c.1-1.2 1.1-4.5 1.6-5.5.2-.3.3-.6.2-.7-.1-.1-3 1.7-3.1 1.9 0 .1-.2.4-.4.6-.2.2-.4.5-.4.6 0 .1-.1.2-.2.2s-.2.2-.3.4c-.1.2-.3.4-.5.5-.2.1-.5.4-.6.7-.3.9-.7.5-.6-.6 0-.1-.1-.2-.2-.2-.3-.1-.3-2.2.1-2.5.1-.1.2-.3.2-.4-.1-.3.6-1.6 1.6-3.1 1.5-2.2 1.5-2.3-.4-1.4m46.7.7c0 .2-.8.3-.9.1-.1-.1.1-.2.4-.2.3 0 .5.1.5.1m71.8.4c.2.5 1.2 1.4 1.3 1.3l-.7-.9c-.4-.4-.7-.6-.6-.4m-122.9 1.2c-.4.4-.8.9-.8 1.3l-.1.6.3-.6c.2-.3.6-.9 1-1.3.9-.9.6-.9-.4 0m7.6.4c-.2.2-.6.7-.9 1-.7.8-.4.8.5 0 .4-.4.9-.7 1-.7.2 0 .5-.4.5-.7 0-.3-.7 0-1.1.4m112.1.7c3.9.7 1.6 1.3-5.4 1.4l-5 .1 1.1-.4c.6-.2 2.4-.6 4-.8 1.6-.2 3-.5 3-.5.2-.1 1.1 0 2.3.2m3.9 4.1c-.9.6-1.7 1.2-1.9 1.2s-.3.1-.4.2c-.2.3-4.8.5-6.5.3-3.5-.4-12.3-.3-14.8.3-.4.1-1.6.3-2.5.4-4.1.5-10.1 1.9-15 3.7-1.1.4-2.7.9-3.6 1.3-3.1 1.1-4.3 1.9-2.4 1.6.5-.1 1.1-.2 1.2-.3 2.1-1.1 14.4-3.7 21.8-4.5 2.4-.3 14.4-.2 16.3.2 2.5.4 5.2.2 6.6-.5 2.3-1.1 3.9-3.4 3.4-4.4-.4-.8-.4-.8-2.2.5m-200.2 2.5c-.7 2.9-.8 13.1-.1 17.2.2 1 .5 2.9.7 4.2.2 1.3.5 3.3.7 4.5.2 1.2.5 2.6.7 3.1.2.6.6 1.9.8 3 .2 1.1.7 2.7 1 3.5.3.9.6 1.8.8 2.1.2.5.2.5.7.3 1.3-.7 3.8-2.9 3.7-3.2-.4-1.2-.9-6.1-1-9.5l-.1-4-.6-.2c-.7-.3-.7-.5-.1-.5.2 0 .5-.1.6-.2.3-.3.3-2.8.1-2.9-.1 0-.7-.4-1.3-.8l-1.1-.7 1.3.1 1.3.1.1-.9c.2-1.7.2-2.6-.2-2.6-.3 0-.3 0 .1-.3.3-.2.4-.6.5-2.1.1-1 .2-2.1.2-2.4.1-.5 0-.6-.6-.9-.9-.4-.9-.7 0-.6.7.1.7 0 .9-.7.2-1 .2-1.2-1.3-1.9-1.2-.7-2.7-1.5-5.7-3.5-2-1.4-1.8-1.4-2.1-.2m123 3.9c-.6.3-1.4.7-1.8.8-.4.1-1.2.6-1.7 1-.7.5-1.3.8-2 .9-1.5.2-3.8 2.1-4.8 4-.8 1.6.4 4.6 2.4 5.9.4.3 1.2.9 1.8 1.5.6.5 1.1 1 1.2 1 .1 0 .6.6 1.1 1.3.5.7 1.9 2.3 3.1 3.6 1.2 1.3 2.6 2.8 3 3.3.5.5 1.2 1.2 1.7 1.5s1.3 1 1.8 1.5c1.5 1.7 1.2 1-.4-1-.9-1.1-2.5-3.1-3.6-4.4-1.1-1.4-2.4-2.9-2.8-3.4-4.2-4.6-5.7-7.2-4.9-8.1.8-.8 1.5-.3 3.1 2 .5.7 1.9 2.5 3.2 3.9 1.2 1.4 2.7 3.2 3.4 4 1 1.2 8.6 8.8 9.7 9.8.3.2 1.5 1.2 2.7 2.2 2.3 2 6.7 5.4 9.6 7.5 1 .7 2.1 1.6 2.4 1.9.4.4 1.2 1 1.9 1.5.6.5 1.3.9 1.4 1.1.9.7 2.8 2.1 4.9 3.4 1.3.8 3.2 2 4.2 2.6 1 .6 2.2 1.4 2.7 1.7.5.3 1.3.8 1.7 1.2.4.4 1.4 1 2.3 1.4.9.4 2.2 1 2.9 1.4.7.4 1.8.8 2.5 1 1.2.3 2.7 1 5.8 2.6 1.9 1 5.8 2.9 11.4 5.5 2.3 1.1 4.3 2.1 4.5 2.1.3.2 2.3.8 6 1.9 2.1.6 5.3 1.7 9.8 3.3.8.3 1.5.5 1.6.5.1 0 .6.2 1.1.4 2.5 1.1 8.6 2.7 14.1 3.7 1.9.3 4.6.8 6.1 1.1s3.6.6 4.7.7c1.1.1 3.1.3 4.5.6 2.4.4 3.3.5 11.4 1.1 2.1.2 5.1.5 6.5.7 4.3.6 5.7.7 14 .9 9.5.2 16.2-.2 14.2-.7-1.1-.3-2-.4-5.2-.4-2.2 0-3.6-.1-3.7-.3-.2-.2-3.4-1-5-1.3-.4-.1-2.4-.3-4.6-.4-7.2-.6-8.2-.6-9.8-.9-.9-.1-2.6-.3-3.8-.5-2.5-.3-5.4-1-7.6-1.7-.8-.3-3-.8-4.8-1.2-5.1-1.1-8-1.8-11.7-3-.9-.3-2.8-.7-4.4-.9-6.6-.9-13-2.7-20.8-5.7-2.4-.9-5.6-2.2-7.2-2.8-3-1.2-6.1-2.5-10.6-4.7a75 75 0 0 0-3.6-1.7c-1.1-.5-5.5-3.1-8-4.7-1-.6-2.3-1.4-3-1.8-.7-.3-2.4-1.3-3.8-2.1s-3.2-1.9-4.1-2.4c-.9-.5-2.7-1.5-4-2.3-5.3-2.9-8.1-5-11.6-8.5-.4-.4-1.5-1.4-2.4-2.1-.9-.7-2.5-2.4-3.5-3.6-3.5-4.1-3.7-4.5-4.5-6.8-.7-2.1-1.2-2.9-2.6-4-.5-.4-1.6-1.4-2.4-2.1-.8-.7-2-1.7-2.6-2.1-2.8-2.1-3.3-3-2.6-5.2.2-.6-.6-.6-1.3-.1-.6.5-.2 1.7 1.4 4.3.9 1.4.5 1.5-.5.1-.5-.6-.9-1.2-1-1.2-.4-.4-1.4-1.9-1.6-2.6-.2-.9-.5-1-1.8-1.2l-1-.1.5.6c.7.7 1.7 2.4 1.7 2.7 0 .1-.5-.2-1-.8-1.1-1.1-2.6-2.1-2.9-2-.1 0 .3.8.9 1.8l1.1 1.8c0 .1 2.3 3.4 2.7 3.8.1.2.3.4.3.5 0 .3-4.5-5.1-5.6-6.9-.4-.5-1-1.3-1.4-1.6-.4-.4-.8-.8-.8-.9 0-.1-.1-.3-.2-.3-.3 0 .3 1.3 2.7 5.4.1.1-.1 0-.3-.1-.6-.4-2.6-2.9-2.6-3.2 0-.1-.1-.2-.1-.2-.1 0-.5-.6-1-1.3l-1-1.4c-.2-.2.3-.4.9-.4.3 0 .5-.1.6-.2.4-.7 3.1-.9 5.2-.4.8.2.6.2-1.8.6-3.5.5-1.1 1.5 3.1 1.3 2.1-.1 2.2-.1 3.1.4 1.5.8 3.5 1.4 5.7 1.5 2 .1 2.7.2 4.7.9 1.8.6 1.8.7.1.8-2.9.3-3.2 1-.4 1.1.6 0 1.8.2 2.7.4.9.2 2.2.5 2.9.6.7.1 1.7.3 2.1.4 1.1.2 2.1.6 2.1.8 0 .1.1.2.2.2s.7.3 1.3.7c1.9 1.3 2.2.6.5-1.1-1.1-1.1-3.2-2.7-3.5-2.7-.1 0-.3-.1-.4-.3-1.3-1.2-10.8-5-13.6-5.5-3.6-.6-4.6-1-5-1.9-.8-2-5.9-2.7-8.2-1.5m-43.5 2.1c.1.8 1 1.9 1.5 1.9.1 0 0-.2-.3-.5s-.7-.9-.9-1.3l-.4-.8.1.7m-39.1.2c.3.3 4.4 2.4 6.8 3.4 1.6.7 3.9 2.2 6.4 4.1 1.2.9 3 2.3 4 3 1.6 1.2 2.6 1.9 4.2 3.3 1.3 1.2 2.1 1.4 3.5 1l1.3-.3-.3-1c-.2-.5-.3-1.2-.4-1.4-.1-.5-1.6-1.5-4.6-3.1-2.5-1.3-2.6-1.3-1.6-.3 1.2 1.2.7 1.1-.8-.2-1.3-1.1-3.4-2.2-9.9-5.3-1.3-.6-3.4-1.5-4.9-1.9-.5-.2-1.4-.5-2-.9-.7-.5-2-.8-1.7-.4m39.7 7.1c.1 4.5 1.2 12 2.3 15.9.4 1.5 1 3.7 1.2 4.8.2 1.1.6 2.4.8 2.8.2.4.4 1.6.6 2.7.2 1.8.5 2.7.9 2.7.1 0 .3.1.5.3.3.3.9.4.7.1-.1-.2-.3-1.4-.2-1.4.2 0 1.1 1.7 1.1 2 0 .8 1.9 2.3 2.2 1.7.3-.5-.8-4.3-2.2-7.4-1.2-2.6-2.7-7.7-4.5-14.8-.5-2-2-9.5-2.3-11.7-.1-.8-.2-1-.6-1l-.5-.1v3.4m2.7-3.1c.1.3 1.1 1.1 1.2.9.1-.1-.2-.3-.6-.7-.4-.2-.7-.4-.6-.2m3.9 1.8c0 .4.3.8.5.7.2-.2-.1-.9-.3-.9-.2-.1-.2 0-.2.2m48.4.6c0 .7 2.2 2.4 3.6 2.7.3.1.7.4.8.7.2.3.4.6.5.6.1 0 .5.3.9.7s1.4 1.1 2.2 1.6c1.5 1 1.8 1.3 1 1.2-2.6-.2-2.5.1.8 3.2.7.6 1.4 1.4 1.6 1.8 1.2 1.8 2.1 3 2.5 3.3.2.2.8.9 1.3 1.6.5.6 1.4 1.7 2 2.3.6.6 1.2 1.3 1.2 1.4 0 .3 2.6 2.7 4.5 4 .9.6 1.9 1.4 2.4 1.7.4.3 1.5 1.1 2.4 1.8.9.6 2.3 1.8 3.3 2.5.9.7 2.4 1.8 3.4 2.3l4.1 2.5c1.3.8 3 1.8 3.8 2.2.8.4 2.2 1.2 3.1 1.8 5.1 3.1 6.2 3.8 8.9 5.1 3.3 1.6 9.8 4.5 11.4 5 .6.2 1.2.4 1.5.6 2.5 1.2 6.8 2.6 14.1 4.5 6.4 1.7 8 2 7.6 1.6-.2-.2-1.1-.5-6.5-2.2-2.5-.8-4.9-1.7-7-2.6-.8-.4-2.4-1-3.4-1.4-1-.4-2.6-1.1-3.6-1.5-.9-.5-1.8-.8-1.8-.8-.3 0-9.4-4.5-10.8-5.4-.9-.6-2.3-1.3-3.1-1.7-.8-.4-2-1.1-2.7-1.7-.7-.5-2.4-1.6-3.8-2.4-1.3-.8-2.8-1.7-3.3-2-.5-.3-1.7-1.2-2.7-1.9-1-.7-2.8-2-4-2.9-1.2-.9-2.5-1.9-2.8-2.1s-1.2-1-1.9-1.6c-.6-.6-2.2-2-3.5-3.1-1.3-1.1-3-2.8-4-3.9-.9-1.1-2.2-2.5-2.8-3.1-2.9-3.1-4.4-5.8-5.1-8.7-.5-2.1-.5-2-2.5-2.7-.9-.3-2-.7-2.5-.9-.8-.4-5.2-2-7.8-3-.8-.3-1.8-.7-2-.9-.6-.5-1.3-.6-1.3-.2m-91.5.9c-.4.2-.8.7-2.5 3.2-.5.8-1.3 1.6-1.7 2a43.8 43.8 0 0 1-3.7 2.6c-.8.5-1.5.9-1.6 1-.1.1-1.2.8-2.3 1.6-4 2.6-6.5 4.9-7.8 7.1-.4.7-3.3 1.1-3.5.4-.1-.4.5-4.6.8-5.6.3-1 3.4-5.9 4.1-6.6.2-.2.4-.4.4-.6 0-.1.4-.7.9-1.3 1.8-2.1.9-2.4-1.1-.4-.8.8-1.8 1.7-2.2 2.1-2.3 2.1-4.8 6-6.2 9.6-1.4 3.8-1.5 3.9-1.7 5.9-.2 1.8-.7 2.2-1.1.8-.5-1.4-.9-4.6-.9-6.5 0-1.9-.4-2.2-.8-.8-.4 1.3-.3 8.1.1 9.6l.3 1.1-1.2.6c-2 1-3.6 2.1-5.1 3.3-.3.3-1.3 1-2.1 1.6s-2.1 1.7-2.9 2.4c-.8.7-1.5 1.3-1.6 1.3-.1 0-.4.2-.6.4-.3.2-.8.6-1.2.9-1.3 1-4 3.3-5.1 4.3-.2.2-1.3 1.2-2.6 2.3-3.3 3-5.1 4.8-8.5 8.7-.8.8-1.5 1.7-1.7 1.9-.2.2-1.1 1.2-2 2.3-.9 1.1-1.8 2-1.9 2.1-.1.1-1 1.2-1.9 2.3-.9 1.2-2.3 2.8-2.9 3.5-1.6 1.8-3 3.5-3.6 4.4-.3.4-.7 1-1 1.3-.3.3-.7.8-.9 1.1-.2.2-.9 1.2-1.6 2.2-.7 1-1.8 2.6-2.6 3.6-1.9 2.6-5.3 7.6-6.2 9.3-.8 1.5-2.7 4.7-3.3 5.8-.2.4-.9 1.7-1.5 3s-1.2 2.5-1.3 2.7c-.1.2-.4.9-.6 1.6-.3.7-.9 2.1-1.3 3.1-2.3 4.9-2 4.1-6 15.6-.7 2-2 6.2-2.7 9-.5 2-.8 2.8-1.2 3.6-.3.6-.8 2.9-1 4.6-.1.8-.4 2.3-.7 3.3-.6 2.5-.8 5.3-.4 5.3s1.2-2 1.8-4.8c.1-.7.5-1.8 1-2.8.2-.6.7-1.8 1-2.7.3-1 1-2.9 1.5-4.2.5-1.4 1.2-3.4 1.6-4.4.9-2.7 1.5-4.1 2.6-6.7.5-1.2 1.5-3.6 2.1-5.2 1.5-3.7 1.8-4.5 5.6-12.2 1.2-2.5 2.2-4.5 2.5-4.7.1-.1.3-.5.6-1s1.3-2.1 2.3-3.6c1-1.5 2.5-3.8 3.3-5.1.8-1.3 2.2-3.1 3.1-4 .9-.9 2.1-2.3 2.8-3 .6-.8 1.2-1.4 1.3-1.5.1-.1.7-.8 1.4-1.7 3.4-4.2 16.2-16.9 19.8-19.5.4-.3.8-.6.9-.7.8-.8 7-5.2 8.2-5.7.2-.1.7-.4 1.3-.7 1.2-.7 4.7-2.5 7.2-3.8 2.1-1.1 2.5-1.4 3.6-3 .9-1.2.8-1.5-.1-.8-.8.6-5.2 3.2-5.4 3.2-.1 0-.8.4-1.7.9-2.6 1.5-2.7 1.6-5.6 3.1-2.6 1.3-6.8 3.9-7.6 4.7-.2.2-1 .8-1.8 1.4-2.3 1.8-3.1 2.4-6.6 5.8-1.8 1.8-3.8 3.7-4.5 4.2-1.2 1-3.7 3.3-5.4 5-.9.8-1.7 1.8-4.5 4.9-.7.8-1.6 1.7-1.9 2.1l-.7.7.6-.8c1.5-2.1 7.3-8.9 8.4-9.9.3-.3 2.7-2.7 5.3-5.4 2.6-2.7 5.4-5.5 6.2-6.1.8-.7 2-1.7 2.7-2.3 1.3-1.2 4.6-3.6 5.4-3.9.2-.1 1-.5 1.8-1 .7-.5 2.4-1.4 3.6-2.1 1.2-.7 2.8-1.5 3.4-1.9.6-.4 1.8-1 2.6-1.4 5.6-2.6 7-3.7 7.4-5.6.4-1.6 1.2-2.7 2.2-3 1.3-.4 3.2 5.3 4.1 12.3.5 3.7 1.2 5.3 1 2.1-.1-.8-.2-3-.2-4.8-.1-1.8-.2-3.7-.2-4.1-.1-.4-.1-1.3-.2-1.9 0-.6-.2-1.5-.4-1.9s-.3-.9-.2-.9c0 0 .3.5.5 1.3s.6 1.6.8 2c.2.4.5 1 .6 1.4.5 1.8 1.2 1.6 1.2-.4 0-2.9-.5-5-1.9-7.8-1.7-3.4-.8-5.6 3-7.6 1.2-.6 1.9-.3 3.7 1.9.4.4 1 .6 1.2.2.2-.3.3-2.2.1-2.5-.9-1.8-.6-3.6 1.1-6 .9-1.3 4.1-4.4 5-4.8.3-.1 1.2-.8 1.9-1.5s1.9-1.8 2.7-2.4c2.9-2.3 6.6-8.9 4.6-8m65.5 3.3c-.1 2.8.5 4.7 2.4 7.6.7 1 .6 1.3-.2.6-.3-.3-.5-.4-.6-.3-.3.3 1 4.6 2 6.5.7 1.4.7 1.5-.1.5-.4-.5-.8-.9-.8-1-.1-.1-.1.6 0 1.6.2 2.7 2 8.3 3.3 10.1.2.2.4.9.3.9l-.9-1.1c-.5-.6-.9-1.2-1-1.3-.4-.3-.4 0 .1.6.4.5.4.9.4 2.8 0 3.1 1.3 7.5 2.7 9.2.1.1.2 1.4.3 2.9.1 3 .5 5.4 1 6.4.3.6.3.8.1 2-.3 1.7-.3 3.9.1 6.8.4 2.6.3 3-.4 5.8-1.2 4.7-.7 12 1.2 16 1.1 2.3 1.6 2.4 3.2.5.5-.7 1.5-1.9 2.2-2.7.7-.8 1.7-2 2.1-2.6.5-.6 1.5-2 2.3-3 1.5-1.8 3.9-5.1 5.3-7.2 2.3-3.5 5.6-10.5 4.9-10.5-.1 0-.6.8-1.1 1.7-.5.9-1.4 2.3-1.9 3-1.6 2.1-2.5 3.3-3 4-.2.4-.7.9-1 1.3s-.5.6-.5.7c0 .2-1.4 1.6-1.4 1.4 0-.1.4-.7.8-1.4.5-.6 1.1-1.6 1.5-2.2.4-.6.9-1.4 1.2-1.9 2.1-2.9 2.6-3.6 3.4-5.5.3-.7 1.6-2.8 1.9-3 .5-.5.8-2.1.9-4.8.1-3.3.1-3.3-.7-2.1-.3.5-.6.9-.7.9-.2.2-1.4 2.2-1.9 3.4-1 2-1.5 3-5.6 9.3-2.3 3.5-6.3 9.4-7.4 10.7-1 1.3-1.5 1.8-1.7 1.8-.3 0-1.7-4-1.9-5.8l-.1-.6.3.6c.2.3.7 1 1 1.6.4.5.7 1 .7 1 .1.2 4.7-4.3 5.8-5.8 1.1-1.4 3-4.3 3.6-5.5.3-.5.7-1.3 1-1.7.3-.5.4-.8.3-.8-.2 0-1.2 1-1.3 1.4-.1.2-1 1.3-2.4 3-.4.5-.9.9-.9.8s.1-.3.2-.4c.2-.2.5-.6.7-.9.2-.3 1-1.5 1.8-2.6 1.8-2.4 4.1-6.1 5-7.9.7-1.4.9-2.4 1.3-5.2.1-.8.3-2.3.5-3.4s.3-2.2.4-2.4c0-.2 0-.5-.1-.5-.1-.1-.2 0-.2.2 0 .9-1.7 5.4-3.2 8.2-3.6 7-5.3 9.6-8.8 13.2l-2 2-.6-1c-.3-.5-1-1.5-1.4-2.1l-.8-1.2.7.6c.4.3.9.9 1.2 1.2 1.1 1.3 1.9.8 3.7-1.9.5-.8 1.4-2.1 2-2.8.6-.8 1.4-1.9 1.8-2.6s.9-1.4 1.2-1.6c.2-.2.4-.5.4-.8 0-.2.3-1 .7-1.6.9-1.5 2.3-4.2 2.2-4.3 0 0-.4.4-.8 1-1.3 1.9-4 5.6-4.1 5.5-.1-.1.6-1.2 1.4-2.5 3.4-5.7 4.1-7.7 4.4-12.8.2-3.7-.5-5.9-.7-2.5-.2 2.6-1.2 6.3-1.9 7.3-.2.3-.8 1.3-1.2 2.3-.5 1-1.2 2.4-1.7 3-.4.6-1.4 2-2.1 3-.7 1-1.6 2.3-2.1 2.8l-.8 1-1.6-1.9c-2.5-2.9-3.1-3.7-3-3.9.1-.1 0-.1-.1-.1s-.2-.1-.1-.1c.1-.1.8.4 1.5 1 .8.6 1.8 1.4 2.2 1.6.4.2.9.7 1 .9.3.8.7.4 2.6-2.5 2.4-3.6 2.8-4.4 4.1-8.6.3-.9.6-1.7.8-2 .3-.5.6-1.8.3-1.6-.1.1-.6 1-1 2-1 2.3-2.1 4.3-2.5 4.7-.2.2-.8 1-1.4 1.8-1.4 2-1.5 1.9-.4-.4 1.3-2.6 2.3-7.2 2.6-11.6.1-.8.1-1.6.2-1.7 0-.1 0-.3-.1-.3s-.4.7-.8 1.7c-.9 2.4-3.4 7.7-4.5 9.4l-.9 1.3-.8-.8c-1.2-1.2-2.2-2.6-3.1-4.1l-.7-1.4.9.8c2.2 1.9 3.4 2.2 4.4 1.1 1.7-2 4.5-8.5 4.5-10.3 0-1.3-.3-1.2-.9.5-.7 2-3.3 6.7-3.5 6.4 0 0 .1-.6.3-1.2.2-.6.5-1.5.6-2 .2-1 .3-6.8.1-7.3-.2-.4-1.2 1.8-1.9 4-.5 1.6-1.7 4.3-2 4.3-.1 0-1.8-2.1-3.3-4.3l-.5-.6.9.6c.5.3 1.2.8 1.5 1l.6.4c.1 0 .9-1.7.9-1.9 0 0-.5-.4-1.1-.7-1.3-.8-2.6-2.2-3.6-3.7-.3-.4-.1-.3.9.5 1.4 1.2 3.2 2.3 3.5 2.3.3 0 .5-5.7.2-6.8l-.2-.7-.3 1.1c-.1.6-.4 1.6-.6 2.3l-.4 1.2-1.6-1.2c-1.7-1.3-2.3-2-3.3-3.4l-.6-.9 1.7.9c2.2 1.2 3.5 1.2 2.6.1-.2-.2-.4-.3-.6-.2-1.2.4-6.3-5.8-7.5-8.9-.8-2.1-1-2.7-1.6-3.2l-.6-.5h.3m-39.8 2c0 .2.1.4.3.5.3.2.3.2.2-.2 0-.4-.5-.7-.5-.3m38.6 1.4c.1 1 1.1 3.3 1.2 2.9 0-.1-.2-.8-.5-1.5s-.6-1.5-.7-1.8c-.1-.4-.1-.3 0 .4m11 4.6c0 .3.6.9.7.8.2-.2-.2-.9-.5-.9-.1-.1-.2 0-.2.1m5.2 2.5c.4 1 .6 1.2.4.4-.1-.3-.3-.7-.4-.9-.3-.3-.3-.2 0 .5m35.8 3.7c.6.7 1.7 1.8 2 2 .2.1-.2-.4-.9-1.1-1.2-1.2-1.6-1.5-1.1-.9m-128.6.6c-1.1.8-1.7 3.1-1.3 4.8.2.8.4 2.2.6 3.1.3 2.2 1 2.7 2.8 1.8 3.5-1.8 6.6-1.6 12 .6 1 .4 2.4.8 3.1 1 .8.1 1.6.4 1.9.6.4.3 1.8.7 6.8 2.1.8.2 2 .6 2.6.8.6.2 1.9.5 2.8.7.9.2 2.3.4 3 .6 2.5.5 8.2.6 8.1.2-.1-.4-1.2-.8-3.4-1.1-1.5-.2-5.5-1.3-5.8-1.5-.1-.1.2-.1.7 0 .4.1 1.2.2 1.8.2s1.9.2 2.9.4c1.1.2 2.5.3 3.1.4 1.1.1 2.4.6 5.3 2 .8.4 2 .8 2.7 1s1.5.4 1.8.5c.7.3 6.2.5 6.4.2.2-.4-.3-1-.9-1.1-.4-.1-1.4-.2-2.4-.4-1.9-.3-2.6-.4-3-.5-.1 0-.4-.2-.7-.4l-.5-.4.8.2c.4.1 1.8.2 3.1.3l2.3.1-.4-.9c-.6-1.1-3.9-4.4-5.2-5-.5-.3-1.1-.6-1.2-.8-.1-.2-.4-.3-.7-.3-.3 0-.9-.1-1.3-.3-.9-.3-3.2-.3-9 .1-6.3.4-10.8.2-15.2-.9l-3.9-.9c-1.3-.3-3.4-.9-4.7-1.3-1.3-.4-3.1-1-4-1.2-.9-.3-2.1-.6-2.5-.8-.5-.2-1.6-.5-2.5-.8-.9-.3-2.1-.7-2.7-1-1.2-.6-1.1-.5-2.2-1.5-.8-.8-.8-.8-1.1-.6m98.3 4.1c0 .2 0 .6-.1.8 0 .2 0 .4.1.3.2-.1.3-1 .2-1.3-.1-.2-.2-.1-.2.2M130.2 259c-.2.3.2 2.8.7 4.6.2.8.4 2.8.6 5 .2 3.5.2 4.4-.1 3.4-.2-.7-1-.7-.8 0 .1.3.2 1 .2 1.5.1.5.2 1.2.2 1.4.1.3.1.3-.1.1-.3-.3-1.5-.3-1.6-.1-.1.1.4.7.9 1.3a5 5 0 0 1 1.6 3.6c.1.6.2 1.6.4 2.2.8 3.4.9 4 1.4 5.3.4 1.4 1.1 2 1.1 1.1 0-.2.2-.4.3-.5.9-.3.9-.8 1.1-7.8.1-2.4.1-4.6.2-5 0-.4.1-2.1.2-3.9.1-1.8.2-3.5.3-3.8.3-.9.4-3.9.3-4.9-.2-1.5-.8-1.2-1 .5-.7 4.7-1.9 9.7-1.9 8.6 0-.8-.3-3.3-.4-3.8-.2-.8-1.4-5.3-1.6-5.9-1.3-3-1.6-3.6-2-2.9m117.7 1.4c1.1.9 1.6 1.1.6.2-.5-.4-1-.8-1.1-.8-.1 0 .1.2.5.6m-103.2 1.7c-2 .8-6.2 3.7-6.2 4.3 0 .5.7.3 2.5-.6 4.6-2.3 10.9-2.7 13.6-.8.5.3 1.1.3 1.1 0s-.6-1-.9-1c-.2 0-.8-.2-1.4-.5-3.7-1.6-6.9-2.1-8.7-1.4m135.1.7c.5.5 4.5 3.2 5.2 3.5 1.1.6-3.3-2.7-4.6-3.4-1.1-.6-1.2-.6-.6-.1m-123.2 3.6c-.1.2-3.2 2.4-4.2 2.9-.4.2-2 .9-3.6 1.5s-3.4 1.4-4.1 1.7c-.7.3-1.4.6-1.5.6-.7 0-3.2 1.3-3.2 1.6 0 .2.1.4.1.4.6 0 2.8-.5 4.1-.9.8-.3 3.1-.8 5-1.2 4.2-.9 6-1.4 8.5-2.4 1.1-.5 2.4-1 3-1.1.6-.2 1.2-.4 1.3-.4.1-.1.4-.2.7-.3 1.7-.4-1.8-.8-3.8-.4-.7.1-.7.1-.7-.3 0-.2-.1-.4-.2-.4s-.2-.2-.3-.4c-.2-.8-.9-1.3-1.1-.9m87.5.9c-.2 1 0 1.1.4.2.4-.9.4-.9 0-.9-.2 0-.4.3-.4.7m-31.4 2.3c-.9 2-1.6 5.4-1.6 8.2 0 1.2-.4 1.2-1 0-1.2-2.7-4.4-6.9-5.2-6.9-.5 0-.3 1.1.4 2.1.4.6.9 1.5 1.1 2.1.2.6.7 1.8 1.1 2.6 1 2 1.1 2.6.6 2.3-.3-.1-.6-.1-1.4.2l-1 .4-.7-.5c-.7-.5-3.8-2.1-4.2-2.1-.1 0-.3-.1-.5-.2-.9-.9-4.3-1.7-4-1 .1.2.1.4.1.4s.1.1.2.1.6.3 1.2.7c.6.4 1.1.7 1.2.7.1 0 .9.5 1.8 1.2.9.6 1.7 1.2 1.8 1.2.1 0 .6.3 1.1.7.5.4 1 .8 1.2 1 .3.2-.1.2-1 0-.4-.1-2.1 1.6-2.3 2.4-.1.3-.4.9-.7 1.3-.3.4-.8 1.3-1.2 2-.3.6-.6 1.2-.7 1.3-.2.2-3.4-2.3-5.4-4.1-.5-.5-1.6-1.3-2.4-1.8-.9-.6-2.3-1.7-3.1-2.5-2.1-2.1-3.1-2.7-3.1-2 0 .4 2.2 3 5.1 6.2a27 27 0 0 1 1.8 2.2c1.2 1.5 2.9 3 3.8 3.2.3.1.5.2.5.4 0 .5 3.2 1.9 4 1.7.5-.1.6-.1.5.2-.2.5-1 .6-2 .2-.5-.2-1-.3-1.1-.3-1 0-3.6 12.4-3.8 18-.1 1.5-.1 3-.2 3.4-.9 7.8.2 17.4 2.4 21.5.3.6.8 1.7 1 2.4.3 1.3 1 2.5 1.3 2.5.1 0 0-.5-.1-1-.2-.6-.3-1.1-.4-1.2 0-.1-.2-.5-.3-.8-.1-.3-.5-1.6-.8-2.9-1-3.9-1-5 0-1.6 1.5 4.9 1.9 6.2 2 5.4 0-.2-.1-.4-.1-.4-.1-.1-.2-.2-.2-.4 0-.1-.2-1-.5-1.9-.2-.9-.4-2.6-.5-3.7-.1-1.1-.2-2.6-.3-3.2-.3-1.6-.3-1.9-.5-3.7-.1-.9-.2-1.8-.2-2 0-.2 0-.5.1-.6.1-.1.1-.2 0-.4-.2-.3-.2-4.3 0-4 .1.1.2 1.7.3 3.6.2 3.3.3 3.9.5 3.6.1-.1.2-2.1.3-4.4.1-2.4.2-4.4.3-4.5.1-.2.2-1.3.5-5.3.1-1.3.2-2.5.3-2.5 0-.1.5-1.8 1.1-3.7 2.4-8.7 5.6-15.2 9.2-18.8.5-.5 1-1.1 1-1.2 0-.1.5-.6 1-1 1.4-1.1 1.5-1.2 1.5-1.6 0-2.1 3.8.8 5.8 4.4 1.1 1.9 1.6-1 .6-3.1-.2-.5-.6-1.3-.8-1.7a6.1 6.1 0 0 0-4.3-3.4l-.7-.1-.1-3.1c-.1-1.7 0-3.8.1-4.6.1-.8.2-1.7.2-1.9.5-1.3 0-.9-.6.3m-16.1 1.4a3 3 0 0 1-.9.7c-.1 0-.6.3-1.1.7-1.7 1.1-2.9 1-6.5-.5l-1.8-.7-2.2.2c-1.4.1-2.1.3-2 .4 1.3.7 2.5 1.6 3.6 2.4 3.8 2.8 7.6 2.5 11.3-1.1 1.9-1.9 1.5-3.7-.4-2.1m-73.8 2.6c-.1.4-.4.6-.8.7-.7.1-.8.4-1.2 1.3-.2.7-3.5 3.7-4.1 3.7-.1 0-.5.2-.9.5s-1.4.9-2.1 1.3c-.7.4-1.6.9-1.9 1.1-.3.2-.8.5-1.2.7-1.4.8-2.1 1.3-3.2 2.1-.8.6-1.4.8-1.8.8-.8 0-1.9.4-2.8 1.2-.9.7-.9.8-2.1 1.6-1.4 1-5 3.9-5.3 4.3-.1.2-.4.4-.5.4-.1 0-.3.2-.5.4s-.6.6-1 .8c-.4.3-1.2 1-1.9 1.5-.6.6-2 1.8-3 2.7-2.5 2.3-7.4 7.3-9.2 9.4-.2.3-.7.8-1 1.2-.3.4-.9 1-1.1 1.4-.3.4-1.1 1.3-1.9 2.1-1.9 1.9-3.3 3.7-5 6-.8 1.1-2.2 3.1-3.1 4.3-1.9 2.6-4.6 7.1-8.2 13.8-1.4 2.6-4.6 10-5 11.8-.1.5-.4 1.2-.5 1.5-.9 1.8-.4 2.4.7.8 1.9-2.9 2.9-4.4 3.4-5.4.6-1.2 1.7-2.7 3.1-4.3.5-.6 1.3-1.6 1.8-2.4.5-.8 1-1.4 1.1-1.5.1-.1.9-1 1.8-2.1 3-3.5 11.1-11.4 14.9-14.4 3.7-3 3.7-2.9 3.3-3.8-.3-.7-.6-3.3-.3-3.3.2 0 2.5 1.5 2.6 1.7.3.5 1.1 0 5-3.1 1.1-.9 5.4-4.2 6.6-5 1.9-1.3 4.7-3.3 5.2-3.8.6-.5 2.3-1.6 3.2-2.1.3-.1.7-.4 1-.6l.5-.4-.7-.9c-.8-1-1.4-2.1-1.2-2.3.1-.1.2 0 .3.1.3.5 2.8 2.1 3.1 2 .3-.1.3-.3.3-1.8 0-.9 0-1.7.1-1.6.1 0 .5.2.9.4s.9.6 1.2.8l.4.5 2-1.2c1.1-.7 2.5-1.5 3.1-1.8 1.3-.6 1.3-.6.7-2.3-1-3.1-.2-3.3 1.4-.4.7 1.3.7 1.2 2.5.4.9-.4 1.7-.8 1.8-.8.2 0 2.3-.9 2.5-1.1 0 0-.4-.7-1-1.5-1.7-2.3-3.5-6.4-3-6.9.1-.1.2.2.2.5.4 1.8 5.3 7.9 7.5 9.4 1.4 1 1.5.8.7-1.1-.6-1.4-.9-6.3-.9-11.5 0-3-.3-2.6-.6.9-.2 2.1-.2 3.4-.1 5.4.1 1.4.1 2.8.1 3.1l-.1.5-.5-.5c-1.1-1.1-2.8-5.1-3.2-7.7-.1-.4-.2-1-.3-1.4-.2-.8-.4-2.5-.5-4.5-.3-2.2-.8-2.9-1.3-1.6m123.1 1c-.1.7-.3 1.6-.4 2-.1.4-.1.7-.1.8.2.2.7-.6.8-1.6.1-.6.2-1.3.2-1.7.2-1.4-.3-.9-.5.5m-99.5 1.3c-.5.2-.5.3-.1.2.6-.1 1.2-.5.9-.4-.1-.1-.5 0-.8.2m-1.8.6c-1.6.5-4.8 2.3-4.5 2.5 0 0 1.3-.6 2.9-1.4 1.6-.8 2.7-1.4 2.6-1.4-.1 0-.6.1-1 .3m121 2.7c-.2.2-.1.8.2 1.2.2.2.5.8.6 1.2.1.4.3.8.4.8.4 0 1.9-.6 1.9-.7.2-.6-2.7-2.9-3.1-2.5m-4.3.6c-1.9 2.3-2.3 10.2-.6 12.7.3.5.7.6 1.5.1.7-.4.7-.1 0 .7-1.2 1.2-2.8.7-3.4-1.2l-.3-.9-.6.7c-.6.8-.7 3.5-.1 4 .2.2.2 2.1 0 2.5-.1.2-.2.2-.4.1-.2-.2-.2-.4-.2-2.3 0-.5-.2-1.8-.5-2.8-.3-1-.5-2.1-.6-2.3-.2-.9-.9-2.7-1.2-3.2-.2-.2-.3-.6-.3-.7 0-.1-.3-.7-.6-1.3-1-1.7-1.7-1.2-1.1.7.1.4.3 1.5.5 2.5s.3 2.2.4 2.5c.1.4.2.7.3.7.3.1 1.1 3.3 1.5 5.9.1 1 .2 1.1.8 1.1.5 0 .6 0 .4.4-.2.3-.3.3-1 .3-.8-.1-1.7.8-3.3 3.3-.3.5-.6.8-.7.7-.1-.2 1.3-2.5 2.5-3.9l.5-.7-.4-1.3c-.2-.7-.4-1.4-.5-1.4-.1-.1-2.3 2.4-2.8 3.2-.2.3-.4.5-.5.5-.3 0-1-3.5-1.1-4.9-.1-2.9-.6-3.7-1.2-2-.4 1.3-.6 6.5-.2 7.3.2.3.5 1 .6 1.5.8 2.4 2 3.8 2.8 3.3.3-.2.4-.2.4.1 0 .5-.7 1-1.3 1-.3 0-.6.3-1.2 1.1l-.8 1.2c-.1.1-.4.6-.8 1.2s-.7 1.1-.7 1 .2-.5.5-1 .6-1 .6-1.1c0-.1.3-.7.8-1.3.7-1.1.8-1.3.5-1.6-.2-.2-.5-.8-.8-1.2-.3-.5-.6-.8-.6-.8-.2 0-2.3 3.4-3.3 5.4-1.5 2.8-5 11-5.7 13.1-.1.4-.5 1.1-.8 1.5-1.3 1.6-1.9 4.3-2.3 9.5-.5 7.3 0 10.9 2.3 15.6.6 1.3 2.6 3.8 2.3 2.9-.1-.2-.3-1-.6-1.7-1-2.9-1.4-5.3-1.4-8.9 0-2.7.4-4.8.5-2.6.2 5.7 1.7 11.6 3.5 13.7.5.5.5.3.1-1.4-.2-.9-.4-2.2-.5-2.8-.1-.6-.2-1.6-.4-2.1-1.3-4.6-1.2-10.4 0-15.9 1.3-5.7 3.5-11.6 5.6-14.7.5-.8 1.1-1.8 1.5-2.4.7-1.4 1.4-2.5 1.6-2.5 0 0-.5 1.1-1.2 2.5s-1.6 3.4-2.1 4.5-1 2.5-1.3 3.1c-.5 1.3-2.1 6.2-2.4 7.5-.1.5-.3 1.3-.4 1.8-.8 3.4-1.1 5.3-.4 3.1 1.3-4.8 4.7-14 6.2-17 1.8-3.6 7.1-11.7 9.2-13.9.3-.3 1-1.2 1.6-2 .6-.8 1.7-2.1 2.4-2.8 1.4-1.4 1.5-1.4.4.1-.4.5-1.5 2.2-2.6 3.8-1.1 1.6-2.6 3.8-3.3 4.9-2.1 3-2.4 3.7-2.7 7.5-.4 4.6-.2 7.8.8 11.5.9 3.4 1.4 4.3.8 1.3-.3-1.6-.4-5.1-.1-7.4.1-.9.3-2.4.4-3.4.2-1.8.9-4.2 1.5-5.3.2-.3.3-.4.2-.2-.2.7-.5 2.1-.6 2.8 0 .3-.1.9-.2 1.3-.2 1.7-.4 4.3-.6 7.5-.5 9.4 5.2 17.5 16.3 23.1 1.7.8 4.7 2.5 6.7 3.7 2 1.2 4.7 2.8 6 3.5 1.3.8 3.9 2.4 5.7 3.6 1.8 1.2 3.8 2.5 4.4 2.8 1.2.7 4.6 2.9 5.2 3.5.2.2 1.1.9 2.1 1.5 1.8 1.2 3.7 2.7 5.7 4.4.7.6 2.1 1.8 3.1 2.5 2.5 1.9 4.8 3.8 7.3 6.1s3.8 3.5 4.9 4.4c.4.4 1 .9 1.3 1.2 1.6 1.6 7.9 7.3 9.4 8.5 3 2.4 3.4 2.4.7 0-1.9-1.7-10.4-10-11.3-11-.8-.9.1-.3 1.9 1.3.9.8 1.9 1.7 2.3 2 .4.3 1.8 1.6 3.1 2.8 1.3 1.2 2.6 2.3 2.9 2.5.7.4 2.5 1.9 3.2 2.6.6.6 2.3 2 2.7 2.2.9.5-2.6-3.9-4.4-5.6-.6-.6-1.3-1.2-1.5-1.5-.2-.3-1.1-1.2-1.9-2.1-2.6-3-5.2-5.7-6.9-7.1-.9-.8-2.5-2.2-3.5-3.2s-2.2-2.1-2.5-2.3c-.7-.6-3.4-3.1-5.3-4.9-1.5-1.5-2.9-2.7-3.1-2.7-.1 0-.2-.1-.3-.3-.1-.2 1 .5 2.4 1.5s3.2 2.3 4 2.8c1.5 1 3.4 2.5 4 3.1.3.4 4.5 4.1 6.7 6 .8.7 2.6 2.4 4.1 3.7 1.4 1.3 4.2 3.7 6 5.3 3.4 2.8 4 3.4 5.1 4.3 3.4 3.1 6.5 5 7.5 4.6 1.6-.6-.7-6.8-4.7-12.4l-2.2-3.3c-.3-.6-1.9-3.1-2.2-3.3-.1-.1-.3-.5-.6-.9l-.5-.8-1.7.3c-1.9.4-3.7.3-4.1-.1-.2-.2 0-.3 1.1-.3 1.7 0 7.3-1.9 10.4-3.4 6.8-3.4 9.3-5.5 4.4-3.6-1.9.7-3.8 1.3-6.2 1.8l-3.6.9c-2.8.7-2.6.7-3.2-.3-.3-.5-.9-1.2-1.3-1.7s-1.4-2-2.3-3.3c-2.4-3.7-2-3.4-3.7-3.2-1.8.3-2.6.3-3.1-.1-.2-.2-.3-.3-.1-.2.2.1 1-.1 1.9-.3 3.3-.8 6.6-1.5 9.4-1.8 1.2-.1 8.4-1.9 9.6-2.4 1.1-.4.6-.7-.9-.6-3.8.4-7.3.7-11 .8-2.5.1-4.8.2-5.6.4l-1.3.3-1.4-1.4c-2-2.1-1.6-2.2-6.9 1.4-3.9 2.6-4.2 2.8-5.4 2.4-.9-.3-1.5-.7-1.5-1.1 0-.2.2-.2.7.2 1 .6 1.9.4 3.1-.6 2.4-1.8 4-3 5-3.7 8-5.1 14.8-9.9 14.5-10.2-.2-.2-1.4.3-3.1 1.4-2.1 1.4-5.9 3.2-8.4 4.1-.9.3-1.9.7-2.2.9-.5.3-.6.2-1.2-.5-.4-.4-1.1-1.3-1.7-2-.6-.7-1.7-1.9-2.5-2.8-.8-.9-1.7-1.9-2.1-2.2-.4-.3-1.1-1-1.5-1.6s-1.2-1.5-1.8-2.1c-1.2-1.4-2.3-2.8-3.2-4-.4-.5-1.3-1.6-2-2.3-.7-.8-1.3-1.5-1.4-1.7-.1-.4-.3-.3-3.8 1.4-1.1.5-2.4 1.2-2.9 1.5-2.7 1.4-8.5 2.8-8.5 2 0 0-.2-.1-.5-.1-.7-.1-1.6-.5-1.6-.7 0-.1.2-.1.4-.1 1.9.6 7.2-.8 11.2-3.1.7-.4 3.2-1.6 5.5-2.7 4.9-2.3 8.9-4.8 12.7-8 1.6-1.3 1.5-1.9-.1-1.2-.7.3-2.9 1.7-3.1 2-.3.3-3.3 1.9-3.9 2-.4.1-1.2.3-1.8.6-.6.3-2.3.9-3.7 1.4l-2.6.9-.4-.5a9 9 0 0 0-1-1.2c-.3-.4-.7-.9-.8-1.1-.2-.3-.4-.3-1.7.2-2.4.8-4.5.6-4.9-.5-.1-.4-.1-.4.8.1 1.1.5 4.1-.4 9-2.9 2.2-1.1 4.8-2 14-4.8 3-.9 2.8-.8 2.4-1.1-.5-.3-3.4-.1-5.4.3-.8.2-2 .4-2.6.5-5.8 1-11 2.2-13.6 3.4l-1.4.6-1.4-1.4a6.8 6.8 0 0 0-1.6-1.3c-.6.4-3.8 1.1-6.4 1.5-1.6.2-4.1.6-5.6.9-6.6 1.2-10.3 1.1-11.5-.4-.2-.3-.2-.3.3-.1 1.4.5 6.7.2 10.9-.7.7-.1 2.8-.5 4.7-.8s4.1-.7 4.9-.9c2.9-.8 9.6-3.5 11.1-4.5.3-.2 1.3-.7 2.3-1.2 1.8-.9 2.6-1.5 1.6-1.2-.3.1-1.1.3-1.9.5-.8.2-1.6.5-1.9.6-.2.1-.8.2-1.4.3-1.6.2-3.7.8-6.6 1.9-1.5.5-2.8 1-2.8.9-.2-.1-2.2-2.5-3.4-4-1.1-1.5-1-1.4-3.3-.4-4.3 2-8.1 2.9-9.9 2.3-1-.3-1.2-.8-.2-.6.9.2 2.5-.1 5-.9 1-.3 1.9-.6 2-.6.2 0 2.6-1.2 5.1-2.4 2.3-1.1 4.1-2.3 6.8-4.6.6-.5 1.4-1.1 1.6-1.3l.5-.4-.5.1c-.3.1-1.6.7-3 1.4s-3.1 1.5-3.7 1.8c-.6.3-1.5.6-1.8.8-1.5.7-2 .6-3-.7-.5-.6-1.4-1.6-1.9-2.2l-1-1.1-.8.7c-.5.4-.9.8-1 1-.5.7-2.9 2.2-3.3 2.2-.5 0-2.1-1-2.3-1.5-.1-.2.2-.1 1 .3l1.1.6.9-.7c.5-.4 1.4-1.2 2.1-1.9.7-.7 2.2-2.1 3.4-3.2 1.2-1.1 2.5-2.2 2.8-2.5 1.3-1.2 1.6-1.4 2.9-2.3 1.2-.8 2.4-1.5 4-2.4 1.2-.7 2.5-1.6 2.5-1.8 0-.3-1.7 0-2.5.4-.4.2-1.2.5-1.9.7-2.1.6-6.5 2.8-9.9 4.9l-2.2 1.4-.6-.6c-.4-.4-.5-.6-.3-.7.6-.2-.1-.4-1.1-.4-2.9 0-6.6 3.7-8.1 8.1-.4 1.1-.8 2.2-.9 2.4-.3.5-1.6 5.3-1.7 6.3-1.5 9.8.3 16.1 6.1 21.1 1 .9 2.1 1.8 2.4 2.1s1.3 1 2.1 1.5c1.7 1.1 3.1 2.3 4.8 3.9 2.4 2.3 4.3 3.8 7.2 5.9.9.6 0 .5-1-.1-.6-.4-1.5-.9-2-1.2-1.1-.7-2.4-1.6-5-3.6-1.1-.9-2.5-1.9-3.1-2.3s-1.1-.7-1.2-.8a62.64 62.64 0 0 1-3.6-2.4c-.1-.1-1.1-.9-2.2-1.8-2.3-1.9-3.1-2.6-3.7-3.7-.3-.4-.6-.9-.8-1.1-1-1-1.8-3.3-2.4-7.2-.4-2.5-.6-3-.6-1.8 0 2.5.9 5.7 2.5 8.9 1.5 3 1.5 3.6.1 1.5-1.8-2.8-2.4-4.1-2.9-6.2-1-4.1-1.1-11.2-.2-15.4.3-1.5.5-2.7.5-2.8-.2-.2-1.9 3.8-2.3 5.4-.1.6-.3 1-.4 1-.2 0 .1-2.2.5-3.2.2-.5.5-1.4.7-2 1.4-4.1 5.8-11.1 8.7-14 .9-.9 1.6-1.5 1.4-1.2-.5.9-.7 1.1-1.4 2.1-.8 1.1-2 3.5-1.9 3.8 0 .1.3-.1.5-.4 1.7-2.4 4.9-4.3 7.4-4.3.6 0 .5-.2-.3-.8-.5-.3-.6-.5-.4-.5.4-.1 2.1.7 2.6 1.1.9.8.3-1.4-.7-2.4-.3-.3-.6-.7-.6-.7 0-.3 1.1.5 1.6 1.1.3.4.6.7.7.9.1.1.3.5.4.8.2.5.2.5.4.2 1.3-3.1-2.5-10.3-5.5-10.2-1 0-2.4.7-2.4 1.1 0 .4-.5.9-2.7 3.3-.8.8-1.4 1.3-1.4 1.2 0-.5 2.5-3.8 3.7-5 1.3-1.2 1.3-1.3.6-1.3-3.8-.2-5.5.4-8 2.8l-1.5 1.4v-.8c0-1.9 0-4 .1-5.3 0-2-.3-2.3-.9-1.6m-63.8 1.8c0 .3 1.3 1.3 2.1 1.8.4.2 1 .6 1.2.9.5.6.9.5 1.3-.2.3-.5-.1-1.1-.8-1.2-.2 0-.4-.2-.6-.3-.9-.8-3.2-1.5-3.2-1m85.2.8c-.2.2-.6.7-.8 1-.3.4-.9.8-1.3 1-1.9.9-2.1 1.4-1.2 2.6.8 1.2 1.3.9 2.7-1.2.3-.5.8-1.2 1-1.5 1.2-1.4.9-3.3-.4-1.9m36.2 1.6c1 .4 5.7 2.1 5.9 2.1.5 0-.2-.4-1.4-.8-.7-.2-2.1-.7-3.1-1.1-1.9-.7-2.8-.8-1.4-.2m-148.1 2.3c-.1.1-.2.2-.2.3 0 .2.2.2 2.2.6.6.1 1.7.4 2.3.6.6.2 1.7.5 2.3.7.6.2 1.6.5 2.1.8 6.1 2.9 7.8 3.8 9.3 5.2.4.3.9.8 1.1.9.4.3.3.8-.3 1.4-.1.1-.3.5-.6.9-.6 1-.4 1-2.2 0-2.4-1.4-3.5-1.7-7-2.4-5.5-1.1-7.3-1.1-13.4 0-1.5.3-3.5.6-4.3.7-1.4.2-2.1.5-1.8.9.1.1 3.4.1 6.2 0 .7 0 2 .1 2.8.2.9.1 3.2.4 5.2.5 4 .4 6.7 1 9 2.2 1 .5 3.3 2.1 3.5 2.3.2.3 1.7.8 2.7.8.4 0 .2 1.2-.5 3-.8 2.1-1.1 2.2-.5.1.6-2.1.6-2.4.1-2.4-.2 0-.8-.2-1.3-.5l-.9-.5-.5 1c-.6 1.2-.7 1.1-.3-.1.4-1.2.1-1.5-1.9-2.4-1.7-.8-2.8-.5-7.1 2.2l-1.6 1s-.7.4-1.5.8l-1.4.8-1.6-1.1c-2.2-1.5-3.5-1.9-3.5-1.3 0 .4 1.1 1.5 1.9 1.9.4.2.9.6 1.1.8.5.6.5.5-1.3 1.6l-1.2.7-1.4-.7c-2-.9-4-1.6-6.8-2.3-1.3-.3-2.7-.7-3.1-.8-1.7-.5-5-.5-5 0 0 .3.1.4.4.5 2.1.4 2.8.6 4 1.1 1.9.8 4.6 2.1 5.1 2.3 2.5 1.5 4.4 2.7 5.2 3.4 1.2 1 2.4 1.6 3.5 1.6 1 0 1 .3-.1.5-1.2.2-2.2-.2-3.5-1.2-2.3-1.9-2.5-1.9-4.3-.3-.3.3-1.5 1-2.5 1.7-1.1.6-2.3 1.5-2.8 1.8-1.5 1.2-1.4 1.2-4.2-.2-3.7-1.8-5-2.2-5-1.5 0 .2 1.9 1.7 2.2 1.7.7 0 6 4.1 5.7 4.5-.1.1-1.2-.7-1.8-1.3-.7-.7-.4-.9-4.1 2.8-1.1 1.1-2.6 2.5-3.3 3-.7.6-2.3 2.1-3.6 3.3-1.3 1.2-2.4 2.3-2.4 2.3-.1.1-2.4-.6-3.3-1-3-1.1-10.8-2-10.8-1.2 0 .4.5.6 1.9.9.5.1 1.8.5 2.8.9 1 .4 2.8 1 3.9 1.4 1.1.4 2.8 1.1 3.7 1.7 1.4.8 1.8 1 2.7 1 1.1 0 1.2.1.2.3-1.1.2-1.5.1-2.5-.4-.5-.3-1.1-.5-1.1-.5-.5 0-9.6 10.4-11.3 12.9-.4.6-1.5 2.1-2.5 3.4-1 1.3-2 2.7-2.4 3.2-.3.5-.7 1-.9 1.2-.1.1-.9 1.1-1.6 2.2-.8 1-2 2.8-2.8 3.9-3.5 4.7-4.1 5.7-3.4 5.7.3 0 1.5-1.1 5.6-5.4 1.3-1.4 2.7-2.8 3.1-3.1.7-.6 1.8-1.9 3.2-3.6.9-1.1 4.9-5.2 6.4-6.5.5-.4 1.5-1.3 2.2-2 1.4-1.3 3.5-3.1 5.1-4.2.5-.4 1.8-1.3 2.8-2.1 1.8-1.4 2.7-2 6-4.3 1.8-1.3 10.7-6.7 10.7-6.5 0 0-1 .7-2.2 1.5-4.3 2.9-7.8 5.4-8.9 6.4-1.1 1.1-1.7 1.6-3.5 2.8-.9.6-1.9 1.3-2.3 1.7-.4.3-1.7 1.4-3 2.4-4.5 3.5-12.2 10.8-16.2 15.4-2.7 3.1-3 3.5-4.2 4.7-.6.6-1.9 2.3-2.9 3.6-2 2.7-5.1 5.9-6.4 6.7-1.3.8-2.6 2.4-2.3 2.8.1.1 2.8-1.3 3.4-1.8.3-.3 1-.9 1.6-1.3 1.6-1.3 2.7-2.3 3.5-3.2.4-.5 1.3-1.4 1.9-2.1.6-.7 1.5-1.7 2-2.3.5-.6 1-1.2 1.1-1.4.2-.2.5-.6.7-.8.2-.3.4-.5.5-.4.1.1-1.2 2-2.4 3.5-2.6 3.4-7.2 7.8-9.9 9.4-.7.4-.9.6-.7.6.4 0 2.6-1.3 5.1-3.1 1.9-1.3 5.6-5 7-7.1.9-1.3 2.2-2.9 4.6-5.4.5-.5 1.5-1.6 2.1-2.3 2.5-2.7 6.5-6.6 8-7.7.8-.6 1.6-1.2 1.7-1.4.1-.1.3-.2.4-.2.2 0-1 1-2.1 1.9-.9.7-6.8 6.7-6.9 6.8 0 .1-.6.8-1.4 1.6-.8.8-1.9 2.1-2.6 2.8-.6.7-1.5 1.7-1.9 2.1-.4.4-.7.9-.7 1 0 .1.5-.3 1-.9 4-4.3 11.4-11.4 13.8-13 .3-.2 1.3-.9 2.1-1.6 2.2-1.6 5.2-3.7 6.9-4.9.8-.5 1.8-1.2 2.1-1.5.4-.3 1.1-.7 1.6-1 1-.5 3.5-2 6.4-3.7 1.9-1.1 4.7-2.6 7.2-3.9.8-.4 2.3-1 3.3-1.4 1.8-.6 4.3-1.6 6-2.3.4-.2 1.9-.8 3.3-1.4 2.9-1.1 4.8-2.2 5.7-3.2.9-.9 2.6-3.2 2.9-3.9l.3-.6-.5.4c-.5.5-3.2 2.2-3.7 2.4-.2.1-.6.3-1 .6-1.9 1.2-11.3 5.9-13.8 6.9-.9.3-1.8.8-2.1.9-.5.2-.5.2-.5 0 0-.1 1.2-.8 2.5-1.4 2.4-1.1 4.5-2.1 6-2.9 1.1-.6 4-2.2 6.5-3.5 5.3-2.8 7.4-4.6 9.5-8.5l.7-1.4-.8 1c-2.2 2.6-4.6 4.8-5.1 4.6-.1 0-.1 0-.1.1s-.1.2-.3.3c-.5.2-.3 0 .8-.9 1.9-1.6 6.1-6.6 6.7-8 .2-.5.7-2.2 1.2-3.8.4-1.6.9-3.1 1-3.3.6-1.4 1.6-4.1 2.4-6.5.5-1.6 1.4-4.1 2-5.5.6-1.5 1-2.8 1-2.9-.2-.3-1.1-.2-1.5.3-.2.2-.7.6-.9.9l-.5.4-2-1.2c-2.8-1.6-5.2-3-5.5-3-.1 0-.6-.2-1.1-.4-1.6-.7-3.6-1.3-4.7-1.5-1.6-.2-3.9-.5-5.1-.7-1.4.4-3.3.2-3.6.4m153.8 3.2c.9.4 2.8.7 3.7.7.6-.1.3-.2-1.5-.5-2.7-.5-3.1-.5-2.2-.2m7 2c.2.2 4.3.9 4.4.7 0-.1-.4-.2-.9-.4-1.3-.2-3.6-.5-3.5-.3M224 295.1c-.1.2 0 .4.1.5.1.1.2-.1.2-.4-.1-.6-.2-.6-.3-.1m-29 2.7c-.3.7-.4 1.3-.4 1.4.1.3 1-2 .9-2.3-.1-.1-.3.3-.5.9m-67.2-.1c-1.6.2-2.6.5-2.3.7.1.1.4.6.7 1.1 1.2 2.3 5 8.2 6.3 9.7.3.3 3.4 3.2 5.2 4.9.1.1.6.5 1 .8.4.3 1.1.9 1.6 1.3.4.4 1 .9 1.3 1.1l.6.4-.4-.6c-.2-.3-.8-1-1.3-1.5-2.2-2.4-5.4-7.8-6.9-11.6-.4-.9-.8-1.9-.9-2.2-.1-.3-.3-.8-.4-1.2-.1-.3-.2-.8-.3-1.1-.2-.6-2-2-2.4-1.9-.2-.1-1 0-1.8.1m139 2.3c-.3.4-.5.9-.6 1.1l-.1.4.3-.4c.4-.4 1.1-1.9 1-1.9-.1 0-.4.3-.6.8m-68.5 2.1c-.1.2-.2.4-.2.3-.1-.1 0-.3 0-.5.1-.2.2-.4.2-.3.1.1.1.3 0 .5m22.3.5c-2.6 5.6-2.1 16.7 1.1 21.8.4.7.8 1.3.8 1.3 0 .5 2.7 3.4 3.2 3.4.2 0 1.9-2.9 2.5-4.5.4-.9 1.1-2.5 1.6-3.6 1.2-2.5 1-3-.6-1.1-2.4 2.7-2.8 3.3-3.3 4.3l-.5 1.1-.9-1.4c-1.3-2-1.5-2.5-2.3-5l-.7-2.3v-4.5c0-2.5 0-5.7.1-7.3.2-2.7.1-2.8-.2-2.8-.3 0-.6.2-.8.6m-22.7 1.2c-.2.6-.6 2.6-1.1 4.6-.4 1.9-.9 3.8-1 4-.1.3-.1.5-.1.6.1.1 0 .3-.1.5-.9 1.6.2-4.7 1.4-8.5.9-2.3 1.4-3.1.9-1.2m-4.7.1c0 .3-.1.6-.1.6-.2.2-.3 1.5-.2 1.5a8 8 0 0 0 .4-2.4c-.1-.1-.1 0-.1.3m117.2 5.2c-2 1.3-2 1.5.1.5 1.6-.8 2-1.1 2-1.4 0-.4-.5-.1-2.1.9m-157.1 1.4c.2.4 2.5 2 2.9 2 .1 0 .6.3 1 .7.9.8 1.4.8 2.3 0l.5-.4-.5-.2c-4.8-2.4-6.7-3-6.2-2.1m92.8 2.7c-.6 1-1.3 2.4-1.6 3-.3.6-.6 1.1-.7 1.1-.1-.1 1-2.8 1.6-3.7.3-.5.8-1.2 1-1.6.9-1.3.7-.7-.3 1.2m-31.9 5.5c-1 5.9.7 11.9 5.1 18.1 2.9 4.1 6.4 7 7.8 6.4.2-.1.8-.3 1.2-.5 1.1-.4 1.8-1.6 2-3.3.1-.6.2-1.4.4-1.8.2-.4.7-2.1 1.2-3.7s1.1-3.4 1.4-4.1c.3-.6.4-1.2.4-1.2-.5-.5-1.7 1-2.5 3-.2.6-1 2.3-1.7 3.8s-1.4 3.2-1.5 3.7c-.3 1.1-.3 1.1-2.6-.3-1.1-.6-1.9-1.3-2.7-2.2-2-2.3-4-4.8-4.4-5.6-1.7-3.6-3.3-9.2-3.3-11.5 0-1.5-.6-2.2-.8-.8m-75.7 2.4c.1.4.8.9 2.5 1.6.4.2 1.3.8 2 1.3 1.5 1.1 1.6 1.1 2.8 0l.5-.5-1.3-.6c-4.2-2-6.6-2.7-6.5-1.8m110.6 2.3c-1.8 3.9-2.6 6.6-3.3 10.6-1.3 7.5 3.4 19 8.6 20.9l.4.2-.1-5c0-4.2 0-5.3.3-7 .4-2.4 1-4.8 1.2-5 .1-.1.1-.4.2-.7.1-.8-1.4-2.6-1.6-1.9-.4 1.1-1.5 3.9-1.6 4-.1.1-.1-.2-.1-.5.1-1 0-1-.7-.9-1 .1-1.9-.6-2.2-1.7-.4-1.3-.4-.9-.3 2.4.1 3.9-.3 4.5-.6.9-.1-.6-.2-1.7-.3-2.3-.4-3-.2-6.5.4-9 .7-2.6.7-2.8.3-4.6l-.2-1.3-.4.9m-73.7 0c-.4.3-.9.7-1.2.8-.3.1-.6.4-.8.5-.3.3-3.8 2-4 2-.2 0-6 2.8-8.4 4-1.2.6-3.5 2-5.1 3-1.6 1.1-3 1.9-3.1 1.9s-.7.4-1.4.9c-1.9 1.3-3.8 2.4-3.9 2.3-.1-.1-.1-.1 0-.2 1-.8 2.2-1.5 2.3-1.5.1 0 .2-.1.2-.2 0-.2.7-.7 8.8-5.9 2.1-1.4 3-1.8 4.2-2.1.5-.1 1.7-.6 2.7-1.1 1-.5 1.8-.8 1.9-.7.1.1.2 0 .2-.1s.3-.3.6-.4 1.1-.5 1.6-.7c.6-.3 1.2-.6 1.5-.7s1.1-.5 1.8-1l1.4-.8c.1 0 .4-.2.6-.4.9-.4.9-.2.1.4m84.3 4.1c1.2 3.3 3.5 7.5 4.2 7.5.1 0 1.2 1 2.4 2.1 2.5 2.3 7.3 5.7 10.2 7.1 1.7.8 2.8 1.6 4.2 2.7.5.4 1.4 1 2 1.3.6.3 1.3.7 1.6.9l.5.4-.5-.1c-1.4-.4-3.5-1.2-4.4-1.7-.6-.3-1.8-1.1-2.7-1.7-.9-.6-2.7-1.6-3.9-2.3-1.2-.7-2.2-1.3-2.2-1.4 0-.1-.1-.2-.1-.1-1.5.4-8-5.9-10-9.8-.9-1.7-1.2-2.4-2.1-5.5-.8-2.8-.3-2.3.8.6m-37.8-1.6c.9 2 2 3.6 2.6 3.6.4 0 .4-.2-.4-.9-.4-.4-1-1.1-1.4-1.7-.6-1-1-1.5-.8-1m-38.2 2.8c-.2.7.1 4.9.5 7.6.2 1.5.4 3.1.5 3.5.1.8.6 4.1.7 4.5.1.4.6 1.8.7 2.3.4 1.1 3.6 1.4 7.2.7 2.9-.6 2.9-.5 1.8-2.3-.4-.7-.9-1.7-1.2-2.2-.2-.6-.7-1.6-1-2.4-.3-.7-.9-2.3-1.3-3.5-1.2-3.6-2.2-3.7-2.2-.2 0 .5-.1.8-.2.8-.7 0-2.7-3.8-3.2-6.2-.7-2.7-.7-2.8-1.3-2.9-.8-.1-.9-.1-1 .3m67.3.6c0 .5.1.8.3.8.4 0 .4-.2.2-.9-.2-.9-.5-.8-.5.1m60.6.2c-4 .3-4.8.6-3.7 1.6.4.4 1 1 1.3 1.4.7.8.8.8 2.6 0 .6-.3 1.5-.6 2-.7.5-.1 1.7-.4 2.5-.6.9-.2 1.8-.4 2-.4 1.1 0 2.3-1 1.5-1.2-.3-.2-6.1-.3-8.2-.1M210.3 336c-1.6 1.6-2.3 2.8-3.2 5.5-1.4 4.1-2.5 5.2-4.8 5.2-1.4 0-5.1-3-6.5-5.3-.8-1.4-1.4-1.7-1.4-.8 0 1.9 3.5 6.8 5.6 7.9 2.5 1.2 6.9 0 8.4-2.2.3-.4.7-1.6 1-2.6.3-1 .6-2.4.9-3 .2-.6.4-1.3.4-1.5 0-.7.4-1.8 1-2.5 1.4-1.9.3-2.4-1.4-.7m-42.1.9c-1.4.6-1.4.8-1.4 4 0 5.7.9 10 2.6 11.6l.6.6 2.4-.1c1.4-.1 3.1-.3 4.2-.6 1-.3 2-.5 2.3-.5 2.4 0 3.2-2.5 1.9-6-1-2.7-1.4-4.2-1.7-6.7-.3-2.7-.5-2.9-.5-.9 0 2.7-.7 8.5-1.1 9-.5.6-3.6-1.5-4.8-3.2-.5-.8-1.6-3.5-1.6-4.1 0-.2-.1-.5-.2-.6-.1-.2-.1.3-.1 1.2.1.9 0 1.5-.1 1.5-.2 0-.4-1.9-.4-3.7.2-2.3 0-2.4-2.1-1.5m162 .6c-1.3.3-2.9.7-3.6.9-.7.2-1.8.5-2.3.6-1.3.3-5.3 1.6-6.4 2.1l-.9.4.9.9c.5.5 1.1 1.2 1.5 1.6l.6.7 1.7-.9c.9-.5 3-1.6 4.5-2.4 1.6-.8 3.3-1.7 3.9-2 .6-.3 1.7-.8 2.4-1 4.4-1.3 2.5-2-2.3-.9m-72.7 1.4c-.2.9-.6 2.7-.7 3.6 0 .3-.2 1.1-.3 1.8-1.3 8.4 2 17 8.1 20.9.6.4 1.7 1.2 2.4 1.8 1.5 1.2 1.7 1.2 1.2.2-.3-.7-.5-1.8-1-5.2-.4-2.5-.1-11.7.4-14.6.3-1.6.3-1.6-1.1-2.6-1-.7-1.3-.6-1.3.2 0 .2-.2.9-.5 1.7-.3.7-.5 1.9-.6 2.6s-.2 1.7-.4 2.1l-.3.9v-2c0-1.4-.1-2-.3-2.1a3.38 3.38 0 0 1-1.9-.9c-.3-.3-.6-.6-.7-.6-.1 0 .2 5.8.4 6.8.4 2.2.2 2.4-.5.5-.9-2.7-1.4-9-1-13.8.3-1.9-1.5-3-1.9-1.3m-97.5 2.5c0 .2-.4 1.6-.9 3.1s-.9 2.9-.9 3.2c0 .6-.2.7-.4.3 0-.1-.6.3-1.3 1-1.3 1.3-2.1 1.5-3.4.9-.3-.1-.4-.1-.3 1.1.1 1.4 0 1.5-.6.4a8.3 8.3 0 0 1-.7-4.1c.2-1.3 0-1.3-1.4-.4l-1 .7.1 3.4c.1 6.5 1.7 9.2 5.2 8.3.7-.2 1.6-.4 2.1-.4 2.1-.3 4.4-1.8 4.3-2.8 0-.2 0-.5.1-.7.4-1.1.5-1.5.6-3 .1-1.3 0-1.9-.3-2.8-.5-1.5-.9-5.6-.7-7.3.1-1.1.1-1.3-.2-1.3-.2 0-.3.2-.3.4m108.5 5.6c-.2 2.2.1 9.6.5 11 0 .2.1.7.2 1.3.3 2.1 1 4.8 2.3 8.1.8 2 2.3 3.6 4.3 4.6.7.3 2 1.2 3 1.8 2.1 1.4 2 1.4 1.3-.2-1.4-2.9-2-11.9-1.1-14.8 0-.1.1-.8.2-1.5.1-1.3.7-3.8 1.1-4.5.2-.3 0-.5-1.1-1.1l-1.3-.8-.1 1.4c-.1 1.2-.7 5-1 6.9-.2 1.2-.3.7-.3-1.6v-2.5c0-.1-.4.2-.8.6-.9.9-1.6 1-2.6.4l-.6-.4.1 2.2c.1 1.2.2 2.6.3 3 .4 1.5.5 3.4.1 2.9-.7-1-2.1-7.5-2-9.6 0-.4.1-2.2.2-4l.2-3.2-1.3-.6c-.7-.3-1.3-.6-1.4-.6-.1.3-.1.7-.2 1.2m-123.1 3.2c-.1.1-.3 1.4-.3 2.8-.1 1.4-.2 2.7-.2 2.9-.4 1.1-.6 1.5-1.1 1.8-.3.2-.8.4-1 .3-.5 0-.5 1.5.1 2.8.5 1.2.5 1.3-.2.8-1.1-.8-2.2-3.7-2.5-6.8l-.1-1.2-.8.6c-1.3.9-1.3.9-1.1 3 .6 5.3 2 7.9 4.6 8.9 2.1.8 2.2.7 6.4-1.6 2.5-1.4 3-1.8 2.2-1.8-.4 0-2.6-1.1-3.1-1.5-.6-.5-1.3-2.2-1.3-3.1 0-.4-.1-1.1-.2-1.5-.3-.8-.3-3.4-.1-4.1.3-1.2-.7-3.1-1.3-2.3m136.7 4.8c-.5 3.6-.4 8.7.3 11.7.3 1.4.4 1.7.1 1.3-.3-.4 0 .6.5 2.1.5 1.3.6 1.2.2-.1-.2-.4-.2-.8-.1-.7s.2.2.2.4.4.8.8 1.5c.9 1.6 1 1.8.2.8-.3-.4-.7-.7-.7-.6-.3.3 1.9 3.3 2.4 3.2.1 0 .7.4 1.4 1 3.5 3.2 7 5.6 6.3 4.2-.9-1.8-1.4-6.2-1.1-9.8.1-1.2.2-2.8.3-3.5.1-.7.2-1.9.3-2.6.1-.8.2-1.9.1-2.5l-.1-1.2-1.3-.8-1.3-.8-.1 3.4c-.2 4.7-.5 6.7-.7 4.7-.1-.8-.1-.8-.9-.7-1 .1-1.3-.2-2.1-1.5l-.6-1.1.1 1.2c.1.6.2 1.7.3 2.3.1.6.2 1.2.1 1.2 0 .1 0 .4.1.7.3 1.1-.2.4-.6-.9-1-3.2-1.3-5.1-1.3-9.2v-3.8l-1.1-.6c-1.5-1-1.5-1-1.7.7m-147.5 2.8c-.5.3-.6.5-.7 1.1 0 1.1 0 2.4.1 3.1.5 3.2-.1 4.6-1.9 4.4-.5 0-.4.3.1 1.6s.5 1.5-.2 1c-1.1-.7-2-3.1-2.2-5.5l-.1-1.5-.8.8c-.8.9-.8 1-.6 3 .9 6.6 4.8 9.4 9.1 6.7.5-.3 1.2-.8 1.5-.9 1-.6 3.1-2.6 3.1-3 0-.6-1-1.5-1.9-1.6-2.6-.5-4-2.6-4.4-6.9-.1-1.6-.4-2.8-.7-2.8.3.1 0 .3-.4.5m160.3 3.4c-.5 2.5-.7 9.6-.3 12.2.7 4.4 2.5 7.2 6.1 9.6.9.6 2 1.4 2.4 1.7.8.6 1.1.6.7-.1-.6-1.1-.9-5.5-.7-8.1.2-1.4.3-2.7.3-2.8 0-.5.5-2.7 1-3.9.5-1.4.5-1.5-.6-2.3l-.9-.6-.1.9c-.2 1.4-1.5 5.3-1.3 4.1l.1-.9h-.8c-.7 0-.9-.1-1.7-.9l-.9-.9.1 3.3.1 3.3-.4-1.4c-.2-.8-.5-1.9-.6-2.6-.1-.7-.2-1.8-.3-2.5-.2-1.4-.1-3.8.2-4.9.3-1.2.2-1.5-.5-2-1.6-1.2-1.9-1.3-1.9-1.2m-7 1.6c0 .3.1.5.2.6.1.1.2-.1.2-.4 0-.3-.1-.5-.2-.6-.1-.1-.2.1-.2.4M125 367.2c-.5.6-.6 1.6-.1 3.8.4 2.1.4 3-.1 3.5s-.5.5.3 1.5c1.3 1.5-.1 1.3-1.7-.2-.9-.9-.9-1-1.9-3.9-.1-.2-.2-.2-.5.1-.8.7-1 1.3-.7 2.6.8 4.7 5 7.5 8 5.3l2.1-1.4a7 7 0 0 0 1.9-1.5l.9-.9-.5-.7c-.3-.5-1.1-1-2.2-1.5-2.7-1.3-3.7-2.6-4-5.1-.2-1.9-.7-2.4-1.5-1.6m182.5 4c-.8 3.5-.1 11.3 1.4 14.5.3.6.6 1.5.8 2 .5 1.8 2.5 4.8 3.1 4.8.1 0 .3.1.5.3.6.5 3.2 1.7 3.9 1.8 1 .1 1-.1-.3-1.8-2-2.7-2.6-4.8-2.5-9.7 0-3.4 0-3.8.4-4.6.6-1.3.6-1.5-.7-2.7-1.1-1-1.1-1-1.2-.6-.4 4.1-1.1 5.4-2.2 4.4-.4-.3-.4 2.7 0 3.3.1.1.1.2-.1 0-.6-.6-1.3-6.3-1.2-9.6v-1.4c0-.2-1.4-1.2-1.6-1.2-.1 0-.2.2-.3.5"/></svg>