<svg xmlns="http://www.w3.org/2000/svg" viewBox="0 0 410 410"><path d="M86.5 11.5c0 .2.2.6.5.9 1 1.1.9 2-.3 3.6-4.2 5.5-1.3 11.4 6.3 13.1 4.9 1.1 6 1.8 9.4 5.8 4.1 5 3.6 8.2-1.7 10.7l-2.3 1.1-1.9-.3c-2.5-.4-8.2-4.2-8.2-5.5 0-.2-.3-.8-.6-1.3-.5-.9-.6-1.5-.6-3.5 0-2.9-.5-2.9-1.4-.1-1.6 4.9.3 12.1 4.5 16.8 4.7 5.2 5.7 12.5 2.3 15.7-1.2 1.1-1.6 1.3-3.2 1.5-.9.1-2.3.3-3.1.4-2.2.3-4.9-.6-6.5-2.1-1.8-1.7-1.6-3.1 1.2-6.2 2.4-2.7 3.1-4.3 3.1-7.3 0-4-.9-5-6.1-6.9-7.4-2.7-9.9-5.9-7.5-9.9 1.2-2 1.4-2.7 1.4-5.3 0-3.3-.2-3.4-1.4-.4-1 2.5-1.2 2.7-3.9 5.4-3.1 3.1-3.7 4-3.7 6.2 0 3.1 2.2 5.7 5.9 7.1 7.4 2.7 8.3 4.5 4.6 8.9-4.4 5.3-5.1 6.6-5.1 9.7.1 3.8 3.4 8.3 7.7 10.3.9.4 2.3 1.1 3.1 1.5 1.7.8 5.4 4.5 6.4 6.3 2.5 4.8 3.8 11.6 2.8 14-2.1 5.1-8.7 4.4-11.6-1.3-.6-1.2-.6-1 0-6.9.8-7-3-12.4-9.6-13.7-1.4-.3-3.9 0-7.7.9-9.6 2.2-13.2-1.5-6.9-7.2 5.5-5 4.2-10.1-2.8-10.5-4-.2-4.1.7-.3 2.3 2.2.9 1.8 3.1-.9 4.9-.4.3-1.6 1.3-2.6 2.3-1.1 1-2.5 2.2-3.2 2.7-5.9 4.2-4.1 15.2 2.6 15.2 1.7 0 3.8-.6 6.9-2.1 5.4-2.5 9.7-1.1 12.1 3.8 1.8 3.6.6 6.9-4.4 11.8-4.8 4.7-5.7 9.4-2.9 15 1.2 2.4 6 5.2 14 8.5 1.3.5 2.6 1.1 2.8 1.3.2.2 1.9 1.3 3.6 2.5 1.8 1.2 3.8 2.6 4.5 3.2 4.9 4.3 3.6 12.8-1.9 12.8-3.1 0-3.9-.6-7.7-5.3-6-7.5-8-9-12.9-9.6-1.1-.1-2.7-.4-3.7-.6-1-.2-2-.4-2.3-.4-5.4-.1-8.9-4.1-7.7-8.9.9-3.7-1.3-7.9-4.1-7.9-1.2 0-2.4-.9-2.4-1.8 0-1.2-.4-1.6-.9-.8-1.1 1.5.2 3.9 2.7 5.2 2.4 1.2 2.6 2.9.8 6.2-4.1 7.4 1.6 14.4 12.8 15.8 4.4.5 6.8 2 9.7 5.9 3.1 4.1 1.2 6.8-2.6 3.6-1.7-1.4-2.6-1.2-2 .6.7 2.1 2.2 3.3 6.3 4.8 4.3 1.6 5.3 2.2 7.7 4.4 3.1 2.9 4 3.1 8 1.7 3-1.1 7.7-.7 11.6.8 3.2 1.3 4.8 1.2 6.5-.3.7-.6 2.2-1.9 3.4-2.8 2.8-2.2 18.4-17.9 22.9-23.1 1.9-2.2 3.9-4.4 4.4-4.8 1.7-1.6 3.7-4 2.8-3.5-1.9 1.2-6.2 4.6-8.3 6.6-.6.6-1.2 1-1.3 1-.1 0-1.7 1.2-3.5 2.8-8 7-16.8 11.6-23 12l-1.5.1 1.6-.4c6.1-1.5 13.2-5.7 19.3-11.5 1.5-1.4 3.9-3.5 5.2-4.6 3.1-2.6 5.4-4.7 4.1-3.8-1.6 1-4 2.9-6.6 5.1-5.7 4.8-16.3 9.9-16.3 7.9 0-.1.2-.3.5-.3 3 0 11.3-5.5 18.4-12.1.2-.2-.5-.1-1.7.3-13.7 4.2-28.8.9-39.1-8.6-2.3-2.1-1.7-2 2.4.8 13.8 9.2 25.6 10.4 40.2 4 3.5-1.5 3.1-1.5-2.5.1-5.2 1.6-9.3 2.2-12 1.9-2.5-.3-2.8-.6-.8-.8 4.2-.5 19.1-4.6 18.6-5.1-.1-.1-1 0-8.2 1.4-7.2 1.4-8.3 1.5-13.2 1.6-12.6.4-25.8-6-30.8-14.8-1.3-2.2-.8-2.2 1-.1 4.3 5.3 11.1 10.1 16.1 11.4 10.5 2.8 19.7 2.3 32.1-1.8 2.7-.9 2.5-1-1.3-.5-13.3 1.7-26.4-7-28.9-19.3-.9-4.5-.7-4.3 1 .6 2.3 6.6 9.7 12.7 18.4 15 3.8 1 19.6 1 25.9-.1l2-.3h-1.8c-1 0-3.4.1-5.3.3-15.9 1.3-26.2-6-32.9-23.3-2.6-6.7-4-8.9-8.4-12.4-2.7-2.2-2.8-2.4-1.1-1.6 3.7 1.6 7.5 6.3 10.4 12.8 7.9 17.7 15.6 23 32.9 22.3 5.6-.2 5.9-.4 3-1.4-2.4-.9-3.3-1.1-7.2-1.8-5.1-.8-9.1-2.4-10.8-4.2l-.8-.8 2.3 1.1c2.7 1.3 5.1 1.8 10.7 2.3 3.9.4 6.9.8 9 1.5 1.5.4 1.2.1-1.1-1.2-2.6-1.4-2.3-1.3-8.6-3.1-9.4-2.6-11.8-3.7-15.9-7-2.7-2.2-4.6-4.3-5.6-6.1-.8-1.5-.7-1.4 1.5 1.3 1.3 1.7 4.6 4.3 7.4 6 2.1 1.3 6.6 2.6 15.4 4.7 3.9.9 7.4 1.8 7.7 1.9 1.7.6.5-.2-2.4-1.6-2.5-1.3-4.1-1.8-7-2.6-8.1-2-13.4-5.6-20.5-13.7-2-2.3-4.7-8.5-5.1-11.6-.1-1.3-.1-1.2.7 1 1.8 5.3 3.3 7.5 8.6 12.9l4.8 4.8 3.5 1.7c4.1 2 4.8 2.3 10.4 3.5 11.2 2.5 14.8 5 14.8 10.3 0 2.7-.3 3.2-3.5 6a26.2 26.2 0 0 0-5 5.5c-1.2 1.7-4 5-6.3 7.3-5.2 5.4-7 7.5-16.5 18.2-5.1 5.8-7.7 8.4-13.8 13.7-3 2.6-7.2 6.5-9.3 8.6-7.8 7.6-15.2 9.7-22 6.3-2.9-1.5-4.2-1.8-8-2.1-6.9-.5-12.7-2.3-17.8-5.7-1.4-.9-.5.3 2 2.6 3.7 3.5 7.7 5.6 11.5 5.9 3.6.3 1.4 1.3-3 1.3-3.5 0-5.4-.5-9.7-2.8-1.3-.7-2.5-1.3-2.6-1.3-.8-.4.2 1 2.7 3.5 4.7 4.8 7 5.6 17.3 5.7 6.8.1 7.4.2 10.9 2.1 2.1 1.1 6.7 5.5 8.3 7.9 3.4 5.1 8 7.9 12.1 7.4l.9-.1-1-.7c-4.4-3.1-7.2-7.4-7-10.7.2-3.5 3-8.7 5.6-10.6.7-.5 2.4-1.9 3.8-3.2 3.7-3.3 6.6-5.7 10.8-8.9 2-1.5 4.9-3.9 6.4-5.3s2.9-2.7 3.1-2.8c.2-.1 2.2-2.4 4.5-5.1 4.7-5.6 7.4-8.2 11.9-11.6 1.8-1.3 3.3-2.5 3.4-2.6.8-.9 4-3 5.5-3.6l1.1-.4.7 1.9c1.8 4.8 2.4 8.3 2.4 13.2 0 5.2-.1 5.4-3.1 12.6-1.7 3.9-2.5 6.3-4.2 11.8-.5 1.5-.9 3.2-1.1 3.6-1 3.2-2.1 13.4-1.8 16.9.8 9 2.9 14.5 8.2 21.1 3 3.7 14 12.1 18.9 14.4 1 .5 2.6 1.4 3.7 2.1 2.1 1.4 2.4 1.5 2 .9-.1-.2-1.3-1-2.6-1.8-6.7-3.8-15.4-13.2-18.8-20.1-4.3-8.9-5.9-19.1-4.3-28.4.6-3.5 1.7-7.6 2.2-7.9.2-.1.2 0 .1.3-2.3 7.6-1.7 19.4 1.3 26.6 3.6 8.8 8.5 14.8 16.1 20 6.7 4.5 9.8 7.2 11.8 10.2 1.3 2 1.4 2 .9.7-1.7-4.7-5.9-10.7-11.8-16.7-4-4.1-6.8-7.8-6.3-8.3.1-.1 1.2.9 2.6 2.1 1.6 1.4 3.6 2.9 5.4 4 10.9 6.5 18 16.6 18 25.7 0 4.8-2 8.6-7.4 13.8-2.7 2.6-4 4.6-6.9 10.2-.9 1.8-1.9 3.6-2.2 4-3.7 5.2-4.2 14.3-1.1 19.7 2.6 4.5 5 6 10.2 6.1h2.9l2.4-1.3c3.1-1.7 5.3-3.2 6.5-4.4 1.7-1.7 5.4-9 5.8-11.4l.2-1-.7.8c-.4.4-1.1 1.6-1.7 2.7-1.6 3.1-2.5 4.4-3.1 4.4-1.8 0 .6-6.5 4.1-11.3 1.6-2.2 2.2-3.3 2-3.5-.5-.5-3.5 3.9-6.1 8.7-1.4 2.6-2.3 1.3-1.2-1.9.8-2.5 2.8-6.3 4.2-8.3 1.2-1.6 1.2-1.8.1-1.1-1.4.9-3.9 4.4-5.7 8.3-2 4.2-2.4 4.5-2.3 2.4 0-3.9 2.2-8.8 5.5-12.4.9-1 1.6-1.9 1.5-1.9-.5 0-2.4 1.8-4 4-3.1 4.1-4 5.9-6.4 12.8-1.1 3.3-1.9.5-1-3.9.7-3.7 2.7-8.2 5.2-11.7.9-1.3.9-1.3.2-.7-2.8 2.2-6.3 9.1-7.9 15.5-.3 1.2-.8 2.6-1.1 3-.4.6-.5 1-.4 1.8.2 1.4 0 1.4-.7 0-1.5-2.9-.2-10 2.8-16.1l.9-1.9-.8.9c-6 6.9-8.1 17.9-4.1 22.4l.6.6-.8-.6c-5.7-4-4.7-14.4 2.5-24.5 5.2-7.3 8-9.8 12.2-10.6 1.2-.2 3-.7 4.1-1 4.6-1.3 5.8-1.2 9.2.2 3.3 1.4 4.6 1.8 6.7 1.9 4.4.3 5.8 2.8 5.8 10.1 0 7.7-1.5 13.3-5.5 20.1-1.4 2.5-1.9 3.4-3.1 6.3-.4 1-.7 1.3-1 1.2-.3-.1-.4 0-.2.3.1.3-.6 2-2.1 5-2.1 4.2-3.2 7.2-5.3 14.2-.4 1.3-.9 3.1-1.2 3.9-.9 2.8-2.2 14.6-2 18.4a29 29 0 0 0 3.4 12.3c.9 1.7 2 3.8 2.5 4.7 2.4 4.6 7.8 9.6 11.1 10.5.5.1 1.6.5 2.5.8 1.9.7 4.9.8 6.9.1.8-.2 2.3-.4 3.6-.4 3 0 3.9-.3 6.4-2 1.3-.9 2.2-1.3 2.4-1.2 1.7 1.7 7.3-5.8 8.2-11 1.9-11.2 1.6-16.8-1.7-25.8-2.1-6-3.1-10.7-2.8-13.5.2-1.8-.1-2.7-.5-1.5-1.2 3.8-.8 10.6.9 18.6 1.5 6.6-1.5 1.2-3.4-6.1l-.9-3.5-.2 2.1c-.3 3.4.5 7.7 2.7 13.4 2.2 5.9 3.3 9.6 2.8 10.1-.1.1-1-1.2-2-3s-2.4-3.8-3-4.6c-6.7-7.9-8.6-21.7-3.9-28.8 2-3 3.3-3.9 7.9-5.5 1.2-.4 3-1 4-1.4 5.4-1.9 18.6-2.6 22.1-1.2 3.2 1.3 6.5 2.3 7.6 2.3 3.2 0 11.6 6.8 15.9 12.9 2.3 3.2 3.8 6.2 2 3.9-4-5-8.2-9.1-11.1-10.9-3.9-2.3-4.5-1.8-1.1 1.1 5.3 4.5 13.8 16.7 13.8 19.7 0 .1-1.2-1.4-2.6-3.4-4.7-6.5-6.7-8.8-10.4-11.9-2.9-2.4-3.7-2.6-1.7-.4 3.1 3.4 7.2 9.7 9.2 14 1.9 4.3 1.4 4-2.9-1.7-5.3-7-7.7-9.7-11.9-13.1-3.4-2.7-3.4-2.5-.3.9 5.3 5.8 10.3 13.8 12.4 19.8.7 2 .2 1.5-1.8-1.9-2.7-4.6-7.7-11.7-7.1-10.1.2.6 1.3 2.7 2.9 5.5 2.7 4.7 3.8 7.9 4.8 13.6.5 2.9.4 16.9-.2 24.2-.4 4.5-.3 5.1 1.8 11.8 2.9 9 6 13.6 10.7 15.6 1 .4 2.6 1.3 3.7 2.1 2.9 1.9 4.6 2.5 8 2.8 7.7.7 12.2.8 18.7.8 5.9 0 21.2-5.2 25.2-8.5.3-.2 1.5-1 2.7-1.7 1.2-.7 2.8-1.8 3.6-2.4.8-.6 2.3-1.6 3.3-2.1 11.3-6 16.8-13.2 21.1-27.4.6-1.8 1.1-3.5 1.2-3.8 1.7-3.2 1.3-11.7-.7-15.3-3.9-7.1-7.5-11.3-11.9-14.1-1.1-.7-2.4-1.7-2.9-2.1-.5-.5-1.2-1-1.5-1.2-.3-.2-2-1.5-3.8-2.8-1.8-1.4-4.8-3.5-6.8-4.8-8.5-5.7-10.7-8.9-14-20.8l-.8-3 .5-2.2c2.3-11.2 6.4-17.4 15.1-22.6 3.1-1.8 7.9-2.5 17.2-2.4 18.3.2 27-10.2 18.8-22.6-.4-.6-1.1-1.7-1.5-2.5-1.7-3.2-3.7-5.2-6.8-6.9-1-.5-3-1.9-4.4-3-3.2-2.5-6.6-4.5-11.5-6.6-2-.9-4.3-2-4.9-2.4-4.6-2.8-10-3.9-19.2-3.7-15.3.3-18.5-.2-21.7-3-3-2.7-2.6-7.7 1.1-11.2 3.3-3.2 9.3-7 11.4-7.3l1.3-.2-1.4.8c-11.6 6.6-14.9 16.9-5.8 18l1.6.2-1.3-1.1c-3.5-3.1-3.5-8.3.2-11.7 1.7-1.6 1.9-1.4.6.5-3.6 5.2-1.8 10.9 3.7 11.6l1.3.2-.9-.6c-2.6-1.6-3.8-3.5-3.7-5.7l.1-1.4.5 1.5c.5 1.7 2.4 3.7 4 4.2 1.8.6 1.9.2.2-1-2.8-2-2.5-5.9.7-10.3 1.5-2.1 4.1-3.3 14.8-7 5.8-2 8.2-3.7 10.2-6.9.9-1.4.9-1.5.8-.7-.7 3.3-2.3 5.5-5.4 7.1-2.7 1.4-2.6 1.8.3.9 4.6-1.4 6.5-3.6 6.9-7.9.2-2.6 1-1.6.8 1.1-.3 5-3.5 7.6-13 10.6-6.1 1.9-6.1 2.2.1 1 2.2-.4 5.5-1.1 7.4-1.4 8.4-1.6 12.4-6.9 10.1-13.1-1.3-3.5-6-8.3-12.4-12.6-7.5-5.1-9.1-6.8-10.1-10.7-1.3-5.1.8-9 7.7-14.3 3.4-2.6 4.4-4.4 4.4-7.6 0-2.8-1.3-3.4-1.6-.8-.4 3.2-2 5-7.6 8.5-9.4 5.9-12 8.7-12 12.9 0 4.9 1.9 7.2 11.2 13.3 7.3 4.8 8.1 5.7 9.1 9.4 1.3 4.8-2.7 7.4-14.4 9.2-12 1.8-20.4 3.9-24.7 6-10.6 5.3-15.2 10.9-15.9 19.4-.7 8.3 5.6 13 16.6 12.4 7-.4 11.7-.8 15.1-1.3 9.1-1.3 18-1.6 21.7-.8.6.1 2.5.4 4.2.6 3.5.5 4.3.8 7.2 3.2 5.8 4.8 7.4 8.4 5.7 13.2-1.4 3.9-6.8 6.7-14.5 7.5-2.3.2-2.3.2-.7-.5 2-.9 4.6-2.7 6.4-4.6 4.1-4.2 4.1-7.6 0-11.9-2.1-2.2-2.1-2.2-1.7-.5.9 4.4 0 7.9-3 10.8-1.7 1.7-1.8 1.4-.2-.7 3.3-4.3 3.2-9.7-.2-12.9-1.9-1.9-3.1-2-1.7-.2 4.6 5.8 1 13.5-7.3 15.8-1.4.4-1.2.1.8-1.1 5-3.1 7.7-8.3 6.1-11.6-1.2-2.5-4.1-4.8-6.1-4.7-.5 0-.4.1.3.5 1.2.8 2.7 3.1 3.2 4.8.7 2.7.3 3.2-.5.6-.7-2.1-2-3.6-3.9-4.6-2.1-1.1-2.3-.9-.7.5 2.6 2.4 3.5 6.8 1.7 8.7-1.3 1.4-5.4 2.6-11.9 3.7-5.1.8-8.9 1.6-10.6 2.3-.7.3-2.8.9-4.5 1.3-1.7.4-3.7 1-4.4 1.3-.7.3-2.1.9-3.2 1.3-5.4 2.1-6.6 3-10.4 6.8-2.9 2.9-3.5 3.8-4.7 6.4-.3.6-1 2.1-1.7 3.3-1.4 2.7-3.1 7.4-3.3 9.7-.3 3.1.9 11.4 1.9 12.3 0 0 0-1.7-.1-4-.2-4.9.2-7.6 1.5-11.4 1.6-4.8 2-4.6 1 .5-1.4 7.1-.9 14.4 1.1 19.2.8 1.8 3.5 6.4 4.3 7.3.4.4 1.3 1.4 1.9 2.1.6.7 1.6 1.6 2.2 2.1l1 .8-.9-1.7c-.5-.9-1.2-2.2-1.6-2.8-3.3-4.7-5.5-14.3-4.7-20 .7-5.2 4.3-12.9 6.9-14.9 1.3-1 1.3-.6.1 1.2-5.7 8.4-6.3 18.8-1.5 29.1.6 1.4 1.2 2.4 1.3 2.3.1-.1.5.4 1 1.2 2.7 4.8 3.9 5.2 2.1.8-2.7-6.8-4.2-16.6-3-19.8.3-.8.7-1.5.8-1.5s.2-.2.2-.4c0-.4 2.5-5.4 3.6-7.1 4.1-6.6 10.5-11.1 15.7-11.4l2.7-.1-2 1.1c-6.4 3.6-9 6.3-12 12.4-4.3 8.7-4.7 14.6-1.7 23.2 2.4 7 5 12.5 8 16.9 3.7 5.4 5.1 9.5 4.8 14-.2 4-1.1 5.6-6.4 10.8-5.5 5.4-8.1 10.9-7.8 16.4.2 4.3 3 7.1 6.8 6.7 1.6-.1 2 .5.6.9-4.3 1.2-8.6-2.1-10-7.5-.8-2.9.3-7.6 3-12.8 4.2-8.2 4.7-10.8 3.3-17-1-4.4-9.3-14.1-15.7-18.3-1.4-.9-3.5-2.3-4.7-3.1-1.2-.8-2.4-1.6-2.7-1.9-.3-.3-1.4-1.2-2.5-2s-3.6-3-5.6-5c-2-1.9-4.9-4.7-6.5-6.1-5.2-4.8-7.3-9-8.1-15.6-.2-2.2.3-10.1.8-11.4.8-2.1 3.6-7.4 6.1-11.2.2-.4.6-1 .8-1.3.4-.6 4-6.5 4.8-7.8 3.2-5 4.4-10.4 3.3-14.2-.2-.8-.6-2.1-.7-2.9-.6-3.7-5.1-9.1-10-12.1-1.2-.7-2.8-1.7-3.6-2.2-2.8-1.8-6.5-2.6-13.6-3.1-8.7-.6-12-.2-24.7 2.9-4.7 1.2-8.7 2-11.5 2.3-1.5.2-3.4.4-4.2.5-8.2 1-24.1-1.5-30-4.5-2.2-1.1-3.6-2.1-2.6-1.7 2.6 1 4.8 1.3 9.1 1.1 2.3-.1 7-.3 10.3-.4l6-.2-1.6-.5c-.9-.3-1.8-.6-2-.6-.2-.1-3.8-.2-8-.4-8.3-.2-11-.6-16-2.2-1.7-.5-4-1.9-4-2.3 0-.1.8.1 1.8.4 3.7 1.4 7.8 1.8 17.9 1.8h9.2l3.2.9c4.8 1.3 6.4 1.8 9.5 3.3 4.4 2.1 7.1 1.5 3.4-.7-4.4-2.7-6.6-3.7-10.3-4.6l-3.7-.9h-10c-13.4 0-16.5-.5-21.2-3.3-8-4.8-13.2-15.3-10.3-20.9 3.5-6.8 10.7-12.8 19.4-16.4l2.1-.9.2-1.4c.1-.8.2-3.2.1-5.4-.3-9.8 3.7-20.6 8-21.4.5-.1 1-.3 1.1-.4.4-.7.6-.1.2 1-.4 1.2-.7 3.8-1.1 7.3-.4 4.1.7 9.5 2.1 10.3 1 .5 8.9.6 11.7.1.8-.1 2.6-.4 4.1-.7 2.9-.5 3.4-.6 7.7-2.5 17.3-7.5 26.7-19.3 26.7-33.7 0-9.3-8.7-20.7-17.6-23.2-1.1-.3-3.4-1.3-5.2-2.4-14.1-7.5-19.6-12.5-21.5-19-.3-.9-.6-1.9-.7-2.4-.1-.4-.2-1.8-.2-3.1 0-2.9-.6-2.4-1.3 1-.8 4.1 1.2 10.1 4.8 14.1.8.9.3 1-.8.2-4.7-3.7-7.4-11.1-6-16.1.7-2.5.6-2.6-.9-.6-4.9 6.6-.9 15.4 9.3 20.6 1.5.8 4.1 2.1 5.9 3.1 1.8.9 5.3 2.6 7.8 3.7 6.5 2.8 9.3 4.4 12.1 6.9.5.5 1.3 1 1.7 1.2 2.7 1.2 6.6 9 7.1 14.1.4 3.6-.2 5.4-.7 2.1-.4-2.8-2.7-8.4-4.4-10.8-1.3-1.8-4.6-5.3-5.5-5.8-4.1-2.5-5.5-3.2-7.8-4.1C203.2 75.1 193.4 63.9 202 53c3.6-4.6 6.7-6.9 15.3-11.3 7.2-3.7 9.1-5.3 11.2-9.4 3.4-6.4-1.1-14.8-8.2-15.4-5.6-.5-7.1-.5-8.9 0-1 .2-2.4.4-3.1.4-.7 0-2.3.3-3.6.7-1.3.4-3 .8-3.6.9-2.8.6-9.7 3.8-8.8 4 .6.1.6.2.2.5-1.5 1.2-2 4.4-.9 5.7 2.5 3.2 12.8 1.4 12.8-2.3 0-.3-.1-.5-.2-.5-4.4 2.2-9.7 2.8-9.7 1.1 0-1.9 3.2-3.4 8.6-3.8 2.9-.3 3-.2 7.4.8 1.2.3 1.7.9 1.5 1.9-.2 1.1 0 1.1 1.4.1 4.2-3.1 2.2-6.7-3.8-6.7-1 0-1.4-.1-1.3-.3.2-.4 4.8-.2 6.3.3 3.7 1.1 3.8 4.2.2 7.7-2 2-8.8 6.2-11.3 7-1.9.6-7.3 3.3-7.1 3.6.3.3 8.9-2.9 12.9-4.8 4.3-2.1 8.3-5.3 9.7-7.7 1.5-2.6 1.4-1.1 0 1.9-2.4 5-14.4 11-29 14.5-3.8.9-4.9 1.3-10.3 3.4-1.5.6-2.8 1-2.9 1-1.4 0-7.2 4.1-10.1 7.1-6.2 6.5-8.2 12.4-6.1 18.1.3.9.8 2.3 1.1 3.1 1.2 3.4 2.4 5.4 4.6 7.5 2.5 2.4 2.9 2.8 4.8 4.7 1 1 2.3 1.9 3.9 2.7 1.3.7 3.1 1.6 3.9 2.2 2.7 1.7 6.4 3.2 8.6 3.6 1.4.2 3.5 1.1 7 2.7 3.5 1.7 6.1 2.7 6.1 2.5 0-.4-4.9-3.5-8.8-5.5-8.2-4.2-16.4-11.7-18.3-16.8-.2-.6-.3-.7 2.7 2.8 2.2 2.6 4.7 4.8 7 6.4.5.3 2 1.4 3.2 2.3 2.5 1.8 4.1 2.7 6.8 3.7 1 .4 2.5 1.1 3.3 1.5 1.8 1 1.6.8-1.4-1.4-4.1-3-3.4-2.8 3.8.8 1.7.9 3.1 1.5 3.1 1.3 0-.5-4.2-3.7-8.5-6.3-7.2-4.5-8.8-6-16-14.2-6.6-7.5-4.9-16.7 4.2-23.2l.9-.7-1 1.3c-.6.7-1.4 1.9-1.9 2.7-.5.7-1.2 1.7-1.6 2.1-4.8 5.4-2.9 13 5 20.5 2.8 2.7 6.9 6 8.9 7.2 9.8 6 11.1 6.9 12.8 9.2 4.6 6 3.3 13-2.5 13.8-1 .1-2 .5-2.7 1-2.3 1.5-7.7 3.5-11.9 4.4-2.9.6-16.8.8-17.8.2-.7-.4-10.3-.5-12-.2l-1.1.2.8-.4c3.4-1.9 4.3-4.7 2.5-8.1-.4-.9-.8-1.8-.8-2 0-.6-2.1-2.9-3.7-4-2.9-2.1-6.4-2.9-16-3.4-7.9-.4-11.9-2-18.6-7.3-5.4-4.3-7.3-6.5-8.3-10.1-.3-1.1-.8-2.6-1.1-3.5-2.2-7.2-1.2-12.2 3.4-18.1 9.7-12.2 10-17.3 1.5-25.3-5.2-4.9-10.7-6.9-19.1-7-8.9-.1-11.6-2.5-8.3-7.4 2.1-3.1 1.4-5.5-1.6-6-.7.2-1 .2-1 .5m-34.8 9.3c-2.4 1-2 4.3.5 5 1.4.4 3.3-1.6 2.9-3-.3-1.5-2.1-2.6-3.4-2m78.8 8.3c-.3.3-.5.8-.5 1.1 0 .3.2.8.5 1.1.3.3.8.5 1.1.5s.8-.2 1.1-.5c.3-.3.5-.8.5-1.1 0-.3-.2-.8-.5-1.1-.3-.3-.8-.5-1.1-.5s-.8.2-1.1.5m-84.2 16c-2.1 1.1-1.3 4.5 1.1 4.5 1.1 0 2.3-1.3 2.3-2.4 0-1.6-2-2.8-3.4-2.1m86.1 2.1c-1 .9-.3 2.7 1 2.7.3 0 .8-.2 1.1-.5 1.5-1.5-.5-3.6-2.1-2.2M122 55.4c-2.3 1.6-1.1 5.2 1.7 5.2 2.7 0 3.8-3.7 1.6-5.2-.8-.6-2.5-.6-3.3 0M195.8 73c1.4 2 2.8 3.3 4.8 4.4a115 115 0 0 0 12.1 5.4c4.7 1.6 15 6.9 17.8 9.1 1.4 1.1 2.1 2.1.8 1.2-2.3-1.6-10.5-5.2-13.4-5.8-1-.2-2.7-.7-3.9-1-1.1-.4-3.2-1-4.5-1.4-3-.9-6-2.5-9.7-5.1-4.8-3.5-5.1-3.9-6.6-8.9-1.1-3.9-1.1-4.4.1-2 .7 1.2 1.8 3 2.5 4.1m162.6-2.5c-.3.7.6 1.4 1.2 1 .3-.2.5-.5.5-.8-.1-.6-1.5-.8-1.7-.2m-232.5 1.3c-1.2 1.2-1.5 2.4-.8 4 1.1 2.4 4.4 2.7 5.8.5 2.4-3.4-2.1-7.3-5-4.5m211.9 15.8c-.8.5-1.3 2.1-.9 2.8 1 1.8 3.2 1.1 3.2-1 0-1.7-1.2-2.6-2.3-1.8m-37.4 7.2c0 .3 1.1.7 1.4.5.2-.1.1-.3-.2-.4-.6-.2-1.2-.3-1.2-.1m76.4 14.8c-1.3.5-1.5 2.1-.5 3.1 1.7 1.7 4.4-.7 2.9-2.5-.6-.7-1.6-.9-2.4-.6m-98.3 2.2c-.8 1.4 1.3 2.6 2.1 1.3.3-.5.3-.7-.1-1.2-.5-.9-1.6-.9-2-.1m-53.6 1.1c.4.4 1.3 1.6 1.9 2.7l1.1 2-.3 2.2c-1.1 7.8-5.6 13.3-12.1 14.7-1.9.4-1.8.6-2-2.9-.3-6.3 1.3-11.9 4.9-16.8 2.2-3.1 4.6-3.7 6.5-1.9m74.7 4c-.9 1-.2 2.5 1.2 2.5 1 0 1.5-.4 1.5-1.4 0-1.3-1.9-2.1-2.7-1.1m-11.6 8.7c-1.1 1.2-.2 3 1.6 3 1 0 1.5-.4 1.5-1.3 0-1.9-1.9-3-3.1-1.7m-30.7 2.7c-2.7 1.4-3.9 3.9-3.3 7.1.9 5.4 6.9 6.5 12.2 2.2 3.7-3 7.1-2.7 7.1.6 0 2.4-2.1 3.9-6 4.4-9.5 1.2-14.1 6.3-12.3 13.3 1 3.7.4 5.6-1.9 5.6-2.2 0-2.8-2.5-1.2-4.7l.7-.9h-.6c-1.2 0-3.1 2.2-4.1 4.8-1.6 4.1-3.8 4.8-8.9 2.5-4.4-2-9.7-1.9-13.6.2-2.4 1.3-1.7 1.7 1.5.9 3.7-1 7 0 11.7 3.5 2 1.5 3.8 1.5 8.3.3 2.5-.7 3-.7 7.1-.7 7.5.1 8.7-.5 10.1-4.6l.5-1.4.3 1.5c.6 2.8-1.8 6.4-4.9 7.3-1.7.5-3.6 1.6-3.1 1.8 9.2 2.7 14.7-.1 14.8-7.5V162l-1.7-3.5c-1.3-2.8-1.6-3.5-1.2-3.6.3-.1.4-.2.2-.5-.8-1.9-.1-5 1.5-6.7 1.2-1.2 1.7-1.4 4.5-2.1 6.8-1.5 9.6-4.9 8.8-10.4-1.2-8.3-9.2-9.8-17-3.2-4.9 4.1-7.8 4.6-7.8 1.2 0-.7.2-1.2.7-1.7 1-1 1.3-.9 1.1.5-.2 1.3 0 1.6.9 1.3.9-.3 1.4-1.7 1.4-3.6-.1-1.7-3.4-2.7-5.8-1.4m74.1 7c-.8.5-1.2 2.2-.9 3.1.8 2.2 4 1.3 4-1.1 0-1.9-1.6-3-3.1-2m33 7.5c-.7.9-.7 1.3.1 2.1 1.2 1.2 2.8.5 2.8-1.2 0-1.5-1.9-2.1-2.9-.9m-221.6 1.9c-2.1 2.3-6 9.7-8.2 15.5-1.2 3.2-3.7 8.3-4 8-.1-.1.2-.8.5-1.5.3-.8 1-3 1.6-4.9 2.2-7.2 4.1-12.2 5.9-15.3 1.2-2.1.8-2-1.2.4-2.5 3-6.3 10.2-6.3 12.1 0 .4-2.3 5.1-2.8 5.7l-.4.5.1-.5c2.3-8.9 2.9-11.3 3.5-12.7.6-1.6.6-2-.1-1.2-.2.2-.3.7-.3 1 0 .3-.5 1.4-1.2 2.4-.7 1.1-2.1 3.4-2.9 5.1-1.1 2.2-1.6 3-1.6 2.5 0-.9 1-3.9 2-5.8.8-1.7.8-1.6-1.2.9-2.6 3.4-5.9 7.1-9.2 10.5-3.6 3.6-3.5 3.5-2.9 3.5 1.4 0 3.8 3 3.8 4.6 0 3.9-5.4 8.4-10.2 8.4-1.1 0-.9.5.7 1.2 4.8 2.3 12.6 1.6 17.4-1.6 3.1-2 5-5 6.8-10.6.6-1.8 1.3-3.9 1.7-4.5.3-.7 1.4-3.3 2.4-5.9 2.7-7.1 2.9-7.3 6.2-11.6l1.9-2.4.1-2.1c-.1-3.9-.1-3.9-2.1-1.7m143.7 1.7c-.9.7-.5 2 .7 2.1 1.5.2 2.1-1.4.9-2.2-.8-.5-.8-.5-1.6.1m36.4 4.5c-1.7.3-2.2 2.6-.8 4 1.8 1.8 4.4 0 3.6-2.4-.2-.8-1.7-1.9-2.2-1.7 0-.1-.3 0-.6.1m-47.6 3.7c-1.6 1.6-.7 4.1 1.6 4.1 2 0 3.1-2.4 1.8-3.9-.9-1.1-2.4-1.2-3.4-.2m-88.9 5.9c-1.6.9-4.6 4-4.6 4.8 0 1.3 2.6 5.8 6.1 10.5 5.5 7.4 6.1 7.9 8 7 .6-.3 1.9-.9 2.9-1.2 1-.4 3.1-1.4 4.7-2.2 19.7-10.5 20.5-10.7 27.6-4.1 7.8 7.2 7.3 6.9 11.2 4.9 5.4-2.8 15.1-3.6 21.2-1.7 2.5.8-2-2-5.4-3.3-4.8-1.9-6.9-1.7-10.8.9-2 1.3-2.6 1.6-2.6 1.2 0-.8 5.5-4.8 7.3-5.3.4-.1.7-.3.7-.4 0-.1.4-.4.9-.5 1.4-.5 1.4-.7-.2-1.1-2.3-.5-5.7.6-8.3 2.6-2.9 2.3-5.3 1.9-8.4-1.2-4-4-4.8-4.4-9.5-4.4-4.1 0-6.4.4-9.4 1.4-1.3.4-4.4 1.4-6.9 2.1-5 1.5-9.8 3.2-11.5 4.1-.6.3-1.1.5-1.1.4 0-.1-.6-.5-1.3-.9-3.3-1.7-7.6-7.6-8.9-12.3-.5-1.9-.6-1.9-1.7-1.3m144.5 14.1c-2 1-1.8 4.3.4 4.4 3.4.2 4.1-3.6.8-4.7-.2-.1-.8.1-1.2.3m-209.6 32.6c-4.4 2.4-4.1 9.4.5 10.9 5.5 1.8 9.1-7.1 4.3-10.5-1.1-.7-3.7-.9-4.8-.4m68.8 7.2c2.7 2 3.4 2.4 12.1 6.6 9.1 4.4 15.4 9.9 19.6 17.3 4 6.8 4.7 8.4 5.9 11.6 1.1 3 1.2 2.7.2-.8-1.4-5.1-2.6-8.5-4.7-12.6-2.2-4.5-2.3-4.8-1.7-4.5 1.4.6 5.7 7.6 8 13.2 1 2.4 1.2 2.2.6-.4-.2-.9-.4-2.1-.4-2.6 0-3-1.9-7.2-4.8-10.7-.8-1-4-4.6-4.8-5.4-1-1-.7-.9 2.2.6 7.7 4.1 11.1 8.5 14.3 18.6.7 2.3.8 3 .8 5.7 0 1.7.1 4.3.3 5.8.3 3.2 0 7.6-.8 12.1-.7 3.8-1.1 4.7-3.6 10.4-.3.7-.9 2.1-1.3 3.1-.8 2.1-3.3 6.5-5.9 10.7a40.9 40.9 0 0 0-2.5 4.4c-.3.7-.9 2-1.3 2.9-3.1 6.1-3.1 15.5.1 21.4.7 1.3 2.1 4 3.2 6 2.2 4.1 2.4 4.5 5.4 8 4.6 5.5 5.4 7 5.3 10.9 0 1.6-.7 4.3-.8 3-.1-2.4-2.3-5.7-6.3-9.7-10.6-10.6-12.3-13.5-12.8-23-.1-1.7-.3-3.1-.4-3.2-.9-.6.7 18.5 1.9 22.6 1.2 3.9.6 4.1-1.2.4-1.7-3.4-2.4-5.3-3-8.4-.8-3.8-.8-4.7-.8-11.7 0-6.3-.2-7.8-.8-5.7-1.6 5.9-2.4 10.3-2.7 14.6-.2 2.2-.3 4-.4 4.1-.2.2-.4-.2-.6-1.9-.1-.9-.4-2.5-.5-3.5-.5-3.2-.1-10.5.8-14 .4-1.7.8-3.1.8-3.2 0-1.3-4.4 9.4-6.3 15.4-1.1 3.5-2.7 11.3-2.7 13.4 0 .6-.1 1.3-.3 1.5-.4.5-.1-6.8.3-8.7.2-.7.5-2.5.7-4 .5-3.3 1.7-8 2.6-10.3.4-.9 1-2.8 1.5-4.1 1.5-4.2 2.4-6.3 4.3-9.9 13.1-24 16.3-35.4 13.9-48.2-2.1-10.9-10.8-21.9-22.9-28.8-7.1-4-12.2-8.1-13.8-11.1l-.5-.9.6.6c.3.2 1.8 1.4 3.2 2.4m-114.2-1.7c-1.7.6-2.2 2.8-.9 3.8 1.5 1.2 3.6.3 3.6-1.6-.1-1.4-1.5-2.6-2.7-2.2m180.2 4.3c1 .4 2.3 1 3.1 1.2 2.8.9 6.6 5.1 7.9 8.6 1.6 4.2 1.8 7.8.7 14.3-1.1 6.4-1 6.8.6 2 4.3-13.5 4.2-20.3-.7-25.7-1.4-1.5-1.3-1.8.1-1 6.1 3.1 8.2 10.5 6.2 21.3-.4 2.1-1.9 7-2.5 8.1-.6 1.2-3.5 16-3.6 19.1-.3 4.6.4 11.6 1.3 14 1.4 3.6 3.5 7.4 5.2 9.2l.7.8-.6-1.1c-.5-.9-.3-.8 1.2.9 2 2.2 5.3 5.6 6.1 6.2.3.2 1.5 1.2 2.6 2.1 5.8 4.6 8.4 8.1 11.7 15.8.7 1.6 2.2 4.8 3.4 7.2l2.2 4.4-.1 3.5c-.1 4.1-1.7 10.8-3.6 15.3-1 2.5-1.9 5.9-1.9 7.4 0 .4-.3 1.6-.6 2.7-2.8 9.5 2.7 26.9 9.7 31.3 1.3.8.6.7-1.2-.2-4.8-2.4-7.9-5.8-10.4-11.4-.4-1-1-2.2-1.2-2.6-2.8-6.1-2.4-14.9.9-22.7 2.7-6.2 3.5-8.4 4-10.3 2-7.7 1.2-14.7-2.7-23.5-.7-1.6-1.7-3.9-2.1-5.1-1.3-3.3-7.5-9.5-13.2-13.2-3.4-2.2-4.2-2.8-6-4.5-8.1-7.5-12.3-18.6-12.3-32.4 0-5.3.1-7 .6-9.9 2.2-13.2 2-19.3-.6-24.3-.4-.7-.7-1.5-.7-1.8 0-.8-2.2-3.5-4.2-5-1.9-1.5-2.5-2-2.1-1.8.3.2 1.2.6 2.1 1.1m-157.4 3.2c-4.2 2.7-.5 9.1 4 6.9 3.6-1.7 2.2-7.4-1.9-7.4-.9 0-1.6.2-2.1.5m34.7 7c-.6.6-.8 1-.8 2 0 3.1 4 3.9 5.2 1 1.3-2.7-2.2-5.1-4.4-3m-20.7 3.6c-1.6.8-1.7 2.9-.3 3.9 2.2 1.6 4.9-1.4 3.1-3.4-.8-.8-1.7-1-2.8-.5m-45.5 2.5c-1.5 1.2-1.5 3.1.1 3.9 1.1.6 1.8.5 2.7-.4 2-2-.6-5.2-2.8-3.5m107 1.3c.7 1 1.3 1.5.9.7-.1-.3-.5-.7-.9-1l-.6-.5.6.8m-17.7 6.4c-2.3.4-1.8 4.4.6 4.3 1.3 0 2.4-1.6 2-2.9-.2-.7-1.5-1.7-1.9-1.6-.1.1-.4.1-.7.2m-28.5.9c-1.4.8-1.4 3.3.1 4.1 1.1.6 1.7.5 2.6-.3 2.3-1.8-.2-5.2-2.7-3.8m-31.9 2.3a2.5 2.5 0 0 0 1.8 4.3c.7 0 1.2-.2 1.8-.8 1.6-1.6.5-4.3-1.8-4.3-.8.1-1.2.3-1.8.8m11.6.9c-.7.7-.2 2.1.8 2.1.5 0 1.3-.8 1.3-1.3-.1-.8-1.5-1.4-2.1-.8m-28.9 14.3c-1.8 1.8-.5 4.6 2 4.6 1 0 1.4-.1 2-.8 1.8-1.8.5-4.6-2-4.6-1 .1-1.4.2-2 .8m67.5 1.7c-.6.6-.7 1.3-.1 2.1.5.7 1.7.8 2.3.1 1.4-1.6-.8-3.7-2.2-2.2m256.3 8c-1.8.9-1 3.4 1 3.4 1.3 0 2.1-1.9 1.3-3-.5-.5-1.6-.7-2.3-.4m-12.5 1.2c-.4.4-.7.9-.7 1.2 0 1.5 2.5 2.5 3.3 1.3 1.5-2.1-.8-4.3-2.6-2.5m-28.8 8.2c-1.6.8-1.9 2.9-.7 4.1 2.4 2.4 6.1-1 3.8-3.5-.8-.9-2-1.1-3.1-.6m-214.9 1.4c-2.3 1.1-1.5 4.6 1 4.6 2.7 0 3.5-3.5 1.1-4.7-1-.4-1.1-.4-2.1.1m233.2 1c-.8.4-1.4 1.6-1.2 2.4.7 2.6 4.4 2.3 4.4-.4 0-1.8-1.7-2.8-3.2-2m-255.1 7.5c-.8.8-.8 1.5-.1 2.4 1 1.2 3.2.4 3.2-1.2 0-.7-1.1-1.9-1.9-1.9-.3 0-.8.3-1.2.7m267.5 2.5c-.6.6-.6.9.1 1.5 1.1 1 2.6-.6 1.5-1.7-.4-.4-1.1-.4-1.6.2m-24.5 5.3c-1.2 1.3-.9 3.7.4 4.7 1.7 1.2 4.2-.2 4.2-2.2 0-2.2-3.3-3.9-4.6-2.5m-225.6 12.5c-.5.5-.5.8-.2 1.5.4.7 1.2.7 1.7-.1.8-1.1-.6-2.4-1.5-1.4m25.9.7c-5.2 1.9-4.2 10.6 1.3 10.6 3.5 0 5.9-2.9 5.2-6.4-.7-3.3-3.6-5.2-6.5-4.2m-27.7 22.1c-.6.6-.7 1-.1 1.8.8 1.1 2.8.5 2.8-.8 0-.6-1-1.5-1.6-1.5-.3-.1-.8.2-1.1.5m118.2 13.4c-.9.5-1.7 2.1-1.5 3.2.6 3 4.7 3.2 5.7.3.9-2.5-1.8-4.7-4.2-3.5m-4.3 22.5c-1 1-1.2 1.9-.8 3 1 2.5 4.2 2.5 5.2.1 1.2-2.8-2.3-5.2-4.4-3.1"/></svg>