<?xml version="1.0" encoding="utf-8"?>
<!-- Generator: Adobe Illustrator 22.1.0, SVG Export Plug-In . SVG Version: 6.00 Build 0)  -->
<svg version="1.1" id="svg" xmlns="http://www.w3.org/2000/svg" xmlns:xlink="http://www.w3.org/1999/xlink" x="0px" y="0px"
	 viewBox="0 0 410 410" style="enable-background:new 0 0 410 410;" xml:space="preserve">
<g id="svgg">
	<path id="path0" d="M86.5,11.5c0,0.2,0.2,0.6,0.5,0.9c1,1.1,0.9,2-0.3,3.6c-4.2,5.5-1.3,11.4,6.3,13.1c4.9,1.1,6,1.8,9.4,5.8
		c4.1,5,3.6,8.2-1.7,10.7l-2.3,1.1l-1.9-0.3c-2.5-0.4-8.2-4.2-8.2-5.5c0-0.2-0.3-0.8-0.6-1.3c-0.5-0.9-0.6-1.5-0.6-3.5
		c0-2.9-0.5-2.9-1.4-0.1c-1.6,4.9,0.3,12.1,4.5,16.8c4.7,5.2,5.7,12.5,2.3,15.7c-1.2,1.1-1.6,1.3-3.2,1.5c-0.9,0.1-2.3,0.3-3.1,0.4
		c-2.2,0.3-4.9-0.6-6.5-2.1c-1.8-1.7-1.6-3.1,1.2-6.2c2.4-2.7,3.1-4.3,3.1-7.3c0-4-0.9-5-6.1-6.9C70.5,45.2,68,42,70.4,38
		c1.2-2,1.4-2.7,1.4-5.3c0-3.3-0.2-3.4-1.4-0.4c-1,2.5-1.2,2.7-3.9,5.4c-3.1,3.1-3.7,4-3.7,6.2c0,3.1,2.2,5.7,5.9,7.1
		c7.4,2.7,8.3,4.5,4.6,8.9c-4.4,5.3-5.1,6.6-5.1,9.7c0.1,3.8,3.4,8.3,7.7,10.3c0.9,0.4,2.3,1.1,3.1,1.5c1.7,0.8,5.4,4.5,6.4,6.3
		c2.5,4.8,3.8,11.6,2.8,14c-2.1,5.1-8.7,4.4-11.6-1.3c-0.6-1.2-0.6-1,0-6.9c0.8-7-3-12.4-9.6-13.7c-1.4-0.3-3.9,0-7.7,0.9
		c-9.6,2.2-13.2-1.5-6.9-7.2c5.5-5,4.2-10.1-2.8-10.5c-4-0.2-4.1,0.7-0.3,2.3c2.2,0.9,1.8,3.1-0.9,4.9c-0.4,0.3-1.6,1.3-2.6,2.3
		c-1.1,1-2.5,2.2-3.2,2.7c-5.9,4.2-4.1,15.2,2.6,15.2c1.7,0,3.8-0.6,6.9-2.1c5.4-2.5,9.7-1.1,12.1,3.8c1.8,3.6,0.6,6.9-4.4,11.8
		c-4.8,4.7-5.7,9.4-2.9,15c1.2,2.4,6,5.2,14,8.5c1.3,0.5,2.6,1.1,2.8,1.3c0.2,0.2,1.9,1.3,3.6,2.5c1.8,1.2,3.8,2.6,4.5,3.2
		c4.9,4.3,3.6,12.8-1.9,12.8c-3.1,0-3.9-0.6-7.7-5.3c-6-7.5-8-9-12.9-9.6c-1.1-0.1-2.7-0.4-3.7-0.6c-1-0.2-2-0.4-2.3-0.4
		c-5.4-0.1-8.9-4.1-7.7-8.9c0.9-3.7-1.3-7.9-4.1-7.9c-1.2,0-2.4-0.9-2.4-1.8c0-1.2-0.4-1.6-0.9-0.8c-1.1,1.5,0.2,3.9,2.7,5.2
		c2.4,1.2,2.6,2.9,0.8,6.2c-4.1,7.4,1.6,14.4,12.8,15.8c4.4,0.5,6.8,2,9.7,5.9c3.1,4.1,1.2,6.8-2.6,3.6c-1.7-1.4-2.6-1.2-2,0.6
		c0.7,2.1,2.2,3.3,6.3,4.8c4.3,1.6,5.3,2.2,7.7,4.4c3.1,2.9,4,3.1,8,1.7c3-1.1,7.7-0.7,11.6,0.8c3.2,1.3,4.8,1.2,6.5-0.3
		c0.7-0.6,2.2-1.9,3.4-2.8c2.8-2.2,18.4-17.9,22.9-23.1c1.9-2.2,3.9-4.4,4.4-4.8c1.7-1.6,3.7-4,2.8-3.5c-1.9,1.2-6.2,4.6-8.3,6.6
		c-0.6,0.6-1.2,1-1.3,1c-0.1,0-1.7,1.2-3.5,2.8c-8,7-16.8,11.6-23,12l-1.5,0.1l1.6-0.4c6.1-1.5,13.2-5.7,19.3-11.5
		c1.5-1.4,3.9-3.5,5.2-4.6c3.1-2.6,5.4-4.7,4.1-3.8c-1.6,1-4,2.9-6.6,5.1c-5.7,4.8-16.3,9.9-16.3,7.9c0-0.1,0.2-0.3,0.5-0.3
		c3,0,11.3-5.5,18.4-12.1c0.2-0.2-0.5-0.1-1.7,0.3c-13.7,4.2-28.8,0.9-39.1-8.6c-2.3-2.1-1.7-2,2.4,0.8c13.8,9.2,25.6,10.4,40.2,4
		c3.5-1.5,3.1-1.5-2.5,0.1c-5.2,1.6-9.3,2.2-12,1.9c-2.5-0.3-2.8-0.6-0.8-0.8c4.2-0.5,19.1-4.6,18.6-5.1c-0.1-0.1-1,0-8.2,1.4
		c-7.2,1.4-8.3,1.5-13.2,1.6c-12.6,0.4-25.8-6-30.8-14.8c-1.3-2.2-0.8-2.2,1-0.1c4.3,5.3,11.1,10.1,16.1,11.4
		c10.5,2.8,19.7,2.3,32.1-1.8c2.7-0.9,2.5-1-1.3-0.5c-13.3,1.7-26.4-7-28.9-19.3c-0.9-4.5-0.7-4.3,1,0.6c2.3,6.6,9.7,12.7,18.4,15
		c3.8,1,19.6,1,25.9-0.1l2-0.3l-1.8,0c-1,0-3.4,0.1-5.3,0.3c-15.9,1.3-26.2-6-32.9-23.3c-2.6-6.7-4-8.9-8.4-12.4
		c-2.7-2.2-2.8-2.4-1.1-1.6c3.7,1.6,7.5,6.3,10.4,12.8c7.9,17.7,15.6,23,32.9,22.3c5.6-0.2,5.9-0.4,3-1.4c-2.4-0.9-3.3-1.1-7.2-1.8
		c-5.1-0.8-9.1-2.4-10.8-4.2l-0.8-0.8l2.3,1.1c2.7,1.3,5.1,1.8,10.7,2.3c3.9,0.4,6.9,0.8,9,1.5c1.5,0.4,1.2,0.1-1.1-1.2
		c-2.6-1.4-2.3-1.3-8.6-3.1c-9.4-2.6-11.8-3.7-15.9-7c-2.7-2.2-4.6-4.3-5.6-6.1c-0.8-1.5-0.7-1.4,1.5,1.3c1.3,1.7,4.6,4.3,7.4,6
		c2.1,1.3,6.6,2.6,15.4,4.7c3.9,0.9,7.4,1.8,7.7,1.9c1.7,0.6,0.5-0.2-2.4-1.6c-2.5-1.3-4.1-1.8-7-2.6c-8.1-2-13.4-5.6-20.5-13.7
		c-2-2.3-4.7-8.5-5.1-11.6c-0.1-1.3-0.1-1.2,0.7,1c1.8,5.3,3.3,7.5,8.6,12.9l4.8,4.8l3.5,1.7c4.1,2,4.8,2.3,10.4,3.5
		c11.2,2.5,14.8,5,14.8,10.3c0,2.7-0.3,3.2-3.5,6c-2.1,1.8-3.4,3.2-5,5.5c-1.2,1.7-4,5-6.3,7.3c-5.2,5.4-7,7.5-16.5,18.2
		c-5.1,5.8-7.7,8.4-13.8,13.7c-3,2.6-7.2,6.5-9.3,8.6c-7.8,7.6-15.2,9.7-22,6.3c-2.9-1.5-4.2-1.8-8-2.1c-6.9-0.5-12.7-2.3-17.8-5.7
		c-1.4-0.9-0.5,0.3,2,2.6c3.7,3.5,7.7,5.6,11.5,5.9c3.6,0.3,1.4,1.3-3,1.3c-3.5,0-5.4-0.5-9.7-2.8c-1.3-0.7-2.5-1.3-2.6-1.3
		c-0.8-0.4,0.2,1,2.7,3.5c4.7,4.8,7,5.6,17.3,5.7c6.8,0.1,7.4,0.2,10.9,2.1c2.1,1.1,6.7,5.5,8.3,7.9c3.4,5.1,8,7.9,12.1,7.4l0.9-0.1
		l-1-0.7c-4.4-3.1-7.2-7.4-7-10.7c0.2-3.5,3-8.7,5.6-10.6c0.7-0.5,2.4-1.9,3.8-3.2c3.7-3.3,6.6-5.7,10.8-8.9c2-1.5,4.9-3.9,6.4-5.3
		c1.5-1.4,2.9-2.7,3.1-2.8c0.2-0.1,2.2-2.4,4.5-5.1c4.7-5.6,7.4-8.2,11.9-11.6c1.8-1.3,3.3-2.5,3.4-2.6c0.8-0.9,4-3,5.5-3.6l1.1-0.4
		l0.7,1.9c1.8,4.8,2.4,8.3,2.4,13.2c0,5.2-0.1,5.4-3.1,12.6c-1.7,3.9-2.5,6.3-4.2,11.8c-0.5,1.5-0.9,3.2-1.1,3.6
		c-1,3.2-2.1,13.4-1.8,16.9c0.8,9,2.9,14.5,8.2,21.1c3,3.7,14,12.1,18.9,14.4c1,0.5,2.6,1.4,3.7,2.1c2.1,1.4,2.4,1.5,2,0.9
		c-0.1-0.2-1.3-1-2.6-1.8c-6.7-3.8-15.4-13.2-18.8-20.1c-4.3-8.9-5.9-19.1-4.3-28.4c0.6-3.5,1.7-7.6,2.2-7.9c0.2-0.1,0.2,0,0.1,0.3
		c-2.3,7.6-1.7,19.4,1.3,26.6c3.6,8.8,8.5,14.8,16.1,20c6.7,4.5,9.8,7.2,11.8,10.2c1.3,2,1.4,2,0.9,0.7c-1.7-4.7-5.9-10.7-11.8-16.7
		c-4-4.1-6.8-7.8-6.3-8.3c0.1-0.1,1.2,0.9,2.6,2.1c1.6,1.4,3.6,2.9,5.4,4c10.9,6.5,18,16.6,18,25.7c0,4.8-2,8.6-7.4,13.8
		c-2.7,2.6-4,4.6-6.9,10.2c-0.9,1.8-1.9,3.6-2.2,4c-3.7,5.2-4.2,14.3-1.1,19.7c2.6,4.5,5,6,10.2,6.1l2.9,0l2.4-1.3
		c3.1-1.7,5.3-3.2,6.5-4.4c1.7-1.7,5.4-9,5.8-11.4l0.2-1l-0.7,0.8c-0.4,0.4-1.1,1.6-1.7,2.7c-1.6,3.1-2.5,4.4-3.1,4.4
		c-1.8,0,0.6-6.5,4.1-11.3c1.6-2.2,2.2-3.3,2-3.5c-0.5-0.5-3.5,3.9-6.1,8.7c-1.4,2.6-2.3,1.3-1.2-1.9c0.8-2.5,2.8-6.3,4.2-8.3
		c1.2-1.6,1.2-1.8,0.1-1.1c-1.4,0.9-3.9,4.4-5.7,8.3c-2,4.2-2.4,4.5-2.3,2.4c0-3.9,2.2-8.8,5.5-12.4c0.9-1,1.6-1.9,1.5-1.9
		c-0.5,0-2.4,1.8-4,4c-3.1,4.1-4,5.9-6.4,12.8c-1.1,3.3-1.9,0.5-1-3.9c0.7-3.7,2.7-8.2,5.2-11.7c0.9-1.3,0.9-1.3,0.2-0.7
		c-2.8,2.2-6.3,9.1-7.9,15.5c-0.3,1.2-0.8,2.6-1.1,3c-0.4,0.6-0.5,1-0.4,1.8c0.2,1.4,0,1.4-0.7,0c-1.5-2.9-0.2-10,2.8-16.1l0.9-1.9
		l-0.8,0.9c-6,6.9-8.1,17.9-4.1,22.4l0.6,0.6l-0.8-0.6c-5.7-4-4.7-14.4,2.5-24.5c5.2-7.3,8-9.8,12.2-10.6c1.2-0.2,3-0.7,4.1-1
		c4.6-1.3,5.8-1.2,9.2,0.2c3.3,1.4,4.6,1.8,6.7,1.9c4.4,0.3,5.8,2.8,5.8,10.1c0,7.7-1.5,13.3-5.5,20.1c-1.4,2.5-1.9,3.4-3.1,6.3
		c-0.4,1-0.7,1.3-1,1.2c-0.3-0.1-0.4,0-0.2,0.3c0.1,0.3-0.6,2-2.1,5c-2.1,4.2-3.2,7.2-5.3,14.2c-0.4,1.3-0.9,3.1-1.2,3.9
		c-0.9,2.8-2.2,14.6-2,18.4c0.3,4.6,1.3,8.3,3.4,12.3c0.9,1.7,2,3.8,2.5,4.7c2.4,4.6,7.8,9.6,11.1,10.5c0.5,0.1,1.6,0.5,2.5,0.8
		c1.9,0.7,4.9,0.8,6.9,0.1c0.8-0.2,2.3-0.4,3.6-0.4c3,0,3.9-0.3,6.4-2c1.3-0.9,2.2-1.3,2.4-1.2c1.7,1.7,7.3-5.8,8.2-11
		c1.9-11.2,1.6-16.8-1.7-25.8c-2.1-6-3.1-10.7-2.8-13.5c0.2-1.8-0.1-2.7-0.5-1.5c-1.2,3.8-0.8,10.6,0.9,18.6
		c1.5,6.6-1.5,1.2-3.4-6.1l-0.9-3.5l-0.2,2.1c-0.3,3.4,0.5,7.7,2.7,13.4c2.2,5.9,3.3,9.6,2.8,10.1c-0.1,0.1-1-1.2-2-3
		c-1-1.8-2.4-3.8-3-4.6c-6.7-7.9-8.6-21.7-3.9-28.8c2-3,3.3-3.9,7.9-5.5c1.2-0.4,3-1,4-1.4c5.4-1.9,18.6-2.6,22.1-1.2
		c3.2,1.3,6.5,2.3,7.6,2.3c3.2,0,11.6,6.8,15.9,12.9c2.3,3.2,3.8,6.2,2,3.9c-4-5-8.2-9.1-11.1-10.9c-3.9-2.3-4.5-1.8-1.1,1.1
		c5.3,4.5,13.8,16.7,13.8,19.7c0,0.1-1.2-1.4-2.6-3.4c-4.7-6.5-6.7-8.8-10.4-11.9c-2.9-2.4-3.7-2.6-1.7-0.4c3.1,3.4,7.2,9.7,9.2,14
		c1.9,4.3,1.4,4-2.9-1.7c-5.3-7-7.7-9.7-11.9-13.1c-3.4-2.7-3.4-2.5-0.3,0.9c5.3,5.8,10.3,13.8,12.4,19.8c0.7,2,0.2,1.5-1.8-1.9
		c-2.7-4.6-7.7-11.7-7.1-10.1c0.2,0.6,1.3,2.7,2.9,5.5c2.7,4.7,3.8,7.9,4.8,13.6c0.5,2.9,0.4,16.9-0.2,24.2
		c-0.4,4.5-0.3,5.1,1.8,11.8c2.9,9,6,13.6,10.7,15.6c1,0.4,2.6,1.3,3.7,2.1c2.9,1.9,4.6,2.5,8,2.8c7.7,0.7,12.2,0.8,18.7,0.8
		c5.9,0,21.2-5.2,25.2-8.5c0.3-0.2,1.5-1,2.7-1.7c1.2-0.7,2.8-1.8,3.6-2.4c0.8-0.6,2.3-1.6,3.3-2.1c11.3-6,16.8-13.2,21.1-27.4
		c0.6-1.8,1.1-3.5,1.2-3.8c1.7-3.2,1.3-11.7-0.7-15.3c-3.9-7.1-7.5-11.3-11.9-14.1c-1.1-0.7-2.4-1.7-2.9-2.1c-0.5-0.5-1.2-1-1.5-1.2
		c-0.3-0.2-2-1.5-3.8-2.8c-1.8-1.4-4.8-3.5-6.8-4.8c-8.5-5.7-10.7-8.9-14-20.8l-0.8-3l0.5-2.2c2.3-11.2,6.4-17.4,15.1-22.6
		c3.1-1.8,7.9-2.5,17.2-2.4c18.3,0.2,27-10.2,18.8-22.6c-0.4-0.6-1.1-1.7-1.5-2.5c-1.7-3.2-3.7-5.2-6.8-6.9c-1-0.5-3-1.9-4.4-3
		c-3.2-2.5-6.6-4.5-11.5-6.6c-2-0.9-4.3-2-4.9-2.4c-4.6-2.8-10-3.9-19.2-3.7c-15.3,0.3-18.5-0.2-21.7-3c-3-2.7-2.6-7.7,1.1-11.2
		c3.3-3.2,9.3-7,11.4-7.3l1.3-0.2l-1.4,0.8c-11.6,6.6-14.9,16.9-5.8,18l1.6,0.2l-1.3-1.1c-3.5-3.1-3.5-8.3,0.2-11.7
		c1.7-1.6,1.9-1.4,0.6,0.5c-3.6,5.2-1.8,10.9,3.7,11.6l1.3,0.2l-0.9-0.6c-2.6-1.6-3.8-3.5-3.7-5.7l0.1-1.4l0.5,1.5
		c0.5,1.7,2.4,3.7,4,4.2c1.8,0.6,1.9,0.2,0.2-1c-2.8-2-2.5-5.9,0.7-10.3c1.5-2.1,4.1-3.3,14.8-7c5.8-2,8.2-3.7,10.2-6.9
		c0.9-1.4,0.9-1.5,0.8-0.7c-0.7,3.3-2.3,5.5-5.4,7.1c-2.7,1.4-2.6,1.8,0.3,0.9c4.6-1.4,6.5-3.6,6.9-7.9c0.2-2.6,1-1.6,0.8,1.1
		c-0.3,5-3.5,7.6-13,10.6c-6.1,1.9-6.1,2.2,0.1,1c2.2-0.4,5.5-1.1,7.4-1.4c8.4-1.6,12.4-6.9,10.1-13.1c-1.3-3.5-6-8.3-12.4-12.6
		c-7.5-5.1-9.1-6.8-10.1-10.7c-1.3-5.1,0.8-9,7.7-14.3c3.4-2.6,4.4-4.4,4.4-7.6c0-2.8-1.3-3.4-1.6-0.8c-0.4,3.2-2,5-7.6,8.5
		c-9.4,5.9-12,8.7-12,12.9c0,4.9,1.9,7.2,11.2,13.3c7.3,4.8,8.1,5.7,9.1,9.4c1.3,4.8-2.7,7.4-14.4,9.2c-12,1.8-20.4,3.9-24.7,6
		c-10.6,5.3-15.2,10.9-15.9,19.4c-0.7,8.3,5.6,13,16.6,12.4c7-0.4,11.7-0.8,15.1-1.3c9.1-1.3,18-1.6,21.7-0.8
		c0.6,0.1,2.5,0.4,4.2,0.6c3.5,0.5,4.3,0.8,7.2,3.2c5.8,4.8,7.4,8.4,5.7,13.2c-1.4,3.9-6.8,6.7-14.5,7.5c-2.3,0.2-2.3,0.2-0.7-0.5
		c2-0.9,4.6-2.7,6.4-4.6c4.1-4.2,4.1-7.6,0-11.9c-2.1-2.2-2.1-2.2-1.7-0.5c0.9,4.4,0,7.9-3,10.8c-1.7,1.7-1.8,1.4-0.2-0.7
		c3.3-4.3,3.2-9.7-0.2-12.9c-1.9-1.9-3.1-2-1.7-0.2c4.6,5.8,1,13.5-7.3,15.8c-1.4,0.4-1.2,0.1,0.8-1.1c5-3.1,7.7-8.3,6.1-11.6
		c-1.2-2.5-4.1-4.8-6.1-4.7c-0.5,0-0.4,0.1,0.3,0.5c1.2,0.8,2.7,3.1,3.2,4.8c0.7,2.7,0.3,3.2-0.5,0.6c-0.7-2.1-2-3.6-3.9-4.6
		c-2.1-1.1-2.3-0.9-0.7,0.5c2.6,2.4,3.5,6.8,1.7,8.7c-1.3,1.4-5.4,2.6-11.9,3.7c-5.1,0.8-8.9,1.6-10.6,2.3c-0.7,0.3-2.8,0.9-4.5,1.3
		c-1.7,0.4-3.7,1-4.4,1.3c-0.7,0.3-2.1,0.9-3.2,1.3c-5.4,2.1-6.6,3-10.4,6.8c-2.9,2.9-3.5,3.8-4.7,6.4c-0.3,0.6-1,2.1-1.7,3.3
		c-1.4,2.7-3.1,7.4-3.3,9.7c-0.3,3.1,0.9,11.4,1.9,12.3c0,0,0-1.7-0.1-4c-0.2-4.9,0.2-7.6,1.5-11.4c1.6-4.8,2-4.6,1,0.5
		c-1.4,7.1-0.9,14.4,1.1,19.2c0.8,1.8,3.5,6.4,4.3,7.3c0.4,0.4,1.3,1.4,1.9,2.1c0.6,0.7,1.6,1.6,2.2,2.1l1,0.8l-0.9-1.7
		c-0.5-0.9-1.2-2.2-1.6-2.8c-3.3-4.7-5.5-14.3-4.7-20c0.7-5.2,4.3-12.9,6.9-14.9c1.3-1,1.3-0.6,0.1,1.2c-5.7,8.4-6.3,18.8-1.5,29.1
		c0.6,1.4,1.2,2.4,1.3,2.3c0.1-0.1,0.5,0.4,1,1.2c2.7,4.8,3.9,5.2,2.1,0.8c-2.7-6.8-4.2-16.6-3-19.8c0.3-0.8,0.7-1.5,0.8-1.5
		s0.2-0.2,0.2-0.4c0-0.4,2.5-5.4,3.6-7.1c4.1-6.6,10.5-11.1,15.7-11.4l2.7-0.1l-2,1.1c-6.4,3.6-9,6.3-12,12.4
		c-4.3,8.7-4.7,14.6-1.7,23.2c2.4,7,5,12.5,8,16.9c3.7,5.4,5.1,9.5,4.8,14c-0.2,4-1.1,5.6-6.4,10.8c-5.5,5.4-8.1,10.9-7.8,16.4
		c0.2,4.3,3,7.1,6.8,6.7c1.6-0.1,2,0.5,0.6,0.9c-4.3,1.2-8.6-2.1-10-7.5c-0.8-2.9,0.3-7.6,3-12.8c4.2-8.2,4.7-10.8,3.3-17
		c-1-4.4-9.3-14.1-15.7-18.3c-1.4-0.9-3.5-2.3-4.7-3.1c-1.2-0.8-2.4-1.6-2.7-1.9c-0.3-0.3-1.4-1.2-2.5-2s-3.6-3-5.6-5
		c-2-1.9-4.9-4.7-6.5-6.1c-5.2-4.8-7.3-9-8.1-15.6c-0.2-2.2,0.3-10.1,0.8-11.4c0.8-2.1,3.6-7.4,6.1-11.2c0.2-0.4,0.6-1,0.8-1.3
		c0.4-0.6,4-6.5,4.8-7.8c3.2-5,4.4-10.4,3.3-14.2c-0.2-0.8-0.6-2.1-0.7-2.9c-0.6-3.7-5.1-9.1-10-12.1c-1.2-0.7-2.8-1.7-3.6-2.2
		c-2.8-1.8-6.5-2.6-13.6-3.1c-8.7-0.6-12-0.2-24.7,2.9c-4.7,1.2-8.7,2-11.5,2.3c-1.5,0.2-3.4,0.4-4.2,0.5c-8.2,1-24.1-1.5-30-4.5
		c-2.2-1.1-3.6-2.1-2.6-1.7c2.6,1,4.8,1.3,9.1,1.1c2.3-0.1,7-0.3,10.3-0.4l6-0.2l-1.6-0.5c-0.9-0.3-1.8-0.6-2-0.6
		c-0.2-0.1-3.8-0.2-8-0.4c-8.3-0.2-11-0.6-16-2.2c-1.7-0.5-4-1.9-4-2.3c0-0.1,0.8,0.1,1.8,0.4c3.7,1.4,7.8,1.8,17.9,1.8l9.2,0
		l3.2,0.9c4.8,1.3,6.4,1.8,9.5,3.3c4.4,2.1,7.1,1.5,3.4-0.7c-4.4-2.7-6.6-3.7-10.3-4.6l-3.7-0.9l-10,0c-13.4,0-16.5-0.5-21.2-3.3
		c-8-4.8-13.2-15.3-10.3-20.9c3.5-6.8,10.7-12.8,19.4-16.4l2.1-0.9l0.2-1.4c0.1-0.8,0.2-3.2,0.1-5.4c-0.3-9.8,3.7-20.6,8-21.4
		c0.5-0.1,1-0.3,1.1-0.4c0.4-0.7,0.6-0.1,0.2,1c-0.4,1.2-0.7,3.8-1.1,7.3c-0.4,4.1,0.7,9.5,2.1,10.3c1,0.5,8.9,0.6,11.7,0.1
		c0.8-0.1,2.6-0.4,4.1-0.7c2.9-0.5,3.4-0.6,7.7-2.5c17.3-7.5,26.7-19.3,26.7-33.7c0-9.3-8.7-20.7-17.6-23.2
		c-1.1-0.3-3.4-1.3-5.2-2.4C217.5,73,212,68,210.1,61.5c-0.3-0.9-0.6-1.9-0.7-2.4c-0.1-0.4-0.2-1.8-0.2-3.1c0-2.9-0.6-2.4-1.3,1
		c-0.8,4.1,1.2,10.1,4.8,14.1c0.8,0.9,0.3,1-0.8,0.2c-4.7-3.7-7.4-11.1-6-16.1c0.7-2.5,0.6-2.6-0.9-0.6c-4.9,6.6-0.9,15.4,9.3,20.6
		c1.5,0.8,4.1,2.1,5.9,3.1c1.8,0.9,5.3,2.6,7.8,3.7c6.5,2.8,9.3,4.4,12.1,6.9c0.5,0.5,1.3,1,1.7,1.2c2.7,1.2,6.6,9,7.1,14.1
		c0.4,3.6-0.2,5.4-0.7,2.1c-0.4-2.8-2.7-8.4-4.4-10.8c-1.3-1.8-4.6-5.3-5.5-5.8c-4.1-2.5-5.5-3.2-7.8-4.1
		c-27.3-10.5-37.1-21.7-28.5-32.6c3.6-4.6,6.7-6.9,15.3-11.3c7.2-3.7,9.1-5.3,11.2-9.4c3.4-6.4-1.1-14.8-8.2-15.4
		c-5.6-0.5-7.1-0.5-8.9,0c-1,0.2-2.4,0.4-3.1,0.4c-0.7,0-2.3,0.3-3.6,0.7c-1.3,0.4-3,0.8-3.6,0.9c-2.8,0.6-9.7,3.8-8.8,4
		c0.6,0.1,0.6,0.2,0.2,0.5c-1.5,1.2-2,4.4-0.9,5.7c2.5,3.2,12.8,1.4,12.8-2.3c0-0.3-0.1-0.5-0.2-0.5c-4.4,2.2-9.7,2.8-9.7,1.1
		c0-1.9,3.2-3.4,8.6-3.8c2.9-0.3,3-0.2,7.4,0.8c1.2,0.3,1.7,0.9,1.5,1.9c-0.2,1.1,0,1.1,1.4,0.1c4.2-3.1,2.2-6.7-3.8-6.7
		c-1,0-1.4-0.1-1.3-0.3c0.2-0.4,4.8-0.2,6.3,0.3c3.7,1.1,3.8,4.2,0.2,7.7c-2,2-8.8,6.2-11.3,7c-1.9,0.6-7.3,3.3-7.1,3.6
		c0.3,0.3,8.9-2.9,12.9-4.8c4.3-2.1,8.3-5.3,9.7-7.7c1.5-2.6,1.4-1.1,0,1.9c-2.4,5-14.4,11-29,14.5c-3.8,0.9-4.9,1.3-10.3,3.4
		c-1.5,0.6-2.8,1-2.9,1c-1.4,0-7.2,4.1-10.1,7.1c-6.2,6.5-8.2,12.4-6.1,18.1c0.3,0.9,0.8,2.3,1.1,3.1c1.2,3.4,2.4,5.4,4.6,7.5
		c2.5,2.4,2.9,2.8,4.8,4.7c1,1,2.3,1.9,3.9,2.7c1.3,0.7,3.1,1.6,3.9,2.2c2.7,1.7,6.4,3.2,8.6,3.6c1.4,0.2,3.5,1.1,7,2.7
		c3.5,1.7,6.1,2.7,6.1,2.5c0-0.4-4.9-3.5-8.8-5.5c-8.2-4.2-16.4-11.7-18.3-16.8c-0.2-0.6-0.3-0.7,2.7,2.8c2.2,2.6,4.7,4.8,7,6.4
		c0.5,0.3,2,1.4,3.2,2.3c2.5,1.8,4.1,2.7,6.8,3.7c1,0.4,2.5,1.1,3.3,1.5c1.8,1,1.6,0.8-1.4-1.4c-4.1-3-3.4-2.8,3.8,0.8
		c1.7,0.9,3.1,1.5,3.1,1.3c0-0.5-4.2-3.7-8.5-6.3c-7.2-4.5-8.8-6-16-14.2c-6.6-7.5-4.9-16.7,4.2-23.2l0.9-0.7l-1,1.3
		c-0.6,0.7-1.4,1.9-1.9,2.7c-0.5,0.7-1.2,1.7-1.6,2.1c-4.8,5.4-2.9,13,5,20.5c2.8,2.7,6.9,6,8.9,7.2c9.8,6,11.1,6.9,12.8,9.2
		c4.6,6,3.3,13-2.5,13.8c-1,0.1-2,0.5-2.7,1c-2.3,1.5-7.7,3.5-11.9,4.4c-2.9,0.6-16.8,0.8-17.8,0.2c-0.7-0.4-10.3-0.5-12-0.2
		l-1.1,0.2l0.8-0.4c3.4-1.9,4.3-4.7,2.5-8.1c-0.4-0.9-0.8-1.8-0.8-2c0-0.6-2.1-2.9-3.7-4c-2.9-2.1-6.4-2.9-16-3.4
		c-7.9-0.4-11.9-2-18.6-7.3c-5.4-4.3-7.3-6.5-8.3-10.1c-0.3-1.1-0.8-2.6-1.1-3.5c-2.2-7.2-1.2-12.2,3.4-18.1
		c9.7-12.2,10-17.3,1.5-25.3c-5.2-4.9-10.7-6.9-19.1-7c-8.9-0.1-11.6-2.5-8.3-7.4c2.1-3.1,1.4-5.5-1.6-6
		C86.8,11.2,86.5,11.2,86.5,11.5 M51.7,20.8c-2.4,1-2,4.3,0.5,5c1.4,0.4,3.3-1.6,2.9-3C54.8,21.3,53,20.2,51.7,20.8 M130.5,29.1
		c-0.3,0.3-0.5,0.8-0.5,1.1c0,0.3,0.2,0.8,0.5,1.1c0.3,0.3,0.8,0.5,1.1,0.5s0.8-0.2,1.1-0.5c0.3-0.3,0.5-0.8,0.5-1.1
		c0-0.3-0.2-0.8-0.5-1.1c-0.3-0.3-0.8-0.5-1.1-0.5S130.8,28.8,130.5,29.1 M46.3,45.1c-2.1,1.1-1.3,4.5,1.1,4.5
		c1.1,0,2.3-1.3,2.3-2.4C49.7,45.6,47.7,44.4,46.3,45.1 M132.4,47.2c-1,0.9-0.3,2.7,1,2.7c0.3,0,0.8-0.2,1.1-0.5
		C136,47.9,134,45.8,132.4,47.2 M122,55.4c-2.3,1.6-1.1,5.2,1.7,5.2c2.7,0,3.8-3.7,1.6-5.2C124.5,54.8,122.8,54.8,122,55.4
		 M195.8,73c1.4,2,2.8,3.3,4.8,4.4c2.1,1.2,9.2,4.4,12.1,5.4c4.7,1.6,15,6.9,17.8,9.1c1.4,1.1,2.1,2.1,0.8,1.2
		c-2.3-1.6-10.5-5.2-13.4-5.8c-1-0.2-2.7-0.7-3.9-1c-1.1-0.4-3.2-1-4.5-1.4c-3-0.9-6-2.5-9.7-5.1c-4.8-3.5-5.1-3.9-6.6-8.9
		c-1.1-3.9-1.1-4.4,0.1-2C194,70.1,195.1,71.9,195.8,73 M358.4,70.5c-0.3,0.7,0.6,1.4,1.2,1c0.3-0.2,0.5-0.5,0.5-0.8
		C360,70.1,358.6,69.9,358.4,70.5 M125.9,71.8c-1.2,1.2-1.5,2.4-0.8,4c1.1,2.4,4.4,2.7,5.8,0.5C133.3,72.9,128.8,69,125.9,71.8
		 M337.8,87.6c-0.8,0.5-1.3,2.1-0.9,2.8c1,1.8,3.2,1.1,3.2-1C340.1,87.7,338.9,86.8,337.8,87.6 M300.4,94.8c0,0.3,1.1,0.7,1.4,0.5
		c0.2-0.1,0.1-0.3-0.2-0.4C301,94.7,300.4,94.6,300.4,94.8 M376.8,109.6c-1.3,0.5-1.5,2.1-0.5,3.1c1.7,1.7,4.4-0.7,2.9-2.5
		C378.6,109.5,377.6,109.3,376.8,109.6 M278.5,111.8c-0.8,1.4,1.3,2.6,2.1,1.3c0.3-0.5,0.3-0.7-0.1-1.2
		C280,111,278.9,111,278.5,111.8 M224.9,112.9c0.4,0.4,1.3,1.6,1.9,2.7l1.1,2l-0.3,2.2c-1.1,7.8-5.6,13.3-12.1,14.7
		c-1.9,0.4-1.8,0.6-2-2.9c-0.3-6.3,1.3-11.9,4.9-16.8C220.6,111.7,223,111.1,224.9,112.9 M299.6,116.9c-0.9,1-0.2,2.5,1.2,2.5
		c1,0,1.5-0.4,1.5-1.4C302.3,116.7,300.4,115.9,299.6,116.9 M288,125.6c-1.1,1.2-0.2,3,1.6,3c1,0,1.5-0.4,1.5-1.3
		C291.1,125.4,289.2,124.3,288,125.6 M257.3,128.3c-2.7,1.4-3.9,3.9-3.3,7.1c0.9,5.4,6.9,6.5,12.2,2.2c3.7-3,7.1-2.7,7.1,0.6
		c0,2.4-2.1,3.9-6,4.4c-9.5,1.2-14.1,6.3-12.3,13.3c1,3.7,0.4,5.6-1.9,5.6c-2.2,0-2.8-2.5-1.2-4.7l0.7-0.9l-0.6,0
		c-1.2,0-3.1,2.2-4.1,4.8c-1.6,4.1-3.8,4.8-8.9,2.5c-4.4-2-9.7-1.9-13.6,0.2c-2.4,1.3-1.7,1.7,1.5,0.9c3.7-1,7,0,11.7,3.5
		c2,1.5,3.8,1.5,8.3,0.3c2.5-0.7,3-0.7,7.1-0.7c7.5,0.1,8.7-0.5,10.1-4.6l0.5-1.4l0.3,1.5c0.6,2.8-1.8,6.4-4.9,7.3
		c-1.7,0.5-3.6,1.6-3.1,1.8c9.2,2.7,14.7-0.1,14.8-7.5l0-2.5l-1.7-3.5c-1.3-2.8-1.6-3.5-1.2-3.6c0.3-0.1,0.4-0.2,0.2-0.5
		c-0.8-1.9-0.1-5,1.5-6.7c1.2-1.2,1.7-1.4,4.5-2.1c6.8-1.5,9.6-4.9,8.8-10.4c-1.2-8.3-9.2-9.8-17-3.2c-4.9,4.1-7.8,4.6-7.8,1.2
		c0-0.7,0.2-1.2,0.7-1.7c1-1,1.3-0.9,1.1,0.5c-0.2,1.3,0,1.6,0.9,1.3c0.9-0.3,1.4-1.7,1.4-3.6C263,128,259.7,127,257.3,128.3
		 M331.4,135.3c-0.8,0.5-1.2,2.2-0.9,3.1c0.8,2.2,4,1.3,4-1.1C334.5,135.4,332.9,134.3,331.4,135.3 M364.4,142.8
		c-0.7,0.9-0.7,1.3,0.1,2.1c1.2,1.2,2.8,0.5,2.8-1.2C367.3,142.2,365.4,141.6,364.4,142.8 M142.8,144.7c-2.1,2.3-6,9.7-8.2,15.5
		c-1.2,3.2-3.7,8.3-4,8c-0.1-0.1,0.2-0.8,0.5-1.5c0.3-0.8,1-3,1.6-4.9c2.2-7.2,4.1-12.2,5.9-15.3c1.2-2.1,0.8-2-1.2,0.4
		c-2.5,3-6.3,10.2-6.3,12.1c0,0.4-2.3,5.1-2.8,5.7l-0.4,0.5l0.1-0.5c2.3-8.9,2.9-11.3,3.5-12.7c0.6-1.6,0.6-2-0.1-1.2
		c-0.2,0.2-0.3,0.7-0.3,1c0,0.3-0.5,1.4-1.2,2.4c-0.7,1.1-2.1,3.4-2.9,5.1c-1.1,2.2-1.6,3-1.6,2.5c0-0.9,1-3.9,2-5.8
		c0.8-1.7,0.8-1.6-1.2,0.9c-2.6,3.4-5.9,7.1-9.2,10.5c-3.6,3.6-3.5,3.5-2.9,3.5c1.4,0,3.8,3,3.8,4.6c0,3.9-5.4,8.4-10.2,8.4
		c-1.1,0-0.9,0.5,0.7,1.2c4.8,2.3,12.6,1.6,17.4-1.6c3.1-2,5-5,6.8-10.6c0.6-1.8,1.3-3.9,1.7-4.5c0.3-0.7,1.4-3.3,2.4-5.9
		c2.7-7.1,2.9-7.3,6.2-11.6l1.9-2.4l0.1-2.1C144.8,142.5,144.8,142.5,142.8,144.7 M286.5,146.4c-0.9,0.7-0.5,2,0.7,2.1
		c1.5,0.2,2.1-1.4,0.9-2.2C287.3,145.8,287.3,145.8,286.5,146.4 M322.9,150.9c-1.7,0.3-2.2,2.6-0.8,4c1.8,1.8,4.4,0,3.6-2.4
		c-0.2-0.8-1.7-1.9-2.2-1.7C323.5,150.7,323.2,150.8,322.9,150.9 M275.3,154.6c-1.6,1.6-0.7,4.1,1.6,4.1c2,0,3.1-2.4,1.8-3.9
		C277.8,153.7,276.3,153.6,275.3,154.6 M186.4,160.5c-1.6,0.9-4.6,4-4.6,4.8c0,1.3,2.6,5.8,6.1,10.5c5.5,7.4,6.1,7.9,8,7
		c0.6-0.3,1.9-0.9,2.9-1.2c1-0.4,3.1-1.4,4.7-2.2c19.7-10.5,20.5-10.7,27.6-4.1c7.8,7.2,7.3,6.9,11.2,4.9c5.4-2.8,15.1-3.6,21.2-1.7
		c2.5,0.8-2-2-5.4-3.3c-4.8-1.9-6.9-1.7-10.8,0.9c-2,1.3-2.6,1.6-2.6,1.2c0-0.8,5.5-4.8,7.3-5.3c0.4-0.1,0.7-0.3,0.7-0.4
		c0-0.1,0.4-0.4,0.9-0.5c1.4-0.5,1.4-0.7-0.2-1.1c-2.3-0.5-5.7,0.6-8.3,2.6c-2.9,2.3-5.3,1.9-8.4-1.2c-4-4-4.8-4.4-9.5-4.4
		c-4.1,0-6.4,0.4-9.4,1.4c-1.3,0.4-4.4,1.4-6.9,2.1c-5,1.5-9.8,3.2-11.5,4.1c-0.6,0.3-1.1,0.5-1.1,0.4c0-0.1-0.6-0.5-1.3-0.9
		c-3.3-1.7-7.6-7.6-8.9-12.3C187.6,159.9,187.5,159.9,186.4,160.5 M330.9,174.6c-2,1-1.8,4.3,0.4,4.4c3.4,0.2,4.1-3.6,0.8-4.7
		C331.9,174.2,331.3,174.4,330.9,174.6 M121.3,207.2c-4.4,2.4-4.1,9.4,0.5,10.9c5.5,1.8,9.1-7.1,4.3-10.5
		C125,206.9,122.4,206.7,121.3,207.2 M190.1,214.4c2.7,2,3.4,2.4,12.1,6.6c9.1,4.4,15.4,9.9,19.6,17.3c4,6.8,4.7,8.4,5.9,11.6
		c1.1,3,1.2,2.7,0.2-0.8c-1.4-5.1-2.6-8.5-4.7-12.6c-2.2-4.5-2.3-4.8-1.7-4.5c1.4,0.6,5.7,7.6,8,13.2c1,2.4,1.2,2.2,0.6-0.4
		c-0.2-0.9-0.4-2.1-0.4-2.6c0-3-1.9-7.2-4.8-10.7c-0.8-1-4-4.6-4.8-5.4c-1-1-0.7-0.9,2.2,0.6c7.7,4.1,11.1,8.5,14.3,18.6
		c0.7,2.3,0.8,3,0.8,5.7c0,1.7,0.1,4.3,0.3,5.8c0.3,3.2,0,7.6-0.8,12.1c-0.7,3.8-1.1,4.7-3.6,10.4c-0.3,0.7-0.9,2.1-1.3,3.1
		c-0.8,2.1-3.3,6.5-5.9,10.7c-1.1,1.7-2.2,3.7-2.5,4.4c-0.3,0.7-0.9,2-1.3,2.9c-3.1,6.1-3.1,15.5,0.1,21.4c0.7,1.3,2.1,4,3.2,6
		c2.2,4.1,2.4,4.5,5.4,8c4.6,5.5,5.4,7,5.3,10.9c0,1.6-0.7,4.3-0.8,3c-0.1-2.4-2.3-5.7-6.3-9.7c-10.6-10.6-12.3-13.5-12.8-23
		c-0.1-1.7-0.3-3.1-0.4-3.2c-0.9-0.6,0.7,18.5,1.9,22.6c1.2,3.9,0.6,4.1-1.2,0.4c-1.7-3.4-2.4-5.3-3-8.4c-0.8-3.8-0.8-4.7-0.8-11.7
		c0-6.3-0.2-7.8-0.8-5.7c-1.6,5.9-2.4,10.3-2.7,14.6c-0.2,2.2-0.3,4-0.4,4.1c-0.2,0.2-0.4-0.2-0.6-1.9c-0.1-0.9-0.4-2.5-0.5-3.5
		c-0.5-3.2-0.1-10.5,0.8-14c0.4-1.7,0.8-3.1,0.8-3.2c0-1.3-4.4,9.4-6.3,15.4c-1.1,3.5-2.7,11.3-2.7,13.4c0,0.6-0.1,1.3-0.3,1.5
		c-0.4,0.5-0.1-6.8,0.3-8.7c0.2-0.7,0.5-2.5,0.7-4c0.5-3.3,1.7-8,2.6-10.3c0.4-0.9,1-2.8,1.5-4.1c1.5-4.2,2.4-6.3,4.3-9.9
		c13.1-24,16.3-35.4,13.9-48.2c-2.1-10.9-10.8-21.9-22.9-28.8c-7.1-4-12.2-8.1-13.8-11.1l-0.5-0.9l0.6,0.6
		C187.2,212.2,188.7,213.4,190.1,214.4 M75.9,212.7c-1.7,0.6-2.2,2.8-0.9,3.8c1.5,1.2,3.6,0.3,3.6-1.6
		C78.5,213.5,77.1,212.3,75.9,212.7 M256.1,217c1,0.4,2.3,1,3.1,1.2c2.8,0.9,6.6,5.1,7.9,8.6c1.6,4.2,1.8,7.8,0.7,14.3
		c-1.1,6.4-1,6.8,0.6,2c4.3-13.5,4.2-20.3-0.7-25.7c-1.4-1.5-1.3-1.8,0.1-1c6.1,3.1,8.2,10.5,6.2,21.3c-0.4,2.1-1.9,7-2.5,8.1
		c-0.6,1.2-3.5,16-3.6,19.1c-0.3,4.6,0.4,11.6,1.3,14c1.4,3.6,3.5,7.4,5.2,9.2l0.7,0.8l-0.6-1.1c-0.5-0.9-0.3-0.8,1.2,0.9
		c2,2.2,5.3,5.6,6.1,6.2c0.3,0.2,1.5,1.2,2.6,2.1c5.8,4.6,8.4,8.1,11.7,15.8c0.7,1.6,2.2,4.8,3.4,7.2l2.2,4.4l-0.1,3.5
		c-0.1,4.1-1.7,10.8-3.6,15.3c-1,2.5-1.9,5.9-1.9,7.4c0,0.4-0.3,1.6-0.6,2.7c-2.8,9.5,2.7,26.9,9.7,31.3c1.3,0.8,0.6,0.7-1.2-0.2
		c-4.8-2.4-7.9-5.8-10.4-11.4c-0.4-1-1-2.2-1.2-2.6c-2.8-6.1-2.4-14.9,0.9-22.7c2.7-6.2,3.5-8.4,4-10.3c2-7.7,1.2-14.7-2.7-23.5
		c-0.7-1.6-1.7-3.9-2.1-5.1c-1.3-3.3-7.5-9.5-13.2-13.2c-3.4-2.2-4.2-2.8-6-4.5c-8.1-7.5-12.3-18.6-12.3-32.4c0-5.3,0.1-7,0.6-9.9
		c2.2-13.2,2-19.3-0.6-24.3c-0.4-0.7-0.7-1.5-0.7-1.8c0-0.8-2.2-3.5-4.2-5c-1.9-1.5-2.5-2-2.1-1.8
		C254.3,216.1,255.2,216.5,256.1,217 M98.7,220.2c-4.2,2.7-0.5,9.1,4,6.9c3.6-1.7,2.2-7.4-1.9-7.4C99.9,219.7,99.2,219.9,98.7,220.2
		 M133.4,227.2c-0.6,0.6-0.8,1-0.8,2c0,3.1,4,3.9,5.2,1C139.1,227.5,135.6,225.1,133.4,227.2 M112.7,230.8c-1.6,0.8-1.7,2.9-0.3,3.9
		c2.2,1.6,4.9-1.4,3.1-3.4C114.7,230.5,113.8,230.3,112.7,230.8 M67.2,233.3c-1.5,1.2-1.5,3.1,0.1,3.9c1.1,0.6,1.8,0.5,2.7-0.4
		C72,234.8,69.4,231.6,67.2,233.3 M174.2,234.6c0.7,1,1.3,1.5,0.9,0.7c-0.1-0.3-0.5-0.7-0.9-1l-0.6-0.5L174.2,234.6 M156.5,241
		c-2.3,0.4-1.8,4.4,0.6,4.3c1.3,0,2.4-1.6,2-2.9c-0.2-0.7-1.5-1.7-1.9-1.6C157.1,240.9,156.8,240.9,156.5,241 M128,241.9
		c-1.4,0.8-1.4,3.3,0.1,4.1c1.1,0.6,1.7,0.5,2.6-0.3C133,243.9,130.5,240.5,128,241.9 M96.1,244.2c-1.6,1.6-0.5,4.3,1.8,4.3
		c0.7,0,1.2-0.2,1.8-0.8c1.6-1.6,0.5-4.3-1.8-4.3C97.1,243.5,96.7,243.7,96.1,244.2 M107.7,245.1c-0.7,0.7-0.2,2.1,0.8,2.1
		c0.5,0,1.3-0.8,1.3-1.3C109.7,245.1,108.3,244.5,107.7,245.1 M78.8,259.4c-1.8,1.8-0.5,4.6,2,4.6c1,0,1.4-0.1,2-0.8
		c1.8-1.8,0.5-4.6-2-4.6C79.8,258.7,79.4,258.8,78.8,259.4 M146.3,261.1c-0.6,0.6-0.7,1.3-0.1,2.1c0.5,0.7,1.7,0.8,2.3,0.1
		C149.9,261.7,147.7,259.6,146.3,261.1 M402.6,269.1c-1.8,0.9-1,3.4,1,3.4c1.3,0,2.1-1.9,1.3-3C404.4,269,403.3,268.8,402.6,269.1
		 M390.1,270.3c-0.4,0.4-0.7,0.9-0.7,1.2c0,1.5,2.5,2.5,3.3,1.3C394.2,270.7,391.9,268.5,390.1,270.3 M361.3,278.5
		c-1.6,0.8-1.9,2.9-0.7,4.1c2.4,2.4,6.1-1,3.8-3.5C363.6,278.2,362.4,278,361.3,278.5 M146.4,279.9c-2.3,1.1-1.5,4.6,1,4.6
		c2.7,0,3.5-3.5,1.1-4.7C147.5,279.4,147.4,279.4,146.4,279.9 M379.6,280.9c-0.8,0.4-1.4,1.6-1.2,2.4c0.7,2.6,4.4,2.3,4.4-0.4
		C382.8,281.1,381.1,280.1,379.6,280.9 M124.5,288.4c-0.8,0.8-0.8,1.5-0.1,2.4c1,1.2,3.2,0.4,3.2-1.2c0-0.7-1.1-1.9-1.9-1.9
		C125.4,287.7,124.9,288,124.5,288.4 M392,290.9c-0.6,0.6-0.6,0.9,0.1,1.5c1.1,1,2.6-0.6,1.5-1.7C393.2,290.3,392.5,290.3,392,290.9
		 M367.5,296.2c-1.2,1.3-0.9,3.7,0.4,4.7c1.7,1.2,4.2-0.2,4.2-2.2C372.1,296.5,368.8,294.8,367.5,296.2 M141.9,308.7
		c-0.5,0.5-0.5,0.8-0.2,1.5c0.4,0.7,1.2,0.7,1.7-0.1C144.2,309,142.8,307.7,141.9,308.7 M167.8,309.4c-5.2,1.9-4.2,10.6,1.3,10.6
		c3.5,0,5.9-2.9,5.2-6.4C173.6,310.3,170.7,308.4,167.8,309.4 M140.1,331.5c-0.6,0.6-0.7,1-0.1,1.8c0.8,1.1,2.8,0.5,2.8-0.8
		c0-0.6-1-1.5-1.6-1.5C140.9,330.9,140.4,331.2,140.1,331.5 M258.3,344.9c-0.9,0.5-1.7,2.1-1.5,3.2c0.6,3,4.7,3.2,5.7,0.3
		C263.4,345.9,260.7,343.7,258.3,344.9 M254,367.4c-1,1-1.2,1.9-0.8,3c1,2.5,4.2,2.5,5.2,0.1C259.6,367.7,256.1,365.3,254,367.4"/>
</g>
</svg>
