<svg xmlns="http://www.w3.org/2000/svg" viewBox="0 0 500 500"><style>.st0{fill:#231f20}</style><g id="Layer_1"><path class="st0" d="M149.9 397.7c-.1.1-.2.1-.2.2.1 0 .2-.1.2-.2zM222.3 413.7l-.9-.1c.6.2.8.2.9.1zM105.3 395.5c.1 0 .1 0 .1-.1-.7 0-1.6.1-3.1.1h3zM382.1 401.6h-1c.5 0 .8.1 1 0zM289 411.4c.3-.2.7-.3 1.2-.4-.6 0-1 .2-1.2.4zM81.1 392.1l1.3.2c0-.1-.5-.2-1.3-.2zM36.3 402s.1 0 .1.1c.1-.1.1-.1-.1-.1zM54.1 399.8c.4-.1.8-.3 1.2-.4-.5.1-1.2.3-1.2.4zM55.9 399.2c-.2.1-.4.1-.6.2.4-.1.6-.1.6-.2zM279.9 90.3c-1.3.4-2.3 1-3.4 1.6l3.4-1.6zM478.3 350.1l.2.3c-.1-.2-.2-.3-.2-.3zM279.3 93.9l-.9.2c.3 0 .6-.1.9-.2zM105.4 388.8c1.3-.5 4.1-.1 4-.5-1.4.1-3.4 0-4 .5zM462.6 320.2l-.1-.9c0 .5 0 .7.1.9zM279.3 93.9l1.1-.2c-.1 0-.2-.1-.4-.1-.3.1-.5.2-.7.3zM476 199.7c0 .2 0 .2.1.3l-.1-.3zM476.8 191.8c0 .6 0 1.1.1 1.7.1-.9 0-1.4-.1-1.7zM276.5 91.8l-1.9.9c.7-.2 1.3-.5 1.9-.9zM471.5 102.7c.2.3.3.6.5.9-.2-.5-.4-.8-.5-.9zM283 412.3c-.2 0-.5 0-.7.1 0 .1 0 .1.7-.1zM340.3 392.8zM337.2 393.6c1 0 2.4-.5 3.1-.9-1 .2-1.9.4-3.1.9zM347.2 392.2h-.4c.2.1.3.1.4 0zM283.3 401.6c.1 0 .1 0 0 0zM295.8 399.1h.9-.9zM379.1 389.4z"/><path class="st0" d="M463.7 378.8c-.2 2.8-.3 4.9-.4 5.4l-.3 5.9v2.2l.1 1.6c.1 1 .1 1.9.2 2.9.1.9.1 1.7.1 2.3v.7c.1.2 0 .5-.1.8-.1.1-.2.2-.4.2-.1 0-.2 0-.3.1H461.7c-.8-.1-1.8-.1-3-.2h-.4-.1l-.7-.2c-1.7-.5-3.3-.9-4.9-1.4-3.2-1-6.4-2.1-9.7-3.1-6.5-2.1-13.1-4.1-20.6-5.2-.4-.1-.7-.1-1.1-.1-.3 0-.6-.1-.9-.1H418c-1.1 0-2.1 0-3.1.1-2 .1-3.7.2-5.4.4-3.5.3-6.8.6-11.6.4-4.5-.2-9.1-.7-13.6-1.3-.3 0-.9-.1-1.3-.1h-.9l-1.7-.1-3.5-.1c-2.3 0-4.6 0-6.9.1-10 .5-17.5 3-27.1 3.9.6-.5.3-1 1.2-1.5-2.4.5-4.6 1.2-7 1.7-2.4.5-5 1-7.9 1.1-3.9.2-5-1.1-9.4.7-5.5.2-10.8-.1-17.6 1.5-.4 2.3-14.3 3.9-20.5 5.3-2.5.6-4.8 1.2-7.1 1.8-1.1.3-2.3.6-3.5.9-1.2.3-2.4.6-3.6.8-6.4 1-10 1.3-16.6 2-4 .4-7.1.5-10.1.3s-6.1-.7-9.6-1.7c-.9-.3-1.7-.5-2.5-.8-.8-.3-1.5-.5-2.1-.7-1.3-.4-2.4-.8-3.5-1.1-2.2-.7-4.4-1.1-8-1.7-7-1.2-5.9-1.1-13.5-3.5-5.1-1.5-10.4-2.9-15.8-3.7l-7.9-1.1c-2.6-.3-5.3-.7-7.9-1-7-.8-14-1.8-21-2.2-7.5-.4-13.8-.4-19.8-.7-3-.1-5.9-.4-8.9-.7-3-.2-6.1-.6-9.3-1.1-3.8 1.1-11.3 1.9-19.1 2.9-7.9.9-16.2 2-21.7 2.7-5.3.7-13.3 1.6-21 2.9-7.7 1.3-15 3-18.8 5 1.1-.1 11.6-.9 10.6-.3.4-.2.8-.6 1-.8.3.6 1.1.5-.1 1.4 3.6-1 7.1-1.9 10.5-2.9 2.3 0 .8.2 4.8-.4-.4.3-.1.7-.6 1.1.8-.4 1.5-.6 2.8-.9.4.1 1.3.1 1.6.3.3-.1 5-.9 5-.9.1.2.9.3 1.1.4 1-.9 5-1.8 7.5-1.5 3.4-.7 7-1.5 10.6-2 .4.4 1.7.4 1.7.9 1.2-.3 3.4-.6 4.5-1-.1.5 1 .4-.2 1.1 1-.3 2.5-.5 3.6-.8.8.1 2.5.2 3.1.4.2-.2.5-.4.7-.5.7-.1.9.2 1.6.1 2-.6 3.3-.5 4.8-.4 1.4.1 2.9.2 5.2 0 .3-.2.1-.3.3-.5h1.2c.3.2 1.2.4 1.6.6 0-.1.1-.2.4-.3 1.8.1 3.6 0 5.4 0 1.8 0 3.5.1 5.3.2-.3.1-.5.3-.6.4 3.7.2 7.4.2 10.9.2 2 1.5 13.2 1.7 18.8 2.2l.3-.3c3.9.7 8.4.7 11.6 1.4-.2.2-.2.3 0 .5 2 .3 5.1.8 7.2 1-.2-.1-.4-.3-.6-.4 1.3 0 2.6.2 3.8.3.4.2-.7.1-.2.3.7.3 2.6.5 3.5.8.3.1-1.1 0-1.1 0 1 0 1.6.1 2.1-.1 1.1.3 3 .6 4.2 1-1.4-.7.1 0 .5-.6 2.3.8 6.7 1.3 7.9 2.4 2.4.4 5.2 1.3 6.7 1.7.3.1 1.3.1 1.6.2.4.3 1.5.8 2.1 1.2.1-.1-.5-.4-.5-.5.9.2 3.2.9 4 1.1.6.6 4.1 1.9 7.9 3.2 3.8 1.3 8 2.4 9.9 2.9v.4c.4-.1 1.4-.1 1.7-.3.5.2.8.5 1 .7 1 .2 2.4.8 4 1.2 1.6.4 3.3.8 4.9 1.1-.6-1.1 4.5-.6 10.4-.4 6 .2 12.7-.2 15.2-.5.5 0 .4.3.6.4 1.1-.3 2.2-.6 3.1-.9 0 .1.1.4.3.6 1-.4 1.8-.7 2.8-.9.9-.2 2.1-.4 3.4-.7-.4.2-1.4.5-1.8.6 7-1.8 14.5-3.7 21.6-4.7 0 .2-.6.3-.6.4.8-.1 1.7-.4 2.6-.5-.2.2-.3.3-.2.4 1.7-.2 4.9-.7 6.7-1.1l1.2-.6c2.8-.4 6-1 8.8-1.5-.3.1-.7.3-1.1.4 1.3-.3 2.5-.6 3.7-1 .4 0-.2.3.2.2 5.9-1.5 8.6-1.5 14.4-2.3.1-.2-.6-.1-.6-.2 2.6-.4 2.4-.3 3.9-.2.2 0 1.5-.2 1.9-.2-.2.2-.4.3-.8.5 1.8-1 6.6-1.6 11.6-1.9 5-.3 10.1-.2 12.4.1 2.2-.5 4.8-.8 7.6-1 2.8-.1 5.7-.3 8.7-.2 1.5 0 3 0 4.5.1s2.9.1 4.3.2c.7 0 1.4 0 2.1.1H383.8l.5.1c1.3.2 2.6.3 3.8.4 4.5.4 8.2.2 13.5.8 3.1.3 6 .6 8.9.9 1.5.1 2.9.3 4.4.4l4.3.3h.2l.5.1.9.2 1.9.3c1.3.2 2.5.5 3.8.7a176.91 176.91 0 0 1 22.2 5.7c1.6.5 3.4 1.2 5.2 1.9l.7.3.3.1.6.2c.4.1.8.3 1.2.4.4 0 .9.1 1.3.1H458.6c.2 0 .3.1.5.1.4.1.7.1 1 .2.2 0 .4 0 .7.1.3 0 .6 0 1 .1 1 .1 2.1.1 3.3 0 1.1-.1 2.3-.2 3.4-.5s2.1-.6 3-.9c.5-.4.8-.7 1.2-1 1-.9 2-1.8 2.7-2.8.4-.5.7-1.1 1.1-1.6l.9-1.8c.2-.6.5-1.2.7-1.9.2-.7.4-1.3.5-2l.2-1c.1-.3.1-.7.1-.9 0-.5.1-1 .1-1.4.1-2.3 0-4.3-.1-6 0-.8-.1-1.8-.1-1.9 0-.9.1-1.8.1-2.7.1-1.8.1-3.6 0-5.3 0-1.8 0-3.6-.1-5.5-.1-8.2.6-13.4.3-20.2-.1.2-.2.5-.3.7.1-2.9.1-6.3-.5-8.8.2-.5.3-1.3.5-1.8-.3-1.6-.6-4.1-1-5.5.5-2.5.1-7.2 0-11.1-.7.3-.4.4-1-2.5.3-.3.6-1.5.9-1.6-.8.3-1.2-2.2-1.2-5.7.8-1.3.6-7.7-.5-9.4.1-.4.3-1 .5-1.3 0-1.3-.1-2.8-.2-4.4l-.3-4.9c-.1-3.3 0-6.5.3-8.4-.3-.6-.6-2.2-.9-2.8.3-.5.6-1.6.9-2-.3-.1-.6-1.2-.9-1.5.5-11.2.6-23 .8-34.5.2-10.1-.6-18.6.1-28.1-.1 1.4-.3 2.4-.5 3.6-.6-4.4.2-9.4.3-14.2.2-5 0-10 .2-14.9.2-4.5.4-7.4.4-10.4.1-3 0-6.1-.2-11 .5-2.7.7-1.9.2-4.5.2-.8.4-2.9.6-3.7-.1-.6-.2-1.7-.4-2.4.8-2.3 1.3-7.6 1.6-13.6.3-5.9.4-12.4.2-16.4-.1-2.9-.6-8.8-1.5-14.4-.5-2.8-1-5.5-1.5-7.6-.5-2.1-.8-3.6-.8-4.4-.2-.5-.4-1.1-.8-1.9-.4-.8-.7-1.8-1.2-2.9-1-2.1-2.3-4.5-3.9-6.7-3.1-4.3-6.9-7.2-7.1-8.1-1.3-.8-3.9-2.6-6.8-4-2.9-1.5-6-2.7-8.1-3.4-4.2-1.3-8.3-2.2-12.3-3l-5.9-1.1-5.8-1.1-6-1.1c-2-.4-4-.6-6-.9-2-.3-4-.6-6-.8l-6.1-.6c-2-.2-4-.3-6.1-.5l-6.1-.4-6.1-.2c-2-.1-4-.1-6.1-.1h-6.1c-2 0-4 .1-6 .2s-4 .1-6 .3l-6 .4c-11.3.9-24.7 2.4-37.3 5.1-12.6 2.6-24.6 6.4-33.3 10.5-1 .8-4 2.1-2.6 2.3-2.3.9-3.7.4-4 1 3.3-.7-.6 1.5 2.7 1.2l-2 .7c-.3.5 2.6-1.2 2.3-.5l.3-1.1c1.7-.4 2.6-.5 3.3-.3 1.4-.8 2-2.4 5.9-2.8l-1 .3c3-.8 2 .1 2.7.1l-.7.2 2.7-.2c-2 .2-5 1.8-3.3 1.3 3.6-.7-1 0 1.7-.8 1.6-.5 1.3.1 1.3.4 0 0 .7-.2 1.5-.4.7-.2 1.5-.4 1.5-.4 0 .4-2 .5-.7.6l3.7-1.3c1 .9 4-1.5 6-.9-2.7.9.3.3 0 .7l6.7-1.4c.7 0-1.7.7-.7.4 1.3 0 2-.7 2.7-.8.6.2 5-.9 5-.1 4.6-.3 1.8-1.3 6.1-1.5.3.2-.5.3-1.2.5-.7.1-1.2.3-.2.3l4.4-.8c-.4.3-.8.8-2.4 1 3-.3 5.7-.4 8.2-.5 2.5 0 4.8.1 7.1.1s4.5.1 6.8 0c2.3 0 4.8-.3 7.5-.6 1.6.4-1.1.4-2.2.8 1.4-.5 5.1-.5 8.8-.3 3.7.3 7.4.7 8.9.6.2-.1.3-.3.5-.4 9.3 1.1 20.6.8 30.6 2.1-.2-.1-.8-.2-.8-.4 1.4-.1 3.3-.2 5.2-.1.3.5 1.2.6 1.6.9-.4-.2-.8-.4-1.1-.6.2.2 1.1.5 2.3.8 1.3.3 3 .7 5 1 1 .2 2.1.4 3.2.6 1.1.2 2.3.5 3.6.7 2.5.5 5.2 1 7.9 1.5 5.5 1.1 11 2 15.2 3.2 4.2 1.1 7.2 2.3 8.4 2.9 3.6 1.6 6.6 3.8 8.6 6.4 1 1.3 1.8 2.8 2.4 4.4.1.4.3.8.4 1.2.1.4.3.8.4 1.3l.8 3.2.4 1.7.3 1.6.6 3.2c.3 2.2.6 4.3.8 6.5.4 4.4.6 8.9.6 13.5.4-.2.4.4.7.7-.5 2.4-.9 6.1-1.3 10.4-.4 4.3-.7 9.4-.9 14.6 0 5.1-.3 10-.4 14.6-.1 4.6-.1 8.7 0 11.6.1 3.6-1.4 12.9-.2 16.1-.3 9.1-.3 18.7-.2 28.8 0 8.2-1.4 32.9.3 37.3-.3 2.5-.4 5.3-.3 8.1.1-.7.1-1.4.2-2 .1 0 .4 0 .4-.1.2 1.2.2 2.8.2 4.2-.6.7-.8 2.3-.9 4.5-.1 2.2 0 5.1.1 8 .4 6.1 1.1 12.4.5 15.9.7.2 1 1.5 1.5 3.4-1.3 1.2-.9 7.7-.2 14.3.7 6.6 1.4 13.3.8 15 .3 2.8.2 1.7.2 4.4-.2-.7-.4-1.7-.6-2.4.5 2.6.7 5.7.5 8.6.1-.1.2-.2.3-.1v2.1c0 1.3 0 3-.1 5 .1 3.5-.2 8.4-.4 12.1z"/><path class="st0" d="M281.7 401.8l1.6-.2c0-.1 0-.3.7-.6l-2.3.8zM359.4 390.8c.2-.1.4-.1.6-.2-.4 0-.5.1-.6.2zM378.6 389c-1.4.1-.1.3.5.4 0-.1 0-.3-.5-.4zM239.4 408c.3 0 .5-.1.4-.2-.4 0-.5.1-.4.2zM119.2 388.4c.2 0 .3 0 .5.1-.1-.1-.3-.1-.5-.1zM126 389.7h1.4c-.6-.1-1-.1-1.4 0zM267.8 405.9c.4-.1.8-.2 1.2-.4-.7.2-1 .3-1.2.4zM128.8 389.6l1.7.2v-.1l-1.7-.1zM117 388.4h2.2c-.9-.1-1.6-.1-2.2 0zM196.5 398.1h.2c1.3.1.5 0-.2 0zM136.3 389.1h.2l.5-.1-.7.1zM109.4 388.3c.3 0 .6-.1.9-.1h-1c.1 0 .1.1.1.1zM171.1 392.7c-.5.2-.7.3-.7.4.5.1.9 0 .7-.4z"/><g><path class="st0" d="M261.2 260c.1.1.1.1.3.1-.2-.1-.3-.1-.3-.1zM263.4 198.2l.1.7c0-.5 0-.7-.1-.7zM260 297.1c0-.1 0-.1 0 0-.1.5-.1 1.3-.1 2.5l.1-2.5zM217 85.6l.8.2c-.4-.1-.6-.2-.8-.2zM263.5 143.8c-.1-.2-.2-.6-.3-1.1 0 .6.1 1 .3 1.1zM254.1 316.6l.4-1.1c-.1.1-.3.5-.4 1.1zM255.2 354.3c.1 0 .1 0 0 0 .1-.2.1-.1 0 0zM256.9 339.6c0-.3-.1-.7-.2-1.1.1.5.1 1.1.2 1.1zM256.7 338c0 .2.1.3.1.5 0-.2-.1-.5-.1-.5zM19.1 389.2c0 1.1.3 2 .5 3l-.5-3zM96 75.6l.2-.2c-.2.1-.3.2-.2.2zM22.4 390.6l-.1.8c.1-.4.1-.6.1-.8zM253.4 296.7c-.4-1.1.1-3.3-.2-3.3 0 1.1-.3 2.7.2 3.3zM73.3 93.4l-.7.2c.3-.1.5-.1.7-.2z"/><path class="st0" d="M22.4 390.6l.1-.9c-.1.1-.1.2-.2.3.1.1.1.3.1.6zM15.1 153.5c0-.1 0-.2-.1-.3l.1.3zM14.5 160.1c0-.5-.1-.9-.1-1.4-.1.7 0 1.1.1 1.4zM19.6 392.2l.3 1.7c0-.6-.1-1.1-.3-1.7zM15.6 231.4v-.7c-.1.3-.1.5 0 .7zM263.5 148.9c0 .2 0 .4-.1.6.2.1.2 0 .1-.6zM244.9 106.8zM246.8 107.7c-.4-.5-1.3-.8-1.9-.9.6.4 1.1.6 1.9.9zM241 104.7c.1 0 .1.1.2.1 0 0-.1-.1-.2-.1zM252.9 147.5c.1 0 .1.1 0 0 .1 0 .1 0 0 0zM252.1 137.2c.1-.2.1-.4.1-.7 0 .2 0 .4-.1.7zM216.1 98.1c0-.1 0-.1 0 0z"/><path class="st0" d="M120.5 88.7c2.3.1 4 .1 4.5.1 8.4-.1 16.4-.7 24.6-.6 2.8 0 5.6.3 8.3.7 2.7.3 5.4.9 8 1.4 2.7.5 5.3 1.1 8.1 1.6 2.7.5 5.5 1 8.5 1.2 4.1.4 7 .4 9.8.3 2.8-.1 5.6-.1 9.4.4 7.3 1.2 14.4 4 21.5 6 1.9.5 3.7 1 5.5 1.3 1.8.4 3.6.6 5.3 1 1.8.3 3.5.7 5.3 1.1l1.3.3.7.2.6.2c.4.1.8.3 1.1.4.4.1.7.3 1.1.5-.6.2-.7.7-1.4.8 1.5.4 3 .9 4.3 1.7 1.3.9 2.6 2.1 3.1 3.8.4 1.1.1 1.9 0 2.6 0 .2-.1.3-.1.5v.7c0 .3 0 .5.1.8.1.4.1.4.2.7.1.4.3.8.5 1.2-.1 4.4-.6 8.8.3 14.3 1.1.2 1.7 3.2 2.1 6.7.2 1.8.3 3.7.4 5.5.1 1.8.1 3.5.2 4.7.3 4.2 1.1 7.7 1.2 12 .1 5.5-.1 8.4.3 14.1.4 6.8.4 10.6-.5 17-.4 3.3-.7 5.3-.8 7.2-.1 2-.1 3.9.4 6.9.9 5.9.7 5 .5 11.5-.2 8.7 0 17.4 0 26.2 0 5.8-.3 11.6-.3 17.3.2 12.3 1.4 20.8-1.2 31 1.9 6.2 1.4 24.5.9 33.6-.5 8.7-2.6 26.5-.4 33.4.2-.9 1.7-9.5 2.1-8.6-.2-.4-.4-.8-.6-1 .7-.2.7-.8 1.4.3l-.6-9c.4-1.8.4-.6.6-4 .3.4.6.2.9.7-.2-.7-.3-1.3-.3-2.4.2-.3.4-1 .6-1.3v-2.2-2c.2-.1.4-.6.6-.8-.7-.9-.9-4.4-.2-6.4-.2-2.9-.4-5.9-.4-8.9.4-.3.7-1.4 1.1-1.3-.2-1-.2-2.8-.4-3.8.5.1.5-.8 1.1.3-.2-.9-.2-2.1-.4-3 .2-.6.5-2.1.7-2.5-.2-.2-.3-.4-.5-.6 0-.6.3-.7.2-1.3-.7-3.4.5-4.5.2-8.3-.2-.3-.3-.1-.5-.3v-1c.3-.2.5-1 .7-1.3-.1 0-.2-.1-.3-.4.3-3.1 0-6 .1-9 .2.2.3.4.5.5 0-3.1-.1-6.1-.4-9 1.4-1.7 1-11 1-15.6-.1-.1-.2-.1-.3-.2.4-3.3 0-7 .4-9.7.2.1.4.1.5 0 .1-1.7.2-4.3.1-6.1-.1.2-.2.4-.3.5-.2-1.1-.1-2.2-.2-3.2.2-.3.2.5.3.2.2-.6.1-2.2.3-3 0-.2.2.9.2.9-.1-.8-.1-1.3-.4-1.7.2-.9.2-2.6.4-3.6-.5 1.2 0-.1-.7-.4.4-2.1 0-5.8.8-7-.1-2 0-4.5 0-5.8 0-.3-.2-1.1-.2-1.4.2-.4.4-1.4.5-2-.1-.1-.2.5-.3.5-.1-.8 0-2.8-.1-3.4.4-.6.7-3.7.8-7 .3-3.2.4-6.7.5-8.2h.4c-.2-.3-.4-1.1-.6-1.3.1-.4.3-.7.5-.9.1-1.7.7-4.5 1-7-1 .6-1.1-3.5-.9-8.2.2-4.7.5-10.1.5-12.2.1-.4.4-.3.5-.4-.2-.9-.4-1.8-.6-2.6.1 0 .4 0 .6-.2-.6-1.7-.6-2.8-.8-5.1.1.4.2 1.2.3 1.5-.6-5.8-1.2-12.4-1.3-18.4.2 0 .2.5.3.6 0-.7-.2-1.5-.1-2.2.1.2.3.3.4.2 0-1.5-.1-4.2-.3-5.7-.2-.3-.3-.7-.5-1 0-2.4-.4-5.1-.7-7.5l.3.9c-.2-1.1-.4-2.1-.7-3.1 0-.3.3.2.2-.2-.5-2.5-.8-4.3-1-6.1l-.3-2.8v-.2-.1s0-.1 0 0v-.3-.6c-.1-.8-.2-1.6-.4-2.5-.2-.1 0 .7-.2.7-.3-1.5-.5-2.2-.7-2.7-.1-.5-.2-.9-.4-1.7 0-.1-.2-.5-.4-.9s-.5-.8-.6-1c.2.1.5.3.9.6-.8-.8-2-2.3-3.6-3.9s-3.6-3.3-5.8-4.8c-1.1-.7-2.3-1.4-3.4-1.9-1-.5-2-.9-2.9-1.4-1.7-.8-3.1-1.5-3.9-2.1-1.9-.3-4-.9-6.3-1.6-2.3-.7-4.7-1.5-7.1-2.3-4.8-1.7-9.7-3.3-13.6-4.3-1.8-.4-3.6-.7-5.4-1-1.8-.3-3.7-.6-5.9-1.1-5.1-1.1-9.6-2-14.8-2.8-8.8-1.3-17.6-2.1-25.9-3.4-2.8-.4-6.5-1.5-9-1.7-1.6-.1-4.6.1-6.5 0-2.5-.1-4.9-.4-7.4-.6-3.1-.1-6.1-.1-9 .1l-8.9.6c-3.4.3-6.2.2-8.9.3-2.7.1-5.2.1-7.9.4l.6.3c-2.4 0-5.2.3-7.3.9-.4-.2-1.1-.2-1.5-.4-1.3.4-3.3.8-4.5 1.3-1.1-.2-2.6-.1-4.2.1-1.7.2-3.5.5-5.1.7.3.7.4.4-2 1.2-.3-.3-1.3-.4-1.4-.7.3.7-1.7 1.4-4.7 1.8-1.3-.6-6.6.4-7.8 1.8-.4-.1-.9-.1-1.2-.2-1.1.3-2.3.6-3.7 1-1.3.4-2.8.9-4.2 1.3a64 64 0 0 1-7.1 2c-.4.5-1.6 1.2-2 1.7-.5-.1-1.5-.1-1.9-.2 0 .3-.7 1-.8 1.3-1.1.4-2.3.8-3.4 1.2-1.1.5-2.3.9-3.4 1.4l-1.7.7-1.7.8-1.7.8-.8.4c-.2.1 0 0-.1 0h-.5l-.3.1c-.4.1-.7.3-1.1.4-.7.3-1.5.6-2.2 1-1.5.8-3 1.7-4.4 3-1.4 1.3-2.8 2.9-3.8 4.9-.2.5-.5 1-.7 1.5l-.2.6-.3.5-.5 1c-.5 1.2-1 2.4-1.3 3.7-.3 1.3-.6 2.6-.8 4.4v3.3c0 1 .1 1.9.1 2.9.1 3.8.2 7.5-.1 11.4.1-1.1.3-2 .4-3 .6 3.6-.1 7.8-.1 11.7-.1 4.1.3 8.3.2 12.4-.1 7.5-.2 9.7.7 17.7-.4 2.2-.5 1.6 0 3.6-.2.7-.4 2.3-.6 3.1.2.5.3 1.5.5 2-1.4 3.8-.9 18.2-.8 24.5.1 4.6 1.1 18.4.3 20.6.7 2.8 1.2 14.6 0 15.4.3 2-.3 8.4-.3 11.7-.2 26-.2 52 .4 77.9.4 18.3.7 43.2 3.8 58.5.5.9.8 3.6 1.4 2.6.2 2-.7 3-.2 3.3.3-2.8 1.3.8 1.9-1.9l.1 1.7c.4.3-.4-2.3.2-1.9l-.9-.5c.1-1.4.3-2.2.6-2.7-.4-1.3-1.6-2.1-1.1-5.3l.1.9c-.1-2.5.6-1.6.7-2.1v.6l.5-2.2c-.3 1.6.5 4.3.4 2.9.2-3-.2.8-.4-1.5-.1-1.4.4-1 .7-1l-.1-2.5c.4.1 0 1.7.4.7l-.5-3.2c1.1-.6-.6-3.5.5-5 .3 2.3.4-.2.7.2l-.1-5.7c.1-.5.3 1.5.3.6.3-1.1-.3-1.7-.3-2.3.3-.5 0-4.2.7-4.1.5-3.8-.9-1.6-.5-5.2.4-.5.1 2.8.6 1.2l-.2-3.7c.2.3.7.7.6 2.1.5-10 2.8-15.4 2.1-24.6.5-1.3.4.9.7 1.8-.9-2.4.9-12.3 1-14.8-.1-.2-.3-.3-.4-.5 1.2-7.8.5-17.3.9-25.9-.1.1-.1.7-.3.7-.3-1.1-.6-2.8-.6-4.4.5-.3.5-1.1.7-1.4-.2.4-.3.7-.5.9 1.6-1.8 1-35.1 1-40.5 0-15.7.6-31.5-.1-47.1-.4.2-.4-.4-.7-.6 1.7-8.3 1-32.7.3-42.3-.2-2.9 1-10.6-.3-13.2.1-7.5 0-15.4-.1-23.7v-3.1-.7c0-.1 0-.2.1-.3.1-.3.2-.7.3-1.1.2-.5.3-1 .6-1.5.1-.3.2-.5.3-.8.1-.3.3-.5.4-.8.4-.8.5-1.1.7-1.7v-.1c0-.1.2-.1.3-.3.3-.3.9-.7 1.7-1.1l1.2-.6c.2-.1.3-.1 1-.4.3-.1.5-.2.8-.3.3-.2.6-.3.9-.5 2.1-1.2 3.6-2.2 4.2-3 1.9-.5 3.9-1.4 5.9-2.3-.5.1-1.1.4-1.5.5 0-.1-.1-.3-.2-.3.8-.5 2-1 3-1.5.7.3 2 .1 3.7-.4.8-.3 1.7-.6 2.7-1 1-.4 2-.7 3.1-1.2 4.3-1.6 9-3.2 11.9-3.1 0-.7 1-1.1 2.4-1.9 1.2 1.2 6.2 0 11.4-1.1s10.6-2.2 12-1.6c2.3-.5 1.4-.3 3.6-.4-.6.2-1.4.5-1.9.7 2.1-.6 4.6-1 7-1-.1-.1-.2-.2-.1-.3 0 0 .2 0 .5-.1.3 0 .7-.1 1.2-.1 1.1-.1 2.5-.1 4.1-.2 1.6-.1 3.4-.1 5.2-.1 1.5 1.7 3.3 1.7 4.8 1.7z"/><path class="st0" d="M252.9 148.9v-1.3c-.1 0-.3 0-.5-.6l.5 1.9zM231.4 102h-.5c.4.1.5 0 .5 0zM216.4 98.6c1.1.2.2-.2-.3-.5 0 .1 0 .2.3.5zM255.1 184.9c-.1-.2-.1-.4-.3-.3.2.3.2.4.3.3zM253.5 285.5c0-.1.1-.2.1-.4 0 .1-.1.3-.1.4zM254.5 280c0-.3 0-.6-.1-1.1 0 .4 0 .8.1 1.1zM254.8 160.7c0-.4-.1-.7-.2-1 0 .5.1.8.2 1zM254.3 277.7l.1-1.4h-.1v1.4zM253.4 287.3c0-.6 0-1.3.1-1.8-.2.7-.2 1.3-.1 1.8zM255.3 221.9v-.2c-.3-1-.2-.4 0 .2zM253.4 271.5v-.2l-.2-.4.2.6zM253.1 293.4c0-.3 0-.5-.1-.7 0 .2 0 .5-.1.8.1-.1.2-.1.2-.1zM254.2 242.9c.2.4.4.5.5.6 0-.5-.1-.8-.5-.6z"/></g></g></svg>