<svg xmlns="http://www.w3.org/2000/svg" viewBox="0 0 500 500"><style>.st0{fill:#231f20}</style><g id="Layer_1"><path class="st0" d="M149.5 402.3l-.2.6.2-.6zM220.5 420.7l-1 .1c.7.1.9 0 1-.1zM105.5 399l.1-.2-3.1.1h1.5l1.5.1zM382.2 411.6h-1 1zM290.6 419.3c.2-.3.7-.5 1.2-.7-.7.1-1.1.3-1.2.7zM80.5 387.3l1.4.8c-.1-.4-.6-.8-1.4-.8zM35.8 399.4l.2.2-.2-.2zM54.1 399.5l1.2-.7c-.6.2-1.3.4-1.2.7zM55.8 398.5a2 2 0 0 0-.6.4c.4-.1.6-.2.6-.4zM277.9 83.4c-1.3.4-2.2 1.4-3.2 2.3l3.2-2.3zM488.6 349.7l.4.3c-.1-.3-.2-.3-.4-.3zM278.6 91.8l-1 .1 1-.1zM105 382.4c1.3-1 4.2 0 4.1-.9-1.4.1-3.5-.4-4.1.9zM451.8 320.9l-.1-.9.1.9zM278.6 91.8l1.1-.1-.4-.4-.7.5zM486.6 200l.2.3-.2-.3zM488.3 192.2l.3 1.7c.1-.9 0-1.4-.3-1.7zM274.6 85.7l-1.8 1.3a6 6 0 0 0 1.8-1.3zM480.9 97.7l.7 1.2c-.2-.6-.5-1-.7-1.2zM284.6 420l-.7-.1c-.1.2 0 .4.7.1zM339.5 385.7zM336.4 387.3c1 .1 2.4-.8 3.1-1.6-1 .1-2 .4-3.1 1.6zM346.5 385.4l-.4-.1.4.1zM281.8 393.8zM294.4 391.2l.9.2-.9-.2zM379 381z"/><path class="st0" d="M451.7 378.5l-.6 5.2-.1 5.6v1.6l.1 1.5.1 1 .1.9.4 2.6.2.9.1.3v.2l.1.1h.1l1.5.2 2.5.4 1.1.2 1 .2 1.6.4.7.2.6.2.9.4.7.4c.6.4.5.4.2 0l1.9-2.2-.3-1.4-.1-.7-.1-.9-.1-1.2v-1.5-2.8h-.2l-.4.1h-.7l-2.5-.1h-.6l-1.3-.4-2.2-.7-4.3-1.7-8.5-3.6a59.7 59.7 0 0 0-19-5.1h-.3l-.5-.1-.9-.1-1.8-.1-1.2.1-.9.1-3.2.6c-2 .5-3.8 1.1-5.6 1.7-3.5 1.2-7 2.5-11.8 2.7a38.3 38.3 0 0 1-10.2-.8l-1.7-.3-2-.4c-.9-.2-1.9-.2-2.6-.2l-1.8-.2-3.6-.3c-2.4-.2-4.8-.2-7.1-.1-5.1.3-9.5 1.8-13.9 3.3-4.4 1.5-8.6 3-13.5 3.3.6-1.1.2-2.4 1-3.6-2.3 1-4.6 2.1-7 3-2.4.9-5 1.5-8 1.3-4-.2-5.5-3.6-9.6-.2-5.7-.8-11.4-2.7-18.1-.6.1 5.5-14 5.8-20.2 7.3a48 48 0 0 0-7 2.4l-3.3 1.3a15 15 0 0 1-3.5.9l-2.2.3-2.1.2-3.7.4c-2.4.2-4.8.5-8 1.2-3.7.7-6.6.9-9.5.7a23 23 0 0 1-4.3-.8l-2.2-.7-2.2-.9-4.1-2a18 18 0 0 0-3.3-1.4c-2.1-.7-4.3-.9-8.1-.9-3.7.1-5.2 0-6.8-.3-1.6-.4-3.1-1-7-2.3-5.2-1.7-10.7-3-16.4-3.9l-8.1-1-8.1-.9c-7.1-.8-14.2-2.1-21.2-2.3-7.5-.2-14 .4-20 .2l-4.5-.3c-1.4-.2-3.1-.4-4.6-.8a46.8 46.8 0 0 1-9.7-2.9 54.3 54.3 0 0 1-19.3 5.3c-8 1.1-16.4 2-22 2.4-5.4.4-13.7.5-21.5 1.5-7.8 1-15.1 2.8-18.6 6.5 1.2.2 12.1 1.4 11.2 2.6l.8-1.7c.6 1.6 1.3 1.5.4 3.5 3.5-1.2 7-2.6 10.3-4 2.4.6.9.8 5 .4-.3.7.1 1.6-.4 2.4a5 5 0 0 1 2.7-1.4c.5.4 1.3.6 1.8 1.1l2.6-.5 1.6-.3.5-.1.2-.1c.2.4 1 .9 1.2 1.3.8-1.9 4.8-3.3 7.4-1.9 3.4-1.1 6.8-2.1 10.4-2.7.5 1 1.8 1.4 1.8 2.4 1.1-.7 3.3-1 4.4-1.7 0 1.2 1.1 1.2-.1 2.7 1-.6 2.4-.8 3.5-1.4.8.4 2.5.8 3.2 1.4l.6-1.2c.7-.1.9.7 1.6.4 1.9-1.1 3.3-1 4.7-.6 1.4.4 2.9.8 5.2.3.3-.4.1-.8.3-1.2l1.2-.1c.3.6 1.3 1.1 1.7 1.7 0-.3.1-.6.4-.8 1.8.2 3.5.2 5.3.1 1.7-.1 3.4-.1 5.2.1l-.7 1.2c3.7.2 7.4-.1 10.9-.5 1.9 3.6 13.1 3 18.6 3.5l.3-.8c3.9 1.2 8.3.6 11.5 1.8-.2.4-.3.9-.1 1.3 2 .5 5 1.1 7.1 1.1l-.5-.9c1.3-.2 2.6.1 3.8 0 .3.4-.7.3-.3.8.7.5 2.6.6 3.5 1.1.2.1-1.2.4-1.2.3 1-.2 1.6-.2 2.2-.7.5.3 1.3.5 2 .7l2 .8c-1.2-1.5.1-.1.7-1.7 2.1 1.4 6.4 1.1 7.3 3.5 2.3.2 5 1.2 6.4 1.7.3.1 1.4-.2 1.7-.2.3.5 1.3 1.4 1.9 1.9.2-.2-.4-.6-.4-.9 1 .1 3.2.9 4 .9.4 1.2 3.8 2.9 7.6 4.4 3.8 1.5 8.2 2.8 10.1 3.3l-.2 1c.5-.4 1.6-.8 2-1.2.4.4.7.9.9 1.3 1.1.3 2.5 1.1 4.2 1.8l2.7 1 2.6.8c-.5-2.6 5-2.2 11.3-1.9 6.4.4 13.5.6 16.2.2.5.1.5.9.7 1.1l3.1-1.7c0 .4.2 1.1.4 1.4 1-.8 1.8-1.3 2.7-1.7l1.7-.5 2-.4-.9.5-.9.5a90.4 90.4 0 0 1 21.7-5.3c.1.4-.6.5-.5.9.9.1 1.7-.5 2.6-.4-.2.3-.2.7-.1 1 1.7-.1 4.9-.5 6.7-.9l1.1-1.2c2.9-.1 6-.8 8.8-1.5l-1 .7c1.3-.4 2.4-.8 3.6-1.4.4.1-.2.6.3.6 5.7-2.1 8.4-1.6 14.2-2.2.1-.4-.7-.4-.6-.7 2.5-.4 2.4-.2 3.9.3.2.1 1.5-.3 1.9-.2l-.7 1.2c1.6-2 6.4-2.7 11.3-2.5 5 .1 10 1.1 12.3 1.9a23 23 0 0 1 7.3-1.6c2.7-.2 5.6-.2 8.5.1l4.3.4 4.2.5 1 .1H382l.5.2 3.8.5c4.5.4 8.3-.6 13.6 0l8.9 1 4.4.4 2.3.2 1.1.1H417.2l.9.1 1.8.3 3.7.6c2.4.4 4.9.8 7.3 1.4A87.7 87.7 0 0 1 448 423l1.5.9.4.2.7.3 1.3.6 2.5.7 2.6.6.9.3a50.5 50.5 0 0 0 14.9-2l3.2-1.1 1.9-1.5 1.6-1.4c1-.8 1.8-1.8 2.6-2.7a21 21 0 0 0 2.2-3 22.8 22.8 0 0 0 2.9-5.8 35.1 35.1 0 0 0 1.9-16l-.1-1-.1-.1v-2.5c0-1.9-.1-3.7-.3-5.6l-.4-5.7c-.6-8.5 1.2-13.8.8-20.7l-.8.7c.4-3 .5-6.4-.8-9 .5-.5.9-1.3 1.3-1.8-.8-1.6-1.1-4.1-2.1-5.5 1.5-2.5.9-7.3.8-11.2-1.9.4-1.1.4-2.2-2.4.8-.3 1.5-1.5 2.3-1.6-1.9.3-2.8-2.1-2.5-5.6 2-1.4 2.1-7.7-.5-9.3l1.3-1.3-.2-4.3-.3-4.7-.1-1.2v-1.2l.1-2.2c.1-1.4.4-2.7.8-3.6-.8-.5-1.4-2.2-2.2-2.8.7-.5 1.4-1.6 2.2-2-.7-.1-1.5-1.2-2.2-1.5 1.3-11.3 1.7-23.1 2.3-34.5.5-10.1-1.3-18.6.2-28-.3 1.4-.8 2.4-1.1 3.6-1.5-4.4.3-9.3.6-14.1.3-4.9-.3-9.9 0-14.8.3-4.4.6-7.3.5-10.3l-.3-4.7-.4-2.9-.5-3.5c1.2-2.7 1.5-2 .4-4.5.6-.8.9-2.9 1.5-3.7-.4-.6-.7-1.7-1.1-2.3 1.9-2.2 2.8-7.4 3.2-13.4a124.3 124.3 0 0 0-2.1-32.9l-.9-4.5-.8-4-.5-2.9v-1.1l.1-.9-.6-.9-.7-1.3-1.8-3.7a63.4 63.4 0 0 0-5.3-8.7c-2.1-2.9-4.3-5.3-6-7.2-.8-1-1.6-1.8-2-2.5-.5-.7-.7-1.3-.7-1.7-1.8-.9-5.1-3.2-8.6-5.2s-7.1-3.6-9.5-4.4c-4.8-1.6-9.3-2.6-13.4-3.5l-6-1.3-2.8-.6-2.9-.6-5.7-1-6.3-1-6.3-.9-6.3-.7c-2.1-.3-4.2-.4-6.3-.5l-6.3-.4-6.3-.2-6.3-.1-6.3.1-6.3.2-6.3.3-6.2.5a243.4 243.4 0 0 0-38.4 6.3A94.4 94.4 0 0 0 278 83.3c-.8 1.5-3.7 3.3-2.1 4.3-2.3 1.2-4.1-.6-4.1.8 3.5-.2 0 3.4 3.6 3.9l-1.9.9c-.1 1 2.5-1.8 2.4-.1l-.1-2.4c1.8-.2 2.8 0 3.6.6 1.3-1.4 1.4-4.7 5.5-4.4l-1 .4c3-.9 2.3 1 3 1.2l-.7.2 2.9.4c-2.1-.2-4.8 2.4-3.2 1.9 3.8-.3-1.1-.3 1.5-1.3 1.6-.6 1.5.8 1.6 1.5l1.5-.4 1.5-.4c.2 1.1-2 .4-.5 1.2l3.5-2c1.3 2.5 3.8-2.3 6.1-.1-2.6 1.2.4.8.2 1.8l6.7-1.5c.7.2-1.6 1.2-.6.8 1.4.5 1.9-1.1 2.6-1.2.7.6 5-.9 5.1.9 4.7.4 1.5-2.6 5.9-2.3.4.5-.5.7-1.1.9-.7.2-1.2.3-.1.7l4.3-1c-.3.6-.6 1.9-2.3 1.9 3-.1 5.7.2 8.2.6 2.5.4 4.9 1 7.1 1.5 2.3.4 4.5.9 6.8 1.1 2.3.2 4.7 0 7.4-.5 1.6 1.2-1 .9-2 1.9 1.3-1.2 5-.8 8.6-.1 3.6.8 7.2 2 8.7 2l.5-1c4.5 1.5 9.5 1.8 14.6 2.2l3.8.2 3.8.3c2.5.2 5 .4 7.4 1-.1-.3-.8-.5-.7-.9 1.4-.6 3.3-1 5.2-1 .2 1.2 1.1 1.4 1.4 1.9-.4-.5-.8-.8-.9-1.3.2.5 1 1 2.2 1.5 1.2.5 2.8 1.1 4.7 1.6l6.4 1.6 7.7 1.7c5.6 1.2 10.7 2.1 14.4 3.1l4.5 1.3 2.3.9a13 13 0 0 1 3 1.9c.7.6 1.2 1.1 1.5 1.7l.7 1.7.1.6.2.8.2 1.2.3 1.6.3 1.5.2 1.4.4 2.8.7 5.7c.4 3.9.6 8 .9 12.4 1-.2 1 .4 1.8.7a36 36 0 0 0-2.7 10.1c-.7 4.3-1.1 9.4-1.3 14.8v14.4c.1 4.7.3 8.8.6 11.8.4 3.6-3 13 .1 16.3-.4 9.2-.4 18.8-.3 29 0 8.2-3.7 33 .5 37.4-.8 2.5-1.2 5.3-.9 8.1l.4-2 1-.1c.4 1.2.5 2.8.5 4.2-1.5.7-2.1 2.3-2.3 4.5-.2 2.3 0 5.2.3 8.2l1 9.2c.2 2.8 0 5.3-.8 7.1 1.7.2 2.3 1.4 3.4 3.3-3.5 1.3-2.8 7.9-1.7 14.4 1.1 6.5 2.5 13.1.7 14.8.6 2.7.3 1.7.2 4.3-.4-.7-.8-1.7-1.3-2.3a15 15 0 0 1 .9 8.4c.3-.1.5-.2.8-.1v2l-.3 4.9-1.3 11.7z"/><path class="st0" d="M280.1 393.9l1.7-.1c-.1-.3-.1-.7.6-1.2l-2.3 1.3zM358.9 383.3l.6-.4c-.4 0-.5.2-.6.4zM378.4 379.9c-1.4.3-.1.7.5 1.1.1-.3.1-.7-.5-1.1zM239.8 402.2c.3-.1.4-.3.4-.6l-.4.6zM119.3 382l.5.2c0-.1-.2-.2-.5-.2zM126.3 384.6l1.4-.1c-.6-.1-1 0-1.4.1zM266.8 399.9c.4-.1.8-.3 1-.6-.6.1-.9.4-1 .6zM129.1 384.3l1.7.3v-.3h-1.7zM117 381.8c.7 0 1.7 0 2.3.2-.9-.4-1.6-.4-2.3-.2zM197.6 393.5h.2c1.5-.2.6-.2-.2 0zM136.8 382.2l.2.1.5-.4-.7.3zM109.2 381.5l.9-.3-1-.1.1.4zM171.8 386.8c-.6.5-.8.8-.8 1.1.6 0 1-.2.8-1.1z"/><g><path class="st0" d="M265.8 260l.7.2c-.3-.2-.5-.2-.7-.2zM270.6 198.4l.3.7c-.1-.5-.2-.6-.3-.7zM263.6 297.1l-.2-.1-.1 2.6.3-2.5zM219.5 75.9l.8.2-.8-.2zM271.6 143.3c-.3-.2-.4-.6-.5-1.1-.1.6 0 1 .5 1.1zM249.2 316.6l1-1c-.4-.1-.8.3-1 1zM252.7 354.3l.2-.1c-.1-.1-.2 0-.2.1zM256.6 339.6l-.4-1.1c.1.5.1 1.1.4 1.1zM256 338l.2.5c0-.2 0-.5-.2-.5zM11.9 389.3c0 1.1.7 2 1.3 3l-1.3-3zM94.8 65.3l.2-.4-.2.4zM20.2 390.6l-.2.8c.2-.3.2-.6.2-.8zM246.9 296.6c-.9-1.1.2-3.3-.7-3.3.2 1.1-.5 2.8.7 3.3zM75.6 104l-.6.2.6-.2z"/><path class="st0" d="M20.2 390.6l.2-.9-.5.3.3.6zM4.5 153.5l-.2-.3.2.3zM3 160.1l-.3-1.4c-.1.8.1 1.2.3 1.4zM13.2 392.3l.7 1.7a5 5 0 0 0-.7-1.7zM4.9 231.4l-.1-.7.1.7zM271.3 148.5l-.2.6c.3.1.4 0 .2-.6zM240.1 112.4c0 .1 0 .1 0 0zM241.9 112.3c-.2-.4-1.1-.3-1.7.2.3.1.6.2 1.7-.2zM238.1 110.9l.1.2-.1-.2zM245 148h0zM244.1 137.9l.4-.7-.4.7zM213.9 106.2c0-.1 0-.1 0 0z"/><path class="st0" d="M120.8 100.7l4.3.4c8-.1 15.8-1.9 23.8-2.5 2.8-.2 5.4.1 8 .7 2.6.5 5.1 1.4 7.7 2.2 2.5.8 5.1 1.7 7.7 2.4a36 36 0 0 0 8.2 1.1c4 0 7-.9 9.9-2 2.9-1 5.8-2 9.7-1.8 3.6.2 7.1 1.3 10.6 2.7l5.1 2.1 5.1 1.8c1.9.5 3.7.7 5.6.8h5.5c1.8 0 3.7 0 5.5.2l.7.1h.5l.8.1a4 4 0 0 1 1.5.6c-.8.7-1.5 2-2.2 2.7 1.1-.3 2.4-.6 3.6-.3 1.2.2 2.3 1.1 2.3 2.5 0 1-.9 1.9-1.5 2.5-.3.3-.5.6-.4.8 0 .2.4.5 1.1.8l-.1.2-.9 3.6c-.3 1.2-.7 2.2-.9 3.4-.5 2.3-.7 4.6 0 7.2 2.8 0 3.8 2.9 4.3 6.3.2 1.7.2 3.6.3 5.4 0 1.8 0 3.4.2 4.7.4 4.1 2.2 7.5 2.3 11.8.2 5.4-.5 8.3.4 13.9 1.1 6.7 1 10.5-.9 16.9-.9 3.2-1.6 5.2-1.8 7.1-.2 2 .1 4 1.2 7.1 2.2 6 1.7 5.1 1.4 11.6-.4 8.7.1 17.4.2 26.1.1 5.8-.7 11.5-.4 17.3.6 12.3 4 20.9-2.5 31 5 6.3 4 24.5 3 33.6-1 8.7-6 26.4-.4 33.4.5-.9 4-9.5 5.1-8.5-.4-.4-1.1-.8-1.5-1 1.7-.2 1.7-.8 3.5.3l-1.7-9c1-1.8.9-.6 1.4-4 .7.4 1.6.2 2.3.7-.5-.7-.8-1.4-.9-2.4.5-.3.9-1 1.4-1.3v-2.2-1.4-.6c.4-.1 1.1-.6 1.5-.8-1.7-.9-2.4-4.4-.6-6.4-.5-2.9-1-5.9-1.1-8.9 1.1-.3 1.6-1.4 2.6-1.2-.5-1-.6-2.8-1.1-3.8 1.2.1 1.3-.8 2.7.3-.4-.9-.5-2.1-1-3 .5-.6 1.1-2 1.7-2.5l-1.2-.6c-.1-.6.8-.7.6-1.3-1.9-3.4 1.1-4.5.4-8.3-.4-.3-.8-.1-1.2-.3v-1c.6-.2 1.2-1 1.7-1.3a1 1 0 0 1-.8-.4c.6-3.1-.1-6 .1-9l1.2.5c0-3.1-.5-6.1-1-9 3.5-1.7 2.3-11 2.3-15.6l-.8-.2c.9-3.3-.1-7 .8-9.7h1.3c.3-1.7.5-4.3.3-6.1l-.9.5c-.4-1.1-.3-2.2-.5-3.2.4-.3.4.5.8.2.4-.6.3-2.2.6-3l.5.9c-.4-.8-.4-1.3-1-1.7.4-.9.5-2.6.9-3.6-1.3 1.2-.1-.1-1.7-.4 1.1-2.1-.1-5.8 1.9-7-.3-2-.1-4.5 0-5.8 0-.3-.6-1.1-.6-1.4.4-.4 1-1.4 1.3-2-.2-.1-.5.5-.7.5-.1-.8-.1-2.8-.3-3.4 1-.6 1.6-3.6 2-6.9l.5-4.7.2-3.5h1c-.5-.3-1.1-1.1-1.6-1.3.3-.4.7-.7 1.1-.9.2-1.7 1.7-4.5 2.2-7.1-2.6.5-2.8-3.5-2.4-8.3.4-4.8 1.3-10.2 1.3-12.3.1-.4.9-.3 1.2-.5a21 21 0 0 0-1.3-2.6c.4 0 1.1 0 1.5-.2-1.4-1.7-1.5-2.8-1.7-5.2.2.4.5 1.2.8 1.5a72.9 72.9 0 0 1-1.9-18.7c.4 0 .4.5.8.5.2-.7-.2-1.5-.1-2.2.3.2.6.3.9.2.1-1.5.1-4.3-.1-5.8l-1.1-1c.2-2.5-.2-5.2-.7-7.7l.6.9c-.3-1.1-.7-2.1-1.2-3.2.1-.4.6.2.6-.2a24 24 0 0 1-1-3.8l-.4-2.9v-1l-.1-.9-.1-2-.2-2.2-.5-2.3c-.4-.1-.2.9-.6 1l-.9-3-.2-2.1-.5-1.1-.7-1.2c.5.1 1 .2 1.5.5-1.4-.7-3-2.4-5-4.4-2-2-4.4-4.3-7.1-6.4l-4.3-2.9-2.2-1.3-1.1-.6-.5-.3-.3-.2a27.5 27.5 0 0 1-3.7-3 21 21 0 0 1-6.7-1c-2.3-.7-4.8-1.7-7.2-2.7-4.8-2.1-9.7-4.3-13.7-5.4-1.9-.4-3.7-.5-5.6-.6-1.9-.1-3.9-.2-6.1-.7-5.2-1.2-9.9-2.2-15.2-2.9-9.1-1.1-18.1-1.3-26.7-3.6-2.8-.7-6.6-2.8-9.2-3.1-1.6-.2-4.7.6-6.8.6-2.6 0-5.1-.8-7.6-1-3.3-.2-6.3 0-9.3.3l-9.2 1.3c-3.6.6-6.6.3-9.3.2l-4.1-.1c-1.3 0-2.7 0-4.1.2l.6.8c-2.5-.2-5.4-.1-7.4 1.3-.4-.5-1.2-.8-1.7-1.2-1.3.9-3.4 1.3-4.5 2.5a9.1 9.1 0 0 0-4.5-.7c-1.7.1-3.6.5-5.3.7.5 1.8.5 1-1.8 2.4-.3-.7-1.5-1.4-1.8-2.2.5 1.9-1.5 3-4.7 3.2-1.5-1.9-7.3-1-8.2 1.9-.4-.3-1.1-.6-1.5-1-1.1.2-2.5.6-3.9 1.1l-4.4 1.5c-3 1-5.8 1.8-7.7 1.7-.2 1-1.4 2.1-1.7 2.9-.7-.5-1.9-.8-2.6-1.4.2.7-.5 1.8-.4 2.5l-3.8 1.1-3.8 1.3-1.9.7-1.9.8-1.9.8-.2.1h-.1s.1-.1 0-.1H26.1 26l-.3.1-.7.2a30.6 30.6 0 0 0-8.5 4.5 27.4 27.4 0 0 0-10.1 14.6l1.4-3.7-1.4 2.9A31.3 31.3 0 0 0 3.6 117v1.9l.2 2.9c.2 3.8.3 7.5-.4 11.4l1.1-3c1.5 3.6-.2 7.8-.4 11.8-.2 4.1.6 8.3.4 12.4-.4 7.5-.5 9.7 1.6 17.7-1 2.2-1.3 1.6-.2 3.6-.6.7-.9 2.3-1.4 3.1.4.5.7 1.5 1.1 2-3.6 3.8-2.5 18.2-2.3 24.5.1 4.6 2.6 18.4.5 20.6 1.8 2.8 2.8 14.6-.1 15.4.7 2-.7 8.4-.8 11.7-.7 26-1.1 52 .1 78 .8 18.3 1.3 43.2 8.9 58.5 1.2.9 2.1 3.5 3.6 2.5.5 2-1.7 3-.5 3.3.8-2.8 3.2.8 4.8-1.9l.3 1.7c.9.3-1-2.3.6-1.9l-2.3-.5c.3-1.4.8-2.2 1.6-2.7-.9-1.3-4.1-2.1-2.7-5.3l.1.9c-.1-2.5 1.5-1.6 1.9-2.1v.6l1.2-2.2c-.8 1.6 1.1 4.3 1 2.9.6-3-.6.8-.9-1.5-.1-1.4 1.1-1 1.9-1l-.1-2.5c1.1.1-.1 1.7 1.1.6l-1.2-3.2c2.7-.6-1.4-3.5 1.2-5 .7 2.3.9-.2 1.8.1l-.2-5.7c.4-.5.9 1.5.7.6.8-1.1-.7-1.7-.7-2.3.7-.5-.1-4.2 1.8-4.1 1.2-3.8-2.3-1.6-1.3-5.2 1.1-.5.3 2.8 1.4 1.2l-.4-3.7c.5.3 1.8.7 1.6 2.1 1.4-10 7.2-15.5 5.6-24.6 1.3-1.3.9.9 1.8 1.8-2.3-2.4 2.5-12.3 2.6-14.8l-1-.4c3-7.8 1.4-17.3 2.4-25.9-.3.1-.4.7-.8.7-.7-1.1-1.3-2.8-1.5-4.4 1.1-.3 1.3-1.1 1.8-1.4-.4.4-.7.7-1.2.9 4.1-1.8 2.9-35.1 3-40.5.1-15.6 1.8-31.5.3-47.1-1 .2-1-.4-1.8-.6 4.4-8.3 3-32.7 1.3-42.3-.5-2.9 2.6-10.6-.6-13.2.2-7.5 0-15.3 0-23.6v-1.1-.6-.5-.2l.1-.1.2-.2.4-.3.2-.1.3-.2-8.7-6.4.6.4c.7.5 1.7 1.5 2.8 2.9l.8 1.2.8 1.3.8 1.4.4.8.2.4.1.2c0 .1.1.1 0 .1l.1-.1h.1l.2-.1.3-.1 1.2-.5 1.8-1 .5-.3.4-.2.3-.2 1.1-1c.7-.7 1.1-1.4 1.2-2.1 2 0 3.9-.5 5.7-1.5l-1.5.2a4 4 0 0 0-.5-.9c.7-.7 1.7-1.2 2.6-1.6 1 1.1 2.3 1.3 3.9 1l2.5-.8 2.8-1.2c3.8-1.8 8.1-3.8 11.1-2.5-.2-1.7.6-2.4 1.8-3.7 1.6 3.2 6.2 2 11.1.5 4.9-1.5 10-3.2 11.5-1.5 2.1-.8 1.3-.4 3.4-.4l-1.8 1.4c2-1.1 4.4-1.8 6.8-1.4l-.2-.8c0-.1 2.6-.2 5.6-.1 1.5 0 3.3.1 4.9.3 1.7.3 3.4.4 4.8.5z"/><path class="st0" d="M244.9 149.3l.1-1.3c-.3 0-.7 0-1.1-.6l1 1.9zM229.2 109.1l-.6.2c.3.1.5 0 .6-.2zM214 107.3c1.1 0 .3-.7-.1-1.1-.1.2-.1.6.1 1.1zM249.3 184.8c-.1-.2-.3-.4-.6-.3.3.3.4.4.6.3zM247.1 285.5l.2-.4-.2.4zM249.5 279.9c0-.3 0-.6-.2-1.1-.1.5 0 .8.2 1.1zM248.7 160.9a2 2 0 0 0-.5-1c.1.5.3.8.5 1zM248.9 277.6l.2-1.4h-.3l.1 1.4zM246.9 287.2l.2-1.8c-.4.8-.4 1.3-.2 1.8zM250.6 221.9v-.2c-.7-1.1-.4-.4 0 .2zM246.5 271.5l.1-.2-.4-.4.3.6zM246.3 293.3a1 1 0 0 0-.3-.7l-.2.8.5-.1zM248.2 242.9c.5.4.9.6 1.2.6 0-.5-.3-.8-1.2-.6z"/></g></g></svg>