<?xml version="1.0" encoding="utf-8"?>
<!-- Generator: Adobe Illustrator 22.1.0, SVG Export Plug-In . SVG Version: 6.00 Build 0)  -->
<svg version="1.1" id="svg" xmlns="http://www.w3.org/2000/svg" xmlns:xlink="http://www.w3.org/1999/xlink" x="0px" y="0px"
	 viewBox="0 0 410 410" style="enable-background:new 0 0 410 410;" xml:space="preserve">
<g id="svgg">
	<path id="path0" d="M309.5,53.1c-2.5,0.7-3.6,1.2-7.3,3.8c-7.6,5.3-7.8,5.5-14.4,14.2c-0.4,0.6-1.5,2.3-2.4,3.7
		c-0.8,1.5-2.3,3.9-3.2,5.5c-0.9,1.6-1.6,3.1-1.6,3.5v0.7l1.9-0.7c3.1-1.1,7.7-3.4,9-4.5c0.6-0.5,1.3-1,1.4-1c0.1,0,0.8-0.5,1.5-1.1
		c0.7-0.6,3-1.9,5-3c2-1.1,3.9-2.1,4.2-2.4c0.6-0.5,3.5-1.7,4.1-1.7c0.2,0,1.2-0.1,2.2-0.3c11-2.3,19.9-3,26.3-2.1
		c1.4,0.2,1-0.2-0.8-0.8c-3.4-1.1-17.3-0.5-25.4,1.1c-1.2,0.2-2.3,0.4-2.4,0.3c-0.5-0.5,2.5-1.3,7.5-2.2c7.4-1.2,7.8-1.3,12.8-1.5
		l4.3-0.2l-1.7-0.3c-2.7-0.5-8.3-0.7-11.1-0.3c-8.1,1.1-7.4,0,0.9-1.6c7.7-1.4,11.3-0.9,20.1,3c2.1,0.9,2.2,0.9,0.6-0.2
		c-3.7-2.7-15.3-5.9-19.9-5.6c-2.8,0.2-3-0.2-0.6-1c2.2-0.7,9.8,0.1,14.6,1.6c0.7,0.2,1.7,0.4,2.1,0.4c2.5,0,8.4,2.8,12.2,5.7
		c1.3,1,2.4,1.7,2.4,1.6c0-0.8-5.5-5-9.3-7c-0.8-0.4-1.4-0.8-1.4-1c0-0.5,3.5,0.8,5.1,1.8c0.4,0.3,0.9,0.5,1.2,0.6
		c1.2,0.3,5.3,3.3,6.6,4.8c3,3.4,3.1,3.5,1.5,1c-5.2-7.9-10.9-10.9-25.6-13.4c-3-0.5-6.1-1.2-6.9-1.4
		C320.6,52.5,311.9,52.5,309.5,53.1 M345.9,68c0,0.3,0.7,0.9,2.1,1.7c0.7,0.4,1.5,1,1.9,1.3c0.4,0.3,1.3,0.9,2,1.2l1.3,0.6l-1.1-1
		C350.1,70,345.9,67.4,345.9,68 M328.6,70.1c-0.4,0.1-2,0.4-3.6,0.8c-1.6,0.4-3.5,0.7-4.2,0.7c-1.8,0-4.8,0.5-4.5,0.8
		c0.3,0.3,8.5,0.3,9.8,0c3.6-0.9,15.3-0.9,17.4,0.1c0.7,0.3,0.8,0.9,0.2,0.6c-0.5-0.2-6.7-0.5-6.5-0.4c0.1,0.1,1.7,0.5,3.6,0.9
		c7.3,1.5,16.1,5,17.6,6.9c0.4,0.6,0.9,0.9,1.3,0.9c2.1,0,6.6,4.8,7.7,8.4c0.2,0.7,0.8,1.8,1.1,2.3c0.4,0.5,0.6,0.7,0.5,0.4
		c-0.1-0.3-0.4-1.1-0.7-1.7c-0.3-0.7-0.6-2-0.7-2.9c-0.2-2.1-2.4-4.5-6-6.7c-1.1-0.7-2.5-1.7-3.1-2.3c-0.6-0.6-1.6-1.3-2.1-1.6
		s-2.1-1.1-3.3-1.8C345.7,71.4,334.9,69,328.6,70.1 M308.2,74c-2.1,0.7-3.7,1.5-5.5,2.7c-1.3,0.9-5.3,4.2-5.3,4.3
		c0,0.5,1.4-0.1,3.5-1.5c2.7-1.8,6.6-3.8,7-3.7c0.1,0.1-0.8,0.7-2.1,1.5c-8.5,5.2-15.8,10.7-15.8,11.9c0,0.5,0.3,0.4,1.3-0.5
		c4.5-3.9,12.2-8.6,16.9-10.3c2.6-0.9,6.5-1.9,6.7-1.7c0.1,0.1-0.9,0.4-2.1,0.7c-5.2,1.5-8.1,2.9-14.5,7.2c-4.4,3-9.4,7-9.4,7.5
		c0,0.5,0.7,0.2,3.4-2c2.8-2.1,7.9-5.1,13.5-7.9c7.5-3.8,15.4-5.1,21.4-3.8c3.2,0.7,9.1,2.3,10.3,2.8c0.9,0.4,1,0.4,0.5,0
		c-0.9-0.7-6.2-3.3-6.8-3.3c-0.3,0-1.2-0.2-1.9-0.5c-0.8-0.3-2.4-0.8-3.5-1.1c-1.2-0.3-2.4-0.7-2.7-0.9c-0.3-0.2-0.9-0.4-1.3-0.4
		c-0.4,0-1-0.2-1.3-0.4C318.4,73.5,311.4,73,308.2,74 M329.7,75c-0.6,0.4,0.6,0.7,4.5,1.4c2.3,0.4,3.4,0.5,3.7,0.3
		c1.1-0.9,9,2.2,13.7,5.4c1.6,1.1,2,0.9,0.6-0.4c-3.4-3.1-10.6-6-14.9-6.1c-0.8,0-2.6-0.2-4-0.4C330.1,74.7,330.2,74.7,329.7,75
		 M343,81.2c1.7,1.1,3.9,2.5,4.9,3.2c2.2,1.4,5.2,4.3,5.8,5.6c0.2,0.5,1.1,1.5,1.8,2.2c3.7,3.4,4.3,4,5.3,6.2c1.6,3.2,2,2.8,0.7-0.6
		c-0.9-2.4-1.9-3.8-5.4-7.4c-7.3-7.5-11.7-10.7-15-11.1l-1.3-0.1L343,81.2 M293,81.5c-5.7,3.3-10.3,7.3-15.2,13.4
		c-3.5,4.4-4.3,6.2-4.3,9.8c0,4.3,0.5,4.7,1.7,1.1c1.5-4.7,2.6-5.2,1.5-0.6c-0.8,3.3-0.8,3.8-0.4,3.8c0.6,0,0.9-0.4,1.2-1.9
		c0.5-2.7,4.6-11.4,5.9-12.7c0.7-0.7,1.1-1.4,1.1-1.8c0-0.5,0.9-1.5,4-4.3c2.2-2,4-3.7,4-3.8c0-0.2-4.8,3.4-6.3,4.8
		c-2.2,2-5.1,5.3-7.3,8.3c-2.1,2.9-2.4,2.8-0.6-0.3c3.4-5.7,8.7-11.1,16-16.1C297.1,79.3,296.6,79.4,293,81.5 M322.1,81.6
		c-0.1,0.2,1.6,0.6,5.3,1.2c8.6,1.3,13.1,3.4,18.1,8.1c3.6,3.4,4.6,4.3,5.1,4.3c0.6,0,0-0.7-3.6-4.4c-6.5-6.6-12.3-9.2-20.5-9.4
		C324.2,81.5,322.1,81.5,322.1,81.6 M356.3,83.9c0,1,2.5,4.5,5.1,7c4.3,4.1,5.7,6.8,6.4,11.8c0.4,2.6,0.4,2.6,0.8,1.1
		c1.4-5.5,0.2-8.1-6.3-14c-2.4-2.2-4.9-5.1-5.3-6C356.7,83,356.3,83.2,356.3,83.9 M282.3,86.2c-0.6,0.2-1.7,0.8-2.5,1.2
		c-0.8,0.4-1.6,0.7-1.8,0.7c-0.8,0-3.6,4.7-3.6,6.1c0,0.8-0.3,1.1,4.8-3.9c2.5-2.5,4.5-4.5,4.4-4.5
		C283.5,85.7,282.9,85.9,282.3,86.2 M317,87.7c-8.2,1.2-16.1,3.3-18.3,5c-0.6,0.5-2,1.3-3.1,1.9c-7.8,4.2-10.9,10-8.6,16.1
		c0.9,2.4,1.6,3.2,1.6,1.7c0-2.7,5.1-3.3,8.7-1c2.1,1.3,2.5,1.3,2.5,0.2c0-2.4-6.6-4.6-10.5-3.5c-1.5,0.4-1.5,0.5-1.1-1.7
		c0.4-2.1,0.6-2.3,3-2c5.7,0.8,11.6,4.9,10.9,7.5c0,0.1-0.2,0.9-0.3,1.8c-0.1,0.8-0.7,2.5-1.4,3.8c-1.6,3.3-1.6,6.7-0.2,8.8
		c0.8,1.1,0.8,1.1,1-1.5c0.4-3.5,1.1-4.2,5.2-4.7c2.3-0.3,2.5-0.8,2.2-4c-0.2-2-0.1-2.9,0.1-3.5c0.3-0.8,2.3-2.8,2.8-2.8
		c0.1,0,1.1-0.8,2.1-1.8c5.6-5.5,14.2-8.2,23.3-7.2l2,0.2l-1.8-1c-2.8-1.5-5.8-1.9-9.2-1.1c-1,0.2-1.8,0.3-1.8,0.3
		c-0.4-0.4,7-2.3,10.6-2.7l1.2-0.1l-1.5-0.5c-1.1-0.4-2.5-0.6-5.6-0.7l-4.1-0.2l-1.6,0.9c-4.3,2.4-5.2,3.2-7.9,6.6
		c-2,2.5-2.8,3-4.3,2.2c-1.2-0.6-1.2-0.6,0.4-1.7c1.8-1.2,3.4-3.1,4.8-5.7c2.1-3.8,5.1-6.2,8.2-6.5c3.3-0.3,3.2-0.9-0.5-2.1
		C321.8,87.8,319.3,87.4,317,87.7 M329.6,106.8c-0.3,0.2-0.2,0.5,0.5,1.4c0.5,0.6,0.9,1.5,1,1.9c0.3,1.2,0.4,1.2,1.2,0.7
		c0.7-0.5,1.6-2,1.6-2.6C333.9,107.5,330.3,106.4,329.6,106.8 M338.5,107.9c-3.3,4.8-4.7,5.6-10.8,6.7c-10.1,1.8-11.5,2.8-9.1,6.5
		c1.1,1.7,3.4,6.6,3.4,7.2c0,0.8,3.4,2.2,5.3,2.2c1.9,0,2.6,3.4,1.9,9.3c-0.4,2.8-0.3,2.8,1.1,0.7c2-3.1,2.2-4,2.1-8.6
		c-0.3-8.1,0.4-10.8,3.6-15.4c1-1.4,4-9.6,3.6-10C339.4,106.6,339,107.1,338.5,107.9 M322.1,107.5c-1.1,0.5-2.5,1.9-3.2,3.2
		l-0.4,0.8l1.3,0.6c1.7,0.7,2.5,0.7,2.4-0.2c-0.1-1.2,0.5-2.7,1.4-3.4C325.4,107.1,324.3,106.5,322.1,107.5 M360.9,107.2
		c-2.2,0.8-6.3,8.2-6.5,11.6c-0.1,1.3-0.3,2.6-0.7,3.3c-1.1,2.5-0.7,2.7,1.2,0.8c2-2,2.5-3.2,2.5-5.9c0-2,0.8-4.5,1.8-5.5
		c1.8-1.9,4.9-3,5.5-2c0.3,0.5,0.6,0.2,0.6-0.7C365.4,107.3,362.9,106.4,360.9,107.2 M281.3,111.2c-0.1,0.2-0.2,1-0.2,1.8
		c0,5.3-4.6,19.2-7.9,24.1c-1.3,1.9-4.1,4.8-6.5,6.8c-1.3,1.1-2.7,2.4-3.3,2.9c-1.4,1.3-5.1,4.3-8.7,7c-4,3-10.8,6.4-19.4,9.6
		c-5,1.9-8.6,3.6-10.8,5.2c-0.9,0.6-7.9,5.1-8.9,5.7c-0.2,0.1-0.6,0.2-1,0.3c-1.1,0.1-3.7,2.1-7.4,5.6c-1,1-1,1-0.2,0.4
		c0.5-0.4,1.5-1,2.3-1.4c0.7-0.4,1.8-1.2,2.3-1.7c0.5-0.5,1-0.8,1-0.6c0,0.6-1.6,2.2-3.7,3.6c-4.2,3-8.8,8.1-9.7,10.8
		c-0.2,0.6-0.9,1.9-1.6,3.1c-2,3.2-4.4,12.8-5,20.4c-0.5,5.8,1,12.3,3.5,15.5c1.7,2.1,2.5,1.6,1.1-0.8c-1-1.7-1.6-4-1.8-6.6
		c-0.2-2.9,0.3-20.5,0.7-21.2c0.2-0.4,0.2,1.3,0.1,4.9c-0.1,3.3,0,5.3,0.1,5c0.4-0.7,1-4.8,1.2-8.2c0.1-1.8,0.4-4.4,0.7-5.6
		c1-4.6,1.4-4.5,0.5,0.2c-0.3,1.5-0.5,3.4-0.5,4.1l0,1.4l0.9-2.8c0.5-1.5,1-3.8,1.2-5.1c0.3-2.2,1.5-6.6,1.8-6.3
		c0.1,0.1-0.1,1.2-0.4,2.5c-0.3,1.3-0.6,3.1-0.7,4c-0.2,2.4,0.6,0.8,1.3-2.5c0.7-3.2,1.8-6.2,3.2-8.3c1.6-2.4,1.6-1.7,0,1.4
		c-1.3,2.6-2.6,6.6-2.4,7.2c0.3,0.8,3.4-3.9,3.9-6c0.6-2.3,1-3.3,1.1-2.5c0,0.2-0.2,1-0.4,1.8c-0.6,2.1-0.4,2.1,0.9,0.1
		c0.6-1,1.6-2.3,2.2-3c0.5-0.6,1.6-2.3,2.2-3.7c1.2-2.5,4.8-6.7,5.8-6.7c0.2,0-0.6,0.9-1.7,2.1c-1.2,1.2-2.3,2.7-2.8,3.7l-0.8,1.7
		l1.3-0.8c0.8-0.5,1.6-1.3,2-2.1c0.9-1.6,3.3-4.9,3.5-4.7c0.1,0.1-0.6,1.1-1.4,2.2c-1.6,2.2-2.1,3-1.9,3c0.6,0,2.6-1.8,3.8-3.6
		c2.5-3.6,5.4-6.4,5.4-5.2c0,0.3-2.3,3.2-4.1,5c-0.6,0.6-0.9,1.1-0.7,1c1.6-0.9,3.4-2.4,6.6-5.6c3.6-3.6,6.2-5.6,7.2-5.4
		c0.3,0.1-0.3,0.7-1.9,2c-1.3,1-2.9,2.4-3.4,3l-1.1,1.1l2-1c1.1-0.6,3-2,4.3-3.1c2.5-2.2,3.8-3.1,3.8-2.5c0,0.2-0.8,1-1.7,1.9
		l-1.7,1.6l1.5-0.7c0.8-0.4,2.2-1.4,3.1-2.2c3.3-3,4.2-3,1.1,0c-2.3,2.3-2.3,2.3-0.3,1.5c1.3-0.5,2.2-1.2,5.1-3.9
		c3.9-3.6,6.5-5.8,8.8-7.2c2.3-1.4,2.3-1.1-0.1,0.5c-1.8,1.2-9.5,8.1-9.3,8.4c0.7,0.8,6.7-3.5,10.7-7.8c2.9-3.1,4.2-4.2,3.7-3.4
		c-0.4,0.8-2.2,2.8-4.1,4.8c-1.1,1.1-1.9,2.1-1.8,2.1c0.5,0,6.3-4.4,6.3-4.8c0-0.4,2.2-2.9,2.5-2.9c0.5,0,3.5-4.1,4.8-6.8
		c1.3-2.4,1.7-2.9,1.2-1.1c-0.5,1.7-2,4.4-3.3,6.2c-1.7,2.4-0.7,1.7,2.5-1.7c7.1-7.5,9.4-12,13.3-26.3c1.5-5.4,1.8-11.7,0.7-11.7
		C281.6,110.7,281.4,110.9,281.3,111.2 M363.5,111.1c0,0.2,0.1,0.5,0.3,0.5c0.3,0.2,0.2,0.9,0,1.3c-0.1,0.1-0.2,0.7-0.3,1.3
		c-0.1,0.6-0.3,1-0.4,1c-0.4,0-1.3,2.3-2,4.9c-0.4,1.5-0.9,3.1-1.2,3.6c-0.3,0.5-0.5,1.2-0.5,1.4c0,1.5-3.1,5-4.8,5.6
		c-1.4,0.5-1.3,2.1,0.2,3.6c1.8,1.8,3.3,1.6,5.5-0.8l1.3-1.4l0-1.9c0-1.1-0.1-2.4-0.2-2.9c-0.2-0.7-0.1-1.4,0.1-2.1
		c0.4-1.4,1.2-4.3,1.4-5.4c0.1-0.4,0.5-1.2,0.9-1.6c1.9-2,2.6-5.2,1.5-6.9C364.6,110.7,363.5,110.5,363.5,111.1 M369.2,112.8
		c-0.6,0.4-0.6,1.5-0.1,3c0.5,1.4,0.4,4-0.1,4.8c-0.1,0.2,0,0.3,0.1,0.3c0.6,0,1.8-1.6,2-2.6c0.2-1.5,0.4-1.7,0.7-1.6
		c1.1,0.4,0.1,3.6-1.7,5.6c-1.4,1.5-1.4,1.8-0.2,1.8c3.6,0,4.6-8.4,1.4-10.9C370.6,112.6,369.8,112.5,369.2,112.8 M292.7,114.2
		c-0.9,1.1-0.5,3.7,0.6,4.4c0.9,0.6,1.1,0.3,1.3-1.2c0.1-0.7,0.3-1.7,0.6-2.2c0.5-1.1,0.6-1-0.9-1.2
		C293.3,113.9,292.9,114,292.7,114.2 M375.6,117c-0.1,0.2,0.1,0.7,0.3,1.1c0.4,0.6,0.4,1.2,0.4,3.2c-0.1,2.5,0.2,2.8,0.7,0.8
		c0.3-1.3,0.7-1.1,0.6,0.3c-0.2,2-1.6,3.9-3.8,5.4c-1.9,1.2-2.1,1.6-1.1,1.6c1.1,0,5-2.9,5.6-4.2c0.5-1.2,0.6-4.6,0.1-6.4
		C378,117.1,376.1,115.9,375.6,117 M288.6,118.4c0,1.1-0.3,2.3-0.8,3.9c-3.4,9.5,0.8,19.2,13.5,31.5c4.9,4.7,5.5,4.9,9.5,2.9
		l2.5-1.3l4,0c4.3,0,5.4-0.3,7.9-2.1l0.9-0.7h-2c-1.3,0-2.9-0.2-4.5-0.7c-3.2-0.8-6.5-0.9-9.3-0.1c-2.2,0.6-3.6,0.7-4.6,0.3
		c-1-0.4-0.8-1,0.4-1.3c2-0.5,2-0.5,0.5-1.1c-3.1-1.1-3.2-2.5-0.3-2.8c4.6-0.4,11-2.8,12.3-4.5c1.1-1.4,0.9-3.8-0.2-2.8
		c-0.2,0.2-1.7,0.4-3.3,0.5c-2.4,0.2-3.2,0.3-4.6,1c-1,0.5-2.7,1-4,1.2c-1.2,0.2-2.4,0.6-2.7,0.8c-0.5,0.4-0.5,0.4-0.8-0.6
		c-0.6-2.3,0.8-4.1,3.3-4.1c1,0,1.3-0.1,1.6-0.7c0.9-1.7,2.1-2,7.9-2.2c4.6-0.1,5.3-0.2,6.3-0.7c1.2-0.6,2.3-1.7,1.3-1.3
		c-2.7,1.1-4.9,1-9.4-0.3c-3.5-1-5.4-0.8-6.9,0.8c-0.7,0.8-1,0.9-2.1,0.9c-1.7,0-2.9,0.7-3.3,2c-0.2,0.5-0.5,0.9-0.6,0.9
		c-0.5-0.2-0.2-2.5,0.6-3.9c0.7-1.3,0.7-1.4,0.2-1.6c-2.7-1.4-4.9-5.6-4.9-9.4c0-1.4-0.1-1.5-0.5-1.4c-2.2,0.9-4.4,1.2-5.1,0.7
		c-0.9-0.7-1.9-2.4-1.9-3.4c0-0.4-0.1-1.1-0.2-1.4C288.9,116.4,288.6,116.9,288.6,118.4 M311.8,119.2c-0.3,0.4-0.2,0.5,0.4,1
		c2.1,1.7,0.3,6-2.4,5.4c-0.9-0.2-0.8,0.4,0.2,1.2c2.4,2.1,6.1,0,6.1-3.4C316.1,120.6,313.1,117.6,311.8,119.2 M274,123.1
		c-0.4,0.3-1.4,1.1-2.1,1.8c-3.1,2.8-8.5,5.7-15,8.2c-3.8,1.4-6.5,3.1-8.9,5.6c-4.4,4.6-7.9,9.4-5.1,7c0.3-0.2,1.6-1.1,3-2
		c1.5-0.9,2.9-2.1,3.6-2.9c1.4-1.7,4.3-4,7.6-6c1.4-0.9,2.9-1.8,3.2-2c0.6-0.4,0.6-0.4,0.4,0c-0.1,0.3-2,1.8-4.2,3.5
		c-5.5,4.1-6.1,4.9-1.8,2.2c0.9-0.6,2.5-1.4,3.5-2c2.1-1,7.1-4.8,9.3-6.9c2.2-2.1,1.7-0.8-0.7,1.8l-1,1l0.8-0.4
		c2.2-1.1,8-6.5,8.7-8.1C275.9,122.6,275.2,122.1,274,123.1 M381.2,131.3c-0.7,0.8,1.7,2.1,3.8,2.1c0.9,0,7.8,2.9,10.4,4.3
		c3.3,1.9,4.7,3.3,6,6.1c1,2.1,1.5,2.3,1.2,0.5c-0.6-4.3-7-9.5-14.8-12.1C384.2,131.1,381.7,130.7,381.2,131.3 M374.9,135.2
		c-0.1,0.1,0.5,0.6,1.3,1.2c3.9,2.8,7.6,10,8.2,15.8c0.2,1.8,0,1.5-1-1.8c-1.5-5-4.1-9.2-7.3-11.8c-3.1-2.6-3-1.8,0.3,2.4
		c4,5,5.5,9.9,5.5,17.6c0,2.6,0.1,6,0.3,7.6c0.4,3.6,0,4.1-0.8,0.9c-0.9-3.8-1.4-6.9-1.6-10.7c-0.2-3.1-0.8-5.9-1.6-7.2
		c-0.3-0.5-0.1,8.7,0.2,12c0.5,5.6,1.7,10.4,3,11.9c1.3,1.5,3.1,4.5,4.1,6.6c1,2.1,2.3,3.7,3.1,3.7c0.7,0,0.6-0.1-0.6-2.9
		c-0.6-1.3-1.2-3.1-1.3-3.8c-0.1-0.8-0.5-2.3-0.8-3.4c-1.1-4-1.1-5-0.4-8.7c1.6-8.4,1.5-15.7-0.4-20
		C382.7,139.3,376.5,133.5,374.9,135.2 M391.7,139.1c2.6,2.6,3.8,4.5,4.5,7.2c0.5,1.7,0.4,2.3-0.2,0.9c-1.3-3-1.7-3.7-4.1-6
		c-2.5-2.4-3.5-3.2-2.6-1.8c2.4,3.7,4.3,9.3,3.7,11.1c-0.2,0.5-0.3,0.2-0.5-1.4c-0.6-3.6-4-9.6-6.5-11.4c-1.7-1.2-1.8-1.2-0.7,0.5
		c3.2,4.8,5.6,16.4,4.6,22.5c-0.1,0.7-0.6,3.1-1.1,5.2c-1.4,6.6-1.4,9.5,0.3,14.7c1.3,3.9,1.2,5.8-0.3,8c-1.7,2.5-2.4,5.6-0.8,3.3
		c2.9-4.1,4.1-3.4,1.9,1.1c-2,4.2-2.4,6.1-1.5,8c0.3,0.6,0.6,1.4,0.7,1.8c0.1,0.4,0.6,1.3,1.1,2.1c0.5,0.8,1.1,1.8,1.4,2.2
		c0.3,0.4,1.1,1.7,1.8,2.8c2.1,3.1,2.7,6.1,2,8.6c-0.4,1.4,0,1.8,1,1.2c2.3-1.5,1.9-6.2-0.9-9.7c-3.5-4.5-4.1-9.9-1.5-15.8
		c0.7-1.5,1.4-2.2,1.1-1c-0.5,1.7-0.7,4.4-0.5,5.1c0.5,1.4,1.1,0.6,1.1-1.5c0-1.3,0.8-2.9,1.5-3c2.3-0.3,4.2,3.8,3.5,7.6
		c-0.4,2.5,0.3,2.6,1.3,0.1c1-2.5,0.4-9.1-0.9-9.6c-0.7-0.3-3.9-4.5-4.7-6.1c-1.6-3.4-2-8.7-1-13.4c0.9-4.6,1.4-4.3,0.6,0.3
		c-0.5,2.9-0.3,5.8,0.6,8.6c0.6,1.9,0.8,1,0.4-1.5c-0.5-2.8-0.2-5.1,1.8-13.9c0.3-1.2,0.6-3,0.7-4.1s0.4-3.1,0.6-4.4
		c1.3-7.5-3.3-17.6-9-19.9c-0.7-0.3-1.4-0.6-1.6-0.7C389.4,136.8,390.3,137.8,391.7,139.1 M368.7,137.6c-0.2,0.5,0.1,1.4,1.1,4.2
		c0.8,2.1,0.8,4.6,0,7.2c-0.9,2.9-0.6,9.1,0.4,10.1c0.5,0.5,0.5,0.5,0.4-2.3c-0.2-3,0.1-4.7,1.1-7.3c1.5-3.8,1.4-7.5-0.1-10.5
		C370.7,137.4,369.1,136.6,368.7,137.6 M245.6,138.8c-5.2,2.9-7.2,4.5-12.8,10.8c-3.6,4-7,10.2-6.4,11.8l0.3,0.7l0.9-0.6
		c1.2-0.7,1.2-0.6,1.7-3.1c0.8-3.5,2.5-7.8,2.8-7.4c0.1,0.1-0.3,1.5-0.8,3.1c-1,3.2-1.8,6.1-1.6,6.1c1,0,2.2-1.7,3.3-5
		c1.5-4.3,5.8-11.7,7-12.2c0.5-0.2,0.4,0.1-1.3,2.6c-1.2,1.9-3.6,6.4-4.1,7.8c-0.4,1,3.3-2.8,4.6-4.8c0.5-0.7,1.6-2.4,2.4-3.7
		c0.8-1.3,2.7-3.5,4.1-5c1.4-1.5,2.5-2.7,2.4-2.7C248.2,137.4,247,138.1,245.6,138.8 M321.4,138.6c-0.3,0.3-0.3,0.6,0,1.5
		c0.3,1,0.4,3.1,0.2,4.7c-0.1,1.1,2,1,2.6-0.1c1.2-2.3,0.6-5.2-1.3-6.2C322,138.1,321.8,138.1,321.4,138.6 M367.4,141.7
		c0.1,0.6,0.2,1.4,0.2,1.6c0.2,0.9-0.6,4.1-1.7,6.8c-0.6,1.5-1.1,3.2-1.1,3.7c-0.1,2.3-0.4,2.6-0.5,0.4c0-2,0.1-2.7,0.9-5
		c1.1-3.2,1.4-5.3,0.9-6.9c-0.4-1.5-0.7-1.2-1.4,1.4c-0.3,1.1-0.9,3.1-1.5,4.4c-4.3,11.2-2.1,17.6,7.4,20.8c2.2,0.8,3.5,1.7,4.5,3.3
		l0.9,1.4l0.2-1.1c0.3-1.8-1-3.5-5.1-6.7c-2.9-2.3-5.1-11.4-3.7-15.8c1.2-3.9,1.4-5.6,0.7-7.3C367.6,140.6,367.3,140.2,367.4,141.7
		 M278.6,145.6c-1.2,1.4-1.6,2.3-2.2,3.9c-0.9,2.8-7,16.1-9.7,21.2c-1.2,2.2-1.2,2.4-0.5,1.6c0.5-0.5,1.5-1.7,2.4-2.6
		c1.4-1.5,1.6-1.8,1.8-3.2c0.5-3,1.5-5.6,2-5.2c0.1,0.1-0.1,1.1-0.4,2.3c-0.8,3.1-0.8,3.6,0.2,2.6c0.6-0.6,0.8-1.2,0.9-2.4
		c0.3-2.8,1.5-6.5,2.9-9.7c0.8-1.7,1.6-3.6,1.8-4.1s0.4-1,0.5-1c0.4,0-0.3,2.7-1.5,5.5c-2.1,4.7-3.1,8.9-1.7,6.7
		c2-3.1,3.8-8.1,4.4-11.9c0.4-2.8,1-3.3,1.1-0.9c0,0.6,0.1,0.5,0.6-0.9c0.5-1.6,0.5-1.7,0-2.7C280.5,143.5,280.3,143.6,278.6,145.6
		 M355.2,144.1c-0.1,0.2-0.3,1.7-0.6,3.2c-0.2,1.5-0.9,4.4-1.4,6.4c-0.5,2-1.5,5.8-2.1,8.4c-1.8,7.4-2.9,10.7-5.6,17.2
		c-2.2,5.3-3,7.7-3.7,10.8c-0.4,1.6,0.8,0,1.8-2.5c1.4-3.4,6.3-9.6,7.5-9.6c0.5,0,2.5,1.4,4.5,3.1c2,1.7,3.9,5.6,5.4,10.9
		c0.9,3,1.3,3.3,1.3,0.7c0-2.2-1.5-7.3-4-13.8c-5.4-13.8-5.4-14.6-3.1-28.3C356,147.1,355.8,142,355.2,144.1 M240.2,146
		c-1.1,2.2-1.1,2.2-1.3,2c-0.2-0.2,1.8-3.9,2.1-3.9C241,144.1,240.7,144.9,240.2,146 M395.3,159.4c0.2,2.4,0.1,4.9-0.6,7.7
		c-0.9,4.3-1.2,14-0.4,17c0.7,2.8,0.4,3.4-0.5,1c-2.3-6.2-2.3-12.5,0.1-22c0.3-1.3,0.5-3,0.5-4.7
		C394.5,155.2,394.9,155.8,395.3,159.4 M264.7,162c-0.9,0.6-1.1,1-0.6,1c0.4,0,0.3,1.6-0.4,4.5c-0.8,3.4-0.7,3.5,0.7,1
		C267,164.2,267.1,160.3,264.7,162 M262.4,164.4c-0.4,0.3-0.9,0.9-1.2,1.4c-1.8,3.5-10.5,15.2-14.7,19.7c-2.9,3.1-5.4,6.1-6.1,7.3
		c-0.4,0.7-0.4,0.7,0.3-0.1c3.1-3.9,9.4-9.6,11.9-10.8c1.7-0.8,2.4-2,4.3-7.3c0.6-1.8,0.9-2.3,1-1.9c0.1,0.8-0.6,3.3-1.7,6
		c-0.5,1.2-0.9,2.2-0.8,2.3c0.7,0.7,3-4.7,4.4-10.3c0.2-0.6,0.4-1.1,0.5-1.1c0.4,0,0.3,2.1-0.2,4.1c-0.3,1-0.4,1.8-0.4,1.8
		c0.5,0,3.3-7.9,3.7-10.3C263.6,163.7,263.5,163.6,262.4,164.4 M334.5,167.1c-3,2.9-5.8,6-10.3,11.3c-3.3,3.9-12.6,13.1-15.3,15.1
		c-1.1,0.8-2.2,1.7-2.3,1.9c-1,1.2-1.3,0-0.6-2.3c1.3-4.1,1.7-6.3,1.3-8.5c-0.4-2.3-0.5-9.4-0.1-12.2c0.3-2.3-0.3-2.8-1-0.8
		c-1,2.9-2.5,7.6-2.6,8.6c-0.1,0.6-0.5,2.3-0.9,3.9c-1.1,4.2-1.1,8,0.1,12.3c1.1,3.8,1.4,4.2,3.3,3.7c0.7-0.2,1.7-0.3,2.1-0.3
		c2.8,0,8.8-5.6,13.3-12.3c1.6-2.4,3.7-5.5,4.7-6.8c1-1.3,2.2-3.1,2.7-4c0.5-0.9,2-3,3.3-4.7c3-3.8,5.8-7.7,5.4-7.7
		C337.3,164.3,336,165.6,334.5,167.1 M296.1,168.2c-0.4,0.9-0.9,1.4-2,2.2c-1.6,1-1.8,1.7-0.8,2.4c1.6,1.1,5.3-4.2,3.8-5.5
		C296.7,167,296.6,167.1,296.1,168.2 M284.6,167.9c-1,2.5-1.7,3.8-2.8,4.9c-2.2,2.4-1.5,3.6,0.9,1.5c2-1.8,3.2-4.8,2.5-6.5l-0.3-0.7
		L284.6,167.9 M313,169.5c0.2,6-1,13.3-2.9,17.4c-2.6,5.6-0.3,3.9,6.9-5.3c1.2-1.5,2.1-4.4,2.1-6.6c0-0.9-3.5-5.7-5.1-6.9l-1.1-0.9
		L313,169.5 M278.1,171.2c-0.1,0.1-0.2,0.4-0.2,0.7c0,0.3-0.3,1.8-0.7,3.2c-1.1,4.2-1.1,4.2-0.3,3.8c1.2-0.5,2.5-4.3,2.2-6.3
		C279,171.6,278.5,170.8,278.1,171.2 M288.9,172.3c-0.5,0.7-1.6,1.7-2.4,2.3c-2.3,1.6-2.5,2.4-0.5,1.8c2.6-0.8,4.1-2.4,3.9-4.4
		l-0.1-1L288.9,172.3 M248.8,173.3c-2.5,1.4-2.9,1.9-7.5,7.1c-2.9,3.3-3.8,4.9-5.2,9.4c-1.1,3.5-1.1,3.8,0.3,2.4
		c0.7-0.6,1.5-1.9,2-3.1c2.5-5.4,5.6-10.7,6.3-10.7c0.1,0-0.2,0.8-0.7,1.7c-1.9,3.3-4,7.7-3.7,7.7c0.8,0,4.7-6.7,5.5-9.4
		c1.1-4,2-4.7,0.9-0.7c-0.2,0.8-0.4,1.5-0.3,1.5c0.1,0.1,4.6-6.3,5.1-7C251.7,171.6,251.3,171.8,248.8,173.3 M298.3,173.6
		c-0.3,0.3-1.1,0.8-1.7,1.1c-2.2,1.3-2.9,4.3-0.9,4.3c0.7,0,1-0.4,1.3-1.3c0.1-0.4,0.8-1.3,1.5-2.1
		C300.2,173.8,300,172.2,298.3,173.6 M290.6,175.4c-0.9,0.9-2.1,2-2.6,2.4c-0.9,0.7-1.5,2.3-0.8,2.3c1.8,0,5-3.3,5.3-5.4
		C292.7,173.3,292.5,173.4,290.6,175.4 M378.1,180.4c-0.7,6.8-0.5,8.3,1.5,10.4c1.4,1.4,1.6,1,0.4-0.8c-1.7-2.5-2-5.2-1-9.5
		c0.3-1.3,0.2-3.1-0.2-3.8C378.7,176.5,378.4,178.1,378.1,180.4 M266.8,177.7c-0.1,0.2-0.5,1-0.7,1.8c-0.5,1.9-1.7,3.2-3.9,4.7
		c-2.7,1.8-5.1,5.3-5.5,8l-0.2,1.3l0.7-0.8c0.4-0.4,1.2-1.6,1.9-2.6c1.1-1.7,2-2.6,5.2-5.2c1.6-1.3,2.9-3.7,3.1-5.8
		C267.6,177.7,267.3,177.1,266.8,177.7 M271.3,181.3c-0.8,0.9-2.1,2.2-3,2.8c-0.9,0.6-1.6,1.3-1.6,1.4c0,0.2-0.3,0.6-0.7,0.9
		c-1.2,1.1-3,5.7-2.4,6.3c0.2,0.2,1.9-2.1,2.7-3.5c0.4-0.7,1.4-2,2.3-2.8c2-2,3.3-3.7,4-5.1C273.7,179,273.2,178.9,271.3,181.3
		 M279.1,180.5c-0.9,0.5-2,1.2-2.5,1.6c-0.8,0.5-2.7,3.3-2.7,4c0,0.5,1.3-0.3,2.7-1.6c0.8-0.8,2.2-1.9,3-2.6
		C282.1,179.8,281.7,178.9,279.1,180.5 M292.2,180c-0.6,1.8-0.8,2.1-2.5,3.2c-2.6,1.7-3.2,2.7-2.1,3.6c0.8,0.7,1.6,0.5,2.3-0.6
		c0.4-0.6,1-1.4,1.5-1.8c1.2-1.1,1.6-2,1.6-3.4C292.9,179.8,292.4,179.1,292.2,180 M284.3,183.8c-0.5,0.3-1.4,1.2-2,1.9
		c-0.6,0.7-1.8,1.8-2.7,2.4c-1.7,1.1-2.1,1.9-1.3,2.6c1,0.8,2.8-0.7,4.8-3.7c0.9-1.5,1.5-2,2.4-2.5c0.7-0.3,1.2-0.7,1.1-0.9
		C286.5,183.2,285.3,183.3,284.3,183.8 M253,187.1c-0.2,0.4-0.6,1-0.8,1.3c-0.2,0.4-0.9,1-1.5,1.4c-1.9,1.2-2.9,3-2.9,5.3
		c0,1.3,0.6,0.9,1.9-1.2c0.6-1,1.5-2.1,2-2.5c1.5-1.2,2.8-4.3,2-4.8C253.5,186.5,253.2,186.8,253,187.1 M222.4,190.3l-1.3,1.2
		l0.1,4.8c0.1,4.5,0.4,6.8,0.9,6.8c1.6,0,2.1-0.7,1.1-1.9c-1.3-1.6-1.7-2.7-1-2.7c0.2,0,0.9,0.7,1.6,1.6c0.7,0.9,1.4,1.6,1.5,1.6
		c0.4,0,0.1-1.8-0.6-2.8c-1.9-3-3.3-6.8-2.7-7.4c0.2-0.2,0.4,0,0.6,0.9c0.4,1.7,1.3,3.7,1.9,4.5l0.5,0.7l-0.1-1.6
		c-0.1-0.9-0.2-2.6-0.4-3.9c-0.1-1.2-0.3-2.4-0.3-2.6C224.3,188.8,223.7,189.1,222.4,190.3 M271.7,191.3c-0.6,0.6-2.2,1.7-3.7,2.4
		c-4.6,2.4-6.7,4.9-5.4,6.2c0.8,0.8,1.6,0.5,3.1-1.3c0.8-1,2.1-2.3,3-3c3.3-2.5,5-4.4,4.6-5.1C273,190,272.8,190.2,271.7,191.3
		 M293,194.6c1.1,2.1,1.6,4.4,1.4,5.8c-0.2,1.2-0.4,1.2-2.1-0.3l-1.4-1.3l-2.6-0.1c-4.6-0.2-12,2.8-15.7,6.2c-1.1,1-2.4,2.3-2.9,2.7
		c-2,1.8-2.9,4.2-1,2.7c3.7-2.8,10.5-5.4,10.5-4.1c0,0.4-1.5,1.5-3,2.2c-0.5,0.2-1.5,1-2.4,1.8c-1.8,1.7-1.5,1.9,1.2,1
		c1-0.3,1.9-0.4,3.3-0.3c3,0.2,3.3,0.8,0.7,1.1c-2.5,0.3-2.3,0.9,0.5,1.6c2.9,0.8,2.9,0.8,4.2,0.1c1.1-0.6,4.6-1.5,5.7-1.5
		c1.4,0,1.8,1.5,0.5,1.8c-3,0.8-3,0.8-0.9,0.8c2,0,2,0,3.3-1.1c1.6-1.4,3.2-2.3,4.8-2.5c1.4-0.2,1.8,0.3,0.8,0.8
		c-0.7,0.4-1.8,1.7-1.6,1.9c0.1,0.1,1.1-0.1,2.4-0.3c1.2-0.2,2.3-0.4,2.3-0.4c0,0,0.4-0.5,0.8-1.1c0.7-1,4.3-3.5,5.1-3.5
		c0.7,0,0.6,0.4-0.5,1.7c-1.4,1.5-1.4,1.7-0.1,1c0.5-0.3,1.5-0.7,2.3-0.8c1.6-0.4,3.6-2,2.9-2.4c-0.9-0.5-4.5-1-6.1-0.9
		c-2.5,0.3-2.1-0.6,0.6-1.4c1.3-0.4,2.6-0.5,7.7-0.5c3.5,0,5.9-0.1,5.7-0.2c-3.4-2.3-8.4-3.4-11.4-2.5c-0.8,0.2-2.9,0.6-4.7,0.7
		c-4.6,0.4-5.3,0-5.4-3.2c0-2.9-2.8-7-5-7.4l-1-0.2L293,194.6 M251,195.3c-2.1,1.9-3.7,4.7-3.7,6.6c0,0.5-0.2,1.1-0.5,1.4
		c-0.4,0.5-0.4,0.5,0.1,0.5c0.7,0,1-0.4,1.3-1.6c0.3-1.2,1.2-2.9,2.6-4.5C253.2,195.1,253.3,193.3,251,195.3 M258.3,196.3
		c-0.8,0.4-1.4,0.9-1.4,1.1c0,0.2-0.4,0.8-0.8,1.4c-1,1.3-1.6,2.7-1.6,3.9c0,1.3,0.5,1.1,1.1-0.3c0.6-1.5,1.9-3.3,3.6-4.8
		C261.4,195.6,261,194.9,258.3,196.3 M243.7,196.8c-0.1,0.1-0.2,0.4-0.2,0.6s-0.7,1.9-1.6,3.6c-1.8,3.5-1.9,4.6-0.8,7.9l0.5,1.5
		l0.3-2.1c0.2-1.2,0.4-2.8,0.4-3.6c0-1.1,0.3-1.9,0.9-3.2C244.4,199.1,244.8,195.7,243.7,196.8 M39.2,201.7
		c-0.4,0.3-0.7,0.7-0.7,0.8c0,0.5,3.1,1.6,4.7,1.7c2.3,0.1,2.5,0,2.5-0.5C45.7,202,40.7,200.5,39.2,201.7 M367.8,202.1
		c-1.6,0.8-2.3,1.6-2.5,3.1l-0.2,1.1l0.6-0.6c0.9-0.8,4.7-2.7,5.8-2.9c1-0.2,2.1-0.8,2.1-1.3C373.7,201,369.3,201.4,367.8,202.1
		 M381.7,202.9c-0.4,0.2-1.9,0.6-3.7,0.8c-4.2,0.5-5.2,0.8-6.6,2c-1.8,1.6-1.7,3.5,0.2,2.3c0.8-0.5,3.9-1.4,8.9-2.7
		c1.3-0.3,2.9-1.8,2.7-2.5C383,202.4,382.5,202.4,381.7,202.9 M234,203.9c-1.1,0.4-2.8,1.1-3.8,1.6c-1,0.5-2.7,1.3-3.8,1.6
		c-2.7,1-4.6,1.9-6.6,3.4c-1,0.7-2.3,1.7-3.1,2.3c-0.7,0.5-2,1.8-2.9,2.7c-7.8,8.8-8.5,12.2-4.4,22.4c1.2,3,2.2,4.4,4.1,5.6
		c0.7,0.5,2.6,1.7,4.2,2.8c1.6,1.1,2.9,1.8,3,1.8c0.3-0.3,0.1-1.1-0.4-1.3c-0.6-0.2-2.4-2.6-2.4-3.2c0-0.6,1-0.4,2.7,0.4l1.1,0.5
		l0.3-0.7c0.1-0.4,0.3-0.8,0.4-1c0.1-0.2-0.2-0.4-0.6-0.6c-1-0.5-2.8-2.1-2.6-2.3c0.1-0.1,1,0.1,2,0.5c1.4,0.6,1.8,0.7,2,0.4
		c0.4-0.6,0.3-0.9-0.4-1.3c-1.3-0.7-1.1-2,0.3-1.4c0.9,0.4,0.9,0.5,1.5-0.9l0.5-1.2l-0.6-0.5c-0.8-0.7-0.3-1.3,0.6-0.8
		c0.3,0.2,0.6,0.3,0.7,0.2c0,0,1.1-1.5,2.4-3.3c1.3-1.8,3.6-4.4,5.2-6c3.7-3.6,3.6-3.5,2.6-5.5c-1.6-3.1-1.8-5.7-0.9-8.5
		c0.2-0.6,0.4-1.4,0.4-1.8c0-0.4,0.2-0.9,0.5-1.2c0.3-0.3,0.5-0.7,0.5-1c0-0.3,0.3-0.7,0.7-0.9c1.6-0.8,2.2-2.3,1.1-2.8
		c-0.2-0.1-0.7-0.3-1-0.5C236.4,203.2,236.2,203.2,234,203.9 M260.6,204.4c-2,2-2.9,4.8-1.8,5.8c0.4,0.3,1.2,0.2,1.2-0.2
		c0-0.1,0-0.8,0.1-1.6c0.1-1.1,0.3-1.8,1.1-3.1C262.7,202.9,262.5,202.5,260.6,204.4 M119.7,204.3c-1.8,1.2-3.5,4.4-3.8,7.3
		l-0.2,1.7l1.6,0.3c0.9,0.2,1.8,0.4,2.1,0.5c0.3,0.1,0-0.2-0.7-0.7c-2.7-1.7-2-1.8,2.5-0.1c4.7,1.8,5.2,1.3,0.8-0.8
		c-1.7-0.8-2.7-1.4-2.6-1.6c0.3-0.6,2.1,0.1,7.7,2.8c5.3,2.6,7.3,3.3,7.5,2.6c0.1-0.3-5.1-3-12.2-6.3c-2.9-1.3-3.9-1.9-3.9-2.3
		c0-0.7-0.1-0.7,6,2c3,1.3,6.6,2.8,8.1,3.4c1.5,0.5,3.7,1.4,4.8,1.9c1.2,0.5,2.2,1,2.2,1c0,0-0.1,0.5-0.2,1.1c-0.5,2,0,2.3,0.9,0.5
		c1.2-2.5,2.5-3.6,4.1-3.6c0.9,0,0.1-0.8-0.8-0.8c-0.3,0-1.2-0.4-2-0.8c-7.1-4-10.8-5.7-16.3-7.6
		C121.7,203.7,120.8,203.6,119.7,204.3 M357.3,204.9c-0.6,0.1-1.7,0.2-2.6,0.2c-1.7,0-3.3,0.5-4.5,1.4c-0.7,0.5-2.6,3.6-2.3,3.9
		c0.2,0.2,3.4-1.3,4.8-2.2c0.7-0.5,1.6-0.9,2-0.9c1.9,0,4.9-1.4,4.9-2.3C359.5,204.6,358.9,204.5,357.3,204.9 M246.7,206.1
		c-3.4,3.4-4.3,9.6-1.8,12.6c0.6,0.7,0.8-0.4,0.8-3.9c0-2.6,0.8-5.4,2.2-7.7C249.6,204.6,248.8,203.9,246.7,206.1 M38.9,205.7
		c-0.2,0.4-0.9,3-0.8,3.1c0.3,0.3,1.8,0.5,2,0.2c0.3-0.4,1.4-2.7,1.4-2.9C41.4,205.7,39.1,205.3,38.9,205.7 M251.2,207
		c-0.7,0.9-0.9,2.1-0.3,2.1c0.4,0,1.8-2.1,1.8-2.6C252.6,205.9,251.8,206.2,251.2,207 M343.7,207.1c-2.5,1.3-4.4,3.8-4.9,6.4
		c-0.2,0.9-0.1,1,0.3,0.9c1.1-0.4,2.2-1.4,2.6-2.3c0.5-1.1,2.3-3.1,3.5-4C347,207,345.6,206.1,343.7,207.1 M337.4,207.3
		c-0.4,0.1-1.5,0.4-2.6,0.7c-5.5,1.1-6.9,1.8-8.2,4.2c-1.7,3.2,0.4,3.4,3,0.2c1.2-1.5,2.7-2.2,5.5-3.1c1.9-0.5,3.3-1.3,3.3-1.9
		C338.5,206.9,338.3,206.9,337.4,207.3 M254.6,208.7c-2.5,3.9-2.3,6.8,0.4,9l1,0.8l0.2-0.7c0.1-0.4-0.1-1.6-0.4-2.8
		c-0.6-2.3-0.7-4.5-0.3-5.8C256.1,207.2,255.6,207,254.6,208.7 M46.1,208.5c-1.2,1.2-0.7,2,1.4,2.5c2.9,0.8,7.6,2.3,9.7,3.1
		c1.2,0.5,3.3,1.3,4.6,1.6l2.4,0.7l1.3,2.9c3.4,7.6,4.4,5.3,1.7-3.9c-0.4-1.5-0.2-1.4-9-4.1c-3.5-1.1-7.4-2.3-8.7-2.8
		C46.7,207.6,46.9,207.6,46.1,208.5 M237.3,210c-0.1,0.2,0,0.6,0.2,0.9c0.6,0.9,0.9,2.8,0.6,4c-0.3,1.3,0.4,3.3,1.7,4.5l0.8,0.7v-1
		c0-0.5-0.2-1.7-0.4-2.5c-0.2-0.8-0.6-2.5-0.8-3.6C238.9,210.3,237.8,208.8,237.3,210 M378.8,210.1c-1.2,0.3-1.8,0.6-2.1,1
		c-0.6,0.9-0.3,1.2,0.9,0.7c1.8-0.8,6.4-0.3,8.6,0.9c2,1.1,2.8,1,2-0.3C387,210.5,382.1,209.3,378.8,210.1 M353.3,211
		c-0.7,0.4-1.9,0.9-2.5,1.1c-0.6,0.2-1.6,0.7-2.1,1.2l-1,0.9l2.1,0.2c2.6,0.2,3,0.1,4.7-1.3c0.9-0.8,1.7-1.2,2.5-1.4
		c1.3-0.2,1.6-0.6,0.9-1.1C356.9,209.9,354.8,210.1,353.3,211 M371.8,211c-2.1,0.2-3,1.3-2.5,3c0.2,0.5,0.2,0.5,1-0.2
		c0.5-0.4,1.3-0.8,1.9-0.9c1.2-0.2,2.5-1.1,2.5-1.7C374.7,210.7,374.4,210.7,371.8,211 M35,211.4c-0.4,0.5,0,0.9,0.8,0.9
		c1,0,6,1.9,7.2,2.7c1.8,1.2,1.6,1.4-0.4,0.5c-2.2-1-5.8-2-7.6-2.2l-1.4-0.1l-0.3,1l-0.3,1l1.3,0.7c1.8,1,4.8,3,5.1,3.5
		c0.7,0.8-0.1,0.7-1.5-0.2c-2.1-1.3-5-2.9-5.2-2.9c-1.1,0,0.1,2.1,2.1,3.6c1.2,0.9,3,2.5,4.1,3.6c1.1,1.1,2.7,2.6,3.6,3.2
		c1.1,0.8,2.1,2,3.2,3.5c1.6,2.4,1.8,3.3,0.3,1.6c-3.2-3.7-4.2-4.5-2.9-2.2c2.4,4.1,3,8.2,2.3,14.9l-0.2,2l1.5,2.5
		c2.5,4.1,2.6,4.1,4.3,1.1l1-1.8l-1.1-1.1c-1.9-2-2.3-3.1-2.4-6.7c0-2.1,0-2.9,0.2-2.4c0.1,0.4,0.2,1.4,0.3,2.1
		c0.1,2.6,2.1,7.1,3.2,7.1c0.4,0,1.7-3.3,1.3-3.4c-0.6-0.2-2.4-2.2-2.4-2.6c0-0.3,0.5,0,1.4,1l1.4,1.4l0.6-1.4
		c0.7-1.8,0.8-1.6-0.3-3.8c-0.5-1-1.5-3.6-2.3-5.7c-0.8-2.1-1.7-4.4-2-5.1c-0.7-1.4-0.7-1.5-0.4-1.5c0.4,0,2.6,4.5,3.9,7.8
		c0.7,1.7,1.5,3.6,1.8,4.3l0.6,1.1l0.5-1.2l0.5-1.2l-1.2-2.6c-1.5-3.2-2.9-6.7-2.7-6.9c0.2-0.2,1,1.6,2.7,5.3
		c0.7,1.6,1.4,2.9,1.5,2.9c0.2,0,1.3-3.2,1.3-3.9c0-0.2,0.1-0.4,0.2-0.4c0.5,0,0.6-1.6,0.1-2.3c-0.6-0.9-3.2-4.2-4.5-5.9
		c-0.5-0.6-0.8-1.1-0.7-1.1c0.6,0,5.5,4.5,6.4,5.8c0.9,1.4,1.7,1.9,1.7,1c0-1.7-5-7.4-8.8-10.1c-1.2-0.9-3.2-2.3-4.4-3.1
		C43.4,212.4,36.2,210,35,211.4 M310.2,213.4c-2.5,0.8-3.4,1.5-4.2,3.3c-0.4,0.9-0.7,1.7-0.7,1.7c0.2,0.2,3.8-1.1,4.4-1.7
		c0.9-0.8,2.7-1.6,4.3-1.8c1.4-0.2,3-1.1,2.9-1.5C316.6,212.8,311.9,212.8,310.2,213.4 M331.2,214.2c-3.1,1.9-6,5.6-4.5,5.6
		c0.8,0,3.2-1.5,3.5-2.2c0.4-0.9,2-2.4,3.2-3c0.4-0.2,0.8-0.6,0.8-0.8C334.2,213.1,332.6,213.3,331.2,214.2 M320.5,214.8
		c-1.1,1.2-2.2,1.8-3.9,2.1c-2.2,0.5-3.2,1.9-1.8,2.7c1.2,0.7,6.9-3.5,6.9-5.1C321.7,213.7,321.4,213.8,320.5,214.8 M248.4,214.6
		c-0.9,1.1-1,5.8,0,7.6c0.9,1.7,3.6,3.9,3,2.4c-1.6-3.8-1.9-4.9-2-7.4C249,214.4,248.9,213.9,248.4,214.6 M273.6,214.8
		c-1.4,0.8-1.7,1.3-1.3,2.2c0.5,1,1.6,0.9,3-0.2c1.2-1,1.5-1,3.4-0.9c1.4,0.1,1.4-0.4,0-1.1C277.4,214,274.9,214.1,273.6,214.8
		 M380.4,214.7c-0.5,0.1-0.4,0.2,0.9,0.9c1.9,0.9,4.5,3.3,5.9,5.3c1,1.5,3.3,3.7,3.7,3.7c0.9,0-2-5.3-4.2-7.8
		C385.2,215.1,382.6,214.2,380.4,214.7 M293.9,216.1c-0.7,0.5-2,1.5-2.9,2.3c-0.9,0.8-1.8,1.4-2,1.4c-0.5,0-1.5,1-1.5,1.4
		c0,0.3,0.5,0.4,1.5,0.6l1.5,0.2l0.9-1.1c2.4-3,3.9-4.2,5-4.2c1.2,0,1.5-0.3,0.9-0.9C296.8,215,295.3,215.2,293.9,216.1
		 M359.1,216.1c-2.5,1.7-0.9,2.6,2.7,1.5l2.1-0.6l1.7,0.6c3.7,1.2,4,0.3,0.5-1.6C363.8,214.9,361,214.9,359.1,216.1 M262.7,216
		c-2.2,0.8-2.9,1.5-3.6,3.8c-0.3,1,0.5,0.7,2.1-0.7c0.8-0.7,2.1-1.5,2.8-1.8c1.5-0.5,1.8-0.8,1.3-1.4
		C265,215.4,264.3,215.5,262.7,216 M342.1,216.7c-0.7,0.8-1.4,1.3-2.3,1.5c-2.6,0.7-5.5,2.3-4.7,2.6c3.8,1,8.2-1.1,8.6-4.2
		C343.9,215.2,343.4,215.2,342.1,216.7 M283.9,216.9c-2.4,0.6-6,3.2-6,4.3c0,1.3,1.8,1.8,2.8,0.7c1.8-2.2,2.5-2.8,3.5-3.3
		c0.6-0.3,1.4-0.5,1.8-0.5c0.9,0,1.2-0.5,0.6-1C286.1,216.6,285.2,216.5,283.9,216.9 M374.5,217.4c-1.2,1-0.9,1.3,1.2,1.2
		c1.4-0.1,2,0,2.6,0.5c1.7,1.1,2.3,0.4,0.9-1C377.4,216.3,375.9,216.1,374.5,217.4 M301.2,217.6c-0.2,0.1-0.4,0.4-0.6,0.8
		c-0.3,0.6-2.4,1.7-3.2,1.7c-0.5,0-2.7,2-2.4,2.3c1.4,1.4,5.1-0.5,6.4-3.2C302,217.9,301.9,217.2,301.2,217.6 M164.8,218.1
		c-0.1,0.1-1,0.3-2,0.5c-3.9,0.8-3.9,0.7-6.1,5.5c-1.1,2.3-2.3,5.1-2.8,6.3c-0.4,1.2-1.4,3.8-2.2,5.9c-1.9,4.8-3.5,9.7-3.3,9.9
		c0.8,0.8,1.6,0.2,2.7-2.1c1.2-2.6,3.5-8.8,4.8-12.4c0.4-1.2,1.1-2.8,1.6-3.5c0.4-0.7,1-1.9,1.3-2.6c1.4-3.7,1.7-3.9,5.2-4.8
		c2.2-0.6,3.8-1.4,3.8-1.8C167.8,218.3,165.2,217.7,164.8,218.1 M268.3,218.2c-0.2,0.1-0.7,0.4-1.1,0.6c-0.4,0.2-1.3,0.7-2,1.1
		l-1.3,0.7l1.2,0.2c0.8,0.1,1.5,0.1,2.1-0.2c1-0.4,2.8-0.5,4.8-0.2c1.7,0.2,2.8-0.3,2.1-1C273.3,218.6,269.1,217.7,268.3,218.2
		 M252,218.9c-0.4,0.4-0.2,1.1,0.3,1.4c0.5,0.3,0.8,1,1.3,3.8c0.3,1.6,0.5,1.8,1.1,1.1C256.2,223.5,253.5,217.3,252,218.9
		 M348.6,219.8c-1.1,0.1-2.1,0.2-2.2,0.3c-0.2,0.2,1.7,1.2,3.4,1.7c0.7,0.2,2.6,1.2,4.2,2.2c2.9,1.8,4.3,2.3,5.4,2
		c0.9-0.3,0.6-0.9-0.7-1.4c-0.7-0.3-2-1.2-3.1-2.1c-3.3-2.7-3.8-3-4.4-3C350.8,219.6,349.7,219.7,348.6,219.8 M145.5,220.2
		c-0.5,0.2-0.4,1.4,0.2,1.5c0.5,0.1,0.5,0.5,0.7,3.8c0.1,2,0.3,4.4,0.4,5.4l0.2,1.7l0.3-2.5C148.4,220.4,148.2,219.1,145.5,220.2
		 M242.8,222.1c-0.6,2.4,0.7,5.1,3,6.1l1,0.4v-0.7c0-0.9-0.4-1.6-1.6-3c-1-1.1-1.1-1.4-1.1-3C243.9,220.8,243.1,220.9,242.8,222.1
		 M311.5,222.2c-0.8,0.4-1.9,0.8-2.3,0.8c-0.8,0-4,0.9-4.3,1.2c-0.2,0.2,3,1.4,3.7,1.4c0.9,0,2.4-0.7,4.3-2c0.8-0.6,1.6-0.9,2.2-0.9
		c1.5,0,2.5-0.5,1.9-1C316.1,221.1,313.2,221.3,311.5,222.2 M363.6,221.7c-1.6,0.5-0.4,1.8,1.6,1.8c1,0,2.4,0.9,4.6,3
		c2.3,2.1,3.1,2.6,4.3,2.6c1.2,0,0.6-0.8-3-4.3l-3.5-3.4l-1.5,0C365.2,221.4,364.1,221.6,363.6,221.7 M144.2,221.9
		c-0.1,0.1-0.2,0.9-0.3,1.7c-0.1,0.8-0.4,2.8-0.7,4.4c-0.3,1.6-0.6,4.1-0.8,5.6c-0.2,1.5-0.5,3.5-0.7,4.6c-0.5,2.3-0.6,2.3,2.1,3
		c1.1,0.3,2.2,0.6,2.5,0.7c0.4,0.2,1-0.7,1-1.4c0-0.2-2.4-1.1-3-1.1c-0.7,0-0.5-4.3,1-17.2C145.3,221.8,144.4,221.6,144.2,221.9
		 M71.7,223.1c0.3,2.1,0.3,2.1,4.1,3.3c2,0.6,3.6,1.1,3.6,1.1c0,0,0.3-0.6,0.6-1.3l0.6-1.3l-0.7-0.4c-0.4-0.2-1-0.4-1.3-0.5
		l-0.6-0.2l0.5,1.1c1.1,2.5,0,2.4-1.3-0.1c-0.7-1.3-1.2-1.9-1.8-2.2c-1.3-0.6-1.5-0.5-0.9,0.3c0.7,1,0.8,1.8,0.3,1.9
		c-0.3,0.1-0.8-0.5-1.4-1.4C72.1,221.6,71.4,221.4,71.7,223.1 M373.3,222.4c-1.9,0.1-1.9,0.4,0,1.4c1.2,0.7,1.4,0.7,2.7,0.5
		c1.1-0.2,1.6-0.2,2.2,0.2c0.9,0.5,1.2,0.2,1-0.7C378.8,222.7,376.8,222.2,373.3,222.4 M43.9,223.6c0.3,0.5,1.3,1.8,2.2,3
		c2.2,2.7,3.1,4.1,3.8,5.9c1,2.7,0.9,2.9-0.3,0.5c-0.8-1.5-2.1-3.4-3.5-5.2c-2.5-3-3.3-4.2-3.3-4.9
		C42.7,222.3,43.3,222.6,43.9,223.6 M262.4,222.7c-0.1,0.2-0.4,0.3-0.6,0.3s-1.1,0.4-1.8,0.8c-1.8,1.1-1.2,1.4,3.5,1.3
		c2.2,0,3.9,0.1,4.7,0.3c3.6,1,4.2,1,3.9,0.2C271.4,224,263.1,221.5,262.4,222.7 M382.7,223.3c0,0.1,0.2,0.3,0.5,0.4
		c1.9,0.6,6.2,5.6,7.3,8.3c0.6,1.5,1.1,2,1.6,1.4c0.9-1.3-2.1-7.1-4.6-9.1C386.4,223.4,382.7,222.7,382.7,223.3 M336.7,225
		c-2.2,0.7-4.6,0.8-5.8,0.2c-0.7-0.3-1-0.4-1.8-0.2c-0.5,0.1-1.5,0.4-2.2,0.5c-1.9,0.3-2,0.5-0.6,1.1c3.8,1.7,9.4,1.4,12-0.6
		C340.2,224.7,339.4,224.2,336.7,225 M236.2,225.5c-2.1,1.6-3.4,3.1-5.9,6.1c-3.4,4.3-3.9,5.1-5.6,10c-2.6,7.4-3.1,10.3-3.5,18.8
		l-0.2,4.2l0.9,0.4c0.5,0.2,0.9,0.4,0.9,0.4c0.9-1.2,1.2-2.1,1-2.9c-0.3-1.8,1.6-4.7,3.1-4.7c0.9,0,0.8-0.3-0.4-1.8
		c-1.9-2.4-2.1-2.6-1.9-4c0.3-2.4,2.1-4.2,4.5-4.3c2.2-0.2,2.4-1.4,0.3-2.3c-1.7-0.8-1.8-3.7-0.3-5.5c1.4-1.6,4-2.3,4.6-1.3
		c0.3,0.4,1.1,0.3,1.6-0.3c0.6-0.9,0.5-1.8-0.1-1.8c-4.5,0-3-6.5,1.7-7.3c1-0.2,2.7-1.8,2.5-2.3c-0.1-0.2-0.6-0.7-1.2-1.2l-1.1-0.9
		L236.2,225.5 M277.9,225c-2.4,0.8-3.5,2.9-1.8,3.8c0.7,0.4,0.8,0.4,1.5-0.2c1.8-1.4,2-1.5,4.8-1.7c2.8-0.2,4.2-0.7,4.2-1.3
		c0-0.2-0.3-0.3-0.7-0.3c-0.4,0-1.8-0.1-3.3-0.3C279.6,224.5,279.5,224.5,277.9,225 M63.8,225.5c-0.3,0.3-0.2,0.6,0.5,1.5
		c1,1.3,1.1,1.3,0.9,0.4c-0.2-0.9,0.4-1.2,1-0.5c0.3,0.3,0.6,1,0.6,1.5c0.1,0.7,0.3,0.9,0.8,1.1c0.9,0.2,1,0.1,0.5-1.3
		c-0.4-1.1-0.4-1.3-0.1-1.5c0.5-0.3,1.2,0.4,1.8,2c0.4,1.1,0.6,1.3,1.2,1.4c0.8,0.1,0.9,0,0.3-1.5c-0.4-1-0.4-1.1,0.1-1
		c0.3,0.1,0.6,0.6,0.9,1.4c0.5,1.5,0.7,1.7,1.8,1.9L75,231l-0.3-0.9c-0.2-0.5-0.2-1-0.1-1.1c0.4-0.4,1,0.2,1.3,1.2
		c0.3,1,0.8,1.4,1.9,1.4c0.4,0,0.8-1.1,0.9-2.2c0-0.5-11.9-4.2-13.6-4.2C64.5,225.1,64,225.3,63.8,225.5 M293.8,225.4
		c-2.3,0.5-6.7,4.5-5.1,4.5c1.4,0,3.2-0.8,4-1.7c1-1.3,2.2-1.7,3.6-1.5c1,0.1,1.1,0.1,1.1-0.4C297.4,225.3,295.7,224.9,293.8,225.4
		 M83.2,226.6c-0.4,0.2-0.7,0.5-0.7,0.6c0,0.1,0.3,0.2,0.7,0.2c0.5,0,0.7,0.1,0.7,0.4c0,0.3-0.3,0.4-1.1,0.4c-0.9,0-1.2,0.1-1.4,0.6
		c-0.3,0.6-0.2,0.6,0.8,0.6c1.5,0,1.4,0.9-0.2,1c-1.7,0.1-2.1,1.4-0.4,1.4c1.9,0,2,1.1,0.1,1.2c-1.1,0-1.3,0.2-0.9,0.9
		c0.7,1.3,2.9-0.5,2.9-2.2c0-0.6,0.9-2.3,1.6-2.9c0.8-0.7,0.7-1-0.3-1.8C84.2,226.1,84.2,226.1,83.2,226.6 M248.9,227.3
		c0,2.6,2.7,4.5,4.1,2.9c0.8-0.9,0.1-2-1.4-2.1c-0.9-0.1-1.2-0.2-1.7-0.9C249.2,226.2,248.9,226.3,248.9,227.3 M342.1,227.5
		c-2.4,0.6-3.8,1.2-4.9,2.1c-0.8,0.6-1.1,0.7-2.5,0.5c-1.7-0.2-3,0.2-3,0.9c0,0.3,0.4,0.4,1.2,0.4c0.7,0,1.8,0.2,2.6,0.4l1.4,0.3
		l-1.1,1.7c-0.6,0.9-1.3,2.1-1.6,2.7l-0.5,1l-1.5-0.4c-2.2-0.5-5.7-0.5-6.4,0c-0.8,0.5-3.3,5.6-3.3,6.6c0,0.1,1.6,0.2,3.5,0.2h3.5
		l-0.2,1.2c-0.1,0.7-0.2,1.7-0.3,2.3l-0.1,1.1l-2,0.3c-2.5,0.4-5.1,1.6-6.8,3.1c-0.7,0.6-2.6,2-4.4,3.1c-3.9,2.4-8,6.4-9.5,9
		c-0.5,0.9-1.4,2.3-2,3.1c-2.1,2.6-3.3,5.2-4.5,9.5c-0.7,2.7-0.8,3.3-0.2,3.7c0.3,0.2,0.4,0.8,0.4,1.9c0,1.8,0.2,2,1.9,2.2
		c1.1,0.1,6.5,2.1,7,2.5c0.1,0.1-3.1,0.2-7.1,0.2c-8.9,0-13.5,0.6-16.3,2.1c-0.6,0.3-1.6,0.7-2.3,0.8l-1.2,0.3l1.9,0.6
		c4.5,1.5,8.9,3.3,13.3,5.5c5.8,2.8,6.4,3,11.4,2.7c4.6-0.2,6.4-0.6,8.8-2c1-0.6,2.3-1.3,3.1-1.7c1.6-0.8,2.8-2,3.6-3.6
		c0.5-1,1.1-1.5,4.8-3.7c6-3.7,13.6-11.3,16.2-16.1c2.4-4.5,2.5-5.2,0.5-2.5c-0.6,0.7-1.5,2-2.1,2.8c-2.1,2.8-8.7,7.7-10.3,7.7
		c0,0,1.2-2.5,2.7-5.5c3.2-6.4,4.9-11.3,4.1-11.3c-1.5,0-7.1,5.7-9.6,9.8c-1.1,1.8-2,3.2-2,3.2c-0.6-0.6,2.8-11.7,5.1-16.7l1.4-3
		l-0.5-1.4c-1.1-2.8-2-8.5-1.6-10.3c0.2-0.9,1.5-1.6,3.2-1.6c1.3,0,1.9-0.6,3.2-3.1c2.3-4.6,5.1-7.3,8.5-8.2
		c2.4-0.6,6.7-0.9,7.9-0.5c1.2,0.4,1.8,0,1.2-0.8c-0.2-0.3-0.6-0.5-0.8-0.5c-0.2,0-0.5-0.2-0.8-0.5
		C352.4,227.5,346.5,226.4,342.1,227.5 M314.4,228c-1.4,0.7-2.5,0.8-7,0.4c-2.7-0.2-2.9,0.1-0.8,1.5c2.3,1.5,6.9,0.6,8.9-1.6
		C316.2,227.5,315.7,227.3,314.4,228 M88.1,228.6c-2.1,1.1-3.1,3.4-2.8,6.4c0.2,1.5,0.5,1.6,0.7,0.2c0.1-0.6,0.4-1.3,0.7-1.7
		l0.5-0.6l-0.2,1.4c-0.2,1.6,0.2,1.8,0.9,0.5c0.3-0.6,0.3-0.9,0.1-1.9c-0.5-1.8-0.5-1.9,0-2c0.3-0.1,0.6,0.2,0.8,0.7l0.4,0.8
		l0.9-0.7c1-0.9,1-2.5,0-3.4C89.5,228,89.5,227.9,88.1,228.6 M255.7,228.6c-0.2,0.4,0.7,3.8,1.4,5.1c1,1.9,3.4,3.4,4.7,2.9
		c1.6-0.6,0.9-2.4-1.1-3.1c-1.7-0.6-3.3-2.2-3.7-3.9C256.6,228.4,256,228,255.7,228.6 M184.9,229.1c-0.2,0.3-0.3,0.7-0.3,0.9
		c0,0.9-3.1,11-3.7,12c-0.3,0.5-1.2,1.2-2.6,2c-4.2,2.3-4.4,2.4-5.3,5.7c-0.5,1.6-0.8,3-0.7,3.1c0.2,0.3,1.7,0.3,1.7-0.1
		c0-0.2,0.4-0.5,0.9-0.7c0.5-0.2,1.6-0.8,2.3-1.3c0.8-0.5,2.3-1.4,3.4-1.9c2.3-1.2,2.2-1,3.1-5.6c0.4-1.9,1.1-5.3,1.6-7.6
		c0.5-2.3,0.9-4.3,0.9-4.6c0-0.5,0.1-0.5,1-0.4c2.2,0.3,2.1,0.4,2.1-0.7C189.5,228.7,185.6,227.8,184.9,229.1 M267.8,229.3
		c-0.5,0.2-1.4,0.4-2.1,0.4c-2.3,0-3.2,2.2-1.4,3.2c0.7,0.4,2.2,0,4-1.2c1.2-0.8,1.7-0.9,3-0.9c1.4,0,1.5-0.1,1.5-0.6
		C272.9,229,269.8,228.5,267.8,229.3 M301.1,229.5c0,2.9,2.9,5.3,5.7,4.6c0.8-0.2,0.8-1,0-1.2c-2.1-0.4-2.5-0.6-3.5-2.1
		C302.6,229.6,301.1,228.7,301.1,229.5 M381,230.1c-1,1,0.9,3.9,4.3,6.5c1.7,1.3,2.6,2.6,3.3,4.9c0.4,1.4,0.6,1.6,1.1,1.1
		c0.7-0.8-1.2-5.9-2.8-7.3c-0.4-0.4-1.1-1.3-1.7-2.1C383.2,230.1,382,229.1,381,230.1 M90.4,230.6c0.3,1.3-0.4,1.2-0.8-0.1
		c-0.1-0.4-0.1-0.6,0.2-0.6C90,229.9,90.3,230.2,90.4,230.6 M279.6,230.8c-1.6,0.8-1.7,0.8-3.2,0.5c-1.9-0.4-2.8,0-2.8,1.4
		c0,2.3,3.9,2,7.1-0.5c0.8-0.7,1.8-1.3,2-1.3c0.6-0.2,0.6-0.5,0.1-0.8C282.1,229.8,281.3,230,279.6,230.8 M293.3,230.8
		c-1.9,0.5-5.9,3.1-6.3,4.3c-0.4,1.1,3.6-0.1,4.8-1.4c1.2-1.4,2.8-2.2,4.3-2.2c0.5,0,0.8-0.1,0.8-0.4
		C296.9,230.5,295.3,230.3,293.3,230.8 M237.4,231c-1.9,0.2-2.8,1.1-2.7,2.4c0.1,1.4,1,1.3,1.7-0.3c0.5-1,0.7-1.3,1.2-1.3
		c0.6,0,1.5-0.7,1.2-0.9C238.9,230.9,238.2,230.9,237.4,231 M93.2,231.6c-0.5,0.6-1.2,2.8-1.2,4l-0.1,1.1l1.4,0.4
		c1.7,0.5,1.7,0.5,1.4-1.4c-0.3-1.7-0.1-3.1,0.4-3.1c0.2,0,0.4,0.5,0.5,1.3c0.4,3,1,4.2,2.3,4.5l0.7,0.2l-0.4-1.1
		c-0.6-1.6-0.8-3.5-0.4-3.5c0.2,0,0.4,0.2,0.5,0.5c1.4,4,2.3,4.9,6.4,5.8l0.8,0.2l-0.8-0.6c-1.4-1.1-3.4-4.8-2.6-4.8
		c0.1,0,0.8,0.7,1.5,1.6c1.4,1.8,3.7,3.8,5.7,4.7c2.7,1.3,2.8,1.2,0.7-1.5c-1-1.3-1.9-2.6-1.9-2.7c0-0.7,0.8-0.1,2.1,1.4
		c2.8,3.4,5.3,5.3,7.4,5.3c0.1,0-0.4-0.7-1.2-1.6c-1.4-1.7-2.3-3.1-2-3.4c0.1-0.1,1.4,1.2,3,2.8c2.6,2.6,3,3,4.3,3.4
		c3.3,0.9,3.2,1,1.5-0.9c-3.2-3.6-3.1-4.9,0.1-1.5c3,3.1,4,3.9,6.2,4.6l2,0.6l-1.8-2.1c-1.7-1.9-2.2-2.9-1.6-2.9
		c0.1,0,1.3,1.1,2.6,2.4c2.7,2.7,3.5,3.3,5.4,3.9c2,0.6,2.1,0.5,1.1-0.8c-1.2-1.5-1.9-3.1-1.4-3.1c0.2,0,0.8,0.6,1.3,1.2
		c0.5,0.7,1.6,1.9,2.5,2.6c1.5,1.3,2.2,1.6,5.3,2.5c0.3,0.1,0-0.4-0.9-1.4c-1.3-1.4-1.6-2-1.2-2c0.1,0,1,0.8,2.1,1.8
		c2.4,2.2,2.6,2.3,4.9,3l1.9,0.5l-1.5-1.6c-2.1-2.2-2.1-3.4,0-1.3c1.2,1.3,4,3.4,4.8,3.7c1.8,0.7,1.8,0.7,0.7-1.1
		c-0.6-0.9-1.1-1.8-1.1-2c0-0.8,0.5-0.5,1.4,0.8c2.1,3,2.9,3.5,6.9,4.6c4.9,1.3,5,1.2,0.7-0.6c-2-0.8-3.6-1.5-3.6-1.6
		c0.1-0.1,2.2,0.3,4.9,0.8c8.5,1.6,16.7,3.1,16.8,3c0.1-0.1-3.8-1.3-43.8-13.5c-41.4-12.7-43.6-13.3-44-13.3
		C93.6,231.3,93.4,231.4,93.2,231.6 M163.7,233.4l-0.7,0.8l0.6,0.4c1.1,0.7,2.6,0.8,3.2,0.3c0.8-0.7,0.7-1.4-0.4-1.9
		C165,232.4,164.5,232.5,163.7,233.4 M239.2,233.3c-0.5,0.5-0.1,1.4,0.8,1.9c1.6,0.8,5.9,2.2,6.4,2.1c0.8-0.3,0.3-0.9-1.3-1.6
		c-0.9-0.4-2.5-1.1-3.5-1.6C239.7,233.1,239.5,233,239.2,233.3 M248.7,234.5c-0.7,0.8-0.5,1.7,0.7,2.3c1.5,0.8,2,1.9,1.6,3.7
		c-0.6,2.5-1.8,3.4-3.5,2.4c-0.8-0.4-1.3-0.5-1.8-0.2c-0.4,0.3,0.8,4.6,1.4,4.9c0.9,0.5,1.2,1.1,1.2,2.2c0,2.4-0.9,3.2-3.3,3
		c-1.9-0.2-2.1,0.1-1.3,2.4c0.4,1.4,0.8,1.9,1.3,2.2c1.4,0.8,1.8,2.2,1.1,3.8c-0.7,1.8-2.6,2.3-4.4,1.2c-1.2-0.7-1.2-0.6-0.5,1.2
		c0.5,1.2,0.8,1.5,1.4,1.7c1.3,0.3,1.4,0.4,2,1.3c0.3,0.5,0.7,0.9,0.9,0.9c0.3,0,0.3,3.3,0,3.7c-0.4,0.5-3.3,0.2-4-0.4
		c-0.8-0.6-2-0.9-2-0.4c0,1.2,5,4.7,5.7,4c0.1-0.1,1.9-6.6,2.5-9.2c1.8-7.5,7.9-19.7,12.4-24.6c1.3-1.4,1.3-1.5-0.2-2.1
		c-4.2-1.6-5.5-2.1-7.6-3.3C249.6,233.7,249.4,233.7,248.7,234.5 M237,234.6c-0.4,0.4-0.1,1.1,0.8,2.3c1.7,2.3,2.4,1.2,0.9-1.2
		C237.9,234.5,237.5,234.2,237,234.6 M64.1,234.9c0,0.7,12.9,13.7,16.4,16.5c1.5,1.2,2.7,2.2,2.8,2.3c0.1,0.1,1.3,1,2.7,1.9
		c2.8,1.9,3.4,2.6,1.3,1.4c-5.8-3.4-14-10.2-22.4-18.8c-2.7-2.7-2.7-2.7-3.3-0.7c-0.5,1.7,1.3,5.8,4,9c1.1,1.3,1.1,1.4,0.4,0.9
		c-1.9-1.4-3.9-4.3-5-7.3c-0.2-0.6-0.7-0.3-0.7,0.4c0,0.9,1.4,4,2.5,5.5c0.5,0.7,0.9,1.4,0.8,1.5c-0.2,0.2-2.6-3.1-3.3-4.7
		c-0.8-1.7-0.9-1.7-2.4,1.1c-0.9,1.8-1,2.1-0.6,2.5c0.6,0.7,1.9,3.8,1.8,4.3c-0.1,0.3-0.5-0.4-1.3-1.8l-1.2-2.3l-0.9,1.9l-0.9,1.9
		l1.2,4c1.2,3.8,2.3,6.2,4.1,8.6c0.4,0.5,0.5,0.8,0.2,0.6c-1.7-1.4-4.5-6.2-5.4-9.6c-0.5-2-0.6-2-1.4-0.6c-0.8,1.4-0.8,1.5,1.2,4.6
		c3.5,5.2,8.2,10.1,12.8,13.1c2.3,1.5,2.5,1.9,0.4,0.7c-4.4-2.5-9.4-7.2-13.7-13c-1.6-2.2-2.3-2.7-2.3-1.9c0,0.1,0.7,1.1,1.5,2.2
		c0.9,1.1,2.4,3.2,3.5,4.8c2.5,3.5,6.9,8.5,9.3,10.5c5.8,4.8,19.9,14.8,20.9,14.8c0.4,0-1.3-2-2.8-3.4c-0.9-0.8-2.6-1.8-4.9-2.9
		c-2.8-1.3-4-2.1-6.3-4c-1.5-1.3-3.5-2.9-4.3-3.5c-0.9-0.6-1.5-1.2-1.4-1.3c0.2-0.2,3.2,1.7,5.4,3.6c3,2.6,4.3,3.4,6.4,4.2
		c4.4,1.7,6.8,3.4,10.2,7.5c2.2,2.7,4,2.9,5,0.5l0.4-1l-1.1-0.6c-1.1-0.5-4.3-2.7-4.9-3.2c-0.6-0.6,1.2,0.2,3.2,1.4
		c3,1.8,3,1.8,3.8-0.2c0.4-0.9,0.6-1.7,0.6-1.8c-0.1-0.1-4.5-2.9-8.9-5.7c-0.4-0.3-0.4-0.3,0.3-0.1c0.8,0.2,6.1,3,7.9,4.2
		c1.2,0.8,1,1,2.2-2.2c0.9-2.4,0.9-2.7,0.6-2.9c-0.8-0.5-4.5-3.5-4.3-3.6c0.2-0.2,1.2,0.4,2.8,1.6c2.2,1.6,2.1,1.6,2.5,0.6
		c0.6-1.5-0.9-3.5-4.1-5.4c-2.9-1.7-2.8-1.8,0.2-0.3c1.6,0.8,2.8,1.6,3.5,2.5c1,1.1,1.6,1.2,1.6,0.3c0-0.9-4.3-4.8-5.3-4.8
		c-0.2,0-0.3-0.1-0.3-0.3c0-0.9,3.1,0.6,4.9,2.4l1.2,1.2l0.9-1.9c0.5-1,1.1-1.9,1.2-1.9c0.1,0,0.5-0.4,0.7-0.8c0.5-0.9,1-1,1.8-0.4
		c0.5,0.4,0.5,0.5-0.7,2.2c-1.2,1.9-2.4,4.1-2.4,4.8c0,0.2-0.2,0.6-0.4,1c-0.4,0.6-2.4,7.9-2.2,8.1c0.1,0.1,0.4-0.9,0.9-2.2
		c0.7-2,3.7-8.6,4-8.6c0.1,0-0.4,1.8-1.4,4.5c-0.5,1.2-1.3,3.9-1.9,5.9c-0.9,3.1-4.6,11.6-4.2,9.4c0.1-0.3,0.2-1.4,0.3-2.4
		c0.1-1,0.5-3,1-4.5c1-3.2,0.9-3.6-0.2-1.7c-1,1.7-1.4,3.1-1.4,4.4c0,0.5-0.3,1.9-0.6,3c-0.6,2.3-0.5,3.4,0.3,3.4
		c0.3,0,0.9,0.2,1.2,0.5c0.9,0.7,1.2,0.7,1.6,0c0.3-0.5,0.3-0.6-0.1-0.9c-0.4-0.3-0.5-0.4,0-0.7c0.6-0.5,2.9-7.4,2.9-8.8
		c0-1.7,0.7-5,1.2-6.1c0.6-1.1,0.6-1,0.4,1.1c-0.3,2.5-0.1,2.6,0.6,0.3c1.3-4.5,1.8-5.6,3.1-7.8c0.8-1.3,1.4-2.4,1.4-2.6
		c0-0.5,0.5-0.6,1.3-0.2c0.5,0.3,0.7,0.5,0.6,0.7c-0.1,0.2-0.5,0.8-0.9,1.4c-1.2,1.8-2,3.6-3,6.7c-1.3,4.2-1.4,4.8-0.4,2.8
		c1.3-2.4,2.3-3.2,1.5-1.1c-1.7,4.2-3.3,10.5-3.1,11.5c0.1,0.3,0.1,0.2,0.2-0.2c0.1-2,3.9-11.9,4.4-11.4c0.1,0.1-0.3,1.4-0.8,2.9
		c-1,3-2.3,7.5-2.3,8.2c0,0.5,3.8-6.9,4.5-8.9c1.2-3.1,2.3-5.1,3.9-6.7c1.6-1.6,1.6-1.5-0.2,1c-2.5,3.6-2,3.7,1.2,0.5
		c1.7-1.7,3.2-3.2,3.5-3.4c0.4-0.3,1.1-0.2,5,1.3l0.6,0.2l-0.5,0.9c-0.5,0.8-1.7,3.7-1.7,4.1c0,0.1,0.6-0.5,1.3-1.3
		c1.6-1.8,2-1.6,0.8,0.5c-3.4,5.7-5.7,12.9-6.3,19.9c-0.4,4.7-0.3,4.8,0.7,0.4c1.4-6.8,3.5-12.9,5.3-15.6c0.9-1.3,0.9-1.2-0.2,1.7
		c-0.8,2.1-3,10.3-3.5,12.9c-0.3,1.5,0.3,0.3,1.3-2.7c0.5-1.5,1.1-2.9,1.3-3.1c0.4-0.5,2.3-5,3-7.2c0.3-0.8,1.1-2.8,1.9-4.5
		c0.8-1.7,1.5-3.3,1.6-3.6c0.2-0.6,0.3-0.6,1.4-0.1l1.1,0.5l-0.4,1.6c-0.2,0.9-1.1,3.6-1.9,6c-2.6,7.1-5.1,15.8-5.1,17.5
		c0,1.3,0.5,0.5,0.8-1.2c0.8-4.4,6-18.2,6.6-17.5c0.1,0.1-0.4,1.8-1.1,3.8c-2.8,8.5-4,12.8-3.5,12.3c0.1-0.1,0.7-1.6,1.3-3.3
		c1.2-3.2,1.7-4.4,5-11.9c1-2.3,1.8-4.6,1.8-5c0-0.4,0-0.8,0.1-0.8s0.7,0.2,1.5,0.5c0.8,0.3,1.6,0.4,1.8,0.4c0.2-0.1,0.4,0,0.5,0.1
		c0.2,0.3,4.7,1.5,6.7,1.8c0.7,0.1,2,0.4,3,0.6c2,0.5,2.5,0.3,2.2-0.7c-0.2-0.5-2.6-1.7-4.4-2.2c-3.8-0.9-8.9-2.6-13.1-4.4
		c-1.2-0.5-3.4-1.4-4.8-1.9c-8.4-2.9-17.2-6.4-20.9-8.1c-1.3-0.6-3.7-1.7-5.2-2.4c-4.5-2-14.8-7.9-17.4-9.9
		c-3.4-2.7-11.3-9.5-12-10.4c-0.4-0.5-1.9-1.9-3.3-3.2c-1.5-1.3-2.9-2.8-3.3-3.3C67.2,234.8,64.1,234.2,64.1,234.9 M272.4,235.1
		c-3.3,2.3,3.8,4,8.1,1.9c2.6-1.3,2.5-2.4-0.1-1.5c-1.8,0.7-2.3,0.7-4.8-0.1C273.2,234.6,273.2,234.6,272.4,235.1 M160.4,237
		c-0.8,0.8-0.8,0.8,0.9,1.6c1.9,0.9,1.8,0.9,2.7-0.4c0.9-1.3,0.9-1.2-0.9-1.6C161.1,236.2,161,236.2,160.4,237 M299,237.5
		c-1.1,0.5-3.3,1.3-4.8,1.7c-1.5,0.4-3.8,1.2-5,1.6c-4.1,1.4-12.3,1.7-18.2,0.5c-5.8-1.1-9.4,0.8-12,6.3c-1.8,3.8-1.9,3.3,1.5,5
		c5.1,2.4,2.8,2.7-3.4,0.3c-0.4-0.2-1.3,1.4-0.9,1.7c0.5,0.3,0.3,0.9-0.3,0.9c-0.8,0-1,1.1-0.3,1.6c0.8,0.6,0.5,1.1-0.5,0.9
		c-1.7-0.3-0.8,0.6,1.7,1.9c1.4,0.7,2.7,1.5,3,1.8l0.5,0.6l-0.8-0.1c-0.4-0.1-1.6-0.5-2.5-0.9c-3.2-1.4-5.1-0.9-2.4,0.6
		c1.7,1,1.5,1.6-0.4,1.1c-1.7-0.5-2.2,1-0.6,1.6c1.2,0.5,5,3.2,5,3.7c0,0.5,0,0.5-2.6-0.8c-2.9-1.5-3.6-1.6-3.7-0.7
		c-0.1,0.9,1.1,2.1,4.2,4.2c5.8,3.8,9.5,4.7,18.7,4.1c15.1-0.9,18.9-2.9,23.7-12.7c2-4,2.9-5.7,5.1-9.3c1.3-2.2,2.6-4.3,2.8-4.7
		c0.4-0.7-4.2,4-5.8,6c-3.4,4.2-3.6,3.8-0.6-0.8c2.4-3.7,2.5-4.3,0.2-2.1c-5.7,5.5-6.5,5.4-1.5-0.1c1.3-1.5,2.4-2.8,2.4-3
		c0-0.2,0.8-1.1,1.8-2.1c2.5-2.4,2.7-3,0.3-1.2c-4.9,4-6.3,4.6-2.6,1l2.2-2.1l-2.3,1.6c-1.2,0.9-3.4,2.4-4.8,3.5
		c-2.6,1.9-5,3.5-6.1,4.1c-0.7,0.4,2.7-3,6.2-6c1.9-1.7,2.3-2.1,2.1-2.5c-0.2-0.4,0.1-0.7,2.6-2c3.5-1.8,5.1-3,2.6-1.9
		c-0.9,0.4-2.4,1-3.5,1.5c-1,0.4-2.7,1.2-3.6,1.7c-0.9,0.5-2.6,1.3-3.7,1.7c-4.5,1.8-4.6,1.3-0.4-1c1.7-0.9,3-1.7,3-1.8
		c0,0-1.6,0.4-3.5,1c-8.7,2.7-11.8,2.8-4.9,0.1c1-0.4,2.7-1,3.9-1.4c2.9-1.1,11-5.1,11.2-5.5C302,236.4,301.2,236.5,299,237.5
		 M231.4,239.6c-1.2,0.7-1.9,2-1.6,3.3c0.3,1.7,1.4,1.1,1.4-0.7c0-0.8,0.8-1.9,1.6-2.1c0.2-0.1,0.3-0.3,0.2-0.6
		C232.8,238.9,232.7,238.9,231.4,239.6 M245.1,239.1c-0.5,0.1-3.9,0.6-6.8,1c-3.2,0.4-4.2,1.1-3,2.1c0.5,0.4,10.9-1.8,11.6-2.5
		C247.3,239.4,246,239,245.1,239.1 M343.2,240.5c-2.2,1.2-2,6.4,0.4,7.9c1.5,0.9,2,0.7,1.9-0.7c-0.1-0.9,0.1-1.9,0.6-3.3
		C347.2,240.6,346,239,343.2,240.5 M157.7,241.2c-1,1.2,0.3,2.6,2.3,2.6c1.7,0,2.3-1.9,0.8-2.5C159.6,240.8,158.1,240.8,157.7,241.2
		 M195.6,241.7c-1.2,1.3-3.3,8.4-4,13.3c-0.1,1.1-0.3,2.3-0.4,2.7c-0.2,1.2,0.4,2,1.2,1.4c0.6-0.5,2.2-6.6,2.7-10.2
		c0.1-1,0.5-2.8,0.9-3.9l0.6-2l1.5-0.1c1.4-0.1,1.5-0.2,1.4-1C199.1,241.1,196.4,240.9,195.6,241.7 M232.8,242.7
		c-0.1,0.2,0.2,1,0.8,2c0.6,0.9,1.9,3,2.9,4.7c3.2,5.2,4.7,7.3,5.2,7.4c0.9,0.2,0.3-1-4.7-9.2C235.4,244.9,233.1,242.2,232.8,242.7
		 M66.9,243.5c1.3,2.6,4.7,5.3,10.5,8.4c4.7,2.5,8.3,4.8,8.3,5.4c0,0.6-0.5,0.5-2.8-1c-1.2-0.8-3.4-2.1-5-3
		c-6.1-3.4-11.7-8.3-11.7-10.3C66.2,242.5,66.5,242.8,66.9,243.5 M241.8,243.7c-0.2,0.5,0.5,2,1.9,3.9c1.8,2.4,2,1.4,0.3-1.9
		C242.9,243.4,242.1,242.7,241.8,243.7 M204.4,244.4c-0.1,0.2-0.6,1.7-1,3.3c-0.9,3.7-1.3,4.1-4.3,4.6c-1.3,0.2-1.7,0.8-0.6,0.8
		c0.3,0,1.3,0.1,2.2,0.2c2.9,0.4,3.6-0.5,5-6.4c0.2-0.8,0.2-0.8,1.6-0.6l1.5,0.1v-0.8C208.9,244.5,205.1,243.4,204.4,244.4
		 M155.5,246.8c-0.5,0.9,1.5,2.6,2.9,2.6c0.3,0,1.1-1.6,1.1-2.1C159.5,246.3,156,245.9,155.5,246.8 M214.7,246.9
		c0,0.6,4.9,5.2,5.2,4.9c0.6-0.8,0.3-1.5-1-2.2c-0.7-0.4-1.7-1.1-2.2-1.5C215.8,247.3,214.7,246.6,214.7,246.9 M356.5,247.1
		c-0.6,0.2-1.8,1.1-2.8,2.1c-1,1-2.1,1.8-2.4,1.9c-0.7,0.2-0.7,0.8-0.1,1.2c3.8,2,10.5-2.4,7.5-4.9
		C357.8,246.6,357.9,246.6,356.5,247.1 M239.9,249.6c-0.2,0.5,0.3,0.9,1.3,0.9c1,0,1.6-0.2,1.6-0.7
		C242.7,249,240.2,248.8,239.9,249.6 M228.1,249.7c-1.6,0.8-2.5,3.6-1.3,3.9c0.3,0.1,0.5-0.1,0.5-0.3c0-1.3,1.9-3.2,2.8-2.9
		c0.6,0.2,0.4-0.4-0.1-0.7C229.3,249.3,228.9,249.3,228.1,249.7 M231.4,250.6c-0.3,0.8,0.1,1,1.9,1c2.8,0,2.7-0.9-0.1-1.2
		C231.8,250.2,231.5,250.2,231.4,250.6 M70.7,252.4c2.2,1.3,3.8,2.7,4.4,3.6c0.5,0.7,0.5,0.7-0.1,0.3c-0.3-0.2-1.3-1-2.2-1.6
		c-0.9-0.7-2.3-1.6-3-2l-1.3-0.8l0.9,1.4c0.6,0.9,1,1.9,1.3,3.1c0.3,1.7,0.4,1.8,1.6,2.4c1.4,0.7,3.5,2.6,3,2.8
		c-0.2,0.1-0.6-0.1-1-0.4c-2.4-1.7-3.5-1.9-3.5-0.5c0,0.8-2.1,2.3-3.4,2.5c-3.3,0.5-6-1.3-6.6-4.4l-0.2-0.9l1.1,0.4
		c2.6,1,5.3,0,6.6-2.4c0.5-1,0.4-3.7-0.3-4.4C66.9,250.3,67.8,250.6,70.7,252.4 M230.1,253.8c-0.5,0.5,1.8,4,2.9,4.5
		c1.4,0.5,1.2-0.3-0.6-2.6C231,253.8,230.5,253.4,230.1,253.8 M343.3,254.6c-2.5,1.1-2.5,1.1-0.1,2.6c2.4,1.5,2.4,1.5,2.6-1.3
		C346,253.3,346.1,253.3,343.3,254.6 M80.9,258.4c1.1,0.6,4.1,2.1,6.6,3.2c4.2,1.9,8.5,4.5,9.4,5.5c0.2,0.2-0.7-0.3-2.1-1.2
		c-1.3-0.9-3.8-2.2-5.6-3c-5.8-2.6-10.6-5.1-12.2-6.3c-2.1-1.7-2-2.3,0.2-0.7C78.2,256.7,79.8,257.8,80.9,258.4 M144.3,256.3
		c-0.2,0.4-0.6,1.6-1,2.6c-0.4,1-1.1,2.8-1.6,3.9c-0.9,1.9-3,7.4-3.4,8.7c-0.2,0.6,1.3,1.3,5.9,2.8c1,0.3,2.4,0.8,3,1.1
		c1.7,0.8,4.6,1.6,5.8,1.5c1.1,0,1,0-1.3-1.2c-4.3-2.1-2.5-2.4,2.5-0.4c2.9,1.2,4.7,1.4,2.1,0.2c-0.8-0.4-1.7-0.7-1.9-0.8
		c-0.6-0.2-0.6-1,0-1c0.2,0,2.5,0.7,5,1.5c7.3,2.3,6.5,1.2-1.4-2c-1.4-0.6-3.5-1.5-4.6-2c-3.2-1.5-4.2-1.6-5.8-0.9
		c-1.7,0.8-5.3,1.4-5.9,0.9c-0.2-0.2,1.3-4.7,2.2-6.9c1.3-3.2,2.5-8.2,1.9-8.5C145.1,255.4,144.7,255.5,144.3,256.3 M328.6,258.8
		c-0.4,1.2-1.1,3.2-1.6,4.4c-0.4,1.2-1,3.3-1.2,4.6c-0.4,2.3-0.5,2.4-1.6,3.3c-6.4,5.1-9.2,8.5-10.9,13.4c-0.4,1.1-0.7,2-0.8,2
		c-0.6-0.8,1.5-11.5,3.3-17.5c0.8-2.6,3.1-6,5-7.2c0.9-0.6,2.5-1.7,3.5-2.5c1.6-1.2,3.8-2.4,4.9-2.5
		C329.3,256.6,329,257.6,328.6,258.8 M153,257.8c-0.2,0.6,0.1,1.1,1.1,1.6c1.2,0.6,1.7,0.4,1.7-0.6
		C155.8,257.7,153.3,256.8,153,257.8 M78.6,260.2c2.6,1.3,3.8,2,3.1,2c-0.6,0-6.2-3-6.8-3.6l-0.7-0.7l0.7,0.5
		C75.4,258.5,77,259.4,78.6,260.2 M237.3,258.5c-0.4,0.1-1.8,0.2-3.1,0.2c-4.7,0.1-7.4,1-6.4,2.1c1,1,12.5-1,12.2-2.1
		C239.9,258.3,238.4,258.2,237.3,258.5 M90.1,260.5c1.1,0.5,2,1.2,1.4,1.2c-0.2,0-3.7-1.5-3.8-1.7C87.2,259.6,88.7,259.9,90.1,260.5
		 M168.7,262.5c-1.2,2.6-0.9,3.1,1.7,3.6c0.9,0.2,2.4,0.5,3.2,0.8l1.6,0.5l2-1.4c2.3-1.6,2.3-1.7,0.3-1.9c-3.5-0.4-5.4-1-5.4-1.8
		C172.1,260.5,169.6,260.6,168.7,262.5 M152.6,263c0,0.8,1.1,1.6,2.3,1.6c0.9,0,0.5-1.8-0.4-2.1C153,262,152.6,262.1,152.6,263
		 M236.5,262.4c-0.4,0.4-0.1,0.9,1.1,1.8c2.2,1.6,2.9,1.2,1.1-0.8C237.7,262.3,236.9,261.9,236.5,262.4 M85.7,264.5l1.5,0.7l0.6,2.4
		c1,4.1,0.8,5.1-1.7,7.4c-2.1,2-7.9,0.3-9.7-2.7c-0.7-1.2-0.5-1.3,0.9-0.6c1.2,0.6,2.5,0.6,4.4,0c2.3-0.7,3.8-4.8,2.6-7.2
		C83.7,263.6,83.8,263.6,85.7,264.5 M194.3,264.4c-1.5,1-3.9,2.1-5.6,2.6c-1.7,0.5-3.7,1.7-5.7,3.4l-1.1,0.9l0.2,1.5
		c0.4,3.5,1.9,7.9,2.2,6.3c0.6-3.5,2.5-7.4,3.3-6.6c0.1,0.1,1.1,0.4,2.4,0.7c2.2,0.5,6.3,2,6.7,2.4c0.1,0.1,0.1,1.5-0.1,3.1
		c-0.4,3.6-0.2,3.7,1.7,2.4c1.5-1,1.5-1,1.3-2.1c-0.5-3.3-4.1-11.4-5.1-11.6c-0.3,0-1.6,0.6-3,1.5c-2.4,1.6-3,1.8-3,1.4
		c0-0.1,1-1.1,2.3-2.3c2.2-1.9,4.6-4.2,4.3-4.2C195.2,263.8,194.8,264.1,194.3,264.4 M97.5,265.7c0.6,0.6,0.8,1,0.5,0.8
		c-0.3-0.2-1-0.8-1.6-1.4c-0.6-0.6-0.8-1-0.5-0.8C96.2,264.4,96.9,265.1,97.5,265.7 M90.9,265.7c0.7,0.5,1.1,0.9,1.1,1
		c-0.1,0.1-2.2-1.2-2.4-1.6C89.3,264.7,89.6,264.9,90.9,265.7 M153.8,266.5c-0.4,0.6,0.2,1.3,1.2,1.6c1.3,0.4,1.4,0.3,0.9-0.9
		C155.6,266.2,154.2,265.8,153.8,266.5 M225.1,270.8c4.5,2.3,8.1,4.1,8,4.1c-0.1,0-2.3-0.8-5-1.7c-2.7-1-4.9-1.7-5-1.7
		c-0.1,0.1,21.6,9.8,21.9,9.8c0.1,0,0-0.2-0.2-0.5c-0.3-0.3-0.4-0.7-0.4-0.8c0.1-0.2,0.5,0.2,0.9,0.8c0.7,1,4,3,4.3,2.6
		c0.1-0.1-0.2-0.5-0.5-1c-1-1.3-1.1-1.6-0.6-1.6c0.2,0,1,0.8,1.7,1.7c0.9,1.2,1.6,1.9,2.4,2.2c2.3,1,2.3,1,1.2-0.8
		c-0.6-0.9-1-1.8-1-2c0.1-0.2-3-1.6-7.5-3.5c-12.4-5.3-27.3-11.6-27.8-11.7C217.2,266.8,220.7,268.6,225.1,270.8 M71.4,269.3
		c1.2,0.7,2.7,2.2,2.5,2.4c-0.1,0.1-0.7-0.3-1.4-0.9c-0.7-0.6-1.9-1.5-2.7-1.9c-0.8-0.5-1.4-0.9-1.4-1
		C68.3,267.7,70.2,268.6,71.4,269.3 M115.9,271.2c0.2,0.3-4.1,6-4.3,5.8c-0.2-0.2,0.6-1.5,2.1-3.9
		C115.1,271.1,115.6,270.7,115.9,271.2 M187.2,275.1c-0.2,0.5-0.6,1.7-0.8,2.7c-1.6,6.4-6.1,8.3-13.8,6c-1.4-0.4-4.8-1.3-7.5-2
		c-2.7-0.6-5.1-1.3-5.3-1.5c-0.9-0.7-1.5,0.7-4.7,10.5c-1.7,5.2-4.4,13.5-6.1,18.5c-1.7,5.3-2.9,9.3-2.8,9.5c0.1,0.3,0,0.5-0.3,0.5
		c-0.3,0-1.2,0.4-2.1,0.8c-0.9,0.4-4.2,1.7-7.3,2.9l-5.7,2.1l-1.5,4.8c-0.8,2.6-2.1,6.3-2.7,8.1c-0.7,1.8-1.7,5-2.3,7l-1.1,3.6
		l2.2,3.6c1.2,2,2.8,4.6,3.5,5.9c0.7,1.3,1.4,2.3,1.5,2.3c0.4,0,4.1-12.5,4-13.6c0-0.6,0.3-1.6,0.8-2.7c0.5-0.9,1.1-2.6,1.5-3.6
		c1.4-3.9,1.9-4.9,3.4-5.4c0.7-0.2,3-1.1,4.9-2c2-0.8,4.4-1.8,5.5-2.1c1.6-0.5,3.8-1.3,4.4-1.6c0.4-0.2,7.6,10.2,8.4,12.1
		c0.6,1.4-0.8,8.3-3.5,17.2c-0.4,1.2-1,3.9-1.5,6c-0.4,2.1-1.1,4.4-1.3,5.1l-0.5,1.4l3.4,5.2c1.9,2.9,3.5,5.2,3.5,5.2
		c0.4,0,5.1-15.5,6-19.7c0.8-4,1.9-7.9,5.1-18.8c0.9-3,0.9-2.9-1-3.6c-4.7-1.8-9.7-7-11.7-12.1c-2.3-5.8,1.1-17.1,6-20.3
		c1-0.6,1.2-1,1.4-1.8c0.7-4.2,2.4-7.1,5.2-8.9l1.5-1l2.3,0.2c1.3,0.1,3.4,0.3,4.8,0.4c2.8,0.3,3,0.3,3-0.7c0-0.4,0.2-1.5,0.5-2.5
		c0.3-1,0.8-3.1,1.2-4.7c1.2-5,3.4-11.6,3.9-11.4c0.7,0.3,3.7,0.5,3.7,0.2c0-0.4-6.1-2.8-7.1-2.8
		C187.7,274.2,187.4,274.6,187.2,275.1 M93.6,277.2c0.8,0.7,1.9,1.5,2.4,1.7c1.1,0.5,1,1-0.2,0.6c-0.7-0.2-5.3-4.1-5.3-4.4
		C90.5,274.8,92.3,276,93.6,277.2 M119.4,275.9c-0.5,0.5-0.7,1.1-1.3,3.8c-0.2,0.8-0.2,0.8-0.5-0.4l-0.3-1.2l-0.6,1
		c-0.5,0.9-0.6,1.4-0.7,4.9c-0.2,7-0.8,12.3-1.9,15.9c-0.1,0.3,0,0.5,0.1,0.5c0.3,0,1-2.6,2.5-9.3c1.1-5,2-7.3,1.6-4.4
		c-0.4,3.5-1.7,10.6-2.2,12.1c-0.7,2.1-0.6,2.4,0.2,0.6c1.7-4,3.2-10.5,3.5-16c0.1-2.3,0.3-4.9,0.4-5.9
		C120.4,275.5,120.1,275,119.4,275.9 M79.4,279.1c1.1,0.4,3.3,0.9,4.9,1.1c4.3,0.6,10.9,4.2,10.9,6c0,0.8-0.4,0.6-2.1-0.8
		c-3.5-3.1-5.2-4-9.1-4.6c-3.1-0.5-8.6-2.6-8.6-3.2c0-0.1,0.5,0.1,1,0.4C77.1,278.2,78.4,278.7,79.4,279.1 M167.5,279.8
		c-0.4,0.1-1.1,0.2-1.5,0.2c-1.7,0.1-0.5,1.1,1.3,1.1c0.4,0,2.6,0.5,4.7,1.2c5.1,1.5,5.1,1.5,6.8,1.3c1.9-0.2,1.8-0.7-0.4-1.1
		c-0.9-0.2-3.4-0.9-5.5-1.7C168.9,279.5,168.7,279.4,167.5,279.8 M253.3,282.3c0.1,0.2,0.7,1.1,1.3,2c0.6,0.9,1.2,1.8,1.2,1.9
		c0,0.2,3.8,1.9,4.1,1.9c0.1,0-0.5-0.7-1.2-1.7c-1.4-1.7-1.6-2.1-1.1-2.1c0.3,0,1.3,1,2.9,3c1.1,1.3,3.6,3.1,3.9,2.8
		c0,0-0.6-0.9-1.4-2c-0.8-1-1.3-1.9-1.2-2c0.4-0.1,1.4,0.9,3,3c1.2,1.5,4.7,4,4,2.8c-0.1-0.2-0.6-0.9-1-1.5
		c-0.7-1.1-0.8-1.6-0.2-1.3c0.2,0.1,0.9,1,1.6,2c1.1,1.4,1.6,1.9,2.9,2.5l1.6,0.7l-1.4-2c-2.5-3.5-1-2.8,1.7,0.8
		c1.2,1.6,1.7,2.1,2.8,2.6c1.6,0.7,1.7,0.6,0.6-1c-3-4.4-1.4-3.6,2.5,1.2c1.2,1.5,3.3,3,3.7,2.6c0.1-0.1-0.5-1-1.2-2.1
		c-0.7-1.1-1.2-2-1.1-2.1c0.5-0.2,2.7,1.9,3.5,3.3c1,1.7,1.3,2.1,2,2.5c1.4,0.8,1.5,0.4,0.1-1.9c-2-3.3-0.3-2.3,2.3,1.3
		c1.5,2.1,2.9,3.3,3.2,2.9c0.2-0.2-0.8-2-1.6-3.1c-0.9-1.1-0.7-1.3,0.5-0.6c0.6,0.3,1.5,1.5,2.3,2.7c1.2,1.9,3.1,3.5,3.6,3.1
		c0.1-0.1-1.6-2.8-2.6-3.9c-1.6-1.9-0.4-1.2,1.6,0.8c0.8,0.8,1.7,2,2.2,2.8c0.6,1,1.1,1.4,1.9,1.7l1.1,0.4l-0.4-0.8
		c-0.2-0.5-0.8-1.4-1.3-2.1s-0.9-1.4-0.9-1.5c0-1,2.2,0.9,3.1,2.7c0.5,1,0.6,1,1.2-0.2c0.7-1.4,0.7-1.4-0.7-2
		c-1.2-0.5-7.2-3-34.9-14.7C252,281.4,253,281.8,253.3,282.3 M141,284.9c-2.6,0.9-2.3,0.5-3.8,4.7c-0.7,1.9-2,5.6-3,8.2l-1.7,4.8
		l0.8,2.4c1,2.9,1,2.9,2.4,3.3c1.4,0.4,1.4,0.5,0.5-1.9c-1.6-4.3-1.3-4.4,0.8-0.3c1.1,2.3,1.6,3,2.2,3.2c1,0.4,1.1,0.2,0.5-1.1
		c-0.9-1.7-2.4-5.9-2.3-6.2c0.1-0.2,1,1.6,2.2,3.9c1.9,3.7,2.2,4.3,3.1,4.7c1.3,0.7,1.3,0.5-0.2-2.3c-1.1-2.1-2.8-6.7-2.8-7.3
		c0-0.8,0.7,0.3,2.8,4.7c2.6,5.4,2.6,5.4,3.2,3.9l0.4-1.1l-1.6-3.1c-0.9-1.7-1.8-3.7-2-4.4c-0.8-2.2-0.3-2,0.9,0.2
		c1.6,3.2,3.2,5.8,3.3,5.6c0.9-1.5,0.8-2.2-0.4-5.2c-1.9-4.6-1.5-5,0.7-0.7c1.1,2.3,1,2.3,1.7,0.2c0.1-0.2-0.4-1.5-0.9-3
		c-1.6-4.1-1.2-5.1,0.5-1.3c0.6,1.2,1.1,2.1,1.1,1.9c0.9-1.6,1-3,0.4-4.5c-1-2.4-1.1-2.8-0.6-2.8c0.2,0,0.7,0.6,1,1.3
		c0.8,1.7,0.9,1.7,1.4-0.2c0.4-1.3,0.4-1.6,0-2.3c-0.7-1.3-0.5-2.1,0.3-1.2l0.6,0.7l0.3-1c0.2-0.6,0.3-1.1,0.3-1.2
		c0-0.5-6.8-3.1-9.1-3.5C143.4,284.1,142.5,284.3,141,284.9 M168,287.3c3.7,1.7,2.7,6.1-1.7,7.5c-3.6,1.2-7.1-3.7-4.7-6.7l0.5-0.6
		l-0.1,1.3c-0.2,1.7,0.4,2.8,1.5,3.3c2.7,1.1,4.2-2.9,1.8-4.9C164.5,286.5,166.5,286.6,168,287.3 M110.3,291.5
		c-2.2,4.8-3.2,8.1-2.5,8.4c0.2,0.1,0.8,0.3,1.3,0.6l1,0.4l1.2-3.8c2.3-7.3,3.2-11.7,1.4-6.6c-2,5.4-3.4,8.3-3.4,7
		c0-0.3,2.2-7.7,2.5-8.6c0.1-0.3,0.1-0.5,0-0.5C111.9,288.3,111.1,289.7,110.3,291.5 M261.2,297.2c-0.3,0.3-1.9,1.2-3.6,2
		c-5.7,2.7-12.4,7.9-11.2,8.7c0.6,0.4,8.5,3.4,8.9,3.4c0.3,0,1.7-0.3,3-0.7c1.4-0.4,3.8-0.9,5.3-1.2c1.6-0.3,3.7-0.7,4.7-0.9
		c1-0.2,3.8-0.5,6.3-0.7c4.9-0.3,5.8-0.5,7-1.5c0.4-0.4,1-0.7,1.1-0.7c1.2,0-9.5-5-16.1-7.6C262.3,296.4,262,296.4,261.2,297.2
		 M173.3,299.4c-1.9,1.7-1.9,1.8-2.7,5.5c-0.2,0.9,0.2,1,1.5,0.4c1.2-0.6,2.3-2.7,2.3-4.6c0-0.2,0.2-0.9,0.4-1.5
		C175.6,297.6,175.3,297.6,173.3,299.4 M163.8,300.8c1.1,1.2,1.3,3.3,0.3,4.5c-2.5,3.4-7.8,2.2-6.8-1.5c0.3-1.1,0.7-1.3,0.9-0.5
		c0.5,1.6,3.1,1.5,3.8-0.1c0.4-1,0.1-2.7-0.6-3c-0.3-0.1-0.3-0.2-0.1-0.3C162,299.5,162.9,299.8,163.8,300.8 M206,300.5
		c-2.8,1.4-1,5.9,1.9,4.6c1.7-0.8,1.8-3.8,0.2-4.6C207.1,300,207.1,300,206,300.5 M92.8,301.1c-7.4,2.9-12.4,10.9-10.6,17.2
		c0.4,1.4,0.8,1,0.8-0.8c0-5.5,4.9-12.5,11.1-15.9C96.2,300.5,95.3,300.1,92.8,301.1 M179.3,303.1c-1.5,1.9-1.4,2.3,0.6,2.6
		c1.9,0.3,3.1-1.1,3.1-3.4c0-0.5-0.9,0-1.2,0.7c-0.8,1.9-1.9,1.8-1.3-0.1C181.2,301.1,180.7,301.2,179.3,303.1 M308.2,302.5
		c-2.6,1.5-4.3,7.7-2.6,9.5c1.1,1.2,2,1.4,2,0.5c0-0.4-0.2-0.8-0.4-0.8c-0.2-0.1-0.5-0.4-0.7-0.7c-0.4-0.8,0.1-1.2,1-0.8
		c1.1,0.5,0.9-0.3-0.3-1c-1.6-1-0.9-2.2,0.8-1.2c0.5,0.3,0.9,0.4,1.1,0.2c0.4-0.4-0.2-1.5-0.9-1.8c-0.6-0.2-0.6-1,0-1.1
		c0.2,0,0.8,0.2,1.2,0.6c0.5,0.4,0.9,0.6,1,0.4c0.3-0.5-0.1-1.5-1-1.9c-0.8-0.5-0.8-0.5-0.4-0.8c0.6-0.4,1.9-0.1,2.4,0.7
		c0.4,0.6,1,0.4,1-0.4C312.3,302.1,310.1,301.5,308.2,302.5 M315.2,304c-4.5,2.8-5.6,10-1.4,9.2c1.5-0.3,1.4-2.1-0.1-2.3
		c-0.5-0.1-0.7-0.2-0.7-0.6c0-0.9,1.6-0.9,2.5,0l0.7,0.7l0.3-0.7c0.6-1.2,0-2.3-1.3-2.3c-0.5,0-0.6-0.1-0.5-0.6
		c0.1-0.8,1.3-0.9,2.3-0.3c1.3,0.8,1.8-0.2,0.6-1.2c-0.8-0.7-0.9-0.8-0.6-1.2c0.4-0.5,1.2-0.3,2,0.4c0.7,0.7,0.9,0.6,0.9-0.2
		c0-0.4,0.1-0.6,0.3-0.5c0.1,0.1,0.3,0,0.3-0.2C320.6,303.1,317,302.9,315.2,304 M104.8,308.3c-0.2,0.3-1,1.8-1.8,3.5
		c-0.7,1.6-1.6,3.4-2,4c-1.5,2-4.7,5.6-7.7,8.8c-3.3,3.5-5.4,6.2-4.4,5.6c0.3-0.2,0.6-0.4,0.7-0.5c0.3-0.5,4.2-3.5,6.5-5.1
		c5.3-3.6,11.9-12.5,11.5-15.5c-0.2-1.1-0.6-0.8-1.2,0.8c-1.2,3-4.7,8.6-6.3,9.9c-0.9,0.8-0.6-0.1,1.2-3
		C104.3,311.8,106.7,306.1,104.8,308.3 M111.2,309.7c-0.5,5.6-3.6,12.4-7.4,16.1c-1.8,1.8-1.8,2.5,0,1.4c2.3-1.4,6.2-6.1,7.8-9.4
		c0.8-1.7,0.9-8,0.2-9.3l-0.4-0.8L111.2,309.7 M177.6,310.1c-0.1,1.3-0.2,5.7-0.3,9.7c-0.2,10.4-0.3,10.5-1.5,4
		c-2.9-15.4-2.9-15.5-3.5-15.3c-1.6,0.5-3.7,1.6-4.5,2.5l-0.9,1l1.7,3.2c1,1.8,2.6,4.8,3.8,6.8c4.5,8,4.5,8-2.1-1.3
		c-5.3-7.4-5-7.1-5.6-5.9c-0.6,1-1.2,0.1,5.2,7.3c2.7,3.1,5.1,5.8,5.3,6.1c0.2,0.3-2.2-1.8-5.5-4.6l-5.9-5.1l-0.2,1
		c-0.1,0.5-0.2,1.6-0.1,2.3l0.1,1.3l4.4,2.5c2.4,1.4,5.2,3,6.3,3.6c2.6,1.5,3,1.5,5.3,0.4c1.1-0.5,2.1-1,2.3-1
		c1.6,0,14.4-5.3,14.4-6c0-0.8-2.1-4.6-3.2-5.8l-1-1.1l-7,7.1c-3.9,3.9-7.1,7.1-7.1,7c-0.1-0.1,9-16.5,9.8-17.6
		c0.6-0.8,0.3-1.8-0.4-1.8c-0.2,0-1-0.4-1.8-0.9c-2.1-1.3-2.8-1.6-5.3-1.7l-2.3-0.1L177.6,310.1 M221.2,308.2
		c-0.6,0.7,1,1.7,4.3,2.4c2.7,0.6,4.2,1.5,3.8,2.3c-0.5,1-1.6,4.3-1.4,4.5c0.1,0.1,0.4-0.6,0.9-1.5c1.3-2.7,1.6-2.1,0.6,1.1
		c-0.3,1.1-0.7,2.5-0.8,3.2c-0.1,1,0,0.8,0.5-0.9c0.4-1.2,1.1-3,1.6-4.1c0.5-1.1,0.9-2.1,0.9-2.2c0-0.1,0.1-0.2,0.2-0.1
		c0.1,0.1,0.1,0.5,0,1.1c-0.1,0.5-0.2,1.2-0.1,1.6c0.1,0.3-0.1,1.7-0.4,3.1c-0.3,1.4-0.5,2.6-0.5,2.7c0,0.4,2-2.7,2.8-4.2
		c0.5-0.9,0.7-1.9,0.8-3.5c0.1-1.2,0.3-2.5,0.5-2.8C235.7,309.5,222.2,306.9,221.2,308.2 M98,309.4c-2.2,1.5-9.7,9.5-11.2,12
		c-0.3,0.5-1.2,1.8-1.9,2.8c-3.4,4.6-4.7,7.6-5.1,11.8c-0.1,1.6-0.5,3.8-0.8,4.9c-0.4,1.7-0.5,3.1-0.5,7.5c0,4.8-0.1,6.3-0.6,9.1
		c-0.1,0.4,0.1,0.1,0.4-0.8c0.7-2.1,2-9.4,2.7-14.6c0.9-7.7,2.6-11.4,7.7-17c1.3-1.4,3.3-3.7,4.5-5.2c1.2-1.5,3.4-4,4.9-5.6
		c2.5-2.7,3.9-4.5,3-4c-2.4,1.4-7.7,6.7-11.5,11.5c-3.7,4.7-4,4.3-0.8-0.7c2.8-4.3,7.2-9.5,9.6-11.3
		C100.9,308.1,100.6,307.7,98,309.4 M323.7,310.5c-0.8,0.6-0.9,1.2-0.3,1.5c0.3,0.2,0.5,0.1,0.8-0.2c0.4-0.5,0.9-0.2,0.9,0.5
		c0,0.3,0.3,0.6,0.7,0.8c1,0.4,1.2,0.3,0.9-0.3c-0.4-0.8-0.3-1.4,0.2-1.4c0.6,0,1.3,1,1.3,1.9c0,0.6,0.2,0.8,1.2,1.1
		c1.3,0.5,1.4,0.5,0.8-0.6c-0.4-0.8-0.3-1.3,0.3-1.3c0.6,0,1.2,0.9,1.4,2c0.1,0.9,0.3,1,1.6,1.6c2,0.9,2.1,0.7,1-0.8
		c-1-1.4-1.2-1.8-0.5-1.8c1.1,0,2.7,1.9,2.4,3c-0.1,0.5,0,0.7,1.5,1.2c1.9,0.7,2.1,0.6,1.3-0.4c-0.9-1.2-0.7-2.1,0.2-1.6
		c0.6,0.3,1.8,2.4,1.8,3.1c0,0.8,1.1,0.8,2.1,0c1.3-0.9,1-1.4-1.3-2.4c-1.1-0.5-2.3-1-2.6-1.2c-1.5-1-13.6-5.5-14.6-5.5
		C324.7,309.9,324.1,310.2,323.7,310.5 M236.3,312.3c0.1,1,0.2,1.8,0.3,1.9c0.1,0.1,0.1,0.6,0,1.2c-0.1,0.6-0.3,1.7-0.4,2.4
		l-0.2,1.3l0.5-1.5c1.5-4.1,1.2-0.3-0.4,4.7c-0.1,0.3,0.2-0.3,0.7-1.4s1.1-2.5,1.4-3.3c0.3-0.8,0.5-1.4,0.5-1.4
		c0.3,0-0.3,2.9-0.9,4.8c-0.4,1.2-0.8,2.8-0.9,3.5c-0.1,0.7-0.2,1.4-0.3,1.7c-0.1,0.3,0.3-0.2,0.8-1.1c0.5-0.9,1.4-2.4,2-3.3
		c0.6-0.9,1.2-1.9,1.3-2.2c0.1-0.3,0.3-0.4,0.4-0.4c0.4,0.2-0.2,1.9-1.6,4.7c-1.4,2.8-2.5,6.1-2.3,6.8c0.1,0.4,0.1,0.4,0.3-0.1
		c0.2-0.6,4.7-10.1,4.9-10.2c0.4-0.4,0.3,0.4-0.2,1.9c-0.6,2-0.6,2.2,0.3,0.9c1-1.5,1.2-2.2,1.6-4.4c0.3-1.9,0.4-2.1,0.9-1.9
		c0.5,0.1,0.6,0,0.5-1.4l0-1.5l-2.8-1c-1.5-0.5-3-1.1-3.3-1.3c-0.3-0.2-1.1-0.5-1.9-0.8l-1.3-0.5L236.3,312.3 M157.6,312.9
		c2.1,0.7,2.4,4.4,0.6,6.2c-3,2.8-7.2-0.1-5.6-4l0.3-0.8l0.2,1c0.2,1.2,0.8,1.8,2,1.8c1.7,0,2.5-2,1.6-4.1
		C156.5,312.5,156.5,312.5,157.6,312.9 M224.7,314.1c-0.5,0.8-0.7,3.1-0.2,3.3c0.3,0.1,0.7-1.1,1.1-2.9
		C225.8,313.2,225.4,313.1,224.7,314.1 M321.2,314.3c-1.1,1.1-0.8,1.9,1,3c1.6,1,1.9,1,1.2,0c-0.6-0.9-0.6-1.5,0.1-1.5
		c0.7,0,1.3,0.8,1.8,2c0.3,0.9,0.6,1.1,1.8,1.6c1.8,0.7,1.8,0.7,0.9-0.9c-0.8-1.3-0.6-2.1,0.3-1.6c0.6,0.4,1.7,2.5,1.5,3
		c-0.1,0.2,0.3,0.5,1.1,0.9c1.8,0.8,2,0.6,1.4-0.8c-0.6-1.4-0.5-2,0.3-1.6c0.6,0.3,1.5,2.5,1.3,3c-0.1,0.3,0.2,0.5,0.9,0.7
		c1.3,0.4,1.5,0.2,1-0.9c-0.2-0.5-0.4-1.2-0.5-1.5c-0.1-0.6-0.7-0.9-6.8-3.4l-6.7-2.7L321.2,314.3 M360.1,314.3
		c-5.3,1.4-15.8,6.3-14.3,6.7c0.4,0.1,0.9,0.1,1.1-0.1c0.2-0.1,1.5-0.7,3-1.2c1.5-0.5,4.2-1.5,6-2.2c3.3-1.2,5.4-1.5,6-1
		c0.5,0.5,12.6,4.5,12.8,4.2c0.1-0.1,0.1-0.3,0.1-0.3c-0.1,0-0.7-0.5-1.5-0.9c-0.9-0.6-1.5-1.1-1.7-1.7c-0.6-1.7-0.2-2,1.2-0.8
		c1.7,1.5,3.3,1.4,3.3-0.3c0-2.1-4.2-3.5-4.7-1.6c-0.3,1-1.3,0.9-5-0.4c-1.9-0.7-3.6-1.2-3.8-1.2C362.5,313.7,361.3,314,360.1,314.3
		 M201.6,314.5c-1.2,1.2,0,4,1.7,4c2,0,3-2.5,1.6-3.9C204.1,313.7,202.5,313.7,201.6,314.5 M247.9,315.6c0.1,0.5,0,1.1-0.1,1.5
		c-0.2,0.5-0.1,0.6,0.3,0.8c0.8,0.2,0.6,1.4-1.5,7.1c-0.1,0.3,0.2-0.2,0.7-1c2.4-4.1,2-1.8-1,5.1c-1,2.2-1.1,3.2-0.3,1.7l0.4-0.8
		l-0.2,0.9c-0.5,2.5-1.6,5.7-2.8,8.2c-1.6,3.1-1.5,3.7,0.1,1.8c2.2-2.5,3.6-6.1,4.3-11c0.4-3,1.1-5.2,2.5-7.5c1-1.7,1.1-0.8,0.2,1.5
		c-0.7,1.9-1.8,5.1-1.8,5.5c0,0.8,2.7-3.1,4.1-5.9c0.4-0.8,0.8-1.4,0.9-1.3c0.2,0.2-1.3,3.7-2.4,5.8c-0.5,0.9-0.9,1.7-0.9,1.8
		c0.2,0.2,2.3-2.8,3.5-4.9c0.7-1.2,1.4-2.2,1.5-2.2c0.1,0,0.4-0.6,0.7-1.3c0.3-0.7,0.6-1.3,0.8-1.3c0.2,0,0.3-0.2,0.2-0.5
		c-0.1-0.3,0-0.8,0.1-1.3l0.2-0.8l-1.6-0.3c-0.9-0.2-1.6-0.4-1.7-0.6c-0.1-0.1-0.5-0.2-0.9-0.2c-0.4,0-1.8-0.4-3.2-0.8l-2.5-0.8
		L247.9,315.6 M259.4,319.3c0.1,0.8,0.3,1.5,0.4,1.5c0.4,0.3-0.8,4.3-1.4,4.6c-0.9,0.6-4.1,11.3-3.6,12.1c0.1,0.2-0.9,3.4-2.4,7.3
		c-1.4,3.7,0.9,1.1,3.1-3.4c2.4-5,3.4-8.2,2-6.4c-0.4,0.5-0.4,0.5-0.3-0.3c0.1-0.4,0.3-1.6,0.4-2.7c0.4-2.6,2.6-8.4,3.3-8.4
		c0.4,0,0.3,0.3-0.7,3.1c-1.4,3.9-1.8,6.5-0.6,3.9c1.7-3.6,2.9-6.5,3.2-7.5c0.2-0.7,0.4-1.2,0.6-1.2s0.2,0.1,0.2,0.3
		c-0.1,0.1-0.2,1.1-0.3,2.1c-0.1,1-0.5,2.8-0.8,3.9c-0.5,2-0.7,2.4-2.2,5.2c-0.4,0.7-0.7,1.5-0.7,1.8c0,0.3-0.3,1.2-0.8,2
		c-0.5,1-0.9,2.5-1.2,4.3c-0.2,1.5-0.7,3.5-0.9,4.3c-0.6,1.8-0.5,1.9,0.8,1.9c0.9,0,1-0.1,1.8-1.7c0.5-1,1-1.7,1.2-1.7
		c0.4,0,1-1.3,2-4.9c0.5-1.6,1-3.5,1.2-4.1c0.8-2.6,0.3-1.9-1.3,1.6c-0.7,1.5-1.7,3.3-2.1,4l-0.8,1.2l-0.2-0.8
		c-0.2-0.7,0-1.3,0.8-3.2c1.9-4.5,3.4-7.9,4.4-10c2-4.3,2-8.1-0.1-8.7c-0.6-0.2-1.9-0.5-3-0.8s-1.9-0.5-1.9-0.5
		C259.3,317.9,259.3,318.6,259.4,319.3 M336.8,320.5c0.3,0.6,0.6,1.4,0.7,1.8c0.2,0.7,0.8,1,1.1,0.5c0.1-0.1,0.6,0,1.1,0.4
		c0.6,0.4,1.2,0.6,1.5,0.5c0.8-0.2,0.9-0.2,2.9,0.4c3.1,0.9,4.5,0.3,1.7-0.8c-0.7-0.3-2.9-1.1-5.1-2c-2.1-0.8-4-1.6-4.2-1.6
		C336.4,319.5,336.4,319.8,336.8,320.5 M267.9,321.9c0.2,1.5,0.1,1.8-0.4,2.3c-0.5,0.5-1.5,3.9-1.2,4.1c0.1,0.1,0.4-0.4,0.7-1.1
		c0.3-0.7,0.7-1.2,0.8-1.2c0.4,0,0,1.5-1.5,4.7c-0.8,1.7-1.4,3.2-1.3,3.3c0.2,0.4,0.9-0.1,1.1-0.7c0.1-0.3,0.5-1.5,1-2.6
		c1.6-4.3,1.7-1.3,0.1,3.7c-1.2,3.6-1.2,3.8-0.2,2.1c3.1-4.8,5-11,3.6-11.5c-0.2-0.1-0.4-0.4-0.4-0.7c0-0.4,0.1-0.5,0.4-0.4
		c0.4,0.1,0.4,0,0.3-1.2c-0.3-1.9-0.3-2-1.8-2.3l-1.3-0.3L267.9,321.9 M366.7,320.9c-1.6,0.6-8.5,2.4-9.7,2.5
		c-0.7,0.1-1.7,0.4-2.1,0.6c-1.4,0.7-7.4,1.7-11.5,1.9c-6.2,0.3-8.4,1.8-4.2,2.9l1.1,0.3l-0.3,1.9c-0.3,1.8-1.1,4.7-2.7,9.2
		c-1,2.8-0.6,2.9,0.8,0.2c1.7-3.2,3.4-7.3,3.7-8.8c0.4-2.1,0-1.9,4.9-2.7c2.3-0.4,5.6-1.1,7.3-1.5c1.7-0.4,3.9-0.9,4.9-1.1
		c2.5-0.4,6.9-1.3,8.4-1.7c0.7-0.2,2.2-0.6,3.4-0.8c2.5-0.6,2.8-1,1-1.6c-0.6-0.2-1.7-0.7-2.4-1
		C367.9,320.6,367.8,320.5,366.7,320.9 M273,322.5c0.1,0.6,0.1,1.7-0.1,2.4c-1.1,5.1-1.5,6.6-2.6,9c-0.6,1.5-1,2.7-0.9,2.7
		c0.7,0,5.2-7.9,5.5-9.6c0.2-1.1,0.6-1.6,0.9-1c0.5,0.9-0.6,4.2-3.2,9.1c-2.4,4.5-1.9,4.6,0.9,0.2c4.4-6.8,5.1-8.6,4.3-11.1
		c-0.6-1.8-0.9-2.1-4.1-2.6l-1-0.2L273,322.5 M279.3,323.1c0,0.7,0.7,3,0.9,3.2c0.2,0.1-0.2,1.1-1.1,2.9c-2.3,4.4-3.6,7.5-3.3,7.8
		c0.5,0.5,1.4-0.8,5.5-8.4c0.8-1.4,1.5-1.9,1.9-1.3c0.1,0.1-0.6,1.8-1.5,3.7c-2.2,4.4-2.3,4.7-1.4,4.3c0.4-0.2,1.1-1.1,1.8-2.5
		c1.1-2.1,3.1-5.2,3.4-5.2c0.9,0,0.8,0.6-0.5,3.1c-1.4,2.7-1.5,3.3-0.6,2.7c0.5-0.3,2.8-3.8,3.1-4.8c0.1-0.4,0.4-0.5,0.9-0.5
		c0.9,0,1,0.2,0.2,1.6c-1.1,2.2,0.1,2.4,1.3,0.2c0.8-1.4,0.8-1.4,1.9-1.3c0.8,0.1,1,0.2,0.8,0.4c-0.2,0.2-0.3,0.6-0.3,0.9
		c0,0.9,0.7,0.8,1.1-0.1c0.2-0.4,0.3-0.8,0.4-0.8c0,0,1.5,0.1,3.3,0.3c1.8,0.2,4.7,0.5,6.4,0.7c1.7,0.2,5.2,0.5,7.7,0.8
		c5.5,0.6,15.6,0.9,20.1,0.6l3.2-0.2l0.2-0.9c0.6-2.2-2.5-3-8.6-2.2c-3.1,0.4-16.6-0.1-21.3-0.8c-2.1-0.3-3.9-0.5-4-0.4
		c-0.7,0.4-18.6-2.7-21.3-3.8C279.4,323,279.3,323,279.3,323.1 M199.1,328.5c-1.2,1.2-0.4,3.6,1.2,3.6c0.8,0,2.1-1.5,2.1-2.4
		C202.5,328,200.3,327.3,199.1,328.5 M232.3,329.1c-1.1,1.2-1.7,3.9-0.8,3.7c0.3-0.1,1.7-3.3,1.7-4.2
		C233.1,328.4,232.6,328.7,232.3,329.1 M154.5,332.4c-0.3,0.3,2.5,5.6,4.1,7.5c0.3,0.4,0.9,1.3,1.2,1.9l0.6,1.1l-1,3.1
		c-0.5,1.7-1.4,4.6-2,6.5c-1.1,3.4-3.2,11.7-3.2,12.5c0,0.2-0.2,0.9-0.5,1.5c-1,2-1,3.1,0.3,5.5c1.4,2.6,1.4,2.6,0.8,0l-0.5-2
		l0.8-3.1c0.5-1.7,1.3-4.5,1.9-6.1c1.2-3.4,3-9.6,4.3-14.8l0.9-3.5l-1.7-2.7c-1-1.5-2.5-3.8-3.4-5.3
		C155.1,332,155,331.9,154.5,332.4 M242.9,333.3c-0.3,0.7-0.8,2.1-1.1,3c-0.4,0.9-0.6,1.7-0.5,1.8c0.2,0.2,1.3-2.1,1.9-3.8
		C243.7,332.4,243.5,331.5,242.9,333.3 M250.9,334.9c-0.5,0.9-2.1,3.3-3.5,5.4c-2.9,4.3-2.9,4.4-1.7,4.8c1.4,0.5,1.6,0.4,2.9-1.6
		c2-3.4,2.5-4.2,3.4-6.4c1.4-3.2,1.4-3.2-0.4-0.2c-1.6,2.7-3.4,5.2-3.7,5c-0.1-0.1,0.2-0.6,0.5-1.2c0.9-1.4,3.7-7,3.6-7.2
		C251.9,333.4,251.4,334.1,250.9,334.9 M287.6,335.4c-0.5,0.2-1.1,1.5-1.1,2.4c0,2.2,3.5,2.7,4.4,0.6
		C291.7,336.5,289.6,334.7,287.6,335.4 M264,338.6c-0.2,0.4-0.6,1.4-0.8,2.2c-0.6,2.1,0.1,1.7,0.8-0.5
		C264.7,338.4,264.7,337.3,264,338.6 M314.8,339.1c-1,0.9-1.2,1.5-0.7,2.5c0.8,1.6,2.4,1.8,3.6,0.6
		C319.7,340.2,317,337.3,314.8,339.1 M265.7,339.6c0,0.2-0.1,0.7-0.2,0.9c-0.1,0.5-0.1,0.5,0.2,0c0.2-0.3,0.3-0.7,0.2-0.9
		C265.7,339.2,265.7,339.2,265.7,339.6 M267.5,340.3c-1.3,1.5-4,7-3.4,7c0.6,0,4.3-6,4.3-7.1C268.3,339.7,268,339.7,267.5,340.3
		 M262.3,345.2c-0.5,0.7-0.5,1.3-0.2,1.3c0.3,0,1.1-1.1,1.1-1.5C263.3,344.4,262.8,344.5,262.3,345.2 M84.1,348.2
		c0,7.9-4.8,17.8-11.9,24.7c-3.1,3-4,4.5-1.9,2.8c4.1-3.1,7.7-6.9,9.8-10.5c0.5-0.9,1.4-2.4,1.9-3.2c2.1-3.5,3.3-8.9,3-12.9
		C84.7,345.6,84.1,345,84.1,348.2"/>
</g>
</svg>
