<svg xmlns="http://www.w3.org/2000/svg" viewBox="0 0 410 410"><path d="M309.5 53.1c-2.5.7-3.6 1.2-7.3 3.8-7.6 5.3-7.8 5.5-14.4 14.2l-2.4 3.7c-.8 1.5-2.3 3.9-3.2 5.5-.9 1.6-1.6 3.1-1.6 3.5v.7l1.9-.7c3.1-1.1 7.7-3.4 9-4.5.6-.5 1.3-1 1.4-1 .1 0 .8-.5 1.5-1.1.7-.6 3-1.9 5-3s3.9-2.1 4.2-2.4c.6-.5 3.5-1.7 4.1-1.7.2 0 1.2-.1 2.2-.3 11-2.3 19.9-3 26.3-2.1 1.4.2 1-.2-.8-.8-3.4-1.1-17.3-.5-25.4 1.1-1.2.2-2.3.4-2.4.3-.5-.5 2.5-1.3 7.5-2.2 7.4-1.2 7.8-1.3 12.8-1.5l4.3-.2-1.7-.3c-2.7-.5-8.3-.7-11.1-.3-8.1 1.1-7.4 0 .9-1.6 7.7-1.4 11.3-.9 20.1 3 2.1.9 2.2.9.6-.2-3.7-2.7-15.3-5.9-19.9-5.6-2.8.2-3-.2-.6-1 2.2-.7 9.8.1 14.6 1.6.7.2 1.7.4 2.1.4 2.5 0 8.4 2.8 12.2 5.7 1.3 1 2.4 1.7 2.4 1.6 0-.8-5.5-5-9.3-7-.8-.4-1.4-.8-1.4-1 0-.5 3.5.8 5.1 1.8.4.3.9.5 1.2.6 1.2.3 5.3 3.3 6.6 4.8 3 3.4 3.1 3.5 1.5 1-5.2-7.9-10.9-10.9-25.6-13.4-3-.5-6.1-1.2-6.9-1.4-2.4-.6-11.1-.6-13.5 0M345.9 68c0 .3.7.9 2.1 1.7.7.4 1.5 1 1.9 1.3.4.3 1.3.9 2 1.2l1.3.6-1.1-1c-2-1.8-6.2-4.4-6.2-3.8m-17.3 2.1c-.4.1-2 .4-3.6.8s-3.5.7-4.2.7c-1.8 0-4.8.5-4.5.8.3.3 8.5.3 9.8 0 3.6-.9 15.3-.9 17.4.1.7.3.8.9.2.6-.5-.2-6.7-.5-6.5-.4.1.1 1.7.5 3.6.9 7.3 1.5 16.1 5 17.6 6.9.4.6.9.9 1.3.9 2.1 0 6.6 4.8 7.7 8.4.2.7.8 1.8 1.1 2.3.4.5.6.7.5.4-.1-.3-.4-1.1-.7-1.7-.3-.7-.6-2-.7-2.9-.2-2.1-2.4-4.5-6-6.7-1.1-.7-2.5-1.7-3.1-2.3-.6-.6-1.6-1.3-2.1-1.6s-2.1-1.1-3.3-1.8c-7.4-4.1-18.2-6.5-24.5-5.4M308.2 74c-2.1.7-3.7 1.5-5.5 2.7-1.3.9-5.3 4.2-5.3 4.3 0 .5 1.4-.1 3.5-1.5 2.7-1.8 6.6-3.8 7-3.7.1.1-.8.7-2.1 1.5C297.3 82.5 290 88 290 89.2c0 .5.3.4 1.3-.5 4.5-3.9 12.2-8.6 16.9-10.3 2.6-.9 6.5-1.9 6.7-1.7.1.1-.9.4-2.1.7-5.2 1.5-8.1 2.9-14.5 7.2-4.4 3-9.4 7-9.4 7.5s.7.2 3.4-2c2.8-2.1 7.9-5.1 13.5-7.9 7.5-3.8 15.4-5.1 21.4-3.8 3.2.7 9.1 2.3 10.3 2.8.9.4 1 .4.5 0-.9-.7-6.2-3.3-6.8-3.3-.3 0-1.2-.2-1.9-.5-.8-.3-2.4-.8-3.5-1.1-1.2-.3-2.4-.7-2.7-.9-.3-.2-.9-.4-1.3-.4s-1-.2-1.3-.4c-2.1-1.1-9.1-1.6-12.3-.6m21.5 1c-.6.4.6.7 4.5 1.4 2.3.4 3.4.5 3.7.3 1.1-.9 9 2.2 13.7 5.4 1.6 1.1 2 .9.6-.4-3.4-3.1-10.6-6-14.9-6.1-.8 0-2.6-.2-4-.4-3.2-.5-3.1-.5-3.6-.2m13.3 6.2c1.7 1.1 3.9 2.5 4.9 3.2 2.2 1.4 5.2 4.3 5.8 5.6.2.5 1.1 1.5 1.8 2.2 3.7 3.4 4.3 4 5.3 6.2 1.6 3.2 2 2.8.7-.6-.9-2.4-1.9-3.8-5.4-7.4-7.3-7.5-11.7-10.7-15-11.1l-1.3-.1 3.2 2m-50 .3c-5.7 3.3-10.3 7.3-15.2 13.4-3.5 4.4-4.3 6.2-4.3 9.8 0 4.3.5 4.7 1.7 1.1 1.5-4.7 2.6-5.2 1.5-.6-.8 3.3-.8 3.8-.4 3.8.6 0 .9-.4 1.2-1.9.5-2.7 4.6-11.4 5.9-12.7.7-.7 1.1-1.4 1.1-1.8 0-.5.9-1.5 4-4.3 2.2-2 4-3.7 4-3.8 0-.2-4.8 3.4-6.3 4.8-2.2 2-5.1 5.3-7.3 8.3-2.1 2.9-2.4 2.8-.6-.3 3.4-5.7 8.7-11.1 16-16.1 2.8-1.9 2.3-1.8-1.3.3m29.1.1c-.1.2 1.6.6 5.3 1.2 8.6 1.3 13.1 3.4 18.1 8.1 3.6 3.4 4.6 4.3 5.1 4.3.6 0 0-.7-3.6-4.4-6.5-6.6-12.3-9.2-20.5-9.4-2.3.1-4.4.1-4.4.2m34.2 2.3c0 1 2.5 4.5 5.1 7 4.3 4.1 5.7 6.8 6.4 11.8.4 2.6.4 2.6.8 1.1 1.4-5.5.2-8.1-6.3-14-2.4-2.2-4.9-5.1-5.3-6-.3-.8-.7-.6-.7.1m-74 2.3c-.6.2-1.7.8-2.5 1.2-.8.4-1.6.7-1.8.7-.8 0-3.6 4.7-3.6 6.1 0 .8-.3 1.1 4.8-3.9 2.5-2.5 4.5-4.5 4.4-4.5-.1-.1-.7.1-1.3.4m34.7 1.5c-8.2 1.2-16.1 3.3-18.3 5-.6.5-2 1.3-3.1 1.9-7.8 4.2-10.9 10-8.6 16.1.9 2.4 1.6 3.2 1.6 1.7 0-2.7 5.1-3.3 8.7-1 2.1 1.3 2.5 1.3 2.5.2 0-2.4-6.6-4.6-10.5-3.5-1.5.4-1.5.5-1.1-1.7.4-2.1.6-2.3 3-2 5.7.8 11.6 4.9 10.9 7.5 0 .1-.2.9-.3 1.8-.1.8-.7 2.5-1.4 3.8-1.6 3.3-1.6 6.7-.2 8.8.8 1.1.8 1.1 1-1.5.4-3.5 1.1-4.2 5.2-4.7 2.3-.3 2.5-.8 2.2-4-.2-2-.1-2.9.1-3.5.3-.8 2.3-2.8 2.8-2.8.1 0 1.1-.8 2.1-1.8 5.6-5.5 14.2-8.2 23.3-7.2l2 .2-1.8-1c-2.8-1.5-5.8-1.9-9.2-1.1-1 .2-1.8.3-1.8.3-.4-.4 7-2.3 10.6-2.7l1.2-.1-1.5-.5c-1.1-.4-2.5-.6-5.6-.7l-4.1-.2-1.6.9c-4.3 2.4-5.2 3.2-7.9 6.6-2 2.5-2.8 3-4.3 2.2-1.2-.6-1.2-.6.4-1.7 1.8-1.2 3.4-3.1 4.8-5.7 2.1-3.8 5.1-6.2 8.2-6.5 3.3-.3 3.2-.9-.5-2.1-4-.9-6.5-1.3-8.8-1m12.6 19.1c-.3.2-.2.5.5 1.4.5.6.9 1.5 1 1.9.3 1.2.4 1.2 1.2.7.7-.5 1.6-2 1.6-2.6 0-.7-3.6-1.8-4.3-1.4m8.9 1.1c-3.3 4.8-4.7 5.6-10.8 6.7-10.1 1.8-11.5 2.8-9.1 6.5 1.1 1.7 3.4 6.6 3.4 7.2 0 .8 3.4 2.2 5.3 2.2s2.6 3.4 1.9 9.3c-.4 2.8-.3 2.8 1.1.7 2-3.1 2.2-4 2.1-8.6-.3-8.1.4-10.8 3.6-15.4 1-1.4 4-9.6 3.6-10-.2.1-.6.6-1.1 1.4m-16.4-.4c-1.1.5-2.5 1.9-3.2 3.2l-.4.8 1.3.6c1.7.7 2.5.7 2.4-.2-.1-1.2.5-2.7 1.4-3.4 1.8-1.4.7-2-1.5-1m38.8-.3c-2.2.8-6.3 8.2-6.5 11.6-.1 1.3-.3 2.6-.7 3.3-1.1 2.5-.7 2.7 1.2.8 2-2 2.5-3.2 2.5-5.9 0-2 .8-4.5 1.8-5.5 1.8-1.9 4.9-3 5.5-2 .3.5.6.2.6-.7.1-1.5-2.4-2.4-4.4-1.6m-79.6 4c-.1.2-.2 1-.2 1.8 0 5.3-4.6 19.2-7.9 24.1-1.3 1.9-4.1 4.8-6.5 6.8-1.3 1.1-2.7 2.4-3.3 2.9-1.4 1.3-5.1 4.3-8.7 7-4 3-10.8 6.4-19.4 9.6-5 1.9-8.6 3.6-10.8 5.2-.9.6-7.9 5.1-8.9 5.7-.2.1-.6.2-1 .3-1.1.1-3.7 2.1-7.4 5.6-1 1-1 1-.2.4.5-.4 1.5-1 2.3-1.4.7-.4 1.8-1.2 2.3-1.7.5-.5 1-.8 1-.6 0 .6-1.6 2.2-3.7 3.6-4.2 3-8.8 8.1-9.7 10.8-.2.6-.9 1.9-1.6 3.1-2 3.2-4.4 12.8-5 20.4-.5 5.8 1 12.3 3.5 15.5 1.7 2.1 2.5 1.6 1.1-.8-1-1.7-1.6-4-1.8-6.6-.2-2.9.3-20.5.7-21.2.2-.4.2 1.3.1 4.9-.1 3.3 0 5.3.1 5 .4-.7 1-4.8 1.2-8.2.1-1.8.4-4.4.7-5.6 1-4.6 1.4-4.5.5.2-.3 1.5-.5 3.4-.5 4.1v1.4l.9-2.8c.5-1.5 1-3.8 1.2-5.1.3-2.2 1.5-6.6 1.8-6.3.1.1-.1 1.2-.4 2.5-.3 1.3-.6 3.1-.7 4-.2 2.4.6.8 1.3-2.5.7-3.2 1.8-6.2 3.2-8.3 1.6-2.4 1.6-1.7 0 1.4-1.3 2.6-2.6 6.6-2.4 7.2.3.8 3.4-3.9 3.9-6 .6-2.3 1-3.3 1.1-2.5 0 .2-.2 1-.4 1.8-.6 2.1-.4 2.1.9.1.6-1 1.6-2.3 2.2-3 .5-.6 1.6-2.3 2.2-3.7 1.2-2.5 4.8-6.7 5.8-6.7.2 0-.6.9-1.7 2.1-1.2 1.2-2.3 2.7-2.8 3.7l-.8 1.7 1.3-.8c.8-.5 1.6-1.3 2-2.1.9-1.6 3.3-4.9 3.5-4.7.1.1-.6 1.1-1.4 2.2-1.6 2.2-2.1 3-1.9 3 .6 0 2.6-1.8 3.8-3.6 2.5-3.6 5.4-6.4 5.4-5.2 0 .3-2.3 3.2-4.1 5-.6.6-.9 1.1-.7 1 1.6-.9 3.4-2.4 6.6-5.6 3.6-3.6 6.2-5.6 7.2-5.4.3.1-.3.7-1.9 2-1.3 1-2.9 2.4-3.4 3l-1.1 1.1 2-1c1.1-.6 3-2 4.3-3.1 2.5-2.2 3.8-3.1 3.8-2.5 0 .2-.8 1-1.7 1.9l-1.7 1.6 1.5-.7c.8-.4 2.2-1.4 3.1-2.2 3.3-3 4.2-3 1.1 0-2.3 2.3-2.3 2.3-.3 1.5 1.3-.5 2.2-1.2 5.1-3.9 3.9-3.6 6.5-5.8 8.8-7.2 2.3-1.4 2.3-1.1-.1.5-1.8 1.2-9.5 8.1-9.3 8.4.7.8 6.7-3.5 10.7-7.8 2.9-3.1 4.2-4.2 3.7-3.4-.4.8-2.2 2.8-4.1 4.8-1.1 1.1-1.9 2.1-1.8 2.1.5 0 6.3-4.4 6.3-4.8 0-.4 2.2-2.9 2.5-2.9.5 0 3.5-4.1 4.8-6.8 1.3-2.4 1.7-2.9 1.2-1.1a25 25 0 0 1-3.3 6.2c-1.7 2.4-.7 1.7 2.5-1.7 7.1-7.5 9.4-12 13.3-26.3 1.5-5.4 1.8-11.7.7-11.7-.3-.2-.5 0-.6.3m82.2-.1c0 .2.1.5.3.5.3.2.2.9 0 1.3-.1.1-.2.7-.3 1.3-.1.6-.3 1-.4 1-.4 0-1.3 2.3-2 4.9-.4 1.5-.9 3.1-1.2 3.6-.3.5-.5 1.2-.5 1.4 0 1.5-3.1 5-4.8 5.6-1.4.5-1.3 2.1.2 3.6 1.8 1.8 3.3 1.6 5.5-.8l1.3-1.4v-1.9c0-1.1-.1-2.4-.2-2.9-.2-.7-.1-1.4.1-2.1.4-1.4 1.2-4.3 1.4-5.4.1-.4.5-1.2.9-1.6 1.9-2 2.6-5.2 1.5-6.9-.7-.6-1.8-.8-1.8-.2m5.7 1.7c-.6.4-.6 1.5-.1 3 .5 1.4.4 4-.1 4.8-.1.2 0 .3.1.3.6 0 1.8-1.6 2-2.6.2-1.5.4-1.7.7-1.6 1.1.4.1 3.6-1.7 5.6-1.4 1.5-1.4 1.8-.2 1.8 3.6 0 4.6-8.4 1.4-10.9-.7-.6-1.5-.7-2.1-.4m-76.5 1.4c-.9 1.1-.5 3.7.6 4.4.9.6 1.1.3 1.3-1.2.1-.7.3-1.7.6-2.2.5-1.1.6-1-.9-1.2-1-.1-1.4 0-1.6.2m82.9 2.8c-.1.2.1.7.3 1.1.4.6.4 1.2.4 3.2-.1 2.5.2 2.8.7.8.3-1.3.7-1.1.6.3-.2 2-1.6 3.9-3.8 5.4-1.9 1.2-2.1 1.6-1.1 1.6 1.1 0 5-2.9 5.6-4.2.5-1.2.6-4.6.1-6.4-.4-1.7-2.3-2.9-2.8-1.8m-87 1.4c0 1.1-.3 2.3-.8 3.9-3.4 9.5.8 19.2 13.5 31.5 4.9 4.7 5.5 4.9 9.5 2.9l2.5-1.3h4c4.3 0 5.4-.3 7.9-2.1l.9-.7h-2c-1.3 0-2.9-.2-4.5-.7-3.2-.8-6.5-.9-9.3-.1-2.2.6-3.6.7-4.6.3-1-.4-.8-1 .4-1.3 2-.5 2-.5.5-1.1-3.1-1.1-3.2-2.5-.3-2.8 4.6-.4 11-2.8 12.3-4.5 1.1-1.4.9-3.8-.2-2.8-.2.2-1.7.4-3.3.5-2.4.2-3.2.3-4.6 1-1 .5-2.7 1-4 1.2-1.2.2-2.4.6-2.7.8-.5.4-.5.4-.8-.6-.6-2.3.8-4.1 3.3-4.1 1 0 1.3-.1 1.6-.7.9-1.7 2.1-2 7.9-2.2 4.6-.1 5.3-.2 6.3-.7 1.2-.6 2.3-1.7 1.3-1.3-2.7 1.1-4.9 1-9.4-.3-3.5-1-5.4-.8-6.9.8-.7.8-1 .9-2.1.9-1.7 0-2.9.7-3.3 2-.2.5-.5.9-.6.9-.5-.2-.2-2.5.6-3.9.7-1.3.7-1.4.2-1.6-2.7-1.4-4.9-5.6-4.9-9.4 0-1.4-.1-1.5-.5-1.4-2.2.9-4.4 1.2-5.1.7-.9-.7-1.9-2.4-1.9-3.4 0-.4-.1-1.1-.2-1.4-.4-1-.7-.5-.7 1m23.2.8c-.3.4-.2.5.4 1 2.1 1.7.3 6-2.4 5.4-.9-.2-.8.4.2 1.2 2.4 2.1 6.1 0 6.1-3.4 0-2.8-3-5.8-4.3-4.2m-37.8 3.9c-.4.3-1.4 1.1-2.1 1.8-3.1 2.8-8.5 5.7-15 8.2-3.8 1.4-6.5 3.1-8.9 5.6-4.4 4.6-7.9 9.4-5.1 7 .3-.2 1.6-1.1 3-2 1.5-.9 2.9-2.1 3.6-2.9 1.4-1.7 4.3-4 7.6-6 1.4-.9 2.9-1.8 3.2-2 .6-.4.6-.4.4 0-.1.3-2 1.8-4.2 3.5-5.5 4.1-6.1 4.9-1.8 2.2.9-.6 2.5-1.4 3.5-2 2.1-1 7.1-4.8 9.3-6.9 2.2-2.1 1.7-.8-.7 1.8l-1 1 .8-.4c2.2-1.1 8-6.5 8.7-8.1.6-1.3-.1-1.8-1.3-.8m107.2 8.2c-.7.8 1.7 2.1 3.8 2.1.9 0 7.8 2.9 10.4 4.3 3.3 1.9 4.7 3.3 6 6.1 1 2.1 1.5 2.3 1.2.5-.6-4.3-7-9.5-14.8-12.1-3.6-1.1-6.1-1.5-6.6-.9m-6.3 3.9c-.1.1.5.6 1.3 1.2 3.9 2.8 7.6 10 8.2 15.8.2 1.8 0 1.5-1-1.8-1.5-5-4.1-9.2-7.3-11.8-3.1-2.6-3-1.8.3 2.4 4 5 5.5 9.9 5.5 17.6 0 2.6.1 6 .3 7.6.4 3.6 0 4.1-.8.9-.9-3.8-1.4-6.9-1.6-10.7-.2-3.1-.8-5.9-1.6-7.2-.3-.5-.1 8.7.2 12 .5 5.6 1.7 10.4 3 11.9s3.1 4.5 4.1 6.6c1 2.1 2.3 3.7 3.1 3.7.7 0 .6-.1-.6-2.9-.6-1.3-1.2-3.1-1.3-3.8-.1-.8-.5-2.3-.8-3.4-1.1-4-1.1-5-.4-8.7 1.6-8.4 1.5-15.7-.4-20-2.4-5.3-8.6-11.1-10.2-9.4m16.8 3.9c2.6 2.6 3.8 4.5 4.5 7.2.5 1.7.4 2.3-.2.9-1.3-3-1.7-3.7-4.1-6-2.5-2.4-3.5-3.2-2.6-1.8 2.4 3.7 4.3 9.3 3.7 11.1-.2.5-.3.2-.5-1.4-.6-3.6-4-9.6-6.5-11.4-1.7-1.2-1.8-1.2-.7.5 3.2 4.8 5.6 16.4 4.6 22.5-.1.7-.6 3.1-1.1 5.2-1.4 6.6-1.4 9.5.3 14.7 1.3 3.9 1.2 5.8-.3 8-1.7 2.5-2.4 5.6-.8 3.3 2.9-4.1 4.1-3.4 1.9 1.1-2 4.2-2.4 6.1-1.5 8 .3.6.6 1.4.7 1.8.1.4.6 1.3 1.1 2.1.5.8 1.1 1.8 1.4 2.2.3.4 1.1 1.7 1.8 2.8 2.1 3.1 2.7 6.1 2 8.6-.4 1.4 0 1.8 1 1.2 2.3-1.5 1.9-6.2-.9-9.7-3.5-4.5-4.1-9.9-1.5-15.8.7-1.5 1.4-2.2 1.1-1-.5 1.7-.7 4.4-.5 5.1.5 1.4 1.1.6 1.1-1.5 0-1.3.8-2.9 1.5-3 2.3-.3 4.2 3.8 3.5 7.6-.4 2.5.3 2.6 1.3.1s.4-9.1-.9-9.6c-.7-.3-3.9-4.5-4.7-6.1-1.6-3.4-2-8.7-1-13.4.9-4.6 1.4-4.3.6.3-.5 2.9-.3 5.8.6 8.6.6 1.9.8 1 .4-1.5-.5-2.8-.2-5.1 1.8-13.9.3-1.2.6-3 .7-4.1s.4-3.1.6-4.4c1.3-7.5-3.3-17.6-9-19.9-.7-.3-1.4-.6-1.6-.7-.1 0 .8 1 2.2 2.3m-23-1.5c-.2.5.1 1.4 1.1 4.2.8 2.1.8 4.6 0 7.2-.9 2.9-.6 9.1.4 10.1.5.5.5.5.4-2.3-.2-3 .1-4.7 1.1-7.3 1.5-3.8 1.4-7.5-.1-10.5-.9-1.6-2.5-2.4-2.9-1.4m-123.1 1.2c-5.2 2.9-7.2 4.5-12.8 10.8-3.6 4-7 10.2-6.4 11.8l.3.7.9-.6c1.2-.7 1.2-.6 1.7-3.1.8-3.5 2.5-7.8 2.8-7.4.1.1-.3 1.5-.8 3.1-1 3.2-1.8 6.1-1.6 6.1 1 0 2.2-1.7 3.3-5 1.5-4.3 5.8-11.7 7-12.2.5-.2.4.1-1.3 2.6-1.2 1.9-3.6 6.4-4.1 7.8-.4 1 3.3-2.8 4.6-4.8.5-.7 1.6-2.4 2.4-3.7.8-1.3 2.7-3.5 4.1-5 1.4-1.5 2.5-2.7 2.4-2.7.1.2-1.1.9-2.5 1.6m75.8-.2c-.3.3-.3.6 0 1.5.3 1 .4 3.1.2 4.7-.1 1.1 2 1 2.6-.1 1.2-2.3.6-5.2-1.3-6.2-.9-.4-1.1-.4-1.5.1m46 3.1c.1.6.2 1.4.2 1.6.2.9-.6 4.1-1.7 6.8-.6 1.5-1.1 3.2-1.1 3.7-.1 2.3-.4 2.6-.5.4 0-2 .1-2.7.9-5 1.1-3.2 1.4-5.3.9-6.9-.4-1.5-.7-1.2-1.4 1.4-.3 1.1-.9 3.1-1.5 4.4-4.3 11.2-2.1 17.6 7.4 20.8 2.2.8 3.5 1.7 4.5 3.3l.9 1.4.2-1.1c.3-1.8-1-3.5-5.1-6.7-2.9-2.3-5.1-11.4-3.7-15.8 1.2-3.9 1.4-5.6.7-7.3-.5-2.1-.8-2.5-.7-1m-88.8 3.9c-1.2 1.4-1.6 2.3-2.2 3.9-.9 2.8-7 16.1-9.7 21.2-1.2 2.2-1.2 2.4-.5 1.6.5-.5 1.5-1.7 2.4-2.6 1.4-1.5 1.6-1.8 1.8-3.2.5-3 1.5-5.6 2-5.2.1.1-.1 1.1-.4 2.3-.8 3.1-.8 3.6.2 2.6.6-.6.8-1.2.9-2.4.3-2.8 1.5-6.5 2.9-9.7.8-1.7 1.6-3.6 1.8-4.1s.4-1 .5-1c.4 0-.3 2.7-1.5 5.5-2.1 4.7-3.1 8.9-1.7 6.7 2-3.1 3.8-8.1 4.4-11.9.4-2.8 1-3.3 1.1-.9 0 .6.1.5.6-.9.5-1.6.5-1.7 0-2.7-.7-1.3-.9-1.2-2.6.8m76.6-1.5c-.1.2-.3 1.7-.6 3.2-.2 1.5-.9 4.4-1.4 6.4-.5 2-1.5 5.8-2.1 8.4a96.3 96.3 0 0 1-5.6 17.2c-2.2 5.3-3 7.7-3.7 10.8-.4 1.6.8 0 1.8-2.5 1.4-3.4 6.3-9.6 7.5-9.6.5 0 2.5 1.4 4.5 3.1 2 1.7 3.9 5.6 5.4 10.9.9 3 1.3 3.3 1.3.7 0-2.2-1.5-7.3-4-13.8-5.4-13.8-5.4-14.6-3.1-28.3.8-3.5.6-8.6 0-6.5m-115 1.9c-1.1 2.2-1.1 2.2-1.3 2-.2-.2 1.8-3.9 2.1-3.9 0 0-.3.8-.8 1.9m155.1 13.4c.2 2.4.1 4.9-.6 7.7-.9 4.3-1.2 14-.4 17 .7 2.8.4 3.4-.5 1-2.3-6.2-2.3-12.5.1-22 .3-1.3.5-3 .5-4.7.1-3.2.5-2.6.9 1M264.7 162c-.9.6-1.1 1-.6 1 .4 0 .3 1.6-.4 4.5-.8 3.4-.7 3.5.7 1 2.6-4.3 2.7-8.2.3-6.5m-2.3 2.4c-.4.3-.9.9-1.2 1.4-1.8 3.5-10.5 15.2-14.7 19.7-2.9 3.1-5.4 6.1-6.1 7.3-.4.7-.4.7.3-.1 3.1-3.9 9.4-9.6 11.9-10.8 1.7-.8 2.4-2 4.3-7.3.6-1.8.9-2.3 1-1.9.1.8-.6 3.3-1.7 6-.5 1.2-.9 2.2-.8 2.3.7.7 3-4.7 4.4-10.3.2-.6.4-1.1.5-1.1.4 0 .3 2.1-.2 4.1-.3 1-.4 1.8-.4 1.8.5 0 3.3-7.9 3.7-10.3.2-1.5.1-1.6-1-.8m72.1 2.7c-3 2.9-5.8 6-10.3 11.3-3.3 3.9-12.6 13.1-15.3 15.1-1.1.8-2.2 1.7-2.3 1.9-1 1.2-1.3 0-.6-2.3 1.3-4.1 1.7-6.3 1.3-8.5-.4-2.3-.5-9.4-.1-12.2.3-2.3-.3-2.8-1-.8-1 2.9-2.5 7.6-2.6 8.6-.1.6-.5 2.3-.9 3.9-1.1 4.2-1.1 8 .1 12.3 1.1 3.8 1.4 4.2 3.3 3.7.7-.2 1.7-.3 2.1-.3 2.8 0 8.8-5.6 13.3-12.3 1.6-2.4 3.7-5.5 4.7-6.8 1-1.3 2.2-3.1 2.7-4 .5-.9 2-3 3.3-4.7 3-3.8 5.8-7.7 5.4-7.7-.3 0-1.6 1.3-3.1 2.8m-38.4 1.1c-.4.9-.9 1.4-2 2.2-1.6 1-1.8 1.7-.8 2.4 1.6 1.1 5.3-4.2 3.8-5.5-.4-.3-.5-.2-1 .9m-11.5-.3c-1 2.5-1.7 3.8-2.8 4.9-2.2 2.4-1.5 3.6.9 1.5 2-1.8 3.2-4.8 2.5-6.5l-.3-.7-.3.8m28.4 1.6c.2 6-1 13.3-2.9 17.4-2.6 5.6-.3 3.9 6.9-5.3 1.2-1.5 2.1-4.4 2.1-6.6 0-.9-3.5-5.7-5.1-6.9l-1.1-.9.1 2.3m-34.9 1.7c-.1.1-.2.4-.2.7 0 .3-.3 1.8-.7 3.2-1.1 4.2-1.1 4.2-.3 3.8 1.2-.5 2.5-4.3 2.2-6.3-.1-1-.6-1.8-1-1.4m10.8 1.1c-.5.7-1.6 1.7-2.4 2.3-2.3 1.6-2.5 2.4-.5 1.8 2.6-.8 4.1-2.4 3.9-4.4l-.1-1-.9 1.3m-40.1 1c-2.5 1.4-2.9 1.9-7.5 7.1-2.9 3.3-3.8 4.9-5.2 9.4-1.1 3.5-1.1 3.8.3 2.4.7-.6 1.5-1.9 2-3.1 2.5-5.4 5.6-10.7 6.3-10.7.1 0-.2.8-.7 1.7-1.9 3.3-4 7.7-3.7 7.7.8 0 4.7-6.7 5.5-9.4 1.1-4 2-4.7.9-.7-.2.8-.4 1.5-.3 1.5.1.1 4.6-6.3 5.1-7 .2-.6-.2-.4-2.7 1.1m49.5.3c-.3.3-1.1.8-1.7 1.1-2.2 1.3-2.9 4.3-.9 4.3.7 0 1-.4 1.3-1.3.1-.4.8-1.3 1.5-2.1 1.7-1.8 1.5-3.4-.2-2m-7.7 1.8c-.9.9-2.1 2-2.6 2.4-.9.7-1.5 2.3-.8 2.3 1.8 0 5-3.3 5.3-5.4.2-1.4 0-1.3-1.9.7m87.5 5c-.7 6.8-.5 8.3 1.5 10.4 1.4 1.4 1.6 1 .4-.8-1.7-2.5-2-5.2-1-9.5.3-1.3.2-3.1-.2-3.8-.1-.2-.4 1.4-.7 3.7m-111.3-2.7c-.1.2-.5 1-.7 1.8-.5 1.9-1.7 3.2-3.9 4.7-2.7 1.8-5.1 5.3-5.5 8l-.2 1.3.7-.8c.4-.4 1.2-1.6 1.9-2.6 1.1-1.7 2-2.6 5.2-5.2 1.6-1.3 2.9-3.7 3.1-5.8.2-1.4-.1-2-.6-1.4m4.5 3.6c-.8.9-2.1 2.2-3 2.8-.9.6-1.6 1.3-1.6 1.4 0 .2-.3.6-.7.9-1.2 1.1-3 5.7-2.4 6.3.2.2 1.9-2.1 2.7-3.5.4-.7 1.4-2 2.3-2.8 2-2 3.3-3.7 4-5.1 1.1-2.3.6-2.4-1.3 0m7.8-.8c-.9.5-2 1.2-2.5 1.6-.8.5-2.7 3.3-2.7 4 0 .5 1.3-.3 2.7-1.6.8-.8 2.2-1.9 3-2.6 2.5-2.1 2.1-3-.5-1.4m13.1-.5c-.6 1.8-.8 2.1-2.5 3.2-2.6 1.7-3.2 2.7-2.1 3.6.8.7 1.6.5 2.3-.6.4-.6 1-1.4 1.5-1.8 1.2-1.1 1.6-2 1.6-3.4-.1-1.2-.6-1.9-.8-1m-7.9 3.8c-.5.3-1.4 1.2-2 1.9-.6.7-1.8 1.8-2.7 2.4-1.7 1.1-2.1 1.9-1.3 2.6 1 .8 2.8-.7 4.8-3.7.9-1.5 1.5-2 2.4-2.5.7-.3 1.2-.7 1.1-.9-.1-.4-1.3-.3-2.3.2m-31.3 3.3c-.2.4-.6 1-.8 1.3-.2.4-.9 1-1.5 1.4-1.9 1.2-2.9 3-2.9 5.3 0 1.3.6.9 1.9-1.2.6-1 1.5-2.1 2-2.5 1.5-1.2 2.8-4.3 2-4.8-.2-.1-.5.2-.7.5m-30.6 3.2l-1.3 1.2.1 4.8c.1 4.5.4 6.8.9 6.8 1.6 0 2.1-.7 1.1-1.9-1.3-1.6-1.7-2.7-1-2.7.2 0 .9.7 1.6 1.6.7.9 1.4 1.6 1.5 1.6.4 0 .1-1.8-.6-2.8-1.9-3-3.3-6.8-2.7-7.4.2-.2.4 0 .6.9.4 1.7 1.3 3.7 1.9 4.5l.5.7-.1-1.6c-.1-.9-.2-2.6-.4-3.9-.1-1.2-.3-2.4-.3-2.6.1-.7-.5-.4-1.8.8m49.3 1c-.6.6-2.2 1.7-3.7 2.4-4.6 2.4-6.7 4.9-5.4 6.2.8.8 1.6.5 3.1-1.3.8-1 2.1-2.3 3-3 3.3-2.5 5-4.4 4.6-5.1-.3-.5-.5-.3-1.6.8m21.3 3.3c1.1 2.1 1.6 4.4 1.4 5.8-.2 1.2-.4 1.2-2.1-.3l-1.4-1.3-2.6-.1c-4.6-.2-12 2.8-15.7 6.2-1.1 1-2.4 2.3-2.9 2.7-2 1.8-2.9 4.2-1 2.7 3.7-2.8 10.5-5.4 10.5-4.1 0 .4-1.5 1.5-3 2.2-.5.2-1.5 1-2.4 1.8-1.8 1.7-1.5 1.9 1.2 1 1-.3 1.9-.4 3.3-.3 3 .2 3.3.8.7 1.1-2.5.3-2.3.9.5 1.6 2.9.8 2.9.8 4.2.1 1.1-.6 4.6-1.5 5.7-1.5 1.4 0 1.8 1.5.5 1.8-3 .8-3 .8-.9.8 2 0 2 0 3.3-1.1 1.6-1.4 3.2-2.3 4.8-2.5 1.4-.2 1.8.3.8.8-.7.4-1.8 1.7-1.6 1.9.1.1 1.1-.1 2.4-.3l2.3-.4s.4-.5.8-1.1c.7-1 4.3-3.5 5.1-3.5.7 0 .6.4-.5 1.7-1.4 1.5-1.4 1.7-.1 1 .5-.3 1.5-.7 2.3-.8 1.6-.4 3.6-2 2.9-2.4-.9-.5-4.5-1-6.1-.9-2.5.3-2.1-.6.6-1.4 1.3-.4 2.6-.5 7.7-.5 3.5 0 5.9-.1 5.7-.2-3.4-2.3-8.4-3.4-11.4-2.5-.8.2-2.9.6-4.7.7-4.6.4-5.3 0-5.4-3.2 0-2.9-2.8-7-5-7.4l-1-.2 1.1 2.1m-42 .7c-2.1 1.9-3.7 4.7-3.7 6.6 0 .5-.2 1.1-.5 1.4-.4.5-.4.5.1.5.7 0 1-.4 1.3-1.6.3-1.2 1.2-2.9 2.6-4.5 2.4-2.6 2.5-4.4.2-2.4m7.3 1c-.8.4-1.4.9-1.4 1.1 0 .2-.4.8-.8 1.4a6.8 6.8 0 0 0-1.6 3.9c0 1.3.5 1.1 1.1-.3.6-1.5 1.9-3.3 3.6-4.8 2.2-2 1.8-2.7-.9-1.3m-14.6.5c-.1.1-.2.4-.2.6s-.7 1.9-1.6 3.6c-1.8 3.5-1.9 4.6-.8 7.9l.5 1.5.3-2.1c.2-1.2.4-2.8.4-3.6 0-1.1.3-1.9.9-3.2 1.2-2.4 1.6-5.8.5-4.7m-204.5 4.9c-.4.3-.7.7-.7.8 0 .5 3.1 1.6 4.7 1.7 2.3.1 2.5 0 2.5-.5 0-1.7-5-3.2-6.5-2m328.6.4c-1.6.8-2.3 1.6-2.5 3.1l-.2 1.1.6-.6c.9-.8 4.7-2.7 5.8-2.9 1-.2 2.1-.8 2.1-1.3.1-.5-4.3-.1-5.8.6m13.9.8c-.4.2-1.9.6-3.7.8-4.2.5-5.2.8-6.6 2-1.8 1.6-1.7 3.5.2 2.3.8-.5 3.9-1.4 8.9-2.7 1.3-.3 2.9-1.8 2.7-2.5-.2-.4-.7-.4-1.5.1m-147.7 1c-1.1.4-2.8 1.1-3.8 1.6s-2.7 1.3-3.8 1.6c-2.7 1-4.6 1.9-6.6 3.4-1 .7-2.3 1.7-3.1 2.3-.7.5-2 1.8-2.9 2.7-7.8 8.8-8.5 12.2-4.4 22.4 1.2 3 2.2 4.4 4.1 5.6.7.5 2.6 1.7 4.2 2.8 1.6 1.1 2.9 1.8 3 1.8.3-.3.1-1.1-.4-1.3-.6-.2-2.4-2.6-2.4-3.2 0-.6 1-.4 2.7.4l1.1.5.3-.7c.1-.4.3-.8.4-1 .1-.2-.2-.4-.6-.6-1-.5-2.8-2.1-2.6-2.3.1-.1 1 .1 2 .5 1.4.6 1.8.7 2 .4.4-.6.3-.9-.4-1.3-1.3-.7-1.1-2 .3-1.4.9.4.9.5 1.5-.9l.5-1.2-.6-.5c-.8-.7-.3-1.3.6-.8.3.2.6.3.7.2l2.4-3.3c1.3-1.8 3.6-4.4 5.2-6 3.7-3.6 3.6-3.5 2.6-5.5-1.6-3.1-1.8-5.7-.9-8.5.2-.6.4-1.4.4-1.8 0-.4.2-.9.5-1.2.3-.3.5-.7.5-1 0-.3.3-.7.7-.9 1.6-.8 2.2-2.3 1.1-2.8-.2-.1-.7-.3-1-.5-.9-.2-1.1-.2-3.3.5m26.6.5c-2 2-2.9 4.8-1.8 5.8.4.3 1.2.2 1.2-.2 0-.1 0-.8.1-1.6.1-1.1.3-1.8 1.1-3.1 1.5-2.4 1.3-2.8-.6-.9m-140.9-.1c-1.8 1.2-3.5 4.4-3.8 7.3l-.2 1.7 1.6.3c.9.2 1.8.4 2.1.5.3.1 0-.2-.7-.7-2.7-1.7-2-1.8 2.5-.1 4.7 1.8 5.2 1.3.8-.8-1.7-.8-2.7-1.4-2.6-1.6.3-.6 2.1.1 7.7 2.8 5.3 2.6 7.3 3.3 7.5 2.6.1-.3-5.1-3-12.2-6.3-2.9-1.3-3.9-1.9-3.9-2.3 0-.7-.1-.7 6 2 3 1.3 6.6 2.8 8.1 3.4 1.5.5 3.7 1.4 4.8 1.9 1.2.5 2.2 1 2.2 1l-.2 1.1c-.5 2 0 2.3.9.5 1.2-2.5 2.5-3.6 4.1-3.6.9 0 .1-.8-.8-.8-.3 0-1.2-.4-2-.8-7.1-4-10.8-5.7-16.3-7.6-3.6-1.1-4.5-1.2-5.6-.5m237.6.6c-.6.1-1.7.2-2.6.2-1.7 0-3.3.5-4.5 1.4-.7.5-2.6 3.6-2.3 3.9.2.2 3.4-1.3 4.8-2.2.7-.5 1.6-.9 2-.9 1.9 0 4.9-1.4 4.9-2.3-.1-.4-.7-.5-2.3-.1m-110.6 1.2c-3.4 3.4-4.3 9.6-1.8 12.6.6.7.8-.4.8-3.9 0-2.6.8-5.4 2.2-7.7 1.7-2.5.9-3.2-1.2-1m-207.8-.4c-.2.4-.9 3-.8 3.1.3.3 1.8.5 2 .2.3-.4 1.4-2.7 1.4-2.9-.1-.4-2.4-.8-2.6-.4m212.3 1.3c-.7.9-.9 2.1-.3 2.1.4 0 1.8-2.1 1.8-2.6-.1-.6-.9-.3-1.5.5m92.5.1a9.55 9.55 0 0 0-4.9 6.4c-.2.9-.1 1 .3.9 1.1-.4 2.2-1.4 2.6-2.3.5-1.1 2.3-3.1 3.5-4 1.8-1.1.4-2-1.5-1m-6.3.2l-2.6.7c-5.5 1.1-6.9 1.8-8.2 4.2-1.7 3.2.4 3.4 3 .2 1.2-1.5 2.7-2.2 5.5-3.1 1.9-.5 3.3-1.3 3.3-1.9.1-.5-.1-.5-1-.1m-82.8 1.4c-2.5 3.9-2.3 6.8.4 9l1 .8.2-.7c.1-.4-.1-1.6-.4-2.8-.6-2.3-.7-4.5-.3-5.8.6-2 .1-2.2-.9-.5m-208.5-.2c-1.2 1.2-.7 2 1.4 2.5 2.9.8 7.6 2.3 9.7 3.1 1.2.5 3.3 1.3 4.6 1.6l2.4.7 1.3 2.9c3.4 7.6 4.4 5.3 1.7-3.9-.4-1.5-.2-1.4-9-4.1-3.5-1.1-7.4-2.3-8.7-2.8-2.8-.9-2.6-.9-3.4 0m191.2 1.5c-.1.2 0 .6.2.9.6.9.9 2.8.6 4-.3 1.3.4 3.3 1.7 4.5l.8.7v-1c0-.5-.2-1.7-.4-2.5s-.6-2.5-.8-3.6c-.5-2.7-1.6-4.2-2.1-3m141.5.1c-1.2.3-1.8.6-2.1 1-.6.9-.3 1.2.9.7 1.8-.8 6.4-.3 8.6.9 2 1.1 2.8 1 2-.3-1.2-1.9-6.1-3.1-9.4-2.3m-25.5.9c-.7.4-1.9.9-2.5 1.1-.6.2-1.6.7-2.1 1.2l-1 .9 2.1.2c2.6.2 3 .1 4.7-1.3.9-.8 1.7-1.2 2.5-1.4 1.3-.2 1.6-.6.9-1.1-1-.7-3.1-.5-4.6.4m18.5 0c-2.1.2-3 1.3-2.5 3 .2.5.2.5 1-.2.5-.4 1.3-.8 1.9-.9 1.2-.2 2.5-1.1 2.5-1.7 0-.5-.3-.5-2.9-.2m-336.8.4c-.4.5 0 .9.8.9 1 0 6 1.9 7.2 2.7 1.8 1.2 1.6 1.4-.4.5-2.2-1-5.8-2-7.6-2.2l-1.4-.1-.3 1-.3 1 1.3.7c1.8 1 4.8 3 5.1 3.5.7.8-.1.7-1.5-.2-2.1-1.3-5-2.9-5.2-2.9-1.1 0 .1 2.1 2.1 3.6 1.2.9 3 2.5 4.1 3.6 1.1 1.1 2.7 2.6 3.6 3.2 1.1.8 2.1 2 3.2 3.5 1.6 2.4 1.8 3.3.3 1.6-3.2-3.7-4.2-4.5-2.9-2.2 2.4 4.1 3 8.2 2.3 14.9l-.2 2 1.5 2.5c2.5 4.1 2.6 4.1 4.3 1.1l1-1.8-1.1-1.1c-1.9-2-2.3-3.1-2.4-6.7 0-2.1 0-2.9.2-2.4.1.4.2 1.4.3 2.1.1 2.6 2.1 7.1 3.2 7.1.4 0 1.7-3.3 1.3-3.4-.6-.2-2.4-2.2-2.4-2.6 0-.3.5 0 1.4 1l1.4 1.4.6-1.4c.7-1.8.8-1.6-.3-3.8-.5-1-1.5-3.6-2.3-5.7-.8-2.1-1.7-4.4-2-5.1-.7-1.4-.7-1.5-.4-1.5.4 0 2.6 4.5 3.9 7.8.7 1.7 1.5 3.6 1.8 4.3l.6 1.1.5-1.2.5-1.2-1.2-2.6c-1.5-3.2-2.9-6.7-2.7-6.9.2-.2 1 1.6 2.7 5.3.7 1.6 1.4 2.9 1.5 2.9.2 0 1.3-3.2 1.3-3.9 0-.2.1-.4.2-.4.5 0 .6-1.6.1-2.3-.6-.9-3.2-4.2-4.5-5.9-.5-.6-.8-1.1-.7-1.1.6 0 5.5 4.5 6.4 5.8.9 1.4 1.7 1.9 1.7 1 0-1.7-5-7.4-8.8-10.1-1.2-.9-3.2-2.3-4.4-3.1-5-3.3-12.2-5.7-13.4-4.3m275.2 2c-2.5.8-3.4 1.5-4.2 3.3-.4.9-.7 1.7-.7 1.7.2.2 3.8-1.1 4.4-1.7.9-.8 2.7-1.6 4.3-1.8 1.4-.2 3-1.1 2.9-1.5-.3-.6-5-.6-6.7 0m21 .8c-3.1 1.9-6 5.6-4.5 5.6.8 0 3.2-1.5 3.5-2.2.4-.9 2-2.4 3.2-3 .4-.2.8-.6.8-.8 0-.7-1.6-.5-3 .4m-10.7.6a6.27 6.27 0 0 1-3.9 2.1c-2.2.5-3.2 1.9-1.8 2.7 1.2.7 6.9-3.5 6.9-5.1 0-.8-.3-.7-1.2.3m-72.1-.2c-.9 1.1-1 5.8 0 7.6.9 1.7 3.6 3.9 3 2.4-1.6-3.8-1.9-4.9-2-7.4-.4-2.8-.5-3.3-1-2.6m25.2.2c-1.4.8-1.7 1.3-1.3 2.2.5 1 1.6.9 3-.2 1.2-1 1.5-1 3.4-.9 1.4.1 1.4-.4 0-1.1-1.3-.8-3.8-.7-5.1 0m106.8-.1c-.5.1-.4.2.9.9 1.9.9 4.5 3.3 5.9 5.3 1 1.5 3.3 3.7 3.7 3.7.9 0-2-5.3-4.2-7.8a6.8 6.8 0 0 0-6.3-2.1m-86.5 1.4c-.7.5-2 1.5-2.9 2.3-.9.8-1.8 1.4-2 1.4-.5 0-1.5 1-1.5 1.4 0 .3.5.4 1.5.6l1.5.2.9-1.1c2.4-3 3.9-4.2 5-4.2 1.2 0 1.5-.3.9-.9-.5-.8-2-.6-3.4.3m65.2 0c-2.5 1.7-.9 2.6 2.7 1.5l2.1-.6 1.7.6c3.7 1.2 4 .3.5-1.6-2.3-1.1-5.1-1.1-7 .1m-96.4-.1c-2.2.8-2.9 1.5-3.6 3.8-.3 1 .5.7 2.1-.7.8-.7 2.1-1.5 2.8-1.8 1.5-.5 1.8-.8 1.3-1.4-.3-.5-1-.4-2.6.1m79.4.7c-.7.8-1.4 1.3-2.3 1.5-2.6.7-5.5 2.3-4.7 2.6 3.8 1 8.2-1.1 8.6-4.2.2-1.4-.3-1.4-1.6.1m-58.2.2c-2.4.6-6 3.2-6 4.3 0 1.3 1.8 1.8 2.8.7 1.8-2.2 2.5-2.8 3.5-3.3.6-.3 1.4-.5 1.8-.5.9 0 1.2-.5.6-1-.5-.5-1.4-.6-2.7-.2m90.6.5c-1.2 1-.9 1.3 1.2 1.2 1.4-.1 2 0 2.6.5 1.7 1.1 2.3.4.9-1-1.8-1.8-3.3-2-4.7-.7m-73.3.2c-.2.1-.4.4-.6.8-.3.6-2.4 1.7-3.2 1.7-.5 0-2.7 2-2.4 2.3 1.4 1.4 5.1-.5 6.4-3.2.6-1.3.5-2-.2-1.6m-136.4.5c-.1.1-1 .3-2 .5-3.9.8-3.9.7-6.1 5.5-1.1 2.3-2.3 5.1-2.8 6.3-.4 1.2-1.4 3.8-2.2 5.9-1.9 4.8-3.5 9.7-3.3 9.9.8.8 1.6.2 2.7-2.1 1.2-2.6 3.5-8.8 4.8-12.4.4-1.2 1.1-2.8 1.6-3.5.4-.7 1-1.9 1.3-2.6 1.4-3.7 1.7-3.9 5.2-4.8 2.2-.6 3.8-1.4 3.8-1.8 0-.7-2.6-1.3-3-.9m103.5.1c-.2.1-.7.4-1.1.6-.4.2-1.3.7-2 1.1l-1.3.7 1.2.2c.8.1 1.5.1 2.1-.2 1-.4 2.8-.5 4.8-.2 1.7.2 2.8-.3 2.1-1-.8-.8-5-1.7-5.8-1.2m-16.3.7c-.4.4-.2 1.1.3 1.4.5.3.8 1 1.3 3.8.3 1.6.5 1.8 1.1 1.1 1.5-1.7-1.2-7.9-2.7-6.3m96.6.9c-1.1.1-2.1.2-2.2.3-.2.2 1.7 1.2 3.4 1.7.7.2 2.6 1.2 4.2 2.2 2.9 1.8 4.3 2.3 5.4 2 .9-.3.6-.9-.7-1.4-.7-.3-2-1.2-3.1-2.1-3.3-2.7-3.8-3-4.4-3-.4.1-1.5.2-2.6.3m-203.1.4c-.5.2-.4 1.4.2 1.5.5.1.5.5.7 3.8.1 2 .3 4.4.4 5.4l.2 1.7.3-2.5c1.1-9.7.9-11-1.8-9.9m97.3 1.9c-.6 2.4.7 5.1 3 6.1l1 .4v-.7c0-.9-.4-1.6-1.6-3-1-1.1-1.1-1.4-1.1-3-.2-1.1-1-1-1.3.2m68.7.1c-.8.4-1.9.8-2.3.8-.8 0-4 .9-4.3 1.2-.2.2 3 1.4 3.7 1.4.9 0 2.4-.7 4.3-2 .8-.6 1.6-.9 2.2-.9 1.5 0 2.5-.5 1.9-1-.9-.6-3.8-.4-5.5.5m52.1-.5c-1.6.5-.4 1.8 1.6 1.8 1 0 2.4.9 4.6 3 2.3 2.1 3.1 2.6 4.3 2.6 1.2 0 .6-.8-3-4.3l-3.5-3.4h-1.5c-.9 0-2 .2-2.5.3m-219.4.2c-.1.1-.2.9-.3 1.7-.1.8-.4 2.8-.7 4.4-.3 1.6-.6 4.1-.8 5.6-.2 1.5-.5 3.5-.7 4.6-.5 2.3-.6 2.3 2.1 3 1.1.3 2.2.6 2.5.7.4.2 1-.7 1-1.4 0-.2-2.4-1.1-3-1.1-.7 0-.5-4.3 1-17.2 0-.4-.9-.6-1.1-.3m-72.5 1.2c.3 2.1.3 2.1 4.1 3.3 2 .6 3.6 1.1 3.6 1.1s.3-.6.6-1.3l.6-1.3-.7-.4c-.4-.2-1-.4-1.3-.5l-.6-.2.5 1.1c1.1 2.5 0 2.4-1.3-.1-.7-1.3-1.2-1.9-1.8-2.2-1.3-.6-1.5-.5-.9.3.7 1 .8 1.8.3 1.9-.3.1-.8-.5-1.4-1.4-1.3-1.8-2-2-1.7-.3m301.6-.7c-1.9.1-1.9.4 0 1.4 1.2.7 1.4.7 2.7.5 1.1-.2 1.6-.2 2.2.2.9.5 1.2.2 1-.7-.4-1.1-2.4-1.6-5.9-1.4m-329.4 1.2c.3.5 1.3 1.8 2.2 3 2.2 2.7 3.1 4.1 3.8 5.9 1 2.7.9 2.9-.3.5-.8-1.5-2.1-3.4-3.5-5.2-2.5-3-3.3-4.2-3.3-4.9-.1-.6.5-.3 1.1.7m218.5-.9c-.1.2-.4.3-.6.3s-1.1.4-1.8.8c-1.8 1.1-1.2 1.4 3.5 1.3 2.2 0 3.9.1 4.7.3 3.6 1 4.2 1 3.9.2-.7-1.6-9-4.1-9.7-2.9m120.3.6c0 .1.2.3.5.4 1.9.6 6.2 5.6 7.3 8.3.6 1.5 1.1 2 1.6 1.4.9-1.3-2.1-7.1-4.6-9.1-1.1-.9-4.8-1.6-4.8-1m-46 1.7c-2.2.7-4.6.8-5.8.2-.7-.3-1-.4-1.8-.2-.5.1-1.5.4-2.2.5-1.9.3-2 .5-.6 1.1 3.8 1.7 9.4 1.4 12-.6 1.9-1.3 1.1-1.8-1.6-1m-100.5.5c-2.1 1.6-3.4 3.1-5.9 6.1-3.4 4.3-3.9 5.1-5.6 10-2.6 7.4-3.1 10.3-3.5 18.8l-.2 4.2.9.4c.5.2.9.4.9.4.9-1.2 1.2-2.1 1-2.9-.3-1.8 1.6-4.7 3.1-4.7.9 0 .8-.3-.4-1.8-1.9-2.4-2.1-2.6-1.9-4 .3-2.4 2.1-4.2 4.5-4.3 2.2-.2 2.4-1.4.3-2.3-1.7-.8-1.8-3.7-.3-5.5 1.4-1.6 4-2.3 4.6-1.3.3.4 1.1.3 1.6-.3.6-.9.5-1.8-.1-1.8-4.5 0-3-6.5 1.7-7.3 1-.2 2.7-1.8 2.5-2.3-.1-.2-.6-.7-1.2-1.2l-1.1-.9-.9.7m41.7-.5c-2.4.8-3.5 2.9-1.8 3.8.7.4.8.4 1.5-.2 1.8-1.4 2-1.5 4.8-1.7 2.8-.2 4.2-.7 4.2-1.3 0-.2-.3-.3-.7-.3-.4 0-1.8-.1-3.3-.3-3-.5-3.1-.5-4.7 0m-214.1.5c-.3.3-.2.6.5 1.5 1 1.3 1.1 1.3.9.4-.2-.9.4-1.2 1-.5.3.3.6 1 .6 1.5.1.7.3.9.8 1.1.9.2 1 .1.5-1.3-.4-1.1-.4-1.3-.1-1.5.5-.3 1.2.4 1.8 2 .4 1.1.6 1.3 1.2 1.4.8.1.9 0 .3-1.5-.4-1-.4-1.1.1-1 .3.1.6.6.9 1.4.5 1.5.7 1.7 1.8 1.9l.9.1-.3-.9c-.2-.5-.2-1-.1-1.1.4-.4 1 .2 1.3 1.2.3 1 .8 1.4 1.9 1.4.4 0 .8-1.1.9-2.2 0-.5-11.9-4.2-13.6-4.2-.6-.1-1.1.1-1.3.3m230-.1c-2.3.5-6.7 4.5-5.1 4.5 1.4 0 3.2-.8 4-1.7 1-1.3 2.2-1.7 3.6-1.5 1 .1 1.1.1 1.1-.4 0-1-1.7-1.4-3.6-.9m-210.6 1.2c-.4.2-.7.5-.7.6 0 .1.3.2.7.2.5 0 .7.1.7.4 0 .3-.3.4-1.1.4-.9 0-1.2.1-1.4.6-.3.6-.2.6.8.6 1.5 0 1.4.9-.2 1-1.7.1-2.1 1.4-.4 1.4 1.9 0 2 1.1.1 1.2-1.1 0-1.3.2-.9.9.7 1.3 2.9-.5 2.9-2.2 0-.6.9-2.3 1.6-2.9.8-.7.7-1-.3-1.8-.8-.9-.8-.9-1.8-.4m165.7.7c0 2.6 2.7 4.5 4.1 2.9.8-.9.1-2-1.4-2.1-.9-.1-1.2-.2-1.7-.9-.7-1-1-.9-1 .1m93.2.2c-2.4.6-3.8 1.2-4.9 2.1-.8.6-1.1.7-2.5.5-1.7-.2-3 .2-3 .9 0 .3.4.4 1.2.4.7 0 1.8.2 2.6.4l1.4.3-1.1 1.7c-.6.9-1.3 2.1-1.6 2.7l-.5 1-1.5-.4c-2.2-.5-5.7-.5-6.4 0-.8.5-3.3 5.6-3.3 6.6 0 .1 1.6.2 3.5.2h3.5l-.2 1.2c-.1.7-.2 1.7-.3 2.3l-.1 1.1-2 .3c-2.5.4-5.1 1.6-6.8 3.1-.7.6-2.6 2-4.4 3.1-3.9 2.4-8 6.4-9.5 9-.5.9-1.4 2.3-2 3.1-2.1 2.6-3.3 5.2-4.5 9.5-.7 2.7-.8 3.3-.2 3.7.3.2.4.8.4 1.9 0 1.8.2 2 1.9 2.2 1.1.1 6.5 2.1 7 2.5.1.1-3.1.2-7.1.2-8.9 0-13.5.6-16.3 2.1-.6.3-1.6.7-2.3.8l-1.2.3 1.9.6c4.5 1.5 8.9 3.3 13.3 5.5 5.8 2.8 6.4 3 11.4 2.7 4.6-.2 6.4-.6 8.8-2 1-.6 2.3-1.3 3.1-1.7 1.6-.8 2.8-2 3.6-3.6.5-1 1.1-1.5 4.8-3.7 6-3.7 13.6-11.3 16.2-16.1 2.4-4.5 2.5-5.2.5-2.5-.6.7-1.5 2-2.1 2.8-2.1 2.8-8.7 7.7-10.3 7.7 0 0 1.2-2.5 2.7-5.5 3.2-6.4 4.9-11.3 4.1-11.3-1.5 0-7.1 5.7-9.6 9.8-1.1 1.8-2 3.2-2 3.2-.6-.6 2.8-11.7 5.1-16.7l1.4-3-.5-1.4c-1.1-2.8-2-8.5-1.6-10.3.2-.9 1.5-1.6 3.2-1.6 1.3 0 1.9-.6 3.2-3.1 2.3-4.6 5.1-7.3 8.5-8.2 2.4-.6 6.7-.9 7.9-.5 1.2.4 1.8 0 1.2-.8-.2-.3-.6-.5-.8-.5-.2 0-.5-.2-.8-.5-2.7-2.1-8.6-3.2-13-2.1m-27.7.5c-1.4.7-2.5.8-7 .4-2.7-.2-2.9.1-.8 1.5 2.3 1.5 6.9.6 8.9-1.6.7-.8.2-1-1.1-.3m-226.3.6c-2.1 1.1-3.1 3.4-2.8 6.4.2 1.5.5 1.6.7.2.1-.6.4-1.3.7-1.7l.5-.6-.2 1.4c-.2 1.6.2 1.8.9.5.3-.6.3-.9.1-1.9-.5-1.8-.5-1.9 0-2 .3-.1.6.2.8.7l.4.8.9-.7c1-.9 1-2.5 0-3.4-.6-.3-.6-.4-2 .3m167.6 0c-.2.4.7 3.8 1.4 5.1 1 1.9 3.4 3.4 4.7 2.9 1.6-.6.9-2.4-1.1-3.1-1.7-.6-3.3-2.2-3.7-3.9-.4-1.2-1-1.6-1.3-1m-70.8.5c-.2.3-.3.7-.3.9 0 .9-3.1 11-3.7 12-.3.5-1.2 1.2-2.6 2-4.2 2.3-4.4 2.4-5.3 5.7-.5 1.6-.8 3-.7 3.1.2.3 1.7.3 1.7-.1 0-.2.4-.5.9-.7.5-.2 1.6-.8 2.3-1.3.8-.5 2.3-1.4 3.4-1.9 2.3-1.2 2.2-1 3.1-5.6.4-1.9 1.1-5.3 1.6-7.6s.9-4.3.9-4.6c0-.5.1-.5 1-.4 2.2.3 2.1.4 2.1-.7.2-1.2-3.7-2.1-4.4-.8m82.9.2c-.5.2-1.4.4-2.1.4-2.3 0-3.2 2.2-1.4 3.2.7.4 2.2 0 4-1.2 1.2-.8 1.7-.9 3-.9 1.4 0 1.5-.1 1.5-.6.1-1.2-3-1.7-5-.9m33.3.2c0 2.9 2.9 5.3 5.7 4.6.8-.2.8-1 0-1.2-2.1-.4-2.5-.6-3.5-2.1-.7-1.2-2.2-2.1-2.2-1.3m79.9.6c-1 1 .9 3.9 4.3 6.5 1.7 1.3 2.6 2.6 3.3 4.9.4 1.4.6 1.6 1.1 1.1.7-.8-1.2-5.9-2.8-7.3-.4-.4-1.1-1.3-1.7-2.1-2-3.1-3.2-4.1-4.2-3.1m-290.6.5c.3 1.3-.4 1.2-.8-.1-.1-.4-.1-.6.2-.6.2 0 .5.3.6.7m189.2.2c-1.6.8-1.7.8-3.2.5-1.9-.4-2.8 0-2.8 1.4 0 2.3 3.9 2 7.1-.5.8-.7 1.8-1.3 2-1.3.6-.2.6-.5.1-.8-.7-.3-1.5-.1-3.2.7m13.7 0c-1.9.5-5.9 3.1-6.3 4.3-.4 1.1 3.6-.1 4.8-1.4 1.2-1.4 2.8-2.2 4.3-2.2.5 0 .8-.1.8-.4 0-.6-1.6-.8-3.6-.3m-55.9.2c-1.9.2-2.8 1.1-2.7 2.4.1 1.4 1 1.3 1.7-.3.5-1 .7-1.3 1.2-1.3.6 0 1.5-.7 1.2-.9.1 0-.6 0-1.4.1m-144.2.6c-.5.6-1.2 2.8-1.2 4l-.1 1.1 1.4.4c1.7.5 1.7.5 1.4-1.4-.3-1.7-.1-3.1.4-3.1.2 0 .4.5.5 1.3.4 3 1 4.2 2.3 4.5l.7.2-.4-1.1c-.6-1.6-.8-3.5-.4-3.5.2 0 .4.2.5.5 1.4 4 2.3 4.9 6.4 5.8l.8.2-.8-.6c-1.4-1.1-3.4-4.8-2.6-4.8.1 0 .8.7 1.5 1.6 1.4 1.8 3.7 3.8 5.7 4.7 2.7 1.3 2.8 1.2.7-1.5-1-1.3-1.9-2.6-1.9-2.7 0-.7.8-.1 2.1 1.4 2.8 3.4 5.3 5.3 7.4 5.3.1 0-.4-.7-1.2-1.6-1.4-1.7-2.3-3.1-2-3.4.1-.1 1.4 1.2 3 2.8 2.6 2.6 3 3 4.3 3.4 3.3.9 3.2 1 1.5-.9-3.2-3.6-3.1-4.9.1-1.5 3 3.1 4 3.9 6.2 4.6l2 .6-1.8-2.1c-1.7-1.9-2.2-2.9-1.6-2.9.1 0 1.3 1.1 2.6 2.4 2.7 2.7 3.5 3.3 5.4 3.9 2 .6 2.1.5 1.1-.8-1.2-1.5-1.9-3.1-1.4-3.1.2 0 .8.6 1.3 1.2.5.7 1.6 1.9 2.5 2.6 1.5 1.3 2.2 1.6 5.3 2.5.3.1 0-.4-.9-1.4-1.3-1.4-1.6-2-1.2-2 .1 0 1 .8 2.1 1.8 2.4 2.2 2.6 2.3 4.9 3l1.9.5-1.5-1.6c-2.1-2.2-2.1-3.4 0-1.3 1.2 1.3 4 3.4 4.8 3.7 1.8.7 1.8.7.7-1.1-.6-.9-1.1-1.8-1.1-2 0-.8.5-.5 1.4.8 2.1 3 2.9 3.5 6.9 4.6 4.9 1.3 5 1.2.7-.6-2-.8-3.6-1.5-3.6-1.6.1-.1 2.2.3 4.9.8 8.5 1.6 16.7 3.1 16.8 3 .1-.1-3.8-1.3-43.8-13.5-41.4-12.7-43.6-13.3-44-13.3-.3-.1-.5 0-.7.2m70.5 1.8l-.7.8.6.4c1.1.7 2.6.8 3.2.3.8-.7.7-1.4-.4-1.9-1.4-.6-1.9-.5-2.7.4m75.5-.1c-.5.5-.1 1.4.8 1.9 1.6.8 5.9 2.2 6.4 2.1.8-.3.3-.9-1.3-1.6-.9-.4-2.5-1.1-3.5-1.6-1.9-1-2.1-1.1-2.4-.8m9.5 1.2c-.7.8-.5 1.7.7 2.3 1.5.8 2 1.9 1.6 3.7-.6 2.5-1.8 3.4-3.5 2.4-.8-.4-1.3-.5-1.8-.2-.4.3.8 4.6 1.4 4.9.9.5 1.2 1.1 1.2 2.2 0 2.4-.9 3.2-3.3 3-1.9-.2-2.1.1-1.3 2.4.4 1.4.8 1.9 1.3 2.2 1.4.8 1.8 2.2 1.1 3.8-.7 1.8-2.6 2.3-4.4 1.2-1.2-.7-1.2-.6-.5 1.2.5 1.2.8 1.5 1.4 1.7 1.3.3 1.4.4 2 1.3.3.5.7.9.9.9.3 0 .3 3.3 0 3.7-.4.5-3.3.2-4-.4-.8-.6-2-.9-2-.4 0 1.2 5 4.7 5.7 4 .1-.1 1.9-6.6 2.5-9.2 1.8-7.5 7.9-19.7 12.4-24.6 1.3-1.4 1.3-1.5-.2-2.1-4.2-1.6-5.5-2.1-7.6-3.3-2.7-1.5-2.9-1.5-3.6-.7m-11.7.1c-.4.4-.1 1.1.8 2.3 1.7 2.3 2.4 1.2.9-1.2-.8-1.2-1.2-1.5-1.7-1.1m-172.9.3c0 .7 12.9 13.7 16.4 16.5 1.5 1.2 2.7 2.2 2.8 2.3.1.1 1.3 1 2.7 1.9 2.8 1.9 3.4 2.6 1.3 1.4-5.8-3.4-14-10.2-22.4-18.8-2.7-2.7-2.7-2.7-3.3-.7-.5 1.7 1.3 5.8 4 9 1.1 1.3 1.1 1.4.4.9-1.9-1.4-3.9-4.3-5-7.3-.2-.6-.7-.3-.7.4 0 .9 1.4 4 2.5 5.5.5.7.9 1.4.8 1.5-.2.2-2.6-3.1-3.3-4.7-.8-1.7-.9-1.7-2.4 1.1-.9 1.8-1 2.1-.6 2.5.6.7 1.9 3.8 1.8 4.3-.1.3-.5-.4-1.3-1.8l-1.2-2.3-.9 1.9-.9 1.9 1.2 4c1.2 3.8 2.3 6.2 4.1 8.6.4.5.5.8.2.6-1.7-1.4-4.5-6.2-5.4-9.6-.5-2-.6-2-1.4-.6-.8 1.4-.8 1.5 1.2 4.6 3.5 5.2 8.2 10.1 12.8 13.1 2.3 1.5 2.5 1.9.4.7-4.4-2.5-9.4-7.2-13.7-13-1.6-2.2-2.3-2.7-2.3-1.9 0 .1.7 1.1 1.5 2.2.9 1.1 2.4 3.2 3.5 4.8 2.5 3.5 6.9 8.5 9.3 10.5 5.8 4.8 19.9 14.8 20.9 14.8.4 0-1.3-2-2.8-3.4-.9-.8-2.6-1.8-4.9-2.9-2.8-1.3-4-2.1-6.3-4-1.5-1.3-3.5-2.9-4.3-3.5-.9-.6-1.5-1.2-1.4-1.3.2-.2 3.2 1.7 5.4 3.6 3 2.6 4.3 3.4 6.4 4.2 4.4 1.7 6.8 3.4 10.2 7.5 2.2 2.7 4 2.9 5 .5l.4-1-1.1-.6c-1.1-.5-4.3-2.7-4.9-3.2-.6-.6 1.2.2 3.2 1.4 3 1.8 3 1.8 3.8-.2.4-.9.6-1.7.6-1.8-.1-.1-4.5-2.9-8.9-5.7-.4-.3-.4-.3.3-.1.8.2 6.1 3 7.9 4.2 1.2.8 1 1 2.2-2.2.9-2.4.9-2.7.6-2.9-.8-.5-4.5-3.5-4.3-3.6.2-.2 1.2.4 2.8 1.6 2.2 1.6 2.1 1.6 2.5.6.6-1.5-.9-3.5-4.1-5.4-2.9-1.7-2.8-1.8.2-.3 1.6.8 2.8 1.6 3.5 2.5 1 1.1 1.6 1.2 1.6.3 0-.9-4.3-4.8-5.3-4.8-.2 0-.3-.1-.3-.3 0-.9 3.1.6 4.9 2.4l1.2 1.2.9-1.9c.5-1 1.1-1.9 1.2-1.9.1 0 .5-.4.7-.8.5-.9 1-1 1.8-.4.5.4.5.5-.7 2.2-1.2 1.9-2.4 4.1-2.4 4.8 0 .2-.2.6-.4 1-.4.6-2.4 7.9-2.2 8.1.1.1.4-.9.9-2.2.7-2 3.7-8.6 4-8.6.1 0-.4 1.8-1.4 4.5-.5 1.2-1.3 3.9-1.9 5.9-.9 3.1-4.6 11.6-4.2 9.4.1-.3.2-1.4.3-2.4.1-1 .5-3 1-4.5 1-3.2.9-3.6-.2-1.7a8.6 8.6 0 0 0-1.4 4.4c0 .5-.3 1.9-.6 3-.6 2.3-.5 3.4.3 3.4.3 0 .9.2 1.2.5.9.7 1.2.7 1.6 0 .3-.5.3-.6-.1-.9-.4-.3-.5-.4 0-.7.6-.5 2.9-7.4 2.9-8.8 0-1.7.7-5 1.2-6.1.6-1.1.6-1 .4 1.1-.3 2.5-.1 2.6.6.3 1.3-4.5 1.8-5.6 3.1-7.8.8-1.3 1.4-2.4 1.4-2.6 0-.5.5-.6 1.3-.2.5.3.7.5.6.7-.1.2-.5.8-.9 1.4-1.2 1.8-2 3.6-3 6.7-1.3 4.2-1.4 4.8-.4 2.8 1.3-2.4 2.3-3.2 1.5-1.1-1.7 4.2-3.3 10.5-3.1 11.5.1.3.1.2.2-.2.1-2 3.9-11.9 4.4-11.4.1.1-.3 1.4-.8 2.9-1 3-2.3 7.5-2.3 8.2 0 .5 3.8-6.9 4.5-8.9 1.2-3.1 2.3-5.1 3.9-6.7 1.6-1.6 1.6-1.5-.2 1-2.5 3.6-2 3.7 1.2.5 1.7-1.7 3.2-3.2 3.5-3.4.4-.3 1.1-.2 5 1.3l.6.2-.5.9c-.5.8-1.7 3.7-1.7 4.1 0 .1.6-.5 1.3-1.3 1.6-1.8 2-1.6.8.5a48 48 0 0 0-6.3 19.9c-.4 4.7-.3 4.8.7.4 1.4-6.8 3.5-12.9 5.3-15.6.9-1.3.9-1.2-.2 1.7-.8 2.1-3 10.3-3.5 12.9-.3 1.5.3.3 1.3-2.7.5-1.5 1.1-2.9 1.3-3.1.4-.5 2.3-5 3-7.2.3-.8 1.1-2.8 1.9-4.5.8-1.7 1.5-3.3 1.6-3.6.2-.6.3-.6 1.4-.1l1.1.5-.4 1.6c-.2.9-1.1 3.6-1.9 6-2.6 7.1-5.1 15.8-5.1 17.5 0 1.3.5.5.8-1.2.8-4.4 6-18.2 6.6-17.5.1.1-.4 1.8-1.1 3.8-2.8 8.5-4 12.8-3.5 12.3.1-.1.7-1.6 1.3-3.3 1.2-3.2 1.7-4.4 5-11.9 1-2.3 1.8-4.6 1.8-5 0-.4 0-.8.1-.8s.7.2 1.5.5 1.6.4 1.8.4c.2-.1.4 0 .5.1.2.3 4.7 1.5 6.7 1.8.7.1 2 .4 3 .6 2 .5 2.5.3 2.2-.7-.2-.5-2.6-1.7-4.4-2.2-3.8-.9-8.9-2.6-13.1-4.4-1.2-.5-3.4-1.4-4.8-1.9-8.4-2.9-17.2-6.4-20.9-8.1l-5.2-2.4c-4.5-2-14.8-7.9-17.4-9.9-3.4-2.7-11.3-9.5-12-10.4-.4-.5-1.9-1.9-3.3-3.2-1.5-1.3-2.9-2.8-3.3-3.3-.4-1-3.5-1.6-3.5-.9m208.3.2c-3.3 2.3 3.8 4 8.1 1.9 2.6-1.3 2.5-2.4-.1-1.5-1.8.7-2.3.7-4.8-.1-2.4-.8-2.4-.8-3.2-.3m-112 1.9c-.8.8-.8.8.9 1.6 1.9.9 1.8.9 2.7-.4.9-1.3.9-1.2-.9-1.6-2-.4-2.1-.4-2.7.4m138.6.5c-1.1.5-3.3 1.3-4.8 1.7-1.5.4-3.8 1.2-5 1.6-4.1 1.4-12.3 1.7-18.2.5-5.8-1.1-9.4.8-12 6.3-1.8 3.8-1.9 3.3 1.5 5 5.1 2.4 2.8 2.7-3.4.3-.4-.2-1.3 1.4-.9 1.7.5.3.3.9-.3.9-.8 0-1 1.1-.3 1.6.8.6.5 1.1-.5.9-1.7-.3-.8.6 1.7 1.9 1.4.7 2.7 1.5 3 1.8l.5.6-.8-.1c-.4-.1-1.6-.5-2.5-.9-3.2-1.4-5.1-.9-2.4.6 1.7 1 1.5 1.6-.4 1.1-1.7-.5-2.2 1-.6 1.6 1.2.5 5 3.2 5 3.7s0 .5-2.6-.8c-2.9-1.5-3.6-1.6-3.7-.7-.1.9 1.1 2.1 4.2 4.2 5.8 3.8 9.5 4.7 18.7 4.1 15.1-.9 18.9-2.9 23.7-12.7 2-4 2.9-5.7 5.1-9.3 1.3-2.2 2.6-4.3 2.8-4.7.4-.7-4.2 4-5.8 6-3.4 4.2-3.6 3.8-.6-.8 2.4-3.7 2.5-4.3.2-2.1-5.7 5.5-6.5 5.4-1.5-.1 1.3-1.5 2.4-2.8 2.4-3 0-.2.8-1.1 1.8-2.1 2.5-2.4 2.7-3 .3-1.2-4.9 4-6.3 4.6-2.6 1l2.2-2.1-2.3 1.6c-1.2.9-3.4 2.4-4.8 3.5-2.6 1.9-5 3.5-6.1 4.1-.7.4 2.7-3 6.2-6 1.9-1.7 2.3-2.1 2.1-2.5-.2-.4.1-.7 2.6-2 3.5-1.8 5.1-3 2.6-1.9-.9.4-2.4 1-3.5 1.5-1 .4-2.7 1.2-3.6 1.7-.9.5-2.6 1.3-3.7 1.7-4.5 1.8-4.6 1.3-.4-1 1.7-.9 3-1.7 3-1.8 0 0-1.6.4-3.5 1-8.7 2.7-11.8 2.8-4.9.1 1-.4 2.7-1 3.9-1.4 2.9-1.1 11-5.1 11.2-5.5 0-.7-.8-.6-3 .4m-67.6 2.1c-1.2.7-1.9 2-1.6 3.3.3 1.7 1.4 1.1 1.4-.7 0-.8.8-1.9 1.6-2.1.2-.1.3-.3.2-.6-.2-.6-.3-.6-1.6.1m13.7-.5c-.5.1-3.9.6-6.8 1-3.2.4-4.2 1.1-3 2.1.5.4 10.9-1.8 11.6-2.5.4-.3-.9-.7-1.8-.6m98.1 1.4c-2.2 1.2-2 6.4.4 7.9 1.5.9 2 .7 1.9-.7-.1-.9.1-1.9.6-3.3 1.1-3.8-.1-5.4-2.9-3.9m-185.5.7c-1 1.2.3 2.6 2.3 2.6 1.7 0 2.3-1.9.8-2.5-1.2-.5-2.7-.5-3.1-.1m37.9.5c-1.2 1.3-3.3 8.4-4 13.3-.1 1.1-.3 2.3-.4 2.7-.2 1.2.4 2 1.2 1.4.6-.5 2.2-6.6 2.7-10.2.1-1 .5-2.8.9-3.9l.6-2 1.5-.1c1.4-.1 1.5-.2 1.4-1-.4-.8-3.1-1-3.9-.2m37.2 1c-.1.2.2 1 .8 2 .6.9 1.9 3 2.9 4.7 3.2 5.2 4.7 7.3 5.2 7.4.9.2.3-1-4.7-9.2-1.6-2.7-3.9-5.4-4.2-4.9m-165.9.8c1.3 2.6 4.7 5.3 10.5 8.4 4.7 2.5 8.3 4.8 8.3 5.4 0 .6-.5.5-2.8-1-1.2-.8-3.4-2.1-5-3-6.1-3.4-11.7-8.3-11.7-10.3 0-.5.3-.2.7.5m174.9.2c-.2.5.5 2 1.9 3.9 1.8 2.4 2 1.4.3-1.9-1.1-2.3-1.9-3-2.2-2m-37.4.7c-.1.2-.6 1.7-1 3.3-.9 3.7-1.3 4.1-4.3 4.6-1.3.2-1.7.8-.6.8.3 0 1.3.1 2.2.2 2.9.4 3.6-.5 5-6.4.2-.8.2-.8 1.6-.6l1.5.1v-.8c.1-1.1-3.7-2.2-4.4-1.2m-48.9 2.4c-.5.9 1.5 2.6 2.9 2.6.3 0 1.1-1.6 1.1-2.1 0-1-3.5-1.4-4-.5m59.2.1c0 .6 4.9 5.2 5.2 4.9.6-.8.3-1.5-1-2.2-.7-.4-1.7-1.1-2.2-1.5-.9-.8-2-1.5-2-1.2m141.8.2c-.6.2-1.8 1.1-2.8 2.1-1 1-2.1 1.8-2.4 1.9-.7.2-.7.8-.1 1.2 3.8 2 10.5-2.4 7.5-4.9-.9-.8-.8-.8-2.2-.3m-116.6 2.5c-.2.5.3.9 1.3.9s1.6-.2 1.6-.7c-.1-.8-2.6-1-2.9-.2m-11.8.1c-1.6.8-2.5 3.6-1.3 3.9.3.1.5-.1.5-.3 0-1.3 1.9-3.2 2.8-2.9.6.2.4-.4-.1-.7-.7-.4-1.1-.4-1.9 0m3.3.9c-.3.8.1 1 1.9 1 2.8 0 2.7-.9-.1-1.2-1.4-.2-1.7-.2-1.8.2m-160.7 1.8c2.2 1.3 3.8 2.7 4.4 3.6.5.7.5.7-.1.3-.3-.2-1.3-1-2.2-1.6-.9-.7-2.3-1.6-3-2l-1.3-.8.9 1.4c.6.9 1 1.9 1.3 3.1.3 1.7.4 1.8 1.6 2.4 1.4.7 3.5 2.6 3 2.8-.2.1-.6-.1-1-.4-2.4-1.7-3.5-1.9-3.5-.5 0 .8-2.1 2.3-3.4 2.5-3.3.5-6-1.3-6.6-4.4l-.2-.9 1.1.4c2.6 1 5.3 0 6.6-2.4.5-1 .4-3.7-.3-4.4-1.1-1.2-.2-.9 2.7.9m159.4 1.4c-.5.5 1.8 4 2.9 4.5 1.4.5 1.2-.3-.6-2.6-1.4-1.9-1.9-2.3-2.3-1.9m113.2.8c-2.5 1.1-2.5 1.1-.1 2.6s2.4 1.5 2.6-1.3c.2-2.6.3-2.6-2.5-1.3m-262.4 3.8c1.1.6 4.1 2.1 6.6 3.2 4.2 1.9 8.5 4.5 9.4 5.5.2.2-.7-.3-2.1-1.2-1.3-.9-3.8-2.2-5.6-3-5.8-2.6-10.6-5.1-12.2-6.3-2.1-1.7-2-2.3.2-.7 1 .8 2.6 1.9 3.7 2.5m63.4-2.1c-.2.4-.6 1.6-1 2.6s-1.1 2.8-1.6 3.9c-.9 1.9-3 7.4-3.4 8.7-.2.6 1.3 1.3 5.9 2.8 1 .3 2.4.8 3 1.1 1.7.8 4.6 1.6 5.8 1.5 1.1 0 1 0-1.3-1.2-4.3-2.1-2.5-2.4 2.5-.4 2.9 1.2 4.7 1.4 2.1.2-.8-.4-1.7-.7-1.9-.8-.6-.2-.6-1 0-1 .2 0 2.5.7 5 1.5 7.3 2.3 6.5 1.2-1.4-2-1.4-.6-3.5-1.5-4.6-2-3.2-1.5-4.2-1.6-5.8-.9-1.7.8-5.3 1.4-5.9.9-.2-.2 1.3-4.7 2.2-6.9 1.3-3.2 2.5-8.2 1.9-8.5-.7-.4-1.1-.3-1.5.5m184.3 2.5c-.4 1.2-1.1 3.2-1.6 4.4-.4 1.2-1 3.3-1.2 4.6-.4 2.3-.5 2.4-1.6 3.3-6.4 5.1-9.2 8.5-10.9 13.4-.4 1.1-.7 2-.8 2-.6-.8 1.5-11.5 3.3-17.5.8-2.6 3.1-6 5-7.2.9-.6 2.5-1.7 3.5-2.5 1.6-1.2 3.8-2.4 4.9-2.5.1-.2-.2.8-.6 2m-175.6-1c-.2.6.1 1.1 1.1 1.6 1.2.6 1.7.4 1.7-.6 0-1.1-2.5-2-2.8-1m-74.4 2.4c2.6 1.3 3.8 2 3.1 2-.6 0-6.2-3-6.8-3.6l-.7-.7.7.5c.5.1 2.1 1 3.7 1.8m158.7-1.7c-.4.1-1.8.2-3.1.2-4.7.1-7.4 1-6.4 2.1 1 1 12.5-1 12.2-2.1-.1-.4-1.6-.5-2.7-.2m-147.2 2c1.1.5 2 1.2 1.4 1.2-.2 0-3.7-1.5-3.8-1.7-.5-.4 1-.1 2.4.5m78.6 2c-1.2 2.6-.9 3.1 1.7 3.6.9.2 2.4.5 3.2.8l1.6.5 2-1.4c2.3-1.6 2.3-1.7.3-1.9-3.5-.4-5.4-1-5.4-1.8 0-1.8-2.5-1.7-3.4.2m-16.1.5c0 .8 1.1 1.6 2.3 1.6.9 0 .5-1.8-.4-2.1-1.5-.5-1.9-.4-1.9.5m83.9-.6c-.4.4-.1.9 1.1 1.8 2.2 1.6 2.9 1.2 1.1-.8-1-1.1-1.8-1.5-2.2-1m-150.8 2.1l1.5.7.6 2.4c1 4.1.8 5.1-1.7 7.4-2.1 2-7.9.3-9.7-2.7-.7-1.2-.5-1.3.9-.6 1.2.6 2.5.6 4.4 0 2.3-.7 3.8-4.8 2.6-7.2-.6-.9-.5-.9 1.4 0m108.6-.1c-1.5 1-3.9 2.1-5.6 2.6-1.7.5-3.7 1.7-5.7 3.4l-1.1.9.2 1.5c.4 3.5 1.9 7.9 2.2 6.3.6-3.5 2.5-7.4 3.3-6.6.1.1 1.1.4 2.4.7 2.2.5 6.3 2 6.7 2.4.1.1.1 1.5-.1 3.1-.4 3.6-.2 3.7 1.7 2.4 1.5-1 1.5-1 1.3-2.1-.5-3.3-4.1-11.4-5.1-11.6-.3 0-1.6.6-3 1.5-2.4 1.6-3 1.8-3 1.4 0-.1 1-1.1 2.3-2.3 2.2-1.9 4.6-4.2 4.3-4.2.1 0-.3.3-.8.6m-96.8 1.3c.6.6.8 1 .5.8-.3-.2-1-.8-1.6-1.4-.6-.6-.8-1-.5-.8.3.1 1 .8 1.6 1.4m-6.6 0c.7.5 1.1.9 1.1 1-.1.1-2.2-1.2-2.4-1.6-.3-.4 0-.2 1.3.6m62.9.8c-.4.6.2 1.3 1.2 1.6 1.3.4 1.4.3.9-.9-.3-1-1.7-1.4-2.1-.7m71.3 4.3c4.5 2.3 8.1 4.1 8 4.1-.1 0-2.3-.8-5-1.7-2.7-1-4.9-1.7-5-1.7-.1.1 21.6 9.8 21.9 9.8.1 0 0-.2-.2-.5-.3-.3-.4-.7-.4-.8.1-.2.5.2.9.8.7 1 4 3 4.3 2.6.1-.1-.2-.5-.5-1-1-1.3-1.1-1.6-.6-1.6.2 0 1 .8 1.7 1.7.9 1.2 1.6 1.9 2.4 2.2 2.3 1 2.3 1 1.2-.8-.6-.9-1-1.8-1-2 .1-.2-3-1.6-7.5-3.5-12.4-5.3-27.3-11.6-27.8-11.7-.3.1 3.2 1.9 7.6 4.1m-153.7-1.5c1.2.7 2.7 2.2 2.5 2.4-.1.1-.7-.3-1.4-.9-.7-.6-1.9-1.5-2.7-1.9-.8-.5-1.4-.9-1.4-1-.1-.2 1.8.7 3 1.4m44.5 1.9c.2.3-4.1 6-4.3 5.8-.2-.2.6-1.5 2.1-3.9 1.4-2 1.9-2.4 2.2-1.9m71.3 3.9c-.2.5-.6 1.7-.8 2.7-1.6 6.4-6.1 8.3-13.8 6-1.4-.4-4.8-1.3-7.5-2-2.7-.6-5.1-1.3-5.3-1.5-.9-.7-1.5.7-4.7 10.5-1.7 5.2-4.4 13.5-6.1 18.5-1.7 5.3-2.9 9.3-2.8 9.5.1.3 0 .5-.3.5s-1.2.4-2.1.8c-.9.4-4.2 1.7-7.3 2.9l-5.7 2.1-1.5 4.8c-.8 2.6-2.1 6.3-2.7 8.1-.7 1.8-1.7 5-2.3 7l-1.1 3.6 2.2 3.6c1.2 2 2.8 4.6 3.5 5.9.7 1.3 1.4 2.3 1.5 2.3.4 0 4.1-12.5 4-13.6 0-.6.3-1.6.8-2.7.5-.9 1.1-2.6 1.5-3.6 1.4-3.9 1.9-4.9 3.4-5.4.7-.2 3-1.1 4.9-2 2-.8 4.4-1.8 5.5-2.1 1.6-.5 3.8-1.3 4.4-1.6.4-.2 7.6 10.2 8.4 12.1.6 1.4-.8 8.3-3.5 17.2-.4 1.2-1 3.9-1.5 6-.4 2.1-1.1 4.4-1.3 5.1l-.5 1.4 3.4 5.2c1.9 2.9 3.5 5.2 3.5 5.2.4 0 5.1-15.5 6-19.7.8-4 1.9-7.9 5.1-18.8.9-3 .9-2.9-1-3.6-4.7-1.8-9.7-7-11.7-12.1-2.3-5.8 1.1-17.1 6-20.3 1-.6 1.2-1 1.4-1.8.7-4.2 2.4-7.1 5.2-8.9l1.5-1 2.3.2c1.3.1 3.4.3 4.8.4 2.8.3 3 .3 3-.7 0-.4.2-1.5.5-2.5s.8-3.1 1.2-4.7c1.2-5 3.4-11.6 3.9-11.4.7.3 3.7.5 3.7.2 0-.4-6.1-2.8-7.1-2.8-.5.1-.8.5-1 1m-93.6 2.1c.8.7 1.9 1.5 2.4 1.7 1.1.5 1 1-.2.6-.7-.2-5.3-4.1-5.3-4.4 0-.3 1.8.9 3.1 2.1m25.8-1.3c-.5.5-.7 1.1-1.3 3.8-.2.8-.2.8-.5-.4l-.3-1.2-.6 1c-.5.9-.6 1.4-.7 4.9-.2 7-.8 12.3-1.9 15.9-.1.3 0 .5.1.5.3 0 1-2.6 2.5-9.3 1.1-5 2-7.3 1.6-4.4-.4 3.5-1.7 10.6-2.2 12.1-.7 2.1-.6 2.4.2.6 1.7-4 3.2-10.5 3.5-16 .1-2.3.3-4.9.4-5.9.2-2-.1-2.5-.8-1.6m-40 3.2c1.1.4 3.3.9 4.9 1.1 4.3.6 10.9 4.2 10.9 6 0 .8-.4.6-2.1-.8-3.5-3.1-5.2-4-9.1-4.6-3.1-.5-8.6-2.6-8.6-3.2 0-.1.5.1 1 .4.7.2 2 .7 3 1.1m88.1.7c-.4.1-1.1.2-1.5.2-1.7.1-.5 1.1 1.3 1.1.4 0 2.6.5 4.7 1.2 5.1 1.5 5.1 1.5 6.8 1.3 1.9-.2 1.8-.7-.4-1.1-.9-.2-3.4-.9-5.5-1.7-4-1.3-4.2-1.4-5.4-1m85.8 2.5c.1.2.7 1.1 1.3 2 .6.9 1.2 1.8 1.2 1.9 0 .2 3.8 1.9 4.1 1.9.1 0-.5-.7-1.2-1.7-1.4-1.7-1.6-2.1-1.1-2.1.3 0 1.3 1 2.9 3 1.1 1.3 3.6 3.1 3.9 2.8 0 0-.6-.9-1.4-2-.8-1-1.3-1.9-1.2-2 .4-.1 1.4.9 3 3 1.2 1.5 4.7 4 4 2.8-.1-.2-.6-.9-1-1.5-.7-1.1-.8-1.6-.2-1.3.2.1.9 1 1.6 2 1.1 1.4 1.6 1.9 2.9 2.5l1.6.7-1.4-2c-2.5-3.5-1-2.8 1.7.8 1.2 1.6 1.7 2.1 2.8 2.6 1.6.7 1.7.6.6-1-3-4.4-1.4-3.6 2.5 1.2 1.2 1.5 3.3 3 3.7 2.6.1-.1-.5-1-1.2-2.1s-1.2-2-1.1-2.1c.5-.2 2.7 1.9 3.5 3.3 1 1.7 1.3 2.1 2 2.5 1.4.8 1.5.4.1-1.9-2-3.3-.3-2.3 2.3 1.3 1.5 2.1 2.9 3.3 3.2 2.9.2-.2-.8-2-1.6-3.1-.9-1.1-.7-1.3.5-.6.6.3 1.5 1.5 2.3 2.7 1.2 1.9 3.1 3.5 3.6 3.1.1-.1-1.6-2.8-2.6-3.9-1.6-1.9-.4-1.2 1.6.8.8.8 1.7 2 2.2 2.8.6 1 1.1 1.4 1.9 1.7l1.1.4-.4-.8c-.2-.5-.8-1.4-1.3-2.1s-.9-1.4-.9-1.5c0-1 2.2.9 3.1 2.7.5 1 .6 1 1.2-.2.7-1.4.7-1.4-.7-2-1.2-.5-7.2-3-34.9-14.7-15.5-6.3-14.5-5.9-14.2-5.4M141 284.9c-2.6.9-2.3.5-3.8 4.7-.7 1.9-2 5.6-3 8.2l-1.7 4.8.8 2.4c1 2.9 1 2.9 2.4 3.3 1.4.4 1.4.5.5-1.9-1.6-4.3-1.3-4.4.8-.3 1.1 2.3 1.6 3 2.2 3.2 1 .4 1.1.2.5-1.1-.9-1.7-2.4-5.9-2.3-6.2.1-.2 1 1.6 2.2 3.9 1.9 3.7 2.2 4.3 3.1 4.7 1.3.7 1.3.5-.2-2.3-1.1-2.1-2.8-6.7-2.8-7.3 0-.8.7.3 2.8 4.7 2.6 5.4 2.6 5.4 3.2 3.9l.4-1.1-1.6-3.1c-.9-1.7-1.8-3.7-2-4.4-.8-2.2-.3-2 .9.2 1.6 3.2 3.2 5.8 3.3 5.6.9-1.5.8-2.2-.4-5.2-1.9-4.6-1.5-5 .7-.7 1.1 2.3 1 2.3 1.7.2.1-.2-.4-1.5-.9-3-1.6-4.1-1.2-5.1.5-1.3.6 1.2 1.1 2.1 1.1 1.9.9-1.6 1-3 .4-4.5-1-2.4-1.1-2.8-.6-2.8.2 0 .7.6 1 1.3.8 1.7.9 1.7 1.4-.2.4-1.3.4-1.6 0-2.3-.7-1.3-.5-2.1.3-1.2l.6.7.3-1c.2-.6.3-1.1.3-1.2 0-.5-6.8-3.1-9.1-3.5-.6.1-1.5.3-3 .9m27 2.4c3.7 1.7 2.7 6.1-1.7 7.5-3.6 1.2-7.1-3.7-4.7-6.7l.5-.6-.1 1.3c-.2 1.7.4 2.8 1.5 3.3 2.7 1.1 4.2-2.9 1.8-4.9-.8-.7 1.2-.6 2.7.1m-57.7 4.2c-2.2 4.8-3.2 8.1-2.5 8.4.2.1.8.3 1.3.6l1 .4 1.2-3.8c2.3-7.3 3.2-11.7 1.4-6.6-2 5.4-3.4 8.3-3.4 7 0-.3 2.2-7.7 2.5-8.6.1-.3.1-.5 0-.5.1-.1-.7 1.3-1.5 3.1m150.9 5.7c-.3.3-1.9 1.2-3.6 2-5.7 2.7-12.4 7.9-11.2 8.7.6.4 8.5 3.4 8.9 3.4.3 0 1.7-.3 3-.7 1.4-.4 3.8-.9 5.3-1.2l4.7-.9c1-.2 3.8-.5 6.3-.7 4.9-.3 5.8-.5 7-1.5.4-.4 1-.7 1.1-.7 1.2 0-9.5-5-16.1-7.6-4.3-1.6-4.6-1.6-5.4-.8m-87.9 2.2c-1.9 1.7-1.9 1.8-2.7 5.5-.2.9.2 1 1.5.4 1.2-.6 2.3-2.7 2.3-4.6 0-.2.2-.9.4-1.5.8-1.6.5-1.6-1.5.2m-9.5 1.4c1.1 1.2 1.3 3.3.3 4.5-2.5 3.4-7.8 2.2-6.8-1.5.3-1.1.7-1.3.9-.5.5 1.6 3.1 1.5 3.8-.1.4-1 .1-2.7-.6-3-.3-.1-.3-.2-.1-.3.7-.4 1.6-.1 2.5.9m42.2-.3c-2.8 1.4-1 5.9 1.9 4.6 1.7-.8 1.8-3.8.2-4.6-1-.5-1-.5-2.1 0m-113.2.6c-7.4 2.9-12.4 10.9-10.6 17.2.4 1.4.8 1 .8-.8 0-5.5 4.9-12.5 11.1-15.9 2.1-1.1 1.2-1.5-1.3-.5m86.5 2c-1.5 1.9-1.4 2.3.6 2.6 1.9.3 3.1-1.1 3.1-3.4 0-.5-.9 0-1.2.7-.8 1.9-1.9 1.8-1.3-.1.7-1.8.2-1.7-1.2.2m128.9-.6c-2.6 1.5-4.3 7.7-2.6 9.5 1.1 1.2 2 1.4 2 .5 0-.4-.2-.8-.4-.8-.2-.1-.5-.4-.7-.7-.4-.8.1-1.2 1-.8 1.1.5.9-.3-.3-1-1.6-1-.9-2.2.8-1.2.5.3.9.4 1.1.2.4-.4-.2-1.5-.9-1.8-.6-.2-.6-1 0-1.1.2 0 .8.2 1.2.6.5.4.9.6 1 .4.3-.5-.1-1.5-1-1.9-.8-.5-.8-.5-.4-.8.6-.4 1.9-.1 2.4.7.4.6 1 .4 1-.4-.1-1.8-2.3-2.4-4.2-1.4m7 1.5c-4.5 2.8-5.6 10-1.4 9.2 1.5-.3 1.4-2.1-.1-2.3-.5-.1-.7-.2-.7-.6 0-.9 1.6-.9 2.5 0l.7.7.3-.7c.6-1.2 0-2.3-1.3-2.3-.5 0-.6-.1-.5-.6.1-.8 1.3-.9 2.3-.3 1.3.8 1.8-.2.6-1.2-.8-.7-.9-.8-.6-1.2.4-.5 1.2-.3 2 .4.7.7.9.6.9-.2 0-.4.1-.6.3-.5.1.1.3 0 .3-.2.1-1.1-3.5-1.3-5.3-.2m-210.4 4.3c-.2.3-1 1.8-1.8 3.5-.7 1.6-1.6 3.4-2 4-1.5 2-4.7 5.6-7.7 8.8-3.3 3.5-5.4 6.2-4.4 5.6.3-.2.6-.4.7-.5.3-.5 4.2-3.5 6.5-5.1 5.3-3.6 11.9-12.5 11.5-15.5-.2-1.1-.6-.8-1.2.8-1.2 3-4.7 8.6-6.3 9.9-.9.8-.6-.1 1.2-3 3-5 5.4-10.7 3.5-8.5m6.4 1.4c-.5 5.6-3.6 12.4-7.4 16.1-1.8 1.8-1.8 2.5 0 1.4 2.3-1.4 6.2-6.1 7.8-9.4.8-1.7.9-8 .2-9.3l-.4-.8-.2 2m66.4.4c-.1 1.3-.2 5.7-.3 9.7-.2 10.4-.3 10.5-1.5 4-2.9-15.4-2.9-15.5-3.5-15.3-1.6.5-3.7 1.6-4.5 2.5l-.9 1 1.7 3.2c1 1.8 2.6 4.8 3.8 6.8 4.5 8 4.5 8-2.1-1.3-5.3-7.4-5-7.1-5.6-5.9-.6 1-1.2.1 5.2 7.3 2.7 3.1 5.1 5.8 5.3 6.1.2.3-2.2-1.8-5.5-4.6l-5.9-5.1-.2 1c-.1.5-.2 1.6-.1 2.3l.1 1.3 4.4 2.5c2.4 1.4 5.2 3 6.3 3.6 2.6 1.5 3 1.5 5.3.4 1.1-.5 2.1-1 2.3-1 1.6 0 14.4-5.3 14.4-6 0-.8-2.1-4.6-3.2-5.8l-1-1.1-7 7.1c-3.9 3.9-7.1 7.1-7.1 7-.1-.1 9-16.5 9.8-17.6.6-.8.3-1.8-.4-1.8-.2 0-1-.4-1.8-.9-2.1-1.3-2.8-1.6-5.3-1.7l-2.3-.1-.4 2.4m43.6-1.9c-.6.7 1 1.7 4.3 2.4 2.7.6 4.2 1.5 3.8 2.3-.5 1-1.6 4.3-1.4 4.5.1.1.4-.6.9-1.5 1.3-2.7 1.6-2.1.6 1.1-.3 1.1-.7 2.5-.8 3.2-.1 1 0 .8.5-.9.4-1.2 1.1-3 1.6-4.1.5-1.1.9-2.1.9-2.2 0-.1.1-.2.2-.1s.1.5 0 1.1c-.1.5-.2 1.2-.1 1.6.1.3-.1 1.7-.4 3.1-.3 1.4-.5 2.6-.5 2.7 0 .4 2-2.7 2.8-4.2.5-.9.7-1.9.8-3.5.1-1.2.3-2.5.5-2.8.8-1.4-12.7-4-13.7-2.7M98 309.4c-2.2 1.5-9.7 9.5-11.2 12-.3.5-1.2 1.8-1.9 2.8-3.4 4.6-4.7 7.6-5.1 11.8-.1 1.6-.5 3.8-.8 4.9-.4 1.7-.5 3.1-.5 7.5 0 4.8-.1 6.3-.6 9.1-.1.4.1.1.4-.8.7-2.1 2-9.4 2.7-14.6.9-7.7 2.6-11.4 7.7-17 1.3-1.4 3.3-3.7 4.5-5.2 1.2-1.5 3.4-4 4.9-5.6 2.5-2.7 3.9-4.5 3-4-2.4 1.4-7.7 6.7-11.5 11.5-3.7 4.7-4 4.3-.8-.7 2.8-4.3 7.2-9.5 9.6-11.3 2.5-1.7 2.2-2.1-.4-.4m225.7 1.1c-.8.6-.9 1.2-.3 1.5.3.2.5.1.8-.2.4-.5.9-.2.9.5 0 .3.3.6.7.8 1 .4 1.2.3.9-.3-.4-.8-.3-1.4.2-1.4.6 0 1.3 1 1.3 1.9 0 .6.2.8 1.2 1.1 1.3.5 1.4.5.8-.6-.4-.8-.3-1.3.3-1.3s1.2.9 1.4 2c.1.9.3 1 1.6 1.6 2 .9 2.1.7 1-.8-1-1.4-1.2-1.8-.5-1.8 1.1 0 2.7 1.9 2.4 3-.1.5 0 .7 1.5 1.2 1.9.7 2.1.6 1.3-.4-.9-1.2-.7-2.1.2-1.6.6.3 1.8 2.4 1.8 3.1 0 .8 1.1.8 2.1 0 1.3-.9 1-1.4-1.3-2.4-1.1-.5-2.3-1-2.6-1.2-1.5-1-13.6-5.5-14.6-5.5-.1.2-.7.5-1.1.8m-87.4 1.8c.1 1 .2 1.8.3 1.9.1.1.1.6 0 1.2s-.3 1.7-.4 2.4l-.2 1.3.5-1.5c1.5-4.1 1.2-.3-.4 4.7-.1.3.2-.3.7-1.4s1.1-2.5 1.4-3.3c.3-.8.5-1.4.5-1.4.3 0-.3 2.9-.9 4.8-.4 1.2-.8 2.8-.9 3.5-.1.7-.2 1.4-.3 1.7-.1.3.3-.2.8-1.1.5-.9 1.4-2.4 2-3.3.6-.9 1.2-1.9 1.3-2.2.1-.3.3-.4.4-.4.4.2-.2 1.9-1.6 4.7-1.4 2.8-2.5 6.1-2.3 6.8.1.4.1.4.3-.1.2-.6 4.7-10.1 4.9-10.2.4-.4.3.4-.2 1.9-.6 2-.6 2.2.3.9 1-1.5 1.2-2.2 1.6-4.4.3-1.9.4-2.1.9-1.9.5.1.6 0 .5-1.4V314l-2.8-1c-1.5-.5-3-1.1-3.3-1.3-.3-.2-1.1-.5-1.9-.8l-1.3-.5.1 1.9m-78.7.6c2.1.7 2.4 4.4.6 6.2-3 2.8-7.2-.1-5.6-4l.3-.8.2 1c.2 1.2.8 1.8 2 1.8 1.7 0 2.5-2 1.6-4.1-.2-.5-.2-.5.9-.1m67.1 1.2c-.5.8-.7 3.1-.2 3.3.3.1.7-1.1 1.1-2.9.2-1.3-.2-1.4-.9-.4m96.5.2c-1.1 1.1-.8 1.9 1 3 1.6 1 1.9 1 1.2 0-.6-.9-.6-1.5.1-1.5s1.3.8 1.8 2c.3.9.6 1.1 1.8 1.6 1.8.7 1.8.7.9-.9-.8-1.3-.6-2.1.3-1.6.6.4 1.7 2.5 1.5 3-.1.2.3.5 1.1.9 1.8.8 2 .6 1.4-.8-.6-1.4-.5-2 .3-1.6.6.3 1.5 2.5 1.3 3-.1.3.2.5.9.7 1.3.4 1.5.2 1-.9-.2-.5-.4-1.2-.5-1.5-.1-.6-.7-.9-6.8-3.4l-6.7-2.7-.6.7m38.9 0c-5.3 1.4-15.8 6.3-14.3 6.7.4.1.9.1 1.1-.1.2-.1 1.5-.7 3-1.2s4.2-1.5 6-2.2c3.3-1.2 5.4-1.5 6-1 .5.5 12.6 4.5 12.8 4.2.1-.1.1-.3.1-.3-.1 0-.7-.5-1.5-.9-.9-.6-1.5-1.1-1.7-1.7-.6-1.7-.2-2 1.2-.8 1.7 1.5 3.3 1.4 3.3-.3 0-2.1-4.2-3.5-4.7-1.6-.3 1-1.3.9-5-.4-1.9-.7-3.6-1.2-3.8-1.2-.1.2-1.3.5-2.5.8m-158.5.2c-1.2 1.2 0 4 1.7 4 2 0 3-2.5 1.6-3.9-.8-.9-2.4-.9-3.3-.1m46.3 1.1c.1.5 0 1.1-.1 1.5-.2.5-.1.6.3.8.8.2.6 1.4-1.5 7.1-.1.3.2-.2.7-1 2.4-4.1 2-1.8-1 5.1-1 2.2-1.1 3.2-.3 1.7l.4-.8-.2.9c-.5 2.5-1.6 5.7-2.8 8.2-1.6 3.1-1.5 3.7.1 1.8 2.2-2.5 3.6-6.1 4.3-11a18 18 0 0 1 2.5-7.5c1-1.7 1.1-.8.2 1.5-.7 1.9-1.8 5.1-1.8 5.5 0 .8 2.7-3.1 4.1-5.9.4-.8.8-1.4.9-1.3.2.2-1.3 3.7-2.4 5.8-.5.9-.9 1.7-.9 1.8.2.2 2.3-2.8 3.5-4.9.7-1.2 1.4-2.2 1.5-2.2.1 0 .4-.6.7-1.3.3-.7.6-1.3.8-1.3.2 0 .3-.2.2-.5-.1-.3 0-.8.1-1.3l.2-.8-1.6-.3c-.9-.2-1.6-.4-1.7-.6-.1-.1-.5-.2-.9-.2s-1.8-.4-3.2-.8l-2.5-.8.4.8m11.5 3.7c.1.8.3 1.5.4 1.5.4.3-.8 4.3-1.4 4.6-.9.6-4.1 11.3-3.6 12.1.1.2-.9 3.4-2.4 7.3-1.4 3.7.9 1.1 3.1-3.4 2.4-5 3.4-8.2 2-6.4-.4.5-.4.5-.3-.3.1-.4.3-1.6.4-2.7.4-2.6 2.6-8.4 3.3-8.4.4 0 .3.3-.7 3.1-1.4 3.9-1.8 6.5-.6 3.9 1.7-3.6 2.9-6.5 3.2-7.5.2-.7.4-1.2.6-1.2s.2.1.2.3c-.1.1-.2 1.1-.3 2.1-.1 1-.5 2.8-.8 3.9-.5 2-.7 2.4-2.2 5.2-.4.7-.7 1.5-.7 1.8 0 .3-.3 1.2-.8 2-.5 1-.9 2.5-1.2 4.3-.2 1.5-.7 3.5-.9 4.3-.6 1.8-.5 1.9.8 1.9.9 0 1-.1 1.8-1.7.5-1 1-1.7 1.2-1.7.4 0 1-1.3 2-4.9.5-1.6 1-3.5 1.2-4.1.8-2.6.3-1.9-1.3 1.6-.7 1.5-1.7 3.3-2.1 4l-.8 1.2-.2-.8c-.2-.7 0-1.3.8-3.2 1.9-4.5 3.4-7.9 4.4-10 2-4.3 2-8.1-.1-8.7-.6-.2-1.9-.5-3-.8s-1.9-.5-1.9-.5c-.2-.2-.2.5-.1 1.2m77.4 1.2c.3.6.6 1.4.7 1.8.2.7.8 1 1.1.5.1-.1.6 0 1.1.4.6.4 1.2.6 1.5.5.8-.2.9-.2 2.9.4 3.1.9 4.5.3 1.7-.8-.7-.3-2.9-1.1-5.1-2-2.1-.8-4-1.6-4.2-1.6-.1-.2-.1.1.3.8m-68.9 1.4c.2 1.5.1 1.8-.4 2.3-.5.5-1.5 3.9-1.2 4.1.1.1.4-.4.7-1.1.3-.7.7-1.2.8-1.2.4 0 0 1.5-1.5 4.7-.8 1.7-1.4 3.2-1.3 3.3.2.4.9-.1 1.1-.7.1-.3.5-1.5 1-2.6 1.6-4.3 1.7-1.3.1 3.7-1.2 3.6-1.2 3.8-.2 2.1 3.1-4.8 5-11 3.6-11.5-.2-.1-.4-.4-.4-.7 0-.4.1-.5.4-.4.4.1.4 0 .3-1.2-.3-1.9-.3-2-1.8-2.3l-1.3-.3.1 1.8m98.8-1c-1.6.6-8.5 2.4-9.7 2.5-.7.1-1.7.4-2.1.6-1.4.7-7.4 1.7-11.5 1.9-6.2.3-8.4 1.8-4.2 2.9l1.1.3-.3 1.9c-.3 1.8-1.1 4.7-2.7 9.2-1 2.8-.6 2.9.8.2 1.7-3.2 3.4-7.3 3.7-8.8.4-2.1 0-1.9 4.9-2.7 2.3-.4 5.6-1.1 7.3-1.5 1.7-.4 3.9-.9 4.9-1.1 2.5-.4 6.9-1.3 8.4-1.7.7-.2 2.2-.6 3.4-.8 2.5-.6 2.8-1 1-1.6-.6-.2-1.7-.7-2.4-1-1.4-.6-1.5-.7-2.6-.3m-93.7 1.6c.1.6.1 1.7-.1 2.4-1.1 5.1-1.5 6.6-2.6 9-.6 1.5-1 2.7-.9 2.7.7 0 5.2-7.9 5.5-9.6.2-1.1.6-1.6.9-1 .5.9-.6 4.2-3.2 9.1-2.4 4.5-1.9 4.6.9.2 4.4-6.8 5.1-8.6 4.3-11.1-.6-1.8-.9-2.1-4.1-2.6l-1-.2.3 1.1m6.3.6c0 .7.7 3 .9 3.2.2.1-.2 1.1-1.1 2.9-2.3 4.4-3.6 7.5-3.3 7.8.5.5 1.4-.8 5.5-8.4.8-1.4 1.5-1.9 1.9-1.3.1.1-.6 1.8-1.5 3.7-2.2 4.4-2.3 4.7-1.4 4.3.4-.2 1.1-1.1 1.8-2.5 1.1-2.1 3.1-5.2 3.4-5.2.9 0 .8.6-.5 3.1-1.4 2.7-1.5 3.3-.6 2.7.5-.3 2.8-3.8 3.1-4.8.1-.4.4-.5.9-.5.9 0 1 .2.2 1.6-1.1 2.2.1 2.4 1.3.2.8-1.4.8-1.4 1.9-1.3.8.1 1 .2.8.4-.2.2-.3.6-.3.9 0 .9.7.8 1.1-.1.2-.4.3-.8.4-.8 0 0 1.5.1 3.3.3 1.8.2 4.7.5 6.4.7 1.7.2 5.2.5 7.7.8 5.5.6 15.6.9 20.1.6l3.2-.2.2-.9c.6-2.2-2.5-3-8.6-2.2-3.1.4-16.6-.1-21.3-.8-2.1-.3-3.9-.5-4-.4-.7.4-18.6-2.7-21.3-3.8-.1-.1-.2-.1-.2 0m-80.2 5.4c-1.2 1.2-.4 3.6 1.2 3.6.8 0 2.1-1.5 2.1-2.4.1-1.7-2.1-2.4-3.3-1.2m33.2.6c-1.1 1.2-1.7 3.9-.8 3.7.3-.1 1.7-3.3 1.7-4.2-.1-.2-.6.1-.9.5m-77.8 3.3c-.3.3 2.5 5.6 4.1 7.5.3.4.9 1.3 1.2 1.9l.6 1.1-1 3.1c-.5 1.7-1.4 4.6-2 6.5-1.1 3.4-3.2 11.7-3.2 12.5 0 .2-.2.9-.5 1.5-1 2-1 3.1.3 5.5 1.4 2.6 1.4 2.6.8 0l-.5-2 .8-3.1c.5-1.7 1.3-4.5 1.9-6.1 1.2-3.4 3-9.6 4.3-14.8l.9-3.5-1.7-2.7c-1-1.5-2.5-3.8-3.4-5.3-2-2.5-2.1-2.6-2.6-2.1m88.4.9c-.3.7-.8 2.1-1.1 3-.4.9-.6 1.7-.5 1.8.2.2 1.3-2.1 1.9-3.8.5-1.9.3-2.8-.3-1m8 1.6c-.5.9-2.1 3.3-3.5 5.4-2.9 4.3-2.9 4.4-1.7 4.8 1.4.5 1.6.4 2.9-1.6 2-3.4 2.5-4.2 3.4-6.4 1.4-3.2 1.4-3.2-.4-.2-1.6 2.7-3.4 5.2-3.7 5-.1-.1.2-.6.5-1.2.9-1.4 3.7-7 3.6-7.2-.1-.1-.6.6-1.1 1.4m36.7.5c-.5.2-1.1 1.5-1.1 2.4 0 2.2 3.5 2.7 4.4.6.8-1.9-1.3-3.7-3.3-3m-23.6 3.2c-.2.4-.6 1.4-.8 2.2-.6 2.1.1 1.7.8-.5.7-1.9.7-3 0-1.7m50.8.5c-1 .9-1.2 1.5-.7 2.5.8 1.6 2.4 1.8 3.6.6 2-2-.7-4.9-2.9-3.1m-49.1.5c0 .2-.1.7-.2.9-.1.5-.1.5.2 0 .2-.3.3-.7.2-.9-.2-.4-.2-.4-.2 0m1.8.7c-1.3 1.5-4 7-3.4 7 .6 0 4.3-6 4.3-7.1-.1-.5-.4-.5-.9.1m-5.2 4.9c-.5.7-.5 1.3-.2 1.3s1.1-1.1 1.1-1.5c.1-.6-.4-.5-.9.2m-178.2 3c0 7.9-4.8 17.8-11.9 24.7-3.1 3-4 4.5-1.9 2.8 4.1-3.1 7.7-6.9 9.8-10.5.5-.9 1.4-2.4 1.9-3.2 2.1-3.5 3.3-8.9 3-12.9-.3-3.5-.9-4.1-.9-.9"/></svg>