<?xml version="1.0" encoding="utf-8"?>
<!-- Generator: Adobe Illustrator 21.0.0, SVG Export Plug-In . SVG Version: 6.00 Build 0)  -->
<svg version="1.1" id="Layer_1" xmlns="http://www.w3.org/2000/svg" xmlns:xlink="http://www.w3.org/1999/xlink" x="0px" y="0px"
	 viewBox="0 0 480 480" style="enable-background:new 0 0 480 480;" xml:space="preserve">
<path d="M20.1,132.7C60.9,65.5,160.2,17.9,270.2,17.9C343.4,17.9,409,35,468.7,78l0.5,96.8c-80.9-61.7-181.9-90.7-278.9-53.7
	c17.8,19.4,28.8,45.4,28.8,73.8c0,60.3-48.9,109.2-109.2,109.2c-60.3,0-109.2-48.9-109.2-109.2C0.7,171.8,7.9,150.4,20.1,132.7
	L20.1,132.7z M109.6,216.1c12.4,0,22.4-10.1,22.4-22.5c0-12.4-10.1-22.5-22.4-22.5c-12.4,0-22.5,10.1-22.5,22.5
	C87.1,206,97.2,216.1,109.6,216.1L109.6,216.1z M370.4,263.9c-12.4,0-22.5,10.1-22.5,22.5c0,12.4,10,22.5,22.5,22.5
	c12.4,0,22.5-10,22.5-22.5C392.9,273.9,382.8,263.9,370.4,263.9z M459.9,347.3c-40.8,67.2-140.1,114.8-250.1,114.8
	C136.6,462.1,71,445,11.3,402l-0.5-96.8c80.9,61.7,181.9,90.7,278.9,53.7c-17.8-19.4-28.8-45.4-28.8-73.8
	c0-60.3,48.9-109.2,109.2-109.2s109.2,48.9,109.2,109.2C479.3,308.2,472.1,329.6,459.9,347.3L459.9,347.3z"/>
</svg>
