<svg xmlns="http://www.w3.org/2000/svg" viewBox="0 0 410 410"><path d="M103.5 31.7c-2.9 1.1-6.2 4.7-8 8.6-.9 1.8-.8 8.4 0 10.2 1.8 3.9 4.6 5.4 10 5.3 4.6-.1 5.1.1 8.1 2.6 2.9 2.4 3.3 2.8 3.5 2.6.3-.3-.8-1.9-2.8-4-3.4-3.6-3.7-4.6-2.1-6.5 1.6-1.8 4-.9 8.9 3.2 2.7 2.3 3.7 2.1 1.9-.2-3.2-4.2-4.2-6.1-4.6-8.6-.3-2.4-.7-3.3-1.2-3.3-.6 0-1.2-.9-1.3-1.9-.1-1.8-1.8-2.6-2.1-1.1-.1.5-.3 1.4-.6 1.9l-.4.9h-2.4c-2.9 0-2.8 0-2.2-2.3 1.2-4.3 1.3-6.5.1-7.2-.7-.6-3.5-.7-4.8-.2m2.4 11.1c.4 2.2-1.3 4-3.6 3.7-2.4-.4-1.6-3.8 1-4.3 2.2-.4 2.4-.4 2.6.6m5 1.2c1.6.2 1.6.4-.8 2.8l-2 2 .1-1.1c.1-.6.2-1.7.3-2.5.2-1.5.2-1.5 2.4-1.2m14.3 13.3c0 1.1 2.9 4.7 7.3 9.4 1.5 1.6 4.2 4.6 6 6.7 3.8 4.5 6.4 7.2 6.7 7.1.1-.1.6.3 1.1.9 1.2 1.3 4.2 4.1 3.6 3.3-1-1.3-6.9-7.5-9.3-10-1.4-1.3-3-3.2-3.6-4-.7-.9-3-3.7-5.2-6.3-2.2-2.6-4.4-5.3-4.9-6.1-1-1.4-1.7-1.8-1.7-1m-5.3.9c-.3.6-.6 1-.7.8-.2-.4-.9-.4-.9 0 0 .2.4.8.8 1.4.4.6 1 1.6 1.2 2.2s.8 1.4 1.3 1.9 1.2 1.4 1.6 2.1c.4.7 1.2 1.8 1.7 2.5.6.7 1.4 2 1.9 3 .5 1.1 1.1 1.9 1.4 2.1.3.2 1.2 1.3 1.9 2.4 2.2 3.7 2.8 4.7 3.1 4.7.1 0 1 1.2 2 2.6 2.5 3.6 6.6 9 8 10.7 1.9 2.2 3.1 3.7 4.4 5.6 1.1 1.6 2.4 3.3 4.1 5.1l.7.7-1.3 3.8c-1.9 5.6-1.7 9.8.5 11.6.2.2.9 1 1.6 1.9 1.1 1.5 1.7 2 2 1.7.1-.1-.5-1.5-1.2-3.1-2.2-4.8-2-6.7 1-12.7.6-1.1 1.2-2.5 1.3-3.1.5-1.6 1.7-2.9 3.1-3.4 1.4-.5 1.5-.8.4-2.6-1-1.6-1-1.7.2-2.1.6-.2 1.6-.6 2.2-1 1.6-.8 1.5-.9 4.8.7 3.7 1.8 6.1 1.7 2.6 0-.6-.3-1.1-.7-1.2-.9-.3-.5-3.7-1.8-4.7-1.8-.7 0-2.1.7-4.1 2.1-.5.3-1.3.7-1.8.8-1 .2-2.1 1.5-4.1 4.8l-.3.5.2-.5c.6-1.6.7-3.9.3-4.4-.2-.3-.4-.7-.4-1 0-.8-.5-1-1-.5-.4.5-.5 1.3-.8 4.2-.3 3.4-.8 1.8-.6-2.3.4-9.2-1.6-10.8-3.1-2.4l-.2 1.1-.4-1.1c-.4-1.1-.4-6.7.1-8.6.2-.8.1-.9-.4-.9-.7 0-1.3 1.5-1.8 4.3l-.3 2-.3-1.1c-.8-2.8-1.2-6-.9-8 .3-1.8.1-2.6-.4-2.2-.5.3-.9 2.5-.9 4.9 0 2.8-.2 2.6-1.6-1.4-.8-2.2-.8-2.6-.8-5.2.1-2.1 0-2.8-.2-2.9-.6-.2-1.4 2.2-1.5 4.2 0 1-.1 1.8-.1 1.8-.6 0-2-5.4-2-8 0-4-1.3-3.5-1.4.5-.1 2.8-.2 2.8-1 0-.5-1.5-.6-2.4-.5-3.9.1-1.1 0-2-.1-2.1-.9-.6-1.7 1.5-1.5 4 .1 1.4.1 1.5-.2 1.1-.6-.8-1.7-4.7-1.9-6.6-.3-3-1-2.4-1 .8 0 3-.3 2.8-1.5-1-.6-1.8-.8-2.9-.7-3.6.1-.6 0-1.3-.1-1.5-.4-.6-1 .4-1.2 1.9-.1 1.1-.2 1.3-.4.9-.4-.7-1.2-4.6-1.2-5.6 0-2-1.1-1.2-1.1.9v1.3l-.6-1.3c-.4-.9-.6-1.8-.6-2.7-.1-1.5-.7-1.7-1.4-.1m139 4.4c-1.8.4-3 1.1-3.5 2-.3.4-.8 1.1-1.2 1.6-.7.8-.8 1.1-.6 2 .1.8 0 1.2-.4 1.8-.3.4-.5 1-.4 1.3.1.3 0 .7-.2.9-.2.2-.4.5-.4.7 0 .2-.2.8-.5 1.2-1.1 1.8-.4 3 .7 1.3.6-.9.8-1 1-.7.2.3.5.3 1.4.1.6-.2 2.5-.3 4.3-.3 3.9 0 4.4-.7 1.1-1.5-.6-.1-.7-.2-.3-.2.9 0 1-.5.2-.9-.5-.2-1.5-.2-2.6-.1-2.1.2-2.2-.1-.2-1.1 2.1-1 2-1.7-.1-.8-1 .4-1.2.2-.5-.4.4-.3 5.2-.4 7.9-.1l1.2.1-.6-.5c-.8-.7-2.2-1.1-4.4-1.1-1 0-1.8-.1-1.8-.3 0-.4-.6-.3-1.5.2-1.3.7-2.9.8-2.5.1.3-.6.9-.8 1.9-.8.4 0 1-.2 1.3-.6.5-.6 4.8-.7 6.3-.1.4.1.3 0-.3-.5-1.1-1-3.2-1.3-5.4-1-1 .2-1.8.2-1.9.2-.2-.2 1.6-.9 3-1.1 3.1-.4 4.1-1.1 2.5-1.5-1.1-.3-2-.3-3.5.1m65.5 6.7c-1.1.2-2.4 1.7-2.3 2.8.1 1.4 1.2 2 2.6 1.6 1.1-.3 1.2-.3 1.8.4.5.5.9.7 1.4.6.6-.1.8 0 .9.3.3 1 3.7 1.6 4.8.9.5-.3.8-.4 1.2-.1 1.1.6 3.4-.8 3.4-2 0-.8-1.1-1.7-1.9-1.7-.5 0-.7-.2-.9-.9-.7-2.3-5.7-1.9-5.9.5l-.1.8-.8-.7c-.4-.4-.8-.8-.8-1 .1-.9-1.9-1.7-3.4-1.5m-80.3 1.1c-5.4 1.7-10 6.2-13.3 12.8-1.4 2.7-1.3 3.1.1.9 1.2-2 3.8-4.8 4-4.4.1.2-.4 1.2-1 2.2-.7 1.1-1.5 3-1.9 4.2-.4 1.2-1.1 3.2-1.6 4.4-1 2.4-1.5 4.4-1.5 6.1 0 1.7.4 1.5.7-.3.5-3.6 3.4-10.1 5.8-12.8 3.1-3.4 5.3-7.6 4-7.6-.1 0-.6.8-1.1 1.7-1 2-2.6 4.2-3.7 5.5l-.8.9.9-1.6c.5-.9 1.3-2.2 1.9-2.9 1.2-1.6.7-2.6-.8-1.6s1.7-2.3 3.7-3.8c2.1-1.6 3.3-2.2 6.2-3.1 1-.3 1.8-.7 1.9-.8-.1-.3-2-.3-3.5.2m73.5 1.2c-1.1.8-1.3.9-2.1.6-2.2-.7-4 1.1-3.9 3.7.1 1.6.1 1.8-.6 2.5-.5.5-.7 1-.7 1.5 0 .4-.3 1.5-.7 2.3-.8 1.8-.7 4.9.2 6.5.3.5.4 1.1.3 1.4-.1.3 0 .9.2 1.4.3.7.3.9-.1 1.3-1.2 1.4-1.1 4.2.4 5.4.4.4.8.9.8 1.2 0 .8 1 2 1.7 2 1.4 0 2.1-2.5 1.1-4-.3-.5-.4-.9-.2-1.7.5-3.1.5-2.9-.3-3.6-.4-.4-1-1.1-1.2-1.7-.6-1.4-.5-1.4.1-.6.3.4.8.7 1.1.7.3 0 .6.2.7.4.7 1.9 3.5 1.3 3.9-.8.1-.6.5-1.5.9-2 .4-.7.6-1.3.5-1.7-.1-.5 0-.8.4-.9.5-.2.5-.2.5.9 0 1.4.8 2.6 1.8 2.6.7 0 .7 0-.2.6-1.6 1.1-1.7 3.3-.2 4.3.7.4 1.7 0 2.1-.9.2-.5.5-.8.7-.7.6.2 2-.4 2.4-1.2 1.3-2.6.6-4.9-1.5-4.7-1.2.1-1.2.1-.5-.8.3-.4.5-.9.5-1.2 0-.4.1-.5.5-.3.8.3 1.6-.3 1.6-1.2 0-1.1.3-1 .8.3.8 2 2.5 2 3.6-.1.2-.5.8-1.3 1.3-1.9 2.4-2.6-.4-4.9-3.3-2.7-.9.7-1.5.6-1.3-.2.9-2.8-5.2-2-6.7.9-.3.6-.6.7-1.2.7-.4 0-1 .1-1.3.3-.4.2-.6.1-.9-.3-1-1.1-2.4-.9-4 .5-.6.5-.7.6-.6.2.1-.3.2-.9.2-1.4 0-.7.2-.9.7-1.2.4-.2.7-.6.8-1 .3-1.4.9-1.8 1.5-1 1.4 1.7 4.5-.3 4.5-2.9-.2-2.3-2.2-3-4.3-1.5m-87.9 1l-1.2 1.1 1.1-.8c1-.7 1.6-1.3 1.4-1.3 0-.1-.6.4-1.3 1m43.8-1c.1.1 1.2.7 2.5 1.5s3 1.8 3.7 2.3c.7.5 1.3.9 1.4.8.4-.4-6.2-4.7-7.2-4.7-.3 0-.5.1-.4.1M231.1 73c-3.3 3-6.5 9.7-6.8 14.6l-.1 1.9.9-3.3c1.6-6.1 3.3-9.4 6.4-12.7 1.8-2 1.6-2.3-.4-.5m38.2-.4c.1.1.7.4 1.4.7 7.1 2.7 12.7 8.3 14.9 14.8.3.8.5 1.4.6 1.3.2-.2-1.4-4.7-2.4-6.2-1.5-2.6-6.6-7.5-9.2-8.8-2.5-1.5-5.7-2.5-5.3-1.8m10.9 2.1c2.4 2.3 3.5 3.8 5.8 8 2.7 4.9 3.4 5.2 1 .5-2.3-4.6-4.6-7.6-7.3-9.5-1.7-1.2-1.6-1 .5 1m-47-.3c-3.6 3.4-7.9 10.1-7.7 11.9.1.4.3-.1.8-1.4.4-1.1.9-2 1.1-2.1.2-.1.9-1.1 1.7-2.3.7-1.2 2.3-3.3 3.5-4.7 2.5-2.7 2.7-3.4.6-1.4m2.4.3c-1.8 1.2-6.1 8.1-5.4 8.7.1.1.4-.3 2.4-3.6.5-.8 1.1-1.8 1.3-2.3.3-.5 1.1-1.5 1.9-2.2 1.5-1.6 1.4-1.7-.2-.6m128.8.1c-1.2.3-10.6.6-14.5.5-2.6-.1-5.9.7-8.4 1.9-2.1 1-5.4 6.6-3.9 6.6.5 0 .1.8-1 2.1-1.7 1.9-.9 3.5 1.3 2.6 1.9-.7 7.9-2 8.1-1.7.1.2.7.2 1.9-.2 5.8-1.5 14.4-2.7 19.1-2.6 2.2.1 2.2 0 2.1-.6-.1-.6-.2-.6-2-.7-1 0-3-.1-4.4-.2-1.7-.1-3.9 0-6.9.4-2.4.3-4.4.5-4.5.5-.2-.2 5-1.3 8.4-1.8 2.8-.4 3.6-.6 3.7-.9.3-1.3-8.8-.4-15.4 1.6-2.5.7-5.9 1.4-5.9 1.1 0-.7 6.7-2.5 11.1-3.1 8.1-1 11.7-1.6 12-2 .4-.6-1-.8-4.1-.5-5.1.4-3.8-.2 2.1-1.1 4.4-.6 5.4-.7 7-.1 1.2.4 1.3.4 1.7 0 .6-.6.2-1.9-.7-2-1.6-.1-5.7-.1-6.8.2m-139 2.3c-5.1 5.5-7 16.3-4.3 24.5.9 2.8 1.4 5.7 1.4 8.7v2.1l.2-1.6c.3-2.2-.2-7-1-9.7-1.3-4.7-.8-9.8 1.4-14.8 1.5-3.4 1.1-3.9-.8-1-.5.8-.7 1-.6.5.3-1.1 3-6.4 4.1-8 2.4-3.1 2.1-3.4-.4-.7m39.5-1.8c0 .1.5.4 1.1.8.6.4 1.8 1.4 2.8 2.2 2.1 1.8 2.3 1.6.3-.3-1.8-1.7-4.2-3.3-4.2-2.7m-8.9 1.4c-.2.6.4 1.2 1.4 1.3 3.6.7 5.2 5.4 3.8 11-.5 1.8-.7 3.7-.8 5.5-.1 1.5 0 2.3 0 1.8.3-2.3.7-4.3 1.5-6.8 2-6.3.4-11.9-3.7-12.9-1.6-.4-2.1-.3-2.2.1m18.3 2.1c.2.3.9 1.5 1.5 2.7.6 1.2 1.2 2.1 1.2 2 0-.5-1.9-4.1-2.5-4.6-.5-.4-.5-.4-.2-.1M240 80.3c-.2.8-1 3.1-1.6 4.9-1.3 3.9-1 4 .8.3 1.8-3.6 2.5-6.8 1.6-6.8-.2 0-.5.6-.8 1.6m12.9 0c0 .1.2.8.4 1.4.2.6.5 1.8.6 2.6.2 1.9.7 1.8.7-.2 0-1-.2-1.9-.6-2.8-.5-1.1-1.1-1.6-1.1-1m16.4 2.5c1.2 1.2 2.5 2.6 2.8 3l.6.8-.5-.9c-.6-1.1-4.4-5.1-4.8-5.1-.2 0 .7 1 1.9 2.2m56.8-1.5c-.5.2-.9.6-1 .9-.2.5-1 .5-.9.1 0-.3 1.7-1.4 2.3-1.4.3 0 .2.1-.4.4m-74.3 1.9c-.1.1 0 .6.1 1.3.3 1.1.1 4.1-.2 5.6-.2 1 .3.7.9-.5.7-2 .1-7.4-.8-6.4m61.3 2.1c-.4.4-.4.4-.4-.3 0-1.3.3-1.8.6-.9.2.6.1.9-.2 1.2M265 87.4c-.4 2.7-1.8 7.4-2.2 7.2-.4-.3.1-4.7.8-6.3.1-.4.1-.5-.1-.3-1.7 1-2.3 9.2-.9 13.1.8 2.4-.4 1.5-2.1-1.6-.9-1.7-1.9-7.1-1.4-7.9.3-.5.7-4.2.5-5.2-.3-2-1.1-1.6-1.5.8-.9 5.6-2.5 8.3-6.5 11.4-1.5 1.1-2.7 2.3-3.3 3.1-.5.7-1 1.4-1.2 1.6-.2.1-.6.5-.9.8-.8.7-1.1 1.9-.6 2.2 1.7 1.1 5.5 1.9 8.1 1.6 3.2-.2 3.4-.5 1.9-2.3-1.7-2.1.4-1.4 2.3.7 1.2 1.4 1.5 1.2 1.5-1.2 0-2.5 1.1-3.4 1.1-1 0 .9.9 3.1 1.2 3.1.2 0 .8-.7 1.5-1.6.6-.9 2.5-2.9 4.1-4.5 1.6-1.6 3.5-3.6 4.2-4.5.7-.8 1.6-1.5 1.8-1.5.9 0 1.2-.7.7-1.9-.8-1.7-1.2-1.9-.9-.4.5 2.8-.5 2.8-1.2 0-.4-1.6-1.9-5-2.2-5-.1 0 0 .4.1.9.3 1.1.3 5.2 0 5.4-.1.1-.3-.3-.4-.9-.5-3.4-2.3-7.8-3.4-8.1-.7-.2-.7-.1-1 2.3m-10.1-1.1c-.1.2-.3 1.2-.5 2.2-.8 3.7-2.2 6.3-4.8 9.2-.8.8-.8.9-.1.5 2.6-1.6 5.4-6.7 5.7-10.5.2-1.6 0-2.3-.3-1.4m-28.8 1.4c-.2.7-.5 2-.6 2.9-.1 1.5-.1 1.5.4-.7.3-1.3.6-2.6.7-2.9.4-1.1 0-.5-.5.7m103-.7c-.9 1-.2 3 1 3 .9 0 1.2-.5 1.2-1.7 0-1.8-1.2-2.5-2.2-1.3m-82.3 3.5c-.9 2.1-2.8 4.7-6.1 8.2-2 2.1-3.3 3.8-4.2 5.4-1.8 3.3-1.4 3.6.5.4 1.1-1.9 2.4-3.6 4.5-5.8 3.1-3.3 5.3-6.4 5.8-8.1.5-1.6.2-1.7-.5-.1m108.1-.7c-1.2.9.5 24.7 2.1 29.6.4 1 .7 2.4.8 3.1.4 2.7 1 3.9 1.6 3.4.6-.5.1-8.3-1.1-15.8-.9-5.5-.9-5.6-1.2-10.4-.5-9.3-.8-10.9-2.2-9.9m29 1.3c.1 1.9.5 2.4 2.7 3.6 2.2 1.2 6 3.6 8 5.3.8.6 2 1.5 2.7 1.9 1.5.9 2.4 2.1 1.8 2.3-.2.1-.7.5-1.1.9l-.7.7-2.6-1.2c-2.5-1.2-2.7-1.2-5.5-1.3l-2.9-.1v.9c0 .6.1.9.6 1 .4.1.4.2.2.3-.6.4 1.2 1.5 4.1 2.6l2.9 1.1 1.4-.5c1.4-.5 1.5-.5 1.8 0 .5.7.3 3.5-.3 4.1-.3.3-.4.6-.3.8.1.2.1.3-.3.1-2.4-1-7.8-.1-8.4 1.4-.8 2.1-.1 2.9 2.4 2.6 1.2-.1 2.4 0 3.6.2 1.6.4 1.9.4 2.5 0 1.4-.9 1.5-.2.3 1.4-.7.9-1.1 1.1-1.9 1.3-3.6.5-4.1 1.1-3.5 4.1.3 1.5 3.2 1.4 5.1-.1.3-.2.3-.2.2 0-.3.4.6 1.7 1.3 1.7.5 0 .5-.2.3-2.2-.2-2.2-.2-2.2.8-3.8l1-1.6-.5-2.3c-.5-2.2-.5-2.4-.1-3.3.3-.7.5-1.8.5-3.5 0-1.8.2-2.8.5-3.4.5-.9.6-3 .3-4.6-.6-2.9-13.3-11.7-16.8-11.7-.1-.1-.1.5-.1 1.3m-150.1.6c-2.5 3.4-5.1 12.7-3.8 13.5.1.1.2-.3.1-.9-.3-2.2 1.6-8 3.9-11.9 1.1-1.8.9-2.2-.2-.7m112-.4c-.5.3-1 .5-1.2.4-1.1-.4-1.4.9-.8 3.7.2 1.1.8 4.4 1.2 7.4.4 3 1.1 6.9 1.6 8.6.4 1.7 1.3 5.8 1.9 9.1.6 3.3 1.3 6.5 1.5 7.1.2.7.4 1.6.4 2.2 0 1.7.8 2.3 2 1.8.6-.2 1.2-.5 1.5-.6.6-.2.6-.8.1-3.2-.5-2.3-2.2-13.3-2.4-15.6-.3-2.8-.9-6.6-1.5-8.8-.3-1.1-.6-3.6-.8-5.6-.4-4.5-.9-6.3-1.8-6.7-.9-.4-.7-.5-1.7.2m-29 1.2c-1.2 1.1-1.9 3.6-1.3 5.1.4 1 2.5 1.5 3.3.8.3-.3.5-.3.5-.1 0 .2-.1.3-.2.3-.5 0-.6 1.1-.2 1.7.5.8 1.3.8 1.8.1.2-.3.7-.7 1-.9.7-.3 1-1.7.5-2.5-.4-.7-1.5-1-2-.5-.6.5-.8.1-.4-1 .9-3.2-.9-4.9-3-3m48.5.3c-.6.9-.6 9.6-.1 16.5.2 2.1.5 6.1.7 8.9.6 7.9.9 9.9 1.6 9.9 1 0 1.1-3.7.4-11.7-.3-3.7-.7-10.6-.9-15.2-.5-9.1-.6-10.1-1.7-8.4m-83.2 2.5c-.7 8.9.7 15.1 4.5 19.7 1.9 2.3 2.7 3.6 3.3 5.5.6 1.8.9 2 .9.6 0-1.6-1.2-3.9-3-6.1-4.3-5.1-5.1-7.5-5.1-16.5-.1-6.2-.3-7.3-.6-3.2m53.9-1.9c-.3.1-.7.2-.8.1-.2-.1-.7.1-1.3.3-1.3.5-1.3 1.6-.1 5.1.5 1.4 1.5 4.7 2.3 7.3.8 2.6 1.9 6 2.5 7.6.6 1.6 1.5 4.4 1.9 6.1.9 3.7 4 13.4 4.3 13.8.3.3 1.1.1 1.4-.4.4-.6-.6-6.6-1.7-10.4-.4-1.4-.9-3.3-1.1-4.2-.2-.8-.6-3.2-1.1-5.1-.4-2-1-5.6-1.3-8.1-1.1-10.2-2.3-13.2-5-12.1m-43.1.5c0 .2.8 1.1 1.8 2.1s2.1 2.5 2.4 3.3c.8 1.7 1.3 1.9.8.3-.7-2.1-5-7.1-5-5.7m35.2 3.7c-.3.2-.7.3-.8.2-1.4-.9-1.3 1.5.3 6.3.7 2.2 1.4 4.5 1.5 5a632.97 632.97 0 0 0 8.4 26.6c.3.8 1.2.8 2.6.1 1.9-1 1.9-1.5.4-6.4-.5-1.5-1.1-3.8-1.3-4.9-.5-2.4-6.4-20.2-7.6-23.1-.4-1-.8-2-.8-2.2 0-1.2-1.7-2.3-2.7-1.6m-118 .8c-.6.3-3.8 2.3-7.1 4.6-8.5 5.8-14.1 9.5-17.3 11.4-1.5.9-3.5 2.2-4.3 2.8-.8.6-2.7 1.9-4.1 3-1.5 1-4.1 3.1-5.9 4.7-1.8 1.6-3.7 3.2-4.4 3.6-.7.4-3.1 2.3-5.3 4.1-11.2 9.2-15.8 13.1-20.5 17.5-5.4 5.1-8.2 7.6-10.3 9.3-1.8 1.5-2.2 2.5-1.8 4.3.6 2.8 2.7 6.5 3.8 6.5.9 0 .8-.5-.4-3-2.3-4.5-2.1-5 2.1-7.7 1.1-.7 3.2-2.2 4.6-3.5 3.6-3 5.5-4.5 9.3-7.1 6.3-4.4 13.3-9.5 16.1-11.7 2.6-2.1 8.2-5.9 12.7-8.7 2-1.2 5.4-4.2 12.3-10.6 6.1-5.7 9.5-8.4 14.6-11.7 6.6-4.2 8.5-5.7 7.4-6-.2-.1-.2-.3.3-.7 1.1-1.3 0-1.9-1.8-1.1m15.5.3c-.1.1-.2.9-.3 1.7-.1.8-.3 1.7-.4 2-.2.4-.2 1.5.2 4 .7 4.9.5 5.7-1.7 10.5-2.4 5.1-3.1 7.5-2.9 10 .2 3.1 1.6 7.9 2.2 7.3.1-.1-.2-1.2-.5-2.6-1.3-5.3-1.2-6.9.9-11.3 1.3-2.8 1.7-3.2 1-1-.3.8-.4 1.4-.3 1.5.2.2 1.4-3.5 2.1-6.4.6-2.3.5-6.9-.2-10.2-.1-.5-.1-.7.1-.5.3.3 1 3.2 1.4 5.7.3 2.2.1 14-.2 15.8-.3 1.5.2 1.4.7-.1.6-1.8.5-11.2-.1-15.5-.2-1.2-.5-3.8-.6-5.7-.6-5.2-.8-6.1-1.4-5.2m61.1.6c.1.3.3 1.1.4 1.6.3 1.2.9 2.5 1.3 2.7.2.1.1-.3-.2-.9-.2-.6-.6-1.6-.7-2.4-.1-.8-.4-1.5-.7-1.5-.2 0-.3.1-.1.5m27.5 2.5c-.6.6-.5 1.3.1 1.8.6.6 1.2.6 1.7 0 1.1-1.3-.7-3-1.8-1.8m-121.7 3.5c-12.3 6.9-15 7.9-19.5 7.3-3.2-.4-3.4.1-.4 1.2 3.8 1.3 7.7.1 15.1-4.7 8.1-5.2 9.5-6.1 9.5-6.3 0-.1.2-.2-4.7 2.5m76.4.6c-2.4 2.4-3.6 4-2.6 3.4.1-.1.3 0 .4.2.1.3.4.3 1.7 0 4.6-1 7.5-5.5 4.1-6.3-.7-.2-1.1.2-3.6 2.7m-107.8-.6c-1.8 1.4-2.1 2.2-1.4 3.3.3.4.5 1.3.5 2s.2 2.2.4 3.4c.4 2.6 0 5.9-.9 8.3-.9 2.3-.6 3.2.6 1.5 2.4-3.4 3.2-8 2.3-13-.5-2.6-.2-3.7.9-3.8 1.3-.1 1.5-.6.6-2.1-.7-1.1-1.1-1.1-3 .4m124.4-.7c0 1.4 1 3.4 3.4 7.1 3.8 5.7 4.9 6.4 1.4 1-.9-1.3-2.1-3.2-2.7-4.2-.6-1-1.4-2.4-1.7-3.1-.3-1.1-.4-1.3-.4-.8m-61.4-.1c-.1.1 0 1.1.1 2.2s.1 2.5 0 3.1c-.5 2.7-.6 5.2-.1 4.4.6-1.1 1-4.2.9-6.7-.3-2.2-.6-3.5-.9-3m15.5 2.5c-1.6 3.3-1.9 8.8-.7 11.2 1.5 2.8 2.6 7.9 2.4 10.6-.1.9-.2 2.3-.3 3.2-.2 2.2.3 1.8.8-.7.8-3.6.2-7.4-2.2-13.6-.5-1.4-.7-2.2-.6-3.2.1-1.2.1-1.3-.3-.8-1 1.3-.2-4.1 1-6.5.6-1.2 1-2.3.9-2.4.1.1-.4 1-1 2.2m53.3-2c0 .3 3.7 5.5 4.3 6.1.5.4 0-.3-1.9-3-1-1.3-1.9-2.7-2.1-2.9-.1-.2-.2-.3-.3-.2m22 .8c-2.2 1.5-1.6 4.9.8 4.9 2.3 0 3.2-4.1 1.1-5-.9-.4-1.2-.4-1.9.1m6.2 1.2c-1.4.8-1.4 3.3.1 4.1 1.1.6 1.7.5 2.6-.3 2.2-1.8-.2-5.2-2.7-3.8m-30.7 1.6c.3.5 1.3 2 2.3 3.4 2.6 3.6 3.5 5.3 3.6 6.9.1.8.3 1.3.4 1.2.8-.9-.4-3.6-3.7-8.4-2.5-3.6-3.5-4.8-2.6-3.1m-53 .2c-.2.3-.7 1.2-1.1 2.1-.4.9-1 2.1-1.3 2.7-1.2 2.2-.5 6 2.3 11.9 1.3 2.9 1.2 1.9-.3-2.5-1.5-4.3-2-7.6-1.4-8.8.2-.3.5-1.2.7-2 .2-.8.7-1.9 1.1-2.6.7-1.3.7-1.6 0-.8m-6.3 2.1c.3 1.7.8 2.1.6.6-.2-1.5-.3-1.8-.6-1.8-.1 0-.1.5 0 1.2m-65.8-.6c-.1.2-.2 1.5-.2 2.9 0 2.4-.7 5.8-1.6 7.9-1.2 3-5.9 7.1-14.9 13.2-4.3 2.9-6.2 4.5-6.2 5.2 0 .3-.5 1.1-1.3 1.7-1.4 1.3-1.6 2.5-1 5.8.5 2.8 1.2 2 1.1-1.3-.1-2.7-.2-2.6 2.6-4.7 1.1-.9 3-2.5 4.3-3.7 1.2-1.2 3.5-3 4.9-4 7.5-5.1 12-9.6 12.9-12.9.6-2.1 1.7-2.4 3.7-.7 2.1 1.8 2.6.5.8-2.2-.6-.9-1.7-2.9-2.5-4.4-1.2-2.4-1.8-3.2-2.4-3.2l-.2.4m161.4.6c-.4.4-.1 1.8 1.4 6.5.9 2.7 2.1 6.7 2.7 8.9 2 7.1 3.7 11.1 4.6 10.7.8-.3-1-6.6-5.1-18.2-2.9-8.1-3.1-8.4-3.6-7.9m-54.8 1.2c-1.1.3-2.2.6-2.5.8-.3.1-1.2.3-2 .3-1.8 0-1.8-.2 0 2.3 3.9 5.2 11.9 4.8 11.9-.6 0-3-2.8-4-7.4-2.8m-27.5.2c0 .3 1.4 1.5 2.5 2.1 1.9 1 8.4-.2 8.7-1.6.1-.4-.3-.5-5.1-.5-2.9 0-5.4-.1-5.6-.2-.3 0-.5 0-.5.2m16.6 2.5c.1.8.3 2.9.5 4.8.3 3.5.5 4 1.9 4.7 2.2 1.1 2-.3-.9-8.3-1.1-2.9-1.7-3.4-1.5-1.2m-31.3-.5c0 .1.2 1.3.4 2.7.7 4 .7 12.8-.1 15.4-.7 2.3-.6 2.8.2 1 1.9-4.3 2.1-11.5.5-16.3-.5-1.7-.9-2.9-1-2.8m28 1.5c-1.4 1.5-4.2 3.7-4.8 3.7-.2 0-.7.2-.9.4-.7.6-3.2.5-5.2-.1-.9-.3-1.7-.5-1.8-.5-.3 0 .1 1.1.6 1.6.4.3.8 1.1 1 1.7.6 2.1 1.5 3.3 3.1 4.1 2.9 1.3 4.1.8 6.7-2.9.7-1 1.3-1.7 1.3-1.7.4.4-1.6 4.2-3.4 6.5-1.1 1.4-1.3 2.1-.7 3.3.4.8 1.7 1.4 1.4.7-.2-.6 1-2.7 2.5-4.6 2.6-3.2 3.5-8 2.3-12.7-.3-1.1-.7-1-2.1.5m59.8-.4c-1 1.3-.3 3 1.3 3s2.2-2.1.9-3.2c-.9-.7-1.5-.6-2.2.2m-37.3 6.4c-1 2.4-5.5 8.1-6.4 8.1-.2 0-1.6.7-3.2 1.6-5.5 3.2-10.6 4.3-14.2 3.1-2.2-.8-1.2 2.2 1 3.1.7.3 6 1.3 6.1 1.2 0 0 .1-.6.1-1.2.1-1.3 0-1.3 3.5-2.3 1.3-.4 3-1.1 3.8-1.6.8-.5 1.5-.9 1.6-.9.3 0 .9 2.1.8 2.9-.3 1.8.4 1.2 3.5-3 1.7-2.3 3.3-6.5 3.8-10.2.4-2.5.4-2.6-.4-.8m-10.5-1c0 .3.9 1 1.5 1.2 1.8.6-2.1 5.5-5.5 6.8-.8.3-2.3 1.1-3.4 1.9-1.1.7-2.8 1.5-3.7 1.8-1.4.4-2.2.9-1.5.9l2 .2c1.9.2 2.1.1 4.9-1.6 1-.6 2.1-1 2.9-1.1 1.2-.2 1.6-.4 3.1-1.8 1-.9 2.7-2.4 3.9-3.3 2.9-2.2 3.9-4.1 1.9-3.6-1 .2-3.5-.3-4.9-1-1.2-.7-1.2-.7-1.2-.4m-74 3.4c-.3.2-.6.7-.6 1.1 0 .9 1.8 4.3 2.3 4.3.3 0 2.8-1 3-1.2.1-.1-1.9-2.8-3-4.2-.5-.5-.9-.5-1.7 0m94.6.9c0 .8.1 1.1.1.7.1-.4.1-1.1 0-1.5s-.1 0-.1.8m5.8 1.5c0 .1.4.8.8 1.5.9 1.4 1.4 3.6 1.2 5.1-.1.7-.1 1 .2 1 .6 0 .2-4.2-.5-5.7-.7-1.2-1.7-2.4-1.7-1.9m62.5.6c-.6 1.1.2 3.6 1 3.1.3-.2.4-2.5.1-3.2-.2-.5-.8-.5-1.1.1m-168.9 1c-6.4 3.6-17.1 13.1-17.4 15.4-.3 2.7 1.1 3.2 2.6.9 2.6-3.9 12.7-11.5 16.2-12.3 1.5-.3 4-1.3 4-1.6 0-.3-1.2-2.8-1.5-3.2-.7-.7-1.7-.5-3.9.8m114.2-.1c-1.9.8-.3 1.3 2.5.8 1.4-.3 1.9-.2 2.9.1 1.6.5 1.6.1.1-.6-1.2-.6-4.4-.8-5.5-.3m-16.9 1.2c-.1.1 0 .7.2 1.4.5 1.5.6 4.4.3 6.3-.3 1.9.5 1.1.9-.9.5-2.5-.6-7.6-1.4-6.8m19.7.2c-.3.7.3 1.1 2.3 1.4 1.1.2 2.8.7 3.7 1 .9.4 1.9.8 2.1.9.3.1.2 0-.1-.4-.7-.8-4.3-2.6-5.7-2.8-.7-.1-1.4-.2-1.6-.3-.3-.1-.6 0-.7.2m-104.6 2.6c-1.2.7-2.9 1.6-3.8 1.9-4.1 1.4-13 6.1-14.6 7.7-6.2 6.1-9.3 12.5-7.3 14.8.9 1 1.3 2 1.5 3.3.1 1-.3 1.2-.6.3-.2-.6-2.7-3.1-3.1-3.1-.9 0-1.4 1.4-1.4 3.6 0 2.9-.3 3.8-1.2 3.6-.5-.1-.6-.2-.5-.7.2-.8-.7-3.6-1.2-3.6-.3 0-.3.4-.2 1.9.2 2-.1 2.5-.7 1l-.3-.9-.3.7c-.2.4-.2 1.7-.1 3.1.2 2.8-.1 3.3-.7 1.1-.4-1.8-1.4-3.8-2-4-1.1-.4-2.4 1.2-1.5 1.9.3.2.7.9 1 1.6l.5 1.2-1.2-1.1c-1.4-1.2-1.6-1.3-2.4-.7-.3.2-1 .6-1.7.8-.6.2-1.8.9-2.7 1.5-.8.6-2.2 1.5-3 2a7.6 7.6 0 0 0-3.8 6.2c-.1 1 .1 1.1 1.1.4.9-.6.9 0-.2 1.3-1.6 2.1-2.2 4.4-1.5 6.8.4 1.5.6 1.5 1.3 0 .5-1.1 2.4-3.2 3.4-3.8.5-.3 0 .6-1.4 2.3-.9 1.2-1.6 2.9-2.1 5.1-.5 2.4-2.2 3.7-4.5 3.5-1.2-.1-1.2.4-.2 1.2.6.4 1.1.5 2.1.5.8 0 1.8-.1 2.3-.1.5 0 1-.1 1.1-.2.1-.1 1-.7 2-1.3 1.5-.9 2-1.4 2.5-2.4 2-4 3.1-5 11.1-9.1 5.9-3 5.9-3.1 4.8-2.8-2.3.5-4.9 1.4-8 2.8-1.9.8-3.8 1.6-4.1 1.7l-.7.2.7-.6c2.8-2.4 8.5-4.5 22.4-8.1 5.4-1.4 6.8-2 9.1-3.8 2.6-2 2.5-2-.7-.5-3.3 1.5-9.4 3.3-11.2 3.3-.9 0 .6-.7 3.4-1.6 1.9-.6 5.2-1.9 7.2-2.8l3.7-1.7 2.3.2c2.7.2 4.6.9 5.8 2.1.9 1 .8 1-1.4.1-1.9-.8-2.9-.7-4.9.1-2.9 1.3-2.7 1.9.3 1.2l2.1-.5 1.8.7c3.8 1.5 5.9 3.4 7.4 6.9.9 2.1 3.6 9.3 3.6 9.7 0 0 .1.1.3.1.4 0 .1-5.9-.4-7.9-1-3.5-2.9-7.2-4.9-9.4-1-1.1-1.8-2.1-1.8-2.1.2-.2 4 1.2 4.7 1.8.4.3 1 .5 1.3.5.6 0 3.2 3.2 4.8 5.9 1.3 2.2 2.6 5.9 2.9 8.7.2 1.4.4 2.8.6 3.2.2.4.4 1.7.5 2.9l.2 2.1v-3.1c.1-4.9-1.2-10.3-3.6-15.6-1.6-3.4-.6-3.3 1.4.2.4.7.8 1.2.9 1.1.4-.3 2.2 2.9 3.2 5.9l.8 2.1-.1-2.9c-.1-2.6-.2-3.3-1.2-6.1-1.5-4.2-1.5-4.3-1.1-4 .6.4 2.7 5.2 3.3 7.7l.6 2.5v-2.8c0-3.4-.3-4.7-2.2-8.8-2.9-6-2.5-12.7 1-16.5.5-.6.5-.6 0-.6-.7 0-2 1.4-2.7 2.8-1.3 2.8-2.2-.6-2.3-9.2 0-3-.2-5.4-.4-5.7-.4-.7-.7 5.2-.4 9.6.1 1.9.1 3.5 0 3.5-.4 0-1-4.3-1.3-10.5-.2-4.6-.6-6.2-.9-4.5-.4 2-.7 4.4-.7 5.8 0 1.3-.1 1.5-.3 1.1-.2-.3-.3-1.9-.2-4.9.2-7-1.5-6.9-2.8.2l-.4 2v-2.3c0-2.1.1-3.2.6-4.7.3-1.1-.6-1-1.9.2-2.4 2.1-2.8 2-.9-.2 1.6-1.9 2.5-3.2 2.4-3.4-.2-.2-2.1.9-2.8 1.6-.4.4-.9.7-1.2.7s-1.1.6-1.8 1.3c-.7.7-1.5 1.3-1.7 1.3s-1.1.5-1.9 1c-2.1 1.4-2 1.4-2.4 1.1-.2-.1.5-.8 2.1-2.1 2.8-2.1 6-5.1 5.7-5.3-.1-.1-.6.2-1 .6-2.8 2.7-7 5.2-11.6 7-4.3 1.7-4.5 1.4-.3-.7 4.4-2.2 6.8-3.8 9.9-6.5 1.8-1.3 1.3-1.2-1.3.4m104.6.2c-.2.5.1.8 2.9 2.6 1 .7 2.4 1.8 3.1 2.4 1.5 1.4 1.9 1.3 1-.4-1.6-2.9-6.4-6.2-7-4.6m4.7 1.1c.1.5.4.8 2 1.4 1.8.6 2.5 1.1 4.5 2.5 1.1.8.7-.3-.5-1.6-1.7-2-6.2-3.6-6-2.3m-8.7.2c-.8.2-.6 1.3.4 1.7.5.2 1.2.6 1.6 1 .8.7 1.3.6 1.3-.4 0-1.1-2-2.6-3.3-2.3m54.5 1.6c-2.9.2-10.5 1.6-13.6 2.4-2 .5-4.4 1-5.4 1.2-3.6.4-4.3 1.2-4 4.1.4 4.3 1.5 5 6.1 3.7 1.9-.5 5.2-1.4 7.4-2s4.2-1.3 4.5-1.5c.8-.7 1.1-.8 5.4-1.4 4.5-.6 5.6-.9 5.1-1.4-.6-.6-7-.4-10.4.4-2.6.6-5.4.9-5 .6.1-.1 1.4-.4 2.9-.7 2.9-.6 5.2-1.7 5.5-2.7.2-.7 4.7-1.2 4.6-.5 0 .2.4.4 1.5.4l1.5.1v-1c-.1-1.2-2.7-2-6.1-1.7m-49.4 3.2c-.4.4-.1 1.1 1.2 2.9 4.2 5.6 5 5.8 1.9.5-1.9-3.5-2.5-4.1-3.1-3.4m-21.7 2.4c-.1.6-.2 1.3-.3 1.6-.2.8.4.8.7 0 .5-1.4.6-2.6.2-2.6-.2 0-.4.4-.6 1m34.9-.7c.1.4 1.3.6 1.3.2 0-.3-.6-.6-1.1-.6-.2.1-.3.2-.2.4m-4.8.4c-.2.5.9 1.7 1.4 1.7.5 0 .4-.6-.2-1.4-.6-.8-.9-.9-1.2-.3M188.9 144c-3 4.3-3.1 5.6-.2 3 2-1.8 5.2-4.1 5.3-3.7.1.2.3.1.7-.2.4-.2.6-.3.6-.2s-.4.5-.9.7c-2.6 1.5-7 6.6-7.8 9-.4 1.2-1.3 2.8-3.2 5.4-.4.6-1.7 1.1-2 .8-.1-.1.1-.5.4-.9 1.1-1.4 1.7-3 2.6-6.5 1.3-4.8 4-9.4 5.7-9.6.2.1-.4 1.1-1.2 2.2m17.5 3.7c.6.6.7.6.5.2-.4-1-.5-4.3-.2-4.8.2-.4.3-.3.3.7 0 1.6.7 4.1 1.5 5.5 2.5 4.4 1.2 8.4-3.4 10.6-1.4.7-2.6 1.4-2.8 1.6-.2.2-.5.4-.7.4-.6 0-3.1.8-3.5 1.2-.3.2 0 .4 1.2.6 1.6.4 3.3 1.3 2.9 1.7-.1.1-1 0-2-.2-3-.6-4.7-.5-6.7.5-4.3 2.3-13.3 4.4-13.3 3.1 0-.1.3-.3.7-.3 1.5 0 6-1.4 9.6-2.9 2-.9 3.9-1.7 4.2-1.8 1.3-.5-.7-.4-3.6.3-6 1.3-10.2 1.4-12.7.2-1.1-.5-1-.7.7-1.3 3.6-1.2 9-7.2 10.4-11.5 1.3-3.9 6.4-7.8 11.1-8.5.3 0 .8-.3 1.1-.5 1.3-1.1 1.4-.3.1.9l-1 1 .7.2c.8.2 2.3-1 2.7-2 .5-1.5 1.1-.6 1.2 1.8.2 2.4.3 2.7 1 3.3m114.9-5.2c-.2.3 1.4 1.8 1.9 1.8.7 0 .6-.6-.1-1.3-.8-.8-1.5-1-1.8-.5m65.1.8c-.1.2-1 1.8-2 3.7l-1.7 3.4-.8-.3c-.4-.2-1.1-.4-1.5-.6-1.6-.8-2.8-.3-3.3 1.6-.2.8-1.2 4-2.1 7.2-2.5 8.2-2.4 7.4-.2 9.6 1.9 1.8 2.1 1.9 7.4 3.5.9.3 2.2-4.6 3.9-15.1 2.1-12.7 2.2-13.3.8-13.3-.2 0-.4.1-.5.3m-72.3.3c-.2.6 1.7 3.4 2.3 3.4.5 0 .5-.1.4-.9-.4-1.9-2.2-3.6-2.7-2.5m-146.5 1.1l-.6.6 1 1.6c.5.9 1 1.7 1 1.8s.6.9 1.2 1.8l1.2 1.6.8-1.3c.7-1.2.7-1.3.4-1.9-.2-.3-.8-1.2-1.2-2-1.9-3.1-2.6-3.5-3.8-2.2m140.9 0c-.6 1.4 4.1 7.6 5.8 7.6.4 0 .3-.3-1-1.6-.7-.8-1.8-2.4-2.5-3.8-1.2-2.4-1.9-3.1-2.3-2.2m-123.4.9c-.2.4-.6 1.2-1 1.8-1.2 1.9-1.4 2.2-1 2.7.6 1-4.1 8.7-4.7 7.8-1.2-1.5.8-5.9 5.2-11.3 1.4-1.8 2.1-2.2 1.5-1m133.3 0c-.6.6 1.5 3.8 4.4 6.7 2.1 2.1 3 1.7 1.1-.5-.5-.6-1.6-2.1-2.3-3.2-1.9-3-2.6-3.6-3.2-3m7.1 1.8c.3.4.7.6.8.5.2-.2-.8-1.2-1.1-1.2-.2 0-.1.3.3.7m-115.3 2.1c3.8 5.1 2.3 10.3-3.6 12.5-.6.2-.4-.1.9-1.3 4.2-3.9 4.8-7 2.1-11.1-1.1-1.7-.6-1.8.6-.1m104.7-.2c-.1.2-.1.6.1.8 2.3 3 5.3 6.5 5.5 6.3.4-.4-1.3-3.3-2.8-4.8-.9-.9-1.5-1.7-1.5-2.1-.1-.8-1.1-.9-1.3-.2m10 0c0 .6 1.8 1.4 2.2 1 .2-.2 0-.4-.8-.9-1.3-.6-1.4-.6-1.4-.1m-5.5 1.9c-.1.2-.1.5.1.6.1.1.9.7 1.8 1.3 1.9 1.5 2.1 1.4.8-.3-1.5-2.1-2.3-2.6-2.7-1.6m-8.5 1.2c-.3.7 1.6 5.1 2.6 6.3.7.7 1.4.8 1.2.1-1.6-5.1-3.2-7.9-3.8-6.4m-115.6.2c-1.4.5-2 2.5-1.2 3.7 1.2 1.7 4.4-.2 4.4-2.6 0-1-1.8-1.6-3.2-1.1m131.9.5c-.4.4-.1.7 1 1.1 1.4.6 2.9.7 2.3.1-.5-.4-3.1-1.5-3.3-1.2m31.9 0c-.7.5 0 .7 2.3.9 1.3.1 2.7.2 3.2.3 1.1.2 1.2-.2.1-.6-2.1-.8-4.8-1.1-5.6-.6m-2.8 1.5c-.4.2-1 .5-1.2.8-.3.3-.6.4-1.4.3-1-.2-1.1-.1-.9.5.3.8.6 1.1 1.3.9.3-.1.7-.1 1-.1s.8-.3 1.1-.7c.4-.4 1.1-.8 2-.9 1.6-.3 1.7-.4 1.5-.8-.2-.5-2.5-.5-3.4 0m-14.2.1l-3.1.7c-1.9.4-2.3.6-2.3 1 0 .6 1.4.7 3.5.2 4.9-1.3 6.8-1.4 8.4-.6 1.4.7 1.6.5.4-.4-1.3-1-4.7-1.5-6.9-.9m-10.4.6c.1.4 1.7 1.2 2.4 1.3.7 0 .3-.4-.9-1.1s-1.7-.6-1.5-.2m-8.3.8c.6.5 2 1.8 3.2 3 4.1 3.9 4.9 3.8 1.8-.3-2.3-3-2.7-3.3-3.3-2.8-.2.2-.4.2-.5.1-.1-.1-.6-.3-1.2-.5l-1-.3 1 .8m-8.7-.1c-.2.6 1.3 2.9 2.8 4.2.9.8 1 1 .6 1.3-.3.3-.3.5-.1 1.1.2.4.5 1.8.7 3.1.4 2.3.8 3.4 1.3 3.8.4.3.8 0 .6-.5-.1-.2-.3-1.7-.4-3.2-.1-1.5-.4-3-.5-3.4-.2-.6-.2-.7.3-.8.5-.1.5-.2-.6-1.3-.6-.7-1.7-2-2.3-3-1.3-1.8-2.1-2.2-2.4-1.3m-18.8.1c-.2.2-.3.5-.3.8 0 .3-.1.5-.3.5-.2 0-.2.3-.2.6.2 1.3 2.4.6 2.4-.8 0-.8-.4-1.4-.9-1.4-.2 0-.5.1-.7.3m26.4-.1c0 .1.4.7 1 1.3l.9 1.1-.8-1.3c-.9-1.3-1.1-1.5-1.1-1.1m-1.4.5c0 .6 3.1 4.1 4.1 4.7.3.2-.2-.5-1.1-1.4-.9-.9-1.9-2.1-2.3-2.6-.3-.6-.6-.9-.7-.7m42.4.3c-1.1.3-.3.6 1.4.6 1.4 0 1.9-.1 1.8-.3-.1-.4-2.3-.6-3.2-.3m-21.2.3c-.4.1-1.5.2-2.4.2-2.7.1-3.1 1.3-.6 2 1.4.4 2.2.3 2-.2-.2-.4 2.7-1 5.3-1 1.5 0 2-.1 2-.3-.3-.7-4.2-1.2-6.3-.7m-81.9 1.4c-.8 1.1-.8 1.8.1 2 1.2.3 2.1-1 1.7-2.2-.3-.9-1.1-.8-1.8.2m38.1.1c-1.1 1.2-.6 3.1.8 3.1.6 0 1.6-1.1 1.6-1.8 0-1.8-1.3-2.5-2.4-1.3m63-.3c-.5.5-.4.7.6.7.8 0 1.5-.4 1.5-.9-.1-.3-1.8-.2-2.1.2m-4.7.4c-.4.6.8 1.4 1.4 1 .6-.4.6-.5.1-.8-.5-.5-1.3-.5-1.5-.2m-35.8.2c-.4.4 0 1.1 1.8 3 3.1 3.2 5 3.7 2.5.7-.8-.9-1.8-2.2-2.3-2.8-.8-1-1.5-1.3-2-.9m-39.7.5c-.7.7-.5 1.9.2 2.3 1.2.6 2.7-1 2-2.2-.3-.6-1.6-.7-2.2-.1m66.6.8c-.1.1-.7.2-1.2.3-1.8.3-1.3 1.3.6 1.1.8-.1 2.8-.2 4.4-.3 2.6-.2 2.8-.2 2.5-.6-.5-.5-5.5-.8-6.3-.5m-14.4.4c-.6 1 4.3 4.3 7 4.7 1.7.3 1.5-.3-.3-1-.9-.3-1.8-.8-1.9-1-1-1.3-4.4-3.2-4.8-2.7m-108.1 1.3c0 1.5 1 2.9 4.8 6.8 2.1 2.1 4.1 4.3 4.6 5 1 1.5.9.5-.3-2-1-2.1-1.9-3.1-4.2-4.7a10.9 10.9 0 0 1-4.2-4.6c-.7-1.4-.7-1.4-.7-.5m67.6-.6c-.3.3-.2 2.4.1 2.6 1.1.7 2.4-1.2 1.7-2.3-.3-.4-1.4-.7-1.8-.3m12.4.9c-.3.6-1.1 1.6-1.9 2.2-1.5 1.3-1.6 1.7-.8 3.3 1.7 3.3-2.1 10.1-5.6 10.1-.6 0-.6.2.1.9 1.4 1.5 1.9 7.6.8 9.9-2.3 4.8-5.5 7.1-11.4 8.3-4.2.8-5.1 1.2-7 3-1.3 1.2-1.7 1.4-3.2 1.7-1 .2-2.8.6-4 1-1.2.4-2.8.8-3.4.9-1.6.4-1.6 1.2 0 1.6.9.2 1.6.2 3.6-.1 1.4-.2 3.9-.5 5.6-.6 3.2-.2 4.9-.9 4.9-2.1 0-1.7 2.7-2.4 4.3-1.3.5.4 2 1.2 3.4 1.9l2.5 1.2 3.6-.3c3.9-.3 4.8-.2 9.2.9 11 2.8 15.7.2 19.4-10.6 1.7-4.8 1-6.5-6-14.3-7.1-7.9-10.5-12.6-11.9-16.2-1.1-2.7-1.4-2.9-2.2-1.4m51.1-.6c-.3.7.2.9 2 .8 2.1-.1 2.4-.6.5-.9-.8-.1-1.6-.2-1.8-.3-.3 0-.6.1-.7.4m-172 1.2c-1.8 1.2-1.6 1.3 2.3.6 2.6-.5 3.6-.9 1.9-.9-.5 0-1.4-.2-1.9-.4-.7-.4-.8-.3-2.3.7m157.8-.9c-.1.1.2.4.6.5.8.3 2 0 2.2-.5.1-.3-2.5-.4-2.8 0m-81.4.4c-.5.6-.2 1.8.6 2.3 1.4.8 2.3-.6 1.4-2-.5-.7-1.5-.9-2-.3m-5.3.6c-.3.8.7 2.4 1.6 2.5 1.3.2 2-1.1 1.2-2.2-.5-.7-2.5-.9-2.8-.3m97 .6c0 1.2.7 1.4 5 1.5 2.1 0 4.2.2 4.5.3.9.3.6-.4-.5-1.1-.7-.4-1.4-.5-3.4-.5-2.1 0-2.5-.1-2.7-.5-.5-.9-2.9-.6-2.9.3m-23.7.1c0 .2.3.4.7.5.4.1.7.1.7.1s-.3-.3-.7-.5c-.6-.4-.7-.4-.7-.1m-49.8.5c-.7.7-.2 2.3.8 2.3.4 0 1.3-.9 1.3-1.4-.1-.7-1.6-1.4-2.1-.9m70.7.1c-.2.6 0 .9 1.6 1.6.8.4 2.4 1.3 3.6 2.2 3.3 2.2 3.7 2 1-.5-2.8-2.8-5.8-4.4-6.2-3.3m-27.2.3c-.7.7 1.8 3.7 4.1 4.9 1.7.9 1.9.5.4-.8-.7-.6-1.8-1.8-2.5-2.7-1-1.5-1.5-1.8-2-1.4m5.6.9c-.8 1.3 3.8 4.5 6.9 5 1.6.2 1.5.1-1-1.4-1.2-.7-2.9-1.9-3.8-2.6-1.5-1.3-1.8-1.5-2.1-1m-104.1.7c0 1.1 1.3 3 3.8 5.7 3.4 3.6 5.2 7.6 5.2 11.8 0 1.7.4 2 .6.5.8-5.1-1.2-11-4.8-13.7-1.3-1-2.8-2.5-4.2-4.3l-.7-.9.1.9m36.2.4c-.8.8-.1 2.4 1.2 2.4 1.5 0 1.8-1.2.6-2.2-1-.9-1.1-.9-1.8-.2m30.4-.2c-.4.5-.3 1.5.3 1.8.7.4 1.8-.2 1.8-1 .1-1.1-1.3-1.6-2.1-.8m51.4.2c-.1.1.1.3.3.4 1.2.4 1.7.7 1.7 1 0 .3.3.4 1.6.4 2.6 0 2.3-.5-1-1.6-1.7-.6-2.4-.6-2.6-.2m-20 .7c-.3.3-.2 1.2.4 2.4.4.7.8 1.9 1 2.6.6 1.9 1.3 3.3 2.3 4.2 1.2 1.1 1.3.7.3-1-.5-.8-1-2.3-1.3-3.7-.5-3.5-1.7-5.5-2.7-4.5m45.2 2.4c-2.7 2.9-2.7 2.7-1.9 4.3 1.1 2.5 5.2 5.8 9.9 8.1 2.6 1.2 3.6 1.4 1.6.2-1.7-.9-1.6-1.3 0-.7 1.4.5 5.4 1.5 6.3 1.5.4 0-.3-.2-1.5-.5-2.6-.6-6.5-2.6-8.1-4-1.2-1.1-1.1-1.1.3-.2 1.5 1.1 8 3 9.8 2.9.2 0-.3-.2-1.3-.4-1.7-.4-5.3-1.9-5-2.1.1-.1 1 .1 2 .4 1 .3 1.9.5 2 .5s-.9-.5-2.3-1.2c-2.7-1.3-4.3-2.4-2.4-1.6 1.7.7 2.2.7 1.1.1-1.3-.7-2.9-1.9-2.7-2 .1-.1 1 .3 2.1.8 2.1.9 6.3 2.4 6.5 2.2.2-.2-1-.8-2.7-1.5-.9-.4-1.6-.8-1.7-1-.1-.2-.6-.6-1.2-.9-3-1.5-6.8-5.2-6.8-6.6 0-.5-.5-.8-1.1-.8-.3-.1-1.5 1.1-2.9 2.5m-29.9-2c1 1.2 2.9 2.1 3.7 1.8l.9-.3-.8-.6c-.5-.3-1.3-.7-1.9-.8-.6-.1-1.3-.2-1.6-.3-.6-.2-.6-.2-.3.2m-60.9 1.4c-.4.8 0 1.5.8 1.7.8.1 1.4-.4 1.4-1.1 0-1.4-1.6-1.8-2.2-.6m17.1.4c-.7.7-.8 1-.8 2.1 0 2.2 1.6 2.5 3.2.7 2.1-2.3-.2-5-2.4-2.8m4.7.3c.3 1.8-.9 3.9-2.2 3.9-.7 0-2.1 1.2-1.8 1.5.1.1.7.2 1.4.2 2.4.1 4.3-3.3 3.4-5.8-.5-1-1-.8-.8.2m30.9-.2c-.6.8 2.7 3.8 6 5.4 2.8 1.4 3.3 1.1.8-.5-1.1-.7-2.8-2.1-3.9-3.3-1.8-2-2.4-2.3-2.9-1.6m19.8.2c.1.1.4.3.7.3s.5-.1.4-.3c-.1-.1-.4-.3-.7-.3-.3 0-.5.1-.4.3m2.8 0c-.4.3-.2 1 .5 1.2.3.1 1.1.4 1.9.8 1 .4 1.5.6 1.7.4.7-.8-3.1-3-4.1-2.4m-88.8.6c0 .3.2.4.5.4.6-.1.5-.6-.1-.7-.2-.1-.4.1-.4.3m25.9.1c-.6.6-.7 1.1-.2 1.6.9.9 2.7-.3 2-1.4-.6-.7-1.2-.8-1.8-.2m-23 .6c0 .6.8 1.2 1.3.8.6-.4.2-1.2-.6-1.3-.5-.1-.7 0-.7.5m3.3.4c-1.2.5.6 2.4 2 2.2.6-.1.8-1.4.3-2-.3-.3-1.6-.4-2.3-.2m68 .3c-.2.6.4.9 1.8.9h1.2l-1-.7c-1.1-.7-1.7-.8-2-.2m-9.9.4c0 2.1 5.5 7.7 7.6 7.7.5 0 0-.8-1-1.4-1.7-1.1-2.8-2.4-4.1-4.7-1.2-2.2-2.5-3-2.5-1.6m16.9-.2c-.3.7.4 1.1 2.3 1.7 1 .3 2.8 1.2 4.1 2.1 3.2 2.1 3.5 1.5.6-1.2-2.6-2.3-6.6-3.8-7-2.6m-147.2.7c.1.1.7.4 1.5.7.7.2 1.6.7 2 1 .4.3 1.1.8 1.7 1.1 1 .6 1.6 1.2 4 4.2 1.3 1.7 1.4 1.4.2-.8-1.1-2-2.9-3.9-4.6-5-1.6-.9-5.2-1.9-4.8-1.2m-5.9.7c-3.6.8-3.2 1.4.8 1.3l3.3-.1 2.4 1c1.3.6 2.5 1.1 2.8 1.3.6.5 5.4 6.4 6.6 8.2 1.2 1.7 1.4 1.7.7 0-2.6-6.3-11.9-12.8-16.6-11.7m20.3 1c.6 1.5 2 6.3 2.5 9.1.4 2.1.4 5.3 0 7.4-.3 1.5-.2 1.9.5 5 2.2 8.7 2.2 13.2.1 17.8-1.4 3.1-.4 2.8 1.3-.5 2.1-4 2.5-8 1.4-14.2-.4-2.1-.7-4.2-.7-4.7.1-8-1.3-16.9-3-18.4-.3-.3-.9-1.1-1.4-1.8-1-1.6-1.5-1.6-.7.3m63.9-1.1c-.5.5-.4 1.5.2 1.8 1 .5 2.1-.6 1.6-1.6-.3-.6-1.3-.7-1.8-.2m85 0c0 .4 1.3 1.8 1.6 1.8.4 0 .2-1.3-.3-1.7-.5-.5-1.3-.6-1.3-.1m-20.9.4c.4.3 3.5 1.6 4 1.6.7 0 .4-.5-.8-1.2-1.1-.6-3.8-.9-3.2-.4m-52.6.5c-.8.6-.8 2.4-.1 2.8 1.7.9 3.5-1.3 2.2-2.7-.7-.6-1.3-.7-2.1-.1m-143 .4c-2 .6-2.4 1-4.1 4.1-1.7 3.1-1.7 4.3-.2 5.8.7.6 1.3 1 1.8 1 .8 0 1.5.4 3 1.5 1.3 1.1 1.4.9.3-1.4-.9-2-1-2.3-.4-2.3.2 0 .5.4.7.9.5 1.5.7 1.3.6-.6-.1-1.5-.1-1.9.4-2.2.5-.4.5-.4.5 1.1 0 1.6.9 4 1.4 4 .4 0 .4-.3-.1-1.6-.7-1.8-.5-3.5.4-5.3 2.3-4.2.4-6.4-4.3-5m210.1.2c0 .3.3.6.8.8.4.2 1.3.9 1.9 1.5 1.7 1.9 2.3 1.2.8-.9-1.2-1.7-3.5-2.6-3.5-1.4m-75.8.1c-.6.4-.8 1.3-.5 1.8.3.4 1.8.5 2.3 0 1.2-1-.6-2.7-1.8-1.8m-50.7 1.7c.1.8 0 1.1-.4 1.4-.5.4-.5.5-.2 1.6.3 1.2 1.1 5.3 1.1 5.8 0 .2-.2.3-.3.3-.3-.1-.4 1.3-.5 5.9-.2 6-.5 8.4-1.2 10-.2.5-.7 3-1.2 5.6-1.8 10.7-4.2 14.5-12.4 20a11.6 11.6 0 0 0-4 4.3c-1.2 2.5-.8 2.6 1 .2 1.1-1.4 2.1-2.4 2.8-2.8 1.5-.8 1.5-.7-.7 2-2 2.5-3.4 4.9-3.6 6.4-.1.9-.1.9.5-.3 1-2 2.6-3.9 8.1-9.8l1.1-1.2-.4 1.1c-2.2 5.2-2.5 6.1-2.8 8.1-.2 1.2-.4 2.6-.4 2.9-.1.7.2 1.6.5 1.1.1-.1.5-1.5.9-3 1.5-5.7 4.5-10.8 8.4-14.3 1.4-1.3 2.9-3 3.7-4.1.7-1.1 1.3-1.8 1.4-1.6.2.5-.4 1.8-1.5 3.4-1.1 1.7-1.4 3.2-.8 3.4.5.2.9-.2 2.1-2.5.5-.9 1-1.7 1.1-1.7.3 0-1 3.3-1.8 4.6-.9 1.5-3.7 6.9-3.3 6.5 3.9-3.9 8.2-13.2 7.1-15.6-.1-.3.1-.6.6-.9 2-1.3 2.7-3.9 2.8-10.1.1-5.5 0-5.3-1.4 1.7-.8 4.4-1.4 5.6-3 6.7-1.6 1.2-2 1.4-1.8 1.1.1-.1.4-2 .6-4.1.4-3.1.6-4.1 1.1-4.8 1.8-2.8 3.6-9.6 3.6-13.3 0-1.1-.1-1-.5.9-1.7 6.8-2.7 8.9-4.2 8.6-1-.2-.8-1.4.9-5.5 2.3-5.7 2.4-10.8.2-15-.7-1.3-.8-.9-.4 1.3.5 3.3.2 10.7-.3 9.1-.1-.2-.2-1.9-.3-3.8-.2-3.4-.6-6.6-1.4-9.2-.8-1.6-1.1-1.8-.8-.4m38 0c-.8.6-.7 1.5.2 1.7 1 .1 1.5-.6 1.1-1.4-.3-.8-.4-.9-1.3-.3m77.9.3c.3.1.7.1.9 0 .3-.1 0-.1-.5-.1s-.6 0-.4.1m-70.3.7c-1 1 0 2.8 1.3 2.2.8-.4 1.1-1.4.6-1.9-.6-.6-1.4-.7-1.9-.3m16.5-.1c-.1.1.6 1 1.5 1.8 3.4 3.3 3 9.5-.7 10.9-.8.3-1.2.6-1.1.8.1.2 0 .4-.1.5-1.2.7.5.8 1.9.1 3.9-2 5.2-9.1 2.2-12.4-1-1-3.4-2.2-3.7-1.7m-109.9 1.2c-1.6.5-3.8 1.5-5.2 2.3-1.4.8-4.3 2.3-6.4 3.4-4.6 2.3-8.4 4.7-9.4 6.1-.4.5-1.3 1.3-1.9 1.7-.7.4-1.4 1.1-1.6 1.6-.5 1-2 1.8-3.5 1.8-1.1 0-1.1 0-.9.9.5 2.6 6.3 3.2 6.3.6 0-1.8 1.9-4 5.2-6.1 1.7-1 3.1-1.9 3.2-1.9.1 0 1.3-.7 2.8-1.6 1.4-.9 4.1-2.4 5.9-3.5 3.4-2 4.5-2.8 4.5-3.3 0-.2.6-.5 1.3-.8 4.7-1.7 4.5-2.8-.3-1.2m159.9-.4c0 .6.3.9 1.9 1.5.7.3 2 .8 3 1.3 3.5 1.6 2-.5-1.6-2.2-2.4-1.3-3.3-1.4-3.3-.6m7.2-.2c0 .1.5.3 1.2.5 1 .3 1.7.2 1-.2-.3-.1-2.2-.4-2.2-.3m-108 .6c0 .3.3 1.7.7 3.1.4 1.4.7 3.2.8 4 .3 2.3.7.8.6-2-.1-2.5-.5-3.8-1.5-5-.5-.6-.6-.6-.6-.1m28.1.2a1 1 0 0 0 .1 1.5c.2.2.4.5.4.7 0 .5.8.7 1.4.4.6-.3.7-1.5.1-2.3-.5-.7-1.5-.8-2-.3m95.2 2.3c-13.4 14.7-16.5 30-8.6 41.7l1.1 1.6.8-.9c1.3-1.5 3.5-5 4.6-7.1 1.2-2.4 4.4-9.8 4.4-10.2 0-.1.3-.6.7-1 .4-.4.9-1 1.1-1.3.3-.5.3-.4.2.3-.2 1.5-3.3 13.3-4.1 15.6-.4 1.3-1 3.3-1.2 4.5-.2 1.2-.6 3-.8 3.8-.7 2.6-.8 5-.2 6.2.5 1.1 4 3.6 4.9 3.6 1.3 0 7-11.6 8.4-16.9 2.2-8.4 3.2-11.7 6.3-21.1 2.7-8.4 2.2-9.8-5.6-14.1-4.4-2.4-6.9-4.3-8-6.2-1-1.4-1.6-1.2-4 1.5m-81.8-1.4c-4.2 3.3-1.8 12.4 3.2 12.4 1.4 0 1.6-.4.5-.6-.8-.2-2.4-1.4-2.1-1.6.1-.1.9 0 1.7.2 4.7 1.2 8.4-2.4 7-6.8-.6-2-1.8-2.7-4.1-2.5-2.1.2-2.2.1-1.5-.7.7-.8-.5-.6-1.5.2-1.3 1.1-1.8 2.5-1.8 4.8 0 2.1-.3 2.4-.9 1.1-.9-1.7-.5-4.2 1-6.5.5-1-.3-1-1.5 0m56.7-.2c0 .5 1.9 1.8 5 3.4 1.6.8 2.7.9 1.6.2-.4-.2-1.8-1.3-3.1-2.3-2.5-1.9-3.5-2.2-3.5-1.3m14.4 1.9c0 .5 1.3 1 2.3.8.4-.1.3-.2-.4-.7-1.2-.8-1.9-.8-1.9-.1m-79.4.2c-.2.5.2 1.3.7 1.3.2 0 .4-.3.5-.9.1-1-.9-1.3-1.2-.4m-35.1 1c-.1 1.7-.1 11.4.1 11.6.3.4 1.4-4 1.5-6.2.1-2.1-.3-4.4-1.1-5.5l-.4-.5-.1.6m109.7.6c-.1.3 0 .6.5.9.4.2 1.3 1.1 2.2 1.8 2.4 2.2 2.4.7 0-1.8-1.3-1.4-2.3-1.7-2.7-.9m-163.4.4c-3.7 2.1-.6 7.9 4.2 7.9 1.6 0 1.9-.3 1-1.2-.8-.7-1.3-2.3-1.5-4.3-.2-2.8-1.4-3.6-3.7-2.4m214.8 0c0 .3.4 1 .9 1.6.5.6 1.3 1.8 1.8 2.7l.8 1.7-.8-.9c-1.6-1.7-2.3-.7-.8 1.2 1.5 1.8 2.8 6.5 2.2 7.9-.1.2 0 .4.1.4 1.1 0 1.5-6.6.5-9.4-1.1-3.6-4.7-7.5-4.7-5.2m-129.7-.2c-3.3.7-2.9 7.5.4 7.6 1.7 0 2-1.1.5-1.8l-.8-.4.7-.3c1.4-.6 1.6-2 .4-2.7-1-.5-.6-1.1.7-.9 1.2.2 1.6-.2.9-1-.7-.4-1.9-.7-2.8-.5m85.7.5c.5.7 1.1.9 1.1.4 0-.7-.4-1.1-1-1.1-.6.1-.6.1-.1.7m-129.9 2c-.1.4-.2 1.5-.3 2.5-.7 10-.7 10.5-1.4 12.6-.4 1.2-.9 3.5-1.1 5.1-.7 4.8-2.2 9.4-2.9 8.9-.2-.1-.2 0-.1.3.1.2.1.4 0 .4-.5-.1-.7.1-.4.3.3.2-.2.8-1.7 2.5-1.9 2.1-3.4 3.4-8.5 7.5-4.3 3.4-7.2 7.8-7.5 10.9l-.1 2 .6-1.7c1.5-3.8 4.2-6.9 9.4-10.8 8.6-6.3 10.8-9.1 11.9-14.8.3-1.6.6-3.3.8-3.8.1-.5.4-1.9.5-3.1.2-1.2.5-2.8.7-3.6.4-1.7.7-12.8.4-14.7-.1-1-.2-1-.3-.5m124.2 1.6c-.2.3.7 1.9 1.1 1.9.7 0 .2-1.7-.6-2-.2 0-.4 0-.5.1m-171.5.3c-3.7 1.1-2.8 6 1.4 7.9 3.6 1.6 6.7 1.2 3.8-.5-1.5-.9-2-1.7-2-3.3 0-2.7-.9-4.5-2.1-4.3-.2 0-.6.1-1.1.2m29 .3c0 .1.3 1 .8 2.1 1.1 2.8 2.4 7.6 2.7 10.2.1 1.2.6 4.2.9 6.5.5 3.2.6 4.7.5 6.1l-.2 1.9.7-.9c1.7-2.3 2.6-8.3 2-14.2-.2-1.8-.4-3.9-.4-4.6-.1-1.6-1.2-4.8-1.7-5-.3-.1-.3.1-.2.9.7 4 1 7.9.9 11-.1 4.3-.3 4.1-1.7-1.6-1.3-5.4-4.2-13.7-4.3-12.4m-37.5 4.8c-4.4 2.4-1.1 7.9 4.8 7.9 2 0 2.4-.4 1.4-1.4-1-.9-1.8-2.8-2-4.7-.4-2.4-1.8-3.1-4.2-1.8m-7.7 3.4c-3.5 1.6-1.4 7.7 3.1 9 2.1.6 4.6 0 3.3-.7-1.2-.7-2.6-3.5-2.6-5.4 0-2.9-1.4-3.9-3.8-2.9m82 .1c-.2.4-.3.8-.3 1 0 .8-1.9 6.3-2.6 7.4-1.1 1.7-2.6 4.9-2.4 5.1.1.1.5-.4.9-1.1.4-.7 1.5-2.4 2.4-3.7 2.5-3.7 3.5-7.1 2.6-8.8-.3-.6-.3-.6-.6.1m155.3.7c-.3 1.6.3 3.5 2.5 8 1.2 2.4 2.2 4.8 2.3 5.5.2 1.3.7 1.7.7.6.1-2-.3-3.4-2.6-8.1-.7-1.4-1.3-3.2-1.5-4.1-.5-2.8-.5-2.9-.9-2.9-.2 0-.4.4-.5 1m-158.9 3.3c-.6 1-1.6 3.6-1.4 3.8.4.4 2.3-2.8 2.3-4 0-.6-.4-.5-.9.2m-55.9 6.7c-.1.3-.4 1.4-.6 2.3-.4 1.9-.3 1.8-1.3 1.1-.6-.5-1-.5-2-.4-1 .1-1.2.1-1.4-.4-.6-1.7-3.9 2.5-3.9 5 0 .5.2.7.9.8 1.6.3 4.4 3.5 6.2 7.1 2.9 5.7 3.4 4 2.9-10.8-.1-5.1-.3-6.1-.8-4.7m89.1 1.4c-8.1 2.5-15.5 8.6-17.2 14-.8 2.7 0 3.1 5.3 2.6 3.2-.3 4.2-.2 8.1.5 4.9.9 10.2-.7 11.8-3.5 1.2-2 2.1-9.7 1.4-11.9-.5-1.7-2.4-2.7-3.3-1.8-.2.2-.6.2-1.3 0-1.3-.4-3.4-.4-4.8.1m127.7.2c0 .2.3 1.2.8 2.2.4 1 .9 2.6 1.1 3.5.5 2.3.7 2.6.9 1.1.2-1.5-.4-4.2-1.3-5.9-.6-1.1-1.5-1.7-1.5-.9m-295.9.2c-.6.1-2.9.3-5.2.4-5.5.2-6.6.5-8.5 2-3.1 2.5-4.5 3.5-7.8 5.4-1.8 1.1-3.6 2.2-4 2.5-.4.3-2.1 1.5-3.9 2.5s-3.8 2.3-4.5 2.8c-.7.5-1.8 1.1-2.3 1.3-1.4.6-1.9 1.5-1.8 3.7 0 2.4.4 3 .6 1 .3-2.7 1-3.5 5-5.8 3.5-2.1 11.3-5.9 13.6-6.8 5.5-2 7.3-2.5 7.6-2.2.5.5-5.7 5.5-13.9 11.2-3.7 2.6-4.6 3.5-5.5 5.4l-.5 1.1-.1-1.3c-.2-2.6 4.6-7.6 11.4-11.9 2.4-1.5-1.3.2-4.4 2-8 4.7-9.3 6.2-9.7 11.3-.2 2.2-.2 2.2 3.6 2.2 1.7 0 3.3.1 3.6.2.4.1.8 0 1.6-.8.6-.5 2.3-1.9 3.9-3 9.3-6.6 11.2-7.5 13.6-6.2 1.4.7 1.5.7 3.4-.8 2.2-1.7 3.5-2.3 5.7-2.5 1.7-.2 1.8-.2 2.1-1 1-2.5.7-8-.6-9.5l-.7-.8 2.8.2c1.5.1 3.2.2 3.7.3 1 .1 7.7 1.4 8 1.6.1.1 1.4.3 2.9.5 3.1.5 8 1.8 13.1 3.4 7.7 2.5 22.2 5.9 26.5 6.2 5.6.3 12.8 2.6 16.1 5.1 2.2 1.6 2.5 1.7 1.7.2-.3-.6-.7-1.5-.8-2.1-1.4-5.1-9.7-10.8-16.7-11.3-1.7-.1-3.3-.4-4.6-.9-3.1-1.1-6.8-1.4-16.6-1.6-9.5-.2-11.4-.3-15.5-1.3-1.4-.3-3.1-.7-3.7-.8-.7-.1-2.1-.4-3.2-.7-1.1-.3-3.4-.6-5.1-.7-1.7-.1-3.6-.3-4.3-.5-.9-.3-5-.3-6.6 0m293.8 1.3c0 1.4.5 3.2.8 3.2.2 0 .2.5.1 1.3-.3 2.2-.2 2.7.9 5.9 1.1 3.3 2.1 7.8 2.1 9.6 0 1.4.4 1.6.6.3.5-2.8-.1-6.5-1.5-10.7-.8-2.3-1-3.2-1-5.1 0-2.7-.3-3.8-.7-2.7-.2.6-.3.5-.5-.9-.2-1.9-.8-2.6-.8-.9m-108.6-.5c-1.2.4-2.9 5-2.9 7.9 0 1-.2 2.4-.4 3.2-.5 1.6-.2 3 .6 3.8 1 .9 8.6 1.9 11.8 1.6.8-.1 1.5 0 1.9.3.3.2 1.3.5 2.1.6 2.4.3 4.4.9 6.9 2 4.5 2 7.7.6 5.9-2.6-.7-1.4.9-6.4 3-8.9.7-.9 1.2-1.6 1.2-1.6-.5-.4-4.6-.9-7.4-.9-1.8 0-3.7-.1-4.2-.3-.5-.1-2.7-.7-5.1-1.4-3.4-.9-4.4-1.2-5.1-1.8-1.8-1.9-5.7-2.7-8.3-1.9m-72.4 4.6c-.6.8-1.4 1.9-2 2.3l-1 .9-5.2.5c-3.5.3-5.6.6-6.3 1-1.7.8-1.6 1 .5.8 5.8-.6 5.1 0-2.4 1.9-3.5.9-7.8 3.9-9.1 6.4-.6 1.3-.1 1.1 1.5-.5 2.4-2.4 6.3-4.4 4.2-2.2-1 1-2.2 2.6-5 6.1-1.1 1.4-2 3.5-2 4.6 0 1.5.4 1.4.9-.1.4-1.3 1.6-3.3 3.1-5.2 1-1.3.9-.3-.3 1.9-1.4 2.7-1.6 3.6-1.2 5.6.5 2.3.9 2.5 1.3.4 1.6-8.1 5.9-13.2 14-16.5 1.2-.5 2.3-1 2.4-1.2.1-.2.9-.7 1.7-1.2 2-1.2 4.1-3.3 5.2-5.2 1.3-1.9 1.1-2.2-.3-.3m179.8-.3c-.4 1.1-.5 2.3-.1 2.3s.7-.8.9-1.9c.1-1.3-.3-1.5-.8-.4m-1.5 2.2c-.2.2-.4 1.6-.6 3.2-.2 2.9-.4 3.9-.8 5-.2.5-.2 1.6 0 3.3.3 2.6.6 3.6 1 2.7.1-.2.3-.4.4-.3.1.1.2-1.5.2-3.5 0-2.9.1-4.1.6-5.9.6-2.5.7-3.7.3-3.7-.2 0-.4-.3-.5-.6-.2-.6-.3-.6-.6-.2m-277.5 1.1c-.7.7-1.7 1.5-2.2 1.9-1 .8-1.1 1.4-.4 1.9 1.2.7 2.2 2.7 2 4.1-.1 1 0 1.8.8 4.1 1.2 3.5 1.2 3.3-1.6 7.1-4.2 5.7-4.9 8.5-3 12.5 1.2 2.6 1.2 4.7.2 7.7l-.7 2 .6.8c.9 1.1 1.5.8 2.1-1 .2-.6.6-1.3 1-1.8.3-.4.6-1 .6-1.2 0-.2.2-.8.5-1.2s.5-1 .5-1.2c0-.2.2-.6.4-.9.5-.5.2-5.8-.4-8-.3-1.1.2-2.2 1.5-3.5l.9-.9v1.6c0 1.7 1 5.9 2.2 9.1.9 2.5.9 2.4-.4 6.3-1.8 5.8-1.9 8.9-.1 9.6 1.1.4 1.5-.3 1.7-3.4.1-1.5.5-3.4 1-5 1.1-3.3 1.2-6.7.4-9.4-.3-.9-.7-2.9-1-4.4l-.5-2.8.8-3.1.8-3.1-.8-3.3c-1.2-4.7-3.1-8.5-5.6-11.3-1.5-1.6-1-2 1.2-1 .9.4 2.3.9 3.2 1.2 2.2.8 6.2 4.7 8 7.8 2.1 3.8 3.3 3.3 1.4-.6-1.7-3.5-3.7-5.7-7.8-8.4-.7-.5-2.1-1.5-3-2.2-2-1.6-2.6-1.6-4.3 0m11.8 1.8c-2.2.8-2 2.5.3 1.9 1.6-.4 4.9 2.2 7.1 5.5 1.2 1.9 4.8 8.8 4.8 9.3 0 .2.3.5.6.8.3.3 1.1 1.3 1.6 2.4 1.8 3.4 1.7 1.3-.1-3.8-3-8.5-3.6-9.6-7-13.1-3.5-3.6-4.5-4-7.3-3m268.2 1.4c-1.1.4-1.8 7.8-.8 8.4.7.5 1.8 6.2 1.8 9.5 0 4.3 0 4.5.3 4.3 1.1-.7 1.1-7.4 0-12.1-.8-3.3-.9-4.4-.9-7v-3.1a.3.3 0 0 0-.4 0m-175.1 6.3c-1.6 2.5-2.2 3.4-2 3.5.1.1 3.5-4.7 3.8-5.3.3-1-.5-.2-1.8 1.8m-118.7-1.1c-2.5.5-5.8 3.8-5.4 5.5.4 1.7 1 2.1 2.7 1.7 2.1-.5 4.8-.5 5.9.1 1 .5 1.1.3.3-.5-.8-.7-1.6-1.1-2.3-1.1-1.1 0-2.1-.6-1.5-.8 1.7-.7 4.1-.2 5.6 1.1 1.1 1 1.2.7.4-.6-.8-1.2-2.5-2.4-3.8-2.5-1.7-.2-1.9-.3-1.5-.6 1.1-.7 4 .1 6.1 1.6 1 .7 1.1.7.7-.5-1.1-2.6-4.2-4-7.2-3.4m99 1.1c-2.3 1.7-3.6 3.4-4.8 6.4-1.8 4.5-1.9 6.8-.8 11.1.6 2.3 1.2 2.8.8.8-1.2-7.2 1.5-15.8 5.8-18.5.8-.5 1-.8.7-.7-.2 0-1 .4-1.7.9m-60.4.7c.1.5 0 .8-.1.8-.5 0-.3.5 1.1 2.5.8 1.1 2.3 3.3 3.5 4.9 3.8 5.4 6.6 8.2 6.3 6.2-.1-.4 0-.8.1-.8 1.2 0-3.9-8.8-6.8-12-1.9-1.9-4.4-2.9-4.1-1.6m146.4.6c-4.6.6-5 1-5.6 5.1-.9 6.2-.4 6.9 3.6 5.4 2.7-1 2.9-1.1 2.9-.6 0 .4-2.3 1.9-3.3 2.2-2.5.6-4.6 4.3-4.4 7.7.1 1.4 2.1 2.4 6.3 3.1 2.2.4 4.6 1.1 8.1 2.5 4.5 1.8 10.3 2 12.5.3.6-.5.9-4.9.4-6.9-.7-2.8-7.1-8-9.8-8-.8 0-1.5-.6-1.4-1.2.2-.5 3.3-.4 4.6.2.5.2 1.1.4 1.3.4.3 0 1.1.4 1.9.8s2.3 1.1 3.2 1.5c1 .4 2.3 1 3 1.4.7.4 1.6.8 2 .8h.8l-.1-2.9c-.1-2.9-.6-5-1.6-6.2-1.1-1.3-13.1-5.1-18.4-5.7-3-.2-3.2-.2-6 .1m-28.6.9c-2.6.5-8.8 3-8.8 3.7 0 .2-.3.5-.7.8-.9.7-2.8 5.1-2.1 4.9 5.4-1.7 15.6-3 16.8-2 .8.6 9.9.7 10.9 0 2.3-1.4 2.9-5.1 1-6-1.7-.9-14.2-1.9-17.1-1.4m129.8 1.1c0 .3.2 1.4.5 2.5.4 1.7.5 2.1.2 2.7-.3.5-.4 3.6-.2 7.5 0 .3-.2 1.2-.4 2-.5 1.7-.6 5.7-.1 7.8.2.8.4 2.6.5 4 .4 4.8.9 1.9.7-3.7-.2-5 0-5.4.7-1.5 1.1 6.4 1.1 6.9.4 9.1-1 3.2-.7 6.5.5 7.7.6.6.6.5.1-.8-.7-1.7-.5-4.6.5-7.3 1.2-3.2 1.8-6.3 1.7-9-.1-1.8 0-2.3.4-2.9 1.9-2.8 2.1-16.2.3-16.2-.2 0-.3 1.4-.4 5.6 0 5.9-.5 9.6-1.2 10.4-.3.3-.4 1-.4 2.5 0 2.3-.4 2.9-.7 1.1-.2-1.6-1.1-3.5-1.6-3.7-.6-.2-.5-1.5.4-3.9.8-2.1.9-3.1.1-2.8-.3.1-.4-.1-.4-1.5 0-.9-.1-2.2-.2-2.8-.2-.8-.1-1.1.1-1 1.1.4.9-2.7-.4-5.3-.3-1-1.1-1.3-1.1-.5m-229 .9c-.6.6-.4 1.5.5 2.2.9.7 2.9 3.7 3.9 6 1.3 2.9 3.5 13.3 3.1 14.1-.1.2-.2 1.8-.1 3.5.1 2.7-.1 6.1-.6 9.1-.3 1.5.6.2.9-1.4.2-.8.6-1.9.9-2.6.5-1.1.6-1.6.6-6.2v-4.9c.3.3.9 9 .8 11.3-.1 3.5.1 3.4.7-.2.5-3.1.5-9 0-11.8-.5-2.6-.5-3.3 0-1.7 1.3 3.9 1.5 7.3 1.1 15.3-.1 2.5-.1 3.9 0 3.9.7 0 2-10.3 1.8-14l-.1-2.1.5 2.3c.4 1.6.6 3.7.7 7.3.2 5.6.6 6.7 1.1 3 .6-4.2.2-10.4-.9-14.4-.2-.9-.4-1.7-.3-1.7.2-.2 1.6 4.2 2.2 7.1.4 2.1.7 2.8 1 2.8.7 0 .5-4.8-.4-8-1.9-7-3.6-12-4.7-13.3-2.4-3.1-11.3-6.9-12.7-5.6m-10.6.7c-.1.2.5 1.1 1.4 2.2.9 1 1.9 2.3 2.4 2.9.4.6 1.7 2.3 2.7 3.8 3.5 4.9 4.1 2.7.6-2.4l-.8-1.2.6-.1c.4-.1.6 0 .7.3.6 2.1 6.4 5.5 6.2 3.7-.1-.7-3.5-5.4-4.4-6-.9-.6-4.1-1.1-4.5-.7-.2.2-.7-.1-2-1.3-1.7-1.6-2.6-2-2.9-1.2m54.4 2.7c-2.3 3.6-2.9 6.8-2 11 .6 3.1.9 2.7 1-1.5.1-3.7.5-6.3 1.5-8.3 1.4-2.9 1.3-2.7.9-2.7-.2 0-.9.7-1.4 1.5m179.7-.1c-1 1-1.4 3.8-1.5 9.2-.1 6.9.7 6.4 1.2-.7.1-2 .5-4.4.7-5.5.8-3.9.8-4.3-.4-3m-324.5.4c-2.7 1.7-1.5 7.1 1.7 7.1 1.8 0 3.8-2.6 3.5-4.7-.4-2.4-3.2-3.7-5.2-2.4m40.2.2c-1.3.7-1.9 2.1-2.2 5-.1 1.6-.4 3.1-.9 4.4-1.8 5 .7 9.6 5.1 9.3l1.1-.1.2-1.4c.1-.8.6-2.4 1.3-3.7.9-1.9 1.1-2.5 1.1-4 0-1 .2-2 .4-2.3.2-.3.4-1.1.5-1.7.1-.6.4-2 .6-3l.4-2-.6-.5c-.9-.6-5.6-.7-7 0m287.6.4c-.4 1.1-.2 2.9.2 2.9s.9-2.4.6-2.9c-.3-.4-.7-.4-.8 0m-170.1 1.6c-.4.8-.9 2.3-1.1 3.3-.2 1-.7 2.8-.9 3.9-.3 1.3-.9 2.7-1.6 3.8-1.3 2.1-1.3 2.6.1 2.2 1.7-.6 2.3-2 3.1-7.4.3-1.9.7-4.1.9-4.9.6-2.2.3-2.7-.5-.9m-146.7-.2c-1.4.4-3.4 2.5-3.4 3.6 0 1 1.7 1.7 2 .8.2-.6 1.8-1 3.5-.9 1.3.1 1.5 0 1.5-.4-.1-.7.3-.6 1.9.3 2.1 1.2 2.4 1 1.4-1-.4-.8-.8-1.2-1.9-1.7-1.1-.5-4-1.2-4.1-1.1.1.1-.3.2-.9.4m139.7 1.8c-.1.5-.5 2.2-.8 3.9-.8 3.8-.9 8.2 0 7 .5-.8 1.3-6.7 1.2-9.7-.1-2.2-.1-2.5-.4-1.2m43.6.9c-1.2.2-2.8.6-3.4.9-.6.3-1.4.5-1.7.5-2.3 0-7.1 5.7-7.3 8.8-.1.7-.3 1.9-.5 2.7-.6 1.7-1.1 1.6 5.5 1.8 6.8.2 7.1.2 9.2-1.4 2.5-1.9 9.1-5.1 12.3-5.9 2.5-.6 3-.7 5.1-.2 3.4.7 3.8-4.1.4-5.8-2.5-1.2-15.4-2.1-19.6-1.4m-124.4 1.2c-.2.3.3 2.4.6 2.4.2 0 5.6 4.4 6 5 .1.2 1.3 1 2.5 1.9 1.2.8 3.5 2.5 5.1 3.6 2.8 2 8.3 5.3 9 5.3.6 0 .1-.5-2.1-1.8-1.2-.7-3.1-2.1-4.3-3.1-1.2-1-3.7-3-5.6-4.5-3.6-2.8-6.4-5.2-6.2-5.4.2-.2 16.3 7.9 20.1 10.2 7.2 4.1 9.8 5 9.9 3.1 0-.2.1-1.2.2-2.2.4-4.6-.7-5.5-9.4-7.1-4.4-.8-5.3-1.1-8.7-2.5-2.6-1.1-6.6-2.4-9.6-3.1-1-.2-2.4-.8-3.3-1.2-1.5-.9-3.9-1.2-4.2-.6m-59.5.4c-1.6.7-2.2 2.2-1.2 2.9.3.2.7.1 1.6-.6 1.2-.9 3.1-1.1 4.9-.4.5.2.6.1.6-.3.1-1.6-3.7-2.6-5.9-1.6m323.3 2c-.3 1.2-.2 2.1.2 2.1.5 0 .8-.7.4-1.1-.1-.2-.3-.6-.4-1l-.1-.7-.1.7m-206.8.3c-1.6 2-1.1 4.1 1.2 5.4l1.1.7-.1 1.8c-.1 1-.2 2.8-.3 4-.1 1.2-.4 3.4-.7 4.9-.7 3.3-.7 5.2-.1 5.5.3.1.4.4.3 1.5-.2 1.4.1 1.7.8.6 1.4-2.1 2.5-18 1.4-19.6-.6-.8.1-2.4.9-2.2.4.1.4.1.2-.3-.8-1.8-4-3.2-4.7-2.3m-114.7.6c-1 .4-1.3 1.3-1.6 4.8l-.2 2.4-.3-1.7c-.3-1.7-.7-2.4-1.1-2.1-.6.6.5 8.4 1.4 10.3.8 1.6 1.2 1.7 2.8.7l1.1-.7.6.6c.3.4 1.9 1.5 3.5 2.5s3.3 2.2 3.8 2.6c2.2 1.9 1.8.5-.6-2.1-2.7-2.9-4-5.3-3.8-6.8.1-.7.1-1.2-.2-1.6-.3-.4-.4-1.3-.4-2.7 0-5.4-1.8-7.6-5-6.2m314.6 1.6c-.3.9-1.7 3.8-2.9 6.5a58.9 58.9 0 0 0-2.7 6.1c-.2.7-.5 1.6-.8 2-2.2 3.2-3 15.7-1 15.7.3 0 .3-1 .4-4.5 0-5.4.7-9.2 1.5-8.4.4.4.5.2.6-1.9.1-2.3.1-2.3 3-8.2 2.5-5.1 2.9-6.1 3-7.5.1-2-.3-2-1.1.2m-321.4 1.6c-.9 3.1.5 12.6 1.8 12.1.8-.3.8-1 .3-3.8-.2-1.5-.5-3.6-.6-4.8-.2-3.4-.3-3.9-.9-3.9-.3 0-.6.2-.6.4m323.2 4.2c.1.6.1 1.2 0 1.4-.1.2-.2 1.3-.2 2.5s-.2 3.1-.5 4.3c-1 4.2-.4 11.2 1 12 .2.1.2 0 .1-.3-.9-2.2-.8-6.6.1-11.9.7-3.8.7-8 .1-8.6-.7-.7-.8-.6-.6.6m-117.5-.2c-9.8 1.1-15.5 7-14.8 15.4.2 2.4.4 3 .8 2.7.2-.1.2-.8.1-1.8-.4-4.1 1-8.3 3.7-10.7 3.3-3 5.1-3.7 11.8-4.8 1.5-.2 3-.5 3.5-.7l.8-.2h-.8c-.4 0-1-.1-1.3-.1s-2.1 0-3.8.2m.1 2.7c-5.5 1-7.4 1.8-9.6 4.1-3.9 4.2-4.1 11.8-.3 15.9 2.5 2.7 13.7 5.8 16.1 4.4.4-.2-.2-.3-2.5-.3-5.4 0-10.9-2.4-12.4-5.4-.6-1.2-.4-1.2.7.2 2.9 3.3 11.9 4.9 20.4 3.5 1.3-.2 3-.4 3.7-.4 3.4 0 6-6.3 4.5-10.8l-.5-1.6v1.7c-.1 3.9-1.9 8.3-3.8 9.4-.6.3-.6.2.5-1.3 3.7-5 1.8-15-3.3-16.9-.7-.3-1.8-.7-2.5-.9-5.3-2-15 .6-19.1 5-1.6 1.7-1.7 1.8-1 .2 1.5-2.9 5.3-5.3 10.4-6.6 4.4-1.1 4-1.1-1.3-.2m-88.4.5c0 .2-.1.7-.3.9-.3.4-.2.6.1 1 .5.6.6 2 .2 2.8-.5.9-.1 2.1.8 2.3.4.1 1 .4 1.3.7 1 .9 1.4.2 1.9-2.8.4-3 .4-3-1.4-3.4-1-.3-1.3-.5-1.5-1-.2-.8-1.1-1.2-1.1-.5m104.8 1.3c0 .2.4.8 1 1.3 1.3 1.2 3.7 4.8 5.3 7.8 1.6 3 1.8 2 .3-1.2-2.1-4.2-6.6-9.7-6.6-7.9m-8.7 1c2.4.5 5 2.1 7.6 4.6l1.6 1.5.2 2c.2 2.5.3 2.4-2.9 4.6-3.2 2.1-4 2.8-4.8 4.3-.9 1.6-2.3.9-3.3-1.6-.4-1.1-.8-.8-1.9 1.4-.7 1.3-1 1.8-1 1.4 0-.4-.5-1.1-1.1-1.7-.6-.6-1.1-1.2-1.1-1.4 0-.8-1.8-2.6-3.5-3.6-8.2-4.8-.4-13.7 10.2-11.5m105.3 2.9c-.9 2-.7 9.1.1 8.2.3-.3.7-9.2.4-9.2l-.5 1m-110.7-.3c-5.1 1.4-6.9 5.9-2.9 7.4.7.3 1.8.8 2.3 1.2 1.3.9 1.1 1 1.9-.3.9-1.3 1-1.3 2.5.1 1.6 1.5 2 1.5 3.8 0 1.7-1.4 3.1-3.7 2.8-4.7-.6-2.9-6.1-4.9-10.4-3.7M89.8 261c-1.2.5-2.6 2.6-1.9 3 .1.1.8-.1 1.4-.5l1.2-.6 2.5.6c3.4.9 4 .6 2.6-1.1a5.26 5.26 0 0 0-5.8-1.4m104.8 1.5c-.5 1.7-1 4.3-.9 4.6.2.5 1.1.4 1.3-.2.2-.6.4-.7.8-.3 1.1 1.1 7.8 3.2 9.4 3.1 1.6-.2 1.7-.2 1.5.4-.1.5-.1.5.8.4a2 2 0 0 1 1.4.2c.6.5 1 0 .9-1-.1-.8-1-1.3-1-.5 0 .3-.2.4-.7.4h-.7l.7-.8c1.3-1.5.6-3.6-1.2-3.8-1.9-.1-2.9.4-2.9 1.6v.6l-1-.5c-.6-.3-2-.8-3.3-1.2-3.4-1.1-3.7-1.3-3.7-2.4-.1-1.5-1-1.9-1.4-.6m80.7 0c.7.7.7 1.5-.1 2.5-1.2 1.5-2.6 1.7-3.8.3l-.6-.7.6-1c1-1.7 2.8-2.2 3.9-1.1m5.5.4c.8.6.9.8.6 1.4-1 2.5-4 2.5-4-.1.1-1.9 1.8-2.6 3.4-1.3m-32.7 0c-3.7.6-5.4 1.1-7.5 2.2-1.2.6-2 1.1-1.8 1 3.8-1.1 5.4-1.5 6.8-1.6l1.7-.1-3.1 1.1c-5.6 2-8 3-8 3.4 0 .3.2.3.7.2 2.1-.5 2.6.1.8.9-1.5.8-1.4 1.2.1.7 3.6-1.1 4.9-.6 1.6.5-2.4.9-2.4.8-2 1.3.3.3.9.2 3.8-.6 3.2-.9 6.5-1.6 8.2-1.6 1.1 0 .6.2-2.9 1.2-4.3 1.2-7.6 2.4-7.2 2.6.3.2 1.1.1 3.1-.5 5.6-1.7 8.1-2.2 10.1-2.4 3.1-.3 3.2-.3 2.6-4.2-.6-3.9-.6-4-4-4-1.1-.2-2.6-.2-3-.1m14.7 2.8c0 2.9 1.5 5.8 3.8 7.5 1.3 1 1.5 1.3.7 1.3-2.7 0-6.3-7-5.2-10 .4-.9.7-.4.7 1.2m-156.1 2.1c-.9.1-2.3.2-3.2.2-4 .1-8.2 2.2-8.5 4.3-1.7 10.9-.9 24.8 1.8 33.3.5 1.6 1.2 4 1.4 5.4.3 1.4.7 3.4 1 4.5.8 3.7.5 9-.7 12.5-.5 1.4-.5 2.2 0 2.2.1 0 .9-.9 1.8-2.1 4.7-6.4 5.8-7.4 9.1-9.1.9-.5 1.8-1.1 1.9-1.3.1-.3.8-.7 1.4-1 1.8-.7 6.9-2.3 7.5-2.3.3 0 1.5-.2 2.7-.6 5-1.3 5.5-2.1 5-8-.8-9.1-.7-10.5 1.5-12.9 2.5-2.6 5.9-3.8 7.3-2.5 1.2 1.2 3.2.7 3.5-.8.2-.9 4.1 2.5 5.3 4.7.6 1 2.2 3.2 3.7 5 2.9 3.4 3.7 4.9 5.5 10 .5 1.5 1.4 3.9 1.9 5.3 1.7 4.7 1.8 10.9.4 15-.9 2.4-.1 3.5 1 1.5.2-.5.8-1.5 1.3-2.2 2-3.1 1.6-10.5-1.1-16.5-.3-.8-.8-2-.9-2.7-.8-3.3-3.7-8.1-7.1-12-.9-1-2.2-2.7-2.9-3.6-.7-1-2.7-3.1-4.5-4.8-1.8-1.7-4.3-4.1-5.5-5.3-3.2-3.2-5.5-4.9-9.6-7.3-2-1.1-4.9-3-6.6-4.1-3.2-2.1-4.2-2.6-6.3-3.2-.7-.2-1.5-.6-1.7-.9-.7-.8-3.1-1.1-6.4-.7m274.5.4c-.7.8 0 10.2.9 11.3.4.5 1 .4 1-.3 0-.4.3 0 .9 1.1.5 1 1.4 2.8 2.2 4 .7 1.2 1.6 2.9 1.9 3.7.7 1.6 1 1.8 1.1.5.1-.7-.5-2-2.3-5.7-1.3-2.6-2.6-5.6-3-6.5-.3-1-.8-1.9-1-2-.2-.2-.4-.9-.4-1.7-.1-3.9-.5-5.4-1.3-4.4m4.2.3c-.7 1.7.5 11 1.4 11.3.4.1.3-3.8-.2-5.3-.1-.5-.3-2.1-.4-3.5-.2-2.5-.5-3.4-.8-2.5M219 270.4c-.1.4.3 1.4 1.2 3.1 1.8 3.5 2.3 4.8 3.1 9.7.9 5.3 3.7 13.8 4.6 14.1.5.2.4-.9-.7-5.4-.6-2.4-1.3-6.2-1.6-8.6-.6-5.1-.8-6.1-1.6-7.9-1.2-2.9.3-1.1 2 2.3.6 1.3 2 4.8 2.9 7.7 1.9 5.9 2.8 7.9 3.4 7.9 1.5 0-.7-10.6-3.6-17.3-.4-.9 3.1 1.2 5 3 1.8 1.7 1.8 1.7 3 5.5 2 5.9 4 9.7 7.9 15 2.9 3.9 5.1 4.9 2.7 1.1-2.5-3.7-2.8-4.4-4.4-7.6-1.7-3.4-2.4-5.2-3.5-8.8-.5-1.8-1-3.5-1.1-3.7-.3-1.1 1.2 1.3 2.8 4.5 2.2 4.4 3.2 5.5 3.7 4.4.2-.5-1.2-4.3-2.7-7.5-1.8-3.8-5.2-7-7-6.6-.4.1-1-.1-1.7-.6-2.3-1.6-3.2-1.9-4.8-1.7-1.4.1-1.6.1-2.5-.7-2.4-1.9-6.8-3.1-7.1-1.9m83.4 4.5c-7.8 1.9-14.4 7.1-17.7 13.9-4.2 8.7-4.7 10-6.3 17.1-.4 1.8-1 3.8-1.3 4.6-1 2.1.1 2.3 1.2.3.3-.6.9-1.5 1.2-2 .8-1.2 1.6-3.9 2.2-7.7.7-4 1.4-6.1 3.5-9.8 3.7-6.6 4.9-7.6 1.8-1.5-1.9 3.7-3.2 6.9-3 7.1.1.1.5-.6 1-1.6 3.4-6.4 6-9.8 9.7-12.4l1.2-.9-1.4 1.8c-2.7 3.6-7.1 15.1-8.2 21.8-.6 3.3.1 15.2.9 16 .2.2.2-.1.1-.8-.7-4.4 2.6-19 5.6-24.5.5-.9.7 1.1.3 3.4-.6 3.6-.7 8.1-.3 10.5.2 1.2.5 2.5.5 3s.2 1 .4 1c.2.1.3-1.5.4-5.4.2-6.7 1-12.5 2.4-16.2.5-1.5.5-.9-.1 2.6-.9 5.3-.9 5.6-.4 5.5.4-.1.8-.9 1.6-3.2 1.1-3 3-7.1 3.2-6.9.1.1-.2.9-.6 1.8-2.1 5.3-4.5 24.6-3 24.6.3 0 .4-.6.6-2.3.4-5.5 1.6-14.4 2.5-18.1.7-3.2 1.6-6.2 2-6.7.3-.4.3 0-.3 2.7-.7 3.1-.7 3.2.3 1.2 1.7-3.8 5.8-9.5 9.2-13.1 1.1-1.1 2-2.2 2-2.4s.1-.3.3-.3c.2 0 .9-.4 1.6-.9.7-.5 1.6-.9 1.9-.9.6 0 .6-.3.2-.9-.4-.5-5.6-.5-10.2 0-1.3.1-1.6.1-1.8-.3-.5-.6-1.3-.6-3.2-.1m-41.7.6c0 1.2 6.6 4.1 9.2 4.1 3 0 2.9-.6-.3-.9-2.2-.2-4.3-1-7.1-2.5-1-.5-1.8-.9-1.8-.7m-183.8.7c-4.4 1.3-8.1 2.9-10.4 4.8-.8.6-1.8 1.2-2.2 1.3-2.6.5-6.5 6.8-7.6 12.5-1.2 5.7.6 14.6 4.4 22.9 3.2 6.8 3.7 13.6 1.7 20.5-.4 1.4-.3 1.9.3 1.7.5-.2 2.1-3.4 2.5-4.9.2-.7.7-1.6 1.3-2.2 2.6-2.7 4.3-11.4 4.3-22.3 0-13.1 5.3-28.9 11.1-33 1.9-1.2-2.2-2.2-5.4-1.3m255-.1c-1.1.1-3.4.4-5.1.5-3 .3-6.4 1.2-7.7 2-.3.2-1.1.4-1.7.5-1.9.1-5.5 3.1-6.9 5.7-.2.4-.7 1.1-1.1 1.7-1.4 1.9-5.2 10.8-6.9 16.5-1.7 5.7-2 8.1-1.6 14.8.6 10.4.6 10.7-2.2 15.5-2.5 4.4-2.5 4-.6 5.9.8.8 2.6 2.9 4.1 4.5 3.2 3.7 5.5 5.3 3.7 2.5-.7-1-4.4-9-4.8-10.2-.1-.4-.1-.6.3-.8.6-.2 1.2.5 4.4 5.2 1.3 2 2.5 3.6 2.7 3.7.3.2-.2-1.4-.5-1.9-.7-.8-3.9-18.1-4.2-22.4l-.2-2.4.8 1.6c.5 1 1.1 3 1.6 5.2 1 4.7 1.3 5.6 3.2 9.7 1.8 3.9 3.8 9.1 4.1 10.6.1.5.4 1.2.7 1.6.5.6.5.5.1-1-.8-3.9-1.9-15-1.6-16.5.3-1.3.3-1.3.7-1 .4.3.6 1.3 1.5 7 1 6.4 2.8 13.4 3.5 14.2.2.2.2.1.1-.4-.7-2.3-.6-6.9.3-10.3.4-1.8 4.5-10.3 5.2-11 1.3-1.2.9 1.3-.7 5.3-2.1 5.2-2.3 5.8-2.5 8.4-.2 3.9 1.1 8.9 2.4 9.3 1.6.4 1.7.4 1.4-1.9-.5-4.4.4-7.1 4.3-12.8 2.6-3.9 5.4-8.6 6.9-11.8l.7-1.4-.6-2.7c-.3-1.5-1-3.8-1.4-5.2-.8-2.5-.7-3.2.1-2.9 1.1.4 4.7 10.1 4.7 12.5 0 2.7-2.5 8.7-5.7 13.5-.9 1.4-2.1 3.4-2.7 4.4l-1 1.9v3.1c0 4 .4 4.4 2.5 2.7l.8-.7v.6c0 .4.2.9.5 1.1.7.6 1.1-.1 1.1-1.7 0-2.2 1.6-5.9 6-14.1 4.1-7.6 3.7-6.2 3.4-11.8-.3-5.7-.9-8.2-2.8-12.4-2.2-4.8-1.7-6.3 4.2-13.2 3.2-3.7 3.3-4.4 1.3-7.8-1-1.8-2.7-5.2-4.1-8.7-1.8-4.6-3.7-5.5-10.7-4.7m57.1 6c-.1.2 0 .8.2 1.3s.5 1.3.6 1.8c.2.5.4 1 .6 1 1.4 0 1.7 9.2.5 12.4-.2.5-.1.5.2.2 1.2-1 2.3-7.4 1.8-10.3-.5-3.6-3.3-8-3.9-6.4m-94.1 8.4c-.3.3-.5.5-.6.4-.1-.1 0-.4.2-.8.2-.5.4-.6.6-.4.2.1.2.4-.2.8m-221 16c-.2.7-.1 1 .2.7.1-.1.1-.4.1-.8l-.1-.6-.2.7m14.2 10.7c-3.4 1.9-4.2 2.5-4.2 3.1 0 1 .8.9 3.9-.7 4.3-2.2 5.1-2.9 3.8-3.6-.7-.3-.7-.3-3.5 1.2m3.2 6.3c-3.9 1.2-9.6 5.1-9.2 6.2.3.9.9.9 2.6-.3 2.5-1.7 5.4-3.1 7.9-3.7 2.3-.6 3-1.2 2.7-2.2-.3-.7-2.1-.6-4 0m34.5.2c-.8.2-.8.2-2.8 4.6-3.5 7.7-3.8 9.3-1.9 9.2.4 0 2.1-.1 3.8-.2 2.3-.2 3.1-.1 3.4.2.7.6 1.1-.1 2.1-3.8.5-1.9 1.2-4 1.5-4.8 1.4-3.9-1.3-6.1-6.1-5.2m-11 2c-1.2.8-2.4 3.3-2.4 5.1 0 .7-.4 2.4-.8 3.8-.9 2.8-3 13.1-3.5 17-.4 3-1.7 9.2-2.4 11.4-1.3 3.8-3.1 12.1-2.7 12.1.4 0 .5-.2 2.4-5.6 3.5-10.2 4.1-11.9 5.4-17.4 1.6-6.7 2.5-9.8 3-11.3.2-.6.7-2.6 1.1-4.4.5-2.6 1-3.9 2.1-6.2.8-1.6 1.5-3.2 1.5-3.5 0-1.5-2.1-2-3.7-1m-8.6 4.2c-2.5 1.6-4.9 4.6-5.1 6.2-.1.8-.3 2.3-.6 3.3-.2 1-.6 3.6-.9 5.6-.3 2-.7 4.9-.9 6.4-1.2 8.4-1.8 13.2-2.1 19.2-.9 14.1-1 15.5-1.5 18.4-.7 4.1-.7 6.8.1 5.5.3-.5 2.3-7.7 2.7-9.7.2-1.2.8-3.9 1.3-6s1.2-5.5 1.5-7.5c.3-2 .7-4 .9-4.4.6-1.2 1.6-5.8 2.7-12 .5-3.1 1.7-8.7 2.7-12.5.9-3.8 1.7-7.1 1.7-7.3 0-.2.3-1 .7-1.8 1.4-3-.6-5.1-3.2-3.4m-17.1 5.6c-4.9 2.6-6 3.4-5.1 4.3.3.3.6.3 2.3-.6 1.1-.5 3.2-1.5 4.8-2.3 3.1-1.4 3.7-2 3.3-2.7-.6-.9-1.8-.6-5.3 1.3M75 338.8c.1 2.1.2 4.9.2 6.2-.2 12-.1 29.3.1 32.2.2 1.9.3 6.1.3 9.3 0 6.6.1 6.7.5 1.4.2-2.1.5-5.6.7-7.9.5-5.3 1.1-32 .8-37.4l-.2-4.2-1.1-1.7c-1.5-2.3-1.6-2.2-1.3 2.1m15.9 2.2c-2.8.9-6.3 3.2-6.3 4.2 0 .9.6.8 3.7-.6 1.7-.8 3.5-1.5 4-1.6 1.4-.3 2-1.1 1.2-1.8-.7-.7-1.1-.7-2.6-.2m28.5.4c-.4.6-2.1 6.4-2.1 7.3 0 1 .2 1.1 3.4 1.6 1.5.3 2.8.5 2.9.7.1.1.7.3 1.3.5.6.2 2.1.8 3.3 1.4 1.5.7 2.2.9 2.3.7.1-.2.2-.8.4-1.4.8-2.7 4.4-7.6 5.6-7.6.5 0 2 .7 2.4 1.2.5.6.8.6.8 0 0-.5-1.1-1.7-2-2.2-.9-.5-1.5-.4-2.6.4-.9.6-1 .6-1.9.3-.5-.2-1.2-.4-1.5-.4-.3 0-1-.3-1.4-.7-2-1.7-10.1-2.9-10.9-1.8m1.7 1.9c.1.1-.1.3-.4.3-.3 0-.5-.1-.4-.3.1-.1.3-.3.4-.3.1 0 .3.1.4.3m172.7 2.4c-.2.2-.3.5-.3.7s-.3.6-.7.9c-2.7 2.1-4.6 8.4-4.8 16.2-.2 5.9 0 6.6 2.5 9.1 2.3 2.3 3.5 2.9 14.5 7.4 10.9 4.4 15.8 6.9 17.9 9.3 4 4.4 4.5 5.3 6.2 11 1.5 5.1 2.2 6.1 2.8 4.4.3-.8.8-5.9.8-8.5 0-1.4.1-2 .4-2.2 2.4-2 3.1-20.8 1.1-28.4-.2-.6-.3-1.6-.3-2.3-.1-2.5-1.7-3.3-7.8-3.7-2.2-.1-4.1-.3-4.3-.4-.1-.1-1.5-.4-3-.7-5.9-1.2-14.9-4.3-18.7-6.3-1.8-1-3.5-3-4.1-4.7-.7-2.1-1.4-2.6-2.2-1.8M136 347.8l-.7.8.7.8c.4.4.7 1 .7 1.2s.2.7.4 1.1c.7 1.4.1 1.6-1.4.3-.8-.6-1.4-1.1-1.5-1-.2.2-.9 3-.9 3.6 0 .3.6 1.3 1.3 2.2.7.9 2 2.5 2.9 3.7.9 1.2 2.3 2.6 3.2 3.2.8.6 2.1 1.5 2.9 2.1 2 1.5 3.9 2.3 6.6 2.9l2.4.5 1.9-.8c2.4-1 6.3-3.1 6.3-3.4 0-.1-.5-.9-1.1-1.6-2.9-3.7-5.2-5.7-7.3-6.1-1.5-.3-4.2-1.6-7.1-3.5-.9-.6-2-1.1-2.5-1.3-.7-.2-1.4-.8-3-2.8-2.6-3-2.8-3.1-3.8-1.9m-47.4 2.1c-3.9 1.6-5.1 4.3-1.3 2.8.7-.3 2.1-.8 3.2-1.2 2.1-.8 2.6-1.2 2.3-2-.2-.6-2.1-.5-4.2.4m281.9 1.3c-1.5 1.1-4.1 2-6.3 2.5-4.1.8-11.1 5.6-12.1 8.4-.5 1.3-.4 6.9.2 16.3.6 8.9 0 14.5-2.2 21-.9 2.6-1.1 3.7-1.1 5.3-.1 4.6 1.9 1.5 5-8.1 2.9-8.9 3.5-11.7 4.2-19.7.6-6.6 1.4-12 1.8-12.7 2-3.1 6.3-7.1 10.3-9.4 1.7-1 3.9-3.1 3.9-3.8-.2-1.1-2.2-.9-3.7.2m-281.1 5.4c-4.1 1-6.1 3.3-3.8 4.3 1.1.5 7.1-2.3 7.1-3.2 0-1-1.5-1.5-3.3-1.1m24.2 5.3c-.9.3-1.2.9-2.4 4.8-2.6 8.4-2.4 8.8 3.2 8 1.8-.3 2.1-.2 2.5.1.3.2 1.1.5 1.8.7.8.1 1.8.4 2.4.7 1 .4 1.4.3 1.4-.6 0-.6 1.6-4.3 2-4.5.2-.1.6-.6 1-1.1 1.3-1.9 3.3-2.5 4.4-1.3 1 1.1 1.3.4.3-.8-.8-.9-2.2-1.3-3.2-.9-.8.3-1.7-.2-3.7-2.2-2.8-2.7-6.9-3.9-9.7-2.9m-25.2 2.6c-2 .5-4.1 1.9-4.6 3.2-.5 1-.4 1.9.2 1.6.2-.1 1-.7 1.8-1.2 1.7-1.1 3.5-1.7 5.7-2 1.3-.2 1.6-.3 1.7-.7.2-1.3-2-1.7-4.8-.9m38.8 6.4l-.7.9.7.7c.8.8 1.4 2.6 1.2 3.2-.3.7-.8.5-1.7-.6-1-1.3-1.2-1.3-1.7.4-.8 2.2-.7 2.6 1 4 .8.7 2.8 2.5 4.2 4.1 3 3.2 4.5 4.1 8.8 5.6 3.1 1 3.2 1 7.2-.3l3.3-1.1-.6-1.5c-.3-.8-.8-2.1-1.1-2.8-.6-1.5-1.3-1.9-4.4-2.5-4-.7-7.9-3-10.2-5.9-4.4-5.3-4.9-5.7-6-4.2m-39.8.1c-1.8.5-2.9 1.1-3.6 2-1.1 1.4-.2 1.6 2.1.6 1.3-.6 2.9-1 5.5-1.6.9-.2 1-.8.2-1.2-.7-.5-2.3-.4-4.2.2"/></svg>