<?xml version="1.0" encoding="utf-8"?>
<!-- Generator: Adobe Illustrator 22.1.0, SVG Export Plug-In . SVG Version: 6.00 Build 0)  -->
<svg version="1.1" id="svg" xmlns="http://www.w3.org/2000/svg" xmlns:xlink="http://www.w3.org/1999/xlink" x="0px" y="0px"
	 viewBox="0 0 410 410" style="enable-background:new 0 0 410 410;" xml:space="preserve">
<g id="svgg">
	<path id="path0" d="M103.5,31.7c-2.9,1.1-6.2,4.7-8,8.6c-0.9,1.8-0.8,8.4,0,10.2c1.8,3.9,4.6,5.4,10,5.3c4.6-0.1,5.1,0.1,8.1,2.6
		c2.9,2.4,3.3,2.8,3.5,2.6c0.3-0.3-0.8-1.9-2.8-4c-3.4-3.6-3.7-4.6-2.1-6.5c1.6-1.8,4-0.9,8.9,3.2c2.7,2.3,3.7,2.1,1.9-0.2
		c-3.2-4.2-4.2-6.1-4.6-8.6c-0.3-2.4-0.7-3.3-1.2-3.3c-0.6,0-1.2-0.9-1.3-1.9c-0.1-1.8-1.8-2.6-2.1-1.1c-0.1,0.5-0.3,1.4-0.6,1.9
		l-0.4,0.9h-2.4c-2.9,0-2.8,0-2.2-2.3c1.2-4.3,1.3-6.5,0.1-7.2C107.6,31.3,104.8,31.2,103.5,31.7 M105.9,42.8c0.4,2.2-1.3,4-3.6,3.7
		c-2.4-0.4-1.6-3.8,1-4.3C105.5,41.8,105.7,41.8,105.9,42.8 M110.9,44c1.6,0.2,1.6,0.4-0.8,2.8l-2,2l0.1-1.1
		c0.1-0.6,0.2-1.7,0.3-2.5C108.7,43.7,108.7,43.7,110.9,44 M125.2,57.3c0,1.1,2.9,4.7,7.3,9.4c1.5,1.6,4.2,4.6,6,6.7
		c3.8,4.5,6.4,7.2,6.7,7.1c0.1-0.1,0.6,0.3,1.1,0.9c1.2,1.3,4.2,4.1,3.6,3.3c-1-1.3-6.9-7.5-9.3-10c-1.4-1.3-3-3.2-3.6-4
		c-0.7-0.9-3-3.7-5.2-6.3c-2.2-2.6-4.4-5.3-4.9-6.1C125.9,56.9,125.2,56.5,125.2,57.3 M119.9,58.2c-0.3,0.6-0.6,1-0.7,0.8
		c-0.2-0.4-0.9-0.4-0.9,0c0,0.2,0.4,0.8,0.8,1.4c0.4,0.6,1,1.6,1.2,2.2s0.8,1.4,1.3,1.9c0.5,0.5,1.2,1.4,1.6,2.1
		c0.4,0.7,1.2,1.8,1.7,2.5c0.6,0.7,1.4,2,1.9,3c0.5,1.1,1.1,1.9,1.4,2.1c0.3,0.2,1.2,1.3,1.9,2.4c2.2,3.7,2.8,4.7,3.1,4.7
		c0.1,0,1,1.2,2,2.6c2.5,3.6,6.6,9,8,10.7c1.9,2.2,3.1,3.7,4.4,5.6c1.1,1.6,2.4,3.3,4.1,5.1l0.7,0.7l-1.3,3.8
		c-1.9,5.6-1.7,9.8,0.5,11.6c0.2,0.2,0.9,1,1.6,1.9c1.1,1.5,1.7,2,2,1.7c0.1-0.1-0.5-1.5-1.2-3.1c-2.2-4.8-2-6.7,1-12.7
		c0.6-1.1,1.2-2.5,1.3-3.1c0.5-1.6,1.7-2.9,3.1-3.4c1.4-0.5,1.5-0.8,0.4-2.6c-1-1.6-1-1.7,0.2-2.1c0.6-0.2,1.6-0.6,2.2-1
		c1.6-0.8,1.5-0.9,4.8,0.7c3.7,1.8,6.1,1.7,2.6,0c-0.6-0.3-1.1-0.7-1.2-0.9c-0.3-0.5-3.7-1.8-4.7-1.8c-0.7,0-2.1,0.7-4.1,2.1
		c-0.5,0.3-1.3,0.7-1.8,0.8c-1,0.2-2.1,1.5-4.1,4.8l-0.3,0.5l0.2-0.5c0.6-1.6,0.7-3.9,0.3-4.4c-0.2-0.3-0.4-0.7-0.4-1
		c0-0.8-0.5-1-1-0.5c-0.4,0.5-0.5,1.3-0.8,4.2c-0.3,3.4-0.8,1.8-0.6-2.3c0.4-9.2-1.6-10.8-3.1-2.4l-0.2,1.1l-0.4-1.1
		c-0.4-1.1-0.4-6.7,0.1-8.6c0.2-0.8,0.1-0.9-0.4-0.9c-0.7,0-1.3,1.5-1.8,4.3l-0.3,2l-0.3-1.1c-0.8-2.8-1.2-6-0.9-8
		c0.3-1.8,0.1-2.6-0.4-2.2c-0.5,0.3-0.9,2.5-0.9,4.9c0,2.8-0.2,2.6-1.6-1.4c-0.8-2.2-0.8-2.6-0.8-5.2c0.1-2.1,0-2.8-0.2-2.9
		c-0.6-0.2-1.4,2.2-1.5,4.2c0,1-0.1,1.8-0.1,1.8c-0.6,0-2-5.4-2-8c0-4-1.3-3.5-1.4,0.5c-0.1,2.8-0.2,2.8-1,0
		c-0.5-1.5-0.6-2.4-0.5-3.9c0.1-1.1,0-2-0.1-2.1c-0.9-0.6-1.7,1.5-1.5,4c0.1,1.4,0.1,1.5-0.2,1.1c-0.6-0.8-1.7-4.7-1.9-6.6
		c-0.3-3-1-2.4-1,0.8c0,3-0.3,2.8-1.5-1c-0.6-1.8-0.8-2.9-0.7-3.6c0.1-0.6,0-1.3-0.1-1.5c-0.4-0.6-1,0.4-1.2,1.9
		c-0.1,1.1-0.2,1.3-0.4,0.9c-0.4-0.7-1.2-4.6-1.2-5.6c0-2-1.1-1.2-1.1,0.9l0,1.3l-0.6-1.3c-0.4-0.9-0.6-1.8-0.6-2.7
		C121.2,56.8,120.6,56.6,119.9,58.2 M258.9,62.6c-1.8,0.4-3,1.1-3.5,2c-0.3,0.4-0.8,1.1-1.2,1.6c-0.7,0.8-0.8,1.1-0.6,2
		c0.1,0.8,0,1.2-0.4,1.8c-0.3,0.4-0.5,1-0.4,1.3c0.1,0.3,0,0.7-0.2,0.9c-0.2,0.2-0.4,0.5-0.4,0.7c0,0.2-0.2,0.8-0.5,1.2
		c-1.1,1.8-0.4,3,0.7,1.3c0.6-0.9,0.8-1,1-0.7c0.2,0.3,0.5,0.3,1.4,0.1c0.6-0.2,2.5-0.3,4.3-0.3c3.9,0,4.4-0.7,1.1-1.5
		c-0.6-0.1-0.7-0.2-0.3-0.2c0.9,0,1-0.5,0.2-0.9c-0.5-0.2-1.5-0.2-2.6-0.1c-2.1,0.2-2.2-0.1-0.2-1.1c2.1-1,2-1.7-0.1-0.8
		c-1,0.4-1.2,0.2-0.5-0.4c0.4-0.3,5.2-0.4,7.9-0.1l1.2,0.1l-0.6-0.5c-0.8-0.7-2.2-1.1-4.4-1.1c-1,0-1.8-0.1-1.8-0.3
		c0-0.4-0.6-0.3-1.5,0.2c-1.3,0.7-2.9,0.8-2.5,0.1c0.3-0.6,0.9-0.8,1.9-0.8c0.4,0,1-0.2,1.3-0.6c0.5-0.6,4.8-0.7,6.3-0.1
		c0.4,0.1,0.3,0-0.3-0.5c-1.1-1-3.2-1.3-5.4-1c-1,0.2-1.8,0.2-1.9,0.2c-0.2-0.2,1.6-0.9,3-1.1c3.1-0.4,4.1-1.1,2.5-1.5
		C261.3,62.2,260.4,62.2,258.9,62.6 M324.4,69.3c-1.1,0.2-2.4,1.7-2.3,2.8c0.1,1.4,1.2,2,2.6,1.6c1.1-0.3,1.2-0.3,1.8,0.4
		c0.5,0.5,0.9,0.7,1.4,0.6c0.6-0.1,0.8,0,0.9,0.3c0.3,1,3.7,1.6,4.8,0.9c0.5-0.3,0.8-0.4,1.2-0.1c1.1,0.6,3.4-0.8,3.4-2
		c0-0.8-1.1-1.7-1.9-1.7c-0.5,0-0.7-0.2-0.9-0.9c-0.7-2.3-5.7-1.9-5.9,0.5l-0.1,0.8l-0.8-0.7c-0.4-0.4-0.8-0.8-0.8-1
		C327.9,69.9,325.9,69.1,324.4,69.3 M244.1,70.4c-5.4,1.7-10,6.2-13.3,12.8c-1.4,2.7-1.3,3.1,0.1,0.9c1.2-2,3.8-4.8,4-4.4
		c0.1,0.2-0.4,1.2-1,2.2c-0.7,1.1-1.5,3-1.9,4.2c-0.4,1.2-1.1,3.2-1.6,4.4c-1,2.4-1.5,4.4-1.5,6.1c0,1.7,0.4,1.5,0.7-0.3
		c0.5-3.6,3.4-10.1,5.8-12.8c3.1-3.4,5.3-7.6,4-7.6c-0.1,0-0.6,0.8-1.1,1.7c-1,2-2.6,4.2-3.7,5.5l-0.8,0.9l0.9-1.6
		c0.5-0.9,1.3-2.2,1.9-2.9c1.2-1.6,0.7-2.6-0.8-1.6c-1.5,1,1.7-2.3,3.7-3.8c2.1-1.6,3.3-2.2,6.2-3.1c1-0.3,1.8-0.7,1.9-0.8
		C247.5,69.9,245.6,69.9,244.1,70.4 M317.6,71.6c-1.1,0.8-1.3,0.9-2.1,0.6c-2.2-0.7-4,1.1-3.9,3.7c0.1,1.6,0.1,1.8-0.6,2.5
		c-0.5,0.5-0.7,1-0.7,1.5c0,0.4-0.3,1.5-0.7,2.3c-0.8,1.8-0.7,4.9,0.2,6.5c0.3,0.5,0.4,1.1,0.3,1.4c-0.1,0.3,0,0.9,0.2,1.4
		c0.3,0.7,0.3,0.9-0.1,1.3c-1.2,1.4-1.1,4.2,0.4,5.4c0.4,0.4,0.8,0.9,0.8,1.2c0,0.8,1,2,1.7,2c1.4,0,2.1-2.5,1.1-4
		c-0.3-0.5-0.4-0.9-0.2-1.7c0.5-3.1,0.5-2.9-0.3-3.6c-0.4-0.4-1-1.1-1.2-1.7c-0.6-1.4-0.5-1.4,0.1-0.6c0.3,0.4,0.8,0.7,1.1,0.7
		c0.3,0,0.6,0.2,0.7,0.4c0.7,1.9,3.5,1.3,3.9-0.8c0.1-0.6,0.5-1.5,0.9-2c0.4-0.7,0.6-1.3,0.5-1.7c-0.1-0.5,0-0.8,0.4-0.9
		c0.5-0.2,0.5-0.2,0.5,0.9c0,1.4,0.8,2.6,1.8,2.6c0.7,0,0.7,0-0.2,0.6c-1.6,1.1-1.7,3.3-0.2,4.3c0.7,0.4,1.7,0,2.1-0.9
		c0.2-0.5,0.5-0.8,0.7-0.7c0.6,0.2,2-0.4,2.4-1.2c1.3-2.6,0.6-4.9-1.5-4.7c-1.2,0.1-1.2,0.1-0.5-0.8c0.3-0.4,0.5-0.9,0.5-1.2
		c0-0.4,0.1-0.5,0.5-0.3c0.8,0.3,1.6-0.3,1.6-1.2c0-1.1,0.3-1,0.8,0.3c0.8,2,2.5,2,3.6-0.1c0.2-0.5,0.8-1.3,1.3-1.9
		c2.4-2.6-0.4-4.9-3.3-2.7c-0.9,0.7-1.5,0.6-1.3-0.2c0.9-2.8-5.2-2-6.7,0.9c-0.3,0.6-0.6,0.7-1.2,0.7c-0.4,0-1,0.1-1.3,0.3
		c-0.4,0.2-0.6,0.1-0.9-0.3c-1-1.1-2.4-0.9-4,0.5c-0.6,0.5-0.7,0.6-0.6,0.2c0.1-0.3,0.2-0.9,0.2-1.4c0-0.7,0.2-0.9,0.7-1.2
		c0.4-0.2,0.7-0.6,0.8-1c0.3-1.4,0.9-1.8,1.5-1c1.4,1.7,4.5-0.3,4.5-2.9C321.7,70.8,319.7,70.1,317.6,71.6 M229.7,72.6l-1.2,1.1
		l1.1-0.8c1-0.7,1.6-1.3,1.4-1.3C231,71.5,230.4,72,229.7,72.6 M273.5,71.6c0.1,0.1,1.2,0.7,2.5,1.5s3,1.8,3.7,2.3
		c0.7,0.5,1.3,0.9,1.4,0.8c0.4-0.4-6.2-4.7-7.2-4.7C273.6,71.5,273.4,71.6,273.5,71.6 M231.1,73c-3.3,3-6.5,9.7-6.8,14.6l-0.1,1.9
		l0.9-3.3c1.6-6.1,3.3-9.4,6.4-12.7C233.3,71.5,233.1,71.2,231.1,73 M269.3,72.6c0.1,0.1,0.7,0.4,1.4,0.7
		c7.1,2.7,12.7,8.3,14.9,14.8c0.3,0.8,0.5,1.4,0.6,1.3c0.2-0.2-1.4-4.7-2.4-6.2c-1.5-2.6-6.6-7.5-9.2-8.8
		C272.1,72.9,268.9,71.9,269.3,72.6 M280.2,74.7c2.4,2.3,3.5,3.8,5.8,8c2.7,4.9,3.4,5.2,1,0.5c-2.3-4.6-4.6-7.6-7.3-9.5
		C278,72.5,278.1,72.7,280.2,74.7 M233.2,74.4c-3.6,3.4-7.9,10.1-7.7,11.9c0.1,0.4,0.3-0.1,0.8-1.4c0.4-1.1,0.9-2,1.1-2.1
		c0.2-0.1,0.9-1.1,1.7-2.3c0.7-1.2,2.3-3.3,3.5-4.7C235.1,73.1,235.3,72.4,233.2,74.4 M235.6,74.7c-1.8,1.2-6.1,8.1-5.4,8.7
		c0.1,0.1,0.4-0.3,2.4-3.6c0.5-0.8,1.1-1.8,1.3-2.3c0.3-0.5,1.1-1.5,1.9-2.2C237.3,73.7,237.2,73.6,235.6,74.7 M364.4,74.8
		c-1.2,0.3-10.6,0.6-14.5,0.5c-2.6-0.1-5.9,0.7-8.4,1.9c-2.1,1-5.4,6.6-3.9,6.6c0.5,0,0.1,0.8-1,2.1c-1.7,1.9-0.9,3.5,1.3,2.6
		c1.9-0.7,7.9-2,8.1-1.7c0.1,0.2,0.7,0.2,1.9-0.2c5.8-1.5,14.4-2.7,19.1-2.6c2.2,0.1,2.2,0,2.1-0.6c-0.1-0.6-0.2-0.6-2-0.7
		c-1,0-3-0.1-4.4-0.2c-1.7-0.1-3.9,0-6.9,0.4c-2.4,0.3-4.4,0.5-4.5,0.5c-0.2-0.2,5-1.3,8.4-1.8c2.8-0.4,3.6-0.6,3.7-0.9
		c0.3-1.3-8.8-0.4-15.4,1.6c-2.5,0.7-5.9,1.4-5.9,1.1c0-0.7,6.7-2.5,11.1-3.1c8.1-1,11.7-1.6,12-2c0.4-0.6-1-0.8-4.1-0.5
		c-5.1,0.4-3.8-0.2,2.1-1.1c4.4-0.6,5.4-0.7,7-0.1c1.2,0.4,1.3,0.4,1.7,0c0.6-0.6,0.2-1.9-0.7-2C369.6,74.5,365.5,74.5,364.4,74.8
		 M225.4,77.1c-5.1,5.5-7,16.3-4.3,24.5c0.9,2.8,1.4,5.7,1.4,8.7l0,2.1l0.2-1.6c0.3-2.2-0.2-7-1-9.7c-1.3-4.7-0.8-9.8,1.4-14.8
		c1.5-3.4,1.1-3.9-0.8-1c-0.5,0.8-0.7,1-0.6,0.5c0.3-1.1,3-6.4,4.1-8C228.2,74.7,227.9,74.4,225.4,77.1 M264.9,75.3
		c0,0.1,0.5,0.4,1.1,0.8c0.6,0.4,1.8,1.4,2.8,2.2c2.1,1.8,2.3,1.6,0.3-0.3C267.3,76.3,264.9,74.7,264.9,75.3 M256,76.7
		c-0.2,0.6,0.4,1.2,1.4,1.3c3.6,0.7,5.2,5.4,3.8,11c-0.5,1.8-0.7,3.7-0.8,5.5c-0.1,1.5,0,2.3,0,1.8c0.3-2.3,0.7-4.3,1.5-6.8
		c2-6.3,0.4-11.9-3.7-12.9C256.6,76.2,256.1,76.3,256,76.7 M274.3,78.8c0.2,0.3,0.9,1.5,1.5,2.7c0.6,1.2,1.2,2.1,1.2,2
		c0-0.5-1.9-4.1-2.5-4.6C274,78.5,274,78.5,274.3,78.8 M240,80.3c-0.2,0.8-1,3.1-1.6,4.9c-1.3,3.9-1,4,0.8,0.3
		c1.8-3.6,2.5-6.8,1.6-6.8C240.6,78.7,240.3,79.3,240,80.3 M252.9,80.3c0,0.1,0.2,0.8,0.4,1.4c0.2,0.6,0.5,1.8,0.6,2.6
		c0.2,1.9,0.7,1.8,0.7-0.2c0-1-0.2-1.9-0.6-2.8C253.5,80.2,252.9,79.7,252.9,80.3 M269.3,82.8c1.2,1.2,2.5,2.6,2.8,3l0.6,0.8
		l-0.5-0.9c-0.6-1.1-4.4-5.1-4.8-5.1C267.2,80.6,268.1,81.6,269.3,82.8 M326.1,81.3c-0.5,0.2-0.9,0.6-1,0.9c-0.2,0.5-1,0.5-0.9,0.1
		c0-0.3,1.7-1.4,2.3-1.4C326.8,80.9,326.7,81,326.1,81.3 M251.8,83.2c-0.1,0.1,0,0.6,0.1,1.3c0.3,1.1,0.1,4.1-0.2,5.6
		c-0.2,1,0.3,0.7,0.9-0.5C253.3,87.6,252.7,82.2,251.8,83.2 M313.1,85.3c-0.4,0.4-0.4,0.4-0.4-0.3c0-1.3,0.3-1.8,0.6-0.9
		C313.5,84.7,313.4,85,313.1,85.3 M265,87.4c-0.4,2.7-1.8,7.4-2.2,7.2c-0.4-0.3,0.1-4.7,0.8-6.3c0.1-0.4,0.1-0.5-0.1-0.3
		c-1.7,1-2.3,9.2-0.9,13.1c0.8,2.4-0.4,1.5-2.1-1.6c-0.9-1.7-1.9-7.1-1.4-7.9c0.3-0.5,0.7-4.2,0.5-5.2c-0.3-2-1.1-1.6-1.5,0.8
		c-0.9,5.6-2.5,8.3-6.5,11.4c-1.5,1.1-2.7,2.3-3.3,3.1c-0.5,0.7-1,1.4-1.2,1.6c-0.2,0.1-0.6,0.5-0.9,0.8c-0.8,0.7-1.1,1.9-0.6,2.2
		c1.7,1.1,5.5,1.9,8.1,1.6c3.2-0.2,3.4-0.5,1.9-2.3c-1.7-2.1,0.4-1.4,2.3,0.7c1.2,1.4,1.5,1.2,1.5-1.2c0-2.5,1.1-3.4,1.1-1
		c0,0.9,0.9,3.1,1.2,3.1c0.2,0,0.8-0.7,1.5-1.6c0.6-0.9,2.5-2.9,4.1-4.5c1.6-1.6,3.5-3.6,4.2-4.5c0.7-0.8,1.6-1.5,1.8-1.5
		c0.9,0,1.2-0.7,0.7-1.9c-0.8-1.7-1.2-1.9-0.9-0.4c0.5,2.8-0.5,2.8-1.2,0c-0.4-1.6-1.9-5-2.2-5c-0.1,0,0,0.4,0.1,0.9
		c0.3,1.1,0.3,5.2,0,5.4c-0.1,0.1-0.3-0.3-0.4-0.9c-0.5-3.4-2.3-7.8-3.4-8.1C265.3,84.9,265.3,85,265,87.4 M254.9,86.3
		c-0.1,0.2-0.3,1.2-0.5,2.2c-0.8,3.7-2.2,6.3-4.8,9.2c-0.8,0.8-0.8,0.9-0.1,0.5c2.6-1.6,5.4-6.7,5.7-10.5
		C255.4,86.1,255.2,85.4,254.9,86.3 M226.1,87.7c-0.2,0.7-0.5,2-0.6,2.9c-0.1,1.5-0.1,1.5,0.4-0.7c0.3-1.3,0.6-2.6,0.7-2.9
		C227,85.9,226.6,86.5,226.1,87.7 M329.1,87c-0.9,1-0.2,3,1,3c0.9,0,1.2-0.5,1.2-1.7C331.3,86.5,330.1,85.8,329.1,87 M246.8,90.5
		c-0.9,2.1-2.8,4.7-6.1,8.2c-2,2.1-3.3,3.8-4.2,5.4c-1.8,3.3-1.4,3.6,0.5,0.4c1.1-1.9,2.4-3.6,4.5-5.8c3.1-3.3,5.3-6.4,5.8-8.1
		C247.8,89,247.5,88.9,246.8,90.5 M354.9,89.8c-1.2,0.9,0.5,24.7,2.1,29.6c0.4,1,0.7,2.4,0.8,3.1c0.4,2.7,1,3.9,1.6,3.4
		c0.6-0.5,0.1-8.3-1.1-15.8c-0.9-5.5-0.9-5.6-1.2-10.4C356.6,90.4,356.3,88.8,354.9,89.8 M383.9,91.1c0.1,1.9,0.5,2.4,2.7,3.6
		c2.2,1.2,6,3.6,8,5.3c0.8,0.6,2,1.5,2.7,1.9c1.5,0.9,2.4,2.1,1.8,2.3c-0.2,0.1-0.7,0.5-1.1,0.9l-0.7,0.7l-2.6-1.2
		c-2.5-1.2-2.7-1.2-5.5-1.3l-2.9-0.1v0.9c0,0.6,0.1,0.9,0.6,1c0.4,0.1,0.4,0.2,0.2,0.3c-0.6,0.4,1.2,1.5,4.1,2.6l2.9,1.1l1.4-0.5
		c1.4-0.5,1.5-0.5,1.8,0c0.5,0.7,0.3,3.5-0.3,4.1c-0.3,0.3-0.4,0.6-0.3,0.8c0.1,0.2,0.1,0.3-0.3,0.1c-2.4-1-7.8-0.1-8.4,1.4
		c-0.8,2.1-0.1,2.9,2.4,2.6c1.2-0.1,2.4,0,3.6,0.2c1.6,0.4,1.9,0.4,2.5,0c1.4-0.9,1.5-0.2,0.3,1.4c-0.7,0.9-1.1,1.1-1.9,1.3
		c-3.6,0.5-4.1,1.1-3.5,4.1c0.3,1.5,3.2,1.4,5.1-0.1c0.3-0.2,0.3-0.2,0.2,0c-0.3,0.4,0.6,1.7,1.3,1.7c0.5,0,0.5-0.2,0.3-2.2
		c-0.2-2.2-0.2-2.2,0.8-3.8l1-1.6l-0.5-2.3c-0.5-2.2-0.5-2.4-0.1-3.3c0.3-0.7,0.5-1.8,0.5-3.5c0-1.8,0.2-2.8,0.5-3.4
		c0.5-0.9,0.6-3,0.3-4.6c-0.6-2.9-13.3-11.7-16.8-11.7C383.9,89.7,383.9,90.3,383.9,91.1 M233.8,91.7c-2.5,3.4-5.1,12.7-3.8,13.5
		c0.1,0.1,0.2-0.3,0.1-0.9c-0.3-2.2,1.6-8,3.9-11.9C235.1,90.6,234.9,90.2,233.8,91.7 M345.8,91.3c-0.5,0.3-1,0.5-1.2,0.4
		c-1.1-0.4-1.4,0.9-0.8,3.7c0.2,1.1,0.8,4.4,1.2,7.4c0.4,3,1.1,6.9,1.6,8.6c0.4,1.7,1.3,5.8,1.9,9.1c0.6,3.3,1.3,6.5,1.5,7.1
		c0.2,0.7,0.4,1.6,0.4,2.2c0,1.7,0.8,2.3,2,1.8c0.6-0.2,1.2-0.5,1.5-0.6c0.6-0.2,0.6-0.8,0.1-3.2c-0.5-2.3-2.2-13.3-2.4-15.6
		c-0.3-2.8-0.9-6.6-1.5-8.8c-0.3-1.1-0.6-3.6-0.8-5.6c-0.4-4.5-0.9-6.3-1.8-6.7C346.6,90.7,346.8,90.6,345.8,91.3 M316.8,92.5
		c-1.2,1.1-1.9,3.6-1.3,5.1c0.4,1,2.5,1.5,3.3,0.8c0.3-0.3,0.5-0.3,0.5-0.1c0,0.2-0.1,0.3-0.2,0.3c-0.5,0-0.6,1.1-0.2,1.7
		c0.5,0.8,1.3,0.8,1.8,0.1c0.2-0.3,0.7-0.7,1-0.9c0.7-0.3,1-1.7,0.5-2.5c-0.4-0.7-1.5-1-2-0.5c-0.6,0.5-0.8,0.1-0.4-1
		C320.7,92.3,318.9,90.6,316.8,92.5 M365.3,92.8c-0.6,0.9-0.6,9.6-0.1,16.5c0.2,2.1,0.5,6.1,0.7,8.9c0.6,7.9,0.9,9.9,1.6,9.9
		c1,0,1.1-3.7,0.4-11.7c-0.3-3.7-0.7-10.6-0.9-15.2C366.5,92.1,366.4,91.1,365.3,92.8 M282.1,95.3c-0.7,8.9,0.7,15.1,4.5,19.7
		c1.9,2.3,2.7,3.6,3.3,5.5c0.6,1.8,0.9,2,0.9,0.6c0-1.6-1.2-3.9-3-6.1c-4.3-5.1-5.1-7.5-5.1-16.5C282.6,92.3,282.4,91.2,282.1,95.3
		 M336,93.4c-0.3,0.1-0.7,0.2-0.8,0.1c-0.2-0.1-0.7,0.1-1.3,0.3c-1.3,0.5-1.3,1.6-0.1,5.1c0.5,1.4,1.5,4.7,2.3,7.3
		c0.8,2.6,1.9,6,2.5,7.6c0.6,1.6,1.5,4.4,1.9,6.1c0.9,3.7,4,13.4,4.3,13.8c0.3,0.3,1.1,0.1,1.4-0.4c0.4-0.6-0.6-6.6-1.7-10.4
		c-0.4-1.4-0.9-3.3-1.1-4.2c-0.2-0.8-0.6-3.2-1.1-5.1c-0.4-2-1-5.6-1.3-8.1C339.9,95.3,338.7,92.3,336,93.4 M292.9,93.9
		c0,0.2,0.8,1.1,1.8,2.1c1,1,2.1,2.5,2.4,3.3c0.8,1.7,1.3,1.9,0.8,0.3C297.2,97.5,292.9,92.5,292.9,93.9 M328.1,97.6
		c-0.3,0.2-0.7,0.3-0.8,0.2c-1.4-0.9-1.3,1.5,0.3,6.3c0.7,2.2,1.4,4.5,1.5,5c0.2,0.8,2.4,8.2,5.4,17.6c0.9,2.9,2.3,7,3,9
		c0.3,0.8,1.2,0.8,2.6,0.1c1.9-1,1.9-1.5,0.4-6.4c-0.5-1.5-1.1-3.8-1.3-4.9c-0.5-2.4-6.4-20.2-7.6-23.1c-0.4-1-0.8-2-0.8-2.2
		C330.8,98,329.1,96.9,328.1,97.6 M210.1,98.4c-0.6,0.3-3.8,2.3-7.1,4.6c-8.5,5.8-14.1,9.5-17.3,11.4c-1.5,0.9-3.5,2.2-4.3,2.8
		c-0.8,0.6-2.7,1.9-4.1,3c-1.5,1-4.1,3.1-5.9,4.7c-1.8,1.6-3.7,3.2-4.4,3.6c-0.7,0.4-3.1,2.3-5.3,4.1c-11.2,9.2-15.8,13.1-20.5,17.5
		c-5.4,5.1-8.2,7.6-10.3,9.3c-1.8,1.5-2.2,2.5-1.8,4.3c0.6,2.8,2.7,6.5,3.8,6.5c0.9,0,0.8-0.5-0.4-3c-2.3-4.5-2.1-5,2.1-7.7
		c1.1-0.7,3.2-2.2,4.6-3.5c3.6-3,5.5-4.5,9.3-7.1c6.3-4.4,13.3-9.5,16.1-11.7c2.6-2.1,8.2-5.9,12.7-8.7c2-1.2,5.4-4.2,12.3-10.6
		c6.1-5.7,9.5-8.4,14.6-11.7c6.6-4.2,8.5-5.7,7.4-6c-0.2-0.1-0.2-0.3,0.3-0.7C213,98.2,211.9,97.6,210.1,98.4 M225.6,98.7
		c-0.1,0.1-0.2,0.9-0.3,1.7c-0.1,0.8-0.3,1.7-0.4,2c-0.2,0.4-0.2,1.5,0.2,4c0.7,4.9,0.5,5.7-1.7,10.5c-2.4,5.1-3.1,7.5-2.9,10
		c0.2,3.1,1.6,7.9,2.2,7.3c0.1-0.1-0.2-1.2-0.5-2.6c-1.3-5.3-1.2-6.9,0.9-11.3c1.3-2.8,1.7-3.2,1-1c-0.3,0.8-0.4,1.4-0.3,1.5
		c0.2,0.2,1.4-3.5,2.1-6.4c0.6-2.3,0.5-6.9-0.2-10.2c-0.1-0.5-0.1-0.7,0.1-0.5c0.3,0.3,1,3.2,1.4,5.7c0.3,2.2,0.1,14-0.2,15.8
		c-0.3,1.5,0.2,1.4,0.7-0.1c0.6-1.8,0.5-11.2-0.1-15.5c-0.2-1.2-0.5-3.8-0.6-5.7C226.4,98.7,226.2,97.8,225.6,98.7 M286.7,99.3
		c0.1,0.3,0.3,1.1,0.4,1.6c0.3,1.2,0.9,2.5,1.3,2.7c0.2,0.1,0.1-0.3-0.2-0.9c-0.2-0.6-0.6-1.6-0.7-2.4c-0.1-0.8-0.4-1.5-0.7-1.5
		C286.6,98.8,286.5,98.9,286.7,99.3 M314.2,101.8c-0.6,0.6-0.5,1.3,0.1,1.8c0.6,0.6,1.2,0.6,1.7,0
		C317.1,102.3,315.3,100.6,314.2,101.8 M192.5,105.3c-12.3,6.9-15,7.9-19.5,7.3c-3.2-0.4-3.4,0.1-0.4,1.2c3.8,1.3,7.7,0.1,15.1-4.7
		c8.1-5.2,9.5-6.1,9.5-6.3C197.2,102.7,197.4,102.6,192.5,105.3 M268.9,105.9c-2.4,2.4-3.6,4-2.6,3.4c0.1-0.1,0.3,0,0.4,0.2
		c0.1,0.3,0.4,0.3,1.7,0c4.6-1,7.5-5.5,4.1-6.3C271.8,103,271.4,103.4,268.9,105.9 M161.1,105.3c-1.8,1.4-2.1,2.2-1.4,3.3
		c0.3,0.4,0.5,1.3,0.5,2c0,0.7,0.2,2.2,0.4,3.4c0.4,2.6,0,5.9-0.9,8.3c-0.9,2.3-0.6,3.2,0.6,1.5c2.4-3.4,3.2-8,2.3-13
		c-0.5-2.6-0.2-3.7,0.9-3.8c1.3-0.1,1.5-0.6,0.6-2.1C163.4,103.8,163,103.8,161.1,105.3 M285.5,104.6c0,1.4,1,3.4,3.4,7.1
		c3.8,5.7,4.9,6.4,1.4,1c-0.9-1.3-2.1-3.2-2.7-4.2c-0.6-1-1.4-2.4-1.7-3.1C285.6,104.3,285.5,104.1,285.5,104.6 M224.1,104.5
		c-0.1,0.1,0,1.1,0.1,2.2c0.1,1.1,0.1,2.5,0,3.1c-0.5,2.7-0.6,5.2-0.1,4.4c0.6-1.1,1-4.2,0.9-6.7C224.7,105.3,224.4,104,224.1,104.5
		 M239.6,107c-1.6,3.3-1.9,8.8-0.7,11.2c1.5,2.8,2.6,7.9,2.4,10.6c-0.1,0.9-0.2,2.3-0.3,3.2c-0.2,2.2,0.3,1.8,0.8-0.7
		c0.8-3.6,0.2-7.4-2.2-13.6c-0.5-1.4-0.7-2.2-0.6-3.2c0.1-1.2,0.1-1.3-0.3-0.8c-1,1.3-0.2-4.1,1-6.5c0.6-1.2,1-2.3,0.9-2.4
		C240.7,104.9,240.2,105.8,239.6,107 M292.9,105c0,0.3,3.7,5.5,4.3,6.1c0.5,0.4,0-0.3-1.9-3c-1-1.3-1.9-2.7-2.1-2.9
		C293.1,105,293,104.9,292.9,105 M314.9,105.8c-2.2,1.5-1.6,4.9,0.8,4.9c2.3,0,3.2-4.1,1.1-5C315.9,105.3,315.6,105.3,314.9,105.8
		 M321.1,107c-1.4,0.8-1.4,3.3,0.1,4.1c1.1,0.6,1.7,0.5,2.6-0.3C326,109,323.6,105.6,321.1,107 M290.4,108.6c0.3,0.5,1.3,2,2.3,3.4
		c2.6,3.6,3.5,5.3,3.6,6.9c0.1,0.8,0.3,1.3,0.4,1.2c0.8-0.9-0.4-3.6-3.7-8.4C290.5,108.1,289.5,106.9,290.4,108.6 M237.4,108.8
		c-0.2,0.3-0.7,1.2-1.1,2.1c-0.4,0.9-1,2.1-1.3,2.7c-1.2,2.2-0.5,6,2.3,11.9c1.3,2.9,1.2,1.9-0.3-2.5c-1.5-4.3-2-7.6-1.4-8.8
		c0.2-0.3,0.5-1.2,0.7-2c0.2-0.8,0.7-1.9,1.1-2.6C238.1,108.3,238.1,108,237.4,108.8 M231.1,110.9c0.3,1.7,0.8,2.1,0.6,0.6
		c-0.2-1.5-0.3-1.8-0.6-1.8C231,109.7,231,110.2,231.1,110.9 M165.3,110.3c-0.1,0.2-0.2,1.5-0.2,2.9c0,2.4-0.7,5.8-1.6,7.9
		c-1.2,3-5.9,7.1-14.9,13.2c-4.3,2.9-6.2,4.5-6.2,5.2c0,0.3-0.5,1.1-1.3,1.7c-1.4,1.3-1.6,2.5-1,5.8c0.5,2.8,1.2,2,1.1-1.3
		c-0.1-2.7-0.2-2.6,2.6-4.7c1.1-0.9,3-2.5,4.3-3.7c1.2-1.2,3.5-3,4.9-4c7.5-5.1,12-9.6,12.9-12.9c0.6-2.1,1.7-2.4,3.7-0.7
		c2.1,1.8,2.6,0.5,0.8-2.2c-0.6-0.9-1.7-2.9-2.5-4.4c-1.2-2.4-1.8-3.2-2.4-3.2C165.5,109.9,165.4,110.1,165.3,110.3 M326.7,110.9
		c-0.4,0.4-0.1,1.8,1.4,6.5c0.9,2.7,2.1,6.7,2.7,8.9c2,7.1,3.7,11.1,4.6,10.7c0.8-0.3-1-6.6-5.1-18.2
		C327.4,110.7,327.2,110.4,326.7,110.9 M271.9,112.1c-1.1,0.3-2.2,0.6-2.5,0.8c-0.3,0.1-1.2,0.3-2,0.3c-1.8,0-1.8-0.2,0,2.3
		c3.9,5.2,11.9,4.8,11.9-0.6C279.3,111.9,276.5,110.9,271.9,112.1 M244.4,112.3c0,0.3,1.4,1.5,2.5,2.1c1.9,1,8.4-0.2,8.7-1.6
		c0.1-0.4-0.3-0.5-5.1-0.5c-2.9,0-5.4-0.1-5.6-0.2C244.6,112.1,244.4,112.1,244.4,112.3 M261,114.8c0.1,0.8,0.3,2.9,0.5,4.8
		c0.3,3.5,0.5,4,1.9,4.7c2.2,1.1,2-0.3-0.9-8.3C261.4,113.1,260.8,112.6,261,114.8 M229.7,114.3c0,0.1,0.2,1.3,0.4,2.7
		c0.7,4,0.7,12.8-0.1,15.4c-0.7,2.3-0.6,2.8,0.2,1c1.9-4.3,2.1-11.5,0.5-16.3C230.2,115.4,229.8,114.2,229.7,114.3 M257.7,115.8
		c-1.4,1.5-4.2,3.7-4.8,3.7c-0.2,0-0.7,0.2-0.9,0.4c-0.7,0.6-3.2,0.5-5.2-0.1c-0.9-0.3-1.7-0.5-1.8-0.5c-0.3,0,0.1,1.1,0.6,1.6
		c0.4,0.3,0.8,1.1,1,1.7c0.6,2.1,1.5,3.3,3.1,4.1c2.9,1.3,4.1,0.8,6.7-2.9c0.7-1,1.3-1.7,1.3-1.7c0.4,0.4-1.6,4.2-3.4,6.5
		c-1.1,1.4-1.3,2.1-0.7,3.3c0.4,0.8,1.7,1.4,1.4,0.7c-0.2-0.6,1-2.7,2.5-4.6c2.6-3.2,3.5-8,2.3-12.7
		C259.5,114.2,259.1,114.3,257.7,115.8 M317.5,115.4c-1,1.3-0.3,3,1.3,3c1.6,0,2.2-2.1,0.9-3.2C318.8,114.5,318.2,114.6,317.5,115.4
		 M280.2,121.8c-1,2.4-5.5,8.1-6.4,8.1c-0.2,0-1.6,0.7-3.2,1.6c-5.5,3.2-10.6,4.3-14.2,3.1c-2.2-0.8-1.2,2.2,1,3.1
		c0.7,0.3,6,1.3,6.1,1.2c0,0,0.1-0.6,0.1-1.2c0.1-1.3,0-1.3,3.5-2.3c1.3-0.4,3-1.1,3.8-1.6c0.8-0.5,1.5-0.9,1.6-0.9
		c0.3,0,0.9,2.1,0.8,2.9c-0.3,1.8,0.4,1.2,3.5-3c1.7-2.3,3.3-6.5,3.8-10.2C281,120.1,281,120,280.2,121.8 M269.7,120.8
		c0,0.3,0.9,1,1.5,1.2c1.8,0.6-2.1,5.5-5.5,6.8c-0.8,0.3-2.3,1.1-3.4,1.9c-1.1,0.7-2.8,1.5-3.7,1.8c-1.4,0.4-2.2,0.9-1.5,0.9
		c0.1,0,1,0.1,2,0.2c1.9,0.2,2.1,0.1,4.9-1.6c1-0.6,2.1-1,2.9-1.1c1.2-0.2,1.6-0.4,3.1-1.8c1-0.9,2.7-2.4,3.9-3.3
		c2.9-2.2,3.9-4.1,1.9-3.6c-1,0.2-3.5-0.3-4.9-1C269.7,120.5,269.7,120.5,269.7,120.8 M195.7,124.2c-0.3,0.2-0.6,0.7-0.6,1.1
		c0,0.9,1.8,4.3,2.3,4.3c0.3,0,2.8-1,3-1.2c0.1-0.1-1.9-2.8-3-4.2C196.9,123.7,196.5,123.7,195.7,124.2 M290.3,125.1
		c0,0.8,0.1,1.1,0.1,0.7c0.1-0.4,0.1-1.1,0-1.5S290.3,124.3,290.3,125.1 M296.1,126.6c0,0.1,0.4,0.8,0.8,1.5
		c0.9,1.4,1.4,3.6,1.2,5.1c-0.1,0.7-0.1,1,0.2,1c0.6,0,0.2-4.2-0.5-5.7C297.1,127.3,296.1,126.1,296.1,126.6 M358.6,127.2
		c-0.6,1.1,0.2,3.6,1,3.1c0.3-0.2,0.4-2.5,0.1-3.2C359.5,126.6,358.9,126.6,358.6,127.2 M189.7,128.2c-6.4,3.6-17.1,13.1-17.4,15.4
		c-0.3,2.7,1.1,3.2,2.6,0.9c2.6-3.9,12.7-11.5,16.2-12.3c1.5-0.3,4-1.3,4-1.6c0-0.3-1.2-2.8-1.5-3.2
		C192.9,126.7,191.9,126.9,189.7,128.2 M303.9,128.1c-1.9,0.8-0.3,1.3,2.5,0.8c1.4-0.3,1.9-0.2,2.9,0.1c1.6,0.5,1.6,0.1,0.1-0.6
		C308.2,127.8,305,127.6,303.9,128.1 M287,129.3c-0.1,0.1,0,0.7,0.2,1.4c0.5,1.5,0.6,4.4,0.3,6.3c-0.3,1.9,0.5,1.1,0.9-0.9
		C288.9,133.6,287.8,128.5,287,129.3 M306.7,129.5c-0.3,0.7,0.3,1.1,2.3,1.4c1.1,0.2,2.8,0.7,3.7,1c0.9,0.4,1.9,0.8,2.1,0.9
		c0.3,0.1,0.2,0-0.1-0.4c-0.7-0.8-4.3-2.6-5.7-2.8c-0.7-0.1-1.4-0.2-1.6-0.3C307.1,129.2,306.8,129.3,306.7,129.5 M202.1,132.1
		c-1.2,0.7-2.9,1.6-3.8,1.9c-4.1,1.4-13,6.1-14.6,7.7c-6.2,6.1-9.3,12.5-7.3,14.8c0.9,1,1.3,2,1.5,3.3c0.1,1-0.3,1.2-0.6,0.3
		c-0.2-0.6-2.7-3.1-3.1-3.1c-0.9,0-1.4,1.4-1.4,3.6c0,2.9-0.3,3.8-1.2,3.6c-0.5-0.1-0.6-0.2-0.5-0.7c0.2-0.8-0.7-3.6-1.2-3.6
		c-0.3,0-0.3,0.4-0.2,1.9c0.2,2-0.1,2.5-0.7,1l-0.3-0.9l-0.3,0.7c-0.2,0.4-0.2,1.7-0.1,3.1c0.2,2.8-0.1,3.3-0.7,1.1
		c-0.4-1.8-1.4-3.8-2-4c-1.1-0.4-2.4,1.2-1.5,1.9c0.3,0.2,0.7,0.9,1,1.6l0.5,1.2l-1.2-1.1c-1.4-1.2-1.6-1.3-2.4-0.7
		c-0.3,0.2-1,0.6-1.7,0.8c-0.6,0.2-1.8,0.9-2.7,1.5c-0.8,0.6-2.2,1.5-3,2c-2.3,1.4-3.6,3.5-3.8,6.2c-0.1,1,0.1,1.1,1.1,0.4
		c0.9-0.6,0.9,0-0.2,1.3c-1.6,2.1-2.2,4.4-1.5,6.8c0.4,1.5,0.6,1.5,1.3,0c0.5-1.1,2.4-3.2,3.4-3.8c0.5-0.3,0,0.6-1.4,2.3
		c-0.9,1.2-1.6,2.9-2.1,5.1c-0.5,2.4-2.2,3.7-4.5,3.5c-1.2-0.1-1.2,0.4-0.2,1.2c0.6,0.4,1.1,0.5,2.1,0.5c0.8,0,1.8-0.1,2.3-0.1
		c0.5,0,1-0.1,1.1-0.2c0.1-0.1,1-0.7,2-1.3c1.5-0.9,2-1.4,2.5-2.4c2-4,3.1-5,11.1-9.1c5.9-3,5.9-3.1,4.8-2.8c-2.3,0.5-4.9,1.4-8,2.8
		c-1.9,0.8-3.8,1.6-4.1,1.7l-0.7,0.2l0.7-0.6c2.8-2.4,8.5-4.5,22.4-8.1c5.4-1.4,6.8-2,9.1-3.8c2.6-2,2.5-2-0.7-0.5
		c-3.3,1.5-9.4,3.3-11.2,3.3c-0.9,0,0.6-0.7,3.4-1.6c1.9-0.6,5.2-1.9,7.2-2.8l3.7-1.7l2.3,0.2c2.7,0.2,4.6,0.9,5.8,2.1
		c0.9,1,0.8,1-1.4,0.1c-1.9-0.8-2.9-0.7-4.9,0.1c-2.9,1.3-2.7,1.9,0.3,1.2l2.1-0.5l1.8,0.7c3.8,1.5,5.9,3.4,7.4,6.9
		c0.9,2.1,3.6,9.3,3.6,9.7c0,0,0.1,0.1,0.3,0.1c0.4,0,0.1-5.9-0.4-7.9c-1-3.5-2.9-7.2-4.9-9.4c-1-1.1-1.8-2.1-1.8-2.1
		c0.2-0.2,4,1.2,4.7,1.8c0.4,0.3,1,0.5,1.3,0.5c0.6,0,3.2,3.2,4.8,5.9c1.3,2.2,2.6,5.9,2.9,8.7c0.2,1.4,0.4,2.8,0.6,3.2
		c0.2,0.4,0.4,1.7,0.5,2.9l0.2,2.1l0-3.1c0.1-4.9-1.2-10.3-3.6-15.6c-1.6-3.4-0.6-3.3,1.4,0.2c0.4,0.7,0.8,1.2,0.9,1.1
		c0.4-0.3,2.2,2.9,3.2,5.9l0.8,2.1l-0.1-2.9c-0.1-2.6-0.2-3.3-1.2-6.1c-1.5-4.2-1.5-4.3-1.1-4c0.6,0.4,2.7,5.2,3.3,7.7l0.6,2.5
		l0-2.8c0-3.4-0.3-4.7-2.2-8.8c-2.9-6-2.5-12.7,1-16.5c0.5-0.6,0.5-0.6,0-0.6c-0.7,0-2,1.4-2.7,2.8c-1.3,2.8-2.2-0.6-2.3-9.2
		c0-3-0.2-5.4-0.4-5.7c-0.4-0.7-0.7,5.2-0.4,9.6c0.1,1.9,0.1,3.5,0,3.5c-0.4,0-1-4.3-1.3-10.5c-0.2-4.6-0.6-6.2-0.9-4.5
		c-0.4,2-0.7,4.4-0.7,5.8c0,1.3-0.1,1.5-0.3,1.1c-0.2-0.3-0.3-1.9-0.2-4.9c0.2-7-1.5-6.9-2.8,0.2l-0.4,2l0-2.3
		c0-2.1,0.1-3.2,0.6-4.7c0.3-1.1-0.6-1-1.9,0.2c-2.4,2.1-2.8,2-0.9-0.2c1.6-1.9,2.5-3.2,2.4-3.4c-0.2-0.2-2.1,0.9-2.8,1.6
		c-0.4,0.4-0.9,0.7-1.2,0.7s-1.1,0.6-1.8,1.3c-0.7,0.7-1.5,1.3-1.7,1.3s-1.1,0.5-1.9,1c-2.1,1.4-2,1.4-2.4,1.1
		c-0.2-0.1,0.5-0.8,2.1-2.1c2.8-2.1,6-5.1,5.7-5.3c-0.1-0.1-0.6,0.2-1,0.6c-2.8,2.7-7,5.2-11.6,7c-4.3,1.7-4.5,1.4-0.3-0.7
		c4.4-2.2,6.8-3.8,9.9-6.5C205.2,130.4,204.7,130.5,202.1,132.1 M306.7,132.3c-0.2,0.5,0.1,0.8,2.9,2.6c1,0.7,2.4,1.8,3.1,2.4
		c1.5,1.4,1.9,1.3,1-0.4C312.1,134,307.3,130.7,306.7,132.3 M311.4,133.4c0.1,0.5,0.4,0.8,2,1.4c1.8,0.6,2.5,1.1,4.5,2.5
		c1.1,0.8,0.7-0.3-0.5-1.6C315.7,133.7,311.2,132.1,311.4,133.4 M302.7,133.6c-0.8,0.2-0.6,1.3,0.4,1.7c0.5,0.2,1.2,0.6,1.6,1
		c0.8,0.7,1.3,0.6,1.3-0.4C306,134.8,304,133.3,302.7,133.6 M357.2,135.2c-2.9,0.2-10.5,1.6-13.6,2.4c-2,0.5-4.4,1-5.4,1.2
		c-3.6,0.4-4.3,1.2-4,4.1c0.4,4.3,1.5,5,6.1,3.7c1.9-0.5,5.2-1.4,7.4-2s4.2-1.3,4.5-1.5c0.8-0.7,1.1-0.8,5.4-1.4
		c4.5-0.6,5.6-0.9,5.1-1.4c-0.6-0.6-7-0.4-10.4,0.4c-2.6,0.6-5.4,0.9-5,0.6c0.1-0.1,1.4-0.4,2.9-0.7c2.9-0.6,5.2-1.7,5.5-2.7
		c0.2-0.7,4.7-1.2,4.6-0.5c0,0.2,0.4,0.4,1.5,0.4l1.5,0.1l0-1C363.2,135.7,360.6,134.9,357.2,135.2 M307.8,138.4
		c-0.4,0.4-0.1,1.1,1.2,2.9c4.2,5.6,5,5.8,1.9,0.5C309,138.3,308.4,137.7,307.8,138.4 M286.1,140.8c-0.1,0.6-0.2,1.3-0.3,1.6
		c-0.2,0.8,0.4,0.8,0.7,0c0.5-1.4,0.6-2.6,0.2-2.6C286.5,139.8,286.3,140.2,286.1,140.8 M321,140.1c0.1,0.4,1.3,0.6,1.3,0.2
		c0-0.3-0.6-0.6-1.1-0.6C321,139.8,320.9,139.9,321,140.1 M316.2,140.5c-0.2,0.5,0.9,1.7,1.4,1.7c0.5,0,0.4-0.6-0.2-1.4
		C316.8,140,316.5,139.9,316.2,140.5 M188.9,144c-3,4.3-3.1,5.6-0.2,3c2-1.8,5.2-4.1,5.3-3.7c0.1,0.2,0.3,0.1,0.7-0.2
		c0.4-0.2,0.6-0.3,0.6-0.2s-0.4,0.5-0.9,0.7c-2.6,1.5-7,6.6-7.8,9c-0.4,1.2-1.3,2.8-3.2,5.4c-0.4,0.6-1.7,1.1-2,0.8
		c-0.1-0.1,0.1-0.5,0.4-0.9c1.1-1.4,1.7-3,2.6-6.5c1.3-4.8,4-9.4,5.7-9.6C190.3,141.9,189.7,142.9,188.9,144 M206.4,147.7
		c0.6,0.6,0.7,0.6,0.5,0.2c-0.4-1-0.5-4.3-0.2-4.8c0.2-0.4,0.3-0.3,0.3,0.7c0,1.6,0.7,4.1,1.5,5.5c2.5,4.4,1.2,8.4-3.4,10.6
		c-1.4,0.7-2.6,1.4-2.8,1.6c-0.2,0.2-0.5,0.4-0.7,0.4c-0.6,0-3.1,0.8-3.5,1.2c-0.3,0.2,0,0.4,1.2,0.6c1.6,0.4,3.3,1.3,2.9,1.7
		c-0.1,0.1-1,0-2-0.2c-3-0.6-4.7-0.5-6.7,0.5c-4.3,2.3-13.3,4.4-13.3,3.1c0-0.1,0.3-0.3,0.7-0.3c1.5,0,6-1.4,9.6-2.9
		c2-0.9,3.9-1.7,4.2-1.8c1.3-0.5-0.7-0.4-3.6,0.3c-6,1.3-10.2,1.4-12.7,0.2c-1.1-0.5-1-0.7,0.7-1.3c3.6-1.2,9-7.2,10.4-11.5
		c1.3-3.9,6.4-7.8,11.1-8.5c0.3,0,0.8-0.3,1.1-0.5c1.3-1.1,1.4-0.3,0.1,0.9l-1,1l0.7,0.2c0.8,0.2,2.3-1,2.7-2
		c0.5-1.5,1.1-0.6,1.2,1.8C205.6,146.8,205.7,147.1,206.4,147.7 M321.3,142.5c-0.2,0.3,1.4,1.8,1.9,1.8c0.7,0,0.6-0.6-0.1-1.3
		C322.3,142.2,321.6,142,321.3,142.5 M386.4,143.3c-0.1,0.2-1,1.8-2,3.7l-1.7,3.4l-0.8-0.3c-0.4-0.2-1.1-0.4-1.5-0.6
		c-1.6-0.8-2.8-0.3-3.3,1.6c-0.2,0.8-1.2,4-2.1,7.2c-2.5,8.2-2.4,7.4-0.2,9.6c1.9,1.8,2.1,1.9,7.4,3.5c0.9,0.3,2.2-4.6,3.9-15.1
		c2.1-12.7,2.2-13.3,0.8-13.3C386.7,143,386.5,143.1,386.4,143.3 M314.1,143.6c-0.2,0.6,1.7,3.4,2.3,3.4c0.5,0,0.5-0.1,0.4-0.9
		C316.4,144.2,314.6,142.5,314.1,143.6 M167.6,144.7l-0.6,0.6l1,1.6c0.5,0.9,1,1.7,1,1.8s0.6,0.9,1.2,1.8l1.2,1.6l0.8-1.3
		c0.7-1.2,0.7-1.3,0.4-1.9c-0.2-0.3-0.8-1.2-1.2-2C169.5,143.8,168.8,143.4,167.6,144.7 M308.5,144.7c-0.6,1.4,4.1,7.6,5.8,7.6
		c0.4,0,0.3-0.3-1-1.6c-0.7-0.8-1.8-2.4-2.5-3.8C309.6,144.5,308.9,143.8,308.5,144.7 M185.1,145.6c-0.2,0.4-0.6,1.2-1,1.8
		c-1.2,1.9-1.4,2.2-1,2.7c0.6,1-4.1,8.7-4.7,7.8c-1.2-1.5,0.8-5.9,5.2-11.3C185,144.8,185.7,144.4,185.1,145.6 M318.4,145.6
		c-0.6,0.6,1.5,3.8,4.4,6.7c2.1,2.1,3,1.7,1.1-0.5c-0.5-0.6-1.6-2.1-2.3-3.2C319.7,145.6,319,145,318.4,145.6 M325.5,147.4
		c0.3,0.4,0.7,0.6,0.8,0.5c0.2-0.2-0.8-1.2-1.1-1.2C325,146.7,325.1,147,325.5,147.4 M210.2,149.5c3.8,5.1,2.3,10.3-3.6,12.5
		c-0.6,0.2-0.4-0.1,0.9-1.3c4.2-3.9,4.8-7,2.1-11.1C208.5,147.9,209,147.8,210.2,149.5 M314.9,149.3c-0.1,0.2-0.1,0.6,0.1,0.8
		c2.3,3,5.3,6.5,5.5,6.3c0.4-0.4-1.3-3.3-2.8-4.8c-0.9-0.9-1.5-1.7-1.5-2.1C316.1,148.7,315.1,148.6,314.9,149.3 M324.9,149.3
		c0,0.6,1.8,1.4,2.2,1c0.2-0.2,0-0.4-0.8-0.9C325,148.8,324.9,148.8,324.9,149.3 M319.4,151.2c-0.1,0.2-0.1,0.5,0.1,0.6
		c0.1,0.1,0.9,0.7,1.8,1.3c1.9,1.5,2.1,1.4,0.8-0.3C320.6,150.7,319.8,150.2,319.4,151.2 M310.9,152.4c-0.3,0.7,1.6,5.1,2.6,6.3
		c0.7,0.7,1.4,0.8,1.2,0.1C313.1,153.7,311.5,150.9,310.9,152.4 M195.3,152.6c-1.4,0.5-2,2.5-1.2,3.7c1.2,1.7,4.4-0.2,4.4-2.6
		C198.5,152.7,196.7,152.1,195.3,152.6 M327.2,153.1c-0.4,0.4-0.1,0.7,1,1.1c1.4,0.6,2.9,0.7,2.3,0.1
		C330,153.9,327.4,152.8,327.2,153.1 M359.1,153.1c-0.7,0.5,0,0.7,2.3,0.9c1.3,0.1,2.7,0.2,3.2,0.3c1.1,0.2,1.2-0.2,0.1-0.6
		C362.6,152.9,359.9,152.6,359.1,153.1 M356.3,154.6c-0.4,0.2-1,0.5-1.2,0.8c-0.3,0.3-0.6,0.4-1.4,0.3c-1-0.2-1.1-0.1-0.9,0.5
		c0.3,0.8,0.6,1.1,1.3,0.9c0.3-0.1,0.7-0.1,1-0.1s0.8-0.3,1.1-0.7c0.4-0.4,1.1-0.8,2-0.9c1.6-0.3,1.7-0.4,1.5-0.8
		C359.5,154.1,357.2,154.1,356.3,154.6 M342.1,154.7c-0.4,0.1-1.8,0.4-3.1,0.7c-1.9,0.4-2.3,0.6-2.3,1c0,0.6,1.4,0.7,3.5,0.2
		c4.9-1.3,6.8-1.4,8.4-0.6c1.4,0.7,1.6,0.5,0.4-0.4C347.7,154.6,344.3,154.1,342.1,154.7 M331.7,155.3c0.1,0.4,1.7,1.2,2.4,1.3
		c0.7,0,0.3-0.4-0.9-1.1S331.5,154.9,331.7,155.3 M323.4,156.1c0.6,0.5,2,1.8,3.2,3c4.1,3.9,4.9,3.8,1.8-0.3c-2.3-3-2.7-3.3-3.3-2.8
		c-0.2,0.2-0.4,0.2-0.5,0.1c-0.1-0.1-0.6-0.3-1.2-0.5l-1-0.3L323.4,156.1 M314.7,156c-0.2,0.6,1.3,2.9,2.8,4.2c0.9,0.8,1,1,0.6,1.3
		c-0.3,0.3-0.3,0.5-0.1,1.1c0.2,0.4,0.5,1.8,0.7,3.1c0.4,2.3,0.8,3.4,1.3,3.8c0.4,0.3,0.8,0,0.6-0.5c-0.1-0.2-0.3-1.7-0.4-3.2
		c-0.1-1.5-0.4-3-0.5-3.4c-0.2-0.6-0.2-0.7,0.3-0.8c0.5-0.1,0.5-0.2-0.6-1.3c-0.6-0.7-1.7-2-2.3-3C315.8,155.5,315,155.1,314.7,156
		 M295.9,156.1c-0.2,0.2-0.3,0.5-0.3,0.8c0,0.3-0.1,0.5-0.3,0.5c-0.2,0-0.2,0.3-0.2,0.6c0.2,1.3,2.4,0.6,2.4-0.8
		c0-0.8-0.4-1.4-0.9-1.4C296.4,155.8,296.1,155.9,295.9,156.1 M322.3,156c0,0.1,0.4,0.7,1,1.3l0.9,1.1l-0.8-1.3
		C322.5,155.8,322.3,155.6,322.3,156 M320.9,156.5c0,0.6,3.1,4.1,4.1,4.7c0.3,0.2-0.2-0.5-1.1-1.4c-0.9-0.9-1.9-2.1-2.3-2.6
		C321.3,156.6,321,156.3,320.9,156.5 M363.3,156.8c-1.1,0.3-0.3,0.6,1.4,0.6c1.4,0,1.9-0.1,1.8-0.3
		C366.4,156.7,364.2,156.5,363.3,156.8 M342.1,157.1c-0.4,0.1-1.5,0.2-2.4,0.2c-2.7,0.1-3.1,1.3-0.6,2c1.4,0.4,2.2,0.3,2-0.2
		c-0.2-0.4,2.7-1,5.3-1c1.5,0,2-0.1,2-0.3C348.1,157.1,344.2,156.6,342.1,157.1 M260.2,158.5c-0.8,1.1-0.8,1.8,0.1,2
		c1.2,0.3,2.1-1,1.7-2.2C261.7,157.4,260.9,157.5,260.2,158.5 M298.3,158.6c-1.1,1.2-0.6,3.1,0.8,3.1c0.6,0,1.6-1.1,1.6-1.8
		C300.7,158.1,299.4,157.4,298.3,158.6 M361.3,158.3c-0.5,0.5-0.4,0.7,0.6,0.7c0.8,0,1.5-0.4,1.5-0.9
		C363.3,157.8,361.6,157.9,361.3,158.3 M356.6,158.7c-0.4,0.6,0.8,1.4,1.4,1c0.6-0.4,0.6-0.5,0.1-0.8
		C357.6,158.4,356.8,158.4,356.6,158.7 M320.8,158.9c-0.4,0.4,0,1.1,1.8,3c3.1,3.2,5,3.7,2.5,0.7c-0.8-0.9-1.8-2.2-2.3-2.8
		C322,158.8,321.3,158.5,320.8,158.9 M281.1,159.4c-0.7,0.7-0.5,1.9,0.2,2.3c1.2,0.6,2.7-1,2-2.2C283,158.9,281.7,158.8,281.1,159.4
		 M347.7,160.2c-0.1,0.1-0.7,0.2-1.2,0.3c-1.8,0.3-1.3,1.3,0.6,1.1c0.8-0.1,2.8-0.2,4.4-0.3c2.6-0.2,2.8-0.2,2.5-0.6
		C353.5,160.2,348.5,159.9,347.7,160.2 M333.3,160.6c-0.6,1,4.3,4.3,7,4.7c1.7,0.3,1.5-0.3-0.3-1c-0.9-0.3-1.8-0.8-1.9-1
		C337.1,162,333.7,160.1,333.3,160.6 M225.2,161.9c0,1.5,1,2.9,4.8,6.8c2.1,2.1,4.1,4.3,4.6,5c1,1.5,0.9,0.5-0.3-2
		c-1-2.1-1.9-3.1-4.2-4.7c-2.1-1.4-3.1-2.5-4.2-4.6C225.2,161,225.2,161,225.2,161.9 M292.8,161.3c-0.3,0.3-0.2,2.4,0.1,2.6
		c1.1,0.7,2.4-1.2,1.7-2.3C294.3,161.2,293.2,160.9,292.8,161.3 M305.2,162.2c-0.3,0.6-1.1,1.6-1.9,2.2c-1.5,1.3-1.6,1.7-0.8,3.3
		c1.7,3.3-2.1,10.1-5.6,10.1c-0.6,0-0.6,0.2,0.1,0.9c1.4,1.5,1.9,7.6,0.8,9.9c-2.3,4.8-5.5,7.1-11.4,8.3c-4.2,0.8-5.1,1.2-7,3
		c-1.3,1.2-1.7,1.4-3.2,1.7c-1,0.2-2.8,0.6-4,1c-1.2,0.4-2.8,0.8-3.4,0.9c-1.6,0.4-1.6,1.2,0,1.6c0.9,0.2,1.6,0.2,3.6-0.1
		c1.4-0.2,3.9-0.5,5.6-0.6c3.2-0.2,4.9-0.9,4.9-2.1c0-1.7,2.7-2.4,4.3-1.3c0.5,0.4,2,1.2,3.4,1.9l2.5,1.2l3.6-0.3
		c3.9-0.3,4.8-0.2,9.2,0.9c11,2.8,15.7,0.2,19.4-10.6c1.7-4.8,1-6.5-6-14.3c-7.1-7.9-10.5-12.6-11.9-16.2
		C306.3,160.9,306,160.7,305.2,162.2 M356.3,161.6c-0.3,0.7,0.2,0.9,2,0.8c2.1-0.1,2.4-0.6,0.5-0.9c-0.8-0.1-1.6-0.2-1.8-0.3
		C356.7,161.2,356.4,161.3,356.3,161.6 M184.3,162.8c-1.8,1.2-1.6,1.3,2.3,0.6c2.6-0.5,3.6-0.9,1.9-0.9c-0.5,0-1.4-0.2-1.9-0.4
		C185.9,161.7,185.8,161.8,184.3,162.8 M342.1,161.9c-0.1,0.1,0.2,0.4,0.6,0.5c0.8,0.3,2,0,2.2-0.5
		C345,161.6,342.4,161.5,342.1,161.9 M260.7,162.3c-0.5,0.6-0.2,1.8,0.6,2.3c1.4,0.8,2.3-0.6,1.4-2
		C262.2,161.9,261.2,161.7,260.7,162.3 M255.4,162.9c-0.3,0.8,0.7,2.4,1.6,2.5c1.3,0.2,2-1.1,1.2-2.2
		C257.7,162.5,255.7,162.3,255.4,162.9 M352.4,163.5c0,1.2,0.7,1.4,5,1.5c2.1,0,4.2,0.2,4.5,0.3c0.9,0.3,0.6-0.4-0.5-1.1
		c-0.7-0.4-1.4-0.5-3.4-0.5c-2.1,0-2.5-0.1-2.7-0.5C354.8,162.3,352.4,162.6,352.4,163.5 M328.7,163.6c0,0.2,0.3,0.4,0.7,0.5
		c0.4,0.1,0.7,0.1,0.7,0.1s-0.3-0.3-0.7-0.5C328.8,163.3,328.7,163.3,328.7,163.6 M278.9,164.1c-0.7,0.7-0.2,2.3,0.8,2.3
		c0.4,0,1.3-0.9,1.3-1.4C280.9,164.3,279.4,163.6,278.9,164.1 M349.6,164.2c-0.2,0.6,0,0.9,1.6,1.6c0.8,0.4,2.4,1.3,3.6,2.2
		c3.3,2.2,3.7,2,1-0.5C353,164.7,350,163.1,349.6,164.2 M322.4,164.5c-0.7,0.7,1.8,3.7,4.1,4.9c1.7,0.9,1.9,0.5,0.4-0.8
		c-0.7-0.6-1.8-1.8-2.5-2.7C323.4,164.4,322.9,164.1,322.4,164.5 M328,165.4c-0.8,1.3,3.8,4.5,6.9,5c1.6,0.2,1.5,0.1-1-1.4
		c-1.2-0.7-2.9-1.9-3.8-2.6C328.6,165.1,328.3,164.9,328,165.4 M223.9,166.1c0,1.1,1.3,3,3.8,5.7c3.4,3.6,5.2,7.6,5.2,11.8
		c0,1.7,0.4,2,0.6,0.5c0.8-5.1-1.2-11-4.8-13.7c-1.3-1-2.8-2.5-4.2-4.3l-0.7-0.9L223.9,166.1 M260.1,166.5c-0.8,0.8-0.1,2.4,1.2,2.4
		c1.5,0,1.8-1.2,0.6-2.2C260.9,165.8,260.8,165.8,260.1,166.5 M290.5,166.3c-0.4,0.5-0.3,1.5,0.3,1.8c0.7,0.4,1.8-0.2,1.8-1
		C292.7,166,291.3,165.5,290.5,166.3 M341.9,166.5c-0.1,0.1,0.1,0.3,0.3,0.4c1.2,0.4,1.7,0.7,1.7,1c0,0.3,0.3,0.4,1.6,0.4
		c2.6,0,2.3-0.5-1-1.6C342.8,166.1,342.1,166.1,341.9,166.5 M321.9,167.2c-0.3,0.3-0.2,1.2,0.4,2.4c0.4,0.7,0.8,1.9,1,2.6
		c0.6,1.9,1.3,3.3,2.3,4.2c1.2,1.1,1.3,0.7,0.3-1c-0.5-0.8-1-2.3-1.3-3.7C324.1,168.2,322.9,166.2,321.9,167.2 M367.1,169.6
		c-2.7,2.9-2.7,2.7-1.9,4.3c1.1,2.5,5.2,5.8,9.9,8.1c2.6,1.2,3.6,1.4,1.6,0.2c-1.7-0.9-1.6-1.3,0-0.7c1.4,0.5,5.4,1.5,6.3,1.5
		c0.4,0-0.3-0.2-1.5-0.5c-2.6-0.6-6.5-2.6-8.1-4c-1.2-1.1-1.1-1.1,0.3-0.2c1.5,1.1,8,3,9.8,2.9c0.2,0-0.3-0.2-1.3-0.4
		c-1.7-0.4-5.3-1.9-5-2.1c0.1-0.1,1,0.1,2,0.4c1,0.3,1.9,0.5,2,0.5s-0.9-0.5-2.3-1.2c-2.7-1.3-4.3-2.4-2.4-1.6
		c1.7,0.7,2.2,0.7,1.1,0.1c-1.3-0.7-2.9-1.9-2.7-2c0.1-0.1,1,0.3,2.1,0.8c2.1,0.9,6.3,2.4,6.5,2.2c0.2-0.2-1-0.8-2.7-1.5
		c-0.9-0.4-1.6-0.8-1.7-1c-0.1-0.2-0.6-0.6-1.2-0.9c-3-1.5-6.8-5.2-6.8-6.6c0-0.5-0.5-0.8-1.1-0.8
		C369.7,167,368.5,168.2,367.1,169.6 M337.2,167.6c1,1.2,2.9,2.1,3.7,1.8l0.9-0.3l-0.8-0.6c-0.5-0.3-1.3-0.7-1.9-0.8
		c-0.6-0.1-1.3-0.2-1.6-0.3C336.9,167.2,336.9,167.2,337.2,167.6 M276.3,169c-0.4,0.8,0,1.5,0.8,1.7c0.8,0.1,1.4-0.4,1.4-1.1
		C278.5,168.2,276.9,167.8,276.3,169 M293.4,169.4c-0.7,0.7-0.8,1-0.8,2.1c0,2.2,1.6,2.5,3.2,0.7
		C297.9,169.9,295.6,167.2,293.4,169.4 M298.1,169.7c0.3,1.8-0.9,3.9-2.2,3.9c-0.7,0-2.1,1.2-1.8,1.5c0.1,0.1,0.7,0.2,1.4,0.2
		c2.4,0.1,4.3-3.3,3.4-5.8C298.4,168.5,297.9,168.7,298.1,169.7 M329,169.5c-0.6,0.8,2.7,3.8,6,5.4c2.8,1.4,3.3,1.1,0.8-0.5
		c-1.1-0.7-2.8-2.1-3.9-3.3C330.1,169.1,329.5,168.8,329,169.5 M348.8,169.7c0.1,0.1,0.4,0.3,0.7,0.3s0.5-0.1,0.4-0.3
		c-0.1-0.1-0.4-0.3-0.7-0.3C348.9,169.4,348.7,169.5,348.8,169.7 M351.6,169.7c-0.4,0.3-0.2,1,0.5,1.2c0.3,0.1,1.1,0.4,1.9,0.8
		c1,0.4,1.5,0.6,1.7,0.4C356.4,171.3,352.6,169.1,351.6,169.7 M262.8,170.3c0,0.3,0.2,0.4,0.5,0.4c0.6-0.1,0.5-0.6-0.1-0.7
		C263,169.9,262.8,170.1,262.8,170.3 M288.7,170.4c-0.6,0.6-0.7,1.1-0.2,1.6c0.9,0.9,2.7-0.3,2-1.4
		C289.9,169.9,289.3,169.8,288.7,170.4 M265.7,171c0,0.6,0.8,1.2,1.3,0.8c0.6-0.4,0.2-1.2-0.6-1.3
		C265.9,170.4,265.7,170.5,265.7,171 M269,171.4c-1.2,0.5,0.6,2.4,2,2.2c0.6-0.1,0.8-1.4,0.3-2C271,171.3,269.7,171.2,269,171.4
		 M337,171.7c-0.2,0.6,0.4,0.9,1.8,0.9l1.2,0l-1-0.7C337.9,171.2,337.3,171.1,337,171.7 M327.1,172.1c0,2.1,5.5,7.7,7.6,7.7
		c0.5,0,0-0.8-1-1.4c-1.7-1.1-2.8-2.4-4.1-4.7C328.4,171.5,327.1,170.7,327.1,172.1 M344,171.9c-0.3,0.7,0.4,1.1,2.3,1.7
		c1,0.3,2.8,1.2,4.1,2.1c3.2,2.1,3.5,1.5,0.6-1.2C348.4,172.2,344.4,170.7,344,171.9 M196.8,172.6c0.1,0.1,0.7,0.4,1.5,0.7
		c0.7,0.2,1.6,0.7,2,1c0.4,0.3,1.1,0.8,1.7,1.1c1,0.6,1.6,1.2,4,4.2c1.3,1.7,1.4,1.4,0.2-0.8c-1.1-2-2.9-3.9-4.6-5
		C200,172.9,196.4,171.9,196.8,172.6 M190.9,173.3c-3.6,0.8-3.2,1.4,0.8,1.3l3.3-0.1l2.4,1c1.3,0.6,2.5,1.1,2.8,1.3
		c0.6,0.5,5.4,6.4,6.6,8.2c1.2,1.7,1.4,1.7,0.7,0C204.9,178.7,195.6,172.2,190.9,173.3 M211.2,174.3c0.6,1.5,2,6.3,2.5,9.1
		c0.4,2.1,0.4,5.3,0,7.4c-0.3,1.5-0.2,1.9,0.5,5c2.2,8.7,2.2,13.2,0.1,17.8c-1.4,3.1-0.4,2.8,1.3-0.5c2.1-4,2.5-8,1.4-14.2
		c-0.4-2.1-0.7-4.2-0.7-4.7c0.1-8-1.3-16.9-3-18.4c-0.3-0.3-0.9-1.1-1.4-1.8C210.9,172.4,210.4,172.4,211.2,174.3 M275.1,173.2
		c-0.5,0.5-0.4,1.5,0.2,1.8c1,0.5,2.1-0.6,1.6-1.6C276.6,172.8,275.6,172.7,275.1,173.2 M360.1,173.2c0,0.4,1.3,1.8,1.6,1.8
		c0.4,0,0.2-1.3-0.3-1.7C360.9,172.8,360.1,172.7,360.1,173.2 M339.2,173.6c0.4,0.3,3.5,1.6,4,1.6c0.7,0,0.4-0.5-0.8-1.2
		C341.3,173.4,338.6,173.1,339.2,173.6 M286.6,174.1c-0.8,0.6-0.8,2.4-0.1,2.8c1.7,0.9,3.5-1.3,2.2-2.7
		C288,173.6,287.4,173.5,286.6,174.1 M143.6,174.5c-2,0.6-2.4,1-4.1,4.1c-1.7,3.1-1.7,4.3-0.2,5.8c0.7,0.6,1.3,1,1.8,1
		c0.8,0,1.5,0.4,3,1.5c1.3,1.1,1.4,0.9,0.3-1.4c-0.9-2-1-2.3-0.4-2.3c0.2,0,0.5,0.4,0.7,0.9c0.5,1.5,0.7,1.3,0.6-0.6
		c-0.1-1.5-0.1-1.9,0.4-2.2c0.5-0.4,0.5-0.4,0.5,1.1c0,1.6,0.9,4,1.4,4c0.4,0,0.4-0.3-0.1-1.6c-0.7-1.8-0.5-3.5,0.4-5.3
		C150.2,175.3,148.3,173.1,143.6,174.5 M353.7,174.7c0,0.3,0.3,0.6,0.8,0.8c0.4,0.2,1.3,0.9,1.9,1.5c1.7,1.9,2.3,1.2,0.8-0.9
		C356,174.4,353.7,173.5,353.7,174.7 M277.9,174.8c-0.6,0.4-0.8,1.3-0.5,1.8c0.3,0.4,1.8,0.5,2.3,0
		C280.9,175.6,279.1,173.9,277.9,174.8 M227.2,176.5c0.1,0.8,0,1.1-0.4,1.4c-0.5,0.4-0.5,0.5-0.2,1.6c0.3,1.2,1.1,5.3,1.1,5.8
		c0,0.2-0.2,0.3-0.3,0.3c-0.3-0.1-0.4,1.3-0.5,5.9c-0.2,6-0.5,8.4-1.2,10c-0.2,0.5-0.7,3-1.2,5.6c-1.8,10.7-4.2,14.5-12.4,20
		c-1.9,1.3-3.1,2.6-4,4.3c-1.2,2.5-0.8,2.6,1,0.2c1.1-1.4,2.1-2.4,2.8-2.8c1.5-0.8,1.5-0.7-0.7,2c-2,2.5-3.4,4.9-3.6,6.4
		c-0.1,0.9-0.1,0.9,0.5-0.3c1-2,2.6-3.9,8.1-9.8l1.1-1.2l-0.4,1.1c-2.2,5.2-2.5,6.1-2.8,8.1c-0.2,1.2-0.4,2.6-0.4,2.9
		c-0.1,0.7,0.2,1.6,0.5,1.1c0.1-0.1,0.5-1.5,0.9-3c1.5-5.7,4.5-10.8,8.4-14.3c1.4-1.3,2.9-3,3.7-4.1c0.7-1.1,1.3-1.8,1.4-1.6
		c0.2,0.5-0.4,1.8-1.5,3.4c-1.1,1.7-1.4,3.2-0.8,3.4c0.5,0.2,0.9-0.2,2.1-2.5c0.5-0.9,1-1.7,1.1-1.7c0.3,0-1,3.3-1.8,4.6
		c-0.9,1.5-3.7,6.9-3.3,6.5c3.9-3.9,8.2-13.2,7.1-15.6c-0.1-0.3,0.1-0.6,0.6-0.9c2-1.3,2.7-3.9,2.8-10.1c0.1-5.5,0-5.3-1.4,1.7
		c-0.8,4.4-1.4,5.6-3,6.7c-1.6,1.2-2,1.4-1.8,1.1c0.1-0.1,0.4-2,0.6-4.1c0.4-3.1,0.6-4.1,1.1-4.8c1.8-2.8,3.6-9.6,3.6-13.3
		c0-1.1-0.1-1-0.5,0.9c-1.7,6.8-2.7,8.9-4.2,8.6c-1-0.2-0.8-1.4,0.9-5.5c2.3-5.7,2.4-10.8,0.2-15c-0.7-1.3-0.8-0.9-0.4,1.3
		c0.5,3.3,0.2,10.7-0.3,9.1c-0.1-0.2-0.2-1.9-0.3-3.8c-0.2-3.4-0.6-6.6-1.4-9.2C227.2,175.3,226.9,175.1,227.2,176.5 M265.2,176.5
		c-0.8,0.6-0.7,1.5,0.2,1.7c1,0.1,1.5-0.6,1.1-1.4C266.2,176,266.1,175.9,265.2,176.5 M343.1,176.8c0.3,0.1,0.7,0.1,0.9,0
		c0.3-0.1,0-0.1-0.5-0.1S342.9,176.7,343.1,176.8 M272.8,177.5c-1,1,0,2.8,1.3,2.2c0.8-0.4,1.1-1.4,0.6-1.9
		C274.1,177.2,273.3,177.1,272.8,177.5 M289.3,177.4c-0.1,0.1,0.6,1,1.5,1.8c3.4,3.3,3,9.5-0.7,10.9c-0.8,0.3-1.2,0.6-1.1,0.8
		c0.1,0.2,0,0.4-0.1,0.5c-1.2,0.7,0.5,0.8,1.9,0.1c3.9-2,5.2-9.1,2.2-12.4C292,178.1,289.6,176.9,289.3,177.4 M179.4,178.6
		c-1.6,0.5-3.8,1.5-5.2,2.3c-1.4,0.8-4.3,2.3-6.4,3.4c-4.6,2.3-8.4,4.7-9.4,6.1c-0.4,0.5-1.3,1.3-1.9,1.7c-0.7,0.4-1.4,1.1-1.6,1.6
		c-0.5,1-2,1.8-3.5,1.8c-1.1,0-1.1,0-0.9,0.9c0.5,2.6,6.3,3.2,6.3,0.6c0-1.8,1.9-4,5.2-6.1c1.7-1,3.1-1.9,3.2-1.9
		c0.1,0,1.3-0.7,2.8-1.6c1.4-0.9,4.1-2.4,5.9-3.5c3.4-2,4.5-2.8,4.5-3.3c0-0.2,0.6-0.5,1.3-0.8C184.4,178.1,184.2,177,179.4,178.6
		 M339.3,178.2c0,0.6,0.3,0.9,1.9,1.5c0.7,0.3,2,0.8,3,1.3c3.5,1.6,2-0.5-1.6-2.2C340.2,177.5,339.3,177.4,339.3,178.2 M346.5,178
		c0,0.1,0.5,0.3,1.2,0.5c1,0.3,1.7,0.2,1-0.2C348.4,178.2,346.5,177.9,346.5,178 M238.5,178.6c0,0.3,0.3,1.7,0.7,3.1
		c0.4,1.4,0.7,3.2,0.8,4c0.3,2.3,0.7,0.8,0.6-2c-0.1-2.5-0.5-3.8-1.5-5C238.6,178.1,238.5,178.1,238.5,178.6 M266.6,178.8
		c-0.4,0.4-0.4,1.1,0.1,1.5c0.2,0.2,0.4,0.5,0.4,0.7c0,0.5,0.8,0.7,1.4,0.4c0.6-0.3,0.7-1.5,0.1-2.3
		C268.1,178.4,267.1,178.3,266.6,178.8 M361.8,181.1c-13.4,14.7-16.5,30-8.6,41.7l1.1,1.6l0.8-0.9c1.3-1.5,3.5-5,4.6-7.1
		c1.2-2.4,4.4-9.8,4.4-10.2c0-0.1,0.3-0.6,0.7-1c0.4-0.4,0.9-1,1.1-1.3c0.3-0.5,0.3-0.4,0.2,0.3c-0.2,1.5-3.3,13.3-4.1,15.6
		c-0.4,1.3-1,3.3-1.2,4.5c-0.2,1.2-0.6,3-0.8,3.8c-0.7,2.6-0.8,5-0.2,6.2c0.5,1.1,4,3.6,4.9,3.6c1.3,0,7-11.6,8.4-16.9
		c2.2-8.4,3.2-11.7,6.3-21.1c2.7-8.4,2.2-9.8-5.6-14.1c-4.4-2.4-6.9-4.3-8-6.2C364.8,178.2,364.2,178.4,361.8,181.1 M280,179.7
		c-4.2,3.3-1.8,12.4,3.2,12.4c1.4,0,1.6-0.4,0.5-0.6c-0.8-0.2-2.4-1.4-2.1-1.6c0.1-0.1,0.9,0,1.7,0.2c4.7,1.2,8.4-2.4,7-6.8
		c-0.6-2-1.8-2.7-4.1-2.5c-2.1,0.2-2.2,0.1-1.5-0.7c0.7-0.8-0.5-0.6-1.5,0.2c-1.3,1.1-1.8,2.5-1.8,4.8c0,2.1-0.3,2.4-0.9,1.1
		c-0.9-1.7-0.5-4.2,1-6.5C282,178.7,281.2,178.7,280,179.7 M336.7,179.5c0,0.5,1.9,1.8,5,3.4c1.6,0.8,2.7,0.9,1.6,0.2
		c-0.4-0.2-1.8-1.3-3.1-2.3C337.7,178.9,336.7,178.6,336.7,179.5 M351.1,181.4c0,0.5,1.3,1,2.3,0.8c0.4-0.1,0.3-0.2-0.4-0.7
		C351.8,180.7,351.1,180.7,351.1,181.4 M271.7,181.6c-0.2,0.5,0.2,1.3,0.7,1.3c0.2,0,0.4-0.3,0.5-0.9C273,181,272,180.7,271.7,181.6
		 M236.6,182.6c-0.1,1.7-0.1,11.4,0.1,11.6c0.3,0.4,1.4-4,1.5-6.2c0.1-2.1-0.3-4.4-1.1-5.5l-0.4-0.5L236.6,182.6 M346.3,183.2
		c-0.1,0.3,0,0.6,0.5,0.9c0.4,0.2,1.3,1.1,2.2,1.8c2.4,2.2,2.4,0.7,0-1.8C347.7,182.7,346.7,182.4,346.3,183.2 M182.9,183.6
		c-3.7,2.1-0.6,7.9,4.2,7.9c1.6,0,1.9-0.3,1-1.2c-0.8-0.7-1.3-2.3-1.5-4.3C186.4,183.2,185.2,182.4,182.9,183.6 M397.7,183.6
		c0,0.3,0.4,1,0.9,1.6c0.5,0.6,1.3,1.8,1.8,2.7l0.8,1.7l-0.8-0.9c-1.6-1.7-2.3-0.7-0.8,1.2c1.5,1.8,2.8,6.5,2.2,7.9
		c-0.1,0.2,0,0.4,0.1,0.4c1.1,0,1.5-6.6,0.5-9.4C401.3,185.2,397.7,181.3,397.7,183.6 M268,183.4c-3.3,0.7-2.9,7.5,0.4,7.6
		c1.7,0,2-1.1,0.5-1.8l-0.8-0.4l0.7-0.3c1.4-0.6,1.6-2,0.4-2.7c-1-0.5-0.6-1.1,0.7-0.9c1.2,0.2,1.6-0.2,0.9-1
		C270.1,183.5,268.9,183.2,268,183.4 M353.7,183.9c0.5,0.7,1.1,0.9,1.1,0.4c0-0.7-0.4-1.1-1-1.1
		C353.2,183.3,353.2,183.3,353.7,183.9 M223.8,185.9c-0.1,0.4-0.2,1.5-0.3,2.5c-0.7,10-0.7,10.5-1.4,12.6c-0.4,1.2-0.9,3.5-1.1,5.1
		c-0.7,4.8-2.2,9.4-2.9,8.9c-0.2-0.1-0.2,0-0.1,0.3c0.1,0.2,0.1,0.4,0,0.4c-0.5-0.1-0.7,0.1-0.4,0.3c0.3,0.2-0.2,0.8-1.7,2.5
		c-1.9,2.1-3.4,3.4-8.5,7.5c-4.3,3.4-7.2,7.8-7.5,10.9l-0.1,2l0.6-1.7c1.5-3.8,4.2-6.9,9.4-10.8c8.6-6.3,10.8-9.1,11.9-14.8
		c0.3-1.6,0.6-3.3,0.8-3.8c0.1-0.5,0.4-1.9,0.5-3.1c0.2-1.2,0.5-2.8,0.7-3.6c0.4-1.7,0.7-12.8,0.4-14.7
		C224,185.4,223.9,185.4,223.8,185.9 M348,187.5c-0.2,0.3,0.7,1.9,1.1,1.9c0.7,0,0.2-1.7-0.6-2C348.3,187.4,348.1,187.4,348,187.5
		 M176.5,187.8c-3.7,1.1-2.8,6,1.4,7.9c3.6,1.6,6.7,1.2,3.8-0.5c-1.5-0.9-2-1.7-2-3.3c0-2.7-0.9-4.5-2.1-4.3
		C177.4,187.6,177,187.7,176.5,187.8 M205.5,188.1c0,0.1,0.3,1,0.8,2.1c1.1,2.8,2.4,7.6,2.7,10.2c0.1,1.2,0.6,4.2,0.9,6.5
		c0.5,3.2,0.6,4.7,0.5,6.1l-0.2,1.9l0.7-0.9c1.7-2.3,2.6-8.3,2-14.2c-0.2-1.8-0.4-3.9-0.4-4.6c-0.1-1.6-1.2-4.8-1.7-5
		c-0.3-0.1-0.3,0.1-0.2,0.9c0.7,4,1,7.9,0.9,11c-0.1,4.3-0.3,4.1-1.7-1.6C208.5,195.1,205.6,186.8,205.5,188.1 M168,192.9
		c-4.4,2.4-1.1,7.9,4.8,7.9c2,0,2.4-0.4,1.4-1.4c-1-0.9-1.8-2.8-2-4.7C171.8,192.3,170.4,191.6,168,192.9 M160.3,196.3
		c-3.5,1.6-1.4,7.7,3.1,9c2.1,0.6,4.6,0,3.3-0.7c-1.2-0.7-2.6-3.5-2.6-5.4C164.1,196.3,162.7,195.3,160.3,196.3 M242.3,196.4
		c-0.2,0.4-0.3,0.8-0.3,1c0,0.8-1.9,6.3-2.6,7.4c-1.1,1.7-2.6,4.9-2.4,5.1c0.1,0.1,0.5-0.4,0.9-1.1c0.4-0.7,1.5-2.4,2.4-3.7
		c2.5-3.7,3.5-7.1,2.6-8.8C242.6,195.7,242.6,195.7,242.3,196.4 M397.6,197.1c-0.3,1.6,0.3,3.5,2.5,8c1.2,2.4,2.2,4.8,2.3,5.5
		c0.2,1.3,0.7,1.7,0.7,0.6c0.1-2-0.3-3.4-2.6-8.1c-0.7-1.4-1.3-3.2-1.5-4.1c-0.5-2.8-0.5-2.9-0.9-2.9
		C397.9,196.1,397.7,196.5,397.6,197.1 M238.7,200.4c-0.6,1-1.6,3.6-1.4,3.8c0.4,0.4,2.3-2.8,2.3-4
		C239.6,199.6,239.2,199.7,238.7,200.4 M182.8,207.1c-0.1,0.3-0.4,1.4-0.6,2.3c-0.4,1.9-0.3,1.8-1.3,1.1c-0.6-0.5-1-0.5-2-0.4
		c-1,0.1-1.2,0.1-1.4-0.4c-0.6-1.7-3.9,2.5-3.9,5c0,0.5,0.2,0.7,0.9,0.8c1.6,0.3,4.4,3.5,6.2,7.1c2.9,5.7,3.4,4,2.9-10.8
		C183.5,206.7,183.3,205.7,182.8,207.1 M271.9,208.5c-8.1,2.5-15.5,8.6-17.2,14c-0.8,2.7,0,3.1,5.3,2.6c3.2-0.3,4.2-0.2,8.1,0.5
		c4.9,0.9,10.2-0.7,11.8-3.5c1.2-2,2.1-9.7,1.4-11.9c-0.5-1.7-2.4-2.7-3.3-1.8c-0.2,0.2-0.6,0.2-1.3,0
		C275.4,208,273.3,208,271.9,208.5 M399.6,208.7c0,0.2,0.3,1.2,0.8,2.2c0.4,1,0.9,2.6,1.1,3.5c0.5,2.3,0.7,2.6,0.9,1.1
		c0.2-1.5-0.4-4.2-1.3-5.9C400.5,208.5,399.6,207.9,399.6,208.7 M103.7,208.9c-0.6,0.1-2.9,0.3-5.2,0.4c-5.5,0.2-6.6,0.5-8.5,2
		c-3.1,2.5-4.5,3.5-7.8,5.4c-1.8,1.1-3.6,2.2-4,2.5c-0.4,0.3-2.1,1.5-3.9,2.5s-3.8,2.3-4.5,2.8c-0.7,0.5-1.8,1.1-2.3,1.3
		c-1.4,0.6-1.9,1.5-1.8,3.7c0,2.4,0.4,3,0.6,1c0.3-2.7,1-3.5,5-5.8c3.5-2.1,11.3-5.9,13.6-6.8c5.5-2,7.3-2.5,7.6-2.2
		c0.5,0.5-5.7,5.5-13.9,11.2c-3.7,2.6-4.6,3.5-5.5,5.4l-0.5,1.1l-0.1-1.3c-0.2-2.6,4.6-7.6,11.4-11.9c2.4-1.5-1.3,0.2-4.4,2
		c-8,4.7-9.3,6.2-9.7,11.3c-0.2,2.2-0.2,2.2,3.6,2.2c1.7,0,3.3,0.1,3.6,0.2c0.4,0.1,0.8,0,1.6-0.8c0.6-0.5,2.3-1.9,3.9-3
		c9.3-6.6,11.2-7.5,13.6-6.2c1.4,0.7,1.5,0.7,3.4-0.8c2.2-1.7,3.5-2.3,5.7-2.5c1.7-0.2,1.8-0.2,2.1-1c1-2.5,0.7-8-0.6-9.5l-0.7-0.8
		l2.8,0.2c1.5,0.1,3.2,0.2,3.7,0.3c1,0.1,7.7,1.4,8,1.6c0.1,0.1,1.4,0.3,2.9,0.5c3.1,0.5,8,1.8,13.1,3.4c7.7,2.5,22.2,5.9,26.5,6.2
		c5.6,0.3,12.8,2.6,16.1,5.1c2.2,1.6,2.5,1.7,1.7,0.2c-0.3-0.6-0.7-1.5-0.8-2.1c-1.4-5.1-9.7-10.8-16.7-11.3
		c-1.7-0.1-3.3-0.4-4.6-0.9c-3.1-1.1-6.8-1.4-16.6-1.6c-9.5-0.2-11.4-0.3-15.5-1.3c-1.4-0.3-3.1-0.7-3.7-0.8
		c-0.7-0.1-2.1-0.4-3.2-0.7c-1.1-0.3-3.4-0.6-5.1-0.7c-1.7-0.1-3.6-0.3-4.3-0.5C109.4,208.6,105.3,208.6,103.7,208.9 M397.5,210.2
		c0,1.4,0.5,3.2,0.8,3.2c0.2,0,0.2,0.5,0.1,1.3c-0.3,2.2-0.2,2.7,0.9,5.9c1.1,3.3,2.1,7.8,2.1,9.6c0,1.4,0.4,1.6,0.6,0.3
		c0.5-2.8-0.1-6.5-1.5-10.7c-0.8-2.3-1-3.2-1-5.1c0-2.7-0.3-3.8-0.7-2.7c-0.2,0.6-0.3,0.5-0.5-0.9
		C398.1,209.2,397.5,208.5,397.5,210.2 M288.9,209.7c-1.2,0.4-2.9,5-2.9,7.9c0,1-0.2,2.4-0.4,3.2c-0.5,1.6-0.2,3,0.6,3.8
		c1,0.9,8.6,1.9,11.8,1.6c0.8-0.1,1.5,0,1.9,0.3c0.3,0.2,1.3,0.5,2.1,0.6c2.4,0.3,4.4,0.9,6.9,2c4.5,2,7.7,0.6,5.9-2.6
		c-0.7-1.4,0.9-6.4,3-8.9c0.7-0.9,1.2-1.6,1.2-1.6c-0.5-0.4-4.6-0.9-7.4-0.9c-1.8,0-3.7-0.1-4.2-0.3c-0.5-0.1-2.7-0.7-5.1-1.4
		c-3.4-0.9-4.4-1.2-5.1-1.8C295.4,209.7,291.5,208.9,288.9,209.7 M216.5,214.3c-0.6,0.8-1.4,1.9-2,2.3l-1,0.9l-5.2,0.5
		c-3.5,0.3-5.6,0.6-6.3,1c-1.7,0.8-1.6,1,0.5,0.8c5.8-0.6,5.1,0-2.4,1.9c-3.5,0.9-7.8,3.9-9.1,6.4c-0.6,1.3-0.1,1.1,1.5-0.5
		c2.4-2.4,6.3-4.4,4.2-2.2c-1,1-2.2,2.6-5,6.1c-1.1,1.4-2,3.5-2,4.6c0,1.5,0.4,1.4,0.9-0.1c0.4-1.3,1.6-3.3,3.1-5.2
		c1-1.3,0.9-0.3-0.3,1.9c-1.4,2.7-1.6,3.6-1.2,5.6c0.5,2.3,0.9,2.5,1.3,0.4c1.6-8.1,5.9-13.2,14-16.5c1.2-0.5,2.3-1,2.4-1.2
		c0.1-0.2,0.9-0.7,1.7-1.2c2-1.2,4.1-3.3,5.2-5.2C218.1,212.7,217.9,212.4,216.5,214.3 M396.3,214c-0.4,1.1-0.5,2.3-0.1,2.3
		c0.4,0,0.7-0.8,0.9-1.9C397.2,213.1,396.8,212.9,396.3,214 M394.8,216.2c-0.2,0.2-0.4,1.6-0.6,3.2c-0.2,2.9-0.4,3.9-0.8,5
		c-0.2,0.5-0.2,1.6,0,3.3c0.3,2.6,0.6,3.6,1,2.7c0.1-0.2,0.3-0.4,0.4-0.3c0.1,0.1,0.2-1.5,0.2-3.5c0-2.9,0.1-4.1,0.6-5.9
		c0.6-2.5,0.7-3.7,0.3-3.7c-0.2,0-0.4-0.3-0.5-0.6C395.2,215.8,395.1,215.8,394.8,216.2 M117.3,217.3c-0.7,0.7-1.7,1.5-2.2,1.9
		c-1,0.8-1.1,1.4-0.4,1.9c1.2,0.7,2.2,2.7,2,4.1c-0.1,1,0,1.8,0.8,4.1c1.2,3.5,1.2,3.3-1.6,7.1c-4.2,5.7-4.9,8.5-3,12.5
		c1.2,2.6,1.2,4.7,0.2,7.7l-0.7,2l0.6,0.8c0.9,1.1,1.5,0.8,2.1-1c0.2-0.6,0.6-1.3,1-1.8c0.3-0.4,0.6-1,0.6-1.2
		c0-0.2,0.2-0.8,0.5-1.2s0.5-1,0.5-1.2c0-0.2,0.2-0.6,0.4-0.9c0.5-0.5,0.2-5.8-0.4-8c-0.3-1.1,0.2-2.2,1.5-3.5l0.9-0.9l0,1.6
		c0,1.7,1,5.9,2.2,9.1c0.9,2.5,0.9,2.4-0.4,6.3c-1.8,5.8-1.9,8.9-0.1,9.6c1.1,0.4,1.5-0.3,1.7-3.4c0.1-1.5,0.5-3.4,1-5
		c1.1-3.3,1.2-6.7,0.4-9.4c-0.3-0.9-0.7-2.9-1-4.4l-0.5-2.8l0.8-3.1l0.8-3.1l-0.8-3.3c-1.2-4.7-3.1-8.5-5.6-11.3c-1.5-1.6-1-2,1.2-1
		c0.9,0.4,2.3,0.9,3.2,1.2c2.2,0.8,6.2,4.7,8,7.8c2.1,3.8,3.3,3.3,1.4-0.6c-1.7-3.5-3.7-5.7-7.8-8.4c-0.7-0.5-2.1-1.5-3-2.2
		C119.6,215.7,119,215.7,117.3,217.3 M129.1,219.1c-2.2,0.8-2,2.5,0.3,1.9c1.6-0.4,4.9,2.2,7.1,5.5c1.2,1.9,4.8,8.8,4.8,9.3
		c0,0.2,0.3,0.5,0.6,0.8c0.3,0.3,1.1,1.3,1.6,2.4c1.8,3.4,1.7,1.3-0.1-3.8c-3-8.5-3.6-9.6-7-13.1
		C132.9,218.5,131.9,218.1,129.1,219.1 M397.3,220.5c-1.1,0.4-1.8,7.8-0.8,8.4c0.7,0.5,1.8,6.2,1.8,9.5c0,4.3,0,4.5,0.3,4.3
		c1.1-0.7,1.1-7.4,0-12.1c-0.8-3.3-0.9-4.4-0.9-7c0-1.7,0-3.1,0-3.1C397.6,220.4,397.4,220.4,397.3,220.5 M222.2,226.8
		c-1.6,2.5-2.2,3.4-2,3.5c0.1,0.1,3.5-4.7,3.8-5.3C224.3,224,223.5,224.8,222.2,226.8 M103.5,225.7c-2.5,0.5-5.8,3.8-5.4,5.5
		c0.4,1.7,1,2.1,2.7,1.7c2.1-0.5,4.8-0.5,5.9,0.1c1,0.5,1.1,0.3,0.3-0.5c-0.8-0.7-1.6-1.1-2.3-1.1c-1.1,0-2.1-0.6-1.5-0.8
		c1.7-0.7,4.1-0.2,5.6,1.1c1.1,1,1.2,0.7,0.4-0.6c-0.8-1.2-2.5-2.4-3.8-2.5c-1.7-0.2-1.9-0.3-1.5-0.6c1.1-0.7,4,0.1,6.1,1.6
		c1,0.7,1.1,0.7,0.7-0.5C109.6,226.5,106.5,225.1,103.5,225.7 M202.5,226.8c-2.3,1.7-3.6,3.4-4.8,6.4c-1.8,4.5-1.9,6.8-0.8,11.1
		c0.6,2.3,1.2,2.8,0.8,0.8c-1.2-7.2,1.5-15.8,5.8-18.5c0.8-0.5,1-0.8,0.7-0.7C204,225.9,203.2,226.3,202.5,226.8 M142.1,227.5
		c0.1,0.5,0,0.8-0.1,0.8c-0.5,0-0.3,0.5,1.1,2.5c0.8,1.1,2.3,3.3,3.5,4.9c3.8,5.4,6.6,8.2,6.3,6.2c-0.1-0.4,0-0.8,0.1-0.8
		c1.2,0-3.9-8.8-6.8-12C144.3,227.2,141.8,226.2,142.1,227.5 M288.5,228.1c-4.6,0.6-5,1-5.6,5.1c-0.9,6.2-0.4,6.9,3.6,5.4
		c2.7-1,2.9-1.1,2.9-0.6c0,0.4-2.3,1.9-3.3,2.2c-2.5,0.6-4.6,4.3-4.4,7.7c0.1,1.4,2.1,2.4,6.3,3.1c2.2,0.4,4.6,1.1,8.1,2.5
		c4.5,1.8,10.3,2,12.5,0.3c0.6-0.5,0.9-4.9,0.4-6.9c-0.7-2.8-7.1-8-9.8-8c-0.8,0-1.5-0.6-1.4-1.2c0.2-0.5,3.3-0.4,4.6,0.2
		c0.5,0.2,1.1,0.4,1.3,0.4c0.3,0,1.1,0.4,1.9,0.8s2.3,1.1,3.2,1.5c1,0.4,2.3,1,3,1.4c0.7,0.4,1.6,0.8,2,0.8l0.8,0l-0.1-2.9
		c-0.1-2.9-0.6-5-1.6-6.2c-1.1-1.3-13.1-5.1-18.4-5.7C291.5,227.8,291.3,227.8,288.5,228.1 M259.9,229c-2.6,0.5-8.8,3-8.8,3.7
		c0,0.2-0.3,0.5-0.7,0.8c-0.9,0.7-2.8,5.1-2.1,4.9c5.4-1.7,15.6-3,16.8-2c0.8,0.6,9.9,0.7,10.9,0c2.3-1.4,2.9-5.1,1-6
		C275.3,229.5,262.8,228.5,259.9,229 M389.7,230.1c0,0.3,0.2,1.4,0.5,2.5c0.4,1.7,0.5,2.1,0.2,2.7c-0.3,0.5-0.4,3.6-0.2,7.5
		c0,0.3-0.2,1.2-0.4,2c-0.5,1.7-0.6,5.7-0.1,7.8c0.2,0.8,0.4,2.6,0.5,4c0.4,4.8,0.9,1.9,0.7-3.7c-0.2-5,0-5.4,0.7-1.5
		c1.1,6.4,1.1,6.9,0.4,9.1c-1,3.2-0.7,6.5,0.5,7.7c0.6,0.6,0.6,0.5,0.1-0.8c-0.7-1.7-0.5-4.6,0.5-7.3c1.2-3.2,1.8-6.3,1.7-9
		c-0.1-1.8,0-2.3,0.4-2.9c1.9-2.8,2.1-16.2,0.3-16.2c-0.2,0-0.3,1.4-0.4,5.6c0,5.9-0.5,9.6-1.2,10.4c-0.3,0.3-0.4,1-0.4,2.5
		c0,2.3-0.4,2.9-0.7,1.1c-0.2-1.6-1.1-3.5-1.6-3.7c-0.6-0.2-0.5-1.5,0.4-3.9c0.8-2.1,0.9-3.1,0.1-2.8c-0.3,0.1-0.4-0.1-0.4-1.5
		c0-0.9-0.1-2.2-0.2-2.8c-0.2-0.8-0.1-1.1,0.1-1c1.1,0.4,0.9-2.7-0.4-5.3C390.5,229.6,389.7,229.3,389.7,230.1 M160.7,231
		c-0.6,0.6-0.4,1.5,0.5,2.2c0.9,0.7,2.9,3.7,3.9,6c1.3,2.9,3.5,13.3,3.1,14.1c-0.1,0.2-0.2,1.8-0.1,3.5c0.1,2.7-0.1,6.1-0.6,9.1
		c-0.3,1.5,0.6,0.2,0.9-1.4c0.2-0.8,0.6-1.9,0.9-2.6c0.5-1.1,0.6-1.6,0.6-6.2c0-2.7,0-5,0-4.9c0.3,0.3,0.9,9,0.8,11.3
		c-0.1,3.5,0.1,3.4,0.7-0.2c0.5-3.1,0.5-9,0-11.8c-0.5-2.6-0.5-3.3,0-1.7c1.3,3.9,1.5,7.3,1.1,15.3c-0.1,2.5-0.1,3.9,0,3.9
		c0.7,0,2-10.3,1.8-14l-0.1-2.1l0.5,2.3c0.4,1.6,0.6,3.7,0.7,7.3c0.2,5.6,0.6,6.7,1.1,3c0.6-4.2,0.2-10.4-0.9-14.4
		c-0.2-0.9-0.4-1.7-0.3-1.7c0.2-0.2,1.6,4.2,2.2,7.1c0.4,2.1,0.7,2.8,1,2.8c0.7,0,0.5-4.8-0.4-8c-1.9-7-3.6-12-4.7-13.3
		C171,233.5,162.1,229.7,160.7,231 M150.1,231.7c-0.1,0.2,0.5,1.1,1.4,2.2c0.9,1,1.9,2.3,2.4,2.9c0.4,0.6,1.7,2.3,2.7,3.8
		c3.5,4.9,4.1,2.7,0.6-2.4l-0.8-1.2l0.6-0.1c0.4-0.1,0.6,0,0.7,0.3c0.6,2.1,6.4,5.5,6.2,3.7c-0.1-0.7-3.5-5.4-4.4-6
		c-0.9-0.6-4.1-1.1-4.5-0.7c-0.2,0.2-0.7-0.1-2-1.3C151.3,231.3,150.4,230.9,150.1,231.7 M204.5,234.4c-2.3,3.6-2.9,6.8-2,11
		c0.6,3.1,0.9,2.7,1-1.5c0.1-3.7,0.5-6.3,1.5-8.3c1.4-2.9,1.3-2.7,0.9-2.7C205.7,232.9,205,233.6,204.5,234.4 M384.2,234.3
		c-1,1-1.4,3.8-1.5,9.2c-0.1,6.9,0.7,6.4,1.2-0.7c0.1-2,0.5-4.4,0.7-5.5C385.4,233.4,385.4,233,384.2,234.3 M59.7,234.7
		c-2.7,1.7-1.5,7.1,1.7,7.1c1.8,0,3.8-2.6,3.5-4.7C64.5,234.7,61.7,233.4,59.7,234.7 M99.9,234.9c-1.3,0.7-1.9,2.1-2.2,5
		c-0.1,1.6-0.4,3.1-0.9,4.4c-1.8,5,0.7,9.6,5.1,9.3l1.1-0.1l0.2-1.4c0.1-0.8,0.6-2.4,1.3-3.7c0.9-1.9,1.1-2.5,1.1-4
		c0-1,0.2-2,0.4-2.3c0.2-0.3,0.4-1.1,0.5-1.7c0.1-0.6,0.4-2,0.6-3l0.4-2l-0.6-0.5C106,234.3,101.3,234.2,99.9,234.9 M387.5,235.3
		c-0.4,1.1-0.2,2.9,0.2,2.9c0.4,0,0.9-2.4,0.6-2.9C388,234.9,387.6,234.9,387.5,235.3 M217.4,236.9c-0.4,0.8-0.9,2.3-1.1,3.3
		c-0.2,1-0.7,2.8-0.9,3.9c-0.3,1.3-0.9,2.7-1.6,3.8c-1.3,2.1-1.3,2.6,0.1,2.2c1.7-0.6,2.3-2,3.1-7.4c0.3-1.9,0.7-4.1,0.9-4.9
		C218.5,235.6,218.2,235.1,217.4,236.9 M70.7,236.7c-1.4,0.4-3.4,2.5-3.4,3.6c0,1,1.7,1.7,2,0.8c0.2-0.6,1.8-1,3.5-0.9
		c1.3,0.1,1.5,0,1.5-0.4c-0.1-0.7,0.3-0.6,1.9,0.3c2.1,1.2,2.4,1,1.4-1c-0.4-0.8-0.8-1.2-1.9-1.7c-1.1-0.5-4-1.2-4.1-1.1
		C71.7,236.4,71.3,236.5,70.7,236.7 M210.4,238.5c-0.1,0.5-0.5,2.2-0.8,3.9c-0.8,3.8-0.9,8.2,0,7c0.5-0.8,1.3-6.7,1.2-9.7
		C210.7,237.5,210.7,237.2,210.4,238.5 M254,239.4c-1.2,0.2-2.8,0.6-3.4,0.9c-0.6,0.3-1.4,0.5-1.7,0.5c-2.3,0-7.1,5.7-7.3,8.8
		c-0.1,0.7-0.3,1.9-0.5,2.7c-0.6,1.7-1.1,1.6,5.5,1.8c6.8,0.2,7.1,0.2,9.2-1.4c2.5-1.9,9.1-5.1,12.3-5.9c2.5-0.6,3-0.7,5.1-0.2
		c3.4,0.7,3.8-4.1,0.4-5.8C271.1,239.6,258.2,238.7,254,239.4 M129.6,240.6c-0.2,0.3,0.3,2.4,0.6,2.4c0.2,0,5.6,4.4,6,5
		c0.1,0.2,1.3,1,2.5,1.9c1.2,0.8,3.5,2.5,5.1,3.6c2.8,2,8.3,5.3,9,5.3c0.6,0,0.1-0.5-2.1-1.8c-1.2-0.7-3.1-2.1-4.3-3.1
		c-1.2-1-3.7-3-5.6-4.5c-3.6-2.8-6.4-5.2-6.2-5.4c0.2-0.2,16.3,7.9,20.1,10.2c7.2,4.1,9.8,5,9.9,3.1c0-0.2,0.1-1.2,0.2-2.2
		c0.4-4.6-0.7-5.5-9.4-7.1c-4.4-0.8-5.3-1.1-8.7-2.5c-2.6-1.1-6.6-2.4-9.6-3.1c-1-0.2-2.4-0.8-3.3-1.2
		C132.3,240.3,129.9,240,129.6,240.6 M70.1,241c-1.6,0.7-2.2,2.2-1.2,2.9c0.3,0.2,0.7,0.1,1.6-0.6c1.2-0.9,3.1-1.1,4.9-0.4
		c0.5,0.2,0.6,0.1,0.6-0.3C76.1,241,72.3,240,70.1,241 M393.4,243c-0.3,1.2-0.2,2.1,0.2,2.1c0.5,0,0.8-0.7,0.4-1.1
		c-0.1-0.2-0.3-0.6-0.4-1l-0.1-0.7L393.4,243 M186.6,243.3c-1.6,2-1.1,4.1,1.2,5.4l1.1,0.7l-0.1,1.8c-0.1,1-0.2,2.8-0.3,4
		c-0.1,1.2-0.4,3.4-0.7,4.9c-0.7,3.3-0.7,5.2-0.1,5.5c0.3,0.1,0.4,0.4,0.3,1.5c-0.2,1.4,0.1,1.7,0.8,0.6c1.4-2.1,2.5-18,1.4-19.6
		c-0.6-0.8,0.1-2.4,0.9-2.2c0.4,0.1,0.4,0.1,0.2-0.3C190.5,243.8,187.3,242.4,186.6,243.3 M71.9,243.9c-1,0.4-1.3,1.3-1.6,4.8
		l-0.2,2.4l-0.3-1.7c-0.3-1.7-0.7-2.4-1.1-2.1c-0.6,0.6,0.5,8.4,1.4,10.3c0.8,1.6,1.2,1.7,2.8,0.7l1.1-0.7l0.6,0.6
		c0.3,0.4,1.9,1.5,3.5,2.5c1.6,1,3.3,2.2,3.8,2.6c2.2,1.9,1.8,0.5-0.6-2.1c-2.7-2.9-4-5.3-3.8-6.8c0.1-0.7,0.1-1.2-0.2-1.6
		c-0.3-0.4-0.4-1.3-0.4-2.7C76.9,244.7,75.1,242.5,71.9,243.9 M386.5,245.5c-0.3,0.9-1.7,3.8-2.9,6.5c-1.3,2.6-2.5,5.4-2.7,6.1
		c-0.2,0.7-0.5,1.6-0.8,2c-2.2,3.2-3,15.7-1,15.7c0.3,0,0.3-1,0.4-4.5c0-5.4,0.7-9.2,1.5-8.4c0.4,0.4,0.5,0.2,0.6-1.9
		c0.1-2.3,0.1-2.3,3-8.2c2.5-5.1,2.9-6.1,3-7.5C387.7,243.3,387.3,243.3,386.5,245.5 M65.1,247.1c-0.9,3.1,0.5,12.6,1.8,12.1
		c0.8-0.3,0.8-1,0.3-3.8c-0.2-1.5-0.5-3.6-0.6-4.8c-0.2-3.4-0.3-3.9-0.9-3.9C65.4,246.7,65.1,246.9,65.1,247.1 M388.3,251.3
		c0.1,0.6,0.1,1.2,0,1.4c-0.1,0.2-0.2,1.3-0.2,2.5c0,1.2-0.2,3.1-0.5,4.3c-1,4.2-0.4,11.2,1,12c0.2,0.1,0.2,0,0.1-0.3
		c-0.9-2.2-0.8-6.6,0.1-11.9c0.7-3.8,0.7-8,0.1-8.6C388.2,250,388.1,250.1,388.3,251.3 M270.8,251.1c-9.8,1.1-15.5,7-14.8,15.4
		c0.2,2.4,0.4,3,0.8,2.7c0.2-0.1,0.2-0.8,0.1-1.8c-0.4-4.1,1-8.3,3.7-10.7c3.3-3,5.1-3.7,11.8-4.8c1.5-0.2,3-0.5,3.5-0.7l0.8-0.2
		l-0.8,0c-0.4,0-1-0.1-1.3-0.1S272.5,250.9,270.8,251.1 M270.9,253.8c-5.5,1-7.4,1.8-9.6,4.1c-3.9,4.2-4.1,11.8-0.3,15.9
		c2.5,2.7,13.7,5.8,16.1,4.4c0.4-0.2-0.2-0.3-2.5-0.3c-5.4,0-10.9-2.4-12.4-5.4c-0.6-1.2-0.4-1.2,0.7,0.2c2.9,3.3,11.9,4.9,20.4,3.5
		c1.3-0.2,3-0.4,3.7-0.4c3.4,0,6-6.3,4.5-10.8l-0.5-1.6l0,1.7c-0.1,3.9-1.9,8.3-3.8,9.4c-0.6,0.3-0.6,0.2,0.5-1.3
		c3.7-5,1.8-15-3.3-16.9c-0.7-0.3-1.8-0.7-2.5-0.9c-5.3-2-15,0.6-19.1,5c-1.6,1.7-1.7,1.8-1,0.2c1.5-2.9,5.3-5.3,10.4-6.6
		C276.6,252.9,276.2,252.9,270.9,253.8 M182.5,254.3c0,0.2-0.1,0.7-0.3,0.9c-0.3,0.4-0.2,0.6,0.1,1c0.5,0.6,0.6,2,0.2,2.8
		c-0.5,0.9-0.1,2.1,0.8,2.3c0.4,0.1,1,0.4,1.3,0.7c1,0.9,1.4,0.2,1.9-2.8c0.4-3,0.4-3-1.4-3.4c-1-0.3-1.3-0.5-1.5-1
		C183.4,254,182.5,253.6,182.5,254.3 M287.3,255.6c0,0.2,0.4,0.8,1,1.3c1.3,1.2,3.7,4.8,5.3,7.8c1.6,3,1.8,2,0.3-1.2
		C291.8,259.3,287.3,253.8,287.3,255.6 M278.6,256.6c2.4,0.5,5,2.1,7.6,4.6l1.6,1.5l0.2,2c0.2,2.5,0.3,2.4-2.9,4.6
		c-3.2,2.1-4,2.8-4.8,4.3c-0.9,1.6-2.3,0.9-3.3-1.6c-0.4-1.1-0.8-0.8-1.9,1.4c-0.7,1.3-1,1.8-1,1.4c0-0.4-0.5-1.1-1.1-1.7
		c-0.6-0.6-1.1-1.2-1.1-1.4c0-0.8-1.8-2.6-3.5-3.6C260.2,263.3,268,254.4,278.6,256.6 M383.9,259.5c-0.9,2-0.7,9.1,0.1,8.2
		c0.3-0.3,0.7-9.2,0.4-9.2C384.4,258.5,384.2,258.9,383.9,259.5 M273.2,259.2c-5.1,1.4-6.9,5.9-2.9,7.4c0.7,0.3,1.8,0.8,2.3,1.2
		c1.3,0.9,1.1,1,1.9-0.3c0.9-1.3,1-1.3,2.5,0.1c1.6,1.5,2,1.5,3.8,0c1.7-1.4,3.1-3.7,2.8-4.7C283,260,277.5,258,273.2,259.2
		 M89.8,261c-1.2,0.5-2.6,2.6-1.9,3c0.1,0.1,0.8-0.1,1.4-0.5l1.2-0.6l2.5,0.6c3.4,0.9,4,0.6,2.6-1.1C94.3,260.8,91.7,260.2,89.8,261
		 M194.6,262.5c-0.5,1.7-1,4.3-0.9,4.6c0.2,0.5,1.1,0.4,1.3-0.2c0.2-0.6,0.4-0.7,0.8-0.3c1.1,1.1,7.8,3.2,9.4,3.1
		c1.6-0.2,1.7-0.2,1.5,0.4c-0.1,0.5-0.1,0.5,0.8,0.4c0.6-0.1,1.1,0,1.4,0.2c0.6,0.5,1,0,0.9-1c-0.1-0.8-1-1.3-1-0.5
		c0,0.3-0.2,0.4-0.7,0.4h-0.7l0.7-0.8c1.3-1.5,0.6-3.6-1.2-3.8c-1.9-0.1-2.9,0.4-2.9,1.6v0.6l-1-0.5c-0.6-0.3-2-0.8-3.3-1.2
		c-3.4-1.1-3.7-1.3-3.7-2.4C195.9,261.6,195,261.2,194.6,262.5 M275.3,262.5c0.7,0.7,0.7,1.5-0.1,2.5c-1.2,1.5-2.6,1.7-3.8,0.3
		l-0.6-0.7l0.6-1C272.4,261.9,274.2,261.4,275.3,262.5 M280.8,262.9c0.8,0.6,0.9,0.8,0.6,1.4c-1,2.5-4,2.5-4-0.1
		C277.5,262.3,279.2,261.6,280.8,262.9 M248.1,262.9c-3.7,0.6-5.4,1.1-7.5,2.2c-1.2,0.6-2,1.1-1.8,1c3.8-1.1,5.4-1.5,6.8-1.6
		l1.7-0.1l-3.1,1.1c-5.6,2-8,3-8,3.4c0,0.3,0.2,0.3,0.7,0.2c2.1-0.5,2.6,0.1,0.8,0.9c-1.5,0.8-1.4,1.2,0.1,0.7
		c3.6-1.1,4.9-0.6,1.6,0.5c-2.4,0.9-2.4,0.8-2,1.3c0.3,0.3,0.9,0.2,3.8-0.6c3.2-0.9,6.5-1.6,8.2-1.6c1.1,0,0.6,0.2-2.9,1.2
		c-4.3,1.2-7.6,2.4-7.2,2.6c0.3,0.2,1.1,0.1,3.1-0.5c5.6-1.7,8.1-2.2,10.1-2.4c3.1-0.3,3.2-0.3,2.6-4.2c-0.6-3.9-0.6-4-4-4
		C250,262.8,248.5,262.8,248.1,262.9 M262.8,265.7c0,2.9,1.5,5.8,3.8,7.5c1.3,1,1.5,1.3,0.7,1.3c-2.7,0-6.3-7-5.2-10
		C262.5,263.6,262.8,264.1,262.8,265.7 M106.7,267.8c-0.9,0.1-2.3,0.2-3.2,0.2c-4,0.1-8.2,2.2-8.5,4.3c-1.7,10.9-0.9,24.8,1.8,33.3
		c0.5,1.6,1.2,4,1.4,5.4c0.3,1.4,0.7,3.4,1,4.5c0.8,3.7,0.5,9-0.7,12.5c-0.5,1.4-0.5,2.2,0,2.2c0.1,0,0.9-0.9,1.8-2.1
		c4.7-6.4,5.8-7.4,9.1-9.1c0.9-0.5,1.8-1.1,1.9-1.3c0.1-0.3,0.8-0.7,1.4-1c1.8-0.7,6.9-2.3,7.5-2.3c0.3,0,1.5-0.2,2.7-0.6
		c5-1.3,5.5-2.1,5-8c-0.8-9.1-0.7-10.5,1.5-12.9c2.5-2.6,5.9-3.8,7.3-2.5c1.2,1.2,3.2,0.7,3.5-0.8c0.2-0.9,4.1,2.5,5.3,4.7
		c0.6,1,2.2,3.2,3.7,5c2.9,3.4,3.7,4.9,5.5,10c0.5,1.5,1.4,3.9,1.9,5.3c1.7,4.7,1.8,10.9,0.4,15c-0.9,2.4-0.1,3.5,1,1.5
		c0.2-0.5,0.8-1.5,1.3-2.2c2-3.1,1.6-10.5-1.1-16.5c-0.3-0.8-0.8-2-0.9-2.7c-0.8-3.3-3.7-8.1-7.1-12c-0.9-1-2.2-2.7-2.9-3.6
		c-0.7-1-2.7-3.1-4.5-4.8c-1.8-1.7-4.3-4.1-5.5-5.3c-3.2-3.2-5.5-4.9-9.6-7.3c-2-1.1-4.9-3-6.6-4.1c-3.2-2.1-4.2-2.6-6.3-3.2
		c-0.7-0.2-1.5-0.6-1.7-0.9C112.4,267.7,110,267.4,106.7,267.8 M381.2,268.2c-0.7,0.8,0,10.2,0.9,11.3c0.4,0.5,1,0.4,1-0.3
		c0-0.4,0.3,0,0.9,1.1c0.5,1,1.4,2.8,2.2,4c0.7,1.2,1.6,2.9,1.9,3.7c0.7,1.6,1,1.8,1.1,0.5c0.1-0.7-0.5-2-2.3-5.7
		c-1.3-2.6-2.6-5.6-3-6.5c-0.3-1-0.8-1.9-1-2c-0.2-0.2-0.4-0.9-0.4-1.7C382.4,268.7,382,267.2,381.2,268.2 M385.4,268.5
		c-0.7,1.7,0.5,11,1.4,11.3c0.4,0.1,0.3-3.8-0.2-5.3c-0.1-0.5-0.3-2.1-0.4-3.5C386,268.5,385.7,267.6,385.4,268.5 M219,270.4
		c-0.1,0.4,0.3,1.4,1.2,3.1c1.8,3.5,2.3,4.8,3.1,9.7c0.9,5.3,3.7,13.8,4.6,14.1c0.5,0.2,0.4-0.9-0.7-5.4c-0.6-2.4-1.3-6.2-1.6-8.6
		c-0.6-5.1-0.8-6.1-1.6-7.9c-1.2-2.9,0.3-1.1,2,2.3c0.6,1.3,2,4.8,2.9,7.7c1.9,5.9,2.8,7.9,3.4,7.9c1.5,0-0.7-10.6-3.6-17.3
		c-0.4-0.9,3.1,1.2,5,3c1.8,1.7,1.8,1.7,3,5.5c2,5.9,4,9.7,7.9,15c2.9,3.9,5.1,4.9,2.7,1.1c-2.5-3.7-2.8-4.4-4.4-7.6
		c-1.7-3.4-2.4-5.2-3.5-8.8c-0.5-1.8-1-3.5-1.1-3.7c-0.3-1.1,1.2,1.3,2.8,4.5c2.2,4.4,3.2,5.5,3.7,4.4c0.2-0.5-1.2-4.3-2.7-7.5
		c-1.8-3.8-5.2-7-7-6.6c-0.4,0.1-1-0.1-1.7-0.6c-2.3-1.6-3.2-1.9-4.8-1.7c-1.4,0.1-1.6,0.1-2.5-0.7
		C223.7,270.4,219.3,269.2,219,270.4 M302.4,274.9c-7.8,1.9-14.4,7.1-17.7,13.9c-4.2,8.7-4.7,10-6.3,17.1c-0.4,1.8-1,3.8-1.3,4.6
		c-1,2.1,0.1,2.3,1.2,0.3c0.3-0.6,0.9-1.5,1.2-2c0.8-1.2,1.6-3.9,2.2-7.7c0.7-4,1.4-6.1,3.5-9.8c3.7-6.6,4.9-7.6,1.8-1.5
		c-1.9,3.7-3.2,6.9-3,7.1c0.1,0.1,0.5-0.6,1-1.6c3.4-6.4,6-9.8,9.7-12.4l1.2-0.9l-1.4,1.8c-2.7,3.6-7.1,15.1-8.2,21.8
		c-0.6,3.3,0.1,15.2,0.9,16c0.2,0.2,0.2-0.1,0.1-0.8c-0.7-4.4,2.6-19,5.6-24.5c0.5-0.9,0.7,1.1,0.3,3.4c-0.6,3.6-0.7,8.1-0.3,10.5
		c0.2,1.2,0.5,2.5,0.5,3c0,0.5,0.2,1,0.4,1c0.2,0.1,0.3-1.5,0.4-5.4c0.2-6.7,1-12.5,2.4-16.2c0.5-1.5,0.5-0.9-0.1,2.6
		c-0.9,5.3-0.9,5.6-0.4,5.5c0.4-0.1,0.8-0.9,1.6-3.2c1.1-3,3-7.1,3.2-6.9c0.1,0.1-0.2,0.9-0.6,1.8c-2.1,5.3-4.5,24.6-3,24.6
		c0.3,0,0.4-0.6,0.6-2.3c0.4-5.5,1.6-14.4,2.5-18.1c0.7-3.2,1.6-6.2,2-6.7c0.3-0.4,0.3,0-0.3,2.7c-0.7,3.1-0.7,3.2,0.3,1.2
		c1.7-3.8,5.8-9.5,9.2-13.1c1.1-1.1,2-2.2,2-2.4s0.1-0.3,0.3-0.3c0.2,0,0.9-0.4,1.6-0.9c0.7-0.5,1.6-0.9,1.9-0.9
		c0.6,0,0.6-0.3,0.2-0.9c-0.4-0.5-5.6-0.5-10.2,0c-1.3,0.1-1.6,0.1-1.8-0.3C305.1,274.4,304.3,274.4,302.4,274.9 M260.7,275.5
		c0,1.2,6.6,4.1,9.2,4.1c3,0,2.9-0.6-0.3-0.9c-2.2-0.2-4.3-1-7.1-2.5C261.5,275.7,260.7,275.3,260.7,275.5 M76.9,276.2
		c-4.4,1.3-8.1,2.9-10.4,4.8c-0.8,0.6-1.8,1.2-2.2,1.3c-2.6,0.5-6.5,6.8-7.6,12.5c-1.2,5.7,0.6,14.6,4.4,22.9
		c3.2,6.8,3.7,13.6,1.7,20.5c-0.4,1.4-0.3,1.9,0.3,1.7c0.5-0.2,2.1-3.4,2.5-4.9c0.2-0.7,0.7-1.6,1.3-2.2c2.6-2.7,4.3-11.4,4.3-22.3
		c0-13.1,5.3-28.9,11.1-33C84.2,276.3,80.1,275.3,76.9,276.2 M331.9,276.1c-1.1,0.1-3.4,0.4-5.1,0.5c-3,0.3-6.4,1.2-7.7,2
		c-0.3,0.2-1.1,0.4-1.7,0.5c-1.9,0.1-5.5,3.1-6.9,5.7c-0.2,0.4-0.7,1.1-1.1,1.7c-1.4,1.9-5.2,10.8-6.9,16.5c-1.7,5.7-2,8.1-1.6,14.8
		c0.6,10.4,0.6,10.7-2.2,15.5c-2.5,4.4-2.5,4-0.6,5.9c0.8,0.8,2.6,2.9,4.1,4.5c3.2,3.7,5.5,5.3,3.7,2.5c-0.7-1-4.4-9-4.8-10.2
		c-0.1-0.4-0.1-0.6,0.3-0.8c0.6-0.2,1.2,0.5,4.4,5.2c1.3,2,2.5,3.6,2.7,3.7c0.3,0.2-0.2-1.4-0.5-1.9c-0.7-0.8-3.9-18.1-4.2-22.4
		l-0.2-2.4l0.8,1.6c0.5,1,1.1,3,1.6,5.2c1,4.7,1.3,5.6,3.2,9.7c1.8,3.9,3.8,9.1,4.1,10.6c0.1,0.5,0.4,1.2,0.7,1.6
		c0.5,0.6,0.5,0.5,0.1-1c-0.8-3.9-1.9-15-1.6-16.5c0.3-1.3,0.3-1.3,0.7-1c0.4,0.3,0.6,1.3,1.5,7c1,6.4,2.8,13.4,3.5,14.2
		c0.2,0.2,0.2,0.1,0.1-0.4c-0.7-2.3-0.6-6.9,0.3-10.3c0.4-1.8,4.5-10.3,5.2-11c1.3-1.2,0.9,1.3-0.7,5.3c-2.1,5.2-2.3,5.8-2.5,8.4
		c-0.2,3.9,1.1,8.9,2.4,9.3c1.6,0.4,1.7,0.4,1.4-1.9c-0.5-4.4,0.4-7.1,4.3-12.8c2.6-3.9,5.4-8.6,6.9-11.8l0.7-1.4l-0.6-2.7
		c-0.3-1.5-1-3.8-1.4-5.2c-0.8-2.5-0.7-3.2,0.1-2.9c1.1,0.4,4.7,10.1,4.7,12.5c0,2.7-2.5,8.7-5.7,13.5c-0.9,1.4-2.1,3.4-2.7,4.4
		l-1,1.9l0,3.1c0,4,0.4,4.4,2.5,2.7l0.8-0.7v0.6c0,0.4,0.2,0.9,0.5,1.1c0.7,0.6,1.1-0.1,1.1-1.7c0-2.2,1.6-5.9,6-14.1
		c4.1-7.6,3.7-6.2,3.4-11.8c-0.3-5.7-0.9-8.2-2.8-12.4c-2.2-4.8-1.7-6.3,4.2-13.2c3.2-3.7,3.3-4.4,1.3-7.8c-1-1.8-2.7-5.2-4.1-8.7
		C340.8,276.2,338.9,275.3,331.9,276.1 M389,282.1c-0.1,0.2,0,0.8,0.2,1.3c0.2,0.5,0.5,1.3,0.6,1.8c0.2,0.5,0.4,1,0.6,1
		c1.4,0,1.7,9.2,0.5,12.4c-0.2,0.5-0.1,0.5,0.2,0.2c1.2-1,2.3-7.4,1.8-10.3C392.4,284.9,389.6,280.5,389,282.1 M294.9,290.5
		c-0.3,0.3-0.5,0.5-0.6,0.4c-0.1-0.1,0-0.4,0.2-0.8c0.2-0.5,0.4-0.6,0.6-0.4C295.3,289.8,295.3,290.1,294.9,290.5 M73.9,306.5
		c-0.2,0.7-0.1,1,0.2,0.7c0.1-0.1,0.1-0.4,0.1-0.8l-0.1-0.6L73.9,306.5 M88.1,317.2c-3.4,1.9-4.2,2.5-4.2,3.1c0,1,0.8,0.9,3.9-0.7
		c4.3-2.2,5.1-2.9,3.8-3.6C90.9,315.7,90.9,315.7,88.1,317.2 M91.3,323.5c-3.9,1.2-9.6,5.1-9.2,6.2c0.3,0.9,0.9,0.9,2.6-0.3
		c2.5-1.7,5.4-3.1,7.9-3.7c2.3-0.6,3-1.2,2.7-2.2C95,322.8,93.2,322.9,91.3,323.5 M125.8,323.7c-0.8,0.2-0.8,0.2-2.8,4.6
		c-3.5,7.7-3.8,9.3-1.9,9.2c0.4,0,2.1-0.1,3.8-0.2c2.3-0.2,3.1-0.1,3.4,0.2c0.7,0.6,1.1-0.1,2.1-3.8c0.5-1.9,1.2-4,1.5-4.8
		C133.3,325,130.6,322.8,125.8,323.7 M114.8,325.7c-1.2,0.8-2.4,3.3-2.4,5.1c0,0.7-0.4,2.4-0.8,3.8c-0.9,2.8-3,13.1-3.5,17
		c-0.4,3-1.7,9.2-2.4,11.4c-1.3,3.8-3.1,12.1-2.7,12.1c0.4,0,0.5-0.2,2.4-5.6c3.5-10.2,4.1-11.9,5.4-17.4c1.6-6.7,2.5-9.8,3-11.3
		c0.2-0.6,0.7-2.6,1.1-4.4c0.5-2.6,1-3.9,2.1-6.2c0.8-1.6,1.5-3.2,1.5-3.5C118.5,325.2,116.4,324.7,114.8,325.7 M106.2,329.9
		c-2.5,1.6-4.9,4.6-5.1,6.2c-0.1,0.8-0.3,2.3-0.6,3.3c-0.2,1-0.6,3.6-0.9,5.6c-0.3,2-0.7,4.9-0.9,6.4c-1.2,8.4-1.8,13.2-2.1,19.2
		c-0.9,14.1-1,15.5-1.5,18.4c-0.7,4.1-0.7,6.8,0.1,5.5c0.3-0.5,2.3-7.7,2.7-9.7c0.2-1.2,0.8-3.9,1.3-6c0.5-2.1,1.2-5.5,1.5-7.5
		c0.3-2,0.7-4,0.9-4.4c0.6-1.2,1.6-5.8,2.7-12c0.5-3.1,1.7-8.7,2.7-12.5c0.9-3.8,1.7-7.1,1.7-7.3c0-0.2,0.3-1,0.7-1.8
		C110.8,330.3,108.8,328.2,106.2,329.9 M89.1,335.5c-4.9,2.6-6,3.4-5.1,4.3c0.3,0.3,0.6,0.3,2.3-0.6c1.1-0.5,3.2-1.5,4.8-2.3
		c3.1-1.4,3.7-2,3.3-2.7C93.8,333.3,92.6,333.6,89.1,335.5 M75,338.8c0.1,2.1,0.2,4.9,0.2,6.2c-0.2,12-0.1,29.3,0.1,32.2
		c0.2,1.9,0.3,6.1,0.3,9.3c0,6.6,0.1,6.7,0.5,1.4c0.2-2.1,0.5-5.6,0.7-7.9c0.5-5.3,1.1-32,0.8-37.4l-0.2-4.2l-1.1-1.7
		C74.8,334.4,74.7,334.5,75,338.8 M90.9,341c-2.8,0.9-6.3,3.2-6.3,4.2c0,0.9,0.6,0.8,3.7-0.6c1.7-0.8,3.5-1.5,4-1.6
		c1.4-0.3,2-1.1,1.2-1.8C92.8,340.5,92.4,340.5,90.9,341 M119.4,341.4c-0.4,0.6-2.1,6.4-2.1,7.3c0,1,0.2,1.1,3.4,1.6
		c1.5,0.3,2.8,0.5,2.9,0.7c0.1,0.1,0.7,0.3,1.3,0.5c0.6,0.2,2.1,0.8,3.3,1.4c1.5,0.7,2.2,0.9,2.3,0.7c0.1-0.2,0.2-0.8,0.4-1.4
		c0.8-2.7,4.4-7.6,5.6-7.6c0.5,0,2,0.7,2.4,1.2c0.5,0.6,0.8,0.6,0.8,0c0-0.5-1.1-1.7-2-2.2c-0.9-0.5-1.5-0.4-2.6,0.4
		c-0.9,0.6-1,0.6-1.9,0.3c-0.5-0.2-1.2-0.4-1.5-0.4c-0.3,0-1-0.3-1.4-0.7C128.3,341.5,120.2,340.3,119.4,341.4 M121.1,343.3
		c0.1,0.1-0.1,0.3-0.4,0.3c-0.3,0-0.5-0.1-0.4-0.3c0.1-0.1,0.3-0.3,0.4-0.3C120.8,343,121,343.1,121.1,343.3 M293.8,345.7
		c-0.2,0.2-0.3,0.5-0.3,0.7s-0.3,0.6-0.7,0.9c-2.7,2.1-4.6,8.4-4.8,16.2c-0.2,5.9,0,6.6,2.5,9.1c2.3,2.3,3.5,2.9,14.5,7.4
		c10.9,4.4,15.8,6.9,17.9,9.3c4,4.4,4.5,5.3,6.2,11c1.5,5.1,2.2,6.1,2.8,4.4c0.3-0.8,0.8-5.9,0.8-8.5c0-1.4,0.1-2,0.4-2.2
		c2.4-2,3.1-20.8,1.1-28.4c-0.2-0.6-0.3-1.6-0.3-2.3c-0.1-2.5-1.7-3.3-7.8-3.7c-2.2-0.1-4.1-0.3-4.3-0.4c-0.1-0.1-1.5-0.4-3-0.7
		c-5.9-1.2-14.9-4.3-18.7-6.3c-1.8-1-3.5-3-4.1-4.7C295.3,345.4,294.6,344.9,293.8,345.7 M136,347.8l-0.7,0.8l0.7,0.8
		c0.4,0.4,0.7,1,0.7,1.2s0.2,0.7,0.4,1.1c0.7,1.4,0.1,1.6-1.4,0.3c-0.8-0.6-1.4-1.1-1.5-1c-0.2,0.2-0.9,3-0.9,3.6
		c0,0.3,0.6,1.3,1.3,2.2c0.7,0.9,2,2.5,2.9,3.7c0.9,1.2,2.3,2.6,3.2,3.2c0.8,0.6,2.1,1.5,2.9,2.1c2,1.5,3.9,2.3,6.6,2.9l2.4,0.5
		l1.9-0.8c2.4-1,6.3-3.1,6.3-3.4c0-0.1-0.5-0.9-1.1-1.6c-2.9-3.7-5.2-5.7-7.3-6.1c-1.5-0.3-4.2-1.6-7.1-3.5c-0.9-0.6-2-1.1-2.5-1.3
		c-0.7-0.2-1.4-0.8-3-2.8C137.2,346.7,137,346.6,136,347.8 M88.6,349.9c-3.9,1.6-5.1,4.3-1.3,2.8c0.7-0.3,2.1-0.8,3.2-1.2
		c2.1-0.8,2.6-1.2,2.3-2C92.6,348.9,90.7,349,88.6,349.9 M370.5,351.2c-1.5,1.1-4.1,2-6.3,2.5c-4.1,0.8-11.1,5.6-12.1,8.4
		c-0.5,1.3-0.4,6.9,0.2,16.3c0.6,8.9,0,14.5-2.2,21c-0.9,2.6-1.1,3.7-1.1,5.3c-0.1,4.6,1.9,1.5,5-8.1c2.9-8.9,3.5-11.7,4.2-19.7
		c0.6-6.6,1.4-12,1.8-12.7c2-3.1,6.3-7.1,10.3-9.4c1.7-1,3.9-3.1,3.9-3.8C374,349.9,372,350.1,370.5,351.2 M89.4,356.6
		c-4.1,1-6.1,3.3-3.8,4.3c1.1,0.5,7.1-2.3,7.1-3.2C92.7,356.7,91.2,356.2,89.4,356.6 M113.6,361.9c-0.9,0.3-1.2,0.9-2.4,4.8
		c-2.6,8.4-2.4,8.8,3.2,8c1.8-0.3,2.1-0.2,2.5,0.1c0.3,0.2,1.1,0.5,1.8,0.7c0.8,0.1,1.8,0.4,2.4,0.7c1,0.4,1.4,0.3,1.4-0.6
		c0-0.6,1.6-4.3,2-4.5c0.2-0.1,0.6-0.6,1-1.1c1.3-1.9,3.3-2.5,4.4-1.3c1,1.1,1.3,0.4,0.3-0.8c-0.8-0.9-2.2-1.3-3.2-0.9
		c-0.8,0.3-1.7-0.2-3.7-2.2C120.5,362.1,116.4,360.9,113.6,361.9 M88.4,364.5c-2,0.5-4.1,1.9-4.6,3.2c-0.5,1-0.4,1.9,0.2,1.6
		c0.2-0.1,1-0.7,1.8-1.2c1.7-1.1,3.5-1.7,5.7-2c1.3-0.2,1.6-0.3,1.7-0.7C93.4,364.1,91.2,363.7,88.4,364.5 M127.2,370.9l-0.7,0.9
		l0.7,0.7c0.8,0.8,1.4,2.6,1.2,3.2c-0.3,0.7-0.8,0.5-1.7-0.6c-1-1.3-1.2-1.3-1.7,0.4c-0.8,2.2-0.7,2.6,1,4c0.8,0.7,2.8,2.5,4.2,4.1
		c3,3.2,4.5,4.1,8.8,5.6c3.1,1,3.2,1,7.2-0.3l3.3-1.1l-0.6-1.5c-0.3-0.8-0.8-2.1-1.1-2.8c-0.6-1.5-1.3-1.9-4.4-2.5
		c-4-0.7-7.9-3-10.2-5.9C128.8,369.8,128.3,369.4,127.2,370.9 M87.4,371c-1.8,0.5-2.9,1.1-3.6,2c-1.1,1.4-0.2,1.6,2.1,0.6
		c1.3-0.6,2.9-1,5.5-1.6c0.9-0.2,1-0.8,0.2-1.2C90.9,370.3,89.3,370.4,87.4,371"/>
</g>
</svg>
