<svg xmlns="http://www.w3.org/2000/svg" viewBox="0 0 400 400"><path d="M174.1 25.2c-1.6.5-4.9 1.6-5.8 2-1 .4-1 .1 0-1.2.7-.9.7-.9.2-.8-.8.2-3 1.1-3.2 1.3-.1.1-1.2.7-2.4 1.3-1.2.6-2.6 1.4-3 1.7-3.7 3.2-3.7 3.2-2.4.4.5-1 .9-1.9.9-2 0-.1-2.3.6-3.4 1.2-1.6.7-4 2.3-4 2.7 0 .3 3.1 3.5 4.7 4.8 1.3 1.1 1.2 1.4-.2.5-.6-.4-1.4-.9-1.7-1-.5-.3-4.2-3.4-5-4.2-.4-.4-1.9-1.6-2.1-1.6-.1 0-.5-.3-.9-.6s-1.3-1-2-1.4c-.7-.4-1.4-.9-1.6-1.1-.6-.5-2.3-1.4-3.7-1.7-1.3-.4-1.5-.3-.9.3.2.2.6.7.9 1.2.3.4 1.1 1.3 1.7 1.9.6.6 1.5 1.7 2.1 2.4 1.5 2.1 4 5 4.1 5 .8 0 5.4 6 7.5 10 .7 1.3 1.6 2.8 1.9 3.3.4.5 1.4 2 2.3 3.3 2 2.8 3.1 4.1 4.4 4.6 1 .4 1.2.3.7-.4-.7-.9-2.2-3.9-2-4 .1-.1.2.2.4.5.2.4.3.6.3.5 0-.1.3.2.8.6 1.3 1.4 3.9 2.9 3.9 2.3 0-.2-2.4-4.7-3-5.5-1.6-2.3-1.8-3.1-.5-1.6.5.5.9 1 1.1 1.1.1.1.9 1.1 1.7 2.2 1.7 2.3 2.8 3.2 3.2 2.9.5-.3.7-1.4.4-1.9-.2-.2-.4-.9-.6-1.4-.2-.5-.4-1.2-.5-1.4-.3-.6 0-.5.7.2 1.1 1.2 1.3 1.2 1.2-.2-.1-.7-.3-1.5-.5-1.7-.4-.7-1.6-2.8-1.6-2.9 0-.2.4 0 1.5.8 1.5 1.1 1.5 1.1 1.7.1.2-1.3.6-1.7.8-.7.2 1.1.5 1.9.8 1.9.2 0 .2.3.2 1v1l.5-.3c.6-.4.6-.1.1 1.1-.2.5-.4 1.1-.4 1.4 0 .5 0 .5-.4.3-.5-.3-.5-.3-.7 1.3l-.1 1.4.8.4c.4.2.6.4.5.4-1.2.1-1.7.4-2 1.2l-.2.5-.2-.5c-.4-.9-.5-1.1-1-1.1s-.7.5-.7 2.3c0 1-.3 1.5-.9 1.5-.1 0-.4-1.1-.8-2.5-.2-.6-1.2-.3-1.3.3 0 .3 0 .7-.1.8 0 .1-.1.7-.1 1.3 0 1 0 1.1-.4.8-.2-.2-.6-.4-1-.6-.3-.2-.7-.4-.9-.6-1.5-1.5-2.4-1.1-1.4.6.3.5.5.9.4.9-.3.3-1.4-.3-2.4-1.4-.7-.7-1.3-1.2-1.3-1.2v1.2c0 .7 0 1.5-.1 1.9l-.1.7-.5-1.1c-.9-1.9-1.6-4.4-1.6-5.3 0-1-.6-2.6-1.4-3.8-.5-.8-1.5-2.7-2.5-5-1.2-2.7-2.2-4.1-3.7-5.1-1.7-1.1-1.6-1.1-2-.2-.2.4-.5 1.2-.8 1.7-.3.5-.8 1.7-1.2 2.7-.8 1.8-1.1 2.1-.9 1.1.1-.4.3-1.9.4-3.5.2-1.6.3-3.1.4-3.4.2-.8-.2-.5-2.4 1.6-2.3 2.2-2.9 3.2-4.2 6.7-1.2 3.2-2.1 4.5-1.4 2 .2-.6.3-1.3.4-1.6.1-.3.1-.7.2-1 .1-.3.2-1 .3-1.7.6-3.5 1.4-5.2 3.2-6.9 1.4-1.3 1.4-1.5.3-1.5-.9 0-1 .1-3.1 3.8l-3.1 5.3c-.7 1.2-1.6 2.7-1.9 3.3-1 1.9-1.2 1.4-.5-1.2.1-.5.1-.6-.1-.6-.4 0-4.3 2.3-6.5 3.7-.9.6-2.1 1.3-2.6 1.6-.5.3-1.3.7-1.7 1-1.1.7-5.7 3.2-7.7 4.2-1.6.8-3.4 1.4-4.1 1.4-.5 0-.8.4-.6.8.2.4 3.9-.2 6-1l.5-.2-.5.4c-1.7 1.4-10.9 3.3-13.5 2.8-.2 0-1.1-.1-1.9-.2-1.5-.1-6.8-1.6-9.7-2.7-1.4-.5-3.7-.9-3.4-.5.3.3 4.3 2.5 5.5 3 .6.3 1.7.7 2.4 1 .7.3 1.3.6 1.2.6-.1.1-4.7-1.1-5.7-1.5-1.3-.6-1.5-.4-.4.3 2.7 1.7 7.4 3.5 12.5 4.7 1.4.3 3.1.8 3.8.9 1.4.3 3.8.3 5.4-.2 1.7-.5 3.1-1 3.8-1.4 1.2-.7 3.1-1.2 5.9-1.7l2.6-.4.5-1.1c.3-.6.5-1.2.5-1.3 0-.4-1.8-.1-3.1.5-1.5.7-4.4 1.6-4.9 1.6-.2 0-1.3.2-2.2.4-1.6.4-2.3.4-2 0 .1-.1 3.4-1.3 5.2-1.9.7-.2 1.4-.5 1.6-.7.6-.5 4-2 5.5-2.3 1.2-.3 1.6-.5 2.1-1l.7-.7-.7-.1c-.4-.1-1.1-.2-1.7-.2-2.1 0-.6-.8 2.1-1.1 1.3-.1 1.5-.2 1.9-.8l1-1.3.5-.6-.5 1.7c-.3.9-.6 1.9-.7 2.1-.4.7-1.2 3.5-2.6 8.2-.3.9-.5 2.4-.6 3.3-.1.9-.4 3.3-.7 5.4-.3 2-.6 4-.7 4.4-.1.4-.1.7 0 .7.4 0 4.8-6.9 5.1-8l.2-.4c.2.2-.6 2.8-2 6.1-.8 2-1.8 4.9-2.2 6.4-.4 1.5-1 3.7-1.4 4.7-.8 2.7-1 6.7-.3 6.7.1 0 .8-.8.8-1 0-.9 5.5-7.8 5.5-7 0 .2-.4.8-.9 1.4-1 1.2-2.6 4.1-2.8 5.1-.2.9-2.3 5.2-3.2 6.5-.8 1.2-2 3.5-2 3.8 0 .4-2.2 3.7-3.3 5-1.6 1.8-2.6 2.5-6.7 4.7-1.9 1-4.1 2.2-4.9 2.6-.8.4-1.9 1-2.5 1.3-1.6.8-1.8 1.8-.3 1.6.5 0 1.4-.1 2.2-.2 2.7-.2 5.4-1.1 7.6-2.6.4-.3 1.2-.8 1.7-1.1.5-.3 1.1-.7 1.4-.9 1.3-.9 1.3-.7 0 .7l-1 1.1.8-.3c.9-.4 2.5-1.5 3.7-2.6.5-.5 1.4-1.2 1.9-1.5.9-.6 3.3-2.8 3-2.8-.1 0 .5-1.2 1.3-2.6.8-1.4 1.5-3.1 1.8-3.6 2.1-5.4 8.4-9.7 14.8-10.2l2.2-.2c.1 0 .6-1.2.5-1.2-.1 0-.6.1-1.2.3-.9.2-4.1.8-5.7 1-3.4.4-7.6 3.6-11.1 8.3-1 1.4-1 .7.1-.7.4-.6.9-1.2.9-1.3.1-.1.3-.4.6-.8 1.6-2.1 4.7-4.7 6.8-5.6 1.1-.5 3.3-1.1 3.3-.9 0 .1.1 0 .3-.1.1-.1.9-.3 1.7-.4.8-.1 2.1-.4 2.9-.6.8-.2 1.6-.4 1.8-.4.4 0 .5-.5.2-.9-.7-1.1-7.3-.5-11 .9-1.3.5-1.4.4-.5-.2 1.6-1 3.6-1.9 5.3-2.2 1.7-.3 4.1-.5 5-.4l1 .1-.1-.7-.1-.7-1.5-.2-1.6-.2c-.1 0-.2 0-.4-.1-.7 0 .5-.4 1.7-.5 1.4-.2 1.4-.2.6-.9-.8-.6-2.4-.8-5.8-.7-3 .1-1.4-.6 2.4-1 1.3-.1 1.4-.3.4-1.2-.8-.8-.8-.9 0-.5.3.2.7.3.9.3.2 0 .5.2.8.4.7.5.8.5.7-.1-.3-1.2.9-.3 1.5 1.1.3.7.9 1 .9.5 0-.1.1-.2.2-.2s.2.1.2.3.2.5.4.8c.4.4.4.5.2 1.1-.5 1.3 0 2 .9 1.1.4-.4.5-.4.6-.1.1.2 0 .4-.1.5-.5.3-1.2 1.6-1.2 2.1 0 .6.7.6 1.4 0 .3-.3 1.8-.9 1.9-.8 0 0-.6.7-1.4 1.4-1.7 1.6-2 2.4-.8 2.2.6-.1.7 0 .9.3.1.2.4.6.6.8.6.6.5 1-.2.6s-.9-.3-1.1.5c-.1.3-.3.7-.4.9-.2.2-.3.6-.3 1 0 .9 0 .9-1-.2-.6-.7-1-.9-1.4-.9-.6 0-.7.3-.4.5.4.2.2 2-.2 1.9-1-.3-6.4.8-9.1 1.7-2.1.7-4.2 2.2-5.8 4.3-.5.6-1.1 1.3-1.4 1.6-.5.5-2.1 3-3.7 5.7-.3.5-.6.8-.7.8-.1-.1-.3.3-.4.8-.3 1.2-1.9 3.1-3.4 4.3-.7.5-1.4 1.1-1.6 1.3-.4.3-.4.3-.1.9.4.6-.2 5.2-1.1 9.1-.6 2.5-.5 2.6.5 1.2.9-1.3 2.6-4.7 2.9-5.7.4-1.5 1.9-4.7 2.2-4.7.3 0 .3.2-.1 1.8-.1.4-.2 1.4-.2 2.2 0 2.9-.6 5.5-1.7 7.6-.6 1-1 2.1-1 2.4 0 .8-.5 2-1.4 3.5-.6 1-.8 1.5-.7 1.9.1.3-.2 1.9-.5 3.6-.6 3.3-.8 8.8-.3 11.5.3 1.9.3 7-.1 8.3-.7 2.1-.8 2-.8-.6 0-2.5-.3-4.4-1.1-7.5-.3-1-.6-2.6-.7-3.5-.4-2.9-.7-2.2-1.1 1.9-.3 3.5-.5 5.6-.6 5.8-.6 1-1.5-9.5-1-12.3.1-.8.2-1.5.2-1.6-.3-.3-3.6 4.1-3.7 5.1-.5 2.8-.5 12.3 0 16.2 0 .3.1 1.7.1 3 .1 4.8.8 2.8 1.9-4.9.2-1.3.5-1.4.5-.1 0 .6.1 1.2.1 1.4 0 .2.1 1.4.2 2.5.3 3.7-.7 10.1-1.9 11.5-.2.3-1 3.4-1 4 0 .7-.7 2-2.5 4.8-1.6 2.4-1.8 3-1.6 3.9.1.6.1.6.8-.7.6-1 2-3.1 3.2-4.4.8-.9-1.2 4.7-2.1 6.1-.7 1-.6 1.2.2 1 1.6-.4 3.8.4 4.7 1.6.1.1.2.3.3.5.1.2.5.1 1.7-.5.8-.4 2.2-1 3.1-1.3l1.6-.5.5-2c.3-1.1.6-2.4.6-2.8l.1-.8-.9.6c-1.5 1-2.5 2.2-3.1 3.5-.8 1.7-1.1 1.7-.7.1.7-2.6 1.8-4 5.2-6.8 1.2-1 2.8-2.3 4.1-3.5.4-.3.9-.9 1.1-1.3.3-.4.5-.8.6-.8.3 0-1 2.7-1.5 3.3-1.8 2-2.7 3.7-3.4 6.5-.2.9-.6 2.4-.8 3.3-1.1 3.9-.8 4.4.8 1.3 1.4-2.7 2.8-4.9 4.3-6.5l.6-.6-.3.7c-.2.4-.4.7-.5.8-.3.2-1.3 2.7-2.1 5-.8 2.2-2.5 5.7-3 5.7-.1 0-.4.2-.7.5-.3.3-1.2.9-1.9 1.4-1.6 1-2.4 2.2-2.6 3.6-.2 1.2 0 1.4.7.6.3-.3.8-.9 1.2-1.3.9-1 .9-.8.3.9-.6 1.5-.9 2.1-2.5 4-1.3 1.5-2.7 4.2-2.2 4.2.1 0 .2-.1.2-.3 0-.4 1.2-.9 2.3-1 .9-.1 1.4-.6 3-3.4.3-.6.4-.1.1 1.5-.1.9-.3 1.6-.2 1.6 0 0 .6.1 1.2.1l1.2.1.4-1.3c.2-.7.5-1.9.6-2.7.1-.8.7-2.9 1.3-4.7.6-1.8 1-3.3 1-3.3-.1-.1-1.3.8-1.9 1.5-.8 1-1 1-.7 0 .3-1.4.8-2.1 2.2-3.3 1.6-1.4 2-1.9 3-4.4 1.3-3.1 2.4-5.3 2.3-4.5-.1.4-.2 1.2-.2 1.8-.3 2.4-1.9 8.5-3.1 11.2-1.4 3.4-1.5 4.4-.1 2.2.5-.8 1.7-2.7 2.6-4.1.9-1.4 2-3.2 2.5-3.9 1-1.7 1.7-2.8 3-4.4 1.7-2.1 4.4-8.9 3.1-7.9-2.2 1.8-3.8 3.8-5.3 6.6-.8 1.4-1.3 2.1-1.3 1.7 0-1.5 1.5-5 3.2-7.6 1.3-2 1.8-2.9 2-3.8.2-.7 2.1-3.5 4.5-6.6 2.6-3.2 3.6-4.7 4.8-6.8.5-.9 1-1.6 1-1.5.2.2-2 5.7-3.2 8-.7 1.4-1.2 2.6-1.2 2.6.2.2 1.1-.7 2.3-2.3 3.7-5.2 6.2-7.8 4.8-4.8-.3.6-.5 1.3-.6 1.6l-.1.6.8-.7c.4-.4.8-.7.9-.8.5-.5 3.7-3.1 5-4 3.5-2.5 7.5-9.7 7.5-13.5 0-.6 1.1-4.3 1.4-4.6.1-.1.1-.3 0-.3-.4-.3-3.8 3.7-5.6 6.7-1.6 2.6-5.5 8.5-5.8 8.7-.4.2-.2-.3.8-2.5.5-1.2 1.6-3.5 2.3-5.2 2.3-5 4.2-7.8 8.5-12.4.7-.8 1.7-1.9 2.2-2.4 1.1-1.2 1.2-1.2.9.1-.2 1.3-.3 1.2 1.4.4 2-1.1 2.7-1.8 4.4-4.3 1.9-2.9 5-9.2 4.4-9.2-.3 0-1.8 1.9-2.4 2.9-1.4 2.4-4.6 5.6-4.9 4.9 0-.1 0-.3.1-.4 1-.7 3.3-4.3 2.9-4.7-.1-.1-1.8.9-2.9 1.8-1.2.9-1.5 1.3-3.3 3.4l-1.5 1.7c-.1.1-.8 1-1.5 2.2-1.9 2.8-2.2 2.9-.9.3 2.3-4.8 6.2-9.6 9.4-11.8 1-.6 1.9-1.3 2.1-1.5.2-.2.7-.7 1.3-1.2 1.3-1.1 2.3-2.5 3.6-5.2 2-4 4.6-7.5 5.6-7.5.1 0 .2-.1.2-.2s.2-.3.5-.4c.6-.3.6-.7.2-2.4-.4-1.6-.5-1.7-1.1-.8-.6.9-2.1 2.3-3.6 3.3-2.2 1.5-3.5 3-4.7 5.2-.5 1.1-1.9 2.9-1.4 2 .1-.2.3-.8.4-1.3.7-2.5 2.7-5.4 5-7.3 1-.8 2.8-3.4 2.8-4 0-.2.1-.7.3-1 .3-.7.3-.7-.5-2.3-.4-.9-1-2.2-1.2-2.9-.4-1.3-1.9-4-2.1-3.8-.1.1-.4-.1-.7-.3l-.6-.4-.5.6-.5.6v-.9c0-1.4-1-2.8-1.7-2.4-.9.6-.9.2 0-.6.4-.5 1-.8 1.2-.8.4 0 1.1-.3 1.1-.5 0-.3-1.8-.9-2.7-.9h-.9l.5-.5c.7-.6.7-.8 0-1.3-.9-.7-.4-.8 1.6-.4l.8.1-.8-1.2c-.8-1.1-.8-1.2-.5-1.5.3-.2.3-.4.2-.9-.2-.8.4-.5 1.1.6.6.9 1.3.8.9-.1-.9-2.1-.4-2.8.5-1 .7 1.4 1.1 1 .8-.8-.1-.5-.2-1.4-.3-1.9l-.1-.9.4.6c.6.9 1.1.8 1.5-.4.2-.6.2-.5.3.6.2 1.9.4 2.1.9 1 .2-.5.4-1 .4-1.1s.1-.3.3-.4c.2-.1.2-.3.2-.4-.1-.1.1-.3.2-.4.3-.2.3-.2.2.1-.3 1.2 1.4 1.5 2.2.5.6-.8.8-.7.7.2-.1.8-.1.8.6 1.2.4.2 1 .8 1.3 1.2s.8 1.1 1.1 1.4c1.9 2 5.2 9.1 5.2 11.5 0 .8.4.7 1.8-.7.7-.7 2.1-1.9 3.2-2.6 1.1-.7 2.3-1.6 2.6-1.9 1.1-1 1.3-.8.4.6-.5.8-1.3 1.7-5 5.8-.5.6-1.2 1.3-1.4 1.6-.2.3-.7.8-1 1.2-.3.4-.6.8-.6 1 0 2.1-1 0-1.5-2.9-.2-1.5-2.8-8.7-3-8.5 0 0 0 .8.2 1.6s.3 1.8.3 2.1c0 .3 0 .8.1 1.1.1.3.1.5 0 .4-.1-.1-.2-.4-.3-.8a41 41 0 0 0-.9-2.7c-.4-1.1-.8-2.1-.8-2.2 0-.4-1.5-3.9-2-4.7-.8-1.3-1.1-1.4-2.4-1.4-1.1 0-1.7.2-1.2.5.1.1.4.8.6 1.5.2.8.6 2.1.9 2.9.8 2.3.4 2.1-1.2-.8-2.2-4-2.8-1.3-.7 3.2.6 1.3 1.2 2.6 1.2 2.8.1.3.5 1.3 1 2.2 1.2 2.4 2.7 7.1 1.6 5-.1-.3-.9-1.5-1.7-2.7-.8-1.2-2-3.3-2.7-4.7-1-1.9-1.2-2.3-1.2-1.8 0 1 .5 2.7 1.1 3.5.8 1.1 1.4 2.4 2.3 4.9.5 1.3 1.1 2.7 1.4 3.3.5.9 1.3 2.7 1.8 4.2.6 1.9 1.1 5.8 1.1 9.3 0 3.9.1 4.4.5 2.5.3-1.6 1.2-4.3 1.9-5.8.3-.6.5-1.2.5-1.3 0-.1.1-.3.2-.5s.5-1 .8-1.8c.9-2.1 1-1.8.2.8-.2.6-.3 1.2-.3 1.3 0 .1-.2.6-.3 1-.3 1.1-.2 1.2.4.4.3-.3.7-.9 1-1.2 1-1.2 2.9-3.9 3.3-4.8 1.5-2.9 3.6-5.4 6.3-7.3 1.2-.8 2.3-1.6 2.4-1.7s.3-.1.3 0c.1.1 0 .3-.2.4-.2.1-.6.8-1 1.5s-1.1 1.7-1.5 2.2c-1 1.1-3.4 4.4-3.3 4.5.2.2 4.5-2.9 6.1-4.4.3-.3 1.2-1 2-1.6.8-.6 1.9-1.7 2.3-2.3.8-1.1 2.1-2.6 3.7-4.4 1-1.1 2.2-3 2.1-3.1-.2-.2-2 1.3-3.5 2.7-.9.8-1.7 1.6-1.9 1.6-.2.1-.4.2-.4.3 0 .1-.1.2-.2.2s-.1-.2.2-.4c.2-.2.8-1.2 1.3-2.1 1.1-2.1 2.1-3.1 4.2-4.5 1.5-1 3.5-3.1 3.5-3.7 0-.2-.5-.8-1.1-1.5-.3-.4-.8-.3-1.4 0-.2.2-.6.3-.7.2-.1-.1-.5.1-.7.4-.8 1-3.5 3.7-3.6 3.7-.2 0 .2-.8.9-1.9.4-.6 1-1.6 1.3-2.2l.7-1.4c.6-1 .1-1.2-.7-.3-1 1.1-4 3.7-4.9 4.1-.4.2-1 .5-1.3.7-1.1.8-.7-.3.7-1.6.5-.5 1.1-1.2 1.4-1.6s.9-1.1 1.4-1.7c.5-.5 1.1-1.3 1.4-1.8s1-1.4 1.6-2.2c.6-.8 1.4-2.1 1.7-2.8l.7-1.3-1.6.9c-2 1.1-4.6 3.6-6.3 6.1-1.5 2.1-3.8 4.6-5.1 5.5-.8.5-2.6 1.9-3.7 2.8-.1.1-.5.5-.9 1-1.3 1.6-.8.3.7-1.7.4-.5 1.4-1.6 2.4-2.6 2.7-2.7 4.1-4.7 5-7.6.4-1.3.7-2.2.5-2.1l-1 1.2c-1 1.2-3 3.2-3.3 3.2-.3 0-.1-.3.5-1.1 2.2-2.5 3.6-8 2.9-11.1l-.3-1.5-1.4 2.3c-1.7 2.9-3 4.4-5.1 6.4-3.2 2.9-4.3 4.1-5.1 5.6-.9 1.8-1.2 1.4-.8-.9.5-2.4 2-4.8 5.1-8.2.8-.8 2.6-4.1 2.4-4.3 0 0-1.3 1.1-2.8 2.5-2.7 2.6-4.2 3.7-4.3 3.6l.2-.4c.1-.2.9-1.2 1.6-2.3 1.7-2.7 4.1-5.6 6.2-7.6l2.7-2.7c.5-.5 1.5-1.4 2.2-1.9 2.8-1.9 5.1-4.8 6.2-7.6.3-.8.6-1.4.7-1.3.2.2 0 3.2-.3 4.4-.2.7-.3 1.3-.3 1.4 0 .1.5.1 1.1-.1a6.5 6.5 0 0 0 5.1-7.1c-.2-2.3.3-2.2 1.4.3.6 1.3.7 1.5.7 3.3 0 1.3.1 1.8.2 1.7.3-.3.7-.2.7.1 0 .2-.1.3-.2.3s-.7.6-1.4 1.2c-1.6 1.5-2.8 2.2-4.4 2.6-1.5.3-3.2 1.8-3.4 2.8-.1.3-.5 1-1 1.5-2.1 2.5-3.9 9.4-1.9 7.2.2-.2.4-.5.4-.6 0-.8 3.3-4.3 5-5.3l1.8-1.1c1-.6 1.2-.7 1.2-.4 0 .1-.1.2-.2.2-1.3 0-5 6.2-7.7 13-.1.1.7-.6 1.7-1.6s2.5-2.4 3.4-3c1.4-1.1 2.6-2.7 3.6-4.5.1-.3.7-1 1.2-1.7s1.1-1.6 1.3-2.1l.4-.8-.1.8c-.1.9-.3 1.5-1.3 4.4-.8 2.4-.8 2.4.6 1.4 1.7-1.2 4.2-4.8 4.2-6 0-.2.1-.5.3-.8l.3-.5.1.5c.7 2.6-.4 6.1-2.4 8.2l-2.5 2.5c-1.4 1.4-2.3 2.8-1.9 3.1.1.1 1.9.1 4.1.1 2.1 0 3.9.1 3.9.2s-.1.2-.1.2c-1.5.1-5.3.8-6.4 1.3-.7.3-1.3.5-1.5.5-.4 0-.4 2.5 0 3.1.2.4 3.5.1 5.9-.4 1-.2 2.4-.4 3.1-.5 1.2-.1 5.8-.8 7.3-1.2 1-.2.2.3-1.4.8-1.8.7-4.1 1.3-6.9 2-1 .2-2.4.6-3.2.9l-1.4.5 3.2-.1c1.7 0 3.2-.1 3.2 0 0 0-.4.3-.9.5-1.4.7-.5.7 1.9 0 1.1-.3 2.9-.7 4.1-.8 1.1-.1 2.8-.4 3.8-.6s2.4-.5 3.1-.6c6.8-1.1 11.7-3 14.3-5.4.3-.3 1.5-1.3 2.6-2.2 2.6-2.1 6.4-5.3 6.4-5.4 0-.1-1.7.8-2.8 1.6-.5.4-1.6 1-2.4 1.5-.8.5-1.8 1-2 1.2-.3.2-1.4.8-2.4 1.4-1.1.6-2.1 1.1-2.3 1.3-.2.1-.5.3-.6.3-.1 0 .2-.2.6-.5.4-.3 1.2-.8 1.6-1.1.4-.3.9-.5 1-.5.1 0 .2-.1.2-.2s1.7-1.3 3.8-2.7c2-1.4 4-2.7 4.3-2.9.3-.2 1.7-1 3-1.6 1.3-.7 2.5-1.3 2.6-1.4 2.8-2.2 9.1-3.9 16.1-4.4 2.8-.2 3.5-.6 1.5-.9-.6-.1-1.6-.2-2.1-.3-.5-.1-2.3-.2-3.9-.2h-2.9l-3.4 1.1c-3.4 1.1-5.2 1.8-6.8 2.5-.5.2-.9.4-1.1.4-.1 0-.4.1-.7.3-.2.1-.4.2-.4.1s-.1-.1-.1 0c-.3.4-1.8 1.3-1.8 1.1.1-.2 1.1-.9 2.1-1.4.3-.1.7-.4 1-.6.8-.5 5.4-2.5 7.7-3.2 2.5-.8 2.4-1-.5-.9-4.1.1-5.5.6-11.9 4.3-5.4 3.2-6.3 3.8-6.6 4.1-.3.4-4.3 2.4-5.2 2.6-.3.1-1.2.4-2 .7-1.8.7-5 1.6-7 1.9-2.6.4-3.3.1-.9-.3 1.4-.2 4.5-1.1 4.7-1.3.1-.1-.4-.1-1 0s-1.5.2-2.1.2c-.5 0-2.3.2-3.8.3-2.6.2-8.2.2-9.5-.1-.3-.1-1-.1-1.8-.1-1.4 0-2.5-.3-1.6-.4.3 0 .7-.1.9-.1.2 0 1-.2 1.8-.3l1.4-.2v-1c0-1.2.2-3.7.4-5.1.5-3.7-.6-6.2-4.5-10.8-.3-.4-.8-1.2-1.1-1.8-.3-.6-.8-1.7-1.1-2.5-.7-1.4-1.4-3.6-1.2-3.7 0 0 .3.1.5.3 1 .9 1.7.8 6.2-.8 4.8-1.7 4.8-1.6-.4 1.2-2.8 1.5-3.9 2.9-2.7 3.3 1.8.7 3.7.3 7.7-1.6 1-.5 4.3-2.7 4.5-3 .1-.1.1-.1.1 0 0 .5-4.1 3.7-6.4 5-2.6 1.5-3.1 1.8-3 2 .4.4 6.5-1.8 8.7-3.3a33 33 0 0 0 6.1-5.7c1.1-1.5 1.1-1.4 2.6-3.2.7-.8 1.6-1.9 2.1-2.4s1.6-1.8 2.3-2.7c.8-1 1.6-1.9 1.8-2.1 1.1-1 1.8-2 1.6-2.2-.5-.3-1 0-2.9 1.6-2.7 2.3-3 2.6-5.3 4.7-1.9 1.8-4.7 3.9-6.4 4.7l-.7.3.6-.6c.3-.3 1.2-1 2.1-1.6 2.6-1.9 3.3-2.9 1.1-1.5-1.9 1.2-6.9 3.1-9.4 3.5-.5.1-2 .3-3.2.6-1.2.2-2.6.4-3.1.5-.5.1-1.7.3-2.7.5-3 .6-2.9.6-3.6-.2-.5-.7-.6-.7-1.2-.7-.4.1-1.6 0-2.7-.2-3.7-.5-4.1-.4-8.9 1.4-3.6 1.4-6.4 3.1-8.9 5.7-1 1-1.8 1.8-1.9 1.8-.2 0 .4-1.1.9-1.6.3-.3.5-.6.5-.6 0-.3 2.5-2.9 4.2-4.3 5-4.3 8.8-5.8 13.7-5.3l1.4.1-.8-.4c-.7-.3-1.3-.5-3.9-.9-1.1-.2-4-.1-4.9.1-.9.3-.9 0 .1-.6.9-.5 4.2-1.7 4.8-1.7.7 0 .7-.3 0-.6-2.3-.8-7.1.5-9.5 2.4-1.4 1.1-4.7 2.5-6 2.5-1.4 0-3.7 1.8-5.3 4.3-.3.5-.6.9-.7.9-.1 0-.1.2-.1.3 0 .1-.3.8-.7 1.6-.7 1.5-.9 2-1 2.4-.1.4-.4.9-.5.7-.1-.2.7-3 1.5-4.8 1.8-4.2 4-6.5 7.5-7.6a10 10 0 0 0 4.5-2.9c1.7-1.7 1.7-1.7-1.1-1.2-3.9.7-5 1.2-7.9 3.3-1.4 1-1.5 1.1-1.5.8 0-.8 4.4-4.5 6.8-5.7 2.5-1.2 1.9-1.5-1.8-.7-4.6.9-8.8 3.2-11 6.1-.4.5-.7.6-.7.2 0-1.5 3.1-4.8 6.3-7 1.9-1.2 1.9-1.3 1.3-1.3-.4 0-1.3-.1-2.1-.2-2.7-.4-5.1.1-8.3 1.7-2.9 1.4-2.4.7 1-1.5l1.3-.8-.8-.1c-4.1-.6-10.6 1.3-14 3.9-1.9 1.5-1.2.3.8-1.5 2-1.7 3.6-2.9 5.8-3.9 1.1-1.9.6-2.1-1.7-1.4m78.7 7.3l-.3.6.4-.5c.2-.3.4-.5.4-.6 0-.3-.2-.2-.5.5m9.5 31.5c0 .1-.2.3-.5.4-.3.2-.6.4-.7.5-.1.1-.1.1-.1 0s.3-.4.6-.6c.7-.5.7-.5.7-.3m-41.9 21.4c-.2.2-.3.3-.2.3.1 0 .4-.1.6-.3.2-.2.3-.3.2-.3-.1.1-.4.2-.6.3m1.4 2.4c-1.3.7-1.8 1.3-2.9 2.7-.4.6-.9 1-1.1 1.1-.2 0-.8.6-1.2 1.3-1.3 1.9-2.2 3-3.6 4.4-.7.7-1.5 1.7-1.9 2.1-.4.5-.7.9-.8.9-.1 0-.1.1-.1.2 0 .3 2-1 3-1.9.5-.5 2-1.6 3.3-2.5 2.9-1.9 3.5-2.5 5-5 2.3-3.7 2.4-4.5.3-3.3m21.2.7c-.7.1-3 1.2-3.6 1.6-.5.4-.8 1.2-.8 2.5 0 .6-.2 1.4-.3 1.7-.3.7-.4-1.7-.1-2.9l.1-.5-.4.5c-.2.3-.6.8-.7 1.2-.2.4-.4.7-.5.7-.2 0 0-1 .4-1.5.2-.2.2-.4.1-.4s0-.1.1-.3c.8-1-4.7 1.5-6.3 2.8l-.8.7.6-.8c.3-.4 1.3-1.3 2.1-2 2.3-1.7 2.5-2 1-1.2-2.5 1.3-7.5 5.6-9.8 8.5-1 1.2-3.7 6.6-3.5 6.9.1.1 0 .3-.2.4-.4.3-.4.6.1.5.8-.2.3.3-.8.7-1.5.5-2.3 1.2-3.7 3.3-1.3 1.9-1.3 2-.2 1.4 1-.5 3.9-.8 3.6-.4-.1.1-.3.2-.5.2-.8 0-4.1 2-4.6 2.8-.6.9-.2 5.3.8 8.6.3.9.5 1.8.6 2.1 0 .2.3 1 .5 1.7s.4 1.4.5 1.5c.4 1.4-.8-.7-2.9-4.8-.7-1.4-2.1-6.3-2.1-7.3 0-.8-.5.4-.8 1.9-.4 2.2-.2 3.7 1 7.9.1.4.6 1.6 1.1 2.7 1.3 2.9.9 2.6-.5-.4-.7-1.4-1.7-3.3-2.3-4.2-.6-.9-1.2-2.1-1.4-2.7l-.3-1-.9.6c-.9.6-2.1 2.1-3.2 3.9-1.8 2.8-.4 11.9 2.9 19.7.5 1.2 1 2.3 1 2.3 0 .1.2.4.4.8s.3.7.2.8c-.1.1-.1 0-.1-.1s-.2-.5-.5-.9c-.7-1-2.3-4.1-2.8-5.4-1.5-3.9-2.1-5.5-2.5-7.3-.7-2.8-2.5-8.2-2.8-8.2-.7 0-3.5 1.7-4.6 2.8-.7.7-1.4 1.3-1.6 1.3-.2 0-.5.3-.8.7-.7.8-1.8 1.2-5.9 1.9-1.5.3-3.5.7-4.4 1-2 .6-1.9.6-2.5.8-.3.1-.5.2-.6.1-.4-.2-8.6 5.7-10.3 7.4-1.9 1.9-2.4 3.4-2.4 7 0 3.1 4.7 2.1 9.5-2.1 1.2-1.1 4.4-3.4 4.5-3.3l-.4 1.2c-.3.6-.5 1.3-.5 1.4 0 .1-.4.8-.8 1.6-.9 1.4-.9 1.8-.5 1.8.6 0 2.8-1.7 3.6-2.8.4-.6 1.1-1.3 1.5-1.6.4-.3 1.6-1.6 2.7-2.9 1.1-1.3 2.1-2.3 2.1-2.2 0 .2-2.8 5.1-3.4 6-1 1.5-4 5.1-5 6.1a95.9 95.9 0 0 1-8.2 7.1c-1.5 1.2-3 2.3-3.3 2.6-1.1.9-2.1 1.8-2.8 2.3-4.1 3-12.2 16.4-12.2 20.1 0 .3-.2 1-.5 1.6-1.9 4.2-1.9 10.4 0 14.7 3.3 7.6 10.1 11.4 16.6 9.4.3-.1 1.1-.2 1.7-.3 1.4-.2 2.9-.6 4.3-1.2.6-.3 1.7-.6 2.4-.8.8-.2 2.4-.8 3.7-1.4 1.3-.6 3.8-1.7 5.7-2.4 1.8-.7 4.2-1.6 5.2-2.1 2.7-1.1 2.9-1 .4.4-.9.5-1.8 1-2.1 1.3-.3.2-1 .6-1.5.9-3.5 1.9-4.4 2.4-5.7 3.4-.8.6-2.5 1.6-3.9 2.3-3.6 1.7-7 3.4-8.4 4.2-5.7 3.1-16.6 3.6-20.2.8-.3-.3-.8-.5-.9-.5-.3 0-3 2.7-4 4.1-.4.5-1.1 1.3-1.5 1.7-1.1.9-.9 1 2.5 1.3 1.5.1 2.9.3 3.1.3.3 0 2.8.3 3.2.4.5 0 .3.3-.1.3-1.6-.1-11.8.4-12.4.6-.9.3-6.6 3.1-6.8 3.4-.2.3-.5 1.3-.4 1.3l1-.4c1.1-.5 5.3-1.3 7.2-1.4 1.4-.1 1.8 0 1 .2-7.2 1.7-9.7 3.1-10.3 5.8-.2.9-.4 1.7-.4 1.9-.1.3 0 .3.8-.1.3-.2 1.1-.5 1.7-.7l1.1-.3-2.6 2.6c-3.5 3.5-6.8 7.4-6.8 8.1 0 .3-.1.3 1.7-.4 1.9-.7 2.6-.9 5.5-1.6 1.2-.3 3.3-.8 4.7-1.1 3.4-.8 3.7-.8 2.7-.4-.9.4-4.1 1.5-8.2 2.7-4.9 1.5-7.9 3.1-9.5 5.2-1.2 1.6-1.2 1.6.7.9 2.9-1.2 4.2-1.7 5-1.8.9-.2 3.5-.9 7.4-2.2 4.9-1.6 14.4-3.6 13.2-2.8-.3.2-1.9.7-4.3 1.3-.6.2-2.2.9-2 .9.1 0 .9-.1 1.7-.2.8-.1 1.8-.2 2.2-.3.4-.1 1-.1 1.3-.2.3-.1.3 0-.2.2-.4.2-.7.3-.8.3-.1 0-.9.2-1.8.5s-2 .6-2.3.6c-3.5.7-7.8 2.4-13.2 5.3-3.2 1.7-3.7 2.3-8.7 9-.7 1-3.8 5.3-5.2 7.4-1.9 2.8-4.7 8.9-6 13.1-.3 1-.8 2.7-1.2 3.9-.4 1.2-.9 3-1.2 4.1-.3 1.1-.6 2.2-.7 2.5-.3.9-.4 7-.2 9.2.5 4.6.7 5.2 3.6 14.1 3.4 10.3 4.7 12.9 9.3 18.7 3.3 4.2 8.3 7.6 14.4 9.9.6.2 1.8.7 2.6 1 1.5.6 4.2 1.4 7.8 2.3 1.1.3 2.7.7 3.4.9 2.8.8 5.6 1.3 11.4 2 1.3.2 2.7.4 2.9.4 3.8.8 19.3.6 23.5-.2 4.3-.8 9.7-.5 13.8 1 .5.2 2.5.8 4.6 1.3 2 .5 4.5 1.2 5.4 1.5 1.8.6 5.2 1.5 6.5 1.6.8.1 3.2.5 5.4.9 5 .9 10.1.6 14.5-.9.8-.3 2.6-.8 3.9-1.1 4-1 8.1-2.6 13.6-5.2 1.6-.8 6.9-5.6 8.7-8.1.4-.6.9-1.1.9-1.2.1-.1.2-.4.4-.7.2-.3.6-1.1.9-1.8.3-.7 1.3-3.2 2.1-5.6.8-2.4 1.5-4.4 1.5-4.4s0-.1.1-.3c0-.2.3-1 .6-1.8.4-1.1.6-2.1.7-4.2.1-1.5.2-3.1.3-3.6.1-.5.1-2.4.2-4.3s.1-3.7.2-4.1c.1-.4 0-1.2-.1-1.9l-.2-1.2h-2.3c-6.1-.1-9.8-1.8-14-6.6-2.9-3.3-5.4-10.5-5.4-15.8 0-2.5.2-2.6.7-.3.5 2.3 1.9 6.6 3 8.7.5 1 .9 1.9.9 2 0 .7 2.7 3.7 4.2 4.7.5.4 1.3.9 1.8 1.3 3.8 3.1 12 4 15 1.7.4-.3 1.2-.8 1.8-1.2 2.9-1.6 5.4-6.8 6.3-12.7.4-3.1.1-12.3-.5-13.3-.1-.1-.9-7.2-1-9.3-.1-.8-.2-2-.4-2.8-.6-3.1-2.1-12.3-2-12.5 0-.1.3.7.6 1.9s.9 3.4 1.3 5c1.4 5.5 2 8.2 2.6 12.3.2 1.1.5 3.3.7 4.8 1.4 9.5 1.4 9.3 1.6 8.2.6-2.8.8-11.3.4-13.1-.7-3.2-1.6-7.3-1.7-8-.1-.5-.2-1.1-.3-1.5-.1-.3-.2-1.3-.3-2.1-.2-2.9-1.1-7.3-1.8-9-.3-.6-.6-1.8-.8-2.6-.2-.8-.8-2.8-1.3-4.4-.5-1.6-1-3-1-3.2 0-.3-1.2-2.5-1.4-2.6-.1 0-.2-.3-.3-.5-.1-.3-.3-.5-.5-.5-.4 0-.4 0 .4-1.5.5-.9.6-1.4.5-1.6-.1-.2-.1-.7.1-1.3.8-2.9 0-4.9-2.5-6.5-.5-.3-1.3-.8-1.7-1.1-.5-.3-1.1-.6-1.4-.6-.3 0-.6-.1-.7-.2-.1-.1-.2-.1-.4 0s-.5.2-1 .1c-.4-.1-.9-.1-1.1-.1-.2 0-.3 0-.2-.2.1-.1.2-.2.4-.2.1 0 .4-.2.6-.4.2-.2.5-.3.7-.3.2.1.6 0 .8-.1.2-.1.7-.2.9-.2.4 0 .5-.1.5-.5 0-1 .3-3.2.6-5.1.2-1 .3-2.1.4-2.4 0-.3.2-1.3.5-2.1.2-.9.6-2.8.8-4.4l.4-2.8-.5-.9c-1-1.8-2.5-4.1-2.8-4.1-.2 0-1.8 1.5-3.6 3.3-3.4 3.4-4.5 4.2-2.3 1.7.7-.8 1.6-1.9 2.1-2.5.5-.6 1.4-1.7 2-2.4 1.4-1.5 1.5-1.4-.2-3-2.1-2.1-2.4-2.2-3.7-1.4-3.4 2-5.8 1.5-6.8-1.6-.6-1.8 0-4.4 1.3-5.7 1-1 1.5-1 .9-.1-1.4 2.4 1.1 5.3 3.7 4.2 2.4-1.1 5 .8 7.2 5.1.3.6 1 1.9 1.7 2.9.6 1 1.3 2.3 1.5 2.7.4.8 2.7 4.9 3 5.1.2.2 1 1.9 1.4 3.2.5 1.6.5 2.3.1 1.2-.3-.8-.8-1.5-.6-.8.3.9.9 3.5 1 4.4.1.7.1.9 0 .4l-.1-.7-.2 1c-.1.6-.5 1.5-.7 2-.9 1.9-1 5.2-.2 6.8.4.7.5.6 1-1 .2-.7.6-1.5.9-1.8.4-.6 2.3-3.3 5.6-8 1.6-2.4 3.7-4.8 5.9-7 1.4-1.4 1.4-2 0-2.4-.2-.1-.4-.2-.3-.3.2-.3 1.2-.2 1.9.1.8.4 1.4 0 2.3-1.9l.7-1.4-.9-.4c-2.1-.9-3-1.5-3.9-2.4-1-1.2-1.1-1.3-.1-1.2 3.1.4 3.8.5 5 .5.7 0 1.9.1 2.6.3.7.2 1.4.3 1.5.2.4-.1 1.3-2 1.2-2.4-.1-.1 0-.4.2-.5.7-.6.3-1-1.3-1.2-3.5-.4-7.5-4.1-7.7-7.2-.1-1.9-2.3-2.9-6.1-3-1.9 0-2.1-.1-.8-.7l.8-.3v-2.1c0-1.8.2-3.2.4-3.4 0 0 .1.8.2 1.9.3 3.6 1 4.8 1.2 1.8.2-3.3 3.4-9.6 5-9.6.5 0 .6-.3.3-1s-.9-.8-2.1-.1c-.5.3-.4.1.2-.5 1.2-1.1 2.2-1.3 2.2-.4 0 .3.2.8.4 1.1l.4.7h2c5.2 0 8.7 4.3 9.9 11.8.2 1.4 2 1.8 6.3 1.3 2.1-.2 2.4-.1 7.6 1.6 2.6.9 3.2 1.2 4.6 2.3 1.2 1 2.5 1.4 2.2.7-.9-2.1-.1-5.2 1.6-6 .9-.5 1.1-.4.6.3-1 1.2-1.1 2.1-.9 7.1.2 3.9.4 6 .8 6.7.3.7 4 4.2 5.3 5 2 1.2 3.2 1.9 5.9 3.5 1.5.9 3.1 1.8 3.6 2.1 6.6 4.2 15.8 7.3 18.6 6.4.9-.3 1.9-.3 3.5-.2.7.1 2 .2 2.9.2.9.1 2.1.2 2.6.3.5.1 1.5.3 2.2.4 1.7.3 2.8.6 4.1 1.2.6.3 2 .7 3 .9 3.4.7 5.5 1.6 7.9 3.5.7.5 1.3 1 1.3 1 .4 0 .6-.6.5-1.5-.1-.5-.2-1.6-.3-2.4-.1-.8-.3-1.6-.5-1.8-.1-.2-1-1.4-2-2.8-.9-1.3-2.2-3-2.9-3.6-.7-.6-1.4-1.4-1.6-1.6l-.4-.4.5.2c1.4.5 4.2 2.1 5.3 3l1.3 1-.1-.8c-.5-3.2-1.9-6.2-4-9-.8-1-1.7-2.3-2.1-2.8-.4-.5-.9-.9-1.1-.9-.2 0-1-.3-1.8-.8-4.2-2.2-8.7-2.9-12.1-1.9-.8.2-1.9.3-4.5.3-1.9 0-4.4.1-5.6.2-1.2.1-2.5.1-2.9.1-3.5-.3-4.4-.7-1.6-.7.9 0 1.6 0 1.7-.1.1-.1.5-.2.9-.2.4-.1 1.3-.3 1.9-.4.8-.2 2.5-.3 4.8-.4 2-.1 3.7-.1 3.9-.2.8-.3 2.1-.4 5.4-.6 3.7-.1 3.4.1 2.4-1.7-.8-1.3-2.6-4.5-5.1-9.1-1.6-2.9-2.5-4.1-4.9-6.4-2.3-2.2-3.5-3.4-7.4-7.4-3.9-4-5.5-5.2-10.9-8.3-3.9-2.2-4.3-2.4-5.9-2.9-2-.6-3.8-1.5-4.3-2.1l-.4-.5-1.8 1c-3.2 1.7-5.1 4.1-6.8 8.3-.7 1.8-1 2.2-.8 1 .4-2.1.7-3.1 1.9-5.3 1.3-2.6 2.3-3.7 5.3-6.4l1-.9-1.1-1.5c-.6-.8-1.2-1.5-1.2-1.5-.1 0-.4-.2-.7-.5-3.3-3.1-5.2-3.5-6.1-1.4-.3.8-.9 2-1.3 2.8-.4.8-1.2 2.2-1.7 3.1-1.7 3.3-4.1 7.2-4.2 7.1 0 0 .2-.7.6-1.4a53 53 0 0 0 2.3-5.3c0-.1.1-.4.3-.7 1.5-3.4 2.3-6.5 1.7-6.7-1-.3-3.4-1.3-4.1-1.7-.4-.2-1.4-.6-2.1-.8-1.5-.4-2.4-.9-2.9-1.7-.7-.9-.9-.7-2.1 2.3-2.1 5.1-4.7 9.3-7.4 11.8-.8.8-.9.8-.4.2 2.1-2.8 4-7.6 4.8-12.1.2-1.3.5-2.6.6-2.9.3-.8-2.4-5.2-4.7-7.6-1.4-1.5-2-1.8-7.6-4.4-1.6-.7-2-.6-2 .5 0 1.8-2.3 5.8-5.3 9.3-1.9 2.2-1.7 1.6.5-2.1.6-1 1.3-2.4 1.5-3 .2-.6.5-1.8.7-2.7.2-.9.6-2 .7-2.5.4-1.5.3-4.7-.1-5.6-1.1-2.1-1.8-2.7-4.6-3.8l-1-.4-.4 1.7c-.9 3.3-2.7 7.1-5.1 10.5-1.4 2-1.3 1.9-2.7 3.3-.8.9-1.5 1.8-2.2 3.3-1.3 2.5-1.9 3.6-3.5 5.6-1 1.3-1.2 1.7-1 2 .2.3 1.5 2.4 1.7 2.5v-.5l-.1-.5.5.4c.8.7 1.5 1.6 2.1 2.5.5 1 1.2 1.8 2.6 3.3.4.4.9 1.1 1 1.5.1.4.5 1 .7 1.4l.4.7h1.9c2.2 0 2.9.2 5.2 1.8 2.4 1.6 3.2 2.7 3.5 5l.2 1.5-.6.6c-.3.3-1.3 1-2.1 1.4-.9.4-1.7.9-1.9 1.1-.2.2-.4.2-.5.2-.1-.1 0-.1.1-.1s.2-.1.1-.3c-.1-.1.4-.9 1.1-1.6 1.4-1.6 1.6-2 1.1-2.4-4.5-3.4-13.3-.6-20.4 6.6-2.2 2.2-2.9 2.8-4.2 3.4-.8.4-1.9 1.1-2.5 1.6-1.2 1-3.3 2.5-4.8 3.3-.6.3-1.6 1.1-2.3 1.7-3.6 3.1-5.4 3.9-16.7 7-2 .5-5.6.7-9.7.5-5.2-.3-12.6-4.1-16.4-8.2-4.7-5.1-7.9-9.5-11.2-15.3-.8-1.4-1.8-3.2-2.3-3.9-.9-1.6-2-4.5-2.6-7.4 0-.1-.1-.4-.2-.7-.2-.7-.5-2.7-.6-3.3 0-.3-.2-1-.3-1.5-.3-1.5-.2-1.7.2-.5 1 2.7 2.9 6 7.9 13.6 1 1.5 1.1 1.7 3.7 5.5 4.6 6.8 9.8 10 20.5 12.5 2.7.6 9.6 1 11.7.6.4-.1 2.5-.5 4.6-.9 4.8-.9 6.4-1.3 8.3-2.1.8-.3 2.1-.8 2.8-1.1 1.3-.4 3.2-1.3 6.8-3 2.3-1.1 10.2-8.3 11.9-10.8 1.4-2.1 2-4.5 1.5-5.6-.4-.7-2.9-.5-3.6.3-.5.5-4.4 3.2-4.7 3.2 0 0 .8-.8 1.9-1.8 3.8-3.5 4.9-6.3 3-8-.4-.3-.4-.3-1.8 1.1-1.6 1.6-5.4 4.5-7.1 5.4-1.4.8-1.5.8-.7 0l.6-.6-.6.2c-.5.2-.5.2-.2 0 2.2-1.4 7.7-7.3 7.7-8.3 0-.6 2-5.4 2.9-6.9.5-.9 1.2-2.1 1.4-2.6.7-1.5 1.5-2.7 3.7-5.4 3.2-3.9 3.2-3.9 4.8-7.1 1.9-3.7 2-4.5 1-5.9-.8-1-1.3-1.9-2.3-4-1.9-3.7-4.3-5.6-9-6.9-3.2-.9-3.7-1.4-4.8-4.3-2.3-6-6.3-9.7-13-12.1-6.5-2.4-7.4-2.6-6.7-1.6.3.3.5.7.5.9 0 .4 1.5 2 2.5 2.6 1 .6 1.1.7.3.5-1-.3-3.1-2.2-3.1-2.8 0-.3-1.4-1.7-1.6-1.7-.1 0 0 .2.1.5.9 1.8.1 4-2.2 5.8-1 .7-1 .5-.1-.5 3.7-4.8 2.1-7.8-3.3-6.7m-34.4 2.9c-.5 1.3-3.5 4.5-4.7 5-1.4.5-2.7 1.5-5.2 3.5-.7.6-.8.5-.3-.5.8-1.5 2.7-3.7 4.1-4.5.7-.5 1.7-1.1 2.1-1.4.5-.3 1.3-.8 2-1.1.6-.3 1.3-.7 1.6-1 .6-.5.6-.5.4 0m51.6 4.9c.8 1.4.9 3.7.2 6-.7 2.1 0 3.6 2.2 5 1 .6 2.4 2.1 2.2 2.3-.1.1-.4-.2-.7-.5-.3-.3-1.1-.8-1.7-1.1-2.7-1.3-3.8-3.6-3-6 1-2.9.7-4.8-1.2-7.3-.5-.7-1-1.3-1-1.4 0-.4 2.5 2.1 3 3m-27.1-1.1c-1.1 1.1-1.4 2.3-1.6 5.3-.2 3.4-.5 4.3-2 5.3-1.8 1.2-2 .7-.5-.8 1.1-1.1 1.3-1.6 1.9-5 .2-1.2.2-1.5 0-1.4-.1.1-.3.2-.3.3 0 .1-.1.2-.1.1-.2-.2.9-2.2 1.8-3.3.5-.6 1-1.1 1-1 .1 0 0 .2-.2.5m5.9 1.6c-.2.5-.6 1.4-.9 1.9-.3.6-.5 1.2-.5 1.4 0 .3-.5 2.7-.7 3.4-.1.2-.2.1-.4-.2-.5-.9.1-3 1.3-5.1 1.6-2.6 1.9-3 1.2-1.4m12.6 7.7c2.8 1.1 3.2 5.3.8 7.8l-.9.9.8-.1c.9-.1 1.6-.8 2.3-2.1.4-.8.4-.8.6-1.9.1-.6.2-.7.2-.2 0 .6.3.7.5.1.2-.8.5-.4.4.6-.3 3-2.7 5.3-4.7 4.6-1.6-.5-3.3-1.2-3.7-1.6-.8-.7-.8-.2 0 .6 1.3 1.4 2.5 1.8 4.1 1.7 2.6-.2 3.6-.8 4.9-2.6.7-1 .7-1.1.6-.5-.5 3-4 4.7-7.2 3.5-4.2-1.6-6-8-2.8-10.1 1.3-.8 3-1.1 4.1-.7m-15.1 1.2c2 1 2.5 2.8 1.4 5.1-.5 1-.5 1-.1.8.3-.1.3-.1.1.1-.1.1-.2.3-.1.4.5.8-3.2 3.8-4.6 3.8-.2 0 .2-.2.8-.5 1.6-.8 1.7-.9 1.3-1-.2-.1-.6-.1-.8 0-1.4.5-3.6-.3-3.6-1.4 0-.1.2-.1.4.2 1.3 1.4 3.7 1.2 5.4-.4.3-.3.6-.5.6-.4 0 .1.1.2.2.1s.1-.2.1-.4c-.1-.2-.2-.2-.8.1-1.7 1-3.8 1-4.4 0l-.4-.6.7.4c.4.2.9.3 1 .3.3-.1.2-.5-.2-.5-1.2 0-2.2-2.8-1.6-4.3.9-2.2 2.5-2.8 4.6-1.8m-17.9.2c-.2.3-.1.4.2.4.5 0 .6-.2.5-.5-.2-.4-.5-.4-.7.1m30.7.5c-2.1.7-2.4 3.4-.6 5.1 1.3 1.2 3.6-.4 3.8-2.6.2-1.9-1.3-3.1-3.2-2.5m-15.1.6c-1.5.3-1.6 3.3-.1 4.1 2.1 1.1 3.6-2.5 1.6-3.9-.4-.4-.6-.4-1.5-.2m-36.9 2.8c-3.2 2-7.3 6.3-7.4 8l-.1 1 .7-.6c2.3-2 5-4.7 5.9-6 .5-.8 1.3-1.8 1.7-2.3.7-.9.6-.9-.8-.1m44.4 3.6c.3 1.4-.3 3-1 3-.8 0-.8-.8-.1-2.3.8-1.6.9-1.7 1.1-.7m2.7 1.4c.6.7.8 1.3.3 1.5-.8.4-1.8-1.3-1.5-2.7l.1-.7.3.7c.2.4.6 1 .8 1.2m-59.6-.8c-1.4.9-2.9 3-4.8 6.5-1 1.9-1 2.1.2 1.1.5-.4 1.1-.8 1.5-1 .9-.4 2.2-2 2.7-3.1.3-.6.7-1.2 1-1.4.5-.4.6-.5.4-1.2-.1-.5-.2-.9-.2-1-.1-.3-.3-.3-.8.1m90.1.4c.9.7 1 1 .9 2-.2 1.8-1 4.9-1.3 5.7-.2.4-.5 1.5-.8 2.3-1 3.5-1.6 5.2-2.7 6.8-1.5 2.2-3.1 4.2-3.4 4.2-.1 0-.6.4-1 1l-.9 1 .6-1.2c2.8-5.8 3.4-7 4.2-7.9.5-.6.9-1.2.9-1.4s.1-.5.3-.7c.5-.8.8-1.6.4-1.3-.3.2-.3.2 0-.5.2-.4.3-.8.3-.8h.2c.1.1.1 0 .1-.2-.1-.2.3-1.1.8-2.1.8-1.5 1.8-4.7 1.8-5.6 0-.1-.4-.7-.8-1.2-1-.7-.6-.9.4-.1m-2.4.9c0 .3.1.7.2.9.2.3.1.5-.2.9-.2.3-1 1.4-1.8 2.5s-1.5 2-1.6 2.2c-.1.1-.5.7-.9 1.2-.9 1.2-1.2 1.3-.5.1.3-.5.7-1.2.8-1.5.2-.3.5-.9.8-1.4 1.2-1.8 1.2-2.1-.2-.9-1.4 1.3-1.3 1.1.2-.8.9-1.1.8-1.3-.1-.8-3.9 1.6-7.3 5.5-8.3 9.4-.7 2.8-1.1 3.6-2 4.4-1.4 1.3-4.1 2.4-6.3 2.6-.6.1-1.7.3-2.3.5-3.2 1-11.2 1-14.7 0-4.4-1.2-5.5-2.1-9.3-7.9-1.7-2.5-2.5-3.5-3.2-4.1-.5-.4-1.1-.9-1.3-1.1-.2-.2-.8-.7-1.4-1.1-.5-.4-1.2-.8-1.4-1.1-.9-.9-1.2-.4-.5.9.3.5.5 1 .4 1.2-.1.1 0 .3.1.3.2.1.2.1 0 .1-.1 0-.6-.4-1-1-.4-.5-.8-.9-.8-.9-.1.1 1.4 3.2 1.7 3.5.2.2.4.4.4.5 0 .1.2.4.4.6.5.5 2.1 3.4 2.1 3.9 0 .2.1.5.2.6.1.1.3.6.5 1.1.2.5.2.8.1.6-.1-.2-.6-.7-.9-1.2-.4-.5-.9-1.3-1.2-1.7-.3-.5-.6-1-.7-1.1-.1-.1-.2-.4-.1-.5.1-.1 0-.2-.1-.1s-1.1-1.6-2.2-3.9l-2-4 .3-.8c.4-.9.6-1 1.8-.8 5.3 1 7 1.7 3.1 1.2-2.2-.3-2.4-.2-2.1.4.2.4 1.2.8 2.6.9.4 0 1.1.2 1.6.3 1.2.3 3.8-.3 5.9-1.3 1.3-.6 3.1-.8 3.8-.3.5.3.5.3 1-.1 1.4-1.3 2.3-1.3 3.9-.2.9.7 1.1.7 2.1.7.8-.1 1.3 0 2 .3 1.3.6 1.8.5 3.6-.4 2.5-1.3 5.2-1.5 6.6-.5.5.3 1 .4 2.2.5.9 0 2 .1 2.4.2.5.1 1.7.2 2.7.2 2.8.2 1.9.4-2.1.5-3.7.1-4.7.3-4.7.9 0 .4.9.8 1.4.7.4-.1 1.7.4 1.9.8.1.1.3 0 .5-.1.4-.4 1.2-.4 1.4-.1.3.5-.4 5-.8 5.4-.4.4-.4.4-.1.6.5.2-.1.5-.9.4-.6-.1-.7 0-.8.3-.2.6-2.2.8-2.4.3-.1-.3.8-.5 1.1-.4.3.2.4-.2.1-.5-.6-.5.2-1.1 2.2-1.5.8-.2.9-.4.4-1.7-.4-.9-1.6-2.7-1.8-2.7-.3 0-1.1.4-1.1.7 0 .2-.1.2-.4.2-.6-.1-.7.4-.4 1.8.3 1.6.2 1.6-.5-.1-.5-1.5-.7-1.6-1-1.3-.1.1-.4.2-.7.2-.9.1-1 3.5-.2 5.1.3.6.2.7-.4.7-.3 0-.6-.1-.6-.2s.1-.2.3-.2c.2 0 .3 0 .3-.1 0-.4-.5-2.4-.6-2.6-.2-.2-1-2.5-.9-2.5.8-.6 1.7-.9 2.5-1 1.6-.2 1.2-1-.5-1-.9 0-1.1.1-1.3.5-.2.4-.2.4-.3.2-.1-.6-1.1-.4-1.4.2-.1.3-.3.6-.3.6s-.1-.1 0-.3c.3-.7-.4-1-.9-.4-.4.4-.5.5-.5.2 0-.5-.4-.4-1.4.1-.4.2-.9.3-.9.2-.3-.4-.9-.5-1.2-.1-.3.3-.3.3-.4-.1-.2-.6-1.5-.4-1.5.3 0 .2-.1.3-.2.3s-.2-.2-.2-.4c0-.8-1.5-1.3-1.7-.6-.2.6-.5.5-.5-.2s-.4-.8-1.1-.3c-.4.3-.4.3-.4 0 0-.5-.7-.4-1 .1l-.2.4-.2-.5c-.1-.3-.4-.5-.6-.4h-.6c-.2 0-.4.3-.6.6-.3.5-.3.5-.3.1 0-.8-1.2-.7-1.4.1-.1.3-.1.4-.2.3-.1-.6-.4-.7-1.1-.4-.6.3-.7.4-.6.7.1.4-.4 2.5-.6 2.5-.1 0-.1-.6-.1-1.3.1-1.3.1-1.3-.4-1.1-.6.2-.7.4-.5 1.5.1.6.2 1.2.2 1.3 0 .2.2.5.4.8s.3.5.2.7c-.2.3-.1 1 .3 1.4.2.2.4.6.5.8.2.8.7 1 .7.2 0-.5 0-.6.2-.4.1.2.2.6.2.9 0 .8.4 1.4.4.7v-.6c0-.1.1-.1.2 0s.2.3.2.5c0 .5.4 1.1.7 1.1.3 0 .4-.2.6-1.3.2-1 .6-.8.9.4.4 1.9 1.8 3.3 1.8 1.9 0-.4.1-.6.2-.5.1.1.2.3.2.6 0 .8 2.7 1.3 2.8.5 0-.3 0-.3.1 0 .1.4.4.5 1.8.6.6.1.9 0 .9-.2.1-.2.1-.2.4 0 .4.4.5.2.3-.3-.1-.2-.2-.4-.4-.3-.2.1-.3-2.5 0-3.5.1-.6 1.4-.8 1.8-.4.2.2.4.3.6.3.1 0 .2.2.2.4s0 .7.1.9l.1.5-.3-.4c-.6-.9-2.4-.1-2 .8.1.3.2.5.1.6-.2.7.8 2.1 1.1 1.6.1-.1.4-.1.7 0 .5.2.6.2.8-.1.2-.3.2-.3.4 0 .9 1.2 1.9.3 2-1.7.1-2.2.6-2.7.9-.9.1.5.3 1.2.6 1.6l.4.8.1-.7c.1-.7.4-.9.4-.2 0 1.4.9 1.1 1.2-.4.1-.6.2-1.2.3-1.3 0-.2.1-.3.1-.4.1-.5 1.2.1 1.2.6 0 .2.1.7.2 1.2l.2.8.9-.1c1.6-.2 1.8-.4 2.4-2.4.8-2.5 1.3-2.7 2.2-.9l.2.4.1-.4c.1-.2.2-.5.3-.7.1-.2.2-.6.2-.9 0-.9.2-1.4.5-1.3.2.1.6-.9.4-1.1 0 0-.5 0-1 .1-.9.2-.9.2-.4-.1.5-.4 1.1-2.3.7-2.3-.1 0-.1-.1.1-.2s.2-.2 0-.2-.2-.3-.2-1c0-1.1.3-1.3 2-1.4 1.4-.1 3.1-.7 3.7-1.2.4-.4.5-.5.1-.4-.2.1-.9.2-1.6.2-1.4.1-1.3 0 2.4-1.2 1.6-.5 3.2-1.1 3.6-1.3l.8-.4-1.4.1c-1.7.1-1.5-.1.7-.8 2.4-.6 3.3-.6 3.3 0m-6.5-.1c0 .4-1 .8-2.1 1-.6.1-1.6.3-2.1.5-1.4.5-1.7.3-.5-.2 2-1 4.7-1.7 4.7-1.3m-39.2 1.4c.1.1.4.2.6.3.2 0 0 .1-.6.2-.7.1-1.3.1-2 0-.5-.1-1.6-.3-2.3-.5l-1.4-.3h2.7c1.9 0 2.8.1 3 .3m7.5 1.7c-.7.5-.8.5-1.6.3-1.3-.4-2.4-.2-3.7.7-1.2.8-2.6 1.1-4.3 1.1-.6 0-1.2.1-1.4.2-.8.5 3.3.8 4.9.4 4.1-1 5.9-1.3 6.2-1 .1.1.4.2.8.2 1.5.1 3.4.4 3.9.6 1.1.4 2.7.4 2.8-.1.1-.7-1.6-1.7-2.9-1.7-.9 0-1.2-.1-1.9-.6-1-.8-1.8-.8-2.8-.1m13.5-.3c-.5.1-1.5.6-2.1 1.1-.7.5-1.5.9-2 1-.6.1-.9.3-.9.5-.1.4.9.3 3-.2s3.7-.6 4.3-.2c.7.4 1.1.3 1.4-.4.6-1.3-1.6-2.3-3.7-1.8m10.6 3.1c.1.9-.2 2.6-.4 2.3-.2-.4-.4-2.1-.3-2.3.2-.3.7-.3.7 0m-34.4.9c.4.2.7.3.8.2.1-.3 0-.3-.8-.4l-.7-.1.7.3m13.7 1c.2.1.7.3 1.1.4l.7.2-.7.1c-1.2.2-1.7 3.1-.7 4.2l.5.5-.5.3c-.3.2-.5.4-.5.7 0 .3-.1.4-.2.3-.1-.1-.2-.4-.2-.7 0-.3-.1-.6-.3-.7-.3-.2-.3-.2.1-.4.5-.3.5-.7 0-2.6-.6-2.2-1.4-2.7-1.9-1.2-.9 2.6-1.1 2.6-1.3.2-.1-1.3-.1-1.3-.8-1.4-.9-.1-1.3 0-1.3.3s-.3.9-.8 1.6c-.3.4-.3.4-.3-.5 0-.5-.1-1-.2-1.2l-.2-.4c.1-.1 7.1.1 7.5.3m-10.8 0c-.2.3-.3 1.6-.1 1.8.3.3.4-.1.3-1 0-.6-.1-1-.2-.8m20.4.8c0 .5-.3 1.5-.4 1.1 0-.1-.1-.6-.3-1.1l-.3-.9.5.2c.3.1.5.4.5.7m45.1-.6c.1.2.4.5.7.6.7.2.8.6.3 1-.6.5-2-.8-1.7-1.7.2-.4.6-.3.7.1m-51.6 1.2c.1 1.1-.4 2-.6 1.2-.3-1.2-.2-2.3.2-2.3.2 0 .3.3.4 1.1m3.2-.9c-.8 1-.5 3.9.5 4.4.5.3.1.5-.5.3-.5-.2-.6-.4-1-1.9-.6-2.4-.6-2.8.1-2.9 1.1-.2 1.1-.2.9.1m24.8 2.1c-.4.9-1.1 2.1-1.5 2.7-.4.5-.9 1.4-1.2 1.8-.3.5-.7 1-.8 1.2-.1.2-.3.3-.3.2-.1-.1 0-.2.1-.4.1-.1.9-1.7 1.8-3.4 1.7-3.5 2.6-4.8 2.7-4.2-.1.2-.4 1.1-.8 2.1m-87.5-1.6c-2 1.2-3.9 4.6-4.5 7.6l-.1.7.9-1c.6-.6 1.4-1.8 2-3.1.6-1.2 1.4-2.7 1.8-3.3.9-1.4.8-1.5-.1-.9m82.2 3.3c-.5 1.3-.9 2.7-1 2.9-.6 3.2-4.8 8.1-7.7 9-.9.3-10.9.4-11.3.2-.2-.1-1.2-.3-2.3-.4-1-.1-2.3-.2-2.8-.3-.5-.1-1.6-.1-2.4-.2-6.1-.2-7.2-.8-8.8-4.9-1.3-3.3-1.3-3.3-3.5-7.4-.2-.4-.4-.8-.6-.9-.1-.2.1 0 .4.3.3.3.7.8.9 1.1l1.2 1.7c.5.7 1.3 1.9 1.7 2.8 1 1.9 2.8 3.7 4.7 4.7l1.3.7h3.4c1.9 0 3.7.1 4.1.2 2.6.8 5.6 1 8.1.4 1-.2 2.4-.4 3.1-.4 4.5 0 7.1-2 9.9-7.5 2.7-5.2 2.9-5.4 1.6-2m-22.7-.3c0 .2-.1.1-.1-.3s0-.6.1-.4v.7m50.3-.2c-.2.9 1 1.6 1.9 1.1.4-.2.6 0 .5.5-.3.9-2.1 1.2-2.8.4-.5-.5-.5-1.8 0-2.4.3-.3.5-.1.4.4m-60.3-.1c.2.1.3.2.1.3-.3.2-1 0-1-.2 0-.3.4-.3.9-.1m2.1 1.2c0 .3-.1.7-.1.9 0 .6-.4.3-.5-.5-.1-.9 0-1.2.4-1 .2 0 .3.3.2.6m1.8-.3c.7.3.7.3.4.6-.3.2-.3.4-.2 1.5l.1 1.2-.5-1.5c-.2-.8-.6-1.6-.8-1.8-.6-.4 0-.4 1 0m-107.8 2c.1.3.2.8.3 1.1.3 1.1.2 3.5-.3 5.8-.8 3.3-.8 3.3-1.3 4.6-.3.7-.5 1.3-.5 1.5 0 .2-.4 1.3-1 2.4-1.8 3.9-2 4.7-2.1 7.4l-.2 2.4c-.4 0-1.1-3.3-1.1-4.5.1-1 .3-2.7.5-3.4.1-.4.3-1.4.4-2.2.1-.8.4-2.6.6-4 .3-1.4.5-3.4.6-4.5.2-2.7.2-2.7.7.5.3 1.8.5 1.8 1.1.2.3-.6.7-1.6.9-2.2.3-.6.5-1.7.6-2.5.2-3.1.5-3.9.8-2.6m162.4 1.3c-.4 1.1 1.4 1.6 2.2.7.4-.5.6-.5.6.1 0 1.5-2.5 1.9-3.2.5-.3-.6-.1-1.8.4-1.8.1.1.1.2 0 .5m-2.3 3.7c.1.1-.1.5-.3 1-.6 1.1.5 2.3 1.7 1.7.5-.3.6 0 .3.5-.6.9-2.6.8-3.1-.1-.7-1.2.7-4.2 1.4-3.1m-5.3 2.7c-.4.3-2.8 5.6-2.8 6.1 0 .2.6 1.2 1.3 2.3a59 59 0 0 1 3.5 5.8c.3.9 1.2 1.6 2 1.6.5 0 1.4.3 2.1.6.9.4 1.1.6.7.5-.3 0-1.4-.2-2.4-.3-2.2-.2-1.9 0-3.9-3.4-.3-.5-.9-1.5-1.3-2.2-.4-.8-1.3-2.1-1.9-2.9-1.3-1.8-1.3-2.2-.1-4.2.4-.7.9-1.6 1.1-2 .7-1.2 1.7-2.6 1.8-2.4 0 .3 0 .4-.1.5m1.3 1.6s-.2.4-.5.9c-.3.6-.4 1-.3 1.3.1.5.6.9.6.5 0-.1.4 0 .8.2.7.4.8.4 1.3.1.6-.4.6-.2 0 .4-1.9 1.9-4.2.8-3.5-1.7.3-1 1.6-2.4 1.6-1.7m-51.5 1.6c1.2.4 4.1.4 8.9 0 4.1-.3 6.3-.2 9.3.7 1 .3 3.7.4 4.8.1 1.3-.3.6.2-.9.6-1.2.3-1.8.3-3.6.2-2.8-.2-6.9-.2-9.3 0-1.3.1-1.9.1-2.3 0a14 14 0 0 0-2.6-.4c-2.9-.2-3.3-.3-4.5-.8-1.3-.7-1.3-.8.2-.4m58.5 1.1c-1 2.2-1.3 3.5-.9 3.8.1.1.3.5.4.8.1.3.7 1.1 1.5 1.9 1.9 1.9 1.8 2.1-.3.6-.5-.3-1.6-1-2.6-1.6-2.6-1.3-2.7-1.8-.8-3.4.6-.6 1.6-1.5 2.1-2.2 1-1.3 1.3-1.3.6.1m-133.9 1c-1 2.5-2 4.2-4.6 8.1-.9 1.4-2 3.1-2.4 3.8-.9 1.6-2.1 3.3-3.1 4.2l-.8.8c0 .2-2.9 5.3-3.3 5.7-.3.3-.4.4.4-2 .2-.8.7-2.3 1-3.4.9-3.1 2.1-5.2 4-7.1 2-2 6.1-6.9 6.9-8.3 2-3 2.7-3.8 1.9-1.8m68.9 3.9l1.7 1.4c1.6 1.6 6.1 3.8 9.7 4.8 1.3.4 5.6 1 5.8.9.1 0 .8-.1 1.5-.2 2.1-.2 2.9-.4 5.3-1.1 1-.3 2.2-.6 2.5-.7.4-.1 1.2-.2 1.9-.4 1.4-.3 1.4-.3 0 .7-.4.3-.4.3-.1.2.2-.1.5-.2.6-.3.1-.1.6-.3 1.1-.5.5-.2 1.2-.6 1.6-.8.9-.5 1-.3.1.3-1 .8-5 2.9-5.8 3-.2 0-.5.1-.6.2-.2.1-.3 0-.5-.2-.2-.3-.4-.3-1.1-.1-.5.1-1.4.2-1.9.3s-2.1.3-3.4.6c-6.4 1.3-11.8-.8-17.8-6.8-2.4-2.4-3.7-4-2.2-2.7.4.4 1.1 1 1.6 1.4m105.5 3.4c0 .1.4.5 1 .9 1 .6 1.2 1 .5 1.1-.9.1-2.5-1.8-1.9-2.4.1-.1.4.1.4.4m-10.4 3c-1 2.3-1.8 3.8-3.9 7.4-.9 1.6-1.6 2.3-4.5 5.4-1 1.1.4 1.6 2.2.8l.7-.3-.4.6c-1.1 1.5-2.8 1.8-4.5.8-1.8-1.2-1.9-2.5-.3-3.9 3.7-3.3 8-8.2 10.5-12.1 1.4-2.2 1.5-1.6.2 1.3m8.4.9c0 .7.2 1.2.5 1.1.5-.2 1.4.5 1 .8-.9.9-2.6-.7-2-1.9.4-.8.5-.8.5 0m-28.2 3.8c.2.1.9.2 1.5.1.6 0 1.3 0 1.6.1l.5.1-.6.7c-2 2.4-3.2 2.1-4.3-.8-.8-2.1-.7-2.4.2-1.3.4.5.9 1 1.1 1.1m25.8-.6c-.8 1.6-.6 2.2.8 2.1 1-.1 1 .4.1.9-1.5.8-2.5-.8-1.5-2.4.4-.7.9-1.1.6-.6m-144.7 3.4c.3.8.4 1.3.3 1.9-.2 1-.2 1-.4-.1-.1-.6-.3-1.4-.5-2-.2-.5-.3-1.1-.2-1.3.1-.3.1-.3.3.1 0 .1.3.8.5 1.4m115.2.5c.2.4.6 1.4.9 2.3.6 1.8.9 2.1 2.7 2.9 1.7.7 1.8.9.8.9-2.5 0-3.6-.9-4.2-3.3-.2-.8-.4-1.8-.5-2.3-.1-.4-.2-1-.3-1.2-.3-.6.3 0 .6.7m-111.1.6c0 .9 0 .9-.7 1.2-.4.1-.9.4-1.1.6-.4.3-.4.3 0-.2.2-.3.7-.9 1-1.5.9-1.3.8-1.3.8-.1m137.6 2.2c.3.2.6.1 1.1 0 .8-.3 1.1-.1.7.5-.9 1.3-3.4-.2-2.6-1.6.3-.4.3-.4.3.2.1.5.2.8.5.9M138.8 166c-.4 1.4-.8 3-.9 3.5-.1.5-.6 1.7-1 2.6-.4.9-.8 1.8-.8 2 0 .1-.1.5-.3.7l-.3.5-.2-.7c-.1-.4-.2-1.1-.2-1.7 0-.6 0-1-.1-1-.5 0-3.3 4.3-4 6.4-.7 1.9-1 2-.8.5.2-1.9 1.3-4.7 2.8-7.2 1-1.6 1.1-1.7 3.2-4.1 1-1.1 1.8-2.2 2.3-3.3 1.1-2.3 1.2-1.8.3 1.8m43.8-1.2c-.5.9-.5 1.8-.1 2.3.3.4.4.8.1.6-.3-.2-1.9 1-2.2 1.6-.3.8.1 2.1.7 2.4.4.2.4.2.1.7-1.2 1.7-1.2 4.6.1 5.6.5.4 2.2.8 3.5.8 1.5 0 1.9.2 1.5.6-1.4 1.2-.5 4 1.4 4.5 1.1.3 1.2.4 1 2.2l-.1 1.2-.7-1.3c-.9-1.6-2.3-3.2-3.7-4.2-1.9-1.4-4.2-3.9-4.5-5.1-.1-.4-.3-1.1-.5-1.6-.8-2.6.1-6 2.6-9.5 1.2-1.7 1.4-1.9.8-.8m-1.8.6c-.3.6-.7 1.3-.9 1.5-.2.2-1.4 1.3-2.7 2.6-2.3 2.3-3.8 3.4-5.1 3.8-1.2.4-1 .1.5-.7 1.6-.9 2-1.4 2-2.4 0-.7 0-.7.4-.6 1.4.5 3-.9 2.7-2.5-.1-.6-.1-.6.6-.8 1.1-.2 1.7-.6 2.4-1.4.6-.9.6-.8.1.5m138.3 3.5c0 1.6.7 2.3 1.9 1.8.6-.2.6-.1.1.7-1.2 2-3.6-.2-2.7-2.3.4-.9.7-.9.7-.2m-169.8 4.4c-.8.8-1.8 2-2.3 2.6a8.36 8.36 0 0 1-2.9 2.6c-1.3.6-3.5 3.6-4.8 6.6-.7 1.5-.5 1.4 1.4-.6.9-1 2.5-2.7 3.6-3.9 2.9-3 4.3-4.8 5.9-7.7.8-1.3.7-1.3-.9.4m177.1 1.4c.1-.1.2 0 .2.2 0 1.5 1.7 4.7 2.7 5.3.7.4.3 1.2-.4.9-2.8-1.2-3.9-3.8-3.1-7.3l.3-1.2.1 1.1c0 .6.1 1.1.2 1m-15.7 1.8c1.1 2.7 1.3 3.1 2.4 3.5l1 .4-.9.1c-1.2.1-2.3-.3-2.4-.8 0-.2-.2-1-.3-1.6-.1-.6-.4-1.7-.7-2.4-.3-.7-.5-1.3-.5-1.4.1-.3 1.1 1.3 1.4 2.2m-10.9-1c-2.1 1.6-3.8 4-4.5 6.3-.6 2-.6 2.2.1 2.4.9.3 1.1.6 1.6 2.2.6 1.9 1.5 2.6 4.4 3.4.5.1.9.4 1.1.7.6 1 4.3-.1 6.6-1.9 1.4-1.1 1.5-1.1.9 0-1.2 2-3.9 4-5.9 4.4-.7.1-1.2.3-1.1.4.1.5.7 1.9.8 2.1.7.7 5.7-1.9 8.4-4.4 1.1-1 1.1-.7 0 .5-.3.4-.6.7-.6.7 0 .9-5.1 4-7.1 4.3-1.6.2-1.4.6.4.4 2.4-.2 5.8-1.6 7.7-3.2.2-.2.4-.2.6-.1.1.1.4-.1.6-.3.8-.8 3.5-5.5 3.2-5.5-.1 0 .1-.2.4-.5.4-.3.5-.5.3-.6-.1-.1-.3 0-.3.2-.2.7-.4.2-.3-1.1.1-1.6.2-1.6-2.6-1.6-3-.1-3.2 0-3.2.4 0 .5-.4.6-1.4.4-.5-.1-1.6-.2-2.5-.2-1.7 0-2.8-.5-2.8-1.2 0-.1-.3-.6-.6-1.1-.6-.9-.7-1.5-.4-2.2.2-.3 0-.5-1.1-1.4-2-1.6-2.4-2.6-1.6-3.9.6-.7.4-.7-1.1.4m19.3 1c0 .2-.1.6-.2 1-.4 1.2.7 2.5 1.6 2 .4-.2.4-.2 0 .3-1.2 1.8-3.1.3-2.7-2 .4-1.4 1.3-2.4 1.3-1.3m-35.9 6.9c.2.4.4 3.1.2 3.3-.1.1 0 .4.2.8.3.7.4 2.9.6 9.1 0 1.4.1 2.6.2 2.6 0 .1.1.8.2 1.6.1 1 .1 1.3-.1.9-.1-.3-.1-.6-.1-.7.1-.1 0-.2-.1-.3-.1-.1-.2-.6-.3-1.1-.1-.6-.2-1.2-.2-1.5-1.2-7.6-1.5-10.9-1.3-11.6.3-.9 0-1.5-.9-1.5-.8.1-1.3.7-1.5 2-.1.4-.1.9-.1 1 0 .1-.1 0-.2-.3l-.2-.5-.4.5c-.3.4-.3.3.1-.4.3-.5.5-1.1.5-1.3 0-.2.1-.4.2-.4s.2-.1.1-.1c-.1-.1.3-.6.8-1.1.9-.9.9-1 1.1-2.3.1-.7.3-1.9.5-2.6l.4-1.2.1 2.3c-.1 1.3 0 2.5.2 2.8m-102.1-.8c.8.8 1.5 1.7 1.8 2.4.3.6.8 1.3 1 1.6.2.2.7.9 1 1.5 1.3 2.4 1.8 3 3.9 4.5 2.8 1.9 3.3 2.4 1.1 1.2-1.6-.8-1.9-.9-3-.9-.9 0-1.2-.1-1.1-.2 1-1.2-.6-3.4-2.4-3.4-.8 0-.8-.1-.3-.6 1.2-1.3-.3-3.9-2.6-4.4-.3-.1-.5-.2-.5-.3s-.3-.8-.6-1.5c-1.1-2.1-.5-2 1.7.1m156.3-1.5c.3-.1.5 0 .8.5.2.4.6 1.1.9 1.6.6 1 .7 1.7.4 2-.3.2-.2.9.1 1.6.2.3.3.8.3 1.1 0 .3.2.9.5 1.3.5.8.5 1.2-.1.6-1.5-1.7-1.8-2.2-1.9-4.1-.1-1.7-1.8-4.5-2.9-4.5-.2 0-.2 0 0-.2.2-.1.5-.1.9 0 .3.2.8.2 1 .1m-4.8 3.3c-.5 1.7.5 3.3 1.6 2.7.2-.1.5-.1.8 0 .2.1.5.1.6.1.6-.1-.1 1.1-.8 1.4-2.2 1.1-4.7-2.3-3-4.2.3-.5 1-.5.8 0m-60.9 1.1c.3.3.5.6.5.8 0 .2-.1.2-.5-.1-.2-.2-.6-.4-.7-.4-.1 0-.6-.2-1-.5-.9-.6-1-.7-.5-.5.3.1.4 0 .4-.1.2-.4 1 0 1.8.8m46.7 1.1c-.1.2-.2.3 0 .3.1 0 .3-.1.4-.3.1-.2.2-.3 0-.3-.1 0-.3.2-.4.3M102.6 191c-.3.3-.3.4-.1.4.2 0 .4-.1.4-.3.3-.5.1-.5-.3-.1m231.2 4c1 1.5 2.4 2.7 5 4.3 1 .6 1.8 1.2 1.8 1.3 0 .1.1.2.2.2s1.1.6 2.2 1.4c1.8 1.2 2.4 2 .8 1-.4-.2-.7-.4-.8-.4-.1 0-.9-.4-1.7-.9s-2-1.1-2.5-1.4c-1.7-.8-3.5-1.8-3.6-2 0-.1-.2-.2-.3-.2-.3 0-2.1-1.8-2.5-2.6-.2-.3-.3-.9-.3-1.5v-1.4c-.1-1.6.1-1.7.5-.4.1.7.7 1.9 1.2 2.6m-13.7-2.8c-.9.7-3.4 5-4.9 8.4-1.8 4.1-2.2 7.4-1.4 11.6 1.8 9.3 3.8 13 9.7 17.8 4.3 3.5 14.7 5.7 18.6 3.9.6-.3 1.6-.6 2.2-.7.6-.1 1.5-.4 2-.6s1.8-.6 2.9-.9 2.3-.6 2.5-.7c.7-.2 5.1-4.6 5.6-5.5.6-1.1.9-1.1.6 0-.5 1.6-.3 2 1.2 2.6 2.5 1 5.3.3 7.5-2.1 1.8-1.9.4 1.4-1.6 3.6-.6.7-.5.8.6.5.5-.1 1.3-.3 1.8-.4s1.2-.2 1.5-.3c.3-.1.7-.2 1-.2l.5-.1-.4.3c-.2.2-1.4.7-2.5 1.1-1.2.4-2.6 1-3.1 1.3-.6.3-1.1.5-1.1.5-1.6 0-6.5 5.2-7.7 8.2-.8 2-.5 7.5.6 10.6.4 1 .3 1.2 0 1.1-.3-.1-.1.4.3.5.7.3 3.5 3.4 3.4 3.8-.1.3 1.1 1.3 1.5 1.3.1 0 .7.3 1.3.8 2.3 1.5 5.2 2.5 6.9 2.5 2.2 0 3.6 1.1 5 3.9.5 1 .9 1.7 1 1.7.1 0 .6-1.4 1.1-3.1 1.3-4 1.1-3.7 4.1-6.7 2.9-2.9 3.4-3.8 4.7-7.4 1.3-3.5 1.4-3.8 3.1-4.4 2.6-1.1 3.4-1.2 4.1-.5 1.8 1.7 1.6 3.2-.6 7.8-1.9 3.9-.9 4.9 1.3 1.5.5-.8 1.4-2 1.9-2.7 1.1-1.5 2.5-4.3 2.6-5.4.2-1.5-.3-3.2-2.1-6.2-.4-.7-1.2-2.1-1.6-3.1-.5-1-1.4-2.6-2-3.6-.6-1-1.2-2.2-1.3-2.8-.1-.5-.5-2.1-.9-3.6l-.7-2.6-1.1-1c-3.7-3.4-6.7-4.7-12.3-5.4-.4-.1-1.3-.2-1.9-.3-.6-.1-1.6-.2-2.1-.3-.6-.1-1.3-.2-1.6-.2-2.4-.4-6.1-.9-6.7-.9-.7 0-2.4-.3-5.4-.9-3.5-.7-15.3-6.7-20.3-10.3-.6-.4-2-1.3-3.2-1.8-1.2-.6-2.5-1.4-3-1.8-.5-.4-1.1-.9-1.4-1-.7-.4-1.9-2.4-2.5-4.5l-.6-1.9-1.5-.6c-1.3-.6-3.8-1.2-4.7-1.2-.3 0-.7.2-.9.4m-226.3 2.7c-2.4 1.1-3.8 2.7-6.3 6.8-2.3 3.9-2.7 4.9-1.9 5.3 1.1.5.3.6-1.1.2-1.9-.7-4.2-.9-6-.7-1 .1-1.8.3-1.9.3-.2 0-1.1.8-1.8 1.6-.5.5-2 3.4-2.7 5.1a6.9 6.9 0 0 0 0 4.9c.2.5.5 1.5.6 2.2.1.7.2 1.3.3 1.3.8.3.8.5-.1 1-1.7.9-3.2 2.1-3.2 2.7 0 .2-.3.8-.7 1.5-2.5 4.3-1.9 8.9 1.4 10 1 .3 1 .3.2-1.1-.7-1.2-.9-1.6-1-2.8-.1-.6 0-.7.1-.6.1.1.2.2.1.3-.1.1.8 1.3 1.8 2.3 1.3 1.3 5.7 3.4 5.7 2.7 0-.1-.1-.3-.2-.4-.2-.2-1-1.9-.9-2 .1-.1.4.2.8.6 1.7 1.7 6.5 3.3 6.1 2.1-.2-.6-.1-1.1.2-.7.1.1.4.4.7.6l.6.4v-1.8c0-2.4 1-4.6 1.3-2.9l.1.6.4-1.1c.2-.6.5-1.4.7-1.9a8.2 8.2 0 0 1 3.5-4.1c.3-.2.2-.2-.8-.2-1.2 0-2.6.4-2.6.8 0 .1-.1.2-.3.3-.5.2.2-.8 1-1.6l.7-.6-.8-.3c-1.1-.5-2.9-.8-4.6-1-1.6-.2-5.3-1.1-6.4-1.7-1.1-.6-1.2-1-.3-.8 1.5.3 1.5 0 .2-1.3s-2.1-2.7-1.7-2.8c.1 0 .2-.2.2-.4 0-.3.3-.4.4-.1.4.9 3.4 2 7.6 2.7 1.1.2 2.5.8 3.5 1.6s2 1.5 2 1.3c0-.1-.1-.6-.3-1.2-.2-.6-.3-1.4-.3-1.7v-.6l.4.8c.9 1.6 2.9 3.9 3.2 3.6 0 0 0-.4-.1-.8-.1-.6-.3-3.5-.2-4.7 0-.5 2.4.8 2.9 1.5.2.3 0 .5-.3.3s-1.5-.6-1.8-.7c-.4 0 0 .8 1 2.4 1.3 2 1.4 2.1 1.9 1.6.2-.2 1.1-.7 2-1.1.9-.5 1.9-1.1 2.2-1.5.3-.3 1.3-1 2.2-1.5 2.1-1.1 2.1-1.2.2-2.3-.2-.1-.2-.2-.1-.3.2-.2 3.1.3 3.7.7l.5.3-.4.4c-.2.2-.6.4-.8.4-.2 0-.6.2-.9.4l-2.3 1.6c-1 .7-2.2 1.6-2.6 2.1-.5.5-1.3 1.4-1.8 1.9s-.9 1.1-.9 1.1c.1.1 1.3-.5 1.4-.7.1-.1.2-.2.3-.2.2 0-.6 1.1-1.2 1.7-.5.5-.1.5 1-.1 2.9-1.5 6.8-4.4 8-6.1 1-1.3 1.1-1.2.5.4-.5 1.4-1.5 2.7-3.5 4.2-2.3 1.8-2.9 2.7-2.9 4.2 0 2.2 2.4 4.3 4.3 3.7 4.5-1.4 7-3.7 7.5-7 .2-1 .2-1 .6 0 .2.5.4 1 .5 1.1.3.3 1.8-3.3 1.8-4.3 0-.4 0-.5.2-.2.1.2.2.9.2 1.5 0 1.1 0 1.2.3 1 .7-.6-.2 3.9-1.2 5.9-.7 1.3-1.9 2.6-3.5 3.6-3 1.9-6.4 6.5-6.4 8.6 0 .2-.2.8-.4 1.4-.4 1-.3 1.3.1.9.1-.1 1.1-.6 2.1-1 1.1-.5 3.1-1.6 4.5-2.6 1.4-.9 2.7-1.7 2.8-1.7 1.4 0 5.3-6 5.6-8.5.4-3.8.9-4.1 1.6-1.3.4 1.7.4 1.7 1.5.5 3.1-3.3 3.8-4.5 3.2-5.1-.3-.3-1.2-2-3-5.2-2.2-4.1-6.1-7.7-7.1-6.5-.4.5-1.8 1.1-4.1 1.8-1 .3-2.2.7-2.6 1-1.3.6-1.7.5-.7-.2l.9-.6-.6-.1c-.3-.1-1.8-.5-3.2-.8-3.6-.9-3.5-.9-5.5-.9-1.5 0-1.9.1-2.4.4l-.7.4.8.7c1.1 1 .9 1.1-.8.3-1.4-.7-1.4-.7-2-.4l-.6.3 1.1.8c.6.4 1.5 1.1 2 1.5.9.6.9.6.4.6-.3 0-.5-.1-.5-.1 0-.1-.2-.2-.5-.2-.8-.1-3.1-1.1-3.2-1.5-.5-1.3 1.8-3.3 4.6-4 1.9-.5-.9-1.5-3.4-1.2-1.9.2-2.2 0-.8-.5 1-.3 1.1-.3-1.5-1.6-2-1.1-2.8-1.7-1.7-1.4l.5.1-.5-1c-.3-.5-.5-1.2-.6-1.5-.1-.3-.2-.7-.2-.9-.1-.2.6.3 1.4 1.1 2.4 2.4 3.6 3 4.5 2.4.4-.2.3-.3-.4-1.1-.8-.9-1.5-2.2-1.3-2.2.1 0 0-.1-.1-.2-.3-.3-.5-1.7-.3-1.7.1 0 .3.3.5.7 1 1.9 7.7 4.7 9.3 3.8.2-.1 1-.2 1.8-.2 2.2 0 3.7-.7 4.8-2.2.5-.7.5-.9-.5-1-.7-.1-6.2-2.1-7.7-2.7-1.2-.5-1.1-.7.3-.6 2.7.3 3.2.3 3.6.4.4.1.5 0 .5-.5 0-.9 1.5-3.3 2.6-4.4 1.9-1.7.9-2.6-1.9-1.7-.6.2-1.1.3-1.2.3-.1-.1-.5-.1-1-.2-.5 0-1.7-.2-2.6-.4-2.6-.6-6.2-.5-7.6.2m187.2 1.4c.1.6.3 1.5.3 2 .5 3.2 2.4 7.1 4 7.9.8.4.7.7-.2.4-1-.3-1.8-1-3.6-3.7-1.5-2.3-3-5.2-2.9-5.7 0-.1-.1-.1-.2-.1s-.1-.1-.1-.2c.1-.1.4.1.9.6 1.3 1.3 1.8.5 1.2-2.1-.1-.3 0-.4.1-.3.2 0 .4.6.5 1.2m-163.3-.9c-.3.1-3.8 1-5.5 1.5-.9.2-1.9.4-2.2.4-1.1 0-.6.4.8.5 2 .2 1.4.7-1.2 1-1.4.2-1.6.5-1 1.6 1 1.5 2.8 1.5 5.8 0 1.4-.7 1.4-.7 1.7-.7.3 0 1.4-1.2 1.4-1.5 0-.2-.1-.2-.4-.2-.6.2-.3-.4.4-.8.3-.2.7-.5.8-.8.2-.4.3-.2.2.3 0 .1.1.1.2.1s.2-.3.2-.7c-.1-.6-.5-.9-1.2-.7m119.4 6.6c.4.1 1.3.4 2.1.6.8.2 2.3.7 3.4 1.2 1.1.4 2.7 1.1 3.5 1.4 3.9 1.6 7.1 3.9 7.1 5.3 0 .6.1.6.6 0 .5-.7 1.6-1.3 1.3-.7-.1.2-.3.5-.5.5-.1.1-.5.6-.8 1.2-.3.6-.6 1-.7 1-.1 0-.1.1-.1.2 0 .3 1.8.1 2.7-.4.6-.3 1-.4 1.6-.3.5.1 2.1.2 3.6.3 5.9.4 5.3 1-1.3 1.3-3.4.2-3.3.1-3.3.3 0 .1.6.4 1.3.7 1.5.7 1.7 1 .3.4-.2-.1-.4-.2-.5-.2-.1 0-.8-.3-1.6-.5-.9-.3-1.6-.5-2-.4-.3.1-.8 0-1-.1-1.6-.8-2.5-.8-3.4 0-.6.5-.6.7 0 .8.5.1.7.6.3.8-.1.1-.7 0-1.3-.1-.6-.1-1.4-.2-1.7-.2-.6 0-.6 0-.2-.3.2-.2.6-.3.8-.3.3 0 .5-.1.6-.4.1-.5 1.4-1.5 2.4-1.8.4-.1.8-.3.8-.3 0-.2-4.9-3.9-7.3-5.5-.6-.4-1.5-1-1.9-1.3-.4-.3-1.8-1.1-3.2-1.8-2.9-1.4-3.6-2-1.6-1.4m60.8.8c-.8.9-1.9 3.3-3.5 7.1-.4.9-.8 1.8-1 1.9-.9.7 2.6 7.3 5.2 9.8 5.1 4.8 6.4 5.5 7.6 4 2.1-2.5 2.4-5.7 2.2-21v-1.1h-2.8c-2.9 0-5-.4-6.4-1.1-.7-.3-.6-.4-1.3.4m-134.8 1.4c.3 1.9 2.8 2.4 4.2.9.6-.6.8 0 .3 1-1.4 3-5.7 2.3-5.7-.8 0-1.9 1-2.7 1.2-1.1m112 4.8c-.2.9-.4 1.7-.4 1.9-.1.4.3.3 1.4-.2.5-.3 1.1-.5 1.2-.5.5 0 .3-.3-.5-1.1-.4-.4-.8-.9-.9-1.2-.2-.8-.4-.5-.8 1.1m96.8-.9c2.3.5 7.3 2.4 7.1 2.6l-2.1-.4c-1.1-.3-2.2-.5-2.4-.6-.2 0-.8-.2-1.4-.3-.6-.1-2.1-.2-3.8-.2-8.2.2-9.8.1-11.3-.4-1.7-.6-1.8-.7-.2-.5 1.9.2 3.4.2 3.8-.1.7-.6 8-.6 10.3-.1m-109.2 1c.2 0 .8.1 1.4.2 2.3.3 1.5.5-2.4.5-2.2 0-4.2.1-4.3.1-.6.2-1.2-.3-.9-.7.2-.4 4.3-.5 6.2-.1m20.1 1.5c.3.7.5.9 1 1 .7.1.9.3.6.8-.5.7-1.8.4-2-.5-.3-1.5-.3-2.2 0-2.2 0 .1.2.5.4.9m9.3.3c-.2.2-.3.4-.1.4.1 0 .3-.2.4-.4.1-.2.2-.4.1-.4l-.4.4m-3.2 1.1c-2.3 2.5-2.6 3.4-2.6 6 0 1.3.9 4.5 1.2 4.8.1.1.2.3.2.5 0 .4 0 .4-.5.1-.8-.5-1.3-.4-.6.2.9.7.5.6-1.7-.6-1.1-.6-2.2-1.1-2.4-1.2-.2-.1-.6-.3-.8-.5-.3-.4-1.3 1.2-1.3 2.2 0 .6 5.4 3.2 8.1 4 .7.2 2 .7 3 1.2 2.5 1.2 3 1.4 5 1.6l1.7.2-1.6.1c-1.7.2-2.9 0-5-.7-.7-.3-1.4-.4-1.4-.4 0 .8 6.2 7.2 9.2 9.4 1.3 1 2.7 2 3.1 2.4.4.3 1 .7 1.4.7.4.1 1.2.3 1.9.6s1.3.4 1.3.4c.2-.2-4.4-8.9-4.9-9.3-1.2-.9-1.7-5.7-.7-7 .2-.2.1-.3-.2-.5-.2-.1-.6-.4-.9-.7l-.6-.5v.5c0 1-2.5 1.3-4.9.6-.5-.1-1.1-.3-1.4-.4-.3-.1-.5-.2-.5-.2.1-.1.5 0 1 .1 1 .3 3.6.3 4.4 0l.5-.2-.6-.4c-.3-.2-.7-.6-.9-.8-.2-.2-.4-.6-.6-.9s-.6-.7-.8-1c-.3-.3-.4-.7-.3-.7.1-.1 0-.1-.1-.1-.7.2-5.6-8.1-5.9-10l-.1-.7-.7 1.2m-13.7.2l-1.5.4v.8c0 .4.1 1.7.2 2.8l.1 2h.6c.9 0 2.1-1.6 2.1-2.8 0-.2.1-.6.3-.8.2-.2.4-.8.4-1.6.2-1.5.2-1.5-2.2-.8m-7.1 5.7c-.6 1.3-.8 1.4-1.8.9-.4-.2-1-.4-1.3-.5-.7-.2-2.8-1.5-2.5-1.6.1 0 .5 0 .9.1s1.3.1 2.1.1l1.5-.1.7-1.4.7-1.4.1 1.4c0 1.3 0 1.6-.4 2.5m36.7 0c1.4 2.9 1.1 3.8-1.6 4.3-.7.1-1.1.2-2.4.1-.2 0-.6-.2-.9-.5l-.5-.5 1.1-.3c2.2-.6 2.8-1.3 3-3.4.1-2.1.1-2.1 1.3.3m-99.2-.7c.8.7 1.4 2.8 1.5 4.9.1 3.7 2.2 6.3 6 7.3 3.5 1 9.3-.1 11.3-2.1.5-.4.6-.5 1.9-.4l1.4.1 1.4-1.4c.8-.7 1.6-1.4 1.7-1.4s.3-.1.3-.1c.2-.4 3.1-1.5 3.1-1.2 0 .1-.7.6-1.6 1.1-.9.5-2 1.4-2.6 2.1l-1.1 1.1.6.4c.9.6 1 1.1.2.6-.4-.2-1.2-.3-2.4-.3-1.8 0-2.3.1-3.8.8-3.6 1.7-11.7 1.6-15.3-.2-1.2-.6-1.6-.5-1.4.4 0 .1-.1 1-.3 2-.2 1-.4 2.8-.6 4.1-.5 4.5-1.6 6.6-4.1 8.1-.7.4-.8.5-.3 1 .2.2.5.6.6 1 .3.9 1.1 1.2 3.7 1.6 1.2.2 2.3.6 1.6.7-1.1.1-1.5.1-1.8.3-.2.1-1 .1-1.7.1-1-.1-1.5 0-1.9.2-1.3.6-.8.8 1.4.4 1.9-.3 4.3-.3 6.7.1 2.1.4 4.7.4 10.1.3 2-.1 2.7 0 4.1.3.9.2 2 .5 2.4.5.4.1 1.6.5 2.5.9 2.6 1.2 3.3.8 2-.9-.9-1.2-1.9-3-2.5-4.5-1.3-3.2-1.1-4.4 1-6.7l.5-.5c-.1.2-.2.4-.1.4.1.1-.1.5-.3 1.1-.9 2.3-.8 4.2.2 2.7.9-1.3 2.7-2.9 4.3-3.8 2.1-1.1 2.1-2.4.1-4.6-.5-.5-1-1.2-1.1-1.4-.3-.6-.6-.4-1.8 1.1-.6.7-1 1.2-1.1 1.1-.1-.4.5-2 1-2.6 1-1.2 1.4-1.7 1.7-2.3.9-1.7 6.5-4.5 7.1-3.5.2.3.7.2.7-.2 0-.5.6-2.2.8-2.4.1-.1.1.2.1.6-.2 2.3.6 4 2.4 5.1 3.1 2 4.4 2.9 6 4.4.9.9 1.7 1.6 1.8 1.6 0 0-.2-.9-.6-1.9-.9-2.8-.8-3.2.4-1.2.1.2.6.9 1.1 1.7.9 1.3 1.9 3.6 2.2 4.9.2 1 .2 1 1.3.4 1.8-1.1 2.9-1.3 4.3-.9.8.2 1.9.3 3.2.3 2.8 0 2.9-.2 1.1-1.9-2.4-2.3-3.3-6-2.3-9.1.3-1 .4-1.4.2-1.9-.1-.3-.2-.7-.1-.8 0-.1.1-.5.2-.8l.1-.6.4.8c.5.9.8 1.3 1 1.1.1-.1.1 0 .1.1s-.2.4-.5.7c-2.5 2.3-.1 8.9 3.6 9.9 1.4.4 1.5.2.2-.4-2.5-1.3-3.6-3.2-3.6-6.2 0-1.4.1-2.4.2-2.5.2-.2.2.1.2.9 0 2.6 1.2 4.5 3.5 5.6.8.4 1.9.9 2.3 1.1 2.2 1.1 3.6 4.6 2.5 6.4-.3.5-.3.7 0 2.5.2 1 .4 2.5.4 3.2 0 .7.2 1.8.3 2.4.4 2.5.6 7.7.4 7.8-.1.1-.1 0-.1-.1.1-.5-.3-4.1-.7-5.9-.3-1.1-.6-2.8-.7-3.8-.2-1.2-.3-1.8-.5-1.8-.6-.2-1.9-.9-2.8-1.4-.5-.3-1.2-.7-1.5-.8-.7-.3-3.9.1-7 .9-1.5.4-2.9.7-3.1.8-.3.1-.7.2-.9.3-.2.1-.9.3-1.6.4-1.4.2-1.6.3-2.2 2.2-.2.8-.6 1.6-.7 1.9-.2.3-.2.6-.2.6.1.1 1.7-.5 2.4-1 1.2-.8 1.4-.6.3.4-.5.5-1.7 1.3-2.6 1.8-3.1 1.6-4.5 2.7-3.7 2.9.1 0 .4.3.6.5.2.2.6.8 1 1.2.4.4 1 1.2 1.3 1.7.3.5.7 1 .8 1.1.1.1.5.5.8.9l.6.7.5-1.5c.4-1.3.6-1.6 1.5-2.5.6-.5 2-1.9 3.1-2.9l2-2-.5 1.3c-.3.7-.7 1.6-.9 2.1-.3.7-1.3 3.4-1.5 4.6-.5 1.9-.2 5.9.5 8.4.8 2.5.9 2.9 1.6 3.3.4.2 1.1.9 1.6 1.6 1 1.2 1.3 1.4 1.6.8.1-.3.1-.5-.2-.8-.3-.4-1.1-2-1.7-3.6-.3-.8-.4-2-.2-3.2.1-.7.4-.7.4 0 0 1.4 1.4 5.1 2.2 6 1.8 2 4.6 5.1 4.9 5.4.7 1.1 9 9.6 9.3 9.6.3 0 .5-1.3.2-1.8-.2-.3-.2-.6 0-1 .1-.3.2-.7.1-.9-.1-.2-.2-.5-.2-.7-.2-1.8-2.9-5.5-5.1-7-.5-.3-1.6-1.3-2.4-2-.1-.1-.7-.5-1.2-.9-1.2-.8-1.3-.8.3-1.5 2.3-1.1 2.4-1 1.3.2l-1 1.1 1 .2c2.4.6 6.8 1.2 7.2 1 .4-.2.5-.1.6 1.5.1.6.3 2.2.6 3.4.4 2.2.5 3 .1 2.8-.1-.1-.1.6-.1 1.7.2 3.1-.5 8-1.5 9.8-1.1 1.9-1.6 2.6-2.6 3.6-2.2 2.1-6.1 3.3-8.9 2.8-.7-.1-1.5-.2-1.8-.3-3-.4-6.9-2.9-8.8-5.8-.2-.3-.6-.9-.9-1.3-.3-.5-.6-.9-.6-1s-.1-.3-.3-.5-.3-.4-.2-.5c.1-.2.7.4 1.7 2 2.4 3.4 5.3 5.5 8.4 6.1 4.3.8 5.6.7 4.8-.3-.3-.3-.6-1-.7-1.6-.6-2.4-3.1-9.1-4.2-10.8-.8-1.3-1.3-2.2-2.5-4.4-.6-1-1.2-2-1.4-2.2-.2-.2-.6-.8-.9-1.2-.3-.5-.9-1.3-1.5-1.9-2-2.3-2.5-2.9-3.5-4.7-.6-1-1.2-2-1.4-2.1-.4-.4-3.3-1.9-3.3-1.8 0 .1-.2 0-.4-.1-.4-.2-1.6-.4-3.8-.7-1.1-.1-2.1-.4-2.5-.5-.4-.2-1.8-.5-4.8-1-5.1-.9-8.2-2.4-11-5.3-1.6-1.6-2.9-3.6-2.1-3.1.1.1.2.1.1-.1-.1-.1-.2-.2-.3-.1-.2.1-1.5-1.6-2-2.6-.7-1.5-1.9-1.6-21.1-2.1-1.9 0-2.3-.1-3.3-.6l-1.2-.6h-5.1c-5.2 0-11.6-.3-11.9-.5-.3-.2-3.8-.7-4.8-.7-1.6 0-3.6-.9-4.9-2.2-.8-.8-1.4-1.2-2-1.3-.5-.1-.9-.3-1-.4-.1-.1-.6-.3-1.1-.4-.5-.1-1.3-.4-1.8-.6-.5-.2-1.5-.5-2.3-.6-.8-.1-1.8-.2-2.1-.3-.4-.1-1.5-.1-2.4-.2-2.1-.1-2.2-.2-.8-.6.9-.3 2-.3 6-.3h4.8l-.1-1.2-.2-1.3c-.2-.2-1.8-.6-3.1-.7-.7-.1-1.3-.2-1.4-.3-.1-.2-.2-.2 2.5-.3l2.2-.1.2-1.7c.3-2.5 1.1-5.2 2-7.3 2.5-5.8 2.5-5.7.1-5.8-1.7 0-3.2-.3-1.9-.4 2.6-.1 4.8-.7 5.7-1.6 1.3-1.2 1.8-1.4 3.2-1.2l1.1.2-1 .2c-3.1.5-6.4 7.5-7.3 15.2-.5 4 .8 7.1 3.5 8.5 2.2 1.2 3.4 1.5 6.5 1.7.9.1 2.2.2 2.8.3.6.1 2.1.2 3.2.3 1.1.1 3.8.2 6 .4 3.2.2 4.2.3 5.2.1 2.2-.4 1.6-.6-2.9-1-1.3-.1-2.7-.2-3.1-.3-1.1-.2-3-.5-3.6-.6-.3-.1-1.1-.2-1.7-.2-2.9-.3-.7-.5 4.8-.4 5.6.1 6.7.2 8.1.4.5.1.6.1.3-.2-.5-.6-3.6-1.5-5.4-1.5-.4 0-1.6-.1-2.5-.3s-1.9-.3-2.1-.3c-.7-.1-.2-.4 1.6-1.1 1-.4 1.9-.8 2-.9.1-.1 1.2-.7 2.4-1.3 1.2-.6 2.6-1.4 3.1-1.9s1.4-1.1 2.1-1.4c1.8-.9 2.4-1.6 3-3.2.3-.8.6-1.5.6-1.7s.1-.4.2-.6c0-.2.1-.5.3-.7.3-.6 1-2.5 1.3-3.5.2-.5.4-.9.5-.9.2 0 .3-.7.5-2.3.3-3-.1-5-1.3-6.1l-.7-.7.6.1c.3.4.8.6 1 .8m45-.1c.6.1 1.5.2 2.1.2.5.1 1.4.2 2 .4.5.2 1.8.5 2.8.7 2.1.5 2.9.8 1.6.7-6.5-.8-10.9-.9-12-.3-.4.2-1.3.6-1.9.9l-1.1.5.5-.6c.3-.3.5-.6.4-.7-.6-.6 2.6-2.2 3.9-2 .3 0 1.1.1 1.7.2m10.2 1.2c5.4 1.8 6.9 2.8 5.3 3.2-.3.1-.4.2-.2.3.4.2.3.4-.6.9-1.3.7-1.9.5-1.8-.8v-1l-1-.6c-.7-.4-1-.6-.8-.7.2-.1-.2-.4-1.1-.9-.8-.4-1.4-.7-1.4-.8-.2-.2-.2-.2 1.6.4m-124.8.1c-.1.1.1.2.4.2s.5-.1.4-.2c-.1-.1-.2-.2-.4-.2-.1 0-.3.1-.4.2m146.7 1c-.1.2 0 .3.2.3s.3-.1.3-.3c0-.2-.1-.3-.2-.3s-.2.2-.3.3m-6 .5c-.2.2-.2.8.1.8.1 0 .2-.2.2-.5 0-.5-.1-.6-.3-.3m-4.3 2.7c.2.3.4.9.4 1.4.1.8.2.9.9 1.4 2.2 1.3 2.6 3.8.9 5.4-.5.5-.5.5-.5-.4-.1-1.4-.9-2.2-2.8-2.4-2.6-.4-3.4 3.2-1 4.5l.7.4-.6.1c-2.9.3-5.2-3.1-3.8-5.9.6-1.3-.4-2.5-1.4-1.8-.6.4-1 0-.4-.4.6-.5 1.7-.5 2.6-.2 1.1.4 1.2-.2.1-1.2-.4-.4-.7-.7-.6-.8.3-.3 1.4.2 1.9.9 1.3 1.6 2.8 1.1 2.3-.8-.2-.9.8-1.1 1.3-.2m-72.4.1c.6.6.4 3.2-.2 2.8-.2-.1-.2.2-.2.7.1.4-.4 2.4-.7 3.2-.2.4-.3.8-.4.9 0 .1-.4 1.1-.9 2.1s-.8 1.9-.8 1.9c.4 0-.6.7-2 1.3-.9.4-2.8 1.2-4.1 1.8-4.4 1.9-6.3 2.4-10.5 2.6-1.6.1-2.9.2-3 .3-.4.4 1.5 1.9 2.8 2.2 1.3.3.1.5-2.2.4-2.6-.1-2.6-.1-3.2-1.8-.3-.7-.3-1.3-.2-2.4.1-.8.2-2.1.2-2.8 0-.8.2-1.6.4-1.8.4-.6.1-.8-.8-.8-1.3 0-2.8-2-2.8-3.6 0-.8.3-1 .5-.3.2 1 2.7 2 4.3 1.7.5-.1.8 0 1.2.3.3.2 1 .5 1.6.7.6.2 1.4.5 1.8.7.8.4 2.2.7 4.4 1 .8.1 1.7.3 1.9.4.8.5 3.5 0 4.3-.7.7-.7-.5-2.1-2-2.4-.8-.1-.5-.3.5-.3 2.3 0 4.2 2.2 3.3 3.9-.5 1-4.6 1.7-6.5 1-.5-.2-1.3-.2-3.3 0-3.5.3-5 .3-5.3 0-.7-.7-.9 0-.3 1.2 1 2 3.5 2.2 9.6.5 1.1-.3 4.5-1.4 5.2-1.7l1.1-.4c.3-.1.6-.3.7-.6.1-.3.5-.7.8-.9.9-.6 3.3-4.4 3.3-5.2 0-.3-.1-.3-.3-.1-.3.3-.5-.1-.5-1 0-2.1-2.2-3.8-4.7-3.8-.8 0-.1-.4 1.5-.8 3-.8 4.9-.9 5.5-.2m-17 1.4c-.6.3-1.2.5-1.4.5-.2 0-.5.2-.8.4l-.5.4 1.4-.1c1-.1 1.7 0 2.4.2.6.2 1.3.3 1.7.3 1.5 0-.3.4-3.3.7-2.6.3-2 2.2 1 3.8 1.4.7.6.7-1.4 0-.9-.3-2.1-.7-2.7-.8-.5-.1-1.3-.4-1.6-.6-.5-.3-.7-.3-.9-.1-.4.4-.1-2.2.3-3.1.5-1 1.1-1.4 2.2-1.6.5-.1 1.3-.2 1.8-.3.5-.1 1.3-.1 1.8-.2h.9l-.9.5m-91.3 4.8c-.6.1-.6.1-.2.5.9.9.9 1.1.1.6-.4-.2-.8-.5-.8-.7 0-.3-.3-.3-1 .1l-.6.3.6.9c.8 1.1 1.4 1.9 2 2.6.5.5-1-.4-2.1-1.3-1.7-1.4-1.5-1.4-2-.7-.3.5-.3.5.5 1.4.8.8.8.9.3.7-.3-.1-.7-.2-.8-.2-.2 0-.3.1-.4.4-.2.6-.1.7.5 1.2.7.5 2.5 2.1 2.3 2.1-.1 0-.7-.3-1.4-.6-1.6-.8-2.1-.3-1.2 1.1 1.2 1.8 9.7 4.7 9.7 3.3 0-.2-.1-.3-.2-.3-.3 0-3-1.3-3.2-1.6-.1-.1 0-.2.5-.1.4.1 1.3.2 2 .3.7.1 1.5.2 1.8.3 1.4.4.9-1.3-.8-2.3-1.2-.8.1-.7 1.8 0 .5.2.6.2 1.2-.5.8-.9.8-.9-.6-1.7-.6-.4-1.8-1.5-2.9-2.6-1-1-2.1-2-2.4-2.1-.3-.1-.6-.4-.7-.6-.1-.7-.6-.8-2-.5m70.1 1.8c1.4.6 1.6 2.6.5 3.9-.7.8-1.5 1-2.4.6-3-1.3-1.1-5.7 1.9-4.5m155.6.3c0 1 4.4 7 8.9 12.1l.4.5-.6-.4c-.3-.2-.8-.5-1-.7-.2-.2-.6-.5-1-.8-.3-.2-1.5-1.3-2.6-2.4-1.1-1.1-2.1-2-2.1-2s-.3 0-.6.2c-.5.3-.5.4-.2 2.1.3 1.5-.3.8-1.8-2.1-1.4-2.6-1.4-2.6-1.3-.7.1 2.9 1.6 7.3 2.7 8.6.1.2.8 1.3 1.4 2.5 1.6 3.1 1.6 3.1 2.4 4.2 1 1.5.5 1.6-.7.1-.5-.7-1-1.3-1.2-1.4-1-.9-5.3-7.1-6-8.9-.3-.7-.6-1.3-.7-1.3-.2 0-1.2 2.4-1.2 3 0 1.5 1.6 7.3 2.6 9.3.5 1.1.9 2.1.9 2.1-.1.1-1.6-1.9-2.2-2.9-1.1-1.9-.5.8 1.2 5.3l.8 2.2-.4.5c-.5.6-.5.6-1.9-2.2-.7-1.3-1.3-2.4-1.3-2.5-.2-.2-2.4 6.1-2.5 7.1 0 .9.1 1.5 1.7 6 .9 2.5 2 4.9 2.6 5.9.1.2.3.5.3.7s.1.4.2.4c.1.1.1.1 0 .1-.3-.1-2.7-3-4.1-5.1-1.4-2-1.5-2.2-1.7-1.4-.6 2.6-.7 7.7-.1 9.6.2.7.4 1.5.4 1.6 0 .6-1.5-1.7-2-3l-.2-.6-.3 1.2c-.4 1.3-.9 2.4-2.2 4.3-1 1.5-2.7 4.6-2.7 5.2 0 .2-.2.9-.4 1.4-.4 1.2-.5 1.5-.7 3.3-.1.9-.1 1.3.1 1.3.1 0 .2-.1.2-.1 0-.1.2-.4.5-.7l.5-.6-.6 1.8c-.7 2.3-1.1 5.1-.7 5.5.2.2.5 0 1.4-1.1.6-.7 1.3-1.4 1.6-1.6l.4-.3-.4.6c-3 4.5-3.9 7.7-3.2 10.8.9 4.3.7 6.7-1.4 12.7-.6 1.9-1.2 3.6-1.3 3.8-.2 1 2.1-1.9 2.6-3.1.2-.7.6-1.6.8-2l.4-.8-.1 1.6c-.1 1.9-.1 1.9 1.4 1.1.6-.3 1.1-.4 1.2-.4.2.1 1.5-.4 1.6-.7.1-.1.3-.1.5-.1.2.1.8-.1 1.3-.4.5-.3.8-.5.7-.5-.1 0-.6.2-1 .4s-.8.4-.9.4c-.3 0 .3-.4 1.8-1.2 2.7-1.4 3.2-1.9 3.2-2.9v-.7l.3.5.3.5.6-.5c1.7-1.4 2.3-2.1 2.3-2.6.1-2.3.8-3.4.8-1.3 0 .8.2.8 1.1-.2 2.2-2.6 3.3-5.3 3.1-8-.1-2.2.1-3.9.9-5.8.3-.8.4-1.3.3-2.6-.1-1.9-.1-1.9.5-.6l.5 1 .9-.9c.5-.5.9-1 .9-1.2 0-.7-3.5-4.2-4.3-4.2-.1 0-.2-.1-.1-.1.2-.2 1.7.3 2.6.9.4.3.9.6 1.1.7.4.2-.1-.4-1.6-1.9-.6-.6-1.3-1.5-1.6-2-.2-.4-.7-1-1-1.3-.6-.7-.2-.5 1 .5 2.2 1.8 8 5.1 9 5.1.7 0 .8-.3.3-.5-.6-.2-3.5-2.1-3.8-2.5-.3-.3-.3-.3 0-.1l2.4 1.1c2.9 1.2 4.7 1.4 3 .4-1-.6-2.2-1.6-2.6-2.2l-.3-.5.7.5c1.2 1 5.1 2.6 7.5 3.2 1.8.4-1.6-2.6-5.2-4.7-1.8-1.1-4.3-2.8-4.3-3.1 0-.1-.1-.2-.1-.1-.2.2-2.1-1.4-3.5-2.8-1.2-1.2-1.3-1.5-.3-.6 1.2 1 3.2 2.5 4.1 2.9.5.3 1.4.8 2 1.2.6.4 1.7 1.1 2.4 1.5.8.4 1.8 1.1 2.3 1.5.5.4 1.4 1 2 1.3.6.3 1.4.9 1.9 1.3.4.4 1.2.9 1.6 1.2.4.3 1.2.8 1.8 1.3l1 .7-.8-1c-.4-.5-1-1.3-1.3-1.7-.8-1.1-3.8-3.8-6.3-5.6-2.3-1.6-4.2-3.3-3.9-3.5.1-.1.2 0 .2.1s.2.2.3.2c.1 0 .6.3 1 .6.4.4 1.5 1 2.3 1.5a90.91 90.91 0 0 0 5.1 3c1.1.5 2.1 1.1 2.1 1.1.1.1.4.3.7.6.3.2 1.1 1 1.8 1.6.7.7 1.2 1.1 1.2 1 0-.2-2-3.5-2.2-3.7-.1-.1-.5-.5-.8-.9l-.6-.7.6.4c.3.2.8.6 1.1.8.3.2.5.4.6.4.1 0 .7.6 1.3 1.4 1.3 1.6 1.4 1.5.6-.3-.4-.9-1-1.7-2.1-2.9-1.8-1.8-4-4.5-3.8-4.6.1-.1.4.1.7.3.4.2.9.5 1.1.6.3.1.7.3.9.4 1.4.7 7.3 9.5 6.3 9.5-.1 0-.1.3.1.6s.6 1.6 1.1 2.7c1.1 2.8 2.9 4.8 2.2 2.5-.1-.4-.4-1.6-.6-2.7-.2-1.3-.7-2.7-1.3-3.9a25.54 25.54 0 0 1-1.5-3.9c-.3-.7-.1-.5.8.8.8 1.1 1.8 2.2 2.2 2.2.2 0-.1-1.3-.6-2.9-.6-1.9-.5-1.9.6.2s1.8 5.1 2 8.5l.1 2 .4-.9c.6-1.3.7-1.6.7-1.9.2-1.2-2-9.5-3-11.5-.2-.3-.3-.6-.2-.6.1 0 0-.1-.1-.3-.1-.2-.2-.3-.1-.4.4-.4 4.5 8.3 4.9 10.4.3 1.9 1.4 1.4 1.2-.6-.4-4-1.7-7.1-5.3-12.6l-.7-1 1.5 1.2c.9.7 1.8 1.5 2 1.8 1.6 2.1 2.1 2.9 3 4.6.5 1 1 1.9 1.1 1.9.4 0 .6-5.1.3-7.3-.2-1.3.1-1 .8.8.7 1.8.7 1.8 1.4-.9.7-3 .7-3 .6.8-.1 3.3-.1 3.6-.7 6-.5 2-.5 2.5.1 1.4.4-.8 1-1.9 2.8-5 2-3.4 4.8-6.2 8.1-8 .8-.4 1.4-.9 1.3-1-.2-.7-3.7-.5-6.1.4-1.6.6-1.6.4.1-.7 1.4-1 3.3-1.7 4.3-1.7.3 0 .6-.1.6-.2 0-.4-1.7-.7-4.5-.7-1.8 0-2.7 0-2.6-.2.3-.3 3.9-1.3 4.7-1.3.4 0 1.3-.1 2.1-.3 1.3-.3 1.4-.2 2.1.1l.6.4-.4-.4c-.5-.6-2.9-1.8-4.1-2.2-.5-.2-2-.6-3.2-1-2.2-.7-3.6-1.3-3.8-1.6-.1-.1.4 0 1 .2s2.1.5 3.3.6c1.2.1 2.6.3 3.2.5l1 .3-.5-.5a6.6 6.6 0 0 0-3.1-1.7c-.5-.2-1.1-.5-1.2-.6-.1-.2-.7-.5-1.2-.7-1.3-.5-3.2-1.4-3.9-2-.3-.2-1.2-.8-2-1.2s-2.1-1.2-3-1.8c-.9-.6-2.2-1.4-2.9-1.8-.7-.4-1.6-.9-2.1-1.2-1-.7-2.4-1.4-2.7-1.4-.2 0-.3-.1-.3-.2s-.1-.2-.3-.2c-.2 0-.7-.2-1.1-.4-.5-.2-.9-.4-.9-.4-.1 0-.3-.2-.6-.4-.3-.3-.4-.3-.1-.2.2.1 1.5.6 2.8 1 1.3.4 3.2 1.2 4.1 1.7 3.3 1.7 3.3 1.6-1.4-2.5-3.4-2.9-2.8-2.7-5.1-1.9-1.1.4-2 .7-2 .8 0 .1-.2.2-.4.2-.4 0-5.1 2-7.1 3-.9.5-1.7 1.1-1.7 1.5 0 .1-.3.4-.6.6-1.6 1.2-1.5 5.7.1 7 .5.4 1.8 2 1.4 1.6-3.1-2.3-6.2-5.5-6.2-6.5 0-1.1-.1-1.1-5.5 1.9-2.2 1.2-1.8.7.8-1.1 2.9-2 5.3-3.3 12.6-6.8 1.7-.8 4-1.9 5.1-2.4 1.1-.5 2.5-1.2 3.2-1.5 1.1-.5 4.3-3.2 4.3-3.7 0-.4-7 1.3-10 2.4-.9.3-2.9 1.1-4.4 1.6-1.5.5-3.4 1.3-4.1 1.6-.8.4-1.4.6-1.4.5 0-.1-.1 0-.1.1-.2.3-1.4.9-1.5.8-.3-.3 6.8-3.9 12.3-6.1 2-.8 2.4-1.1 2.1-1.1-.3-.1-1.3-.3-2.2-.5-2.2-.5-3.7-1-4.8-1.8-.5-.3-1-.6-1.1-.6-.1 0-.2-.1-.1-.2s.3-.1.5-.1c1.2.5 2.5.8 5.2 1.1 2.9.3 4.7.4 4.5.2-.2-.2-3-1.1-4.7-1.5-.8-.2-1.2-.4-1.2-.5 0-.2-.6-.4-2.1-.7-4.1-.9-10-3.3-11.7-4.8-.9-.9-1.7-1.2-.8-.4.5.5 1.5 1.3 2.2 1.8 1.8 1.2 2.5 1.9 2.4 2-.1.1-.3 0-.6-.1-.2-.1-1.1-.5-1.9-.9-1.7-.7-2.6-1.3-3.6-2.3-.4-.4-1.2-1-1.8-1.4-.6-.4-1.5-1.2-2-1.6-.7-.2-1.1-.5-1.1-.4m-167.5.3c1.3.5 1.4 2.5.1 3.4-.9.7-2.4.2-2.4-.8 0-.2 0-.6-.1-.8-.1-.7.3-1.5 1-1.8.8-.3.6-.3 1.4 0m-7.3 2.4c1 1.2-.1 3.1-1.6 2.7-.6-.2-1.2-1.1-1.1-1.8.3-.9 2.1-1.5 2.7-.9m98.8.6c-1.1.3-1.7 1.1-2.3 3.1-.5 1.7-.8 2-2.4 2.8-1.3.6-3.6 2.6-4.4 3.8-.3.4-.7.8-.9.8-1.6.4-.6 5.2 1.4 6.5.1.1.1.5.1.9-.1 2.6 4.3 4.6 9.7 4.6 2 0 2.1.2.4.4-4 .7-7.9-.3-10.6-2.6-2-1.7-2.6-1.2-.7.7 1.6 1.6 2.7 2.3 4.8 3.1 2.3.9 6.7.8 9.7-.2 2.1-.7 2.3-1.6.4-1.6-.8 0-.9 0-.7-.4.1-.2.2-1 .2-1.6.1-1.9.7-2.6 3-3.4l1.2-.4v-.8c0-2 1.5-4.7 2.8-4.9.7-.1 1.5-1.7 1.1-2.1-.1-.2-.1-.3 0-.3.3-.1 0-.9-.4-1-.4-.1-1.2-1.3-1.2-1.8 0-1.2-.7-3.4-1-3.4-.2 0-.8-.2-1.3-.5-1-.5-2.8-.8-5.1-.7-1.1 0-1.8-.3-1.8-.9 0-.5-.8-.5-2-.1m35.9.1c-.3.3-.3.3.1.4.6.1.7.1.4-.3-.2-.3-.2-.3-.5-.1m2.1 2.6c.1.2.3 1.2.6 2.2.3 1 .6 2 .7 2.2.3.4 0-.8-.4-2.2-.2-.6-.4-1.4-.5-1.8s-.2-.7-.3-.7c-.2 0-.2.2-.1.3m-11.6.6c0 .3.4.3.5-.1 0-.1-.1-.2-.2-.2-.2 0-.3.1-.3.3m-197.7 2.1l.1.7-1.1-.1c-.9-.1-1.1-.1-1.4.3-.2.2-.9.8-1.6 1.2-1.8 1.1-2 1.3-2.7 2.6-1 2-1.6 7.3-.8 7.6.3.1.7-.5.7-1s1.2-2.8 2.2-4.4c1.1-1.7 2.3-3.2 2.3-2.9 0 .3-.6 2.4-1.3 4.4-.6 1.8-.7 2.3-.7 4 0 2 .3 2.7.7 1.5.1-.3.4-.9.6-1.3.2-.4.5-1.3.7-1.9.3-1.3 1.6-3.9 1.8-3.9.1 0 .2-.1.2-.3s.4-.8.9-1.5.9-1.5 1-1.7c.1-.4.2-.4.3.5.2 1-.1 4-.4 4.9-.6 1.6.4 4.5 1.8 5.2 1.7.9 3.4.3 5.1-2 1.5-2 1.4-3.9-.3-6.4-.3-.4-.6-1-.7-1.3-.1-.3-.5-.8-.9-1.1-.4-.3-1-.8-1.3-1.1-.4-.4-1-.8-2-1.1-.8-.2-1.7-.6-2-.9-1.4-.7-1.4-.7-1.2 0m274.4.8c0 .1 1.5.4 2.9.6.5.1.8 0 .6-.1-.2-.1-.7-.2-1.3-.3-.5-.1-1.3-.2-1.6-.2-.3-.1-.6-.1-.6 0m-151.5.9c-.5.2-.8.4-.8.5.1.1 1.4-.4 1.6-.7.2-.2.2-.2-.8.2m-92.7 1.9c-.8.7-2.1 1.6-2.9 2.1-1.6 1.1-2.1 1.8-2.8 4.2-.8 2.8-.7 3.2.2 2.1.4-.5 1.6-1.5 2.6-2.2 2-1.5 4.9-5.2 5.2-6.5.3-1.2-.6-1.1-2.3.3m-13.4 2.1c0 .9-.5 3.1-.8 3.4-.1.1-.2.3-.2.5s-.2.6-.5.9l-.5.6.1-1.6c.1-1.5.1-1.6-.6-2.9l-.7-1.4-.2 1.5c-.1.8-.2 2.3-.2 3.2 0 2.2-.7 3.7-2.4 5.4l-1.2 1.2-.3 2c-.7 4-2.7 7.1-6.7 10.3-2.6 2-3.5 3.6-4 7.1-.3 1.9-.6 1.6-.4-.5.2-2.7.9-4.7 2.3-6.4.4-.5.8-1 .8-1.2 0-.2.3-.8.6-1.4 1.1-2.2 1.9-4.9 1.6-5.7-.1-.2 0-.3.1-.1.1.1.2 1.2.3 2.5 0 1.3.1 2.3.2 2.3.7 0 3.3-4.7 3.6-6.5l.1-.9-.7.3c-.9.4-.9.4-.8 0 .1-.2-.2-.2-1.3.1-2 .5-4.1.5-5.4 0-.6-.2-1.5-.6-2.1-.7-.5-.2-1.7-.7-2.5-1.2-1.8-1-1.8-1-1.4 0 .4 1.1 1.3 2.3 1.6 2 .9-.9 1 .2.2 1.8-2 4.3-2.5 6.6-1.8 8.8.4 1.1.6 3.6.6 5.4 0 .7 0 1.7.2 2.3.1.7.1 1.3 0 2-.5 2.1-1.6 6.3-2 7.2l-1.1 2.7c-.6 1.6-3.5 7.5-3.8 7.9-.1.1-.3.5-.5.9s-.8 1.5-1.4 2.4c-1.1 1.9-1.1 1.9-1.9 5.5-.6 2.6-.6 2.8.1 1.6.5-.8 1-1.6 2.6-3.4 1.4-1.6 2.4-2.9 2.8-3.5.7-1.1.5-.3-.3 1.3-.5.9-1 2-1.2 2.4l-.3.7 1.1-.8c.6-.5 1.5-1.1 1.9-1.3.6-.4.9-.8 1.3-1.9.6-1.5.8-1.8 1.1-1.8.4 0-.1 3.9-.7 6.2-.3 1.2-.6 2.5-.7 2.7-.1.3-.2 1-.4 1.5-.5 1.6-.2 1.4.5-.3.3-.8.7-1.8.9-2.1.2-.3.3-.7.3-.8s.3-.8.6-1.5c1.9-4.2 2.5-5.2 1.3-2.1-.8 2.2-1.6 4.6-1.4 4.7.1.1.5-.5 1-1.2 1.3-1.8 2-2.6 3.1-3.4.8-.6 1.2-1.1 1.9-2.6.5-1 1.2-2.4 1.6-3.1l.7-1.3-.1.9c-.1.5-.4 1.7-.7 2.7-.6 2.2-.7 2.1.4 1.6 1.5-.8 2-1.6 2.4-3.6.2-1 .9-3.3 1.1-3.5.1-.1.2-.1.1 0-.2.4-.2 3.7 0 3.8.3.1 1.2-1.8 1.5-3.5.3-1.5.8-2.8 1.2-2.9.2-.1.3 1.1.3 5.3v1.9l.6-.2c.8-.3 1.4-1.6 1.8-3.9.2-.9.6-2.4.9-3.2.8-2.2.9-4.5.3-7.5-.5-2.5-.7-6.5-.3-7.1.2-.3.2-.1.4 1.2.2 1.6.7 3.3 1.8 5.4 1.2 2.3 1.1 2.3 2 1.1 1-1.2 1-1.8 0-3.8-.7-1.5-.7-1.3-.8-9.1 0-2.9.4-3.8 2.7-6.2.9-.9 1.6-1.7 1.6-1.8.1-.3-1.8-.7-2.4-.6-1.6.4-.2-.9 1.8-1.8 2.2-1 3.1-2.3 4.4-7 1-3.6 1.7-5.7 2.2-6.7 1.3-2.4-2.5.8-4.5 3.8-.7 1.1-1.3 2.1-1.3 2.1 0 .3-1.8 2.6-2.4 3.2-.9.8-1 .7-.4-.3.3-.4.8-1.4 1.1-2.2 1.3-3.3 2.9-6 4.1-7 .4-.3.2-.4-1.2-.5l-.9-.1-.7 1.4c-.8 1.7-.9 1.7-.7-.2.2-1.5.2-1.6-.2-1.9-.7-.5-.8-.4-.8.5m258.4.7c0 .3-.6.5-.7.3-.1-.1 0-.2.2-.3.3-.3.5-.2.5 0m-240.7 1.3c-.3.3-.5.6-.5.7 0 .1.3-.1.7-.4l.7-.7c0-.3-.4-.1-.9.4m237.5.2c-.1.3-.6.6-.9.4-.3-.1-.3-.2-.1-.4.2-.4 1-.4 1 0m-260.7 1.7c.1.8.2 1.4.2 1.4.2.2 0-2.1-.1-2.4-.2-.2-.2.1-.1 1m267.2-.9c-.3.1-.5.5-.3.5.3 0 3.1 1.2 4.2 1.8 2 1.1 1.4.4-1-1.2-1.7-1.2-2.1-1.3-2.9-1.1m-32.4.9c0 .1.1.4.2.5.1.1.6.9 1 1.7.4.8 1.2 2 1.7 2.7.9 1.2 1.1 1.6.5 1.7-.4.1-1.6-1.8-2.7-4.4-.3-.7-.7-1.6-.9-2-.2-.4-.2-.7-.1-.6.2.1.3.3.3.4m21.4-.2c-.1.4-.7.4-.7.1 0-.2.2-.3.4-.3.3-.1.4 0 .3.2m-54.7.2c.4 1.2.8 3 1.2 5 .5 2.1.7 3.2 1.2 6.8.1.6.2 1.4.3 1.8.4 1.7.8 4.3 1.1 7 .2 1.5.1 10-.1 14.7-.1 2.2-.5 5.2-.9 6.4-.2.6-.1.6.9 1.3.6.4 1.1.8 1.2 1.1.1.4 2.4 2.5 2.6 2.4.3-.3-.9-3.4-1.5-3.8-.4-.3-.6-1-.3-1.1.1 0 .1-.5-.1-1.5-.7-2.8-.8-4.7-.4-6.3 0-.2.1-.5.1-.7 0-.5.4-.4.5.2a20.39 20.39 0 0 0 3.4 6.4c.4.8.5-.2.2-2.1-.2-1.7-.4-2.3-1.1-5-.2-.6-.4-1.8-.4-2.6-.1-.9-.2-2.3-.4-3.2-.1-.9-.3-2.6-.3-3.8 0-2.6.1-2.6 1.6.6.6 1.2 1.4 2.6 1.7 3.1.3.5.8 1.4 1 2.2.6 1.8 1.7 4.8 2 5.1.3.3 0-3.3-.5-4.9-.2-.8-.5-2.1-.6-2.9-.1-.8-.7-2.7-1.2-4.4-2-6-1.5-7.1 1.2-2.4 1.1 1.9 3.4 5.4 3.2 4.7-.1-.2-.2-.7-.3-1.1-.4-1.5-2.3-5-5.1-9.1-.8-1.2-1.7-2.8-2.1-3.5-.4-.8-1-1.8-1.4-2.3-.4-.5-1.3-1.8-2-2.8-1.4-2.1-4.9-6-4.7-5.3M154.4 251c-.5.6-1 1-1 1.1v-.6c0-.6.9-1.3 1.9-1.5 0 0-.4.5-.9 1m68.5-.3c.4.4.9.4.9.1 0-.1-.1-.2-.3-.2-.2 0-.4-.1-.6-.1-.3-.1-.3-.1 0 .2m111.1 0c.1.4-.3.7-.7.6-.3-.1-.4-.5-.2-.7.3-.3.8-.2.9.1m-182.3 3.4c-.7 1.1-.7 1.1-.6-.1.1-.8.2-.9.7-.9h.5l-.6 1m74.3-.5c-1.1 2.4 4.6 7.6 10 8.9 5.2 1.3 16.3-1.5 12.9-3.2-.6-.3-.7-.3-2.1.3-2.8 1.1-4.5 1.2-8.8.6-3.2-.5-6-2-9.1-5.1-.9-.9-1.7-1.7-1.8-1.7s-.3-.1-.5-.1c-.3-.2-.5 0-.6.3m103.6-.2c.1.4-.5.7-.9.6-.2-.1-.3-.3-.3-.5-.1-.5 1-.5 1.2-.1m-177.5 2.9c-.9.8-.9.8-.1-.7.6-1.1.6-1.1.7-.6 0 .5-.1.8-.6 1.3m173.4-.8c0 .2-.2.3-.5.3-.4.1-.4 0-.2-.4s.7-.4.7.1m-2.8 1.6c0 .5-.2.9-.6.9-.3 0-.4-.1-.4-.6s.1-.6.5-.6c.3 0 .5.1.5.3m-173 1.4c-.1.2-.2 1-.2 1.7-.2 4.3-1 5.8-3.5 6.7-1.3.5-1.4.5-1 .1.2-.2.4-.6.4-.9.1-.4.2-.5.5-.4 1.6.6 2.7-.3 2.1-2-.1-.3-.1-.4.1-.4 1.1 0 1.4-1.8.6-3.4-.5-.9-.5-1.1-.2-1.1.2 0 .5-.1.7-.3.4-.4.7-.4.5 0m1.9.6c.1.1 0 .5-.2 1l-.4.8v-1.1c.1-1.3.2-1.9.3-1.3.1.2.2.5.3.6m175.6.1c2.3 2.8 5.8 6.4 7.1 7.4.4.3.7.6.6.6-.3 0-1-.5-1.3-.8-.2-.2-.3-.3-.3-.2 0 .1-.1.1-.1 0-.1-.1-.5-.4-.8-.7-.4-.3-1.2-1-1.9-1.6-.6-.6-1.6-1.5-2-1.9-1.2-1-2.6-2.8-2.6-3.2-.1-.7.5-.4 1.3.4m7.5.5c.6.2 1.3.4 1.6.6.3.2 1.5.6 2.6.9 1.1.3 2.6 1 3.3 1.3l1.4.7-.9-.1c-1.3-.1-4.8-1.3-7.6-2.7-2.2-1.1-3-1.6-2-1.3.4.2 1.1.4 1.6.6m-16.1 0c.2.2-.3.9-.7.9-.5 0-.6-.4-.2-.7.2-.3.7-.4.9-.2m6.5 2.4c.9 1 2.6 2.7 3.6 3.7 1.9 1.9 2 2 .3.9-2-1.4-6.3-5.6-6.3-6.1 0-.9.8-.4 2.4 1.5m-53.5.6c-.5.5-.9 1-.9 1.1 0 .4 2.8 1.1 4.8 1.1 1.2 0 2.2.1 2.4.3.3.1.7.2 1.1.1.9-.2.9-.1-.4 1.2-.6.6-1.3 1.4-1.5 1.8-.5.9-.8.9-1.9-.1-.5-.4-1.1-.9-1.4-1.1s-1-.8-1.7-1.4c-.6-.6-1.5-1.3-1.9-1.6-.4-.3-.8-.5-.7-.6.8-.7 2.8-2.2 2.9-2.2.1.4-.3.8-.8 1.4m46.2 1.8c0 .1.2.7.5 1.3 1.1 2.3 1 2.4-.3.3-1.1-1.6-1.1-1.7-.7-1.9.2-.1.5 0 .5.3m-166.6 1.7c-.4.7-.5.4-.3-.6.1-.7.2-.7.4-.4.2.4.2.6-.1 1m192.6-.1c1.3.3 3.2.6 4.3.8 1 .2 2.3.5 2.8.8l.9.5H349.7c-.8 0-6.9-1.5-7.4-1.8-.2-.1-.7-.3-1.1-.5-1.1-.4-.2-.4 2.6.2m-208.8 1c-.2.6-.4 1.6-.4 2.3 0 .6-.1 1.3-.2 1.6-.1.2-.3.9-.5 1.4-.2.8-.2.9-.2.3.1-.7-.6-3-1.1-3.6-.2-.2-.2-.3.2-.3.8 0 1.4-.8 1.4-1.9 0-.8 0-.9.5-.8.3.1.5 0 .5-.1s0-.2.1-.1c0 0-.1.6-.3 1.2m202.7-.9c.1.1.6.2 1 .3.4 0 2.2.5 4.1.9 1.8.5 3.5.9 3.7 1 .2.1.9.3 1.6.5l1.2.4-1.2-.1c-.6-.1-1.5-.2-1.9-.3s-1-.2-1.4-.3c-2.7-.5-3.7-.7-4.2-.8-.9-.2-.7 0 1.9 1.7 1.3.9 2.4 1.7 2.5 1.8.1.1.6.4 1.2.8s2.1 1.3 3.4 2.2c1.2.8 2.3 1.5 2.4 1.5.1 0 .5.3 1 .6 1.9 1.2-.3.5-3.8-1.2-.8-.4-5.5-3.8-6.3-4.6-.5-.5-.9-.8-1-.8-.2 0-2.3-1.6-2.3-1.8 0-.1-.1-.2-.2-.2-.3 0-2.2-1.8-2-1.8-.1 0 .1.1.3.2m-257.4.7c0 .1-.3.5-.6.9-2.3 3.4-3 6.2-2.2 9.7 1.1 4.6-.3 9.5-3 11.3-1 .6-1 .5-.3-1 .4-.7.7-1.6.8-2 .1-.4.2-.9.2-1.2.2-.8.3-3.1.2-3.1-.1 0-.4.5-.7 1.1-.3.6-1.3 1.7-2 2.5-1.5 1.4-1.4 1.3-2.4 4.6-.2.6-.3-.1-.3-1.5.1-1.8.3-2.5 1.1-3.8.4-.6.8-1.5 1-2.1l.7-2.1c.2-.5.5-1.8.8-2.9.2-1.1.6-2.2.8-2.4.2-.3.8-1.3 1.2-2.3 1.7-3.3 4.7-7 4.7-5.7m62.4 1.2s-.5.1-2.7.4l-.9.1.9-.5c.8-.4 3.1-.4 2.7 0m9.6 2.8c0 .6-.2.5-.8-.4-.9-1.4-.9-1.8 0-.8.5.4.8.9.8 1.2m219.2-1.4c.4.2.6.2.6 0 0-.1-.2-.2-.4-.2-.4 0-.5.1-.2.2m-281.3.8c-.2.9-.1 2 .1 2.3.1.2.2-.2.2-1.3-.1-1.7-.1-1.9-.3-1m50.3 2.3c-.3.7-.4.8-.8.7-.3-.1-.6-.1-.7-.1-.5 0 1.2-1.1 1.8-1.3 0 0-.2.3-.3.7m73.5.9c.2.3.5.7.7.9.2.2.3.4.3.5 0 .1.4.7 1 1.3 1.9 2 3.5 4.3 2.6 3.6-.5-.3-1.1-.6-1.6-.7-.8-.1-1.1-.3-.7-.5.4-.3.2-1.4-.4-2-.6-.6-.9-.7-1.9-.7-.4 0-.4-.1-.5-1.1-.1-.6-.2-1.3-.4-1.5-.1-.2-.3-.7-.4-1l-.1-.6.5.6c.3.4.7.9.9 1.2m-76.9 1.8c0 .4-.1.5-.5.5h-.5l.5-.5.5-.5v.5m-4.5.4c-.3 1.1-2 2.3-2 1.4 0-.1-.1-.5-.1-.8-.1-.6-.1-.6.8-.6.5 0 1-.1 1.1-.2.4-.4.4-.4.2.2m2.8.3c-.1.2-.2.3-.3.3-.1 0-.1-.2 0-.4.3-.4.5-.3.3.1m-.9 1.3c-.4.7-.5.9-.4 2 .1 1.2.1 1.2-.7 2-1.5 1.5-1.9 4.3-.9 5.8.3.4.5.8.5.9 0 .1.1.2.3.1.5-.2.8.4.3.9-.7.7-.1 3.3.8 3.3.1 0 .2.1.3.3.1.2 0 .3-.2.2-.2-.1-.3 0-.3.2s.1.3.3.2c.2-.1.3.1.3.8v.9l-.7-1.1c-1.2-1.9-1.4-2.5-1.8-3.8-.2-.7-.4-1.7-.5-2.1-.3-1.4-.3-1.7-.2-3.5.2-2.6.8-4.7 1.6-5.9 1.6-2 2.3-2.7 1.3-1.2m87 1.7c.2.2 1 1.1 1.8 2 1.7 1.8 2.3 2.4 3.6 4.1 1 1.3.4.6-1.6-1.6-.7-.8-1.7-1.9-2.1-2.4-1-1.1-2-2.2-3.3-3.6l-.9-1 1.2 1.1c.5.5 1.1 1.2 1.3 1.4m-94.2-1.2c0 .1-.3.1-.6.1s-.9.1-1.2.3c-.3.2-.6.3-.7.2-.1-.1 1-1.1 1.3-1.1.1 0 .3-.1.3-.2 0-.2.9.4.9.7m172.8-.5c0 .2.3.8.5 1.4l.4 1.1-.1-1.2c-.1-1.1-.3-1.7-.7-1.7-.1.1-.1.2-.1.4m-170.7 3.4c.7 1.6-.7 4-4 6.8-1.1 1-1.3 1.1-1.3.7 0-.3.1-.4.2-.3.2.1.2-.1.1-.5l-.1-.7.8.1c1 .1 1.3-.2 1.3-1.3 0-.4.1-.7.2-.7.3.2.2-.3-.1-.6-.3-.3-.2-.3.5-.2.7.1.9 0 1.4-.4.9-.9 1.1-1.8.7-3.3-.3-.5 0-.2.3.4m237.6.7c-1.4.9-2.3 2.6-3.2 5.8-.4 1.6-.6 2.2-.8 4.4-.1.6.1 1.8.4 3.7.3 1.5.9 3.6 1.5 4.8.4.7.9 1.9 1.2 2.6.3.7.7 1.5 1 1.9s.7 1.1 1 1.6c.7 1.5 1.3 2.4 2 3.1.7.8.3.9-.7.1-.9-.6-.9-.6-.9 0 0 .3-.3 1.2-.6 2s-.8 2.4-1.1 3.6c-.8 3.1-1.9 6.2-3.3 9.7-1.9 4.5-1.9 4.7-1.6 5.9.6 2.1.5 4.5-.1 5.3-1.5 1.9-1.3 2.8.5 1.9 1.2-.6.5 1.2-.7 1.9-.5.3.3 3.6 1.5 5.8.2.4.5 1.2.6 1.8.1.6.5 2.1.9 3.3.8 2.7.9 2.2-1.6 7.8-1.5 3.3-2.1 6.1-1.7 8.3.2 1 .3 2.8.3 3.9 0 2.8.6 3.4 1.6 1.9.9-1.2 1.1-2.3 1-4.6-.1-2.6-.1-3.2.1-4.2.7-2.6 1.8-4.5 1.6-2.7-.1.7 0 .8.5.5.3-.1.5-.1 1 .3.4.3.8.5 1 .6.4.1.9 2.7 1 5.5.1 1.1.2 2.1.2 2.3.1.2-.1 1.2-.5 2.2-1.5 4.6-1.6 10.8 0 7.8 2.1-4.2 4.4-12.7 4-15.3-.2-1.8-.3-2.2-.4-3.7-.1-1.6-.3-3.2-.4-3.9-.1-.6-.8-6.1-.9-7-.1-.8-.7-2.1-1.8-3.6l-.8-1.2.6.2c.3.1.7.2.7.2.5 0-.1-5.4-.7-6.8-.3-.6-.5-1.1-.5-1.3 0-.1-.3-.5-.6-.9-.9-1-.8-1.4 1.1-4.3.9-1.4 1.9-3.2 2.2-4 .6-1.6 1.5-3.7 3.1-6.9.6-1.2 1.4-3.3 1.9-4.7.6-1.8 1.2-2.9 1.9-4l1-1.5-.1-1.3c-.1-1.5-.4-2.1-1.7-3.6-1-1.1-1.3-2-1.3-3 0-.3-.1-.5-.2-.5s-.1-.3-.1-.6c.1-.3.2-1.8.2-3.3.1-1.5.2-3.5.4-4.5.4-2.6.4-3.1-.3-5.2-2.3-7.3-5.9-10.3-9.4-8.1m-142.4 5.1c.3.3.7.8.9 1.1.2.3.5.6.6.7.6.8 1.5 2 1.6 2 .1 0 .4.4.7.8.5.7.5.7.1.5-.2-.1-.8-.2-1.1-.2h-.7l.1-.9c.1-1.1-.5-1.8-1.7-1.9-.7-.1-.8-.2-.8-.6 0-.5-.7-2.5-1-2.8-.1-.1-.2-.3-.4-.5-.4-.5 1.1 1.1 1.7 1.8m6.3 2.7c.2.1.4.2.4.3s.3.2.8.3c.8.1 1 .4 1 1.7 0 .9.5 1.7 1.5 2.3.8.4 1.5 1.9.9 1.6-.1-.1-.3-.2-.3-.2 0-.1-.3-.4-.6-.8s-1.1-1.3-1.7-2c-.6-.7-1.5-1.7-2-2.3-.5-.6-1.2-1.3-1.4-1.7s-.7-.9-1-1.3c-.3-.4 0-.1.7.6s1.4 1.4 1.7 1.5m-22.2-.1c.3.1.5.3.5.4 0 .1.3.2.7.4.4.1.7.3.7.4 0 .1.2.2.4.3.2.1.4.3.4.6 0 .6-.1.6-1.1-.4-1.1-1.1-1.4-1.4-1.9-1.7-.6-.3-.4-.3.3 0m-2.1 1.9l.5.4-.5-.1c-.3-.1-.8-.4-1.2-.8-1.2-1.2-1.3-1.5-.3-.6.6.3 1.3.9 1.5 1.1m-79-.5c.5.8-.1 1.1-.9.5-.5-.4-.6-.5-.3-.5.2 0 .3-.1.3-.2.1-.4.6-.3.9.2m197.4.4c.3.3.6.5.8.5.2 0 .1-.2-.3-.5-.8-.6-1.1-.6-.5 0m-95.1 2.2c.5.6 1 1.2 1.1 1.3.1.1.4.3.5.6l.2.4-.5-.4c-.7-.6-1.3-.9-1.8-.8-.5.1-.5-.6 0-.9.1-.1.1-.3-.1-.7-.6-.9-.3-.7.6.5m97.6-.4c0 .3-.1.6-.1.8-.1.2 0 .3.1.3s.2-.2.3-.4c0-.2.3-.5.5-.7.5-.3.4-.5-.3-.5-.4 0-.5.1-.5.5m8.8.1c0 .1.1.5.3.9.4.8.5 2.8.3 2.8-.1 0-.4-.5-.7-1.1-1.1-2.3-1.8-2.9-1.8-1.3 0 .9-.4 3-.5 3.3-.2.3-.4-.6-.4-1.9 0-.6-.1-1.2-.2-1.5-.2-.5-.2-.4-.8 1.4-.7 2.1-1.6 3.4-1.2 1.7.3-1.4.5-3 .4-3-.2 0-.7.6-.8.9-.3.8-2.4 4.3-2.7 4.5-.4.2-.4.2-.1-.5 1-2.3 1-2.3-1.5.1-2 2-2.4 2.6-2 2.9.2.1 0 .7-.5 1.1-.1.1-.6.9-1.1 1.6-.5.8-1 1.5-1.1 1.7-.1.2-.3.5-.4.8-.1.4-.2.5-.6.5-.4 0-.5.1-.6.5-.1.3-.2.5-.3.5-.4 0-1.2 2.2-.9 2.6.2.3 0 4.4-.3 6 0 .3-.1 1.2-.2 2.1-.1.9-.2 2.8-.4 4.3-.6 5.6-.5 6.8 1 12.4.4 1.6.9 1.9.9.6 0-.2.4-1.6.9-3.1s1-3.6 1.2-4.8c.6-4.1.6-3.9.7-3.3.9 3.4.9 5.9.3 10.5-.7 4.9-.5 10.6.5 11.6v-2.9c-.1-2.9.3-6.2.7-6.6.1-.1.1 1.3.1 3-.1 3.3.1 3.8.5 1.4.1-.8.5-2.2.8-3.1.5-1.5 1.3-3.9 1.4-4.8.4-1.7 1-2.6.8-1.1-.1.3-.2 1.1-.3 1.7-.7 4.4-.4 12 .7 15.1.6 1.7 1.9 4.6 1.5 3.4-.5-1.5-.7-2.8-.9-4.8-.4-5.3-.2-8.6.3-4.2.4 3.5.9 4.4.9 1.6 0-2.3.1-2.9.4-5.6.3-2.5.5-2.3.6.6.1 2.5.6 5 .8 4.5.1-.2.3-1.4.5-2.8.5-3.4 2.2-8.3 2.8-8.3.1 0 .2 0 .2.1s-.6 1.9-.7 2.3c-.1.2-.1.3-.1.4 0 .1-.1.4-.1.7-.3 1.2.1.6.9-1.1.9-1.9 2.1-3.3 4.9-5.5.9-.7 1.9-1.7 2.3-2.3.8-1.1 1.2-1.3 1-.5-.1.3-.1.7-.1.9 0 .2-.2.7-.6 1.2-.6.9-1.6 2.6-1.6 2.8 0 .4 3.5-3.6 4.9-5.7.5-.8 1-1.4 1.1-1.4.3 0-1 3.2-1.6 4.1-.9 1.4-3.8 5.3-4.4 6-.1.1-.2.2-.1.2s-.9 1.8-1.6 3c-2.6 4.1-4.1 10.2-3.3 13.3.1.5.2.4.2-.4.1-4.3 2.3-9.6 6.1-14.4 1.9-2.4 1.8-2.3 3.3-3.9 1.6-1.7 4.5-6.3 5.8-9.1 1.6-3.3 1.6-4.2 0-1.7-.9 1.4-1.4 2-1.6 1.8-.1-.1 1.3-3.2 1.9-4 1-1.4 2.7-5.2 2.9-6.4.4-1.9.3-1.8-1.6 1.8-.4.7-.7 1.3-.8 1.4-.1.1-.2.3-.3.5-.4.7-.2 0 .4-1.8 1.6-4.6 1.9-5.8 2-8.3.1-2.4-.1-3.6-.4-2.1-.2 1.2-.7 3.3-.8 3.3v-3l.1-3-.9-1.8c-1.4-2.7-1.9-3.4-1.7-2.2.1.3.2 1.7.2 3.1.1 1.4.2 3 .4 3.5s.3 1 .3 1c0 .6-2-2.3-2.5-3.6-.4-1-.6-.9-.5.1l.1.9-.5-.8c-.7-1-1-.7-1.1 1.1v.8l-.5-.9c-.3-.5-.7-1.1-1-1.3-.3-.2-.6-.7-.6-1.1l-.2-.6.5.6c.3.3.7.9 1 1.2l.4.6-.1-1.1c-.1-.6-.2-1.6-.2-2.1-.2-2 1-1.8 1.4.2.1.7.2.8.3.4.1-.2.1-.8 0-1.3-.4-2.3-.2-2.3.8-.2.5 1.1 1 2 1 2 .2-.2-.5-2.8-1-3.8-.3-.6-.6-1.2-.6-1.4 0-.7-1-1.8-2-2.1-1.1-.4-1.2-.4-.9.7.6 2 .1 2.4-.8.7-1.3-2.4-1.8-2.7-1.6-1.1.1 1.2.1 1.2-.8-.2-.6-1-1-1.3-1.9-1.8-1.3-.7-1.3-.7-.6.5 1.3 1.9 1.2 2.3-.2.9-1.4-1.1-3.5-2.5-3.5-2m-122 1.3c0 .3.1.7.2.9.2.4.2.4-.1 0l-.9-.9-.5-.5h.7c.5 0 .6 0 .6.5m-2.3 2.2l.8.9-.8-.7c-.5-.4-.8-.7-.8-.8 0-.1-.3-.2-.6-.3-.3-.1-.6-.2-.6-.4 0-.1-.1-.4-.1-.7-.2-.4.3 0 2.1 2m115.6-1c0 .5 0 .5.2.1.2-.5.2-.7 0-.7s-.3.3-.2.6m-111.2.4c.5-.3.9 0 1 .9.1.4.4 1.2.8 1.8.8 1.2.7 1.2-1.5-1.1-1.8-1.8-2-2-1.2-1.6.4.2.6.2.9 0m-89.1 1.2c0 .1-.1.1-.3.1-.3 0-.3 0-.2-.5.2-.2.5 0 .5.4m.6 1.3c.3.5.4.7.2.7s-.3-.1-.4-.2c-.1-.1-.3-.2-.5-.2-.5 0-.7-.4-.3-.7.5-.4.5-.4 1 .4m88.9 2.9c.6.6.9 1 .7.8-.2-.2-.6-.3-.9-.3-.4 0-.5-.1-.6-.4-.5-1.5-.5-1.5.8-.1m-82.3.5v1.4l-.8-.1c-.9-.1-1.1 0-1.2 1.2l-.1.7-.6-.3c-.3-.2-.6-.2-.8-.2-.5.3.3-.7.8-1.1.3-.2 1-1 1.6-1.7 1.2-1.6 1.1-1.6 1.1.1m209.1 1.8c.1.4.8 1.9 1.4 3.3.6 1.4 1.1 2.8 1.1 3.1 0 .3.1.6.2.7.5.6 1 4.6.5 4.2-.2-.1-.3-.5-.4-.8-.1-.3-.2-.6-.3-.6-.4-.2-2.3-5.2-2.3-6 0-.4-.1-1.4-.3-2.2-.6-2.9-.6-3.7.1-1.7m-266.2 0c-.3.2-.3.3-.1.4.2.1.6-.2.6-.5 0-.2 0-.2-.5.1m143.3 2.2l.6.6h-1.4l-.1-1c-.1-.8 0-.9.2-.6 0 .2.4.6.7 1m-93.2-.6c0 .1-.4.7-.9 1.2-.6.6-.9 1.2-1 1.6l-.2.7-.1-.6c-.1-.3-.1-1.1 0-1.6.1-.6.1-1.1.1-1.2 0-.1.1-.1.3-.1.3 0 1.4-.1 1.7-.3.1 0 .1.1.1.3m96.8.5l.6.6-.6-.6c-.7-.5-.8-.6-.6-.6l.6.6m2.5 2c.6.4 1.5.9 2.1 1.2l1 .5-.1 1c-.1.8 0 1.1.4 1.8.5.8.5.8-.3-.1-1.2-1.3-1.7-1.9-1.7-2 0-.1-.4-.5-2-2.2-1-1-1.7-1.9-.8-1.1.2 0 .8.5 1.4.9m125.9-.4c0 .1.2.5.3.8.1.3.2.8.1 1-.2.6-.5.1-.6-1.2-.1-.9 0-1.4.2-.6m-29.3 1.9c-.1.4-.2 1-.3 1.4 0 .4-.2 1.2-.3 1.8-.1.6-.2 2.1-.1 3.3.1 2.4 0 2.5-1.1 4.1-.8 1.1-.9 1.1-.5-.3.2-.5.3-1.4.3-2 0-1.8 1-6.4 1.8-8.5.4-.8.5-.6.2.2m41.4-.1c0 .5.1.8.2.7.2-.2.2-.9 0-1.3-.1-.1-.2 0-.2.6m-236.9.4c0 1.1-.2 1.8-.5 1.5-.2-.4-.6-.3-1.3.3-.7.6-.6.4.2-.7.3-.3.6-.6.8-.6.2 0 .2-.1.1-.1-.2-.1-.1-.3.1-.7.5-.8.6-.7.6.3m223.3.5c0 .1.2.4.4.6.4.4.4.7.5 2.2v1.7l-.3-.8-.3-.8-.1 1.9c-.1 1.1-.3 2.4-.5 3-.3 1-.4 1-.3.4.3-2 .2-3.7-.3-4.4l-.7-1.4c-.1-.4-.4-1.2-.6-1.7-.6-1.4-.1-.7.7.9 1.2 2.6 1.7 1.4.7-1.7l-.4-1.2.6.5c.3.4.6.7.6.8M226 311.3c.5.6 1.1 1.2 1.3 1.5s.8.9 1.4 1.6c.5.6 1.1 1.2 1.2 1.4.1.1.2.3.2.4 0 0-.6-.5-1.3-1.3-1.8-1.9-4-4.2-4.7-4.7-.4-.3-.5-.5-.4-.9 0-.6.2-.5 2.3 2m68.9 0c-.2 1-.2 2 .1 1.5.1-.2.2-.8.1-1.3-.1-.8-.1-.8-.2-.2m-62.9 1.9c.2.2.5.3.7.3.8 0 1.3.2 1 .5-.1.1-.2.6-.1 1.1l.1.9-.9-1c-.5-.5-1.2-1.3-1.5-1.7l-.6-.7.6.1c.2.2.6.3.7.5m117.3 3.8c.3 1.8.1 3.5-.7 5.1-.5 1-.5.9-.3-.2.1-.5.2-2.2.2-3.9 0-1.6.1-3.2.1-3.5l.1-.6.2.7c0 .4.3 1.5.4 2.4m-3.7-.5c.2.6.3 1.2.2 1.4s0 .3.2.4c.7.4 1.5 4.1 1 4.8-.1.2-.3.6-.5.9-.1.3-.3.6-.4.6-.1 0-.1-.3 0-.6.6-2.8-.6-3.5-1.9-1-1.5 2.8-2.4 2.8-1.6 0 .2-.7.4-1.6.4-2 .1-1 .3-1.2.5-.5l.1.5.2-.5c.1-.3.2-.6.2-.7 0-.1.2-.8.4-1.5s.3-1.8.4-2.5c0-1.5.2-1.3.8.7m-20-.7c0 .6-.1 1.7-.2 2.3-.2 1.1-.2 1.2.8 4.2 1.3 4 1.4 4.7.6 6.6-1 2.4-1.2 2.8-1.4 3.8-.3 1.3-.6 1.2-.3-.1.1-.6.2-1.4.3-1.9 0-.5.2-1.4.3-2.1.1-.6.2-2.2.1-3.5l-.1-2.3-.6-.5c-.3-.3-.7-.5-.8-.5-.5 0-1.5.9-2.1 1.9-.8 1.2-1 1.4-.6.4.2-.4.3-.9.3-1.2 0-.3.5-1.1 1.2-2.1 1.2-1.6 1.8-3.1 2-5 .2-1.5.4-1.4.5 0m-13.5 2.8c-2.2 1.1-4.3 2.1-5.8 2.6-4.1 1.3-4.6 1.8-4.8 3.8-.1.8-.2 1.6-.3 1.9-.1.3-.2.8-.3 1.2-.1.4-.2 1.1-.3 1.6-1 4.7-.8 8.6.5 11.1.4.7.8 1.6.9 2 .1.4.8 1.8 1.5 3.2 2.9 6.1 3.9 8.4 4.5 10.8.2.6.8 2.2 1.4 3.5.8 1.6 1.2 2.7 1.3 3.6.2 1.3.8 3.3 1.8 5.9.6 1.5.8 2.7 1.2 6.6.1.9.3 2 1.2 6.1.5 2.6 1.1 3.5 3 4.8.5.4 2.4 2 3 2.6.2.2.9.7 1.6 1.1.9.6 1.7 1.3 3 2.8 3.3 3.9 3.4 4 3.2 1.7-.1-1.9-2.6-6.2-4-6.8-.1 0-.8-.9-1.6-1.9-.9-1.1-1.8-2.1-2.3-2.3-.8-.5-1-1-.4-1 .4 0 .4-.1.3-.6-.1-.3-.1-.7-.1-.8 0-.1.1-1.3.1-2.6.1-3.1.5-3.5 2.4-2.5 1.2.6 1.5 1.2 2.6 4.2 1.8 5.2 3.5 6.3 3 2.1-.1-.7-.2-2.3-.2-3.6-.1-3-.1-3.1-1.5-4.3-.7-.5-1.3-1.1-1.4-1.1-.8-.7-3.3-3.9-4.8-6-.4-.5-.9-1.3-1.2-1.8-1.6-2.3-2.1-3.8-2.7-7.1-.5-2.7-.7-5.2-.9-10.6-.1-2.5-.3-3.4-.3-2 0 .4-.1 1-.1 1.4 0 .4-.1 2.9-.1 5.7 0 3.3-.1 5-.2 4.8a2 2 0 0 1-.2-.9c0-.3-.3-2-.8-3.7-1-4.2-1.1-5-1.4-9.7-.3-5-.7-6.7-1.8-8l-.8-.9 1 .1c.7 0 1 0 1-.2.1-.2.4-.7.9-1.2.9-1.2 1.2-1.8 1.4-2.7.1-.4.2-.9.2-1.2.1-.3.2-1.7.3-3.1.1-1.5.3-3.3.4-4 .2-1.6.5-6.2.4-6.1-.3-.3-1.9.5-3.8 1.5m-75.8-.7c.6-.1.6-.1.6.6 0 .4.1.7.2.7s.3.4.4.8c.1.5.3.9.4 1 .3.3.6 1.3.4 1.2-.1-.1-.2-.2-.2-.3 0-.2-.8-1.5-1.2-2-1.5-1.7-2.4-3.1-1.5-2.3.2.3.5.4.9.3m-35.9.4c.6.1 1.2.2 1.3.3.1.1.5.2.8.2.4 0 .6.2.7.5.1.7 1.4 2.2 1.9 2.2.1 0 .4.1.6.2.3.2.5.1 1.3-.2.5-.2.9-.4 1-.4 0 0 .1.5.3 1.1.1.6.5 1.3.7 1.7.3.4.5.7.4.7-.2 0-1.1-.5-1.1-.6 0-.1-.3-.2-.7-.4-.4-.1-.7-.3-.7-.4 0-.1-.3-.3-.7-.4-.4-.1-.7-.3-.7-.4 0-.1-.3-.3-.7-.4-.4-.1-.7-.3-.7-.4 0-.1-.2-.2-.5-.4-.4-.2-.6-.3-1.7-1.3-.2-.2-.5-.3-.7-.3-.1 0-.4-.1-.5-.2-.1-.1-.4-.3-.6-.4-1.8-1.2-2.6-1.8-1.4-1.2.4.2 1.1.4 1.7.5m34.1 3.1c.4.6.8 1.1.8 1.2 0 .1.2.3.4.5s.4.5.4.6c0 .2-1-.7-1.3-1.3-.1-.2-.4-.7-.7-1.2-.6-1.2-.5-1.1.4.2m90.2-1c-.2.2 0 .5.4.5.2 0 .3-.1.3-.3 0-.3-.4-.4-.7-.2m-84.9 3.6c.3.4.6.8.5.8s-.4-.4-.7-.8c-.3-.4-.6-.8-.5-.8.1 0 .4.4.7.8m-36.7-.1c.2.1.5.3.8.4.3.1.6.3.8.4.2.1.5.3.8.4.3.1.7.3 1 .5.3.2.5.4.6.4.1 0 .5.2.8.4l.6.4-.9-.1c-.5-.1-1.2 0-1.6.1-.6.2-.7.1-.8-.1-.2-.5-1.7-2.1-2.5-2.7-.6-.4-.7-.5-.3-.4.2 0 .6.2.7.3m135 2.9c-.5.7-1.5 1.9-2.3 2.7-.8.8-1.8 1.9-2.2 2.5-.8 1.1-1 1.3-.8.6.2-.6.5-2.2.3-2-.1.1-.4.3-.8.3l-.6.1.4-.5c.6-.9 2.7-3 2.7-2.8 0 .1-.2.4-.4.7-.5.7-.5 1.8 0 1.8.4 0 2.2-1.8 3.4-3.5 1.2-1.7 1.4-1.5.3.1m-118.3 2.8c.4.4.8.7 1.1.8.5.1 2 1 2 1.2 0 .1.4.2.8.4.4.1.8.3.8.4s.1.2.2.2c.4 0 1.6.6 1.5.7-.1.1-.2 0-.4-.1s-.6-.3-1.1-.4c-.5-.1-.8-.3-.8-.4 0-.1-.4-.3-.8-.4-.4-.1-.8-.3-.8-.4 0-.1-.4-.2-.8-.4-.4-.1-.8-.3-.8-.4 0-.1-.2-.2-.4-.3-.2-.1-.5-.2-.6-.4-.1-.1-.8-.5-1.4-.8-2.9-1.4-4.6-2.2-4.6-2.3 0-.1.2-.1.4 0 .7.4 3.3.2 4.1-.2l.7-.4.1 1.2c.1 1.2.2 1.5.8 2m111.6-1.8c-.3 3.2-.3 3.9-.1 3.7.2-.1.2-.1 0 .2-.1.2-.5.8-.8 1.4l-.6 1 .1-.9c.2-1.9 1.2-6.4 1.4-6.4v1m12.7 0c-.1.2-.2.3-.3.3-.1 0-.1-.2 0-.5.2-.5.5-.3.3.2m-133.8 0c.4.3.8.6.9.6.1.1.5.3.8.4l.7.3h-1.4c-1.3 0-1.4 0-1.4-.5 0-.3-.1-.7-.3-.9-.3-.5-.2-.5.7.1m3.3 1.9c.3.1.6.3.6.4 0 .1.2.2.5.3.3.1.6.2.7.4.1.1.9.6 1.8 1 .8.4 1.5.8 1.5.8 0 .1-2-.7-2.2-.9-.5-.4-2.1-.6-2.8-.4l-.8.2v-.6c0-.4-.1-.8-.1-1-.2-.5 0-.5.8-.2m6.1 3.1c.1 0 .3.1.4.2.1.1.6.4 1 .6.4.2.7.4.6.5-.1.1-1.6-.6-1.9-.9-.1-.1-.3-.2-.6-.4-.3-.1-.3-.2-.1-.1.3.1.5.1.6.1m141.2.7c0 .5 0 .9.1.9.2 0 .4-.8.3-1.2-.2-.7-.3-.6-.4.3m-47 1.4c0 .2.1.3.2.3s.2-.1.2-.3c0-.2-.1-.3-.2-.3s-.2.1-.2.3m-178.4 18.9c0 1.2.4 2.6 1 4 .3.6.5 1.3.5 1.5 0 1.3.9 2.6 2.4 3.5.4.3 1.8 1.1 3 1.9 2.7 1.8 5.6 3.2 8.6 4.1 4.8 1.5 5.9 1.5 6.4.5.6-1.2.6-1.2-3.6-3.3-3.6-1.8-6-3.1-9.5-5.3-2.1-1.3-5.3-4-7.2-6l-1.7-1.8.1.9m201.1.6c0 .4.3 1.3.4 1.1.1-.5.1-.8 0-.8-.2 0-.3-.2-.4-.3 0-.3 0-.3 0 0m-158.8 4.7c2.8 1.2 4.6 1.9 6.4 2.8 1.1.5 2.9 1.3 3.9 1.6 1 .3 2.1.7 2.4.9.3.1 1.6.5 2.7.8 1.2.3 2.7.8 3.4 1.1l1.3.5-1-.1c-.5-.1-2-.3-3.3-.6-1.3-.3-2.9-.6-3.6-.7-1.2-.2-3.6-.8-4.3-1.1-.2-.1-.4-.1-.6-.2-.2 0-1.1-.2-2.1-.5-3.8-.9-7.3-1.5-7.3-1.3 0 .1 1.1.8 2.3 1.5 1.2.7 3.1 1.9 4.1 2.6 1 .7 2.3 1.4 2.7 1.7s1.1.6 1.3.7l.4.3-.4-.1c-1.2-.2-3.3-1.1-5.3-2.3-.3-.2-1.6-.9-2.9-1.5-1.3-.6-3.3-1.8-4.6-2.7-1.2-.8-2.5-1.6-2.7-1.7-.4-.2-4.8-1.1-5.2-1.1-.4 0-.1.3.6.6.4.2 1.9 1.1 3.4 2 1.4 1 3.2 2.1 3.9 2.5.7.4 1.2.8 1.2.8 0 .1-2.4-.7-4.6-1.6-2.6-1-4.2-1.5-6.3-2l-1.5-.4.6.5c.3.3.7.5.8.5.2 0 1.1.5 3.5 2.1 1.1.8 4.8 4.2 5.5 5.1 1.6 2.2 2.9 3.4 4 3.8.7.2 1 .5 1.4 1 .8 1.2 3.4 4.9 3.5 4.9.3 0-.1-2.2-.7-4.1-.5-1.5-.3-1.8.3-.4.2.5.5 1 .6 1.1.1.1.4.7.6 1.5.2.8.5 1.6.6 1.9.1.3.3 1.1.4 1.8.2 1.3 1.2 4.4 1.9 6.1.2.5.4 1.2.4 1.4s.2.9.5 1.3c.3.5.7 1.3.9 1.9 1.3 3.4 1.2 1.7-.2-3-.8-2.8-1-3.7-1-5.2-.1-2 .1-2.1.4-.4.4 1.7 3.8 10 4 9.8.1-.1-.2-1.3-1.2-4.3-2-6.2-1.9-9.4.1-9.2.6.1.7.2 1.5 1.5.4.8 1 1.8 1.2 2.1.7 1 1.4 3.6 2.3 8.1.8 4.2 1.3 5.6 2 5.6.4 0 .4-.7.3-2.1-.1-.7-.3-2.8-.5-4.7-.2-1.9-.4-3.8-.6-4.4-.4-1.4-.3-1.3.4.2.7 1.6 1.4 3.8 1.9 5.8 1 4.5 2 6.5 2.9 5.6.8-.8.2-5.5-1.1-8.2-.2-.4-.8-1.6-1.3-2.5-.5-1-1.3-2.4-1.8-3.1-.5-.8-1-1.5-1.1-1.8-.2-.4-.6-1.1-.8-1.3-.3-.3-.6-1-.4-1 .1 0 .3.2.4.4.1.2.3.5.4.6.1.1.5.7 1 1.3.5.6 1 1.2 1.2 1.4 1.1 1.2 3.5 5.1 4.3 6.8.3.8.9 1.9 1.3 2.6 1.5 2.3 2.6 4.5 3 5.7.4 1 .5 1.2 1 1.2l.6.1-.1-1.3c-.1-1 0-1.3.2-1.4.5-.2.8-.1.9.3.1.3.3.4.6.4.6 0 1-.6.7-1.2-.3-.5-2.6-3.9-3-4.3-.1-.2-.6-.9-1.1-1.7-.7-1.3-3.8-5.5-4.2-5.7-.1-.1-.7-.9-1.5-2-1.5-2.1-5.3-6.2-6.8-7.3-1.4-1.1-3.5-3.1-3.5-3.4 0-.2.5 0 1.3.5.7.4 1.3.7 1.3.6 0-.1.3.1.6.4.4.3 1.2.7 1.8 1 1 .5 2.9 1.6 3.5 2.1.2.2 4.6 3.1 5.4 3.6.2.1.2.1.1-.1-.3-.5-4.1-5.1-4.2-5.1-.2 0-2.4-2.2-2.3-2.3.1-.1.3.1.6.4.5.5 1 .8 3.5 2.3.5.3 1.1.4 3.7.5 1.7.1 3.1.1 3.2.2.1.1.2 0 .2-.1s-.6-.5-1.3-.9c-.7-.4-1.8-1-2.3-1.3s-1.3-.8-1.8-1c-1.8-.9-.9-.9 1.3 0 .7.3 3 1.2 5.1 2.1l3.8 1.5h3.9c2.1 0 5.4-.1 7.1-.2 1.8-.1 3.8-.1 4.5-.1.7 0 1.3 0 1.3-.1s-2.5-.9-6.4-2a21 21 0 0 1-2.9-.9c-.2-.1-.8-.3-1.5-.5-.6-.2-2.1-.7-3.1-1.1-1.1-.4-2.5-.8-3.2-1-3.6-.8-3.9-1-1.7-1.1 3.1-.2 4.8-.1 7.9.5 1.6.3 4.6.8 6.7 1.1 3.3.4 6.9 1.1 12.4 2.3 2.2.5 2.1.3-.1-.6-1.1-.4-2.5-1-3-1.3-.5-.2-1-.4-1.1-.5-.4-.1-2-.7-3.5-1.4-1.6-.8-2.5-1-7.1-1.9-5.7-1.1-10-2.2-13-3.2-1-.3-2.1-.7-2.4-.8-1.1-.3-6.3-2-6.6-2.1-.2-.1-1.4-.4-2.6-.8-2.3-.6-2.8-.8-3.2-1.3-.2-.2-.7-.3-2.5-.3-1.2 0-3.1-.1-4.1-.2-2.8-.3-2.8-.2.3 1.4 1.6.8 2.9 1.6 3.1 1.7.1.2.3.3.3.3.2-.1.6.1.5.3-.1.1-1.3-.4-2.7-1-5.9-2.5-7.8-3-10.6-3.1-2.4.3-2.4.3-1.7.6m-37.2 9c0 1.7 4.9 6.4 9.3 8.9 2.9 1.7 2.8 1.6 4.1 2.1 1.4.6 1 .7-.8.3-3.7-.8-7.1-2.3-10.3-4.3-1.7-1.1-2.2-1.3-1.9-.7.1.2.3.8.5 1.3 1.3 3.5 3.5 6.3 5.6 7.3.6.3 1.3.6 1.6.8 2.6 1.8 3.4 1.9 10.5.7 2.2-.4 4.4-.7 5-.8.5-.1 1.4-.2 1.9-.3l1-.1-.9-.7c-.5-.4-1.5-1.3-2.3-2-.8-.7-2.3-1.9-3.4-2.6-1.9-1.3-3.5-2.5-4.6-3.5a9.68 9.68 0 0 0-3.5-2.2c-.8-.3-2.4-.9-3.5-1.5-1.1-.5-2.5-1-3-1.2-.5-.1-1.9-.6-3-1-2.4-.7-2.3-.7-2.3-.5m111.2 4.1c.4.4 6.2 2.2 6.4 2 .1-.1-2.2-.9-4.5-1.6-1.6-.5-2.1-.6-1.9-.4m10.5 3c.7.2 1.2.2 1.1 0-.1-.1-.4-.2-.8-.2-.7 0-.7.1-.3.2M207 390.7c0 .2 2 3.3 2.7 4l.6.7-.1-.7c-.1-.6-3.2-4.5-3.2-4m153 .4c.3 1.4.5 2.1.6 2 .1-.1-.4-2.3-.6-2.5v.5m-4.3 4.6c0 .6.1 1 .2 1 .2 0 .2-.6 0-1.5-.2-.5-.2-.4-.2.5m-22.7 2.4c-.2.6-.2.8.1.6.1-.1.2-.4.1-.6-.1-.3-.1-.3-.2 0"/></svg>