<?xml version="1.0" encoding="utf-8"?>
<!-- Generator: Adobe Illustrator 22.1.0, SVG Export Plug-In . SVG Version: 6.00 Build 0)  -->
<svg version="1.1" id="Layer_1" xmlns="http://www.w3.org/2000/svg" xmlns:xlink="http://www.w3.org/1999/xlink" x="0px" y="0px"
	 viewBox="0 0 500 500" style="enable-background:new 0 0 500 500;" xml:space="preserve">
<style type="text/css">
	.st0{fill:#231F20;}
</style>
<g>
	<g>
		<g>
			<path class="st0" d="M274.8,235.3l0.4-0.3C275,235.1,274.9,235.1,274.8,235.3z"/>
			<path class="st0" d="M219.4,284.9l0-0.2C219.4,284.9,219.4,284.9,219.4,284.9z"/>
			<path class="st0" d="M217.9,306l-0.3,0.3C217.8,306.2,217.9,306.1,217.9,306z"/>
			<g>
				<path class="st0" d="M240.1,285.5c10-9.2,19.8-18.5,29.4-28c9.9-9.7,19.6-19.6,30.5-28.5c11.5-9.4,23.4-18.2,35.1-27.4
					c11.8-9.2,23.9-17.4,36.3-25.9c12-8.1,23.3-17.2,35.5-25c3.3-2.1,6.5-4.1,9.8-6.2c1.6-1,8.9-7.2,10.2-8.6c0.6-0.6-4.5,1.8-6,2.5
					c-4.6,2.3-11.7,5.9-15.2,7.9c-7.1,4.1-10.4,6-17.5,10.6c-14.5,9.4-28.6,18.7-43.4,27.5c-12,7.1-23.4,16.2-34.9,24.4
					c-12.5,8.8-25,17.6-36.7,27.6c-12.4,10.6-25.2,20.8-37.1,31.9c-2.9,2.7-5.9,5.5-8.8,8.3l-8.6,8.5c-5.7,5.7-11.4,11.3-17.2,16.9
					l-10.1,9.8c-3.4,3.3-6.8,6.4-10.1,9.7c-8.5,8.3-16.8,16.6-25.1,25.1l-3.1,3.2l-0.4,0.4l-0.5,0.6c-0.3,0.4-0.6,0.7-0.9,1
					l-1.5,1.8c-0.9,1.1-1.8,2.2-2.6,3.1c-0.2,0.2-0.3,0.3-0.5,0.5c-0.4,0.3-0.8,0-1.1-0.3l-0.1-0.1c-0.2-0.2-0.4-0.4-0.6-0.6
					c-0.4-0.4-0.8-0.9-1.2-1.4c-0.8-1-1.6-2-2.4-3.2c-1.5-2-2.9-4.2-4.3-6.4c-0.7-1.1-1.5-2.3-2.5-3.6l-2.3-3.2
					c-3.1-4.3-6.1-8.5-9.2-12.8c-6.2-8.5-12.2-17.1-18.8-25.6c-7-8.9-16.2-21.2-24.3-27c-2-1.4-3.4-1.2-4.4-0.6
					c1.5-1.1,5.8,11.2,6.2,12.1c2.4,5.1,5.6,10.2,8.4,15.3c5.5,9.9,9.9,19.1,16.7,28.9c3.6,5.1,7.3,10.1,11,15.1l5.5,7.3
					c0.7,1,1.6,2.3,2.4,3.6c0.9,1.3,1.8,2.6,2.7,4c1.9,2.7,3.9,5.4,6.6,8.2c0.1,0.1,0.4,0.4,0.7,0.7l0.8,0.8c0.5,0.5,1.2,1,1.7,1.4
					c1.2,0.9,2.5,1.7,3.8,2.2c1.3,0.5,2.7,0.9,4.1,0.9c1.4,0.1,2.8-0.2,4.2-0.6c1.3-0.5,2.6-1.2,3.7-2.1c1.2-0.9,2.3-1.9,3.3-3
					l0.7-0.8l0.4-0.5l0.8-1l1.6-1.9l1.4-1.7l0.6-0.7l0.6-0.6l3.3-3.3c7.4-7.5,14.9-15,22.3-22.6l5.6-5.6l5.7-5.5l11.4-11
					c4.6-4.4,9.2-8.8,14-13.2c2.4-2.2,4.7-4.4,7.1-6.7C235.4,289.9,237.7,287.7,240.1,285.5z"/>
			</g>
		</g>
	</g>
</g>
</svg>
