<?xml version="1.0" encoding="utf-8"?>
<!-- Generator: Adobe Illustrator 22.1.0, SVG Export Plug-In . SVG Version: 6.00 Build 0)  -->
<svg version="1.1" id="Layer_1" xmlns="http://www.w3.org/2000/svg" xmlns:xlink="http://www.w3.org/1999/xlink" x="0px" y="0px"
	 viewBox="0 0 500 500" style="enable-background:new 0 0 500 500;" xml:space="preserve">
<style type="text/css">
	.st0{fill:#231F20;}
</style>
<g>
	<g>
		<g>
			<path class="st0" d="M272.6,227l0.4-0.4C272.9,226.8,272.7,226.9,272.6,227z"/>
			<path class="st0" d="M208.8,283.7l-0.1-0.4C208.6,283.5,208.7,283.6,208.8,283.7z"/>
			<path class="st0" d="M220.3,321.5l-0.3,0.4C220.1,321.7,220.2,321.6,220.3,321.5z"/>
			<g>
				<path class="st0" d="M246.2,299c11.4-10.3,22.2-21.2,32.3-32.8c10.4-11.9,20.3-24.4,32.5-34.6c12.9-10.8,26.4-20.7,39.3-31.6
					c13-11,26.8-20.3,41.1-29.7c13.8-9.1,25.7-20.8,40-29.2c3.8-2.2,7.8-4.3,11.6-6.5c1.9-1.1,9.6-9.1,10.8-11.2
					c0.5-0.9-6.1,0.8-7.9,1.4c-5.9,1.7-14.8,4.6-19.1,6.5c-8.6,3.9-12.6,5.7-20.8,10.7c-16.9,10.2-33.2,20.4-51.1,29
					c-14.5,7-27,18.1-40.7,26.9c-14.8,9.5-29.9,18.7-43.3,30.2c-14.2,12.2-29.6,23.1-43.2,36c-13.4,12.7-26.1,26-39.3,38.8
					c-7.7,7.5-15.4,14.9-23.2,22.3c-9.8,9.3-19.4,18.9-28.7,28.5l-1.8,1.8l-0.3,0.3l-0.1,0.1l-0.1,0.1c-0.2,0.2-0.3,0.4-0.4,0.6
					c-0.3,0.4-0.6,0.8-0.9,1.1c-0.2,0.2-0.5,0.2-0.7,0.1c-0.2-0.1-0.4-0.2-0.6-0.4c-0.4-0.3-0.7-0.7-0.9-1.1
					c-0.1-0.2-0.2-0.4-0.3-0.6c-0.1-0.1-0.1-0.2-0.2-0.4l-1.1-1.8l-1.4-2.1l-0.8-1.2l-0.9-1.3l-2.5-3.7c-3.3-5-6.6-10-9.9-14.9
					c-6.7-9.9-13.2-19.9-21-29.3c-8.2-9.9-18.8-23.8-31.3-28c-3-1-6.1,0.2-8.5,1.9c3.8-2.8,4.4,14.4,4.6,15.5
					c1.5,6.7,4.6,12.9,7,19.3c4.7,12.4,7.6,24.6,14.9,36.1c3.9,6,7.9,11.9,12,17.7l5.9,8.3l2.5,3.8l1.2,1.8l1.5,2.1
					c1,1.4,2,2.8,3,4.2c4.1,5.5,8.7,10.4,13.7,13.4c2.5,1.5,5.1,2.6,7.9,3.2c1.4,0.3,2.8,0.5,4.3,0.6c1.5,0.1,3,0,4.4-0.2
					c1.4-0.2,2.6-0.6,3.9-1c1.3-0.5,2.5-1,3.7-1.7c2.5-1.3,4.9-3.2,7.3-5.5c2.4-2.3,4.6-5,6.8-7.8c0.6-0.7,1.1-1.4,1.7-2l1.5-1.6
					l1.9-1.9c8.4-8.6,16.9-17.2,25.3-25.8c8.4-8.6,16.9-17.1,25.6-25.3C224,318.6,235.3,308.9,246.2,299z"/>
			</g>
		</g>
	</g>
</g>
</svg>
