<?xml version="1.0" encoding="utf-8"?>
<!-- Generator: Adobe Illustrator 21.1.0, SVG Export Plug-In . SVG Version: 6.00 Build 0)  -->
<svg version="1.1" id="Layer_1" xmlns="http://www.w3.org/2000/svg" xmlns:xlink="http://www.w3.org/1999/xlink" x="0px" y="0px"
	 viewBox="0 0 500 500" style="enable-background:new 0 0 500 500;" xml:space="preserve">
<style type="text/css">
	.st0{fill:#FFFFFF;}
</style>
<g>
	<g>
		<path class="st0" d="M489,327.4c0,0.7-0.1,1.5-0.1,2.2c0.1,0,0.2,0,0.4,0C489.2,328.9,489.1,328.1,489,327.4c-0.3-2-0.5-4-0.8-6
			c-2.8-20-5.5-40.1-8.4-60.1c-0.2-1.5,0.1-2.6,1.2-3.4c1.2-0.8,2.5-1.5,3.8-2.1c0.5-0.3,1.1-0.4,1.7-0.7c-1.8-1.9-3.6-2-5.5-0.9
			c-1.4,0.9-2.8,2-4,3.2c-3.3,3.2-3.2,3.2-7.2,1c-0.3,2.1,0.8,3.5,2.2,4.6c2.7,2.1,3.9,4.8,4.6,8c2.4,11,4.9,22,7.2,33.1
			c1.5,7.3,2.9,14.7,4.4,22C488.3,326.6,488.8,327,489,327.4z M294.2,443.9c0.9,0.7,1.4,1,1.8,1.4c3.1,2.6,3.2,5.5,0.2,8.3
			c-2.2,2.1-5.3,2-6.9-0.5c-0.9-1.3-1.4-2.9-1.7-4.5c-0.8-3.3-0.5-6.7,0.2-9.9c1.4-6.2,3-12.3,4.3-18.5c1.5-7.2,2.3-14.5,0.8-21.8
			c-1.1-5.1-3-9.8-6.8-13.5c-1.9-1.9-3.5-4.1-5.1-6.2c-5.2-7.2-8.8-15.2-10.9-23.8c-0.3-1.1-0.3-2.4-0.2-3.5
			c0.1-1.5,0.8-3.1,0.5-4.5c-0.6-2.8-0.3-5.6,0-8.4c0.3-2.9,0-5.8,0-8.8c0-0.9,0.1-1.8,0.3-2.6c2.5-7.1,5.2-14.2,8.9-20.8
			c1.2-2.1,1.8-4.3,2-6.7c0.5-6.2,0.9-12.3,1.5-18.5c0.5-6.1,1.3-12.1,2.9-18c1.3-4.7,3.1-9.3,6.4-13c0.8-0.9,1.6-1.7,2.4-2.5
			c-4.9,1.4-8.6,4.2-11.4,8.2c-2.4,3.4-3.7,7.2-4.7,11.2c-1.4,5.8-1.6,11.8-1.8,17.7c-0.1,3.9-1.6,6.9-4.3,9.5
			c-1.4,1.3-2.8,2.4-4.2,3.7c-0.7,0.6-1.2,1.4-2.1,2.6c3.6,0.2,5.9-2.2,8.9-2.3c0.4,1.6-0.1,2.9-0.9,4c-1,1.3-2.1,2.5-3.3,3.5
			c-1.7,1.4-3.7,2.7-5.5,4c-0.7,0.5-1.7,1-1.7,2.4c1.6,0.4,3.1,0.7,4.9,1.1c-1.6,5.2-6.2,6.6-10.1,8.7c1.6,2.3,4,3,6.4,3.8
			c-0.9,2.8-4.5,2.3-5.4,5c0.4,0.3,0.7,0.5,1.1,0.7c3.9,1.8,4.1,3.3,0.9,6.2c-0.4,0.4-0.9,0.7-1.3,1.2s-0.7,1.2-1.3,2
			c1,0.4,1.8,0.7,2.5,0.9c0.7,0.2,1.5,0.2,2.1,0.5c1.5,0.7,1.7,2,0.5,3.1c-0.5,0.5-1.2,0.8-1.8,1.2c-0.6,0.4-1.3,0.7-1.9,1.1
			c-1.2,0.9-1.1,1.9,0.2,2.7c0.6,0.3,1.2,0.4,1.8,0.6c0.8,0.2,1.6,0.4,2.3,0.7c1.1,0.4,1.7,1,1.8,2.3c0.3,3.4,1.6,6.6,3,9.7
			c4,8.5,9,16.4,14.8,23.8c3.6,4.6,5.5,9.9,6,15.7c0.6,6.8-0.6,13.3-2.8,19.7c-2.5,7.2-3.4,14.7-3.2,22.3c0.1,2.4,0.5,4.9,1.3,7.2
			c1.5,4.7,4.5,6.3,9.4,5.7c2.5-0.3,4.6-1.4,6.7-2.7c-0.4,1-0.9,1.9-1.5,2.7c-3.5,4.5-8.8,5.1-13.4,1.6c-2.3-1.7-3.8-4-4.9-6.6
			c-2.1-5.1-2.9-10.6-2.3-16c0.6-5.5,1.7-10.9,2.5-16.4c0.7-5.1,1.4-10.2,1.6-15.3c0.2-5.8-1.8-10.8-6.1-14.9
			c-1.2-1.2-2.5-2.4-3.7-3.6c-5.8-6-11.6-11.8-17.2-18c-3.8-4.2-7-8.8-8.3-14.5c-1.5-0.2-3-0.3-4.4-0.6c-3.4-0.6-6.7-1.2-10-1.9
			c-1.2-0.3-2.6-0.8-2.4-2.3c0.1-1.4,1.5-1.6,2.6-1.7c3-0.4,6-0.5,9-0.9c2-0.3,4-0.6,6-1.1c0.8-0.2,1.8-0.5,2.1-1.8
			c-5.2-0.9-10.3-1.3-15.1-3.5c2.9-0.4,5.8-0.5,8.7-0.8s5.7-0.7,8.4-1.9c-0.6-0.2-1.3-0.1-1.9-0.2c-3.7-0.3-7.5-0.5-11.2-1
			c-2.8-0.4-5.6-1.1-8.1-2.6c-0.8-0.5-1.9-0.9-2-2.3c6.9,0,13.7,1,20.8,0c-4.7-0.9-8.9-1.5-13.1-2.5c-1.8-0.4-3.4-1.4-5-2.4
			c-1.3-0.8-1.8-2.1-1.7-4.1c5.9,2,11.8,3.2,17.9,3c-0.8-0.6-1.7-1-2.5-1.4c-4-1.9-8.1-3.8-12.1-5.7c-0.9-0.4-1.7-1.1-2.5-1.7
			c2.1,0,4,0.4,5.9,0.8c3.8,0.7,7.7,1.4,11.6,1.2c0.8,0,1.8,0,2-1c0.1-0.8-0.1-1.8-0.5-2.5c-0.4-0.6-1.2-1.1-1.9-1.4
			c-1.2-0.6-2.5-1.1-3.8-1.6c-2.5-0.9-5.1-1.8-7.5-2.8c-1.3-0.5-2.6-1.2-3.8-2.7c7.8,1,15.3,2.7,22.6-0.4c-0.7-1.9-1.1-2.5-3-3
			c-2.6-0.7-5.2-1.1-7.9-1.6c-2.8-0.6-5.6-1.1-8.3-1.9c-1.1-0.3-2.2-0.8-2.4-2.3c9.5,1,20.3-0.1,25.2-1.6c-2.6-0.2-4.9-0.3-7.1-0.6
			c-4.1-0.6-8.2-1.2-12.3-2c-1.2-0.2-2.5-0.6-3.6-2c1.4,0.1,2.5,0.2,3.5,0.2c3.5,0,7,0.1,10.5-0.1c2.8-0.1,5.5-0.9,8-2.1
			c1.7-0.8,1.9-1.6,0.7-3c-0.7-0.8-1.7-1.5-2.6-2.2c-0.4-0.3-0.8-0.6-1.3-1.1c1.2-0.4,2.1-0.7,3-1.1c0.8-0.3,1.8-0.5,1.9-1.7
			s-0.3-2.4-1.4-2.9c-1.1-0.6-2.3-0.9-3.4-1.1c-2-0.3-4-0.3-6.1-0.5c-3.3-0.3-6.6-0.8-9.4-2.8c4.4,0.7,8.7,2,13.2,0.8
			c4.4-1.2,8.4-3,11.4-6.6c-0.3-0.1-0.4-0.3-0.6-0.2c-0.5,0.1-0.9,0.2-1.4,0.3c-6.2,1.7-12.5,2.1-18.8,0.5c-3.3-0.8-6.6-1.8-9.8-2.9
			c-5.9-1.9-11.9-2.5-18-1c-5.5,1.3-10.8,0.7-15.9-1.8c-1.3-0.6-2.7-1.2-4-1.7c-1.1-0.4-2.3-0.8-3.5-1.1c-1.1-0.3-2.2-0.2-3.3,0.7
			c2.1,1,4,1.9,6.1,2.8c-2,2.7,0.4,3.6,1.5,5c-2,4.2-0.6,8,1.1,11.9c-2.6,2.3-0.9,4.9-0.3,7.5c-2.3,2.1-2.4,4.4-0.4,6.8
			c-2.5,1.7-4.9,3.2-3.9,6.7c-2.5,0.9-3.7,2.6-3.4,5.2c-2,1.3-3,3.1-3.7,5.2c-0.7,2-1,4.1-1.7,6.1c-3.5,9.8-2.9,19.7,0.1,29.5
			c3.1,10,8.5,18.6,15.3,26.4c3.8,4.4,7.8,8.7,12.7,12.1c2.1,1.4,4,3.3,5.8,5.2c9.3,9.9,12.9,21.8,12.1,35.1
			c-0.3,4.8-2.5,8.9-6.1,12.1c-3.8,3.3-7.4,2.7-9.9-1.6c-0.3-0.6-0.6-1.1-0.9-1.7c-1.6-3.9,0.3-6.9,4.5-7.1c1.3-0.1,2.5,0,3.8,0
			c-2.9-3.7-8.4-4-11.6-1.7c-4.7,3.3-7.1,8.1-7.3,13.7c-0.2,4.7,3.9,9.3,8.7,10.3c-1.7-1.7-3.5-3.2-3.9-5.8c0.6,0.4,0.9,0.6,1.2,0.9
			c6.7,5.2,15.4,4.9,21.6-0.9c2.7-2.5,4.5-5.6,5.8-8.9c2-5.1,2.7-10.5,3-16c0.3-5-0.3-9.8-2.2-14.3c-2.3-5.5-4.7-11.1-7.4-16.4
			c-3.5-7.1-7.8-13.7-12.4-20.1c-1.2-1.6-1.4-3-0.5-4.7c0.1-0.2,0.2-0.5,0.4-0.8c-4.1-0.9-8.1-1.5-11.7-4.2c3.8-1.2,7.2-2.1,10-4.6
			c-0.8-0.2-1.6-0.1-2.3-0.2c-2.3-0.3-4.7-0.6-6.9-1.2c-1.2-0.3-2.8-0.8-2.8-2.3c0-1.6,1.4-2.2,2.8-2.7c1-0.4,2-0.6,3-0.9
			c1.5-0.5,2.9-1.1,4.3-1.7c0.5-0.2,1-0.7,1.6-1.2c-9.6-1.3-16.4-3.6-18.8-6.4c3.4-0.1,6.8,0,10.1-2c-4-1.8-8.1-2.8-11.6-5.7
			c5.2-3.3,10.2-1.1,15.2-0.5c-4.2-5.4-10.9-5.7-16.9-7.8c2.4-2.3,5.4-1.7,8.3-2.4c-2.9-2.8-6.5-3.2-10-4.6c1.6-1.4,3.3-1.4,4.8-1.2
			c3.8,0.6,7.6,1.5,11.4,2.3c1.8,0.4,3.5,1.1,5.3,1.6c-5-6.3-11.7-9.3-19.6-10.5c1-1.7,2.4-1.8,3.7-1.9c1.5-0.1,2.9,0.1,4.4,0.2
			c1.3,0.1,2.6,0.3,3.8,0.5c-0.9-0.8-1.9-1.2-2.8-1.7c-1.3-0.8-2.7-1.6-3.9-2.5c-0.9-0.7-1.6-1.7-0.9-3c2.3,0.7,4.5,1.4,6.8,1.9
			c3.3,0.7,4.7,0.6,6.9,0c-0.9-0.2-1.6-0.4-2.2-0.6c-2.1-0.7-4.3-1.5-6.4-2.3c-0.9-0.4-2-0.9-1.9-2.4c4,0.3,8,0.7,12,0.1
			c-1.2-0.5-2.5-0.8-3.7-1.2c-2.3-0.9-4.5-1.8-6.7-2.9c-1-0.5-1.9-1.4-2-2.9c1.6,0.3,2.9,0.6,4.3,0.8c1.4,0.2,2.7,0.3,4.1-0.1
			c-3-1.3-5.9-2.6-7.8-5.8c2.2,0.5,4.1,1,6.1,1.4c0.1-0.1,0.1-0.3,0.2-0.4c-2.6-1.6-5.4-3.1-6.6-6.6c1.3,0.5,2.3,0.8,3.3,1.1
			c1,0.3,2,0.6,3,0.9s2.1,0.5,3.1,0.7c0.9,0.1,1.9,0.2,2.8,0.3c-2.2-1.1-4.4-1.8-6.6-2.7c-2.1-0.8-4.4-1.4-6.1-3.8
			c5.2,0.1,10.1,0.9,15,0.3c-1-0.3-2-0.5-3-0.8c-2.2-0.6-4.4-1.1-6.5-2c-2-0.9-2-1.8-0.1-3.3c2.6,1.2,5.3,1.2,8.1,0.6
			c2.1-0.5,4.1-1,6.2-1.3c1.3-0.2,2.8-0.4,4.1,0c2.8,0.9,5.6,2.1,8.4,3.2c-0.4,1.7-0.8,3-0.9,4.3c-0.2,1.5-0.3,3.1,0,4.5
			c0.2,1.2,0.9,2.4,1.2,3.1c-0.3,2.3-0.8,4.1-0.7,5.9s0.6,3.6,1,5.6c-3.3,3.2-3.3,7.2-2.2,11.5c-3.3,2.1-3.5,5-2.1,8
			c-0.9,1.3-1.8,2.4-2.4,3.6c-1.2,2.1-1,2.7,1,4.2c0.1,0.1,0.1,0.3,0.1,0.3c-1.2,1.9-2.4,3.6-3.3,5.4c-1,1.9-0.5,2.9,1.4,4
			c0.2,0.1,0.4,0.3,0.8,0.5c-1.6,1.3-2.9,2.7-2,4.5c0.7,1.5,2,2.8,3.1,4.2c-1.7,1.6-2.3,3.3-1.5,5.4c0.3,0.9,1,1.7,1.4,2.5
			c0.3,0.6,0.8,1.3,0.7,1.9c-0.3,3.3,0.8,6.3,2.7,9c2.4,3.5,4.9,6.9,7.8,10c6.3,6.7,13.1,12.9,21,17.7c3,1.9,5.8,4.2,8.5,6.5
			c3.5,3.1,6.2,6.9,7.7,11.4c0.8,2.3,1.2,4.7,0.6,7.2c-1.1,4.4-2.2,8.8-2.9,13.3c-1.2,7.2-1.6,14.4-0.2,21.6
			c0.9,5.2,2.9,10,6.7,13.9c3.9,4.1,8.7,5.8,14.3,5.2c3.8-0.4,6.5-2.2,8.4-5.5c2.4-4.4,1.9-8.7-0.8-12.7
			C300.7,444.5,298,443.3,294.2,443.9z M200.1,122.1c-0.5,0-0.9,0-1.2,0.1c-4.3,1.1-8.4,2.7-12,5.2c-7.3,5-10.6,11.8-10.1,20.6
			c0.3,3.9,1.8,7,4.8,9.5c2.5,2.1,5.4,3.5,8.5,4.6c6.2,2.2,12.6,3.1,19.1,3.6c6.6,0.5,13.2,0.6,19.7-0.6c6.5-1.2,12.9-2.6,19.4-3.7
			c4.3-0.7,8.7-1.4,13-1.7c3.7-0.2,7.9,2.9,9,6.1c-5.7-1.7-7.6-1.9-13.9-0.9c-8,1.2-15.9,2.6-23.8,3.8c-8.9,1.3-17.7,2.3-26.7,2
			c-5.6-0.2-11.2-0.9-16.5-3.1c-4.9-2.1-8.7-5.3-10.7-10.4c-0.1-0.3-0.3-0.5-0.5-0.9c-3.3,1-6.2,2.5-8.6,4.9
			c-4.2,4.2-5.2,9.3-3.3,14.8c2,5.7,6.2,9.2,11.7,11.3c4.8,1.8,9.8,2.4,14.8,2.5c10.7,0.3,21.2-1.5,31.8-3.2c4.7-0.8,9.5-1.4,14.2-2
			c1.3-0.2,2.7-0.3,4.2,0.6c-2.8,0.7-5.4,1.3-8,2c-8.6,2.2-17.1,4.6-25.7,6.7c-5.6,1.4-11.3,2.3-17.1,2.1
			c-6.8-0.1-12.9-1.8-17.1-7.7c0,0-0.1,0-0.4-0.1c-2.1,1.7-3.2,4-3.3,6.9c-0.2,6.8,5.3,15.4,11.8,18c3.1,1.3,6.4,1.9,9.7,2.1
			c6.3,0.3,12.3-0.8,18.2-2.7c0.6-0.2,1.3-0.4,2.4-0.7c-3.1,3.1-6.4,4.8-9.7,6.7c1,0,2,0,2.8-0.4c1.8-0.9,3.6-2,5.4-2.8
			c1.7-0.8,3.4-1.5,5.2-1.9c2.1-0.4,2.8,0.6,2,2.5c-0.5,1.2-1.4,2.4-2.2,3.5c-0.5,0.6-1.1,1.2-1.8,2c2.2-0.1,3.9-0.8,5.4-2
			c2.3-1.8,3-4.5,3.3-7.3c5.1-1.2,9.1-4.1,12.8-7.5c3.2-2.9,6.9-4.7,11.1-5.2c2.7-0.3,5.4-0.3,8.2-0.4c-0.5-0.3-0.8-0.6-1.2-0.8
			c-3.5-1.7-7.2-2-11-1.4c-5.3,0.8-10.1,3.1-14.6,5.8c-1.9,1.2-4,2.2-6.2,2.8c-6.7,2.1-13.6,1.8-20.6,1.1c-0.4,0-0.7-0.3-1.1-0.4
			c4.6-0.8,9.1-1.3,13.5-2.3c7.5-1.6,14.7-4.1,21.1-8.5c4.3-3,9.1-5,14.3-5.9c4.6-0.8,8.8-0.3,11.7,4c0.1,0.1,0.3,0.1,0.5,0.2
			c0.5-2.5-0.3-4.6-2-6.4c-2.2-2.4-5.1-3.8-8.1-4.8c-7.1-2.3-14.3-2.8-21.7-2.3c-1.2,0.1-2.4,0.2-3.5,0.3c9.7-2.7,19.5-4.5,29.6-3.8
			c3.1,0.2,6.1,0.9,8.9,2.4c2.9,1.6,4.7,3.9,5.1,7.3c0.1,0.5,0.2,1,0.3,1.6c2.9-4.4,2.9-10.8-2.3-14.9c-1.5-1.1-3.1-2-4.7-3
			c-0.4-0.3-0.8-0.6-1.6-1.1c5.9-0.9,9.8,2.3,14.4,5c-0.3-5.7-1.7-10.5-5.1-14.7c4.2,1.8,6.7,5.1,8.1,9.4c2.4-3.5,3-8.1,2-12.5
			c-0.8-3.6-2.9-6-6.3-7.2c-2.6-1-5.4-1.7-8.2-2c-8-0.9-15.9,0.1-23.8,1.7c-6.5,1.3-13,2.9-19.7,2.8c-7.7-0.1-15.3-0.7-22.5-3.6
			c-4.1-1.7-7.8-4-10.7-7.4c-0.3-0.4-0.5-0.8-0.9-1.7c12.3,7.6,25.2,8.5,38.8,7c-0.2-0.4-0.3-0.5-0.3-0.5c-0.4-0.1-0.8-0.2-1.2-0.3
			c-4.5-0.7-8.9-1.7-13.2-3.5c-3.5-1.4-6.8-3.2-9.4-6c-3-3.1-4.6-6.9-4.3-11.3C200.2,123.6,200.1,122.9,200.1,122.1z M359.9,104.4
			c-0.4-0.8-0.7-1.6-1.2-2.3c-1.8-2.2-3.4-4.6-5.5-6.5c-4.4-4.2-9.6-7.3-15.2-9.6c-19-8-38.8-10.7-59.2-7.8
			c-5.1,0.7-10,2.2-14.5,4.8c-0.6,0.3-1.1,0.8-2,1.5c4-0.6,7.5-1.1,10.9-1.6c0,0.2,0.1,0.3,0.1,0.5c-4.6,1.4-9.2,2.7-14.3,4.2
			c0.8-1.1,1.2-1.7,1.8-2.4c-0.4,0-0.7-0.1-0.9,0c-5.7,1.6-11.5,3-17.1,4.8c-4.2,1.3-8.1,3.3-11.7,5.9c-2.2,1.6-4.1,3.4-5.4,5.9
			c-2.3,4.3-1.7,8.5,2,11.7c1.6,1.4,3.5,2.7,5.5,3.5c4,1.6,8,3.2,12.2,4.2c8.8,2.3,17.7,4.2,26.5,6.5c6.5,1.6,12.8,3.7,18.6,7
			c3.9,2.3,7.3,5.1,9.4,9.3c0.1,0.2,0.3,0.2,0.6,0.4c2.5-4.2,0.9-8.2-0.6-12.3c2.6,0.3,4.6,1.2,6.5,2.5c2,1.4,3.1,3.4,4.1,5.9
			c2.6-3.5,2.7-7.3,2.4-11.3c3.3,1,5.7,2.9,7.7,5.6c2.7-4.7,0.6-8.5-1.6-12.5c2.2,0.2,3.8,1.2,5.3,2.2c2.7,1.8,4.2,4.4,5,7.7
			c1.3-1,1.7-2.3,2-3.5c0.6-2.5,0.2-5-0.3-7.5c-0.1-0.7-0.6-1.5-0.2-2.3c3.8,1.4,4.4,2.5,5.9,9.7c2.2-2,4-4.2,4.6-7.1
			c0.9-3.9-1-7-3.3-9.9c5.2,2.1,9.3,5,9,11.5c2-1.7,2.7-3.1,3.2-5.6c0.7-3.7,0.3-7.5-0.3-11.2c-0.3-1.8-0.6-3.6-1-5.5
			C353.4,99.9,356.6,102,359.9,104.4z M435.6,116.6c0.1,1.5,0.2,2.7,0.4,3.9c0.8,6,2.8,11.4,7,15.8c1,1,1.4,2.1,1.8,3.3
			c1.2,4,2.4,7.9,3.9,11.8c0.5,1.5,1.5,2.9,2.7,4c0.9,0.8,1.3,1.5,1.2,2.7c0,1.1,0,2.3,0.1,3.4c0.4,5.6,0.9,11.2,2.8,16.5
			c1.3,3.6,3,6.9,6.6,8.5c0.3,4.3,0.4,8.5,0.8,12.6c0.4,4.3,1.1,8.6,3.2,12.4c1.5,2.7,2,5.5,2.2,8.4c0.6,7.5-0.1,14.9-0.9,22.4
			c-0.3,2.7-0.8,5.3,0,8c1.1,4,4.5,5,7.7,2.3c0.2-0.2,0.4-0.5,0.7-0.7c1.8-1.9,4-3,6.6-3.3c1-0.1,2-0.3,3.2-0.5
			c-1.2-2.6-3.3-3-5.6-3.1c-2.4-0.1-2.7-0.2-3.5-2.5c-0.3-0.8-0.7-1.7-0.7-2.6c-0.2-3.3-0.4-6.6-0.3-10c0.1-3.6,0.6-7.1,0.6-10.7
			c0-4.3-0.9-8.6-3.2-12.4c-2.7-4.5-3.8-9.3-3.9-14.4c-0.1-7.6,2.1-14.6,5.4-21.3c0.3-0.6,0.6-1.2,1-2.3c-4.8,1.5-8.1,4-10.4,8.5
			c-6.7-13.8-7.2-27.6-3.5-41.8c-3.9,2.5-6,6.1-7.3,10.4c-0.5-0.7-0.8-1.4-1-2.1c-1.2-3.6-1.9-7.4-2-11.2
			c-0.2-6.7,0.8-13.1,2.7-19.5c0.2-0.6,0.3-1.3,0.6-2.4c-5.6,3.7-7.6,9.1-9.8,14.5c-3.1-10.7,0.7-20.2,4.7-29.7
			c-6.6,3.2-10.8,8.6-13.7,15.2c-2.3-14.1,3.7-24.8,13.8-33.8c-0.8,0-1.6,0.1-2.3,0.3c-3.6,1.1-6.6,3-9.3,5.6
			c-3.6,3.5-6,7.9-7.6,12.6c-0.2,0.7-0.5,1.4-0.8,2.1c-3-12.9-0.6-24.3,9.6-33.9c-5.8,0.7-9.2,4.1-12.8,7.6
			c-1.1-3.1-1.4-7.1-0.8-10.8c1.3-8,4.7-15.2,9.1-21.9c0.4-0.6,0.8-1.3,1.2-1.9c-0.1-0.1-0.2-0.3-0.4-0.4c-1.4,0.8-2.8,1.5-4,2.5
			c-4.9,4.1-8.2,9.4-9.7,15.5s-2.1,12.3-2.8,18.5c-0.7,6.1-0.4,12.2,1,18.2c1.3,5.5,3.3,10.5,8.3,13.9c0.5,0.4,0.8,1.2,1,1.8
			c0.8,2.1,1.3,4.2,2.2,6.2C432.2,114.5,433.3,116.1,435.6,116.6z M126.1,374.1c1.7-0.1,2.7,0.8,3.7,1.6c3,2.4,5.9,4.8,8.8,7.3
			c10.6,9,21.9,17.2,34.4,23.5c14.1,7.1,29,11.4,44.8,12.3c1.2,0.1,2.5,0,3.7,0c-0.6-0.5-1.3-0.7-2-0.9c-6-1.8-12-3.5-18-5.4
			c-9.8-3.1-19.4-6.6-28.6-11.2c-0.8-0.4-1.5-0.8-2.2-1.2c0.6-0.4,1.1-0.5,1.6-0.5c7.5-0.4,14.9-0.7,22.4-1.3
			c4.5-0.3,9-1.1,13.4-2.6c1.3-0.4,2.4-1.1,3.9-1.8c-0.6-0.2-0.7-0.3-0.9-0.3c-10.1,0.9-20.3,1.1-30.5,0.4c-8.5-0.6-17-1.5-25.3-3.9
			c-1.1-0.3-2.3-0.8-3.3-1.6c-3.6-2.7-7.1-5.4-10.5-8.3c-4-3.4-7.7-7.2-10.5-11.8c-0.6-1.1-1-2.1-0.6-3.4c0.5-1.5,0.2-1.9-1.3-2.7
			c-2.7,3.3-3,3.5-4.9,3.7c0.5-1,1-1.9,1.4-2.9c0.4-1.2,0.8-2.5,0.9-3.8c0.1-2.1-1.1-3.1-3.3-3.3c0.1,2.4-0.4,4.5-2.2,6.2
			c-5.6,5.2-11.8,9.7-18.9,12.8c-1.7,0.7-3.5,1.3-5.2,1.9c-1.3-1.7-0.4-3.1-0.2-4.9c-2.1,2-3.7,4-4.5,6.6c-0.4,1.5-0.2,2.1,1.1,2.8
			c1,0.5,2.1,0.9,3.2,1.2c2.5,0.6,4.4,1.8,6.3,3.6c8.8,8.3,17.6,16.5,26.4,24.7c0.4,0.3,0.7,0.7,1.1,1c0.3,0.3,0.7,0.6,1.1,0.8
			c-9.4-10.5-19.6-20.2-28.5-31c0.7-1.9,2.1-2.6,3.6-2.9c5-1.1,9.9-1.1,14,2.7c3.6,3.4,7.2,6.8,10.7,10.3
			c6.3,6.3,12.7,12.7,19.7,18.2c11.3,9,23.7,15.7,37.9,18.8c0.6,0.1,1.2,0.1,1.8,0.2c-1.7-1.2-3.6-2-5.4-2.9
			c-19.1-9.5-36.3-21.7-50.3-38c-2.9-3.4-5.3-7.2-7.9-10.8C126.2,376.5,125.6,375.5,126.1,374.1z M434.1,196.2c-0.1,0-0.2,0-0.4,0.1
			c-0.1,0.2-0.2,0.4-0.2,0.7c-0.4,7.7-1.8,15.2-3.6,22.6c-2.4,9.5-4.8,18.9-7.3,28.3c-1.4,5.2-1.5,10.4,0.1,15.6
			c2.1,7.1,4,14.2,6.4,21.2c4.7,14.2,9.6,28.3,14.6,42.4c2.1,6.1,3.1,12.3,3.1,18.7c0,8.9,0.1,17.9,0,26.8c0,2.3,0.9,3.9,2.7,5.1
			c1,0.7,2.1,1.3,3.2,1.7c7,2.6,13.6,1.6,19.7-2.6c0.4-0.3,0.7-0.7,1.3-1.3c-0.8,0.1-1.1,0.2-1.4,0.2c-5.3,1-10.5,0.8-15.7-0.8
			c-3.2-1-3.7-1.7-3.8-5.1c0-4.6,0-9.1,0-13.7c0-9.4-1.3-18.6-4.4-27.6c-5.6-16-11.2-32.1-16.8-48.1c-0.3-0.7-0.5-1.5-0.7-2.2
			c0.2-0.1,0.3-0.1,0.5-0.2c4.4,8.4,8.8,16.8,13.2,25.2c4.4,8.4,8.4,17,12.1,25.8c0-1.9-0.2-3.8-0.8-5.5c-2.4-7.3-4.7-14.5-7.3-21.7
			c-3.8-10.7-7.8-21.4-11.6-32.1c-2.2-6.1-3.2-12.4-2.9-18.9c0.5-10.2,1-20.5,1.4-30.7c0.3-6.5,0.5-13-0.3-19.5
			C434.8,199.1,434.4,197.7,434.1,196.2z M221,103.3c-6.7,1.4-12.3,3.6-16,9.3c-0.5,0.7-0.9,1.6-1.2,2.4c-2.2,5.5-1.1,10.5,3.4,14.3
			c1.8,1.6,3.9,3,6.1,4c3.9,1.7,8,3.3,12.1,4.4c11.8,3.1,24,4.3,36.2,4.5c3,0,6,0.2,9,0.5c3.2,0.3,6.2,1.2,9,2.9
			c3.4,2.1,5.5,5,5.8,9.1c0,0.5,0.1,1,0.2,1.9c1.9-1.8,3.2-3.4,4.1-5.5c1.4-3.3,1-6.3-1.6-8.7c-1.6-1.6-3.5-2.9-5.5-3.9
			c-3.7-2-7.8-3.2-12-4c-9.1-1.9-18.3-3.8-27.1-6.8c-5.9-2-11.7-4.3-17-7.9c-2.3-1.6-4.4-3.4-5.8-5.8c-1.7-2.8-2-5.8-0.5-8.8
			C220.4,104.6,220.6,104.2,221,103.3z M263.9,254.6c-1,0.2-1.8,0.4-2.6,0.5c-4,0.4-7.9,0.9-11.9,0.9c-5.3,0-10.5-1.2-15.4-3.2
			c-4.4-1.8-8.8-1.9-13.4-1.2c-2.8,0.4-5.7,0.6-8.5,0.8c-2.7,0.2-5.1-0.6-7.3-2.3c-1.2-1-2.4-1.9-3.7-2.8c-2-1.5-4.2-2.4-6.7-2.5
			c-1.9,0-3.9-0.2-5.8-0.3c-4.3-0.3-8.4-1.3-11.5-4.5c-0.1-0.1-0.4-0.1-0.6-0.2c-1.5,2.3-1.5,4.1,0,6.1c1.7,2.2,3.8,3.5,6.7,3.2
			c1.3-0.2,2.6-0.3,3.9-0.5c1.8-0.2,3.5-0.6,5.3-0.7c0.9,0,2,0.1,2.8,0.6c3.3,1.8,6.2,4.3,9,6.9c-1.5-0.6-2.9-1.3-4.3-2
			c-3.1-1.7-6.2-2.1-9.7-1.3c-3,0.8-6.1,1.1-9.2,0.8c-0.4,0-0.8,0.1-0.8,0.1c-0.4,1.9-0.9,3.5-1.2,5.1c-0.1,0.6-0.1,1.3,0.2,1.9
			c0.8,1.8,0.2,3.3-0.7,4.8c-0.8,1.2-1.7,2.2-2.4,3.4c-0.6,1.1-0.9,2.4-1.3,3.6c-0.3,1-0.4,2-0.8,3c-1,2.5-2.1,4.9-2.2,7.7
			c0,1.3,0.1,2.6,1.1,3.5c4.7-0.7,4.7-0.7,6.1,0.2c-0.6,0.5-1.3,1-1.9,1.5c-1.5,1.3-2.8,2.8-3.5,4.6c-0.5,1.5-0.9,3.1-0.1,4.5
			c1.9,3.3,3.9,6.6,5.9,9.8c0.6,1,1.5,1.9,2.8,2.3c1.8-3,4.9-5.2,5.6-8.9c-2-2.8-4.9-3.6-8.4-2.9c0.8-0.7,1.7-1.1,2.5-1.3
			c1.9-0.4,3.9-0.6,5.8-0.9c0.9-0.1,1.7-0.3,2.2-1.4c-3.7-2.9-7.8-1.1-11.9-1.1c0.9-2.2,2.5-3.2,4.4-3.8c2.6-0.9,5.3-0.6,8-0.3
			c0.9,0.1,1.7,0.3,2.7,0.4c-0.3-1.9-1.5-2.5-2.8-3.1c-3.3-1.5-6.8-2.1-10.4-2.4c-0.7-0.1-1.3-0.2-1.9-0.2c0-0.2,0-0.4,0.1-0.6
			c4.5-2.2,9.1-0.2,14.2,0.5c-1.9-2.6-4.4-2.8-6.7-3.3c-2.4-0.5-4.9-0.3-7.2-1.3c1.2-0.5,2.5-0.8,3.7-0.8c2.3-0.1,4.6,0,6.8-0.1
			c1.1,0,2.2-0.3,3.3-0.5c-0.2-2-1.3-3.1-2.7-3.8c-1.8-0.9-3.7-1.6-5.6-2.4c-0.9-0.4-1.7-0.7-2.9-1.3c2.8-1.3,5.6-0.1,8-1.4
			c-0.3-1.8-1.5-2.5-2.6-3.3c-1.2-0.9-2.4-1.6-3.5-2.6c-1-0.9-1-1.9,0-2.8c0.9-0.8,1.9-1.5,3.1-1.9c3.9-1.2,7.9-1.8,12-0.6
			c1.6,0.5,3.1,0.9,4.7,1.2c9.6,2.3,8,2.5,17.3-0.4c4.7-1.4,9.2-1.6,13.9-0.5c4.6,1.1,9.2,2,13.8,2.9c4.4,0.8,8.8,0.2,12.8-1.9
			C261.8,257.4,263.2,256.6,263.9,254.6z M401.8,291c0.2,1,0.2,1.5,0.3,2c0.7,3.6,1.4,7.2,1.2,10.9c-0.2,2.7-0.6,3.1-3.3,3
			c-6-0.2-11.8-1.1-17.6-2.5c-16.1-3.9-30.9-11-44.7-20.1c-0.7-0.5-1.5-0.9-2.2-1.4c0.3,1.7,1.2,3.1,2.5,4.1
			c2.8,2.3,5.5,4.6,8.5,6.5c6.4,4.2,13.4,7.3,20.5,10.1c11.4,4.5,22.9,8.8,35.2,10.6c0.3,0,0.6,0.2,0.8,0.4
			c-1.5,0.8-3.1,1.2-4.6,1.4c-5.2,0.5-10.2-0.4-15.2-1.8c-14.4-3.9-27.8-10-40.7-17.3c-10.2-5.8-9.4-4.9-15.8-16.2
			c-0.4-0.7-0.8-1.5-1.2-2.2c0.4,4.6,1.6,9,3.3,13.3c1.2,3.1,3.1,5.5,5.9,7.2c1.7,1.1,3.4,2.2,5.2,3.3c8,4.6,16.3,8.5,24.8,12
			c10.4,4.3,20.8,8.3,31.8,10.7c2.8,0.6,5.8,0.9,8.7,0.9c2.7,0,3.8-1.3,4-4c0.1-1.6-0.1-3.2-0.3-4.8c-0.3-2.1-0.9-4.1-0.3-6.2
			c0.3-0.9,0-1.9-0.1-2.9c-0.7-5.7-3.1-10.7-5.7-15.7C402.6,291.8,402.3,291.6,401.8,291z M253.3,235c-1.2-0.3-1.9-0.5-2.6-0.6
			c-4.1-0.6-7.8-1.9-11.4-4.1c-1.4-0.9-3.1-1.5-4.7-1.8c-5.2-1.2-10.4-0.3-15.3,1.4c-3.2,1.1-6.5,1.5-9.8,1.6
			c-9.7,0.1-18.8-2.3-27.4-6.8c-0.8-0.4-1.6-0.8-2.3-1.1c-0.5,0.4-0.9,0.7-1.2,1c-1.5,1.7-1.4,2.9,0.5,4.2c0.8,0.5,1.7,1,2.6,1.3
			c3.1,0.9,6.3,1.8,9.4,2.4c4.5,0.9,9,1.6,13.4,2.4c1.3,0.2,2.3,0.9,3.3,1.8c1.1,1.1,2.4,2,3.8,2.5c2.4,0.9,5,1.5,7.5,2
			c2.2,0.4,4.4,0.6,6.6,0.8c-4.9,1.2-9.8,1.5-14.6,0c-0.7-0.2-1.3-0.6-1.9-1.1c-5-3.9-10.9-5.1-17-4.9c-5.4,0.2-10-0.8-13.2-5.5
			c-3.5,2.2-3.7,5.4-0.5,7.6c2.3,1.6,5,2.3,7.8,2.6c2.7,0.2,5.4,0.3,8,0.5c3,0.3,5.8,1.2,8.2,3.3c1.2,1,2.7,2,4.2,2.4
			c2.8,0.7,5.7,1.2,8.6,1.5c3.7,0.4,7.3-0.7,10.9-1.2c3.9-0.5,7.8-0.9,11.6,0.4c5.5,2,11.1,2.9,17,2.7c6.5-0.3,12.6-2,18.1-5.7
			c0.5-0.4,1-0.8,1.5-1.3c-6.3,1-12.6,1.6-18.8,0.6c-4.5-0.7-8.9-1.9-12.6-4.8c-5.8-4.6-11.9-5.4-18.7-2.6
			c-4.4,1.8-8.5,0.5-12.8-1.5c0.5-0.2,0.6-0.4,0.8-0.4c5.6,0.3,11-0.6,16.3-2.3c4.5-1.4,8.9-1.1,13.1,1.7
			C245.1,236.6,249,236.5,253.3,235z M318.1,252.4c0.1,0.2,0.3,0.4,0.4,0.6c9.4,9.1,19.8,16.9,31.8,22.4c8.8,4,17.9,6.4,27.7,5.8
			c1-0.1,1.9,0.1,2.9,0.3c6.4,1.2,12.8,2.5,19.2,3.5c3.2,0.5,6.5,0.6,9.7,0.7c2.2,0,2.5-0.6,2.4-2.7c0-0.7-0.1-1.5-0.2-2.2
			c-1-4.5-2-9.1-3-13.6c-0.1-0.4-0.4-0.7-0.7-1.4c-0.1,1-0.1,1.6-0.2,2.1c-0.5,2.7-0.9,5.5-1.6,8.1c-0.7,2.5-1.4,2.9-3.9,2.6
			c-3.3-0.4-6.6-0.8-9.9-1.5c-10.7-2.4-20.6-6.9-30.3-12.1c-15.8-8.4-30.6-18.5-44.8-29.5c-0.9-0.7-1.8-1.4-2.8-2.1
			c6.4,9.2,14.5,16.6,23.3,23.2s18.3,12.2,28,17.2c-0.7,0.1-1.4,0.1-2-0.1C347.7,269.2,333.2,260.2,318.1,252.4z M391.1,367.8
			c0.9,2,1.6,3.5,2.2,5.1c4.3,10.4,7,21.1,6.2,32.5c-0.6,8.3-3.3,15.9-8.6,22.4c-0.3,0.3-0.5,0.7-0.8,1c8.4-5.5,12.6-13.6,14.5-23.8
			c0.4,0.9,0.6,1.2,0.7,1.5c1.6,5.8,3.4,11.5,4.7,17.4c1.1,5.1,1.7,10.3,0.6,15.5c-0.5,2.3-1.4,4.5-2.1,6.7c3.6-0.5,6.4-2.6,8.5-6.7
			c0.5-1,0.9-2.1,0.6-3.3c-0.5-2.1-0.8-4.3-1.4-6.4c-3-9.3-6.1-18.5-9.2-27.8c-2.7-8.2-5.8-16.3-6.8-25.1c-1.3-12.1-0.9-24,1.5-35.9
			c0.3-1.3,0.5-2.7,0.8-4.2c-3.5-0.7-6.9-1.4-10.2-2.1c-0.4,4.5-0.7,8.7-1.2,12.9c-0.6,4.6-1.6,9.1-3.8,13.3
			c-0.7,1.3-1.3,2.6-2.9,3.5c-5.5-3.4-8.6-8.9-12.9-14.1c0.2,1,0.3,1.4,0.4,1.8c2.3,5.1,4.5,10.2,7,15.3c0.9,1.8,2.1,3.5,3.3,5.1
			c0.8,1,1.9,1.7,2.8,2.6C387.8,373.2,389.1,370.5,391.1,367.8z M336.2,140.6c-1.4,0.3-2.3,1-2.9,2c-2.4,3.9-3.3,8-1.1,12.3
			c0.8,1.6,1.8,3.1,2.8,4.6c1.8,2.6,2.6,5.4,2.5,8.5c-0.1,2.1,0,4.2,0,6.8c2.3-3.1,3.2-6.1,3.9-9.4c1.6,1.5,2.5,3.2,3.2,5
			c1.6,3.8,1.9,7.6-0.5,11.2c-1.2,1.8-2.1,3.7-3.5,5.3c-1.3,1.5-2.9,2.8-4.6,4c-0.7,0.5-1.7,0.6-3.2,1.1c1.5-2.8,2-5.2,1.3-7.7
			c-0.3,0.1-0.4,0.1-0.4,0.1c-0.1,0.2-0.3,0.4-0.4,0.6c-1.9,4.3-4.9,7.6-8.7,10.3c-0.5,0.4-1.1,0.7-1.5,1.2
			c-3.1,3.7-5.6,7.8-6.7,12.6c-0.2,0.9,0,1.9,0,3c0.3-0.2,0.4-0.2,0.4-0.3c0.3-0.4,0.5-0.8,0.8-1.2c3.8-6.9,9.5-11.7,17-14.3
			c2.6-0.9,5.3-1.7,7.9-2.3c3.3-0.7,5.8-2.4,7.7-5.1c4.5-6.3,7.9-13.1,10.4-20.3c0.6-1.8,0.7-3.6,0.3-5.5c-1.3-6-2.5-12.1-3.9-18.1
			c-0.9-3.8-0.8-7.4,1-10.9c1-2,1.7-4,2.5-6.1c1-2.9,2-5.8,2.9-8.8c0.4-1.3,0.6-2.7,0.4-4.4c-2.4,4.2-4.7,8.2-7,12.1
			c-0.5,0.8-0.9,1.7-1.4,2.6c-2.3,4.5-3,9.2-1.7,14.2c1.4,5.4,2.7,10.7,3.8,16.1c0.4,2.1,0.7,4.5,0.2,6.5c-2,7.5-5.3,14.5-10.4,20.5
			c-0.7,0.8-1.5,1.5-2.3,2.3c0.1-0.9,0.5-1.6,0.8-2.3c2-3.7,4.1-7.4,6.1-11.1c1.2-2.3,1.2-4.6,0.7-7.1c-0.7-3.4-2-6.6-3.7-9.5
			c-2.4-4.3-4-8.7-4-13.6c0-2,0.2-4,0.3-6c0-0.5,0.2-1,0.4-1.9c-0.6,0.5-0.8,0.7-1,0.9c-3.1,3.5-3.6,7.7-2.7,11.9
			c0.8,4,2.3,7.8,3.4,11.7c0.4,1.4,0.8,2.9,1.4,4.8c-0.7-0.5-0.9-0.6-1.1-0.7c-1.9-3.2-3.8-6.4-5.6-9.7
			C337.5,151.4,335,146.6,336.2,140.6z M85,204.5c-0.2-0.1-0.3-0.2-0.5-0.3c-0.5,1-1.1,1.9-1.4,3c-0.5,1.7-0.7,3.5-1.1,5.2
			c-0.4,2.1-0.7,4.2-1.4,6.2c-0.7,2-3.2,2.8-5.6,2.1c-2-0.6-2.5-1.5-2.1-4.2c1.9-11.9,8.2-20.7,18.6-26.5c7.1-3.9,14.7-6,22.7-6.9
			c0.1,0,0.2-0.2,0.3-0.3c-0.2-0.1-0.5-0.2-0.7-0.2c-0.1,0-0.2-0.1-0.2-0.1c0-0.1,0-0.1,0.1-0.3c1.3,0,2.6,0,4.1,0
			c-12.4-8.1-38.4-5.7-48,4.7c7.3-3.7,14.5-6,22.3-6.3c-1.1,0.5-2.2,0.9-3.3,1.2c-7.1,2.3-13.8,5.3-19.6,10.1
			c-4.6,3.8-8,8.5-9.5,14.4c-0.1,0.3-0.2,0.6-0.4,0.9c-0.1,0-0.3,0-0.4-0.1c0-1.9,0-3.9,0-5.8c-1.6,2.5-2.6,5.1-3,7.9
			c-0.2,1.4,0.1,2.5,0.8,3.7c3,4.6,7,7.7,12.5,8.6c2.7,0.4,5.1,1.5,7.5,2.9c1.5,0.9,3,1.9,4.5,2.9c0.6,0.4,1.3,0.7,1.9,1
			c1,0.4,1.6,0,1.7-1s0.2-1.9,0.1-2.9C84.7,217.6,83.4,211.1,85,204.5z M322.7,294.4c0.8-4.3-0.1-6.3-3.1-7.4c0,0.4-0.1,0.8-0.1,1.2
			c-0.1,4.7-1.5,9.2-3.8,13.2c-4.4,7.7-4,7.3-12.1,9.8c-0.9,0.3-1.8,0.6-3,1c2.9,1.1,5.5,1.5,8.1,1.3c2.8-0.2,5.2-1.3,6.7-3.8
			c1.7-2.8,3.4-5.6,5.1-8.3c0.3-0.5,0.7-1,1-1.5c0.3,1.1,0.2,2,0,3c-1,5.5-4,9.9-7.5,14c-1.1,1.4-2.3,2-4.2,1.9
			c-5.5-0.2-10.9,0.1-16.3,1.2c-4.3,0.8-8.5,2.1-12.3,4.5c-2.7,1.8-4.9,4-6,7.2c-0.3,0.9-0.3,1.9-0.5,3c3.1-1.1,5.8-2.3,8.6-2.9
			c5.5-1.2,11-2,16.5-3c5.8-1,11.5-1.9,17.3-2.7c1.5-0.2,2.7-1,3.8-2c4.9-4.7,7.3-10.6,9-17c1-3.7,0-6.6-2.4-9.4
			C326.4,295.9,324.8,294.8,322.7,294.4z M431.2,168.1c-0.7,4.1-0.4,7.7,0.2,11.2c0.5,2.5,1.5,5,2.3,7.4c0.7,1.9,1.7,3.7,2.3,5.6
			c2.8,8.7,3.8,17.8,4.8,26.8c1,9.6,2.5,19.2,5.4,28.4c2.2,7.2,5.1,14.1,9.8,20c2.1,2.6,4.4,5,7.4,6.6c0.5,0.3,1.1,0.4,2,0.8
			c-1.6-2.5-3.2-4.6-4.4-6.8c-9-15.8-11.8-33-11.2-51c0.1-3.6-0.4-7.3-0.9-10.9c-0.7-4.7-3.6-8.5-6.5-12.1c-4.4-5.6-6.8-11.8-5.9-19
			c0.1-0.6-0.1-1.4-0.4-1.8C434.7,171.7,433.1,170.1,431.2,168.1z M332.8,173.4c0.1-0.7,0.2-1,0.2-1.3c0.1-3.7-1.1-7-3.1-10.1
			c-2.1-3.2-3.4-6.6-3.8-10.4c-0.1-1.2-0.3-2.5-0.4-3.7c-3.5,6.3-2.5,13.1-2,20.3c-2.4-2.8-4-5.6-4.8-8.6c-0.9-3-1.3-6.2-2-9.6
			c-3.3,5.7-2.3,11.6-1.4,17.9c-1.6-1.9-3.1-3.5-4.2-5.2c-1.2-1.6-2.3-3.4-3-5.3c-0.7-1.9-0.7-4-1-6.4c-1.3,2.2-1.9,4.1-2.1,6.1
			c-0.1,2-0.2,4.1-0.1,6.1s0.5,3.9,0.8,5.9c-0.3,0-0.4,0.1-0.4,0c-0.3-0.2-0.5-0.4-0.8-0.6c-3.9-3.6-5.5-8.2-5.6-13.3
			c0-0.9,0-1.8-0.1-3.1c-3.9,3.3-5,7.5-6.4,11.8c-1.2-0.7-2.2-1.3-3.2-1.8c-1.7,7,3.4,13.6,11.8,14.3c-3.1-2.8-3.9-6-2.9-9.9
			c0.4,0.3,0.6,0.4,0.7,0.6c2.4,4.4,5.9,7.4,10.6,9.2c3.5,1.4,5.6,4.1,6.2,7.9c0.1,0.9,0.3,1.8,0.6,3c2.4-3.6,3-7.1,2.6-11
			c-0.3-2.6-0.3-5.2-0.4-7.8c0-0.5,0.2-1,0.3-1.5c0.2,0,0.3-0.1,0.5-0.1c1.2,1.8,2.5,3.6,3.4,5.5c0.9,2,1.6,4.1,2,6.2
			c0.4,2.1,0.3,4.2,0.4,6.8c3.4-5,4.8-10.1,5.1-15.6c0.2,0,0.3-0.1,0.5-0.1C331.2,170.8,331.9,171.9,332.8,173.4z M130.9,291.4
			c0,0,0.1,0,0.1-0.1c0.2-0.3,0.3-0.6,0.4-0.9c1.7-4.5,2.6-9,2.5-13.8c-0.2-8.7-4.1-15-11.6-19.3c-0.6-0.3-1.2-0.5-1.8-0.8
			c3.3,3.3,6.4,6.6,8.2,10.9c1.9,4.3,2.3,8.8,0.9,13.3c-0.4-0.8-0.6-1.5-0.7-2.3c-0.9-3.8-2.3-7.5-4.3-10.8c-8-13-24.3-17.8-36.4-16
			c-1.9,0.3-3.8,0.6-5.2,2.2c0.8,2.6,3.3,6.5,5.3,8.1c0.1-1,0.2-2.1,0.3-3.1c5.6-1,11-1.1,16.4,0.1c8.4,1.9,14.8,6.6,18.6,14.4
			c0.2,0.4,0.3,0.9,0.3,1.3c-1.2-1.1-2.4-2.2-3.7-3.3c-8.5-7.3-18.5-8.2-29-6.6c-0.5,0.1-1.2,0.7-1.3,1.2c-0.3,1.3-0.7,2.7,0,4.2
			c4.5-1.6,9-2.2,13.7-1.6s9,2.2,12.9,4.7c-0.3,0.1-0.5,0.2-0.8,0.1c-5.5-1.7-10.7-1.2-15.8,1.7c-2.7,1.6-5.5,1.2-8.2,0
			c-0.7-0.3-1.4-0.6-2-0.9c0.5,1.5,1.1,2.7,2,3.7c2,2.2,3.5,2.4,6.3,1c2.2-1.1,4.5-2.3,6.9-3c8.7-2.7,16.6,0.1,21.7,7.7
			C128.3,286,129.5,288.7,130.9,291.4z M341.6,354.9c0,0.2,0,0.4,0,0.6c-1.1,0-2.3,0-3.4,0c-7.9-0.1-15.7-1.6-23.5-2.7
			c-4.8-0.7-9.7-1.4-14.5-1.9c-2.9-0.3-4.4,0.7-5.5,3.4c-0.3,0.7-0.5,1.4-0.7,2.1c-0.9,2.1-2,2.6-4,1.7c-0.9-0.4-1.7-0.9-2.6-1.4
			c-1.1-0.7-2.1-1.5-3.3-2.3c1.3,3,5.4,8.6,7.3,10.2c1.7,1.4,2.8,1.1,3.5-0.9c0.5-1.3,0.7-2.7,1.1-4c0.7-2.3,2.2-3.7,4.6-3.7
			c2.3-0.1,4.6-0.2,6.8,0.4c6.2,1.6,12.3,3.5,18.5,5.3c4.9,1.5,9.7,3.1,14.7,4.4c5.5,1.4,7.9,0.2,10.8-4.7c0.4-0.8,0.8-1.6,1.1-2.5
			c0.2-0.9,0.3-1.9,0.4-3.1c-2.4,1.3-4,3.6-7.2,3.4c2.4-3.2,4.1-6.2,4.1-9.8c0.1-3.7-1.5-7.6-3.5-9.1c-0.7,2-1.2,4.1-2.2,6
			c-1.7,3.3-4.8,4.5-8.4,3.7c-0.7-0.2-1.4-0.3-2.1-0.5c-5.6-1.4-11.2-2.9-17-3.4c-3-0.2-6.1-0.4-9,0.5
			C319,348.2,330,352.6,341.6,354.9z M427.2,25.3c-4.7-2-8.6-1.3-12.2,1.4c-3,2.3-5.2,5.4-6.6,8.9c-1.9,4.6-3.1,9.4-3.5,14.4
			c-1.1,12.8,2.3,24.6,9,35.5c0.3,0.4,0.6,0.7,1.1,1.3c-0.6-4.1-1.2-7.8-1.6-11.6c-0.7-7.2-0.3-14.3,1.8-21.2c1-3.3,2.2-6.5,4.5-9.1
			c5.2-5.9,11.6-9.8,19.5-11.2c0.9-0.2,1.7-0.3,2.6-0.5c0-0.2,0-0.3,0-0.5c-1.9-0.4-3.7-1-5.6-1.2c-6.9-0.8-13.1,1.4-19.5,4.7
			C417.6,29.7,422,27.4,427.2,25.3z M386.8,384.3c0,0.7,0,1.4,0,2.1c-0.2,4,0,8-0.7,11.9c-1.9,11.5-7.1,21.3-15.6,29.4
			c-7.4,7.1-14.8,14.2-21.8,21.6c-5,5.2-9.4,11-14,16.6c-0.5,0.6-0.9,1.4-1.3,2.1c0.2,0.2,0.4,0.3,0.6,0.5c0.5-0.6,0.9-1.4,1.5-1.9
			c7.7-7.6,15.8-14.8,24.4-21.3c5.4-4.1,10.9-7.9,16.3-11.9c1.7-1.3,3.5-2.7,4.8-4.4c4-5.2,7-10.9,9.2-17.1c1.8-5,2.7-10,2.2-15.3
			C392.2,391.8,390.5,387.7,386.8,384.3z M370,388c-0.9,0.3-1.3,0.3-1.7,0.5c-5.5,1.9-9.7,5.6-13.1,10.2
			c-6.3,8.4-10.1,17.9-12.1,28.2c-0.6,3.3-1.3,6.5-2.1,9.7c-2.6,9.4-6.7,18.1-11.4,26.6c-0.3,0.6-0.7,1.3-1,1.9
			c0.2,0.2,0.4,0.3,0.6,0.5c0.3-0.5,0.6-1,1-1.4c11.1-12.2,19.1-26.2,22.8-42.4c1.5-6.8,4.4-12.9,9.5-17.8c2.4-2.3,5.1-4,8.3-5.3
			C370.5,395.1,370.3,391.7,370,388z M350,313c-0.1,1.1-0.3,2-0.3,2.9c0,4.9,0.9,9.7,2.1,14.4c3.1,11.4,7.9,22,13.1,32.5
			c1.4,2.8,2.6,5.8,3.6,8.8c1.1,3.5,2,7,2.8,10.6c1.8,8.6,2.4,17.4,1.3,26.2c-0.4,2.9-0.9,5.7-1.4,9c0.6-0.9,1-1.5,1.3-2
			c2.3-4.5,3.8-9.3,4.5-14.3c1.2-8.3,0.6-16.5-1.2-24.7c-1.5-6.8-3.7-13.3-7.2-19.3c-2-3.3-3.5-7-5-10.6c-3.6-8.7-5.9-17.7-5.2-27.3
			c0-0.3,0-0.6,0-0.8C355.5,316.6,352.9,314.9,350,313z M414.7,95.8c-0.2,0.3-0.5,0.6-0.6,1c-1.9,4.3-3,8.8-3.4,13.4
			c-1,12.8,3,24.2,10,34.7c0.3,0.4,0.6,0.8,0.9,1.1c6.7,6.4,11.9,14,16.5,22c7,12.1,12.4,24.9,16.9,38c0.2,0.6,0.5,1.2,0.7,1.8
			c0.3-0.8,0.3-1.6,0.1-2.3c-1.6-9.4-4.3-18.5-7.9-27.3c-3.4-8.4-7.7-16.3-12.8-23.8c-7-10.3-10-21.7-9-34.2c0-0.3,0-0.5-0.1-1.2
			c-2.2,2.4-2.7,5-3,7.6s-0.3,5.2-0.1,7.8c0.1,2.6,0.5,5.1,0.8,7.7c-2.8-4.4-4.7-9.2-6.1-14.1C414.5,117.5,413.5,106.8,414.7,95.8z
			 M158.5,435.5c-0.1,0.1-0.1,0.3-0.2,0.4c0.7,0.6,1.3,1.2,2,1.7c8.8,7.5,17.5,15.1,26.3,22.6c9.9,8.5,19.7,17,29.6,25.4
			c1.6,1.3,3.4,2.5,5.3,3.3c2.4,1,4.3,0.1,4.8-2.5c0.4-2.3,1.7-3.9,3.2-5.3c2.1-1.9,4.3-3.7,6.5-5.5c0.5-0.4,0.9-0.8,1.6-1.4
			c-3-0.7-5.8-1.4-8.4-2.1c-2.9,4.4-7,6-11.9,5.7c-1.7-0.1-3-0.7-4.3-1.9c-9.4-8.8-19.2-17.3-29.5-25.2c-6.6-5-13.4-9.8-20.8-13.6
			C161.3,436.7,159.9,436.1,158.5,435.5z M58.4,304.4c-1.7-0.3-3.1-0.4-4.4-0.8c-2.4-0.8-3.1-2.7-1.7-4.8c0.7-1.1,1.5-2.1,2.5-3
			c3.5-3.2,7-6.4,10.7-9.3c6.1-4.9,11.3-10.5,15.8-16.9c0.3-0.5,0.8-0.9,1.5-1.8c0.3,2.5,0.5,4.5,0.9,6.5c0.5,2.9-0.5,5-3.1,6.5
			c-2.2,1.3-4.4,2.8-6.4,4.4c-4.2,3.2-7.3,7.2-8.4,12.5c-0.2,0.7-0.2,1.5-0.2,2.3c2.3-3.8,4.7-7.2,7.7-10.2
			c3.4-3.3,7.3-5.9,11.5-8.2c2.3-1.2,3.1-3.1,2.9-5.4c-0.4-5.2-1.8-10.1-4.8-14.4c-0.9-1.3-2.2-2.4-3.5-3.4c-1.7-1.2-2.8-0.9-4,0.7
			c-2.9,3.9-4.9,8.4-6.8,12.8c1.4-1.6,2.7-3.4,4-5.1c3-4,3-4,5-4.7c-0.5,1.2-0.9,2.3-1.4,3.2c-1.4,2.1-2.7,4.3-4.3,6.2
			c-5.1,5.9-10.2,11.8-15.4,17.6c-3.7,4.2-7.6,8.2-11.3,12.5c-2.2,2.6-1.5,4.6,1.9,5.8c0.5-2.8,1.2-3.2,3.9-2.5
			c0.9,0.2,1.7,0.5,2.6,0.7C55.3,306.1,56.8,305.8,58.4,304.4z M67.8,247.5c-1.2,0.3-2.3,0.7-3.4,0.9c-2.5,0.5-5,0.4-7.3-1
			c-3.8-2.3-4.7-6.3-2-9.9c0.6-0.8,1.2-1.5,1.8-2.3c1.3-1.6,2.7-3.2,4-4.9c1.1-1.5,1.9-3.3,1.8-5.2c0-0.7-0.2-1.5-0.7-2
			c-1.5-1.7-3.2-3.2-4.9-4.8c-1.5,0.8-2.1,2.2-2.5,3.6c-0.6,2.8-2.3,5-4,7.1c-0.9,1.1-1.8,2.3-2.7,3.5c-3.5,4.5-6.8,9.1-11.1,13
			c-0.7,0.6-1.4,1.4-1.8,2.3c-0.3,0.6-0.4,1.7-0.1,2.2c1,1.7,2.2,3.3,3.4,5c0.2-1,0.3-1.8,0.5-2.8c0.9,0.4,1.5,0.7,2.2,1
			c4.5,1.9,8.9,4,13.4,5.8c1.9,0.7,3.9,1.1,5.9,1.4c1.8,0.3,2.7-0.4,3.5-2c0.5-1.2,0.8-2.4,0.4-3.7c-7,3.1-14.5,1.4-19.8-4.4
			c0.5-2.1,1.7-3.6,3.5-4.8c2.2-1.5,3.4-1.3,5.2,0.7c1.4,1.6,2.8,3.2,4.5,4.5c2.9,2.1,6.1,2.2,9.2,0.6
			C68.4,250.5,68.6,249.7,67.8,247.5z M325,237.1c-0.1,0.1-0.1,0.2-0.2,0.3c0.2,0.2,0.3,0.4,0.5,0.5c0.8,0.7,1.6,1.4,2.5,2
			c10.2,8,21.2,14.5,33.1,19.5c12.9,5.4,26.2,8.6,40.2,9.1c1.1,0,2.2,0,3.6,0c1.1-7-1.5-13.1-3.5-19.2c-0.2,0.8,0,1.6,0,2.4
			c0.1,2.4,0.2,4.7,0.1,7.1c-0.1,2.2-0.5,2.5-2.6,2.6c-1.8,0.1-3.6,0.1-5.4,0c-6.1-0.4-12.1-1.7-17.9-3.4
			c-14.7-4.2-28.7-10.3-42.5-17C330.2,239.8,327.6,238.4,325,237.1z M342.1,326.6c-0.2,0-0.3,0-0.5,0.1c-0.1,1,0,2.1-0.2,3.1
			c-0.4,2.1-0.8,4.1-1.4,6.1c-0.4,1.3-1.3,2.1-2.7,2c-2.8-0.1-5.7-0.3-8.5-0.6c-0.5,0-1.1-0.4-1.9-0.8c1.2-0.5,2.1-0.7,2.9-1.1
			c2.6-1.1,4.3-3,4.7-5.8c0.5-3.2-0.1-6.3-1.6-9.3c-0.9,2.3-1.6,4.4-2.6,6.5c-1.8,3.9-4.9,5.8-9.2,5.5c-2.2-0.1-4.4-0.2-6.6-0.4
			c-7.2-0.6-13.7,1.2-19.6,5.3c-2.8,2-5.6,3.9-8.2,6.2c-2.7,2.4-5.5,2.5-8.6,1.1c-0.7-0.3-1.3-0.6-2.4-1c1.8,3,3.6,4.6,5.7,5.7
			s4,1.3,5.8-0.4c0.9-0.8,1.8-1.4,2.7-2.1c3.3-2.6,7-4.5,11-5.5c3.7-0.9,7.5-1.7,11.2-2.1c3.5-0.4,7.2-0.4,10.7,0
			c3.9,0.4,7.6,1.5,11.5,2.2c4.4,0.8,6.8-0.9,7.9-5.2C343.1,333,342.8,329.8,342.1,326.6z M428.6,206.6c-1.5,1.7-2.7,3.4-4.2,4.9
			c-1.7,1.7-3.8,2.3-6.1,1.7c-4.6-1.2-8.7-0.1-12.5,2.5c-0.5,0.3-1,0.6-1.5,0.9c2.6-4.7,5.2-9.1,11.3-9.5c-0.9-1.6-2.3-1.8-3.6-2.4
			c-0.6-0.3-1.4-0.6-1.7-1.1c-1.2-2.1-3-3.1-5.2-3.6c-1-0.2-2-0.6-2.9-1.1c-5.1-3.3-12.6-1.9-16.4,3.3c3.2-0.3,6.5-1.3,9.6,1
			c-2.6,2.5-3.5,5.5-4.2,9.1c2-1.3,3.4-2.5,5.1-3.4c2.1-1.1,4.4-2.1,6.6-3c0.9-0.4,2-0.5,2.9,0.4c-6.1,6.8-8.4,15.2-5.8,20.8
			c6.7-7.8,7-8,9.7-7.7c-0.4,3.9,0,6.6,1.4,8.4c0.9-1.7,1.7-3.5,2.8-5.1c1.3-2,3.1-3.5,5.6-4C425.1,217.3,428.6,212.6,428.6,206.6z
			 M55.1,322.7c-1.7,2.9-1.4,4.6,1.3,5.6c2.3,0.9,4.4,2.1,6.1,4.4c0-3-2.4-4.1-3.8-6.3c2.1,0,4-0.1,4.9,1.5c1.4,2.3,3.4,2.6,5.6,2.6
			c1.3,0,2.6,0,3.9,0c-0.3,7.4,0.6,8.5,6.9,8.6c0,0.6,0,1.3,0,1.9c0.1,2.2,1.1,3.3,3.2,3.6c0.9,0.1,1.8,0.1,2.7-0.1
			c7.4-1.5,14.1-4.9,20.5-8.7c0,0,0-0.1,0-0.2c-2.8,0.7-5.5,1.5-8.2,2.1c-3.3,0.7-6.6,1.3-9.9,0.8c-1.5-0.2-2.8-0.7-3.6-2.2
			c0.5-0.9,1-1.7,1.4-2.6s0.8-1.8,1-2.7c0.7-3-0.5-5-3.8-6c0.3,0.7,0.6,1.2,0.8,1.8c0.8,2.5-0.7,4.9-3.3,5.2c-1.2,0.2-2.3,0-3.1-1
			c-0.8-1.1-0.3-2.2,0.3-3.2c0.6-1.1,1.4-2,1.9-3.1c1-2.4,0.3-3.8-1.9-4.9c-0.2,1.3,0,3-0.7,4c-0.9,1.4-2.5,2.5-4,3.4
			c-0.4,0.3-1.5,0-1.9-0.4c-1.8-1.6-1.9-4.3-0.4-6.1c0.8-1,1.8-1.9,2.7-2.9c0.7-0.9,1.4-1.8,1.9-2.8c0.3-0.5,0.3-1.4,0-1.8
			c-1.3-1.8-2.8-3.4-4.3-5.1c-0.3,1.5-0.3,2.9,0.1,4.1c0.6,1.8-0.1,2.9-1.3,4.1c-2.6,2.4-5.4,4.4-8.7,5.8
			C59.3,322.9,57.3,323.5,55.1,322.7z M239,225.8c3.9,1.8,7.9,3.6,12.6,3.2c-1.5-5.3,0.2-9.7,2.7-14.1c-0.8,0.3-1.4,0.6-2,1
			c-2.5,1.4-5,2.1-7.9,1.5c-1.8-0.4-3.7-0.4-5.6-0.5c-5.8-0.3-11.4,0.5-16.2,4.1c-2.9,2.2-6.2,2.8-9.7,2.3c-2.9-0.4-5.8-0.9-8.6-1.5
			c-3.5-0.7-7-1-10.6-0.1c-1.6,0.4-3.4,0.4-5.1,0.3c-2.4-0.1-4.5-1-5.7-3.3c-0.4-0.8-0.6-1.6-0.9-2.6c-1.5,1.3-1.9,2.7-1.4,4.4
			c0.6,2.4,2.1,3.7,4.4,4.4c2.5,0.7,5,0.6,7.5-0.1c3.6-0.9,7.1-0.4,10.4,1.3c1.3,0.6,2.7,1.1,4.1,1.3c4.4,0.7,8.8,0.1,13.1-0.9
			c4.8-1.1,9.6-2.6,14.4-3.8c3.6-0.9,7.3-1.7,11.1-0.9c1.3,0.3,2.5,0.6,3.5,1.8C245.6,225.3,242.3,225.4,239,225.8z M300.4,278
			c4.9-2.5,6.5-6.8,8.5-10.9c-0.5,3.3-1.2,6.5-2.7,9.5c-1.1,2.1-2.9,3.5-5.2,4.2c-0.9,0.3-1.9,0.4-2.8,0.6c3.8,2.8,8.1,1.9,9.9-2.3
			c1.2-2.9,2.4-5.9,3.3-8.9c1.4-4.5,2-9.2,1.6-14c-0.4-4-1.5-7.6-3.9-10.9c-0.8-1.1-1.8-1.5-3.1-1.1c-9.1,2.9-14.2,9.5-16.6,18.3
			c-1,3.7-0.8,7.8-0.1,11.6c0.8,4,2.2,7.7,5.8,10.1c0.4,0.3,0.9,0.4,1.3,0.6c-1-2.1-2-3.9-2.8-5.9c-1.6-4.1-1.7-8.4-1.4-12.7
			c0.3-4.6,1.9-8.7,4.8-12.3c2.2-2.7,4.9-4.8,8.1-6.1c1.7-0.7,2.6-0.4,3.2,1.4c0.4,1.1,0.7,2.4,0.6,3.6c-0.3,3.1-0.9,6.1-1.5,9.1
			c-0.1,0.6-0.4,1.1-0.8,1.9c-0.9-5.5-1.9-7.5-4-8.3C303.2,263,303.1,270.4,300.4,278z M343.8,406.5c-0.4-6.9-2.2-13.2-6.5-18.6
			c-2.5-3.1-5.6-5.5-9.3-6.9c-2.6-1-5.2-1.8-8.1-1.6c-0.1,1.2-0.2,2.2-0.4,3.2c-1.3,4.6-2.7,9.2-4.1,13.8c-0.9,3-1.9,6-2.6,9.1
			c-0.8,3.4-0.6,5.8,0.2,8.1c2.3-7.6,5.2-14.8,8.5-22.3c4.7,7.3,8.3,14.5,8.9,22.9c1.6-3.1,1.9-6.4,1.5-9.7
			c-0.7-6.1-2.8-11.8-5.5-17.3c-0.3-0.6-0.5-1.2-1-2.3c5.4,2.9,9.9,5.8,12.8,10.7c1.7,2.9,3.2,5.9,4.7,8.8
			C343.1,405,343.5,405.8,343.8,406.5z M448.6,443.5c0.1,0,0.2,0,0.4,0c1.1-5.6,2-11.2,3.2-16.7c2.5-11,4.5-22.1,11.1-31.8
			c-3.1-1.4-6.4-2.4-8.8-5c2.1,0,4.1,0.1,6.1,0c2.1-0.1,4.2-0.2,6.3-0.5c1.9-0.3,3.9-0.3,5.8-1.5c-7.1-0.8-13.8-1.5-20.5-2.2
			c-4.4-0.5-4.4-0.5-3.6-4.9c-0.7,0.5-1.4,0.8-1.9,1.3c-2.3,2-2.4,4.1-0.3,6.3c0.7,0.8,1.5,1.6,2.4,2c2.1,0.9,2.6,2.5,2.6,4.4
			c0,0.7,0.1,1.5,0.1,2.2c-0.1,3.8-0.1,7.6-0.3,11.4c-0.7,10.1-1.4,20.3-2.1,30.4C449,440.4,448.8,442,448.6,443.5z M228.2,451.4
			c3.3,0.5,5.8-0.3,8.3-1.6c3.6-1.8,6.2-4.7,8.5-7.9c3.2-4.5,5.4-9.4,7.2-14.6c0.5-1.4,0.7-2.8,0.8-4.3c0.4-5.7-0.5-11.4-2.2-16.8
			c-4-13.3-11-25.1-19.2-36.2c-0.1-0.1-0.3-0.2-0.5-0.3c0,0.3-0.1,0.4-0.1,0.6c0.3,0.7,0.7,1.3,1,1.9c5.3,9.7,10.1,19.7,13.3,30.3
			c2.4,7.9,3.8,15.9,1.8,24.2c-1.3,5.3-2.8,10.5-5.9,15.1c-2.9,4.3-6.6,7.6-11.8,9C229.1,450.9,228.9,451.1,228.2,451.4z M183,357.2
			c-3.5,1.1-5,0.4-6.9-3.1c-1.2-2.3-1.7-4.7-1.7-7.3c0-0.8,0-1.7,0-2.6c-5.8,1.5-9.9,7.9-8.6,13.5c1.2,5,3.5,9.6,7.4,13.2
			c5,4.7,13.5,5.2,18.8,2.6c-5.1,0.2-9.7-0.3-13.9-2.8c-4.4-2.6-6.9-6.5-7.8-11.5c2.2,2.6,4.6,5.1,7.9,6.3c3.3,1.2,6.6,1,9.6-0.7
			C186.1,362.2,184.5,359.7,183,357.2z M84.7,357.8c3.8,0.4,7.5-0.4,11.1-1.6c9-3.1,16.4-8.4,23.2-14.9c2.6-2.5,2.8-3.3,1.2-6.6
			c-0.2-0.4-0.3-0.7-0.5-1.1c-2.3-3.9-1.7-7.6,1-11.1c1.5-1.9,3.2-3.7,4.8-5.5c1.9-2.2,1.9-3.5,0-5.8c-1.6,1.8-3.7,1.8-5.8,1.5
			c-3.8-0.5-6.9-2.4-9.7-4.7c-0.6-0.5-1.1-0.9-1.7-1.4c0.6,1.7,1.4,3.2,2.4,4.4c1,1.2,1.2,2.3,0.6,3.6c-1.4,2.9-2.8,5.8-4.3,8.7
			c-0.3,0.7-0.7,1.3-1.3,2.4c3-2.6,5.4-5.1,8.1-7.1c1.7-1.3,3.8-2.1,5.8-3c0.5-0.2,1.1,0,1.9,0.1c-0.4,0.8-0.6,1.3-0.9,1.8
			c-1.5,2.4-2.9,4.7-4.4,7c-1.3,2-1.8,3.9-0.8,6.2c0.6,1.6,0.9,3.3,1.3,4.9c0.3,1.2,0,2.2-0.9,3.1c-1.2,1.3-2.4,2.7-3.7,3.9
			c-5.3,4.9-11.5,8.4-18.1,11.3C91.1,355.4,87.9,356.5,84.7,357.8z M404.3,357.8c-0.1,0-0.2,0.1-0.4,0.1c0,2.6,0.1,5.2,0,7.8
			c0,1.7,0.3,3.4,0.9,5c3.4,9.5,6.7,19,8.6,29c0.7,3.5,1.4,7,0.3,10.6c-0.2,0.6,0,1.3,0.2,1.9c0.5,1.5,1.1,2.9,1.7,4.3
			c0.4,1.1,0.7,2.2,1.6,3.4c1.1-2.1,2-3.9,2.9-5.7c2.3-4.6,2.4-4.7,0.7-9.6c-4.8-14.1-9.8-28.1-14.7-42.1
			C405.4,360.8,404.8,359.3,404.3,357.8z M309.2,386.8c1.5-2,1.5-4.2,1.1-6.4c-0.2-1.4-0.6-2.9-0.8-4.3c-0.5-2.9-0.1-3.5,3-3.4
			c2.6,0.1,5.2,0.2,7.8,0.7c6.2,1.3,12.3,2.8,18.5,4.3c4,1,8,2,12.1,3c1.7,0.4,3,0,3.9-1.6c1.6-3,2.3-6.2,2.6-9.5
			c-0.8,0.8-1.5,1.7-2.1,2.6c-1.7,2.4-3.8,3.6-6.9,3c-6.2-1.2-12.5-2.2-18.7-3.3c-6.8-1.2-13.6-2.6-20.6-2.4c-1.1,0-1.6-0.4-2.2-1.2
			c-1.4-1.7-3.1-3.1-5.2-4c-1.1-0.4-2.2-0.8-3.7,0.1c0.2,0.3,0.7,0.4,1,0.7c5.1,3.9,8.1,8.7,6.9,15.5
			C305.2,383.2,306.9,385.7,309.2,386.8z M388.7,185.8c-1-3.1-3.4-4-6.2-4.3c-0.6,0-1.2,0-1.7-0.1c-0.8-0.2-1.7-0.4-2.4-0.8
			c-2.1-1.5-4.4-2.1-6.9-1.5c-1.4,0.3-2.6,0.1-4-0.3c-3.5-1.2-7.9,1.1-9.3,4.6c2.9-0.8,5.6-2.5,8.7-1c-1,2-2,3.9-3,5.8
			c1.1-0.3,1.9-1,2.7-1.5c2-1.1,3.9-2.2,6-3.2c0.9-0.4,2-0.5,2.8,0.4c-4.3,3.8-5,4.9-5,7.2c3.9-1.5,7.8-3.2,12.5-2.3
			c-2.1,3-3.1,6.1-2.3,9.9c2.6-3.2,5.3-5.5,9-6.6c3.6-1,7.1-0.3,11,1C397.7,188.2,393.8,186.3,388.7,185.8z M279.2,200.5
			c0.1,0.1,0.3,0.1,0.3,0.1c0.1,0.4,0.2,0.8,0.2,1.1c-0.1,6.7,3.4,11.6,8.5,15.4c3.5,2.6,8.5,2,11.4-1.3c-1,0.3-1.8,0.7-2.5,0.8
			c-1.8,0.2-3.7,0.4-5.5,0.3c-0.9-0.1-2-0.8-2.6-1.5c-3.2-3.9-4.5-8.4-4-13.4c0.8-7.7,5.1-13,11.5-16.9c3.3-1.9,6.8-3.6,10.8-0.9
			c-0.8-2.4-1.7-3.2-3.6-3.5c-3.4-0.6-6.6,0-9.8,1.3c-4.2,1.7-7.6,4.7-10.5,8.1c-1.3,1.5-2.6,2.9-3.9,4.3c-2.1,2.2-3.9,4.6-4.7,7.6
			c-0.4,1.7-0.6,3.5,0.5,5.4C275.8,204.4,276.2,201.6,279.2,200.5z M108.5,279.4c0.7,2.9,1.3,5.5,1.9,8.1c0.8,3.6,1.7,7.1,2.3,10.7
			c0.8,4.9,3.6,7.8,8,9.5c2,0.8,3.8,0.7,5.7-0.1c1.7-0.7,2.2-1.5,1.9-3.2c-0.9-6.3-2.5-12.4-5.7-18c-1-1.7-2.4-3.3-3.8-4.7
			c-0.8-0.8-2-1.2-3.4-2c0.2,0.7,0.2,1,0.3,1.2c2.4,3.9,4,8.2,5.2,12.6c0.8,3,1.2,6,1.7,9.1c0.2,1.1,0.2,2.3-0.8,3.1
			c-2.2-0.8-3.1-2.1-3.6-4.7c-0.8-4.1-1.5-8.2-2.6-12.1c-0.7-2.4-1.9-4.6-3.1-6.8C111.7,280.5,110.4,279.6,108.5,279.4z
			 M213.8,461.3c0.3,0.2,0.5,0.4,0.8,0.5c7.8,3,15.6,6,23.5,8.9c2,0.7,4.2,1.2,6.4,1.5c3,0.4,3.4,0.2,4.3-2.6
			c1.8-5.3,3.4-10.7,5.1-16c0.1-0.4,0-0.8,0-1.4c-2.7,2.5-5.2,4.9-7.6,7.2c-2.8,2.7-6.2,3.6-10,3.7
			C228.7,463,221.3,462.1,213.8,461.3z M393.1,236.6c0.1-0.1,0.1-0.2,0.2-0.3c-0.1-0.1-0.1-0.3-0.2-0.4
			c-8.8-9.6-18.7-17.8-30.7-23.2c-9.5-4.3-19.3-6.2-29.7-4.1c-2.7,0.5-5.5,1.2-8.4,2.8c0.9,0,1.2,0,1.6,0c8.4-0.9,16.7,0.2,24.8,2.4
			c14.7,4,27.7,11.5,39.7,20.8C391.4,235.2,392.3,235.9,393.1,236.6z M119.3,344.8c-1.6,1.8-3,3.7-4.6,5.1c-6.5,5.7-13.8,10-22,12.7
			c-3,1-6.1,1.7-9.3,1.6c-2.7-0.1-5.2-0.5-6.1-3.6c0,0-0.1-0.1-0.5-0.2c-0.5,0.5-1.1,0.9-1.6,1.5c-1.3,1.8-0.6,4,1.6,4.9
			c3.8,1.5,7.8,1.4,11.8,0.6c12.5-2.5,22.9-9.3,33-16.7c0.7-0.5,1-1,0.8-1.9C121.8,347.1,121,345.4,119.3,344.8z M344.4,240.2
			c0,0.1-0.1,0.2-0.1,0.4c0.2,0.1,0.4,0.3,0.6,0.4c10.9,5,21.9,9.4,33.5,12.5c4.3,1.2,8.7,2,13.2,2.2c2.2,0.1,2.6-0.2,2.9-2.3
			c0.3-3.1,0.2-6.2-0.6-9.7c-0.9,1.2-1.5,2.2-2.1,3.1c-2,2.7-4.4,4.3-7.9,3.4c-0.9-0.2-1.8-0.2-2.7-0.4c-9.3-1.7-18.3-4.2-27.4-6.8
			C350.6,242,347.5,241.1,344.4,240.2z M110,338.7c-0.1-0.1-0.2-0.3-0.3-0.4c-0.7,0.4-1.3,0.8-2,1.2c-4.1,2.7-8.3,5.1-12.8,6.9
			s-9.1,3-13.9,3.1c-6.1,0.1-10.7-2.1-12.9-8.2c-0.3-0.8-0.7-1.6-1.2-2.4c-0.4-0.6-0.8-1.2-1.4-1.6c-0.3-0.3-0.9-0.2-1.4-0.3
			c1,3.1,1.8,6,2.8,8.8c0.5,1.6,1.1,3.2,1.8,4.8c0.7,1.6,2,2.4,3.8,2.5c13.2,1,24.7-2.8,34.6-11.5C108.1,340.6,109,339.7,110,338.7z
			 M103.4,298.9c-2,1.4-3.8,2.8-5.6,4.1c-2.4,1.8-4.5,1.9-6.8-0.1c-2.6-2.2-4.5-4.9-5.1-8.3c-0.3-1.6-1.3-2.1-2.5-1.2
			c-2,1.3-3.1,4.5-2.5,7.2c0.8-0.9,1.6-1.8,2.4-2.8c1.9,2.1,3.2,4.3,4.3,6.7c0.5,1,0.6,1.9,0.2,3c-0.6,1.4-0.5,2.8,0.5,4.1
			c1.6-1.4,2.7-3,5.1-3.3c-1.4,3.4-1.3,6.6-0.7,9.9c3-6.2,6.1-12.2,12.8-15.2C104.8,301.5,104.1,300.3,103.4,298.9z M274.7,219
			c0.1-0.8,0.2-1.3,0.3-1.7c0.2-2.4-0.1-4.6-2.4-6c-2.5-1.5-5.1-2.1-7.8-0.6c-4.3,2.4-7.6,5.7-9.6,10.3c-0.3,0.7-0.7,1.6-0.6,2.3
			c0.2,3.8,1.4,7.2,4.3,9.8c0.5,0.5,1.2,0.9,1.9,1.1c3.4,1,8.2-1.3,9.7-4.4c-1.4,0.6-2.9,1.4-4.5,1.8c-3.2,0.9-5.1-0.2-6.4-3.2
			c-0.3-0.7-0.5-1.6-0.6-2.3c-0.6-5.8,3.4-10.2,7.3-11.4c3.7-1.2,6.8-0.5,7.9,3.6C274.1,218.4,274.3,218.5,274.7,219z M281.2,228.4
			c0.1,0.1,0.2,0.2,0.4,0.4c3.1-2,6.5-2.2,9.9-1.2c-0.8,0.6-1.7,1-2.5,1.4c-2.7,1.3-5.1,2.9-6.9,5.3c-1.1,1.5-1.9,3.1-1.9,4.9
			c0,2.1,1.3,3.1,3.3,2.7c0.6-0.1,1.2-0.4,1.8-0.7c-1.8-1.7-2-2.1-1.1-3.6c2.5-4.3,6-7.4,11-8.5c0.7-0.1,1.4,0,2.1,0.1
			c1.2,0.2,1.7,1.1,1.3,2.2c-0.6,1.6-1.3,3.1-2,4.7c-0.3,0.6-0.6,1.2-0.9,1.8c0.1,0.1,0.3,0.2,0.4,0.3c0.6-0.7,1.2-1.3,1.7-2
			c0.6-0.8,1.2-1.5,1.7-2.4c2.2-3.6,1.2-6.4-2.9-7.8c-0.8-0.3-1.7-0.6-2.5-0.8c-1.4-0.4-2.7-1-4.1-1.3c-2.1-0.4-4.3-0.6-6.5-0.9
			c-2.1-0.3-4.3,0.8-5.6,2.7c1.6-0.3,3-1.5,4.8-0.8C282.4,226.4,281.8,227.4,281.2,228.4z M33.2,263c3.5,1.4,3.5,1.4,6.5,4.9
			c3.8,4.5,7.6,9.1,11.4,13.6c1.2,1.4,2.4,2.9,2.7,4.8c0,0.3,0.4,0.6,0.7,0.9c0.3-0.2,0.5-0.3,0.7-0.5c0.6-0.8,1.1-1.6,1.6-2.4
			c1.1-1.8,1-2.1-0.5-3.5c-2.3-2-4.8-3.9-7-6.1c-1.9-1.9-3.7-3.9-5.3-6c-0.9-1.1-1.6-2.4-1.4-4.1c1.6-0.3,3.2-0.5,4.8-0.9
			c1.5-0.4,3.1-0.6,4.2-2.3c-1.1,0-2,0-2.9,0c-3.2,0-6.5,0-9.7-0.1c-0.6,0-1.4,0-1.9-0.4c-0.4-0.4-0.6-1.1-0.9-1.8
			C34.8,260.3,33.2,261,33.2,263z M303,420.6c0-1.3,0-2.6,0-3.9c0.3-7.1,2.5-13.7,6.1-19.8c1.2-2,2.2-4.1,3.1-6.3
			c1.2-2.7,1.6-5.6,1.3-8.6c-0.1-0.6-0.3-1.1-0.5-1.7c-1.2,6.7-2.1,8.7-6.5,14c-0.7,0.9-1.4,1.8-2.2,2.6c-3.5,4.2-5.1,8.9-4,14.5
			C300.9,414.6,301.5,417.7,303,420.6z M108.9,247.7c-1.8-3.9-3.8-7-6.7-9.5c-1.4-1.2-3-2.3-4.6-3.1c-3.6-1.6-7.6-0.9-10.1,1.3
			c1.9,2.4,3.8,4.8,5.9,7.3c0-0.9,0.1-1.8,0-2.6s-0.5-1.5-0.9-2.6c3.6,1.6,6,3.9,8,6.8c0.4,0.6,1.1,1.3,1.7,1.5
			C104.2,247.3,106.3,247.5,108.9,247.7z M296.8,214.4c5.1-3,8.6-7.4,10.5-12.8c1.5-4.4,1.5-9-0.6-13.3c-1.7-3.5-5.5-3.6-7.8-0.3
			c0.4,0,0.7-0.1,1-0.1c2.7-0.3,3.4,0.1,3.9,2.8c0.3,1.8,0.3,3.7,0.1,5.5c-0.7,5.8-3.1,11-6,16.1C297.6,213,297.2,213.7,296.8,214.4
			z M76.3,232.2c3.8-0.8,4.3-1.9,2-4.8c-3.6,2.5-7.3,0.4-11.4,0.1c1.9,1.8,3.9,2.6,5.9,3.4c1,0.4,1.9,0.7,1.8,1.9
			c0,1.2-0.8,2-1.9,2.3c-1.3,0.3-2.7,0.3-4.1,0.4c-0.9,0.1-1.8,0-2.7,0c0,0.1,0,0.3-0.1,0.4c1.9,0.6,3.8,1.2,5.6,1.8
			c0,2.7-1,4.2-3.4,4.4c-1.7,0.2-3.4-0.1-5.1-0.3c-0.8-0.1-1.7-0.4-2.5-0.6c2.4,2.6,5.2,4.5,8.7,5c2.7,0.4,3.5-0.2,3.9-2.9
			c0.1-1,0.1-1.9,0.1-2.9c0-0.8,0-1.6,0-2.4c0.3-0.1,0.4-0.2,0.5-0.3c0.2,0,0.3,0,0.5-0.1c2.2-0.5,2.3-0.6,2.2-2.7
			C76.5,234.1,76.4,233.2,76.3,232.2z M90.6,281.7c-1.2,1-2.2,1.9-3.3,2.7c-3.6,3-7.3,6-10.8,9.1c-1,0.9-1.7,2.1-2.3,3.3
			c-1.7,3.6-4.3,6-8,7.4c-0.7,0.3-1.5,0.5-2.2,0.7c1.5,0.7,2.9,1.1,4.4,1.2c3,0.2,5.4-0.9,6.6-3.9c0.3-0.8,0.7-1.5,0.9-2.2
			c1-3.6,3.3-6.3,6.1-8.5c2.3-1.9,4.7-3.7,7.1-5.5C90.7,284.8,91.3,283.5,90.6,281.7z M65.9,310.1c-1.9,0.4-3.8,0.8-5.7,1.1
			c-4.6,0.7-9.1,1.6-13.7-0.2c-0.9,1.7-0.9,3.5-0.5,5.2c0.3,1.4,1.2,2.5,2.7,2.8c2.2,0.5,4.4,1,6.8,1.5c-1.1-1.2-2.1-2.3-3.3-3.5
			C57.3,315.3,62,313.6,65.9,310.1z M102,281c-1.8,0.8-2.3,1.2-2.4,2.7c-0.1,1.3,0,2.6,0.3,3.8c1.7,6.1,5.7,10.4,11,13.7
			c0.1,0.1,0.3,0,0.5,0c0.3-2.2-0.3-3.7-2.3-5c-4-2.6-5.9-6.6-6.6-11.2C102.3,283.8,102.2,282.4,102,281z M240.9,214.2
			c0,0.2,0,0.5,0,0.7c1.6,0.2,3.2,0.3,4.7,0.5c4.8,0.4,8.5-4.5,8.8-8.1c0.3-3.8-2-6-6-5.4c0.2,0.2,0.3,0.4,0.4,0.6
			c3.2,3,3,6.9-0.5,9.5c-1.4,1.1-3.1,1.7-4.9,1.9C242.7,214,241.8,214.1,240.9,214.2z M60.7,263.5c-4.4,0.9-8.4,1.6-12.5,2.4
			c2,0.3,3.9,0.7,5.8,1c1.9,0.3,3.5,1,4.8,2.6c1.2,1.4,2.7,2.4,4.9,3.1C62.3,269.3,59.7,267,60.7,263.5z M296,192.1
			c2.4,2.2,2.4,2.2,2.3,5.4c-0.1,3.1-0.7,6.1-1.7,9c-0.2,0.7-0.5,1.5-0.7,2.2c2.4-2.6,4-5.7,4.9-9.1c0.3-1,0.5-2.1,0.5-3.1
			C301.3,193.5,299.1,191.5,296,192.1z M243,205.1c-1.6,0-2.9,1.3-2.8,2.7c0.1,1.3,1.2,2.2,2.7,2.2c1.7,0,2.7-1,2.7-2.4
			C245.6,206.2,244.5,205.1,243,205.1z M215.1,217.2c-0.5-0.3-1-0.8-1.7-0.9c-1.1-0.2-2.2,0.6-2.2,1.4c0,1,0.8,1.3,1.7,1.3
			C214,219.1,215.1,218.4,215.1,217.2z"/>
		<path d="M294.2,443.9c3.8-0.6,6.5,0.6,8.3,3.2c2.7,4,3.2,8.3,0.8,12.7c-1.8,3.3-4.5,5.1-8.4,5.5c-5.7,0.6-10.4-1.1-14.3-5.2
			c-3.7-3.9-5.7-8.6-6.7-13.9c-1.3-7.2-1-14.4,0.2-21.6c0.8-4.5,1.9-8.9,2.9-13.3c0.6-2.5,0.2-4.8-0.6-7.2
			c-1.5-4.5-4.2-8.3-7.7-11.4c-2.7-2.4-5.4-4.7-8.5-6.5c-7.9-4.8-14.7-11-21-17.7c-2.9-3.1-5.4-6.5-7.8-10c-1.8-2.6-2.9-5.6-2.7-9
			c0-0.6-0.4-1.3-0.7-1.9c-0.4-0.9-1.1-1.6-1.4-2.5c-0.7-2.1-0.2-3.8,1.5-5.4c-1.1-1.4-2.4-2.6-3.1-4.2c-0.9-1.8,0.4-3.2,2-4.5
			c-0.4-0.2-0.6-0.4-0.8-0.5c-1.9-1.1-2.3-2-1.4-4c0.9-1.9,2.2-3.6,3.3-5.4c0,0,0-0.2-0.1-0.3c-2-1.5-2.2-2.1-1-4.2
			c0.7-1.2,1.5-2.3,2.4-3.6c-1.4-3-1.2-5.9,2.1-8c-1.1-4.3-1.2-8.3,2.2-11.5c-0.4-1.9-1-3.7-1-5.6c-0.1-1.8,0.4-3.6,0.7-5.9
			c-0.3-0.7-1-1.9-1.2-3.1c-0.2-1.5-0.1-3,0-4.5c0.1-1.4,0.6-2.7,0.9-4.3c-2.9-1.1-5.6-2.3-8.4-3.2c-1.2-0.4-2.7-0.2-4.1,0
			c-2.1,0.3-4.1,0.8-6.2,1.3c-2.8,0.6-5.5,0.6-8.1-0.6c-1.9,1.5-1.9,2.5,0.1,3.3c2.1,0.9,4.3,1.4,6.5,2c1,0.3,2,0.4,3,0.8
			c-4.9,0.6-9.7-0.2-15-0.3c1.7,2.3,4,2.9,6.1,3.8c2.2,0.9,4.4,1.5,6.6,2.7c-0.9-0.1-1.9-0.1-2.8-0.3c-1-0.2-2.1-0.4-3.1-0.7
			c-1-0.3-2-0.6-3-0.9s-2-0.7-3.3-1.1c1.2,3.5,4,5,6.6,6.6c-0.1,0.1-0.1,0.3-0.2,0.4c-1.9-0.5-3.8-0.9-6.1-1.4
			c1.9,3.2,4.7,4.5,7.8,5.8c-1.4,0.4-2.7,0.3-4.1,0.1c-1.4-0.2-2.7-0.5-4.3-0.8c0.1,1.5,1,2.4,2,2.9c2.2,1.1,4.4,2,6.7,2.9
			c1.2,0.5,2.4,0.7,3.7,1.2c-4,0.7-7.9,0.2-12-0.1c-0.1,1.5,1,2,1.9,2.4c2.1,0.9,4.3,1.6,6.4,2.3c0.7,0.2,1.4,0.4,2.2,0.6
			c-2.2,0.6-3.6,0.7-6.9,0c-2.3-0.5-4.5-1.2-6.8-1.9c-0.7,1.3,0,2.3,0.9,3c1.2,1,2.5,1.8,3.9,2.5c0.9,0.5,1.9,0.9,2.8,1.7
			c-1.3-0.2-2.6-0.4-3.8-0.5c-1.5-0.1-2.9-0.3-4.4-0.2c-1.3,0.1-2.7,0.2-3.7,1.9c7.9,1.2,14.6,4.2,19.6,10.5
			c-1.8-0.5-3.5-1.2-5.3-1.6c-3.8-0.9-7.6-1.7-11.4-2.3c-1.5-0.3-3.2-0.2-4.8,1.2c3.5,1.4,7.2,1.8,10,4.6c-2.9,0.7-5.9,0.1-8.3,2.4
			c6.1,2.1,12.7,2.4,16.9,7.8c-5-0.5-10-2.8-15.2,0.5c3.5,2.9,7.6,3.9,11.6,5.7c-3.3,2-6.7,1.9-10.1,2c2.4,2.8,9.2,5.1,18.8,6.4
			c-0.6,0.5-1.1,1-1.6,1.2c-1.4,0.6-2.9,1.1-4.3,1.7c-1,0.4-2,0.6-3,0.9c-1.3,0.5-2.8,1.1-2.8,2.7c0,1.5,1.6,2,2.8,2.3
			c2.3,0.6,4.6,0.8,6.9,1.2c0.8,0.1,1.5,0,2.3,0.2c-2.8,2.4-6.2,3.4-10,4.6c3.6,2.7,7.6,3.3,11.7,4.2c-0.1,0.3-0.2,0.6-0.4,0.8
			c-0.9,1.7-0.7,3.1,0.5,4.7c4.7,6.4,8.9,13,12.4,20.1c2.7,5.4,5.1,10.9,7.4,16.4c1.9,4.6,2.5,9.4,2.2,14.3c-0.3,5.5-1,10.8-3,16
			c-1.3,3.4-3.1,6.4-5.8,8.9c-6.2,5.8-14.9,6.2-21.6,0.9c-0.3-0.2-0.6-0.5-1.2-0.9c0.4,2.7,2.2,4.1,3.9,5.8c-4.8-1-8.9-5.7-8.7-10.3
			c0.2-5.6,2.5-10.4,7.3-13.7c3.2-2.3,8.7-2,11.6,1.7c-1.3,0-2.5,0-3.8,0c-4.2,0.2-6.1,3.2-4.5,7.1c0.2,0.6,0.5,1.2,0.9,1.7
			c2.5,4.3,6.1,4.9,9.9,1.6c3.6-3.2,5.8-7.3,6.1-12.1c0.8-13.3-2.8-25.3-12.1-35.1c-1.8-1.9-3.7-3.7-5.8-5.2
			c-4.9-3.3-8.9-7.6-12.7-12.1c-6.7-7.9-12.2-16.5-15.3-26.4c-3-9.8-3.6-19.6-0.1-29.5c0.7-2,1.1-4.1,1.7-6.1c0.7-2,1.7-3.9,3.7-5.2
			c-0.2-2.5,1-4.3,3.4-5.2c-1-3.5,1.4-5,3.9-6.7c-2-2.4-1.9-4.7,0.4-6.8c-0.6-2.6-2.3-5.2,0.3-7.5c-1.6-3.9-3-7.7-1.1-11.9
			c-1.1-1.4-3.5-2.4-1.5-5c-2.1-1-4-1.8-6.1-2.8c1.1-0.8,2.2-1,3.3-0.7c1.2,0.3,2.3,0.7,3.5,1.1c1.4,0.5,2.7,1.1,4,1.7
			c5.1,2.4,10.4,3.1,15.9,1.8c6.1-1.5,12.1-0.9,18,1c3.2,1.1,6.5,2,9.8,2.9c6.3,1.6,12.6,1.1,18.8-0.5c0.5-0.1,0.9-0.3,1.4-0.3
			c0.1,0,0.3,0.1,0.6,0.2c-3.1,3.6-7,5.4-11.4,6.6c-4.5,1.2-8.8-0.1-13.2-0.8c2.9,2,6.1,2.5,9.4,2.8c2,0.2,4.1,0.2,6.1,0.5
			c1.2,0.2,2.4,0.6,3.4,1.1c1.1,0.6,1.5,1.7,1.4,2.9c-0.1,1.1-1.1,1.3-1.9,1.7c-0.9,0.4-1.8,0.6-3,1.1c0.6,0.5,1,0.8,1.3,1.1
			c0.9,0.7,1.8,1.4,2.6,2.2c1.2,1.4,1,2.1-0.7,3c-2.5,1.2-5.2,2-8,2.1c-3.5,0.1-7,0.1-10.5,0.1c-1,0-2.1-0.1-3.5-0.2
			c1.2,1.4,2.4,1.8,3.6,2c4.1,0.8,8.2,1.4,12.3,2c2.2,0.3,4.4,0.4,7.1,0.6c-4.9,1.5-15.7,2.6-25.2,1.6c0.2,1.5,1.3,2,2.4,2.3
			c2.7,0.7,5.5,1.3,8.3,1.9c2.6,0.6,5.3,1,7.9,1.6c1.9,0.5,2.4,1.1,3,3c-7.3,3.1-14.8,1.5-22.6,0.4c1.2,1.5,2.5,2.2,3.8,2.7
			c2.5,1,5,1.8,7.5,2.8c1.3,0.5,2.6,1,3.8,1.6c0.7,0.3,1.5,0.8,1.9,1.4c0.4,0.7,0.6,1.7,0.5,2.5c-0.1,1-1.2,1-2,1
			c-3.9,0.2-7.8-0.5-11.6-1.2c-1.9-0.4-3.8-0.8-5.9-0.8c0.8,0.6,1.6,1.3,2.5,1.7c4,1.9,8.1,3.8,12.1,5.7c0.9,0.4,1.7,0.8,2.5,1.4
			c-6.1,0.2-12-1-17.9-3c-0.2,1.9,0.4,3.3,1.7,4.1c1.6,1,3.2,2,5,2.4c4.2,1,8.4,1.6,13.1,2.5c-7.1,1-13.9,0-20.8,0
			c0.1,1.3,1.2,1.8,2,2.3c2.5,1.5,5.2,2.3,8.1,2.6c3.7,0.5,7.4,0.7,11.2,1c0.6,0.1,1.2,0,1.9,0.2c-2.7,1.2-5.6,1.6-8.4,1.9
			c-2.9,0.3-5.8,0.5-8.7,0.8c4.8,2.1,9.9,2.6,15.1,3.5c-0.3,1.2-1.3,1.5-2.1,1.8c-2,0.5-4,0.9-6,1.1c-3,0.4-6,0.6-9,0.9
			c-1.1,0.1-2.5,0.3-2.6,1.7c-0.1,1.5,1.3,2.1,2.4,2.3c3.3,0.7,6.7,1.3,10,1.9c1.4,0.3,2.9,0.4,4.4,0.6c1.3,5.7,4.5,10.4,8.3,14.5
			c5.6,6.1,11.4,12,17.2,18c1.2,1.2,2.4,2.4,3.7,3.6c4.3,4.1,6.3,9.1,6.1,14.9c-0.2,5.1-0.9,10.2-1.6,15.3
			c-0.7,5.5-1.9,10.9-2.5,16.4s0.2,10.9,2.3,16c1.1,2.6,2.7,4.9,4.9,6.6c4.5,3.5,9.8,2.8,13.4-1.6c0.6-0.8,1.1-1.7,1.5-2.7
			c-2.2,1.2-4.3,2.3-6.7,2.7c-4.9,0.7-7.9-1-9.4-5.7c-0.7-2.3-1.2-4.8-1.3-7.2c-0.3-7.6,0.7-15.1,3.2-22.3
			c2.2-6.4,3.4-12.9,2.8-19.7c-0.5-5.8-2.4-11-6-15.7c-5.8-7.4-10.8-15.3-14.8-23.8c-1.5-3.1-2.7-6.3-3-9.7
			c-0.1-1.3-0.7-1.9-1.8-2.3c-0.8-0.3-1.5-0.5-2.3-0.7c-0.6-0.2-1.3-0.3-1.8-0.6c-1.3-0.7-1.4-1.7-0.2-2.7c0.6-0.5,1.3-0.8,1.9-1.1
			c0.6-0.4,1.3-0.7,1.8-1.2c1.2-1.1,1-2.4-0.5-3.1c-0.6-0.3-1.4-0.3-2.1-0.5s-1.5-0.5-2.5-0.9c0.5-0.9,0.8-1.5,1.3-2
			c0.3-0.4,0.8-0.8,1.3-1.2c3.2-2.9,2.9-4.4-0.9-6.2c-0.4-0.2-0.7-0.4-1.1-0.7c0.9-2.6,4.5-2.1,5.4-5c-2.4-0.7-4.8-1.5-6.4-3.8
			c3.9-2.2,8.5-3.5,10.1-8.7c-1.7-0.4-3.3-0.8-4.9-1.1c0.1-1.4,1-1.9,1.7-2.4c1.8-1.4,3.8-2.6,5.5-4c1.2-1,2.3-2.3,3.3-3.5
			c0.8-1.1,1.3-2.4,0.9-4c-3,0.1-5.3,2.5-8.9,2.3c0.9-1.1,1.4-1.9,2.1-2.6c1.4-1.3,2.8-2.4,4.2-3.7c2.7-2.6,4.2-5.6,4.3-9.5
			c0.2-5.9,0.3-11.9,1.8-17.7c1-4,2.4-7.8,4.7-11.2c2.8-4,6.5-6.9,11.4-8.2c-0.8,0.8-1.6,1.6-2.4,2.5c-3.3,3.8-5,8.3-6.4,13
			c-1.6,5.9-2.4,11.9-2.9,18c-0.5,6.2-1,12.3-1.5,18.5c-0.2,2.4-0.9,4.6-2,6.7c-3.6,6.7-6.4,13.7-8.9,20.8c-0.3,0.8-0.3,1.7-0.3,2.6
			c0,2.9,0.3,5.9,0,8.8c-0.3,2.8-0.6,5.5,0,8.4c0.3,1.4-0.4,3-0.5,4.5c-0.1,1.2,0,2.4,0.2,3.5c2.1,8.6,5.7,16.6,10.9,23.8
			c1.6,2.2,3.2,4.4,5.1,6.2c3.8,3.8,5.7,8.4,6.8,13.5c1.5,7.3,0.8,14.6-0.8,21.8c-1.3,6.2-3,12.3-4.3,18.5c-0.7,3.3-1,6.6-0.2,9.9
			c0.4,1.6,0.9,3.2,1.7,4.5c1.7,2.5,4.8,2.6,6.9,0.5c3-2.8,2.9-5.7-0.2-8.3C295.6,444.9,295.1,444.6,294.2,443.9z"/>
		<path d="M200.1,122.1c0,0.8,0,1.5,0,2.2c-0.3,4.4,1.3,8.1,4.3,11.3c2.7,2.7,5.9,4.6,9.4,6c4.2,1.7,8.7,2.7,13.2,3.5
			c0.4,0.1,0.8,0.2,1.2,0.3c0.1,0,0.1,0.1,0.3,0.5c-13.6,1.6-26.5,0.7-38.8-7c0.5,0.9,0.6,1.4,0.9,1.7c2.9,3.4,6.6,5.7,10.7,7.4
			c7.2,2.9,14.8,3.5,22.5,3.6c6.8,0.1,13.2-1.5,19.7-2.8c7.8-1.5,15.8-2.5,23.8-1.7c2.8,0.3,5.6,1.1,8.2,2c3.3,1.2,5.4,3.6,6.3,7.2
			c1,4.4,0.5,9-2,12.5c-1.4-4.4-3.8-7.7-8.1-9.4c3.4,4.2,4.8,9,5.1,14.7c-4.6-2.7-8.5-5.9-14.4-5c0.8,0.5,1.2,0.8,1.6,1.1
			c1.6,1,3.2,1.9,4.7,3c5.2,4.1,5.2,10.5,2.3,14.9c-0.1-0.7-0.2-1.1-0.3-1.6c-0.4-3.3-2.2-5.7-5.1-7.3c-2.8-1.5-5.8-2.2-8.9-2.4
			c-10.1-0.7-19.9,1.1-29.6,3.8c1.2-0.1,2.4-0.2,3.5-0.3c7.4-0.5,14.6-0.1,21.7,2.3c3,1,5.9,2.4,8.1,4.8c1.7,1.8,2.5,3.9,2,6.4
			c-0.3-0.1-0.5-0.1-0.5-0.2c-2.9-4.2-7.1-4.8-11.7-4c-5.2,0.9-10,2.9-14.3,5.9c-6.4,4.4-13.6,6.9-21.1,8.5c-4.4,1-9,1.5-13.5,2.3
			c0.3,0.1,0.7,0.3,1.1,0.4c6.9,0.8,13.8,1,20.6-1.1c2.1-0.7,4.2-1.7,6.2-2.8c4.6-2.8,9.3-5,14.6-5.8c3.8-0.6,7.5-0.3,11,1.4
			c0.4,0.2,0.8,0.5,1.2,0.8c-2.9,0.1-5.6,0.1-8.2,0.4c-4.2,0.5-7.9,2.3-11.1,5.2c-3.7,3.4-7.7,6.2-12.8,7.5c-0.3,2.8-1,5.5-3.3,7.3
			c-1.5,1.2-3.1,1.9-5.4,2c0.8-0.8,1.4-1.3,1.8-2c0.8-1.1,1.7-2.2,2.2-3.5c0.8-1.9,0.1-2.9-2-2.5c-1.8,0.4-3.5,1.1-5.2,1.9
			c-1.8,0.8-3.6,1.9-5.4,2.8c-0.8,0.4-1.8,0.4-2.8,0.4c3.3-1.9,6.6-3.7,9.7-6.7c-1.2,0.3-1.8,0.5-2.4,0.7c-5.9,1.9-12,3-18.2,2.7
			c-3.4-0.2-6.6-0.8-9.7-2.1c-6.4-2.6-12-11.2-11.8-18c0.1-2.8,1.2-5.1,3.3-6.9c0.3,0.1,0.4,0,0.4,0.1c4.2,5.9,10.3,7.6,17.1,7.7
			c5.8,0.1,11.5-0.8,17.1-2.1c8.6-2.1,17.1-4.5,25.7-6.7c2.6-0.7,5.2-1.3,8-2c-1.5-0.9-2.8-0.7-4.2-0.6c-4.8,0.6-9.5,1.3-14.2,2
			c-10.5,1.7-21,3.4-31.8,3.2c-5.1-0.1-10.1-0.7-14.8-2.5c-5.5-2.1-9.8-5.6-11.7-11.3c-1.9-5.6-0.9-10.6,3.3-14.8
			c2.4-2.4,5.3-4,8.6-4.9c0.2,0.4,0.4,0.6,0.5,0.9c2,5.1,5.8,8.3,10.7,10.4c5.3,2.2,10.8,2.9,16.5,3.1c9,0.3,17.9-0.7,26.7-2
			c8-1.2,15.9-2.6,23.8-3.8c6.3-0.9,8.2-0.8,13.9,0.9c-1.1-3.2-5.3-6.3-9-6.1c-4.4,0.3-8.7,0.9-13,1.7c-6.5,1.1-12.9,2.5-19.4,3.7
			s-13.1,1.1-19.7,0.6c-6.5-0.5-12.9-1.4-19.1-3.6c-3.1-1.1-6-2.5-8.5-4.6c-3-2.5-4.5-5.6-4.8-9.5c-0.6-8.8,2.8-15.7,10.1-20.6
			c3.7-2.5,7.7-4.1,12-5.2C199.3,122.1,199.7,122.1,200.1,122.1z M279.6,161.6c0.6-4.1-0.6-7.2-3.7-9.2c-1.5-1-3.4-1.6-5.2-2
			c-5.8-1.2-11.5-0.3-17.1,1.2c-10,2.6-20.2,4.5-30.5,4.8c-10.1,0.3-20-0.5-29.6-3.9c-0.3-0.1-0.7,0-1.3,0c2.2,2.5,4.8,3.8,7.6,4.8
			c5,1.8,10.3,2.5,15.5,2.8c11.4,0.6,22.6-0.7,33.7-2.5c4.8-0.8,9.6-1.8,14.4-2.5c6.1-0.8,11.5,0.8,15.3,5.9
			C278.9,161.1,279.1,161.2,279.6,161.6z"/>
		<path d="M359.9,104.4c-3.3-2.5-6.5-4.5-11-3.8c0.3,1.9,0.7,3.7,1,5.5c0.6,3.7,1,7.4,0.3,11.2c-0.5,2.5-1.2,3.9-3.2,5.6
			c0.3-6.5-3.8-9.4-9-11.5c2.3,2.9,4.2,6,3.3,9.9c-0.6,2.9-2.4,5-4.6,7.1c-1.5-7.2-2.2-8.3-5.9-9.7c-0.4,0.8,0,1.5,0.2,2.3
			c0.5,2.5,0.9,5,0.3,7.5c-0.3,1.2-0.6,2.5-2,3.5c-0.7-3.3-2.3-5.9-5-7.7c-1.5-1-3.1-1.9-5.3-2.2c2.2,4,4.3,7.8,1.6,12.5
			c-2-2.7-4.4-4.6-7.7-5.6c0.3,4,0.2,7.7-2.4,11.3c-1-2.4-2.1-4.5-4.1-5.9c-1.9-1.3-3.9-2.2-6.5-2.5c1.5,4.1,3.1,8.1,0.6,12.3
			c-0.3-0.2-0.5-0.3-0.6-0.4c-2.1-4.2-5.5-7-9.4-9.3c-5.8-3.4-12.2-5.4-18.6-7c-8.8-2.2-17.7-4.2-26.5-6.5
			c-4.1-1.1-8.2-2.6-12.2-4.2c-2-0.8-3.9-2.1-5.5-3.5c-3.7-3.2-4.3-7.4-2-11.7c1.3-2.4,3.2-4.3,5.4-5.9c3.6-2.6,7.5-4.6,11.7-5.9
			c5.7-1.8,11.4-3.2,17.1-4.8c0.2-0.1,0.5,0,0.9,0c-0.5,0.7-1,1.4-1.8,2.4c5.1-1.5,9.7-2.9,14.3-4.2c0-0.2-0.1-0.3-0.1-0.5
			c-3.4,0.5-6.8,1-10.9,1.6c1-0.7,1.5-1.1,2-1.5c4.5-2.6,9.4-4.1,14.5-4.8c20.5-2.7,40.2,0,59.2,8c5.6,2.4,10.8,5.4,15.2,9.6
			c2,2,3.7,4.3,5.5,6.5C359.2,102.8,359.5,103.7,359.9,104.4z M258.6,87.7c-7,2.5-13.4,4.8-19.1,8.6c-0.9,0.6-1.7,1.3-2.5,2
			c-3.4,3.3-3,6.2,1.4,8.1c2.1,0.9,4.4,1.6,6.7,2.1c7.1,1.5,14.3,1.9,21.6,2.2c13.1,0.5,26.2-0.2,39-3.1c4.6-1.1,9.1-2.5,13.2-4.8
			c2.6-1.5,4.9-3.3,6.3-5.9c1.7-3.1,1.4-5-1.7-6.7c-2.2-1.3-4.7-2.3-7.2-2.9c-10.5-2.7-21.2-2.8-32-1.4c-3.4,0.5-6.7,1.3-9.7,3
			c-1.8,1-3.4,2.4-3.4,4.7c0,2.3,1.6,3.7,3.5,4.6c2,0.9,4,1.7,6.2,2.2c3.2,0.8,6.5,1.2,9.9,1.8c-0.5,0.2-0.9,0.4-1.3,0.4
			c-6.7,0.9-13.4,1.5-20.2,0.6c-3.4-0.5-6.7-1.3-9.5-3.4c-3.1-2.4-4-5.8-2.4-9.3C257.7,89.5,258,88.9,258.6,87.7z"/>
		<path d="M435.6,116.6c-2.3-0.5-3.5-2.1-4.2-3.9c-0.8-2-1.4-4.1-2.2-6.2c-0.2-0.7-0.5-1.5-1-1.8c-4.9-3.4-7-8.5-8.3-13.9
			c-1.4-6-1.7-12.1-1-18.2c0.7-6.2,1.3-12.5,2.8-18.5c1.5-6.1,4.8-11.4,9.7-15.5c1.2-1,2.7-1.7,4-2.5c0.1,0.1,0.2,0.3,0.4,0.4
			c-0.4,0.6-0.8,1.3-1.2,1.9c-4.4,6.7-7.9,13.8-9.1,21.9c-0.6,3.7-0.3,7.7,0.8,10.8c3.6-3.4,7-6.9,12.8-7.6
			c-10.1,9.6-12.6,21-9.6,33.9c0.3-0.7,0.5-1.4,0.8-2.1c1.6-4.7,4-9.1,7.6-12.6c2.7-2.6,5.7-4.5,9.3-5.6c0.7-0.2,1.5-0.3,2.3-0.3
			c-10.2,9.1-16.2,19.7-13.8,33.8c2.9-6.6,7-12,13.7-15.2c-4.1,9.5-7.8,19-4.7,29.7c2.1-5.4,4.2-10.8,9.8-14.5
			c-0.3,1.2-0.4,1.8-0.6,2.4c-1.9,6.4-2.9,12.8-2.7,19.5c0.1,3.8,0.7,7.6,2,11.2c0.2,0.7,0.5,1.3,1,2.1c1.3-4.3,3.3-8,7.3-10.4
			c-3.7,14.2-3.2,28,3.5,41.8c2.3-4.5,5.6-7,10.4-8.5c-0.5,1.1-0.7,1.7-1,2.3c-3.3,6.7-5.5,13.8-5.4,21.3c0.1,5.1,1.1,10,3.9,14.4
			c2.3,3.8,3.2,8,3.2,12.4c0,3.6-0.5,7.1-0.6,10.7c-0.1,3.3,0.1,6.6,0.3,10c0,0.9,0.4,1.7,0.7,2.6c0.9,2.3,1.1,2.4,3.5,2.5
			c2.3,0.1,4.3,0.5,5.6,3.1c-1.2,0.2-2.2,0.3-3.2,0.5c-2.6,0.4-4.8,1.4-6.6,3.3c-0.2,0.2-0.4,0.5-0.7,0.7c-3.1,2.7-6.6,1.7-7.7-2.3
			c-0.7-2.7-0.2-5.3,0-8c0.8-7.4,1.5-14.9,0.9-22.4c-0.2-2.9-0.8-5.7-2.2-8.4c-2.1-3.8-2.8-8.1-3.2-12.4c-0.4-4.1-0.5-8.3-0.8-12.6
			c-3.6-1.6-5.3-4.9-6.6-8.5c-1.9-5.3-2.5-10.9-2.8-16.5c-0.1-1.1-0.1-2.3-0.1-3.4c0-1.1-0.3-1.8-1.2-2.7c-1.2-1-2.2-2.5-2.7-4
			c-1.4-3.9-2.6-7.8-3.9-11.8c-0.4-1.3-0.8-2.4-1.8-3.3c-4.2-4.4-6.3-9.8-7-15.8C435.9,119.3,435.8,118.1,435.6,116.6z"/>
		<path d="M126.1,374.1c-0.5,1.4,0.1,2.4,0.7,3.3c2.5,3.7,4.9,7.5,7.9,10.8c14,16.2,31.2,28.5,50.3,38c1.8,0.9,3.6,1.7,5.4,2.9
			c-0.6-0.1-1.2-0.1-1.8-0.2c-14.2-3-26.6-9.8-37.9-18.8c-7-5.6-13.4-11.9-19.7-18.2c-3.5-3.5-7.1-6.9-10.7-10.3
			c-4.1-3.9-8.9-3.8-14-2.7c-1.5,0.3-2.9,1.1-3.6,2.9c9,10.7,19.1,20.5,28.5,31c-0.4-0.3-0.7-0.5-1.1-0.8c-0.4-0.3-0.7-0.7-1.1-1
			c-8.8-8.2-17.6-16.4-26.4-24.7c-1.8-1.7-3.8-3-6.3-3.6c-1.1-0.3-2.2-0.7-3.2-1.2c-1.3-0.7-1.5-1.3-1.1-2.8
			c0.8-2.6,2.3-4.6,4.5-6.6c-0.2,1.8-1.1,3.3,0.2,4.9c1.7-0.6,3.5-1.2,5.2-1.9c7.1-3.1,13.3-7.6,18.9-12.8c1.8-1.7,2.3-3.9,2.2-6.2
			c2.2,0.1,3.4,1.2,3.3,3.3c0,1.3-0.5,2.5-0.9,3.8c-0.3,1-0.9,1.9-1.4,2.9c2-0.2,2.2-0.4,4.9-3.7c1.6,0.9,1.9,1.2,1.3,2.7
			c-0.5,1.3-0.1,2.3,0.6,3.4c2.8,4.6,6.5,8.3,10.5,11.8c3.4,2.9,6.9,5.6,10.5,8.3c0.9,0.7,2.1,1.2,3.3,1.6
			c8.3,2.3,16.7,3.3,25.3,3.9c10.2,0.7,20.3,0.4,30.5-0.4c0.1,0,0.3,0.1,0.9,0.3c-1.5,0.7-2.7,1.4-3.9,1.8
			c-4.3,1.5-8.8,2.3-13.4,2.6c-7.5,0.5-14.9,0.9-22.4,1.3c-0.5,0-0.9,0.1-1.6,0.5c0.7,0.4,1.5,0.8,2.2,1.2c9.2,4.5,18.8,8,28.6,11.2
			c6,1.9,12,3.6,18,5.4c0.7,0.2,1.4,0.4,2,0.9c-1.2,0-2.5,0.1-3.7,0c-15.8-0.9-30.7-5.2-44.8-12.3c-12.5-6.3-23.7-14.5-34.4-23.5
			c-2.9-2.5-5.9-4.9-8.8-7.3C128.8,374.9,127.7,374,126.1,374.1z"/>
		<path d="M434.1,196.2c0.3,1.5,0.8,2.9,1,4.4c0.8,6.5,0.6,13,0.3,19.5c-0.4,10.2-0.9,20.5-1.4,30.7c-0.3,6.5,0.7,12.8,2.9,18.9
			c3.8,10.7,7.8,21.4,11.6,32.1c2.5,7.2,4.9,14.5,7.3,21.7c0.6,1.7,0.7,3.6,0.8,5.5c-3.7-8.8-7.8-17.4-12.1-25.8
			c-4.3-8.4-8.8-16.8-13.2-25.2c-0.2,0.1-0.3,0.1-0.5,0.2c0.2,0.7,0.5,1.5,0.7,2.2c5.6,16,11.2,32.1,16.8,48.1
			c3.1,8.9,4.4,18.1,4.4,27.6c0,4.6-0.1,9.1,0,13.7c0,3.4,0.5,4.1,3.8,5.1c5.1,1.5,10.4,1.8,15.7,0.8c0.3-0.1,0.6-0.1,1.4-0.2
			c-0.6,0.6-0.9,1-1.3,1.3c-6.1,4.3-12.6,5.3-19.7,2.6c-1.1-0.4-2.2-1-3.2-1.7c-1.8-1.2-2.7-2.7-2.7-5.1c0.1-8.9,0.1-17.9,0-26.8
			c0-6.4-0.9-12.6-3.1-18.7c-5-14.1-9.9-28.2-14.6-42.4c-2.3-7-4.2-14.2-6.4-21.2c-1.6-5.2-1.5-10.4-0.1-15.6
			c2.5-9.4,5-18.9,7.3-28.3c1.9-7.4,3.2-14.9,3.6-22.6c0-0.2,0.1-0.4,0.2-0.7C433.8,196.3,433.9,196.2,434.1,196.2z"/>
		<path d="M221,103.3c-0.5,0.9-0.6,1.3-0.8,1.6c-1.5,3-1.2,6,0.5,8.8c1.5,2.4,3.6,4.2,5.8,5.8c5.2,3.6,11,5.9,17,7.9
			c8.9,3,18,4.9,27.1,6.8c4.1,0.9,8.2,2,12,4c2,1.1,3.9,2.4,5.5,3.9c2.5,2.4,3,5.5,1.6,8.7c-0.9,2-2.2,3.7-4.1,5.5
			c-0.1-0.9-0.2-1.4-0.2-1.9c-0.3-4.1-2.3-7-5.8-9.1c-2.8-1.7-5.8-2.5-9-2.9c-3-0.3-6-0.4-9-0.5c-12.2-0.2-24.4-1.4-36.2-4.5
			c-4.1-1.1-8.2-2.7-12.1-4.4c-2.2-1-4.2-2.4-6.1-4c-4.5-3.8-5.6-8.8-3.4-14.3c0.3-0.8,0.7-1.6,1.2-2.4
			C208.7,106.9,214.3,104.7,221,103.3z"/>
		<path d="M263.9,254.6c-0.6,2-2,2.8-3.5,3.5c-4,2-8.4,2.7-12.8,1.9c-4.6-0.8-9.3-1.8-13.8-2.9c-4.7-1.1-9.3-0.9-13.9,0.5
			c-9.4,2.9-7.7,2.6-17.3,0.4c-1.6-0.4-3.2-0.7-4.7-1.2c-4.1-1.3-8.1-0.6-12,0.6c-1.1,0.3-2.2,1.1-3.1,1.9c-1,0.9-1,1.9,0,2.8
			c1.1,1,2.3,1.8,3.5,2.6c1.1,0.8,2.3,1.5,2.6,3.3c-2.3,1.3-5.1,0.1-8,1.4c1.2,0.5,2.1,0.9,2.9,1.3c1.9,0.8,3.8,1.5,5.6,2.4
			c1.4,0.7,2.5,1.7,2.7,3.8c-1.1,0.2-2.2,0.4-3.3,0.5c-2.3,0.1-4.6,0-6.8,0.1c-1.3,0.1-2.5,0.3-3.7,0.8c2.4,0.9,4.8,0.8,7.2,1.3
			c2.3,0.5,4.8,0.7,6.7,3.3c-5.1-0.6-9.7-2.7-14.2-0.5c0,0.2,0,0.4-0.1,0.6c0.6,0.1,1.3,0.2,1.9,0.2c3.6,0.3,7.1,0.9,10.4,2.4
			c1.2,0.6,2.5,1.2,2.8,3.1c-1-0.2-1.9-0.3-2.7-0.4c-2.7-0.3-5.4-0.5-8,0.3c-1.9,0.6-3.5,1.6-4.4,3.8c4.1,0,8.2-1.8,11.9,1.1
			c-0.4,1.1-1.3,1.3-2.2,1.4c-1.9,0.3-3.9,0.5-5.8,0.9c-0.9,0.2-1.7,0.7-2.5,1.3c3.5-0.8,6.3,0.1,8.4,2.9c-0.7,3.7-3.7,5.9-5.6,8.9
			c-1.3-0.4-2.2-1.3-2.8-2.3c-2-3.2-4-6.5-5.9-9.8c-0.8-1.4-0.5-3,0.1-4.5c0.7-1.9,2-3.3,3.5-4.6c0.6-0.5,1.2-1,1.9-1.5
			c-1.4-0.9-1.4-0.9-6.1-0.2c-1-0.9-1.1-2.2-1.1-3.5c0-2.8,1.1-5.2,2.2-7.7c0.4-0.9,0.5-2,0.8-3c0.4-1.2,0.7-2.5,1.3-3.6
			c0.6-1.2,1.6-2.3,2.4-3.4c1-1.5,1.5-3,0.7-4.8c-0.2-0.5-0.3-1.3-0.2-1.9c0.3-1.6,0.7-3.2,1.2-5.1c0,0,0.4-0.1,0.8-0.1
			c3.1,0.3,6.2,0,9.2-0.8c3.4-0.9,6.6-0.4,9.7,1.3c1.4,0.8,2.8,1.5,4.3,2c-2.8-2.6-5.7-5.1-9-6.9c-0.8-0.4-1.9-0.6-2.8-0.6
			c-1.8,0.1-3.5,0.4-5.3,0.7c-1.3,0.2-2.6,0.3-3.9,0.5c-2.9,0.3-5-1-6.7-3.2c-1.5-2-1.5-3.7,0-6.1c0.2,0.1,0.5,0.1,0.6,0.2
			c3.2,3.2,7.2,4.3,11.5,4.5c1.9,0.1,3.9,0.3,5.8,0.3c2.6,0,4.8,0.9,6.7,2.5c1.2,0.9,2.4,1.9,3.7,2.8c2.1,1.7,4.5,2.5,7.3,2.3
			c2.8-0.3,5.7-0.4,8.5-0.8c4.6-0.7,9-0.6,13.4,1.2c4.9,2,10.1,3.2,15.4,3.2c4,0,7.9-0.6,11.9-0.9
			C262.1,255,262.8,254.8,263.9,254.6z"/>
		<path d="M401.8,291c0.5,0.6,0.7,0.8,0.9,1.1c2.6,5,5,10.1,5.7,15.7c0.1,1,0.4,2,0.1,2.9c-0.6,2.2,0,4.2,0.3,6.2
			c0.2,1.6,0.4,3.2,0.3,4.8c-0.2,2.7-1.3,4-4,4c-2.9,0-5.9-0.2-8.7-0.9c-11-2.4-21.5-6.4-31.8-10.7c-8.5-3.5-16.8-7.4-24.8-12
			c-1.8-1-3.4-2.2-5.2-3.3c-2.8-1.7-4.7-4.2-5.9-7.2c-1.6-4.3-2.8-8.6-3.3-13.3c0.4,0.7,0.8,1.5,1.2,2.2
			c6.4,11.3,5.6,10.4,15.8,16.2c12.9,7.3,26.3,13.5,40.7,17.3c5,1.3,10,2.3,15.2,1.8c1.6-0.2,3.1-0.6,4.6-1.4
			c-0.3-0.1-0.6-0.3-0.8-0.4c-12.2-1.8-23.7-6-35.2-10.6c-7.1-2.8-14.1-6-20.5-10.1c-3-1.9-5.7-4.2-8.5-6.5c-1.2-1-2.2-2.3-2.5-4.1
			c0.7,0.5,1.5,0.9,2.2,1.4c13.8,9.1,28.6,16.2,44.7,20.1c5.8,1.4,11.6,2.4,17.6,2.5c2.6,0.1,3.1-0.4,3.3-3
			c0.2-3.7-0.5-7.3-1.2-10.9C402.1,292.5,402,292,401.8,291z"/>
		<path d="M253.3,235c-4.4,1.5-8.3,1.5-11.7-0.7c-4.2-2.8-8.6-3-13.1-1.7c-5.4,1.6-10.7,2.6-16.3,2.3c-0.1,0-0.3,0.1-0.8,0.4
			c4.3,2,8.4,3.3,12.8,1.5c6.8-2.8,13-2,18.7,2.6c3.7,2.9,8.1,4.1,12.6,4.8c6.3,1,12.5,0.4,18.8-0.6c-0.5,0.4-1,0.9-1.5,1.3
			c-5.5,3.7-11.6,5.5-18.1,5.7c-5.8,0.2-11.5-0.7-17-2.7c-3.8-1.4-7.7-1-11.6-0.4c-3.6,0.5-7.2,1.6-10.9,1.2
			c-2.9-0.3-5.8-0.8-8.6-1.5c-1.5-0.4-3-1.3-4.2-2.4c-2.4-2.1-5.2-3-8.2-3.3c-2.7-0.3-5.4-0.3-8-0.5c-2.8-0.3-5.5-1-7.8-2.6
			c-3.2-2.2-3-5.4,0.5-7.6c3.1,4.8,7.8,5.8,13.2,5.5c6.1-0.2,12,0.9,17,4.9c0.6,0.4,1.2,0.8,1.9,1.1c4.8,1.6,9.7,1.3,14.6,0
			c-2.2-0.3-4.4-0.4-6.6-0.8c-2.5-0.5-5.1-1.1-7.5-2c-1.4-0.5-2.7-1.5-3.8-2.5c-1-1-2-1.6-3.3-1.8c-4.5-0.8-9-1.5-13.4-2.4
			c-3.2-0.7-6.3-1.5-9.4-2.4c-0.9-0.3-1.8-0.7-2.6-1.3c-1.9-1.3-2.1-2.5-0.5-4.2c0.3-0.4,0.7-0.6,1.2-1c0.8,0.4,1.6,0.7,2.3,1.1
			c8.6,4.5,17.7,6.9,27.4,6.8c3.3-0.1,6.6-0.5,9.8-1.6c5-1.7,10.1-2.5,15.3-1.4c1.6,0.4,3.3,0.9,4.7,1.8c3.5,2.2,7.3,3.5,11.4,4.1
			C251.4,234.6,252.1,234.8,253.3,235z"/>
		<path d="M318.1,252.4c15.1,7.8,29.6,16.8,46.1,21.3c0.6,0.2,1.3,0.2,2,0.1c-9.8-5.1-19.3-10.6-28-17.2c-8.8-6.6-16.9-14-23.3-23.2
			c0.9,0.7,1.9,1.4,2.8,2.1c14.2,11,28.9,21.1,44.8,29.5c9.6,5.1,19.6,9.6,30.3,12.1c3.2,0.7,6.6,1.1,9.9,1.5
			c2.5,0.3,3.2-0.1,3.9-2.6c0.7-2.6,1.1-5.4,1.6-8.1c0.1-0.6,0.1-1.1,0.2-2.1c0.4,0.7,0.6,1,0.7,1.4c1,4.5,2,9,3,13.6
			c0.2,0.7,0.2,1.5,0.2,2.2c0.1,2.1-0.3,2.7-2.4,2.7c-3.2,0-6.5-0.1-9.7-0.7c-6.4-1-12.8-2.4-19.2-3.5c-1-0.2-1.9-0.4-2.9-0.3
			c-9.7,0.6-18.9-1.8-27.7-5.8c-12-5.5-22.4-13.2-31.8-22.4C318.4,252.8,318.2,252.6,318.1,252.4z"/>
		<path d="M391.1,367.8c-2,2.7-3.3,5.4-6,7.3c-1-0.9-2.1-1.6-2.8-2.6c-1.2-1.6-2.5-3.3-3.3-5.1c-2.4-5-4.7-10.2-7-15.3
			c-0.2-0.4-0.2-0.9-0.4-1.8c4.3,5.2,7.4,10.7,12.9,14.1c1.6-0.9,2.2-2.3,2.9-3.5c2.2-4.2,3.2-8.7,3.8-13.3
			c0.5-4.2,0.8-8.4,1.2-12.9c3.3,0.7,6.7,1.3,10.2,2.1c-0.3,1.6-0.6,2.9-0.8,4.2c-2.3,11.9-2.7,23.8-1.5,35.9
			c0.9,8.8,4,16.9,6.8,25.1c3.1,9.3,6.2,18.5,9.2,27.8c0.7,2.1,0.9,4.3,1.4,6.4c0.3,1.2,0,2.2-0.6,3.3c-2.1,4.1-4.8,6.2-8.5,6.7
			c0.7-2.2,1.6-4.4,2.1-6.7c1-5.2,0.5-10.4-0.6-15.5c-1.3-5.9-3.1-11.6-4.7-17.4c-0.1-0.4-0.3-0.7-0.7-1.5
			c-1.9,10.1-6.2,18.2-14.5,23.8c0.2-0.3,0.5-0.7,0.8-1c5.3-6.5,8-14.1,8.6-22.4c0.9-11.4-1.9-22.1-6.2-32.5
			C392.7,371.2,391.9,369.7,391.1,367.8z"/>
		<path d="M336.2,140.6c-1.2,5.9,1.3,10.8,4,15.5c1.8,3.3,3.7,6.5,5.6,9.7c0.1,0.2,0.4,0.3,1.1,0.7c-0.6-1.9-1-3.4-1.4-4.8
			c-1.2-3.9-2.6-7.7-3.4-11.7c-0.9-4.3-0.4-8.4,2.7-11.9c0.2-0.2,0.5-0.4,1-0.9c-0.2,0.9-0.3,1.4-0.4,1.9c-0.1,2-0.4,4-0.3,6
			c0,4.9,1.6,9.4,4,13.6c1.7,3,3,6.1,3.7,9.5c0.5,2.5,0.5,4.8-0.7,7.1c-2,3.7-4.1,7.4-6.1,11.1c-0.4,0.7-0.8,1.3-0.8,2.3
			c0.8-0.8,1.6-1.5,2.3-2.3c5.2-6,8.4-13,10.4-20.5c0.5-2,0.3-4.4-0.2-6.5c-1.1-5.4-2.4-10.8-3.8-16.1c-1.3-5-0.6-9.7,1.7-14.2
			c0.4-0.9,0.9-1.7,1.4-2.6c2.3-3.9,4.5-7.8,7-12.1c0.2,1.7,0,3.1-0.4,4.4c-0.9,3-1.9,5.9-2.9,8.8c-0.7,2.1-1.5,4.1-2.5,6.1
			c-1.7,3.5-1.9,7.1-1,10.9c1.4,6,2.6,12.1,3.9,18.1c0.4,1.9,0.3,3.7-0.3,5.5c-2.5,7.3-6,14.1-10.4,20.3c-1.9,2.7-4.4,4.4-7.7,5.1
			c-2.7,0.6-5.3,1.4-7.9,2.3c-7.4,2.6-13.1,7.3-17,14.3c-0.2,0.4-0.5,0.8-0.8,1.2c0,0.1-0.1,0.1-0.4,0.3c0-1.1-0.2-2.1,0-3
			c1.1-4.8,3.6-8.9,6.7-12.6c0.4-0.5,1-0.8,1.5-1.2c3.8-2.7,6.8-6,8.7-10.3c0.1-0.2,0.2-0.4,0.4-0.6c0,0,0.1,0,0.4-0.1
			c0.6,2.5,0.1,4.9-1.3,7.7c1.5-0.5,2.5-0.6,3.2-1.1c1.6-1.2,3.3-2.5,4.6-4c1.4-1.6,2.3-3.5,3.5-5.3c2.4-3.6,2-7.4,0.5-11.2
			c-0.7-1.8-1.6-3.5-3.2-5c-0.7,3.4-1.7,6.4-3.9,9.4c0-2.6-0.1-4.7,0-6.8c0.1-3.1-0.8-5.9-2.5-8.5c-1-1.5-2-3-2.8-4.6
			c-2.1-4.3-1.2-8.4,1.1-12.3C333.9,141.6,334.8,140.9,336.2,140.6z"/>
		<path d="M85,204.5c-1.6,6.6-0.3,13.1,0.1,19.7c0.1,1,0,1.9-0.1,2.9s-0.8,1.4-1.7,1c-0.7-0.3-1.3-0.6-1.9-1c-1.5-0.9-3-1.9-4.5-2.9
			c-2.3-1.4-4.7-2.4-7.5-2.9c-5.5-0.9-9.5-4-12.5-8.6c-0.7-1.1-1.1-2.3-0.8-3.7c0.5-2.8,1.4-5.5,3-7.9c0,1.9,0,3.9,0,5.8
			c0.1,0,0.3,0,0.4,0.1c0.1-0.3,0.3-0.6,0.4-0.9c1.5-5.9,4.8-10.6,9.5-14.4c5.8-4.8,12.5-7.8,19.6-10.1c1.1-0.4,2.2-0.7,3.3-1.2
			c-7.7,0.4-14.9,2.7-22.3,6.3c9.6-10.4,35.5-12.8,48-4.7c-1.5,0-2.8,0-4.1,0c0,0.2-0.1,0.3-0.1,0.3c0,0.1,0.1,0.1,0.2,0.1
			c0.2,0.1,0.5,0.2,0.7,0.2c-0.1,0.1-0.2,0.3-0.3,0.3c-8,0.9-15.6,3-22.7,6.9c-10.5,5.8-16.8,14.6-18.6,26.5
			c-0.4,2.6,0.1,3.6,2.1,4.2c2.4,0.7,4.9-0.1,5.6-2.1s1-4.1,1.4-6.2c0.4-1.7,0.6-3.5,1.1-5.2c0.3-1,0.9-2,1.4-3
			C84.7,204.3,84.8,204.4,85,204.5z M104,182.2c-0.7,0-1.2,0-1.7,0c-5.1,0.4-10.2,1.2-15,2.9c-11,3.9-19,11.1-23.3,22.1
			c-0.4,1-0.5,2-0.6,3.1c-0.1,0.9-0.2,2,0.9,2.3c1.1,0.3,2-0.3,2.7-1.3c0.3-0.5,0.6-1,0.9-1.5c1.3-2.1,2.6-4.3,4-6.4
			c5.7-8.1,13-14.5,22.4-18.2C97.3,184,100.5,183.2,104,182.2z"/>
		<path d="M322.7,294.4c2.1,0.4,3.6,1.6,4.9,3.1c2.4,2.8,3.4,5.7,2.4,9.4c-1.7,6.4-4.1,12.3-9,17c-1.1,1-2.3,1.8-3.8,2
			c-5.8,0.9-11.6,1.8-17.3,2.7c-5.5,0.9-11.1,1.8-16.5,3c-2.8,0.6-5.5,1.9-8.6,2.9c0.2-1.1,0.2-2.1,0.5-3c1-3.2,3.3-5.4,6-7.2
			c3.7-2.4,7.9-3.7,12.3-4.5c5.4-1,10.8-1.3,16.3-1.2c1.8,0.1,3-0.5,4.2-1.9c3.5-4.1,6.5-8.5,7.5-14c0.2-0.9,0.2-1.9,0-3
			c-0.3,0.5-0.7,1-1,1.5c-1.7,2.8-3.4,5.5-5.1,8.3c-1.5,2.5-3.9,3.6-6.7,3.8c-2.6,0.2-5.2-0.2-8.1-1.3c1.3-0.4,2.1-0.7,3-1
			c8.1-2.5,7.7-2,12.1-9.8c2.3-4.1,3.7-8.5,3.8-13.2c0-0.4,0.1-0.8,0.1-1.2C322.6,288,323.5,290,322.7,294.4z"/>
		<path d="M431.2,168.1c1.9,2,3.4,3.6,4.9,5.3c0.4,0.4,0.5,1.2,0.4,1.8c-0.9,7.2,1.6,13.4,5.9,19c2.9,3.7,5.7,7.4,6.5,12.1
			c0.6,3.6,1,7.3,0.9,10.9c-0.6,18,2.2,35.1,11.2,51c1.3,2.2,2.8,4.3,4.4,6.8c-0.9-0.3-1.5-0.5-2-0.8c-3-1.6-5.3-4-7.4-6.6
			c-4.7-6-7.5-12.9-9.8-20c-2.9-9.3-4.4-18.8-5.4-28.4c-0.9-9-2-18.1-4.8-26.8c-0.6-1.9-1.6-3.7-2.3-5.6c-0.9-2.4-1.9-4.9-2.3-7.4
			C430.8,175.8,430.5,172.2,431.2,168.1z"/>
		<path d="M332.8,173.4c-0.9-1.5-1.6-2.6-2.3-3.6c-0.2,0-0.3,0.1-0.5,0.1c-0.3,5.5-1.7,10.6-5.1,15.6c-0.1-2.6,0-4.7-0.4-6.8
			s-1.1-4.3-2-6.2s-2.3-3.7-3.4-5.5c-0.2,0-0.3,0.1-0.5,0.1c-0.1,0.5-0.3,1-0.3,1.5c0.1,2.6,0.1,5.2,0.4,7.8c0.4,3.8-0.2,7.4-2.6,11
			c-0.2-1.2-0.4-2.1-0.6-3c-0.6-3.8-2.7-6.5-6.2-7.9c-4.7-1.8-8.2-4.8-10.6-9.2c-0.1-0.2-0.3-0.3-0.7-0.6c-1,3.9-0.2,7.1,2.9,9.9
			c-8.3-0.7-13.5-7.3-11.8-14.3c1,0.6,2,1.1,3.2,1.8c1.4-4.4,2.5-8.6,6.4-11.8c0,1.3,0,2.2,0.1,3.1c0.2,5.2,1.7,9.7,5.6,13.3
			c0.2,0.2,0.5,0.4,0.8,0.6c0,0,0.2,0,0.4,0c-0.3-2-0.7-3.9-0.8-5.9c-0.1-2,0-4,0.1-6.1c0.1-2,0.8-3.9,2.1-6.1
			c0.4,2.4,0.4,4.5,1,6.4c0.7,1.9,1.8,3.6,3,5.3s2.6,3.2,4.2,5.2c-0.8-6.3-1.9-12.2,1.4-17.9c0.7,3.4,1.2,6.5,2,9.6
			c0.9,3,2.4,5.8,4.8,8.6c-0.5-7.2-1.6-13.9,2-20.3c0.1,1.2,0.3,2.5,0.4,3.7c0.3,3.8,1.7,7.3,3.8,10.4c2,3.1,3.3,6.3,3.1,10.1
			C332.9,172.4,332.9,172.6,332.8,173.4z"/>
		<path d="M130.9,291.4c-1.4-2.7-2.6-5.4-4.2-7.8c-5-7.6-13-10.4-21.7-7.7c-2.4,0.7-4.7,1.9-6.9,3c-2.7,1.3-4.3,1.2-6.3-1
			c-0.9-1-1.5-2.2-2-3.7c0.7,0.3,1.4,0.6,2,0.9c2.7,1.2,5.5,1.5,8.2,0c5-2.9,10.3-3.3,15.8-1.7c0.2,0.1,0.5,0,0.8-0.1
			c-3.9-2.6-8.2-4.1-12.9-4.7c-4.7-0.7-9.2-0.1-13.7,1.6c-0.7-1.5-0.3-2.9,0-4.2c0.1-0.5,0.8-1.1,1.3-1.2c10.5-1.6,20.5-0.7,29,6.6
			c1.2,1.1,2.4,2.1,3.7,3.3c-0.1-0.4-0.1-0.9-0.3-1.3c-3.9-7.8-10.2-12.5-18.6-14.4c-5.4-1.2-10.8-1-16.4-0.1
			c-0.1,1-0.2,2.1-0.3,3.1c-2-1.6-4.5-5.5-5.3-8.1c1.4-1.5,3.3-1.9,5.2-2.2c12.1-1.8,28.4,3,36.4,16c2.1,3.4,3.4,7,4.3,10.8
			c0.2,0.8,0.4,1.6,0.7,2.3c1.4-4.6,1-9-0.9-13.3c-1.9-4.3-5-7.6-8.2-10.9c0.6,0.3,1.3,0.5,1.8,0.8c7.5,4.3,11.4,10.6,11.6,19.3
			c0.1,4.8-0.8,9.4-2.5,13.8c-0.1,0.3-0.3,0.6-0.4,0.9C131,291.4,130.9,291.4,130.9,291.4z"/>
		<path d="M341.6,354.9c-11.5-2.3-22.5-6.7-34.2-8.5c3-1,6-0.8,9-0.5c5.8,0.5,11.4,2,17,3.4c0.7,0.2,1.4,0.4,2.1,0.5
			c3.7,0.8,6.7-0.4,8.4-3.7c1-1.9,1.5-4.1,2.2-6c2.1,1.6,3.6,5.4,3.5,9.1s-1.8,6.7-4.1,9.8c3.2,0.2,4.7-2.1,7.2-3.4
			c-0.2,1.3-0.2,2.2-0.4,3.1c-0.2,0.9-0.6,1.7-1.1,2.5c-2.8,5-5.3,6.2-10.8,4.7c-4.9-1.3-9.8-3-14.7-4.4c-6.1-1.8-12.3-3.7-18.5-5.3
			c-2.2-0.6-4.5-0.4-6.8-0.4c-2.4,0.1-3.9,1.5-4.6,3.7c-0.4,1.3-0.6,2.7-1.1,4c-0.7,2-1.8,2.3-3.5,0.9c-2-1.6-6-7.2-7.3-10.2
			c1.2,0.9,2.3,1.6,3.3,2.3c0.8,0.5,1.7,1,2.6,1.4c2.1,0.9,3.2,0.4,4-1.7c0.3-0.7,0.5-1.4,0.7-2.1c1.1-2.7,2.6-3.7,5.5-3.4
			c4.8,0.5,9.7,1.2,14.5,1.9c7.8,1.1,15.6,2.6,23.5,2.7c1.1,0,2.3,0,3.4,0C341.5,355.3,341.6,355.1,341.6,354.9z"/>
		<path d="M427.2,25.3c-5.2,2.1-9.6,4.4-10.7,10.7c6.4-3.3,12.7-5.4,19.5-4.7c1.9,0.2,3.8,0.8,5.6,1.2c0,0.2,0,0.3,0,0.5
			c-0.9,0.2-1.7,0.3-2.6,0.5c-7.9,1.4-14.3,5.3-19.5,11.2c-2.3,2.6-3.5,5.9-4.5,9.1c-2.1,6.9-2.5,14.1-1.8,21.2
			c0.4,3.8,1,7.5,1.6,11.6c-0.5-0.5-0.9-0.9-1.1-1.3c-6.7-10.9-10-22.7-9-35.5c0.4-5,1.6-9.8,3.5-14.4c1.5-3.5,3.6-6.6,6.6-8.9
			C418.6,23.9,422.5,23.2,427.2,25.3z"/>
		<path d="M386.8,384.3c3.6,3.4,5.4,7.5,5.8,12.1c0.5,5.3-0.5,10.4-2.2,15.3c-2.2,6.2-5.3,11.9-9.2,17.1c-1.3,1.7-3.1,3.1-4.8,4.4
			c-5.4,4-11,7.9-16.3,11.9c-8.6,6.5-16.7,13.7-24.4,21.3c-0.6,0.6-1,1.3-1.5,1.9c-0.2-0.2-0.4-0.3-0.6-0.5c0.4-0.7,0.8-1.5,1.3-2.1
			c4.6-5.6,9-11.3,14-16.6c7-7.4,14.4-14.6,21.8-21.6c8.5-8.1,13.7-17.9,15.6-29.4c0.6-3.9,0.5-7.9,0.7-11.9
			C386.8,385.7,386.8,385,386.8,384.3z"/>
		<path d="M370,388c0.3,3.7,0.5,7.1,0.8,10.5c-3.2,1.3-6,3-8.3,5.3c-5.1,4.9-8,11-9.5,17.8c-3.7,16.3-11.7,30.2-22.8,42.4
			c-0.4,0.4-0.6,0.9-1,1.4c-0.2-0.2-0.4-0.3-0.6-0.5c0.3-0.6,0.6-1.3,1-1.9c4.7-8.5,8.8-17.2,11.4-26.6c0.9-3.2,1.5-6.5,2.1-9.7
			c2-10.3,5.8-19.8,12.1-28.2c3.4-4.6,7.6-8.2,13.1-10.2C368.7,388.4,369.1,388.3,370,388z"/>
		<path d="M350,313c2.9,1.9,5.5,3.6,8.3,5.4c0,0.2,0.1,0.5,0,0.8c-0.7,9.6,1.6,18.6,5.2,27.3c1.5,3.6,3,7.2,5,10.6
			c3.6,6,5.7,12.6,7.2,19.3c1.8,8.2,2.4,16.4,1.2,24.7c-0.7,5-2.2,9.8-4.5,14.3c-0.3,0.6-0.7,1.1-1.3,2c0.5-3.3,1.1-6.2,1.4-9
			c1.1-8.8,0.5-17.5-1.3-26.2c-0.7-3.6-1.6-7.1-2.8-10.6c-1-3-2.2-5.9-3.6-8.8c-5.3-10.5-10.1-21.1-13.1-32.5
			c-1.3-4.7-2.2-9.5-2.1-14.4C349.7,315,349.9,314.1,350,313z"/>
		<path d="M414.7,95.8c-1.2,11-0.2,21.8,2.9,32.3c1.5,4.9,3.3,9.7,6.1,14.1c-0.3-2.6-0.7-5.1-0.8-7.7c-0.1-2.6-0.2-5.2,0.1-7.8
			c0.3-2.6,0.8-5.3,3-7.6c0.1,0.7,0.1,0.9,0.1,1.2c-1,12.5,2,23.9,9,34.2c5.1,7.5,9.3,15.4,12.8,23.8c3.6,8.8,6.3,17.9,7.9,27.3
			c0.1,0.7,0.1,1.4-0.1,2.3c-0.2-0.6-0.5-1.2-0.7-1.8c-4.6-13.2-10-25.9-16.9-38c-4.6-8-9.8-15.5-16.5-22c-0.3-0.3-0.7-0.7-0.9-1.1
			c-7-10.5-11-21.9-10-34.7c0.4-4.6,1.5-9.1,3.4-13.4C414.2,96.4,414.5,96.1,414.7,95.8z"/>
		<path d="M158.5,435.5c1.4,0.6,2.8,1.2,4.1,1.8c7.4,3.8,14.2,8.5,20.8,13.6c10.3,7.8,20.1,16.3,29.5,25.2c1.3,1.2,2.6,1.8,4.3,1.9
			c4.9,0.3,9-1.3,11.9-5.7c2.7,0.7,5.4,1.3,8.4,2.1c-0.7,0.6-1.1,1-1.6,1.4c-2.2,1.8-4.4,3.6-6.5,5.5c-1.6,1.4-2.8,3-3.2,5.3
			c-0.5,2.5-2.4,3.5-4.8,2.5c-1.9-0.8-3.8-2-5.3-3.3c-9.9-8.4-19.8-16.9-29.6-25.4c-8.8-7.5-17.5-15.1-26.3-22.6
			c-0.7-0.6-1.3-1.1-2-1.7C158.4,435.7,158.5,435.6,158.5,435.5z"/>
		<path d="M58.4,304.4c-1.6,1.4-3.1,1.8-4.8,1.4c-0.9-0.2-1.7-0.4-2.6-0.7c-2.7-0.7-3.4-0.3-3.9,2.5c-3.3-1.2-4.1-3.2-1.9-5.8
			c3.6-4.3,7.5-8.3,11.3-12.5c5.2-5.8,10.3-11.7,15.4-17.6c1.6-1.9,2.9-4.1,4.3-6.2c0.6-0.9,0.9-2,1.4-3.2c-1.9,0.7-2,0.7-5,4.7
			c-1.3,1.7-2.6,3.5-4,5.1c1.9-4.5,3.9-8.9,6.8-12.8c1.2-1.6,2.3-1.9,4-0.7c1.3,0.9,2.5,2.1,3.5,3.4c3,4.3,4.4,9.2,4.8,14.4
			c0.2,2.3-0.6,4.2-2.9,5.4c-4.2,2.2-8.1,4.8-11.5,8.2c-3.1,3-5.5,6.4-7.7,10.2c0.1-0.8,0.1-1.6,0.2-2.3c1.2-5.2,4.3-9.3,8.4-12.5
			c2.1-1.6,4.2-3.1,6.4-4.4c2.5-1.5,3.6-3.6,3.1-6.5c-0.4-2-0.5-4-0.9-6.5c-0.8,0.9-1.2,1.3-1.5,1.8c-4.4,6.4-9.7,12-15.8,16.9
			c-3.7,2.9-7.2,6.1-10.7,9.3c-1,0.9-1.8,1.9-2.5,3c-1.4,2.1-0.7,4,1.7,4.8C55.3,304,56.7,304.1,58.4,304.4z"/>
		<path d="M67.8,247.5c0.8,2.2,0.6,3-1,3.8c-3.2,1.5-6.4,1.5-9.2-0.6c-1.7-1.2-3.1-2.9-4.5-4.5c-1.8-2-3-2.3-5.2-0.7
			c-1.7,1.2-3,2.7-3.5,4.8c5.4,5.8,12.8,7.5,19.8,4.4c0.4,1.3,0.1,2.5-0.4,3.7c-0.7,1.7-1.6,2.3-3.5,2c-2-0.3-4-0.7-5.9-1.4
			c-4.5-1.8-9-3.8-13.4-5.8c-0.7-0.3-1.3-0.6-2.2-1c-0.2,1-0.3,1.8-0.5,2.8c-1.2-1.7-2.5-3.3-3.4-5c-0.3-0.6-0.2-1.6,0.1-2.2
			c0.4-0.9,1.1-1.6,1.8-2.3c4.2-3.9,7.5-8.5,11.1-13c0.9-1.1,1.8-2.3,2.7-3.5c1.7-2.2,3.4-4.3,4-7.1c0.3-1.4,0.9-2.8,2.5-3.6
			c1.6,1.6,3.3,3.1,4.9,4.8c0.4,0.5,0.6,1.3,0.7,2c0.1,2-0.7,3.7-1.8,5.2c-1.2,1.7-2.6,3.3-4,4.9c-0.6,0.8-1.3,1.5-1.8,2.3
			c-2.6,3.6-1.8,7.6,2,9.9c2.3,1.4,4.8,1.4,7.3,1C65.5,248.1,66.6,247.8,67.8,247.5z"/>
		<path d="M325,237.1c2.6,1.3,5.2,2.6,7.8,3.9c13.7,6.7,27.7,12.8,42.5,17c5.9,1.7,11.8,3,17.9,3.4c1.8,0.1,3.6,0.1,5.4,0
			c2.2-0.1,2.5-0.4,2.6-2.6c0.1-2.3-0.1-4.7-0.1-7.1c0-0.8-0.1-1.6,0-2.4c1.9,6.2,4.5,12.2,3.5,19.2c-1.3,0-2.5,0-3.6,0
			c-14-0.4-27.3-3.6-40.2-9.1c-11.9-5-22.9-11.6-33.1-19.5c-0.8-0.7-1.6-1.3-2.5-2c-0.2-0.2-0.3-0.3-0.5-0.5
			C324.9,237.3,325,237.2,325,237.1z"/>
		<path d="M342.1,326.6c0.7,3.2,1,6.4,0.2,9.6c-1,4.3-3.5,6-7.9,5.2c-3.8-0.7-7.6-1.8-11.5-2.2c-3.5-0.4-7.1-0.3-10.7,0
			c-3.8,0.4-7.5,1.2-11.2,2.1c-4.1,1-7.7,2.9-11,5.5c-0.9,0.7-1.8,1.3-2.7,2.1c-1.9,1.7-3.8,1.5-5.8,0.4c-2.1-1.1-3.8-2.8-5.7-5.7
			c1.1,0.5,1.8,0.7,2.4,1c3.1,1.4,5.9,1.3,8.6-1.1c2.6-2.2,5.4-4.2,8.2-6.2c5.9-4.1,12.4-5.9,19.6-5.3c2.2,0.2,4.4,0.3,6.6,0.4
			c4.3,0.3,7.4-1.6,9.2-5.5c1-2,1.7-4.2,2.6-6.5c1.5,3,2.1,6.1,1.6,9.3c-0.5,2.8-2.1,4.7-4.7,5.8c-0.8,0.3-1.7,0.6-2.9,1.1
			c0.9,0.4,1.4,0.7,1.9,0.8c2.8,0.2,5.6,0.4,8.5,0.6c1.4,0.1,2.4-0.7,2.7-2c0.6-2,1-4.1,1.4-6.1c0.2-1,0.2-2.1,0.2-3.1
			C341.8,326.7,341.9,326.7,342.1,326.6z"/>
		<path d="M428.6,206.6c-0.1,5.9-3.5,10.6-9,11.9c-2.5,0.6-4.3,2-5.6,4c-1,1.6-1.9,3.4-2.8,5.1c-1.3-1.8-1.8-4.5-1.4-8.4
			c-2.7-0.3-3-0.1-9.7,7.7c-2.7-5.6-0.4-14,5.8-20.8c-0.9-0.9-2-0.7-2.9-0.4c-2.3,0.9-4.5,1.9-6.6,3c-1.6,0.9-3.1,2-5.1,3.4
			c0.7-3.6,1.6-6.6,4.2-9.1c-3.1-2.2-6.3-1.2-9.6-1c3.7-5.2,11.3-6.6,16.4-3.3c0.8,0.6,1.9,0.9,2.9,1.1c2.2,0.5,4.1,1.5,5.2,3.6
			c0.3,0.5,1.1,0.8,1.7,1.1c1.2,0.6,2.6,0.8,3.6,2.4c-6.1,0.4-8.8,4.8-11.3,9.5c0.5-0.3,1-0.6,1.5-0.9c3.8-2.6,7.9-3.8,12.5-2.5
			c2.3,0.6,4.4,0,6.1-1.7C425.9,210.1,427.2,208.4,428.6,206.6z"/>
		<path d="M55.1,322.7c2.2,0.9,4.3,0.2,6.2-0.7c3.2-1.4,6.1-3.4,8.7-5.8c1.2-1.1,1.9-2.3,1.3-4.1c-0.4-1.3-0.3-2.7-0.1-4.1
			c1.4,1.7,3,3.3,4.3,5.1c0.3,0.4,0.2,1.3,0,1.8c-0.5,1-1.2,2-1.9,2.8c-0.8,1-1.8,1.9-2.7,2.9c-1.5,1.8-1.4,4.5,0.4,6.1
			c0.4,0.4,1.5,0.7,1.9,0.4c1.5-1,3-2,4-3.4c0.7-1,0.5-2.7,0.7-4c2.2,1.1,2.9,2.5,1.9,4.9c-0.5,1.1-1.2,2.1-1.9,3.1
			c-0.6,1-1.1,2.1-0.3,3.2c0.8,1,1.9,1.1,3.1,1c2.6-0.4,4.1-2.8,3.3-5.2c-0.2-0.6-0.5-1.1-0.8-1.8c3.3,1,4.6,3,3.8,6
			c-0.2,0.9-0.6,1.9-1,2.7c-0.4,0.9-0.9,1.7-1.4,2.6c0.7,1.5,2.1,2,3.6,2.2c3.4,0.5,6.7-0.1,9.9-0.8c2.8-0.6,5.5-1.4,8.2-2.1
			c0,0.1,0,0.2,0,0.2c-6.4,3.9-13.1,7.3-20.5,8.7c-0.9,0.2-1.8,0.2-2.7,0.1c-2.2-0.3-3.1-1.4-3.2-3.6c0-0.6,0-1.3,0-1.9
			c-6.3,0-7.2-1.1-6.9-8.6c-1.3,0-2.6,0-3.9,0c-2.3,0-4.3-0.3-5.6-2.6c-1-1.6-2.8-1.6-4.9-1.5c1.4,2.2,3.8,3.3,3.8,6.3
			c-1.8-2.2-3.8-3.5-6.1-4.4C53.7,327.3,53.3,325.6,55.1,322.7z"/>
		<path d="M239,225.8c3.4-0.4,6.7-0.5,9.9-1.9c-1-1.2-2.2-1.5-3.5-1.8c-3.8-0.8-7.4,0-11.1,0.9c-4.8,1.2-9.5,2.7-14.4,3.8
			c-4.3,1-8.7,1.6-13.1,0.9c-1.4-0.2-2.9-0.7-4.1-1.3c-3.3-1.7-6.7-2.2-10.4-1.3c-2.5,0.6-5,0.7-7.5,0.1c-2.3-0.6-3.8-2-4.4-4.4
			c-0.4-1.8-0.1-3.2,1.4-4.4c0.3,1,0.5,1.8,0.9,2.6c1.2,2.2,3.3,3.1,5.7,3.3c1.7,0.1,3.5,0.1,5.1-0.3c3.6-0.9,7.1-0.6,10.6,0.1
			c2.9,0.6,5.7,1.1,8.6,1.5c3.5,0.4,6.8-0.1,9.7-2.3c4.8-3.6,10.4-4.4,16.2-4.1c1.9,0.1,3.8,0.2,5.6,0.5c2.9,0.6,5.5-0.1,7.9-1.5
			c0.6-0.4,1.2-0.7,2-1c-2.4,4.4-4.2,8.8-2.7,14.1C246.8,229.4,242.9,227.6,239,225.8z"/>
		<path d="M300.4,278c2.7-7.6,2.8-15,2-22.5c2.1,0.9,3,2.8,4,8.3c0.3-0.8,0.7-1.4,0.8-1.9c0.5-3,1.1-6.1,1.5-9.1
			c0.1-1.2-0.2-2.4-0.6-3.6c-0.6-1.8-1.5-2.1-3.2-1.4c-3.2,1.3-5.9,3.4-8.1,6.1c-2.9,3.6-4.5,7.7-4.8,12.3
			c-0.3,4.3-0.2,8.6,1.4,12.7c0.8,1.9,1.8,3.8,2.8,5.9c-0.5-0.2-0.9-0.3-1.3-0.6c-3.6-2.4-5-6.1-5.8-10.1c-0.8-3.9-1-7.9,0.1-11.6
			c2.5-8.7,7.6-15.4,16.6-18.3c1.4-0.4,2.3-0.1,3.1,1.1c2.4,3.2,3.6,6.9,3.9,10.9c0.4,4.8-0.2,9.4-1.6,14c-0.9,3-2.1,6-3.3,8.9
			c-1.8,4.1-6.1,5.1-9.9,2.3c1-0.2,1.9-0.4,2.8-0.6c2.3-0.7,4.1-2,5.2-4.2c1.5-3,2.2-6.2,2.7-9.5C306.9,271.1,305.3,275.5,300.4,278
			z"/>
		<path d="M343.8,406.5c-0.3-0.7-0.7-1.4-1-2.2c-1.6-2.9-3-5.9-4.7-8.8c-2.8-4.9-7.4-7.9-12.8-10.7c0.5,1.1,0.7,1.7,1,2.3
			c2.8,5.5,4.9,11.2,5.5,17.3c0.4,3.3,0.1,6.6-1.5,9.7c-0.6-8.4-4.2-15.6-8.9-22.9c-3.3,7.5-6.2,14.7-8.5,22.3
			c-0.8-2.3-1-4.7-0.2-8.1c0.7-3.1,1.7-6.1,2.6-9.1c1.4-4.6,2.8-9.2,4.1-13.8c0.3-1,0.3-2.1,0.4-3.2c2.9-0.2,5.5,0.6,8.1,1.6
			c3.7,1.4,6.8,3.8,9.3,6.9C341.6,393.3,343.5,399.6,343.8,406.5z"/>
		<path d="M448.6,443.5c0.1-1.5,0.3-3,0.4-4.6c0.7-10.1,1.5-20.3,2.1-30.4c0.2-3.8,0.2-7.6,0.3-11.4c0-0.7,0-1.5-0.1-2.2
			c-0.1-2-0.5-3.6-2.6-4.4c-0.9-0.4-1.7-1.2-2.4-2c-2-2.2-1.9-4.4,0.3-6.3c0.5-0.4,1.1-0.8,1.9-1.3c-0.8,4.4-0.8,4.4,3.6,4.9
			c6.7,0.7,13.4,1.4,20.5,2.2c-2,1.2-4,1.2-5.8,1.5c-2.1,0.3-4.2,0.4-6.3,0.5c-2,0.1-4,0-6.1,0c2.4,2.6,5.7,3.6,8.8,5
			c-6.6,9.7-8.6,20.8-11.1,31.8c-1.2,5.5-2.1,11.1-3.2,16.7C448.9,443.5,448.8,443.5,448.6,443.5z"/>
		<path d="M228.2,451.4c0.7-0.4,0.9-0.6,1.2-0.7c5.1-1.4,8.9-4.7,11.8-9c3.1-4.6,4.6-9.8,5.9-15.1c2.1-8.3,0.6-16.3-1.8-24.2
			c-3.2-10.6-8-20.6-13.3-30.3c-0.4-0.6-0.7-1.3-1-1.9c-0.1-0.1,0-0.3,0.1-0.6c0.2,0.1,0.4,0.2,0.5,0.3
			c8.2,11.1,15.2,22.9,19.2,36.2c1.7,5.5,2.5,11.1,2.2,16.8c-0.1,1.4-0.4,2.9-0.8,4.3c-1.8,5.2-4,10.1-7.2,14.6
			c-2.3,3.2-4.9,6.1-8.5,7.9C234.1,451.1,231.5,451.9,228.2,451.4z"/>
		<path d="M183,357.2c1.6,2.5,3.1,4.9,4.8,7.6c-3,1.8-6.3,1.9-9.6,0.7c-3.3-1.2-5.6-3.7-7.9-6.3c0.9,5,3.4,8.9,7.8,11.5
			c4.2,2.4,8.8,2.9,13.9,2.8c-5.3,2.6-13.8,2.1-18.8-2.6c-3.9-3.6-6.3-8.1-7.4-13.2c-1.3-5.7,2.8-12,8.6-13.5c0,0.9,0,1.8,0,2.6
			c0.1,2.5,0.5,5,1.7,7.3C177.9,357.7,179.4,358.3,183,357.2z"/>
		<path d="M84.7,357.8c3.1-1.3,6.3-2.5,9.4-3.8c6.6-2.9,12.8-6.4,18.1-11.3c1.3-1.2,2.5-2.6,3.7-3.9c0.8-0.9,1.2-1.9,0.9-3.1
			c-0.4-1.7-0.7-3.4-1.3-4.9c-0.9-2.3-0.5-4.2,0.8-6.2c1.6-2.3,3-4.7,4.4-7c0.3-0.5,0.5-1,0.9-1.8c-0.8,0-1.5-0.3-1.9-0.1
			c-2,0.9-4.1,1.7-5.8,3c-2.7,2-5.1,4.5-8.1,7.1c0.6-1.1,1-1.7,1.3-2.4c1.4-2.9,2.9-5.8,4.3-8.7c0.6-1.3,0.4-2.4-0.6-3.6
			s-1.8-2.7-2.4-4.4c0.6,0.5,1.1,0.9,1.7,1.4c2.9,2.4,6,4.3,9.7,4.7c2.1,0.3,4.2,0.3,5.8-1.5c2,2.3,2,3.7,0,5.8
			c-1.6,1.8-3.3,3.6-4.8,5.5c-2.8,3.4-3.4,7.1-1,11.1c0.2,0.3,0.4,0.7,0.5,1.1c1.5,3.3,1.4,4-1.2,6.6c-6.7,6.5-14.2,11.9-23.2,14.9
			C92.3,357.4,88.6,358.2,84.7,357.8z"/>
		<path d="M404.3,357.8c0.6,1.5,1.2,3,1.7,4.5c4.9,14,9.9,28.1,14.7,42.1c1.7,4.9,1.5,5-0.7,9.6c-0.9,1.8-1.8,3.6-2.9,5.7
			c-0.9-1.2-1.2-2.3-1.6-3.4c-0.6-1.4-1.2-2.9-1.7-4.3c-0.2-0.6-0.4-1.3-0.2-1.9c1.1-3.6,0.4-7.1-0.3-10.6c-1.9-9.9-5.1-19.5-8.6-29
			c-0.6-1.6-0.9-3.2-0.9-5c0.1-2.6,0-5.2,0-7.8C404,357.8,404.1,357.8,404.3,357.8z"/>
		<path d="M309.2,386.8c-2.3-1-4-3.6-3.5-6.2c1.3-6.8-1.8-11.6-6.9-15.5c-0.3-0.2-0.7-0.3-1-0.7c1.5-0.9,2.6-0.5,3.7-0.1
			c2.1,0.8,3.8,2.2,5.2,4c0.6,0.7,1.2,1.2,2.2,1.2c7-0.2,13.8,1.2,20.6,2.4c6.2,1.1,12.5,2.1,18.7,3.3c3.1,0.6,5.2-0.6,6.9-3
			c0.7-0.9,1.3-1.8,2.1-2.6c-0.2,3.4-0.9,6.6-2.6,9.5c-0.9,1.6-2.2,2-3.9,1.6c-4-1-8-2-12.1-3c-6.2-1.5-12.3-3-18.5-4.3
			c-2.5-0.5-5.2-0.7-7.8-0.7c-3.1-0.1-3.4,0.5-3,3.4c0.2,1.4,0.6,2.9,0.8,4.3C310.7,382.6,310.7,384.7,309.2,386.8z"/>
		<path d="M388.7,185.8c5.1,0.4,9,2.4,11.9,7.2c-3.9-1.3-7.4-2-11-1s-6.4,3.4-9,6.6c-0.8-3.9,0.2-6.9,2.3-9.9
			c-4.7-0.9-8.5,0.8-12.5,2.3c-0.1-2.3,0.7-3.4,5-7.2c-0.9-0.9-1.9-0.9-2.8-0.4c-2,1-4,2.1-6,3.2c-0.8,0.5-1.5,1.1-2.7,1.5
			c1-1.9,2-3.8,3-5.8c-3.2-1.5-5.9,0.2-8.7,1c1.3-3.6,5.7-5.8,9.3-4.6c1.4,0.5,2.6,0.6,4,0.3c2.5-0.5,4.8,0.1,6.9,1.5
			c0.7,0.5,1.6,0.6,2.4,0.8c0.5,0.1,1.1,0.1,1.7,0.1C385.3,181.8,387.7,182.7,388.7,185.8z"/>
		<path d="M279.2,200.5c-3,1.2-3.4,4-4,6.9c-1.1-1.9-0.9-3.7-0.5-5.4c0.7-3,2.6-5.4,4.7-7.6c1.3-1.4,2.7-2.8,3.9-4.3
			c2.9-3.5,6.3-6.4,10.5-8.1c3.1-1.3,6.4-1.9,9.8-1.3c2,0.3,2.8,1.2,3.6,3.5c-4-2.7-7.5-1.1-10.8,0.9c-6.4,3.8-10.7,9.2-11.5,16.9
			c-0.5,5,0.8,9.5,4,13.4c0.6,0.7,1.7,1.5,2.6,1.5c1.8,0.2,3.7-0.1,5.5-0.3c0.8-0.1,1.5-0.4,2.5-0.8c-3,3.3-7.9,3.9-11.4,1.3
			c-5.1-3.8-8.6-8.6-8.5-15.4c0-0.4-0.1-0.8-0.2-1.1C279.4,200.5,279.3,200.5,279.2,200.5z"/>
		<path d="M108.5,279.4c1.9,0.2,3.2,1.2,4,2.6c1.2,2.2,2.4,4.5,3.1,6.8c1.1,4,1.8,8.1,2.6,12.1c0.5,2.6,1.4,3.9,3.6,4.7
			c0.9-0.9,0.9-2.1,0.8-3.1c-0.4-3-0.9-6.1-1.7-9.1c-1.2-4.4-2.8-8.6-5.2-12.6c-0.1-0.2-0.1-0.4-0.3-1.2c1.4,0.8,2.6,1.2,3.4,2
			c1.4,1.4,2.8,3,3.8,4.7c3.2,5.6,4.8,11.7,5.7,18c0.3,1.7-0.2,2.5-1.9,3.2c-1.9,0.8-3.7,0.8-5.7,0.1c-4.4-1.8-7.2-4.7-8-9.5
			c-0.6-3.6-1.5-7.2-2.3-10.7C109.9,284.8,109.2,282.2,108.5,279.4z"/>
		<path d="M213.8,461.3c7.5,0.8,14.9,1.7,22.4,1.7c3.8,0,7.2-1,10-3.7c2.4-2.4,4.9-4.7,7.6-7.2c0,0.6,0.1,1.1,0,1.4
			c-1.7,5.4-3.3,10.7-5.1,16c-1,2.8-1.3,3-4.3,2.6c-2.2-0.3-4.4-0.7-6.4-1.5c-7.9-2.9-15.7-5.9-23.5-8.9
			C214.3,461.7,214,461.5,213.8,461.3z"/>
		<path d="M393.1,236.6c-0.9-0.7-1.7-1.4-2.6-2.1c-12-9.3-24.9-16.7-39.7-20.8c-8.1-2.2-16.4-3.3-24.8-2.4c-0.4,0-0.8,0-1.6,0
			c2.9-1.6,5.6-2.2,8.4-2.8c10.4-2.1,20.2-0.2,29.7,4.1c12,5.4,21.9,13.6,30.7,23.2c0.1,0.1,0.2,0.3,0.2,0.4
			C393.3,236.4,393.2,236.5,393.1,236.6z"/>
		<path d="M489,327.4c-0.3-0.4-0.7-0.8-0.8-1.3c-1.5-7.3-2.8-14.7-4.4-22c-2.3-11-4.8-22-7.2-33.1c-0.7-3.2-2-6-4.6-8
			c-1.4-1.1-2.5-2.5-2.2-4.6c4,2.3,3.9,2.2,7.2-1c1.2-1.2,2.5-2.3,4-3.2c1.8-1.2,3.7-1,5.5,0.9c-0.7,0.3-1.2,0.4-1.7,0.7
			c-1.3,0.7-2.6,1.3-3.8,2.1c-1.2,0.8-1.4,1.8-1.2,3.4c2.9,20,5.6,40.1,8.4,60.1C488.5,323.4,488.7,325.4,489,327.4L489,327.4z"/>
		<path d="M119.3,344.8c1.6,0.7,2.5,2.3,3.1,4.1c0.3,0.8-0.1,1.4-0.8,1.9c-10.1,7.4-20.4,14.2-33,16.7c-3.9,0.8-7.9,0.9-11.8-0.6
			c-2.2-0.9-3-3.1-1.6-4.9c0.4-0.6,1.1-1.1,1.6-1.5c0.3,0.1,0.4,0.2,0.5,0.2c0.9,3.2,3.4,3.6,6.1,3.6c3.2,0.1,6.3-0.6,9.3-1.6
			c8.2-2.8,15.5-7.1,22-12.7C116.3,348.4,117.7,346.6,119.3,344.8z"/>
		<path d="M344.4,240.2c3.1,0.9,6.2,1.8,9.3,2.7c9.1,2.6,18.1,5.2,27.4,6.8c0.9,0.2,1.8,0.2,2.7,0.4c3.5,0.8,6-0.7,7.9-3.4
			c0.7-0.9,1.3-1.8,2.1-3.1c0.9,3.4,1,6.5,0.6,9.7c-0.2,2.1-0.7,2.4-2.9,2.3c-4.5-0.2-8.9-1-13.2-2.2c-11.6-3.1-22.6-7.6-33.5-12.5
			c-0.2-0.1-0.4-0.3-0.6-0.4C344.4,240.4,344.4,240.3,344.4,240.2z"/>
		<path d="M110,338.7c-1,0.9-1.9,1.9-2.9,2.8c-9.9,8.7-21.4,12.5-34.6,11.5c-1.8-0.1-3.1-0.9-3.8-2.5c-0.7-1.6-1.3-3.2-1.8-4.8
			c-0.9-2.8-1.8-5.7-2.8-8.8c0.5,0.1,1,0,1.4,0.3c0.6,0.4,1,1,1.4,1.6c0.5,0.8,0.9,1.6,1.2,2.4c2.1,6.1,6.8,8.3,12.9,8.2
			c4.9-0.1,9.5-1.3,13.9-3.1c4.5-1.8,8.8-4.2,12.8-6.9c0.6-0.4,1.3-0.8,2-1.2C109.8,338.5,109.9,338.6,110,338.7z"/>
		<path d="M103.4,298.9c0.8,1.4,1.4,2.6,2.2,4c-6.7,3.1-9.9,9-12.8,15.2c-0.6-3.3-0.8-6.6,0.7-9.9c-2.4,0.3-3.5,2-5.1,3.3
			c-1-1.4-1.1-2.7-0.5-4.1c0.4-1.1,0.3-2-0.2-3c-1.1-2.3-2.4-4.6-4.3-6.7c-0.9,1-1.6,1.9-2.4,2.8c-0.6-2.7,0.5-5.8,2.5-7.2
			c1.3-0.8,2.3-0.4,2.5,1.2c0.6,3.5,2.4,6.2,5.1,8.3c2.4,1.9,4.4,1.9,6.8,0.1C99.6,301.7,101.4,300.3,103.4,298.9z"/>
		<path d="M274.7,219c-0.4-0.4-0.6-0.5-0.6-0.7c-1.1-4.1-4.3-4.7-7.9-3.6c-3.9,1.2-7.9,5.6-7.3,11.4c0.1,0.8,0.3,1.6,0.6,2.3
			c1.3,3,3.2,4.1,6.4,3.2c1.6-0.4,3.1-1.2,4.5-1.8c-1.5,3.1-6.3,5.4-9.7,4.4c-0.7-0.2-1.3-0.6-1.9-1.1c-2.9-2.6-4.1-6-4.3-9.8
			c0-0.8,0.3-1.6,0.6-2.3c1.9-4.6,5.3-7.9,9.6-10.3c2.8-1.5,5.4-0.9,7.8,0.6c2.2,1.3,2.6,3.6,2.4,6
			C274.9,217.7,274.8,218.1,274.7,219z"/>
		<path d="M281.2,228.4c0.6-1,1.1-2.1,1.8-3.3c-1.7-0.7-3.2,0.5-4.8,0.8c1.3-2,3.5-3,5.6-2.7c2.2,0.3,4.3,0.5,6.5,0.9
			c1.4,0.3,2.7,0.8,4.1,1.3c0.8,0.3,1.7,0.6,2.5,0.8c4,1.4,5.1,4.1,2.9,7.8c-0.5,0.8-1.1,1.6-1.7,2.4c-0.6,0.7-1.1,1.4-1.7,2
			c-0.1-0.1-0.3-0.2-0.4-0.3c0.3-0.6,0.6-1.2,0.9-1.8c0.7-1.6,1.4-3.1,2-4.7c0.4-1.1-0.1-1.9-1.3-2.2c-0.7-0.1-1.5-0.3-2.1-0.1
			c-5,1.1-8.5,4.2-11,8.5c-0.9,1.5-0.7,1.9,1.1,3.6c-0.7,0.3-1.2,0.6-1.8,0.7c-2,0.4-3.3-0.7-3.3-2.7c0-1.9,0.8-3.5,1.9-4.9
			c1.8-2.4,4.2-4,6.9-5.3c0.9-0.4,1.7-0.8,2.5-1.4c-3.5-1-6.8-0.7-9.9,1.2C281.5,228.7,281.4,228.6,281.2,228.4z"/>
		<path d="M33.2,263c0-2,1.6-2.8,2.9-4c0.3,0.7,0.4,1.5,0.9,1.8c0.4,0.4,1.2,0.4,1.9,0.4c3.2,0.1,6.5,0.1,9.7,0.1c0.9,0,1.8,0,2.9,0
			c-1,1.6-2.7,1.9-4.2,2.3s-3.1,0.6-4.8,0.9c-0.2,1.7,0.5,3,1.4,4.1c1.7,2.1,3.4,4.1,5.3,6c2.2,2.1,4.7,4,7,6.1
			c1.6,1.4,1.6,1.7,0.5,3.5c-0.5,0.8-1.1,1.6-1.6,2.4c-0.1,0.2-0.4,0.3-0.7,0.5c-0.3-0.3-0.7-0.6-0.7-0.9c-0.3-2-1.5-3.4-2.7-4.8
			c-3.8-4.6-7.6-9.1-11.4-13.6C36.7,264.4,36.7,264.5,33.2,263z"/>
		<path d="M303,420.6c-1.5-2.8-2.1-6-2.7-9.2c-1.1-5.5,0.5-10.2,4-14.5c0.7-0.9,1.4-1.8,2.2-2.6c4.4-5.2,5.3-7.3,6.5-14
			c0.2,0.6,0.4,1.1,0.5,1.7c0.3,3-0.1,5.9-1.3,8.6c-0.9,2.2-2,4.3-3.1,6.3c-3.6,6.1-5.8,12.7-6.1,19.8
			C302.9,418,303,419.3,303,420.6z"/>
		<path d="M108.9,247.7c-2.5-0.3-4.6-0.4-6.7-0.8c-0.7-0.1-1.3-0.9-1.7-1.5c-2-2.9-4.4-5.2-8-6.8c0.4,1.1,0.7,1.8,0.9,2.6
			c0.1,0.8,0,1.7,0,2.6c-2.1-2.6-4-5-5.9-7.3c2.5-2.2,6.5-2.9,10.1-1.3c1.7,0.7,3.3,1.8,4.6,3.1
			C105.1,240.7,107.1,243.8,108.9,247.7z"/>
		<path d="M296.8,214.4c0.4-0.7,0.7-1.4,1.1-2.1c2.8-5.1,5.3-10.3,6-16.1c0.2-1.8,0.2-3.7-0.1-5.5c-0.4-2.6-1.2-3-3.9-2.8
			c-0.3,0-0.6,0.1-1,0.1c2.3-3.3,6.1-3.2,7.8,0.3c2.1,4.3,2.1,8.9,0.6,13.3C305.4,207,302,211.4,296.8,214.4z"/>
		<path d="M76.3,232.2c0.1,1,0.2,1.9,0.2,2.8c0.1,2.1,0,2.2-2.2,2.7c-0.2,0-0.3,0-0.5,0.1c-0.1,0-0.3,0.1-0.5,0.3c0,0.7,0,1.6,0,2.4
			c0,1,0,2-0.1,2.9c-0.4,2.8-1.2,3.3-3.9,2.9c-3.5-0.5-6.3-2.3-8.7-5c0.8,0.2,1.7,0.5,2.5,0.6c1.7,0.2,3.4,0.5,5.1,0.3
			c2.4-0.2,3.4-1.8,3.4-4.4c-1.9-0.6-3.8-1.2-5.6-1.8c0-0.1,0-0.3,0.1-0.4c0.9,0,1.8,0,2.7,0c1.4-0.1,2.8-0.1,4.1-0.4
			c1.1-0.2,1.8-1.1,1.9-2.3s-0.9-1.6-1.8-1.9c-2-0.8-4-1.6-5.9-3.4c4,0.3,7.8,2.4,11.4-0.1C80.6,230.3,80.1,231.4,76.3,232.2z"/>
		<path d="M90.6,281.7c0.7,1.9,0.1,3.1-1.4,4.2c-2.4,1.8-4.8,3.6-7.1,5.5c-2.8,2.3-5.2,4.9-6.1,8.5c-0.2,0.8-0.6,1.5-0.9,2.2
			c-1.2,3-3.5,4.1-6.6,3.9c-1.5-0.1-3-0.5-4.4-1.2c0.7-0.2,1.5-0.5,2.2-0.7c3.7-1.4,6.3-3.8,8-7.4c0.6-1.2,1.3-2.5,2.3-3.3
			c3.5-3.1,7.2-6.1,10.8-9.1C88.4,283.5,89.4,282.7,90.6,281.7z"/>
		<path d="M65.9,310.1c-4,3.4-8.7,5.1-13.6,7c1.1,1.2,2.1,2.3,3.3,3.5c-2.4-0.5-4.6-1-6.8-1.5c-1.5-0.4-2.4-1.4-2.7-2.8
			c-0.4-1.7-0.5-3.5,0.5-5.2c4.6,1.8,9.2,0.9,13.7,0.2C62.1,311,64,310.5,65.9,310.1z"/>
		<path d="M102,281c0.2,1.4,0.3,2.7,0.5,4.1c0.7,4.6,2.6,8.6,6.6,11.2c2,1.3,2.6,2.8,2.3,5c-0.2,0-0.4,0.1-0.5,0
			c-5.3-3.2-9.3-7.5-11-13.7c-0.3-1.2-0.4-2.6-0.3-3.8C99.7,282.3,100.2,281.8,102,281z"/>
		<path d="M240.9,214.2c0.9-0.1,1.7-0.2,2.6-0.3c1.8-0.2,3.5-0.8,4.9-1.9c3.5-2.6,3.7-6.5,0.5-9.5c-0.2-0.2-0.3-0.4-0.4-0.6
			c4-0.6,6.3,1.6,6,5.4c-0.3,3.6-4,8.5-8.8,8.1c-1.6-0.1-3.2-0.3-4.7-0.5C240.9,214.7,240.9,214.4,240.9,214.2z"/>
		<path d="M60.7,263.5c-1,3.5,1.6,5.8,3,9.1c-2.1-0.8-3.7-1.8-4.9-3.1c-1.3-1.5-2.9-2.2-4.8-2.6c-1.9-0.3-3.8-0.7-5.8-1
			C52.3,265.1,56.3,264.4,60.7,263.5z"/>
		<path d="M296,192.1c3.1-0.6,5.4,1.4,5.3,4.5c0,1-0.2,2.1-0.5,3.1c-0.9,3.4-2.5,6.4-4.9,9.1c0.2-0.7,0.5-1.5,0.7-2.2
			c1-2.9,1.6-5.9,1.7-9C298.3,194.3,298.3,194.3,296,192.1z"/>
		<path d="M243,205.1c1.5,0,2.6,1.1,2.7,2.5c0,1.4-1.1,2.4-2.7,2.4c-1.5,0-2.6-0.9-2.7-2.2C240.1,206.4,241.4,205.2,243,205.1z"/>
		<path d="M215.1,217.2c0,1.2-1.1,1.9-2.2,1.8c-0.9-0.1-1.7-0.3-1.7-1.3c0-0.8,1.1-1.6,2.2-1.4C214.1,216.4,214.6,217,215.1,217.2z"
			/>
		<path d="M489,327.4c0.1,0.7,0.2,1.4,0.3,2.2c-0.1,0-0.2,0-0.4,0C488.9,328.9,489,328.1,489,327.4L489,327.4z"/>
		<path class="st0" d="M279.6,161.6c-0.5-0.4-0.7-0.5-0.9-0.7c-3.9-5.2-9.2-6.7-15.3-5.9c-4.8,0.6-9.6,1.7-14.4,2.5
			c-11.2,1.8-22.4,3.2-33.7,2.5c-5.3-0.3-10.5-0.9-15.5-2.8c-2.7-1-5.4-2.2-7.6-4.8c0.7,0,1-0.1,1.3,0c9.6,3.5,19.5,4.2,29.6,3.9
			c10.4-0.3,20.5-2.2,30.5-4.8c5.6-1.5,11.3-2.4,17.1-1.2c1.8,0.4,3.6,1,5.2,2C279.1,154.4,280.3,157.5,279.6,161.6z"/>
		<path class="st0" d="M258.6,87.7c-0.6,1.2-0.9,1.8-1.2,2.5c-1.5,3.5-0.7,6.9,2.4,9.3c2.8,2.2,6.1,3,9.5,3.4
			c6.8,0.9,13.5,0.3,20.2-0.6c0.4-0.1,0.7-0.2,1.3-0.4c-3.4-0.6-6.7-1.1-9.9-1.8c-2.1-0.5-4.2-1.3-6.2-2.2c-1.9-0.9-3.5-2.3-3.5-4.6
			c0-2.3,1.6-3.7,3.4-4.7c3-1.7,6.4-2.5,9.7-3c10.7-1.4,21.4-1.3,32,1.4c2.5,0.6,4.9,1.7,7.2,2.9c3.1,1.7,3.4,3.6,1.7,6.7
			c-1.5,2.7-3.7,4.5-6.3,5.9c-4.1,2.4-8.6,3.8-13.2,4.8c-12.9,2.9-25.9,3.6-39,3.1c-7.2-0.3-14.5-0.6-21.6-2.2
			c-2.3-0.5-4.6-1.1-6.7-2.1c-4.4-1.9-4.8-4.8-1.4-8.1c0.8-0.7,1.6-1.4,2.5-2C245.2,92.5,251.5,90.2,258.6,87.7z"/>
		<path class="st0" d="M104,182.2c-3.5,1.1-6.7,1.8-9.8,3.1c-9.4,3.7-16.6,10-22.4,18.2c-1.4,2.1-2.7,4.2-4,6.4
			c-0.3,0.5-0.5,1-0.9,1.5c-0.6,0.9-1.6,1.6-2.7,1.3s-1-1.4-0.9-2.3c0.1-1,0.3-2.1,0.6-3.1c4.3-11,12.2-18.2,23.3-22.1
			c4.9-1.7,9.9-2.5,15-2.9C102.8,182.1,103.2,182.2,104,182.2z"/>
	</g>
</g>
</svg>
