<svg id="Layer_1" xmlns="http://www.w3.org/2000/svg" viewBox="0 0 500 500"><style>.st0{fill:#fff}</style><path class="st0" d="M489 331.4c0 .7-.1 1.5-.1 2.2h.4l-.3-2.2c-.3-2-.5-4-.8-6-2.8-20-5.5-40.1-8.4-60.1-.2-1.5.1-2.6 1.2-3.4 1.2-.8 2.5-1.5 3.8-2.1.5-.3 1.1-.4 1.7-.7-1.8-1.9-3.6-2-5.5-.9-1.4.9-2.8 2-4 3.2-3.3 3.2-3.2 3.2-7.2 1-.3 2.1.8 3.5 2.2 4.6 2.7 2.1 3.9 4.8 4.6 8 2.4 11 4.9 22 7.2 33.1 1.5 7.3 2.9 14.7 4.4 22 .1.5.6.9.8 1.3zM294.2 447.9c.9.7 1.4 1 1.8 1.4 3.1 2.6 3.2 5.5.2 8.3-2.2 2.1-5.3 2-6.9-.5-.9-1.3-1.4-2.9-1.7-4.5-.8-3.3-.5-6.7.2-9.9 1.4-6.2 3-12.3 4.3-18.5 1.5-7.2 2.3-14.5.8-21.8-1.1-5.1-3-9.8-6.8-13.5-1.9-1.9-3.5-4.1-5.1-6.2-5.1-7.1-8.8-15.2-10.9-23.8-.3-1.1-.3-2.4-.2-3.5.1-1.5.8-3.1.5-4.5-.6-2.8-.3-5.6 0-8.4.3-2.9 0-5.8 0-8.8 0-.9.1-1.8.3-2.6 2.5-7.1 5.2-14.2 8.9-20.8 1.2-2.1 1.8-4.3 2-6.7.5-6.2.9-12.3 1.5-18.5.5-6.1 1.3-12.1 2.9-18 1.3-4.7 3.1-9.3 6.4-13 .8-.9 1.6-1.7 2.4-2.5-4.9 1.4-8.6 4.2-11.4 8.2-2.4 3.4-3.7 7.2-4.7 11.2-1.4 5.8-1.6 11.8-1.8 17.7-.1 3.9-1.6 6.9-4.3 9.5-1.4 1.3-2.8 2.4-4.2 3.7-.7.6-1.2 1.4-2.1 2.6 3.6.2 5.9-2.2 8.9-2.3.4 1.6-.1 2.9-.9 4-1 1.3-2.1 2.5-3.3 3.5-1.7 1.4-3.7 2.7-5.5 4-.7.5-1.7 1-1.7 2.4 1.6.4 3.1.7 4.9 1.1-1.6 5.2-6.2 6.6-10.1 8.7 1.6 2.3 4 3 6.4 3.8-.9 2.8-4.5 2.3-5.4 5 .4.3.7.5 1.1.7 3.9 1.8 4.1 3.3.9 6.2-.4.4-.9.7-1.3 1.2s-.7 1.2-1.3 2c1 .4 1.8.7 2.5.9.7.2 1.5.2 2.1.5 1.5.7 1.7 2 .5 3.1-.5.5-1.2.8-1.8 1.2-.6.4-1.3.7-1.9 1.1-1.2.9-1.1 1.9.2 2.7.6.3 1.2.4 1.8.6.8.2 1.6.4 2.3.7 1.1.4 1.7 1 1.8 2.3.3 3.4 1.6 6.6 3 9.7 4 8.5 9 16.4 14.8 23.8 3.6 4.6 5.5 9.9 6 15.7.6 6.8-.6 13.3-2.8 19.7-2.5 7.2-3.4 14.7-3.2 22.3.1 2.4.5 4.9 1.3 7.2 1.5 4.7 4.5 6.3 9.4 5.7 2.5-.3 4.6-1.4 6.7-2.7-.4 1-.9 1.9-1.5 2.7-3.5 4.5-8.8 5.1-13.4 1.6-2.3-1.7-3.8-4-4.9-6.6-2.1-5.1-2.9-10.6-2.3-16 .6-5.5 1.7-10.9 2.5-16.4.7-5.1 1.4-10.2 1.6-15.3.2-5.8-1.8-10.8-6.1-14.9-1.2-1.2-2.5-2.4-3.7-3.6-5.8-6-11.6-11.8-17.2-18-3.8-4.2-7-8.8-8.3-14.5-1.5-.2-3-.3-4.4-.6-3.4-.6-6.7-1.2-10-1.9-1.2-.3-2.6-.8-2.4-2.3.1-1.4 1.5-1.6 2.6-1.7 3-.4 6-.5 9-.9 2-.3 4-.6 6-1.1.8-.2 1.8-.5 2.1-1.8-5.2-.9-10.3-1.3-15.1-3.5 2.9-.4 5.8-.5 8.7-.8s5.7-.7 8.4-1.9c-.6-.2-1.3-.1-1.9-.2-3.7-.3-7.5-.5-11.2-1-2.8-.4-5.6-1.1-8.1-2.6-.8-.5-1.9-.9-2-2.3 6.9 0 13.7 1 20.8 0-4.7-.9-8.9-1.5-13.1-2.5-1.8-.4-3.4-1.4-5-2.4-1.3-.8-1.8-2.1-1.7-4.1 5.9 2 11.8 3.2 17.9 3-.8-.6-1.7-1-2.5-1.4-4-1.9-8.1-3.8-12.1-5.7-.9-.4-1.7-1.1-2.5-1.7 2.1 0 4 .4 5.9.8 3.8.7 7.7 1.4 11.6 1.2.8 0 1.8 0 2-1 .1-.8-.1-1.8-.5-2.5-.5-.6-1.2-1.1-1.9-1.4-1.2-.6-2.5-1.1-3.8-1.6-2.5-.9-5.1-1.8-7.5-2.8-1.5-.5-2.8-1.5-3.8-2.7 7.8 1 15.3 2.7 22.6-.4-.7-1.9-1.1-2.5-3-3-2.6-.7-5.2-1.1-7.9-1.6-2.8-.6-5.6-1.1-8.3-1.9-1.1-.3-2.2-.8-2.4-2.3 9.5 1 20.3-.1 25.2-1.6-2.6-.2-4.9-.3-7.1-.6-4.1-.6-8.2-1.2-12.3-2-1.2-.2-2.5-.6-3.6-2 1.4.1 2.5.2 3.5.2 3.5 0 7 .1 10.5-.1 2.8-.1 5.5-.9 8-2.1 1.7-.8 1.9-1.6.7-3-.7-.8-1.7-1.5-2.6-2.2-.4-.3-.8-.6-1.3-1.1 1.2-.4 2.1-.7 3-1.1.8-.3 1.8-.5 1.9-1.7s-.3-2.4-1.4-2.9c-1.1-.6-2.3-.9-3.4-1.1-2-.3-4-.3-6.1-.5-3.3-.3-6.6-.8-9.4-2.8 4.4.7 8.7 2 13.2.8 4.4-1.2 8.4-3 11.4-6.6-.3-.1-.4-.3-.6-.2l-1.4.3c-6.2 1.7-12.5 2.1-18.8.5-3.3-.8-6.6-1.8-9.8-2.9-5.9-1.9-11.9-2.5-18-1-5.5 1.3-10.8.7-15.9-1.8-1.3-.6-2.7-1.2-4-1.7-1.1-.4-2.3-.8-3.5-1.1-1.1-.3-2.2-.2-3.3.7 2.1 1 4 1.9 6.1 2.8-2 2.7.4 3.6 1.5 5-2 4.2-.6 8 1.1 11.9-2.6 2.3-.9 4.9-.3 7.5-2.3 2.1-2.4 4.4-.4 6.8-2.5 1.7-4.9 3.2-3.9 6.7-2.5.9-3.7 2.6-3.4 5.2-2 1.3-3 3.1-3.7 5.2-.7 2-1 4.1-1.7 6.1-3.5 9.8-2.9 19.7.1 29.5 3.1 10 8.5 18.6 15.3 26.4 3.8 4.4 7.8 8.7 12.7 12.1 2.1 1.4 4 3.3 5.8 5.2 9.3 9.9 12.9 21.8 12.1 35.1-.3 4.8-2.5 8.9-6.1 12.1-3.8 3.3-7.4 2.7-9.9-1.6-.3-.6-.6-1.1-.9-1.7-1.6-3.9.3-6.9 4.5-7.1 1.3-.1 2.5 0 3.8 0-2.9-3.7-8.4-4-11.6-1.7-4.7 3.3-7.1 8.1-7.3 13.7-.2 4.7 3.9 9.3 8.7 10.3-1.7-1.7-3.5-3.2-3.9-5.8.6.4.9.6 1.2.9 6.7 5.2 15.4 4.9 21.6-.9 2.7-2.5 4.5-5.6 5.8-8.9 2-5.1 2.7-10.5 3-16 .3-5-.3-9.8-2.2-14.3-2.3-5.5-4.7-11.1-7.4-16.4-3.5-7.1-7.8-13.7-12.4-20.1-1.2-1.6-1.4-3-.5-4.7.1-.2.2-.5.4-.8-4.1-.9-8.1-1.5-11.7-4.2 3.8-1.2 7.2-2.1 10-4.6-.8-.2-1.6-.1-2.3-.2-2.3-.3-4.7-.6-6.9-1.2-1.2-.3-2.8-.8-2.8-2.3 0-1.6 1.4-2.2 2.8-2.7 1-.4 2-.6 3-.9 1.5-.5 2.9-1.1 4.3-1.7.5-.2 1-.7 1.6-1.2-9.6-1.3-16.4-3.6-18.8-6.4 3.4-.1 6.8 0 10.1-2-4-1.8-8.1-2.8-11.6-5.7 5.2-3.3 10.2-1.1 15.2-.5-4.2-5.4-10.9-5.7-16.9-7.8 2.4-2.3 5.4-1.7 8.3-2.4-2.9-2.8-6.5-3.2-10-4.6 1.6-1.4 3.3-1.4 4.8-1.2 3.8.6 7.6 1.5 11.4 2.3 1.8.4 3.5 1.1 5.3 1.6-5-6.3-11.7-9.3-19.6-10.5 1-1.7 2.4-1.8 3.7-1.9 1.5-.1 2.9.1 4.4.2 1.3.1 2.6.3 3.8.5-.9-.8-1.9-1.2-2.8-1.7-1.3-.8-2.7-1.6-3.9-2.5-.9-.7-1.6-1.7-.9-3 2.3.7 4.5 1.4 6.8 1.9 3.3.7 4.7.6 6.9 0-.9-.2-1.6-.4-2.2-.6-2.1-.7-4.3-1.5-6.4-2.3-.9-.4-2-.9-1.9-2.4 4 .3 8 .7 12 .1-1.2-.5-2.5-.8-3.7-1.2-2.3-.9-4.5-1.8-6.7-2.9-1-.5-1.9-1.4-2-2.9 1.6.3 2.9.6 4.3.8 1.4.2 2.7.3 4.1-.1-3-1.3-5.9-2.6-7.8-5.8 2.2.5 4.1 1 6.1 1.4.1-.1.1-.3.2-.4-2.6-1.6-5.4-3.1-6.6-6.6 1.3.5 2.3.8 3.3 1.1l3 .9c1 .3 2.1.5 3.1.7l2.8.3c-2.2-1.1-4.4-1.8-6.6-2.7-2.1-.8-4.4-1.4-6.1-3.8 5.2.1 10.1.9 15 .3-1-.3-2-.5-3-.8-2.2-.6-4.4-1.1-6.5-2-2-.9-2-1.8-.1-3.3 2.6 1.2 5.3 1.2 8.1.6 2.1-.5 4.1-1 6.2-1.3 1.3-.2 2.8-.4 4.1 0 2.8.9 5.6 2.1 8.4 3.2-.4 1.7-.8 3-.9 4.3-.2 1.5-.3 3.1 0 4.5.2 1.2.9 2.4 1.2 3.1-.3 2.3-.8 4.1-.7 5.9s.6 3.6 1 5.6c-3.3 3.2-3.3 7.2-2.2 11.5-3.3 2.1-3.5 5-2.1 8-.9 1.3-1.8 2.4-2.4 3.6-1.2 2.1-1 2.7 1 4.2.1.1.1.3.1.3-1.2 1.9-2.4 3.6-3.3 5.4-1 1.9-.5 2.9 1.4 4 .2.1.4.3.8.5-1.6 1.3-2.9 2.7-2 4.5.7 1.5 2 2.8 3.1 4.2-1.7 1.6-2.3 3.3-1.5 5.4.3.9 1 1.7 1.4 2.5.3.6.8 1.3.7 1.9-.3 3.3.8 6.3 2.7 9 2.4 3.5 4.9 6.9 7.8 10 6.3 6.7 13.1 12.9 21 17.7 3 1.9 5.8 4.2 8.5 6.5 3.5 3.1 6.2 6.9 7.7 11.4.8 2.3 1.2 4.7.6 7.2-1.1 4.4-2.2 8.8-2.9 13.3-1.2 7.2-1.6 14.4-.2 21.6.9 5.2 2.9 10 6.7 13.9 3.9 4.1 8.7 5.8 14.3 5.2 3.8-.4 6.5-2.2 8.4-5.5 2.4-4.4 1.9-8.7-.8-12.7-1.9-2.7-4.6-3.9-8.4-3.3zm-94.1-321.8c-.5 0-.9 0-1.2.1-4.3 1.1-8.4 2.7-12 5.2-7.3 5-10.6 11.8-10.1 20.6.3 3.9 1.8 7 4.8 9.5 2.5 2.1 5.4 3.5 8.5 4.6 6.2 2.2 12.6 3.1 19.1 3.6 6.6.5 13.2.6 19.7-.6s12.9-2.6 19.4-3.7c4.3-.7 8.7-1.4 13-1.7 3.7-.2 7.9 2.9 9 6.1-5.7-1.7-7.6-1.9-13.9-.9-8 1.2-15.9 2.6-23.8 3.8-8.9 1.3-17.7 2.3-26.7 2-5.6-.2-11.2-.9-16.5-3.1-4.9-2.1-8.7-5.3-10.7-10.4-.1-.3-.3-.5-.5-.9-3.3 1-6.2 2.5-8.6 4.9-4.2 4.2-5.2 9.3-3.3 14.8 2 5.7 6.2 9.2 11.7 11.3 4.8 1.8 9.8 2.4 14.8 2.5 10.7.3 21.2-1.5 31.8-3.2 4.7-.8 9.5-1.4 14.2-2 1.3-.2 2.7-.3 4.2.6-2.8.7-5.4 1.3-8 2-8.6 2.2-17.1 4.6-25.7 6.7-5.6 1.4-11.3 2.3-17.1 2.1-6.8-.1-12.9-1.8-17.1-7.7 0 0-.1 0-.4-.1-2.1 1.7-3.2 4-3.3 6.9-.2 6.8 5.3 15.4 11.8 18 3.1 1.3 6.4 1.9 9.7 2.1 6.3.3 12.3-.8 18.2-2.7.6-.2 1.3-.4 2.4-.7-3.1 3.1-6.4 4.8-9.7 6.7 1 0 2 0 2.8-.4 1.8-.9 3.6-2 5.4-2.8a25 25 0 0 1 5.2-1.9c2.1-.4 2.8.6 2 2.5-.5 1.2-1.4 2.4-2.2 3.5-.5.6-1.1 1.2-1.8 2 2.2-.1 3.9-.8 5.4-2 2.3-1.8 3-4.5 3.3-7.3 5.1-1.2 9.1-4.1 12.8-7.5 3.2-2.9 6.9-4.7 11.1-5.2 2.7-.3 5.4-.3 8.2-.4-.5-.3-.8-.6-1.2-.8-3.5-1.7-7.2-2-11-1.4-5.3.8-10.1 3.1-14.6 5.8-1.9 1.2-4 2.2-6.2 2.8-6.7 2.1-13.6 1.8-20.6 1.1-.4 0-.7-.3-1.1-.4 4.6-.8 9.1-1.3 13.5-2.3 7.5-1.6 14.7-4.1 21.1-8.5 4.3-3 9.1-5 14.3-5.9 4.6-.8 8.8-.3 11.7 4 .1.1.3.1.5.2.5-2.5-.3-4.6-2-6.4-2.2-2.4-5.1-3.8-8.1-4.8-7.1-2.3-14.3-2.8-21.7-2.3l-3.5.3c9.7-2.7 19.5-4.5 29.6-3.8 3.1.2 6.1.9 8.9 2.4 2.9 1.6 4.7 3.9 5.1 7.3.1.5.2 1 .3 1.6 2.9-4.4 2.9-10.8-2.3-14.9-1.5-1.1-3.1-2-4.7-3-.4-.3-.8-.6-1.6-1.1 5.9-.9 9.8 2.3 14.4 5-.3-5.7-1.7-10.5-5.1-14.7 4.2 1.8 6.7 5.1 8.1 9.4 2.4-3.5 3-8.1 2-12.5-.8-3.6-2.9-6-6.3-7.2-2.6-1-5.4-1.7-8.2-2-8-.9-15.9.1-23.8 1.7-6.5 1.3-13 2.9-19.7 2.8-7.7-.1-15.3-.7-22.5-3.6-4.1-1.7-7.8-4-10.7-7.4-.3-.4-.5-.8-.9-1.7 12.3 7.6 25.2 8.5 38.8 7-.2-.4-.3-.5-.3-.5l-1.2-.3c-4.5-.7-8.9-1.7-13.2-3.5-3.5-1.4-6.8-3.2-9.4-6-3-3.1-4.6-6.9-4.3-11.3.1-.5 0-1.2 0-2zm159.8-17.7c-.4-.8-.7-1.6-1.2-2.3-1.8-2.2-3.4-4.6-5.5-6.5-4.4-4.2-9.6-7.3-15.2-9.6-19-8-38.8-10.7-59.2-7.8-5.1.7-10 2.2-14.5 4.8-.6.3-1.1.8-2 1.5 4-.6 7.5-1.1 10.9-1.6 0 .2.1.3.1.5-4.6 1.4-9.2 2.7-14.3 4.2.8-1.1 1.2-1.7 1.8-2.4-.4 0-.7-.1-.9 0-5.7 1.6-11.5 3-17.1 4.8-4.2 1.3-8.1 3.3-11.7 5.9-2.2 1.6-4.1 3.4-5.4 5.9-2.3 4.3-1.7 8.5 2 11.7 1.6 1.4 3.5 2.7 5.5 3.5 4 1.6 8 3.2 12.2 4.2 8.8 2.3 17.7 4.2 26.5 6.5 6.5 1.6 12.8 3.7 18.6 7 3.9 2.3 7.3 5.1 9.4 9.3.1.2.3.2.6.4 2.5-4.2.9-8.2-.6-12.3 2.6.3 4.6 1.2 6.5 2.5 2 1.4 3.1 3.4 4.1 5.9 2.6-3.5 2.7-7.3 2.4-11.3 3.3 1 5.7 2.9 7.7 5.6 2.7-4.7.6-8.5-1.6-12.5 2.2.2 3.8 1.2 5.3 2.2 2.7 1.8 4.2 4.4 5 7.7 1.3-1 1.7-2.3 2-3.5.6-2.5.2-5-.3-7.5-.1-.7-.6-1.5-.2-2.3 3.8 1.4 4.4 2.5 5.9 9.7 2.2-2 4-4.2 4.6-7.1.9-3.9-1-7-3.3-9.9 5.2 2.1 9.3 5 9 11.5 2-1.7 2.7-3.1 3.2-5.6.7-3.7.3-7.5-.3-11.2-.3-1.8-.6-3.6-1-5.5 4.5-.9 7.7 1.2 11 3.6zm75.7 12.2c.1 1.5.2 2.7.4 3.9.8 6 2.8 11.4 7 15.8 1 1 1.4 2.1 1.8 3.3 1.2 4 2.4 7.9 3.9 11.8.6 1.5 1.5 2.9 2.7 4 .9.8 1.3 1.5 1.2 2.7 0 1.1 0 2.3.1 3.4.4 5.6.9 11.2 2.8 16.5 1.3 3.6 3 6.9 6.6 8.5.3 4.3.4 8.5.8 12.6.4 4.3 1.1 8.6 3.2 12.4 1.5 2.7 2 5.5 2.2 8.4.6 7.5-.1 14.9-.9 22.4-.3 2.7-.8 5.3 0 8 1.1 4 4.5 5 7.7 2.3.2-.2.4-.5.7-.7 1.8-1.9 4-3 6.6-3.3 1-.1 2-.3 3.2-.5-1.2-2.6-3.3-3-5.6-3.1-2.4-.1-2.7-.2-3.5-2.5-.3-.8-.7-1.7-.7-2.6-.2-3.3-.4-6.6-.3-10 .1-3.6.6-7.1.6-10.7 0-4.3-.9-8.6-3.2-12.4-2.7-4.5-3.8-9.3-3.9-14.4-.1-7.6 2.1-14.6 5.4-21.3.3-.6.6-1.2 1-2.3-4.8 1.5-8.1 4-10.4 8.5-6.7-13.8-7.2-27.6-3.5-41.8-3.9 2.5-6 6.1-7.3 10.4-.5-.7-.8-1.4-1-2.1a38.8 38.8 0 0 1-2-11.2c-.2-6.7.8-13.1 2.7-19.5.2-.6.3-1.3.6-2.4-5.6 3.7-7.6 9.1-9.8 14.5-3.1-10.7.7-20.2 4.7-29.7-6.6 3.2-10.8 8.6-13.7 15.2-2.3-14.1 3.7-24.8 13.8-33.8-.8 0-1.6.1-2.3.3-3.6 1.1-6.6 3-9.3 5.6-3.6 3.5-6 7.9-7.6 12.6-.2.7-.5 1.4-.8 2.1-3-12.9-.6-24.3 9.6-33.9-5.8.7-9.2 4.1-12.8 7.6-1.1-3.1-1.4-7.1-.8-10.8 1.3-8 4.7-15.2 9.1-21.9.4-.6.8-1.3 1.2-1.9-.1-.1-.2-.3-.4-.4-1.4.8-2.8 1.5-4 2.5-4.9 4.1-8.2 9.4-9.7 15.5s-2.1 12.3-2.8 18.5c-.7 6.1-.4 12.2 1 18.2 1.3 5.5 3.3 10.5 8.3 13.9.5.4.8 1.2 1 1.8.8 2.1 1.3 4.2 2.2 6.2.8 1.7 1.9 3.3 4.2 3.8zM126.1 378.1c1.7-.1 2.7.8 3.7 1.6 3 2.4 5.9 4.8 8.8 7.3 10.6 9 21.9 17.2 34.4 23.5 14.1 7.1 29 11.4 44.8 12.3 1.2.1 2.5 0 3.7 0-.6-.5-1.3-.7-2-.9-6-1.8-12-3.5-18-5.4-9.8-3.1-19.4-6.6-28.6-11.2-.8-.4-1.5-.8-2.2-1.2.6-.4 1.1-.5 1.6-.5 7.5-.4 14.9-.7 22.4-1.3 4.5-.3 9-1.1 13.4-2.6 1.3-.4 2.4-1.1 3.9-1.8-.6-.2-.7-.3-.9-.3a194 194 0 0 1-30.5.4c-8.5-.6-17-1.5-25.3-3.9-1.1-.3-2.3-.8-3.3-1.6-3.6-2.7-7.1-5.4-10.5-8.3-4-3.4-7.7-7.2-10.5-11.8-.6-1.1-1-2.1-.6-3.4.5-1.5.2-1.9-1.3-2.7-2.7 3.3-3 3.5-4.9 3.7.5-1 1-1.9 1.4-2.9.4-1.2.8-2.5.9-3.8.1-2.1-1.1-3.1-3.3-3.3.1 2.4-.4 4.5-2.2 6.2-5.6 5.2-11.8 9.7-18.9 12.8-1.7.7-3.5 1.3-5.2 1.9-1.3-1.7-.4-3.1-.2-4.9-2.1 2-3.7 4-4.5 6.6-.4 1.5-.2 2.1 1.1 2.8 1 .5 2.1.9 3.2 1.2 2.5.6 4.4 1.8 6.3 3.6 8.8 8.3 17.6 16.5 26.4 24.7.4.3.7.7 1.1 1 .3.3.7.6 1.1.8-9.4-10.5-19.6-20.2-28.5-31 .7-1.9 2.1-2.6 3.6-2.9 5-1.1 9.9-1.1 14 2.7 3.6 3.4 7.2 6.8 10.7 10.3 6.3 6.3 12.7 12.7 19.7 18.2 11.3 9 23.7 15.7 37.9 18.8.6.1 1.2.1 1.8.2-1.7-1.2-3.6-2-5.4-2.9-19.1-9.5-36.3-21.7-50.3-38-2.9-3.4-5.3-7.2-7.9-10.8-.8-.8-1.4-1.8-.9-3.2zm308-177.9c-.1 0-.2 0-.4.1-.1.2-.2.4-.2.7-.4 7.7-1.8 15.2-3.6 22.6-2.4 9.5-4.8 18.9-7.3 28.3a27.6 27.6 0 0 0 .1 15.6c2.1 7.1 4 14.2 6.4 21.2 4.7 14.2 9.6 28.3 14.6 42.4 2.1 6.1 3.1 12.3 3.1 18.7 0 8.9.1 17.9 0 26.8 0 2.3.9 3.9 2.7 5.1 1 .7 2.1 1.3 3.2 1.7 7 2.6 13.6 1.6 19.7-2.6.4-.3.7-.7 1.3-1.3-.8.1-1.1.2-1.4.2-5.3 1-10.5.8-15.7-.8-3.2-1-3.7-1.7-3.8-5.1v-13.7c0-9.4-1.3-18.6-4.4-27.6-5.6-16-11.2-32.1-16.8-48.1-.3-.7-.5-1.5-.7-2.2.2-.1.3-.1.5-.2l13.2 25.2c4.4 8.4 8.4 17 12.1 25.8 0-1.9-.2-3.8-.8-5.5-2.4-7.3-4.7-14.5-7.3-21.7-3.8-10.7-7.8-21.4-11.6-32.1-2.2-6.1-3.2-12.4-2.9-18.9.5-10.2 1-20.5 1.4-30.7.3-6.5.5-13-.3-19.5-.4-1.5-.8-2.9-1.1-4.4zM221 107.3c-6.7 1.4-12.3 3.6-16 9.3-.5.7-.9 1.6-1.2 2.4-2.2 5.5-1.1 10.5 3.4 14.3 1.8 1.6 3.9 3 6.1 4 3.9 1.7 8 3.3 12.1 4.4 11.8 3.1 24 4.3 36.2 4.5 3 0 6 .2 9 .5 3.2.3 6.2 1.2 9 2.9 3.4 2.1 5.5 5 5.8 9.1 0 .5.1 1 .2 1.9 1.9-1.8 3.2-3.4 4.1-5.5 1.4-3.3 1-6.3-1.6-8.7-1.6-1.6-3.5-2.9-5.5-3.9-3.7-2-7.8-3.2-12-4-9.1-1.9-18.3-3.8-27.1-6.8-5.9-2-11.7-4.3-17-7.9-2.3-1.6-4.4-3.4-5.8-5.8-1.7-2.8-2-5.8-.5-8.8.2-.6.4-1 .8-1.9zm42.9 151.3c-1 .2-1.8.4-2.6.5-4 .4-7.9.9-11.9.9-5.3 0-10.5-1.2-15.4-3.2-4.4-1.8-8.8-1.9-13.4-1.2-2.8.4-5.7.6-8.5.8-2.7.2-5.1-.6-7.3-2.3-1.2-1-2.4-1.9-3.7-2.8-2-1.5-4.2-2.4-6.7-2.5-1.9 0-3.9-.2-5.8-.3-4.3-.3-8.4-1.3-11.5-4.5-.1-.1-.4-.1-.6-.2-1.5 2.3-1.5 4.1 0 6.1 1.7 2.2 3.8 3.5 6.7 3.2 1.3-.2 2.6-.3 3.9-.5 1.8-.2 3.5-.6 5.3-.7.9 0 2 .1 2.8.6 3.3 1.8 6.2 4.3 9 6.9-1.5-.6-2.9-1.3-4.3-2-3.1-1.7-6.2-2.1-9.7-1.3-3 .8-6.1 1.1-9.2.8-.4 0-.8.1-.8.1-.4 1.9-.9 3.5-1.2 5.1-.1.6-.1 1.3.2 1.9.8 1.8.2 3.3-.7 4.8-.8 1.2-1.7 2.2-2.4 3.4-.6 1.1-.9 2.4-1.3 3.6-.3 1-.4 2-.8 3-1 2.5-2.1 4.9-2.2 7.7 0 1.3.1 2.6 1.1 3.5 4.7-.7 4.7-.7 6.1.2-.6.5-1.3 1-1.9 1.5-1.5 1.3-2.8 2.8-3.5 4.6-.5 1.5-.9 3.1-.1 4.5 1.9 3.3 3.9 6.6 5.9 9.8.6 1 1.5 1.9 2.8 2.3 1.8-3 4.9-5.2 5.6-8.9-2-2.8-4.9-3.6-8.4-2.9.8-.7 1.7-1.1 2.5-1.3 1.9-.4 3.9-.6 5.8-.9.9-.1 1.7-.3 2.2-1.4-3.7-2.9-7.8-1.1-11.9-1.1.9-2.2 2.5-3.2 4.4-3.8 2.6-.9 5.3-.6 8-.3.9.1 1.7.3 2.7.4-.3-1.9-1.5-2.5-2.8-3.1-3.3-1.5-6.8-2.1-10.4-2.4-.7-.1-1.3-.2-1.9-.2 0-.2 0-.4.1-.6 4.5-2.2 9.1-.2 14.2.5-1.9-2.6-4.4-2.8-6.7-3.3-2.4-.5-4.9-.3-7.2-1.3 1.2-.5 2.5-.8 3.7-.8 2.3-.1 4.6 0 6.8-.1 1.1 0 2.2-.3 3.3-.5-.2-2-1.3-3.1-2.7-3.8-1.8-.9-3.7-1.6-5.6-2.4-.9-.4-1.7-.7-2.9-1.3 2.8-1.3 5.6-.1 8-1.4-.3-1.8-1.5-2.5-2.6-3.3-1.2-.9-2.4-1.6-3.5-2.6-1-.9-1-1.9 0-2.8.9-.8 1.9-1.5 3.1-1.9 3.9-1.2 7.9-1.8 12-.6 1.6.5 3.1.9 4.7 1.2 9.6 2.3 8 2.5 17.3-.4 4.7-1.4 9.2-1.6 13.9-.5 4.6 1.1 9.2 2 13.8 2.9 4.4.8 8.8.2 12.8-1.9 1.3-.7 2.7-1.5 3.4-3.5zM401.8 295c.2 1 .2 1.5.3 2 .7 3.6 1.4 7.2 1.2 10.9-.2 2.7-.6 3.1-3.3 3-6-.2-11.8-1.1-17.6-2.5-16.1-3.9-30.9-11-44.7-20.1-.7-.5-1.5-.9-2.2-1.4.3 1.7 1.2 3.1 2.5 4.1 2.8 2.3 5.5 4.6 8.5 6.5 6.4 4.2 13.4 7.3 20.5 10.1 11.4 4.5 22.9 8.8 35.2 10.6.3 0 .6.2.8.4-1.5.8-3.1 1.2-4.6 1.4-5.2.5-10.2-.4-15.2-1.8-14.4-3.9-27.8-10-40.7-17.3-10.2-5.8-9.4-4.9-15.8-16.2-.4-.7-.8-1.5-1.2-2.2.4 4.6 1.6 9 3.3 13.3 1.1 3 3.2 5.5 5.9 7.2 1.7 1.1 3.4 2.2 5.2 3.3 8 4.6 16.3 8.5 24.8 12 10.4 4.3 20.8 8.3 31.8 10.7 2.8.6 5.8.9 8.7.9 2.7 0 3.8-1.3 4-4 .1-1.6-.1-3.2-.3-4.8-.3-2.1-.9-4.1-.3-6.2.3-.9 0-1.9-.1-2.9-.7-5.7-3.1-10.7-5.7-15.7-.2-.5-.5-.7-1-1.3zm-148.5-56c-1.2-.3-1.9-.5-2.6-.6-4.1-.6-7.8-1.9-11.4-4.1-1.4-.9-3.1-1.5-4.7-1.8-5.2-1.2-10.4-.3-15.3 1.4-3.2 1.1-6.5 1.5-9.8 1.6-9.7.1-18.8-2.3-27.4-6.8-.8-.4-1.6-.8-2.3-1.1-.5.4-.9.7-1.2 1-1.5 1.7-1.4 2.9.5 4.2.8.5 1.7 1 2.6 1.3 3.1.9 6.3 1.8 9.4 2.4 4.5.9 9 1.6 13.4 2.4 1.3.2 2.3.9 3.3 1.8 1.1 1.1 2.4 2 3.8 2.5 2.4.9 5 1.5 7.5 2 2.2.4 4.4.6 6.6.8-4.9 1.2-9.8 1.5-14.6 0-.7-.2-1.3-.6-1.9-1.1-5-3.9-10.9-5.1-17-4.9-5.4.2-10-.8-13.2-5.5-3.5 2.2-3.7 5.4-.5 7.6 2.3 1.6 5 2.3 7.8 2.6 2.7.2 5.4.3 8 .5 3 .3 5.8 1.2 8.2 3.3 1.2 1 2.7 2 4.2 2.4 2.8.7 5.7 1.2 8.6 1.5 3.7.4 7.3-.7 10.9-1.2 3.9-.5 7.8-.9 11.6.4 5.5 2 11.1 2.9 17 2.7 6.5-.3 12.6-2 18.1-5.7.5-.4 1-.8 1.5-1.3-6.3 1-12.6 1.6-18.8.6-4.5-.7-8.9-1.9-12.6-4.8-5.8-4.6-11.9-5.4-18.7-2.6-4.4 1.8-8.5.5-12.8-1.5.5-.2.6-.4.8-.4 5.6.3 11-.6 16.3-2.3 4.5-1.4 8.9-1.1 13.1 1.7 3.4 2.6 7.3 2.5 11.6 1zm64.8 17.4c.1.2.3.4.4.6 9.4 9.1 19.8 16.9 31.8 22.4 8.8 4 17.9 6.4 27.7 5.8 1-.1 1.9.1 2.9.3 6.4 1.2 12.8 2.5 19.2 3.5 3.2.5 6.5.6 9.7.7 2.2 0 2.5-.6 2.4-2.7 0-.7-.1-1.5-.2-2.2l-3-13.6c-.1-.4-.4-.7-.7-1.4-.1 1-.1 1.6-.2 2.1-.5 2.7-.9 5.5-1.6 8.1-.7 2.5-1.4 2.9-3.9 2.6-3.3-.4-6.6-.8-9.9-1.5-10.7-2.4-20.6-6.9-30.3-12.1-15.8-8.4-30.6-18.5-44.8-29.5-.9-.7-1.8-1.4-2.8-2.1 6.4 9.2 14.5 16.6 23.3 23.2s18.3 12.2 28 17.2c-.7.1-1.4.1-2-.1-16.4-4.5-30.9-13.5-46-21.3zm73 115.4c.9 2 1.6 3.5 2.2 5.1 4.3 10.4 7 21.1 6.2 32.5-.6 8.3-3.3 15.9-8.6 22.4-.3.3-.5.7-.8 1 8.4-5.5 12.6-13.6 14.5-23.8.4.9.6 1.2.7 1.5 1.6 5.8 3.4 11.5 4.7 17.4 1.1 5.1 1.7 10.3.6 15.5-.5 2.3-1.4 4.5-2.1 6.7 3.6-.5 6.4-2.6 8.5-6.7.5-1 .9-2.1.6-3.3-.5-2.1-.8-4.3-1.4-6.4-3-9.3-6.1-18.5-9.2-27.8-2.7-8.2-5.8-16.3-6.8-25.1-1.3-12.1-.9-24 1.5-35.9.3-1.3.5-2.7.8-4.2-3.5-.7-6.9-1.4-10.2-2.1-.4 4.5-.7 8.7-1.2 12.9-.6 4.6-1.6 9.1-3.8 13.3-.7 1.3-1.3 2.6-2.9 3.5-5.5-3.4-8.6-8.9-12.9-14.1.2 1 .3 1.4.4 1.8 2.3 5.1 4.5 10.2 7 15.3.9 1.8 2.1 3.5 3.3 5.1.8 1 1.9 1.7 2.8 2.6 2.8-1.8 4.1-4.5 6.1-7.2zm-54.9-227.2c-1.4.3-2.3 1-2.9 2-2.4 3.9-3.3 8-1.1 12.3.8 1.6 1.8 3.1 2.8 4.6 1.8 2.6 2.6 5.4 2.5 8.5-.1 2.1 0 4.2 0 6.8 2.3-3.1 3.2-6.1 3.9-9.4 1.6 1.5 2.5 3.2 3.2 5 1.6 3.8 1.9 7.6-.5 11.2-1.2 1.8-2.1 3.7-3.5 5.3-1.3 1.5-2.9 2.8-4.6 4-.7.5-1.7.6-3.2 1.1 1.5-2.8 2-5.2 1.3-7.7-.3.1-.4.1-.4.1-.1.2-.3.4-.4.6-1.9 4.3-4.9 7.6-8.7 10.3-.5.4-1.1.7-1.5 1.2-3.1 3.7-5.6 7.8-6.7 12.6-.2.9 0 1.9 0 3 .3-.2.4-.2.4-.3.3-.4.5-.8.8-1.2 3.8-6.9 9.5-11.7 17-14.3 2.6-.9 5.3-1.7 7.9-2.3 3.3-.7 5.8-2.4 7.7-5.1 4.5-6.3 7.9-13.1 10.4-20.3.6-1.8.7-3.6.3-5.5-1.3-6-2.5-12.1-3.9-18.1-.9-3.8-.8-7.4 1-10.9 1-2 1.7-4 2.5-6.1 1-2.9 2-5.8 2.9-8.8.4-1.3.6-2.7.4-4.4-2.4 4.2-4.7 8.2-7 12.1-.5.8-.9 1.7-1.4 2.6-2.3 4.5-3 9.2-1.7 14.2 1.4 5.4 2.7 10.7 3.8 16.1.4 2.1.7 4.5.2 6.5-2 7.5-5.3 14.5-10.4 20.5-.7.8-1.5 1.5-2.3 2.3.1-.9.5-1.6.8-2.3 2-3.7 4.1-7.4 6.1-11.1 1.2-2.3 1.2-4.6.7-7.1-.7-3.4-2-6.6-3.7-9.5-2.4-4.3-4-8.7-4-13.6 0-2 .2-4 .3-6 0-.5.2-1 .4-1.9-.6.5-.8.7-1 .9-3.1 3.5-3.6 7.7-2.7 11.9.8 4 2.3 7.8 3.4 11.7.4 1.4.8 2.9 1.4 4.8-.7-.5-.9-.6-1.1-.7-1.9-3.2-3.8-6.4-5.6-9.7-2.5-5.1-5-9.9-3.8-15.9zM85 208.5c-.2-.1-.3-.2-.5-.3-.5 1-1.1 1.9-1.4 3-.5 1.7-.7 3.5-1.1 5.2-.4 2.1-.7 4.2-1.4 6.2s-3.2 2.8-5.6 2.1c-2-.6-2.5-1.5-2.1-4.2 1.9-11.9 8.2-20.7 18.6-26.5 7.1-3.9 14.7-6 22.7-6.9.1 0 .2-.2.3-.3-.2-.1-.5-.2-.7-.2-.1 0-.2-.1-.2-.1 0-.1 0-.1.1-.3h4.1c-12.4-8.1-38.4-5.7-48 4.7 7.3-3.7 14.5-6 22.3-6.3-1.1.5-2.2.9-3.3 1.2-7.1 2.3-13.8 5.3-19.6 10.1-4.6 3.8-8 8.5-9.5 14.4-.1.3-.2.6-.4.9-.1 0-.3 0-.4-.1v-5.8c-1.6 2.4-2.6 5.1-3 7.9-.2 1.4.1 2.5.8 3.7 3 4.6 7 7.7 12.5 8.6 2.7.4 5.1 1.5 7.5 2.9 1.5.9 3 1.9 4.5 2.9.6.4 1.3.7 1.9 1 1 .4 1.6 0 1.7-1s.2-1.9.1-2.9c-.2-6.8-1.5-13.3.1-19.9zm237.7 89.9c.8-4.3-.1-6.3-3.1-7.4 0 .4-.1.8-.1 1.2-.1 4.7-1.5 9.2-3.8 13.2-4.4 7.7-4 7.3-12.1 9.8l-3 1c2.9 1.1 5.5 1.5 8.1 1.3 2.8-.2 5.2-1.3 6.7-3.8 1.7-2.8 3.4-5.6 5.1-8.3.3-.5.7-1 1-1.5.3 1.1.2 2 0 3-1 5.5-4 9.9-7.5 14-.9 1.4-2.6 2.1-4.2 1.9-5.5-.2-10.9.1-16.3 1.2-4.3.8-8.5 2.1-12.3 4.5-2.7 1.8-4.9 4-6 7.2-.3.9-.3 1.9-.5 3 3.1-1.1 5.8-2.3 8.6-2.9 5.5-1.2 11-2 16.5-3 5.8-1 11.5-1.9 17.3-2.7 1.5-.2 2.7-1 3.8-2 4.9-4.7 7.3-10.6 9-17 1-3.7 0-6.6-2.4-9.4-1-1.8-2.8-3-4.8-3.3zm108.5-126.3c-.7 4.1-.4 7.7.2 11.2.5 2.5 1.5 5 2.3 7.4.7 1.9 1.7 3.7 2.3 5.6 2.8 8.7 3.8 17.8 4.8 26.8 1 9.6 2.5 19.2 5.4 28.4 2.2 7.2 5.1 14.1 9.8 20 2.1 2.6 4.4 5 7.4 6.6.5.3 1.1.4 2 .8-1.6-2.5-3.2-4.6-4.4-6.8-9-15.8-11.8-33-11.2-51 .1-3.6-.4-7.3-.9-10.9-.7-4.7-3.6-8.5-6.5-12.1-4.4-5.6-6.8-11.8-5.9-19 .1-.6-.1-1.4-.4-1.8-1.4-1.6-3-3.2-4.9-5.2zm-98.4 5.3c.1-.7.2-1 .2-1.3.1-3.7-1.1-7-3.1-10.1a23 23 0 0 1-3.8-10.4c-.1-1.2-.3-2.5-.4-3.7-3.5 6.3-2.5 13.1-2 20.3-2.4-2.8-4-5.6-4.8-8.6-.9-3-1.3-6.2-2-9.6-3.3 5.7-2.3 11.6-1.4 17.9-1.6-1.9-3.1-3.5-4.2-5.2-1.2-1.6-2.3-3.4-3-5.3-.7-1.9-.7-4-1-6.4-1.3 2.2-1.9 4.1-2.1 6.1-.1 2-.2 4.1-.1 6.1s.5 3.9.8 5.9c-.3 0-.4.1-.4 0-.3-.2-.5-.4-.8-.6-3.9-3.6-5.5-8.2-5.6-13.3 0-.9 0-1.8-.1-3.1-3.9 3.3-5 7.5-6.4 11.8-1.2-.7-2.2-1.3-3.2-1.8-1.7 7 3.4 13.6 11.8 14.3-3.1-2.8-3.9-6-2.9-9.9.4.3.6.4.7.6 2.4 4.4 5.9 7.4 10.6 9.2 3.5 1.4 5.6 4.1 6.2 7.9.1.9.3 1.8.6 3 2.4-3.6 3-7.1 2.6-11-.3-2.6-.3-5.2-.4-7.8 0-.5.2-1 .3-1.5.2 0 .3-.1.5-.1 1.2 1.8 2.5 3.6 3.4 5.5.9 2 1.6 4.1 2 6.2.4 2.1.3 4.2.4 6.8 3.4-5 4.8-10.1 5.1-15.6.2 0 .3-.1.5-.1.4 1.2 1.1 2.3 2 3.8zm-201.9 118s.1 0 .1-.1c.2-.3.3-.6.4-.9 1.7-4.5 2.6-9 2.5-13.8-.2-8.7-4.1-15-11.6-19.3-.6-.3-1.2-.5-1.8-.8 3.3 3.3 6.4 6.6 8.2 10.9 1.9 4.3 2.3 8.8.9 13.3-.4-.8-.6-1.5-.7-2.3-.9-3.8-2.3-7.5-4.3-10.8-8-13-24.3-17.8-36.4-16-1.9.3-3.8.6-5.2 2.2.8 2.6 3.3 6.5 5.3 8.1l.3-3.1c5.6-1 11-1.1 16.4.1 8.4 1.9 14.8 6.6 18.6 14.4.2.4.3.9.3 1.3-1.2-1.1-2.4-2.2-3.7-3.3-8.5-7.3-18.5-8.2-29-6.6-.5.1-1.2.7-1.3 1.2-.3 1.3-.7 2.7 0 4.2 4.5-1.6 9-2.2 13.7-1.6s9 2.2 12.9 4.7c-.3.1-.5.2-.8.1-5.3-1.8-11-1.1-15.8 1.7-2.7 1.6-5.5 1.2-8.2 0-.7-.3-1.4-.6-2-.9.5 1.5 1.1 2.7 2 3.7 2 2.2 3.5 2.4 6.3 1 2.2-1.1 4.5-2.3 6.9-3 8.7-2.7 16.6.1 21.7 7.7 1.7 2.5 2.9 5.2 4.3 7.9zm210.7 63.5v.6h-3.4c-7.9-.1-15.7-1.6-23.5-2.7-4.8-.7-9.7-1.4-14.5-1.9-2.9-.3-4.4.7-5.5 3.4-.3.7-.5 1.4-.7 2.1-.9 2.1-2 2.6-4 1.7-.9-.4-1.7-.9-2.6-1.4-1.1-.7-2.1-1.5-3.3-2.3 1.3 3 5.4 8.6 7.3 10.2 1.7 1.4 2.8 1.1 3.5-.9.5-1.3.7-2.7 1.1-4 .7-2.3 2.2-3.7 4.6-3.7 2.3-.1 4.6-.2 6.8.4 6.2 1.6 12.3 3.5 18.5 5.3 4.9 1.5 9.7 3.1 14.7 4.4 5.5 1.4 7.9.2 10.8-4.7.4-.8.8-1.6 1.1-2.5.2-.9.3-1.9.4-3.1-2.4 1.3-4 3.6-7.2 3.4 2.4-3.2 4.1-6.2 4.1-9.8.1-3.7-1.5-7.6-3.5-9.1-.7 2-1.2 4.1-2.2 6-1.7 3.3-4.8 4.5-8.4 3.7-.7-.2-1.4-.3-2.1-.5-5.6-1.4-11.2-2.9-17-3.4-3-.2-6.1-.4-9 .5 11.4 1.6 22.4 6 34 8.3zm85.6-329.6c-4.7-2-8.6-1.3-12.2 1.4-3 2.3-5.2 5.4-6.6 8.9-1.9 4.6-3.1 9.4-3.5 14.4-1.1 12.8 2.3 24.6 9 35.5.3.4.6.7 1.1 1.3-.6-4.1-1.2-7.8-1.6-11.6-.7-7.2-.3-14.3 1.8-21.2 1-3.3 2.2-6.5 4.5-9.1 5.2-5.9 11.6-9.8 19.5-11.2.9-.2 1.7-.3 2.6-.5v-.5c-1.9-.4-3.7-1-5.6-1.2-6.9-.8-13.1 1.4-19.5 4.7.9-6.5 5.3-8.8 10.5-10.9zm-40.4 359v2.1c-.2 4 0 8-.7 11.9a51.4 51.4 0 0 1-15.6 29.4c-7.4 7.1-14.8 14.2-21.8 21.6-5 5.2-9.4 11-14 16.6-.5.6-.9 1.4-1.3 2.1.2.2.4.3.6.5.5-.6.9-1.4 1.5-1.9 7.7-7.6 15.8-14.8 24.4-21.3 5.4-4.1 10.9-7.9 16.3-11.9 1.7-1.3 3.5-2.7 4.8-4.4 4-5.2 7-10.9 9.2-17.1 1.8-5 2.7-10 2.2-15.3-.2-4.8-1.9-8.9-5.6-12.3zM370 392c-.9.3-1.3.3-1.7.5-5.5 1.9-9.7 5.6-13.1 10.2-6.3 8.4-10.1 17.9-12.1 28.2-.6 3.3-1.3 6.5-2.1 9.7-2.6 9.4-6.7 18.1-11.4 26.6-.3.6-.7 1.3-1 1.9.2.2.4.3.6.5.3-.5.6-1 1-1.4 11.1-12.2 19.1-26.2 22.8-42.4 1.5-6.8 4.4-12.9 9.5-17.8 2.4-2.3 5.1-4 8.3-5.3-.3-3.6-.5-7-.8-10.7zm-20-75c-.1 1.1-.3 2-.3 2.9 0 4.9.9 9.7 2.1 14.4 3.1 11.4 7.9 22 13.1 32.5 1.4 2.8 2.6 5.8 3.6 8.8 1.1 3.5 2 7 2.8 10.6 1.8 8.6 2.4 17.4 1.3 26.2-.4 2.9-.9 5.7-1.4 9 .6-.9 1-1.5 1.3-2a45 45 0 0 0 4.5-14.3c1.2-8.3.6-16.5-1.2-24.7-1.5-6.8-3.7-13.3-7.2-19.3-2-3.3-3.5-7-5-10.6-3.6-8.7-5.9-17.7-5.2-27.3v-.8c-2.9-1.8-5.5-3.5-8.4-5.4zm64.7-217.2c-.2.3-.5.6-.6 1-1.9 4.3-3 8.8-3.4 13.4-1 12.8 3 24.2 10 34.7.3.4.6.8.9 1.1 6.7 6.4 11.9 14 16.5 22 7 12.1 12.4 24.9 16.9 38 .2.6.5 1.2.7 1.8.3-.8.3-1.6.1-2.3-1.6-9.4-4.3-18.5-7.9-27.3-3.4-8.4-7.7-16.3-12.8-23.8-7-10.3-10-21.7-9-34.2 0-.3 0-.5-.1-1.2-2.2 2.4-2.7 5-3 7.6-.3 2.6-.3 5.2-.1 7.8.1 2.6.5 5.1.8 7.7-2.8-4.4-4.7-9.2-6.1-14.1a81.49 81.49 0 0 1-2.9-32.2zM158.5 439.5c-.1.1-.1.3-.2.4.7.6 1.3 1.2 2 1.7 8.8 7.5 17.5 15.1 26.3 22.6 9.9 8.5 19.7 17 29.6 25.4 1.6 1.3 3.4 2.5 5.3 3.3 2.4 1 4.3.1 4.8-2.5.4-2.3 1.7-3.9 3.2-5.3 2.1-1.9 4.3-3.7 6.5-5.5.5-.4.9-.8 1.6-1.4-3-.7-5.8-1.4-8.4-2.1-2.9 4.4-7 6-11.9 5.7-1.7-.1-3-.7-4.3-1.9-9.4-8.8-19.2-17.3-29.5-25.2-6.6-5-13.4-9.8-20.8-13.6-1.4-.4-2.8-1-4.2-1.6zM58.4 308.4c-1.7-.3-3.1-.4-4.4-.8-2.4-.8-3.1-2.7-1.7-4.8.7-1.1 1.5-2.1 2.5-3 3.5-3.2 7-6.4 10.7-9.3 6.1-4.9 11.3-10.5 15.8-16.9.3-.5.8-.9 1.5-1.8.3 2.5.5 4.5.9 6.5.5 2.9-.5 5-3.1 6.5-2.2 1.3-4.4 2.8-6.4 4.4-4.2 3.2-7.3 7.2-8.4 12.5-.2.7-.2 1.5-.2 2.3 2.3-3.8 4.7-7.2 7.7-10.2 3.4-3.3 7.3-5.9 11.5-8.2 2.3-1.2 3.1-3.1 2.9-5.4-.4-5.2-1.8-10.1-4.8-14.4-.9-1.3-2.2-2.4-3.5-3.4-1.7-1.2-2.8-.9-4 .7-2.9 3.9-4.9 8.4-6.8 12.8 1.4-1.6 2.7-3.4 4-5.1 3-4 3-4 5-4.7-.5 1.2-.9 2.3-1.4 3.2-1.4 2.1-2.7 4.3-4.3 6.2-5.1 5.9-10.2 11.8-15.4 17.6-3.7 4.2-7.6 8.2-11.3 12.5-2.2 2.6-1.5 4.6 1.9 5.8.5-2.8 1.2-3.2 3.9-2.5.9.2 1.7.5 2.6.7 1.7.5 3.2.2 4.8-1.2zm9.4-56.9c-1.2.3-2.3.7-3.4.9-2.5.5-5 .4-7.3-1-3.8-2.3-4.7-6.3-2-9.9.6-.8 1.2-1.5 1.8-2.3 1.3-1.6 2.7-3.2 4-4.9 1.1-1.5 1.9-3.3 1.8-5.2 0-.7-.2-1.5-.7-2-1.5-1.7-3.2-3.2-4.9-4.8-1.5.8-2.1 2.2-2.5 3.6-.6 2.8-2.3 5-4 7.1-.9 1.1-1.8 2.3-2.7 3.5-3.5 4.5-6.8 9.1-11.1 13-.7.6-1.4 1.4-1.8 2.3-.3.6-.4 1.7-.1 2.2 1 1.7 2.2 3.3 3.4 5 .2-1 .3-1.8.5-2.8.9.4 1.5.7 2.2 1 4.5 1.9 8.9 4 13.4 5.8 1.9.7 3.9 1.1 5.9 1.4 1.8.3 2.7-.4 3.5-2 .5-1.2.8-2.4.4-3.7-7 3.1-14.5 1.4-19.8-4.4.5-2.1 1.7-3.6 3.5-4.8 2.2-1.5 3.4-1.3 5.2.7 1.4 1.6 2.8 3.2 4.5 4.5 2.9 2.1 6.1 2.2 9.2.6 1.6-.8 1.8-1.6 1-3.8zM325 241.1c-.1.1-.1.2-.2.3.2.2.3.4.5.5.8.7 1.6 1.4 2.5 2 10.2 8 21.2 14.5 33.1 19.5 12.9 5.4 26.2 8.6 40.2 9.1h3.6c1.1-7-1.5-13.1-3.5-19.2-.2.8 0 1.6 0 2.4.1 2.4.2 4.7.1 7.1-.1 2.2-.5 2.5-2.6 2.6-1.8.1-3.6.1-5.4 0-6.1-.4-12.1-1.7-17.9-3.4-14.7-4.2-28.7-10.3-42.5-17-2.7-1.2-5.3-2.6-7.9-3.9zm17.1 89.5c-.2 0-.3 0-.5.1-.1 1 0 2.1-.2 3.1-.4 2.1-.8 4.1-1.4 6.1-.4 1.3-1.3 2.1-2.7 2-2.8-.1-5.7-.3-8.5-.6-.5 0-1.1-.4-1.9-.8 1.2-.5 2.1-.7 2.9-1.1 2.6-1.1 4.3-3 4.7-5.8.5-3.2-.1-6.3-1.6-9.3-.9 2.3-1.6 4.4-2.6 6.5-1.8 3.9-4.9 5.8-9.2 5.5-2.2-.1-4.4-.2-6.6-.4-7-.6-13.9 1.2-19.6 5.3-2.8 2-5.6 3.9-8.2 6.2-2.7 2.4-5.5 2.5-8.6 1.1-.7-.3-1.3-.6-2.4-1 1.8 3 3.6 4.6 5.7 5.7s4 1.3 5.8-.4c.9-.8 1.8-1.4 2.7-2.1 3.3-2.6 7-4.5 11-5.5 3.7-.9 7.5-1.7 11.2-2.1 3.5-.4 7.2-.4 10.7 0 3.9.4 7.6 1.5 11.5 2.2 4.4.8 6.8-.9 7.9-5.2.9-3.1.6-6.3-.1-9.5zm86.5-120c-1.5 1.7-2.7 3.4-4.2 4.9-1.7 1.7-3.8 2.3-6.1 1.7-4.6-1.2-8.7-.1-12.5 2.5l-1.5.9c2.6-4.7 5.2-9.1 11.3-9.5-.9-1.6-2.3-1.8-3.6-2.4-.6-.3-1.4-.6-1.7-1.1-1.2-2.1-3-3.1-5.2-3.6-1-.2-2-.6-2.9-1.1-5.1-3.3-12.6-1.9-16.4 3.3 3.2-.3 6.5-1.3 9.6 1-2.6 2.5-3.5 5.5-4.2 9.1 2-1.3 3.4-2.5 5.1-3.4 2.1-1.1 4.4-2.1 6.6-3 .9-.4 2-.5 2.9.4-6.1 6.8-8.4 15.2-5.8 20.8 6.7-7.8 7-8 9.7-7.7-.4 3.9 0 6.6 1.4 8.4.9-1.7 1.7-3.5 2.8-5.1 1.3-2 3.1-3.5 5.6-4 5.6-1.4 9.1-6.1 9.1-12.1zM55.1 326.7c-1.7 2.9-1.4 4.6 1.3 5.6 2.3.9 4.4 2.1 6.1 4.4 0-3-2.4-4.1-3.8-6.3 2.1 0 4-.1 4.9 1.5 1.4 2.3 3.4 2.6 5.6 2.6h3.9c-.3 7.4.6 8.5 6.9 8.6v1.9c.1 2.2 1.1 3.3 3.2 3.6.9.1 1.8.1 2.7-.1 7.4-1.5 14.1-4.9 20.5-8.7v-.2c-2.8.7-5.5 1.5-8.2 2.1-3.3.7-6.6 1.3-9.9.8-1.5-.2-2.8-.7-3.6-2.2.5-.9 1-1.7 1.4-2.6s.8-1.8 1-2.7c.7-3-.5-5-3.8-6 .3.7.6 1.2.8 1.8.8 2.5-.7 4.9-3.3 5.2-1.2.2-2.3 0-3.1-1-.8-1.1-.3-2.2.3-3.2.6-1.1 1.4-2 1.9-3.1 1-2.4.3-3.8-1.9-4.9-.2 1.3 0 3-.7 4-.9 1.4-2.5 2.5-4 3.4-.4.3-1.5 0-1.9-.4a4.39 4.39 0 0 1-.4-6.1c.8-1 1.8-1.9 2.7-2.9.7-.9 1.4-1.8 1.9-2.8.3-.5.3-1.4 0-1.8-1.3-1.8-2.8-3.4-4.3-5.1-.3 1.5-.3 2.9.1 4.1.6 1.8-.1 2.9-1.3 4.1a30.1 30.1 0 0 1-8.7 5.8c-2.1.8-4.1 1.4-6.3.6zM239 229.8c3.9 1.8 7.9 3.6 12.6 3.2-1.5-5.3.2-9.7 2.7-14.1-.8.3-1.4.6-2 1-2.5 1.4-5 2.1-7.9 1.5-1.8-.4-3.7-.4-5.6-.5-5.8-.3-11.4.5-16.2 4.1-2.9 2.2-6.2 2.8-9.7 2.3-2.9-.4-5.8-.9-8.6-1.5-3.5-.7-7-1-10.6-.1-1.6.4-3.4.4-5.1.3-2.4-.1-4.5-1-5.7-3.3-.4-.8-.6-1.6-.9-2.6-1.5 1.3-1.9 2.7-1.4 4.4.6 2.4 2.1 3.7 4.4 4.4 2.5.7 5 .6 7.5-.1 3.6-.9 7.1-.4 10.4 1.3 1.3.6 2.7 1.1 4.1 1.3 4.4.7 8.8.1 13.1-.9 4.8-1.1 9.6-2.6 14.4-3.8 3.6-.9 7.3-1.7 11.1-.9 1.3.3 2.5.6 3.5 1.8-3.5 1.7-6.8 1.8-10.1 2.2zm61.4 52.2c4.9-2.5 6.5-6.8 8.5-10.9-.5 3.3-1.2 6.5-2.7 9.5-1.1 2.1-3 3.6-5.2 4.2-.9.3-1.9.4-2.8.6 3.8 2.8 8.1 1.9 9.9-2.3 1.2-2.9 2.4-5.9 3.3-8.9 1.4-4.5 2-9.2 1.6-14-.4-4-1.5-7.6-3.9-10.9-.8-1.1-1.8-1.5-3.1-1.1-9.1 2.9-14.2 9.5-16.6 18.3-1 3.7-.8 7.8-.1 11.6.8 4 2.2 7.7 5.8 10.1.4.3.9.4 1.3.6-1-2.1-2-3.9-2.8-5.9-1.6-4.1-1.7-8.4-1.4-12.7.3-4.6 1.9-8.7 4.8-12.3 2.2-2.7 4.9-4.8 8.1-6.1 1.7-.7 2.6-.4 3.2 1.4.4 1.1.7 2.4.6 3.6-.3 3.1-.9 6.1-1.5 9.1-.1.6-.4 1.1-.8 1.9-.9-5.5-1.9-7.5-4-8.3.6 7.5.5 14.9-2.2 22.5zm43.4 128.5c-.4-6.9-2.2-13.2-6.5-18.6-2.5-3.1-5.6-5.5-9.3-6.9-2.6-1-5.2-1.8-8.1-1.6-.1 1.2-.2 2.2-.4 3.2-1.3 4.6-2.7 9.2-4.1 13.8-.9 3-1.9 6-2.6 9.1-.8 3.4-.6 5.8.2 8.1 2.3-7.6 5.2-14.8 8.5-22.3 4.7 7.3 8.3 14.5 8.9 22.9 1.6-3.1 1.9-6.4 1.5-9.7-.7-6.1-2.8-11.8-5.5-17.3-.3-.6-.5-1.2-1-2.3 5.4 2.9 9.9 5.8 12.8 10.7 1.7 2.9 3.2 5.9 4.7 8.8.2.6.6 1.4.9 2.1zm104.8 37h.4c1.1-5.6 2-11.2 3.2-16.7 2.5-11 4.5-22.1 11.1-31.8-3.1-1.4-6.4-2.4-8.8-5 2.1 0 4.1.1 6.1 0 2.1-.1 4.2-.2 6.3-.5 1.9-.3 3.9-.3 5.8-1.5-7.1-.8-13.8-1.5-20.5-2.2-4.4-.5-4.4-.5-3.6-4.9-.7.5-1.4.8-1.9 1.3-2.3 2-2.4 4.1-.3 6.3.7.8 1.5 1.6 2.4 2 2.1.9 2.6 2.5 2.6 4.4 0 .7.1 1.5.1 2.2-.1 3.8-.1 7.6-.3 11.4l-2.1 30.4c-.1 1.5-.3 3.1-.5 4.6zm-220.4 7.9c3.3.5 5.8-.3 8.3-1.6 3.6-1.8 6.2-4.7 8.5-7.9 3.2-4.5 5.4-9.4 7.2-14.6.5-1.4.7-2.8.8-4.3.4-5.7-.5-11.4-2.2-16.8-4-13.3-11-25.1-19.2-36.2-.1-.1-.3-.2-.5-.3 0 .3-.1.4-.1.6.3.7.7 1.3 1 1.9 5.3 9.7 10.1 19.7 13.3 30.3 2.4 7.9 3.8 15.9 1.8 24.2-1.3 5.3-2.8 10.5-5.9 15.1-2.9 4.3-6.6 7.6-11.8 9-.3.1-.5.3-1.2.6zM183 361.2c-3.5 1.1-5 .4-6.9-3.1-1.2-2.3-1.7-4.7-1.7-7.3v-2.6c-5.8 1.5-9.9 7.9-8.6 13.5 1.2 5 3.5 9.6 7.4 13.2 5 4.7 13.5 5.2 18.8 2.6-5.1.2-9.7-.3-13.9-2.8-4.4-2.6-6.9-6.5-7.8-11.5 2.2 2.6 4.6 5.1 7.9 6.3 3.3 1.2 6.6 1 9.6-.7-1.7-2.6-3.3-5.1-4.8-7.6zm-98.3.6c3.8.4 7.5-.4 11.1-1.6 9-3.1 16.4-8.4 23.2-14.9 2.6-2.5 2.8-3.3 1.2-6.6-.2-.4-.3-.7-.5-1.1-2.3-3.9-1.7-7.6 1-11.1 1.5-1.9 3.2-3.7 4.8-5.5 1.9-2.2 1.9-3.5 0-5.8-1.6 1.8-3.7 1.8-5.8 1.5-3.8-.5-6.9-2.4-9.7-4.7l-1.7-1.4c.6 1.7 1.4 3.2 2.4 4.4 1 1.2 1.2 2.3.6 3.6-1.4 2.9-2.8 5.8-4.3 8.7-.3.7-.7 1.3-1.3 2.4 3-2.6 5.4-5.1 8.1-7.1 1.7-1.3 3.8-2.1 5.8-3 .5-.2 1.1 0 1.9.1-.4.8-.6 1.3-.9 1.8-1.5 2.4-2.9 4.7-4.4 7-1.3 2-1.8 3.9-.8 6.2.6 1.6.9 3.3 1.3 4.9.3 1.2 0 2.2-.9 3.1-1.2 1.3-2.4 2.7-3.7 3.9-5.3 4.9-11.5 8.4-18.1 11.3-2.9 1.5-6.1 2.6-9.3 3.9zm319.6 0c-.1 0-.2.1-.4.1 0 2.6.1 5.2 0 7.8 0 1.7.3 3.4.9 5 3.4 9.5 6.7 19 8.6 29 .7 3.5 1.4 7 .3 10.6-.2.6 0 1.3.2 1.9.5 1.5 1.1 2.9 1.7 4.3.4 1.1.7 2.2 1.6 3.4 1.1-2.1 2-3.9 2.9-5.7 2.3-4.6 2.4-4.7.7-9.6-4.8-14.1-9.8-28.1-14.7-42.1-.7-1.7-1.3-3.2-1.8-4.7zm-95.1 29c1.5-2 1.5-4.2 1.1-6.4-.2-1.4-.6-2.9-.8-4.3-.5-2.9-.1-3.5 3-3.4 2.6.1 5.2.2 7.8.7 6.2 1.3 12.3 2.8 18.5 4.3 4 1 8 2 12.1 3 1.7.4 3 0 3.9-1.6 1.6-3 2.3-6.2 2.6-9.5-.8.8-1.5 1.7-2.1 2.6-1.7 2.4-3.8 3.6-6.9 3-6.2-1.2-12.5-2.2-18.7-3.3-6.8-1.2-13.6-2.6-20.6-2.4-1.1 0-1.6-.4-2.2-1.2-1.4-1.7-3.1-3.1-5.2-4-1.1-.4-2.2-.8-3.7.1.2.3.7.4 1 .7 5.1 3.9 8.1 8.7 6.9 15.5-.7 2.6 1 5.1 3.3 6.2zm79.5-201c-1-3.1-3.4-4-6.2-4.3-.6 0-1.2 0-1.7-.1-.8-.2-1.7-.4-2.4-.8-2-1.5-4.5-2.1-6.9-1.5-1.4.3-2.6.1-4-.3-3.5-1.2-7.9 1.1-9.3 4.6 2.9-.8 5.6-2.5 8.7-1-1 2-2 3.9-3 5.8 1.1-.3 1.9-1 2.7-1.5 2-1.1 3.9-2.2 6-3.2.9-.4 2-.5 2.8.4-4.3 3.8-5 4.9-5 7.2 3.9-1.5 7.8-3.2 12.5-2.3-2.1 3-3.1 6.1-2.3 9.9 2.6-3.2 5.3-5.5 9-6.6 3.6-1 7.1-.3 11 1-2.9-4.9-6.8-6.8-11.9-7.3zm-109.5 14.7c.1.1.3.1.3.1.1.4.2.8.2 1.1-.1 6.7 3.4 11.6 8.5 15.4 3.5 2.6 8.5 2 11.4-1.3-1 .3-1.8.7-2.5.8-1.8.2-3.7.4-5.5.3-.9-.1-2-.8-2.6-1.5-3.2-3.9-4.5-8.4-4-13.4.8-7.7 5.1-13 11.5-16.9 3.3-1.9 6.8-3.6 10.8-.9-.8-2.4-1.7-3.2-3.6-3.5-3.4-.6-6.6 0-9.8 1.3-4.2 1.7-7.6 4.7-10.5 8.1-1.3 1.5-2.6 2.9-3.9 4.3-2.1 2.2-3.9 4.6-4.7 7.6-.4 1.7-.6 3.5.5 5.4.5-3 .9-5.8 3.9-6.9zm-170.7 78.9c.7 2.9 1.3 5.5 1.9 8.1.8 3.6 1.7 7.1 2.3 10.7.8 4.9 3.6 7.8 8 9.5 2 .8 3.8.7 5.7-.1 1.7-.7 2.2-1.5 1.9-3.2-.9-6.3-2.5-12.4-5.7-18-1-1.7-2.4-3.3-3.8-4.7-.8-.8-2-1.2-3.4-2 .2.7.2 1 .3 1.2 2.4 3.9 4 8.2 5.2 12.6.8 3 1.2 6 1.7 9.1.2 1.1.2 2.3-.8 3.1-2.2-.8-3.1-2.1-3.6-4.7-.8-4.1-1.5-8.2-2.6-12.1-.7-2.4-1.9-4.6-3.1-6.8-.7-1.6-2.3-2.6-4-2.7zm105.3 181.9c.3.2.5.4.8.5 7.8 3 15.6 6 23.5 8.9 2 .7 4.2 1.2 6.4 1.5 3 .4 3.4.2 4.3-2.6 1.8-5.3 3.4-10.7 5.1-16 .1-.4 0-.8 0-1.4-2.7 2.5-5.2 4.9-7.6 7.2-2.8 2.7-6.2 3.6-10 3.7-7.6-.1-15-1-22.5-1.8zm179.3-224.7c.1-.1.1-.2.2-.3-.1-.1-.1-.3-.2-.4-8.8-9.6-18.7-17.8-30.7-23.2-9.5-4.3-19.3-6.2-29.7-4.1-2.7.5-5.5 1.2-8.4 2.8h1.6c8.4-.9 16.7.2 24.8 2.4 14.7 4 27.7 11.5 39.7 20.8 1 .6 1.9 1.3 2.7 2zM119.3 348.8c-1.6 1.8-3 3.7-4.6 5.1-6.5 5.7-13.8 10-22 12.7-3 1-6.1 1.7-9.3 1.6-2.7-.1-5.2-.5-6.1-3.6 0 0-.1-.1-.5-.2-.5.5-1.1.9-1.6 1.5-1.3 1.8-.6 4 1.6 4.9 3.8 1.5 7.8 1.4 11.8.6 12.5-2.5 22.9-9.3 33-16.7.7-.5 1-1 .8-1.9-.6-1.7-1.4-3.4-3.1-4zm225.1-104.6c0 .1-.1.2-.1.4.2.1.4.3.6.4 10.9 5 21.9 9.4 33.5 12.5 4.3 1.2 8.7 2 13.2 2.2 2.2.1 2.6-.2 2.9-2.3.3-3.1.2-6.2-.6-9.7-.9 1.2-1.5 2.2-2.1 3.1-2 2.7-4.4 4.3-7.9 3.4-.9-.2-1.8-.2-2.7-.4-9.3-1.7-18.3-4.2-27.4-6.8-3.2-1-6.3-1.9-9.4-2.8zM110 342.7c-.1-.1-.2-.3-.3-.4-.7.4-1.3.8-2 1.2-4.1 2.7-8.3 5.1-12.8 6.9s-9.1 3-13.9 3.1c-6.1.1-10.7-2.1-12.9-8.2-.3-.8-.7-1.6-1.2-2.4-.4-.6-.8-1.2-1.4-1.6-.3-.3-.9-.2-1.4-.3 1 3.1 1.8 6 2.8 8.8.5 1.6 1.1 3.2 1.8 4.8.7 1.6 2 2.4 3.8 2.5 13.2 1 24.7-2.8 34.6-11.5l2.9-2.9zm-6.6-39.8c-2 1.4-3.8 2.8-5.6 4.1-2.4 1.8-4.5 1.9-6.8-.1-2.6-2.2-4.5-4.9-5.1-8.3-.3-1.6-1.3-2.1-2.5-1.2-2 1.3-3.1 4.5-2.5 7.2.8-.9 1.6-1.8 2.4-2.8 1.9 2.1 3.2 4.3 4.3 6.7.5 1 .6 1.9.2 3-.6 1.4-.5 2.8.5 4.1 1.6-1.4 2.7-3 5.1-3.3-1.4 3.4-1.3 6.6-.7 9.9 3-6.2 6.1-12.2 12.8-15.2-.7-1.5-1.4-2.7-2.1-4.1zM274.7 223c.1-.8.2-1.3.3-1.7.2-2.4-.1-4.6-2.4-6-2.5-1.5-5.1-2.1-7.8-.6-4.3 2.4-7.6 5.7-9.6 10.3-.3.7-.7 1.6-.6 2.3.2 3.8 1.4 7.2 4.3 9.8.5.5 1.2.9 1.9 1.1 3.4 1 8.2-1.3 9.7-4.4-1.4.6-2.9 1.4-4.5 1.8-3.2.9-5.1-.2-6.4-3.2-.3-.7-.5-1.6-.6-2.3-.6-5.8 3.4-10.2 7.3-11.4 3.7-1.2 6.8-.5 7.9 3.6-.1.1.1.2.5.7zm6.5 9.4l.4.4c3.1-2 6.5-2.2 9.9-1.2-.8.6-1.7 1-2.5 1.4-2.7 1.3-5.1 2.9-6.9 5.3-1.1 1.5-1.9 3.1-1.9 4.9 0 2.1 1.3 3.1 3.3 2.7.6-.1 1.2-.4 1.8-.7-1.8-1.7-2-2.1-1.1-3.6 2.5-4.3 6-7.4 11-8.5.7-.1 1.4 0 2.1.1 1.2.2 1.7 1.1 1.3 2.2-.6 1.6-1.3 3.1-2 4.7l-.9 1.8c.1.1.3.2.4.3.6-.7 1.2-1.3 1.7-2 .6-.8 1.2-1.5 1.7-2.4 2.2-3.6 1.2-6.4-2.9-7.8-.8-.3-1.7-.6-2.5-.8-1.4-.4-2.7-1-4.1-1.3-2.1-.4-4.3-.6-6.5-.9-2.1-.3-4.3.8-5.6 2.7 1.6-.3 3-1.5 4.8-.8-.3 1.5-.9 2.5-1.5 3.5zM33.2 267c3.5 1.4 3.5 1.4 6.5 4.9 3.8 4.5 7.6 9.1 11.4 13.6 1.2 1.4 2.4 2.9 2.7 4.8 0 .3.4.6.7.9.3-.2.5-.3.7-.5.6-.8 1.1-1.6 1.6-2.4 1.1-1.8 1-2.1-.5-3.5-2.3-2-4.8-3.9-7-6.1-1.9-1.9-3.7-3.9-5.3-6-1-1.1-1.5-2.6-1.4-4.1 1.6-.3 3.2-.5 4.8-.9 1.5-.4 3.1-.6 4.2-2.3h-2.9c-3.2 0-6.5 0-9.7-.1-.6 0-1.4 0-1.9-.4-.4-.4-.6-1.1-.9-1.8-1.4 1.2-3 1.9-3 3.9zM303 424.6v-3.9c.3-7.1 2.5-13.7 6.1-19.8 1.2-2 2.2-4.1 3.1-6.3 1.2-2.7 1.6-5.6 1.3-8.6-.1-.6-.3-1.1-.5-1.7-1.2 6.7-2.1 8.7-6.5 14-.7.9-1.4 1.8-2.2 2.6-3.5 4.2-5.1 8.9-4 14.5.6 3.2 1.2 6.3 2.7 9.2zM108.9 251.7c-1.8-3.9-3.8-7-6.7-9.5-1.4-1.2-3-2.3-4.6-3.1-3.6-1.6-7.6-.9-10.1 1.3 1.9 2.4 3.8 4.8 5.9 7.3 0-.9.1-1.8 0-2.6s-.5-1.5-.9-2.6c3.6 1.6 6 3.9 8 6.8.4.6 1.1 1.3 1.7 1.5 2 .5 4.1.7 6.7.9zm187.9-33.3c5.1-3 8.6-7.4 10.5-12.8 1.5-4.4 1.5-9-.6-13.3-1.7-3.5-5.5-3.6-7.8-.3.4 0 .7-.1 1-.1 2.7-.3 3.4.1 3.9 2.8.3 1.8.3 3.7.1 5.5-.7 5.8-3.1 11-6 16.1-.3.7-.7 1.4-1.1 2.1zM76.3 236.2c3.8-.8 4.3-1.9 2-4.8-3.6 2.5-7.3.4-11.4.1 1.9 1.8 3.9 2.6 5.9 3.4 1 .4 1.9.7 1.8 1.9 0 1.2-.8 2-1.9 2.3-1.3.3-2.7.3-4.1.4-.9.1-1.8 0-2.7 0 0 .1 0 .3-.1.4 1.9.6 3.8 1.2 5.6 1.8 0 2.7-1 4.2-3.4 4.4-1.7.2-3.4-.1-5.1-.3-.8-.1-1.7-.4-2.5-.6 2.4 2.6 5.2 4.5 8.7 5 2.7.4 3.5-.2 3.9-2.9.1-1 .1-1.9.1-2.9V242c.3-.1.4-.2.5-.3.2 0 .3 0 .5-.1 2.2-.5 2.3-.6 2.2-2.7.2-.8.1-1.7 0-2.7zm14.3 49.5c-1.2 1-2.2 1.9-3.3 2.7-3.6 3-7.3 6-10.8 9.1-1 .9-1.7 2.1-2.3 3.3-1.7 3.6-4.3 6-8 7.4-.7.3-1.5.5-2.2.7 1.5.7 2.9 1.1 4.4 1.2 3 .2 5.4-.9 6.6-3.9.3-.8.7-1.5.9-2.2 1-3.6 3.3-6.3 6.1-8.5 2.3-1.9 4.7-3.7 7.1-5.5 1.6-1.2 2.2-2.5 1.5-4.3zm-24.7 28.4c-1.9.4-3.8.8-5.7 1.1-4.6.7-9.1 1.6-13.7-.2-.9 1.7-.9 3.5-.5 5.2.3 1.4 1.2 2.5 2.7 2.8 2.2.5 4.4 1 6.8 1.5-1.1-1.2-2.1-2.3-3.3-3.5 5.1-1.7 9.8-3.4 13.7-6.9zM102 285c-1.8.8-2.3 1.2-2.4 2.7-.1 1.3 0 2.6.3 3.8 1.7 6.1 5.7 10.4 11 13.7.1.1.3 0 .5 0 .3-2.2-.3-3.7-2.3-5-4-2.6-5.9-6.6-6.6-11.2-.2-1.2-.3-2.6-.5-4zm138.9-66.8v.7c1.6.2 3.2.3 4.7.5 4.8.4 8.5-4.5 8.8-8.1.3-3.8-2-6-6-5.4.2.2.3.4.4.6 3.2 3 3 6.9-.5 9.5a9.54 9.54 0 0 1-4.9 1.9c-.7.1-1.6.2-2.5.3zM60.7 267.5c-4.4.9-8.4 1.6-12.5 2.4 2 .3 3.9.7 5.8 1 1.9.3 3.5 1 4.8 2.6 1.2 1.4 2.7 2.4 4.9 3.1-1.4-3.3-4-5.6-3-9.1zM296 196.1c2.4 2.2 2.4 2.2 2.3 5.4-.1 3.1-.7 6.1-1.7 9-.2.7-.5 1.5-.7 2.2 2.4-2.6 4-5.7 4.9-9.1.3-1 .5-2.1.5-3.1 0-3-2.2-5-5.3-4.4zm-53 13c-1.6 0-2.9 1.3-2.8 2.7.1 1.3 1.2 2.2 2.7 2.2 1.7 0 2.7-1 2.7-2.4s-1.1-2.5-2.6-2.5zm-27.9 12.1c-.5-.3-1-.8-1.7-.9-1.1-.2-2.2.6-2.2 1.4 0 1 .8 1.3 1.7 1.3 1.1.1 2.2-.6 2.2-1.8z"/><path d="M294.2 447.9c3.8-.6 6.5.6 8.3 3.2 2.7 4 3.2 8.3.8 12.7-1.8 3.3-4.5 5.1-8.4 5.5-5.7.6-10.4-1.1-14.3-5.2-3.7-3.9-5.7-8.6-6.7-13.9-1.3-7.2-1-14.4.2-21.6.8-4.5 1.9-8.9 2.9-13.3.6-2.5.2-4.8-.6-7.2a26.3 26.3 0 0 0-7.7-11.4c-2.7-2.4-5.4-4.7-8.5-6.5-7.9-4.8-14.7-11-21-17.7-2.9-3.1-5.4-6.5-7.8-10-1.8-2.6-2.9-5.6-2.7-9 0-.6-.4-1.3-.7-1.9-.4-.9-1.1-1.6-1.4-2.5-.7-2.1-.2-3.8 1.5-5.4-1.1-1.4-2.4-2.6-3.1-4.2-.9-1.8.4-3.2 2-4.5-.4-.2-.6-.4-.8-.5-1.9-1.1-2.3-2-1.4-4 .9-1.9 2.2-3.6 3.3-5.4 0 0 0-.2-.1-.3-2-1.5-2.2-2.1-1-4.2.7-1.2 1.5-2.3 2.4-3.6-1.4-3-1.2-5.9 2.1-8-1.1-4.3-1.2-8.3 2.2-11.5-.4-1.9-1-3.7-1-5.6-.1-1.8.4-3.6.7-5.9-.3-.7-1-1.9-1.2-3.1-.2-1.5-.1-3 0-4.5.1-1.4.6-2.7.9-4.3-2.9-1.1-5.6-2.3-8.4-3.2-1.2-.4-2.7-.2-4.1 0-2.1.3-4.1.8-6.2 1.3-2.8.6-5.5.6-8.1-.6-1.9 1.5-1.9 2.5.1 3.3 2.1.9 4.3 1.4 6.5 2 1 .3 2 .4 3 .8-4.9.6-9.7-.2-15-.3 1.7 2.3 4 2.9 6.1 3.8 2.2.9 4.4 1.5 6.6 2.7-.9-.1-1.9-.1-2.8-.3-1-.2-2.1-.4-3.1-.7l-3-.9c-1-.3-2-.7-3.3-1.1 1.2 3.5 4 5 6.6 6.6-.1.1-.1.3-.2.4-1.9-.5-3.8-.9-6.1-1.4 1.9 3.2 4.7 4.5 7.8 5.8-1.4.4-2.7.3-4.1.1-1.4-.2-2.7-.5-4.3-.8.1 1.5 1 2.4 2 2.9 2.2 1.1 4.4 2 6.7 2.9 1.2.5 2.4.7 3.7 1.2-4 .7-7.9.2-12-.1-.1 1.5 1 2 1.9 2.4 2.1.9 4.3 1.6 6.4 2.3.7.2 1.4.4 2.2.6-2.2.6-3.6.7-6.9 0-2.3-.5-4.5-1.2-6.8-1.9-.7 1.3 0 2.3.9 3 1.2 1 2.5 1.8 3.9 2.5.9.5 1.9.9 2.8 1.7-1.3-.2-2.6-.4-3.8-.5-1.5-.1-2.9-.3-4.4-.2-1.3.1-2.7.2-3.7 1.9 7.9 1.2 14.6 4.2 19.6 10.5-1.8-.5-3.5-1.2-5.3-1.6-3.8-.9-7.6-1.7-11.4-2.3-1.7-.4-3.5 0-4.8 1.2 3.5 1.4 7.2 1.8 10 4.6-2.9.7-5.9.1-8.3 2.4 6.1 2.1 12.7 2.4 16.9 7.8-5-.5-10-2.8-15.2.5 3.5 2.9 7.6 3.9 11.6 5.7-3.3 2-6.7 1.9-10.1 2 2.4 2.8 9.2 5.1 18.8 6.4-.6.5-1.1 1-1.6 1.2-1.4.6-2.9 1.1-4.3 1.7-1 .4-2 .6-3 .9-1.3.5-2.8 1.1-2.8 2.7 0 1.5 1.6 2 2.8 2.3 2.3.6 4.6.8 6.9 1.2.8.1 1.5 0 2.3.2-2.8 2.4-6.2 3.4-10 4.6 3.6 2.7 7.6 3.3 11.7 4.2-.1.3-.2.6-.4.8-.9 1.7-.7 3.1.5 4.7 4.7 6.4 8.9 13 12.4 20.1 2.7 5.4 5.1 10.9 7.4 16.4 1.9 4.6 2.5 9.4 2.2 14.3-.3 5.5-1 10.8-3 16-1.3 3.4-3.1 6.4-5.8 8.9-6.2 5.8-14.9 6.2-21.6.9-.3-.2-.6-.5-1.2-.9.4 2.7 2.2 4.1 3.9 5.8-4.8-1-8.9-5.7-8.7-10.3.2-5.6 2.5-10.4 7.3-13.7 3.2-2.3 8.7-2 11.6 1.7h-3.8c-4.2.2-6.1 3.2-4.5 7.1.2.6.5 1.2.9 1.7 2.5 4.3 6.1 4.9 9.9 1.6 3.6-3.2 5.8-7.3 6.1-12.1.8-13.3-2.8-25.3-12.1-35.1a40.7 40.7 0 0 0-5.8-5.2c-4.9-3.3-8.9-7.6-12.7-12.1-6.7-7.9-12.2-16.5-15.3-26.4-3-9.8-3.6-19.6-.1-29.5.7-2 1.1-4.1 1.7-6.1.7-2 1.7-3.9 3.7-5.2-.2-2.5 1-4.3 3.4-5.2-1-3.5 1.4-5 3.9-6.7-2-2.4-1.9-4.7.4-6.8-.6-2.6-2.3-5.2.3-7.5-1.6-3.9-3-7.7-1.1-11.9-1.1-1.4-3.5-2.4-1.5-5-2.1-1-4-1.8-6.1-2.8 1.1-.8 2.2-1 3.3-.7 1.2.3 2.3.7 3.5 1.1 1.4.5 2.7 1.1 4 1.7 5.1 2.4 10.4 3.1 15.9 1.8 6.1-1.5 12.1-.9 18 1 3.2 1.1 6.5 2 9.8 2.9 6.3 1.6 12.6 1.1 18.8-.5.5-.1.9-.3 1.4-.3.1 0 .3.1.6.2-3.1 3.6-7 5.4-11.4 6.6-4.5 1.2-8.8-.1-13.2-.8 2.9 2 6.1 2.5 9.4 2.8 2 .2 4.1.2 6.1.5 1.2.2 2.4.6 3.4 1.1 1.1.6 1.5 1.7 1.4 2.9-.1 1.1-1.1 1.3-1.9 1.7-.9.4-1.8.6-3 1.1.6.5 1 .8 1.3 1.1.9.7 1.8 1.4 2.6 2.2 1.2 1.4 1 2.1-.7 3-2.5 1.2-5.2 2-8 2.1-3.5.1-7 .1-10.5.1-1 0-2.1-.1-3.5-.2 1.2 1.4 2.4 1.8 3.6 2 4.1.8 8.2 1.4 12.3 2 2.2.3 4.4.4 7.1.6-4.9 1.5-15.7 2.6-25.2 1.6.2 1.5 1.3 2 2.4 2.3 2.7.7 5.5 1.3 8.3 1.9 2.6.6 5.3 1 7.9 1.6 1.9.5 2.4 1.1 3 3-7.3 3.1-14.8 1.5-22.6.4 1 1.2 2.3 2.2 3.8 2.7 2.5 1 5 1.8 7.5 2.8 1.3.5 2.6 1 3.8 1.6.7.3 1.5.8 1.9 1.4.4.7.6 1.7.5 2.5-.1 1-1.2 1-2 1-3.9.2-7.8-.5-11.6-1.2-1.9-.4-3.8-.8-5.9-.8.8.6 1.6 1.3 2.5 1.7 4 1.9 8.1 3.8 12.1 5.7.9.4 1.7.8 2.5 1.4-6.1.2-12-1-17.9-3-.2 1.9.4 3.3 1.7 4.1 1.6 1 3.2 2 5 2.4 4.2 1 8.4 1.6 13.1 2.5-7.1 1-13.9 0-20.8 0 .1 1.3 1.2 1.8 2 2.3 2.5 1.5 5.2 2.3 8.1 2.6 3.7.5 7.4.7 11.2 1 .6.1 1.2 0 1.9.2-2.7 1.2-5.6 1.6-8.4 1.9-2.9.3-5.8.5-8.7.8 4.8 2.1 9.9 2.6 15.1 3.5-.3 1.2-1.3 1.5-2.1 1.8-2 .5-4 .9-6 1.1-3 .4-6 .6-9 .9-1.1.1-2.5.3-2.6 1.7-.1 1.5 1.3 2.1 2.4 2.3 3.3.7 6.7 1.3 10 1.9 1.4.3 2.9.4 4.4.6 1.3 5.7 4.5 10.4 8.3 14.5 5.6 6.1 11.4 12 17.2 18 1.2 1.2 2.4 2.4 3.7 3.6 4.3 4.1 6.3 9.1 6.1 14.9-.2 5.1-.9 10.2-1.6 15.3-.7 5.5-1.9 10.9-2.5 16.4s.2 10.9 2.3 16c1.1 2.6 2.7 4.9 4.9 6.6 4.5 3.5 9.8 2.8 13.4-1.6.6-.8 1.1-1.7 1.5-2.7-2.2 1.2-4.3 2.3-6.7 2.7-4.9.7-7.9-1-9.4-5.7-.7-2.3-1.2-4.8-1.3-7.2-.3-7.6.7-15.1 3.2-22.3 2.2-6.4 3.4-12.9 2.8-19.7-.5-5.8-2.4-11-6-15.7-5.8-7.4-10.8-15.3-14.8-23.8-1.5-3.1-2.7-6.3-3-9.7-.1-1.3-.7-1.9-1.8-2.3-.8-.3-1.5-.5-2.3-.7-.6-.2-1.3-.3-1.8-.6-1.3-.7-1.4-1.7-.2-2.7.6-.5 1.3-.8 1.9-1.1.6-.4 1.3-.7 1.8-1.2 1.2-1.1 1-2.4-.5-3.1-.6-.3-1.4-.3-2.1-.5s-1.5-.5-2.5-.9c.5-.9.8-1.5 1.3-2 .3-.4.8-.8 1.3-1.2 3.2-2.9 2.9-4.4-.9-6.2-.4-.2-.7-.4-1.1-.7.9-2.6 4.5-2.1 5.4-5-2.4-.7-4.8-1.5-6.4-3.8 3.9-2.2 8.5-3.5 10.1-8.7-1.7-.4-3.3-.8-4.9-1.1.1-1.4 1-1.9 1.7-2.4 1.8-1.4 3.8-2.6 5.5-4 1.2-1 2.3-2.3 3.3-3.5.8-1.1 1.3-2.4.9-4-3 .1-5.3 2.5-8.9 2.3.9-1.1 1.4-1.9 2.1-2.6 1.4-1.3 2.8-2.4 4.2-3.7 2.7-2.6 4.2-5.6 4.3-9.5.2-5.9.3-11.9 1.8-17.7 1-4 2.4-7.8 4.7-11.2 2.8-4 6.5-6.9 11.4-8.2-.8.8-1.6 1.6-2.4 2.5-3.3 3.8-5 8.3-6.4 13-1.6 5.9-2.4 11.9-2.9 18l-1.5 18.5c-.2 2.4-.9 4.6-2 6.7-3.6 6.7-6.4 13.7-8.9 20.8-.3.8-.3 1.7-.3 2.6 0 2.9.3 5.9 0 8.8-.3 2.8-.6 5.5 0 8.4.3 1.4-.4 3-.5 4.5-.1 1.2 0 2.4.2 3.5 2.1 8.6 5.8 16.7 10.9 23.8 1.6 2.2 3.2 4.4 5.1 6.2 3.8 3.8 5.7 8.4 6.8 13.5 1.5 7.3.8 14.6-.8 21.8-1.3 6.2-3 12.3-4.3 18.5-.7 3.3-1 6.6-.2 9.9.4 1.6.9 3.2 1.7 4.5 1.7 2.5 4.8 2.6 6.9.5 3-2.8 2.9-5.7-.2-8.3-.3-.3-.8-.6-1.7-1.3zm-94.1-321.8v2.2c-.3 4.4 1.3 8.1 4.3 11.3 2.7 2.7 5.9 4.6 9.4 6 4.2 1.7 8.7 2.7 13.2 3.5l1.2.3c.1 0 .1.1.3.5-13.6 1.6-26.5.7-38.8-7 .5.9.6 1.4.9 1.7 2.9 3.4 6.6 5.7 10.7 7.4 7.2 2.9 14.8 3.5 22.5 3.6 6.8.1 13.2-1.5 19.7-2.8 7.8-1.5 15.8-2.5 23.8-1.7 2.8.3 5.6 1.1 8.2 2 3.3 1.2 5.4 3.6 6.3 7.2 1 4.4.5 9-2 12.5-1.4-4.4-3.8-7.7-8.1-9.4 3.4 4.2 4.8 9 5.1 14.7-4.6-2.7-8.5-5.9-14.4-5 .8.5 1.2.8 1.6 1.1 1.6 1 3.2 1.9 4.7 3 5.2 4.1 5.2 10.5 2.3 14.9-.1-.7-.2-1.1-.3-1.6-.4-3.3-2.2-5.7-5.1-7.3a21.5 21.5 0 0 0-8.9-2.4c-10.1-.7-19.9 1.1-29.6 3.8l3.5-.3c7.4-.5 14.6-.1 21.7 2.3 3 1 5.9 2.4 8.1 4.8 1.7 1.8 2.5 3.9 2 6.4-.3-.1-.5-.1-.5-.2-2.9-4.2-7.1-4.8-11.7-4-5.2.9-10 2.9-14.3 5.9-6.4 4.4-13.6 6.9-21.1 8.5-4.4 1-9 1.5-13.5 2.3.3.1.7.3 1.1.4 6.9.8 13.8 1 20.6-1.1 2.1-.7 4.2-1.7 6.2-2.8 4.6-2.8 9.3-5 14.6-5.8 3.8-.6 7.5-.3 11 1.4.4.2.8.5 1.2.8-2.9.1-5.6.1-8.2.4-4.2.5-7.9 2.3-11.1 5.2-3.7 3.4-7.7 6.2-12.8 7.5-.3 2.8-1 5.5-3.3 7.3a8.2 8.2 0 0 1-5.4 2c.8-.8 1.4-1.3 1.8-2 .8-1.1 1.7-2.2 2.2-3.5.8-1.9.1-2.9-2-2.5a25 25 0 0 0-5.2 1.9c-1.8.8-3.6 1.9-5.4 2.8-.8.4-1.8.4-2.8.4 3.3-1.9 6.6-3.7 9.7-6.7-1.2.3-1.8.5-2.4.7-5.9 1.9-12 3-18.2 2.7-3.4-.2-6.6-.8-9.7-2.1-6.4-2.6-12-11.2-11.8-18 .1-2.8 1.2-5.1 3.3-6.9.3.1.4 0 .4.1 4.2 5.9 10.3 7.6 17.1 7.7 5.8.1 11.5-.8 17.1-2.1 8.6-2.1 17.1-4.5 25.7-6.7 2.6-.7 5.2-1.3 8-2-1.5-.9-2.8-.7-4.2-.6-4.8.6-9.5 1.3-14.2 2-10.5 1.7-21 3.4-31.8 3.2-5.1-.1-10.1-.7-14.8-2.5-5.5-2.1-9.8-5.6-11.7-11.3-1.9-5.6-.9-10.6 3.3-14.8 2.4-2.4 5.4-4.1 8.6-4.9.2.4.4.6.5.9 2 5.1 5.8 8.3 10.7 10.4 5.3 2.2 10.8 2.9 16.5 3.1 9 .3 17.9-.7 26.7-2 8-1.2 15.9-2.6 23.8-3.8 6.3-.9 8.2-.8 13.9.9-1.1-3.2-5.3-6.3-9-6.1-4.4.3-8.7.9-13 1.7-6.5 1.1-12.9 2.5-19.4 3.7s-13.1 1.1-19.7.6c-6.5-.5-12.9-1.4-19.1-3.6-3.1-1.1-6-2.5-8.5-4.6-3-2.5-4.5-5.6-4.8-9.5-.6-8.8 2.8-15.7 10.1-20.6 3.7-2.5 7.7-4.1 12-5.2.4-.3.8-.3 1.2-.3zm79.5 39.5c.6-4.1-.6-7.2-3.7-9.2-1.5-1-3.4-1.6-5.2-2-5.8-1.2-11.5-.3-17.1 1.2-10 2.6-20.2 4.5-30.5 4.8-10.1.3-20-.5-29.6-3.9-.3-.1-.7 0-1.3 0 2.2 2.5 4.8 3.8 7.6 4.8 5 1.8 10.3 2.5 15.5 2.8 11.4.6 22.6-.7 33.7-2.5 4.8-.8 9.6-1.8 14.4-2.5 6.1-.8 11.5.8 15.3 5.9.2.1.4.2.9.6zm80.3-57.2c-3.3-2.5-6.5-4.5-11-3.8.3 1.9.7 3.7 1 5.5.6 3.7 1 7.4.3 11.2-.5 2.5-1.2 3.9-3.2 5.6.3-6.5-3.8-9.4-9-11.5 2.3 2.9 4.2 6 3.3 9.9-.6 2.9-2.4 5-4.6 7.1-1.5-7.2-2.2-8.3-5.9-9.7-.4.8 0 1.5.2 2.3.5 2.5.9 5 .3 7.5-.3 1.2-.6 2.5-2 3.5-.7-3.3-2.3-5.9-5-7.7-1.5-1-3.1-1.9-5.3-2.2 2.2 4 4.3 7.8 1.6 12.5-2-2.7-4.4-4.6-7.7-5.6.3 4 .2 7.7-2.4 11.3-1-2.4-2.1-4.5-4.1-5.9-1.9-1.3-3.9-2.2-6.5-2.5 1.5 4.1 3.1 8.1.6 12.3-.3-.2-.5-.3-.6-.4-2.1-4.2-5.5-7-9.4-9.3-5.8-3.4-12.2-5.4-18.6-7-8.8-2.2-17.7-4.2-26.5-6.5-4.1-1.1-8.2-2.6-12.2-4.2-2-.8-3.9-2.1-5.5-3.5-3.7-3.2-4.3-7.4-2-11.7 1.3-2.4 3.2-4.3 5.4-5.9 3.6-2.6 7.5-4.6 11.7-5.9 5.7-1.8 11.4-3.2 17.1-4.8.2-.1.5 0 .9 0-.5.7-1 1.4-1.8 2.4 5.1-1.5 9.7-2.9 14.3-4.2 0-.2-.1-.3-.1-.5l-10.9 1.6c1-.7 1.5-1.1 2-1.5 4.5-2.6 9.4-4.1 14.5-4.8 20.5-2.7 40.2 0 59.2 8 5.6 2.4 10.8 5.4 15.2 9.6 2 2 3.7 4.3 5.5 6.5.5.7.8 1.6 1.2 2.3zM258.6 91.7c-7 2.5-13.4 4.8-19.1 8.6-.9.6-1.7 1.3-2.5 2-3.4 3.3-3 6.2 1.4 8.1 2.1.9 4.4 1.6 6.7 2.1 7.1 1.5 14.3 1.9 21.6 2.2 13.1.5 26.2-.2 39-3.1 4.6-1.1 9.1-2.5 13.2-4.8 2.6-1.5 4.9-3.3 6.3-5.9 1.7-3.1 1.4-5-1.7-6.7-2.2-1.3-4.7-2.3-7.2-2.9-10.5-2.7-21.2-2.8-32-1.4-3.4.5-6.7 1.3-9.7 3-1.8 1-3.4 2.4-3.4 4.7 0 2.3 1.6 3.7 3.5 4.6 2 .9 4 1.7 6.2 2.2 3.2.8 6.5 1.2 9.9 1.8-.5.2-.9.4-1.3.4-6.7.9-13.4 1.5-20.2.6-3.4-.5-6.7-1.3-9.5-3.4-3.1-2.4-4-5.8-2.4-9.3.3-1 .6-1.6 1.2-2.8zm177 28.9c-2.3-.5-3.5-2.1-4.2-3.9-.8-2-1.4-4.1-2.2-6.2-.2-.7-.5-1.5-1-1.8-4.9-3.4-7-8.5-8.3-13.9-1.4-6-1.7-12.1-1-18.2.7-6.2 1.3-12.5 2.8-18.5 1.5-6.1 4.9-11.5 9.7-15.5 1.2-1 2.7-1.7 4-2.5.1.1.2.3.4.4-.4.6-.8 1.3-1.2 1.9-4.4 6.7-7.9 13.8-9.1 21.9-.6 3.7-.3 7.7.8 10.8 3.6-3.4 7-6.9 12.8-7.6-10.1 9.6-12.6 21-9.6 33.9.3-.7.5-1.4.8-2.1 1.6-4.7 4-9.1 7.6-12.6 2.7-2.6 5.7-4.5 9.3-5.6.7-.2 1.5-.3 2.3-.3-10.2 9.1-16.2 19.7-13.8 33.8 2.9-6.6 7-12 13.7-15.2-4.1 9.5-7.8 19-4.7 29.7 2.1-5.4 4.2-10.8 9.8-14.5-.3 1.2-.4 1.8-.6 2.4a61.3 61.3 0 0 0-2.7 19.5c.1 3.8.7 7.6 2 11.2.2.7.5 1.3 1 2.1 1.3-4.3 3.3-8 7.3-10.4-3.7 14.2-3.2 28 3.5 41.8 2.3-4.5 5.6-7 10.4-8.5-.5 1.1-.7 1.7-1 2.3-3.3 6.7-5.5 13.8-5.4 21.3.1 5.1 1.1 10 3.9 14.4 2.3 3.8 3.2 8 3.2 12.4 0 3.6-.5 7.1-.6 10.7-.1 3.3.1 6.6.3 10 0 .9.4 1.7.7 2.6.9 2.3 1.1 2.4 3.5 2.5 2.3.1 4.3.5 5.6 3.1-1.2.2-2.2.3-3.2.5-2.5.3-4.8 1.5-6.6 3.3-.2.2-.4.5-.7.7-3.1 2.7-6.6 1.7-7.7-2.3-.7-2.7-.2-5.3 0-8 .8-7.4 1.5-14.9.9-22.4-.2-2.9-.8-5.7-2.2-8.4-2.1-3.8-2.8-8.1-3.2-12.4-.4-4.1-.5-8.3-.8-12.6-3.6-1.6-5.3-4.9-6.6-8.5-1.9-5.3-2.5-10.9-2.8-16.5-.1-1.1-.1-2.3-.1-3.4s-.3-1.8-1.2-2.7c-1.2-1-2.2-2.5-2.7-4-1.4-3.9-2.6-7.8-3.9-11.8-.4-1.3-.8-2.4-1.8-3.3-4.2-4.4-6.3-9.8-7-15.8-.1-1.1-.2-2.3-.4-3.8z"/><path d="M126.1 378.1c-.5 1.4.1 2.4.7 3.3 2.5 3.7 4.9 7.5 7.9 10.8 14 16.2 31.2 28.5 50.3 38 1.8.9 3.6 1.7 5.4 2.9-.6-.1-1.2-.1-1.8-.2-14.2-3-26.6-9.8-37.9-18.8-7-5.6-13.4-11.9-19.7-18.2-3.5-3.5-7.1-6.9-10.7-10.3-4.1-3.9-8.9-3.8-14-2.7-1.5.3-2.9 1.1-3.6 2.9 9 10.7 19.1 20.5 28.5 31l-1.1-.8c-.4-.3-.7-.7-1.1-1-8.8-8.2-17.6-16.4-26.4-24.7-1.8-1.7-3.8-3-6.3-3.6-1.1-.3-2.2-.7-3.2-1.2-1.3-.7-1.5-1.3-1.1-2.8.8-2.6 2.3-4.6 4.5-6.6-.2 1.8-1.1 3.3.2 4.9 1.7-.6 3.5-1.2 5.2-1.9 7.1-3.1 13.3-7.6 18.9-12.8 1.8-1.7 2.3-3.9 2.2-6.2 2.2.1 3.4 1.2 3.3 3.3 0 1.3-.5 2.5-.9 3.8-.3 1-.9 1.9-1.4 2.9 2-.2 2.2-.4 4.9-3.7 1.6.9 1.9 1.2 1.3 2.7-.5 1.3-.1 2.3.6 3.4 2.8 4.6 6.5 8.3 10.5 11.8 3.4 2.9 6.9 5.6 10.5 8.3.9.7 2.1 1.2 3.3 1.6 8.3 2.3 16.7 3.3 25.3 3.9 10.2.7 20.3.4 30.5-.4.1 0 .3.1.9.3-1.5.7-2.7 1.4-3.9 1.8-4.3 1.5-8.8 2.3-13.4 2.6-7.5.5-14.9.9-22.4 1.3-.5 0-.9.1-1.6.5.7.4 1.5.8 2.2 1.2 9.2 4.5 18.8 8 28.6 11.2 6 1.9 12 3.6 18 5.4.7.2 1.4.4 2 .9-1.2 0-2.5.1-3.7 0-15.8-.9-30.7-5.2-44.8-12.3-12.5-6.3-23.7-14.5-34.4-23.5-2.9-2.5-5.9-4.9-8.8-7.3-.8-.9-1.9-1.8-3.5-1.7zm308-177.9c.3 1.5.8 2.9 1 4.4.8 6.5.6 13 .3 19.5-.4 10.2-.9 20.5-1.4 30.7-.3 6.5.7 12.8 2.9 18.9 3.8 10.7 7.8 21.4 11.6 32.1 2.5 7.2 4.9 14.5 7.3 21.7.6 1.7.7 3.6.8 5.5-3.7-8.8-7.8-17.4-12.1-25.8-4.3-8.4-8.8-16.8-13.2-25.2-.2.1-.3.1-.5.2.2.7.5 1.5.7 2.2 5.6 16 11.2 32.1 16.8 48.1 3.1 8.9 4.4 18.1 4.4 27.6 0 4.6-.1 9.1 0 13.7 0 3.4.5 4.1 3.8 5.1 5.1 1.5 10.4 1.8 15.7.8.3-.1.6-.1 1.4-.2-.6.6-.9 1-1.3 1.3-6.1 4.3-12.6 5.3-19.7 2.6-1.1-.4-2.2-1-3.2-1.7-1.8-1.1-2.8-3-2.7-5.1.1-8.9.1-17.9 0-26.8 0-6.4-.9-12.6-3.1-18.7-5-14.1-9.9-28.2-14.6-42.4-2.3-7-4.2-14.2-6.4-21.2a27.6 27.6 0 0 1-.1-15.6c2.5-9.4 5-18.9 7.3-28.3 1.9-7.4 3.2-14.9 3.6-22.6 0-.2.1-.4.2-.7.2 0 .3-.1.5-.1zM221 107.3c-.5.9-.6 1.3-.8 1.6-1.5 3-1.2 6 .5 8.8 1.5 2.4 3.6 4.2 5.8 5.8 5.2 3.6 11 5.9 17 7.9 8.9 3 18 4.9 27.1 6.8 4.1.9 8.2 2 12 4 2 1.1 3.9 2.4 5.5 3.9 2.5 2.4 3 5.5 1.6 8.7-.9 2-2.2 3.7-4.1 5.5-.1-.9-.2-1.4-.2-1.9-.3-4.1-2.3-7-5.8-9.1-2.8-1.7-5.8-2.5-9-2.9-3-.3-6-.4-9-.5-12.2-.2-24.4-1.4-36.2-4.5-4.1-1.1-8.2-2.7-12.1-4.4-2.2-1-4.2-2.4-6.1-4-4.5-3.8-5.6-8.8-3.4-14.3.3-.8.7-1.6 1.2-2.4 3.7-5.4 9.3-7.6 16-9zm42.9 151.3c-.6 2-2 2.8-3.5 3.5-4 2-8.4 2.7-12.8 1.9-4.6-.8-9.3-1.8-13.8-2.9-4.7-1.1-9.3-.9-13.9.5-9.4 2.9-7.7 2.6-17.3.4-1.6-.4-3.2-.7-4.7-1.2-4.1-1.3-8.1-.6-12 .6-1.2.4-2.2 1-3.1 1.9-1 .9-1 1.9 0 2.8 1.1 1 2.3 1.8 3.5 2.6 1.1.8 2.3 1.5 2.6 3.3-2.3 1.3-5.1.1-8 1.4 1.2.5 2.1.9 2.9 1.3 1.9.8 3.8 1.5 5.6 2.4 1.4.7 2.5 1.7 2.7 3.8-1.1.2-2.2.4-3.3.5-2.3.1-4.6 0-6.8.1-1.3.1-2.5.3-3.7.8 2.4.9 4.8.8 7.2 1.3 2.3.5 4.8.7 6.7 3.3-5.1-.6-9.7-2.7-14.2-.5 0 .2 0 .4-.1.6.6.1 1.3.2 1.9.2 3.6.3 7.1.9 10.4 2.4 1.2.6 2.5 1.2 2.8 3.1-1-.2-1.9-.3-2.7-.4-2.7-.3-5.4-.5-8 .3-1.9.6-3.5 1.6-4.4 3.8 4.1 0 8.2-1.8 11.9 1.1-.4 1.1-1.3 1.3-2.2 1.4-1.9.3-3.9.5-5.8.9-.9.2-1.7.7-2.5 1.3 3.5-.8 6.3.1 8.4 2.9-.7 3.7-3.7 5.9-5.6 8.9-1.3-.4-2.2-1.3-2.8-2.3-2-3.2-4-6.5-5.9-9.8-.8-1.4-.5-3 .1-4.5.7-1.9 2-3.3 3.5-4.6.6-.5 1.2-1 1.9-1.5-1.4-.9-1.4-.9-6.1-.2-1-.9-1.1-2.2-1.1-3.5 0-2.8 1.1-5.2 2.2-7.7.4-.9.5-2 .8-3 .4-1.2.7-2.5 1.3-3.6.6-1.2 1.6-2.3 2.4-3.4 1-1.5 1.5-3 .7-4.8-.2-.6-.3-1.3-.2-1.9.3-1.6.7-3.2 1.2-5.1 0 0 .4-.1.8-.1 3.1.3 6.2 0 9.2-.8 3.4-.9 6.6-.4 9.7 1.3 1.4.8 2.8 1.5 4.3 2-2.8-2.6-5.7-5.1-9-6.9-.8-.4-1.9-.6-2.8-.6-1.8.1-3.5.4-5.3.7-1.3.2-2.6.3-3.9.5-2.9.3-5-1-6.7-3.2-1.5-2-1.5-3.7 0-6.1.2.1.5.1.6.2 3.2 3.2 7.2 4.3 11.5 4.5 1.9.1 3.9.3 5.8.3 2.6 0 4.8.9 6.7 2.5 1.2.9 2.4 1.9 3.7 2.8 2.1 1.7 4.5 2.5 7.3 2.3 2.8-.3 5.7-.4 8.5-.8 4.6-.7 9-.6 13.4 1.2 4.9 2 10.1 3.2 15.4 3.2 4 0 7.9-.6 11.9-.9.9-.1 1.6-.3 2.7-.5zM401.8 295c.5.6.7.8.9 1.1 2.6 5 5 10.1 5.7 15.7.1 1 .4 2 .1 2.9-.6 2.2 0 4.2.3 6.2.2 1.6.4 3.2.3 4.8-.2 2.7-1.3 4-4 4-2.9 0-5.9-.2-8.7-.9-11-2.4-21.5-6.4-31.8-10.7-8.5-3.5-16.8-7.4-24.8-12-1.8-1-3.4-2.2-5.2-3.3a14.4 14.4 0 0 1-5.9-7.2c-1.7-4.3-2.8-8.7-3.3-13.3.4.7.8 1.5 1.2 2.2 6.4 11.3 5.6 10.4 15.8 16.2 12.9 7.3 26.3 13.5 40.7 17.3 5 1.3 10 2.3 15.2 1.8 1.6-.2 3.1-.6 4.6-1.4-.3-.1-.6-.3-.8-.4-12.2-1.8-23.7-6-35.2-10.6-7.1-2.8-14.1-6-20.5-10.1-3-1.9-5.7-4.2-8.5-6.5-1.3-1-2.2-2.5-2.5-4.1.7.5 1.5.9 2.2 1.4 13.8 9.1 28.6 16.2 44.7 20.1 5.8 1.4 11.6 2.4 17.6 2.5 2.6.1 3.1-.4 3.3-3 .2-3.7-.5-7.3-1.2-10.9.1-.3 0-.8-.2-1.8z"/><path d="M253.3 239c-4.4 1.5-8.3 1.5-11.7-.7-4.2-2.8-8.6-3-13.1-1.7-5.4 1.6-10.7 2.6-16.3 2.3-.1 0-.3.1-.8.4 4.3 2 8.4 3.3 12.8 1.5 6.8-2.8 13-2 18.7 2.6 3.7 2.9 8.1 4.1 12.6 4.8 6.3 1 12.5.4 18.8-.6-.5.4-1 .9-1.5 1.3-5.5 3.7-11.6 5.5-18.1 5.7-5.8.2-11.5-.7-17-2.7-3.8-1.4-7.7-1-11.6-.4-3.6.5-7.2 1.6-10.9 1.2-2.9-.3-5.8-.8-8.6-1.5-1.5-.4-3-1.3-4.2-2.4-2.4-2.1-5.2-3-8.2-3.3-2.7-.3-5.4-.3-8-.5-2.8-.3-5.5-1-7.8-2.6-3.2-2.2-3-5.4.5-7.6 3.1 4.8 7.8 5.8 13.2 5.5 6.1-.2 12 .9 17 4.9.6.4 1.2.8 1.9 1.1 4.8 1.6 9.7 1.3 14.6 0-2.2-.3-4.4-.4-6.6-.8-2.5-.5-5.1-1.1-7.5-2-1.4-.5-2.7-1.5-3.8-2.5-1-1-2-1.6-3.3-1.8-4.5-.8-9-1.5-13.4-2.4-3.2-.7-6.3-1.5-9.4-2.4-.9-.3-1.8-.7-2.6-1.3-1.9-1.3-2.1-2.5-.5-4.2.3-.4.7-.6 1.2-1 .8.4 1.6.7 2.3 1.1 8.6 4.5 17.7 6.9 27.4 6.8 3.3-.1 6.6-.5 9.8-1.6 5-1.7 10.1-2.5 15.3-1.4 1.6.4 3.3.9 4.7 1.8 3.5 2.2 7.3 3.5 11.4 4.1.8-.1 1.5.1 2.7.3zm64.8 17.4c15.1 7.8 29.6 16.8 46.1 21.3.6.2 1.3.2 2 .1-9.8-5.1-19.3-10.6-28-17.2-8.8-6.6-16.9-14-23.3-23.2.9.7 1.9 1.4 2.8 2.1 14.2 11 28.9 21.1 44.8 29.5 9.6 5.1 19.6 9.6 30.3 12.1 3.2.7 6.6 1.1 9.9 1.5 2.5.3 3.2-.1 3.9-2.6.7-2.6 1.1-5.4 1.6-8.1.1-.6.1-1.1.2-2.1.4.7.6 1 .7 1.4 1 4.5 2 9 3 13.6.2.7.2 1.5.2 2.2.1 2.1-.3 2.7-2.4 2.7-3.2 0-6.5-.1-9.7-.7-6.4-1-12.8-2.4-19.2-3.5-1-.2-1.9-.4-2.9-.3-9.7.6-18.9-1.8-27.7-5.8-12-5.5-22.4-13.2-31.8-22.4-.2-.2-.4-.4-.5-.6zm73 115.4c-2 2.7-3.3 5.4-6 7.3-1-.9-2.1-1.6-2.8-2.6-1.2-1.6-2.5-3.3-3.3-5.1-2.4-5-4.7-10.2-7-15.3-.2-.4-.2-.9-.4-1.8 4.3 5.2 7.4 10.7 12.9 14.1 1.6-.9 2.2-2.3 2.9-3.5 2.2-4.2 3.2-8.7 3.8-13.3.5-4.2.8-8.4 1.2-12.9 3.3.7 6.7 1.3 10.2 2.1-.3 1.6-.6 2.9-.8 4.2-2.3 11.9-2.7 23.8-1.5 35.9.9 8.8 4 16.9 6.8 25.1 3.1 9.3 6.2 18.5 9.2 27.8.7 2.1.9 4.3 1.4 6.4.3 1.2 0 2.2-.6 3.3-2.1 4.1-4.8 6.2-8.5 6.7.7-2.2 1.6-4.4 2.1-6.7 1-5.2.5-10.4-.6-15.5-1.3-5.9-3.1-11.6-4.7-17.4-.1-.4-.3-.7-.7-1.5-1.9 10.1-6.2 18.2-14.5 23.8.2-.3.5-.7.8-1 5.3-6.5 8-14.1 8.6-22.4.9-11.4-1.9-22.1-6.2-32.5-.7-1.8-1.5-3.3-2.3-5.2zm-54.9-227.2c-1.2 5.9 1.3 10.8 4 15.5 1.8 3.3 3.7 6.5 5.6 9.7.1.2.4.3 1.1.7-.6-1.9-1-3.4-1.4-4.8-1.2-3.9-2.6-7.7-3.4-11.7-.9-4.3-.4-8.4 2.7-11.9.2-.2.5-.4 1-.9-.2.9-.3 1.4-.4 1.9-.1 2-.4 4-.3 6 0 4.9 1.6 9.4 4 13.6 1.7 3 3 6.1 3.7 9.5.5 2.5.5 4.8-.7 7.1-2 3.7-4.1 7.4-6.1 11.1-.4.7-.8 1.3-.8 2.3.8-.8 1.6-1.5 2.3-2.3 5.2-6 8.4-13 10.4-20.5.5-2 .3-4.4-.2-6.5-1.1-5.4-2.4-10.8-3.8-16.1-1.3-5-.6-9.7 1.7-14.2.4-.9.9-1.7 1.4-2.6 2.3-3.9 4.5-7.8 7-12.1.2 1.7 0 3.1-.4 4.4-.9 3-1.9 5.9-2.9 8.8-.7 2.1-1.5 4.1-2.5 6.1-1.7 3.5-1.9 7.1-1 10.9 1.4 6 2.6 12.1 3.9 18.1.4 1.9.3 3.7-.3 5.5-2.5 7.3-6 14.1-10.4 20.3-1.8 2.7-4.6 4.5-7.7 5.1-2.7.6-5.3 1.4-7.9 2.3-7.4 2.6-13.1 7.3-17 14.3-.2.4-.5.8-.8 1.2 0 .1-.1.1-.4.3 0-1.1-.2-2.1 0-3 1.1-4.8 3.6-8.9 6.7-12.6.4-.5 1-.8 1.5-1.2 3.8-2.7 6.8-6 8.7-10.3.1-.2.2-.4.4-.6 0 0 .1 0 .4-.1.6 2.5.1 4.9-1.3 7.7 1.5-.5 2.5-.6 3.2-1.1 1.6-1.2 3.3-2.5 4.6-4 1.4-1.6 2.3-3.5 3.5-5.3 2.4-3.6 2-7.4.5-11.2-.7-1.8-1.6-3.5-3.2-5-.7 3.4-1.7 6.4-3.9 9.4 0-2.6-.1-4.7 0-6.8.1-3.1-.8-5.9-2.5-8.5-1-1.5-2-3-2.8-4.6-2.1-4.3-1.2-8.4 1.1-12.3.4-.6 1.3-1.3 2.7-1.6zM85 208.5c-1.6 6.6-.3 13.1.1 19.7.1 1 0 1.9-.1 2.9s-.8 1.4-1.7 1c-.7-.3-1.3-.6-1.9-1-1.5-.9-3-1.9-4.5-2.9-2.3-1.4-4.7-2.4-7.5-2.9-5.5-.9-9.5-4-12.5-8.6-.7-1.1-1.1-2.3-.8-3.7.5-2.8 1.4-5.5 3-7.9v5.8c.1 0 .3 0 .4.1.1-.3.3-.6.4-.9 1.5-5.9 4.8-10.6 9.5-14.4 5.8-4.8 12.5-7.8 19.6-10.1 1.1-.4 2.2-.7 3.3-1.2-7.7.4-14.9 2.7-22.3 6.3 9.6-10.4 35.5-12.8 48-4.7h-4.1c0 .2-.1.3-.1.3 0 .1.1.1.2.1.2.1.5.2.7.2-.1.1-.2.3-.3.3-8 .9-15.6 3-22.7 6.9-10.5 5.8-16.8 14.6-18.6 26.5-.4 2.6.1 3.6 2.1 4.2 2.4.7 4.9-.1 5.6-2.1s1-4.1 1.4-6.2c.4-1.7.6-3.5 1.1-5.2.3-1 .9-2 1.4-3 0 .3.1.4.3.5zm19-22.3h-1.7c-5.1.4-10.2 1.2-15 2.9-11 3.9-19 11.1-23.3 22.1-.4 1-.5 2-.6 3.1-.1.9-.2 2 .9 2.3 1.1.3 2-.3 2.7-1.3l.9-1.5c1.3-2.1 2.6-4.3 4-6.4 5.7-8.1 13-14.5 22.4-18.2 3-1.2 6.2-2 9.7-3zm218.7 112.2c2.1.4 3.6 1.6 4.9 3.1 2.4 2.8 3.4 5.7 2.4 9.4-1.7 6.4-4.1 12.3-9 17-1.1 1-2.3 1.8-3.8 2-5.8.9-11.6 1.8-17.3 2.7-5.5.9-11.1 1.8-16.5 3-2.8.6-5.5 1.9-8.6 2.9.2-1.1.2-2.1.5-3 1-3.2 3.3-5.4 6-7.2 3.7-2.4 7.9-3.7 12.3-4.5 5.4-1 10.8-1.3 16.3-1.2 1.8.1 3-.5 4.2-1.9 3.5-4.1 6.5-8.5 7.5-14 .2-.9.2-1.9 0-3-.3.5-.7 1-1 1.5-1.7 2.8-3.4 5.5-5.1 8.3-1.5 2.5-3.9 3.6-6.7 3.8-2.6.2-5.2-.2-8.1-1.3 1.3-.4 2.1-.7 3-1 8.1-2.5 7.7-2 12.1-9.8 2.3-4.1 3.7-8.5 3.8-13.2 0-.4.1-.8.1-1.2 2.9 1.2 3.8 3.2 3 7.6zm108.5-126.3c1.9 2 3.4 3.6 4.9 5.3.4.4.5 1.2.4 1.8-.9 7.2 1.6 13.4 5.9 19 2.9 3.7 5.7 7.4 6.5 12.1.6 3.6 1 7.3.9 10.9-.6 18 2.2 35.1 11.2 51 1.3 2.2 2.8 4.3 4.4 6.8-.9-.3-1.5-.5-2-.8-3-1.6-5.3-4-7.4-6.6-4.7-6-7.5-12.9-9.8-20-2.9-9.3-4.4-18.8-5.4-28.4-.9-9-2-18.1-4.8-26.8-.6-1.9-1.6-3.7-2.3-5.6-.9-2.4-1.9-4.9-2.3-7.4-.6-3.6-.9-7.2-.2-11.3z"/><path d="M332.8 177.4c-.9-1.5-1.6-2.6-2.3-3.6-.2 0-.3.1-.5.1-.3 5.5-1.7 10.6-5.1 15.6-.1-2.6 0-4.7-.4-6.8s-1.1-4.3-2-6.2-2.3-3.7-3.4-5.5c-.2 0-.3.1-.5.1-.1.5-.3 1-.3 1.5.1 2.6.1 5.2.4 7.8.4 3.8-.2 7.4-2.6 11-.2-1.2-.4-2.1-.6-3-.6-3.8-2.7-6.5-6.2-7.9-4.7-1.8-8.2-4.8-10.6-9.2-.1-.2-.3-.3-.7-.6-1 3.9-.2 7.1 2.9 9.9-8.3-.7-13.5-7.3-11.8-14.3 1 .6 2 1.1 3.2 1.8 1.4-4.4 2.5-8.6 6.4-11.8 0 1.3 0 2.2.1 3.1.2 5.2 1.7 9.7 5.6 13.3.2.2.5.4.8.6h.4c-.3-2-.7-3.9-.8-5.9-.1-2 0-4 .1-6.1.1-2 .8-3.9 2.1-6.1.4 2.4.4 4.5 1 6.4.7 1.9 1.8 3.6 3 5.3s2.6 3.2 4.2 5.2c-.8-6.3-1.9-12.2 1.4-17.9.7 3.4 1.2 6.5 2 9.6.9 3 2.4 5.8 4.8 8.6-.5-7.2-1.6-13.9 2-20.3.1 1.2.3 2.5.4 3.7.3 3.8 1.7 7.3 3.8 10.4 2 3.1 3.3 6.3 3.1 10.1.2.1.2.3.1 1.1zm-201.9 118c-1.4-2.7-2.6-5.4-4.2-7.8-5-7.6-13-10.4-21.7-7.7-2.4.7-4.7 1.9-6.9 3-2.7 1.3-4.3 1.2-6.3-1-.9-1-1.5-2.2-2-3.7.7.3 1.4.6 2 .9 2.7 1.2 5.5 1.5 8.2 0 5-2.9 10.3-3.3 15.8-1.7.2.1.5 0 .8-.1-3.9-2.6-8.2-4.1-12.9-4.7-4.7-.7-9.2-.1-13.7 1.6-.7-1.5-.3-2.9 0-4.2.1-.5.8-1.1 1.3-1.2 10.5-1.6 20.5-.7 29 6.6 1.2 1.1 2.4 2.1 3.7 3.3-.1-.4-.1-.9-.3-1.3-3.9-7.8-10.2-12.5-18.6-14.4-5.4-1.2-10.8-1-16.4-.1l-.3 3.1c-2-1.6-4.5-5.5-5.3-8.1 1.4-1.5 3.3-1.9 5.2-2.2 12.1-1.8 28.4 3 36.4 16 2.1 3.4 3.4 7 4.3 10.8.2.8.4 1.6.7 2.3 1.4-4.6 1-9-.9-13.3-1.9-4.3-5-7.6-8.2-10.9.6.3 1.3.5 1.8.8 7.5 4.3 11.4 10.6 11.6 19.3.1 4.8-.8 9.4-2.5 13.8-.1.3-.3.6-.4.9h-.2zm210.7 63.5c-11.5-2.3-22.5-6.7-34.2-8.5 3-1 6-.8 9-.5 5.8.5 11.4 2 17 3.4.7.2 1.4.4 2.1.5 3.7.8 6.7-.4 8.4-3.7 1-1.9 1.5-4.1 2.2-6 2.1 1.6 3.6 5.4 3.5 9.1s-1.8 6.7-4.1 9.8c3.2.2 4.7-2.1 7.2-3.4-.2 1.3-.2 2.2-.4 3.1-.2.9-.6 1.7-1.1 2.5-2.8 5-5.3 6.2-10.8 4.7-4.9-1.3-9.8-3-14.7-4.4-6.1-1.8-12.3-3.7-18.5-5.3-2.2-.6-4.5-.4-6.8-.4-2.4.1-3.9 1.5-4.6 3.7-.4 1.3-.6 2.7-1.1 4-.7 2-1.8 2.3-3.5.9-2-1.6-6-7.2-7.3-10.2 1.2.9 2.3 1.6 3.3 2.3.8.5 1.7 1 2.6 1.4 2.1.9 3.2.4 4-1.7.3-.7.5-1.4.7-2.1 1.1-2.7 2.6-3.7 5.5-3.4 4.8.5 9.7 1.2 14.5 1.9 7.8 1.1 15.6 2.6 23.5 2.7h3.4c.1 0 .2-.2.2-.4zm85.6-329.6c-5.2 2.1-9.6 4.4-10.7 10.7 6.4-3.3 12.7-5.4 19.5-4.7 1.9.2 3.8.8 5.6 1.2v.5c-.9.2-1.7.3-2.6.5-7.9 1.4-14.3 5.3-19.5 11.2-2.3 2.6-3.5 5.9-4.5 9.1-2.1 6.9-2.5 14.1-1.8 21.2.4 3.8 1 7.5 1.6 11.6-.5-.5-.9-.9-1.1-1.3-6.7-10.9-10-22.7-9-35.5.4-5 1.6-9.8 3.5-14.4 1.5-3.5 3.6-6.6 6.6-8.9 3.8-2.6 7.7-3.3 12.4-1.2zm-40.4 359c3.6 3.4 5.4 7.5 5.8 12.1.5 5.3-.5 10.4-2.2 15.3-2.2 6.2-5.3 11.9-9.2 17.1-1.3 1.7-3.1 3.1-4.8 4.4-5.4 4-11 7.9-16.3 11.9-8.6 6.5-16.7 13.7-24.4 21.3-.6.6-1 1.3-1.5 1.9-.2-.2-.4-.3-.6-.5.4-.7.8-1.5 1.3-2.1 4.6-5.6 9-11.3 14-16.6 7-7.4 14.4-14.6 21.8-21.6 8.5-8.1 13.7-17.9 15.6-29.4.6-3.9.5-7.9.7-11.9-.2-.5-.2-1.2-.2-1.9zM370 392c.3 3.7.5 7.1.8 10.5-3.2 1.3-6 3-8.3 5.3-5.1 4.9-8 11-9.5 17.8-3.7 16.3-11.7 30.2-22.8 42.4-.4.4-.6.9-1 1.4-.2-.2-.4-.3-.6-.5.3-.6.6-1.3 1-1.9 4.7-8.5 8.8-17.2 11.4-26.6.9-3.2 1.5-6.5 2.1-9.7 2-10.3 5.8-19.8 12.1-28.2 3.4-4.6 7.6-8.2 13.1-10.2.4.1.8 0 1.7-.3z"/><path d="M350 317c2.9 1.9 5.5 3.6 8.3 5.4 0 .2.1.5 0 .8-.7 9.6 1.6 18.6 5.2 27.3 1.5 3.6 3 7.2 5 10.6 3.6 6 5.7 12.6 7.2 19.3 1.8 8.2 2.4 16.4 1.2 24.7a45 45 0 0 1-4.5 14.3c-.3.6-.7 1.1-1.3 2 .5-3.3 1.1-6.2 1.4-9 1.1-8.8.5-17.5-1.3-26.2-1.3-6.7-3.4-13.2-6.4-19.4-5.3-10.5-10.1-21.1-13.1-32.5-1.3-4.7-2.2-9.5-2.1-14.4.1-.9.3-1.8.4-2.9zm64.7-217.2c-1.2 11-.2 21.8 2.9 32.3 1.5 4.9 3.3 9.7 6.1 14.1-.3-2.6-.7-5.1-.8-7.7-.1-2.6-.2-5.2.1-7.8.3-2.6.8-5.3 3-7.6.1.7.1.9.1 1.2-1 12.5 2 23.9 9 34.2 5.1 7.5 9.3 15.4 12.8 23.8 3.6 8.8 6.3 17.9 7.9 27.3.1.7.1 1.4-.1 2.3-.2-.6-.5-1.2-.7-1.8-4.6-13.2-10-25.9-16.9-38-4.6-8-9.8-15.5-16.5-22-.3-.3-.7-.7-.9-1.1-7-10.5-11-21.9-10-34.7.4-4.6 1.5-9.1 3.4-13.4.1-.5.4-.8.6-1.1zM158.5 439.5c1.4.6 2.8 1.2 4.1 1.8 7.4 3.8 14.2 8.5 20.8 13.6 10.3 7.8 20.1 16.3 29.5 25.2 1.3 1.2 2.6 1.8 4.3 1.9 4.9.3 9-1.3 11.9-5.7 2.7.7 5.4 1.3 8.4 2.1-.7.6-1.1 1-1.6 1.4-2.2 1.8-4.4 3.6-6.5 5.5-1.6 1.4-2.8 3-3.2 5.3-.5 2.5-2.4 3.5-4.8 2.5-1.9-.8-3.8-2-5.3-3.3-9.9-8.4-19.8-16.9-29.6-25.4-8.8-7.5-17.5-15.1-26.3-22.6l-2-1.7c.2-.4.3-.5.3-.6zM58.4 308.4c-1.6 1.4-3.1 1.8-4.8 1.4-.9-.2-1.7-.4-2.6-.7-2.7-.7-3.4-.3-3.9 2.5-3.3-1.2-4.1-3.2-1.9-5.8 3.6-4.3 7.5-8.3 11.3-12.5a1292 1292 0 0 0 15.4-17.6c1.6-1.9 2.9-4.1 4.3-6.2.6-.9.9-2 1.4-3.2-1.9.7-2 .7-5 4.7-1.3 1.7-2.6 3.5-4 5.1 1.9-4.5 3.9-8.9 6.8-12.8 1.2-1.6 2.3-1.9 4-.7 1.3.9 2.5 2.1 3.5 3.4 3 4.3 4.4 9.2 4.8 14.4.2 2.3-.6 4.2-2.9 5.4a46.4 46.4 0 0 0-11.5 8.2c-3.1 3-5.5 6.4-7.7 10.2.1-.8.1-1.6.2-2.3 1.2-5.2 4.3-9.3 8.4-12.5 2.1-1.6 4.2-3.1 6.4-4.4 2.5-1.5 3.6-3.6 3.1-6.5-.4-2-.5-4-.9-6.5-.8.9-1.2 1.3-1.5 1.8-4.4 6.4-9.7 12-15.8 16.9-3.7 2.9-7.2 6.1-10.7 9.3-1 .9-1.8 1.9-2.5 3-1.4 2.1-.7 4 1.7 4.8 1.3.2 2.7.3 4.4.6zm9.4-56.9c.8 2.2.6 3-1 3.8-3.2 1.5-6.4 1.5-9.2-.6-1.7-1.2-3.1-2.9-4.5-4.5-1.8-2-3-2.3-5.2-.7-1.7 1.2-3 2.7-3.5 4.8 5.4 5.8 12.8 7.5 19.8 4.4.4 1.3.1 2.5-.4 3.7-.7 1.7-1.6 2.3-3.5 2-2-.3-4-.7-5.9-1.4-4.5-1.8-9-3.8-13.4-5.8-.7-.3-1.3-.6-2.2-1-.2 1-.3 1.8-.5 2.8-1.2-1.7-2.5-3.3-3.4-5-.3-.6-.2-1.6.1-2.2.4-.9 1.1-1.6 1.8-2.3 4.2-3.9 7.5-8.5 11.1-13 .9-1.1 1.8-2.3 2.7-3.5 1.7-2.2 3.4-4.3 4-7.1.3-1.4.9-2.8 2.5-3.6 1.6 1.6 3.3 3.1 4.9 4.8.4.5.6 1.3.7 2 .1 2-.7 3.7-1.8 5.2-1.2 1.7-2.6 3.3-4 4.9-.6.8-1.3 1.5-1.8 2.3-2.6 3.6-1.8 7.6 2 9.9 2.3 1.4 4.8 1.4 7.3 1 1.1-.3 2.2-.6 3.4-.9zM325 241.1l7.8 3.9c13.7 6.7 27.7 12.8 42.5 17 5.9 1.7 11.8 3 17.9 3.4 1.8.1 3.6.1 5.4 0 2.2-.1 2.5-.4 2.6-2.6.1-2.3-.1-4.7-.1-7.1 0-.8-.1-1.6 0-2.4 1.9 6.2 4.5 12.2 3.5 19.2H401c-14-.4-27.3-3.6-40.2-9.1-11.9-5-22.9-11.6-33.1-19.5-.8-.7-1.6-1.3-2.5-2l-.5-.5c.2-.1.3-.2.3-.3zm17.1 89.5c.7 3.2 1 6.4.2 9.6-1 4.3-3.5 6-7.9 5.2-3.8-.7-7.6-1.8-11.5-2.2-3.5-.4-7.1-.3-10.7 0-3.8.4-7.5 1.2-11.2 2.1-4.1 1-7.7 2.9-11 5.5-.9.7-1.8 1.3-2.7 2.1-1.9 1.7-3.8 1.5-5.8.4-2.1-1.1-3.8-2.8-5.7-5.7 1.1.5 1.8.7 2.4 1 3.1 1.4 5.9 1.3 8.6-1.1 2.6-2.2 5.4-4.2 8.2-6.2a29.1 29.1 0 0 1 19.6-5.3c2.2.2 4.4.3 6.6.4 4.3.3 7.4-1.6 9.2-5.5 1-2 1.7-4.2 2.6-6.5 1.5 3 2.1 6.1 1.6 9.3-.5 2.8-2.1 4.7-4.7 5.8-.8.3-1.7.6-2.9 1.1.9.4 1.4.7 1.9.8l8.5.6c1.4.1 2.4-.7 2.7-2 .6-2 1-4.1 1.4-6.1.2-1 .2-2.1.2-3.1.1-.1.2-.1.4-.2zm86.5-120c-.1 5.9-3.5 10.6-9 11.9-2.5.6-4.3 2-5.6 4-1 1.6-1.9 3.4-2.8 5.1-1.3-1.8-1.8-4.5-1.4-8.4-2.7-.3-3-.1-9.7 7.7-2.7-5.6-.4-14 5.8-20.8-.9-.9-2-.7-2.9-.4-2.3.9-4.5 1.9-6.6 3-1.6.9-3.1 2-5.1 3.4.7-3.6 1.6-6.6 4.2-9.1-3.1-2.2-6.3-1.2-9.6-1 3.7-5.2 11.3-6.6 16.4-3.3.8.6 1.9.9 2.9 1.1 2.2.5 4.1 1.5 5.2 3.6.3.5 1.1.8 1.7 1.1 1.2.6 2.6.8 3.6 2.4-6.1.4-8.8 4.8-11.3 9.5l1.5-.9c3.8-2.6 7.9-3.8 12.5-2.5 2.3.6 4.4 0 6.1-1.7 1.4-1.2 2.7-2.9 4.1-4.7zM55.1 326.7c2.2.9 4.3.2 6.2-.7 3.2-1.4 6.1-3.4 8.7-5.8 1.2-1.1 1.9-2.3 1.3-4.1-.4-1.3-.3-2.7-.1-4.1 1.4 1.7 3 3.3 4.3 5.1.3.4.2 1.3 0 1.8-.5 1-1.2 2-1.9 2.8-.8 1-1.8 1.9-2.7 2.9-1.5 1.8-1.4 4.5.4 6.1.4.4 1.5.7 1.9.4 1.5-1 3-2 4-3.4.7-1 .5-2.7.7-4 2.2 1.1 2.9 2.5 1.9 4.9-.5 1.1-1.2 2.1-1.9 3.1-.6 1-1.1 2.1-.3 3.2.8 1 1.9 1.1 3.1 1 2.6-.4 4.1-2.8 3.3-5.2-.2-.6-.5-1.1-.8-1.8 3.3 1 4.6 3 3.8 6-.2.9-.6 1.9-1 2.7-.4.9-.9 1.7-1.4 2.6.7 1.5 2.1 2 3.6 2.2 3.4.5 6.7-.1 9.9-.8 2.8-.6 5.5-1.4 8.2-2.1v.2c-6.4 3.9-13.1 7.3-20.5 8.7-.9.2-1.8.2-2.7.1-2.2-.3-3.1-1.4-3.2-3.6V343c-6.3 0-7.2-1.1-6.9-8.6h-3.9c-2.3 0-4.3-.3-5.6-2.6-1-1.6-2.8-1.6-4.9-1.5 1.4 2.2 3.8 3.3 3.8 6.3-1.8-2.2-3.8-3.5-6.1-4.4-2.6-.9-3-2.6-1.2-5.5zM239 229.8c3.4-.4 6.7-.5 9.9-1.9-1-1.2-2.2-1.5-3.5-1.8-3.8-.8-7.4 0-11.1.9-4.8 1.2-9.5 2.7-14.4 3.8-4.3 1-8.7 1.6-13.1.9-1.4-.2-2.9-.7-4.1-1.3-3.3-1.7-6.7-2.2-10.4-1.3-2.5.6-5 .7-7.5.1-2.3-.6-3.8-2-4.4-4.4-.4-1.8-.1-3.2 1.4-4.4.3 1 .5 1.8.9 2.6 1.2 2.2 3.3 3.1 5.7 3.3 1.7.1 3.5.1 5.1-.3 3.6-.9 7.1-.6 10.6.1 2.9.6 5.7 1.1 8.6 1.5 3.5.4 6.8-.1 9.7-2.3 4.8-3.6 10.4-4.4 16.2-4.1 1.9.1 3.8.2 5.6.5 2.9.6 5.5-.1 7.9-1.5.6-.4 1.2-.7 2-1-2.4 4.4-4.2 8.8-2.7 14.1-4.6.1-8.5-1.7-12.4-3.5zm61.4 52.2c2.7-7.6 2.8-15 2-22.5 2.1.9 3 2.8 4 8.3.3-.8.7-1.4.8-1.9.5-3 1.1-6.1 1.5-9.1.1-1.2-.2-2.4-.6-3.6-.6-1.8-1.5-2.1-3.2-1.4-3.2 1.3-5.9 3.4-8.1 6.1-2.9 3.6-4.5 7.7-4.8 12.3-.3 4.3-.2 8.6 1.4 12.7.8 1.9 1.8 3.8 2.8 5.9-.5-.2-.9-.3-1.3-.6-3.6-2.4-5-6.1-5.8-10.1-.8-3.9-1-7.9.1-11.6 2.5-8.7 7.6-15.4 16.6-18.3 1.4-.4 2.3-.1 3.1 1.1 2.4 3.2 3.6 6.9 3.9 10.9.4 4.8-.2 9.4-1.6 14-.9 3-2.1 6-3.3 8.9-1.8 4.1-6.1 5.1-9.9 2.3 1-.2 1.9-.4 2.8-.6 2.3-.7 4.1-2 5.2-4.2 1.5-3 2.2-6.2 2.7-9.5-1.8 4-3.4 8.4-8.3 10.9zm43.4 128.5c-.3-.7-.7-1.4-1-2.2-1.6-2.9-3-5.9-4.7-8.8-2.8-4.9-7.4-7.9-12.8-10.7.5 1.1.7 1.7 1 2.3 2.8 5.5 4.9 11.2 5.5 17.3.4 3.3.1 6.6-1.5 9.7-.6-8.4-4.2-15.6-8.9-22.9-3.3 7.5-6.2 14.7-8.5 22.3-.8-2.3-1-4.7-.2-8.1.7-3.1 1.7-6.1 2.6-9.1 1.4-4.6 2.8-9.2 4.1-13.8.3-1 .3-2.1.4-3.2 2.9-.2 5.5.6 8.1 1.6 3.7 1.4 6.8 3.8 9.3 6.9 4.4 5.5 6.3 11.8 6.6 18.7zm104.8 37c.1-1.5.3-3 .4-4.6.7-10.1 1.5-20.3 2.1-30.4.2-3.8.2-7.6.3-11.4 0-.7 0-1.5-.1-2.2-.1-2-.5-3.6-2.6-4.4-.9-.4-1.7-1.2-2.4-2-2-2.2-1.9-4.4.3-6.3.5-.4 1.1-.8 1.9-1.3-.8 4.4-.8 4.4 3.6 4.9 6.7.7 13.4 1.4 20.5 2.2-2 1.2-4 1.2-5.8 1.5-2.1.3-4.2.4-6.3.5-2 .1-4 0-6.1 0 2.4 2.6 5.7 3.6 8.8 5-6.6 9.7-8.6 20.8-11.1 31.8-1.2 5.5-2.1 11.1-3.2 16.7h-.3zm-220.4 7.9c.7-.4.9-.6 1.2-.7 5.1-1.4 8.9-4.7 11.8-9 3.1-4.6 4.6-9.8 5.9-15.1 2.1-8.3.6-16.3-1.8-24.2-3.2-10.6-8-20.6-13.3-30.3-.4-.6-.7-1.3-1-1.9-.1-.1 0-.3.1-.6.2.1.4.2.5.3 8.2 11.1 15.2 22.9 19.2 36.2a47.7 47.7 0 0 1 2.2 16.8c-.1 1.4-.4 2.9-.8 4.3-1.8 5.2-4 10.1-7.2 14.6-2.3 3.2-4.9 6.1-8.5 7.9-2.4 1.4-5 2.2-8.3 1.7zM183 361.2c1.6 2.5 3.1 4.9 4.8 7.6-3 1.8-6.3 1.9-9.6.7s-5.6-3.7-7.9-6.3c.9 5 3.4 8.9 7.8 11.5 4.2 2.4 8.8 2.9 13.9 2.8-5.3 2.6-13.8 2.1-18.8-2.6-3.9-3.6-6.3-8.1-7.4-13.2-1.3-5.7 2.8-12 8.6-13.5v2.6c.1 2.5.5 5 1.7 7.3 1.8 3.6 3.3 4.2 6.9 3.1z"/><path d="M84.7 361.8c3.1-1.3 6.3-2.5 9.4-3.8 6.6-2.9 12.8-6.4 18.1-11.3 1.3-1.2 2.5-2.6 3.7-3.9.8-.9 1.2-1.9.9-3.1-.4-1.7-.7-3.4-1.3-4.9-.9-2.3-.5-4.2.8-6.2 1.6-2.3 3-4.7 4.4-7 .3-.5.5-1 .9-1.8-.8 0-1.5-.3-1.9-.1-2 .9-4.1 1.7-5.8 3-2.7 2-5.1 4.5-8.1 7.1.6-1.1 1-1.7 1.3-2.4 1.4-2.9 2.9-5.8 4.3-8.7.6-1.3.4-2.4-.6-3.6s-1.8-2.7-2.4-4.4l1.7 1.4c2.9 2.4 6 4.3 9.7 4.7 2.1.3 4.2.3 5.8-1.5 2 2.3 2 3.7 0 5.8-1.6 1.8-3.3 3.6-4.8 5.5-2.8 3.4-3.4 7.1-1 11.1.2.3.4.7.5 1.1 1.5 3.3 1.4 4-1.2 6.6-6.7 6.5-14.2 11.9-23.2 14.9-3.6 1.1-7.3 1.9-11.2 1.5zm319.6 0c.6 1.5 1.2 3 1.7 4.5 4.9 14 9.9 28.1 14.7 42.1 1.7 4.9 1.5 5-.7 9.6-.9 1.8-1.8 3.6-2.9 5.7-.9-1.2-1.2-2.3-1.6-3.4-.6-1.4-1.2-2.9-1.7-4.3-.2-.6-.4-1.3-.2-1.9 1.1-3.6.4-7.1-.3-10.6-1.9-9.9-5.1-19.5-8.6-29-.6-1.6-.9-3.2-.9-5 .1-2.6 0-5.2 0-7.8.2.1.3.1.5.1zm-95.1 29c-2.3-1-4-3.6-3.5-6.2 1.3-6.8-1.8-11.6-6.9-15.5-.3-.2-.7-.3-1-.7 1.5-.9 2.6-.5 3.7-.1 2.1.8 3.9 2.2 5.2 4 .6.7 1.2 1.2 2.2 1.2 7-.2 13.8 1.2 20.6 2.4 6.2 1.1 12.5 2.1 18.7 3.3 3.1.6 5.2-.6 6.9-3 .7-.9 1.3-1.8 2.1-2.6-.2 3.4-.9 6.6-2.6 9.5-.9 1.6-2.2 2-3.9 1.6-4-1-8-2-12.1-3-6.2-1.5-12.3-3-18.5-4.3-2.5-.5-5.2-.7-7.8-.7-3.1-.1-3.4.5-3 3.4.2 1.4.6 2.9.8 4.3.6 2.2.6 4.3-.9 6.4zm79.5-201c5.1.4 9 2.4 11.9 7.2-3.9-1.3-7.4-2-11-1s-6.4 3.4-9 6.6c-.8-3.9.2-6.9 2.3-9.9-4.7-.9-8.5.8-12.5 2.3-.1-2.3.7-3.4 5-7.2-.9-.9-1.9-.9-2.8-.4-2 1-4 2.1-6 3.2-.8.5-1.5 1.1-2.7 1.5 1-1.9 2-3.8 3-5.8-3.2-1.5-5.9.2-8.7 1 1.3-3.6 5.7-5.8 9.3-4.6 1.4.5 2.6.6 4 .3 2.5-.5 4.8.1 6.9 1.5.7.5 1.6.6 2.4.8.5.1 1.1.1 1.7.1 2.8.4 5.2 1.3 6.2 4.4zm-109.5 14.7c-3 1.2-3.4 4-4 6.9-1.1-1.9-.9-3.7-.5-5.4.7-3 2.6-5.4 4.7-7.6 1.3-1.4 2.7-2.8 3.9-4.3 2.9-3.5 6.3-6.4 10.5-8.1 3.1-1.3 6.4-1.9 9.8-1.3 2 .3 2.8 1.2 3.6 3.5-4-2.7-7.5-1.1-10.8.9-6.4 3.8-10.7 9.2-11.5 16.9-.5 5 .8 9.5 4 13.4.6.7 1.7 1.5 2.6 1.5 1.8.2 3.7-.1 5.5-.3.8-.1 1.5-.4 2.5-.8-3 3.3-7.9 3.9-11.4 1.3-5.1-3.8-8.6-8.6-8.5-15.4 0-.4-.1-.8-.2-1.1 0-.1-.1-.1-.2-.1zm-170.7 78.9c1.9.2 3.2 1.2 4 2.6 1.2 2.2 2.4 4.5 3.1 6.8 1.1 4 1.8 8.1 2.6 12.1.5 2.6 1.4 3.9 3.6 4.7.9-.9.9-2.1.8-3.1-.4-3-.9-6.1-1.7-9.1-1.2-4.4-2.8-8.6-5.2-12.6-.1-.2-.1-.4-.3-1.2 1.4.8 2.6 1.2 3.4 2 1.4 1.4 2.8 3 3.8 4.7 3.2 5.6 4.8 11.7 5.7 18 .3 1.7-.2 2.5-1.9 3.2-1.9.8-3.7.8-5.7.1-4.4-1.8-7.2-4.7-8-9.5-.6-3.6-1.5-7.2-2.3-10.7-.5-2.6-1.2-5.2-1.9-8zm105.3 181.9c7.5.8 14.9 1.7 22.4 1.7 3.8 0 7.2-1 10-3.7 2.4-2.4 4.9-4.7 7.6-7.2 0 .6.1 1.1 0 1.4-1.7 5.4-3.3 10.7-5.1 16-1 2.8-1.3 3-4.3 2.6-2.2-.3-4.4-.7-6.4-1.5-7.9-2.9-15.7-5.9-23.5-8.9-.2 0-.5-.2-.7-.4zm179.3-224.7c-.9-.7-1.7-1.4-2.6-2.1-12-9.3-24.9-16.7-39.7-20.8-8.1-2.2-16.4-3.3-24.8-2.4h-1.6c2.9-1.6 5.6-2.2 8.4-2.8 10.4-2.1 20.2-.2 29.7 4.1 12 5.4 21.9 13.6 30.7 23.2.1.1.2.3.2.4-.1.2-.2.3-.3.4zm95.9 90.8c-.3-.4-.7-.8-.8-1.3-1.5-7.3-2.8-14.7-4.4-22-2.3-11-4.8-22-7.2-33.1-.7-3.2-2-6-4.6-8-1.4-1.1-2.5-2.5-2.2-4.6 4 2.3 3.9 2.2 7.2-1 1.2-1.2 2.5-2.3 4-3.2 1.8-1.2 3.7-1 5.5.9-.7.3-1.2.4-1.7.7-1.3.7-2.6 1.3-3.8 2.1-1.2.8-1.4 1.8-1.2 3.4 2.9 20 5.6 40.1 8.4 60.1.3 2 .5 4 .8 6z"/><path d="M119.3 348.8c1.6.7 2.5 2.3 3.1 4.1.3.8-.1 1.4-.8 1.9-10.1 7.4-20.4 14.2-33 16.7-3.9.8-7.9.9-11.8-.6-2.2-.9-3-3.1-1.6-4.9.4-.6 1.1-1.1 1.6-1.5.3.1.4.2.5.2.9 3.2 3.4 3.6 6.1 3.6 3.2.1 6.3-.6 9.3-1.6a66.3 66.3 0 0 0 22-12.7c1.6-1.6 3-3.4 4.6-5.2zm225.1-104.6l9.3 2.7c9.1 2.6 18.1 5.2 27.4 6.8.9.2 1.8.2 2.7.4 3.5.8 6-.7 7.9-3.4.7-.9 1.3-1.8 2.1-3.1.9 3.4 1 6.5.6 9.7-.2 2.1-.7 2.4-2.9 2.3-4.5-.2-8.9-1-13.2-2.2-11.6-3.1-22.6-7.6-33.5-12.5-.2-.1-.4-.3-.6-.4.2-.1.2-.2.2-.3zM110 342.7c-1 .9-1.9 1.9-2.9 2.8-9.9 8.7-21.4 12.5-34.6 11.5-1.8-.1-3.1-.9-3.8-2.5-.7-1.6-1.3-3.2-1.8-4.8-.9-2.8-1.8-5.7-2.8-8.8.5.1 1 0 1.4.3.6.4 1 1 1.4 1.6.5.8.9 1.6 1.2 2.4 2.1 6.1 6.8 8.3 12.9 8.2 4.9-.1 9.5-1.3 13.9-3.1 4.5-1.8 8.8-4.2 12.8-6.9.6-.4 1.3-.8 2-1.2.1.3.2.4.3.5zm-6.6-39.8c.8 1.4 1.4 2.6 2.2 4-6.7 3.1-9.9 9-12.8 15.2-.6-3.3-.8-6.6.7-9.9-2.4.3-3.5 2-5.1 3.3-1-1.4-1.1-2.7-.5-4.1.4-1.1.3-2-.2-3-1.1-2.3-2.4-4.6-4.3-6.7-.9 1-1.6 1.9-2.4 2.8-.6-2.7.5-5.8 2.5-7.2 1.3-.8 2.3-.4 2.5 1.2.6 3.5 2.4 6.2 5.1 8.3 2.4 1.9 4.4 1.9 6.8.1 1.7-1.2 3.5-2.6 5.5-4zM274.7 223c-.4-.4-.6-.5-.6-.7-1.1-4.1-4.3-4.7-7.9-3.6-3.9 1.2-7.9 5.6-7.3 11.4.1.8.3 1.6.6 2.3 1.3 3 3.2 4.1 6.4 3.2 1.6-.4 3.1-1.2 4.5-1.8-1.5 3.1-6.3 5.4-9.7 4.4-.7-.2-1.3-.6-1.9-1.1-2.9-2.6-4.1-6-4.3-9.8 0-.8.3-1.6.6-2.3 1.9-4.6 5.3-7.9 9.6-10.3 2.8-1.5 5.4-.9 7.8.6 2.2 1.3 2.6 3.6 2.4 6 0 .4-.1.8-.2 1.7zm6.5 9.4c.6-1 1.1-2.1 1.8-3.3-1.7-.7-3.2.5-4.8.8 1.3-2 3.5-3 5.6-2.7 2.2.3 4.3.5 6.5.9 1.4.3 2.7.8 4.1 1.3.8.3 1.7.6 2.5.8 4 1.4 5.1 4.1 2.9 7.8-.5.8-1.1 1.6-1.7 2.4-.6.7-1.1 1.4-1.7 2-.1-.1-.3-.2-.4-.3l.9-1.8c.7-1.6 1.4-3.1 2-4.7.4-1.1-.1-1.9-1.3-2.2-.7-.1-1.5-.3-2.1-.1-5 1.1-8.5 4.2-11 8.5-.9 1.5-.7 1.9 1.1 3.6-.7.3-1.2.6-1.8.7-2 .4-3.3-.7-3.3-2.7 0-1.9.8-3.5 1.9-4.9 1.8-2.4 4.2-4 6.9-5.3.9-.4 1.7-.8 2.5-1.4-3.5-1-6.8-.7-9.9 1.2-.4-.3-.5-.4-.7-.6zM33.2 267c0-2 1.6-2.8 2.9-4 .3.7.4 1.5.9 1.8.4.4 1.2.4 1.9.4 3.2.1 6.5.1 9.7.1h2.9c-1 1.6-2.7 1.9-4.2 2.3s-3.1.6-4.8.9c-.2 1.7.5 3 1.4 4.1 1.7 2.1 3.4 4.1 5.3 6 2.2 2.1 4.7 4 7 6.1 1.6 1.4 1.6 1.7.5 3.5-.5.8-1.1 1.6-1.6 2.4-.1.2-.4.3-.7.5-.3-.3-.7-.6-.7-.9-.3-2-1.5-3.4-2.7-4.8-3.8-4.6-7.6-9.1-11.4-13.6-2.9-3.4-2.9-3.3-6.4-4.8zM303 424.6c-1.5-2.8-2.1-6-2.7-9.2-1.1-5.5.5-10.2 4-14.5.7-.9 1.4-1.8 2.2-2.6 4.4-5.2 5.3-7.3 6.5-14 .2.6.4 1.1.5 1.7.3 3-.1 5.9-1.3 8.6-.9 2.2-2 4.3-3.1 6.3-3.6 6.1-5.8 12.7-6.1 19.8-.1 1.3 0 2.6 0 3.9zM108.9 251.7c-2.5-.3-4.6-.4-6.7-.8-.7-.1-1.3-.9-1.7-1.5-2-2.9-4.4-5.2-8-6.8.4 1.1.7 1.8.9 2.6.1.8 0 1.7 0 2.6-2.1-2.6-4-5-5.9-7.3 2.5-2.2 6.5-2.9 10.1-1.3 1.7.7 3.3 1.8 4.6 3.1 2.9 2.4 4.9 5.5 6.7 9.4zm187.9-33.3c.4-.7.7-1.4 1.1-2.1 2.8-5.1 5.3-10.3 6-16.1.2-1.8.2-3.7-.1-5.5-.4-2.6-1.2-3-3.9-2.8-.3 0-.6.1-1 .1 2.3-3.3 6.1-3.2 7.8.3 2.1 4.3 2.1 8.9.6 13.3-1.9 5.4-5.3 9.8-10.5 12.8zM76.3 236.2c.1 1 .2 1.9.2 2.8.1 2.1 0 2.2-2.2 2.7-.2 0-.3 0-.5.1-.1 0-.3.1-.5.3v2.4c0 1 0 2-.1 2.9-.4 2.8-1.2 3.3-3.9 2.9-3.5-.5-6.3-2.3-8.7-5 .8.2 1.7.5 2.5.6 1.7.2 3.4.5 5.1.3 2.4-.2 3.4-1.8 3.4-4.4-1.9-.6-3.8-1.2-5.6-1.8 0-.1 0-.3.1-.4h2.7c1.4-.1 2.8-.1 4.1-.4 1.1-.2 1.8-1.1 1.9-2.3s-.9-1.6-1.8-1.9c-2-.8-4-1.6-5.9-3.4 4 .3 7.8 2.4 11.4-.1 2.1 2.8 1.6 3.9-2.2 4.7z"/><path d="M90.6 285.7c.7 1.9.1 3.1-1.4 4.2-2.4 1.8-4.8 3.6-7.1 5.5-2.8 2.3-5.2 4.9-6.1 8.5-.2.8-.6 1.5-.9 2.2-1.2 3-3.5 4.1-6.6 3.9-1.5-.1-3-.5-4.4-1.2.7-.2 1.5-.5 2.2-.7 3.7-1.4 6.3-3.8 8-7.4.6-1.2 1.3-2.5 2.3-3.3 3.5-3.1 7.2-6.1 10.8-9.1 1-.8 2-1.6 3.2-2.6zm-24.7 28.4c-4 3.4-8.7 5.1-13.6 7 1.1 1.2 2.1 2.3 3.3 3.5-2.4-.5-4.6-1-6.8-1.5-1.5-.4-2.4-1.4-2.7-2.8-.4-1.7-.5-3.5.5-5.2 4.6 1.8 9.2.9 13.7.2 1.8-.3 3.7-.8 5.6-1.2zM102 285c.2 1.4.3 2.7.5 4.1.7 4.6 2.6 8.6 6.6 11.2 2 1.3 2.6 2.8 2.3 5-.2 0-.4.1-.5 0-5.3-3.2-9.3-7.5-11-13.7-.3-1.2-.4-2.6-.3-3.8.1-1.5.6-2 2.4-2.8zm138.9-66.8l2.6-.3c1.8-.2 3.5-.8 4.9-1.9 3.5-2.6 3.7-6.5.5-9.5-.2-.2-.3-.4-.4-.6 4-.6 6.3 1.6 6 5.4-.3 3.6-4 8.5-8.8 8.1-1.6-.1-3.2-.3-4.7-.5-.1-.2-.1-.5-.1-.7zM60.7 267.5c-1 3.5 1.6 5.8 3 9.1-2.1-.8-3.7-1.8-4.9-3.1a8.16 8.16 0 0 0-4.8-2.6c-1.9-.3-3.8-.7-5.8-1 4.1-.8 8.1-1.5 12.5-2.4zM296 196.1c3.1-.6 5.4 1.4 5.3 4.5 0 1-.2 2.1-.5 3.1-.9 3.4-2.5 6.4-4.9 9.1.2-.7.5-1.5.7-2.2 1-2.9 1.6-5.9 1.7-9 0-3.3 0-3.3-2.3-5.5z"/><path d="M243 209.1c1.5 0 2.6 1.1 2.7 2.5 0 1.4-1.1 2.4-2.7 2.4-1.5 0-2.6-.9-2.7-2.2-.2-1.4 1.1-2.6 2.7-2.7zm-27.9 12.1c0 1.2-1.1 1.9-2.2 1.8-.9-.1-1.7-.3-1.7-1.3 0-.8 1.1-1.6 2.2-1.4.7.1 1.2.7 1.7.9zM489 331.4l.3 2.2h-.4c0-.7.1-1.5.1-2.2z"/><path class="st0" d="M279.6 165.6c-.5-.4-.7-.5-.9-.7-3.9-5.2-9.2-6.7-15.3-5.9-4.8.6-9.6 1.7-14.4 2.5-11.2 1.8-22.4 3.2-33.7 2.5-5.3-.3-10.5-.9-15.5-2.8-2.7-1-5.4-2.2-7.6-4.8.7 0 1-.1 1.3 0 9.6 3.5 19.5 4.2 29.6 3.9 10.4-.3 20.5-2.2 30.5-4.8 5.6-1.5 11.3-2.4 17.1-1.2 1.8.4 3.6 1 5.2 2 3.2 2.1 4.4 5.2 3.7 9.3zm-21-73.9c-.6 1.2-.9 1.8-1.2 2.5-1.5 3.5-.7 6.9 2.4 9.3 2.8 2.2 6.1 3 9.5 3.4 6.8.9 13.5.3 20.2-.6.4-.1.7-.2 1.3-.4-3.4-.6-6.7-1.1-9.9-1.8-2.1-.5-4.2-1.3-6.2-2.2-1.9-.9-3.5-2.3-3.5-4.6s1.6-3.7 3.4-4.7c3-1.7 6.4-2.5 9.7-3 10.7-1.4 21.4-1.3 32 1.4 2.5.6 4.9 1.7 7.2 2.9 3.1 1.7 3.4 3.6 1.7 6.7-1.5 2.7-3.7 4.5-6.3 5.9-4.1 2.4-8.6 3.8-13.2 4.8-12.9 2.9-25.9 3.6-39 3.1-7.2-.3-14.5-.6-21.6-2.2-2.3-.5-4.6-1.1-6.7-2.1-4.4-1.9-4.8-4.8-1.4-8.1.8-.7 1.6-1.4 2.5-2 5.7-3.5 12-5.8 19.1-8.3zM104 186.2c-3.5 1.1-6.7 1.8-9.8 3.1-9.4 3.7-16.6 10-22.4 18.2-1.4 2.1-2.7 4.2-4 6.4-.3.5-.5 1-.9 1.5-.6.9-1.6 1.6-2.7 1.3s-1-1.4-.9-2.3c.1-1 .3-2.1.6-3.1 4.3-11 12.2-18.2 23.3-22.1 4.9-1.7 9.9-2.5 15-2.9.6-.2 1-.1 1.8-.1z"/></svg>