<svg xmlns="http://www.w3.org/2000/svg" viewBox="0 0 325 325"><path d="M63.7 22c-.7.6-1.3 1.4-1.8 2.8l-.3.7.9-.8c.5-.5 1.6-1.3 2.6-1.8.9-.5 1.6-1.1 1.5-1.2-.3-.4-2.2-.2-2.9.3m23.6.7c-.9.2-.7.5.4.9 1 .4 2.7 2 4.5 4.1 1.3 1.6 1.4 1.5.7-.4-.7-1.8-4.1-5.1-4.9-4.7-.1 0-.4.1-.7.1m-15.7 6.1c-6.2 1.7-8.2 10.1-3.5 14.8 1.4 1.4 1.8 1.3.8-.2-3-4.7-1.7-11.3 2.5-13.5 2.6-1.2 2.7-1.8.2-1.1m10.6 1.4c2.3 1.5 3.7 4 3.7 6.9 0 2.5.4 2.9.8 1 .6-2.7.4-3.6-1.3-6.2-1-1.5-2.4-2.4-3.8-2.4-.5 0-.4.1.6.7m-7.8 2.3c-2.5.9-3.4 2.4-3.4 5.7s1.4 5.2 4.1 5.2c2 0 2.7-.9 1-1.1-.6-.1-1.4-.4-1.7-.7-.9-.9-1.2-2.7-.3-1.9 1.9 1.5 5.5-1.5 4.9-4.1-.2-.6-.1-.7.3-.4.6.3 1.6 2.3 1.7 3.1 0 .4.1.3.2-.2 1-3.8-2.9-7-6.8-5.6M60.3 43.3c0 1.8.6 3.3 1.9 4.5 1.2 1.2 1.9 1.1.8-.1a8.4 8.4 0 0 1-2-4.5c-.3-1.9-.7-1.8-.7.1m34.4 2.1c-.6 1.8-3 5-4.2 5.8-1.3.8-1.7 1.3-.8 1.1 3.2-1 5.8-4.4 5.5-7.2l-.1-1-.4 1.3m-12.3 0c-1.3.9-1.4 1-.8 1.1.9.1 2.1-.4 2.4-1.2.6-1.2.4-1.2-1.6.1m-7.5 17.1c-.1 8.8-.3 16.9-.5 18.7-.2 1.7-.3 5.5-.4 8.5 0 3-.3 8.2-.7 11.6-1.2 12.5-1.1 13.8.8 14.3 1.1.3 5.1 0 5.8-.4.3-.2.1-35.4-.3-38.3-.1-1.1-.3-5.1-.4-8.8-.4-13.4-.5-16.3-.8-16.2-.1 0-.2.2-.2.3.1.1.1 3.3 0 6.9-.1 8.2-.1 50.6 0 52.9s-.7 2.6-1.6.8c-1.3-2.5-1.3-3.5-1.1-25.3.2-19.6 0-38.6-.5-40 .1-.3 0 6.5-.1 15m175.2 27c-1.7.6-3.6 1.3-4.2 1.7l-1.1.6.2 1.9c.1 1 .3 3.4.4 5.2.4 5 .4 5.1 1.3 5.1.8 0 1.1-.4 1.1-1.3 0-.5 1.2-2.1 1.6-2.1.1 0 .3.7.4 1.6.3 2.9 1.2 1.7 1.2-1.6 0-.9.1-1.6.3-1.6.1 0 .4-.1.6-.1.2 0 .4.8.6 2.5.5 4.6 1.4 3 1.6-2.6 0-1.1.7-2 1.1-1.6.2.2.7 4 .9 6.4.2 2.3.7 3.2 1 2 .1-.4.1-2.6 0-4.8-.2-4.2-.1-4.7 1-4.7.4 0 .8 2.5 1.4 8.5.4 3.6.8 1.6.8-3.7 0-4 .1-5.2.3-5.3.2-.1.7-.4 1.1-.7.9-.7 4.1-2.3 4.4-2.1.1.1.2.6.2 1.1 0 .9 1.9 11.1 2 10.9.1-.1-.4-10.6-.6-12.5l-.2-1.7-1.5-.7c-3.5-2-11.1-2.1-15.9-.4m-88.2.8c-.1.1-1.6.2-3.5.3-17.1.8-36.5 3-42.1 4.8-1.1.4-3.2 1-4.6 1.3-4 1-4.6 1.6-6 5.1-.6 1.6-1.5 3.6-2.1 4.5-1.4 2.5-2.9 7.3-2.4 7.7.7.7 4.4 2 6 2.1 1.9.2 1.8.3 3.2-3.1.6-1.4 1.5-3.8 2.2-5.3l1.1-2.8-2.3-1c-2.1-1-2.9-1.6-1.8-1.5.3 0 .7 0 .9-.1.4-.2 6 1.1 6.6 1.5 3.1 1.9 34.5 3.6 45.4 2.4 1.7-.2 5.9-.4 9.3-.6 3.4-.1 8.5-.4 11.3-.7 2.8-.2 9.1-.6 14-.8 6.4-.3 9.9-.6 12.3-1 1.8-.3 3.5-.6 3.8-.6s.5-.1.5-.2c0-.3 2.7-.3 2.8.1 1.6 5.3 5 13.3 5.6 13.3s-1-4.8-3.9-12.2c-.3-.8-.6-1.5-.6-1.6 0-.2 2.2-.9 2.3-.7 0 0 .4 1 .8 2.2.8 2.4 4.3 10 4.7 10.4s.2-.6-.8-3.3c-2-5.5-3-9.3-2.8-10s.3-.5 1.4 2.3c1.4 3.6 4 9.9 4.3 10.2.2.2 1.1-.1 1.5-.5 0 0-.3-1.1-.8-2.3-.5-1.2-1.4-3.9-2.1-6-2.7-7.7-2.8-7.9-8.1-9.4-10-2.8-19.4-4-35.3-4.2-4.3-.1-10.7-.2-14.3-.3h-6.5m102.3.8c-1.9 2-15.5 3.1-17.3 1.3-.4-.4.5-.6 1.8-.3s9.9 0 11.4-.5c.5-.1 1.3-.3 1.8-.3s1.2-.2 1.7-.4c1.1-.5 1.1-.5.6.2m-91.2.8c.7 0 .3.5-.5.6-2 .2-1.1.8 1.2.8 1.2 0 4.1.1 6.4.3 2.3.2 7.1.5 10.8.7 7.8.5 15.8 1.8 18.6 3.1.9.4.9.9.1.7-5.9-1.7-23.9-3.3-36.8-3.4-4.7 0-26 .7-26.3.9-.1.1-2.5.4-5.2.7-2.7.3-6.9.9-9.4 1.2-2.4.4-5.4.8-6.5.9-2.7.3-8.2 1.4-8.5 1.6-.4.3 1.7 1.3 4 1.8 2.7.7.8.8-2.2.1-8-1.7-8.7-3.4-2.1-5.2 8.4-2.2 9.2-2.4 16.7-3.2 2.9-.3 7-.7 9.1-.9 2.1-.2 5.1-.4 6.9-.4h3.1l-.2 1c-.1.8-.1.9.3.9.4-.1.5-.4.6-1.1.1-.9.1-1 1-1s.9 0 .8.9c-.1 1.1.4 1.3.6.3.2-1.5 2.2-1.6 2.2-.1 0 .7.1.8.7.8s.7-.1.7-.9c0-.9.1-.9.8-.9.8 0 .8 0 .7 1-.2.9-.1.9.4.9.5-.1.6-.3.7-1 .1-.8.2-.9 1-.9s.9.1.8.8c-.1.8.1.9 1.2.6.5-.1.6-.3.5-.8s0-.6.5-.6c.4 0 .6.2.6.6 0 .7.1.7 1.1.7.5 0 .7-.1.7-.7 0-.5.1-.7.5-.7s.5.2.5.7c0 .6.1.7.9.7.9 0 .9-.1.9-.8 0-.8 0-.8.8-.7.6-.1 1.1 0 1.3 0m37.4 4.4c-.1.6-.6.5-.7-.1-.1-.2.1-.4.4-.4.2.1.4.2.3.5m1.8.4c0 .2-.2.4-.5.5s-.5-.1-.5-.5.1-.5.5-.5c.3 0 .5.3.5.5m2.1.6c0 .5-.1.8-.5.9s-.5-.1-.5-.9.1-1 .5-.9.5.4.5.9m3.7-.2c1.1.7-.4 2.2-2.3 2.4-.9.1-1 .1-.5-.1s.6-.5.6-1.5v-1.2l1 .2c.5 0 1.1.1 1.2.2m9.2 3c-.9.1-.9.2-.3 1 .2.3 1.2 3 2.2 5.9l1.8 5.3-1.3 1.2c-.7.7-1.8 1.4-2.4 1.7-.6.3-2 1-3.1 1.5s-3.2 1.3-4.5 1.7l-2.6.6.8.4c1.7.9 5.4 2.1 9.8 3.2 7.5 1.9 8.6 2.1 12.3 1.9 3.1-.2 3.3-.1 3.3.3 0 1.7-10.6 1.8-17.1.1-2.6-.7-5-1.4-18.8-5.9-10.7-3.5-17.6-4.9-28.9-5.8-1.2-.1-2.7-.3-3.3-.5s-2.4-.3-4.1-.3c-1.7 0-5.2-.2-7.7-.3-3.6-.2-5.4-.1-7.9.2-1.8.2-4.9.5-7.1.6-4.7.2-12.6 1.7-18.3 3.5-2.1.7-5.4 1.6-7.3 2.1-4.1 1.1-13.7 4.3-19.3 6.4-2.1.8-5.2 2-7 2.6-2.9 1.1-4.1 1.7-8.3 4-1.9 1-1.2.5 1.6-1.4 1.3-.9 4.1-2.5 6.2-3.5 2.7-1.3 4.4-2.4 5.8-3.6 1.1-.9 2.4-1.8 2.8-2 1.3-.4 1-.7-1.3-1.3-1.1-.3-2.3-.7-2.7-.9-.8-.5-.9-.4-.6.4.4 1.2.6 2.4.3 2-.2-.2-.4-.1-.7.6-1 2.2-8.9 5.5-15.1 6.3-5.8.8-14 .3-21.5-1.3-5.3-1.1-7.5-4-5.1-6.7.7-.8 5.2-3.8 5.6-3.8.7 0 1-.7.5-1s-7.6 1-8.8 1.5c-.3.1-1.9.4-3.5.6-1.9.2-3.5.5-4.5.9-.9.4-2.7 1-4.1 1.3-4.5 1.2-8.6 3.7-8.6 5.3 0 .2-.1.5-.2.6-.4.2-2.2 3-3.5 5.5-1.2 2.2-1.6 3.2-2 4.9a4 4 0 0 1-.9 1.5c-2.2 2.1.1 4.9 6.1 7.5 1.4.6 2.7 1.3 2.9 1.4 1 .8 13.3 5.4 17.3 6.4.9.2 3 .9 4.5 1.5 1.6.6 4.3 1.5 6 2s3.7 1.3 4.3 1.6c.6.3 2.9 1.2 5.2 1.8 2.3.7 5.8 1.7 7.8 2.4s5.1 1.5 6.8 1.9c1.7.4 4.3 1 5.7 1.3 4.1 1 8.8 1.6 16.1 2.1 3.8.2 8.7.6 10.9.8 2.2.2 6 .4 8.5.4 4.2 0 4.6 0 5.3.6.4.3 1.5.8 2.3 1.1s2.5.9 3.7 1.4c7.1 3 18.9 3.4 24.8.9 1-.4 2.4-1 3.1-1.3 12.3-4.9 19.9-19.9 16.6-32.4-1.8-6.8-5.9-12.3-11-14.7-2.4-1.1-2.7-1.1-1 0 3.1 2.1 7.3 8.5 8.1 12.4.6 2.6.7 9.9.1 12.8-2 10.9-9.8 19.6-20.5 22.9-1.8.5-8.2.3-11.2-.5-13.1-3.2-20.1-11.2-21.7-24.8-.4-3.8.9-9.9 2.9-13.5 1.6-2.8 1.6-2.5-.2-2.5-7.8 0-20.4 3.1-36.3 8.9l-4.1 1.5-4.7-.4c-2.6-.2-6.5-.6-8.7-.8-7.9-.7-11.3-1.3-20.4-3.3-7.1-1.6-15.2-4.7-19.6-7.5-2.1-1.4-.8-1.2 2.5.3 5.2 2.4 13.8 4.8 20.4 5.6 1.1.1 2.8.4 3.8.6 8.4 1.4 19.7.2 26.4-2.9 1-.5 3.1-1.3 4.5-1.9 1.5-.6 4-1.6 5.5-2.4 1.6-.7 2.9-1.4 3-1.4s1.8-.7 3.8-1.6c5.7-2.4 10.9-4.2 16.1-5.5 9.8-2.4 14.2-3.4 15.8-3.6 2.2-.3 10.6-1.8 12.3-2.1 2.4-.5 11.3-.6 14.7-.3 1.7.2 4.1.4 5.3.4 12.5.7 19.2 2 28.4 5.5 2 .7 4.8 1.6 6.3 2s4 1.1 5.7 1.6c1.6.5 4.2 1.2 5.7 1.6s4.4 1.2 6.3 1.7c5.8 1.8 10.9 1.7 19.5-.3 2.6-.6 6.3-1.3 8.1-1.6 1.8-.3 4.2-.8 5.2-1 1-.2 4.9-1.3 8.5-2.2 11.4-3 15.7-4.6 16.6-6.3.2-.3.6-.8.9-1 .6-.4.6-1.1-.1-2.6s-6.8-4.9-10-5.7l-2-.5-1.6.8c-2.8 1.4-8.5 3-10.7 3-1.3 0-1.3-.2-.3 2.2 1.2 2.9 1 3.2-3.6 5.8-2.2 1.3-2.6 1.4-5.1 1.6-1.5.2-3.2.5-3.9.7-3.4 1.1-12.6-.1-12.6-1.7 0-.4.1-2.4.2-4.4.3-6.2.1-5.7 2.6-6.9 2.2-1.1 4.8-1.9 6.1-1.9 1.4 0 1.7-.8 1.1-3.4.3-.6-11.3-2.1-15.6-1.4M116 106c-.1.3-.5 1.2-.9 2.2-.4.9-1.2 3.2-1.9 5-1.4 3.7-1.5 4.1-.7 4.1 1.2 0 5-1.2 5.5-1.7 1-1 3.8-8.3 3.3-8.7-.5-.7-5-1.4-5.3-.9m129.2.4c-6.3.8-9.9 2.2-10.1 3.8-.3 1.8-.6 7.9-.5 8.1.2.3 8.4 1 8.6.8.1-.1.3-.7.5-1.4 1-3.4 2.4-4.8 2.4-2.2 0 2.4 1.1 4.4 1.5 2.7.3-1.4.7-4.1.7-5.2 0-1.2.4-1.7.8-1.1.1.2.2.6.2.9 0 1.2 1.1 4.7 1.5 4.7.3 0 .4-.6.3-3.5-.1-4.5.5-5 1.5-1.2.7 2.7 1.1 3.6 1.6 2.9.2-.2-.8-5.7-1-6.2-.2-.3.1-.4.5-.1s1.9 2.5 2.5 3.8c.3.6.6 1 .7.9.2-.2-.9-3.1-2.1-5.4l-1.2-2.2-1.5-.3c-1.8-.3-3.1-.2-6.9.2m-122.5 4c-1.2 3.3-1.3 3.8-.6 4.6.1.2 3.7-.8 4-1.1.3-.3 2.3-6.3 2.1-6.5 0 0-1-.2-2.2-.2l-2.1-.2-1.2 3.4m7.4-2.4c0 .2-.1.6-.1 1s-.3 1.5-.5 2.5-.4 1.9-.3 2c.3.3 3.1-.4 3.2-.9.1-.2.4-1.3.7-2.4l.5-1.9-.8-.1c-2-.5-2.6-.5-2.7-.2m6.5.1c-.6.2-1.9 3.8-1.6 4.2.6.6 3-.7 3.3-1.6.9-3 .7-3.3-1.7-2.6m3.8.4c-1.1 2.9-1 3.2.4 2.9 1.1-.2 2.4-2.2 1.9-3-.1-.4-2.1-.3-2.3.1m14.2.1c-.4 1.1-.2 1.5.8 1.4 1.5-.1 1.7-1.8.2-1.8-.5-.1-.9.1-1 .4m3.8.3c0 1.1 1.2 1.2 1.6.1.4-.9.4-.9-.7-.9-.8 0-.9.1-.9.8m4.8-.1c0 .5.1.7.7.7.4 0 .7-.1.7-.2s.1-.4.2-.7c.1-.3 0-.4-.7-.4-.7-.1-.9 0-.9.6m86.1-.4c-2 1.2-8.6 2.3-10.1 1.7-1-.4-.2-.7 1.9-.6 1.3 0 2.8-.1 3.3-.3.8-.3 4.2-1 5.2-1.1.1.1 0 .2-.3.3m-151 .3l-6.7.9c-6.2.8-7.9 1.1-8.1 1.7-.2.5.4.9 1.2.7.6-.2 3.9.5 6.1 1.2 1.3.4 4.9 2.4 6.3 3.5.4.3.8.5.8.5.2-.2 1.7-5.7 1.7-6.3 0-.3.2-1 .4-1.4.2-.4.3-.8.2-.9 0-.2 0-.2-1.9.1m45.9.1c-.4 1.1-.2 2 .4 1.9.3-.1.8-.2 1-.2.6 0 1.3-.7 1.3-1.5.1-.8-2.4-1-2.7-.2m4 .4c-.2 1-.1 1.1.9.9.7-.2.8-.3.8-1 0-1.1-1.5-1.1-1.7.1m3.3 0c0 .7.1.8.9.8.9 0 .9-.1.9-.8 0-.7-.1-.8-.9-.8s-.9.1-.9.8m18.4-.3c0 .1-.1.4-.2.7-.1.3 0 .4.5.4.4 0 .7-.1.7-.2s.1-.4.2-.7c.1-.3 0-.4-.5-.4-.4 0-.7.1-.7.2m-82.3 5.2c1.2.5 3.3 2.5 3.7 3.5 1.6 3.9-6.1 6.7-15.2 5.6-3.5-.4-4.2-.7-5.9-2.2-1.8-1.6-1.6-5 .3-3.9 1.8 1 7.9.8 10.5-.4 1.4-.7 1.1-.7-1.2-.2-2.8.6-7.1.3-8.4-.6-1.6-1.1-2.8-.8-7.3 2-3.3 2-5.4 4.5-4.6 5.6 1.6 2.6 21.2 3.2 27.7.9.7-.3 2.2-.7 3.3-1.1 4.3-1.2 4.9-1.6 5.2-3.1.4-1.9-5.3-6.5-8-6.5h-.9l.8.4m198.2 3c.2.5.5.9.5.8.1-.1-.7-1.8-.9-1.8l.4 1m1.3 2.1c1.6 4.4 1.2 10.9-.9 15-.3.6-.5 1.1-.4 1.1.7 0 5.8-4 5.9-4.5.2-1.1-3.7-11-4.6-11.9-.1-.1-.1-.1 0 .3m-7.2 3c-2.5.9-2.5.7-1.1 4.8 1.5 4.2 1.4 4.2 4.1 3.1 2.5-1 2.5-.8.8-5-1.6-4-1.4-3.8-3.8-2.9m-6.9 1.5c-4.1 1.5-5.3 3-2.5 3h1.3l.7 2c1.5 4.2 1.6 4.4 2.3 4.5 1.1.1 1.1-.5-.1-4-.6-1.8-1.1-3.3-1-3.3s.5-.3 1.1-.5c1.1-.5 1.4-1.5.5-2-.7-.4-.4-.4-2.3.3m9.2 2.2c.5 1.1 1 2.1 1 2.2.1.2-1.5.9-1.7.7-.7-.7-2.2-4.6-1.8-4.8 1.2-.4 1.5-.2 2.5 1.9m-99.7-.8c2.2 2.4 5 9 6.1 14.6 2 10.1-2.1 23.2-9.3 29.5-.9.8-1.6 1.5-1.6 1.6 0 .5 3.9-1.8 6.4-3.8.5-.4 1.3-.6 3.2-.7 1.4-.1 4.6-.6 7-1.1 2.5-.5 4.8-.9 5.2-.9s.6-.1.5-.4c-.3-.8-1.8-6.3-2.1-7.8-.5-2.3-.7-2.7-2.3-3.5-5.3-2.6-6.5-9-2.8-14.5l1-1.4-.6-2.6c-.3-1.4-.9-3.8-1.3-5.2l-.7-2.7-3.1-1c-1.7-.6-3.9-1.1-4.8-1.2l-1.7-.2.9 1.3m-28.3 1.2c-13.6 2-21.3 11.4-20 24.2 1 9.4 8.9 17.6 16.9 17.6h2.4l-1.6-1c-7.5-4.5-11.6-13.6-9.3-20.8l.3-1.1.4.7c2.3 4.4 9.7 4.7 12.5.6 3.2-4.8 1-13.1-3.5-13.1-1.1 0-.9-.3.7-1.7 2.1-1.8 2.6-1.9 8.8-2.6 3.5-.3 7.9.6 9.9 2.1 1.9 1.4 2.3 1.6 1.4.6-.8-.9-4-3.1-5.4-3.9-2.5-1.1-10.3-2.1-13.5-1.6m109.6 1c-1.1.4-2 .8-2.1 1-.1.3 2.9 8.9 3.2 9.2.2.2 4.8-1.8 4.9-2 .2-.6-3.3-8.9-3.7-8.8-.1-.1-1.2.2-2.3.6m-66.4 1.5c0 .2.3 1.3.6 2.6l.6 2.3 1.9.4c2.4.4 2.2.5 1.6-1.5-.3-.9-.5-1.9-.5-2.1 0-.3-.6-.6-2.1-1.2-1.4-.6-2.1-.7-2.1-.5m57.3.5c-2.6.8-3.5 1.1-3.5 1.4 0 .5 3.4 10.3 3.7 10.5 1.1 1.1 1.6-.7.9-2.7-.7-1.8-.8-1.7 1.8-.5 2.4 1.2 2.5 1.2 3.3.8.7-.4.3-1.1-1.1-2-.8-.5-1-.8-.8-1 .5-.5.4-1.3-.5-4-1.1-3.2-1.2-3.2-3.8-2.5m11.9 2.1l1.1 2.7-.6.4c-1.1.7-1.2.6-2.4-2.3l-1.2-2.8.7-.3c1.2-.6 1.3-.5 2.4 2.3m-10.1.9c.4 1.7.4 1.7-.7 2.3-1.2.6-1.1.6-1.8-1.3-.6-1.6-.3-2.1 1.6-2.2.5 0 .6.1.9 1.2m-12.7-.1c-2.2.8-2.9 1.2-2.9 1.6 0 .9 3.1 9.7 3.5 9.7.9.2 1.3-.5 1-1.8-.4-1.5-.1-1.9 2-2.7 2.8-1.1 2.8-1 1.4-4.8l-1-2.6h-1.1c-.7 0-2 .3-2.9.6m-32 7.3c1.3 3.8 2.8 7.9 3.3 9.3.5 1.3 1.5 4.3 2.2 6.5s1.3 4.2 1.4 4.2c.1.1 3.3-.8 3.4-1 .4-.7-3-11.7-6.1-19.9l-1.7-4.5-2.4-.7c-1.3-.4-2.4-.7-2.4-.7-.1 0 1 3.1 2.3 6.8m14-6.1l-2.4.4.8 2.9c1 3.7 4.9 17.5 5.2 18.4l.3.7 1.5-.5c.8-.3 2.5-.8 3.7-1.1 2.8-.7 2.7-.4 1.2-4a574 574 0 0 1-6.7-17c0-.3-.6-.3-3.6.2m21 1.9l.4 1.3-1.1.4c-1.5.5-1.5.5-1.9-.8-.5-1.6-.5-1.5.4-1.8 1.4-.6 1.7-.5 2.2.9m47-.5c-.5.8-5.9 4.3-9.6 6.2-2.3 1.2-4.7 2.5-5.3 2.8-1 .6-8.1 3.7-16.4 7.2-10.6 4.4-19.6 7.9-25.9 10-3.9 1.3-6.9 2.4-6.7 2.4.7 0 7.9-1.6 10-2.2 1.2-.4 3.7-1 5.6-1.5 1.8-.4 4.8-1.2 6.7-1.7 1.8-.5 3.5-1 3.8-1 .9 0 19.7-6.3 27.8-9.3 3.2-1.2 10.2-4.1 13.5-5.7l2.9-1.4-.1-1c-.5-2.7-5.3-6.5-6.3-4.8m-252.9 1.1c2.9 1 3.2 1.4 2.3 3.3-.6 1.4-1.5 2.4-2.1 2.4-.4 0-.5.2-.3 1.3.3 2.5-1.3 1.8-1.8-.8-.4-1.8-1.1-2.5-1.6-1.5-.6 1.2-2.1 2-2.1 1.1 0-.5 1.9-4.1 2.8-5.3.7-1.2.8-1.2 2.8-.5m123.9.7c-1.3 1.4-1.3 3 .1 3.7 2.1 1.1 4.7-1.2 3.6-3.2-.7-1.4-2.6-1.7-3.7-.5M39 137.8c-.3.4-.5.8-.5.9.1 0 .5.2.9.4s1 .4 1.2.5c.3.1.5-.1.9-.8.4-.8.4-.9 0-.9-.2 0-.8-.2-1.2-.4-.7-.5-.8-.5-1.3.3m163.4-.2c4.5 3 4.3 10.3-.4 13.8-1.4 1-.3.8 1.3-.3 5.2-3.5 4.7-12.6-.8-13.8l-.8-.2.7.5m-155.8 1.7c-.4 1-.4 1.1.1 1.4.8.4.9.4 1.5-.7.7-1.4 2-1.6 2-.4 0 .7-2.3 5.2-3.1 6-1.2 1.2-1.7.4-.9-1.4.7-1.6.7-1.6-.5-2.2-1.4-.7-1.5-1.2-.7-2.8 1.2-2.2 2.5-2.1 1.6.1m149.7-.9c-5.6 4.1-4.6 12.4 1.4 12.4 1.4 0 2.3-.1 2.9-.5 1.1-.6.3-.8-.9-.4-1.8.7-4.4-1-4.9-3.3-.2-.7-.1-.7.8-.7 2.8 0 4.8-3.3 3.1-5.3l-.7-.8.7-.4c.9-.6 1.3-.5 2.1.1.8.7 1.5.7 1 .1-1.3-1.6-4.1-2.2-5.5-1.2m-140.8 2.2c2.3 1.1 1.2 4.3-1.4 3.9-1-.1-2.3.8-1.7 1.3l1.2.6c2.2 1.1 2.3 2.3.1 1.7-3.1-.9-3.7-1.6-2.8-3.1 1.3-1.9 1.3-2 2.8-2.1 1.8-.2 1.8-.5.1-1.2-1.2-.5-1.7-1.1-1.2-1.6.1-.3 1.8 0 2.9.5m63.2.4c5.6 2.2 7.1 10.1 2.8 14.8-3.4 3.8-13 3.5-15.8-.5-2.3-3.2-1.4-7.9 2.3-11.7 3.8-4 5.9-4.5 10.7-2.6m-97.3-.5c-3.8 1.7-5.2 5.9-2.9 8.8 1.6 2 2.7 2.3 1.8.5-.6-1.2-.7-3-.2-3.6.8-1 1.5-.8 5.3 1.1 4.9 2.5 11.3 5.2 14.7 6.1 1.5.4 4.1 1.3 5.7 1.9 5.9 2.1 19.8 6 21.1 5.9.4 0-7-2.7-10.5-3.8-1.9-.6-5.3-1.8-7.5-2.6s-6-2.3-8.4-3.2-5.5-2.2-6.8-2.8-3.1-1.4-3.9-1.7c-3.8-1.5-5.8-3.6-4.2-4.6 1.6-1.1-2.2-2.8-4.2-2m90.4 2.5c-6.7 3.4-6.9 13.4-.3 13.4 3.1 0 4.6-1 1.6-1-1.8 0-2.8-.7-3.3-2.3-.1-.5 0-.5 1.3-.6 4.4-.1 6.6-5.9 3-8.1l-.9-.5.7-.2c1.4-.3 3.6.1 4.2.7.3.3.5.5.5.3.2-1.8-4.4-2.9-6.8-1.7m7.2-.2c0 .1.3.5.7.8 2.4 2.2 1.8 8.2-1.1 11.4-1.1 1.2-1.1 1.3.1.7 2.8-1.4 4.5-6 3.5-9.1-.6-1.6-3.2-4.9-3.2-3.8M70.4 145c0 1.3-1.7 6-2.4 6.8-1.1 1.1-1.6-.1-.8-2.2 1.9-5.5 3.2-7.4 3.2-4.6m6 .3c1.4.4 1.4.6.4 4.4-.9 3.7-.9 3.7-1.6 3.7-.8 0-.8-.8-.1-3.6.4-1.5.7-2.7.7-2.8s-.5-.3-1.2-.5c-1.4-.4-1.8-.8-1.6-1.4.1-.5 1.3-.4 3.4.2m-13.9.1c2.2.6 3.2 1.7 1.8 2.1-.6.2-3.9-.8-4.3-1.3-.9-1.2.1-1.5 2.5-.8m22.3 1.3c1.5.4 1.6.6 1.6 2.5 0 1-.8 4.2-1.3 5.4-.5 1.1-5.2.2-5.8-1.2-.3-.7.9-5.4 1.8-6.9.1-.4 2.2-.2 3.7.2m213.8 1.7c-1.3.9-4.5 2.7-7.1 4.1-2.6 1.4-5.4 2.8-6.1 3.2-.8.4-2.8 1.3-4.5 2l-7.1 2.9c-2.2.9-5.4 2.1-7.1 2.7-1.7.5-5.4 1.8-8.3 2.7-9.3 3.1-16.7 5.3-23.6 6.9-2.9.7-8.9 2.2-13.2 3.4-7.5 2-12.8 3.1-24.4 5-14.4 2.4-20.4 2.8-42.5 2.8-19.5 0-27.6-.2-32.9-.9-2.1-.3-5.5-.7-7.5-.8-5.2-.4-8.9-.7-12.3-1.2-1.6-.2-5.8-.6-9.2-.9-6.3-.5-9.2-1-15-2.4-1.7-.4-3.5-.8-3.9-.8-1.4 0-18.3-4.7-20.8-5.8-2.3-1-1.6-1.3 1.3-.6 3.2.8 17.9 3.2 21.7 3.5 1.8.2 5.3.7 7.9 1.2 6.9 1.4 10.4 1.9 17.2 2.7 3.4.4 7.2.8 8.5 1 7 .9-2.2-1.2-15.4-3.5-2.6-.5-4.8-.9-4.9-.9-.1-.1-1.3-.3-2.7-.5-1.4-.2-3-.6-3.5-.7-1.1-.4-5.4-1.5-19.9-5.2-6.4-1.6-11.1-3-12.3-3.5-2.9-1.3-15.7-5.5-20.5-6.7-5.9-1.4-6.7-1.7-8.6-2.5-1.4-.6-4.3-1.7-4.6-1.7-.2 0-1.4 2.6-2 4.1-.8 2.2-.6 2.5 3.6 4.6 9.3 4.6 20.5 9 30.3 12 6.3 1.9 20.9 4.6 31.6 5.9 3.2.4 7.7.9 9.9 1.2 2.2.3 5.3.6 6.8.7s4.4.4 6.4.7c3.5.5 15 1.7 19.5 2 1.2.1 3.6.3 5.3.6 2.8.4 6.4.5 20.9 1.1 9.7.4 27 .2 30.8-.3 1.8-.2 5.6-.6 8.3-.8 5.4-.4 5.3-.4 9.3-1.3 1.5-.4 4.8-1 7.2-1.5s5.7-1.2 7.2-1.6c1.5-.4 3.8-1 5.1-1.2 1.2-.2 3.2-.6 4.3-.9s3.8-.9 6-1.4 8.9-2.2 14.8-3.9c14.3-4 15.4-4.3 22.5-6.6 3.4-1.1 6.9-2.3 7.9-2.6 2-.6 8.3-3.1 12.5-4.9 1.6-.7 3.8-1.6 4.9-2s3.6-1.5 5.6-2.5c2-.9 3.8-1.8 4.1-1.9.3-.1 1.2-.8 2-1.5l1.4-1.3-.5-1c-1.2-3.2-1.4-3.2-4.4-1.2m-216.5-.3c-.1.1-.3 1.1-.5 2.1s-.5 2-.6 2.3 0 .5.3.5.9.1 1.4.2l.9.2.3-1.8c.2-1 .4-2.1.5-2.4.1-.5 0-.6-.6-.8-.4-.1-1-.2-1.2-.3-.2-.2-.4-.1-.5 0m8.1.4c.8 1.7-1.3 8.5-2.4 7.8-.5-.3.2-6.2.9-7.9.3-.7 1.2-.6 1.5.1m116.8 2.3c-.5.5-1.5 1.5-2.3 2.1l-1.3 1.1 1.4 4.2c.8 2.3 1.5 4.3 1.6 4.4.4.4 5.6-1.2 5.4-1.7-.1-.2-1-2.8-2-5.7s-1.9-5.3-1.9-5.4-.4.4-.9 1m78 12.9c-5.1 2.8-7 4.1-8.6 5.7-3.4 3.4-7.4 4.3-14.3 3.4-1.5-.2-1.9.1-.8.7.3.2.7.5.9.7.7.9 2.6 1.3 6.8 1.3 8.9.1 14.1-3 18.7-10.9 1.8-3.4 1.8-3.4-2.7-.9M37.4 175.6c2.3 3.3 4.6 5 10.2 7.6 3.1 1.4 10.3 2.9 11.7 2.4.5-.2 1.7-.4 2.6-.6 2.2-.4 2.3-.6.3-.9-4.9-.6-8.4-1.7-10.9-3.6-1.7-1.3-4.8-2.7-10.3-4.8-5.1-2-5-2-3.6-.1m243.4-.6c-1.6.9-1.6 1.1 0 .9 1.4-.1 7.4.8 9.2 1.4 1.4.5 2.1.5 2.1 0 0-.7-3.4-1.8-7.7-2.7-2.5-.4-2.1-.4-3.6.4m-24 .3c-1.2.3-5.6 1.6-5.9 1.8-.3.2-.3 1.5-.1 1.8.1.1.5 0 1-.2 2.1-.9 5.4-2.1 6.9-2.4l1.6-.3-.9-.4c-.7-.6-1.1-.6-2.6-.3m37.1 2.8c0 2.5-4 3.4-15.4 3.4-4.2 0-8.5.1-9.4.3-1.3.2-2.6.2-5.6-.1-2.1-.2-5.8-.5-8-.5-5.1-.1-7.1-.6-7-1.8.1-.8-.2-.9-.8-.2-1.8 2 .8 3 8.6 3.6 13.5 1.1 13.3 1.1 16.2.7 1.6-.2 5-.3 7.6-.3 5 0 6.4-.2 10.8-1.5 3.3-1 4.5-2.2 3.5-3.6l-.5-.6v.6m-67.4 3.5c-.3.7.4 5.3 1.1 7.3 2.3 7 6.9 13.1 12.6 17 .7.5 3.3 2.8 5.8 5.2s4.7 4.4 4.9 4.4c.4 0 3.4 3.2 4.9 5.1.7 1 1.4 1.8 1.5 1.9.1 0 .9.8 1.7 1.7.8.9 1.5 1.6 1.5 1.5 0-.4-5.5-7.3-6.2-7.8-.3-.2-1.1-1.2-1.9-2.1-.8-1-4.8-5.2-9-9.4-11-11-13.3-14.2-14.6-20.5-.9-4.1-1.7-5.7-2.3-4.3m-6.2 1.4c-.2.1-2.7.8-5.4 1.5-6 1.6-5.6 1.2-5.4 6.1.6 12 6.5 20.9 21.2 31.9 5.8 4.3 11.2 9.4 15.8 14.7.9 1 1.7 1.9 1.8 1.9s.6-1.1 1.2-2.5c1.8-4.5 1.9-4.7 2.6-5.9.8-1.3 2-2.3 3.4-2.9l.9-.4h-.8c-1.7 0-4.4 1.8-5.5 3.6l-.7 1.2-1.4-1.6c-.8-.9-1.4-1.7-1.4-1.9 0-1.1 3.1-4.7 4.9-5.6 1.3-.6.7-.7-.9-.2-1.4.5-4.2 2.8-4.9 3.9l-.5.8-1.4-1.5c-1.6-1.8-1.7-1.9-.9-3.2 1-1.9 2.5-3.2 5-4.2l1.5-.7-1.3.2c-2 .2-3.5 1.2-5.4 3.2l-1.7 1.8-1.3-1.2c-.7-.6-1.3-1.4-1.4-1.6 0-1.5 3.1-5.2 5.2-6.3 1.1-.5 1.1-.9 0-.7-1.9.4-5.6 3.2-6.4 5l-.5 1-2-1.8c-1.1-1-2-2-2-2.3 0-1.6 2.2-5.5 3.7-6.5 1.3-.9.4-.8-1 .1s-2.7 2.3-3.4 3.8c-.3.6-.6 1.1-.8 1.2-.2.2-3.3-2.9-3.7-3.8-.4-.7 1.4-4.2 2.9-6 1.4-1.6 1.4-1.7 0-.9-1 .5-2.6 2.3-4 4.3-.4.6-.4.6-2.1-1.6-.9-1.2-1.6-2.4-1.6-2.6 0-.9 1.8-3.8 3.3-5.2 1.8-1.7 1.9-2 .7-1.4-1.6.8-3.6 2.6-4.4 3.8l-.7 1.2-.7-1.3c-.4-.7-1.1-2.2-1.4-3.3l-.7-2.1 1-1.2c.6-.7 1.7-1.8 2.5-2.6 1.2-1.1 1.4-1.3.8-1.2-.9.2-4 1.9-4.4 2.5-.4.5-.5.2-1.1-3.8-.5-3.3-.6-3.1 2-4.4 1.8-.9 2.3-1.4 1.5-1.5-.1.1-.5.1-.7.2m-122.8 2.2c1.5 2.9 5.2 5.1 7.8 4.6l1-.2.1-2 .1-2-1.4-.4c-.8-.2-2.9-.5-4.7-.5l-3.3-.1.4.6m-26.6 0l-.8.5 1.8.2c1.6.2 4.7.8 8.1 1.7 1.1.3 1.4.2 1.4-.7 0-1.5-8.7-2.9-10.5-1.7m18.9-.1c5.2 13.2-4 31.6-20.5 41.3-5.3 3.1-9.9 6.7-14.6 11.5-3.4 3.5-3.4 3.6.4 3.8 2.8.2 6.4 1.8 8.7 3.9 1.8 1.6 1.9 1.5.7-.5-1.8-3-4.2-4.5-7.6-4.8l-1.7-.2.6-.7c1.8-2 3.9-3.3 5.8-3.5 3.8-.3 8.8 3.4 9.5 6.9.3 1.5.4 1.9.7 1.7.8-.5-.3-5.6-1.6-7.6-1.6-2.5-3.5-3.8-5.8-4.2l-1.1-.2 2.6-1.6 2.6-1.6 1.9.4c3.3.8 6.1 3.8 6.9 7.5.7 3.2 1.5 1.6.9-1.9-.6-3.2-3.9-8.1-5.6-8.1-.8 0-.4-.5 1.3-1.6 4-2.6 8.7 1.1 8.7 6.8 0 .8.1.9.3.5.4-.6.1-4.9-.3-6.4-.4-1.4-2.2-3.3-3.3-3.7-1.2-.4-1.2-.4.7-2.1 2.8-2.4 5.7-1.6 7.6 2.1.7 1.3.8.6.3-1.2-.5-1.6-2.6-4.1-3.5-4.1-.7 0-.5-.4.7-1.4 2-1.8 5.3-.8 6.4 2 .3.6.3.6.3-.2 0-1.5-.7-2.7-2.3-3.6-1.7-.9-1.7-1.1-.6-3l.8-1.5h1.5c1.9 0 3.2.4 4.4 1.2 1.1.8 1.3.4.3-.9-.9-1.2-2.4-2.2-3.6-2.4l-1-.2 1-1.7c.6-.9 1.1-1.8 1.1-1.9.1-.4 2.7.4 3.5 1.1 1 .8 1.1.5.3-.8-.7-1.1-2-2.3-2.6-2.3-.2 0-.2-.2-.1-.5s.4-1 .5-1.8c.2-.7.4-1.3.4-1.4.1-.1 3.8.3 4.8.5 1.3.3.6-.3-.9-.8-2.8-.9-3.4-1.5-3.4-3.6v-1.8h1.2c3.1 0 4.2-1.1 1.5-1.5-2.4-.3-2.7-.6-3.2-3-.5-2.5-.6-2.6-2.7-3-.9-.2-1.8-.4-2.1-.5-.9.1-1 .2-.8.6m18.6.7c-.8 3.8.6 7.8 4 11.2 3.3 3.2 4.2 4.9 8 14.3 1.1 2.8 2.1 5.1 2.2 5.3.2.3 2.5 5.9 3 7.5.2.6.4.9.5.7.2-.7-.6-3.4-2.9-9.8-1.3-3.5-2.7-7.4-3.2-8.7-1.6-4.5-2.6-6.1-5-8.5-2.7-2.7-3-3.3-3-6.4 0-2.7.4-4.2 1.1-4.3.9-.2 1.1.4 1.1 3.5.1 3.8.4 4.8 2.6 7.1 2.1 2.2 3 3.9 5 9.4 2.1 5.8 2.8 7.5 2.9 7.4s-.1-.8-.4-1.7-.7-2.3-1-3.2c-.6-2.4-3.5-9.3-4.5-10.9-3.6-5.6-4-8.8-1.5-12.2l.5-.7h-1.7c-.9 0-2.3-.1-3.1-.2-.8-.1-2.1-.3-3-.4l-1.5-.2-.1.8m-65.2.7c-5 1.3-8.2 2.7-8.5 3.4-.2.5.8.4 2-.1 2-.8 8.5-2.3 10.3-2.3 2.2 0 2.2-.2.2-1-1.7-.6-1.7-.6-4 0m224 .2c-4 .6-5 1.1-5 2.6v.8l1.1-.6c3.7-1.9 12.5-2.3 15.9-.8 1.7.8 1.7.8 1.6.2-.3-1.8-8-3-13.6-2.2m-130.1 1.1c-3.2 2.6-6.1 3.2-9.2 1.6-2.1-1.1-2.1-1.1-1.6.6 1.3 4.5 5.8 4 10.5-1.2 1.9-2.2 2-2.5.3-1m-53.3-.6c0 .1.1.4.3.7.5 1-3.4 2.3-7.9 2.5-1.6.1-5 .5-7.6 1-3.6.6-5.7.8-9.1.9-2.4 0-6.4.3-8.8.5-12.2 1.1-17.4.6-17.9-1.8l-.1-.8-.5.6c-2.4 2.7 7.3 4.7 18 3.7 2.4-.2 5.4-.3 7.1-.3 3 .1 5.6-.1 12-1.3 1.6-.3 4.8-.8 7.1-1 7.4-1 11.1-2.9 8.2-4.4-.5-.3-.8-.4-.8-.3m38.8.7c-1.3 3.8-.6 9.3 1.9 14.1.9 1.9 2.1 4.5 2.6 5.9.9 2.7 3.7 8.8 4 8.8 1.3 0 1.4-1 .4-4.1-2.1-6.3-2.9-12.4-2-16.5.2-.7.1-.8-1.3-1.4-1.8-.8-2.8-2-4.3-5-.7-1.4-1.2-2.1-1.3-1.8m159.7 1.3c-.1 1.8-.7 2.2-5.6 3.5-6.1 1.6-15 .1-16.1-2.7-.5-1.3-.8-.9-.9 1 0 2.5 2.1 3.4 8.5 3.9 9.2.7 16.4-2 14.9-5.5-.4-1.2-.8-1.3-.8-.2m-79.3.5c-.4 1.6-.8 3.6-1 4.9-.1.7-.4 2.8-.7 4.7-1.1 7.1-1.2 8.4-1.2 15 0 4.8.1 6.8.3 7 .4.4.5-1.4.7-7.7.1-3.7 1.9-19.6 2.5-22.7.6-2.4 0-3.4-.6-1.2m-11.1 1.6c.1.4.3 2.5.6 4.6.2 2.1.7 6 1 8.7.4 3.6.5 5.6.4 7.9-.2 3.8-.2 3.6 1.9 5.3 2.2 1.7 2.1 1.8 2.3-3.8.1-2.5.3-5.8.4-7.4.5-5.8.8-9.3.9-12.6l.2-3.4-.7.2c-.9.2-4.9.2-6.2 0-.9-.2-1-.2-.8.5m-137.1 6.4c-3.8.8-5 1.2-5.8 1.8-.4.4-.7 1.5-.3 1.3.1-.1 1.1-.5 2.2-1.1 1.6-.8 2.3-1 3.5-1 .8 0 2.6-.1 4.1-.3 3.7-.5 7.8 0 10.7 1.2.6.3.6-1 0-1.6-1.4-1.2-8.6-1.5-14.4-.3m214.6-.1c-.3.2-.6.6-.5.7.1.3 5.5.5 5.5.2 0-.9-3.9-1.7-5-.9m-161.1 1.2c0 4.1-3.6 14.2-6.3 17.9-.4.5-1.5 1.9-2.3 3.1-5.4 7.3-9.4 11.4-20.4 21.3-3.1 2.7-8.3 7.9-8.1 7.9.1 0 1.5-1.1 3-2.5s4-3.5 5.5-4.7c19.6-16.1 26.9-25 30-36.4 1.3-5 1.3-5-.1-6.5l-1.2-1.2-.1 1.1m167.2 0c0 1.1-.6 1.4-3.5 1.5l-2.6.1-.9-.9-.9-.9v.8c0 2.2 4.1 3.5 7.1 2.2 1.3-.6 1.9-2 1.2-3.1-.3-.3-.4-.2-.4.3m-204 .3c0 5-22 7-24.4 2.3-.2-.4-.3-.9-.2-1s.1-.3-.1-.3c-1 0-1.2 2.3-.3 3.2 2.1 2.1 9.2 2.9 16.7 1.9 7.1-1 9.7-2.3 9.4-4.7-.3-1.4-1.1-2.6-1.1-1.4m-13.2 9.1c-1.9.6-2.1 1.7-.1 1.3.6-.1 1.9-.3 2.8-.3 1.7 0 2.2-.3 1.7-1-.4-.4-2.8-.4-4.4 0m5.3 1.7c-1.8 1.9-8.1 1.7-8.1-.2 0-.5 0-.5-.3-.1-1.1 1.9.7 3.2 4.4 3.1 3.6-.1 5.1-1 4.9-2.9l-.1-.7-.8.8m126.8 9.3c-.4.5-.4.5 1.9 1 5.2 1.2 6.7 12.2 2 15.5-1.3.9-1.3 1.1.3 2.9 1 1.1 5.3 7 7.9 10.9 3.2 4.7 6.9 9.9 8.4 11.7.7.8 2.6 3.5 4.2 6 1.7 2.5 3.3 4.8 3.7 5l.6.5-.7-1.5c-.4-.9-1.4-2.8-2.2-4.3-2.1-3.8-2.6-4.9-5.4-11-1.3-2.9-3.1-6.6-3.9-8.2-.8-1.6-1.5-3-1.5-3.1s-1.2-2.6-2.7-5.7c-3.4-7-4.1-8.9-4.6-11.6-.8-4.5-1.8-6-4.7-7.5-1.9-1.1-2.7-1.2-3.3-.6m12 1c0 .5-.3 2.2-.7 3.9-.9 4-.8 4.6 1.2 8.8 1.8 3.7 2.9 6.3 7.8 17.5 1.8 4.1 3.4 7.8 3.7 8.1.3.4 1.1 1.9 1.8 3.5 3.4 7 3.2 5.2-.3-2.5-1.4-3.2-3.2-7.1-3.9-8.7-.7-1.6-1.3-3-1.4-3.1-.1-.1-.5-1.2-.9-2.4s-1.1-2.9-1.6-3.9c-.4-1-1.3-3.3-2-5.2-.6-1.9-1.6-4.6-2.1-6-.9-2.5-.9-2.6-.8-5.9.1-2.4 0-3.6-.2-4.2-.4-1-.6-1-.6.1m-70.9.4c-2.2 1.4-2.6 2.7-2.7 8.4l-.1 4.1-1.5 4.5c-.8 2.5-1.5 4.9-1.5 5.4s-.1 1.1-.3 1.5c-1 2.1-8.1 23.4-8.5 25.6-.3 1.4.3 1.3.8-.3.3-.7.8-2 1.1-2.9 1-2.4 1.9-5.2 2.3-6.9.2-.9 1.5-4.3 2.8-7.6 3-7.5 4.9-12.6 5.4-15.1.7-3.2 2.1-5.6 3-5.3.6.2.5-.2-.4-1.1-2.2-2.5-2-7.4.4-10 1.1-1 .6-1.1-.8-.3m3.3 1.5c-4.4 3.2-.5 11 4.4 9 2.8-1.1 2.7-7.4 0-8.8-1.3-.6-3.7-.7-4.4-.2m54.5.4c-1.3.5-1.6 1.3-1.8 4-.3 5.7 4.3 8.7 6.5 4.2 2.5-5-.4-10-4.7-8.2m-66.4 3.7c-.6 2.2-1.4 7-1.7 9.7-.4 4.4-2.7 16.1-4 20.4-.4 1.2-.9 3.2-1.2 4.5-.3 1.3-.9 3.5-1.3 4.9-.9 2.7-1.4 5.5-.9 5.3.1-.1.8-1.8 1.4-3.7 1.7-5.2 3.8-11.6 5.1-15.1.6-1.7 1.6-4.9 2.2-7.2s1.4-5.1 1.7-6.4c.4-1.2.9-3.6 1.2-5.3l.5-3-.7-.9c-.8-1-1.5-2.9-1.5-3.9.1-1.3-.4-.9-.8.7m137.1 6.1c-7.1 2.5-10.4 7.3-8.8 13 .8 2.9 5.6 7.4 5.4 5 0-.4-.1-1.9-.2-3.5l-.2-2.8 1-1.3c1.4-1.9 1.3-2.4-.3-1.5-1.4.9-2.5 2.8-2.5 4.5v1.5l-.4-.9c-1.3-3.4 1.1-7.6 5.1-8.9 2.7-.9 2.8-1.1.1-.9-1.7.1-2.4.3-3.7 1-2.7 1.5-2.5.4.4-1.7 3.3-2.4 7-3.2 10.4-2.2.3.1.6.1.6-.1.1-.6-5.6-1.6-6.9-1.2M136.1 236c-1.9.9-4.8 5.5-6.2 10-.3 1-1.7 4.2-3.1 7.2-6.4 13.9-6.9 15.3-6.7 16.2.1.3.6-.7 1.4-2.3 2.1-4.5 9.9-19.9 11.5-22.5.5-.9 1.9-3.1 3.2-5 2.9-4.5 2.9-5-.1-3.6m65.6 5.7c.8 1.8 1.7 3.8 2 4.3s.6 1.4.8 1.9c.6 1.5.3 1.1-1.7-1.7-1-1.4-2.8-3.8-3.9-5.3-2.3-3.1-2.3-3-1-4.4l1-1.1.6 1.4a43 43 0 0 0 2.2 4.9m66.6-4.2c0 2 3.9 7.7 8.5 12.1 4.8 4.6 6.8 5.9 10.2 6.5 1 .2 1.4.8.7 1.4-.2.1-3.5 1.3-7.3 2.6-10.5 3.5-15.1 5.4-19 7.9-2.1 1.3-2.1 1.4.1.6 3.2-1.2 6.9-2.5 7.3-2.5s20.5-6.7 22.5-7.5c1.1-.4 6-1.6 9.9-2.3l3.2-.6-1.7-.2c-1-.1-3.4-.3-5.3-.4-7-.5-13.7-1.8-15.8-3.1-3.7-2.2-9.8-8.9-12.3-13.6-.8-1.3-1-1.5-1-.9m-230.3 2c-2.2 1.2-3.4 3.5-3.4 6.3v2.1l1.7.9c1.6.8 2.2.9 2.2.3 0-.1-.6-.6-1.3-.9-1.3-.7-1.3-.7-1.3-1.9v-1.2l1.5.8c.8.4 1.6.8 1.6.7.1-.1-1.3-1.4-2.3-2.1-.9-.6-.4-1.2.5-.6 1.1.7 4.6 2.5 4.8 2.4.1-.1-.8-.7-1.8-1.4-5-3.4-3.9-3.7 2.3-.5 2.7 1.4 5.6 2.8 6.4 3.1.9.3 2.4 1 3.3 1.6 1 .6 2.1 1.2 2.6 1.4 4.6 2.3 10.9 5.8 11.3 6.3.5.6.4 1.7-.2 3.3-.8 2-.6 3.2.2 1.6 2.5-4.6 3.5-5.1 4.9-2.3.3.6.4.7.4.3 0-1-.9-2.6-1.8-3-.5-.2-2.2-1.4-3.9-2.5-1.7-1.1-5.1-3.1-7.6-4.5-2.5-1.3-5.7-3.1-7.1-3.8-1.4-.8-4.2-2.3-6.2-3.3l-3.6-2c.2-.2 2.5.7 5.1 2 8.2 4.3 10.5 5.5 10.5 5.2 0-.2-3.9-2.6-7.1-4.4-7.9-4.3-9.8-4.9-11.7-3.9m221.4 5.6c-2.7 1.5-2.3 5.9.8 9.4 2.7 3 3.2 3.3 4.2 2.1 2.1-2.5 1.8-3.6-2.2-9.1a12 12 0 0 1-1.5-2.4c.1-.5-.3-.5-1.3 0M25.5 251c-3.2.9-6.6 1.8-7.5 2-2.8.5-6.8 3.6-10.4 8.3l-1.1 1.5 2 1c1.1.5 2.7 1.2 3.5 1.5s2.6 1.2 4 2 3.3 1.8 4.4 2.3c1 .4 5 2.3 8.7 4.1 3.7 1.8 7.8 3.8 9.1 4.3 4.7 2.1 8 3.7 11.1 5.5 1.7 1 4.1 2.2 5.3 2.8 1.2.6 4.3 2.1 6.8 3.5 5.3 2.8 4.8 2.8 6-.2l1-2.4-.3-2.2c-.4-2.9-2.4-12.3-3.3-15.1l-.7-2.3-1.7-1c-1.9-1.2-1.9-1.2-2.2 1-.1.9-.4 3-.6 4.6-.2 1.6-.4 3.3-.4 3.8s-.1.9-.3.9c-.5 0-4.3-2.1-6.9-3.8-1.2-.8-2.7-1.7-3.2-1.9l-1-.5v-3c0-4.7 0-4.7-2.2-5.7l-1.9-.9-3.1 1c-1.7.6-3.4 1.2-3.8 1.4-.7.3-.8.3-2.1-.5-.8-.5-2.8-1.6-4.6-2.6-1.8-.9-3.6-1.9-4.1-2.2l-.9-.5 2.3-1.3c3.2-1.8 7.5-4.7 7.5-5 0-.5-1.1-1.3-1.7-1.3-.4 0-.7-.1-.7-.3.1-.8-1-.6-7 1.2m17.3-1.6c-.1.1-.9.6-1.7 1-6 3.2-11.8 6.8-11.5 7.1.1.1 1.7.9 3.6 1.7l3.4 1.4 1-.6c.6-.3 2.1-1.4 3.4-2.3s3.1-2.2 4-2.7l1.6-1 1.8.8 1.8.8v3c0 1.6.1 4.5.2 6.3l.2 3.3 1.1.8c1.1.8 5.3 3.3 5.6 3.3.1 0 .2-3.5.2-7.7V257l-1.4-.8c-.8-.4-2.5-1.4-3.8-2.2-7.5-4.3-9-5-9.5-4.6m224.6 1.4c1.1 3.5-1.7 8.9-5.8 11-1.2.6-8.3 6.8-10.4 9-2.8 3-2.7 4.3 1 13.9 1.6 4.1 3.1 5.2 5.5 4 .8-.4.6-.8-.2-.8-1.7.1-2.9-.7-3.8-2.8-3.9-9.2-3.9-12.4-.4-15 .8-.6 2.7-2.2 4.1-3.4 1.4-1.3 3.9-3.3 5.5-4.5 4.4-3.3 4.4-3.3 5.1-5.3.8-2.2.8-3.7.1-5.4-.6-1.2-1-1.7-.7-.7m38.8 8.5c-3.7.4-11.4 2.3-16.2 4.1-1.6.6-4.3 1.6-6 2.2-1.6.6-4.8 1.6-7 2.3-2.2.6-6.6 2.1-9.7 3.3-3.1 1.2-6.6 2.5-7.7 2.9-3.1 1-3.3 1.2-3.9 2.5-.9 1.8-.7 5.1.3 5.1.3 0 .4-.4.4-1.9 0-3.6 1-4.4 3-2.4 4.1 4.3 6.8 17 3.9 18.1-1.5.5-4.1-1.1-4.7-2.8-.4-1.1-.9-1.2-.7-.2.5 2.1 3.7 4.6 6.3 5 1.3.2 1.8.1 8.3-1.8 4-1.2 19.3-6.4 19.2-6.5-.1-.1-1.9.3-4.1.8s-5 1.1-6.3 1.4c-1.3.2-3.6.8-5.2 1.3-3.4 1.1-6.1 1.7-7.1 1.7h-.7l.9-1.3c1.9-2.6 5.2-5.3 6.4-5.2 1 .1 1.4-.3.6-.6-1.2-.5-2.6.2-5.2 2.3-1.7 1.4-4.1 3.2-4.5 3.4-.1 0-.2-.6-.2-1.5v-1.6l3.3-2.6 3.3-2.6h2.8c1.5 0 3.9-.1 5.2-.3l2.5-.3 2.8-2.6 2.8-2.6 4.6.1c2.5 0 4.7.2 4.9.3.5.5 1 .2 2.5-1.2 2-1.9 4.3-3.7 4.7-3.7.6 0 5.9 1.1 6.3 1.4.4.2 1-.2 3-2l2.5-2.3.2 1.4c.3 2.5 0 3.5-1.5 4.6-1.4 1-3.2 3-3.2 3.5 0 .7.7.2 2.3-1.5l1.7-1.8-.2 1c-.3 1.8-.7 2.2-2.6 3.2-3.3 1.7-3 2.6.4 1.2 3.5-1.5 4-2.4 4-7.8.1-8-2-12.2-7.3-14.8-1.8-.9-3.4-1.6-3.7-1.6-.3.2-.9.3-1.4.4m6.8 3.2c1.5 1.6 1.6 1.9.6 2.3-.5.2-1.4.9-2.2 1.5l-1.3 1.1-2.4-.2c-1.3-.1-3-.3-3.7-.5-1.2-.3-1.4-.2-2.6.5-1.6.9-4.8 3.2-5.7 4.1-.9.8-3.2.7-5.8-.2-2.6-1-3.8-.5-7.9 3.4l-2.1 2-1.3-.2c-1.2-.2-4.3-.2-8.2-.1l-1.5.1-2.5 2.4c-1.4 1.3-2.6 2.4-2.6 2.3-.1-.1-.3-.5-.5-.9l-.4-.8 1.6-1.5c1.8-1.7 7.7-4.9 8.5-4.6.2.1 1.9 0 3.6-.2 3.6-.4 4.6-.9 7.5-4 1.4-1.5 4.6-3 5.3-2.4.2.2 1.4.4 2.8.5l2.5.2 2.3-2c2.8-2.5 4.1-3.1 5.8-2.5 2.4.8 6.2.7 7.3-.3 1.1-1.3 1.8-1.3 2.9 0m-244 3c-.8.8-2.1 1.2-2.9.8-.8-.4-1.1.2-.4.9.9.9 3-.1 3.9-1.8.5-.8.2-.8-.6.1m-62.5.3c0 .2.1.9.3 1.5.1.7.5 2.4.8 3.8.6 3.2 1.3 4 4.5 5.3 3.1 1.2 34.7 17.1 35 17.6.3.4 12.8 6.5 16.1 7.9 3.7 1.5 4.7 1.5 1.5 0-1.2-.6-4.5-2.2-7.2-3.6s-6.5-3.3-8.4-4.2c-1.9-.9-4.6-2.4-6-3.2-1.4-.8-3.3-1.9-4.3-2.4s-2.8-1.5-4-2.3-3.5-2-4.9-2.6c-1.5-.6-3.7-1.8-5.1-2.6a300 300 0 0 0-13.4-7.2c-2.4-1.2-3.8-3.8-3-5.7.3-.8.4-.8 1.5-.4 2 .7 1.7 0-.5-1-2.5-1.3-3-1.4-2.9-.9m309.7 2.1l.7 1.8-1.2.6c-.7.3-1.9 1.2-2.8 2-.8.8-1.6 1.4-1.7 1.3-.2-.2-5.3-1.2-6.2-1.3-.8 0-2.7 1.2-5 3.2l-1.4 1.3H288l-1 .8c-.6.4-1.9 1.6-3 2.7l-2 1.9-5 .2-5 .2-3.1 2.5a28.1 28.1 0 0 1-3.2 2.4s-.2-.9-.5-2l-.4-1.9 1.8-1.7c3.8-3.6 5.6-4.2 10.3-3.4 4.2.8 3.9.8 6.4-1.6 1.2-1.2 2.8-2.6 3.4-3.1l1.2-.9 1.4.6c.9.3 2.4.6 3.7.7l2.3.1 3.2-2.2c1.7-1.2 3.4-2.4 3.7-2.7.5-.4.7-.4 2.1-.1.9.2 2.8.4 4.3.4h2.7l1.9-2c2.2-2.2 2.1-2.2 3 .2m-206.9 5.2c-2.3.2-3.9 2.1-3.9 4.3 0 2 1.6 5.1 2.7 5.1.6 0 .7-.3.2-.7-.3-.3-.1-.3.9-.2 1.5.2 7.4-.1 7.4-.4 0-.1-.9-.3-2.1-.4-5-.4-7.5-.8-7.7-1.2-.1-.3.3-.4 2.7-.2 1.6.1 5 .2 7.5.3l4.8.2c.1.1.1-.6.1-1.4-.1-1.7.2-2.7 1.4-3.7 1.5-1.4.7-1.6-6.7-1.7h-7.3m115.1 3.3l-5 .5c-5.1.5-5.5.7-5.5 3.9 0 2.9 2 3.5 3.6 1.1.3-.4 1.1-.8 2.3-1.2 1.1-.3 2.6-.8 3.4-1.1l1.5-.5h-3.3c-5.3 0-4.9-.5 1.4-1.7 6.1-1.2 6.9-1.7 1.6-1m82 2.1c-1.3.4-7.2 5.2-7.2 5.8 0 .9.7.5 4.1-2.1 3.5-2.7 3.7-2.8 4.5-2.5 1.6.6 2.8.2 1.6-.5-.7-.5-2.5-.9-3-.7m-181.7 4.4l-.8.6 1.2 1.6c5.2 6.8 7.2 7.1 2.8.4-2.3-3.6-2.1-3.4-3.2-2.6m165.8.1c-2.1 1.1-7.8 5.5-7.8 6 0 .7 3.8-1.8 7.4-4.7 1.2-1 1.4-1.1 2.4-.9 1.9.4 3.1-.1 1.9-.8-.8-.5-2.7-.3-3.9.4m-72.8 1.7c-1 1.3-1.1.8.5 7 1.7 6.6 1.9 7.5 2.4 7.5.2 0 .5.2.6.3.1.2.3.3.5.2.2-.1.8-.2 1.4-.3 2.5-.2 10-2.5 9-2.7-.6-.1-9.3 1.7-9.7 2-.3.2-.3-.1-.4-1.4 0-1.7-2-12-2.5-13.2-.4-.8-.8-.6-1.8.6m-110-.4c-1 .3-1.7 1.3-4 5.7-3.1 6.1-3.3 5.8 3.3 5.3 2.3-.2 6.2-.3 8.7-.3h4.6l.2-3.8c.1-2.1.1-4.5.1-5.4l-.1-1.6h-6.1c-3.5 0-6.4.1-6.7.1m14.3 6.2c0 3.2.1 5.9.2 6 .4.4 1.8-6.9 1.8-9 0-.9-1.2-2.9-1.8-2.9-.1.1-.2 2.7-.2 5.9m91.3-3.4c-.1.5-.2 1.8-.3 2.9s-.4 3.4-.7 5.1c-.9 5 .1 6.9 1.3 2.5.3-1.3 1-3.7 1.6-5.4 1.2-3.8 1.2-3.8-.1-5s-1.7-1.2-1.8-.1m-144.9 4.5c-.2.2-.7 1.1-1.1 2l-.8 1.6.9 3.8c.8 3.5 1.1 4.3 1.3 4 .6-.9 1.5-3.3 1.4-3.5s-.4-1.5-.6-3c-.8-5.5-.8-5.3-1.1-4.9m61.8.4c-.3.3-.3.5 0 .7.4.4 1.3-.4 1-.8-.3-.4-.6-.4-1 .1m-1 3c-.3.7.2 13.5.5 13.8.9.9 2.2-12.7 1.3-13.8-.5-.6-1.6-.6-1.8 0m-19.3 1.7c-6 .3-6.9.5-6.9.9 0 1.2 15.5.5 15.7-.8.1-.5-1.5-.5-8.8-.1m122.4 2c-.8.2-3 .7-4.9 1.2-4.6 1.1-6.1 1.7-5.2 2.3.1.1 1.5-.1 3-.5s4-.9 5.5-1.2c3-.6 4.3-1.1 4.3-1.8 0-.5-.7-.5-2.7 0M107.2 300l-3.7.2v.7c0 1.1 1.3 2.6 8.6 10.3 3.8 4 5.3 5.3 5.3 4.6 0-.1-.7-1-1.6-2.1-6.3-7.6-5.9-13 1.1-12.7l1.4.1.8 1.7c.4 1 .9 2.1 1 2.5s1 3 1.9 5.6c1.9 5.3 2 5-.4 5.3s-1.8.8.7.6c3.5-.3 3.6-.6 1.8-5.5-.5-1.4-1.1-3.7-1.4-5-.3-1.4-.8-3.4-1.1-4.6l-.6-2.1h-5.1c-2.8.1-6.7.2-8.7.4m123.9 1.1c-.9.2-1.7.5-1.9.6-.3.3-4.2 1.2-6.1 1.5-1.8.3-2 .5-2.3 3.5-.2 1.5-.5 3.8-.7 5.2-.9 5.9-.7 6.2 3.7 5.2 3.2-.7 3.6-.8 3.2-1.2-.3-.3-2.6-.1-4.3.4-2 .7-1.9.9-1.1-2.9 1.6-7.5 2.3-9.5 3.4-9.5 1.8 0 9-2.4 9-3 .2-.3-1-.2-2.9.2m-18.9 1.6c-.1 0 .1 1.1.4 2.4.3 1.3.7 3.6.9 5.2.7 5.2 1.7 5.9 1.4 1.1-.1-1.7-.3-4.4-.4-5.9l-.2-2.8h-1c-.5-.1-1 0-1.1 0"/></svg>