<?xml version="1.0" encoding="utf-8"?>
<!-- Generator: Adobe Illustrator 16.0.0, SVG Export Plug-In . SVG Version: 6.00 Build 0)  -->
<!DOCTYPE svg PUBLIC "-//W3C//DTD SVG 1.1//EN" "http://www.w3.org/Graphics/SVG/1.1/DTD/svg11.dtd">
<svg version="1.1" id="Layer_1" xmlns="http://www.w3.org/2000/svg" xmlns:xlink="http://www.w3.org/1999/xlink" x="0px" y="0px"
	 width="500px" height="500px" viewBox="0 0 500 500" enable-background="new 0 0 500 500" xml:space="preserve">
<g>
	<g>
		<g>
			<path d="M433.967,180.906l-0.281-0.483C433.796,180.649,433.868,180.796,433.967,180.906z"/>
			<path d="M422.887,337.747l-0.15-0.325C422.782,337.724,422.836,337.776,422.887,337.747z"/>
			<path d="M434.632,374.933c0,0-0.149,0.33-0.336,0.662c-0.182,0.331-0.363,0.661-0.363,0.661
				C434.293,375.633,434.515,375.231,434.632,374.933z"/>
			<g>
				<path d="M439.65,306.867l0.557-5.432c0.096-0.874,0.174-1.871,0.253-2.855l0.235-2.944l0.229-2.945l0.111-1.472
					l0.047-1.418l0.181-5.669l0.288-11.012l0.31-5.238l0.146-2.62l0.278-2.746c1.532-14.699,2.943-29.374,4.227-43.984l0.247-2.822
					l0.122-1.41c0.019-0.244,0.045-0.451,0.058-0.725l0.034-0.838c0.03-1.106,0.114-2.261,0.08-3.321l-0.124-3.161
					c-0.285-4.082-0.775-7.689-0.846-10.988l-0.043-1.242l0.055-1.17c0.044-0.776,0.024-1.585,0.177-2.304l0.161-1.113l0.076-0.56
					c0.017-0.11,0.015-0.149,0.047-0.317l0.089-0.489c0.253-1.294,0.391-2.634,0.378-3.99c-0.009-2.709-0.616-5.478-1.789-7.951
					c-1.165-2.48-2.869-4.644-4.844-6.345c-0.488-0.434-1.015-0.803-1.526-1.197c-0.521-0.377-1.067-0.695-1.604-1.035
					c-0.571-0.339-1.024-0.552-1.788-0.938c-0.701-0.342-1.463-0.583-2.188-0.878c-0.726-0.302-1.487-0.499-2.227-0.753l-0.558-0.18
					c-0.093-0.016-0.188-0.091-0.277-0.058l-0.271,0.08l-1.079,0.321l-3.837,1.137c-3.431,1.034-6.956,1.887-10.525,2.527
					c-7.125,1.271-14.468,1.881-21.562,1.272l-2.783-0.317l-2.718-0.469c-0.871-0.219-1.773-0.387-2.621-0.638l-1.262-0.389
					l-0.638-0.194l-0.74-0.244l-5.918-1.948l-5.979-1.728c-8.002-2.181-16.12-3.814-24.223-5.068
					c-16.229-2.506-32.284-3.648-48.035-6.237c-1.739-0.259-3.464-0.565-5.18-0.896c-1.715-0.333-3.443-0.608-5.139-1.001
					c-1.702-0.372-3.402-0.743-5.1-1.113c-1.854-0.364-3.791-0.787-5.627-0.971c-3.703-0.48-7.292-0.626-10.626-0.972
					c-3.349-0.346-6.494-0.896-9.42-1.893c-1.557-0.569-3.279-0.773-4.881-0.653c-1.604,0.116-3.099,0.52-4.457,1.077
					c-2.717,1.13-4.945,2.821-6.813,4.779c-3.115,3.28-6.231,6.561-9.354,9.848c-6.299,6.49-12.691,12.951-19.179,19.463
					c-11.092,11.177-21.899,22.672-32.217,34.648l-7.551,9.157l-1.891,2.285l-1.8,2.366l-3.609,4.724l-3.625,4.712
					c-1.159,1.626-2.347,3.246-3.461,4.878l-6.708,9.733c-4.783,6.851-9.607,13.548-14.928,19.699
					c-1.287,1.531-5.022,6.267-9.254,10.364c-0.531,0.509-1.05,1.037-1.583,1.529c-0.55,0.465-1.094,0.925-1.626,1.375
					c-0.538,0.441-1.041,0.921-1.567,1.305c-0.529,0.38-1.041,0.747-1.527,1.096c-0.487,0.354-0.949,0.69-1.38,1.004
					c-0.453,0.265-0.873,0.511-1.254,0.733c-0.763,0.452-1.37,0.824-1.766,1.082c-0.361,0.234,0.016,0.146,0.842-0.14
					c0.414-0.15,0.941-0.342,1.544-0.561c0.302-0.114,0.624-0.235,0.959-0.362c0.329-0.143,0.656-0.329,1.001-0.501
					c0.689-0.356,1.413-0.732,2.133-1.105c0.736-0.354,1.386-0.858,2.045-1.257c0.65-0.421,1.26-0.815,1.794-1.162
					c0.524-0.363,0.949-0.712,1.282-0.959c4.39-3.227,9.445-8.124,13.889-13.192c4.462-5.059,8.398-10.201,11.005-13.733
					c5.264-7.159,8.972-12.504,13.016-17.58c4.182-5.016,8.134-10.262,14.171-17.009c11.908-13.668,24.582-26.375,37.356-38.957
					c6.402-6.304,12.793-12.597,19.191-18.896c3.162-3.173,6.326-6.348,9.493-9.526c1.295-1.266,2.818-2.276,4.296-2.794
					c0.736-0.261,1.45-0.396,2.081-0.402c0.631-0.005,1.163,0.103,1.686,0.331c1.169,0.395,2.35,0.793,3.53,1.191
					c4.04,1.117,8.06,1.569,11.833,1.979c3.777,0.409,7.35,0.775,10.597,1.606c7.533,1.916,15.275,3.457,23,4.666
					c15.476,2.451,30.933,3.663,45.566,6.488c7.927,1.52,15.699,3.468,23.28,5.964c1.906,0.589,3.767,1.315,5.651,1.964l1.408,0.5
					l1.626,0.549l1.7,0.553l1.694,0.436c4.523,1.126,9.001,1.617,13.427,1.79c8.852,0.301,17.518-0.621,26.066-2.448
					c1.067-0.237,2.137-0.462,3.199-0.746l2.347-0.602l0.438-0.118c0.155-0.056,0.212,0.049,0.322,0.065
					c0.098,0.035,0.188,0.086,0.282,0.128c0.096,0.042,0.141,0.093,0.498,0.277c2.216,1.298,3.423,3.126,3.754,5.129
					c0.049,0.549,0.114,1.108,0.025,1.705c-0.008,0.293-0.079,0.598-0.142,0.904l-0.321,1.683c-0.242,1.316-0.537,2.65-0.598,3.931
					c-0.106,1.29-0.248,2.608-0.222,3.825c-0.085,5,0.446,9.466,0.435,13.355l0.005,1.456l-0.101,1.354l-0.097,1.368l-0.204,1.638
					l-0.824,6.551l-1.658,13.1c-1.097,8.734-2.192,17.468-3.289,26.206l-0.401,3.278c-0.123,1.105-0.183,2.289-0.275,3.43
					c-0.154,2.289-0.365,4.635-0.46,6.881c-0.143,4.404-0.286,8.81-0.429,13.217c-0.047,3.804-0.402,7.313-0.646,10.916
					c-0.054,0.87-0.151,1.847-0.244,2.812l-0.274,2.888l-0.547,5.775l-0.541,5.773l-0.33,5.8c-0.197,3.867-0.488,7.728-0.604,11.6
					l-0.189,11.628l-0.047,2.906c-0.009,0.97,0.042,1.94,0.06,2.91l0.153,5.819l0.151,5.819l0.064,2.624
					c0.003,0.6-0.026,1.211-0.123,1.804c-0.161,1.186-0.54,2.325-0.988,3.127c-0.216,0.411-0.452,0.728-0.642,0.913
					c-0.195,0.2-0.286,0.26-0.431,0.351c-4.611,2.293-8.417,5.359-11.759,8.063l-2.905,2.344c-0.952,0.763-1.848,1.4-2.771,2.111
					c-0.907,0.61-1.801,1.204-2.695,1.772l-1.336,0.704l-0.664,0.359l-0.343,0.185l-0.431,0.203l-13.786,6.5
					c-9.188,4.303-18.409,8.694-27.58,12.884c-11.605,5.382-23.205,10.76-34.801,16.137l-17.517,8.22l-17.265,8.79
					c-5.8,2.836-11.386,6.109-17.045,9.23c-5.625,3.186-11.356,6.176-16.813,9.664l-14.354,8.795l-0.121,0.074
					c-0.113-0.038-0.259-0.105-0.387-0.157l-0.794-0.332l-0.397-0.166l-0.236-0.097l-0.577-0.22l-2.308-0.878
					c-1.548-0.598-3.07-1.163-4.573-1.705l-4.492-1.651c-5.384-1.964-10.478-3.999-15.198-6.436l-1.765-0.912l-0.882-0.454
					l-0.829-0.511l-3.313-2.032c-2.383-1.588-4.763-3.174-7.142-4.759c-9.486-6.432-19.143-12.703-28.802-18.975
					c-4.939-3.015-9.879-6.03-14.826-9.049c-1.245-0.744-2.462-1.526-3.733-2.237l-3.832-2.108c-2.56-1.401-5.122-2.803-7.687-4.207
					c-2.549-1.385-5.101-2.771-7.656-4.159l-3.602-1.951c-1.202-0.652-2.415-1.271-3.595-2.011
					c-4.773-2.794-9.495-5.784-14.369-8.947c-2.61-1.677-5.334-3.429-8.139-5.23c-1.395-0.913-2.898-1.806-4.397-2.714
					c-1.523-0.902-2.969-1.834-4.599-2.732c-3.25-1.765-6.656-3.715-9.773-5.079l-4.417-2.058c-0.422-0.209-1.174-0.669-1.821-1.062
					l-2.082-1.321c-5.632-3.67-11.216-7.558-16.341-11.148c-5.114-3.604-9.894-6.989-13.632-9.916
					c-1.812-1.415-2.935-2.182-3.653-2.397c-0.293-0.037-0.669-0.062-0.964-0.192c-0.31-0.088-0.611-0.109-0.89-0.054
					c0.114-0.021,0.221,0.046,0.318,0.184c0.052,0.063,0.088,0.168,0.148,0.247c0.063,0.072,0.124,0.155,0.179,0.251
					c0.266,0.407,0.72,1.188,1.451,2.146c1.408,1.928,3.607,4.555,5.929,7.167c4.647,5.244,9.784,10.521,10.497,11.203
					c4.376,4.105,9.114,8.191,14.315,12.063c0.667,0.487,1.313,0.951,2.144,1.451L74,384.208l4.166,2.341
					c1.426,0.753,2.661,1.642,3.976,2.46c1.294,0.841,2.584,1.646,3.853,2.506c9.847,6.783,18.612,14.276,28.64,20.993l1.868,1.272
					l1.941,1.196c1.302,0.796,2.608,1.594,3.919,2.396c2.523,1.523,5.067,3.06,7.643,4.614c2.565,1.51,5.163,3.037,7.802,4.59
					c1.325,0.766,2.66,1.537,4.007,2.316c1.328,0.825,2.667,1.658,4.02,2.5l8.523,5.24l4.263,2.608
					c1.421,0.868,2.811,1.813,4.219,2.713c5.608,3.665,11.241,7.223,16.838,10.933l8.397,5.561l4.201,2.774l2.101,1.386l2.362,1.444
					c6.336,3.917,13.009,6.793,19.483,9.257l9.536,3.517l4.589,1.736l1.147,0.437l1.994,0.833l3.987,1.667l1.994,0.833l0.25,0.104
					l0.125,0.052l0.133-0.08l0.533-0.326l1.066-0.651l4.265-2.605l4.739-2.896l8.51-5.208l4.256-2.606l2.129-1.305l2.18-1.221
					l8.742-4.86c5.845-3.217,11.607-6.587,17.634-9.521l15.218-7.736c5.102-2.524,10.301-4.877,15.444-7.327l31.22-14.667
					l15.652-7.356l15.548-7.389l15.558-7.374l0.973-0.46l0.486-0.23c0.151-0.068,0.328-0.156,0.536-0.268l2.345-1.243l1.162-0.635
					l1.057-0.689l2.107-1.391c2.614-1.887,5.032-3.855,7.172-5.586c3.014-2.414,5.73-4.479,8.648-5.915
					c1.258-0.648,2.506-1.443,3.519-2.388c1.043-0.92,1.876-1.911,2.602-2.917c1.419-2.017,2.346-4.088,2.996-6.153
					c0.646-2.068,0.988-4.145,1.104-6.248c0.024-0.526,0.049-1.052,0.035-1.582l-0.021-1.352l-0.031-2.19
					c-0.042-2.922-0.084-5.854-0.125-8.792c-0.018-1.47-0.035-2.94-0.053-4.413l0.131-4.429c0.086-2.954,0.172-5.914,0.258-8.879
					l0.071-2.224l0.154-2.225l0.308-4.453c0.205-2.97,0.41-5.942,0.615-8.917L439.65,306.867z"/>
			</g>
		</g>
	</g>
</g>
<g>
	<g>
		<g>
			<path d="M241.902,323.313l-0.344-0.02C241.712,323.311,241.811,323.344,241.902,323.313z"/>
			<path d="M288.103,325.281l-0.135,0.135C288.074,325.382,288.103,325.332,288.103,325.281z"/>
			<path d="M299.731,312.599l0.25-0.007C299.862,312.581,299.788,312.585,299.731,312.599z"/>
			<g>
				<path d="M280.903,309.403c-0.593-0.058-1.197-0.139-1.782-0.17l-1.75-0.073l-3.499-0.11
					c-2.271,0.023-4.573,0.065-6.784,0.192c-2.197,0.135-4.427,0.296-6.538,0.492c-2.11,0.207-4.217,0.413-6.318,0.619
					c-2.167,0.262-4.217,0.38-6.334,0.578c-2.104,0.131-4.199,0.194-6.336,0.226c-4.289-0.037-8.645-0.3-13.088-0.962
					c-4.681-0.684-9.434-1.451-14.255-2.014c-2.435-0.236-4.845-0.527-7.331-0.588c-1.226-0.048-2.488-0.111-3.684-0.123
					l-3.561,0.014c-4.77,0.041-9.442-0.08-14.048-0.482c-4.621-0.354-9.164-1.029-13.696-1.932c-1.085-0.24-2.173-0.46-3.264-0.664
					c-1.098-0.185-2.152-0.49-3.236-0.711c-2.122-0.44-4.4-1.003-6.645-1.547c-4.516-1.081-9.063-2.144-13.634-3.388
					c-1.229-0.313-2.436-0.691-3.673-0.992c-1.241-0.299-2.481-0.598-3.726-0.896c-0.622-0.115-2.543-0.15-4.448-0.11
					c-1.923,0.131-3.821,0.327-4.44,0.49c-0.552,0.146,3.06,1.323,4.029,1.636c3.236,1.128,7.979,2.906,10.387,3.824
					c4.911,1.729,7.132,2.653,12.18,4.305c1.303,0.435,2.602,0.869,3.897,1.302l1.942,0.655l2.01,0.615
					c1.343,0.39,2.671,0.868,4.025,1.19l4.053,1.04c5.422,1.257,10.871,2.273,16.352,3.354c4.422,0.839,9.002,1.177,13.522,1.389
					c2.319,0.088,4.396,0.279,6.569,0.44c2.16,0.219,4.321,0.537,6.454,0.926c4.643,0.913,9.272,2.059,14.056,3.123
					c2.375,0.531,4.827,1.013,7.27,1.45c2.499,0.369,4.96,0.793,7.548,0.937c11.014,0.921,21.606,0.688,31.324,0.851l3.574,0.083
					c1.178,0.051,2.317,0.174,3.48,0.25l1.736,0.128l1.677,0.259l3.459,0.525c1.407,0.229,2.802,0.501,4.216,0.683
					c1.419,0.134,2.85,0.328,4.257,0.405c1.396,0.049,2.83,0.158,4.192,0.156l2.045,0.003c0.71-0.007,1.274,0.03,2.209-0.038
					l1.496-0.095l1.33-0.168c0.917-0.109,1.676-0.248,2.471-0.38l2.205-0.378l1.955-0.293c1.141-0.115,2.28-0.201,2.81-0.072
					l0.226,0.021l0.115,0.005l0.17,0.047l0.682,0.173c0.464,0.158,0.926,0.285,1.408,0.503c2.42,0.969,5.083,2.791,7.899,4.908
					c2.819,2.11,5.878,4.641,9.546,6.942c3.25,1.988,6.441,4.019,9.765,5.945c1.654,0.968,3.28,1.966,4.953,2.917l5.039,2.837
					c1.5,0.88,3.054,1.692,4.585,2.531c1.526,0.851,3.05,1.699,4.57,2.546c2.807,1.612,5.646,3.159,8.323,4.906
					c2.753,1.649,5.347,3.48,8.022,5.207c1.301,0.904,2.604,1.81,3.91,2.718l1.98,1.337l1.929,1.401
					c5.601,3.866,12.221,9.852,18.075,12.435c1.482,0.584,2.785,0.102,3.676-0.618c-0.735,0.586-1.613-1.186-2.382-3.226
					c-0.384-1.02-0.74-2.106-1.021-2.978c-0.314-0.838-0.552-1.457-0.62-1.593c-0.849-1.625-1.894-3.225-2.998-4.82
					c-1.186-1.506-2.431-3.005-3.612-4.538c-0.285-0.374-0.569-0.745-0.851-1.114c-0.298-0.352-0.593-0.702-0.888-1.051
					c-0.59-0.706-1.174-1.406-1.755-2.103c-0.589-0.702-1.174-1.4-1.759-2.099c-0.59-0.697-1.229-1.326-1.854-1.989
					c-1.268-1.299-2.557-2.627-3.966-3.86c-1.429-1.197-2.938-2.369-4.568-3.503c-3.458-2.276-6.987-4.445-10.615-6.355
					c-3.418-1.833-6.833-3.664-10.249-5.496c-6.679-3.711-13.317-7.686-19.953-11.866c-2.354-1.487-4.844-3.46-7.655-5.579
					c-2.821-2.101-5.924-4.371-9.802-6.231c-1.917-0.933-4.071-1.73-6.394-2.237c-1.048-0.287-2.626-0.416-3.946-0.506
					c-1.183,0.022-2.493,0.027-3.483,0.171c-2.194,0.218-3.901,0.583-5.568,0.861c-0.733,0.115-1.584,0.283-2.192,0.343
					c-0.32,0.036-0.674,0.093-0.966,0.117l-0.776,0.037l-0.231,0.016l-0.341-0.005l-0.7-0.014l-1.403-0.029
					c-0.952-0.002-1.85-0.077-2.747-0.151c-0.903-0.068-1.813-0.125-2.681-0.279c-0.878-0.147-1.761-0.215-2.638-0.42l-2.635-0.566
					l-3.409-0.676l-1.729-0.331l-0.866-0.163l-0.854-0.1L280.903,309.403z"/>
			</g>
		</g>
	</g>
</g>
<g>
	<g>
		<g>
			<path d="M292.077,254.85l0.077,0.175C292.128,254.942,292.131,254.881,292.077,254.85z"/>
			<path d="M283.35,228.433l0.167,0.008C283.451,228.406,283.396,228.414,283.35,228.433z"/>
			<path d="M268.131,226.653l-0.068-0.157C268.081,226.575,268.104,226.622,268.131,226.653z"/>
			<g>
				<path d="M270.866,238.119c1.477,5.142,3.448,10.206,6.092,14.975c0.65,1.231,1.393,2.435,2.124,3.634l2.19,3.585
					c1.532,2.359,2.879,4.782,4.194,7.254c0.666,1.322,1.331,2.642,1.994,3.959l2.128,3.873l1.084,1.923l1.182,1.864
					c0.798,1.236,1.619,2.459,2.473,3.661c1.779,2.382,3.432,4.758,5.028,7.203c1.664,2.428,3.229,4.759,4.786,7.175
					c2.981,4.619,6.99,8.582,9.083,13.534c0.262,0.656,0.485,1.319,0.713,1.979c0.209,0.658,0.367,1.305,0.565,1.944
					c0.061,0.163,0.176,0.428,0.383,0.765c0.186,0.325,0.511,0.76,0.695,1.1c0.513,0.797,0.807,1.304,1.061,1.544
					c0.107,0.101,0.34-0.159,0.598-0.594c0.312-0.402,0.361-1.126,0.442-1.402c0.354-1.937,0.021-5.23-0.42-6.768
					c-0.893-3.133-1.392-4.595-2.919-7.49c-1.588-2.989-3.272-5.858-4.889-8.752c-1.598-2.897-3.219-5.807-4.367-8.832
					c-1.926-4.941-5.356-9.221-7.344-14.107c-2.242-5.237-3.674-10.738-5.886-15.937c-2.347-5.558-3.487-11.561-5.453-17.353
					c-1.929-5.717-3.941-11.516-5.707-17.454c-1.016-3.465-2.025-6.968-2.991-10.483c-0.639-2.221-1.289-4.434-2.014-6.63
					c-0.741-2.194-1.481-4.386-2.273-6.563l-2.447-6.512c-0.869-2.213-1.755-4.397-2.626-6.522
					c-3.151-7.725-4.854-15.219-6.84-21.979c-0.282-0.905-0.476-1.879-0.762-2.891c-0.104-0.5-0.219-1.008-0.353-1.519l-0.215-0.767
					l-0.184-0.76c-0.134-0.506-0.291-1.011-0.478-1.511c-0.162-0.498-0.322-0.986-0.535-1.471c-0.451-0.971-0.913-1.9-1.582-2.781
					c-0.653-0.854-1.916-1.291-3.052-1.444c0.932,0.134,0.326,1.174-0.553,2.327c-0.864,1.144-1.855,2.446-1.968,2.627
					c-0.605,1.077-0.868,2.242-1.182,3.446c-0.26,1.2-0.407,2.427-0.634,3.659c-0.748,4.724-1.446,9.393-0.226,14.149
					c1.284,4.973,3.092,9.562,4.854,13.919c0.896,2.192,1.752,4.31,2.574,6.421c0.809,2.184,1.617,4.371,2.429,6.563
					c2.653,7.511,5.225,15.081,7.416,22.893C268.366,228.234,269.479,233.196,270.866,238.119z"/>
			</g>
		</g>
	</g>
</g>
<g>
	<g>
		<g>
			<path d="M62.399,177.933l-0.074,0.467C62.366,178.191,62.415,178.059,62.399,177.933z"/>
			<path d="M83.532,122.363l-0.036,0.208C83.58,122.457,83.57,122.398,83.532,122.363z"/>
			<path d="M88.772,102.912l0.354-0.223C88.95,102.782,88.846,102.851,88.772,102.912z"/>
			<g>
				<path d="M63.007,118.551c-1.734,1.708-3.222,3.868-4.222,5.933c-0.535,1.052-0.901,2.043-1.279,3.05
					c-0.309,0.96-0.641,1.956-0.855,2.867l-0.336,1.383c-0.118,0.478-0.168,0.81-0.255,1.222l-0.462,2.361l-0.892,4.723
					c-1.095,6.284-1.974,12.55-2.649,18.77c-1.428,12.818-2.225,25.552-4.51,38.263c-0.652,3.345-1.303,6.683-1.953,10.016
					c-0.734,3.295-1.468,6.586-2.201,9.877l-2.208,10.128c-0.689,3.389-1.479,6.754-1.947,10.2
					c-0.53,3.452-1.095,6.868-1.688,10.264c-0.277,1.702-0.645,3.385-0.865,5.091l-0.741,5.102
					c-0.522,3.396-1.044,6.793-1.569,10.202c-0.507,3.411-0.844,6.855-1.284,10.315c-0.402,3.336-0.72,6.687-1.006,10.018
					c-0.273,3.289-0.547,6.576-0.82,9.862c-0.269,3.288-0.549,6.578-0.887,9.862c-0.088,0.821-0.163,1.643-0.274,2.462l-0.398,2.456
					c-0.275,1.637-0.57,3.271-0.891,4.901c-0.688,3.482-1.464,6.924-2.184,10.392c-0.354,1.704-0.87,10.497-0.74,12.253
					c0.058,0.8,1.792-4.128,2.261-5.503c1.538-4.506,3.723-11.461,4.637-15.085c0.922-3.667,1.604-6.355,2.215-9.079
					c0.504-2.745,0.956-5.525,1.509-9.358c1.133-7.889,2.252-15.675,3.368-23.439c1.011-7.729,2.733-15.322,4.518-22.923
					c0.178-0.769,0.357-1.539,0.537-2.312c0.197-0.77,0.394-1.541,0.592-2.314c0.384-1.548,0.749-3.107,1.098-4.674
					c0.699-3.133,1.339-6.299,1.963-9.474c1.483-6.332,2.902-12.596,4.607-18.855c3.842-13.705,7.146-27.366,9.519-41.225
					c1.243-7.37,2.711-14.664,4.22-21.913l2.336-10.808l1.203-5.355l0.578-2.684c0.198-0.746,0.352-1.527,0.57-2.168
					c0.396-1.343,0.845-2.406,1.333-3.146c0.487-0.745,1.078-1.371,2.157-2.195c2.162-1.622,5.694-3.599,8.887-5.708
					c5.995-3.845,12.14-7.467,18.593-10.798c7.521-3.906,15.365-7.687,23.12-11.914l3.671-2.008l3.612-2.146l3.598-2.16l3.467-2.2
					c4.63-2.933,9.121-5.932,13.542-8.575c1.105-0.637,2.202-1.326,3.313-1.924l3.335-1.751c1.116-0.577,2.285-1.053,3.423-1.586
					l1.718-0.782l1.79-0.695l3.58-1.392l3.708-1.253l1.857-0.623c0.627-0.212,1.202-0.395,1.947-0.67l4.239-1.537
					c1.192-0.499,2.382-0.997,3.57-1.494c1.18-0.498,2.388-0.975,3.512-1.5c2.273-1.037,4.606-2.016,6.825-3.071
					c4.5-2.063,8.933-4.153,13.319-6.275c4.396-2.12,8.74-4.283,13.003-6.417c4.336-2.146,8.648-4.365,12.944-6.603
					c4.547-2.413,9.947-5.017,15.06-7.725c2.566-1.287,5.047-2.724,7.344-4.014c1.146-0.667,2.242-1.352,3.271-2.053
					c1.031-0.653,1.999-1.314,2.884-2.003c1.718-1.337,1.96-2.785,1.635-3.883c0.26,0.904-2.55,1.3-5.606,1.504
					c-3.023,0.294-6.278,0.459-6.708,0.517c-2.546,0.442-5.169,1.098-7.795,1.847c-2.602,0.795-5.261,1.589-7.83,2.412
					c-5.012,1.53-9.803,2.948-14.58,4.558c-2.4,0.798-4.764,1.656-7.182,2.594c-2.421,0.964-4.882,2.018-7.335,3.196
					c-5.116,2.478-10.221,4.95-15.321,7.421c-2.531,1.187-5.058,2.455-7.569,3.575l-3.764,1.725l-3.719,1.576
					c-1.263,0.578-2.411,0.93-3.597,1.375l-1.778,0.65l-2.113,0.704l-4.224,1.416c-1.407,0.465-2.827,1.066-4.239,1.596
					c-2.831,1.027-5.646,2.372-8.445,3.656l-4.116,2.144c-1.36,0.726-2.639,1.52-3.962,2.278c-1.138,0.646-2.193,1.315-3.253,1.984
					l-3.178,2.004l-6.146,3.979c-2.022,1.284-4.069,2.667-6.069,3.872c-2.014,1.217-3.995,2.476-6.034,3.662
					c-8.127,4.766-16.743,8.966-25.569,13.501c-2.634,1.396-5.311,2.705-7.982,4.203c-1.339,0.729-2.683,1.46-4.03,2.193
					c-1.344,0.742-2.665,1.552-4.004,2.327c-2.56,1.506-5.131,3.019-7.706,4.535c-1.282,0.743-2.659,1.526-4.167,2.494
					C66.373,115.701,64.667,116.887,63.007,118.551z"/>
			</g>
		</g>
	</g>
</g>
<g>
	<g>
		<g>
			<path d="M327.38,79.62l-0.197-0.159C327.266,79.539,327.306,79.607,327.38,79.62z"/>
			<path d="M354.94,103.741l-0.158,0.07C354.868,103.816,354.913,103.783,354.94,103.741z"/>
			<path d="M370.058,98.251l0.178,0.128C370.16,98.307,370.105,98.271,370.058,98.251z"/>
			<g>
				<path d="M359.127,87.855c-5.063-4.534-10.425-8.73-16.04-12.511c-5.789-3.876-11.837-7.341-17.292-11.78
					c-2.866-2.362-5.746-4.714-8.64-7.039c-1.451-1.16-2.896-2.317-4.382-3.442c-1.514-1.111-3.044-2.203-4.599-3.264
					c-0.776-0.541-1.549-1.08-2.319-1.618c-0.765-0.544-1.5-1.098-2.361-1.638l-2.475-1.632l-2.506-1.487
					c-3.346-1.923-6.724-3.698-10.164-5.312c-3.315-1.589-6.753-2.741-10.106-3.947l-1.258-0.455
					c-0.419-0.152-0.855-0.311-1.179-0.445c-0.702-0.275-1.491-0.659-2.257-1.044c-1.549-0.793-3.105-1.695-4.639-2.676
					c-1.64-1.051-3.251-2.177-5.014-3.211c-0.435-0.253-1.882-0.738-3.481-1.071c-0.817-0.16-1.636-0.295-2.414-0.334
					c-0.187-0.01-0.364-0.02-0.53-0.029c-0.189,0.006-0.364,0.011-0.523,0.016c-0.316,0.016-0.564,0.042-0.727,0.072
					c-0.312,0.063,0.541,0.414,1.343,0.891c0.802,0.477,1.582,1.083,1.932,1.331c2.222,1.691,5.094,4.432,6.688,5.686
					c1.607,1.264,2.778,2.205,4.011,3.096c0.615,0.447,1.251,0.879,1.969,1.337c0.374,0.225,0.743,0.461,1.183,0.7
					c0.221,0.119,0.448,0.24,0.684,0.366c0.219,0.109,0.444,0.222,0.679,0.339c3.871,1.927,7.698,3.714,11.349,5.723
					c3.635,2.009,7.17,4.183,10.142,6.877c0.637,0.51,1.186,1.084,1.796,1.596c0.604,0.538,1.202,0.977,1.857,1.585
					c1.291,1.141,2.629,2.238,3.98,3.323c1.349,1.096,2.722,2.133,4.052,3.272c1.331,1.134,2.64,2.287,3.888,3.485
					c2.707,2.588,5.336,5.262,7.999,7.927c2.668,2.652,5.388,5.24,8.277,7.687c6.175,5.175,11.634,11.07,17.788,16.233l9.143,7.574
					c3.051,2.542,6.092,5.095,9.08,7.717c3.499,3.054,6.91,6.179,10.373,9.297c4.378,3.939,8.859,7.752,13.356,11.541l3.374,2.839
					l3.44,2.761l6.851,5.557c4.106,3.381,7.934,6.99,11.818,10.55c1.853,1.736,3.689,3.419,5.585,5.09
					c1.864,1.737,3.782,3.424,5.804,5.034c2.101,1.752,4.493,3.901,7.067,5.716c2.509,1.87,5.142,3.465,7.857,4.067
					c1.317,0.293,2.507-0.349,3.34-1.135c-1.355,1.303-2.87-5.788-3.08-6.26c-1.106-2.757-3.003-5.148-4.591-7.687
					c-0.773-1.225-1.493-2.462-2.229-3.672c-0.753-1.191-1.502-2.375-2.285-3.547c-0.782-1.171-1.599-2.329-2.486-3.464
					c-0.908-1.12-1.92-2.198-3.022-3.254c-2.358-2.249-4.608-4.266-6.915-6.276c-2.306-2.009-4.64-3.977-6.992-5.923
					c-2.366-1.93-4.732-3.86-7.102-5.792l-3.572-2.883l-3.504-2.981c-7.936-6.78-16.019-13.356-23.82-20.42
					C368.648,96.722,363.999,92.198,359.127,87.855z"/>
			</g>
		</g>
	</g>
</g>
<g>
	<g>
		<g>
			<path d="M102.842,170.341l0.063,0.296C102.885,170.502,102.894,170.411,102.842,170.341z"/>
			<path d="M103.277,141.585l-0.072,0.161C103.28,141.689,103.289,141.634,103.277,141.585z"/>
			<path d="M112.345,127.147l0.284-0.021C112.493,127.122,112.409,127.131,112.345,127.147z"/>
			<g>
				<path d="M89.235,129.5c-0.691,0.759-1.399,1.508-2.077,2.281c-0.647,0.794-1.266,1.631-1.837,2.49
					c-0.537,0.881-0.97,1.848-1.388,2.803c-0.409,0.957-0.638,1.999-0.887,3.017c-0.389,2.02-0.416,3.681-0.289,5.304
					c0.03,0.85,0.18,1.54,0.296,2.291c0.114,0.765,0.285,1.419,0.457,2.08c0.692,2.641,1.587,4.815,2.413,6.765
					c0.827,1.926,1.582,3.621,2.121,5.077l0.216,0.563l0.155,0.501l0.167,0.502c0.058,0.169,0.126,0.52,0.19,0.77l0.782,3.278
					l0.787,3.263l0.389,1.627l0.464,1.618c0.624,2.156,1.22,4.312,1.783,6.474c0.66,2.136,1.275,4.284,1.825,6.458
					c2.48,9.175,5.331,17.816,8.037,26.441c0.737,2.167,1.252,4.359,1.835,6.537c0.287,1.143,0.573,2.283,0.858,3.423
					c0.359,1.337,0.747,2.477,1.148,3.607c1.608,4.481,3.297,8.722,4.99,13.07c3.261,8.341,7.792,16.093,10.282,24.559
					c0.657,2.253,1.17,4.521,1.633,6.738c0.113,0.544,0.757,2.103,1.315,3.596c0.284,0.747,0.536,1.478,0.71,2.021
					c0.195,0.584,0.274,0.883,0.381,1.083c0.045,0.086,0.136,0.027,0.259-0.138c0.123-0.162,0.295-0.429,0.397-0.843
					c0.259-0.771,0.366-1.878,0.397-2.346c0.263-3.13-0.252-8.139-0.763-10.603c-1.044-5.012-1.633-7.329-3.325-12.245
					c-1.792-5.048-3.56-10.031-5.323-15c-0.854-2.485-1.678-4.975-2.418-7.472c-0.369-1.248-0.722-2.5-1.028-3.741
					c-0.307-1.235-0.589-2.493-0.737-3.617c-0.09-0.522-0.062-0.741-0.144-1.298l-0.226-1.639c-0.163-1.093-0.348-2.189-0.55-3.285
					c-0.204-1.096-0.418-2.195-0.653-3.29c-0.275-1.082-0.551-2.166-0.827-3.25c-1.09-4.353-2.436-8.604-3.399-12.822
					c-0.517-2.268-1.063-4.566-1.489-6.805c-0.434-2.249-0.945-4.5-1.277-6.729c-0.82-4.458-1.411-8.902-2.152-13.354
					c-0.32-2.386-0.588-4.777-0.832-7.167l-0.138-1.172l-0.165-1.253c-0.147-0.771-0.301-1.545-0.465-2.297l-0.545-2.11l-0.57-1.96
					c-0.762-2.513-1.481-4.745-1.851-6.591c-0.074-0.439-0.201-0.922-0.214-1.283l-0.072-0.578
					c-0.031-0.196,0.001-0.327-0.011-0.493l-0.021-0.467c0.025-0.121,0.042-0.241,0.049-0.363c0.001-0.254,0.01-0.268,0.024-0.346
					c0.024-0.139,0.076-0.276,0.146-0.411c0.075-0.133,0.155-0.284,0.337-0.289l0.247-0.065l1.486-0.23
					c1.122-0.173,2.236-0.37,3.415-0.42c2.333-0.151,4.64-0.396,7.002-0.462l7.128-0.046l8.405,0.409
					c2.817,0.241,5.629,0.48,8.442,0.762c7.168,0.807,14.328,1.614,21.485,2.42c1.741,0.214,3.741,0.391,5.669,0.573
					c1.899,0.133,3.792,0.261,5.661,0.354c3.732,0.179,7.427,0.305,11.1,0.422c13.281,0.425,26.033,1.941,39.087,1.885
					c1.721,0.004,3.593,0.009,5.524,0.013c1.916,0.014,3.896-0.011,5.835-0.097c3.855-0.134,7.579-0.586,10.487-1.605
					c1.434-0.515,2.1-1.726,2.313-2.851c-0.184,0.924-1.917,0.136-3.763-0.921c-1.863-0.977-3.826-2.226-4.1-2.346
					c-1.641-0.684-3.4-1.238-5.191-1.717c-1.795-0.45-3.611-0.905-5.389-1.35c-6.886-1.802-13.078-3.868-20.431-4.447
					c-7.7-0.598-15.346-0.861-22.922-1.109c-3.791-0.119-7.556-0.248-11.273-0.434c-1.874-0.076-3.676-0.229-5.511-0.344
					c-1.775-0.179-3.476-0.323-5.459-0.577c-13.046-1.559-26.286-2.841-39.831-3.301c-4.091-0.006-8.201-0.256-12.492-0.027
					c-2.138,0.09-4.25,0.051-6.461,0.354c-1.171,0.136-1.847,0.147-4.14,0.579l-2.899,0.51
					C90.887,128.632,89.77,128.534,89.235,129.5z"/>
			</g>
		</g>
	</g>
</g>
<g>
	<g>
		<g>
			<path d="M368.075,270.851l-0.125,0.17C368.013,270.949,368.071,270.917,368.075,270.851z"/>
			<path d="M386.674,246.952l0.089,0.142C386.755,247.018,386.717,246.978,386.674,246.952z"/>
			<path d="M379.315,233.356l0.092-0.155C379.352,233.267,379.326,233.314,379.315,233.356z"/>
			<g>
				<path d="M371.305,242.796c-3.457,4.355-6.559,8.986-9.245,13.866c-2.765,5.025-5.292,10.157-8.734,14.762
					c-3.666,4.854-7.477,9.52-10.836,14.613c-0.448,0.711-0.787,1.099-1.163,1.595c-0.358,0.479-0.906,0.978-1.357,1.46
					c-0.999,0.964-2.076,1.907-3.229,2.807c-2.278,1.814-4.735,3.511-7.254,5.225c-4.86,3.312-9.04,7.614-14.125,10.903
					c-1.359,0.904-2.772,1.705-4.15,2.707c-0.17,0.12-0.458,0.422-0.799,0.818c-0.34,0.406-0.729,0.959-1.1,1.493
					c-0.186,0.272-0.367,0.534-0.536,0.811c-0.162,0.297-0.317,0.581-0.458,0.84c-0.27,0.52-0.458,0.94-0.52,1.168
					c-0.085,0.411,2.28-1.013,2.93-1.199c2.095-1.01,5.25-2.128,6.729-2.89c3.042-1.481,4.447-2.148,7.343-3.952
					c2.989-1.863,5.951-3.699,8.967-5.495c3.018-1.806,6.078-3.521,9.341-5.315c0.659-0.38,1.309-0.788,1.948-1.217
					c0.641-0.451,1.277-0.977,1.901-1.491c0.627-0.524,1.274-1.236,1.891-1.875c0.518-0.59,0.941-1.129,1.409-1.704
					c1.829-2.269,3.607-4.589,5.586-6.682c4.283-4.532,8.873-8.819,12.722-13.76c2.068-2.617,4.219-5.14,6.372-7.664
					c2.155-2.522,4.306-5.051,6.273-7.726c3.877-5.273,7.571-10.682,11.533-15.884c2.305-3.033,4.657-6.032,7.055-8.992
					c3.029-3.74,5.926-7.576,8.798-11.427c1.441-1.92,2.857-3.868,4.315-5.766c1.461-1.895,2.931-3.783,4.421-5.656
					c2.697-3.386,5.634-6.507,8.515-9.675c1.439-1.584,2.865-3.18,4.241-4.828c0.688-0.824,1.363-1.661,2.021-2.516
					c0.604-0.808,1.208-1.618,1.816-2.433c1.057-1.47,2.361-2.881,3.64-4.236c1.27-1.379,2.645-2.809,3.766-4.745
					c0.536-0.937,0.45-2.273,0.144-3.376c0.248,0.923-1.007,0.741-2.465,0.469c-0.718-0.115-1.517-0.308-2.146-0.403
					c-0.628-0.094-1.113-0.164-1.22-0.163c-2.573,0.055-5.119,1.223-7.546,2.458c-2.318,1.183-4.632,2.676-6.463,3.881
					c-1.923,1.286-3.769,2.683-5.438,4.465c-3.499,3.737-6.767,7.637-9.946,11.609c-3.187,3.969-6.283,8.01-9.333,12.08
					c-5.234,6.898-10.298,13.917-15.625,20.745C378.106,234.577,374.62,238.619,371.305,242.796z"/>
			</g>
		</g>
	</g>
</g>
<g>
	<g>
		<g>
			<path d="M271.582,413.35l-0.066,0.136C271.553,413.428,271.597,413.401,271.582,413.35z"/>
			<path d="M282.81,394.688l0.11,0.119C282.896,394.746,282.854,394.711,282.81,394.688z"/>
			<path d="M273.351,383.236l0.054-0.124C273.366,383.164,273.353,383.202,273.351,383.236z"/>
			<g>
				<path d="M267.911,390.703c-2.21,3.511-4.016,7.274-5.382,11.213c-1.354,4.092-2.204,8.388-4.146,12.177
					c-2.016,4.037-4.077,8.011-5.674,12.243c-1.538,4.288-3.482,8.22-5.568,12.246c-0.246,0.475-0.488,1.006-0.69,1.455
					c-0.201,0.445-0.388,0.898-0.567,1.357c-0.345,0.928-0.772,1.788-1.156,2.699c-0.468,0.832-0.872,1.75-1.47,2.489
					c-0.286,0.381-0.572,0.77-0.893,1.12c-0.339,0.328-0.691,0.645-1.058,0.941c-0.378,0.335-0.828,0.566-1.254,0.814
					c-0.433,0.239-0.837,0.511-1.29,0.689c-0.222,0.087-0.657,0.68-1.133,1.268c-0.489,0.554-0.981,1.193-1.106,1.494
					c-0.132,0.28,1.605,0.394,2.139,0.387c0.832,0.005,1.833-0.188,2.853-0.381c0.947-0.284,1.888-0.609,2.459-0.917
					c1.097-0.678,1.983-1.165,2.694-1.812c0.371-0.313,0.735-0.64,1.122-1.012c0.374-0.38,0.731-0.828,1.156-1.346l0.647-0.81
					l0.584-0.842c0.377-0.567,0.803-1.117,1.141-1.702c0.691-1.131,1.38-2.257,2.068-3.382c1.354-2.157,2.8-4.259,4.479-6.257
					c2.656-3.251,4.07-7.334,6.387-10.796c2.472-3.765,5.509-7.185,7.612-11.148c0.563-1.053,1.175-2.078,1.808-3.09
					c0.647-1.004,1.346-1.978,2.026-2.96c1.368-1.962,2.729-3.923,3.889-6.009c1.118-2.071,2.302-4.104,3.459-6.154
					c1.164-2.047,2.341-4.088,3.593-6.085c1.483-2.316,3.087-4.559,4.698-6.789c1.023-1.405,2.012-2.832,2.98-4.271l2.971-4.275
					c1.977-2.853,3.854-5.774,5.982-8.521c1.896-2.505,4.049-4.765,6.139-7.064c2.272-2.49,4.646-5.48,6.132-9.271
					c0.802-1.971,1.592-4.48,1.749-6.996c0.094-1.248-0.078-2.511-0.326-3.649c-0.276-1.141-0.859-2.176-1.551-3.028
					c-0.693-0.831-1.983-1.046-3.128-1.041c0.94-0.011,0.387,1.024-0.427,1.976c-0.771,0.969-1.983,1.787-2.087,1.897
					c-0.682,0.699-1.148,1.424-1.741,2.101c-0.563,0.682-1.014,1.368-1.681,1.942c-2.419,2.297-5.295,3.349-7.449,5.644
					c-1.115,1.147-2.4,2.625-3.598,4.066c-1.201,1.447-2.361,2.924-3.5,4.417c-2.309,2.963-4.375,6.108-6.553,9.194l-2.738,3.96
					l-2.623,4.039c-1.734,2.703-3.521,5.368-5.301,8.044C272.491,384.187,270.111,387.388,267.911,390.703z"/>
			</g>
		</g>
	</g>
</g>
<g>
	<g>
		<g>
			<path d="M200.99,399.544l0.123,0.122C201.064,399.605,201.048,399.551,200.99,399.544z"/>
			<path d="M184.901,380.104l0.154-0.058C184.985,380.041,184.938,380.069,184.901,380.104z"/>
			<path d="M170.452,384.504l-0.112-0.109C170.382,384.456,170.417,384.486,170.452,384.504z"/>
			<g>
				<path d="M176.567,393.296c1.486,1.909,3.03,3.764,4.715,5.511c1.71,1.737,3.504,3.391,5.375,4.948
					c1.903,1.619,4.043,3.05,6.02,4.588c1,0.763,1.982,1.539,2.933,2.35c0.994,0.778,1.955,1.59,2.869,2.455
					c1.657,1.536,3.197,3.165,4.9,4.645l2.577,2.195l1.307,1.075l0.33,0.266l0.142,0.095l0.291,0.188l0.347,0.226
					c0.097,0.087,0.297,0.123,0.296,0.268l0.099,0.292c0.067,0.152,0.135,0.304,0.2,0.452c0.237,0.65,0.495,1.305,0.793,1.969
					c0.288,0.647,0.581,1.264,0.878,1.86c0.591,1.2,1.201,2.316,1.801,3.435c1.208,2.216,2.417,4.354,3.638,6.497
					c1.259,2.209,2.795,4.197,4.23,6.208c1.425,2.003,2.798,4.063,3.537,6.262c0.387,1.161,0.624,2.358,0.694,3.315
					c0,0.109,0.076,0.303,0.212,0.55c0.089,0.19,0.255,0.471,0.357,0.586c0.08,0.11,0.118,0.117,0.187,0.148l0.055,0.03l0.117,0.046
					c0.042,0.017,0.044,0.01,0.069,0.018c0.077,0.016,0.154,0.042,0.229,0.077c0.067,0.03,0.165,0.094,0.197,0.119
					c-0.011-0.009-0.017-0.015-0.019-0.02c-0.004-0.008,0.004-0.006,0.01-0.002c-0.063-0.086,0.146,0.234,0.464,0.258
					c0.312,0.06,0.712-0.277,0.833-0.472c0.48-0.589,0.769-1.783,0.831-2.922c0.085-1.153-0.011-2.272-0.144-3
					c-0.604-2.926-1.025-4.274-2.296-6.952c-1.335-2.754-2.747-5.393-4.014-8.062c-1.258-2.661-2.415-5.388-3.052-8.138
					c-0.187-0.792-0.398-1.556-0.586-2.266c-0.21-0.727-0.357-1.335-0.54-2.077c-0.328-0.819-0.665-1.645-0.938-2.402
					c-0.101-0.388-0.405-0.745-0.611-1.117l-0.686-1.105l-1.721-1.558l-1.082-1.008c-0.713-0.677-1.407-1.37-2.06-2.094
					c-0.875-0.927-1.662-1.959-2.45-2.983l-2.375-3.047c-1.627-1.972-3.168-4.054-4.933-5.935c-0.937-1.003-1.834-2.039-2.707-3.097
					l-2.492-3.312c-1.651-2.213-3.307-4.409-5.08-6.555c-3.552-4.151-7.199-8.29-10.588-12.66c-1.972-2.573-3.891-5.17-5.775-7.824
					c-4.954-6.871-9.653-12.552-13.418-19.416c-0.818-1.551-1.573-3.12-2.26-4.716c-0.61-1.636-1.219-3.266-1.828-4.897
					c-0.616-1.62-1.117-3.311-1.759-4.932c-0.65-1.615-1.265-3.276-2.029-4.893c-1.643-3.409-3.379-8.271-7.25-10.451
					c-0.943-0.527-2.255-0.362-3.346-0.013c1.788-0.582-0.571,4.739-0.641,5.111c-0.439,2.164-0.168,4.321-0.208,6.499
					c-0.003,2.102-0.103,4.159-0.084,6.226c0.026,2.063,0.306,4.104,0.942,6.176c2.828,8.647,7.463,16.625,12.84,24.146l1.73,2.394
					l0.87,1.188l0.848,1.086l3.398,4.334c2.258,2.884,4.544,5.818,6.745,8.781c1.319,1.774,2.653,3.617,3.974,5.479
					C173.796,389.587,175.135,391.466,176.567,393.296z"/>
			</g>
		</g>
	</g>
</g>
<g>
	<g>
		<g>
			<path d="M263.95,108.223l-0.012,0.119C263.952,108.29,263.982,108.26,263.95,108.223z"/>
			<path d="M266.976,91.185l0.149,0.058C267.078,91.203,267.024,91.189,266.976,91.185z"/>
			<path d="M253.592,85.443l-0.005-0.104C253.574,85.386,253.579,85.418,253.592,85.443z"/>
			<g>
				<path d="M251.898,92.264c-0.628,3.087-0.813,6.246-0.519,9.458c0.291,3.306,1.071,6.688,0.586,9.914
					c-0.492,3.422-1.203,6.77-1.312,10.262c-0.091,3.521-0.974,6.767-1.797,10.136c-0.408,1.621-0.493,3.306-0.623,4.984
					c-0.171,1.655-0.415,3.293-1.05,4.84c-0.343,0.824-0.775,1.616-1.148,2.425c-0.184,0.396,0.128,2.737,0.413,3.264
					c0.129,0.24,1.346-0.755,1.672-1.041c1.068-0.926,2.542-2.424,3.095-3.259c1.118-1.686,1.626-2.485,2.318-4.343
					c1.315-3.849,2.385-7.638,4.505-11.299c1.726-2.967,1.604-6.439,2.714-9.564c1.165-3.388,2.785-6.704,3.297-10.234
					c0.572-3.751,2.012-7.346,2.527-11.111c0.516-3.709,0.69-7.463,1.271-11.162c0.33-2.16,0.717-4.313,1.163-6.455
					c1.062-5.433,1.438-10.954,2.247-16.417c0.609-4.991,2.701-9.639,2.651-14.796c-0.064-2.746,0.113-6.471-2.711-8.875
					c-0.688-0.583-1.972-0.809-3.115-0.862c1.877,0.1-2.249,2.808-2.446,2.989c-1.201,1.196-1.786,2.546-2.641,3.804
					c-0.833,1.219-1.754,2.339-2.587,3.49c-0.855,1.159-1.584,2.345-1.951,3.673c-0.767,2.784-1.251,5.58-1.622,8.391
					c-0.408,2.817-0.751,5.656-1.125,8.498c-0.325,2.417-0.597,4.839-0.884,7.26c-0.328,2.42-0.671,4.838-1.095,7.246
					C253.226,86.359,252.458,89.298,251.898,92.264z"/>
			</g>
		</g>
	</g>
</g>
<g>
	<g>
		<g>
			<path d="M78.178,328.9l-0.088,0.041C78.133,328.931,78.168,328.944,78.178,328.9z"/>
			<path d="M91.974,324.193l0.027,0.157C92.009,324.292,91.995,324.239,91.974,324.193z"/>
			<path d="M89.629,309.967l0.066-0.049C89.659,309.928,89.64,309.944,89.629,309.967z"/>
			<g>
				<path d="M84.181,311.346c-2.488,0.763-4.952,1.95-7.287,3.662c-1.191,0.868-2.355,1.894-3.526,2.805
					c-1.171,0.964-2.374,1.8-3.676,2.453c-2.762,1.36-5.579,2.586-8.021,4.506c-2.45,1.877-5.146,3.273-7.879,5.052
					c-1.326,0.842-2.404,2.094-3.438,3.327c-0.499,0.656-0.998,1.297-1.529,1.903c-0.489,0.665-1.015,1.29-1.627,1.867
					c-0.623,0.644-1.269,1.305-1.902,1.999c-0.34,0.353-0.462,2.804-0.253,3.297c0.097,0.226,1.481-0.546,1.837-0.723
					c1.136-0.698,2.933-1.396,3.583-1.842c1.501-0.814,2.103-1.159,3.363-2.063c2.55-1.86,5.354-3.359,8.772-3.811
					c2.763-0.341,4.897-2.247,7.499-2.925c1.394-0.397,2.865-0.59,4.268-0.907c1.433-0.269,2.81-0.609,4.147-1.14
					c2.821-1.153,6.045-1.358,9.079-2.541c2.989-1.15,6.056-2.629,9.209-4.04c0.925-0.396,1.85-0.807,2.771-1.248
					c0.923-0.432,1.866-0.825,2.775-1.291c4.69-2.23,8.688-5.484,12.586-8.562c1.613-1.25,3.34-2.171,4.862-2.781
					c1.556-0.714,2.847-1.036,3.968-1.775c0.61-0.299,1.317-0.688,2.053-1.183c0.702-0.633,1.508-1.332,2.247-2.886
					c0.361-0.745,0.534-2.048,0.571-3.193c-0.037,0.94-0.555,0.454-1.183-0.292c-0.618-0.746-1.383-1.744-1.488-1.831
					c-0.608-0.51-1.268-0.771-1.958-1.024c-0.689-0.239-1.414-0.462-2.136-0.608c-0.738-0.184-1.465-0.364-2.185-0.544
					c-0.751-0.18-1.466-0.248-2.227-0.324c-1.548-0.159-2.976,0.016-4.379,0.562c-2.79,1.214-5.13,2.832-7.116,4.393
					c-0.942,0.709-1.793,1.37-2.68,2.079c-0.872,0.714-1.786,1.313-2.683,1.972c-3.092,2.129-6.173,4.118-9.648,5.53
					C88.894,310.08,86.53,310.607,84.181,311.346z"/>
			</g>
		</g>
	</g>
</g>
</svg>
