<?xml version="1.0" encoding="utf-8"?>
<!-- Generator: Adobe Illustrator 16.0.0, SVG Export Plug-In . SVG Version: 6.00 Build 0)  -->
<!DOCTYPE svg PUBLIC "-//W3C//DTD SVG 1.1//EN" "http://www.w3.org/Graphics/SVG/1.1/DTD/svg11.dtd">
<svg version="1.1" id="Layer_1" xmlns="http://www.w3.org/2000/svg" xmlns:xlink="http://www.w3.org/1999/xlink" x="0px" y="0px"
	 width="500px" height="500px" viewBox="0 0 500 500" enable-background="new 0 0 500 500" xml:space="preserve">
<g>
	<g>
		<g>
			<path d="M181.982,130.869l0.09-0.352C182.024,130.672,181.971,130.768,181.982,130.869z"/>
			<path d="M157.479,173.376l-0.033-0.183C157.414,173.294,157.438,173.345,157.479,173.376z"/>
			<path d="M157.215,191.455l-0.274,0.208C157.081,191.575,157.16,191.51,157.215,191.455z"/>
			<g>
				<path d="M175.515,176.134c0.969-0.953,1.739-2.083,2.597-3.135l2.485-3.229c0.428-0.528,0.784-1.106,1.143-1.682
					l1.077-1.725l2.111-3.468c0.359-0.549,0.662-1.233,0.978-1.874l0.927-1.945c0.664-1.315,1.052-2.549,1.546-3.819
					c1.006-2.538,1.648-5.012,2.392-7.507c2.677-10.232,4.016-20.333,6.297-30.425c2.4-10.682,4.623-21.279,5.966-32.137
					c0.333-2.74,0.664-5.458,0.993-8.168c0.179-1.34,0.316-2.755,0.475-4.14c0.165-1.392,0.182-2.743,0.288-4.116
					c0.406-5.488,0.612-10.885,0.818-16.392c0.328-10.623-1.08-21.102-1.226-31.706c-0.009-1.42-0.018-2.836-0.027-4.251
					c0.001-1.417-0.086-2.852-0.139-4.282c-0.016-0.353-0.127-1.052-0.294-1.922c-0.182-0.875-0.351-1.898-0.687-2.966
					c-0.611-2.115-1.282-4.181-1.595-4.828c-0.282-0.575-0.511,3.742-0.572,4.894c-0.302,3.767-0.763,9.529-1,12.494
					c-0.245,5.927-0.53,8.685-0.52,14.724c-0.068,3.119-0.136,6.219-0.204,9.306c-0.155,3.082-0.31,6.151-0.464,9.215
					c-0.224,3.058-0.525,6.102-0.843,9.144c-0.372,3.025-0.872,6.012-1.386,9.002c-1.044,4.625-1.983,9.709-2.877,14.695
					c-0.892,5.017-1.841,10.057-3.087,14.932c-2.761,10.551-6.147,20.891-9.084,31.282c-1.597,5.505-3.538,10.886-5.75,15.91
					l-1.727,3.639l-1.859,3.274l-2.25,3.343l-1.099,1.688c-0.351,0.574-0.809,1.069-1.203,1.612l-2.4,3.163l-0.6,0.792l-0.667,0.737
					l-1.331,1.479c-0.902,0.972-1.731,2.014-2.687,2.94l-2.905,2.75c-0.487,0.456-0.959,0.928-1.459,1.372l-1.569,1.26l-3.141,2.523
					c-1.087,0.795-2.226,1.531-3.339,2.297c-1.128,0.747-2.212,1.555-3.421,2.197l-4.142,2.366
					c-1.399,0.761-2.868,1.417-4.298,2.128l-2.16,1.045l-2.23,0.925c-1.492,0.606-2.97,1.236-4.472,1.817
					c-7.639,2.861-15.539,5.213-23.58,7.224c-8.048,1.995-16.24,3.652-24.553,4.903c-15.157,2.304-29.828,2.722-44.453,2.853
					c-3.883,0.003-8.43-0.155-12.821-0.337c-4.395-0.179-8.689-0.182-12.242,0.419c-1.732,0.322-2.569,1.452-2.874,2.556
					c0.256-0.904,2.259,0.115,4.342,1.421c2.098,1.207,4.299,2.716,4.615,2.843c3.751,1.766,8.133,2.835,12.348,3.884
					c8.154,2.052,15.783,3.846,24.69,3.646c9.316-0.263,18.447-1.352,27.415-2.685c9.038-1.357,18.083-3.099,27.137-5.313
					c3.854-0.885,7.678-2.033,11.501-3.135l5.702-1.867c1.905-0.599,3.771-1.386,5.658-2.072l2.821-1.069l2.786-1.204l2.786-1.205
					l1.392-0.606l1.368-0.678l5.472-2.72l5.349-3.038C160.191,190.182,168.578,183.931,175.515,176.134z"/>
			</g>
		</g>
	</g>
</g>
<g>
	<g>
		<g>
			<path d="M368.451,195.509l0.254,0.185C368.596,195.604,368.538,195.527,368.451,195.509z"/>
			<path d="M339.095,158.584l0.185,0.003C339.188,158.537,339.133,158.551,339.095,158.584z"/>
			<path d="M321.595,155.895l-0.157-0.283C321.5,155.753,321.55,155.836,321.595,155.895z"/>
			<g>
				<path d="M331.766,174.805c5.042,8.075,11.058,15.843,18.449,22.379c3.796,3.358,7.942,6.369,12.313,8.993
					c4.374,2.626,8.948,4.859,13.59,6.883c9.862,4.283,20.002,6.722,30.099,8.163c10.178,1.419,19.878,3.068,29.843,4.93
					c4.795,0.893,9.649,1.483,14.438,2.157c4.793,0.685,9.663,1.563,14.72,2.368c2.701,0.429,5.458,0.806,8.305,0.864
					c0.695,0.037,2.811-0.298,4.857-0.863c1.022-0.297,2.031-0.631,2.847-0.961c0.814-0.345,1.449-0.641,1.749-0.821
					c0.273-0.165-0.645-0.22-1.741-0.242c-1.1-0.016-2.397-0.117-2.948-0.13c-1.834-0.139-4.09-0.394-6.188-0.791
					c-2.101-0.413-4.049-0.867-5.371-1.177c-5.345-1.241-7.731-2.09-13.25-3.368c-11.441-2.663-22.669-4.766-33.8-8.012
					c-8.977-2.625-18.669-3.671-27.291-6.649c-4.651-1.617-9.064-3.597-13.175-5.904c-4.119-2.306-7.932-4.937-11.63-7.82
					c-7.928-6.149-13.817-14.789-19.838-23.407c-2.992-4.252-5.853-8.671-8.628-13.171l-2.065-3.391l-1.807-3.223l-1.645-3.361
					l-1.49-3.484c-2.219-5.497-3.938-11.296-5.257-17.167c-1.627-7.429-2.9-14.951-3.512-22.448c-0.1-1.868-0.285-3.748-0.292-5.602
					c-0.018-0.929-0.058-1.862-0.058-2.787l0.059-2.761c-0.002-0.927,0.084-1.826,0.148-2.731l0.098-1.358l0.117-1.462l0.272-3.134
					l0.206-3.087c0.462-7.415,0.936-14.604,1.215-21.85c0.264-7.235,0.293-14.495-0.408-21.878
					c-0.392-3.911-0.797-8.515-1.748-12.965c-0.434-2.212-1.072-4.406-1.779-6.403c-0.787-2.023-1.62-3.839-2.751-5.375
					c-1.062-1.479-2.427-1.651-3.54-1.385c0.9-0.223,0.907,2.043,0.558,4.349c-0.377,2.316-1.043,4.676-1.115,4.993
					c-0.3,1.9-0.444,3.854-0.61,5.836c-0.13,1.973-0.282,3.971-0.5,5.922c-0.878,7.564-2.527,14.29-2.803,22.18
					c-0.3,8.267-0.557,16.511-1.004,24.613c-0.138,2.004-0.248,4.036-0.441,5.975l-0.262,3.186c-0.075,1.144-0.198,2.3-0.227,3.435
					c-0.189,4.557-0.029,9.042,0.271,13.503c0.577,7.57,1.823,14.987,3.524,22.301c1.727,7.311,3.875,14.519,6.692,21.634
					c0.436,1.063,0.873,2.129,1.312,3.201c0.441,1.072,0.96,2.138,1.438,3.214c0.466,1.077,1.017,2.149,1.572,3.223l0.828,1.615
					c0.277,0.546,0.545,0.995,0.818,1.499C327.097,166.978,329.324,170.932,331.766,174.805z"/>
			</g>
		</g>
	</g>
</g>
<g>
	<g>
		<g>
			<path d="M123.035,322.835l-0.297-0.129C122.868,322.771,122.943,322.835,123.035,322.835z"/>
			<path d="M161.655,349.127l-0.172,0.055C161.579,349.199,161.627,349.169,161.655,349.127z"/>
			<path d="M179.103,347.651l0.214,0.259C179.226,347.777,179.159,347.702,179.103,347.651z"/>
			<g>
				<path d="M163.758,331.613c-3.764-2.967-7.631-5.586-11.537-8.018c-1.954-1.208-3.918-2.377-5.892-3.496
					l-2.967-1.655c-1.014-0.546-1.925-1.068-3.076-1.62l-3.401-1.648c-1.129-0.567-2.274-0.95-3.407-1.428
					c-1.136-0.446-2.264-0.922-3.398-1.339l-3.405-1.19c-2.255-0.838-4.531-1.525-6.784-2.3c-2.245-0.805-4.516-1.489-6.756-2.312
					c-9.513-3.365-19.029-6.348-28.87-8.313c-9.896-1.95-19.426-4.06-29.489-5.538c-2.438-0.312-4.881-0.546-7.341-0.671
					c-2.484-0.041-4.925-0.178-7.444-0.014l-7.258,0.276c-2.368,0.062-4.739,0.065-7.111-0.034c-2.52-0.091-5.074-0.358-7.626-0.539
					c-1.257-0.091-7.586,0.733-8.818,1.128c-0.561,0.181,3.147,1.146,4.176,1.401c3.382,0.825,8.551,1.965,11.227,2.268
					c5.405,0.632,7.996,0.887,13.508,1.085c5.549,0.093,11.091,0.913,16.541,1.87c2.727,0.551,5.442,1.082,8.134,1.823
					c1.346,0.354,2.691,0.704,4.03,1.096c1.335,0.415,2.668,0.843,3.997,1.286c8.57,2.893,17.894,4.628,26.451,7.829
					c9.244,3.474,18.123,7.718,26.828,11.784c1.192,0.506,2.258,1.147,3.384,1.729c1.1,0.604,2.252,1.174,3.252,1.858l3.09,1.987
					l3.276,2.302c4.303,3.035,8.604,6.07,12.915,9.11c4.198,2.924,8.194,5.905,11.731,9.124c3.51,3.234,6.476,6.729,8.711,10.746
					c1.31,2.341,2.416,4.834,3.355,7.455c0.908,2.646,1.685,5.388,2.326,8.218c1.603,7.165,2.774,14.689,3.818,22.295
					c1.042,7.608,1.947,15.309,2.72,23.043c0.67,6.99,1.052,13.963,1.365,20.86c0.146,3.444,0.311,6.886,0.549,10.336l0.193,2.59
					l0.144,2.583c0.107,1.724,0.241,3.451,0.405,5.185c0.855,7.345,0.984,17.287,4.13,23.501c0.759,1.51,2.065,1.98,3.211,1.985
					c-1.879,0.003,1.875-8.247,2.045-8.873c0.519-1.826,0.88-3.749,1.197-5.7c0.151-0.977,0.304-1.958,0.456-2.938
					c0.126-0.981,0.251-1.959,0.376-2.927c0.519-3.752,1.164-7.333,1.674-10.982c0.118-0.914,0.235-1.83,0.354-2.753
					c0.088-0.92,0.149-1.844,0.201-2.78c0.101-1.871,0.134-3.786,0.067-5.771c-0.232-8.357-0.984-16.499-1.751-24.696
					c-0.8-8.189-1.738-16.391-2.837-24.703c-0.954-7.067-2.043-14.169-3.742-21.396c-1.658-7.186-4.012-14.661-7.945-21.731
					c-2.346-4.205-5.266-8.265-8.549-11.826C170.91,337.604,167.36,334.459,163.758,331.613z"/>
			</g>
		</g>
	</g>
</g>
<g>
	<g>
		<g>
			<path d="M339.963,385.207l-0.101,0.294C339.915,385.372,339.971,385.295,339.963,385.207z"/>
			<path d="M362.245,346.933l0.065,0.168C362.321,347.004,362.289,346.958,362.245,346.933z"/>
			<path d="M358.7,330.093l0.2-0.225C358.795,329.965,358.737,330.034,358.7,330.093z"/>
			<g>
				<path d="M344.879,345.223c-5.447,7.401-9.663,15.575-12.718,23.976c-3.164,8.65-5.034,17.607-7.5,26.31
					c-2.497,8.851-5.98,17.313-9.13,26.186c-3.161,8.914-6.963,17.547-9.542,27.12c-1.136,4.643-1.773,9.429-1.803,14.207
					c-0.014,1.194-0.07,2.385-0.058,3.574l0.135,3.563c-0.01,2.38,0.272,4.725,0.334,7.102l0.056,1.902l0.159,1.882
					c0.106,1.26,0.214,2.518,0.32,3.779c0.015,0.155,0.056,0.386,0.118,0.672c0.07,0.296,0.117,0.584,0.311,1.103
					c0.167,0.477,0.362,0.996,0.577,1.526c0.22,0.514,0.492,0.933,0.749,1.404l0.392,0.674c0.13,0.192,0.259,0.383,0.384,0.568
					c0.254,0.365,0.496,0.714,0.717,1.031c0.405,0.563,0.752,1.013,0.957,1.221c0.188,0.188,0.161-0.546,0.058-1.476
					c-0.113-0.961-0.371-2.107-0.444-2.653c-0.071-0.429-0.147-0.887-0.227-1.364c-0.053-0.492-0.072-1.02-0.105-1.529
					c-0.052-1.02,0.092-2.031,0.114-3.037c0.122-2.005,0.102-3.877,0.177-5.153c0.144-2.58,0.144-4.443,0.285-6.316
					c0.084-0.937,0.153-1.873,0.212-2.896c0.068-1.023,0.063-2.137,0.243-3.414c0.142-1.318,0.282-2.633,0.423-3.944
					c0.195-1.302,0.463-2.592,0.689-3.879c0.128-0.642,0.213-1.288,0.376-1.922l0.494-1.898c0.354-1.259,0.605-2.529,1.062-3.762
					l1.268-3.698c0.476-1.22,0.992-2.428,1.499-3.633c0.489-1.207,1.083-2.396,1.665-3.581c0.59-1.186,1.164-2.364,1.828-3.537
					c4.141-7.563,7.28-16.245,10.896-24.532l2.895-6.78l2.665-6.88c1.592-4.346,3.345-8.621,4.991-12.945
					c1.75-4.607,3.986-8.994,6.332-13.277c2.354-4.287,4.98-8.369,7.533-12.484c5.161-7.998,10.951-15.62,18.088-21.735
					c1.031-0.899,2.053-1.814,3.161-2.605c1.097-0.813,2.154-1.665,3.283-2.44c2.327-1.473,4.563-3.075,7.021-4.334
					c6.066-3.397,12.431-6.296,19.057-8.635c1.674-0.544,3.32-1.155,5.015-1.652c1.701-0.476,3.373-1.032,5.101-1.445
					c3.391-0.914,6.999-1.622,10.54-2.371c1.602-0.354,3.218-0.619,4.834-0.852c1.616-0.23,3.229-0.459,4.838-0.688
					c3.227-0.417,6.479-0.675,9.706-1.019c3.267-0.256,6.508-0.556,9.796-0.875c3.304-0.308,6.578-0.701,9.938-1.195
					c7.051-1.033,16.803-2.273,22.409-6.044c1.362-0.909,1.636-2.252,1.486-3.388c0.232,1.864-8.095-1.016-8.669-1.127
					c-3.561-0.676-7.398-0.736-11.094-1.071c-7.17-0.67-13.663-1.947-21.267-1.396c-3.973,0.248-7.953,0.711-11.923,1.204
					c-1.986,0.219-3.965,0.592-5.945,0.897c-1.977,0.341-3.963,0.623-5.928,1.037l-5.896,1.233l-2.952,0.639l-2.995,0.746
					c-3.995,1.001-7.961,2.229-11.906,3.571c-13.391,4.711-26.102,11.702-37.119,21.178
					C356.286,331.676,350.114,338.137,344.879,345.223z"/>
			</g>
		</g>
	</g>
</g>
<g>
	<g>
		<g>
			<path d="M462.284,78.931l-0.133,0.323C462.219,79.112,462.283,79.029,462.284,78.931z"/>
			<path d="M479.387,25.094l0.207-0.029C479.466,25.023,479.412,25.05,479.387,25.094z"/>
			<path d="M461.83,42.639l-0.029,0.037C461.81,42.677,461.819,42.662,461.83,42.639z"/>
			<g>
				<path d="M461.598,43.506c-0.041,0.028-0.021-0.017-0.017,0.046c-0.697,1.83-1.395,3.659-2.092,5.485
					c-0.806,2.153-1.564,4.318-2.329,6.487c-0.775,2.168-1.521,4.344-2.238,6.526c-2.928,9-5.564,18.098-9.313,26.932
					c-3.981,9.364-8.2,18.489-11.768,28.099c-0.447,1.223-0.914,2.361-1.366,3.631c-0.458,1.259-0.915,2.515-1.371,3.769
					c-0.503,1.27-0.807,2.436-1.212,3.644l-1.17,3.588c-1.581,4.778-3.244,9.524-4.931,14.353
					c-1.625,4.664-2.935,9.417-4.285,14.153c-1.335,4.747-2.616,9.527-4.353,14.167c-0.959,2.463-1.843,4.958-2.721,7.468
					c-0.43,1.24-1.349,7.795-1.297,9.117c0.023,0.602,1.961-2.86,2.483-3.817c1.744-3.15,4.114-8,5.276-10.509
					c2.317-5.094,3.38-7.463,5.301-12.81c4.15-11.006,8.062-21.775,13.017-32.4c0.5-1.073,0.976-2.165,1.435-3.263
					c0.495-1.005,0.968-2.019,1.425-3.041l0.675-1.539l0.741-1.622c0.487-1.093,0.977-2.188,1.466-3.284
					c1.911-4.388,3.865-8.846,6.013-13.09c4.68-9.202,9.718-18.24,13.846-27.791c2.202-5.075,4.543-10.099,6.91-15.103
					c1.194-2.494,2.32-5.041,3.449-7.578l1.659-3.824l0.809-1.922l1.419-3.542l0.7-1.766c0.106-0.484,0.159-0.924,0.241-1.388
					l0.448-2.744l0.895-5.464l0.896-5.426l0.443-2.69l-0.197-0.335c-0.105-0.141-0.166-0.253-0.308-0.417
					c-0.239-0.313-0.636-0.672-0.948-0.898c-0.651-0.462-1.244-0.718-1.856-0.942c-0.615-0.215-1.263-0.363-1.964-0.458
					c-1.39-0.195-3.045-0.142-5.013,0.343c-1.939,0.455-4.106,1.261-6.312,2.236c-2.198,0.938-4.438,2.051-6.658,3.148l-3.346,1.714
					l-2.157,1.127l-4.279,2.27l-8.479,4.567c-7.114,3.849-14.061,7.902-20.972,11.959c-6.905,4.044-13.793,8.148-20.688,11.879
					c-1.555,0.837-3.115,1.634-4.633,2.347c-0.754,0.351-1.512,0.694-2.201,0.971c-0.336,0.134-0.688,0.273-0.948,0.355
					c-0.125,0.042-0.33,0.112-0.229,0.065c0.016-0.008,0.033-0.013,0.051-0.015c0.017-0.003-0.005,0.002-0.039,0.01l-0.041,0.009
					c-0.009,0.02-0.042-0.051-0.012,0.123l0.205,1.444l0.204,1.444l0.025,0.181c-0.232-1.426,0.538,3.319-0.518-3.174l-0.017,0.004
					l-0.063,0.015l-0.128,0.03l-0.512,0.122l-1.021,0.258c-0.711,0.166-1.251,0.413-1.884,0.627
					c-0.632,0.217-1.177,0.469-1.723,0.723c-0.551,0.253-1.114,0.509-1.596,0.786c-2.071,1.079-3.79,2.267-5.469,3.466
					c-3.283,2.414-6.146,4.935-8.836,7.459c-2.688,2.521-5.215,5.082-7.639,7.548c-2.555,2.597-5.637,5.492-8.193,7.505
					c-1.273,1.017-2.354,1.759-3.066,2.299c-0.719,0.528-1.173,1.058-2.249,1.35c-0.126,0.039-0.258,0.1-0.391,0.149
					c-0.13,0.032-0.262,0.075-0.395,0.126c-0.266,0.103-0.534,0.24-0.794,0.398c-0.521,0.318-1.003,0.724-1.373,1.162
					c0.311-0.353,0.725-0.201,1.191,0.274c0.234,0.243,0.532,0.45,0.84,0.784c0.311,0.327,0.706,0.557,1.113,0.907
					c1.667,1.206,4.404,1.62,4.709,1.558c2.06-0.015,4.185-0.64,6.139-1.492c1.964-0.856,3.829-1.914,5.65-2.94
					c6.963-4.022,13.077-7.926,18.969-12.697c1.537-1.25,3.057-2.408,4.523-3.398c1.457-0.988,2.895-1.813,4.045-2.254
					c0.264-0.07,0.561-0.217,0.78-0.257c0.108-0.018,0.215-0.041,0.319-0.069l0.156-0.045l0.679-0.166
					c0.063-0.011,0.396-0.107,0.671-0.194l0.806-0.268l1.015-0.388c0.623-0.253,1.197-0.503,1.747-0.751
					c2.168-0.992,4.109-1.992,6.041-3.014c7.646-4.087,14.882-8.4,22.233-12.654l18.613-10.839c3.099-1.783,6.201-3.546,9.312-5.258
					l4.671-2.526l2.339-1.223l0.569-0.294l0.104-0.048l0.179-0.082c0.262-0.094,0.465-0.078,0.481,0.048
					c0.006,0.032,0.003,0.066-0.011,0.119c-0.017,0.063-0.086,0.128-0.124,0.173C461.697,43.437,461.635,43.487,461.598,43.506z"/>
			</g>
		</g>
	</g>
</g>
<g>
	<g>
		<g>
			<path d="M33.231,432.588l0.157-0.295C33.311,432.422,33.24,432.494,33.231,432.588z"/>
			<path d="M23.148,482.062l-0.203,0.14C23.078,482.166,23.129,482.111,23.148,482.062z"/>
			<path d="M34.687,463.728l0.016-0.032C34.691,463.695,34.688,463.709,34.687,463.728z"/>
			<g>
				<path d="M34.513,463.054c0.042-0.029,0.035-0.013,0.003-0.015c-0.016-0.002-0.037-0.007-0.061-0.025
					l-0.018-0.016c0.005-0.029-0.051,0.067,0.063-0.187l0.578-1.331c0.872-1.997,1.749-4.058,2.576-6.253l1.141-3.138l1.018-2.893
					c2.809-7.978,6.213-16.137,10.638-24.082c2.351-4.205,4.71-8.461,6.844-12.878l1.55-3.352c0.518-1.115,1.031-2.231,1.441-3.415
					l1.284-3.505c0.413-1.17,0.862-2.347,1.161-3.511c2.789-9.349,5.553-18.382,7.992-27.858c0.554-2.293,1.026-4.603,1.462-6.914
					l0.938-7.013c0.357-2.324,0.511-4.686,0.765-7.029c0.218-2.351,0.646-4.667,0.845-7.036c0.278-2.52,0.688-5.02,0.963-7.556
					c0.068-1.269-0.893-7.572-1.314-8.752c-0.191-0.536-1.076,3.162-1.31,4.164c-0.182,0.826-0.388,1.762-0.603,2.741
					c-0.218,0.974-0.372,1.986-0.671,2.97c-0.531,1.968-0.995,3.831-1.24,5.099c-0.26,1.283-0.431,2.394-0.678,3.412
					c-0.254,1.018-0.479,1.952-0.69,2.89c-0.438,1.874-0.752,3.773-1.259,6.372c-2.141,10.729-5.086,21.05-9.508,30.958
					c-0.886,2.004-1.679,4.06-2.514,6.12c-0.822,2.051-1.527,4.208-2.327,6.242c-0.832,2-1.619,4.018-2.473,6.005
					c-0.971,1.96-1.963,3.901-3.007,5.787c-4.753,8.126-10.676,15.743-15.482,24.552c-1.266,2.35-2.531,4.741-3.844,7.085
					l-3.658,7.32c-0.997,2.103-2.181,4.331-3.362,6.628l-0.953,1.876l-1.515,3.139c-1.039,2.209-1.999,4.449-2.704,6.604
					c-0.704,2.125-1.124,4.145-1.165,5.886c-0.057,1.762,0.193,3.25,0.706,4.623c0.264,0.686,0.588,1.358,1.056,2.031
					c0.463,0.673,1.125,1.372,1.842,1.885c1.446,1.008,2.82,1.421,4.348,1.621c1.517,0.195,3.208,0.106,5.094-0.334
					c1.882-0.45,3.898-1.154,5.959-2.133c1.022-0.451,2.058-1.006,3.083-1.519l1.538-0.837c0.524-0.28,1.021-0.557,1.475-0.825
					l1.408-0.813l0.997-0.591l1.713-1.038c5.273-3.198,10.442-6.766,15.208-9.664c6.199-3.725,12.548-7.084,19.208-10.246
					c3.324-1.591,6.712-3.135,10.146-4.691l5.165-2.335l2.595-1.166c0.881-0.399,1.608-0.676,2.419-1.02
					c5.737-2.375,11.865-3.641,18.119-4.41c6.261-0.786,12.648-1.162,19.267-1.768c6.994-0.654,16.737-0.868,22.823-3.987
					c1.471-0.759,1.899-2.065,1.878-3.21c0.023,1.883-8.032-1.877-8.61-2.054c-3.527-1.039-7.408-1.458-11.159-2.074
					c-7.245-1.209-13.95-2.756-21.936-2.088c-2.084,0.143-4.177,0.457-6.266,0.722c-2.089,0.373-4.182,0.675-6.264,1.188
					c-4.173,0.888-8.31,2.2-12.367,3.768l-3.023,1.256c-0.982,0.418-1.821,0.808-2.738,1.214l-5.408,2.432
					c-3.621,1.63-7.289,3.28-10.985,5.027c-6.277,2.949-12.601,6.239-18.611,10.013c-1.536,0.892-2.982,1.91-4.47,2.869
					l-2.218,1.457l-2.086,1.404c-2.746,1.849-5.514,3.632-8.292,5.295l-1.249,0.735l-0.627,0.362l-0.136,0.078l-0.037,0.019
					l-0.074,0.036c-0.259,0.133-0.248,0.104-0.31,0.114c-0.102,0.008-0.177-0.013-0.216-0.058c-0.039-0.044-0.044-0.11-0.018-0.191
					C34.394,463.155,34.477,463.078,34.513,463.054z"/>
			</g>
		</g>
	</g>
</g>
<g>
	<g>
		<g>
			<path d="M457.008,440.659l-0.137-0.278C456.925,440.509,456.939,440.603,457.008,440.659z"/>
			<path d="M465.503,463.146l-0.103-0.204C465.427,463.009,465.465,463.08,465.503,463.146z"/>
			<path d="M458.456,475.585l-0.275-0.088C458.308,475.553,458.391,475.576,458.456,475.585z"/>
			<g>
				<path d="M485.619,476.016c0.727-1.241,1.062-2.285,1.262-3.445c0.185-1.151,0.188-2.405-0.09-3.848
					c-0.476-2.857-2.544-6.529-4.95-10.029c-1.827-2.615-3.652-5.229-5.474-7.837c-0.49-0.71-0.922-1.389-1.195-1.842l-0.093-0.149
					l-0.044-0.069l-0.083-0.174l-0.355-0.767l-0.718-1.525c-3.958-8.384-8.979-15.886-13.394-23.76
					c-1.154-2.101-2.373-4.14-3.546-6.211c-1.208-2.04-2.418-4.076-3.65-6.092l-1.874-2.999c-0.616-0.998-1.264-1.993-1.964-2.98
					c-1.368-1.979-2.759-3.941-4.182-5.881c-5.927-7.575-11.411-15.014-17.141-22.538c-2.756-3.651-5.725-7.055-8.675-10.508
					c-1.441-1.734-2.876-3.478-4.265-5.256c-0.692-0.891-1.38-1.786-2.041-2.699c-0.636-0.926-1.256-1.862-1.854-2.814
					c-1.259-2.043-2.506-4.089-3.666-6.164c-0.552-1.02-4.445-5.497-5.418-6.269c-0.443-0.353,0.624,3.061,0.94,4.017
					c0.519,1.555,1.199,3.528,1.931,5.388c0.787,1.821,1.581,3.549,2.18,4.685c2.396,4.63,3.665,6.684,6.655,11.054
					c6.244,8.952,12.657,17.438,17.977,26.758c1.074,1.883,2.179,3.746,3.382,5.566c1.197,1.823,2.471,3.616,3.604,5.456
					c1.178,1.824,2.356,3.651,3.53,5.472c1.119,1.905,2.224,3.817,3.227,5.753c4.341,8.4,7.992,16.985,11.807,25.367
					c0.544,1.107,0.958,2.251,1.426,3.38c0.442,1.136,0.925,2.263,1.31,3.413l1.144,3.45l0.637,1.931
					c0.324,0.922,0.667,1.708,1.012,2.447c0.689,1.461,1.398,2.728,2.097,3.928l0.25,0.424l0.063,0.106
					c0.01,0.018,0.006,0.014,0.009,0.021l0.011,0.03l0.041,0.116l0.08,0.214c0.106,0.271,0.213,0.476,0.399,0.742
					c0.091,0.132,0.189,0.275,0.267,0.44c0.086,0.154,0.109,0.391-0.028,0.469c-0.239,0.145-0.523,0.115-0.841,0.089
					c-0.318-0.037-0.68-0.116-1.067-0.229l-0.455-0.154l-1.695-0.671l-3.43-1.489c-5.331-2.34-10.64-4.733-15.919-7.178
					c-6.631-3.042-13.496-6.14-20.306-9.133l-10.231-4.506l-5.017-2.204c-1.639-0.702-3.313-1.498-4.966-2.255
					c-6.018-2.806-11.986-6.072-18.498-8.822c-1.647-0.667-3.259-1.38-4.99-1.943l-2.57-0.878l-1.018-0.354
					c-0.287-0.104-0.55-0.181-0.89-0.322c-2.575-0.989-5.474-2.275-8.334-3.538c-3.049-1.348-6.569-3.143-9.938-4.755
					c-3.37-1.621-6.525-3.038-9.105-3.631c-1.154-0.244-2.437,0.196-3.412,0.813c0.396-0.251,0.739,0,1.035,0.56
					c0.126,0.287,0.352,0.635,0.547,1.043c0.205,0.403,0.389,0.88,0.645,1.334c0.239,0.479,0.48,0.963,0.711,1.424
					c0.249,0.464,0.486,0.904,0.695,1.293c0.419,0.796,0.747,1.38,0.841,1.493c2.192,2.953,5.293,5.4,8.188,7.85
					c2.816,2.375,5.512,4.664,8.493,6.764c1.502,1.049,3.044,2.052,4.853,2.965c0.424,0.233,0.941,0.452,1.441,0.67l0.762,0.322
					l0.587,0.262c0.767,0.339,1.548,0.66,2.352,0.964c6.73,2.593,13.446,5.976,20.526,9.277c1.781,0.829,3.572,1.666,5.398,2.48
					l5.46,2.408c3.542,1.576,7.089,3.154,10.645,4.737l9.07,4.022l4.54,1.999l4.634,1.998c6.178,2.666,12.349,5.344,18.492,8.097
					c0.917,0.415,1.837,0.832,2.762,1.25c0.456,0.213,0.925,0.422,1.415,0.624c0.535,0.223,0.783,0.342,1.83,0.753
					c1.707,0.69,3.58,1.407,5.434,2.057c1.849,0.638,3.719,1.247,5.509,1.672c1.822,0.483,3.514,0.717,5.102,0.826
					c1.563,0.075,2.933-0.075,4.145-0.378c1.207-0.315,2.247-0.766,3.229-1.427c0.5-0.321,0.971-0.729,1.471-1.222
					C484.773,477.24,485.263,476.604,485.619,476.016z"/>
			</g>
		</g>
	</g>
</g>
<g>
	<g>
		<g>
			<path d="M48.216,75.21l0.142,0.28C48.302,75.36,48.285,75.266,48.216,75.21z"/>
			<path d="M35.848,40.742l0.126,0.135C35.936,40.826,35.892,40.78,35.848,40.742z"/>
			<path d="M40.802,26.836l0.375,0.078C41.001,26.862,40.888,26.842,40.802,26.836z"/>
			<g>
				<path d="M21.266,45.512c0.407,2.576,1.02,4.901,1.725,7.118c0.707,2.217,1.51,4.327,2.375,6.374
					c1.734,4.088,3.714,7.926,5.833,11.615c2.184,3.797,4.514,7.443,6.741,11.098c1.111,1.826,2.202,3.657,3.208,5.496
					c0.506,0.92,0.984,1.839,1.429,2.754c0.45,0.903,0.804,1.866,1.19,2.811c1.604,4.012,2.913,8.376,4.279,12.664
					c1.345,4.322,2.711,8.672,4.244,13.009c0.781,2.184,1.532,4.368,2.243,6.549c0.778,2.195,1.444,4.373,2.236,6.588l1.193,3.332
					c0.361,1.049,0.722,2.1,1.083,3.152c0.352,1.041,0.704,2.083,1.058,3.128c0.339,1.06,0.638,2.17,0.96,3.259
					c0.305,1.055,0.629,2.103,0.968,3.146l1.078,3.19l1.13,3.174c0.411,1.061,0.868,2.126,1.298,3.186l1.294,3.183
					c0.479,1.074,1.041,2.167,1.544,3.25c0.555,1.065,1.176,2.095,1.742,3.156l1.883,3.041c1.377,2.102,2.761,4.176,4.182,6.092
					c0.356,0.48,1.646,1.696,2.945,2.838c1.307,1.152,2.587,2.278,3.107,2.587c0.461,0.291-0.893-2.922-1.329-3.812
					c-1.37-2.905-3.759-7.247-4.877-9.42c-1.197-2.182-1.93-3.814-2.603-5.465c-0.378-0.804-0.663-1.65-0.99-2.565
					c-0.17-0.453-0.348-0.925-0.537-1.427c-0.16-0.532-0.33-1.095-0.511-1.699c-0.767-2.486-1.553-4.928-2.169-7.481
					c-0.653-2.507-1.304-5.05-1.935-7.622c-0.574-2.556-1.38-5.148-2.048-7.764c-0.356-1.349-0.65-2.521-0.95-3.764
					c-0.301-1.225-0.585-2.452-0.804-3.746c-1.531-8.22-4.515-16.612-6.538-25.062c-0.55-2.292-1.069-4.59-1.685-6.922
					c-0.305-1.166-0.567-2.317-0.911-3.5l-1.094-3.573c-0.747-2.417-1.685-4.676-2.589-6.863c-0.923-2.191-1.889-4.327-2.901-6.43
					c-2.154-4.471-4.065-8.984-5.808-13.483c-1.733-4.49-3.333-8.988-4.636-13.24c-0.327-1.049-0.597-2.071-0.838-3.065
					c-0.118-0.496-0.222-0.98-0.309-1.45c-0.054-0.244-0.077-0.454-0.116-0.679l-0.054-0.324l-0.014-0.057
					c-0.072-0.301-0.135-0.692,0.052-1.022c0.2-0.33,0.621-0.401,1.003-0.366c0.05,0.001,0.099,0.01,0.148,0.016l0.075,0.011
					l0.045,0.008l0.138,0.038c0.369,0.101,0.715,0.169,1.225,0.343c0.932,0.281,1.92,0.664,2.91,1.079
					c2.318,0.975,4.692,2.197,7.039,3.53l7.471,4.35c6.558,3.698,13.371,6.902,20.334,9.631c6.971,2.712,14.052,5.044,21.174,7.177
					c12.873,3.743,25.381,7.892,38.754,9.382c7.057,0.813,16.612,1.882,22.773-0.561c1.496-0.58,2.056-1.827,2.17-2.966
					c-0.2,1.86-7.435-2.787-7.942-3.06c-1.603-0.747-3.304-1.347-5.029-1.907c-1.723-0.571-3.465-1.131-5.155-1.737
					c-6.541-2.4-12.186-5.247-19.073-7.066c-14.448-3.751-28.651-7.47-42.337-12.901c-5.797-2.33-11.474-4.896-17.005-7.729
					c-1.38-0.712-2.723-1.487-4.086-2.229l-2.037-1.125l-2.22-1.264c-3.006-1.683-6.093-3.308-9.506-4.76
					c-1.01-0.439-2.081-0.853-3.185-1.254c-1.123-0.385-2.233-0.781-3.927-1.148c-0.938-0.178-1.877-0.417-2.824-0.479
					c-0.472-0.043-0.948-0.117-1.419-0.137l-1.408,0.005c-1.868,0.058-3.688,0.424-5.356,1.144
					c-3.373,1.431-5.956,4.426-7.079,7.979c-0.587,1.781-0.842,3.73-0.832,5.709c-0.023,0.988,0.034,1.988,0.133,2.983
					C21.096,44.254,21.16,44.901,21.266,45.512z"/>
			</g>
		</g>
	</g>
</g>
</svg>
