<?xml version="1.0" encoding="utf-8"?>
<!-- Generator: Adobe Illustrator 21.1.0, SVG Export Plug-In . SVG Version: 6.00 Build 0)  -->
<svg version="1.1" id="Layer_1" xmlns="http://www.w3.org/2000/svg" xmlns:xlink="http://www.w3.org/1999/xlink" x="0px" y="0px"
	 viewBox="0 0 500 500" style="enable-background:new 0 0 500 500;" xml:space="preserve">
<style type="text/css">
	.st0{fill:#FFFFFF;}
</style>
<g>
	<g>
		<path class="st0" d="M403.2,242.8c2.1,0.4,4.2,0.7,6.5,1.1c-1.6-2.5-3.4-4.7-5.6-6.7c-0.2,0.9-0.3,1.5-0.5,2.5
			c-1-1.8-1.7-3.2-2.6-5c1.1,0.5,1.6,0.8,2.3,1.2c-0.2-3.6-1.6-7.3-3.6-9.6c-2.2-2.7-5.1-3.9-8.4-3.5c-2.2,0.3-4.4,1.1-6.6,1.8
			c-0.8,0.2-1.5,0.6-2.2,0.9c-0.7-4.2,1.5-7.4,5.5-7.7c5-0.4,9.8,0.6,12.9,5.2c0,0.1,0.3,0,0.4,0c0.4-2.3-0.5-4-2.2-5.4
			c-1.3-1-2.7-1.8-4.2-2.4c-4.6-1.8-9.4-2.3-14.4-1.7c-1,0.1-2.1,0.2-3.1,0.4c0.3-2.7,1.9-4.7,4.6-5.9c2.1-1,4.4-1.3,6.7-1.1
			c3,0.3,5.9,0.7,9.1,1.1c-3-3-6.5-4.6-10.6-5c-5.5-0.6-10.4,1.1-15.1,3.7c-0.7,0.4-1.5,0.8-2.6,1.5c0.2-0.9,0.2-1.3,0.3-1.6
			c1.4-3.5,3.8-6.1,7.3-7.5s7.3-1.8,11-1.3c2.4,0.3,4.8,0.7,7.4,1.1c-1.2-2.3-3.3-3.2-5.5-3.8c-3-0.8-6.1-0.7-9.2-0.3
			c-5.2,0.6-10.2,2.2-15.1,3.8c-1.3,0.4-2.6,0.8-4,1c-3.8,0.5-5.6-1.1-5.4-4.9c0-0.8,0.1-1.6,0.2-2.7c-3.5,2.4-5.3,5.2-5.5,8
			c1.2,1.7,2.6,2.9,3,4.4c0.7,2.5,2.2,3.7,4.5,4.3c0.9,0.3,1.9,0.4,2.8,0.8c1.6,0.7,1.9,1.4,1.1,3c-0.1,0.3-0.3,0.5-0.5,1.1
			c1,0.6,1.9,1.3,2.9,1.8s2.1,0.9,3.1,1.4c1.6,0.9,1.7,1.9,0.7,3.4c-0.5,0.6-1,1.2-1.7,2.1c1.4,0.2,2.4,0.4,3.4,0.5
			c4.1,0.2,6,1.7,7,5.8c0.4,1.8,0.7,3.6,1.1,5.7c1-1.3,1.8-2.4,2.7-3.4c0.9-1,1.8-2.1,3.6-1.9c-1,4.8-1.5,9.5,0.9,14.1
			c4.8-5.1,4.8-5.1,7.4-4.8c-1.7,2.8-2.2,5.8-1.5,9.6c0.7-2.3,1.1-4.2,3.3-5c-0.3,3.2-0.6,6.1-1,9.1c0,0.3-0.1,0.7-0.2,0.9
			c-0.9,1.2-0.9,1.1-0.8,1.7c0.3,5.4,0.6,10.7,0.9,16.1c0,0.2,0.1,0.5,0.2,0.7c1.8-6.4,2.9-12.9,2.9-19.5c0-3.4,1.7-5,5.1-4.6
			c3.3,0.4,6.3,1.5,9,3.5c3.4,2.6,4.3,5.6,3,9.7c-1.5,4.6-3.5,8.9-6,13c-11.7,19.3-17,40.3-16,62.9c0.1,1.1,0.3,2.3,0.4,3.4
			c0.4-0.4,0.4-0.8,0.5-1.2c1.3-10.3,3.1-20.6,5.9-30.6c2.4-8.7,5.5-17.2,10.2-25c1.8-3,4-5.7,6.6-8.1c1.7-1.5,3.2-3.2,4.5-5.1
			c2.2-3.2,2-6.1-1.3-8.5c-0.1-0.1-0.1-0.3-0.2-0.4c2.4-6.3-0.2-12.2-6.8-15.2c0.6,1.2,1.1,2.2,1.8,3.7c-2-0.7-3.6-1.4-5.2-1.9
			c-2.2-0.6-3.9-1.6-4.2-4.1C403.8,243.4,403.5,243.1,403.2,242.8L403.2,242.8z M380.5,273c0,1,0,1.4,0,1.8
			c0.6,4.6,0.4,9.3-0.7,13.8c-1,4.6-2.9,9-5.1,13.2c-3.6,6.7-7.2,13.3-10.9,19.9c-4.3,7.5-8.8,14.8-13.2,22.3
			c-2.1,3.5-3.5,7.3-3.7,11.5c-0.3,4.8,2.1,7.9,6.8,8.9c2.5,0.6,4.9,0.4,7.4-0.4c4-1.3,8.1-1.4,11.8,0.9c2.4,1.5,4.9,2.2,7.6,1.5
			c3-0.8,5.6-0.2,8.2,1.1c2.3,1.2,4.6,2.5,6.9,3.7c4,2.1,8.2,3,12.7,2.4c3-0.4,5.5-1.8,7.5-4.9c-4.8,1.4-9.1,2.5-13.4,1.2
			c-4.2-1.3-8.8-1.9-11.9-5.8c2.1-2,4.1-4.2,4.9-7.1c0.8-3,0.5-5.8-1.3-8.8c-0.8,4.2-3.5,6.1-6.8,7.2c-3.8,1.3-7.8,1.6-11.8,1.6
			c-2.2,0-4-0.9-5.2-2.6c-1-1.4-1.8-3.1-2.3-4.8c-1.1-4.4-0.3-8.7,0.7-13c1.9-7.7,5.2-14.9,8.9-21.8c2.7-5.1,5-10.4,6.7-15.9
			c2.6-8.4,3.8-17,2.2-25.7c-1.5-8.1-5.4-14.9-11.8-20.2c-0.6-0.5-1.2-1.2-2.3-1.2c2,3.7,3.8,7.1,5,11.2c-0.5-0.2-0.7-0.3-0.8-0.4
			c-3.7-3.7-7.4-7.3-11-11.1c-0.9-0.9-1.7-2.1-1.9-3.3c-0.4-1.9-0.4-3.9-0.4-5.8c0-1.4,0.4-2.7,0.6-4.2c-3.5,1.3-4.8,4.1-5.7,7.4
			c-2-1.9-2.8-4.1-2.4-6.5c0.4-2.3,1.3-4.5,1.9-6.8c-2.3,0.4-4,1.6-5.2,3.6s-1,4.3-1,6.7c-3.2-2.1-4-4.9-3.8-8.2
			c0.3-4.1,1.9-7.9,3.9-11.5c0.4-0.8,0.8-1.5,1.2-2.3c-5.4,1.3-9,4.4-10.4,10c-1.6-1.2-2.2-2.6-2.3-4.2c0-2.1,0-4.2,0.4-6.3
			c0.5-2.8,1.4-5.5,2.2-8.5c-4,2.3-6.2,5.6-7,10.2c-1.3-2.6-1.8-5-1.9-7.5c-0.2-5.3,1.4-10.3,3.7-15c0.3-0.6,0.5-1.2,0.8-1.8
			c-4.7,3.2-8.5,7-9.6,12.8c-0.4-1.1-0.7-2.1-0.7-3.1c-0.2-2.7,0.6-5.1,1.7-7.5c1.9-4.1,4.6-7.7,7.5-11.1c0.5-0.6,1-1.2,1.5-1.8
			c-0.1-0.1-0.3-0.2-0.4-0.4c-5.5,3.2-10.6,6.7-13.2,13.5c-1.4-4.7,0.3-8.3,1.9-11.9c-2.5-0.9-4.2,0.7-6.1,1.8
			c-0.5-2.3,0.6-3.9,1.9-5.2c2.7-2.6,5.6-4.9,8.4-7.3c0.3-0.3,0.7-0.4,1-0.7c0.2-0.2,0.5-0.4,0.7-0.7c-5.7,1.8-11,4.1-15.2,8.5
			c-2.1-1.9-1.8-4.2-1.3-6.2c0.9-3.1,2.3-6.1,3.4-9.1c0.2-0.6,0.5-1.1,1-2.2c-5.5,2.8-10.1,5.8-13.4,11c-1.3-2.7-0.3-4.8,0.7-6.8
			c1-1.9,2.3-3.8,3.7-6.1c-3.3,1.7-5.8,3.4-7.8,5.8c-1.7,2-1.9,4.4-1.6,6.9c0.1,0.5,0.4,1.3,0.8,1.4c1.2,0.4,1.6,1.4,2.3,2.3
			c0.6,0.7,1.5,1.1,2.4,1.5c0.6,0.3,1.4,0.3,2.1,0.5c1,3.3,3.1,5.6,6,7.1c1.1,0.6,1.4,1.4,1.6,2.5c0.6,2.8,1.2,5.6,2,8.3
			c0.7,2.5,1.8,4.9,4.6,5.7c0.6,3.2,1.6,5.9,4.7,6.8c1.2,4,2.3,8,3.6,11.8c0.5,1.5,1.2,3.2,2.2,4.3c1.2,1.2,1.8,2.6,2.5,4
			c0.9,1.8,1.8,3.5,4,4c0.5,0.1,0.9,0.8,1.3,1.3c1.3,1.7,2.5,3.4,3.9,5c1.6,1.7,3.5,3,6.1,2.1c0.5,0.8,0.9,1.5,1.4,2.1
			c1.4,1.9,2.8,3.9,5.7,3.4c0.3,0,0.6,0.2,0.9,0.3c1.8,1.2,3.8,2.2,5.5,3.6c4.5,4,8.4,8.6,12,13.4c0.4,0.6,0.9,1.1,1.4,1.7
			c0.1-0.1,0.2-0.2,0.4-0.3c-0.4-1.9-0.9-3.8-1.4-6.1c3.2,3.9,4.9,8.4,4.1,11C382,275,381.4,274.2,380.5,273z M325.4,117.9
			c-1.1-0.7-1.9-1.2-2.9-1.7c-4.1-2.1-8.6-3.5-13.1-4.4c-9.7-2-19.5-2-29.4-1.2c-1,0.1-2,0.2-3.5,0.3c1.4-1.7,2.7-2.4,4.1-3
			c6.3-2.8,13-4.7,19.8-5.8c10.2-1.7,20.2-4.2,29.6-8.8c6.3-3.1,12-6.9,16.2-12.6c0.4-0.5,0.9-1,1.3-1.4c4.8-4.8,10.4-8.3,16.7-10.8
			c11.1-4.4,22.6-5.7,34.5-5.3c0.2,0,0.3,0.1,1,0.5c-1.6,0.2-2.5,0.2-3.5,0.3c-5,0.7-10,1.2-15,2.1c-5.9,1.1-11.7,2.9-17,5.9
			c-2.8,1.5-5.2,3.5-7.1,6.2c-3.3,4.9-6.8,9.8-10.2,14.6c-0.3,0.4-0.5,0.8-0.7,1.2c1-0.3,1.8-0.8,2.5-1.4c2.9-3.2,6.1-6.2,8.6-9.6
			c3.9-5.3,8.9-8.9,14.9-11.5c8.2-3.6,16.9-5.3,25.8-5.8c6.1-0.3,12.2,0,18.3,0.1c7.1,0,14.2-0.2,21.1-1.6c3.8-0.8,7.6-1.8,11-3.9
			c1.9-1.2,3.6-2.6,4.5-4.8c-0.6,0.2-1.1,0.6-1.6,1c-2.6,2.2-5.6,3.6-8.9,4.3c-4,0.9-8.1,1.1-12.1,0.6c-5.9-0.7-11.8-1.5-17.6-2.4
			c-7.7-1.1-15.5-1.9-23.3-1.4c-7.2,0.4-14.2,1.7-21,4.1c-7.3,2.6-13.4,7.3-19.1,12.5c-3.9,3.5-7.6,7.1-11.4,10.7
			c-3.2,3.1-6.9,5.3-11.2,6.8c-9.4,3.3-18.9,6-28.6,8.2c-8.4,1.9-16.6,4.1-24,8.4c-2.9,1.7-5.7,3.4-8.7,5c-1,0.6-2.2,1.1-3.3,1.3
			c-8,1.5-15.3,4.4-22,9c-0.5,0.4-1,0.9-1.5,1.3c3.7,0.8,7,1.6,10.3,2.2c0.6,0.1,1.4-0.2,1.9-0.6c5.4-4.1,11.4-6.8,17.9-8.5
			c12.8-3.4,25.9-3.5,39-2.1C313.5,116.1,319.3,117.1,325.4,117.9z M127.9,118.5c1.8-1.6,3.1-2.8,4.5-3.9c1.2-0.9,1.7-2.1,1.9-3.5
			c0.8-6.2,0.9-12.3,0.4-18.5c-0.5-5.9-1.7-11.6-4.3-16.9c-4-8.3-10.3-13.7-19.3-15.7c-7.6-1.7-15.2-1.3-22.7,0.9
			c-10.1,2.9-18.5,8.6-26,15.8c-7.4,7-13.3,15.2-18.8,23.6c-3.7,5.7-6.2,11.8-7.1,18.5c-1.7,12.4,3,22.7,14.7,28.2
			c2.9,1.4,6.1,2.3,9.2,3.3c4.1,1.3,8,2.8,11.4,5.5c5,3.8,7.9,8.8,8,15.2c0,2.7-0.5,5.3-0.8,8c0,0.5-0.1,0.9-0.2,1.4
			c0.2,0,0.3,0.1,0.5,0.1c0.7-1.9,1.6-3.7,2.2-5.6c2-7.1,0.5-13.4-4.9-18.5c-2-1.9-4.3-3.5-6.7-4.9c-3.7-2.2-7.8-3.7-11.9-4.9
			c-8.1-2.4-13-7.8-14.8-15.9c-1-4.3-1-8.7-0.4-13.1c0.6-4.8,1.5-9.5,4-13.8c8.9-15.5,21-27.7,37.1-35.7c6.7-3.3,13.8-5.2,21.4-5.1
			c7.1,0.1,12.7,3.1,16.7,8.9c2,2.9,3.4,6.1,4.3,9.5c2.4,8.1,2.9,16.5,2.6,24.9C128.5,110.2,128.1,114.1,127.9,118.5z M404.7,109.8
			c-1.9-0.8-3.6-1.6-5.4-2.3c-15.5-5.9-30.9-5.9-45.8,2c-9.7,5.1-17.5,12.4-23.6,21.5c-2.3,3.5-5.3,6.1-8.9,8.1
			c-4.4,2.4-9.1,3.9-14,4.9c-10.7,2.2-21.5,2.6-32.3,2.1c-1.4-0.1-2.8,0-4.6,0c2.2,3.3,4.1,6.2,6.1,9.1c8.6-0.7,16.8-1.8,25-3.7
			c6.6-1.5,13-3.5,19.1-6.5c4.8-2.4,9-5.5,12.2-9.9c1.6-2.2,3.4-4.3,5.3-6.4c4.8-5.6,10-10.7,16.3-14.6c5.6-3.5,11.7-5.6,18.4-6.1
			c-0.2,0.2-0.3,0.3-0.4,0.4c-0.2,0.1-0.4,0.3-0.6,0.3c-8.7,2.6-15.7,7.8-21.5,14.6c-3.9,4.6-7.5,9.4-11.1,14.2
			c-3.1,4.1-6.6,7.6-10.7,10.7c-7.1,5.3-14.8,9.8-23,13.2c-3.7,1.5-7.4,2.8-11.4,3.3c-0.6,0.1-1.2,0.2-1.8,0.3c0,0.2,0,0.4,0,0.5
			c1.6,0,3.2,0.4,4.8,0.1c3.3-0.6,6.6-1.2,9.6-2.5c14.1-6,26.9-13.8,36.6-26c0.8-1,1.6-1.9,2.3-2.8c4.1-4.9,8.3-9.6,13.1-13.7
			c9.3-7.8,20-12,32.2-11.8C395.3,109,399.8,109.5,404.7,109.8z M294.1,50.7c-6.2-0.5-11.8-1-17.4-1.4c-10.3-0.6-20.7-0.7-31,0
			c-10.7,0.7-21.2,2-31.5,5c-4.8,1.4-9.6,3-13.8,6.1c-4.9,3.6-9.1,7.9-12.3,13.1c-3.1,4.9-5.9,10.1-8.9,15.1
			c-3.1,5.3-6,10.6-9.3,15.8c-3.4,5.3-7.6,9.9-12.5,13.9c-3.5,2.8-6.8,5.9-9.9,9.1c-7.6,7.8-13.9,16.6-17.8,26.9
			c-1.2,3.1-2.2,6.4-2.4,9.8c0.4-0.6,0.8-1.2,1.1-1.9c1.5-2.8,2.8-5.7,4.4-8.4c8-13.9,18.3-25.9,30.3-36.4
			c4.2-3.7,7.9-7.8,10.9-12.4c2.2-3.4,4.2-6.9,6.3-10.4c2.5-4.2,4.8-8.5,7.4-12.6c4.3-6.7,9.9-12.1,16.6-16.3
			c1.2-0.7,2.4-1.4,3.7-1.8c24.4-7.6,49.4-10.6,74.9-8.5c2.3,0.2,4.7,0.4,7.1,0.7C291.2,54.2,292.4,52.7,294.1,50.7z M159.8,107.4
			c-0.5,0.1-1.1,0.2-1.6,0.4c-5.9,1.9-11.1,5-16,8.6c-8.3,6.2-14.4,14.2-19,23.5c-5.4,10.9-10,22.2-14.2,33.7
			c-1,2.7-1.8,5.3-3.9,7.5c-1.7,1.8-1.3,3.3,0.8,4.8c-4.2,1.1-6,5.9-3.4,9.2c0.6-0.4,1.1-0.8,2-1.5c-0.3,1.2-0.4,1.9-0.6,2.8
			c-0.6-0.2-1.2-0.4-1.6-0.5c-1.9,1.7-2.5,3.9-3.1,6.1c-2.3,9.4-2.5,19-1.3,28.6c0.6,4.2,1.6,8.3,3.5,12.1c2.4,4.8,6.3,6.8,11.5,6.3
			c1.3-0.1,2.6-0.5,3.8-0.9c5.6-2.2,9.6-6.2,13.3-11.2c-3.2,0.8-5.9,1.8-8.9,1.1c-3.1-0.7-5.2-2.5-6.5-5.8c3.2,1.7,5.8,1.1,8.3-0.6
			c-1.6-3-3.1-5.8-4.7-8.7c-1.3,2.4,0.8,4.3,1.2,6.6c-1.6,0.1-2.9-0.6-3.9-1.4c-1.1-0.9-2-1.9-3.2-3c-0.4,2.1-0.1,3.7,0.9,5.1
			c0.5,0.7,0.7,1.4,0.5,2.2c-0.5,2.6,0.6,4.7,2.7,6.1c1.3,0.9,2.7,1.4,4.1,2.2c0.4,0.2,0.9,0.5,1.3,0.7c-1.8,0.7-3.6,1.1-5.4,1.2
			c-3.7,0.2-6.6-1.2-8.4-4.7c-5.1-10.1-7.7-20.7-6-32.1c1-7.3,4.7-12.9,11.5-16.2c0.2-0.1,0.3-0.2,0.7-0.6c-0.8-0.1-1.2-0.2-1.7-0.2
			c-3.1,0.3-5.3,2.5-8.2,4.3c1.2-6.5,6.9-7.8,10.8-10.9c-3.1,0.9-6.1,1.8-9.4,2.8c0.3-2.9,2.4-4.4,4.4-5.7c2.1-1.3,4.3-2.4,6.7-3.8
			c-1.2,0-1.9,0-2.8,0c0-0.3-0.2-0.6-0.1-0.8c0.2-1,0.4-2.1,0.7-3.1c3.9-12.9,9.2-25.2,15.6-37c1.5-2.8,3.6-5.2,6-7.3
			c4.8-4.4,10.1-8.3,15.7-11.5C155.7,113.7,157.8,110.7,159.8,107.4z M214.6,272.5c-2.1-3.1-5.5-4.1-8.4-2.3
			c-3.3,2.1-6.5,4.3-9.5,6.8c-3.6,2.9-3.6,4.2-1.1,8c1.4,2.2,2.8,4.4,3.6,6.9c1.2,3.6,2.6,7,4.7,10.1c2.5,3.6,4.9,7.3,7.7,10.6
			c5.1,5.9,7.9,12.8,9.7,20.3c2.1,8.7,2.9,17.5,2.8,26.4c0,1.9,0.2,3.6,2.5,4.2c0,0.6,0,1.2,0,1.7c0.1,2.2,1.1,3.1,3.3,3
			c0.5,0,1-0.1,1.4-0.2c3.8-1.1,7.6-2.6,10.7-5.1c1.8-1.4,3.4-3.1,4.7-4.9c1.5-2,2.2-4.5,1.8-7.1c-2.3-0.9-3.2-0.7-4.4,1.1
			c-0.6,0.9-1.1,2-1.7,3c-0.6,1-1,2-1.7,2.9c-1.5,2-3.2,2.3-5,0.7c-1.3-1.1-2.5-2.7-3.1-4.2c-1.2-2.8-2.2-5.8-3-8.7
			c-2.4-8.4-4.9-16.7-9-24.4c-0.1-0.1,0-0.3,0.1-0.7c1.6,1.2,2.7,2.7,3.7,4.2c1.1,1.6,2.2,3.3,3.2,4.9c0.9,1.5,1.8,3,2.7,4.6
			c0.3-0.6,0.2-1,0-1.3c-3.9-12.2-9.9-23.3-17.5-33.6c-1.7-2.4-3.5-4.7-4.9-7.3c-1.4-2.6-2.6-5.3-3.3-8.1c-1.3-5.2,1-8.9,6.1-10.5
			C211.9,273,213.3,272.8,214.6,272.5z M388.9,33.7c-3.9-3-7.4-5.8-11.1-8.4c-2.2-1.6-4.5-3-6.8-4.2c-8.1-4.3-16.8-5.1-25.8-4
			c-13.7,1.6-25,7.6-33.8,18.3c-4.7,5.7-8.6,11.8-12.1,18.3c-2,3.8-4.7,7-7.8,9.9c-6.6,5.9-14.2,10.3-22.1,14.1
			c-0.8,0.4-1.6,0.8-2.3,1.2c0.5,0.2,0.9,0.3,1.2,0.2c11.1-2.9,21.1-7.9,29.9-15.3c6.3-5.3,11.1-11.8,15.6-18.7
			c2.3-3.6,4.6-7.1,7.1-10.5c4.2-5.8,9.8-9.9,16.7-12.2c3.7-1.2,7.4-1.7,11.3-1.8c9.2-0.4,17.9,1.4,25.9,6.3
			c0.6,0.4,1.2,0.8,1.8,1.2c-1.1,0.2-2,0-2.8-0.3c-7-2-14.1-3.1-21.4-2.8c-12.5,0.5-22.6,5.5-29.6,16.1c-2.1,3.2-3.9,6.6-5.6,10
			c-3.7,7.5-6.8,15.3-11.6,22.2c0,0,0,0.1,0,0.2c0.8-0.7,1.8-1.4,2.4-2.3c2.5-3.6,5.1-7.2,7.3-10.9c2.3-3.8,4.1-7.9,6.2-11.9
			s4.6-7.9,7.8-11.2c3.5-3.7,7.6-6.7,12.5-8.2c7.2-2.1,14.6-2.9,21.9-1.3c5.4,1.1,10.7,2.8,16,4.2C382.5,32.7,385.4,33.6,388.9,33.7
			z M396.4,152.5c0,0.1,0.1,0.2,0.1,0.3c0.8-0.2,1.5-0.4,2.3-0.7c1.9-0.8,3.8-1.6,5.5-2.5c4.9-2.7,9.2-6.2,13.1-10.1
			c4.6-4.6,9-9.4,13.5-14.1c4.5-4.8,9.2-9.5,14.6-13.2c3.5-2.4,7.1-4.6,11.2-5.8c2.9-0.8,5.7-1.2,8.7-0.5c2.8,0.7,3.6,2.1,2.9,4.8
			c-0.1,0.5-0.3,1-0.5,1.7c1.9-1.4,2.5-2.1,3-3.7c0.9-3,0-5.1-3-6.2c-1.3-0.5-2.7-0.8-4-0.8c-7.4-0.2-14.4,1.4-20.8,5.2
			c-4.9,3-9.7,6.3-14.3,9.8c-8.7,6.7-17.3,13.5-25.9,20.4c-4.5,3.7-9.6,6-15.3,7.2c-7.8,1.7-15.7,1.8-23.6,1.1
			c-4.9-0.4-9.8-1.3-14.7-2c-0.7-0.1-1.6,0-2,0.4c-1.2,1-2.2,2.3-3.4,3.6c1.1,0.3,1.9,0.6,2.6,0.8c10.5,2.6,21.1,3.2,31.7,1.8
			c11.6-1.5,22.3-5.2,31.5-12.7c6.8-5.5,13.6-11.1,20.4-16.7c0.5-0.4,0.9-0.7,1.4-1.1c0,0.6-0.2,0.9-0.4,1.2
			c-5.7,7.2-11.8,14.1-18.6,20.4c-4.1,3.8-8.5,7.4-13.4,10.1C398.2,151.6,397.3,152,396.4,152.5z M339.6,325.8
			c-0.4,2-0.6,3.8-1.1,5.5c-2.8,11-8.4,20.4-16.2,28.5c-8.3,8.6-14.6,18.4-18.9,29.6c-0.6,1.7-1.2,3.4-1.5,5.1
			c-0.5,3.6-0.2,7,2.7,9.7c3.1,2.9,10.6,3.7,14.3,1.5c1.8-1.1,3.1-2.6,3.9-4.6c1.1-2.7,2-5.5,2.8-8.3c1.1-3.9,1.8-7.9,4.4-11.5
			c-2,0-3.2,0.9-4.1,2.1c-1.1,1.5-2.1,3.1-2.8,4.8c-1.1,2.7-1.9,5.5-2.8,8.3c-0.3,1-0.7,2-1.2,2.9c-0.8,1.3-1.9,1.2-2.7,0
			c-0.5-0.7-0.8-1.6-1-2.5c-1.1-4.7-0.9-9.3,1.2-13.6c2.6-5.2,5.3-10.4,8.1-15.5c3.3-6,7-11.7,10.3-17.7c2-3.6,3.5-7.5,5-11.4
			c1-2.6,1.4-5.3,1.2-8.1C341.1,329.1,340.8,327.4,339.6,325.8z M347.5,275.2c-2.4,4-4.6,8.2-9.7,10.1c0.5-2.5,1.1-4.5,1.4-6.6
			c0.2-2,0.8-4.1-0.6-6.2c-1,2.2-1.8,4.2-2.9,5.9c-1.2,1.8-2.6,3.5-4.2,5c-1.3,1.2-3.1,1.7-5.2,0.7c3.1-4.3,5.7-8.8,5.9-14.1
			c-0.6,0.6-1,1.3-1.4,1.9c-1.5,2.2-2.9,4.6-4.5,6.6c-1,1.3-2.5,2.3-3.9,3.3c-0.9,0.6-2.2,1.1-3.4,0.1c0.4-0.6,0.7-1.2,1-1.8
			c2.7-4.6,5.2-9.4,6.8-14.6c0.8-2.7,1.1-5.4,0.4-8.2c-0.5-2-0.9-4.2-1-6.3c-0.3-5.1-0.8-10.3,4.1-14c-0.9-1.5-1.8-2.8-2.7-4.2
			c-1.6,0.7-2.5,1.7-3,3c-0.6,1.7-1.2,3.4-1.5,5.1c-0.8,4.4-0.3,8.7,0.3,13.1c0.3,2,0.9,4.1,0.6,6c-1,5.8-2.9,11.3-6.6,16.1
			c-2.2,2.9-5,5.1-8.6,6.1c-1.2,0.3-2.4,0.5-4,0.8c3.1,2.2,5.9,4,9.5,3.9c0.7,0,1.6-0.2,2.1-0.6c1.5-1.3,3-0.9,4.6-0.4
			c1.5,0.5,2.9,1,4.4,1.6c2.5,0.9,5,2,7.5,2.8c7.2,2.2,14.2,2,21.2-1c6.4-2.7,12.9-5.3,19.4-7.9c0.8-0.3,1.6-0.7,2.5-1.1
			c0.1-1.6,0.1-3.1,0.2-4.9c-4.4,2.1-8.5,4.1-12.7,6.1c-0.5-2.8-0.7-5.4-3-7.2c-0.8,2.2-1.3,4.3-2.2,6.3c-0.9,2.1-2.5,3.7-5,4.8
			c1.3-4.2,3.5-7.8,2-12.2c-1.3,2.3-2.3,4.6-3.8,6.7s-3.4,3.8-6.3,4.4C346.3,281.5,348.2,278.6,347.5,275.2z M495.4,159.8
			c0-0.2,0-0.3,0-0.4c-0.2-0.2-0.5-0.4-0.7-0.6c-11.2-8.9-24-11.5-37.9-9.1c-11.6,2-21.9,6.9-31.6,13.5c-2.3,1.6-4.8,3-7.4,4.1
			c-10,4.2-20.1,4.9-30.2,0c-0.2-0.1-0.5-0.1-0.8-0.1c0.1,0.3,0.1,0.4,0.1,0.4c0.1,0.2,0.3,0.4,0.4,0.6c5,6.1,11.7,8,19.2,7.3
			c8.2-0.7,15.6-3.6,22.4-8.3c4.8-3.3,9.8-6.1,15.2-8.2c6.4-2.6,13-4.2,19.9-4.6c1.7-0.1,3.5-0.2,5.6,0.6c-5.9,1.7-10.9,4.4-15.4,8
			c-3.3,2.6-6.4,5.2-9.5,8c-4,3.7-7.8,7.6-11.7,11.4c-0.4,0.4-0.8,0.9-1.2,1.3c1.8-0.8,3.2-2,4.7-3.1c4.7-3.7,9.4-7.6,14.2-11.2
			c5.8-4.3,12-7.8,18.9-10.1c8.3-2.7,16.6-3,24.9,0.1C494.5,159.6,494.9,159.7,495.4,159.8z M166.6,193.6c-0.2,0-0.4,0.1-0.5,0.1
			c-0.1,0.4-0.3,0.8-0.3,1.1c-0.5,3.5-2.2,6.4-4.9,8.8c-1,0.8-1.8,1.9-2.5,3c-1.8,2.9-2.2,6-0.7,9.1c1,1.9,2.3,3.7,3.6,5.4
			c1.6,1.9,2.8,4,3.4,6.4c0.6,2.3,0.3,4.5-0.9,6.6c-1.4,2.6-7.3,6.3-11.7,6.3c4.2-5.5,5.1-8.1,3.1-10c-0.1,1.1-0.1,1.9-0.2,2.8
			c-1.6,0.3-3.2,0.5-5,0.8c1.5-3.7,2.4-7.1,1.1-10.7c-1.4,0.9-2.7,1.7-4.1,2.6c-0.3-1.6,0.4-3.1-0.7-4.2c-0.8,2.3-1.6,4.4-2.4,6.7
			c2.5-0.2,4.2-1.9,6.5-3c-0.1,3.6-1.2,6.6-3.7,8.9c0.9,1.2,2.1,1.4,3.3,1.2s2.3-0.5,3.8-0.9c-1.3,2.1-2.9,3.3-5,3.7
			c-1.9,0.4-3.9,0.5-6,0.8c1.4,2.6,3.5,3.8,6,4.6c4.3,1.3,8.5,1,12.7-0.3c4.5-1.4,7.3-4.4,9.1-8.6c1.4-3.3,1.1-6.6-0.9-9.5
			c-0.9-1.3-2.1-2.5-3.1-3.7s-2.1-2.3-3-3.5c-3.1-4.5-3-9.2,0-13.7c0.5-0.7,1-1.3,1.4-2c0.2-0.3,0.3-0.7,0.3-1.1
			c0-1.1,0.2-1.4,1.1-1.5c0.4,0,0.9,0.1,1.2-0.1c2.1-1.5,4.3-3,6.2-4.7c0.9-0.8,1.7-1.6,2.9-2.1c1.4-0.6,2.3-1.5,3-3
			c0.5-1.1,1.6-2.1,2.6-2.8c1.3-0.8,2.8-1.3,4.2-2c1.3-0.6,2.7-1.2,3.9-1.9c2-1.1,3.8-2.9,6.2-3.3c0.5-0.1,1.1-0.5,1.4-0.9
			c1.6-2.1,4.1-1.9,6.2-2.5c3.9-1,7.9-1.8,11.8-2.6c0.4-0.1,0.8-0.3,1.1-0.5c0.7-0.4,1.3-0.6,2-0.1c0.4,0.3,0.9,0.4,1.4,0.4
			c2.8,0.2,5.6,0.3,8.4,0.5c1.9,0.1,3.7,0.2,5.6,0.6c4.7,0.9,8.8,2.8,11.7,6.9c0,0,0.2,0,0.4,0c-0.2-2.2-1.6-3.8-2.7-5.6
			c0.5-1,1.1-2,0.5-3.1c-5.2,2.5-10.3,1.1-15.3-0.2c0.2-1.1,1.9-1.4,1.3-2.8c-1.5,0.9-3,1.8-4.8,2.9c0.4-1.1,0.6-1.8,0.9-2.7
			c-2.1,1.1-3.9,1.7-6,1.4c0.4-0.8,0.8-1.4,1.2-2.1c-2.6,1.1-5,2.1-7.7,3.2c-0.1-1.1-0.1-1.8-0.2-2.9c-2.3,2.6-4.9,3.7-7.8,4
			c-0.1-1.1-0.2-2-0.4-3.4c-1.5,2.1-2.3,3.9-4.2,4.8c-0.4-1.2-0.8-2.3-1.1-3.4c-0.9,2.2-2,4-3.9,5.7c-0.3-1.9,0.2-3.8-1.4-5.2
			c-0.3,1.2-0.5,2.1-0.8,3c-1,3.1-2.8,5.5-5.8,6.9c-2.9,1.4-5.8,2.7-8.8,4.1c-0.5-0.7-1-1.6-1.8-2.9c-0.5,3.1-0.4,5.9-2.7,7.7
			c-0.7-1-1.2-2-2.1-3.3c-0.5,4.7-3.1,7.5-5.8,10.6C167,196.6,166.8,195.1,166.6,193.6z M148.2,101.2c0.1,0.1,0.3,0.2,0.4,0.2
			c0.9-0.7,1.8-1.4,2.7-2c2-1.2,3.1-2.9,4.1-5c5-11,11.8-20.8,20.9-28.9c8.9-7.9,19.2-13,31.3-14c0.4,0,0.9-0.2,1.6-0.4
			c-3-2.5-6.2-3.1-9.6-2.7c-7.1,0.9-13.5,3.9-19,8.2c-10.4,8.1-19.3,17.7-26.1,29.1c-0.3,0.5-0.7,1-1.1,1.6
			c-1.9-0.2-3.1-1.4-3.8-2.8c-1-1.9-1.7-3.8-2.5-5.8c-1.3-3.5-2.5-7.1-4-10.5c-4.2-9.7-12.1-13.8-22.3-13.9c-0.7,0-1.4,0.2-2,0.2
			c0.9,0.6,1.9,0.8,2.8,1c5,1.3,9.7,3.2,13.6,6.7c3.1,2.8,5.1,6.3,5.2,10.6c0,1.8,0.1,3.6,0.4,5.3c0.6,3.1,1.1,6.3,2,9.3
			c1.2,3.7,3.4,6.8,7.7,8C149.7,97.6,148.9,99.4,148.2,101.2z M473.8,87.9c1-0.7,1.8-1.2,2.5-1.8c2.4-2.2,3.3-4.8,2.2-7.9
			c-1-2.9-3.4-4.1-6.2-4.4c-1.8-0.2-3.6-0.2-5.3,0.2c-10.3,2.4-19.6,7-27.1,14.7c-3.2,3.3-6.2,6.9-9.2,10.4
			c-5,5.8-9.9,11.7-14.9,17.4c-1.7,1.9-3.6,3.6-5.7,5c-13,8.1-26,7.3-38.9-0.5c-0.8-0.5-1.5-1-2.3-1.5c-1.5,1.2-3,2.3-4.6,3.6
			c1,0.6,1.7,1,2.4,1.4c6.9,3.6,14.1,6,21.8,6.5c10.3,0.7,19.5-2,26.9-9.5c4.8-4.9,9.3-10,13.9-15.1c5.1-5.6,10-11.4,15.3-16.8
			c5.1-5.3,11.1-9.5,18.3-11.7c2.7-0.8,5.4-1.2,8.2-0.8c0.7,0.1,1.3,0.4,2,0.6c0,0.2,0,0.3-0.1,0.5c-4.1-0.6-7.6,0.8-10.8,3
			c-5,3.4-9.1,7.9-12.7,12.7c-0.1,0.1,0,0.3,0,0.6c1.8-1.7,3.4-3.4,5.1-5c3.3-3.1,6.8-6.1,10.9-8.1c1.6-0.7,3.4-1.3,5.1-1.5
			c2.5-0.2,4,1.3,3.8,3.9C474.4,85.1,474.1,86.2,473.8,87.9z M430.6,294.5c-0.5,3.4-0.8,6.4-1.5,9.3c-0.6,2.2-1.5,4.4-2.8,6.1
			c-2.9,3.8-5.7,3.6-8.3-0.7c-1.4-2.3-1.4-5-0.6-7.6c0.9-3.1,2-6.2,3-9.3c0.1-0.4,0.4-0.8,0.8-1.6c0.7,3.5,1.2,6.5,1.8,9.4
			c2.6-3.8,2.9-8,2.6-12.4c-0.6,1.9-1.1,3.8-1.8,6.1c-1.2-3.2-1.3-6.1-2.7-8.8c-0.3,0.4-0.5,0.6-0.6,0.8c-4,8.5-8.1,17-12,25.6
			c-1.5,3.3-2.5,6.9-2.2,10.6c0.2,3.3,1.6,5.9,4.5,7.6c0.3,0.2,0.7,0.4,0.9,0.6c-0.6,4,0.1,4.9,3.8,6.1c2,0.6,3.9,1.3,5.8,2
			c0.8-1.8-1.1-2.2-1.6-3.1c1.9-1.4,3.7-2.7,6-4.3c-2.5-0.2-4.3-0.2-6.1-0.5c-1.9-0.3-3.8-0.8-5-2.7c0.6-0.2,1-0.4,1.5-0.6
			c7.1-2.2,11.5-7,13.8-14c1.4-4.4,1.8-8.9,1.5-13.5C431.1,298.2,430.8,296.6,430.6,294.5z M168.1,168.1c0.1,0.1,0.2,0.3,0.3,0.4
			c1.2-0.8,2.4-1.5,3.7-2.3c10.8-6.6,22-12.6,34.2-16.5c7.3-2.3,14.6-3.8,22.3-3.2c3.2,0.2,6.4,0.7,9.1,2.5
			c9.1,6.1,13.6,14.6,13.1,25.6c-0.3,5.6-2.1,10.8-4.6,15.8c-0.3,0.7-0.6,1.3-0.9,2c6.9-6.8,9.9-15.2,9.5-24.7
			c-0.3-5-0.5-9.9,1.6-14.6c0-0.1-0.2-0.2-0.3-0.4c-1.6,0.2-2,2-3.3,2.8c-0.1-4.2,1.8-7.5,4-11.1c-2.7,0.6-4.1,2.4-6.2,3.5
			c0.4-1.6,0.8-3.1,1.4-5.2c-1.9,1.1-3.3,2-4.4,2.7c-2.7-1-5.1-2.1-7.7-2.8c-7.6-2-15.3-1.5-22.9,0.2c-7.7,1.7-15,4.7-22.1,8.2
			C185.2,155.9,176.4,161.6,168.1,168.1z M146,156.7c0.1,0.1,0.2,0.2,0.3,0.3c0.6-0.8,1.2-1.5,1.8-2.3c7.8-10.1,15.8-20.1,24.7-29.3
			c14.6-15.1,16.7-16.8,36.2-25.8c11.6-5.4,23.6-9.7,35.7-13.7c0.6-0.2,1.2-0.5,1.8-0.7c-0.4-0.2-0.7-0.2-1-0.1
			c-7.3,1.8-14.5,3.5-21.8,5.3c-6.8,1.7-13.7,3-20.3,5.1c-16.7,5.3-29,16.3-38.5,30.8c-6,9.3-11.7,18.8-17.5,28.2
			C146.9,155.2,146.5,156,146,156.7z M352.6,417.6c-6-3.6-11.5-7.5-13.5-14.8c-2.8,2.4-3.1,4.4-1.3,7.1c0.5,0.8,1.2,1.6,1.9,2.2
			c2,1.6,4.1,3.3,6.3,4.6c4.4,2.5,9,4.9,13.5,7.3c0.5,0.3,1.1,0.5,1.9,0.9c0-1.5-0.1-2.7,0-3.9c0.2-1.8,0.5-3.7,1.1-5.5
			c0.7-2.1,1.2-2.3,3.2-1.4c5.3,2.3,10.6,4.6,15.8,7.1c2.5,1.2,4.8,2.8,7,4.4c2.7,1.9,2.8,3.1,0.7,5.5c-1,1.1-2.2,2.2-3.6,2.9
			c-1.7,0.9-3.6,1.7-5.4,2.1c-3.9,0.8-7.8,1.3-11.7,1.9c-0.1-0.2-0.1,0,0,0c0.2,0.1,0.4,0.2,0.7,0.3c4.1,1.1,8.3,1.7,12.6,1.1
			c9.6-1.3,16.2-7.3,18.2-16.8c0.1-0.4,0-0.8,0-1c-0.2-0.2-0.3-0.3-0.3-0.3c-11.4-3.1-22.3-7.4-33.1-12.3c-1.2-0.5-2.5-0.9-3.7-1.1
			c-2-0.2-3,0.6-3.5,2.5c-0.2,0.8-0.3,1.5-0.5,2.3C354.1,412.5,353.9,412.7,352.6,417.6z M267,150.9c-0.1,0-0.2,0.1-0.4,0.1
			c0,0.7,0,1.4,0,2.1c0,2.7,0.2,5.4,0,8c-1.4,18.4-9.9,32-27,39.7c-11,5-21.7,10.3-31.9,16.7c-5.4,3.4-10.6,7-15.3,11.3
			c-2.6,2.4-4.9,5-6.6,8.1c-0.7,1.2-1.3,2.4-1.3,4.3c4.8-7.4,11.5-11.9,18.2-16.4c1.4-1,2.9-1.8,4.3-2.7
			c10.8-6.6,22.1-12.1,33.5-17.4c7.1-3.3,13.6-7.3,19-13c10.7-11.1,13.4-23.9,8.4-38.4C267.8,152.4,267.4,151.6,267,150.9z
			 M348.3,431.5c0.7,1.5,1.5,3,2.1,4.6c0.7,1.8,1.5,3.6,2,5.5c0.5,2-0.4,3-2.5,2.7c-1-0.1-1.9-0.5-2.8-0.8c-1.2-0.4-1.9-1-1.9-2.4
			c0-1-0.2-1.9-0.4-2.9c-2-10.1-7.2-17.9-16.6-22.4c-2.7-1.3-5.6-2.1-8.5-2.8c-2.9-0.7-5.9-0.9-9.3-1.4c1.4,2.1,3.2,3,5.1,3.8
			c2.7,1.2,5.4,2.2,8.1,3.5c4.3,2,7.6,5.1,9.8,9.5c1.9,3.9,3.6,7.8,4.8,12c0.5,1.7,1,3.4,1.6,5.1s1.7,2.6,3.6,2.8
			c5.8,0.5,11.3-0.6,16.7-2.6c0.7-0.3,1.4-0.9,1.7-1.6c1.3-2.2,1-7.5-0.4-10c-0.6,2.2-0.7,4.4-2.2,6.3
			C355,437.9,351.9,434.4,348.3,431.5z M283.2,336c1-0.6,2.2-1,3-1.8c2.2-2.1,4.5-4.3,6.3-6.7c4.9-6.4,8.4-13.7,11.5-21.2
			c0.1-0.3,0.1-0.7,0.1-1.3c-1,0.6-1.8,1-2.6,1.4c-6,3.3-12.3,5.9-19.1,7.2c-6.5,1.3-12.9,1.5-19.3-0.7c-0.9-0.3-1.8-0.7-2.8-1
			c-2.8,3.8-7,5.3-11.2,7.3c3,3.4,4.9,7.1,5.2,11.5c0.5-0.5,0.9-0.9,1-1.4c0.8-3.1-0.3-6.1-0.8-9.1c4,4.5,3.6,9.4,0.7,14.5
			c7.1-2.4,8.7-6.9,7.1-18.4c0.6,0.1,1.1,0.1,1.6,0.2c2.3,0.5,4.6,1,6.9,1.6c2.7,0.6,5.4,0.9,8.2,0.3c4.4-1,8.9-1.9,13.4-2.8
			c0.6-0.1,1.2-0.2,1.8-0.3C294.5,321.7,290.9,328.1,283.2,336z M138.8,217.3c0.4-2.3,0.8-4.5,1.1-6.6c0.4-2.5,0.2-5-0.8-7.4
			s-3-3.5-5.7-3.4c1.7,1.5,2.6,3.3,2.7,5.4c0.2,2.8,0.2,5.7,0.1,8.5c-0.1,1.9-0.9,3.6-2.6,4.7c-0.4,0.2-0.7,0.5-1.1,0.8
			c4.8,4,10.4,3.3,13.9-1.6c1.8-2.5,2.5-5.4,2.6-8.5c0.2-6.9,2.7-13,6.7-18.5c2.8-3.8,6-7,9.6-10c0.4-0.4,0.8-0.8,1.5-1.4
			c-4.4,1-7.8,4.5-12.5,2.9c0,1.5,0,2.8,0,4.2c-2.1,0.6-3.6-0.4-5.7-1.5c0.7,1.8,1.2,3.1,1.8,4.5c-1.7,0.7-3.2-0.2-5.1-0.7
			c0.5,1.7,0.8,3.1,1.3,4.7c-1.6-0.2-2.9-0.3-4.2-0.5c-0.4,1.9,1,3.1,1.5,4.9c-1.1,0.2-2.1,0.4-3.1,0.6c0.4,1.2,0.8,2.3,1.1,3.5
			c1,3.3,1.7,6.6,0.7,10.1C142,214.2,141.1,216.1,138.8,217.3z M305,33.7c-14.1-8.2-28.8-11.7-44.7-8.7
			c-14.4,2.8-25.9,10.6-36.2,21.3c2.2-0.2,3.9-0.5,5.6-0.4c3,0.1,5.1-1,7.2-3.1c14.4-14.1,31.4-18.2,50.7-12.4
			c5.2,1.6,10.1,3.9,15,6.9C303.4,36.1,304.1,35.1,305,33.7z M316.4,107.7c0,0.2,0,0.3,0,0.5c2.5,0.9,5.1,1.7,7.6,2.6
			c1.5,0.6,3,0.7,4.5,0.4c14.8-2.8,28.9-7.6,41.6-16c2.1-1.4,4.2-2.7,6.5-3.9c7.5-4.1,15.5-6,24-5c4,0.5,7.9,1.2,11.8,1.9
			c3.4,0.6,6.8,1.1,10.2,0.4c-1.8-0.4-3.7-0.7-5.4-1.1c-4.9-1.2-9.7-2.6-14.6-3.7c-10-2.3-19.5-1.2-28.2,4.7
			c-3.3,2.2-6.6,4.5-10,6.5c-2.7,1.6-5.5,3.3-8.4,4.4c-12,4.6-24.5,7-37.3,8.1C317.8,107.5,317.1,107.6,316.4,107.7z M269.8,192
			c0.2-3.4,2.2-6,3.8-8.7c-2.5,1-4.5,2.6-6.2,4.6c-2.6,3.1-2.4,4.5,0.9,7c0.1,0.1,0.2,0.3,0.3,0.4c0.2,2,0.4,4.1,1.2,5.9
			c0.8,1.8,0.8,3.6,0.6,5.4c-0.4,3.8-0.7,7.6-0.8,11.4c-0.1,1.3-0.3,2.4-1,3.6c-2.3,3.5-1.3,7.9,2.3,10.4c0-1.1-0.1-2.1,0-3.2
			c0.3-4.3,2.2-7.9,4.8-11.3c2.8-3.6,6.3-6.4,10-8.9c0.7-0.5,1.4-1,2.1-1.5c-5.6-0.3-9.7,2.6-13.5,6.3c1.9-6.6,6.1-11.3,11.8-14.8
			c-4.6-0.1-8.2,2.1-12,4.2c2.3-4.2,6.1-6.6,9.9-9.1c-4.1,0-7.4,2-10.5,4.4c0.1-0.7,0.3-1.4,0.7-2c2-3.5,5.4-5.4,8.6-7.6
			c-3.2-0.3-6,1.3-8.8,2.3c-0.1-0.2-0.1-0.3-0.2-0.5c1-1.2,2-2.5,3.4-4.1C273.8,187.7,272,190.1,269.8,192z M317.9,228.2
			c0-0.2,0-0.3,0-0.5c-9.6-3.2-19.2-6.5-28.9-9.7c-2.3-0.8-4.8-1.1-7.2-0.3c-1.9,0.6-3,1.7-3.6,3.6c-0.4,1.2-0.9,2.4-1.7,3.4
			c-3.5,5-5.6,10.4-5.5,16.6c0.1,9.2,3.7,17,9.7,23.9c0.2,0.2,0.5,0.4,0.8,0.6c-0.2-1-0.6-1.6-0.9-2.4c-1.7-3.8-3.5-7.5-4.9-11.4
			c-1.6-4.3-1.9-8.9-1.1-13.5c1.5-7.9,6.4-13.2,13.5-16.5c1-0.4,2.2-0.5,3.3-0.4c10,1.1,17.9,8.2,20.6,18.3c0.5,2.1,0.9,4.3,1.3,6.6
			c1.1-2.3,0.8-4.7,0.9-7s0-4.7,0-7.2c0.9,0.1,1.5,0.2,2.7,0.3c-0.8-1.4-1.4-2.4-2-3.4C315.9,228.8,316.9,228.5,317.9,228.2z
			 M325.3,298c0.2,2.9,1.5,5.3,3.1,7.6c2.6,3.8,5.7,7.1,9.3,9.9c2.7,2.2,4.5,4.9,5.6,8.1c1.6,4.3,2.1,8.8,1.6,13.4
			c-0.1,0.9-0.1,1.8-0.1,2.6c5.2-7.8,5.5-22,3.1-29.2c-2-0.7-4.3-0.5-6.3-2.1c3-1.1,5.5-2.6,7.1-5.5
			C337.4,302,336.4,301.8,325.3,298z M294.2,284.3c-2.5,0.4-4.8,1-7.1,1.1c-4.2,0.2-8-1.2-11.6-3.1c-6.3-3.3-12.9-4.8-20-4.5
			c-8,0.3-14.3,3.7-19,10.2c-0.3,0.5-0.6,1-0.9,1.5c4.6-3.1,9-6.2,14.3-7.7c-0.5,0.7-1.1,1.3-1.6,1.8c-2.9,2.6-5.4,5.6-7.3,9.1
			c-3.4,6.2-4.5,12.7-2.6,19.5c0.1,0.5,0.4,0.9,0.8,1.8c0.1-1.6,0.1-2.6,0.2-3.7c0.5-5.8,1.7-11.4,4.3-16.6c2.2-4.4,5.2-8.2,9.4-11
			c2.2-1.5,4.6-2.2,7.3-2.2c5,0.1,9.3,1.8,13.5,4.4c2.5,1.6,5,3,7.6,4.3c2.7,1.3,5.6,1.9,8.5,1.7c2.4-0.1,4.8-0.6,6.8-2.3
			C295.9,287.1,295,285.6,294.2,284.3z M255.8,130.1c1.6,0.9,2.9,1.5,3.9,2.3c1,0.7,1.9,0.7,2.9,0.4c8.4-2.2,17-3.6,25.7-4.2
			c6.9-0.4,13.7-0.2,20.4,1.1c4.4,0.8,8.6,2.2,13.2,3.4c0.7-0.9,1.5-2,2.5-3.4c-1-0.5-1.8-0.9-2.6-1.2c-6.7-2.5-13.6-3.9-20.7-4.5
			c-9.2-0.7-18.4-0.2-27.4,1.4C267.8,126.6,261.8,128,255.8,130.1z M256.6,254.4c1.5-0.2,2.7-0.6,3.8-0.4c1.1,0.2,2,1,2.9,1.4
			c-0.2-2.9-0.4-5.9-0.7-9c-2.1,1.1-2.7,3.4-3.5,5.3c-1.9,0.7-3.8,1.2-5.4,2.1c-1.6,0.9-3,2.1-4.6,3.3c-1.1-1-2.5-1.1-3.9-0.9
			s-2.9,0.4-4.3,1c-3.2,1.4-6.5,1.3-9.8,0.9c-3.7-0.4-7.4-0.8-11.2-1.1c-7.4-0.5-14.5,0.6-20.7,4.9c-1.5,1-2.9,2.4-4,3.9
			c-1.5,2.1-1.3,3.8,0.4,6.1c1.3-4.9,5.1-6.8,9.2-8.4c4.3-1.7,8.7-2.7,13.3-3c9.2-0.7,17.8,1.1,25.3,6.7c0.4,0.3,0.9,0.6,1.8,1.2
			c-1.2-3.2-2.5-5.8-4.7-7.8c2.1-1.7,4.3-1.7,6.4-0.9c1.6,0.6,3.1,1.7,4.6,2.6c0.6,0.3,1.1,0.8,2,1.4c-0.3-1.3-0.4-2.2-0.7-3
			c-0.3-0.9-0.9-1.7-1.4-2.5c1.2-1.2,2.4-1.2,3.6-0.5c1.1,0.6,2.1,1.5,3.3,2.4C258.6,257.7,258.6,257.7,256.6,254.4z M246,98.7
			c-1.3,0-2.5-0.2-3.8,0c-5.1,0.7-10.2,1.2-15.1,2.4c-15.4,3.7-28.7,11.2-39.1,23.3c-3.8,4.4-7.5,9-11.1,13.6
			c-6.3,8.2-12.6,16.3-20,23.7c-0.2,0.2-0.3,0.4-0.4,0.6c0.1,0.1,0.2,0.2,0.4,0.3c1.6-1.2,3.3-2.3,4.7-3.7c3.2-3.1,6.4-6.3,9.3-9.7
			c5.4-6.4,10.7-12.9,16-19.4c2.7-3.2,5.4-6.2,8.8-8.7C210.8,110,227.2,101.9,246,98.7z M254.3,350.6c0.5-0.9,0.9-1.7,1.3-2.4
			c1.3-2.9,1.3-5.6-0.9-8.2c-1.7-2-3.3-4-4.9-6.1c-4-5.2-8-10.4-11.8-15.8c-2.7-3.9-4.8-8.1-6.2-12.7c-0.8-2.6-1.4-5.2-1.1-7.9
			c0.6-5.3,1.2-10.6,3.7-15.5c1.5-3,0.4-6.3-2.6-8.7c0.6,4.2,0,8-2.5,11.8c-1.1-3.9-2.3-7.3-5.8-9.1c-0.1,0.4,0,0.7,0.1,0.9
			c2.9,5.4,4,11.1,3.6,17.2c-0.2,3.5,0.3,7,1.3,10.3c2.2,7.7,6.1,14.5,10.6,21c3.9,5.4,7.9,10.7,12.1,15.9c2.1,2.6,3.6,5.2,2.9,8.6
			C254,350.1,254.1,350.2,254.3,350.6z M97.5,68.7c-0.4-0.2-0.5-0.3-0.6-0.3c-0.2,0-0.5,0-0.7,0.1C89,70.4,82.1,73,75.7,76.8
			c-11.4,6.7-20,15.8-24.7,28.3c-2.8,7.6-4.4,15.5-3.6,23.7c0.5,5.5,3.2,9.7,8.1,12.3c2.1,1.1,4.2,2.2,6.5,2.8
			c7.2,2.1,13,6.2,17.9,11.8c0.3,0.4,0.7,0.7,1.1,1c0-0.6-0.2-1.1-0.4-1.4c-3.7-5.2-8.3-9.3-14.3-11.9c-4.3-1.8-8.4-4-11.8-7.2
			c-3.6-3.3-5.7-7.3-5.4-12.3c0.2-2.8,0.6-5.7,1.1-8.5c2.4-12.1,8.8-21.9,18.1-29.9c7.6-6.6,16.3-11.3,25.4-15.2
			C94.8,69.8,96.1,69.3,97.5,68.7z M210.9,125.7c0.1,0.1,0.1,0.3,0.2,0.4c3.3-1.2,6.7-2.4,10-3.8c15.5-6.4,30.2-14.4,45-22.3
			c16.1-8.6,33-13,51.2-12.7c0.5,0,0.9-0.1,1.4-0.1c-0.8-0.5-1.6-0.7-2.3-0.8c-5.9-1-11.8-1.1-17.8-0.4c-12.9,1.5-24.8,5.7-36.1,12
			c-12.6,7-25.1,14.1-37.7,20.9C220.2,121.4,215.5,123.4,210.9,125.7z M404.2,152.6c0.9,0.3,1.5,0.5,2.1,0.6
			c6.3,1.4,12.7,2,19.1,1.5c9-0.7,17.3-3.4,24.1-9.7c3.3-3,6.7-5.9,10.2-8.8c6.7-5.6,13.8-10.6,22.3-13.2c0.1,0,0.2-0.2,0.4-0.5
			c-1.2,0.1-2.2,0.1-3.3,0.3c-5.2,0.8-10,2.7-14.3,5.9c-3.6,2.7-6.9,5.6-10.4,8.5c-3.1,2.6-6.3,5.2-9.5,7.7
			c-3.5,2.7-7.5,4.2-11.7,5.1c-7.3,1.6-14.7,1.7-22,0.4C408.4,149.8,406.5,151.1,404.2,152.6z M259.6,140.1
			c-2.7-3.4-6.2-5.9-10.1-7.8c-8.3-4-17.1-4.9-26.2-3.7c-10.5,1.3-20.1,5-29.4,9.9c-0.5,0.3-0.9,0.6-1.4,0.9c1.2,0,2.2-0.4,3.2-0.8
			c11.1-4.3,22.6-6.5,34.6-5.8c2.5,0.2,4.9,0.4,7.3,1.2c-0.8,1.9-0.8,1.9-0.6,3.3c4-1.5,6.5-2.1,9.9-1.2c-0.6,0.8-1.2,1.7-2.1,2.9
			C251.2,137.1,252.5,137.2,259.6,140.1z M193.7,93.4c0.1,0.1,0.1,0.2,0.2,0.2c0.7-0.5,1.4-1,2.1-1.4c5.1-3.4,10.2-6.7,15.3-10.1
			c11.8-7.7,24.8-11.9,38.7-13.8c3.7-0.5,7.4-1,11-1.6c-0.3-0.3-0.6-0.3-0.9-0.3c-9-0.6-17.9-0.1-26.7,1.5c-5.3,1-10.7,2-15.5,4.7
			c-9.2,5.1-16.9,11.8-23.6,19.8C194.1,92.7,193.9,93,193.7,93.4z M320.8,230.4c-3,3.9-5.3,7.8-5.1,12.6c0.1,2.1,0.4,4.2,0.5,6.3
			c0,2.5,0.2,5.1-0.4,7.5c-1.4,6.4-4.5,12.2-8.4,17.5c-0.6,0.8-1.3,1.2-2.3,1.1c-3.1-0.3-6.2-0.4-9.2-0.8c-2.5-0.3-4.9-1-7.4-1.5
			c3.2,2.5,6.8,4.2,10.7,5.2c2.3,0.6,4.8,1.1,7.2,1.3c3.4,0.2,6-1.2,7.4-4.4c0.4-0.9,0.9-1.8,1.2-2.7c1-3.7,2-7.4,2.9-11.1
			c0.4-1.6,0.8-3.4,0.7-5c0-3.3-0.3-6.7-0.6-10c-0.5-5.5-0.1-10.7,2.9-15.5C321,230.8,320.9,230.7,320.8,230.4z M252.7,365.3
			c3.1-1.2,5.7-3,7.9-5.4c1.2-1.3,2.1-2.7,2.2-4.5c0.1-2.1,1.1-3.8,2.6-5.1c1.5-1.3,3.2-2.5,4.9-3.6c1.3-0.9,2.8-1.7,4.1-2.6
			c1.3-0.9,1.6-1.6,0.8-2.9c-1-1.6-2.2-3-3.5-4.3c-0.4-0.4-1.6-0.6-2.2-0.3c-3.3,1.3-6.5,2.7-9.8,4.1c1.2,1.3,2.6,1.1,4.1,0.9
			c1.8-0.3,3.5-0.6,5.3-0.8c1.2-0.1,2.2,0.2,3,1.4c-0.9,0.4-1.6,0.7-2.3,1.1c-2.4,1.6-4.8,3-7,4.9c-2.3,2-3.9,4.7-4.4,7.7
			c-0.4,2.7-1.6,4.7-3.3,6.6C254.3,363.6,253.5,364.4,252.7,365.3z M220.8,85.4c0.1,0.1,0.1,0.3,0.2,0.4c2.2-0.9,4.4-1.9,6.7-2.8
			c10.6-4.5,21.3-8.4,32.9-9.5c3.6-0.3,7.2-1.4,10.7-2.2c1.4-0.3,2.8-0.9,3.8-2c-7.2,0.8-14.2,1.7-21.2,2.5
			C243,73,233.2,77,224.1,83C223,83.7,221.9,84.6,220.8,85.4z M434.5,344.6c0.3,1.5,0.6,2.6,0.8,3.7c1.4,8.1-4.5,14.7-12.6,14.2
			c-2.3-0.2-4.5-0.6-6.8-0.7c-3.8-0.1-6.6,1.7-8.8,4.5c2.1-0.4,4.1-1,6.1-1.5c1.3-0.3,2.4-0.4,3.5,0.8c1.1,1.3,2.8,1.6,4.5,1.2
			c1-0.2,2.1-0.4,3.1-0.5c6.3-0.4,10.3-4,13-9.3C439.6,352.7,438.2,347.6,434.5,344.6z M125.4,223.4c-0.4-2.5-0.8-4.7-1.1-7
			c-0.3-2.6-0.4-5.2,0.3-7.7c1-3.3,3.2-4.4,6.3-3.1c1.1,0.4,2,1.1,3.1,1.6c-0.2-1.2-0.6-2.2-1.1-3c-1.6-2.3-3.5-2.8-5.9-1.3
			c-1,0.6-1.9,1.5-2.6,2.5c-1.9,2.7-2.5,5.8-2.1,9.1c0.2,1.4,0.4,2.8,0.7,4.5c-5.3-1.2-7.8-5.1-10.1-9.6c-1.6,4.6,0,9.6,3.5,11.5
			c1.9,1,4.1,1.5,6.2,2.1C123.5,223.3,124.4,223.3,125.4,223.4z M384.5,140.6c0-0.2,0-0.4,0-0.6c-8.2-5.2-17.4-8-26.7-10.5
			c-1,1.4-1.8,2.6-2.7,4c1.9,0.4,3.5,0.8,5,1.2c6.4,1.6,12.8,3,18.5,6.5c0.4,0.2,0.9,0.3,1.4,0.3C381.5,141.2,383,140.9,384.5,140.6
			z M396.6,344.8c1.3,2.9,3,5.1,5.4,6.5c3.1,1.8,6.3,2.1,9.3-0.4c1.7-1.4,3.4-2.8,5.1-4.2c2.3-1.9,4.9-3.1,7.9-3.6
			c1.5-0.2,2.9-0.5,4.5-0.8c-0.2-0.3-0.3-0.5-0.4-0.6c-4-1.6-10.6-2.3-14.5,2.7c-0.3,0.4-0.7,0.7-1,1.1c-2.9,3-6.4,3.8-10.3,2.2
			C400.7,347,398.8,346,396.6,344.8z M435.7,127.5c-2.8,1.7-4.1,4-5.5,6.1c-3.2,5-6.1,10.2-11.4,13.7c2.7,0.8,5,0.1,7.2-0.4
			s3.6-1.8,4.6-3.9C432.8,138.2,434.2,133.1,435.7,127.5z M294.5,231.5c0-3-1.5-5.3-3.9-6c-1.9-0.6-3.6-0.1-4.6,1.7
			c-1.1,1.9-1.3,4-0.6,6.1c0.8,2.5,2.8,3.8,5.1,3.6c2.1-0.2,3.7-2,3.9-4.5C294.5,232,294.5,231.7,294.5,231.5z M277,141.8
			c10.3,0.4,20.4-0.7,30.5-2.4C297.1,137.6,286.8,136.6,277,141.8z M343.5,377.5c-3.3,1.9-5,4.5-6,7.5c-0.9,2.6-0.9,5.3-0.6,7.9
			c0.3,1.9-0.5,2.9-2.1,3.6c-1.1,0.5-2.2,0.9-3.4,1.4c2.8,1.1,4.7,1.1,6.7,0.2c2.2-1,2.9-2.1,2.6-4.6c-0.7-5.1,0.1-10,2.2-14.7
			C343,378.6,343.2,378.2,343.5,377.5z M432.8,337.6c-0.1-0.5-0.1-0.9-0.2-1.2c-0.9-3.1-0.7-6.2,0.6-9.1c2.6-6.1,2.8-12.4,2.3-18.9
			c0-0.5-0.2-1-0.3-1.4c-0.1-0.4-0.2-0.9-0.3-1.3c-0.4,7.9-1.8,15.6-5.8,22.7c0.8-0.1,1.1-0.1,1.7-0.2c-0.2,1-0.5,1.9-0.6,2.9
			c-0.2,1.3-0.4,2.6-0.3,3.9C429.9,336.7,430.5,337.1,432.8,337.6z M289.4,263.5c-1.2-2.1-2.3-3.8-3.3-5.5c-1-1.8-2-3.5-2.9-5.3
			c-1-1.9-1.9-3.8-2.8-5.6c-0.9-1.7-1.3-3.7-2.9-5.6c0,1.5-0.2,2.6,0,3.6c1.3,6,4,11.4,8,16.2C286.4,262.3,287.4,263.3,289.4,263.5z
			 M302.2,207.2c3.4,0.4,6.3-0.3,8.3-3.1c1.6-2.2,2.3-5.4,1.6-7.4C309.8,201.2,306.8,204.9,302.2,207.2z M306,212.5
			c0,0.2,0.1,0.3,0.1,0.5c1.4,0.1,2.9,0.4,4.3,0.4c2.9,0,4.7-1.3,5.6-4.1c0.8-2.3,0.9-4.6,0.1-7.5
			C315.4,208.3,312.3,211.9,306,212.5z M298.3,199.5c6.4,0.2,10.4-4.7,9.5-11.8C305.7,192.9,303,197,298.3,199.5z M122.4,195.9
			c4.5-1.8,8.9-1.9,13.5-1.2C132.9,190.8,126.4,191.3,122.4,195.9z M126.1,189.8c2.2-0.3,4.2-0.8,6.2-0.8c1.9,0,3.9,0.6,5.9,0.9
			c-0.8-2.4-2.8-2.9-5-3C130.5,186.6,127.9,187,126.1,189.8z M120.5,204.8c1.5-2.5,3.9-3.7,6.7-5
			C122.1,199.3,120.1,200.8,120.5,204.8z M302.1,187.4c-2,2.4-4.1,4.9-6.1,7.2C299.6,194,302.2,191,302.1,187.4z M136.6,185.2
			c-2.3-2.2-5.5-2.3-7.1,0C131.9,185.2,134.2,185.2,136.6,185.2z"/>
		<path d="M380.5,273c0.9,1.2,1.5,2,2.1,2.8c0.8-2.6-0.9-7.2-4.1-11c0.5,2.3,1,4.2,1.4,6.1c-0.1,0.1-0.2,0.2-0.4,0.3
			c-0.5-0.6-0.9-1.1-1.4-1.7c-3.6-4.8-7.5-9.4-12-13.4c-1.6-1.4-3.6-2.4-5.5-3.6c-0.3-0.2-0.6-0.4-0.9-0.3c-2.9,0.5-4.2-1.5-5.7-3.4
			c-0.5-0.6-0.9-1.3-1.4-2.1c-2.6,0.9-4.5-0.3-6.1-2.1c-1.4-1.6-2.6-3.3-3.9-5c-0.4-0.5-0.8-1.2-1.3-1.3c-2.2-0.5-3.1-2.3-4-4
			c-0.7-1.4-1.3-2.8-2.5-4c-1.1-1.1-1.7-2.8-2.2-4.3c-1.3-3.8-2.4-7.8-3.6-11.8c-3.1-1-4.1-3.7-4.7-6.8c-2.8-0.8-3.9-3.1-4.6-5.7
			c-0.8-2.7-1.4-5.5-2-8.3c-0.2-1.1-0.5-1.9-1.6-2.5c-2.9-1.5-5-3.8-6-7.1c-0.7-0.2-1.5-0.2-2.1-0.5c-0.9-0.4-1.8-0.8-2.4-1.5
			c-0.7-0.9-1.1-1.9-2.3-2.3c-0.4-0.1-0.7-0.9-0.8-1.4c-0.3-2.5-0.1-4.9,1.6-6.9c2-2.4,4.5-4.2,7.8-5.8c-1.4,2.4-2.7,4.2-3.7,6.1
			c-1.1,2-2,4.1-0.7,6.8c3.3-5.2,7.9-8.2,13.4-11c-0.5,1.1-0.8,1.6-1,2.2c-1.2,3-2.5,6-3.4,9.1c-0.6,2-0.8,4.4,1.3,6.2
			c4.2-4.4,9.5-6.7,15.2-8.5c-0.2,0.2-0.4,0.5-0.7,0.7c-0.3,0.3-0.7,0.4-1,0.7c-2.8,2.4-5.7,4.8-8.4,7.3c-1.3,1.3-2.4,2.9-1.9,5.2
			c1.9-1.1,3.6-2.7,6.1-1.8c-1.6,3.6-3.3,7.2-1.9,11.9c2.7-6.8,7.7-10.4,13.2-13.5c0.1,0.1,0.3,0.2,0.4,0.4c-0.5,0.6-1,1.2-1.5,1.8
			c-2.9,3.4-5.6,7-7.5,11.1c-1.1,2.4-1.9,4.9-1.7,7.5c0.1,1,0.3,2,0.7,3.1c1.1-5.8,4.8-9.6,9.6-12.8c-0.3,0.6-0.5,1.2-0.8,1.8
			c-2.3,4.7-3.9,9.7-3.7,15c0.1,2.5,0.6,4.8,1.9,7.5c0.8-4.6,3-8,7-10.2c-0.8,3-1.7,5.7-2.2,8.5c-0.4,2.1-0.4,4.2-0.4,6.3
			c0,1.6,0.6,3,2.3,4.2c1.4-5.5,5-8.7,10.4-10c-0.4,0.8-0.8,1.5-1.2,2.3c-1.9,3.6-3.6,7.3-3.9,11.5c-0.2,3.2,0.6,6.1,3.8,8.2
			c0.1-2.5-0.1-4.7,1-6.7c1.2-2,2.9-3.2,5.2-3.6c-0.7,2.3-1.6,4.5-1.9,6.8c-0.4,2.4,0.4,4.6,2.4,6.5c0.9-3.3,2.2-6.1,5.7-7.4
			c-0.2,1.5-0.6,2.9-0.6,4.2c0,1.9,0,3.9,0.4,5.8c0.3,1.2,1.1,2.4,1.9,3.3c3.6,3.8,7.3,7.4,11,11.1c0.1,0.1,0.3,0.1,0.8,0.4
			c-1.1-4.1-3-7.5-5-11.2c1.1,0,1.7,0.7,2.3,1.2c6.4,5.3,10.2,12.1,11.8,20.2c1.7,8.8,0.4,17.3-2.2,25.7c-1.7,5.5-4,10.8-6.7,15.9
			c-3.7,7-7,14.1-8.9,21.8c-1.1,4.3-1.9,8.6-0.7,13c0.4,1.7,1.3,3.3,2.3,4.8c1.2,1.7,3,2.6,5.2,2.6c4,0,8-0.2,11.8-1.6
			c3.3-1.1,6-3,6.8-7.2c1.8,3.1,2,5.9,1.3,8.8c-0.8,2.9-2.8,5.1-4.9,7.1c3.1,3.9,7.7,4.5,11.9,5.8c4.3,1.3,8.6,0.2,13.4-1.2
			c-2,3.1-4.5,4.5-7.5,4.9c-4.5,0.6-8.7-0.3-12.7-2.4c-2.3-1.2-4.6-2.5-6.9-3.7c-2.6-1.3-5.3-1.9-8.2-1.1c-2.7,0.7-5.2,0-7.6-1.5
			c-3.7-2.3-7.8-2.2-11.8-0.9c-2.5,0.8-4.9,1-7.4,0.4c-4.7-1-7.1-4.1-6.8-8.9c0.2-4.2,1.7-7.9,3.7-11.5c4.4-7.4,8.9-14.8,13.2-22.3
			c3.8-6.6,7.4-13.2,10.9-19.9c2.2-4.2,4-8.5,5.1-13.2c1-4.6,1.3-9.2,0.7-13.8C380.4,274.4,380.5,274,380.5,273z"/>
		<path d="M403.3,242.8c0.2,0.3,0.5,0.7,0.6,1.1c0.4,2.5,2.1,3.4,4.2,4.1c1.6,0.5,3.2,1.1,5.2,1.9c-0.7-1.5-1.2-2.5-1.8-3.7
			c6.6,3,9.2,8.9,6.8,15.2c0.1,0.1,0.1,0.3,0.2,0.4c3.4,2.3,3.5,5.2,1.3,8.5c-1.3,1.9-2.8,3.6-4.5,5.1c-2.7,2.3-4.8,5.1-6.6,8.1
			c-4.7,7.8-7.8,16.3-10.2,25c-2.8,10-4.6,20.3-5.9,30.6c-0.1,0.4-0.1,0.8-0.5,1.2c-0.2-1.1-0.4-2.3-0.4-3.4
			c-1.1-22.6,4.3-43.5,16-62.9c2.5-4.1,4.5-8.5,6-13c1.3-4.1,0.4-7.1-3-9.7c-2.6-2-5.7-3.2-9-3.5c-3.3-0.4-5,1.2-5.1,4.6
			c0,6.6-1.2,13.1-2.9,19.5c-0.1-0.2-0.1-0.5-0.2-0.7c-0.3-5.4-0.6-10.7-0.9-16.1c0-0.5,0-0.5,0.8-1.7c0.2-0.2,0.2-0.6,0.2-0.9
			c0.3-3,0.6-6,1-9.1c-2.2,0.8-2.6,2.7-3.3,5c-0.8-3.7-0.2-6.7,1.5-9.6c-2.6-0.3-2.6-0.3-7.4,4.8c-2.5-4.5-2-9.2-0.9-14.1
			c-1.8-0.2-2.7,0.9-3.6,1.9s-1.7,2.1-2.7,3.4c-0.4-2.1-0.6-3.9-1.1-5.7c-1-4.1-2.9-5.6-7-5.8c-1,0-2-0.3-3.4-0.5
			c0.8-0.9,1.3-1.5,1.7-2.1c1.1-1.5,0.9-2.5-0.7-3.4c-1-0.6-2.1-0.9-3.1-1.4s-1.9-1.2-2.9-1.8c0.3-0.5,0.4-0.8,0.5-1.1
			c0.8-1.6,0.6-2.3-1.1-3c-0.9-0.4-1.9-0.6-2.8-0.8c-2.3-0.6-3.8-1.8-4.5-4.3c-0.4-1.5-1.8-2.7-3-4.4c0.2-2.8,2-5.6,5.5-8
			c-0.1,1.1-0.2,1.9-0.2,2.7c-0.2,3.8,1.6,5.4,5.4,4.9c1.4-0.2,2.7-0.6,4-1c4.9-1.6,9.9-3.2,15.1-3.8c3.1-0.4,6.2-0.5,9.2,0.3
			c2.2,0.6,4.3,1.4,5.5,3.8c-2.6-0.4-5-0.8-7.4-1.1c-3.8-0.5-7.5-0.1-11,1.3c-3.5,1.4-5.9,3.9-7.3,7.5c-0.1,0.3-0.2,0.7-0.3,1.6
			c1.1-0.6,1.9-1,2.6-1.5c4.7-2.6,9.7-4.3,15.1-3.7c4.1,0.4,7.6,2,10.6,5c-3.2-0.4-6.1-0.9-9.1-1.1c-2.3-0.2-4.6,0.1-6.7,1.1
			c-2.7,1.2-4.2,3.2-4.6,5.9c1.1-0.1,2.1-0.2,3.1-0.4c4.9-0.6,9.8-0.1,14.4,1.7c1.5,0.6,2.9,1.4,4.2,2.4c1.7,1.3,2.6,3.1,2.2,5.4
			c-0.2,0-0.4,0.1-0.4,0c-3.1-4.6-7.9-5.6-12.9-5.2c-4,0.3-6.2,3.5-5.5,7.7c0.8-0.3,1.5-0.7,2.2-0.9c2.2-0.6,4.3-1.5,6.6-1.8
			c3.4-0.5,6.2,0.8,8.4,3.5c2,2.4,3.3,6.1,3.6,9.6c-0.7-0.3-1.3-0.6-2.3-1.2c0.9,1.8,1.7,3.2,2.6,5c0.2-1,0.3-1.6,0.5-2.5
			c2.2,2,4,4.2,5.6,6.7C407.4,243.6,405.3,243.2,403.3,242.8c-0.5-0.9-0.8-2-1.4-2.9c-1.8-2.4-4-2.3-5.6,0.2
			c-0.5,0.7-0.8,1.6-1.3,2.9C398,242,400.7,242,403.3,242.8z M400.2,234c-1.4-2.7-3-4.5-5.2-5.6c-1.3-0.7-2.7-0.6-3.9,0.4
			c-1.4,1.3-2.2,2.9-2.7,5.3C392.5,231.3,396.1,231.8,400.2,234z"/>
		<path d="M325.4,117.9c-6.1-0.8-11.9-1.8-17.7-2.4c-13.1-1.3-26.1-1.3-39,2.1c-6.5,1.7-12.6,4.4-17.9,8.5c-0.5,0.4-1.3,0.7-1.9,0.6
			c-3.3-0.6-6.7-1.4-10.3-2.2c0.5-0.5,1-1,1.5-1.3c6.7-4.6,14-7.5,22-9c1.2-0.2,2.3-0.7,3.3-1.3c2.9-1.6,5.8-3.3,8.7-5
			c7.5-4.3,15.7-6.5,24-8.4c9.7-2.2,19.2-4.9,28.6-8.2c4.2-1.5,7.9-3.7,11.2-6.8c3.8-3.6,7.5-7.2,11.4-10.7
			c5.7-5.1,11.7-9.9,19.1-12.5c6.8-2.4,13.8-3.7,21-4.1c7.8-0.5,15.6,0.4,23.3,1.4c5.9,0.8,11.8,1.6,17.6,2.4
			c4.1,0.5,8.1,0.3,12.1-0.6c3.3-0.7,6.3-2.2,8.9-4.3c0.5-0.4,1-0.8,1.6-1c-0.9,2.2-2.6,3.6-4.5,4.8c-3.4,2-7.1,3.1-11,3.9
			c-7,1.4-14,1.7-21.1,1.6c-6.1,0-12.2-0.4-18.3-0.1c-8.9,0.5-17.6,2.2-25.8,5.8c-5.9,2.6-11,6.2-14.9,11.5
			c-2.5,3.5-5.7,6.5-8.6,9.6c-0.6,0.7-1.4,1.2-2.5,1.4c0.2-0.4,0.4-0.8,0.7-1.2c3.4-4.9,6.9-9.7,10.2-14.6c1.8-2.7,4.3-4.6,7.1-6.2
			c5.3-2.9,11.1-4.8,17-5.9c4.9-0.9,10-1.4,15-2.1c1-0.1,1.9-0.2,3.5-0.3c-0.7-0.3-0.8-0.5-1-0.5c-11.8-0.4-23.4,0.9-34.5,5.3
			c-6.3,2.5-11.9,6-16.7,10.8c-0.5,0.5-0.9,0.9-1.3,1.4c-4.2,5.7-9.9,9.6-16.2,12.6c-9.4,4.5-19.3,7.1-29.6,8.8
			c-6.8,1.1-13.5,3-19.8,5.8c-1.4,0.6-2.7,1.3-4.1,3c1.5-0.1,2.5-0.2,3.5-0.3c9.8-0.8,19.7-0.7,29.4,1.2c4.6,0.9,9,2.2,13.1,4.4
			C323.5,116.7,324.3,117.2,325.4,117.9z"/>
		<path d="M127.9,118.5c0.3-4.5,0.6-8.4,0.7-12.2c0.3-8.4-0.2-16.7-2.6-24.9c-1-3.4-2.3-6.6-4.3-9.5c-4-5.9-9.6-8.8-16.7-8.9
			c-7.6-0.1-14.7,1.7-21.4,5.1c-16.1,8-28.2,20.2-37.1,35.7c-2.4,4.2-3.3,9-4,13.8c-0.6,4.4-0.6,8.8,0.4,13.1
			c1.9,8.1,6.8,13.5,14.8,15.9c4.2,1.2,8.2,2.6,11.9,4.9c2.3,1.4,4.7,3,6.7,4.9c5.4,5.1,6.9,11.4,4.9,18.5c-0.5,1.9-1.4,3.8-2.2,5.6
			c-0.2,0-0.3-0.1-0.5-0.1c0.1-0.5,0.1-0.9,0.2-1.4c0.3-2.7,0.8-5.3,0.8-8c0-6.4-3-11.4-8-15.2c-3.4-2.6-7.3-4.2-11.4-5.5
			c-3.1-1-6.2-1.9-9.2-3.3c-11.7-5.5-16.5-15.9-14.7-28.2c0.9-6.7,3.4-12.8,7.1-18.5c5.7-8.6,11.7-16.7,19-23.7
			c7.5-7.2,15.9-12.9,26-15.8c7.5-2.1,15.1-2.6,22.7-0.9c9,2,15.4,7.5,19.3,15.7c2.6,5.3,3.8,11.1,4.3,16.9
			c0.5,6.2,0.4,12.4-0.4,18.5c-0.2,1.4-0.7,2.6-1.9,3.5C131,115.7,129.7,117,127.9,118.5z"/>
		<path d="M404.7,109.8c-4.9-0.3-9.4-0.9-13.9-0.9c-12.2-0.2-22.9,4-32.2,11.8c-4.9,4.1-9.1,8.9-13.1,13.7c-0.8,0.9-1.6,1.9-2.3,2.8
			c-9.7,12.2-22.5,20-36.6,26c-3,1.3-6.4,1.8-9.6,2.5c-1.5,0.3-3.2,0-4.8-0.1c0-0.2,0-0.4,0-0.5c0.6-0.1,1.2-0.2,1.8-0.3
			c4-0.5,7.8-1.8,11.4-3.3c8.2-3.5,15.9-7.9,23-13.2c4.1-3,7.6-6.6,10.7-10.7c3.6-4.8,7.2-9.6,11.1-14.2c5.8-6.8,12.8-12,21.5-14.6
			c0.2-0.1,0.4-0.2,0.6-0.3c0.1-0.1,0.2-0.2,0.4-0.4c-6.7,0.6-12.8,2.7-18.4,6.1c-6.3,3.9-11.5,9-16.3,14.6
			c-1.8,2.1-3.6,4.2-5.3,6.4c-3.2,4.4-7.4,7.5-12.2,9.9c-6.1,3-12.5,4.9-19.1,6.5c-8.2,1.9-16.5,3-25,3.7c-2-2.9-3.9-5.9-6.1-9.1
			c1.8,0,3.2-0.1,4.6,0c10.8,0.5,21.6,0.1,32.3-2.1c4.9-1,9.6-2.5,14-4.9c3.6-2,6.6-4.6,8.9-8.1c6-9.1,13.9-16.4,23.6-21.5
			c14.9-7.8,30.2-7.9,45.8-2C401.1,108.2,402.8,109,404.7,109.8z"/>
		<path d="M294.1,50.7c-1.6,2-2.9,3.5-4.1,5c-2.4-0.2-4.8-0.5-7.1-0.7c-25.5-2-50.5,1-74.9,8.5c-1.3,0.4-2.6,1.1-3.7,1.8
			c-6.8,4.2-12.3,9.6-16.6,16.3c-2.6,4.1-4.9,8.4-7.4,12.6c-2.1,3.5-4.1,7-6.3,10.4c-3,4.7-6.7,8.8-10.9,12.4
			c-12,10.6-22.3,22.5-30.3,36.4c-1.6,2.7-2.9,5.6-4.4,8.4c-0.3,0.6-0.7,1.3-1.1,1.9c0.3-3.4,1.2-6.6,2.4-9.8
			c3.9-10.3,10.2-19.1,17.8-26.9c3.1-3.2,6.4-6.3,9.9-9.1c4.9-4,9.2-8.6,12.5-13.9c3.3-5.1,6.2-10.5,9.3-15.8
			c3-5.1,5.8-10.2,8.9-15.1c3.3-5.1,7.5-9.4,12.3-13.1c4.1-3.1,8.9-4.7,13.8-6.1c10.3-3,20.8-4.3,31.5-5c10.3-0.7,20.7-0.6,31,0
			C282.3,49.7,287.8,50.2,294.1,50.7z"/>
		<path d="M159.8,107.4c-2,3.3-4.1,6.3-7.5,8.3c-5.6,3.3-10.9,7.2-15.7,11.5c-2.4,2.1-4.4,4.5-6,7.3c-6.5,11.8-11.7,24.1-15.6,37
			c-0.3,1-0.5,2.1-0.7,3.1c0,0.2,0.1,0.5,0.1,0.8c0.8,0,1.6,0,2.8,0c-2.5,1.4-4.7,2.5-6.7,3.8c-2.1,1.4-4.2,2.8-4.4,5.7
			c3.2-1,6.3-1.9,9.4-2.8c-4,3.2-9.6,4.4-10.8,10.9c2.9-1.8,5.1-4,8.2-4.3c0.4,0,0.9,0.1,1.7,0.2c-0.4,0.3-0.6,0.5-0.7,0.6
			c-6.9,3.2-10.5,8.9-11.5,16.2c-1.6,11.3,1,22,6,32.1c1.7,3.5,4.7,4.9,8.4,4.7c1.8-0.1,3.5-0.5,5.4-1.2c-0.4-0.2-0.9-0.5-1.3-0.7
			c-1.4-0.7-2.8-1.3-4.1-2.2c-2.1-1.4-3.2-3.5-2.7-6.1c0.2-0.9,0-1.5-0.5-2.2c-1-1.5-1.4-3.1-0.9-5.1c1.1,1.1,2.1,2.1,3.2,3
			s2.3,1.5,3.9,1.4c-0.4-2.2-2.5-4.2-1.2-6.6c1.6,2.9,3.1,5.7,4.7,8.7c-2.5,1.7-5.1,2.3-8.3,0.6c1.3,3.3,3.4,5.1,6.5,5.8
			c3,0.7,5.7-0.3,8.9-1.1c-3.7,5-7.8,9.1-13.3,11.2c-1.2,0.5-2.5,0.8-3.8,0.9c-5.2,0.5-9.2-1.5-11.5-6.3c-1.9-3.8-2.9-7.9-3.5-12.1
			c-1.3-9.6-1-19.1,1.3-28.6c0.5-2.2,1.1-4.4,3.1-6.1c0.5,0.1,1,0.3,1.6,0.5c0.2-0.8,0.4-1.6,0.6-2.8c-0.9,0.7-1.5,1.1-2,1.5
			c-2.6-3.3-0.8-8.1,3.4-9.2c-2-1.5-2.4-3-0.8-4.8c2.1-2.2,2.9-4.8,3.9-7.5c4.2-11.5,8.8-22.7,14.2-33.7c4.6-9.3,10.7-17.2,19-23.5
			c4.9-3.7,10.2-6.7,16-8.6C158.7,107.6,159.3,107.5,159.8,107.4z"/>
		<path d="M214.6,272.5c-1.4,0.3-2.7,0.5-4,0.9c-5.1,1.6-7.4,5.3-6.1,10.5c0.7,2.8,1.9,5.5,3.3,8.1c1.4,2.6,3.2,4.9,4.9,7.3
			c7.5,10.3,13.6,21.4,17.5,33.6c0.1,0.4,0.2,0.8,0,1.3c-0.9-1.5-1.7-3.1-2.7-4.6c-1-1.7-2.1-3.3-3.2-4.9c-1-1.5-2.1-3-3.7-4.2
			c0,0.4-0.1,0.6-0.1,0.7c4.2,7.7,6.6,16.1,9,24.4c0.9,3,1.8,5.9,3,8.7c0.7,1.6,1.8,3.1,3.1,4.2c1.8,1.6,3.5,1.3,5-0.7
			c0.7-0.9,1.2-1.9,1.7-2.9c0.6-1,1-2,1.7-3c1.2-1.8,2.1-2,4.4-1.1c0.4,2.6-0.3,5-1.8,7.1c-1.3,1.8-3,3.5-4.7,4.9
			c-3.2,2.5-6.9,4-10.7,5.1c-0.5,0.1-1,0.2-1.4,0.2c-2.2,0.1-3.1-0.8-3.3-3c0-0.6,0-1.1,0-1.7c-2.3-0.6-2.5-2.3-2.5-4.2
			c0-8.9-0.8-17.7-2.8-26.4c-1.8-7.4-4.6-14.3-9.7-20.3c-2.8-3.3-5.3-7-7.7-10.6c-2.1-3.1-3.5-6.6-4.7-10.1
			c-0.8-2.4-2.2-4.7-3.6-6.9c-2.4-3.8-2.4-5.1,1.1-8c3-2.4,6.3-4.7,9.5-6.8C209.1,268.4,212.5,269.4,214.6,272.5z"/>
		<path d="M388.9,33.7c-3.5-0.1-6.4-1-9.4-1.8c-5.3-1.5-10.6-3.1-16-4.2c-7.4-1.5-14.8-0.8-21.9,1.3c-4.9,1.5-9,4.4-12.5,8.2
			c-3.2,3.3-5.6,7.2-7.8,11.2c-2.1,3.9-4,8-6.2,11.9c-2.2,3.8-4.8,7.3-7.3,10.9c-0.6,0.9-1.6,1.5-2.4,2.3c0,0-0.1-0.1,0-0.2
			c4.8-6.9,7.9-14.7,11.6-22.2c1.7-3.4,3.5-6.8,5.6-10c7-10.6,17.1-15.6,29.6-16.1c7.3-0.3,14.4,0.9,21.4,2.8
			c0.8,0.2,1.7,0.4,2.8,0.3c-0.6-0.4-1.2-0.9-1.8-1.2c-7.9-4.9-16.6-6.8-25.9-6.3c-3.8,0.2-7.6,0.7-11.3,1.8
			c-6.9,2.2-12.4,6.3-16.7,12.2c-2.5,3.4-4.8,7-7.1,10.5c-4.4,6.9-9.3,13.3-15.6,18.7c-8.8,7.5-18.8,12.4-29.9,15.3
			c-0.4,0.1-0.8,0.1-1.2-0.2c0.8-0.4,1.6-0.8,2.3-1.2c7.9-3.8,15.5-8.2,22.1-14.1c3.2-2.9,5.8-6.1,7.8-9.9
			c3.4-6.5,7.4-12.6,12.1-18.3c8.8-10.7,20.1-16.7,33.8-18.3c9-1.1,17.7-0.2,25.8,4c2.4,1.2,4.7,2.7,6.8,4.2
			C381.5,27.9,385,30.7,388.9,33.7z"/>
		<path d="M396.4,152.5c0.9-0.5,1.8-1,2.7-1.5c4.9-2.8,9.3-6.3,13.4-10.1c6.8-6.3,12.8-13.2,18.6-20.4c0.2-0.3,0.4-0.6,0.4-1.2
			c-0.5,0.4-0.9,0.7-1.4,1.1c-6.8,5.6-13.6,11.1-20.4,16.7c-9.2,7.5-19.9,11.2-31.5,12.7c-10.7,1.4-21.3,0.8-31.7-1.8
			c-0.8-0.2-1.5-0.4-2.6-0.8c1.2-1.3,2.2-2.6,3.4-3.6c0.4-0.4,1.3-0.4,2-0.4c4.9,0.6,9.8,1.5,14.7,2c7.9,0.7,15.8,0.6,23.6-1.1
			c5.7-1.2,10.8-3.5,15.3-7.2c8.5-6.9,17.1-13.8,25.9-20.4c4.6-3.5,9.4-6.8,14.3-9.8c6.3-3.8,13.4-5.4,20.8-5.2c1.4,0,2.8,0.4,4,0.8
			c3,1.1,3.9,3.2,3,6.2c-0.5,1.6-1.1,2.3-3,3.7c0.2-0.7,0.3-1.2,0.5-1.7c0.7-2.7-0.1-4.1-2.9-4.8c-2.9-0.7-5.8-0.4-8.7,0.5
			c-4.1,1.2-7.7,3.4-11.2,5.8c-5.5,3.8-10.1,8.5-14.6,13.2c-4.5,4.7-8.9,9.5-13.5,14.1c-3.9,3.9-8.2,7.5-13.1,10.1
			c-1.8,1-3.7,1.7-5.5,2.5c-0.7,0.3-1.5,0.5-2.3,0.7C396.5,152.7,396.4,152.6,396.4,152.5z"/>
		<path d="M339.6,325.8c1.2,1.6,1.5,3.2,1.6,4.9c0.2,2.8-0.2,5.6-1.2,8.1c-1.5,3.9-3,7.7-5,11.4c-3.2,6-6.9,11.8-10.3,17.7
			c-2.9,5.1-5.6,10.3-8.1,15.5c-2.1,4.3-2.4,8.9-1.2,13.6c0.2,0.9,0.5,1.7,1,2.5c0.8,1.2,1.9,1.3,2.7,0c0.5-0.9,0.9-1.9,1.2-2.9
			c0.9-2.8,1.7-5.6,2.8-8.3c0.7-1.7,1.7-3.3,2.8-4.8c0.9-1.3,2.2-2.1,4.1-2.1c-2.6,3.6-3.2,7.6-4.4,11.5c-0.8,2.8-1.8,5.6-2.8,8.3
			c-0.8,1.9-2.1,3.5-3.9,4.6c-3.7,2.2-11.2,1.5-14.3-1.5c-2.8-2.7-3.2-6.1-2.7-9.7c0.3-1.7,0.9-3.5,1.5-5.1
			c4.2-11.2,10.6-21,18.9-29.6c7.8-8.1,13.4-17.5,16.2-28.5C339,329.6,339.2,327.9,339.6,325.8z"/>
		<path d="M347.5,275.2c0.7,3.5-1.2,6.3-2.2,9.5c2.9-0.6,4.9-2.3,6.3-4.4c1.4-2,2.5-4.3,3.8-6.7c1.5,4.3-0.8,7.9-2,12.2
			c2.5-1.2,4-2.7,5-4.8c0.9-2,1.5-4.1,2.2-6.3c2.3,1.7,2.4,4.4,3,7.2c4.2-2,8.3-4,12.7-6.1c-0.1,1.8-0.1,3.3-0.2,4.9
			c-0.8,0.4-1.6,0.7-2.5,1.1c-6.5,2.6-13,5.2-19.4,7.9c-7,3-14,3.2-21.2,1c-2.6-0.8-5-1.9-7.5-2.8c-1.4-0.5-2.9-1.1-4.4-1.6
			c-1.6-0.5-3.1-0.9-4.6,0.4c-0.5,0.4-1.4,0.6-2.1,0.6c-3.6,0.1-6.4-1.7-9.5-3.9c1.7-0.3,2.9-0.5,4-0.8c3.6-1.1,6.3-3.2,8.6-6.1
			c3.7-4.7,5.6-10.3,6.6-16.1c0.3-1.9-0.4-4-0.6-6c-0.6-4.4-1.1-8.7-0.3-13.1c0.3-1.7,0.9-3.5,1.5-5.1c0.5-1.3,1.4-2.3,3-3
			c0.9,1.4,1.8,2.8,2.7,4.2c-4.8,3.7-4.4,8.9-4.1,14c0.1,2.1,0.4,4.2,1,6.3c0.7,2.8,0.4,5.5-0.4,8.2c-1.5,5.2-4,9.9-6.8,14.6
			c-0.3,0.6-0.7,1.1-1,1.8c1.2,1,2.4,0.5,3.4-0.1c1.4-0.9,2.8-2,3.9-3.3c1.7-2.1,3-4.4,4.5-6.6c0.4-0.7,0.8-1.4,1.4-1.9
			c-0.3,5.4-2.8,9.8-5.9,14.1c2.1,1,3.9,0.5,5.2-0.7c1.6-1.5,3-3.2,4.2-5c1.1-1.7,1.9-3.8,2.9-5.9c1.4,2.1,0.8,4.2,0.6,6.2
			c-0.3,2.1-0.8,4.1-1.4,6.6C343,283.4,345.2,279.2,347.5,275.2z"/>
		<path d="M495.4,159.8c-0.4-0.1-0.8-0.2-1.2-0.3c-8.3-3.1-16.6-2.8-24.9-0.1c-6.9,2.3-13.1,5.8-18.9,10.1
			c-4.8,3.6-9.5,7.4-14.2,11.2c-1.5,1.1-2.9,2.3-4.7,3.1c0.4-0.4,0.8-0.9,1.2-1.3c3.9-3.8,7.7-7.7,11.7-11.4c3-2.8,6.2-5.5,9.5-8
			c4.5-3.5,9.5-6.2,15.4-8c-2.1-0.8-3.8-0.7-5.6-0.6c-6.9,0.4-13.5,2-19.9,4.6c-5.4,2.2-10.4,4.9-15.2,8.2
			c-6.7,4.7-14.2,7.6-22.4,8.3c-7.5,0.6-14.2-1.3-19.2-7.3c-0.2-0.2-0.3-0.4-0.4-0.6c0-0.1-0.1-0.2-0.1-0.4c0.3,0,0.6,0,0.8,0.1
			c10.1,4.9,20.2,4.2,30.2,0c2.6-1.1,5.1-2.6,7.4-4.1c9.7-6.5,20-11.5,31.6-13.5c13.9-2.4,26.7,0.2,37.9,9.1
			c0.3,0.2,0.5,0.4,0.7,0.6C495.4,159.4,495.3,159.5,495.4,159.8z"/>
		<path d="M166.6,193.6c0.2,1.5,0.4,2.9,0.7,4.8c2.7-3.1,5.3-5.9,5.8-10.6c0.8,1.3,1.4,2.2,2.1,3.3c2.2-1.8,2.1-4.6,2.7-7.7
			c0.8,1.3,1.4,2.2,1.8,2.9c3-1.4,5.9-2.7,8.8-4.1c2.9-1.4,4.8-3.8,5.8-6.9c0.3-0.9,0.5-1.9,0.8-3c1.6,1.4,1.1,3.2,1.4,5.2
			c1.9-1.7,3-3.5,3.9-5.7c0.4,1.1,0.7,2.2,1.1,3.4c1.8-0.9,2.7-2.8,4.2-4.8c0.2,1.4,0.3,2.3,0.4,3.4c2.9-0.3,5.5-1.4,7.8-4
			c0.1,1.1,0.1,1.8,0.2,2.9c2.6-1.1,5-2.1,7.7-3.2c-0.4,0.7-0.7,1.3-1.2,2.1c2.2,0.3,3.9-0.3,6-1.4c-0.3,1-0.5,1.6-0.9,2.7
			c1.8-1.1,3.3-2,4.8-2.9c0.6,1.4-1.1,1.7-1.3,2.8c5.1,1.3,10.1,2.7,15.3,0.2c0.6,1.1,0,2.1-0.5,3.1c1.1,1.7,2.6,3.3,2.7,5.6
			c-0.2,0-0.4,0.1-0.4,0c-2.8-4.1-7-6-11.7-6.9c-1.8-0.4-3.7-0.4-5.6-0.6c-2.8-0.2-5.6-0.3-8.4-0.5c-0.5,0-1-0.1-1.4-0.4
			c-0.7-0.5-1.4-0.3-2,0.1c-0.4,0.2-0.7,0.4-1.1,0.5c-3.9,0.9-7.9,1.7-11.8,2.6c-2.2,0.5-4.6,0.4-6.2,2.5c-0.3,0.4-0.9,0.8-1.4,0.9
			c-2.4,0.4-4.1,2.2-6.2,3.3c-1.3,0.7-2.6,1.3-3.9,1.9c-1.4,0.7-2.9,1.1-4.2,2c-1,0.7-2.1,1.7-2.6,2.8c-0.7,1.4-1.6,2.4-3,3
			c-1.2,0.5-2,1.3-2.9,2.1c-1.9,1.7-4.1,3.2-6.2,4.7c-0.3,0.2-0.8,0.1-1.2,0.1c-0.9,0.1-1.1,0.4-1.1,1.5c0,0.4-0.1,0.8-0.3,1.1
			c-0.4,0.7-1,1.3-1.4,2c-3,4.5-3.1,9.2,0,13.7c0.9,1.3,2,2.3,3,3.5c1.1,1.2,2.2,2.4,3.1,3.7c2,3,2.3,6.2,0.9,9.5
			c-1.7,4.2-4.6,7.2-9.1,8.6c-4.2,1.3-8.5,1.6-12.7,0.3c-2.4-0.8-4.6-2-6-4.6c2.1-0.3,4.1-0.4,6-0.8c2-0.5,3.7-1.6,5-3.7
			c-1.4,0.3-2.6,0.7-3.8,0.9s-2.4-0.1-3.3-1.2c2.5-2.4,3.7-5.3,3.7-8.9c-2.3,1.1-4,2.9-6.5,3c0.8-2.2,1.6-4.4,2.4-6.7
			c1.1,1.1,0.5,2.6,0.7,4.2c1.4-0.9,2.7-1.7,4.1-2.6c1.3,3.7,0.4,7-1.1,10.7c1.8-0.3,3.4-0.5,5-0.8c0.1-0.9,0.1-1.8,0.2-2.8
			c2,1.9,1.1,4.5-3.1,10c4.4,0,10.2-3.7,11.7-6.3c1.2-2.1,1.5-4.3,0.9-6.6c-0.7-2.4-1.9-4.5-3.4-6.4c-1.4-1.7-2.7-3.5-3.6-5.4
			c-1.5-3.1-1.1-6.2,0.7-9.1c0.7-1.1,1.5-2.2,2.5-3c2.7-2.4,4.3-5.2,4.9-8.8c0.1-0.4,0.2-0.8,0.3-1.1
			C166.2,193.7,166.4,193.7,166.6,193.6z"/>
		<path d="M148.2,101.2c0.7-1.8,1.5-3.7,2.3-5.6c-4.3-1.1-6.5-4.2-7.7-8c-1-3-1.5-6.1-2-9.3c-0.3-1.8-0.4-3.6-0.4-5.3
			c-0.1-4.4-2.1-7.8-5.2-10.6c-3.9-3.5-8.6-5.4-13.6-6.7c-0.9-0.2-1.8-0.5-2.8-1c0.7-0.1,1.4-0.2,2-0.2c10.3,0.1,18.1,4.3,22.3,13.9
			c1.5,3.4,2.6,7,4,10.5c0.8,2,1.6,3.9,2.5,5.8c0.7,1.5,1.9,2.6,3.8,2.8c0.4-0.6,0.7-1.1,1.1-1.6c6.8-11.4,15.7-21,26.1-29.1
			c5.6-4.3,11.9-7.3,19-8.2c3.4-0.4,6.6,0.1,9.6,2.7c-0.7,0.2-1.2,0.4-1.6,0.4c-12,1.1-22.3,6.1-31.3,14
			c-9.1,8.1-15.8,17.9-20.9,28.9c-1,2.1-2.1,3.8-4.1,5c-1,0.6-1.8,1.3-2.7,2C148.5,101.4,148.3,101.3,148.2,101.2z"/>
		<path d="M473.8,87.9c0.3-1.7,0.7-2.9,0.8-4.1c0.1-2.5-1.3-4.1-3.8-3.9c-1.7,0.2-3.5,0.7-5.1,1.5c-4.2,2-7.6,5-10.9,8.1
			c-1.7,1.6-3.3,3.2-5.1,5c0-0.3-0.1-0.5,0-0.6c3.6-4.8,7.6-9.3,12.7-12.7c3.2-2.2,6.7-3.6,10.8-3c0-0.2,0-0.3,0.1-0.5
			c-0.7-0.2-1.3-0.5-2-0.6c-2.8-0.4-5.5,0-8.2,0.8c-7.2,2.1-13.2,6.4-18.3,11.7c-5.3,5.4-10.2,11.2-15.3,16.8
			c-4.6,5.1-9.1,10.2-13.9,15.1c-7.4,7.5-16.6,10.2-26.9,9.5c-7.7-0.5-15-3-21.8-6.5c-0.7-0.4-1.4-0.8-2.4-1.4
			c1.6-1.3,3-2.4,4.6-3.6c0.8,0.5,1.5,1,2.3,1.5c12.9,7.7,25.9,8.5,38.9,0.5c2.1-1.3,4-3.1,5.7-5c5.1-5.7,10-11.6,14.9-17.4
			c3-3.5,6-7.1,9.2-10.4c7.5-7.7,16.7-12.2,27.1-14.7c1.7-0.4,3.6-0.4,5.3-0.2c2.8,0.3,5.2,1.5,6.2,4.4c1.1,3.1,0.1,5.8-2.2,7.9
			C475.6,86.8,474.8,87.2,473.8,87.9z"/>
		<path d="M430.6,294.5c0.2,2,0.5,3.7,0.5,5.3c0.3,4.6-0.1,9.1-1.5,13.5c-2.2,7-6.7,11.8-13.8,14c-0.4,0.1-0.9,0.3-1.5,0.6
			c1.3,1.9,3.1,2.4,5,2.7c1.8,0.3,3.6,0.3,6.1,0.5c-2.3,1.6-4.1,2.9-6,4.3c0.5,0.9,2.5,1.3,1.6,3.1c-2-0.7-3.9-1.4-5.8-2
			c-3.8-1.2-4.4-2.2-3.8-6.1c-0.3-0.2-0.6-0.4-0.9-0.6c-3-1.7-4.4-4.2-4.5-7.6c-0.2-3.8,0.7-7.3,2.2-10.6c4-8.6,8-17.1,12-25.6
			c0.1-0.2,0.3-0.4,0.6-0.8c1.3,2.7,1.5,5.7,2.7,8.8c0.7-2.4,1.3-4.2,1.8-6.1c0.4,4.4,0,8.6-2.6,12.4c-0.6-3-1.1-6-1.8-9.4
			c-0.4,0.8-0.7,1.2-0.8,1.6c-1,3.1-2,6.2-3,9.3c-0.8,2.6-0.8,5.2,0.6,7.6c2.6,4.3,5.4,4.6,8.3,0.7c1.3-1.8,2.2-4,2.8-6.1
			C429.9,301,430.1,297.9,430.6,294.5z"/>
		<path d="M168.1,168.1c8.3-6.4,17-12.2,26.4-17c7-3.6,14.3-6.5,22.1-8.2c7.6-1.7,15.3-2.3,22.9-0.2c2.6,0.7,5,1.8,7.7,2.8
			c1.2-0.7,2.6-1.6,4.4-2.7c-0.6,2.1-1,3.7-1.4,5.2c2.1-1.1,3.5-2.9,6.2-3.5c-2.2,3.6-4.1,6.9-4,11.1c1.4-0.9,1.7-2.7,3.3-2.8
			c0.1,0.2,0.3,0.3,0.3,0.4c-2.1,4.7-1.9,9.6-1.6,14.6c0.5,9.5-2.5,17.9-9.5,24.7c0.3-0.7,0.6-1.3,0.9-2c2.5-5,4.4-10.2,4.6-15.8
			c0.5-11-3.9-19.6-13.1-25.6c-2.7-1.8-5.9-2.3-9.1-2.5c-7.7-0.6-15,0.9-22.3,3.2c-12.2,3.9-23.3,9.8-34.2,16.5
			c-1.2,0.8-2.4,1.5-3.7,2.3C168.3,168.3,168.2,168.2,168.1,168.1z"/>
		<path d="M146,156.7c0.5-0.7,0.9-1.5,1.4-2.2c5.8-9.4,11.5-18.9,17.5-28.2c9.4-14.4,21.8-25.4,38.5-30.8c6.6-2.1,13.5-3.5,20.3-5.1
			c7.3-1.8,14.5-3.6,21.8-5.3c0.3-0.1,0.6-0.1,1,0.1c-0.6,0.2-1.2,0.5-1.8,0.7c-12.1,4-24.1,8.3-35.7,13.7
			c-19.4,9.1-21.5,10.7-36.2,25.8c-8.9,9.2-16.9,19.1-24.7,29.3c-0.6,0.8-1.2,1.5-1.8,2.3C146.2,156.9,146.1,156.8,146,156.7z"/>
		<path d="M352.6,417.6c1.3-4.9,1.5-5.1,6.2-5.1c0.1-0.7,0.3-1.5,0.5-2.3c0.5-2,1.5-2.8,3.5-2.5c1.3,0.1,2.6,0.5,3.7,1.1
			c10.7,4.9,21.7,9.2,33.1,12.3c0.1,0,0.1,0.1,0.3,0.3c0,0.3,0.1,0.7,0,1c-2,9.5-8.5,15.6-18.2,16.8c-4.3,0.6-8.4,0-12.6-1.1
			c-0.2-0.1-0.4-0.2-0.7-0.3c-0.1,0-0.1-0.1,0,0c3.9-0.6,7.8-1.1,11.7-1.9c1.9-0.4,3.7-1.2,5.4-2.1c1.3-0.7,2.6-1.7,3.6-2.9
			c2.1-2.5,2-3.6-0.7-5.5c-2.2-1.6-4.6-3.2-7-4.4c-5.2-2.5-10.5-4.8-15.8-7.1c-2-0.9-2.5-0.7-3.2,1.4c-0.6,1.8-0.8,3.6-1.1,5.5
			c-0.2,1.2,0,2.4,0,3.9c-0.8-0.4-1.4-0.6-1.9-0.9c-4.5-2.4-9.1-4.7-13.5-7.3c-2.2-1.3-4.3-3-6.3-4.6c-0.8-0.6-1.4-1.4-1.9-2.2
			c-1.8-2.7-1.4-4.8,1.3-7.1C341,410.1,346.5,414,352.6,417.6z"/>
		<path d="M267,150.9c0.3,0.8,0.7,1.5,1,2.3c5.1,14.5,2.3,27.4-8.4,38.4c-5.4,5.6-12,9.7-19,13c-11.4,5.3-22.7,10.9-33.5,17.4
			c-1.5,0.9-2.9,1.8-4.3,2.7c-6.7,4.5-13.5,9.1-18.2,16.4c0-1.9,0.6-3.1,1.3-4.3c1.7-3.1,4.1-5.7,6.6-8.1c4.7-4.3,9.9-8,15.3-11.3
			c10.2-6.4,21-11.7,31.9-16.7c17.1-7.8,25.6-21.3,27-39.7c0.2-2.7,0-5.4,0-8c0-0.7,0-1.4,0-2.1C266.8,150.9,266.9,150.9,267,150.9z
			"/>
		<path d="M348.3,431.5c3.7,2.9,6.7,6.4,10.7,8.9c1.5-1.9,1.6-4.1,2.2-6.3c1.4,2.5,1.7,7.8,0.4,10c-0.4,0.7-1.1,1.3-1.7,1.6
			c-5.4,2-10.9,3-16.7,2.6c-1.9-0.1-3-1.1-3.6-2.8c-0.6-1.7-1.1-3.4-1.6-5.1c-1.2-4.2-2.9-8.1-4.8-12c-2.2-4.3-5.5-7.4-9.8-9.5
			c-2.6-1.2-5.4-2.3-8.1-3.5c-1.8-0.8-3.6-1.7-5.1-3.8c3.3,0.5,6.4,0.7,9.3,1.4c2.9,0.7,5.9,1.5,8.5,2.8
			c9.5,4.5,14.6,12.3,16.6,22.4c0.2,1,0.4,1.9,0.4,2.9c0,1.4,0.7,2.1,1.9,2.4c0.9,0.3,1.9,0.7,2.8,0.8c2,0.2,3-0.7,2.5-2.7
			c-0.5-1.9-1.2-3.7-2-5.5C349.8,434.5,349,433,348.3,431.5z"/>
		<path d="M283.2,336c7.7-7.9,11.3-14.3,11.1-20.6c-0.6,0.1-1.2,0.1-1.8,0.3c-4.5,0.9-8.9,1.8-13.4,2.8c-2.8,0.6-5.5,0.3-8.2-0.3
			c-2.3-0.5-4.6-1.1-6.9-1.6c-0.5-0.1-1.1-0.1-1.6-0.2c1.6,11.5,0,16-7.1,18.4c2.9-5.2,3.3-10-0.7-14.5c0.4,3,1.5,6,0.8,9.1
			c-0.1,0.5-0.5,0.9-1,1.4c-0.3-4.4-2.2-8.1-5.2-11.5c4.2-2,8.5-3.4,11.2-7.3c1,0.4,1.9,0.7,2.8,1c6.4,2.2,12.8,2,19.3,0.7
			c6.7-1.4,13-4,19.1-7.2c0.8-0.4,1.6-0.9,2.6-1.4c0,0.6,0,1-0.1,1.3c-3.1,7.4-6.6,14.7-11.5,21.2c-1.9,2.4-4.1,4.6-6.3,6.7
			C285.4,335,284.2,335.4,283.2,336z"/>
		<path d="M138.8,217.3c2.3-1.2,3.2-3.1,3.8-5.3c0.9-3.4,0.2-6.8-0.7-10.1c-0.3-1.2-0.8-2.3-1.1-3.5c1.1-0.2,2.1-0.4,3.1-0.6
			c-0.5-1.7-1.9-3-1.5-4.9c1.3,0.2,2.6,0.3,4.2,0.5c-0.4-1.7-0.8-3-1.3-4.7c1.9,0.4,3.4,1.4,5.1,0.7c-0.6-1.4-1.1-2.7-1.8-4.5
			c2.1,1,3.7,2.1,5.7,1.5c0-1.3,0-2.7,0-4.2c4.8,1.6,8.2-1.9,12.5-2.9c-0.6,0.6-1,1-1.5,1.4c-3.6,2.9-6.9,6.2-9.6,10
			c-4,5.5-6.5,11.6-6.7,18.5c-0.1,3.1-0.9,6-2.6,8.5c-3.4,4.9-9.1,5.6-13.9,1.6c0.4-0.3,0.7-0.5,1.1-0.8c1.7-1.1,2.5-2.8,2.6-4.7
			c0.1-2.8,0-5.7-0.1-8.5c-0.1-2.1-1-3.9-2.7-5.4c2.7-0.2,4.6,1,5.7,3.4c1,2.4,1.2,4.9,0.8,7.4C139.6,212.8,139.2,215,138.8,217.3z"
			/>
		<path d="M305,33.7c-0.9,1.4-1.7,2.5-2.4,3.6c-4.8-3-9.7-5.3-15-6.9c-19.3-5.8-36.3-1.7-50.7,12.4c-2.1,2.1-4.3,3.2-7.2,3.1
			c-1.7-0.1-3.4,0.3-5.6,0.4c10.2-10.7,21.8-18.5,36.2-21.3C276.2,21.9,290.9,25.4,305,33.7z"/>
		<path d="M316.4,107.7c0.7-0.1,1.4-0.2,2.1-0.3c12.8-1.1,25.3-3.5,37.3-8.1c2.9-1.1,5.7-2.7,8.4-4.4c3.4-2,6.7-4.3,10-6.5
			c8.7-5.9,18.2-7,28.2-4.7c4.9,1.1,9.8,2.5,14.6,3.7c1.8,0.4,3.6,0.7,5.4,1.1c-3.5,0.7-6.8,0.1-10.2-0.4c-3.9-0.7-7.8-1.4-11.8-1.9
			c-8.5-1-16.5,0.9-24,5c-2.2,1.2-4.4,2.5-6.5,3.9c-12.7,8.4-26.8,13.1-41.6,16c-1.5,0.3-3,0.2-4.5-0.4c-2.5-1-5-1.8-7.6-2.6
			C316.4,108.1,316.4,107.9,316.4,107.7z"/>
		<path d="M269.8,192c2.3-1.9,4.1-4.3,7.4-5.6c-1.3,1.6-2.4,2.9-3.4,4.1c0.1,0.2,0.1,0.3,0.2,0.5c2.9-1,5.6-2.6,8.8-2.3
			c-3.2,2.2-6.6,4.1-8.6,7.6c-0.3,0.6-0.5,1.3-0.7,2c3.1-2.4,6.4-4.4,10.5-4.4c-3.8,2.4-7.6,4.9-9.9,9.1c3.7-2.1,7.4-4.3,12-4.2
			c-5.7,3.5-9.9,8.2-11.8,14.8c3.8-3.6,7.9-6.5,13.5-6.3c-0.7,0.5-1.4,1-2.1,1.5c-3.7,2.5-7.2,5.3-10,8.9c-2.6,3.3-4.5,7-4.8,11.3
			c-0.1,1,0,2.1,0,3.2c-3.6-2.5-4.6-7-2.3-10.4c0.8-1.2,1-2.2,1-3.6c0.1-3.8,0.5-7.6,0.8-11.4c0.2-1.9,0.2-3.6-0.6-5.4
			c-0.8-1.8-1-3.9-1.2-5.9c-0.1-0.1-0.1-0.3-0.3-0.4c-3.2-2.5-3.4-3.9-0.9-7c1.7-2,3.7-3.5,6.2-4.6
			C271.9,186.1,269.9,188.6,269.8,192z"/>
		<path d="M317.9,228.2c-1,0.3-2,0.6-3.1,0.9c0.6,1,1.2,2.1,2,3.4c-1.1-0.1-1.8-0.2-2.7-0.3c0,2.5,0.1,4.8,0,7.2
			c-0.1,2.3,0.2,4.7-0.9,7c-0.5-2.3-0.8-4.5-1.3-6.6c-2.6-10.1-10.6-17.2-20.6-18.3c-1.1-0.1-2.3-0.1-3.3,0.4
			c-7.1,3.3-12,8.6-13.5,16.5c-0.8,4.5-0.5,9.1,1.1,13.5c1.4,3.9,3.2,7.6,4.9,11.4c0.3,0.7,0.8,1.4,0.9,2.4
			c-0.3-0.2-0.5-0.4-0.8-0.6c-5.9-6.9-9.5-14.7-9.7-23.9c-0.1-6.2,2-11.6,5.5-16.6c0.7-1,1.3-2.2,1.7-3.4c0.6-1.9,1.8-3,3.6-3.6
			c2.5-0.8,4.9-0.4,7.2,0.3c9.6,3.2,19.3,6.5,28.9,9.7C317.9,227.9,317.9,228,317.9,228.2z"/>
		<path d="M325.3,298c11.1,3.8,12.1,4,23.4,4.9c-1.6,2.9-4.1,4.4-7.1,5.5c1.9,1.6,4.3,1.5,6.3,2.1c2.4,7.2,2.2,21.4-3.1,29.2
			c0-0.9,0-1.8,0.1-2.6c0.5-4.6-0.1-9.1-1.6-13.4c-1.1-3.2-2.9-5.9-5.6-8.1c-3.6-2.8-6.7-6.1-9.3-9.9
			C326.8,303.3,325.5,300.9,325.3,298z"/>
		<path d="M294.2,284.3c0.8,1.3,1.7,2.9,2.6,4.5c-2,1.7-4.4,2.1-6.8,2.3c-3,0.2-5.9-0.5-8.5-1.7s-5.2-2.7-7.6-4.3
			c-4.1-2.6-8.5-4.3-13.5-4.4c-2.7-0.1-5.1,0.6-7.3,2.2c-4.1,2.8-7.1,6.6-9.4,11c-2.6,5.2-3.8,10.9-4.3,16.6c-0.1,1-0.1,2.1-0.2,3.7
			c-0.4-0.9-0.7-1.3-0.8-1.8c-1.8-6.9-0.8-13.4,2.6-19.5c1.9-3.4,4.4-6.4,7.3-9.1c0.6-0.5,1.2-1.1,1.6-1.8
			c-5.3,1.5-9.7,4.6-14.3,7.7c0.3-0.5,0.5-1,0.9-1.5c4.7-6.5,11-9.9,19-10.2c7.1-0.3,13.7,1.3,20,4.5c3.7,1.9,7.5,3.2,11.6,3.1
			C289.4,285.3,291.7,284.7,294.2,284.3z"/>
		<path d="M255.8,130.1c6-2.1,12-3.5,18-4.6c9.1-1.6,18.2-2.2,27.4-1.4c7.1,0.6,14,1.9,20.7,4.5c0.8,0.3,1.6,0.7,2.6,1.2
			c-1,1.4-1.9,2.5-2.5,3.4c-4.6-1.2-8.8-2.5-13.2-3.4c-6.7-1.3-13.6-1.5-20.4-1.1c-8.7,0.5-17.3,2-25.7,4.2c-1.1,0.3-2,0.3-2.9-0.4
			C258.7,131.5,257.4,131,255.8,130.1z"/>
		<path d="M256.6,254.4c2,3.4,2,3.4,2.2,5.6c-1.2-0.9-2.2-1.7-3.3-2.4c-1.2-0.7-2.5-0.8-3.6,0.5c0.5,0.8,1,1.6,1.4,2.5
			c0.3,0.8,0.4,1.7,0.7,3c-0.9-0.7-1.5-1.1-2-1.4c-1.5-0.9-3-2-4.6-2.6c-2.1-0.8-4.3-0.8-6.4,0.9c2.1,2.1,3.4,4.6,4.7,7.8
			c-0.9-0.6-1.4-0.8-1.8-1.2c-7.6-5.6-16.2-7.4-25.3-6.7c-4.6,0.3-9,1.3-13.3,3c-4.1,1.6-7.9,3.6-9.2,8.4c-1.6-2.3-1.9-4.1-0.4-6.1
			c1.1-1.5,2.5-2.8,4-3.9c6.2-4.3,13.3-5.4,20.7-4.9c3.7,0.2,7.4,0.7,11.2,1.1c3.3,0.4,6.6,0.4,9.8-0.9c1.3-0.6,2.8-0.7,4.3-1
			c1.4-0.2,2.8-0.1,3.9,0.9c1.6-1.1,3-2.4,4.6-3.3c1.6-0.9,3.5-1.3,5.4-2.1c0.7-1.9,1.3-4.1,3.5-5.3c0.2,3.1,0.5,6.1,0.7,9
			c-0.9-0.4-1.8-1.2-2.9-1.4C259.3,253.8,258.1,254.2,256.6,254.4z"/>
		<path d="M246,98.7c-18.7,3.2-35.2,11.3-50.3,22.5c-3.4,2.5-6.2,5.5-8.8,8.7c-5.4,6.4-10.6,13-16,19.4c-2.9,3.4-6.1,6.5-9.3,9.7
			c-1.4,1.4-3.2,2.5-4.7,3.7c-0.1-0.1-0.2-0.2-0.4-0.3c0.1-0.2,0.3-0.4,0.4-0.6c7.3-7.3,13.7-15.4,20-23.7
			c3.5-4.7,7.2-9.2,11.1-13.6c10.5-12.1,23.7-19.6,39.1-23.3c5-1.2,10.1-1.7,15.1-2.4C243.4,98.5,244.7,98.7,246,98.7z"/>
		<path d="M254.3,350.6c-0.2-0.4-0.3-0.5-0.3-0.7c0.7-3.4-0.8-6-2.9-8.6c-4.2-5.2-8.3-10.5-12.1-15.9c-4.6-6.4-8.4-13.3-10.6-21
			c-1-3.4-1.5-6.8-1.3-10.3c0.4-6-0.7-11.8-3.6-17.2c-0.1-0.3-0.2-0.5-0.1-0.9c3.5,1.8,4.7,5.2,5.8,9.1c2.5-3.8,3.1-7.6,2.5-11.8
			c3,2.4,4.1,5.7,2.6,8.7c-2.5,4.9-3.1,10.2-3.7,15.5c-0.3,2.7,0.4,5.3,1.1,7.9c1.4,4.6,3.5,8.8,6.2,12.7
			c3.8,5.4,7.8,10.6,11.8,15.8c1.6,2.1,3.2,4.1,4.9,6.1c2.2,2.5,2.2,5.3,0.9,8.2C255.2,348.9,254.8,349.7,254.3,350.6z"/>
		<path d="M97.5,68.7c-1.4,0.6-2.6,1.2-3.9,1.7c-9.1,4-17.9,8.7-25.4,15.2c-9.2,8-15.6,17.8-18.1,29.9c-0.6,2.8-0.9,5.6-1.1,8.5
			c-0.3,5,1.8,9,5.4,12.3c3.4,3.2,7.6,5.4,11.8,7.2c6,2.5,10.5,6.7,14.3,11.9c0.3,0.4,0.5,0.8,0.4,1.4c-0.4-0.3-0.8-0.6-1.1-1
			c-4.9-5.6-10.6-9.7-17.9-11.8c-2.2-0.6-4.4-1.7-6.5-2.8c-4.8-2.7-7.6-6.9-8.1-12.3c-0.8-8.2,0.8-16,3.6-23.7
			c4.7-12.5,13.3-21.6,24.7-28.3c6.4-3.8,13.3-6.4,20.5-8.3c0.2-0.1,0.5-0.1,0.7-0.1C97,68.4,97.1,68.5,97.5,68.7z"/>
		<path d="M210.9,125.7c4.6-2.2,9.3-4.2,13.8-6.7c12.6-6.9,25.2-13.9,37.7-20.9c11.3-6.3,23.2-10.5,36.1-12
			c5.9-0.7,11.9-0.6,17.8,0.4c0.8,0.1,1.6,0.3,2.3,0.8c-0.5,0-0.9,0.1-1.4,0.1C299,87,282.1,91.4,266,100
			c-14.7,7.9-29.5,15.9-45,22.3c-3.3,1.4-6.6,2.5-10,3.8C211,126,211,125.8,210.9,125.7z"/>
		<path d="M404.2,152.6c2.4-1.5,4.2-2.8,7.1-2.3c7.3,1.3,14.7,1.2,22-0.4c4.2-0.9,8.3-2.4,11.7-5.1c3.2-2.5,6.3-5.1,9.5-7.7
			c3.5-2.8,6.8-5.8,10.4-8.5c4.2-3.1,9-5.1,14.3-5.9c1-0.1,2.1-0.2,3.3-0.3c-0.3,0.3-0.3,0.5-0.4,0.5c-8.5,2.7-15.6,7.6-22.3,13.2
			c-3.4,2.9-6.9,5.7-10.2,8.8c-6.8,6.3-15.1,9-24.1,9.7c-6.4,0.5-12.8,0-19.1-1.5C405.7,153.1,405.1,152.9,404.2,152.6z"/>
		<path d="M259.6,140.1c-7.1-2.9-8.4-3.1-14.6-1.3c0.8-1.2,1.5-2,2.1-2.9c-3.4-0.9-6-0.3-9.9,1.2c-0.3-1.3-0.3-1.3,0.6-3.3
			c-2.4-0.8-4.9-1-7.3-1.2c-12-0.8-23.5,1.5-34.6,5.8c-1,0.4-2.1,0.7-3.2,0.8c0.5-0.3,0.9-0.6,1.4-0.9c9.3-4.8,19-8.6,29.4-9.9
			c9.1-1.1,17.9-0.3,26.2,3.7C253.4,134.3,256.9,136.7,259.6,140.1z"/>
		<path d="M193.7,93.4c0.2-0.3,0.4-0.6,0.6-0.9c6.7-8,14.5-14.7,23.6-19.8c4.9-2.7,10.2-3.7,15.5-4.7c8.8-1.6,17.8-2.1,26.7-1.5
			c0.3,0,0.6,0.1,0.9,0.3c-3.7,0.5-7.4,1.1-11,1.6c-13.9,1.9-26.9,6.1-38.7,13.8c-5.1,3.3-10.2,6.7-15.3,10.1
			c-0.7,0.5-1.4,0.9-2.1,1.4C193.9,93.5,193.8,93.4,193.7,93.4z"/>
		<path d="M320.8,230.4c0.1,0.4,0.2,0.5,0.2,0.5c-3,4.8-3.4,10.1-2.9,15.5c0.3,3.3,0.5,6.7,0.6,10c0,1.7-0.3,3.4-0.7,5
			c-0.9,3.7-1.9,7.4-2.9,11.1c-0.3,0.9-0.8,1.8-1.2,2.7c-1.4,3.2-4,4.7-7.4,4.4c-2.4-0.2-4.8-0.6-7.2-1.3c-3.9-1-7.4-2.7-10.7-5.2
			c2.5,0.5,4.9,1.2,7.4,1.5c3.1,0.4,6.2,0.5,9.2,0.8c1,0.1,1.7-0.3,2.3-1.1c3.8-5.3,6.9-11.1,8.4-17.5c0.5-2.4,0.4-5,0.4-7.5
			c0-2.1-0.4-4.2-0.5-6.3C315.5,238.1,317.8,234.2,320.8,230.4z"/>
		<path d="M252.7,365.3c0.8-0.9,1.7-1.8,2.5-2.7c1.7-1.9,2.9-4,3.3-6.6c0.4-3.1,2-5.7,4.4-7.7c2.2-1.8,4.6-3.3,7-4.9
			c0.7-0.4,1.4-0.7,2.3-1.1c-0.8-1.2-1.9-1.6-3-1.4c-1.8,0.2-3.5,0.5-5.3,0.8c-1.5,0.2-2.9,0.4-4.1-0.9c3.3-1.4,6.5-2.8,9.8-4.1
			c0.6-0.2,1.8-0.1,2.2,0.3c1.3,1.3,2.5,2.8,3.5,4.3c0.8,1.3,0.5,2-0.8,2.9s-2.8,1.7-4.1,2.6c-1.7,1.2-3.3,2.3-4.9,3.6
			c-1.5,1.3-2.5,3-2.6,5.1c-0.1,1.8-1.1,3.2-2.2,4.5C258.4,362.3,255.8,364.1,252.7,365.3z"/>
		<path d="M220.8,85.4c1.1-0.8,2.1-1.7,3.3-2.5c9.1-6,18.9-10,29.8-11.2c7-0.7,14-1.6,21.2-2.5c-1.1,1.1-2.4,1.7-3.8,2
			c-3.5,0.8-7.1,1.9-10.7,2.2c-11.6,1.1-22.3,5-32.9,9.5c-2.2,0.9-4.4,1.9-6.7,2.8C221,85.7,220.9,85.5,220.8,85.4z"/>
		<path d="M434.5,344.6c3.7,3,5.1,8.1,2.9,12.4c-2.7,5.3-6.7,8.9-13,9.3c-1,0.1-2.1,0.3-3.1,0.5c-1.7,0.4-3.4,0.1-4.5-1.2
			c-1.1-1.3-2.3-1.2-3.5-0.8c-2,0.5-4,1.1-6.1,1.5c2.2-2.9,5-4.7,8.8-4.5c2.3,0.1,4.5,0.5,6.8,0.7c8.1,0.6,14-6.1,12.6-14.2
			C435.1,347.2,434.8,346.1,434.5,344.6z"/>
		<path d="M125.4,223.4c-1-0.1-1.9-0.1-2.7-0.4c-2.1-0.6-4.3-1.1-6.2-2.1c-3.6-1.8-5.1-6.9-3.5-11.5c2.3,4.4,4.7,8.4,10.1,9.6
			c-0.2-1.7-0.5-3.1-0.7-4.5c-0.4-3.3,0.2-6.3,2.1-9.1c0.7-1,1.6-1.9,2.6-2.5c2.3-1.5,4.3-1,5.9,1.3c0.6,0.8,1,1.8,1.1,3
			c-1-0.5-2-1.2-3.1-1.6c-3.2-1.3-5.4-0.3-6.3,3.1c-0.7,2.5-0.7,5.1-0.3,7.7C124.6,218.7,125,220.9,125.4,223.4z"/>
		<path d="M384.5,140.6c-1.5,0.3-3,0.6-4.5,0.8c-0.4,0.1-1,0-1.4-0.3c-5.7-3.5-12.1-5-18.5-6.5c-1.5-0.4-3.1-0.7-5-1.2
			c1-1.4,1.7-2.6,2.7-4c9.3,2.5,18.5,5.3,26.7,10.5C384.5,140.2,384.5,140.4,384.5,140.6z"/>
		<path d="M396.6,344.8c2.2,1.1,4.1,2.2,6,3c3.9,1.6,7.3,0.8,10.3-2.2c0.3-0.3,0.7-0.7,1-1.1c3.9-5,10.4-4.3,14.5-2.7
			c0.1,0,0.2,0.2,0.4,0.6c-1.6,0.3-3,0.6-4.5,0.8c-3,0.5-5.6,1.7-7.9,3.6c-1.7,1.4-3.4,2.8-5.1,4.2c-3,2.5-6.2,2.2-9.3,0.4
			C399.5,349.9,397.9,347.8,396.6,344.8z"/>
		<path d="M435.7,127.5c-1.5,5.7-2.9,10.7-5.1,15.5c-1,2.1-2.4,3.3-4.6,3.9c-2.3,0.6-4.5,1.3-7.2,0.4c5.3-3.6,8.1-8.8,11.4-13.7
			C431.6,131.4,433,129.2,435.7,127.5z"/>
		<path d="M294.5,231.5c0,0.1,0,0.4,0,0.8c-0.3,2.5-1.8,4.3-3.9,4.5c-2.3,0.2-4.3-1.1-5.1-3.6c-0.7-2.1-0.4-4.2,0.6-6.1
			c1-1.7,2.7-2.3,4.6-1.7C293,226.3,294.5,228.6,294.5,231.5z"/>
		<path d="M277,141.8c9.8-5.2,20.1-4.2,30.5-2.4C297.4,141.1,287.3,142.2,277,141.8z"/>
		<path d="M343.5,377.5c-0.3,0.8-0.4,1.1-0.6,1.5c-2.1,4.7-2.9,9.6-2.2,14.7c0.3,2.4-0.3,3.6-2.6,4.6c-2,0.9-3.9,0.9-6.7-0.2
			c1.3-0.5,2.4-1,3.4-1.4c1.6-0.7,2.3-1.7,2.1-3.6c-0.4-2.7-0.3-5.4,0.6-7.9C338.5,381.9,340.2,379.4,343.5,377.5z"/>
		<path d="M432.8,337.6c-2.2-0.5-2.8-1-3-2.6c-0.1-1.3,0.1-2.6,0.3-3.9c0.1-0.9,0.4-1.9,0.6-2.9c-0.5,0.1-0.9,0.1-1.7,0.2
			c4.1-7.2,5.5-14.8,5.8-22.7c0.1,0.4,0.2,0.9,0.3,1.3c0.1,0.5,0.2,1,0.3,1.4c0.5,6.4,0.3,12.8-2.3,18.9c-1.2,2.9-1.5,6-0.6,9.1
			C432.7,336.8,432.7,337.1,432.8,337.6z"/>
		<path d="M289.4,263.5c-2-0.2-3-1.2-3.9-2.3c-4-4.7-6.6-10.1-8-16.2c-0.2-1,0-2,0-3.6c1.6,1.9,1.9,3.9,2.9,5.6
			c1,1.9,1.9,3.8,2.8,5.6s1.9,3.6,2.9,5.3C287.1,259.8,288.2,261.5,289.4,263.5z"/>
		<path d="M302.2,207.2c4.6-2.3,7.6-6,9.9-10.5c0.7,2,0,5.3-1.6,7.4C308.5,206.9,305.6,207.6,302.2,207.2z"/>
		<path d="M306,212.5c6.3-0.6,9.4-4.2,10.2-10.8c0.7,2.9,0.6,5.3-0.1,7.5c-0.9,2.8-2.7,4.1-5.6,4.1c-1.4,0-2.9-0.3-4.3-0.4
			C306.1,212.8,306,212.7,306,212.5z"/>
		<path d="M298.3,199.5c4.7-2.5,7.4-6.7,9.5-11.8C308.7,194.9,304.7,199.7,298.3,199.5z"/>
		<path d="M122.4,195.9c4-4.6,10.5-5.2,13.5-1.2C131.3,194,126.9,194.1,122.4,195.9z"/>
		<path d="M126.1,189.8c1.8-2.7,4.4-3.1,7.1-3c2.1,0.1,4.2,0.6,5,3c-2-0.3-4-0.9-5.9-0.9C130.4,188.9,128.4,189.4,126.1,189.8z"/>
		<path d="M120.5,204.8c-0.4-4,1.5-5.5,6.7-5C124.4,201.1,122,202.3,120.5,204.8z"/>
		<path d="M302.1,187.4c0.1,3.6-2.4,6.6-6.1,7.2C298,192.3,300.1,189.8,302.1,187.4z"/>
		<path d="M136.6,185.2c-2.4,0-4.7,0-7.1,0C131.1,182.9,134.2,183,136.6,185.2z"/>
		<path class="st0" d="M400.2,234c-4.1-2.2-7.8-2.8-11.8,0c0.5-2.4,1.3-4,2.7-5.3c1.1-1,2.5-1.1,3.9-0.4
			C397.3,229.6,398.8,231.3,400.2,234z"/>
		<path class="st0" d="M403.3,242.8c-2.6-0.8-5.2-0.7-8.4,0.2c0.6-1.3,0.9-2.1,1.3-2.9c1.6-2.5,3.9-2.6,5.6-0.2
			C402.5,240.7,402.8,241.8,403.3,242.8C403.2,242.8,403.3,242.8,403.3,242.8z"/>
	</g>
</g>
</svg>
