<?xml version="1.0" encoding="utf-8"?>
<!-- Generator: Adobe Illustrator 21.1.0, SVG Export Plug-In . SVG Version: 6.00 Build 0)  -->
<svg version="1.1" id="Layer_1" xmlns="http://www.w3.org/2000/svg" xmlns:xlink="http://www.w3.org/1999/xlink" x="0px" y="0px"
	 viewBox="0 0 500 500" style="enable-background:new 0 0 500 500;" xml:space="preserve">
<style type="text/css">
	.st0{fill:#FFFFFF;}
</style>
<g>
	<g>
		<path class="st0" d="M265.1,92.8L265.1,92.8c-2.2-3-4.7-5.8-7.7-8c-3.4-2.4-7-3.8-11.2-2.8c-0.9,0.2-1.7,0-2.5-0.6
			c-2.4-1.8-5.2-2.6-8.2-2.8c-4.6-0.3-9.1,0.5-13.3,2.1c-10.8-7.3-21.7-7.2-27-2.4c0.6,0.4,1.1,0.7,2,1.3c-1.7,0.2-2.9,0.3-4.5,0.5
			c0.8-0.8,1.2-1.3,1.7-1.8c-7.5-3.1-15-3.7-22.8-1.9c-6.7,1.5-14,4.3-15.1,5.8c4.5,1,9.3,1.8,13.8,3.2c4.5,1.4,8.8,3.5,13.4,5.3
			c-0.3-1.9-2.1-2.8-3.2-4.6c8.2-0.1,14.5,3.4,20.1,9.3c0.3-3.3-1.6-5.3-2.7-7.9c3,0.8,5.3,2.2,7.7,3.6c3.4,2,6.3,4.6,8.5,7.9
			c0.8,1.2,1.2,2.5,1.2,4.1c-0.1,2.2,0,4.4,0.3,6.6c1.5,9,6.5,15.8,13.4,21.4c0.5,0.4,1,0.6,1.5,1c-5.1-5.2-9.1-10.8-9.8-18.4
			c4-1,7.9-1,11.8-0.6c4,0.4,7.8,1.5,11.4,3.3c3.5,1.8,6.4,4.3,9.1,7.1c0-5.2-1.7-9.6-5.2-13.4c-2.5-2.7-5.4-4.7-8.6-6.3
			c-5.5-2.7-11.3-4.2-17.3-4.9c-1.4-0.2-2.4-0.6-3.2-1.7c-4.7-6.8-10.7-12-17.7-16c-0.4-0.2-0.8-0.6-1.2-0.8
			c9.4,1.5,16.6,6.8,23.8,12.9c-0.2-2.8-1.5-4.7-2.7-6.7c1.7,0.5,3.4,1,4.9,2c2,1.3,4,2.8,5.8,4.5c3.6,3.2,7.6,5.8,11.9,7.9
			c3.6,1.8,7,4.1,10.3,6.4c1.6,1.1,3,2.7,4.1,4.4c3.1,4.7,5.4,9.9,6.7,15.3c0.9,3.9,1.7,7.8,2.4,11.7c0.6,3.5,2.2,6.4,4.8,8.8
			c1.8,1.7,3.8,3.3,5.7,4.9c2.3,1.9,4.7,3.8,6.9,5.8c4.8,4.2,6.8,9.6,6.1,16c-0.2,2-0.5,4.1-0.8,6.5c1.3-1.2,1.9-2.5,2.2-3.8
			c0.9-3.4,0.5-6.7,0.2-10.2c-0.4-3.7-2-6.6-4.5-9.2c-2.5-2.6-5.1-5.2-7.7-7.8c-1.9-2-3.8-4-5.6-6.1c-0.6-0.7-1-1.5-1.7-2.6
			c2.5-0.1,4.4,0.5,6,1.6s3.1,2.4,4.8,3.6c-0.1-2.6-0.6-4.1-2.8-6.2c-2.7-2.6-5.6-4.9-8.6-7.2c-1.3-1-2.1-2-2.7-3.6
			c-1.9-5.7-4.1-11.3-7.1-16.6c-1.2-2.1-2.6-3.8-4.6-5.2c-5.9-4.1-11.7-8.3-17.5-12.4c-3.4-2.4-7-4.8-9.9-7.9
			c-1.3-1.4-3-2.5-4.4-3.8c-0.4-0.4-0.8-0.7-1.2-1.1c1.1-0.1,2,0.1,2.8,0.6c2.5,1.6,5,3.3,7.5,5c2.1,1.5,4.1,3.2,6.3,4.7
			c0.8,0.6,1.8,0.9,2.7,1.4c-2.2-3-5.3-5.3-5.2-9.8c2.2,1.9,4.1,3.6,6.1,5.2c2.1,1.6,4.4,2.9,6.3,4.5c2.2,1.8,4.1,4,6.1,6
			c0.3,0.3,0.5,0.6,1.1,1.3c-0.1-5.2-3.4-8.5-5.3-12.8c2.2,1,3.8,2.2,5,3.6c2.8,3.3,5.6,6.5,8.1,10.1c3.5,5,6.5,10.3,10,15.3
			c2.8,4.2,5.9,8.2,9,12.2c1.7,2.1,3.6,4.1,6.1,5.4c-9.5-12.5-15.5-27-24.2-40c3.3,1.2,6.2,2.5,8,5.9c1.7,3.4,3.9,6.6,6.2,9.6
			c1.6,2.2,3.8,4,5.7,6c0.4,0.4,1,0.6,1.5,0.8c-3.6-4.2-6.4-8.6-7.9-14.1c3.5-0.5,6.5,0.3,9.2,2c2.5,1.6,4.7,3.6,7.3,5.7
			c-0.6-2-1.1-3.8-1.8-5.5c-2.3-5.6-6.6-9-12.5-10.2c-2.2-0.4-4.5-0.3-6.8-0.4c-0.8,0-1.7,0.2-2.4-0.2
			C270.9,92.9,268,92.7,265.1,92.8z M153.6,240.3c1-0.1,1.6-0.2,2.1-0.3c4.2-1.2,8.5-2.3,12.6-3.7c19.9-6.8,38.2-16.6,54-30.6
			c3.1-2.7,6.2-5.5,9.2-8.4c2.5-2.4,4.2-5.3,5.3-8.6c2.8-8.3-0.8-20.6-7.4-25.6c-2-1.5-4-3.2-6.2-4.4c-4.7-2.6-9.5-5-14.3-7.3
			c-4.9-2.4-9.9-4.6-14.8-6.9c-4.6-2.1-8-5.5-10.2-10c-0.7-1.4-1.5-2.7-2-4.2c-1.5-3.5-2.9-7.1-4.2-10.7
			c-4-10.8-10.1-20.2-19.1-27.5c-1.2-0.9-2.4-1.7-3.9-1.9c-4.1-0.6-8.2-1.1-12.3-1.6c-1.2-0.2-2.5-0.2-3.7-0.3
			c0.8-0.8,1.7-1.2,2.6-1.5c4.9-1.4,9.7-0.8,14.3,1c6.1,2.4,11.3,6.1,16.1,10.3c0.5,0.5,0.9,1.1,1.2,1.8c2.1,4.5,5.3,8.2,9.2,11.2
			c4.8,3.8,10.3,6.6,16.1,8.4c1.6,0.5,2.7,1.3,3.6,2.6c1.8,2.6,3.8,5.1,5.9,7.5c3.8,4.5,8.3,8.2,14,10.2c2.8,1,5.6,2.3,8.3,3.6
			c5.3,2.6,10.2,5.8,13.8,10.6c0.1,0.1,0.3,0.2,0.7,0.4c-0.7-2.3-1.7-4.2-3.2-5.7c-2.5-2.5-5-5-7.8-6.9c-4.3-3-9-5.5-13.5-8.2
			c-2.7-1.6-5.5-3.2-8.2-4.9c-2.8-1.8-5-4.2-6.3-7.3c-0.5-1.1-0.6-2.3-0.8-3.5c-0.3-1.9-0.5-3.9-1-5.7c-0.2-0.9-0.8-1.9-2.1-2
			c0,1.7,0.5,3.4-1.3,4.7c-6.6-2.1-13-4.7-17.7-10.7c5.3-3.4,10.5-2.4,15.8-1.2c-0.1-0.3-0.2-0.5-0.3-0.6
			c-5.5-4.1-11.4-7.3-18.5-7.1c-1.4,0-2.4-0.4-3.5-1.2c-6.6-4.8-13.9-8.5-21.7-10.9c-3.3-1-6.6-1.6-10.1-1.3c-3.6,0.3-6.6,1.8-8.5,5
			c-0.5,0.9-1.1,1.2-2.1,1.3c-2.1,0.1-4.2,0.3-6.3,0.7c-3.6,0.6-7,1.6-10,3.7c-2,1.4-3.7,3-4.6,5.4c0.2,0.1,0.3,0.1,0.4,0.1
			c0.5-0.3,1-0.5,1.5-0.8c5-2.7,10.4-4.1,16.1-4.3c9.1-0.2,17.1,3,24.1,8.6s12.3,12.7,16.5,20.6c1.5,3,3,6,4.7,8.8
			c8.2,13.5,19.6,22.8,35,27.1c2.5,0.7,5,1.6,7.4,2.5c8.4,3.3,12.8,9.6,14.9,18.3c1.4,5.9-0.1,10.6-4,15c-3.6,4.1-7.6,7.5-12,10.7
			c-12.9,9.3-27,16.5-41.5,23c-0.2,0.1-0.5,0.1-1.2,0.3c1-0.8,1.5-1.3,2.1-1.7c8.2-6.6,16-13.5,23.4-21c5.2-5.3,10.2-10.7,14.6-16.7
			c3.9-5.3,7.4-10.9,9.5-17.6c3.2,3.3,4.1,7.6,6.2,11.2c0.2-0.7,0.3-1.3,0.2-1.9c-0.8-5.9-3.7-10.5-8.8-13.7
			c-1.9-1.2-3.9-2.1-5.9-2.9c-5.9-2.5-11.9-4.8-17.8-7.3c-11-4.7-20-11.5-26.1-22.1c-3.8-6.8-8.4-13.2-12.8-19.6
			c-2.2-3.1-4.6-6.1-7.3-8.8c-7.3-7.2-16.1-10.2-26.4-8.1c-4.4,0.9-8.7,2.3-12.1,5.4c-9,8-16.7,17.1-23,27.4
			c-5.1,8.3-8.8,17-9.8,26.8c-0.3,2.5-0.2,6,0.4,7.5c0.9-1.1,1.8-2.2,2.7-3.2c4.6-5.3,10-9.8,15.6-14c14.5-10.9,29.4-21.1,47.2-26.3
			c-0.7-0.1-1.4-0.1-2.1-0.1c-5.5,0.2-10.7,1.7-15.8,3.7c-8.8,3.5-16.8,8.6-24.4,14.1c-4.9,3.5-9.7,7.1-14.5,10.7
			c-0.7,0.5-1.4,0.9-2.4,1.6c2-4.8,6.4-11.9,10.7-17.2c12.4-15.2,28.2-24.3,48-25.8c4.8-0.4,4.2-0.9,7.2,3.3
			c2.4,3.3,4.5,6.8,6.6,10.2c5.1,8.1,10.4,15.9,17,22.8c8.8,9.2,19.1,15.9,31.7,18.6c0.4,0.1,0.7,0.3,1.2,0.6
			c-0.8,1.9-1.5,3.7-2.4,5.4c-3.3,6.5-7.3,12.5-11.5,18.4c-12.4,17.4-26.2,33.8-40.2,50C155,238.7,154.5,239.3,153.6,240.3z
			 M428.9,188c0.1,0,0.2,0,0.3,0c0.1-2,0.4-4,0.3-6c-0.2-9.1-0.4-18.2-0.8-27.3c-0.3-7.7-1.4-15.4-3.1-22.9
			c-1.3-5.7-2.9-11.3-5.9-16.5c-1.5-2.6-3.4-5-6-6.6c-2.4-1.5-3.5-1.3-5,1c-1,1.6-1.9,3.4-2.5,5.3c-1.4,4-2.6,8-4,12
			c-1.7,4.9-3.6,9.6-6.9,13.7c-2.1,2.7-2.5,5.5-2.1,8.7c0.7,5.9,2.8,11.4,4.9,16.8c5.4,14.1,11,28.2,15.2,42.7
			c5.2,17.8,8.8,35.8,10.5,54.2c0.4,4.4,0.8,8.8,1.2,13.2c0.4-0.9,0.6-1.8,0.6-2.8c0.4-9.9,0.5-19.8-0.3-29.7
			c-0.8-10.2-2.4-20.2-4.8-30.1c-2.9-12-7.1-23.5-11.6-34.9c-2.8-7-5.6-14-7.5-21.4c-2.2-8.9-2.2-17.5,1.8-26c0.3-0.5,0.6-1,1.2-2
			c-0.6,7.9,0.9,15,3,21.9c1.7,5.6,3.6,11.1,5.4,16.7c5.9,17.8,10.6,36,13.4,54.6c0.3,2,0.7,4,1,6c0.5-2.3,0.8-4.6,0.7-6.8
			c-0.4-8.9-0.5-17.9-1.3-26.8c-1-11.2-2.4-22.5-4.1-33.6c-2.4-16.1-5.8-32-9.8-47.7c-0.1-0.5-0.1-1-0.2-1.8
			c0.8,0.6,1.4,0.9,1.9,1.3c2.3,2.1,3.7,4.8,4.8,7.5c2.1,5.1,3.4,10.3,4.4,15.7c2.5,13,3.8,26.2,4.5,39.5
			C428.5,179.9,428.7,183.9,428.9,188z M187.9,188c-1.5,0-2.3,0-3.1,0c-5.4,0-10.7,0.9-15.9,2.2c-12.5,3.2-24,8.6-35.1,15
			c-16.5,9.6-31.4,21.2-45.6,33.8c-2.2,1.9-4.3,3.9-6.5,5.8c-0.1-1.1,0.1-2,0.4-2.9c3-9.3,7.5-17.8,13.2-25.7
			c10.3-14.3,23.2-26.1,37.6-36.2c1.9-1.3,3.6-1.4,5.3-0.3c1.5,0.9,3,2,4.1,3.3c1.4,1.6,2.3,3.5,3.4,5.3c0.4,0.6,0.6,1.2,1.1,2
			c0.7-2.3,0.6-3.6-0.6-6.3c-2.7-5.8-6.6-10.6-11.9-14.2c-1-0.7-2.1-1.2-3.2-1.7c-1.6-0.6-3.1-0.6-4.6,0.5c-2.1,1.5-4.4,2.8-6.5,4.4
			c-21.9,16.7-35.8,38.7-43,65.1c-1.5,5.6-2.4,11.3-1.9,17.1c0.2,2,0.3,4,1.6,5.9c0.3-0.4,0.5-0.6,0.7-0.9
			c3.6-6.2,8.1-11.6,13.1-16.6c11.2-11.3,23.9-20.8,37.2-29.5c0.3-0.2,0.7-0.3,1.1-0.6c2,2.4,4.6,2.8,7.4,2.4c2.2-0.4,4.4-1,6.5-1.8
			c2.7-1,5.2-2.4,7.8-3.4c8.8-3.6,17.8-6.3,27.3-7.1c2.4-0.2,2.8-0.6,3.1-3.6c-1.6,0-3.3-0.2-4.8,0c-4.6,0.8-9.1,1.5-13.6,2.8
			c-7.7,2.2-15.2,4.6-22.3,8.4c-1.3,0.7-2.9,1.1-4.4,1.4c-1.1,0.3-2.2,0.2-3.2-0.8c0.6-0.5,1-0.8,1.5-1.1c6-4.2,12.3-7.9,19-11
			c8-3.7,16.2-6.7,25.1-7.6c2.6-0.3,5.2-0.3,7.8-0.4C186.6,190.7,187.1,189.6,187.9,188z M195.2,274.6c-1.2-3-3.1-5.5-5.1-8
			c-1.5-1.8-2.9-3.7-4.2-5.7c-2.8-4.3-4.2-9-3.8-14.1c0.3-3.8,1.2-4.8,4.8-5.4c-1.7-3.5-4.1-3.8-6.4-0.8c-0.7,0.9-1.3,1.9-1.8,2.9
			c-0.7,1.6-1.3,3.3-2,5c-0.3,0.7-0.6,1.5-1.1,2.2c-10,13.3-18.3,27.7-25.3,42.7c-7.9,16.8-14,34.2-15.7,52.8
			c-0.5,4.9-0.4,9.8-0.1,15.2c0.3-0.7,0.4-0.9,0.5-1.1c0.1-0.4,0.2-0.8,0.2-1.2c1.7-12.3,4.6-24.3,8.2-36.1
			c3.2-10.2,7-20.1,12.4-29.4c2.5-4.2,5.3-8.2,8.8-11.6c3.1-3,6.5-5.4,10.8-6.3c2.7-0.6,5.5-0.7,8.1,0.6c3.1,1.6,3.5,3.7,1.1,6.2
			c-2.2,2.2-4.8,3.7-7.8,4.4c-4.9,1.1-9,3.7-12.6,7.2c-4.1,4-7.3,8.8-9.9,13.8c-5,9.4-8.2,19.5-10.7,29.8c-0.1,0.4-0.1,0.9-0.1,1.4
			c0.6-0.8,1-1.7,1.3-2.6c2.2-6.3,4.8-12.4,8-18.3c3.1-5.7,6.6-11.1,11.2-15.6c3.4-3.3,7.2-6,12-7.2c3.4-0.9,6-0.8,8.4,0.1
			c-14,4.5-22.8,14.1-27.6,27.6c0.7-0.5,1.1-1.1,1.6-1.8c3.8-5,8.1-9.6,13.2-13.3c6.4-4.6,13.2-7.8,21.3-5.8
			c0.2-0.3,0.4-0.5,0.5-0.7c0.3-0.7,0.5-1.4,0.8-2.1c2.6-8,4.4-16.2,5.2-24.5c0.3-3.4,0.5-6.8-0.4-10.2c-0.2-0.9-0.3-1.9-1.4-2.5
			C198.2,266.7,197,270.7,195.2,274.6z M332.2,265.1c0-0.1,0.1-0.2,0.1-0.4c-1.6-0.6-3.2-1.4-4.9-1.9c-3.6-1-7.1-2.3-10.6-3.5
			c-4.6-1.5-9.4-2.4-14.2-3.5c-2-0.4-3.7-1.1-4.8-3c-0.2-0.4-0.3-0.9-0.5-1.6c4.3,1.7,8.1,2.3,11.2,1.7c-2.1-0.6-4.2-0.9-6.1-1.7
			c-2-0.8-3.9-1.9-5.8-3c-0.9-0.5-1.7-1.4-1.7-2.6c0.3-0.1,0.5-0.1,0.7-0.1c0.5,0.1,1,0.2,1.4,0.2c16.2,3,32.5,4.8,49,3.6
			c3.8-0.3,7.5-0.6,11.1-1.8c-2.7,0.1-5.3,0.2-8,0.4c-12.2,0.9-24.4,0.5-36.5-1.7c-7-1.3-13.8-3.2-20.1-6.6
			c-0.7-0.4-1.4-0.8-2.1-1.2c0.1-0.1,0.1-0.2,0.2-0.4c1.1,0.2,2.2,0.4,3.2,0.6c-1.3-1.1-2.7-1.7-3.9-2.7c-1.2-1-2.2-2.3-3.3-3.6
			c-1.5-0.2-3.1-0.3-4.8-0.5c-0.6,5.7,3,9.1,6.7,12.3c-0.9,3.6,1.7,5.9,3.4,8.7c-0.8-0.2-1.3-0.3-1.6-0.4c0,3.8-0.1,7.6,0,11.4
			c0.1,3.2,0.3,6.3,0.4,9.5c0,0.1-0.1,0.3-0.1,0.5c-0.4-0.1-0.7-0.1-1.1-0.2c-0.2,3.6-0.6,7.1-0.6,10.7c0,1.8,0.1,3.6,0.7,5.3
			c2.2,6,6.4,10.1,12.6,12c4.7,1.4,9.3,1.1,14,0.2c3.1-0.7,6.2-1.5,9.1-3.1c-4.8,0.5-9.6,0.8-14.3,0.1c-4.8-0.7-9.3-2.1-13.1-5.3
			c7,1.1,9.2,1.1,11.3-0.1c-7-1.7-12.3-6-14-11.5c3.4,3,7.4,4.2,11.6,5c5.4,0.9,10.8,1.2,16.3,0.6c1.4-0.1,2.5,0.2,3.7,0.8
			c2.4,1.2,4.8,2.4,7.3,3.2c3.8,1.3,7.7,1.5,11.5,0.2c0.8-0.3,1.8-0.5,2.5-1.5c-1.7-0.2-3.3-0.3-4.8-0.4c-2.6-0.3-5.1-0.9-7.4-2.2
			c-1.6-0.9-3.2-2-3.8-4c1.4-1.9,3.6-2.4,5.5-3.5c-1.1-0.1-2.3-0.2-3.3,0.1c-2.3,0.9-4.6,2-6.9,3c-0.8,0.4-1.6,0.9-2.4,1.1
			c-4.6,0.8-9.2,1-13.8,0.5c-3.6-0.4-7-1.4-10.1-3.4c-1.8-1.2-3.2-2.6-4.2-4.5c0.6,0.1,1.1,0.3,1.5,0.6c3,1.7,6.3,2.5,9.8,2.5
			c5.5-0.1,10.7-1.9,16.1-2.7c-1.7-0.2-3.4-0.2-5.1-0.1c-2.8,0.1-5.7,0.4-8.5,0.4c-2.7,0-5.4-0.4-7.9-1.5c-4.4-1.9-7.3-6.4-7-11.3
			c4.7,4.5,10.2,6.2,16.4,4.9c-7.2-2.1-10.9-6.6-9.7-12.2c0.6,0,1.3,0,1.9,0.2c4.1,1.2,8.3,2.3,12.4,3.7c4.1,1.5,4.1,1.8,2.3,6.1
			c1.8-0.9,3.3-1.6,4.7-2.5c1.2-0.7,2.4-1,3.7-0.8C329.1,264.7,330.7,264.9,332.2,265.1z M314.5,236.9c-1.1-0.3-2.2-0.6-3.2-1
			c-2.6-1-5.3-2.1-7.9-3.2c-1.3-0.6-2.5-1.4-3.2-3.1c7.5-2.7,14.4-1.7,21.6,1.7c-0.9,1.6-1.7,2.9-2.4,4.3c2.4-0.5,4.6-1.5,6.7-2.3
			c0.8-0.3,1.7-0.6,2.5-0.6c3.6,0,7.2,0.2,10.7,0.1c4.9-0.2,9.7-0.9,14.2-3c6.1-2.8,9.1-7.5,8.6-14.2c-0.2-3-1.1-5.9-1.8-8.8
			c-0.3-1.2-0.3-2.3,0.5-3.4c1.3-1.8,2-3.9,2.1-6.4c-1.1,0.9-2,1.7-2.9,2.3c-2.2,1.6-2.7,1.5-4.5-0.5c-1-1.1-1.8-2.3-2.7-3.5
			c-3.5-5.1-5.9-10.7-7.8-16.5c-0.1-0.4-0.2-0.9-0.3-1.6c6.9,2.3,13,5.2,16.9,11.6c0.2-0.5,0.3-0.6,0.3-0.8s0-0.5,0-0.7
			c-0.2-3.7-1.9-6.9-4.3-9.6c-3.3-3.7-7.2-6.6-11.6-8.8c-3.5-1.7-6.2-4.2-8.4-7.2c-1.6-2.2-3.3-4.5-4.6-6.9
			c-2.5-4.5-4.9-9.2-7.3-13.8c-2.4-4.5-4.8-9-8.1-13c-3.6-4.4-7.9-7.7-13.3-9.5c-0.7-0.2-1.4-0.4-2.1-0.6c0.2,0.5,0.6,0.8,0.9,1
			c5.9,3.3,10.6,7.9,14.1,13.6c2.4,4,4.4,8.1,6.4,12.3c2,4.1,3.6,8.4,5.5,12.5c1.9,4,4.1,7.7,7.5,10.7c0.6,0.5,0.9,1.3,1.2,2.1
			c2.3,6.2,4.5,12.5,7,18.7c2.6,6.2,5.5,12.4,9.7,17.7c1.9,2.4,3,5,3.6,7.9c1.1,5.4-0.9,9.7-5.7,12.3c-1.2,0.6-2.5,1.3-3.8,1.5
			c-3.3,0.7-6.7,1.4-10.1,1.6c-5.3,0.3-10.5,0.3-15.7-1.3c-3.1-1-6.3-1.6-9.5-2.1c-7.8-1.2-15.6-1-23.1,1.8
			c-0.8,0.3-1.9,0.3-2.8,0.1c-4.1-0.9-7.2-3.2-9.3-6.9c-0.7,0.1-1.4,0.1-2,0.2c-0.7,0-1.4,0.1-2.2,0.1c1.9,5.8,8.4,9.2,18.7,9.9
			c2.9,3.5,4.9,4.8,8.5,5.6C305.6,238.2,310.1,238.1,314.5,236.9z M395.6,385.8c0.1,0,0.2,0.1,0.2,0.1c0.3-0.7,0.6-1.4,0.9-2.2
			c4.9-14.2,9-28.7,11.1-43.6c1.7-11.7,2.2-23.3,0.3-35c-1.1-6.9-3-13.5-6.7-19.4c-0.8-1.2-1.7-2.3-2.5-3.5
			c-6.1,3.4-12.3,13-10.8,21.7c1.6-3.9,2.8-7.5,4.8-11.3c1,1.1,1.9,1.8,2.4,2.7c1.2,2.1,2.3,4.3,3.1,6.6c2,6.1,2.9,12.5,3,19
			c0.2,6.3,0.1,12.7,0,19c-0.1,4.9-0.6,9.7-0.9,14.6c-0.6-1.5-0.8-3-0.9-4.5c-1-11.3-3.1-22.4-6.3-33.2c-0.3-1.1-0.8-1.7-1.8-2.4
			c-1.1-0.8-1.9-2.2-2.7-3.3c-0.3-0.4-0.5-0.8-1-1.6c-0.2,3.4,1,5.8,3,7.7c0.8,0.8,1.3,1.6,1.4,2.7c0.6,3.5,1.4,7,1.9,10.6
			c1,7.9,2.1,15.8,2.7,23.7c0.6,7.6,0.6,15.3-0.1,22.9C396.3,379.8,395.9,382.8,395.6,385.8z M202,142c-0.1,0.1-0.2,0.3-0.4,0.4
			c0.9,0.6,1.7,1.2,2.6,1.8c4.4,2.8,9.3,4.7,14.2,6.2c1.8,0.5,3.6,1.2,5.2,2.1c7.5,4.3,13.1,10.4,16.4,18.4c3,7.5,2.6,14.8-1.7,21.7
			c-1.5,2.5-3.6,4.6-5.5,6.8c-0.4,0.5-0.8,0.9-1.4,1.6c4.1,0.1,7.2-1.2,9.2-4.8c2,0.8,3.5-0.2,4.8-1.6c3.1,1.5,4.2-0.8,5.5-3.1
			c1.7,1.9,3.3,2.1,5.2,0.5c0.4-0.3,1.2-0.3,1.8-0.3c2.2,0,4.4,0.2,6.6,0c6-0.6,10.8-3.1,12.9-9.1c1.4-3.9,1.5-8,0.5-12
			c-0.3,1.2-0.3,2.4-0.6,3.6c-0.6,2.3-1,4.6-1.9,6.8c-2.1,5-5.8,7.9-11.3,8.5c-1,0.1-2,0.4-3.2-0.2c1.2-1,2.2-1.9,3.2-2.8
			c-2,0.4-3.8,1.3-5.6,1.9c-1.8,0.6-3.8,0.8-5.6-0.3c1.8-8.5,0.7-17-3.1-21.8c0.1,0.8,0.2,1.3,0.3,1.9c0.8,4.2,1.3,8.4,0.8,12.6
			c-0.6,4.5-2.1,8.4-6.3,10.7c-0.5,0.3-1.1,0.4-2,0.7c0.8-1.4,1.4-2.5,2-3.6c4.9-9.5,3.9-18.9-3.1-26.9c-2.4-2.7-5.3-5.1-8.2-7.3
			c-4-3-8.5-5-13.4-6.2C213.7,146.7,207.7,144.9,202,142z M285.2,309.1c-1.4,4.8-2.5,9.1-1.7,13.6c0.2,1.3,0.1,2.5-0.3,3.8
			c-0.8,3-1.7,5.9-2.1,9c-0.3,2.3-0.8,4.4-1.6,6.6c-0.6,1.6-1,3.3-1.4,4.9c-0.6,2.8-1,5.6-0.2,8.4c0.5,1.7,1,3.3,3,4.4
			c-0.8-3.1-1.5-5.9-0.9-9.3c0.6,1.1,1,1.8,1.4,2.5c1.4,2.4,3,4.7,5.4,6.2s4.9,2.1,8,1c-7.2-2.5-11.1-7.6-10.6-13.5
			c5.3,6.4,7.9,7.6,11.6,5.2c-6.4-4.7-9.3-11.3-10.1-19c2.5,4.3,5.3,8.2,10.2,9.9c5.1,1.7,9.7,0.3,14.1-2.4
			c-4.2,0.3-8.3,0.1-11.8-2.6c-3.4-2.6-5.3-6.1-6.6-10.5c8.2,3.8,9,4,10.8,1.9c-3.8,0.2-6.2-1.9-7.9-4.8c-1.7-2.9-3.2-6-5.8-8.3
			c-0.7-0.6-1.1-1.6-1.6-2.5C286.7,312.4,286.1,311,285.2,309.1z M286.7,289.9c-0.3-0.1-0.6-0.2-0.8-0.3c-0.5,1-1.2,2-1.6,3.1
			c-0.5,1.8-0.9,3.6-1.1,5.5c-0.6,4.9-1.6,9.6-4.1,13.9c-0.7,1.2-1.5,2.2-2.9,2.8c-1.4,0.5-2.8,1.2-3.6,2.7c0.4,0.1,0.6,0.2,0.8,0.3
			c2.7,1,3.1,1.4,3,4.2c0,3.4,0,6.8-0.2,10.2c-0.2,2.7-0.2,5.5-1.5,8.4c-1-0.6-2.1-1-2.7-1.7c-1-1.3-2-2.8-2.6-4.3
			c-1.5-4-1.2-8.1-0.7-12.3c0.1-0.5,0.1-1,0.1-2c-3.4,3.5-5,7.2-5.2,11.5c-0.2,5.9,1.7,11.2,4.9,16c0.9,1.3,1.3,2.5,1,4.1
			c-0.2,1-0.3,2.1-0.5,3.1c-0.9,3.8-1.8,7.6-2.8,11.4c-1,3.7-1.6,7.5-1.3,11.3c0.2,2.1,0.7,4.2,1.8,6c2.5,3.8,9,4.9,12.2,2.3
			c-2-0.3-4.3-0.4-6.4-1c-2.5-0.7-4.2-2.5-4.6-5.2c-0.5-3.8,0.8-7.1,2.7-10.5c0.6,1.4,0.9,2.6,1.5,3.7c1.5,2.9,4.1,3.5,7.3,1.4
			c-4-0.1-5.5-2.7-6.3-5.9c-0.5-1.9-0.8-4-0.8-6c-0.2-4.6,0.3-9,2.4-13.3c2.4-4.8,3.7-10.1,4.1-15.5c0.3-4.2,0.3-8.4,0.6-12.7
			c0.1-1.1,0.3-2.2,0.7-3.3c0.6-1.7,1.7-3.2,2-4.9C283.7,305.3,285.2,297.6,286.7,289.9z M242.5,203.7c-1.4,1-2.6,2.3-3.1,4.1
			c-0.5,1.4-0.2,2.1,1.2,2.7c1.8,0.7,3.6,1.4,5.5,1.9c4.2,1,8.5,1.1,12.9,0.6c1.5-0.2,2.7,0.1,4,1.1c1.7,1.4,3.6,2.6,5.6,3.5
			c3.8,1.7,7.8,2,12,0.4c-1.8-0.7-3.5-1.1-5-1.9c-1.6-0.8-3-1.9-3.3-4.1c5.3-0.5,10,0.9,14.4,3.4c-0.1,0.7-0.2,1.1-0.4,1.6
			c0.6,0,0.9,0,1.2,0c5.9-0.5,11.3,0.5,16.1,4.2c1.1,0.8,2.4,1.4,3.6,2c2.1,1.1,4.4,1.2,6.7,0.7c1.9-0.4,3.8-0.8,5.7-1.4
			c4-1.3,8.1-1.5,12.3-1.1c2.8,0.3,5.7,0.4,8.5,0.3c2-0.1,4-0.6,5.9-1.3c1.8-0.6,2.9-2.1,3.2-4c0.5-3.4-0.9-6.2-2.5-8.9
			c-0.2,0.3-0.2,0.5-0.2,0.8c0.9,6.1-1.4,9.2-7.5,10.2c-3.8,0.6-7.6,0.1-11.4-0.7c-2.1-0.4-4-0.2-6,0.4c-1,0.3-2,0.6-3,1
			c-6.9,2.4-7.3,2.4-13.9-0.8c-4.5-2.2-9.3-3.3-14.4-3.3c-0.8,0-1.8-0.3-2.4-0.8c-2.7-2.1-5.7-3.4-8.9-4.3c-4.8-1.3-9.7-1.2-14.5-1
			c-3.2,0.2-6.5,0.6-9.7,0.6c-2.8,0-5.4-0.8-7.5-3c-0.3-0.3-0.8-0.6-1.2-0.8C245.2,205,244,204.5,242.5,203.7z M394.9,224.8
			c-0.3-14.4-0.6-28.8-0.9-43.1c-0.4,0.6-0.5,1.2-0.5,1.9c-0.3,6.7-0.4,13.5-0.9,20.2c-0.5,7.5-1.2,15.1-2.1,22.6
			c-0.3,2.3-0.9,4.7-2,6.7c-1.4,2.7-2.3,5.4-2.2,8.4c0.2,9.3,3.4,17.5,9,24.7c0.6,0.8,1.3,1.4,2.1,2c0.7,0.5,1.4,0.8,2.2,1.3
			c-6.6-8.8-10.9-18.2-10.1-29.4c2.2,7.2,3.9,14.7,9.8,20c-0.5-1.9-1.3-3.8-2-5.7c-2.2-5.9-2.6-11.8,0.1-17.5c2.4-5.1,3-10.4,3-15.9
			c-0.1-4.6-0.1-9.3-0.3-13.9c-0.3-7.5-0.7-14.9-1.1-22.3C397.9,198.1,398,211.6,394.9,224.8z M253.9,322.6
			c-0.1,0.1-0.2,0.1-0.4,0.2c-0.5-0.7-0.9-1.4-1.3-2.2c-3.6-6.5-5.9-13.5-7.6-20.8c-1.8-7.6-2.7-15.4-3.3-23.1
			c-0.1-0.7-0.4-1.6-0.8-2.2c-1.3-1.9-2.8-3.7-4.4-5.9c-0.8-0.1-2-0.3-3.3-0.5c-0.1,0.5-0.2,0.7-0.2,1c0.9,10.2,2.7,20.3,5.7,30.1
			c2.2,7.3,5.1,14.2,9.3,20.6c2.8,4.2,6.2,7.9,10.6,10.7c0.4,0.3,0.9,0.4,1.6,0.7c-0.6-2-1.1-3.6-1.5-5.2c-2-7.9-2.5-15.9-2.6-23.9
			c-0.1-5.2-0.2-10.4-0.3-15.6c0-1.3-0.4-2.7-0.5-4c-0.4,0.6-0.5,1.1-0.5,1.7c-0.3,5.4-0.5,10.9-0.9,16.3c-0.4,6-0.9,12-0.1,18
			C253.6,319.8,253.8,321.2,253.9,322.6z M297.4,115.8c-0.8,1.4-1.1,2.5-1.8,3.1c-0.8,0.6-2,0.7-3.4,1.2c1.3,1.1,2.4,2.2,3.6,3
			c1.4,0.9,2.5,2.1,3.4,3.5c0.8,1.3,1.7,2.5,2.6,3.8c6.3,9.7,11.7,19.8,14,31.4c2.2,10.7,7.9,20.1,14.4,28.8
			c1.9,2.6,3.2,5.3,3.7,8.4c1.1,6.2-0.5,11-6.7,13.9c-0.4,0.2-0.8,0.5-1.2,0.7c2-0.1,3.8-0.4,5.5-1c3.8-1.4,6-4.2,6.3-8.2
			c0.5-5.4-0.7-10.5-4.1-14.9c-4.5-5.8-8.5-11.9-11.6-18.6c-1.9-4-3.6-8.1-4.1-12.5c-0.6-5.5-2.6-10.4-5.2-15.1
			c-3.5-6.4-7.7-12.4-12.3-18.1c-0.9-1.1-1.4-2.3-1.7-3.7C298.5,119.7,297.9,117.9,297.4,115.8z M373.6,290.2
			c0.3,6.4-1.3,12.9,1.6,19.2c1.7-1.7,1.8-1.7,1.6-2.9c-1.4-6.5-1-12.9,0-19.4c0.3-2.2,0.4-4.4-1-6.1c0.8-1.9,0.8-1.9,0.3-3.9
			c-1.1,1.5-2.4,2.6-2.9,4c-1.3,3.5-3.4,6.3-6.4,8.4c-3.3,2.4-7.1,4-11,5c-2.6,0.7-5.2,1.2-7.8,1.8c7.6-0.1,15-1.1,22.1-4.8
			c0,3.7-1.3,6.6-3.2,9.3c-2.2,3.1-5,5.5-8.2,7.6c-4.5,3-9.4,5.2-14.4,7.1c-0.6,0.3-1.3,0.5-2.4,1c2.1,0.5,4,0,5.7,1.3
			c-0.9,1.3-1.7,2.7-2.7,3.8c-1,1.2-2.2,2.4-3.4,3.5c-1.1,1-2.2,1.9-3.3,2.8c1,0.2,1.8,0.2,2.6,0c4.2-0.9,7.8-3,11-6
			c3.3-3.1,5.9-6.8,7.8-10.8c0.7-1.4,1.5-2.4,2.7-3.3c4.9-3.6,8.6-8.2,10.3-14.1C373.1,292.5,373.4,291.4,373.6,290.2z M264.4,345.8
			c-2.5,7.4-6.4,13.9-10.1,20.5c-1.3,2.3-2.6,4.5-3.6,6.9s-1.8,4.9-2.4,7.4c-0.6,2.3-0.1,4.5,1.2,6.5c1.7,2.6,6,4.9,9.3,5.1
			c-5.1-4-6.5-9.2-3.9-14.1c0.8,1.9,1.5,3.7,2.5,5.4c1,1.7,2.3,3.3,4.7,3.6c-2.6-3.7-2.9-7.5-2.2-12c0.8,1.6,1.3,2.7,2,4.2
			c0.3-3,0.3-5.4,0.7-7.8c0.4-2.4,1.2-4.7,1.9-7.1c-0.1-0.1-0.2-0.2-0.4-0.3c-2.1,1.6-4.1,3.2-6.2,4.9c0.6-2.3,1.5-4.4,2.5-6.5
			c1.5-3,3.1-5.9,4.6-8.9C266.5,351,266.5,348.5,264.4,345.8z M262.4,340c-8.1,10.2-16.3,20-26.3,28.1c4.3-1.5,7.7-4.2,11.3-7
			c-0.2,0.8-0.5,1.5-0.9,2.2c-3.8,6.7-8.2,13.1-12.8,19.3c-0.5,0.7-1.1,1.4-1.5,2.2c-3.6,8.6-1.4,16.3,5.3,21.6
			c0.4,0.3,0.9,0.5,1.4,0.7c-1-2.3-2-4.4-2.7-6.5c-2.1-6.5-2.1-12.9,1.8-19c0.8-1.3,1.5-2.7,2.4-4c7-10.5,14-21,21.1-31.4
			C262.8,344.4,263.6,342.5,262.4,340z M379.5,239.9c-1.3,7,0.3,13.2,5.6,18.2c-1.9-6.5-3.9-13-0.9-19.6c-0.7-1.1-2.1-0.6-2.8-1.9
			c-2.9-5.7-6.9-10.6-11.2-15.3c-1.4-1.5-2.5-3.1-3.1-5.1c-0.8-2.8-1.6-3.9-2.9-5.1c1.2,4.6,1.7,9,0.1,13.4c1.8,2.7,3.9,5.1,4.7,8.6
			c-1.2,0-2,0.1-2.9,0c-2.6-0.3-5.2-0.5-7.7-1.2c-2.4-0.6-4.2,0.4-6.1,1.6c4.3,2.7,15.8,3.9,20.6,2.3c0.5-4.4-1.6-8.3-2.7-12.4
			c0.9,1.2,1.7,2.4,2.2,3.8c1,2.4,1.9,4.8,2.9,7.2C376.3,236.5,377.4,238.6,379.5,239.9z M242.1,139.7c-0.1,0.1-0.2,0.2-0.3,0.3
			c1.4,2.3,3.6,4,6,5.1c2.7,1.2,4.4,3.2,5.9,5.6c2.3,3.6,3.9,7.5,4.5,11.7c0.5,3,0.6,6,0.9,9.5c3.6-8.8,1.7-16.8-1.8-24.8
			c1.8,1.7,3.4,3.3,4.8,5.1c2.1,2.7,4.2,5.4,5.9,8.3c2.5,4.2,3,8.9,1.7,13.7c-0.1,0.5-0.2,1-0.4,1.9c2.6-3.4,3.3-9.3,2.7-12.4
			c-0.6-3.1-1.8-5.9-3.6-8.5c-1.9-2.6-4-5.2-5.9-7.7c-1.3-1.7-2.5-3.4-3.7-5.1c-0.5-0.7-0.8-1.5-0.4-2.5c0.6-1.6-0.2-3.1-1.1-4.8
			c-0.9,1.7-1.5,3.2-2.4,4.5c-0.5,0.8-1.3,1.6-2.1,1.9c-2.9,0.9-5.8,0.8-8.6-0.5C243.7,140.6,242.9,140.1,242.1,139.7z M243.9,201.2
			c1.7,1.7,3.7,2,5.9,1.9c2.3-0.1,4.7-0.4,7-0.7c9.7-1.3,19.1-0.6,28.3,2.7c1.3,0.5,2.4,1.2,3.3,2.3c3.7,4.7,8.7,6.5,14.6,6.4
			c0.6,0,1.3-0.2,2.3-0.5c-3.8-2.1-6.8-4.2-7-8.6c1.8-0.6,3.4-1.1,5.2-1.8c-0.5-0.2-0.7-0.3-0.9-0.4c-4.1-1.1-8.1-0.6-12,0.6
			c-1.5,0.5-2.8,0.4-4.2-0.1c-7.1-2.7-14.4-4.2-21.9-3.8c-3.4,0.2-6.8,0.7-10.1,1.2C250.8,200.9,247.4,202.1,243.9,201.2z
			 M247.5,225.8c-0.4-2.3-0.5-3.9,0-5.6c0.5-1.7,1.2-3.3,1.9-5.1c-0.5-0.1-0.9-0.2-1.4-0.2s-1.1,0-1.8,0c-1.8,6.1-2.5,12,0.2,18.3
			c1.8-2.8,3-5.6,6-7.3c0.5,4,0.8,7.8,0.6,11.6c0,1.3-0.4,2.2-1.7,2.9c-2.7,1.4-3.2,3.5-2,6.4c2.1,4.8,5.2,9,8.9,12.7
			c0.3,0.3,0.6,0.4,0.9,0.7c-2.8-4.4-6.1-8.4-6.9-13.6c1.7,1.8,3.1,3.8,4.7,5.6c2.6,2.9,3.8,3.8,5.5,4.4c-1-1.3-2.1-2.4-3-3.6
			c-1.3-1.9-2.6-3.7-3.7-5.7c-0.8-1.4-0.9-2.8-0.4-4.4c0.5-1.7,0.6-3.5,0.8-5.3c0.3-4.2-0.3-8.4-1.3-12.6c-0.3-1.4-0.1-2.3,0.8-3.3
			c0.7-0.8,1.3-1.7,2-2.6C253.4,219.9,250.5,222.4,247.5,225.8z M312.7,323.3c-0.8-0.2-1.6-0.4-2.3-0.6c-3.9-1-7.6-2.4-10.9-4.7
			c-3.2-2.2-5.7-5-7.1-8.7c-0.2-0.5-0.2-1-0.3-1.6c5.5,3,9.6,3.6,13.2,2.1c-2.3-1.3-4.9-2.4-7.1-4c-2.3-1.7-4.4-3.7-6.1-5.9
			c-1.7-2.1-2.7-4.6-4.2-7.2c-0.4,2-0.8,3.7-1,5.4c-1.6,9.9,3.7,19.6,12.8,23.3C303.8,323.2,308.2,323.8,312.7,323.3z M246.4,248.7
			c-1,1.6-0.8,3-0.6,4.4c0.4,3.2,1.7,6.1,3.3,8.8c1.6,2.6,3.4,5.2,5.1,7.8c0.6,1,1.3,1.9,1.8,2.9c1,2,0.3,2.9-1.9,2.7
			c-0.8-0.1-1.6-0.3-2.3-0.7c-1.4-0.8-2.9-1.5-4.1-2.6c-2.5-2.1-4.8-4.3-7.1-6.6c-1-1-2.1-1.8-3.4-2.2c-10.2-3.3-20.6-6.1-31.3-7.3
			c-3.1-0.3-6.3-0.6-9.4,0.4c-2.7,0.8-3.4,2.6-2.1,5.5c0.6-3.1,2.9-3.9,5.5-4c2.4-0.1,4.9-0.1,7.3,0.2c9,1.1,17.6,3.7,26.3,6.2
			c3,0.9,5.6,2.2,7.7,4.7c2.3,2.7,5.1,5.1,8.4,6.6c1.6,0.8,3.5,1.4,5.3,1.6c3.2,0.3,4.3-1.4,3.4-4.4c-0.3-1-0.7-2-1.1-3
			c-0.7-1.7-0.5-3.2,1.2-4.2c0.1-0.1,0.2-0.3,0.5-0.9c-1.8,0.3-3.3,0.5-5,0.8C249.5,260.9,246.8,255.4,246.4,248.7z M337.7,346
			c6.2-2.6,12-5.8,17.1-10.1c1.8-1.6,3.5-3.4,5.1-5.2c1.8-2,3.3-4.4,3.5-7.1c0.2-2.9,1.6-5.1,3-7.5c1.1-1.9,2-3.9,2.8-5.9
			c0.5-1.4,0.7-3,1-4.5c0.1-0.5-0.1-1-0.3-2.1c-1.3,1.9-2.5,3.1-3.2,4.6c-5,10.5-12.5,18.7-22.1,25.1c-0.7,0.5-1.4,1-2.1,1.4
			c6.7-2.2,11.9-6.8,17.3-11.1c-0.4,1.3-0.9,2.6-1.6,3.7C353.2,335.4,345.6,340.8,337.7,346z M186.6,251c1.7-4.5,5.2-6.2,9.6-6.6
			c2-0.2,4.1-0.2,6.1,0c5.6,0.7,11.1,1.6,16.7,2.3c6.2,0.9,12.4,1.7,18.7,0.8c1-0.2,2-0.3,3.2-0.5c-0.2,5.7-0.7,11.2,3.1,15.9
			c-0.2-1.5-0.7-3-1-4.5c-0.7-4.4-1.5-8.9,2-12.6c-1.5-1.7-3.4-1.3-5.3-1c-2,0.3-4,0.7-6,0.8c-10.3,0.5-20.4-0.8-30.4-3.3
			c-2.2-0.5-4.4-1.3-6.6-1.8c-2.9-0.7-5.7-0.7-7.9,1.7C186.4,244.7,186,247.7,186.6,251z M402.3,271.5c-3,0.6-5.4,0.3-7.7-0.8
			c-2.8-1.3-5-3.2-6.9-5.6c-4.2-5.4-8.9-10.4-14.1-14.8c-5.1-4.3-10.6-8.1-16.9-10.5c-1.9-0.7-4-1.1-6.1-1.4c-2.2-0.3-4.1-1-5.8-2.3
			c-2-1.5-2.5-1.6-5.5-1.1c3.5,3.3,7.2,5.8,11.9,6.2c4.2,0.4,7.9,1.8,11.4,3.9c3.9,2.3,7.6,5.1,10.8,8.3c4.2,4.2,8.1,8.6,12.1,13
			c2.9,3.2,6.1,5.8,10.4,6.8C398.1,273.7,400.1,273.3,402.3,271.5z M305.8,157.9c-0.2,0.1-0.4,0.2-0.6,0.3c0.4,0.9,0.7,1.9,1.2,2.8
			c1.3,2.4,2.6,4.9,4.1,7.2c2.4,3.9,4.9,7.7,7.2,11.6c1.9,3.1,3.4,6.4,4.4,10c2.1,7.8-1.9,14.6-7.8,18c-1.7-1.2-2.8-3.5-5.6-3.6
			c0.9,1,1.8,1.7,2.5,2.6c1.5,1.9,1.5,2.4,0,4.2c-0.4,0.5-0.8,1-1.5,1.8c5.1-1,9-3.5,12.3-6.8c2-2,3.2-4.5,3.3-7.4
			c0.1-2.2,0.1-4.6-0.3-6.8c-0.9-4.7-2.8-9-5.4-13C315.1,171.8,310.4,164.9,305.8,157.9z M108.5,178.5c2.6-3.9,5.3-7.6,7.8-11.5
			c1-1.5,1.9-3,2.7-4.6c3.2-6.9,2.3-13.7-0.5-20.7c-1.6,1.3-3.1,2.4-4.5,3.5c0.4,2.1,0.9,4.1,1.1,6.1c0.6,5-0.6,9.7-2.6,14.2
			c-1.1,2.5-2.3,5-3.3,7.6C108.6,174.9,108.1,176.7,108.5,178.5z M273.4,284.8c0.7,0.5,1.7,1.8,2.6,1.7c2.2-0.3,3.1,0.9,4.1,2.4
			c0.4,0.6,0.8,1.3,1.2,2c0.2-0.1,0.3-0.2,0.5-0.3c-0.6-1.5-1-3.1-1.9-4.4c-0.9-1.2-2.2-2.1-3.7-3.4c1.7,0,3,0,4.7,0
			c-1-1.3-1.8-2.4-2.6-3.5c0.4-1.3,1-2.7,1.4-4.1c1.9-6.4,2.7-13,2.8-19.7c0-3.7-0.4-7.4-0.7-11.2c-0.1-0.7-0.4-1.6-0.9-2.2
			c-1.9-2.2-2.5-4.5-1.3-7.2c0-0.1-0.1-0.2-0.2-0.4c-2.1,1-2.9,2.8-2.5,5c0.3,1.5,0.9,2.9,1.4,4.4c0.3,1,0.8,1.9,1,3
			c1.4,7.9,0.7,15.7-1.4,23.4C276.8,275.1,275,279.7,273.4,284.8z M159.8,132.8c-0.8-1.1-1.5-2.1-2.4-3.4c-0.7,0.9-1.3,1.6-1.8,2.3
			c-2.2,3.3-3.7,6.9-4,10.9c-0.5,6.8,0.3,13.1,5.9,18c2.3,2,4,4.7,5.9,7.1c0.2,0.3,0.5,0.5,0.9,0.8c0.4-2.4-0.6-4.1-1.6-5.7
			c-1.7-2.7-3.6-5.2-5.4-7.8c-1.3-1.8-1.9-3.7-2.1-5.9C154.8,143.1,155.5,137.5,159.8,132.8z M140,135c-3.6,5.7-6.4,11.8-7.2,18.6
			c-0.6,5.3,1.2,9.7,5.4,13.1c1.5,1.2,3,2.3,4.4,3.4c1.6,1.3,3.2,2.7,4.8,4.1c0.4,0.3,0.8,0.6,1.4,1.1c-0.1-2-1.2-3.2-2.2-4.3
			c-1.7-1.8-3.4-3.5-5-5.3c-2.3-2.6-3.6-5.7-4.1-9.2c-0.5-3.8-0.2-7.5,0.4-11.1C138.5,142,139.3,138.5,140,135z M299.9,167.3
			c-0.4,2.5,0.4,4.3,1,6c1,2.6,2.1,5.1,2.9,7.7c0.7,2.1,0.9,4.3,0.3,6.5c-1.2,5.4-6,9-11.5,8.4c-2-0.2-4-0.6-6-0.9
			c-3.2-0.6-6.4-1.2-9.7-0.7c-1.3,0.2-2.6,0.3-4.1,1.6c5.7-1.1,10.7,0.2,15.7,1.3c1.3,0.3,2.7,0.6,4.1,0.8
			c8.9,1.3,13.6-3.5,14.7-11.1c0.4-2.7-0.4-5.4-1.5-7.8C304.1,175.4,302.1,171.6,299.9,167.3z M406.6,265.2
			c6.3,3.7,9.4,0.7,10.2-3.9c0-0.2,0.1-0.5,0.1-0.7c0.4-4.6,0.3-9.2-1.1-13.8c-3.2-10.4-5.3-20.9-6.2-31.7c-0.2-2-0.4-4-0.6-6
			c-0.4,2.8-0.6,5.7-0.5,8.5c0.3,10.3,2.4,20.3,5.4,30.1c1.2,3.9,1.7,7.9,1.2,12c-0.5,4.2-2.8,6-7,5.6
			C407.8,265.3,407.5,265.2,406.6,265.2z M347.9,268.9c4.4,1.2,8.7,1.4,13.1,0.9c2.1-0.2,4.2-0.8,6.1-1.6c3.8-1.6,5.6-4.6,5.6-8.8
			c0.1-4.3-3.2-5.9-5.9-8c0.2,2.1,0.7,4,1,6c0.5,3.1-0.4,5.7-3,7.4c-1.4,0.9-3,1.8-4.6,2.2c-2.8,0.7-5.7,1.1-8.6,1.6
			C350.4,268.8,349.2,268.8,347.9,268.9z M267.5,265c2.1,0.4,3,0.1,3.8-1.7c1.2-2.8,1.3-5.7,0.1-8.5c-2.1-4.8-4-9.8-5-15
			c-1.3-6.7-1.6-13.3,2.6-19.4c-0.7-0.3-1.4-0.5-2.2-0.9c-0.7,1.7-1.5,3.2-2.1,4.8c-1.7,5.1-1.7,10.2-0.8,15.4
			c0.9,5.2,2.6,10.2,4.9,15c1,2,1.4,4.2,1.2,6.4C269.8,262.8,269.3,264.4,267.5,265z M328.1,368c9.9-2.9,27.2-21.2,28.3-30
			c-2.2,1.9-4.6,3-5.9,5.6c-1.1,2.1-2.5,4-3.9,5.9c-4.1,5.4-8.9,10.1-14,14.6C331.2,365.3,329.7,366.6,328.1,368z M356,283.3
			c-0.5,1.4-0.9,2.5-1.3,3.5c1.3-0.5,2.3-1.2,3.2-2.1c1.1-1.1,2.3-1.7,3.7-2.1c3.1-0.8,6.1-1.9,8.6-3.8c1.5-1.1,2.8-2.4,4-3.9
			c1.7-2.1,2-6.8-0.1-8.8c-1.1,1.4-2.2,2.7-3.5,4.2c0,0.2,0,0.6,0,1c0.3,3-1.1,5.2-3.6,6.7c-3.4,2-6.9,3.5-11.1,2
			c-1.5-0.5-3.2-0.6-5.2-0.6C352.8,280.9,354.4,282.1,356,283.3z M154.3,167c0.3-1.4-0.2-2.5-0.9-3.5c-0.8-1.1-1.6-2.2-2.5-3.3
			c-3.8-4.7-5-10.1-4.6-15.9c0.2-2.9,0.6-5.8,1-9.2c-2.1,4.3-3.3,8.2-3.8,12.3c-0.6,6.1,1.4,11.1,6.2,15
			C151.3,163.7,152.7,165.3,154.3,167z M376.6,320.6c1.5-4.6,2.9-8.7,5.2-12.4c0.7,0.5,1.2,0.9,2.1,1.6c-0.5-3.9,0.1-7,2-10.1
			c-1.7,0.3-2.6,1.2-3.2,2.2c-1.5,2.5-3.1,5-4.3,7.6c-1.2,2.6-2.2,5.2-4.8,6.8c-0.8,0.5-1.4,1.5-2,2.4c-0.7,1.2-1.2,2.6-0.7,4.5
			c1.3-2,2.1-3.9,4.2-4.7C375.5,319.1,375.9,319.6,376.6,320.6z M258.5,286.1c-1.1,2.2-0.9,4,0.5,5.8c1.1,1.5,1.7,3.3,2.7,4.9
			c1.7,2.8,3.4,5.6,5.4,8.1c1.2,1.5,2.8,2.7,4.5,3.5c3.7,1.8,6.5,0.1,7.6-4.2c-0.4,0.4-0.7,0.6-0.9,0.9c-3.1,2.9-6,2.8-8.8-0.4
			c-1.3-1.5-2.4-3.3-3.4-5c-1.5-2.7-2.8-5.5-4.3-8.2C260.7,289.7,259.6,287.9,258.5,286.1z M390.7,321c0-0.2,0-0.3-0.1-0.5
			c-1.9,0.6-2.8-0.5-3.5-1.8c-0.7-1.2-1.2-2.5-1.8-3.7c-0.2-0.4-0.5-0.8-0.7-1.3c-0.1,0.1-0.3,0.1-0.4,0.2c0.2,2.2,0.5,4.5,0.6,5.7
			c-1.3,1.7-2.3,2.9-3.2,4.1c-1.5,2-2.9,4.1-4.4,6.1c-0.7,0.9-1.3,1.9-2,2.7c-1.3,1.5-2.1,1.5-3.4,0c-0.3-0.4-0.7-0.7-1.3-1.4
			c0.1,1.1,0,1.7,0.1,2.4c0.4,2.3,1.9,3,3.9,1.9c1.1-0.6,2-1.6,2.8-2.6c1.4-1.7,2.5-3.6,3.9-5.3c2.1-2.4,4.4-4.6,7.6-5.4
			C389.6,322,390.1,321.4,390.7,321z M163.7,137c-1.5,3-1.8,5.9-1.4,8.8c0.9,6.1,4.3,10.8,8.5,15c0.4,0.4,0.9,0.7,1.4,1.1
			c-1.7-3.3-3.5-6.3-4.9-9.5c-1.8-4.1-2.8-8.3-0.7-12.7C165.8,138.9,164.9,138.1,163.7,137z M261,271.3c0.3,1.9,0.6,3.6,0.7,5.3
			c0.2,2.5,1.3,4.5,3.3,5.9c0.5,0.4,1,0.8,1.6,1.1c2.8,1.6,4.4,4,5.2,7c0.5,2,0.9,4,1.5,6.3c1.3-2.5-0.1-4.7-0.1-7.2
			c2.4,2.2,3.7,4.8,5,7.4c0.1-2.7-0.9-5-2.5-7c-2.2-2.6-4.5-5.2-7-7.4c-2.7-2.4-5.3-4.8-5.7-8.7c-0.1-0.7-0.5-1.4-0.9-2
			C261.9,271.9,261.5,271.7,261,271.3z M319.7,381.4c8.8-3.7,17-8.4,23-16.1c1.7-2.2,3.1-4.5,4-7.2c0.1-0.5,0.2-1,0.3-1.9
			c-2,1.9-3.8,3.3-4.9,5.4c-0.7,1.3-1.6,2.5-2.5,3.6c-4.5,5.9-10.2,10.4-16.6,14.2C322,380,320.9,380.7,319.7,381.4z M178.3,173.6
			c1.4,2,3.6,2.8,5.8,3.1c3.3,0.5,6.6,0.5,9.9,0.8c2.7,0.2,4.5-1.1,6-3.1c-3.7,0.3-7.3,0.7-10.9,0.9
			C185.4,175.5,181.8,174.8,178.3,173.6z M186.3,166.5c-2.4-2.6-5-5.1-7.4-7.8c-2.5-2.8-4.3-6-5.8-9.8
			C172.4,155.6,179.1,163.6,186.3,166.5z M183.2,182.7c-3.1-0.2-6.3-0.4-9.4-0.7c-3.2-0.4-5.5-2.7-8.2-4.6c0.7,2.2,1.4,3.5,2.6,4.6
			c0.5,0.5,1.2,0.9,1.8,1.1C174.4,184,178.8,183.6,183.2,182.7z M165.3,187.8c-4.2-0.9-8.5-0.8-12.3-3.3c0.5,1.4,1.2,2.5,1.9,3.7
			c0.4,0.7,1,0.9,1.9,0.8C159.5,188.6,162.4,188.3,165.3,187.8z"/>
		<path d="M153.6,240.3c0.8-1,1.4-1.7,2-2.3c14-16.2,27.8-32.6,40.2-50c4.2-5.9,8.2-11.9,11.5-18.4c0.9-1.7,1.6-3.5,2.4-5.4
			c-0.6-0.3-0.9-0.5-1.2-0.6c-12.6-2.7-22.9-9.5-31.7-18.6c-6.6-6.9-12-14.8-17-22.8c-2.2-3.4-4.2-7-6.6-10.2
			c-3-4.2-2.4-3.7-7.2-3.3c-19.8,1.5-35.6,10.6-48,25.8c-4.3,5.3-8.7,12.4-10.7,17.2c1.1-0.7,1.8-1.1,2.4-1.6
			c4.9-3.6,9.7-7.2,14.5-10.7c7.7-5.5,15.6-10.6,24.4-14.1c5.1-2,10.3-3.5,15.8-3.7c0.7,0,1.4,0,2.1,0.1
			c-17.8,5.2-32.7,15.4-47.2,26.3c-5.6,4.2-10.9,8.8-15.6,14c-0.9,1-1.7,2.1-2.7,3.2c-0.6-1.5-0.7-4.9-0.4-7.5
			c1-9.8,4.8-18.5,9.8-26.8c6.3-10.3,14-19.4,23-27.4c3.4-3.1,7.7-4.5,12.1-5.4c10.2-2.1,19,0.9,26.4,8.1c2.7,2.7,5.2,5.7,7.3,8.8
			c4.5,6.4,9,12.8,12.8,19.6c6.1,10.6,15.1,17.5,26.1,22.1c5.9,2.5,11.9,4.8,17.8,7.3c2,0.8,4,1.8,5.9,2.9c5.1,3.1,8,7.8,8.8,13.7
			c0.1,0.6,0,1.2-0.2,1.9c-2.1-3.6-3-7.8-6.2-11.2c-2.1,6.7-5.5,12.3-9.5,17.6c-4.4,6-9.4,11.4-14.6,16.7
			c-7.4,7.5-15.3,14.4-23.4,21c-0.6,0.5-1.1,0.9-2.1,1.7c0.7-0.2,1-0.2,1.2-0.3c14.5-6.5,28.6-13.7,41.5-23c4.4-3.1,8.4-6.6,12-10.7
			c3.9-4.4,5.3-9.1,4-15c-2-8.6-6.5-15-14.9-18.3c-2.4-1-4.9-1.8-7.4-2.5c-15.4-4.2-26.8-13.6-35-27.1c-1.7-2.8-3.2-5.8-4.7-8.8
			c-4.1-8-9.5-15-16.5-20.6s-15-8.8-24.1-8.6c-5.7,0.1-11.1,1.5-16.1,4.3c-0.5,0.3-1,0.5-1.5,0.8c0,0-0.1,0-0.4-0.1
			c0.9-2.4,2.5-4.1,4.6-5.4c3-2,6.4-3.1,10-3.7c2.1-0.3,4.2-0.5,6.3-0.7c1-0.1,1.6-0.4,2.1-1.3c1.9-3.2,4.8-4.7,8.5-5
			c3.5-0.3,6.8,0.3,10.1,1.3c7.9,2.4,15.1,6.1,21.7,10.9c1.1,0.8,2.1,1.2,3.5,1.2c7.1-0.2,13,2.9,18.5,7.1c0.1,0.1,0.1,0.3,0.3,0.6
			c-5.3-1.3-10.6-2.3-15.8,1.2c4.7,6,11.1,8.5,17.7,10.7c1.7-1.3,1.3-3,1.3-4.7c1.4,0,1.9,1.1,2.1,2c0.5,1.9,0.7,3.8,1,5.7
			c0.2,1.2,0.3,2.4,0.8,3.5c1.3,3.1,3.5,5.5,6.3,7.3c2.7,1.7,5.4,3.3,8.2,4.9c4.5,2.7,9.2,5.2,13.5,8.2c2.9,2,5.3,4.5,7.8,6.9
			c1.5,1.5,2.5,3.3,3.2,5.7c-0.4-0.2-0.6-0.3-0.7-0.4c-3.6-4.8-8.4-8.1-13.8-10.6c-2.7-1.3-5.4-2.6-8.3-3.6
			c-5.7-2.1-10.2-5.7-14-10.2c-2.1-2.4-4-4.9-5.9-7.5c-1-1.3-2.1-2.1-3.6-2.6c-5.9-1.8-11.3-4.5-16.1-8.4c-3.9-3.1-7-6.7-9.2-11.2
			c-0.3-0.6-0.7-1.3-1.2-1.8c-4.9-4.2-10.1-8-16.1-10.3c-4.7-1.8-9.4-2.4-14.3-1c-0.9,0.3-1.8,0.7-2.6,1.5c1.3,0.1,2.5,0.1,3.7,0.3
			c4.1,0.5,8.2,1.1,12.3,1.6c1.5,0.2,2.7,1,3.9,1.9c9,7.3,15.1,16.7,19.1,27.5c1.3,3.6,2.8,7.1,4.2,10.7c0.6,1.4,1.4,2.8,2,4.2
			c2.2,4.6,5.6,7.9,10.2,10c5,2.3,9.9,4.5,14.8,6.9c4.8,2.3,9.6,4.7,14.3,7.3c2.2,1.2,4.2,2.8,6.2,4.4c6.5,5,10.2,17.3,7.4,25.6
			c-1.1,3.3-2.8,6.2-5.3,8.6c-3,2.9-6.1,5.7-9.2,8.4c-15.8,14-34.1,23.7-54,30.6c-4.1,1.4-8.4,2.5-12.6,3.7
			C155.2,240.2,154.7,240.2,153.6,240.3z"/>
		<path d="M265.1,92.8c2.9-0.1,5.8,0.2,8.5,1.6c0.6,0.3,1.6,0.1,2.4,0.2c2.3,0.1,4.6-0.1,6.8,0.4c5.9,1.2,10.2,4.6,12.5,10.2
			c0.7,1.7,1.1,3.5,1.8,5.5c-2.6-2.1-4.8-4.1-7.3-5.7c-2.6-1.7-5.6-2.4-9.2-2c1.5,5.5,4.3,9.9,7.9,14.1c-0.5-0.3-1.1-0.5-1.5-0.8
			c-2-1.9-4.1-3.8-5.7-6c-2.3-3-4.5-6.2-6.2-9.6s-4.7-4.7-8-5.9c8.7,13,14.7,27.5,24.2,40c-2.5-1.3-4.5-3.2-6.1-5.4
			c-3.1-4-6.1-8-9-12.2c-3.4-5-6.5-10.3-10-15.3c-2.5-3.5-5.3-6.8-8.1-10.1c-1.2-1.4-2.8-2.6-5-3.6c2,4.3,5.2,7.6,5.3,12.8
			c-0.6-0.7-0.8-1-1.1-1.3c-2-2-3.9-4.1-6.1-6c-2-1.7-4.3-3-6.3-4.5c-2-1.6-3.9-3.3-6.1-5.2c-0.2,4.5,3,6.8,5.2,9.8
			c-0.9-0.5-1.9-0.8-2.7-1.4c-2.1-1.5-4.1-3.2-6.3-4.7c-2.5-1.7-5-3.4-7.5-5c-0.8-0.5-1.7-0.6-2.8-0.6c0.4,0.4,0.8,0.7,1.2,1.1
			c1.5,1.3,3.1,2.4,4.4,3.8c2.9,3.1,6.4,5.5,9.9,7.9c5.8,4.1,11.6,8.4,17.5,12.4c2,1.4,3.4,3.1,4.6,5.2c3,5.3,5.2,10.9,7.1,16.6
			c0.5,1.6,1.4,2.6,2.7,3.6c3,2.3,5.9,4.6,8.6,7.2c2.2,2.1,2.7,3.6,2.8,6.2c-1.7-1.3-3.1-2.6-4.8-3.6c-1.6-1.1-3.5-1.7-6-1.6
			c0.7,1,1.1,1.9,1.7,2.6c1.8,2.1,3.7,4.1,5.6,6.1c2.5,2.6,5.1,5.2,7.7,7.8c2.5,2.6,4.1,5.6,4.5,9.2c0.4,3.4,0.7,6.8-0.2,10.2
			c-0.3,1.3-0.9,2.6-2.2,3.8c0.3-2.4,0.6-4.5,0.8-6.5c0.7-6.4-1.3-11.7-6.1-16c-2.2-2-4.6-3.9-6.9-5.8c-1.9-1.6-3.9-3.2-5.7-4.9
			c-2.6-2.4-4.2-5.3-4.8-8.8c-0.7-3.9-1.5-7.8-2.4-11.7c-1.3-5.5-3.7-10.6-6.7-15.3c-1.1-1.7-2.5-3.3-4.1-4.4
			c-3.3-2.3-6.7-4.6-10.3-6.4c-4.3-2.2-8.3-4.7-11.9-7.9c-1.8-1.6-3.7-3.2-5.8-4.5c-1.4-0.9-3.2-1.4-4.9-2c1.2,2.1,2.5,3.9,2.7,6.7
			c-7.2-6.1-14.4-11.5-23.8-12.9c0.4,0.3,0.8,0.6,1.2,0.8c7,4,13,9.2,17.8,15.7c0.9,1.2,1.9,1.6,3.2,1.7c6,0.7,11.8,2.2,17.3,4.9
			c3.2,1.6,6.2,3.6,8.6,6.3c3.5,3.7,5.2,8.2,5.2,13.4c-2.8-2.8-5.6-5.3-9.1-7.1c-3.6-1.8-7.4-2.9-11.4-3.3
			c-3.9-0.4-7.8-0.4-11.8,0.6c0.6,7.6,4.7,13.2,9.8,18.4c-0.5-0.3-1.1-0.6-1.5-1c-7-5.6-11.9-12.4-13.4-21.4
			c-0.4-2.1-0.4-4.4-0.3-6.6c0.1-1.6-0.3-2.8-1.2-4.1c-2.2-3.3-5.2-5.8-8.5-7.9c-2.3-1.4-4.7-2.8-7.7-3.6c1.1,2.6,3,4.6,2.7,7.9
			c-5.6-5.9-11.9-9.4-20.1-9.3c1.1,1.8,2.9,2.7,3.2,4.6c-4.5-1.8-8.8-3.9-13.4-5.3c-4.6-1.4-9.3-2.2-13.8-3.2
			c1.1-1.5,8.4-4.3,15.1-5.8c7.8-1.8,15.3-1.1,22.8,1.9c-0.6,0.6-1,1-1.7,1.8c1.7-0.2,2.9-0.3,4.5-0.5c-0.9-0.6-1.5-0.9-2-1.3
			c5.3-4.8,16.1-4.9,27,2.4c4.3-1.6,8.7-2.4,13.3-2.1c3,0.2,5.8,1,8.2,2.8c0.8,0.6,1.5,0.8,2.5,0.6c4.2-1,7.9,0.5,11.2,2.8
			C260.4,87,262.9,89.8,265.1,92.8c-0.4,0.2-0.9,0.3-1.3,0.4c0,0.1,0,0.3,0,0.4c0.5,0.1,1.1,0.1,1.9,0.2
			C265.4,93.3,265.2,93,265.1,92.8z"/>
		<path d="M428.9,188c-0.2-4-0.4-8.1-0.6-12.1c-0.7-13.2-2-26.4-4.5-39.5c-1-5.4-2.3-10.6-4.4-15.7c-1.2-2.8-2.5-5.5-4.8-7.5
			c-0.5-0.4-1-0.7-1.9-1.3c0.1,0.8,0.1,1.3,0.2,1.8c3.9,15.8,7.3,31.7,9.8,47.7c1.7,11.2,3.1,22.4,4.1,33.6c0.8,8.9,1,17.9,1.3,26.8
			c0.1,2.3-0.2,4.5-0.7,6.8c-0.3-2-0.7-4-1-6c-2.8-18.6-7.5-36.8-13.4-54.6c-1.8-5.6-3.7-11.1-5.4-16.7c-2.2-6.9-3.6-14-3-21.9
			c-0.6,1-1,1.5-1.2,2c-3.9,8.4-4,17.1-1.8,26c1.9,7.4,4.7,14.4,7.5,21.4c4.5,11.4,8.7,22.9,11.6,34.9c2.4,9.9,4,19.9,4.8,30.1
			c0.8,9.9,0.7,19.8,0.3,29.7c0,0.9-0.3,1.9-0.6,2.8c-0.4-4.4-0.7-8.8-1.2-13.2c-1.7-18.4-5.4-36.5-10.5-54.2
			c-4.2-14.5-9.8-28.6-15.2-42.7c-2.1-5.5-4.1-11-4.9-16.8c-0.4-3.2,0-6,2.1-8.7c3.2-4,5.2-8.8,6.9-13.7c1.4-4,2.6-8.1,4-12
			c0.6-1.8,1.5-3.6,2.5-5.3c1.5-2.4,2.7-2.5,5-1c2.6,1.6,4.5,4,6,6.6c3,5.1,4.6,10.7,5.9,16.5c1.7,7.6,2.7,15.2,3.1,22.9
			c0.4,9.1,0.6,18.2,0.8,27.3c0,2-0.2,4-0.3,6C429.1,188,429,188,428.9,188z"/>
		<path d="M187.9,188c-0.8,1.6-1.4,2.7-1.9,3.7c-2.7,0.1-5.3,0.1-7.8,0.4c-8.8,1-17.1,3.9-25.1,7.6c-6.6,3.1-12.9,6.8-19,11
			c-0.5,0.3-0.9,0.7-1.5,1.1c1,1,2.1,1.1,3.2,0.8c1.5-0.4,3-0.7,4.4-1.4c7.1-3.7,14.7-6.2,22.3-8.4c4.4-1.3,9-2,13.6-2.8
			c1.6-0.3,3.2,0,4.8,0c-0.3,3-0.7,3.4-3.1,3.6c-9.5,0.7-18.5,3.5-27.3,7.1c-2.6,1.1-5.2,2.4-7.8,3.4c-2.1,0.8-4.3,1.5-6.5,1.8
			c-2.7,0.4-5.4,0-7.4-2.4c-0.4,0.2-0.8,0.4-1.1,0.6c-13.4,8.6-26,18.1-37.2,29.5c-5,5.1-9.5,10.5-13.1,16.6
			c-0.2,0.3-0.4,0.5-0.7,0.9c-1.2-1.9-1.4-3.9-1.6-5.9c-0.5-5.8,0.4-11.5,1.9-17.1c7.3-26.4,21.2-48.4,43-65.1
			c2.1-1.6,4.3-2.9,6.5-4.4c1.5-1.1,3-1.1,4.6-0.5c1.1,0.5,2.2,1,3.2,1.7c5.3,3.6,9.2,8.4,11.9,14.2c1.2,2.7,1.3,3.9,0.6,6.3
			c-0.4-0.8-0.7-1.4-1.1-2c-1.1-1.8-2.1-3.7-3.4-5.3c-1.1-1.3-2.6-2.4-4.1-3.3c-1.8-1.1-3.4-1-5.3,0.3
			c-14.4,10.1-27.3,21.9-37.6,36.2c-5.7,7.9-10.2,16.4-13.2,25.7c-0.3,0.9-0.5,1.8-0.4,2.9c2.2-1.9,4.3-3.9,6.5-5.8
			c14.2-12.6,29.1-24.2,45.6-33.8c11.1-6.4,22.6-11.9,35.1-15c5.2-1.3,10.5-2.3,15.9-2.2C185.7,188,186.5,188,187.9,188z"/>
		<path d="M195.2,274.6c1.8-4,3-8,2.6-12.5c1.1,0.6,1.2,1.6,1.4,2.5c0.8,3.4,0.7,6.8,0.4,10.2c-0.8,8.4-2.6,16.5-5.2,24.5
			c-0.2,0.7-0.5,1.4-0.8,2.1c-0.1,0.2-0.3,0.4-0.5,0.7c-8.1-2-14.9,1.2-21.3,5.8c-5.1,3.7-9.4,8.2-13.2,13.3c-0.5,0.6-1,1.3-1.6,1.8
			c4.8-13.6,13.6-23.1,27.6-27.6c-2.4-1-5.1-1-8.4-0.1c-4.7,1.2-8.6,3.9-12,7.2c-4.6,4.5-8.1,9.9-11.2,15.6c-3.2,5.9-5.8,12-8,18.3
			c-0.3,0.9-0.7,1.8-1.3,2.6c0-0.5,0-0.9,0.1-1.4c2.5-10.3,5.7-20.4,10.7-29.8c2.7-5.1,5.8-9.8,9.9-13.8c3.6-3.5,7.6-6,12.6-7.2
			c3-0.7,5.6-2.2,7.8-4.4c2.4-2.5,2-4.6-1.1-6.2c-2.6-1.4-5.4-1.2-8.1-0.6c-4.3,0.9-7.7,3.3-10.8,6.3c-3.5,3.4-6.3,7.4-8.8,11.6
			c-5.4,9.3-9.2,19.2-12.4,29.4c-3.7,11.8-6.5,23.8-8.2,36.1c-0.1,0.4-0.1,0.8-0.2,1.2c-0.1,0.2-0.2,0.4-0.5,1.1
			c-0.3-5.4-0.4-10.3,0.1-15.2c1.8-18.6,7.8-36,15.7-52.8c7.1-15.1,15.4-29.4,25.3-42.7c0.5-0.6,0.8-1.4,1.1-2.2
			c0.7-1.6,1.3-3.3,2-5c0.5-1,1.1-2,1.8-2.9c2.3-3,4.7-2.7,6.4,0.8c-3.6,0.5-4.6,1.6-4.8,5.4c-0.4,5.1,1.1,9.8,3.8,14.1
			c1.3,2,2.7,3.9,4.2,5.7C192.1,269.1,194,271.6,195.2,274.6z"/>
		<path d="M332.2,265.1c-1.5-0.2-3-0.4-4.6-0.6c-1.3-0.2-2.5,0-3.7,0.8c-1.4,0.9-2.9,1.6-4.7,2.5c1.8-4.3,1.9-4.6-2.3-6.1
			c-4-1.4-8.2-2.5-12.4-3.7c-0.6-0.2-1.3-0.1-1.9-0.2c-1.1,5.6,2.5,10.1,9.7,12.2c-6.3,1.3-11.7-0.5-16.4-4.9
			c-0.2,4.9,2.6,9.4,7,11.3c2.5,1.1,5.2,1.5,7.9,1.5c2.8,0,5.7-0.3,8.5-0.4c1.7-0.1,3.4,0,5.1,0.1c-5.4,0.8-10.6,2.6-16.1,2.7
			c-3.5,0-6.8-0.8-9.8-2.5c-0.5-0.3-0.9-0.5-1.5-0.6c1,1.9,2.4,3.4,4.2,4.5c3.1,2,6.5,3,10.1,3.4c4.6,0.6,9.3,0.4,13.8-0.5
			c0.8-0.2,1.6-0.7,2.4-1.1c2.3-1,4.6-2.1,6.9-3c1-0.4,2.1-0.2,3.3-0.1c-1.9,1-4.1,1.6-5.5,3.5c0.6,2,2.1,3,3.8,4
			c2.3,1.3,4.8,1.9,7.4,2.2c1.5,0.2,3.1,0.3,4.8,0.4c-0.7,1-1.6,1.2-2.5,1.5c-3.8,1.3-7.7,1.1-11.5-0.2c-2.5-0.8-5-2-7.3-3.2
			c-1.2-0.6-2.3-0.9-3.7-0.8c-5.4,0.5-10.9,0.3-16.3-0.6c-4.2-0.7-8.2-2-11.6-5c1.7,5.4,7,9.8,14,11.5c-2.1,1.2-4.4,1.2-11.3,0.1
			c3.8,3.1,8.4,4.5,13.1,5.3c4.8,0.7,9.5,0.4,14.3-0.1c-2.9,1.6-6,2.4-9.1,3.1c-4.7,1-9.3,1.2-14-0.2c-6.2-1.9-10.4-6-12.6-12
			c-0.6-1.6-0.7-3.5-0.7-5.3c0.1-3.6,0.4-7.1,0.6-10.7c0.4,0.1,0.7,0.1,1.1,0.2c0-0.2,0.1-0.3,0.1-0.5c-0.1-3.2-0.4-6.3-0.4-9.5
			c-0.1-3.8,0-7.6,0-11.4c0.3,0.1,0.8,0.2,1.6,0.4c-1.7-2.9-4.3-5.1-3.4-8.7c-3.7-3.3-7.2-6.6-6.7-12.3c1.8,0.2,3.4,0.4,4.8,0.5
			c1.1,1.2,2.1,2.5,3.3,3.6c1.2,1,2.6,1.6,3.9,2.7c-1.1-0.2-2.2-0.4-3.2-0.6c-0.1,0.1-0.1,0.2-0.2,0.4c0.7,0.4,1.4,0.9,2.1,1.2
			c6.3,3.4,13.1,5.4,20.1,6.6c12.1,2.2,24.2,2.5,36.5,1.7c2.7-0.2,5.3-0.4,8-0.4c-3.6,1.1-7.4,1.5-11.1,1.8
			c-16.5,1.2-32.8-0.6-49-3.6c-0.5-0.1-1-0.2-1.4-0.2c-0.2,0-0.3,0.1-0.7,0.1c0.1,1.2,0.9,2.1,1.7,2.6c1.9,1.1,3.8,2.2,5.8,3
			c1.9,0.8,4.1,1.1,6.1,1.7c-3.2,0.5-6.9,0-11.2-1.7c0.2,0.7,0.2,1.2,0.5,1.6c1.1,1.8,2.8,2.5,4.8,3c4.8,1,9.6,1.9,14.2,3.5
			c3.5,1.2,7,2.5,10.6,3.5c1.7,0.5,3.3,1.2,4.9,1.9C332.3,264.9,332.2,265,332.2,265.1z"/>
		<path d="M314.5,236.9c-4.4,1.2-8.9,1.3-13.3,0.3c-3.6-0.8-5.6-2.2-8.5-5.6c-10.3-0.7-16.8-4.1-18.7-9.9c0.8,0,1.5-0.1,2.2-0.1
			c0.6,0,1.3-0.1,2-0.2c2.1,3.7,5.2,6,9.3,6.9c0.9,0.2,2,0.2,2.8-0.1c7.5-2.8,15.3-3,23.1-1.8c3.2,0.5,6.4,1.1,9.5,2.1
			c5.2,1.6,10.4,1.6,15.7,1.3c3.4-0.2,6.7-0.9,10.1-1.6c1.3-0.3,2.6-0.9,3.8-1.5c4.8-2.6,6.8-6.9,5.7-12.3c-0.6-2.9-1.7-5.5-3.6-7.9
			c-4.2-5.3-7.1-11.5-9.7-17.7c-2.5-6.2-4.7-12.5-7-18.7c-0.3-0.7-0.6-1.6-1.2-2.1c-3.4-3-5.7-6.7-7.5-10.7
			c-1.9-4.1-3.5-8.4-5.5-12.5c-2-4.2-4-8.4-6.4-12.3c-3.5-5.7-8.2-10.3-14.1-13.6c-0.3-0.2-0.7-0.4-0.9-1c0.7,0.2,1.4,0.4,2.1,0.6
			c5.4,1.8,9.7,5.1,13.3,9.5c3.3,4,5.7,8.5,8.1,13c2.4,4.6,4.8,9.3,7.3,13.8c1.3,2.4,3,4.7,4.6,6.9c2.2,3,4.9,5.5,8.4,7.2
			c4.4,2.2,8.4,5,11.6,8.8c2.4,2.8,4.1,5.9,4.3,9.6c0,0.2,0,0.5,0,0.7s-0.1,0.3-0.3,0.8c-3.9-6.4-9.9-9.3-16.9-11.6
			c0.1,0.7,0.2,1.2,0.3,1.6c1.9,5.8,4.3,11.4,7.8,16.5c0.8,1.2,1.7,2.4,2.7,3.5c1.7,2,2.2,2.1,4.5,0.5c0.9-0.6,1.8-1.4,2.9-2.3
			c0,2.6-0.8,4.6-2.1,6.4c-0.8,1.1-0.8,2.2-0.5,3.4c0.7,2.9,1.6,5.8,1.8,8.8c0.5,6.7-2.5,11.4-8.6,14.2c-4.5,2.1-9.3,2.8-14.2,3
			c-3.6,0.1-7.2-0.1-10.7-0.1c-0.8,0-1.7,0.3-2.5,0.6c-2.2,0.9-4.3,1.8-6.7,2.3c0.8-1.3,1.5-2.7,2.4-4.3c-7.2-3.4-14.1-4.4-21.6-1.7
			c0.7,1.7,1.9,2.6,3.2,3.1c2.6,1.2,5.2,2.2,7.9,3.2C312.4,236.3,313.5,236.5,314.5,236.9z"/>
		<path d="M395.6,385.8c0.3-3,0.7-5.9,1-8.9c0.8-7.6,0.7-15.3,0.1-22.9c-0.6-7.9-1.7-15.8-2.7-23.7c-0.5-3.5-1.3-7-1.9-10.6
			c-0.2-1.1-0.6-1.9-1.4-2.7c-2-1.9-3.1-4.3-3-7.7c0.5,0.8,0.7,1.2,1,1.6c0.9,1.1,1.6,2.5,2.7,3.3c0.9,0.7,1.4,1.4,1.8,2.4
			c3.2,10.9,5.3,21.9,6.3,33.2c0.1,1.5,0.3,3,0.9,4.5c0.3-4.8,0.8-9.7,0.9-14.6c0.2-6.3,0.2-12.7,0-19c-0.2-6.4-1-12.8-3-19
			c-0.8-2.3-1.9-4.5-3.1-6.6c-0.5-0.9-1.5-1.7-2.4-2.7c-2,3.7-3.2,7.4-4.8,11.3c-1.4-8.7,4.7-18.3,10.8-21.7
			c0.8,1.1,1.7,2.3,2.5,3.5c3.7,6,5.6,12.6,6.7,19.4c1.9,11.7,1.4,23.3-0.3,35c-2.1,14.9-6.2,29.4-11.1,43.6
			c-0.3,0.7-0.6,1.4-0.9,2.2C395.8,385.8,395.7,385.8,395.6,385.8z"/>
		<path d="M202,142c5.7,2.9,11.7,4.7,17.9,6.1c4.9,1.1,9.4,3.2,13.4,6.2c2.9,2.2,5.8,4.6,8.2,7.3c7.1,8.1,8,17.4,3.1,26.9
			c-0.6,1.1-1.2,2.1-2,3.6c0.9-0.3,1.5-0.4,2-0.7c4.2-2.3,5.8-6.2,6.3-10.7c0.6-4.2,0-8.4-0.8-12.6c-0.1-0.5-0.2-1.1-0.3-1.9
			c3.7,4.8,4.9,13.3,3.1,21.8c1.8,1.1,3.7,0.9,5.6,0.3c1.8-0.6,3.5-1.4,5.6-1.9c-1,0.9-2,1.8-3.2,2.8c1.2,0.6,2.2,0.3,3.2,0.2
			c5.4-0.6,9.2-3.6,11.3-8.5c0.9-2.1,1.3-4.5,1.9-6.8c0.3-1.2,0.3-2.4,0.6-3.6c1,4.1,0.9,8.1-0.5,12c-2.2,6-7,8.5-12.9,9.1
			c-2.2,0.2-4.4,0-6.6,0c-0.6,0-1.4-0.1-1.8,0.3c-1.8,1.6-3.5,1.4-5.2-0.5c-1.3,2.2-2.4,4.6-5.5,3.1c-1.4,1.4-2.8,2.4-4.8,1.6
			c-2,3.5-5,4.9-9.2,4.8c0.6-0.7,1-1.1,1.4-1.6c1.8-2.3,3.9-4.4,5.5-6.8c4.3-6.9,4.7-14.3,1.7-21.7c-3.2-8.1-8.9-14.1-16.4-18.4
			c-1.6-0.9-3.4-1.5-5.2-2.1c-5-1.5-9.8-3.5-14.2-6.2c-0.9-0.6-1.7-1.2-2.6-1.8C201.7,142.3,201.9,142.1,202,142z"/>
		<path d="M285.2,309.1c0.8,1.9,1.4,3.3,2.1,4.7c0.4,0.9,0.9,1.8,1.6,2.5c2.6,2.3,4.1,5.4,5.8,8.3c1.7,2.9,4.1,5,7.9,4.8
			c-1.8,2-2.6,1.9-10.8-1.9c1.3,4.3,3.2,7.9,6.6,10.5c3.5,2.7,7.6,2.9,11.8,2.6c-4.4,2.7-9,4.1-14.1,2.4c-5-1.7-7.7-5.7-10.2-9.9
			c0.7,7.7,3.7,14.3,10.1,19c-3.7,2.4-6.3,1.2-11.6-5.2c-0.5,5.9,3.4,11.1,10.6,13.5c-3.1,1.1-5.6,0.5-8-1s-4-3.7-5.4-6.2
			c-0.4-0.7-0.8-1.4-1.4-2.5c-0.6,3.4,0.1,6.2,0.9,9.3c-2-1.1-2.5-2.8-3-4.4c-0.8-2.8-0.4-5.7,0.2-8.4c0.4-1.7,0.8-3.3,1.4-4.9
			c0.8-2.1,1.3-4.3,1.6-6.6c0.4-3,1.3-6,2.1-9c0.4-1.3,0.5-2.5,0.3-3.8C282.7,318.2,283.8,313.9,285.2,309.1z"/>
		<path d="M286.7,289.9c-1.5,7.7-3,15.4-4.6,23.1c-0.4,1.7-1.4,3.2-2,4.9c-0.4,1-0.6,2.2-0.7,3.3c-0.2,4.2-0.2,8.5-0.6,12.7
			c-0.4,5.4-1.7,10.6-4.1,15.5c-2.1,4.2-2.6,8.7-2.4,13.3c0.1,2,0.3,4.1,0.8,6c0.8,3.1,2.4,5.8,6.3,5.9c-3.2,2-5.8,1.5-7.3-1.4
			c-0.6-1.1-0.9-2.2-1.5-3.7c-1.9,3.4-3.2,6.8-2.7,10.5c0.4,2.7,2.1,4.5,4.6,5.2c2.2,0.6,4.5,0.7,6.4,1c-3.3,2.6-9.7,1.5-12.2-2.3
			c-1.2-1.8-1.7-3.9-1.8-6c-0.3-3.9,0.3-7.6,1.3-11.3c1-3.8,1.9-7.6,2.8-11.4c0.2-1,0.3-2.1,0.5-3.1c0.3-1.5-0.1-2.8-1-4.1
			c-3.3-4.8-5.2-10.1-4.9-16c0.2-4.3,1.8-8,5.2-11.5c-0.1,1-0.1,1.5-0.1,2c-0.5,4.1-0.8,8.3,0.7,12.3c0.6,1.6,1.6,3,2.6,4.3
			c0.6,0.7,1.6,1.1,2.7,1.7c1.3-2.9,1.3-5.7,1.5-8.4c0.2-3.4,0.2-6.8,0.2-10.2c0-2.8-0.3-3.2-3-4.2c-0.2-0.1-0.5-0.2-0.8-0.3
			c0.8-1.5,2.2-2.2,3.6-2.7s2.2-1.5,2.9-2.8c2.5-4.3,3.5-9.1,4.1-13.9c0.2-1.8,0.6-3.7,1.1-5.5c0.3-1.1,1-2.1,1.6-3.1
			C286.1,289.7,286.4,289.8,286.7,289.9z"/>
		<path d="M242.5,203.7c1.5,0.7,2.7,1.3,4,1.9c0.4,0.2,0.9,0.4,1.2,0.8c2,2.2,4.6,3,7.5,3c3.2,0,6.5-0.4,9.7-0.6
			c4.9-0.3,9.7-0.3,14.5,1c3.3,0.9,6.3,2.2,8.9,4.3c0.6,0.5,1.6,0.8,2.4,0.8c5,0,9.8,1.1,14.4,3.3c6.6,3.2,7,3.2,13.9,0.8
			c1-0.3,2-0.7,3-1c2-0.6,3.9-0.8,6-0.4c3.7,0.8,7.5,1.3,11.4,0.7c6.1-1,8.3-4.1,7.5-10.2c0-0.2,0-0.5,0.2-0.8
			c1.7,2.7,3,5.6,2.5,8.9c-0.3,1.9-1.4,3.4-3.2,4c-1.9,0.6-3.9,1.2-5.9,1.3c-2.8,0.2-5.7,0-8.5-0.3c-4.2-0.4-8.3-0.1-12.3,1.1
			c-1.9,0.6-3.8,1-5.7,1.4c-2.3,0.5-4.5,0.3-6.7-0.7c-1.2-0.6-2.5-1.2-3.6-2c-4.8-3.7-10.2-4.7-16.1-4.2c-0.3,0-0.6,0-1.2,0
			c0.1-0.5,0.2-0.9,0.4-1.6c-4.4-2.5-9-3.9-14.4-3.4c0.3,2.1,1.7,3.3,3.3,4.1c1.5,0.7,3.1,1.2,5,1.9c-4.3,1.6-8.2,1.3-12-0.4
			c-2-0.9-3.9-2.1-5.6-3.5c-1.3-1-2.5-1.3-4-1.1c-4.3,0.5-8.6,0.4-12.9-0.6c-1.9-0.4-3.7-1.1-5.5-1.9c-1.4-0.6-1.7-1.2-1.2-2.7
			C239.9,206.1,241.1,204.7,242.5,203.7z"/>
		<path d="M394.9,224.8c3.2-13.2,3-26.7,4-40.1c0.4,7.4,0.8,14.9,1.1,22.3c0.2,4.6,0.3,9.3,0.3,13.9c0.1,5.5-0.6,10.8-3,15.9
			c-2.7,5.8-2.3,11.7-0.1,17.5c0.7,1.9,1.5,3.7,2,5.7c-5.9-5.4-7.6-12.8-9.8-20c-0.8,11.2,3.5,20.6,10.1,29.4
			c-0.7-0.4-1.5-0.7-2.2-1.3c-0.8-0.6-1.5-1.3-2.1-2c-5.7-7.3-8.9-15.5-9-24.7c-0.1-3,0.9-5.7,2.2-8.4c1-2,1.7-4.4,2-6.7
			c0.8-7.5,1.6-15,2.1-22.6c0.5-6.7,0.6-13.5,0.9-20.2c0-0.6,0.1-1.3,0.5-1.9C394.3,196.1,394.6,210.4,394.9,224.8z"/>
		<path d="M253.9,322.6c-0.2-1.4-0.3-2.9-0.5-4.3c-0.8-6-0.3-12,0.1-18c0.4-5.4,0.6-10.9,0.9-16.3c0-0.5,0.1-1.1,0.5-1.7
			c0.2,1.3,0.5,2.7,0.5,4c0.2,5.2,0.3,10.4,0.3,15.6c0.1,8.1,0.5,16.1,2.6,23.9c0.4,1.6,0.9,3.3,1.5,5.2c-0.7-0.3-1.2-0.4-1.6-0.7
			c-4.3-2.8-7.7-6.5-10.6-10.7c-4.3-6.3-7.1-13.3-9.3-20.6c-3-9.8-4.8-19.9-5.7-30.1c0-0.2,0.1-0.5,0.2-1c1.3,0.2,2.5,0.4,3.3,0.5
			c1.7,2.2,3.1,4,4.4,5.9c0.4,0.6,0.7,1.4,0.8,2.2c0.6,7.8,1.5,15.5,3.3,23.1c1.7,7.2,4,14.2,7.6,20.8c0.4,0.8,0.9,1.5,1.3,2.2
			C253.7,322.7,253.8,322.7,253.9,322.6z"/>
		<path d="M297.4,115.8c0.5,2.1,1.1,3.9,1.4,5.7c0.3,1.4,0.8,2.6,1.7,3.7c4.6,5.7,8.8,11.7,12.3,18.1c2.6,4.7,4.6,9.6,5.2,15.1
			c0.5,4.4,2.2,8.5,4.1,12.5c3.1,6.6,7.2,12.8,11.6,18.6c3.4,4.4,4.5,9.5,4.1,14.9c-0.3,4-2.6,6.8-6.3,8.2c-1.7,0.6-3.6,1-5.5,1
			c0.4-0.2,0.8-0.5,1.2-0.7c6.1-2.9,7.8-7.7,6.7-13.9c-0.6-3.1-1.8-5.8-3.7-8.4c-6.5-8.7-12.2-18.1-14.4-28.8
			c-2.4-11.6-7.8-21.6-14-31.4c-0.8-1.3-1.8-2.5-2.6-3.8c-0.9-1.4-2-2.5-3.4-3.5c-1.2-0.8-2.3-1.9-3.6-3c1.4-0.4,2.6-0.5,3.4-1.2
			C296.3,118.3,296.6,117.1,297.4,115.8z"/>
		<path d="M373.6,290.2c-0.3,1.2-0.5,2.3-0.8,3.5c-1.7,5.9-5.4,10.5-10.3,14.1c-1.2,0.9-2.1,1.9-2.7,3.3c-1.9,4.1-4.5,7.7-7.8,10.8
			c-3.1,3-6.7,5.1-11,6c-0.8,0.2-1.6,0.2-2.6,0c1.1-0.9,2.3-1.8,3.3-2.8c1.2-1.1,2.4-2.2,3.4-3.5c1-1.2,1.8-2.5,2.7-3.8
			c-1.7-1.3-3.6-0.8-5.7-1.3c1.1-0.5,1.7-0.7,2.4-1c5-2,9.9-4.2,14.4-7.1c3.1-2.1,6-4.5,8.2-7.6c1.9-2.7,3.2-5.6,3.2-9.3
			c-7.1,3.7-14.5,4.6-22.1,4.8c2.6-0.6,5.2-1.1,7.8-1.8c3.9-1.1,7.7-2.6,11-5c3-2.2,5-5,6.4-8.4c0.5-1.4,1.8-2.5,2.9-4
			c0.6,2,0.6,2-0.3,3.9c1.4,1.8,1.3,4,1,6.1c-1,6.5-1.4,12.9,0,19.4c0.3,1.2,0.2,1.2-1.6,2.9C372.3,303.1,374,296.6,373.6,290.2z"/>
		<path d="M264.4,345.8c2.2,2.7,2.1,5.2,0.8,7.8c-1.6,2.9-3.2,5.9-4.6,8.9c-1,2.1-1.9,4.2-2.5,6.5c2.1-1.6,4.1-3.2,6.2-4.9
			c0.1,0.1,0.2,0.2,0.4,0.3c-0.6,2.4-1.5,4.7-1.9,7.1s-0.5,4.8-0.7,7.8c-0.7-1.5-1.2-2.6-2-4.2c-0.7,4.6-0.4,8.4,2.2,12
			c-2.5-0.3-3.7-1.9-4.7-3.6s-1.7-3.6-2.5-5.4c-2.6,4.9-1.2,10.2,3.9,14.1c-3.3-0.2-7.6-2.5-9.3-5.1c-1.3-2-1.8-4.2-1.2-6.5
			c0.6-2.5,1.4-5,2.4-7.4s2.3-4.7,3.6-6.9C258,359.6,261.8,353.1,264.4,345.8z"/>
		<path d="M262.4,340c1.2,2.6,0.4,4.4-0.9,6.4c-7.1,10.4-14.1,20.9-21.1,31.4c-0.9,1.3-1.5,2.7-2.4,4c-3.9,6-3.9,12.4-1.8,19
			c0.7,2.1,1.7,4.2,2.7,6.5c-0.5-0.3-1-0.4-1.4-0.7c-6.7-5.4-9-13-5.3-21.6c0.3-0.8,0.9-1.5,1.5-2.2c4.7-6.2,9-12.5,12.8-19.3
			c0.4-0.7,0.7-1.4,0.9-2.2c-3.6,2.7-7,5.5-11.3,7C246.2,360,254.3,350.1,262.4,340z"/>
		<path d="M379.5,239.9c-2.1-1.3-3.2-3.3-4-5.5c-1-2.4-1.9-4.9-2.9-7.2c-0.6-1.3-1.3-2.6-2.2-3.8c1.1,4.1,3.2,8,2.7,12.4
			c-4.7,1.7-16.3,0.4-20.6-2.3c1.9-1.2,3.6-2.2,6.1-1.6c2.5,0.6,5.1,0.8,7.7,1.2c0.8,0.1,1.7,0,2.9,0c-0.9-3.5-3-5.9-4.7-8.6
			c1.6-4.4,1.1-8.8-0.1-13.4c1.4,1.2,2.1,2.2,2.9,5.1c0.6,2,1.7,3.6,3.1,5.1c4.3,4.7,8.3,9.7,11.2,15.3c0.7,1.3,2.1,0.7,2.8,1.9
			c-3,6.6-1,13.1,0.9,19.6C379.8,253,378.2,246.9,379.5,239.9z"/>
		<path d="M242.1,139.7c0.8,0.4,1.5,0.9,2.3,1.2c2.8,1.4,5.7,1.4,8.6,0.5c0.8-0.3,1.6-1.1,2.1-1.9c0.9-1.3,1.5-2.8,2.4-4.5
			c0.9,1.7,1.6,3.1,1.1,4.8c-0.4,1-0.1,1.8,0.4,2.5c1.2,1.7,2.4,3.5,3.7,5.1c2,2.6,4,5.1,5.9,7.7c1.8,2.5,3,5.4,3.6,8.5
			s-0.1,9-2.7,12.4c0.2-0.8,0.3-1.4,0.4-1.9c1.2-4.8,0.7-9.4-1.7-13.7c-1.7-2.9-3.8-5.6-5.9-8.3c-1.4-1.8-3.1-3.5-4.8-5.1
			c3.4,8,5.3,16,1.8,24.8c-0.3-3.4-0.4-6.5-0.9-9.5c-0.6-4.2-2.2-8.1-4.5-11.7c-1.5-2.4-3.3-4.4-5.9-5.6c-2.4-1.1-4.6-2.7-6-5.1
			C241.9,139.9,242,139.8,242.1,139.7z"/>
		<path d="M243.9,201.2c3.6,0.9,6.9-0.3,10.4-0.7c3.4-0.4,6.8-1,10.1-1.2c7.6-0.4,14.9,1.1,21.9,3.8c1.4,0.6,2.7,0.6,4.2,0.1
			c3.9-1.2,7.9-1.7,12-0.6c0.2,0.1,0.4,0.2,0.9,0.4c-1.8,0.6-3.4,1.1-5.2,1.8c0.2,4.4,3.2,6.5,7,8.6c-1,0.2-1.7,0.4-2.3,0.5
			c-5.9,0.1-10.9-1.7-14.6-6.4c-0.9-1.1-1.9-1.9-3.3-2.3c-9.2-3.4-18.7-4-28.3-2.7c-2.3,0.3-4.7,0.6-7,0.7
			C247.6,203.1,245.6,202.8,243.9,201.2z"/>
		<path d="M247.5,225.8c3.1-3.3,5.9-5.9,9.9-7c-0.6,0.9-1.2,1.8-2,2.6c-0.9,1-1.1,2-0.8,3.3c1,4.1,1.5,8.3,1.3,12.6
			c-0.1,1.8-0.3,3.6-0.8,5.3c-0.5,1.6-0.4,3.1,0.4,4.4c1.2,2,2.4,3.8,3.7,5.7c0.9,1.3,1.9,2.4,3,3.6c-1.7-0.6-2.9-1.5-5.5-4.4
			c-1.6-1.8-3.1-3.8-4.7-5.6c0.9,5.2,4.1,9.3,6.9,13.6c-0.3-0.2-0.7-0.4-0.9-0.7c-3.7-3.7-6.8-7.8-8.9-12.7c-1.2-2.8-0.6-4.9,2-6.4
			c1.3-0.7,1.7-1.6,1.7-2.9c0.1-3.8-0.1-7.6-0.6-11.6c-2.9,1.7-4.1,4.5-6,7.3c-2.7-6.3-2-12.2-0.2-18.3c0.7,0,1.2,0,1.8,0
			c0.5,0,0.9,0.2,1.4,0.2c-0.7,1.8-1.3,3.4-1.9,5.1C246.9,221.8,247,223.5,247.5,225.8z"/>
		<path d="M312.7,323.3c-4.5,0.5-8.9-0.1-13.1-1.8c-9.1-3.7-14.5-13.4-12.8-23.3c0.3-1.7,0.7-3.5,1-5.4c1.5,2.6,2.5,5.1,4.2,7.2
			c1.7,2.2,3.9,4.2,6.1,5.9c2.2,1.6,4.8,2.7,7.1,4c-3.6,1.5-7.7,0.9-13.2-2.1c0.1,0.7,0.1,1.2,0.3,1.6c1.4,3.7,3.9,6.5,7.1,8.7
			c3.3,2.3,7,3.7,10.9,4.7C311.1,322.9,311.9,323.1,312.7,323.3z"/>
		<path d="M246.4,248.7c0.4,6.7,3.1,12.2,7.1,16.9c1.7-0.3,3.2-0.5,5-0.8c-0.3,0.5-0.3,0.8-0.5,0.9c-1.7,1-1.9,2.5-1.2,4.2
			c0.4,1,0.8,2,1.1,3c0.9,3-0.2,4.7-3.4,4.4c-1.8-0.2-3.6-0.8-5.3-1.6c-3.3-1.6-6.1-3.9-8.4-6.6c-2.1-2.5-4.6-3.8-7.7-4.7
			c-8.7-2.6-17.3-5.2-26.3-6.2c-2.4-0.3-4.9-0.3-7.3-0.2c-2.5,0.1-4.8,0.9-5.5,4c-1.3-2.9-0.6-4.6,2.1-5.5c3.1-1,6.3-0.8,9.4-0.4
			c10.7,1.2,21.1,4,31.3,7.3c1.4,0.4,2.4,1.2,3.4,2.2c2.3,2.3,4.7,4.5,7.1,6.6c1.2,1,2.7,1.8,4.1,2.6c0.7,0.4,1.5,0.6,2.3,0.7
			c2.2,0.2,2.9-0.7,1.9-2.7c-0.5-1-1.1-2-1.8-2.9c-1.7-2.6-3.4-5.1-5.1-7.8c-1.7-2.7-2.9-5.6-3.3-8.8
			C245.6,251.7,245.4,250.3,246.4,248.7z"/>
		<path d="M337.7,346c7.9-5.1,15.5-10.5,20.5-18.7c0.7-1.1,1.2-2.4,1.6-3.7c-5.4,4.4-10.5,8.9-17.3,11.1c0.7-0.5,1.4-1,2.1-1.4
			c9.6-6.4,17.1-14.6,22.1-25.1c0.7-1.5,1.9-2.8,3.2-4.6c0.2,1.1,0.4,1.6,0.3,2.1c-0.2,1.5-0.4,3.1-1,4.5c-0.8,2-1.7,4.1-2.8,5.9
			c-1.4,2.4-2.8,4.6-3,7.5c-0.2,2.7-1.7,5.1-3.5,7.1c-1.6,1.8-3.3,3.6-5.1,5.2C349.7,340.2,343.9,343.4,337.7,346z"/>
		<path d="M186.6,251c-0.6-3.3-0.2-6.3,2.1-8.9c2.2-2.4,5-2.4,7.9-1.7c2.2,0.5,4.4,1.3,6.6,1.8c10,2.5,20.1,3.8,30.4,3.3
			c2-0.1,4-0.5,6-0.8c1.9-0.3,3.7-0.7,5.3,1c-3.5,3.8-2.7,8.2-2,12.6c0.2,1.5,0.8,2.9,1,4.5c-3.8-4.6-3.4-10.2-3.1-15.9
			c-1.2,0.2-2.2,0.3-3.2,0.5c-6.3,0.9-12.5,0.1-18.7-0.8c-5.5-0.8-11.1-1.7-16.7-2.3c-2-0.2-4.1-0.2-6.1,0
			C191.8,244.8,188.3,246.5,186.6,251z"/>
		<path d="M402.3,271.5c-2.1,1.8-4.1,2.1-6.3,1.6c-4.3-1-7.5-3.7-10.4-6.8c-4-4.4-8-8.8-12.1-13c-3.2-3.2-6.8-6-10.8-8.3
			c-3.5-2.1-7.3-3.5-11.4-3.9c-4.7-0.4-8.5-2.9-11.9-6.2c2.9-0.5,3.4-0.4,5.5,1.1c1.7,1.3,3.6,2,5.8,2.3c2.1,0.3,4.2,0.6,6.1,1.4
			c6.3,2.4,11.7,6.3,16.9,10.5c5.3,4.4,9.9,9.4,14.1,14.8c1.9,2.4,4.2,4.3,6.9,5.6C396.9,271.8,399.3,272.1,402.3,271.5z"/>
		<path d="M305.8,157.9c4.6,7,9.3,13.9,13.8,21c2.5,4,4.5,8.3,5.4,13c0.4,2.2,0.4,4.5,0.3,6.8c-0.1,2.9-1.4,5.4-3.3,7.4
			c-3.3,3.4-7.2,5.8-12.3,6.8c0.7-0.8,1.1-1.3,1.5-1.8c1.5-1.8,1.5-2.4,0-4.2c-0.7-0.9-1.5-1.7-2.5-2.6c2.7,0.1,3.8,2.4,5.6,3.6
			c6-3.4,10-10.2,7.8-18c-1-3.6-2.5-6.9-4.4-10c-2.4-3.9-4.9-7.7-7.2-11.6c-1.4-2.4-2.7-4.8-4.1-7.2c-0.5-0.9-0.8-1.9-1.2-2.8
			C305.4,158.1,305.6,158,305.8,157.9z"/>
		<path d="M108.5,178.5c-0.5-1.9,0.1-3.6,0.7-5.3c1-2.6,2.2-5.1,3.3-7.6c2-4.5,3.2-9.2,2.6-14.2c-0.2-2-0.7-4-1.1-6.1
			c1.4-1.1,2.8-2.2,4.5-3.5c2.8,7,3.7,13.8,0.5,20.7c-0.8,1.6-1.7,3.2-2.7,4.6C113.8,170.9,111.1,174.6,108.5,178.5z"/>
		<path d="M273.4,284.8c1.6-5.1,3.4-9.7,4.6-14.5c2.1-7.7,2.7-15.5,1.4-23.4c-0.2-1-0.7-2-1-3c-0.5-1.5-1.2-2.9-1.4-4.4
			c-0.4-2.2,0.4-4,2.5-5c0.1,0.2,0.2,0.3,0.2,0.4c-1.3,2.7-0.7,5,1.3,7.2c0.5,0.6,0.8,1.4,0.9,2.2c0.3,3.7,0.8,7.4,0.7,11.2
			c-0.1,6.7-0.9,13.3-2.8,19.7c-0.4,1.4-0.9,2.8-1.4,4.1c0.8,1.1,1.6,2.1,2.6,3.5c-1.8,0-3.1,0-4.7,0c1.4,1.3,2.8,2.2,3.7,3.4
			c0.9,1.3,1.3,2.9,1.9,4.4c-0.2,0.1-0.3,0.2-0.5,0.3c-0.4-0.7-0.8-1.4-1.2-2c-1-1.4-1.9-2.7-4.1-2.4
			C275.1,286.6,274.1,285.3,273.4,284.8z"/>
		<path d="M159.8,132.8c-4.3,4.7-5,10.3-4.6,16.3c0.2,2.2,0.8,4.1,2.1,5.9c1.9,2.5,3.7,5.1,5.4,7.8c1,1.6,2,3.4,1.6,5.7
			c-0.4-0.4-0.7-0.6-0.9-0.8c-2-2.4-3.6-5.1-5.9-7.1c-5.7-4.9-6.5-11.2-5.9-18c0.3-3.9,1.7-7.6,4-10.9c0.5-0.7,1.1-1.4,1.8-2.3
			C158.2,130.7,159,131.7,159.8,132.8z"/>
		<path d="M140,135c-0.7,3.5-1.5,6.9-2.1,10.5c-0.6,3.7-0.9,7.4-0.4,11.1c0.5,3.5,1.8,6.6,4.1,9.2c1.6,1.8,3.4,3.5,5,5.3
			c1,1.1,2.1,2.2,2.2,4.3c-0.6-0.5-1-0.8-1.4-1.1c-1.6-1.4-3.2-2.8-4.8-4.1c-1.4-1.2-3-2.3-4.4-3.4c-4.2-3.4-6-7.8-5.4-13.1
			C133.6,146.8,136.5,140.7,140,135z"/>
		<path d="M299.9,167.3c2.2,4.3,4.2,8.1,6,12c1.1,2.4,1.9,5.1,1.5,7.8c-1.1,7.5-5.8,12.4-14.7,11.1c-1.4-0.2-2.7-0.5-4.1-0.8
			c-5-1.2-10-2.4-15.7-1.3c1.5-1.3,2.8-1.4,4.1-1.6c3.3-0.5,6.5,0.1,9.7,0.7c2,0.4,4,0.7,6,0.9c5.5,0.5,10.2-3,11.5-8.4
			c0.5-2.2,0.4-4.4-0.3-6.5c-0.9-2.6-2-5.2-2.9-7.7C300.3,171.6,299.5,169.8,299.9,167.3z"/>
		<path d="M406.6,265.2c0.9,0.1,1.2,0.1,1.5,0.1c4.2,0.4,6.5-1.4,7-5.6c0.5-4.1,0-8.1-1.2-12c-3-9.8-5.1-19.8-5.4-30.1
			c-0.1-2.8,0.1-5.7,0.5-8.5c0.2,2,0.4,4,0.6,6c0.9,10.8,3,21.4,6.2,31.7c1.4,4.5,1.5,9.1,1.1,13.8c0,0.2-0.1,0.5-0.1,0.7
			C416,265.9,412.9,268.9,406.6,265.2z"/>
		<path d="M347.9,268.9c1.2-0.1,2.5-0.2,3.7-0.4c2.9-0.5,5.8-0.8,8.6-1.6c1.6-0.4,3.2-1.2,4.6-2.2c2.6-1.8,3.6-4.4,3-7.4
			c-0.3-2-0.8-3.9-1-6c2.7,2.2,6,3.7,5.9,8c-0.1,4.2-1.8,7.2-5.6,8.8c-1.9,0.8-4,1.4-6.1,1.6C356.7,270.3,352.3,270.1,347.9,268.9z"
			/>
		<path d="M267.5,265c1.8-0.6,2.3-2.1,2.5-3.8c0.2-2.2-0.2-4.3-1.2-6.4c-2.3-4.8-4-9.8-4.9-15s-0.9-10.4,0.8-15.4
			c0.5-1.6,1.3-3.1,2.1-4.8c0.9,0.3,1.5,0.6,2.2,0.9c-4.3,6.1-3.9,12.7-2.6,19.4c1,5.2,2.8,10.1,5,15c1.2,2.8,1.1,5.7-0.1,8.5
			C270.5,265.1,269.6,265.4,267.5,265z"/>
		<path d="M328.1,368c1.7-1.5,3.1-2.7,4.6-4c5.1-4.5,9.9-9.2,14-14.6c1.4-1.9,2.8-3.8,3.9-5.9c1.3-2.5,3.7-3.6,5.9-5.6
			C355.3,346.8,338,365.1,328.1,368z"/>
		<path d="M356,283.3c-1.6-1.2-3.2-2.4-5.1-3.8c2,0,3.7,0.1,5.2,0.6c4.1,1.5,7.7,0,11.1-2c2.5-1.5,3.9-3.6,3.6-6.7c0-0.4,0-0.8,0-1
			c1.2-1.5,2.4-2.8,3.5-4.2c2.1,2.1,1.7,6.8,0.1,8.8c-1.2,1.4-2.5,2.8-4,3.9c-2.6,1.9-5.6,3-8.6,3.8c-1.5,0.4-2.7,1-3.7,2.1
			c-0.9,0.9-1.9,1.6-3.2,2.1C355.1,285.8,355.5,284.7,356,283.3z"/>
		<path d="M154.3,167c-1.6-1.7-2.9-3.3-4.5-4.6c-4.8-3.9-6.9-8.9-6.2-15c0.4-4.1,1.7-8,3.8-12.3c-0.4,3.4-0.8,6.3-1,9.2
			c-0.4,5.9,0.8,11.3,4.6,15.9c0.9,1.1,1.7,2.2,2.5,3.3C154,164.5,154.6,165.6,154.3,167z"/>
		<path d="M376.6,320.6c-0.7-1-1.1-1.5-1.6-2.1c-2.1,0.8-2.9,2.7-4.2,4.7c-0.5-1.9,0-3.3,0.7-4.5c0.5-0.9,1.1-1.9,2-2.4
			c2.6-1.6,3.6-4.2,4.8-6.8c1.2-2.6,2.8-5.1,4.3-7.6c0.6-1,1.5-1.8,3.2-2.2c-2,3.2-2.6,6.3-2,10.1c-1-0.7-1.5-1.1-2.1-1.6
			C379.4,311.9,378.1,316,376.6,320.6z"/>
		<path d="M258.5,286.1c1.1,1.8,2.2,3.5,3.2,5.4c1.5,2.7,2.8,5.5,4.3,8.2c1,1.8,2.1,3.5,3.4,5c2.8,3.2,5.7,3.3,8.8,0.4
			c0.3-0.2,0.5-0.5,0.9-0.9c-1,4.3-3.9,6-7.6,4.2c-1.7-0.8-3.4-2.1-4.5-3.5c-2-2.5-3.7-5.3-5.4-8.1c-1-1.6-1.6-3.4-2.7-4.9
			C257.7,290.1,257.5,288.3,258.5,286.1z"/>
		<path d="M390.7,321c-0.6,0.4-1.2,1.1-1.8,1.2c-3.2,0.9-5.5,3-7.6,5.4c-1.4,1.7-2.5,3.6-3.9,5.3c-0.8,1-1.7,1.9-2.8,2.6
			c-2,1.2-3.4,0.4-3.9-1.9c-0.1-0.6-0.1-1.3-0.1-2.4c0.6,0.7,0.9,1,1.3,1.4c1.3,1.4,2,1.5,3.4,0c0.8-0.8,1.4-1.8,2-2.7
			c1.5-2,2.9-4.1,4.4-6.1c0.9-1.2,1.9-2.5,3.2-4.1c-0.1-1.3-0.4-3.5-0.6-5.7c0.1-0.1,0.3-0.1,0.4-0.2c0.2,0.4,0.5,0.8,0.7,1.3
			c0.6,1.2,1.1,2.5,1.8,3.7c0.7,1.3,1.6,2.4,3.5,1.8C390.7,320.6,390.7,320.8,390.7,321z"/>
		<path d="M163.7,137c1.1,1,2,1.8,3,2.8c-2.1,4.4-1.1,8.6,0.7,12.7c1.4,3.2,3.2,6.2,4.9,9.5c-0.6-0.4-1-0.7-1.4-1.1
			c-4.2-4.2-7.6-8.9-8.5-15C161.9,142.9,162.2,140.1,163.7,137z"/>
		<path d="M261,271.3c0.5,0.4,0.9,0.6,1.1,0.9c0.4,0.6,0.8,1.3,0.9,2c0.4,3.9,3,6.3,5.7,8.7c2.5,2.2,4.8,4.8,7,7.4
			c1.6,1.9,2.6,4.3,2.5,7c-1.3-2.6-2.6-5.2-5-7.4c0,2.5,1.4,4.7,0.1,7.2c-0.5-2.3-1-4.3-1.5-6.3c-0.7-3.1-2.4-5.4-5.2-7
			c-0.6-0.3-1.1-0.7-1.6-1.1c-2-1.5-3.1-3.4-3.3-5.9C261.5,274.9,261.2,273.3,261,271.3z"/>
		<path d="M319.7,381.4c1.1-0.7,2.3-1.4,3.4-2c6.3-3.8,12-8.3,16.6-14.2c0.9-1.2,1.8-2.3,2.5-3.6c1.1-2.1,2.9-3.4,4.9-5.4
			c-0.2,1-0.2,1.5-0.3,1.9c-0.8,2.7-2.2,5-4,7.2C336.7,373,328.5,377.7,319.7,381.4z"/>
		<path d="M178.3,173.6c3.6,1.2,7.1,1.9,10.8,1.7c3.6-0.2,7.2-0.6,10.9-0.9c-1.4,2.1-3.3,3.4-6,3.1c-3.3-0.3-6.6-0.4-9.9-0.8
			C181.9,176.4,179.7,175.5,178.3,173.6z"/>
		<path d="M186.3,166.5c-7.2-2.9-13.9-11-13.2-17.6c1.5,3.7,3.3,7,5.8,9.8C181.3,161.4,183.9,164,186.3,166.5z"/>
		<path d="M183.2,182.7c-4.4,0.9-8.7,1.3-13.1,0.4c-0.7-0.1-1.3-0.6-1.8-1.1c-1.2-1.1-1.9-2.4-2.6-4.6c2.7,1.9,5,4.3,8.2,4.6
			C176.9,182.4,180,182.5,183.2,182.7z"/>
		<path d="M165.3,187.8c-2.9,0.4-5.7,0.8-8.6,1.2c-0.8,0.1-1.4-0.1-1.9-0.8c-0.7-1.2-1.3-2.3-1.9-3.7
			C156.7,187.1,161.1,187,165.3,187.8z"/>
		<path class="st0" d="M265.1,92.8c0.2,0.3,0.3,0.5,0.6,1c-0.8-0.1-1.4-0.2-1.9-0.2c0-0.1,0-0.3,0-0.4
			C264.2,93,264.7,92.9,265.1,92.8L265.1,92.8z"/>
	</g>
</g>
</svg>
