<?xml version="1.0" encoding="utf-8"?>
<!-- Generator: Adobe Illustrator 22.1.0, SVG Export Plug-In . SVG Version: 6.00 Build 0)  -->
<svg version="1.1" id="svg" xmlns="http://www.w3.org/2000/svg" xmlns:xlink="http://www.w3.org/1999/xlink" x="0px" y="0px"
	 viewBox="0 0 410 410" style="enable-background:new 0 0 410 410;" xml:space="preserve">
<g id="svgg">
	<path id="path0" d="M251.2,63c0,0,0.7,0.6,1.6,1.3c1.9,1.4,4.7,3.8,5.8,5l0.8,0.9l-1.3-0.5c-8.4-3.1-19.5-3.5-28.9-1.1
		c-3,0.8-3.2,0.9-0.9,0.9c3.5,0,6.9,0.6,10.4,1.7l2.1,0.7l-2.3,0.3c-9.2,1.1-17.4,5.2-23.4,11.6c-1.6,1.7-1.6,1.9,0,0.8
		c3.4-2.2,10.8-4.9,13.4-4.9c0.1,0-0.9,0.5-2.2,1.2c-8.2,4.1-15,11.1-18.5,19.3c-0.7,1.7-0.8,2.1,0,0.8c1.6-2.8,5.5-5.7,10.5-7.9
		c3.5-1.5,5-1.8,10.3-2.1c4.3-0.2,3.9,0.1,3.6-2.7c-0.2-1.8-0.3-1.7,1.1-1.1c5,2.3,8.4,6.7,9.7,12.4c0.1,0.3,0.2,0.5,0.2,0.5
		c0.2,0,1.5-1.9,1.9-2.8c1-2.1,2,1.5,1.9,6.4c-0.1,2.6,0,4.8,0.3,5.1c0.2,0.2,1.6-1.9,1.9-3c0.2-0.6,0.3,0.3,0.5,3.9
		c0.4,7,0.5,11.4,0.5,19.1c-0.1,11.2-0.1,11.1,5.4,14.2c3.3,1.9,7.1,6,9.9,10.9c1.9,3.2,3.4,4.7,4.7,4.7l0.4,0l-0.4-0.3
		c-1.1-0.7-2.3-2.8-6.3-10.7c-1.9-3.7-3.7-7.1-4.6-8.4c-3.1-4.7-4.4-8.5-4.4-12.4l0-1.4l0.3,0.7c0.9,2,2.8,4.1,4.9,5.1
		c1.5,0.8,1.4,0.9,0.6-2.3c-1.2-4.7-2.5-11.9-2.9-15.6l-0.1-0.9l0.4,0.5c3.6,4.2,6.3,9.8,6.5,13.7c0.1,1.5,0.1,1.6,0.4,1.2
		c1.1-1.5,1.1-4.2-0.1-7.8c-0.8-2.4-1.4-6.9-0.7-5.5c1,2.2,1.2,2.5,2.2,3.4c1.6,1.5,2.8,2,5,2c1,0,1.8-0.1,1.9-0.1
		c0.3-0.3-2.6-5.4-4.5-8l-0.6-0.8l4.5,2.4c5.6,2.9,5.3,2.9,7.4,1.3c3-2.3,5.9-5.9,7.3-8.9c2.2-4.7,2.7-5.6,5.4-9.3
		c5.7-7.6,6.5-10.5,4.1-15.4c-1.1-2.2-1.1-2.2-1-0.2c0.1,2.9-0.9,5.9-2.5,7.8l-0.6,0.7l-0.1-1.7c-0.2-3.1-0.8-6-2-8.9
		c-0.4-0.9-0.7-1.7-0.7-1.7c0,0-0.3,0.7-0.5,1.4c-0.3,0.8-0.8,1.8-1.1,2.3l-0.6,1l0-3.9c0-2.3-0.1-3.9-0.2-3.9c-0.4,0-1.6,2.1-2,3.5
		c-0.3,1.1-0.4,1.1-1.6-0.5c-2.4-3.1-6.5-6.6-10.1-8.6c-2.2-1.3-2.3-1.3-1.8-0.1c0.4,0.8,0.7,2.3,0.7,3c0,0.3-0.2,0.2-1-0.5
		c-3.1-2.8-8.4-5.5-12.9-6.6C256.4,63.2,251.2,62.7,251.2,63 M301.8,88.1c-1.9,2.3-3.8,5.4-5.8,9.2c-1.2,2.3-1.7,2.5-2.7,0.9
		l-0.3-0.5l-0.1,0.4c-0.1,0.2-0.1,1.1-0.1,2l0.1,1.6l-0.7,0.1c-0.4,0.1-1,0.1-1.4,0c-0.4,0-0.7-0.1-0.7,0c0,0,0.3,1.5,0.7,3.3
		c0.7,3.6,0.9,3.8,2.1,4.2c1,0.2,1,0.2,0.5-0.9c-0.5-1.1-1.1-3.2-1.1-3.9V104l1,0.3c0.6,0.2,1.3,0.3,1.7,0.3h0.6l-0.3-0.9
		c-0.2-0.5-0.6-1.3-0.8-1.8c-0.6-1.2-0.6-1.2,0.1-0.9c0.3,0.1,1.1,0.3,1.7,0.3l1.1,0.1l0-1.4c0-3.1,3.7-9.1,4.4-7.2
		c0.4,1.2,0.5,9.7,0.1,11.2c0,0.1-0.2,1.3-0.3,2.7c-0.2,2.7-0.2,2.7-0.7,2.5c-0.5-0.3-0.4,0.3,0.3,1.3l0.6,0.8l-0.9,0
		c-0.5,0-0.9,0.1-0.9,0.2c0,0.3,1.9,1.9,2.5,2.2c1.1,0.5,1.2,0.5,1.1-0.4c-0.2-1.3-0.1-5,0.2-7.6c0.3-3.1,0.3-6.8,0-8.7
		c-0.1-0.8-0.2-1.9-0.2-2.5l0-1.1l0.3,0.8c1.1,2.4,1.4,5.5,1.1,9c-0.7,6.3-0.2,10.5,1.3,11c2.2,0.7,3.3-1,2.2-3.5
		c-0.7-1.6-1-3.4-0.8-5.4c0.1-2,0.2-2.1,0.7-1.2c0.3,0.4,0.8,1,1.2,1.2c0.4,0.3,1.1,0.8,1.5,1.1c1.3,1,1.5,0.9,1.6-1.4
		c0-0.8,0.1-1.7,0.1-2.1l0.1-0.7l-0.6,0.4c-0.7,0.5-0.6,0.7-1.1-1.9c-0.2-1.2-0.5-2.3-0.5-2.3c-0.1-0.1-0.7,1.4-0.7,1.8
		c-0.1,1.6-1.6-3.5-1.8-5.9l-0.1-1.7l-0.5,1.1l-0.5,1.1l-0.6-1.1c-1.1-2-3.3-6.4-3.3-6.6C303,86.7,302.7,87,301.8,88.1 M227.8,95.3
		c-0.3,0.5,0,0.7,2,0.7c2.7,0.1,5.3,1,6.4,2.3c0.3,0.3,0.2,0.3-0.9,0c-1.6-0.5-5.5-0.7-7.3-0.5c-0.9,0.1-2.1,0.1-3.2,0
		c-3.9-0.3-8.8,0.6-12.2,2.2c-1.7,0.8-1.1,1.6,0.6,0.8c2.6-1.2,5.8-1.9,9-2.1l1.7-0.1l-0.7,0.3c-0.4,0.2-2.2,1-4,1.8
		c-1.8,0.8-4.5,2-5.9,2.5c-4.5,1.7-6.5,2.9-8.1,5.1c-0.9,1.2-0.8,1.4,0.1,0.5c1.3-1.1,3.8-2.1,5.3-2.1h0.6l-1,0.6
		c-4.1,2.5-8.8,9.7-11,16.8c-0.5,1.6-0.5,1.6,0.5,0.7c1-0.9,2.3-1.4,3.5-1.4h0.8l-0.2,0.5c-0.5,0.9-1.3,3.8-1.9,7
		c-1.1,5.2-1.6,6.9-2.3,7.9c-1.9,2.9-4.8,6-7.4,7.9c-1.5,1.1-1.8,1.7-1.1,1.8c0.7,0.1,5.1-3.8,7-6.1c1.1-1.3,1.1-1.3,0.3,0.9
		c-1.4,3.8-2.6,6.1-3.9,7.4c-0.4,0.4-0.8,0.8-0.7,0.8c0.2,0,2.8-1.8,3.8-2.6c0.6-0.5,0.9-0.7,0.9-0.5c-0.1,0.2-0.3,1-0.5,1.8
		c-0.8,2.7-2.4,6.4-3.9,9c-0.6,1.1-0.7,1.1,1.8-0.4c2.5-1.5,2.4-1.5,1.5,0.3c-1.4,2.6-3.4,4.6-6.9,7.2c-1.2,0.9-1.5,1.5-0.7,1.5
		c0.9,0,6.1-4.6,7.4-6.6c0.4-0.6,0.6-0.8,0.6-0.6c0,0.2-0.5,1.1-1.1,2c-3.5,5.3-8.4,9.6-14.1,12.4c-1.3,0.7-1.6,0.9-1.6,1.1
		c0.1,0.5,0.6,0.5,2.1-0.2c5.1-2.5,9.3-6,13.4-11.2l0.5-0.6l-0.3,0.8c-1.3,3.1-5.6,7.8-9.1,9.9c-1.1,0.6-1.4,1.2-0.8,1.5
		c0.5,0.2,3-1.5,4.7-3.1l0.7-0.7l-0.6,1c-2.4,3.8-4.9,6.8-7.4,8.8c-0.6,0.5-1,0.9-1,0.9c0.1,0.1,2.5-0.8,4.2-1.6l1.7-0.8l-0.5,0.8
		c-1.7,2.5-5.4,6.6-8.1,8.9c-0.6,0.6-0.9,0.8-0.6,0.8c1-0.3,3.4,1.5,7,5.1c3.8,3.9,6.1,7,3.6,4.9c-2.5-2.1-6.7-3.6-7.2-2.5
		c-0.2,0.4,0.3,0.7,0.9,0.7c3.7,0,7.9,3.8,11.1,9.8c0.8,1.5,2.5,4.7,3.9,7c5.9,10.2,8.3,14.6,10.2,19c3.4,7.8,4.8,15.4,3.9,20.3
		c-0.3,1.5-0.2,1.5,1.4-0.8c0.8-1.1,1.5-2,1.6-2.1c0.2-0.1,0.3,1.8,0.3,4c0,2.2,0,2.1,1.3,1.1c1.8-1.5,1.6-1.9,1.7,5
		c0.1,8.3-0.2,10.2-2.1,16.4c-0.6,1.8-1.1,3.7-1.2,4.2c-0.6,3.1,0.5,5.7,1.5,3.5c1.7-3.6,7.3-2.2,5.7,1.4c-0.7,1.6,0,0.6,0.9-1.2
		c1.5-3.2,2.2-5.8,3-10.6c0.6-3.9,0.6-3.7,1.1-1.8c0.7,2.5,0.9,4.4,0.9,7.5c0,4.2-0.3,5.2-2.3,7.6c-2.3,2.7-2.3,4.1-0.3,6.3
		c1.1,1.2,1.1,1.2,1.7,0.1c1.4-2.5,3.9-3.5,5.4-2c1.1,1,1,2.5-0.3,4.3c-1,1.5-0.7,1.4,0.5-0.2c3-3.9,3.3-8.1,1.3-18.2
		c-0.4-1.9-0.3-1.9,1.1,0.2c2.3,3.4,3.2,7.6,2.3,10.8c-0.4,1.4-0.4,1.4,0.2,0.5c0.9-1.4,1.8-2,2.3-1.7c0.7,0.4,1.5,1.4,1.8,2.4
		c0.4,1.2,0.5,1.2,0.7,0c0.1-0.6,0.2-1.2,0.3-1.3c0.1-0.8-0.3-2.9-1.3-6c-0.6-1.9-1.3-3.9-1.5-4.6l-0.4-1.2l0.7,0.4
		c0.9,0.5,1.7,1.6,2.6,3.2c0.4,0.7,0.7,1.3,0.7,1.3c0.5,0,1.1-5.2,0.8-6.8c-0.3-1.6-3.1-7.2-4.5-9c-1.6-2.1-1.8-2.3-2.3-3.8
		c-0.3-0.8-0.5-1.4-0.4-1.4c0,0,0.5,0.2,1,0.4c1.3,0.6,1.5,0.5,1.4-0.8c-0.1-1.3-0.7-2.5-2-4c-1.3-1.5-1.7-2.3-2.3-4.6
		c-0.5-1.6-0.5-1.7-0.9-1.6c-2.1,0.5-3.2,0.3-4.4-0.9c-0.9-0.9-2.3-2.7-2.3-3.1c0-0.6,0.6-0.2,1.6,1.1c1.6,2.1,2.5,2.6,4.2,2.3
		c1.3-0.2,1.7-1.3,0.4-1.2c-1.2,0.1-2.2-1.1-3.9-4.5c-1.1-2.2-1.2-2.4-0.7-2.4c0.3,0,0.5,0.3,1.1,1.4c2.1,4.6,4.1,6.2,4.1,3.5
		c0-3.3-0.5-4.8-3.5-9.7c-3.4-5.7-4.7-8.2-4.5-8.5c0.1-0.1,0.7-0.3,1.5-0.6l1.4-0.5l-0.7-0.4c-1-0.5-2.6-1.7-3.2-2.3l-0.5-0.5l1,0
		c1.8,0,1.9-0.1,0.8-0.8c-1.5-0.9-4.1-3.5-4.1-4c0,0,0.4,0.1,1,0.4c1.9,0.9,3,1,3,0.2c0-0.3-0.1-0.4-0.6-0.5
		c-3.5-0.7-4.6-1.9-6.6-7.7c-3.7-10.3-3.9-12.8-1.3-17.7c2.1-3.9,2.6-4.4,4.2-3.1c1,0.8,2.9,1.7,3.7,1.9l0.5,0.1l-0.1-2.1
		c-0.1-3.5,0.5-7.1,1.8-10.4l0.6-1.6l0.1,0.9c0.1,0.5,0.3,1.2,0.5,1.7l0.4,0.8l0.2-2.2c0.4-4.8,1.2-7.1,4.7-14.6
		c2.4-5,3.1-6.9,4.2-11.3c1.1-4.3,1.5-5.4,3.3-8.2c2.2-3.4,2.7-4.6,3.1-7.7c0.1-1,0.5-3.3,0.8-5.2c0.5-3.4,0.7-8.4,0.4-8.9
		c-0.1-0.1-0.1,0.8-0.1,1.9c0,2.7-0.3,4-0.8,3.6c-0.3-0.3-0.4-0.2-1.3,0.6c-2.6,2.5-5.5,4-9,4.7c-1.7,0.3-1.8,0.4-1.8,0.8
		c0,0.4,0.1,0.4,0.9,0.4c3.1-0.1,7.4-2.1,10.1-4.7c1.3-1.2,1.3-1.2,1.1-0.6c-1.4,3.5-5.2,6.7-10.2,8.7c-2.2,0.9-1.9,1.1,1.5,1.1
		l1.8,0l-0.8,0.8c-0.8,0.8-0.9,0.9-3.9,1.9c-3.5,1.2-5,1.5-9.5,1.5c-3.5,0-3.9,0-4,0.3c-0.3,1.4,11.2,0.7,14.1-0.9
		c0.8-0.4,0.4,0-0.5,0.7c-2.2,1.6-5.2,2.8-8.2,3.3c-1.9,0.3-1.9,0.3,1.2,0.8c6.6,1.1,8.3,3.3,7.3,9.7c-0.3,2.2-3,4-8.2,5.8
		c-2.1,0.7-2.5,1-2,1.4c0.5,0.5,6.1-1.7,8.4-3.2c1.3-0.9,1.4-0.7,0.3,0.3c-1.3,1.1-3.5,2.6-5.1,3.4c-1.4,0.7-1.8,1.2-1.2,1.5
		c0.3,0.2,3.7-1.6,5.1-2.7c0.7-0.5,1.2-0.9,1.2-0.8c0,0.8-4,8.9-5.6,11.3c-4.3,6.5-8.6,9.9-16.7,13.2c-3.3,1.3-6.8,3-6.8,3.2
		c0,0.1,0.7,0.1,1.6,0.1c4.5,0,5.7,1.4,6.6,7.3c0.9,5.9,1.9,8.5,3.7,9.5c1.5,0.8,1.5,0.9,0.6,0.9c-1,0-2,0.4-2.9,1.1
		c-1,0.7-0.9,0.8,0.3,0.8c1.1,0,2.5,0.5,3.3,1.1l0.5,0.4l-0.8,0c-1,0-2.1,0.5-2.9,1.2c-0.7,0.7-0.7,0.8,0.1,0.6
		c1.8-0.4,3.6-0.1,4.6,0.8c0.6,0.5,0.6,0.6,0,0.9c-0.3,0.1-0.7,0.4-0.9,0.7l-0.4,0.5l0.4,0.1c0.6,0.1,1,0.8,1.3,2.1
		c0.5,1.9,1.4,4.3,3.2,8.3c3.3,7.6,4.3,11.6,3.2,13.9c-1.1,2.5-2.5,1.8-2.9-1.5c-0.3-2.6-2-3.3-5.3-2.2c-3.4,1.2-4.9,0.6-5.3-2
		c-0.4-2.3,0.3-4,2.3-6c1.6-1.7,1.5-1.4,0.8-1.6c-1-0.2-2.4,0.2-3.8,0.8c-0.2,0.1,0.7-1.8,1.3-2.8c0.8-1.1,3.1-3.3,4.3-4.2
		c1.1-0.7,1.1-0.8,0.1-0.8c-2.2,0-4.5,1-6.3,2.7c-2,1.9-1.3-0.2,0.7-2.4l1.1-1.2l-0.6,0.1c-1,0.2-2.5,1.1-3.5,2
		c-1.4,1.4-0.5-1.3,1.1-2.9c0.8-0.8,0.9-1.3,0.4-1.4c-0.7-0.1-2.4,2-3,3.9l-0.4,1.1l-0.4-1.1c-0.9-2.6,0.7-6.8,3.7-10.1
		c0.4-0.5,0.7-0.9,0.7-1c-0.5-1.5-3.9,2.6-5.1,6.4c-0.6,1.7-0.6,1.8-0.8,1.4c-0.3-0.7,0.2-3.5,1.1-5.7c0.4-1.1,0.4-1.6-0.2-1.5
		c-0.3,0.1-1.1,2-1.5,3.7c-0.3,1.4-0.4,1.5-0.7,0.9c-0.1-0.2-1.2-2.2-2.4-4.3c-5.6-9.9-6.7-12.6-6-15.3c0.2-0.8,0.6-2.1,0.8-2.9
		c0.2-0.9,0.4-2.2,0.5-3.2c0.2-2.9,1.6-4.9,4.7-6.4c0.6-0.3,0.9-0.5,0.9-0.8c0-1-2.1-0.1-4.2,2c-0.8,0.8-1.4,1.4-1.4,1.4
		c-0.4,0-0.1-1.6,0.4-2.5c1.6-2.8,4.4-4.8,9-6.4c1.5-0.5,1.7-0.7,1.7-1.1c0-0.5-0.5-0.5-2.4,0.2c-4.5,1.7-7.2,3.6-8.8,6
		c-0.6,0.9-0.6,0.4,0-0.8c1.8-3.5,5.5-6.3,11-8.2c1.5-0.5,1.8-0.8,1.7-1.2c-0.5-1.3-8.2,2.6-11.1,5.6c-2.1,2.1-1.4,1,1.5-2.3
		c5.2-5.9,8.9-8.9,13-10.6c2.1-0.8,2.1-0.8,0-0.8c-2.7,0.1-5.7,1.1-7.7,2.5c-0.9,0.6-0.5,0.1,1-1.1c3.9-3.4,8.8-5.8,13.4-6.7
		c0.9-0.2,1.6-0.4,1.7-0.4c0.1-0.1,0-0.1-0.3-0.1c-0.2,0-1.1,0.1-2,0.2c-3.5,0.2-6.7,1-8.8,2.2l-1.1,0.6l0.6-0.7
		c1.4-1.7,4.4-3.5,8-4.7c2.3-0.8,2.2-0.8,2.1-0.8c-0.3-0.3-6.4,1.1-8.9,1.9c-1.2,0.4-1.2,0.4-0.3-0.7c3-3.6,6.1-8.4,7.2-11.2
		c1.2-3.1,1.3-3.7,1.2-9.5c-0.1-8.8-0.1-9.4,0-10.7l0.1-1.3l-0.6,0.1c-2.3,0.3-4.9,1.4-6.7,2.9l-1,0.8l0.3-0.6
		c1-2.3,3.2-4.3,7.4-6.6l1.9-1l-1.3,0.1c-3.2,0.3-6.6,1.7-9.6,4l-0.5,0.4l0.4-0.7c3.9-6.4,9.3-11,16-13.2l1.4-0.5l-1.4,0
		c-2.4-0.1-5.2,0.6-7.3,1.8l-0.9,0.5l0.5-0.6c1.9-2.5,5.9-4.8,10.6-6.1l0.6-0.2l-0.5,0c-0.8,0-5,0.4-7.8,0.8c-2.8,0.4-2.9,0.4-1-0.4
		c5.5-2.3,12.8-3,20.1-1.8c2.1,0.3,2.1,0.4,1.5-1.1c-1.8-5.3-3.7-8.1-6.3-9.3C232.4,95,228.2,94.5,227.8,95.3 M317.7,103.8
		c0,0.7-0.1,1.6-0.1,2l-0.1,0.8l-0.7-0.8c-0.7-0.7-1-1.6-1.1-2.5c0-0.5-1.3,2.7-1.6,4.1c-0.1,0.5-0.2,1.6-0.2,2.3l0,1.3l-1-1
		c-2-1.9-2.6-2.5-3-3.4c-0.6-1.2-0.8-1.1-0.7,0.4c0.1,1.4,0.5,2.5,1.3,4.2c1.3,2.6,0.6,3.9-2.1,3.9c-1,0-2.6,0.4-2.9,0.7
		c-0.8,0.9,1.9,1.8,8,2.6c3.5,0.5,5.4,1.9,6.7,4.9l0.4,0.9l0.3-0.7c0.8-1.9,1.7-5.3,1.8-6.5c0-0.9,0.6,1.7,0.7,3.2
		c0.1,1.9-0.4,6.9-1.1,9.9c-0.6,2.5-0.7,5.4-0.4,6.2c0.2,0.4,0.2,0.4,0.2-0.3c0-2.5,0.7-4.1,2.3-6c1.3-1.5,2.2-3,2.8-4.9
		c0.5-1.5,0.6-1.5,0.7-0.4c0.3,2,0.1,3.8-0.4,5.6c-1.5,5,2.2,5.1,7.5,0.3l0.6-0.6l0,0.5c0,1.4-0.9,3.3-1.9,4.2
		c-0.9,0.8-0.9,1-0.1,1.3c3.2,1.3,5.2-2.7,4.4-8.7c-0.3-2.3-0.2-4.4,0.2-5.7c0.3-1,1.2-2.8,1.3-2.8c0,0,0,1.2,0,2.7
		c0,2.6,0,2.8,0.5,4.1c0.3,0.8,0.5,1.7,0.5,2.1c0,1.7,0.8-0.6,1.3-3.8c0.4-2.8,1.2-4.8,2.3-6.3c0.5-0.7,0.4-0.8-0.3-0.5
		c-0.7,0.3-1.2,0.8-1.5,1.5l-0.2,0.5l-0.4-1.4c-0.2-0.8-0.5-2.1-0.6-3.1l-0.2-1.7l-1,1l-1,1l-0.8-2.4c-0.7-2.3-1.3-4.5-1.5-6.4
		c-0.3-2.2-1.8,0.9-2.1,4.5l-0.2,2l-0.5-0.9c-0.3-0.5-0.8-1.3-1.2-1.8c-0.8-1-1.4-2-1.8-3.3l-0.3-1l-0.5,1.5
		c-0.7,2.2-0.5,5.2,0.7,9.4c0.9,3.4,1.2,6.7,0.6,8.7c-0.3,1.2-0.1,1.1,0.4-0.1c1-2.6,1-4.7,0.4-9.5c-0.2-1.2-0.3-2.3-0.3-2.3
		c0.1-0.1,1.7,3.5,2.1,4.5c1.3,4,0.5,8-2.2,10.9c-1.2,1.3-2.2,2-2,1.4c0.7-2.3,0.7-10.5,0-13.9c-0.9-4.6-4.1-10.5-6.5-12.1l-0.4-0.3
		l0.3,0.5c2.8,4.3,4.1,9.9,3.2,14.3l-0.2,1.2l-0.1-2.2c-0.2-4-1.1-7.9-2.5-10.6c-0.6-1.3-0.7-1.2-0.3,0.3c0.4,1.4,0.6,4,0.4,4.6
		c-0.1,0.3-0.2,0.1-0.7-1.1c-0.3-0.8-0.9-2-1.2-2.6c-0.3-0.6-1.1-2.1-1.8-3.3C318,102.4,317.7,102.2,317.7,103.8 M290.5,111.1
		c-0.4,0.3-0.8,0.6-1,0.9c-0.2,0.2-0.9,0.8-1.6,1.2c-6.9,4.6-11.5,10-18.6,21.6c-3,4.8-3.1,6.2-1.3,10.8c2.8,7.2,4.6,9.4,10.4,12.9
		c4.8,2.9,6.2,4.7,8.8,10.9c0.8,1.9,1.1,2.3,0.8,1.1c-0.1-0.4-0.2-2.1-0.1-4.1c0.1-4.6-0.5-6.3-2.2-6.6c-0.7-0.1-0.5-0.3,0.8-0.5
		c1.3-0.2,1.3-0.2,0.7-1.1c-1.7-2.3-3.8-3.1-7.9-3.1h-2.4l0.6-0.5c0.9-0.7,2.8-1.6,4.1-1.8c1.3-0.2,1.2-0.4-0.6-0.6
		c-1.5-0.2-3.7-0.1-5,0.2c-1.1,0.3-1.1,0.2,0.1-1.1c1-1.1,2.6-2.1,4-2.4c2.2-0.6-4-1.9-7.1-1.6c-0.8,0.1-1.4,0.2-1.5,0.1
		c0,0,1.4-0.6,3.2-1.3c2.5-1,3.2-1.3,3.1-1.5c-0.3-0.4-1.8-0.9-3.8-1.4c-2.3-0.5-3.7-1.2-4.4-2.1c-0.7-0.9-0.6-1.2,0.1-1
		c0.9,0.2,2.7,0.1,3.4-0.1l0.6-0.2l-0.9-0.9c-0.9-0.9-1.3-1.6-1.3-2.8c0-0.3,0-0.6,0-0.6c0,0,0.4,0.1,0.9,0.3c0.9,0.3,2.7,0.3,3,0.1
		c0.1-0.1,0.1-0.3-0.2-1c-0.7-1.5-0.9-3.2-0.6-4.7l0.2-0.8l0.9,0.1c1.7,0.2,2.9-0.9,7.6-6.2c3.1-3.6,7.7-8.1,9.1-9.1
		c1.6-1.1,1.8-1.9,0.8-3C292.4,110.4,291.4,110.4,290.5,111.1 M296.8,114.7c-0.5,2,1.6,5.2,4.3,6.7c0.7,0.4,0.9,0.5,0.5,0.4
		c-1.2-0.2-2.2-0.7-3.5-1.5c-0.8-0.5-1.5-1-1.6-1c-0.3-0.2,0.1,0.7,0.8,1.7c0.7,1.1,2.5,2.9,3.1,3.1c0.2,0.1,0.3,0.2,0.3,0.2
		c0,0.4-2.3,0.5-2.7,0.1c-0.3-0.2-0.3-0.3,0.5,1.4c0.3,0.7,0.8,1.9,1.1,2.7c0.6,1.7,0.5,1.7,1.3,0.7c0.3-0.4,1-1.3,1.4-1.9
		c2.4-3.2,6.1-2.7,10.1,1.2c1.3,1.3,1.5,1.3,1.5,0.1c0-0.3,0.1-0.7,0.1-0.8c0.3-0.4,0.4,1.6,0.2,3.7c-0.3,2.9-0.1,5,0.4,6l0.4,0.8
		l0.1-1.4c0.2-2.5,0.5-3,1.9-4.3c1.3-1.1,1.8-2,2.1-3.3c0.1-0.4,0.1-0.5-0.2-0.4c-2.4,1-2.5,1-2.1-0.6c0.6-2.9,0.2-5.3-1.2-6.8
		l-0.8-0.9v1.4c0,1.8,0,1.9-1.3,0.5c-1.5-1.6-3-2.3-6.1-2.8c-3-0.5-3.8-0.9-7.6-3.7C296.6,114,296.9,114.2,296.8,114.7 M293.3,118.6
		c-4.2,1-11.4,8.7-11.4,12.1c0,1.8,1.1,3.5,2.8,4.3c1,0.5,1.1,0.8,0.3,0.8c-1.8-0.1-3.7-2.6-3.7-4.9c0-1.1,0-1.1-0.6-0.6
		c-0.2,0.2-0.7,0.3-1,0.3c-0.9,0-0.6,2.3,0.5,4.7c0.7,1.4,0.1,2-2,2c-1,0,0.2,0.8,1.7,1.1l0.7,0.1l-1,0.5c-1.2,0.5-2.5,0.8-3.7,0.7
		c-1.7-0.2,0.6,1,3.8,1.9c1.3,0.4,2.6,0.8,2.9,1c0.4,0.2,1,0.3,3.2,0.2c2.3,0,2.7,0,2.9,0.2c0.4,0.4,0.1,0.5-2.5,0.5
		c-2.8,0-3.6,0.2-6.3,1.9l-1.3,0.8l1.6,0.1c1.2,0.1,1.9,0,2.8-0.2c3.6-0.9,10.7-0.1,10.7,1.1c0,0.4-0.1,0.4-1.9-0.2
		c-2-0.6-4.5-0.8-6.5-0.6c-2.1,0.2-2.1,0.3-0.8,0.9c1.9,0.9,2,1,0.6,1.1c-1.2,0.1-3.4,0.7-4.2,1.2c-0.4,0.2-0.3,0.2,0.9,0.3
		c2.7,0.2,4.2,0.7,5.4,1.9c0.9,0.8,0.8,0.8-0.5,0.9c-0.6,0.1-1.6,0.3-2.1,0.5l-1,0.4l0.8,0.2c2.7,0.7,5,3.2,5,5.6l0,0.9l-0.7,0.1
		l-0.7,0.1l0.7,0.8c1.2,1.4,1.3,1.7,1.3,8.3c0,9.9,1,18.8,2.2,20.5c1.6,2.3,8.6,5.6,13.8,6.7c5.3,1.1,6.7,0.8,8.3-1.4
		c1.1-1.6,1-2.2-0.1-1.7c-0.2,0.1-0.7,0.2-1,0.2c-0.3,0-0.9,0.1-1.4,0.3c-1.8,0.7-3.2,0.3-9-2.5c-4.6-2.2-7.7-9.2-8.3-18.4
		c-0.2-2.3-0.4-3.8-0.9-4.4c-0.6-0.9,1,12.2,1.9,15.2c1,3.3,3.4,6.6,5.7,7.7c0.8,0.4,1.8,1,2.4,1.3c0.6,0.4,1.6,0.8,2.6,1.1
		c3.1,0.9,4.2,1.4,2.8,1.4c-1.4,0-3.7-0.6-5.2-1.4c-0.8-0.4-2-1-2.7-1.2c-1.5-0.6-3.1-1.5-4-2.3c-1.4-1.2-3.7-6.6-3.7-8.7
		c0-0.5-0.1-1.5-0.3-2.2c-1.5-6.5-0.7-13.8,2.2-19.5c3.6-7,5.7-8.6,11.9-8.8c5.4-0.2,6.8,0.6,7.6,4.1c1.2,5.7,4.3,9.1,9.3,10.4
		c5.8,1.5,7.6-2.5,2.1-4.9c-4.5-1.9-6.1-2.9-6.7-4c-0.5-0.9-0.3-1,0.7-0.5c2.9,1.3,1.4-3.4-1.9-6.2c-0.5-0.4-0.5-0.4-0.1-0.4
		c1,0,2.2,0.5,3.1,1.4l0.9,0.9v-1.3c0-1.7-0.3-3-0.9-4.4c-0.4-1-0.7-2.3-0.4-2.6c0.1-0.1,0.9,1,1.7,2.4c1.4,2.5,2.4,2.9,5.1,2.1
		c1.7-0.5,2.3-0.5,3.3-0.1c0.8,0.3,1.6,0.5,2,0.3c1.1-0.7-2.6-9-5.6-12.4c-0.6-0.7-1.3-1.6-1.5-2.1l-0.4-0.8l-0.9,1.4
		c-2,3.1-1.7,5.3,0.9,8c1.1,1.1,1.2,1.4,0.7,1.4c-0.8,0-2.7-2.4-3.3-4.3c-0.3-0.9-0.5-1.2-1.6-2.1c-1.5-1.4-1.8-1.8-2.1-2.9
		l-0.2-0.9l-0.4,0.5c-2.4,3.3-2.3,7,0.1,10.8c0.6,1,0.8,1.3,0.6,1.5c-0.3,0.4-1.7-1.4-2.5-3.4c-0.2-0.6-0.4-0.9-0.4-0.9
		c0,0.1-0.3-0.4-0.7-1.2c-2.2-4.1-2.6-4.3-8.6-3.4c-4.2,0.7-6.1,0.5-8.9-0.8c-2.3-1.1-4-1.5-6.3-1.5l-1.9,0l0.6-0.4
		c1.1-0.7,2.4-1,4-1c1.8,0,1.8,0,0.7-1c-1.1-1-2-1.3-4.4-1.4l-2-0.1l1-1.2c1.1-1.3,2.3-2.2,3.7-2.6c0.5-0.1,0.9-0.3,1.1-0.3
		c1-0.3-2.3-0.6-3.6-0.3c-0.6,0.1-0.5,0.1,0.6-1c1.4-1.4,2.1-2.8,2.7-5.6C294.9,118.3,294.8,118.3,293.3,118.6 M346.2,120.4
		c-1.9,1.2-2.4,2.4-2.6,5.9c-0.2,2.3-0.3,2.8-1.1,4.5c-0.9,2-0.6,2.4,1.5,2.4c2.1,0,2.9-0.4,5.1-2.4c3-2.7,4.1-3.5,5.6-3.7l0.7-0.1
		l-0.8,0.4c-0.5,0.2-1.6,1.3-3.2,2.8c-3.5,3.5-5,4.4-7.5,4.3c-1.7,0-1.7-0.1-1.5,0.3c0.5,0.9,2.7,1.3,4.5,0.7
		c2.1-0.6,3.4-1.5,6.1-4.1c1.5-1.5,2.6-2.3,3.1-2.3c0.5,0-0.1,3.5-0.8,5c-1.1,2.1-2.7,4-4.3,5.1c-1.3,0.9-2.4,2.1-2.4,2.6
		c0,0.2-0.1,0.3-0.2,0.3c-0.1,0-0.4,0.1-0.7,0.2l-0.5,0.2l0.5,0.3c0.6,0.4,3.1,1.4,3.2,1.3c0,0,0-0.2-0.1-0.4
		c-0.3-0.5-0.2-0.7,0.2-0.7c1.2,0,1.4-0.4,0.5-0.6c-1-0.3-1-0.5,0.2-1c4-2,7.8-9.2,7.6-14.5l0-1.2l-1.6-0.7
		c-0.9-0.4-2.4-0.9-3.4-1.3l-1.8-0.6l0.7-0.5c1-0.7,1-0.7-1.5-0.7c-2.6,0-2.7,0-1.9-0.9c0.8-0.8,0.8-1,0-0.5
		c-0.8,0.5-3.5,1.6-3.7,1.5c-0.1-0.1,0.1-0.5,0.4-1C347.1,119.9,347.1,119.8,346.2,120.4 M197.4,121.1c-0.6,1.1-1.3,2.1-3.7,4.8
		c-2.6,3-3.2,3.8-4.8,7.1c-5.2,10.3-12.7,16.9-27.8,24.7c-4.7,2.4-6.5,3-13.6,4c-6.6,1-9.1,1.7-12.2,3.3c-2.7,1.4-2.7,1.4,1.2,1.5
		c4.1,0.1,4.2,0.2,2.1,0.9c-3.3,1.1-6.8,3-9.4,5.1c-1.5,1.2-4.7,4.5-4.4,4.6c0.1,0,1.8-0.3,3.9-0.8c2-0.5,3.8-0.8,3.8-0.8
		s-0.5,0.4-1.2,0.9c-4.6,3.3-9.1,7.7-12.5,12.3c-1.1,1.6-1.1,1.6,0.3,0.4c3.7-3.1,8.8-5.6,13.6-6.6c0.8-0.2,1.6-0.3,1.7-0.2
		c0.5,0.3,0,0.6-1.4,0.9c-7.7,1.6-15.6,6.9-18.6,12.4c-1.1,2.1-1.4,2.8-1,2.6c0.1-0.1,1.4-0.9,2.8-1.8c1.4-0.9,2.7-1.8,2.8-1.8
		c0.1-0.1-0.1,0.2-0.4,0.7c-0.7,0.8-1.5,2.1-4.1,6.1c-0.7,1.1-2,2.8-3,3.9c-2.2,2.5-4,4.6-4.8,5.7c-0.9,1.3-8.6,13.2-10.1,15.6
		c-2.5,4.2-2.5,4.3-0.2,1.3c3.9-5,7.7-8.4,11.3-10.4c1.9-1,1.8-0.2-0.1,0.9c-5.2,3-13.2,11.9-16.8,18.9c-2,3.9-2.9,4.8-7.1,7.9
		c-2.2,1.6-3.8,3-3.5,3c1.4,0,4.9-1.8,7.2-3.6c5.2-4.1,7.3-6.1,9.3-8.5c0.6-0.8,0.7-0.8,1-0.6c0.6,0.5-2.9,4-8.2,8.3
		c-6.2,5-7,5.8-8.7,9.4c-1.5,3.2-2.3,6.1-2.4,9.2c-0.1,1.9-0.1,1.9,0.7,0c0.9-2.4,3.5-5.6,5.2-6.6l0.5-0.3l-0.5,1
		c-1.7,3.5-2.7,8.6-2.3,12.7c0.1,1.7,0.6,4.3,0.7,4.4c0,0,0-0.7,0-1.6c-0.2-3.4,1.9-7.7,5-10.1l0.6-0.4l-0.6,1.9
		c-1.4,4-1.7,11.1-0.6,11.1c0.5,0,0.6-0.4,0.4-1.8c-0.5-4.5,1.4-11.9,3.6-13.4c0.4-0.3,0.7-0.4,0.6-0.3c0,0.1-0.4,0.8-0.8,1.5
		c-1.9,3.7-2.8,9.8-1.4,9.8h0.4l0-2.2c0-3.9,2.5-9.9,4.6-11.1c1.5-0.8,4.9-4.7,5.9-6.6c0.7-1.3,1.7-4.6,2.7-8.7
		c1.5-5.8,3.1-9.8,3.9-9.8c0.5,0,0.4,0.2-0.4,1.8c-1,2-1.6,3.7-2.7,8c-0.5,2.1-1.2,4.6-1.5,5.6c-0.3,1-0.8,2.9-1.1,4.2
		c-0.3,1.3-0.7,2.7-0.8,3.2c-0.4,1.1-0.3,1.1,1.2,0.1c2.5-1.8,4.1-3.6,4.7-5.5c1.1-3.1,1.8-6,2-8.4c0.1-1,0.4-1.3,0.7-1
		c0.3,0.3-0.9,6.4-1.7,8.5l-0.2,0.5l0.3-0.4c1.1-1.3,2.6-5.1,3.4-8.5c0.5-2.1,1-3.4,1.7-4.4l0.5-0.8v-3c0-3,0.4-6.6,0.7-6.9
		c0.3-0.3,0.6,0.3,0.5,1c-0.9,3.9-0.5,10.8,0.8,15.2c0.2,0.8,0.4,1.5,0.4,1.7c0,0.2,0.3,0.9,0.7,1.6c0.5,1.1,0.6,1.2,0.6,0.8
		c-1.1-7.5,0.9-16.6,5.1-23.1c0.5-0.7,1.2-2.1,1.6-3c1.3-3,3.6-6.7,4.2-6.7c0.5,0,0.4,0.3-0.5,1.6c-3.7,5.4-5.7,12-4.8,15.4
		c0.5,1.8,1.1,3,1.2,2.4c0.2-1.2,0.6-4.3,0.7-5.6c0.3-4.6,2.3-9.5,5.6-13.4c1-1.2,3.2-3.2,3.6-3.2c0.5,0,0.1,0.6-1.8,2.5
		c-3.8,3.7-5.5,7.2-6.6,13c0,0.2,0.2-0.1,0.6-0.8c3.2-5.9,8.6-8.7,14.1-7.1c2.2,0.6,5.4,2.8,6.2,4.3c0.4,0.7,0.3,0.1-0.2-1.4
		c-0.8-2.4-0.5-4.4,0.9-7.6c1-2.2,5-5.5,8.9-7.4c1.4-0.7,1.8-1.3,0.9-1.4c-0.6-0.1-4.4,2-6.3,3.5c-1.1,0.9-1.2,0.9-0.6,0
		c0.6-0.9,1.1-1.2,4.1-3c3.1-1.8,6.5-3.5,9.3-4.8c2.5-1.1,3.2-1.7,2.2-1.9c-0.7-0.1-8.4,3.7-13.1,6.5l-0.6,0.3l0.6-0.8
		c1.8-2.6,6.7-5.8,11.6-7.6c1.5-0.6,2.1-1.1,1.3-1.4c-0.6-0.2-5.8,2.1-8.2,3.7c-0.7,0.4-1.2,0.8-1.2,0.7c0-0.3,2.3-3.1,2.8-3.4
		c0.3-0.2,3.1-1.7,6.1-3.2c4.5-2.2,5.5-2.8,5.5-3.1c0-0.7-1.6-0.1-8.7,3.5c-1.1,0.6-2,1-2,1c0-0.4,1.4-2.2,1.9-2.5
		c1.8-1.2,8.3-4.7,10.3-5.7c2.3-1.1,2.9-1.6,1.8-1.8c-0.6-0.1-5.8,2.6-10.9,5.6c-2,1.2-4.1,1.8-8.5,2.6c-4,0.7-4,0.8-1-0.8
		c4.9-2.6,8.7-5.3,12.9-9.4c1.4-1.4,2.5-2.6,2.5-2.6c-0.1-0.1-0.5,0.4-1.1,0.9c-1.2,1.2-2.8,2.1-5.4,2.8c-1,0.3-2.4,0.8-3.2,1.1
		c-2.6,1-9.9,3.7-10.2,3.7c-0.1,0-0.3-0.1-0.3-0.3c0-0.2,0-0.3,0.1-0.3c0.1,0,7.6-2.8,9.9-3.7c2.5-1,3.4-1.6,5.9-3.8l0.6-0.5
		l-1.1,0.6c-3.4,1.8-10.4,3.9-10.8,3.2c-0.2-0.4,0-0.5,1.8-0.8c7.3-1.5,12.8-4.8,18-10.9c1.1-1.3,1-1.3-0.3-0.1
		c-5.1,4.6-15.3,10.2-15.3,8.4c0-0.2,0.4-0.4,1.8-0.9c7.9-2.7,17-10.3,21.6-18.1c0.8-1.4,0.7-1.5-0.2-0.2c-2.9,4-8.5,7.3-13.8,8.2
		c-2.7,0.5-2.7,0.4-0.3-1.5c1.1-0.9,2.8-2.4,3.8-3.4l1.7-1.7l-1,0.4c-3.9,1.7-13.1,4.1-13.4,3.5c-0.2-0.4,0-0.5,3.5-1.2
		c7.4-1.7,12.1-3.7,14.5-6.4l0.9-1l-1.2,0.8c-4,2.9-12.5,6.1-13.4,5.1c-0.3-0.3,0.3-0.7,0.9-0.7c3.6,0,11.8-4,15-7.4l0.8-0.8l-1,0.6
		c-3.4,2.2-9.1,4-9.1,2.9c0-0.2,0.5-0.4,1.6-0.6c3.2-0.7,5.5-1.8,8.5-4c1-0.7,2.1-1.5,2.4-1.6c1-0.6,0.4-0.4-1.1,0.3
		c-1.9,1-4.4,1.8-4.7,1.7c-0.6-0.2-0.1-0.6,1.2-1.1c6.6-2.4,12.3-7.5,14.6-12.8c1.4-3.2,7.6-19.2,7.6-19.3
		C197.8,120.3,197.6,120.6,197.4,121.1 M66.5,127.2c-0.2,0.4,0,0.7,1.6,1.6c2,1.1,4.7,3.1,6.4,4.8l1.3,1.3l-1.3-0.8
		c-14.2-8.3-29.5-8.7-38-0.9c-1.2,1.1-0.8,2,0.4,1c4.9-4.1,10.8-6.1,17-5.6l1.4,0.1l-1.2,0.3c-0.7,0.2-1.8,0.6-2.6,0.9
		c-0.7,0.3-1.9,0.7-2.5,0.8c-7.8,1.5-14.4,5.8-18.8,12.2c-1.2,1.8-1.4,2.5-0.8,2.5c0.3,0,0.6-0.4,1.4-1.6c3.2-5.1,8.6-9.2,14.3-11.1
		c1.7-0.5,1.8-0.5,0.6,0.3c-3,2-6.4,5.5-8.9,9.1c-0.7,1.1-0.7,1.1,0.3,0.3c4.5-3.9,18-9.4,18-7.4c0,0.2-0.4,0.3-1.3,0.5
		c-10.7,2.4-18.5,7.7-22,15.1c-2.6,5.4-4.5,16.9-2.6,15.3c0.2-0.1,0.2-0.5,0.2-1c0-1.9,0.8-6.6,1.5-9.4c0.5-1.8,0.5-1.6,0.1,0.6
		c-0.7,3.5-0.4,13.2,0.4,14c0,0,0.3-0.7,0.6-1.6c0.8-2.6,4.6-9.2,4.1-7.3c-0.1,0.2-0.1,1.2-0.2,2.2l-0.1,1.7l0.6-1.7
		c1.9-5.6,5.6-10.3,10.7-13.4c1.8-1.1,4-2,4.3-1.7c0.3,0.3,0,0.6-0.5,0.8c-6.1,1.5-12.7,9.3-14.4,16.8c-0.6,2.9-0.5,3.1,0.6,1.3
		c1-1.7,2.3-3.5,3.6-5c0.5-0.5,1.1-1.3,1.5-1.7c3.1-4.1,6.5-7,10.5-9.1c1.8-1,4.2-1.9,4.4-1.7c0.3,0.3-0.1,0.6-1.6,1.2
		c-2.9,1.1-6.1,3.2-8.3,5.3l-1.2,1.1l1.7-1.1c5.5-3.6,12.6-5.9,18.2-5.9l1.4,0l-1.5,0.8c-1.4,0.7-2.6,1.5-2.3,1.5
		c0,0,0.4-0.1,0.8-0.3c4.3-1.5,14.1-2.5,14.3-1.4c0,0.2-0.3,0.3-3.2,0.4c-6.4,0.2-12.7,1.8-14.6,3.7c-1.4,1.4-4,5.3-4,6
		c0,0,0.5-0.1,1.1-0.4c0.6-0.3,1.8-0.7,2.5-0.9c0.8-0.2,1.8-0.7,2.2-0.9c7.8-4.8,17.4-5.9,26.1-3.1c1.7,0.5,2.1,0.8,1.9,1.1
		c-0.1,0.2-0.5,0.1-2-0.4c-7.5-2.4-16.4-1.8-23,1.6l-1.4,0.7l0.8-0.1c0.5-0.1,2-0.1,3.4-0.2c1.4,0,3.1-0.2,3.8-0.3
		c1.9-0.4,5.4-0.6,7.1-0.5c3.9,0.3,5.5,0.6,5,1.1c-0.1,0.1-0.7,0.1-2.2-0.1c-2.1-0.3-7-0.2-8.6,0.1c-0.7,0.1-0.7,0.1,0.7,0.4
		c2.7,0.6,7.3,2.4,8.5,3.5l0.4,0.3l-0.7-0.1c-1.2-0.2-1.9,0-1.9,0.6c0,0.4,0.1,0.4,1.2,0.5c2,0,4,0.9,5.7,2.6
		c1.2,1.2,1.5,1.7,0.8,1.3c-1.6-0.9-6.2-0.8-6.2,0.1c0,0.4,0.5,0.5,1.7,0.4c2-0.3,5,0.5,6.6,1.8c0.3,0.2,1.6,2,3,3.9
		c3.1,4.4,5.2,6.9,8,9.7l2.2,2.1l1.1,0.1c2.6,0.2,5.1-0.3,7.8-1.3c0.8-0.3,1.6-0.5,1.7-0.5c1.5,0.6-3.8,2.3-7.7,2.6l-1.8,0.1l1,0.8
		c0.5,0.4,1.1,0.8,1.2,0.9c0.3,0.2,2.5-0.3,4.1-0.8c1.1-0.4,1.6-0.3,1.4,0.1c-0.1,0.3-2.3,1-3.6,1.2c-1,0.1-1,0.3-0.3,0.9
		c0.9,0.8,2.3,0.6,4.2-0.5c0.9-0.6,1.5-0.6,1.3-0.1c-0.1,0.3-1.4,1.1-2.7,1.5l-1,0.4l0.6,0.3c1.8,0.8,3.6,0.1,5.9-2.1
		c2.7-2.7,2.5-3.6-1.5-5.3c-4.9-2.1-5.9-3.2-6-7.2l-0.1-2L109,175l-0.4,0v2c0,1.1,0,2,0,2c-0.9,0-1.6-6.6-1-9.5
		c0.5-2.2,0.5-2.3,0.2-2.4c-0.8-0.3-1.3,1.4-1.4,5.3l-0.1,2.7l-0.3-1.4c-0.5-2.4-0.8-5.2-1-9.5c-0.1-2.3-0.2-4.2-0.3-4.3
		c-0.2-0.3-0.7-0.1-0.8,0.2c-0.2,0.7,0.3,9.8,0.7,11.8c0.1,0.3-0.2-0.1-0.7-1c-0.6-1.1-0.9-1.9-1.1-3c-1-5.4-3.3-12.5-5.7-17.5
		c-0.9-1.9-0.8-1.8-1.2-1.6c-0.5,0.2-0.4,0.4,0.4,2.3c1.8,4,3.6,9.1,4.5,12.6c0.2,1,0.5,1.9,0.5,2.1c0,0.2-0.4-0.7-1.1-1.9
		c-6.6-12.4-12.1-19.7-18.8-24.9c-2.1-1.7-2.3-1.8-4-3.8C74.2,131.2,67,126.1,66.5,127.2 M307.6,129.4c-1.4,1.2-0.2,4.2,2,5
		c1.5,0.6,1.8,0.5,1.7-0.3c-0.2-1.1-0.2-1.2-0.6-0.9c-0.4,0.3-1.1,0-1.3-0.6c-0.2-0.7,0-1.2,0.6-1.4c0.7-0.2,0.8-0.6,0.2-1.2
		C309.3,128.9,308.4,128.7,307.6,129.4 M245.3,129.9c-1.6,1.3-4.2,2.6-5.6,2.6c-0.5,0-0.9,0.4-0.8,0.7c0.5,1.2,7.6-1.9,7.4-3.3
		C246.3,129.4,245.9,129.4,245.3,129.9 M339.1,136.3c-3.3,0.7-3.9,4-0.8,4c0.9,0,2.5,0.5,3.1,1c0.3,0.2,0.9,0.7,1.4,1.1
		c2,1.5,2,1.6,0.9,3.1c-0.9,1.3-0.9,1.3,0,1.1c1-0.1,2.2-0.7,3.4-1.7c0.5-0.4,1.1-0.9,1.3-1.1l0.4-0.3l-0.7,0
		c-1.1,0-1.7-0.4-2.7-1.9c-1.5-2.2-2.9-3.4-4.1-3.4c-0.5,0,0.6-0.6,1.5-0.9c0.5-0.2,1-0.3,1-0.4C343.7,136.5,340.2,136,339.1,136.3
		 M330.6,136.9c-0.1,0.2,0.3,1.2,1,2.5c1.3,2.7,2.3,5,3,7.4c0.9,3,1.4,3.9,3.4,5.2c1.5,1,1.9,1.4,2.2,2.1l0.2,0.5l0-0.7
		c0-2.3-4.8-13.4-6.8-15.7C332.6,137,330.8,136.3,330.6,136.9 M340.3,143.4c0.1,0.6-0.3,1.2-0.8,1.2c-0.3,0-0.8-0.7-0.8-1.1
		c0-0.3-0.1-0.4-0.4-0.4c-0.9,0.1-0.2,2.6,0.8,3c0.6,0.2,1.4-0.1,2-0.8c0.8-0.9,0.6-1.6-0.5-2.3l-0.4-0.3L340.3,143.4 M345.8,147.2
		c-1.3,0.8-2.2,2.4-2.6,4.5c-0.3,1.5-0.5,4-0.4,4c0.1,0,0.6-0.1,1.1-0.3c1.5-0.4,1.6-0.3,0.5,1.3c-1,1.5-2.2,3.8-2.7,5.2l-0.3,0.8
		l1.1,0.5c0.6,0.3,1,0.6,1,0.6c-0.1,0.1-0.5,0.4-0.9,0.7c-3.1,2.3-4,3.2-3.4,3.2c0.2,0,0.5,0.1,0.8,0.2l0.5,0.2l-1,0.5
		c-0.9,0.5-4.9,4.2-4.7,4.4c0.4,0.4,2.5-0.2,4-1.2c1.9-1.3,3.3-1.8,5.4-1.9l1.5-0.1l-0.2-0.4c-0.3-0.7-1.3-1.5-2.1-1.8l-0.7-0.3
		l1.5-1.3c0.8-0.7,1.9-1.6,2.5-2.1c1.2-0.9,1.3-1,0.6-0.9c-1.3,0.2-2.1-1.6-1.5-3.2c0.4-1.1,0.5-1.7,1-5.6
		C347.5,148.4,347.2,146.4,345.8,147.2 M326.9,150.5c-2.3,1.1-3.1,4.3-2.1,7.4c0.9,2.6,2.3,2.7,2.6,0.2c0.2-2,1-2.8,2.6-2.4
		c2.7,0.7,2.1,2.6-1.1,3.2c-0.7,0.1-0.6,0.8,0.1,1.5c1.1,1.1,2.8,0.8,5.3-1.1c1.3-1,1.2-0.9,0.9-1.2c-0.6-0.6,0.2-1.1,1.1-0.7
		c1,0.4,0.6,1.2-1.6,2.8l-0.6,0.4l0.7,0c2.4,0,5.4-4.2,3.8-5.5c-0.4-0.3-4.8-1.5-8.7-2.3c-1.8-0.4-1.6-0.6,0.4-0.5
		c1.1,0.1,2.6,0.4,4.8,0.9c2.7,0.7,3.3,0.8,3.5,0.6C340.3,152.5,329.4,149.2,326.9,150.5 M303.5,153.2c-0.3,0.2,0.7,0.9,1.4,0.9
		c2,0,5.8,2.4,7.1,4.3c1.1,1.7,1.6,1.5,1.6-0.8c0-2.8-1.2-4.3-3.4-4.3c-0.8,0-0.8,0.2,0.1,0.8c2.1,1.4,1.6,1.6-1.2,0.4
		C305,152.8,304.2,152.6,303.5,153.2 M307.1,156.4c-0.2,0.4-0.7,2-0.7,2.3c0,0.1,0.3-0.1,0.6-0.4c0.4-0.4,0.8-0.7,0.9-0.7
		c0.3,0,0.8-0.4,0.8-0.8C308.7,156.2,307.4,155.8,307.1,156.4 M308.2,158.9c-0.5,0.5-0.7,2.4-0.3,2.4c0.3,0,2-1.2,2.4-1.6
		C311.1,158.7,309,158,308.2,158.9 M255.4,160.9c-0.9,2.1-3.3,4.1-8,6.6c-7.2,3.8-8.2,5.1-9.4,11.6c-0.7,3.8-2.2,7.6-5.1,12.7
		c-0.6,1.1-1.2,2.1-1.2,2.1s0.5-0.4,1.1-1c1.8-1.8,4.3-3.3,6.5-3.8c2-0.5,2-0.5,0.7,0.7c-1.2,1.2-2.5,3.6-2.8,4.8
		c-0.1,0.6,0,0.5,1.8-1.2c3.8-3.6,6.8-5.1,10.2-5.1l1.1,0l-0.7,0.4c-1.2,0.8-2.4,1.9-3.2,2.9c-1,1.3-0.9,1.5,0.1,0.6
		c4.5-3.8,7.8-4.6,19.1-4.8c4.2-0.1,7.8-0.2,8-0.2c2-0.5,7.6-1.3,9.2-1.4c2.3-0.1,1.8-0.2-2.6-0.5c-1.6-0.1-4.1-0.3-5.6-0.5
		c-1.4-0.2-3.8-0.4-5.4-0.5c-1.5-0.1-3.2-0.3-3.7-0.4c-2.1-0.4-3-0.8-1.6-0.8c4.6,0,10.4-2.2,12.2-4.6c0.6-0.8,0.6-0.8-1.2-0.4
		c-2,0.4-5.1,0.8-7.2,0.9l-1.7,0.1l1.4-0.2c7.5-1.2,18.5-5.7,16.2-6.5c-0.1-0.1-1,0.3-2,0.8c-8.8,4.6-19.5,6.3-29.2,4.6
		c-3.4-0.6-3.8-0.8-1.6-0.8c5.4,0,11.4-1.9,15-4.6c0.6-0.5,0.6-0.7-0.1-0.3c-5,2.6-13.8,3-20.5,1.1c-1.5-0.4-1.5-0.4-0.3-1
		c4.3-2.1,8.5-6.7,10.3-11.2C256.2,159.6,255.9,159.7,255.4,160.9 M311.1,160.3c-0.6,0.3-1,1.7-0.8,2.9l0.1,0.8l0.6-0.1
		c0.3-0.1,0.8-0.2,1.1-0.4c0.5-0.2,0.5-0.2,0.3,0.2c-0.2,0.6-0.2,1.9,0,2c0.3,0.2,2.3-1.9,2.4-2.5c0.1-0.7-0.4-1.4-1.1-1.4
		c-0.3,0-0.5-0.1-0.5-0.2C313.2,160.8,311.8,159.9,311.1,160.3 M338,161.4c-1.1,0.6-2.6,1-4.3,1.2c-2.4,0.2-3.1,0.9-3.1,3
		c0,1.8,1.1,2.5,3.9,2.8c2.2,0.2,3.1-0.5,3.5-2.6c0.1-0.6,0.3-1.5,0.4-2c0.3-1.3,0.5-2.7,0.3-2.7C338.7,161.1,338.3,161.3,338,161.4
		 M301.4,161.7c-1.2,1.3-1.2,5.9,0,8.4c0.4,0.8,1,1.4,2.3,2.4c1.4,1,1.7,2.3,1.4,5.7c-0.2,2.2,0,2.5,1,1.6c1.7-1.5,2.8-0.4,1.8,1.9
		c-0.6,1.4-0.2,2.1,1.7,2.8c0.7,0.3,0.7,0.3,0.5,0.6c-0.4,0.4-1,0.3-2.3-0.4l-0.9-0.5l-0.2,0.5c-0.3,0.8,1.3,1.6,3.6,1.7
		c2.3,0.1,2.7-0.3,1.6-1.6c-1.5-1.8-1.5-3.2,0.1-7.3c1.3-3.3,1.3-4.3,0-5.7c-1-1.1-1.1-1.4-0.9-2.8c0.2-2.1-0.8-3.4-2.5-3.4
		c-2.2,0-2.1,3.4,0.2,5.5l1.1,1l-0.1,1.2c-0.1,1-0.7,3.3-0.9,3.1c0,0-0.2-0.8-0.3-1.8l-0.3-1.7l-1.4-1.3c-2-2-2.1-2.1-1.7-7
		C305.5,162.2,302.8,160.2,301.4,161.7 M271.5,162.3c-4.6,0.7-11.2,4.7-9.8,5.8c0.2,0.2,0.4,0.1,1.1-0.6c3.4-3,8-4.7,12.3-4.3
		c2.8,0.2,2.7,0.2,2.7-0.2C277.8,162.3,273.9,161.9,271.5,162.3 M316.2,164.9c-0.4,0.8-2,8.9-1.8,9.2c0,0,0.5-0.8,1-1.8
		c0.5-1,1.4-2.5,1.9-3.4c0.5-0.8,1-1.7,1.1-2C318.7,165.7,316.7,164,316.2,164.9 M274.8,165c-4.2,0.6-9.6,2.8-8.7,3.7
		c0.3,0.3,0.4,0.2,2.2-0.7c3.1-1.5,5-1.9,8.4-2.1l2.3-0.1l-0.1-0.4L279,165l-1.8,0C276.1,165,275.1,165,274.8,165 M277.4,166.9
		c-1.4,0.3-3.6,1.2-3.7,1.7c-0.3,0.7,0.3,0.8,1.6,0.1c1.4-0.7,2.8-1,4.1-0.9c1,0.1,1.5-0.3,1.1-0.7
		C280.2,166.9,278.2,166.7,277.4,166.9 M318.9,168.2c-0.2,0.5-0.2,1.7,0,2.4c0.1,0.4,0.1,0.4,0.5-0.2c0.7-1.1,1.5-1.3,1.5-0.4
		c0,1.3,0.3,2.2,0.5,1.5c0.3-1.3,1.8-0.9,1.8,0.4v0.7l0.5-0.2c0.3-0.1,0.7-0.5,1-0.8c0.8-0.8,1.4-0.5,1.4,0.7c0,0.3,0.1,0.5,0.2,0.5
		c0.4,0,1.2-0.6,1.4-1.1c0.3-0.8,0.7-0.6,0.6,0.4l0,0.8l0.4-0.3c1.9-1.3,1.7-3.2-0.1-2.2c-0.3,0.1-0.6,0.1-1.3-0.1
		c-0.7-0.2-1-0.2-1.5-0.1c-0.4,0.1-0.7,0.1-1-0.1c-0.3-0.1-0.7-0.2-1-0.2c-0.5,0.1-0.7,0-1-0.4c-0.3-0.3-0.6-0.5-1-0.5
		c-0.4,0-0.7-0.2-1.2-0.6C319.7,167.6,319.2,167.6,318.9,168.2 M331.9,169c-1.1,0.5-1.5,1.7-1.6,5c-0.1,2.1-0.2,3-0.5,3.9
		c-0.1,0.4,2-2.9,2.7-4.1C334.3,170.5,334,168.1,331.9,169 M296.2,170c-0.4,0.9-0.1,1.7,0.8,1.8c0.7,0.1,0.8-0.2,0.4-1
		C296.9,169.8,296.5,169.5,296.2,170 M301.2,173c0,1.9,1.2,6.4,2.1,8.2c0.5,0.9,0.5,0.9,0.9,0.5c0.3-0.3,0.3-0.4-0.2-1.1
		c-0.4-0.8-0.5-0.9-0.4-3.2c0-3-0.3-4-1.8-4.8C301.2,172.2,301.2,172.2,301.2,173 M296.8,173.5c-0.4,0.3-0.4,0.9,0,1.8
		c0.1,0.3,0.3,1,0.3,1.5c0,0.7,0.1,1,0.4,1.4c0.3,0.4,0.4,0.7,0.4,1.3c0,0.9,0.2,1.3,0.8,1.7c0.5,0.2,0.5,0.3,0.4,1.1
		c-0.2,2.1,1.2,2.2,2.8,0.2c0.9-1.1,0.9-1.2-0.4-1.3l-1-0.1l0.3-0.7c0.4-0.8,0.4-1-0.5-1.3c-1-0.3-1.2-0.6-0.6-0.9
		c0.6-0.3,0.5-0.7-0.4-1.4c-1-0.7-1-0.8-0.3-1.6c0.7-0.8,0.7-0.7-0.2-1.3C297.9,173.3,297.2,173.2,296.8,173.5 M306.3,181.1
		c-1.2,1.6-2.4,2.7-3.8,3.2c-1.9,0.7-2.2,2-0.8,3.5c1.6,1.7,2.8,0.2,4.8-5.7C307.4,179.9,307.3,179.7,306.3,181.1 M312.5,184.6
		c0,0.1,0.1,0.2,0.2,0.2c0.4,0,0.5,0.8,0.2,1.5c-0.9,2,0.8,2.8,1.8,0.8c0.3-0.6,0.2-0.7-0.5-0.7c-0.7,0-0.7,0-0.4-0.4
		c0.3-0.5,0.3-1,0-1.4C313.4,184.4,312.5,184.3,312.5,184.6 M317.2,186.3c-0.3,0.4-1.1,1.4-1.8,2.1c-0.7,0.7-1.2,1.5-1.2,1.7
		c0,0.5-0.6,2.1-1,2.4c-0.5,0.4-0.4,0.6,0.2,0.6c1.2,0,4.1-4.5,4.4-6.7C317.9,185.4,317.9,185.4,317.2,186.3 M305.4,187.6
		c-1.4,0.7-1.6,1.9-0.4,2.4c0.3,0.2,0.8,0.5,1.1,0.8c0.4,0.4,0.7,0.5,1.1,0.5c0.4,0,0.7,0.1,0.9,0.3c0.2,0.2,0.5,0.3,0.7,0.3
		s0.6,0.1,0.9,0.3c1,0.5,2.1-0.3,2.5-1.7c0.4-1.3,0.2-1.5-0.8-0.7c-0.9,0.6-0.9,0.6-0.9-0.2c0-0.9-0.2-0.9-0.9-0.4
		c-1.1,1-1.2,1-1,0.5c0.3-0.8,0.2-2-0.1-1.7c-0.4,0.3-1.4,0.8-1.5,0.8c0,0,0-0.3,0.1-0.6C307.6,187.2,306.8,186.9,305.4,187.6
		 M279.9,188.9c0.1,0.2,0.6,0.9,1.1,1.5c4.6,6.4,4.9,13.7,0.9,19c-0.8,1-0.8,1.7-0.1,1.7c0.7,0,3.2-4.8,3.7-7.1
		c0.2-0.9,0.1,0.9-0.2,2.3c-0.5,3.1-1.9,6.3-3.6,8.6c-1.1,1.4-1.2,1.6-0.9,1.9c0.6,0.6,2.9-2.4,4.3-5.7c0.3-0.7,0.5-1.1,0.5-0.9
		c0,0.3-0.1,0.9-0.2,1.5c-0.2,1.7-0.7,4.3-1.3,6.4c-0.3,1.1-0.6,2-0.5,2.1c0.1,0.1,1.5-1,2.5-2l1-1v2.5c0,5.6-1.1,10.3-3.8,15.3
		c-0.6,1.1-0.9,2-0.8,1.8c0.2-0.1,0.7-0.6,1.1-1c2.1-1.9,5.7-3.9,8.7-4.9c1.9-0.6,1.9-0.8,0.6,1.5c-1.2,2.1-1.4,2.6-0.5,1.5
		c2-2.6,4.7-3.2,13.2-3.1l5.7,0.1l5.5-0.6c7.9-0.8,9.7-1,13.7-1c4.3,0,4.3,0,6.5,1.7c3.2,2.5,4.3,2.6,4.3,0.5c0-3.3-4.9-6.5-11-7.1
		c-3.2-0.3-4.9,0.1-7,1.8c-1.4,1.1-1.6,0.2-0.5-2l0.3-0.6h-0.5c-1.8,0-4,1.4-5.6,3.4l-0.4,0.5l0.1-1.2c0.1-0.6,0.2-1.7,0.4-2.4
		c0.2-0.7,0.3-1.3,0.3-1.3c-0.3-0.3-3.9,2.1-5.4,3.6l-1,1l-0.1-0.5c-0.2-0.9,0.4-3.3,1.1-4.2c0.4-0.6,0.3-0.8-0.1-0.5
		c-0.6,0.3-1.2,1.2-1.4,2c-0.6,2.7-1.3,2.9-5.5,1.9c-2.3-0.5-3.6-1.2-6.6-3.3c-1.4-1-3.1-2.1-3.9-2.4c-0.8-0.4-1.6-0.7-1.8-0.8
		c-0.5-0.3-0.7-0.8-0.8-3.1c-0.1-3.3-1.1-6.8-1.9-6.8c-0.3,0-0.8,0.3-1.7,0.9c-0.8,0.6-1.6,0.8-1.5,0.3c2.1-6.8,0.8-12.4-4.1-18.8
		C281.3,190.3,279.5,188.2,279.9,188.9 M290,191.9c0.3,1.2,0.4,2.7,0.6,5.3c0.2,3.3,0.5,4.6,1.4,5.9c0.6,0.8,0.9,0.8,0.9,0
		c0-0.6,0.8-2,1.5-2.7c0.5-0.4,0.7-0.6,0.6-0.3c-0.7,1.7-1.2,4.6-0.9,4.6c0.1,0,0.5-0.4,1-0.9c1.4-1.4,4.1-2.6,2.8-1.2
		c-1.5,1.6-2.6,3.9-2.8,6.3c-0.2,1.8-0.1,1.9,0.8,0.9c0.4-0.5,1.1-1.1,1.6-1.3l0.9-0.5l-0.4,0.8c-0.7,1.4-0.7,5,0,8.2
		c0.2,1,0.1,1,2.2-0.9c1-0.9,1.8-1.6,1.8-1.5c0,0.5-0.9,2.4-1.9,3.9c-0.6,0.9-1.1,1.7-1.1,1.7c0,0,0.6-0.2,1.2-0.4
		c2.6-1,4.8-1,7.3,0.1c3.7,1.6,4,1.6,13.8,1.7c10,0,11.4,0.2,15.1,2.1c4.6,2.3,6.7,5.2,7.1,9.4c0.1,1.1,0.4,3,0.6,4.4
		c0.4,2.5,0.6,4.8,0.3,5.6l-0.1,0.4l0.4-0.4c1.2-1.1,3.2-1.1,4.7-0.1l0.6,0.4l0.1-1.1c0.3-3.7,0.8-3.4,1.4,0.9
		c0.3,2.4,0.5,3,1.9,4.8c1.4,1.9,2.1,3,3.6,6.2c2.1,4.5,3.6,6.5,4.9,6.8c1,0.2,1.1,0,0.6-1.8c-0.6-2,1.4-4.3,3.4-3.9
		c0.8,0.1,1.7,1,1.8,1.6c0.1,0.3,0.2,0.5,0.3,0.6c0.2,0.1,0.2-0.2-0.1-0.9c-0.1-0.3-0.4-1.7-0.7-3.1c-0.5-2.7-0.7-3.6-1.5-5l-0.5-1
		l1.5,1.1c3.9,2.7,5.3,5.5,4.1,8.1c-0.4,0.9-0.4,0.9-0.1,1.2c1.1,0.8,5.9,2.8,6.1,2.6c0,0,0-0.6-0.2-1.2c-0.7-3.2,1-5.7,3.2-5
		c1.2,0.4,1.9,1.6,2.2,3.6l0.2,1.1l-0.1-1.4c-0.2-3.5-0.9-5-3.1-7.2c-0.9-0.9-2-2.2-2.4-2.8c-0.8-1.3-1.5-2-2.5-2.6
		c-0.7-0.4-0.7-0.4,1.4-0.1c2.6,0.4,3.8,1.4,5.2,4.2c0.2,0.4,0.4,0.7,0.5,0.7c0.1,0,0.1-0.2,0-0.3c-0.3-0.5-0.3-2.9,0-3.2
		c0.4-0.5,2-0.3,3.1,0.3c1.3,0.7,1.4,0.6,0.5-0.8c-0.9-1.3-2-2.2-4.3-3.5c-0.8-0.4-2.6-1.4-4.1-2.2l-2.6-1.5l0.6-0.1
		c1.2-0.2,2.9,0,4.3,0.6c0.7,0.3,1.4,0.5,1.4,0.5c0.2-0.2-1.9-3.4-2.9-4.4c-1.9-2-7-4.1-11.4-4.7c-1.8-0.2-2.6-0.5-4.3-1.5
		c-0.8-0.4-2.1-1-3-1.3c-1.8-0.6-3.4-1.4-6.1-3c-1.1-0.7-2.6-1.5-3.3-1.9c-0.7-0.4-1.6-0.8-1.8-1c-0.4-0.3-0.5-0.3-1.2,0
		c-1.6,0.6-5.6,0.4-5.8-0.2c-0.2-0.4,0.2-0.5,1.4-0.3c2.1,0.4,4.8,0,4.1-0.6c-0.5-0.6-0.9-0.7-1.2-0.4c-0.8,0.7-5.9-0.1-5.9-0.9
		c0-0.4,0-0.4,1.6,0c1.5,0.4,4,0.5,3.9,0.1c-0.1-0.4-2.3-2-3.8-2.7c-2.5-1.3-4.3-1.2-9,0.1c-4.9,1.4-8.4,1.4-15.2-0.1
		c-1.4-0.3-3.3-0.7-4.2-0.9c-2.5-0.5-3.3-1-5.4-3.3l-1.8-2l0.8-0.1c0.9-0.1,2.7-0.9,3-1.4c0.2-0.2,0.2-0.3-0.6-0.2
		c-2.2,0.3-5-1.2-6-3.2l-0.3-0.6l0.4,0.1c1,0.3,3.4,0.6,3.9,0.6c0.6-0.1,0.5-0.1-0.7-0.5c-1-0.3-1.7-1-2.1-2.3
		c-0.8-2.6-1.5-3.1-5.5-4.6c-3.9-1.4-6-2.9-7.2-5.3C290.1,192,289.9,191.7,290,191.9 M183.2,201.8c-0.5,3.4-1.6,5.8-3.9,8
		c-1.4,1.4-1.4,1.5-0.1-2.9c0.4-1.2,0.1-0.9-0.7,0.7c-1.2,2.7-6.4,9.7-6.4,8.7c0,0,0.3-0.8,0.6-1.8c1.2-3.6,1.7-8,1-8.2
		c-0.4-0.1-0.5,0.1-0.6,1.9c-0.3,3.9-2.2,9.3-3.5,10.3c-0.9,0.7-0.9,0.5,0-1.1c1.8-3.4,2.8-7.9,1.7-7.7c-0.3,0-0.4,0.3-0.7,1.9
		c-0.4,1.7-1.2,4.2-1,3.2c0-0.3,0-0.5-0.1-0.5c-0.1,0-0.1,0.1-0.1,0.1c0,0.7-3.3,4.9-5,6.3l-1.1,0.9l-0.1-0.6c0-0.4,0.1-0.9,0.6-1.6
		c1.3-2.1,3.2-7.6,3-8.2c-0.3-0.8-0.8-0.4-1.1,0.8c-0.9,3.5-2.4,6.7-3.4,7.5c-0.4,0.3-1.6,1.5-2.6,2.6c-1,1.1-1.8,1.9-1.7,1.8
		c1.1-2.5,2.4-6.7,2.2-7.1c-0.3-0.9-0.8-0.2-1.5,2.1c-1.4,4.4-2.2,6.2-4.3,8.9c-2.1,2.7-3.4,4.7-3.4,5.1c0,0.4-1,2.1-1.9,3.2
		c-1,1.2-0.6,0.9,0.7-0.5c1-1.1,2.2-2,3.6-3l0.4-0.3l-0.1,0.7c-0.1,1.7-0.1,1.7,1.6-0.5c2.5-3.3,5.6-6.9,5.3-6.2
		c-0.9,2.2-1,2.5-1.1,4.6c-0.1,1.6,0,2.1,0.1,2c0.1-0.1,0.2-0.2,0.2-0.3c0-1.3,2.7-5.1,5.6-8c2.7-2.7,2.8-2.8,2.5-1.5
		c-0.1,0.5-0.2,1.5-0.2,2.3l0,1.4l0.9-1.6c3-5,5.4-7,13.8-11.3c4-2.1,7.8-4.2,8.3-4.7c0.2-0.2,0-0.3-0.7-0.9
		c-2.1-1.5-4.7-4.3-6.2-6.6l-0.5-0.8L183.2,201.8 M156.2,213.8c-3.9,4.1-6.6,9.1-10.6,19.4c-0.8,2.1-1.9,4.9-2.5,6.2l-1,2.5l-0.1-4
		c-0.1-3.2-0.2-4.5-0.5-6.4c-0.6-3.6-0.7-3.6-0.9-0.6c-0.3,3.5-2,11.3-2.4,10.9c0,0,0-0.5,0.1-1.1c0.4-3.1,0.1-7.7-0.5-7.7h-0.4
		l0,3.9c0,5.6-0.7,8.4-2.5,11.2c-1,1.6-1.3,1.7-1.3,0.7c0-0.4-0.1-1-0.2-1.4c-0.1-0.6-0.1-1.1,0.2-2.3c0.7-3.4,0.6-11.1-0.2-11.2
		l-0.4-0.1l0,4.6c0,6.1-0.3,7.6-1.8,9.5c-5.7,7-12.2,11.3-20.3,13.1c-5.5,1.3-8.1,2.3-10.2,4.1c-1.5,1.2-3.1,3.5-2.9,4.1
		c0.2,0.5,0.8,0.3,1.2-0.6c0.8-1.5,2.7-3.3,4.7-4.3c1.5-0.8,8.3-2.7,8.5-2.5c0,0-1,0.6-2.2,1.2c-4.8,2.5-7.7,4.5-10.3,7
		c-2.1,2.1-3.8,4.5-3.5,4.9c0.4,0.5,0.6,0.3,1.5-1c1.2-1.9,4.3-4.9,6.6-6.4l1.8-1.2l-0.7,0.8c-2,2.4-3.1,4.8-2.8,6
		c0.1,0.4,0.2,0.3,1.1-0.9c1.1-1.6,2.4-2.9,3.8-4l1-0.8l0,1.4c0,1.5,0.3,1.9,0.4,0.8c0.3-1.6,1.6-3.4,3.5-4.8c1.9-1.4,3.6-2,9.7-3.8
		c3.1-0.9,5.5-2.1,7.1-3.6l1.2-1.2l-0.4,1c-0.2,0.5-0.7,1.5-1.1,2.1c-0.8,1.5-0.7,1.5,1.1,0.5c4.2-2.2,8.2-6.4,10.2-10.6
		c0.8-1.6,1.6-4.2,1.6-4.8c0-0.2,0.3-1.2,0.7-2c0.7-1.5,1.6-3.6,4.5-11c3.4-8.6,6.6-14.3,10-17.6c0.7-0.7,0.9-1.3,0.4-1.5
		C157.3,212.8,156.9,213,156.2,213.8 M183.2,224.2c0.5,1.4,0.2,2.7-1.4,5.8c-1.7,3.3-2,4.6-2.5,11c-0.2,2.7-0.6,4.7-1.3,7
		c-0.7,2-0.8,2.1-0.9,1.3c-0.3-2-0.5-2.6-1.1-3.8c-0.4-0.7-0.9-1.6-1.2-1.9l-0.5-0.6l0.1,0.7c0.7,5.1,0,10.1-1.9,13l-0.3,0.5
		l0.1-0.5c0.3-1.1,0.2-4.9-0.2-5.9c-0.7-2-1.8-2.8-4-3c-1.5-0.2-1.5-0.3-0.7,1.4c0.4,0.8,0.8,2,0.9,2.7c0.3,1.4,0.4,4.8,0.1,4.3
		c-0.6-1.1-3.1-3.3-3.4-3c0,0,0.1,0.5,0.3,1c1,2.7,1.2,4.7,0.7,6.5c-0.4,1.3-0.6,1.4-1.1,0.9c-0.7-0.7-2-1.2-3-1.2
		c-1.3,0-1.5,0.1-0.8,0.9c2.3,2.4,0.8,5.4-4.1,8.4c-1,0.6-2.5,1.5-3.3,2c-4.8,2.9-5.7,5-5.1,12l0.2,2.6l0.1-1.3
		c0.4-4.4,2.3-6.8,6.8-8.7c3.5-1.5,5.5-2.7,6.1-3.7l0.3-0.5l0,0.7c0,0.6-0.1,1.4-0.4,2.2c-0.2,0.7,0.1,0.4,3.9-4.2
		c2-2.4,3.8-4.5,4-4.7c0.3-0.3,0,0.6-2,7c-1,3-1,3,0.7,1.3c4.6-4.9,7.7-11.1,8.9-17.5l0.2-1.2l0.2,0.9c0.4,1.9,0.6,4.1,0.4,6
		c-0.2,2.5-0.2,2.4,0.6-0.5c1.2-4.5,1.8-8,2-13.1c0.2-3.6,0.3-4.2,1.6-7.9c2.4-6.6,2.9-11.8,1.4-16c-0.2-0.7-0.5-1.3-0.6-1.3
		S183.1,223.9,183.2,224.2 M366.4,232.7c1.9,0.8,2.3,1,2,1.4c-0.1,0.1-4.2-1.4-4.6-1.7c-0.3-0.2,0-0.7,0.4-0.6
		C364.3,231.9,365.3,232.3,366.4,232.7 M366.1,234.1c3.8,0.8,4.4,1,4,1.4c-0.1,0.1-1.2,0-4.2-0.7c-2.2-0.5-4.1-0.9-4.2-0.9
		c-0.1,0-0.1-0.1-0.1-0.3C361.5,233.1,361.7,233.1,366.1,234.1 M362.7,239.5c1.8,1.8,2.1,2.2,1.5,2.2c-0.6,0-4-3.4-3.9-3.9
		C360.6,237.4,360.7,237.5,362.7,239.5 M361.3,240.7c2.7,2.6,3.3,3.3,2.7,3.3c-0.6,0-6.3-5.6-6-5.9
		C358.2,237.8,358,237.7,361.3,240.7 M157.4,241.5c-8.2,8.4-9.4,9.9-10.6,13.4c-2.4,6.9-6.2,11.5-13.7,16.5c-4.8,3.2-5,3.9-3.2,9.2
		c3.1,8.7,3.8,17.3,2.4,27c-1.3,9-1.4,13.8-0.3,18c0.2,0.6,0.3,2.1,0.4,4.1c0.2,4.3,0.7,5.5,3.1,6.6c1.1,0.5,1.5,0.9,3.6,3.1
		l2.4,2.5l-0.1-1.2c-0.3-3.9,2-7.4,4.6-7.1c0.8,0.1,0.8,0.1,0.2-0.9c-0.3-0.5-0.9-1.9-1.3-3.1l-0.8-2.3l1.2,0.8
		c2.2,1.6,4.2,3.9,5.6,6.5c1.7,3.2,2,3.4,2.7,2.2c1.2-2.1,2-2.7,2.9-2.4c0.3,0.1,0.5,0.3,0.5,0.4c0,0.1,0.1,0.1,0.2-0.1
		c0.5-0.8-0.2-2.2-2.5-4.6c-1.8-1.9-2.5-2.7-2.7-3.5c-0.3-1,4.7,1.1,6,2.6c0.6,0.7,0.9,0.7,1.3,0.3c0.6-0.6,2.3-0.5,4,0.4l0.5,0.2
		l-0.1-0.5c-0.2-0.8-1-1.8-2.2-2.5c-1.3-0.9-1.6-1.4-0.8-1.7c0.5-0.2,0.9-0.1,1.3,0.3c0.1,0.1,0.3,0.2,0.4,0.2
		c0.5-0.5-2.4-2.1-4.4-2.4c-7.6-1.2-9.5-4.4-10.8-18.5c-0.6-6.5-0.6-6.5-0.9-6c-0.7,1.2-0.7,2.1-0.8,8.8c0,4-0.1,6.9-0.2,7.5
		c-0.1,0.5-0.2,1-0.2,1.1c0,0.1-0.5-0.8-1.1-1.9c-0.6-1.1-1.8-3.2-2.6-4.7c-2.7-4.7-2.8-5.7-0.6-7.3c0.9-0.6,0.9-0.7,0-0.6
		c-1.3,0.2-2.3,0.6-3.2,1.2l-0.8,0.6l0.1-0.4c0.4-1.7,1.8-3.3,4.7-5.2c0.3-0.2,0.3-0.2-0.2-0.1c-1,0.2-3.5,1.6-4.5,2.5l-1,0.9v-0.6
		c0-2.3,2.2-5.6,5.5-8.2c0.7-0.6,0.6-0.7-0.9-0.6c-1.9,0-3.9,0.8-5.2,1.9l-0.4,0.4l0.3-0.9c0.6-1.7,2.2-3.6,3.7-4.5
		c0.8-0.5,0.7-0.6-1.1-0.6c-1.9,0-1.9,0.1-1.9-2.1c0-2.8,0.8-5.8,2.3-8.9c1.2-2.5,1.6-3,5.3-7.1l0.5-0.6l-0.1,0.8
		c-0.5,2.9-2.1,6.1-4,8.2c-0.8,0.9-0.9,1.4-0.2,1.4c1.6,0,5-6.7,5.4-10.3c0.1-1.1,0.6-2.5,0.8-2.5c0.2,0-0.1,3.4-0.4,5.4
		c-0.6,3.6-1.8,6.8-3.6,9.3c-1.1,1.7-0.8,2.6,0.4,1.2c2.7-3.2,4.3-8.5,4.8-16.4l0.1-2l0.2,1.2c0.1,0.6,0.3,2.1,0.3,3.2l0.1,2
		l0.7-1.8c0.9-2.3,1.6-5.1,1.9-7.5c0.3-2.3,0.3-2.3,0.7-0.5c0.4,2.2,0.5,6.5,0.2,8.9c-0.3,2.4-0.3,2.4,0,2.6c1.6,0.6,1.6-9.5,0-15
		c-0.6-1.9-0.9-4.4-0.6-4.2c1.1,0.7,2.9,5.2,3.5,8.4l0.2,0.9l0.2-0.5c0.5-1.1,0.4-3-0.1-6.2c-0.7-4.1-0.6-6,0.3-8.3l0.3-0.7l0,2.8
		c0,3.6,0.4,5.5,1.8,8.5c0.6,1.2,0.9,1.4,1.3,1c0.2-0.2,0.1-0.5-0.4-1.5c-1.8-4-2.3-8.2-1.2-12.2c0.2-0.6,0.2-1,0.1-1.1
		c-0.2-0.3,1.4-2.6,3.2-4.7c0.7-0.8,1.3-1.5,1.3-1.5C160.8,238.1,159.3,239.6,157.4,241.5 M346.4,244.2c-0.5,0.3-0.5,0.7,0.1,2.3
		c0.3,1,0.5,1.8,0.5,3.6l0.1,2.3l1.1-2.7c1.5-3.6,1.5-3.7,0.5-4.8C347.9,243.9,347.1,243.7,346.4,244.2 M382.8,247.4
		c-1.4,0.3-0.6,3,1.1,4.1c0.8,0.5,1,0.7,1.9,2.6c0.5,1.1,1,2,1,2c0.3,0,0-6.1-0.3-6.5C385.9,248.7,383.5,247.2,382.8,247.4
		 M377.7,255.8c-0.9,1-0.6,1.9,1.2,4.5c0.8,1.1,1.8,2.8,2.3,3.7c0.5,0.9,0.9,1.7,0.9,1.7c0.1-0.2-0.3-5-0.5-5.8
		C380.7,256.8,378.7,254.7,377.7,255.8 M364.7,258.5c-0.5,0.5-0.5,1.3,0.1,3.3c0.4,1.7,0.8,5.1,0.7,5.6c-0.2,0.6,0.6-0.5,1.3-2
		c1-1.9,1.8-4.4,1.7-5.1C368.2,259,365.6,257.6,364.7,258.5 M82.9,276.3c-2,5.1-5,9.5-11.9,17.4c-7.9,8.9-9.3,10.9-12.7,17.4
		c-4.5,8.6-5,9.2-10.2,12c-3.6,1.9-6.8,4.1-8.1,5.5c-0.9,1-2.5,3.5-2.2,3.5c0,0,0.8-0.2,1.6-0.5c5.9-2,9.2,3.3,3.9,6.3
		c-0.7,0.4-1.8,1.3-1.8,1.5c0,0.8,5.1-1.5,7.7-3.5l1-0.7l-0.2,0.6c-1.8,4.1-1.9,4.3-4.1,5.7c-1.6,1.1-1.8,1.2-1,1.1
		c0.9-0.1,2.7,1.2,3.3,2.3c0.6,1.1,0.1,2.9-0.9,3.5c-0.8,0.5-0.7,0.5,1.4,0.1c3.3-0.7,5.4-2.4,7.2-6c1.1-2.3,1.4-2.3,1.4-0.4
		c0,1.9-0.5,3.7-1.6,5.1c-0.3,0.4-0.3,0.5,0.1,1.3c0.5,0.9,0.6,1.8,0.4,3.1l-0.1,0.8l1.4-1c3.6-2.5,4.6-4.6,6.1-11.7
		c1.1-5.7,1.8-7.5,3.4-9.9c0.6-0.9,0.6-1.1,0.7-2.5c0.1-1.7,0.2-2,1.4-3.2c1.2-1.3,2.7-3.5,6.2-9c3.3-5.2,4.5-6.8,7.9-10.6
		c2.4-2.7,3.5-4.3,4-5.6c0.3-0.9,0.5-1.6,1.1-5.2c0.1-0.9,0.3-1.8,0.4-2.1l0.1-0.5l-1.1,0.8c-2.8,2.2-6.2,6.1-8.2,9.5
		c-0.5,0.9-1,1.6-1.1,1.5c-1.4-0.5,5.1-8.7,9.5-12.1c1.3-1,2.3-2.2,1.6-2c-1.7,0.6-7.2,5.4-8.4,7.2c-0.1,0.2-0.4,0.4-0.5,0.4
		c-1.8,0,4-5.7,8.5-8.3c1.1-0.6,2.2-1.7,1.7-1.7c-0.6,0-4.4,2.1-6.4,3.5c-1.3,0.9-1.4,1-1.7,0.7c-0.3-0.3-0.4-0.3,1.8-1.8
		c1.7-1.2,3.7-2.3,5.6-3.1c1.3-0.5,1.5-0.7,2.1-1.5c1-1.5,3-3.8,4.9-5.8c2-2.1,2-2.1,0.2-1.6c-3,0.7-6.1,2.1-8.7,3.9
		c-1.2,0.9-1.5,1-1.4,0.7c0.1-0.6,1.2-2.7,1.5-3.3c0.2-0.3,0.3-0.5,0.3-0.6s-1,0.4-2.3,1c-1.3,0.6-2.4,1.1-2.6,1.2
		c-0.6,0.2-1.1-2.8-0.6-4.3C83.6,274.7,83.4,275,82.9,276.3 M219.2,288.4c-0.3,0.3-0.8,1.1-1.2,1.8c-0.7,1.4-2,3.2-3,4.2l-0.6,0.6
		l0.6-0.1c3.5-0.6,6.9-2.7,6.9-4.2C221.9,288.5,220.4,287.2,219.2,288.4 M240.1,292.4c-1.2,0.7-1.4,1.4-1,4.3
		c0.1,0.5-0.1,1.2-0.6,2.7c-0.7,2.2-0.7,2.4-0.1,1.6c0.3-0.3,1.2-1.3,2.1-2.2c1.9-2,1.9-2.1,1.4-4.3
		C241.5,292.1,241.1,291.8,240.1,292.4 M230.9,295c-0.9,0.5-1.1,1.2-1.5,3.9c-0.3,2-0.8,4-1.4,5.9c-0.1,0.4,0.6-0.4,2.1-2.2
		C233.2,298.8,233.8,293.5,230.9,295 M70.1,311.4c0,0.1-0.4,0.8-0.9,1.5c-3.3,4.1-6.1,9.7-7.5,15.1c-0.2,0.6-0.6,0.8-0.7,0.2
		C60.6,325.2,69.6,308.6,70.1,311.4 M63.3,317.6c0.1,0.1-0.2,0.7-0.7,1.3c-1.2,1.6-2.6,4.6-2.6,5.6c0,0.4-0.4,0.7-0.7,0.5
		c-0.7-0.4,1.5-5.4,3.1-7.2C62.9,317.3,63.1,317.3,63.3,317.6 M68.9,318.6c0.1,0.2-0.2,0.5-0.7,1c-1.6,1.6-2.9,4.1-3.2,6
		c-0.1,0.4-0.2,0.7-0.3,0.8c-1.2,0.5,0.2-3.8,2-6.2C67.9,318.6,68.7,318.1,68.9,318.6 M160.7,331.2c-1,0.8-1.3,2-1.2,3.7
		c0.1,1.8,0,1.7,1.3,1.3l1-0.4l0.8,0.4c1.3,0.6,2.2,2.2,2.5,4.4l0.1,1l0.2-0.9c0.3-1.2,0.6-3.9,0.6-5.5V334l-0.7-0.7
		C162.5,330.7,161.7,330.3,160.7,331.2 M39.2,333.9c-0.7,0.3-1.2,0.8-1.8,2.1c-0.8,1.5-1.4,2.2-2.4,3c-1.1,0.8-1,0.8,1,0.1
		c4.3-1.5,6.9-3.9,5.2-5C40.7,333.8,39.7,333.6,39.2,333.9 M144.6,336.3c-1.4,0.7-1.6,4.5-0.2,5.2c0.8,0.4,1.4,2.6,1.7,6
		c0.2,1.8,0.2,1.7,1.5-1.8c1.6-4.5,1.8-6.3,0.8-8.6C147.9,336.1,146.1,335.6,144.6,336.3 M156,336.4c-0.6,0.3-1.6,2.7-1.6,4.1
		c0,0.7,0.8,1.5,1.4,1.5c1.8,0,4.2,2,5,4.1l0.3,0.8l0.2-0.7c0.9-3.1,0.2-5.4-2.5-8.2C157,336.2,156.8,336,156,336.4 M42.8,344.9
		c-0.2,0.2-0.5,0.8-0.7,1.2c-0.5,1.3-1,1.9-2.9,3.6c-2.2,2-2.1,2.3,0.9,1.8c2.1-0.3,6.6-4.3,6.6-5.8C46.7,344.6,43.7,344,42.8,344.9
		 M52,349.2c-0.2,0.5-0.4,1.2-0.5,1.5c-0.4,1.3-0.9,1.9-2.1,2.7c-1.1,0.7-2,1.5-1.9,1.6c0.1,0.1,1.6-0.4,5.4-1.5
		c1.4-0.4,1.6-0.7,1.6-2.1c0-1.5-0.4-2.5-1.2-2.9C52.4,348.2,52.4,348.3,52,349.2"/>
</g>
</svg>
