<svg xmlns="http://www.w3.org/2000/svg" viewBox="0 0 410 410"><path d="M251.2 63s.7.6 1.6 1.3c1.9 1.4 4.7 3.8 5.8 5l.8.9-1.3-.5c-8.4-3.1-19.5-3.5-28.9-1.1-3 .8-3.2.9-.9.9 3.5 0 6.9.6 10.4 1.7l2.1.7-2.3.3a38 38 0 0 0-23.4 11.6c-1.6 1.7-1.6 1.9 0 .8 3.4-2.2 10.8-4.9 13.4-4.9.1 0-.9.5-2.2 1.2-8.2 4.1-15 11.1-18.5 19.3-.7 1.7-.8 2.1 0 .8 1.6-2.8 5.5-5.7 10.5-7.9 3.5-1.5 5-1.8 10.3-2.1 4.3-.2 3.9.1 3.6-2.7-.2-1.8-.3-1.7 1.1-1.1 5 2.3 8.4 6.7 9.7 12.4.1.3.2.5.2.5.2 0 1.5-1.9 1.9-2.8 1-2.1 2 1.5 1.9 6.4-.1 2.6 0 4.8.3 5.1.2.2 1.6-1.9 1.9-3 .2-.6.3.3.5 3.9.4 7 .5 11.4.5 19.1-.1 11.2-.1 11.1 5.4 14.2 3.3 1.9 7.1 6 9.9 10.9 1.9 3.2 3.4 4.7 4.7 4.7h.4l-.4-.3c-1.1-.7-2.3-2.8-6.3-10.7-1.9-3.7-3.7-7.1-4.6-8.4-3.1-4.7-4.4-8.5-4.4-12.4v-1.4l.3.7a11 11 0 0 0 4.9 5.1c1.5.8 1.4.9.6-2.3-1.2-4.7-2.5-11.9-2.9-15.6l-.1-.9.4.5c3.6 4.2 6.3 9.8 6.5 13.7.1 1.5.1 1.6.4 1.2 1.1-1.5 1.1-4.2-.1-7.8-.8-2.4-1.4-6.9-.7-5.5 1 2.2 1.2 2.5 2.2 3.4 1.6 1.5 2.8 2 5 2 1 0 1.8-.1 1.9-.1.3-.3-2.6-5.4-4.5-8l-.6-.8 4.5 2.4c5.6 2.9 5.3 2.9 7.4 1.3 3-2.3 5.9-5.9 7.3-8.9 2.2-4.7 2.7-5.6 5.4-9.3 5.7-7.6 6.5-10.5 4.1-15.4-1.1-2.2-1.1-2.2-1-.2.1 2.9-.9 5.9-2.5 7.8l-.6.7-.1-1.7c-.2-3.1-.8-6-2-8.9-.4-.9-.7-1.7-.7-1.7s-.3.7-.5 1.4c-.3.8-.8 1.8-1.1 2.3l-.6 1v-3.9c0-2.3-.1-3.9-.2-3.9-.4 0-1.6 2.1-2 3.5-.3 1.1-.4 1.1-1.6-.5a36.6 36.6 0 0 0-10.1-8.6c-2.2-1.3-2.3-1.3-1.8-.1.4.8.7 2.3.7 3 0 .3-.2.2-1-.5-3.1-2.8-8.4-5.5-12.9-6.6-2.5-1-7.7-1.5-7.7-1.2m50.6 25.1c-1.9 2.3-3.8 5.4-5.8 9.2-1.2 2.3-1.7 2.5-2.7.9l-.3-.5-.1.4c-.1.2-.1 1.1-.1 2l.1 1.6-.7.1c-.4.1-1 .1-1.4 0-.4 0-.7-.1-.7 0 0 0 .3 1.5.7 3.3.7 3.6.9 3.8 2.1 4.2 1 .2 1 .2.5-.9s-1.1-3.2-1.1-3.9v-.5l1 .3c.6.2 1.3.3 1.7.3h.6l-.3-.9c-.2-.5-.6-1.3-.8-1.8-.6-1.2-.6-1.2.1-.9.3.1 1.1.3 1.7.3l1.1.1V100c0-3.1 3.7-9.1 4.4-7.2.4 1.2.5 9.7.1 11.2 0 .1-.2 1.3-.3 2.7-.2 2.7-.2 2.7-.7 2.5-.5-.3-.4.3.3 1.3l.6.8h-.9c-.5 0-.9.1-.9.2 0 .3 1.9 1.9 2.5 2.2 1.1.5 1.2.5 1.1-.4-.2-1.3-.1-5 .2-7.6.3-3.1.3-6.8 0-8.7-.1-.8-.2-1.9-.2-2.5v-1.1l.3.8c1.1 2.4 1.4 5.5 1.1 9-.7 6.3-.2 10.5 1.3 11 2.2.7 3.3-1 2.2-3.5-.7-1.6-1-3.4-.8-5.4.1-2 .2-2.1.7-1.2.3.4.8 1 1.2 1.2l1.5 1.1c1.3 1 1.5.9 1.6-1.4 0-.8.1-1.7.1-2.1l.1-.7-.6.4c-.7.5-.6.7-1.1-1.9-.2-1.2-.5-2.3-.5-2.3-.1-.1-.7 1.4-.7 1.8-.1 1.6-1.6-3.5-1.8-5.9l-.1-1.7-.5 1.1-.5 1.1-.6-1.1c-1.1-2-3.3-6.4-3.3-6.6-.2-.4-.5-.1-1.4 1m-74 7.2c-.3.5 0 .7 2 .7 2.7.1 5.3 1 6.4 2.3.3.3.2.3-.9 0-1.6-.5-5.5-.7-7.3-.5-.9.1-2.1.1-3.2 0-3.9-.3-8.8.6-12.2 2.2-1.7.8-1.1 1.6.6.8 2.6-1.2 5.8-1.9 9-2.1l1.7-.1-.7.3c-.4.2-2.2 1-4 1.8-1.8.8-4.5 2-5.9 2.5-4.5 1.7-6.5 2.9-8.1 5.1-.9 1.2-.8 1.4.1.5 1.3-1.1 3.8-2.1 5.3-2.1h.6l-1 .6c-4.1 2.5-8.8 9.7-11 16.8-.5 1.6-.5 1.6.5.7 1-.9 2.3-1.4 3.5-1.4h.8l-.2.5c-.5.9-1.3 3.8-1.9 7-1.1 5.2-1.6 6.9-2.3 7.9-1.9 2.9-4.8 6-7.4 7.9-1.5 1.1-1.8 1.7-1.1 1.8.7.1 5.1-3.8 7-6.1 1.1-1.3 1.1-1.3.3.9-1.4 3.8-2.6 6.1-3.9 7.4-.4.4-.8.8-.7.8.2 0 2.8-1.8 3.8-2.6.6-.5.9-.7.9-.5-.1.2-.3 1-.5 1.8-.8 2.7-2.4 6.4-3.9 9-.6 1.1-.7 1.1 1.8-.4s2.4-1.5 1.5.3c-1.4 2.6-3.4 4.6-6.9 7.2-1.2.9-1.5 1.5-.7 1.5.9 0 6.1-4.6 7.4-6.6.4-.6.6-.8.6-.6 0 .2-.5 1.1-1.1 2-3.5 5.3-8.4 9.6-14.1 12.4-1.3.7-1.6.9-1.6 1.1.1.5.6.5 2.1-.2 5.1-2.5 9.3-6 13.4-11.2l.5-.6-.3.8c-1.3 3.1-5.6 7.8-9.1 9.9-1.1.6-1.4 1.2-.8 1.5.5.2 3-1.5 4.7-3.1l.7-.7-.6 1c-2.4 3.8-4.9 6.8-7.4 8.8-.6.5-1 .9-1 .9.1.1 2.5-.8 4.2-1.6l1.7-.8-.5.8c-1.7 2.5-5.4 6.6-8.1 8.9-.6.6-.9.8-.6.8 1-.3 3.4 1.5 7 5.1 3.8 3.9 6.1 7 3.6 4.9-2.5-2.1-6.7-3.6-7.2-2.5-.2.4.3.7.9.7 3.7 0 7.9 3.8 11.1 9.8.8 1.5 2.5 4.7 3.9 7 5.9 10.2 8.3 14.6 10.2 19 3.4 7.8 4.8 15.4 3.9 20.3-.3 1.5-.2 1.5 1.4-.8.8-1.1 1.5-2 1.6-2.1.2-.1.3 1.8.3 4s0 2.1 1.3 1.1c1.8-1.5 1.6-1.9 1.7 5 .1 8.3-.2 10.2-2.1 16.4-.6 1.8-1.1 3.7-1.2 4.2-.6 3.1.5 5.7 1.5 3.5 1.7-3.6 7.3-2.2 5.7 1.4-.7 1.6 0 .6.9-1.2 1.5-3.2 2.2-5.8 3-10.6.6-3.9.6-3.7 1.1-1.8.7 2.5.9 4.4.9 7.5 0 4.2-.3 5.2-2.3 7.6-2.3 2.7-2.3 4.1-.3 6.3 1.1 1.2 1.1 1.2 1.7.1 1.4-2.5 3.9-3.5 5.4-2 1.1 1 1 2.5-.3 4.3-1 1.5-.7 1.4.5-.2 3-3.9 3.3-8.1 1.3-18.2-.4-1.9-.3-1.9 1.1.2 2.3 3.4 3.2 7.6 2.3 10.8-.4 1.4-.4 1.4.2.5.9-1.4 1.8-2 2.3-1.7.7.4 1.5 1.4 1.8 2.4.4 1.2.5 1.2.7 0 .1-.6.2-1.2.3-1.3.1-.8-.3-2.9-1.3-6-.6-1.9-1.3-3.9-1.5-4.6l-.4-1.2.7.4c.9.5 1.7 1.6 2.6 3.2.4.7.7 1.3.7 1.3.5 0 1.1-5.2.8-6.8-.3-1.6-3.1-7.2-4.5-9-1.6-2.1-1.8-2.3-2.3-3.8-.3-.8-.5-1.4-.4-1.4l1 .4c1.3.6 1.5.5 1.4-.8-.1-1.3-.7-2.5-2-4s-1.7-2.3-2.3-4.6c-.5-1.6-.5-1.7-.9-1.6-2.1.5-3.2.3-4.4-.9-.9-.9-2.3-2.7-2.3-3.1 0-.6.6-.2 1.6 1.1 1.6 2.1 2.5 2.6 4.2 2.3 1.3-.2 1.7-1.3.4-1.2-1.2.1-2.2-1.1-3.9-4.5-1.1-2.2-1.2-2.4-.7-2.4.3 0 .5.3 1.1 1.4 2.1 4.6 4.1 6.2 4.1 3.5 0-3.3-.5-4.8-3.5-9.7-3.4-5.7-4.7-8.2-4.5-8.5.1-.1.7-.3 1.5-.6l1.4-.5-.7-.4c-1-.5-2.6-1.7-3.2-2.3l-.5-.5h1c1.8 0 1.9-.1.8-.8-1.5-.9-4.1-3.5-4.1-4 0 0 .4.1 1 .4 1.9.9 3 1 3 .2 0-.3-.1-.4-.6-.5-3.5-.7-4.6-1.9-6.6-7.7-3.7-10.3-3.9-12.8-1.3-17.7 2.1-3.9 2.6-4.4 4.2-3.1 1 .8 2.9 1.7 3.7 1.9l.5.1-.1-2.1c-.1-3.5.5-7.1 1.8-10.4l.6-1.6.1.9c.1.5.3 1.2.5 1.7l.4.8.2-2.2c.4-4.8 1.2-7.1 4.7-14.6 2.4-5 3.1-6.9 4.2-11.3 1.1-4.3 1.5-5.4 3.3-8.2 2.2-3.4 2.7-4.6 3.1-7.7.1-1 .5-3.3.8-5.2.5-3.4.7-8.4.4-8.9-.1-.1-.1.8-.1 1.9 0 2.7-.3 4-.8 3.6-.3-.3-.4-.2-1.3.6-2.6 2.5-5.5 4-9 4.7-1.7.3-1.8.4-1.8.8s.1.4.9.4c3.1-.1 7.4-2.1 10.1-4.7 1.3-1.2 1.3-1.2 1.1-.6-1.4 3.5-5.2 6.7-10.2 8.7-2.2.9-1.9 1.1 1.5 1.1h1.8l-.8.8c-.8.8-.9.9-3.9 1.9-3.5 1.2-5 1.5-9.5 1.5-3.5 0-3.9 0-4 .3-.3 1.4 11.2.7 14.1-.9.8-.4.4 0-.5.7-2.2 1.6-5.2 2.8-8.2 3.3-1.9.3-1.9.3 1.2.8 6.6 1.1 8.3 3.3 7.3 9.7-.3 2.2-3 4-8.2 5.8-2.1.7-2.5 1-2 1.4.5.5 6.1-1.7 8.4-3.2 1.3-.9 1.4-.7.3.3-1.3 1.1-3.5 2.6-5.1 3.4-1.4.7-1.8 1.2-1.2 1.5.3.2 3.7-1.6 5.1-2.7.7-.5 1.2-.9 1.2-.8 0 .8-4 8.9-5.6 11.3-4.3 6.5-8.6 9.9-16.7 13.2-3.3 1.3-6.8 3-6.8 3.2 0 .1.7.1 1.6.1 4.5 0 5.7 1.4 6.6 7.3.9 5.9 1.9 8.5 3.7 9.5 1.5.8 1.5.9.6.9-1 0-2 .4-2.9 1.1-1 .7-.9.8.3.8 1.1 0 2.5.5 3.3 1.1l.5.4h-.8c-1 0-2.1.5-2.9 1.2-.7.7-.7.8.1.6 1.8-.4 3.6-.1 4.6.8.6.5.6.6 0 .9-.3.1-.7.4-.9.7l-.4.5.4.1c.6.1 1 .8 1.3 2.1.5 1.9 1.4 4.3 3.2 8.3 3.3 7.6 4.3 11.6 3.2 13.9-1.1 2.5-2.5 1.8-2.9-1.5-.3-2.6-2-3.3-5.3-2.2-3.4 1.2-4.9.6-5.3-2-.4-2.3.3-4 2.3-6 1.6-1.7 1.5-1.4.8-1.6-1-.2-2.4.2-3.8.8-.2.1.7-1.8 1.3-2.8.8-1.1 3.1-3.3 4.3-4.2 1.1-.7 1.1-.8.1-.8-2.2 0-4.5 1-6.3 2.7-2 1.9-1.3-.2.7-2.4l1.1-1.2-.6.1c-1 .2-2.5 1.1-3.5 2-1.4 1.4-.5-1.3 1.1-2.9.8-.8.9-1.3.4-1.4-.7-.1-2.4 2-3 3.9l-.4 1.1-.4-1.1c-.9-2.6.7-6.8 3.7-10.1.4-.5.7-.9.7-1-.5-1.5-3.9 2.6-5.1 6.4-.6 1.7-.6 1.8-.8 1.4-.3-.7.2-3.5 1.1-5.7.4-1.1.4-1.6-.2-1.5-.3.1-1.1 2-1.5 3.7-.3 1.4-.4 1.5-.7.9-.1-.2-1.2-2.2-2.4-4.3-5.6-9.9-6.7-12.6-6-15.3.2-.8.6-2.1.8-2.9.2-.9.4-2.2.5-3.2.2-2.9 1.6-4.9 4.7-6.4.6-.3.9-.5.9-.8 0-1-2.1-.1-4.2 2l-1.4 1.4c-.4 0-.1-1.6.4-2.5 1.6-2.8 4.4-4.8 9-6.4 1.5-.5 1.7-.7 1.7-1.1 0-.5-.5-.5-2.4.2-4.5 1.7-7.2 3.6-8.8 6-.6.9-.6.4 0-.8 1.8-3.5 5.5-6.3 11-8.2 1.5-.5 1.8-.8 1.7-1.2-.5-1.3-8.2 2.6-11.1 5.6-2.1 2.1-1.4 1 1.5-2.3 5.2-5.9 8.9-8.9 13-10.6 2.1-.8 2.1-.8 0-.8-2.7.1-5.7 1.1-7.7 2.5-.9.6-.5.1 1-1.1 3.9-3.4 8.8-5.8 13.4-6.7.9-.2 1.6-.4 1.7-.4.1-.1 0-.1-.3-.1-.2 0-1.1.1-2 .2-3.5.2-6.7 1-8.8 2.2l-1.1.6.6-.7c1.4-1.7 4.4-3.5 8-4.7 2.3-.8 2.2-.8 2.1-.8-.3-.3-6.4 1.1-8.9 1.9-1.2.4-1.2.4-.3-.7 3-3.6 6.1-8.4 7.2-11.2 1.2-3.1 1.3-3.7 1.2-9.5-.1-8.8-.1-9.4 0-10.7l.1-1.3-.6.1c-2.3.3-4.9 1.4-6.7 2.9l-1 .8.3-.6c1-2.3 3.2-4.3 7.4-6.6l1.9-1-1.3.1c-3.2.3-6.6 1.7-9.6 4l-.5.4.4-.7c3.9-6.4 9.3-11 16-13.2l1.4-.5h-1.4c-2.4-.1-5.2.6-7.3 1.8l-.9.5.5-.6c1.9-2.5 5.9-4.8 10.6-6.1l.6-.2h-.5c-.8 0-5 .4-7.8.8s-2.9.4-1-.4c5.5-2.3 12.8-3 20.1-1.8 2.1.3 2.1.4 1.5-1.1-1.8-5.3-3.7-8.1-6.3-9.3-3-1.3-7.2-1.8-7.6-1m89.9 8.5c0 .7-.1 1.6-.1 2l-.1.8-.7-.8c-.7-.7-1-1.6-1.1-2.5 0-.5-1.3 2.7-1.6 4.1-.1.5-.2 1.6-.2 2.3v1.3l-1-1c-2-1.9-2.6-2.5-3-3.4-.6-1.2-.8-1.1-.7.4.1 1.4.5 2.5 1.3 4.2 1.3 2.6.6 3.9-2.1 3.9-1 0-2.6.4-2.9.7-.8.9 1.9 1.8 8 2.6 3.5.5 5.4 1.9 6.7 4.9l.4.9.3-.7c.8-1.9 1.7-5.3 1.8-6.5 0-.9.6 1.7.7 3.2.1 1.9-.4 6.9-1.1 9.9-.6 2.5-.7 5.4-.4 6.2.2.4.2.4.2-.3 0-2.5.7-4.1 2.3-6 1.3-1.5 2.2-3 2.8-4.9.5-1.5.6-1.5.7-.4.3 2 .1 3.8-.4 5.6-1.5 5 2.2 5.1 7.5.3l.6-.6v.5c0 1.4-.9 3.3-1.9 4.2-.9.8-.9 1-.1 1.3 3.2 1.3 5.2-2.7 4.4-8.7-.3-2.3-.2-4.4.2-5.7.3-1 1.2-2.8 1.3-2.8v2.7c0 2.6 0 2.8.5 4.1.3.8.5 1.7.5 2.1 0 1.7.8-.6 1.3-3.8.4-2.8 1.2-4.8 2.3-6.3.5-.7.4-.8-.3-.5-.7.3-1.2.8-1.5 1.5l-.2.5-.4-1.4c-.2-.8-.5-2.1-.6-3.1l-.2-1.7-1 1-1 1-.8-2.4c-.7-2.3-1.3-4.5-1.5-6.4-.3-2.2-1.8.9-2.1 4.5l-.2 2-.5-.9c-.3-.5-.8-1.3-1.2-1.8-.8-1-1.4-2-1.8-3.3l-.3-1-.5 1.5c-.7 2.2-.5 5.2.7 9.4.9 3.4 1.2 6.7.6 8.7-.3 1.2-.1 1.1.4-.1 1-2.6 1-4.7.4-9.5-.2-1.2-.3-2.3-.3-2.3.1-.1 1.7 3.5 2.1 4.5 1.3 4 .5 8-2.2 10.9-1.2 1.3-2.2 2-2 1.4.7-2.3.7-10.5 0-13.9-.9-4.6-4.1-10.5-6.5-12.1l-.4-.3.3.5c2.8 4.3 4.1 9.9 3.2 14.3l-.2 1.2-.1-2.2c-.2-4-1.1-7.9-2.5-10.6-.6-1.3-.7-1.2-.3.3.4 1.4.6 4 .4 4.6-.1.3-.2.1-.7-1.1-.3-.8-.9-2-1.2-2.6-.3-.6-1.1-2.1-1.8-3.3-1.9-2.5-2.2-2.7-2.2-1.1m-27.2 7.3c-.4.3-.8.6-1 .9-.2.2-.9.8-1.6 1.2-6.9 4.6-11.5 10-18.6 21.6-3 4.8-3.1 6.2-1.3 10.8 2.8 7.2 4.6 9.4 10.4 12.9 4.8 2.9 6.2 4.7 8.8 10.9.8 1.9 1.1 2.3.8 1.1-.1-.4-.2-2.1-.1-4.1.1-4.6-.5-6.3-2.2-6.6-.7-.1-.5-.3.8-.5s1.3-.2.7-1.1c-1.7-2.3-3.8-3.1-7.9-3.1h-2.4l.6-.5c.9-.7 2.8-1.6 4.1-1.8 1.3-.2 1.2-.4-.6-.6-1.5-.2-3.7-.1-5 .2-1.1.3-1.1.2.1-1.1 1-1.1 2.6-2.1 4-2.4 2.2-.6-4-1.9-7.1-1.6-.8.1-1.4.2-1.5.1 0 0 1.4-.6 3.2-1.3 2.5-1 3.2-1.3 3.1-1.5-.3-.4-1.8-.9-3.8-1.4-2.3-.5-3.7-1.2-4.4-2.1-.7-.9-.6-1.2.1-1 .9.2 2.7.1 3.4-.1l.6-.2-.9-.9c-.9-.9-1.3-1.6-1.3-2.8v-.6s.4.1.9.3c.9.3 2.7.3 3 .1.1-.1.1-.3-.2-1-.7-1.5-.9-3.2-.6-4.7l.2-.8.9.1c1.7.2 2.9-.9 7.6-6.2 3.1-3.6 7.7-8.1 9.1-9.1 1.6-1.1 1.8-1.9.8-3-.8-.8-1.8-.8-2.7-.1m6.3 3.6c-.5 2 1.6 5.2 4.3 6.7.7.4.9.5.5.4a9.5 9.5 0 0 1-3.5-1.5c-.8-.5-1.5-1-1.6-1-.3-.2.1.7.8 1.7.7 1.1 2.5 2.9 3.1 3.1.2.1.3.2.3.2 0 .4-2.3.5-2.7.1-.3-.2-.3-.3.5 1.4.3.7.8 1.9 1.1 2.7.6 1.7.5 1.7 1.3.7.3-.4 1-1.3 1.4-1.9 2.4-3.2 6.1-2.7 10.1 1.2 1.3 1.3 1.5 1.3 1.5.1 0-.3.1-.7.1-.8.3-.4.4 1.6.2 3.7-.3 2.9-.1 5 .4 6l.4.8.1-1.4c.2-2.5.5-3 1.9-4.3 1.3-1.1 1.8-2 2.1-3.3.1-.4.1-.5-.2-.4-2.4 1-2.5 1-2.1-.6.6-2.9.2-5.3-1.2-6.8l-.8-.9v1.4c0 1.8 0 1.9-1.3.5-1.5-1.6-3-2.3-6.1-2.8-3-.5-3.8-.9-7.6-3.7-3.2-2-2.9-1.8-3-1.3m-3.5 3.9c-4.2 1-11.4 8.7-11.4 12.1 0 1.8 1.1 3.5 2.8 4.3 1 .5 1.1.8.3.8-1.8-.1-3.7-2.6-3.7-4.9 0-1.1 0-1.1-.6-.6-.2.2-.7.3-1 .3-.9 0-.6 2.3.5 4.7.7 1.4.1 2-2 2-1 0 .2.8 1.7 1.1l.7.1-1 .5c-1.2.5-2.5.8-3.7.7-1.7-.2.6 1 3.8 1.9 1.3.4 2.6.8 2.9 1 .4.2 1 .3 3.2.2 2.3 0 2.7 0 2.9.2.4.4.1.5-2.5.5-2.8 0-3.6.2-6.3 1.9l-1.3.8 1.6.1c1.2.1 1.9 0 2.8-.2 3.6-.9 10.7-.1 10.7 1.1 0 .4-.1.4-1.9-.2-2-.6-4.5-.8-6.5-.6-2.1.2-2.1.3-.8.9 1.9.9 2 1 .6 1.1-1.2.1-3.4.7-4.2 1.2-.4.2-.3.2.9.3 2.7.2 4.2.7 5.4 1.9.9.8.8.8-.5.9-.6.1-1.6.3-2.1.5l-1 .4.8.2c2.7.7 5 3.2 5 5.6v.9l-.7.1-.7.1.7.8c1.2 1.4 1.3 1.7 1.3 8.3 0 9.9 1 18.8 2.2 20.5 1.6 2.3 8.6 5.6 13.8 6.7 5.3 1.1 6.7.8 8.3-1.4 1.1-1.6 1-2.2-.1-1.7-.2.1-.7.2-1 .2-.3 0-.9.1-1.4.3-1.8.7-3.2.3-9-2.5-4.6-2.2-7.7-9.2-8.3-18.4-.2-2.3-.4-3.8-.9-4.4-.6-.9 1 12.2 1.9 15.2 1 3.3 3.4 6.6 5.7 7.7.8.4 1.8 1 2.4 1.3.6.4 1.6.8 2.6 1.1 3.1.9 4.2 1.4 2.8 1.4-1.4 0-3.7-.6-5.2-1.4-.8-.4-2-1-2.7-1.2-1.5-.6-3.1-1.5-4-2.3-1.4-1.2-3.7-6.6-3.7-8.7 0-.5-.1-1.5-.3-2.2-1.5-6.5-.7-13.8 2.2-19.5 3.6-7 5.7-8.6 11.9-8.8 5.4-.2 6.8.6 7.6 4.1 1.2 5.7 4.3 9.1 9.3 10.4 5.8 1.5 7.6-2.5 2.1-4.9-4.5-1.9-6.1-2.9-6.7-4-.5-.9-.3-1 .7-.5 2.9 1.3 1.4-3.4-1.9-6.2-.5-.4-.5-.4-.1-.4 1 0 2.2.5 3.1 1.4l.9.9V151c0-1.7-.3-3-.9-4.4-.4-1-.7-2.3-.4-2.6.1-.1.9 1 1.7 2.4 1.4 2.5 2.4 2.9 5.1 2.1 1.7-.5 2.3-.5 3.3-.1.8.3 1.6.5 2 .3 1.1-.7-2.6-9-5.6-12.4-.6-.7-1.3-1.6-1.5-2.1l-.4-.8-.9 1.4c-2 3.1-1.7 5.3.9 8 1.1 1.1 1.2 1.4.7 1.4-.8 0-2.7-2.4-3.3-4.3-.3-.9-.5-1.2-1.6-2.1-1.5-1.4-1.8-1.8-2.1-2.9l-.2-.9-.4.5c-2.4 3.3-2.3 7 .1 10.8.6 1 .8 1.3.6 1.5-.3.4-1.7-1.4-2.5-3.4-.2-.6-.4-.9-.4-.9 0 .1-.3-.4-.7-1.2-2.2-4.1-2.6-4.3-8.6-3.4-4.2.7-6.1.5-8.9-.8-2.3-1.1-4-1.5-6.3-1.5H290l.6-.4c1.1-.7 2.4-1 4-1 1.8 0 1.8 0 .7-1s-2-1.3-4.4-1.4l-2-.1 1-1.2c1.1-1.3 2.3-2.2 3.7-2.6.5-.1.9-.3 1.1-.3 1-.3-2.3-.6-3.6-.3-.6.1-.5.1.6-1 1.4-1.4 2.1-2.8 2.7-5.6.5-2.4.4-2.4-1.1-2.1m52.9 1.8c-1.9 1.2-2.4 2.4-2.6 5.9-.2 2.3-.3 2.8-1.1 4.5-.9 2-.6 2.4 1.5 2.4s2.9-.4 5.1-2.4c3-2.7 4.1-3.5 5.6-3.7l.7-.1-.8.4c-.5.2-1.6 1.3-3.2 2.8-3.5 3.5-5 4.4-7.5 4.3-1.7 0-1.7-.1-1.5.3.5.9 2.7 1.3 4.5.7 2.1-.6 3.4-1.5 6.1-4.1 1.5-1.5 2.6-2.3 3.1-2.3s-.1 3.5-.8 5c-1.1 2.1-2.7 4-4.3 5.1-1.3.9-2.4 2.1-2.4 2.6 0 .2-.1.3-.2.3s-.4.1-.7.2l-.5.2.5.3c.6.4 3.1 1.4 3.2 1.3 0 0 0-.2-.1-.4-.3-.5-.2-.7.2-.7 1.2 0 1.4-.4.5-.6-1-.3-1-.5.2-1 4-2 7.8-9.2 7.6-14.5v-1.2l-1.6-.7c-.9-.4-2.4-.9-3.4-1.3l-1.8-.6.7-.5c1-.7 1-.7-1.5-.7-2.6 0-2.7 0-1.9-.9.8-.8.8-1 0-.5s-3.5 1.6-3.7 1.5c-.1-.1.1-.5.4-1 .6-1.1.6-1.2-.3-.6m-148.8.7c-.6 1.1-1.3 2.1-3.7 4.8-2.6 3-3.2 3.8-4.8 7.1-5.2 10.3-12.7 16.9-27.8 24.7-4.7 2.4-6.5 3-13.6 4-6.6 1-9.1 1.7-12.2 3.3-2.7 1.4-2.7 1.4 1.2 1.5 4.1.1 4.2.2 2.1.9-3.3 1.1-6.8 3-9.4 5.1-1.5 1.2-4.7 4.5-4.4 4.6.1 0 1.8-.3 3.9-.8 2-.5 3.8-.8 3.8-.8s-.5.4-1.2.9a58.3 58.3 0 0 0-12.5 12.3c-1.1 1.6-1.1 1.6.3.4 3.7-3.1 8.8-5.6 13.6-6.6.8-.2 1.6-.3 1.7-.2.5.3 0 .6-1.4.9-7.7 1.6-15.6 6.9-18.6 12.4-1.1 2.1-1.4 2.8-1 2.6.1-.1 1.4-.9 2.8-1.8s2.7-1.8 2.8-1.8c.1-.1-.1.2-.4.7-.7.8-1.5 2.1-4.1 6.1-.7 1.1-2 2.8-3 3.9-2.2 2.5-4 4.6-4.8 5.7-.9 1.3-8.6 13.2-10.1 15.6-2.5 4.2-2.5 4.3-.2 1.3 3.9-5 7.7-8.4 11.3-10.4 1.9-1 1.8-.2-.1.9-5.2 3-13.2 11.9-16.8 18.9-2 3.9-2.9 4.8-7.1 7.9-2.2 1.6-3.8 3-3.5 3 1.4 0 4.9-1.8 7.2-3.6 5.2-4.1 7.3-6.1 9.3-8.5.6-.8.7-.8 1-.6.6.5-2.9 4-8.2 8.3-6.2 5-7 5.8-8.7 9.4-1.5 3.2-2.3 6.1-2.4 9.2-.1 1.9-.1 1.9.7 0 .9-2.4 3.5-5.6 5.2-6.6l.5-.3-.5 1a25.95 25.95 0 0 0-1.6 17.1V272c-.2-3.4 1.9-7.7 5-10.1l.6-.4-.6 1.9c-1.4 4-1.7 11.1-.6 11.1.5 0 .6-.4.4-1.8-.5-4.5 1.4-11.9 3.6-13.4.4-.3.7-.4.6-.3 0 .1-.4.8-.8 1.5-1.9 3.7-2.8 9.8-1.4 9.8h.4v-2.2c0-3.9 2.5-9.9 4.6-11.1 1.5-.8 4.9-4.7 5.9-6.6.7-1.3 1.7-4.6 2.7-8.7 1.5-5.8 3.1-9.8 3.9-9.8.5 0 .4.2-.4 1.8-1 2-1.6 3.7-2.7 8-.5 2.1-1.2 4.6-1.5 5.6-.3 1-.8 2.9-1.1 4.2-.3 1.3-.7 2.7-.8 3.2-.4 1.1-.3 1.1 1.2.1 2.5-1.8 4.1-3.6 4.7-5.5 1.1-3.1 1.8-6 2-8.4.1-1 .4-1.3.7-1 .3.3-.9 6.4-1.7 8.5l-.2.5.3-.4c1.1-1.3 2.6-5.1 3.4-8.5.5-2.1 1-3.4 1.7-4.4l.5-.8v-3c0-3 .4-6.6.7-6.9.3-.3.6.3.5 1-.9 3.9-.5 10.8.8 15.2.2.8.4 1.5.4 1.7 0 .2.3.9.7 1.6.5 1.1.6 1.2.6.8-1.1-7.5.9-16.6 5.1-23.1.5-.7 1.2-2.1 1.6-3 1.3-3 3.6-6.7 4.2-6.7.5 0 .4.3-.5 1.6-3.7 5.4-5.7 12-4.8 15.4.5 1.8 1.1 3 1.2 2.4.2-1.2.6-4.3.7-5.6.3-4.6 2.3-9.5 5.6-13.4 1-1.2 3.2-3.2 3.6-3.2.5 0 .1.6-1.8 2.5-3.8 3.7-5.5 7.2-6.6 13 0 .2.2-.1.6-.8 3.2-5.9 8.6-8.7 14.1-7.1 2.2.6 5.4 2.8 6.2 4.3.4.7.3.1-.2-1.4-.8-2.4-.5-4.4.9-7.6 1-2.2 5-5.5 8.9-7.4 1.4-.7 1.8-1.3.9-1.4-.6-.1-4.4 2-6.3 3.5-1.1.9-1.2.9-.6 0s1.1-1.2 4.1-3c3.1-1.8 6.5-3.5 9.3-4.8 2.5-1.1 3.2-1.7 2.2-1.9-.7-.1-8.4 3.7-13.1 6.5l-.6.3.6-.8c1.8-2.6 6.7-5.8 11.6-7.6 1.5-.6 2.1-1.1 1.3-1.4-.6-.2-5.8 2.1-8.2 3.7-.7.4-1.2.8-1.2.7 0-.3 2.3-3.1 2.8-3.4.3-.2 3.1-1.7 6.1-3.2 4.5-2.2 5.5-2.8 5.5-3.1 0-.7-1.6-.1-8.7 3.5-1.1.6-2 1-2 1 0-.4 1.4-2.2 1.9-2.5 1.8-1.2 8.3-4.7 10.3-5.7 2.3-1.1 2.9-1.6 1.8-1.8-.6-.1-5.8 2.6-10.9 5.6-2 1.2-4.1 1.8-8.5 2.6-4 .7-4 .8-1-.8 4.9-2.6 8.7-5.3 12.9-9.4 1.4-1.4 2.5-2.6 2.5-2.6-.1-.1-.5.4-1.1.9-1.2 1.2-2.8 2.1-5.4 2.8-1 .3-2.4.8-3.2 1.1-2.6 1-9.9 3.7-10.2 3.7-.1 0-.3-.1-.3-.3 0-.2 0-.3.1-.3s7.6-2.8 9.9-3.7c2.5-1 3.4-1.6 5.9-3.8l.6-.5-1.1.6c-3.4 1.8-10.4 3.9-10.8 3.2-.2-.4 0-.5 1.8-.8 7.3-1.5 12.8-4.8 18-10.9 1.1-1.3 1-1.3-.3-.1-5.1 4.6-15.3 10.2-15.3 8.4 0-.2.4-.4 1.8-.9 7.9-2.7 17-10.3 21.6-18.1.8-1.4.7-1.5-.2-.2-2.9 4-8.5 7.3-13.8 8.2-2.7.5-2.7.4-.3-1.5 1.1-.9 2.8-2.4 3.8-3.4l1.7-1.7-1 .4c-3.9 1.7-13.1 4.1-13.4 3.5-.2-.4 0-.5 3.5-1.2 7.4-1.7 12.1-3.7 14.5-6.4l.9-1-1.2.8c-4 2.9-12.5 6.1-13.4 5.1-.3-.3.3-.7.9-.7 3.6 0 11.8-4 15-7.4l.8-.8-1 .6c-3.4 2.2-9.1 4-9.1 2.9 0-.2.5-.4 1.6-.6 3.2-.7 5.5-1.8 8.5-4 1-.7 2.1-1.5 2.4-1.6 1-.6.4-.4-1.1.3-1.9 1-4.4 1.8-4.7 1.7-.6-.2-.1-.6 1.2-1.1 6.6-2.4 12.3-7.5 14.6-12.8 1.4-3.2 7.6-19.2 7.6-19.3-.3.1-.5.4-.7.9m-130.9 6.1c-.2.4 0 .7 1.6 1.6 2 1.1 4.7 3.1 6.4 4.8l1.3 1.3-1.3-.8c-14.2-8.3-29.5-8.7-38-.9-1.2 1.1-.8 2 .4 1 4.9-4.1 10.8-6.1 17-5.6l1.4.1-1.2.3c-.7.2-1.8.6-2.6.9-.7.3-1.9.7-2.5.8a29.2 29.2 0 0 0-18.8 12.2c-1.2 1.8-1.4 2.5-.8 2.5.3 0 .6-.4 1.4-1.6 3.2-5.1 8.6-9.2 14.3-11.1 1.7-.5 1.8-.5.6.3-3 2-6.4 5.5-8.9 9.1-.7 1.1-.7 1.1.3.3 4.5-3.9 18-9.4 18-7.4 0 .2-.4.3-1.3.5-10.7 2.4-18.5 7.7-22 15.1-2.6 5.4-4.5 16.9-2.6 15.3.2-.1.2-.5.2-1 0-1.9.8-6.6 1.5-9.4.5-1.8.5-1.6.1.6-.7 3.5-.4 13.2.4 14 0 0 .3-.7.6-1.6.8-2.6 4.6-9.2 4.1-7.3-.1.2-.1 1.2-.2 2.2l-.1 1.7.6-1.7A24.9 24.9 0 0 1 47.1 150c1.8-1.1 4-2 4.3-1.7.3.3 0 .6-.5.8-6.1 1.5-12.7 9.3-14.4 16.8-.6 2.9-.5 3.1.6 1.3 1-1.7 2.3-3.5 3.6-5 .5-.5 1.1-1.3 1.5-1.7a31 31 0 0 1 10.5-9.1c1.8-1 4.2-1.9 4.4-1.7.3.3-.1.6-1.6 1.2-2.9 1.1-6.1 3.2-8.3 5.3l-1.2 1.1 1.7-1.1c5.5-3.6 12.6-5.9 18.2-5.9h1.4l-1.5.8c-1.4.7-2.6 1.5-2.3 1.5 0 0 .4-.1.8-.3 4.3-1.5 14.1-2.5 14.3-1.4 0 .2-.3.3-3.2.4-6.4.2-12.7 1.8-14.6 3.7-1.4 1.4-4 5.3-4 6 0 0 .5-.1 1.1-.4.6-.3 1.8-.7 2.5-.9.8-.2 1.8-.7 2.2-.9 7.8-4.8 17.4-5.9 26.1-3.1 1.7.5 2.1.8 1.9 1.1-.1.2-.5.1-2-.4-7.5-2.4-16.4-1.8-23 1.6l-1.4.7.8-.1c.5-.1 2-.1 3.4-.2 1.4 0 3.1-.2 3.8-.3 1.9-.4 5.4-.6 7.1-.5 3.9.3 5.5.6 5 1.1-.1.1-.7.1-2.2-.1-2.1-.3-7-.2-8.6.1-.7.1-.7.1.7.4 2.7.6 7.3 2.4 8.5 3.5l.4.3-.7-.1c-1.2-.2-1.9 0-1.9.6 0 .4.1.4 1.2.5 2 0 4 .9 5.7 2.6 1.2 1.2 1.5 1.7.8 1.3-1.6-.9-6.2-.8-6.2.1 0 .4.5.5 1.7.4 2-.3 5 .5 6.6 1.8.3.2 1.6 2 3 3.9 3.1 4.4 5.2 6.9 8 9.7l2.2 2.1 1.1.1c2.6.2 5.1-.3 7.8-1.3.8-.3 1.6-.5 1.7-.5 1.5.6-3.8 2.3-7.7 2.6l-1.8.1 1 .8c.5.4 1.1.8 1.2.9.3.2 2.5-.3 4.1-.8 1.1-.4 1.6-.3 1.4.1-.1.3-2.3 1-3.6 1.2-1 .1-1 .3-.3.9.9.8 2.3.6 4.2-.5.9-.6 1.5-.6 1.3-.1-.1.3-1.4 1.1-2.7 1.5l-1 .4.6.3c1.8.8 3.6.1 5.9-2.1 2.7-2.7 2.5-3.6-1.5-5.3-4.9-2.1-5.9-3.2-6-7.2l-.1-2-.1.1h-.4v4c-.9 0-1.6-6.6-1-9.5.5-2.2.5-2.3.2-2.4-.8-.3-1.3 1.4-1.4 5.3l-.1 2.7-.3-1.4c-.5-2.4-.8-5.2-1-9.5-.1-2.3-.2-4.2-.3-4.3-.2-.3-.7-.1-.8.2-.2.7.3 9.8.7 11.8.1.3-.2-.1-.7-1-.6-1.1-.9-1.9-1.1-3-1-5.4-3.3-12.5-5.7-17.5-.9-1.9-.8-1.8-1.2-1.6-.5.2-.4.4.4 2.3 1.8 4 3.6 9.1 4.5 12.6.2 1 .5 1.9.5 2.1 0 .2-.4-.7-1.1-1.9-6.6-12.4-12.1-19.7-18.8-24.9-2.1-1.7-2.3-1.8-4-3.8-3.2-4-10.4-9.1-10.9-8m241.1 2.2c-1.4 1.2-.2 4.2 2 5 1.5.6 1.8.5 1.7-.3-.2-1.1-.2-1.2-.6-.9-.4.3-1.1 0-1.3-.6-.2-.7 0-1.2.6-1.4.7-.2.8-.6.2-1.2-.9-1.1-1.8-1.3-2.6-.6m-62.3.5c-1.6 1.3-4.2 2.6-5.6 2.6-.5 0-.9.4-.8.7.5 1.2 7.6-1.9 7.4-3.3 0-.5-.4-.5-1 0m93.8 6.4c-3.3.7-3.9 4-.8 4 .9 0 2.5.5 3.1 1 .3.2.9.7 1.4 1.1 2 1.5 2 1.6.9 3.1-.9 1.3-.9 1.3 0 1.1 1-.1 2.2-.7 3.4-1.7.5-.4 1.1-.9 1.3-1.1l.4-.3h-.7c-1.1 0-1.7-.4-2.7-1.9-1.5-2.2-2.9-3.4-4.1-3.4-.5 0 .6-.6 1.5-.9.5-.2 1-.3 1-.4-.1-.4-3.6-.9-4.7-.6m-8.5.6c-.1.2.3 1.2 1 2.5 1.3 2.7 2.3 5 3 7.4.9 3 1.4 3.9 3.4 5.2 1.5 1 1.9 1.4 2.2 2.1l.2.5v-.7c0-2.3-4.8-13.4-6.8-15.7-1-1.2-2.8-1.9-3-1.3m9.7 6.5c.1.6-.3 1.2-.8 1.2-.3 0-.8-.7-.8-1.1 0-.3-.1-.4-.4-.4-.9.1-.2 2.6.8 3 .6.2 1.4-.1 2-.8.8-.9.6-1.6-.5-2.3l-.4-.3.1.7m5.5 3.8c-1.3.8-2.2 2.4-2.6 4.5-.3 1.5-.5 4-.4 4 .1 0 .6-.1 1.1-.3 1.5-.4 1.6-.3.5 1.3-1 1.5-2.2 3.8-2.7 5.2l-.3.8 1.1.5c.6.3 1 .6 1 .6-.1.1-.5.4-.9.7-3.1 2.3-4 3.2-3.4 3.2.2 0 .5.1.8.2l.5.2-1 .5c-.9.5-4.9 4.2-4.7 4.4.4.4 2.5-.2 4-1.2 1.9-1.3 3.3-1.8 5.4-1.9l1.5-.1-.2-.4c-.3-.7-1.3-1.5-2.1-1.8l-.7-.3 1.5-1.3c.8-.7 1.9-1.6 2.5-2.1 1.2-.9 1.3-1 .6-.9-1.3.2-2.1-1.6-1.5-3.2.4-1.1.5-1.7 1-5.6.7-5.8.4-7.8-1-7m-18.9 3.3c-2.3 1.1-3.1 4.3-2.1 7.4.9 2.6 2.3 2.7 2.6.2.2-2 1-2.8 2.6-2.4 2.7.7 2.1 2.6-1.1 3.2-.7.1-.6.8.1 1.5 1.1 1.1 2.8.8 5.3-1.1 1.3-1 1.2-.9.9-1.2-.6-.6.2-1.1 1.1-.7 1 .4.6 1.2-1.6 2.8l-.6.4h.7c2.4 0 5.4-4.2 3.8-5.5-.4-.3-4.8-1.5-8.7-2.3-1.8-.4-1.6-.6.4-.5 1.1.1 2.6.4 4.8.9 2.7.7 3.3.8 3.5.6 1.7-1.3-9.2-4.6-11.7-3.3m-23.4 2.7c-.3.2.7.9 1.4.9 2 0 5.8 2.4 7.1 4.3 1.1 1.7 1.6 1.5 1.6-.8 0-2.8-1.2-4.3-3.4-4.3-.8 0-.8.2.1.8 2.1 1.4 1.6 1.6-1.2.4-4.1-1.7-4.9-1.9-5.6-1.3m3.6 3.2c-.2.4-.7 2-.7 2.3 0 .1.3-.1.6-.4.4-.4.8-.7.9-.7.3 0 .8-.4.8-.8 0-.6-1.3-1-1.6-.4m1.1 2.5c-.5.5-.7 2.4-.3 2.4.3 0 2-1.2 2.4-1.6.8-1-1.3-1.7-2.1-.8m-52.8 2c-.9 2.1-3.3 4.1-8 6.6-7.2 3.8-8.2 5.1-9.4 11.6-.7 3.8-2.2 7.6-5.1 12.7-.6 1.1-1.2 2.1-1.2 2.1s.5-.4 1.1-1c1.8-1.8 4.3-3.3 6.5-3.8 2-.5 2-.5.7.7-1.2 1.2-2.5 3.6-2.8 4.8-.1.6 0 .5 1.8-1.2 3.8-3.6 6.8-5.1 10.2-5.1h1.1l-.7.4c-1.2.8-2.4 1.9-3.2 2.9-1 1.3-.9 1.5.1.6 4.5-3.8 7.8-4.6 19.1-4.8l8-.2c2-.5 7.6-1.3 9.2-1.4 2.3-.1 1.8-.2-2.6-.5-1.6-.1-4.1-.3-5.6-.5-1.4-.2-3.8-.4-5.4-.5-1.5-.1-3.2-.3-3.7-.4-2.1-.4-3-.8-1.6-.8 4.6 0 10.4-2.2 12.2-4.6.6-.8.6-.8-1.2-.4-2 .4-5.1.8-7.2.9l-1.7.1 1.4-.2c7.5-1.2 18.5-5.7 16.2-6.5-.1-.1-1 .3-2 .8-8.8 4.6-19.5 6.3-29.2 4.6-3.4-.6-3.8-.8-1.6-.8 5.4 0 11.4-1.9 15-4.6.6-.5.6-.7-.1-.3-5 2.6-13.8 3-20.5 1.1-1.5-.4-1.5-.4-.3-1 4.3-2.1 8.5-6.7 10.3-11.2 1-1.4.7-1.3.2-.1m55.7-.6c-.6.3-1 1.7-.8 2.9l.1.8.6-.1c.3-.1.8-.2 1.1-.4.5-.2.5-.2.3.2-.2.6-.2 1.9 0 2 .3.2 2.3-1.9 2.4-2.5.1-.7-.4-1.4-1.1-1.4-.3 0-.5-.1-.5-.2 0-.8-1.4-1.7-2.1-1.3m26.9 1.1c-1.1.6-2.6 1-4.3 1.2-2.4.2-3.1.9-3.1 3 0 1.8 1.1 2.5 3.9 2.8 2.2.2 3.1-.5 3.5-2.6.1-.6.3-1.5.4-2 .3-1.3.5-2.7.3-2.7 0 0-.4.2-.7.3m-36.6.3c-1.2 1.3-1.2 5.9 0 8.4.4.8 1 1.4 2.3 2.4 1.4 1 1.7 2.3 1.4 5.7-.2 2.2 0 2.5 1 1.6 1.7-1.5 2.8-.4 1.8 1.9-.6 1.4-.2 2.1 1.7 2.8.7.3.7.3.5.6-.4.4-1 .3-2.3-.4l-.9-.5-.2.5c-.3.8 1.3 1.6 3.6 1.7 2.3.1 2.7-.3 1.6-1.6-1.5-1.8-1.5-3.2.1-7.3 1.3-3.3 1.3-4.3 0-5.7-1-1.1-1.1-1.4-.9-2.8.2-2.1-.8-3.4-2.5-3.4-2.2 0-2.1 3.4.2 5.5l1.1 1-.1 1.2c-.1 1-.7 3.3-.9 3.1 0 0-.2-.8-.3-1.8l-.3-1.7-1.4-1.3c-2-2-2.1-2.1-1.7-7 .3-2.4-2.4-4.4-3.8-2.9m-29.9.6c-4.6.7-11.2 4.7-9.8 5.8.2.2.4.1 1.1-.6 3.4-3 8-4.7 12.3-4.3 2.8.2 2.7.2 2.7-.2 0-.7-3.9-1.1-6.3-.7m44.7 2.6c-.4.8-2 8.9-1.8 9.2 0 0 .5-.8 1-1.8s1.4-2.5 1.9-3.4c.5-.8 1-1.7 1.1-2 .3-1.2-1.7-2.9-2.2-2m-41.4.1c-4.2.6-9.6 2.8-8.7 3.7.3.3.4.2 2.2-.7 3.1-1.5 5-1.9 8.4-2.1l2.3-.1-.1-.4.1-.4h-4.2m2.6 1.9c-1.4.3-3.6 1.2-3.7 1.7-.3.7.3.8 1.6.1 1.4-.7 2.8-1 4.1-.9 1 .1 1.5-.3 1.1-.7-.3-.2-2.3-.4-3.1-.2m41.5 1.3c-.2.5-.2 1.7 0 2.4.1.4.1.4.5-.2.7-1.1 1.5-1.3 1.5-.4 0 1.3.3 2.2.5 1.5.3-1.3 1.8-.9 1.8.4v.7l.5-.2c.3-.1.7-.5 1-.8.8-.8 1.4-.5 1.4.7 0 .3.1.5.2.5.4 0 1.2-.6 1.4-1.1.3-.8.7-.6.6.4v.8l.4-.3c1.9-1.3 1.7-3.2-.1-2.2-.3.1-.6.1-1.3-.1-.7-.2-1-.2-1.5-.1-.4.1-.7.1-1-.1-.3-.1-.7-.2-1-.2-.5.1-.7 0-1-.4-.3-.3-.6-.5-1-.5s-.7-.2-1.2-.6c-.9-.8-1.4-.8-1.7-.2m13 .8c-1.1.5-1.5 1.7-1.6 5-.1 2.1-.2 3-.5 3.9-.1.4 2-2.9 2.7-4.1 1.8-3.3 1.5-5.7-.6-4.8m-35.7 1c-.4.9-.1 1.7.8 1.8.7.1.8-.2.4-1-.5-1-.9-1.3-1.2-.8m5 3c0 1.9 1.2 6.4 2.1 8.2.5.9.5.9.9.5.3-.3.3-.4-.2-1.1-.4-.8-.5-.9-.4-3.2 0-3-.3-4-1.8-4.8-.6-.4-.6-.4-.6.4m-4.4.5c-.4.3-.4.9 0 1.8.1.3.3 1 .3 1.5 0 .7.1 1 .4 1.4.3.4.4.7.4 1.3 0 .9.2 1.3.8 1.7.5.2.5.3.4 1.1-.2 2.1 1.2 2.2 2.8.2.9-1.1.9-1.2-.4-1.3l-1-.1.3-.7c.4-.8.4-1-.5-1.3-1-.3-1.2-.6-.6-.9.6-.3.5-.7-.4-1.4-1-.7-1-.8-.3-1.6s.7-.7-.2-1.3c-.9-.6-1.6-.7-2-.4m9.5 7.6c-1.2 1.6-2.4 2.7-3.8 3.2-1.9.7-2.2 2-.8 3.5 1.6 1.7 2.8.2 4.8-5.7.9-2.2.8-2.4-.2-1m6.2 3.5c0 .1.1.2.2.2.4 0 .5.8.2 1.5-.9 2 .8 2.8 1.8.8.3-.6.2-.7-.5-.7s-.7 0-.4-.4c.3-.5.3-1 0-1.4-.4-.2-1.3-.3-1.3 0m4.7 1.7c-.3.4-1.1 1.4-1.8 2.1-.7.7-1.2 1.5-1.2 1.7 0 .5-.6 2.1-1 2.4-.5.4-.4.6.2.6 1.2 0 4.1-4.5 4.4-6.7.1-1 .1-1-.6-.1m-11.8 1.3c-1.4.7-1.6 1.9-.4 2.4.3.2.8.5 1.1.8.4.4.7.5 1.1.5.4 0 .7.1.9.3.2.2.5.3.7.3s.6.1.9.3c1 .5 2.1-.3 2.5-1.7.4-1.3.2-1.5-.8-.7-.9.6-.9.6-.9-.2 0-.9-.2-.9-.9-.4-1.1 1-1.2 1-1 .5.3-.8.2-2-.1-1.7-.4.3-1.4.8-1.5.8 0 0 0-.3.1-.6.5-1-.3-1.3-1.7-.6m-25.5 1.3c.1.2.6.9 1.1 1.5 4.6 6.4 4.9 13.7.9 19-.8 1-.8 1.7-.1 1.7.7 0 3.2-4.8 3.7-7.1.2-.9.1.9-.2 2.3-.5 3.1-1.9 6.3-3.6 8.6-1.1 1.4-1.2 1.6-.9 1.9.6.6 2.9-2.4 4.3-5.7.3-.7.5-1.1.5-.9 0 .3-.1.9-.2 1.5-.2 1.7-.7 4.3-1.3 6.4-.3 1.1-.6 2-.5 2.1.1.1 1.5-1 2.5-2l1-1v2.5c0 5.6-1.1 10.3-3.8 15.3-.6 1.1-.9 2-.8 1.8.2-.1.7-.6 1.1-1 2.1-1.9 5.7-3.9 8.7-4.9 1.9-.6 1.9-.8.6 1.5-1.2 2.1-1.4 2.6-.5 1.5 2-2.6 4.7-3.2 13.2-3.1l5.7.1 5.5-.6c7.9-.8 9.7-1 13.7-1 4.3 0 4.3 0 6.5 1.7 3.2 2.5 4.3 2.6 4.3.5 0-3.3-4.9-6.5-11-7.1-3.2-.3-4.9.1-7 1.8-1.4 1.1-1.6.2-.5-2l.3-.6h-.5c-1.8 0-4 1.4-5.6 3.4l-.4.5.1-1.2c.1-.6.2-1.7.4-2.4s.3-1.3.3-1.3c-.3-.3-3.9 2.1-5.4 3.6l-1 1-.1-.5c-.2-.9.4-3.3 1.1-4.2.4-.6.3-.8-.1-.5-.6.3-1.2 1.2-1.4 2-.6 2.7-1.3 2.9-5.5 1.9-2.3-.5-3.6-1.2-6.6-3.3-1.4-1-3.1-2.1-3.9-2.4-.8-.4-1.6-.7-1.8-.8-.5-.3-.7-.8-.8-3.1-.1-3.3-1.1-6.8-1.9-6.8-.3 0-.8.3-1.7.9-.8.6-1.6.8-1.5.3 2.1-6.8.8-12.4-4.1-18.8-1.4-1.6-3.2-3.7-2.8-3m10.1 3c.3 1.2.4 2.7.6 5.3.2 3.3.5 4.6 1.4 5.9.6.8.9.8.9 0 0-.6.8-2 1.5-2.7.5-.4.7-.6.6-.3-.7 1.7-1.2 4.6-.9 4.6.1 0 .5-.4 1-.9 1.4-1.4 4.1-2.6 2.8-1.2-1.5 1.6-2.6 3.9-2.8 6.3-.2 1.8-.1 1.9.8.9.4-.5 1.1-1.1 1.6-1.3l.9-.5-.4.8c-.7 1.4-.7 5 0 8.2.2 1 .1 1 2.2-.9 1-.9 1.8-1.6 1.8-1.5 0 .5-.9 2.4-1.9 3.9-.6.9-1.1 1.7-1.1 1.7l1.2-.4c2.6-1 4.8-1 7.3.1 3.7 1.6 4 1.6 13.8 1.7 10 0 11.4.2 15.1 2.1 4.6 2.3 6.7 5.2 7.1 9.4.1 1.1.4 3 .6 4.4.4 2.5.6 4.8.3 5.6l-.1.4.4-.4c1.2-1.1 3.2-1.1 4.7-.1l.6.4.1-1.1c.3-3.7.8-3.4 1.4.9.3 2.4.5 3 1.9 4.8 1.4 1.9 2.1 3 3.6 6.2 2.1 4.5 3.6 6.5 4.9 6.8 1 .2 1.1 0 .6-1.8-.6-2 1.4-4.3 3.4-3.9.8.1 1.7 1 1.8 1.6.1.3.2.5.3.6.2.1.2-.2-.1-.9-.1-.3-.4-1.7-.7-3.1-.5-2.7-.7-3.6-1.5-5l-.5-1 1.5 1.1c3.9 2.7 5.3 5.5 4.1 8.1-.4.9-.4.9-.1 1.2 1.1.8 5.9 2.8 6.1 2.6 0 0 0-.6-.2-1.2-.7-3.2 1-5.7 3.2-5 1.2.4 1.9 1.6 2.2 3.6l.2 1.1-.1-1.4c-.2-3.5-.9-5-3.1-7.2-.9-.9-2-2.2-2.4-2.8-.8-1.3-1.5-2-2.5-2.6-.7-.4-.7-.4 1.4-.1 2.6.4 3.8 1.4 5.2 4.2.2.4.4.7.5.7.1 0 .1-.2 0-.3-.3-.5-.3-2.9 0-3.2.4-.5 2-.3 3.1.3 1.3.7 1.4.6.5-.8-.9-1.3-2-2.2-4.3-3.5-.8-.4-2.6-1.4-4.1-2.2l-2.6-1.5.6-.1c1.2-.2 2.9 0 4.3.6.7.3 1.4.5 1.4.5.2-.2-1.9-3.4-2.9-4.4-1.9-2-7-4.1-11.4-4.7-1.8-.2-2.6-.5-4.3-1.5-.8-.4-2.1-1-3-1.3-1.8-.6-3.4-1.4-6.1-3-1.1-.7-2.6-1.5-3.3-1.9-.7-.4-1.6-.8-1.8-1-.4-.3-.5-.3-1.2 0-1.6.6-5.6.4-5.8-.2-.2-.4.2-.5 1.4-.3 2.1.4 4.8 0 4.1-.6-.5-.6-.9-.7-1.2-.4-.8.7-5.9-.1-5.9-.9 0-.4 0-.4 1.6 0 1.5.4 4 .5 3.9.1-.1-.4-2.3-2-3.8-2.7-2.5-1.3-4.3-1.2-9 .1-4.9 1.4-8.4 1.4-15.2-.1l-4.2-.9c-2.5-.5-3.3-1-5.4-3.3l-1.8-2 .8-.1c.9-.1 2.7-.9 3-1.4.2-.2.2-.3-.6-.2-2.2.3-5-1.2-6-3.2l-.3-.6.4.1c1 .3 3.4.6 3.9.6.6-.1.5-.1-.7-.5-1-.3-1.7-1-2.1-2.3-.8-2.6-1.5-3.1-5.5-4.6-3.9-1.4-6-2.9-7.2-5.3-.4-1.1-.6-1.4-.5-1.2m-106.8 9.9c-.5 3.4-1.6 5.8-3.9 8-1.4 1.4-1.4 1.5-.1-2.9.4-1.2.1-.9-.7.7-1.2 2.7-6.4 9.7-6.4 8.7 0 0 .3-.8.6-1.8 1.2-3.6 1.7-8 1-8.2-.4-.1-.5.1-.6 1.9-.3 3.9-2.2 9.3-3.5 10.3-.9.7-.9.5 0-1.1 1.8-3.4 2.8-7.9 1.7-7.7-.3 0-.4.3-.7 1.9-.4 1.7-1.2 4.2-1 3.2 0-.3 0-.5-.1-.5s-.1.1-.1.1c0 .7-3.3 4.9-5 6.3l-1.1.9-.1-.6c0-.4.1-.9.6-1.6 1.3-2.1 3.2-7.6 3-8.2-.3-.8-.8-.4-1.1.8-.9 3.5-2.4 6.7-3.4 7.5-.4.3-1.6 1.5-2.6 2.6s-1.8 1.9-1.7 1.8c1.1-2.5 2.4-6.7 2.2-7.1-.3-.9-.8-.2-1.5 2.1-1.4 4.4-2.2 6.2-4.3 8.9-2.1 2.7-3.4 4.7-3.4 5.1 0 .4-1 2.1-1.9 3.2-1 1.2-.6.9.7-.5 1-1.1 2.2-2 3.6-3l.4-.3-.1.7c-.1 1.7-.1 1.7 1.6-.5 2.5-3.3 5.6-6.9 5.3-6.2-.9 2.2-1 2.5-1.1 4.6-.1 1.6 0 2.1.1 2 .1-.1.2-.2.2-.3 0-1.3 2.7-5.1 5.6-8 2.7-2.7 2.8-2.8 2.5-1.5-.1.5-.2 1.5-.2 2.3v1.4l.9-1.6c3-5 5.4-7 13.8-11.3 4-2.1 7.8-4.2 8.3-4.7.2-.2 0-.3-.7-.9-2.1-1.5-4.7-4.3-6.2-6.6l-.5-.8-.1.9m-27 12c-3.9 4.1-6.6 9.1-10.6 19.4-.8 2.1-1.9 4.9-2.5 6.2l-1 2.5-.1-4c-.1-3.2-.2-4.5-.5-6.4-.6-3.6-.7-3.6-.9-.6-.3 3.5-2 11.3-2.4 10.9 0 0 0-.5.1-1.1.4-3.1.1-7.7-.5-7.7h-.4v3.9c0 5.6-.7 8.4-2.5 11.2-1 1.6-1.3 1.7-1.3.7 0-.4-.1-1-.2-1.4-.1-.6-.1-1.1.2-2.3.7-3.4.6-11.1-.2-11.2l-.4-.1v4.6c0 6.1-.3 7.6-1.8 9.5-5.7 7-12.2 11.3-20.3 13.1-5.5 1.3-8.1 2.3-10.2 4.1-1.5 1.2-3.1 3.5-2.9 4.1.2.5.8.3 1.2-.6.8-1.5 2.7-3.3 4.7-4.3 1.5-.8 8.3-2.7 8.5-2.5 0 0-1 .6-2.2 1.2-4.8 2.5-7.7 4.5-10.3 7-2.1 2.1-3.8 4.5-3.5 4.9.4.5.6.3 1.5-1 1.2-1.9 4.3-4.9 6.6-6.4l1.8-1.2-.7.8c-2 2.4-3.1 4.8-2.8 6 .1.4.2.3 1.1-.9 1.1-1.6 2.4-2.9 3.8-4l1-.8v1.4c0 1.5.3 1.9.4.8.3-1.6 1.6-3.4 3.5-4.8s3.6-2 9.7-3.8c3.1-.9 5.5-2.1 7.1-3.6l1.2-1.2-.4 1c-.2.5-.7 1.5-1.1 2.1-.8 1.5-.7 1.5 1.1.5 4.2-2.2 8.2-6.4 10.2-10.6.8-1.6 1.6-4.2 1.6-4.8 0-.2.3-1.2.7-2 .7-1.5 1.6-3.6 4.5-11 3.4-8.6 6.6-14.3 10-17.6.7-.7.9-1.3.4-1.5-.1.5-.5.7-1.2 1.5m27 10.4c.5 1.4.2 2.7-1.4 5.8-1.7 3.3-2 4.6-2.5 11a30 30 0 0 1-1.3 7c-.7 2-.8 2.1-.9 1.3-.3-2-.5-2.6-1.1-3.8-.4-.7-.9-1.6-1.2-1.9l-.5-.6.1.7c.7 5.1 0 10.1-1.9 13l-.3.5.1-.5c.3-1.1.2-4.9-.2-5.9-.7-2-1.8-2.8-4-3-1.5-.2-1.5-.3-.7 1.4.4.8.8 2 .9 2.7.3 1.4.4 4.8.1 4.3-.6-1.1-3.1-3.3-3.4-3 0 0 .1.5.3 1 1 2.7 1.2 4.7.7 6.5-.4 1.3-.6 1.4-1.1.9-.7-.7-2-1.2-3-1.2-1.3 0-1.5.1-.8.9 2.3 2.4.8 5.4-4.1 8.4-1 .6-2.5 1.5-3.3 2-4.8 2.9-5.7 5-5.1 12l.2 2.6.1-1.3c.4-4.4 2.3-6.8 6.8-8.7 3.5-1.5 5.5-2.7 6.1-3.7l.3-.5v.7c0 .6-.1 1.4-.4 2.2-.2.7.1.4 3.9-4.2 2-2.4 3.8-4.5 4-4.7.3-.3 0 .6-2 7-1 3-1 3 .7 1.3 4.6-4.9 7.7-11.1 8.9-17.5l.2-1.2.2.9c.4 1.9.6 4.1.4 6-.2 2.5-.2 2.4.6-.5 1.2-4.5 1.8-8 2-13.1.2-3.6.3-4.2 1.6-7.9 2.4-6.6 2.9-11.8 1.4-16-.2-.7-.5-1.3-.6-1.3s.1.1.2.4m183.2 8.5c1.9.8 2.3 1 2 1.4-.1.1-4.2-1.4-4.6-1.7-.3-.2 0-.7.4-.6.1.1 1.1.5 2.2.9m-.3 1.4c3.8.8 4.4 1 4 1.4-.1.1-1.2 0-4.2-.7-2.2-.5-4.1-.9-4.2-.9-.1 0-.1-.1-.1-.3-.1-.5.1-.5 4.5.5m-3.4 5.4c1.8 1.8 2.1 2.2 1.5 2.2-.6 0-4-3.4-3.9-3.9.3-.4.4-.3 2.4 1.7m-1.4 1.2c2.7 2.6 3.3 3.3 2.7 3.3-.6 0-6.3-5.6-6-5.9.2-.3 0-.4 3.3 2.6m-203.9.8c-8.2 8.4-9.4 9.9-10.6 13.4-2.4 6.9-6.2 11.5-13.7 16.5-4.8 3.2-5 3.9-3.2 9.2 3.1 8.7 3.8 17.3 2.4 27-1.3 9-1.4 13.8-.3 18 .2.6.3 2.1.4 4.1.2 4.3.7 5.5 3.1 6.6 1.1.5 1.5.9 3.6 3.1l2.4 2.5-.1-1.2c-.3-3.9 2-7.4 4.6-7.1.8.1.8.1.2-.9-.3-.5-.9-1.9-1.3-3.1l-.8-2.3 1.2.8c2.2 1.6 4.2 3.9 5.6 6.5 1.7 3.2 2 3.4 2.7 2.2 1.2-2.1 2-2.7 2.9-2.4.3.1.5.3.5.4 0 .1.1.1.2-.1.5-.8-.2-2.2-2.5-4.6-1.8-1.9-2.5-2.7-2.7-3.5-.3-1 4.7 1.1 6 2.6.6.7.9.7 1.3.3.6-.6 2.3-.5 4 .4l.5.2-.1-.5c-.2-.8-1-1.8-2.2-2.5-1.3-.9-1.6-1.4-.8-1.7.5-.2.9-.1 1.3.3.1.1.3.2.4.2.5-.5-2.4-2.1-4.4-2.4-7.6-1.2-9.5-4.4-10.8-18.5-.6-6.5-.6-6.5-.9-6-.7 1.2-.7 2.1-.8 8.8 0 4-.1 6.9-.2 7.5-.1.5-.2 1-.2 1.1 0 .1-.5-.8-1.1-1.9-.6-1.1-1.8-3.2-2.6-4.7-2.7-4.7-2.8-5.7-.6-7.3.9-.6.9-.7 0-.6-1.3.2-2.3.6-3.2 1.2l-.8.6.1-.4c.4-1.7 1.8-3.3 4.7-5.2.3-.2.3-.2-.2-.1-1 .2-3.5 1.6-4.5 2.5l-1 .9v-.6c0-2.3 2.2-5.6 5.5-8.2.7-.6.6-.7-.9-.6-1.9 0-3.9.8-5.2 1.9l-.4.4.3-.9c.6-1.7 2.2-3.6 3.7-4.5.8-.5.7-.6-1.1-.6-1.9 0-1.9.1-1.9-2.1 0-2.8.8-5.8 2.3-8.9 1.2-2.5 1.6-3 5.3-7.1l.5-.6-.1.8c-.5 2.9-2.1 6.1-4 8.2-.8.9-.9 1.4-.2 1.4 1.6 0 5-6.7 5.4-10.3.1-1.1.6-2.5.8-2.5.2 0-.1 3.4-.4 5.4-.6 3.6-1.8 6.8-3.6 9.3-1.1 1.7-.8 2.6.4 1.2 2.7-3.2 4.3-8.5 4.8-16.4l.1-2 .2 1.2c.1.6.3 2.1.3 3.2l.1 2 .7-1.8c.9-2.3 1.6-5.1 1.9-7.5.3-2.3.3-2.3.7-.5.4 2.2.5 6.5.2 8.9-.3 2.4-.3 2.4 0 2.6 1.6.6 1.6-9.5 0-15-.6-1.9-.9-4.4-.6-4.2 1.1.7 2.9 5.2 3.5 8.4l.2.9.2-.5c.5-1.1.4-3-.1-6.2-.7-4.1-.6-6 .3-8.3l.3-.7v2.8c0 3.6.4 5.5 1.8 8.5.6 1.2.9 1.4 1.3 1 .2-.2.1-.5-.4-1.5-1.8-4-2.3-8.2-1.2-12.2.2-.6.2-1 .1-1.1-.2-.3 1.4-2.6 3.2-4.7l1.3-1.5c-.4-.4-1.9 1.1-3.8 3m189 2.7c-.5.3-.5.7.1 2.3.3 1 .5 1.8.5 3.6l.1 2.3 1.1-2.7c1.5-3.6 1.5-3.7.5-4.8-.8-1-1.6-1.2-2.3-.7m36.4 3.2c-1.4.3-.6 3 1.1 4.1.8.5 1 .7 1.9 2.6.5 1.1 1 2 1 2 .3 0 0-6.1-.3-6.5-.6-.9-3-2.4-3.7-2.2m-5.1 8.4c-.9 1-.6 1.9 1.2 4.5a42.3 42.3 0 0 1 3.2 5.4c.1-.2-.3-5-.5-5.8-.9-3.1-2.9-5.2-3.9-4.1m-13 2.7c-.5.5-.5 1.3.1 3.3.4 1.7.8 5.1.7 5.6-.2.6.6-.5 1.3-2 1-1.9 1.8-4.4 1.7-5.1-.3-1.3-2.9-2.7-3.8-1.8M82.9 276.3c-2 5.1-5 9.5-11.9 17.4-7.9 8.9-9.3 10.9-12.7 17.4-4.5 8.6-5 9.2-10.2 12-3.6 1.9-6.8 4.1-8.1 5.5-.9 1-2.5 3.5-2.2 3.5 0 0 .8-.2 1.6-.5 5.9-2 9.2 3.3 3.9 6.3-.7.4-1.8 1.3-1.8 1.5 0 .8 5.1-1.5 7.7-3.5l1-.7-.2.6c-1.8 4.1-1.9 4.3-4.1 5.7-1.6 1.1-1.8 1.2-1 1.1.9-.1 2.7 1.2 3.3 2.3.6 1.1.1 2.9-.9 3.5-.8.5-.7.5 1.4.1 3.3-.7 5.4-2.4 7.2-6 1.1-2.3 1.4-2.3 1.4-.4s-.5 3.7-1.6 5.1c-.3.4-.3.5.1 1.3.5.9.6 1.8.4 3.1l-.1.8 1.4-1c3.6-2.5 4.6-4.6 6.1-11.7 1.1-5.7 1.8-7.5 3.4-9.9.6-.9.6-1.1.7-2.5.1-1.7.2-2 1.4-3.2 1.2-1.3 2.7-3.5 6.2-9 3.3-5.2 4.5-6.8 7.9-10.6 2.4-2.7 3.5-4.3 4-5.6.3-.9.5-1.6 1.1-5.2.1-.9.3-1.8.4-2.1l.1-.5-1.1.8c-2.8 2.2-6.2 6.1-8.2 9.5-.5.9-1 1.6-1.1 1.5-1.4-.5 5.1-8.7 9.5-12.1 1.3-1 2.3-2.2 1.6-2-1.7.6-7.2 5.4-8.4 7.2-.1.2-.4.4-.5.4-1.8 0 4-5.7 8.5-8.3 1.1-.6 2.2-1.7 1.7-1.7-.6 0-4.4 2.1-6.4 3.5-1.3.9-1.4 1-1.7.7-.3-.3-.4-.3 1.8-1.8 1.7-1.2 3.7-2.3 5.6-3.1 1.3-.5 1.5-.7 2.1-1.5 1-1.5 3-3.8 4.9-5.8 2-2.1 2-2.1.2-1.6-3 .7-6.1 2.1-8.7 3.9-1.2.9-1.5 1-1.4.7.1-.6 1.2-2.7 1.5-3.3.2-.3.3-.5.3-.6s-1 .4-2.3 1l-2.6 1.2c-.6.2-1.1-2.8-.6-4.3.1-.7-.1-.4-.6.9m136.3 12.1c-.3.3-.8 1.1-1.2 1.8-.7 1.4-2 3.2-3 4.2l-.6.6.6-.1c3.5-.6 6.9-2.7 6.9-4.2 0-2.2-1.5-3.5-2.7-2.3m20.9 4c-1.2.7-1.4 1.4-1 4.3.1.5-.1 1.2-.6 2.7-.7 2.2-.7 2.4-.1 1.6.3-.3 1.2-1.3 2.1-2.2 1.9-2 1.9-2.1 1.4-4.3-.4-2.4-.8-2.7-1.8-2.1m-9.2 2.6c-.9.5-1.1 1.2-1.5 3.9-.3 2-.8 4-1.4 5.9-.1.4.6-.4 2.1-2.2 3.1-3.8 3.7-9.1.8-7.6M70.1 311.4c0 .1-.4.8-.9 1.5-3.3 4.1-6.1 9.7-7.5 15.1-.2.6-.6.8-.7.2-.4-3 8.6-19.6 9.1-16.8m-6.8 6.2c.1.1-.2.7-.7 1.3-1.2 1.6-2.6 4.6-2.6 5.6 0 .4-.4.7-.7.5-.7-.4 1.5-5.4 3.1-7.2.5-.5.7-.5.9-.2m5.6 1c.1.2-.2.5-.7 1-1.6 1.6-2.9 4.1-3.2 6-.1.4-.2.7-.3.8-1.2.5.2-3.8 2-6.2 1.2-1.6 2-2.1 2.2-1.6m91.8 12.6c-1 .8-1.3 2-1.2 3.7.1 1.8 0 1.7 1.3 1.3l1-.4.8.4c1.3.6 2.2 2.2 2.5 4.4l.1 1 .2-.9c.3-1.2.6-3.9.6-5.5V334l-.7-.7c-2.8-2.6-3.6-3-4.6-2.1m-121.5 2.7c-.7.3-1.2.8-1.8 2.1-.8 1.5-1.4 2.2-2.4 3-1.1.8-1 .8 1 .1 4.3-1.5 6.9-3.9 5.2-5-.5-.3-1.5-.5-2-.2m105.4 2.4c-1.4.7-1.6 4.5-.2 5.2.8.4 1.4 2.6 1.7 6 .2 1.8.2 1.7 1.5-1.8 1.6-4.5 1.8-6.3.8-8.6-.5-1-2.3-1.5-3.8-.8m11.4.1c-.6.3-1.6 2.7-1.6 4.1 0 .7.8 1.5 1.4 1.5 1.8 0 4.2 2 5 4.1l.3.8.2-.7c.9-3.1.2-5.4-2.5-8.2-1.8-1.8-2-2-2.8-1.6m-113.2 8.5c-.2.2-.5.8-.7 1.2-.5 1.3-1 1.9-2.9 3.6-2.2 2-2.1 2.3.9 1.8 2.1-.3 6.6-4.3 6.6-5.8 0-1.1-3-1.7-3.9-.8m9.2 4.3c-.2.5-.4 1.2-.5 1.5-.4 1.3-.9 1.9-2.1 2.7-1.1.7-2 1.5-1.9 1.6.1.1 1.6-.4 5.4-1.5 1.4-.4 1.6-.7 1.6-2.1 0-1.5-.4-2.5-1.2-2.9-.9-.3-.9-.2-1.3.7"/></svg>