<svg xmlns="http://www.w3.org/2000/svg" viewBox="0 0 410 410"><path d="M193.7 36.8c-4.2 4.4-6.2 7.2-10.5 15.5-1.2 2.3-2.2 4.2-2.2 4.1 0-.8 3.5-8.2 6.3-13.5 2.2-4 1.2-3.1-1.5 1.5-4.4 7.4-8 15.6-9.8 22.5-.3 1.2-.8 2.6-1 3.1-.8 1.6-2.9 11.3-3.3 15.4-.2 2.3.2 2.9.5.8.3-2.3 1.9-10.7 2-10.6.1.1-.2 2.5-.6 5.5-1 8-1 8.1-.7 7.8.1-.1.4-1.9.7-4 .7-6 3.2-17.7 3.5-16.8.1.2-.3 2.5-.8 5.1-1.5 7.8-1.2 7.9.5.3 1.5-6.9 2.8-10.7 5.2-15.9.6-1.3 2.1-4.7 3.4-7.4 2.8-6.3 4.1-8.3 7.3-11.7 1.4-1.4 2.5-2.7 2.4-2.8-.1-.1-.7.4-1.4 1.1m21.5 1.2c.6 1.9 14.4 3.3 21.1 2 4.5-.8 5.4-1.2 2.3-1.1-13 .6-17.2.4-22.9-1.1-.5-.1-.6-.1-.5.2m24.3 3.6c-1.5.5-3.2 1.1-3.7 1.3-1 .3-3.6.5-9.5.5-2.5 0-3.1-.1-6-1-2.3-.7-3.3-.9-3.6-.7-.4.2-.4.3 0 .3.2 0 2.2.6 4.4 1.4l4 1.4h4.9c5.1 0 5.8-.1 8.3-1.4.8-.4 1.9-.8 2.4-.9.8-.2.8-.2.4-.4-.4-.1-.2-.3 1.1-.7 1.3-.4 1.4-.6.8-.6-.4-.1-2 .3-3.5.8M193 43.3c-4 4.2-5.8 7.4-10.1 17.7-3.7 8.9-5.5 14.3-6.2 18.9l-.2.9.4-.9c.6-1.5.3.9-1 8.6-.1.4 0 .7.1.7s.4-.8.5-1.9c.9-5.3 1.2-5.8.7-1-.3 3.2-.3 4.5.1 4.5.3 0 .5-1.4.5-3.2 0-1.5.8-6.9 1.3-8.4.4-1.1.3-.5-.1 3.5-.4 3.9-.5 7.8-.1 5.9.1-.6.5-2.8.8-4.8.6-4.3 1.4-7.3 3.7-13.6 2.1-6.1 2.2-6.7.3-3-.9 1.7-1.6 2.9-1.6 2.7 0-.6 1.4-4.5 2.3-6.3.5-1 .9-2 .9-2.2 0-.4 2.4-6.8 3.5-9 .5-1 .7-1.7.4-1.5-.6.6-3.2 5.6-4.2 8.1-1.3 3.1-1.2 2.1 0-1.3 1.8-4.9 5.6-11.4 8.4-14.5 1.7-1.9 1.4-1.9-.4.1m49.7.7c-.9.2-2.2.7-3 1.2-1 .5-1.8.8-2.6.8-1.4 0-2 .5-2 1.8 0 1.1.4 1.2 1 .3.5-.7.9-.7.7.1-.3 1.3.7.9 3.3-1.2 1.6-1.3 4.1-2.6 5.6-3l1-.2h-1.2c-.6-.2-1.9 0-2.8.2m-27.1.1c-.1.1.2.3.7.4.5.1 1 .3 1.3.5.2.2 1 .6 1.6.8.7.3 2.3 1.2 3.7 2.1 3.2 2.1 4.7 2.3 4.8.6.1-.9.1-1 .5-.6.5.5 2.2.3 2.4-.2.4-1.1-2.3-2-3.6-1.3-.8.5-.8.5-2.2-.1-3.5-1.5-8.9-2.8-9.2-2.2m26.6 2.9c-3.9 2.2-4.5 3.3-1.9 4 2.1.6 4.7-.7 6.3-3 .9-1.4.9-1.4-1.3-1.6-1.6-.1-1.9-.1-3.1.6m-28.2.3c-1.2.3.4 2.5 2.8 3.9 1.8 1.1 4.3 1.3 6.2.5l.8-.3-.5-.8c-1.8-2.3-6.6-4.1-9.3-3.3m-20.1 3.6c-.2.2-.5 1-.7 1.8-.3.8-.6 1.6-.7 1.8-.5.6-2.4 7.6-2.9 10.7-.9 4.8-.2 13.6 1.3 18.4l.5 1.5.2-3.7c.1-2.1.3-4.4.5-5.2.4-2.1 1.4-5.7 1.6-5.9.8-.7 3.2-9 2.9-9.9-.1-.4-1.7 3.6-2.2 5.9-.6 2.4-.8 2.1-.4-.8.5-3.4.4-4.2-.2-2.3-.3.9-.6 1.6-.7 1.7-.3.3.1-1.5 1.1-4.7s1.1-4.4.1-1.7c-.9 2.5-1.1 3-1.3 2.9-.1-.1.1-.8.3-1.6.5-1.8.5-2.1 0-1.4-.4.5-.4.5-.2-.2.5-2 .4-2.2-.2-.5-.4 1.1-.9 3.4-1.3 5.2-.4 2.2-.6 2.9-.7 2.3-.1-.8.7-5.5 1.3-8.1.2-.7.8-2.4 1.4-3.8.7-2.4.9-3.2.3-2.4m71.4-.4c0 .1.4 1.1.8 2.3 1 2.6 2.4 8.4 3.1 12.2.6 3.4 2.4 6.5 2.9 4.7.7-2.5-1-12.4-2.7-15.5-.6-1.1-.7-.7-.3.7.2.7.4 1.6.4 2v.7l-.3-.7c-2.6-5.8-3.1-6.8-2.8-5.2.2.8.1.7-.5-.3-.3-.5-.6-.9-.6-.9m-40.9 2.1c-2.9 3.4.2 7.2 3.9 4.8 1.2-.8 2.8-.7 2.9.2.1 1 3.7.8 3.7-.2 0-.5 1.7-.5 2.8-.1 3.1 1.2 4.8-.6 3.4-3.4-.8-1.7-1.7-1.9-1.7-.5 0 .6-.2 1-.4 1.1-.7.3-1.6.2-2-.2-.2-.2-.6-.4-.8-.4-.3 0-1-.2-1.5-.5-2.3-1.2-3.7-1-5.6.7-1.8 1.7-2.9 1.9-3.1.6-.1-.5-.3-1-.5-1-.2-.1-.2-.2 0-.7.3-.5.2-.9-.2-.9-.2-.2-.5.1-.9.5m41.6 9.1c.1.7.3 1.7.5 2.2l.3.9-.2-1.2c-.1-.6-.2-1.5-.2-1.9-.1-1.2-.1-1.4-.4-1.4-.1.1-.2.5 0 1.4m-54.6.5c-4 4.5-6 13.4-4.6 20.2.8 3.8 3.9 10.3 5.7 12.1l.8.7-.7-1.2c-.4-.6-.7-1.2-.6-1.3s.3.2.5.6c.4.7 2.4 2.7 2.7 2.7.2 0 .1-.2-1.3-2.3-1-1.6-.8-1.4.6.4 1.4 1.8 1 .6-.6-2-.9-1.4-1.6-2.7-1.6-2.9s.5.6 1.1 1.6c1.2 1.9 2.1 3.2 1.7 2.1-.1-.3-.2-.9-.2-1.4 0-.5-.4-2.4-.9-4.1-1.1-3.8-1.4-6.5-.8-8.9l.4-1.7v3.1c0 3 .4 5.8 1 6.1.1.1.2-1.4.2-3.5 0-7.8 3.4-14.8 8.9-18.4 1.2-.8.6-.8-.7-.1-.6.4-2 1.6-3.1 2.7s-1.9 1.9-1.9 1.8c0-.4 2.6-3.8 3.4-4.4.4-.3.6-.6.6-.8 0-.5-3.1 2.7-4.4 4.5-1.5 2.1-2.4 3.9-3.2 6.6-.8 2.8-.6.9.3-2.4.3-1.2.6-2.4.5-2.5-.1-.1.3-1.1.8-2.2.7-1.4.8-1.8.4-1.4-1.1 1.1-2.9 5.3-3.7 8.7l-.3 1.5.2-1.9c.2-2.3 1.2-6.2 2.1-8.2.4-.8.6-1.5.5-1.4-.4.2-2.1 3.4-2.3 4.2-.1.4-.2.7-.3.6-.1-.2.8-3.1 1.4-4.2.6-1.2.2-.9-.5.4-.8 1.4-1.9 4.2-2.4 6.1-.5 2.1-.4.5.1-2.1.3-1.3.8-3.1 1.2-4 .4-.9.6-1.7.6-1.8-.3-.3-1.6 2.2-2.2 4.1-.7 2.4-1 2.8-.8 1.2.1-.7.1-.9-.1-.6-.4.6-.4-.2.1-1.7.6-1.9.2-1.8-.4.1-.6 1.7-1.3 2.5-.9 1.2.3-1.4 1.7-4 3-5.8 1.5-1.6 1.3-2-.3-.1m13.7-.8c-.6.2-1.5.7-2 1.2-.8.7-.8.7 1.2-.3 2.8-1.5 3-1.7.8-.9m10.3 1.1c0 .1.2.5.5.8 1.8 2.3 2 2.8.6 1.3l-1.4-1.5.6 1.1c.7 1.3 5.6 6.1 8.9 8.7 1.3 1 2.7 2.4 3.1 3.1.4.7.8 1 .8.8 0-1.2 3 2.6 4.5 5.8 2.8 5.7 3.6 10.1 2.8 17-.2 1.8-.2 2.1.1 1.8.3-.3.4-1.6.3-6.3 0-5.2.3-6.6.4-1.9.1 4.1.5 2.8.4-1.6v-4.8s.3.9.5 1.9l.4 1.8-.1-2.1c-.1-2-.3-3.5-1.1-7.3-.4-2-.1-2 .4 0 .2.8.5 1.8.8 2.2 1.1 2 1.6 12 .7 16-.3 1.2-.4 2.4-.4 2.7.3 1.1 1.5-5.3 1.6-8v-1.6l.2 1.3c.2 1.4-.1 5.4-.5 7.4-.3 1.4-.3 1.5 0 1.5.1 0 .3-.3.3-.7 0-.4.3-1.9.7-3.3 2.2-8-2.5-26.1-8-31.1-1.3-1.2-1.4-1.1-.3.5.5.8 1.2 2.2 1.6 3.1.7 1.8.6 1.7-.9-.7-1-1.6-1.5-2-1.1-.8.6 1.7.1 1.4-1.3-.9-1.5-2.3-3.5-4.4-5.4-5.7-.7-.5-.7-.4.4.7 1.1 1.2 3 3.8 3.6 4.9.1.2-.3-.1-.8-.7-.9-1-3.6-3.1-4.6-3.7-.2-.1.6.8 1.9 2.2 3 3.1 3.5 3.9 1 1.6-2.6-2.4-6.9-5.5-7.8-5.5-.5 0 0 .6.9 1 2.3 1 7.1 5.1 9.4 8.1 2 2.6 1.8 2.7-.7 0-1.8-1.9-2.8-2.7-3.1-2.6-.2.1-.9-.2-1.5-.6-1.8-1.4-1.6-.8.5 1.1 1.1 1 2 2 1.9 2-.1.1-4.2-3.2-5.2-4.3-.4-.4-.8-.7-1-.7-.2 0-1.3-1-2.5-2.2-1.1-1-2.1-1.9-2.1-1.8m-20 .5c-.8.9-1.1 1.4-1 1.4.1 0 .5-.4.8-.9.8-1 .9-1.3.2-.5m15.1 1.5c-1.1 2.7-2.9 5.1-7.1 9.4-3.8 3.8-3.8 3.6-.1-.7 2.7-3.1 4.2-5.1 5.2-7.2 1.3-2.6 1-2.5-.8.2-.9 1.3-2.6 3.4-3.8 4.6l-2.3 2.2 1.6-2c3-3.7 5.8-8 5.2-8-.1 0-.5.4-.8.9-.3.5-1 1.4-1.5 2-.5.6-1.9 2.5-3.2 4.2-2.6 3.5-3 3.8-1.8 1.6l.8-1.5-1 1.1c-.6.6-1.3 1.4-1.6 1.9-.4.6-.3.2.4-1.2l1-2-.9.9c-2.9 2.8-4.4 9.9-3.6 17.7.3 3 .9 3.3 1 .4.1-2.2.7-5 1.8-7.1 1.2-2.4 1.3-2.5 1.5-1.1.1.6.4 2 .6 3.1.6 2.9.3 3-.4.1-.8-3.2-.9-3-.4 1.1.6 4.5.2 6.1-.4 2.1-.6-3.7-.9-3.7-.7 0 .1 2 .1 4.4-.1 6.4-.3 3.1-.3 3.3.2 3.9.6.7.9.5.9-.6 0-.5.1-.9.3-.9.2 0 .2.6.1 1.8-.2 1.7.2 2.2.5.6.1-.4.1.2.2 1.3 0 1.5.1 1.8.3 1.3.2-.5.2-.5.2.5-.1 3.4.4 2.7 1.3-2 .8-4.3 1-11.3.3-15.7l-.4-2.4v2.2c0 1.2 0 2.3-.1 2.3-.1.1-.3-1.1-.9-7.2-.1-1.1-.1-1.2 2.2-3.4 1.8-1.7 2.2-2.3 1.9-2.5-.3-.1-.2-.4.7-1.1 2-1.8 5.8-8.8 4.8-8.8-.3-.1-.7.7-1.1 1.6m34.9 1c0 1.1.3 2.4.5 2.9.3.7.4.8.3.3-.1-.4.2 0 .6.8.7 1.4 2.1 4 3.4 6.3.4.6.6 1.1.5 1.1-.2 0-2-2.6-2.6-3.7-.7-1.3-.9-1.4-.5-.2l.2.9-.5-.7c-.3-.4-1-1.7-1.5-3-1.1-2.5-1.5-2.7-.8-.4.6 2.2 3 6.6 5.8 11 1.4 2.2 2.9 4.8 3.3 5.9.5 1.2 1.2 2.4 2.1 3.3 1.8 1.9 2.1 1.7 1.8-1.3-.4-5.8-1.8-8.9-6.9-15.8-3.3-4.4-3.3-4.1.1 1.4 2.7 4.4 2.2 4.4-.7 0-2.9-4.3-2.8-4.2-4.3-7.9l-1.1-2.9.3 2m-66.5 2.3c-.5.9-1.4 2.8-2 4.4-.6 1.5-1.2 2.7-1.2 2.5 0-.6 1.1-4.1 1.7-5.6.4-.9.7-1.7.6-1.8-.2-.5-1.5 2-2.3 4.4-1.6 4.3-1.7 3.9-.4-1.2.4-1.6-.5.6-1.3 3.1-2.3 7.1-2.1 13.9.5 19.5.2.5.3.6.3.4-.3-1.1-1.2-6.7-1.2-7.6 0-2 .4-2 .6 0 .3 2.9.4 3.5.9 3.5.4 0 .4-.3.3-2.1-.2-2.2.3-4.5 1.4-6.8.5-1.1 1.8-7.6 1.6-7.8-.1-.1-.3.5-.6 1.2-.6 1.5-1 2.2-.8 1 .3-1.3 1.9-5.6 2.5-6.8.8-2 .4-2.1-.6-.3m24.2.1l-1.1 1.4 1-.9c.9-.9 1.7-1.9 1.4-1.9-.1 0-.7.7-1.3 1.4m7.7 0c-1 1.9-.8 2 5.1 2.7 1.4.2 2.8.3 3.1.4.9.1.8-.1-1.4-2l-2-1.8H234c-1 0-1.8-.1-1.9-.3-.3-.6-.6-.4-1.3 1M203 69.7c-1.2 2.5-1.4 2.4-.4-.3.7-1.9.4-1.8-.5.1-1.5 3.3-1.4 3.2-1.2 2 .1-.6.2-1.2.3-1.5.1-.3 0-.3-.3.1-3 3.7-2.9 14.2.2 23.7 1.5 4.6 1.5 4.1.1-1.4-.7-2.7-1.2-5.6-1.3-6.9l-.2-2.3.5 2.7c.6 3 1.5 6.6 2 8.1.2.5.7 2 1.1 3.3 1.2 3.9 1.1 2.4-.1-1.9-1.2-4.4-1.3-5-.6-3.2.7 1.6.7 1.2-.1-2.3-.9-3.9-1.2-6.9-.4-3.7 1.1 4.3 2.5 9.5 2.6 9.2 0-.1-.3-1.9-.9-3.9-1.9-7.2-1.9-14.8-.2-19.5.4-1.1-.1-.8-.8.5-.9 1.8-.5 0 .7-2.6a62 62 0 0 1 1.1-2.5c.1-.2 0-.3-.1-.3s-.8 1.1-1.5 2.6m-62.5-.7c-.1.2-.7 2-1.1 3.9-.7 2.7-1 3.8-1.5 4.2-.3.3-.6.6-.6.7 0 .4.7 4 1.5 7 .5 2.1 1.1 4.9 1.3 6.4.7 4.3 1 5.2 1.4 5.2.2 0 .4-.3.4-.6 0-.8-.5-6.4-.7-7.8-.1-.8.2-.2 1.2 2.1a57 57 0 0 0 3.2 6c3.7 5.6 3.8 6.1.4 2.1-2.1-2.3-2-2.4-2.1 1.8l-.1 3.6 1.3.7c3.2 1.6 6.7 3.9 4.4 2.9-.5-.2-1.8-.8-2.8-1.2-2.4-1-2.8-1.5-4.8-4.7-2.5-4.2-3.1-4.5-4.3-2-.9 2-3.2 3.6-6.7 4.7-.8.3-1.8.7-2.3 1-.9.5-1.3.5-2.9 0-.4-.2-1.1-.4-1.5-.4-.4-.1-.7-.3-.7-.5s-.4-1.7-.9-3.2c-.5-1.6-.9-2.9-.8-3 .4-.4 2.3 1.5 3 3 1.5 3.1 3 4.6 3.4 3.5a10 10 0 0 1 2.4-1.5c2.7-1.3 2.7-1.2 1.1-5.7-1.2-3.4-1.6-4.1-2.4-4.1-1 0-2.5-2-6.3-8.3-2.8-4.7-3.5-5.5-4.3-5-.7.3-.7 10.6 0 11.2.7.7 1-.3 1.1-4l.1-3.7.5 1.6c.4 1.3 2 8.4 2.5 11.2l.1.8-.6-.8c-.3-.4-1-1.3-1.4-1.9-1-1.3-1.7-1.4-2-.2-.3 1 .8 4.2 2.6 7.8 1 2 1 2.1.5 2.1-.7 0-4.3 6.5-5.1 9.1-.1.4-.3.8-.4 1-1.4 1.7-3.4 10-3.4 13.8 0 2.6-.8-.4-1.5-5.6-.6-4.5-.2-5.7 2.3-6.9 2.4-1.2 1.5-1.5-2.8-1.2-4.1.3-5 1.4-3.7 4.1 1.4 2.7 4.9 16.3 5.3 20.3.4 4.1 2.6 10.9 3.3 10.2.5-.5.5-2.8 0-4.9-.5-2.1-.5-12.7 0-15 1.2-6.4 2.6-11.1 3.7-12.7 5-7.5 7.2-8.5 11.2-5.4 1.1.9 1.9 1.7 1.8 1.8-.1.1-.2 3.4-.2 7.3 0 5.8-.1 7.2-.4 7.4-.2.2-.6.7-.9 1.2-.7 1.4-3.4 5.4-4.8 7.1-.7.8-1.1 1.6-1.1 1.7.1.2-.9.5-4 1.1-2.6.5-2.5.4-2.5 1.8 0 1.5.5 1.7 1.8 1 1.6-.9 5.7-1.7 7.4-1.5l1.4.2 1.7-3.2c2.7-5.2 3.8-6.7 5.7-8.8l1.8-1.9 3 1.4c4.3 2 4.1 2.1 8.6-1.6.9-.8 1.2-2.6 1.2-7.2 0-3.9 0-4-2.7-4.8-1.2-.4-2.7-1-3.5-1.3-2-1-5.9-.1-6.3 1.5-.3 1.6-.5 3-.8 6.7-.3 3.9-.3 4-1 4.4-1.2.8-1.3.4-1-8.6.1-3.9.2-4.3.7-4.6.3-.2 1.2-.7 2-1.2 3.4-2.1 3.7-2.1 10.3 1.2 3.5 1.7 3.8 1.9 3.7 2.5-.1.3-.3 2.9-.4 5.8-.1 2.8-.3 5.2-.3 5.2l-.8.4c-.4.2-.8.5-.8.8 0 .2-.4.6-.8.9-.4.3-1 .8-1.3 1.3-.3.5-.7 1.3-1.1 1.8-.6.9-.7 4.1-.2 6.3.1.3.2 1.4.2 2.5.1 2.6 1 6.1 1.6 6.5.7.5.3 2.7-.6 3.4-1.1.8-4 2.6-4.3 2.6-.6 0-.2-.6 1.9-2.5 2.5-2.3 2.6-2.6 1.4-5.1-.6-1.2-.8-2.3-1.1-4.7-.3-3-.7-5.9-1-6.7-.1-.2-.9-.9-1.9-1.4-1-.5-2.5-1.4-3.4-1.9-1.9-1.2-2.1-1.2-2.9-.1-.6.8-6.6 12.8-6.6 13.2 0 .1-.2.4-.5.7-.6.5-.6.6.7 3.9.9 2.3.7 2.5-.6.4-.9-1.5-1.4-1.6-3.2-.8-2.2 1-2.1.4 0-.9.8-.5.9-.7.9-1.8 0-2-.6-2.5-3-2.6-3.4-.2-5.3 1.4-3.4 2.8.9.7 2.8 3 2.6 3.1-.1.1-.5-.2-.9-.5-1.8-1.5-2.4-.6-1.1 1.6 1.8 3.2 4.4 5.3 7.4 6.1.9.3 1.7.5 1.7.6 0 .1.4.3.9.4.5.1 1.3.3 1.9.5l1.1.3-1.4.2c-2.5.3-2.5 1.6-.1 2 2 .3 2.3.7.6.7-4.2 0-7.4 1.9-8.1 4.7-.2.7-.6 1.9-.9 2.7-1.1 2.3-.1 5.1 1.2 3.5.5-.6 2.1-.5 3.1.1 1.8 1.1 1.6 4.2-.4 5.6-1 .7-1.1.5-.3-.4.7-.9.7-1.8-.1-3.3-1.1-2.2-3-1.5-4.6 1.7-.6 1.2-.7 1.7-.2 3 .1.3 0 .4-.4.4-.5-.1-.7.1-1.1 1.2-.3.7-.9 2.2-1.4 3.2l-1 1.9.5 2.1c.8 3.3.8 3.4 3.3 5 2.4 1.6 2.8 2.1 2.5 3.7-.2 1.1.6 1.9 2.5 2.5 2 .6 2 .6 2.9-1 1.6-2.7 4-3.7 4.3-1.7l.1.8.4-.8c.6-1.1.7-.1.2 1.7-.7 2.5.5 2.2 1.7-.5 1.7-3.8 4.9-4.4 3.8-.7-.8 2.6.1 2.4 1.7-.4 1.1-2 2.5-3.4 3.6-3.6 2-.4 2-.4 3.8-4 2-3.9 3.7-8.3 4.5-11.1l.5-1.9-1.7-2.2c-2-2.6-2.6-5.5-1.3-5.5.3 0 2.2 1.4 2.7 2 .6.7.8.5.7-.4-.3-1.4-3.8-4.2-6.8-5.2l-1.7-.6 1.8.1c2 .1 2.6-.5.8-.8-.5-.1-1.5-.3-2.2-.5l-1.2-.3h2.1c1.2 0 2.1-.1 2.1-.3 0-.4-.3-.5-4.2-.9-4.6-.5-4.9-.8-.8-.9 4.6 0 6.3-.3 10.9-1.6 4.8-1.4 4.6-1.3 5.4-3.3.9-2.4 3.5-4 6.4-4 1.1 0 1.5-.3 2.5-1.6.9-1.3.9-1.3-.7-1.4l-1.4-.1-.1-1.1c-.1-1.4.7-2.3 2.9-2.9 3.3-.9 3.6-1.1 3.7-1.5.2-.9-.2-1.8-.9-2.1-.6-.3-.7-.4-.7-2.5v-2.2l1.1-1.1 1.1-1.1-.2-3.4c-.2-3.7-.8-6.4-2-9.2-.9-2-1.3-2.2-1.5-.8-.1.6-.3 1.5-.4 2.2-.1.7-.3 1.7-.4 2.3-.4 2.6-5.3 6.1-7.4 5.5-.5-.1-1.2-.3-1.6-.4-.5-.1-.9-.5-1.4-1.4l-.6-1.3 1.6-1.8c2.2-2.5 2.4-2.4 2.2.6-.2 2.9 0 2.9 1.1.7.9-1.9 1-2.6.5-3.7-.4-.7.4-3.3 2.9-9.1.4-.9.6-1.6.6-1.7-.1-.1-4.4 3.7-7.1 6.4-4.4 4.3-1.7-.5 4.8-8.5.7-.9.9-1.6.2-.9-.2.2-2 .3-2 .1 0-.1.3-.5.7-.8 1.3-1.2.7-1.9-.9-1.1-1.4.7-1.8.7-1.1-.1.7-.7.6-.7-.9-1.1-.5-.1-1 0-1.4.3-.8.6-1.2.3-.5-.4.5-.5.5-.5-.5-.5-1.3 0-2.6 1.1-5.7 4.6l-1.3 1.5-.2-3c-.2-2.6-.4-4.7-1.5-13-.2-1.9-.5-2.4-.8-2.2-.1.1-.1 2.5-.1 5.4l.1 5.3-.6-.9c-.4-.5-1.6-2.1-2.7-3.5-1.4-1.8-2.1-2.9-2.2-3.6-.1-.5-.7-2.6-1.3-4.6-1.1-3.5-1.4-5.7-.8-6.6.4-.6 2.1.7 5.6 4.1 4.8 4.7 5.6 4.9 2.9.8-.8-1.3-1.9-3-2.5-3.8-.5-.8-1.1-1.7-1.4-2-.9-1.1-6.4-10.4-6.7-11.4-.8-2.1-1.2-2.3-1.7-1.7m92 2.9c-3.2.3-5.2.8-5.7 1.3-.6.6-.7 1.8-.1 2.2.4.3.5 1.1.7 5.1.1 2.6.4 5.3.5 5.9.4 1.7.3 1.7-.3 0-.5-1.4-.8-2.9-1.6-6.6-.2-1.1-.5-1.6-.5-.8 0 2.6 1.9 10.8 3.5 14.6 1.5 3.9 4 8.3 4 7.2 0-.1.2 0 .5.2.2.2.4.2.3.1-.5-.8-1.6-3.4-1.5-3.5.1-.1.4.4.7 1 1.1 2 3 4.8 3.1 4.7.1-.1-.2-.8-.5-1.6-.7-1.7-1.6-4.4-1.4-4.6.1-.1.6 1 1.1 2.4 1 2.6 1.4 3.1 1 1.3-.1-.6-.3-1.7-.4-2.5-.2-1.8.2-1.5.6.5.8 3.5 1.1 3.3.9-.4-.2-3.6.2-8.6.9-12 .5-2.7 1-8 .8-8.6-.3-1-.6-.2-.8 2.1-.1 1.3-.4 3.2-.7 4.2-.5 1.8-.5 1.8-.4.5.4-4.8.5-6.9.1-6.7-.3.1-.5.9-.7 2.8-.2 1.5-.6 4.3-1.1 6.2l-.8 3.6-.1-1.7c0-.9 0-2.5.2-3.5s.4-2.7.6-3.8c.2-1.1.2-2.6.2-3.3-.1-1 0-1.4.2-1.3.2 0 .4-.3.4-.7.1-.9.7-.8.8.2.1.9.5.9.7 0 .3-1.4.6-1.9.5-.6-.1 1-.1 1.2.3 1 .2-.1.9-.2 1.4-.3 1.1-.2 1-.5 1.1 3.5v2.7l-.4-1.4c-.4-1.4-1.3-2.1-1-.8.6 2.4 1.5 9.6 1.3 10.5-.1.6-.3.8-.3.5 0-.3-.1-.4-.3-.3-.7.8-.5 11.1.2 10.7.2-.1.3.1.3.7 0 .8.1.8.8-.7.9-1.8 1-1.7.4.5-.7 2.8-.7 2.7-.1 2 .3-.4.6-.9.7-1.1.2-.5.7-.7.7-.2 0 .2-1.2 4.2-1.5 4.9-.1.3-.1.5.1.5.3 0 1.4-2.3 2.1-4 .4-1.1 1.7-3.2 1.7-2.6 0 .2-.2 1.1-.5 2.1-.8 2.6-.5 2.2.9-1 3.1-7 3.9-10.4 3.9-16.8 0-6.7-1.4-9.3-1.6-3.1-.2 5.1-.4 5.7-.5 1.5-.1-3.5-.4-5.7-.5-3.1-.1 1.8-.5 1.1-.5-.8 0-2.2-1-4.8-2.2-6-3.4-3-5.5-3.5-12.2-2.8m-23.8 6.2c-.1.9-.1.2-.1-1.5 0-1.8 0-2.5.1-1.7v3.2m34.4-2.9c-.1.7.3.9.8.4.3-.3.7.7 1.4 4.5.6 3 .7 4.7.2 2.8-.5-1.9-.6-1.6-.8 2.1-.1 1.9-.3 4.3-.4 5.1l-.2 1.6-.2-1.9c-.1-1-.2-3.5-.2-5.4 0-2.3-.2-4.5-.6-6.4-.5-2.6-.5-3.6-.1-3.6.1.1.1.4.1.8m-13.8 2c0 1 .1 3.3.1 5.1l.1 3.3-.4-2c-.4-2.4-.5-8.3-.1-8.3.2 0 .3.8.3 1.9m4.3-.3c.1 0 .2.6.2 1.3 0 .8-.1 1-.2.5-.3-1.7-.6-.5-.9 3.2-.4 5.3-.5 5.7-.4 1.5.2-5.5.4-7.9.7-7.1.2.4.4.6.6.6m-2.4 2.9c-.1 1.6-.3 3.1-.4 3.2-.3.3-.2-5.3.2-5.8.4-.8.4-.6.2 2.6m-10 .5c-.1.4-.1.1-.1-.6s0-1.1.1-.7c.1.3.1.9 0 1.3m-60.6 2.9c-.4.4-3.6 5.1-4.1 6.2-.5 1 .1.9 1.1-.1 1.1-1.2 2.5-2.1 3-1.9.2.1.5 0 .7-.1.2-.2.7.3 1.6 1.4 3.4 4.3 4.1 4.6 2.6 1.5-.9-2-1-2.2-.4-1.7.4.3.4.3.2-.2-.2-.6.2-.8.5-.3.1.1.4.3.7.3.4 0 1.1.6 2.1 1.6 1.8 1.9 2.1 1.5.5-.7-2.5-3.3-5.5-6.1-6.4-5.9-.5.1-.9.1-1-.1 0-.5-.6-.5-1.1 0m14.8 1.3c-.2 1-.3 2-.3 2.1.2.3.9-3.3.8-3.7-.1-.1-.3.6-.5 1.6m21.3-.2c-1 2.6-1 11.4 0 14.1.3.9.6 1.8.6 2.1 0 .7 1 3 1.3 3 .1 0 0-.5-.3-1.1-.5-1.1-1.4-8.3-1.3-10.6 0-1.2.1-.9.5 1.6.4 2.3 1.3 5.9 1.6 6.2.1.1 0-.7-.3-1.9-.5-2.1-1-5.7-.7-5.4.1.1.4 1.4.7 3 .6 2.9.9 3.7 1.2 3.4.2-.2-.5-5-1.4-8.6-.3-1.5-.8-3.5-.9-4.6-.2-2-.5-2.4-1-1.2m42.8 1.4c-.1.2 0 1.1.2 2.2.3 1.8.4 1.9.6 1.1.4-1.4-.2-4.1-.8-3.3m6.2 1.8c-.1.4-.1.1-.1-.7 0-.8 0-1.1.1-.7.1.4.1 1 0 1.4m25-1c0 .7.1.9.1.6.1-.3.1-.9 0-1.2-.1-.3-.1 0-.1.6m-2.2.2c0 .6.1.8.1.5.1-.3.1-.8 0-1.1 0-.3-.1 0-.1.6m.9.2c-.1.5-.3 2.1-.4 3.5-.1 1.9-.2 2.4-.4 1.9-.1-.6-.2-.1-.2 1.3l-.1 2.1-.4-2.1c-.2-1.2-.4-3.3-.4-4.8 0-1.9-.1-2.5-.3-2-.4.9 0 9.9.4 12 .5 2.1 1.5 4.9 1.7 4.7.1-.1.3.1.5.3.3.4.4.4.2-.4-.5-2.9-.5-2.9.5-.1.5 1.3.7-.4.2-2.4-.4-1.7-.5-3.5-.5-7.4 0-2.9-.1-4.7-.2-4-.1.7-.2 2.4-.2 3.9 0 1.9-.1 2.7-.3 2.7-.2 0-.3-1.4-.2-5.1.4-5.2.4-5.6.1-4.1m54.2 2.1c-.8.9-2.1 2.5-2.9 3.5-.9 1-2.2 2.6-2.9 3.6-.8 1-2.9 3.4-4.8 5.4-4.2 4.6-5.2 6-3.9 6 .2 0 1.2-1 2.3-2.2 1.1-1.2 2.9-3.1 4.2-4.2 1.2-1.1 3.8-3.7 5.6-5.8 1.9-2.1 3.4-3.7 3.5-3.5.1.4-.5 6.2-.8 7.4-.3 1.2-10.9 11.7-15.9 15.9-5.4 4.4-8.7 8.6-7.5 9.4.2.1 1-.5 1.8-1.3 1.6-1.6 3.5-2.7 6.2-3.6 1-.3 2.3-.9 3-1.3l1.3-.7-.2 1c-.6 3.6-.5 6.7.1 7.7.8 1.2.5 1.7-.6 1l-.8-.5-1 1.2c-1.9 2.1-1.8 2.8.6 3.1l1.5.2.6-1.2c.3-.6 1.1-1.8 1.7-2.5 1.5-1.8 1.4-1.6 2.7-6.7 1.2-4.7 2-6.8 2.8-7.7 1.4-1.5 6.4-12.1 6.6-14 .1-1.3-.6-8.7-1.2-11.4-.1-.8-.5-.6-2 1.2m-93.3.9c0 .4 0 .4-.2-.1-.1-.4-.2-1-.2-1.3 0-.6 0-.6.2.1.1.4.2 1 .2 1.3m17.3-.2c-.1.3-.1 0-.1-.5s.1-.7.1-.5c.1.3.1.7 0 1m20.7.2c0 .7.1 1 .1.6.1-.4.1-1 0-1.3-.1-.4-.1-.1-.1.7m-24.8.8c-.3 2.1-1.2 5.9-1.5 6.1-.2.2-.2-.7.3-2.7.1-.6.3-1.4.4-1.9.1-.8.8-2.8.9-2.8.1.1 0 .6-.1 1.3m5 .6c-.2.3-.3.2-.3-.6 0-.9 0-1 .3-.4.1.3.1.7 0 1m-57.3-.7c-1.2 1.5-1.4 9.2-.4 11.9.9 2.3 1.4 2.9.8.8-.3-1-.6-2.8-.6-4.4l-.1-2.7.5 2.7c.5 2.9.6 3.3 1.4 5.4 1 2.7 1.3 1.4.3-1.5-.9-2.5-1.1-3.9-.7-3.4.1.1.4.9.6 1.7.5 1.9 1.3 3.7 1.8 3.7.4 0 .4-.1-.1-1.1-.5-1.1-1.4-4.2-1.4-4.9 0-.3.2.1.5.9.6 1.8 1.9 4.6 2 4.5.1-.1-.2-.8-.5-1.7-.4-.9-.8-2.7-.9-4.3-.3-2.5-1-5.5-1.6-6.6-.1-.3-.3-.7-.3-1 0-.4-.9-.5-1.3 0m55.9 2c-.2.4-.3.3-.2-.4.1-.5.2-1.1.2-1.3 0-.2.1 0 .2.4s0 1-.2 1.3m11.1.1c0 1.1 0 1.6.1 1 .1-.6.1-1.4 0-2-.1-.6-.1-.1-.1 1m15.1.7c0 .1.4.8 1 1.5 1.1 1.5 2.5 4.4 2.5 5 0 .2-.3-.2-.7-.9-.9-1.6-1.6-2.7-1.6-2.4 0 .1.3.8.7 1.5 1.8 3.3 4.9 13.2 4.9 15.4 0 .4 2.8 2 3 1.7.3-.5.3-6.5 0-8.4-.4-2.2-2.8-8.3-3.7-9.5-.4-.4-.2 0 .4 1.4 1.4 3 1 3.1-.6.1-2.2-4.1-3.1-5.1-1.8-2.3.8 1.7.8 1.9.4 1.6-.2-.1-.3 0-.1.3.5 1.2.4 1.2-.4-.2-2.4-3.5-4-5.7-4-4.8m2.2 1.9c.4.8.9 1.6 1.2 1.7.5.4-.9-2.1-1.5-2.7-.2-.3-.1.2.3 1m-65.4 1.3c0 4.2 1.8 8.5 5.4 12.8 1.2 1.5 2.6 3.4 3.1 4.2 1 1.7 1.3 2 .7.5-.7-1.6-.7-1.7-.5-1.7.1 0 .3.4.6.8.6 1.1.8.8.3-.4-.6-1.4-.5-1.5.1-.3.7 1.3.9 1.1.4-.4-.2-.6-.4-1.2-.4-1.3 0-.2 1 1.1 1.2 1.5.2.4 0-1.9-.3-2.8-.1-.4-.1-.5.1-.1.2.2.4 1 .6 1.8.5 2.3.7 1.9.6-1.4-.1-3.9-.4-5.2-2-7.5-1.2-1.9-4.2-4.7-4.9-4.7-.2 0-.1.2.2.3 1.3.8 2.3 1.9 3.4 4 1.5 2.6 1.6 3.2.3 1.4-1.6-2.3-1.8-2.6-1.9-2.4-.1.1.2.8.7 1.7 1 2.1 2 4.8 1.9 5.2-.1.2-.4-.2-.7-.8-.3-.6-1-1.7-1.5-2.4-1-1.5-2.3-4.1-2.8-5.9-.4-1.3-.8-1.7-.8-.7 0 .6.3 1.9.6 3.1.2.5.1.6-.1.4-.2-.2-.7-1.5-1.2-3.1-.8-2.5-.9-2.7-.9-1.7 0 1-.1 1-.3.4-.2-.6-.2-.5-.1.2.1.5.1 1 .1 1.1s.1.2.2.1.3.1.4.5c.1.4 0 .6-.1.5-.1-.1-.2 0-.2.2s-.1.1-.3-.2c-.2-.3-.5-.7-.7-.8-.2-.2-.4-1.1-.5-2.2-.3-2.2-.7-2.3-.7.1m11.9 3.2c-.1.3-.1 0-.1-.5s.1-.7.1-.5c.1.3.1.7 0 1m51.5-.9c0 .1-.1 2.4-.1 4.9 0 2.6-.1 5.2-.3 5.9l-.2 1.2 1.6.5c.9.2 1.7.5 1.9.5.4 0 .7-4 .4-5.7l-.2-1.4-.3 1.3-.3 1.3-.4-2.8-.4-2.8-.1 1.5c-.2 2.3-.4 2.1-.8-1-.2-2.4-.7-4.2-.8-3.4m-49.6 1c0 .2.1.8.3 1.4.3 1.3-.1 8.6-.7 11.5-1.1 5.4-1.2 6.1-.6 6.1 2.3 0 3.8-12.2 2.2-17.9-.3-1.3-1.2-2-1.2-1.1m-20.6.5c.3 1.2.6 1.8.9 2 .4.3.3-.1-.4-1.5-.4-.6-.6-.9-.5-.5m58.1.4c-.1.2.1 1.2.4 2.2.3 1 .7 3.1.9 4.7.4 3.2 1.7 6.6 1.9 4.9.1-.6.2-.7.3-.4 1.3 2.1-.9-7.2-2.5-10.2-.7-1.7-.8-1.8-1-1.2m-30.8 1.4c.1.3 1.1 1.5 2.2 2.9l1.9 2.4-1.8-1.9c-1-1-2.2-2.3-2.6-2.8l-.7-.9.4.8c.2.5 1.3 2 2.4 3.3 1.1 1.4 2.4 3 2.9 3.5l.9 1.1-1.1-.8-1.1-.8.8 1.1.8 1.1-.8-.7c-.4-.4-1.8-1.7-3.1-3s-2.3-2.3-2.3-2.1c0 .5 1.2 2.1 3 3.9 2.5 2.5 4.7 5 5.1 5.6.5.9-1.5-.9-3.4-3-.9-1.1-1.7-1.9-1.7-1.8 0 .4 2.6 3.6 5.1 6.4 1.5 1.6 2.5 2.8 2.2 2.6-.6-.3-3.4-3.2-4.1-4.1-.6-1-3.8-4.4-3.8-4.1 0 .3 4.3 5.9 5.5 7.3 1.8 2 4.5 3.5 6.2 3.6 1.2 0 .8-3.7-.8-7.7-1.1-2.7-2.7-5.7-2.3-4.3.2.8 0 .6-1.5-1.4-1.6-2.1-1.6-1.8-.2 1.1 1.5 3 1.5 3.1.1 1.4-.6-.8-1.3-1.4-1.5-1.4-.2 0-1-.8-1.8-1.8-.7-1-1.6-1.9-1.9-2.2-.3-.2-1.1-1.2-1.8-2.1-1.3-1.7-1.7-2.1-1.2-1.2m28.9 2.3c0 .7.1 1 .1.6.1-.4.1-1 0-1.3-.1-.3-.1 0-.1.7m-58.5.5c-3.7.4-8.2 2.7-11.5 5.8-2.1 2-2.1 3.1-.2 4.9 1 .9 2.3 5.1 2.7 8.5.1 1.2.9.8 1-.5.1-1.5-.7-6.9-1.1-7.8-1.2-2.3 7.6-6.1 14.1-6.1 1.7 0 2.2-.1 2.2-.4 0-.9-6.5-1.3-9.6-.5-2 .5-3.2.6-2.1.1.9-.3.4-.7-.6-.5-1.5.3-1.3-.1.6-.9 2.9-1.3 5.3-1.9 8.2-1.9 2 0 2.6-.1 2.6-.4.1-.7-1.9-.8-6.3-.3m51.9 1.4c.4 5.1.5 6.5.5 9.8-.1 6-.6 6.3-.6.4 0-5.3-.4-9-.5-5.3 0 1.5-.1 1.7-.3 1.1-.1-.5-.2.2-.2 2.2 0 1.6-.1 4.1-.2 5.5-.3 3.8-.5 1.9-.6-4.2 0-2.8-.2-6.1-.4-7.2l-.3-2.1-.2 5.9c-.3 8.7-.9 10.1-1.2 2.7-.3-7.8-.7-7.6-1.1.8-.1 1.8-.2 3.6-.3 4.1l-.2.9-.2-1.2c-.2-1.2-.2-1.2-.2.5-.1 2.2-.5 1.2-.5-1.5 0-1-.1-2.5-.2-3.3l-.2-1.5-.2 1.6c-.6 4.2.2 10.7 1.5 12.5.5.6 1.2 1.8 1.7 2.5 1 1.5 1.1 1.6 1.9.9 2.9-2.9 4.4-19.5 2.3-25.6l-.4-1.2.1 1.7m46.1 4.8c-5.8 2.9-6.3 3.2-6 3.8.2.6.6.5 2.7-.5 1-.5 3.5-1.5 5.6-2.2 4.8-1.6 5.9-2.4 4.8-3.5-.7-.7-1.8-.3-7.1 2.4m-85.6-1.3c-.3.9 1.6 7.6 2.5 8.8.3.3 1.2 1.6 2.2 2.8 1 1.2 2 2.8 2.4 3.4.4.7.9 1.2 1.1 1.3 1.5.3-.8-6.3-3-8.7-.5-.5-1.1-1.4-1.4-1.9-.9-1.6-1.5-1.6-1.1 0 .2.7.2.8-.1.6-.4-.3-1.4-3.1-1.6-4.7-.3-2.1-.7-2.6-1-1.6m45.8.6c.2 1.4 1.2 3.3 3 6 .8 1.2 1.4 2.1 1.4 2.2-.1.1-2.7-3-3.7-4.5-.5-.7-.8-1.2-.8-1 0 .5.4 1.2 2.2 3.9.9 1.3 1.9 3.1 2.2 4 .6 1.7 1.1 2.1 1.2 1.2.1-.5.2-.4.5.6l.4 1.2.2-1.1.2-1.1.3.8c.3.7.3.6.2-1-.1-1.7-.3-2.3-2.6-6.9-2.5-5.1-3-5.8-2.3-3.1.7 2.5.3 2.6-.5 0l-.3-1.1v1c0 .6.3 1.6.8 2.5l.8 1.6-.8-.9c-.8-1-1.9-3.4-1.9-4.5 0-.3-.1-.7-.3-.8-.3-.1-.3.2-.2 1m-132.8.8c-4 2.8-8.3 12-9.5 20.3-.1.7-.3 1.6-.5 2.1-.4 1.2.2 1.7 2.7 2.5l2 .6 1.2-.6c.7-.3 1.4-.6 1.7-.6.2 0 .4-.2.4-.4s.8-1.4 1.7-2.7 2.2-3.2 2.8-4.2c.6-1 1.3-1.9 1.4-2 .3-.1.3-2.5.1-9.5-.2-5.6-.3-6-1.4-5.3-.4.2-.6.2-.9-.2-.6-.6-.9-.6-1.7 0m142.9 1.5c-1.5.7-1.1 1.1 1.2 1.1 1.5 0 2.4.2 3.3.6l1.2.6h-.9c-.8 0-.8.1.9.6 2.3.8 3 1.4 1.3 1.1-2.9-.4-4.3-.5-4.3-.2 0 .2.7.4 1.5.5 3.1.4 8.2 4.2 9.7 7.4.8 1.6.9 2 .6 1.7-.6-.4-1.1.6-1.4 2.7-.4 3.1-.1 3.3 1 .7.5-1.1.8-1.6 1.2-1.7 1.1-.3 2.1-4.5 1.4-6-1-2.1-5-6-7.1-7-4.7-2.2-7.8-2.9-9.6-2.1m-74.1.3c-.5.3-1.1 2.5-1.1 4.5 0 1-.2 2.5-.3 3.2-.8 4-.2 9.4.8 6.4.3-1.1 2.1-8.5 2.3-9.9l.2-1 1.4 1.9c.8 1 2.2 2.8 3.1 3.9 2.7 3.3 2.6 3 1.2 3.2-1.1.2-1.3.1-1.6-.3-2.9-3.9-3.3-4.1-3.9-1.9-.9 2.9-.6 3.8 1 3.1 1.1-.5 2.8-.9 2.8-.7 0 .1-.5.2-1.1.4-1.7.4-3.7 1.4-3.7 1.8 0 .2-.6.7-1.4 1.1-.8.4-1.8 1.2-2.3 1.6l-.9.8.3 2.5c.4 3.6.6 4.4 1.3 4.5.5.1.6-.1.7-1 .3-1.5.9-2 .9-.8 0 .5.1 1.6.3 2.4l.3 1.4.2-1.3c.1-.7 0-1.9-.2-2.6l-.3-1.2 1.3-1c1.7-1.3 5.3-2.8 6.9-2.8.7 0 1.8-.2 2.5-.4s2.1-.5 3-.5c2.1-.2 2.4-.4 1.8-1.3-1.1-1.7-11.3.1-15.1 2.7-1.2.8-1.6.9-1.1.2.3-.4 3.6-2.7 5-3.4l1.2-.7c-.3 0-2.7.8-3.2 1.1-1.4.8-.6-.1.9-.9 2.1-1.1 4.8-1.8 7.8-1.8 1.2 0 2.3-.1 2.3-.2 0-.3-1.2-.8-1.9-.9-.4 0-.9-.6-2-2.2-5.3-8.1-7.9-10.8-9.4-9.9m31 5.5c.2 2-.5 5.2-2.6 10.5-1.1 2.9-1.2 3.7-.4 3.6.7-.1.6 0 2.3-3.8 1.9-4.2 2.4-7.5 1.5-10.4-.5-1.8-1-1.7-.8.1m33.5.9c0 .6.2 2.2.4 3.5.2 1.4.3 2.6.3 2.6-.2.2-.7-1.3-.8-2.8-.1-1.3-.2-1.4-.4-.9-.2.6.2 3.3 1.4 9.3.3 1.6 1.9 5.7 2.7 6.8.6.8 1.2 1 .9.3-.5-1.1-.4-1.4.2-.5 1 1.9 1.2 1.7.6-.7-1.6-6.6-2-8.4-2.4-10.8-.2-1.5-.4-3.8-.5-5.2v-2.5l-.2 1.9c-.2 1.7-.1 3.8.2 6.4.1.8.1 1-.1.6-.4-.6-.8-4.9-.6-6 .1-.4.1-.7 0-.6-.1.1-.3.9-.4 1.7l-.2 1.6-.2-2.7c-.4-2.6-.9-4.1-.9-2m-28-.2c0 .3.3.5.6.6.4.1.4 0 .1-.5-.4-.7-.8-.8-.7-.1m-18.4.7c-1.2 3.1.2 8.3 3.3 12.4.8 1.1 1.9 2.7 2.3 3.5.8 1.5 1.1 1.7 1.8 1.3.7-.5-.7-4.2-3.3-8.7-1.2-2.1-1.5-2.8-1.7-4.2-.2-1.8-.3-2.2-.8-1.8-.8.5-.1 3.4 1.5 6.4 1.6 3 1.4 3.3-.2.5-1.4-2.4-2.1-4.9-2-7.6 0-2.4-.4-3.2-.9-1.8m-136.7 0c-2.4 1.1-2.2 5.8.3 7.3.5.3 1 .8 1 1 0 .2.4.6.9.8 2.8 1.4 3.8 3.7 2.3 5-.5.4-1.6 1.3-2.5 2-6.2 4.9-6.5 12-.9 18.3 7.8 8.7 8.4 11.9 3.7 19.9-3.3 5.6-4.3 11.7-3 17.9.2 1 .5 2.6.6 3.6.1 1 .4 2.8.7 4 .6 2.5.6 13 0 14.4l-.3.7-.2-.9c-.1-.5-.2-3.9-.1-7.6.1-6.4.1-6.8-.5-8.2-.3-.8-.9-2.8-1.3-4.5-.4-1.7-.8-2.9-.9-2.7-.2.4-2.5-3.5-3.1-5.1-1-3 .1-8.8 2.4-12.7 1.9-3.2 2.2-6 1.1-9-.6-1.5-.8-1.8-3.2-5-4.4-5.6-5.7-11.1-3.7-15.7 1-2.3 1.1-2.8.5-2.8-1.2 0-3.2 5-3.2 8.1 0 5.3.1 6.7.6 8.4.7 2.4.5 7.2-.4 7.2-.2 0-.6.8-.9 1.7-.3.9-.9 2.5-1.2 3.4-2.1 5.8-1.2 11.8 2.5 17.3.5.8 1.1 1.9 1.3 2.4l.3.9-.7-.9c-.4-.5-.9-1.1-1.1-1.3-2-2-3.2-3.8-3.9-6-.4-1.3-.9-2.3-1-2.3-.3 0-.5-1.7-.4-4.9 0-1.2-.1-1.5-.4-1.5-1.1 0-1.6 4.2-.7 7 .5 1.7 4.6 10 5.5 11.1.3.4.8 1 1 1.4.2.4 1.2 1.7 2.2 2.9 2.3 3.1 3.1 5.3 3 8.5l-.1 2.3-.6-2c-1.1-3.6-3.9-8.5-4.5-7.9-.1.1.1.9.5 1.7 1.4 2.9 1.7 3.7 2 6.4.5 4.3-.2 8.9-1.9 11.4-.5.8-1 1.9-1.1 2.5l-.2 1.1.6-.5c.3-.3.9-1.1 1.4-1.9 1.1-1.9 1-.8-.2 1.5-1.1 2.2-1 3.7.3 4.6.6.4.7.4 1-.7l.3-1.1.1.9c.3 3.8-2.6 5.2-4.1 1.9-1.1-2.3-1-5.4.2-8.7.9-2.4 1.2-5.4.7-5.6-.1-.1-.5.7-.7 1.8-.2 1-.9 2.6-1.4 3.5s-1.2 2.1-1.4 2.7c-.4 1.1-.4 1-.2-1.2.1-2 .3-2.6 1.1-4.1 1.7-3.2 1.8-7.2.4-8.9-.8-1-1.2-.3-.8 1.2.6 2.2-.5 5.9-2.7 9.3-2.4 3.8-2.4 6.9.3 10.7.6.9.8 1.5.8 2.3v1.1l-.8-.9c-1-1.2-2.1-2.1-3.4-2.8-4-2.1-4.1-6.8-.3-11.2 1.2-1.4 2.8-6.4 2.8-8.9 0-3.5-.7-5.3-2.9-7.9-2.1-2.4-2.6-1.7-.6 1 2.1 2.9 2.6 6.2 1.4 9.3-.6 1.7-1 2.3-1 1.5 0-1.1-1.4-3.3-3.4-5.1-4.4-4.2-5-8.6-1.6-12.7 2.5-3.1 4-10 2.1-10-.4 0-.4-.1-.5 2-.1 2.2-.9 4.2-2.5 6.1-3.8 4.7-4.8 9.1-3.1 13.8.1.3-.1.1-.6-.5-1.6-2.2-.1-11.9 2-13.3.2-.1.4-.7.6-1.2.3-1.2.3-1.4 0-1.4-.4 0-1.7 2.1-1.5 2.5.1.2 0 .5-.2.7-.9 1.1-2.3 4.4-2.7 6.3-.8 4.4-.4 6.2 2.4 9.9 2.5 3.2 3.1 5.8 2 8.1-.7 1.4-.7 1.5-.7-.8 0-2.7-1.1-5.7-2.6-7.1-1.1-1-1.1-.5-.2 1.8 1 2.5 1 3.3.4 8.3-.7 5.6-.1 8 3 12.6 1.5 2.3 2.6 4.9 3.1 7.8.4 2.4.3 2.3-1.1-.2-.6-1.2-1.8-3-2.6-3.9-3.8-4.5-5.6-8-5.6-11 0-1.6-.7-1.9-.9-.3-.3 2.6 1.1 6.1 4.2 10.8 4.2 6.3 5.1 8.7 6.1 17 1 8.2 3.7 13.1 9.4 17.1 2.4 1.6 5.5.9 3.9-.8-.4-.5-.4-.5.3-.2 2.1.8 3.1.2 1.6-.9-3-2.1-4.6-5.3-4.8-9.4-.1-2.8 0-2.6.7.7.3 1.7 1.8 3.9 3.4 5.1 1.1.8 1.9 1 1 .3-2.5-2.1-3.8-7.7-2.7-11.4.5-1.8.9-1.5.8.6-.2 3.2.8 7.2 2 7.6.3.1.3 0 .2-.6-.1-.4-.2-1.8-.3-3l-.1-2.3.4 1.7c.8 3.6 3.3 6.4 5.6 6.4.7 0 .4-.7-.5-1-2.1-.8-3.3-3.3-3.5-7.5l-.1-2.5.4 1.8c.6 2.6 2.2 5.5 2.8 4.9.2-.2.1-.6-.2-1.5-.3-.7-.6-2-.7-3l-.1-1.9.3 1.5c.6 3.3 3 6.7 4.8 6.7.7 0 .6 0-.7-1.4-1.7-1.7-3.1-6.9-2-7.6.1-.1.3.1.3.4 0 1.9 3.7 5.9 5.5 5.9.4 0 .1-.6-.5-.8-1.4-.6-3.3-5.8-2.5-6.8.2-.2.3-1.1.3-2 0-2.1.2-2.4 1.6-3 .6-.3 2.6-1.4 4.4-2.4 1.8-1.1 3.3-1.9 3.4-1.9.1 0 1.1-.6 2.3-1.2 5.5-3.2 8.9-2.6 12.5 2.3 1.6 2.2.8 4.7-2.9 8.8l-1.1 1.2.9-1.9c2.9-5.9 2.8-6.8-.6-10.1-2.4-2.3-7.8-.8-12.4 3.5-2.5 2.3-1.5 2.6 1.7.5 5.6-3.7 8.2-4.1 10.2-1.5 1.4 1.8.8 4.9-1.8 9.1-.7 1.1-1 2-1 2.3.2.5-1.5 1.1-2.9 1.1-1.5 0-6-3.3-6.9-5.1-.5-.9-.9-1-.9-.1 0 2.5 6 7.9 8.8 7.9.9 0 .6.6-1.3 2.4-2.3 2.3-5.3 3.1-6.9 2-.9-.6-1.2-.5-1.1.4.1.6.3 1 .9 1.3.4.2 1.6.9 2.6 1.6 2.3 1.5 4.2 1.4 5.9-.3.2-.2.6-.5.9-.7.6-.3 3-3.4 5.2-6.9.8-1.3 2.2-3.3 3-4.4 6.3-8.9-.2-21.2-9.2-17.4l-3 1.1c-2.6.7-11.9 5.1-13.2 6.2-.8.7-1.4 2-1.4 3.1 0 2.4-.3 2.2-2-1.4-1.9-4-3.4-5.8-5.8-7-1.2-.6-2.1-1.6-1.4-1.6.3 0 2.7 1.2 3 1.6.5.5.9 0 .6-.8-.2-.6-1.7-2.1-2.6-2.6-.9-.5 0-1.1 1.2-.8 1.2.3 2.4.1 2.4-.5 0-.5 2.4-5.4 2.7-5.6.5-.3-.5 4.4-1.3 6.3-.5 1-.5 1.2-.1 1.5.6.6 1.5-.5 3-3.3l1.2-2.4-.2 1.5c-.1.8-.6 2.4-1.1 3.5-1.5 3.3-1.5 3.5 0 4.9l1.3 1.2 1.6-.9c2.4-1.3 2.7-1.8 2.7-4.8 0-2.8.1-3 .9-1.5s1.9 2.2 3.4 2.1c1.4-.1 1.3 0 1.8-2.5.2-.8.2-.8.6-.3 2.8 3.4 6.4 1.6 8.5-4.2.7-1.8 1-1.3.8 1.1-.3 3.6 1 5.2 2.7 3.2 1-1.1 1.1-1 1.1.5 0 1.3.1 1.4 1.4 2.7 1.6 1.5 1.8 1.6 1.8.7 0-.3.3-1.1.7-1.7.4-.6.9-1.7 1.3-2.4.8-1.7 1-1.3.6 1-.4 1.7-.3 2 .3 4.8.8 3.4.8 5.3.3 6.9-.2.6-.5 1.8-.6 2.6-.1.8-.5 2.6-1 4.1-1 3.3-1 3.3 1.4.5 2-2.3 2.9-3.9 3.5-6.2.4-1.4 1.1-.9 1.1.7 0 2.4 1.6 1.4 2.8-1.7.8-2.2 1.1-2.3 1.5-.5.8 3.5 2 4.3 2.2 1.5.1-1 .4-2.5.9-3.8.5-1.2.9-2.3 1-2.6.4-1.2.8 0 .6 1.8-.2 2.3.7 4.4 3 7.2.4.4 1.3-.4 1.6-1.4.5-1.5.9-1.2 1 1 .4 4.8 1.9 4.6 2.3-.3.1-1.7.5-3.7 1-5.6 1.1-3.8 1.1-5.5.1-7-1.1-1.6-1.1-2.3-.3-4.7.7-2.2.9-4.1.4-5-.4-.8.1-.6.7.2s.6 1 .4 5.3c-.1 2.4.2 3.1 2 5.4l.9 1.1.2-.8c.1-.4.1-1.3 0-1.9-.2-1.3.2-1.4.9-.2.8 1.4 2.4 1.8 1.9.5-.4-.9-.3-3.8 0-5.5.4-2 .8-1 .6 1.6-.1 1.2 0 2.1.1 2.4.3.5.3.5.3-.1 0-.3.5-1.9 1.1-3.6s1.1-3.3 1.2-3.6.3-.6.4-.6c.4 0 .3 1.6-.3 3.6-.7 2.5-.9 3.6-.6 3.6.1 0 .3-.2.4-.4.1-.2.9-1.5 1.8-2.9 1.3-1.9 1.7-2.9 2.1-4.7.6-2.6.7-2.8.9-1.5.5 3.3.5 3.2 1.6 3.1 1.4-.1 1.4-.1.8-2-.4-1.6-.4-3.7 0-4.9.3-.7.6-.5.6.4 0 1.7.6 3.7 1.8 5.8 1.3 2.4 1.6 2.5 1.8.9.3-1.7.5-1.5 1.1 1 .6 2.3 2.4 5.8 4.1 7.6.7.8.8.9.6.3-1.3-5.1-1.7-12-.9-15.5.2-1 .4-1.8.3-1.8-.3-.3-2.5 4.8-2.9 6.7-.1.3-.1-.1-.1-.8 0-.9.2-2 .6-3.1.4-.9.7-1.8.7-1.8 0-.1-.8.6-1.7 1.5-1.8 1.8-2.6 2-3.5.8-.4-.6-.5-2.2-.2-2.4.1 0 .6-.8 1-1.7 1-2.1 2.3-3.4 4.4-4.7 6-3.6 7.5-9.8 2.8-11.9-.8-.3-1-.1-.4.4 1.2 1 1.3 5.2.1 6.8-.4.5-.8.9-.9.8s.1-.4.3-.7c1.3-1.5.7-5-1.1-6.7-3.7-3.5-3.8-3.5-3.8-4.7 0-.9.1-1.2.8-1.7.4-.3.8-.7.8-.9 0-.6-1-.4-1.8.5-2.6 2.7-2.3 5.1.9 8.3 3 2.9 2 5.7-3.2 9.1-.8.5-2 1.3-2.6 1.9-.7.5-1.3 1-1.4 1-.5 0-.2-.8.5-1.2.4-.2.7-.7.7-.9 0-.3.3-.8.6-1.3 1.8-2.2 1.6-3.7-.7-5.4-1.5-1.1-1.6-1.1-1.1.1.9 2.1.3 4.2-1.7 6.4-.7.8-1.8 2.1-2.4 3l-1.1 1.7-.7-1.3c-.4-.7-.8-1.5-1-1.7-.4-.6.4-4.6 1.1-5.6 1.3-1.6 1.9-3.9 1.1-4.2-.2-.1-.3.1-.3.3 0 .8-.9 2.1-2.6 4-2.3 2.4-2.6 3.6-2 6.4.3 1.3.2 1.5-.4.5-1.2-2.3-.7-5 1.2-7.1.7-.8 1.3-1.5 1.2-1.5-1.9 0-4.2 1.9-4.9 4.1l-.5 1.4 1.1 3.4c1.2 3.8 1.5 6.6.7 6.9-1.2.5-1.4.1-1.8-3.2-.3-2.9-.6-3.1-1.3-.9-.6 1.9-1.2 2.6-2 2.2-.5-.3-1.3-2.2-1.2-2.9.7-4.5.1-10-.8-6.9-.2.6-.4 1.6-.5 2.1-.1.5-.2 1.3-.2 1.7 0 2.5-2.2 3.6-3.6 1.9-1.1-1.4-.9-3.5.4-6.1 1.3-2.6 1.3-3.4-.2-6.3-.8-1.6-1.2-2.8-1.4-3.9-.3-3.1-1.1-1.8-.9 1.6.2 4.8.2 5.1-.7 6.8-.5.9-1 2.2-1.2 2.9-.6 2.3-.8 2.5-2.7 2.3l-1.7-.1-1 2.6c-2.2 5.8-5.3 7.1-13.5 5.7-4.8-.8-6.5-2.2-9.7-7.9-.7-1.3-1.6-2.7-1.9-3.1-.6-.7-.6-.7-1 1.1l-.2.9-.3-1.6c-.2-.9-.8-2.8-1.4-4.3-1.7-4.1-2.6-8.5-2.6-12 0-1.4 1.4-6 1.8-5.6.1.1.4.9.8 1.9 1.2 3.4 1.9 3.5 1.6.2-.4-4.6 0-6.2 1.1-4.5.8 1.2 3.3 6.1 3.3 6.5 0 .4.7 1 .9.7.1-.1 0-.8-.2-1.5-.5-1.8-1.5-5.6-1.5-5.8 0-.6.7.5 2.1 3.2 2.2 4.1 3.1 5.4 3.8 5.4.5 0 .5-.1-.2-1.4-1.9-3.4-2.8-8.3-1.8-9.4 1-1 2-.1 2.8 2.4.5 1.7 1.6 3.3 2 2.8.1-.1 0-1.4-.3-2.9-.5-3.4-.3-3.8.8-2 .5.8 1.6 2.3 2.5 3.5.9 1.1 1.7 2.1 1.7 2.3 0 .5 1.4 2.3 1.6 2.1.8-.5 0-3.2-1.4-5-.8-1-1.9-3.3-1.8-4 0-.2.2 0 .4.4.7 1.3 3.7 5.4 4.1 5.5.6.2.4-1.1-.4-2.7-.4-.8-.7-1.5-.6-1.5.6 0 2.9 3.2 3.7 5 1.1 2.7 1.4 4.3.3 2-.8-1.8-1.5-2.3-1.5-1.1 0 .4-.1.8-.2 1-.1.2-.1.8.1 1.5.3 1.4.2 1.6-.4.4-.9-1.7-1.6-1.6-1.2.2 1.1 5.2 1.1 5.6 1 9.2-.3 6.2-.8 6.9-5.3 8.1-3.6 1-5.2.2-8.2-3.7-.4-.5-.7-.7-1-.6-1.3.5 2.7 5.7 5.1 6.7 2.7 1.1 10.9-1.5 10.4-3.4-.1-.3.1-.7.4-1.1l.5-.6-.2.9c-.5 2.8-1.6 4-4.4 4.8-5.8 1.7-8.3 1.5-9.8-.8-1.5-2.2-2.7-4.4-2.7-5 0-.3-.2-1-.5-1.7-.6-1.4-1-4.7-.6-4.9.2-.1.6.4 1 1.2 1.2 2.2 2 1.7 1.5-.9-.1-.8-.2-1.5-.1-1.5s.4-.2.7-.5c3.1-2.8 5.6-3.3 10.2-2 1 .3.8-.8-.3-1.3-2.5-1.2-5.5-1.2-9.2 0l-2.2.7-.7-.7c-1.6-1.6-3.8.7-3.8 4.1 0 1 1.3 6.2 1.7 6.6.2.2.5.9.7 1.5.2.6.6 1.7 1 2.4.3.7.9 2 1.3 2.8 1.7 3.9 5.4 5.7 10.3 5 4.3-.6 5-.7 6.1-1.7 2.6-2.3 4.6-12.6 3.5-18.3-.2-1.1-.2-2.3 0-4.6.4-4.1-.7-7-3.8-10.4-3-3.2-3.6-6.5-1.9-9.9 1.9-3.6 1.7-6.5-.6-8.3-2.8-2.1-3.3-3.5-1.9-5.5.4-.5.7-1.4.8-2 .1-.6.2-1.1.3-1.2.6-.6-.4-5-1.5-6.5-1.6-2.2-2.7-2.1-1.6.2.8 1.5.7 2.5-.5 4.9-2.5 4.9-3 8.7-1.2 8.5 1.7-.2 2.7 4.9 1.2 6.5-.4.5-1.1 1.5-1.4 2.2-.7 1.5-.8 1.4-1.8-.9-.8-1.8-1-4.3-.6-6.8.3-2 .3-2.3-.4-1.8-.3.2-.7 1.4-1.3 3.4-.6 2.3-1 3.3-1.5 3.8l-.7.7-.5-1c-.4-.8-.4-1.3-.3-2.6.1-.9.1-1.6-.1-1.6-.3 0-1.3 1.1-1.8 2.1-.2.4-.7 1-1.1 1.4l-.7.6-.2-.8c-.1-.4-.3-.9-.4-1-.1-.1.8-1.9 2.1-3.9 2.6-4.4 3.4-6.2 3.2-7.8-.2-1-2-4.5-2.6-4.8-1.6-1-3.1-4.6-3.2-7.7 0-.6-.1-.7-.4-.6-.4.1-.4 0-.3-1.1.1-.8 0-1.3-.2-1.3-1.2-.4-.9 6.4.4 9.4.3.7.5 1.5.5 1.8 0 .3.3 1.1.7 1.8 1.1 2.2.7 4.6-1.5 7.8-1.3 2-1.4 2-1.9.4-.2-.7-1.1-1.9-2.5-3.4-3.6-3.9-4.5-6.3-3.7-10.3.8-4.1 2.4-7.4 4.9-9.8 4.7-4.6 3.3-8.9-3.6-10.7-.9-.2-2.1-.8-2.8-1.2s-1.4-.7-1.5-.6c-.4.2-1.1-1.3-1-2.1.1-.8 1.6-.9 2.8-.3 1 .6 1.6.2 1.3-.8-.3-1.7-2.8-2.5-4.5-1.7m158.9.5c.6 1 3.1 3.9 5.8 6.7 1.9 1.9 3.7 4.4 3.7 4.8 0 .1-.7-.4-1.5-1.1-.8-.7-1.8-1.5-2.1-1.7-.3-.2-1.2-.9-1.9-1.6-1.4-1.3-2.3-2-1.5-1.1.3.3.4.7.3.8-.1.1-.3.1-.4-.1-1.9-2.8-4.3-5.7-3.4-4.3 1 1.6 3.3 4.6 4.8 6 2.6 2.5 1.6 2.4-1.2-.1-.9-.8-1.6-1.3-1.7-1.2-.1.3-.8-.4-3.3-3.1-.4-.4-.6-.6-.5-.4.5.9 3 4 5 6.1l2.2 2.2-3.1-2c-1.7-1.1-3.4-2.3-3.7-2.6-.6-.6-.6-.6-.3 0 .2.3 1 1.2 2 2 .9.8 2.3 2 3 2.8.7.7 1.9 1.9 2.7 2.5l1.3 1.1-1.8-.9c-1.8-1-2.6-1.2-2.2-.7.5.8-2.8-1.5-4.1-2.9-.4-.4-.6-.5-.6-.3 0 .8 3.4 3.6 5.9 5l2.6 1.4 4.4.1 4.4.1v-.6c0-2.4-4.9-9.1-9.1-12.3l-1.2-.9.8 1.1c.4.6 1 1.4 1.3 1.7l.5.7-.7-.5c-1.2-1-3-2.9-4.3-4.6-.7-1-1.3-1.6-1.3-1.5 0 .1-.3-.1-.7-.4l-.7-.6.6.4m41.1 4c-3.7 6-4.7 8.5-3.4 9 1.2.5 1.4.3 3-2.3.9-1.4 1.9-3 2.3-3.4l.7-.8-.2 5.2c-.1 5.2.1 6.7 1 6.7.3 0 .8-2.8.9-5.9.2-2.8.5-5.9.8-7.1.2-.7-2.5-3.8-3.3-3.8-.1-.1-1 1-1.8 2.4m-21.6-1.1c.4 2.4.8 6.5.7 7.3-.1.7-.2.6-.4-.7l-.3-1.5-.2 1.2-.2 1.2-.2-1.1c-.3-1.7-.5-2-.7-1.9-.1.1-.3.5-.3.9 0 1.2-1 5-1.6 5.7l-.5.7.7 1.4c.4.8.7 1.4.8 1.5.2.2 5.6 1.1 5.9 1 .6-.2 1.2-2.8 1.2-4.7v-1.8l-.3 1.1-.3 1.1-.2-1.7c-.4-3.7-.9-4.8-1-2.1v1.4l-.2-1.6c-.1-.9-.3-1.8-.5-2.1-.2-.3-.5-1.7-.9-3.1-.7-2.8-.9-3.5-1.4-3.5-.2.2-.2.5-.1 1.3m9.1 1c.9 1.9 2.2 5.4 2.2 5.9 0 .2-.3-.3-.7-1.1-1.2-2.5-1.4-2-.5 1.2.4 1.3.9 3.2 1.1 4.3.5 2.1 1.1 2.9 1.1 1.3 0-.9 0-.9.3-.3 1.3 2.3.2-4.7-1.2-7.9-.8-1.8-2.9-5.3-3.2-5.4.1.1.4 1 .9 2m90-1.5c-1.7 2.1-.2 5.4 3.1 7.1 4.5 2.4 3.5 6-2.1 7.7-3.3 1-5.1 2.4-5.6 4.4-.3 1.2-.2 2.2.3 2.2.1 0 .5.5.8 1 .6 1.1 1.3 1.9 3.8 4.2 2.1 1.9 3.3 4.2 3 6.1-.2 1.4-.7 2.4-.7 1.3 0-1.1-1.9-4.4-3.6-6.2-.9-1-1.9-2.2-2.1-2.8-.4-1-.8-1.2-1.1-.6-.2.6.4 2.1 1.6 3.9 3 4.4 3.1 8.5.4 12.7-4.1 6.3-3.1 12.7 3.3 21.4 1.7 2.4 1.8 2.2.3-2.2-.9-2.7-1.4-4.4-1.4-5.7l-.1-1.8.4 1.4c.2.8 1 2.9 1.8 4.7 2.7 6.4 2.7 6.6 2.7 10.4 0 3 0 3.4.5 3.4 1.9 0 1.7-6.7-.2-9.5-2.4-3.5-2.4-8.4 0-11.5l.9-1.1-.7-1.1c-.9-1.3-.9-4.8 0-6.4.4-.6.4-.9.2-1.1-.7-.7-2 1.3-2.6 4l-.3 1.5-.4-1.4c-.7-2.2.1-3.9 2.3-5.1 3.7-1.9 5.7-7 4.1-10.1l-.4-.8v1.1c0 1.3-.8 3.5-1.6 4.5-.7.9-.7.6 0-1.2.7-1.8.6-3.8-.3-8.3-.7-3.6-.6-5.6.4-7.2.9-1.4.6-2-.6-1.1-.9.6-1.5 1.7-2 3.9-.5 2-.5 2-1 .6-1-2.8-.7-4.2 1.1-5.5 3.5-2.4 4.3-3.3 5.1-5.9.4-1.4 0-2.6-1.1-3.2-.8-.4-1-.8-.4-1 .8-.3-.8-1.3-2.8-1.9-3.2-1-4.7-2.5-3.7-3.7.1-.8-.5-2.1-1.3-1.1m-32 4.2c0 .1.7.3 1.5.3 1.7 0 5.4 1.1 9.9 3 1.4.6 3.7 1.5 5.2 2l2.6 1-1.4.3c-.8.2-2.9.6-4.6.9-8.6 1.4-10 1.9-11 3.4-.8 1.2-.7 1.3 1 .7 1.5-.5 4.3-.4 5.7.2l.7.3-1.1 1.1c-.6.6-1 1.2-.9 1.3.2.4.6.2 3.9-2 1.4-.9 4.2-2.7 6.1-4 5.3-3.4 4.9-3 3.1-3.5-.9-.3-3.7-1.2-6.2-2.2-6.9-2.6-14.5-4.1-14.5-2.8m-166.3 1c.7.6 3 1.6 3.9 1.6.5 0 1.1 1.8 1.1 3.1 0 .6-2.2 2.5-2.8 2.3-.6-.2-.5-.4.5-1.4 1.7-1.7 1.2-2.8-1.7-3.5-.8-.2-1.7-.5-2-.8-1.9-1.7-3.2-.9-4 2.6-.5 2.2-.6 2.5-.9 2.1-.5-.7-.2-2.9.8-5.1l.8-1.8 1.9.1c1.3.2 1.9.4 2.4.8m83.5.1l.8.8-.9-.6c-.5-.4-.9-.7-.9-.8 0-.4.2-.3 1 .6m-1.1 1.5c-.2.2-1.7-1.3-1.7-1.7 0-.1.4.1.9.6.5.6.9 1 .8 1.1m58.3-.3c-6.2 2.5-11.4 7.7-14.5 14.6-2.3 5.1-2.4 5.6-2 6.5.3.6.3 1.9.2 5.1-.1 3.6-.1 4.4.2 5.1.4.8.4.9-.6 3.1-.5 1.3-1.5 4.1-2 6.3-3.5 13.6-4.9 15.5-9.7 12.8-2.5-1.4-2.6-1.4-3.3-.7-.9.9-.5 6.1.5 6.2.1 0 .5 0 .9.1.4 0 1.4.6 2.3 1.2 4.8 3.3 15.5 2.6 19.3-1.3 3.9-3.9 3.9-4.3.4-4.3-3.3 0-3.7-.3-2.9-2.6 1.1-3.1 2.5-3.7 6.1-2.5 1.7.6 1.9.5 2.1-.6l.1-.8-3.8-.6c-4.5-.7-4.5-.7-4.9-3.5-.4-3.2.6-6 3-8.4.9-.9 4.4-.2 6.3 1.3 1.1.8 1.1.8 1.2-.2.1-2.4 2.7 5.9 3.5 10.9.2 1.4.3 5.8.4 12.3.1 14.3.5 17.7 2.5 21.2 1 1.6 2.8 3.7 3 3.4.4-.4 4-8 5.7-12.1 4.1-9.9 5.1-13.3 5.4-19.4.2-4.3.3-4.3-1.5-4.7-3.1-.8-3.3-4.7-.6-13.6.8-2.4 2.3-4.5 3.3-4.6.8 0 .9-.6.3-1.6-2.2-3.6-2.2-5.2-.1-2.3 1.7 2.3 2.1 2.6 2.8 1.8.3-.3 2-1.7 3.8-3.1 1.8-1.4 4.6-3.6 6.1-4.8 1.5-1.2 3.4-2.7 4.2-3.2.8-.6 1.4-1.1 1.4-1.2 0-.2-5.4-2.1-5.9-2.1-.2 0-.6-.2-1-.5-1.5-1.1-7-2.8-7-2.2 0 .1 1.3 1 2.8 1.8 6.7 3.8 6.7 3.8 4.1 4.1-2.9.3-4.3.1-6.5-.6-4.5-1.5-4.5-1.5-4-1 .2.2 1.2.9 2.1 1.5 2.1 1.3 2.3.9-1.3 3.6-1.7 1.2-3.1 2.4-3.1 2.5 0 1.1-.6-.7-.8-2.5a24 24 0 0 0-1.6-6.4l-.5-1.2-2.3.1c-3 .2-3 .2-4.2 2.8-1.1 2.5-1 2.4-4.4 2.7-1.7.1-1.8.1-2.8-.9l-1.1-1 .1-3.7.1-3.7 1-.2c.9-.2 1.3-.1 3.8 1.1 3.7 1.8 3.7 1.8 3.2-2.5-.1-1-.1-1.1.7-1.5 1-.6 1-.6-.2-2.5-2.8-4.2-5.9-5.2-10.3-3.5m-70.5-.3c-.1.1-.2.5-.2.9 0 1.2-1.2 5.6-2.4 9-.9 2.4-1.1 3.3-.9 3.6.6.6 1.1-.1 2.1-3.3 1.9-5.3 2.6-11.5 1.4-10.2m101.8 1.7c-5.4.6-11.6 1.9-11.6 2.4 0 .4 2.4 3.2 2.7 3.2.1 0 2.1-.9 4.4-2.1 2.3-1.1 4.9-2.4 5.7-2.7.8-.3 1.5-.7 1.5-.8.1-.3-.2-.3-2.7 0m-95.3 4.9c.1.6.2 1.4.4 1.7.2.5.2.5-.2.2-.2-.2-.6-.9-.8-1.6-.3-1-.4-1.1-.6-.8-.5.8.7 4.1 1.5 4.1.6 0 .8-.5.4-1-.3-.4-.3-.4.2 0 .5.5 1.7.4 1.7-.1 0-.1.2-.2.5-.1 1.1.3 1.3-.3.5-1.2-.4-.5-.9-1-1-1.1-.1-.2-.1 0 0 .4l.2.7-.6-.5-.6-.5.3.7c.3.6.3.6-.1.1-.2-.3-.4-.6-.4-.8 0-.2-.1 0-.2.4-.2.6-.2.6-.5-.5-.2-.6-.4-1.1-.5-1.1-.2-.2-.2.3-.2 1m39.6-.5c1.5.7 1.9 1.4.7 1-.4-.1-1.1-.2-1.5-.3-.4 0-.9-.2-1-.4-.2-.3-.2-.3-.2.2.1.4.4.6 1.1.7 1.2.2 1.4.3 2.7 1.3 1.2.9 1.1 1.2-.3.6-3.1-1.4-3.1-1.4-3.1-1 0 .2.7.8 1.5 1.2 2.8 1.6 5.8 5 4.7 5.4-1.1.4-.3 1.4 1.1 1.4l1.4.1.6-1.5c.7-1.9.7-2.3-.2-3.5-2-2.7-6.4-6-8.2-6-.5.1-.5.2.7.8m-68.8 3.1c.2 3.4.3 3.9 1 3.6.4-.1.4-.4.3-1.6-.1-.8-.2-2-.3-2.7-.2-2.1-.4-2.5-.8-2.5-.3 0-.3.5-.2 3.2m105.3-2.2c-1.5.7-1.5.9-1 2.6.5 1.9 1.1 2.2 3 1.7 1.7-.4 1.8-.6 1.4-3l-.3-1.8h-1c-.6 0-1.5.2-2.1.5m-103 2c0 1.6-.1 2-.3 1.7-.3-.4-.3-.4-.2 0 .1.2.3 1.3.6 2.5s.6 2.1.7 2.2c.1.1.2-.1.1-.5-.3-1 .4-1.1.8-.1.3.8.4.8.4.3.1-1.7 1.1-2 1.1-.2 0 .4.1.7.3.6.6-.4-.7-6.3-1.6-7.9-.3-.4-.1 1.5.2 2.9.1.4 0 .3-.2-.3-.5-1.3-.5-.3 0 1.6.2.8.4 1.6.4 1.9 0 .2-.4-1.1-.9-2.9-1.4-4.3-1.4-4.2-1.4-1.8m-116.2-1c-.2.5.1 1 .5.8.3-.2.3-1.2 0-1.2s-.5.1-.5.4m176.3.2c.1.3.2 1.2.3 2 .1.8.4 2.3.8 3.3s.8 2.8.9 4c.4 2.8.8 3.2 1.1 1.3.1-.3.2-.2.3.5.3 1.8.4 1.9.8 1.2l.4-.7.1.7c.1.4.1 0 .2-.8.1-2.9-.4-4.8-2.1-8.1-1.5-3.1-1.9-3.2-.7-.1.3.8.5 1.5.4 1.5-.1 0-.3-.2-.4-.5-.1-.3-.7-1.5-1.2-2.7-.6-1.1-1-1.9-.9-1.6m-110.9.4c1.7 0 4.1 1.8 4.1 3 0 2-2.2 4.1-3.5 3.3-.2-.1-.8-.3-1.3-.3-.6 0-.3-.1.7-.2 2.4-.3 3-1 2.2-2.8-.7-1.5-5.4-2.3-6.2-1.1-.6.9-.5 3 .2 3.4.5.2.5.2-.3.2l-.9-.1-.4-2c-.3-1.9-.3-2 .3-2.6.8-.8 2.6-1.4 3.2-1.1.1.2 1 .3 1.9.3m62.6.4c-.8 1.6-.4 5.2 1 8.5.7 1.5 1.3 3.3 1.4 3.9.4 2.3 1.8 2.1 1.6-.2-.4-3.3-1.9-8.3-2.5-8.3-.3 0-.3.3-.2 1.1.2 1.5-.3.7-.6-1-.2-1.2-.1-2.8.4-4.3.3-1-.6-.8-1.1.3m-5.8-.2c-.2.4-.8 5.5-.6 5.6.8.8 1.6-3.8 1-5.4-.1-.2-.3-.4-.4-.2m-13.8 1.7c0 .2.2 1.1.5 1.9.3.9.4 1.5.2 1.6-.4.1 1.4 2.7 2 2.8 1.1.2 1-.4-.1-1.9-.6-.8-1.4-2.2-1.9-3.2-.3-.8-.7-1.4-.7-1.2m40.8 0c-5.5.6-9 2.1-9.3 4-.2 1.7.3 2.1 1.9 1.5.6-.2 1.8-.7 2.7-1 1.7-.6 7.5-1.2 9.8-1 .8.1 3.4.3 5.9.6 5.6.5 9.6 1.7 11.6 3.2 1 .8 1.1.7 1.3-.9.4-3.2-3.3-5.5-10.2-6.2-3.7-.3-11.3-.5-13.7-.2m61 .1c-.7.5-.4 4.8.4 5.5.6.6 4.2.8 4.2.2 0-.2.3-1 .7-1.9.8-1.9.8-2-2.2-3.3-2.2-1-2.5-1-3.1-.5m-109.3 1.1c-.5.6-.6.7-4.2.7-3.2 0-3.7.1-4.1.5-.5.6-1.6 2.6-2.1 3.9-.3.8-.6 1.1-1 1.1-.7 0-.8.5-1.2 3.6-.2 1.8-.2 1.9.3 1.9 1.1 0 2-1.5 1.9-3.4-.1-1.3 0-1.6.2-1.4 1.3 1.1-.3 6.3-2 6.3-.4 0-.6.2-.6.5s-.1 1.3-.2 2.4c-.1 1.5-.1 1.9.2 1.9.2 0 .3.1 0 .4-.4.4 0 2.9.8 5.6l.6 1.9 1.3.3c1.8.4 2.2 1 2.7 4.4.2 1.5.5 3.1.6 3.4.2.7 2.5 2.6 5.9 5 1.1.7 2.6 1.8 3.4 2.5 5.7 4.3 11.4 6.2 18.4 6.3 2.1 0 4.8.2 6.1.4 2.3.3 4.2.3 7.6-.2 2.3-.3 2.1.1 2.1-3.8 0-6.2-.4-9-1-7.4-.1.4-.6 1.5-1 2.6-.6 1.6-.8 1.9-1.3 1.9-.3 0-1 .1-1.5.3-2.3.8-8.3-1.5-8.7-3.3-.3-1.2-.8-1.2-2.1.1-1.3 1.4-1.8 1.5-6.7 1.4-4.1 0-4.2-.1-6.8-2.4-.9-.8-1.1-1.2-1.1-1.9 0-.5-.3-3.5-.7-6.6-.4-3.1-.8-6.9-.9-8.5-.2-2.3-.3-3-.9-3.9-.5-.7-.7-1.7-.9-3.3l-.3-2.3-1.8-.1c-1-.1-1.9-.3-2.1-.5-.3-.3-.1-.3.6-.2 2.4.4 3.8-.9 3.5-3.4-.2-2-.9-2.7-2.7-2.7-.7 0-1.3-.1-1.3-.3 0-.1.3-.3.7-.3 2.9 0 3-.2 1.9-2.5-.6-1.7-.9-1.9-1.6-.9m6.3.3c.9 3.5.8 3.8-.4 2.1l-.9-1.3.2.9c.2.9.2.9-.2.3-.4-.6-.4-.6-.4-.1 0 1.7 2.6 4.3 3.8 3.8 1.3-.5 1.3-.6.5-1.7-.4-.5-1.2-1.8-1.7-2.8-.6-.9-1-1.5-.9-1.2m-30.5 1.3c0 2.1-1.1 3.2-2.9 2.9-1.4-.2-1.9-.7-.7-.7.8 0 1.9-.9 2.2-1.7.3-1.3 1.4-1.7 1.4-.5m106.1 1.3c-.2 1-.3 2.6-.2 3.8.1 1.1.2 3.4.3 4.9.1 1.6.3 2.9.4 2.9.1 0 .2.2.2.4 0 .7.5.4.6-.3v-.7l.3.7c.6 1.3.7.5.7-4.5 0-2.7.1-5.5.2-6.4.1-.9.1-1.7 0-1.8-.1-.1-.3.4-.4 1.1-.3 2.1-.7 2.6-.5.6.1-1.1 0-1.6-.1-1.2-.1.3-.3.8-.3 1.2 0 .6-.1.6-.3.1-.2-.5-.2-.5-.2.1 0 .3-.2.7-.3.8-.2.1-.3-.3-.1-1.6.3-2.3.1-2.3-.3-.1m-25.6 1.2c-1.4.2-1.7.9-1.8 4.2-.1 3.8 0 4.1 1.8 4.1 2.1 0 2.4-.5 2.6-4.3.2-3.8-.2-4.4-2.6-4m-22 2.7c.1 1.5.1 3.2-.1 3.9-.3 1.4 0 2.3.8 2.2.9-.2.8-4.3-.1-8.1-.5-1.7-.8-.6-.6 2m50.5-2.1c0 .4.2.9.5 1.3.6.7 1 3.8.6 4.5-.2.4-.3.4-.4-.1-.5-1.5-1-.6-.8 1.2.1 1 .3 2.9.4 4.2.1 1.3.2 1.9.2 1.3.1-1.5.6-1.5.6.1 0 .7.1 1.3.2 1.3.3.2.6-.4.6-1.2 0-.3.1-.5.3-.5.1 0 .3.4.3.9s.1.9.2.9c1 0 .6-8.1-.5-9.4-.3-.3-.5-.8-.5-1.1-.1-1-1.7-4.3-1.7-3.4m-33.6 1.1c-.4.6-.5.9-.3 1.1.4.5-.3 2.6-1.4 4.1-2.3 3.2-6.4.4-6-4.1.1-1.4-.5-1.3-.9 0-.7 2.7.3 5.7 2.4 6.8 2.6 1.3 7.3.5 7.5-1.3 1-5.6.3-8.8-1.3-6.6m8.8-.4c-.2.3-.3 1.4-.3 2.5s-.1 2.5-.2 3.2c-.3 1.8.1 2.3 1.8 2.3 1.8 0 3.9.5 5.4 1.3 1.6.8 1.7.7 2-1.6.4-3.2-.4-6.9-1-4.4-.9 3.7-2.1 4.7-4.6 3.7l-1.4-.6.1-2.8c.1-3.5 0-4.1-.9-4.1-.3 0-.7.3-.9.5m45.1 0c.5.4 1.1 2 1.1 3.1 0 .3-.2.1-.5-.6-.7-1.6-1.6-1.6-3 .1-1.9 2.3-.9 6.6 1.9 8.4 1 .6 1.4 1.4.8 1.7-.1.1-.5-.1-.7-.4-.3-.3-1.3-1.1-2.2-1.8-.9-.7-1.7-1.5-1.8-1.8-1.2-5.1-1.2-5.1.6-7 2.2-2.2 2.8-2.5 3.8-1.7m-137.2 1.2l1.3 1.4-.2 1.9c-.2 2-.3 2.2-2 3-1 .5-4.5.5-5.3.1-.4-.2.5-.4 3.5-1 1.3-.2 2.4-1.6 2.3-2.8-.2-2-4.7-3.5-6-1.9l-.6.7.2-1.1.2-1.1 1.9-.2c3.6-.5 3.3-.5 4.7 1m77.9-.7c-1.2 1.2-.9 3.6.7 4.7 1.1.8 1.7.3.8-.6-1-1.1-.7-3.7.5-3.7.6 0 .7-.3.2-.7-.5-.6-1.5-.4-2.2.3m-50.5.9c.7.7 1.2 3.7.7 4-.5.3-.8.1-.8-.8 0-1.5-.5-2.7-1.4-3.1-.4-.2-.7-.4-.6-.5.4-.3 1.7-.1 2.1.4m69.2-.2c-.3.2-.5.6-.5 1.5 0 .8-.1 1.4-.4 1.6-1.1.9.1 2.5 1.4 1.9.8-.4 1.7-1.8 1.7-2.7 0-1-1.6-2.7-2.2-2.3m-52.9.5c-1.2.3-2.5.7-2.9 1-1 .7-1.1.3-.1-.5.5-.4.8-.7.7-.7-.7 0-4.6 2.3-4.8 2.9-.1.4.6 4.3 1 5.5.4 1.2 1.6 1.3 1.7.2 0-.3.1-.7.1-.8.2-.9 6.2-2.1 11.2-2.1 3.7 0 3.8-.1 3.7-.6-.2-1.2-10.7-1.3-12.8-.2-.5.3-.5.2-.5-.8s0-1.1 1.3-1.3c3.7-.8 5.7-1.1 8.3-1.1h2.9l-.7-.5c-1.7-1.4-5.9-1.8-9.1-1m15.6 0s.1.5.3 1c.2.5.4 1.8.5 2.9.2 1.8.2 2 .7 2 .7 0 .7-3.2 0-4.3-.2-.4-.5-.9-.6-1.2-.1-.3-.9-.7-.9-.4m47.2 2.5c0 .2.6.7 1.3 1.1 2.2 1.1 3.3 2.2 2.8 2.8-.2.3-.5.9-.7 1.5l-.3 1-.8-1c-1.2-1.4-1.9-.9-.9.5.9 1.3.6 6.4-.4 5.8-.4-.3-1.3.2-1.3.7 0 .5 1.3 1.1 2.3 1.1.3 0 .3.5.2 1.8-.2 2.8-.4 3.6-.9 3.4-1.6-.7-3.1.1-1.6.8.5.2 1.2.7 1.6 1.1.7.6 1.8.5 1.8-.1 0-.9.6-4.2 1.1-6.5.8-3.3 2.2-9.1 2.5-9.7.2-.6-1.3-1.9-3.8-3.4-2.1-1.4-2.9-1.6-2.9-.9m44.4 1.3c1.8 2 1.8 2.1 1.4 4.1-.2.9-.5 2.9-.6 4.3-.3 3.7-.7 1.7-.5-2.3.2-3.5 0-4.2-1.5-4.9-2.6-1.3-3.7-.2-4.6 4.7-1.6 8.6-1.6 9.1-.3 11 1.1 1.6 1 1.6-.6.7-1.5-.9-1.5-1.2-1.3-5.6.1-1.9.2-5.1.2-7v-3.5l1.2-1.3c1.1-1.1 1.3-1.3 3-1.5 2.1-.3 2-.4 3.6 1.3m59.1 1.7c-1.3.3-2 .7-2.8 1.7-1.2 1.6-.7 4.7.8 4.7.6 0 2.4 1.4 3.1 2.4 1.5 2.2.4 4.7-3.8 8.6-3.3 3.1-4.4 4.8-4.7 7.7-.1 1.3-.2 1.6-.4 1-.5-1.7.6-5.2 2.2-7.2 1.2-1.5.2-.9-1.5.8-1.9 2-2.4 3.2-2.4 6.2 0 3.2.4 3.8 3.7 6 4.2 2.8 6.3 5.7 5.9 8.3l-.2 1.3-.6-1.5c-.9-2.3-1.9-3.8-3.1-4.8-.6-.5-1.6-1.4-2.2-1.9-1.8-1.7-2.4-1-.9 1.1 2.3 3.4 2.6 4.4 1.6 7.4-.2.6-.1.6 3.4.7 4 .2 4.1.1 4.4-1.8.2-1.6.5-1.3.8.7.2 1.6.2 1.6 1 1.6h.8v-1.9c0-2.2.3-2.2.8-.1.6 2.7 2.8 3.8 3.6 1.8l.4-1 .4 1.3c.5 1.6.9 1.6 2.3.3 1.2-1.2 1.4-1.9.9-2.3-.5-.4-.9-2.1-1.2-5-.6-5.1-1.5-5.4-1.9-.6-.2 2.7-.5 4-.9 3.6-.3-.3-1.5-4.3-1.7-5.3-.2-1.3-.6-1.5-.8-.3-.4 2.6-.4 3.5-.2 4.3.6 1.8.1 1.5-1.1-.6-.7-1.2-1.7-2.6-2.2-3.3-3.6-4.3-4-8-1.2-12.3 2-3.2 1.3-3.6-1.6-.7-3.1 3.1-4.4 6.3-3.5 8.7.5 1.3-.1.7-1-1.1s-1-3.1-.4-4.3c.8-1.6 3.3-4.6 4.7-5.6 2-1.5 4.9-4.1 5.2-4.8.8-1.3.3-4.4-.9-5.8-.7-.7-.8-.6-.7 1.1.1 1.6-.7 4.4-1.3 4.8-.2.1-.2 0-.1-.3 1.2-3.1-.5-8.4-2.9-8.7-.5-.1-.6-.2-.5-1.4.1-2.3 1.6-3 3.9-1.9 1.5.7 1.8.8 1.6.1-.3-1.2-2.9-2.1-4.8-1.7m-149.6 1.1c-1.4.4-1.9.9-2.5 2.3l-.7 1.5.6 1.3c.5 1.2.5 1.5.3 3.8-.3 2.9-.5 12.1-.3 12.3.4.4 1.3-2 1.3-3.3 0-.3.1-.6.3-.6.2 0 .3-1 .3-2.5 0-2.1.8-8.1 1.2-9.6.2-.7 1.7-.6 5.1.5.8.3.8-.4 0-1.2-1-1-3.1-1.6-4.5-1.4-1.1.1-1.3.1-1.3-.3 0-.6.9-.9 3.3-1.1 2.4-.2 2.7-.6 1-1.3-1.5-.5-3.2-.7-4.1-.4m22.7 1.1c-6 .3-7.5.6-9.6 2.5-1.6 1.5-1.1 2.9.6 1.6.4-.3.6-.3.7-.1.4.6.2 1-.8 1.5-1.3.6-1.7 1.2-1.5 1.7.2.5 1.1.3 1.7-.4 1-1.2 6.6-1.6 16-1.3 6.3.2 8 .4 8.5.9.2.2.7.4 1.1.5.4.1 1.1.5 1.7 1 .8.6 1.1.7 1.4.5.6-.5-.2-1.8-1.6-2.5-.6-.3-.7-.5-.7-1.1.1-1 1-.7 2.2.5 1 1 1.6 1.1 1.3.1-.2-.8-1.5-2.2-2.5-2.8-.4-.2-1.2-.7-1.9-1.1-.9-.6-1.6-.7-3.5-.9-1.3-.1-3.4-.3-4.7-.4-1.3-.1-2.8-.3-3.3-.3-.3 0-2.7 0-5.1.1m-38.7.9c-1.3.7-2 3.2-1.3 4.7.6 1.2 3.2 2.2 4.2 1.7.6-.4.2-1.1-.5-.9-1.6.4-2.8-2.4-1.7-3.8 1.4-1.7 1-2.6-.7-1.7m-45.5.6c-2.7.8-3 .9-1.5.7 1.3-.2 5-1.4 4.2-1.4-.3.1-1.5.3-2.7.7m23.3 0c1.4 1 .2 2.7-1.5 2.3l-.9-.2.9-.3c.9-.3 1.3-1.7.5-2-.2-.1-.2-.1.1-.2.1 0 .6.2.9.4m10.5 0c1.7.9 2 6.8.5 8.6-.4.5-.8.8-.8.8 0-.2.6-1.2 1-1.7.3-.4.1-3.2-.5-5.3-.3-1-1.5-1.9-2.8-1.9-1 0-2.3-.3-2.3-.6.1-.5 4-.4 4.9.1m95.8.2c-2.2 1-1.2 3.7 1.3 3.7 1.8 0 1.8 0 .6.5-2.1.9-3.2.4-4-1.5-.9-2.1-.2-3.1 1.8-3.1h1.1l-.8.4m-78.4.2c-.5.8-.9 10.5-.4 11.2.7 1.1.9-.3 1-5.6.2-5.1 0-6.5-.6-5.6m44.7.7c.6.1.8.3.8.8v.6l-3.5-.2c-1.9-.1-5.4-.2-7.6-.2-4 0-4.1 0-4.1-.6v-.6h6.8c3.7 0 7.1.1 7.6.2m-55.4 1.3c.1.7.3 2.4.4 3.8 1.2 12.2 1.1 11.7 2.3 13 1.8 1.9 3.2 2.1 2.8.5-.2-.9-.2-1 .4-1.3.8-.4 4.6-1.3 5.6-1.3s.8-.8-.2-1c-.5-.1-2.2-.2-3.8-.2-1.6 0-2.9.1-2.9 0 0-.5-2.1-12-2.3-12.7-.4-1.3-.7-.3-.6 2l.2 2.5-.4-1.5c-.2-.8-.4-2.1-.4-2.9 0-1.6-.3-2.1-1-2.1-.2 0-.2.2-.1 1.2m140.3-.9c-.7.7.7 6.3 1.5 6.3.3 0 .6 1.5.4 1.8-.1.1-.7-.3-1.3-.9-1.6-1.7-2-.9-.7 1.4.9 1.5.5 3.3-1.1 5.1-3 3.5-3.1 6.1-.1 9.8 2.6 3.2 3 4.1 2.1 5.4-.5.8-.1 1.1 3.1 2.1 3.6 1.2 5.4 2.4 5.5 3.9 0 .4.2 1.2.4 1.7.4 1.2.2 1.5-.4.5-1.3-2.2-5.9-4.3-8.1-3.7-2.1.5-2.7.2-3.3-1.6-1.2-3.9-2.5-4.3-2-.6.5 3.4-.2 4.8-1.8 3.6-1.3-1-1.4-2-.5-4.8 1-2.9.9-4.7-.4-6.4-2-2.7-2.2-3.1-2.4-4.4-.2-1.5-.5-1.8-.7-.8-.3 1.1-.2 2.2.4 3.4.5 1.1.5 1.2 0 .7-1.3-1.2-1.5-.2-.2 1.7 1.4 2 1.4 2.3.2 5-1.2 2.8-1.3 2.9-.8.6.7-2.9 0-3.6-1.1-1.3-1.5 2.9-1 7.2 1.2 9.6.9 1 .9 1.1.9 3.2-.1 3.7 3.7 10.1 6.9 11.7 2.4 1.2 6.8 1 10-.5l1.5-.7.2-3.1c.1-1.7.3-3.5.4-3.9l.2-.8.6.9c2 3.2.9 10-1.8 11-.4.1-1.7.7-2.9 1.2-2.1.9-2.3.9-3.5.6-2.3-.6-5.4-1.9-6.6-2.8l-1.2-.9-.7 1c-.4.7-.8 1.7-1 2.9-.2 1-.4 1.9-.5 1.9-.3 0-.7-1.1-.9-2.1-.7-4.1-1.9-3.8-1.9.5 0 4.2-.1 4.3-2.3 2.2-1.9-1.9-2.2-2.6-1.7-3.4.5-.9.1-1.4-.6-.7-.9.9-.8 2.7.2 4.4.8 1.4 1.3 5.3.5 4-.8-1.4-1.9-2.3-3.5-3.1-3-1.4-3.2-4-.4-5.4 3.7-1.9 4.6-5.4 2-7.9-3.6-3.4-4.6-5.2-3.1-5.7 1.3-.5.8-1.4-.6-1-2.4.6-2.7 3.1-.6 5.8.7.9 1.4 1.7 1.5 1.8.3.2 0 2-.4 3-.2.4-1.1 1.3-2.1 2-4.8 3.5-4.9 6.1-.5 8.3 2.7 1.3 3.1 2.8 2 7.9-1 4.5-.6 7.3 1.5 10.8l.5.9-.7-.2c-1.2-.3-2-1.5-3.3-4.7-1-2.6-1.2-2.9-1.7-2.9-.8.1-.7 2.5.2 4.7 1.5 3.6.6 5.6-1.4 3-1.5-2-2.2-1.6-1.3.7 1.2 2.8 1.7 5.8 1.4 8.1-.2 1.8-.2 2.4.1 3 .2.4.4 1.1.4 1.5 0 .8.8 1.8 1.5 1.8.6 0 .5.2-.5 1.4-1 1.1-1.7 2.9-1.4 3.6.3.7.7.5 1.3-.7.8-1.6 1.6-2.4 2-2 .3.2.2.5-.3 1.3-2.2 3.6-2.7 5.3-2.2 8s1.1 2.4 1.3-.7c.2-2.4.6-3.7 1.9-5.5.7-1 1.2-.9.5.1-1.8 2.9-1.4 7.9 1.1 13.4.6 1.3 1.3 3 1.6 3.7l.5 1.3-.1-1.6c-.1-.9-.4-2.3-.8-3.3-1.9-4.5-1.8-8.6.2-11.1l.6-.8-.4 1.1c-.5 1.3-.5 2.6-.1 4.4.5 2.2.7 2.1.8-.5.2-3.6.6-3.3.6.5 0 2.9.1 3.5.7 5 .4 1 .7 2.4.8 3.2.1 2.1.7 2 1.2-.1.3-1.5.3-1.7-.4-3.5-1.3-3.5-1.1-7.8.3-9.5.9-1.1 1.1-.9.3.4-1.1 1.9-1 4.2.3 8.1l1.1 3.3v2.8c-.6 3.2.2 4.8 3.2 6.5 1.3.7 1.8 1.3 1.1 1.3-.5 0-2.5-1.1-3.6-2-1.6-1.3-1.9-1.4-1.3-.5.8 1.1 3.6 3.7 5 4.6.6.4 1.6 1.1 2.3 1.6 5.2 3.9 11.7 4.2 16 .8.2-.2.9-.5 1.6-.7 1.8-.6 2.4-2.3 2.9-9.2.1-1.6.6-4.4 1-6.3 1.6-6.8 2.6-12.8 2.2-14.3-.2-.6-1-1.6-2.6-3-5.7-5.2-7.9-7.8-10.7-12.3l-1.8-3.1-2.1-.7c-2.9-1-3.3-1-5 .6-3 2.7-5 7.8-4.7 11.8.3 4 2.1 8.5 3.6 9.1 1.3.6 1.6 1.2.9 2-.9 1.1-2.8.3-5.3-2.2-4.6-4.6-4.6-15.6 0-21.1.4-.5.7-1.1.7-1.6 0-1.1 1-3.8 1.6-4.4.5-.5.5-.5.5.8 0 1.8.3 2.3 1 1.6.4-.4.5-.8.5-1.8s.3-1.9 1.1-3.6c1.3-2.6 1.5-2.7.9-.4-.6 2.4 0 3.8 1.7 4.7 1 .5 1.3.1 1.5-2 .1-.9.2-1.7.4-1.8.2-.1.8 1.5.8 2.4 0 1.1 1.6 3.8 2.1 3.5.2-.1 0-1.4-.5-5.1-.2-1.4-.2-2.2 0-3.2.5-2.2.7-2.2.7.2 0 2 .1 2.4 1 4.2.9 1.8 1.4 3.4 1.6 5.1.1.5.2.3.5-.8.4-1.4.4-1.6 0-3.3-1.1-4.8.7-10.2 5.3-15.8 2.6-3.1 3.4-4.5 3.7-6.2.2-1.3.6-1.2.7.2.1 1.2.6 2 2.8 4.6 1.3 1.5 2.5 2.4 2 1.5-.1-.3-.3-3-.4-6.1-.2-6.4-.4-7.3-3.1-10.3-1.9-2.1-2.1-2.8-1.7-4.8 1.2-5.5.8-9.5-1.1-11.6-1.1-1.2-1.3-.8-1 2.1.3 2.2.2 2.6-.2 4l-.5 1.5-.1-1.1c-.4-6-1.4-10-2.5-10.2-.6-.1-.6 1 0 3.3.3 1.3.4 1.9.1 2.8-.7 2.7-2 0-2.8-5.6-.7-5-1.7-5.1-1.8-.1 0 2.2-.1 3.1-.3 2.6-.4-1-2.9-4.1-4.2-5.3-2.9-2.5-2.6-4.4 1.3-8.1 2.9-2.7 2.7-6.4-.4-9.3-1.5-1.4-2.6-2.9-2.6-3.7.6-1.2.3-1.6-.1-1.2m-65.2 1.1c0 .5.4.9 1.4 1.6 2 1.4 2.2 1.6 1.7 2.6-.2.5-.5 1-.5 1.3-.1.3-.1.3-.2 0 0-.7-1.1-1.8-1.7-1.8-.5 0-.6 1.1-.1 2.5.1.2-.2.7-.5 1.1-1.2 1.3-.3 2.7.9 1.6.4-.4.5-.4.5-.1 0 .7-1.3 4.4-1.3 3.8 0-.8-.9-1.8-1.3-1.6-.2.1-.3.6-.2 1.3.2 1.3 0 1.7-.9 1.8-1.9.3-1.2 2 .7 1.8 1-.1 1.1-.1 1 .3-.1.2-.2.8-.3 1.2-.2 1.1-.5 1.1-1.4.3-1.7-1.4-2.7-.8-1.1.7a8 8 0 0 1 1.5 2.1c1.4 3.1 2.4 1.2 5.6-10.2.6-2.2 1.3-4.5 1.6-5.2.6-1.4.5-1.8-.9-3.5-1.6-2.2-4.5-3.1-4.5-1.6m-90.7 2.2c1.3.9.5 2.7-1 2.4l-.8-.2.6-.3c.9-.5 1-1.4 0-1.9l-.7-.4h.7c.3 0 .9.2 1.2.4m-47.8.7c2.5.7 3.8 2.1 2.8 3-.3.3-.5.7-.4 1 .1.3 0 .5-.2.5-.3 0-.3-.3-.3-.9.1-.8 0-1-1.7-2.3-1.9-1.5-2.2-1.6-3.1-1.1l-.6.3.5-.6c.6-.6.6-.6 3 .1m85.8-.1c-.4.2-.9 4.5-.6 5.3.1.4 2.9 1.7 3.1 1.4.2-.4-.4-1.4-1.1-1.8l-.8-.4.3-2c.4-2.4.1-3.2-.9-2.5m96.7.4c-.7.6-1.7 3.4-3.9 11-.3.9 1 2.8 1.9 2.8 2.4 0 3.7-2.3 4.3-7.5l.4-3.1-.7-1.9c-.8-2.1-1-2.2-2-1.3m-244.8 1.4c0 1.6-.5 3.4-1.7 6.1-1.5 3.4-2.1 5.7-2.5 8.5-.4 3.5-.9 2.6-.9-1.6 0-3 .4-5.1 1.6-7.5.4-.9 1.3-2.8 1.9-4.2 1.3-2.8 1.6-3.1 1.6-1.3m163.4-1c-.1.2-.2.9-.3 1.7l-.1 1.4.4-1.6c.4-1.5.4-2.1 0-1.5m4 2.5c-.2 2.9.2 3.9.7 1.6.1-.3.1.4.2 1.5l.1 2 .4-1.2c.5-1.6.7-4.2.4-5.2-.3-.9-.9-1.2-.9-.5 0 .4 0 .4-.4 0-.3-.4-.4-.2-.5 1.8m-9.2-.6c-.2.4-.4 1.4-.5 2.2l-.2 1.4v-1.5c0-1.3-.1-1.4-.3-.8-.4.9-.4 3.6 0 4.1 1 1.2 1.9-.7 1.8-3.8-.1-2.5-.3-2.9-.8-1.6m-27.2 0c-1.5 1.5-.2 4.4 1.9 4.2.9-.1.9-.8-.1-1.2-1.1-.5-1-2.2.2-2.4.4-.1.8-.2.7-.3s-.1-.3-.1-.5c0-.6-2.1-.4-2.6.2m30.8 0c-.4 1.3-.2 6.5.3 8.3 1.1 4 2.9 7.9 3 6.4 0-.6 0-.6.4-.2.3.5.4.4.5-.5l.1-1 .4 1.3.4 1.3v-1.1c0-1.1 0-1.1.4-.4.6 1.1.5-2.1-.2-4.5-.3-1.1-.6-2.9-.7-3.9-.2-2.4-.6-2.4-1 .1l-.3 1.8-.2-1.3c-.1-.7-.2-2.5-.1-3.9.1-1.6 0-2.3-.1-1.8-.1.4-.2 2.4-.3 4.3 0 3.9-.1 3.9-.6.2l-.4-2.6v1.8c0 2.4-.3 2.1-.6-.7l-.2-2.2v2.5c-.1 3.5-.3 2.9-.5-1.2 0-2.1-.1-3.1-.3-2.7m16.4-.1c0 .3-.1.3-.5.1-.3-.2-.7-.2-1-.1-.3.1-.7.2-.9.2-.5-.1-.3 4.9.2 5.4.3.3.3.2.2-.5-.3-1.4.1-2.2.5-1.3.3.7.3.6.2-1.1l-.1-1.9.3 1.7.3 1.7.2-1.2c.2-.9.3-1.1.5-.8.2.3.3-.1.3-1.1 0-.8-.1-1.5-.1-1.5s-.1.1-.1.4m7.7 1.1c0 .5.2 1.8.5 2.9.7 2.6.7 3.7 0 1.6-.5-1.7-1.3-2.8-.8-1.3.6 2.2.8 4.8.5 6.4-.4 2 0 2.8.7 1.3l.4-.9.1.9.1.9.4-.7c.8-1.3.5-4.6-.6-7.9-.5-1.6-1-3.2-1.1-3.6-.1-.4-.1-.4-.2.4m30.4.6c-.3.6-1 1.5-1.4 2.1-1.2 1.7-1.2 4.9 0 5.9 1.7 1.5 7.5 2.5 7.6 1.3 0-.2.1-1.2.2-2.2.5-5.2.1-7.3-1.5-6.9-.3.1-1.1-.1-1.7-.4-2.3-1-2.5-1-3.2.2m-33.6.6c-.1.5-.7 2.1-1.3 3.5-.6 1.5-1.1 2.8-1.2 3.1s-.1-.2 0-.9c.1-1.3.1-1.3-.3-.7-.6.9-.5.3.1-2.1.7-2.5.7-3.5 0-1.8-.3.7-.7 1.8-.9 2.3-.4.9-.7 2.2-1.2 4.7-.2 1-.2 1-.4-.8-.1-1.8-.2-1.9-.5-1.1-.8 1.7-.4 9.6.5 9.1.1-.1.3 0 .3.1 0 1 .5-.3.6-1.3 0-1.3.1-1.2.4.6.2 1.3.7 1 .7-.4v-1.1l.3 1c.4 1.3.9 1.1.8-.4 0-1 0-1.1.2-.4.2.7.2.5.4-1.2.3-2.6.9-6.5 1.2-7.4.4-1 .3-1.4-.2-.8-.5.7-.5.5.1-1.2.5-1.6 1-3.7.7-3.7.1 0-.1.4-.3.9m-74.9 1.3c-.4.9 1.2 4.3 2 4.3s.7-1.8-.2-3.5c-.7-1.4-1.4-1.7-1.8-.8m-40.2 2.6l1.9 1.3.1 1.5c.1 1.4 0 1.6-.8 2.4-.5.5-1.4 1.5-2.1 2.2-.7.8-1.6 1.6-2.1 2-.5.4-.1-.2 1.1-1.4 2.5-2.6 2.4-2.4 2.5-5.1v-2.3l-.9-.4c-1.3-.6-2.4-.5-3 .2-.6.7-3.2 4.7-3.8 5.9-1.1 2.3.1-1.8 1.5-4.7.5-1.2.9-1.5 2.1-2.1 1.5-1 1.3-1 3.5.5m9.1-1.1c.9.2 1.8 1.4 2.1 2.6.2.8.2.8-1.1-.5-2-2-4.1-1.3-4.1 1.4 0 .4-.1.5-.5.5-.6-.1-.7-1.3-.2-2.9l.4-1.3h1.3c.8 0 1.7.1 2.1.2m82.8 1.8c-.4 1-.4 1.2.1.3.2-.4.4-.8.3-.9s-.2.2-.4.6m-1.6 1.3c-1 2.1-.5 9.6.5 7.9.2-.3.2-.3.4 0 .1.2.2.1.4-.3s.3-.5.3-.3c0 .7 1.1.4 1.1-.4 0-.6.1-.6.2-.1.2 1 .5.7.7-.8.1-.8.2-1.8.3-2.4.2-1.3-.7-1.5-1.4-.2-.6 1.3-1.1.6-.7-1 .4-1.6.2-1.8-.5-.5-.5.9-.5 1-.6.4 0-.6 0-.6-.3-.1-.3.8-.3-1.5 0-2.4.6-1.3.2-1.1-.4.2m25.3 1.7c0 .3.1.9.2 1.3.6 1.8.6 2.4.2 2-.3-.3-.4-.3-.4 0s-.1.3-.3 0c-.4-.6 0 1.2.6 2.6.3.6.5 1.4.5 1.6 0 .7.6 1.1 1.7 1.2 1.2.1 1.3-.8.4-3.7-.8-2.6-1.1-2.8-.9-.8l.2 1.4-.4-1.1c-.2-.6-.6-1.8-.8-2.8-.5-1.8-1-2.7-1-1.7m25.6.8c-1.5.8-1.9 4.4-.5 5.1l.6.3h-.6c-.8 0-1.9-.5-2.1-1.1-.4-1.2.8-4.1 1.8-4.5 1.2-.5 1.8-.3.8.2m107.1.9c-.1.7 0 1.7.3 2.7l.4 1.6-.8.8c-.4.4-1.2.9-1.7 1.1-3.8 1.2-5 3.9-2.8 6.9 2.3 3.1 2.4 4.5.9 7.5-2.2 4.5-9.1 9.9-8.4 6.6.3-1.2-.3-1.2-2.2-.3-2 1-2.1.9.6 2.2 1.2.6 3.8 2.1 5.8 3.3 4.5 2.7 8.8 5.1 9 4.9.1-.1-.3-.8-.8-1.7-1.4-2.3-.9-4.5 2-7.8 1.5-1.7 1.9-2.7 1.7-3.9-.2-1.3-.9-1.2-1.7.3-.3.6-1.7 2-3 3.2-1.3 1.2-2.8 2.4-3.2 2.9l-.8.8v-.8c0-1.6 1-3 3.6-4.9 5.8-4.4 7.3-8.1 4.9-12-1.8-3-2.6-2.9-1.4.1.8 2 1.1 4.2.5 4.2-.1 0-.3-.1-.3-.2s-.9-1.4-2-2.8c-2.9-3.8-3-5-.3-6.5 2.9-1.6 3.2-3 1.1-5.7-.4-.6-.8-1.4-.8-2.1 0-1.8-.3-1.8-.6-.4m-171.8-.4c-2.2 1-.6 4.2 2.1 4.1.5 0 .5-.1-.5-1-1.5-1.2-1.4-1.3.5-1.7 1.4-.3 1.8-.3 3.1.1 1.7.5 1.9.4 1.3-.5-.9-1.3-4.5-1.9-6.5-1m-70.5 2.8l1.7.8-.1 1.2c-.2 2.1-.9 4.4-1.5 5l-.5.5.5-1.2c1.7-3.9 1.4-5-1.9-5.6-1.6-.3-1.7-.2-3.4 2.6-.9 1.6-1.3 2.1-1.3 1.6 0-.3-.1-.8-.3-1.1-.2-.4 0-.9 1.7-2.8 2.1-2.4 2.1-2.4 5.1-1m110.4 1.2c0 .1-.2 0-.4-.4s-.4-.8-.4-.9c0-.1.2 0 .4.4.2.3.4.7.4.9m31.3-.9c-.8.6-1.1 2.4-.5 3.2.5.8 4.3 1 5.1.2.8-.8.6-2.7-.4-3.2-1.2-.5-3.5-.7-4.2-.2m-53.9 2.8c-.4.1-1.1.2-1.6.2-2.5.4-3.5 2.7-2.3 5.3.6 1.3 1.1 1.4 2.3.6a7.8 7.8 0 0 1 5.4-1c.8.2 1.3.2 1.4 0 .3-.5-.4-.8-1.9-1-1.2-.2-1.3-.2-.6-.3 1.2-.1.4-.5-1.2-.6l-1.1-.1.9-.2c1.2-.2 1.3-.7.4-1.2l-.8-.4.9-.1h1.7c.5 0 .7 0 .6-.3-.1-.2 0-.3.4-.1 1.5.5 2.2.5 2.1.1-.3-.7-3.9-1.3-6.6-.9m-109.5 2c2.1 1.1 3 2.8 2 3.9-.8.8-1 .8-2.4-.3-2.3-1.8-1.9-4.8.4-3.6m126.9-.1c-1.7.4-2 .8-.4.7 1.4-.1 1.4-.1.5.2-1.6.5-1.2.6 1.2.5 2.3-.1 5.2.5 5.2 1 0 .3-.4.3-1.1 0-.3-.2-.9-.2-1.4-.2-.8.1-.8.1.7.9 1.9 1 1.9 1.1 0 .4-1.7-.6-3.8-.4-5.4.6-1.3.8-1.4 1.1-.2.6 2.1-.8 3.1-.7 1.4.1-1.7.9-1.8.8 1.2.4 1.4-.2 4.4.8 4.8 1.7.5 1.1 1.6.8 1.9-.6.7-2.7.5-3.6-.7-4.8-1.5-1.6-4.7-2.2-7.7-1.5m-114.5 3.2c0 .2-.6 1-1.2 1.7-1.2 1.3-1.2 1.3-.5.3 1.7-2.6.1-4.3-3.3-3.5-.2 0-.4-.1-.4-.4 0-.4.2-.5 1.5-.6.8 0 1.8-.2 2.3-.3.6-.3 1.6 1.3 1.6 2.8m39.2-2.6c-1.4.2-2.5 1.2-2.1 1.9.7 1.3 3 1.2 3.8-.2.8-1.4.2-2-1.7-1.7m106.7.2c.3.2.2.3-.4.3-1.7 0-2 1.8-.4 2.3l.9.3-.7.2c-1 .3-2.2-.4-2.3-1.2-.2-1.5 1.6-2.7 2.9-1.9m-103.6.6c-.1.2-.2.8-.4 1.3-.4 1.3-1 1.6-3.4 1.5l-2-.1-.5.9c-.7 1.3-.7 1.5.8 2 1.9.6 2.3 1.2 2.3 3-.1 2.2-.5 2.5-2.6 1.7-2.7-1-2.7-1-3.4 1.7-.9 3.8-1.8 14-1.3 14.4.1.1 0 .6-.2 1.3-.5 1.5-.1 2.6 1.2 3.3 1.7 1 2.5.4 2.5-1.7 0-.5.1-1 .2-1 .4-.3.8 1.2.8 2.8 0 1.5 1.8 3.5 2.2 2.4.1-.2.6-.1 1.6.2 2.2.7 2.5.4 2.4-1.9-.1-1.9.2-2.2.9-1.1.3.5.4 1 .2 2.5-.3 2.2-.3 2.3 2.3 2.5 1.1.1 2.6.3 3.1.5.6.1 1.8.4 2.8.7 4.5 1.1 6.1.8 6.3-1.2.2-1.5-.5-2.4-2.4-3.2-1.8-.7-1.6-.7 1.3 0 2.6.6 4.1.7 4.6.2.5-.5.4-.7-.5-.9-.7-.2-.4-.2 1.5-.3 3-.1 3.3-.4 3.3-2.4 0-1.9-.6-2.5-2.5-2.5-.8 0-1.5-.1-1.5-.3 0-.2 1-.3 2.3-.3h2.3l1.3-1.9c.7-1 2.1-2.8 3.1-4 1.1-1.3 1.8-2.4 1.8-2.8 0-2 1.1-3.2 3.3-3.4 2.2-.3 4.7-2.1 4.7-3.4v-1h-1.3c-2.7 0-8.3-.8-10.9-1.6-1.5-.4-3.4-.9-4.1-1s-1.7-.2-2-.3c-.5-.1-.7 0-.9.5-.6 1.3-5.6 0-6.4-1.6-.3-.7-.7-.9-2.3-1.4-3.2-1-4.6-1.5-7.1-2.9-3.2-1.5-3.3-1.6-3.4-1.2m56.7 4.7c-.3.2-.3 1.1-.1 5.7.5 8.7.6 9.3 1 9.3.7 0 1.1-4.1 1.1-10.8v-4.3l-.8-.1c-.5 0-1 .1-1.2.2m-2.4.5c-.1.2-.1 1.4 0 2.5s.3 3.3.4 4.8c.3 3.4.5 4.3 1 4.3.4 0 .5-4.4.1-9.3-.1-2.6-.9-3.8-1.5-2.3m163 .5c-.5.8-.6 3.2-.2 6.5.2 2.3-.3 3.5-2.1 5-1.1.9-1.1 1.3-.4 2.5.7 1.2 1.4 4.3 1.4 6.3 0 2.4 1 2.1 1.9-.4.2-.5.6-1.2.9-1.5.9-.9 1.4-3.7 1.4-7.8v-3.5l-1.1-2.3c-1-2.1-1.1-2.4-.9-3.9 0-1.7-.2-2-.9-.9m-165 0c-.3.9-.1 5.5.4 9 .8 5.8 1 9.7.4 10.4-.9 1-.4 4.8.7 5.7.9.7 4.6 1 4.4.4-.1-.2-.5-.5-.9-.6-3-.9-3.8-1.5-2.5-1.9.7-.2 4.4.1 5.6.6 1.1.4 1.5.1.9-.5-.8-.8-1.9-1.2-4.4-1.5-1.3-.2-2.4-.4-2.4-.5 0-.5 1.3-.9 3.1-.9 1.6 0 1.9-.1 2-.5.1-.6-1.4-1.3-3.1-1.3-1.5 0-1.5.2-1.8-4.4-.1-1.5-.3-3.7-.5-4.9-.2-1.2-.5-3.6-.7-5.3-.4-4.1-.7-5.1-1.2-3.8m-46.4.4c1 1.1.4 5.2-.8 5.5-.7.2-2.9-.5-3.7-1.1-.8-.6-.3-.7.9-.1.9.4 1.3.5 1.6.3 1.1-.7 2.1-4 1.4-4.8-.6-.6 0-.4.6.2m68.2-.1c-.2.2-.4.8-.4 1.3 0 1.1-.5 11.3-.7 14.2-.1 1.4 0 2.2.1 2.4.4.3.6 0 .8-1.7.1-.9.5-3.4.8-5.6.8-5.5 1-10.5.5-10.8-.4-.3-.6-.3-1.1.2m-81.4.4c-.8.5-.6 2.4.4 3 1.7 1.1 3.2.1 2.7-1.7-.3-1.1-2.3-1.9-3.1-1.3m78.6 4.3c.1 8.8 1.2 8.9 1.4.1l.1-3.7-.7-.1-.7-.1-.1 3.8m6-3.2c-.1.2-.2 1.2-.3 2.3-.2 2.3-1.2 8.7-2.2 13.6l-.7 3.5-.7-.2c-.9-.3-2.1-.2-3 .2-1 .4-.7.8.6.8.5 0 1.2.1 1.4.3.3.2.3.3-.1.3-.7 0-1.8.8-1.6 1.1.1.1.7.2 1.3.2 2 0 2.3 1.1.3 1.5-1.6.3-1.1 1.1.7 1.2 2.4 0 3-.8 3-3.9 0-1.2.3-3.4.5-4.9 1.2-7.8 1.5-9.7 1.5-12.8.1-3.1-.2-4.6-.7-3.2m-67.1 2.5c-.1.6-.9 1-1.4.8-.4-.2-.4-.2.1-.6.6-.4.8-1.1.4-1.6-.1-.1.1 0 .4.4.3.3.5.8.5 1m9.9.9c1 .4 1.4 1.6 1.1 2.8-.3 1.4-.8 1.6-2.8 1.2-2-.3-4.1-1.2-3.4-1.3.2-.1.7 0 1 .2.7.4 3.3.4 3.7 0 1-1 .1-1.9-2.7-2.7-.7-.2-1.1-.4-.9-.5.4-.2 3.1 0 4 .3m-122.8 1c2.2 4.4 1.7 9.2-1.6 16.7-1.5 3.4-2.2 6-2 7.8l.1 1.5-.4-1.1c-1-2.5-.7-4.9 1.3-9.7 3-7.4 3.6-12.1 1.9-16.1-.5-.9.1-.3.7.9m187.5-.6c-.4.3-.6 1.2-1.1 4.5-.3 2.3-.8 5.4-1 6.9-.4 2.4-.4 3-.1 4 .6 1.9 2.2 5.8 3.3 7.8l1 1.9 1.9.5c2.7.8 9.2-.1 8.4-1-1.2-1.4.3-4.5 2.4-4.8 3.1-.4 2.9-.3 3.8-2.2.8-1.8 2-6.7 2.3-9.9.2-2.3-.4-3.2-1.8-2.8-1.9.5-8.8-.7-10.5-1.9-.5-.4-1.1-.7-1.3-.7-.4 0-4-1.7-4.7-2.2-.8-.6-1.9-.6-2.6-.1m80.2.4c1.3 1.1 2 9.5.9 11.2-1.5 2.3-6 2.8-8.2.9-.9-.8-3.5-6.7-3.3-7.6.6-3.4 8-6.5 10.6-4.5m17 1.8c-.7 1-.7 5.6 0 7.3.5 1.2 1.2 1.7 1.2.8 0-2.3 3.4-6.4 5-6.1 3.7.6 5.8.5 7.6-.4 2.5-1.2 2.2-1.3-4.9-1.6-3.2-.1-6.2-.4-6.6-.5-1-.4-1.8-.3-2.3.5m-185.5.5c1.1 1.1.4 3.1-1 3.1-1.1 0-2.3-.5-1.3-.5 1.5-.1 2.2-1.3 1.4-2.4-.8-1.1-.1-1.2.9-.2m7.4 0c.2.3.4.7.6.9.2.2.3.6.2.8-.1.2-.3 1.3-.4 2.4-.3 2.4-.9 3.1-2.4 2.8-1.8-.3-2.2-.8-.8-.9 1.8-.1 2.2-.7 2.3-3.4.1-1.4 0-2.4-.2-2.8-.3-.7.3-.6.7.2m170.4 2.2c.4.9 1.4 2.4 2.1 3.2 2.3 2.5 3.7 6.5 2.9 8-.4.8-1.1.3-1.1-.9 0-1.5-.8-3.6-2.1-5.4-1.6-2.3-2.9-5.2-3.1-6.7-.1-1.4-.2-1.5 1.3 1.8m-165.3-2c.3.5-.2 1.3-.9 1.3-.6 0-.6-.2-.1-.7.2-.2.3-.6.3-.8-.2-.6.3-.4.7.2m215.4.8c0 .8.5 1.2.5.4 0-.4-.1-.7-.3-.7-.1-.1-.2.1-.2.3m-129.4 2.8c0 .1-.2.3-.5.4-1.9.6-.9 4.7 1 4.3.5-.1.6-.1.3.1-1.8 1.2-4.7-1.9-3.6-3.7.6-.8 2.8-1.7 2.8-1.1m-49.4.3c-11.4 2.2-21.6 12.1-24.8 24.1-1.9 6.8-2 11.9-.5 16.9 1.3 4.3 2 4.1 1.3-.4-1.8-12.5 4.5-29.2 12.7-33.5.7-.3.9-.4.5-.1-10.9 7.8-16.4 30.6-10 41.8 1.5 2.6 1.6 1.3.2-2.5l-1-2.8v-5.7c0-15.2 5.6-26.2 15.9-31.2l1.2-.6-.8.7c-.4.4-1.4 1.2-2.2 1.9-11.1 9.6-13.2 28.4-4.3 38.7 2 2.3 3 2.6 2 .6-8.5-16.4-3.7-33.6 11.7-42.3 1.9-1.1 2-1.2 2-3.6v-2.1h-1.4c-.8-.1-1.9 0-2.5.1m-35.1.4c1 .2 1.6.9 1.6 1.8 0 1.4-.5 1.6-2.7 1.2-2.6-.5-3.1-.8-.8-.6 3 .2 3.4-1.2.6-2-2.6-.7-1.7-1 1.3-.4m-104.1 4.9c1 3.8 1 9.2 0 10.2-.4.4-.4.2-.4-1.3 0-.9-.2-2.7-.5-4-.5-2.2-1-6.3-1-8.7V204l.8 1.7c.3.9.8 2.4 1.1 3.2m193.5-3.8c-.2.6.4 1.2 1.4 1.4.6.1.8.2.6.4-1.2.7-3.9-1-3-2 .4-.4 1.2-.2 1 .2m87.7 1.4c0 .6-.3 1.9-.8 2.9-1.8 4.3-2.1 10.2-.6 12.5.4.6 1-.1 1.5-1.7.7-2.3 1.2-1.8 1.1 1.5 0 2 .2 2.8 1 3.8s1.4.3 1.8-2.1c.3-2 1.5-.2 1.3 2-.1 1.1.5 3 .9 3 .8 0 1.3-4 .7-5.6-.5-1.3-.4-1.5.5-.8 1.1.9 1.7 2.4 2 4.8.4 3.9 2.2 4.8 2.2 1.1 0-1.8.4-1.9.9-.2.2.8.5 1.5.7 1.5.8 0 1.2-5.5.5-6.1-.2-.2-.7-.6-1.2-1.1-.5-.4-1.5-1-2.1-1.2-3.2-1.1-4.1-1.6-6.4-3.9-1.6-1.5-1.9-2.2-.5-1.2 1 .7 5.8 2.9 8.1 3.7 1.7.6 2.9.1 1.6-.7-.3-.2-1.4-.9-2.4-1.5s-2.5-1.5-3.3-1.9c-2.4-1.3-3.1-1.9-4.4-3.9-1.5-2.2-1.8-3.2-1.1-3 .3.1 2 .6 3.8 1.1 3.3.9 5 1.5 7.7 2.6 2 .8 1.7.5-1.1-1.2s-4.1-2.3-8.6-4c-1.7-.7-3.3-1.3-3.5-1.4-.2 0-.3.2-.3 1m24.7-.6c-.4.4-.4.6.2 2.1.4 1.2.7 2.3.7 3.6 0 2.4.3 3.2.9 3.4.5.1.5-.1.4-3.5-.2-4.9-1-6.8-2.2-5.6m9.8 1.7c-1.7 2.2-2.3 3.6-2.3 5.1 0 1.7-1.4 4.4-2.8 5.4-1.2.9-2.5.7-5-.5-.7-.3-1.3-.6-1.4-.6-.4 0 .3 1.5 1.1 2.5 1.1 1.2 1.2 2.2.4 4.4-1.1 3.1-.6 3.9 1 1.5 1.2-1.9 1.3-1.7.7 2.4-.3 1.8-.7 4.6-.8 6.2-.2 1.6-.4 4.2-.6 5.8-.2 1.6-.2 2.9-.1 3 .4.4.7-.4 1.1-2.6.5-3.1.5-2.1 0 4-.5 5.8-.6 11-.2 11.2.1 0 .4-.7.5-1.6.1-.9.4-2.8.6-4.1.2-1.3.5-3.2.6-4.1.2-1.2.2.5.3 5.7 0 6.3.1 7.4.4 7.4.6 0 1.2-1.6 2-6.1.3-1.4.8-3.7 1.3-5.7.4-1.6 2.4-4.8 4.6-7.6 4.4-5.5 5.5-9.6 3.3-12.7-1.2-1.7-1.2-4.4-.2-7.5.9-2.5.9-4.5 0-4.6-.9-.1-.9-.1-.9 1.2 0 1.1-.2 1.6-1.3 3.2-1.7 2.5-2 4-1.5 6.9.4 2.2.2 4.3-.5 5.7-.7 1.3-1.5-.3-1.1-2.3.5-2.2-.6-2.6-1.8-.5-1.5 2.7.3-6.8 1.9-9.9.6-1.2.7-1.8.9-5.1.2-2.6.4-4.2.8-5.3.8-2.5.5-2.7-1-.8m-47.4 1.3c.3 2.1-1 5.6-2.7 7.5-1.4 1.6-3.8 5.5-4.2 6.8-.2.7-.5 1.2-.6 1.2-.9 0 1.6-6.2 3.8-9.5 1.6-2.4 2.2-3.7 2.7-6.3.4-2 .7-1.9 1 .3m-84.5.6c-2.1.3-2.5 1.2-1.8 3.8.3 1.2.9 1.5 2.7 1.5 1.3 0 1.4 0 .9.4-1.1.8-4.1.1-4.6-1.1-1.4-3.1-.3-4.8 2.9-4.9h1.2l-1.3.3m10.7 0c-2 .6-1.8 2.6.2 2.6.7 0 .7.4.1.6-1.5.6-2.6-.1-2.6-1.6 0-1.3.7-2 2.1-1.9h1.1l-.9.3m-87.9 1.8c-.1 1.1-.5 1.6-1.5 1.6-.9 0-.9-.1-.1-.9.6-.6.7-.8.5-1.5-.2-.8-.2-.8.4-.4.6.3.7.6.7 1.2m-7.7-.5c.6.7 0 1.9-1 1.9-.6 0-.6 0-.1-.4.4-.3.5-.6.3-1.2-.1-1 .1-1.1.8-.3m90.8.1c-.2.2-.3.6-.2.9.2.6-.3.6-.7-.1-.4-.6 0-1.3.6-1.3.5.1.6.2.3.5m-47.9.5c-13.8 6.5-18.7 24.5-10.1 36.8 1.2 1.7 1.2 1.8 2 .9l.6-.6-.7-.9c-1-1.4-2.7-5-2.9-6.4-.2-1.5-.1-1.3.8.8 1.1 2.7 3.6 6.3 4 5.8.1-.1-.5-1.1-1.2-2.3-2.2-3.6-3.1-7-2.3-8.3.2-.3.4-.6.3-.7-1.4-.8-1.4-1 .2-1.4.7-.1 1.2-.3 1.1-.4-.1-.1.3-.2.8-.2 4.9-.2 9.5-1.6 10.7-3.4 1.5-2.2.8-3.1-.9-1.1-1.2 1.5-4.5 2.2-9.8 2.3-3.1.1-3.5-.2-3.5-2.8 0-4.7 3-10.4 6.8-13.1 2.6-1.8 2.6-1.7.1.8-3.3 3.3-3.9 4.6-1.1 2.1 2.7-2.3 3.9-3 5.4-2.9 1 .1.6 2.1-.5 2.7-2.9 1.5-4.3 3.1-6 7-1 2.3-1.3 3.8-.8 4.1.3.2 6.8-.7 7.2-1 1.3-.8 4.8-7.5 4.8-9.2 0-.6-2-3.2-2.4-3.1-.1 0-.3-2.4-.4-5.2.2-1-.3-1.1-2.2-.3m-145.2 3.7c.2.8.3 2.2.2 3.3l-.1 1.9-.9-1.7-.9-1.7.5-1.6c.6-1.9.8-2 1.2-.2m174.3 1c-.1.1-.2.6-.3 1.1-.2 1.2-1 2.3-1.7 2.5-.8.2-.7 1 .4 2.5 3.8 5.7 3.2 17.3-1.3 24.7-1.3 2.1-.8 3.2.9 2 2.8-2 6.1-12.9 6.1-20.2 0-3 .1-3.2 1-1.8 3.4 5.4 2 20.6-2.6 27-.6.9-.7 1.4-.1 1.4.2 0 1-.8 1.6-1.7 3.5-4.7 4.9-10.2 4.9-18.9 0-4.1-1-8.8-2.1-10-.2-.3-.7-1-.9-1.6-1.8-3.8-5.3-8-5.9-7m-65.9 1.1c.7.3 0 .3-.9 0-.5-.2-.6-.2-.1-.2.3 0 .7.1 1 .2m87.3.2c-.8.8-.4 3.8.6 3.8.7 0 2.8-1.2 2.9-1.7.4-1.8-2.2-3.4-3.5-2.1m-114.6.3c0 1.3 10.2 6.1 16.3 7.7 12.1 3.2 18.1 2.1 21.9-3.9.8-1.2.2-1.9-.7-.8-1.7 2-3.6 3.5-4.6 3.6-.6.1-1.6.3-2.3.5-2.4.6-3 .7-5.9.4-7-.7-13.3-2.5-19.8-5.7-4.3-2-4.9-2.2-4.9-1.8m84.5 1.7c0 .5-.2.7-.9.9-.5.2-1 .5-1.2 1-.2.4-.6.8-.9.9-.7.2-.6.7.6 3.6 1.7 4 3.2 5 7.6 5 1.4 0 1.6.3 1.6 1.8 0 .8-.2.8-4.1-.2l-3.2-.8-1.4-1.5c-2.2-2.4-3-1.7-1.2 1.1 1.4 2.1 3.9 3.4 7.7 4 1.8.3 1.9.8.2.7-1.1-.1-1.4 0-1.4.3 0 .4 1.8 1.3 2.5 1.3.9 0-.9 5.2-2.9 8.2-.9 1.4-.3 1.7 1 .5 2.7-2.5 5-11.3 4.1-16-.7-4.6-8.1-14.2-8.1-10.8m-12.8.6c-.4.5-.7 9.7-.6 17.9l.1 4.6h2l.1-1.7c0-.9 0-2.9-.1-4.5-.1-1.5-.2-5.8-.3-9.5-.1-7.4-.2-8-1.2-6.8m119.1.1c-7 4.3-4.6 18.2 3.9 22.3 4.4 2.1 4.2 2.1 5 1.8 1.8-.6 1.3-4.2-.8-5.6-5.1-3.4-9.3-9.9-8.2-12.8.1-.4.2-.1.4.9.4 3.6 5.1 9.4 7.6 9.4.9 0 .7-.5-1.4-3.1-2.6-3.2-3.2-4.7-3.2-7.3 0-2.3.2-2.6 1.3-2 .5.3 1.5.8 2.3 1.2.8.4 3.3 2 5.7 3.5 4.6 3 5.4 3.4 5.6 3.3.1-.1-.8-.8-1.8-1.5-1.1-.8-3.4-2.6-5.2-4-7.1-5.6-9.7-7-11.2-6.1m-115.1.6s-.1 3.3-.1 7.3-.2 7.7-.3 8.3c-.2 1.1-.8 1.5-1 .8-.1-.3-.2.4-.3 2.1 0 .3.2.5.4.5s.5 0 .7.1.5.6.7 1.3c.4 1.3 1.3 1.9 1.8 1.2.1-.2.2-4.8.2-10.2l.1-9.9-.6-.7c-.5-.7-1.5-1.1-1.6-.8m64.8.5c-2.6.8-4 2.4-4 4.3 0 .9-.1.9 1.2.3 2.6-1.1 8.9.7 13.7 4 .6.4 1.2.7 1.2.7.1-.2.7-1.9.7-2.1 0-.1-1-.9-2.2-1.8s-2.7-2-3.2-2.5c-.6-.5-1.3-1-1.6-1.2-.3-.2-1.1-.7-1.6-1.1-1.4-1.1-2.4-1.2-4.2-.6m-139 .3c-.5.4-1.5 4.3-1.6 6.4-.1 1.3.5 1.7.9.5.3-.9 1.3-3 1.7-3.3.6-.4.7-.1.5 1.8-.3 3.2.9 2.8 1.5-.6.2-.9.4-1.7.6-1.8.5-.3.2-1.4-.5-2.2-.9-1-2.3-1.3-3.1-.8m115 .8c-3.3 1.3-8.6 2-11.7 1.5-1.4-.2-1.8 0-1.3.6 2.5 2.8 17.6.5 15.3-2.3-.3-.5-.8-.5-2.3.2m-110.2 2c-1.6 2.3-3.5 15.8-2.3 16 .3.1.5-.5.9-3.1.6-4.3.8-4.9 1.8-5.6l.8-.6-.2 2.8c-.3 5.1.6 4.1 1.6-1.8.4-2.1.9-4.4 1.1-5.2.5-2.1.5-2-.9-2.8-1.8-.9-2-.9-2.8.3m-23.2 1.8c-1.2.5-1.9 1.5-2.9 3.9-1.3 3-1 3.7 1.2 3.7 1.2 0 1.3.1 2.4 2.7 1.6 3.8 2.7 3.8 1.5 0-.9-2.6-.8-5 .2-7.8.7-2.5-.2-3.5-2.4-2.5m28.1.4c-.7 1.7-1.2 6.2-1.5 11.9-.2 4.6.5 5.1 1.1.7.2-1.4.5-2.6.7-2.8.2-.1.5-.8.7-1.5.3-1.1 2-3.2 2.3-2.9.1.1 0 1.2-.1 2.5-.2 1.3-.3 2.6-.3 3 0 .9.7.7.9-.3.1-.5.5-2.4 1-4.3.4-1.9.8-3.9.8-4.5v-1l-2.3-.8c-2.7-.9-3-.9-3.3 0m105.6.1c-1.7.7-2.1 1.6-.7 1.7.6.1.8.3 1 1.1.5 1.8 1.1 6 1 6.4-.1.2-.2 2.3-.3 4.5-.1 2.2-.2 4.8-.3 5.8-.2 2.1.2 2.4.8.5 1.5-4.7 1.9-16 .7-19.7-.4-1-.3-1-2.2-.3m-219.8 2.3c.6.7 2 3.1 3.2 5.4 1.7 3.4 2.3 4.3 3.3 5.2 1.6 1.4 2.4 2.7 1.4 2.3-.4-.1-1.1-.4-1.7-.5-2-.5-3.3-2.4-4.7-6.7-.9-2.8-2.1-5.1-3.3-6.7l-1-1.2.8.4c.6.3 1.4 1.1 2 1.8m216-1.1c-1.7.6-1.7.6-1.3 3 .2 1.2.4 2.9.5 3.8.2 2.1.5 1.5.8-1.4.4-4.2.6-.5.5 7.5-.1 7 .1 9 .5 5.6.1-.8.3-1.9.4-2.5.7-3 1.1-14.3.6-15.8-.4-.8-.3-.8-2-.2m-93.4.3c-.6 1-1.3 3.8-1.5 6.5-.1 1.8-.4 4.3-.7 5.6-.9 5.3 0 6.4 1.1 1.5 1.2-5.2 1.3-5.7 1.6-6.4.4-.8 2.1-2.7 2.4-2.7.2 0 .1 6-.1 7.4-.1.7-.1.9.2.8.4-.1 1.1-3.3 1.5-7 .2-1.3.5-2.8.7-3.4.7-1.7.5-1.9-1.6-2.3-2.2-.3-3.4-.3-3.6 0m-33.2 1.2c-2 3.2-.4 9.3 2.8 10.9 1.9.9 1.8.3-.2-2.3-1.9-2.5-2.6-6.2-1.7-8.8.3-1-.2-.8-.9.2m56.2-.1c-3.2 4.9-2.1 19.5 2 25.9l1 1.5 1.2-.7 1.2-.7-1-1.5c-1.1-1.7-3-5.4-2.9-5.5.1-.1 1.1 1.4 2.3 3.2 2 3 2.6 3.7 2.9 2.9 0-.1-.6-1.3-1.4-2.6-4.7-7.4-6.6-15.5-4.9-21.3.4-1.4.2-2.1-.4-1.2m-14.4.3c-.4.3-.7.8-.7 1.2 0 .4-.2 1.1-.4 1.6-.9 2.3-1.9 14.2-1.1 14.2.5 0 .7-.6.7-1.7 0-2.4 2.4-10.9 3.3-11.5 1-.7 1.6-.5 1.4.5-.5 2.9-.3 7.9.2 5.3.2-1 .9-3.7 1.5-6.1.7-2.5.7-2.3-.9-3.3-1.7-.9-3-1-4-.2m79.4-.4l-1.3.1.2 3.4c.2 4.7.4 5.4.9 5.3.3-.1.5-.6.7-1.8.7-4.4 1 3.5.4 10-.4 4.1.2 3.8 1.2-.6 1.6-6.8 1.4-16.7-.3-16.6-.2.1-1 .2-1.8.2m-213.8 5.1c1.3 1.8 2.2 8 2.1 14.6 0 3.7.2 5.5 1 8 .1.3-.2-.1-.6-.8-1.3-2.3-1.7-4.6-1.7-8.8 0-3.6-.4-6.6-1.7-12.2-.4-1.8 0-2.1.9-.8m204.5-.6c-.1.1-.2.9-.2 1.7 0 4.5-2.5 12.1-5.1 15.4-.9 1.2-.9 1.4-.2 2.2 1.6 1.5 4.2-2.4 5.7-8.4.9-3.5.7-11.8-.2-10.9m-120.4.7c-7 2.2-10 7.4-8.1 13.8.4 1.3.9 3.2 1.2 4.3l.5 1.9-1.8 1.8c-3 3-4.4 5.9-3.4 7.1.4.5.4.5.9-.1 1-1.5 4.8-5 6.4-5.8.9-.5 1.7-1 1.8-1.1.1-.1.4-.3.8-.3 1 0 1-.3-.1-3.7-1.7-5.2-1.9-8.7-.7-12.4.5-1.5 1.4-2 1.1-.6-.7 2.7-.4 5.9.5 5.9.4 0 .6-.5.8-2.8.1-1.6.8-4 1.2-4.3.2-.1 2.8 3.9 3.3 5 .5 1.3 2.4 3.7 2.9 3.7.7 0 .7.1-.4-2.6-.5-1.3-1.2-3.6-1.6-5.2-.9-3.3-1.3-4-2.8-4.4-.6-.2-1.3-.4-1.4-.4-.3 0-.8 0-1.1.2m-72.5 2c1 .7 2.6 2.6 3.5 4.4l.8 1.5h-.8c-.7 0-.9-.2-1.8-1.9-.5-1.1-1.4-2.5-1.9-3.2-1-1.3-.9-1.5.2-.8m150.1.1c0 .3.5.3 1.2 0 .4-.2.4-.2-.3-.2-.5-.1-.9.1-.9.2m159.2.6c0 .2.6 1.6 1.3 3l1.3 2.6-.3 2.8c-.2 1.5-.5 3.9-.6 5.2-.2 1.3-.4 3.5-.6 4.9-.1 1.4-.5 3.9-.8 5.5-.3 1.6-.7 4.1-.9 5.6-.6 4.6-1.3 5.9-3 6.1-.5.1-1.8.3-2.7.5-1 .2-3 .4-4.5.5-2.7.1-4 .6-2.3 1 .3.1.6.3.7.5.1.2.6.4 1.1.4 1.3 0 3.1.5 3.6.9.5.5 1.1.5 4.3 0 4.3-.7 3.9-.1 5.3-9.2.2-1.4.6-3.8.8-5.3.2-1.5.4-3.4.4-4.2 0-.8.2-1.8.4-2.4.2-.6.5-2.5.5-4.3.1-1.8.3-4.5.4-5.8.3-2.9.2-3.1-2.1-6.3-1.7-2.2-2.3-2.7-2.3-2m-133.7 2.3c-.4.5-.4.5 0 .9.7.6 1.5 2.6 1.4 3.5-.2 2.2.8 2 3.2-.6 2.4-2.7 2.4-3.1-.3-3.8-2.4-.6-3.8-.6-4.3 0m-85.5.3c0 .3.3 1.1.6 1.9 1.6 3.6 1.4 4.9-1.7 11.8-.6 1.3-.8 1.9-.6 2.1.4.4.4.4 3.3-4.8 2.9-5.3 2.8-4.9 1.7-6.6-.5-.7-1.3-2.1-1.9-3.1-1-1.8-1.4-2.3-1.4-1.3m67.7-.1c-5.3.5-5.6.9-3.2 3.7.7.8 1.3 1.7 1.3 1.9 0 .4.5.5 1 .2.2-.1.4-.7.5-1.2.3-1.7 1.9-3.1 4.1-3.5 1-.2 1.1-.3 1.1-.8-.2-.7-.5-.8-4.8-.3m110.3 1.4c.1.1 0 .3-.2.4-2 .8-3.2 8.3-1.9 11.5 1 2.4 1.9 1.7 1.2-.8s.4-7.1 2-8.7c.8-.8 2.8-.5 3.3.4.2.4 1 1.5 1.6 2.5.7 1 1.6 2.3 2.1 2.9.4.6 1.5 2.1 2.5 3.4.9 1.2 1.9 2.6 2.1 3.1.2.5.8 1.4 1.3 2.1 2.4 3.4 2.6 5.2 1.1 15.9-.4 2.7-1.3 6.2-2.4 8.9-1 2.5-3.5 1.8-4.4-1.1-.2-.6-.6-1.5-.8-2.1-.5-1-.5-1 0-1s1.1-.5 1.1-.9c0-.1-.5-.2-1.2-.2-1 0-1.4-.2-2.5-1-.7-.6-1.6-1.2-2.1-1.5-1-.5-1.8-2-2.4-4.5-.6-2.6-.4-3.4.4-1.6 1.4 3.3 1.7 3.7 3.5 4.7 1.9 1 4.3 1.3 5.1.6.8-.7.5-.9-1-.8-2.5.3-4.4-1.1-5.5-3.8-.3-.8-.9-2-1.2-2.7-.5-.8-.6-1.4-.5-1.9.1-.6-.1-1-1.3-2.3-3.9-4.4-5.6-13.4-3.5-18 1.1-2.6 3-4.4 3.6-3.5m-6.7 3.5c-.2.5-.4.9-.3.9.1.1.3-.3.5-.8.6-1.1.4-1.2-.2-.1m-98.1 1c-4.1.9-8.3 3-12 6.1-.4.4-1.7 1.2-2.8 1.8-4.8 2.7-4.3 3.2 1.3 1.8.5-.1 2-.9 3.2-1.6 9-5.5 18.2-6.3 24.4-2.1.7.5 1.9 1.1 2.7 1.3.9.3 1.8.8 3.1 1.9 2.6 2.3 3.9 1.8 1.8-.8-3-3.6-3.7-4.3-5.3-5.3-4.4-2.8-11.7-4.2-16.4-3.1m-116 1.7c-3.4.7-5.9 2.7-9 7.1-1.7 2.4-2.8 7.1-2.4 10.6.2 2.6.8 2.3 1.3-.9.4-2.5 2.8-7.6 4.6-10 .5-.7 1.1-1.6 1.4-2 .2-.4.7-.9 1-.9.5-.1.5 0-.3 1.1-1.4 2-3.4 7.6-2.9 8.1.3.3.9-.2 1.5-1.3 1.8-3 6.4-6.2 9-6.1 4.6.2 6.6 3.9 5.7 10.6-.5 4-.5 4.1 0 4.1s.9-.9 1.4-3.6c.2-1.2.5-2.6.6-3.3a9 9 0 0 0-.4-5.4c-.4-.9-.7-1.8-.7-1.9 0-1.2-4.1-5.7-5.2-5.7-.4 0-1.3-.2-1.9-.4-1.2-.4-2.1-.5-3.7-.1m47.1 1.8c-.8.5.1 1.1 4.7 2.9 7.9 3.1 16.8 5.8 16.2 4.9-.1-.1.4-.1 1 .1 9.4 3.3 26.5 5 36.2 3.6 2.1-.3 6.4-.9 9.5-1.4 4.3-.6 6.1-.8 7.6-.7 3.6.3 6.9.9 7.5 1.3 1.6 1 7.2 1.8 13.1 1.8 7.3 0 10-.5 18.1-3 1.8-.6 4.3-1.3 5.5-1.6 2.7-.7 3.7-1.2 3-1.5-.3-.1-1.6.2-2.9.6-7.2 2.4-14.6 3.6-21.1 3.6h-4l-2.4-1.1c-11.2-4.9-22.8-5.1-37.3-.6-4.3 1.3-18.8.3-27.8-2-1.4-.4-3.7-.9-5.1-1.2-3-.6-11-2.9-14-4-1.2-.4-3.1-1-4.3-1.3-1.2-.3-2.3-.6-2.5-.7-.5.1-.8.2-1 .3m-11.9 2.2c-.1.2.3 1.4.8 2.6l.9 2.3-.5 1.9c-.6 2.5-.8 2.7-4.5 6.9-4.4 4.8-9.2 10.6-9.2 11.1 0 .7 1 0 3.1-2.4 1.3-1.4 4.3-4.6 6.7-7 6.7-6.8 7.2-8.1 4.8-12.8-1.3-2.6-1.8-3.3-2.1-2.6m12.6.9c0 .5.9 1.4 2.5 2.6.5.4 1.2 1.2 1.5 1.8 1.1 2.2 3.9 3.4 6.3 2.7 2.3-.6 4.5.2 7.4 2.7l1.6 1.4 2-.1c1.1 0 2.3-.2 2.8-.5 2.9-1.4 7.7-.3 10.7 2.5l2.3 2.1h1.6c1.3 0 1.9-.2 3.6-1.1 2.6-1.4 4-1.6 5.7-1.1 2.7.8 4.6 1.8 5.9 2.9 1.5 1.3 1.7 1.3 4.7 1.2 2-.1 2.5-.4 3.7-2.5.6-1 1.9-2.6 3.2-3.8 1.2-1.1 1.9-1.9 1.6-1.8-.3.1-1.8.4-3.3.6-1.5.2-4.4.5-6.3.8-3 .4-3.9.4-6.5.1-1.7-.2-4.6-.4-6.5-.4-5.4-.2-8-.5-14.7-2.1-3.4-.8-6.9-1.5-7.7-1.6-3.2-.3-15.7-4.2-21.5-6.7-.4-.1-.6 0-.6.3m-.7 4.8c-1.2.8-.3 2.9 1.2 2.9s2.1-1.7.8-2.8c-.7-.6-1.2-.6-2-.1m118.1 2.7c-1.8.5-4.7 1.2-6.3 1.7-9.5 2.7-16.7 2.7-30.2-.2-.5-.1-.6 0-.6.4 0 .7 1.3 1.5 2.8 1.8 2.4.4 4.4 2.3 4.8 4.5.6 3.4 3.5 4 5 1 .3-.7.8-1.2 1-1.2.2 0 .7-.3.9-.7 1.2-1.5 7.9-.6 9.8 1.3 1.5 1.5 3.9 1.1 3.9-.6 0-1.1.5-2.3 1.1-2.5.3-.1.6-.4.7-.7.7-1.8 5.9-1.8 7.1 0 1.1 1.8 2.9 1.1 2.7-1.2-.2-1.6 0-2.3.8-4.2.3-.5.5-.5-3.5.6m-107.1.3c-1.7.7-2.7 2.7-2.3 4.3.5 1.9 2.4 2.9 2.4 1.3 0-1.8 2.1-3.4 3.6-2.8 1.1.4 1.3.2 1.1-.7-.3-1.4-3.4-2.7-4.8-2.1m63.1 2.2c-6.5 1.1-10.1 4.8-10.4 10.5l-.1 2.5 1.1 2.3c1.5 3 2.4 3.9 1.6 1.7-.3-.8-.5-1.7-.5-2 0-.3-.1-1.3-.1-2.2-.2-2-.1-1.9.6.7 2.3 7.9 9.5 10.2 16.2 5.2 2.9-2.2 3.2-6.1 1-12.1-.2-.5-.2-.5.4 0 .8.7 1.7 3 2 5.4l.3 2.1.3-1.3c.6-2.4 0-4.8-1.8-7.6-2.2-3.6-6.9-5.8-10.6-5.2m-171.9 1.1c.1.2 0 .2-.4 0-.3-.2-.6-.4-.7-.6-.1-.2 0-.2.4 0 .3.2.6.4.7.6m124 .2c-2.3 1.6-2.1 5.7.2 5.7 1 0 1.8-.9 1.8-2 0-.2.2-.4.5-.4s.7-.2 1-.5c.6-.7.9-.7 1.5.1 1.4 1.8 2.1.2.8-1.7-1.5-2-3.9-2.5-5.8-1.2m88.1.3c-1.9.5-3.5 2.8-2.9 4.2.4.9 1.1.7 1.4-.4.2-.8.3-.9.6-.4.9 1.5 1.7 1.7 3.2 1.1.4-.2.5 0 .5 1 0 2.1 1.4 1.4 1.8-.8.3-3-2-5.4-4.6-4.7m51.4 2.2c-.3 2.7.6 5.9 2.4 8.6.5.8.9 1.5.8 1.7-.1.2.3.9.9 1.5 1.4 1.5 1.4 2.3 0 1.2-4.8-3.8-7-10.2-4.7-13.8.6-.9.8-.7.6.8m-87.5 5.7c.3.2.8.4 1.1.4 1.3 0 1.9.4 1.7 1.3-.2.7-.3.7-1.8.7H240l-.3 1c-.8 2.9 0 4.6 2.2 4.6 1 0 1 0 1 .8v.8l-1.4-.1c-1.1-.1-4.8-.9-5.2-1.2 0 0 .1-.9.4-1.9.5-2.2 1.2-7.3 1-7.6-.2-.3-1.7.4-1.9.9-.3 1.1-3.9 3.8-4.3 3.4-.7-.7 5-7.8 7.5-9.3l.8-.5.1 3.2c.1 2.7.2 3.2.7 3.5m-32.7-5.1c-1.7 1-3 4.1-2.7 6.1.6 2.9 2 3.3 1.7.4-.2-2-.1-2.1.9-1.3 1.5 1.2 3.5.1 4.1-2.2.3-.9.4-1.2.7-1.1 2.1.9 2.6.8 1.7-.4-1-1.5-4.9-2.4-6.4-1.5m53.1.7c-2.5.7-4.4 3.6-3.5 5.3.4.8 1.1.6 1.1-.2 0-.4.3-1.1.6-1.6.5-.9 1-1.2 1-.6 0 1.3 2.4 2 3.5 1.1.8-.7 1-.4 1 1.3 0 2.2 1.1 2.1 1.7-.2.5-1.7-.1-3.6-1.3-4.1-.3-.2-1-.5-1.5-.8-1-.6-1.2-.6-2.6-.2m72.7 2.1c.1 3.4 1.3 5.9 3.5 7.3 2.4 1.5 3.4 2.6 4.3 4.6.5 1 .9 2 1 2.1.5.8-1.4-1-2.3-2.2-.6-.8-2-2.3-3.2-3.3-4.1-3.4-5.6-6.7-4.2-9.3.7-1.2.9-1 .9.8m-249.9-.7c-.1.2.2.9.6 1.6.4.7.8 1.5.8 1.8.1.8 1.6 4.2 2.2 5.2.3.4.9 1.4 1.4 2.1 1 1.6 2.7 2.9 4.2 3.1.5.1 1.2.4 1.5.6 1.1 1 8 .6 11.5-.6 3.3-1.2 4.5-1.9 2.5-1.6-7.2 1-14 .8-16.5-.5-1.3-.7-4.1-4.6-4.8-6.9-1.1-3.1-3-5.9-3.4-4.8m208.8 7.5c-.1.2.4 1.1 1.2 2.1.7.9 2 2.7 2.8 3.9.8 1.2 2.2 3 3 4 9.7 12 10 12.7 7.4 15.4-1.2 1.3-1 1.4.8.6 1.8-.7 1.9-1 2.2-4.2.3-2.9.3-2.8-2.2-6-2-2.5-2.8-3.5-5.8-6.7-1-1-2.6-2.9-3.7-4.1-4.2-5-5.4-6-5.7-5m40.3 6.5c.4.5.7 1.2.7 1.5 0 .3.2.8.4 1.2 1.3 2.2 1.9 2.8 3.1 3.6 1.1.7 1.2.8.5.6-1.7-.4-3-1.2-3.6-2.3-.3-.6-.9-1.5-1.3-2s-.7-1.1-.7-1.3-.7-1.1-1.6-2c-.8-.8-1.5-1.7-1.5-1.9.1-.8 3.2 1.4 4 2.6M162.6 280c-1.9.5-3.5 1.6-4.2 3.1-2.3 4.6-5.4 12.5-6.1 15.3-.2 1-.7 3-1.1 4.4-.8 3.1-.8 3.4-.1 3.8.8.4 1 0 2.2-3.7 2-6.4 6-14.3 7.8-15.4.3-.2-1.1 3.7-1.7 4.9-.7 1.4-2.1 5.8-2.3 7.5-.6 4.1-.6 3.8.1 4.4.3.3 1.3.8 2.2 1.2.8.3 2.2 1 3 1.5 3.3 2 5 1.4 6.9-2.4 4.1-8.1 7.2-19.2 5.8-20.7-2-2.3-9.6-4.6-12.5-3.9m175.4 2.4c.2-.1 1 .5 1.7 1.2 1.5 1.5 3.5 2.4 5.9 2.7l1.5.2-.5.5c-1.2 1.2-5.9 1.5-6.2.4-.1-.2-.8-.9-1.6-1.4-1.6-1-2.8-2.6-2.8-3.8v-.7l.8.5c.4.3 1 .4 1.2.4m-227.3.2c-1.3 1.6-5 10.5-4.7 11.4.2.6 1.6 1.3 2.5 1.3.3 0 .5.1.5.3 0 .8-2.2 7-3.5 9.8-.3.6-.5 1.3-.5 1.4 0 .2-.3.2-.9.1-3.5-.7-4.7 1-8.3 11.7-3.2 9.6-3.8 12.3-2.9 12.6.5.2.8-.2 1.3-2 1.6-5.5 8.7-20.3 9.7-20.3.1 0 .8.4 1.6.8 2.6 1.5 3.4 1.3 1.9-.6l-.8-1 .5-1.4c.3-.8 1.1-2.8 1.8-4.5 1.7-4.1 2-6.6 1-8-1-1.4-.9-2.9.6-7 1.4-4 1.5-6.3.2-4.6m175.8 9.6c-1.6 1.3-2 1.8-2 2.5 0 .6 2.4 6.3 2.7 6.3.4 0 .5-.8.1-2.4-.6-2.4-.4-3.3.5-3.4 1.5-.2 4.2 2.2 6 5.4.9 1.6.9 1-.1-1.2-1.3-2.8-4.8-8.2-5.4-8.2-.3-.1-1.1.4-1.8 1m-83.3-.2c-.2.6.6 1.2 1.3 1 .7-.2.9-.6.5-1-.4-.5-1.6-.5-1.8 0m64.3.5c.1.2.3.9.5 1.5.4 1.2.4 1.2 1.4.8 1.1-.5.4-2.5-1-2.6-.9-.1-1 0-.9.3m-1.6.9c.3 1.7.9 2.9 1.3 2.5.4-.4-.5-3.5-1.1-3.5-.3 0-.3.2-.2 1m-2.5.1c-.5.3-.9.7-.9.8 0 .1.1.7.2 1.3l.2 1.1 1.2-.1c1.5-.2 1.5-.2 1-2-.5-1.9-.5-1.9-1.7-1.1m-67.1 3.1c-2 2.1-3.2 6.1-5.2 17-1.4 7.8-.6 6.9 2.3-2.6 1.7-5.6 3.4-9.3 4.6-10.4.5-.4.8-.6.7-.4-.1.2-.6 2.4-1.3 4.9l-1.6 6.6c-1 3.9-.8 4.3 3.5 6.5 4.9 2.5 7.6 1.8 8.6-2.4 3-12.8 2.5-18.7-1.7-18.9-.7 0-2.8-.4-4.7-.8-4.2-1-3.8-1-5.2.5m39.5.5c-.3 2-.2 2.7.4 2.7.6 0 .6-.2.4-2.3-.2-1.6-.5-1.8-.8-.4m2 .9v1.9l1.4-.1 1.4-.1.1-1.5.1-1.5-1-.3c-2-.5-2-.5-2 1.6m-5.7-1.3c-1.9.5-1.6 2.1.4 2.6.6.2 1.4.4 1.6.5.4.1.4-.1.4-1.6.1-2 0-2.1-2.4-1.5m38.6 1.1c-2.9.8-3.1.9-3.1 1.5s-.3.7-.7.2c-.4-.4-3.7 1.4-4 2.1-.2.6.4 1 1.4.9h.9c.1 4.5 3.5 16.5 5 17.5l.9.6 2.7-.6c4.4-1 5-2.1 4.1-6.8-.4-1.9-2.3-7.9-3-9.5-.6-1.5-.2-1.2.7.4 2.1 3.6 2.7 4.7 3.7 7.2 1.4 3.3 1.6 3.3.7.2-1.1-3.7-3.1-12-3.1-12.6.1-1.4-2.9-2-6.2-1.1m-44.4 6.2c-1.3 1.2-1.7 1.8-2 2.9-.9 3.2-2.7 19.1-2.2 20 .4.9.7.1 1.5-4 1.4-7.2 2.4-10.9 3.6-12.6.8-1.2.8-1.3.1 3-.3 1.9-.6 5.3-.7 7.6-.2 5-.3 4.8 2.9 6.3 8.5 4 11.5 4.5 14.2 2.8.7-.4 1.9-1 2.6-1.3 2.6-.9 2.8-2.4 1.2-10.9-.5-2.8-1-5.6-1.1-6.3l-.1-1.2.5.7c.7.9 1.5 3 2.6 7 1 3.8 2.1 6.8 2.5 6.8.1 0 .2-.3.1-.6-.5-2.3-.7-3.5-.9-6.4-.5-6.4-1.5-10.5-2.7-12.2-1.4-1.9-1.4-1.9-3.1-1.9-.8 0-2.8-.2-4.4-.4-3.3-.4-9.4-.9-11.5-.9-1.4.1-1.5.2-3.1 1.6m83.3-.8c-.2.5 2.9 5.8 3.4 6 .9.2.7-.8-.9-3.5-1.5-2.8-2.1-3.4-2.5-2.5m6.3 6.6c-.6.2-1.2.7-1.8 1.6-.5.7-1.2 1.6-1.7 2-.8.7-.8.8-.5 1.1.6.6 1.4.2 2.8-1.2l1.1-1.1.7 1.1c.4.6 1.2 2 1.8 3.2 1.1 2.2 2.9 4.9 7.1 10.9 1.4 2 3.1 4.5 3.9 5.6 1.2 1.8 1.3 1.9 1.2 1.1-.2-1.2-3.5-7.6-5.3-10.4-.8-1.2-2.1-3.7-2.8-5.4-.8-1.8-2.1-4.5-2.9-6.1-1.7-3-1.8-3-3.6-2.4m-164.5 6.4c-2 1.1-.7 3 2.8 4.1 1 .3 2.8 1 4 1.5 3.6 1.5 5.6-.6 2.9-3-2.2-1.9-8.1-3.5-9.7-2.6m-7.9 4.3c-1.6 1.3-5.4 10.7-7.4 18-.9 3.5-.7 4.2.4 1.4 2.4-6 4.8-10.3 6.6-12.1 2.3-2.2 2.4-2.2 1.2.5-.6 1.2-1.5 3.4-2 4.7s-1.3 3.2-1.7 4.1c-3.4 7.2 1.7 7 11.2-.6 1-.8 2.4-1.8 3.2-2.3 3.4-2.3 4.1-2.8 4.7-3.7.7-1.1.9-3.2.4-4.1-2.2-4-14-8.1-16.6-5.9m47.2 8c-.6.4-1.7 3.3-1.7 4.5 0 1.5.9 2.3 2.8 2.7l.8.2.2-1.8c.1-1 .3-2.7.5-3.7s.3-2 .2-2.1c-.1-.3-2.2-.2-2.8.2m88.8.1c-.4.2-1.1.4-1.4.4-.8 0-1 .6-.6 2.4.4 1.8.2 1.8 2.4.9 2.1-.9 2-.6 1.4-2.2-.6-1.8-.8-2-1.8-1.5m-85 .7c-.1.5-1.2 6.4-1.2 6.7 0 1 .8-.1.9-1.3.2-1.3.6-3.5 1.1-5.2.1-.3 0-.5-.3-.5-.2-.1-.5.1-.5.3m2.1.2c-.3.5-1.9 6.9-1.7 7 1 .6 3.2.4 3.8-.3 1.8-2 2.8-5.2 1.8-6.1-.6-.5-3.7-1-3.9-.6m79.3.3c-.8.6.1 4.1 1 3.8.5-.2.5-.3 0-2.3-.5-1.9-.5-1.9-1-1.5m-3.9 1.5c-2.7 1.2-2.6 1.2-1.9 3.1.7 1.8.7 1.8 3.3.6 1.9-.9 1.9-.9 1.4-3.2-.3-1.7-.3-1.7-2.8-.5m8.9 5.1c-3.5.7-9.5 4.5-9.5 6 0 .3.3.2 1.2-.3 1.5-.9 1.4-.9 1.6.2.9 6 1.9 9 3.5 9.8l1.2.6 2.1-.6c4.1-1.2 4.2-2.1 1-10.8-.5-1.3-.5-1.5.1-1.5 1 0 2.9 2.5 3.4 4.5.4 1.4 1.9 4.5 2.1 4.4 1.3-.4-2.2-10.7-4.1-12.2-.8-.4-.7-.4-2.6-.1m-97.3 1.7c-.7.7-3.7 6.8-3.7 7.5 0 .4.5 0 .8-.6.6-1.4 1.7-2.8 2.9-3.7 1.2-.9 2.1-1.2 1.7-.6-.1.2-.4 1.3-.7 2.5-.3 1.2-.8 3.3-1.2 4.8-1.7 6.6.9 9.3 9.9 9.9 3.6.2 4.1-.4 5-6.4.2-1.5.5-3 .7-3.5.2-.4.4-1.5.5-2.4l.2-1.6.4.9c.2.5.6 1.6.9 2.5.6 2.3 1 1.7.8-1.3-.3-4.1-1-4.9-6.2-6.3-1.8-.5-4.4-1.3-6-1.7-3.5-1.2-4.8-1.2-6 0m41.6-.7c-.1.1-.2.7-.2 1.2 0 .6-.1 1.3-.3 1.7-.2.6-.2.8.1 1.1.6.6.7.3.6-2.1 0-1.2-.1-2.1-.2-1.9m1.4 2.2l-.1 2.5 1.4.6c.8.3 1.5.6 1.5.6s.2-1.1.3-2.6c.2-3 .1-3.3-1.8-3.5l-1.2-.1-.1 2.5m22.7.9c0 2.7.1 2.8 1.4 2.1.6-.3.7-.5.6-.9-.1-.3-.3-1.1-.4-1.9-.2-1.3-.6-1.9-1.3-1.9-.3.1-.3 1.2-.3 2.6m-3.3-2c-.1 1.2-.1 6.2.1 6.2.1 0 .7-.2 1.3-.4l1.1-.4-.2-1.2a23 23 0 0 1-.2-2.8v-1.6H247c-.5 0-.9.1-1 .2m-15.6 2.6c-.3 2.5-.2 3.3.5 2.9.3-.2.3-5.4 0-5.4-.1-.1-.3 1.1-.5 2.5m2-1.9c-.1.2-.2 1.6-.3 3l-.2 2.6 1.4.8c.8.4 1.5.8 1.6.9.1 0 .2-1.4.1-3.3l-.1-3.4-1.2-.5c-1-.4-1.2-.4-1.3-.1m11.7 2.2c-.1 1.4-.2 2.9-.3 3.3-.1.8.2 1 1 .5.4-.2.5-4.7.1-5.9-.4-1.1-.7-.3-.8 2.1m-3.2-1.7l-1.1.3-.1 3.4c0 1.9 0 3.4.1 3.4 1.2 0 3.6-1.2 3.4-1.7-.1-.3-.2-1.7-.2-3.2.1-2.9.1-2.9-2.1-2.2m-4.8 2.2c-.5 5.5-.5 5.1.1 5.4 1.1.6 1.1.4.9-3.1-.2-4.1-.7-5.3-1-2.3m2.2-1.1c-.4.5-.2 6.6.1 6.5.2-.1.4-.5.4-1 .1-1.4-.3-5.8-.5-5.5m-18.9 2.5c-.2.3-.7 2.9-1.2 5.9-.5 3-1.1 6.3-1.4 7.4-.5 2.5-.6 4-.2 4.4.5.5 1.1-.2 1.4-1.9.9-4.9 2-8.2 3.6-10.9.9-1.5 1-1.6 2.9-1.2 2.8.6 6.1 1.1 6.3 1 .2-.2.2-.2-1.7-1-.9-.3-2.4-1.1-3.4-1.7-3.8-2.1-5.9-2.8-6.3-2m32.3 2.9c-4.1 1.8-7.9 4.3-5.6 3.6.3-.1 1.2-.4 2-.6 4.7-1.4 5.7-.5 8 6.5.8 2.5 1.7 4.8 1.9 5.1.7.9.7.1 0-2.1-.4-1.2-1-4.2-1.4-6.6-.8-4.4-1.6-6.9-2.2-6.9-.3 0-1.5.5-2.7 1"/></svg>