<?xml version="1.0" encoding="utf-8"?>
<!-- Generator: Adobe Illustrator 22.1.0, SVG Export Plug-In . SVG Version: 6.00 Build 0)  -->
<svg version="1.1" id="svg" xmlns="http://www.w3.org/2000/svg" xmlns:xlink="http://www.w3.org/1999/xlink" x="0px" y="0px"
	 viewBox="0 0 410 410" style="enable-background:new 0 0 410 410;" xml:space="preserve">
<g id="svgg">
	<path id="path0" d="M193.7,36.8c-4.2,4.4-6.2,7.2-10.5,15.5c-1.2,2.3-2.2,4.2-2.2,4.1c0-0.8,3.5-8.2,6.3-13.5
		c2.2-4,1.2-3.1-1.5,1.5c-4.4,7.4-8,15.6-9.8,22.5c-0.3,1.2-0.8,2.6-1,3.1c-0.8,1.6-2.9,11.3-3.3,15.4c-0.2,2.3,0.2,2.9,0.5,0.8
		c0.3-2.3,1.9-10.7,2-10.6c0.1,0.1-0.2,2.5-0.6,5.5c-1,8-1,8.1-0.7,7.8c0.1-0.1,0.4-1.9,0.7-4c0.7-6,3.2-17.7,3.5-16.8
		c0.1,0.2-0.3,2.5-0.8,5.1c-1.5,7.8-1.2,7.9,0.5,0.3c1.5-6.9,2.8-10.7,5.2-15.9c0.6-1.3,2.1-4.7,3.4-7.4c2.8-6.3,4.1-8.3,7.3-11.7
		c1.4-1.4,2.5-2.7,2.4-2.8C195,35.6,194.4,36.1,193.7,36.8 M215.2,38c0.6,1.9,14.4,3.3,21.1,2c4.5-0.8,5.4-1.2,2.3-1.1
		c-13,0.6-17.2,0.4-22.9-1.1C215.2,37.7,215.1,37.7,215.2,38 M239.5,41.6c-1.5,0.5-3.2,1.1-3.7,1.3c-1,0.3-3.6,0.5-9.5,0.5
		c-2.5,0-3.1-0.1-6-1c-2.3-0.7-3.3-0.9-3.6-0.7c-0.4,0.2-0.4,0.3,0,0.3c0.2,0,2.2,0.6,4.4,1.4l4,1.4l4.9,0c5.1,0,5.8-0.1,8.3-1.4
		c0.8-0.4,1.9-0.8,2.4-0.9c0.8-0.2,0.8-0.2,0.4-0.4c-0.4-0.1-0.2-0.3,1.1-0.7c1.3-0.4,1.4-0.6,0.8-0.6
		C242.6,40.7,241,41.1,239.5,41.6 M193,43.3c-4,4.2-5.8,7.4-10.1,17.7c-3.7,8.9-5.5,14.3-6.2,18.9l-0.2,0.9l0.4-0.9
		c0.6-1.5,0.3,0.9-1,8.6c-0.1,0.4,0,0.7,0.1,0.7c0.1,0,0.4-0.8,0.5-1.9c0.9-5.3,1.2-5.8,0.7-1c-0.3,3.2-0.3,4.5,0.1,4.5
		c0.3,0,0.5-1.4,0.5-3.2c0-1.5,0.8-6.9,1.3-8.4c0.4-1.1,0.3-0.5-0.1,3.5c-0.4,3.9-0.5,7.8-0.1,5.9c0.1-0.6,0.5-2.8,0.8-4.8
		c0.6-4.3,1.4-7.3,3.7-13.6c2.1-6.1,2.2-6.7,0.3-3c-0.9,1.7-1.6,2.9-1.6,2.7c0-0.6,1.4-4.5,2.3-6.3c0.5-1,0.9-2,0.9-2.2
		c0-0.4,2.4-6.8,3.5-9c0.5-1,0.7-1.7,0.4-1.5c-0.6,0.6-3.2,5.6-4.2,8.1c-1.3,3.1-1.2,2.1,0-1.3c1.8-4.9,5.6-11.4,8.4-14.5
		C195.1,41.3,194.8,41.3,193,43.3 M242.7,44c-0.9,0.2-2.2,0.7-3,1.2c-1,0.5-1.8,0.8-2.6,0.8c-1.4,0-2,0.5-2,1.8c0,1.1,0.4,1.2,1,0.3
		c0.5-0.7,0.9-0.7,0.7,0.1c-0.3,1.3,0.7,0.9,3.3-1.2c1.6-1.3,4.1-2.6,5.6-3l1-0.2l-1.2,0C244.9,43.6,243.6,43.8,242.7,44
		 M215.6,44.1c-0.1,0.1,0.2,0.3,0.7,0.4c0.5,0.1,1,0.3,1.3,0.5c0.2,0.2,1,0.6,1.6,0.8c0.7,0.3,2.3,1.2,3.7,2.1
		c3.2,2.1,4.7,2.3,4.8,0.6c0.1-0.9,0.1-1,0.5-0.6c0.5,0.5,2.2,0.3,2.4-0.2c0.4-1.1-2.3-2-3.6-1.3c-0.8,0.5-0.8,0.5-2.2-0.1
		C221.3,44.8,215.9,43.5,215.6,44.1 M242.2,47c-3.9,2.2-4.5,3.3-1.9,4c2.1,0.6,4.7-0.7,6.3-3c0.9-1.4,0.9-1.4-1.3-1.6
		C243.7,46.3,243.4,46.3,242.2,47 M214,47.3c-1.2,0.3,0.4,2.5,2.8,3.9c1.8,1.1,4.3,1.3,6.2,0.5l0.8-0.3l-0.5-0.8
		C221.5,48.3,216.7,46.5,214,47.3 M193.9,50.9c-0.2,0.2-0.5,1-0.7,1.8c-0.3,0.8-0.6,1.6-0.7,1.8c-0.5,0.6-2.4,7.6-2.9,10.7
		c-0.9,4.8-0.2,13.6,1.3,18.4l0.5,1.5l0.2-3.7c0.1-2.1,0.3-4.4,0.5-5.2c0.4-2.1,1.4-5.7,1.6-5.9c0.8-0.7,3.2-9,2.9-9.9
		c-0.1-0.4-1.7,3.6-2.2,5.9c-0.6,2.4-0.8,2.1-0.4-0.8c0.5-3.4,0.4-4.2-0.2-2.3c-0.3,0.9-0.6,1.6-0.7,1.7c-0.3,0.3,0.1-1.5,1.1-4.7
		c1-3.2,1.1-4.4,0.1-1.7c-0.9,2.5-1.1,3-1.3,2.9c-0.1-0.1,0.1-0.8,0.3-1.6c0.5-1.8,0.5-2.1,0-1.4c-0.4,0.5-0.4,0.5-0.2-0.2
		c0.5-2,0.4-2.2-0.2-0.5c-0.4,1.1-0.9,3.4-1.3,5.2c-0.4,2.2-0.6,2.9-0.7,2.3c-0.1-0.8,0.7-5.5,1.3-8.1c0.2-0.7,0.8-2.4,1.4-3.8
		C194.3,50.9,194.5,50.1,193.9,50.9 M265.3,50.5c0,0.1,0.4,1.1,0.8,2.3c1,2.6,2.4,8.4,3.1,12.2c0.6,3.4,2.4,6.5,2.9,4.7
		c0.7-2.5-1-12.4-2.7-15.5c-0.6-1.1-0.7-0.7-0.3,0.7c0.2,0.7,0.4,1.6,0.4,2l0,0.7l-0.3-0.7c-2.6-5.8-3.1-6.8-2.8-5.2
		c0.2,0.8,0.1,0.7-0.5-0.3C265.6,50.9,265.3,50.5,265.3,50.5 M224.4,52.6c-2.9,3.4,0.2,7.2,3.9,4.8c1.2-0.8,2.8-0.7,2.9,0.2
		c0.1,1,3.7,0.8,3.7-0.2c0-0.5,1.7-0.5,2.8-0.1c3.1,1.2,4.8-0.6,3.4-3.4c-0.8-1.7-1.7-1.9-1.7-0.5c0,0.6-0.2,1-0.4,1.1
		c-0.7,0.3-1.6,0.2-2-0.2c-0.2-0.2-0.6-0.4-0.8-0.4c-0.3,0-1-0.2-1.5-0.5c-2.3-1.2-3.7-1-5.6,0.7c-1.8,1.7-2.9,1.9-3.1,0.6
		c-0.1-0.5-0.3-1-0.5-1c-0.2-0.1-0.2-0.2,0-0.7c0.3-0.5,0.2-0.9-0.2-0.9C225.1,51.9,224.8,52.2,224.4,52.6 M266,61.7
		c0.1,0.7,0.3,1.7,0.5,2.2l0.3,0.9l-0.2-1.2c-0.1-0.6-0.2-1.5-0.2-1.9c-0.1-1.2-0.1-1.4-0.4-1.4C265.9,60.4,265.8,60.8,266,61.7
		 M211.4,62.2c-4,4.5-6,13.4-4.6,20.2c0.8,3.8,3.9,10.3,5.7,12.1l0.8,0.7l-0.7-1.2c-0.4-0.6-0.7-1.2-0.6-1.3s0.3,0.2,0.5,0.6
		c0.4,0.7,2.4,2.7,2.7,2.7c0.2,0,0.1-0.2-1.3-2.3c-1-1.6-0.8-1.4,0.6,0.4c1.4,1.8,1,0.6-0.6-2c-0.9-1.4-1.6-2.7-1.6-2.9
		s0.5,0.6,1.1,1.6c1.2,1.9,2.1,3.2,1.7,2.1c-0.1-0.3-0.2-0.9-0.2-1.4c0-0.5-0.4-2.4-0.9-4.1c-1.1-3.8-1.4-6.5-0.8-8.9l0.4-1.7l0,3.1
		c0,3,0.4,5.8,1,6.1c0.1,0.1,0.2-1.4,0.2-3.5c0-7.8,3.4-14.8,8.9-18.4c1.2-0.8,0.6-0.8-0.7-0.1c-0.6,0.4-2,1.6-3.1,2.7
		c-1.1,1.1-1.9,1.9-1.9,1.8c0-0.4,2.6-3.8,3.4-4.4c0.4-0.3,0.6-0.6,0.6-0.8c0-0.5-3.1,2.7-4.4,4.5c-1.5,2.1-2.4,3.9-3.2,6.6
		c-0.8,2.8-0.6,0.9,0.3-2.4c0.3-1.2,0.6-2.4,0.5-2.5c-0.1-0.1,0.3-1.1,0.8-2.2c0.7-1.4,0.8-1.8,0.4-1.4c-1.1,1.1-2.9,5.3-3.7,8.7
		l-0.3,1.5l0.2-1.9c0.2-2.3,1.2-6.2,2.1-8.2c0.4-0.8,0.6-1.5,0.5-1.4c-0.4,0.2-2.1,3.4-2.3,4.2c-0.1,0.4-0.2,0.7-0.3,0.6
		c-0.1-0.2,0.8-3.1,1.4-4.2c0.6-1.2,0.2-0.9-0.5,0.4c-0.8,1.4-1.9,4.2-2.4,6.1c-0.5,2.1-0.4,0.5,0.1-2.1c0.3-1.3,0.8-3.1,1.2-4
		c0.4-0.9,0.6-1.7,0.6-1.8c-0.3-0.3-1.6,2.2-2.2,4.1c-0.7,2.4-1,2.8-0.8,1.2c0.1-0.7,0.1-0.9-0.1-0.6c-0.4,0.6-0.4-0.2,0.1-1.7
		c0.6-1.9,0.2-1.8-0.4,0.1c-0.6,1.7-1.3,2.5-0.9,1.2c0.3-1.4,1.7-4,3-5.8C213.2,60.7,213,60.3,211.4,62.2 M225.1,61.4
		c-0.6,0.2-1.5,0.7-2,1.2c-0.8,0.7-0.8,0.7,1.2-0.3C227.1,60.8,227.3,60.6,225.1,61.4 M235.4,62.5c0,0.1,0.2,0.5,0.5,0.8
		c1.8,2.3,2,2.8,0.6,1.3l-1.4-1.5l0.6,1.1c0.7,1.3,5.6,6.1,8.9,8.7c1.3,1,2.7,2.4,3.1,3.1c0.4,0.7,0.8,1,0.8,0.8
		c0-1.2,3,2.6,4.5,5.8c2.8,5.7,3.6,10.1,2.8,17c-0.2,1.8-0.2,2.1,0.1,1.8c0.3-0.3,0.4-1.6,0.3-6.3c0-5.2,0.3-6.6,0.4-1.9
		c0.1,4.1,0.5,2.8,0.4-1.6c0-2.7,0-4.8,0-4.8c0,0,0.3,0.9,0.5,1.9l0.4,1.8l-0.1-2.1c-0.1-2-0.3-3.5-1.1-7.3c-0.4-2-0.1-2,0.4,0
		c0.2,0.8,0.5,1.8,0.8,2.2c1.1,2,1.6,12,0.7,16c-0.3,1.2-0.4,2.4-0.4,2.7c0.3,1.1,1.5-5.3,1.6-8l0-1.6l0.2,1.3
		c0.2,1.4-0.1,5.4-0.5,7.4c-0.3,1.4-0.3,1.5,0,1.5c0.1,0,0.3-0.3,0.3-0.7c0-0.4,0.3-1.9,0.7-3.3c2.2-8-2.5-26.1-8-31.1
		c-1.3-1.2-1.4-1.1-0.3,0.5c0.5,0.8,1.2,2.2,1.6,3.1c0.7,1.8,0.6,1.7-0.9-0.7c-1-1.6-1.5-2-1.1-0.8c0.6,1.7,0.1,1.4-1.3-0.9
		c-1.5-2.3-3.5-4.4-5.4-5.7c-0.7-0.5-0.7-0.4,0.4,0.7c1.1,1.2,3,3.8,3.6,4.9c0.1,0.2-0.3-0.1-0.8-0.7c-0.9-1-3.6-3.1-4.6-3.7
		c-0.2-0.1,0.6,0.8,1.9,2.2c3,3.1,3.5,3.9,1,1.6c-2.6-2.4-6.9-5.5-7.8-5.5c-0.5,0,0,0.6,0.9,1c2.3,1,7.1,5.1,9.4,8.1
		c2,2.6,1.8,2.7-0.7,0c-1.8-1.9-2.8-2.7-3.1-2.6c-0.2,0.1-0.9-0.2-1.5-0.6c-1.8-1.4-1.6-0.8,0.5,1.1c1.1,1,2,2,1.9,2
		c-0.1,0.1-4.2-3.2-5.2-4.3c-0.4-0.4-0.8-0.7-1-0.7c-0.2,0-1.3-1-2.5-2.2C236.4,63.3,235.4,62.4,235.4,62.5 M215.4,63
		c-0.8,0.9-1.1,1.4-1,1.4c0.1,0,0.5-0.4,0.8-0.9C216,62.5,216.1,62.2,215.4,63 M230.5,64.5c-1.1,2.7-2.9,5.1-7.1,9.4
		c-3.8,3.8-3.8,3.6-0.1-0.7c2.7-3.1,4.2-5.1,5.2-7.2c1.3-2.6,1-2.5-0.8,0.2c-0.9,1.3-2.6,3.4-3.8,4.6l-2.3,2.2l1.6-2
		c3-3.7,5.8-8,5.2-8c-0.1,0-0.5,0.4-0.8,0.9c-0.3,0.5-1,1.4-1.5,2c-0.5,0.6-1.9,2.5-3.2,4.2c-2.6,3.5-3,3.8-1.8,1.6l0.8-1.5l-1,1.1
		c-0.6,0.6-1.3,1.4-1.6,1.9c-0.4,0.6-0.3,0.2,0.4-1.2l1-2l-0.9,0.9c-2.9,2.8-4.4,9.9-3.6,17.7c0.3,3,0.9,3.3,1,0.4
		c0.1-2.2,0.7-5,1.8-7.1c1.2-2.4,1.3-2.5,1.5-1.1c0.1,0.6,0.4,2,0.6,3.1c0.6,2.9,0.3,3-0.4,0.1c-0.8-3.2-0.9-3-0.4,1.1
		c0.6,4.5,0.2,6.1-0.4,2.1c-0.6-3.7-0.9-3.7-0.7,0c0.1,2,0.1,4.4-0.1,6.4c-0.3,3.1-0.3,3.3,0.2,3.9c0.6,0.7,0.9,0.5,0.9-0.6
		c0-0.5,0.1-0.9,0.3-0.9c0.2,0,0.2,0.6,0.1,1.8c-0.2,1.7,0.2,2.2,0.5,0.6c0.1-0.4,0.1,0.2,0.2,1.3c0,1.5,0.1,1.8,0.3,1.3
		c0.2-0.5,0.2-0.5,0.2,0.5c-0.1,3.4,0.4,2.7,1.3-2c0.8-4.3,1-11.3,0.3-15.7l-0.4-2.4l0,2.2c0,1.2,0,2.3-0.1,2.3
		c-0.1,0.1-0.3-1.1-0.9-7.2c-0.1-1.1-0.1-1.2,2.2-3.4c1.8-1.7,2.2-2.3,1.9-2.5c-0.3-0.1-0.2-0.4,0.7-1.1c2-1.8,5.8-8.8,4.8-8.8
		C231.3,62.8,230.9,63.6,230.5,64.5 M265.4,65.5c0,1.1,0.3,2.4,0.5,2.9c0.3,0.7,0.4,0.8,0.3,0.3c-0.1-0.4,0.2,0,0.6,0.8
		c0.7,1.4,2.1,4,3.4,6.3c0.4,0.6,0.6,1.1,0.5,1.1c-0.2,0-2-2.6-2.6-3.7c-0.7-1.3-0.9-1.4-0.5-0.2l0.2,0.9l-0.5-0.7
		c-0.3-0.4-1-1.7-1.5-3c-1.1-2.5-1.5-2.7-0.8-0.4c0.6,2.2,3,6.6,5.8,11c1.4,2.2,2.9,4.8,3.3,5.9c0.5,1.2,1.2,2.4,2.1,3.3
		c1.8,1.9,2.1,1.7,1.8-1.3c-0.4-5.8-1.8-8.9-6.9-15.8c-3.3-4.4-3.3-4.1,0.1,1.4c2.7,4.4,2.2,4.4-0.7,0c-2.9-4.3-2.8-4.2-4.3-7.9
		l-1.1-2.9L265.4,65.5 M198.9,67.8c-0.5,0.9-1.4,2.8-2,4.4c-0.6,1.5-1.2,2.7-1.2,2.5c0-0.6,1.1-4.1,1.7-5.6c0.4-0.9,0.7-1.7,0.6-1.8
		c-0.2-0.5-1.5,2-2.3,4.4c-1.6,4.3-1.7,3.9-0.4-1.2c0.4-1.6-0.5,0.6-1.3,3.1c-2.3,7.1-2.1,13.9,0.5,19.5c0.2,0.5,0.3,0.6,0.3,0.4
		c-0.3-1.1-1.2-6.7-1.2-7.6c0-2,0.4-2,0.6,0c0.3,2.9,0.4,3.5,0.9,3.5c0.4,0,0.4-0.3,0.3-2.1c-0.2-2.2,0.3-4.5,1.4-6.8
		c0.5-1.1,1.8-7.6,1.6-7.8c-0.1-0.1-0.3,0.5-0.6,1.2c-0.6,1.5-1,2.2-0.8,1c0.3-1.3,1.9-5.6,2.5-6.8C200.3,66.1,199.9,66,198.9,67.8
		 M223.1,67.9l-1.1,1.4l1-0.9c0.9-0.9,1.7-1.9,1.4-1.9C224.3,66.5,223.7,67.2,223.1,67.9 M230.8,67.9c-1,1.9-0.8,2,5.1,2.7
		c1.4,0.2,2.8,0.3,3.1,0.4c0.9,0.1,0.8-0.1-1.4-2l-2-1.8H234c-1,0-1.8-0.1-1.9-0.3C231.8,66.3,231.5,66.5,230.8,67.9 M203,69.7
		c-1.2,2.5-1.4,2.4-0.4-0.3c0.7-1.9,0.4-1.8-0.5,0.1c-1.5,3.3-1.4,3.2-1.2,2c0.1-0.6,0.2-1.2,0.3-1.5c0.1-0.3,0-0.3-0.3,0.1
		c-3,3.7-2.9,14.2,0.2,23.7c1.5,4.6,1.5,4.1,0.1-1.4c-0.7-2.7-1.2-5.6-1.3-6.9l-0.2-2.3l0.5,2.7c0.6,3,1.5,6.6,2,8.1
		c0.2,0.5,0.7,2,1.1,3.3c1.2,3.9,1.1,2.4-0.1-1.9c-1.2-4.4-1.3-5-0.6-3.2c0.7,1.6,0.7,1.2-0.1-2.3c-0.9-3.9-1.2-6.9-0.4-3.7
		c1.1,4.3,2.5,9.5,2.6,9.2c0-0.1-0.3-1.9-0.9-3.9c-1.9-7.2-1.9-14.8-0.2-19.5c0.4-1.1-0.1-0.8-0.8,0.5c-0.9,1.8-0.5,0,0.7-2.6
		c0.5-1.2,1-2.3,1.1-2.5c0.1-0.2,0-0.3-0.1-0.3C204.4,67.1,203.7,68.2,203,69.7 M140.5,69c-0.1,0.2-0.7,2-1.1,3.9
		c-0.7,2.7-1,3.8-1.5,4.2c-0.3,0.3-0.6,0.6-0.6,0.7c0,0.4,0.7,4,1.5,7c0.5,2.1,1.1,4.9,1.3,6.4c0.7,4.3,1,5.2,1.4,5.2
		c0.2,0,0.4-0.3,0.4-0.6c0-0.8-0.5-6.4-0.7-7.8c-0.1-0.8,0.2-0.2,1.2,2.1c0.8,1.8,2.2,4.4,3.2,6c3.7,5.6,3.8,6.1,0.4,2.1
		c-2.1-2.3-2-2.4-2.1,1.8l-0.1,3.6l1.3,0.7c3.2,1.6,6.7,3.9,4.4,2.9c-0.5-0.2-1.8-0.8-2.8-1.2c-2.4-1-2.8-1.5-4.8-4.7
		c-2.5-4.2-3.1-4.5-4.3-2c-0.9,2-3.2,3.6-6.7,4.7c-0.8,0.3-1.8,0.7-2.3,1c-0.9,0.5-1.3,0.5-2.9,0c-0.4-0.2-1.1-0.4-1.5-0.4
		c-0.4-0.1-0.7-0.3-0.7-0.5c0-0.2-0.4-1.7-0.9-3.2c-0.5-1.6-0.9-2.9-0.8-3c0.4-0.4,2.3,1.5,3,3c1.5,3.1,3,4.6,3.4,3.5
		c0.1-0.2,1.2-0.9,2.4-1.5c2.7-1.3,2.7-1.2,1.1-5.7c-1.2-3.4-1.6-4.1-2.4-4.1c-1,0-2.5-2-6.3-8.3c-2.8-4.7-3.5-5.5-4.3-5
		c-0.7,0.3-0.7,10.6,0,11.2c0.7,0.7,1-0.3,1.1-4l0.1-3.7l0.5,1.6c0.4,1.3,2,8.4,2.5,11.2l0.1,0.8l-0.6-0.8c-0.3-0.4-1-1.3-1.4-1.9
		c-1-1.3-1.7-1.4-2-0.2c-0.3,1,0.8,4.2,2.6,7.8c1,2,1,2.1,0.5,2.1c-0.7,0-4.3,6.5-5.1,9.1c-0.1,0.4-0.3,0.8-0.4,1
		c-1.4,1.7-3.4,10-3.4,13.8c0,2.6-0.8-0.4-1.5-5.6c-0.6-4.5-0.2-5.7,2.3-6.9c2.4-1.2,1.5-1.5-2.8-1.2c-4.1,0.3-5,1.4-3.7,4.1
		c1.4,2.7,4.9,16.3,5.3,20.3c0.4,4.1,2.6,10.9,3.3,10.2c0.5-0.5,0.5-2.8,0-4.9c-0.5-2.1-0.5-12.7,0-15c1.2-6.4,2.6-11.1,3.7-12.7
		c5-7.5,7.2-8.5,11.2-5.4c1.1,0.9,1.9,1.7,1.8,1.8c-0.1,0.1-0.2,3.4-0.2,7.3c0,5.8-0.1,7.2-0.4,7.4c-0.2,0.2-0.6,0.7-0.9,1.2
		c-0.7,1.4-3.4,5.4-4.8,7.1c-0.7,0.8-1.1,1.6-1.1,1.7c0.1,0.2-0.9,0.5-4,1.1c-2.6,0.5-2.5,0.4-2.5,1.8c0,1.5,0.5,1.7,1.8,1
		c1.6-0.9,5.7-1.7,7.4-1.5l1.4,0.2l1.7-3.2c2.7-5.2,3.8-6.7,5.7-8.8l1.8-1.9l3,1.4c4.3,2,4.1,2.1,8.6-1.6c0.9-0.8,1.2-2.6,1.2-7.2
		c0-3.9,0-4-2.7-4.8c-1.2-0.4-2.7-1-3.5-1.3c-2-1-5.9-0.1-6.3,1.5c-0.3,1.6-0.5,3-0.8,6.7c-0.3,3.9-0.3,4-1,4.4
		c-1.2,0.8-1.3,0.4-1-8.6c0.1-3.9,0.2-4.3,0.7-4.6c0.3-0.2,1.2-0.7,2-1.2c3.4-2.1,3.7-2.1,10.3,1.2c3.5,1.7,3.8,1.9,3.7,2.5
		c-0.1,0.3-0.3,2.9-0.4,5.8c-0.1,2.8-0.3,5.2-0.3,5.2s-0.4,0.2-0.8,0.4c-0.4,0.2-0.8,0.5-0.8,0.8c0,0.2-0.4,0.6-0.8,0.9
		c-0.4,0.3-1,0.8-1.3,1.3c-0.3,0.5-0.7,1.3-1.1,1.8c-0.6,0.9-0.7,4.1-0.2,6.3c0.1,0.3,0.2,1.4,0.2,2.5c0.1,2.6,1,6.1,1.6,6.5
		c0.7,0.5,0.3,2.7-0.6,3.4c-1.1,0.8-4,2.6-4.3,2.6c-0.6,0-0.2-0.6,1.9-2.5c2.5-2.3,2.6-2.6,1.4-5.1c-0.6-1.2-0.8-2.3-1.1-4.7
		c-0.3-3-0.7-5.9-1-6.7c-0.1-0.2-0.9-0.9-1.9-1.4c-1-0.5-2.5-1.4-3.4-1.9c-1.9-1.2-2.1-1.2-2.9-0.1c-0.6,0.8-6.6,12.8-6.6,13.2
		c0,0.1-0.2,0.4-0.5,0.7c-0.6,0.5-0.6,0.6,0.7,3.9c0.9,2.3,0.7,2.5-0.6,0.4c-0.9-1.5-1.4-1.6-3.2-0.8c-2.2,1-2.1,0.4,0-0.9
		c0.8-0.5,0.9-0.7,0.9-1.8c0-2-0.6-2.5-3-2.6c-3.4-0.2-5.3,1.4-3.4,2.8c0.9,0.7,2.8,3,2.6,3.1c-0.1,0.1-0.5-0.2-0.9-0.5
		c-1.8-1.5-2.4-0.6-1.1,1.6c1.8,3.2,4.4,5.3,7.4,6.1c0.9,0.3,1.7,0.5,1.7,0.6c0,0.1,0.4,0.3,0.9,0.4c0.5,0.1,1.3,0.3,1.9,0.5
		l1.1,0.3l-1.4,0.2c-2.5,0.3-2.5,1.6-0.1,2c2,0.3,2.3,0.7,0.6,0.7c-4.2,0-7.4,1.9-8.1,4.7c-0.2,0.7-0.6,1.9-0.9,2.7
		c-1.1,2.3-0.1,5.1,1.2,3.5c0.5-0.6,2.1-0.5,3.1,0.1c1.8,1.1,1.6,4.2-0.4,5.6c-1,0.7-1.1,0.5-0.3-0.4c0.7-0.9,0.7-1.8-0.1-3.3
		c-1.1-2.2-3-1.5-4.6,1.7c-0.6,1.2-0.7,1.7-0.2,3c0.1,0.3,0,0.4-0.4,0.4c-0.5-0.1-0.7,0.1-1.1,1.2c-0.3,0.7-0.9,2.2-1.4,3.2l-1,1.9
		l0.5,2.1c0.8,3.3,0.8,3.4,3.3,5c2.4,1.6,2.8,2.1,2.5,3.7c-0.2,1.1,0.6,1.9,2.5,2.5c2,0.6,2,0.6,2.9-1c1.6-2.7,4-3.7,4.3-1.7
		l0.1,0.8l0.4-0.8c0.6-1.1,0.7-0.1,0.2,1.7c-0.7,2.5,0.5,2.2,1.7-0.5c1.7-3.8,4.9-4.4,3.8-0.7c-0.8,2.6,0.1,2.4,1.7-0.4
		c1.1-2,2.5-3.4,3.6-3.6c2-0.4,2-0.4,3.8-4c2-3.9,3.7-8.3,4.5-11.1l0.5-1.9l-1.7-2.2c-2-2.6-2.6-5.5-1.3-5.5c0.3,0,2.2,1.4,2.7,2
		c0.6,0.7,0.8,0.5,0.7-0.4c-0.3-1.4-3.8-4.2-6.8-5.2l-1.7-0.6l1.8,0.1c2,0.1,2.6-0.5,0.8-0.8c-0.5-0.1-1.5-0.3-2.2-0.5l-1.2-0.3
		l2.1,0c1.2,0,2.1-0.1,2.1-0.3c0-0.4-0.3-0.5-4.2-0.9c-4.6-0.5-4.9-0.8-0.8-0.9c4.6,0,6.3-0.3,10.9-1.6c4.8-1.4,4.6-1.3,5.4-3.3
		c0.9-2.4,3.5-4,6.4-4c1.1,0,1.5-0.3,2.5-1.6c0.9-1.3,0.9-1.3-0.7-1.4l-1.4-0.1l-0.1-1.1c-0.1-1.4,0.7-2.3,2.9-2.9
		c3.3-0.9,3.6-1.1,3.7-1.5c0.2-0.9-0.2-1.8-0.9-2.1c-0.6-0.3-0.7-0.4-0.7-2.5v-2.2l1.1-1.1l1.1-1.1l-0.2-3.4c-0.2-3.7-0.8-6.4-2-9.2
		c-0.9-2-1.3-2.2-1.5-0.8c-0.1,0.6-0.3,1.5-0.4,2.2c-0.1,0.7-0.3,1.7-0.4,2.3c-0.4,2.6-5.3,6.1-7.4,5.5c-0.5-0.1-1.2-0.3-1.6-0.4
		c-0.5-0.1-0.9-0.5-1.4-1.4l-0.6-1.3l1.6-1.8c2.2-2.5,2.4-2.4,2.2,0.6c-0.2,2.9,0,2.9,1.1,0.7c0.9-1.9,1-2.6,0.5-3.7
		c-0.4-0.7,0.4-3.3,2.9-9.1c0.4-0.9,0.6-1.6,0.6-1.7c-0.1-0.1-4.4,3.7-7.1,6.4c-4.4,4.3-1.7-0.5,4.8-8.5c0.7-0.9,0.9-1.6,0.2-0.9
		c-0.2,0.2-2,0.3-2,0.1c0-0.1,0.3-0.5,0.7-0.8c1.3-1.2,0.7-1.9-0.9-1.1c-1.4,0.7-1.8,0.7-1.1-0.1c0.7-0.7,0.6-0.7-0.9-1.1
		c-0.5-0.1-1,0-1.4,0.3c-0.8,0.6-1.2,0.3-0.5-0.4c0.5-0.5,0.5-0.5-0.5-0.5c-1.3,0-2.6,1.1-5.7,4.6l-1.3,1.5l-0.2-3
		c-0.2-2.6-0.4-4.7-1.5-13c-0.2-1.9-0.5-2.4-0.8-2.2c-0.1,0.1-0.1,2.5-0.1,5.4l0.1,5.3l-0.6-0.9c-0.4-0.5-1.6-2.1-2.7-3.5
		c-1.4-1.8-2.1-2.9-2.2-3.6c-0.1-0.5-0.7-2.6-1.3-4.6c-1.1-3.5-1.4-5.7-0.8-6.6c0.4-0.6,2.1,0.7,5.6,4.1c4.8,4.7,5.6,4.9,2.9,0.8
		c-0.8-1.3-1.9-3-2.5-3.8c-0.5-0.8-1.1-1.7-1.4-2c-0.9-1.1-6.4-10.4-6.7-11.4C141.4,68.6,141,68.4,140.5,69 M232.5,71.9
		c-3.2,0.3-5.2,0.8-5.7,1.3c-0.6,0.6-0.7,1.8-0.1,2.2c0.4,0.3,0.5,1.1,0.7,5.1c0.1,2.6,0.4,5.3,0.5,5.9c0.4,1.7,0.3,1.7-0.3,0
		c-0.5-1.4-0.8-2.9-1.6-6.6c-0.2-1.1-0.5-1.6-0.5-0.8c0,2.6,1.9,10.8,3.5,14.6c1.5,3.9,4,8.3,4,7.2c0-0.1,0.2,0,0.5,0.2
		c0.2,0.2,0.4,0.2,0.3,0.1c-0.5-0.8-1.6-3.4-1.5-3.5c0.1-0.1,0.4,0.4,0.7,1c1.1,2,3,4.8,3.1,4.7c0.1-0.1-0.2-0.8-0.5-1.6
		c-0.7-1.7-1.6-4.4-1.4-4.6c0.1-0.1,0.6,1,1.1,2.4c1,2.6,1.4,3.1,1,1.3c-0.1-0.6-0.3-1.7-0.4-2.5c-0.2-1.8,0.2-1.5,0.6,0.5
		c0.8,3.5,1.1,3.3,0.9-0.4c-0.2-3.6,0.2-8.6,0.9-12c0.5-2.7,1-8,0.8-8.6c-0.3-1-0.6-0.2-0.8,2.1c-0.1,1.3-0.4,3.2-0.7,4.2
		c-0.5,1.8-0.5,1.8-0.4,0.5c0.4-4.8,0.5-6.9,0.1-6.7c-0.3,0.1-0.5,0.9-0.7,2.8c-0.2,1.5-0.6,4.3-1.1,6.2l-0.8,3.6l-0.1-1.7
		c0-0.9,0-2.5,0.2-3.5c0.2-1,0.4-2.7,0.6-3.8c0.2-1.1,0.2-2.6,0.2-3.3c-0.1-1,0-1.4,0.2-1.3c0.2,0,0.4-0.3,0.4-0.7
		c0.1-0.9,0.7-0.8,0.8,0.2c0.1,0.9,0.5,0.9,0.7,0c0.3-1.4,0.6-1.9,0.5-0.6c-0.1,1-0.1,1.2,0.3,1c0.2-0.1,0.9-0.2,1.4-0.3
		c1.1-0.2,1-0.5,1.1,3.5l0,2.7l-0.4-1.4c-0.4-1.4-1.3-2.1-1-0.8c0.6,2.4,1.5,9.6,1.3,10.5c-0.1,0.6-0.3,0.8-0.3,0.5
		c0-0.3-0.1-0.4-0.3-0.3c-0.7,0.8-0.5,11.1,0.2,10.7c0.2-0.1,0.3,0.1,0.3,0.7c0,0.8,0.1,0.8,0.8-0.7c0.9-1.8,1-1.7,0.4,0.5
		c-0.7,2.8-0.7,2.7-0.1,2c0.3-0.4,0.6-0.9,0.7-1.1c0.2-0.5,0.7-0.7,0.7-0.2c0,0.2-1.2,4.2-1.5,4.9c-0.1,0.3-0.1,0.5,0.1,0.5
		c0.3,0,1.4-2.3,2.1-4c0.4-1.1,1.7-3.2,1.7-2.6c0,0.2-0.2,1.1-0.5,2.1c-0.8,2.6-0.5,2.2,0.9-1c3.1-7,3.9-10.4,3.9-16.8
		c0-6.7-1.4-9.3-1.6-3.1c-0.2,5.1-0.4,5.7-0.5,1.5c-0.1-3.5-0.4-5.7-0.5-3.1c-0.1,1.8-0.5,1.1-0.5-0.8c0-2.2-1-4.8-2.2-6
		C241.3,71.7,239.2,71.2,232.5,71.9 M208.7,78.1c-0.1,0.9-0.1,0.2-0.1-1.5c0-1.8,0-2.5,0.1-1.7C208.7,75.7,208.7,77.1,208.7,78.1
		 M243.1,75.2c-0.1,0.7,0.3,0.9,0.8,0.4c0.3-0.3,0.7,0.7,1.4,4.5c0.6,3,0.7,4.7,0.2,2.8c-0.5-1.9-0.6-1.6-0.8,2.1
		c-0.1,1.9-0.3,4.3-0.4,5.1l-0.2,1.6l-0.2-1.9c-0.1-1-0.2-3.5-0.2-5.4c0-2.3-0.2-4.5-0.6-6.4c-0.5-2.6-0.5-3.6-0.1-3.6
		C243.1,74.5,243.1,74.8,243.1,75.2 M229.3,77.2c0,1,0.1,3.3,0.1,5.1l0.1,3.3l-0.4-2c-0.4-2.4-0.5-8.3-0.1-8.3
		C229.2,75.3,229.3,76.1,229.3,77.2 M233.6,76.9c0.1,0,0.2,0.6,0.2,1.3c0,0.8-0.1,1-0.2,0.5c-0.3-1.7-0.6-0.5-0.9,3.2
		c-0.4,5.3-0.5,5.7-0.4,1.5c0.2-5.5,0.4-7.9,0.7-7.1C233.2,76.7,233.4,76.9,233.6,76.9 M231.2,79.8c-0.1,1.6-0.3,3.1-0.4,3.2
		c-0.3,0.3-0.2-5.3,0.2-5.8C231.4,76.4,231.4,76.6,231.2,79.8 M221.2,80.3c-0.1,0.4-0.1,0.1-0.1-0.6c0-0.7,0-1.1,0.1-0.7
		C221.3,79.3,221.3,79.9,221.2,80.3 M160.6,83.2c-0.4,0.4-3.6,5.1-4.1,6.2c-0.5,1,0.1,0.9,1.1-0.1c1.1-1.2,2.5-2.1,3-1.9
		c0.2,0.1,0.5,0,0.7-0.1c0.2-0.2,0.7,0.3,1.6,1.4c3.4,4.3,4.1,4.6,2.6,1.5c-0.9-2-1-2.2-0.4-1.7c0.4,0.3,0.4,0.3,0.2-0.2
		c-0.2-0.6,0.2-0.8,0.5-0.3c0.1,0.1,0.4,0.3,0.7,0.3c0.4,0,1.1,0.6,2.1,1.6c1.8,1.9,2.1,1.5,0.5-0.7c-2.5-3.3-5.5-6.1-6.4-5.9
		c-0.5,0.1-0.9,0.1-1-0.1C161.7,82.7,161.1,82.7,160.6,83.2 M175.4,84.5c-0.2,1-0.3,2-0.3,2.1c0.2,0.3,0.9-3.3,0.8-3.7
		C175.8,82.8,175.6,83.5,175.4,84.5 M196.7,84.3c-1,2.6-1,11.4,0,14.1c0.3,0.9,0.6,1.8,0.6,2.1c0,0.7,1,3,1.3,3c0.1,0,0-0.5-0.3-1.1
		c-0.5-1.1-1.4-8.3-1.3-10.6c0-1.2,0.1-0.9,0.5,1.6c0.4,2.3,1.3,5.9,1.6,6.2c0.1,0.1,0-0.7-0.3-1.9c-0.5-2.1-1-5.7-0.7-5.4
		c0.1,0.1,0.4,1.4,0.7,3c0.6,2.9,0.9,3.7,1.2,3.4c0.2-0.2-0.5-5-1.4-8.6c-0.3-1.5-0.8-3.5-0.9-4.6C197.5,83.5,197.2,83.1,196.7,84.3
		 M239.5,85.7c-0.1,0.2,0,1.1,0.2,2.2c0.3,1.8,0.4,1.9,0.6,1.1C240.7,87.6,240.1,84.9,239.5,85.7 M245.7,87.5
		c-0.1,0.4-0.1,0.1-0.1-0.7c0-0.8,0-1.1,0.1-0.7C245.8,86.5,245.8,87.1,245.7,87.5 M270.7,86.5c0,0.7,0.1,0.9,0.1,0.6
		c0.1-0.3,0.1-0.9,0-1.2C270.7,85.6,270.7,85.9,270.7,86.5 M268.5,86.7c0,0.6,0.1,0.8,0.1,0.5c0.1-0.3,0.1-0.8,0-1.1
		C268.6,85.8,268.5,86.1,268.5,86.7 M269.4,86.9c-0.1,0.5-0.3,2.1-0.4,3.5c-0.1,1.9-0.2,2.4-0.4,1.9c-0.1-0.6-0.2-0.1-0.2,1.3
		l-0.1,2.1l-0.4-2.1c-0.2-1.2-0.4-3.3-0.4-4.8c0-1.9-0.1-2.5-0.3-2c-0.4,0.9,0,9.9,0.4,12c0.5,2.1,1.5,4.9,1.7,4.7
		c0.1-0.1,0.3,0.1,0.5,0.3c0.3,0.4,0.4,0.4,0.2-0.4c-0.5-2.9-0.5-2.9,0.5-0.1c0.5,1.3,0.7-0.4,0.2-2.4c-0.4-1.7-0.5-3.5-0.5-7.4
		c0-2.9-0.1-4.7-0.2-4c-0.1,0.7-0.2,2.4-0.2,3.9c0,1.9-0.1,2.7-0.3,2.7c-0.2,0-0.3-1.4-0.2-5.1C269.7,85.8,269.7,85.4,269.4,86.9
		 M323.6,89c-0.8,0.9-2.1,2.5-2.9,3.5c-0.9,1-2.2,2.6-2.9,3.6c-0.8,1-2.9,3.4-4.8,5.4c-4.2,4.6-5.2,6-3.9,6c0.2,0,1.2-1,2.3-2.2
		c1.1-1.2,2.9-3.1,4.2-4.2c1.2-1.1,3.8-3.7,5.6-5.8c1.9-2.1,3.4-3.7,3.5-3.5c0.1,0.4-0.5,6.2-0.8,7.4c-0.3,1.2-10.9,11.7-15.9,15.9
		c-5.4,4.4-8.7,8.6-7.5,9.4c0.2,0.1,1-0.5,1.8-1.3c1.6-1.6,3.5-2.7,6.2-3.6c1-0.3,2.3-0.9,3-1.3l1.3-0.7l-0.2,1
		c-0.6,3.6-0.5,6.7,0.1,7.7c0.8,1.2,0.5,1.7-0.6,1l-0.8-0.5l-1,1.2c-1.9,2.1-1.8,2.8,0.6,3.1l1.5,0.2l0.6-1.2
		c0.3-0.6,1.1-1.8,1.7-2.5c1.5-1.8,1.4-1.6,2.7-6.7c1.2-4.7,2-6.8,2.8-7.7c1.4-1.5,6.4-12.1,6.6-14c0.1-1.3-0.6-8.7-1.2-11.4
		C325.5,87,325.1,87.2,323.6,89 M230.3,89.9c0,0.4,0,0.4-0.2-0.1c-0.1-0.4-0.2-1-0.2-1.3c0-0.6,0-0.6,0.2,0.1
		C230.2,89,230.3,89.6,230.3,89.9 M247.6,89.7c-0.1,0.3-0.1,0-0.1-0.5s0.1-0.7,0.1-0.5C247.7,89,247.7,89.4,247.6,89.7 M268.3,89.9
		c0,0.7,0.1,1,0.1,0.6c0.1-0.4,0.1-1,0-1.3C268.3,88.8,268.3,89.1,268.3,89.9 M243.5,90.7c-0.3,2.1-1.2,5.9-1.5,6.1
		c-0.2,0.2-0.2-0.7,0.3-2.7c0.1-0.6,0.3-1.4,0.4-1.9c0.1-0.8,0.8-2.8,0.9-2.8C243.7,89.5,243.6,90,243.5,90.7 M248.5,91.3
		c-0.2,0.3-0.3,0.2-0.3-0.6c0-0.9,0-1,0.3-0.4C248.6,90.6,248.6,91,248.5,91.3 M191.2,90.6c-1.2,1.5-1.4,9.2-0.4,11.9
		c0.9,2.3,1.4,2.9,0.8,0.8c-0.3-1-0.6-2.8-0.6-4.4l-0.1-2.7l0.5,2.7c0.5,2.9,0.6,3.3,1.4,5.4c1,2.7,1.3,1.4,0.3-1.5
		c-0.9-2.5-1.1-3.9-0.7-3.4c0.1,0.1,0.4,0.9,0.6,1.7c0.5,1.9,1.3,3.7,1.8,3.7c0.4,0,0.4-0.1-0.1-1.1c-0.5-1.1-1.4-4.2-1.4-4.9
		c0-0.3,0.2,0.1,0.5,0.9c0.6,1.8,1.9,4.6,2,4.5c0.1-0.1-0.2-0.8-0.5-1.7c-0.4-0.9-0.8-2.7-0.9-4.3c-0.3-2.5-1-5.5-1.6-6.6
		c-0.1-0.3-0.3-0.7-0.3-1C192.5,90.2,191.6,90.1,191.2,90.6 M247.1,92.6c-0.2,0.4-0.3,0.3-0.2-0.4c0.1-0.5,0.2-1.1,0.2-1.3
		c0-0.2,0.1,0,0.2,0.4C247.4,91.7,247.3,92.3,247.1,92.6 M258.2,92.7c0,1.1,0,1.6,0.1,1c0.1-0.6,0.1-1.4,0-2
		C258.2,91.1,258.2,91.6,258.2,92.7 M273.3,93.4c0,0.1,0.4,0.8,1,1.5c1.1,1.5,2.5,4.4,2.5,5c0,0.2-0.3-0.2-0.7-0.9
		c-0.9-1.6-1.6-2.7-1.6-2.4c0,0.1,0.3,0.8,0.7,1.5c1.8,3.3,4.9,13.2,4.9,15.4c0,0.4,2.8,2,3,1.7c0.3-0.5,0.3-6.5,0-8.4
		c-0.4-2.2-2.8-8.3-3.7-9.5c-0.4-0.4-0.2,0,0.4,1.4c1.4,3,1,3.1-0.6,0.1c-2.2-4.1-3.1-5.1-1.8-2.3c0.8,1.7,0.8,1.9,0.4,1.6
		c-0.2-0.1-0.3,0-0.1,0.3c0.5,1.2,0.4,1.2-0.4-0.2C274.9,94.7,273.3,92.5,273.3,93.4 M275.5,95.3c0.4,0.8,0.9,1.6,1.2,1.7
		c0.5,0.4-0.9-2.1-1.5-2.7C275,94,275.1,94.5,275.5,95.3 M210.1,96.6c0,4.2,1.8,8.5,5.4,12.8c1.2,1.5,2.6,3.4,3.1,4.2
		c1,1.7,1.3,2,0.7,0.5c-0.7-1.6-0.7-1.7-0.5-1.7c0.1,0,0.3,0.4,0.6,0.8c0.6,1.1,0.8,0.8,0.3-0.4c-0.6-1.4-0.5-1.5,0.1-0.3
		c0.7,1.3,0.9,1.1,0.4-0.4c-0.2-0.6-0.4-1.2-0.4-1.3c0-0.2,1,1.1,1.2,1.5c0.2,0.4,0-1.9-0.3-2.8c-0.1-0.4-0.1-0.5,0.1-0.1
		c0.2,0.2,0.4,1,0.6,1.8c0.5,2.3,0.7,1.9,0.6-1.4c-0.1-3.9-0.4-5.2-2-7.5c-1.2-1.9-4.2-4.7-4.9-4.7c-0.2,0-0.1,0.2,0.2,0.3
		c1.3,0.8,2.3,1.9,3.4,4c1.5,2.6,1.6,3.2,0.3,1.4c-1.6-2.3-1.8-2.6-1.9-2.4c-0.1,0.1,0.2,0.8,0.7,1.7c1,2.1,2,4.8,1.9,5.2
		c-0.1,0.2-0.4-0.2-0.7-0.8c-0.3-0.6-1-1.7-1.5-2.4c-1-1.5-2.3-4.1-2.8-5.9c-0.4-1.3-0.8-1.7-0.8-0.7c0,0.6,0.3,1.9,0.6,3.1
		c0.2,0.5,0.1,0.6-0.1,0.4c-0.2-0.2-0.7-1.5-1.2-3.1c-0.8-2.5-0.9-2.7-0.9-1.7c0,1-0.1,1-0.3,0.4c-0.2-0.6-0.2-0.5-0.1,0.2
		c0.1,0.5,0.1,1,0.1,1.1s0.1,0.2,0.2,0.1c0.1-0.1,0.3,0.1,0.4,0.5c0.1,0.4,0,0.6-0.1,0.5c-0.1-0.1-0.2,0-0.2,0.2
		c0,0.2-0.1,0.1-0.3-0.2c-0.2-0.3-0.5-0.7-0.7-0.8c-0.2-0.2-0.4-1.1-0.5-2.2C210.5,94.3,210.1,94.2,210.1,96.6 M222,99.8
		c-0.1,0.3-0.1,0-0.1-0.5c0-0.5,0.1-0.7,0.1-0.5C222.1,99.1,222.1,99.5,222,99.8 M273.5,98.9c0,0.1-0.1,2.4-0.1,4.9
		c0,2.6-0.1,5.2-0.3,5.9l-0.2,1.2l1.6,0.5c0.9,0.2,1.7,0.5,1.9,0.5c0.4,0,0.7-4,0.4-5.7l-0.2-1.4l-0.3,1.3l-0.3,1.3l-0.4-2.8
		l-0.4-2.8l-0.1,1.5c-0.2,2.3-0.4,2.1-0.8-1C274.1,99.9,273.6,98.1,273.5,98.9 M223.9,99.9c0,0.2,0.1,0.8,0.3,1.4
		c0.3,1.3-0.1,8.6-0.7,11.5c-1.1,5.4-1.2,6.1-0.6,6.1c2.3,0,3.8-12.2,2.2-17.9C224.8,99.7,223.9,99,223.9,99.9 M203.3,100.4
		c0.3,1.2,0.6,1.8,0.9,2c0.4,0.3,0.3-0.1-0.4-1.5C203.4,100.3,203.2,100,203.3,100.4 M261.4,100.8c-0.1,0.2,0.1,1.2,0.4,2.2
		c0.3,1,0.7,3.1,0.9,4.7c0.4,3.2,1.7,6.6,1.9,4.9c0.1-0.6,0.2-0.7,0.3-0.4c1.3,2.1-0.9-7.2-2.5-10.2
		C261.7,100.3,261.6,100.2,261.4,100.8 M230.6,102.2c0.1,0.3,1.1,1.5,2.2,2.9l1.9,2.4l-1.8-1.9c-1-1-2.2-2.3-2.6-2.8l-0.7-0.9
		l0.4,0.8c0.2,0.5,1.3,2,2.4,3.3c1.1,1.4,2.4,3,2.9,3.5l0.9,1.1l-1.1-0.8l-1.1-0.8l0.8,1.1l0.8,1.1l-0.8-0.7c-0.4-0.4-1.8-1.7-3.1-3
		c-1.3-1.3-2.3-2.3-2.3-2.1c0,0.5,1.2,2.1,3,3.9c2.5,2.5,4.7,5,5.1,5.6c0.5,0.9-1.5-0.9-3.4-3c-0.9-1.1-1.7-1.9-1.7-1.8
		c0,0.4,2.6,3.6,5.1,6.4c1.5,1.6,2.5,2.8,2.2,2.6c-0.6-0.3-3.4-3.2-4.1-4.1c-0.6-1-3.8-4.4-3.8-4.1c0,0.3,4.3,5.9,5.5,7.3
		c1.8,2,4.5,3.5,6.2,3.6c1.2,0,0.8-3.7-0.8-7.7c-1.1-2.7-2.7-5.7-2.3-4.3c0.2,0.8,0,0.6-1.5-1.4c-1.6-2.1-1.6-1.8-0.2,1.1
		c1.5,3,1.5,3.1,0.1,1.4c-0.6-0.8-1.3-1.4-1.5-1.4c-0.2,0-1-0.8-1.8-1.8c-0.7-1-1.6-1.9-1.9-2.2c-0.3-0.2-1.1-1.2-1.8-2.1
		C230.5,101.7,230.1,101.3,230.6,102.2 M259.5,104.5c0,0.7,0.1,1,0.1,0.6c0.1-0.4,0.1-1,0-1.3C259.5,103.5,259.5,103.8,259.5,104.5
		 M201,105c-3.7,0.4-8.2,2.7-11.5,5.8c-2.1,2-2.1,3.1-0.2,4.9c1,0.9,2.3,5.1,2.7,8.5c0.1,1.2,0.9,0.8,1-0.5c0.1-1.5-0.7-6.9-1.1-7.8
		c-1.2-2.3,7.6-6.1,14.1-6.1c1.7,0,2.2-0.1,2.2-0.4c0-0.9-6.5-1.3-9.6-0.5c-2,0.5-3.2,0.6-2.1,0.1c0.9-0.3,0.4-0.7-0.6-0.5
		c-1.5,0.3-1.3-0.1,0.6-0.9c2.9-1.3,5.3-1.9,8.2-1.9c2,0,2.6-0.1,2.6-0.4C207.4,104.6,205.4,104.5,201,105 M252.9,106.4
		c0.4,5.1,0.5,6.5,0.5,9.8c-0.1,6-0.6,6.3-0.6,0.4c0-5.3-0.4-9-0.5-5.3c0,1.5-0.1,1.7-0.3,1.1c-0.1-0.5-0.2,0.2-0.2,2.2
		c0,1.6-0.1,4.1-0.2,5.5c-0.3,3.8-0.5,1.9-0.6-4.2c0-2.8-0.2-6.1-0.4-7.2l-0.3-2.1l-0.2,5.9c-0.3,8.7-0.9,10.1-1.2,2.7
		c-0.3-7.8-0.7-7.6-1.1,0.8c-0.1,1.8-0.2,3.6-0.3,4.1l-0.2,0.9l-0.2-1.2c-0.2-1.2-0.2-1.2-0.2,0.5c-0.1,2.2-0.5,1.2-0.5-1.5
		c0-1-0.1-2.5-0.2-3.3l-0.2-1.5l-0.2,1.6c-0.6,4.2,0.2,10.7,1.5,12.5c0.5,0.6,1.2,1.8,1.7,2.5c1,1.5,1.1,1.6,1.9,0.9
		c2.9-2.9,4.4-19.5,2.3-25.6l-0.4-1.2L252.9,106.4 M299,111.2c-5.8,2.9-6.3,3.2-6,3.8c0.2,0.6,0.6,0.5,2.7-0.5
		c1-0.5,3.5-1.5,5.6-2.2c4.8-1.6,5.9-2.4,4.8-3.5C305.4,108.1,304.3,108.5,299,111.2 M213.4,109.9c-0.3,0.9,1.6,7.6,2.5,8.8
		c0.3,0.3,1.2,1.6,2.2,2.8c1,1.2,2,2.8,2.4,3.4c0.4,0.7,0.9,1.2,1.1,1.3c1.5,0.3-0.8-6.3-3-8.7c-0.5-0.5-1.1-1.4-1.4-1.9
		c-0.9-1.6-1.5-1.6-1.1,0c0.2,0.7,0.2,0.8-0.1,0.6c-0.4-0.3-1.4-3.1-1.6-4.7C214.1,109.4,213.7,108.9,213.4,109.9 M259.2,110.5
		c0.2,1.4,1.2,3.3,3,6c0.8,1.2,1.4,2.1,1.4,2.2c-0.1,0.1-2.7-3-3.7-4.5c-0.5-0.7-0.8-1.2-0.8-1c0,0.5,0.4,1.2,2.2,3.9
		c0.9,1.3,1.9,3.1,2.2,4c0.6,1.7,1.1,2.1,1.2,1.2c0.1-0.5,0.2-0.4,0.5,0.6l0.4,1.2l0.2-1.1l0.2-1.1l0.3,0.8c0.3,0.7,0.3,0.6,0.2-1
		c-0.1-1.7-0.3-2.3-2.6-6.9c-2.5-5.1-3-5.8-2.3-3.1c0.7,2.5,0.3,2.6-0.5,0l-0.3-1.1l0,1c0,0.6,0.3,1.6,0.8,2.5l0.8,1.6l-0.8-0.9
		c-0.8-1-1.9-3.4-1.9-4.5c0-0.3-0.1-0.7-0.3-0.8C259.1,109.4,259.1,109.7,259.2,110.5 M126.4,111.3c-4,2.8-8.3,12-9.5,20.3
		c-0.1,0.7-0.3,1.6-0.5,2.1c-0.4,1.2,0.2,1.7,2.7,2.5l2,0.6l1.2-0.6c0.7-0.3,1.4-0.6,1.7-0.6c0.2,0,0.4-0.2,0.4-0.4
		c0-0.2,0.8-1.4,1.7-2.7s2.2-3.2,2.8-4.2c0.6-1,1.3-1.9,1.4-2c0.3-0.1,0.3-2.5,0.1-9.5c-0.2-5.6-0.3-6-1.4-5.3
		c-0.4,0.2-0.6,0.2-0.9-0.2C127.5,110.7,127.2,110.7,126.4,111.3 M269.3,112.8c-1.5,0.7-1.1,1.1,1.2,1.1c1.5,0,2.4,0.2,3.3,0.6
		l1.2,0.6l-0.9,0c-0.8,0-0.8,0.1,0.9,0.6c2.3,0.8,3,1.4,1.3,1.1c-2.9-0.4-4.3-0.5-4.3-0.2c0,0.2,0.7,0.4,1.5,0.5
		c3.1,0.4,8.2,4.2,9.7,7.4c0.8,1.6,0.9,2,0.6,1.7c-0.6-0.4-1.1,0.6-1.4,2.7c-0.4,3.1-0.1,3.3,1,0.7c0.5-1.1,0.8-1.6,1.2-1.7
		c1.1-0.3,2.1-4.5,1.4-6c-1-2.1-5-6-7.1-7C274.2,112.7,271.1,112,269.3,112.8 M195.2,113.1c-0.5,0.3-1.1,2.5-1.1,4.5
		c0,1-0.2,2.5-0.3,3.2c-0.8,4-0.2,9.4,0.8,6.4c0.3-1.1,2.1-8.5,2.3-9.9l0.2-1l1.4,1.9c0.8,1,2.2,2.8,3.1,3.9c2.7,3.3,2.6,3,1.2,3.2
		c-1.1,0.2-1.3,0.1-1.6-0.3c-2.9-3.9-3.3-4.1-3.9-1.9c-0.9,2.9-0.6,3.8,1,3.1c1.1-0.5,2.8-0.9,2.8-0.7c0,0.1-0.5,0.2-1.1,0.4
		c-1.7,0.4-3.7,1.4-3.7,1.8c0,0.2-0.6,0.7-1.4,1.1c-0.8,0.4-1.8,1.2-2.3,1.6l-0.9,0.8l0.3,2.5c0.4,3.6,0.6,4.4,1.3,4.5
		c0.5,0.1,0.6-0.1,0.7-1c0.3-1.5,0.9-2,0.9-0.8c0,0.5,0.1,1.6,0.3,2.4l0.3,1.4l0.2-1.3c0.1-0.7,0-1.9-0.2-2.6l-0.3-1.2l1.3-1
		c1.7-1.3,5.3-2.8,6.9-2.8c0.7,0,1.8-0.2,2.5-0.4c0.7-0.2,2.1-0.5,3-0.5c2.1-0.2,2.4-0.4,1.8-1.3c-1.1-1.7-11.3,0.1-15.1,2.7
		c-1.2,0.8-1.6,0.9-1.1,0.2c0.3-0.4,3.6-2.7,5-3.4c0.7-0.4,1.2-0.7,1.2-0.7c-0.3,0-2.7,0.8-3.2,1.1c-1.4,0.8-0.6-0.1,0.9-0.9
		c2.1-1.1,4.8-1.8,7.8-1.8c1.2,0,2.3-0.1,2.3-0.2c0-0.3-1.2-0.8-1.9-0.9c-0.4,0-0.9-0.6-2-2.2C199.3,114.9,196.7,112.2,195.2,113.1
		 M226.2,118.6c0.2,2-0.5,5.2-2.6,10.5c-1.1,2.9-1.2,3.7-0.4,3.6c0.7-0.1,0.6,0,2.3-3.8c1.9-4.2,2.4-7.5,1.5-10.4
		C226.5,116.7,226,116.8,226.2,118.6 M259.7,119.5c0,0.6,0.2,2.2,0.4,3.5c0.2,1.4,0.3,2.6,0.3,2.6c-0.2,0.2-0.7-1.3-0.8-2.8
		c-0.1-1.3-0.2-1.4-0.4-0.9c-0.2,0.6,0.2,3.3,1.4,9.3c0.3,1.6,1.9,5.7,2.7,6.8c0.6,0.8,1.2,1,0.9,0.3c-0.5-1.1-0.4-1.4,0.2-0.5
		c1,1.9,1.2,1.7,0.6-0.7c-1.6-6.6-2-8.4-2.4-10.8c-0.2-1.5-0.4-3.8-0.5-5.2l0-2.5l-0.2,1.9c-0.2,1.7-0.1,3.8,0.2,6.4
		c0.1,0.8,0.1,1-0.1,0.6c-0.4-0.6-0.8-4.9-0.6-6c0.1-0.4,0.1-0.7,0-0.6c-0.1,0.1-0.3,0.9-0.4,1.7l-0.2,1.6l-0.2-2.7
		C260.2,118.9,259.7,117.4,259.7,119.5 M231.7,119.3c0,0.3,0.3,0.5,0.6,0.6c0.4,0.1,0.4,0,0.1-0.5
		C232,118.7,231.6,118.6,231.7,119.3 M213.3,120c-1.2,3.1,0.2,8.3,3.3,12.4c0.8,1.1,1.9,2.7,2.3,3.5c0.8,1.5,1.1,1.7,1.8,1.3
		c0.7-0.5-0.7-4.2-3.3-8.7c-1.2-2.1-1.5-2.8-1.7-4.2c-0.2-1.8-0.3-2.2-0.8-1.8c-0.8,0.5-0.1,3.4,1.5,6.4c1.6,3,1.4,3.3-0.2,0.5
		c-1.4-2.4-2.1-4.9-2-7.6C214.2,119.4,213.8,118.6,213.3,120 M76.6,120c-2.4,1.1-2.2,5.8,0.3,7.3c0.5,0.3,1,0.8,1,1
		c0,0.2,0.4,0.6,0.9,0.8c2.8,1.4,3.8,3.7,2.3,5c-0.5,0.4-1.6,1.3-2.5,2c-6.2,4.9-6.5,12-0.9,18.3c7.8,8.7,8.4,11.9,3.7,19.9
		c-3.3,5.6-4.3,11.7-3,17.9c0.2,1,0.5,2.6,0.6,3.6c0.1,1,0.4,2.8,0.7,4c0.6,2.5,0.6,13,0,14.4l-0.3,0.7l-0.2-0.9
		c-0.1-0.5-0.2-3.9-0.1-7.6c0.1-6.4,0.1-6.8-0.5-8.2c-0.3-0.8-0.9-2.8-1.3-4.5c-0.4-1.7-0.8-2.9-0.9-2.7c-0.2,0.4-2.5-3.5-3.1-5.1
		c-1-3,0.1-8.8,2.4-12.7c1.9-3.2,2.2-6,1.1-9c-0.6-1.5-0.8-1.8-3.2-5c-4.4-5.6-5.7-11.1-3.7-15.7c1-2.3,1.1-2.8,0.5-2.8
		c-1.2,0-3.2,5-3.2,8.1c0,5.3,0.1,6.7,0.6,8.4c0.7,2.4,0.5,7.2-0.4,7.2c-0.2,0-0.6,0.8-0.9,1.7c-0.3,0.9-0.9,2.5-1.2,3.4
		c-2.1,5.8-1.2,11.8,2.5,17.3c0.5,0.8,1.1,1.9,1.3,2.4l0.3,0.9l-0.7-0.9c-0.4-0.5-0.9-1.1-1.1-1.3c-2-2-3.2-3.8-3.9-6
		c-0.4-1.3-0.9-2.3-1-2.3c-0.3,0-0.5-1.7-0.4-4.9c0-1.2-0.1-1.5-0.4-1.5c-1.1,0-1.6,4.2-0.7,7c0.5,1.7,4.6,10,5.5,11.1
		c0.3,0.4,0.8,1,1,1.4c0.2,0.4,1.2,1.7,2.2,2.9c2.3,3.1,3.1,5.3,3,8.5l-0.1,2.3l-0.6-2c-1.1-3.6-3.9-8.5-4.5-7.9
		c-0.1,0.1,0.1,0.9,0.5,1.7c1.4,2.9,1.7,3.7,2,6.4c0.5,4.3-0.2,8.9-1.9,11.4c-0.5,0.8-1,1.9-1.1,2.5l-0.2,1.1l0.6-0.5
		c0.3-0.3,0.9-1.1,1.4-1.9c1.1-1.9,1-0.8-0.2,1.5c-1.1,2.2-1,3.7,0.3,4.6c0.6,0.4,0.7,0.4,1-0.7l0.3-1.1l0.1,0.9
		c0.3,3.8-2.6,5.2-4.1,1.9c-1.1-2.3-1-5.4,0.2-8.7c0.9-2.4,1.2-5.4,0.7-5.6c-0.1-0.1-0.5,0.7-0.7,1.8c-0.2,1-0.9,2.6-1.4,3.5
		s-1.2,2.1-1.4,2.7c-0.4,1.1-0.4,1-0.2-1.2c0.1-2,0.3-2.6,1.1-4.1c1.7-3.2,1.8-7.2,0.4-8.9c-0.8-1-1.2-0.3-0.8,1.2
		c0.6,2.2-0.5,5.9-2.7,9.3c-2.4,3.8-2.4,6.9,0.3,10.7c0.6,0.9,0.8,1.5,0.8,2.3v1.1l-0.8-0.9c-1-1.2-2.1-2.1-3.4-2.8
		c-4-2.1-4.1-6.8-0.3-11.2c1.2-1.4,2.8-6.4,2.8-8.9c0-3.5-0.7-5.3-2.9-7.9c-2.1-2.4-2.6-1.7-0.6,1c2.1,2.9,2.6,6.2,1.4,9.3
		c-0.6,1.7-1,2.3-1,1.5c0-1.1-1.4-3.3-3.4-5.1c-4.4-4.2-5-8.6-1.6-12.7c2.5-3.1,4-10,2.1-10c-0.4,0-0.4-0.1-0.5,2
		c-0.1,2.2-0.9,4.2-2.5,6.1c-3.8,4.7-4.8,9.1-3.1,13.8c0.1,0.3-0.1,0.1-0.6-0.5c-1.6-2.2-0.1-11.9,2-13.3c0.2-0.1,0.4-0.7,0.6-1.2
		c0.3-1.2,0.3-1.4,0-1.4c-0.4,0-1.7,2.1-1.5,2.5c0.1,0.2,0,0.5-0.2,0.7c-0.9,1.1-2.3,4.4-2.7,6.3c-0.8,4.4-0.4,6.2,2.4,9.9
		c2.5,3.2,3.1,5.8,2,8.1c-0.7,1.4-0.7,1.5-0.7-0.8c0-2.7-1.1-5.7-2.6-7.1c-1.1-1-1.1-0.5-0.2,1.8c1,2.5,1,3.3,0.4,8.3
		c-0.7,5.6-0.1,8,3,12.6c1.5,2.3,2.6,4.9,3.1,7.8c0.4,2.4,0.3,2.3-1.1-0.2c-0.6-1.2-1.8-3-2.6-3.9c-3.8-4.5-5.6-8-5.6-11
		c0-1.6-0.7-1.9-0.9-0.3c-0.3,2.6,1.1,6.1,4.2,10.8c4.2,6.3,5.1,8.7,6.1,17c1,8.2,3.7,13.1,9.4,17.1c2.4,1.6,5.5,0.9,3.9-0.8
		c-0.4-0.5-0.4-0.5,0.3-0.2c2.1,0.8,3.1,0.2,1.6-0.9c-3-2.1-4.6-5.3-4.8-9.4c-0.1-2.8,0-2.6,0.7,0.7c0.3,1.7,1.8,3.9,3.4,5.1
		c1.1,0.8,1.9,1,1,0.3c-2.5-2.1-3.8-7.7-2.7-11.4c0.5-1.8,0.9-1.5,0.8,0.6c-0.2,3.2,0.8,7.2,2,7.6c0.3,0.1,0.3,0,0.2-0.6
		c-0.1-0.4-0.2-1.8-0.3-3l-0.1-2.3l0.4,1.7c0.8,3.6,3.3,6.4,5.6,6.4c0.7,0,0.4-0.7-0.5-1c-2.1-0.8-3.3-3.3-3.5-7.5l-0.1-2.5l0.4,1.8
		c0.6,2.6,2.2,5.5,2.8,4.9c0.2-0.2,0.1-0.6-0.2-1.5c-0.3-0.7-0.6-2-0.7-3l-0.1-1.9l0.3,1.5c0.6,3.3,3,6.7,4.8,6.7
		c0.7,0,0.6,0-0.7-1.4c-1.7-1.7-3.1-6.9-2-7.6c0.1-0.1,0.3,0.1,0.3,0.4c0,1.9,3.7,5.9,5.5,5.9c0.4,0,0.1-0.6-0.5-0.8
		c-1.4-0.6-3.3-5.8-2.5-6.8c0.2-0.2,0.3-1.1,0.3-2c0-2.1,0.2-2.4,1.6-3c0.6-0.3,2.6-1.4,4.4-2.4c1.8-1.1,3.3-1.9,3.4-1.9
		c0.1,0,1.1-0.6,2.3-1.2c5.5-3.2,8.9-2.6,12.5,2.3c1.6,2.2,0.8,4.7-2.9,8.8l-1.1,1.2l0.9-1.9c2.9-5.9,2.8-6.8-0.6-10.1
		c-2.4-2.3-7.8-0.8-12.4,3.5c-2.5,2.3-1.5,2.6,1.7,0.5c5.6-3.7,8.2-4.1,10.2-1.5c1.4,1.8,0.8,4.9-1.8,9.1c-0.7,1.1-1,2-1,2.3
		c0.2,0.5-1.5,1.1-2.9,1.1c-1.5,0-6-3.3-6.9-5.1c-0.5-0.9-0.9-1-0.9-0.1c0,2.5,6,7.9,8.8,7.9c0.9,0,0.6,0.6-1.3,2.4
		c-2.3,2.3-5.3,3.1-6.9,2c-0.9-0.6-1.2-0.5-1.1,0.4c0.1,0.6,0.3,1,0.9,1.3c0.4,0.2,1.6,0.9,2.6,1.6c2.3,1.5,4.2,1.4,5.9-0.3
		c0.2-0.2,0.6-0.5,0.9-0.7c0.6-0.3,3-3.4,5.2-6.9c0.8-1.3,2.2-3.3,3-4.4c6.3-8.9-0.2-21.2-9.2-17.4c-0.8,0.3-2.2,0.8-3,1.1
		c-2.6,0.7-11.9,5.1-13.2,6.2c-0.8,0.7-1.4,2-1.4,3.1c0,2.4-0.3,2.2-2-1.4c-1.9-4-3.4-5.8-5.8-7c-1.2-0.6-2.1-1.6-1.4-1.6
		c0.3,0,2.7,1.2,3,1.6c0.5,0.5,0.9,0,0.6-0.8c-0.2-0.6-1.7-2.1-2.6-2.6c-0.9-0.5,0-1.1,1.2-0.8c1.2,0.3,2.4,0.1,2.4-0.5
		c0-0.5,2.4-5.4,2.7-5.6c0.5-0.3-0.5,4.4-1.3,6.3c-0.5,1-0.5,1.2-0.1,1.5c0.6,0.6,1.5-0.5,3-3.3l1.2-2.4l-0.2,1.5
		c-0.1,0.8-0.6,2.4-1.1,3.5c-1.5,3.3-1.5,3.5,0,4.9l1.3,1.2l1.6-0.9c2.4-1.3,2.7-1.8,2.7-4.8c0-2.8,0.1-3,0.9-1.5
		c0.8,1.5,1.9,2.2,3.4,2.1c1.4-0.1,1.3,0,1.8-2.5c0.2-0.8,0.2-0.8,0.6-0.3c2.8,3.4,6.4,1.6,8.5-4.2c0.7-1.8,1-1.3,0.8,1.1
		c-0.3,3.6,1,5.2,2.7,3.2c1-1.1,1.1-1,1.1,0.5c0,1.3,0.1,1.4,1.4,2.7c1.6,1.5,1.8,1.6,1.8,0.7c0-0.3,0.3-1.1,0.7-1.7
		c0.4-0.6,0.9-1.7,1.3-2.4c0.8-1.7,1-1.3,0.6,1c-0.4,1.7-0.3,2,0.3,4.8c0.8,3.4,0.8,5.3,0.3,6.9c-0.2,0.6-0.5,1.8-0.6,2.6
		c-0.1,0.8-0.5,2.6-1,4.1c-1,3.3-1,3.3,1.4,0.5c2-2.3,2.9-3.9,3.5-6.2c0.4-1.4,1.1-0.9,1.1,0.7c0,2.4,1.6,1.4,2.8-1.7
		c0.8-2.2,1.1-2.3,1.5-0.5c0.8,3.5,2,4.3,2.2,1.5c0.1-1,0.4-2.5,0.9-3.8c0.5-1.2,0.9-2.3,1-2.6c0.4-1.2,0.8,0,0.6,1.8
		c-0.2,2.3,0.7,4.4,3,7.2c0.4,0.4,1.3-0.4,1.6-1.4c0.5-1.5,0.9-1.2,1,1c0.4,4.8,1.9,4.6,2.3-0.3c0.1-1.7,0.5-3.7,1-5.6
		c1.1-3.8,1.1-5.5,0.1-7c-1.1-1.6-1.1-2.3-0.3-4.7c0.7-2.2,0.9-4.1,0.4-5c-0.4-0.8,0.1-0.6,0.7,0.2c0.6,0.8,0.6,1,0.4,5.3
		c-0.1,2.4,0.2,3.1,2,5.4l0.9,1.1l0.2-0.8c0.1-0.4,0.1-1.3,0-1.9c-0.2-1.3,0.2-1.4,0.9-0.2c0.8,1.4,2.4,1.8,1.9,0.5
		c-0.4-0.9-0.3-3.8,0-5.5c0.4-2,0.8-1,0.6,1.6c-0.1,1.2,0,2.1,0.1,2.4c0.3,0.5,0.3,0.5,0.3-0.1c0-0.3,0.5-1.9,1.1-3.6
		s1.1-3.3,1.2-3.6s0.3-0.6,0.4-0.6c0.4,0,0.3,1.6-0.3,3.6c-0.7,2.5-0.9,3.6-0.6,3.6c0.1,0,0.3-0.2,0.4-0.4c0.1-0.2,0.9-1.5,1.8-2.9
		c1.3-1.9,1.7-2.9,2.1-4.7c0.6-2.6,0.7-2.8,0.9-1.5c0.5,3.3,0.5,3.2,1.6,3.1c1.4-0.1,1.4-0.1,0.8-2c-0.4-1.6-0.4-3.7,0-4.9
		c0.3-0.7,0.6-0.5,0.6,0.4c0,1.7,0.6,3.7,1.8,5.8c1.3,2.4,1.6,2.5,1.8,0.9c0.3-1.7,0.5-1.5,1.1,1c0.6,2.3,2.4,5.8,4.1,7.6
		c0.7,0.8,0.8,0.9,0.6,0.3c-1.3-5.1-1.7-12-0.9-15.5c0.2-1,0.4-1.8,0.3-1.8c-0.3-0.3-2.5,4.8-2.9,6.7c-0.1,0.3-0.1-0.1-0.1-0.8
		c0-0.9,0.2-2,0.6-3.1c0.4-0.9,0.7-1.8,0.7-1.8c0-0.1-0.8,0.6-1.7,1.5c-1.8,1.8-2.6,2-3.5,0.8c-0.4-0.6-0.5-2.2-0.2-2.4
		c0.1,0,0.6-0.8,1-1.7c1-2.1,2.3-3.4,4.4-4.7c6-3.6,7.5-9.8,2.8-11.9c-0.8-0.3-1-0.1-0.4,0.4c1.2,1,1.3,5.2,0.1,6.8
		c-0.4,0.5-0.8,0.9-0.9,0.8s0.1-0.4,0.3-0.7c1.3-1.5,0.7-5-1.1-6.7c-3.7-3.5-3.8-3.5-3.8-4.7c0-0.9,0.1-1.2,0.8-1.7
		c0.4-0.3,0.8-0.7,0.8-0.9c0-0.6-1-0.4-1.8,0.5c-2.6,2.7-2.3,5.1,0.9,8.3c3,2.9,2,5.7-3.2,9.1c-0.8,0.5-2,1.3-2.6,1.9
		c-0.7,0.5-1.3,1-1.4,1c-0.5,0-0.2-0.8,0.5-1.2c0.4-0.2,0.7-0.7,0.7-0.9c0-0.3,0.3-0.8,0.6-1.3c1.8-2.2,1.6-3.7-0.7-5.4
		c-1.5-1.1-1.6-1.1-1.1,0.1c0.9,2.1,0.3,4.2-1.7,6.4c-0.7,0.8-1.8,2.1-2.4,3l-1.1,1.7l-0.7-1.3c-0.4-0.7-0.8-1.5-1-1.7
		c-0.4-0.6,0.4-4.6,1.1-5.6c1.3-1.6,1.9-3.9,1.1-4.2c-0.2-0.1-0.3,0.1-0.3,0.3c0,0.8-0.9,2.1-2.6,4c-2.3,2.4-2.6,3.6-2,6.4
		c0.3,1.3,0.2,1.5-0.4,0.5c-1.2-2.3-0.7-5,1.2-7.1c0.7-0.8,1.3-1.5,1.2-1.5c-1.9,0-4.2,1.9-4.9,4.1l-0.5,1.4l1.1,3.4
		c1.2,3.8,1.5,6.6,0.7,6.9c-1.2,0.5-1.4,0.1-1.8-3.2c-0.3-2.9-0.6-3.1-1.3-0.9c-0.6,1.9-1.2,2.6-2,2.2c-0.5-0.3-1.3-2.2-1.2-2.9
		c0.7-4.5,0.1-10-0.8-6.9c-0.2,0.6-0.4,1.6-0.5,2.1c-0.1,0.5-0.2,1.3-0.2,1.7c0,2.5-2.2,3.6-3.6,1.9c-1.1-1.4-0.9-3.5,0.4-6.1
		c1.3-2.6,1.3-3.4-0.2-6.3c-0.8-1.6-1.2-2.8-1.4-3.9c-0.3-3.1-1.1-1.8-0.9,1.6c0.2,4.8,0.2,5.1-0.7,6.8c-0.5,0.9-1,2.2-1.2,2.9
		c-0.6,2.3-0.8,2.5-2.7,2.3l-1.7-0.1l-1,2.6c-2.2,5.8-5.3,7.1-13.5,5.7c-4.8-0.8-6.5-2.2-9.7-7.9c-0.7-1.3-1.6-2.7-1.9-3.1
		c-0.6-0.7-0.6-0.7-1,1.1l-0.2,0.9l-0.3-1.6c-0.2-0.9-0.8-2.8-1.4-4.3c-1.7-4.1-2.6-8.5-2.6-12c0-1.4,1.4-6,1.8-5.6
		c0.1,0.1,0.4,0.9,0.8,1.9c1.2,3.4,1.9,3.5,1.6,0.2c-0.4-4.6,0-6.2,1.1-4.5c0.8,1.2,3.3,6.1,3.3,6.5c0,0.4,0.7,1,0.9,0.7
		c0.1-0.1,0-0.8-0.2-1.5c-0.5-1.8-1.5-5.6-1.5-5.8c0-0.6,0.7,0.5,2.1,3.2c2.2,4.1,3.1,5.4,3.8,5.4c0.5,0,0.5-0.1-0.2-1.4
		c-1.9-3.4-2.8-8.3-1.8-9.4c1-1,2-0.1,2.8,2.4c0.5,1.7,1.6,3.3,2,2.8c0.1-0.1,0-1.4-0.3-2.9c-0.5-3.4-0.3-3.8,0.8-2
		c0.5,0.8,1.6,2.3,2.5,3.5c0.9,1.1,1.7,2.1,1.7,2.3c0,0.5,1.4,2.3,1.6,2.1c0.8-0.5,0-3.2-1.4-5c-0.8-1-1.9-3.3-1.8-4
		c0-0.2,0.2,0,0.4,0.4c0.7,1.3,3.7,5.4,4.1,5.5c0.6,0.2,0.4-1.1-0.4-2.7c-0.4-0.8-0.7-1.5-0.6-1.5c0.6,0,2.9,3.2,3.7,5
		c1.1,2.7,1.4,4.3,0.3,2c-0.8-1.8-1.5-2.3-1.5-1.1c0,0.4-0.1,0.8-0.2,1c-0.1,0.2-0.1,0.8,0.1,1.5c0.3,1.4,0.2,1.6-0.4,0.4
		c-0.9-1.7-1.6-1.6-1.2,0.2c1.1,5.2,1.1,5.6,1,9.2c-0.3,6.2-0.8,6.9-5.3,8.1c-3.6,1-5.2,0.2-8.2-3.7c-0.4-0.5-0.7-0.7-1-0.6
		c-1.3,0.5,2.7,5.7,5.1,6.7c2.7,1.1,10.9-1.5,10.4-3.4c-0.1-0.3,0.1-0.7,0.4-1.1l0.5-0.6l-0.2,0.9c-0.5,2.8-1.6,4-4.4,4.8
		c-5.8,1.7-8.3,1.5-9.8-0.8c-1.5-2.2-2.7-4.4-2.7-5c0-0.3-0.2-1-0.5-1.7c-0.6-1.4-1-4.7-0.6-4.9c0.2-0.1,0.6,0.4,1,1.2
		c1.2,2.2,2,1.7,1.5-0.9c-0.1-0.8-0.2-1.5-0.1-1.5s0.4-0.2,0.7-0.5c3.1-2.8,5.6-3.3,10.2-2c1,0.3,0.8-0.8-0.3-1.3
		c-2.5-1.2-5.5-1.2-9.2,0l-2.2,0.7l-0.7-0.7c-1.6-1.6-3.8,0.7-3.8,4.1c0,1,1.3,6.2,1.7,6.6c0.2,0.2,0.5,0.9,0.7,1.5
		c0.2,0.6,0.6,1.7,1,2.4c0.3,0.7,0.9,2,1.3,2.8c1.7,3.9,5.4,5.7,10.3,5c4.3-0.6,5-0.7,6.1-1.7c2.6-2.3,4.6-12.6,3.5-18.3
		c-0.2-1.1-0.2-2.3,0-4.6c0.4-4.1-0.7-7-3.8-10.4c-3-3.2-3.6-6.5-1.9-9.9c1.9-3.6,1.7-6.5-0.6-8.3c-2.8-2.1-3.3-3.5-1.9-5.5
		c0.4-0.5,0.7-1.4,0.8-2c0.1-0.6,0.2-1.1,0.3-1.2c0.6-0.6-0.4-5-1.5-6.5c-1.6-2.2-2.7-2.1-1.6,0.2c0.8,1.5,0.7,2.5-0.5,4.9
		c-2.5,4.9-3,8.7-1.2,8.5c1.7-0.2,2.7,4.9,1.2,6.5c-0.4,0.5-1.1,1.5-1.4,2.2c-0.7,1.5-0.8,1.4-1.8-0.9c-0.8-1.8-1-4.3-0.6-6.8
		c0.3-2,0.3-2.3-0.4-1.8c-0.3,0.2-0.7,1.4-1.3,3.4c-0.6,2.3-1,3.3-1.5,3.8l-0.7,0.7l-0.5-1c-0.4-0.8-0.4-1.3-0.3-2.6
		c0.1-0.9,0.1-1.6-0.1-1.6c-0.3,0-1.3,1.1-1.8,2.1c-0.2,0.4-0.7,1-1.1,1.4l-0.7,0.6l-0.2-0.8c-0.1-0.4-0.3-0.9-0.4-1
		c-0.1-0.1,0.8-1.9,2.1-3.9c2.6-4.4,3.4-6.2,3.2-7.8c-0.2-1-2-4.5-2.6-4.8c-1.6-1-3.1-4.6-3.2-7.7c0-0.6-0.1-0.7-0.4-0.6
		c-0.4,0.1-0.4,0-0.3-1.1c0.1-0.8,0-1.3-0.2-1.3c-1.2-0.4-0.9,6.4,0.4,9.4c0.3,0.7,0.5,1.5,0.5,1.8c0,0.3,0.3,1.1,0.7,1.8
		c1.1,2.2,0.7,4.6-1.5,7.8c-1.3,2-1.4,2-1.9,0.4c-0.2-0.7-1.1-1.9-2.5-3.4c-3.6-3.9-4.5-6.3-3.7-10.3c0.8-4.1,2.4-7.4,4.9-9.8
		c4.7-4.6,3.3-8.9-3.6-10.7c-0.9-0.2-2.1-0.8-2.8-1.2s-1.4-0.7-1.5-0.6c-0.4,0.2-1.1-1.3-1-2.1c0.1-0.8,1.6-0.9,2.8-0.3
		c1,0.6,1.6,0.2,1.3-0.8C80.8,120,78.3,119.2,76.6,120 M235.5,120.5c0.6,1,3.1,3.9,5.8,6.7c1.9,1.9,3.7,4.4,3.7,4.8
		c0,0.1-0.7-0.4-1.5-1.1c-0.8-0.7-1.8-1.5-2.1-1.7c-0.3-0.2-1.2-0.9-1.9-1.6c-1.4-1.3-2.3-2-1.5-1.1c0.3,0.3,0.4,0.7,0.3,0.8
		c-0.1,0.1-0.3,0.1-0.4-0.1c-1.9-2.8-4.3-5.7-3.4-4.3c1,1.6,3.3,4.6,4.8,6c2.6,2.5,1.6,2.4-1.2-0.1c-0.9-0.8-1.6-1.3-1.7-1.2
		c-0.1,0.3-0.8-0.4-3.3-3.1c-0.4-0.4-0.6-0.6-0.5-0.4c0.5,0.9,3,4,5,6.1l2.2,2.2l-3.1-2c-1.7-1.1-3.4-2.3-3.7-2.6
		c-0.6-0.6-0.6-0.6-0.3,0c0.2,0.3,1,1.2,2,2c0.9,0.8,2.3,2,3,2.8c0.7,0.7,1.9,1.9,2.7,2.5l1.3,1.1l-1.8-0.9c-1.8-1-2.6-1.2-2.2-0.7
		c0.5,0.8-2.8-1.5-4.1-2.9c-0.4-0.4-0.6-0.5-0.6-0.3c0,0.8,3.4,3.6,5.9,5l2.6,1.4l4.4,0.1l4.4,0.1v-0.6c0-2.4-4.9-9.1-9.1-12.3
		l-1.2-0.9l0.8,1.1c0.4,0.6,1,1.4,1.3,1.7l0.5,0.7l-0.7-0.5c-1.2-1-3-2.9-4.3-4.6c-0.7-1-1.3-1.6-1.3-1.5c0,0.1-0.3-0.1-0.7-0.4
		l-0.7-0.6L235.5,120.5 M276.6,124.5c-3.7,6-4.7,8.5-3.4,9c1.2,0.5,1.4,0.3,3-2.3c0.9-1.4,1.9-3,2.3-3.4l0.7-0.8l-0.2,5.2
		c-0.1,5.2,0.1,6.7,1,6.7c0.3,0,0.8-2.8,0.9-5.9c0.2-2.8,0.5-5.9,0.8-7.1c0.2-0.7-2.5-3.8-3.3-3.8
		C278.3,122,277.4,123.1,276.6,124.5 M255,123.4c0.4,2.4,0.8,6.5,0.7,7.3c-0.1,0.7-0.2,0.6-0.4-0.7l-0.3-1.5l-0.2,1.2l-0.2,1.2
		l-0.2-1.1c-0.3-1.7-0.5-2-0.7-1.9c-0.1,0.1-0.3,0.5-0.3,0.9c0,1.2-1,5-1.6,5.7l-0.5,0.7l0.7,1.4c0.4,0.8,0.7,1.4,0.8,1.5
		c0.2,0.2,5.6,1.1,5.9,1c0.6-0.2,1.2-2.8,1.2-4.7l0-1.8l-0.3,1.1l-0.3,1.1l-0.2-1.7c-0.4-3.7-0.9-4.8-1-2.1l0,1.4l-0.2-1.6
		c-0.1-0.9-0.3-1.8-0.5-2.1c-0.2-0.3-0.5-1.7-0.9-3.1c-0.7-2.8-0.9-3.5-1.4-3.5C254.9,122.3,254.9,122.6,255,123.4 M264.1,124.4
		c0.9,1.9,2.2,5.4,2.2,5.9c0,0.2-0.3-0.3-0.7-1.1c-1.2-2.5-1.4-2-0.5,1.2c0.4,1.3,0.9,3.2,1.1,4.3c0.5,2.1,1.1,2.9,1.1,1.3
		c0-0.9,0-0.9,0.3-0.3c1.3,2.3,0.2-4.7-1.2-7.9c-0.8-1.8-2.9-5.3-3.2-5.4C263.3,122.5,263.6,123.4,264.1,124.4 M354.1,122.9
		c-1.7,2.1-0.2,5.4,3.1,7.1c4.5,2.4,3.5,6-2.1,7.7c-3.3,1-5.1,2.4-5.6,4.4c-0.3,1.2-0.2,2.2,0.3,2.2c0.1,0,0.5,0.5,0.8,1
		c0.6,1.1,1.3,1.9,3.8,4.2c2.1,1.9,3.3,4.2,3,6.1c-0.2,1.4-0.7,2.4-0.7,1.3c0-1.1-1.9-4.4-3.6-6.2c-0.9-1-1.9-2.2-2.1-2.8
		c-0.4-1-0.8-1.2-1.1-0.6c-0.2,0.6,0.4,2.1,1.6,3.9c3,4.4,3.1,8.5,0.4,12.7c-4.1,6.3-3.1,12.7,3.3,21.4c1.7,2.4,1.8,2.2,0.3-2.2
		c-0.9-2.7-1.4-4.4-1.4-5.7l-0.1-1.8l0.4,1.4c0.2,0.8,1,2.9,1.8,4.7c2.7,6.4,2.7,6.6,2.7,10.4c0,3,0,3.4,0.5,3.4
		c1.9,0,1.7-6.7-0.2-9.5c-2.4-3.5-2.4-8.4,0-11.5l0.9-1.1l-0.7-1.1c-0.9-1.3-0.9-4.8,0-6.4c0.4-0.6,0.4-0.9,0.2-1.1
		c-0.7-0.7-2,1.3-2.6,4l-0.3,1.5l-0.4-1.4c-0.7-2.2,0.1-3.9,2.3-5.1c3.7-1.9,5.7-7,4.1-10.1l-0.4-0.8l0,1.1c0,1.3-0.8,3.5-1.6,4.5
		c-0.7,0.9-0.7,0.6,0-1.2c0.7-1.8,0.6-3.8-0.3-8.3c-0.7-3.6-0.6-5.6,0.4-7.2c0.9-1.4,0.6-2-0.6-1.1c-0.9,0.6-1.5,1.7-2,3.9
		c-0.5,2-0.5,2-1,0.6c-1-2.8-0.7-4.2,1.1-5.5c3.5-2.4,4.3-3.3,5.1-5.9c0.4-1.4,0-2.6-1.1-3.2c-0.8-0.4-1-0.8-0.4-1
		c0.8-0.3-0.8-1.3-2.8-1.9c-3.2-1-4.7-2.5-3.7-3.7C355.5,123.2,354.9,121.9,354.1,122.9 M322.1,127.1c0,0.1,0.7,0.3,1.5,0.3
		c1.7,0,5.4,1.1,9.9,3c1.4,0.6,3.7,1.5,5.2,2l2.6,1l-1.4,0.3c-0.8,0.2-2.9,0.6-4.6,0.9c-8.6,1.4-10,1.9-11,3.4
		c-0.8,1.2-0.7,1.3,1,0.7c1.5-0.5,4.3-0.4,5.7,0.2l0.7,0.3l-1.1,1.1c-0.6,0.6-1,1.2-0.9,1.3c0.2,0.4,0.6,0.2,3.9-2
		c1.4-0.9,4.2-2.7,6.1-4c5.3-3.4,4.9-3,3.1-3.5c-0.9-0.3-3.7-1.2-6.2-2.2C329.7,127.3,322.1,125.8,322.1,127.1 M155.8,128.1
		c0.7,0.6,3,1.6,3.9,1.6c0.5,0,1.1,1.8,1.1,3.1c0,0.6-2.2,2.5-2.8,2.3c-0.6-0.2-0.5-0.4,0.5-1.4c1.7-1.7,1.2-2.8-1.7-3.5
		c-0.8-0.2-1.7-0.5-2-0.8c-1.9-1.7-3.2-0.9-4,2.6c-0.5,2.2-0.6,2.5-0.9,2.1c-0.5-0.7-0.2-2.9,0.8-5.1l0.8-1.8l1.9,0.1
		C154.7,127.5,155.3,127.7,155.8,128.1 M239.3,128.2l0.8,0.8l-0.9-0.6c-0.5-0.4-0.9-0.7-0.9-0.8
		C238.3,127.2,238.5,127.3,239.3,128.2 M238.2,129.7c-0.2,0.2-1.7-1.3-1.7-1.7c0-0.1,0.4,0.1,0.9,0.6
		C237.9,129.2,238.3,129.6,238.2,129.7 M296.5,129.4c-6.2,2.5-11.4,7.7-14.5,14.6c-2.3,5.1-2.4,5.6-2,6.5c0.3,0.6,0.3,1.9,0.2,5.1
		c-0.1,3.6-0.1,4.4,0.2,5.1c0.4,0.8,0.4,0.9-0.6,3.1c-0.5,1.3-1.5,4.1-2,6.3c-3.5,13.6-4.9,15.5-9.7,12.8c-2.5-1.4-2.6-1.4-3.3-0.7
		c-0.9,0.9-0.5,6.1,0.5,6.2c0.1,0,0.5,0,0.9,0.1c0.4,0,1.4,0.6,2.3,1.2c4.8,3.3,15.5,2.6,19.3-1.3c3.9-3.9,3.9-4.3,0.4-4.3
		c-3.3,0-3.7-0.3-2.9-2.6c1.1-3.1,2.5-3.7,6.1-2.5c1.7,0.6,1.9,0.5,2.1-0.6l0.1-0.8l-3.8-0.6c-4.5-0.7-4.5-0.7-4.9-3.5
		c-0.4-3.2,0.6-6,3-8.4c0.9-0.9,4.4-0.2,6.3,1.3c1.1,0.8,1.1,0.8,1.2-0.2c0.1-2.4,2.7,5.9,3.5,10.9c0.2,1.4,0.3,5.8,0.4,12.3
		c0.1,14.3,0.5,17.7,2.5,21.2c1,1.6,2.8,3.7,3,3.4c0.4-0.4,4-8,5.7-12.1c4.1-9.9,5.1-13.3,5.4-19.4c0.2-4.3,0.3-4.3-1.5-4.7
		c-3.1-0.8-3.3-4.7-0.6-13.6c0.8-2.4,2.3-4.5,3.3-4.6c0.8,0,0.9-0.6,0.3-1.6c-2.2-3.6-2.2-5.2-0.1-2.3c1.7,2.3,2.1,2.6,2.8,1.8
		c0.3-0.3,2-1.7,3.8-3.1c1.8-1.4,4.6-3.6,6.1-4.8c1.5-1.2,3.4-2.7,4.2-3.2c0.8-0.6,1.4-1.1,1.4-1.2c0-0.2-5.4-2.1-5.9-2.1
		c-0.2,0-0.6-0.2-1-0.5c-1.5-1.1-7-2.8-7-2.2c0,0.1,1.3,1,2.8,1.8c6.7,3.8,6.7,3.8,4.1,4.1c-2.9,0.3-4.3,0.1-6.5-0.6
		c-4.5-1.5-4.5-1.5-4-1c0.2,0.2,1.2,0.9,2.1,1.5c2.1,1.3,2.3,0.9-1.3,3.6c-1.7,1.2-3.1,2.4-3.1,2.5c0,1.1-0.6-0.7-0.8-2.5
		c-0.3-2.5-0.8-4.4-1.6-6.4l-0.5-1.2l-2.3,0.1c-3,0.2-3,0.2-4.2,2.8c-1.1,2.5-1,2.4-4.4,2.7c-1.7,0.1-1.8,0.1-2.8-0.9l-1.1-1
		l0.1-3.7l0.1-3.7l1-0.2c0.9-0.2,1.3-0.1,3.8,1.1c3.7,1.8,3.7,1.8,3.2-2.5c-0.1-1-0.1-1.1,0.7-1.5c1-0.6,1-0.6-0.2-2.5
		C304,128.7,300.9,127.7,296.5,129.4 M226,129.1c-0.1,0.1-0.2,0.5-0.2,0.9c0,1.2-1.2,5.6-2.4,9c-0.9,2.4-1.1,3.3-0.9,3.6
		c0.6,0.6,1.1-0.1,2.1-3.3C226.5,134,227.2,127.8,226,129.1 M327.8,130.8c-5.4,0.6-11.6,1.9-11.6,2.4c0,0.4,2.4,3.2,2.7,3.2
		c0.1,0,2.1-0.9,4.4-2.1c2.3-1.1,4.9-2.4,5.7-2.7c0.8-0.3,1.5-0.7,1.5-0.8C330.6,130.5,330.3,130.5,327.8,130.8 M232.5,135.7
		c0.1,0.6,0.2,1.4,0.4,1.7c0.2,0.5,0.2,0.5-0.2,0.2c-0.2-0.2-0.6-0.9-0.8-1.6c-0.3-1-0.4-1.1-0.6-0.8c-0.5,0.8,0.7,4.1,1.5,4.1
		c0.6,0,0.8-0.5,0.4-1c-0.3-0.4-0.3-0.4,0.2,0c0.5,0.5,1.7,0.4,1.7-0.1c0-0.1,0.2-0.2,0.5-0.1c1.1,0.3,1.3-0.3,0.5-1.2
		c-0.4-0.5-0.9-1-1-1.1c-0.1-0.2-0.1,0,0,0.4l0.2,0.7l-0.6-0.5l-0.6-0.5l0.3,0.7c0.3,0.6,0.3,0.6-0.1,0.1c-0.2-0.3-0.4-0.6-0.4-0.8
		c0-0.2-0.1,0-0.2,0.4c-0.2,0.6-0.2,0.6-0.5-0.5c-0.2-0.6-0.4-1.1-0.5-1.1C232.5,134.5,232.5,135,232.5,135.7 M272.1,135.2
		c1.5,0.7,1.9,1.4,0.7,1c-0.4-0.1-1.1-0.2-1.5-0.3c-0.4,0-0.9-0.2-1-0.4c-0.2-0.3-0.2-0.3-0.2,0.2c0.1,0.4,0.4,0.6,1.1,0.7
		c1.2,0.2,1.4,0.3,2.7,1.3c1.2,0.9,1.1,1.2-0.3,0.6c-3.1-1.4-3.1-1.4-3.1-1c0,0.2,0.7,0.8,1.5,1.2c2.8,1.6,5.8,5,4.7,5.4
		c-1.1,0.4-0.3,1.4,1.1,1.4l1.4,0.1l0.6-1.5c0.7-1.9,0.7-2.3-0.2-3.5c-2-2.7-6.4-6-8.2-6C270.9,134.5,270.9,134.6,272.1,135.2
		 M203.3,138.3c0.2,3.4,0.3,3.9,1,3.6c0.4-0.1,0.4-0.4,0.3-1.6c-0.1-0.8-0.2-2-0.3-2.7c-0.2-2.1-0.4-2.5-0.8-2.5
		C203.2,135.1,203.2,135.6,203.3,138.3 M308.6,136.1c-1.5,0.7-1.5,0.9-1,2.6c0.5,1.9,1.1,2.2,3,1.7c1.7-0.4,1.8-0.6,1.4-3l-0.3-1.8
		l-1,0C310.1,135.6,309.2,135.8,308.6,136.1 M205.6,138.1c0,1.6-0.1,2-0.3,1.7c-0.3-0.4-0.3-0.4-0.2,0c0.1,0.2,0.3,1.3,0.6,2.5
		s0.6,2.1,0.7,2.2c0.1,0.1,0.2-0.1,0.1-0.5c-0.3-1,0.4-1.1,0.8-0.1c0.3,0.8,0.4,0.8,0.4,0.3c0.1-1.7,1.1-2,1.1-0.2
		c0,0.4,0.1,0.7,0.3,0.6c0.6-0.4-0.7-6.3-1.6-7.9c-0.3-0.4-0.1,1.5,0.2,2.9c0.1,0.4,0,0.3-0.2-0.3c-0.5-1.3-0.5-0.3,0,1.6
		c0.2,0.8,0.4,1.6,0.4,1.9c0,0.2-0.4-1.1-0.9-2.9C205.6,135.6,205.6,135.7,205.6,138.1 M89.4,137.1c-0.2,0.5,0.1,1,0.5,0.8
		c0.3-0.2,0.3-1.2,0-1.2C89.6,136.7,89.4,136.8,89.4,137.1 M265.7,137.3c0.1,0.3,0.2,1.2,0.3,2c0.1,0.8,0.4,2.3,0.8,3.3
		c0.4,1,0.8,2.8,0.9,4c0.4,2.8,0.8,3.2,1.1,1.3c0.1-0.3,0.2-0.2,0.3,0.5c0.3,1.8,0.4,1.9,0.8,1.2l0.4-0.7l0.1,0.7
		c0.1,0.4,0.1,0,0.2-0.8c0.1-2.9-0.4-4.8-2.1-8.1c-1.5-3.1-1.9-3.2-0.7-0.1c0.3,0.8,0.5,1.5,0.4,1.5c-0.1,0-0.3-0.2-0.4-0.5
		c-0.1-0.3-0.7-1.5-1.2-2.7C266,137.8,265.6,137,265.7,137.3 M154.8,137.7c1.7,0,4.1,1.8,4.1,3c0,2-2.2,4.1-3.5,3.3
		c-0.2-0.1-0.8-0.3-1.3-0.3c-0.6,0-0.3-0.1,0.7-0.2c2.4-0.3,3-1,2.2-2.8c-0.7-1.5-5.4-2.3-6.2-1.1c-0.6,0.9-0.5,3,0.2,3.4
		c0.5,0.2,0.5,0.2-0.3,0.2l-0.9-0.1l-0.4-2c-0.3-1.9-0.3-2,0.3-2.6c0.8-0.8,2.6-1.4,3.2-1.1C153,137.6,153.9,137.7,154.8,137.7
		 M217.4,138.1c-0.8,1.6-0.4,5.2,1,8.5c0.7,1.5,1.3,3.3,1.4,3.9c0.4,2.3,1.8,2.1,1.6-0.2c-0.4-3.3-1.9-8.3-2.5-8.3
		c-0.3,0-0.3,0.3-0.2,1.1c0.2,1.5-0.3,0.7-0.6-1c-0.2-1.2-0.1-2.8,0.4-4.3C218.8,136.8,217.9,137,217.4,138.1 M211.6,137.9
		c-0.2,0.4-0.8,5.5-0.6,5.6c0.8,0.8,1.6-3.8,1-5.4C211.9,137.9,211.7,137.7,211.6,137.9 M197.8,139.6c0,0.2,0.2,1.1,0.5,1.9
		c0.3,0.9,0.4,1.5,0.2,1.6c-0.4,0.1,1.4,2.7,2,2.8c1.1,0.2,1-0.4-0.1-1.9c-0.6-0.8-1.4-2.2-1.9-3.2
		C198.2,140,197.8,139.4,197.8,139.6 M238.6,139.6c-5.5,0.6-9,2.1-9.3,4c-0.2,1.7,0.3,2.1,1.9,1.5c0.6-0.2,1.8-0.7,2.7-1
		c1.7-0.6,7.5-1.2,9.8-1c0.8,0.1,3.4,0.3,5.9,0.6c5.6,0.5,9.6,1.7,11.6,3.2c1,0.8,1.1,0.7,1.3-0.9c0.4-3.2-3.3-5.5-10.2-6.2
		C248.6,139.5,241,139.3,238.6,139.6 M299.6,139.7c-0.7,0.5-0.4,4.8,0.4,5.5c0.6,0.6,4.2,0.8,4.2,0.2c0-0.2,0.3-1,0.7-1.9
		c0.8-1.9,0.8-2-2.2-3.3C300.5,139.2,300.2,139.2,299.6,139.7 M190.3,140.8c-0.5,0.6-0.6,0.7-4.2,0.7c-3.2,0-3.7,0.1-4.1,0.5
		c-0.5,0.6-1.6,2.6-2.1,3.9c-0.3,0.8-0.6,1.1-1,1.1c-0.7,0-0.8,0.5-1.2,3.6c-0.2,1.8-0.2,1.9,0.3,1.9c1.1,0,2-1.5,1.9-3.4
		c-0.1-1.3,0-1.6,0.2-1.4c1.3,1.1-0.3,6.3-2,6.3c-0.4,0-0.6,0.2-0.6,0.5c0,0.3-0.1,1.3-0.2,2.4c-0.1,1.5-0.1,1.9,0.2,1.9
		c0.2,0,0.3,0.1,0,0.4c-0.4,0.4,0,2.9,0.8,5.6l0.6,1.9l1.3,0.3c1.8,0.4,2.2,1,2.7,4.4c0.2,1.5,0.5,3.1,0.6,3.4
		c0.2,0.7,2.5,2.6,5.9,5c1.1,0.7,2.6,1.8,3.4,2.5c5.7,4.3,11.4,6.2,18.4,6.3c2.1,0,4.8,0.2,6.1,0.4c2.3,0.3,4.2,0.3,7.6-0.2
		c2.3-0.3,2.1,0.1,2.1-3.8c0-6.2-0.4-9-1-7.4c-0.1,0.4-0.6,1.5-1,2.6c-0.6,1.6-0.8,1.9-1.3,1.9c-0.3,0-1,0.1-1.5,0.3
		c-2.3,0.8-8.3-1.5-8.7-3.3c-0.3-1.2-0.8-1.2-2.1,0.1c-1.3,1.4-1.8,1.5-6.7,1.4c-4.1,0-4.2-0.1-6.8-2.4c-0.9-0.8-1.1-1.2-1.1-1.9
		c0-0.5-0.3-3.5-0.7-6.6c-0.4-3.1-0.8-6.9-0.9-8.5c-0.2-2.3-0.3-3-0.9-3.9c-0.5-0.7-0.7-1.7-0.9-3.3l-0.3-2.3l-1.8-0.1
		c-1-0.1-1.9-0.3-2.1-0.5c-0.3-0.3-0.1-0.3,0.6-0.2c2.4,0.4,3.8-0.9,3.5-3.4c-0.2-2-0.9-2.7-2.7-2.7c-0.7,0-1.3-0.1-1.3-0.3
		c0-0.1,0.3-0.3,0.7-0.3c2.9,0,3-0.2,1.9-2.5C191.3,140,191,139.8,190.3,140.8 M196.6,141.1c0.9,3.5,0.8,3.8-0.4,2.1l-0.9-1.3
		l0.2,0.9c0.2,0.9,0.2,0.9-0.2,0.3c-0.4-0.6-0.4-0.6-0.4-0.1c0,1.7,2.6,4.3,3.8,3.8c1.3-0.5,1.3-0.6,0.5-1.7
		c-0.4-0.5-1.2-1.8-1.7-2.8C196.9,141.4,196.5,140.8,196.6,141.1 M166.1,142.4c0,2.1-1.1,3.2-2.9,2.9c-1.4-0.2-1.9-0.7-0.7-0.7
		c0.8,0,1.9-0.9,2.2-1.7C165,141.6,166.1,141.2,166.1,142.4 M272.2,143.7c-0.2,1-0.3,2.6-0.2,3.8c0.1,1.1,0.2,3.4,0.3,4.9
		c0.1,1.6,0.3,2.9,0.4,2.9c0.1,0,0.2,0.2,0.2,0.4c0,0.7,0.5,0.4,0.6-0.3l0-0.7l0.3,0.7c0.6,1.3,0.7,0.5,0.7-4.5
		c0-2.7,0.1-5.5,0.2-6.4c0.1-0.9,0.1-1.7,0-1.8c-0.1-0.1-0.3,0.4-0.4,1.1c-0.3,2.1-0.7,2.6-0.5,0.6c0.1-1.1,0-1.6-0.1-1.2
		c-0.1,0.3-0.3,0.8-0.3,1.2c0,0.6-0.1,0.6-0.3,0.1c-0.2-0.5-0.2-0.5-0.2,0.1c0,0.3-0.2,0.7-0.3,0.8c-0.2,0.1-0.3-0.3-0.1-1.6
		C272.8,141.5,272.6,141.5,272.2,143.7 M246.6,144.9c-1.4,0.2-1.7,0.9-1.8,4.2c-0.1,3.8,0,4.1,1.8,4.1c2.1,0,2.4-0.5,2.6-4.3
		C249.4,145.1,249,144.5,246.6,144.9 M224.6,147.6c0.1,1.5,0.1,3.2-0.1,3.9c-0.3,1.4,0,2.3,0.8,2.2c0.9-0.2,0.8-4.3-0.1-8.1
		C224.7,143.9,224.4,145,224.6,147.6 M275.1,145.5c0,0.4,0.2,0.9,0.5,1.3c0.6,0.7,1,3.8,0.6,4.5c-0.2,0.4-0.3,0.4-0.4-0.1
		c-0.5-1.5-1-0.6-0.8,1.2c0.1,1,0.3,2.9,0.4,4.2c0.1,1.3,0.2,1.9,0.2,1.3c0.1-1.5,0.6-1.5,0.6,0.1c0,0.7,0.1,1.3,0.2,1.3
		c0.3,0.2,0.6-0.4,0.6-1.2c0-0.3,0.1-0.5,0.3-0.5c0.1,0,0.3,0.4,0.3,0.9s0.1,0.9,0.2,0.9c1,0,0.6-8.1-0.5-9.4
		c-0.3-0.3-0.5-0.8-0.5-1.1C276.7,147.9,275.1,144.6,275.1,145.5 M241.5,146.6c-0.4,0.6-0.5,0.9-0.3,1.1c0.4,0.5-0.3,2.6-1.4,4.1
		c-2.3,3.2-6.4,0.4-6-4.1c0.1-1.4-0.5-1.3-0.9,0c-0.7,2.7,0.3,5.7,2.4,6.8c2.6,1.3,7.3,0.5,7.5-1.3
		C243.8,147.6,243.1,144.4,241.5,146.6 M250.3,146.2c-0.2,0.3-0.3,1.4-0.3,2.5c0,1.1-0.1,2.5-0.2,3.2c-0.3,1.8,0.1,2.3,1.8,2.3
		c1.8,0,3.9,0.5,5.4,1.3c1.6,0.8,1.7,0.7,2-1.6c0.4-3.2-0.4-6.9-1-4.4c-0.9,3.7-2.1,4.7-4.6,3.7l-1.4-0.6l0.1-2.8
		c0.1-3.5,0-4.1-0.9-4.1C250.9,145.7,250.5,146,250.3,146.2 M295.4,146.2c0.5,0.4,1.1,2,1.1,3.1c0,0.3-0.2,0.1-0.5-0.6
		c-0.7-1.6-1.6-1.6-3,0.1c-1.9,2.3-0.9,6.6,1.9,8.4c1,0.6,1.4,1.4,0.8,1.7c-0.1,0.1-0.5-0.1-0.7-0.4c-0.3-0.3-1.3-1.1-2.2-1.8
		c-0.9-0.7-1.7-1.5-1.8-1.8c-1.2-5.1-1.2-5.1,0.6-7C293.8,145.7,294.4,145.4,295.4,146.2 M158.2,147.4l1.3,1.4l-0.2,1.9
		c-0.2,2-0.3,2.2-2,3c-1,0.5-4.5,0.5-5.3,0.1c-0.4-0.2,0.5-0.4,3.5-1c1.3-0.2,2.4-1.6,2.3-2.8c-0.2-2-4.7-3.5-6-1.9l-0.6,0.7
		l0.2-1.1l0.2-1.1l1.9-0.2C157.1,145.9,156.8,145.9,158.2,147.4 M236.1,146.7c-1.2,1.2-0.9,3.6,0.7,4.7c1.1,0.8,1.7,0.3,0.8-0.6
		c-1-1.1-0.7-3.7,0.5-3.7c0.6,0,0.7-0.3,0.2-0.7C237.8,145.8,236.8,146,236.1,146.7 M185.6,147.6c0.7,0.7,1.2,3.7,0.7,4
		c-0.5,0.3-0.8,0.1-0.8-0.8c0-1.5-0.5-2.7-1.4-3.1c-0.4-0.2-0.7-0.4-0.6-0.5C183.9,146.9,185.2,147.1,185.6,147.6 M254.8,147.4
		c-0.3,0.2-0.5,0.6-0.5,1.5c0,0.8-0.1,1.4-0.4,1.6c-1.1,0.9,0.1,2.5,1.4,1.9c0.8-0.4,1.7-1.8,1.7-2.7
		C257,148.7,255.4,147,254.8,147.4 M201.9,147.9c-1.2,0.3-2.5,0.7-2.9,1c-1,0.7-1.1,0.3-0.1-0.5c0.5-0.4,0.8-0.7,0.7-0.7
		c-0.7,0-4.6,2.3-4.8,2.9c-0.1,0.4,0.6,4.3,1,5.5c0.4,1.2,1.6,1.3,1.7,0.2c0-0.3,0.1-0.7,0.1-0.8c0.2-0.9,6.2-2.1,11.2-2.1
		c3.7,0,3.8-0.1,3.7-0.6c-0.2-1.2-10.7-1.3-12.8-0.2c-0.5,0.3-0.5,0.2-0.5-0.8c0-1,0-1.1,1.3-1.3c3.7-0.8,5.7-1.1,8.3-1.1l2.9,0
		l-0.7-0.5C209.3,147.5,205.1,147.1,201.9,147.9 M217.5,147.9c0,0,0.1,0.5,0.3,1c0.2,0.5,0.4,1.8,0.5,2.9c0.2,1.8,0.2,2,0.7,2
		c0.7,0,0.7-3.2,0-4.3c-0.2-0.4-0.5-0.9-0.6-1.2C218.3,148,217.5,147.6,217.5,147.9 M264.7,150.4c0,0.2,0.6,0.7,1.3,1.1
		c2.2,1.1,3.3,2.2,2.8,2.8c-0.2,0.3-0.5,0.9-0.7,1.5l-0.3,1l-0.8-1c-1.2-1.4-1.9-0.9-0.9,0.5c0.9,1.3,0.6,6.4-0.4,5.8
		c-0.4-0.3-1.3,0.2-1.3,0.7c0,0.5,1.3,1.1,2.3,1.1c0.3,0,0.3,0.5,0.2,1.8c-0.2,2.8-0.4,3.6-0.9,3.4c-1.6-0.7-3.1,0.1-1.6,0.8
		c0.5,0.2,1.2,0.7,1.6,1.1c0.7,0.6,1.8,0.5,1.8-0.1c0-0.9,0.6-4.2,1.1-6.5c0.8-3.3,2.2-9.1,2.5-9.7c0.2-0.6-1.3-1.9-3.8-3.4
		C265.5,149.9,264.7,149.7,264.7,150.4 M309.1,151.7c1.8,2,1.8,2.1,1.4,4.1c-0.2,0.9-0.5,2.9-0.6,4.3c-0.3,3.7-0.7,1.7-0.5-2.3
		c0.2-3.5,0-4.2-1.5-4.9c-2.6-1.3-3.7-0.2-4.6,4.7c-1.6,8.6-1.6,9.1-0.3,11c1.1,1.6,1,1.6-0.6,0.7c-1.5-0.9-1.5-1.2-1.3-5.6
		c0.1-1.9,0.2-5.1,0.2-7l0-3.5l1.2-1.3c1.1-1.1,1.3-1.3,3-1.5C307.6,150.1,307.5,150,309.1,151.7 M368.2,153.4
		c-1.3,0.3-2,0.7-2.8,1.7c-1.2,1.6-0.7,4.7,0.8,4.7c0.6,0,2.4,1.4,3.1,2.4c1.5,2.2,0.4,4.7-3.8,8.6c-3.3,3.1-4.4,4.8-4.7,7.7
		c-0.1,1.3-0.2,1.6-0.4,1c-0.5-1.7,0.6-5.2,2.2-7.2c1.2-1.5,0.2-0.9-1.5,0.8c-1.9,2-2.4,3.2-2.4,6.2c0,3.2,0.4,3.8,3.7,6
		c4.2,2.8,6.3,5.7,5.9,8.3l-0.2,1.3l-0.6-1.5c-0.9-2.3-1.9-3.8-3.1-4.8c-0.6-0.5-1.6-1.4-2.2-1.9c-1.8-1.7-2.4-1-0.9,1.1
		c2.3,3.4,2.6,4.4,1.6,7.4c-0.2,0.6-0.1,0.6,3.4,0.7c4,0.2,4.1,0.1,4.4-1.8c0.2-1.6,0.5-1.3,0.8,0.7c0.2,1.6,0.2,1.6,1,1.6h0.8v-1.9
		c0-2.2,0.3-2.2,0.8-0.1c0.6,2.7,2.8,3.8,3.6,1.8l0.4-1l0.4,1.3c0.5,1.6,0.9,1.6,2.3,0.3c1.2-1.2,1.4-1.9,0.9-2.3
		c-0.5-0.4-0.9-2.1-1.2-5c-0.6-5.1-1.5-5.4-1.9-0.6c-0.2,2.7-0.5,4-0.9,3.6c-0.3-0.3-1.5-4.3-1.7-5.3c-0.2-1.3-0.6-1.5-0.8-0.3
		c-0.4,2.6-0.4,3.5-0.2,4.3c0.6,1.8,0.1,1.5-1.1-0.6c-0.7-1.2-1.7-2.6-2.2-3.3c-3.6-4.3-4-8-1.2-12.3c2-3.2,1.3-3.6-1.6-0.7
		c-3.1,3.1-4.4,6.3-3.5,8.7c0.5,1.3-0.1,0.7-1-1.1c-0.9-1.8-1-3.1-0.4-4.3c0.8-1.6,3.3-4.6,4.7-5.6c2-1.5,4.9-4.1,5.2-4.8
		c0.8-1.3,0.3-4.4-0.9-5.8c-0.7-0.7-0.8-0.6-0.7,1.1c0.1,1.6-0.7,4.4-1.3,4.8c-0.2,0.1-0.2,0-0.1-0.3c1.2-3.1-0.5-8.4-2.9-8.7
		c-0.5-0.1-0.6-0.2-0.5-1.4c0.1-2.3,1.6-3,3.9-1.9c1.5,0.7,1.8,0.8,1.6,0.1C372.7,153.9,370.1,153,368.2,153.4 M218.6,154.5
		c-1.4,0.4-1.9,0.9-2.5,2.3l-0.7,1.5l0.6,1.3c0.5,1.2,0.5,1.5,0.3,3.8c-0.3,2.9-0.5,12.1-0.3,12.3c0.4,0.4,1.3-2,1.3-3.3
		c0-0.3,0.1-0.6,0.3-0.6c0.2,0,0.3-1,0.3-2.5c0-2.1,0.8-8.1,1.2-9.6c0.2-0.7,1.7-0.6,5.1,0.5c0.8,0.3,0.8-0.4,0-1.2
		c-1-1-3.1-1.6-4.5-1.4c-1.1,0.1-1.3,0.1-1.3-0.3c0-0.6,0.9-0.9,3.3-1.1c2.4-0.2,2.7-0.6,1-1.3C221.2,154.4,219.5,154.2,218.6,154.5
		 M241.3,155.6c-6,0.3-7.5,0.6-9.6,2.5c-1.6,1.5-1.1,2.9,0.6,1.6c0.4-0.3,0.6-0.3,0.7-0.1c0.4,0.6,0.2,1-0.8,1.5
		c-1.3,0.6-1.7,1.2-1.5,1.7c0.2,0.5,1.1,0.3,1.7-0.4c1-1.2,6.6-1.6,16-1.3c6.3,0.2,8,0.4,8.5,0.9c0.2,0.2,0.7,0.4,1.1,0.5
		c0.4,0.1,1.1,0.5,1.7,1c0.8,0.6,1.1,0.7,1.4,0.5c0.6-0.5-0.2-1.8-1.6-2.5c-0.6-0.3-0.7-0.5-0.7-1.1c0.1-1,1-0.7,2.2,0.5
		c1,1,1.6,1.1,1.3,0.1c-0.2-0.8-1.5-2.2-2.5-2.8c-0.4-0.2-1.2-0.7-1.9-1.1c-0.9-0.6-1.6-0.7-3.5-0.9c-1.3-0.1-3.4-0.3-4.7-0.4
		c-1.3-0.1-2.8-0.3-3.3-0.3C246.1,155.5,243.7,155.5,241.3,155.6 M202.6,156.5c-1.3,0.7-2,3.2-1.3,4.7c0.6,1.2,3.2,2.2,4.2,1.7
		c0.6-0.4,0.2-1.1-0.5-0.9c-1.6,0.4-2.8-2.4-1.7-3.8C204.7,156.5,204.3,155.6,202.6,156.5 M157.1,157.1c-2.7,0.8-3,0.9-1.5,0.7
		c1.3-0.2,5-1.4,4.2-1.4C159.5,156.5,158.3,156.7,157.1,157.1 M180.4,157.1c1.4,1,0.2,2.7-1.5,2.3l-0.9-0.2l0.9-0.3
		c0.9-0.3,1.3-1.7,0.5-2c-0.2-0.1-0.2-0.1,0.1-0.2C179.6,156.7,180.1,156.9,180.4,157.1 M190.9,157.1c1.7,0.9,2,6.8,0.5,8.6
		c-0.4,0.5-0.8,0.8-0.8,0.8c0-0.2,0.6-1.2,1-1.7c0.3-0.4,0.1-3.2-0.5-5.3c-0.3-1-1.5-1.9-2.8-1.9c-1,0-2.3-0.3-2.3-0.6
		C186.1,156.5,190,156.6,190.9,157.1 M286.7,157.3c-2.2,1-1.2,3.7,1.3,3.7c1.8,0,1.8,0,0.6,0.5c-2.1,0.9-3.2,0.4-4-1.5
		c-0.9-2.1-0.2-3.1,1.8-3.1l1.1,0L286.7,157.3 M208.3,157.5c-0.5,0.8-0.9,10.5-0.4,11.2c0.7,1.1,0.9-0.3,1-5.6
		C209.1,158,208.9,156.6,208.3,157.5 M253,158.2c0.6,0.1,0.8,0.3,0.8,0.8v0.6l-3.5-0.2c-1.9-0.1-5.4-0.2-7.6-0.2c-4,0-4.1,0-4.1-0.6
		V158h6.8C249.1,158,252.5,158.1,253,158.2 M197.6,159.5c0.1,0.7,0.3,2.4,0.4,3.8c1.2,12.2,1.1,11.7,2.3,13c1.8,1.9,3.2,2.1,2.8,0.5
		c-0.2-0.9-0.2-1,0.4-1.3c0.8-0.4,4.6-1.3,5.6-1.3c1,0,0.8-0.8-0.2-1c-0.5-0.1-2.2-0.2-3.8-0.2c-1.6,0-2.9,0.1-2.9,0
		c0-0.5-2.1-12-2.3-12.7c-0.4-1.3-0.7-0.3-0.6,2l0.2,2.5l-0.4-1.5c-0.2-0.8-0.4-2.1-0.4-2.9c0-1.6-0.3-2.1-1-2.1
		C197.5,158.3,197.5,158.5,197.6,159.5 M337.9,158.6c-0.7,0.7,0.7,6.3,1.5,6.3c0.3,0,0.6,1.5,0.4,1.8c-0.1,0.1-0.7-0.3-1.3-0.9
		c-1.6-1.7-2-0.9-0.7,1.4c0.9,1.5,0.5,3.3-1.1,5.1c-3,3.5-3.1,6.1-0.1,9.8c2.6,3.2,3,4.1,2.1,5.4c-0.5,0.8-0.1,1.1,3.1,2.1
		c3.6,1.2,5.4,2.4,5.5,3.9c0,0.4,0.2,1.2,0.4,1.7c0.4,1.2,0.2,1.5-0.4,0.5c-1.3-2.2-5.9-4.3-8.1-3.7c-2.1,0.5-2.7,0.2-3.3-1.6
		c-1.2-3.9-2.5-4.3-2-0.6c0.5,3.4-0.2,4.8-1.8,3.6c-1.3-1-1.4-2-0.5-4.8c1-2.9,0.9-4.7-0.4-6.4c-2-2.7-2.2-3.1-2.4-4.4
		c-0.2-1.5-0.5-1.8-0.7-0.8c-0.3,1.1-0.2,2.2,0.4,3.4c0.5,1.1,0.5,1.2,0,0.7c-1.3-1.2-1.5-0.2-0.2,1.7c1.4,2,1.4,2.3,0.2,5
		c-1.2,2.8-1.3,2.9-0.8,0.6c0.7-2.9,0-3.6-1.1-1.3c-1.5,2.9-1,7.2,1.2,9.6c0.9,1,0.9,1.1,0.9,3.2c-0.1,3.7,3.7,10.1,6.9,11.7
		c2.4,1.2,6.8,1,10-0.5l1.5-0.7l0.2-3.1c0.1-1.7,0.3-3.5,0.4-3.9l0.2-0.8l0.6,0.9c2,3.2,0.9,10-1.8,11c-0.4,0.1-1.7,0.7-2.9,1.2
		c-2.1,0.9-2.3,0.9-3.5,0.6c-2.3-0.6-5.4-1.9-6.6-2.8l-1.2-0.9l-0.7,1c-0.4,0.7-0.8,1.7-1,2.9c-0.2,1-0.4,1.9-0.5,1.9
		c-0.3,0-0.7-1.1-0.9-2.1c-0.7-4.1-1.9-3.8-1.9,0.5c0,4.2-0.1,4.3-2.3,2.2c-1.9-1.9-2.2-2.6-1.7-3.4c0.5-0.9,0.1-1.4-0.6-0.7
		c-0.9,0.9-0.8,2.7,0.2,4.4c0.8,1.4,1.3,5.3,0.5,4c-0.8-1.4-1.9-2.3-3.5-3.1c-3-1.4-3.2-4-0.4-5.4c3.7-1.9,4.6-5.4,2-7.9
		c-3.6-3.4-4.6-5.2-3.1-5.7c1.3-0.5,0.8-1.4-0.6-1c-2.4,0.6-2.7,3.1-0.6,5.8c0.7,0.9,1.4,1.7,1.5,1.8c0.3,0.2,0,2-0.4,3
		c-0.2,0.4-1.1,1.3-2.1,2c-4.8,3.5-4.9,6.1-0.5,8.3c2.7,1.3,3.1,2.8,2,7.9c-1,4.5-0.6,7.3,1.5,10.8l0.5,0.9l-0.7-0.2
		c-1.2-0.3-2-1.5-3.3-4.7c-1-2.6-1.2-2.9-1.7-2.9c-0.8,0.1-0.7,2.5,0.2,4.7c1.5,3.6,0.6,5.6-1.4,3c-1.5-2-2.2-1.6-1.3,0.7
		c1.2,2.8,1.7,5.8,1.4,8.1c-0.2,1.8-0.2,2.4,0.1,3c0.2,0.4,0.4,1.1,0.4,1.5c0,0.8,0.8,1.8,1.5,1.8c0.6,0,0.5,0.2-0.5,1.4
		c-1,1.1-1.7,2.9-1.4,3.6c0.3,0.7,0.7,0.5,1.3-0.7c0.8-1.6,1.6-2.4,2-2c0.3,0.2,0.2,0.5-0.3,1.3c-2.2,3.6-2.7,5.3-2.2,8
		c0.5,2.7,1.1,2.4,1.3-0.7c0.2-2.4,0.6-3.7,1.9-5.5c0.7-1,1.2-0.9,0.5,0.1c-1.8,2.9-1.4,7.9,1.1,13.4c0.6,1.3,1.3,3,1.6,3.7l0.5,1.3
		l-0.1-1.6c-0.1-0.9-0.4-2.3-0.8-3.3c-1.9-4.5-1.8-8.6,0.2-11.1l0.6-0.8l-0.4,1.1c-0.5,1.3-0.5,2.6-0.1,4.4c0.5,2.2,0.7,2.1,0.8-0.5
		c0.2-3.6,0.6-3.3,0.6,0.5c0,2.9,0.1,3.5,0.7,5c0.4,1,0.7,2.4,0.8,3.2c0.1,2.1,0.7,2,1.2-0.1c0.3-1.5,0.3-1.7-0.4-3.5
		c-1.3-3.5-1.1-7.8,0.3-9.5c0.9-1.1,1.1-0.9,0.3,0.4c-1.1,1.9-1,4.2,0.3,8.1l1.1,3.3L326,278c-0.6,3.2,0.2,4.8,3.2,6.5
		c1.3,0.7,1.8,1.3,1.1,1.3c-0.5,0-2.5-1.1-3.6-2c-1.6-1.3-1.9-1.4-1.3-0.5c0.8,1.1,3.6,3.7,5,4.6c0.6,0.4,1.6,1.1,2.3,1.6
		c5.2,3.9,11.7,4.2,16,0.8c0.2-0.2,0.9-0.5,1.6-0.7c1.8-0.6,2.4-2.3,2.9-9.2c0.1-1.6,0.6-4.4,1-6.3c1.6-6.8,2.6-12.8,2.2-14.3
		c-0.2-0.6-1-1.6-2.6-3c-5.7-5.2-7.9-7.8-10.7-12.3l-1.8-3.1l-2.1-0.7c-2.9-1-3.3-1-5,0.6c-3,2.7-5,7.8-4.7,11.8
		c0.3,4,2.1,8.5,3.6,9.1c1.3,0.6,1.6,1.2,0.9,2c-0.9,1.1-2.8,0.3-5.3-2.2c-4.6-4.6-4.6-15.6,0-21.1c0.4-0.5,0.7-1.1,0.7-1.6
		c0-1.1,1-3.8,1.6-4.4c0.5-0.5,0.5-0.5,0.5,0.8c0,1.8,0.3,2.3,1,1.6c0.4-0.4,0.5-0.8,0.5-1.8c0-1,0.3-1.9,1.1-3.6
		c1.3-2.6,1.5-2.7,0.9-0.4c-0.6,2.4,0,3.8,1.7,4.7c1,0.5,1.3,0.1,1.5-2c0.1-0.9,0.2-1.7,0.4-1.8c0.2-0.1,0.8,1.5,0.8,2.4
		c0,1.1,1.6,3.8,2.1,3.5c0.2-0.1,0-1.4-0.5-5.1c-0.2-1.4-0.2-2.2,0-3.2c0.5-2.2,0.7-2.2,0.7,0.2c0,2,0.1,2.4,1,4.2
		c0.9,1.8,1.4,3.4,1.6,5.1c0.1,0.5,0.2,0.3,0.5-0.8c0.4-1.4,0.4-1.6,0-3.3c-1.1-4.8,0.7-10.2,5.3-15.8c2.6-3.1,3.4-4.5,3.7-6.2
		c0.2-1.3,0.6-1.2,0.7,0.2c0.1,1.2,0.6,2,2.8,4.6c1.3,1.5,2.5,2.4,2,1.5c-0.1-0.3-0.3-3-0.4-6.1c-0.2-6.4-0.4-7.3-3.1-10.3
		c-1.9-2.1-2.1-2.8-1.7-4.8c1.2-5.5,0.8-9.5-1.1-11.6c-1.1-1.2-1.3-0.8-1,2.1c0.3,2.2,0.2,2.6-0.2,4l-0.5,1.5l-0.1-1.1
		c-0.4-6-1.4-10-2.5-10.2c-0.6-0.1-0.6,1,0,3.3c0.3,1.3,0.4,1.9,0.1,2.8c-0.7,2.7-2,0-2.8-5.6c-0.7-5-1.7-5.1-1.8-0.1
		c0,2.2-0.1,3.1-0.3,2.6c-0.4-1-2.9-4.1-4.2-5.3c-2.9-2.5-2.6-4.4,1.3-8.1c2.9-2.7,2.7-6.4-0.4-9.3c-1.5-1.4-2.6-2.9-2.6-3.7
		C338.6,158.6,338.3,158.2,337.9,158.6 M272.7,159.7c0,0.5,0.4,0.9,1.4,1.6c2,1.4,2.2,1.6,1.7,2.6c-0.2,0.5-0.5,1-0.5,1.3
		c-0.1,0.3-0.1,0.3-0.2,0c0-0.7-1.1-1.8-1.7-1.8c-0.5,0-0.6,1.1-0.1,2.5c0.1,0.2-0.2,0.7-0.5,1.1c-1.2,1.3-0.3,2.7,0.9,1.6
		c0.4-0.4,0.5-0.4,0.5-0.1c0,0.7-1.3,4.4-1.3,3.8c0-0.8-0.9-1.8-1.3-1.6c-0.2,0.1-0.3,0.6-0.2,1.3c0.2,1.3,0,1.7-0.9,1.8
		c-1.9,0.3-1.2,2,0.7,1.8c1-0.1,1.1-0.1,1,0.3c-0.1,0.2-0.2,0.8-0.3,1.2c-0.2,1.1-0.5,1.1-1.4,0.3c-1.7-1.4-2.7-0.8-1.1,0.7
		c0.5,0.5,1.2,1.4,1.5,2.1c1.4,3.1,2.4,1.2,5.6-10.2c0.6-2.2,1.3-4.5,1.6-5.2c0.6-1.4,0.5-1.8-0.9-3.5
		C275.6,159.1,272.7,158.2,272.7,159.7 M182,161.9c1.3,0.9,0.5,2.7-1,2.4l-0.8-0.2l0.6-0.3c0.9-0.5,1-1.4,0-1.9l-0.7-0.4l0.7,0
		C181.1,161.5,181.7,161.7,182,161.9 M134.2,162.6c2.5,0.7,3.8,2.1,2.8,3c-0.3,0.3-0.5,0.7-0.4,1c0.1,0.3,0,0.5-0.2,0.5
		c-0.3,0-0.3-0.3-0.3-0.9c0.1-0.8,0-1-1.7-2.3c-1.9-1.5-2.2-1.6-3.1-1.1l-0.6,0.3l0.5-0.6C131.8,161.9,131.8,161.9,134.2,162.6
		 M220,162.5c-0.4,0.2-0.9,4.5-0.6,5.3c0.1,0.4,2.9,1.7,3.1,1.4c0.2-0.4-0.4-1.4-1.1-1.8l-0.8-0.4l0.3-2
		C221.3,162.6,221,161.8,220,162.5 M316.7,162.9c-0.7,0.6-1.7,3.4-3.9,11c-0.3,0.9,1,2.8,1.9,2.8c2.4,0,3.7-2.3,4.3-7.5l0.4-3.1
		l-0.7-1.9C317.9,162.1,317.7,162,316.7,162.9 M71.9,164.3c0,1.6-0.5,3.4-1.7,6.1c-1.5,3.4-2.1,5.7-2.5,8.5
		c-0.4,3.5-0.9,2.6-0.9-1.6c0-3,0.4-5.1,1.6-7.5c0.4-0.9,1.3-2.8,1.9-4.2C71.6,162.8,71.9,162.5,71.9,164.3 M235.3,163.3
		c-0.1,0.2-0.2,0.9-0.3,1.7l-0.1,1.4l0.4-1.6C235.7,163.3,235.7,162.7,235.3,163.3 M239.3,165.8c-0.2,2.9,0.2,3.9,0.7,1.6
		c0.1-0.3,0.1,0.4,0.2,1.5l0.1,2l0.4-1.2c0.5-1.6,0.7-4.2,0.4-5.2c-0.3-0.9-0.9-1.2-0.9-0.5c0,0.4,0,0.4-0.4,0
		C239.5,163.6,239.4,163.8,239.3,165.8 M230.1,165.2c-0.2,0.4-0.4,1.4-0.5,2.2l-0.2,1.4l0-1.5c0-1.3-0.1-1.4-0.3-0.8
		c-0.4,0.9-0.4,3.6,0,4.1c1,1.2,1.9-0.7,1.8-3.8C230.8,164.3,230.6,163.9,230.1,165.2 M202.9,165.2c-1.5,1.5-0.2,4.4,1.9,4.2
		c0.9-0.1,0.9-0.8-0.1-1.2c-1.1-0.5-1-2.2,0.2-2.4c0.4-0.1,0.8-0.2,0.7-0.3s-0.1-0.3-0.1-0.5C205.5,164.4,203.4,164.6,202.9,165.2
		 M233.7,165.2c-0.4,1.3-0.2,6.5,0.3,8.3c1.1,4,2.9,7.9,3,6.4c0-0.6,0-0.6,0.4-0.2c0.3,0.5,0.4,0.4,0.5-0.5l0.1-1l0.4,1.3l0.4,1.3
		l0-1.1c0-1.1,0-1.1,0.4-0.4c0.6,1.1,0.5-2.1-0.2-4.5c-0.3-1.1-0.6-2.9-0.7-3.9c-0.2-2.4-0.6-2.4-1,0.1l-0.3,1.8l-0.2-1.3
		c-0.1-0.7-0.2-2.5-0.1-3.9c0.1-1.6,0-2.3-0.1-1.8c-0.1,0.4-0.2,2.4-0.3,4.3c0,3.9-0.1,3.9-0.6,0.2l-0.4-2.6l0,1.8
		c0,2.4-0.3,2.1-0.6-0.7l-0.2-2.2l0,2.5c-0.1,3.5-0.3,2.9-0.5-1.2C234,165.8,233.9,164.8,233.7,165.2 M250.1,165.1
		c0,0.3-0.1,0.3-0.5,0.1c-0.3-0.2-0.7-0.2-1-0.1c-0.3,0.1-0.7,0.2-0.9,0.2c-0.5-0.1-0.3,4.9,0.2,5.4c0.3,0.3,0.3,0.2,0.2-0.5
		c-0.3-1.4,0.1-2.2,0.5-1.3c0.3,0.7,0.3,0.6,0.2-1.1l-0.1-1.9l0.3,1.7l0.3,1.7l0.2-1.2c0.2-0.9,0.3-1.1,0.5-0.8
		c0.2,0.3,0.3-0.1,0.3-1.1c0-0.8-0.1-1.5-0.1-1.5S250.1,164.8,250.1,165.1 M257.8,166.2c0,0.5,0.2,1.8,0.5,2.9
		c0.7,2.6,0.7,3.7,0,1.6c-0.5-1.7-1.3-2.8-0.8-1.3c0.6,2.2,0.8,4.8,0.5,6.4c-0.4,2,0,2.8,0.7,1.3l0.4-0.9l0.1,0.9l0.1,0.9l0.4-0.7
		c0.8-1.3,0.5-4.6-0.6-7.9c-0.5-1.6-1-3.2-1.1-3.6C257.9,165.4,257.9,165.4,257.8,166.2 M288.2,166.8c-0.3,0.6-1,1.5-1.4,2.1
		c-1.2,1.7-1.2,4.9,0,5.9c1.7,1.5,7.5,2.5,7.6,1.3c0-0.2,0.1-1.2,0.2-2.2c0.5-5.2,0.1-7.3-1.5-6.9c-0.3,0.1-1.1-0.1-1.7-0.4
		C289.1,165.6,288.9,165.6,288.2,166.8 M254.6,167.4c-0.1,0.5-0.7,2.1-1.3,3.5c-0.6,1.5-1.1,2.8-1.2,3.1s-0.1-0.2,0-0.9
		c0.1-1.3,0.1-1.3-0.3-0.7c-0.6,0.9-0.5,0.3,0.1-2.1c0.7-2.5,0.7-3.5,0-1.8c-0.3,0.7-0.7,1.8-0.9,2.3c-0.4,0.9-0.7,2.2-1.2,4.7
		c-0.2,1-0.2,1-0.4-0.8c-0.1-1.8-0.2-1.9-0.5-1.1c-0.8,1.7-0.4,9.6,0.5,9.1c0.1-0.1,0.3,0,0.3,0.1c0,1,0.5-0.3,0.6-1.3
		c0-1.3,0.1-1.2,0.4,0.6c0.2,1.3,0.7,1,0.7-0.4l0-1.1l0.3,1c0.4,1.3,0.9,1.1,0.8-0.4c0-1,0-1.1,0.2-0.4c0.2,0.7,0.2,0.5,0.4-1.2
		c0.3-2.6,0.9-6.5,1.2-7.4c0.4-1,0.3-1.4-0.2-0.8c-0.5,0.7-0.5,0.5,0.1-1.2c0.5-1.6,1-3.7,0.7-3.7
		C255,166.5,254.8,166.9,254.6,167.4 M179.7,168.7c-0.4,0.9,1.2,4.3,2,4.3c0.8,0,0.7-1.8-0.2-3.5
		C180.8,168.1,180.1,167.8,179.7,168.7 M139.5,171.3l1.9,1.3l0.1,1.5c0.1,1.4,0,1.6-0.8,2.4c-0.5,0.5-1.4,1.5-2.1,2.2
		c-0.7,0.8-1.6,1.6-2.1,2c-0.5,0.4-0.1-0.2,1.1-1.4c2.5-2.6,2.4-2.4,2.5-5.1l0-2.3l-0.9-0.4c-1.3-0.6-2.4-0.5-3,0.2
		c-0.6,0.7-3.2,4.7-3.8,5.9c-1.1,2.3,0.1-1.8,1.5-4.7c0.5-1.2,0.9-1.5,2.1-2.1C137.5,169.8,137.3,169.8,139.5,171.3 M148.6,170.2
		c0.9,0.2,1.8,1.4,2.1,2.6c0.2,0.8,0.2,0.8-1.1-0.5c-2-2-4.1-1.3-4.1,1.4c0,0.4-0.1,0.5-0.5,0.5c-0.6-0.1-0.7-1.3-0.2-2.9l0.4-1.3
		h1.3C147.3,170,148.2,170.1,148.6,170.2 M231.4,172c-0.4,1-0.4,1.2,0.1,0.3c0.2-0.4,0.4-0.8,0.3-0.9S231.6,171.6,231.4,172
		 M229.8,173.3c-1,2.1-0.5,9.6,0.5,7.9c0.2-0.3,0.2-0.3,0.4,0c0.1,0.2,0.2,0.1,0.4-0.3c0.2-0.4,0.3-0.5,0.3-0.3
		c0,0.7,1.1,0.4,1.1-0.4c0-0.6,0.1-0.6,0.2-0.1c0.2,1,0.5,0.7,0.7-0.8c0.1-0.8,0.2-1.8,0.3-2.4c0.2-1.3-0.7-1.5-1.4-0.2
		c-0.6,1.3-1.1,0.6-0.7-1c0.4-1.6,0.2-1.8-0.5-0.5c-0.5,0.9-0.5,1-0.6,0.4c0-0.6,0-0.6-0.3-0.1c-0.3,0.8-0.3-1.5,0-2.4
		C230.8,171.8,230.4,172,229.8,173.3 M255.1,175c0,0.3,0.1,0.9,0.2,1.3c0.6,1.8,0.6,2.4,0.2,2c-0.3-0.3-0.4-0.3-0.4,0
		c0,0.3-0.1,0.3-0.3,0c-0.4-0.6,0,1.2,0.6,2.6c0.3,0.6,0.5,1.4,0.5,1.6c0,0.7,0.6,1.1,1.7,1.2c1.2,0.1,1.3-0.8,0.4-3.7
		c-0.8-2.6-1.1-2.8-0.9-0.8l0.2,1.4l-0.4-1.1c-0.2-0.6-0.6-1.8-0.8-2.8C255.6,174.9,255.1,174,255.1,175 M280.7,175.8
		c-1.5,0.8-1.9,4.4-0.5,5.1l0.6,0.3l-0.6,0c-0.8,0-1.9-0.5-2.1-1.1c-0.4-1.2,0.8-4.1,1.8-4.5C281.1,175.1,281.7,175.3,280.7,175.8
		 M387.8,176.7c-0.1,0.7,0,1.7,0.3,2.7l0.4,1.6l-0.8,0.8c-0.4,0.4-1.2,0.9-1.7,1.1c-3.8,1.2-5,3.9-2.8,6.9c2.3,3.1,2.4,4.5,0.9,7.5
		c-2.2,4.5-9.1,9.9-8.4,6.6c0.3-1.2-0.3-1.2-2.2-0.3c-2,1-2.1,0.9,0.6,2.2c1.2,0.6,3.8,2.1,5.8,3.3c4.5,2.7,8.8,5.1,9,4.9
		c0.1-0.1-0.3-0.8-0.8-1.7c-1.4-2.3-0.9-4.5,2-7.8c1.5-1.7,1.9-2.7,1.7-3.9c-0.2-1.3-0.9-1.2-1.7,0.3c-0.3,0.6-1.7,2-3,3.2
		c-1.3,1.2-2.8,2.4-3.2,2.9l-0.8,0.8l0-0.8c0-1.6,1-3,3.6-4.9c5.8-4.4,7.3-8.1,4.9-12c-1.8-3-2.6-2.9-1.4,0.1c0.8,2,1.1,4.2,0.5,4.2
		c-0.1,0-0.3-0.1-0.3-0.2c0-0.1-0.9-1.4-2-2.8c-2.9-3.8-3-5-0.3-6.5c2.9-1.6,3.2-3,1.1-5.7c-0.4-0.6-0.8-1.4-0.8-2.1
		C388.4,175.3,388.1,175.3,387.8,176.7 M216,176.3c-2.2,1-0.6,4.2,2.1,4.1c0.5,0,0.5-0.1-0.5-1c-1.5-1.2-1.4-1.3,0.5-1.7
		c1.4-0.3,1.8-0.3,3.1,0.1c1.7,0.5,1.9,0.4,1.3-0.5C221.6,176,218,175.4,216,176.3 M145.5,179.1l1.7,0.8l-0.1,1.2
		c-0.2,2.1-0.9,4.4-1.5,5l-0.5,0.5l0.5-1.2c1.7-3.9,1.4-5-1.9-5.6c-1.6-0.3-1.7-0.2-3.4,2.6c-0.9,1.6-1.3,2.1-1.3,1.6
		c0-0.3-0.1-0.8-0.3-1.1c-0.2-0.4,0-0.9,1.7-2.8C142.5,177.7,142.5,177.7,145.5,179.1 M255.9,180.3c0,0.1-0.2,0-0.4-0.4
		c-0.2-0.4-0.4-0.8-0.4-0.9c0-0.1,0.2,0,0.4,0.4C255.7,179.7,255.9,180.1,255.9,180.3 M287.2,179.4c-0.8,0.6-1.1,2.4-0.5,3.2
		c0.5,0.8,4.3,1,5.1,0.2c0.8-0.8,0.6-2.7-0.4-3.2C290.2,179.1,287.9,178.9,287.2,179.4 M233.3,182.2c-0.4,0.1-1.1,0.2-1.6,0.2
		c-2.5,0.4-3.5,2.7-2.3,5.3c0.6,1.3,1.1,1.4,2.3,0.6c1.3-0.9,3.8-1.4,5.4-1c0.8,0.2,1.3,0.2,1.4,0c0.3-0.5-0.4-0.8-1.9-1
		c-1.2-0.2-1.3-0.2-0.6-0.3c1.2-0.1,0.4-0.5-1.2-0.6l-1.1-0.1l0.9-0.2c1.2-0.2,1.3-0.7,0.4-1.2l-0.8-0.4l0.9-0.1c0.5,0,1.3,0,1.7,0
		c0.5,0,0.7,0,0.6-0.3c-0.1-0.2,0-0.3,0.4-0.1c1.5,0.5,2.2,0.5,2.1,0.1C239.6,182.4,236,181.8,233.3,182.2 M123.8,184.2
		c2.1,1.1,3,2.8,2,3.9c-0.8,0.8-1,0.8-2.4-0.3C121.1,186,121.5,183,123.8,184.2 M250.7,184.1c-1.7,0.4-2,0.8-0.4,0.7
		c1.4-0.1,1.4-0.1,0.5,0.2c-1.6,0.5-1.2,0.6,1.2,0.5c2.3-0.1,5.2,0.5,5.2,1c0,0.3-0.4,0.3-1.1,0c-0.3-0.2-0.9-0.2-1.4-0.2
		c-0.8,0.1-0.8,0.1,0.7,0.9c1.9,1,1.9,1.1,0,0.4c-1.7-0.6-3.8-0.4-5.4,0.6c-1.3,0.8-1.4,1.1-0.2,0.6c2.1-0.8,3.1-0.7,1.4,0.1
		c-1.7,0.9-1.8,0.8,1.2,0.4c1.4-0.2,4.4,0.8,4.8,1.7c0.5,1.1,1.6,0.8,1.9-0.6c0.7-2.7,0.5-3.6-0.7-4.8
		C256.9,184,253.7,183.4,250.7,184.1 M136.2,187.3c0,0.2-0.6,1-1.2,1.7c-1.2,1.3-1.2,1.3-0.5,0.3c1.7-2.6,0.1-4.3-3.3-3.5
		c-0.2,0-0.4-0.1-0.4-0.4c0-0.4,0.2-0.5,1.5-0.6c0.8,0,1.8-0.2,2.3-0.3C135.2,184.2,136.2,185.8,136.2,187.3 M175.4,184.7
		c-1.4,0.2-2.5,1.2-2.1,1.9c0.7,1.3,3,1.2,3.8-0.2C177.9,185,177.3,184.4,175.4,184.7 M282.1,184.9c0.3,0.2,0.2,0.3-0.4,0.3
		c-1.7,0-2,1.8-0.4,2.3l0.9,0.3l-0.7,0.2c-1,0.3-2.2-0.4-2.3-1.2C279,185.3,280.8,184.1,282.1,184.9 M178.5,185.5
		c-0.1,0.2-0.2,0.8-0.4,1.3c-0.4,1.3-1,1.6-3.4,1.5l-2-0.1l-0.5,0.9c-0.7,1.3-0.7,1.5,0.8,2c1.9,0.6,2.3,1.2,2.3,3
		c-0.1,2.2-0.5,2.5-2.6,1.7c-2.7-1-2.7-1-3.4,1.7c-0.9,3.8-1.8,14-1.3,14.4c0.1,0.1,0,0.6-0.2,1.3c-0.5,1.5-0.1,2.6,1.2,3.3
		c1.7,1,2.5,0.4,2.5-1.7c0-0.5,0.1-1,0.2-1c0.4-0.3,0.8,1.2,0.8,2.8c0,1.5,1.8,3.5,2.2,2.4c0.1-0.2,0.6-0.1,1.6,0.2
		c2.2,0.7,2.5,0.4,2.4-1.9c-0.1-1.9,0.2-2.2,0.9-1.1c0.3,0.5,0.4,1,0.2,2.5c-0.3,2.2-0.3,2.3,2.3,2.5c1.1,0.1,2.6,0.3,3.1,0.5
		c0.6,0.1,1.8,0.4,2.8,0.7c4.5,1.1,6.1,0.8,6.3-1.2c0.2-1.5-0.5-2.4-2.4-3.2c-1.8-0.7-1.6-0.7,1.3,0c2.6,0.6,4.1,0.7,4.6,0.2
		c0.5-0.5,0.4-0.7-0.5-0.9c-0.7-0.2-0.4-0.2,1.5-0.3c3-0.1,3.3-0.4,3.3-2.4c0-1.9-0.6-2.5-2.5-2.5c-0.8,0-1.5-0.1-1.5-0.3
		c0-0.2,1-0.3,2.3-0.3l2.3,0l1.3-1.9c0.7-1,2.1-2.8,3.1-4c1.1-1.3,1.8-2.4,1.8-2.8c0-2,1.1-3.2,3.3-3.4c2.2-0.3,4.7-2.1,4.7-3.4v-1
		l-1.3,0c-2.7,0-8.3-0.8-10.9-1.6c-1.5-0.4-3.4-0.9-4.1-1s-1.7-0.2-2-0.3c-0.5-0.1-0.7,0-0.9,0.5c-0.6,1.3-5.6,0-6.4-1.6
		c-0.3-0.7-0.7-0.9-2.3-1.4c-3.2-1-4.6-1.5-7.1-2.9C178.7,185.2,178.6,185.1,178.5,185.5 M235.2,190.2c-0.3,0.2-0.3,1.1-0.1,5.7
		c0.5,8.7,0.6,9.3,1,9.3c0.7,0,1.1-4.1,1.1-10.8v-4.3l-0.8-0.1C235.9,190,235.4,190.1,235.2,190.2 M232.8,190.7
		c-0.1,0.2-0.1,1.4,0,2.5s0.3,3.3,0.4,4.8c0.3,3.4,0.5,4.3,1,4.3c0.4,0,0.5-4.4,0.1-9.3C234.2,190.4,233.4,189.2,232.8,190.7
		 M395.8,191.2c-0.5,0.8-0.6,3.2-0.2,6.5c0.2,2.3-0.3,3.5-2.1,5c-1.1,0.9-1.1,1.3-0.4,2.5c0.7,1.2,1.4,4.3,1.4,6.3
		c0,2.4,1,2.1,1.9-0.4c0.2-0.5,0.6-1.2,0.9-1.5c0.9-0.9,1.4-3.7,1.4-7.8l0-3.5l-1.1-2.3c-1-2.1-1.1-2.4-0.9-3.9
		C396.7,190.4,396.5,190.1,395.8,191.2 M230.8,191.2c-0.3,0.9-0.1,5.5,0.4,9c0.8,5.8,1,9.7,0.4,10.4c-0.9,1-0.4,4.8,0.7,5.7
		c0.9,0.7,4.6,1,4.4,0.4c-0.1-0.2-0.5-0.5-0.9-0.6c-3-0.9-3.8-1.5-2.5-1.9c0.7-0.2,4.4,0.1,5.6,0.6c1.1,0.4,1.5,0.1,0.9-0.5
		c-0.8-0.8-1.9-1.2-4.4-1.5c-1.3-0.2-2.4-0.4-2.4-0.5c0-0.5,1.3-0.9,3.1-0.9c1.6,0,1.9-0.1,2-0.5c0.1-0.6-1.4-1.3-3.1-1.3
		c-1.5,0-1.5,0.2-1.8-4.4c-0.1-1.5-0.3-3.7-0.5-4.9c-0.2-1.2-0.5-3.6-0.7-5.3C231.6,190.9,231.3,189.9,230.8,191.2 M184.4,191.6
		c1,1.1,0.4,5.2-0.8,5.5c-0.7,0.2-2.9-0.5-3.7-1.1c-0.8-0.6-0.3-0.7,0.9-0.1c0.9,0.4,1.3,0.5,1.6,0.3c1.1-0.7,2.1-4,1.4-4.8
		C183.2,190.8,183.8,191,184.4,191.6 M252.6,191.5c-0.2,0.2-0.4,0.8-0.4,1.3c0,1.1-0.5,11.3-0.7,14.2c-0.1,1.4,0,2.2,0.1,2.4
		c0.4,0.3,0.6,0,0.8-1.7c0.1-0.9,0.5-3.4,0.8-5.6c0.8-5.5,1-10.5,0.5-10.8C253.3,191,253.1,191,252.6,191.5 M171.2,191.9
		c-0.8,0.5-0.6,2.4,0.4,3c1.7,1.1,3.2,0.1,2.7-1.7C174,192.1,172,191.3,171.2,191.9 M249.8,196.2c0.1,8.8,1.2,8.9,1.4,0.1l0.1-3.7
		l-0.7-0.1l-0.7-0.1L249.8,196.2 M255.8,193c-0.1,0.2-0.2,1.2-0.3,2.3c-0.2,2.3-1.2,8.7-2.2,13.6l-0.7,3.5l-0.7-0.2
		c-0.9-0.3-2.1-0.2-3,0.2c-1,0.4-0.7,0.8,0.6,0.8c0.5,0,1.2,0.1,1.4,0.3c0.3,0.2,0.3,0.3-0.1,0.3c-0.7,0-1.8,0.8-1.6,1.1
		c0.1,0.1,0.7,0.2,1.3,0.2c2,0,2.3,1.1,0.3,1.5c-1.6,0.3-1.1,1.1,0.7,1.2c2.4,0,3-0.8,3-3.9c0-1.2,0.3-3.4,0.5-4.9
		c1.2-7.8,1.5-9.7,1.5-12.8C256.6,193.1,256.3,191.6,255.8,193 M188.7,195.5c-0.1,0.6-0.9,1-1.4,0.8c-0.4-0.2-0.4-0.2,0.1-0.6
		c0.6-0.4,0.8-1.1,0.4-1.6c-0.1-0.1,0.1,0,0.4,0.4C188.5,194.8,188.7,195.3,188.7,195.5 M198.6,196.4c1,0.4,1.4,1.6,1.1,2.8
		c-0.3,1.4-0.8,1.6-2.8,1.2c-2-0.3-4.1-1.2-3.4-1.3c0.2-0.1,0.7,0,1,0.2c0.7,0.4,3.3,0.4,3.7,0c1-1,0.1-1.9-2.7-2.7
		c-0.7-0.2-1.1-0.4-0.9-0.5C195,195.9,197.7,196.1,198.6,196.4 M75.8,197.4c2.2,4.4,1.7,9.2-1.6,16.7c-1.5,3.4-2.2,6-2,7.8l0.1,1.5
		l-0.4-1.1c-1-2.5-0.7-4.9,1.3-9.7c3-7.4,3.6-12.1,1.9-16.1C74.6,195.6,75.2,196.2,75.8,197.4 M263.3,196.8
		c-0.4,0.3-0.6,1.2-1.1,4.5c-0.3,2.3-0.8,5.4-1,6.9c-0.4,2.4-0.4,3-0.1,4c0.6,1.9,2.2,5.8,3.3,7.8l1,1.9l1.9,0.5
		c2.7,0.8,9.2-0.1,8.4-1c-1.2-1.4,0.3-4.5,2.4-4.8c3.1-0.4,2.9-0.3,3.8-2.2c0.8-1.8,2-6.7,2.3-9.9c0.2-2.3-0.4-3.2-1.8-2.8
		c-1.9,0.5-8.8-0.7-10.5-1.9c-0.5-0.4-1.1-0.7-1.3-0.7c-0.4,0-4-1.7-4.7-2.2C265.1,196.3,264,196.3,263.3,196.8 M343.5,197.2
		c1.3,1.1,2,9.5,0.9,11.2c-1.5,2.3-6,2.8-8.2,0.9c-0.9-0.8-3.5-6.7-3.3-7.6C333.5,198.3,340.9,195.2,343.5,197.2 M360.5,199
		c-0.7,1-0.7,5.6,0,7.3c0.5,1.2,1.2,1.7,1.2,0.8c0-2.3,3.4-6.4,5-6.1c3.7,0.6,5.8,0.5,7.6-0.4c2.5-1.2,2.2-1.3-4.9-1.6
		c-3.2-0.1-6.2-0.4-6.6-0.5C361.8,198.1,361,198.2,360.5,199 M175,199.5c1.1,1.1,0.4,3.1-1,3.1c-1.1,0-2.3-0.5-1.3-0.5
		c1.5-0.1,2.2-1.3,1.4-2.4C173.3,198.6,174,198.5,175,199.5 M182.4,199.5c0.2,0.3,0.4,0.7,0.6,0.9c0.2,0.2,0.3,0.6,0.2,0.8
		c-0.1,0.2-0.3,1.3-0.4,2.4c-0.3,2.4-0.9,3.1-2.4,2.8c-1.8-0.3-2.2-0.8-0.8-0.9c1.8-0.1,2.2-0.7,2.3-3.4c0.1-1.4,0-2.4-0.2-2.8
		C181.4,198.6,182,198.7,182.4,199.5 M352.8,201.7c0.4,0.9,1.4,2.4,2.1,3.2c2.3,2.5,3.7,6.5,2.9,8c-0.4,0.8-1.1,0.3-1.1-0.9
		c0-1.5-0.8-3.6-2.1-5.4c-1.6-2.3-2.9-5.2-3.1-6.7C351.4,198.5,351.3,198.4,352.8,201.7 M187.5,199.7c0.3,0.5-0.2,1.3-0.9,1.3
		c-0.6,0-0.6-0.2-0.1-0.7c0.2-0.2,0.3-0.6,0.3-0.8C186.6,198.9,187.1,199.1,187.5,199.7 M402.9,200.5c0,0.8,0.5,1.2,0.5,0.4
		c0-0.4-0.1-0.7-0.3-0.7C403,200.1,402.9,200.3,402.9,200.5 M273.5,203.3c0,0.1-0.2,0.3-0.5,0.4c-1.9,0.6-0.9,4.7,1,4.3
		c0.5-0.1,0.6-0.1,0.3,0.1c-1.8,1.2-4.7-1.9-3.6-3.7C271.3,203.6,273.5,202.7,273.5,203.3 M224.1,203.6
		c-11.4,2.2-21.6,12.1-24.8,24.1c-1.9,6.8-2,11.9-0.5,16.9c1.3,4.3,2,4.1,1.3-0.4c-1.8-12.5,4.5-29.2,12.7-33.5
		c0.7-0.3,0.9-0.4,0.5-0.1c-10.9,7.8-16.4,30.6-10,41.8c1.5,2.6,1.6,1.3,0.2-2.5l-1-2.8l0-5.7c0-15.2,5.6-26.2,15.9-31.2l1.2-0.6
		l-0.8,0.7c-0.4,0.4-1.4,1.2-2.2,1.9c-11.1,9.6-13.2,28.4-4.3,38.7c2,2.3,3,2.6,2,0.6c-8.5-16.4-3.7-33.6,11.7-42.3
		c1.9-1.1,2-1.2,2-3.6l0-2.1l-1.4,0C225.8,203.4,224.7,203.5,224.1,203.6 M189,204c1,0.2,1.6,0.9,1.6,1.8c0,1.4-0.5,1.6-2.7,1.2
		c-2.6-0.5-3.1-0.8-0.8-0.6c3,0.2,3.4-1.2,0.6-2C185.1,203.7,186,203.4,189,204 M84.9,208.9c1,3.8,1,9.2,0,10.2
		c-0.4,0.4-0.4,0.2-0.4-1.3c0-0.9-0.2-2.7-0.5-4c-0.5-2.2-1-6.3-1-8.7l0-1.1l0.8,1.7C84.1,206.6,84.6,208.1,84.9,208.9 M278.4,205.1
		c-0.2,0.6,0.4,1.2,1.4,1.4c0.6,0.1,0.8,0.2,0.6,0.4c-1.2,0.7-3.9-1-3-2C277.8,204.5,278.6,204.7,278.4,205.1 M366.1,206.5
		c0,0.6-0.3,1.9-0.8,2.9c-1.8,4.3-2.1,10.2-0.6,12.5c0.4,0.6,1-0.1,1.5-1.7c0.7-2.3,1.2-1.8,1.1,1.5c0,2,0.2,2.8,1,3.8
		c0.8,1,1.4,0.3,1.8-2.1c0.3-2,1.5-0.2,1.3,2c-0.1,1.1,0.5,3,0.9,3c0.8,0,1.3-4,0.7-5.6c-0.5-1.3-0.4-1.5,0.5-0.8
		c1.1,0.9,1.7,2.4,2,4.8c0.4,3.9,2.2,4.8,2.2,1.1c0-1.8,0.4-1.9,0.9-0.2c0.2,0.8,0.5,1.5,0.7,1.5c0.8,0,1.2-5.5,0.5-6.1
		c-0.2-0.2-0.7-0.6-1.2-1.1c-0.5-0.4-1.5-1-2.1-1.2c-3.2-1.1-4.1-1.6-6.4-3.9c-1.6-1.5-1.9-2.2-0.5-1.2c1,0.7,5.8,2.9,8.1,3.7
		c1.7,0.6,2.9,0.1,1.6-0.7c-0.3-0.2-1.4-0.9-2.4-1.5c-1-0.6-2.5-1.5-3.3-1.9c-2.4-1.3-3.1-1.9-4.4-3.9c-1.5-2.2-1.8-3.2-1.1-3
		c0.3,0.1,2,0.6,3.8,1.1c3.3,0.9,5,1.5,7.7,2.6c2,0.8,1.7,0.5-1.1-1.2c-2.8-1.7-4.1-2.3-8.6-4c-1.7-0.7-3.3-1.3-3.5-1.4
		C366.2,205.5,366.1,205.7,366.1,206.5 M390.8,205.9c-0.4,0.4-0.4,0.6,0.2,2.1c0.4,1.2,0.7,2.3,0.7,3.6c0,2.4,0.3,3.2,0.9,3.4
		c0.5,0.1,0.5-0.1,0.4-3.5C392.8,206.6,392,204.7,390.8,205.9 M400.6,207.6c-1.7,2.2-2.3,3.6-2.3,5.1c0,1.7-1.4,4.4-2.8,5.4
		c-1.2,0.9-2.5,0.7-5-0.5c-0.7-0.3-1.3-0.6-1.4-0.6c-0.4,0,0.3,1.5,1.1,2.5c1.1,1.2,1.2,2.2,0.4,4.4c-1.1,3.1-0.6,3.9,1,1.5
		c1.2-1.9,1.3-1.7,0.7,2.4c-0.3,1.8-0.7,4.6-0.8,6.2c-0.2,1.6-0.4,4.2-0.6,5.8c-0.2,1.6-0.2,2.9-0.1,3c0.4,0.4,0.7-0.4,1.1-2.6
		c0.5-3.1,0.5-2.1,0,4c-0.5,5.8-0.6,11-0.2,11.2c0.1,0,0.4-0.7,0.5-1.6c0.1-0.9,0.4-2.8,0.6-4.1c0.2-1.3,0.5-3.2,0.6-4.1
		c0.2-1.2,0.2,0.5,0.3,5.7c0,6.3,0.1,7.4,0.4,7.4c0.6,0,1.2-1.6,2-6.1c0.3-1.4,0.8-3.7,1.3-5.7c0.4-1.6,2.4-4.8,4.6-7.6
		c4.4-5.5,5.5-9.6,3.3-12.7c-1.2-1.7-1.2-4.4-0.2-7.5c0.9-2.5,0.9-4.5,0-4.6c-0.9-0.1-0.9-0.1-0.9,1.2c0,1.1-0.2,1.6-1.3,3.2
		c-1.7,2.5-2,4-1.5,6.9c0.4,2.2,0.2,4.3-0.5,5.7c-0.7,1.3-1.5-0.3-1.1-2.3c0.5-2.2-0.6-2.6-1.8-0.5c-1.5,2.7,0.3-6.8,1.9-9.9
		c0.6-1.2,0.7-1.8,0.9-5.1c0.2-2.6,0.4-4.2,0.8-5.3C402.4,205.9,402.1,205.7,400.6,207.6 M353.2,208.9c0.3,2.1-1,5.6-2.7,7.5
		c-1.4,1.6-3.8,5.5-4.2,6.8c-0.2,0.7-0.5,1.2-0.6,1.2c-0.9,0,1.6-6.2,3.8-9.5c1.6-2.4,2.2-3.7,2.7-6.3
		C352.6,206.6,352.9,206.7,353.2,208.9 M268.7,209.5c-2.1,0.3-2.5,1.2-1.8,3.8c0.3,1.2,0.9,1.5,2.7,1.5c1.3,0,1.4,0,0.9,0.4
		c-1.1,0.8-4.1,0.1-4.6-1.1c-1.4-3.1-0.3-4.8,2.9-4.9l1.2,0L268.7,209.5 M279.4,209.5c-2,0.6-1.8,2.6,0.2,2.6c0.7,0,0.7,0.4,0.1,0.6
		c-1.5,0.6-2.6-0.1-2.6-1.6c0-1.3,0.7-2,2.1-1.9l1.1,0L279.4,209.5 M191.5,211.3c-0.1,1.1-0.5,1.6-1.5,1.6c-0.9,0-0.9-0.1-0.1-0.9
		c0.6-0.6,0.7-0.8,0.5-1.5c-0.2-0.8-0.2-0.8,0.4-0.4C191.4,210.4,191.5,210.7,191.5,211.3 M183.8,210.8c0.6,0.7,0,1.9-1,1.9
		c-0.6,0-0.6,0-0.1-0.4c0.4-0.3,0.5-0.6,0.3-1.2C182.9,210.1,183.1,210,183.8,210.8 M274.6,210.9c-0.2,0.2-0.3,0.6-0.2,0.9
		c0.2,0.6-0.3,0.6-0.7-0.1c-0.4-0.6,0-1.3,0.6-1.3C274.8,210.5,274.9,210.6,274.6,210.9 M226.7,211.4c-13.8,6.5-18.7,24.5-10.1,36.8
		c1.2,1.7,1.2,1.8,2,0.9l0.6-0.6l-0.7-0.9c-1-1.4-2.7-5-2.9-6.4c-0.2-1.5-0.1-1.3,0.8,0.8c1.1,2.7,3.6,6.3,4,5.8
		c0.1-0.1-0.5-1.1-1.2-2.3c-2.2-3.6-3.1-7-2.3-8.3c0.2-0.3,0.4-0.6,0.3-0.7c-1.4-0.8-1.4-1,0.2-1.4c0.7-0.1,1.2-0.3,1.1-0.4
		c-0.1-0.1,0.3-0.2,0.8-0.2c4.9-0.2,9.5-1.6,10.7-3.4c1.5-2.2,0.8-3.1-0.9-1.1c-1.2,1.5-4.5,2.2-9.8,2.3c-3.1,0.1-3.5-0.2-3.5-2.8
		c0-4.7,3-10.4,6.8-13.1c2.6-1.8,2.6-1.7,0.1,0.8c-3.3,3.3-3.9,4.6-1.1,2.1c2.7-2.3,3.9-3,5.4-2.9c1,0.1,0.6,2.1-0.5,2.7
		c-2.9,1.5-4.3,3.1-6,7c-1,2.3-1.3,3.8-0.8,4.1c0.3,0.2,6.8-0.7,7.2-1c1.3-0.8,4.8-7.5,4.8-9.2c0-0.6-2-3.2-2.4-3.1
		c-0.1,0-0.3-2.4-0.4-5.2C229.1,210.7,228.6,210.6,226.7,211.4 M81.5,215.1c0.2,0.8,0.3,2.2,0.2,3.3l-0.1,1.9l-0.9-1.7l-0.9-1.7
		l0.5-1.6C80.9,213.4,81.1,213.3,81.5,215.1 M255.8,216.1c-0.1,0.1-0.2,0.6-0.3,1.1c-0.2,1.2-1,2.3-1.7,2.5c-0.8,0.2-0.7,1,0.4,2.5
		c3.8,5.7,3.2,17.3-1.3,24.7c-1.3,2.1-0.8,3.2,0.9,2c2.8-2,6.1-12.9,6.1-20.2c0-3,0.1-3.2,1-1.8c3.4,5.4,2,20.6-2.6,27
		c-0.6,0.9-0.7,1.4-0.1,1.4c0.2,0,1-0.8,1.6-1.7c3.5-4.7,4.9-10.2,4.9-18.9c0-4.1-1-8.8-2.1-10c-0.2-0.3-0.7-1-0.9-1.6
		C259.9,219.3,256.4,215.1,255.8,216.1 M189.9,217.2c0.7,0.3,0,0.3-0.9,0c-0.5-0.2-0.6-0.2-0.1-0.2
		C189.2,217,189.6,217.1,189.9,217.2 M277.2,217.4c-0.8,0.8-0.4,3.8,0.6,3.8c0.7,0,2.8-1.2,2.9-1.7
		C281.1,217.7,278.5,216.1,277.2,217.4 M162.6,217.7c0,1.3,10.2,6.1,16.3,7.7c12.1,3.2,18.1,2.1,21.9-3.9c0.8-1.2,0.2-1.9-0.7-0.8
		c-1.7,2-3.6,3.5-4.6,3.6c-0.6,0.1-1.6,0.3-2.3,0.5c-2.4,0.6-3,0.7-5.9,0.4c-7-0.7-13.3-2.5-19.8-5.7
		C163.2,217.5,162.6,217.3,162.6,217.7 M247.1,219.4c0,0.5-0.2,0.7-0.9,0.9c-0.5,0.2-1,0.5-1.2,1c-0.2,0.4-0.6,0.8-0.9,0.9
		c-0.7,0.2-0.6,0.7,0.6,3.6c1.7,4,3.2,5,7.6,5c1.4,0,1.6,0.3,1.6,1.8c0,0.8-0.2,0.8-4.1-0.2l-3.2-0.8l-1.4-1.5
		c-2.2-2.4-3-1.7-1.2,1.1c1.4,2.1,3.9,3.4,7.7,4c1.8,0.3,1.9,0.8,0.2,0.7c-1.1-0.1-1.4,0-1.4,0.3c0,0.4,1.8,1.3,2.5,1.3
		c0.9,0-0.9,5.2-2.9,8.2c-0.9,1.4-0.3,1.7,1,0.5c2.7-2.5,5-11.3,4.1-16C254.5,225.6,247.1,216,247.1,219.4 M234.3,220
		c-0.4,0.5-0.7,9.7-0.6,17.9l0.1,4.6h1h1l0.1-1.7c0-0.9,0-2.9-0.1-4.5c-0.1-1.5-0.2-5.8-0.3-9.5C235.4,219.4,235.3,218.8,234.3,220
		 M353.4,220.1c-7,4.3-4.6,18.2,3.9,22.3c4.4,2.1,4.2,2.1,5,1.8c1.8-0.6,1.3-4.2-0.8-5.6c-5.1-3.4-9.3-9.9-8.2-12.8
		c0.1-0.4,0.2-0.1,0.4,0.9c0.4,3.6,5.1,9.4,7.6,9.4c0.9,0,0.7-0.5-1.4-3.1c-2.6-3.2-3.2-4.7-3.2-7.3c0-2.3,0.2-2.6,1.3-2
		c0.5,0.3,1.5,0.8,2.3,1.2c0.8,0.4,3.3,2,5.7,3.5c4.6,3,5.4,3.4,5.6,3.3c0.1-0.1-0.8-0.8-1.8-1.5c-1.1-0.8-3.4-2.6-5.2-4
		C357.5,220.6,354.9,219.2,353.4,220.1 M238.3,220.7c0,0-0.1,3.3-0.1,7.3c0,4-0.2,7.7-0.3,8.3c-0.2,1.1-0.8,1.5-1,0.8
		c-0.1-0.3-0.2,0.4-0.3,2.1c0,0.3,0.2,0.5,0.4,0.5c0.2,0,0.5,0,0.7,0.1s0.5,0.6,0.7,1.3c0.4,1.3,1.3,1.9,1.8,1.2
		c0.1-0.2,0.2-4.8,0.2-10.2l0.1-9.9l-0.6-0.7C239.4,220.8,238.4,220.4,238.3,220.7 M303.1,221.2c-2.6,0.8-4,2.4-4,4.3
		c0,0.9-0.1,0.9,1.2,0.3c2.6-1.1,8.9,0.7,13.7,4c0.6,0.4,1.2,0.7,1.2,0.7c0.1-0.2,0.7-1.9,0.7-2.1c0-0.1-1-0.9-2.2-1.8
		s-2.7-2-3.2-2.5c-0.6-0.5-1.3-1-1.6-1.2c-0.3-0.2-1.1-0.7-1.6-1.1C305.9,220.7,304.9,220.6,303.1,221.2 M164.1,221.5
		c-0.5,0.4-1.5,4.3-1.6,6.4c-0.1,1.3,0.5,1.7,0.9,0.5c0.3-0.9,1.3-3,1.7-3.3c0.6-0.4,0.7-0.1,0.5,1.8c-0.3,3.2,0.9,2.8,1.5-0.6
		c0.2-0.9,0.4-1.7,0.6-1.8c0.5-0.3,0.2-1.4-0.5-2.2C166.3,221.3,164.9,221,164.1,221.5 M279.1,222.3c-3.3,1.3-8.6,2-11.7,1.5
		c-1.4-0.2-1.8,0-1.3,0.6c2.5,2.8,17.6,0.5,15.3-2.3C281.1,221.6,280.6,221.6,279.1,222.3 M168.9,224.3c-1.6,2.3-3.5,15.8-2.3,16
		c0.3,0.1,0.5-0.5,0.9-3.1c0.6-4.3,0.8-4.9,1.8-5.6l0.8-0.6l-0.2,2.8c-0.3,5.1,0.6,4.1,1.6-1.8c0.4-2.1,0.9-4.4,1.1-5.2
		c0.5-2.1,0.5-2-0.9-2.8C169.9,223.1,169.7,223.1,168.9,224.3 M145.7,226.1c-1.2,0.5-1.9,1.5-2.9,3.9c-1.3,3-1,3.7,1.2,3.7
		c1.2,0,1.3,0.1,2.4,2.7c1.6,3.8,2.7,3.8,1.5,0c-0.9-2.6-0.8-5,0.2-7.8C148.8,226.1,147.9,225.1,145.7,226.1 M173.8,226.5
		c-0.7,1.7-1.2,6.2-1.5,11.9c-0.2,4.6,0.5,5.1,1.1,0.7c0.2-1.4,0.5-2.6,0.7-2.8c0.2-0.1,0.5-0.8,0.7-1.5c0.3-1.1,2-3.2,2.3-2.9
		c0.1,0.1,0,1.2-0.1,2.5c-0.2,1.3-0.3,2.6-0.3,3c0,0.9,0.7,0.7,0.9-0.3c0.1-0.5,0.5-2.4,1-4.3c0.4-1.9,0.8-3.9,0.8-4.5l0-1l-2.3-0.8
		C174.4,225.6,174.1,225.6,173.8,226.5 M279.4,226.6c-1.7,0.7-2.1,1.6-0.7,1.7c0.6,0.1,0.8,0.3,1,1.1c0.5,1.8,1.1,6,1,6.4
		c-0.1,0.2-0.2,2.3-0.3,4.5c-0.1,2.2-0.2,4.8-0.3,5.8c-0.2,2.1,0.2,2.4,0.8,0.5c1.5-4.7,1.9-16,0.7-19.7
		C281.2,225.9,281.3,225.9,279.4,226.6 M59.6,228.9c0.6,0.7,2,3.1,3.2,5.4c1.7,3.4,2.3,4.3,3.3,5.2c1.6,1.4,2.4,2.7,1.4,2.3
		c-0.4-0.1-1.1-0.4-1.7-0.5c-2-0.5-3.3-2.4-4.7-6.7c-0.9-2.8-2.1-5.1-3.3-6.7l-1-1.2l0.8,0.4C58.2,227.4,59,228.2,59.6,228.9
		 M275.6,227.8c-1.7,0.6-1.7,0.6-1.3,3c0.2,1.2,0.4,2.9,0.5,3.8c0.2,2.1,0.5,1.5,0.8-1.4c0.4-4.2,0.6-0.5,0.5,7.5
		c-0.1,7,0.1,9,0.5,5.6c0.1-0.8,0.3-1.9,0.4-2.5c0.7-3,1.1-14.3,0.6-15.8C277.2,227.2,277.3,227.2,275.6,227.8 M182.2,228.1
		c-0.6,1-1.3,3.8-1.5,6.5c-0.1,1.8-0.4,4.3-0.7,5.6c-0.9,5.3,0,6.4,1.1,1.5c1.2-5.2,1.3-5.7,1.6-6.4c0.4-0.8,2.1-2.7,2.4-2.7
		c0.2,0,0.1,6-0.1,7.4c-0.1,0.7-0.1,0.9,0.2,0.8c0.4-0.1,1.1-3.3,1.5-7c0.2-1.3,0.5-2.8,0.7-3.4c0.7-1.7,0.5-1.9-1.6-2.3
		C183.6,227.8,182.4,227.8,182.2,228.1 M149,229.3c-2,3.2-0.4,9.3,2.8,10.9c1.9,0.9,1.8,0.3-0.2-2.3c-1.9-2.5-2.6-6.2-1.7-8.8
		C150.2,228.1,149.7,228.3,149,229.3 M205.2,229.2c-3.2,4.9-2.1,19.5,2,25.9l1,1.5l1.2-0.7l1.2-0.7l-1-1.5c-1.1-1.7-3-5.4-2.9-5.5
		c0.1-0.1,1.1,1.4,2.3,3.2c2,3,2.6,3.7,2.9,2.9c0-0.1-0.6-1.3-1.4-2.6c-4.7-7.4-6.6-15.5-4.9-21.3C206,229,205.8,228.3,205.2,229.2
		 M190.8,229.5c-0.4,0.3-0.7,0.8-0.7,1.2c0,0.4-0.2,1.1-0.4,1.6c-0.9,2.3-1.9,14.2-1.1,14.2c0.5,0,0.7-0.6,0.7-1.7
		c0-2.4,2.4-10.9,3.3-11.5c1-0.7,1.6-0.5,1.4,0.5c-0.5,2.9-0.3,7.9,0.2,5.3c0.2-1,0.9-3.7,1.5-6.1c0.7-2.5,0.7-2.3-0.9-3.3
		C193.1,228.8,191.8,228.7,190.8,229.5 M270.2,229.1l-1.3,0.1l0.2,3.4c0.2,4.7,0.4,5.4,0.9,5.3c0.3-0.1,0.5-0.6,0.7-1.8
		c0.7-4.4,1,3.5,0.4,10c-0.4,4.1,0.2,3.8,1.2-0.6c1.6-6.8,1.4-16.7-0.3-16.6C271.8,229,271,229.1,270.2,229.1 M56.4,234.2
		c1.3,1.8,2.2,8,2.1,14.6c0,3.7,0.2,5.5,1,8c0.1,0.3-0.2-0.1-0.6-0.8c-1.3-2.3-1.7-4.6-1.7-8.8c0-3.6-0.4-6.6-1.7-12.2
		C55.1,233.2,55.5,232.9,56.4,234.2 M260.9,233.6c-0.1,0.1-0.2,0.9-0.2,1.7c0,4.5-2.5,12.1-5.1,15.4c-0.9,1.2-0.9,1.4-0.2,2.2
		c1.6,1.5,4.2-2.4,5.7-8.4C262,241,261.8,232.7,260.9,233.6 M140.5,234.3c-7,2.2-10,7.4-8.1,13.8c0.4,1.3,0.9,3.2,1.2,4.3l0.5,1.9
		l-1.8,1.8c-3,3-4.4,5.9-3.4,7.1c0.4,0.5,0.4,0.5,0.9-0.1c1-1.5,4.8-5,6.4-5.8c0.9-0.5,1.7-1,1.8-1.1c0.1-0.1,0.4-0.3,0.8-0.3
		c1,0,1-0.3-0.1-3.7c-1.7-5.2-1.9-8.7-0.7-12.4c0.5-1.5,1.4-2,1.1-0.6c-0.7,2.7-0.4,5.9,0.5,5.9c0.4,0,0.6-0.5,0.8-2.8
		c0.1-1.6,0.8-4,1.2-4.3c0.2-0.1,2.8,3.9,3.3,5c0.5,1.3,2.4,3.7,2.9,3.7c0.7,0,0.7,0.1-0.4-2.6c-0.5-1.3-1.2-3.6-1.6-5.2
		c-0.9-3.3-1.3-4-2.8-4.4c-0.6-0.2-1.3-0.4-1.4-0.4C141.3,234.1,140.8,234.1,140.5,234.3 M68,236.3c1,0.7,2.6,2.6,3.5,4.4l0.8,1.5
		h-0.8c-0.7,0-0.9-0.2-1.8-1.9c-0.5-1.1-1.4-2.5-1.9-3.2C66.8,235.8,66.9,235.6,68,236.3 M218.1,236.4c0,0.3,0.5,0.3,1.2,0
		c0.4-0.2,0.4-0.2-0.3-0.2C218.5,236.1,218.1,236.3,218.1,236.4 M377.3,237c0,0.2,0.6,1.6,1.3,3l1.3,2.6l-0.3,2.8
		c-0.2,1.5-0.5,3.9-0.6,5.2c-0.2,1.3-0.4,3.5-0.6,4.9c-0.1,1.4-0.5,3.9-0.8,5.5c-0.3,1.6-0.7,4.1-0.9,5.6c-0.6,4.6-1.3,5.9-3,6.1
		c-0.5,0.1-1.8,0.3-2.7,0.5c-1,0.2-3,0.4-4.5,0.5c-2.7,0.1-4,0.6-2.3,1c0.3,0.1,0.6,0.3,0.7,0.5c0.1,0.2,0.6,0.4,1.1,0.4
		c1.3,0,3.1,0.5,3.6,0.9c0.5,0.5,1.1,0.5,4.3,0c4.3-0.7,3.9-0.1,5.3-9.2c0.2-1.4,0.6-3.8,0.8-5.3c0.2-1.5,0.4-3.4,0.4-4.2
		c0-0.8,0.2-1.8,0.4-2.4c0.2-0.6,0.5-2.5,0.5-4.3c0.1-1.8,0.3-4.5,0.4-5.8c0.3-2.9,0.2-3.1-2.1-6.3
		C377.9,236.8,377.3,236.3,377.3,237 M243.6,239.3c-0.4,0.5-0.4,0.5,0,0.9c0.7,0.6,1.5,2.6,1.4,3.5c-0.2,2.2,0.8,2,3.2-0.6
		c2.4-2.7,2.4-3.1-0.3-3.8C245.5,238.7,244.1,238.7,243.6,239.3 M158.1,239.6c0,0.3,0.3,1.1,0.6,1.9c1.6,3.6,1.4,4.9-1.7,11.8
		c-0.6,1.3-0.8,1.9-0.6,2.1c0.4,0.4,0.4,0.4,3.3-4.8c2.9-5.3,2.8-4.9,1.7-6.6c-0.5-0.7-1.3-2.1-1.9-3.1
		C158.5,239.1,158.1,238.6,158.1,239.6 M225.8,239.5c-5.3,0.5-5.6,0.9-3.2,3.7c0.7,0.8,1.3,1.7,1.3,1.9c0,0.4,0.5,0.5,1,0.2
		c0.2-0.1,0.4-0.7,0.5-1.2c0.3-1.7,1.9-3.1,4.1-3.5c1-0.2,1.1-0.3,1.1-0.8C230.4,239.1,230.1,239,225.8,239.5 M336.1,240.9
		c0.1,0.1,0,0.3-0.2,0.4c-2,0.8-3.2,8.3-1.9,11.5c1,2.4,1.9,1.7,1.2-0.8c-0.7-2.5,0.4-7.1,2-8.7c0.8-0.8,2.8-0.5,3.3,0.4
		c0.2,0.4,1,1.5,1.6,2.5c0.7,1,1.6,2.3,2.1,2.9c0.4,0.6,1.5,2.1,2.5,3.4c0.9,1.2,1.9,2.6,2.1,3.1c0.2,0.5,0.8,1.4,1.3,2.1
		c2.4,3.4,2.6,5.2,1.1,15.9c-0.4,2.7-1.3,6.2-2.4,8.9c-1,2.5-3.5,1.8-4.4-1.1c-0.2-0.6-0.6-1.5-0.8-2.1c-0.5-1-0.5-1,0-1
		c0.5,0,1.1-0.5,1.1-0.9c0-0.1-0.5-0.2-1.2-0.2c-1,0-1.4-0.2-2.5-1c-0.7-0.6-1.6-1.2-2.1-1.5c-1-0.5-1.8-2-2.4-4.5
		c-0.6-2.6-0.4-3.4,0.4-1.6c1.4,3.3,1.7,3.7,3.5,4.7c1.9,1,4.3,1.3,5.1,0.6c0.8-0.7,0.5-0.9-1-0.8c-2.5,0.3-4.4-1.1-5.5-3.8
		c-0.3-0.8-0.9-2-1.2-2.7c-0.5-0.8-0.6-1.4-0.5-1.9c0.1-0.6-0.1-1-1.3-2.3c-3.9-4.4-5.6-13.4-3.5-18
		C333.6,241.8,335.5,240,336.1,240.9 M329.4,244.4c-0.2,0.5-0.4,0.9-0.3,0.9c0.1,0.1,0.3-0.3,0.5-0.8
		C330.2,243.4,330,243.3,329.4,244.4 M231.3,245.4c-4.1,0.9-8.3,3-12,6.1c-0.4,0.4-1.7,1.2-2.8,1.8c-4.8,2.7-4.3,3.2,1.3,1.8
		c0.5-0.1,2-0.9,3.2-1.6c9-5.5,18.2-6.3,24.4-2.1c0.7,0.5,1.9,1.1,2.7,1.3c0.9,0.3,1.8,0.8,3.1,1.9c2.6,2.3,3.9,1.8,1.8-0.8
		c-3-3.6-3.7-4.3-5.3-5.3C243.3,245.7,236,244.3,231.3,245.4 M115.3,247.1c-3.4,0.7-5.9,2.7-9,7.1c-1.7,2.4-2.8,7.1-2.4,10.6
		c0.2,2.6,0.8,2.3,1.3-0.9c0.4-2.5,2.8-7.6,4.6-10c0.5-0.7,1.1-1.6,1.4-2c0.2-0.4,0.7-0.9,1-0.9c0.5-0.1,0.5,0-0.3,1.1
		c-1.4,2-3.4,7.6-2.9,8.1c0.3,0.3,0.9-0.2,1.5-1.3c1.8-3,6.4-6.2,9-6.1c4.6,0.2,6.6,3.9,5.7,10.6c-0.5,4-0.5,4.1,0,4.1
		c0.5,0,0.9-0.9,1.4-3.6c0.2-1.2,0.5-2.6,0.6-3.3c0.4-1.9,0.3-3.7-0.4-5.4c-0.4-0.9-0.7-1.8-0.7-1.9c0-1.2-4.1-5.7-5.2-5.7
		c-0.4,0-1.3-0.2-1.9-0.4C117.8,246.8,116.9,246.7,115.3,247.1 M162.4,248.9c-0.8,0.5,0.1,1.1,4.7,2.9c7.9,3.1,16.8,5.8,16.2,4.9
		c-0.1-0.1,0.4-0.1,1,0.1c9.4,3.3,26.5,5,36.2,3.6c2.1-0.3,6.4-0.9,9.5-1.4c4.3-0.6,6.1-0.8,7.6-0.7c3.6,0.3,6.9,0.9,7.5,1.3
		c1.6,1,7.2,1.8,13.1,1.8c7.3,0,10-0.5,18.1-3c1.8-0.6,4.3-1.3,5.5-1.6c2.7-0.7,3.7-1.2,3-1.5c-0.3-0.1-1.6,0.2-2.9,0.6
		c-7.2,2.4-14.6,3.6-21.1,3.6l-4,0l-2.4-1.1c-11.2-4.9-22.8-5.1-37.3-0.6c-4.3,1.3-18.8,0.3-27.8-2c-1.4-0.4-3.7-0.9-5.1-1.2
		c-3-0.6-11-2.9-14-4c-1.2-0.4-3.1-1-4.3-1.3c-1.2-0.3-2.3-0.6-2.5-0.7C162.9,248.7,162.6,248.8,162.4,248.9 M150.5,251.1
		c-0.1,0.2,0.3,1.4,0.8,2.6l0.9,2.3l-0.5,1.9c-0.6,2.5-0.8,2.7-4.5,6.9c-4.4,4.8-9.2,10.6-9.2,11.1c0,0.7,1,0,3.1-2.4
		c1.3-1.4,4.3-4.6,6.7-7c6.7-6.8,7.2-8.1,4.8-12.8C151.3,251.1,150.8,250.4,150.5,251.1 M163.1,252c0,0.5,0.9,1.4,2.5,2.6
		c0.5,0.4,1.2,1.2,1.5,1.8c1.1,2.2,3.9,3.4,6.3,2.7c2.3-0.6,4.5,0.2,7.4,2.7l1.6,1.4l2-0.1c1.1,0,2.3-0.2,2.8-0.5
		c2.9-1.4,7.7-0.3,10.7,2.5l2.3,2.1h1.6c1.3,0,1.9-0.2,3.6-1.1c2.6-1.4,4-1.6,5.7-1.1c2.7,0.8,4.6,1.8,5.9,2.9
		c1.5,1.3,1.7,1.3,4.7,1.2c2-0.1,2.5-0.4,3.7-2.5c0.6-1,1.9-2.6,3.2-3.8c1.2-1.1,1.9-1.9,1.6-1.8c-0.3,0.1-1.8,0.4-3.3,0.6
		c-1.5,0.2-4.4,0.5-6.3,0.8c-3,0.4-3.9,0.4-6.5,0.1c-1.7-0.2-4.6-0.4-6.5-0.4c-5.4-0.2-8-0.5-14.7-2.1c-3.4-0.8-6.9-1.5-7.7-1.6
		c-3.2-0.3-15.7-4.2-21.5-6.7C163.3,251.6,163.1,251.7,163.1,252 M162.4,256.8c-1.2,0.8-0.3,2.9,1.2,2.9c1.5,0,2.1-1.7,0.8-2.8
		C163.7,256.3,163.2,256.3,162.4,256.8 M280.5,259.5c-1.8,0.5-4.7,1.2-6.3,1.7c-9.5,2.7-16.7,2.7-30.2-0.2c-0.5-0.1-0.6,0-0.6,0.4
		c0,0.7,1.3,1.5,2.8,1.8c2.4,0.4,4.4,2.3,4.8,4.5c0.6,3.4,3.5,4,5,1c0.3-0.7,0.8-1.2,1-1.2c0.2,0,0.7-0.3,0.9-0.7
		c1.2-1.5,7.9-0.6,9.8,1.3c1.5,1.5,3.9,1.1,3.9-0.6c0-1.1,0.5-2.3,1.1-2.5c0.3-0.1,0.6-0.4,0.7-0.7c0.7-1.8,5.9-1.8,7.1,0
		c1.1,1.8,2.9,1.1,2.7-1.2c-0.2-1.6,0-2.3,0.8-4.2C284.3,258.4,284.5,258.4,280.5,259.5 M173.4,259.8c-1.7,0.7-2.7,2.7-2.3,4.3
		c0.5,1.9,2.4,2.9,2.4,1.3c0-1.8,2.1-3.4,3.6-2.8c1.1,0.4,1.3,0.2,1.1-0.7C177.9,260.5,174.8,259.2,173.4,259.8 M236.5,262
		c-6.5,1.1-10.1,4.8-10.4,10.5l-0.1,2.5l1.1,2.3c1.5,3,2.4,3.9,1.6,1.7c-0.3-0.8-0.5-1.7-0.5-2c0-0.3-0.1-1.3-0.1-2.2
		c-0.2-2-0.1-1.9,0.6,0.7c2.3,7.9,9.5,10.2,16.2,5.2c2.9-2.2,3.2-6.1,1-12.1c-0.2-0.5-0.2-0.5,0.4,0c0.8,0.7,1.7,3,2,5.4l0.3,2.1
		l0.3-1.3c0.6-2.4,0-4.8-1.8-7.6C244.9,263.6,240.2,261.4,236.5,262 M64.6,263.1c0.1,0.2,0,0.2-0.4,0c-0.3-0.2-0.6-0.4-0.7-0.6
		c-0.1-0.2,0-0.2,0.4,0C64.2,262.7,64.5,262.9,64.6,263.1 M188.6,263.3c-2.3,1.6-2.1,5.7,0.2,5.7c1,0,1.8-0.9,1.8-2
		c0-0.2,0.2-0.4,0.5-0.4c0.3,0,0.7-0.2,1-0.5c0.6-0.7,0.9-0.7,1.5,0.1c1.4,1.8,2.1,0.2,0.8-1.7C192.9,262.5,190.5,262,188.6,263.3
		 M276.7,263.6c-1.9,0.5-3.5,2.8-2.9,4.2c0.4,0.9,1.1,0.7,1.4-0.4c0.2-0.8,0.3-0.9,0.6-0.4c0.9,1.5,1.7,1.7,3.2,1.1
		c0.4-0.2,0.5,0,0.5,1c0,2.1,1.4,1.4,1.8-0.8C281.6,265.3,279.3,262.9,276.7,263.6 M328.1,265.8c-0.3,2.7,0.6,5.9,2.4,8.6
		c0.5,0.8,0.9,1.5,0.8,1.7c-0.1,0.2,0.3,0.9,0.9,1.5c1.4,1.5,1.4,2.3,0,1.2c-4.8-3.8-7-10.2-4.7-13.8
		C328.1,264.1,328.3,264.3,328.1,265.8 M240.6,271.5c0.3,0.2,0.8,0.4,1.1,0.4c1.3,0,1.9,0.4,1.7,1.3c-0.2,0.7-0.3,0.7-1.8,0.7
		l-1.6,0l-0.3,1c-0.8,2.9,0,4.6,2.2,4.6c1,0,1,0,1,0.8v0.8l-1.4-0.1c-1.1-0.1-4.8-0.9-5.2-1.2c0,0,0.1-0.9,0.4-1.9
		c0.5-2.2,1.2-7.3,1-7.6c-0.2-0.3-1.7,0.4-1.9,0.9c-0.3,1.1-3.9,3.8-4.3,3.4c-0.7-0.7,5-7.8,7.5-9.3l0.8-0.5l0.1,3.2
		C240,270.7,240.1,271.2,240.6,271.5 M207.9,266.4c-1.7,1-3,4.1-2.7,6.1c0.6,2.9,2,3.3,1.7,0.4c-0.2-2-0.1-2.1,0.9-1.3
		c1.5,1.2,3.5,0.1,4.1-2.2c0.3-0.9,0.4-1.2,0.7-1.1c2.1,0.9,2.6,0.8,1.7-0.4C213.3,266.4,209.4,265.5,207.9,266.4 M261,267.1
		c-2.5,0.7-4.4,3.6-3.5,5.3c0.4,0.8,1.1,0.6,1.1-0.2c0-0.4,0.3-1.1,0.6-1.6c0.5-0.9,1-1.2,1-0.6c0,1.3,2.4,2,3.5,1.1
		c0.8-0.7,1-0.4,1,1.3c0,2.2,1.1,2.1,1.7-0.2c0.5-1.7-0.1-3.6-1.3-4.1c-0.3-0.2-1-0.5-1.5-0.8C262.6,266.7,262.4,266.7,261,267.1
		 M333.7,269.2c0.1,3.4,1.3,5.9,3.5,7.3c2.4,1.5,3.4,2.6,4.3,4.6c0.5,1,0.9,2,1,2.1c0.5,0.8-1.4-1-2.3-2.2c-0.6-0.8-2-2.3-3.2-3.3
		c-4.1-3.4-5.6-6.7-4.2-9.3C333.5,267.2,333.7,267.4,333.7,269.2 M83.8,268.5c-0.1,0.2,0.2,0.9,0.6,1.6c0.4,0.7,0.8,1.5,0.8,1.8
		c0.1,0.8,1.6,4.2,2.2,5.2c0.3,0.4,0.9,1.4,1.4,2.1c1,1.6,2.7,2.9,4.2,3.1c0.5,0.1,1.2,0.4,1.5,0.6c1.1,1,8,0.6,11.5-0.6
		c3.3-1.2,4.5-1.9,2.5-1.6c-7.2,1-14,0.8-16.5-0.5c-1.3-0.7-4.1-4.6-4.8-6.9C86.1,270.2,84.2,267.4,83.8,268.5 M292.6,276
		c-0.1,0.2,0.4,1.1,1.2,2.1c0.7,0.9,2,2.7,2.8,3.9c0.8,1.2,2.2,3,3,4c9.7,12,10,12.7,7.4,15.4c-1.2,1.3-1,1.4,0.8,0.6
		c1.8-0.7,1.9-1,2.2-4.2c0.3-2.9,0.3-2.8-2.2-6c-2-2.5-2.8-3.5-5.8-6.7c-1-1-2.6-2.9-3.7-4.1C294.1,276,292.9,275,292.6,276
		 M332.9,282.5c0.4,0.5,0.7,1.2,0.7,1.5c0,0.3,0.2,0.8,0.4,1.2c1.3,2.2,1.9,2.8,3.1,3.6c1.1,0.7,1.2,0.8,0.5,0.6
		c-1.7-0.4-3-1.2-3.6-2.3c-0.3-0.6-0.9-1.5-1.3-2c-0.4-0.5-0.7-1.1-0.7-1.3s-0.7-1.1-1.6-2c-0.8-0.8-1.5-1.7-1.5-1.9
		C329,279.1,332.1,281.3,332.9,282.5 M162.6,280c-1.9,0.5-3.5,1.6-4.2,3.1c-2.3,4.6-5.4,12.5-6.1,15.3c-0.2,1-0.7,3-1.1,4.4
		c-0.8,3.1-0.8,3.4-0.1,3.8c0.8,0.4,1,0,2.2-3.7c2-6.4,6-14.3,7.8-15.4c0.3-0.2-1.1,3.7-1.7,4.9c-0.7,1.4-2.1,5.8-2.3,7.5
		c-0.6,4.1-0.6,3.8,0.1,4.4c0.3,0.3,1.3,0.8,2.2,1.2c0.8,0.3,2.2,1,3,1.5c3.3,2,5,1.4,6.9-2.4c4.1-8.1,7.2-19.2,5.8-20.7
		C173.1,281.6,165.5,279.3,162.6,280 M338,282.4c0.2-0.1,1,0.5,1.7,1.2c1.5,1.5,3.5,2.4,5.9,2.7l1.5,0.2l-0.5,0.5
		c-1.2,1.2-5.9,1.5-6.2,0.4c-0.1-0.2-0.8-0.9-1.6-1.4c-1.6-1-2.8-2.6-2.8-3.8v-0.7l0.8,0.5C337.2,282.3,337.8,282.4,338,282.4
		 M110.7,282.6c-1.3,1.6-5,10.5-4.7,11.4c0.2,0.6,1.6,1.3,2.5,1.3c0.3,0,0.5,0.1,0.5,0.3c0,0.8-2.2,7-3.5,9.8
		c-0.3,0.6-0.5,1.3-0.5,1.4c0,0.2-0.3,0.2-0.9,0.1c-3.5-0.7-4.7,1-8.3,11.7c-3.2,9.6-3.8,12.3-2.9,12.6c0.5,0.2,0.8-0.2,1.3-2
		c1.6-5.5,8.7-20.3,9.7-20.3c0.1,0,0.8,0.4,1.6,0.8c2.6,1.5,3.4,1.3,1.9-0.6l-0.8-1l0.5-1.4c0.3-0.8,1.1-2.8,1.8-4.5
		c1.7-4.1,2-6.6,1-8c-1-1.4-0.9-2.9,0.6-7C111.9,283.2,112,280.9,110.7,282.6 M286.5,292.2c-1.6,1.3-2,1.8-2,2.5
		c0,0.6,2.4,6.3,2.7,6.3c0.4,0,0.5-0.8,0.1-2.4c-0.6-2.4-0.4-3.3,0.5-3.4c1.5-0.2,4.2,2.2,6,5.4c0.9,1.6,0.9,1-0.1-1.2
		c-1.3-2.8-4.8-8.2-5.4-8.2C288,291.1,287.2,291.6,286.5,292.2 M203.2,292c-0.2,0.6,0.6,1.2,1.3,1c0.7-0.2,0.9-0.6,0.5-1
		C204.6,291.5,203.4,291.5,203.2,292 M267.5,292.5c0.1,0.2,0.3,0.9,0.5,1.5c0.4,1.2,0.4,1.2,1.4,0.8c1.1-0.5,0.4-2.5-1-2.6
		C267.5,292.1,267.4,292.2,267.5,292.5 M265.9,293.4c0.3,1.7,0.9,2.9,1.3,2.5c0.4-0.4-0.5-3.5-1.1-3.5
		C265.8,292.4,265.8,292.6,265.9,293.4 M263.4,293.5c-0.5,0.3-0.9,0.7-0.9,0.8c0,0.1,0.1,0.7,0.2,1.3l0.2,1.1l1.2-0.1
		c1.5-0.2,1.5-0.2,1-2C264.6,292.7,264.6,292.7,263.4,293.5 M196.3,296.6c-2,2.1-3.2,6.1-5.2,17c-1.4,7.8-0.6,6.9,2.3-2.6
		c1.7-5.6,3.4-9.3,4.6-10.4c0.5-0.4,0.8-0.6,0.7-0.4c-0.1,0.2-0.6,2.4-1.3,4.9c-0.6,2.5-1.3,5.4-1.6,6.6c-1,3.9-0.8,4.3,3.5,6.5
		c4.9,2.5,7.6,1.8,8.6-2.4c3-12.8,2.5-18.7-1.7-18.9c-0.7,0-2.8-0.4-4.7-0.8C197.3,295.1,197.7,295.1,196.3,296.6 M235.8,297.1
		c-0.3,2-0.2,2.7,0.4,2.7c0.6,0,0.6-0.2,0.4-2.3C236.4,295.9,236.1,295.7,235.8,297.1 M237.8,298v1.9l1.4-0.1l1.4-0.1l0.1-1.5
		l0.1-1.5l-1-0.3C237.8,295.9,237.8,295.9,237.8,298 M232.1,296.7c-1.9,0.5-1.6,2.1,0.4,2.6c0.6,0.2,1.4,0.4,1.6,0.5
		c0.4,0.1,0.4-0.1,0.4-1.6C234.6,296.2,234.5,296.1,232.1,296.7 M270.7,297.8c-2.9,0.8-3.1,0.9-3.1,1.5c0,0.6-0.3,0.7-0.7,0.2
		c-0.4-0.4-3.7,1.4-4,2.1c-0.2,0.6,0.4,1,1.4,0.9c0.5,0,0.9,0,0.9,0c0.1,4.5,3.5,16.5,5,17.5l0.9,0.6l2.7-0.6c4.4-1,5-2.1,4.1-6.8
		c-0.4-1.9-2.3-7.9-3-9.5c-0.6-1.5-0.2-1.2,0.7,0.4c2.1,3.6,2.7,4.7,3.7,7.2c1.4,3.3,1.6,3.3,0.7,0.2c-1.1-3.7-3.1-12-3.1-12.6
		C277,297.5,274,296.9,270.7,297.8 M226.3,304c-1.3,1.2-1.7,1.8-2,2.9c-0.9,3.2-2.7,19.1-2.2,20c0.4,0.9,0.7,0.1,1.5-4
		c1.4-7.2,2.4-10.9,3.6-12.6c0.8-1.2,0.8-1.3,0.1,3c-0.3,1.9-0.6,5.3-0.7,7.6c-0.2,5-0.3,4.8,2.9,6.3c8.5,4,11.5,4.5,14.2,2.8
		c0.7-0.4,1.9-1,2.6-1.3c2.6-0.9,2.8-2.4,1.2-10.9c-0.5-2.8-1-5.6-1.1-6.3l-0.1-1.2l0.5,0.7c0.7,0.9,1.5,3,2.6,7
		c1,3.8,2.1,6.8,2.5,6.8c0.1,0,0.2-0.3,0.1-0.6c-0.5-2.3-0.7-3.5-0.9-6.4c-0.5-6.4-1.5-10.5-2.7-12.2c-1.4-1.9-1.4-1.9-3.1-1.9
		c-0.8,0-2.8-0.2-4.4-0.4c-3.3-0.4-9.4-0.9-11.5-0.9C228,302.5,227.9,302.6,226.3,304 M309.6,303.2c-0.2,0.5,2.9,5.8,3.4,6
		c0.9,0.2,0.7-0.8-0.9-3.5C310.6,302.9,310,302.3,309.6,303.2 M315.9,309.8c-0.6,0.2-1.2,0.7-1.8,1.6c-0.5,0.7-1.2,1.6-1.7,2
		c-0.8,0.7-0.8,0.8-0.5,1.1c0.6,0.6,1.4,0.2,2.8-1.2l1.1-1.1l0.7,1.1c0.4,0.6,1.2,2,1.8,3.2c1.1,2.2,2.9,4.9,7.1,10.9
		c1.4,2,3.1,4.5,3.9,5.6c1.2,1.8,1.3,1.9,1.2,1.1c-0.2-1.2-3.5-7.6-5.3-10.4c-0.8-1.2-2.1-3.7-2.8-5.4c-0.8-1.8-2.1-4.5-2.9-6.1
		C317.8,309.2,317.7,309.2,315.9,309.8 M151.4,316.2c-2,1.1-0.7,3,2.8,4.1c1,0.3,2.8,1,4,1.5c3.6,1.5,5.6-0.6,2.9-3
		C158.9,316.9,153,315.3,151.4,316.2 M143.5,320.5c-1.6,1.3-5.4,10.7-7.4,18c-0.9,3.5-0.7,4.2,0.4,1.4c2.4-6,4.8-10.3,6.6-12.1
		c2.3-2.2,2.4-2.2,1.2,0.5c-0.6,1.2-1.5,3.4-2,4.7s-1.3,3.2-1.7,4.1c-3.4,7.2,1.7,7,11.2-0.6c1-0.8,2.4-1.8,3.2-2.3
		c3.4-2.3,4.1-2.8,4.7-3.7c0.7-1.1,0.9-3.2,0.4-4.1C157.9,322.4,146.1,318.3,143.5,320.5 M190.7,328.5c-0.6,0.4-1.7,3.3-1.7,4.5
		c0,1.5,0.9,2.3,2.8,2.7l0.8,0.2l0.2-1.8c0.1-1,0.3-2.7,0.5-3.7c0.2-1,0.3-2,0.2-2.1C193.4,328,191.3,328.1,190.7,328.5
		 M279.5,328.6c-0.4,0.2-1.1,0.4-1.4,0.4c-0.8,0-1,0.6-0.6,2.4c0.4,1.8,0.2,1.8,2.4,0.9c2.1-0.9,2-0.6,1.4-2.2
		C280.7,328.3,280.5,328.1,279.5,328.6 M194.5,329.3c-0.1,0.5-1.2,6.4-1.2,6.7c0,1,0.8-0.1,0.9-1.3c0.2-1.3,0.6-3.5,1.1-5.2
		c0.1-0.3,0-0.5-0.3-0.5C194.8,328.9,194.5,329.1,194.5,329.3 M196.6,329.5c-0.3,0.5-1.9,6.9-1.7,7c1,0.6,3.2,0.4,3.8-0.3
		c1.8-2,2.8-5.2,1.8-6.1C199.9,329.6,196.8,329.1,196.6,329.5 M275.9,329.8c-0.8,0.6,0.1,4.1,1,3.8c0.5-0.2,0.5-0.3,0-2.3
		C276.4,329.4,276.4,329.4,275.9,329.8 M272,331.3c-2.7,1.2-2.6,1.2-1.9,3.1c0.7,1.8,0.7,1.8,3.3,0.6c1.9-0.9,1.9-0.9,1.4-3.2
		C274.5,330.1,274.5,330.1,272,331.3 M280.9,336.4c-3.5,0.7-9.5,4.5-9.5,6c0,0.3,0.3,0.2,1.2-0.3c1.5-0.9,1.4-0.9,1.6,0.2
		c0.9,6,1.9,9,3.5,9.8l1.2,0.6l2.1-0.6c4.1-1.2,4.2-2.1,1-10.8c-0.5-1.3-0.5-1.5,0.1-1.5c1,0,2.9,2.5,3.4,4.5
		c0.4,1.4,1.9,4.5,2.1,4.4c1.3-0.4-2.2-10.7-4.1-12.2C282.7,336.1,282.8,336.1,280.9,336.4 M183.6,338.1c-0.7,0.7-3.7,6.8-3.7,7.5
		c0,0.4,0.5,0,0.8-0.6c0.6-1.4,1.7-2.8,2.9-3.7c1.2-0.9,2.1-1.2,1.7-0.6c-0.1,0.2-0.4,1.3-0.7,2.5c-0.3,1.2-0.8,3.3-1.2,4.8
		c-1.7,6.6,0.9,9.3,9.9,9.9c3.6,0.2,4.1-0.4,5-6.4c0.2-1.5,0.5-3,0.7-3.5c0.2-0.4,0.4-1.5,0.5-2.4l0.2-1.6l0.4,0.9
		c0.2,0.5,0.6,1.6,0.9,2.5c0.6,2.3,1,1.7,0.8-1.3c-0.3-4.1-1-4.9-6.2-6.3c-1.8-0.5-4.4-1.3-6-1.7
		C186.1,336.9,184.8,336.9,183.6,338.1 M225.2,337.4c-0.1,0.1-0.2,0.7-0.2,1.2c0,0.6-0.1,1.3-0.3,1.7c-0.2,0.6-0.2,0.8,0.1,1.1
		c0.6,0.6,0.7,0.3,0.6-2.1C225.4,338.1,225.3,337.2,225.2,337.4 M226.6,339.6l-0.1,2.5l1.4,0.6c0.8,0.3,1.5,0.6,1.5,0.6
		c0,0,0.2-1.1,0.3-2.6c0.2-3,0.1-3.3-1.8-3.5l-1.2-0.1L226.6,339.6 M249.3,340.5c0,2.7,0.1,2.8,1.4,2.1c0.6-0.3,0.7-0.5,0.6-0.9
		c-0.1-0.3-0.3-1.1-0.4-1.9c-0.2-1.3-0.6-1.9-1.3-1.9C249.3,338,249.3,339.1,249.3,340.5 M246,338.5c-0.1,1.2-0.1,6.2,0.1,6.2
		c0.1,0,0.7-0.2,1.3-0.4l1.1-0.4l-0.2-1.2c-0.1-0.7-0.2-1.9-0.2-2.8v-1.6h-1.1C246.5,338.3,246.1,338.4,246,338.5 M230.4,341.1
		c-0.3,2.5-0.2,3.3,0.5,2.9c0.3-0.2,0.3-5.4,0-5.4C230.8,338.5,230.6,339.7,230.4,341.1 M232.4,339.2c-0.1,0.2-0.2,1.6-0.3,3
		l-0.2,2.6l1.4,0.8c0.8,0.4,1.5,0.8,1.6,0.9c0.1,0,0.2-1.4,0.1-3.3l-0.1-3.4l-1.2-0.5C232.7,338.9,232.5,338.9,232.4,339.2
		 M244.1,341.4c-0.1,1.4-0.2,2.9-0.3,3.3c-0.1,0.8,0.2,1,1,0.5c0.4-0.2,0.5-4.7,0.1-5.9C244.5,338.2,244.2,339,244.1,341.4
		 M240.9,339.7l-1.1,0.3l-0.1,3.4c0,1.9,0,3.4,0.1,3.4c1.2,0,3.6-1.2,3.4-1.7c-0.1-0.3-0.2-1.7-0.2-3.2
		C243.1,339,243.1,339,240.9,339.7 M236.1,341.9c-0.5,5.5-0.5,5.1,0.1,5.4c1.1,0.6,1.1,0.4,0.9-3.1
		C236.9,340.1,236.4,338.9,236.1,341.9 M238.3,340.8c-0.4,0.5-0.2,6.6,0.1,6.5c0.2-0.1,0.4-0.5,0.4-1
		C238.9,344.9,238.5,340.5,238.3,340.8 M219.4,343.3c-0.2,0.3-0.7,2.9-1.2,5.9c-0.5,3-1.1,6.3-1.4,7.4c-0.5,2.5-0.6,4-0.2,4.4
		c0.5,0.5,1.1-0.2,1.4-1.9c0.9-4.9,2-8.2,3.6-10.9c0.9-1.5,1-1.6,2.9-1.2c2.8,0.6,6.1,1.1,6.3,1c0.2-0.2,0.2-0.2-1.7-1
		c-0.9-0.3-2.4-1.1-3.4-1.7C221.9,343.2,219.8,342.5,219.4,343.3 M251.7,346.2c-4.1,1.8-7.9,4.3-5.6,3.6c0.3-0.1,1.2-0.4,2-0.6
		c4.7-1.4,5.7-0.5,8,6.5c0.8,2.5,1.7,4.8,1.9,5.1c0.7,0.9,0.7,0.1,0-2.1c-0.4-1.2-1-4.2-1.4-6.6c-0.8-4.4-1.6-6.9-2.2-6.9
		C254.1,345.2,252.9,345.7,251.7,346.2"/>
</g>
</svg>
