<svg xmlns="http://www.w3.org/2000/svg" viewBox="0 0 410 410"><path d="M257.5 25.5c-1.5.2-5.9.7-9.7 1.2-3.8.4-9.1 1.2-11.7 1.8-2.6.5-7 1.3-9.6 1.7-8.5 1.4-10.6 2-17.6 5-.6.3-1.5.6-2 .8-5.2 2-12.5 6.3-19.2 11.3-2 1.5-4.2 3.1-4.9 3.6-5.6 3.7-14.5 11.9-19.7 18.3-5.4 6.5-7.3 9.4-10.8 16.5-2.8 5.7-3 6.3-.7 2.6 5.9-9.8 14.4-21.1 15.8-21.1.3 0 .1.3-1.5 2.2-2.5 2.9-3.4 4.1-5.4 7.5-1 1.7-2.9 4.8-4.3 7-3.3 5.3-4.4 7.2-5.7 10.4-.6 1.5-2 4.3-3.1 6.4-1.1 2.1-2.4 4.5-2.9 5.5s-1.2 2.3-1.6 2.9c-.9 1.5-.1 1 1-.7 3-4.7 6.1-10.1 8.4-14.8 1.5-3 3.3-6.5 4-7.6.7-1.1 1.2-2.1 1.2-2.2 0-.9 5.6-8.2 10.8-14.1 5.2-5.9 9.2-9.4 19-16.3 4.3-3.1 11.7-7.4 14.1-8.3.5-.2-.9.7-2 1.4-2.7 1.4-4 2.3-7.2 4.7-5.2 4-6.9 5.4-6.9 5.9 0 .7.4.6 1.4-.3.5-.4 2.4-1.6 4.2-2.7L196 51c2.7-1.8 11.6-6.4 11.9-6.1.1.1-.6.5-5.7 3.3-5.8 3.1-9.4 5.7-18.7 13.1-3.2 2.6-6.9 5.5-8.2 6.6-3.7 2.9-10.4 10.1-13.2 14.2-3.2 4.7-7.3 11.5-6.9 11.5.1 0 1.7-2.3 3.6-5.1 7.3-10.8 13.1-16.7 21.9-22.5 2.7-1.8.3.8-3.8 4-4.9 3.9-14.2 14.6-16.1 18.5-.4.8-.2.7 2-2.3 6.3-8.2 13.9-14.8 24.7-21.5 1.6-1 3.4-2.1 3.9-2.4 6-3.8 7.8-4.7 4-2-14.3 10.4-22.5 18.9-28.9 30-3 5.2-4 6.5-7.3 9.9-3.2 3.3-3.1 3.4.3.2 4.1-3.9 5-5 12.8-15.3 4.4-5.9 5.1-6.7 9.4-10.7 4.8-4.5 9.9-8.3 5.9-4.4-4.7 4.6-10.2 10.7-12.1 13.4-9.4 13.2-16.8 20.9-27.6 28.8-.2.2.4-.6 1.4-1.7 3.4-3.9 5.6-6.8 7.5-10 1-1.8 2.8-4.3 3.8-5.6 3-3.8 3.4-4.9.9-2.4-.9.9-3 3.5-4.7 5.7-6 8-7.1 9.3-13.7 16.3-2.3 2.4-4.9 5.1-5.7 6-.8.9-2 2.2-2.6 3-1.1 1.5-1.9 2.4-8.4 9.2-8.7 9.3-17.3 20-22 27.3-1.2 1.9-2.8 4.2-3.6 5.3-2.3 3-7 11.3-8.6 15.5-.5 1.2-.9 2.2-2.3 5.3-4.7 10.5-7.4 23.4-6.9 33.1.2 2.9.3 3.6.3 2.2 0-2.3 1.1-10.7 2-16.5 1.4-8.5 6.6-21.9 11.4-29.6 1-1.7 2.6-4.3 3.5-6 1.6-2.8 3.2-5.1 6.2-9 2.4-3.1 2-2.2-2 3.7-.9 1.3-2.3 3.7-3.1 5.3-.8 1.6-2.4 4.4-3.5 6.3-3.6 6.3-6.2 12.3-8.9 20.6-3.4 10.4-4.9 25.3-3.3 32.5l.5 2.4-.1-6.1c-.2-7.9 0-8.9 2.6-19.5 2.6-10.3 3.2-12.1 6.8-19.3 1.5-3 3.1-6.3 3.5-7.3 1.2-3 2.7-5.8 5.6-10.3.5-.7 1.1-1.8 1.5-2.4 3-5.1 13-18.9 15.9-22 .3-.3 1.2-1.3 2-2.3 5.4-6.3 11.7-12.8 16.7-17 1.8-1.5 3.8-3.4 4.5-4.2.7-.8 2.4-2.3 3.7-3.3 1.3-1 3.2-2.6 4.2-3.6 1-.9 4-3.8 6.8-6.4 6.4-6 11.5-11.6 11-12.1 0 0-1.8 1.6-3.9 3.7-4.1 3.9-9.1 8.3-12 10.5-1 .7-3.2 2.6-5.1 4.1-1.8 1.5-3.6 3-3.9 3.2-1.8 1.4.7-1 4-3.8 8.3-7.2 10.1-8.8 14.2-13 2.4-2.4 6.1-6.4 8.2-8.9 5-5.8 8-8.9 8.5-8.9.2 0 1.5-1.2 2.9-2.7 4.6-5 9.5-8.6 16.4-12 4.2-2.1 6.7-2.8 3.1-.9s-8 4.7-10.5 6.7c-6.7 5.4-7.4 6.6-1.4 2.6 6.1-4.2 12-7.8 12.6-7.8.1 0-.3.3-1 .8-1.4.9-2.2 1.8-1.4 1.5.3-.1-.4.4-1.6 1.2-3.1 2.1-12.1 8.7-13.7 10.1-.7.7-2.4 2.2-3.7 3.4-2.4 2.1-6 6.2-6.9 7.9-.5.9-.5.9.9-.4 7.8-6.8 15-12.1 22.6-16.6 1.7-1 3.7-2.2 4.4-2.7 1.6-1.1 2.2-1.2.9-.2-.8.6-.8.7-.3.5.6-.1.6-.1.1.2-1.4 1.1-2.3 1.7-4.3 3.4-1.2 1-3.6 2.9-5.4 4.2-4.9 3.7-12.5 12.1-18.5 20.6a110 110 0 0 1-5.9 7.6c-2.1 2.5-2.6 3.3-1.3 2.2.4-.4 2.5-2.2 4.6-4s5.7-5.2 8-7.5 5.4-5.1 6.9-6.4c1.5-1.2 3.7-2.9 4.7-3.7 1-.8 2.5-1.9 3.2-2.4 1.3-.9 9.5-6.9 9.7-7.2.1-.1.8-.6 1.6-1.1 3.5-2.3 3.4-2-.5 1.2-5.7 4.5-11.1 10.5-17.7 19.5-.8 1.1 2.7-2 5.2-4.5 3.3-3.4 13.2-12.3 15.2-13.6 1.4-1 2.2-1.4 1.5-.8-2 1.6-22.1 21.3-31.5 30.7-2.2 2.2-5.2 5.1-6.7 6.4-12.3 11.1-33 33-42.8 45.2-.7.8.4-.1 3-2.5 2.1-2 5.4-4.8 8-6.8.7-.6 2.9-2.3 4.7-3.8 1.8-1.5 6-4.6 9.2-7 9.7-7 17.4-13.6 22.7-19.4l1.5-1.6-1.4 1.2c-.8.7-2.1 1.7-3 2.3s-3.4 2.5-5.7 4.3c-2.3 1.8-5 3.7-6.1 4.2l-1.9.9 1.1-1c.6-.5 2-1.7 3.1-2.6 2.1-1.7 8.3-7.1 14.3-12.5 1.9-1.7 5.4-5.1 7.7-7.6 2.3-2.4 4.6-4.7 5.1-5 .5-.3 1.7-1.3 2.6-2.2.9-.9 3.3-3.1 5.3-5s3.9-3.6 4.1-3.9c1.6-1.5 10.6-8.8 10.9-8.8.1 0-.2.5-.8 1-.5.6-1.9 2.3-3.1 3.8-1.2 1.5-3.3 4-4.7 5.5-1.4 1.5-3.3 3.7-4.4 4.9-1.1 1.2-3.7 3.9-5.8 6-6 5.8-10 9.8-10 10 0 .3.7.3.9 0 .2-.4 8.1-7.5 11.1-10.1 1.4-1.2 2.9-2.6 3.3-3.1 3.2-3.7 4.5-5.2 6.4-7 1.2-1.2 3.2-3.5 4.6-5.1 2.6-3.1 3.6-4 1.8-1.7-.6.7-1.6 2.1-2.4 3.1-.7 1-2.5 3.2-4 5-1.5 1.8-3.6 4.4-4.8 5.9-4 5-6.4 7.7-10.9 12.4-7.2 7.3-5.2 5.8 6-4.5 8.5-7.9 9.8-9.2 13.6-14.3 2.5-3.4 6.4-7.9 6.8-7.9.2 0-1.8 3.1-3.1 4.7-.7.9-2.1 2.9-3.1 4.4-2.8 4.3-4.6 6.3-10.1 11.7-2.8 2.7-5.5 5.5-6.1 6.1l-1.1 1.2.9-.6c7.4-5 16.5-14 20.7-20.4 2-3 4.4-6.3 4.5-6.2 0 0-.5 1.1-1.1 2.3-.7 1.2-1.9 3.6-2.8 5.4-4.5 9-14.9 20.3-24.6 26.6-1.8 1.2-4.4 2.6-8 4.6-4.8 2.5-1.7 1.8 4.2-.9 8.5-4 15.4-8.9 23.4-16.8 4.4-4.3 4.5-4.3 1.4.5-4.3 6.8-18 16.7-28.2 20.5-1.9.7-12.3 6.8-17.6 10.3-1.6 1-3.4 2.2-4.1 2.5-.7.3-2.2 1.4-3.5 2.5-1.2 1-3.5 2.8-4.9 4-2.5 2-5.3 4.7-4.4 4.2.2-.1 1.4-.9 2.6-1.6 11.6-7.5 28.4-11.8 41.6-10.8 5.9.5 16.6 3.1 24.2 5.9 1.3.5 2.1 1.6.9 1.2-.3-.1-1.9-.6-3.7-1.1-18.5-5.4-34.4-5.1-49.9 1.1-3.4 1.3-3 1.4.9.1 6.5-2.2 10.9-3 20.2-3.7 2.9-.2 3.7-.2 5.9.2 1.4.3 3.5.6 4.7.7 6.1.5 16 4.2 21 7.8 3.1 2.3 6.1 4.1 6.8 4.1.2 0 .8.4 1.4.8 1.3 1 .9 1-2 0-1.8-.6-2.6-1-3.7-2-6-5.4-25.2-7.9-36.7-4.7-1.3.4-3.6 1-5.1 1.4-4.5 1.2-10.8 3.4-14.7 5.3-1.3.6-2.7 1.3-3.3 1.5-.5.2-1.4.7-2 1.1-.6.4-2.8 1.5-4.9 2.6-5.6 2.9-13.3 7.4-17.7 10.5-2.9 2-12.2 9.3-13.6 10.7l-1.1 1.1.9-.6c.5-.3 2.2-1.6 3.8-2.8 19.9-15.5 46-26.9 64.1-27.9 1-.1 1.5-.1 1 0-10.2 1.4-15.1 2.9-31.2 9.7-12.1 5.1-25.2 12.9-33.2 19.7-.8.7-2.4 1.9-3.5 2.8-3.7 2.8-15.8 14.6-17.9 17.5-2.4 3.2-8.2 13.4-7.8 13.8.1.1.7-.9 1.5-2.2 5.2-8.6 17.2-20.9 26.7-27.4 2.7-1.8 4.6-2.9 3.1-1.8-8.1 6.3-23.5 22.6-27.3 28.9-2.9 5-7.1 13.9-8.2 17.7-1.3 4.3-1.8 14.8-.9 17.7.6 2 1.4 3.7 2.2 4.9.8 1.1.8.8.3-1.3-2.6-9.2-.7-22.3 4.6-32.3 1.6-3 3.8-6.3 4.7-7.1.4-.3.3-.1-.3.8-9.8 14.5-11 36-2.6 45.9 2.2 2.6 3.8 2.7 2 .1-7.7-11-6.9-26.9 2.1-42.1 1-1.7 2.3-4 2.8-5.1 3-6.2 8.7-11.7 20.3-19.5 14.1-9.5 22.9-13.5 41.2-18.6 1-.3 1.1-.3.5-.4-.4-.1-1.1.1-1.7.3-.5.2-2.2.6-3.8.8-2.8.4-8.3 1.6-12.5 2.6-3.2.8-7.7 2.6-13.1 5.4-4.8 2.5-5.8 2.9-3.9 1.7.6-.3 2.1-1.4 3.5-2.3 1.4-.9 3.6-2.2 4.8-2.8 1.2-.6 2.6-1.4 3.1-1.7 1.9-1.4 10.7-5.1 20.1-8.5 1.5-.6 3.3-1.3 4-1.6 1.1-.5 5-1.8 9.7-3.2.9-.3 1.4-.5 1.1-.6-.6-.1-11.9 2.4-14.9 3.3-1.2.4-3.5.9-5 1.2-2.8.5-5.4 1.3-9.5 2.9-1.2.5-3.9 1.5-6 2.3-2.1.8-4.9 1.9-6.2 2.5-3 1.4-3.1 1.4-1-.1 1-.6 3.1-2.1 4.8-3.2 14.8-10.1 43.8-19 51-15.6 2.7 1.3 3 1.8 2.1 4.6-1.7 5.4-7.4 10.6-14.8 13.6-.7.3-1.7.7-2.1.9-.4.2-2.9 1.2-5.5 2.1s-5 1.9-5.5 2.1c-.9.4-8.1 2.8-10.9 3.6-1 .3-3.3 1.3-5.2 2.2-2 1-4.3 1.9-5.9 2.3-4.5 1.2-8.3 2.8-13.9 6.1-1.7 1-3.3 1.9-3.6 2.1-11.9 6.4-26.5 28.2-26.5 39.5 0 1.2.4.5 1-2 2.3-8.7 6.4-15.6 15.1-25.3 1.2-1.4 1.1-.8-.2.9-8.3 10.8-12.5 20-14.4 31.4-.4 2.3-.5 10.4-.2 10.7.4.4.6-.4.8-4.2.2-3.9 1.2-9.1 2.1-10.8.1-.3.9-2.3 1.6-4.6 3.5-10.5 13.1-24.7 19.3-28.6.8-.5 2.4-1.5 3.5-2.3 3.5-2.3 12.1-6.5 13.2-6.5.1 0-1.7.9-4 2.1-10.8 5.4-21 16.2-26 27.5-6.8 15.3-7.9 22.7-5 34.2 1.4 5.6 5.3 12.7 6.3 11.7.3-.3-.2-2.5-.9-3.6-2.9-4.8-2.8-19.3.3-27.3l1.3-3.5c1.8-4.8 4.6-10.3 6.8-13.5 2.8-4 12.8-13.3 18-16.8 6.5-4.3 19.2-10.8 21.3-10.8.8 0-.1.6-3.5 2.1-11.1 5.2-23.7 15.6-29.4 24.3-1.6 2.4-7.7 14.3-8.6 16.7-3.1 8.3-3.5 22.9-.8 29.6 1.4 3.7 2 4.4 2.8 3.6.3-.3.3-.8-.3-3.2-.3-1.5-.7-3.4-.8-4.1-.3-2.1.9-12.2 1.7-14.9.3-.9.8-2.7 1.2-4 1.2-3.8 4.6-9.5 10.1-16.8 4.2-5.5 13.1-12.9 21.7-18.1 5.2-3.1 12.8-6.4 15.8-7 .8-.2 1.4-.3 3.5-.9.4-.1 1.7-.5 3.1-.9 1.3-.4 3.3-1.1 4.4-1.5 2.3-.8 8.1-1.9 17.8-3.3 6.9-1 9.4-1.1 15.8-.8 3.7.2 5.9.1 13.9-.7 5.3-.5 11.3-2.6 14.6-5.1 3-2.3 6.7-5.6 8.2-7.4 4.6-5.3 23.7-18.9 30.9-22 3.5-1.5 7.8-1.5 9.8 0 .5.4 1.2.7 1.5.7s.9.3 1.2.7c.9 1 .9.2 0-1.1-1.1-1.7-3.1-3.6-4.5-4.3-1.8-.9-1.3-1.3 1.1-.8 1 .2 2.1.5 2.4.5 2.6.5 5.7 5.8 6.5 10.8.5 3.4.4 4-.7 4.2-1.1.2-.8.4-4.4-3-2.9-2.7-6.5-4.3-8.6-3.7-1.1.3-.8.6 1.1 1.5 3 1.4 8.3 8.3 6.4 8.3-.2 0-1.5-1.1-3-2.4-3.6-3.3-7.5-4.8-9.9-3.8-.8.3-.6.8.2.8 3.2 0 7.1 4 7.8 7.9l.2 1.1-2.2-2.2c-3-2.9-4.8-3.8-5.2-2.4-.1.2.8 1.2 1.9 2.2 2.1 2 2.5 2.7 4 6.9 1.8 5.1 6.2 6 13.1 2.7 6.8-3.3 7.1-3.8 6.8-9.9-.3-6-.6-7.6-2.4-11.5-2.2-5.2-1.2-4.9 2.6.6.7 1.1 2.4 5.5 2.4 6.3 0 1.6 2.5 2 3.6.7.9-1.1 2.2-1.5 4.3-1.5 3.1 0 4.4-3.4 1.6-4.5-.4-.2-.8-.5-.8-.7 0-.5-1.7-2.1-4.6-4.6-3.8-3.2-7.4-8.8-7.9-12.1-.2-1.5.5-5.1 1.6-7.8l.8-2.1.2 2c.5 5.6 2.5 9.1 10.9 18.7 2.6 3 4.1 5.6 3.9 6.6-.5 1.9-.1 6.5.6 7.3.4.4.8-.9.8-2.9 0-2.1.3-2.8 1.7-4.5.7-.7 1.2-1.5 1.2-1.7 0-.4 1.4-.9 2.6-.9 2.2 0 .6-3.3-4.2-8.1-3.8-3.9-6.1-7.4-5.8-8.9.7-3.6 1-5.3 1.1-5.7.1-.3-.2-.9-.9-1.7-1.9-2.2-2.9-4.9-2.9-7.8 0-2.2 1.9-7.6 2.9-8.1.8-.4.8-.3-.1 3-.7 2.9-.8 3.8-.4 5.7.4 1.9.7 1.7.9-.5.1-1.3.4-2.4 1-3.6 1-2.1 1.1-2.1.6 0-1 4.1 0 9.9 2 11.7.7.6 3.4 4.5 4.8 6.8.8 1.3 1.2 2.4 1.5 4.1 1.2 6 3 7.5 7 5.5 1.1-.6 2.5-1.1 2.9-1.2 2.2-.4 1.4-2.8-1.4-4.1-2.1-1-4.1-4.5-3.4-6 .4-.9 2.5-4.1 2.7-4.1.1 0 .3.6.5 1.3.2.7.7 1.9 1.2 2.6.5.7 1 1.7 1.1 2.3.1.7.6 1.6 1.4 2.5.7.8 1.5 1.8 1.7 2.2.7 1.1 1.4 1.2 2.9.7.7-.3 2.1-.6 3-.7l1.7-.2-.1-1c-.3-1.8-3.2-4.3-5-4.3-.4 0-1.4-1.1-1.8-2.2-1-2.4-.8-4.4.7-6.5.7-1 .6-1.1 1.4 1.5.2.8 1 2.3 1.6 3.3.7 1 1.2 1.9 1.2 2.1 0 .5 1.2 2.2 2.8 4l1.4 1.5 2-.3c2.7-.4 2.8-1.1.7-3.7-2.4-2.9-3.2-5.7-2.6-8.4.2-.9 4.5 3.3 5.4 5.3.3.6 1.3 2.3 2.3 3.7l1.8 2.7 1.4.2c.8.1 1.8.3 2.2.4l.9.2v-3l-1.9-1.8c-3.9-3.6-4.7-4.6-5.8-6.8-1.2-2.5-3.2-5.2-4.2-5.4-1.1-.3-1.3-.8-1.2-2.5.1-2-.7-4.9-1.9-6.5-.5-.7-1.6-2.2-2.6-3.4-.9-1.2-2.1-2.9-2.7-3.8-1.8-3-2.2-2.1-.6 1.5.6 1.2 1.6 3 2.3 3.9 2 2.7 3.7 7.5 3 8.2-.6.6-1.7-1-1.7-2.5 0-2.2-2-6.1-3.3-6.6-.9-.3-.9 0 .1 2.3 1 2.4 1.4 3.9 1 3.9-.6 0-4.5-5.8-5-7.4-.2-.7-.5-1.3-.6-1.4-.1-.1-.3-.5-.5-.9-.3-.8-1.3-1-1.5-.4a29 29 0 0 0-.5 3.5c-.2 1.7-.6 3.5-.8 4-.2.5-.7 1.8-1 2.9-.6 1.8-2.1 4.5-3.7 6.3-.8.9-.9.7-.3-.3 1.4-2.4 3.5-11.2 3-12.5-.3-.7-.8-.3-1 .8-1.3 6.1-5.4 13.3-8.6 15.1-.9.5-.6-.1.8-1.6 2.6-2.9 5.3-8.4 5.3-10.7 0-1.4-.4-1-1.5 1.3-1.6 3.5-6.8 9.8-8 9.8-.2 0-.5.1-.8.2-1.5.6-.2-2.9 2-5.5 1.3-1.6 4.3-6.1 4.3-6.6 0-.1.9-1.6 2-3.5 2.3-3.8 2.5-4.4 3.5-8.4.6-2.4.9-4.5 2.2-12 .1-.8.3-2.5.4-3.7.1-1.2.3-2.4.4-2.6.2-.2.1-.4-.2-.5-.2-.1-.5-.6-.6-1.1-.2-1 .3-1.1 1.3-.4.4.3.8.4.9.4.6-.2 1.9 1.6 2.1 2.7.6 5 5.5 18.6 7.8 21.6 6.2 8 7.1 9.5 8.1 12.5.6 2 1.2 2.2 1.4.3.1-2.2-1-5.1-3.9-9.5-5.1-7.8-7.6-13.5-8.8-19.6-.9-5-2.6-8.4-4.4-8.8-3.3-.8-10.9-6.7-13.7-10.7-4.1-5.7-5.9-1.6-2.4 5.6 2.2 4.6 3 14.9 1.5 20.2-.8 2.8-.8 2.8-.9.3 0-3.1-1-6.8-1.7-6.8-.5 0-1 2.2-1.1 4.9-.1 1.3-.2 3.1-.4 3.9l-.3 1.5-.4-2c-.2-1.1-.6-2.8-.9-3.9-1-3.3-1-3.7-1.1-5.7 0-2.4-.3-2.1-1.5 1.9-.4 1.4-1.1 3.5-1.5 4.7-1.4 4.6-4.1 8.6-7 10.8-2.1 1.6-2.2 1.6-.6-.3 2.4-2.6 4.2-6.5 5.5-11.9 1.2-4.8 2.8-9.4 4.2-11.7 1.1-1.9 1-2.1-.2-.9-1.7 1.6-5.2 8.2-6.3 11.9-1.3 4.2-1.4 4.3-4.1 7.2-5.7 6-14.3 10.8-27.1 14.9-11.8 3.8-19.6 2.8-26-3.5-3.3-3.3-7.4-9.9-8-13-.2-1.1-.5-1.3-.8-.4-.4 1.6 0 4.1 1.6 9.9.8 3 2.3 5.3 5.5 8.5 1.3 1.3 2.3 2.3 2.2 2.3-1 0-4.5-2.4-9.5-6.5-7.1-5.8-6.1-19.3 2.3-34.3 2.5-4.4 8.4-6.9 17.3-7.4 5-.3 7.2.4 12.5 3.4 7.6 4.4 10.2 5.3 15.7 5.7 1.3.1 3.5.4 4.8.6 4.4.8 11.9 0 14.9-1.6 3.9-2 5.9-7.9 4.7-13.8-.9-4.5-1.7-5.8-4.7-7.9-1.5-1-1.3-1-8.6-1.7-4.6-.5-8.8-1.4-13.9-3.2-9.9-3.5-13.9-4.3-25.7-5.3-3.8-.3-4.1-.4-4.1-.7 0-1.2 16.3-1.9 22.5-1.1 1.8.3 2.1.2 2.6-.2s.6-.4 2.2.1c.9.3 2.8.7 4.1.9 2.6.4 9.2 1.7 11.6 2.4.8.2 2.6.5 3.9.6 1.3.1 3.1.4 3.9.7 8.5 2.5 17.3-5.7 11.2-10.4-2.5-1.9-3.9-3.2-4.6-4.3-.8-1.4-5.1-5.9-6.6-7.1-.7-.5-1.9-1.6-2.7-2.3-2.2-2-4.9-3.6-13.6-7.4-5.1-2.3-14.7-5.6-19.6-6.7-5.6-1.2-19.4-2-25.4-1.2m83.8 37.8c-1.2.4-2.5 1.7-2.5 2.5s-4.6 4.8-5.5 4.8c-.9 0-1.3 2.8-.8 5.3.8 4 6.6 13 8.9 14 .4.2 1.7 1.2 3 2.4 3.1 2.8 5.9 3.7 8.3 2.8 1.5-.6 1.8-1.1 3.1-5 2.5-7.6 4.5-9.1 8-5.9.7.7 1.4 1.2 1.4 1.1 0-.7-1-3.9-1.7-5.4-.5-1-1.2-2.5-1.5-3.3-.4-.9-1.4-2.3-2.8-3.8-1.2-1.3-2.9-3.2-3.8-4.2-3.4-3.8-10.6-6.5-14.1-5.3m21.8 25.2c0 .3.4 1.5.9 2.7 3.1 7.7 4 14.8 2.2 17.5l-.7 1.1 2.6.2c1.4.1 2.8.2 3.1.3.8.2.6-5-.3-8.7-1.3-5.5-7.8-16.3-7.8-13.1m-127.8 1.3c-.2.3-.5.8-.8 1.3s-1 1.8-1.6 2.9c-.6 1.2-1.2 2.3-1.3 2.4-.9 1.2-5.2 10.4-6.8 14.6-3.7 9.6-10.4 17.6-16.4 19.5-1.2.4-2.3.8-2.5.8-.6.4 0-.2.9-.8 1.6-1 4.8-4.4 5.9-6.2.5-.8 1.9-2.7 3-4.1 3-3.7 4.5-6.6 4.5-8.9 0-2 4.4-9.8 8.4-14.8 2.8-3.5 7.9-8.6 6.7-6.7m-87 3.9l-.8 1.9c-.2.5-.3.9-.3.9.2 0 1.8-3.5 1.6-3.6 0-.1-.3.3-.5.8m27.7 3.5c-3.7 3.9-7.1 7-13.7 12.5-3.4 2.8-6.1 5.2-8.8 7.8-1.1 1-2.1 2-2.3 2.1-.2.1-1 .9-1.9 1.7-.9.8-2.9 2.6-4.5 4.1-1.6 1.4-4.8 4.5-7.1 6.9-2.3 2.4-6 6.2-8.2 8.6-2.3 2.4-5.1 5.5-6.3 7.1-1.2 1.5-2.4 3-2.6 3.2s-1 1.3-1.9 2.4c-.9 1.1-1.8 2.2-2 2.5-.4.5-3.2 4.5-6.1 8.8-.7 1-1.5 2.4-1.8 3s-1.1 1.9-1.7 2.9c-.6 1-1.5 2.5-2 3.3-.4.8-1.2 2.2-1.8 3.2-.6 1-1.4 2.7-1.9 3.8-.5 1.2-1.2 2.6-1.6 3.1-.4.6-.7 1.2-.7 1.5 0 .3.7-.9 1.6-2.6s2.2-4.2 3-5.6c1.9-3.5 9.2-14.7 12.9-19.6 5.3-7.2 14.9-17.5 20-21.7l.8-.7-.7.8c-.4.4-1.9 2.1-3.5 3.7-10 10.5-15.4 17.4-24 30.7-3.7 5.8-3.9 6.3-.5 1.5 1.1-1.5 2.6-3.7 3.4-4.7.8-1 1.7-2.2 1.9-2.5.2-.3 1.2-1.5 2.1-2.6.9-1.1 1.8-2.2 2-2.4 1.5-1.9 3.7-4.6 4.6-5.6.6-.7 2.1-2.4 3.3-3.9 3.3-4 15.2-15.8 20.1-19.9 5.5-4.6 9.6-8.6 14.6-14.2 2.2-2.5 5.2-5.9 6.7-7.5 1.5-1.6 3.6-4.2 4.8-5.7 1.2-1.5 3.3-4.3 4.8-6.1 4.4-5.4 4.2-5.4-1 .1m169.6 4.1c-.6.9-.5 2.8.2 4.2.4.8.7 1.6.7 1.8 0 1.7 3.1 8.8 3.8 8.8.6 0 .6-.3.1-1.3s-1.7-5.8-2.1-8.5c-.3-2.1-.8-3.3-2-4.6-.3-.4-.6-.6-.7-.4M238.1 103c-1.5 4.2-1.9 9.6-1 12.8.2.8.6 2.5.8 3.9.9 5.4 4.7 13 9.5 18.9 5.4 6.7 5.6 5.5.6-3.7-2.5-4.7-3.7-8.1-1.9-5.6.3.4 1.5 2 2.7 3.5 3.8 4.7 8.1 11.7 9.2 15 1.4 3.9.1 9.4-2.3 10.4-1 .4-12.5.3-14-.1-2.9-.9-9.9-4.3-12.5-6.3-2.4-1.7-4.7-3-9.7-5.5-7.4-3.6-10.2-4.6-14.9-5.5-2.9-.5-2.9-.7-.3-1.3 3.3-.8 4.6-.8 7.5-.2 1.5.3 3.9.7 5.3 1 1.5.2 4 .8 5.6 1.3 6 1.9 9.2 1.6 12.8-1.3 1.8-1.5 2.5-4.8 1.5-6.9-.1-.3-.6-2.8-.9-5.6-.4-2.8-.8-6.2-1-7.5-.8-5.5-.1-10.2 2.3-16.2.9-2.5 1.5-3.3.7-1.1m-57.8 2.5c-3.4 3.4-8.2 7.7-12.1 10.9-2.3 1.9-5 4.2-6.1 5.1-1.1.9-3 2.4-4.3 3.3-2.3 1.6-8.1 6.4-15.5 12.8-9.3 8.1-21.4 21.5-23.2 25.9-.8 1.8-.4 2 .9.6.6-.7 3-3.5 5.3-6.3 7.5-8.8 13.3-14.5 20.5-20.2 3.4-2.7 7-5.6 7.9-6.4 7.1-6 2.9-1.4-10.3 11.4-12.2 11.9-14.8 14.6-19.5 20.9-.8 1.1-2.9 3.6-4.6 5.6-1.7 2-4.2 4.9-5.6 6.5-1.4 1.6-3.1 3.6-3.8 4.4-4.9 5.6-9.4 12.3-12.4 18.4-1.2 2.5-2.4 4.7-2.5 4.9-1.2 1.4-3.7 10.7-4.6 16.5-.3 2.1-.2 3.1.1 1.3.1-.6.5-1.8.9-2.7.4-1 .9-2.2 1-2.7.6-1.8 3.4-7.7 5.9-12.3 1.4-2.6 3.4-6.2 4.4-8 1-1.8 2.3-4.1 2.9-4.9 2.5-3.8 5.4-7.7 7-9.5.9-1.1 2.7-3.3 3.9-5 7.2-9.9 20.8-24.7 44.1-48 5-5 9.9-10.1 10.9-11.2.9-1.1 3.3-3.6 5.2-5.7 3.6-3.8 5.3-6 5.2-6.8 0-.2-.5.1-1.6 1.2m164.4 3.1c0 2 .8 4.6 1.6 5.5 1.4 1.5 1.3-.9-.2-4.5-1.2-3-1.4-3.2-1.4-1m13 2.9c0 .9 3 3.3 4.6 3.7 7.9 2 11.6 5.2 11.9 10.1.2 3.3-.6 8.8-1.7 12.1-1.3 3.9-1.5 6.4-.6 8.3.9 2.2 1.6 1.7 1.9-1.6.3-3 1.3-4.7 5.2-9.2 5.8-6.6 6.6-8.2 6.6-12.5 0-3.6-.2-4.1-1.9-5.8-1.2-1.2-3.7-2.3-4.2-1.8-.2.2-.5.2-1-.1-1-.5-4.6-1.2-6.3-1.2-.8 0-2.4-.2-3.6-.5-1.2-.3-3.6-.6-5.3-.8-2.2-.2-3.3-.4-3.9-.8-1.1-.6-1.7-.6-1.7.1m-194.5 32c-1 .6-3.2 2.1-4.9 3.4-1.7 1.3-4.3 3.2-5.8 4.4-1.6 1.1-4.1 3.1-5.6 4.4-1.5 1.3-3.2 2.6-3.6 3-4.4 3.7-6.2 5.2-7.8 6.7-1 1-2.4 2.2-3.1 2.8-6 5.3-12.6 11.7-14.7 14.3-2.1 2.6-6.9 9.1-6.9 9.5 0 .1-1 1.5-2.2 3.1-2.3 3.2-5 7.6-6.4 10.4-1.1 2.1-.7 1.8 1.1-1.1 5.5-8.7 18.5-25.3 19.3-24.5.2.2-1.6 2.7-4 5.6-2.4 2.9-4.5 6-7.5 10.8-1.5 2.3-2.9 4.6-3.2 5.1-1.3 2 .4-.1 2.3-2.7 1.1-1.6 3-4.1 4.1-5.5 1.2-1.5 2.6-3.3 3.2-4 .6-.7 3-3.5 5.3-6 2.4-2.6 5-5.4 5.8-6.4.8-1 2.5-2.9 3.7-4.3 1.2-1.4 4-4.2 6.1-6.1 2.1-1.9 5.9-5.5 8.4-7.9 5.7-5.6 7.7-7.3 13.5-11.8 5.7-4.7 6-5 2.9-3.2M370.3 159c-1.2.4-1.4 1.4-.3 1.3 1.7-.1 2.5.7 3.2 3.4.2.7.8 2.5 1.4 4.1 1.2 3.1 1.2 3.2 0 3.7-.9.4-1.4 1.6-.8 2.3.5.6 1.7.5 2.6-.3.4-.4.9-.7 1.1-.7 1.7 0 2.2-2 1-4-.5-.8-1.7-3.1-2.7-5.1-2.5-4.5-3.5-5.4-5.5-4.7m-13 2.4c-.7.5-.3 1.2.7 1.2.4 0 .8.1.8.2s.2 1.9.4 3.9c.2 2.1.4 4.5.4 5.3.1 3.2.7 3.7 2.9 2.3 1.7-1.1 1.7-1.5.4-8.6-.7-4-3.3-5.9-5.6-4.3m-13 2c-1.2.8-1.3 1.2-.7 2.5.3.6 1.3 3.3 2.1 6.1.9 2.7 2 5.9 2.4 7.1 2 5.1 1.8 5.3-2.2 2.3-3.1-2.3-3.6-1-.7 2 1.7 1.8 7.1 4.2 7.8 3.4.5-.5.8-6.8.5-9-.3-2.5-1.9-7.5-3.3-10.7-.5-1.1-.9-2.1-.9-2.3-.1-1.6-3.5-2.4-5-1.4m-137.4 4.2c1.7 6.7-.5 11.1-7.4 15-6.4 3.6-11.5 5.6-17.2 6.6-2.1.4-6.3 1.2-9.4 1.9-6.9 1.4-8.7 1.8-8.8 1.7-.1-.1 5.8-1.7 9.8-2.7 1.6-.4 4.4-1.3 6.3-2 1.9-.7 4.4-1.7 5.5-2.2 7.4-2.9 16.7-9 18.7-12.4.9-1.5 1.5-3.9 1.5-6.3-.1-2.5.3-2.3 1 .4m113 11.2c-2.8 1.4-3.5 4-1 3.8 1.1-.1 1.5-.1 1.7.2.1.2.7.6 1.4 1 1.8.9 6.2 5.4 6.2 6.3 0 .4-2.1 2.9-2.9 3.4-.7.4-.8.4-2.2-.1-2.9-1-2.4 1 .6 2.6 2.4 1.2 5.6-.5 8.3-4.5 2.1-3.1 1.7-4.3-3.7-9.6-3.7-3.7-5.6-4.4-8.4-3.1m37.3 4c-.3.3-.2.6.4 1.7.4.7.7 1.5.7 1.8s.5 1.4 1.1 2.6c1.3 2.7 1.3 2.8-.1 4.6-2.4 3-1.1 4.2 2.7 2.4 3.1-1.5 3.5-2.9 1.5-5.8-.7-1-1.5-2.4-1.9-3.1-1.9-3.8-3.5-5.3-4.4-4.2m-125.1 5.6c-.8.8-4.9 3-7.1 3.9-2.6 1-3.7 1.6-3 1.6.5 0 5.8-.5 6.7-.7 1.4-.2.4.3-2.2 1.2l-2.1.7 4.1.2c6.6.3 9.1-.1 13.5-2.2 2.9-1.4 3.2-1.4 1.3 0-5.3 4-10.2 5.1-19.7 4.6-18.3-1-29.7.3-43.7 5.1-8 2.7-13.1 4.7-18.5 7.5-2.5 1.3-2.2 1 .8-.9 8.3-5.1 22.3-10.8 30.7-12.6 1.5-.3 3.2-.7 3.7-1 1.4-.6 4.7-1.4 7.9-1.9 1.6-.2 3.4-.5 4-.7.6-.1 3.2-.5 5.7-.8 5.1-.6 13.4-2.5 16.1-3.6 1.8-.6 2-.6 1.8-.4m32 1.7c-1.9 1.5-1.8 1.3-1 3.3 1 2.6.8 5-.4 8.3l-1 2.7-3.8 3.7c-3.6 3.6-5.7 5.3-8.3 6.9-1.4.8-8.6 4.1-9.7 4.4-.4.1-.9.3-1 .4-.3.2-5.3 1.2-7.3 1.5-.8.1-1.5.3-1.6.4-.2.3.9.2 6-.7 11.1-1.9 17.5-4.6 23.2-9.8 2.6-2.4 2.7-2.2.6 1-1.6 2.5-5.6 5.3-11.1 7.7-4 1.8-14.6 4.1-21.5 4.7-5 .4-6.2.7-20.4 3.9-12.2 2.7-19.7 5.4-24 8.3-2.7 1.9-3.3 2.4-5.6 4.6-6.1 5.7-11.3 11.6-11.3 12.6 0 .1-.8 1.4-1.8 2.8-1.5 2.1-1.7 2.6-1.4 2.9.4.5.7.3 2.7-2.3.9-1.1 1.8-2.2 2.1-2.4.3-.2 1.1-.9 1.8-1.6.7-.6 2.1-1.9 3.1-2.8 1-.9 1.9-1.7 2-1.7 1-1.1 8.1-5.5 11.2-7 1.4-.7 3.8-1.8 5.4-2.6 5.6-2.7 13.5-5.2 19.2-6 .7-.1 2.6-.5 4.4-.9 7.4-1.7 11.5-2.3 21.7-2.7 14.4-.6 18.2.4 24.4 6.9 4.2 4.4 3.9 4.6-1 .6-2.3-1.9-6.3-4-7.5-4-.4 0-1.4-.2-2.1-.5-1.5-.5-2.8-.3-2.8.6 0 .4.5.7 2.6 1.4 2.5.8 5.3 2.2 5.3 2.6 0 .3-.1.3-2-.5-4.1-1.5-4.5-1.4-1.1.3 3.2 1.7 5.1 3.1 8.1 6 2.7 2.6 2.3 2.5-2.5-.8-3.5-2.4-9.5-5.1-12.4-5.6-8.1-1.5-13.9-1.7-23.2-1-2.6.2-5.5.4-6.4.4-2.9 0-7.9 1.2-11.6 2.9-1.6.7-1 .7 3.5 0 9.1-1.4 22.7-.8 30.7 1.4 8.2 2.2 20 8.3 23.3 12 4.9 5.6 9.1 9.8 10.2 10 1 .2 3.5 2.2 8.8 7.2.7.7 2.2 1.9 3.3 2.6s3.3 2.4 5 3.6c5.7 4.3 11.2 7.2 20.6 11 2.1.9 4.9 2.2 6.3 3 9.2 5.6 26.9 7.7 36.4 4.5 15-5.1 17.2-8 13-16.9-1.3-2.8-2.7-8.4-2.3-9.1.1-.2.2-.1.3.3.3 1 .7.3.7-1 0-1.2 1-7.8 1-7.1.1 1.1.9.1 1.5-1.9 1.8-5.9 2-13 .4-13.4-.3-.1-.7-.4-.9-.8-.5-.8-1.2-.8-2.5-.1-.7.3-1.1.4-1.3.3-.1-.1-.5-.3-.7-.3-.3 0-.5-.3-.6-.7-.5-2-1-1.2-1.2 1.9l-.1 1.1 1.3-.1c1.5-.1 3.6.6 3.6 1.2 0 1.1-2.5 2.2-4 1.8-1.3-.4-1.3-.4-1.3.2 0 .4.3.7.9.9 1.6.7 1.9 1.6.9 2.9-.4.5-.5.5-1.9.2-.9-.2-1.7-.3-1.8-.3-.3.1 0-3.3.5-6.5.5-2.8.3-6.8-.3-7.8-.9-1.4-4.6-.7-6.7 1.2-2.6 2.3-2.4 3.6.3 1.8 1.7-1.1 2.8-1.2 3.8-.3l.7.6v6.8c0 6.7 0 7.4.8 6.3.5-.7 1-.4 1 .6 0 1.5-1.7 1.7-3.5.4-3.8-2.7-4.1-2.9-5.1-2.7-1.9.3-2.3 1.2-.5 1.2 2.3 0 5.6 2.9 4.7 4.2-.8 1.2-3.8.7-3.7-.6 0-.6-.2-.9-1.6-1.6-3.2-1.7-3.3-1.7-4.2-1.4-1.9.7-2 1.3-.2 1.2 3.9-.1 6.5 4.1 3.1 4.8-1.1.2-2.2-.1-2.2-.6s-1.3-1.5-3.3-2.5c-2.6-1.4-3-1-1 .9 1.4 1.3 1.6 1.9.9 2.8l-.5.6-1.7-.8c-.9-.5-2-1.2-2.5-1.7-.7-.7-.8-.8-1-.4-.1.3.1.8.9 1.6 1.6 1.7 1.6 2.7.3 6-.6 1.4-1 2.8-1 3 0 .2-.3 1-.6 1.7s-1.2 2.7-1.8 4.4c-.6 1.7-1.2 3.1-1.3 3.1-.3 0 .9-6.7 1.7-9.9.4-1.7.9-3.9 1.1-5 .5-3.3-.3-6.6-1.2-4.8-.1.3-.3.7-.5.9-1 2.1-8.6 2.7-10.1.9-.3-.3-.3-.3-.3.4 0 .6.3 1.1 1.4 2l1.4 1.3-1.5 4.1c-1.8 4.7-3.6 9-4 9-.1 0-.2-.2-.1-.5s0-.5-.1-.5-.2-.5-.2-1v-1.5c0-.3.2-.7.4-.9.3-.3.4-1.5.5-5.1.1-2.6.3-4.8.4-4.9.3-.3.3-2 0-2.6-.2-.4-.3-.4-.5 0-.1.2-.4.6-.5.8-.4.6-2.1.8-3.8.6-2-.3-2.1-.3-2.1 1.6 0 2.3-1.4 6.1-3.1 8.8-1.8 2.8-2.5 3.3-1.6 1.1.7-1.7 2.3-8.6 2.4-10.6l.1-2-1.1.4c-2.6.9-7.4-.4-9.2-2.5-.9-1.1-1.4-.3-1.3 2.3.1 2-1.1 5-2.8 7.2-.8 1-1.1.8-.6-.5.4-1 .9-3.8 1.5-8.2.2-1.4.4-2.6.6-2.8.9-1-.2-1.5-1.5-.7-.7.4-.9.5-1.1.2-.3-.5-2.6-1.5-3.3-1.5-.3 0-.8-.1-1-.3-.8-.5-1.2 0-2.2 2.8-1 2.9-2 5-2.4 5-.3 0-.3.1.1-1.4.2-.6.5-2.3.7-3.6s.4-2.7.4-3c.1-.4-.2-.9-1.5-2-.9-.8-3-2.6-4.5-4-1.6-1.5-2.9-2.6-3-2.6-.1 0-.6 1.3-1.1 2.9-.5 1.6-1.2 3.2-1.5 3.5l-.5.6.2-.8c.1-.4.5-2.2.8-3.9.3-1.7.7-3.3.8-3.5.1-.3-.1-.8-.7-1.3-2.4-2.6-5.5-5.7-7.2-7.3-1.4-1.2-2.4-2.5-3.6-4.5-4.2-6.8-4.1-9.6.6-19.2 3.3-6.5 4.3-11.4 3.6-17.1-.4-3.2-1-4.8-2.3-6.2-1.8-1.4-2.1-1.4-4.1.2m86.1.2c-.3.7-.2 2.1.2 3.1.3.8.3 1.2 0 2.5-.2.9-.4 2.1-.5 2.8-.1.6-.3 1.2-.6 1.3-1.6.6-.8 2.2 1 2.2 2.6 0 5.2-2.3 5-4.5-.1-1.2-1.8-4.5-3.5-7-.6-.9-1.4-1.1-1.6-.4m-12.4 26c-2 1-2.3 2.7-.8 4.7 1.7 2.3 2.3 2.4 5.7 1.3 3.5-1.2 4.6-2.5 3.1-4-.4-.4-1.1-1.1-1.6-1.5-1.1-1.1-4.6-1.4-6.4-.5m4.5 1.8c0 .3.2.6.4.7.5.2.5.7 0 .9-.4.2-3.6-.7-3.6-1 0-.2 2.2-.9 2.9-1 .1-.1.3.1.3.4m6.2 4c-2.6.4-3.4.7-3.9 1.3-2.1 2.7 2.4 6.5 5.7 4.8.7-.4 1.8-.8 2.3-1 3.9-1.5.3-5.9-4.1-5.1m-167.6 1.5c-14.8 4.6-31.1 15.4-40 26.6-4 5-1.9 1.1 2.4-4.5 3.9-5.1 10.9-11.4 18.2-16.4 1.9-1.3 1.8-1.4-.3-.5-9.4 3.8-18.7 11.3-23.8 19.2-3.8 5.9-6.3 11.4-7.3 15.7-1.7 8.2-.7 16.1 3.1 23.4 2.1 4 4.4 6.5 2.9 3-4.5-10-5.2-21.8-1.8-28.6 1.3-2.6 1.3-.9.1 3.7-2.4 9 1.5 22.5 8.7 30.1 4.6 4.8 5.9 5.7 10.2 6.8 3.8 1 7.1 2.1 9.4 3.1 1 .4 2.1.9 2.6.9.5.1 1.4.5 2.1 1 .7.4 1.4.8 1.6.8.5 0 5.2 2.5 7 3.7 7.2 4.9 7 12.8-.3 17.6-1.5 1-.6 1.1 1.5.2 1.5-.7 5.5-4.8 6.1-6.2 2.1-5 .1-12-4.4-15.5-3.5-2.7-12.5-6.7-17.4-7.6-2.7-.5-10.2-5.4-13.7-8.9-4.4-4.4-6.4-11.7-5.9-22 .2-3.9 0-4-.9-.5-2.6 10.2.4 21.2 7.8 28.1 2.9 2.7 2.7 3-.6.8-4-2.6-5.6-4.8-9-12.5-3.9-8.8-2-19.8 5.2-30.8 7.1-10.7 21.9-23.1 35.1-29.2 1.6-.8 3.4-1.6 3.9-1.8 1.7-.9.6-.7-2.5.3m169.1.1c0 .3.2.5.4.5.6 0 .8.6.4.8-.2.1-.6.2-1 .2s-.7.3-1 .9c-.5 1.2-1 1.2-.8 0 .2-.8.1-.9-.6-1.1l-.7-.2 1-.5c.6-.3 1.2-.7 1.4-.9.6-.3.9-.3.9.3m8.7 1.1c-.1.1-.1.3.1.3.6 0 2.8 2.1 3.1 3 .4 1.3.4 1.3-1.6-.4-1.9-1.6-3-2.1-3.2-1.3-.3.8.5 2 2.3 3.4.9.7 1.8 1.4 1.9 1.5.1.1.3 2.8.3 5.9.1 5.6.2 6.4 1 6.4.5 0 .9-1.1 1.4-4.8 1.5-9.9 1.5-10.3-.3-12.2-1.3-1.6-4.5-2.7-5-1.8m-79.6 5c-2.4.4-2.2 3.2.4 5 1.1.8 1.4 1.1 1.3 1.5-.3.7-.1 3.1.3 3.5.6.6 1.2.1 1.9-1.7.4-1 .9-1.8 1.6-2.4 1.2-1 1.4-2.4.6-3.7-.7-1-4.8-2.5-6.1-2.2m7.7 5.6c-1.7.9-2.2 3.4-.6 3.7 1.1.2 3.6 1.5 3.7 1.9.1.2-.3 1.4-.7 2.8-.5 1.4-.9 2.9-.8 3.5 0 .6-.1 1.4-.3 1.8-.3.9.1 1.5 1 1.5.4 0 .7-.2.9-.7.1-.4.7-1.1 1.1-1.6 4.2-4.3 4.6-4.9 3.9-6.9-.1-.5-.3-1.3-.4-1.8-.3-2.6-5.4-5.4-7.8-4.2m42.9 6.2c-1.4.2-2.9.9-3.1 1.5-.1.3.1.3.8.1 2.8-.7 3.4 0 .9 1-3.2 1.3-4.5 2.7-4.8 5.4-.2 1.4.3 1.8.6.4.7-3.2 7.2-4.8 7.8-1.9.3 1.4-1.6 9-2.6 10.6-.6 1-.4 1.7.4 1.7 1 0 1.7-1.1 3.7-5.8 1.1-2.5 2.5-5.6 3.2-6.9 1.9-3.8 2-4.6.1-5.3-1.6-.5-5.5-1-7-.8m-22.6.5c-1.3.5-2.4 1.3-2.4 1.9 0 .1.6-.1 1.3-.4.8-.4 1.6-.6 2.2-.6 1.1.1 1.2.5.1.8-3.2.7-5.1 3.5-4.5 6.8.1.6.2 1.5.2 2 0 .9 0 .9.4-.4 1.4-5 1.7-5.7 2.5-6.3 2.5-1.8 5.3.4 5.7 4.5.3 2.5-2.2 9.6-3.5 10.1-.8.3-.2.4.8.1 1-.3 1.3-.7 3.8-7.4.5-1.4 1.1-2.8 1.3-3.1.2-.3.7-1.7 1.2-3l.9-2.5-.6-.8c-1.4-1.9-6.4-2.8-9.4-1.7m-97.1.7c-.4.1-2 .3-3.6.5-6.7.9-15.6 3.5-20.3 5.8-8.6 4.3-17.2 16-18.3 24.9-.4 2.9 0 3.5.6 1.2 1.9-6.9 5.7-13.2 11.1-18.6 3.4-3.4 5-4.4 2.4-1.6-8 8.9-11.4 15.5-11.6 22.8-.2 4.4 0 6.1 1.1 8.2.8 1.6 1.4 2.3.8 1-3.3-7.8-.2-17.6 8.3-26.3 2.8-2.8 6.4-5.9 10.1-8.5 3.3-2.3 15.7-7.7 20.8-9l1.9-.5H212c-.7 0-1.6.1-2 .1m156.2 6.8c.2 1.8-.8 10-1.2 10.4-.1.1-.1-.3 0-.9.3-2.3.8-10.2.6-11.2-.1-.7-.1-.9.1-.6.2.2.4 1.3.5 2.3m-2.6 3.1c.3.8.3 1.7 0 4.5-.2 1.9-.4 5-.5 6.8-.1 3.4-.4 4.3-.8 2.4-.3-1.5.3-15.1.7-14.9.2.2.4.7.6 1.2m-12 .2c0 .2.1.4.3.4.1 0 .3-.2.3-.4s-.1-.4-.3-.4c-.2 0-.3.2-.3.4m8.8 5.6c.3 1.9.2 7.2-.2 10.5-.3 2.8-.7 0-.7-5.9 0-3.2-.1-6.3-.2-6.8l-.2-.9.5.6c.3.3.6 1.3.8 2.5m-5 1.8c.1 1.1.3 2.9.5 4.1.5 3.8.6 7.8.3 8-.5.3-.9-1.8-1.1-6.8-.1-3.1-.4-5.5-.6-6.4-.6-1.9-.5-2.1.2-1.4.3.4.5 1.1.7 2.5m-131.6-.1c-1.2 1.3-2.2 3.2-2.7 5.5l-.4 1.9.1-2.1c.1-1.9.4-3.2 1.4-5.5.5-1.1-2-.6-3.2.7-5.3 5.5-2.4 16.4 5.4 20.1 2.9 1.4 3.1 1.3 1.6-.3-2.2-2.3-4.3-5.9-4-7 .1-.3.8.6 1.9 2.2 2.4 3.5 4.6 5.4 9.8 8.3 4 2.3 9.6 5.7 10.8 6.6.6.5 1.7 1.2 2.5 1.8 2.1 1.3 6.3 5.9 7.9 8.5 1.6 2.5 2.2 10.6 1 13l-.5.9.1-2.3c.3-6.1-3.5-13.9-7.8-16.1-1.1-.6-1-.4.8 2.1 3.4 4.5 4.6 9.5 3.7 15.7-.5 3.2-.8 3.4-.6.5.6-11.9-6.1-20-20.3-24.7-13.9-4.6-15.9-5.6-19.2-9.4-4.4-5-4.5-12.8-.4-16.7.4-.4.8-.9.8-1.2 0-2.2-6.1 2.3-8.2 5.9-5.9 10.4-2.3 21 9 26.7 2.8 1.4 4 1.9 4.4 1.7.5-.2.5-.2-.2-.5-5.8-2.4-9.6-6.3-11.5-11.9-.8-2.4-1.1-7.3-.4-8.6.2-.5.4-1.1.5-1.4 0-.3.2.3.4 1.4.8 4.3 3.9 10.1 6.6 12.5.3.3 1.5 1.4 2.6 2.4 2.3 2.2 3.7 3.2 6.1 4.4 1 .5 2.1 1.1 2.5 1.5.4.3 1.3.9 2 1.2 4.6 2.3 8.2 5.7 10.6 10.1.9 1.6.7 5.9-.4 8.9-.5 1.3-.9 2.7-1 3.1l-.1.7.7-.7c2-2 3.4-5.7 3.4-9.3 0-6.2-3.1-10.1-13.5-17.1-2.8-1.9-6.3-4.7-6.3-5.1 0-.1 1.3.6 3 1.6 1.6 1 3.9 2.3 5 2.8 7 3.3 12.5 8.4 13.9 12.8 2.4 7.5-.5 16.2-7.4 22.8-3.1 3-2.9 3.2 1 .7 8.3-5.3 12.4-12 12.8-21.4l.2-3.7.5 1.3c2.4 6.5-.7 16.7-7 23.2-4.4 4.5-12.8 8.4-25 11.4-3.7.9-4.1 1.4-1.2 1.5 2.7.1 7.8-1 12.8-2.6 2.2-.7 4.6-1.5 5.5-1.7 2.5-.6 3.7-1.3 9.5-5.1 1.4-.9 2.8-1.8 3.1-1.9 4.6-1.8 11.3-10.9 13.2-17.8 1.5-5.9.7-11-2.4-14-.9-.9-2-2.4-2.8-3.9-2.8-5.1-11-11.8-20.4-16.8-5.6-2.9-8-10.3-5.7-16.8 1-2.7.1-2.2-1.4.7-3.1 6.2-.1 14.1 7.7 20.2l.8.6-.8-.5c-8.6-5-12.6-14-9.3-21.1.7-2.1.1-2.4-1.5-.7m126.1 1.8c.1.5 0 2.2-.1 3.9-.2 2.8-.1 5 .3 8.6l.2 1.3-.5-.9c-1.3-2.4-2.2-11.3-1.2-12.3.2-.2.3-.8.3-1.4.1-1.3.7-.7 1 .8m-6.8 1.6c.1.1.1 1.3 0 2.5s-.3 3.5-.5 5.1c-.3 2.9-.8 6.7-.9 6.9-.9.9-1-8.3-.2-11.2l.9-3.3c.2-.7.4-1.1.4-.8 0 .3.1.7.3.8m-144.3 3c-2.7 2.2-5.9 6.7-7.8 10.6-3.6 7.6-1.8 16.4 5.2 24.8 1.7 2 1.4 2.1-1.9.6-1.4-.6-3.8-1.6-5.4-2.1-3-1.1-3.8-1.5-5.3-3-.5-.5-1.1-1-1.2-1-1 0-2.6-3-3.5-6.6-1.4-5.6-.7-11.4 1.9-15.9 1.6-2.9 1.6-4.1-.1-1.7-6.3 9.2-5.8 22.9 1.1 29 2 1.8 8.6 6.4 9.1 6.4.4 0 4.5 2.6 5.3 3.4 2.5 2.4 3.7 9.3 2.1 13.1-.7 1.8-5.8 5.9-8 6.5-.5.1-3 1.1-5.5 2.1-4.8 1.9-8.2 3-18.5 5.7-16.3 4.3-27.5 9.7-34.1 16.2-2.9 2.9-3.3 2.7-.6-.4 3.9-4.5 7.6-7.3 14.5-10.7 15-7.4 19.4-10.3 24-16.1 2.3-2.9 3.9-7 3.3-8.1-.3-.5-.6.1-.6 1.1 0 3-1.5 4.7-8.3 9.2-2.4 1.6-5.3 3.5-6.3 4.2-2.6 1.8-8.9 4.9-12.9 6.4-3.7 1.4-4.5 1.8-8.1 3.8-8.2 4.6-13.1 9-15.6 13.9-1.7 3.4-1.6 3.3-1.3.9.6-5.4 3.3-9.8 8.5-13.7 4.5-3.4 5.3-3.9 10.4-6.3 2.6-1.2 3.2-1.7 2.6-2.4-.3-.3-.7-.2-2.8.8-1.3.6-3.1 1.4-3.9 1.6-3.1 1-9.7 5.4-12.7 8.5-15.1 15.4-6.5 36 16.1 38.6l5.1.7c3.7.6 8.7.2 13.1-1.1l3.2-.9-3.9-.2c-13.3-.6-14.1-.7-19.3-3.4-5.7-3-9.6-9.9-8.4-14.9l.4-1.5v1.4c.1 4.6 2.7 9.1 6.8 12 1.9 1.3 2.2 1.1.4-.3-5.8-4.3-3.7-16.1 3.9-21.2 1.2-.8 2.3-1.7 2.4-2 .3-.5 6.9-4 8.8-4.7.5-.2 3.9-1.2 6.5-2 .8-.2 1.7-.5 2-.7.3-.1 1.6-.6 2.8-.9l4.5-1.5c1.2-.4 4-1.2 6.1-1.7s4.4-1.1 5.1-1.3c3.1-1 7.7-2.3 10.2-2.9 11.5-2.8 18.2-7 21.9-14 1.2-2.2 1.3-1.5.2 1.1-1.4 3.2-4 6.4-7.3 8.7-1.9 1.3-1.4 1.3 1.6-.2 7.6-3.8 10.2-6.9 11.1-13.3.9-6.1-.8-8.9-7.3-13.2-11.9-7.7-16.8-14.7-16.5-23.6.2-5.3.7-5 1.2.8.1 1.2.3 2.6.6 3.2.2.6.5 1.3.5 1.6.1.3.4.8.7 1.2.3.4 1.1 1.6 1.8 2.7 1.8 3 3.3 4.2 8.7 6.9 2.6 1.3 5.9 3.1 7.5 4 2.7 1.6 5.5 2.9 5.2 2.4-.2-.2-1.8-1.2-8.2-4.9-6.2-3.5-7.9-5-10.1-8.4l-1.2-1.9 1.8 1.7c2.9 2.7 4.5 3.8 11.7 7.4 7.9 4 8.5 4.4 10.4 6.7 6.6 8.2 5.1 17.3-3.8 23.1-1.5 1-2.6 1.5-5.1 2.5-.9.4-1 1-.1.7.3-.1 2-.9 3.8-1.8 8.7-4.5 9.9-5.8 10.9-11.7.5-2.7.6-2.8.8-.7.3 2.7-.4 6-1.7 8.1l-.8 1.3 1.3-1.3c3.9-3.8 5.5-12.6 3.1-17.7-.8-1.6-4-5.2-6-6.7-.7-.5-1.6-1.3-1.9-1.6-.7-.7-2.7-1.7-4.3-2.2-.6-.2-1.8-.7-2.8-1.1-1-.4-2.3-1-3-1.3-8.8-3.5-12.3-6.6-16.2-14.4-2.6-5.2-1.7-11 2.5-16.1 2.3-2.4 2.1-2.5-.4-.3M136 303c-.6.4-1.3.8-1.6.8-.3 0-1.4.4-2.4.9-3.8 1.9-6.4 2.8-12.5 4.6-3.1.9-11 3.9-14.4 5.6-1.9.9-4.1 2-4.9 2.4-.8.4-1.8.9-2.3 1.2-.4.3-1.3.8-2 1.1-2.8 1.3-6.3 4.1-8.3 6.8-2.9 3.8-4 5.2-4 5.4 0 .1-.2.4-.4.6-.6.5-2.4 4.4-3.4 7.3-1.6 4.9-1.2 11.6 1 16.3 1.2 2.6 1.3 2.4.8-1-.6-4.1-.4-10.4.4-12.8 1.7-4.8 5.8-11.2 9-13.8 4-3.3 5.9-3.7 3-.6-.8.8-1.2 1.3-.9 1.1.8-.6.2.7-2 4.5-1.2 2-1.3 2.7-.3 1.3 3.4-4.5 11.1-10.3 18.5-14 3.2-1.6 5.4-2 2.7-.5-12.4 6.9-21.3 15.4-23.9 22.7-.2.7-.8 2-1.2 2.9-2.4 5.1-1.9 14.7 1 19.5 2.4 4 3 4.2 1.3.5-2.4-5.3-2.7-9.2-1.5-15 .5-2.6 1.3-4.8 1-2.8-1.1 6.4-1.2 8.8-.1 12.9 1 3.8 4.2 9.7 6 10.9.8.5.9.6-1.1-2.5-7.1-10.9-2.5-26.5 10.6-36.2 8.8-6.5 12.6-8.2 27.5-11.8 5.6-1.4 7.1-1.9 8.9-3 .6-.4 2.4-1.3 4-2.2 3.2-1.7 5.4-3.3 6.1-4.3.7-1.1.3-1-1.2.2-1.5 1.1-6.9 4-7.6 4-.6 0-.2-.4 1.9-2 2.2-1.6 5.8-4.9 5.8-5.3 0-.6-1.1-.2-2.7.9-5.8 4-13.5 7.4-24.2 10.7-2.3.7-5.7 1.8-7.5 2.4-1.9.6-3.4 1.1-3.4 1 0-.3 5-2.5 7.6-3.4 5.6-2 13.4-5.4 17.2-7.5 2.5-1.4 8.4-5.3 8.6-5.7.1-.2-2.4-1.4-3-1.4-.1 0-1.9 1.2-4 2.6-5.1 3.4-16.9 9.2-17.5 8.5-.1-.1 2.1-1.3 4.7-2.8 6.7-3.8 14.2-9.3 13.4-9.8-.3-.2-.3-.4-.1-.7.3-1.5-1-1.7-2.6-.5m60 3.2c4.9 1.6 10.2 6.1 11.9 10.1 2.9 6.8-3.8 14.5-15.6 18-1.8.5-4.1 1.3-5.3 1.7-1.1.4-2.2.8-2.3.8-.9 0 5.5-3.3 7.8-4 3.8-1.2 8.7-4.5 9.7-6.4.3-.6.6-1.1.8-1.2.6-.4 1.4-2.4 1.6-4.3.7-5.6-3.4-11.2-10.7-14.7-3-1.4-2.2-1.4 2.1 0m-38 8.3c-.8 2.3-2.5 4.5-4.4 5.9-.8.6-2.7 2-4.1 3-3.8 2.9-5.5 3.9-11.7 7.1-3.1 1.6-5.7 2.9-5.7 2.9 0 .1 8.6-1.3 9.4-1.6 4-1.1 12.2-4.7 15.1-6.5 4.5-2.9 8.8-9.4 6.9-10.4-.7-.4-.5-.5-1.4 1.3-1.3 2.6-7.4 7.9-11.7 10.1-3.3 1.7-3.4 1.4-.4-.8 6.2-4.4 11.6-11.1 9.9-12.3-.9-.7-1.2-.5-1.9 1.3m-14.7 6.6c-1 .4-3.1 1.4-4.7 2.2-1.6.8-4.7 2.2-6.9 3-2.2.9-5.3 2.1-6.9 2.8-1.6.7-4.4 1.8-6.1 2.5-12.8 5.1-23.2 14.3-24.7 22-1 5 1.3 13.8 4.9 18.5 1.9 2.6 5.2 5.2 9.2 7.5l1.3.8-2.2-2.2c-8.3-8.3-11.5-17.9-8.5-25.6 1-2.5 1.8-3.5 1-1.1-.8 2.3-.8 8.5 0 11.4 1.6 6 5.9 10.9 13.9 16.2 1.1.7 1.6 1 1.1.6-8.5-6.8-11.6-12.1-11.6-20.1 0-12.6 5.6-18.5 28.7-29.8 5.6-2.7 10.4-5.6 13.3-8 1.7-1.7 1-2-1.8-.7m145.6 12.5c-1 .1-2.4.4-3.1.5-.7.2-1.8.3-2.3.3-.5 0-1.8.2-2.9.5-1 .3-3.3.8-5 1.2-1.7.4-3.8.9-4.5 1.1-2.6.8-6.7 2-9.7 2.8-1.2.3-2.7.8-3.3 1-2.3.8-4.9 1.7-5.7 2.1-3.5 1.5-7.6 3.1-12.1 4.6-3.4 1.1-6.4 2.4-11.6 4.9-4.8 2.3-12.2 4.7-18.8 6.1-2.1.5-5.3 1.2-7.1 1.6-8.9 2.3-24.1 2.3-30.6.1-2.3-.8-2.5-.7-.8.2 3.7 2 8.3 3 14.5 3.3 2.5.1 5.4.3 6.5.4 3.1.4 6.3 0 20-2.1 1.8-.3 3.2-.5 3.3-.4.1.1-5.2 1.9-8.6 2.9-1.8.5-4.5 1.5-6 2.1-3.4 1.5-7.7 2.7-10.5 3.1-3.3.4-11.7.9-14.2.7-2.9-.2-2 .1 3 1 3.7.7 12.6 1 15.3.6 3.3-.5-5.7 3-10.6 4.3-13.3 3.2-29.8-1.5-34.2-9.7l-.5-.9-.1 1c-.4 4.4 4.5 8.6 13.9 11.9 6.6 2.3 19.7 2.6 25.8.6 1.2-.4 4.1-1.2 6.3-1.7 5.2-1.3 10.1-2.8 12.5-3.9.6-.3 2-.9 3.1-1.3 2.9-1.3 7.8-3.7 13.2-6.7 2.6-1.5 5-2.6 5.3-2.6.3 0 1.5-.6 2.8-1.4 2.7-1.6 7.4-3.8 12.7-6 2.1-.8 4.8-2 6.2-2.6 3.2-1.3 6.2-2.4 11.2-3.9 2.2-.7 5.5-1.7 7.3-2.3 6.5-2 13.4-2.8 21.6-2.5l4.4.2 2.7 1.2c5.2 2.3 8.2 6 8.6 10.5.1 1.7.2 2 .7 2 1.8 0 1-6.7-1.2-9.7-1.2-1.7 1.7.1 3.5 2.1 2.2 2.5 2.3 4.8.5 8.6-1.2 2.5-.3 2.7 1.4.4 4.1-5.6 1.1-13.3-6.4-16.4-1.4-.6-2.9-1.4-3.3-1.7l-.7-.5.9.2c.5.1 1.7.3 2.6.4 7.6 1.1 12.7 5.3 13.8 11.2.3 1.3.2 1.7-.1 2.1-.2.3-.6 1-.7 1.5-2.4 7.7-14.4 12.5-34.3 13.6-6.1.3-10.2 2-13.6 5.3-2.9 2.9-3.4 4.4-2.1 7.2.7 1.5 1.5 2.4 1 1.1-.8-2.2 0-5 2-6.7 3.3-2.9 4.6-3.3 15.1-4.2 11-1 9.9-.7 18.9-3.8 11.3-3.9 17.7-12.4 15.8-20.8-.3-1.1-.3-1.1.3-.8 1.8 1.2 1.7 7.5-.2 11.6-.9 1.9-.8 1.9 1.2-.3 1.9-2.1 4.1-6.2 4.1-7.5 0-3.4-3.4-8-7-9.4-1-.4-2.7-1.1-3.6-1.5-4.7-2.2-15.6-3.8-21.9-3.2-1.8.2-5 .4-7.1.6-7 .4-20 4-29.1 8-4 1.7-4 1.3 0-.8 3.9-2.1 18.8-7.1 24-8.1 4.9-1 7.1-1.2 14.3-1.4 5.2-.2 6.2-.2 5.1-.4-.8-.1-2.2-.5-3.1-.8-2.5-.8-6.1-1.1-8.8-.7m-95.4 8.1c-.3.2-.6.7-.6 1 0 .8 2.6 5.5 3.7 6.7 1 1.1 1 1.2-.1.7a17.6 17.6 0 0 1-7.6-6.3c-.9-1.5-1.7-1.7-1.8-.4-.4 4.2 11.6 13.5 15.1 11.7.4-.2 1.4-.6 2.3-.8.9-.2 1.8-.5 2-.6.2-.1-1-.8-2.6-1.6-2.7-1.4-5.8-3.6-4.4-3.1.3.1 1.3.5 2.3.8 5.1 1.8 14.3 2.9 14.3 1.8 0-.5-2.8-1.2-8-2-4.7-.7-7.8-2.3-11.1-5.8-2.6-2.7-2.6-2.7-3.5-2.1m-13.5 3.6c-2.7 2.9 0 11 3.8 11.3 1.4.1 1.5.1-.2-1.5-1.5-1.6-3.2-4.6-3.2-5.8 0-.8 0-.8.8.6 2.3 4.1 6.3 6.8 9.2 6.3l1-.2-1.5-.5c-4-1.3-7.2-4.7-7.8-8.4-.3-2.4-1-3-2.1-1.8m108.4 3.3c-.7.2-1.5.5-1.9.6-.4.2-1.2.2-1.7.2-2.4-.3-14.8 3.4-22.1 6.7-.9.4-1.7.7-1.8.7-.1 0-2 .9-4.2 1.9-7.4 3.6-11.8 5.6-13.3 6.1-3 1-7.2 2.7-10.6 4.3-.9.4-2.2 1-2.9 1.3-1.3.6-5.7 2.8-14.5 7.3a62.5 62.5 0 0 1-5.9 2.7c-1.1.4-4.9 2-8.5 3.5-7.3 3.1-11.6 4.6-14.8 5.2-1.2.2-3.8.8-5.7 1.2a74 74 0 0 1-16.5 1.9c-2.8 0-6.8.2-9 .4-11.5 1.1-22.8.4-30.1-1.9-.6-.2-.6.3.1.7.3.2 1.6.5 2.9.8 1.3.3 3.5.8 5 1.2 6.6 1.6 12 1.9 26.3 1.3 3.2-.1 5.7-.1 5.6-.1-.1.1-6.7.9-13.5 1.5-6.9.7-13.4.3-21.1-1.2-10.2-1.9-14.9-3.5-21.6-7.5-3.3-1.9-3.4-1.4-.1.7 6.4 4.2 12.7 6.8 20.9 8.9 12.9 3.3 34.3 2.8 43.8-1 .9-.4 2.4-.8 3.3-.9 4.3-.7 13.4-3.4 22.3-6.8 1.7-.6 6.1-2.3 9.9-3.7 3.7-1.4 8.1-3.2 9.7-4 1.6-.8 3.5-1.7 4.3-2 .7-.3 2.8-1.3 4.7-2.2 1.8-.9 4.1-2 5.1-2.4 2.3-1 11-4.6 12.4-5 .6-.2 1.3-.4 1.6-.6 4-1.7 5.4-2.4 7.5-3.3 1.3-.6 3.5-1.7 4.9-2.3 1.4-.7 3.2-1.5 4-1.8.8-.3 1.7-.7 2-.8 4.7-2 11.7-4.4 16-5.5 2.1-.5 4.2-1.1 4.8-1.3 2.2-.9 9.6-.5 11.2.6 4.4 3 2.4 8.9-3.5 10.2-2.8.6-3 1.9-.3 1.7 3-.3 6.9-2.8 8.5-5.5 3.6-6.4-4.6-14-13.2-11.8m61.8-.1c-3.8.7-13.7 5.6-18.9 9.3-1.1.8-6.3 5-6.9 5.6-.2.2-1.2 1-2.3 1.9l-2 1.6c-.1.1-.7.6-1.3 1.1-.7.5-1.7 1.4-2.3 1.9-.6.5-1.4 1.2-1.9 1.4-.4.2-1.5.9-2.3 1.5-3.9 3-6.8 4.6-8.9 5.2-1.2.3-3.3.9-4.8 1.3-5.3 1.6-14.1 1.3-16.1-.6l-.6-.6.2.7c1 3.5 5.1 5.2 10.4 4.5 2.5-.4 3.4-.2 2.4.3-1.3.7-9.8 2.2-12.4 2.2-2 0-2.9.3-2.5.7.1.1 2.6.2 5.7.3l5.6.2 2.8-.8c1.7-.5 4.9-1.9 8.1-3.5 2.9-1.4 5.7-2.7 6-2.9.8-.3 8.2-5.8 9.5-7.1.5-.5 1.6-1.4 2.4-2 1.4-1 8-6 10.5-7.9 7.1-5.4 18.1-10.5 22.8-10.5 2.3 0 2.3-.2.3-.5-1.3-.2-3.2-.1-6.6.4l-1.2.2 1.4-.7c3.7-1.8 8.5-1.7 12.9.3 1.1.5 2.8 1.3 3.8 1.7l1.9.8-1.9-1.8c-3.9-3.8-8.5-5.1-13.8-4.2m3.1 7.3c-9.9 1-17.6 5.7-32.7 19.8-1 1-.9 1 .4.1.4-.2 2-1.3 3.6-2.3 1.6-1 4.5-2.8 6.3-4 10.8-6.9 19.6-9.3 27.7-7.5 3.4.7 3.6.8 9.5 4.8 7.9 5.3 13.5 6.2 17.9 2.9.7-.5 2.4-1.7 3.8-2.6 1.4-.9 3.6-2.5 4.9-3.7 3-2.6 4.2-3.3 6.8-4 2.2-.6 2.8-1.3 1.1-1.4-1.3-.1-6.1 1.7-8.1 3-.9.6-2.4 1.5-3.2 2-.9.5-2.5 1.5-3.6 2.3-4 2.7-12.9 3.6-15.2 1.6-.8-.8-7.6-4.4-8.1-4.4-.2 0-.9-.4-1.5-1-1.5-1.3-3.9-2.3-6.9-3.1-1-.2-1.1-.3-.7-.6 1.4-.8 5.2.7 13.9 5.6 4.1 2.3 10.6 3.2 13.7 1.9 1.6-.7.7-.9-2.7-.7-3.7.2-6.1-.1-7.4-1.1-.5-.3-2-1.1-3.4-1.8s-3.2-1.8-3.9-2.4c-1.8-1.5-3.9-2.7-6.4-3.3-2.4-.5-2.5-.5-5.8-.1m-62.6 1.2c-.5.1-.8.3-1 .7-.4 1-1.9 1.9-4.8 2.8-3.1.9-3.3 1-2.6 1.5.9.7 7.2 0 9.6-1 3.6-1.5 2.6-4.5-1.2-4m-21.9 7.8c-4 1.4-5 1.9-5.6 2.4-.3.3-1.2.9-1.9 1.4-5.1 3.4-7.3 6.9-7.4 11.8-.1 6.6 4.3 11.7 10.8 12.4.9.1 2.3.3 3.1.6 3.6 1 17.9.7 22-.4 4.4-1.2 4.4-1.6.1-.8-12 2.2-26.5-1.8-29.5-8.1-1.2-2.5-.6-6.8 1.2-9.7 1.3-2 1.2-2.1-.2-.6-1.5 1.6-2.2 2.8-3.1 5.3l-.6 1.7-.2-1.5c-.6-4.7 5.9-11.5 13.7-14.3.9-.3 1.7-.6 1.7-.7 0-.5-2.3-.2-4.1.5"/></svg>