<?xml version="1.0" encoding="utf-8"?>
<!-- Generator: Adobe Illustrator 22.1.0, SVG Export Plug-In . SVG Version: 6.00 Build 0)  -->
<svg version="1.1" id="svg" xmlns="http://www.w3.org/2000/svg" xmlns:xlink="http://www.w3.org/1999/xlink" x="0px" y="0px"
	 viewBox="0 0 410 410" style="enable-background:new 0 0 410 410;" xml:space="preserve">
<g id="svgg">
	<path id="path0" d="M257.5,25.5c-1.5,0.2-5.9,0.7-9.7,1.2c-3.8,0.4-9.1,1.2-11.7,1.8c-2.6,0.5-7,1.3-9.6,1.7
		c-8.5,1.4-10.6,2-17.6,5c-0.6,0.3-1.5,0.6-2,0.8c-5.2,2-12.5,6.3-19.2,11.3c-2,1.5-4.2,3.1-4.9,3.6c-5.6,3.7-14.5,11.9-19.7,18.3
		c-5.4,6.5-7.3,9.4-10.8,16.5c-2.8,5.7-3,6.3-0.7,2.6c5.9-9.8,14.4-21.1,15.8-21.1c0.3,0,0.1,0.3-1.5,2.2c-2.5,2.9-3.4,4.1-5.4,7.5
		c-1,1.7-2.9,4.8-4.3,7c-3.3,5.3-4.4,7.2-5.7,10.4c-0.6,1.5-2,4.3-3.1,6.4c-1.1,2.1-2.4,4.5-2.9,5.5c-0.5,1-1.2,2.3-1.6,2.9
		c-0.9,1.5-0.1,1,1-0.7c3-4.7,6.1-10.1,8.4-14.8c1.5-3,3.3-6.5,4-7.6c0.7-1.1,1.2-2.1,1.2-2.2c0-0.9,5.6-8.2,10.8-14.1
		c5.2-5.9,9.2-9.4,19-16.3c4.3-3.1,11.7-7.4,14.1-8.3c0.5-0.2-0.9,0.7-2,1.4c-2.7,1.4-4,2.3-7.2,4.7c-5.2,4-6.9,5.4-6.9,5.9
		c0,0.7,0.4,0.6,1.4-0.3c0.5-0.4,2.4-1.6,4.2-2.7c1.8-1.1,4.1-2.5,5.1-3.1c2.7-1.8,11.6-6.4,11.9-6.1c0.1,0.1-0.6,0.5-5.7,3.3
		c-5.8,3.1-9.4,5.7-18.7,13.1c-3.2,2.6-6.9,5.5-8.2,6.6c-3.7,2.9-10.4,10.1-13.2,14.2c-3.2,4.7-7.3,11.5-6.9,11.5
		c0.1,0,1.7-2.3,3.6-5.1c7.3-10.8,13.1-16.7,21.9-22.5c2.7-1.8,0.3,0.8-3.8,4c-4.9,3.9-14.2,14.6-16.1,18.5c-0.4,0.8-0.2,0.7,2-2.3
		c6.3-8.2,13.9-14.8,24.7-21.5c1.6-1,3.4-2.1,3.9-2.4c6-3.8,7.8-4.7,4-2c-14.3,10.4-22.5,18.9-28.9,30c-3,5.2-4,6.5-7.3,9.9
		c-3.2,3.3-3.1,3.4,0.3,0.2c4.1-3.9,5-5,12.8-15.3c4.4-5.9,5.1-6.7,9.4-10.7c4.8-4.5,9.9-8.3,5.9-4.4c-4.7,4.6-10.2,10.7-12.1,13.4
		c-9.4,13.2-16.8,20.9-27.6,28.8c-0.2,0.2,0.4-0.6,1.4-1.7c3.4-3.9,5.6-6.8,7.5-10c1-1.8,2.8-4.3,3.8-5.6c3-3.8,3.4-4.9,0.9-2.4
		c-0.9,0.9-3,3.5-4.7,5.7c-6,8-7.1,9.3-13.7,16.3c-2.3,2.4-4.9,5.1-5.7,6c-0.8,0.9-2,2.2-2.6,3c-1.1,1.5-1.9,2.4-8.4,9.2
		c-8.7,9.3-17.3,20-22,27.3c-1.2,1.9-2.8,4.2-3.6,5.3c-2.3,3-7,11.3-8.6,15.5c-0.5,1.2-0.9,2.2-2.3,5.3c-4.7,10.5-7.4,23.4-6.9,33.1
		c0.2,2.9,0.3,3.6,0.3,2.2c0-2.3,1.1-10.7,2-16.5c1.4-8.5,6.6-21.9,11.4-29.6c1-1.7,2.6-4.3,3.5-6c1.6-2.8,3.2-5.1,6.2-9
		c2.4-3.1,2-2.2-2,3.7c-0.9,1.3-2.3,3.7-3.1,5.3c-0.8,1.6-2.4,4.4-3.5,6.3c-3.6,6.3-6.2,12.3-8.9,20.6c-3.4,10.4-4.9,25.3-3.3,32.5
		l0.5,2.4l-0.1-6.1c-0.2-7.9,0-8.9,2.6-19.5c2.6-10.3,3.2-12.1,6.8-19.3c1.5-3,3.1-6.3,3.5-7.3c1.2-3,2.7-5.8,5.6-10.3
		c0.5-0.7,1.1-1.8,1.5-2.4c3-5.1,13-18.9,15.9-22c0.3-0.3,1.2-1.3,2-2.3c5.4-6.3,11.7-12.8,16.7-17c1.8-1.5,3.8-3.4,4.5-4.2
		c0.7-0.8,2.4-2.3,3.7-3.3c1.3-1,3.2-2.6,4.2-3.6c1-0.9,4-3.8,6.8-6.4c6.4-6,11.5-11.6,11-12.1c0,0-1.8,1.6-3.9,3.7
		c-4.1,3.9-9.1,8.3-12,10.5c-1,0.7-3.2,2.6-5.1,4.1c-1.8,1.5-3.6,3-3.9,3.2c-1.8,1.4,0.7-1,4-3.8c8.3-7.2,10.1-8.8,14.2-13
		c2.4-2.4,6.1-6.4,8.2-8.9c5-5.8,8-8.9,8.5-8.9c0.2,0,1.5-1.2,2.9-2.7c4.6-5,9.5-8.6,16.4-12c4.2-2.1,6.7-2.8,3.1-0.9
		c-3.6,1.9-8,4.7-10.5,6.7c-6.7,5.4-7.4,6.6-1.4,2.6c6.1-4.2,12-7.8,12.6-7.8c0.1,0-0.3,0.3-1,0.8c-1.4,0.9-2.2,1.8-1.4,1.5
		c0.3-0.1-0.4,0.4-1.6,1.2c-3.1,2.1-12.1,8.7-13.7,10.1c-0.7,0.7-2.4,2.2-3.7,3.4c-2.4,2.1-6,6.2-6.9,7.9c-0.5,0.9-0.5,0.9,0.9-0.4
		c7.8-6.8,15-12.1,22.6-16.6c1.7-1,3.7-2.2,4.4-2.7c1.6-1.1,2.2-1.2,0.9-0.2c-0.8,0.6-0.8,0.7-0.3,0.5c0.6-0.1,0.6-0.1,0.1,0.2
		c-1.4,1.1-2.3,1.7-4.3,3.4c-1.2,1-3.6,2.9-5.4,4.2c-4.9,3.7-12.5,12.1-18.5,20.6c-2.1,2.9-3.6,4.9-5.9,7.6
		c-2.1,2.5-2.6,3.3-1.3,2.2c0.4-0.4,2.5-2.2,4.6-4s5.7-5.2,8-7.5c2.3-2.3,5.4-5.1,6.9-6.4c1.5-1.2,3.7-2.9,4.7-3.7
		c1-0.8,2.5-1.9,3.2-2.4c1.3-0.9,9.5-6.9,9.7-7.2c0.1-0.1,0.8-0.6,1.6-1.1c3.5-2.3,3.4-2-0.5,1.2c-5.7,4.5-11.1,10.5-17.7,19.5
		c-0.8,1.1,2.7-2,5.2-4.5c3.3-3.4,13.2-12.3,15.2-13.6c1.4-1,2.2-1.4,1.5-0.8c-2,1.6-22.1,21.3-31.5,30.7c-2.2,2.2-5.2,5.1-6.7,6.4
		c-12.3,11.1-33,33-42.8,45.2c-0.7,0.8,0.4-0.1,3-2.5c2.1-2,5.4-4.8,8-6.8c0.7-0.6,2.9-2.3,4.7-3.8c1.8-1.5,6-4.6,9.2-7
		c9.7-7,17.4-13.6,22.7-19.4l1.5-1.6l-1.4,1.2c-0.8,0.7-2.1,1.7-3,2.3s-3.4,2.5-5.7,4.3c-2.3,1.8-5,3.7-6.1,4.2l-1.9,0.9l1.1-1
		c0.6-0.5,2-1.7,3.1-2.6c2.1-1.7,8.3-7.1,14.3-12.5c1.9-1.7,5.4-5.1,7.7-7.6c2.3-2.4,4.6-4.7,5.1-5c0.5-0.3,1.7-1.3,2.6-2.2
		c0.9-0.9,3.3-3.1,5.3-5c2-1.9,3.9-3.6,4.1-3.9c1.6-1.5,10.6-8.8,10.9-8.8c0.1,0-0.2,0.5-0.8,1c-0.5,0.6-1.9,2.3-3.1,3.8
		c-1.2,1.5-3.3,4-4.7,5.5c-1.4,1.5-3.3,3.7-4.4,4.9c-1.1,1.2-3.7,3.9-5.8,6c-6,5.8-10,9.8-10,10c0,0.3,0.7,0.3,0.9,0
		c0.2-0.4,8.1-7.5,11.1-10.1c1.4-1.2,2.9-2.6,3.3-3.1c3.2-3.7,4.5-5.2,6.4-7c1.2-1.2,3.2-3.5,4.6-5.1c2.6-3.1,3.6-4,1.8-1.7
		c-0.6,0.7-1.6,2.1-2.4,3.1c-0.7,1-2.5,3.2-4,5c-1.5,1.8-3.6,4.4-4.8,5.9c-4,5-6.4,7.7-10.9,12.4c-7.2,7.3-5.2,5.8,6-4.5
		c8.5-7.9,9.8-9.2,13.6-14.3c2.5-3.4,6.4-7.9,6.8-7.9c0.2,0-1.8,3.1-3.1,4.7c-0.7,0.9-2.1,2.9-3.1,4.4c-2.8,4.3-4.6,6.3-10.1,11.7
		c-2.8,2.7-5.5,5.5-6.1,6.1l-1.1,1.2l0.9-0.6c7.4-5,16.5-14,20.7-20.4c2-3,4.4-6.3,4.5-6.2c0,0-0.5,1.1-1.1,2.3
		c-0.7,1.2-1.9,3.6-2.8,5.4c-4.5,9-14.9,20.3-24.6,26.6c-1.8,1.2-4.4,2.6-8,4.6c-4.8,2.5-1.7,1.8,4.2-0.9c8.5-4,15.4-8.9,23.4-16.8
		c4.4-4.3,4.5-4.3,1.4,0.5c-4.3,6.8-18,16.7-28.2,20.5c-1.9,0.7-12.3,6.8-17.6,10.3c-1.6,1-3.4,2.2-4.1,2.5
		c-0.7,0.3-2.2,1.4-3.5,2.5c-1.2,1-3.5,2.8-4.9,4c-2.5,2-5.3,4.7-4.4,4.2c0.2-0.1,1.4-0.9,2.6-1.6c11.6-7.5,28.4-11.8,41.6-10.8
		c5.9,0.5,16.6,3.1,24.2,5.9c1.3,0.5,2.1,1.6,0.9,1.2c-0.3-0.1-1.9-0.6-3.7-1.1c-18.5-5.4-34.4-5.1-49.9,1.1c-3.4,1.3-3,1.4,0.9,0.1
		c6.5-2.2,10.9-3,20.2-3.7c2.9-0.2,3.7-0.2,5.9,0.2c1.4,0.3,3.5,0.6,4.7,0.7c6.1,0.5,16,4.2,21,7.8c3.1,2.3,6.1,4.1,6.8,4.1
		c0.2,0,0.8,0.4,1.4,0.8c1.3,1,0.9,1-2,0c-1.8-0.6-2.6-1-3.7-2c-6-5.4-25.2-7.9-36.7-4.7c-1.3,0.4-3.6,1-5.1,1.4
		c-4.5,1.2-10.8,3.4-14.7,5.3c-1.3,0.6-2.7,1.3-3.3,1.5c-0.5,0.2-1.4,0.7-2,1.1c-0.6,0.4-2.8,1.5-4.9,2.6
		c-5.6,2.9-13.3,7.4-17.7,10.5c-2.9,2-12.2,9.3-13.6,10.7l-1.1,1.1l0.9-0.6c0.5-0.3,2.2-1.6,3.8-2.8c19.9-15.5,46-26.9,64.1-27.9
		c1-0.1,1.5-0.1,1,0c-10.2,1.4-15.1,2.9-31.2,9.7c-12.1,5.1-25.2,12.9-33.2,19.7c-0.8,0.7-2.4,1.9-3.5,2.8
		c-3.7,2.8-15.8,14.6-17.9,17.5c-2.4,3.2-8.2,13.4-7.8,13.8c0.1,0.1,0.7-0.9,1.5-2.2c5.2-8.6,17.2-20.9,26.7-27.4
		c2.7-1.8,4.6-2.9,3.1-1.8c-8.1,6.3-23.5,22.6-27.3,28.9c-2.9,5-7.1,13.9-8.2,17.7c-1.3,4.3-1.8,14.8-0.9,17.7
		c0.6,2,1.4,3.7,2.2,4.9c0.8,1.1,0.8,0.8,0.3-1.3c-2.6-9.2-0.7-22.3,4.6-32.3c1.6-3,3.8-6.3,4.7-7.1c0.4-0.3,0.3-0.1-0.3,0.8
		c-9.8,14.5-11,36-2.6,45.9c2.2,2.6,3.8,2.7,2,0.1c-7.7-11-6.9-26.9,2.1-42.1c1-1.7,2.3-4,2.8-5.1c3-6.2,8.7-11.7,20.3-19.5
		c14.1-9.5,22.9-13.5,41.2-18.6c1-0.3,1.1-0.3,0.5-0.4c-0.4-0.1-1.1,0.1-1.7,0.3c-0.5,0.2-2.2,0.6-3.8,0.8
		c-2.8,0.4-8.3,1.6-12.5,2.6c-3.2,0.8-7.7,2.6-13.1,5.4c-4.8,2.5-5.8,2.9-3.9,1.7c0.6-0.3,2.1-1.4,3.5-2.3c1.4-0.9,3.6-2.2,4.8-2.8
		c1.2-0.6,2.6-1.4,3.1-1.7c1.9-1.4,10.7-5.1,20.1-8.5c1.5-0.6,3.3-1.3,4-1.6c1.1-0.5,5-1.8,9.7-3.2c0.9-0.3,1.4-0.5,1.1-0.6
		c-0.6-0.1-11.9,2.4-14.9,3.3c-1.2,0.4-3.5,0.9-5,1.2c-2.8,0.5-5.4,1.3-9.5,2.9c-1.2,0.5-3.9,1.5-6,2.3c-2.1,0.8-4.9,1.9-6.2,2.5
		c-3,1.4-3.1,1.4-1-0.1c1-0.6,3.1-2.1,4.8-3.2c14.8-10.1,43.8-19,51-15.6c2.7,1.3,3,1.8,2.1,4.6c-1.7,5.4-7.4,10.6-14.8,13.6
		c-0.7,0.3-1.7,0.7-2.1,0.9c-0.4,0.2-2.9,1.2-5.5,2.1s-5,1.9-5.5,2.1c-0.9,0.4-8.1,2.8-10.9,3.6c-1,0.3-3.3,1.3-5.2,2.2
		c-2,1-4.3,1.9-5.9,2.3c-4.5,1.2-8.3,2.8-13.9,6.1c-1.7,1-3.3,1.9-3.6,2.1c-11.9,6.4-26.5,28.2-26.5,39.5c0,1.2,0.4,0.5,1-2
		c2.3-8.7,6.4-15.6,15.1-25.3c1.2-1.4,1.1-0.8-0.2,0.9c-8.3,10.8-12.5,20-14.4,31.4c-0.4,2.3-0.5,10.4-0.2,10.7
		c0.4,0.4,0.6-0.4,0.8-4.2c0.2-3.9,1.2-9.1,2.1-10.8c0.1-0.3,0.9-2.3,1.6-4.6c3.5-10.5,13.1-24.7,19.3-28.6c0.8-0.5,2.4-1.5,3.5-2.3
		c3.5-2.3,12.1-6.5,13.2-6.5c0.1,0-1.7,0.9-4,2.1c-10.8,5.4-21,16.2-26,27.5c-6.8,15.3-7.9,22.7-5,34.2c1.4,5.6,5.3,12.7,6.3,11.7
		c0.3-0.3-0.2-2.5-0.9-3.6c-2.9-4.8-2.8-19.3,0.3-27.3c0.3-0.8,0.9-2.4,1.3-3.5c1.8-4.8,4.6-10.3,6.8-13.5c2.8-4,12.8-13.3,18-16.8
		c6.5-4.3,19.2-10.8,21.3-10.8c0.8,0-0.1,0.6-3.5,2.1c-11.1,5.2-23.7,15.6-29.4,24.3c-1.6,2.4-7.7,14.3-8.6,16.7
		c-3.1,8.3-3.5,22.9-0.8,29.6c1.4,3.7,2,4.4,2.8,3.6c0.3-0.3,0.3-0.8-0.3-3.2c-0.3-1.5-0.7-3.4-0.8-4.1c-0.3-2.1,0.9-12.2,1.7-14.9
		c0.3-0.9,0.8-2.7,1.2-4c1.2-3.8,4.6-9.5,10.1-16.8c4.2-5.5,13.1-12.9,21.7-18.1c5.2-3.1,12.8-6.4,15.8-7c0.8-0.2,1.4-0.3,3.5-0.9
		c0.4-0.1,1.7-0.5,3.1-0.9c1.3-0.4,3.3-1.1,4.4-1.5c2.3-0.8,8.1-1.9,17.8-3.3c6.9-1,9.4-1.1,15.8-0.8c3.7,0.2,5.9,0.1,13.9-0.7
		c5.3-0.5,11.3-2.6,14.6-5.1c3-2.3,6.7-5.6,8.2-7.4c4.6-5.3,23.7-18.9,30.9-22c3.5-1.5,7.8-1.5,9.8,0c0.5,0.4,1.2,0.7,1.5,0.7
		s0.9,0.3,1.2,0.7c0.9,1,0.9,0.2,0-1.1c-1.1-1.7-3.1-3.6-4.5-4.3c-1.8-0.9-1.3-1.3,1.1-0.8c1,0.2,2.1,0.5,2.4,0.5
		c2.6,0.5,5.7,5.8,6.5,10.8c0.5,3.4,0.4,4-0.7,4.2c-1.1,0.2-0.8,0.4-4.4-3c-2.9-2.7-6.5-4.3-8.6-3.7c-1.1,0.3-0.8,0.6,1.1,1.5
		c3,1.4,8.3,8.3,6.4,8.3c-0.2,0-1.5-1.1-3-2.4c-3.6-3.3-7.5-4.8-9.9-3.8c-0.8,0.3-0.6,0.8,0.2,0.8c3.2,0,7.1,4,7.8,7.9l0.2,1.1
		l-2.2-2.2c-3-2.9-4.8-3.8-5.2-2.4c-0.1,0.2,0.8,1.2,1.9,2.2c2.1,2,2.5,2.7,4,6.9c1.8,5.1,6.2,6,13.1,2.7c6.8-3.3,7.1-3.8,6.8-9.9
		c-0.3-6-0.6-7.6-2.4-11.5c-2.2-5.2-1.2-4.9,2.6,0.6c0.7,1.1,2.4,5.5,2.4,6.3c0,1.6,2.5,2,3.6,0.7c0.9-1.1,2.2-1.5,4.3-1.5
		c3.1,0,4.4-3.4,1.6-4.5c-0.4-0.2-0.8-0.5-0.8-0.7c0-0.5-1.7-2.1-4.6-4.6c-3.8-3.2-7.4-8.8-7.9-12.1c-0.2-1.5,0.5-5.1,1.6-7.8
		l0.8-2.1l0.2,2c0.5,5.6,2.5,9.1,10.9,18.7c2.6,3,4.1,5.6,3.9,6.6c-0.5,1.9-0.1,6.5,0.6,7.3c0.4,0.4,0.8-0.9,0.8-2.9
		c0-2.1,0.3-2.8,1.7-4.5c0.7-0.7,1.2-1.5,1.2-1.7c0-0.4,1.4-0.9,2.6-0.9c2.2,0,0.6-3.3-4.2-8.1c-3.8-3.9-6.1-7.4-5.8-8.9
		c0.7-3.6,1-5.3,1.1-5.7c0.1-0.3-0.2-0.9-0.9-1.7c-1.9-2.2-2.9-4.9-2.9-7.8c0-2.2,1.9-7.6,2.9-8.1c0.8-0.4,0.8-0.3-0.1,3
		c-0.7,2.9-0.8,3.8-0.4,5.7c0.4,1.9,0.7,1.7,0.9-0.5c0.1-1.3,0.4-2.4,1-3.6c1-2.1,1.1-2.1,0.6,0c-1,4.1,0,9.9,2,11.7
		c0.7,0.6,3.4,4.5,4.8,6.8c0.8,1.3,1.2,2.4,1.5,4.1c1.2,6,3,7.5,7,5.5c1.1-0.6,2.5-1.1,2.9-1.2c2.2-0.4,1.4-2.8-1.4-4.1
		c-2.1-1-4.1-4.5-3.4-6c0.4-0.9,2.5-4.1,2.7-4.1c0.1,0,0.3,0.6,0.5,1.3c0.2,0.7,0.7,1.9,1.2,2.6c0.5,0.7,1,1.7,1.1,2.3
		c0.1,0.7,0.6,1.6,1.4,2.5c0.7,0.8,1.5,1.8,1.7,2.2c0.7,1.1,1.4,1.2,2.9,0.7c0.7-0.3,2.1-0.6,3-0.7l1.7-0.2l-0.1-1
		c-0.3-1.8-3.2-4.3-5-4.3c-0.4,0-1.4-1.1-1.8-2.2c-1-2.4-0.8-4.4,0.7-6.5c0.7-1,0.6-1.1,1.4,1.5c0.2,0.8,1,2.3,1.6,3.3
		c0.7,1,1.2,1.9,1.2,2.1c0,0.5,1.2,2.2,2.8,4l1.4,1.5l2-0.3c2.7-0.4,2.8-1.1,0.7-3.7c-2.4-2.9-3.2-5.7-2.6-8.4
		c0.2-0.9,4.5,3.3,5.4,5.3c0.3,0.6,1.3,2.3,2.3,3.7l1.8,2.7l1.4,0.2c0.8,0.1,1.8,0.3,2.2,0.4l0.9,0.2v-1.6V152l-1.9-1.8
		c-3.9-3.6-4.7-4.6-5.8-6.8c-1.2-2.5-3.2-5.2-4.2-5.4c-1.1-0.3-1.3-0.8-1.2-2.5c0.1-2-0.7-4.9-1.9-6.5c-0.5-0.7-1.6-2.2-2.6-3.4
		c-0.9-1.2-2.1-2.9-2.7-3.8c-1.8-3-2.2-2.1-0.6,1.5c0.6,1.2,1.6,3,2.3,3.9c2,2.7,3.7,7.5,3,8.2c-0.6,0.6-1.7-1-1.7-2.5
		c0-2.2-2-6.1-3.3-6.6c-0.9-0.3-0.9,0,0.1,2.3c1,2.4,1.4,3.9,1,3.9c-0.6,0-4.5-5.8-5-7.4c-0.2-0.7-0.5-1.3-0.6-1.4
		c-0.1-0.1-0.3-0.5-0.5-0.9c-0.3-0.8-1.3-1-1.5-0.4c-0.1,0.2-0.3,1.7-0.5,3.5c-0.2,1.7-0.6,3.5-0.8,4c-0.2,0.5-0.7,1.8-1,2.9
		c-0.6,1.8-2.1,4.5-3.7,6.3c-0.8,0.9-0.9,0.7-0.3-0.3c1.4-2.4,3.5-11.2,3-12.5c-0.3-0.7-0.8-0.3-1,0.8c-1.3,6.1-5.4,13.3-8.6,15.1
		c-0.9,0.5-0.6-0.1,0.8-1.6c2.6-2.9,5.3-8.4,5.3-10.7c0-1.4-0.4-1-1.5,1.3c-1.6,3.5-6.8,9.8-8,9.8c-0.2,0-0.5,0.1-0.8,0.2
		c-1.5,0.6-0.2-2.9,2-5.5c1.3-1.6,4.3-6.1,4.3-6.6c0-0.1,0.9-1.6,2-3.5c2.3-3.8,2.5-4.4,3.5-8.4c0.6-2.4,0.9-4.5,2.2-12
		c0.1-0.8,0.3-2.5,0.4-3.7c0.1-1.2,0.3-2.4,0.4-2.6c0.2-0.2,0.1-0.4-0.2-0.5c-0.2-0.1-0.5-0.6-0.6-1.1c-0.2-1,0.3-1.1,1.3-0.4
		c0.4,0.3,0.8,0.4,0.9,0.4c0.6-0.2,1.9,1.6,2.1,2.7c0.6,5,5.5,18.6,7.8,21.6c6.2,8,7.1,9.5,8.1,12.5c0.6,2,1.2,2.2,1.4,0.3
		c0.1-2.2-1-5.1-3.9-9.5c-5.1-7.8-7.6-13.5-8.8-19.6c-0.9-5-2.6-8.4-4.4-8.8c-3.3-0.8-10.9-6.7-13.7-10.7c-4.1-5.7-5.9-1.6-2.4,5.6
		c2.2,4.6,3,14.9,1.5,20.2c-0.8,2.8-0.8,2.8-0.9,0.3c0-3.1-1-6.8-1.7-6.8c-0.5,0-1,2.2-1.1,4.9c-0.1,1.3-0.2,3.1-0.4,3.9l-0.3,1.5
		l-0.4-2c-0.2-1.1-0.6-2.8-0.9-3.9c-1-3.3-1-3.7-1.1-5.7c0-2.4-0.3-2.1-1.5,1.9c-0.4,1.4-1.1,3.5-1.5,4.7c-1.4,4.6-4.1,8.6-7,10.8
		c-2.1,1.6-2.2,1.6-0.6-0.3c2.4-2.6,4.2-6.5,5.5-11.9c1.2-4.8,2.8-9.4,4.2-11.7c1.1-1.9,1-2.1-0.2-0.9c-1.7,1.6-5.2,8.2-6.3,11.9
		c-1.3,4.2-1.4,4.3-4.1,7.2c-5.7,6-14.3,10.8-27.1,14.9c-11.8,3.8-19.6,2.8-26-3.5c-3.3-3.3-7.4-9.9-8-13c-0.2-1.1-0.5-1.3-0.8-0.4
		c-0.4,1.6,0,4.1,1.6,9.9c0.8,3,2.3,5.3,5.5,8.5c1.3,1.3,2.3,2.3,2.2,2.3c-1,0-4.5-2.4-9.5-6.5c-7.1-5.8-6.1-19.3,2.3-34.3
		c2.5-4.4,8.4-6.9,17.3-7.4c5-0.3,7.2,0.4,12.5,3.4c7.6,4.4,10.2,5.3,15.7,5.7c1.3,0.1,3.5,0.4,4.8,0.6c4.4,0.8,11.9,0,14.9-1.6
		c3.9-2,5.9-7.9,4.7-13.8c-0.9-4.5-1.7-5.8-4.7-7.9c-1.5-1-1.3-1-8.6-1.7c-4.6-0.5-8.8-1.4-13.9-3.2c-9.9-3.5-13.9-4.3-25.7-5.3
		c-3.8-0.3-4.1-0.4-4.1-0.7c0-1.2,16.3-1.9,22.5-1.1c1.8,0.3,2.1,0.2,2.6-0.2c0.5-0.4,0.6-0.4,2.2,0.1c0.9,0.3,2.8,0.7,4.1,0.9
		c2.6,0.4,9.2,1.7,11.6,2.4c0.8,0.2,2.6,0.5,3.9,0.6c1.3,0.1,3.1,0.4,3.9,0.7c8.5,2.5,17.3-5.7,11.2-10.4c-2.5-1.9-3.9-3.2-4.6-4.3
		c-0.8-1.4-5.1-5.9-6.6-7.1c-0.7-0.5-1.9-1.6-2.7-2.3c-2.2-2-4.9-3.6-13.6-7.4c-5.1-2.3-14.7-5.6-19.6-6.7
		C277.3,25.5,263.5,24.7,257.5,25.5 M341.3,63.3c-1.2,0.4-2.5,1.7-2.5,2.5c0,0.8-4.6,4.8-5.5,4.8c-0.9,0-1.3,2.8-0.8,5.3
		c0.8,4,6.6,13,8.9,14c0.4,0.2,1.7,1.2,3,2.4c3.1,2.8,5.9,3.7,8.3,2.8c1.5-0.6,1.8-1.1,3.1-5c2.5-7.6,4.5-9.1,8-5.9
		c0.7,0.7,1.4,1.2,1.4,1.1c0-0.7-1-3.9-1.7-5.4c-0.5-1-1.2-2.5-1.5-3.3c-0.4-0.9-1.4-2.3-2.8-3.8c-1.2-1.3-2.9-3.2-3.8-4.2
		C352,64.8,344.8,62.1,341.3,63.3 M363.1,88.5c0,0.3,0.4,1.5,0.9,2.7c3.1,7.7,4,14.8,2.2,17.5l-0.7,1.1l2.6,0.2
		c1.4,0.1,2.8,0.2,3.1,0.3c0.8,0.2,0.6-5-0.3-8.7C369.6,96.1,363.1,85.3,363.1,88.5 M235.3,89.8c-0.2,0.3-0.5,0.8-0.8,1.3
		s-1,1.8-1.6,2.9c-0.6,1.2-1.2,2.3-1.3,2.4c-0.9,1.2-5.2,10.4-6.8,14.6c-3.7,9.6-10.4,17.6-16.4,19.5c-1.2,0.4-2.3,0.8-2.5,0.8
		c-0.6,0.4,0-0.2,0.9-0.8c1.6-1,4.8-4.4,5.9-6.2c0.5-0.8,1.9-2.7,3-4.1c3-3.7,4.5-6.6,4.5-8.9c0-2,4.4-9.8,8.4-14.8
		C231.4,93,236.5,87.9,235.3,89.8 M148.3,93.7c-0.2,0.5-0.6,1.4-0.8,1.9s-0.3,0.9-0.3,0.9c0.2,0,1.8-3.5,1.6-3.6
		C148.8,92.8,148.5,93.2,148.3,93.7 M176,97.2c-3.7,3.9-7.1,7-13.7,12.5c-3.4,2.8-6.1,5.2-8.8,7.8c-1.1,1-2.1,2-2.3,2.1
		c-0.2,0.1-1,0.9-1.9,1.7c-0.9,0.8-2.9,2.6-4.5,4.1c-1.6,1.4-4.8,4.5-7.1,6.9c-2.3,2.4-6,6.2-8.2,8.6c-2.3,2.4-5.1,5.5-6.3,7.1
		c-1.2,1.5-2.4,3-2.6,3.2s-1,1.3-1.9,2.4c-0.9,1.1-1.8,2.2-2,2.5c-0.4,0.5-3.2,4.5-6.1,8.8c-0.7,1-1.5,2.4-1.8,3s-1.1,1.9-1.7,2.9
		c-0.6,1-1.5,2.5-2,3.3c-0.4,0.8-1.2,2.2-1.8,3.2c-0.6,1-1.4,2.7-1.9,3.8c-0.5,1.2-1.2,2.6-1.6,3.1c-0.4,0.6-0.7,1.2-0.7,1.5
		c0,0.3,0.7-0.9,1.6-2.6s2.2-4.2,3-5.6c1.9-3.5,9.2-14.7,12.9-19.6c5.3-7.2,14.9-17.5,20-21.7l0.8-0.7l-0.7,0.8
		c-0.4,0.4-1.9,2.1-3.5,3.7c-10,10.5-15.4,17.4-24,30.7c-3.7,5.8-3.9,6.3-0.5,1.5c1.1-1.5,2.6-3.7,3.4-4.7c0.8-1,1.7-2.2,1.9-2.5
		c0.2-0.3,1.2-1.5,2.1-2.6c0.9-1.1,1.8-2.2,2-2.4c1.5-1.9,3.7-4.6,4.6-5.6c0.6-0.7,2.1-2.4,3.3-3.9c3.3-4,15.2-15.8,20.1-19.9
		c5.5-4.6,9.6-8.6,14.6-14.2c2.2-2.5,5.2-5.9,6.7-7.5c1.5-1.6,3.6-4.2,4.8-5.7c1.2-1.5,3.3-4.3,4.8-6.1
		C181.4,91.7,181.2,91.7,176,97.2 M345.6,101.3c-0.6,0.9-0.5,2.8,0.2,4.2c0.4,0.8,0.7,1.6,0.7,1.8c0,1.7,3.1,8.8,3.8,8.8
		c0.6,0,0.6-0.3,0.1-1.3c-0.5-1-1.7-5.8-2.1-8.5c-0.3-2.1-0.8-3.3-2-4.6C346,101.3,345.7,101.1,345.6,101.3 M238.1,103
		c-1.5,4.2-1.9,9.6-1,12.8c0.2,0.8,0.6,2.5,0.8,3.9c0.9,5.4,4.7,13,9.5,18.9c5.4,6.7,5.6,5.5,0.6-3.7c-2.5-4.7-3.7-8.1-1.9-5.6
		c0.3,0.4,1.5,2,2.7,3.5c3.8,4.7,8.1,11.7,9.2,15c1.4,3.9,0.1,9.4-2.3,10.4c-1,0.4-12.5,0.3-14-0.1c-2.9-0.9-9.9-4.3-12.5-6.3
		c-2.4-1.7-4.7-3-9.7-5.5c-7.4-3.6-10.2-4.6-14.9-5.5c-2.9-0.5-2.9-0.7-0.3-1.3c3.3-0.8,4.6-0.8,7.5-0.2c1.5,0.3,3.9,0.7,5.3,1
		c1.5,0.2,4,0.8,5.6,1.3c6,1.9,9.2,1.6,12.8-1.3c1.8-1.5,2.5-4.8,1.5-6.9c-0.1-0.3-0.6-2.8-0.9-5.6c-0.4-2.8-0.8-6.2-1-7.5
		c-0.8-5.5-0.1-10.2,2.3-16.2C238.3,101.6,238.9,100.8,238.1,103 M180.3,105.5c-3.4,3.4-8.2,7.7-12.1,10.9c-2.3,1.9-5,4.2-6.1,5.1
		c-1.1,0.9-3,2.4-4.3,3.3c-2.3,1.6-8.1,6.4-15.5,12.8c-9.3,8.1-21.4,21.5-23.2,25.9c-0.8,1.8-0.4,2,0.9,0.6c0.6-0.7,3-3.5,5.3-6.3
		c7.5-8.8,13.3-14.5,20.5-20.2c3.4-2.7,7-5.6,7.9-6.4c7.1-6,2.9-1.4-10.3,11.4c-12.2,11.9-14.8,14.6-19.5,20.9
		c-0.8,1.1-2.9,3.6-4.6,5.6c-1.7,2-4.2,4.9-5.6,6.5c-1.4,1.6-3.1,3.6-3.8,4.4c-4.9,5.6-9.4,12.3-12.4,18.4c-1.2,2.5-2.4,4.7-2.5,4.9
		c-1.2,1.4-3.7,10.7-4.6,16.5c-0.3,2.1-0.2,3.1,0.1,1.3c0.1-0.6,0.5-1.8,0.9-2.7c0.4-1,0.9-2.2,1-2.7c0.6-1.8,3.4-7.7,5.9-12.3
		c1.4-2.6,3.4-6.2,4.4-8c1-1.8,2.3-4.1,2.9-4.9c2.5-3.8,5.4-7.7,7-9.5c0.9-1.1,2.7-3.3,3.9-5c7.2-9.9,20.8-24.7,44.1-48
		c5-5,9.9-10.1,10.9-11.2c0.9-1.1,3.3-3.6,5.2-5.7c3.6-3.8,5.3-6,5.2-6.8C181.9,104.1,181.4,104.4,180.3,105.5 M344.7,108.6
		c0,2,0.8,4.6,1.6,5.5c1.4,1.5,1.3-0.9-0.2-4.5C344.9,106.6,344.7,106.4,344.7,108.6 M357.7,111.5c0,0.9,3,3.3,4.6,3.7
		c7.9,2,11.6,5.2,11.9,10.1c0.2,3.3-0.6,8.8-1.7,12.1c-1.3,3.9-1.5,6.4-0.6,8.3c0.9,2.2,1.6,1.7,1.9-1.6c0.3-3,1.3-4.7,5.2-9.2
		c5.8-6.6,6.6-8.2,6.6-12.5c0-3.6-0.2-4.1-1.9-5.8c-1.2-1.2-3.7-2.3-4.2-1.8c-0.2,0.2-0.5,0.2-1-0.1c-1-0.5-4.6-1.2-6.3-1.2
		c-0.8,0-2.4-0.2-3.6-0.5c-1.2-0.3-3.6-0.6-5.3-0.8c-2.2-0.2-3.3-0.4-3.9-0.8C358.3,110.8,357.7,110.8,357.7,111.5 M163.2,143.5
		c-1,0.6-3.2,2.1-4.9,3.4c-1.7,1.3-4.3,3.2-5.8,4.4c-1.6,1.1-4.1,3.1-5.6,4.4c-1.5,1.3-3.2,2.6-3.6,3c-4.4,3.7-6.2,5.2-7.8,6.7
		c-1,1-2.4,2.2-3.1,2.8c-6,5.3-12.6,11.7-14.7,14.3c-2.1,2.6-6.9,9.1-6.9,9.5c0,0.1-1,1.5-2.2,3.1c-2.3,3.2-5,7.6-6.4,10.4
		c-1.1,2.1-0.7,1.8,1.1-1.1c5.5-8.7,18.5-25.3,19.3-24.5c0.2,0.2-1.6,2.7-4,5.6c-2.4,2.9-4.5,6-7.5,10.8c-1.5,2.3-2.9,4.6-3.2,5.1
		c-1.3,2,0.4-0.1,2.3-2.7c1.1-1.6,3-4.1,4.1-5.5c1.2-1.5,2.6-3.3,3.2-4c0.6-0.7,3-3.5,5.3-6c2.4-2.6,5-5.4,5.8-6.4
		c0.8-1,2.5-2.9,3.7-4.3c1.2-1.4,4-4.2,6.1-6.1c2.1-1.9,5.9-5.5,8.4-7.9c5.7-5.6,7.7-7.3,13.5-11.8C166,142,166.3,141.7,163.2,143.5
		 M370.3,159c-1.2,0.4-1.4,1.4-0.3,1.3c1.7-0.1,2.5,0.7,3.2,3.4c0.2,0.7,0.8,2.5,1.4,4.1c1.2,3.1,1.2,3.2,0,3.7
		c-0.9,0.4-1.4,1.6-0.8,2.3c0.5,0.6,1.7,0.5,2.6-0.3c0.4-0.4,0.9-0.7,1.1-0.7c1.7,0,2.2-2,1-4c-0.5-0.8-1.7-3.1-2.7-5.1
		C373.3,159.2,372.3,158.3,370.3,159 M357.3,161.4c-0.7,0.5-0.3,1.2,0.7,1.2c0.4,0,0.8,0.1,0.8,0.2c0,0.1,0.2,1.9,0.4,3.9
		c0.2,2.1,0.4,4.5,0.4,5.3c0.1,3.2,0.7,3.7,2.9,2.3c1.7-1.1,1.7-1.5,0.4-8.6C362.2,161.7,359.6,159.8,357.3,161.4 M344.3,163.4
		c-1.2,0.8-1.3,1.2-0.7,2.5c0.3,0.6,1.3,3.3,2.1,6.1c0.9,2.7,2,5.9,2.4,7.1c2,5.1,1.8,5.3-2.2,2.3c-3.1-2.3-3.6-1-0.7,2
		c1.7,1.8,7.1,4.2,7.8,3.4c0.5-0.5,0.8-6.8,0.5-9c-0.3-2.5-1.9-7.5-3.3-10.7c-0.5-1.1-0.9-2.1-0.9-2.3
		C349.2,163.2,345.8,162.4,344.3,163.4 M206.9,167.6c1.7,6.7-0.5,11.1-7.4,15c-6.4,3.6-11.5,5.6-17.2,6.6c-2.1,0.4-6.3,1.2-9.4,1.9
		c-6.9,1.4-8.7,1.8-8.8,1.7c-0.1-0.1,5.8-1.7,9.8-2.7c1.6-0.4,4.4-1.3,6.3-2c1.9-0.7,4.4-1.7,5.5-2.2c7.4-2.9,16.7-9,18.7-12.4
		c0.9-1.5,1.5-3.9,1.5-6.3C205.8,164.7,206.2,164.9,206.9,167.6 M319.9,178.8c-2.8,1.4-3.5,4-1,3.8c1.1-0.1,1.5-0.1,1.7,0.2
		c0.1,0.2,0.7,0.6,1.4,1c1.8,0.9,6.2,5.4,6.2,6.3c0,0.4-2.1,2.9-2.9,3.4c-0.7,0.4-0.8,0.4-2.2-0.1c-2.9-1-2.4,1,0.6,2.6
		c2.4,1.2,5.6-0.5,8.3-4.5c2.1-3.1,1.7-4.3-3.7-9.6C324.6,178.2,322.7,177.5,319.9,178.8 M357.2,182.8c-0.3,0.3-0.2,0.6,0.4,1.7
		c0.4,0.7,0.7,1.5,0.7,1.8s0.5,1.4,1.1,2.6c1.3,2.7,1.3,2.8-0.1,4.6c-2.4,3-1.1,4.2,2.7,2.4c3.1-1.5,3.5-2.9,1.5-5.8
		c-0.7-1-1.5-2.4-1.9-3.1C359.7,183.2,358.1,181.7,357.2,182.8 M232.1,188.4c-0.8,0.8-4.9,3-7.1,3.9c-2.6,1-3.7,1.6-3,1.6
		c0.5,0,5.8-0.5,6.7-0.7c1.4-0.2,0.4,0.3-2.2,1.2l-2.1,0.7l4.1,0.2c6.6,0.3,9.1-0.1,13.5-2.2c2.9-1.4,3.2-1.4,1.3,0
		c-5.3,4-10.2,5.1-19.7,4.6c-18.3-1-29.7,0.3-43.7,5.1c-8,2.7-13.1,4.7-18.5,7.5c-2.5,1.3-2.2,1,0.8-0.9
		c8.3-5.1,22.3-10.8,30.7-12.6c1.5-0.3,3.2-0.7,3.7-1c1.4-0.6,4.7-1.4,7.9-1.9c1.6-0.2,3.4-0.5,4-0.7c0.6-0.1,3.2-0.5,5.7-0.8
		c5.1-0.6,13.4-2.5,16.1-3.6C232.1,188.2,232.3,188.2,232.1,188.4 M264.1,190.1c-1.9,1.5-1.8,1.3-1,3.3c1,2.6,0.8,5-0.4,8.3l-1,2.7
		l-3.8,3.7c-3.6,3.6-5.7,5.3-8.3,6.9c-1.4,0.8-8.6,4.1-9.7,4.4c-0.4,0.1-0.9,0.3-1,0.4c-0.3,0.2-5.3,1.2-7.3,1.5
		c-0.8,0.1-1.5,0.3-1.6,0.4c-0.2,0.3,0.9,0.2,6-0.7c11.1-1.9,17.5-4.6,23.2-9.8c2.6-2.4,2.7-2.2,0.6,1c-1.6,2.5-5.6,5.3-11.1,7.7
		c-4,1.8-14.6,4.1-21.5,4.7c-5,0.4-6.2,0.7-20.4,3.9c-12.2,2.7-19.7,5.4-24,8.3c-2.7,1.9-3.3,2.4-5.6,4.6
		c-6.1,5.7-11.3,11.6-11.3,12.6c0,0.1-0.8,1.4-1.8,2.8c-1.5,2.1-1.7,2.6-1.4,2.9c0.4,0.5,0.7,0.3,2.7-2.3c0.9-1.1,1.8-2.2,2.1-2.4
		c0.3-0.2,1.1-0.9,1.8-1.6c0.7-0.6,2.1-1.9,3.1-2.8c1-0.9,1.9-1.7,2-1.7c1-1.1,8.1-5.5,11.2-7c1.4-0.7,3.8-1.8,5.4-2.6
		c5.6-2.7,13.5-5.2,19.2-6c0.7-0.1,2.6-0.5,4.4-0.9c7.4-1.7,11.5-2.3,21.7-2.7c14.4-0.6,18.2,0.4,24.4,6.9c4.2,4.4,3.9,4.6-1,0.6
		c-2.3-1.9-6.3-4-7.5-4c-0.4,0-1.4-0.2-2.1-0.5c-1.5-0.5-2.8-0.3-2.8,0.6c0,0.4,0.5,0.7,2.6,1.4c2.5,0.8,5.3,2.2,5.3,2.6
		c0,0.3-0.1,0.3-2-0.5c-4.1-1.5-4.5-1.4-1.1,0.3c3.2,1.7,5.1,3.1,8.1,6c2.7,2.6,2.3,2.5-2.5-0.8c-3.5-2.4-9.5-5.1-12.4-5.6
		c-8.1-1.5-13.9-1.7-23.2-1c-2.6,0.2-5.5,0.4-6.4,0.4c-2.9,0-7.9,1.2-11.6,2.9c-1.6,0.7-1,0.7,3.5,0c9.1-1.4,22.7-0.8,30.7,1.4
		c8.2,2.2,20,8.3,23.3,12c4.9,5.6,9.1,9.8,10.2,10c1,0.2,3.5,2.2,8.8,7.2c0.7,0.7,2.2,1.9,3.3,2.6s3.3,2.4,5,3.6
		c5.7,4.3,11.2,7.2,20.6,11c2.1,0.9,4.9,2.2,6.3,3c9.2,5.6,26.9,7.7,36.4,4.5c15-5.1,17.2-8,13-16.9c-1.3-2.8-2.7-8.4-2.3-9.1
		c0.1-0.2,0.2-0.1,0.3,0.3c0.3,1,0.7,0.3,0.7-1c0-1.2,1-7.8,1-7.1c0.1,1.1,0.9,0.1,1.5-1.9c1.8-5.9,2-13,0.4-13.4
		c-0.3-0.1-0.7-0.4-0.9-0.8c-0.5-0.8-1.2-0.8-2.5-0.1c-0.7,0.3-1.1,0.4-1.3,0.3c-0.1-0.1-0.5-0.3-0.7-0.3c-0.3,0-0.5-0.3-0.6-0.7
		c-0.5-2-1-1.2-1.2,1.9l-0.1,1.1l1.3-0.1c1.5-0.1,3.6,0.6,3.6,1.2c0,1.1-2.5,2.2-4,1.8c-1.3-0.4-1.3-0.4-1.3,0.2
		c0,0.4,0.3,0.7,0.9,0.9c1.6,0.7,1.9,1.6,0.9,2.9c-0.4,0.5-0.5,0.5-1.9,0.2c-0.9-0.2-1.7-0.3-1.8-0.3c-0.3,0.1,0-3.3,0.5-6.5
		c0.5-2.8,0.3-6.8-0.3-7.8c-0.9-1.4-4.6-0.7-6.7,1.2c-2.6,2.3-2.4,3.6,0.3,1.8c1.7-1.1,2.8-1.2,3.8-0.3l0.7,0.6l0,6.8
		c0,6.7,0,7.4,0.8,6.3c0.5-0.7,1-0.4,1,0.6c0,1.5-1.7,1.7-3.5,0.4c-3.8-2.7-4.1-2.9-5.1-2.7c-1.9,0.3-2.3,1.2-0.5,1.2
		c2.3,0,5.6,2.9,4.7,4.2c-0.8,1.2-3.8,0.7-3.7-0.6c0-0.6-0.2-0.9-1.6-1.6c-3.2-1.7-3.3-1.7-4.2-1.4c-1.9,0.7-2,1.3-0.2,1.2
		c3.9-0.1,6.5,4.1,3.1,4.8c-1.1,0.2-2.2-0.1-2.2-0.6c0-0.5-1.3-1.5-3.3-2.5c-2.6-1.4-3-1-1,0.9c1.4,1.3,1.6,1.9,0.9,2.8l-0.5,0.6
		l-1.7-0.8c-0.9-0.5-2-1.2-2.5-1.7c-0.7-0.7-0.8-0.8-1-0.4c-0.1,0.3,0.1,0.8,0.9,1.6c1.6,1.7,1.6,2.7,0.3,6c-0.6,1.4-1,2.8-1,3
		c0,0.2-0.3,1-0.6,1.7c-0.3,0.7-1.2,2.7-1.8,4.4c-0.6,1.7-1.2,3.1-1.3,3.1c-0.3,0,0.9-6.7,1.7-9.9c0.4-1.7,0.9-3.9,1.1-5
		c0.5-3.3-0.3-6.6-1.2-4.8c-0.1,0.3-0.3,0.7-0.5,0.9c-1,2.1-8.6,2.7-10.1,0.9c-0.3-0.3-0.3-0.3-0.3,0.4c0,0.6,0.3,1.1,1.4,2l1.4,1.3
		l-1.5,4.1c-1.8,4.7-3.6,9-4,9c-0.1,0-0.2-0.2-0.1-0.5c0.1-0.3,0-0.5-0.1-0.5c-0.1,0-0.2-0.5-0.2-1c0-0.6,0-1.2,0-1.5
		c0-0.3,0.2-0.7,0.4-0.9c0.3-0.3,0.4-1.5,0.5-5.1c0.1-2.6,0.3-4.8,0.4-4.9c0.3-0.3,0.3-2,0-2.6c-0.2-0.4-0.3-0.4-0.5,0
		c-0.1,0.2-0.4,0.6-0.5,0.8c-0.4,0.6-2.1,0.8-3.8,0.6c-2-0.3-2.1-0.3-2.1,1.6c0,2.3-1.4,6.1-3.1,8.8c-1.8,2.8-2.5,3.3-1.6,1.1
		c0.7-1.7,2.3-8.6,2.4-10.6l0.1-2l-1.1,0.4c-2.6,0.9-7.4-0.4-9.2-2.5c-0.9-1.1-1.4-0.3-1.3,2.3c0.1,2-1.1,5-2.8,7.2
		c-0.8,1-1.1,0.8-0.6-0.5c0.4-1,0.9-3.8,1.5-8.2c0.2-1.4,0.4-2.6,0.6-2.8c0.9-1-0.2-1.5-1.5-0.7c-0.7,0.4-0.9,0.5-1.1,0.2
		c-0.3-0.5-2.6-1.5-3.3-1.5c-0.3,0-0.8-0.1-1-0.3c-0.8-0.5-1.2,0-2.2,2.8c-1,2.9-2,5-2.4,5c-0.3,0-0.3,0.1,0.1-1.4
		c0.2-0.6,0.5-2.3,0.7-3.6s0.4-2.7,0.4-3c0.1-0.4-0.2-0.9-1.5-2c-0.9-0.8-3-2.6-4.5-4c-1.6-1.5-2.9-2.6-3-2.6
		c-0.1,0-0.6,1.3-1.1,2.9c-0.5,1.6-1.2,3.2-1.5,3.5l-0.5,0.6l0.2-0.8c0.1-0.4,0.5-2.2,0.8-3.9c0.3-1.7,0.7-3.3,0.8-3.5
		c0.1-0.3-0.1-0.8-0.7-1.3c-2.4-2.6-5.5-5.7-7.2-7.3c-1.4-1.2-2.4-2.5-3.6-4.5c-4.2-6.8-4.1-9.6,0.6-19.2c3.3-6.5,4.3-11.4,3.6-17.1
		c-0.4-3.2-1-4.8-2.3-6.2C266.4,188.5,266.1,188.5,264.1,190.1 M350.2,190.3c-0.3,0.7-0.2,2.1,0.2,3.1c0.3,0.8,0.3,1.2,0,2.5
		c-0.2,0.9-0.4,2.1-0.5,2.8c-0.1,0.6-0.3,1.2-0.6,1.3c-1.6,0.6-0.8,2.2,1,2.2c2.6,0,5.2-2.3,5-4.5c-0.1-1.2-1.8-4.5-3.5-7
		C351.2,189.8,350.4,189.6,350.2,190.3 M337.8,216.3c-2,1-2.3,2.7-0.8,4.7c1.7,2.3,2.3,2.4,5.7,1.3c3.5-1.2,4.6-2.5,3.1-4
		c-0.4-0.4-1.1-1.1-1.6-1.5C343.1,215.7,339.6,215.4,337.8,216.3 M342.3,218.1c0,0.3,0.2,0.6,0.4,0.7c0.5,0.2,0.5,0.7,0,0.9
		c-0.4,0.2-3.6-0.7-3.6-1c0-0.2,2.2-0.9,2.9-1C342.1,217.6,342.3,217.8,342.3,218.1 M348.5,222.1c-2.6,0.4-3.4,0.7-3.9,1.3
		c-2.1,2.7,2.4,6.5,5.7,4.8c0.7-0.4,1.8-0.8,2.3-1C356.5,225.7,352.9,221.3,348.5,222.1 M180.9,223.6c-14.8,4.6-31.1,15.4-40,26.6
		c-4,5-1.9,1.1,2.4-4.5c3.9-5.1,10.9-11.4,18.2-16.4c1.9-1.3,1.8-1.4-0.3-0.5c-9.4,3.8-18.7,11.3-23.8,19.2
		c-3.8,5.9-6.3,11.4-7.3,15.7c-1.7,8.2-0.7,16.1,3.1,23.4c2.1,4,4.4,6.5,2.9,3c-4.5-10-5.2-21.8-1.8-28.6c1.3-2.6,1.3-0.9,0.1,3.7
		c-2.4,9,1.5,22.5,8.7,30.1c4.6,4.8,5.9,5.7,10.2,6.8c3.8,1,7.1,2.1,9.4,3.1c1,0.4,2.1,0.9,2.6,0.9c0.5,0.1,1.4,0.5,2.1,1
		c0.7,0.4,1.4,0.8,1.6,0.8c0.5,0,5.2,2.5,7,3.7c7.2,4.9,7,12.8-0.3,17.6c-1.5,1-0.6,1.1,1.5,0.2c1.5-0.7,5.5-4.8,6.1-6.2
		c2.1-5,0.1-12-4.4-15.5c-3.5-2.7-12.5-6.7-17.4-7.6c-2.7-0.5-10.2-5.4-13.7-8.9c-4.4-4.4-6.4-11.7-5.9-22c0.2-3.9,0-4-0.9-0.5
		c-2.6,10.2,0.4,21.2,7.8,28.1c2.9,2.7,2.7,3-0.6,0.8c-4-2.6-5.6-4.8-9-12.5c-3.9-8.8-2-19.8,5.2-30.8c7.1-10.7,21.9-23.1,35.1-29.2
		c1.6-0.8,3.4-1.6,3.9-1.8C185.1,222.4,184,222.6,180.9,223.6 M350,223.7c0,0.3,0.2,0.5,0.4,0.5c0.6,0,0.8,0.6,0.4,0.8
		c-0.2,0.1-0.6,0.2-1,0.2c-0.4,0-0.7,0.3-1,0.9c-0.5,1.2-1,1.2-0.8,0c0.2-0.8,0.1-0.9-0.6-1.1l-0.7-0.2l1-0.5
		c0.6-0.3,1.2-0.7,1.4-0.9C349.7,223.1,350,223.1,350,223.7 M358.7,224.8c-0.1,0.1-0.1,0.3,0.1,0.3c0.6,0,2.8,2.1,3.1,3
		c0.4,1.3,0.4,1.3-1.6-0.4c-1.9-1.6-3-2.1-3.2-1.3c-0.3,0.8,0.5,2,2.3,3.4c0.9,0.7,1.8,1.4,1.9,1.5c0.1,0.1,0.3,2.8,0.3,5.9
		c0.1,5.6,0.2,6.4,1,6.4c0.5,0,0.9-1.1,1.4-4.8c1.5-9.9,1.5-10.3-0.3-12.2C362.4,225,359.2,223.9,358.7,224.8 M279.1,229.8
		c-2.4,0.4-2.2,3.2,0.4,5c1.1,0.8,1.4,1.1,1.3,1.5c-0.3,0.7-0.1,3.1,0.3,3.5c0.6,0.6,1.2,0.1,1.9-1.7c0.4-1,0.9-1.8,1.6-2.4
		c1.2-1,1.4-2.4,0.6-3.7C284.5,231,280.4,229.5,279.1,229.8 M286.8,235.4c-1.7,0.9-2.2,3.4-0.6,3.7c1.1,0.2,3.6,1.5,3.7,1.9
		c0.1,0.2-0.3,1.4-0.7,2.8c-0.5,1.4-0.9,2.9-0.8,3.5c0,0.6-0.1,1.4-0.3,1.8c-0.3,0.9,0.1,1.5,1,1.5c0.4,0,0.7-0.2,0.9-0.7
		c0.1-0.4,0.7-1.1,1.1-1.6c4.2-4.3,4.6-4.9,3.9-6.9c-0.1-0.5-0.3-1.3-0.4-1.8C294.3,237,289.2,234.2,286.8,235.4 M329.7,241.6
		c-1.4,0.2-2.9,0.9-3.1,1.5c-0.1,0.3,0.1,0.3,0.8,0.1c2.8-0.7,3.4,0,0.9,1c-3.2,1.3-4.5,2.7-4.8,5.4c-0.2,1.4,0.3,1.8,0.6,0.4
		c0.7-3.2,7.2-4.8,7.8-1.9c0.3,1.4-1.6,9-2.6,10.6c-0.6,1-0.4,1.7,0.4,1.7c1,0,1.7-1.1,3.7-5.8c1.1-2.5,2.5-5.6,3.2-6.9
		c1.9-3.8,2-4.6,0.1-5.3C335.1,241.9,331.2,241.4,329.7,241.6 M307.1,242.1c-1.3,0.5-2.4,1.3-2.4,1.9c0,0.1,0.6-0.1,1.3-0.4
		c0.8-0.4,1.6-0.6,2.2-0.6c1.1,0.1,1.2,0.5,0.1,0.8c-3.2,0.7-5.1,3.5-4.5,6.8c0.1,0.6,0.2,1.5,0.2,2c0,0.9,0,0.9,0.4-0.4
		c1.4-5,1.7-5.7,2.5-6.3c2.5-1.8,5.3,0.4,5.7,4.5c0.3,2.5-2.2,9.6-3.5,10.1c-0.8,0.3-0.2,0.4,0.8,0.1c1-0.3,1.3-0.7,3.8-7.4
		c0.5-1.4,1.1-2.8,1.3-3.1c0.2-0.3,0.7-1.7,1.2-3l0.9-2.5l-0.6-0.8C315.1,241.9,310.1,241,307.1,242.1 M210,242.8
		c-0.4,0.1-2,0.3-3.6,0.5c-6.7,0.9-15.6,3.5-20.3,5.8c-8.6,4.3-17.2,16-18.3,24.9c-0.4,2.9,0,3.5,0.6,1.2
		c1.9-6.9,5.7-13.2,11.1-18.6c3.4-3.4,5-4.4,2.4-1.6c-8,8.9-11.4,15.5-11.6,22.8c-0.2,4.4,0,6.1,1.1,8.2c0.8,1.6,1.4,2.3,0.8,1
		c-3.3-7.8-0.2-17.6,8.3-26.3c2.8-2.8,6.4-5.9,10.1-8.5c3.3-2.3,15.7-7.7,20.8-9l1.9-0.5l-1.3,0C211.3,242.7,210.4,242.8,210,242.8
		 M366.2,249.6c0.2,1.8-0.8,10-1.2,10.4c-0.1,0.1-0.1-0.3,0-0.9c0.3-2.3,0.8-10.2,0.6-11.2c-0.1-0.7-0.1-0.9,0.1-0.6
		C365.9,247.5,366.1,248.6,366.2,249.6 M363.6,252.7c0.3,0.8,0.3,1.7,0,4.5c-0.2,1.9-0.4,5-0.5,6.8c-0.1,3.4-0.4,4.3-0.8,2.4
		c-0.3-1.5,0.3-15.1,0.7-14.9C363.2,251.7,363.4,252.2,363.6,252.7 M351.6,252.9c0,0.2,0.1,0.4,0.3,0.4c0.1,0,0.3-0.2,0.3-0.4
		s-0.1-0.4-0.3-0.4C351.7,252.5,351.6,252.7,351.6,252.9 M360.4,258.5c0.3,1.9,0.2,7.2-0.2,10.5c-0.3,2.8-0.7,0-0.7-5.9
		c0-3.2-0.1-6.3-0.2-6.8l-0.2-0.9l0.5,0.6C359.9,256.3,360.2,257.3,360.4,258.5 M355.4,260.3c0.1,1.1,0.3,2.9,0.5,4.1
		c0.5,3.8,0.6,7.8,0.3,8c-0.5,0.3-0.9-1.8-1.1-6.8c-0.1-3.1-0.4-5.5-0.6-6.4c-0.6-1.9-0.5-2.1,0.2-1.4
		C355,258.2,355.2,258.9,355.4,260.3 M223.8,260.2c-1.2,1.3-2.2,3.2-2.7,5.5l-0.4,1.9l0.1-2.1c0.1-1.9,0.4-3.2,1.4-5.5
		c0.5-1.1-2-0.6-3.2,0.7c-5.3,5.5-2.4,16.4,5.4,20.1c2.9,1.4,3.1,1.3,1.6-0.3c-2.2-2.3-4.3-5.9-4-7c0.1-0.3,0.8,0.6,1.9,2.2
		c2.4,3.5,4.6,5.4,9.8,8.3c4,2.3,9.6,5.7,10.8,6.6c0.6,0.5,1.7,1.2,2.5,1.8c2.1,1.3,6.3,5.9,7.9,8.5c1.6,2.5,2.2,10.6,1,13l-0.5,0.9
		l0.1-2.3c0.3-6.1-3.5-13.9-7.8-16.1c-1.1-0.6-1-0.4,0.8,2.1c3.4,4.5,4.6,9.5,3.7,15.7c-0.5,3.2-0.8,3.4-0.6,0.5
		c0.6-11.9-6.1-20-20.3-24.7c-13.9-4.6-15.9-5.6-19.2-9.4c-4.4-5-4.5-12.8-0.4-16.7c0.4-0.4,0.8-0.9,0.8-1.2c0-2.2-6.1,2.3-8.2,5.9
		c-5.9,10.4-2.3,21,9,26.7c2.8,1.4,4,1.9,4.4,1.7c0.5-0.2,0.5-0.2-0.2-0.5c-5.8-2.4-9.6-6.3-11.5-11.9c-0.8-2.4-1.1-7.3-0.4-8.6
		c0.2-0.5,0.4-1.1,0.5-1.4c0-0.3,0.2,0.3,0.4,1.4c0.8,4.3,3.9,10.1,6.6,12.5c0.3,0.3,1.5,1.4,2.6,2.4c2.3,2.2,3.7,3.2,6.1,4.4
		c1,0.5,2.1,1.1,2.5,1.5c0.4,0.3,1.3,0.9,2,1.2c4.6,2.3,8.2,5.7,10.6,10.1c0.9,1.6,0.7,5.9-0.4,8.9c-0.5,1.3-0.9,2.7-1,3.1l-0.1,0.7
		l0.7-0.7c2-2,3.4-5.7,3.4-9.3c0-6.2-3.1-10.1-13.5-17.1c-2.8-1.9-6.3-4.7-6.3-5.1c0-0.1,1.3,0.6,3,1.6c1.6,1,3.9,2.3,5,2.8
		c7,3.3,12.5,8.4,13.9,12.8c2.4,7.5-0.5,16.2-7.4,22.8c-3.1,3-2.9,3.2,1,0.7c8.3-5.3,12.4-12,12.8-21.4l0.2-3.7l0.5,1.3
		c2.4,6.5-0.7,16.7-7,23.2c-4.4,4.5-12.8,8.4-25,11.4c-3.7,0.9-4.1,1.4-1.2,1.5c2.7,0.1,7.8-1,12.8-2.6c2.2-0.7,4.6-1.5,5.5-1.7
		c2.5-0.6,3.7-1.3,9.5-5.1c1.4-0.9,2.8-1.8,3.1-1.9c4.6-1.8,11.3-10.9,13.2-17.8c1.5-5.9,0.7-11-2.4-14c-0.9-0.9-2-2.4-2.8-3.9
		c-2.8-5.1-11-11.8-20.4-16.8c-5.6-2.9-8-10.3-5.7-16.8c1-2.7,0.1-2.2-1.4,0.7c-3.1,6.2-0.1,14.1,7.7,20.2l0.8,0.6l-0.8-0.5
		c-8.6-5-12.6-14-9.3-21.1C226,258.8,225.4,258.5,223.8,260.2 M349.9,262c0.1,0.5,0,2.2-0.1,3.9c-0.2,2.8-0.1,5,0.3,8.6l0.2,1.3
		l-0.5-0.9c-1.3-2.4-2.2-11.3-1.2-12.3c0.2-0.2,0.3-0.8,0.3-1.4C349,259.9,349.6,260.5,349.9,262 M343.1,263.6
		c0.1,0.1,0.1,1.3,0,2.5c-0.1,1.2-0.3,3.5-0.5,5.1c-0.3,2.9-0.8,6.7-0.9,6.9c-0.9,0.9-1-8.3-0.2-11.2c0.3-1.1,0.7-2.6,0.9-3.3
		c0.2-0.7,0.4-1.1,0.4-0.8C342.8,263.1,342.9,263.5,343.1,263.6 M198.8,266.6c-2.7,2.2-5.9,6.7-7.8,10.6c-3.6,7.6-1.8,16.4,5.2,24.8
		c1.7,2,1.4,2.1-1.9,0.6c-1.4-0.6-3.8-1.6-5.4-2.1c-3-1.1-3.8-1.5-5.3-3c-0.5-0.5-1.1-1-1.2-1c-1,0-2.6-3-3.5-6.6
		c-1.4-5.6-0.7-11.4,1.9-15.9c1.6-2.9,1.6-4.1-0.1-1.7c-6.3,9.2-5.8,22.9,1.1,29c2,1.8,8.6,6.4,9.1,6.4c0.4,0,4.5,2.6,5.3,3.4
		c2.5,2.4,3.7,9.3,2.1,13.1c-0.7,1.8-5.8,5.9-8,6.5c-0.5,0.1-3,1.1-5.5,2.1c-4.8,1.9-8.2,3-18.5,5.7c-16.3,4.3-27.5,9.7-34.1,16.2
		c-2.9,2.9-3.3,2.7-0.6-0.4c3.9-4.5,7.6-7.3,14.5-10.7c15-7.4,19.4-10.3,24-16.1c2.3-2.9,3.9-7,3.3-8.1c-0.3-0.5-0.6,0.1-0.6,1.1
		c0,3-1.5,4.7-8.3,9.2c-2.4,1.6-5.3,3.5-6.3,4.2c-2.6,1.8-8.9,4.9-12.9,6.4c-3.7,1.4-4.5,1.8-8.1,3.8c-8.2,4.6-13.1,9-15.6,13.9
		c-1.7,3.4-1.6,3.3-1.3,0.9c0.6-5.4,3.3-9.8,8.5-13.7c4.5-3.4,5.3-3.9,10.4-6.3c2.6-1.2,3.2-1.7,2.6-2.4c-0.3-0.3-0.7-0.2-2.8,0.8
		c-1.3,0.6-3.1,1.4-3.9,1.6c-3.1,1-9.7,5.4-12.7,8.5c-15.1,15.4-6.5,36,16.1,38.6c1.4,0.2,3.7,0.5,5.1,0.7c3.7,0.6,8.7,0.2,13.1-1.1
		l3.2-0.9l-3.9-0.2c-13.3-0.6-14.1-0.7-19.3-3.4c-5.7-3-9.6-9.9-8.4-14.9l0.4-1.5l0,1.4c0.1,4.6,2.7,9.1,6.8,12
		c1.9,1.3,2.2,1.1,0.4-0.3c-5.8-4.3-3.7-16.1,3.9-21.2c1.2-0.8,2.3-1.7,2.4-2c0.3-0.5,6.9-4,8.8-4.7c0.5-0.2,3.9-1.2,6.5-2
		c0.8-0.2,1.7-0.5,2-0.7c0.3-0.1,1.6-0.6,2.8-0.9c1.2-0.4,3.3-1.1,4.5-1.5c1.2-0.4,4-1.2,6.1-1.7s4.4-1.1,5.1-1.3
		c3.1-1,7.7-2.3,10.2-2.9c11.5-2.8,18.2-7,21.9-14c1.2-2.2,1.3-1.5,0.2,1.1c-1.4,3.2-4,6.4-7.3,8.7c-1.9,1.3-1.4,1.3,1.6-0.2
		c7.6-3.8,10.2-6.9,11.1-13.3c0.9-6.1-0.8-8.9-7.3-13.2c-11.9-7.7-16.8-14.7-16.5-23.6c0.2-5.3,0.7-5,1.2,0.8
		c0.1,1.2,0.3,2.6,0.6,3.2c0.2,0.6,0.5,1.3,0.5,1.6c0.1,0.3,0.4,0.8,0.7,1.2c0.3,0.4,1.1,1.6,1.8,2.7c1.8,3,3.3,4.2,8.7,6.9
		c2.6,1.3,5.9,3.1,7.5,4c2.7,1.6,5.5,2.9,5.2,2.4c-0.2-0.2-1.8-1.2-8.2-4.9c-6.2-3.5-7.9-5-10.1-8.4l-1.2-1.9l1.8,1.7
		c2.9,2.7,4.5,3.8,11.7,7.4c7.9,4,8.5,4.4,10.4,6.7c6.6,8.2,5.1,17.3-3.8,23.1c-1.5,1-2.6,1.5-5.1,2.5c-0.9,0.4-1,1-0.1,0.7
		c0.3-0.1,2-0.9,3.8-1.8c8.7-4.5,9.9-5.8,10.9-11.7c0.5-2.7,0.6-2.8,0.8-0.7c0.3,2.7-0.4,6-1.7,8.1l-0.8,1.3l1.3-1.3
		c3.9-3.8,5.5-12.6,3.1-17.7c-0.8-1.6-4-5.2-6-6.7c-0.7-0.5-1.6-1.3-1.9-1.6c-0.7-0.7-2.7-1.7-4.3-2.2c-0.6-0.2-1.8-0.7-2.8-1.1
		c-1-0.4-2.3-1-3-1.3c-8.8-3.5-12.3-6.6-16.2-14.4c-2.6-5.2-1.7-11,2.5-16.1C201.5,264.5,201.3,264.4,198.8,266.6 M136,303
		c-0.6,0.4-1.3,0.8-1.6,0.8c-0.3,0-1.4,0.4-2.4,0.9c-3.8,1.9-6.4,2.8-12.5,4.6c-3.1,0.9-11,3.9-14.4,5.6c-1.9,0.9-4.1,2-4.9,2.4
		c-0.8,0.4-1.8,0.9-2.3,1.2c-0.4,0.3-1.3,0.8-2,1.1c-2.8,1.3-6.3,4.1-8.3,6.8c-2.9,3.8-4,5.2-4,5.4c0,0.1-0.2,0.4-0.4,0.6
		c-0.6,0.5-2.4,4.4-3.4,7.3c-1.6,4.9-1.2,11.6,1,16.3c1.2,2.6,1.3,2.4,0.8-1c-0.6-4.1-0.4-10.4,0.4-12.8c1.7-4.8,5.8-11.2,9-13.8
		c4-3.3,5.9-3.7,3-0.6c-0.8,0.8-1.2,1.3-0.9,1.1c0.8-0.6,0.2,0.7-2,4.5c-1.2,2-1.3,2.7-0.3,1.3c3.4-4.5,11.1-10.3,18.5-14
		c3.2-1.6,5.4-2,2.7-0.5c-12.4,6.9-21.3,15.4-23.9,22.7c-0.2,0.7-0.8,2-1.2,2.9c-2.4,5.1-1.9,14.7,1,19.5c2.4,4,3,4.2,1.3,0.5
		c-2.4-5.3-2.7-9.2-1.5-15c0.5-2.6,1.3-4.8,1-2.8c-1.1,6.4-1.2,8.8-0.1,12.9c1,3.8,4.2,9.7,6,10.9c0.8,0.5,0.9,0.6-1.1-2.5
		c-7.1-10.9-2.5-26.5,10.6-36.2c8.8-6.5,12.6-8.2,27.5-11.8c5.6-1.4,7.1-1.9,8.9-3c0.6-0.4,2.4-1.3,4-2.2c3.2-1.7,5.4-3.3,6.1-4.3
		c0.7-1.1,0.3-1-1.2,0.2c-1.5,1.1-6.9,4-7.6,4c-0.6,0-0.2-0.4,1.9-2c2.2-1.6,5.8-4.9,5.8-5.3c0-0.6-1.1-0.2-2.7,0.9
		c-5.8,4-13.5,7.4-24.2,10.7c-2.3,0.7-5.7,1.8-7.5,2.4c-1.9,0.6-3.4,1.1-3.4,1c0-0.3,5-2.5,7.6-3.4c5.6-2,13.4-5.4,17.2-7.5
		c2.5-1.4,8.4-5.3,8.6-5.7c0.1-0.2-2.4-1.4-3-1.4c-0.1,0-1.9,1.2-4,2.6c-5.1,3.4-16.9,9.2-17.5,8.5c-0.1-0.1,2.1-1.3,4.7-2.8
		c6.7-3.8,14.2-9.3,13.4-9.8c-0.3-0.2-0.3-0.4-0.1-0.7C138.9,302,137.6,301.8,136,303 M196,306.2c4.9,1.6,10.2,6.1,11.9,10.1
		c2.9,6.8-3.8,14.5-15.6,18c-1.8,0.5-4.1,1.3-5.3,1.7c-1.1,0.4-2.2,0.8-2.3,0.8c-0.9,0,5.5-3.3,7.8-4c3.8-1.2,8.7-4.5,9.7-6.4
		c0.3-0.6,0.6-1.1,0.8-1.2c0.6-0.4,1.4-2.4,1.6-4.3c0.7-5.6-3.4-11.2-10.7-14.7C190.9,304.8,191.7,304.8,196,306.2 M158,314.5
		c-0.8,2.3-2.5,4.5-4.4,5.9c-0.8,0.6-2.7,2-4.1,3c-3.8,2.9-5.5,3.9-11.7,7.1c-3.1,1.6-5.7,2.9-5.7,2.9c0,0.1,8.6-1.3,9.4-1.6
		c4-1.1,12.2-4.7,15.1-6.5c4.5-2.9,8.8-9.4,6.9-10.4c-0.7-0.4-0.5-0.5-1.4,1.3c-1.3,2.6-7.4,7.9-11.7,10.1c-3.3,1.7-3.4,1.4-0.4-0.8
		c6.2-4.4,11.6-11.1,9.9-12.3C159,312.5,158.7,312.7,158,314.5 M143.3,321.1c-1,0.4-3.1,1.4-4.7,2.2c-1.6,0.8-4.7,2.2-6.9,3
		c-2.2,0.9-5.3,2.1-6.9,2.8c-1.6,0.7-4.4,1.8-6.1,2.5c-12.8,5.1-23.2,14.3-24.7,22c-1,5,1.3,13.8,4.9,18.5c1.9,2.6,5.2,5.2,9.2,7.5
		l1.3,0.8l-2.2-2.2c-8.3-8.3-11.5-17.9-8.5-25.6c1-2.5,1.8-3.5,1-1.1c-0.8,2.3-0.8,8.5,0,11.4c1.6,6,5.9,10.9,13.9,16.2
		c1.1,0.7,1.6,1,1.1,0.6c-8.5-6.8-11.6-12.1-11.6-20.1c0-12.6,5.6-18.5,28.7-29.8c5.6-2.7,10.4-5.6,13.3-8
		C146.8,320.1,146.1,319.8,143.3,321.1 M288.9,333.6c-1,0.1-2.4,0.4-3.1,0.5c-0.7,0.2-1.8,0.3-2.3,0.3c-0.5,0-1.8,0.2-2.9,0.5
		c-1,0.3-3.3,0.8-5,1.2c-1.7,0.4-3.8,0.9-4.5,1.1c-2.6,0.8-6.7,2-9.7,2.8c-1.2,0.3-2.7,0.8-3.3,1c-2.3,0.8-4.9,1.7-5.7,2.1
		c-3.5,1.5-7.6,3.1-12.1,4.6c-3.4,1.1-6.4,2.4-11.6,4.9c-4.8,2.3-12.2,4.7-18.8,6.1c-2.1,0.5-5.3,1.2-7.1,1.6
		c-8.9,2.3-24.1,2.3-30.6,0.1c-2.3-0.8-2.5-0.7-0.8,0.2c3.7,2,8.3,3,14.5,3.3c2.5,0.1,5.4,0.3,6.5,0.4c3.1,0.4,6.3,0,20-2.1
		c1.8-0.3,3.2-0.5,3.3-0.4c0.1,0.1-5.2,1.9-8.6,2.9c-1.8,0.5-4.5,1.5-6,2.1c-3.4,1.5-7.7,2.7-10.5,3.1c-3.3,0.4-11.7,0.9-14.2,0.7
		c-2.9-0.2-2,0.1,3,1c3.7,0.7,12.6,1,15.3,0.6c3.3-0.5-5.7,3-10.6,4.3c-13.3,3.2-29.8-1.5-34.2-9.7l-0.5-0.9l-0.1,1
		c-0.4,4.4,4.5,8.6,13.9,11.9c6.6,2.3,19.7,2.6,25.8,0.6c1.2-0.4,4.1-1.2,6.3-1.7c5.2-1.3,10.1-2.8,12.5-3.9c0.6-0.3,2-0.9,3.1-1.3
		c2.9-1.3,7.8-3.7,13.2-6.7c2.6-1.5,5-2.6,5.3-2.6c0.3,0,1.5-0.6,2.8-1.4c2.7-1.6,7.4-3.8,12.7-6c2.1-0.8,4.8-2,6.2-2.6
		c3.2-1.3,6.2-2.4,11.2-3.9c2.2-0.7,5.5-1.7,7.3-2.3c6.5-2,13.4-2.8,21.6-2.5l4.4,0.2l2.7,1.2c5.2,2.3,8.2,6,8.6,10.5
		c0.1,1.7,0.2,2,0.7,2c1.8,0,1-6.7-1.2-9.7c-1.2-1.7,1.7,0.1,3.5,2.1c2.2,2.5,2.3,4.8,0.5,8.6c-1.2,2.5-0.3,2.7,1.4,0.4
		c4.1-5.6,1.1-13.3-6.4-16.4c-1.4-0.6-2.9-1.4-3.3-1.7l-0.7-0.5l0.9,0.2c0.5,0.1,1.7,0.3,2.6,0.4c7.6,1.1,12.7,5.3,13.8,11.2
		c0.3,1.3,0.2,1.7-0.1,2.1c-0.2,0.3-0.6,1-0.7,1.5c-2.4,7.7-14.4,12.5-34.3,13.6c-6.1,0.3-10.2,2-13.6,5.3c-2.9,2.9-3.4,4.4-2.1,7.2
		c0.7,1.5,1.5,2.4,1,1.1c-0.8-2.2,0-5,2-6.7c3.3-2.9,4.6-3.3,15.1-4.2c11-1,9.9-0.7,18.9-3.8c11.3-3.9,17.7-12.4,15.8-20.8
		c-0.3-1.1-0.3-1.1,0.3-0.8c1.8,1.2,1.7,7.5-0.2,11.6c-0.9,1.9-0.8,1.9,1.2-0.3c1.9-2.1,4.1-6.2,4.1-7.5c0-3.4-3.4-8-7-9.4
		c-1-0.4-2.7-1.1-3.6-1.5c-4.7-2.2-15.6-3.8-21.9-3.2c-1.8,0.2-5,0.4-7.1,0.6c-7,0.4-20,4-29.1,8c-4,1.7-4,1.3,0-0.8
		c3.9-2.1,18.8-7.1,24-8.1c4.9-1,7.1-1.2,14.3-1.4c5.2-0.2,6.2-0.2,5.1-0.4c-0.8-0.1-2.2-0.5-3.1-0.8
		C295.2,333.5,291.6,333.2,288.9,333.6 M193.5,341.7c-0.3,0.2-0.6,0.7-0.6,1c0,0.8,2.6,5.5,3.7,6.7c1,1.1,1,1.2-0.1,0.7
		c-3.2-1.4-5.9-3.7-7.6-6.3c-0.9-1.5-1.7-1.7-1.8-0.4c-0.4,4.2,11.6,13.5,15.1,11.7c0.4-0.2,1.4-0.6,2.3-0.8c0.9-0.2,1.8-0.5,2-0.6
		c0.2-0.1-1-0.8-2.6-1.6c-2.7-1.4-5.8-3.6-4.4-3.1c0.3,0.1,1.3,0.5,2.3,0.8c5.1,1.8,14.3,2.9,14.3,1.8c0-0.5-2.8-1.2-8-2
		c-4.7-0.7-7.8-2.3-11.1-5.8C194.4,341.1,194.4,341.1,193.5,341.7 M180,345.3c-2.7,2.9,0,11,3.8,11.3c1.4,0.1,1.5,0.1-0.2-1.5
		c-1.5-1.6-3.2-4.6-3.2-5.8c0-0.8,0-0.8,0.8,0.6c2.3,4.1,6.3,6.8,9.2,6.3l1-0.2l-1.5-0.5c-4-1.3-7.2-4.7-7.8-8.4
		C181.8,344.7,181.1,344.1,180,345.3 M288.4,348.6c-0.7,0.2-1.5,0.5-1.9,0.6c-0.4,0.2-1.2,0.2-1.7,0.2c-2.4-0.3-14.8,3.4-22.1,6.7
		c-0.9,0.4-1.7,0.7-1.8,0.7c-0.1,0-2,0.9-4.2,1.9c-7.4,3.6-11.8,5.6-13.3,6.1c-3,1-7.2,2.7-10.6,4.3c-0.9,0.4-2.2,1-2.9,1.3
		c-1.3,0.6-5.7,2.8-14.5,7.3c-2.1,1.1-4.8,2.3-5.9,2.7c-1.1,0.4-4.9,2-8.5,3.5c-7.3,3.1-11.6,4.6-14.8,5.2c-1.2,0.2-3.8,0.8-5.7,1.2
		c-6.1,1.3-10.8,1.9-16.5,1.9c-2.8,0-6.8,0.2-9,0.4c-11.5,1.1-22.8,0.4-30.1-1.9c-0.6-0.2-0.6,0.3,0.1,0.7c0.3,0.2,1.6,0.5,2.9,0.8
		c1.3,0.3,3.5,0.8,5,1.2c6.6,1.6,12,1.9,26.3,1.3c3.2-0.1,5.7-0.1,5.6-0.1c-0.1,0.1-6.7,0.9-13.5,1.5c-6.9,0.7-13.4,0.3-21.1-1.2
		c-10.2-1.9-14.9-3.5-21.6-7.5c-3.3-1.9-3.4-1.4-0.1,0.7c6.4,4.2,12.7,6.8,20.9,8.9c12.9,3.3,34.3,2.8,43.8-1
		c0.9-0.4,2.4-0.8,3.3-0.9c4.3-0.7,13.4-3.4,22.3-6.8c1.7-0.6,6.1-2.3,9.9-3.7c3.7-1.4,8.1-3.2,9.7-4c1.6-0.8,3.5-1.7,4.3-2
		c0.7-0.3,2.8-1.3,4.7-2.2c1.8-0.9,4.1-2,5.1-2.4c2.3-1,11-4.6,12.4-5c0.6-0.2,1.3-0.4,1.6-0.6c4-1.7,5.4-2.4,7.5-3.3
		c1.3-0.6,3.5-1.7,4.9-2.3c1.4-0.7,3.2-1.5,4-1.8c0.8-0.3,1.7-0.7,2-0.8c4.7-2,11.7-4.4,16-5.5c2.1-0.5,4.2-1.1,4.8-1.3
		c2.2-0.9,9.6-0.5,11.2,0.6c4.4,3,2.4,8.9-3.5,10.2c-2.8,0.6-3,1.9-0.3,1.7c3-0.3,6.9-2.8,8.5-5.5C305.2,354,297,346.4,288.4,348.6
		 M350.2,348.5c-3.8,0.7-13.7,5.6-18.9,9.3c-1.1,0.8-6.3,5-6.9,5.6c-0.2,0.2-1.2,1-2.3,1.9c-1,0.8-2,1.6-2,1.6
		c-0.1,0.1-0.7,0.6-1.3,1.1c-0.7,0.5-1.7,1.4-2.3,1.9c-0.6,0.5-1.4,1.2-1.9,1.4c-0.4,0.2-1.5,0.9-2.3,1.5c-3.9,3-6.8,4.6-8.9,5.2
		c-1.2,0.3-3.3,0.9-4.8,1.3c-5.3,1.6-14.1,1.3-16.1-0.6l-0.6-0.6l0.2,0.7c1,3.5,5.1,5.2,10.4,4.5c2.5-0.4,3.4-0.2,2.4,0.3
		c-1.3,0.7-9.8,2.2-12.4,2.2c-2,0-2.9,0.3-2.5,0.7c0.1,0.1,2.6,0.2,5.7,0.3l5.6,0.2l2.8-0.8c1.7-0.5,4.9-1.9,8.1-3.5
		c2.9-1.4,5.7-2.7,6-2.9c0.8-0.3,8.2-5.8,9.5-7.1c0.5-0.5,1.6-1.4,2.4-2c1.4-1,8-6,10.5-7.9c7.1-5.4,18.1-10.5,22.8-10.5
		c2.3,0,2.3-0.2,0.3-0.5c-1.3-0.2-3.2-0.1-6.6,0.4l-1.2,0.2l1.4-0.7c3.7-1.8,8.5-1.7,12.9,0.3c1.1,0.5,2.8,1.3,3.8,1.7l1.9,0.8
		l-1.9-1.8C360.1,348.9,355.5,347.6,350.2,348.5 M353.3,355.8c-9.9,1-17.6,5.7-32.7,19.8c-1,1-0.9,1,0.4,0.1c0.4-0.2,2-1.3,3.6-2.3
		c1.6-1,4.5-2.8,6.3-4c10.8-6.9,19.6-9.3,27.7-7.5c3.4,0.7,3.6,0.8,9.5,4.8c7.9,5.3,13.5,6.2,17.9,2.9c0.7-0.5,2.4-1.7,3.8-2.6
		c1.4-0.9,3.6-2.5,4.9-3.7c3-2.6,4.2-3.3,6.8-4c2.2-0.6,2.8-1.3,1.1-1.4c-1.3-0.1-6.1,1.7-8.1,3c-0.9,0.6-2.4,1.5-3.2,2
		c-0.9,0.5-2.5,1.5-3.6,2.3c-4,2.7-12.9,3.6-15.2,1.6c-0.8-0.8-7.6-4.4-8.1-4.4c-0.2,0-0.9-0.4-1.5-1c-1.5-1.3-3.9-2.3-6.9-3.1
		c-1-0.2-1.1-0.3-0.7-0.6c1.4-0.8,5.2,0.7,13.9,5.6c4.1,2.3,10.6,3.2,13.7,1.9c1.6-0.7,0.7-0.9-2.7-0.7c-3.7,0.2-6.1-0.1-7.4-1.1
		c-0.5-0.3-2-1.1-3.4-1.8c-1.4-0.7-3.2-1.8-3.9-2.4c-1.8-1.5-3.9-2.7-6.4-3.3C356.7,355.4,356.6,355.4,353.3,355.8 M290.7,357
		c-0.5,0.1-0.8,0.3-1,0.7c-0.4,1-1.9,1.9-4.8,2.8c-3.1,0.9-3.3,1-2.6,1.5c0.9,0.7,7.2,0,9.6-1C295.5,359.5,294.5,356.5,290.7,357
		 M268.8,364.8c-4,1.4-5,1.9-5.6,2.4c-0.3,0.3-1.2,0.9-1.9,1.4c-5.1,3.4-7.3,6.9-7.4,11.8c-0.1,6.6,4.3,11.7,10.8,12.4
		c0.9,0.1,2.3,0.3,3.1,0.6c3.6,1,17.9,0.7,22-0.4c4.4-1.2,4.4-1.6,0.1-0.8c-12,2.2-26.5-1.8-29.5-8.1c-1.2-2.5-0.6-6.8,1.2-9.7
		c1.3-2,1.2-2.1-0.2-0.6c-1.5,1.6-2.2,2.8-3.1,5.3l-0.6,1.7l-0.2-1.5c-0.6-4.7,5.9-11.5,13.7-14.3c0.9-0.3,1.7-0.6,1.7-0.7
		C272.9,363.8,270.6,364.1,268.8,364.8"/>
</g>
</svg>
