<svg xmlns="http://www.w3.org/2000/svg" viewBox="0 0 410 410"><path d="M339.2 34.6c-.1.1.4.6 1 .9 3.3 1.9 2.8 3.9-1.6 6.2-7.1 3.7-8.6 8-4.3 12.3 4.9 4.8 5.6 9.8 2.4 16.1-.5 1-1.2 2.7-1.6 3.8-.4 1.1-.8 2-.8 2-.2-.2.4-5.7.8-7.8 1.6-7.7 1-10.8-2.4-13.1-2.6-1.8-3.5-4.2-2.6-7 .1-.5.1-.6-.2-.5-.5.2-1.1 2.2-1.1 3.7 0 1.6.8 3.2 2.6 5 3.6 3.8 3.7 8.3.4 17.7-1.7 4.9-2.1 6.7-2.2 10.2-.1 2.7-.4 2.2-.6-.9-.2-2.9.4-7.1 1.6-11.5 1.2-4.4.9-7.2-.9-9.2-.9-1-1-.6-.2 1 1 2 .9 5.7-.4 9.4-3.2 9.7-2.1 17.3 3.5 23.1 2.2 2.2 2.3 2.4 1.7 1.3-1.5-2.8-2.6-6.3-3.1-10.1-.4-3.3.2-6.5.7-3.5.1.6.5 2 .9 3s.8 2.3.9 2.8c.6 2.7 3.9 7.9 7.1 11.1l2.2 2.1-2.2-3.3c-7.9-12.1-8-20.5-.4-31.4 5.2-7.4 4.3-12-3.1-16.3-2.6-1.5-2.9-1.9-2.6-3.4.3-1.9 1.2-3 3.7-4.6 5.3-3.4 5.7-4 4.3-7-.5-1.4-3.1-2.9-3.5-2.1m-134.1.3c-8 1.9-14.5 6-23.7 14.7-7.4 7-8.3 7.9-11.1 11.2-7.3 8.4-7.7 9.7-6.9 24.6l.2 3.1.5-2.1c.3-1.2.6-3.5.7-5.1.3-3.6 1.5-8.5 2.7-10.8 1.2-2.4 4.6-7.8 5-7.9.2-.1 1.3-1.3 2.4-2.7 3.8-4.7 11.6-12.3 17.1-16.5 2.5-1.9 10.1-5.4 11-5 .2.1-.2.4-.9.7-4.2 1.9-6.9 3.4-8.7 5.2-1.8 1.7-1.8 2.2 0 .8 6.8-5 15.4-6.2 21.9-3 3.2 1.5 3.5 1.9 1 1.1-2.4-.8-5-1.4-5.1-1.1-.1.1-.6.1-1.3 0-4.5-1-10.8 1.4-15.5 6-2.2 2.1-1.7 2.2 1.2.3 6.4-4.2 10.2-5.1 14.9-3.4 1.7.6 6.9 3.2 7.7 3.9l.7.5-.9-.3c-.5-.2-.9-.2-1-.2-.1.1-.6 0-1.3-.3-8.8-3.2-14-2.6-20 2.2-1.5 1.2-2 2-.5 1 4.1-2.9 8.1-3.8 12.3-2.7l1.5.4-2.5.2c-4.3.3-7.2 1.2-9.5 3.1-1.1.8-1 1 .5.5 7.5-2.6 15.5-1.3 21.2 3.5l.8.7-1.6-.5c-4.7-1.6-9.4-2.2-13.3-1.8-2.8.3-2.8.7.1.7 1.9 0 7.1.8 8 1.1 1.5.6.2.8-4.4.7-2.6-.1-5.3-.1-6 .1l-1.3.2 2.4.3c10.4 1.5 14.5 3.2 21.1 8.8 1.9 1.6 2.7 2.8 1.1 1.5-1.2-.9-6.5-3.9-6.9-3.9-.2 0-1.4-.4-2.6-1-3.3-1.4-4-1.6-10.2-2.5-7.4-1.2-9.4-.9-15.4 2-1.3.6-2.9 1.4-3.6 1.7-3.8 1.6-8.1 6.7-10.9 12.9-.8 1.7-1.9 3.9-2.4 4.9-.6 1.2-1.3 3-2 5.8-2.7 11-3.7 13.6-7.1 18.9-6.1 9.5-7.5 12.1-8.5 15.3-1.5 5-.5 10.5 2.4 12.8 1.5 1.1 1.6.7.3-.8-3.4-4-2.2-10 4.1-19 6.3-9.1 7.9-13 10.7-26.2 2.6-12.2 10.2-21.9 20.3-26 2.9-1.2 5-1.2 10.5-.3 2.1.4 4.7.7 5.7.8 1.1.1 2.5.4 3.3.8 4.9 2.3 6.1 2.9 8 4.3 3.1 2.2 4.5 3.7 6 6.4 4.6 8 9.9 14.3 16.4 19.7 5.2 4.3 15.8 14.5 18 17.5.7 1 2 2.5 2.8 3.5 6.5 7.8 7.2 14.8 1.8 19.9-2.9 2.8-6.8 4.3-11.1 4.3-7.6 0-12.5 1.3-14.3 3.8-1 1.4-.3 2 .9.8.4-.4 1.4-1.1 2.3-1.5l1.6-.8 6.1-.1c9.9-.1 12.7-1.2 17.8-6.9 4-4.4 5.2-7.8 4.9-13.2-.4-7-3.1-11.4-12.1-19.9-9.9-9.4-14.7-15.3-18.4-22.5-1.4-2.8-3.5-6.8-4.5-8.7-1.6-3.1-2.3-4.2-4-6.5-.3-.4-.3-.6-.1-.8.6-.6 4.4 4 6.3 7.8.3.5.7 1.1.9 1.2.2.2.8 1.2 1.3 2.3 3.6 7.9 9.6 15.6 14.9 18.9 3.5 2.2 5.2 4 6.2 6.7.5 1.3.5 1.3.4.4-.3-1.8-1.8-4.5-3.5-6-10.2-9.6-12.9-13.3-17.8-24.5-1.3-2.9-2.6-5.6-3-6.2-.8-1.2-.9-2.1-.2-1.5.8.7 2 2.6 3.9 6.4 1 2.1 2.4 4.8 3 6 1.6 3.1 1.5 2.5 0-1.4-1.9-4.8-3.5-9.2-3.4-9.3.3-.3 2.5 3.5 4 7.2 1.4 3.3 2.5 5.3 4.5 7.8 1.9 2.4 2.7 3.8 3 5.3.4 2.2 1 3.1 1.3 2 .5-1.5-.8-5.2-2.8-8-1.7-2.3-4.9-8.6-5.7-11.2-.3-.8-.8-2.3-1.3-3.3-.4-1-1.2-3-1.7-4.3-2.5-6.8-4.8-9.5-13-15-3.7-2.5-11.2-6.2-14.8-7.4-2.8-.9-4-1.3-6.5-2.3-1.4-1.1-4.5-1.2-6.3-.8M338 54.6c2.7 2.4 3.9 6.5 2.9 9.5-.7 2.1-.8 1.9-1-1.1-.2-4.1-1.4-6.9-3.6-9-.3-.3-.6-.6-.6-.8.1-.3 1.3.4 2.3 1.4m6.5 15.8c-.7 1.1-.8 3.4-.1 4.9 1.4 3.1.9 6.9-1.3 10.8-2.2 3.7-2.6 7.1-1.4 9.7.7 1.4.8 1.2.6-.6-.6-3.4.3-5.7 3.3-8.9 3.6-3.9 3.7-5.3.6-11.6-1.2-2.4-1.3-3.1-.8-4.4.2-.7-.4-.6-.9.1m-173.7 1.1c-.8 1.1-1.4 2.7-2.1 5.7-1.8 7.3-5.9 18.8-7.7 21.7-.6.9-2 3.2-3.1 5.1-1.1 1.9-2.6 4.3-3.2 5.3-4 6.4-6 12.8-5.4 17.1.7 4.9 5.3 12.1 7.7 12.1.8 0 .7-.4-.4-1.1-6.3-3.9-5.5-18.6 1.6-27.1 3.6-4.4 6.2-9.1 7.2-13 .4-1.4 1-3.7 1.3-4.9.4-1.3.9-4 1.2-6 .3-2 .7-4.1.8-4.7.1-.5.5-2.4.9-4.1.4-1.8.9-3.8 1.2-4.6.9-1.8.8-2.6 0-1.5m32.6.2c.1.1.7.3 1.4.3 1.3 0 2.3.4 2.1.8-.1.1-.8.3-1.5.3-1 0-1.3.1-1 .3.2.1.8.3 1.2.3.5 0 1 .2 1.2.4.2.2.6.5.9.7.3.1-1.6.2-4.7.3-7.5.1-8.3.7-1.7 1.3 1.8.2 3.4.3 3.6.3.9-.1 1.9 0 1.8.2-.1.1-2.7.3-5.7.4-10.5.4-7.6 1 7.3 1.5 3.5.1 6.6.3 6.8.4.9.6-1.6.8-11.8.8-13.5.1-14.3.4-3.5 1.3 2.9.2 6.9.5 8.9.5s3.5.1 3.3.2c-1 .5-7 .8-12.5.7-9-.2-7.1.2 3.6.9 2.6.2 5.5.4 6.2.6.8.1 2.5.3 3.7.3 2.6 0 3.8.4 1.9.6-6.4.8-11.1.7-16.5-.1-3.6-.5-6.5-.2-5.1.5.3.2.5.5.5.8 0 .3.7 1.2 1.5 2.1 1.3 1.3 1.7 1.9 2.3 3.7 1.1 3.2 1.1 3.3 1.9 3.4 1.8.5 2.8-2.3 1.8-5.3-.7-2-.6-2 .6-.7 1 1.1 1.4 2.2 1.7 4.6.2 1.5.6 2.3 1.3 2.3.6 0 1.8-1.1 1.8-1.7 0-2.1 2.3-6.2 3.5-6.3.9-.1 1 .1.2.8-1.3 1.2-2.6 5-2.2 6.6.3 1.1 1 1.3 1.3.3 1-4.6 4.5-8.1 9.1-9.1 2-.5 2.2-.7 1.6-1.3-.3-.3-.5-1-.6-1.6-.1-.6-.4-1.3-.6-1.6s-.8-1.3-1.2-2.1c-1.1-2.2-5-6.2-7.3-7.3-2.3-1.4-7.6-2.3-7.1-1.4m121.5 9.6c-.2.9-.5 2.5-.7 3.4-1.1 4.7 0 9 2.9 12.5 1.2 1.4 1 1.4-.9.1a8.93 8.93 0 0 1-3.5-5.1c-.7-2.3-.9-2.3-.7-.1.4 4.8 4.1 8.4 12 11.8 8.2 3.5 11.7 9.1 12.2 19.7l.2 3.5.4-1.2c.6-1.8.5-10.8-.1-12.8-1.4-4.5-4.5-7.8-11.6-12.1-7.7-4.7-9.7-8.1-9.3-16.1.1-2.1 0-3.6-.2-4.2l-.3-1-.4 1.6M221.1 89c-2.4.7-7.1 5-8.5 7.7-.8 1.5-.2 1.6 1 .2 3-3.4 6.1-5.9 8.3-6.6 2.5-.8 1.7-2.1-.8-1.3m-32 1.7c-.5.6-.2.9 1.9 1.9 1.2.6 2.4 1.5 3.6 2.7 1.9 1.9 2.3 2 1.8.5-1-2.8-6.1-6.4-7.3-5.1m30.8 5.2c0 2.6.4 2.7 1.6.6l.8-1.4-.6-.6c-1.3-1.4-1.8-1-1.8 1.4m-32.7-.9c-.4.8.8 3.1 1.7 3.1.9 0 .8-3-.2-3.4-.9-.5-1.1-.5-1.5.3m173 .5c-1.3 1.2-2.4 3.5-2.7 5.9-.3 2.9-.2 3.2 3.7 7 4.7 4.6 5.4 6.3 4.8 11.4-.2 2-.6 3.2-2.9 9.5-2 5.6-2.7 12.5-1.6 16.5.8 3.1 1.5 4.2 4.7 7.5 7.2 7.4 10.1 16.4 8.5 26.5-.3 1.6.3 1.1 1.3-1 1.2-2.7 1.6-5.5 1.5-9.9l-.1-3.7-1.2-2.5c-2.2-4.4-5.8-8.7-8.6-10.3-5.7-3.2-6.6-14.5-1.8-24.6 3.7-7.8 4.6-12.1 3.4-14.8-.6-1.3-2.1-3.2-1.8-2.3.6 1.7 1 4.5.8 5.7l-.2 1.3-.3-2c-.7-3.9-2.5-7.1-5.4-9.5-2.9-2.5-3.4-5.4-1.5-9 .6-1.2 1.1-2.2 1.2-2.3-.2-.6-.8-.2-1.8.6m-16 1.8c.3 1.6 1.7 4.1 3.7 6.4 5.1 6.1 7.1 12 6.3 19.1-.5 5.2-.8 7.1-1.2 9-.6 2.7-.3 2.8.4.1.3-1.2.9-2.9 1.3-3.7 1.6-3.6 2.4-9.1 2-12.3-.6-4.4-1.6-6-7.9-13-.9-1-2.3-2.8-3.2-4.2-1.4-2-1.6-2.2-1.4-1.4m-150.5 1.3c0 .9.1 1.1.5 1.1.9 0 1.2-.9.4-1.6-.8-.8-.9-.7-.9.5m28 .4c-3.7 2.6-4.2 2.9-5.9 2.9-2.6 0-1.4 1.1 1.5 1.4 2.7.3 7.2-2.9 6.9-4.9-.2-1.1-.2-1.1-2.5.6m-7.9-.5c-.6.8-.3 1.3 1.1 1.6.8.2 1.2-.2.6-.6-.1-.1-.3-.5-.3-.9.1-1-.7-1.1-1.4-.1m-8.6 1.5c-.6.6-.4 6.3.2 6.6 1.5.8 3.9-.3 3.6-1.7-.1-.4-.2-1-.2-1.3 0-.4-2.8-4-3.2-4 0 .1-.2.2-.4.4m-10.6.8c-2.7.9-3.2.9-4.2.6-1.7-.6-1.2.2.5 1 1.4.6 1.7.7 3.1.4 2.5-.4 2.8-.5 2.9-1.1.5-1-.6-1.5-2.3-.9m180.8 3.8c2 4.2.2 11.7-4.7 19.7-5.6 9.1-5.9 17.4-1 24.1.8 1.1 1.9 2.7 2.5 3.7 6.9 11.4 7.7 13.6 7.7 19.8v4.1l-1.4 3c-.8 1.6-1.4 3.2-1.4 3.4 0 1.9-3.7 10-5.7 12.3-2.8 3.4-7.1 5.8-10 5.6l-1.8-.1 2.5-1.3c3.7-1.8 6.6-5.1 8.4-9.2 1.1-2.4.7-3.6-.5-1.4-3.1 6.1-8.1 9.2-15.3 9.3-3.6 0-10.5-9.2-10.5-14 0-.3-.1-.6-.3-.6-.8 0 .4 5.4 2 8.5 1.1 2.3 2.1 3.4 6.6 7.7 1.1 1.1 4.6 2.5 6.2 2.5 9.4 0 16-5.1 18.6-14.3.9-3.1 1.3-3.7 4.9-7.9 5.3-6.1 6.7-8.8 6.7-12.8 0-2.6-.1-2.8-2.6-6.4-1.6-2.3-5.3-6.5-4.2-4.8 1.9 3.1 3.4 7.1 3.7 10.4.3 3.1 0 4.3-.5 1.7-.2-1-.5-2.3-.8-2.9l-.5-1v3.3c-.2 3.8-1.1 7.9-2.4 10.3-1 2-1.3 1.7-.5-.8 1.6-5.1 0-13.2-3.9-19.2-1.6-2.5-1.9-3.2-.6-2.1 1.7 1.6 3.9 5.2 4.5 7.4.6 2.2.7 2.5 1 2.2 1.2-1.2-2.5-8.7-6.3-12.8-2.9-3.1-5.4-6.9-6.1-9-.2-.6-.6-1.5-.9-1.9-.8-1.1-.5-4.6.8-8.4 1.2-3.7 1.4-3.9 1.4-1.3 0 6 3 12 8 16.1 1.3 1.1 2.9 2.4 3.5 3 .6.6 1.2 1 1.3.9.3-.3-.8-1.7-3.9-4.7-6.7-6.5-7.9-12.8-4.1-20.2 3-5.8 3.3-6.4 3.8-8 .3-1 .5-2.1.5-2.8l-.1-1.2-.3 1.2c-.7 2.3-1.5 4.1-3.2 6.9-1 1.6-2.1 3.6-2.5 4.4-1.5 3.3-.2-1.6 2-7.2 2.1-5.3 2-13.1-.1-15.5l-.8-.9.3 1.2m-190.8 3c0 .3 1.9 1.3 3.9 2 1 .3 3.5 1.3 5.5 2.1s4.5 1.7 5.5 1.9 1.9.5 1.9.7c0 .1-.1.2-.3.1-.7-.3-4.2-.8-4.4-.7-.4.4.4.8 3.3 1.7 4.1 1.3 4 1.2 3.5 1.4-.9.2-8.2-1.7-14.1-3.6-1.7-.6-3.1-1-3.2-.9-.4.4 10.1 4.8 14.3 5.9 1.4.4 2.6.7 2.7.8.3.3-3.4-.2-4.6-.6-.7-.2-1.4-.4-1.5-.3-.4.4 1.6 1.7 3.3 2.2.9.3 1.8.7 1.8.9.2.6-2.3.1-7.5-1.6-5.6-1.8-6.3-2-6.3-1.6 0 .6 6.6 3.5 11.4 5.1 3.7 1.2 3.8 1.3 1.3 1.3s-2.6.3-.2 1.1c3.9 1.2 1.6 1.6-3.3.6-3-.6-3.3-.7-3.3-.4 0 .7 4.4 2.2 7.5 2.6 1.4.2 1.6.4 1.4 1.2-.2.7-2.3.5-5.4-.6-1.4-.5-2.2-.6-2.1-.4.2.5 3.1 2 5.2 2.6 1.4.4 1.9.7 2.1 1.1.2.8.1.8-1.7.4-2.5-.5-2.6-.2-.2 1 1.2.6 1.6.9 1.7 1.4.1.8 0 .8-3.2-.6-6.3-2.6-6.1-1.2.3 2.3 2.4 1.3 2 1.8-.8.8-2.2-.8-2.1 0 .2 1.4.4.3.3.3-.7.2-1.2-.2-5-1.7-5.9-2.3-.2-.2-.1.1.4.6 1.9 2.1 5.8 3.9 12.2 5.6 3.7 1 4.7.9 7.8-1.2 1-.7 1.9-1.2 2-1.2 1.2 0 7-4.5 9.9-7.8l2.2-2.5-1.6 1.3c-4.2 3.4-7.4 5.5-8.3 5.5-.8 0 4.6-5.5 7.6-7.9 3.6-2.7 6.6-5.9 6.5-6.7-.2-.9-.2-.9-2.9 1.6-2.4 2.2-5.5 4.7-7 5.6l-.8.5.3-.6c.2-.4.2-.7 0-.9-.3-.4 1.3-2.1 3.9-3.9.9-.6 1.7-1.3 1.7-1.5 0-.5-.5-.4-1.3.2-1.3 1-3.9 2.1-5.1 2.3l-1.2.2.5-.6c.3-.3 1.8-1.2 3.3-2 3-1.6 7.3-4.3 7.4-4.9.2-.7-.8-.3-3.3 1.3-1.9 1.2-3.2 1.8-5.2 2.4-1.5.4-3.5 1.1-4.4 1.6-2.4 1.1-2.6 1-.9-.5 1.8-1.6 3.6-2.6 6-3.4 1.9-.7 3.4-1.4 5.6-2.9 1.7-1.2 1.7-1.7-.1-.9-3.6 1.4-5.1 1.9-8 2.7-1.8.4-3.2.7-3.3.7-.1-.1 3.3-2.5 4.4-3.1.6-.3 1.1-.6 1.2-.8s.6-.4 1.2-.6c4-1.3 6.7-3.5 2.9-2.3-2.2.7-6.5 1.6-7 1.5-.7-.1 2.6-2.1 5.2-3.1 2.7-1 2.6-.9 2.3-2.4-.2-1.4 0-1.4-2.8-.6-5.8 1.7-13.8 2.8-19.5 2.8-2 0-2.4.1-2.7.5-.5.7-2.2.4-7.7-1.4-2.4-.8-5.1-1.6-5.9-1.8-.9-.2-1.9-.5-2.3-.7-.8-.1-1.3-.2-1.3.1m152.3 4.3c0 1.3-.2 1.8-1.3 3.6-2 3.4-1.9 5.9.5 7.6 5.7 3.8 7.1 7.3 5.3 12.7-1.7 4.9-1.3 9.7.8 12.3.4.5.4.5.1-.1-1.5-3-1.4-10.2.1-12 .4-.5.5-.6.4-.1-.5 1.3-.5 7.7 0 9.3 1 3.4 3 6.4 6.2 9.2 2.3 2 2.1 1.4-.6-1.6-4.3-4.9-5.2-8.1-3.5-13.7 1-3.4 1-4 .8-6.6-.4-3.6-.8-3.9-.6-.3.1 2.3.1 3.4-.3 5-.6 2.6-1.1 3.1-.9.7.6-6.1-.8-10.7-4.4-14.6-3.4-3.7-3.8-5-2.5-8 .8-1.7.9-3.4.3-4.2-.4-.6-.4-.5-.4.8m22.4 2.9c0 .2.2 1.2.4 2.3.6 3 .5 11.2-.1 15-.7 3.8-.6 4.2.1 1.4 2.3-8.2 2.5-9.6 1.9-13-.4-2-2.3-6.6-2.3-5.7m-82 1.4c-.1.1 0 .6.1.9.5 1.2.3 4.3-.4 6.9-.3 1.3-.8 3.1-1 3.9-1 4.6-7.6 12.5-17.9 21.8-2.1 1.9-4.3 3.9-5 4.5-.7.6-2 1.8-3 2.6s-3.7 3.1-5.9 5c-2.3 1.9-5.3 4.4-6.8 5.4s-2.6 1.9-2.6 2c.6.6 5.1-1.7 8.5-4.4.7-.5 3.4-2.7 6-4.8 2.6-2.1 5.3-4.4 6-5.1.6-.7 2.4-2.3 3.8-3.4 1.4-1.2 3.2-2.8 3.9-3.6.7-.8 2.5-2.8 3.9-4.3 2.9-3.1 6.1-7.3 8.2-10.8.8-1.3 2.3-3.6 3.3-5.2 4-6.3 4.7-9.9 2.3-11.2-1-.5-3.2-.6-3.4-.2m5.8 1.7c-.1.2-.3.8-.4 1.4-.7 3.9-3.5 9.7-8.6 17.6-1.2 1.9-1.3 2-1 2 .6 0 4.9-5.6 6.8-8.7 1.3-2.2 1.7-2.4.7-.3-3.9 7.8-14.4 19.9-24.7 28.8-3.7 3.2-4.4 4.1-1.6 2.1 6.6-4.6 13.2-10.7 16.9-15.6.9-1.2 2-2.4 2.4-2.8 1.8-1.6 6.2-7.6 7.5-10.1.3-.5.7-1.2 1-1.6.3-.4.7-.9.9-1.2.5-.8-.8 2.1-2.9 6.6-1.1 2.3-2.4 4.6-2.9 5.2-.5.6-1.6 2.1-2.4 3.3-1.9 3-5.7 7.5-8.1 9.6-1 .9-2.1 1.9-2.4 2.2-.3.3-2.5 2.4-4.9 4.5a58.1 58.1 0 0 0-4.3 4.2c0 1.1 4.4-1.7 9.7-6.3 1-.9 2.8-2.4 3.9-3.3 6.4-5.4 11.5-10.7 15.1-15.4 1.6-2.2 2.1-2.5 1.1-.8-.4.6-1.2 2-1.8 3.1-.6 1.1-1.8 2.8-2.6 3.9-.8 1-2.1 2.8-2.9 3.9-2.1 3.1-6.8 7.6-14.7 14-2.9 2.4-2.8 2.2-1.1 3.1.8.4 1.6.9 1.9 1.1.6.4 4.9-3 11.3-8.9 1.4-1.3 3.7-3.4 5.2-4.7 4.1-3.7 6.2-5.7 7.8-7.7.8-1 2.1-2.6 2.9-3.5 1.3-1.5 4.8-6.8 7.7-11.3 3.1-4.9 3.3-9.1.6-10.6-.6-.4-.8-.4-1.5.1-.5.3-1.4.5-2.2.5-1.6 0-2.3.4-2.3 1.4 0 2-.7 1.8-.8-.2-.2-3-1.5-4.5-3.9-4.5h-1.3l-.2 1.1c-.3 1.4-.6 1.4-.8.1-.4-1.9-2.4-3.3-3.1-2.3m67 2.2c-.6 4.4-1.1 7.4-1.6 9.1-1.7 5.2 0 12.1 4.6 19.6l.4.7-.8-.7c-1-.9-3.2-4.1-4.2-6.2-.6-1.3-.8-1.5-.6-.7.7 3.6 2.7 7.4 5.4 10.6 4.2 4.8 5.8 7.1 7 9.8 1.3 2.8.8 8.1-.9 11.6-.9 1.8-1.5 3.6-2.5 7.2-1 3.5-1.2 5.2-1.1 8.2.1 2.4 0 2.8-.2 2.1-1.1-3.2-1-8.8.2-12.1.3-.9.9-2.5 1.2-3.6.4-1.1.8-2.4.9-2.8 1.6-4.8.9-10.2-2.1-14.6-2-2.9-2-2.9-1.2-.9 1.7 4.2 1 10.3-1.5 13.9-.6.8-3.4 3-6.5 5.1-6.4 4.2-7.5 9.7-3 14.9l.8.9-.7-1.7c-2.5-6.3-1-9.6 6.6-14.8 4.5-3 5.5-4.6 6.3-9.5.6-3.9 1.1-3.5 1 .9 0 2.9-.1 3.1-1.8 8.5-2.6 8.1-3 11.3-1.7 16 .5 1.8.3 2.3-.2.9-1.9-4.4-1.9-9.2-.1-14.4l1.2-3.6-2.2 2.3c-1.2 1.3-2.7 3-3.2 3.8-.6.8-1.1 1.4-1.1 1.3-.2-.4 1-2.5 2.4-4.3 1.5-1.9 1.4-2-.8-.3-4.9 3.8-4.8 10.9.2 16.2l1.6 1.7-1.2-2.5c-2.2-4.6-2.5-8-.9-10.9 1-1.8 3.1-4.4 2.7-3.2-2.1 5.4-1.7 11 1.1 16.5 1.2 2.4 1.7 2.3 6.8-1 8.2-5.4 11.9-20.2 7.4-29.6l-1.4-3.2c-.8-2.2-2.3-4.9-4.4-8-5.3-7.9-7-14.6-5.4-22.3.1-.7.3-1.5.2-1.9 0-1.4-.5.5-1.2 4.6-1.2 7.2-.6 10.3 3.5 19.9 1.1 2.5.5 2.2-1.5-.7-.7-1-1.9-2.8-2.8-3.9-4.2-5.6-5.9-13.5-4.7-21.3.3-1.9.4-4 .4-6.1-.2-2.8-.2-3-.4-1.5m-209.7 5.4c-2.2.4-5.1 2.4-4.8 3.3.1.2.7.5 1.3.7.6.2 2.2.9 3.5 1.6s2.5 1.3 2.7 1.3c.2 0 .9.2 1.5.5 1.8.8 3.3 1.1 3.8.7.5-.4.2-.7-1.5-1.3-2.3-.9-2.6-1.8-1-3.5.4-.5.5-.8.4-1.8l-.2-1.2-1.6-.2c-.9-.1-1.9-.2-2.3-.3-.4.1-1.2.1-1.8.2m-18.1 1.9c-.6.1-1.2.4-1.4.7-.4.5-.4.5-2.3 0-2.8-.8-9.4-.1-13.6 1.3-2 .7-4.2 3-6 6.3-.5.9-1.2 1.7-1.9 2.2l-1.1.8h-4.3c-4 0-4.4 0-5.5-.6-2.3-1.2-6-.4-7.2 1.6l-.4.6.6-.6c1.8-1.6 4.1-1.7 7-.3 1.1.5 2.5 1.1 3.1 1.3l1.2.3-1.2 1.2c-1.5 1.5-2.6 1.9-3.7 1.3-.9-.5-2.4-.4-2.6.1-.1.2.4.6 1 .9 1.9 1 .8 2.9-1.7 2.9-1.8 0-2 .7-.3.9 1.4.2 2.1.8 2.1 1.7 0 1.7-1.4 2.6-5 3-3.1.4-3.6.6-1.9 1.1 4.3 1.1 6.1.1 10.2-5.5 3.3-4.7 3.9-5.1 7.8-6.3 1.7-.5 3.5-1.1 3.8-1.2.7-.3 2.9-.1 3.4.4.4.3.2 1.5-.4 2.7-.4.8-.1 1 .6.2.8-.9 1.9-1.2 2.7-.7 1.1.7.8 1.7-1 4.4-1.1 1.6-.5 1.2 3-2.3 2.8-2.7 4.2-3.5 6.7-4 .7-.1 2.8.6 4 1.5l.7.5 1-1.5c1.7-2.6 1.9-1.9.6 1.9-1 2.8-1.1 3.3-.6 3.3.6 0 2.8-2.6 3-3.4.3-1.4 1.2-1.4 1.2.1 0 1.7-.3 2-4.7 7-.7.8-1.7 2-2.2 2.5l-.9 1 .8-.2c.9-.2 3.3-1.8 6.6-4.5 3.6-3 5.2-3.5 6-2.1.7 1.3-.6 5.2-2.2 6.7-.8.8-1 1-.6 1 1.1 0 2.1-1 3.4-3.4 2-3.6 2.1-3.8 3.8-4 3.1-.4 4.7 2.7 2.5 4.8-1.3 1.2-1.1 1.7.4.9 2.5-1.3 5 0 3 1.6-2.2 1.8-3.7 3.8-3.7 4.7 0 .4.6 0 .7-.6.1-.4.8-1.2 1.5-1.7 4.2-3.3 2.9 2.2-1.6 6.6-2.4 2.4-3.5 3.9-4.1 6.1-.5 1.7 0 1.7.6.1.9-2.3 2.4-4 4.5-5.3 4.2-2.5 7.6-.3 5.4 3.6-1.1 1.9-.8 2.9.3 1.1 1.8-2.8 3.4-3.2 6-1.1l1.7 1.4.2-1.6c.2-1.6-.1-5.4-.6-7.4-.4-1.6-.3-1.9.2-1.3 1.4 1.3 1.9 3.5 2.1 8.3.1 3.6.2 4.1.6 4.2 1.4.3.3-11.6-1.5-15.4-1.2-2.5-.4-1.9 1 .7 2.2 4.1 3 12.1 1.8 17.2-.5 2.3-.4 3.6.2 2.6.6-1 2.2-7.4 2.3-9.6.3-5.3-2.4-12.2-6.4-16.2l-3.1-3.1c-.9-1-3.9-3.1-4.3-3.1-.1 0 0 .5.3 1.1.9 1.7.8 3.1-.4 5.5-.5 1.1-1 2.4-1 2.9s-.1.9-.3.9c-.4 0-.3-1.5.1-3.3.8-3.2-.1-7.2-2.2-9.1-.7-.7-.7-.6.3 1.6 1.3 2.8 1.3 4.6.2 5.7-1.3 1.2-1.5 1.1-1.5-.9-.1-4.7-2.8-8.3-7.9-10.7-2.9-1.4-6.3-4.4-6.3-5.5 0-.5.7-.1 2.8 1.5 1.4 1.1 2.5 1.6 2.5 1.1 0-.3-3.2-4-4.5-5.1l-1.3-1.1 1.9.6c2.7.9 4 1.6 5.9 3.3 4.7 4.2 6.3 5.4 8.4 5.7.5.1 1.2.4 1.6.7.8.6 1.1.7 1.1.2 0-.6-1.3-1.6-2.6-2-1.6-.5-3.8-2.4-5.4-4.5-.7-1-1.7-2.1-2.2-2.4l-.9-.6.9.2c1.3.2 2.1.8 3.1 2.4 1.9 3 3.3 3.9 6.5 4.5 1.1.2 2.7.7 3.4 1 1 .5 1.4.5 1.4.3 0-.8-1.7-1.8-4-2.4-.9-.2-1.8-.7-2.2-1.1-.8-.8-.8-.8.3-.4.4.2 1.7.4 2.9.5 1.2.1 2.5.3 2.9.4l.8.2-.7-.7c-.5-.5-1.2-.8-2.6-1.1-2.9-.6-4.6-1.4-6.7-3.6-3.2-3.1-6.4-4.3-8.3-3l-.8.5-1.8-.9c-1.7-.7-3.3-1-5-.7m181.6.3c-.2.2-.5 1.1-.9 1.9-.3.9-1.8 3.4-3.4 5.7-3.2 4.8-3.1 4.3-1.2 5.8 4.1 3.2 6.5 3.8 11.2 3.1 7.4-1.2 11.1-1.4 12.2-.9 1.3.6 1.2.7-1.6 1-1.3.1-3.9.7-5.9 1.2-6.3 1.7-12 1-16-1.7-2.8-1.9-2.8-1.9-3.2-1.6-1.3 1 .2 3.1 3.2 4.5 5.2 2.4 9.9 2.4 18.9.1 2.5-.6 5.1-1.2 5.8-1.3l1.2-.2-.6-1.8c-1.4-4.1-2.7-5.7-7.4-9.2-7.1-5.3-11.5-7.6-12.3-6.6m31.4-.2c0 .1.3.9.7 1.9 1.2 3.2.7 6-1.5 8.3-.7.8-2 2.8-3.4 5.4-2.1 4 .5 7.7 8.5 12 2.7 1.4 2.9 1.3.3-.2-3.7-2.2-6.6-5.4-7.3-8.1-.4-1.5-.1-1.5.5-.2 1.4 3.2 3.8 5.4 8.8 7.9 4.9 2.5 10.2 9.1 10.2 12.6 0 1.9.6.4.6-1.5.1-3.9-1.8-6.9-7.2-11.6-5.9-5.2-8.8-10.6-7.8-14.8.9-3.8 0-9.7-1.7-11.3-.4-.3-.7-.5-.7-.4m-216.7 2c.1.2-1.9 2.1-3.4 3.1-1.4 1-3.8 1.7-5.5 1.7a6 6 0 0 0-2.6.5c-1.2.7-1.3.5-.3-.6.6-.7 1.3-1.1 2.6-1.5 2-.7 3.7-1.4 4.4-2.1 1.2-1 4.4-1.8 4.8-1.1m-8.2.7c.5.6-.3 1.1-2.4 1.8-2.4.7-3.7 1.7-4.8 3.6-1.5 2.7-3.6 4.5-3.1 2.7.1-.3.4-1.3.6-2.1.9-3.3 3-5.2 6.4-6 2.4-.5 3-.5 3.3 0m48.1.5c-.1 4.3 10.2 6.7 14 3.2 1.5-1.4.3-2.1-2.2-1.4-.7.2-1.8.5-2.5.6-.7.1-1.6.3-2.2.5-.8.2-1.3.2-3-.3-2-.6-2.5-.9-3.7-2.7l-.5-.7.1.8m-34.6 6c.4.7 1.1 1.8 1.6 2.3 1.5 1.7 1.9 3.6 1.2 5.5-.4 1-.8.8-.8-.3 0-1.2-.6-2.3-1.9-3.9-1.7-1.9-2-2.8-1.9-5.1.1-2.9.4-3.4.9-1.5.1 1 .6 2.3.9 3m108.1.1c-3.3 3.6-7.4 6.5-16 11.3-1.5.9-3.2 1.9-3.8 2.3-1.7 1.3-3 1.4-9.3.6l-1.2-.2 1.1.4c.6.2 1.5.7 2 1 1.1.8 1.6 1 4.8 1.9 2.4.7 4.3.7 6.9-.1 2.1-.6 1.3.3-1.6 1.7-4.4 2.2-6.8 2.4-12.5.9-1.7-.4-4-.8-5.2-.9l-2.1-.1 2.4 1c1.3.5 3.1 1.2 4 1.5.9.3 1.8.7 2 .9.9.8 6.1 2.3 9.2 2.7 1.9.2 1.5.6-1.3 1.1-.9.2-2.2.4-2.9.6-1 .2-2.2.2-5.2-.2-2.8-.3-4-.4-4.4-.2-.5.3-.5.3.2.4.4.1 1.8.4 3.2.7 7.6 1.8 15.4-.1 22.4-5.3l4.6-3.3c2.4-1.7 5.2-3.9 4.7-3.7-.1.1-1.5.9-2.9 1.9-5.5 3.6-8.2 4.8-13.2 5.5-3.1.4-4 .5-4 .1 0-.3 0-.3 2.7-.9 4.4-1 11.9-5.9 16.5-10.7 1.7-1.8 1.7-1.8.3-.6-3.2 2.8-10.2 7-13.7 8.1-2.1.7-1.8.4 1.6-1.9 4.4-3 5.2-3.8 2.1-2.3-1.5.8-3.4 1.2-4.3 1-.3-.1.1-.5 1.4-1.3 2.8-1.9 7.5-4.9 9.2-5.7.8-.4 2.1-1.4 2.8-2.1 1.2-1.2 1.3-1.2.4-.8-.5.3-1.4.7-2 .8-.6.2-2.4 1.3-4.1 2.6-3.4 2.5-4 2.9-7.1 4.1-2.9 1.1-3 .9-.2-.8 6.1-3.7 15.6-12.4 15.6-14.3-.4-.5-.9-.1-3.1 2.3m-116.4-.6c.5.8-1.9 2.2-4.8 2.9-.9.2-2 .7-2.6 1-.9.6-1 .6-1 .1 0-1.4 2-2.6 6.1-3.8 2.2-.5 2.2-.5 2.3-.2m14 4a5.2 5.2 0 0 1 1.5 4.9c-.3.9-.7 1.1-.8.3-.2-1.5-1-3.5-2-4.9-1.5-2.2-1.1-2.3 1.3-.3m205.8 1.3c-.2 2.5.3 4.8 1.3 5.9.2.3.6.8.9 1.3.2.4 1.1 1.5 1.9 2.4 2.7 3 .7 1.9-2.5-1.4-3.1-3.2-3.8-6.1-2.4-9.2.9-1.9 1-1.7.8 1m-77.4 2.9c-4.3 1.3-7.5 3.4-10.9 7.3-5.8 6.6-12.7 13-15.4 14.4-1 .5-1.5 1.1-1 1.1s4.7-2.4 7-3.9c1.4-1 3.5-2.4 4.5-3.2 4.5-3.2 16.5-13.6 18-15.7.5-.9.6-.9-2.2 0m46.7 8.4c-4.5 4.6-5.6 7.8-4.5 12.7.2.8.3 2.1.4 2.9 0 1.8.6 1.9 1.4.3.6-1.4.7-3.4.1-5-1.2-3.3-.2-6.1 3.5-10.4 1.2-1.4 2.1-2.9 1.9-3.1-.1-.1-1.3 1.1-2.8 2.6m12.7-1.8c0 .2.4 1.2.9 2.2.6 1.1.9 2.2.9 2.8v1l-.7-.5c-.4-.3-1.6-.9-2.8-1.4-3-1.3-4.1-2.2-3.9-3.4.1-.8.1-.9-.2-.5-1.5 1.5-.4 5.2 2.2 7.2 3.3 2.5 5.1 5.1 5.1 7v1l.5-.6c.5-.7 1.4-3 1.9-4.9.6-2.5-.4-6.1-2.4-8.6-.5-.6-.8-1.2-.8-1.4s-.2-.4-.4-.4-.3.3-.3.5m-171.3 1c-.1.5-.3 2-.4 3.4-.2 2.4-.6 3.8-1.4 4.5-.5.4-.5-4.9 0-5.7.2-.3.3-.7.3-.9 0-.5 1-2.1 1.4-2.1.2-.1.2.2.1.8m249.2 1.2c-.5 1.3-.3 3.6.4 5.3 1.7 4 2.4 6.5 2 8-.2.8-.5 2.3-.7 3.5-.9 4.7-1.8 6.5-6.9 13.3-2.6 3.4-5.4 9.5-3.9 8.6.1-.1.3-.3.3-.5 0-1 4.1-7 6.5-9.6 3.2-3.4 4.4-5.2 5.1-8.4.6-2.5 1.2-3.1 1.2-1.3 0 1.9-.7 4.2-1.8 6.2l-.9 1.7.8-.7c2-1.9 3.8-6.2 3.8-8.8 0-4.3-1.1-8.8-2.5-10.2-1.2-1.2-2.4-4-2.5-6-.2-1.9-.5-2.3-.9-1.1m-106.2 2c-.9.6-1 .6-1.1 2.6-.3 3.5-2.6 11.2-7.5 24.9-.8 2.3-2.5 7-3.7 10.3-2.5 6.9-4.6 11.2-9 18.4-.7 1.1-1.8 3-2.4 4.1-.6 1.2-1.5 2.7-1.9 3.3-.4.7-.7 1.4-.7 1.6 0 .6 3.1-2.8 4.3-4.9.6-1 2.1-3.3 3.3-5.1 4.3-6.3 6-9.8 9.9-19.6 2-5.1 4-10.1 4.5-11.2.5-1.1 1.9-5 3.2-8.7 1.3-3.7 2.3-6.3 2.2-5.8s-.4 2.8-.7 5.1c-.6 4.6-1 6.1-3.1 13.4-1.5 5.2-1.6 5.6-4.7 13.9-1.9 5.3-7.1 20.2-7.4 21.2-.3 1.2.9-.8 2.1-3.7l2.6-5.9c.7-1.6 1.3-3 1.3-3.1 0-.1.6-1.5 1.3-3.1 7.4-16.3 11.4-30.5 12.7-45l.2-2.2-1.5-.6c-1.9-.6-2.7-.6-3.9.1m-218.8.4c-1.6.4-3.1 1-3.6 1.6l-.6.7 1.1-.5c1.7-.8 4.3-.7 5.4.2 1.6 1.4.5 2.8-2.5 3.1-2.8.3-5.9 1.4-7.7 2.9-1.6 1.3-1.3 1.7.5.6 3.8-2.2 6.8-2.5 9.9-1.1 1.3.6 1.9.8 4.3.8 3.1.1 3.9.4 3.1 1.3-.2.2-.8.4-1.3.4-1 0-2.6.9-2.6 1.5 0 .3.1.4.5.1 1.3-.7 4.3.1 4.3 1 0 .5-.6 1.1-2.7 2.5-1.7 1.1-3.1 2.6-3.1 3.3 0 .4 0 .4.5 0 3.9-3.5 8.4-2.2 7.1 2-.4 1.2-.8 2.8-.9 3.4-1.2 5.4-1.7 6.8-3.2 8.6-.5.6-1.6 1.5-2.5 2.1-4.5 3-5.1 4.1-5.9 11.2-.7 5.9-.9 6.7-2.7 8.7-1.4 1.5-.5 1.3 1-.2 1.7-1.8 2.3-3.3 3-7.5.9-5.4 1.2-5.9 4.2-7.1 2.8-1.1 4.1-2.4 5.6-5.7 2-4.3 2.1-4.4 3.6-6 1.6-1.7 1.6-1.7 2.4-1l.6.5-.6 1.5c-.3.8-1 1.9-1.6 2.5-2 2-3.1 6.4-2.8 11.6.1 3.1.1 3.5-.5 5.2-.7 2-.7 2.4 0 1.4 1-1.5 1.5-3.7 1.7-7.5.2-2.8.3-4.1.7-4.9l.5-1.1.2 2.8c.2 3.8.8 5.1 3.6 8.7 3.3 4.3 4.3 9.5 2.6 14.1-.9 2.4-.9 2.5-.6 2.5.2 0 .8-.9 1.4-1.9s1.4-2.3 1.6-2.7c.7-1.1.7-6.9-.1-9.3-.7-2.1-1.1-5.3-1-7.1.1-1.7-.5-2.2-.9-.7-.3 1.3-1.7 1.8-2.4.9-1-1.2-1.3-2-1.8-4.9-.9-4.6-.7-6 1.1-10 1.7-3.5-1-5.7-3.9-3.2-.7.6-1.3 1.1-1.4 1.1-.2 0 1.7-4.6 2.1-5.2 1.3-1.9.3-5.6-1.7-6.5-.9-.4-1.1-.6-1.2-1.4-.1-.5-.5-1.5-1-2.1-.8-1.1-.8-1.3-.5-2.1.5-1.3-.1-2.2-1.5-2.6-1.9-.4-2.9-1.3-4-3.5-1.4-2.7-3.1-3.6-5.8-3m290.3 2.7c5.6 5.8 6.4 12.3 3.1 22.5-1.9 5.8-3.1 7.4-1.4 1.9 1.6-5.4 2.5-10.9 1-6.6-.4 1.2-1.4 3.4-2.2 4.9-1.7 3.1-2 4-2.5 6.8l-.3 1.9V188c0-2.5.3-3.7 2.2-7.7 4.6-9.8 4.4-15.8-.8-21.8-1.9-2.1-2.2-2.7-1.7-2.7 0-.1 1.2 1 2.6 2.5m-77.1.4c-4.4 2.9-4 2.5-5.1 5.6-1.7 4.8-3.3 8.7-5.3 12.7-2.3 4.6-2.9 6.3-2.5 6.7.4.4 1.4-.7 2.5-2.6.5-.9 1.6-2.8 2.4-4.4 1.9-3.3 3.9-7.6 5.7-12.2.7-1.8 1.3-3.2 1.4-3.2.3.3-2.4 8.4-5 15.2-.6 1.5-1.6 4.3-2.4 6.3-3.2 8.6-7.2 16.1-14.7 27.5-1.7 2.5-2 3.3-1.6 3.7.5.5 9.4-12.5 13.3-19.5 3.6-6.4 4.3-7.7 5.3-10 .6-1.3 1.4-3.4 1.9-4.5l1.8-4.4c.5-1.2 1.5-3.5 2.1-5.1 2.7-6.3 5-14.4 4.2-14.4 0 .1-1.9 1.2-4 2.6m24.8-1.4c-2 3.2-.3 7.3 3.7 9 2.7 1.2 5.9 5.6 5.9 8.2 0 1.4-.2 1.8-1.7 3.8-2.2 2.9-2.6 4.4-1.7 6.5 1.2 2.8 2 3.4 4.3 3.1 1.7-.2 1.7-.6 0-1.4-1-.5-1.5-.9-2-1.8l-.7-1.2.5-1.4c.4-1.1.9-1.8 2.9-3.7 4.3-4.1 4-5.6-2.2-10.7-6.3-5.1-7.8-7.1-7.9-9.7 0-1.6-.4-1.8-1.1-.7m-3.3.3c-2.1 3.3-.7 9.5 2.4 10.3 1.1.3.4 1.7-1.1 2.4-.5.2-.9.5-.9.6s-.6.7-1.3 1.2c-3.2 2.3-2.2 3.3 4.5 4.9 3.4.8 3.7 1.6 1 3-7.8 3.9-11.7 7.1-13.5 11.5-.7 1.6-.6 1.6.6-.1.9-1.2 4.9-4.4 5.9-4.7.2 0 .1.1-.2.2-1.6 1 .8 3 3.6 2.9 1.2 0 1.3-.1.9-.3-1.6-1-2.3-2.1-1.8-2.9.7-1.2 3.2-3.4 5.6-4.8 2.4-1.4 3.5-2.8 3.5-4.3 0-1.3-2-3.4-3.2-3.4-1 0-1.1-.6-.1-1 1.3-.6 2.5-.4 3.5.6 1.5 1.5 1.7 1.3.9-.5-1.4-2.9-2.6-3.3-5.8-1.7-2.9 1.4-3 1.3-1.2-.3 2.1-2 1.9-3-.5-4.7-2-1.4-3.1-5.3-2.3-8.1.2-1.4.1-1.7-.5-.8m-197 .9c-1.2 1.3-1.1 3.8.4 9 1.3 4.8 5.7 10 8.7 10.4 1.9.3 5.2-.1 6.2-.6.4-.2 1.7-1 2.8-1.6l2.1-1.2-.2-1.2c-.1-.7-.3-1.5-.5-1.9-.2-.4-.5-1.5-.8-2.5-.5-2.1-1.5-3.6-3.2-5.2-1.4-1.2-2-1.4-6.4-2.2-3.8-.7-5.7-1.4-7.2-2.7l-1.1-1-.8.7m119 3.1c-7.8 5.6-13.5 8-17.1 7.4-2.3-.4-2.5-.4-2.6-.1-.4 1 6.4 1.8 8.7 1 1.9-.7 6.4-3.4 8.1-4.9.9-.8 2.4-2.1 3.3-2.7 1.4-1.1 4.1-3.7 3.8-3.6 0-.1-1.9 1.3-4.2 2.9m163-1.7l.9 2.5c2.2 6.1.9 12.7-3.6 17.9-3.7 4.2-4.2 5.2-5.2 9.7-.3 1.1-.6 2-.7 1.8-.6-.6 1-8.8 2-10.4.2-.4.4-.7.3-.8-.2-.2-2.9 3.9-3.7 5.7-.4.8-.9 2.4-1.1 3.7-1.1 6.1-1.9 7.5-5.7 10.7a8.47 8.47 0 0 1-4.1 2.1c-2.9.9-3.3 1.6-.8 1.3 4.6-.6 8.4-3.1 11.4-7.5.9-1.3 1.1-1.4.8-.5-.3 1-2 3.6-3.2 5-1.3 1.4-1 1.5.8.3 3.3-2.3 4.9-5.2 6.2-11.1.6-3.1 1.4-4.6 3.4-6.6 5.2-5.3 6.9-15.1 3.6-22-.9-2.1-1.7-3.1-1.3-1.8m-23.2 6.7c.8 2.4 1 9.2.4 12.9-.8 5.1-1.2 6.1-4.7 9.7l-1.2 1.2.6-1.1c1.6-2.7 2.1-4.1 2.8-7 .4-1.7.8-3.6 1-4.2 1-3.8.5-11.1-1.1-15.7-.3-.9-.5-1.6-.5-1.7 0-.3 2.1 4.3 2.7 5.9M252 170.7c3.7 1.9 8.6 6.8 8.6 8.6 0 1.1 2 4.7 2.8 4.9 1 .3 1.6 0 2.1-1 .6-1.3.6-1.3-.8-3.1-4.7-5.9-9.9-10-12.8-9.9h-1l1.1.5m-150 1.4c-4.6 8.7-.6 27.5 7.5 35.5l1.2 1.2 2.1-.3c3.1-.5 6.7-2.7 10.8-6.6 5.2-5 11.3-8 15.9-7.8l2.5.1.8-1.7c3.6-7.6 2.9-16.3-1.4-17.4-1.6-.4-6.1-.2-8.1.5-.9.3-2.2.6-2.9.7-4 .6-10.9 5.6-13 9.4-.7 1.3-3.5 9.3-4.5 12.7l-.5 1.9.1-3.2c.1-1.8.2-4.2.3-5.3.5-6.2-4.3-17.6-8.2-19.6-1.3-.7-2.3-.7-2.6-.1m146.4 3c.1.2 1 .7 2.1 1.2 2.5 1.1 5 2.7 5.5 3.6.2.4.6.9.8 1.2.2.3.4 1 .4 1.7 0 1.3 1.4 2.6 2.1 2 .1-.1.6-.2 1-.1 3 .6-.9-5.2-5.1-7.7-2.1-1.3-7.1-2.6-6.8-1.9m-20.5 3.1c-1.6.8-3.4 1.6-4 1.7-.6.2-1.9.8-2.9 1.5s-2 1.2-2.3 1.2c-.6 0-1.8.7-3.9 2.2-1.1.8-2 1.2-3.6 1.6-1.2.3-2.4.7-2.7.8-.3.2-1.3.5-2.1.7-.9.2-1.9.5-2.3.7-.4.2-1.7.4-3.1.5-6.1.4-11 4.9-12.5 11.3-.2.8-.3 1 3-4.1.8-1.2 1.7-2.3 2-2.4.3-.1 1-.6 1.5-1 1-.8 1-.7 0 .6-.3.4-.7 1.3-1 2.1-.7 1.9-.3 2.4.7.8 1.3-2.1 2.6-3.5 4-4.4 1.9-1.2 2.1-1.1 1 .3-1.3 1.7-2.3 3.7-2.2 4.4.1.4.3.2 1-1.2 1.2-2.2 3.1-4.1 5-5 1.9-.9 1.9-.9.5 1.9-1.1 2.1-1.5 3.9-1 3.9.1 0 .7-.9 1.2-2 1.8-3.6 4-5.7 6.3-6.2l.9-.2-.5.6c-.4.6-.7 1-2.6 4.6-1.3 2.4-1 2.7.4.3 2.3-4 5.4-7.1 7.3-7.1.1 0-.3.5-.7 1.2-1.4 2-2.4 4.4-2.5 6.1l-.2 1.6.8-1.8c1.4-3.1 5.1-8 6.2-8 .4 0 .3.2-.9 2.2-1.4 2.3-2.9 6.3-2.8 7.6.1.8.1.9.3.4 1.6-3.9 3.3-6.5 5.8-9.2 1.6-1.7 1.6-1.7.7-.4-.8 1.2-2.3 3.9-2.3 4.3 0 .5.7-.1 1.6-1.5 1.2-1.8 3.4-4.2 3.7-4.2.1 0-.2.7-.8 1.5-1.1 1.7-3.2 5.4-3.2 5.8 0 .1.5-.5 1.1-1.3 6.2-9.1 12.6-12.5 15.8-8.4.3.5 1.1 1.4 1.6 2 1.6 1.8-.2 2.4-2.9.9-.8-.4-1.5-.7-1.5-.6-.1.1-.4 0-.8-.3-.9-.6-2.7-.5-2.6.3 0 .1-.2.3-.4.3-1 .2-.9.5.1.7 2.5.4 3.9 4.2 2.4 6.1-.7.9-1.2.9-2.7 0-1.4-.8-2.7-.8-3.9-.1-.9.5-.9 1.1-.2 1.1 1.7 0 3.3 2.3 2.8 4-.4 1.4-.9 2-1.5 1.7-.9-.5-3.3 0-4 .9-.8.9-.8 1 .3 1.6.7.4 1.2 1 2.1 2.8 1.3 2.6 1.3 2.6 2.6 2.8.8.1 1.7.8 3.8 2.7 1.7 1.5 3.1 2.6 3.6 2.7.4.1 1.3.6 1.8 1.2 1 1 1.7.7 1.2-.6-.1-.2-.2-.7-.3-1.1-.1-.5-.3-.7-.7-.7-.4 0-.5-.2-.5-.7 0-.7-.4-1.2-4.1-4.6-.8-.8-1.7-1.4-1.8-1.4-.2 0-.7-.7-1.3-1.5-1.6-2.5-.4-2.2 3 .8 2.6 2.3 4.2 3.2 5.3 3 1.9-.3 3.5 1.9 3.5 5 0 5.3 0 5 .5 5 .6 0 .6-.2 1.1-2.6.3-1.5.3-1.7-.1-2.2-.3-.3-.6-1.2-.7-2.3-.5-3.8-.8-4.4-4.4-7.5-2.7-2.3-3.6-3.6-4-5.8-.2-1.2 0-1.1 1.9.8.9.9 2.3 2.1 3.2 2.6 4.8 3 5.2 3.3 5.4 4 .4 1.9 2.4 4.8 3.6 5.2.2.1.1.7-.3 1.7-1.3 3.8.3 3 1.8-.9 1.3-3.6 1.4-4.9.5-6.9-2-4-3.5-5.8-6.8-7.7-.5-.3-1.8-1.5-2.9-2.6-3.3-3.4-2.3-4.1 2.2-1.5 3.3 1.9 4.3 2.4 6.7 2.7 2.6.3 2.4.3 3.7.1 1.8-.3 2 .2 2 5.2 0 4.6.2 4.5 1.1-.8 1.2-6.9 0-10-4.4-11.6-2.4-.9-5.2-2.6-6.9-4.1-.9-.8-2-1.9-2.5-2.3-1.6-1.5-4.2-2.3-7.6-2.4-1.6 0-3.3-.2-3.7-.4-1.4-.4-2-.2-5 1.3m-134.3 4.2c-.4 3.5.8 11 2.7 16.7 1.2 3.6 1.5 4.2 3.8 9.3 2 4.3 2.4 9.4 1.2 15.6-.6 2.9-.5 3.4.2 4.9 1.5 2.9 3.8 4.4 5.8 3.8.6-.2 2.4-.5 3.9-.7 6-.8 16.4-4.1 23.4-7.5 5.3-2.6 7.1-3.3 12.1-4.8 1.8-.5 3.8-1.3 4.6-1.7 1.5-.9 1.4-1-.5-.4-.7.2-2 .5-2.9.7-.9.2-2.1.5-2.7.7-.6.2-1.7.4-2.5.4s-3 .2-4.7.4-5.1.5-7.5.7c-5.4.3-11.1 1.4-16.7 3.1-3.5 1.1-4.3 1.1-5.6.2-.6-.4-1.2-.8-1.4-.7-1.3.5-1.9-3.8-.8-5.9 1.2-2.4 2.1-3.2 4.4-4.4 2.7-1.4 2.7-1.5.2-.9-3.2.7-4.4 1.5-6.1 4.3l-.8 1.3.2-1.5c.3-2.2-.4-4.7-2.5-8.9-2.9-5.9-4.8-11-6-16.4-1.1-4.9-1.2-5.3-1.4-7.7l-.2-2.3-.2 1.7m221.7 8.7c-.8.1-1.6.3-1.7.5s-1.4.3-2.7.4c-5.6.3-16.2 7.2-18.1 11.7-.6 1.3-.5 1.3 1.9-.8 4.9-4.3 11-7 19.7-8.8 3.5-.7 4.4-.6 6 .7 1.6 1.3 1.6 1.4-.2 1-8.8-1.7-24 7.4-29.5 17.7-1.9 3.5-1.5 4.1.4.8 3.9-6.6 15.6-14.5 23.2-15.7 1.6-.3 1.3 0-1 .8-7 2.5-16.2 8.5-17.8 11.6-.5 1-.3.9 1.2-.3 6.6-5.8 22.1-12.1 25.4-10.2.7.4.7.4-.4.4-4.4 0-15.4 4.2-18.6 7-1.6 1.4-1.2 1.5 1.3.2 7-3.5 17.2-6 19.3-4.7.4.2 1 .6 1.5.8 1.1.5 1.3.9 1.7 2.5.6 2.7 1.2 3.1 1.5.8.1-.7.3-1.6.4-2 .8-2.1-.3-6.5-1.6-6.5-.1 0-.2-.2-.2-.5 0-.7-.8-1.3-2.3-1.7-1.7-.4-1.7-.4-.7-1.2 2.3-2.1-3.5-5.2-8.7-4.5m-127 1.6c-2.2.8-3.6 3.5-4.7 9.1-.9 4.7-.9 5.1.2 1.9 1.3-3.6 2.2-5.4 4.4-8.4 1-1.3 1.7-2.4 1.7-2.4 0-.2-1.2-.3-1.6-.2m-11.7 1c-2.3 1.7-4.4 6.3-5.2 11.6-.3 1.6.4 3.3.8 2.1.8-2.4 1.4-3.6 2.4-5.2.7-1 1.2-1.6 1.1-1.4-.1.3-.2 1.4-.3 2.5-.2 2.6.2 2.7 1 .1.3-1.1 1.3-3.5 2.2-5.3l1.6-3.4-.5-.7c-.8-1.1-1.9-1.2-3.1-.3m5.7.1c-.3.3-.8.7-1.1.8-1.4.5-3 5.3-3.2 9.6-.2 3.6.2 5.5.6 2.7.6-5.1 2.8-10.8 2.8-7.1 0 1.4.3 1.6.8.4.8-2.2 1.3-3.1 2.1-4.1 1.3-1.7 1.2-2.3-.5-2.6-.8-.2-1.1-.1-1.5.3m-11.7 1.2c-2.2.5-3.5 1.4-2.8 2 .2.2.2.6 0 1.1-.5 1.8-.1 6.6.5 6.6.1 0 .7-1.1 1.4-2.4.7-1.3 1.8-3.4 2.6-4.6 1.8-2.7 1.4-3.3-1.7-2.7m-25.6.6c-11.3 1-16.5 3.3-21.2 9.5-1.2 1.5-2.1 2.3-4.2 3.8-3 2-3.2 2.3-1.2 1.5 3.5-1.4 16.2-2.4 28.7-2.4 7.9 0 13.7-1.6 14.3-3.9.4-1.7 1.9-4.8 2.9-6 1.5-1.8.9-2.1-3.4-1.8-2.4.2-5.9.1-11.7-.5-1.5-.1-2.8-.2-3.1-.2-.1-.1-.7 0-1.1 0m46.5 6.1c-.8 1.1-1.5 2.2-1.6 2.4-.5.9 2.1 3.5 5.1 5.1 2.8 1.5 2.5.8-1-2.6-2.2-2.2-2.2-2.2-.1-1.8 7.6 1.8 24.7 8 31.1 11.4.7.4 2.5 1.3 4.1 2.1 6.8 3.3 10.8 6.2 14.7 10.4 2.9 3.1 3.4 4.3 1.3 2.6-.7-.5-1.7-.9-3-1.2-1.1-.2-3.1-.9-4.3-1.5-2-.9-2.3-1-2.3-.6 0 1.2 9.7 5.7 13 6.1l1.4.2 1.4-1.4 1.4-1.4-1.4-2c-5.2-7.7-9.9-12.4-15.5-15.4-1.3-.7-3.7-2-5.2-2.9-7-4-7.6-4.3-13.3-6.4-3.2-1.2-8.3-2.7-11.6-3.5-1-.2-2.4-.6-3-.8-.9-.3-6.7-.9-9-.9-.6.1-1.2.6-2.2 2.1m158.5-.6c-1 1.5-1.5 4-.8 4.6.1.1-.1.3-.4.5-1.4.7.6 3.4 2.5 3.4.2 0 .6.2.9.5 1.3 1.4 6.5 3.5 8.8 3.5.7 0 1.6 0 2 .1 3.9.3 5.4-.4 4.6-2-.3-.6-.4-.7-2.8-.6-1.4.1-2.6 0-2.7-.1-.4-.3-4.4-1.2-5.2-1.1-.4 0-.8-.1-.9-.2-.1-.1-.7-.4-1.3-.6-3-.8-5.7-2.6-4.6-3.1.3-.1.6 0 .9.3 1 1.3 8.8 3.1 13.6 3.1 3.5 0 3.9-.1 3.7-1.3 0-.3 0-.7.1-.9.2-.3-1.2-.5-2.3-.4-2.2.3-11.5-3.1-14.8-5.3-.8-.6-1.1-.7-1.3-.4m-32.9 6.2c-1.6 1.4-1.5 2.3.6 6.6.8 1.7.6 1.7-2-.2-3.7-2.7-7.1-3.4-9.6-2.1-3.9 2-6.7 6.1-5 7.4.2.2.8.7 1.3 1.2 1.2 1.2 7.3 5.9 8.8 6.9.7.4 2 1.2 2.7 1.7 2.8 1.8 5.8 2.8 4.1 1.4-1.6-1.3-10.5-9.4-11.3-10.4-.4-.4-.1-.3.8.3.7.5 2.5 1.6 3.9 2.4 1.4.8 3.2 1.8 3.9 2.3a7 7 0 0 0 1.7.9c.1 0 1.3.6 2.5 1.4 1.2.8 3.2 1.9 4.3 2.5l2.1 1.1.9-.8c.5-.4 1.6-1.3 2.5-1.9.9-.6 2.2-1.8 3-2.7.8-.9 1.8-2 2.3-2.5l.9-.8-.8-.6c-1.1-.9-8-9.8-9.5-12.4l-1.3-2.1-2-.2c-3.5-.5-3.6-.4-4.8.6m30.6 4.3c-2.4 3.3-4 7.2-5.2 12.7-.9 4-.9 4.7-.2 6.1.9 1.7 1 1.5 1.2-2.3.1-2.1.3-3.9.7-5.1.3-1 .5-1.5.4-1.1-.4 2.6-.5 10.6-.1 10.8.9.5.9.2 1.3-4.6.3-3.7 1.3-8.6 2-9.2.3-.3.2.4-.3 2.9-.4 1.8-.7 4.7-.8 6.4-.1 1.7-.2 3.6-.2 4.3l-.1 1.3 1.4.4c1.6.5 1.7.4 2.5-1.7.9-2.4 1.1-3.4 1.5-7.2.4-3.9 1.1-6.8 2-7.8l.6-.6-.2.7c-.1.4-.4 1.5-.7 2.5-.3 1-.6 3.5-.8 5.6-.3 4.5-.6 6-1.3 7.8l-.6 1.4 1-.1c1.6-.1 2-1.3 2.2-5.7.1-3.4.4-4.4.7-2.7.2 1.3.3 5.5 0 6.7l-.2 1 .9-.5.9-.5V229c.1-4.6.4-5.9 3-11.4 1.4-2.9 1.3-2.7.6-2.7-.3 0-1.4-.3-2.5-.7-2.5-.9-2.2-1-4.2 1.8-3.1 4.3-3.3 5-4.1 10.8-.6 4.7-1 3.7-.5-1.4s.7-5.8 3.1-9.5c2.2-3.3 2.1-3.1.8-3.9l-1-.6-1.2 1.5c-.7.8-1.8 2.4-2.5 3.5s-1.3 1.9-1.4 1.8c-.1-.4 1.9-4.4 3.1-5.8 1.3-1.6 1.3-1.4.3-2.1l-.8-.6-1.3 1.9m-146-.8c-.6.4-.2.6 2 1.5 1 .4 2.8 1.2 3.9 1.8 1.1.6 2.1 1 2.3 1 .3 0 13.2 6.5 13.1 6.6-.2.2-3.8-1.1-14.8-5.8-8-3.3-8.6-3.5-10.6-2.1-3.3 2.3-12.5 9.4-15.8 12.2-8.9 7.7-20.3 16-30 21.8-1.5.9-3.3 2-4.1 2.6-1.4.9-3.5 1.9-9 4.1-3 1.2-7.9 2.5-8.6 2.3-1.7-.5-2.9.1-4.6 2.3-2.3 2.9-7.4 7.6-10.5 9.6-1.5 1-3.9 2.6-5.5 3.7-1.5 1.1-3.5 2.4-4.2 2.9l-1.4.9 2 .9c8.1 3.7 30.7 5.2 39.3 2.5.9-.3 2.6-.6 3.9-.8 2.1-.3 5.6-1.3 12.1-3.5 6.9-2.4 19.2-8 25.5-11.8 1.6-.9 4.3-2.4 6-3.3 1.7-.9 4.3-2.3 5.7-3.1l2.5-1.5v-1.5c0-1 .2-1.9.6-2.7.7-1.4.6-1.5-.5-.9-.5.3-1 .9-1.4 1.6l-.5 1.1v-1.1c0-2.4 1.5-4.3 3.5-4.6 1.1-.2 1.2-.1 2.8 1.6.9 1 1.8 1.8 1.9 1.8.2 0 .6.4.9.9 1.1 1.8 1.5 1.5 1-.9-.4-1.6.2-3.9 1.3-5.3.4-.5.5-.9.4-.9-.5 0-2.4 2.2-2.7 3.1-.2.7-.2.6-.3-.7 0-2 .8-3.6 2.5-4.7 1.8-1.2 2-1.2 5.2 2.1l3 3-.2-1.1c-.4-2-.2-4.3.5-5.7 1.1-2.2 0-1.3-1.9 1.7l-.5.8-.2-.8c-.9-4.2 4.1-7.2 6.9-4.1.3.3.7.6.9.6.2 0 .7.3 1.2.7 1.2 1 1.3.9 1.2-1.4-.1-2.5.4-3.5 2.6-6.3 1.4-1.8 1.7-2.6.6-2-.8.4-4 4.8-4.3 5.9-.4 1.5-.6 1.2-.5-.8.2-2.2 1-4 3-6.2.8-.8 1.8-2 2.4-2.6l1-1.1-1.1-1.5c-1.1-1.5-1.3-1.6-3.8-2.6a92 92 0 0 1-6.9-3.2c-2.3-1.2-5.5-2.6-7.1-3.2-1.5-.6-3.5-1.4-4.2-1.9-2.8-1.5-5.8-2.4-6.5-1.9m4.8 5.3c2.9 1.2 4.2 2.7 1.5 1.6-4.7-1.8-11.5.6-19.2 6.6-4.5 3.6-18.4 13.9-22.9 17.1-1.4 1-4.9 3.5-7.7 5.6-4.6 3.4-5.4 3.9-8.6 5.3-9.4 4-10.6 4.5-10.9 4.4-.3-.1 1.7-1.1 8.1-4.1 4.3-2 27.5-18.3 32.4-22.8.8-.7 2.8-2.2 4.4-3.4 1.6-1.2 4.3-3.2 5.9-4.5 8.5-7 11.7-8 17-5.8m154 1.9c-2.7 4.7-3.7 8.5-3.6 12.5l.1 1.8.6-1.7c.3-1 .6-2.4.7-3.2.2-2 1.5-5.9 3.1-9.2 1.7-3.7 1.1-3.7-.9-.2m-23.3 6.4c-1.7 1.1-3.3 2.5-5.6 4.9-3.8 4.1-4.2 4.6-4 6.4.4 3.5 1.5 7 1.5 4.8 0-1.3 1.9-3.3 2.7-2.8.3.2.3.4-.3 1-1.3 1.3-1.4 2-.7 4.4.3 1.2.7 2.1.8 2.1.4 0 1.4-1.6 2-3 .7-1.8 1.3-1.9 1.3-.2 0 .9-.2 1.5-.7 2.3-1.2 1.8-.8 2.3 1 1.1 3.2-2 3.3-7.5.2-10.6-1.6-1.6-1.7-2-.2-2s1.9-.4 1.8-1.7c-.2-1.5.3-2.7 2.2-5.1 1.8-2.3 2-2.7 1.3-3-.7-.2-.8-.2-3.3 1.4M222 230c-.1 2.6-.1 2.6-1.9 2.7-4.2.2-10.3 3.2-17.8 8.9-1.3 1-3.1 2.3-4 2.9-1 .6-3.3 2.3-5.2 3.6-1.9 1.3-4.6 3.1-6 3.9-1.4.8-3.6 2.1-4.9 3-8.6 5.7-16.8 9.7-21.1 10.3-1.2.2-3.2.5-4.5.8-7.3 1.6-22.5-1.4-26.1-5.2-.7-.7-.8-.9-.4-.8.3.1 1.4.4 2.5.7 1.1.3 2.7.8 3.6 1 6.7 2 17.1 1.1 26.2-2.4 7.3-2.8 23-12 28.9-16.9 11-9.2 18.2-12.7 27.1-13.5 1.8-.2 3.3-.3 3.3-.4.2-.3.3.2.3 1.4m136.8 3.6c-.1.2-.4.9-.6 1.5l-.3 1.2-1.5-.1c-1.7-.1-9.3.9-11.2 1.4-.7.2-1.3.4-1.3.4l-.6-1c-.7-1.4-2-2.4-3-2.4-1.1 0-1.2.6-.3 2 .4.7 1.1 2 1.4 2.9 1.2 3.7 2.7 4.2 17.2 4.8l4 .2.7-.7c1.7-1.6.4-7-2.4-9.3-1.4-1.3-1.7-1.4-2.1-.9m-208.3 1.1c-7.3 1.8-10.5 2.3-13.7 2.1-5.4-.3-7.5-.6-8.7-1.1-2.5-1.1-9.1-1.8-9.1-.9 0 .1 1.1.5 2.4.8 1.3.3 3 .9 3.7 1.3 6.5 3.6 9.8 4.3 14.6 3 9.2-2.5 11.9-3.5 15.1-5.5l.9-.6h-.8c-.5 0-2.5.4-4.4.9m132.3.8c-1.9.8-5.1 4.6-5.1 6 0 2.3 1.8 2.1 2.3-.1.4-2 2-4.5 3.5-5.5 1-.8.7-1-.7-.4m-37.4 1.1c0 .2.3.6.7.8.8.4 3.4 2.8 2.7 2.4-.2-.1-.1.1.2.5.4.4.7.7.8.6.8-.5 4.7 6.5 5.5 9.9 1.7 7.4-2.5 16.3-9.3 20.2-1.2.7-1.6 1-1.1.9 12.9-2.9 17.9-22.1 8.3-31.3-2.9-2.9-7.8-5.4-7.8-4m11.1 2.8c-.1.2.1.5.4.9.7.7 1.9 3.1 2.7 5 .6 1.4.7 1.5 1.6 1.7.5.1 1.3.2 1.7.3 1.1.2 1.1-.7-.4-5.5l-.5-1.8h-1.3c-.7 0-1.6-.2-1.9-.4-.9-.5-2.1-.6-2.3-.2m30.2.1c-3.2.7-5 2.8-2.7 3.2 2.7.5 4.9 2.3 7.2 5.7 1.5 2.3 2 2.8 2 2 0-.2.2-.7.5-1l.5-.6-1.8-1.8c-1-1-1.7-1.9-1.6-1.9.2-.2 3.7 2.4 5.8 4.1 1.5 1.2 2 1.3 1.5.2-.6-1.3-7.5-6-8.8-6-.5 0-2.2-.8-2.2-1.1 0-1.3 3.4-1.6 5.8-.5.9.4 1.7.7 1.7.6-.1-2.2-4.2-3.7-7.9-2.9m-23.1.4c.5 1.5 1 4.6 1 6 0 1.5 0 1.6.6 1.5.6-.1.6-.3.8-2.4.1-1.5.4-2.9.8-3.9l.7-1.7h-2c-1.8 0-2 .1-1.9.5m5.2 1c-1.1 2.5-1.9 5.9-1.3 5.9.1 0 1.4-.2 2.9-.4s2.8-.4 2.9-.4c.2 0 .3-5.2 0-6.1-.1-.5-.3-.6-2-.6h-1.8l-.7 1.6m-30.8 1c-2.1.7-5.4 2.9-5.4 3.7 0 .1.3 0 .6-.3 1.5-1.4 4.3-2.1 6.7-1.7 1.8.3 1.7.6-.4 1.2-1.4.5-2 .8-2.9 1.8-1.6 1.8-2.2 3.8-.8 2.4a6.1 6.1 0 0 1 4.6-1.7h1.9l1 1.2c1.7 2.1 1.9 3.6.8 6.7-.8 2.4-1.2 2.7-3.7 3.3-3 .8-3.9.3-4.7-2.1-.3-1-.8-.9-.8.1 0 2 2.5 3.8 5.6 3.9l1.9.1-1.1.9c-.6.5-1.8 1.2-2.7 1.6-1.7.7-2.1 1.2-.7.9 2.9-.5 3.7-.7 5.1-1.6 1.1-.7 1.5-.8 1.4-.5-.4 1.1-1.8 2.2-4.1 3-.7.2-1.1.5-.9.5.8.1 4.7-1.6 5.7-2.4 9.3-7.2 3.5-24.3-7.1-21m11.5 2.1c.4.8 1 2.2 1.3 3 3.4 7.5.7 17.9-5.5 21.7-1.3.8-1.8 1.5-.9 1.2 5-1.9 8.9-8.3 9.6-15.6.3-3.4-1.3-7.7-4-10.5l-1.3-1.4.8 1.6m33.9 1.7c1 1 2 2.5 2 3.2 0 .4-.6 0-1.4-.9-1.1-1.3-3.1-2.4-3.1-1.8 0 .2.3.6.7.9.8.6.9 1.6.5 4.5l-.2 1.6 1.1-1c1.3-1.1 3.2-1.7 4.5-1.3 1 .3 1.2.1.9-1.1-.6-2.4-3.5-5.3-5.5-5.3h-.8l1.3 1.2m-6.7 0c-.8.8.9 3.7 2.5 4.6 1.4.7 1.4.7 1.4-.2 0-.7-3.5-4.7-3.9-4.4m64.1 0c-.3.3-.2 2.1.3 3 .8 1.5 2.8 2.8 8.1 5.1 8.4 3.6 11.9 3.9 13.5 1.2 2.1-3.7 1.9-7-.3-4.7-.8.8-1.4 1-1.9.6-.4-.4-11.2-3.2-14.7-3.7-1-.2-2.4-.6-3.1-1-1.4-.7-1.6-.8-1.9-.5m-72.5 3.3c-.2.1-1.4.3-2.7.4-1.5.1-2.3.3-2.5.5-.1.2-.5.4-.9.5-.9.2-2 1.9-2 3.1v.9l.8-1.2c1.4-2.1 3.4-2.9 4-1.5.2.5.2.7 0 .7s-.2.1-.1.3c.1.2.4.2.7.2.3-.1.5 0 .5.2s.5.8 1.1 1.4c.9.9 1.1 1.4 1.2 2.1.1 2.1.7 2.1 1.7 0 .6-1.2.7-2.6.1-3.8-.2-.5-.4-1.1-.3-1.4.3-.7 1.4.5 1.8 1.9.2.6.4 1.2.5 1.3.3.3.3 1.1 0 1.7-1.7 3.2-1.7 4 0 5.3.4.3.4.2.3-1.2-.1-1 0-1.9.2-2.5l.4-.9.2 1.7c.2 2 1 3.8 1.7 4.2 1.7.9 2.3-.5.7-1.7-1.6-1.2-1.8-2-1.6-5.3.5-4.6-2.8-8.6-5.8-6.9m7.8 2.8c0 1.5 1.8 2.9 3.6 2.7 1.2-.1 1-.5-.8-1.5-.9-.5-1.8-1.1-2-1.4-.7-.6-.8-.6-.8.2m-58.8 1.2c-1.6 2.6 3.5 14 7.5 17 1 .7 4 2.2 4.4 2.2.2 0-.3-.3-1-.7-3.7-1.8-8.1-8.8-9.2-14.3-.8-4.1-1.2-5.1-1.7-4.2m120.5.1c-2 2 .9 6.2 5.6 8.2 8.9 3.8 13 4.4 14.1 2.1.2-.3.7-1 1.1-1.5l.8-.9-2.5-.3c-4.9-.6-11.1-3-16.1-6.3-1.2-.8-2.3-1.5-2.5-1.6.1 0-.2.1-.5.3m-73.8 1.7c-.3.4.3 1.4.9 1.6.9.3.9.1 0-.9-.4-.6-.8-.9-.9-.7m31.7.6c2.7.7 7.7 3.1 9.5 4.4 1.2.9.9.9-1-.1-3-1.5-6.7-2.7-10.6-3.5-5.6-1.1-7.1-1.1-3.1.1 2.7.8 10.3 4.3 10.1 4.6-.1.1-1.4-.4-3.1-1.1-2.8-1.1-9.9-3.2-10.5-3-.4.1 3.2 2.8 5.4 4 2.2 1.2 2.9 1.8 1.8 1.4-1.7-.5-3.9-1.5-5.6-2.6-1.1-.7-2-1.2-2.1-1.1-.3.3 1.6 3.1 3.1 4.7 1.7 1.9 1.8 2.2.2 1-1.3-1-2.9-2.8-3.5-4-.6-1.2-.7-.4-.2 1.4.4 1.6 1.6 3.6 3.3 5.6.5.6.8 1.1.6 1.1-.4 0-2.6-2.3-3.4-3.5-1.2-1.7-1-1.1.7 2.1 1 2 1.4 2.8.9 2.3-1-1.1-3-4.3-3.6-5.6l-.5-1.1.2 1.2c.8 6.2 7.9 13.2 16.9 16.7l.7.3-.6.3c-3 1.6-12.7-1.5-16.6-5.2-.8-.8-1.6-1.5-1.7-1.5-.4 0 3.3 3.2 5 4.4 2.7 1.8 6.7 3.7 8.4 3.9.8.1 2.1.4 2.9.5 12.4 2.7 24.4-6.6 20.8-16.2-2.2-6-14.1-12-24.2-12.3l-2.8-.1 2.6.9m-74.5.4c-1.4 3 3.7 12 7.4 13.1.6.2.5 0-.6-1.1-2.9-3-4.4-5.6-5.4-9.4-.9-3.3-1-3.5-1.4-2.6m40.6 2c-.3.5.4 1.2 1.4 1.4 2.6.4 4.1 0 2.4-.7-1.2-.5-3.6-.9-3.8-.7m-1.4 3.1c-.5 1.4 3.6 2.6 5.5 1.6 1.5-.8 1-1.1-3-1.6-1.9-.3-2.4-.3-2.5 0m76.3 2.2c.9 4.9 9.5 8.5 14.7 6.2 1.8-.8 1.6-1.1-1.1-1.5-2.8-.4-11.4-3.9-12.5-5.2-.8-.9-1.3-.7-1.1.5m-67.5 4.1c-.2.5.2 1.3 1.6 3.1 1.8 2.3 1.7 2.7-.2.9-2-2-2.1-2-2-.4.2 1.3 0 1.2-.7-.6l-.3-.8-.2 1.1c-.1.6-.4 1.2-.6 1.3-.2.1-.6 1.1-.8 2.2-.8 3.7-1.2 2.6-.5-1.6.2-1.4.3-2.7.3-2.8-.4-.4-3.1 4.3-3.8 6.8-.6 1.9-.6 1.9-.8 1.2-.3-.7.3-3 1.4-6.6.7-2.1.6-2.3-.4-1.2-2.1 2.3-3.2 6.2-3.1 11.3l.1 3.8-.9.8c-3 2.6-7.7-8.4-5.2-12 .7-.9 1.6-3.1 1.2-2.6-3.1 3.1-3.6 9-1.2 13.9 3.6 7.3 15.3 9.7 20.7 4.2 5.8-6 4.9-14.3-2.4-20.8-1.8-1.5-2-1.6-2.2-1.2m64.8 3.3c-.8 1.5-5.6 19.8-5.6 21.2 0 1 1.5 1 2.3.1.5-.6 4.4-9.9 6.5-15.5.5-1.3 1-2.6 1.2-2.8.6-.7.4-1-1.3-1.8-.9-.4-1.8-.9-2-1.2-.5-.6-.8-.5-1.1 0m-139.4.1c-1.3.2-3.3 1.2-2.9 1.4.7.4 6.8 2.7 9.9 3.6 1.9.6 3.6 1.2 3.7 1.3.6 1-4.8.3-10-1.3-3.7-1.1-3.5-1 .6.8 5.4 2.3 5.5 2.6.6 1.3-2.9-.8-6.2-2-8.6-3.3-.8-.4-1.2-.5-1.6-.3-1.8 1 13.2 6.8 22.5 8.6 3.6.7 2.2 1-2.2.5-6.7-.8-13.1-2.6-18.5-5.3-1.8-.9-3.2-1.5-3.2-1.5 0 .5 9 5.6 11.8 6.7.9.4 2.2 1 2.9 1.4 1.7 1 9.2 2.6 15.2 3.1 1.1.1 3.3.3 4.9.5 6 .8 16.2.6 21.8-.3 1.6-.3.6-.6-2.2-.6-1.1 0-2.5-.2-3.2-.3-5.2-1.1-7-1.4-10.1-2.2-1.9-.4-4-.9-4.5-1.1l-1-.3.7-.2c.4-.1 1.8 0 3.1.2 4.5.7 19.7 1.3 19.2.8-.2-.2-6.4-.9-10.2-1.1-3.6-.2-8.2-.8-13.6-1.8-4.1-.8-3.3-.9 1.4-.3 5.9.8 22 .4 21.1-.5-.1-.1-2.8-.2-6-.3-3.8-.1-6.9-.3-8.9-.7-1.7-.3-4.1-.6-5.5-.8-3.3-.4-7.4-1.2-9.7-1.9l-1.9-.6H226c8.7 0 15.9-.1 16-.2.4-.4-.2-.5-4.7-.7-5.5-.3-10.3-.7-13-1-1.1-.1-4.3-.5-7.2-.7-2.9-.2-7-.8-9.3-1.2-11.6-2.1-11.2-2.1-13.2-1.7m-93.4 6.9l-.9.5 4.6 1.5c6.8 2.3 11.7 3.2 15.7 3.1 1 0 1.1-.1.5-.1-7.1-.7-13.9-2.6-17.6-4.9-1.1-.7-1.2-.7-2.3-.1m215.8 5.2c-2.6 1.2-10.3 13.5-10.3 16.5 0 .8 1.5 2.8 2.2 2.9.3.1 1.2.2 1.9.3l1.3.2-1.2-1.1c-1.3-1.3-1.9-2.5-1.7-3.5.2-.8.5-1 .7-.3.3.9 2.9 3.4 4.3 4.1 1.7.9 11.2 1 13 .2.6-.3 1.7-.5 2.5-.5 1.5 0 1.9.4.8.6-.8.2-3 1.7-4.9 3.3-4.3 3.6-14.1 18.8-15.2 23.7-.2.7-.4 1.6-.5 1.9-.1.3.5-.8 1.3-2.4 4-7.8 6.6-9.6 12.4-8.6 1.2.2 3 .5 4 .6 1.9.2 9.8 2 12.5 2.8.9.3 1.8.5 1.9.4s.9 0 1.6.2c.8.2 2.2.4 3.1.6 1 .2 1.9.6 2.3.9.8.8.4 1-1 .4-1.9-.6-13-.8-15.7-.3-4.6 1-7.1 3.3-13 12.4-2.2 3.4-3.4 6.7-4.5 12.4-.5 2.7-.6 4-.1 2.5 2.8-9.1 10.4-20.3 15.5-22.8 2-.9 9-.6 15.7.7 1.6.3 3.3.6 3.7.7.4.1 2.1-.2 3.7-.7l2.9-.8-1.5-1.5c-.8-.8-2-2.1-2.7-2.9-2.5-2.9-7.5-6.1-10.7-6.7-.9-.2-3.7-.9-6.1-1.5-4.9-1.3-9.8-2.2-11.8-2.2-1.6 0-1.6 0 .5-2.9 2.4-3.4 5.3-6.1 8.3-7.9 3.4-2 4-3.2 2.4-5.3-1.6-2.2-4.9-2.9-10-2.1-4.4.6-10.4.5-11.2-.3-1.5-1.4.8-7.7 3.8-10.3 1.2-1 1.6-.4.7.9l-.6.8.8 1.6c.4.9.8 2.1.9 2.7.2 1.5 1.4 1.7 2.2.2 2.5-3.8-.9-11.4-4.2-9.9m-128.7 2.4c0 .2 2.3 1.7 3.2 2.1.5.2 2.7 1.2 4.8 2.1 10.3 4.7 14.8 6.1 28.9 8.9 5.6 1.1 11.6 1.4 19.3.9 7.6-.5 7.1-.8-1.3-.8-12.6 0-25.9-1.9-26.4-3.8-.1-.3-.3-.5-.5-.5s-.3-.1-.3-.1c.1-.1 5.3.4 11.4 1.3 4.5.6 27.1.3 28.9-.5 1-.4.5-.7-.8-.6-6.4.8-12 .8-20.1-.2a199 199 0 0 0-8.3-.8c-10.3-.8-24.3-3.5-31.4-6-.8-.3-2.6-.8-4-1.2-1.5-.4-2.8-.7-3.1-.8-.1-.1-.3-.1-.3 0m122.7.9c-.4.5-.8.9-1 .9-.2 0-1.8.8-3.6 1.8-5.2 2.9-9.1 5-11.9 6.3-4.4 2.1-6.8 3.8-10.9 8-2.1 2.1-3.8 3.7-3.8 3.6 0-.3 1.9-3.5 3.1-5.5 1.6-2.5 8.1-8 10.3-8.8.2-.1.2-.2.1-.3-.7-.7-7.8 3.8-11.2 7-1.4 1.4-2.6 2.4-2.6 2.3 0-.7 2.1-4.4 3.6-6.4 1.8-2.4 1.4-2.5-.6-.3-6.5 7-9.1 16.2-8.4 30.3.2 4.1.3 7.7.2 8.1-.1.4 0 .9.1 1.1.4.9.7-.7.9-5 .6-9.8.9-10.9 2.8-14.8 1.1-2.1 1.5-2.5.8-.8-1.6 4.2-2 8.1-2 19.7 0 11.7.1 10.8-1 15.6-.8 3.5-.9 4.4-.8 6 .2 2.7.7 3.2.5.5-.1-1.2 0-2.6.1-3.2.1-.6.7-2.7 1.3-4.8l1-3.7.1-6.3c.2-16.6.8-20.6 4.1-27.1 1.3-2.6 1.7-3.1 1.1-1.6-1.3 3.4-3.2 14.9-3.2 19.1v3.6l.6-3.9c1.2-7.4 4.1-17.5 5.9-20.1 1.9-2.9 7.5-7.7 12.6-11 1.5-1 3.4-2.2 4.1-2.7s2.1-1.4 3.1-2c2-1.2 3.6-2.8 4.7-4.5.9-1.4.9-2.4-.1-1.1m-38 7.6c-3.5 3.6-5.3 4.7-8.8 5.9-4.1 1.3-9.3 2.9-11.1 3.3-2.1.5-14.7 1-17.5.6-11-1.4-22.7-4.2-28.4-6.9-1.2-.6-2.7-1.2-3.3-1.4-.6-.2-2-.8-3.1-1.4-2.3-1.1-4.8-2.1-5-2-.2.2.3.7 1.9 1.6.9.5 3.5 2 5.9 3.3 7.8 4.5 14.1 7.2 21.8 9.4 10.7 3 14.8 3.1 25.6 1 2.3-.4 4.1-.7 4.2-.7.4.4-7.7 3.8-11.2 4.8l-4 1.1-2.5-.3c-5.6-.7-8.1-1.4-16.8-4.6-2.7-1-3.8-1.2-3.1-.6.7.7 12.3 6 14.2 6.5 3.5 1 7.5 1.4 10.1 1 1.1-.2 2.7-.3 3.5-.3 1.6 0 5-.7 7.2-1.6 2-.8 1.9-.6-.4.7-5.6 3.2-14.8 4-20 1.8-.9-.4-.5.6.6 1.1 3.6 2 9.5 2.8 14.4 1.8 3.9-.8 4.2-.7 1.9.2-5.3 2.2-9.5 2.3-16.6.3-4.8-1.4-4.8-1.1.1.7 10.3 3.8 17.3 2.1 28.4-7 3-2.5 4.4-4 8.6-9.2 2.6-3.2 6.2-8.5 6-8.7-.1-.1-.8.7-1.6 1.6-1.4 1.7-5.3 5.4-5.3 5 0-.1.7-1 1.6-2.1 1.5-1.8 5-6.6 5.5-7.3.3-.6-.5.1-2.8 2.4m31.1 1.5c-.9 1-2.9 3-4.5 4.4-11.8 10.2-12.8 12.5-13.3 29.3l-.1 5.2 1-6.1c.6-3.4 1.2-7.2 1.5-8.5.9-4.4 3.3-10.6 2.9-7.4-.1.6-.2 2.5-.4 4.2-.1 1.8-.3 4-.4 5.1-.3 2.7 0 2.1.9-2.4 1.6-7.7 3.9-12.4 8.5-17.6 2.1-2.3 5.4-6.7 5.7-7.4.5-1.1-.2-.6-1.8 1.2M203 305.6c0 .2.2.5.4.7.2.2.7.7 1 1.1l.5.8-.7-.3c-1.9-.9-.7 1.3 3.6 6.5.8 1 1.7 2.4 2.1 3.2s1 2.4 1.5 3.7c.7 1.6.8 2.1.5 1.7-.8-.8-3.5-4-6-7-3.7-4.4-10.5-10.4-11.1-9.8-.1.1.4.7 1.2 1.3 3.4 2.8 12.1 12.9 12.1 14 0 .1.4.9 1 1.7 1.6 2.3 2.7 4.8 4.3 9.2.8 2.3 1.5 4.2 1.6 4.3.4.4-1.2-7.2-1.8-8.6-.5-1.1-.5-1.6-.2-1.3.9.6 3 8.1 3.6 12.8.9 7 1.5 33.8 1 41.4-.3 4.2-.1 7 .3 4.6 2.2-11.7 2-38.7-.4-52.7-.5-3-.6-3.6-1.3-5.7-.1-.5-.2-.9-.1-.9.3 0 1.6 3.4 2.4 6.5.9 3.7 1.1 3.8.6.6-.8-5.5-4.1-14.1-7-18-.7-1-1.7-2.5-2.3-3.5-1.7-2.7-6.8-7.5-6.8-6.3m109.6 2.8c-3.2 1.6-8.1 5.7-9.2 7.7-.4.9-1.7 5.3-2.4 8.7-.4 1.9-.8 11.1-.5 10.7.1-.1.4-1.8.8-3.8 1.2-6.8 3.3-11.7 6.4-14.9 1.3-1.4 6.9-4.7 7.9-4.7.5 0 3.2-3.9 3.2-4.7-.1-.5-4.3.1-6.2 1m-44 3.3c-1.4 2.9-2.7 7-3.9 12.8-.4 1.7-1 4.2-1.3 5.6-.7 2.7-1.7 7.9-2 11-.2 1.9-1.2 4.7-2.7 7.7-3.5 7-3.8 11.2-.9 17.2 1.6 3.4 2.3 5.8 2.3 8.9 0 1.5.1 1.8.3 1.6.5-.5.3-5-.3-8.7-.6-3.5-.6-7.1.1-10.1.2-.9.3-1.7.2-1.7-.2-.2-1.4 1.4-1.6 2.1-.3 1-.6.7-.6-.4 0-1.4.6-2.9 2.2-5.9.8-1.4 1.6-3.1 1.9-3.8.3-.7.5-1.2.6-1.1.7.7.4 7.3-.4 10.1-1 3.5-.8 5.4.9 10.3 2.4 6.6 2.9 14.7 1.4 20.5-.6 2.2-.7 4.6-.2 4.7.1 0 .3-.7.4-1.7.1-1 .4-2.5.7-3.3.8-2.6.7-15.8-.1-19.3-1.4-5.9-1.1-11.4.9-16.4 1.5-3.9 1.6-4.1 1.6-11.1.1-10 1.4-19.2 3.2-24.2.5-1.2-.6-.1-1.3 1.4-1.6 3.2-2.9 8.8-3.4 14.1-.7 7.9-1.5 8.6-1.5 1.3 0-3.7.1-5 .6-7.3 1.2-5.6 2.2-9.5 3.3-13 1.5-4.6 1.4-4.8-.4-1.3m66.8-2c-3.9 1-5.9 1.9-5.9 2.5-.1.6.4.7 1.8.6.9-.1 6.9.5 7.9.8.9.2 1.2.4 1.7 1.6 1.1 2.3 1.8 1.5 1.9-2.1 0-3.8-2.1-4.8-7.4-3.4m-142.8 0c0 .1 1.6 1.7 3.5 3.5 6.5 5.9 11.3 14.4 9.6 17.2-.2.3-.2.7-.1 1 .3.8-.3.1-2.1-2.7-.9-1.5-2.5-3.5-3.4-4.5-.9-1-2-2.3-2.3-2.8-.9-1.4-6.3-6.3-11.1-10-3.5-2.7-2.5-1.4 1.2 1.5 3.4 2.7 5 4.4 7.8 8.2 1.8 2.4 1.4 2.1-2.3-1.4-1.9-1.8-4.2-3.9-5.1-4.6-1-.7-1.9-1.4-2.1-1.6-1.1-1-5.5-3.6-6-3.6-.6 0 .2.7 2.5 2.4 1.5 1.1 5.2 4.3 8.5 7.4 8.3 7.9 9.7 9.5 11.4 12.8 1.2 2.3.8 2.1-1.3-.6-2.2-3-5.3-6.2-4.6-4.8.2.4 1 1.6 1.7 2.6 4.2 5.6 5.1 13.8 4.3 39.8-.2 8.6 0 28.3.4 30.8.6 3.9 1.1-5.6 1.3-25.3.3-34.4.5-37.4 1.7-20 1.1 15.6 1.2 17.1 1.7 17.1.3 0 .1-24.6-.2-25.4-.2-.4-.1-.5.3-.4.6.1 1.3 2.4 1.7 5.5.2 1.3.4 3 .5 3.8.5 2.7.8 10.5.8 18.7 0 4.5.1 8.8.2 9.6.2 1.3.3 1.1.3-2 0-1.9.1-4.1.3-4.9.1-.8.2-6.1.2-11.7-.1-9.5-.2-12.7-1.2-24.8-.5-6-1.3-10-2.8-13.4-1.5-3.3-4.2-7.5-4.7-7.3-.2.1-.6-.3-1.1-.9-2.2-3-9.5-9.9-9.5-9.2m-32 4.5c3.5 1.1 4 1.3 8.6 4 3.7 2.2 8.4 5.6 10.5 7.6 1.8 1.7.7 1.1-4.5-2.5-3.7-2.6-8.8-5.4-9.2-5.2-.2.1-.2.1-.1-.1.5-.7-7.6-3.3-13.1-4.2-2.2-.4-3.4-.4-2.4 0 .2.1 2.2.7 4.5 1.5 9.6 3.2 23.6 12.5 28 18.6.7 1 0 .9-.8-.1-.5-.6-7.9-6.5-8.2-6.5-.1 0 .3.5.9 1.1.6.6 1.5 1.9 2 2.9a27 27 0 0 0 4.8 6.8c1 1 1.8 1.9 1.7 1.9-.2.2-3-1.9-5.1-3.6-3-2.5-6-4.8-6.3-4.8-.1 0-.6-.3-1.1-.6-3-2.2-15.4-6.6-18.4-6.5-.1 0 2.2 1 5.2 2.2 10.4 4.2 14.5 6.8 5.7 3.6-1.6-.6-4-1.5-5.3-1.9-2.6-.9-6.3-1.5-9.8-1.4h-1.9l3.7.7c2 .4 4.2 1 4.9 1.3.7.3 2.5.9 3.9 1.4 1.5.5 4.1 1.5 5.7 2.3 1.7.8 4.1 1.9 5.3 2.4 2.1.9 5.1 2.7 5.5 3.3.1.1-.8-.2-2-.8a46 46 0 0 0-10.7-3.3c-4-.7-3.3-.1 2.8 2.3 4 1.6 10.1 4.7 10.1 5.1 0 .1-1.2-.3-2.7-.9-4.9-2-6.2-2.3-11.5-3.4-9.5-1.9-21.5-3.2-20.6-2.3.2.2 3.5.9 8.1 1.7 11.8 1.9 16.4 3.6 33.3 12.3 2.9 1.5 5.4 2.7 5.6 2.7 2.9 0 5.6 9.1 6.9 22.9.4 4.1.8 6.7 1.1 6.5.3-.2.3-3.7 0-7-.1-1.4-.4-4.4-.5-6.5-.9-13.7-1.8-16.8-6.2-22.9-1.1-1.5-2-2.8-2-2.9 0-.8 5.3 5.4 6.3 7.5 1.4 2.8.6-1-.9-4.3-1.9-4.2-2.2-4.8-2-4.8.6 0 3.8 5.8 4.7 8.4 1.4 4.4 2.1 7.8 2.3 12 .4 7.7 1.1 5.9 1-2.7-.1-7.2-.5-9.5-1.8-12.4-.6-1.2-1.3-3-1.7-3.8-.4-.8-1-2-1.4-2.7-.4-.6-1.2-2-1.8-3-5.1-9.3-10.5-14.9-18.5-19-3.6-1.9-4-1.7-.7.3 1.4.9 3.2 2.2 3.9 2.9l1.4 1.3-1.5-.8c-8.5-4.8-14.9-7.5-17.5-7.5-.9 0-.1.4 1.8.9m56.8 1.7c0 .2.8 1.1 1.8 2.2 3.2 3.4 5.2 7 6.1 11l.9 3.7c.5 2 .5 4.7-.1 7.2s-.9 1.8-1.2-3.6c-.1-2.1-.3-4.4-.3-5.1-.2-2.3-5.5-11.1-6.2-10.3-.1.1.5 1.6 1.3 3.2 2.8 5.9 3.5 8.6 3 12.2-.6 4 0 7.5 1.8 10.1.4.6 1.1 1.8 1.4 2.6.7 1.5 3.2 5.5 4.6 7.2 1.5 1.8.7 1.3-1.5-1-1.2-1.3-3-3.4-3.8-4.7-1.9-2.9-2.2-2.5-.5.7 1 1.9 1.8 3.1 4.1 5.6 6.6 7.3 7.3 10.9 4 19.2-1.5 3.7-2 8.3-1.1 9.3.5.5.6.2.3-1.5-.3-2 0-3.5 1.4-6.9 3.6-8.5 3-15.5-2-22.9-3.9-5.7-4.4-9.9-2.2-16.9 1.3-4 1.1-9-.5-12.9-1.6-4.1-2-4.2-.8-.3.7 2.3.8 3.2.8 5.7 0 4.7-.2 5.2-.9 2.5-.9-3.4-3.1-8.8-4.5-11.1-2-3.1-5.9-6.6-5.9-5.2m53.3 11.6c-.6 4.7-.6 6.3.2 10 .9 4 .8 7.2-.3 10.9-1.3 4.5-.1 13.5 3 21.1 1 2.6 1 1.9-.2-2.2-.8-2.7-1.2-4.8-1.5-7.7-.5-4.5-.4-4.8.8-10.3 1.2-5.5 1.1-7.9-.2-13.2-.9-3.4-1-4.5-1.2-8l-.2-4-.4 3.4m-36.8 5.1c.3 1.6.2 2.8-.3 4.1-1.5 3.9-.6 9.9 2.5 15.3.8 1.5 1.6 3.1 1.8 3.6l.3.9v-1c0-.7-.4-1.9-1.3-3.7-2.3-4.8-3-11.2-1.6-15.1.7-2 .7-2.4.2-2.4-.4 0-.7-.6-.7-1.3 0-.3-.2-.7-.5-.9-.6-.5-.6-.5-.4.5m46 .4c0 .5.1.7.1.5.1-.3.1-.7 0-.9-.1-.3-.1-.1-.1.4m71.4 1.7c-7.5 1.4-20 8.8-25.4 14.9-1.1 1.2-.9 1.4.3.4 5.7-5.1 20.1-10.1 29.1-10 4.6 0 6.3.4 2.2.4-6.9.1-20.8 5.3-21.7 8.1-.3.9-.1.8 3.3-.7 9.1-4.1 22-5.6 24.3-2.9 2 2.4 3.1-3.6 1.1-6.4-.2-.3-.4-.8-.4-1.1 0-2.6-6.4-3.9-12.8-2.7m-110.4 4c-.7 1.7-1.1 2.5-1.8 3-2.8 2.1-2.3 7.1 1.2 11.7 2.4 3.2 2.6 3.6 2.8 6.7.2 2.4.2 2.6.5 1.8.2-.6.2-1.7 0-3.2-.3-2.4-.3-2.4-3.1-7.8-1.6-3.2-1.7-5.7-.2-8.9 1.1-2.3 1.6-4.1 1.5-5.1 0-.4-.3.1-.9 1.8m-102.6 7c-3.8.7-3.7 1.1.4 1.5 5.2.4 11.2 1.8 15.2 3.5 1.5.6 3.8 1.6 5 2.1 3.9 1.5 13.1 6.3 15.9 8.1 3.4 2.3 3.4 2.2-.3-1.2-3.7-3.4-11.9-8.5-13.5-8.5-.3 0-4.2-2.2-4.1-2.3.1-.1 1 .3 2.2.7 1.2.4 3.1 1.2 4.3 1.6 8.3 3.1 21.9 12.5 24.5 16.9.8 1.4 2.4 6.6 2.8 9.2.7 4.6 1.6 7.9 2 7.4.1-.1-.1-2-.3-4.2-1-10.5-1.6-12.7-5.1-16.3-3.5-3.7-8.1-7.1-12.8-9.5-1.2-.6-2.9-1.6-3.8-2.1-3.8-2.3-8.4-4.2-11.4-4.7-1-.2-2.6-.5-3.5-.8-5.1-1.5-13.4-2.2-17.5-1.4m217.2 4.6c-9.8.4-19.2 3.5-28.4 9.7-3.7 2.5-5.3 4.1-2.1 2.1 5-3.1 9.9-5.1 15.5-6.3 1.7-.4 3.6-.8 4.2-.9 6.3-1.6 20.3-.7 26.7 1.7 1.8.7 2.5.7 2.5.1s-4.3-2.2-8.9-3.2l-2.2-.5h1.5c1.3 0 3 .2 6.9.9l.9.2-1.5-1.5c-2-2.1-5.1-2.6-15.1-2.3m-133.3 1.2c0 1 2.7 6.2 4 7.8.5.6 1.3 2.3.9 1.9-.1-.1-1.1-1.3-2.2-2.5s-2-2.4-2.1-2.5c-.9-1 .4 1.7 1.8 3.5 2.7 3.7 3.6 5.7 3.6 8.4 0 .7.1 1.5.2 1.9.2.4 0 1.6-.4 3.7-.8 4.2-.8 7.5.2 8.4.2.2.3 0 .1-.9-.3-2.2-.2-4.3.4-6.7 1.4-6 .2-13-3.3-18.6-.7-1.1-1.5-2.6-1.9-3.3-.8-1.8-1.3-2.1-1.3-1.1m-88.8 1.5c.2.1 1 .3 1.8.4 6.2.8 12.2 2.7 18.4 5.8 4.8 2.4 5 2.6 2 2-6.2-1.3-22.6-.5-26.3 1.3-4.9 2.4-5.1 2.7-1 1.7 5.8-1.4 9.9-1.8 14.4-1.3 4 .5 3.5.8-1.7 1.3-4.9.5-13.9 2.8-14.2 3.6-.1.2.5.4 1.2.5 14.8 2.1 27.6 6.4 38.7 13 5.6 3.3 8.9 5.5 9.8 6.4.4.5 1.9 1.8 3.2 2.8 3.8 3.1 5.2 4.6 5.8 5.8.3.6.6 1.1.7 1 .7-.7-4-7-7.8-10.4-1.6-1.4-4-3.6-5.3-4.8-9.6-8.7-19-13.3-30.6-14.9-3.9-.5-2.6-.9 2.6-.7 13.7.5 15 .7 20.9 3.2.9.4 1.7.7 1.8.6.3-.3-5.9-4.4-9.4-6.3-1.2-.6 1.8-.3 4.3.5 4.3 1.4 9.8 4.5 13.7 7.7 3.2 2.6 8.6 7.6 9.9 9 1.7 1.9 1.4 1.3-1.7-3.5-4.8-7.5-8.5-10.5-20.2-16.3-13-6.5-19.5-8.6-27.3-8.8-2.6.2-4 .2-3.7.4m94.4 4.2c0 .1.2.4.4.6.2.2.4.2.4.1s-.2-.4-.4-.6c-.2-.2-.4-.2-.4-.1m128.9 1.3c-7.3.6-12.8 2.1-14.6 4-1 1.1-.3 1.2 2.6.3 6.1-1.8 22.2-.8 27.6 1.8 2.8 1.4 2.8 1.3 2.7.8-.1-.6-6.2-3.2-8.9-3.9-2.8-.7-2.9-.8-.3-.7 1.5.1 3.2.5 5.5 1.2 3.5 1.1 4 1.1 2.8-.2-1.8-1.8-11.9-3.7-17.4-3.3m-223.2 20.7c-1.5.4-1.8.8-.6.8 6.2 0 19.9 5.7 28.8 12 2.6 1.8 4.7 3.7 9.3 8.1 2.8 2.7 2.8 2.4 0-.9-3.7-4.4-9.6-10.4-12-12.2-2.9-2.2-2.9-2.3.3-.8 4.4 2.2 11.7 8.7 16.5 14.7 1.2 1.5 2.9 3.5 3.9 4.5l1.8 1.9-1.1-2.1c-3-5.6-8.5-12.4-12.7-15.5-.7-.5-2.1-1.7-2.9-2.5-4.7-4.5-9.2-6.4-17.7-7.6-3.5-.6-12.1-.8-13.6-.4"/></svg>