<?xml version="1.0" encoding="utf-8"?>
<!-- Generator: Adobe Illustrator 22.1.0, SVG Export Plug-In . SVG Version: 6.00 Build 0)  -->
<svg version="1.1" id="svg" xmlns="http://www.w3.org/2000/svg" xmlns:xlink="http://www.w3.org/1999/xlink" x="0px" y="0px"
	 viewBox="0 0 410 410" style="enable-background:new 0 0 410 410;" xml:space="preserve">
<g id="svgg">
	<path id="path0" d="M339.2,34.6c-0.1,0.1,0.4,0.6,1,0.9c3.3,1.9,2.8,3.9-1.6,6.2c-7.1,3.7-8.6,8-4.3,12.3c4.9,4.8,5.6,9.8,2.4,16.1
		c-0.5,1-1.2,2.7-1.6,3.8c-0.4,1.1-0.8,2-0.8,2c-0.2-0.2,0.4-5.7,0.8-7.8c1.6-7.7,1-10.8-2.4-13.1c-2.6-1.8-3.5-4.2-2.6-7
		c0.1-0.5,0.1-0.6-0.2-0.5c-0.5,0.2-1.1,2.2-1.1,3.7c0,1.6,0.8,3.2,2.6,5c3.6,3.8,3.7,8.3,0.4,17.7c-1.7,4.9-2.1,6.7-2.2,10.2
		c-0.1,2.7-0.4,2.2-0.6-0.9c-0.2-2.9,0.4-7.1,1.6-11.5c1.2-4.4,0.9-7.2-0.9-9.2c-0.9-1-1-0.6-0.2,1c1,2,0.9,5.7-0.4,9.4
		c-3.2,9.7-2.1,17.3,3.5,23.1c2.2,2.2,2.3,2.4,1.7,1.3c-1.5-2.8-2.6-6.3-3.1-10.1c-0.4-3.3,0.2-6.5,0.7-3.5c0.1,0.6,0.5,2,0.9,3
		c0.4,1,0.8,2.3,0.9,2.8c0.6,2.7,3.9,7.9,7.1,11.1l2.2,2.1l-2.2-3.3c-7.9-12.1-8-20.5-0.4-31.4c5.2-7.4,4.3-12-3.1-16.3
		c-2.6-1.5-2.9-1.9-2.6-3.4c0.3-1.9,1.2-3,3.7-4.6c5.3-3.4,5.7-4,4.3-7C342.2,35.3,339.6,33.8,339.2,34.6 M205.1,34.9
		c-8,1.9-14.5,6-23.7,14.7c-7.4,7-8.3,7.9-11.1,11.2c-7.3,8.4-7.7,9.7-6.9,24.6l0.2,3.1l0.5-2.1c0.3-1.2,0.6-3.5,0.7-5.1
		c0.3-3.6,1.5-8.5,2.7-10.8c1.2-2.4,4.6-7.8,5-7.9c0.2-0.1,1.3-1.3,2.4-2.7c3.8-4.7,11.6-12.3,17.1-16.5c2.5-1.9,10.1-5.4,11-5
		c0.2,0.1-0.2,0.4-0.9,0.7c-4.2,1.9-6.9,3.4-8.7,5.2c-1.8,1.7-1.8,2.2,0,0.8c6.8-5,15.4-6.2,21.9-3c3.2,1.5,3.5,1.9,1,1.1
		c-2.4-0.8-5-1.4-5.1-1.1c-0.1,0.1-0.6,0.1-1.3,0c-4.5-1-10.8,1.4-15.5,6c-2.2,2.1-1.7,2.2,1.2,0.3c6.4-4.2,10.2-5.1,14.9-3.4
		c1.7,0.6,6.9,3.2,7.7,3.9l0.7,0.5l-0.9-0.3c-0.5-0.2-0.9-0.2-1-0.2c-0.1,0.1-0.6,0-1.3-0.3c-8.8-3.2-14-2.6-20,2.2
		c-1.5,1.2-2,2-0.5,1c4.1-2.9,8.1-3.8,12.3-2.7l1.5,0.4l-2.5,0.2c-4.3,0.3-7.2,1.2-9.5,3.1c-1.1,0.8-1,1,0.5,0.5
		c7.5-2.6,15.5-1.3,21.2,3.5l0.8,0.7l-1.6-0.5c-4.7-1.6-9.4-2.2-13.3-1.8c-2.8,0.3-2.8,0.7,0.1,0.7c1.9,0,7.1,0.8,8,1.1
		c1.5,0.6,0.2,0.8-4.4,0.7c-2.6-0.1-5.3-0.1-6,0.1l-1.3,0.2l2.4,0.3c10.4,1.5,14.5,3.2,21.1,8.8c1.9,1.6,2.7,2.8,1.1,1.5
		c-1.2-0.9-6.5-3.9-6.9-3.9c-0.2,0-1.4-0.4-2.6-1c-3.3-1.4-4-1.6-10.2-2.5c-7.4-1.2-9.4-0.9-15.4,2c-1.3,0.6-2.9,1.4-3.6,1.7
		c-3.8,1.6-8.1,6.7-10.9,12.9c-0.8,1.7-1.9,3.9-2.4,4.9c-0.6,1.2-1.3,3-2,5.8c-2.7,11-3.7,13.6-7.1,18.9c-6.1,9.5-7.5,12.1-8.5,15.3
		c-1.5,5-0.5,10.5,2.4,12.8c1.5,1.1,1.6,0.7,0.3-0.8c-3.4-4-2.2-10,4.1-19c6.3-9.1,7.9-13,10.7-26.2c2.6-12.2,10.2-21.9,20.3-26
		c2.9-1.2,5-1.2,10.5-0.3c2.1,0.4,4.7,0.7,5.7,0.8c1.1,0.1,2.5,0.4,3.3,0.8c4.9,2.3,6.1,2.9,8,4.3c3.1,2.2,4.5,3.7,6,6.4
		c4.6,8,9.9,14.3,16.4,19.7c5.2,4.3,15.8,14.5,18,17.5c0.7,1,2,2.5,2.8,3.5c6.5,7.8,7.2,14.8,1.8,19.9c-2.9,2.8-6.8,4.3-11.1,4.3
		c-7.6,0-12.5,1.3-14.3,3.8c-1,1.4-0.3,2,0.9,0.8c0.4-0.4,1.4-1.1,2.3-1.5l1.6-0.8l6.1-0.1c9.9-0.1,12.7-1.2,17.8-6.9
		c4-4.4,5.2-7.8,4.9-13.2c-0.4-7-3.1-11.4-12.1-19.9c-9.9-9.4-14.7-15.3-18.4-22.5c-1.4-2.8-3.5-6.8-4.5-8.7c-1.6-3.1-2.3-4.2-4-6.5
		c-0.3-0.4-0.3-0.6-0.1-0.8c0.6-0.6,4.4,4,6.3,7.8c0.3,0.5,0.7,1.1,0.9,1.2c0.2,0.2,0.8,1.2,1.3,2.3c3.6,7.9,9.6,15.6,14.9,18.9
		c3.5,2.2,5.2,4,6.2,6.7c0.5,1.3,0.5,1.3,0.4,0.4c-0.3-1.8-1.8-4.5-3.5-6c-10.2-9.6-12.9-13.3-17.8-24.5c-1.3-2.9-2.6-5.6-3-6.2
		c-0.8-1.2-0.9-2.1-0.2-1.5c0.8,0.7,2,2.6,3.9,6.4c1,2.1,2.4,4.8,3,6c1.6,3.1,1.5,2.5,0-1.4c-1.9-4.8-3.5-9.2-3.4-9.3
		c0.3-0.3,2.5,3.5,4,7.2c1.4,3.3,2.5,5.3,4.5,7.8c1.9,2.4,2.7,3.8,3,5.3c0.4,2.2,1,3.1,1.3,2c0.5-1.5-0.8-5.2-2.8-8
		c-1.7-2.3-4.9-8.6-5.7-11.2c-0.3-0.8-0.8-2.3-1.3-3.3c-0.4-1-1.2-3-1.7-4.3c-2.5-6.8-4.8-9.5-13-15c-3.7-2.5-11.2-6.2-14.8-7.4
		c-2.8-0.9-4-1.3-6.5-2.3C210,34.6,206.9,34.5,205.1,34.9 M338,54.6c2.7,2.4,3.9,6.5,2.9,9.5c-0.7,2.1-0.8,1.9-1-1.1
		c-0.2-4.1-1.4-6.9-3.6-9c-0.3-0.3-0.6-0.6-0.6-0.8C335.8,52.9,337,53.6,338,54.6 M344.5,70.4c-0.7,1.1-0.8,3.4-0.1,4.9
		c1.4,3.1,0.9,6.9-1.3,10.8c-2.2,3.7-2.6,7.1-1.4,9.7c0.7,1.4,0.8,1.2,0.6-0.6c-0.6-3.4,0.3-5.7,3.3-8.9c3.6-3.9,3.7-5.3,0.6-11.6
		c-1.2-2.4-1.3-3.1-0.8-4.4C345.6,69.6,345,69.7,344.5,70.4 M170.8,71.5c-0.8,1.1-1.4,2.7-2.1,5.7c-1.8,7.3-5.9,18.8-7.7,21.7
		c-0.6,0.9-2,3.2-3.1,5.1c-1.1,1.9-2.6,4.3-3.2,5.3c-4,6.4-6,12.8-5.4,17.1c0.7,4.9,5.3,12.1,7.7,12.1c0.8,0,0.7-0.4-0.4-1.1
		c-6.3-3.9-5.5-18.6,1.6-27.1c3.6-4.4,6.2-9.1,7.2-13c0.4-1.4,1-3.7,1.3-4.9c0.4-1.3,0.9-4,1.2-6c0.3-2,0.7-4.1,0.8-4.7
		c0.1-0.5,0.5-2.4,0.9-4.1c0.4-1.8,0.9-3.8,1.2-4.6C171.7,71.2,171.6,70.4,170.8,71.5 M203.4,71.7c0.1,0.1,0.7,0.3,1.4,0.3
		c1.3,0,2.3,0.4,2.1,0.8c-0.1,0.1-0.8,0.3-1.5,0.3c-1,0-1.3,0.1-1,0.3c0.2,0.1,0.8,0.3,1.2,0.3c0.5,0,1,0.2,1.2,0.4
		c0.2,0.2,0.6,0.5,0.9,0.7c0.3,0.1-1.6,0.2-4.7,0.3c-7.5,0.1-8.3,0.7-1.7,1.3c1.8,0.2,3.4,0.3,3.6,0.3c0.9-0.1,1.9,0,1.8,0.2
		c-0.1,0.1-2.7,0.3-5.7,0.4c-10.5,0.4-7.6,1,7.3,1.5c3.5,0.1,6.6,0.3,6.8,0.4c0.9,0.6-1.6,0.8-11.8,0.8c-13.5,0.1-14.3,0.4-3.5,1.3
		c2.9,0.2,6.9,0.5,8.9,0.5c2,0,3.5,0.1,3.3,0.2c-1,0.5-7,0.8-12.5,0.7c-9-0.2-7.1,0.2,3.6,0.9c2.6,0.2,5.5,0.4,6.2,0.6
		c0.8,0.1,2.5,0.3,3.7,0.3c2.6,0,3.8,0.4,1.9,0.6c-6.4,0.8-11.1,0.7-16.5-0.1c-3.6-0.5-6.5-0.2-5.1,0.5c0.3,0.2,0.5,0.5,0.5,0.8
		c0,0.3,0.7,1.2,1.5,2.1c1.3,1.3,1.7,1.9,2.3,3.7c1.1,3.2,1.1,3.3,1.9,3.4c1.8,0.5,2.8-2.3,1.8-5.3c-0.7-2-0.6-2,0.6-0.7
		c1,1.1,1.4,2.2,1.7,4.6c0.2,1.5,0.6,2.3,1.3,2.3c0.6,0,1.8-1.1,1.8-1.7c0-2.1,2.3-6.2,3.5-6.3c0.9-0.1,1,0.1,0.2,0.8
		c-1.3,1.2-2.6,5-2.2,6.6c0.3,1.1,1,1.3,1.3,0.3c1-4.6,4.5-8.1,9.1-9.1c2-0.5,2.2-0.7,1.6-1.3c-0.3-0.3-0.5-1-0.6-1.6
		c-0.1-0.6-0.4-1.3-0.6-1.6s-0.8-1.3-1.2-2.1c-1.1-2.2-5-6.2-7.3-7.3C208.2,71.7,202.9,70.8,203.4,71.7 M324.9,81.3
		c-0.2,0.9-0.5,2.5-0.7,3.4c-1.1,4.7,0,9,2.9,12.5c1.2,1.4,1,1.4-0.9,0.1c-1.8-1.3-2.8-2.8-3.5-5.1c-0.7-2.3-0.9-2.3-0.7-0.1
		c0.4,4.8,4.1,8.4,12,11.8c8.2,3.5,11.7,9.1,12.2,19.7l0.2,3.5l0.4-1.2c0.6-1.8,0.5-10.8-0.1-12.8c-1.4-4.5-4.5-7.8-11.6-12.1
		c-7.7-4.7-9.7-8.1-9.3-16.1c0.1-2.1,0-3.6-0.2-4.2l-0.3-1L324.9,81.3 M221.1,89c-2.4,0.7-7.1,5-8.5,7.7c-0.8,1.5-0.2,1.6,1,0.2
		c3-3.4,6.1-5.9,8.3-6.6C224.4,89.5,223.6,88.2,221.1,89 M189.1,90.7c-0.5,0.6-0.2,0.9,1.9,1.9c1.2,0.6,2.4,1.5,3.6,2.7
		c1.9,1.9,2.3,2,1.8,0.5C195.4,93,190.3,89.4,189.1,90.7 M219.9,95.9c0,2.6,0.4,2.7,1.6,0.6l0.8-1.4l-0.6-0.6
		C220.4,93.1,219.9,93.5,219.9,95.9 M187.2,95c-0.4,0.8,0.8,3.1,1.7,3.1c0.9,0,0.8-3-0.2-3.4C187.8,94.2,187.6,94.2,187.2,95
		 M360.2,95.5c-1.3,1.2-2.4,3.5-2.7,5.9c-0.3,2.9-0.2,3.2,3.7,7c4.7,4.6,5.4,6.3,4.8,11.4c-0.2,2-0.6,3.2-2.9,9.5
		c-2,5.6-2.7,12.5-1.6,16.5c0.8,3.1,1.5,4.2,4.7,7.5c7.2,7.4,10.1,16.4,8.5,26.5c-0.3,1.6,0.3,1.1,1.3-1c1.2-2.7,1.6-5.5,1.5-9.9
		l-0.1-3.7l-1.2-2.5c-2.2-4.4-5.8-8.7-8.6-10.3c-5.7-3.2-6.6-14.5-1.8-24.6c3.7-7.8,4.6-12.1,3.4-14.8c-0.6-1.3-2.1-3.2-1.8-2.3
		c0.6,1.7,1,4.5,0.8,5.7l-0.2,1.3l-0.3-2c-0.7-3.9-2.5-7.1-5.4-9.5c-2.9-2.5-3.4-5.4-1.5-9c0.6-1.2,1.1-2.2,1.2-2.3
		C361.8,94.3,361.2,94.7,360.2,95.5 M344.2,97.3c0.3,1.6,1.7,4.1,3.7,6.4c5.1,6.1,7.1,12,6.3,19.1c-0.5,5.2-0.8,7.1-1.2,9
		c-0.6,2.7-0.3,2.8,0.4,0.1c0.3-1.2,0.9-2.9,1.3-3.7c1.6-3.6,2.4-9.1,2-12.3c-0.6-4.4-1.6-6-7.9-13c-0.9-1-2.3-2.8-3.2-4.2
		C344.2,96.7,344,96.5,344.2,97.3 M193.7,98.6c0,0.9,0.1,1.1,0.5,1.1c0.9,0,1.2-0.9,0.4-1.6C193.8,97.3,193.7,97.4,193.7,98.6
		 M221.7,99c-3.7,2.6-4.2,2.9-5.9,2.9c-2.6,0-1.4,1.1,1.5,1.4c2.7,0.3,7.2-2.9,6.9-4.9C224,97.3,224,97.3,221.7,99 M213.8,98.5
		c-0.6,0.8-0.3,1.3,1.1,1.6c0.8,0.2,1.2-0.2,0.6-0.6c-0.1-0.1-0.3-0.5-0.3-0.9C215.3,97.6,214.5,97.5,213.8,98.5 M205.2,100
		c-0.6,0.6-0.4,6.3,0.2,6.6c1.5,0.8,3.9-0.3,3.6-1.7c-0.1-0.4-0.2-1-0.2-1.3c0-0.4-2.8-4-3.2-4C205.6,99.7,205.4,99.8,205.2,100
		 M194.6,100.8c-2.7,0.9-3.2,0.9-4.2,0.6c-1.7-0.6-1.2,0.2,0.5,1c1.4,0.6,1.7,0.7,3.1,0.4c2.5-0.4,2.8-0.5,2.9-1.1
		C197.4,100.7,196.3,100.2,194.6,100.8 M375.4,104.6c2,4.2,0.2,11.7-4.7,19.7c-5.6,9.1-5.9,17.4-1,24.1c0.8,1.1,1.9,2.7,2.5,3.7
		c6.9,11.4,7.7,13.6,7.7,19.8l0,4.1l-1.4,3c-0.8,1.6-1.4,3.2-1.4,3.4c0,1.9-3.7,10-5.7,12.3c-2.8,3.4-7.1,5.8-10,5.6l-1.8-0.1
		l2.5-1.3c3.7-1.8,6.6-5.1,8.4-9.2c1.1-2.4,0.7-3.6-0.5-1.4c-3.1,6.1-8.1,9.2-15.3,9.3c-3.6,0-10.5-9.2-10.5-14
		c0-0.3-0.1-0.6-0.3-0.6c-0.8,0,0.4,5.4,2,8.5c1.1,2.3,2.1,3.4,6.6,7.7c1.1,1.1,4.6,2.5,6.2,2.5c9.4,0,16-5.1,18.6-14.3
		c0.9-3.1,1.3-3.7,4.9-7.9c5.3-6.1,6.7-8.8,6.7-12.8c0-2.6-0.1-2.8-2.6-6.4c-1.6-2.3-5.3-6.5-4.2-4.8c1.9,3.1,3.4,7.1,3.7,10.4
		c0.3,3.1,0,4.3-0.5,1.7c-0.2-1-0.5-2.3-0.8-2.9l-0.5-1L384,167c-0.2,3.8-1.1,7.9-2.4,10.3c-1,2-1.3,1.7-0.5-0.8
		c1.6-5.1,0-13.2-3.9-19.2c-1.6-2.5-1.9-3.2-0.6-2.1c1.7,1.6,3.9,5.2,4.5,7.4c0.6,2.2,0.7,2.5,1,2.2c1.2-1.2-2.5-8.7-6.3-12.8
		c-2.9-3.1-5.4-6.9-6.1-9c-0.2-0.6-0.6-1.5-0.9-1.9c-0.8-1.1-0.5-4.6,0.8-8.4c1.2-3.7,1.4-3.9,1.4-1.3c0,6,3,12,8,16.1
		c1.3,1.1,2.9,2.4,3.5,3c0.6,0.6,1.2,1,1.3,0.9c0.3-0.3-0.8-1.7-3.9-4.7c-6.7-6.5-7.9-12.8-4.1-20.2c3-5.8,3.3-6.4,3.8-8
		c0.3-1,0.5-2.1,0.5-2.8l-0.1-1.2l-0.3,1.2c-0.7,2.3-1.5,4.1-3.2,6.9c-1,1.6-2.1,3.6-2.5,4.4c-1.5,3.3-0.2-1.6,2-7.2
		c2.1-5.3,2-13.1-0.1-15.5l-0.8-0.9L375.4,104.6 M184.6,107.6c0,0.3,1.9,1.3,3.9,2c1,0.3,3.5,1.3,5.5,2.1c2,0.8,4.5,1.7,5.5,1.9
		s1.9,0.5,1.9,0.7c0,0.1-0.1,0.2-0.3,0.1c-0.7-0.3-4.2-0.8-4.4-0.7c-0.4,0.4,0.4,0.8,3.3,1.7c4.1,1.3,4,1.2,3.5,1.4
		c-0.9,0.2-8.2-1.7-14.1-3.6c-1.7-0.6-3.1-1-3.2-0.9c-0.4,0.4,10.1,4.8,14.3,5.9c1.4,0.4,2.6,0.7,2.7,0.8c0.3,0.3-3.4-0.2-4.6-0.6
		c-0.7-0.2-1.4-0.4-1.5-0.3c-0.4,0.4,1.6,1.7,3.3,2.2c0.9,0.3,1.8,0.7,1.8,0.9c0.2,0.6-2.3,0.1-7.5-1.6c-5.6-1.8-6.3-2-6.3-1.6
		c0,0.6,6.6,3.5,11.4,5.1c3.7,1.2,3.8,1.3,1.3,1.3c-2.5,0-2.6,0.3-0.2,1.1c3.9,1.2,1.6,1.6-3.3,0.6c-3-0.6-3.3-0.7-3.3-0.4
		c0,0.7,4.4,2.2,7.5,2.6c1.4,0.2,1.6,0.4,1.4,1.2c-0.2,0.7-2.3,0.5-5.4-0.6c-1.4-0.5-2.2-0.6-2.1-0.4c0.2,0.5,3.1,2,5.2,2.6
		c1.4,0.4,1.9,0.7,2.1,1.1c0.2,0.8,0.1,0.8-1.7,0.4c-2.5-0.5-2.6-0.2-0.2,1c1.2,0.6,1.6,0.9,1.7,1.4c0.1,0.8,0,0.8-3.2-0.6
		c-6.3-2.6-6.1-1.2,0.3,2.3c2.4,1.3,2,1.8-0.8,0.8c-2.2-0.8-2.1,0,0.2,1.4c0.4,0.3,0.3,0.3-0.7,0.2c-1.2-0.2-5-1.7-5.9-2.3
		c-0.2-0.2-0.1,0.1,0.4,0.6c1.9,2.1,5.8,3.9,12.2,5.6c3.7,1,4.7,0.9,7.8-1.2c1-0.7,1.9-1.2,2-1.2c1.2,0,7-4.5,9.9-7.8l2.2-2.5
		l-1.6,1.3c-4.2,3.4-7.4,5.5-8.3,5.5c-0.8,0,4.6-5.5,7.6-7.9c3.6-2.7,6.6-5.9,6.5-6.7c-0.2-0.9-0.2-0.9-2.9,1.6
		c-2.4,2.2-5.5,4.7-7,5.6l-0.8,0.5l0.3-0.6c0.2-0.4,0.2-0.7,0-0.9c-0.3-0.4,1.3-2.1,3.9-3.9c0.9-0.6,1.7-1.3,1.7-1.5
		c0-0.5-0.5-0.4-1.3,0.2c-1.3,1-3.9,2.1-5.1,2.3l-1.2,0.2l0.5-0.6c0.3-0.3,1.8-1.2,3.3-2c3-1.6,7.3-4.3,7.4-4.9
		c0.2-0.7-0.8-0.3-3.3,1.3c-1.9,1.2-3.2,1.8-5.2,2.4c-1.5,0.4-3.5,1.1-4.4,1.6c-2.4,1.1-2.6,1-0.9-0.5c1.8-1.6,3.6-2.6,6-3.4
		c1.9-0.7,3.4-1.4,5.6-2.9c1.7-1.2,1.7-1.7-0.1-0.9c-3.6,1.4-5.1,1.9-8,2.7c-1.8,0.4-3.2,0.7-3.3,0.7c-0.1-0.1,3.3-2.5,4.4-3.1
		c0.6-0.3,1.1-0.6,1.2-0.8s0.6-0.4,1.2-0.6c4-1.3,6.7-3.5,2.9-2.3c-2.2,0.7-6.5,1.6-7,1.5c-0.7-0.1,2.6-2.1,5.2-3.1
		c2.7-1,2.6-0.9,2.3-2.4c-0.2-1.4,0-1.4-2.8-0.6c-5.8,1.7-13.8,2.8-19.5,2.8c-2,0-2.4,0.1-2.7,0.5c-0.5,0.7-2.2,0.4-7.7-1.4
		c-2.4-0.8-5.1-1.6-5.9-1.8c-0.9-0.2-1.9-0.5-2.3-0.7C185.1,107.4,184.6,107.3,184.6,107.6 M336.9,111.9c0,1.3-0.2,1.8-1.3,3.6
		c-2,3.4-1.9,5.9,0.5,7.6c5.7,3.8,7.1,7.3,5.3,12.7c-1.7,4.9-1.3,9.7,0.8,12.3c0.4,0.5,0.4,0.5,0.1-0.1c-1.5-3-1.4-10.2,0.1-12
		c0.4-0.5,0.5-0.6,0.4-0.1c-0.5,1.3-0.5,7.7,0,9.3c1,3.4,3,6.4,6.2,9.2c2.3,2,2.1,1.4-0.6-1.6c-4.3-4.9-5.2-8.1-3.5-13.7
		c1-3.4,1-4,0.8-6.6c-0.4-3.6-0.8-3.9-0.6-0.3c0.1,2.3,0.1,3.4-0.3,5c-0.6,2.6-1.1,3.1-0.9,0.7c0.6-6.1-0.8-10.7-4.4-14.6
		c-3.4-3.7-3.8-5-2.5-8c0.8-1.7,0.9-3.4,0.3-4.2C336.9,110.5,336.9,110.6,336.9,111.9 M359.3,114.8c0,0.2,0.2,1.2,0.4,2.3
		c0.6,3,0.5,11.2-0.1,15c-0.7,3.8-0.6,4.2,0.1,1.4c2.3-8.2,2.5-9.6,1.9-13C361.2,118.5,359.3,113.9,359.3,114.8 M277.3,116.2
		c-0.1,0.1,0,0.6,0.1,0.9c0.5,1.2,0.3,4.3-0.4,6.9c-0.3,1.3-0.8,3.1-1,3.9c-1,4.6-7.6,12.5-17.9,21.8c-2.1,1.9-4.3,3.9-5,4.5
		c-0.7,0.6-2,1.8-3,2.6c-1,0.8-3.7,3.1-5.9,5c-2.3,1.9-5.3,4.4-6.8,5.4c-1.5,1-2.6,1.9-2.6,2c0.6,0.6,5.1-1.7,8.5-4.4
		c0.7-0.5,3.4-2.7,6-4.8c2.6-2.1,5.3-4.4,6-5.1c0.6-0.7,2.4-2.3,3.8-3.4c1.4-1.2,3.2-2.8,3.9-3.6c0.7-0.8,2.5-2.8,3.9-4.3
		c2.9-3.1,6.1-7.3,8.2-10.8c0.8-1.3,2.3-3.6,3.3-5.2c4-6.3,4.7-9.9,2.3-11.2C279.7,115.9,277.5,115.8,277.3,116.2 M283.1,117.9
		c-0.1,0.2-0.3,0.8-0.4,1.4c-0.7,3.9-3.5,9.7-8.6,17.6c-1.2,1.9-1.3,2-1,2c0.6,0,4.9-5.6,6.8-8.7c1.3-2.2,1.7-2.4,0.7-0.3
		c-3.9,7.8-14.4,19.9-24.7,28.8c-3.7,3.2-4.4,4.1-1.6,2.1c6.6-4.6,13.2-10.7,16.9-15.6c0.9-1.2,2-2.4,2.4-2.8
		c1.8-1.6,6.2-7.6,7.5-10.1c0.3-0.5,0.7-1.2,1-1.6c0.3-0.4,0.7-0.9,0.9-1.2c0.5-0.8-0.8,2.1-2.9,6.6c-1.1,2.3-2.4,4.6-2.9,5.2
		c-0.5,0.6-1.6,2.1-2.4,3.3c-1.9,3-5.7,7.5-8.1,9.6c-1,0.9-2.1,1.9-2.4,2.2c-0.3,0.3-2.5,2.4-4.9,4.5c-2.4,2.2-4.3,4.1-4.3,4.2
		c0,1.1,4.4-1.7,9.7-6.3c1-0.9,2.8-2.4,3.9-3.3c6.4-5.4,11.5-10.7,15.1-15.4c1.6-2.2,2.1-2.5,1.1-0.8c-0.4,0.6-1.2,2-1.8,3.1
		c-0.6,1.1-1.8,2.8-2.6,3.9c-0.8,1-2.1,2.8-2.9,3.9c-2.1,3.1-6.8,7.6-14.7,14c-2.9,2.4-2.8,2.2-1.1,3.1c0.8,0.4,1.6,0.9,1.9,1.1
		c0.6,0.4,4.9-3,11.3-8.9c1.4-1.3,3.7-3.4,5.2-4.7c4.1-3.7,6.2-5.7,7.8-7.7c0.8-1,2.1-2.6,2.9-3.5c1.3-1.5,4.8-6.8,7.7-11.3
		c3.1-4.9,3.3-9.1,0.6-10.6c-0.6-0.4-0.8-0.4-1.5,0.1c-0.5,0.3-1.4,0.5-2.2,0.5c-1.6,0-2.3,0.4-2.3,1.4c0,2-0.7,1.8-0.8-0.2
		c-0.2-3-1.5-4.5-3.9-4.5l-1.3,0l-0.2,1.1c-0.3,1.4-0.6,1.4-0.8,0.1C285.8,118.3,283.8,116.9,283.1,117.9 M350.1,120.1
		c-0.6,4.4-1.1,7.4-1.6,9.1c-1.7,5.2,0,12.1,4.6,19.6l0.4,0.7l-0.8-0.7c-1-0.9-3.2-4.1-4.2-6.2c-0.6-1.3-0.8-1.5-0.6-0.7
		c0.7,3.6,2.7,7.4,5.4,10.6c4.2,4.8,5.8,7.1,7,9.8c1.3,2.8,0.8,8.1-0.9,11.6c-0.9,1.8-1.5,3.6-2.5,7.2c-1,3.5-1.2,5.2-1.1,8.2
		c0.1,2.4,0,2.8-0.2,2.1c-1.1-3.2-1-8.8,0.2-12.1c0.3-0.9,0.9-2.5,1.2-3.6c0.4-1.1,0.8-2.4,0.9-2.8c1.6-4.8,0.9-10.2-2.1-14.6
		c-2-2.9-2-2.9-1.2-0.9c1.7,4.2,1,10.3-1.5,13.9c-0.6,0.8-3.4,3-6.5,5.1c-6.4,4.2-7.5,9.7-3,14.9l0.8,0.9l-0.7-1.7
		c-2.5-6.3-1-9.6,6.6-14.8c4.5-3,5.5-4.6,6.3-9.5c0.6-3.9,1.1-3.5,1,0.9c0,2.9-0.1,3.1-1.8,8.5c-2.6,8.1-3,11.3-1.7,16
		c0.5,1.8,0.3,2.3-0.2,0.9c-1.9-4.4-1.9-9.2-0.1-14.4l1.2-3.6l-2.2,2.3c-1.2,1.3-2.7,3-3.2,3.8c-0.6,0.8-1.1,1.4-1.1,1.3
		c-0.2-0.4,1-2.5,2.4-4.3c1.5-1.9,1.4-2-0.8-0.3c-4.9,3.8-4.8,10.9,0.2,16.2l1.6,1.7l-1.2-2.5c-2.2-4.6-2.5-8-0.9-10.9
		c1-1.8,3.1-4.4,2.7-3.2c-2.1,5.4-1.7,11,1.1,16.5c1.2,2.4,1.7,2.3,6.8-1c8.2-5.4,11.9-20.2,7.4-29.6c-0.4-0.9-1-2.3-1.4-3.2
		c-0.8-2.2-2.3-4.9-4.4-8c-5.3-7.9-7-14.6-5.4-22.3c0.1-0.7,0.3-1.5,0.2-1.9c0-1.4-0.5,0.5-1.2,4.6c-1.2,7.2-0.6,10.3,3.5,19.9
		c1.1,2.5,0.5,2.2-1.5-0.7c-0.7-1-1.9-2.8-2.8-3.9c-4.2-5.6-5.9-13.5-4.7-21.3c0.3-1.9,0.4-4,0.4-6.1
		C350.3,118.8,350.3,118.6,350.1,120.1 M140.4,125.5c-2.2,0.4-5.1,2.4-4.8,3.3c0.1,0.2,0.7,0.5,1.3,0.7c0.6,0.2,2.2,0.9,3.5,1.6
		s2.5,1.3,2.7,1.3c0.2,0,0.9,0.2,1.5,0.5c1.8,0.8,3.3,1.1,3.8,0.7c0.5-0.4,0.2-0.7-1.5-1.3c-2.3-0.9-2.6-1.8-1-3.5
		c0.4-0.5,0.5-0.8,0.4-1.8l-0.2-1.2l-1.6-0.2c-0.9-0.1-1.9-0.2-2.3-0.3C141.8,125.4,141,125.4,140.4,125.5 M122.3,127.4
		c-0.6,0.1-1.2,0.4-1.4,0.7c-0.4,0.5-0.4,0.5-2.3,0c-2.8-0.8-9.4-0.1-13.6,1.3c-2,0.7-4.2,3-6,6.3c-0.5,0.9-1.2,1.7-1.9,2.2
		l-1.1,0.8h-4.3c-4,0-4.4,0-5.5-0.6c-2.3-1.2-6-0.4-7.2,1.6l-0.4,0.6l0.6-0.6c1.8-1.6,4.1-1.7,7-0.3c1.1,0.5,2.5,1.1,3.1,1.3
		l1.2,0.3l-1.2,1.2c-1.5,1.5-2.6,1.9-3.7,1.3c-0.9-0.5-2.4-0.4-2.6,0.1c-0.1,0.2,0.4,0.6,1,0.9c1.9,1,0.8,2.9-1.7,2.9
		c-1.8,0-2,0.7-0.3,0.9c1.4,0.2,2.1,0.8,2.1,1.7c0,1.7-1.4,2.6-5,3c-3.1,0.4-3.6,0.6-1.9,1.1c4.3,1.1,6.1,0.1,10.2-5.5
		c3.3-4.7,3.9-5.1,7.8-6.3c1.7-0.5,3.5-1.1,3.8-1.2c0.7-0.3,2.9-0.1,3.4,0.4c0.4,0.3,0.2,1.5-0.4,2.7c-0.4,0.8-0.1,1,0.6,0.2
		c0.8-0.9,1.9-1.2,2.7-0.7c1.1,0.7,0.8,1.7-1,4.4c-1.1,1.6-0.5,1.2,3-2.3c2.8-2.7,4.2-3.5,6.7-4c0.7-0.1,2.8,0.6,4,1.5l0.7,0.5
		l1-1.5c1.7-2.6,1.9-1.9,0.6,1.9c-1,2.8-1.1,3.3-0.6,3.3c0.6,0,2.8-2.6,3-3.4c0.3-1.4,1.2-1.4,1.2,0.1c0,1.7-0.3,2-4.7,7
		c-0.7,0.8-1.7,2-2.2,2.5l-0.9,1l0.8-0.2c0.9-0.2,3.3-1.8,6.6-4.5c3.6-3,5.2-3.5,6-2.1c0.7,1.3-0.6,5.2-2.2,6.7c-0.8,0.8-1,1-0.6,1
		c1.1,0,2.1-1,3.4-3.4c2-3.6,2.1-3.8,3.8-4c3.1-0.4,4.7,2.7,2.5,4.8c-1.3,1.2-1.1,1.7,0.4,0.9c2.5-1.3,5,0,3,1.6
		c-2.2,1.8-3.7,3.8-3.7,4.7c0,0.4,0.6,0,0.7-0.6c0.1-0.4,0.8-1.2,1.5-1.7c4.2-3.3,2.9,2.2-1.6,6.6c-2.4,2.4-3.5,3.9-4.1,6.1
		c-0.5,1.7,0,1.7,0.6,0.1c0.9-2.3,2.4-4,4.5-5.3c4.2-2.5,7.6-0.3,5.4,3.6c-1.1,1.9-0.8,2.9,0.3,1.1c1.8-2.8,3.4-3.2,6-1.1l1.7,1.4
		l0.2-1.6c0.2-1.6-0.1-5.4-0.6-7.4c-0.4-1.6-0.3-1.9,0.2-1.3c1.4,1.3,1.9,3.5,2.1,8.3c0.1,3.6,0.2,4.1,0.6,4.2
		c1.4,0.3,0.3-11.6-1.5-15.4c-1.2-2.5-0.4-1.9,1,0.7c2.2,4.1,3,12.1,1.8,17.2c-0.5,2.3-0.4,3.6,0.2,2.6c0.6-1,2.2-7.4,2.3-9.6
		c0.3-5.3-2.4-12.2-6.4-16.2c-1.2-1.2-2.6-2.6-3.1-3.1c-0.9-1-3.9-3.1-4.3-3.1c-0.1,0,0,0.5,0.3,1.1c0.9,1.7,0.8,3.1-0.4,5.5
		c-0.5,1.1-1,2.4-1,2.9s-0.1,0.9-0.3,0.9c-0.4,0-0.3-1.5,0.1-3.3c0.8-3.2-0.1-7.2-2.2-9.1c-0.7-0.7-0.7-0.6,0.3,1.6
		c1.3,2.8,1.3,4.6,0.2,5.7c-1.3,1.2-1.5,1.1-1.5-0.9c-0.1-4.7-2.8-8.3-7.9-10.7c-2.9-1.4-6.3-4.4-6.3-5.5c0-0.5,0.7-0.1,2.8,1.5
		c1.4,1.1,2.5,1.6,2.5,1.1c0-0.3-3.2-4-4.5-5.1l-1.3-1.1l1.9,0.6c2.7,0.9,4,1.6,5.9,3.3c4.7,4.2,6.3,5.4,8.4,5.7
		c0.5,0.1,1.2,0.4,1.6,0.7c0.8,0.6,1.1,0.7,1.1,0.2c0-0.6-1.3-1.6-2.6-2c-1.6-0.5-3.8-2.4-5.4-4.5c-0.7-1-1.7-2.1-2.2-2.4l-0.9-0.6
		l0.9,0.2c1.3,0.2,2.1,0.8,3.1,2.4c1.9,3,3.3,3.9,6.5,4.5c1.1,0.2,2.7,0.7,3.4,1c1,0.5,1.4,0.5,1.4,0.3c0-0.8-1.7-1.8-4-2.4
		c-0.9-0.2-1.8-0.7-2.2-1.1c-0.8-0.8-0.8-0.8,0.3-0.4c0.4,0.2,1.7,0.4,2.9,0.5c1.2,0.1,2.5,0.3,2.9,0.4l0.8,0.2l-0.7-0.7
		c-0.5-0.5-1.2-0.8-2.6-1.1c-2.9-0.6-4.6-1.4-6.7-3.6c-3.2-3.1-6.4-4.3-8.3-3l-0.8,0.5l-1.8-0.9C125.6,127.4,124,127.1,122.3,127.4
		 M303.9,127.7c-0.2,0.2-0.5,1.1-0.9,1.9c-0.3,0.9-1.8,3.4-3.4,5.7c-3.2,4.8-3.1,4.3-1.2,5.8c4.1,3.2,6.5,3.8,11.2,3.1
		c7.4-1.2,11.1-1.4,12.2-0.9c1.3,0.6,1.2,0.7-1.6,1c-1.3,0.1-3.9,0.7-5.9,1.2c-6.3,1.7-12,1-16-1.7c-2.8-1.9-2.8-1.9-3.2-1.6
		c-1.3,1,0.2,3.1,3.2,4.5c5.2,2.4,9.9,2.4,18.9,0.1c2.5-0.6,5.1-1.2,5.8-1.3l1.2-0.2l-0.6-1.8c-1.4-4.1-2.7-5.7-7.4-9.2
		C309.1,129,304.7,126.7,303.9,127.7 M335.3,127.5c0,0.1,0.3,0.9,0.7,1.9c1.2,3.2,0.7,6-1.5,8.3c-0.7,0.8-2,2.8-3.4,5.4
		c-2.1,4,0.5,7.7,8.5,12c2.7,1.4,2.9,1.3,0.3-0.2c-3.7-2.2-6.6-5.4-7.3-8.1c-0.4-1.5-0.1-1.5,0.5-0.2c1.4,3.2,3.8,5.4,8.8,7.9
		c4.9,2.5,10.2,9.1,10.2,12.6c0,1.9,0.6,0.4,0.6-1.5c0.1-3.9-1.8-6.9-7.2-11.6c-5.9-5.2-8.8-10.6-7.8-14.8c0.9-3.8,0-9.7-1.7-11.3
		C335.6,127.6,335.3,127.4,335.3,127.5 M118.6,129.5c0.1,0.2-1.9,2.1-3.4,3.1c-1.4,1-3.8,1.7-5.5,1.7c-1.2,0-1.9,0.2-2.6,0.5
		c-1.2,0.7-1.3,0.5-0.3-0.6c0.6-0.7,1.3-1.1,2.6-1.5c2-0.7,3.7-1.4,4.4-2.1C115,129.6,118.2,128.8,118.6,129.5 M110.4,130.2
		c0.5,0.6-0.3,1.1-2.4,1.8c-2.4,0.7-3.7,1.7-4.8,3.6c-1.5,2.7-3.6,4.5-3.1,2.7c0.1-0.3,0.4-1.3,0.6-2.1c0.9-3.3,3-5.2,6.4-6
		C109.5,129.7,110.1,129.7,110.4,130.2 M158.5,130.7c-0.1,4.3,10.2,6.7,14,3.2c1.5-1.4,0.3-2.1-2.2-1.4c-0.7,0.2-1.8,0.5-2.5,0.6
		c-0.7,0.1-1.6,0.3-2.2,0.5c-0.8,0.2-1.3,0.2-3-0.3c-2-0.6-2.5-0.9-3.7-2.7l-0.5-0.7L158.5,130.7 M123.9,136.7
		c0.4,0.7,1.1,1.8,1.6,2.3c1.5,1.7,1.9,3.6,1.2,5.5c-0.4,1-0.8,0.8-0.8-0.3c0-1.2-0.6-2.3-1.9-3.9c-1.7-1.9-2-2.8-1.9-5.1
		c0.1-2.9,0.4-3.4,0.9-1.5C123.1,134.7,123.6,136,123.9,136.7 M232,136.8c-3.3,3.6-7.4,6.5-16,11.3c-1.5,0.9-3.2,1.9-3.8,2.3
		c-1.7,1.3-3,1.4-9.3,0.6l-1.2-0.2l1.1,0.4c0.6,0.2,1.5,0.7,2,1c1.1,0.8,1.6,1,4.8,1.9c2.4,0.7,4.3,0.7,6.9-0.1
		c2.1-0.6,1.3,0.3-1.6,1.7c-4.4,2.2-6.8,2.4-12.5,0.9c-1.7-0.4-4-0.8-5.2-0.9l-2.1-0.1l2.4,1c1.3,0.5,3.1,1.2,4,1.5
		c0.9,0.3,1.8,0.7,2,0.9c0.9,0.8,6.1,2.3,9.2,2.7c1.9,0.2,1.5,0.6-1.3,1.1c-0.9,0.2-2.2,0.4-2.9,0.6c-1,0.2-2.2,0.2-5.2-0.2
		c-2.8-0.3-4-0.4-4.4-0.2c-0.5,0.3-0.5,0.3,0.2,0.4c0.4,0.1,1.8,0.4,3.2,0.7c7.6,1.8,15.4-0.1,22.4-5.3c1.1-0.8,3.2-2.3,4.6-3.3
		c2.4-1.7,5.2-3.9,4.7-3.7c-0.1,0.1-1.5,0.9-2.9,1.9c-5.5,3.6-8.2,4.8-13.2,5.5c-3.1,0.4-4,0.5-4,0.1c0-0.3,0-0.3,2.7-0.9
		c4.4-1,11.9-5.9,16.5-10.7c1.7-1.8,1.7-1.8,0.3-0.6c-3.2,2.8-10.2,7-13.7,8.1c-2.1,0.7-1.8,0.4,1.6-1.9c4.4-3,5.2-3.8,2.1-2.3
		c-1.5,0.8-3.4,1.2-4.3,1c-0.3-0.1,0.1-0.5,1.4-1.3c2.8-1.9,7.5-4.9,9.2-5.7c0.8-0.4,2.1-1.4,2.8-2.1c1.2-1.2,1.3-1.2,0.4-0.8
		c-0.5,0.3-1.4,0.7-2,0.8c-0.6,0.2-2.4,1.3-4.1,2.6c-3.4,2.5-4,2.9-7.1,4.1c-2.9,1.1-3,0.9-0.2-0.8c6.1-3.7,15.6-12.4,15.6-14.3
		C234.7,134,234.2,134.4,232,136.8 M115.6,136.2c0.5,0.8-1.9,2.2-4.8,2.9c-0.9,0.2-2,0.7-2.6,1c-0.9,0.6-1,0.6-1,0.1
		c0-1.4,2-2.6,6.1-3.8C115.5,135.9,115.5,135.9,115.6,136.2 M129.6,140.2c1.3,1.1,1.9,3.2,1.5,4.9c-0.3,0.9-0.7,1.1-0.8,0.3
		c-0.2-1.5-1-3.5-2-4.9C126.8,138.3,127.2,138.2,129.6,140.2 M335.4,141.5c-0.2,2.5,0.3,4.8,1.3,5.9c0.2,0.3,0.6,0.8,0.9,1.3
		c0.2,0.4,1.1,1.5,1.9,2.4c2.7,3,0.7,1.9-2.5-1.4c-3.1-3.2-3.8-6.1-2.4-9.2C335.5,138.6,335.6,138.8,335.4,141.5 M258,144.4
		c-4.3,1.3-7.5,3.4-10.9,7.3c-5.8,6.6-12.7,13-15.4,14.4c-1,0.5-1.5,1.1-1,1.1c0.5,0,4.7-2.4,7-3.9c1.4-1,3.5-2.4,4.5-3.2
		c4.5-3.2,16.5-13.6,18-15.7C260.7,143.5,260.8,143.5,258,144.4 M304.7,152.8c-4.5,4.6-5.6,7.8-4.5,12.7c0.2,0.8,0.3,2.1,0.4,2.9
		c0,1.8,0.6,1.9,1.4,0.3c0.6-1.4,0.7-3.4,0.1-5c-1.2-3.3-0.2-6.1,3.5-10.4c1.2-1.4,2.1-2.9,1.9-3.1
		C307.4,150.1,306.2,151.3,304.7,152.8 M317.4,151c0,0.2,0.4,1.2,0.9,2.2c0.6,1.1,0.9,2.2,0.9,2.8v1l-0.7-0.5
		c-0.4-0.3-1.6-0.9-2.8-1.4c-3-1.3-4.1-2.2-3.9-3.4c0.1-0.8,0.1-0.9-0.2-0.5c-1.5,1.5-0.4,5.2,2.2,7.2c3.3,2.5,5.1,5.1,5.1,7l0,1
		l0.5-0.6c0.5-0.7,1.4-3,1.9-4.9c0.6-2.5-0.4-6.1-2.4-8.6c-0.5-0.6-0.8-1.2-0.8-1.4s-0.2-0.4-0.4-0.4S317.4,150.8,317.4,151
		 M146.1,152c-0.1,0.5-0.3,2-0.4,3.4c-0.2,2.4-0.6,3.8-1.4,4.5c-0.5,0.4-0.5-4.9,0-5.7c0.2-0.3,0.3-0.7,0.3-0.9c0-0.5,1-2.1,1.4-2.1
		C146.2,151.1,146.2,151.4,146.1,152 M395.3,153.2c-0.5,1.3-0.3,3.6,0.4,5.3c1.7,4,2.4,6.5,2,8c-0.2,0.8-0.5,2.3-0.7,3.5
		c-0.9,4.7-1.8,6.5-6.9,13.3c-2.6,3.4-5.4,9.5-3.9,8.6c0.1-0.1,0.3-0.3,0.3-0.5c0-1,4.1-7,6.5-9.6c3.2-3.4,4.4-5.2,5.1-8.4
		c0.6-2.5,1.2-3.1,1.2-1.3c0,1.9-0.7,4.2-1.8,6.2l-0.9,1.7l0.8-0.7c2-1.9,3.8-6.2,3.8-8.8c0-4.3-1.1-8.8-2.5-10.2
		c-1.2-1.2-2.4-4-2.5-6C396,152.4,395.7,152,395.3,153.2 M289.1,155.2c-0.9,0.6-1,0.6-1.1,2.6c-0.3,3.5-2.6,11.2-7.5,24.9
		c-0.8,2.3-2.5,7-3.7,10.3c-2.5,6.9-4.6,11.2-9,18.4c-0.7,1.1-1.8,3-2.4,4.1c-0.6,1.2-1.5,2.7-1.9,3.3c-0.4,0.7-0.7,1.4-0.7,1.6
		c0,0.6,3.1-2.8,4.3-4.9c0.6-1,2.1-3.3,3.3-5.1c4.3-6.3,6-9.8,9.9-19.6c2-5.1,4-10.1,4.5-11.2c0.5-1.1,1.9-5,3.2-8.7
		c1.3-3.7,2.3-6.3,2.2-5.8s-0.4,2.8-0.7,5.1c-0.6,4.6-1,6.1-3.1,13.4c-1.5,5.2-1.6,5.6-4.7,13.9c-1.9,5.3-7.1,20.2-7.4,21.2
		c-0.3,1.2,0.9-0.8,2.1-3.7c0.7-1.6,1.9-4.3,2.6-5.9c0.7-1.6,1.3-3,1.3-3.1c0-0.1,0.6-1.5,1.3-3.1c7.4-16.3,11.4-30.5,12.7-45
		l0.2-2.2l-1.5-0.6C291.1,154.5,290.3,154.5,289.1,155.2 M70.3,155.6c-1.6,0.4-3.1,1-3.6,1.6l-0.6,0.7l1.1-0.5
		c1.7-0.8,4.3-0.7,5.4,0.2c1.6,1.4,0.5,2.8-2.5,3.1c-2.8,0.3-5.9,1.4-7.7,2.9c-1.6,1.3-1.3,1.7,0.5,0.6c3.8-2.2,6.8-2.5,9.9-1.1
		c1.3,0.6,1.9,0.8,4.3,0.8c3.1,0.1,3.9,0.4,3.1,1.3c-0.2,0.2-0.8,0.4-1.3,0.4c-1,0-2.6,0.9-2.6,1.5c0,0.3,0.1,0.4,0.5,0.1
		c1.3-0.7,4.3,0.1,4.3,1c0,0.5-0.6,1.1-2.7,2.5c-1.7,1.1-3.1,2.6-3.1,3.3c0,0.4,0,0.4,0.5,0c3.9-3.5,8.4-2.2,7.1,2
		c-0.4,1.2-0.8,2.8-0.9,3.4c-1.2,5.4-1.7,6.8-3.2,8.6c-0.5,0.6-1.6,1.5-2.5,2.1c-4.5,3-5.1,4.1-5.9,11.2c-0.7,5.9-0.9,6.7-2.7,8.7
		c-1.4,1.5-0.5,1.3,1-0.2c1.7-1.8,2.3-3.3,3-7.5c0.9-5.4,1.2-5.9,4.2-7.1c2.8-1.1,4.1-2.4,5.6-5.7c2-4.3,2.1-4.4,3.6-6
		c1.6-1.7,1.6-1.7,2.4-1l0.6,0.5l-0.6,1.5c-0.3,0.8-1,1.9-1.6,2.5c-2,2-3.1,6.4-2.8,11.6c0.1,3.1,0.1,3.5-0.5,5.2
		c-0.7,2-0.7,2.4,0,1.4c1-1.5,1.5-3.7,1.7-7.5c0.2-2.8,0.3-4.1,0.7-4.9l0.5-1.1l0.2,2.8c0.2,3.8,0.8,5.1,3.6,8.7
		c3.3,4.3,4.3,9.5,2.6,14.1c-0.9,2.4-0.9,2.5-0.6,2.5c0.2,0,0.8-0.9,1.4-1.9s1.4-2.3,1.6-2.7c0.7-1.1,0.7-6.9-0.1-9.3
		c-0.7-2.1-1.1-5.3-1-7.1c0.1-1.7-0.5-2.2-0.9-0.7c-0.3,1.3-1.7,1.8-2.4,0.9c-1-1.2-1.3-2-1.8-4.9c-0.9-4.6-0.7-6,1.1-10
		c1.7-3.5-1-5.7-3.9-3.2c-0.7,0.6-1.3,1.1-1.4,1.1c-0.2,0,1.7-4.6,2.1-5.2c1.3-1.9,0.3-5.6-1.7-6.5c-0.9-0.4-1.1-0.6-1.2-1.4
		c-0.1-0.5-0.5-1.5-1-2.1c-0.8-1.1-0.8-1.3-0.5-2.1c0.5-1.3-0.1-2.2-1.5-2.6c-1.9-0.4-2.9-1.3-4-3.5C74.7,155.9,73,155,70.3,155.6
		 M360.6,158.3c5.6,5.8,6.4,12.3,3.1,22.5c-1.9,5.8-3.1,7.4-1.4,1.9c1.6-5.4,2.5-10.9,1-6.6c-0.4,1.2-1.4,3.4-2.2,4.9
		c-1.7,3.1-2,4-2.5,6.8l-0.3,1.9l0-1.7c0-2.5,0.3-3.7,2.2-7.7c4.6-9.8,4.4-15.8-0.8-21.8c-1.9-2.1-2.2-2.7-1.7-2.7
		C358,155.7,359.2,156.8,360.6,158.3 M283.5,158.7c-4.4,2.9-4,2.5-5.1,5.6c-1.7,4.8-3.3,8.7-5.3,12.7c-2.3,4.6-2.9,6.3-2.5,6.7
		c0.4,0.4,1.4-0.7,2.5-2.6c0.5-0.9,1.6-2.8,2.4-4.4c1.9-3.3,3.9-7.6,5.7-12.2c0.7-1.8,1.3-3.2,1.4-3.2c0.3,0.3-2.4,8.4-5,15.2
		c-0.6,1.5-1.6,4.3-2.4,6.3c-3.2,8.6-7.2,16.1-14.7,27.5c-1.7,2.5-2,3.3-1.6,3.7c0.5,0.5,9.4-12.5,13.3-19.5c3.6-6.4,4.3-7.7,5.3-10
		c0.6-1.3,1.4-3.4,1.9-4.5c0.5-1.2,1.3-3.2,1.8-4.4c0.5-1.2,1.5-3.5,2.1-5.1c2.7-6.3,5-14.4,4.2-14.4
		C287.5,156.2,285.6,157.3,283.5,158.7 M308.3,157.3c-2,3.2-0.3,7.3,3.7,9c2.7,1.2,5.9,5.6,5.9,8.2c0,1.4-0.2,1.8-1.7,3.8
		c-2.2,2.9-2.6,4.4-1.7,6.5c1.2,2.8,2,3.4,4.3,3.1c1.7-0.2,1.7-0.6,0-1.4c-1-0.5-1.5-0.9-2-1.8l-0.7-1.2l0.5-1.4
		c0.4-1.1,0.9-1.8,2.9-3.7c4.3-4.1,4-5.6-2.2-10.7c-6.3-5.1-7.8-7.1-7.9-9.7C309.4,156.4,309,156.2,308.3,157.3 M305,157.6
		c-2.1,3.3-0.7,9.5,2.4,10.3c1.1,0.3,0.4,1.7-1.1,2.4c-0.5,0.2-0.9,0.5-0.9,0.6s-0.6,0.7-1.3,1.2c-3.2,2.3-2.2,3.3,4.5,4.9
		c3.4,0.8,3.7,1.6,1,3c-7.8,3.9-11.7,7.1-13.5,11.5c-0.7,1.6-0.6,1.6,0.6-0.1c0.9-1.2,4.9-4.4,5.9-4.7c0.2,0,0.1,0.1-0.2,0.2
		c-1.6,1,0.8,3,3.6,2.9c1.2,0,1.3-0.1,0.9-0.3c-1.6-1-2.3-2.1-1.8-2.9c0.7-1.2,3.2-3.4,5.6-4.8c2.4-1.4,3.5-2.8,3.5-4.3
		c0-1.3-2-3.4-3.2-3.4c-1,0-1.1-0.6-0.1-1c1.3-0.6,2.5-0.4,3.5,0.6c1.5,1.5,1.7,1.3,0.9-0.5c-1.4-2.9-2.6-3.3-5.8-1.7
		c-2.9,1.4-3,1.3-1.2-0.3c2.1-2,1.9-3-0.5-4.7c-2-1.4-3.1-5.3-2.3-8.1C305.7,157,305.6,156.7,305,157.6 M108,158.5
		c-1.2,1.3-1.1,3.8,0.4,9c1.3,4.8,5.7,10,8.7,10.4c1.9,0.3,5.2-0.1,6.2-0.6c0.4-0.2,1.7-1,2.8-1.6l2.1-1.2l-0.2-1.2
		c-0.1-0.7-0.3-1.5-0.5-1.9c-0.2-0.4-0.5-1.5-0.8-2.5c-0.5-2.1-1.5-3.6-3.2-5.2c-1.4-1.2-2-1.4-6.4-2.2c-3.8-0.7-5.7-1.4-7.2-2.7
		l-1.1-1L108,158.5 M227,161.6c-7.8,5.6-13.5,8-17.1,7.4c-2.3-0.4-2.5-0.4-2.6-0.1c-0.4,1,6.4,1.8,8.7,1c1.9-0.7,6.4-3.4,8.1-4.9
		c0.9-0.8,2.4-2.1,3.3-2.7c1.4-1.1,4.1-3.7,3.8-3.6C231.2,158.6,229.3,160,227,161.6 M390,159.9c0.1,0.3,0.5,1.4,0.9,2.5
		c2.2,6.1,0.9,12.7-3.6,17.9c-3.7,4.2-4.2,5.2-5.2,9.7c-0.3,1.1-0.6,2-0.7,1.8c-0.6-0.6,1-8.8,2-10.4c0.2-0.4,0.4-0.7,0.3-0.8
		c-0.2-0.2-2.9,3.9-3.7,5.7c-0.4,0.8-0.9,2.4-1.1,3.7c-1.1,6.1-1.9,7.5-5.7,10.7c-1.4,1.2-2.2,1.6-4.1,2.1c-2.9,0.9-3.3,1.6-0.8,1.3
		c4.6-0.6,8.4-3.1,11.4-7.5c0.9-1.3,1.1-1.4,0.8-0.5c-0.3,1-2,3.6-3.2,5c-1.3,1.4-1,1.5,0.8,0.3c3.3-2.3,4.9-5.2,6.2-11.1
		c0.6-3.1,1.4-4.6,3.4-6.6c5.2-5.3,6.9-15.1,3.6-22C390.4,159.6,389.6,158.6,390,159.9 M366.8,166.6c0.8,2.4,1,9.2,0.4,12.9
		c-0.8,5.1-1.2,6.1-4.7,9.7l-1.2,1.2l0.6-1.1c1.6-2.7,2.1-4.1,2.8-7c0.4-1.7,0.8-3.6,1-4.2c1-3.8,0.5-11.1-1.1-15.7
		c-0.3-0.9-0.5-1.6-0.5-1.7C364.1,160.4,366.2,165,366.8,166.6 M252,170.7c3.7,1.9,8.6,6.8,8.6,8.6c0,1.1,2,4.7,2.8,4.9
		c1,0.3,1.6,0,2.1-1c0.6-1.3,0.6-1.3-0.8-3.1c-4.7-5.9-9.9-10-12.8-9.9l-1,0L252,170.7 M102,172.1c-4.6,8.7-0.6,27.5,7.5,35.5
		l1.2,1.2l2.1-0.3c3.1-0.5,6.7-2.7,10.8-6.6c5.2-5,11.3-8,15.9-7.8l2.5,0.1l0.8-1.7c3.6-7.6,2.9-16.3-1.4-17.4
		c-1.6-0.4-6.1-0.2-8.1,0.5c-0.9,0.3-2.2,0.6-2.9,0.7c-4,0.6-10.9,5.6-13,9.4c-0.7,1.3-3.5,9.3-4.5,12.7l-0.5,1.9l0.1-3.2
		c0.1-1.8,0.2-4.2,0.3-5.3c0.5-6.2-4.3-17.6-8.2-19.6C103.3,171.5,102.3,171.5,102,172.1 M248.4,175.1c0.1,0.2,1,0.7,2.1,1.2
		c2.5,1.1,5,2.7,5.5,3.6c0.2,0.4,0.6,0.9,0.8,1.2c0.2,0.3,0.4,1,0.4,1.7c0,1.3,1.4,2.6,2.1,2c0.1-0.1,0.6-0.2,1-0.1
		c3,0.6-0.9-5.2-5.1-7.7C253.1,175.7,248.1,174.4,248.4,175.1 M227.9,178.2c-1.6,0.8-3.4,1.6-4,1.7c-0.6,0.2-1.9,0.8-2.9,1.5
		c-1,0.7-2,1.2-2.3,1.2c-0.6,0-1.8,0.7-3.9,2.2c-1.1,0.8-2,1.2-3.6,1.6c-1.2,0.3-2.4,0.7-2.7,0.8c-0.3,0.2-1.3,0.5-2.1,0.7
		c-0.9,0.2-1.9,0.5-2.3,0.7c-0.4,0.2-1.7,0.4-3.1,0.5c-6.1,0.4-11,4.9-12.5,11.3c-0.2,0.8-0.3,1,3-4.1c0.8-1.2,1.7-2.3,2-2.4
		c0.3-0.1,1-0.6,1.5-1c1-0.8,1-0.7,0,0.6c-0.3,0.4-0.7,1.3-1,2.1c-0.7,1.9-0.3,2.4,0.7,0.8c1.3-2.1,2.6-3.5,4-4.4
		c1.9-1.2,2.1-1.1,1,0.3c-1.3,1.7-2.3,3.7-2.2,4.4c0.1,0.4,0.3,0.2,1-1.2c1.2-2.2,3.1-4.1,5-5c1.9-0.9,1.9-0.9,0.5,1.9
		c-1.1,2.1-1.5,3.9-1,3.9c0.1,0,0.7-0.9,1.2-2c1.8-3.6,4-5.7,6.3-6.2l0.9-0.2l-0.5,0.6c-0.4,0.6-0.7,1-2.6,4.6
		c-1.3,2.4-1,2.7,0.4,0.3c2.3-4,5.4-7.1,7.3-7.1c0.1,0-0.3,0.5-0.7,1.2c-1.4,2-2.4,4.4-2.5,6.1l-0.2,1.6l0.8-1.8
		c1.4-3.1,5.1-8,6.2-8c0.4,0,0.3,0.2-0.9,2.2c-1.4,2.3-2.9,6.3-2.8,7.6c0.1,0.8,0.1,0.9,0.3,0.4c1.6-3.9,3.3-6.5,5.8-9.2
		c1.6-1.7,1.6-1.7,0.7-0.4c-0.8,1.2-2.3,3.9-2.3,4.3c0,0.5,0.7-0.1,1.6-1.5c1.2-1.8,3.4-4.2,3.7-4.2c0.1,0-0.2,0.7-0.8,1.5
		c-1.1,1.7-3.2,5.4-3.2,5.8c0,0.1,0.5-0.5,1.1-1.3c6.2-9.1,12.6-12.5,15.8-8.4c0.3,0.5,1.1,1.4,1.6,2c1.6,1.8-0.2,2.4-2.9,0.9
		c-0.8-0.4-1.5-0.7-1.5-0.6c-0.1,0.1-0.4,0-0.8-0.3c-0.9-0.6-2.7-0.5-2.6,0.3c0,0.1-0.2,0.3-0.4,0.3c-1,0.2-0.9,0.5,0.1,0.7
		c2.5,0.4,3.9,4.2,2.4,6.1c-0.7,0.9-1.2,0.9-2.7,0c-1.4-0.8-2.7-0.8-3.9-0.1c-0.9,0.5-0.9,1.1-0.2,1.1c1.7,0,3.3,2.3,2.8,4
		c-0.4,1.4-0.9,2-1.5,1.7c-0.9-0.5-3.3,0-4,0.9c-0.8,0.9-0.8,1,0.3,1.6c0.7,0.4,1.2,1,2.1,2.8c1.3,2.6,1.3,2.6,2.6,2.8
		c0.8,0.1,1.7,0.8,3.8,2.7c1.7,1.5,3.1,2.6,3.6,2.7c0.4,0.1,1.3,0.6,1.8,1.2c1,1,1.7,0.7,1.2-0.6c-0.1-0.2-0.2-0.7-0.3-1.1
		c-0.1-0.5-0.3-0.7-0.7-0.7c-0.4,0-0.5-0.2-0.5-0.7c0-0.7-0.4-1.2-4.1-4.6c-0.8-0.8-1.7-1.4-1.8-1.4c-0.2,0-0.7-0.7-1.3-1.5
		c-1.6-2.5-0.4-2.2,3,0.8c2.6,2.3,4.2,3.2,5.3,3c1.9-0.3,3.5,1.9,3.5,5c0,5.3,0,5,0.5,5c0.6,0,0.6-0.2,1.1-2.6
		c0.3-1.5,0.3-1.7-0.1-2.2c-0.3-0.3-0.6-1.2-0.7-2.3c-0.5-3.8-0.8-4.4-4.4-7.5c-2.7-2.3-3.6-3.6-4-5.8c-0.2-1.2,0-1.1,1.9,0.8
		c0.9,0.9,2.3,2.1,3.2,2.6c4.8,3,5.2,3.3,5.4,4c0.4,1.9,2.4,4.8,3.6,5.2c0.2,0.1,0.1,0.7-0.3,1.7c-1.3,3.8,0.3,3,1.8-0.9
		c1.3-3.6,1.4-4.9,0.5-6.9c-2-4-3.5-5.8-6.8-7.7c-0.5-0.3-1.8-1.5-2.9-2.6c-3.3-3.4-2.3-4.1,2.2-1.5c3.3,1.9,4.3,2.4,6.7,2.7
		c2.6,0.3,2.4,0.3,3.7,0.1c1.8-0.3,2,0.2,2,5.2c0,4.6,0.2,4.5,1.1-0.8c1.2-6.9,0-10-4.4-11.6c-2.4-0.9-5.2-2.6-6.9-4.1
		c-0.9-0.8-2-1.9-2.5-2.3c-1.6-1.5-4.2-2.3-7.6-2.4c-1.6,0-3.3-0.2-3.7-0.4C231.5,176.5,230.9,176.7,227.9,178.2 M93.6,182.4
		c-0.4,3.5,0.8,11,2.7,16.7c1.2,3.6,1.5,4.2,3.8,9.3c2,4.3,2.4,9.4,1.2,15.6c-0.6,2.9-0.5,3.4,0.2,4.9c1.5,2.9,3.8,4.4,5.8,3.8
		c0.6-0.2,2.4-0.5,3.9-0.7c6-0.8,16.4-4.1,23.4-7.5c5.3-2.6,7.1-3.3,12.1-4.8c1.8-0.5,3.8-1.3,4.6-1.7c1.5-0.9,1.4-1-0.5-0.4
		c-0.7,0.2-2,0.5-2.9,0.7c-0.9,0.2-2.1,0.5-2.7,0.7c-0.6,0.2-1.7,0.4-2.5,0.4c-0.8,0-3,0.2-4.7,0.4s-5.1,0.5-7.5,0.7
		c-5.4,0.3-11.1,1.4-16.7,3.1c-3.5,1.1-4.3,1.1-5.6,0.2c-0.6-0.4-1.2-0.8-1.4-0.7c-1.3,0.5-1.9-3.8-0.8-5.9c1.2-2.4,2.1-3.2,4.4-4.4
		c2.7-1.4,2.7-1.5,0.2-0.9c-3.2,0.7-4.4,1.5-6.1,4.3l-0.8,1.3l0.2-1.5c0.3-2.2-0.4-4.7-2.5-8.9c-2.9-5.9-4.8-11-6-16.4
		c-1.1-4.9-1.2-5.3-1.4-7.7l-0.2-2.3L93.6,182.4 M315.3,191.1c-0.8,0.1-1.6,0.3-1.7,0.5s-1.4,0.3-2.7,0.4
		c-5.6,0.3-16.2,7.2-18.1,11.7c-0.6,1.3-0.5,1.3,1.9-0.8c4.9-4.3,11-7,19.7-8.8c3.5-0.7,4.4-0.6,6,0.7c1.6,1.3,1.6,1.4-0.2,1
		c-8.8-1.7-24,7.4-29.5,17.7c-1.9,3.5-1.5,4.1,0.4,0.8c3.9-6.6,15.6-14.5,23.2-15.7c1.6-0.3,1.3,0-1,0.8c-7,2.5-16.2,8.5-17.8,11.6
		c-0.5,1-0.3,0.9,1.2-0.3c6.6-5.8,22.1-12.1,25.4-10.2c0.7,0.4,0.7,0.4-0.4,0.4c-4.4,0-15.4,4.2-18.6,7c-1.6,1.4-1.2,1.5,1.3,0.2
		c7-3.5,17.2-6,19.3-4.7c0.4,0.2,1,0.6,1.5,0.8c1.1,0.5,1.3,0.9,1.7,2.5c0.6,2.7,1.2,3.1,1.5,0.8c0.1-0.7,0.3-1.6,0.4-2
		c0.8-2.1-0.3-6.5-1.6-6.5c-0.1,0-0.2-0.2-0.2-0.5c0-0.7-0.8-1.3-2.3-1.7c-1.7-0.4-1.7-0.4-0.7-1.2
		C326.3,193.5,320.5,190.4,315.3,191.1 M188.3,192.7c-2.2,0.8-3.6,3.5-4.7,9.1c-0.9,4.7-0.9,5.1,0.2,1.9c1.3-3.6,2.2-5.4,4.4-8.4
		c1-1.3,1.7-2.4,1.7-2.4C189.9,192.7,188.7,192.6,188.3,192.7 M176.6,193.7c-2.3,1.7-4.4,6.3-5.2,11.6c-0.3,1.6,0.4,3.3,0.8,2.1
		c0.8-2.4,1.4-3.6,2.4-5.2c0.7-1,1.2-1.6,1.1-1.4c-0.1,0.3-0.2,1.4-0.3,2.5c-0.2,2.6,0.2,2.7,1,0.1c0.3-1.1,1.3-3.5,2.2-5.3l1.6-3.4
		l-0.5-0.7C178.9,192.9,177.8,192.8,176.6,193.7 M182.3,193.8c-0.3,0.3-0.8,0.7-1.1,0.8c-1.4,0.5-3,5.3-3.2,9.6
		c-0.2,3.6,0.2,5.5,0.6,2.7c0.6-5.1,2.8-10.8,2.8-7.1c0,1.4,0.3,1.6,0.8,0.4c0.8-2.2,1.3-3.1,2.1-4.1c1.3-1.7,1.2-2.3-0.5-2.6
		C183,193.3,182.7,193.4,182.3,193.8 M170.6,195c-2.2,0.5-3.5,1.4-2.8,2c0.2,0.2,0.2,0.6,0,1.1c-0.5,1.8-0.1,6.6,0.5,6.6
		c0.1,0,0.7-1.1,1.4-2.4c0.7-1.3,1.8-3.4,2.6-4.6C174.1,195,173.7,194.4,170.6,195 M145,195.6c-11.3,1-16.5,3.3-21.2,9.5
		c-1.2,1.5-2.1,2.3-4.2,3.8c-3,2-3.2,2.3-1.2,1.5c3.5-1.4,16.2-2.4,28.7-2.4c7.9,0,13.7-1.6,14.3-3.9c0.4-1.7,1.9-4.8,2.9-6
		c1.5-1.8,0.9-2.1-3.4-1.8c-2.4,0.2-5.9,0.1-11.7-0.5c-1.5-0.1-2.8-0.2-3.1-0.2C146,195.5,145.4,195.6,145,195.6 M191.5,201.7
		c-0.8,1.1-1.5,2.2-1.6,2.4c-0.5,0.9,2.1,3.5,5.1,5.1c2.8,1.5,2.5,0.8-1-2.6c-2.2-2.2-2.2-2.2-0.1-1.8c7.6,1.8,24.7,8,31.1,11.4
		c0.7,0.4,2.5,1.3,4.1,2.1c6.8,3.3,10.8,6.2,14.7,10.4c2.9,3.1,3.4,4.3,1.3,2.6c-0.7-0.5-1.7-0.9-3-1.2c-1.1-0.2-3.1-0.9-4.3-1.5
		c-2-0.9-2.3-1-2.3-0.6c0,1.2,9.7,5.7,13,6.1l1.4,0.2l1.4-1.4l1.4-1.4l-1.4-2c-5.2-7.7-9.9-12.4-15.5-15.4c-1.3-0.7-3.7-2-5.2-2.9
		c-7-4-7.6-4.3-13.3-6.4c-3.2-1.2-8.3-2.7-11.6-3.5c-1-0.2-2.4-0.6-3-0.8c-0.9-0.3-6.7-0.9-9-0.9
		C193.1,199.7,192.5,200.2,191.5,201.7 M350,201.1c-1,1.5-1.5,4-0.8,4.6c0.1,0.1-0.1,0.3-0.4,0.5c-1.4,0.7,0.6,3.4,2.5,3.4
		c0.2,0,0.6,0.2,0.9,0.5c1.3,1.4,6.5,3.5,8.8,3.5c0.7,0,1.6,0,2,0.1c3.9,0.3,5.4-0.4,4.6-2c-0.3-0.6-0.4-0.7-2.8-0.6
		c-1.4,0.1-2.6,0-2.7-0.1c-0.4-0.3-4.4-1.2-5.2-1.1c-0.4,0-0.8-0.1-0.9-0.2c-0.1-0.1-0.7-0.4-1.3-0.6c-3-0.8-5.7-2.6-4.6-3.1
		c0.3-0.1,0.6,0,0.9,0.3c1,1.3,8.8,3.1,13.6,3.1c3.5,0,3.9-0.1,3.7-1.3c0-0.3,0-0.7,0.1-0.9c0.2-0.3-1.2-0.5-2.3-0.4
		c-2.2,0.3-11.5-3.1-14.8-5.3C350.5,200.9,350.2,200.8,350,201.1 M317.1,207.3c-1.6,1.4-1.5,2.3,0.6,6.6c0.8,1.7,0.6,1.7-2-0.2
		c-3.7-2.7-7.1-3.4-9.6-2.1c-3.9,2-6.7,6.1-5,7.4c0.2,0.2,0.8,0.7,1.3,1.2c1.2,1.2,7.3,5.9,8.8,6.9c0.7,0.4,2,1.2,2.7,1.7
		c2.8,1.8,5.8,2.8,4.1,1.4c-1.6-1.3-10.5-9.4-11.3-10.4c-0.4-0.4-0.1-0.3,0.8,0.3c0.7,0.5,2.5,1.6,3.9,2.4c1.4,0.8,3.2,1.8,3.9,2.3
		c0.8,0.5,1.5,0.9,1.7,0.9c0.1,0,1.3,0.6,2.5,1.4c1.2,0.8,3.2,1.9,4.3,2.5l2.1,1.1l0.9-0.8c0.5-0.4,1.6-1.3,2.5-1.9
		c0.9-0.6,2.2-1.8,3-2.7c0.8-0.9,1.8-2,2.3-2.5l0.9-0.8l-0.8-0.6c-1.1-0.9-8-9.8-9.5-12.4l-1.3-2.1l-2-0.2
		C318.4,206.2,318.3,206.3,317.1,207.3 M347.7,211.6c-2.4,3.3-4,7.2-5.2,12.7c-0.9,4-0.9,4.7-0.2,6.1c0.9,1.7,1,1.5,1.2-2.3
		c0.1-2.1,0.3-3.9,0.7-5.1c0.3-1,0.5-1.5,0.4-1.1c-0.4,2.6-0.5,10.6-0.1,10.8c0.9,0.5,0.9,0.2,1.3-4.6c0.3-3.7,1.3-8.6,2-9.2
		c0.3-0.3,0.2,0.4-0.3,2.9c-0.4,1.8-0.7,4.7-0.8,6.4c-0.1,1.7-0.2,3.6-0.2,4.3l-0.1,1.3l1.4,0.4c1.6,0.5,1.7,0.4,2.5-1.7
		c0.9-2.4,1.1-3.4,1.5-7.2c0.4-3.9,1.1-6.8,2-7.8l0.6-0.6l-0.2,0.7c-0.1,0.4-0.4,1.5-0.7,2.5c-0.3,1-0.6,3.5-0.8,5.6
		c-0.3,4.5-0.6,6-1.3,7.8l-0.6,1.4l1-0.1c1.6-0.1,2-1.3,2.2-5.7c0.1-3.4,0.4-4.4,0.7-2.7c0.2,1.3,0.3,5.5,0,6.7l-0.2,1l0.9-0.5
		l0.9-0.5l0-4.1c0.1-4.6,0.4-5.9,3-11.4c1.4-2.9,1.3-2.7,0.6-2.7c-0.3,0-1.4-0.3-2.5-0.7c-2.5-0.9-2.2-1-4.2,1.8
		c-3.1,4.3-3.3,5-4.1,10.8c-0.6,4.7-1,3.7-0.5-1.4c0.5-5.1,0.7-5.8,3.1-9.5c2.2-3.3,2.1-3.1,0.8-3.9l-1-0.6l-1.2,1.5
		c-0.7,0.8-1.8,2.4-2.5,3.5c-0.7,1.1-1.3,1.9-1.4,1.8c-0.1-0.4,1.9-4.4,3.1-5.8c1.3-1.6,1.3-1.4,0.3-2.1l-0.8-0.6L347.7,211.6
		 M201.7,210.8c-0.6,0.4-0.2,0.6,2,1.5c1,0.4,2.8,1.2,3.9,1.8c1.1,0.6,2.1,1,2.3,1c0.3,0,13.2,6.5,13.1,6.6
		c-0.2,0.2-3.8-1.1-14.8-5.8c-8-3.3-8.6-3.5-10.6-2.1c-3.3,2.3-12.5,9.4-15.8,12.2c-8.9,7.7-20.3,16-30,21.8c-1.5,0.9-3.3,2-4.1,2.6
		c-1.4,0.9-3.5,1.9-9,4.1c-3,1.2-7.9,2.5-8.6,2.3c-1.7-0.5-2.9,0.1-4.6,2.3c-2.3,2.9-7.4,7.6-10.5,9.6c-1.5,1-3.9,2.6-5.5,3.7
		c-1.5,1.1-3.5,2.4-4.2,2.9l-1.4,0.9l2,0.9c8.1,3.7,30.7,5.2,39.3,2.5c0.9-0.3,2.6-0.6,3.9-0.8c2.1-0.3,5.6-1.3,12.1-3.5
		c6.9-2.4,19.2-8,25.5-11.8c1.6-0.9,4.3-2.4,6-3.3c1.7-0.9,4.3-2.3,5.7-3.1l2.5-1.5l0-1.5c0-1,0.2-1.9,0.6-2.7
		c0.7-1.4,0.6-1.5-0.5-0.9c-0.5,0.3-1,0.9-1.4,1.6l-0.5,1.1l0-1.1c0-2.4,1.5-4.3,3.5-4.6c1.1-0.2,1.2-0.1,2.8,1.6
		c0.9,1,1.8,1.8,1.9,1.8c0.2,0,0.6,0.4,0.9,0.9c1.1,1.8,1.5,1.5,1-0.9c-0.4-1.6,0.2-3.9,1.3-5.3c0.4-0.5,0.5-0.9,0.4-0.9
		c-0.5,0-2.4,2.2-2.7,3.1c-0.2,0.7-0.2,0.6-0.3-0.7c0-2,0.8-3.6,2.5-4.7c1.8-1.2,2-1.2,5.2,2.1l3,3l-0.2-1.1c-0.4-2-0.2-4.3,0.5-5.7
		c1.1-2.2,0-1.3-1.9,1.7l-0.5,0.8l-0.2-0.8c-0.9-4.2,4.1-7.2,6.9-4.1c0.3,0.3,0.7,0.6,0.9,0.6c0.2,0,0.7,0.3,1.2,0.7
		c1.2,1,1.3,0.9,1.2-1.4c-0.1-2.5,0.4-3.5,2.6-6.3c1.4-1.8,1.7-2.6,0.6-2c-0.8,0.4-4,4.8-4.3,5.9c-0.4,1.5-0.6,1.2-0.5-0.8
		c0.2-2.2,1-4,3-6.2c0.8-0.8,1.8-2,2.4-2.6l1-1.1l-1.1-1.5c-1.1-1.5-1.3-1.6-3.8-2.6c-1.5-0.6-4.6-2-6.9-3.2
		c-2.3-1.2-5.5-2.6-7.1-3.2c-1.5-0.6-3.5-1.4-4.2-1.9C205.4,211.2,202.4,210.3,201.7,210.8 M206.5,216.1c2.9,1.2,4.2,2.7,1.5,1.6
		c-4.7-1.8-11.5,0.6-19.2,6.6c-4.5,3.6-18.4,13.9-22.9,17.1c-1.4,1-4.9,3.5-7.7,5.6c-4.6,3.4-5.4,3.9-8.6,5.3
		c-9.4,4-10.6,4.5-10.9,4.4c-0.3-0.1,1.7-1.1,8.1-4.1c4.3-2,27.5-18.3,32.4-22.8c0.8-0.7,2.8-2.2,4.4-3.4c1.6-1.2,4.3-3.2,5.9-4.5
		C198,214.9,201.2,213.9,206.5,216.1 M360.5,218c-2.7,4.7-3.7,8.5-3.6,12.5l0.1,1.8l0.6-1.7c0.3-1,0.6-2.4,0.7-3.2
		c0.2-2,1.5-5.9,3.1-9.2C363.1,214.5,362.5,214.5,360.5,218 M337.2,224.4c-1.7,1.1-3.3,2.5-5.6,4.9c-3.8,4.1-4.2,4.6-4,6.4
		c0.4,3.5,1.5,7,1.5,4.8c0-1.3,1.9-3.3,2.7-2.8c0.3,0.2,0.3,0.4-0.3,1c-1.3,1.3-1.4,2-0.7,4.4c0.3,1.2,0.7,2.1,0.8,2.1
		c0.4,0,1.4-1.6,2-3c0.7-1.8,1.3-1.9,1.3-0.2c0,0.9-0.2,1.5-0.7,2.3c-1.2,1.8-0.8,2.3,1,1.1c3.2-2,3.3-7.5,0.2-10.6
		c-1.6-1.6-1.7-2-0.2-2c1.5,0,1.9-0.4,1.8-1.7c-0.2-1.5,0.3-2.7,2.2-5.1c1.8-2.3,2-2.7,1.3-3C339.8,222.8,339.7,222.8,337.2,224.4
		 M222,230c-0.1,2.6-0.1,2.6-1.9,2.7c-4.2,0.2-10.3,3.2-17.8,8.9c-1.3,1-3.1,2.3-4,2.9c-1,0.6-3.3,2.3-5.2,3.6
		c-1.9,1.3-4.6,3.1-6,3.9c-1.4,0.8-3.6,2.1-4.9,3c-8.6,5.7-16.8,9.7-21.1,10.3c-1.2,0.2-3.2,0.5-4.5,0.8c-7.3,1.6-22.5-1.4-26.1-5.2
		c-0.7-0.7-0.8-0.9-0.4-0.8c0.3,0.1,1.4,0.4,2.5,0.7c1.1,0.3,2.7,0.8,3.6,1c6.7,2,17.1,1.1,26.2-2.4c7.3-2.8,23-12,28.9-16.9
		c11-9.2,18.2-12.7,27.1-13.5c1.8-0.2,3.3-0.3,3.3-0.4C221.9,228.3,222,228.8,222,230 M358.8,233.6c-0.1,0.2-0.4,0.9-0.6,1.5
		l-0.3,1.2l-1.5-0.1c-1.7-0.1-9.3,0.9-11.2,1.4c-0.7,0.2-1.3,0.4-1.3,0.4c0,0-0.3-0.5-0.6-1c-0.7-1.4-2-2.4-3-2.4
		c-1.1,0-1.2,0.6-0.3,2c0.4,0.7,1.1,2,1.4,2.9c1.2,3.7,2.7,4.2,17.2,4.8l4,0.2l0.7-0.7c1.7-1.6,0.4-7-2.4-9.3
		C359.5,233.2,359.2,233.1,358.8,233.6 M150.5,234.7c-7.3,1.8-10.5,2.3-13.7,2.1c-5.4-0.3-7.5-0.6-8.7-1.1c-2.5-1.1-9.1-1.8-9.1-0.9
		c0,0.1,1.1,0.5,2.4,0.8c1.3,0.3,3,0.9,3.7,1.3c6.5,3.6,9.8,4.3,14.6,3c9.2-2.5,11.9-3.5,15.1-5.5l0.9-0.6l-0.8,0
		C154.4,233.8,152.4,234.2,150.5,234.7 M282.8,235.5c-1.9,0.8-5.1,4.6-5.1,6c0,2.3,1.8,2.1,2.3-0.1c0.4-2,2-4.5,3.5-5.5
		C284.5,235.1,284.2,234.9,282.8,235.5 M245.4,236.6c0,0.2,0.3,0.6,0.7,0.8c0.8,0.4,3.4,2.8,2.7,2.4c-0.2-0.1-0.1,0.1,0.2,0.5
		c0.4,0.4,0.7,0.7,0.8,0.6c0.8-0.5,4.7,6.5,5.5,9.9c1.7,7.4-2.5,16.3-9.3,20.2c-1.2,0.7-1.6,1-1.1,0.9c12.9-2.9,17.9-22.1,8.3-31.3
		C250.3,237.7,245.4,235.2,245.4,236.6 M256.5,239.4c-0.1,0.2,0.1,0.5,0.4,0.9c0.7,0.7,1.9,3.1,2.7,5c0.6,1.4,0.7,1.5,1.6,1.7
		c0.5,0.1,1.3,0.2,1.7,0.3c1.1,0.2,1.1-0.7-0.4-5.5l-0.5-1.8l-1.3,0c-0.7,0-1.6-0.2-1.9-0.4C257.9,239.1,256.7,239,256.5,239.4
		 M286.7,239.5c-3.2,0.7-5,2.8-2.7,3.2c2.7,0.5,4.9,2.3,7.2,5.7c1.5,2.3,2,2.8,2,2c0-0.2,0.2-0.7,0.5-1l0.5-0.6l-1.8-1.8
		c-1-1-1.7-1.9-1.6-1.9c0.2-0.2,3.7,2.4,5.8,4.1c1.5,1.2,2,1.3,1.5,0.2c-0.6-1.3-7.5-6-8.8-6c-0.5,0-2.2-0.8-2.2-1.1
		c0-1.3,3.4-1.6,5.8-0.5c0.9,0.4,1.7,0.7,1.7,0.6C294.5,240.2,290.4,238.7,286.7,239.5 M263.6,239.9c0.5,1.5,1,4.6,1,6
		c0,1.5,0,1.6,0.6,1.5c0.6-0.1,0.6-0.3,0.8-2.4c0.1-1.5,0.4-2.9,0.8-3.9l0.7-1.7h-2C263.7,239.4,263.5,239.5,263.6,239.9
		 M268.8,240.9c-1.1,2.5-1.9,5.9-1.3,5.9c0.1,0,1.4-0.2,2.9-0.4c1.5-0.2,2.8-0.4,2.9-0.4c0.2,0,0.3-5.2,0-6.1
		c-0.1-0.5-0.3-0.6-2-0.6h-1.8L268.8,240.9 M238,241.9c-2.1,0.7-5.4,2.9-5.4,3.7c0,0.1,0.3,0,0.6-0.3c1.5-1.4,4.3-2.1,6.7-1.7
		c1.8,0.3,1.7,0.6-0.4,1.2c-1.4,0.5-2,0.8-2.9,1.8c-1.6,1.8-2.2,3.8-0.8,2.4c1.3-1.2,2.6-1.7,4.6-1.7h1.9l1,1.2
		c1.7,2.1,1.9,3.6,0.8,6.7c-0.8,2.4-1.2,2.7-3.7,3.3c-3,0.8-3.9,0.3-4.7-2.1c-0.3-1-0.8-0.9-0.8,0.1c0,2,2.5,3.8,5.6,3.9l1.9,0.1
		l-1.1,0.9c-0.6,0.5-1.8,1.2-2.7,1.6c-1.7,0.7-2.1,1.2-0.7,0.9c2.9-0.5,3.7-0.7,5.1-1.6c1.1-0.7,1.5-0.8,1.4-0.5
		c-0.4,1.1-1.8,2.2-4.1,3c-0.7,0.2-1.1,0.5-0.9,0.5c0.8,0.1,4.7-1.6,5.7-2.4C254.4,255.7,248.6,238.6,238,241.9 M249.5,244
		c0.4,0.8,1,2.2,1.3,3c3.4,7.5,0.7,17.9-5.5,21.7c-1.3,0.8-1.8,1.5-0.9,1.2c5-1.9,8.9-8.3,9.6-15.6c0.3-3.4-1.3-7.7-4-10.5l-1.3-1.4
		L249.5,244 M283.4,245.7c1,1,2,2.5,2,3.2c0,0.4-0.6,0-1.4-0.9c-1.1-1.3-3.1-2.4-3.1-1.8c0,0.2,0.3,0.6,0.7,0.9
		c0.8,0.6,0.9,1.6,0.5,4.5l-0.2,1.6l1.1-1c1.3-1.1,3.2-1.7,4.5-1.3c1,0.3,1.2,0.1,0.9-1.1c-0.6-2.4-3.5-5.3-5.5-5.3l-0.8,0
		L283.4,245.7 M276.7,245.7c-0.8,0.8,0.9,3.7,2.5,4.6c1.4,0.7,1.4,0.7,1.4-0.2C280.6,249.4,277.1,245.4,276.7,245.7 M340.8,245.7
		c-0.3,0.3-0.2,2.1,0.3,3c0.8,1.5,2.8,2.8,8.1,5.1c8.4,3.6,11.9,3.9,13.5,1.2c2.1-3.7,1.9-7-0.3-4.7c-0.8,0.8-1.4,1-1.9,0.6
		c-0.4-0.4-11.2-3.2-14.7-3.7c-1-0.2-2.4-0.6-3.1-1C341.3,245.5,341.1,245.4,340.8,245.7 M268.3,249c-0.2,0.1-1.4,0.3-2.7,0.4
		c-1.5,0.1-2.3,0.3-2.5,0.5c-0.1,0.2-0.5,0.4-0.9,0.5c-0.9,0.2-2,1.9-2,3.1v0.9l0.8-1.2c1.4-2.1,3.4-2.9,4-1.5
		c0.2,0.5,0.2,0.7,0,0.7c-0.2,0-0.2,0.1-0.1,0.3c0.1,0.2,0.4,0.2,0.7,0.2c0.3-0.1,0.5,0,0.5,0.2c0,0.2,0.5,0.8,1.1,1.4
		c0.9,0.9,1.1,1.4,1.2,2.1c0.1,2.1,0.7,2.1,1.7,0c0.6-1.2,0.7-2.6,0.1-3.8c-0.2-0.5-0.4-1.1-0.3-1.4c0.3-0.7,1.4,0.5,1.8,1.9
		c0.2,0.6,0.4,1.2,0.5,1.3c0.3,0.3,0.3,1.1,0,1.7c-1.7,3.2-1.7,4,0,5.3c0.4,0.3,0.4,0.2,0.3-1.2c-0.1-1,0-1.9,0.2-2.5l0.4-0.9
		l0.2,1.7c0.2,2,1,3.8,1.7,4.2c1.7,0.9,2.3-0.5,0.7-1.7c-1.6-1.2-1.8-2-1.6-5.3C274.6,251.3,271.3,247.3,268.3,249 M276.1,251.8
		c0,1.5,1.8,2.9,3.6,2.7c1.2-0.1,1-0.5-0.8-1.5c-0.9-0.5-1.8-1.1-2-1.4C276.2,251,276.1,251,276.1,251.8 M217.3,253
		c-1.6,2.6,3.5,14,7.5,17c1,0.7,4,2.2,4.4,2.2c0.2,0-0.3-0.3-1-0.7c-3.7-1.8-8.1-8.8-9.2-14.3C218.2,253.1,217.8,252.1,217.3,253
		 M337.8,253.1c-2,2,0.9,6.2,5.6,8.2c8.9,3.8,13,4.4,14.1,2.1c0.2-0.3,0.7-1,1.1-1.5l0.8-0.9l-2.5-0.3c-4.9-0.6-11.1-3-16.1-6.3
		c-1.2-0.8-2.3-1.5-2.5-1.6C338.4,252.8,338.1,252.9,337.8,253.1 M264,254.8c-0.3,0.4,0.3,1.4,0.9,1.6c0.9,0.3,0.9,0.1,0-0.9
		C264.5,254.9,264.1,254.6,264,254.8 M295.7,255.4c2.7,0.7,7.7,3.1,9.5,4.4c1.2,0.9,0.9,0.9-1-0.1c-3-1.5-6.7-2.7-10.6-3.5
		c-5.6-1.1-7.1-1.1-3.1,0.1c2.7,0.8,10.3,4.3,10.1,4.6c-0.1,0.1-1.4-0.4-3.1-1.1c-2.8-1.1-9.9-3.2-10.5-3c-0.4,0.1,3.2,2.8,5.4,4
		c2.2,1.2,2.9,1.8,1.8,1.4c-1.7-0.5-3.9-1.5-5.6-2.6c-1.1-0.7-2-1.2-2.1-1.1c-0.3,0.3,1.6,3.1,3.1,4.7c1.7,1.9,1.8,2.2,0.2,1
		c-1.3-1-2.9-2.8-3.5-4c-0.6-1.2-0.7-0.4-0.2,1.4c0.4,1.6,1.6,3.6,3.3,5.6c0.5,0.6,0.8,1.1,0.6,1.1c-0.4,0-2.6-2.3-3.4-3.5
		c-1.2-1.7-1-1.1,0.7,2.1c1,2,1.4,2.8,0.9,2.3c-1-1.1-3-4.3-3.6-5.6l-0.5-1.1l0.2,1.2c0.8,6.2,7.9,13.2,16.9,16.7l0.7,0.3l-0.6,0.3
		c-3,1.6-12.7-1.5-16.6-5.2c-0.8-0.8-1.6-1.5-1.7-1.5c-0.4,0,3.3,3.2,5,4.4c2.7,1.8,6.7,3.7,8.4,3.9c0.8,0.1,2.1,0.4,2.9,0.5
		c12.4,2.7,24.4-6.6,20.8-16.2c-2.2-6-14.1-12-24.2-12.3l-2.8-0.1L295.7,255.4 M221.2,255.8c-1.4,3,3.7,12,7.4,13.1
		c0.6,0.2,0.5,0-0.6-1.1c-2.9-3-4.4-5.6-5.4-9.4C221.7,255.1,221.6,254.9,221.2,255.8 M261.8,257.8c-0.3,0.5,0.4,1.2,1.4,1.4
		c2.6,0.4,4.1,0,2.4-0.7C264.4,258,262,257.6,261.8,257.8 M260.4,260.9c-0.5,1.4,3.6,2.6,5.5,1.6c1.5-0.8,1-1.1-3-1.6
		C261,260.6,260.5,260.6,260.4,260.9 M336.7,263.1c0.9,4.9,9.5,8.5,14.7,6.2c1.8-0.8,1.6-1.1-1.1-1.5c-2.8-0.4-11.4-3.9-12.5-5.2
		C337,261.7,336.5,261.9,336.7,263.1 M269.2,267.2c-0.2,0.5,0.2,1.3,1.6,3.1c1.8,2.3,1.7,2.7-0.2,0.9c-2-2-2.1-2-2-0.4
		c0.2,1.3,0,1.2-0.7-0.6l-0.3-0.8l-0.2,1.1c-0.1,0.6-0.4,1.2-0.6,1.3c-0.2,0.1-0.6,1.1-0.8,2.2c-0.8,3.7-1.2,2.6-0.5-1.6
		c0.2-1.4,0.3-2.7,0.3-2.8c-0.4-0.4-3.1,4.3-3.8,6.8c-0.6,1.9-0.6,1.9-0.8,1.2c-0.3-0.7,0.3-3,1.4-6.6c0.7-2.1,0.6-2.3-0.4-1.2
		c-2.1,2.3-3.2,6.2-3.1,11.3l0.1,3.8l-0.9,0.8c-3,2.6-7.7-8.4-5.2-12c0.7-0.9,1.6-3.1,1.2-2.6c-3.1,3.1-3.6,9-1.2,13.9
		c3.6,7.3,15.3,9.7,20.7,4.2c5.8-6,4.9-14.3-2.4-20.8C269.6,266.9,269.4,266.8,269.2,267.2 M334,270.5c-0.8,1.5-5.6,19.8-5.6,21.2
		c0,1,1.5,1,2.3,0.1c0.5-0.6,4.4-9.9,6.5-15.5c0.5-1.3,1-2.6,1.2-2.8c0.6-0.7,0.4-1-1.3-1.8c-0.9-0.4-1.8-0.9-2-1.2
		C334.6,269.9,334.3,270,334,270.5 M194.6,270.6c-1.3,0.2-3.3,1.2-2.9,1.4c0.7,0.4,6.8,2.7,9.9,3.6c1.9,0.6,3.6,1.2,3.7,1.3
		c0.6,1-4.8,0.3-10-1.3c-3.7-1.1-3.5-1,0.6,0.8c5.4,2.3,5.5,2.6,0.6,1.3c-2.9-0.8-6.2-2-8.6-3.3c-0.8-0.4-1.2-0.5-1.6-0.3
		c-1.8,1,13.2,6.8,22.5,8.6c3.6,0.7,2.2,1-2.2,0.5c-6.7-0.8-13.1-2.6-18.5-5.3c-1.8-0.9-3.2-1.5-3.2-1.5c0,0.5,9,5.6,11.8,6.7
		c0.9,0.4,2.2,1,2.9,1.4c1.7,1,9.2,2.6,15.2,3.1c1.1,0.1,3.3,0.3,4.9,0.5c6,0.8,16.2,0.6,21.8-0.3c1.6-0.3,0.6-0.6-2.2-0.6
		c-1.1,0-2.5-0.2-3.2-0.3c-5.2-1.1-7-1.4-10.1-2.2c-1.9-0.4-4-0.9-4.5-1.1l-1-0.3l0.7-0.2c0.4-0.1,1.8,0,3.1,0.2
		c4.5,0.7,19.7,1.3,19.2,0.8c-0.2-0.2-6.4-0.9-10.2-1.1c-3.6-0.2-8.2-0.8-13.6-1.8c-4.1-0.8-3.3-0.9,1.4-0.3
		c5.9,0.8,22,0.4,21.1-0.5c-0.1-0.1-2.8-0.2-6-0.3c-3.8-0.1-6.9-0.3-8.9-0.7c-1.7-0.3-4.1-0.6-5.5-0.8c-3.3-0.4-7.4-1.2-9.7-1.9
		l-1.9-0.6h15.8c8.7,0,15.9-0.1,16-0.2c0.4-0.4-0.2-0.5-4.7-0.7c-5.5-0.3-10.3-0.7-13-1c-1.1-0.1-4.3-0.5-7.2-0.7
		c-2.9-0.2-7-0.8-9.3-1.2C196.2,270.2,196.6,270.2,194.6,270.6 M101.2,277.5l-0.9,0.5l4.6,1.5c6.8,2.3,11.7,3.2,15.7,3.1
		c1,0,1.1-0.1,0.5-0.1c-7.1-0.7-13.9-2.6-17.6-4.9C102.4,276.9,102.3,276.9,101.2,277.5 M317,282.7c-2.6,1.2-10.3,13.5-10.3,16.5
		c0,0.8,1.5,2.8,2.2,2.9c0.3,0.1,1.2,0.2,1.9,0.3l1.3,0.2l-1.2-1.1c-1.3-1.3-1.9-2.5-1.7-3.5c0.2-0.8,0.5-1,0.7-0.3
		c0.3,0.9,2.9,3.4,4.3,4.1c1.7,0.9,11.2,1,13,0.2c0.6-0.3,1.7-0.5,2.5-0.5c1.5,0,1.9,0.4,0.8,0.6c-0.8,0.2-3,1.7-4.9,3.3
		c-4.3,3.6-14.1,18.8-15.2,23.7c-0.2,0.7-0.4,1.6-0.5,1.9c-0.1,0.3,0.5-0.8,1.3-2.4c4-7.8,6.6-9.6,12.4-8.6c1.2,0.2,3,0.5,4,0.6
		c1.9,0.2,9.8,2,12.5,2.8c0.9,0.3,1.8,0.5,1.9,0.4s0.9,0,1.6,0.2c0.8,0.2,2.2,0.4,3.1,0.6c1,0.2,1.9,0.6,2.3,0.9
		c0.8,0.8,0.4,1-1,0.4c-1.9-0.6-13-0.8-15.7-0.3c-4.6,1-7.1,3.3-13,12.4c-2.2,3.4-3.4,6.7-4.5,12.4c-0.5,2.7-0.6,4-0.1,2.5
		c2.8-9.1,10.4-20.3,15.5-22.8c2-0.9,9-0.6,15.7,0.7c1.6,0.3,3.3,0.6,3.7,0.7c0.4,0.1,2.1-0.2,3.7-0.7l2.9-0.8l-1.5-1.5
		c-0.8-0.8-2-2.1-2.7-2.9c-2.5-2.9-7.5-6.1-10.7-6.7c-0.9-0.2-3.7-0.9-6.1-1.5c-4.9-1.3-9.8-2.2-11.8-2.2c-1.6,0-1.6,0,0.5-2.9
		c2.4-3.4,5.3-6.1,8.3-7.9c3.4-2,4-3.2,2.4-5.3c-1.6-2.2-4.9-2.9-10-2.1c-4.4,0.6-10.4,0.5-11.2-0.3c-1.5-1.4,0.8-7.7,3.8-10.3
		c1.2-1,1.6-0.4,0.7,0.9l-0.6,0.8l0.8,1.6c0.4,0.9,0.8,2.1,0.9,2.7c0.2,1.5,1.4,1.7,2.2,0.2C323.7,288.8,320.3,281.2,317,282.7
		 M188.3,285.1c0,0.2,2.3,1.7,3.2,2.1c0.5,0.2,2.7,1.2,4.8,2.1c10.3,4.7,14.8,6.1,28.9,8.9c5.6,1.1,11.6,1.4,19.3,0.9
		c7.6-0.5,7.1-0.8-1.3-0.8c-12.6,0-25.9-1.9-26.4-3.8c-0.1-0.3-0.3-0.5-0.5-0.5c-0.2,0-0.3-0.1-0.3-0.1c0.1-0.1,5.3,0.4,11.4,1.3
		c4.5,0.6,27.1,0.3,28.9-0.5c1-0.4,0.5-0.7-0.8-0.6c-6.4,0.8-12,0.8-20.1-0.2c-1.7-0.2-5.4-0.6-8.3-0.8c-10.3-0.8-24.3-3.5-31.4-6
		c-0.8-0.3-2.6-0.8-4-1.2c-1.5-0.4-2.8-0.7-3.1-0.8C188.5,285,188.3,285,188.3,285.1 M311,286c-0.4,0.5-0.8,0.9-1,0.9
		c-0.2,0-1.8,0.8-3.6,1.8c-5.2,2.9-9.1,5-11.9,6.3c-4.4,2.1-6.8,3.8-10.9,8c-2.1,2.1-3.8,3.7-3.8,3.6c0-0.3,1.9-3.5,3.1-5.5
		c1.6-2.5,8.1-8,10.3-8.8c0.2-0.1,0.2-0.2,0.1-0.3c-0.7-0.7-7.8,3.8-11.2,7c-1.4,1.4-2.6,2.4-2.6,2.3c0-0.7,2.1-4.4,3.6-6.4
		c1.8-2.4,1.4-2.5-0.6-0.3c-6.5,7-9.1,16.2-8.4,30.3c0.2,4.1,0.3,7.7,0.2,8.1c-0.1,0.4,0,0.9,0.1,1.1c0.4,0.9,0.7-0.7,0.9-5
		c0.6-9.8,0.9-10.9,2.8-14.8c1.1-2.1,1.5-2.5,0.8-0.8c-1.6,4.2-2,8.1-2,19.7c0,11.7,0.1,10.8-1,15.6c-0.8,3.5-0.9,4.4-0.8,6
		c0.2,2.7,0.7,3.2,0.5,0.5c-0.1-1.2,0-2.6,0.1-3.2c0.1-0.6,0.7-2.7,1.3-4.8l1-3.7l0.1-6.3c0.2-16.6,0.8-20.6,4.1-27.1
		c1.3-2.6,1.7-3.1,1.1-1.6c-1.3,3.4-3.2,14.9-3.2,19.1l0,3.6l0.6-3.9c1.2-7.4,4.1-17.5,5.9-20.1c1.9-2.9,7.5-7.7,12.6-11
		c1.5-1,3.4-2.2,4.1-2.7s2.1-1.4,3.1-2c2-1.2,3.6-2.8,4.7-4.5C312,285.7,312,284.7,311,286 M273,293.6c-3.5,3.6-5.3,4.7-8.8,5.9
		c-4.1,1.3-9.3,2.9-11.1,3.3c-2.1,0.5-14.7,1-17.5,0.6c-11-1.4-22.7-4.2-28.4-6.9c-1.2-0.6-2.7-1.2-3.3-1.4c-0.6-0.2-2-0.8-3.1-1.4
		c-2.3-1.1-4.8-2.1-5-2c-0.2,0.2,0.3,0.7,1.9,1.6c0.9,0.5,3.5,2,5.9,3.3c7.8,4.5,14.1,7.2,21.8,9.4c10.7,3,14.8,3.1,25.6,1
		c2.3-0.4,4.1-0.7,4.2-0.7c0.4,0.4-7.7,3.8-11.2,4.8l-4,1.1l-2.5-0.3c-5.6-0.7-8.1-1.4-16.8-4.6c-2.7-1-3.8-1.2-3.1-0.6
		c0.7,0.7,12.3,6,14.2,6.5c3.5,1,7.5,1.4,10.1,1c1.1-0.2,2.7-0.3,3.5-0.3c1.6,0,5-0.7,7.2-1.6c2-0.8,1.9-0.6-0.4,0.7
		c-5.6,3.2-14.8,4-20,1.8c-0.9-0.4-0.5,0.6,0.6,1.1c3.6,2,9.5,2.8,14.4,1.8c3.9-0.8,4.2-0.7,1.9,0.2c-5.3,2.2-9.5,2.3-16.6,0.3
		c-4.8-1.4-4.8-1.1,0.1,0.7c10.3,3.8,17.3,2.1,28.4-7c3-2.5,4.4-4,8.6-9.2c2.6-3.2,6.2-8.5,6-8.7c-0.1-0.1-0.8,0.7-1.6,1.6
		c-1.4,1.7-5.3,5.4-5.3,5c0-0.1,0.7-1,1.6-2.1c1.5-1.8,5-6.6,5.5-7.3C276.1,290.6,275.3,291.3,273,293.6 M304.1,295.1
		c-0.9,1-2.9,3-4.5,4.4c-11.8,10.2-12.8,12.5-13.3,29.3l-0.1,5.2l1-6.1c0.6-3.4,1.2-7.2,1.5-8.5c0.9-4.4,3.3-10.6,2.9-7.4
		c-0.1,0.6-0.2,2.5-0.4,4.2c-0.1,1.8-0.3,4-0.4,5.1c-0.3,2.7,0,2.1,0.9-2.4c1.6-7.7,3.9-12.4,8.5-17.6c2.1-2.3,5.4-6.7,5.7-7.4
		C306.4,292.8,305.7,293.3,304.1,295.1 M203,305.6c0,0.2,0.2,0.5,0.4,0.7c0.2,0.2,0.7,0.7,1,1.1l0.5,0.8l-0.7-0.3
		c-1.9-0.9-0.7,1.3,3.6,6.5c0.8,1,1.7,2.4,2.1,3.2s1,2.4,1.5,3.7c0.7,1.6,0.8,2.1,0.5,1.7c-0.8-0.8-3.5-4-6-7
		c-3.7-4.4-10.5-10.4-11.1-9.8c-0.1,0.1,0.4,0.7,1.2,1.3c3.4,2.8,12.1,12.9,12.1,14c0,0.1,0.4,0.9,1,1.7c1.6,2.3,2.7,4.8,4.3,9.2
		c0.8,2.3,1.5,4.2,1.6,4.3c0.4,0.4-1.2-7.2-1.8-8.6c-0.5-1.1-0.5-1.6-0.2-1.3c0.9,0.6,3,8.1,3.6,12.8c0.9,7,1.5,33.8,1,41.4
		c-0.3,4.2-0.1,7,0.3,4.6c2.2-11.7,2-38.7-0.4-52.7c-0.5-3-0.6-3.6-1.3-5.7c-0.1-0.5-0.2-0.9-0.1-0.9c0.3,0,1.6,3.4,2.4,6.5
		c0.9,3.7,1.1,3.8,0.6,0.6c-0.8-5.5-4.1-14.1-7-18c-0.7-1-1.7-2.5-2.3-3.5C208.1,309.2,203,304.4,203,305.6 M312.6,308.4
		c-3.2,1.6-8.1,5.7-9.2,7.7c-0.4,0.9-1.7,5.3-2.4,8.7c-0.4,1.9-0.8,11.1-0.5,10.7c0.1-0.1,0.4-1.8,0.8-3.8
		c1.2-6.8,3.3-11.7,6.4-14.9c1.3-1.4,6.9-4.7,7.9-4.7c0.5,0,3.2-3.9,3.2-4.7C318.7,306.9,314.5,307.5,312.6,308.4 M268.6,311.7
		c-1.4,2.9-2.7,7-3.9,12.8c-0.4,1.7-1,4.2-1.3,5.6c-0.7,2.7-1.7,7.9-2,11c-0.2,1.9-1.2,4.7-2.7,7.7c-3.5,7-3.8,11.2-0.9,17.2
		c1.6,3.4,2.3,5.8,2.3,8.9c0,1.5,0.1,1.8,0.3,1.6c0.5-0.5,0.3-5-0.3-8.7c-0.6-3.5-0.6-7.1,0.1-10.1c0.2-0.9,0.3-1.7,0.2-1.7
		c-0.2-0.2-1.4,1.4-1.6,2.1c-0.3,1-0.6,0.7-0.6-0.4c0-1.4,0.6-2.9,2.2-5.9c0.8-1.4,1.6-3.1,1.9-3.8c0.3-0.7,0.5-1.2,0.6-1.1
		c0.7,0.7,0.4,7.3-0.4,10.1c-1,3.5-0.8,5.4,0.9,10.3c2.4,6.6,2.9,14.7,1.4,20.5c-0.6,2.2-0.7,4.6-0.2,4.7c0.1,0,0.3-0.7,0.4-1.7
		c0.1-1,0.4-2.5,0.7-3.3c0.8-2.6,0.7-15.8-0.1-19.3c-1.4-5.9-1.1-11.4,0.9-16.4c1.5-3.9,1.6-4.1,1.6-11.1c0.1-10,1.4-19.2,3.2-24.2
		c0.5-1.2-0.6-0.1-1.3,1.4c-1.6,3.2-2.9,8.8-3.4,14.1c-0.7,7.9-1.5,8.6-1.5,1.3c0-3.7,0.1-5,0.6-7.3c1.2-5.6,2.2-9.5,3.3-13
		C270.5,308.4,270.4,308.2,268.6,311.7 M335.4,309.7c-3.9,1-5.9,1.9-5.9,2.5c-0.1,0.6,0.4,0.7,1.8,0.6c0.9-0.1,6.9,0.5,7.9,0.8
		c0.9,0.2,1.2,0.4,1.7,1.6c1.1,2.3,1.8,1.5,1.9-2.1C342.8,309.3,340.7,308.3,335.4,309.7 M192.6,309.7c0,0.1,1.6,1.7,3.5,3.5
		c6.5,5.9,11.3,14.4,9.6,17.2c-0.2,0.3-0.2,0.7-0.1,1c0.3,0.8-0.3,0.1-2.1-2.7c-0.9-1.5-2.5-3.5-3.4-4.5c-0.9-1-2-2.3-2.3-2.8
		c-0.9-1.4-6.3-6.3-11.1-10c-3.5-2.7-2.5-1.4,1.2,1.5c3.4,2.7,5,4.4,7.8,8.2c1.8,2.4,1.4,2.1-2.3-1.4c-1.9-1.8-4.2-3.9-5.1-4.6
		c-1-0.7-1.9-1.4-2.1-1.6c-1.1-1-5.5-3.6-6-3.6c-0.6,0,0.2,0.7,2.5,2.4c1.5,1.1,5.2,4.3,8.5,7.4c8.3,7.9,9.7,9.5,11.4,12.8
		c1.2,2.3,0.8,2.1-1.3-0.6c-2.2-3-5.3-6.2-4.6-4.8c0.2,0.4,1,1.6,1.7,2.6c4.2,5.6,5.1,13.8,4.3,39.8c-0.2,8.6,0,28.3,0.4,30.8
		c0.6,3.9,1.1-5.6,1.3-25.3c0.3-34.4,0.5-37.4,1.7-20c1.1,15.6,1.2,17.1,1.7,17.1c0.3,0,0.1-24.6-0.2-25.4c-0.2-0.4-0.1-0.5,0.3-0.4
		c0.6,0.1,1.3,2.4,1.7,5.5c0.2,1.3,0.4,3,0.5,3.8c0.5,2.7,0.8,10.5,0.8,18.7c0,4.5,0.1,8.8,0.2,9.6c0.2,1.3,0.3,1.1,0.3-2
		c0-1.9,0.1-4.1,0.3-4.9c0.1-0.8,0.2-6.1,0.2-11.7c-0.1-9.5-0.2-12.7-1.2-24.8c-0.5-6-1.3-10-2.8-13.4c-1.5-3.3-4.2-7.5-4.7-7.3
		c-0.2,0.1-0.6-0.3-1.1-0.9C199.9,315.9,192.6,309,192.6,309.7 M160.6,314.2c3.5,1.1,4,1.3,8.6,4c3.7,2.2,8.4,5.6,10.5,7.6
		c1.8,1.7,0.7,1.1-4.5-2.5c-3.7-2.6-8.8-5.4-9.2-5.2c-0.2,0.1-0.2,0.1-0.1-0.1c0.5-0.7-7.6-3.3-13.1-4.2c-2.2-0.4-3.4-0.4-2.4,0
		c0.2,0.1,2.2,0.7,4.5,1.5c9.6,3.2,23.6,12.5,28,18.6c0.7,1,0,0.9-0.8-0.1c-0.5-0.6-7.9-6.5-8.2-6.5c-0.1,0,0.3,0.5,0.9,1.1
		c0.6,0.6,1.5,1.9,2,2.9c1.3,2.6,2.8,4.7,4.8,6.8c1,1,1.8,1.9,1.7,1.9c-0.2,0.2-3-1.9-5.1-3.6c-3-2.5-6-4.8-6.3-4.8
		c-0.1,0-0.6-0.3-1.1-0.6c-3-2.2-15.4-6.6-18.4-6.5c-0.1,0,2.2,1,5.2,2.2c10.4,4.2,14.5,6.8,5.7,3.6c-1.6-0.6-4-1.5-5.3-1.9
		c-2.6-0.9-6.3-1.5-9.8-1.4l-1.9,0l3.7,0.7c2,0.4,4.2,1,4.9,1.3c0.7,0.3,2.5,0.9,3.9,1.4c1.5,0.5,4.1,1.5,5.7,2.3
		c1.7,0.8,4.1,1.9,5.3,2.4c2.1,0.9,5.1,2.7,5.5,3.3c0.1,0.1-0.8-0.2-2-0.8c-2.7-1.3-7.5-2.8-10.7-3.3c-4-0.7-3.3-0.1,2.8,2.3
		c4,1.6,10.1,4.7,10.1,5.1c0,0.1-1.2-0.3-2.7-0.9c-4.9-2-6.2-2.3-11.5-3.4c-9.5-1.9-21.5-3.2-20.6-2.3c0.2,0.2,3.5,0.9,8.1,1.7
		c11.8,1.9,16.4,3.6,33.3,12.3c2.9,1.5,5.4,2.7,5.6,2.7c2.9,0,5.6,9.1,6.9,22.9c0.4,4.1,0.8,6.7,1.1,6.5c0.3-0.2,0.3-3.7,0-7
		c-0.1-1.4-0.4-4.4-0.5-6.5c-0.9-13.7-1.8-16.8-6.2-22.9c-1.1-1.5-2-2.8-2-2.9c0-0.8,5.3,5.4,6.3,7.5c1.4,2.8,0.6-1-0.9-4.3
		c-1.9-4.2-2.2-4.8-2-4.8c0.6,0,3.8,5.8,4.7,8.4c1.4,4.4,2.1,7.8,2.3,12c0.4,7.7,1.1,5.9,1-2.7c-0.1-7.2-0.5-9.5-1.8-12.4
		c-0.6-1.2-1.3-3-1.7-3.8c-0.4-0.8-1-2-1.4-2.7c-0.4-0.6-1.2-2-1.8-3c-5.1-9.3-10.5-14.9-18.5-19c-3.6-1.9-4-1.7-0.7,0.3
		c1.4,0.9,3.2,2.2,3.9,2.9l1.4,1.3l-1.5-0.8c-8.5-4.8-14.9-7.5-17.5-7.5C157.9,313.3,158.7,313.7,160.6,314.2 M217.4,315.9
		c0,0.2,0.8,1.1,1.8,2.2c3.2,3.4,5.2,7,6.1,11c0.3,1.2,0.7,2.9,0.9,3.7c0.5,2,0.5,4.7-0.1,7.2c-0.6,2.5-0.9,1.8-1.2-3.6
		c-0.1-2.1-0.3-4.4-0.3-5.1c-0.2-2.3-5.5-11.1-6.2-10.3c-0.1,0.1,0.5,1.6,1.3,3.2c2.8,5.9,3.5,8.6,3,12.2c-0.6,4,0,7.5,1.8,10.1
		c0.4,0.6,1.1,1.8,1.4,2.6c0.7,1.5,3.2,5.5,4.6,7.2c1.5,1.8,0.7,1.3-1.5-1c-1.2-1.3-3-3.4-3.8-4.7c-1.9-2.9-2.2-2.5-0.5,0.7
		c1,1.9,1.8,3.1,4.1,5.6c6.6,7.3,7.3,10.9,4,19.2c-1.5,3.7-2,8.3-1.1,9.3c0.5,0.5,0.6,0.2,0.3-1.5c-0.3-2,0-3.5,1.4-6.9
		c3.6-8.5,3-15.5-2-22.9c-3.9-5.7-4.4-9.9-2.2-16.9c1.3-4,1.1-9-0.5-12.9c-1.6-4.1-2-4.2-0.8-0.3c0.7,2.3,0.8,3.2,0.8,5.7
		c0,4.7-0.2,5.2-0.9,2.5c-0.9-3.4-3.1-8.8-4.5-11.1C221.3,318,217.4,314.5,217.4,315.9 M270.7,327.5c-0.6,4.7-0.6,6.3,0.2,10
		c0.9,4,0.8,7.2-0.3,10.9c-1.3,4.5-0.1,13.5,3,21.1c1,2.6,1,1.9-0.2-2.2c-0.8-2.7-1.2-4.8-1.5-7.7c-0.5-4.5-0.4-4.8,0.8-10.3
		c1.2-5.5,1.1-7.9-0.2-13.2c-0.9-3.4-1-4.5-1.2-8l-0.2-4L270.7,327.5 M233.9,332.6c0.3,1.6,0.2,2.8-0.3,4.1
		c-1.5,3.9-0.6,9.9,2.5,15.3c0.8,1.5,1.6,3.1,1.8,3.6l0.3,0.9l0-1c0-0.7-0.4-1.9-1.3-3.7c-2.3-4.8-3-11.2-1.6-15.1
		c0.7-2,0.7-2.4,0.2-2.4c-0.4,0-0.7-0.6-0.7-1.3c0-0.3-0.2-0.7-0.5-0.9C233.7,331.6,233.7,331.6,233.9,332.6 M279.9,333
		c0,0.5,0.1,0.7,0.1,0.5c0.1-0.3,0.1-0.7,0-0.9C279.9,332.3,279.9,332.5,279.9,333 M351.3,334.7c-7.5,1.4-20,8.8-25.4,14.9
		c-1.1,1.2-0.9,1.4,0.3,0.4c5.7-5.1,20.1-10.1,29.1-10c4.6,0,6.3,0.4,2.2,0.4c-6.9,0.1-20.8,5.3-21.7,8.1c-0.3,0.9-0.1,0.8,3.3-0.7
		c9.1-4.1,22-5.6,24.3-2.9c2,2.4,3.1-3.6,1.1-6.4c-0.2-0.3-0.4-0.8-0.4-1.1C364.1,334.8,357.7,333.5,351.3,334.7 M240.9,338.7
		c-0.7,1.7-1.1,2.5-1.8,3c-2.8,2.1-2.3,7.1,1.2,11.7c2.4,3.2,2.6,3.6,2.8,6.7c0.2,2.4,0.2,2.6,0.5,1.8c0.2-0.6,0.2-1.7,0-3.2
		c-0.3-2.4-0.3-2.4-3.1-7.8c-1.6-3.2-1.7-5.7-0.2-8.9c1.1-2.3,1.6-4.1,1.5-5.1C241.8,336.5,241.5,337,240.9,338.7 M138.3,345.7
		c-3.8,0.7-3.7,1.1,0.4,1.5c5.2,0.4,11.2,1.8,15.2,3.5c1.5,0.6,3.8,1.6,5,2.1c3.9,1.5,13.1,6.3,15.9,8.1c3.4,2.3,3.4,2.2-0.3-1.2
		c-3.7-3.4-11.9-8.5-13.5-8.5c-0.3,0-4.2-2.2-4.1-2.3c0.1-0.1,1,0.3,2.2,0.7c1.2,0.4,3.1,1.2,4.3,1.6c8.3,3.1,21.9,12.5,24.5,16.9
		c0.8,1.4,2.4,6.6,2.8,9.2c0.7,4.6,1.6,7.9,2,7.4c0.1-0.1-0.1-2-0.3-4.2c-1-10.5-1.6-12.7-5.1-16.3c-3.5-3.7-8.1-7.1-12.8-9.5
		c-1.2-0.6-2.9-1.6-3.8-2.1c-3.8-2.3-8.4-4.2-11.4-4.7c-1-0.2-2.6-0.5-3.5-0.8C150.7,345.6,142.4,344.9,138.3,345.7 M355.5,350.3
		c-9.8,0.4-19.2,3.5-28.4,9.7c-3.7,2.5-5.3,4.1-2.1,2.1c5-3.1,9.9-5.1,15.5-6.3c1.7-0.4,3.6-0.8,4.2-0.9c6.3-1.6,20.3-0.7,26.7,1.7
		c1.8,0.7,2.5,0.7,2.5,0.1c0-0.6-4.3-2.2-8.9-3.2l-2.2-0.5l1.5,0c1.3,0,3,0.2,6.9,0.9l0.9,0.2l-1.5-1.5
		C368.6,350.5,365.5,350,355.5,350.3 M222.2,351.5c0,1,2.7,6.2,4,7.8c0.5,0.6,1.3,2.3,0.9,1.9c-0.1-0.1-1.1-1.3-2.2-2.5
		c-1.1-1.2-2-2.4-2.1-2.5c-0.9-1,0.4,1.7,1.8,3.5c2.7,3.7,3.6,5.7,3.6,8.4c0,0.7,0.1,1.5,0.2,1.9c0.2,0.4,0,1.6-0.4,3.7
		c-0.8,4.2-0.8,7.5,0.2,8.4c0.2,0.2,0.3,0,0.1-0.9c-0.3-2.2-0.2-4.3,0.4-6.7c1.4-6,0.2-13-3.3-18.6c-0.7-1.1-1.5-2.6-1.9-3.3
		C222.7,350.8,222.2,350.5,222.2,351.5 M133.4,353c0.2,0.1,1,0.3,1.8,0.4c6.2,0.8,12.2,2.7,18.4,5.8c4.8,2.4,5,2.6,2,2
		c-6.2-1.3-22.6-0.5-26.3,1.3c-4.9,2.4-5.1,2.7-1,1.7c5.8-1.4,9.9-1.8,14.4-1.3c4,0.5,3.5,0.8-1.7,1.3c-4.9,0.5-13.9,2.8-14.2,3.6
		c-0.1,0.2,0.5,0.4,1.2,0.5c14.8,2.1,27.6,6.4,38.7,13c5.6,3.3,8.9,5.5,9.8,6.4c0.4,0.5,1.9,1.8,3.2,2.8c3.8,3.1,5.2,4.6,5.8,5.8
		c0.3,0.6,0.6,1.1,0.7,1c0.7-0.7-4-7-7.8-10.4c-1.6-1.4-4-3.6-5.3-4.8c-9.6-8.7-19-13.3-30.6-14.9c-3.9-0.5-2.6-0.9,2.6-0.7
		c13.7,0.5,15,0.7,20.9,3.2c0.9,0.4,1.7,0.7,1.8,0.6c0.3-0.3-5.9-4.4-9.4-6.3c-1.2-0.6,1.8-0.3,4.3,0.5c4.3,1.4,9.8,4.5,13.7,7.7
		c3.2,2.6,8.6,7.6,9.9,9c1.7,1.9,1.4,1.3-1.7-3.5c-4.8-7.5-8.5-10.5-20.2-16.3c-13-6.5-19.5-8.6-27.3-8.8
		C134.5,352.8,133.1,352.8,133.4,353 M227.8,357.2c0,0.1,0.2,0.4,0.4,0.6c0.2,0.2,0.4,0.2,0.4,0.1c0-0.1-0.2-0.4-0.4-0.6
		C228,357.1,227.8,357.1,227.8,357.2 M356.7,358.5c-7.3,0.6-12.8,2.1-14.6,4c-1,1.1-0.3,1.2,2.6,0.3c6.1-1.8,22.2-0.8,27.6,1.8
		c2.8,1.4,2.8,1.3,2.7,0.8c-0.1-0.6-6.2-3.2-8.9-3.9c-2.8-0.7-2.9-0.8-0.3-0.7c1.5,0.1,3.2,0.5,5.5,1.2c3.5,1.1,4,1.1,2.8-0.2
		C372.3,360,362.2,358.1,356.7,358.5 M133.5,379.2c-1.5,0.4-1.8,0.8-0.6,0.8c6.2,0,19.9,5.7,28.8,12c2.6,1.8,4.7,3.7,9.3,8.1
		c2.8,2.7,2.8,2.4,0-0.9c-3.7-4.4-9.6-10.4-12-12.2c-2.9-2.2-2.9-2.3,0.3-0.8c4.4,2.2,11.7,8.7,16.5,14.7c1.2,1.5,2.9,3.5,3.9,4.5
		l1.8,1.9l-1.1-2.1c-3-5.6-8.5-12.4-12.7-15.5c-0.7-0.5-2.1-1.7-2.9-2.5c-4.7-4.5-9.2-6.4-17.7-7.6C143.6,379,135,378.8,133.5,379.2
		"/>
</g>
</svg>
