<svg xmlns="http://www.w3.org/2000/svg" viewBox="0 0 410 410"><path d="M198 42c-4.4.8-10.3 7.3-12.3 13.5-2.1 6.5-1.1 13.8 2.1 14.2 1.6.2 2.1-.9 1.6-3.6-1.2-6.1 1.7-13.3 6.1-15.3 2.5-1.1 3.8.3 3.7 4-.2 3.7.9 5.4 3.5 5.4 1.8 0 1.9-1 .4-2.7-2-2.1-.4-5.8 3.3-7.6 1.5-.7 1.7-1 1.4-2-1.1-3.9-5.7-6.7-9.8-5.9m-2.9 13.6c-1.7 3.6-1.4 7.9.6 9.8.5.4.4.5-.8 1-1.4.6-3.3 1.7-6.4 3.9-2.8 2-4.1 2.7-8 4.4-8.9 4-10.4 5.4-10.3 9.3 0 1.5.6 3.8 1.2 5 .3.6.3.6-.8.1-5.3-2.4-11.2-1.1-18.5 4-5.1 3.5-5.1 3.5-4.6 4.5.8 1.8 2.6 1.4 5.2-1 4.3-4.1 10.5-6.2 14.5-4.9l.9.3-1.6.1c-5.3.4-11 3.4-14.1 7.2-.8 1.1-.8 1.4.2 3 .5.7.8 1.5.8 1.8 0 .3.1.1.3-.5 1.1-3.5 4.3-5.9 9.5-7.3 4.4-1.1 12.8-2.1 11.7-1.4-.6.4-5.1 1.6-8 2.1-6.4 1.2-7.6 2.1-10.8 7.5-1.7 2.9-1.8 3.2-2 5.2-.2 2.3-.5 2.9-3 6-1.2 1.5-2.1 2.7-2.1 2.8 0 .1.7 0 1.6-.1 1-.1 3.7-.2 6.8-.3 7.6-.1 8.7-.5 14.9-5.2 4.1-3.1 6.6-4.6 10.3-6.3l1.6-.8-.9-.1c-.5-.1-2.5-.6-4.6-1.1-7.4-1.8-11-1.2-19 3.4l-1.1.6 1.1-1.2c3.1-3.6 5.7-5.1 12.7-7.5 2-.7 4-1.6 7.2-3.2l4.5-2.2.1-.7c.5-2.8 2.9-5 9.1-8.1 6.6-3.3 11-4.1 18.2-3.3 8.2.9 10.4 0 13.6-6 2.3-4.2 3.2-4.9 8.3-6.7 2.9-1 4.4-1.7 5.4-2.6l.7-.7-1.2-.7-1.2-.7h-1.9c-4.1.1-8.3 1.2-12.1 3.3-1.8 1-2 1.1-1.9.6.2-1.7 9.4-4.7 14.2-4.7 1.9 0 4.3-.5 4.3-.8 0-.5-1.6-1.8-2.6-2.2-6.3-2.3-14.9-.3-21.7 5.3-1 .8-1.2.9-1.4.7-.9-.9 7-5.6 11.6-7 1.2-.4 1.4-.5 4.3-3.7l.8-.9-1.7.1c-3.6.2-9.2 2-11.6 3.8-.3.2-.5.3-.6.3-.1 0 .2-1.3.6-2.4.2-.6.4-1 .4-1.1l-1.2 1.2c-1.9 2-4.7 3.7-7.5 4.4-.8.2-1.3.4-1.3.5.1.1-4 1.3-5.8 1.7-1.9.4-4-2.5-3.8-5.3.1-1-.3-1.6-.8-1.2-.9.9.1 4.6 1.6 6.2l.7.8-1.4.4-1.4.4-.4-.3c-2-1.9-2.4-5.2-1-8.6.7-1.8.8-2.1.3-2.2 0 0-.2.2-.7 1.3m53.8 7.4c-1.6.5-2.3 1.1-5.2 4.5-.7.8-1.5 1.5-2.2 1.9-2 1.2-4.3 4.5-5.4 7.8-.3.9-.9 1.3-.9.5s1.4-3.7 2.7-5.7c.3-.5.7-1 .7-1.1.1-.1-.2-.1-.8.1-2 .7-5 4.6-6.4 8.3-.6 1.5-.7 1.7-1 1.5-.7-.4 2-5.6 4.2-8 1-1.1.9-1.1-.8-.3-2.1 1.1-3.5 2.6-4.8 5.3-2.2 4.8-4.9 8.1-7.4 9.2-.9.4-1.1.5-1 .8.2 1.3 3.6-.7 5.6-3.3.4-.6.8-1.1.9-1.2.4-.5-.4 1.9-1 2.9-1.4 2.4-3.1 4.1-5.3 5.2-1 .5-1.4.8-1.4 1 0 1.7 4.8-1.4 6.8-4.4l.6-.8.1.8c.6 4.9 2.1 5.8 6.5 4.2 2.2-.8 2.2-.8 2.2 1.1 0 1.4 0 1.4-1 3.3-1.4 2.8-1.4 3.9.1 4.7 1.8 1 3.9-.3 5-3 .9-2.1.8-2.4-.1-4.3-.5-.9-1.4-2.7-2.1-4-2.8-5.3-2.8-6.5-.1-9.5 1.3-1.5 2-2.5 3.3-4.8 2.9-5.2 6-7.9 10.7-9.2 3-.8 3.5-.5 4.1 2.5 1.9 8.5-2.5 18-10.9 23.5-1.7 1.1-1.4 1.2.7.3 4.5-1.9 7.9-4.7 9.4-7.8 1.8-3.6 3.5-13.7 2.8-16.7-1.1-3.8-5.2-6.4-8.6-5.3m11.4 16.5c-1.1 1.2.9 7.2 3.4 10.2 1.7 2.1 4.2 3.7 6.7 4.3 1.5.4 1.6.3-.9 1.7-1.1.7-2.1 1.3-2.1 1.4 0 .3 3.4 3.8 4.8 4.9 1.4 1.1 1.5 1.2.2.7-3.6-1.4-8.3-4.4-10.2-6.6-.6-.6-1.1-.7-1.2-.2-.3 1.6 7.1 6.4 13 8.5l2.3.8-1.2-.1c-1.6-.1-4.7-.7-6.7-1.2-.9-.2-1.7-.4-1.8-.3-.1.1-.2.9-.1.9 0 0 .8.2 1.7.4 3 .7 7.7 1.4 10 1.4h.9l-1.5.6c-1.4.5-4 1.3-5.4 1.5-.5.1-.6.1-.4.3.6.6 1 5.8.5 6.5-.6.7 1.9-.2 3-1.2.5-.4.5-.4.5-.2-.1.2-.3 1.3-.6 2.5-1 4.6-2.5 9.4-4.5 14.2-.6 1.5-1.1 2.7-1.1 2.8 0 0 1-.2 2.2-.5l2.2-.6-.1.4c-.5 1.9-4.1 5.3-9.5 8.9-2.6 1.8-2.7 1.8-2.7 2.3 0 .7.8 1 2.3.7l.7-.1-.8.6c-1 .8-3.2 1.9-5.1 2.6-1.6.6-7.2 3.4-7 3.5.1 0 .8-.1 1.5-.2 2-.4 3.6-.6 6.1-.7l2.3-.1-.6 1.1c-.3.6-.9 1.9-1.2 2.8-.3 1-.8 2.2-1.1 2.7l-.5.9 1.1-1.1c1.7-1.6 6.2-4.3 6.6-3.9 0 0-.2.6-.6 1.3-1.8 3.6-3 10.8-1.8 11.3.5.2.6-.2.7-2.3 0-2.3.3-4 1.1-6.2.7-2.2.8-2.3.7-.3-.3 4.4.9 9.5 3.2 13.5.9 1.6 1.4 2.3 1.8 2.3.6 0 .5-.4-.6-2.2-3-5-4.1-10.8-3-16.4.4-2.1.5-1.8.5 1.7 0 5.2 1.1 9.1 3.7 13.1 1 1.5 1 1.5 1.2-1.8.4-9.5 1.1-10.8 3.6-7.1 2.4 3.4 5.5 5.8 9.3 6.9.2.1.4 0 .4-.1 0-.2-2.6-6.7-3.8-9.4l-.3-.8 1.6.7c5.6 2.5 9.8 3 13.1 1.8l.5-.2-1.7-1c-7.7-4.5-11.9-9.7-9.9-12.3l.3-.4.8.7c2.6 2.3 6.1 2.9 13 2.4 8.9-.7 14.6 1.1 20 6.3 1.9 1.8 1.3 1-1.3-1.9-3.9-4.2-6.9-6.5-11-8.2-6-2.5-17.5-5.7-23.1-6.4-.7-.1-1.3-.4-.8-.4.3 0 4.7-2.8 6.6-4.1 2.8-2 5.6-2.6 11.7-2.3 1.7.1 3.4.1 3.9.1.8 0 .8 0 .8-.4 0-.8-8-1.1-11.6-.5-1.3.2-2 .3-4 .1-1.3-.1-2.8-.2-3.3-.2-.7 0-.2-.1 2-.6 4.5-.9 6.3-1.1 9.1-1.1 2.5 0 2.6 0 2.6-.4.1-1-4.3-.8-11.2.4-2 .4-3.8.7-4 .7-.4.1-.4 0-.4-.3l.1-.4h-2c-1.9 0-4.4-.2-5.3-.5-.4-.1 4.3-4.8 6.4-6.4 3-2.2 5.9-2.5 10.9-1l1.5.4-1.1.2c-1.3.3-2.6.9-3.4 1.7l-.7.6h.8c10.5.5 21.2 6.1 27.8 14.5 1.5 2 1.4 2.1-.9.6-4.9-3-13.6-5.6-13.6-4.1 0 .4.1.4 1.3.6 3.9.7 8.2 2.2 11.6 4.2l.7.4-.7.3c-.4.2-.9.5-1.2.7l-.6.4-1.5-.8c-4.4-2.2-9.7-3.6-14.2-3.7h-2.2v.4c0 .4.1.4 1 .5 5.2.2 10.1 1.4 14.4 3.5l1.8.9 6.4 5.9c8.3 7.7 10.6 10.3 13.2 14.9.6 1 .5 1-1.4-.8-1.6-1.5-2.9-2.4-3.2-2.3-.6.2-.2.8 1.4 2.1.9.8 2.5 2.2 3.5 3.2 2 2.1 1.9 1.8 5 9 2.5 5.7 2.4 5.5 1 3.4-2.8-4.1-9.6-11.9-10.2-11.8-.7.1-.5.6 1.2 2.4 5.6 6.1 9.5 11.4 11.9 16.2l1.2 2.3.2 3.3c.2 5.1.7 9.1 1.7 14.7 1.3 7.3 1.5 9.1 1.3 12.5-.1 1.8-.8 6.1-.9 6.2v-4c0-8.4-2.6-20.9-4.2-20.3-.4.1-.3.5.3 2.5 3 8.8 3.7 19.3 1.9 28.6-.4 1.9-.9 3.4-4.1 12.3-3.2 8.8-3.7 10.1-3.8 10-.1-.1.8-4.1 2.2-9.6 3.3-13.2 4-17.4 4-24.1 0-4.5-.3-6.9-.8-7.3-.6-.4-.7.1-.4 2.1.9 7 0 13.7-3.5 28.1-3.1 12.6-4.7 22.7-3.8 23.7.5.6-.4 6.4-1 6.4-.1 0-.9-.2-1.7-.4-1.8-.5-3.9-.7-5.1-.5l-.8.2.1-1.4c.6-7.9.6-7.9 0-7.9-.5 0-.5-.1-.8 5.3l-.3 4.5-.4.4-.4.4-.1-6.7c-.2-8.7-.2-9.6-.8-9.6-.4 0-.4 0-.4 1.3 0 .7.1 5.1.1 9.7l.1 8.4-1 8.5c-.6 4.7-1 8.6-1 8.8 0 .1-.5-.2-1.2-.8-.6-.6-1.4-1.2-1.7-1.4l-.5-.3.1-4.9.1-4.9h-.5l-.2 4.5-.2 4.5-.5-.2-.5-.2.1-2.9c.1-5.2-.3-9-1-9-.4 0-.5.2-.3 1.5.3 2.3.4 8.3.2 10.9-.5 6-3.8 15.1-7.9 21.7-1.1 1.8-1.1 1.8-.8.3.5-2.3.1-5.8-1-7.8l-.3-.6.5-1.4c2.8-7.3 4.5-16.2 2.9-15.6-.1.1-.3.4-.3.8-.8 7.1-2.5 12.9-5.5 18.7-.8 1.6-6.1 7.4-6.7 7.4 0 0 .5-.9 1.1-2.1 2.5-4.3 5.7-13.2 5.2-14.6-.3-.8-.8-.2-1.1 1.3-1.2 5.4-3.4 10.7-6.6 15.5-2 3-4.2 5.1-2.6 2.5 1.9-3.2 3.2-8.1 2.1-8.2-.4-.1-.4-.1-.7 1.7-.5 3-1.9 5.9-4.5 9.2-1 1.3-1.4 1.5-8.5 7l-.7.6v-.8c0-2.2-1.9-6.6-2.5-5.7-.1.1-1.3 2.1-2.7 4.4-1.4 2.3-2.6 4.1-2.6 4-.1-.1-.3-.6-.5-1.2s-.9-2.1-1.6-3.4c-2.5-4.7-3.9-9.7-3.9-13.4 0-.9-.3-1.3-.8-1.1-.6.2.2 6 1.4 9.6.3 1 1.3 3.1 2.1 4.6 2 4 2.8 6.1 2.4 6.9-.2.4-.5.3-.5-.2 0-.9-1.7-4-4.6-8.3-2.6-3.9-4.6-9.7-5.6-16.1-.2-1.2-.4-2.7-.5-3.2l-.1-.9-.3 1.2c-.4 1.9-.6 3.3-.6 5.4 0 2.3-.1 2.1-.7-1.5-.6-3.7-.8-7.4-.6-10.7.2-2.8.2-3.1-.4-2.9-.7.2-.9 7.6-.3 11.6l.2 1.9s-.4-1.1-.7-2.6c-3-11.6-2.9-19 .4-30.8l.9-3.3s-.4.8-.8 1.9c-.4 1.1-1.4 3.5-2.2 5.4-.8 1.9-1.9 4.3-2.3 5.4-.9 2.2-.9 2-.1-1.6.6-2.5 2-7.8 4.3-16 .8-3 1.5-5.6 1.5-5.8-.1-.5-.7-.6-.9-.2-4.2 14-6.9 25.2-7.2 30.4-.1.9-.2 2.8-.3 4.3-.1 1.4-.2 4-.3 5.7-.2 3.6-.3 3.9-.7 1.9-1.3-6.7-1.2-14.9.1-21.5.4-1.9.4-2.3-.2-2.3-.3 0-.5.4-.9 2.4-1.2 6.2-1.3 13.3-.4 19.4l.2 1.7c-.1.1-.4-.5-3-4.6-.5-.9-1.2-2.1-1.5-2.8l-2.9-6.9c-5.6-13.2-6.9-19.1-5.4-26.2.1-.6.2-1.2.2-1.3 0-.4.2.2.7 2.3.9 3.6 2.8 8.2 2.5 6.1-.1-.4-1.3-12.2-2.7-26.2s-2.6-25.7-2.7-25.8c0-.2-.1 1.1-.1 2.8-.1 8.4-2.5 19.8-6 28.3-2.6 6.4-3.2 8.5-3.2 11.9 0 2.2.1 2.2.8.3 1-2.6 2.8-5.2 5-7.3 1.6-1.6 1.6-1.6 1.3.6-.1 1-.5 4-.8 6.7-.3 2.7-.8 6.7-1.2 8.8-1.6 9.2-1.7 12.3-.6 16.7.4 1.6.6 1.8.7.8.3-1.5 1.9-4.5 3-5.5l.4-.4-.4 1.8c-1.6 7.4-.6 15.6 2.9 25.6 2.6 7.4 7.7 19 8.2 19 .1 0 .1-.7 0-1.6-.1-2.1.6-6.7 1-6.7.1 0 .5 1.5.9 3.4 2.2 9.2 4.7 13.8 9 16.9 1 .7 3.2 1.9 3.4 1.7.2-.2-1.2-2.7-2.5-4.2l-.6-.8.5.2c1.2.4 2.2 1.3 4.2 3.8 4.6 6 9.6 6.5 23 2.3 8.9-2.8 14.2-5.9 17.8-10.4l1-1.2v.7c0 2.5-1.2 5.9-3 8.1-.8 1.1-.9 1 .3.8 9.1-2.1 16.6-9.7 23.5-23.9.9-1.9 1.8-3.5 1.8-3.5.4 0 1.9 6.1 2.1 8.6.2 2.1.1 2.1 1.7.5 6.1-6.5 8.6-16.3 7.8-31.2-.1-1.5-.1-2.8-.1-2.8.1-.1 1.5 2.8 1.8 3.9.8 2.3 1.2 5.6.9 7.8-.2 1.5-.2 1.5 1-.3 6.1-9.5 8.7-23 7.5-39.3-.1-1.5-.2-2.7-.1-2.7l2.7 3.8c2.7 4 2.9 4.2 2.5 3-.9-2.6-.2-12.2 1.7-22.2 1.1-5.8 1.4-8.8 1.1-12-.2-2.5-.3-2.3.9-1.5 2 1.3 3.6 3.3 4.3 5.5.2.6.4 1.1.4 1.1.2.2.3-4 .1-6.7-.4-6.5-1.6-12.8-3.8-19.7l-.6-1.8.4-.8c.3-.6.4-1.1.5-2.4.1-2.7-.1-3.4-3-11.6-.5-1.3-.8-2.4-.8-2.5 0 0 .8.4 1.8 1.1 2 1.4 2.9 1.5 3.6.7 2-2.3-4.6-11-11.4-14.9-1.4-.8-1.4-.9.2-1 2.5-.2 5.8.4 8.1 1.6.9.5 1 .4.6-.7-.7-1.9-1.2-2.6-8.6-9.7l-2.7-2.7.7-.3c2.9-1.3 1.6-5.4-4-12.1-2.2-2.6-4.5-5-13.4-13.4-9-8.5-8.6-8-6.4-8 1.8 0 3.3.6 4.8 2 2.5 2.3-2.4-3.3-5.9-6.7-8.8-8.6-20.3-16.1-30.8-20.1l-1.3-.5h1.5c4.4 0 10.8 1.5 15.5 3.7 1.8.9 2.4 1 2.4.4 0-.9-6.9-3.5-11.6-4.4-2.8-.5-4.5-.7-7.8-.7-3.7 0-7.5-.8-8.9-1.9l-.5-.4 2-.2c2.4-.3 7.7-.1 9.6.2 1.4.3 1.7.2 1.7-.3s-.1-.5-2.7-.8c-2.3-.3-6.7-.3-8.9-.1-.8.1-1.5.2-1.6.1-.3-.1 1-3.3 1.6-4 .2-.2.1-.3-1.5-.3-1.8-.1-3-.4-3.8-1.2-.7-.6-.5-.9 2.1-3 1.4-1.1 2.5-2.1 2.5-2.1 0-.1-.7-.1-1.6-.2-3.9-.3-6.6-1.3-13-5.1-4.8-3.1-5.3-3.3-6-2.5M202.6 88c-3.8.8-7.3 4-9.7 8.8-.7 1.4-1 2.3-2.2 6.3-.5 1.6-1 2.5-2.2 3.8-1.4 1.5-.3 1.3 2-.4 1.8-1.3 1.9-1.4 4.2-2.1 2.1-.7 2.6-.9 3.4-1.5.8-.6.7-.7-1.4-.7-1 0-2.3-.1-2.7-.2l-.9-.2 1.2-1.7c2.9-4.2 3.9-5.3 5.6-6.4 3.5-2.3 8-2.7 12.5-1.1.5.2-1.9-2.2-3.1-3a8.22 8.22 0 0 0-6.7-1.6m-9.4 1.3c-1.8 1.7-2.8 3.8-3.4 7.5-1.1 6.2-1.5 7.5-2.7 9.4-.7 1-.7 1.4-.2 1.5 1 .4 2.6-3.7 3.5-8.7.9-5 1.6-6.9 3.4-8.8.9-.9 1-1.1.9-1.4-.3-.5-.5-.4-1.5.5m12.9 4.9c1.1 1.3 1 3.7-.2 5.7-.8 1.3-2 1.9-4.4 2.2l-.7.1.4.3c1.7 1.3 5 .5 6.2-1.5 1.9-3.1 1.4-6.8-1-7.3l-.7-.1.4.6m-4.9 0c-2 .9-3.4 3.8-2 4 .4 0 3.9-1.9 4.7-2.6 1.4-1.2-.7-2.3-2.7-1.4m-14.6 3.9c-.1.1-.1.5 0 1 .1 1.3-.2 3.8-.8 5.6-.5 1.7-.5 2.1 0 2.1.9 0 2.2-6 1.8-7.9-.2-.8-.7-1.1-1-.8m-45.9 1.4c-.3.1-1.1.8-2.1 1.7-.8.9-2.3 2.1-3.2 2.7-2.6 1.8-3.5 3-3.5 4.6 0 1.7 1.2 4.7 1.9 4.8.3.1.3 0 0-.5-.5-.9-.5-2.6-.1-2.8 1.2-.4 2 .8 2.4 3.7.3 2.9 2.1 5.2 4.3 5.8.6.2 1.1.2 1.1.2.2-.2-.5-1.7-1.5-3.6-2.7-4.7-1.2-7.5 3.3-6.2 1 .3 1.4.8 1.4 2 0 2.1-.6 2.7-2.8 2.9-.9.1-1 .1-.9.4 1.8 5.6 6.8 3.3 9.3-4.3.9-2.7.8-3.7-1.1-7.5-1.8-3.8-2.3-3.9-6-.9-1.6 1.3-3.2 2.2-3.8 2.2-.7 0-.5-.4 1-1.6 2.8-2.2 3.5-3.2 2.5-3.6-.5-.1-1.6-.2-2.2 0m117.6 9.8c-.9.2-2.5.2-7.6.2-6.9 0-7.2 0-6.8.7.2.2.4.3 1.4.2.7 0 3.5 0 6.3.1l5.1.1-1.1.8c-3 2-5.9 2.9-13.6 4-4.1.6-4.6.7-10.4 2.6l-.6.2.7-.1c.4 0 1.7-.2 2.9-.4 4.6-.7 13.6-1.1 16.1-.7l1 .1-.9.6c-3.5 2.1-6.1 2.6-15.8 3-2.1.1-4.5.3-5.4.4-6.6 1-16.2 4.1-16.2 5.2 0 .6.4.6 1.5.1 7.4-3.7 13.8-4.3 23.4-2.2l1.3.3h-3.5c-7.1 0-16.1 1.7-15.6 3 .1.4.4.4 2.1-.1 5.8-1.7 17.4-2.5 20.3-1.4 1 .4-3.7 1.6-8.1 2.2-5.8.7-8.2 1.6-10.3 3.6l-1 1 2 .1c3.6.2 8.5-.2 10.5-.9.4-.1.7-.2.8-.2.1 0-1.6 1-3.7 2.3-5 3-9.4 5.8-9.4 5.9 0 .3 1.6.5 3 .4 1.6-.1 2.5-.4 6.2-1.9 2.7-1.1 3.1-1.1 1.6-.2-.7.4-2.6 1.8-4.3 3-7.5 5.4-10.5 6.8-11.9 5.6-.2-.2-.3-.2-.3-.1 0 .2 1 1.1 1.6 1.5l.6.3-.7.1c-1.5.2-3.9 1.8-6.4 4-4 3.6-15.9 10.2-24.2 13.2-2.3.8-2.4.9-.9 1.1 2.7.3 3.9-.1 15.3-5.8 10.1-5 11.7-5.7 13.5-6.1 3.8-.8 9.3.5 12.7 3.1.5.4.9.7 1 .7.3 0-.2-2-.7-3.1-.7-1.4-.9-1.4 1.6-.8 4.1 1 6.8 2.6 6.8 4.1 0 .2.8.2.9-.1.1-.4-.8-1.8-1.6-2.5-1.3-1.1-2.9-1.8-6-2.5-2.1-.5-1.4-.6 1.3-.2 4 .6 7.5 1.7 11.6 3.8 2.5 1.3 3.1 1.5 3.1.9 0-1-7.5-4.3-12-5.3l-1.6-.3 1.9.1c5.2.2 10.4 1.4 14.5 3.3 1.7.8 1.7.7.4-.8-1.5-1.8-3.6-3.5-8.1-6.5-4.7-3.2-6.2-3.9-8.1-4h-.7l1-.4c4.1-1.6 9.8-1.1 14.2 1.2 1.3.7 1.8.7 1.8.2 0-.9-4.6-2.8-7.3-3.1-1.9-.2-1.2-.4 2.2-.7 2.6-.2 5.2.4 6.4 1.6l.5.5-.2-.4c-.8-1.5-4.7-4.6-6.9-5.5-1.3-.5-1.3-.5-.5-2.1 2.3-4.5 6.9-7.4 12-7.4 2.4 0 2.4.1.8-1.6-1.4-1.4-3-2.3-4.7-2.8l-.9-.2.9-1.2c2.7-3.7 6.8-7.1 10.7-9.1.7-.4 1.3-.7 1.3-.8 0-.1-2.8-.3-4.9-.3h-1.7l.7-.3c.8-.4 3.3-1.9 3.6-2.3.2-.8-2.6-1.4-4.5-1m-75.6 2.1c-.4.2-1.9 1.1-3.5 2-9.7 5.8-13.9 7-25.3 7.3-5.2.1-5.7.3-6 1.1-.3 1.1.5 1.2 8 1.2 10-.1 11.8-.6 20.2-5.7 6.8-4.1 7.7-4.3 12.6-2.5 4.8 1.7 8 4 11.7 8.4 1.1 1.3 2.9 3.2 4.1 4.3 9.3 8.6 12.1 12.8 10.7 15.8-1.1 2.4-11.6 10.2-23 17.3-8.1 5-16.5 6-23.9 2.8-2.8-1.2-3.3-1.2-1.2.2 5.9 3.7 15.7 3 24.8-1.7 1.7-.9 11.3-6.7 14.9-9 8-5.2 11.3-9.9 9.5-13.4-1.7-3.4-10.9-13.8-17.1-19.4-3.2-2.9-4.2-3.6-7.9-5.4-1.8-.9-3.7-1.9-4.2-2.3-1.8-1.4-3-1.7-4.4-1M181 116c-1.6.5-3 1.3-5.8 3.3-2.9 2.1-4.5 2.9-6.4 3.4-2.3.7-2.5 1.1-.7 1.2 1 .1 1.3 0 3.3-.7 2.5-.8 4.1-1.1 5.2-.8.6.2.8.1 2-.3 1.8-.7 3.8-.8 5.7-.2l1.2.4 1.4-.6 1.4-.6h6.8l1.2.8c.8.5 1.4.8 1.9.9l.7.1-.4-.6c-1.8-2.4-7.7-3.8-11.9-2.9-1.2.3-1.2.3-2.5-.2-1.7-.6-3.9-.5-5.7.1-1.4.5-1.3.4.1-.3 1.9-.9 2.9-1.1 5.7-1 2.7.1 7.8 0 7.6-.3-.3-.3-3.8-1.7-5.1-2-1.7-.3-4.1-.2-5.7.3m-1.1 7.2c-.1 0-.4.1-.6.2-1.8.4 1.7 4.3 4.9 5.4 1.5.5 1.6.5.7-.5-.8-.9-1.3-2-1.6-3.3-.2-1-.2-1-1-1.3-.9-.4-2.1-.6-2.4-.5m8.3.4c-.8.2-1.5.6-1.1.6.2 0 .5.5.7 1 1.2 2.4 5.4 6 7.6 6.3.9.1.9.2-.3-1.3-1.3-1.5-1.6-2.1-1.8-3.6-.5-2.4-2.4-3.5-5.1-3m-16.7 1.1c-1.2.5-1.1 1.2.6 2.7 1.2 1.1 4.9 2.7 5.3 2.4.1 0-.4-.6-.9-1.2-1.1-1.3-1.7-2.3-1.7-3.2 0-.9-2-1.3-3.3-.7m-23.5 1.4c-.9.6-.4 1.7 3.2 8.4 2.7 4.8 3 5.2 5.9 8.2 3 3.1 3.9 3.4 5.4 2.1.9-.7.9-.7-.3-1.6-.9-.7-3.5-3.8-5.5-6.5-1.1-1.5-1.9-3.2-2.5-5.1-.6-1.9-1-2.6-1.6-3-.3-.2-.9-.7-1.4-1.2-1.6-1.5-2.4-1.9-3.2-1.3m13 .5c-.6 1.2-3 1.2-5.9-.1-1.3-.6 2.1 8.6 4.1 11.2 5.1 6.6 7.1 8.1 8.7 6.3.7-.8.6-.9-.4-1.9-.5-.5-1.1-1.2-1.3-1.5-.9-1.6-2.9-7.7-2.9-9 0-.2-.1-.6-.2-.8-.8-1-.7 2.1.1 4.7.8 2.5.7 3.3-.3 2.7-1.7-1-2.6-5.4-1.8-8.9.4-2.7.4-3.7-.1-2.7m25.1 8.6c-3.1.5-5 2.5-6 6.4-1.5 5.8-3.7 9.3-6.5 10.2-.4.1-.3.6.3 1.4 1.9 2.5 7.7 2.5 11.6.1 1.2-.8 1.6-1.5 2-3.5.9-5.1 4.6-8.5 10.2-9.6l.8-.1-.3.5c-.3.4-.6.5-1.5.7-3.9.9-7.3 4.2-7.5 7.4-.1 1.4-.1 1.4 2.1-.9 2.4-2.4 4.4-3.9 6.8-5.2 1-.5 2.4-1.3 3-1.7 1.4-1 2.2-1.4 3.4-1.8 1.6-.5 2.6-1 2.3-1.1-1.1-.6-7.6-.6-11.6 0-6.9 1.1-7.9 1.6-9.6 5.2-.5 1-1.1 2.4-1.5 3.1-.8 1.6-2 3-3.4 3.9-1.3.8-1.4.8-.6-.1.8-1 1.5-2.2 2.4-4.8 2.1-6.1 3.9-7.5 10-8.3 2.8-.4 4.6-1 4.8-1.7-.1-.4-9.8-.4-11.2-.1m18.8 6.6c-1.4.7-1.9 1.2-1.9 2 0 .6-.1.7-.4.8-.3.1-.4.2-.4.4 0 .6-1.8 2.3-2.1 1.9-.1-.1.3-.5 1.5-1.4.8-.7.4-.8-.7-.2-1.9 1-2.7 2-2 2.6.4.4.2.7-1 1.5-1.4.9-1.7.8-.6-.2l1.1-.9s.1-.1.1-.2c0-.9-3.2 1.1-3.7 2.3-.9 2.4 3.9 1 7.3-2.1 1.4-1.3 1.5-1.4 1.3-.6-.6 1.7-6.2 5.2-8.1 5-.7-.1-.8-.1-.6.2.1.1.3.4.4.7 1 3.1 9.9-3.3 13.9-10 .7-1.2.7-1.3-.3-1.2-.8.1-.9 0-1.1-.4-.4-.8-1.3-.8-2.7-.2m1.7 0c-.3.6-2.2 1.8-2.6 1.6-.1-.1 2.4-1.9 2.7-1.9 0 0 0 .2-.1.3m-37.4 5.9c-2.1.5-2.2 1.5-.7 4.2.6 1.1 2 3.5 3.1 5.4 2.4 4.3 3.2 5.3 3.9 5.7.6.3 1.2.1 1-.3 0-.1-.1-.7-.2-1.3l-.1-1.1.9.8c1.7 1.5 3.5 2 4 1.1.6-1-.3-2.1-2.4-3-2.3-1-4.6-3.7-6.9-8.2l-1-2-.6.3c-.4.2-.8.3-1 .2-.8-.2-.7-.4.1-.5 1.3-.2 1.9-1.1 1-1.4-.4-.1-.4-.1-1.1.1m-5.6 1.5c-1.5.6-1.2 2.7.8 5.1.6.7 1.6 2.3 2.3 3.4 2.2 3.7 3.5 5.1 4.8 5.3.7.1.7-.1.1-.8-.7-.8-1.9-3.5-1.9-4.3 0 0 .3.2.7.6 2 1.9 1.4-.4-.7-2.7-1.4-1.5-2.4-3-2.8-4.2-.2-.7-.3-.8-.6-.7-.7.2-2 .1-2.2-.2-.2-.4.1-.6.9-.6.4 0 .6-.1.7-.3.4-.5-1-1-2.1-.6m136.6 3.1c-.2.6 0 .7 2.9.8 8.9.3 16.7 5.4 20.9 13.8 1.6 3.1 1.5 3.1-1.6-.1-3.2-3.1-5.8-5.2-9.2-7.3-3-1.8-5.1-3.2-6-4-1.8-1.6-1 .7 1.9 5.3 4.5 7.2 6.9 12.5 8 17.7.5 2.1.3 1.9-.6-.7a32.2 32.2 0 0 0-13.6-17.3c-2-1.2-1.9 0 .1 1.3 4.8 3.1 8.7 7.5 11.1 12.7.9 1.9 1.4 3.2 1.2 3-1.9-1.2-2.5-1.7-2.9-2.4-1.3-2.1-6.8-6.6-7.8-6.4-.8.1-.4.7 1.2 1.7 2.6 1.7 6.3 5 5.1 4.5-1.9-.7-5.3-1.7-5.3-1.4 0 .1.2.3.5.5 3.4 2.5 6.7 7.3 8.2 11.9.5 1.4 1.1 4.5 1 4.6 0 0-.6-.7-1.3-1.7-4.1-5.7-7.9-8.7-12-9.6-1.8-.4-1.8-.4 0 1.4 6.8 6.6 10.9 15.7 11.6 25.5l.1 1.6-.6-1.2c-1-2-3.5-4-5.5-4.5l-.5-.1.4.5c1.2 1.6 1.9 2.6 1.8 2.7 0 .1.1.8.3 1.5 2.5 8.8.1 19.3-5.9 26.1-1 1.2-1.2 1.7-.7 1.9.7.3 3.8-3.9 5.5-7.2 2.7-5.5 3.7-11 3-17.2-.1-1.1.2-.5.6 1.4 1 4.3.6 9.5-1.1 13.3-.7 1.7-.6 1.7.7-.1 6-8.5 8.8-19.9 7.4-29.9l-.2-1.9c.2-.2 3.2 10.9 3.8 14.1.7 4 .3 13.4-.7 16-.1.2-.3-1.1-.7-3.2-.3-1.9-.6-3.5-.7-3.5-.1 0-.4.7-.8 1.5-3.6 7.2-8.6 14.2-14.9 20.6-1.4 1.5-2.5 2.6-2.4 2.6.1-.1 1.3-.5 2.6-1s2.4-.9 2.5-.9c.1 0-.2.4-.5.8-2.1 3-3.1 8.1-2.4 12.1.3 1.9.6 2.5.6 1.3 0-3.8 2.1-6.6 7.2-9.6 2.9-1.7 6.2-4.6 10.1-8.7 4-4.3 5.8-7.4 6.5-11.3l.2-1.3 2.1 3.9c2.5 4.6 2.4 4.6 2.3.2-.2-4.7-1-9.1-2.4-13.3-.4-1-.6-1.9-.6-1.9l.4.2c1 .7 3.8 1.5 5.8 1.8l.7.1-.6-.7c-2.7-3.1-4.9-9.6-5.5-16.5-.8-9.3-4.1-16.6-10.7-24.1-.9-1-.9-1 1.3-.1 2.1.9 4.7 2.7 6.2 4.6.7.9.9.7.7-.6-.1-.8-1-3-1.5-3.6-.1-.1-.5-1.1-.8-2.2-3.2-9.6-11-16.6-20.3-18.2-2.2-.1-6.1-.1-6.2.2m-111.6.5c-.5 1.2 1.6 5.7 2.5 5.6.3 0 .4-.1.3-.6-.1-.7.2-1 .8-1 .8 0 1.9-.3 2.3-.7.4-.5-.1-.9-1.4-1.1-1.6-.3-1.9-.5-3-1.4-1.2-1.1-1.4-1.2-1.5-.8m20.4 8c1.1 3.7-.6 7.3-5.7 11.6a42.2 42.2 0 0 0-2.9 2.8c-.7.9-.8.9-1.1-.6-.1-.8-.3-.8-.7.1-.6 1.3-.7 2.5-.7 8.3 0 8.2-.5 10.8-2.9 13.8l-.9 1.1.7-.4c.6-.3 3.2-1.4 3.3-1.4v.1c-.1.2-.4 3.2-.7 7.1-.5 6-1.9 8.8-5.5 10.5-.7.3-1.2.6-1.2.7.1.1 3.8-.6 5.4-1.1.9-.3-1.6 2.5-3.2 3.5-1.3.8-1.2.7-.5.8 1.3 0 4 1.8 4.7 3.2.4.8 1.2 3.2 1.1 3.3 0 0-1.5-1-3.2-2.3-2.9-2.2-9.7-7-9.9-7-.4 0 .5 3 1.2 4.3l.4.8-3.8-1.8c-6.9-3.3-10.1-3.7-13.7-1.6-1 .6-.9.7.2.2 1.3-.6 3.8-.5 5.1.1 1.7.8 1.7.9.5 1.5-.9.5-2.9 2.3-2.7 2.4 0 0 .5 0 1.1-.1 3-.4 5.8 1.1 7.2 3.8.7 1.5.7 1.5-.7 1.2-1.6-.3-1.9-.2-1 .4 3.4 2 4.1 6.2 1.7 10.9-.4.8-.5 1.1-.3 1.1 1.7 0 5.6 3.2 7.1 5.8.3.6.7 1 .7 1 .2-.1.8-1.9.8-2.4 0-.9.1-.9 2.2 0 4.7 2 7.9 4.6 9 7.7.5 1.4.5 1.2.3-1.3-.1-1.2-.1-2.2-.1-2.2.1-.1 1.1.9 1.6 1.6l.3.4v-.8c0-2.8 2.1-5.7 5.9-8.1 4.1-2.7 5-3.3 6-4.3.6-.6 1.3-1.4 1.6-1.8.3-.4.6-.8.8-.8.3 0 2.6 2.2 3.2 3 .6.9.6.9.3-1.8-.1-1.3-.3-4-.4-6.1-.1-4.1-.1-3.8 1.2-8.3.5-1.7.8-3.4 1.2-7.3.3-3.1.9-5.3 1.7-6.9.8-1.7.5-1.3-1.4 1.5-2.2 3.2-3.3 5.2-3.9 6.9l-.5 1.3-.1-.9c-.3-2.2-1.3-4.9-2.7-7-.9-1.4-1-1.4-.7.2 1 4.7.2 12.1-1.6 17l-.6 1.4-.7-2.8c-.7-2.8-.9-3-1.1-1.6-1 6.4-6.4 14.4-10.7 16-2.9 1.1-4.3.4-5.6-2.8-.3-.8-.7-1.6-.9-1.8-.4-.5-.4-.5.5-.7 1.8-.2 3.1-1.9 7.6-9.2 4.9-8.1 5.5-12.9 2.8-23-.7-2.8-.8-4.1-.2-6.2.9-3.3 2.7-7.5 3.5-8.1l.4-.4h-.4c-.9 0-3.2 1.4-5.6 3.5-1 .9 4-9.8 7.5-15.9 1.3-2.3 1.2-2.2 2.3-1.8 3.7 1.4 6.7 4.9 7.6 8.8.3 1.6.3 1.6 1.2-.3 3.2-6.7 2.9-12.8-.6-16.4-1.2-1.2-2-1.6-1.4-.7.7 1.1.9 3.1.4 4.4l-.3.7-.4-.9c-1.2-2.9-4-5.1-8-6.2-.6-.2-1.1-.3-1.3-.4.1.3.1.3.2.7m71.6 15.8c-1.8 4.1-.7 10 3.4 18.7 3.8 8 4.8 12.2 3.6 15-.2.4-.4.8-.4.9s.4-.3.8-.7c1.8-1.8 4.2-1.8 6-.1.8.8.9 1.1.2.7-.7-.4-2.3-.3-3.3.2-1.9.9-2.7 2-4.3 5.7-1.8 4.4-3.6 7.6-5.8 10.2-1.1 1.3-1.1 1.3-.3 1.1 1.8-.5 3.6-1.7 4.7-3.2.8-1 .8-1-.2 1.8-1.8 5-5.4 11-8.6 14.6-1 1.1-.9 1.1.5.6 3.6-1.2 6.8-3.8 8.8-7.1l.9-1.4.4 1c.4 1.1 1.8 3.8 2.1 4.3.2.3.3-.1.3-3.4.1-5.3.6-8 2-10.9 1-2.1 1-2.1 1.1.4.2 2.9 1 7.5 1.4 7.8.1 0 .1-1.5.1-3.3 0-4.8.8-7.9 3.2-13 2-4.1 2.2-5.6 1-8.3-2.5-5.9-6-11.9-11.7-20.4-2.9-4.3-4.4-7.1-5.1-9.5-.5-2.6-.5-2.5-.8-1.7m-118.1 18.1c-1.3.3-2.1 1.2-2.6 3.2-1 3.9-1.6 4.6-3.1 3.9-.8-.4-1.1-1.3-1-3.4v-1.9l-.5-.4c-.7-.6-1.7-.5-6.9.5-7.2 1.4-8.5 2.4-8.5 6.1 0 2.5-.4 3.2-1.4 2.2-.9-.9-1.3-1.7-1.3-2.9v-1h-.6c-2.8 0-7.1 1.7-11.9 4.7-3 1.9-3.2 2.2-3.1 4.4 0 1.4-.2 1.9-.8 2.1-1.1.3-1.9-.7-1.5-1.8.9-2.4.5-2.5-4-.3-5 2.4-5.3 2.7-5.6 4.9-.3 2.6-1.9 3.1-2.4.8-.4-1.7-.3-1.7-3.1-1.2-1.4.3-2.9.2-4.3-.2-2.5-.7-3.5-.3-4.4 1.3l-.5.9-.3-.5c-.5-.9-.3-1.9.5-2.9.5-.6.5-.7-.3-1.5-2-2.2-3.3-5.5-3.7-9.5-.3-3.2-.9-4.3-2.2-4.3-2.8 0-4 7.9-2.2 13.6 1.1 3.3 2.7 5.1 6.3 6.9 1.1.5 1.2.8 1.2 2 0 .6 3.4 1.5 7.1 1.7 3.6.2 5.1-.1 6.2-1.4.5-.6.5-.7 2-.8 3.6-.3 7.1-1.7 9.6-4l.8-.7 1.9-.1c2.2-.1 2.2-.1 9.5-2.9 4.8-1.8 5.9-2.4 7-3.7l.8-.9.7.3c2.6.9 12.3-.4 15.8-2.1l.6-.3.9.9c2.2 2.2 5.3 2.9 11.6 2.5 3.5-.2 3.1-.3 4.7 1.1l.9.8h2.1c4.4 0 6.5-1.1 9.3-5.2.6-.9 1.2-1.7 1.2-1.8.2-.3.2-.2-2.3-2-5.7-4.1-8.6-3.7-11.6 1.7l-.5.8-.1-.5c-.6-2.1.2-4.9 2-6.5l.8-.8-.5-.1c-.7-.1-10.5-1.4-11.4-1.5.1-.3-.5-.3-.9-.2m1.5 26.5c-.6.2-2.4 1-3.9 1.8-2.1 1-3.2 1.5-4.4 1.8-2 .5-2.5.8-3.4 1.9-1.3 1.6-3.7 4-5.6 5.4-2.9 2.2-2.9 2.2-4.4 6.8-.6 1.8-1.3 3.8-1.7 4.6-.6 1.2-.7 1.6-.7 2.5v1.1l.7-.1c.9-.1 1.5.3 2.1 1.4 1.1 2 1.5 1.6 2.3-2.3.7-3.9 3.7-9.3 5.8-10.3.5-.3 1.4-.9 2-1.3 1.3-1 1.3-1 .8-.1-.2.4-.6 1.3-.8 2.1-.6 1.8-1.2 2.6-2.7 3.9-3 2.4-3.9 4.3-3.1 7 .3 1 .3 1-.1 1.6-.5.7-.4.8.4 1 1.4.4 2.6 1.9 2.6 3.4.1 1.5 1.3 1.1 2.2-.7 1.1-2 1.4-4.4.9-6.6-.4-1.9-.5-1.7 2.5-4.9 3.5-3.7 4.5-4.4 5-3.5.3.5-.5 1.7-1.9 2.9-.7.6-1.5 1.3-1.8 1.7l-.5.6v2c0 2-.1 2.7-.7 3.9-.3.6-.3.6 0 .5 1.3-.7 2.6.4 3.1 2.6.4 2.1 2 .7 2.2-1.9.1-1.1.2-1.4.8-2.3.8-1.4.6-2.7-.4-2.7-.9 0 .4-1.5 2-2.3 1.3-.7 1.9-1.3 2.3-2.5.5-1.4 1.5-2.1 2.1-1.5.2.2.3.3.3.2l.6-1.2c.5-1 2.6-3.3 2.8-3.1 0 0-.3.7-.8 1.5-1 1.7-1 1.6.1 1.7 1.1.1 1.8.5 2 1.3l.2.6.2-.8c.4-1.4 1.5-3.4 2.7-4.6 1-1 1.1-1.2 1-1.6-.1-.3 0-1 .1-1.8.6-3.6-.4-4.1-4.8-2.2l-1.1.5.3-.5c.7-.9 3.3-3.2 4.8-4.2 1.9-1.3 1.8-1.4-.8-1.3-2.9.1-5.3 1-8.8 3.4-1 .7-1.9 1.2-1.9 1.2-.5-.5 3.4-4.9 4.8-5.4.4-.1.2-.3-.5-.7-1.5-1-3.4-1-4.9-.5m4.9 18.5c-1.7 1.1-2.1 3.6-1.2 7.1.8 3 .9 3 1.5-.3.3-1.6.6-2.4 1.6-3.9 1.3-2.1-.1-4.1-1.9-2.9m117.3 4.2c-.9.6-3.7 3.7-4 4.5-.3.7-.3.9-.2 2.8.3 4 .1 4.7-2.2 7.4-1.7 2.1-2.2 2.8-3.6 6.2-1.7 3.9-2.3 4.9-4.3 6.2-1.8 1.2-2.1 1.8-2.6 4.6-.3 1.7-.7 3.1-1.4 4.4-.3.7-.3.7-.1.8 1.5.5 2.6 1.5 2.8 2.5.4 1.7 1.4-2 1.4-5.2 0-2.6.7-4.4 2.4-6.4 1.3-1.4 1.6-1.4 1.8.4.2 1.8-.3 3.8-2 7.4-1.8 3.9-2.2 5.4-2.2 8.5 0 2.4 0 2.3.8 1.9 1.1-.6 2.1-.4 3.1.4l.4.4-.1-.7c-.8-5.7 0-9 3.7-15.4 1.2-2.1 3.9-4.8 4.3-4.3.2.2-.9 2.6-1.6 3.6-.4.6-1 1.4-1.2 1.7-.4.6-.5.9-.6 2.5-.1 1.6-.2 2-.6 3-1.1 2.4-1.3 4.4-.8 7.3.5 2.6.7 3 1.8 2.6 1.2-.3 1.9 0 2.8 1.4l.4.7.5-1.5c.7-2.2 2.8-12.2 2.8-13.3 0-.5-.9.9-1.7 2.6-1.2 2.5-2.8 5-3 4.7-.5-.7-.1-3.6 1-6.7 1.2-3.8 2-4.9 5.1-7.1 1-.7 2.2-1.6 2.6-1.9l.7-.6.4.9c1.6 4 1.5 7.5-.2 9.2-1.7 1.6-2.4 4.4-1.1 4.4.2 0 .6-.4 1-.8.9-1 .9-1 1.8-.2 1 .9 1.2.7 1.4-1.5.1-1 .2-2 .3-2.4.1-.4.3-1.9.4-3.5.3-3.5.5-4.4 1.6-6.9 1.7-4.1 1.8-6.4.7-13.1a86 86 0 0 1-.8-6c-.1-2.2-.1-2.1-1.1-1.1-2.1 2.1-2.6 5.4-1.7 9.7.5 2 .4 2.1-.2 1.7-1.1-.7-2.6-4.9-2.8-8-.1-1.8-.1-1.8-1-.7-1.3 1.7-1.9 3.2-2.4 6.2-.1.5-.3 1.2-.5 1.5l-.4.6-.2-4.2c-.1-2.3-.3-4.2-.3-4.3-.1-.1-.9.7-1.7 1.7l-.8 1 .1-1.3a17 17 0 0 1 1.6-5.8c1.4-2.6 1.3-3.6-.3-2.5m76.6.8c-.1.2.2 2.6.6 4.1.8 2.9 2.3 5.9 4.3 8.2l.7.8-1.1-.2c-1.5-.3-3.5-.2-4.2.2-1.6.9.8 7.7 4.6 12.7 1.3 1.7 1.6 2.3 1.1 2.3-1.4 0-5.9-8.3-6.8-12.5l-.3-1.3-.3.9c-.7 2.4.1 6.3 2.5 11.8 1.3 2.9 1.7 4.3 1.8 6.6l.1 1.7-.5-.6c-.6-.7-1.5-1.2-2.5-1.4-.9-.1-.9-.1.2 1.3 1.4 2 3.1 6.5 2.7 7.1-.3.4-.7.1-.8-.6-.4-2.3-2.8-7.3-3.8-7.6-.3-.1 0 2.5.6 4.1 2 6.1 2 13.5 0 19.4-.5 1.6-.7 1.8-1 1.9-.5.1-.5.2.2-1.9 1.8-5.4 2-11 .7-16.8l-.4-1.6-.2 2.2c-.5 4.6-1.7 9.3-3.5 12.8-.5 1-.9 1.7-.8 1.5 1.8-5.9 2.4-15.4 1-14.6-.2.1-.3.7-.3 3.3-.1 5.4-1 9.6-2.9 14.2l-.8 1.8-.1 4.8c-.1 4.6-.1 4.8-.4 4.8-.3 0-.3-.1-.4-4 0-2.2-.1-4-.2-4s-.2-.3-.2-.6c-.1-.9-.9-2-1.8-2.6l-.7-.5-.2.6c-.4 1.7-.2 12.5.3 15l.1.5-.9-.1c-1.3-.1-2.5-.6-2.9-1.1-.5-.6-.8-.4-1.3.9-2 5.6-7.2 10.1-13.2 11.6-1.7.4-1.9.5-1.9.9 0 .5.9.5 3-.1 4.8-1.4 8.9-4.6 11.7-9.1.8-1.2.8-1.1.3 2-.8 5.4-3.8 8.1-12.3 11.3-.8.3-1.6.6-1.7.7-.3.3 3.9 0 5.3-.4.7-.2 1.3-.3 1.3-.3.4.4-4.3 6-6.2 7.5-1.3 1-1.3 1-.2 1.2 4.6.7 6.5 0 9.3-3.3 1.8-2.1 2.9-3 6.9-5.9 8.3-6 12.2-11.8 12.9-19.2.3-3.3.7-4.3 2-5 1-.5 2.7-.1 2.9.7.2.6.3.5.8-.5 1-2.2 1.1-4.3.5-9.4-.7-5.4-.5-8.7.4-8.5 1.2.3 2.1 1.3 2.5 2.6l.2.8.5-.7c.7-1.2 2.4-4.6 2.8-6.1.9-2.8 1.3-4.7 1.7-8.9l.1-1.2.5 1.9c1 3.9 1.3 7.3.9 10.1-.1 1.1-.1 1.2.2 1.3 1.9.7 1-9.3-1.4-16.8-.3-.9-.7-2.3-.9-3.2-.3-1.3-1-4-1.5-5.1-.1-.3 1.2-.3 2.7.1 2.1.5 4.1 1.7 5.6 3.1 1.1 1.1 1.1.9-.2-1.4-3-5.2-5.4-8.1-8.6-10-3.7-2.2-6.8-7.3-7.7-12.9-.6-1.3-1-1.9-1.4-1.3m-223.5 3.9c-.5.1-.8.7-.8 1.4 0 .2-.1.8-.3 1.2-.3.9-.2 3.1.1 4.2l.2.7.1-1.3c.1-1.5.4-2 1.7-3.3 2-1.9 1.4-3.6-1-2.9m15.8 1.8c-.9.3-1.9 3.3-2 5.3 0 1.2.9 4.5 1.1 4.2l.2-1.5c.2-1.8.5-2.4 1.7-3.9 1.5-1.9 1.6-3.1.4-3.9-.4-.4-.8-.4-1.4-.2m-10 .8c-.6.7-2.1 3.4-2.7 5-.7 1.8-.6 2.3.7 3.8.6.8.7.8.7-.3 0-1.3.7-2.6 2.2-4.1 2-2 2.3-2.6 1.7-3.7-.7-1.4-1.8-1.6-2.6-.7m32.2 4c-.4.1-.5.2-.7 1.1-.7 2.3-1.1 3-4.4 5.7-3.8 3.2-6.7 5.8-10.4 9.4l-3.4 3.4-.9-.1c-2.6-.3-4.8 1-9.6 5.4-5.1 4.7-6.1 5.2-22.8 11.5-3.7 1.4-9.8 3.7-13.5 5.2-15 5.9-18 6.9-28.7 9.6-25.5 6.4-28.1 7.4-30.1 11.7-1.1 2.4-1.1 10.9 0 12.2.8.9 1.5-.1 1.7-2.2.2-2.3.8-3.5 2.1-4.1 1.1-.4 1.1 0 .3 2.4-1.4 4.1.2 11.2 2.8 12.5 1.9 1 4.1-.5 6.5-4.3 1.4-2.2 2.5-3.3 3.7-3.7 1.6-.6 3.4-.2 3.1.7-1.4 5.6 1.6 11.2 7 13.1 3.2 1.1 4.7 0 4.6-3.5 0-3 .5-4.2 1.8-4.2 1.4 0 1.9 1 2.2 3.9.3 3.9 1.9 4.7 9.6 5l4.6.2c.2.1.2 0 .1-1-.5-3.7.7-6.4 3.1-7.1 2.2-.6 3.7.9 3.7 3.8 0 3.5 1.4 4.4 8.4 5 6 .6 8.4.3 9.4-1.1.5-.7.4-1.2-.4-3.9-.9-2.8-.9-2.8.3-2.8 1.8 0 3.1 1.1 5.1 4.5 2 3.3 3.1 3.7 9.3 3.4 5.5-.3 5.5-.3 7.1-4.5 1.6-4 2.1-4.8 3.5-4.8.9 0 1.6.8 2.2 2.7 1.5 4.8 5.3 7.1 11.7 7.1 7.1 0 10.4-3.8 7.5-8.8-1.3-2.2-1.4-3.7-.4-4.6 1.4-1.2 2.8-.1 3.6 2.8 1.6 6 4.8 6.8 13.2 3.3 4.1-1.7 5.7-2.1 6.2-1.5.6.7.2-.1-.8-1.6-3.9-5.9-3.7-11.2.4-13.2 1.4-.7 1.4-.7 1.7.5 1.7 6.2 8.6 10.1 11.7 6.7 1.2-1.3 1.2-1.2-.4-3.9-3-5.2-4.3-8.4-5.3-13.1-.2-1.1-4 .9-9.1 4.7-17.1 12.9-37 16.8-78.4 15.6-18.9-.6-21.7-.9-30.6-3.1-2.4-.6-5.2-1.3-6.2-1.5-4.9-1-6-2.1-8-7.7-1.5-4.3-2.7-5.5-5.8-5.5-1.6 0-1.5-.1.7-.9 2.8-1 4.4-.8 7 1 2.6 1.7 3.4 1.7 6.7.4 2.3-.9 11.3-2.9 15.5-3.5 3.7-.5 5.1-1.3 5.1-2.9 0-1.7-2.1-3.9-4.5-4.5-1.5-.4-.9-.7 2-1 5.6-.6 8.6.4 10.1 3.4 1 2.1 3 2.1 8.8.1 3.8-1.3 4.7-1.8 5.6-2.5 1.8-1.6 1.7-4.3-.3-6.9-.9-1.2-.9-1.3.6-1.3 2.6 0 5.1 2.3 5.1 4.6 0 1.6.6 1.7 3.5.7 5.3-1.9 10.1-4.1 11.5-5.4 2.3-2.1 2.5-5.1.3-6.6-1.5-1.1-1.7-1.9-.7-2.9 2.7-2.6 9.3.6 9.4 4.5 0 .9-.3 1 4.3-1.9 5.6-3.6 6.8-4.9 6.7-7.3-.1-2.1-2-4.2-3.7-4.2-.7 0-.1-1.2.8-1.6 3.7-1.6 8 1 8.4 4.9.1.6.1 1 .2 1 .2 0 3.1-1.9 4.1-2.6.5-.4 2.2-1.6 3.8-2.7 6.6-4.5 8.3-6.9 7.7-10.8-.4-2.3-1.3-3-4.5-3.3-2.6-.3-2.6-.2-1.3-.8 2.9-1.3 6-.9 8.7 1.2.9.7 1.7 1 2.4.8.4-.1 2.8-2.8 3.9-4.4l.7-1-1.8-1c-4.8-2.9-11.5-4.5-15.1-3.9m42.2 13.9c-11.8 13.4-16.7 28.4-14.1 42.9.3 1.7.4 1.8.8.5.6-2 2.2-4.4 2.9-4.4.1 0 .2.9.4 2 .8 7.6 1.7 10.4 5.2 15.7 1.2 1.8 2.3 3.7 2.5 4.3s.4 1 .4 1v-1.3c0-1.6.8-3.6 1.1-2.7.3.9 1.6 3.2 3.3 5.5 1.7 2.4 5.5 8.6 6.8 11 .9 1.8 1.1 3.1 1.1 6.1 0 2.5.3 4.8.7 5 .2.1 1.5-1.9 2.1-3.4l.5-1.2.2 1.1c.1.6.3 1.7.4 2.5.3 1.8.3 1.9 1 .7.9-1.5 1.2-2.6 1.2-4.3v-1.5l.9.9c3.1 2.9 6.8 3.7 6 1.2-.6-1.7-.8-5-.4-5 0 0 1.1.2 2.4.5 3.6.8 4.3.5 7-3.3.7-1 1.3-1.8 1.3-1.9.1-.1-.4-.7-1.1-1.5-1.4-1.5-3.4-4-5.7-7.4a51.2 51.2 0 0 0-6-7.4c-10.7-11.6-14.3-18.3-15.6-28.7-.2-1.3-.3-2.3-.4-2.2-.1.1-.6 1.9-1.1 4-.6 2.1-1.1 3.9-1.1 4-.1.3-.9-1-1.6-2.6-2.1-5-1.9-16.9.6-29.5.3-1.4.5-2.6.4-2.6-.2-.1-1.1.8-2.1 2m48.5 13.7c-.6.1-1.3 1.1-2.1 2.9-1.1 2.4-1 3.1.7 6.1.9 1.6 1 1.5.6-.1-.4-2-.2-2.9 1.2-4.5 1.4-1.7 1.8-3.3.9-4-.5-.5-.6-.5-1.3-.4m25 2.1c-.7.4-1.4 2.4-1.2 3.6.1.9 1.5 6.5 1.5 6.5.2.2.2-.3.4-2.8.1-1.9.3-2.9.5-3.7 1-2.7.5-4.4-1.2-3.6m-20 7.3c-1.2 1.4-1.4 5.6-.4 8.6.5 1.6.6 1.6 1.1-1.8.1-.7.5-1.7.9-2.7 1.2-2.3 1.2-3.2.5-4-.5-.5-1.7-.6-2.1-.1m7 1.2c-.7.4-.9 1.1-.9 3.5v2.2l1 2c1.5 3 1.7 2.7 1.2-3.3l-.1-1.3.7-.7c.9-1 1-1.3.5-1.9-.5-.6-1.9-.8-2.4-.5m41.9 52.1c-4.9 1.4-5.6 4.3-2.6 10.5 2.3 4.8 2.9 5.2 10.8 7 2.5.6 4.7 1.1 4.8 1.2.6.2 0-.3-1.2-1-3.1-1.8-5.1-3.6-6.1-5.7-.9-2-.5-2.9 1.7-3.8 2.1-.8 2.3-1.1 1.6-2.4-2.5-4.6-5.6-6.7-9-5.8m11.1.1c-1.6 1.2 1.4 7.3 4.4 8.8 1.5.7 2.4.9 6.3.8h3.7l2.2.6c2.9.9 4.9.9 7.3.2 2.5-.8 3.4-.8 6.2 0 3.1.8 4.1.8 6.3-.2 1.3-.6 1.7-.7 3.3-.9 1.6-.2 2.5-.4 2.8-.8 0-.1-.5-.2-1.2-.3-1.5-.2-3.8-.8-4.2-1-.5-.3 3.1-.1 5.9.3 3.6.5 8 .4 7.1-.1-1.1-.7-5.1-1.4-8.7-1.6-2.5-.1-2.8-.3-1.6-.8.9-.4 2.4-.3 7.2.6 5 .9 5 .9 3.8.1-4.9-3.1-9.9-3.5-16.2-1.1-4.2 1.6-4.9 1.6-8.6.6-2.4-.7-3.2-.7-6.2-.3-5.3.7-8.1.1-13.2-2.6-5.5-2.8-5.8-2.9-6.6-2.3m54.6 4.7c-1.4.7-3.4 2.2-3.1 2.3.1 0 .3-.1.5-.2.6-.6 1.9-.5 3.6.1 1.9.8 8.7 2.3 8.9 2 .3-.3-7.4-4.9-8.2-4.9-.1 0-.9.3-1.7.7m-2.1 3.4c-1.5.6-3.7 1.4-3.8 1.3-.3-.3-.7.7-.4 1.2.2.3.5.9.8 1.4.7 1.3 1.5 1.6 2.5.8 1.7-1.3 4-1.2 8.7.4 1.6.5 1.6.5.9-.5-.7-1-2.4-2.3-5-3.7-2.3-1.4-2.5-1.4-3.7-.9m-154.3 1.9c-.2.1-.2.3-.1.6.7 2.8-3.7 5.4-12.5 7l-3.3.6-1.5-.3c-2.5-.5-3.6-.2-5.2 1.2-1.7 1.6-1.5 2.9.8 3.5 1.8.5 2.7 1.3 3.2 2.8.4 1.2.9.6 1.5-1.7.5-2.1 4.9-4.7 6.8-3.9.9.4 1.1.9.7 2.2-.6 2.2-.5 2.5.8 1.3 1.1-1 1.8-.8 3.1.7.5.6.8.8.9.7.3-.3 1.1-2.4 1.2-3.2.1-.7.2-.9.6-1 .6-.2.6-.3.5 2.2-.1 1.2-.1 2.2 0 2.2s.4-.3.8-.7c1.6-1.4 2.8-1.6 4.4-.8l1 .4s-.1-.6-.3-1.4c-.3-1.1-.3-1.6-.2-2 .4-1.4 1.8-1.6 2-.3.5 3.3 1.9 5.1 2.6 3.4.8-1.8 4.2-1.4 6.4.8 1.1 1.1 1.3 1.2 1.3.5 0-.8-.3-1.4-1.5-2.6-1.1-1.1-1.2-1.3-1.1-1.7.2-1.1 2-2.4 2.3-1.8.2.3 1.3 1.4 2.7 2.7.9.9 1.1 1.3.7 2.5-.5 1.5-.4 2 .2 1.1 1.1-1.7 2.3-2.3 4.4-2.2 1.6 0 1.8-.1 1.6-1.2-.1-.7-.7-1.2-3.2-3-1.2-.9-2.2-1.7-2.6-2.2-.9-1.2-3.3-3.5-4.1-3.9-.9-.5-6.5-2.8-6.5-2.7 0 0-.2.4-.4.9-.5.9-1.5 2.2-1.5 1.8 0-.4-1.2-2.9-1.4-2.8-.1 0-.8 1-1.6 2.1-1.9 2.5-1.9 2.5-1.9 1.2-.1-2-.8-3.5-1.6-3m143.1.9c-.3.1-1.3.4-2.1.8-.8.3-1.8.6-2.1.7l-.5.1.3-.4c.3-.3.3-.4.1-.4-1.4 0-1 1.5 1 3.5 1.4 1.4 1.2 1.4 2.7 0 2.5-2.3 3.8-2.2 8 .9 2.6 1.9 2.2 1.2-1.3-2.3-2.6-2.7-4.1-3.4-6.1-2.9m-168.8 12.3c-1.3.6-3.8 4-6.3 8.4-.7 1.3-.7 1.6 0 .9 3.5-3.8 5.1-4.8 8.3-4.9 3.5-.2 3.7-.3 3-1.9-1-2.3-3.1-3.3-5-2.5m47.3 1.1c-.4.3-.5.5-.6 1.7l-.1 1.4-1 1.1c-1.6 1.6-1.4 1.8 1 1 2.7-.9 4.8-2.3 4.8-3.2 0-1.4-3.1-2.8-4.1-2m-13 .1c-2.7 1.5 2.1 7.7 7 9 1.2.3 1.3.2.6-.4-3.1-2.6-3.2-2.8-2.8-3.9.3-.8.3-2.2 0-2.9-.5-1.4-3.5-2.5-4.8-1.8m-16.8.7c-2 2.3-3.1 7.1-2.3 10.1.4 1.6.7 1.4 2.1-1.3.7-1.3 1.2-2.1 1.8-2.7 1-1 1-.7.1-4.1-.3-1.1-.6-2.3-.7-2.5-.1-.5-.2-.4-1 .5m7.6.7c-1.5 1.3-1.2 3.8.9 6.5.6.8 1.3 1.9 1.7 2.5.3.6.6 1.1.7 1 0 0 .2-.8.3-1.8.2-1 .4-2.4.6-3.1.8-3.5-2.1-7-4.2-5.1"/></svg>