<?xml version="1.0" encoding="utf-8"?>
<!-- Generator: Adobe Illustrator 22.1.0, SVG Export Plug-In . SVG Version: 6.00 Build 0)  -->
<svg version="1.1" id="svg" xmlns="http://www.w3.org/2000/svg" xmlns:xlink="http://www.w3.org/1999/xlink" x="0px" y="0px"
	 viewBox="0 0 410 410" style="enable-background:new 0 0 410 410;" xml:space="preserve">
<g id="svgg">
	<path id="path0" d="M198,42c-4.4,0.8-10.3,7.3-12.3,13.5c-2.1,6.5-1.1,13.8,2.1,14.2c1.6,0.2,2.1-0.9,1.6-3.6
		c-1.2-6.1,1.7-13.3,6.1-15.3c2.5-1.1,3.8,0.3,3.7,4c-0.2,3.7,0.9,5.4,3.5,5.4c1.8,0,1.9-1,0.4-2.7c-2-2.1-0.4-5.8,3.3-7.6
		c1.5-0.7,1.7-1,1.4-2C206.7,44,202.1,41.2,198,42 M195.1,55.6c-1.7,3.6-1.4,7.9,0.6,9.8c0.5,0.4,0.4,0.5-0.8,1
		c-1.4,0.6-3.3,1.7-6.4,3.9c-2.8,2-4.1,2.7-8,4.4c-8.9,4-10.4,5.4-10.3,9.3c0,1.5,0.6,3.8,1.2,5c0.3,0.6,0.3,0.6-0.8,0.1
		c-5.3-2.4-11.2-1.1-18.5,4c-5.1,3.5-5.1,3.5-4.6,4.5c0.8,1.8,2.6,1.4,5.2-1c4.3-4.1,10.5-6.2,14.5-4.9l0.9,0.3l-1.6,0.1
		c-5.3,0.4-11,3.4-14.1,7.2c-0.8,1.1-0.8,1.4,0.2,3c0.5,0.7,0.8,1.5,0.8,1.8c0,0.3,0.1,0.1,0.3-0.5c1.1-3.5,4.3-5.9,9.5-7.3
		c4.4-1.1,12.8-2.1,11.7-1.4c-0.6,0.4-5.1,1.6-8,2.1c-6.4,1.2-7.6,2.1-10.8,7.5c-1.7,2.9-1.8,3.2-2,5.2c-0.2,2.3-0.5,2.9-3,6
		c-1.2,1.5-2.1,2.7-2.1,2.8c0,0.1,0.7,0,1.6-0.1c1-0.1,3.7-0.2,6.8-0.3c7.6-0.1,8.7-0.5,14.9-5.2c4.1-3.1,6.6-4.6,10.3-6.3l1.6-0.8
		l-0.9-0.1c-0.5-0.1-2.5-0.6-4.6-1.1c-7.4-1.8-11-1.2-19,3.4l-1.1,0.6l1.1-1.2c3.1-3.6,5.7-5.1,12.7-7.5c2-0.7,4-1.6,7.2-3.2
		l4.5-2.2l0.1-0.7c0.5-2.8,2.9-5,9.1-8.1c6.6-3.3,11-4.1,18.2-3.3c8.2,0.9,10.4,0,13.6-6c2.3-4.2,3.2-4.9,8.3-6.7
		c2.9-1,4.4-1.7,5.4-2.6l0.7-0.7l-1.2-0.7l-1.2-0.7l-1.9,0c-4.1,0.1-8.3,1.2-12.1,3.3c-1.8,1-2,1.1-1.9,0.6
		c0.2-1.7,9.4-4.7,14.2-4.7c1.9,0,4.3-0.5,4.3-0.8c0-0.5-1.6-1.8-2.6-2.2c-6.3-2.3-14.9-0.3-21.7,5.3c-1,0.8-1.2,0.9-1.4,0.7
		c-0.9-0.9,7-5.6,11.6-7c1.2-0.4,1.4-0.5,4.3-3.7l0.8-0.9l-1.7,0.1c-3.6,0.2-9.2,2-11.6,3.8c-0.3,0.2-0.5,0.3-0.6,0.3
		c-0.1,0,0.2-1.3,0.6-2.4c0.2-0.6,0.4-1,0.4-1.1c0,0-0.5,0.5-1.2,1.2c-1.9,2-4.7,3.7-7.5,4.4c-0.8,0.2-1.3,0.4-1.3,0.5
		c0.1,0.1-4,1.3-5.8,1.7c-1.9,0.4-4-2.5-3.8-5.3c0.1-1-0.3-1.6-0.8-1.2c-0.9,0.9,0.1,4.6,1.6,6.2l0.7,0.8l-1.4,0.4l-1.4,0.4
		l-0.4-0.3c-2-1.9-2.4-5.2-1-8.6c0.7-1.8,0.8-2.1,0.3-2.2C195.8,54.3,195.6,54.5,195.1,55.6 M248.9,63c-1.6,0.5-2.3,1.1-5.2,4.5
		c-0.7,0.8-1.5,1.5-2.2,1.9c-2,1.2-4.3,4.5-5.4,7.8c-0.3,0.9-0.9,1.3-0.9,0.5c0-0.8,1.4-3.7,2.7-5.7c0.3-0.5,0.7-1,0.7-1.1
		c0.1-0.1-0.2-0.1-0.8,0.1c-2,0.7-5,4.6-6.4,8.3c-0.6,1.5-0.7,1.7-1,1.5c-0.7-0.4,2-5.6,4.2-8c1-1.1,0.9-1.1-0.8-0.3
		c-2.1,1.1-3.5,2.6-4.8,5.3c-2.2,4.8-4.9,8.1-7.4,9.2c-0.9,0.4-1.1,0.5-1,0.8c0.2,1.3,3.6-0.7,5.6-3.3c0.4-0.6,0.8-1.1,0.9-1.2
		c0.4-0.5-0.4,1.9-1,2.9c-1.4,2.4-3.1,4.1-5.3,5.2c-1,0.5-1.4,0.8-1.4,1c0,1.7,4.8-1.4,6.8-4.4l0.6-0.8l0.1,0.8
		c0.6,4.9,2.1,5.8,6.5,4.2c2.2-0.8,2.2-0.8,2.2,1.1c0,1.4,0,1.4-1,3.3c-1.4,2.8-1.4,3.9,0.1,4.7c1.8,1,3.9-0.3,5-3
		c0.9-2.1,0.8-2.4-0.1-4.3c-0.5-0.9-1.4-2.7-2.1-4c-2.8-5.3-2.8-6.5-0.1-9.5c1.3-1.5,2-2.5,3.3-4.8c2.9-5.2,6-7.9,10.7-9.2
		c3-0.8,3.5-0.5,4.1,2.5c1.9,8.5-2.5,18-10.9,23.5c-1.7,1.1-1.4,1.2,0.7,0.3c4.5-1.9,7.9-4.7,9.4-7.8c1.8-3.6,3.5-13.7,2.8-16.7
		C256.4,64.5,252.3,61.9,248.9,63 M260.3,79.5c-1.1,1.2,0.9,7.2,3.4,10.2c1.7,2.1,4.2,3.7,6.7,4.3c1.5,0.4,1.6,0.3-0.9,1.7
		c-1.1,0.7-2.1,1.3-2.1,1.4c0,0.3,3.4,3.8,4.8,4.9c1.4,1.1,1.5,1.2,0.2,0.7c-3.6-1.4-8.3-4.4-10.2-6.6c-0.6-0.6-1.1-0.7-1.2-0.2
		c-0.3,1.6,7.1,6.4,13,8.5l2.3,0.8l-1.2-0.1c-1.6-0.1-4.7-0.7-6.7-1.2c-0.9-0.2-1.7-0.4-1.8-0.3c-0.1,0.1-0.2,0.9-0.1,0.9
		c0,0,0.8,0.2,1.7,0.4c3,0.7,7.7,1.4,10,1.4l0.9,0l-1.5,0.6c-1.4,0.5-4,1.3-5.4,1.5c-0.5,0.1-0.6,0.1-0.4,0.3c0.6,0.6,1,5.8,0.5,6.5
		c-0.6,0.7,1.9-0.2,3-1.2c0.5-0.4,0.5-0.4,0.5-0.2c-0.1,0.2-0.3,1.3-0.6,2.5c-1,4.6-2.5,9.4-4.5,14.2c-0.6,1.5-1.1,2.7-1.1,2.8
		c0,0,1-0.2,2.2-0.5l2.2-0.6l-0.1,0.4c-0.5,1.9-4.1,5.3-9.5,8.9c-2.6,1.8-2.7,1.8-2.7,2.3c0,0.7,0.8,1,2.3,0.7l0.7-0.1l-0.8,0.6
		c-1,0.8-3.2,1.9-5.1,2.6c-1.6,0.6-7.2,3.4-7,3.5c0.1,0,0.8-0.1,1.5-0.2c2-0.4,3.6-0.6,6.1-0.7l2.3-0.1l-0.6,1.1
		c-0.3,0.6-0.9,1.9-1.2,2.8c-0.3,1-0.8,2.2-1.1,2.7l-0.5,0.9l1.1-1.1c1.7-1.6,6.2-4.3,6.6-3.9c0,0-0.2,0.6-0.6,1.3
		c-1.8,3.6-3,10.8-1.8,11.3c0.5,0.2,0.6-0.2,0.7-2.3c0-2.3,0.3-4,1.1-6.2c0.7-2.2,0.8-2.3,0.7-0.3c-0.3,4.4,0.9,9.5,3.2,13.5
		c0.9,1.6,1.4,2.3,1.8,2.3c0.6,0,0.5-0.4-0.6-2.2c-3-5-4.1-10.8-3-16.4c0.4-2.1,0.5-1.8,0.5,1.7c0,5.2,1.1,9.1,3.7,13.1
		c1,1.5,1,1.5,1.2-1.8c0.4-9.5,1.1-10.8,3.6-7.1c2.4,3.4,5.5,5.8,9.3,6.9c0.2,0.1,0.4,0,0.4-0.1c0-0.2-2.6-6.7-3.8-9.4l-0.3-0.8
		l1.6,0.7c5.6,2.5,9.8,3,13.1,1.8l0.5-0.2l-1.7-1c-7.7-4.5-11.9-9.7-9.9-12.3l0.3-0.4l0.8,0.7c2.6,2.3,6.1,2.9,13,2.4
		c8.9-0.7,14.6,1.1,20,6.3c1.9,1.8,1.3,1-1.3-1.9c-3.9-4.2-6.9-6.5-11-8.2c-6-2.5-17.5-5.7-23.1-6.4c-0.7-0.1-1.3-0.4-0.8-0.4
		c0.3,0,4.7-2.8,6.6-4.1c2.8-2,5.6-2.6,11.7-2.3c1.7,0.1,3.4,0.1,3.9,0.1c0.8,0,0.8,0,0.8-0.4c0-0.8-8-1.1-11.6-0.5
		c-1.3,0.2-2,0.3-4,0.1c-1.3-0.1-2.8-0.2-3.3-0.2c-0.7,0-0.2-0.1,2-0.6c4.5-0.9,6.3-1.1,9.1-1.1c2.5,0,2.6,0,2.6-0.4
		c0.1-1-4.3-0.8-11.2,0.4c-2,0.4-3.8,0.7-4,0.7c-0.4,0.1-0.4,0-0.4-0.3l0.1-0.4h-2c-1.9,0-4.4-0.2-5.3-0.5c-0.4-0.1,4.3-4.8,6.4-6.4
		c3-2.2,5.9-2.5,10.9-1l1.5,0.4l-1.1,0.2c-1.3,0.3-2.6,0.9-3.4,1.7l-0.7,0.6l0.8,0c10.5,0.5,21.2,6.1,27.8,14.5
		c1.5,2,1.4,2.1-0.9,0.6c-4.9-3-13.6-5.6-13.6-4.1c0,0.4,0.1,0.4,1.3,0.6c3.9,0.7,8.2,2.2,11.6,4.2l0.7,0.4l-0.7,0.3
		c-0.4,0.2-0.9,0.5-1.2,0.7l-0.6,0.4l-1.5-0.8c-4.4-2.2-9.7-3.6-14.2-3.7l-2.2,0v0.4c0,0.4,0.1,0.4,1,0.5c5.2,0.2,10.1,1.4,14.4,3.5
		l1.8,0.9l6.4,5.9c8.3,7.7,10.6,10.3,13.2,14.9c0.6,1,0.5,1-1.4-0.8c-1.6-1.5-2.9-2.4-3.2-2.3c-0.6,0.2-0.2,0.8,1.4,2.1
		c0.9,0.8,2.5,2.2,3.5,3.2c2,2.1,1.9,1.8,5,9c2.5,5.7,2.4,5.5,1,3.4c-2.8-4.1-9.6-11.9-10.2-11.8c-0.7,0.1-0.5,0.6,1.2,2.4
		c5.6,6.1,9.5,11.4,11.9,16.2l1.2,2.3l0.2,3.3c0.2,5.1,0.7,9.1,1.7,14.7c1.3,7.3,1.5,9.1,1.3,12.5c-0.1,1.8-0.8,6.1-0.9,6.2
		c0,0,0-1.8,0-4c0-8.4-2.6-20.9-4.2-20.3c-0.4,0.1-0.3,0.5,0.3,2.5c3,8.8,3.7,19.3,1.9,28.6c-0.4,1.9-0.9,3.4-4.1,12.3
		c-3.2,8.8-3.7,10.1-3.8,10c-0.1-0.1,0.8-4.1,2.2-9.6c3.3-13.2,4-17.4,4-24.1c0-4.5-0.3-6.9-0.8-7.3c-0.6-0.4-0.7,0.1-0.4,2.1
		c0.9,7,0,13.7-3.5,28.1c-3.1,12.6-4.7,22.7-3.8,23.7c0.5,0.6-0.4,6.4-1,6.4c-0.1,0-0.9-0.2-1.7-0.4c-1.8-0.5-3.9-0.7-5.1-0.5
		l-0.8,0.2l0.1-1.4c0.6-7.9,0.6-7.9,0-7.9c-0.5,0-0.5-0.1-0.8,5.3l-0.3,4.5l-0.4,0.4l-0.4,0.4l-0.1-6.7c-0.2-8.7-0.2-9.6-0.8-9.6
		c-0.4,0-0.4,0-0.4,1.3c0,0.7,0.1,5.1,0.1,9.7l0.1,8.4l-1,8.5c-0.6,4.7-1,8.6-1,8.8c0,0.1-0.5-0.2-1.2-0.8c-0.6-0.6-1.4-1.2-1.7-1.4
		l-0.5-0.3l0.1-4.9l0.1-4.9H320h-0.4l-0.2,4.5l-0.2,4.5l-0.5-0.2l-0.5-0.2l0.1-2.9c0.1-5.2-0.3-9-1-9c-0.4,0-0.5,0.2-0.3,1.5
		c0.3,2.3,0.4,8.3,0.2,10.9c-0.5,6-3.8,15.1-7.9,21.7c-1.1,1.8-1.1,1.8-0.8,0.3c0.5-2.3,0.1-5.8-1-7.8l-0.3-0.6l0.5-1.4
		c2.8-7.3,4.5-16.2,2.9-15.6c-0.1,0.1-0.3,0.4-0.3,0.8c-0.8,7.1-2.5,12.9-5.5,18.7c-0.8,1.6-6.1,7.4-6.7,7.4c0,0,0.5-0.9,1.1-2.1
		c2.5-4.3,5.7-13.2,5.2-14.6c-0.3-0.8-0.8-0.2-1.1,1.3c-1.2,5.4-3.4,10.7-6.6,15.5c-2,3-4.2,5.1-2.6,2.5c1.9-3.2,3.2-8.1,2.1-8.2
		c-0.4-0.1-0.4-0.1-0.7,1.7c-0.5,3-1.9,5.9-4.5,9.2c-1,1.3-1.4,1.5-8.5,7l-0.7,0.6l0-0.8c0-2.2-1.9-6.6-2.5-5.7
		c-0.1,0.1-1.3,2.1-2.7,4.4c-1.4,2.3-2.6,4.1-2.6,4c-0.1-0.1-0.3-0.6-0.5-1.2c-0.2-0.6-0.9-2.1-1.6-3.4c-2.5-4.7-3.9-9.7-3.9-13.4
		c0-0.9-0.3-1.3-0.8-1.1c-0.6,0.2,0.2,6,1.4,9.6c0.3,1,1.3,3.1,2.1,4.6c2,4,2.8,6.1,2.4,6.9c-0.2,0.4-0.5,0.3-0.5-0.2
		c0-0.9-1.7-4-4.6-8.3c-2.6-3.9-4.6-9.7-5.6-16.1c-0.2-1.2-0.4-2.7-0.5-3.2l-0.1-0.9l-0.3,1.2c-0.4,1.9-0.6,3.3-0.6,5.4
		c0,2.3-0.1,2.1-0.7-1.5c-0.6-3.7-0.8-7.4-0.6-10.7c0.2-2.8,0.2-3.1-0.4-2.9c-0.7,0.2-0.9,7.6-0.3,11.6c0.1,1,0.2,1.9,0.2,1.9
		c0,0-0.4-1.1-0.7-2.6c-3-11.6-2.9-19,0.4-30.8c0.5-1.8,0.9-3.3,0.9-3.3c0,0-0.4,0.8-0.8,1.9c-0.4,1.1-1.4,3.5-2.2,5.4
		c-0.8,1.9-1.9,4.3-2.3,5.4c-0.9,2.2-0.9,2-0.1-1.6c0.6-2.5,2-7.8,4.3-16c0.8-3,1.5-5.6,1.5-5.8c-0.1-0.5-0.7-0.6-0.9-0.2
		c-4.2,14-6.9,25.2-7.2,30.4c-0.1,0.9-0.2,2.8-0.3,4.3c-0.1,1.4-0.2,4-0.3,5.7c-0.2,3.6-0.3,3.9-0.7,1.9c-1.3-6.7-1.2-14.9,0.1-21.5
		c0.4-1.9,0.4-2.3-0.2-2.3c-0.3,0-0.5,0.4-0.9,2.4c-1.2,6.2-1.3,13.3-0.4,19.4c0.1,0.9,0.2,1.7,0.2,1.7c-0.1,0.1-0.4-0.5-3-4.6
		c-0.5-0.9-1.2-2.1-1.5-2.8c-0.3-0.7-1.6-3.8-2.9-6.9c-5.6-13.2-6.9-19.1-5.4-26.2c0.1-0.6,0.2-1.2,0.2-1.3c0-0.4,0.2,0.2,0.7,2.3
		c0.9,3.6,2.8,8.2,2.5,6.1c-0.1-0.4-1.3-12.2-2.7-26.2s-2.6-25.7-2.7-25.8c0-0.2-0.1,1.1-0.1,2.8c-0.1,8.4-2.5,19.8-6,28.3
		c-2.6,6.4-3.2,8.5-3.2,11.9c0,2.2,0.1,2.2,0.8,0.3c1-2.6,2.8-5.2,5-7.3c1.6-1.6,1.6-1.6,1.3,0.6c-0.1,1-0.5,4-0.8,6.7
		c-0.3,2.7-0.8,6.7-1.2,8.8c-1.6,9.2-1.7,12.3-0.6,16.7c0.4,1.6,0.6,1.8,0.7,0.8c0.3-1.5,1.9-4.5,3-5.5l0.4-0.4l-0.4,1.8
		c-1.6,7.4-0.6,15.6,2.9,25.6c2.6,7.4,7.7,19,8.2,19c0.1,0,0.1-0.7,0-1.6c-0.1-2.1,0.6-6.7,1-6.7c0.1,0,0.5,1.5,0.9,3.4
		c2.2,9.2,4.7,13.8,9,16.9c1,0.7,3.2,1.9,3.4,1.7c0.2-0.2-1.2-2.7-2.5-4.2l-0.6-0.8l0.5,0.2c1.2,0.4,2.2,1.3,4.2,3.8
		c4.6,6,9.6,6.5,23,2.3c8.9-2.8,14.2-5.9,17.8-10.4l1-1.2v0.7c0,2.5-1.2,5.9-3,8.1c-0.8,1.1-0.9,1,0.3,0.8
		c9.1-2.1,16.6-9.7,23.5-23.9c0.9-1.9,1.8-3.5,1.8-3.5c0.4,0,1.9,6.1,2.1,8.6c0.2,2.1,0.1,2.1,1.7,0.5c6.1-6.5,8.6-16.3,7.8-31.2
		c-0.1-1.5-0.1-2.8-0.1-2.8c0.1-0.1,1.5,2.8,1.8,3.9c0.8,2.3,1.2,5.6,0.9,7.8c-0.2,1.5-0.2,1.5,1-0.3c6.1-9.5,8.7-23,7.5-39.3
		c-0.1-1.5-0.2-2.7-0.1-2.7c0,0,1.2,1.7,2.7,3.8c2.7,4,2.9,4.2,2.5,3c-0.9-2.6-0.2-12.2,1.7-22.2c1.1-5.8,1.4-8.8,1.1-12
		c-0.2-2.5-0.3-2.3,0.9-1.5c2,1.3,3.6,3.3,4.3,5.5c0.2,0.6,0.4,1.1,0.4,1.1c0.2,0.2,0.3-4,0.1-6.7c-0.4-6.5-1.6-12.8-3.8-19.7
		l-0.6-1.8l0.4-0.8c0.3-0.6,0.4-1.1,0.5-2.4c0.1-2.7-0.1-3.4-3-11.6c-0.5-1.3-0.8-2.4-0.8-2.5c0,0,0.8,0.4,1.8,1.1
		c2,1.4,2.9,1.5,3.6,0.7c2-2.3-4.6-11-11.4-14.9c-1.4-0.8-1.4-0.9,0.2-1c2.5-0.2,5.8,0.4,8.1,1.6c0.9,0.5,1,0.4,0.6-0.7
		c-0.7-1.9-1.2-2.6-8.6-9.7l-2.7-2.7l0.7-0.3c2.9-1.3,1.6-5.4-4-12.1c-2.2-2.6-4.5-5-13.4-13.4c-9-8.5-8.6-8-6.4-8
		c1.8,0,3.3,0.6,4.8,2c2.5,2.3-2.4-3.3-5.9-6.7c-8.8-8.6-20.3-16.1-30.8-20.1l-1.3-0.5l1.5,0c4.4,0,10.8,1.5,15.5,3.7
		c1.8,0.9,2.4,1,2.4,0.4c0-0.9-6.9-3.5-11.6-4.4c-2.8-0.5-4.5-0.7-7.8-0.7c-3.7,0-7.5-0.8-8.9-1.9l-0.5-0.4l2-0.2
		c2.4-0.3,7.7-0.1,9.6,0.2c1.4,0.3,1.7,0.2,1.7-0.3c0-0.5-0.1-0.5-2.7-0.8c-2.3-0.3-6.7-0.3-8.9-0.1c-0.8,0.1-1.5,0.2-1.6,0.1
		c-0.3-0.1,1-3.3,1.6-4c0.2-0.2,0.1-0.3-1.5-0.3c-1.8-0.1-3-0.4-3.8-1.2c-0.7-0.6-0.5-0.9,2.1-3c1.4-1.1,2.5-2.1,2.5-2.1
		c0-0.1-0.7-0.1-1.6-0.2c-3.9-0.3-6.6-1.3-13-5.1C261.5,78.9,261,78.7,260.3,79.5 M202.6,88c-3.8,0.8-7.3,4-9.7,8.8
		c-0.7,1.4-1,2.3-2.2,6.3c-0.5,1.6-1,2.5-2.2,3.8c-1.4,1.5-0.3,1.3,2-0.4c1.8-1.3,1.9-1.4,4.2-2.1c2.1-0.7,2.6-0.9,3.4-1.5
		c0.8-0.6,0.7-0.7-1.4-0.7c-1,0-2.3-0.1-2.7-0.2l-0.9-0.2l1.2-1.7c2.9-4.2,3.9-5.3,5.6-6.4c3.5-2.3,8-2.7,12.5-1.1
		c0.5,0.2-1.9-2.2-3.1-3C207.4,88.1,204.8,87.5,202.6,88 M193.2,89.3c-1.8,1.7-2.8,3.8-3.4,7.5c-1.1,6.2-1.5,7.5-2.7,9.4
		c-0.7,1-0.7,1.4-0.2,1.5c1,0.4,2.6-3.7,3.5-8.7c0.9-5,1.6-6.9,3.4-8.8c0.9-0.9,1-1.1,0.9-1.4C194.4,88.3,194.2,88.4,193.2,89.3
		 M206.1,94.2c1.1,1.3,1,3.7-0.2,5.7c-0.8,1.3-2,1.9-4.4,2.2l-0.7,0.1l0.4,0.3c1.7,1.3,5,0.5,6.2-1.5c1.9-3.1,1.4-6.8-1-7.3
		l-0.7-0.1L206.1,94.2 M201.2,94.2c-2,0.9-3.4,3.8-2,4c0.4,0,3.9-1.9,4.7-2.6C205.3,94.4,203.2,93.3,201.2,94.2 M186.6,98.1
		c-0.1,0.1-0.1,0.5,0,1c0.1,1.3-0.2,3.8-0.8,5.6c-0.5,1.7-0.5,2.1,0,2.1c0.9,0,2.2-6,1.8-7.9C187.4,98.1,186.9,97.8,186.6,98.1
		 M140.7,99.5c-0.3,0.1-1.1,0.8-2.1,1.7c-0.8,0.9-2.3,2.1-3.2,2.7c-2.6,1.8-3.5,3-3.5,4.6c0,1.7,1.2,4.7,1.9,4.8
		c0.3,0.1,0.3,0,0-0.5c-0.5-0.9-0.5-2.6-0.1-2.8c1.2-0.4,2,0.8,2.4,3.7c0.3,2.9,2.1,5.2,4.3,5.8c0.6,0.2,1.1,0.2,1.1,0.2
		c0.2-0.2-0.5-1.7-1.5-3.6c-2.7-4.7-1.2-7.5,3.3-6.2c1,0.3,1.4,0.8,1.4,2c0,2.1-0.6,2.7-2.8,2.9c-0.9,0.1-1,0.1-0.9,0.4
		c1.8,5.6,6.8,3.3,9.3-4.3c0.9-2.7,0.8-3.7-1.1-7.5c-1.8-3.8-2.3-3.9-6-0.9c-1.6,1.3-3.2,2.2-3.8,2.2c-0.7,0-0.5-0.4,1-1.6
		c2.8-2.2,3.5-3.2,2.5-3.6C142.4,99.4,141.3,99.3,140.7,99.5 M258.3,109.3c-0.9,0.2-2.5,0.2-7.6,0.2c-6.9,0-7.2,0-6.8,0.7
		c0.2,0.2,0.4,0.3,1.4,0.2c0.7,0,3.5,0,6.3,0.1l5.1,0.1l-1.1,0.8c-3,2-5.9,2.9-13.6,4c-4.1,0.6-4.6,0.7-10.4,2.6l-0.6,0.2l0.7-0.1
		c0.4,0,1.7-0.2,2.9-0.4c4.6-0.7,13.6-1.1,16.1-0.7l1,0.1l-0.9,0.6c-3.5,2.1-6.1,2.6-15.8,3c-2.1,0.1-4.5,0.3-5.4,0.4
		c-6.6,1-16.2,4.1-16.2,5.2c0,0.6,0.4,0.6,1.5,0.1c7.4-3.7,13.8-4.3,23.4-2.2l1.3,0.3l-3.5,0c-7.1,0-16.1,1.7-15.6,3
		c0.1,0.4,0.4,0.4,2.1-0.1c5.8-1.7,17.4-2.5,20.3-1.4c1,0.4-3.7,1.6-8.1,2.2c-5.8,0.7-8.2,1.6-10.3,3.6l-1,1l2,0.1
		c3.6,0.2,8.5-0.2,10.5-0.9c0.4-0.1,0.7-0.2,0.8-0.2c0.1,0-1.6,1-3.7,2.3c-5,3-9.4,5.8-9.4,5.9c0,0.3,1.6,0.5,3,0.4
		c1.6-0.1,2.5-0.4,6.2-1.9c2.7-1.1,3.1-1.1,1.6-0.2c-0.7,0.4-2.6,1.8-4.3,3c-7.5,5.4-10.5,6.8-11.9,5.6c-0.2-0.2-0.3-0.2-0.3-0.1
		c0,0.2,1,1.1,1.6,1.5l0.6,0.3l-0.7,0.1c-1.5,0.2-3.9,1.8-6.4,4c-4,3.6-15.9,10.2-24.2,13.2c-2.3,0.8-2.4,0.9-0.9,1.1
		c2.7,0.3,3.9-0.1,15.3-5.8c10.1-5,11.7-5.7,13.5-6.1c3.8-0.8,9.3,0.5,12.7,3.1c0.5,0.4,0.9,0.7,1,0.7c0.3,0-0.2-2-0.7-3.1
		c-0.7-1.4-0.9-1.4,1.6-0.8c4.1,1,6.8,2.6,6.8,4.1c0,0.2,0.8,0.2,0.9-0.1c0.1-0.4-0.8-1.8-1.6-2.5c-1.3-1.1-2.9-1.8-6-2.5
		c-2.1-0.5-1.4-0.6,1.3-0.2c4,0.6,7.5,1.7,11.6,3.8c2.5,1.3,3.1,1.5,3.1,0.9c0-1-7.5-4.3-12-5.3l-1.6-0.3l1.9,0.1
		c5.2,0.2,10.4,1.4,14.5,3.3c1.7,0.8,1.7,0.7,0.4-0.8c-1.5-1.8-3.6-3.5-8.1-6.5c-4.7-3.2-6.2-3.9-8.1-4l-0.7,0l1-0.4
		c4.1-1.6,9.8-1.1,14.2,1.2c1.3,0.7,1.8,0.7,1.8,0.2c0-0.9-4.6-2.8-7.3-3.1c-1.9-0.2-1.2-0.4,2.2-0.7c2.6-0.2,5.2,0.4,6.4,1.6
		l0.5,0.5l-0.2-0.4c-0.8-1.5-4.7-4.6-6.9-5.5c-1.3-0.5-1.3-0.5-0.5-2.1c2.3-4.5,6.9-7.4,12-7.4c2.4,0,2.4,0.1,0.8-1.6
		c-1.4-1.4-3-2.3-4.7-2.8l-0.9-0.2l0.9-1.2c2.7-3.7,6.8-7.1,10.7-9.1c0.7-0.4,1.3-0.7,1.3-0.8c0-0.1-2.8-0.3-4.9-0.3l-1.7,0l0.7-0.3
		c0.8-0.4,3.3-1.9,3.6-2.3C263,109.5,260.2,108.9,258.3,109.3 M182.7,111.4c-0.4,0.2-1.9,1.1-3.5,2c-9.7,5.8-13.9,7-25.3,7.3
		c-5.2,0.1-5.7,0.3-6,1.1c-0.3,1.1,0.5,1.2,8,1.2c10-0.1,11.8-0.6,20.2-5.7c6.8-4.1,7.7-4.3,12.6-2.5c4.8,1.7,8,4,11.7,8.4
		c1.1,1.3,2.9,3.2,4.1,4.3c9.3,8.6,12.1,12.8,10.7,15.8c-1.1,2.4-11.6,10.2-23,17.3c-8.1,5-16.5,6-23.9,2.8
		c-2.8-1.2-3.3-1.2-1.2,0.2c5.9,3.7,15.7,3,24.8-1.7c1.7-0.9,11.3-6.7,14.9-9c8-5.2,11.3-9.9,9.5-13.4c-1.7-3.4-10.9-13.8-17.1-19.4
		c-3.2-2.9-4.2-3.6-7.9-5.4c-1.8-0.9-3.7-1.9-4.2-2.3C185.3,111,184.1,110.7,182.7,111.4 M181,116c-1.6,0.5-3,1.3-5.8,3.3
		c-2.9,2.1-4.5,2.9-6.4,3.4c-2.3,0.7-2.5,1.1-0.7,1.2c1,0.1,1.3,0,3.3-0.7c2.5-0.8,4.1-1.1,5.2-0.8c0.6,0.2,0.8,0.1,2-0.3
		c1.8-0.7,3.8-0.8,5.7-0.2l1.2,0.4l1.4-0.6l1.4-0.6h3.4h3.4l1.2,0.8c0.8,0.5,1.4,0.8,1.9,0.9l0.7,0.1l-0.4-0.6
		c-1.8-2.4-7.7-3.8-11.9-2.9c-1.2,0.3-1.2,0.3-2.5-0.2c-1.7-0.6-3.9-0.5-5.7,0.1c-1.4,0.5-1.3,0.4,0.1-0.3c1.9-0.9,2.9-1.1,5.7-1
		c2.7,0.1,7.8,0,7.6-0.3c-0.3-0.3-3.8-1.7-5.1-2C185,115.4,182.6,115.5,181,116 M179.9,123.2c-0.1,0-0.4,0.1-0.6,0.2
		c-1.8,0.4,1.7,4.3,4.9,5.4c1.5,0.5,1.6,0.5,0.7-0.5c-0.8-0.9-1.3-2-1.6-3.3c-0.2-1-0.2-1-1-1.3
		C181.4,123.3,180.2,123.1,179.9,123.2 M188.2,123.6c-0.8,0.2-1.5,0.6-1.1,0.6c0.2,0,0.5,0.5,0.7,1c1.2,2.4,5.4,6,7.6,6.3
		c0.9,0.1,0.9,0.2-0.3-1.3c-1.3-1.5-1.6-2.1-1.8-3.6C192.8,124.2,190.9,123.1,188.2,123.6 M171.5,124.7c-1.2,0.5-1.1,1.2,0.6,2.7
		c1.2,1.1,4.9,2.7,5.3,2.4c0.1,0-0.4-0.6-0.9-1.2c-1.1-1.3-1.7-2.3-1.7-3.2C174.8,124.5,172.8,124.1,171.5,124.7 M148,126.1
		c-0.9,0.6-0.4,1.7,3.2,8.4c2.7,4.8,3,5.2,5.9,8.2c3,3.1,3.9,3.4,5.4,2.1c0.9-0.7,0.9-0.7-0.3-1.6c-0.9-0.7-3.5-3.8-5.5-6.5
		c-1.1-1.5-1.9-3.2-2.5-5.1c-0.6-1.9-1-2.6-1.6-3c-0.3-0.2-0.9-0.7-1.4-1.2C149.6,125.9,148.8,125.5,148,126.1 M161,126.6
		c-0.6,1.2-3,1.2-5.9-0.1c-1.3-0.6,2.1,8.6,4.1,11.2c5.1,6.6,7.1,8.1,8.7,6.3c0.7-0.8,0.6-0.9-0.4-1.9c-0.5-0.5-1.1-1.2-1.3-1.5
		c-0.9-1.6-2.9-7.7-2.9-9c0-0.2-0.1-0.6-0.2-0.8c-0.8-1-0.7,2.1,0.1,4.7c0.8,2.5,0.7,3.3-0.3,2.7c-1.7-1-2.6-5.4-1.8-8.9
		C161.5,126.6,161.5,125.6,161,126.6 M186.1,135.2c-3.1,0.5-5,2.5-6,6.4c-1.5,5.8-3.7,9.3-6.5,10.2c-0.4,0.1-0.3,0.6,0.3,1.4
		c1.9,2.5,7.7,2.5,11.6,0.1c1.2-0.8,1.6-1.5,2-3.5c0.9-5.1,4.6-8.5,10.2-9.6l0.8-0.1l-0.3,0.5c-0.3,0.4-0.6,0.5-1.5,0.7
		c-3.9,0.9-7.3,4.2-7.5,7.4c-0.1,1.4-0.1,1.4,2.1-0.9c2.4-2.4,4.4-3.9,6.8-5.2c1-0.5,2.4-1.3,3-1.7c1.4-1,2.2-1.4,3.4-1.8
		c1.6-0.5,2.6-1,2.3-1.1c-1.1-0.6-7.6-0.6-11.6,0c-6.9,1.1-7.9,1.6-9.6,5.2c-0.5,1-1.1,2.4-1.5,3.1c-0.8,1.6-2,3-3.4,3.9
		c-1.3,0.8-1.4,0.8-0.6-0.1c0.8-1,1.5-2.2,2.4-4.8c2.1-6.1,3.9-7.5,10-8.3c2.8-0.4,4.6-1,4.8-1.7
		C197.2,134.9,187.5,134.9,186.1,135.2 M204.9,141.8c-1.4,0.7-1.9,1.2-1.9,2c0,0.6-0.1,0.7-0.4,0.8c-0.3,0.1-0.4,0.2-0.4,0.4
		c0,0.6-1.8,2.3-2.1,1.9c-0.1-0.1,0.3-0.5,1.5-1.4c0.8-0.7,0.4-0.8-0.7-0.2c-1.9,1-2.7,2-2,2.6c0.4,0.4,0.2,0.7-1,1.5
		c-1.4,0.9-1.7,0.8-0.6-0.2c0.6-0.5,1.1-0.9,1.1-0.9s0.1-0.1,0.1-0.2c0-0.9-3.2,1.1-3.7,2.3c-0.9,2.4,3.9,1,7.3-2.1
		c1.4-1.3,1.5-1.4,1.3-0.6c-0.6,1.7-6.2,5.2-8.1,5c-0.7-0.1-0.8-0.1-0.6,0.2c0.1,0.1,0.3,0.4,0.4,0.7c1,3.1,9.9-3.3,13.9-10
		c0.7-1.2,0.7-1.3-0.3-1.2c-0.8,0.1-0.9,0-1.1-0.4C207.2,141.2,206.3,141.2,204.9,141.8 M206.6,141.8c-0.3,0.6-2.2,1.8-2.6,1.6
		c-0.1-0.1,2.4-1.9,2.7-1.9C206.7,141.5,206.7,141.7,206.6,141.8 M169.2,147.7c-2.1,0.5-2.2,1.5-0.7,4.2c0.6,1.1,2,3.5,3.1,5.4
		c2.4,4.3,3.2,5.3,3.9,5.7c0.6,0.3,1.2,0.1,1-0.3c0-0.1-0.1-0.7-0.2-1.3l-0.1-1.1l0.9,0.8c1.7,1.5,3.5,2,4,1.1c0.6-1-0.3-2.1-2.4-3
		c-2.3-1-4.6-3.7-6.9-8.2l-1-2l-0.6,0.3c-0.4,0.2-0.8,0.3-1,0.2c-0.8-0.2-0.7-0.4,0.1-0.5c1.3-0.2,1.9-1.1,1-1.4
		C169.9,147.5,169.9,147.5,169.2,147.7 M163.6,149.2c-1.5,0.6-1.2,2.7,0.8,5.1c0.6,0.7,1.6,2.3,2.3,3.4c2.2,3.7,3.5,5.1,4.8,5.3
		c0.7,0.1,0.7-0.1,0.1-0.8c-0.7-0.8-1.9-3.5-1.9-4.3c0,0,0.3,0.2,0.7,0.6c2,1.9,1.4-0.4-0.7-2.7c-1.4-1.5-2.4-3-2.8-4.2
		c-0.2-0.7-0.3-0.8-0.6-0.7c-0.7,0.2-2,0.1-2.2-0.2c-0.2-0.4,0.1-0.6,0.9-0.6c0.4,0,0.6-0.1,0.7-0.3
		C166.1,149.3,164.7,148.8,163.6,149.2 M300.2,152.3c-0.2,0.6,0,0.7,2.9,0.8c8.9,0.3,16.7,5.4,20.9,13.8c1.6,3.1,1.5,3.1-1.6-0.1
		c-3.2-3.1-5.8-5.2-9.2-7.3c-3-1.8-5.1-3.2-6-4c-1.8-1.6-1,0.7,1.9,5.3c4.5,7.2,6.9,12.5,8,17.7c0.5,2.1,0.3,1.9-0.6-0.7
		c-2.5-7.4-7.2-13.3-13.6-17.3c-2-1.2-1.9,0,0.1,1.3c4.8,3.1,8.7,7.5,11.1,12.7c0.9,1.9,1.4,3.2,1.2,3c-1.9-1.2-2.5-1.7-2.9-2.4
		c-1.3-2.1-6.8-6.6-7.8-6.4c-0.8,0.1-0.4,0.7,1.2,1.7c2.6,1.7,6.3,5,5.1,4.5c-1.9-0.7-5.3-1.7-5.3-1.4c0,0.1,0.2,0.3,0.5,0.5
		c3.4,2.5,6.7,7.3,8.2,11.9c0.5,1.4,1.1,4.5,1,4.6c0,0-0.6-0.7-1.3-1.7c-4.1-5.7-7.9-8.7-12-9.6c-1.8-0.4-1.8-0.4,0,1.4
		c6.8,6.6,10.9,15.7,11.6,25.5l0.1,1.6l-0.6-1.2c-1-2-3.5-4-5.5-4.5l-0.5-0.1l0.4,0.5c1.2,1.6,1.9,2.6,1.8,2.7
		c0,0.1,0.1,0.8,0.3,1.5c2.5,8.8,0.1,19.3-5.9,26.1c-1,1.2-1.2,1.7-0.7,1.9c0.7,0.3,3.8-3.9,5.5-7.2c2.7-5.5,3.7-11,3-17.2
		c-0.1-1.1,0.2-0.5,0.6,1.4c1,4.3,0.6,9.5-1.1,13.3c-0.7,1.7-0.6,1.7,0.7-0.1c6-8.5,8.8-19.9,7.4-29.9c-0.1-1-0.2-1.9-0.2-1.9
		c0.2-0.2,3.2,10.9,3.8,14.1c0.7,4,0.3,13.4-0.7,16c-0.1,0.2-0.3-1.1-0.7-3.2c-0.3-1.9-0.6-3.5-0.7-3.5c-0.1,0-0.4,0.7-0.8,1.5
		c-3.6,7.2-8.6,14.2-14.9,20.6c-1.4,1.5-2.5,2.6-2.4,2.6c0.1-0.1,1.3-0.5,2.6-1c1.3-0.5,2.4-0.9,2.5-0.9c0.1,0-0.2,0.4-0.5,0.8
		c-2.1,3-3.1,8.1-2.4,12.1c0.3,1.9,0.6,2.5,0.6,1.3c0-3.8,2.1-6.6,7.2-9.6c2.9-1.7,6.2-4.6,10.1-8.7c4-4.3,5.8-7.4,6.5-11.3l0.2-1.3
		l2.1,3.9c2.5,4.6,2.4,4.6,2.3,0.2c-0.2-4.7-1-9.1-2.4-13.3c-0.4-1-0.6-1.9-0.6-1.9c0,0,0.2,0.1,0.4,0.2c1,0.7,3.8,1.5,5.8,1.8
		l0.7,0.1l-0.6-0.7c-2.7-3.1-4.9-9.6-5.5-16.5c-0.8-9.3-4.1-16.6-10.7-24.1c-0.9-1-0.9-1,1.3-0.1c2.1,0.9,4.7,2.7,6.2,4.6
		c0.7,0.9,0.9,0.7,0.7-0.6c-0.1-0.8-1-3-1.5-3.6c-0.1-0.1-0.5-1.1-0.8-2.2c-3.2-9.6-11-16.6-20.3-18.2
		C304.2,152,300.3,152,300.2,152.3 M188.6,152.8c-0.5,1.2,1.6,5.7,2.5,5.6c0.3,0,0.4-0.1,0.3-0.6c-0.1-0.7,0.2-1,0.8-1
		c0.8,0,1.9-0.3,2.3-0.7c0.4-0.5-0.1-0.9-1.4-1.1c-1.6-0.3-1.9-0.5-3-1.4C188.9,152.5,188.7,152.4,188.6,152.8 M209,160.8
		c1.1,3.7-0.6,7.3-5.7,11.6c-1.2,1.1-2.5,2.3-2.9,2.8c-0.7,0.9-0.8,0.9-1.1-0.6c-0.1-0.8-0.3-0.8-0.7,0.1c-0.6,1.3-0.7,2.5-0.7,8.3
		c0,8.2-0.5,10.8-2.9,13.8l-0.9,1.1l0.7-0.4c0.6-0.3,3.2-1.4,3.3-1.4c0,0,0,0.1,0,0.1c-0.1,0.2-0.4,3.2-0.7,7.1
		c-0.5,6-1.9,8.8-5.5,10.5c-0.7,0.3-1.2,0.6-1.2,0.7c0.1,0.1,3.8-0.6,5.4-1.1c0.9-0.3-1.6,2.5-3.2,3.5c-1.3,0.8-1.2,0.7-0.5,0.8
		c1.3,0,4,1.8,4.7,3.2c0.4,0.8,1.2,3.2,1.1,3.3c0,0-1.5-1-3.2-2.3c-2.9-2.2-9.7-7-9.9-7c-0.4,0,0.5,3,1.2,4.3
		c0.2,0.4,0.4,0.8,0.4,0.8c0,0-1.7-0.8-3.8-1.8c-6.9-3.3-10.1-3.7-13.7-1.6c-1,0.6-0.9,0.7,0.2,0.2c1.3-0.6,3.8-0.5,5.1,0.1
		c1.7,0.8,1.7,0.9,0.5,1.5c-0.9,0.5-2.9,2.3-2.7,2.4c0,0,0.5,0,1.1-0.1c3-0.4,5.8,1.1,7.2,3.8c0.7,1.5,0.7,1.5-0.7,1.2
		c-1.6-0.3-1.9-0.2-1,0.4c3.4,2,4.1,6.2,1.7,10.9c-0.4,0.8-0.5,1.1-0.3,1.1c1.7,0,5.6,3.2,7.1,5.8c0.3,0.6,0.7,1,0.7,1
		c0.2-0.1,0.8-1.9,0.8-2.4c0-0.9,0.1-0.9,2.2,0c4.7,2,7.9,4.6,9,7.7c0.5,1.4,0.5,1.2,0.3-1.3c-0.1-1.2-0.1-2.2-0.1-2.2
		c0.1-0.1,1.1,0.9,1.6,1.6l0.3,0.4l0-0.8c0-2.8,2.1-5.7,5.9-8.1c4.1-2.7,5-3.3,6-4.3c0.6-0.6,1.3-1.4,1.6-1.8
		c0.3-0.4,0.6-0.8,0.8-0.8c0.3,0,2.6,2.2,3.2,3c0.6,0.9,0.6,0.9,0.3-1.8c-0.1-1.3-0.3-4-0.4-6.1c-0.1-4.1-0.1-3.8,1.2-8.3
		c0.5-1.7,0.8-3.4,1.2-7.3c0.3-3.1,0.9-5.3,1.7-6.9c0.8-1.7,0.5-1.3-1.4,1.5c-2.2,3.2-3.3,5.2-3.9,6.9l-0.5,1.3l-0.1-0.9
		c-0.3-2.2-1.3-4.9-2.7-7c-0.9-1.4-1-1.4-0.7,0.2c1,4.7,0.2,12.1-1.6,17l-0.6,1.4l-0.7-2.8c-0.7-2.8-0.9-3-1.1-1.6
		c-1,6.4-6.4,14.4-10.7,16c-2.9,1.1-4.3,0.4-5.6-2.8c-0.3-0.8-0.7-1.6-0.9-1.8c-0.4-0.5-0.4-0.5,0.5-0.7c1.8-0.2,3.1-1.9,7.6-9.2
		c4.9-8.1,5.5-12.9,2.8-23c-0.7-2.8-0.8-4.1-0.2-6.2c0.9-3.3,2.7-7.5,3.5-8.1l0.4-0.4h-0.4c-0.9,0-3.2,1.4-5.6,3.5
		c-1,0.9,4-9.8,7.5-15.9c1.3-2.3,1.2-2.2,2.3-1.8c3.7,1.4,6.7,4.9,7.6,8.8c0.3,1.6,0.3,1.6,1.2-0.3c3.2-6.7,2.9-12.8-0.6-16.4
		c-1.2-1.2-2-1.6-1.4-0.7c0.7,1.1,0.9,3.1,0.4,4.4l-0.3,0.7l-0.4-0.9c-1.2-2.9-4-5.1-8-6.2c-0.6-0.2-1.1-0.3-1.3-0.4
		C208.9,160.4,208.9,160.4,209,160.8 M280.6,176.6c-1.8,4.1-0.7,10,3.4,18.7c3.8,8,4.8,12.2,3.6,15c-0.2,0.4-0.4,0.8-0.4,0.9
		s0.4-0.3,0.8-0.7c1.8-1.8,4.2-1.8,6-0.1c0.8,0.8,0.9,1.1,0.2,0.7c-0.7-0.4-2.3-0.3-3.3,0.2c-1.9,0.9-2.7,2-4.3,5.7
		c-1.8,4.4-3.6,7.6-5.8,10.2c-1.1,1.3-1.1,1.3-0.3,1.1c1.8-0.5,3.6-1.7,4.7-3.2c0.8-1,0.8-1-0.2,1.8c-1.8,5-5.4,11-8.6,14.6
		c-1,1.1-0.9,1.1,0.5,0.6c3.6-1.2,6.8-3.8,8.8-7.1l0.9-1.4l0.4,1c0.4,1.1,1.8,3.8,2.1,4.3c0.2,0.3,0.3-0.1,0.3-3.4
		c0.1-5.3,0.6-8,2-10.9c1-2.1,1-2.1,1.1,0.4c0.2,2.9,1,7.5,1.4,7.8c0.1,0,0.1-1.5,0.1-3.3c0-4.8,0.8-7.9,3.2-13c2-4.1,2.2-5.6,1-8.3
		c-2.5-5.9-6-11.9-11.7-20.4c-2.9-4.3-4.4-7.1-5.1-9.5C280.9,175.7,280.9,175.8,280.6,176.6 M162.5,194.7c-1.3,0.3-2.1,1.2-2.6,3.2
		c-1,3.9-1.6,4.6-3.1,3.9c-0.8-0.4-1.1-1.3-1-3.4l0-1.9l-0.5-0.4c-0.7-0.6-1.7-0.5-6.9,0.5c-7.2,1.4-8.5,2.4-8.5,6.1
		c0,2.5-0.4,3.2-1.4,2.2c-0.9-0.9-1.3-1.7-1.3-2.9l0-1h-0.6c-2.8,0-7.1,1.7-11.9,4.7c-3,1.9-3.2,2.2-3.1,4.4c0,1.4-0.2,1.9-0.8,2.1
		c-1.1,0.3-1.9-0.7-1.5-1.8c0.9-2.4,0.5-2.5-4-0.3c-5,2.4-5.3,2.7-5.6,4.9c-0.3,2.6-1.9,3.1-2.4,0.8c-0.4-1.7-0.3-1.7-3.1-1.2
		c-1.4,0.3-2.9,0.2-4.3-0.2c-2.5-0.7-3.5-0.3-4.4,1.3l-0.5,0.9l-0.3-0.5c-0.5-0.9-0.3-1.9,0.5-2.9c0.5-0.6,0.5-0.7-0.3-1.5
		c-2-2.2-3.3-5.5-3.7-9.5c-0.3-3.2-0.9-4.3-2.2-4.3c-2.8,0-4,7.9-2.2,13.6c1.1,3.3,2.7,5.1,6.3,6.9c1.1,0.5,1.2,0.8,1.2,2
		c0,0.6,3.4,1.5,7.1,1.7c3.6,0.2,5.1-0.1,6.2-1.4c0.5-0.6,0.5-0.7,2-0.8c3.6-0.3,7.1-1.7,9.6-4l0.8-0.7l1.9-0.1
		c2.2-0.1,2.2-0.1,9.5-2.9c4.8-1.8,5.9-2.4,7-3.7l0.8-0.9l0.7,0.3c2.6,0.9,12.3-0.4,15.8-2.1l0.6-0.3l0.9,0.9
		c2.2,2.2,5.3,2.9,11.6,2.5c3.5-0.2,3.1-0.3,4.7,1.1l0.9,0.8l2.1,0c4.4,0,6.5-1.1,9.3-5.2c0.6-0.9,1.2-1.7,1.2-1.8
		c0.2-0.3,0.2-0.2-2.3-2c-5.7-4.1-8.6-3.7-11.6,1.7l-0.5,0.8l-0.1-0.5c-0.6-2.1,0.2-4.9,2-6.5l0.8-0.8l-0.5-0.1
		c-0.7-0.1-10.5-1.4-11.4-1.5C163.5,194.6,162.9,194.6,162.5,194.7 M164,221.2c-0.6,0.2-2.4,1-3.9,1.8c-2.1,1-3.2,1.5-4.4,1.8
		c-2,0.5-2.5,0.8-3.4,1.9c-1.3,1.6-3.7,4-5.6,5.4c-2.9,2.2-2.9,2.2-4.4,6.8c-0.6,1.8-1.3,3.8-1.7,4.6c-0.6,1.2-0.7,1.6-0.7,2.5
		l0,1.1l0.7-0.1c0.9-0.1,1.5,0.3,2.1,1.4c1.1,2,1.5,1.6,2.3-2.3c0.7-3.9,3.7-9.3,5.8-10.3c0.5-0.3,1.4-0.9,2-1.3
		c1.3-1,1.3-1,0.8-0.1c-0.2,0.4-0.6,1.3-0.8,2.1c-0.6,1.8-1.2,2.6-2.7,3.9c-3,2.4-3.9,4.3-3.1,7c0.3,1,0.3,1-0.1,1.6
		c-0.5,0.7-0.4,0.8,0.4,1c1.4,0.4,2.6,1.9,2.6,3.4c0.1,1.5,1.3,1.1,2.2-0.7c1.1-2,1.4-4.4,0.9-6.6c-0.4-1.9-0.5-1.7,2.5-4.9
		c3.5-3.7,4.5-4.4,5-3.5c0.3,0.5-0.5,1.7-1.9,2.9c-0.7,0.6-1.5,1.3-1.8,1.7l-0.5,0.6l0,2c0,2-0.1,2.7-0.7,3.9
		c-0.3,0.6-0.3,0.6,0,0.5c1.3-0.7,2.6,0.4,3.1,2.6c0.4,2.1,2,0.7,2.2-1.9c0.1-1.1,0.2-1.4,0.8-2.3c0.8-1.4,0.6-2.7-0.4-2.7
		c-0.9,0,0.4-1.5,2-2.3c1.3-0.7,1.9-1.3,2.3-2.5c0.5-1.4,1.5-2.1,2.1-1.5c0.2,0.2,0.3,0.3,0.3,0.2c0,0,0.3-0.6,0.6-1.2
		c0.5-1,2.6-3.3,2.8-3.1c0,0-0.3,0.7-0.8,1.5c-1,1.7-1,1.6,0.1,1.7c1.1,0.1,1.8,0.5,2,1.3l0.2,0.6l0.2-0.8c0.4-1.4,1.5-3.4,2.7-4.6
		c1-1,1.1-1.2,1-1.6c-0.1-0.3,0-1,0.1-1.8c0.6-3.6-0.4-4.1-4.8-2.2l-1.1,0.5l0.3-0.5c0.7-0.9,3.3-3.2,4.8-4.2
		c1.9-1.3,1.8-1.4-0.8-1.3c-2.9,0.1-5.3,1-8.8,3.4c-1,0.7-1.9,1.2-1.9,1.2c-0.5-0.5,3.4-4.9,4.8-5.4c0.4-0.1,0.2-0.3-0.5-0.7
		C167.4,220.7,165.5,220.7,164,221.2 M168.9,239.7c-1.7,1.1-2.1,3.6-1.2,7.1c0.8,3,0.9,3,1.5-0.3c0.3-1.6,0.6-2.4,1.6-3.9
		C172.1,240.5,170.7,238.5,168.9,239.7 M286.2,243.9c-0.9,0.6-3.7,3.7-4,4.5c-0.3,0.7-0.3,0.9-0.2,2.8c0.3,4,0.1,4.7-2.2,7.4
		c-1.7,2.1-2.2,2.8-3.6,6.2c-1.7,3.9-2.3,4.9-4.3,6.2c-1.8,1.2-2.1,1.8-2.6,4.6c-0.3,1.7-0.7,3.1-1.4,4.4c-0.3,0.7-0.3,0.7-0.1,0.8
		c1.5,0.5,2.6,1.5,2.8,2.5c0.4,1.7,1.4-2,1.4-5.2c0-2.6,0.7-4.4,2.4-6.4c1.3-1.4,1.6-1.4,1.8,0.4c0.2,1.8-0.3,3.8-2,7.4
		c-1.8,3.9-2.2,5.4-2.2,8.5c0,2.4,0,2.3,0.8,1.9c1.1-0.6,2.1-0.4,3.1,0.4l0.4,0.4l-0.1-0.7c-0.8-5.7,0-9,3.7-15.4
		c1.2-2.1,3.9-4.8,4.3-4.3c0.2,0.2-0.9,2.6-1.6,3.6c-0.4,0.6-1,1.4-1.2,1.7c-0.4,0.6-0.5,0.9-0.6,2.5c-0.1,1.6-0.2,2-0.6,3
		c-1.1,2.4-1.3,4.4-0.8,7.3c0.5,2.6,0.7,3,1.8,2.6c1.2-0.3,1.9,0,2.8,1.4l0.4,0.7l0.5-1.5c0.7-2.2,2.8-12.2,2.8-13.3
		c0-0.5-0.9,0.9-1.7,2.6c-1.2,2.5-2.8,5-3,4.7c-0.5-0.7-0.1-3.6,1-6.7c1.2-3.8,2-4.9,5.1-7.1c1-0.7,2.2-1.6,2.6-1.9l0.7-0.6l0.4,0.9
		c1.6,4,1.5,7.5-0.2,9.2c-1.7,1.6-2.4,4.4-1.1,4.4c0.2,0,0.6-0.4,1-0.8c0.9-1,0.9-1,1.8-0.2c1,0.9,1.2,0.7,1.4-1.5
		c0.1-1,0.2-2,0.3-2.4c0.1-0.4,0.3-1.9,0.4-3.5c0.3-3.5,0.5-4.4,1.6-6.9c1.7-4.1,1.8-6.4,0.7-13.1c-0.4-2.3-0.7-4.9-0.8-6
		c-0.1-2.2-0.1-2.1-1.1-1.1c-2.1,2.1-2.6,5.4-1.7,9.7c0.5,2,0.4,2.1-0.2,1.7c-1.1-0.7-2.6-4.9-2.8-8c-0.1-1.8-0.1-1.8-1-0.7
		c-1.3,1.7-1.9,3.2-2.4,6.2c-0.1,0.5-0.3,1.2-0.5,1.5l-0.4,0.6l-0.2-4.2c-0.1-2.3-0.3-4.2-0.3-4.3c-0.1-0.1-0.9,0.7-1.7,1.7l-0.8,1
		l0.1-1.3c0.1-1.7,0.6-3.5,1.6-5.8C287.9,243.8,287.8,242.8,286.2,243.9 M362.8,244.7c-0.1,0.2,0.2,2.6,0.6,4.1
		c0.8,2.9,2.3,5.9,4.3,8.2l0.7,0.8l-1.1-0.2c-1.5-0.3-3.5-0.2-4.2,0.2c-1.6,0.9,0.8,7.7,4.6,12.7c1.3,1.7,1.6,2.3,1.1,2.3
		c-1.4,0-5.9-8.3-6.8-12.5l-0.3-1.3l-0.3,0.9c-0.7,2.4,0.1,6.3,2.5,11.8c1.3,2.9,1.7,4.3,1.8,6.6l0.1,1.7l-0.5-0.6
		c-0.6-0.7-1.5-1.2-2.5-1.4c-0.9-0.1-0.9-0.1,0.2,1.3c1.4,2,3.1,6.5,2.7,7.1c-0.3,0.4-0.7,0.1-0.8-0.6c-0.4-2.3-2.8-7.3-3.8-7.6
		c-0.3-0.1,0,2.5,0.6,4.1c2,6.1,2,13.5,0,19.4c-0.5,1.6-0.7,1.8-1,1.9c-0.5,0.1-0.5,0.2,0.2-1.9c1.8-5.4,2-11,0.7-16.8l-0.4-1.6
		l-0.2,2.2c-0.5,4.6-1.7,9.3-3.5,12.8c-0.5,1-0.9,1.7-0.8,1.5c1.8-5.9,2.4-15.4,1-14.6c-0.2,0.1-0.3,0.7-0.3,3.3
		c-0.1,5.4-1,9.6-2.9,14.2l-0.8,1.8l-0.1,4.8c-0.1,4.6-0.1,4.8-0.4,4.8c-0.3,0-0.3-0.1-0.4-4c0-2.2-0.1-4-0.2-4
		c-0.1,0-0.2-0.3-0.2-0.6c-0.1-0.9-0.9-2-1.8-2.6l-0.7-0.5l-0.2,0.6c-0.4,1.7-0.2,12.5,0.3,15l0.1,0.5l-0.9-0.1
		c-1.3-0.1-2.5-0.6-2.9-1.1c-0.5-0.6-0.8-0.4-1.3,0.9c-2,5.6-7.2,10.1-13.2,11.6c-1.7,0.4-1.9,0.5-1.9,0.9c0,0.5,0.9,0.5,3-0.1
		c4.8-1.4,8.9-4.6,11.7-9.1c0.8-1.2,0.8-1.1,0.3,2c-0.8,5.4-3.8,8.1-12.3,11.3c-0.8,0.3-1.6,0.6-1.7,0.7c-0.3,0.3,3.9,0,5.3-0.4
		c0.7-0.2,1.3-0.3,1.3-0.3c0.4,0.4-4.3,6-6.2,7.5c-1.3,1-1.3,1-0.2,1.2c4.6,0.7,6.5,0,9.3-3.3c1.8-2.1,2.9-3,6.9-5.9
		c8.3-6,12.2-11.8,12.9-19.2c0.3-3.3,0.7-4.3,2-5c1-0.5,2.7-0.1,2.9,0.7c0.2,0.6,0.3,0.5,0.8-0.5c1-2.2,1.1-4.3,0.5-9.4
		c-0.7-5.4-0.5-8.7,0.4-8.5c1.2,0.3,2.1,1.3,2.5,2.6l0.2,0.8l0.5-0.7c0.7-1.2,2.4-4.6,2.8-6.1c0.9-2.8,1.3-4.7,1.7-8.9l0.1-1.2
		l0.5,1.9c1,3.9,1.3,7.3,0.9,10.1c-0.1,1.1-0.1,1.2,0.2,1.3c1.9,0.7,1-9.3-1.4-16.8c-0.3-0.9-0.7-2.3-0.9-3.2c-0.3-1.3-1-4-1.5-5.1
		c-0.1-0.3,1.2-0.3,2.7,0.1c2.1,0.5,4.1,1.7,5.6,3.1c1.1,1.1,1.1,0.9-0.2-1.4c-3-5.2-5.4-8.1-8.6-10c-3.7-2.2-6.8-7.3-7.7-12.9
		C363.6,244.7,363.2,244.1,362.8,244.7 M139.3,248.6c-0.5,0.1-0.8,0.7-0.8,1.4c0,0.2-0.1,0.8-0.3,1.2c-0.3,0.9-0.2,3.1,0.1,4.2
		l0.2,0.7l0.1-1.3c0.1-1.5,0.4-2,1.7-3.3C142.3,249.6,141.7,247.9,139.3,248.6 M155.1,250.4c-0.9,0.3-1.9,3.3-2,5.3
		c0,1.2,0.9,4.5,1.1,4.2c0,0,0.1-0.7,0.2-1.5c0.2-1.8,0.5-2.4,1.7-3.9c1.5-1.9,1.6-3.1,0.4-3.9C156.1,250.2,155.7,250.2,155.1,250.4
		 M145.1,251.2c-0.6,0.7-2.1,3.4-2.7,5c-0.7,1.8-0.6,2.3,0.7,3.8c0.6,0.8,0.7,0.8,0.7-0.3c0-1.3,0.7-2.6,2.2-4.1
		c2-2,2.3-2.6,1.7-3.7C147,250.5,145.9,250.3,145.1,251.2 M177.3,255.2c-0.4,0.1-0.5,0.2-0.7,1.1c-0.7,2.3-1.1,3-4.4,5.7
		c-3.8,3.2-6.7,5.8-10.4,9.4l-3.4,3.4l-0.9-0.1c-2.6-0.3-4.8,1-9.6,5.4c-5.1,4.7-6.1,5.2-22.8,11.5c-3.7,1.4-9.8,3.7-13.5,5.2
		c-15,5.9-18,6.9-28.7,9.6c-25.5,6.4-28.1,7.4-30.1,11.7c-1.1,2.4-1.1,10.9,0,12.2c0.8,0.9,1.5-0.1,1.7-2.2c0.2-2.3,0.8-3.5,2.1-4.1
		c1.1-0.4,1.1,0,0.3,2.4c-1.4,4.1,0.2,11.2,2.8,12.5c1.9,1,4.1-0.5,6.5-4.3c1.4-2.2,2.5-3.3,3.7-3.7c1.6-0.6,3.4-0.2,3.1,0.7
		c-1.4,5.6,1.6,11.2,7,13.1c3.2,1.1,4.7,0,4.6-3.5c0-3,0.5-4.2,1.8-4.2c1.4,0,1.9,1,2.2,3.9c0.3,3.9,1.9,4.7,9.6,5
		c2.4,0.1,4.5,0.2,4.6,0.2c0.2,0.1,0.2,0,0.1-1c-0.5-3.7,0.7-6.4,3.1-7.1c2.2-0.6,3.7,0.9,3.7,3.8c0,3.5,1.4,4.4,8.4,5
		c6,0.6,8.4,0.3,9.4-1.1c0.5-0.7,0.4-1.2-0.4-3.9c-0.9-2.8-0.9-2.8,0.3-2.8c1.8,0,3.1,1.1,5.1,4.5c2,3.3,3.1,3.7,9.3,3.4
		c5.5-0.3,5.5-0.3,7.1-4.5c1.6-4,2.1-4.8,3.5-4.8c0.9,0,1.6,0.8,2.2,2.7c1.5,4.8,5.3,7.1,11.7,7.1c7.1,0,10.4-3.8,7.5-8.8
		c-1.3-2.2-1.4-3.7-0.4-4.6c1.4-1.2,2.8-0.1,3.6,2.8c1.6,6,4.8,6.8,13.2,3.3c4.1-1.7,5.7-2.1,6.2-1.5c0.6,0.7,0.2-0.1-0.8-1.6
		c-3.9-5.9-3.7-11.2,0.4-13.2c1.4-0.7,1.4-0.7,1.7,0.5c1.7,6.2,8.6,10.1,11.7,6.7c1.2-1.3,1.2-1.2-0.4-3.9c-3-5.2-4.3-8.4-5.3-13.1
		c-0.2-1.1-4,0.9-9.1,4.7c-17.1,12.9-37,16.8-78.4,15.6c-18.9-0.6-21.7-0.9-30.6-3.1c-2.4-0.6-5.2-1.3-6.2-1.5c-4.9-1-6-2.1-8-7.7
		c-1.5-4.3-2.7-5.5-5.8-5.5c-1.6,0-1.5-0.1,0.7-0.9c2.8-1,4.4-0.8,7,1c2.6,1.7,3.4,1.7,6.7,0.4c2.3-0.9,11.3-2.9,15.5-3.5
		c3.7-0.5,5.1-1.3,5.1-2.9c0-1.7-2.1-3.9-4.5-4.5c-1.5-0.4-0.9-0.7,2-1c5.6-0.6,8.6,0.4,10.1,3.4c1,2.1,3,2.1,8.8,0.1
		c3.8-1.3,4.7-1.8,5.6-2.5c1.8-1.6,1.7-4.3-0.3-6.9c-0.9-1.2-0.9-1.3,0.6-1.3c2.6,0,5.1,2.3,5.1,4.6c0,1.6,0.6,1.7,3.5,0.7
		c5.3-1.9,10.1-4.1,11.5-5.4c2.3-2.1,2.5-5.1,0.3-6.6c-1.5-1.1-1.7-1.9-0.7-2.9c2.7-2.6,9.3,0.6,9.4,4.5c0,0.9-0.3,1,4.3-1.9
		c5.6-3.6,6.8-4.9,6.7-7.3c-0.1-2.1-2-4.2-3.7-4.2c-0.7,0-0.1-1.2,0.8-1.6c3.7-1.6,8,1,8.4,4.9c0.1,0.6,0.1,1,0.2,1
		c0.2,0,3.1-1.9,4.1-2.6c0.5-0.4,2.2-1.6,3.8-2.7c6.6-4.5,8.3-6.9,7.7-10.8c-0.4-2.3-1.3-3-4.5-3.3c-2.6-0.3-2.6-0.2-1.3-0.8
		c2.9-1.3,6-0.9,8.7,1.2c0.9,0.7,1.7,1,2.4,0.8c0.4-0.1,2.8-2.8,3.9-4.4l0.7-1l-1.8-1C187.6,256.2,180.9,254.6,177.3,255.2
		 M219.5,269.1c-11.8,13.4-16.7,28.4-14.1,42.9c0.3,1.7,0.4,1.8,0.8,0.5c0.6-2,2.2-4.4,2.9-4.4c0.1,0,0.2,0.9,0.4,2
		c0.8,7.6,1.7,10.4,5.2,15.7c1.2,1.8,2.3,3.7,2.5,4.3s0.4,1,0.4,1c0,0,0-0.6,0-1.3c0-1.6,0.8-3.6,1.1-2.7c0.3,0.9,1.6,3.2,3.3,5.5
		c1.7,2.4,5.5,8.6,6.8,11c0.9,1.8,1.1,3.1,1.1,6.1c0,2.5,0.3,4.8,0.7,5c0.2,0.1,1.5-1.9,2.1-3.4l0.5-1.2l0.2,1.1
		c0.1,0.6,0.3,1.7,0.4,2.5c0.3,1.8,0.3,1.9,1,0.7c0.9-1.5,1.2-2.6,1.2-4.3l0-1.5l0.9,0.9c3.1,2.9,6.8,3.7,6,1.2
		c-0.6-1.7-0.8-5-0.4-5c0,0,1.1,0.2,2.4,0.5c3.6,0.8,4.3,0.5,7-3.3c0.7-1,1.3-1.8,1.3-1.9c0.1-0.1-0.4-0.7-1.1-1.5
		c-1.4-1.5-3.4-4-5.7-7.4c-2.1-3.1-3.3-4.5-6-7.4c-10.7-11.6-14.3-18.3-15.6-28.7c-0.2-1.3-0.3-2.3-0.4-2.2c-0.1,0.1-0.6,1.9-1.1,4
		c-0.6,2.1-1.1,3.9-1.1,4c-0.1,0.3-0.9-1-1.6-2.6c-2.1-5-1.9-16.9,0.6-29.5c0.3-1.4,0.5-2.6,0.4-2.6
		C221.4,267,220.5,267.9,219.5,269.1 M268,282.8c-0.6,0.1-1.3,1.1-2.1,2.9c-1.1,2.4-1,3.1,0.7,6.1c0.9,1.6,1,1.5,0.6-0.1
		c-0.4-2-0.2-2.9,1.2-4.5c1.4-1.7,1.8-3.3,0.9-4C268.8,282.7,268.7,282.7,268,282.8 M293,284.9c-0.7,0.4-1.4,2.4-1.2,3.6
		c0.1,0.9,1.5,6.5,1.5,6.5c0.2,0.2,0.2-0.3,0.4-2.8c0.1-1.9,0.3-2.9,0.5-3.7C295.2,285.8,294.7,284.1,293,284.9 M273,292.2
		c-1.2,1.4-1.4,5.6-0.4,8.6c0.5,1.6,0.6,1.6,1.1-1.8c0.1-0.7,0.5-1.7,0.9-2.7c1.2-2.3,1.2-3.2,0.5-4
		C274.6,291.8,273.4,291.7,273,292.2 M280,293.4c-0.7,0.4-0.9,1.1-0.9,3.5l0,2.2l1,2c1.5,3,1.7,2.7,1.2-3.3l-0.1-1.3l0.7-0.7
		c0.9-1,1-1.3,0.5-1.9C281.9,293.3,280.5,293.1,280,293.4 M321.9,345.5c-4.9,1.4-5.6,4.3-2.6,10.5c2.3,4.8,2.9,5.2,10.8,7
		c2.5,0.6,4.7,1.1,4.8,1.2c0.6,0.2,0-0.3-1.2-1c-3.1-1.8-5.1-3.6-6.1-5.7c-0.9-2-0.5-2.9,1.7-3.8c2.1-0.8,2.3-1.1,1.6-2.4
		C328.4,346.7,325.3,344.6,321.9,345.5 M333,345.6c-1.6,1.2,1.4,7.3,4.4,8.8c1.5,0.7,2.4,0.9,6.3,0.8l3.7,0l2.2,0.6
		c2.9,0.9,4.9,0.9,7.3,0.2c2.5-0.8,3.4-0.8,6.2,0c3.1,0.8,4.1,0.8,6.3-0.2c1.3-0.6,1.7-0.7,3.3-0.9c1.6-0.2,2.5-0.4,2.8-0.8
		c0-0.1-0.5-0.2-1.2-0.3c-1.5-0.2-3.8-0.8-4.2-1c-0.5-0.3,3.1-0.1,5.9,0.3c3.6,0.5,8,0.4,7.1-0.1c-1.1-0.7-5.1-1.4-8.7-1.6
		c-2.5-0.1-2.8-0.3-1.6-0.8c0.9-0.4,2.4-0.3,7.2,0.6c5,0.9,5,0.9,3.8,0.1c-4.9-3.1-9.9-3.5-16.2-1.1c-4.2,1.6-4.9,1.6-8.6,0.6
		c-2.4-0.7-3.2-0.7-6.2-0.3c-5.3,0.7-8.1,0.1-13.2-2.6C334.1,345.1,333.8,345,333,345.6 M387.6,350.3c-1.4,0.7-3.4,2.2-3.1,2.3
		c0.1,0,0.3-0.1,0.5-0.2c0.6-0.6,1.9-0.5,3.6,0.1c1.9,0.8,8.7,2.3,8.9,2c0.3-0.3-7.4-4.9-8.2-4.9
		C389.2,349.6,388.4,349.9,387.6,350.3 M385.5,353.7c-1.5,0.6-3.7,1.4-3.8,1.3c-0.3-0.3-0.7,0.7-0.4,1.2c0.2,0.3,0.5,0.9,0.8,1.4
		c0.7,1.3,1.5,1.6,2.5,0.8c1.7-1.3,4-1.2,8.7,0.4c1.6,0.5,1.6,0.5,0.9-0.5c-0.7-1-2.4-2.3-5-3.7
		C386.9,353.2,386.7,353.2,385.5,353.7 M231.2,355.6c-0.2,0.1-0.2,0.3-0.1,0.6c0.7,2.8-3.7,5.4-12.5,7l-3.3,0.6l-1.5-0.3
		c-2.5-0.5-3.6-0.2-5.2,1.2c-1.7,1.6-1.5,2.9,0.8,3.5c1.8,0.5,2.7,1.3,3.2,2.8c0.4,1.2,0.9,0.6,1.5-1.7c0.5-2.1,4.9-4.7,6.8-3.9
		c0.9,0.4,1.1,0.9,0.7,2.2c-0.6,2.2-0.5,2.5,0.8,1.3c1.1-1,1.8-0.8,3.1,0.7c0.5,0.6,0.8,0.8,0.9,0.7c0.3-0.3,1.1-2.4,1.2-3.2
		c0.1-0.7,0.2-0.9,0.6-1c0.6-0.2,0.6-0.3,0.5,2.2c-0.1,1.2-0.1,2.2,0,2.2s0.4-0.3,0.8-0.7c1.6-1.4,2.8-1.6,4.4-0.8
		c0.5,0.2,1,0.4,1,0.4c0,0-0.1-0.6-0.3-1.4c-0.3-1.1-0.3-1.6-0.2-2c0.4-1.4,1.8-1.6,2-0.3c0.5,3.3,1.9,5.1,2.6,3.4
		c0.8-1.8,4.2-1.4,6.4,0.8c1.1,1.1,1.3,1.2,1.3,0.5c0-0.8-0.3-1.4-1.5-2.6c-1.1-1.1-1.2-1.3-1.1-1.7c0.2-1.1,2-2.4,2.3-1.8
		c0.2,0.3,1.3,1.4,2.7,2.7c0.9,0.9,1.1,1.3,0.7,2.5c-0.5,1.5-0.4,2,0.2,1.1c1.1-1.7,2.3-2.3,4.4-2.2c1.6,0,1.8-0.1,1.6-1.2
		c-0.1-0.7-0.7-1.2-3.2-3c-1.2-0.9-2.2-1.7-2.6-2.2c-0.9-1.2-3.3-3.5-4.1-3.9c-0.9-0.5-6.5-2.8-6.5-2.7c0,0-0.2,0.4-0.4,0.9
		c-0.5,0.9-1.5,2.2-1.5,1.8c0-0.4-1.2-2.9-1.4-2.8c-0.1,0-0.8,1-1.6,2.1c-1.9,2.5-1.9,2.5-1.9,1.2
		C232.7,356.6,232,355.1,231.2,355.6 M374.3,356.5c-0.3,0.1-1.3,0.4-2.1,0.8c-0.8,0.3-1.8,0.6-2.1,0.7l-0.5,0.1l0.3-0.4
		c0.3-0.3,0.3-0.4,0.1-0.4c-1.4,0-1,1.5,1,3.5c1.4,1.4,1.2,1.4,2.7,0c2.5-2.3,3.8-2.2,8,0.9c2.6,1.9,2.2,1.2-1.3-2.3
		C377.8,356.7,376.3,356,374.3,356.5 M205.5,368.8c-1.3,0.6-3.8,4-6.3,8.4c-0.7,1.3-0.7,1.6,0,0.9c3.5-3.8,5.1-4.8,8.3-4.9
		c3.5-0.2,3.7-0.3,3-1.9C209.5,369,207.4,368,205.5,368.8 M252.8,369.9c-0.4,0.3-0.5,0.5-0.6,1.7l-0.1,1.4l-1,1.1
		c-1.6,1.6-1.4,1.8,1,1c2.7-0.9,4.8-2.3,4.8-3.2C256.9,370.5,253.8,369.1,252.8,369.9 M239.8,370c-2.7,1.5,2.1,7.7,7,9
		c1.2,0.3,1.3,0.2,0.6-0.4c-3.1-2.6-3.2-2.8-2.8-3.9c0.3-0.8,0.3-2.2,0-2.9C244.1,370.4,241.1,369.3,239.8,370 M223,370.7
		c-2,2.3-3.1,7.1-2.3,10.1c0.4,1.6,0.7,1.4,2.1-1.3c0.7-1.3,1.2-2.1,1.8-2.7c1-1,1-0.7,0.1-4.1c-0.3-1.1-0.6-2.3-0.7-2.5
		C223.9,369.7,223.8,369.8,223,370.7 M230.6,371.4c-1.5,1.3-1.2,3.8,0.9,6.5c0.6,0.8,1.3,1.9,1.7,2.5c0.3,0.6,0.6,1.1,0.7,1
		c0,0,0.2-0.8,0.3-1.8c0.2-1,0.4-2.4,0.6-3.1C235.6,373,232.7,369.5,230.6,371.4"/>
</g>
</svg>
