<?xml version="1.0" encoding="utf-8"?>
<!-- Generator: Adobe Illustrator 22.1.0, SVG Export Plug-In . SVG Version: 6.00 Build 0)  -->
<svg version="1.1" id="svg" xmlns="http://www.w3.org/2000/svg" xmlns:xlink="http://www.w3.org/1999/xlink" x="0px" y="0px"
	 viewBox="0 0 410 410" style="enable-background:new 0 0 410 410;" xml:space="preserve">
<g id="svgg">
	<path id="path0" d="M322.5,84.3c-2,0.2-4.4,1-20.3,6.5c-36.7,12.7-65.6,25.2-70.6,30.3c-4.1,4.3-9.2,19.2-15.3,44.3
		c-1,4.2-2,8.2-2.2,8.9l-0.3,1.3h0.5c1.9,0,4.6,1.2,6.3,2.8l1.1,1.1l0.2-0.6c0.6-1.4,0.6-1.4-0.7-2.6c-0.7-0.7-1.6-1.3-2.3-1.7
		c-1.2-0.6-1.4-0.8-1.2-1c0.4-0.4,3.4,1.3,4.4,2.5c0.6,0.7,0.5,0.8,1.1-0.8l0.4-1.2l-0.4-0.6c-0.8-1-2.6-2-3.8-2.1
		c-0.7-0.1-0.8-0.8-0.2-0.8c1.1,0,2.9,0.8,4,1.9l0.7,0.6l0.6-2.1l0.6-2.1l-0.4-0.3c-0.2-0.2-0.8-0.4-1.3-0.5c-0.8-0.2-1-0.3-1-0.5
		c0-0.4,0.9-0.4,2,0c0.5,0.2,0.9,0.3,0.9,0.3s0.2-0.8,0.5-1.7l0.4-1.6l-0.4-0.1c-0.2-0.1-1-0.3-1.7-0.5c-1.1-0.3-1.4-0.5-1.4-0.7
		c0-0.4,0.4-0.4,2.1,0.1c0.8,0.2,1.5,0.4,1.5,0.3c0.2-0.2,2-7.8,4.6-19.6c3.7-17.1,3.3-16.1,7.1-17.8c44.8-21.1,60.2-28,76.2-34.4
		c7-2.8,8.3-2.9,13.8-1.4c21.5,5.9,48,16,75.8,29.1c1.6,0.7,2.9,1.3,3,1.3c0.4-0.4-5.2-6.2-8-8.3c-8.1-6.3-23.4-13.1-47.9-21.1
		C334.5,85.9,326.3,83.9,322.5,84.3 M160.1,103.2c-6.5,1.2-7.7,1.9-8.6,5.4c-0.7,2.7-0.3,5.2,1,6.6c1.1,1.2,1.3,1.1,2.2-1.1
		c0.9-2.1,2-4.1,3.1-5.3c1.1-1.3,1.9-1.7,5.7-2.5c1.6-0.3,1.6-0.3,0.7-1.5C163.2,103.4,161.8,102.8,160.1,103.2 M162.7,109.5
		c-4.5,1.2-7.4,5.6-5.8,8.7c3.2,6.2,3.6,7.2,5.3,14.5c0.8,3.3,1.8,6.7,3.1,11c2.8,8.8,3.6,11.6,5.4,18.6c4,15.7,7.7,28.6,11.8,40.9
		c4.7,14.3,4.9,15.6,6,30.6c2,26.8,4,51.3,6.3,76.7c0.8,9.3,1.2,11.9,2.7,21.7c3.7,24.1,3.4,32.7-2.1,53.9c-0.5,1.8-0.2,1.6,1.1-1.1
		c3.9-8.1,7.3-17.9,8.7-24.7c0.6-2.8,0.4-8.7-0.4-15.3c-3.7-29.8-6.7-68.7-8.4-112c-0.2-4.6-0.4-8.9-0.4-9.7
		c-0.1-1.5-0.1-1.7-4.6-14.8c-3.7-10.8-4.3-13.1-7-26.7c-3.8-19.1-5.7-27-10.5-43.2c-3.3-11.2-4.4-16.2-5-23.3
		C168.5,110.1,166.8,108.4,162.7,109.5 M153.4,118.6c-0.4,0.5-0.4,1.2,0.1,3.3l0.3,1.2l1.2,0.3c0.6,0.2,1.2,0.3,1.3,0.3
		c0.2,0,0-3.2-0.2-4C155.7,118.2,154.1,117.6,153.4,118.6 M154,124.2c0,0.4,0.4,2.1,0.6,2.2c0.1,0.1,1.9,0.5,2.1,0.6
		c0.1,0-0.1-1.9-0.3-2.3c-0.1-0.2-2-0.9-2.4-0.9C154.1,123.8,154,124,154,124.2 M184.3,124.5c-1.8,0.4-2.2,1-3.4,5.3
		c-1.7,6.5-2.2,10-1.9,13.1c0.2,2,0.1,1.8,1.6,2.4c1.7,0.6,3.2,1.5,4.2,2.4c0.5,0.4,0.9,0.8,0.9,0.8c0.1-0.1,1.4-3.7,1.4-3.8
		c0-0.7-2.7-2.7-4.1-3c-1.4-0.3-1.5-0.3-1.5-0.7c0-1.1,4.8,1,5.5,2.4c0.1,0.2,0.3,0.3,0.3,0.2c0.2-0.2,1.3-3.9,1.3-4.3
		c0-0.4-1.9-1.6-3.5-2.2c-2.1-0.8-2.1-0.8-1.9-1.1c0.2-0.5,2.5,0.2,4.6,1.5c0.8,0.5,1.2,0.7,1.3,0.5c0.3-0.8,1.3-4.3,1.3-4.4
		c0-0.3-1.3-0.9-2.5-1.2c-1.3-0.3-1.6-0.8-0.6-0.8c0.6,0,2.3,0.5,2.9,0.9c0.5,0.3,0.5,0.3,0.9-1.1
		C192.7,126.1,190,123.4,184.3,124.5 M154.8,127.7c0.9,3.7,0.6,3.3,1.9,3.7c1.1,0.3,1,0.5,0.6-1.8c-0.3-1.7-0.3-1.7-2-2.1
		C154.7,127.3,154.7,127.3,154.8,127.7 M156.1,133.3c0.2,0.8,0.4,1.9,0.5,2.5l0.2,1l1,0.2c1.2,0.3,1.2,0.5,0.6-2.1l-0.5-2.2
		l-0.7-0.3c-0.4-0.2-0.8-0.3-1-0.4l-0.4-0.1L156.1,133.3 M157,137.7c0,0.2,0.8,4.2,0.9,4.2c0.2,0.1,2.4,0.6,2.4,0.5
		c0.2-0.2-1.2-4.5-1.4-4.5C158.4,137.8,157,137.6,157,137.7 M158.1,143.2c0.1,0.2,0.2,1.2,0.4,2.2l0.3,1.8l0.8,0.2
		c0.4,0.1,1.2,0.4,1.7,0.6c1.2,0.5,1.1,0.6,0.3-1.9c-0.9-2.7-1-2.8-2.9-3.2C158,142.7,158,142.7,158.1,143.2 M190.5,145
		c-0.5,2.5-1.1,4.7-2,7c-1,2.7-1.3,4.3-0.7,4.3c0.5,0,2.7-4.2,3.5-6.6l0.5-1.5l-0.4-1.4c-0.2-0.8-0.4-1.9-0.5-2.5l-0.1-1.1
		L190.5,145 M113.9,144.4c-1.3,0.3-1.6,0.6-4.7,5c-3.5,5-6.5,8.4-19,20.9c-34.8,35-36.5,37.3-35.4,47.9c2.3,22,10.2,89.2,11.6,98.3
		c2.4,14.9,6.8,31.7,13.4,50.5c2.6,7.6,3.5,10,3.6,9.8c0-0.1-1.9-9.7-4.4-21.4c-7.3-34.5-7.1-33.9-8.2-51.2
		c-1.2-19.3-4.4-46.4-7.3-61.3c-3.2-16-3.3-21.1-0.7-28.6c2-5.8,5.3-11.1,11.3-18.3c5.2-6.3,7.8-8.9,23.2-23.7
		c12.2-11.7,12.4-11.9,17.9-16.4l3.9-3.2l0.7,0.2c3.9,1.4,6.6-3.1,3.8-6.2C121.9,144.8,117.2,143.7,113.9,144.4 M179.6,145.9
		c0,1.7,2.5,6.1,3.5,6.1c0.6,0,2.2-1.8,2.2-2.5c0-0.7-2.4-2.6-4.4-3.4C179.6,145.6,179.6,145.6,179.6,145.9 M158.9,148.3
		c0.4,1.4,2.3,15,2.7,19.8c0.4,5.1,0.5,6.4,0.5,19.4c0,7.1,0.1,13.1,0.2,13.2c0.4,0.8,2.7,1.1,4.4,0.7c0.8-0.2,1.2-0.2,1.3-0.1
		c0.8,0.8-2.7,1.4-4.7,0.8c-0.5-0.1-0.8-0.3-0.8-0.3c0,0,0.3,1.6,0.4,2.2c0.3,1.2,3.7,1.8,5.7,1.1c0.8-0.3,1.1-0.2,1,0.3
		c-0.2,0.6-3.3,1-4.9,0.5c-1.3-0.3-1.3-0.3-0.7,0.8c0.7,1.3,0.8,1.3,3.6,1.3c3.5,0,5.3-0.6,6.8-2.1c0.4-0.4,0.8-0.7,1-0.7
		c0.6,0,0.3-1.1-1.3-4.5c-2-4.2-2.8-7.8-3.2-13c-0.1-0.8-0.1-2-0.2-2.5l-0.1-1l-0.9-0.3c-0.5-0.2-1.5-0.3-2.2-0.3
		c-1.4-0.1-1.6-0.1-1.4-0.5c0.1-0.3,2.2-0.3,3.5,0c0.5,0.1,1,0.3,1.1,0.3c0.2,0-0.1-4.2-0.3-4.5c-0.5-0.6-1.9-1.1-3.3-1.2
		c-1.2-0.1-1.4-0.1-1.4-0.4c0-0.7,2.9-0.6,4.1,0.3c0.2,0.1,0.4,0.2,0.5,0.2c0.3,0-0.2-3.8-0.5-4.1c-0.3-0.3-1.6-0.8-3.1-1.1
		c-1-0.2-1.4-0.4-1.4-0.5c0-0.4,1.8-0.3,3.2,0.2c1.4,0.5,1.4,0.6,0.9-1.9c-0.6-2.7-1-3.2-3.1-3.4c-0.7-0.1-1-0.2-1-0.4
		c0-0.4,1.6-0.4,2.4-0.1c0.8,0.3,0.8,0.4,0.2-1.7c-0.6-2.1-0.7-2.2-2.3-2.5c-0.7-0.1-1.1-0.3-1.1-0.5c0-0.3,1-0.4,1.8-0.2
		c0.3,0.1,0.6,0.1,0.6,0.1c0-0.2-1.9-6-2-6.2c-0.1-0.1-0.9-0.4-1.7-0.8c-1.6-0.6-1.8-0.7-1.6-1.1c0.1-0.2,0.9,0,2.7,0.7
		c0.2,0.1,0.1-0.4-0.6-2.5l-0.9-2.6l-1.3-0.7C159.6,148,158.8,147.9,158.9,148.3 M66.5,150.2c-0.6,2.8-6.2,21.3-7.8,25.4
		c0,0.1,0.2,0,0.6-0.2c1.1-0.7,2.7-1.4,4.6-1.9c0.9-0.3,1.7-0.5,1.8-0.6c0.1-0.1,0.5-2.4,0.5-2.6c0-0.2-1.3,0-2.5,0.3
		c-1.1,0.3-1.4,0.3-1.4,0c0-0.5,1.9-1.1,3.4-1.1c0.5,0,0.7-0.1,0.7-0.4c1.1-5.1,2-7.5,2.9-7.7c0.4-0.1,1.7,0.6,3.4,2
		c1.5,1.3,1.3,1.3,2.4-0.2c0.5-0.7,1.5-1.9,2.2-2.6c1.5-1.6,1.6-1.4-1-4c-1.8-1.9-3.6-3.4-7.2-6c-1.1-0.9-2.2-1.6-2.3-1.7
		C66.8,148.8,66.7,149.3,66.5,150.2 M191.9,150.3c-0.5,1.5-1.7,3.8-2.8,5.4l-1,1.5l0.3,0.9c0.2,0.5,0.4,0.9,0.4,1
		c0.3,0.6,2.6-2,3.8-4.4c0.9-1.8,0.9-1.6,0.3-3.6C192.3,149.2,192.3,149.2,191.9,150.3 M125.8,150.7c0,2-0.9,4-2.3,5.4
		c-0.6,0.6-0.6,0.6-0.4,1.1c1,1.6,3.8,7.2,8.3,16.3c6.9,13.9,10.4,20,14.6,25.2c0.9,1.2,2.5,1.1,4.1-0.1c0.7-0.5,1.1-0.6,1.1-0.1
		c0,0.6-2.3,1.8-3.4,1.8c-0.6,0-0.6,0.1,0.6,1.4c1,1.1,1,1.1,1.8,1.1c0.9,0,2.3-0.5,2.8-1.1c0.4-0.4,0.9-0.4,0.8,0.1
		c-0.1,0.5-1.6,1.4-2.8,1.6l-0.9,0.2l0.9,0.9c1.3,1.3,2.8,1.2,4.4-0.3c0.7-0.7,1.3-0.8,1.3-0.3c0,0.6-2.5,2.3-3.4,2.3
		c-0.5,0-0.4,0.3,0.5,0.8c1.7,1.1,3,1.3,3.8,0.5c0.9-0.9,0.5-3-2.5-10.5c-0.7-1.8-1.6-4-1.9-4.9c-1.1-2.8-2.2-4.5-6.1-9.8
		c-9.5-12.6-15-21.2-17.9-28C127.1,149.5,125.9,148.2,125.8,150.7 M193,155.9c-0.9,1.7-2.1,3.1-3,3.7l-0.7,0.4l0.6,1.8l0.6,1.8
		l0.5-0.3c0.9-0.5,2.7-2.5,3.4-3.6l0.6-1.1l-0.5-2.1C193.9,154,194,154.1,193,155.9 M78,161c-0.6,0.7-1.6,1.9-2.2,2.7l-1.1,1.4l1,1
		c1.3,1.2,1.1,1.2,1.7,0.1c0.6-1,1.8-2.8,2.6-3.7c0.7-0.8,0.7-0.8-0.2-1.8l-0.7-0.8L78,161 M194.7,160.4c-0.6,1-2.4,2.8-3.4,3.4
		c-0.5,0.3-0.8,0.6-0.8,0.8c0,0.1,0.3,1.1,0.5,2.1c0.5,2.2,0.4,2,1.1,1.6c1.4-0.9,3.6-4,3.6-5.2c0-0.3-0.7-3.4-0.7-3.4
		C195.1,159.8,194.9,160.1,194.7,160.4 M80.5,163.1c-0.7,0.9-2.4,3.4-2.7,4.1c-0.2,0.5-0.2,0.5,0.9,1.5l1.2,1.1l0.8-1.1
		c0.4-0.6,1.3-1.7,2-2.5l1.2-1.3l-1.2-1.3C81.1,162,81.3,162.1,80.5,163.1 M113.4,163.8c-1,0.3-1.1,0.5-2,1.2
		c-0.6,0.5-1.2,1.6-1.2,2s2.8,1.5,4,1.5c0.2,0,0.5-0.4,0.8-0.9c0.5-0.9,2.1-2.7,3-3.4l0.5-0.3l-0.7-0.2c-1.7-0.5-3,0.4-4.2,3
		c-0.6,1.3-1.2,1.8-1.2,1c0-0.5,1.1-2.6,1.8-3.4C115,163.3,114.9,163.2,113.4,163.8 M118.5,164.7c-1.6,1-3.6,3.8-3,4
		c1.3,0.4,1.3,0.4,2.5-0.9c0.9-0.9,1.4-1.2,2.2-1.5c1.2-0.4,1.2-0.4,0-1.3C119.2,164.2,119.3,164.2,118.5,164.7 M195.7,165.6
		c-0.6,1.2-1.7,2.4-2.8,3.2c-1.2,0.9-1.2,0.8-0.4,3.7c0.5,1.9,0.5,1.9,1.8,0.3c2.2-2.6,2.7-4.3,2.3-6.6
		C196.3,164.5,196.2,164.5,195.7,165.6 M82.9,167c-0.7,0.9-1.6,1.9-1.9,2.4l-0.6,0.9l0.4,0.4l0.4,0.4l0.9-1.3c0.5-0.7,1.4-1.9,2-2.6
		l1.1-1.2l-0.4-0.3C84.3,165.3,84.3,165.3,82.9,167 M84.9,167.6c-2.7,2.9-3.6,4.8-2.3,4.7c0.4,0,3.4-4.3,3.4-4.8
		C86.1,166.5,85.9,166.6,84.9,167.6 M120.4,167c-0.9,0.3-2.6,1.8-2.5,2.2c0,0.1,0.4,0.4,0.9,0.7l0.9,0.5l0.7-0.7
		c0.4-0.4,1.1-0.9,1.6-1.1c1-0.4,1-0.4,0.3-1.4C121.8,166.5,121.6,166.5,120.4,167 M122.3,169.2c-0.5,0.2-1.1,0.7-1.5,1.1l-0.7,0.7
		l0.3,0.5c0.5,0.7,1.1,2.2,2.6,5.8c3.3,8,7.5,16.1,12.1,23.6c2.1,3.4,2.1,3.4,3.8,3.1c1.5-0.2,1.5-0.2,1.5,0.1c0,0.4-0.8,0.7-2,0.7
		l-0.7,0l0.3,0.5c0.6,1.1,2.1,1.4,3.3,0.7c1-0.6,1.7-0.2,0.8,0.5c-0.6,0.4-1.5,0.7-2.2,0.7c-0.5,0-0.6,0-0.4,0.3
		c0.6,0.7,3.1,0.1,4.4-1.1c1-0.9,1.4-0.3,0.4,0.6c-0.7,0.6-1.4,1-2.6,1.4l-0.9,0.3l0.5,0.3c1.3,0.9,3.4,1.2,4.2,0.5
		c1.4-1.2-0.2-5.5-2.8-7.3c-2-1.3-3.4-3.2-5.8-7.6c-2-3.7-2.7-4.7-5.3-7.7c-3.6-4.3-4.4-5.8-5.9-11.1c-1.2-4-2.2-6.9-2.6-6.9
		C123.2,168.8,122.8,169,122.3,169.2 M196.8,170.5c-0.7,1.3-1.4,2.3-2.5,3.5l-1,1.1l0.2,1c0.1,0.6,0.3,1.6,0.4,2.3l0.1,1.3l0.9-0.8
		c1.1-0.9,2.4-2.5,2.9-3.6l0.4-0.8l-0.4-2.4C197.3,169.3,197.3,169.4,196.8,170.5 M206,170.7c-0.8,0.3-2.1,1.1-2.7,1.7l-0.5,0.5
		l0.9,0.3c1.9,0.6,3.5,1.7,4.7,3c0.6,0.7,0.7,0.7,1.1-0.4C210.8,172.5,208.9,169.7,206,170.7 M113.6,173.1c-2.8,1.1-8.2,3.7-8.9,4.3
		c-0.1,0.1,0.3,1,0.9,2l0.5,0.9l1.1-1.1c2.1-2,7.2-4.5,9.4-4.5c0.4,0,0.4-0.2-0.3-1.3C115.6,172.3,115.7,172.3,113.6,173.1
		 M266.9,172.7c-0.9,0.3-2,0.8-6.5,3.4c-10.7,6.1-17.1,8.6-27.3,10.5l-2.3,0.5l-0.5,0.9c-1.3,2.6-2,8.4-1.4,11.1
		c0.1,0.4,0.5,0.3,1.9-0.2l0.6-0.3l0-1.3c0-2.5,0.6-5.4,1.1-5.4c0.4,0,0.4,0.2,0.2,1.2c-0.3,1-0.7,4.8-0.5,4.9
		c0,0.1,0.9-0.3,1.8-0.9l1.7-1l-0.1-1.8c-0.1-1.9,0.2-3.8,0.6-3.9c0.5-0.2,0.6,0.2,0.3,1.3c-0.2,1-0.3,3.5,0,3.7
		c0,0,1.2-0.5,2.5-1.1l2.4-1.2l0-0.8c0-1.2,0.3-3.3,0.6-3.6c0.4-0.6,0.7,0,0.4,1.1c-0.1,0.5-0.2,1.4-0.2,1.9v1l2-1.1l2-1.1l0.3-1.2
		c0.4-1.4,0.9-2.7,1.1-2.7c0.4,0,0.4,0.5-0.1,1.7c-0.7,2-0.8,2,1.9,0.7c2.6-1.4,2.6-1.4,2.8-2.5c0.2-1.5,0.6-2.7,1-2.6
		c0.2,0,0.3,0.2,0.3,0.3c0,0.1-0.2,0.8-0.4,1.6s-0.3,1.3-0.3,1.4c0.1,0.1,6-3.3,9.5-5.4c6.2-3.8,6.3-3.7,12.9,1.5
		c11.1,8.8,19.7,14,37.6,22.9c27.4,13.6,31,17,52.8,49.6c9.8,14.7,18.6,28.8,32.8,53c6.9,11.6,6.9,11.7,4.5,6.6
		c-2.8-6-31.7-61.5-37.9-72.9c-9.7-17.8-12.3-20.7-23.2-25.7c-17.4-8-35.4-18.5-51.7-29.8c-4.7-3.3-6.5-4.7-9.7-7.5
		C273.7,173.4,270.1,171.7,266.9,172.7 M202,174.2c-0.4,0.7-0.5,0.7,0.6,0.9c1.4,0.3,3.1,1.2,4.3,2.4l1.1,1l0.3-0.4
		c0.7-1.1-3.8-4.4-5.9-4.4C202.4,173.6,202.2,173.9,202,174.2 M63.7,174.3c-3.7,1.2-5.3,2.4-5.9,4.1c-0.2,0.7-0.4,1.3-0.4,1.3
		c0,0,0.7-0.3,1.5-0.6c1.5-0.6,5-1.9,5.5-1.9c0.5,0,0.6-0.3,0.9-1.7c0.1-0.8,0.2-1.5,0.2-1.5C65.5,173.7,65.2,173.8,63.7,174.3
		 M115.2,175.9c-3.1,0.9-5.4,2-7.2,3.6c-1.6,1.4-1.6,1.7,0,3.6c0.1,0.1,0.4-0.3,0.9-0.8c1.4-1.8,4.4-3.7,7.6-4.8
		c1.7-0.6,1.7-0.6,1.3-1.3C117.4,175.4,117.2,175.3,115.2,175.9 M201.4,175.9c-0.6,1.6,1.5,3.9,3.4,3.9c0.9,0,2.4-0.5,2.4-0.8
		C207.2,177.9,201.8,175,201.4,175.9 M146.5,176.3c0,0.5,5.8,10.4,6.1,10.4c0.3,0,1.3-1.3,1.7-2.1c1.1-2.2,0.1-3.8-3.9-6.1
		c-1.1-0.6-2.4-1.4-2.9-1.8C146.9,176.4,146.5,176.2,146.5,176.3 M197.7,177c-0.7,1-2.1,2.5-3.1,3.2c-0.7,0.5-1.1,1.1-0.9,1.3
		c0.1,0.1,4.7-1.1,4.9-1.3c0.3-0.3,0-3.7-0.3-3.9C198.3,176.2,198,176.5,197.7,177 M213.6,177.3c-0.2,1.1-0.4,0.9,1.7,2.1
		c1.1,0.6,1.8,1.2,3.2,2.6l1.8,1.8l0.2-0.5c0.1-0.3,0.4-1,0.7-1.6l0.4-1.1l-0.5-0.7c-1.5-1.9-4.6-3.4-7.1-3.5
		C213.9,176.3,213.7,176.7,213.6,177.3 M116.8,178.1c-3.8,1.4-7.2,3.7-8,5.6c-0.2,0.4,1.4,2.8,3.1,4.8l0.5,0.6l0.9-1.3
		c1.6-2.2,3.8-4,6.4-5.2l1.3-0.6l-1.2-2.2C118.4,177.2,118.7,177.4,116.8,178.1 M63.3,178.2c-3.1,0.9-6.3,2.4-6.5,2.9
		c-0.1,0.4-0.4,0.4,3.5-0.1c3.9-0.6,4.6-1,4.6-3C64.9,177.8,64.9,177.8,63.3,178.2 M98.5,178.3c-1.6,0.3-3.4,3.8-3,5.7
		c0.2,0.7,0.2,0.7,1-0.4c0.9-1.3,2.5-3.2,3.5-4c1-0.8,1-0.8,0.2-1.2C99.5,178.2,99.2,178.1,98.5,178.3 M73.2,179.8
		c-0.7,0.6-3.6,2.1-5,2.7c-0.4,0.2-0.8,0.3-0.8,0.3c0,0,0.1,0.3,0.3,0.7c0.2,0.4,0.3,0.8,0.3,0.9c0,0.5,2.2-1.3,4.6-3.7
		C74,179.3,74.3,178.8,73.2,179.8 M212.9,179.8c-0.4,1.5-0.4,1.7,0,1.8c2.1,0.5,5.3,3.2,5.8,4.7c0.2,0.5,0.3,0.4,0.7-0.6
		c0.5-1.2,0.5-1.2-0.5-2.5c-1.2-1.5-3-2.9-4.7-3.8C213.2,179,213.1,179.1,212.9,179.8 M100.2,180.4c-1.3,1.2-2.5,2.7-3.4,4.1
		l-0.5,0.9l0.4,0.4l0.4,0.4l0.8-1.3c0.8-1.2,2.9-3.6,4-4.4l0.5-0.4l-0.4-0.4C101.5,179.2,101.5,179.2,100.2,180.4 M101.7,181.7
		c-2,1.6-4.2,4.7-3.7,5.2c0.2,0.2,0.3,0.2,0.8-0.5c0.6-0.8,1.8-1.6,2.3-1.4c0.4,0.2,0.3,0.4-0.4,0.8c-1.7,0.9-2,1.7-0.9,2.7l0.8,0.7
		l0.3-0.6c0.3-0.6,1-1.3,1.4-1.3c0.5,0,0.4,0.5-0.3,1.1c-1,1-0.9,1.2,0.9,2.8c4.2,3.7,12.2,12,17,17.6l1.9,2.2l1-0.5
		c0.5-0.3,1.5-1,2.1-1.5c1-0.9,1.4-1.1,1.4-0.6c0,0.3-1.9,2-2.9,2.6l-1,0.5l0.5,0.5c0.9,0.9,3-0.1,4.2-2.1c0.5-0.8,0.6-0.9,0.9-0.5
		c0.4,0.5-1.4,2.6-2.7,3.3c-0.7,0.3-0.8,0.6-0.4,0.7c1.4,0.5,4.9-1.8,6.3-4.1c0.3-0.5,0.6-1,0.8-1c1.4,0-1.8,4-4.1,5.1
		c-1.1,0.5-1.1,0.5-0.6,0.7c2,0.5,5.5-1.5,6.1-3.5c0.6-2.3-0.3-3.6-3.1-4.1c-2.9-0.5-4.5-1.5-8.1-4.8c-1.3-1.2-3.2-2.9-4.2-3.7
		c-4.6-3.7-9-8.6-13-14.7C102.8,180.5,103,180.6,101.7,181.7 M212,183.4l-0.3,1l0.6,0.4c0.8,0.6,1.3,1.3,2.3,3.4
		c1.9,4.1,2,4.2,2.9,1.8c0.4-1,0.8-2,0.8-2.2c0-1.2-2.4-3.9-4.4-4.8C212.4,182.1,212.3,182.1,212,183.4 M119.7,183.4
		c-2.4,1.2-4.6,3.1-6,5.2l-0.7,1l0.5,0.5c0.6,0.6,2.7,2.4,2.8,2.3c0,0,0.3-0.5,0.5-0.9c1-1.8,2.8-3.6,5.2-5.1l1-0.7l-0.7-1.3
		C121.3,182.4,121.6,182.5,119.7,183.4 M199.9,182.9c-4.3,0.5-9,3.4-11.5,7c-0.5,0.7-0.4,1.5,0.3,2.9c0.4,0.8,0.4,0.8,0.7-0.6
		c0.5-2.1,1.4-3,5-5.2c3.1-1.9,7.6-2.8,9.2-1.7l0.5,0.3l-0.8,0.2c-5.8,1.3-10.2,11.4-8.9,20.2c0.3,2,0.8,3.7,1.8,6.3
		c1.8,4.8,2.1,5.9,2.2,10.7l0.1,3.6l2.2,0.7c1.2,0.4,3,0.9,4.1,1.2c2.4,0.6,4,1.1,4.3,1.4c0.9,0.7-0.1-0.5-3-3.6
		c-4.3-4.6-4.1-3.9-2.8-8.4c0.5-1.7,0.8-3.2,0.8-3.3c0-0.1,0.1-0.3,0.3-0.4c0.2-0.1,0.3-0.5,0.4-1.7c0.1-2.1,0-2.6-1.3-3.5
		c-1.6-1.2-1.8-1.3-4-1.4l-1.9-0.1l0.7-0.3c0.8-0.4,2.2-0.5,3-0.3c0.8,0.2,0.7-0.1-0.2-0.4c-0.4-0.2-1.2-0.3-2.6-0.3
		c-2.3,0-2.4-0.1-1.8-0.6c2.2-1.7,6.5-1.1,7.3,1c0.1,0.3,0.5,1,0.8,1.5c0.8,1.3,1.2,2.7,1.4,4.2l0.1,1.3l0.4-0.1
		c0.8-0.2,3.5-1.6,4.6-2.3l1-0.7l-0.7-0.2c-2.2-0.6-4.3-3.4-4.2-5.8c0-2.3,2.8-5.4,5.2-5.9l0.6-0.1l-0.8,0.6c-0.8,0.6-2,2.1-2,2.4
		c0,0.1,0.4,0,0.8-0.2c1-0.5,1.4-0.4,0.6,0.2c-2.6,1.7-2.3,4.7,0.8,6.7c0.5,0.3,0.7,0.6,0.7,0.8c0,0.2,0,0.3,0.1,0.3
		c0.1-0.1,0.4,0.1,0.8,0.5c0.4,0.3,1.5,1.1,2.4,1.7c1,0.6,1.8,1.3,1.9,1.5c0.4,0.8-1,7.3-2.4,11.5c-0.7,2-0.6,2,0.6,0.4
		c2.7-3.6,6.8-11.9,7-14c0.1-1.1-0.5-2.1-2.6-3.7c-1.7-1.4-2.2-1.5-2.7-0.5c-0.3,0.5-0.7,0.6-0.8,0.1c0-0.2,0.2-0.6,0.6-1
		c0.5-0.5,0.6-0.7,0.4-0.8c-0.4-0.1-1.1,0.4-1.3,0.9c-0.2,0.5-0.4,0.5-0.6,0.2c-0.3-0.3,0.3-1.3,0.9-1.6c0.6-0.3,0.7-0.4,0.4-0.6
		c-0.2-0.1-1.3,0.4-1.5,0.8c-0.2,0.4-0.8,0.4-0.8,0c0-0.4,0.8-1.1,1.5-1.4c0.6-0.2,0.5-0.5-0.7-2c-0.6-0.7-0.8-1.1-0.8-1.7
		C213.8,188,208,181.9,199.9,182.9 M64.3,183.8l-2.2,0.8l0.5,0.6c0.3,0.3,0.7,1,1,1.5c0.3,0.5,0.6,0.8,0.7,0.8
		c1.8-1,3.2-2.3,3.1-2.7c-0.2-0.6-0.7-1.7-0.8-1.7C66.5,183,65.5,183.4,64.3,183.8 M58.8,185.7c-3.6,1.3-3.4,1.2-2.1,2.2
		c0.5,0.4,1.4,1.2,1.8,1.7l0.8,1l2-1.3c1.1-0.7,2-1.3,2-1.3c0-0.5-2-3.1-2.3-3.1C61,184.9,60,185.2,58.8,185.7 M91.7,187.8
		c-12.7,13.7-16.3,30.7-10.5,48.4c6.4,19.2,17.7,34.6,32.1,43.7c3.4,2.2,7,3.7,9.4,4.1l0.7,0.1l-0.4-0.4c-0.2-0.2-1.8-1.5-3.4-2.8
		c-10.5-8.5-16.4-14.7-20-21.1c-0.5-0.9-0.6-1.5-0.1-1.5c0.1,0,0.7,0.8,1.3,1.8c3.9,6.6,9.2,12.1,21.3,21.8c3.1,2.5,3.1,2.5,5.5,2
		c4.8-1,8.6-3.8,15.9-11.5c21.1-22.5,28-33.9,28-46.6c0-5-1.1-9.3-2.6-10.2c-0.9-0.5-3.2-0.7-3-0.2c1.7,3.2,2.7,9.4,2.4,13.7
		c-0.4,4.9-2.7,11.7-3.4,10.4c-0.1-0.1,0.2-0.9,0.6-1.8c2.8-6.6,2.9-14.7,0.1-21.2L165,215l-1.4,0c-0.8,0-1.4,0-1.4,0.1
		c0,0.1,0.2,1,0.5,2.1c1.5,5.8,1.5,16.6,0,15.7c-0.2-0.1-0.2-0.5,0-2.1c0.6-4.6,0.2-10-1.1-14.6l-0.4-1.3l-1.7-0.1
		c-2.1-0.2-2-0.3-1.5,1.7c0.8,3.8,0.9,9.1,0.3,9.1c-0.3,0-0.3-0.1-0.4-3.3c-0.1-3.1-0.5-6.2-1-7.4c-0.1-0.3-2.9-1.2-3.1-0.9
		c0,0,0,0.9,0.1,2c0.2,3.7,0.2,5-0.1,4.9c-0.3-0.1-0.4-0.6-0.7-5.1l-0.1-2.1l-0.8-0.3c-0.5-0.2-1.1-0.4-1.4-0.6
		c-0.7-0.4-0.7-0.4-0.9,2.3c-0.2,2.2-0.2,2.4-0.5,2.4c-0.4,0-0.4,0-0.2-2.8l0.1-1.8l-2,0.1l-2,0.1l-0.3,0.6c-0.2,0.3-0.5,1-0.6,1.6
		c-0.2,0.7-0.4,1-0.5,1c-0.4,0-0.3-1.4,0.2-2.3l0.4-0.8l-1.2,0.1c-1.7,0.2-3.6,0.9-5.5,2c-3.7,2.3-4.3,2.6-5.2,3
		c-4,1.5-9.1-0.7-15.3-6.8l-2.1-2.1l-0.3,0.6c-0.7,1.1-0.9,2.3-0.8,3.9c0.1,1.4,0.1,1.6-0.2,1.6c-0.9,0-0.8-3.5,0.2-5.5l0.6-1.1
		l-2.5-2.6l-2.5-2.6l-0.8,1.6c-1.2,2.5-1.6,4.4-1.8,7.4c-0.1,2.5-0.3,3.2-0.7,2.2c-0.7-1.8,0.4-7.3,2-10.5l0.7-1.3L107,201
		c-2.2-2.2-1.9-2.1-2.7-0.9c-3.4,5.5-4.9,13-3.7,18.7c0.1,0.5-0.3,0.9-0.6,0.7c-0.4-0.4-0.7-5.6-0.4-8c0.5-4.2,2-8.7,4.1-12
		c0.7-1.1,0.8-0.9-1.3-3l-1.8-1.8l-0.7,1.5c-3.1,6.7-4.4,13.2-4.3,21c0.1,3.9,0.1,4-0.3,3.9c-0.5-0.1-0.6-2.2-0.5-6.3
		c0.2-6.9,2-14.1,4.8-19.8l0.5-1l-1-1.2c-1.2-1.5-1-1.6-2.3,0.4c-5.6,8.5-8.3,19.6-7.4,29.9c0.2,2,0.1,2.6-0.4,2.2
		c-0.5-0.5-0.7-8-0.2-11.7c1-8.1,3.5-14.7,8.5-22.5c0.2-0.4-3.2-4.8-3.8-5C93.4,186,92.6,186.8,91.7,187.8 M121.7,187.4
		c-2.4,1.6-4.7,4.2-4.7,5.3c0,0.3,4.2,3.4,4.3,3.2c0.1-0.1,0.4-0.5,0.7-1c0.7-0.9,2.2-2.2,3.5-2.8l0.8-0.4L126,191
		c-0.2-0.4-0.9-1.5-1.4-2.6C123.3,186.1,123.6,186.2,121.7,187.4 M51.1,189.2c-4.9,2.5-6.5,3.1-8.6,3.4c-1,0.1-2.5,0.4-3.4,0.5
		c-8.9,1.3-8.5,13.1,0.9,29.6c0.9,1.7,2.6,4.7,3.7,6.8l1.9,3.8l0.6-1.2c0.3-0.7,0.9-1.6,1.3-2c0.8-1,0.8-0.8-0.2-3
		c-6.9-14.3-8.8-21.4-6.6-24.4c1.3-1.7,6.5-5.3,14.5-9.9c1.8-1,3.3-2,3.3-2c0-0.3-1.9-2.1-2.8-2.8l-1-0.7L51.1,189.2 M228.3,187.5
		c-0.7,0.1-1.3,1.2-2.2,4c-1,3-1.9,8.9-1.3,8.9c0.2,0,2.1-0.4,3-0.6c0.3-0.1,0.3-0.2,0.3-3.4c0-3.8,0.4-6.2,1.5-8.8
		C229.7,187.3,229.5,187.3,228.3,187.5 M225.8,187.8c-0.3,0.1-0.5,0.2-0.6,0.7c-1,3.1-3.9,9.5-5.7,12.6c-0.9,1.4-0.9,1.5-0.1,0.9
		c0.5-0.4,1.2-0.6,3.9-1.3l0.7-0.2l0.1-2.2c0.2-3.2,1.2-7.6,2.5-10C226.8,187.6,226.9,187.6,225.8,187.8 M95.4,188.7
		c0,0.1-0.3,0.7-0.8,1.3c-8.6,10.6-11.8,25.8-8.6,39.7c0.3,1.5,0.4,1.9,0.2,2.1c-0.3,0.3-0.5-0.1-1-1.8c-3.4-14-0.1-29.3,8.7-40.5
		C95,188.4,95.3,188.2,95.4,188.7 M207.9,190c0.2,0.1,0.1,0.2-0.3,0.2c-2.3,0-4,4-2.1,4.8c0.6,0.3,0.4,0.5-0.3,0.4
		c-1.1-0.2-1.4-1.3-0.8-2.8C205.1,190.5,206.8,189.3,207.9,190 M208.6,191c0.9,0.5,1.1,1.8,0.3,2.9c-1,1.5-3.3,1.4-3.3-0.1
		c0-0.4,0-0.4,0.2,0.1c0.4,0.9,1.2,1.1,2,0.6c0.5-0.3,0.5-0.6,0.1-0.6c-0.7,0-0.5-1.2,0.2-1.8c0.5-0.4-0.6-1-1.4-0.8
		c-0.2,0.1-0.1,0,0.1-0.2C207.3,190.6,207.9,190.6,208.6,191 M125.4,193.1c-1.3,0.8-2.7,2.1-3.1,2.9l-0.3,0.6l0.8,0.7
		c0.5,0.4,1.2,1.1,1.7,1.6c0.5,0.5,0.9,0.9,0.9,0.8c0,0,0.3-0.5,0.5-1.1c0.3-0.6,0.9-1.4,1.6-2.1l1.1-1.1l-0.9-1.5
		C126.7,192.2,126.8,192.2,125.4,193.1 M199.7,194l0.5,0.5l-0.8-0.3c-2.6-0.9-4.4,2.8-2.5,4.9c0.5,0.6,0.4,0.7-0.4,0.3
		c-1.1-0.6-1.7-1.9-1.4-3.1C196,194.1,198.4,192.8,199.7,194 M199.7,195.2c1.5,1.6-0.1,4.8-1.8,3.8c-0.1-0.1,0.1-0.1,0.5-0.1
		c0.5,0,0.8-0.1,1.1-0.5l0.5-0.5l-0.4,0.1c-0.5,0.1-1.1-0.4-1.1-0.9c0-0.5,0.3-1,0.6-1c0.1,0,0.2-0.1,0.2-0.2c-0.1-0.2-1-0.2-1.4,0
		c-0.4,0.2-0.4,0.1,0.1-0.6C198.3,194.6,199.1,194.5,199.7,195.2 M211.3,195.2c0.8,0.4,0,1.8-0.9,1.6c-0.7-0.2-0.8-1.2-0.1-1.6
		C210.8,195,210.9,195,211.3,195.2 M128,197.3c-1.9,2-2.2,3.1-1.2,4.6c1,1.6,1.7,1.9,2,1c0.3-0.8,1.2-2,1.9-2.5
		c0.8-0.5,0.8-0.5-0.4-2.5C129.1,195.9,129.3,196,128,197.3 M212.2,197c0,0.4-1.1,1.1-1.8,1.2c-0.7,0.1-1.6-0.4-1.6-1
		c0-0.4,0.4-0.4,0.8,0c0.4,0.4,0.5,0.4,1.3-0.1C211.8,196.6,212.2,196.6,212.2,197 M207.1,197.2c0.3,0.5,0.2,1-0.3,1.2
		c-0.8,0.3-1.3-0.5-0.9-1.3C206.3,196.6,206.8,196.6,207.1,197.2 M205.4,198.2c0.1,0.3,0.2,0.6,0.5,0.7c0.6,0.3,0.6,0.9,0.1,0.9
		c-0.9,0-1.7-1.1-1.3-1.9C205,197.4,205.3,197.6,205.4,198.2 M202.1,198.8c0.9,0.5,0.8,1.8-0.2,1.8c-0.9,0-1.5-1.4-0.8-1.8
		C201.5,198.5,201.7,198.5,202.1,198.8 M201.3,200.7c0.3,0.2,0.7,0.2,1.1,0.2c0.6,0,0.7,0,0.7,0.3c0,0.7-1.7,0.7-2.6,0
		C199.8,200.5,200.5,200.2,201.3,200.7 M130.7,201.4c-0.8,0.7-1.5,2-1.4,2.4c0.1,0.1,0.6,0.4,1.3,0.6c0.7,0.2,1.6,0.5,2.1,0.7
		c0.5,0.2,0.9,0.2,0.9,0.2c0-0.7-1.7-4.5-2-4.5C131.5,200.7,131.1,201.1,130.7,201.4 M197.9,200.9c0.7,0.3,0.6,1.7-0.1,1.7
		c-0.9,0-1.5-1.5-0.7-1.7C197.6,200.7,197.6,200.7,197.9,200.9 M240.8,201.6c-0.5,0.4-1.8,2.9-1.8,3.4c0,0.3,0.7,1.3,1.4,2.1
		c0,0,0.3-0.5,0.7-1.1c0.7-1.2,1.4-2.2,2.5-3.3l0.7-0.7l-0.6-0.3C242.9,201.1,241.4,201.1,240.8,201.6 M238.3,201.6
		c-1.9,0.2-1.8,0.1-0.9,1.5c1,1.4,0.9,1.4,1.7-0.3c0.4-0.8,0.7-1.4,0.7-1.4C239.8,201.4,239.1,201.5,238.3,201.6 M244.2,203.1
		c-1,1-2.1,2.6-2.7,3.7l-0.5,0.9l1.1,1.1l1.1,1.1l0.4-0.9c0.5-1.2,1.4-2.6,2.5-3.8c0.5-0.5,0.9-1,0.8-1c0,0-0.5-0.4-1.1-0.9l-1-0.9
		L244.2,203.1 M196.7,202.8c0.1,0.1,0.4,0.3,0.6,0.3c0.3,0,0.4,0.1,0.4,0.4c0,0.6-1.3,0.4-1.7-0.3
		C195.7,202.7,196.2,202.3,196.7,202.8 M246.5,206.1c-1.1,1.3-2.4,3.6-2.4,4.2c0,0.3,1.6,1.8,1.9,1.8c0.1,0,0.4-0.4,0.7-0.9
		c0.5-0.8,2.3-2.7,2.6-2.7c0.5,0,0.3,0.6-0.6,1.5c-1,1-2,2.4-1.8,2.7c0.1,0.1,1,0.8,2.1,1.5l2,1.3l0.1-0.9c0.2-1.8,1.7-4.3,2.1-3.4
		c0,0.1-0.2,0.7-0.5,1.2c-0.6,0.9-0.9,2.2-0.9,3.1c0,0.4,3.7,3.3,3.9,3c0,0,0.2-0.4,0.4-0.9c0.5-1.2,1.2-2.1,1.5-2.1
		c0.5,0,0.4,0.4-0.3,1.3c-0.6,0.9-1,1.9-0.9,2.3c0.1,0.2,2.9,2.4,3,2.3c0,0,0.2-0.4,0.4-0.7c0.4-0.8,0.7-1.1,1-0.9
		c0.2,0.1,0.2,0.3-0.2,1c-0.6,1.2-0.7,1.1,2,3.1c14,10.7,20.9,20.3,22.9,32.2c0.7,4.2,2.3,22.2,3,33.4c0.3,4.5,0.4,4,0.6-2.1
		c0.8-19.6,0.6-44.6-0.4-47.5c-0.4-1.1-1.3-2.1-4.7-4.9c-1.6-1.3-4.9-4.2-7.4-6.5c-6.3-5.7-6.7-6-17.1-14.6
		c-8.9-7.3-11.5-9.3-11.7-9.3C247.6,204.8,247.1,205.3,246.5,206.1 M175.5,206c-0.8,1.7-4.1,3-8,3h-1.9l0.4,0.4
		c2.7,2.9,8.6,1.8,9.6-1.7C175.9,206.6,175.8,205.2,175.5,206 M142.6,224.9c6.9,2.2,11.3,9.8,8.4,14.4c-1.3,1.9-1.5,2.7-1.8,5.9
		c-0.4,4.4-1.1,5.4-5.3,7.8c-3.1,1.8-3.7,2.4-4.4,4.7c-0.2,0.8-0.9,2.7-1.4,4.2c-0.8,2.2-1,3-1.1,4.1l-0.1,1.3h-1.1
		c-0.6,0-1.1,0-1.1-0.1s0.2-0.9,0.4-1.8c0.5-2,0.5-1.9-1.1-2.5c-1.3-0.5-1.1-0.7-1.5,1.8c-0.2,1.1-0.4,2.1-0.4,2.1
		c-0.2,0.2-2.9-0.7-2.8-1c0.9-2.1,1.6-4.7,1.4-4.9c-0.8-0.5-1.8,0.1-2.7,1.9c-0.7,1.3-1.3,2-1.9,2c-0.8,0-0.8-0.2,0.1-2.5
		c1-2.7,1.1-2.8,0.1-3.2c-1-0.4-1.4-0.4-1.4,0.1c0,0.5-1.1,2.6-1.4,2.9c-0.2,0.2-0.4,0.1-1.2-0.1c-0.5-0.2-1.2-0.3-1.4-0.3
		c-0.7,0-0.8,0.3,1.5-4.3c2.8-5.6,2.9-6.6,0.4-9.4c-1.3-1.4-1.5-1.9-1.5-3.1c0-1.6,0.3-2.1,3.8-6.2c1.3-1.6,1.5-2,2.1-5.7
		c0.7-4,0.6-3.9,2.5-5.2C134.4,224.6,138.7,223.6,142.6,224.9 M47.8,230.9c-0.4,0.5-0.9,1.4-1.3,2.1c-0.7,1.4-0.7,1.4,0.3,3
		c0.8,1.5,0.8,1.5,1.3,0c0.2-0.8,0.7-1.9,1-2.6l0.6-1.2l-0.4-1C48.6,229.9,48.6,229.9,47.8,230.9 M206.9,232.5
		c-0.4,1,0.1,3.1,1.4,6.8c2.1,5.6,3,16.7,2.1,25.1c-0.5,4.9-1.2,9.3-2.3,15.6c-0.7,4-0.9,5.6-0.3,3c0.3-1.6,0.8-3.2,2-7.4
		c3.2-10.9,4.3-22.3,3.2-35.1c-0.6-6.6-0.9-7.3-3.5-8C207.7,231.9,207.1,231.9,206.9,232.5 M49.3,234.7c-0.3,0.7-0.6,1.9-0.8,2.6
		l-0.3,1.3l1.2,2.1l1.2,2.1l0.1-3.1c0.1-1.7,0.1-3.2,0.2-3.3c0.1-0.2-0.9-3.1-1.1-3.1C49.9,233.4,49.6,234,49.3,234.7 M51.6,238.5
		c-0.3,1.7,0,5.8,0.6,7.6c0.2,0.7,0.4,1.5,0.5,1.9c0,0.4,0.1,0.7,0.2,0.7c0.3,0,0-5.8-0.5-8C51.8,238.1,51.7,237.8,51.6,238.5
		 M128,240c-1.4,1.5-1.7,2.1-1.2,3.2c1,2,3.5,3.7,5.5,3.7c3,0,3.2-1,0.7-3.5c-1-1.1-1.5-1.7-1.9-2.6
		C130.2,238.7,129.4,238.5,128,240 M43.3,241.1c0,0-0.2,1.4-0.4,3l-0.4,3l1.2,0.8c0.7,0.4,1.6,1.1,2.1,1.6c1.1,1,1.1,0.9,0.6-1.3
		C45.9,246,43.4,240.4,43.3,241.1 M140.8,244.7c-0.8,0.2-1.7,0.5-2,0.6c-1.2,0.3-1.9,3.1-0.9,3.8c1.5,1.1,6.9-0.5,7.2-2.2
		C145.5,244.6,143.9,243.8,140.8,244.7 M42.4,248.3c0,0.2-0.2,1.2-0.3,2.2s-0.2,2-0.3,2.2c-0.1,0.3,0.2,0.5,1.1,1.2
		c0.7,0.5,1.6,1.2,2.2,1.6c1.2,1,1,1,1.4-0.9c0.5-3.3,0.2-4-3.4-6.2l-0.7-0.4L42.4,248.3 M134.2,250.1c-0.2,0.2-0.4,0.4-0.4,0.5
		c0,0.1-0.8,1.2-1.7,2.4c-1.9,2.5-1.9,2.3-0.5,2.7c0.6,0.2,1.6,0.5,2.3,0.8c1.4,0.6,1.3,0.9,1.1-2.8c-0.1-1.7-0.2-3.3-0.2-3.5
		C134.8,249.7,134.7,249.7,134.2,250.1 M41.7,254.3c-0.6,1.8-1.5,14.5-1.6,23.2c-0.1,9-0.3,12.6-0.7,15.1c-0.1,0.7-0.2,1.2-0.1,1.2
		c0.1,0,6.7-35.8,6.7-36.3C46,256.8,41.9,253.8,41.7,254.3 M71.2,267.2c0,0,0.2,0.4,0.3,0.9c0.5,1.2,0.9,3.2,1.3,6.4
		c0.6,5,0.9,5.7,3.6,10.7c2.5,4.5,5.4,10,10.5,20c7.5,14.7,10.2,19.9,13.6,25.8c2.1,3.7,2.2,3.7,1.1,0c-2.6-9.4-5.6-16-18.6-40.9
		c-3.2-6.1-7.2-13.7-8.8-17C71.8,267.9,71.2,266.9,71.2,267.2"/>
</g>
</svg>
