<svg xmlns="http://www.w3.org/2000/svg" viewBox="0 0 410 410"><path d="M322.5 84.3c-2 .2-4.4 1-20.3 6.5-36.7 12.7-65.6 25.2-70.6 30.3-4.1 4.3-9.2 19.2-15.3 44.3-1 4.2-2 8.2-2.2 8.9l-.3 1.3h.5c1.9 0 4.6 1.2 6.3 2.8l1.1 1.1.2-.6c.6-1.4.6-1.4-.7-2.6-.7-.7-1.6-1.3-2.3-1.7-1.2-.6-1.4-.8-1.2-1 .4-.4 3.4 1.3 4.4 2.5.6.7.5.8 1.1-.8l.4-1.2-.4-.6c-.8-1-2.6-2-3.8-2.1-.7-.1-.8-.8-.2-.8 1.1 0 2.9.8 4 1.9l.7.6.6-2.1.6-2.1-.4-.3c-.2-.2-.8-.4-1.3-.5-.8-.2-1-.3-1-.5 0-.4.9-.4 2 0 .5.2.9.3.9.3s.2-.8.5-1.7l.4-1.6-.4-.1c-.2-.1-1-.3-1.7-.5-1.1-.3-1.4-.5-1.4-.7 0-.4.4-.4 2.1.1.8.2 1.5.4 1.5.3.2-.2 2-7.8 4.6-19.6 3.7-17.1 3.3-16.1 7.1-17.8 44.8-21.1 60.2-28 76.2-34.4 7-2.8 8.3-2.9 13.8-1.4 21.5 5.9 48 16 75.8 29.1 1.6.7 2.9 1.3 3 1.3.4-.4-5.2-6.2-8-8.3-8.1-6.3-23.4-13.1-47.9-21.1-16.4-5.6-24.6-7.6-28.4-7.2m-162.4 18.9c-6.5 1.2-7.7 1.9-8.6 5.4-.7 2.7-.3 5.2 1 6.6 1.1 1.2 1.3 1.1 2.2-1.1.9-2.1 2-4.1 3.1-5.3 1.1-1.3 1.9-1.7 5.7-2.5 1.6-.3 1.6-.3.7-1.5-1-1.4-2.4-2-4.1-1.6m2.6 6.3c-4.5 1.2-7.4 5.6-5.8 8.7 3.2 6.2 3.6 7.2 5.3 14.5.8 3.3 1.8 6.7 3.1 11 2.8 8.8 3.6 11.6 5.4 18.6 4 15.7 7.7 28.6 11.8 40.9 4.7 14.3 4.9 15.6 6 30.6 2 26.8 4 51.3 6.3 76.7.8 9.3 1.2 11.9 2.7 21.7 3.7 24.1 3.4 32.7-2.1 53.9-.5 1.8-.2 1.6 1.1-1.1 3.9-8.1 7.3-17.9 8.7-24.7.6-2.8.4-8.7-.4-15.3-3.7-29.8-6.7-68.7-8.4-112-.2-4.6-.4-8.9-.4-9.7-.1-1.5-.1-1.7-4.6-14.8-3.7-10.8-4.3-13.1-7-26.7-3.8-19.1-5.7-27-10.5-43.2-3.3-11.2-4.4-16.2-5-23.3-.4-5.2-2.1-6.9-6.2-5.8m-9.3 9.1c-.4.5-.4 1.2.1 3.3l.3 1.2 1.2.3c.6.2 1.2.3 1.3.3.2 0 0-3.2-.2-4-.4-1.5-2-2.1-2.7-1.1m.6 5.6c0 .4.4 2.1.6 2.2.1.1 1.9.5 2.1.6.1 0-.1-1.9-.3-2.3-.1-.2-2-.9-2.4-.9.1 0 0 .2 0 .4m30.3.3c-1.8.4-2.2 1-3.4 5.3-1.7 6.5-2.2 10-1.9 13.1.2 2 .1 1.8 1.6 2.4 1.7.6 3.2 1.5 4.2 2.4.5.4.9.8.9.8.1-.1 1.4-3.7 1.4-3.8 0-.7-2.7-2.7-4.1-3-1.4-.3-1.5-.3-1.5-.7 0-1.1 4.8 1 5.5 2.4.1.2.3.3.3.2.2-.2 1.3-3.9 1.3-4.3 0-.4-1.9-1.6-3.5-2.2-2.1-.8-2.1-.8-1.9-1.1.2-.5 2.5.2 4.6 1.5.8.5 1.2.7 1.3.5.3-.8 1.3-4.3 1.3-4.4 0-.3-1.3-.9-2.5-1.2-1.3-.3-1.6-.8-.6-.8.6 0 2.3.5 2.9.9.5.3.5.3.9-1.1 1.6-5.3-1.1-8-6.8-6.9m-29.5 3.2c.9 3.7.6 3.3 1.9 3.7 1.1.3 1 .5.6-1.8-.3-1.7-.3-1.7-2-2.1-.6-.2-.6-.2-.5.2m1.3 5.6c.2.8.4 1.9.5 2.5l.2 1 1 .2c1.2.3 1.2.5.6-2.1l-.5-2.2-.7-.3c-.4-.2-.8-.3-1-.4l-.4-.1.3 1.4m.9 4.4c0 .2.8 4.2.9 4.2.2.1 2.4.6 2.4.5.2-.2-1.2-4.5-1.4-4.5-.5-.1-1.9-.3-1.9-.2m1.1 5.5c.1.2.2 1.2.4 2.2l.3 1.8.8.2c.4.1 1.2.4 1.7.6 1.2.5 1.1.6.3-1.9-.9-2.7-1-2.8-2.9-3.2-.7-.2-.7-.2-.6.3m32.4 1.8c-.5 2.5-1.1 4.7-2 7-1 2.7-1.3 4.3-.7 4.3.5 0 2.7-4.2 3.5-6.6l.5-1.5-.4-1.4c-.2-.8-.4-1.9-.5-2.5l-.1-1.1-.3 1.8m-76.6-.6c-1.3.3-1.6.6-4.7 5-3.5 5-6.5 8.4-19 20.9-34.8 35-36.5 37.3-35.4 47.9 2.3 22 10.2 89.2 11.6 98.3 2.4 14.9 6.8 31.7 13.4 50.5 2.6 7.6 3.5 10 3.6 9.8 0-.1-1.9-9.7-4.4-21.4-7.3-34.5-7.1-33.9-8.2-51.2-1.2-19.3-4.4-46.4-7.3-61.3-3.2-16-3.3-21.1-.7-28.6 2-5.8 5.3-11.1 11.3-18.3 5.2-6.3 7.8-8.9 23.2-23.7 12.2-11.7 12.4-11.9 17.9-16.4l3.9-3.2.7.2c3.9 1.4 6.6-3.1 3.8-6.2-1.7-1.9-6.4-3-9.7-2.3m65.7 1.5c0 1.7 2.5 6.1 3.5 6.1.6 0 2.2-1.8 2.2-2.5s-2.4-2.6-4.4-3.4c-1.3-.5-1.3-.5-1.3-.2m-20.7 2.4c.4 1.4 2.3 15 2.7 19.8.4 5.1.5 6.4.5 19.4 0 7.1.1 13.1.2 13.2.4.8 2.7 1.1 4.4.7.8-.2 1.2-.2 1.3-.1.8.8-2.7 1.4-4.7.8-.5-.1-.8-.3-.8-.3l.4 2.2c.3 1.2 3.7 1.8 5.7 1.1.8-.3 1.1-.2 1 .3-.2.6-3.3 1-4.9.5-1.3-.3-1.3-.3-.7.8.7 1.3.8 1.3 3.6 1.3 3.5 0 5.3-.6 6.8-2.1.4-.4.8-.7 1-.7.6 0 .3-1.1-1.3-4.5-2-4.2-2.8-7.8-3.2-13-.1-.8-.1-2-.2-2.5l-.1-1-.9-.3c-.5-.2-1.5-.3-2.2-.3-1.4-.1-1.6-.1-1.4-.5.1-.3 2.2-.3 3.5 0 .5.1 1 .3 1.1.3.2 0-.1-4.2-.3-4.5-.5-.6-1.9-1.1-3.3-1.2-1.2-.1-1.4-.1-1.4-.4 0-.7 2.9-.6 4.1.3.2.1.4.2.5.2.3 0-.2-3.8-.5-4.1-.3-.3-1.6-.8-3.1-1.1-1-.2-1.4-.4-1.4-.5 0-.4 1.8-.3 3.2.2 1.4.5 1.4.6.9-1.9-.6-2.7-1-3.2-3.1-3.4-.7-.1-1-.2-1-.4 0-.4 1.6-.4 2.4-.1.8.3.8.4.2-1.7-.6-2.1-.7-2.2-2.3-2.5-.7-.1-1.1-.3-1.1-.5 0-.3 1-.4 1.8-.2.3.1.6.1.6.1 0-.2-1.9-6-2-6.2-.1-.1-.9-.4-1.7-.8-1.6-.6-1.8-.7-1.6-1.1.1-.2.9 0 2.7.7.2.1.1-.4-.6-2.5l-.9-2.6-1.3-.7c-1.9-.5-2.7-.6-2.6-.2m-92.4 1.9c-.6 2.8-6.2 21.3-7.8 25.4 0 .1.2 0 .6-.2 1.1-.7 2.7-1.4 4.6-1.9.9-.3 1.7-.5 1.8-.6.1-.1.5-2.4.5-2.6 0-.2-1.3 0-2.5.3-1.1.3-1.4.3-1.4 0 0-.5 1.9-1.1 3.4-1.1.5 0 .7-.1.7-.4 1.1-5.1 2-7.5 2.9-7.7.4-.1 1.7.6 3.4 2 1.5 1.3 1.3 1.3 2.4-.2.5-.7 1.5-1.9 2.2-2.6 1.5-1.6 1.6-1.4-1-4-1.8-1.9-3.6-3.4-7.2-6-1.1-.9-2.2-1.6-2.3-1.7 0-.1-.1.4-.3 1.3m125.4.1c-.5 1.5-1.7 3.8-2.8 5.4l-1 1.5.3.9c.2.5.4.9.4 1 .3.6 2.6-2 3.8-4.4.9-1.8.9-1.6.3-3.6-.6-1.9-.6-1.9-1-.8m-66.1.4c0 2-.9 4-2.3 5.4-.6.6-.6.6-.4 1.1 1 1.6 3.8 7.2 8.3 16.3 6.9 13.9 10.4 20 14.6 25.2.9 1.2 2.5 1.1 4.1-.1.7-.5 1.1-.6 1.1-.1 0 .6-2.3 1.8-3.4 1.8-.6 0-.6.1.6 1.4 1 1.1 1 1.1 1.8 1.1.9 0 2.3-.5 2.8-1.1.4-.4.9-.4.8.1-.1.5-1.6 1.4-2.8 1.6l-.9.2.9.9c1.3 1.3 2.8 1.2 4.4-.3.7-.7 1.3-.8 1.3-.3 0 .6-2.5 2.3-3.4 2.3-.5 0-.4.3.5.8 1.7 1.1 3 1.3 3.8.5.9-.9.5-3-2.5-10.5-.7-1.8-1.6-4-1.9-4.9-1.1-2.8-2.2-4.5-6.1-9.8-9.5-12.6-15-21.2-17.9-28-2.1-4.8-3.3-6.1-3.4-3.6m67.2 5.2c-.9 1.7-2.1 3.1-3 3.7l-.7.4.6 1.8.6 1.8.5-.3c.9-.5 2.7-2.5 3.4-3.6l.6-1.1-.5-2.1c-.6-2.5-.5-2.4-1.5-.6M78 161a64 64 0 0 0-2.2 2.7l-1.1 1.4 1 1c1.3 1.2 1.1 1.2 1.7.1.6-1 1.8-2.8 2.6-3.7.7-.8.7-.8-.2-1.8l-.7-.8L78 161m116.7-.6c-.6 1-2.4 2.8-3.4 3.4-.5.3-.8.6-.8.8 0 .1.3 1.1.5 2.1.5 2.2.4 2 1.1 1.6 1.4-.9 3.6-4 3.6-5.2 0-.3-.7-3.4-.7-3.4.1.1-.1.4-.3.7m-114.2 2.7c-.7.9-2.4 3.4-2.7 4.1-.2.5-.2.5.9 1.5l1.2 1.1.8-1.1c.4-.6 1.3-1.7 2-2.5l1.2-1.3-1.2-1.3c-1.6-1.6-1.4-1.5-2.2-.5m32.9.7c-1 .3-1.1.5-2 1.2-.6.5-1.2 1.6-1.2 2s2.8 1.5 4 1.5c.2 0 .5-.4.8-.9.5-.9 2.1-2.7 3-3.4l.5-.3-.7-.2c-1.7-.5-3 .4-4.2 3-.6 1.3-1.2 1.8-1.2 1 0-.5 1.1-2.6 1.8-3.4.8-1 .7-1.1-.8-.5m5.1.9c-1.6 1-3.6 3.8-3 4 1.3.4 1.3.4 2.5-.9.9-.9 1.4-1.2 2.2-1.5 1.2-.4 1.2-.4 0-1.3-1-.8-.9-.8-1.7-.3m77.2.9c-.6 1.2-1.7 2.4-2.8 3.2-1.2.9-1.2.8-.4 3.7.5 1.9.5 1.9 1.8.3 2.2-2.6 2.7-4.3 2.3-6.6-.3-1.7-.4-1.7-.9-.6M82.9 167c-.7.9-1.6 1.9-1.9 2.4l-.6.9.4.4.4.4.9-1.3c.5-.7 1.4-1.9 2-2.6l1.1-1.2-.4-.3c-.5-.4-.5-.4-1.9 1.3m2 .6c-2.7 2.9-3.6 4.8-2.3 4.7.4 0 3.4-4.3 3.4-4.8.1-1-.1-.9-1.1.1m35.5-.6c-.9.3-2.6 1.8-2.5 2.2 0 .1.4.4.9.7l.9.5.7-.7c.4-.4 1.1-.9 1.6-1.1 1-.4 1-.4.3-1.4-.5-.7-.7-.7-1.9-.2m1.9 2.2c-.5.2-1.1.7-1.5 1.1l-.7.7.3.5c.5.7 1.1 2.2 2.6 5.8 3.3 8 7.5 16.1 12.1 23.6 2.1 3.4 2.1 3.4 3.8 3.1 1.5-.2 1.5-.2 1.5.1 0 .4-.8.7-2 .7h-.7l.3.5c.6 1.1 2.1 1.4 3.3.7 1-.6 1.7-.2.8.5-.6.4-1.5.7-2.2.7-.5 0-.6 0-.4.3.6.7 3.1.1 4.4-1.1 1-.9 1.4-.3.4.6-.7.6-1.4 1-2.6 1.4l-.9.3.5.3c1.3.9 3.4 1.2 4.2.5 1.4-1.2-.2-5.5-2.8-7.3-2-1.3-3.4-3.2-5.8-7.6-2-3.7-2.7-4.7-5.3-7.7-3.6-4.3-4.4-5.8-5.9-11.1-1.2-4-2.2-6.9-2.6-6.9.1-.1-.3.1-.8.3m74.5 1.3c-.7 1.3-1.4 2.3-2.5 3.5l-1 1.1.2 1c.1.6.3 1.6.4 2.3l.1 1.3.9-.8c1.1-.9 2.4-2.5 2.9-3.6l.4-.8-.4-2.4c-.5-2.8-.5-2.7-1-1.6m9.2.2c-.8.3-2.1 1.1-2.7 1.7l-.5.5.9.3c1.9.6 3.5 1.7 4.7 3 .6.7.7.7 1.1-.4 1.3-3.3-.6-6.1-3.5-5.1m-92.4 2.4c-2.8 1.1-8.2 3.7-8.9 4.3-.1.1.3 1 .9 2l.5.9 1.1-1.1c2.1-2 7.2-4.5 9.4-4.5.4 0 .4-.2-.3-1.3s-.6-1.1-2.7-.3m153.3-.4c-.9.3-2 .8-6.5 3.4-10.7 6.1-17.1 8.6-27.3 10.5l-2.3.5-.5.9c-1.3 2.6-2 8.4-1.4 11.1.1.4.5.3 1.9-.2l.6-.3v-1.3c0-2.5.6-5.4 1.1-5.4.4 0 .4.2.2 1.2-.3 1-.7 4.8-.5 4.9 0 .1.9-.3 1.8-.9l1.7-1-.1-1.8c-.1-1.9.2-3.8.6-3.9.5-.2.6.2.3 1.3-.2 1-.3 3.5 0 3.7 0 0 1.2-.5 2.5-1.1l2.4-1.2v-.8c0-1.2.3-3.3.6-3.6.4-.6.7 0 .4 1.1-.1.5-.2 1.4-.2 1.9v1l2-1.1 2-1.1.3-1.2c.4-1.4.9-2.7 1.1-2.7.4 0 .4.5-.1 1.7-.7 2-.8 2 1.9.7 2.6-1.4 2.6-1.4 2.8-2.5.2-1.5.6-2.7 1-2.6.2 0 .3.2.3.3 0 .1-.2.8-.4 1.6s-.3 1.3-.3 1.4c.1.1 6-3.3 9.5-5.4 6.2-3.8 6.3-3.7 12.9 1.5 11.1 8.8 19.7 14 37.6 22.9 27.4 13.6 31 17 52.8 49.6 9.8 14.7 18.6 28.8 32.8 53 6.9 11.6 6.9 11.7 4.5 6.6-2.8-6-31.7-61.5-37.9-72.9-9.7-17.8-12.3-20.7-23.2-25.7-17.4-8-35.4-18.5-51.7-29.8a95.3 95.3 0 0 1-9.7-7.5c-6.7-6.1-10.3-7.8-13.5-6.8m-64.9 1.5c-.4.7-.5.7.6.9 1.4.3 3.1 1.2 4.3 2.4l1.1 1 .3-.4c.7-1.1-3.8-4.4-5.9-4.4 0-.1-.2.2-.4.5m-138.3.1c-3.7 1.2-5.3 2.4-5.9 4.1-.2.7-.4 1.3-.4 1.3s.7-.3 1.5-.6c1.5-.6 5-1.9 5.5-1.9s.6-.3.9-1.7l.2-1.5c0-.3-.3-.2-1.8.3m51.5 1.6c-3.1.9-5.4 2-7.2 3.6-1.6 1.4-1.6 1.7 0 3.6.1.1.4-.3.9-.8 1.4-1.8 4.4-3.7 7.6-4.8 1.7-.6 1.7-.6 1.3-1.3-.4-.8-.6-.9-2.6-.3m86.2 0c-.6 1.6 1.5 3.9 3.4 3.9.9 0 2.4-.5 2.4-.8 0-1.1-5.4-4-5.8-3.1m-54.9.4c0 .5 5.8 10.4 6.1 10.4.3 0 1.3-1.3 1.7-2.1 1.1-2.2.1-3.8-3.9-6.1-1.1-.6-2.4-1.4-2.9-1.8-.6-.3-1-.5-1-.4m51.2.7c-.7 1-2.1 2.5-3.1 3.2-.7.5-1.1 1.1-.9 1.3.1.1 4.7-1.1 4.9-1.3.3-.3 0-3.7-.3-3.9 0-.1-.3.2-.6.7m15.9.3c-.2 1.1-.4.9 1.7 2.1 1.1.6 1.8 1.2 3.2 2.6l1.8 1.8.2-.5c.1-.3.4-1 .7-1.6l.4-1.1-.5-.7c-1.5-1.9-4.6-3.4-7.1-3.5-.1-.1-.3.3-.4.9m-96.8.8c-3.8 1.4-7.2 3.7-8 5.6-.2.4 1.4 2.8 3.1 4.8l.5.6.9-1.3c1.6-2.2 3.8-4 6.4-5.2l1.3-.6-1.2-2.2c-1.4-2.6-1.1-2.4-3-1.7m-53.5.1c-3.1.9-6.3 2.4-6.5 2.9-.1.4-.4.4 3.5-.1 3.9-.6 4.6-1 4.6-3 0-.2 0-.2-1.6.2m35.2.1c-1.6.3-3.4 3.8-3 5.7.2.7.2.7 1-.4.9-1.3 2.5-3.2 3.5-4 1-.8 1-.8.2-1.2-.7-.2-1-.3-1.7-.1m-25.3 1.5c-.7.6-3.6 2.1-5 2.7-.4.2-.8.3-.8.3s.1.3.3.7c.2.4.3.8.3.9 0 .5 2.2-1.3 4.6-3.7 1.4-1.4 1.7-1.9.6-.9m139.7 0c-.4 1.5-.4 1.7 0 1.8 2.1.5 5.3 3.2 5.8 4.7.2.5.3.4.7-.6.5-1.2.5-1.2-.5-2.5-1.2-1.5-3-2.9-4.7-3.8-1-.4-1.1-.3-1.3.4m-112.7.6c-1.3 1.2-2.5 2.7-3.4 4.1l-.5.9.4.4.4.4.8-1.3c.8-1.2 2.9-3.6 4-4.4l.5-.4-.4-.4c-.5-.5-.5-.5-1.8.7m1.5 1.3c-2 1.6-4.2 4.7-3.7 5.2.2.2.3.2.8-.5.6-.8 1.8-1.6 2.3-1.4.4.2.3.4-.4.8-1.7.9-2 1.7-.9 2.7l.8.7.3-.6c.3-.6 1-1.3 1.4-1.3.5 0 .4.5-.3 1.1-1 1-.9 1.2.9 2.8 4.2 3.7 12.2 12 17 17.6l1.9 2.2 1-.5c.5-.3 1.5-1 2.1-1.5 1-.9 1.4-1.1 1.4-.6 0 .3-1.9 2-2.9 2.6l-1 .5.5.5c.9.9 3-.1 4.2-2.1.5-.8.6-.9.9-.5.4.5-1.4 2.6-2.7 3.3-.7.3-.8.6-.4.7 1.4.5 4.9-1.8 6.3-4.1.3-.5.6-1 .8-1 1.4 0-1.8 4-4.1 5.1-1.1.5-1.1.5-.6.7 2 .5 5.5-1.5 6.1-3.5.6-2.3-.3-3.6-3.1-4.1-2.9-.5-4.5-1.5-8.1-4.8-1.3-1.2-3.2-2.9-4.2-3.7-4.6-3.7-9-8.6-13-14.7-2.2-2.8-2-2.7-3.3-1.6m110.3 1.7l-.3 1 .6.4c.8.6 1.3 1.3 2.3 3.4 1.9 4.1 2 4.2 2.9 1.8.4-1 .8-2 .8-2.2 0-1.2-2.4-3.9-4.4-4.8-1.5-.9-1.6-.9-1.9.4m-92.3 0c-2.4 1.2-4.6 3.1-6 5.2l-.7 1 .5.5c.6.6 2.7 2.4 2.8 2.3 0 0 .3-.5.5-.9 1-1.8 2.8-3.6 5.2-5.1l1-.7-.7-1.3c-1-2-.7-1.9-2.6-1m80.2-.5c-4.3.5-9 3.4-11.5 7-.5.7-.4 1.5.3 2.9.4.8.4.8.7-.6.5-2.1 1.4-3 5-5.2 3.1-1.9 7.6-2.8 9.2-1.7l.5.3-.8.2c-5.8 1.3-10.2 11.4-8.9 20.2.3 2 .8 3.7 1.8 6.3 1.8 4.8 2.1 5.9 2.2 10.7l.1 3.6 2.2.7c1.2.4 3 .9 4.1 1.2 2.4.6 4 1.1 4.3 1.4.9.7-.1-.5-3-3.6-4.3-4.6-4.1-3.9-2.8-8.4.5-1.7.8-3.2.8-3.3 0-.1.1-.3.3-.4.2-.1.3-.5.4-1.7.1-2.1 0-2.6-1.3-3.5-1.6-1.2-1.8-1.3-4-1.4l-1.9-.1.7-.3c.8-.4 2.2-.5 3-.3.8.2.7-.1-.2-.4-.4-.2-1.2-.3-2.6-.3-2.3 0-2.4-.1-1.8-.6 2.2-1.7 6.5-1.1 7.3 1 .1.3.5 1 .8 1.5.8 1.3 1.2 2.7 1.4 4.2l.1 1.3.4-.1c.8-.2 3.5-1.6 4.6-2.3l1-.7-.7-.2c-2.2-.6-4.3-3.4-4.2-5.8 0-2.3 2.8-5.4 5.2-5.9l.6-.1-.8.6c-.8.6-2 2.1-2 2.4 0 .1.4 0 .8-.2 1-.5 1.4-.4.6.2-2.6 1.7-2.3 4.7.8 6.7.5.3.7.6.7.8 0 .2 0 .3.1.3.1-.1.4.1.8.5.4.3 1.5 1.1 2.4 1.7 1 .6 1.8 1.3 1.9 1.5.4.8-1 7.3-2.4 11.5-.7 2-.6 2 .6.4 2.7-3.6 6.8-11.9 7-14 .1-1.1-.5-2.1-2.6-3.7-1.7-1.4-2.2-1.5-2.7-.5-.3.5-.7.6-.8.1 0-.2.2-.6.6-1 .5-.5.6-.7.4-.8-.4-.1-1.1.4-1.3.9-.2.5-.4.5-.6.2-.3-.3.3-1.3.9-1.6.6-.3.7-.4.4-.6-.2-.1-1.3.4-1.5.8-.2.4-.8.4-.8 0s.8-1.1 1.5-1.4c.6-.2.5-.5-.7-2-.6-.7-.8-1.1-.8-1.7-1.9-11.6-7.7-17.7-15.8-16.7m-135.6.9l-2.2.8.5.6c.3.3.7 1 1 1.5.3.5.6.8.7.8 1.8-1 3.2-2.3 3.1-2.7-.2-.6-.7-1.7-.8-1.7-.1-.1-1.1.3-2.3.7m-5.5 1.9c-3.6 1.3-3.4 1.2-2.1 2.2.5.4 1.4 1.2 1.8 1.7l.8 1 2-1.3c1.1-.7 2-1.3 2-1.3 0-.5-2-3.1-2.3-3.1 0 0-1 .3-2.2.8m32.9 2.1c-12.7 13.7-16.3 30.7-10.5 48.4 6.4 19.2 17.7 34.6 32.1 43.7 3.4 2.2 7 3.7 9.4 4.1l.7.1-.4-.4c-.2-.2-1.8-1.5-3.4-2.8-10.5-8.5-16.4-14.7-20-21.1-.5-.9-.6-1.5-.1-1.5.1 0 .7.8 1.3 1.8 3.9 6.6 9.2 12.1 21.3 21.8 3.1 2.5 3.1 2.5 5.5 2 4.8-1 8.6-3.8 15.9-11.5 21.1-22.5 28-33.9 28-46.6 0-5-1.1-9.3-2.6-10.2-.9-.5-3.2-.7-3-.2 1.7 3.2 2.7 9.4 2.4 13.7-.4 4.9-2.7 11.7-3.4 10.4-.1-.1.2-.9.6-1.8 2.8-6.6 2.9-14.7.1-21.2l-.6-1.5h-1.4c-.8 0-1.4 0-1.4.1s.2 1 .5 2.1c1.5 5.8 1.5 16.6 0 15.7-.2-.1-.2-.5 0-2.1.6-4.6.2-10-1.1-14.6l-.4-1.3-1.7-.1c-2.1-.2-2-.3-1.5 1.7.8 3.8.9 9.1.3 9.1-.3 0-.3-.1-.4-3.3-.1-3.1-.5-6.2-1-7.4-.1-.3-2.9-1.2-3.1-.9 0 0 0 .9.1 2 .2 3.7.2 5-.1 4.9-.3-.1-.4-.6-.7-5.1l-.1-2.1-.8-.3c-.5-.2-1.1-.4-1.4-.6-.7-.4-.7-.4-.9 2.3-.2 2.2-.2 2.4-.5 2.4-.4 0-.4 0-.2-2.8l.1-1.8-2 .1-2 .1-.3.6c-.2.3-.5 1-.6 1.6-.2.7-.4 1-.5 1-.4 0-.3-1.4.2-2.3l.4-.8-1.2.1c-1.7.2-3.6.9-5.5 2-3.7 2.3-4.3 2.6-5.2 3-4 1.5-9.1-.7-15.3-6.8l-2.1-2.1-.3.6c-.7 1.1-.9 2.3-.8 3.9.1 1.4.1 1.6-.2 1.6-.9 0-.8-3.5.2-5.5l.6-1.1-2.5-2.6-2.5-2.6-.8 1.6c-1.2 2.5-1.6 4.4-1.8 7.4-.1 2.5-.3 3.2-.7 2.2-.7-1.8.4-7.3 2-10.5l.7-1.3-2.1-2.1c-2.2-2.2-1.9-2.1-2.7-.9-3.4 5.5-4.9 13-3.7 18.7.1.5-.3.9-.6.7-.4-.4-.7-5.6-.4-8 .5-4.2 2-8.7 4.1-12 .7-1.1.8-.9-1.3-3l-1.8-1.8-.7 1.5c-3.1 6.7-4.4 13.2-4.3 21 .1 3.9.1 4-.3 3.9-.5-.1-.6-2.2-.5-6.3.2-6.9 2-14.1 4.8-19.8l.5-1-1-1.2c-1.2-1.5-1-1.6-2.3.4-5.6 8.5-8.3 19.6-7.4 29.9.2 2 .1 2.6-.4 2.2-.5-.5-.7-8-.2-11.7 1-8.1 3.5-14.7 8.5-22.5.2-.4-3.2-4.8-3.8-5-.1-.1-.9.7-1.8 1.7m30-.4c-2.4 1.6-4.7 4.2-4.7 5.3 0 .3 4.2 3.4 4.3 3.2.1-.1.4-.5.7-1 .7-.9 2.2-2.2 3.5-2.8l.8-.4-.3-.7c-.2-.4-.9-1.5-1.4-2.6-1.3-2.3-1-2.2-2.9-1m-70.6 1.8c-4.9 2.5-6.5 3.1-8.6 3.4-1 .1-2.5.4-3.4.5-8.9 1.3-8.5 13.1.9 29.6.9 1.7 2.6 4.7 3.7 6.8l1.9 3.8.6-1.2c.3-.7.9-1.6 1.3-2 .8-1 .8-.8-.2-3-6.9-14.3-8.8-21.4-6.6-24.4 1.3-1.7 6.5-5.3 14.5-9.9 1.8-1 3.3-2 3.3-2 0-.3-1.9-2.1-2.8-2.8l-1-.7-3.6 1.9m177.2-1.7c-.7.1-1.3 1.2-2.2 4-1 3-1.9 8.9-1.3 8.9.2 0 2.1-.4 3-.6.3-.1.3-.2.3-3.4 0-3.8.4-6.2 1.5-8.8.1-.3-.1-.3-1.3-.1m-2.5.3c-.3.1-.5.2-.6.7-1 3.1-3.9 9.5-5.7 12.6-.9 1.4-.9 1.5-.1.9.5-.4 1.2-.6 3.9-1.3l.7-.2.1-2.2c.2-3.2 1.2-7.6 2.5-10 .2-.7.3-.7-.8-.5m-130.4.9c0 .1-.3.7-.8 1.3-8.6 10.6-11.8 25.8-8.6 39.7.3 1.5.4 1.9.2 2.1-.3.3-.5-.1-1-1.8-3.4-14-.1-29.3 8.7-40.5 1.1-1.1 1.4-1.3 1.5-.8m112.5 1.3c.2.1.1.2-.3.2-2.3 0-4 4-2.1 4.8.6.3.4.5-.3.4-1.1-.2-1.4-1.3-.8-2.8.7-2.1 2.4-3.3 3.5-2.6m.7 1c.9.5 1.1 1.8.3 2.9-1 1.5-3.3 1.4-3.3-.1 0-.4 0-.4.2.1.4.9 1.2 1.1 2 .6.5-.3.5-.6.1-.6-.7 0-.5-1.2.2-1.8.5-.4-.6-1-1.4-.8-.2.1-.1 0 .1-.2.5-.5 1.1-.5 1.8-.1m-83.2 2.1c-1.3.8-2.7 2.1-3.1 2.9l-.3.6.8.7c.5.4 1.2 1.1 1.7 1.6s.9.9.9.8c0 0 .3-.5.5-1.1a9 9 0 0 1 1.6-2.1l1.1-1.1-.9-1.5c-1-1.7-.9-1.7-2.3-.8m74.3.9l.5.5-.8-.3c-2.6-.9-4.4 2.8-2.5 4.9.5.6.4.7-.4.3-1.1-.6-1.7-1.9-1.4-3.1.9-2.2 3.3-3.5 4.6-2.3m0 1.2c1.5 1.6-.1 4.8-1.8 3.8-.1-.1.1-.1.5-.1.5 0 .8-.1 1.1-.5l.5-.5-.4.1c-.5.1-1.1-.4-1.1-.9s.3-1 .6-1c.1 0 .2-.1.2-.2-.1-.2-1-.2-1.4 0-.4.2-.4.1.1-.6.3-.7 1.1-.8 1.7-.1m11.6 0c.8.4 0 1.8-.9 1.6-.7-.2-.8-1.2-.1-1.6.5-.2.6-.2 1 0m-83.3 2.1c-1.9 2-2.2 3.1-1.2 4.6 1 1.6 1.7 1.9 2 1 .3-.8 1.2-2 1.9-2.5.8-.5.8-.5-.4-2.5-1.2-2-1-1.9-2.3-.6m84.2-.3c0 .4-1.1 1.1-1.8 1.2-.7.1-1.6-.4-1.6-1 0-.4.4-.4.8 0s.5.4 1.3-.1c.9-.5 1.3-.5 1.3-.1m-5.1.2c.3.5.2 1-.3 1.2-.8.3-1.3-.5-.9-1.3.4-.5.9-.5 1.2.1m-1.7 1c.1.3.2.6.5.7.6.3.6.9.1.9-.9 0-1.7-1.1-1.3-1.9.3-.5.6-.3.7.3m-3.3.6c.9.5.8 1.8-.2 1.8-.9 0-1.5-1.4-.8-1.8.4-.3.6-.3 1 0m-.8 1.9c.3.2.7.2 1.1.2.6 0 .7 0 .7.3 0 .7-1.7.7-2.6 0-.7-.7 0-1 .8-.5m-70.6.7c-.8.7-1.5 2-1.4 2.4.1.1.6.4 1.3.6.7.2 1.6.5 2.1.7.5.2.9.2.9.2 0-.7-1.7-4.5-2-4.5-.1-.1-.5.3-.9.6m67.2-.5c.7.3.6 1.7-.1 1.7-.9 0-1.5-1.5-.7-1.7.5-.2.5-.2.8 0m42.9.7c-.5.4-1.8 2.9-1.8 3.4 0 .3.7 1.3 1.4 2.1 0 0 .3-.5.7-1.1.7-1.2 1.4-2.2 2.5-3.3l.7-.7-.6-.3c-.8-.6-2.3-.6-2.9-.1m-2.5 0c-1.9.2-1.8.1-.9 1.5 1 1.4.9 1.4 1.7-.3l.7-1.4-1.5.2m5.9 1.5c-1 1-2.1 2.6-2.7 3.7l-.5.9 1.1 1.1 1.1 1.1.4-.9c.5-1.2 1.4-2.6 2.5-3.8.5-.5.9-1 .8-1l-1.1-.9-1-.9-.6.7m-47.5-.3c.1.1.4.3.6.3.3 0 .4.1.4.4 0 .6-1.3.4-1.7-.3-.3-.5.2-.9.7-.4m49.8 3.3c-1.1 1.3-2.4 3.6-2.4 4.2 0 .3 1.6 1.8 1.9 1.8.1 0 .4-.4.7-.9.5-.8 2.3-2.7 2.6-2.7.5 0 .3.6-.6 1.5-1 1-2 2.4-1.8 2.7.1.1 1 .8 2.1 1.5l2 1.3.1-.9c.2-1.8 1.7-4.3 2.1-3.4 0 .1-.2.7-.5 1.2-.6.9-.9 2.2-.9 3.1 0 .4 3.7 3.3 3.9 3 0 0 .2-.4.4-.9.5-1.2 1.2-2.1 1.5-2.1.5 0 .4.4-.3 1.3-.6.9-1 1.9-.9 2.3.1.2 2.9 2.4 3 2.3 0 0 .2-.4.4-.7.4-.8.7-1.1 1-.9.2.1.2.3-.2 1-.6 1.2-.7 1.1 2 3.1 14 10.7 20.9 20.3 22.9 32.2.7 4.2 2.3 22.2 3 33.4.3 4.5.4 4 .6-2.1.8-19.6.6-44.6-.4-47.5-.4-1.1-1.3-2.1-4.7-4.9-1.6-1.3-4.9-4.2-7.4-6.5-6.3-5.7-6.7-6-17.1-14.6-8.9-7.3-11.5-9.3-11.7-9.3-.2.2-.7.7-1.3 1.5m-71-.1c-.8 1.7-4.1 3-8 3h-1.9l.4.4c2.7 2.9 8.6 1.8 9.6-1.7.3-1.1.2-2.5-.1-1.7m-32.9 18.9c6.9 2.2 11.3 9.8 8.4 14.4-1.3 1.9-1.5 2.7-1.8 5.9-.4 4.4-1.1 5.4-5.3 7.8-3.1 1.8-3.7 2.4-4.4 4.7-.2.8-.9 2.7-1.4 4.2-.8 2.2-1 3-1.1 4.1l-.1 1.3h-1.1c-.6 0-1.1 0-1.1-.1s.2-.9.4-1.8c.5-2 .5-1.9-1.1-2.5-1.3-.5-1.1-.7-1.5 1.8l-.4 2.1c-.2.2-2.9-.7-2.8-1 .9-2.1 1.6-4.7 1.4-4.9-.8-.5-1.8.1-2.7 1.9-.7 1.3-1.3 2-1.9 2-.8 0-.8-.2.1-2.5 1-2.7 1.1-2.8.1-3.2-1-.4-1.4-.4-1.4.1s-1.1 2.6-1.4 2.9c-.2.2-.4.1-1.2-.1-.5-.2-1.2-.3-1.4-.3-.7 0-.8.3 1.5-4.3 2.8-5.6 2.9-6.6.4-9.4-1.3-1.4-1.5-1.9-1.5-3.1 0-1.6.3-2.1 3.8-6.2 1.3-1.6 1.5-2 2.1-5.7.7-4 .6-3.9 2.5-5.2 4.7-3.2 9-4.2 12.9-2.9m-94.8 6c-.4.5-.9 1.4-1.3 2.1-.7 1.4-.7 1.4.3 3 .8 1.5.8 1.5 1.3 0 .2-.8.7-1.9 1-2.6l.6-1.2-.4-1c-.7-1.3-.7-1.3-1.5-.3m159.1 1.6c-.4 1 .1 3.1 1.4 6.8 2.1 5.6 3 16.7 2.1 25.1-.5 4.9-1.2 9.3-2.3 15.6-.7 4-.9 5.6-.3 3 .3-1.6.8-3.2 2-7.4 3.2-10.9 4.3-22.3 3.2-35.1-.6-6.6-.9-7.3-3.5-8-1.8-.6-2.4-.6-2.6 0m-157.6 2.2c-.3.7-.6 1.9-.8 2.6l-.3 1.3 1.2 2.1 1.2 2.1.1-3.1c.1-1.7.1-3.2.2-3.3.1-.2-.9-3.1-1.1-3.1.1.1-.2.7-.5 1.4m2.3 3.8c-.3 1.7 0 5.8.6 7.6.2.7.4 1.5.5 1.9 0 .4.1.7.2.7.3 0 0-5.8-.5-8-.6-2.6-.7-2.9-.8-2.2M128 240c-1.4 1.5-1.7 2.1-1.2 3.2 1 2 3.5 3.7 5.5 3.7 3 0 3.2-1 .7-3.5-1-1.1-1.5-1.7-1.9-2.6-.9-2.1-1.7-2.3-3.1-.8m-84.7 1.1s-.2 1.4-.4 3l-.4 3 1.2.8c.7.4 1.6 1.1 2.1 1.6 1.1 1 1.1.9.6-1.3-.5-2.2-3-7.8-3.1-7.1m97.5 3.6c-.8.2-1.7.5-2 .6-1.2.3-1.9 3.1-.9 3.8 1.5 1.1 6.9-.5 7.2-2.2.4-2.3-1.2-3.1-4.3-2.2m-98.4 3.6c0 .2-.2 1.2-.3 2.2s-.2 2-.3 2.2c-.1.3.2.5 1.1 1.2.7.5 1.6 1.2 2.2 1.6 1.2 1 1 1 1.4-.9.5-3.3.2-4-3.4-6.2l-.7-.4v.3m91.8 1.8c-.2.2-.4.4-.4.5 0 .1-.8 1.2-1.7 2.4-1.9 2.5-1.9 2.3-.5 2.7.6.2 1.6.5 2.3.8 1.4.6 1.3.9 1.1-2.8-.1-1.7-.2-3.3-.2-3.5 0-.5-.1-.5-.6-.1m-92.5 4.2c-.6 1.8-1.5 14.5-1.6 23.2-.1 9-.3 12.6-.7 15.1-.1.7-.2 1.2-.1 1.2S46 258 46 257.5c0-.7-4.1-3.7-4.3-3.2m29.5 12.9s.2.4.3.9c.5 1.2.9 3.2 1.3 6.4.6 5 .9 5.7 3.6 10.7a641 641 0 0 1 10.5 20c7.5 14.7 10.2 19.9 13.6 25.8 2.1 3.7 2.2 3.7 1.1 0-2.6-9.4-5.6-16-18.6-40.9-3.2-6.1-7.2-13.7-8.8-17-2.4-5.2-3-6.2-3-5.9"/></svg>