<?xml version="1.0" encoding="utf-8"?>
<!-- Generator: Adobe Illustrator 22.1.0, SVG Export Plug-In . SVG Version: 6.00 Build 0)  -->
<svg version="1.1" id="Layer_1" xmlns="http://www.w3.org/2000/svg" xmlns:xlink="http://www.w3.org/1999/xlink" x="0px" y="0px"
	 viewBox="0 0 500 500" style="enable-background:new 0 0 500 500;" xml:space="preserve">
<style type="text/css">
	.st0{fill:#231F20;}
</style>
<g>
	<g>
		<g>
			<g>
				<path class="st0" d="M300.2,126l0.4,0C300.4,125.9,300.3,125.9,300.2,126z"/>
				<path class="st0" d="M244.1,123.4l0.1-0.4C244.1,123.1,244.1,123.3,244.1,123.4z"/>
				<path class="st0" d="M231,158.2l-0.3,0C230.8,158.3,230.9,158.2,231,158.2z"/>
				<g>
					<path class="st0" d="M254,160.6c10.3,0.6,20.7,0.2,31-1.5c10.6-1.7,21.2-4.6,31.9-4.5c5,0,10,0.2,15.1,0.2l3.8,0l1.9,0l0.5,0
						c0.2,0,0.2,0,0.3,0l0.4,0c1.1-0.1,2.3-0.2,3.5-0.4c0.6-0.1,1.3-0.2,2-0.3c0.8-0.1,1.6-0.2,2.4-0.3c0.4,0,0.8-0.2,1.2,0
						c0.3,0.2,0.3,0.6,0.3,0.9c0.2,1.3,0.2,2.8,0.3,4.3c0,1.5,0,3,0,4.5c-0.1,2.8-0.1,5.6-0.2,8.4c-0.3,11,2.8,21.9,1.6,32.9
						c-0.3,2.9-0.9,5.8-1.3,8.8c-0.2,1.4,2,8.7,3,10.1c0.5,0.6,2.8-3.6,3.4-4.8c2-3.9,4.6-9.8,5.4-12.9c1.6-6.2,2.4-9.1,2.9-15.5
						c0.5-6.6,1-13,1.7-19.5c0.2-1.6,0.4-3.2,0.6-4.8l0.3-2.4l0.4-3.3c0.3-2.3,0.5-4.7,0.9-7.2l0.5-3.8c0.1-1.3,0.2-2.5,0.2-3.8
						c0-2.2-0.3-4.2-0.7-5.9c-0.3-0.9-0.5-1.7-0.8-2.5c-0.2-0.4-0.5-0.9-0.9-1.2c-0.4-0.3-0.7-0.5-1.1-0.8
						c-2.8-1.7-6.6-3.2-11.4-3.3c-3.9-0.2-7.9-0.3-11.8-0.5l-1.5-0.1l-1.2-0.1l-1.8-0.2c-1.2-0.1-2.4-0.3-3.6-0.5
						c-11.4-1.8-22.8-4.5-34.4-4.8c-12.3-0.3-24.5-2.8-36.8-3c-12.1-0.2-24.3,0.3-36.4-0.2c-7.1-0.3-14.2-0.7-21.2-1.2
						c-4.5-0.3-8.9-0.6-13.4-0.8l-3.3-0.1c-1.2,0-2.4-0.1-3.6-0.1c-1.3,0-2.6,0-3.9,0l-2.3,0.1c-1,0.1-2.1,0.1-3.1,0.2
						c-8.3,0.7-16.3,3-22.7,7.1c-0.4,0.2-0.8,0.5-1.1,0.8l-1.1,0.9c-0.7,0.6-1.4,1.2-2,1.9c-0.6,0.7-1.2,1.5-1.7,2.2
						c-0.5,0.8-0.9,1.5-1.2,2.3c-0.7,1.6-1.3,3.3-1.7,5.2c-0.4,1.9-0.6,4-0.6,6c-0.1,1.9-0.2,3.7-0.2,5.6l-0.1,2.8l-0.1,1.4
						l-0.1,0.8c-0.2,2-0.4,4-0.6,6c-0.5,4-1,8-1.5,11.9c-1,8-1.9,15.9-1.5,24.1c0.4,8.6,0.3,20.3,7.6,27.7c1.8,1.8,5,2.4,7.9,2.5
						c-4.7-0.1,5.4-9.3,5.8-10c2.9-4.1,4.2-8.6,6.2-12.9c3.9-8.4,9-15.8,10.3-24.8c0.7-4.7,1.2-9.4,1.6-14.1c0.2-2.3,0.4-4.7,0.5-7
						l0.1-1.8l0-0.9l0-0.4l0,0c0-0.1,0.1-0.1,0.1-0.2c0-0.1,0.1-0.2,0.1-0.3c0-0.1,0.1-0.2,0.2-0.3c0.2-0.1,0.4-0.2,0.7-0.2l0.1,0
						l0.8,0c0.8,0,1.6,0,2.4,0c1.7,0,3.6,0.1,5.6,0.1l12,0.3c8,0.2,16.1,0.4,24.1,0.8C234.2,158.9,244.1,160,254,160.6z"/>
				</g>
			</g>
		</g>
	</g>
	<g>
		<g>
			<g>
				<path class="st0" d="M227.4,278.7l0-0.6C227.4,278.3,227.4,278.5,227.4,278.7z"/>
				<path class="st0" d="M217.4,331.3l0.2-0.4C217.4,331,217.4,331.1,217.4,331.3z"/>
				<path class="st0" d="M194.2,363.9l-0.5,0C193.9,363.9,194.1,364,194.2,363.9z"/>
				<g>
					<path class="st0" d="M244.7,365.5c2.5-1.4,4.8-3.5,6.6-5.5c1-1.2,1.9-2.4,2.6-3.8l1.7-4.8l0.8-2.4c0.3-0.8,0.6-1.5,0.7-2.5
						l0.9-5.4c0.3-1.8,0.6-3.6,0.8-5.4c0.1-0.9,0.2-1.8,0.3-2.6l0.1-1.5c0.2-2,0.3-3.9,0.4-5.9c0.4-7.8,0.3-15.3-0.2-22.7
						c-0.5-8.4-1.3-16.6-1.7-24.7c-0.1-2-0.1-4-0.2-6c0-1.1,0-1.7,0.1-3.7c0.1-1.7,0.2-3.4,0.3-5l0.3-4.9c0.1-1.6,0-3.2-0.1-4.7
						c-0.2-3-0.8-5.9-1.7-8.6c-0.4-1.1-0.9-2.3-1.6-3.3c-0.3-0.5-0.7-1.1-1-1.6c-0.4-0.5-0.8-1-1.3-1.4c-0.4-0.5-1-0.8-1.5-1.2
						c-0.5-0.4-1-0.6-1.5-0.8l-3.1-1.2l-1.7-0.5c-0.6-0.2-1.3-0.2-1.9-0.3l-3.9-0.5c-0.3-0.1-0.7-0.1-1-0.1l-1,0l-2.1,0l-4.2,0
						l-4.2,0.1l-3.4,0.1l-5.3,0.2c-7.1,0.3-14.2,0.7-21.3,1.4c-4.5,0.4-8.9,0.7-13.3,0.9c-2.2,0.1-4.4,0.2-6.6,0.3c-0.9,0-2,0-3.1,0
						l-3.3-0.1c-8.8-0.2-17.6-0.6-26.6-1c-17.2-0.8-34.4,1.7-51.6,0c-4.6-0.5-9.1-1.1-13.7-1.7c-2.3-0.3-13.7,1.6-15.9,2.6
						c-1,0.4,5.6,3,7.4,3.6c6,2.2,15.3,5.1,20.1,6.1c9.7,1.9,14.2,2.8,24.2,3.6c20.6,1.7,40.7,3,61.1,6.8c0.4,0.1,1.3,0.2,1.7,0.2
						l1.6,0.2c1,0.1,2.1,0.2,3.1,0.3c2.1,0.2,4.2,0.3,6.3,0.4c4.2,0.2,8.5,0.2,12.7,0.1c4.2-0.1,8.5-0.1,12.7-0.2
						c2.1,0,4.2,0,6.3,0.1c1,0,2.1,0.1,3.1,0.1l1.6,0.1l0.4,0l0.2,0l0.3,0.1c1.6,0.3,3.1,0.7,4.2,1.1l0.6,0.2
						c0.2,0.1,0.4,0.2,0.5,0.5c0.2,0.5,0.2,1.1,0.1,1.7c-0.2,1.1-0.6,2.1-1,2.9l-0.5,1.2c0,0.1-0.1,0.2-0.1,0.3c0,0,0,0.1,0,0.1
						l0,0.1l0,0.2l-0.1,0.3c-0.1,0.9-0.3,1.8-0.4,2.7c-0.5,3.6-0.9,7.1-1.2,10.6c-0.7,9.9-1.8,19.6-2.9,28.9
						c-0.6,4.7-1.2,9.2-1.9,13.7c-0.2,1.1-0.3,2.2-0.5,3.4l-0.1,0.8l-0.1,0.4c0,0.1,0,0.1,0,0.1l0,0c0,0.1,0,0.2-0.1,0.2
						c-0.1,0.3-0.1,0.5-0.1,0.8c0,0.2,0,0.5,0,0.7c0,0.3-0.3,0.5-0.5,0.6c-0.2,0.1-0.5,0.1-0.8,0.1c-0.3,0-0.6,0.1-0.9,0.1l-0.1,0
						l-0.1,0l0,0l-0.2,0l-1.6-0.1l-3.1-0.2c-2.1-0.1-4.1-0.3-6.1-0.5l-2.9-0.3l-1.3-0.2l-1.2-0.2c-4.1-0.6-8.2-1.4-12.5-2.2
						c-5.5-1-11.2-2.1-17.1-3l-4.4-0.7l-4.2-0.6c-2.9-0.4-5.8-0.8-8.9-1.2c-3.8-0.4-8-0.7-11.9-0.8c-3.9-0.1-7.8,0-11.5,0.1
						c-3.7,0.2-7.3,0.4-10.8,0.6l-10.5,0.7l-21,1.4l-10.5,0.7L69,325.2c-0.9,0-1.7-0.2-2.1-0.5c0,0-0.1-0.1-0.1-0.1
						c0-0.1-0.1-0.1,0-0.2c0.1-0.2,0.2-0.5,0.4-0.7c0.2-0.4,0.5-0.7,0.7-1c0.1-0.1,0.2-0.2,0.3-0.3l0.1-0.1c0,0,0,0,0.1-0.1l0.1-1.2
						c0.4-3.1,0.8-6.2,1.1-9.4c0.6-6.3,1.1-12.6,1.3-19c0.3-13.5,1.4-31.8-5.2-43.6c-1.6-2.9-4.8-4-7.6-4.2
						c4.7,0.4-6.2,14.4-6.7,15.5c-3.2,6.3-5,13.4-7.4,20.1c-4.7,13-10.4,24.6-12.5,38.6l-0.1,0.3l-0.1,0.6l-0.1,1.3l-0.3,2.6
						l-0.6,5.2l-1.1,10.6c-0.7,7.1-1.4,14.3-2.1,21.5l-0.1,1.4l-0.1,0.7l0,0.3c0,0.1-0.1,0.3,0.1,0.2l2.6-0.1l5.3-0.2l10.6-0.5
						l21.4-1.1l13.2-0.7c3.7-0.2,7.4-0.4,11.1-0.7c7.4-0.5,14.8-0.9,22.2-1.4l18.7-1.2c6-0.3,11.6-0.5,16.8-0.3
						c2.7,0.1,5.5,0.4,8.4,0.7l4.5,0.5l4.5,0.6c5.7,0.8,11.6,1.9,17.8,3.1c3.8,0.8,7.6,1.5,11.4,2.3l1.5,0.3l1.8,0.3
						c1.2,0.2,2.3,0.4,3.4,0.5c2.1,0.3,4.2,0.6,6.2,0.9c2,0.2,4,0.5,6,0.7l1.5,0.2l2.7,0.3c1.9,0.2,3.8,0.4,5.8,0.7
						c3.9,0.5,7.7,0.6,11.1,0.1C238.6,368.3,241.7,367.2,244.7,365.5z"/>
				</g>
			</g>
		</g>
	</g>
	<g>
		<g>
			<g>
				<path class="st0" d="M442.2,370.7l-0.9,0C441.7,370.7,442,370.8,442.2,370.7z"/>
				<path class="st0" d="M468.1,286.8l0.4,0.2C468.3,286.9,468.2,286.8,468.1,286.8z"/>
				<path class="st0" d="M433.8,269.5l0-0.4C433.8,269.2,433.8,269.4,433.8,269.5z"/>
				<g>
					<path class="st0" d="M430.4,299c-1.1,13.3-1,26.7,0.2,40c0.2,1.5,0.3,3,0.4,4.5c0,0.7,0.1,1.5,0.1,2c0.1,0.6,0.1,1,0.2,1.4
						c0.1,0.8,0.3,1.4,0.4,1.9c0.1,0.2,0.1,0.4,0.2,0.5c0,0.1,0.1,0.1,0.1,0.1l3.2,0.3c0.6,0.1,1.3,0.2,1.9,0.3
						c0.5,0.1,1,0.1,1.5,0.2c1.1,0.2,1.9,0.3,2.7,0.6l1.1,0.3c0.2,0.1,0.3,0.1,0.5,0.2l0.2,0.1l0.1,0l2,0.7l0,0c0,0,0,0,0.1,0l0,0
						c0,0,0,0,0,0c-0.1,0-0.1-0.1-0.1-0.1c0,0,0-0.1-0.1-0.2c-0.1-0.1-0.2-0.2-0.2-0.3c0-0.1-0.1-0.1-0.1-0.2c0-0.1-0.1-0.2-0.1-0.3
						c-0.1-0.2-0.2-0.4-0.2-0.6c-0.1-0.2-0.1-0.4-0.2-0.7c-0.2-0.6-0.3-1.1-0.4-1.7c-0.2-0.7-0.3-1.4-0.3-2.1l0-0.3l0-0.3l-0.1-0.7
						c0-0.5-0.1-0.9-0.1-1.4l0-0.7l0-0.3l0-0.4c0-0.6,0-1.2,0-1.7l0-0.2l0,0l0,0l0,0c0,0,0,0,0,0c-0.1,0.1-0.6,0.2-1.2,0.3l-0.5,0
						l-0.6,0l-0.7,0l-0.9,0c-0.6,0-1.3,0-1.9,0.1l-1.1,0.1l-2.3,0.2c-1.5,0.1-3.1,0.3-4.6,0.4c-3.1,0.2-6.1,0.3-9.2,0.3
						c-14.6-0.2-29-1-43.9-0.1c-14.9,1-29.4,0.7-44.5,1.3c-7.3,0.3-14.4,1.6-21.5,2.9c-7.1,1.4-14.2,2.8-21.4,3.4
						c-3.9,0.3-7.7,0.4-11.6,0.8c-1.9,0.1-10.8,4.2-12.4,5.6c-0.7,0.6,5.2,1.7,6.8,2c5.4,0.9,13.4,2.1,17.4,2.3
						c8.1,0.4,11.8,0.6,19.9,0.1c16.7-0.9,33-1.1,49.4,2.2c13.2,2.6,27.2,1.4,40.9,3.2c7.4,1,14.7,2.2,22.1,3.2
						c3.7,0.5,7.4,1,11.1,1.3l2.8,0.3l0.7,0.1l0.3,0l0.1,0l0.1,0c0.1,0,0,0,0.2,0c0.7,0.1,1.9,0.3,3.4,0.4c1.5,0.1,3.2,0.3,6,0
						l1.2-0.2l0.6-0.1l0.8-0.2c0.5-0.1,1-0.3,1.5-0.4c0.2-0.1,0.6-0.2,0.9-0.3c0.3-0.1,0.6-0.2,1-0.4c0.3-0.1,0.6-0.3,0.9-0.4
						l0.5-0.2l0.6-0.3c0.8-0.4,1.5-0.9,2.3-1.5l0.5-0.4l0.6-0.5c0.4-0.4,0.8-0.8,1.2-1.2c0.7-0.8,1.4-1.6,2-2.6c0.6-1,1.1-2,1.6-3
						l0.2-0.4l0.1-0.2l0.1-0.4l0.2-0.8c0.2-0.6,0.2-0.9,0.4-1.3l0.1-0.6l0.1-0.5c0.3-1.4,0.3-2.4,0.4-3.4c0.1-1.8,0.1-3.1,0.1-4.2
						l0-1.3c0-0.1,0-0.3,0-0.4l0-0.1c1.2-11.8,3-23.6,3.5-35.5c0.6-15.6,0.7-31.2,1.7-46.9l0.2-3.8c0.1-1.6,0.1-3.4-0.1-5.7
						c-0.1-1.1-0.3-2.4-0.6-3.7c-0.3-1.3-0.7-2.7-1.2-4c-0.2-0.6-0.5-1.3-0.8-1.9c-0.3-0.6-0.6-1.2-0.9-1.8c-0.3-0.6-0.6-1.1-1-1.6
						l-0.5-0.8c-0.1-0.2-0.2-0.3-0.4-0.5c-2.4-3.5-5.4-6.4-8.7-9.1c-3.2-2.7-6.6-5.2-10.4-6.8c-2.2-0.9-4.5-1.5-6.8-1.7
						c-2.4-0.2-4.9-0.1-7.3,0.3c-2.4,0.4-4.9,1.2-7.3,1.9l-2.2,0.6L420,225l-3.6,0.9c-4.7,1.2-9.3,2.2-13.8,2.8
						c-9.2,1.3-19.4,1.3-30.4,1.2c-5.2-0.1-10.8-0.3-16.2-0.4c-5.4-0.2-10.9-0.3-16.3-0.2c-10.8,0.1-21.7,0.8-32.3,3
						c-4.5,1-9.7,2-14.7,3.6c-5.1,1.6-10,3.6-14,6.5c-0.1,0.3-0.2,0.5-0.3,0.8c-0.2,0.3-0.4,0.6-0.7,0.9c-0.6,0.7-1.6,1.3-2.6,2.1
						c-1.3,1-2.2,2.3-2.7,3.8c-0.5,1.5-0.4,3-0.2,4.4c-0.2-1.5,1.5-1.7,3.4-1.1c2,0.7,3.9,2.1,6,3c2.3,1,4.1,1.9,4.4,2
						c5.8,1.7,11.7,1.8,17.5,2.7c11.2,1.8,21.3,5.3,32.4,5.3c5.8,0,11.6,0,17.4-0.1c5.8,0,11.4,0,17.3,0.1
						c11.8,0.1,24.9,0.3,39.1-1.7c5.9-0.8,11.6-2.1,17-3.6c1.4-0.4,2.7-0.7,4-1.1l2-0.6l1-0.3c0,0,0,0,0,0c0.1-0.1,0.3-0.2,0.5-0.2
						c0.3,0,0.6,0.2,0.9,0.5c0,0,0,0.1,0.1,0.1l0,0.1l0,0l0,0l0,0c-2.6,1.7,3.5-2.4,2.9-2l0,0l0.4-0.2l0.7-0.4
						c0.2-0.1,0.4-0.2,0.6-0.3l0.5-0.3c0.7-0.3,1-0.5,1.3-0.5l0.2,0l-0.1,0l-0.2,0l-0.3,0.1c-0.2,0.1-0.5,0.1-0.7,0.2
						c-0.3,0.1-0.6,0.1-0.9,0.2c-0.3,0.1-0.8,0.1-1.1,0.2c-0.4,0.1-0.9,0.1-1.4,0.2c-0.5,0.1-1.1,0.1-1.6,0.2l-1,0.1
						c-0.3,0-0.1,0-0.2,0l0,0l0,0l0,0.7l-0.2,3.4C433,273.5,431.4,286.3,430.4,299z"/>
				</g>
			</g>
		</g>
	</g>
</g>
</svg>
