<?xml version="1.0" encoding="utf-8"?>
<!-- Generator: Adobe Illustrator 22.1.0, SVG Export Plug-In . SVG Version: 6.00 Build 0)  -->
<svg version="1.1" id="Layer_1" xmlns="http://www.w3.org/2000/svg" xmlns:xlink="http://www.w3.org/1999/xlink" x="0px" y="0px"
	 viewBox="0 0 500 500" style="enable-background:new 0 0 500 500;" xml:space="preserve">
<style type="text/css">
	.st0{fill:#231F20;}
</style>
<g>
	<g>
		<g>
			<g>
				<path class="st0" d="M198,136.2l-0.4,0C197.7,136.2,197.9,136.2,198,136.2z"/>
				<path class="st0" d="M262.3,138.6l-0.1,0.2C262.3,138.7,262.3,138.7,262.3,138.6z"/>
				<path class="st0" d="M276.4,125l0.4,0C276.6,125,276.5,125,276.4,125z"/>
				<g>
					<path class="st0" d="M250,123.5c-11.9-0.5-23.8-0.6-35.5-0.2c-12.1,0.4-24.2,1.3-36.5,1c-3.3-0.1-6.5-0.2-9.8-0.2
						c-3.3-0.1-6.7,0-10.2,0.3c-3.5,0.3-7,0.9-10.4,2c-0.9,0.3-1.7,0.6-2.6,0.9c-0.4,0.2-0.8,0.3-1.3,0.5l-1.4,0.6l-1.6,0.9
						c-0.5,0.3-1.1,0.6-1.6,0.9c-1,0.7-1.8,1.5-2.4,2.6c-0.6,1.1-0.8,2.2-0.9,3.4c-0.1,0.6-0.1,1.2-0.1,1.8l0,1.6c0,1.6,0,3.2,0,4.9
						c0,3.2-0.1,6.5-0.2,9.7c-0.2,6.4-0.4,12.9-0.7,19.4c-0.5,12.6,0.3,25.2-0.6,37.7c-0.2,3.4-0.6,6.7-0.8,10
						c-0.1,1.6,0.5,10,0.8,11.6c0.2,0.7,1.3-4.1,1.5-5.4c0.9-4.4,2.2-11.2,2.7-14.7c0.9-7.1,1.3-10.4,1.7-17.7
						c0.9-15,1.7-29.7,3.4-44.5c0.4-3,0.6-6,0.8-9.1l0.1-2.2l0.1-0.9c0-0.3,0.1-0.6,0.3-0.9c0.2-0.2,0.5-0.4,0.7-0.6
						c0.3-0.1,0.5-0.3,0.9-0.4l0.8-0.3c0.3-0.1,0.6-0.2,0.9-0.4c1.2-0.5,2.6-0.8,3.9-1.1c2.7-0.6,5.5-0.9,8.3-0.9
						c3.1,0,6.2,0.2,9.4,0.4l9.8,0.8c6.6,0.5,13.2,1,19.8,1.2c14.1,0.4,28.2,1.8,42.3,2.1c13.9,0.4,27.8,0.5,41.7,1
						c8.1,0.3,16.3,0.6,24.4,1c10.3,0.5,20.5,0.9,30.8,1.2l15.4,0.5l7.5,0.2l0.5,0c0.2,0,0.4,0,0.5,0.1c0,0.3,0,0.7-0.1,1
						c0,2.3-0.1,4.6-0.1,6.8c-0.1,4.6-0.2,9.2-0.4,13.7c-0.2,9.2-0.4,18.3-0.1,27.6c0.4,9.9,0.6,23.2,3.6,31.5c0.7,2,2,2.6,3.2,2.6
						c-1.9,0,1.9-10.9,2.1-11.7c1.1-4.8,1.5-10,2.2-15.1c1.4-9.7,3.3-18.5,3.6-28.8c0.2-5.4,0.3-10.8,0.4-16.2l0.1-8.1l0-5.4
						c0-1.3,0-2.6-0.1-3.9c-0.1-1.3-0.4-2.4-0.8-3.4c-0.4-0.9-0.9-1.7-1.8-2.6c-0.8-0.8-1.6-1.3-2.6-1.8c-1-0.4-2.1-0.8-3.4-0.9
						c-1.3-0.1-2.6-0.1-3.9-0.2c-3.1-0.1-6.2-0.2-9.3-0.3c-5.4-0.2-10.8-0.4-16.2-0.5c-18.4-0.6-36.8-1.1-55.2-1.8
						C272.8,124.7,261.4,124,250,123.5z"/>
				</g>
			</g>
		</g>
	</g>
	<g>
		<g>
			<g>
				<path class="st0" d="M159.9,359.2l-0.7-0.1C159.5,359.2,159.7,359.2,159.9,359.2z"/>
				<path class="st0" d="M255,345.8l0.1,0.2C255.1,345.9,255.1,345.8,255,345.8z"/>
				<path class="st0" d="M243.5,322.8l0-0.6C243.5,322.5,243.5,322.7,243.5,322.8z"/>
				<g>
					<path class="st0" d="M238.5,355.1L238.5,355.1C238.5,355.1,238.5,355.1,238.5,355.1C238.5,355.1,238.5,355.1,238.5,355.1
						c-0.2,0-0.4,0-0.5,0c-0.7,0-1.6-0.1-2.6-0.2l-3.4-0.4c-1.5-0.2-2.6-0.2-3.8-0.3c-4.7-0.4-9.3-0.7-13.9-1.1
						c-2.3-0.2-4.6-0.4-6.8-0.6l-1.6-0.2l-1.6-0.2l-3.4-0.5c-4.6-0.6-9.2-1.3-13.8-1.9c-4.8-0.6-9.6-1.2-14.4-1.7
						c-2.4-0.2-4.9-0.5-7.3-0.7c-2.4-0.2-4.8-0.4-7.2-0.5c-4.8-0.3-9.8-0.6-14.8-0.7c-5-0.1-9.9,0.1-14.9,0.3
						c-5.2,0.2-10.4,0.5-15.5,0.9c-5.1,0.3-10.2,0.6-15.3,1c-10.2,0.7-20.4,1.4-30.7,2.2c-7.1,0.6-14.1,1.1-21.1,1.6l-10.5,0.7
						c-2.1,0.1-4.1,0.2-6.2,0.3c0.4-4.9,0.8-9.8,1.2-14.8c1.7-19.9,2-39.7,4-59.6c0.6-5.3,1.2-10.5,1.7-15.8
						c0.3-2.6,0.4-15.8,0.2-18.4c-0.1-1.2-1.6,6.4-2,8.5c-1.3,6.9-3.2,17.6-4,23.1c-1.5,11.2-2.2,16.4-3.3,27.8
						c-0.9,8.9-1.7,17.7-2.6,26.5c-1,10.1-2,20.1-3.1,30.1c4.1-0.1,8.2-0.2,12.4-0.4l1.3,0l1.1,0l2.2,0l4.4,0
						c19.1,0,39-1.9,58.2-2.5c5.2-0.2,10.4-0.3,15.6-0.5c5.2-0.1,10.3-0.2,15.4-0.2c5.1,0,10.1,0.3,15.1,0.7
						c5,0.5,10.1,1.1,15.3,1.8c10.9,1.3,21.6,3.6,32.6,5.7l4.1,0.8l2.1,0.4l2.2,0.4c3,0.5,5.8,0.8,8.6,1.1
						c5.6,0.6,11.3,1.1,16.7,1.5c2.1,0.2,5,0.7,8.5,0.8c0.4,0,0.9,0,1.3,0c0.4,0,0.9-0.1,1.6-0.1c1.3-0.2,2.5-0.4,3.7-0.8
						c2.4-0.8,4.5-2.1,6.1-4c1.2-1.5,2.1-3.2,2.6-5.1c0.1-0.5,0.3-0.9,0.4-1.4l0.2-1.1l0.3-1.6c0.4-2.1,0.8-4.2,1.1-6.4
						c0.7-4.2,1.2-8.5,1.7-12.7c0.9-8.5,1.5-16.9,2.1-25.2c0.9-12.9,1.7-25.6,3.3-38.1c0.3-2.3,0.6-4.6,1-6.8l0.5-3.4
						c0.2-1.2,0.4-2.5,0.5-3.9c0.1-1.3,0.2-2.7,0.2-4.2c0-0.8,0-1.5-0.1-2.3c0-0.4-0.1-1.1-0.2-1.6l-0.3-1.6
						c-0.5-2.1-1.2-4.1-2.5-5.8c-0.6-0.8-1.3-1.6-2.1-2.3c-0.2-0.2-0.4-0.4-0.6-0.5l-0.7-0.4l-0.7-0.4c-0.2-0.2-0.4-0.3-0.7-0.4
						c-1.2-0.5-2.4-0.8-3.7-0.9c-0.7,0-1.3,0-2,0l-1.8,0l-4.4,0l-8.7,0c-5.8,0-11.6,0.1-17.4,0.2c-11.6,0.2-23.1,0.5-34.6,0.7
						c-1.8,0-3.6,0-5.5,0l-2.7,0c-0.7,0-1.7,0-2.6-0.1c-3.6-0.2-7.3-0.3-10.9-0.5c-7.2-0.3-14.5-0.7-21.7-1
						c-14.5-0.7-28.9-1.3-43.7-1.4c-15.6-0.1-36.7-0.5-49.8,2.1c-3.2,0.6-4.2,1.9-4.2,3.1c0.1-1.9,17.1,2.5,18.4,2.7
						c7.5,1.3,15.8,2,23.8,2.9c15.4,1.9,29.1,4.1,45.4,5c8.6,0.4,17.1,0.8,25.6,1.1l12.8,0.4c2.2,0.1,4.2,0.1,6.5,0.2l6.5,0
						c17.1-0.2,34.2-0.7,51.2-0.8l10.1,0l6.3,0c0.2,0.1,0.2,0.2,0.2,0.4l0,0l0,0.1c0,0.1,0,0.2,0,0.3l0,0.7c0,0.5,0,1,0,1.6
						c-0.1,1.1-0.2,2.3-0.4,3.6l-0.6,4.1c-0.2,1.4-0.4,2.8-0.6,4.3c-0.3,2.8-0.7,5.7-1,8.5c-1.2,11.4-1.8,22.6-2.6,33.7
						c-0.6,8-1.3,16.1-2.4,24.1c-0.5,4-1.1,8-1.8,12c-0.3,2-0.8,4-1.1,5.9l-0.3,1.5L238.5,355.1
						C238.5,355.1,238.5,355.1,238.5,355.1L238.5,355.1C238.5,355.1,238.5,355.1,238.5,355.1C238.5,355.1,238.5,355.1,238.5,355.1z"
						/>
				</g>
			</g>
		</g>
	</g>
	<g>
		<g>
			<g>
				<path class="st0" d="M462.6,369.1c-0.3,0-0.7,0-1,0C462.1,369.1,462.4,369.2,462.6,369.1z"/>
				<path class="st0" d="M479.8,283.3l0.1,0.2C479.9,283.3,479.8,283.3,479.8,283.3z"/>
				<path class="st0" d="M466.8,264.5l0-0.5C466.8,264.2,466.8,264.4,466.8,264.5z"/>
				<g>
					<path class="st0" d="M464,299.4c-1.1,15.7-1.7,31.4-1.8,47l0,3l0,1.6c0,0.7,0,1.3,0.1,1.8l0.1,1.6l0.1,0.3
						c0.1,0.2,0.1,0.4,0.2,0.7c0,0.2,0.1,0.5-0.1,0.8c-0.1,0.2-0.3,0.4-0.6,0.4c-0.2,0.1-0.5,0.1-0.8,0.2c-0.1,0-0.3,0-0.4,0
						c-0.1,0-0.1,0-0.3,0l-0.7,0l-1.7-0.1c-0.3,0-0.7,0-1.1,0l-0.8,0l-3,0c-2,0-4,0-6,0c-4,0-8.1,0-12.1-0.2
						c-17.2-0.5-34.3-1.3-51.5-1.2c-17.4,0.1-34.3,0-51.7,1c-16.8,0.9-33.3,4-49.9,6.2c-4.4,0.6-8.9,1.1-13.3,1.8
						c-2.2,0.3-12.9,3.4-14.9,4.3c-0.9,0.4,5.6-0.1,7.4-0.2c5.9-0.4,15-1,19.6-1.4c9.4-0.8,13.7-1.2,23.3-2.1
						c19.8-1.9,39.1-2.7,58.7-1.5c15.8,1,32.5,0.9,48.6,2c8.7,0.6,17.4,1.3,26.1,1.9c4.4,0.3,8.7,0.6,13.1,0.9
						c2.1,0.1,4.2,0.2,6.3,0.3l1.4,0.2l0.8,0.1l0.7,0.1l0.7,0.1c2,0.2,3.9,0.3,5.8,0c2-0.3,3.8-0.9,5.3-2.1c0.8-0.6,1.4-1.3,1.9-2.1
						c0.5-0.8,0.9-1.6,1.2-2.5c1.2-3.5,0.7-9.2,0.8-10.3l0-0.6l0.1-0.9l0.1-1.7l0.3-3.5l0.6-7c0.8-9.3,1.5-18.6,2-27.9
						c1-18.4,1.8-36.8,2.9-55.2c0.1-2.6,0.5-5.7,0-9.5c-0.3-1.9-0.8-3.9-1.7-5.7c-0.8-1.8-1.9-3.4-3-4.8c-2.2-2.8-4.7-4.8-6.9-6.6
						c-1.1-0.9-2.1-1.7-3.5-2.7c-1.3-1-2.9-2-4.8-2.8c-1.2-0.5-2.6-0.9-4.2-1.2c-1.5-0.2-3-0.2-4.3,0c-2.6,0.3-4.5,1-6.1,1.5
						c-3.2,0.9-6.4,1.8-9.6,2.7c-6.4,1.7-12.7,3-19.1,3.9c-12.8,1.7-26.1,1.6-39.7,1.6c-24.8-0.2-49.3,0.4-74,4.6
						c-6.5,1.1-14.2,2.5-21.5,4.3c-3.6,0.9-7.2,1.9-10.5,3c-0.4,0.1-0.8,0.3-1.2,0.4c-0.4,0.1-0.8,0.3-1.1,0.4
						c-0.6,0.2-1.2,0.4-1.8,0.6c-1.3,0.4-2.7,0.8-4.1,1.2c-1.4,0.4-2.3,1-2.9,1.6c-0.5,0.6-0.7,1.3-0.6,1.8
						c-0.1-0.5,0.9-0.7,2.3-0.7c1.4,0,3.3,0.3,5.1,0.6c0.9,0.1,1.8,0.2,2.7,0.3c0.9,0,1.8,0.1,2.5,0.1c1.5,0.1,2.7,0.1,2.9,0.1
						c6.4-0.1,13.3-0.9,20-1.2c12.9-0.6,24.4-0.3,37.9-1.2c7-0.5,14.1-0.8,21.1-1.1c7-0.2,14-0.3,21.1-0.3c14.1,0,28.8,0.3,43.9-1.7
						c6.4-0.8,12.7-2.2,18.8-3.7c3.1-0.8,6.1-1.6,9.1-2.5l4.4-1.3c1.3-0.4,2.2-0.6,2.5-0.6c0.2,0,0.2,0,0.4,0c0.1,0,0.4,0.1,0.7,0.2
						c0.6,0.3,1.5,0.8,2.5,1.6l1.7,1.3l1.6,1.3c1,0.9,1.9,1.7,2.7,2.5c0.8,0.8,1.3,1.5,1.7,2.2c0.4,0.7,0.6,1.2,0.7,2
						c0.3,1.5,0.2,4.1-0.1,7.2C466.3,269.3,465,284.3,464,299.4z"/>
				</g>
			</g>
		</g>
	</g>
</g>
</svg>
