<svg xmlns="http://www.w3.org/2000/svg" viewBox="0 0 370 370"><path d="M213.7 32.5c-2 .7-3 2.2-4.3 6.5-8.1 27.1-9.5 32.2-9.7 34.5l-.1 2 .7-1.7c.4-1 .9-2.2 1.2-2.8s1-2.1 1.5-3.3c1.1-2.5 3.2-6 6-9.9 1-1.4 2.5-3.8 3.2-5.3 1-2 1.4-2.6 1.6-2.4.4.4-.6 3.7-1.8 6.3-.5 1-1.2 2.9-1.6 4.1-.8 2.6-1.4 4.4-2.4 7.2-.4 1.1-1.3 4-2.1 6.4s-1.7 5.5-2.1 6.7c-.4 1.3-.8 2.5-.8 2.7s-.2.9-.5 1.6-.5 1.6-.5 2.1l.1.9.6-1.3c.3-.7.6-1.3.6-1.5 0-.1.4-1.2.8-2.3.5-1.2 1.8-5 3-8.4 2-5.6 3.5-9.7 7.5-20.3 1.3-3.4 3.9-10.9 3.9-11.2 0-.1-.6.1-1.2.5-1.7.8-4.2.9-5.3.1-1.1-.8-.9-1.1.8-.9 4.3.5 8.3-4.6 6.3-8.1-1-2.1-3.3-3-5.4-2.2m3 1.5c2.6 1.6 2.2 4.5-.8 5.9-2.9 1.3-4.5-.3-3.6-3.6.6-2.5 2.5-3.5 4.4-2.3m-89.8 5c-4.5.8-5.9 6.6-2.5 10.4.5.5 2.3 3.2 4.1 5.9 1.8 2.7 4.1 6.1 5.1 7.5 1 1.4 3.9 5.2 6.2 8.4s5.1 6.8 6 8c1 1.2 2 2.7 2.4 3.2.9 1.4 4.8 6.1 5 6 .1-.1-.4-.9-1-1.9-1.1-1.7-1.9-2.9-7-10.6-2.3-3.5-7.4-13.2-9.4-17.9-.5-1.3-1.4-3.1-1.9-4-.8-1.4-1.8-3.7-2.4-5.3-.2-.5-.2-.4-1 .2-1.9 1.6-3.2 1.2-1.6-.5 4.4-4.5 3.1-10.2-2-9.4m2 2.8c1.6 1.3.9 5.1-1.1 6-3.2 1.5-5.2-2.8-2.6-5.6 1.2-1.3 2.5-1.5 3.7-.4m4.2 3.9c-.3.7-.1 1 2.1 4.3 3.3 4.8 12.3 20 12.3 20.6 0 .7 7.1 13.3 7.5 13.3.2 0-.7-2.3-1.1-2.8-.1-.2-1.7-3.1-3.4-6.5s-4-7.6-5-9.3c-1-1.7-2.3-3.8-2.8-4.8s-1.2-2.1-1.5-2.6c-.4-.5-1.2-2-1.9-3.3s-1.9-3.5-2.7-4.7-1.7-2.8-2-3.4c-.9-1.7-1.1-1.8-1.5-.8m4.5 10.7c-.4.5-.1 1.4.8 2.3.9.8 1.2.3.5-.9-.9-1.7-.9-1.8-1.3-1.4m2.8 5.1c.4 1.2 1 2.1 1.3 2 .5-.2.5-.8-.1-1.7-.7-1.1-1.5-1.3-1.2-.3m42.5 1.6c-.2.2-.3.5-.3.7s-.2 1-.4 1.6c-.3.8-.5 2.5-.6 5.4l-.1 4.2.9.4c2.4.9 5.5 3.1 8 5.6 2.5 2.4 7.8 7.3 8.3 7.4.3.1.2-.4-1.1-6.4-1.3-5.8-1.3-10.6-.1-10.2.9.3.3-1.2-.8-2.1-5.5-4.5-12.5-7.9-13.8-6.6m-40 2.5c0 .7 1.1 2 1.4 1.7.2-.2.1-.6-.2-1.1-.6-1-1.2-1.3-1.2-.6m22.1 2.8c-3 1.9-8.1 5.6-9.8 7l-.9.8 1.4 2.5c1.7 3.1 2 4.1 2 8.5 0 1.9.1 4.1.2 5l.2 1.6 1.3-2c.7-1.1 2.6-3.6 4.1-5.7s3.3-4.4 3.8-5.2c.5-.8 1.6-2.1 2.5-3l1.5-1.5-.4-2.2a112 112 0 0 0-.6-3.2l-.2-.9 1.6 1.7c.9.9 1.8 2 2.1 2.5.6.8 1.1.9 1 .1-.2-.9-2.9-5.8-3.9-6.8-1.3-1.7-2.1-1.6-5.9.8m43.5 8.4c0 .3-.3.8-.6 1.1-.7.7-1.9 3.6-2.2 5.6-.2 1.3-.1 3 .7 7.4.4 2.2.3 2.6-.8 2.6-.9 0-1 .3-.3.9 1.3 1.2 5.1 7.6 6.1 10.4.3.7.4.7 1.1.6.5-.1 2.4-.3 4.2-.4s3.4-.3 3.5-.4c.4-.3 2.1.7 2.4 1.4.1.4.3 2 .3 3.6 0 2.9.2 3.4 1 2.5.7-.8-.4-7.7-2.3-15.4-1.3-5.4-2-9.1-2-11.7 0-1.7 0-1.8-.9-2.4-1.3-1-8.9-5.5-10.1-6 0-.3-.1-.1-.1.2m-31.4 7c-6.3 1.3-10.9 8.8-6.6 10.8 1.8.8 3.8 2.3 4.3 3.1 2 3.3 6.9 4.2 9.4 1.8.6-.6 1-1.2 1-1.5 0-.2.6-1.1 1.3-1.9 3.2-3.6 3.4-4.7.2-1.5-2.6 2.7-3.1 2.8-6.8 1.5-2.4-.9-3.1-1.4-3.7-2.6-.5-1.2-.5-1.4.5-1.4 1.9 0 4-3.4 3.5-5.5l-.3-1 1.5.2c3.1.3 3.9.5 4.4.9.3.2.5.3.6.3.2-.2-1.3-1.5-1.7-1.5-.2 0-.7-.2-1.2-.5-2-1.3-4.1-1.6-6.4-1.2M144.5 85c-3.6 3-6.5 7.3-7.2 10.5-.5 2.3.6 14.4 1.5 16.8.1.2.3 1.9.5 3.8.5 4.1.2 3.7 2.8 5 5.1 2.6 8.2 3.4 4.7 1.2-1.7-1.1-2.2-1.6-2.8-2.9-.1-.3 2-1.3 4.3-2.2 1-.4 2.5-.9 3.4-1.2l1.5-.6.3-1.7c.2-.9.4-3.2.6-5.1.2-1.9.4-4.3.6-5.3.5-2.6-.7-9.1-2-10.5-.2-.3-1.1-1.4-1.9-2.5-1.3-1.8-5.1-6.4-5.2-6.4 0 .2-.5.6-1.1 1.1m80.9 2.1c.1.2.5.5 1 .6.5.2 1.4.5 2 .8l1.1.5-.6.5c-.3.3-.5.6-.5.8.2.4 1.1.4 1.3 0 .2-.3 1.7-.3 2.7 0 .8.3 1.4 2 .7 2.2s1.8 1 7 2.2c2.6.6 2.7.5.5-1.2-4.5-3.6-7.9-5.3-12.3-6.2-3.2-.7-3.1-.6-2.9-.2m-32.8 5.7c.1.2.5.3.9.4 2.3.5 4.3 3.1 5.3 6.6.4 1.4 1.1 3.3 1.6 4.3 1.2 2.2 1.2 2.7-.1 3.6-1.6 1.1-4 1.2-5.1.3-.5-.4-.9-.7-1-.7-1 0-1.3-2.7-.4-5 1.1-2.8.8-4.3-1.2-6.3-1.5-1.6-1.7-1.8-1.4-2 .2-.1.3-.4.3-.6 0-1-3.6 3.4-4.4 5.4-.5 1.2-.3 1.9 1.4 4 .8 1 1.2 1.8 1.3 2.7.2 1.3 1.1 2.5 1.9 2.5.2 0 1.2.3 2.1.7 2.8 1.1 5.7 1 8.4-.3 2.5-1.3 2.6-1.4 1.1-2.8-1.8-1.6-2.9-3.8-3.8-6.8-.8-2.8-2.1-4.6-3.9-5.6-1.1-.4-3.2-.8-3-.4m34.6 1.2c0 .9 6.4 4 11.3 5.5 1.5.5 4.5 2 4.9 2.5 1.6 1.9 3.2 5.8 2.8 6.9-.7 2.2-3.4 3.6-6 3l-1.6-.3 1 .9c3.5 3 10.2 4.7 12.9 3.4 2.3-1.1 6.9-.8 7.4.5.2.5.1.5-2 .4s-2.2 0-3.7.9c-1.9 1.1-4 1.9-4.8 1.7-2.4-.5-6-1.6-7.4-2.1l-1.6-.7.2.8c.1.5.3 1 .4 1.2.2.4 4.5 1.9 10.6 3.7.2 0 1.5-.7 2.9-1.7 2.2-1.5 2.8-1.7 3.4-1.6.4.1 1.8.2 3.1.3l2.3.2.5-1c.3-.5.6-1 .7-1 .3 0 .3-1 0-1.2-.1-.1-.3-.4-.3-.7 0-2.3-7.2-10.5-11.3-13-3.7-2.2-11.3-4.8-14.8-5-3.6-.3-6.6-1.1-8.2-2.2-1.6-.9-2.7-1.5-2.7-1.4m-62.7 2.5c-2.1 2.3-2.6 4.2-2.9 10.9-.2 4.7-.3 5.3-1.1 7.5-1.4 3.9-1.5 4.9-.5 4 .2-.2 1.8-1.1 3.4-1.9 4.5-2.4 5.2-4 4-9.2l-.6-2.9.7-.4c1.1-.6 1.9-1.6 2.3-2.8.4-1.4.6-1.4 1.4.1 1.2 2.1.4 8.4-1.6 12.3-.9 1.7-5.5 5-7.1 5-.2 0-.8.4-1.3.9l-1 .9 1.6-.5c.9-.3 2.5-.7 3.6-.9 1.1-.2 2.8-.7 3.9-1.1 4.7-1.7 7.9.1 7.5 4.3-.3 3.1-2.3 3.9-4.8 1.9-1.1-.9-3.2-1.8-3.5-1.5-.1.1.4.3.9.6 3.9 1.7 9.7 12 11.9 21.2.8 3.5 2.5 6.2 4.4 7.2 1.1.6 1.7.7 1.5.3-.1-.2-1.2-5.9-1.6-8.6-.1-.5-.6-3.5-1.2-6.5-1.4-7-1.6-11.6-.5-13.3l.6-1-.5-1.3c-1.3-3.3-3-5.1-6.4-7.1-3.4-1.9-3.2-1.6-3.2-5.3 0-1.8.1-3.8.3-4.6.6-2.9.6-3.1-.2-4.7-2.3-3.9-7.8-5.9-10-3.5m-33.8 3.1c-5.3 4-6.2 4.8-8.4 7.3-4.3 4.8-7.4 11.5-7.4 15.8 0 .9 1.1-.2 1.5-1.6.6-2 1.3-2.6 1.7-1.5.2.5.2 1 .1 1.2-.3.8.5.4 1.5-.7.8-.9 1-1 1.2-.6.3.8.8.1.6-1-.2-1.6.8-3.8 2.1-4.6l1-.6v1.1c0 1.8.3 2.2.9 1.3.3-.4.4-.6.2-.5-.2.1-.3-.2-.3-1.2 0-.7.1-1.3.2-1.3s.9-.9 1.8-2c1.5-2 2.9-2.8 3.4-2 .1.2.3 0 .5-.5.2-.4.4-1 .5-1.3.2-.5.2-.5-.2-.1-.5.6-2.2 1-2 .4.1-.2.2-.8.3-1.3.1-.7.7-1.3 2-2.5 1.9-1.6 1.9-1.7 2.3-4.6 0-1.8-.1-1.8-3.5.8m46.1 4c-1.8 1.9-1.9 6.1-.3 7.9 4 4.3 12.9-1.2 9.6-6-.3-.4-.3-.3-.2 1.3.3 3.6-2 5.6-4.8 4.3-1.5-.7-2.8-3.3-1.7-3.3 3.2 0 3.2-3.8 0-4.3-.5-.1-1.2-.2-1.5-.3-.3-.2-.7 0-1.1.4m-47.8 1.7c0 2-3.1 6-5 6.4-1.5.4-1.5.4-1.1-.9.5-2 6.1-7 6.1-5.5m76.4 2.8c-1.3 2.1-7.4 3.1-11.6 1.9-2.8-.8-3.1-.7-5.2 1.7-1.9 2.1-2.6 3.5-2.6 5.5 0 2.1.6 5.1 1.3 6 .7 1 1.8 4.3 2.2 6.6.2 1 .4 2.5.6 3.4.2.9.4 2.4.5 3.4s.4 2.5.6 3.4c.2.9.6 3.3.8 5.3.5 4.3.8 5.4 1.5 5.4.5 0 .5 0 .1.5-.3.3-.4.6-.3.7.5.5 3.4-5.2 3.4-6.9 0-.4.1-.7.3-.7.5 0 .2-3.3-.6-7.4-2.4-11.1-2-16 1.8-21.3.5-.6 1.3-1.4 1.9-1.7 1.6-.8 1-.9-1-.1-3.9 1.4-5.8 4.7-6.3 11.1-.3 3.8-.4 3.7-1.4-1-1.2-5.7-.6-10.2 1.5-10.7.4-.1 1.2-.3 1.8-.5.7-.2 1.1-.4 1.1-.7 0-.2.3-.4.8-.4 2.3 0 6-.8 7.2-1.6 1.4-.9 2.3-1.8 2.1-2-.2-.2-.4-.1-.5.1M134 110c-.7 1.1-2 2.9-3 4.1s-2.4 2.7-3 3.5c-1.2 1.4-3.9 3.7-6.9 5.8-2.9 2.1-6.6 5.2-6.7 5.7-.1.3-.5.6-.8.8-4.9 1.8-10.4 12.7-9.4 18.4.4 2.5.4 2.4 1.7 2.4 1.9 0 2.7-.6 1.2-.9-2.6-.5-.9-6.3 2.1-7.4 3.1-1.2 9-.1 12 2.2 1.2.9 4.2 0 7.6-2.3 1-.7 2.2-1.4 2.7-1.7l.8-.4.2-2.8c.3-4.4 2.3-9.1 5-11.8 1.2-1.2 1.3-1.3 1-1.9-.2-.3-.7-3.5-1.2-7.1-1.5-9.7-1.4-9.6-3.3-6.6m-12.3 2.5c-.2 1.1-.5 2.5-.7 3.1-.3.6-.5 1.2-.5 1.3 0 .4-1.1 2.1-1.3 2.1-1 0 .3-5.5 1.9-7.4l.9-1.1s-.1.9-.3 2m154.8.6c-2 3.8-4.5 6.2-7.9 7.3-1.2.4-2.3.9-2.5 1.2-.4.6-.9 4.3-.6 4.5.4.2.4.1.8-2.2l.4-2.1 1.7-.3c2.5-.4 4.4-1.4 6.6-3.5 2.1-2 2.3-2 2.6-.2.8 4.1-2.4 7.9-5.2 6.3-1.4-.8-2.7-.1-2.7 1.3 0 .5.1.5.7-.2.7-.7.7-.7 1.3-.3 1.1.7 3.6.6 4.9-.3 1.8-1.2 2.5-3.1 2.5-6.5v-2.8l.5 1c.8 1.7.5 6-.4 7.9l-.7 1.5 1.1 1.6c1.7 2.5 2.1 5.7 1.1 10.5-.7 3.5-.8 4.6-.6 4.6.4 0 1.4-2.5 2.2-5.4.4-1.6 1-3.4 1.3-4 1.5-2.9-.5-12.4-4-19-1.9-3.6-1.7-3.5-3.1-.9m-141.6-.4c0 .1.1.7.3 1.5.3 1.6 1.1 8 1.1 9.1 0 .5-.5 1.3-1.9 2.9-3.4 3.8-4.7 6.4-4.9 10.5-.1 2-.2 2.4-.7 2.7-.3.2-1.4.9-2.5 1.7-2.4 1.7-2.4 1.7-5.4.3-3.1-1.5-4.7-1.9-8-1.9-1.4 0-2.6-.1-2.6-.2 0-1.1 7.3-1.8 10.5-.9l1.6.4 1.3-.9c.7-.5 1.6-.9 1.9-.9.8 0 1.1-.5 1.4-2.6.6-4 2.3-7.6 5.1-10.6 1.3-1.4 2-4.9 2.1-10.7-.1-.4.7-.7.7-.4m48.5 2.2c0 1.1 1.4 6.7 1.8 7 .5.5.5 0 0-2.5-.8-3.4-1.8-5.9-1.8-4.5m43 .3c-.7.1-.8.2-.7.6.8 1.8.9 10 .1 12.3-.6 2-.6 2.1.4 1.2 1.3-1.1 2.4-4.4 3.2-9.2.1-.9.3-1.1.7-1.1.9 0 .5 6-.5 7.8-.6.9-.2 1.4.9 1.1.4-.1.8-.1.8-.1s.3-.2.7-.5c1-.9 1.6-3.3 1.6-5.7 0-1.9 0-2.1.5-2s.6.4.8 2.3c.3 2.8.8 3.1 2.4 1.3 1.2-1.3 1.2-1.7.3-2.1-.5-.2-.7-.5-.7-1 0-2.7-1.6-4-5.8-4.7-2.1-.4-2.9-.4-4.7-.2m-12.4 3c-.1.1.1.7.5 1.3 3.8 5.6-.1 15.7-7.4 18.6-1.6.6-1.6.7.1 1.2.8.2 2.3.8 3.4 1.2 2 .9 3 1 3 .5 0-.2 1.1-1.5 2.5-2.9 7-7.3 8.4-11.4 5.2-15.7-1.7-2.1-6.8-5.1-7.3-4.2m43.6 3.2c-.5.3-.9.8-.9 1.1 0 1.9-3.1 3.7-5.9 3.4-3.1-.3-2.9.3.3.9 3.9.7 4.6.6 6.7-1.5 2-2 2.7-4 1.5-4.3-.7-.2-.7-.2-1.7.4m-11 3c-1.8.9-5.3 1.6-7.8 1.6-.9 0-1.3.1-1.2.3.1.2 1.1.4 3.4.4l3.3.1 2.2-1c1.8-.8 2.3-1.1 2.3-1.6.2-.8-.1-.8-2.2.2m13.9 2.1c0 1.7 2.5 3.1 4.7 2.7 1.8-.3 1.6-.7-.5-.9-2.1-.2-2.4-.3-3.2-1.3-.5-.8-1-1-1-.5m-109.5.7c-4.7 2.4-7.8 13.5-4.4 15.9.8.5 4.8.2 5.2-.5.5-.7.4-1-.3-.6-2.3 1.1-2-7.2.4-11.2 1.2-2 1.9.3.9 3.3-.6 1.9-.5 4.7.2 6.7.7 2.1 1.1 2.3 3.4 1.9 2.2-.4 2.2-.3 1.8-1.6-.9-2.7-.6-6.9.6-8.3.4-.5.6-.6.6-.3.1 4.1 1.1 7.8 2.2 8.2 1 .4 1.2.1 1.3-2.9.2-3.4.6-5.3 2.1-8.3 1.2-2.5 1.2-2.7-.8-2.9-2.4-.2-5.5 2-7.9 5.6-.6.8-1.1 1.5-1.3 1.5-.5 0 0-4.3.6-5.3l.5-.9-.7-.6c-.8-.7-2.6-.6-4.4.3m107.2 2c4.2 3.1 6.9 8.4 5.6 10.9-.5 1-.1 1.9 1.3 2.7 1.2.7 1.2-.3 0-1.5-.4-.4-.4-.5-.1-1.1 1.2-2.2-2.7-9.4-5.9-11.1-1.3-.7-1.9-.6-.9.1m-90.7.4c-2.9 4.2-3.7 11.7-1.3 13.5 3.5 2.7 10.6 5.3 10.6 3.9 0-.5-1.3-2.6-1.6-2.6-.1 0-.6-.3-1.1-.7-.5-.4-.8-.6-.8-.5 0 .1-.3-.1-.7-.5a3 3 0 0 0-.9-.7c-.1 0-.5-.4-.7-.9s-.7-1-.9-1.2c-.3-.2-.5-.6-.5-.8 0-.2-.2-.8-.4-1.2-1.1-2.1-1.4-7.2-.5-7.9.3-.2.3-.4.1-.7-.5-.6-.7-.5-1.3.3m102.9 1.8c0 1.8-1.8 7.5-2.8 9.2-.6 1-.5 1.6.5 2.1 2.4 1.1 2.6 4 .7 9.7-1.5 4.8-1.6 5.5-1.6 11.9 0 4.7.1 5.9.4 6.7l.4 1 .2-1.2c.1-.7.2-2 .2-2.9 0-2.7.5-6.3 1.3-9.1.4-1.4.7-2.9.8-3.3 0-.4.7-2 1.5-3.5 1.6-3.1 1.9-4.9 1.2-6.6-.2-.6-.4-1.1-.3-1.3.6-1-1.6-3-3.3-2.8-.5.1-.9.1-.9.1s.3-.8.7-1.7c1.3-3.3 2-6.4 1.8-7.9-.3-2.4-.8-2.6-.8-.4m-126.4-.7c-.5.3-1.7 1.4-2.6 2.5-2.5 3-3.6 3.1-3.8.6-.2-1.8-.7-1.1-1 1.4-.1.7-.3 1.5-.5 1.7-.5.5-.5.7.7 1.6 3.4 2.7 10 4.8 6.9 2.1-1.7-1.4-1.1-5.8 1.1-8.9 1.2-1.6.9-1.9-.8-1m87.9 1.7l-.7 2.2c-.9 2.7-2 5.3-2.5 5.8-2.5 2.3-3.8 3.8-4.8 5.5-1.3 2.2-4.2 5.2-5.5 5.6-1.4.5-.3 1 2.1 1l2-.1 1.2-2.3c3.3-6.5 4.9-8.8 6.2-8.8 1.2 0 1.4-.2 1.8-1.7 1.2-4.2 1.4-10.7.2-7.2m-8.8 1.1c-.4 1.5-1 2.7-3.9 7.7-.6 1-1.6 2.3-2.4 3.1-1.6 1.5-1.7 2.1-.6 1.9.4-.1 1.2-.2 1.6-.3.6-.1.8-.3.7-.5s.1-.5.5-.6c1.3-.5 4.9-9.6 4.9-12.4.1-1.1-.4-.4-.8 1.1m133 6.9c-4.7 5-8.9 10.1-13.6 16.7-1.7 2.4-3.8 5.1-4.6 5.9-1.3 1.4-2.5 2.8-10.4 12.3-1.8 2.1-4.3 5-5.7 6.5-3.2 3.4-8.3 9.1-10.4 11.6-2.8 3.2-9.4 9.7-11.1 10.8-.9.6-2 1.6-2.5 2.3s-1.6 1.9-2.5 2.6c-1.7 1.5-2.6 2.7-1.7 2.2.3-.1 1-.7 1.7-1.3s2.7-2.2 4.4-3.6c3.3-2.6 6.9-5.7 10.6-9.3 1.2-1.1 2-1.8 1.9-1.5s-.3.8-.3 1.1c-.1.3-.5 1-1 1.5s-.9 1.1-1 1.4c-.3 1 1.1.3 2.4-1.1.7-.8.9-.9.9-.5s.2.5 1.1.4l1.1-.1-.5 1.4c-.3.7-.6 1.4-.7 1.5-1.7 1.2-3.3 2.5-3.3 2.7 0 .5.9.2 2-.5l1-.8 1.1.6c.6.3 1.1.6 1.2.6.8.4-1.5 2.9-3.5 3.8-3.7 1.7-4 2.3-.7 1.2s3.3-1.1 4.4-.4c1.5.9.2 2.7-2.9 3.8-2.7.9-2.2 1.4.7.7.8-.2 1.1-.1 1.4.3.3.3.9.6 1.5.8.9.3 1 .3.5.6-.3.2-1 .8-1.5 1.4-.7.7-1.2 1.1-1.7 1.1-.9 0-3 .6-3 .8 0 .1.8.1 1.7.1l1.7-.1 1.6 1.4c2.3 2 2.5 2-4.7 1.8-4.5-.1-7.5-.1-10.5.2-2.3.2-5.5.4-7.2.4h-3.1l-.1-2.7c-.4-9.1-8.5-12.8-8.6-3.9 0 4 3.2 9.6 5.6 9.6.3 0 .1-.3-.5-.8-1.9-1.7-3.4-6.2-2.1-6.2 1.9 0 1.5-4.5-.4-4.8-.7-.1-.8-.2-.3-.6 1.9-1.9 5.2 3 5.9 8.7l.2 1.3 2 .4c3.4.6 20.6.4 47.6-.5 3.4-.1 6.7-.4 7.5-.5.7-.2 1.9-.3 2.5-.2 1.8.1 2.9-2 4.6-9.1.4-1.8.9-3.5 1-3.6s.2-.6.2-1 .3-2.7.8-5.2c.9-4.6 1.4-7.9 1.4-8.8 0-.3.1-1 .2-1.5 1.1-4.6 1.9-17.6 1.8-28.4l-.1-10.9-1.1-6.2c-.9-4.9-1-6.4-.8-7.1.1-.5.3-.9.3-1 .1-.4-1.1.4-2.4 1.7m-221.3 2.2c.9.4 1.9 1.7 1.5 2-.6.6-8.7 1.1-9.9.7-1.3-.5-.4.5 1.7 1.6 2 1.1 2.1 1.2 2.8.8.7-.4 2.4-.8 4.5-1.2.7-.1 1.4-.3 1.6-.4.2-.1 1.1-.3 1.9-.5 2.3-.4 3.4-1 3.6-1.8.2-1 0-1.1-.8-.4-.6.5-.8.5-1.2.2-.2-.2-1-.5-1.8-.7-.7-.1-1.7-.4-2.2-.5-.5-.2-1.3-.3-1.7-.3h-.8l.8.5m-22 1.7c-4.2 1.9-5 3.5-2.8 5.9.3.4.5 1 .5 2 0 1.9.2 1.9 2.3 0 1-.9 2.2-1.8 2.9-2.1 1.2-.5 1.4-.9.6-1.3-.5-.3-1.3-.1-3 .6-1.2.5-1.3.5-1.3 0 0-1.3.6-2.5 1.6-3.2.6-.4 1.1-.8 1.1-1s.2-.5.4-.7c1-.8-.5-1-2.3-.2m153.1 1.3c-.4 2.5.7 5.5 1.7 4.6.7-.7.7-4.4 0-5.2-.9-1.1-1.4-.8-1.7.6m14.7-.9c-.1.2-.2 1.2-.4 2.3-.2 1.1-.6 2.6-1.1 3.5-1.2 2.3-1.8 4.5-1.4 4.9.5.5 1.2-.8 2.9-5.3.5-1.3 1-4.6.8-5.2-.2-.6-.6-.7-.8-.2m-52.1 1.2c0 1.9-2.2 7-3.1 7.2-.9.1-8.1 9-8.1 10 0 1.2 3.3-.5 4.1-2.1 1.5-3.1 3.6-6.5 4.1-6.7.3-.1 1-.3 1.6-.5 1.1-.3 1.1-.3 1.6-2.2.7-3 .9-6.6.3-6.6-.4-.1-.5.1-.5.9m48.8 1.3c-.5.8-1.5 2.4-2.3 3.4-2.2 2.8-3.8 5.8-4.4 8.3-1.8 7.5-2.4 15.4-1.3 18 .4.9.4.8.4-2.1 0-3.9.7-8.3 2.2-15.1.4-1.9 1.1-2.6 1.4-1.5.1.3.1.3.2-.1.1-1.9 1-4.2 2.5-6.6 1.8-2.7 2.6-4.3 2.6-5.2 0-1-.4-.7-1.3.9m-153.5.1c-.3.4-.7.9-.9 1-.3.1-.5.2-.5.4s-.6.6-1.2 1.1c-1.1.8-1.2.9-.8 1.3.8.8 3.3-1 4.3-2.9.7-1.6-.1-2.3-.9-.9m84.7.6c-.5 2-2.6 4.2-5.2 5.7l-1 .6-.9-.7c-.5-.4-1.2-1.2-1.5-1.9l-.5-1.2-1.1 1.5c-1.4 1.9-.7 2.7 2.9 3.6 2.2.5 7.2-4.4 7.7-7.6.2-1.2 0-1.1-.4 0m-90.2 2.5c-.1.1-.2.3-.2.6s-.5 1-1.2 1.7c-.9 1-1.2 1.5-1.2 2.2.1 2.1.9 3.1 1.1 1.3.1-.6.6-1.6 1.1-2.4 1.1-1.6 1.4-4.5.4-3.4m92.4 3.3c-1.3 3.1-1.8 3.8-3.4 5.2-2.9 2.6-3.3 2.6-4.4.7-.5-.9-1-1.4-2.2-2-.9-.5-2.1-1.4-2.7-2.1-1.2-1.3-2-1.4-2-.3 0 1.4 7.9 8.1 9 7.7 1.4-.5 6.1-7.1 6.6-9.4.2-1.3-.4-1.1-.9.2m65.2 0c-.2.6-.7 7.8-.8 11.4 0 1.7-.1 3.9-.2 4.8l-.2 1.6-.9-2.6c-.5-1.4-.9-2.9-.9-3.2 0-1.2-.3-2-.6-1.4-.3.7-.3 4.1 0 4.2.8.5 2.2 8.1 2.2 12.2.1 3.1.2 3.4.8 1.8.7-1.8.8-3 .3-5.8-.4-2.2-.4-2.9-.1-4 .7-2.2.9-20.3.4-19M107 155.2c-1.2.6-1.7 1.3-1.8 2.5-.1 1.3-.2 1.3 1.8 0 1.1-.7 2-1.1 2.6-1.1.5 0 1.1-.2 1.3-.4.2-.2.5-.4.8-.4.9 0-1.2-.8-2.5-.9-1-.1-1.6 0-2.2.3m-12.8.8c-.6 3.8 4 14.3 6.8 15.3.5.2 1.4.7 2 1.1 1.5 1 2.8.9 7.8-.6 1.6-.5 2.3-.6 3.8-.4 2.7.3 2.1-1-.6-1.3-3.2-.4-6.3-.6-7-.5-1.1.2-2.7-.2-1.9-.4.3-.1.6-.5.8-1 .1-.5.4-.9.6-1.1.2-.1.5-.5.5-.7.3-4.2 8.5-3.3 9.4 1.1.3 1.5.9 1.2.7-.3-.2-1.6-1.2-2.6-3.7-4.2-2.1-1.2-3.6-3.1-3.6-4.2 0-.9-.3-.9-1.3-.3-.4.3-1.1.7-1.5 1l-.8.5.9.1.9.1-1.1 1.9c-1.3 2.2-2.2 2.6-4.5 1.8-.6-.2-1.2-.4-1.3-.4-.3 0 .7 1.6 1.5 2.4 1.1 1.1 1.3 1.8.5 2.5-1.5 1.4-5.1-3.5-4.7-6.4.3-2 .3-2 2.4-1.6 1.5.3 2.1.2 3.2-.1l1.3-.4-1.9-.2c-2.4-.2-5.6-1.8-7.4-3.5-1.5-1.4-1.5-1.5-1.8-.2m259.7 0c.2.7.9 5.1 1.1 6.9l.2 1.6-1.4 1.2c-.8.6-2.9 2.5-4.6 4.1-3.5 3.2-3.3 3.1-5.7 2l-1.2-.5.2-1.3c.1-.7.7-3.2 1.3-5.5l1.1-4.2 1.9-2.1 1.9-2.1 2.4-.3c1.3-.2 2.5-.3 2.6-.3 0 .1.2.3.2.5m-127.6.3c-.1.1-.4 1-.7 2-.5 1.5-.8 2-2 3.2-1.1 1-1.8 2-2.6 3.7-1.3 2.7-1.9 3.4-3.4 4.1-1.2.5-1.4 1.3-.4 1.1.3 0 1.2-.1 2.2-.1h1.6l.3-1.2c.8-3 1.2-4.1 1.9-4.8 1.1-1.1 2.3-1.9 2.7-1.9.5 0 .6-.4.8-3.5.2-2.6.1-3.4-.4-2.6m-111.9 1.6c.1.4 0 1.2-.2 1.7-.4 1.2-.2 1.9.8 2.9.6.6 1.8 1 1.8.6s-1.1-4.9-1.3-5.4c-.4-.8-1.2-.8-1.1.2m82.9 1c0 3.2 5.5 10.7 7.8 10.7 1.6 0 3.9-2.7 6-6.9 1.6-3.1.9-2.9-.9.3-1.3 2.3-3.8 5.3-4.5 5.3-.5 0-1.2-1.3-1.2-2.2 0-.5-.3-.9-1-1.4-1.4-1-4.8-4.6-5.3-5.5-.4-.8-.9-1-.9-.3m.8 6.4c0 2 2.9 7.1 5.4 9.3 1.8 1.7 3.4.4 8-6.3 3.1-4.6 1.2-3.5-2.2 1.3-3 4.1-4 4.8-4.7 2.9-.2-.7-1.1-1.7-2.7-3.3-1.7-1.7-2.5-2.6-2.8-3.6-.6-1.5-1-1.6-1-.3m27 .3c-.1.3-.3.9-.4 1.4-.1.5-.7 2-1.4 3.3-1.6 3.1-1.6 4.6 0 2.1.4-.6 1.2-1.5 1.9-2.1l1.2-1-.3-2.1c-.4-2.1-.6-2.4-1-1.6m114.7 2.3c-.2.9-.5 2.3-.7 3.1-.3 1.5-1.9 3.8-3.9 5.7-.8.7-5.2 1.8-5.6 1.4-.1-.1 1-1.4 2.4-2.9s3.7-4.2 5.2-5.9c3.1-3.6 3.1-3.6 2.6-1.4m-221.6.1c.1.7.2 2 .3 2.9l.1 1.6 1.2.3c.6.2 1.5.5 2 .8.7.4 1 .4 1.5.2.9-.4 1.8-.6 2-.3s1.5.3 1.5 0c0-.8-4.7-4.7-7-5.9-.2-.1-.6-.3-.9-.5l-.6-.3-.1 1.2m153.2.2c-1 2.6-.8 7.2.4 9 1 1.5 1.3 1.3 1.2-1.3 0-2.6-1.3-8.6-1.6-7.7m-92.1.2c-3.8 2.1-9 6.1-13.6 10.5-1.9 1.8-4.7 4.2-6.2 5.4-6.2 4.7-11.7 8.7-15.4 11.1-9.4 6.2-11.3 7.6-16.8 13.2-3.9 3.9-3.9 3.9-2.6 4.8.6.4 1.1 1.1 1.4 1.9.3.7.7 1.6 1 2.1.3.4.5 1.2.5 1.7 0 1.1.3 1.7.9 1.5.3-.1.4-.9.5-3.3.2-5 1.7-6.8 8.8-10.5 4.3-2.2 3.6-2.1 6.6-.9 3.1 1.2 3.5 1.2 6.5-.3s2.8-1.1 2.9-4.6c.2-3.8.2-3.8 4.7-7.9 12.7-11.8 18.7-16.6 24.3-19.5 3.7-1.9 4-2 2.9-.5-.5.6-1 1.4-1.2 1.7s-1 .8-2 1.1c-2.8 1-7.2 3.8-9.2 5.9-1 1.1-.7 1.1.9-.1 2.8-2 8.8-4.8 9-4.2.2.5-1 4.3-1.8 5.9-1.2 2.3-.9 2.8.5 1 .9-1.2 1.3-2.1 2-4.6 1-3.4 2.3-5.8 4.4-7.9l1-1-.6-.7c-1.5-1.5-7.9-2.7-9.4-1.8m176.6 7.3l-.1 4.2-3.5 1.7-3.5 1.8-2.1-.3c-2.5-.3-2.5-.1-.3-4.3 2-4 2.2-4.2 6.1-7l2.9-2 .2.8c.3.6.3 2.8.3 5.1m-157.5-4.9c-1 1 .8 5.4 3.3 8.6.7.9 1.4 1.9 1.6 2.2.8 1.5 2.9.8 4.3-1.4 1.9-3.1 3.5-5.3 4.8-6.8.9-.9 1.3-1.6 1.1-1.7-.4-.2-2.2 1.7-3.6 3.7-1.6 2.4-3.9 5.5-4.2 5.5-.1 0-.5-.6-.9-1.3-.9-1.6-2.9-4.6-3.6-5.4-.3-.4-.8-1.2-1.2-1.9-.7-1.5-1.2-1.9-1.6-1.5m-20.8 1.3c0 .6-.6 1.1-3.9 3.7-1.8 1.4-4.9 3.9-7.1 5.6-2.1 1.7-5.1 4.1-6.7 5.3-1.6 1.2-2.9 2.5-3.1 2.9-.2.4-1.2 1.5-2.2 2.3-2.8 2.4-3.3 3.2-3.4 5.8-.2 2.9-.5 3.4-2.6 4.5-1.9.9-2.2.9-5.3.1-2.2-.6-2.2-.6-6.5 2.4-3.5 2.5-5.3 3.5-6.6 3.9-.5.1-1.2.6-1.6.9-.7.8-1.1.8-1.1.2 0-.8 2.7-3 5.9-4.9 1.5-.9 5.2-3.7 8.9-6.6 1.2-1 3.1-2.4 4.3-3.1 1.2-.8 2.9-2.1 3.9-2.8 3.9-3.3 23.2-18.6 24.8-19.7 1.3-.8 2.3-1 2.3-.5m15.3.7c-4.1 1.4-5.2 3.5-5.2 10 0 2.7-.1 3.2-.7 4.7-.7 1.7-.8 3.4-.3 4.9.2.5.1.5-.4-.1-.8-.9-.9-2.2-.4-4.7.3-1.2.4-3 .4-4l-.1-1.8-1.1 1.1c-2.5 2.4-3.4 8.3-2.2 13.4 1.2 4.9.9 6.9-.4 2.8l-.7-2.3-.7.5c-1.3.9-2.1 2.1-2.1 3 0 1.7.6 4.3 1.5 6.7 1 2.6 1.7 5.5 1.7 7 0 4 1.5 7.9 3.5 9.2 1.7 1.1 1.9.9 2.6-1.5.3-1.2.8-2.6 1-3.3.5-1.4 3.4-5.7 5-7.4.7-.7 1.2-1.5 1.2-1.9 0-.7 1.5-7.2 2.6-11.1l.6-2.4-.9-1.4c-2.1-3.2-3.9-7.8-4.2-11-.1-1.3-.4-2.7-.5-3.2-.4-1.1-.3-4.2.1-5.1.3-.7.3-.5.5 2 .3 3.6 1.3 7.4 2.8 10.3 2.1 3.9 3.1 4.3 1.3.5-1.9-3.9-2.6-7.7-2.4-12.3 0-3.5 0-3.5-2.5-2.6m-29.4.9c-6.5 1.8-9.3 3.1-14.6 6.8-5.6 3.9-17.4 15.2-19.6 18.7-2.8 4.5-5.2 9.5-4.6 9.5.5 0 3.6-3.5 4.3-4.9.9-1.7 1.8-2.4 2.8-2.2 1.5.4 6.1-3.1 6.1-4.7 0-.3.3-.7.7-.9.4-.3 1.2-.8 1.7-1.2.7-.5 1.3-.7 2.2-.7 2.1 0 5.3-2.3 6.8-4.7.4-.6 1.1-1.4 1.7-1.8.6-.4 1.4-1.1 1.8-1.7.7-.9.8-1 1.8-.9 2.2.2 5.8-2.6 5.8-4.5 0-.6.2-1 .6-1.2 1-.5 2.7-2.1 3.1-2.8.2-.4 1.1-1.1 2.1-1.6 1.8-.9 1.7-1.2-.2-.5-1.1.4-1.1.4-.8-.1.2-.3 1-.7 1.7-.9.8-.2 1.4-.5 1.4-.5-.1-.4-1.2-.2-4.8.8m-49.4 0c-1 .6-.6 8.6.5 11.1.3.6.6 1.3.7 1.6.3.9.7-2.2.4-3.3-.2-.6-.2-2.4 0-4.9.2-3.9.2-4.7-.3-3.9-.2.3-.3.2-.4-.2-.2-.8-.3-.8-.9-.4m122.6.2c-.1.3-.2 1.6-.3 3-.2 3.8-2.2 11.7-3.7 15.2-.5 1.1-1.1 2.5-1.3 3.2s-1 2.3-1.7 3.6-2 3.9-2.9 5.8c-.9 1.9-2.4 4.5-3.3 5.7-.9 1.3-2.1 3.2-2.8 4.3s-2.4 3.3-3.8 4.9c-3.1 3.6-3 3.4-2 7.2 1.4 5.4 1.9 6 4.7 6.7.8.2 1.4.7 2.4 1.8.8.9 1.8 1.7 2.4 2 3.5 1.5 8.4 12.5 8.4 18.7 0 2.6-.9 6.9-1.8 9-1.7 3.7-1.1 5.3 4.2 10.9 2.5 2.6 3.8 3.4 7.9 5 1.6.6 3 1.2 3 1.4 0 .1.3.3.5.3s1.4.3 2.7.8c4.5 1.5 9.9 2.2 14.6 1.9l1.3-.1-1.2-.2c-.7-.1-2.9-.4-4.9-.7-6.7-.8-12.4-3.3-14.5-6.3l-.6-.8 1.4.6c6.5 2.7 16.7 5 22.7 5.1l3.4.1.7-.9c2-2.5 2.9-8.6 1.2-8.6-.4 0-.5.3-.7 2.1-.3 3.9-1.4 6-3.5 6.4-6.3 1.3-20.4-5-28.6-12.9-1-1-2-1.8-2.2-1.8-1 0-3-7-3.4-11.7-.5-6.3-5.2-16.4-8.8-19.2-5.7-4.4-5.6-13.6.2-23.3 1.8-2.9 3.8-6.6 5.4-9.8l.9-1.7-.2 1.6c-.2 2.2-2.1 7.9-4.1 12.3-1.8 4-2 4.9-1.2 7.1 1.1 3.3 1.7 5.4 1.9 6.3.9 4.9 3.1 11.2 7 20.4 3.7 8.8 4.3 9.9 6 11.3 1.2 1.1 4.5 3.2 4.8 3.1.7-.2.2-.8-2.1-2.8-2.5-2.2-3.1-2.9-4.1-5.5-.3-.7-1.2-2.9-2-4.9-7.7-18.1-8.7-24.9-5.8-38.4.8-3.7 1.3-5.2 2.1-6.9 3.1-6.1 6.2-14.2 7-18.1.4-2 .5-2 2.8-.3 2.2 1.6 2.6 1.7 1.5.3-1.2-1.5-2.7-2.8-3.7-3.2-.8-.3-1.1-.9-1.9-3-.1-.2.3 0 .9.6.6.5 2.4 2.1 4 3.4 1.6 1.4 3.1 2.7 3.1 2.9.2.5 5.2 5.7 5.4 5.5.3-.3-.3-1-5.3-7.1-.9-1.1-2.5-2.8-3.6-3.7-1.1-1-2.7-2.6-3.6-3.7-.9-1.1-1.8-2.1-2-2.2-.8-.5-2.5-2.4-2.5-2.7.2-.4-.3-.6-.4 0m-11.1.3c-4.2 1.4-11.3 5.9-15.8 10.1a17.1 17.1 0 0 1-2.3 1.9c-.5 0-6.1 6.9-7 8.8-.8 1.6-2.5 8.5-2.9 12.4-.2 1.3.9 4.1 2.2 6.3.8 1.2 2.1 5.3 2.5 7.5.3 1.4.6 2.9.9 3.3s.4 1.1.4 1.5c0 1.9 2.2 1.9 4.3 0 2.5-2.3 2.9-4 1.3-4.8-1.3-.7-3.2-2.7-3.8-4.2-.9-2 0-6.1 1.4-6.8.5-.2 1.1-.8 1.4-1.2l.6-.8-1.3.1c-2.7.2-4.4-1.8-4.4-5.4 0-3.9 2.3-6.6 4.7-5.3.5.3 1 .5 1.1.5s.4.5.5 1c.2.6.4 1 .5 1.1.2 0 2.3-3.1 2.3-3.5 0-.1.3-.8.7-1.5.7-1.4.5-2.4-.2-1.4-1 1.3-3.7-1.2-3.2-3 .6-2.5 4.1-2.7 4.4-.3.1.8.8 1.1.8.3 0-.3.1-.6.3-.7.1-.1.3-.5.3-1 0-.4.2-.9.4-.9.2-.1.3-.3.2-.5-.2-.5 2-3.8 2.5-3.8.2 0 .4-.2.4-.5 0-.7 2.7-3.3 4.6-4.5.9-.6 2.1-1.3 2.6-1.7.6-.5.9-.6 1-.3.1.2.4.4.7.6.4.2.6.5.7 1 .2 1.8 1.6.3 1.6-1.7-.2-3-1.3-3.6-4.4-2.6m-108.3.1c0 .5 2.9 2.1 3.3 1.8.4-.4 0-1-.9-1.6-1.1-.6-2.4-.7-2.4-.2m8.9 1c-.4.1-1.3.3-1.8.4-1.6.3-4.2 3.2-4.2 4.7 0 .6-1.7 4.1-3.3 6.8-5.2 8.4-7.5 12.4-9.3 16.1-1.2 2.4-2.3 5.2-2.3 5.9 0 1.2 2.3-1.3 3.6-3.8 1.1-2.1 4-6.9 6-9.5 1.1-1.6 2.5-3.6 3.1-4.6s1.4-2.3 1.9-3 1-1.8 1.2-2.4c1.2-4 6-9 5.9-6.1 0 .5.1.9.3.9.3 0 3.1-4.2 3.1-4.8 0-.8-2.3-1.1-4.2-.6m71.3.4c-1.2 1.4.2 5 3.4 9.1 1.7 2.1 2 2.4 2.5 1.9.2-.3.1-.8-.9-2.5-.7-1.2-1.9-3.6-2.7-5.4-1.5-3.6-1.7-3.8-2.3-3.1m-35.1 1c-.2.2-.8.5-1.3.7s-1.1.4-1.3.6c-.2.1-.4.2-.5.1-.2-.2 2.4-1.8 2.9-1.8.4 0 .4.1.2.4m179.3.2c.8.3 1.3.6 1.2.9-1.2 3.8-2.2 6.2-2.6 6.5-.3.2-1.1.7-1.9 1.1-1.4.8-1.8.8-3.9 0-.8-.3.2-4.7 1.3-5.6 4.4-3.7 4.2-3.6 5.9-2.9m-223.9.3c0 .3-.2 1.2-.4 1.9-.9 3.1-.3 3.6 1 .8.9-2 1-2.7.3-3-.8-.4-.9-.4-.9.3m148.9 1c-1.2.8-1.1 6.7.2 9.2 2.6 5.2 3.9 7.5 4.4 7.8.8.4 5.8 5.8 6.9 7.3 3.4 5.1 4.2 6 4.2 4.9 0-.9-3.2-6.1-5.3-8.6-3.5-4-5.7-8.9-6-13.2l-.1-1.9.9 2.5c1.3 3.6 4.6 9.5 6.8 12.3.5.7 1.5 1.9 2.1 2.8 1.6 2.3 1 .7-.8-2.1-3.5-5.5-5.8-10.1-7.1-13.9-1.7-5.2-4.4-8.3-6.2-7.1m-112.2 2c-1.2 1-3 1.9-3.3 1.6-.2-.2 4-2.8 4.5-2.8.1 0-.5.5-1.2 1.2m178.4.6c-.8 4.3-2.8 6.5-5.9 6.5-1.3 0-1.3.2-.3-2.5 1.3-3.6 6.7-7.1 6.2-4m-175.1.4c-.6.8-2.7 2-3.2 1.8-.2-.1.2-.4.7-.9.6-.4 1.3-1 1.5-1.3 1-.9 1.7-.6 1 .4m-33.4 2.3c-.5 1-1.1 2.6-1.3 3.4-.6 2.2-2.3 5.8-3.6 7.3-.6.7-2.6 3.1-4.5 5.3-3.5 4.2-6 7.7-6 8.5 0 .2.6-.4 1.2-1.4 1-1.5 3.2-4.3 3.8-4.9.1-.1.9-1 1.7-2 .9-1 2.6-2.9 3.8-4.2 2.8-3 4.4-6.1 5-9.5.2-1.2.5-2.7.7-3.2.6-1.6.2-1.2-.8.7m153.3-.7c-.1.5-.2 1.2-.2 1.7s-.1 1.2-.3 1.7c-.3 1 .4 2.5 4.1 8.9 1.3 2.2 2.4 4.2 2.4 4.5.1.3.5.9.8 1.3.4.4 1 1.6 1.3 2.6.8 2.2 1 2.5.8 1s-.8-3.3-1.8-5.3c-.4-.9-1.3-3.2-2-5.1-1.4-4-3.8-10-4.6-11.2l-.5-.9v.8m-150.9-.1c-.1.3-.2 1.7-.3 3.3-.2 3.3-.5 3.9-2.5 5.9-1.6 1.6-1.7 2.1-.4 1.4.4-.2 1.4-.7 2.2-1 2.1-.9 2.1-.9 2.1-5.1.1-4.1-.5-6.5-1.1-4.5m98.2.4c-2.7 1-6.1 3.4-6.1 4.4 0 .4.5 2.2.7 2.4 0 .1.5-.3.9-.7 1.9-1.8 7.4-3.8 8.5-3 1 .6 2.7-.5 2.2-1.4-1.1-1.9-3.7-2.6-6.2-1.7m99.8.8c0 .2-.2.9-.4 1.5s-.3 1.2-.2 1.4c.1.1-.6 1-1.6 1.9-1.8 1.7-2.5 2-4.3 2h-.9l3.4-3.6c3.1-3.4 4-4 4-3.2m-173.3.6c-.6 1.1-3.5 2.7-4 2.2-.3-.3 1.5-1.9 2.4-2.2 1.3-.5 1.9-.5 1.6 0m203.7 1.6c0 .7-.7 5.2-.9 6.4-.1.3-.3.6-.5.6s-1.3.3-2.5.7l-2.1.7-1-.7c-1.3-.9-1.4-1.1-.7-2.4 1.4-2.8 2.8-4.2 5-5.1 2.5-1 2.7-1.1 2.7-.2m-180.7 1a14 14 0 0 0-4.2 3c-3.8 3.9-4.3 5.3-.5 1.6 3.9-3.8 5.3-4.2 7.4-2.4 1.1 1 1.4.9 1.4-.6 0-2.8-1-3.2-4.1-1.6m170.1-.5c2.2.3 2.2.1.9 2.7-1.4 2.8-1.2 2.6-4.6 4-2.6 1.1-2.8 1.1-3.8.8-1.3-.4-1.3-.1 0-3.3l1-2.6 2.3-1.1c1.2-.6 2.4-1 2.6-1 0 .3.8.4 1.6.5M111.9 190c-.8 1.6-2.4 4.6-3.5 6.5-3.4 5.8-5.5 10.2-5.5 11.7 0 1.8.6 1.7 1.2-.1s2.5-5.6 5.2-10.5 4.1-7.9 4.4-9.3c.3-2-.2-1.5-1.8 1.7m80.5-2.2c1.8 2.4 1.4 4.4-.8 5.2-2.1.7-3.1 0-3.5-2.5-.4-2.6 2.9-4.7 4.3-2.7m141.9-.2c1.5.4 1.5.5.5 3.1-.9 2.2-1 2.3-2.5 3.2-.9.5-1.9 1.1-2.2 1.4-1 .7-4.2 0-4.3-1-.1-2.2 5.1-7.7 6.8-7.2.3.2 1.1.4 1.7.5M147 189.4c-1.8 2-5.5 3.6-4.4 1.9.3-.5 3.7-2.4 4.4-2.4.5 0 .5 0 0 .5m179.2.8c-.6 2.9-4.6 5.9-5.6 4.3-.3-.5.7-2.4 2.1-4l1.3-1.5 1.1.5c.6.2 1.1.5 1.1.7m-186.7 2.4c-.6.6-1.3 1.2-1.6 1.4-.3.1.1-.3.8-1.1 1.7-1.6 2.4-1.8.8-.3m180.1.2c-.2.6-.5 1.2-.6 1.5-.2.7-1.6 1.5-3.6 2.1s-1.9.7-1.7-.9c.3-2.1 1.4-3.1 4-3.4 2.5-.5 2.4-.5 1.9.7m-142.4-.1c-2.2 1.4-4.3 4.6-4.1 6.1.1.8.6.9 1 .1.4-.9 1.6-1.7 1.9-1.2.2.3.3.1.6-.5.5-.9 1.3-1.5 1.9-1.3.5.2 2.2-1.1 2.2-1.6 0-.2-.1-.4-.2-.4s-.2-.4-.1-.8c.3-1.5-1.2-1.7-3.2-.4m70.1.2c-1.2.6-3.8 5.1-5.5 9.3-2.8 7.2-3.3 21.6-.9 31.9.4 1.6.9 3.8 1.1 4.8.6 2.9 2.7 9.1 3.6 10.9.4.9 1 2.3 1.3 3.1 1.2 3.5 6.3 9.4 10.4 12.1 2.2 1.5 2.2.9 0-1.2-2.1-2-2.3-2.4-1.2-3.2 1.5-1 4.3.9 4.3 2.9 0 1.4.6 2.5 1.3 2.5.3 0 .6.2.8.4.2.2.6.5 1 .7.6.2 1.2 2.7.7 2.7s-5.9-2.4-6.8-2.9c-4-2.7-11.1-10.8-12.1-13.9-.2-.7-.6-1.3-.7-1.2-.9.2-4.4-10.8-5.8-17.9-1.4-7.1-1.7-18.6-.7-23.6 1.2-5.8 3-11.5 4.4-14 1.2-2.2 1.3-2.4.9-2.4-.7 0-3.6 5.4-4.7 8.6-.3 1-.8 2-1 2.1-.4.3-2.9 9.6-3.6 13.9-1.2 6.7 0 13.6 4.1 24.2 1.1 2.7 2.2 5.7 2.6 6.6 3.6 10.1 14.8 20.5 23.9 22.3 1.2.2 2.6.5 3.2.6.8.2 1.2.1 1.4-.1.3-.3.3-.4-.4-.5-3.4-.7-4.7-2-2.7-2.7.5-.2 1.2-.6 1.6-1l.7-.7 1 .8c2 1.6 3.4-.1 3.7-4 .1-1.4.3-2.7.5-2.9s.4-.7.6-1.1c.5-1.2.4 1.3-.2 4-.3 1.2-.4 2.4-.4 2.6.1.2-.1 1-.4 1.7-.6 1.4-.6 2.5.1 1.8 2.3-2.5 4.7-15.7 4.7-26.1 0-7.9-2.6-21.2-4.7-23.5-.2-.2-1.1-1.8-1.9-3.6a44.9 44.9 0 0 0-5.8-9.2c-1-1.2-2.4-3.1-3.2-4.2-2.7-3.6-10.1-9.4-13.4-10.4-.7-.2-1.2-.4-1.2-.4-.1-.1-.3.1-.6.2m87.3 2.9c2.6 1 2.6.8 1.2 3-2.2 3.6-4 4.7-6.4 3.9-3-.9-1.4-4.8 2.9-7l.8-.4c.1 0 .7.2 1.5.5m-186.8.7c-.7.6-2 1.5-2.9 2.1-1.8 1.2-1.8 1.3.2 1.8 1.3.3 1.5.3 2.5-.3 1.6-1 1.7-1.3 1.7-3l-.1-1.5-1.4.9m45.3-.5c3.3 1.6 2.4 7.6-1.3 8.7-4 1.1-6.6-4.2-3.6-7.6 1.2-1.3 3.5-1.8 4.9-1.1m128.2.3c0 2.5-3.8 6.8-5.3 6-.7-.4-.7-.5 0-2.1.3-.7.5-1.6.5-1.8 0-.7 2.8-2.4 3.9-2.4.7-.2.9-.1.9.3m4.7.4c1 .3 1.8.6 1.9.6 0 0-.3.9-.7 1.9-1 2.5-2.1 3-4.1 1.9l-1.2-.7.4-1.8c.4-1.6 1-2.4 1.8-2.5.1 0 .9.2 1.9.6m19.2.3c1.7 1.1 1.7.9.4 2.6-.6.8-1.3 1.9-1.7 2.5-1 1.8-4.8 2.5-6.6 1.3-1.2-.8-1.3-1-.5-2.3.3-.5.8-1.3 1-1.8.4-.7 1-1.1 3-2.1 3-1.3 2.6-1.3 4.4-.2m-209.5.6c-.6.7-2.7 1.8-2.6 1.5 0-.9 1.9-2.7 2.5-2.4.6.3.6.3.1.9m111.6 1.2c.3.5 1 1.5 1.5 2.3l1 1.4-.5 1.1-.5 1.1-1.4-.1c-1.4-.1-1.5-.1-2.4-1.6l-1-1.5 1.2-1.8c1.4-2 1.4-2 2.1-.9m5.7.9c3 1.6 3.2 1.8 3.2 2.8 0 1.1-.2 1.1-2 .1-1-.5-1.9-.9-2.1-.9-.2 0-2.2-3.4-1.9-3.4 0-.1 1.3.6 2.8 1.4m100.3-.1c0 .5-.2 1.8-.4 3-.7 4.1-.7 3.9-1.6 3.9-2.3 0-5.3-1.8-4.6-2.7.2-.2 1-1.3 1.7-2.4 1.3-1.9 1.5-2 2.8-2.3 2.1-.4 2.1-.4 2.1.5m-180.8 2.3c-.2.3-.3 1-.3 1.5s-.1 1.2-.3 1.3c-.5.5 0 1.9.7 2.2 1.6.6 5.4 1 5.8.6.3-.3 0-1.1-.4-1.1-.2 0-.3-.2-.3-.4 0-.3-.3-.5-1-.7-1.8-.4-3.4-2.1-3.4-3.5 0-.6-.5-.5-.8.1m149.2.6l1.2.5-.6 1c-.4.6-.8 1.4-.9 1.9-.2.8-.5 1-1.9 1.6l-1.6.7-.8-.8-.8-.8.5-1.2c.3-.6.5-1.3.5-1.5 0-.3 2.5-2 3-2 .1 0 .7.3 1.4.6m-14.4.9c-1.3.9-2 1.6-1.7 1.9.2.2 3.2-2.1 3.4-2.6.2-.4-.5-.2-1.7.7m20.2.4c.8.3 1.5.6 1.5.6.1.1-.3 1-.9 2.1-2.1 4.3-6.9 3.6-5.2-.7.5-1.4.7-1.6 1.8-2 .7-.3 1.2-.5 1.3-.5 0 0 .7.2 1.5.5m-66.3 1.8c1.5 1.3 2.3 2.3 2.5 2.9.3 1.1.2 1.1-.8.6-.5-.2-1.4-.7-2.1-.9-1.3-.5-2.1-2-2.1-3.8-.1-1.1 0-1.1 2.5 1.2m74.6-1a4 4 0 0 1 1.4.9c.1.4-2.8 4.9-3.2 5-1.8.5-3.5.3-4.5-.5l-1-.9 1.3-2.2c1.3-2.4 3.3-3.8 4.3-3.2.2.2 1 .6 1.7.9m-173.8.3c-.5 3-4.1 7.9-5.9 7.9-.8 0-.9-.1-.7-.8.2-1.2-.2-4.8-.5-4.8-.1 0-.2.3-.2.7 0 3.1-3.2 8.8-5.6 10-.8.4-.8.4-.6-.1.3-.8.5-4.2.2-4.8-.2-.4-.3-.4-.4-.1-1.3 3.8-1.6 4.2-4.3 5.9-2.1 1.4-3 1.6-6 1.3-2.2-.2-2.6-.2-2.9.2-.6.8-.3 1.1 2.3 1.9 4.7 1.5 9.7.4 16.5-3.7 1.3-.8 3-1.8 3.7-2.1 3.1-1.5 10.9-10.5 9.1-10.5-.2 0-.6.3-.9.7-2.2 3.2-3 3.2-3 .2-.2-2.5-.5-3.6-.8-1.9m81.9.6l1.1 1.4-.4 1.4-.4 1.4-1.2-.2-1.3-.2c-.2-.1 1-5.2 1.2-5.2-.1 0 .4.6 1 1.4m10.8.3c1.9.9 2.9 3 2.2 4.6-.4 1-.3 1-1.9.6-1.8-.4-3-2.8-2.5-4.8.2-.7.4-1.3.5-1.2.1 0 .8.4 1.7.8m34.5.9c-.4 1.2 2.7 3 3.8 2.2.4-.3 1-.6 1.2-.6 1.1 0-.1-1.4-1.6-1.8-1.7-.5-3.2-.4-3.4.2m-100.4.1c1.6.5 2.6 3 1.7 4.7-.5.9-2.2 2.5-2.7 2.5-2.2 0-3.4-2.1-2.7-4.9.7-2.3 1.7-2.9 3.7-2.3m156.3.8c1.9 1.4 1.9 1.1-.3 3.6-2 2.3-2.2 2.4-5.1 2.5-1.5.1-2-.2-3.8-1.7-.1-.1.5-1.3 1.4-2.7l1.6-2.5 1.5-.2c3.1-.2 3.1-.2 4.7 1m-37.1-.2c-1.4.7-2.1 1.3-1.9 1.6.2.2 3.6-1.8 3.6-2.1.1-.3-.2-.2-1.7.5m-59.1-.2c1.3.8 2 5.7.9 6.3-.6.4-1.7-.3-2.6-1.6l-.9-1.4.6-1.8c.6-1.7 1.1-2.1 2-1.5m54.6.6c-1 .7-1.5 1.6-1 1.6.3 0 2.8-1.9 2.8-2.2 0-.4-.7-.2-1.8.6m18.2 1.4c1.1 1.1 1.1 1.1-.1 2.8-.5.8-.9 1.5-.9 1.7s-.6.3-1.3.3c-.7 0-1.3-.1-1.3-.3s-.4-.5-.9-.8l-.9-.6.6-.7c.4-.4.9-1 1.1-1.4.4-.7 2-1.7 2.6-1.8.2-.1.7.3 1.1.8m-221.1 1.6c-1.7.9-2.7 2.4-3.2 4.5-.1.4-.5.9-1.1 1.3-.8.5-4.1 4.5-4.1 4.9 0 .5.8-.1 2.7-1.9 1.1-1.1 2.2-2 2.4-2 .4 0 1.7-1.9 1.7-2.5 0-.8 1.3-3 2-3.6s.5-1.2-.4-.7m227.9.4c1.2.8 1.2.9-.5 3.1-1.5 1.9-3.5 2.6-4.8 1.6-.4-.3-.7-.7-.6-.9 0-.2 0-.5-.2-.6-.7-.8 1.6-3.2 3.3-3.5.9-.2 1.6-.3 1.7-.3s.5.2 1.1.6m-223.4.2c-1.9.8-3.2 2.1-4.1 3.8a11 11 0 0 1-2.6 3c-2.6 2.2-3.3 3.1-3.5 4.8-.1.9-.1 1.4.1 1.4s.3-.2.3-.4c0-1.6 3.5-5.5 4.9-5.5.2 0 .6-.3.9-.7 2.6-3.8 5.7-5.7 7-4.2.7.8 1.1.6.9-.3-.3-2.1-1.9-2.8-3.9-1.9m137.5.5c.7.4 1.5.7 1.6.7.7 0 1.3 1.9.9 2.8-.4.8-.4.8-2.4.8h-2v-1.6c0-1.5.2-3.3.4-3.3.1 0 .7.3 1.5.6m19.4.3c2.5 1.3 2.8 2.2 1.8 5.2l-.7 2.3-1.7-.8c-1.3-.6-1.7-.9-1.7-1.4 0-.3-.1-.9-.3-1.3-.3-.7.4-4.9.8-4.9.1 0 .9.4 1.8.9m36.8-.7c-.3.3-.2.9.2.7.2-.1.4-.3.4-.5 0-.4-.3-.5-.6-.2m51.7 1.6c-.4 1-.9 2.5-1.2 3.3l-.5 1.5-1.7-1.5c-.9-.8-1.7-1.6-1.7-1.7 0-.6 3.2-3.2 4-3.3 1.9-.2 1.8-.3 1.1 1.7m-47.1-1.1c-.8.4-1 .7-.7.9.2.1 2.1-.7 2.3-1 .5-.5-.4-.5-1.6.1m4.5.1c-1.1.5-1.8 1.2-.9.9 2.6-.8 3.1-1 3.1-1.2 0-.4-.8-.3-2.2.3m-189.5 1c-.4.5-.5.9-.4 1.2.3.8.1 2.9-.3 5.1-1.2 5.8-.7 15.6 1.1 19.1 1.4 2.9 8.4 8.8 10.3 8.7.9 0 5.1-5.9 6.1-8.5s1-3.6 0-4.9c-2-3-7.3-6.6-7.3-5.1 0 .6 1.1 2.4 2 3.2 2.1 2.1 2.8 6 1.5 8.7-.8 1.6-3.3 4.4-2.8 3.2.7-1.8.9-4 .4-5.4-.1-.4-.4-1.3-.5-1.9-.2-.6-.9-1.9-1.7-3-2.8-3.5-3-4.2-3.1-8.7-.2-4.6-.2-4.9-2.6-9a20 20 0 0 1-1.6-3.3c-.1-.3-.4-.2-1.1.6m216.5 1l1.6 1.2-1.9 2.1c-2.4 2.7-2.9 2.7-5.1.7l-1.5-1.4.6-.9c1.8-2.7 2.2-3.1 3.1-3.2 1.3.1 1.4.1 3.2 1.5m-79.5-.6c1.7.7 2.6 5.4 1.3 7.4-.3.5-2.4-.8-2.4-1.4 0-.3-1.3-3.5-1.9-4.5-.8-1.6.8-2.5 3-1.5m-161.5.8c-2.7 1.3-5.2 4.2-5.2 6.2 0 1.8 1.7 1.3 2.8-.8.4-.8 1.2-1.9 1.9-2.4.7-.6 1.7-1.5 2.3-2 1.9-1.6.8-2.2-1.8-1m209.3.6c-1.4.6-.7 1 .8.5.7-.2 1.3-.5 1.5-.7.3-.4-1.3-.2-2.3.2m-4.7 0c-.4.4-.2.7.4.6.3 0 .5-.2.5-.4.1-.3-.6-.4-.9-.2m-49 .8c1.1.1 1.1.2 1.9 1.9l.8 1.8-1 2.1c-.6 1.1-1.1 2.1-1.1 2.1-1.2 0-2.4-1.1-3-2.9l-.6-1.9.5-1.8c.4-1.4.6-1.7 1-1.6.1.1.8.2 1.5.3m71.8.6l1.2 1-1 1c-1.3 1.2-2.2 1.2-3.6.1-1.3-1-1.3-1-.2-2.2 1-1.3 2-1.2 3.6.1m-12.7-.5c-1.4.2-1.7.5-.8.7.9.2 2.6-.1 2.5-.5s-.4-.4-1.7-.2m-204.2 2.1c-4.3 2.1-8.8 7.9-9.3 11.8-.2 1.6.1 1.7 2.7 1.1 2.6-.6 3-.8 4.2-2.8 1.5-2.5 2.4-3.5 4.6-5.3l2.1-1.6.2-1.6c.2-1.8.1-2.4-.7-2.6-1.1-.2-1.7 0-3.8 1m239-.4c1 .6 1.8 1.4 1.6 1.6-.1.1-9 .4-9 .3 0-.1.7-.6 1.5-1.3 1.8-1.5 4.1-1.7 5.9-.6m-44.3.2c-.7.3-.9.6-.5.9.3.2 2-.6 1.8-.9-.2-.3-.3-.3-1.3 0m-54.8 1.9c1 3.3 1 3.5.3 5.1s-1.1 1.8-1.7 1.1c-.4-.5-.8-.5-.8 0 0 .2.4.7.9 1.1.8.6.9.8 1 2.6.1 1.1.3 2.4.6 3 .4 1 .4 1.1-.1 2.3-.3.7-.5 1.5-.4 1.7.3.7 1 .4 1.4-.6s.7-1.1 1.2-.6c.2.2.9.6 1.6.9l1.3.6.1 1.8c.2 1.9 0 2.3-1.2 3.8-.7.9-.8.9-1.5.7-1.5-.6-1.4.9.1 1.9.8.5.9.7.9 1.8 0 1.4.4 2.2.9 2.2s.7-.6.7-2.6c0-1.6.7-3.5 1.3-3.5 2.7 0 3 6.2.4 9-.1.1-.4-.2-.8-.5-1.5-1.4-2 0-.5 1.6.9 1 .9 1.2.9 2.7v1.7l-.9-1c-2-2.3-6-12.5-7.1-18.3-.3-1.5-.8-3.8-1-4.9-.3-1.2-.6-3-.7-4-.1-1-.3-3-.5-4.4a26 26 0 0 1-.1-4.8l.2-2.3 1.6.6c1.3.5 1.7.8 1.9 1.3m-71.6-1.5c-.1.1-.4.7-.7 1.3-.6 1.3-2.9 4.9-4.1 6.2-.4.5-.7 1-.6 1 .2.2 1.5-1 2.9-2.8 1.4-1.7 1.4-1.7 2.1-.3.7 1.4.6 3.3-.3 5-.3.6-.5 1.4-.5 1.7.3 1.6 2.6-4.2 2.8-6.9.2-3.2-.7-6.1-1.6-5.2m155.1.7l1 .9-1.4.2c-5.9.7-6.3.6-4.6-1.1 1.1-1.3 3.5-1.2 5 0m-59.2 4.1c.7 4.1.5 4.8-1 3.8-.8-.5-1.1-.9-1.7-2.8l-.7-2.2.8-1.8.8-1.8.7 1c.5.8.8 1.8 1.1 3.8m34.5-4.2c-.3.1-.5.2-.5.4 0 .3 2.9.3 3 0 .4-.5-1.2-.8-2.5-.4m-41.4 3.6c1.1.7 1.4 1.1 1.7 1.9.5 1.6.4 1.8-.7 3.3-.5.8-1 1.4-1 1.5s-.5-.2-1.1-.5c-1.8-1-2.8-4.4-1.9-6.5.6-1.3.4-1.3 3 .3m-6.6 1.6c.3.4.7 1.4.8 2.3.2.9.4 1.9.6 2.1.3.5-.6 2.6-1.1 2.6-.6 0-2.7-1.1-2.8-1.5-1.2-4.3.5-8.1 2.5-5.5m-96.5.3c-1.7 1.3-5.5 2.5-8.1 2.5-2.1.1-2.6.5-.6.5 2.6 0 7.6-1.1 8.9-1.9.9-.6 1.1-.7 2.1-.4 2.5.6 4.1.2 3.6-.8-.8-1.5-3.8-1.4-5.9.1m-75.7.3c-1.8.5-5.6 1.7-8.4 2.7s-11.4 3.9-19.2 6.4c-7.8 2.6-14.9 4.9-15.9 5.3-2.3.8-5.7 1.9-8.3 2.5-1.1.3-5.4 1.5-9.6 2.8s-7.9 2.3-8.3 2.3c-.4 0-.8.1-.9.3-.1.1-1.2.4-2.3.7-5 1-8.5 2.2-8.5 2.9 0 .2.2.4.4.4s.4.1.4.3c0 2.1 17.6 12.6 23.9 14.2 2.1.6 2.3.6 3 .1.4-.3 1.3-.8 2-1.2.7-.4 2-1.2 3-1.8.9-.6 3-1.8 4.5-2.8s4.2-2.6 6-3.7c2.9-1.8 5.8-3.5 12.4-7 1.4-.8 3.8-2.1 5.2-2.9 1.4-.8 4.2-2.4 6.2-3.4 2-1.1 4.2-2.3 4.9-2.8.7-.5 1.9-1.1 2.5-1.3 1.8-.8 7-3.5 7.7-4.2l.7-.5-.9.4c-.5.2-2.1.9-3.4 1.6-1.4.7-2.7 1.2-2.8 1.2-.4 0-3.3 1.3-4.1 1.9-.4.2-3 1.7-5.9 3.3-2.9 1.5-6.3 3.4-7.6 4.2-2.9 1.6-2.7 1.6-2.6.5 0-1 .3-1.3 1.9-2.1 1.2-.6 2-1.4 1-1-.3.1-1 .3-1.7.4-.6.1-1.3.4-1.5.5-.5.5-2.6.4-2.6-.1 0-.7.5-1.8.9-1.8s2.9-1.6 2.8-1.8c-.1-.1-.9.2-1.8.6-4.2 1.9-5.8 0-2.2-2.5 1.8-1.2 1.8-1.7 0-.9-1 .5-5 1-5 .6 0-.1.2-.6.5-1.1l.5-1 10.9-3.7c6-2 12.2-4.2 13.8-4.9 1.6-.7 5-1.9 7.6-2.8 2.6-.9 4.7-1.6 4.8-1.7.2-.2-.8 0-4 .9m165.6 1l1.2.5.3 2c.3 1.7.3 2.1-.1 2.8-.2.5-.6 1.3-.8 1.8-.7 1.7-1.9.9-2.6-1.6-.3-1-.6-2.1-.7-2.5-.2-.5-.1-.9.4-1.8.3-.7.6-1.4.6-1.6 0-.2.1-.3.2-.3.2.2.9.4 1.5.7m-87.6 3c-3.7 1.9-4.2 2.4-7 7.9-2.3 4.5-2.5 5.1-2.8 7.2-.3 2.7-.5 3-1.4 3.2-2.5.3-3.4-2.7-1.9-5.7 1-1.8 1-1.8.4-2.3-.5-.5-.5-.5-1.9 2.1l-1.4 2.6.2 3.3.2 3.3-1.3 4c-1.7 5.3-2.2 6.5-3.8 9.3-1.4 2.5-1.6 3.1-.9 3.8.5.5 1.6.5 1.5 0 0-.1.8-1.1 1.8-2.1 3.4-3.5 6.5-7.7 9.1-12.5l1.1-2-.2-3.8-.2-3.8 2.8-5.4c3.1-6 3.9-7 7-8.6 2.9-1.8 1.5-2-1.3-.5m106.2 1c1.2 1.3 1.3 1.5 1.6 3.5l.3 2.2-1 2c-.5 1.1-1 2-1.1 2.1 0 .1-.6-.2-1.2-.6-2.2-1.3-2.8-6.7-1.1-9.1 1.3-1.8 1-1.8 2.5-.1m4.7.8c.8 1.8 1.4 6.5 1 7.4l-.3.6-.6-.9c-.7-1.2-1.3-4.7-1.1-6.8.2-2.1.2-2.1 1-.3m-105.4.4c-.3.2-.2.3.3.3 1.6 0 3.4 1.8 3.4 3.3 0 .2.2.4.4.4.5 0 .6-1.4.2-2.5-.5-1.1-3.3-2.1-4.3-1.5m-93.6.6c.1.2.2.3.3.3.1 0 .3-.1.3-.3.1-.2-.1-.3-.3-.3s-.3.1-.3.3m187.6 1c.7.6.9 1.1 1.3 2.7l.4 2-1.1 1.7-1.1 1.7-1-.5c-.9-.5-1-.6-1.1-2.4-.1-1.1-.3-2.4-.5-3-.2-.9-.2-1.1.2-1.6.3-.3.7-.8.8-1.2.4-.8.7-.7 2.1.6m-113.6 0c-3.7.7-7.9 2-7.5 2.4s4.1-.2 5.7-.8c.4-.2 2-.4 3.6-.5 4.1-.3 5.2-.5 5.1-.9-.1-.3-5.3-.5-6.9-.2m106.7 1c1.4.7 1.5.9 1.7 3.9l.2 2-1 1.2c-1.5 1.7-2.7 1.3-2.7-.9 0-.7-.1-2.1-.3-3.1-.3-1.5-.2-1.8.2-2.8.5-1.2.3-1.1 1.9-.3M75.1 233c-.2.2 0 .6.4.6.1 0 .3-.2.3-.4-.1-.3-.4-.5-.7-.2m-6.8 1.1c-.2.6.4 1 1.1.6s.6-.8-.2-.9c-.5-.1-.8 0-.9.3m-5.6.5c-1 .5-1.3.9-.8 1.1.6.2 2.3-.6 2.3-1.1s-.4-.5-1.5 0m105.8 1.4c0 2.8-2.6 7-4.3 7-.9 0-1.6-2.1-1.2-3.9.3-1.3-.8-.2-1.5 1.6-.3.8-.7 1.6-.8 1.8-.6 1.1-1.2 4.5-.9 5.2.2.4.2.8.2.9-.9 1.5 4.9-2.1 6.5-4 2.3-2.8 3.7-7.7 2.7-9.6-.4-.9-.7-.6-.7 1m-18.5-1.1c-.1 0-.6.2-1 .3-1.1.2-.9 1.1.6 2.2 1.4 1.1 1.6 1 2.4-.5.9-1.8 0-2.7-2-2m8.7 1.3c-.7.8-2 2.6-2.8 4.1l-1.5 2.6.2 1.9c.7 5.6-.4 9.1-6 18.3-2.7 4.4-2.3 4.2 1.3-.5 4.4-5.8 8-11.4 8-12.4 0-.5-.1-2.5-.2-4.4l-.2-3.6 1.6-3.3c2.2-4.6 2.1-5.5-.4-2.7m-101.1-.9c-1.9.5-2 1.5-.2 1.2 1.1-.2 1.8-.6 1.8-1.2 0-.3-.3-.4-1.6 0m14.2.4c-.8.1-1.6 1.1-1.2 1.4.4.4 1.8-.2 2.2-.9.3-.4-.1-.6-1-.5m69.8 1.5c-1 .9-2.3 2-2.8 2.3-1.1.8-1.2 1.1-.3 1.1.8 0 5.4-3.5 6.1-4.7.6-1.1-1.3-.3-3 1.3m-76.8-.3c-.7.3-.8 1.3-.2 1.3.7 0 2-.8 2-1.2 0-.5-.9-.5-1.8-.1m-17.3 1.2c-1 1.5-3.2 2.1-4.5 1.3-.2-.1 3.1-1.4 4.9-1.9 0-.1-.1.2-.4.6m11.4-.3c-.4.2-.7.5-.8.8-.1.7 1 .6 1.9-.1 1.2-.9.3-1.5-1.1-.7m211.9 2.7c.3.7.6 1.9.7 2.6.1.7.2 2 .3 2.7.2 1.3-.5 3.8-1 3.8-.8 0-1.4-1.5-1.9-4.6l-.5-3.2.7-1.3c1-1.5 1-1.5 1.7 0m-205-.6c-.5.4-.6.8-.2 1.1.4.2 2.2-.7 2.2-1.1-.1-.5-1.4-.4-2 0m-24.1.3c.4.2 1 .4 1.3.4.5 0 .5.1.3.7-.4 1.1-3 2-4.7 1.8l-1.3-.2.4-1c.4-1 .5-1.1 3.1-2.1.2 0 .5.2.9.4m9.2-.1c0 1.9-5.7 3.9-6.3 2.2-.2-.5.4-1.5.9-1.5.3 0 .8-.2 1.2-.5.7-.4 4.2-.6 4.2-.2m9.7.3c-.9.4-.8 1.1.3 1.1.9 0 2.1-.6 2.1-1.1-.1-.4-1.6-.4-2.4 0m205.4 1.8c.5.5.6.9.6 2.1 0 .8.1 2.1.2 2.7.3 1.7-1.6 3.8-2.8 3.2-2.1-1.1-2.5-1.8-2.5-4.1 0-3.2.1-4 .9-5l.7-.9 1.1.8c.7.3 1.5.9 1.8 1.2m9.2 2.3c0 3-.3 4.6-.6 3.4-.6-2.4-1.1-6.5-.7-7.2l.4-.7.5.6c.3.6.4 1.2.4 3.9m-17-2.1c1 1 1 1.1 1.1 3.7l.2 2.7-.9 1.4c-1.1 1.6-1.2 1.7-2.3.5-.7-.8-.8-1.1-1.1-3.4-.2-1.4-.4-2.7-.4-3-.2-.4 1.6-2.9 2.1-2.9.2 0 .7.5 1.3 1m-222.4 0c-.6 1.2-2.9 2.1-4.2 1.7-1.8-.5-1.4-.9 1.7-1.7 3-.9 3-.9 2.5 0m188.3 1.2c-1.5 3.1 3.9 14 5.6 11.3 1.1-1.7.9-3-.7-4.6-1.4-1.4-2.7-3.6-4.1-7.1l-.3-.7-.5 1.1m-171.4-.1c.3.1.3 1.2 0 1.6-.5.6-4.8 1.4-5.3 1-.2-.2.4-1.4.6-1.4.1 0 .2-.1.2-.3.1-1 2.9-1.6 4.5-.9m-7.6.4c1.1.5 1.3.6 1.1 1.3-.2.9-.3 1-2 1.6-.8.3-1.7.7-2 .9-.7.5-2.2.1-2.4-.7-.3-1.3.4-2.4 2-3.1 1.9-.7 1.8-.7 3.3 0m-7.2.9c.5.1.7.3.6.6-.1.2-.1.7-.1 1 0 1.3-3.2 2-4.7 1-1.2-.7 1.6-3.2 3.1-2.8.2-.1.7.1 1.1.2m-12.4 1.4c0 .4-.3.8-.5.9-3.4 1.6-3.9 1.8-4.5 1.4-.8-.5.1-1.4 2.2-2.3 2.4-1 2.9-1 2.8 0m5.1-.6c.4.2.8.5.8.5.4.2-.4 1.4-1.2 1.8-1 .5-2.8.2-3.1-.5-.6-1.6 1.8-2.9 3.5-1.8m24.9 1.6c-.3 1.8-1.1 2.2-3.5 2-2.8-.3-.5-3 2.5-3h1.1l-.1 1m-7.9.4c1.5.4 1.5.3 1.1 1.1-.6 1.5-6.7 3.6-6.7 2.4 0-1 .9-2 2.3-2.9 1.9-1 1.7-1 3.3-.6m-7.3 1.3c1.1.3 1.1.4.7 1.4-.8 2-5 2.2-4.5.2.1-.5.2-1 .3-1 1.5-.8 2.2-1 3.5-.6m-13.1.6c1.4.5 2.1 1.7 1.2 2 0 0-.8.4-1.7 1l-1.6 1-1.7-.5c-.9-.3-1.7-.6-1.8-.6-.6-.4.8-2.4 1.9-2.8 1.8-.8 1.9-.8 3.7-.1m7.7-.2c.9.7-2.4 3.2-3.7 2.8-.8-.3-1-1.8-.3-2.2 1.8-.9 3.3-1.1 4-.6m-14.6 1.3c-.1 1.8-2 2.8-4 2.3-1.2-.3-1.3-.4-1-1.6.5-1.6 5.1-2.2 5-.7m249-.2l.9 1-.2 2.2c-.3 3.1-.5 3.9-1.5 5.3l-.9 1.2-.6-.6c-.5-.5-.6-.9-.6-2.3 0-.9-.1-2.5-.3-3.4l-.3-1.7 1.1-1.3c1.4-1.6 1.3-1.6 2.4-.4m-221.2 2c-3.2 1.8-3.2 1.8-2.9 1 .3-1 3.3-2.7 4.7-2.7h1.2l-3 1.7m214.4-.8l1.2.9v4.2l-1.4 1.4-1.4 1.4-.8-.5c-.7-.5-.8-.6-.9-2.7l-.2-2.2 1.1-1.7c1.3-1.9 1-1.8 2.4-.8m11.2 0c.5 1.4-.5 6.9-1.2 6.9-.4 0-1-1.3-.7-1.5.2-.2.3-1.2.4-2.2.1-2.8 1-4.7 1.5-3.2m-18.2 1.5c1.9 1.4 1.9 3.1-.1 5.4-.9 1.1-1.3 1.7-1.1 2 .1.3-.4-.1-1.2-.7-.8-.6-1.3-1.3-1.2-1.4.1-.1.5.1.9.6 1.4 1.5 1.8.9.7-.9-1.1-2-.7-6.6.6-6 .1.1.7.5 1.4 1m-211.6-.3c.1.1-.1.7-.3 1.4-.5 1.6-1.9 2.6-3.3 2.2-.5-.1-1.2-.2-1.7-.2-1.1 0-1.2-2.6-.1-2.7.2 0 .9-.2 1.4-.5.9-.6 3.6-.7 4-.2m-13.6 1.4c.5 0 .5.3-.1 1.6-.5 1.1-1.9 2.3-2.9 2.2-2.5-.2-2.7-.5-1.7-2.6.8-1.7 2.6-2.5 3.6-1.7.4.3.9.5 1.1.5m5.2-.6c.8.2.8.2.6 1.8-.2 1.3-1.1 1.8-3 1.6-1.5-.1-1.6-.2-1-1.5.5-1.2 1.7-2.3 2.3-2.1.2 0 .7.1 1.1.2m-11.7 1.1c1.1 1-3.4 3.8-4.9 3.2-1.6-.7-1.3-3 .5-3.9.9-.5 3.5 0 4.4.7m133.1 1.7c-.7 1.1-1.5 2.7-1.9 3.7s-.8 1.9-1 2c-1.2 1.6-1.9 6.9-1.2 9l.4 1.2-1.4 2c-1.3 1.8-1.8 3.1-1.2 3.1.4 0 .8-.4 2-2.1 1.8-2.6 1.9-3 1.4-4.6-.8-2.5.2-7.3 2.6-12.5 1.6-3.3 1.8-3.7 1.7-3.7-.1 0-.7.8-1.4 1.9m-117.4.9c.2.2-4.4 3.3-4.7 3.3-.1 0 0-.5.2-1.1.5-1.6 3.6-3.1 4.5-2.2m-14.8 1.9l1.5.5-.2 1.3c-.3 1.9-.2 1.9-2.8.5-3.2-1.7-3.2-1.7-2-2.2 1.3-.6 1.7-.7 3.5-.1m8.3 0c.5.5-1.3 3.4-2.4 4.1-2.4 1.3-3.7.5-3.2-1.9.4-2.1 4.3-3.6 5.6-2.2m238.1 1.6c1.2 1.6 1.3 4.3.2 5.6l-.7.8-.7-.5c-.6-.4-.7-.8-.8-2.4-.1-1-.2-2.2-.4-2.6-.3-.6-.2-.8.3-1.4.9-1 1.1-.9 2.1.5m-6 .5c.6.7 1.2 1.2 1.4 1.2 1 0 .5 3-.7 3.8l-1 .7-1-1c-1.5-1.5-1.9-4.4-.8-5.3.9-.8.9-.8 2.1.6m-122.3 5l-2.4 2.5-1.5-.8c-2.1-1.1-2.8-.3-.8 1.1 1.8 1.4 3.7.3 6.5-3.7 1.4-2 .5-1.6-1.8.9m133.9-.2c-.3.3-.2 1.2.5 4.3.7 3.1.6 6.1-.3 7.5-.4.6.8 3.5 1.5 3.7 1.5.3 1.8-4.4.6-9.6-.9-4.3-1.8-6.4-2.3-5.9M134 269.9c-8.6 8.6-8.3 8.2-6.1 9.3 1.6.8 3.7.5 2.5-.4-1.8-1.3 1-7.4 3.1-6.5.4.2.9.6 1.2.8.4.5.5.4 2.5-.4 3.1-1.3 3.3-1.9.7-3.1-2.5-1.1-2.5-1.1-3.9.3m5.6 5.8c-1.3.6-2.8 2.1-4.2 4.3-1.2 1.9-8.5 2-11 .2l-1.3-.9 1.2-1.3c1.4-1.4 1.4-2-.1-.8-.5.4-1.8 1.2-2.8 1.6-2.9 1.3-7.1 4.8-9.1 7.9-1.4 2.1-.9 2.2.7.1 1.5-1.8 6.3-5.7 7.8-6.3.8-.3.9-.3 2.1.6l1.3.9-2 .9c-4.4 1.9-10 7.6-7.3 7.4 1.7-.1 2.7-.3 3.5-.7.5-.2 1.1-.4 1.4-.3s.6 0 .8-.2c.2-.3 1.4-.4 5.4-.4 11.2 0 18-2.7 21-8.5.2-.3.4-.5.6-.5.7.4.1-1-.8-2.1-1.3-1.6-1.8-1.9-3.5-2.2-2-.5-2.2-.5-3.7.3m143.8 2.3c-.3 2.5-.3 3 .1 3.4.2.2.9 1.4 1.5 2.6s1.4 2.5 1.7 2.9c.4.4 1.2 1.9 1.9 3.2.7 1.3 1.8 3.2 2.3 4.1.6 1 1.3 2.6 1.6 3.7.7 2.8 1.1 3.3 2.2 3.1.5-.1 1.5-.2 2.3-.2s1.6-.1 1.8-.2c.3-.2.7 1 .5 1.5-.1.2-1.3.7-2.7 1.2l-2.6.9-1.1-.5a52 52 0 0 1-2.9-1.6c-1.9-1.2-2.7-1.3-1.4-.2.4.3 1 1.1 1.3 1.7 1.2 2.3 5.5 3.4 6.8 1.8.2-.2 1-.6 1.9-.8l1.6-.4.6 1.5c.4.8.8 2.2 1 3 .6 2.6 1.8 4.8 1.5 2.6-.1-.5-.3-2.2-.4-3.8-.3-3-.9-5.5-1.3-5.5-.1 0-.2-.3-.2-.7 0-1.2-1.5-3.7-3.9-6.4-3.6-4.1-4.5-5.7-7.9-12.6-1.7-3.5-4.5-7.2-5.4-7.2-.3-.1-.6 1.1-.8 2.9m-133.9 4.9c-.1.1-.2.6-.2 1-.2 3.4-5.5 7.6-12 9.6-2.9.9.3.9 4.3 0 5.8-1.2 8.9-2.6 9.3-4.1.5-1.8-.8-7.7-1.4-6.5m95 2.9c-.4.8-.4 1.5-.1 1.5 1.1 0 6.3 9.1 9.7 17.3 3.2 7.6 3.3 7.7 5.1 8.3 3.3 1.2 8.7 1.9 8.7 1.1 0-.1-.4-.3-.8-.3-1.1 0-3.8-.9-5.7-1.9-1.8-1-4.3-4.8-8-12.3-1.1-2.4-2.6-5-3.2-5.9l-2.9-4.3c-1.3-2-1.8-2.8-1.5-3s.1-.4-.2-.7c-.6-.6-.7-.6-1.1.2m37.1-.1c-.2.3 0 1.2.8 3.6 1.6 4.8 1.3 6.8-1 6.4l-1.2-.2.4 1.2c.5 1.4.1 2.8-1.6 6.1-1 2-1.2 2.8-.3 2.1.2-.2.9-1.4 1.6-2.8.7-1.3 1.7-3 2.3-3.6 1.7-1.8 2-5.4.8-8.5-.2-.4-.3-1.2-.4-1.8-.1-1.4-1-2.9-1.4-2.5m-32.6 1.2c0 .1.4.7.9 1.2.5.6 2.7 4.5 4.9 8.8 4.5 8.9 5.1 9.7 6.5 9.5 1.3-.2 1.4-.7.5-2.9-.8-1.9-3.7-10.4-3.7-10.9 0-.6-1.4-3.4-1.7-3.5-.6-.1-.9-.2-1.8-.6-.5-.2-1.4-.5-2-.6s-1.4-.3-1.7-.5c-1-.5-1.9-.7-1.9-.5m28.4 1.5c-.2.3.6 2.8 1 3.1.3.2.3-.3-.2-1.9-.4-1.6-.5-1.7-.8-1.2m-170.7 1.5c-.8.5-3.2 3.3-3.8 4.5-.7 1.4-.2 1.1 1.8-1l2.1-2.2 1 .8c1.8 1.4 2 1.5 4 2 2.8.7 9 .9 11 .4l1.5-.4-2.1-.1c-9.1-.2-11.3-.7-13.4-3.2l-1.3-1.4-.8.6m160.2-.1c-.1.1-1.3.1-2.7.2-3.4 0-3.4-.3.6 7.8 3.9 7.9 4.1 8.2 4.9 8.1.3 0 1.1.1 1.7.3 2.2.6 3.2-.6 1.9-2.4-1.3-1.8-5.8-12.4-5.8-13.6-.1-.5-.4-.7-.6-.4m-137.5 6.1c-.2.2-.3.5-.3.6 0 .4-2 2.2-3.2 3-1.4.8-4.2 1.8-8 2.6-3.4.7-6.1 1.7-6.1 2.2 0 .4.7.3 2.7-.3 1.1-.3 3.3-.7 5.9-.9 5.2-.4 6.7-1 8.9-3.4 1.3-1.4 2.3-3.4 2-3.8-.5-.3-1.6-.3-1.9 0m-27 1.5c-1.6.9-5.2 4.7-5.9 6.1-1 2.1-.4 2.8.7.8.4-.7.8-1.2 1-1.2s.7-.3 1.2-.7c1-.8 3.8-2.1 4.9-2.4.6-.1.8 0 1.1.6.9 1.8 1.8 1.1 1.1-.9-1.1-2.8-2.2-3.5-4.1-2.3m-10.9 8.1c-2.4 1.2-4.3 4-7.5 11-1.4 3.1-1.4 3.3.4 4.7l1.5 1.2h3.5c5 0 13.1-1.7 18.6-3.9l3.1-1.2 1.7-3.5c1-1.9 1.8-3.6 1.8-3.8.2-.7-2.7 2.7-3.7 4.3-1.6 2.6-3.9 3.7-10.3 4.9-3.8.7-10.7.5-11.5-.4-.1-.1.6-2 1.6-4.2 1.6-3.8 2.1-5.3 1.6-5.3-.1 0-.6-.3-1-.7l-.8-.7 2 .7c1.1.4 2.3.7 2.7.7.9 0 6.7-2.1 8.6-3.1 1.4-.7 2.2-1.4 1.4-1.1-.3.1-1.7.5-3.1.8-1.4.4-3.5 1-4.7 1.3l-2.1.7-1.4-.6c-1.6-.7-1.6-.7-.7-1.5 1.5-1.3.8-1.5-1.7-.3m194.8 1.7c-.3.3-.5 1-.5 1.8 0 4 2.5 6.3 9.7 9 3.4 1.3 9.1 4.2 10.9 5.5l.9.7.7-.9c1.2-1.5 2.5-1.7 4.3-.6.8.5 1.5 1 1.5 1.1 0 .3-.8.5-1.3.4-1-.3-1.1.5-.3 2.8.4 1.2 1 3.6 1.2 5.2s.5 3.1.5 3.3c.1.4 2.7.4 4.2 0 1.9-.5 3.9-2.1 3.9-3.1 0-2.7-2.6-9.2-3.7-9.2-.3 0-.5-.1-.5-.3 0-.2-.4-.2-1.1-.1-2.9.5-8.3-4.4-9.1-8.1-.2-.8-.7-2.3-1.2-3.3l-.9-1.9.1 1.9.1 1.9-1.2.5c-2.7 1.2-8.3-.9-12.1-4.4-2.6-2.4-5.1-3.3-6.1-2.2m-4.2 3.7c-.5.9-1.2 2-1.5 2.5-.8 1-.8 1 .8 4.8 1.2 2.8 1.6 3.3 2.7 3.1 1.9-.4 7.7.5 14.8 2.4 1.1.3-.7-1.1-1.9-1.5-.5-.2-1.3-.5-1.8-.8s-1.4-.7-2.2-.9c-.7-.2-1.5-.6-1.7-.8-.2-.2-1.2-.9-2.3-1.5-3.7-2.1-5-3.6-5.7-6.7l-.4-2.1-.8 1.5m16.4 17.5c.1.5.3 2.2.4 3.8.3 3.6.6 3.9 4.2 5.1 2.6.8 2.5.3-.2-1s-2.9-1.5-2.9-3.2c0-1-.3-3.2-.7-4.9-.2-1.1-1-.8-.8.2m9.5 7.3c0 .3 2.2 2.4 3.6 3.5 2.9 2.2 12.1 7.2 12.8 6.9.8-.3.1-.7-5.4-3.5-4.5-2.3-6.5-3.6-10.4-6.6-.4-.3-.6-.4-.6-.3m14.3 2c-1.9.5-3.7 1.5-3.6 2.2.1.6.9.8 2.5.4.9-.2 4.6 4.3 5.2 6.4.2.7.4.9.8.9 1 0 .1-4.2-1.9-8.9-.6-1.4-.9-1.5-3-1m6.9 4.2c-.1.1.1.6.4 1.1.7 1.2 1.3 3.8 1.3 5.4v1.4l-1.4.3c-.7.2-1.4.5-1.5.7-.3.9-8.7-3.2-12.5-6.1-.8-.6-1.5-1-1.6-.9-.3.3 1.9 2.2 4.3 3.7 4.1 2.7 4.7 3 5.8 3.5.7.3 2.4 1.1 3.8 1.7l2.6 1.2 1.4 2.7c1.1 2.2 2.9 6.5 2.9 6.9 0 .7-7.6-1.2-10.7-2.8-1.2-.6-3.2-1.6-4.3-2.1-1.1-.5-2.5-1.3-3.1-1.8-.6-.4-1.1-.8-1.3-.8s-.5-1.1-.7-2.5c-.8-4.4-1-5.3-1.2-5.3-.3 0-.3.3 0 1.3.2.4.5 2.2.8 4 .6 3.7.1 3.1 5.4 6.6 4.9 3.3 7.1 4.2 13 5.8 1.7.4 3.2.9 3.4 1.1 1.7 1.7 3-1.2 1.9-4.3-.2-.6-.6-2.6-.9-4.4-1.5-7.1-6.6-18.4-7.8-16.4"/></svg>