<?xml version="1.0" encoding="utf-8"?>
<!-- Generator: Adobe Illustrator 16.0.0, SVG Export Plug-In . SVG Version: 6.00 Build 0)  -->
<!DOCTYPE svg PUBLIC "-//W3C//DTD SVG 1.1//EN" "http://www.w3.org/Graphics/SVG/1.1/DTD/svg11.dtd">
<svg version="1.1" id="Layer_1" xmlns="http://www.w3.org/2000/svg" xmlns:xlink="http://www.w3.org/1999/xlink" x="0px" y="0px"
	 width="500px" height="500px" viewBox="0 0 500 500" enable-background="new 0 0 500 500" xml:space="preserve">
<g>
	<g>
		<g>
			<g>
				<path d="M76.941,54.375c0,0-0.338,0.053-0.67,0.126c-0.334,0.069-0.668,0.137-0.668,0.137
					C76.206,54.527,76.599,54.461,76.941,54.375z"/>
				<path d="M256.171,137.722c0,0-0.106,0.024-0.214,0.049c-0.073,0.029-0.353,0.029-0.326,0.033
					c0.089,0.005,0.168,0.01,0.239,0.014c0.041-0.001,0.076-0.003,0.107-0.004c0.062-0.005,0.105-0.012,0.137-0.021
					C256.177,137.775,256.188,137.75,256.171,137.722z"/>
				<path d="M286.363,99.824l0.947-0.875C286.848,99.357,286.567,99.621,286.363,99.824z"/>
				<g>
					<path d="M233.217,97.43c-7.084-7.25-14.872-13.752-23.078-19.525c-8.178-5.793-16.922-10.754-25.624-15.24
						c-8.729-4.479-17.724-8.588-27.016-12.032c-9.279-3.454-18.894-6.201-28.628-8.073l-3.752-0.694l-3.786-0.571
						c-2.511-0.421-5.076-0.625-7.609-0.932c-5.106-0.424-10.231-0.735-15.377-0.591c-5.138,0.033-10.28,0.527-15.37,1.174
						c-5.048,0.699-10.082,1.698-15.057,2.985c-4.972,1.299-9.893,2.884-14.673,4.866c-2.38,1.021-4.724,2.02-7.158,3.33
						c-2.394,1.271-4.709,2.727-6.896,4.377c-4.38,3.281-8.261,7.333-11.288,11.979c-3.037,4.639-5.194,9.851-6.39,15.229
						c-1.287,5.699-1.501,11.54-0.917,17.19c0.158,1.41,0.385,2.807,0.579,4.209c0.203,1.401,0.52,2.685,0.774,4.032
						c0.488,2.677,1.221,5.294,1.855,7.933c2.861,10.473,6.875,20.571,11.791,30.116c2.444,4.781,5.075,9.45,7.885,13.985
						c2.78,4.558,5.731,8.988,8.768,13.34c3.033,4.361,6.156,8.624,9.376,12.826c3.313,4.143,6.627,8.289,9.946,12.438
						c13.734,16.343,28.088,31.562,42.424,46.701c7.198,7.536,14.463,15.062,21.602,22.672c3.554,3.812,7.114,7.63,10.685,11.459
						c3.565,3.835,7.168,7.642,10.684,11.608c13.627,15.185,27.502,29.987,40.43,45.524l4.805,5.857
						c0.796,0.979,1.611,1.946,2.391,2.938l2.316,2.991l4.626,5.99c1.527,2.007,2.961,4.079,4.442,6.119
						c1.449,2.055,2.984,4.081,4.354,6.167l2.051,3.129l1.024,1.565l0.956,1.606c1.253,2.153,2.587,4.264,3.702,6.491l1.739,3.306
						c0.59,1.097,1.066,2.248,1.604,3.37c4.475,9.635,7.801,19.681,9.856,30.021c0.205,1.279,0.8,3.815,1.407,7.014
						c0.265,1.606,0.556,3.374,0.86,5.223c0.288,1.852,0.448,3.801,0.692,5.743c0.276,1.942,0.315,3.898,0.455,5.771
						c0.132,1.929,0.258,3.772,0.372,5.446c0.066,0.863,0.128,1.684,0.187,2.448c0.078,0.735,0.149,1.418,0.215,2.037
						c0.137,1.235,0.254,2.219,0.344,2.866c0.18,1.159,0.206-2.108,0.318-6.387c0.07-2.109,0.147-4.431,0.216-6.501
						c0.049-2.03,0.182-3.826,0.113-4.908c0.032-7.125-0.867-16.186-2.674-24.733c-1.771-8.557-4.475-16.539-6.627-21.837
						c-1.136-2.659-2.226-5.135-3.305-7.456c-1.159-2.279-2.195-4.469-3.305-6.51c-1.142-2.021-2.208-3.983-3.317-5.867
						c-1.156-1.855-2.288-3.673-3.422-5.494c-2.411-3.525-4.833-7.066-7.487-10.948c-1.397-1.89-2.856-3.862-4.406-5.957
						c-1.561-2.087-3.17-4.332-5.027-6.635c-1.892-2.4-3.78-4.797-5.666-7.19c-1.903-2.379-3.86-4.704-5.784-7.054
						c-1.923-2.352-3.862-4.683-5.839-6.974c-1.965-2.302-3.927-4.603-5.888-6.9c-7.917-9.116-15.89-18.109-23.824-27.083
						c-8.082-8.889-16.151-17.764-24.229-26.648c-4.047-4.406-8.097-8.816-12.152-13.23l-6.059-6.647
						c-1.993-2.241-3.987-4.484-5.983-6.729c-6.499-7.237-12.919-14.626-19.473-22c-3.172-3.756-6.354-7.525-9.544-11.302
						l-2.401-2.827l-2.271-2.921l-4.552-5.841l-4.562-5.84c-1.478-1.984-2.949-3.99-4.384-6.002c-2.898-4.015-5.67-8.09-8.37-12.191
						c-5.313-8.241-10.215-16.669-14.104-25.401c-4.283-9.424-7.515-19.23-9.536-29.244l-0.692-3.766
						c-0.133-0.638-0.207-1.239-0.273-1.835l-0.222-1.798c-0.197-1.198-0.173-2.392-0.253-3.585
						c-0.105-1.196-0.012-2.375,0.011-3.557c0.193-4.715,1.151-9.301,2.917-13.499c3.518-8.43,10.502-14.993,19.019-18.857
						c4.453-2.014,9.267-3.697,14.103-5.018c4.86-1.326,9.843-2.312,14.905-3.017c2.704-0.401,5.387-0.604,8.073-0.842
						c1.345-0.095,2.696-0.113,4.044-0.174c0.675-0.021,1.348-0.063,2.023-0.066l2.027,0.022c1.353,0.034,2.702-0.015,4.056,0.084
						l4.058,0.23c1.352,0.099,2.704,0.262,4.056,0.39c1.352,0.114,2.702,0.302,4.052,0.502c5.39,0.723,10.804,1.801,16.108,3.145
						l3.97,1.022c1.328,0.318,2.624,0.782,3.938,1.165l3.927,1.205l3.884,1.375c10.35,3.695,20.431,8.306,30.295,13.526
						c4.955,2.631,9.792,5.299,14.486,8.178c2.326,1.469,4.713,2.858,6.951,4.444c2.271,1.542,4.571,3.049,6.733,4.724
						c8.697,6.395,16.719,13.602,23.76,21.652c0.878,1.01,1.781,1.992,2.642,3.022l2.602,3.213c1.769,2.204,3.666,4.539,5.817,6.837
						c2.14,2.3,4.622,4.571,7.485,6.534c1.424,0.986,2.967,1.866,4.567,2.643l1.614,0.722c0.31,0.13,0.613,0.292,0.928,0.395
						l0.969,0.137l3.456,0.485l1.936,0.272c0.33,0.122,0.627-0.083,0.933-0.21l0.913-0.403l3.215-1.425
						c1.484-0.696,2.881-1.526,4.301-2.315c2.718-1.716,5.337-3.557,7.675-5.58c2.407-1.983,4.55-4.106,6.655-6.22l3.023-3.167
						l2.86-2.898l2.858-2.9c0.952-0.968,1.891-1.951,2.926-2.833l6.064-5.447c0.985-0.937,2.092-1.737,3.145-2.599l3.192-2.546
						l3.2-2.538l3.337-2.37c10.34-7.432,21.379-13.973,32.917-19.677c5.791-2.799,11.649-5.635,17.448-7.986
						c5.836-2.365,11.774-4.246,17.748-5.672c7.551-1.739,15.193-2.533,22.661-2.004c7.411,0.523,14.632,2.504,21.252,5.814
						c13.297,6.603,23.96,18.388,30.957,32.027c7.053,13.655,10.473,29.264,10.522,44.807c0.042,15.571-3.395,31.167-9.741,45.483
						c-5.661,13.02-13.992,24.566-23.646,35.044c-9.751,10.406-20.788,19.685-32.413,28.463
						c-11.609,8.81-23.782,17.162-35.87,26.111c-12.123,8.858-23.989,18.335-35.521,28.435c-3.012,2.726-6.215,5.516-9.404,8.487
						c-3.144,3.013-6.377,6.112-9.66,9.26c-3.179,3.229-6.406,6.509-9.644,9.798l-4.723,4.875c-1.584,1.629-3.214,3.33-4.81,5.055
						c-3.229,3.444-6.267,7.181-9.016,10.907c-1.356,1.884-2.691,3.748-3.881,5.648c-0.61,0.95-1.216,1.894-1.816,2.829
						c-0.637,1.042-1.154,1.962-1.686,2.91c-4.133,7.502-7.521,14.575-9.826,21.329c-1.104,3.284-1.42,5.779-1.21,7.581
						c0.06,0.476,0.142,0.861,0.259,1.227c0.129,0.377,0.257,0.689,0.421,0.871c0.332,0.362,0.646,0.484,0.932,0.464
						c-0.117,0.008-0.231-0.148-0.339-0.459c-0.094-0.311-0.133-0.919-0.067-1.483c0.117-1.19,0.56-2.64,1.249-4.241
						c1.375-3.208,3.696-7.102,6.238-10.924c2.539-3.823,5.293-7.577,7.527-10.483c2.207-2.928,4.039-4.867,4.43-5.374
						c0.616-0.738,1.209-1.5,1.845-2.233c0.639-0.729,1.281-1.463,1.927-2.201c1.258-1.499,2.654-2.902,3.989-4.37
						c2.768-2.856,5.652-5.656,8.677-8.405c6.096-5.547,12.157-11.219,18.223-16.562c2.976-2.538,5.913-5.044,8.824-7.527
						c2.941-2.44,5.943-4.749,8.879-7.1c1.484-1.158,2.919-2.359,4.433-3.473l4.51-3.357c3.018-2.221,5.958-4.518,9.056-6.662
						c3.057-2.185,6.126-4.379,9.221-6.591c3.13-2.172,6.285-4.361,9.479-6.578c6.369-4.455,12.989-8.955,19.819-13.825
						c14.304-10.194,28.652-20.8,41.747-33.269c6.537-6.229,12.742-12.926,18.349-20.178c5.612-7.222,10.623-15.13,14.682-23.426
						c8.16-16.604,12.838-35.021,13.167-53.686c0.17-9.325-0.748-18.695-2.777-27.838c-2-9.135-5.221-18.125-9.584-26.517
						c-3.712-7.142-8.282-13.895-13.748-19.958c-5.46-6.057-11.841-11.417-19.017-15.611c-7.155-4.213-15.132-7.176-23.347-8.61
						c-8.243-1.453-16.532-1.41-24.565-0.396c-16.115,2.005-30.944,8.206-44.52,14.847c-13.708,6.649-27.096,14.291-39.615,23.345
						l-2.827,2.003c-0.923,0.698-1.823,1.432-2.737,2.148c-1.821,1.441-3.646,2.885-5.475,4.332c-0.93,0.704-1.8,1.484-2.672,2.264
						l-2.628,2.331c-1.737,1.572-3.543,3.077-5.231,4.714c-1.665,1.662-3.333,3.328-5.004,4.995l-2.506,2.505l-2.281,2.355
						c-3,3.059-6.046,5.833-9.239,8.085c-1.598,1.118-3.227,2.119-4.895,2.966c-0.408,0.241-0.831,0.432-1.26,0.603
						c-0.306,0.131-0.214,0.091-0.221,0.093l0.012-0.008c0.015-0.005,0.016-0.011-0.009-0.016l-0.022-0.008l-0.011-0.004
						c-0.01-0.001,0.017,0.001-0.024-0.004l-0.213-0.032l-0.213-0.032c-0.087-0.013-0.027-0.005-0.048-0.008l-0.011-0.004
						c-0.007-0.003-0.018-0.007,0.004-0.001c0.002-0.002,0.052,0.018,0.015-0.001c-0.181-0.084-0.366-0.156-0.54-0.262
						c-0.712-0.372-1.412-0.792-2.104-1.262c-1.382-0.947-2.734-2.117-4.079-3.48c-2.7-2.725-5.309-6.208-8.312-9.959
						c-1.515-1.884-3.16-3.693-4.738-5.54C236.636,100.883,234.909,99.174,233.217,97.43z"/>
				</g>
			</g>
		</g>
	</g>
</g>
</svg>
