<?xml version="1.0" encoding="utf-8"?>
<!-- Generator: Adobe Illustrator 22.1.0, SVG Export Plug-In . SVG Version: 6.00 Build 0)  -->
<svg version="1.1" id="svg" xmlns="http://www.w3.org/2000/svg" xmlns:xlink="http://www.w3.org/1999/xlink" x="0px" y="0px"
	 viewBox="0 0 410 410" style="enable-background:new 0 0 410 410;" xml:space="preserve">
<g id="svgg">
	<path id="path0" d="M225.3,41.2c-6.3,2.2-11.1,7.2-11.9,12.4c-0.2,1.5-0.7,3.6-0.9,4.7c-0.5,1.9-0.7,3.7-0.4,4.9
		c0.3,1,0.6,0.7,0.7-0.8c0.1-0.8,0.4-1.8,0.6-2.3l0.5-0.9l0.2,1.6c0.8,7.6,0.8,9-0.8,12.1c-1,2.1-1,2.5,0,1.2c1.2-1.5,2.3-4,2.9-6.4
		c0.6-2.5,0.8-2.8,0.8-1.2c0,3.1-1.3,6.6-3.7,10.1c-2,2.9-1.9,2.9-2.3,0.2c-0.2-1.2-0.5-2.9-0.6-3.7c-0.3-1.7-0.1-4.1,0.5-6
		c0.5-1.5,0.3-1.9-0.3-0.7c-0.9,1.7-1.3,4.4-1.1,8.3l0.2,3.6l-1.1,2c-2.7,5-3,5.8-3.2,8c-0.1,2.4,0.4,4.8,1.3,5.3
		c0.7,0.4,0.7,0.4,0.1-1.5c-0.4-1.4-0.4-2,0.2-4.2c0.4-1.4,0.4-1.3,0.9,2c0.5,3.5,1.2,6,2.4,8.5c1,2.1,1.4,2.4,0.8,0.6
		c-2.6-7.3-1.9-12.2,2.6-18.1c5.1-6.7,6-11.1,3.7-18.4c-1.7-5.3-1.2-7.2,2.6-10.8c0.7-0.6,1.1-1.2,1-1.3c-0.3-0.3-1.7,0.8-3.9,2.9
		l-1.9,1.9v-1.3c0-2.6,2.2-5.4,7.1-9c4.4-3.3,6.5-3.6,10-1.5c1.9,1.2,2.3,0.5,0.7-1C231,40.6,228.3,40.2,225.3,41.2 M237.4,42.5
		c-0.8,0.3-2,1.9-2,2.6c0,0.8,0.4,0.7,1-0.4c1.5-2.5,4.2-1,7.1,4c1.2,2,1.4,2,0.9,0.1C243.5,44.6,239.9,41.4,237.4,42.5 M244.2,43.9
		c0.3,0.6,0.8,1.4,1.3,1.7c2.2,1.5,3,2.6,3,4.3c0,0.9,1.3,5.7,1.9,6.9c0.3,0.6,1.5,2.2,2.8,3.6c1.6,1.7,2.4,2.8,2.6,3.6
		c0.4,1.6,0.8,1.8,0.8,0.6c0-1.5-0.8-3.1-2.6-5c-2.3-2.5-3.2-4.7-3.6-9.1c-0.5-5.1-2.4-7.6-5.8-7.6l-0.7,0L244.2,43.9 M216.4,43.7
		c-4,1.5-6.1,4.8-5,7.8c0.7,1.9,0.8,1.9,1.4-0.5c0.6-2.5,1.2-3.4,3.5-5.8C218.2,43.2,218.2,43,216.4,43.7 M226.6,44.4
		c-2.4,0.4-4,1.3-6.9,4c-3.4,3.1-3.5,3.5-0.2,1.1c5.9-4.5,10.2-4.6,14.4-0.4c1.2,1.2,1.3,1.2,0.8,0.4c-0.7-1.2-2-2.4-3.3-3.1
		c-0.6-0.3-1-0.6-0.8-0.8c0.6-0.3,0.3-0.9-0.5-1.2C229.1,44,228.7,44,226.6,44.4 M249.8,44.3c0,0.1,0.2,0.4,0.5,0.7
		c0.3,0.3,0.8,1.2,1.2,2.1c1.4,3.2,1.9,3.9,5.3,7.4c2,2.1,3.8,4.1,4.3,5c0.9,1.6,1.3,1.4,0.7-0.3c-0.4-1.4-2.7-4.7-3.8-5.4
		c-2.6-2-3.6-3.4-3.9-5.8c-0.3-2.2-0.9-3.1-2.4-3.5C250.5,44,249.8,44,249.8,44.3 M226.2,47.9c-1.6,0.4-3.2,2.1-4.6,4.7
		c-1.1,2-0.5,1.7,1.3-0.8c3.2-4.4,8.5-3.2,10.6,2.5c0.5,1.5,0.9,2.1,0.9,1.4c0-0.8-1.8-5.6-2.3-6.1c-0.6-0.6-3.5-2.1-4.1-2.1
		C227.7,47.6,226.9,47.7,226.2,47.9 M255.9,48.3c0,0.7,2.1,3.5,4.4,5.9c6.1,6.4,9.4,12.2,9.9,17.1c0.2,2.2-0.2,2-0.8-0.3
		c-0.4-1.8-2-4.8-3.4-6.6l-0.5-0.7l0.4,1.1c0.2,0.6,0.7,1.7,1.1,2.6c1,2.3,1.5,5.9,1.4,8.4c-0.2,2.1,0.1,3.5,0.7,3.5
		c0.1,0,0.3,0.2,0.4,0.5c0.3,1,0.6,0.6,1-1.4c0.2-1.1,0.7-2.8,1-3.9c0.7-2.6,0.6-4-0.7-8.3c-1.7-5.4-1.8-5.5-10-13.8
		C255.7,47.4,255.9,47.6,255.9,48.3 M246.4,49.7c0.4,1.6,0.5,3.1,0.2,3.3c-0.2,0.1-0.3,0.4-0.3,0.7c0,0.3-0.5,1.4-1,2.5
		c-0.6,1.1-1.4,3.3-1.9,5c-1.1,3.5-1.5,3.8-1.2,0.9l0.2-2.1l-3.3-0.1c-6.8-0.3-9.4,1.4-10.4,7c-0.5,2.7-1.2,3.8-3.8,6.3
		c-1.6,1.5-3,3.7-1.6,2.6c1.1-0.9,4.4-0.7,7.4,0.5c3.9,1.5,4.4,1.9,5,3.5c0.9,2.5,2.3,1.1,1.4-1.4c-0.1-0.4-0.2-0.8,0-0.8
		c0.5,0,1.4,1.7,1.5,2.9c0.3,2.2,1.5,1.9,1.7-0.4c0.1-0.9,0.3-1.9,0.5-2.3l0.4-0.7l0.3,0.7c0.1,0.4,0.3,1.3,0.4,2.1
		c0.2,1.7,0.6,2,1.3,0.8c2.2-3.8,3.4-4.7,7-5.7c3.9-1,4.1-1.9,0.9-3.1l-2.1-0.8l-0.7,0.7c-0.6,0.6-0.7,0.6-0.7,0.2
		c0-0.4-0.1-0.5-0.9-0.3c-0.9,0.2-9.4,0.5-12.9,0.4c-6.7-0.1-0.9-1,8.8-1.3c5.9-0.2,5.3,0,5.1-1.3l-0.1-1l-3.4,0.1
		c-4,0.1-11.2-0.2-11-0.5c0.2-0.3,6.1-0.6,10.5-0.7c1.8,0,3.3-0.1,3.3-0.2s-0.3-0.7-0.6-1.4c-0.9-2-0.6-6.8,0.6-9.5
		c0.9-2.1,1-3.6,0.2-6.2C246.8,49.1,246.2,48.7,246.4,49.7 M227.2,52.5c-0.1,0.3,0,0.6,0.3,0.7c0.3,0.2,1,0.8,1.7,1.5
		c1.4,1.3,1.6,1.1,0.8-0.6C229.1,52.3,227.6,51.4,227.2,52.5 M210,52.8c-0.1,0.2-0.3,1.3-0.5,2.4c-0.4,3.4-1,5.5-2,7.6
		c-2.1,4.1-2.1,4.2-2.1,11.6c0,5.8-0.1,6.8-0.5,7.7c-0.6,1.4-0.4,1.5,0.5,0.2c1.3-1.9,1.5-3.3,1.6-7.9c0-4.6,0.4-6.1,2.3-10.6
		C210.4,61.2,211,51.2,210,52.8 M223.4,54.3c-0.8,0.8-0.7,1,0.5,1c1.3,0,3.2,0.7,4,1.4c0.8,0.7,0.8,0.4,0.1-0.6
		C226.7,54.3,224.3,53.4,223.4,54.3 M254.8,54.9c-0.3,0.5,0.4,2,1.8,3.8c2.6,3.2,3.7,7.9,2.9,13.2c-0.5,3.8-0.5,5.2,0,9.5
		c0.2,1.8,0.5,4.3,0.6,5.5l0.2,2.1l0.2-1.5c0.2-1,0.1-2.1-0.1-3.3c-0.4-2.4-0.4-8.2,0-11.8c0.8-6.8,0.1-10.8-2.3-13.8
		C255.6,55.4,254.9,54.7,254.8,54.9 M248.2,62.1c-0.6,2.3-0.6,3.1,0,4.6c0.3,0.8,0.6,1.9,0.6,2.6v1.2l2.2,0c3.5,0,4.3-0.5,1.7-0.9
		c-1.6-0.3-1.3-0.9,0.7-1.1c1.7-0.2,1.7-0.3-0.5-0.9c-1.3-0.4-1.4-0.6-0.3-1l0.8-0.3l-0.5-0.8c-0.3-0.5-0.9-1.3-1.5-1.8
		c-1.1-1.1-1.1-1-1.5,0.9c-0.3,1.8-0.7,1.2-0.6-0.9C249.3,61.3,248.7,60.3,248.2,62.1 M263.3,65.8c0.1,0.4,0.2,3,0.2,5.7l0,4.9
		l1.4,3.9l1.4,3.9l0,3.3c0,1.8-0.2,4.1-0.3,5c-0.6,3.5,0,6.1,2.3,9.5c1.9,2.8,2.3,5,1.2,7.6c-1.3,3.1-1,9.6,0.4,9.6
		c0.6,0,0.6-0.1,0.3-1c-0.5-1.9-0.1-4,1.4-7.1c2.4-4.8,2.2-6.5-0.7-9.8c-2.1-2.3-2.8-3.5-3.3-5.5l-0.4-1.7l1-2.9
		c1.4-4.3,1.4-4.5-1.6-10.6c-2.4-5-2.5-5.4-2.5-9.5c0-3.4-0.3-5.6-0.9-6C263.1,65.1,263.1,65.3,263.3,65.8 M203.3,68.9
		c-0.5,0.9-1,3-1.4,6c-0.6,5.6-1.3,8.4-2.8,11.5c-2.1,4.5-2.8,8.7-1.9,12.3c0.5,1.9,0.6,1.4,0.6-2.2c0-4,0.6-6.2,2.3-8.9
		c2.8-4.3,3.3-6.3,3.3-13.5c0-3,0-5.4,0-5.4S203.4,68.7,203.3,68.9 M222.7,77.5c-0.8,0.2-1.1,0.4-1.1,0.7c0,0.2-0.1,0.6-0.3,0.7
		c-0.7,0.7,0.1,1,1.9,0.8c3.1-0.3,5.2,0.3,8.9,2.6c1.7,1,1.9,1.1,2.5,0.7c0.6-0.3,0.1-0.8-0.8-0.8c-0.6,0-1.3-0.4-2.7-1.8
		C228.3,77.8,225.4,76.8,222.7,77.5 M216.7,78.8c-3.5,5.5-4.4,11.2-2.5,15.8c0.6,1.3,0.8,1,0.2-0.4c-1.2-3.4-0.7-7.1,1.6-11.6
		C217.7,79.4,218.2,76.5,216.7,78.8 M262.1,78.5c0,0.2,0.1,1.3,0.2,2.4c0.8,5.9,0.4,10.6-1,13.5c-3.3,6.9-4.8,13.4-3.8,17.1
		c1.1,4.1,4.8,8.2,7.2,7.8c0.5-0.1,0.3-0.3-1.1-1.3c-4.3-3-5.2-9.6-2.4-17.5c1.9-5.5,2.7-8.9,2.7-11.7c0-2.9-0.6-7.9-1-8.5
		c-0.1-0.2-0.4-0.8-0.5-1.3C262.3,78.5,262.1,78.2,262.1,78.5 M248.9,79.2c-0.7,0.4-2.3,1.4-3.4,2.1c-1.1,0.8-2.2,1.4-2.3,1.4
		c-0.2,0-0.3,0.2-0.2,0.5c0.2,0.9,2.7,0.3,4.4-0.9c0.5-0.3,0.9-0.6,1.1-0.6c0.7,0,3.1-1.8,2.4-1.9c-0.9,0-1-0.4-0.2-0.7
		c0.6-0.2,0.5-0.7-0.1-0.7C250.3,78.5,249.6,78.8,248.9,79.2 M224.8,81.6c1.1,2.4,2.9,3.3,2.9,1.4c0-1-0.8-1.6-2.1-1.6
		C225.1,81.4,224.7,81.5,224.8,81.6 M251.5,82c-0.5,1.4,0.9,2.5,1.5,1.1c0.2-0.4,0.2-0.9,0.1-1.1C253,81.6,251.7,81.5,251.5,82
		 M222.5,83.7c-0.8,2,5.3,3.9,8.7,2.8c1.5-0.5,1.4-0.6-0.9-0.6c-3.1,0-4-0.3-5.6-1.5C223.2,83.2,222.7,83.1,222.5,83.7 M230.4,83.7
		c-0.2,0.6,0.3,1,1.1,0.8c0.7-0.2,0.7-0.2,0.2-0.7C231.2,83.2,230.6,83.1,230.4,83.7 M237.7,84.4c-0.2,1-1.1,3.2-1.5,3.8
		c-0.3,0.5-0.3,0.3-0.3-0.9l0-1.4l-1.2,1.3c-1.9,2.1-3.4,2.7-6.6,2.7c-3.4,0-4.2-0.4-1.2-0.6c2.3-0.2,4.2-0.6,4.2-1.1
		c0-0.1-0.5-0.2-1.1,0c-3.4,0.7-6,0-8.2-2c-1.4-1.3-1.4-1.3-1.4,1.1c0,2.2,0.5,3.4,2,4.7c1.8,1.6,2.3,2.6,2.3,4.8
		c0,2.9,0.3,3.1,1.1,1.3c0.7-1.6,4.8-5.9,5.6-5.9c0.5,0,2-1.3,2.5-2.2l0.4-0.7l1.2,1c1.1,0.9,1.8,2.2,1.4,2.6
		c-0.1,0.1-0.5-0.2-0.9-0.6c-0.7-0.7-0.9-0.7-1.5-0.5c-1.3,0.6-1,2.7,0.4,3.1c0.3,0.1,0.9,0.5,1.2,0.9c1.5,1.8,4.5,1.6,4.4-0.4
		c-0.4-6.8-0.5-7.6-0.9-8c-0.4-0.4-0.4-0.4-0.6,0.3c-0.3,1.2-0.7,0.5-0.7-1.3C238.6,84.5,238,83.2,237.7,84.4 M246.5,84
		c-0.3,0.3,0.1,0.6,0.8,0.6c0.4,0,0.6-0.1,0.6-0.3C247.7,83.9,246.8,83.7,246.5,84 M251.1,85.6c-2.1,0.7-3.8,0.8-5.8,0.2
		c-2.1-0.6-2.3-0.4-0.5,0.6c1.4,0.7,1.9,0.8,3.8,0.8h2.2L252,86c0.6-0.6,1.1-1.1,1-1.1C252.9,84.9,252.1,85.2,251.1,85.6
		 M243.4,87.7c0,1.2,0.7,2.6,1.7,3.8c2.3,2.5,3.3,4.3,4,7l0.3,1.2l0.3-1.1c0.7-2.4,0.4-4.1-1.1-5.6l-0.8-0.8l1.7,0.1
		c2,0.2,2.9-0.3,4.5-2.5c1.3-1.7,1.2-1.9-0.6-1.8c-3.4,0.2-7.6,0-8.8-0.4C243.3,87.2,243.4,87.2,243.4,87.7 M200.7,90.8
		c-1.5,3.4-1.7,6.5-0.7,11.6c1.1,5.7,0.9,8.2-1.1,11.5c-1.2,2-1.6,3.7-1.2,4.5c0.2,0.4,0.3,0.4,0.3-0.4c0-1.2,0.6-2.5,1.7-3.9
		c1.2-1.5,1.7-2.5,2.1-4.4l0.3-1.5l0.4,2.1c0.3,1.7,0.3,2.4,0,4c-0.2,1.1-0.4,2.3-0.4,2.9l-0.1,0.9l0.4-1.1
		c1.9-4.7,1.8-7.4-0.6-15.5c-1.3-4.1-1.4-9-0.4-11c0.4-0.8,0.5-1.1,0.2-1.1C201.5,89.4,201.1,90,200.7,90.8 M241.9,90
		c-0.1,0.3,0,1.2,0.4,2.3c0.3,1,0.6,2.2,0.6,2.7l0.1,0.9l0.6-0.6c0.8-0.8,0.7-2.2-0.3-3.5c-0.3-0.5-0.8-1.2-0.9-1.5
		C242.2,89.6,242.1,89.6,241.9,90 M270.1,92.7c-0.6,1.3,0.4,3.7,3.4,8.5c1.7,2.8,2,5.7,1,9.9c-0.7,2.9-0.8,4.9-0.4,6.2
		c0.3,1,0.4,1,1.7,0.5l0.9-0.4l-0.1-2.4c-0.1-1.8,0-2.8,0.3-4.1c1.2-4.4,0.1-9.1-3.1-12.4c-2-2.1-3.1-3.9-3.2-5.3l-0.2-1.3
		L270.1,92.7 M203.9,93.3c0,0.4,1.4,4.8,2.3,7.3c0.9,2.4,1.2,4.2,1.1,6c-0.1,1.4-0.1,1.5-0.3,0.8c-0.1-0.4-0.9-2.3-1.7-4.2
		c-0.8-1.9-1.6-4.1-1.7-5c-0.3-1.6-0.7-2.1-0.7-0.8c0,1.1,0.7,3.5,1.7,6.4c1.3,3.4,1.8,7.2,1.6,10.6c-0.4,5.4-0.1,7.3,1.9,10.5
		c0.7,1.1,1.5,2.6,1.9,3.3l0.7,1.3l-0.1-1.2c-0.1-0.7-0.5-2-0.9-2.9c-1.7-3.6-1.8-9.9-0.2-12.5c1.3-2.2,0.1-8.9-2.5-13.9
		c-0.9-1.7-1.8-3.6-2.1-4.2C204.4,93.4,203.9,92.8,203.9,93.3 M230.4,94.7c-2,2.4-1.7,3.6,0.7,2.6l1.6-0.7l-0.6-1.4
		C231.4,93.4,231.4,93.4,230.4,94.7 M212.2,96.5c0,0.4,0.4,1.7,0.9,2.7c2.4,5,2.6,7.9,0.8,12.7c-1,2.5-1.3,3.7-1.4,5.3l-0.1,2
		l1.6,3.2c0.9,1.8,1.6,3.3,1.6,3.5s0.1,0.4,0.3,0.5c0.6,0.4,0-2.5-1.1-4.8l-1.1-2.4l0.3-1.9c0.2-1,0.9-3.2,1.5-4.8
		c2.1-5.1,1.9-7.4-1.1-13.1C212.6,95.8,212.2,95.4,212.2,96.5 M245.2,97.1l-0.5,1.3l1,0.9c1.8,1.5,2.3,0.7,1-2
		C245.9,95.5,245.8,95.5,245.2,97.1 M264.2,99.3c0,0.5,0.4,2.1,0.8,3.5c0.9,2.7,1.1,5.4,0.6,8.2c-0.1,0.7-0.1,1.8,0.1,2.6
		c0.5,2,0.7,2.2,0.7,0.9c0-0.6,0.2-2.7,0.4-4.5c0.4-4.2,0.2-5.3-1.5-9.1C264.3,98.6,264.2,98.4,264.2,99.3 M196.1,102.5
		c0,3.7,0,3.6-1.4,6.2c-0.2,0.4-0.8,1.2-1.2,1.8c-1.2,1.5-2.1,5-1.3,5c0.1,0,0.3-0.3,0.3-0.6c0-1.3,1.6-3.8,3.2-5.3
		c3.3-2.8,3.4-3.9,1-9.3l-0.6-1.4L196.1,102.5 M233.9,99.9c-0.7,0.5-0.6,0.8,0.5,1c0.5,0.1,1.6,0.5,2.4,1c1.6,0.8,5.2,1.2,5.6,0.5
		c0.2-0.3-0.7-0.8-1.5-0.8c-0.4,0-1.4-0.4-2.4-0.9C236.4,99.6,234.7,99.3,233.9,99.9 M234.3,102.9c0,0.1,0.3,0.5,0.7,0.9
		c0.6,0.6,0.7,0.8,0.3,1c-1.3,0.8,3.9,1.5,5.7,0.7c2.2-0.9,1.7-1.4-1.3-1.4c-2.5,0-2.9-0.1-4-0.7
		C234.4,102.7,234.3,102.6,234.3,102.9 M230.2,105c-0.4,1.2,0.9,4.6,2,5.2c0.7,0.4,0.8,0.4,1.3-0.6c0.5-0.9,0.7-2.6,0.3-2.6
		c-0.1,0-0.8-0.5-1.5-1.2C231,104.5,230.4,104.3,230.2,105 M244.5,106c-1.1,1.1-1.1,1.2-0.9,2.1c0.1,0.5,0.3,1.4,0.3,1.9
		c0,2.2,1.6-0.1,2.1-3C246.5,104.5,246.2,104.3,244.5,106 M290,111.9c-2.1,2.6-7.5,6-13.7,8.5c-3.8,1.6-4.1,1.6-8.7,1.6
		c-2.2,0-4,0.1-4.1,0.2c-0.5,0.5,0.4,0.8,2.5,0.8c2.9,0,2.6,0.4-0.7,1.3c-5.6,1.4-8.4,4-9.2,8.2c-0.5,2.8-1,4.1-2.6,6.8
		c-1,1.8-1.4,2.6-1.5,3.8c-0.2,1.9-0.1,1.9,1,0.2c1.6-2.5,6-5.3,12.5-7.8c1.2-0.5,3-1.4,3.9-2c0.9-0.6,1.9-1.2,2.1-1.3
		c4.8-1.8,12.9-9.2,17-15.5C290.5,113.6,291.7,109.7,290,111.9 M278.2,114.3c0.1,2.1,0.4,2.5,1.2,1.8c0.7-0.6,0.6-1.4-0.7-2.8
		l-0.7-0.8L278.2,114.3 M166.7,114.9c-1.2,2.8,0.5,7.8,3.8,11.3c2.4,2.5,3.7,3.3,2,1.2c-0.9-1.1-4-7.1-4-7.8c0-0.6,0.4-0.3,1.4,1
		c2.3,3,9.7,7.1,16.4,9.1c1.6,0.5,4.9,1.6,7.4,2.5c6.6,2.4,9.1,3.3,11.6,3.7c1.2,0.2,2.3,0.6,2.5,0.8s0.5,0.4,0.8,0.5
		c6,1.5,12.1,4.2,14.2,6.4l1,1.1l-2.6-1.1c-2.3-0.9-8.2-1.7-8.2-1c0,1,1.4,3.3,2.3,3.7c3.1,1.4,5.6,4.4,7.8,8.9
		c3.9,8.4,4.6,10.7,5.4,16.4c0.5,3.5,1.1,5.3,1.9,5.3c1.3,0,1.2-17-0.2-19.2c-0.1-0.1-0.4-1.3-0.6-2.6c-2.2-10.6-8.3-19.3-16.1-22.9
		c-3-1.4-13.4-4-18.4-4.6c-1.5-0.2-3.6-0.5-4.7-0.8l-2-0.5l2.9-0.3c1.6-0.2,3.8-0.4,4.9-0.6c1.5-0.2,2.6-0.1,4.5,0.2
		c5,0.8,4.9,0.9,2.2-1.2c-5-3.8-8.2-4.8-14.2-4.2c-1.5,0.1-2.2,0.1-2,0c0.4-0.4,4.7-1.6,6.5-1.8c2.1-0.2,2.1-0.8,0.1-0.9
		c-1.5-0.1-4.8,0.6-9.8,2.1c-2.8,0.8-3.9,0.9-7.5,0.4c-2.2-0.3-6.6-3.3-7.6-5.1C167.7,113.7,167.2,113.7,166.7,114.9 M231.3,122.3
		c-0.9,2.1-0.1,6,2.1,9.4c1.3,2,1.4,2,1.7,0.4c0.3-1.8-0.3-4.1-1.7-6.8c-0.6-1.3-1.3-2.7-1.4-3.2l-0.2-0.9L231.3,122.3 M246,125.2
		c-0.2,1.4-1,5-1.4,5.9c-0.1,0.3,0.2,0.2,1.1-0.5c1.2-0.9,1.4-1,3.1-0.9l1.8,0.1l-0.9-1.2c-0.5-0.7-1.2-2-1.7-3
		C246.9,123.3,246.2,123.1,246,125.2 M286.9,127.2c-2.5,3.1-4.7,5.3-7.1,7.1c-0.8,0.6-2.1,1.7-2.7,2.4s-2.6,2.2-4.3,3.4l-3.1,2.2
		l0.8,1c0.5,0.5,1.7,1.9,2.6,3c6.4,7.2,7.3,8.4,8.1,11.2c0.4,1.3,0.3,1.6-0.3,1.6c-0.2,0-0.5,0.2-0.5,0.4c-0.1,0.2-0.7,0.7-1.4,1
		c-2.7,1.2-14.9,13-16.6,16.2c-1.3,2.4-1.7,5.7-0.8,7.2c0,0,1-0.7,2.3-1.7c3.6-2.9,8-4.7,5.2-2.1c-4.9,4.5-7.9,8.1-7.9,9.6
		c0,0.7,0.8,1.3,3.4,2.8l1.6,1l1.1-0.5c1.4-0.7,4.2-1.2,7.1-1.4c2.7-0.1,2.7,0,0.5,0.8c-4.8,1.7-7.5,5.1-5.8,7.2
		c0.4,0.4,5.9,0.3,8-0.2c2.8-0.6,5-4.8,5.3-10c0.2-4,0.9-6.7,2.5-9.7c2.8-5.6,3.3-8.1,2.5-13.1c-1.3-8.1-0.5-13.4,3-19.8
		c2.1-3.9,7.7-12.1,9.8-14.3c2.2-2.3,2.3-2.8,1.1-3.8c-2.2-1.7-5.2-2.8-9-3.5c-1.1-0.2-2.2-0.4-2.4-0.5
		C289.3,124.4,288.4,125.2,286.9,127.2 M226.8,127.9c-0.1,0.5-0.2,1.4-0.3,1.9c-0.1,0.5-0.3,1.2-0.6,1.5c-0.5,0.6-0.5,0.6,1.9,1
		c2.5,0.4,2.5,0.4,1.7-1c-0.4-0.6-1-1.8-1.5-2.7C227,126.7,227,126.7,226.8,127.9 M166.3,131.6c-3.5,1.8-6.3,4.1-6.3,5.3
		c0,0.5,0.1,0.5,0.5,0.3c6.5-3.5,15.3,9.2,17,24.5c0.2,2.1,0.6,5.1,0.8,6.5l0.4,2.6l2.6,2.5c1.8,1.8,2.9,3,3.5,4.2
		c0.5,0.9,1.2,2.1,1.7,2.7c1.2,1.5,0.4,1.3-2.2-0.7c-4.6-3.4-4.6-3.4-4.9-0.9c-0.3,4,0.1,5.7,3.2,12.1c1.6,3.2,3.8,4.9,7.9,6.3
		c3,1,3.6,1.1,5.2,1l0.9,0l-0.8-0.7c-0.4-0.4-1.9-1.6-3.3-2.8c-2.5-2.1-4-3.8-6-6.8c-1.6-2.5-1.4-2.4,4,1.5c1,0.7,2.9,2.1,4.2,3.1
		c5,3.7,7.8,4.9,9.3,3.9l0.7-0.4l-0.8-1.5c-2.2-3.9-5.6-8.6-9.9-13.4c-1.6-1.9-2.9-4.2-1.9-3.4c0.3,0.2,1.6,1.1,2.8,2
		c1.3,0.9,3.3,2.5,4.6,3.6c1.3,1.1,3,2.5,3.8,3.2c0.8,0.7,1.8,1.7,2.1,2.2c2.8,4.9,2.8-1,0.1-6.3c-1.4-2.8-2.4-3.9-5.1-5.6
		c-5.3-3.4-9.4-10.6-7.8-13.7c1.1-2.1-1.2-5.9-5-8.4c-4.3-2.9-4.3-2.8-4.6-4.7c-0.6-3.3-0.4-4.3,1-5.6l0.8-0.7l-1.1-1.6
		c-2.9-4.3-11.5-11.9-13.5-11.9C169.8,129.9,168.1,130.7,166.3,131.6 M301.9,133.8c-0.2,0.1-0.3,0.3-0.3,0.4c0,0.2-0.6,0.9-1.3,1.6
		c-5.6,5.7-9.3,12.8-10.4,20.1c-0.5,3-0.2,2.5,1-1.7c1.1-3.7,3.7-9.7,4.1-9.5c0.1,0,0.5-0.2,0.7-0.5c0.3-0.3,0.1,0.1-0.4,1
		c-1.5,2.5-2.7,5.8-3.5,9.4c-0.9,4.1-0.7,4.3,0.5,0.6c1.5-4.6,5.7-12.4,7.2-13.3c0.2-0.1,0.1,0.2-0.2,0.6c-1.7,2.6-4,7.1-4.3,8.4
		c-0.2,0.8,0.1,0.5,1.4-1.5c2.5-3.8,4.4-6.3,5.4-7c1-0.7,1-0.6-0.9,1.6c-0.5,0.7-1.8,2.6-2.9,4.3c-2.5,4.1-4,7.5-1.9,4.2
		c1.6-2.4,4.5-6,5.6-6.7c1.2-0.9,1.2-0.7-0.7,1.7c-2.5,3.2-6.5,9.7-6.2,10c0.1,0.1,1.2-1.4,2.5-3.3c2.2-3.1,6.3-7.8,6.9-7.8
		c0.1,0,0.8-0.4,1.6-1c1.7-1.3,1.9-1,0.2,0.3c-1.6,1.3-3.5,3.3-6.5,7.5c-1.3,1.8-2.9,3.9-3.5,4.8c-1.2,1.7-3.6,6.2-3.4,6.5
		c0.1,0.1,0.5-0.4,1-1.1c7.4-10.7,16.7-19.1,21.2-19.1c1.2,0,1.4-0.2,0.8-0.8c-0.2-0.2-0.4-0.4-0.4-0.5c0-0.3-4.6-4.8-5.2-5.2
		c-0.3-0.1-1.1-0.8-1.8-1.4C305.9,134.5,303.1,133.3,301.9,133.8 M221,134.2c0,0.8,3.2,3.5,5.6,4.7c3.8,1.9,11.5,9.9,11.5,12.1
		c0,0.3-0.4,0-1.4-1c-0.8-0.8-2.2-2-3.1-2.8l-1.7-1.3l0.7,1.5c0.4,0.8,0.7,1.6,0.7,1.6s0.6,0.5,1.3,1c2.2,1.6,2.9,3.2,0.8,1.9
		c-1.3-0.8-1.5-0.8-1.2,0.4c0.2,1,1.1,1.6,3.8,2.6c2.4,0.9,2.3,1,1.8-2.1c-0.4-2.6-1.2-4.5-2.4-5.8c-2.3-2.5-3.2-4.7-3.6-8.3
		l-0.2-1.7l-1.2-0.5c-0.7-0.3-2.3-0.6-4.3-0.7c-3.1-0.2-4.8-0.6-6-1.4C221.6,133.9,221,133.8,221,134.2 M183.7,134.6
		c0,0.2,0.6,1.1,1.3,2c0.7,0.9,1.7,2.3,2.2,3.2c0.5,0.9,1,1.6,1.2,1.6c0.9,0,4.7-2.3,4.7-2.9c0-0.6-4.8-3.2-6.8-3.7
		C183.7,134.1,183.7,134.1,183.7,134.6 M245.2,137.3c-1.9,3.4-2.6,5.2-2.6,6.5c0,1.1,0.7,3.9,1.2,4.6c0.6,1,1.2,3.2,1.3,5.3
		c0.3,4.6,3.9,3.3,4.8-1.8c0.1-0.6,0.1-1-0.1-1.2c-0.2-0.1-0.3,0-0.3,0.2c0,1-1.7,3.6-2.4,3.6c-0.1,0-0.1-0.6,0.2-1.3
		c0.3-0.8,0.4-2.5,0.5-4.8c0-2.8,0.2-3.7,0.5-4.2c0.6-0.9,0.6-1-0.1-1c-0.8,0-1.7,2.2-1.9,4.7l-0.1,2.1l-0.6-1.5
		c-1.5-3.5-1-8.3,1.3-11.2l1.1-1.3h2.1c2.4,0,2.8-0.4,0.8-0.9c-0.6-0.2-1.6-0.5-2-0.7C247.3,133.9,247.1,134,245.2,137.3
		 M161.1,139.2c-1.8,1.1-7.8,7.4-11.3,11.9c-2.6,3.2-3,5-1.8,7.2c0.6,1,1.5,3.3,2.1,5.1c0.5,1.4,0.7-0.4,0.3-2.3
		c-1-4.3-0.3-5.2,4.5-5.3c2.7-0.1,7.9,2.4,11.1,5.3c2.2,2,0.2-1-2.7-4c-2.5-2.6-1.4-2.1,1.8,0.8l2,1.9l-1.2-1.7
		c-0.6-0.9-2.1-2.7-3.3-4c-1.6-1.7-1.9-2.1-1.3-1.7c1.3,0.8,4.9,4.3,6.3,6.2c0.7,0.9,1.2,1.6,1.2,1.5c0-0.3-1.7-3.2-2.6-4.3
		c-2.1-2.7-2.1-3.3,0-1.1c0.9,1,1.4,1.4,1.2,1.1c-1.5-2.6-2.8-4.5-3.5-5.4c-1.1-1.3-0.7-1.3,0.5,0.1c2,2.3,5,6.6,6,8.7
		c0.6,1.2,1.1,2.2,1.1,2.1c0.2-0.2-1.2-3.8-2.4-6.3l-1.2-2.5l1,1.1l1,1.1l-1.1-2c-0.6-1.1-1.9-3.1-2.8-4.5c-1-1.4-1.7-2.5-1.7-2.6
		c0-0.7,3.7,3.8,5.6,6.9c1.8,2.9,1.9,2.8,0.7-0.8c-1.5-4.5-2.3-6.1-4.6-8.9C163.2,138.8,162.5,138.4,161.1,139.2 M198.4,140.9
		c-0.8,0.1-2.3,0.6-3.3,1.1c-1,0.4-2.9,1.2-4.1,1.7c-1.2,0.5-2.7,1.3-3.3,1.7c-0.6,0.4-1.5,1-2,1.2c-2,1-0.7,3.7,2.5,5.1
		c3.4,1.4,6.4,4.4,6.3,6c-0.1,0.9,1.2,1.2,2.4,0.5c3.1-1.7,5.6-3.5,6-4.5c0.7-1.4,1.7-2.1,3.4-2.1c1.2,0,4.5-0.9,5-1.4
		c0.7-0.6-3.5-4.2-5.5-4.8c-5.1-1.3-7.7-0.9-17.2,2.6c-2.6,1-1.7-0.1,1.5-1.7c9.5-4.7,15.5-4.9,19.5-0.7c1.4,1.5,1.7,1.5,1.2,0.2
		c-0.4-1.3-3-3.5-5.2-4.5C203.9,140.7,200.6,140.5,198.4,140.9 M265,141.1c0,0.6,2.3,4.1,3.9,5.9c1.4,1.6,4.6,6,4.6,6.4
		c0,0.1-1.1,0.9-2.5,1.8c-10.4,6.5-19.2,16.6-21.1,24.1c-0.5,2.1-0.4,2.8,0.2,1c2.8-8.2,16.1-20.4,26.4-24.3
		c0.7-0.3,1.3-0.6,1.3-0.6c0-0.4-3-4-5.7-6.9c-1.7-1.7-3.9-4.2-4.9-5.5C265.1,140.4,265,140.3,265,141.1 M259.8,143.1
		c-2.7,0.9-5.6,3.3-6.2,5.2c-0.8,3-2.2,8.4-3,11.8c-0.5,2-1.2,4.9-1.6,6.6c-1.8,6.9-2.8,13.7-2.5,16.9l0.2,2l0.3-2
		c1.7-9.9,11.4-22.8,22.1-29.5c1.9-1.2,1.8-1.3-1.5-4.6c-1.7-1.7-3.3-3.6-3.8-4.4C262.6,142.7,262,142.4,259.8,143.1 M312.2,149.1
		c-9.4,5.1-14.2,9.8-20,19.6c-1.3,2.2,0.3,0.3,2.1-2.3c2.3-3.6,2.8-3,0.6,0.8c-0.9,1.6-0.3,1,1.1-1c1.3-1.9,2.7-3.5,2.9-3.3
		c0.1,0.1-0.6,1-1.4,2.2c-1.9,2.7-1.7,2.8,0.6,0.4c2.2-2.4,2.6-2.3,0.6,0.2c-1.3,1.6-5.2,7.4-7.1,10.5c-1,1.7-0.6,1.5,0.4-0.2
		c2.3-3.6,8.7-11.3,10.7-12.9c2.6-2,11.8-6.5,17.3-8.4c2.6-0.9,2.6-1.3,0.2-4.4C317.5,147.2,316.1,147,312.2,149.1 M210.4,152.8
		c-1.4,0.5-1.4,0.5-0.3,2.1l0.8,1.2l1.6-0.2c3.2-0.4,4.5,0.7,7.6,6c2.5,4.4,3.2,4.9,2,1.6C219,154.8,215,151.1,210.4,152.8
		 M205.2,154c-0.8,0.5-0.5,1.1,1.1,3c0.9,1,1.6,2.2,1.7,2.6c0.3,1.4,1.2,3.2,1.6,3.2c0.5,0,0.5-0.6,0-2.2c-0.2-0.7-0.4-1.8-0.4-2.4
		C209.3,155.6,206.7,153.1,205.2,154 M235.2,156.1c0.1,0.5,0.2,0.9,0.2,0.9c0,0.5,8.1,3.4,10.6,3.8c2.6,0.4,2.8-1,0.1-1.5
		c-1.6-0.3-7.8-2.6-9.7-3.5C235,155.1,234.9,155.1,235.2,156.1 M320,156.3l-1.2,0.4l1,0.5c0.6,0.3,1.5,0.9,2.1,1.4
		c1.1,1,1.2,0.8,0.1-1.6C321.5,155.7,321.6,155.7,320,156.3 M200.6,157.7c-2.8,1.6-4.6,3.1-6.1,5.3c-1.8,2.7,3,10.7,6.7,11.2
		c2,0.3,2,0.1,0.2-2.4c-3.8-5.1-3.5-8.8,0.9-11.2c1.6-0.9,2.1-1.8,1.6-2.8C203.4,156.7,202.5,156.7,200.6,157.7 M213.3,158.6
		c-1.4,0.4-1.7,0.8-1.4,2.4c0.4,2.1,0.1,2.9-1.6,3.7c-1.9,0.9-2.1,0.9-3.3-0.3c-1.3-1.4-2.3-1.4-4.2-0.3c-2.1,1.4-2.2,1.1,4.4,10.9
		c2.2,3.3,4.8,7.4,5.7,9.2c1.7,3.3,2.2,4.1,5.3,9.5c1,1.7,2.3,4.2,2.9,5.6c1.5,3.3,6.1,12.1,7.4,14.1c2.7,4.3,7,6.8,8.4,4.9
		c0.8-1.2,0.7-1.6-0.7-2.2c-4.1-1.8-5.6-4.9-4-8.5c1-2.2,5.4-4.5,6.2-3.2c0.1,0.2-0.1,0.3-0.5,0.3c-2.3,0-5.4,3.9-4.8,6.1
		c0.2,0.6,0.2,0.6,0.5-0.6c0.8-3.3,5.3-5.4,7.8-3.8c1.3,0.8,2.5,2.7,2.5,4c0,1.2,0.5,1.6,1.6,1.4c0.7-0.2,0.8-0.3,0.7-0.9
		c-0.1-0.4-0.2-1.5-0.4-2.6c-0.4-2.8-2-6.3-3.6-8.2c-0.7-0.8-2-2.5-2.8-3.6c-0.8-1.2-2.3-3.2-3.3-4.6c-6.2-8.7-11.6-16.4-12.7-18.3
		c-1.4-2.4-6.1-11.4-6.8-13.1c-0.5-1.2-1.4-2.3-1.9-2.2C214.6,158.2,213.9,158.4,213.3,158.6 M317.8,159.2c0,0.1,0.3,1,0.7,2.1
		c1.6,4.4,1.8,5.9,1.9,13c0.1,6.2,0.2,8.3,0.6,8.3c0.1,0,0.1-0.7,0.1-1.6c-0.1-0.9,0.1-2.8,0.3-4.3c0.9-6-0.3-16-2.1-17.2
		C318.6,159,317.8,158.9,317.8,159.2 M314.2,159.5c-0.1,0.2-0.1,0.4,0,0.5c0.8,1.3,1.6,5.9,1.9,11.2l0.3,5.7l0.4-1.6
		c0.7-2.9,0.5-11.5-0.3-14C315.8,159.4,314.8,158.6,314.2,159.5 M310.7,160.4c-0.3,0.2-0.6,0.3-0.6,0.4c0,0,0.6,1.4,1.4,3.1
		c2,4.1,2.8,8.3,2.9,15c0,2.5,0.1,4.8,0.1,5.2c0,0.8,0.4,0.4,0.4-0.5c0-0.4,0.1-2.2,0.2-4C315.8,170.7,313.1,159.1,310.7,160.4
		 M321.6,162.5c0.1,0.3,0.4,1.4,0.6,2.3c0.4,1.4,0.5,2.7,0.4,7.2c0,3,0,5.4,0.1,5.3c1.8-1.8,1.8-9.5,0-13.4
		C321.8,162,321.3,161.4,321.6,162.5 M153.3,163.9c-0.3,0.7-1.1,1.9-1.6,2.7c-1.5,2-1.6,2.3-2.1,5.3c-0.5,3.4-0.3,9.4,0.4,12.7
		l0.5,2.2l-0.6-0.8c-2.6-3.1-3.8-7.3-3.2-10.8c0.5-2.8,0.4-2.8-0.8-0.3c-1.7,3.5-1.2,6.2,2.3,11.7c0.7,1.2,1.8,3,2.3,4.1
		c0.5,1.1,2.1,3.7,3.5,5.8c3,4.7,3.3,5.4,3.3,6.4c0,0.5,0.2,1.7,0.4,2.7c1,4.6-1.8,9.5-8.3,14.4c-1.9,1.4-3.2,3.4-3.7,5.3
		c-0.3,1.3,0.2,1,1-0.5c0.8-1.6,2.3-3,5-4.8c1-0.6,2.9-2.4,4.3-3.9c1.6-1.7,2.6-2.5,2.6-2.2c0,0.9-0.7,3.4-1.2,4.3
		c-0.9,1.7-0.2,2.3,1.1,1c2.9-2.9,3.4-7.7,1.6-15.3c-0.4-1.5,1.2,1.9,2,4.3c0.7,2.2,0.9,3.1,1,6.1c0.2,5.3,1.3,5,1.4-0.5
		c0-1.4,0.2-2.5,0.3-2.5c0.4,0,1.5,2.8,1.7,4.3c0.2,1.8,0.7,2.1,1,0.6c0.5-2.5-2.8-10.1-7-16.3c-5.5-8.1-6.4-10.1-7.8-18.2
		c-1.2-6.6-1.1-11,0.4-15.3C154.2,163.5,154.4,161.6,153.3,163.9 M238,162.9l-1.5,0.1l0.1,0.9l0.1,0.9l2.9,0.1c1.6,0,3.8,0,4.9-0.1
		l1.9-0.2v-0.9v-0.9l-3.4,0.1C241.1,162.8,238.8,162.9,238,162.9 M221.3,167.4c0.8,1.6,2.5,4.5,3.8,6.5c1.3,2,3,4.6,3.8,5.7
		c1.3,1.9,3.4,4.9,8.5,12c1.1,1.5,3.1,4.1,4.5,5.9c3.9,4.8,5,7.2,5.4,11.7c0.2,2.9,1.2,3.3,1.3,0.6c0.2-4.8-1.6-8.6-7.1-15
		c-2.4-2.7-5.6-6.9-7.6-9.8c-0.7-1-2-2.7-2.8-3.7c-1.7-2.1-6.4-9.1-9.1-13.5c-1-1.6-1.9-3-1.9-3.1
		C220,164.6,220.5,165.8,221.3,167.4 M160.1,165.3c-0.1,0.3-0.2,1.9-0.3,3.7c-0.2,3.1-0.1,4.2,0.8,11.2c0.2,1.8,0.5,3.7,0.5,4.4
		c0.2,1.6-0.8-1.2-2.4-7.1c-1.6-5.7-2-8-2-10.4c0-1.5-0.1-2-0.3-1.8c-0.8,0.5-0.1,8.4,1.2,13.7c2.8,10.9,4.9,15.3,11.1,23
		c2.7,3.4,3.4,4.5,4.5,7.4c1,2.7,1.4,2.3,0.5-0.4c-0.8-2.5-1.6-3.9-3.9-7.2c-2.2-3.2-4.1-7.2-5.4-11.6c-2-6.5-3.8-17.2-3.8-22.8
		C160.7,165.1,160.4,164.2,160.1,165.3 M303.8,166l-0.7,0.6l0.5,2.1c1.3,5.6,0.7,13.6-1.5,18.3c-1.2,2.7-0.3,2.2,1-0.6
		c2.9-5.8,3.8-14,2.1-20.1C304.9,165.2,304.7,165.2,303.8,166 M165.4,169.8c-0.5,6.9,1.1,15.4,3.9,21c1.2,2.5,1.5,2.6,0.7,0.5
		c-1.9-5.6-2.7-10.6-2.6-17.1l0.1-4.9l-0.9-1.1c-0.5-0.6-0.9-1.1-1-1.1S165.5,168.3,165.4,169.8 M236.7,168.1c0,1.3,7.5,3.7,8.1,2.6
		c0.5-0.7-0.2-1.2-2.2-1.7c-1.1-0.3-2.9-0.8-4-1.1l-2-0.6V168.1 M214.5,168.6c0.7,0.3,0.8,0.6,0.7,1.7c-0.1,1.3-1.9,1.7-2.7,0.7
		C211.2,169.5,212.6,167.8,214.5,168.6 M319.1,172.3c-0.1,0.7-0.2,3.4-0.2,6l0,4.8l1.1,3.2c1.5,4.3,1.8,6.2,1.2,7.6
		c-0.5,1.2-0.3,1.6,0.8,1.9c2,0.6,2.2-3.4,0.3-7.1c-0.8-1.6-2-4.6-2.4-6.4c-0.1-0.5-0.3-3.3-0.4-6.1
		C319.3,172.6,319.2,171.5,319.1,172.3 M311.8,172.3c-0.1,0.2,0,1.1,0.1,2.1c0.3,2.1-0.1,5.8-0.9,8.1c-0.3,0.8-0.9,2.6-1.4,4.1
		c-0.5,1.4-2,4.7-3.3,7.3c-2.8,5.5-3,6.7-0.9,8.3c1.4,1.1,2.4,0.7,1.3-0.5c-0.6-0.7-0.8-1.3-0.6-1.3c0.5,0,5.1,1.1,5.5,1.3
		c0.3,0.2,0.7,0.3,0.9,0.3c1,0,0.3-0.5-2.2-1.7c-4.6-2.1-4.7-2.9-1-10.4c2.9-6,3.9-10.2,3.4-15C312.5,172.6,312.2,171.7,311.8,172.3
		 M283.6,175c-0.8,4.8-5.3,8.9-13.8,12.5c-1.4,0.6-2.8,1.4-3.2,1.8c-0.9,0.9-1,0.8-0.8-0.9c0.3-2.6,2.7-4.7,7.8-6.7
		c4.5-1.8,7.6-4.3,9.3-7.4C283.3,173.4,283.8,173.8,283.6,175 M154.6,174.6c0,5.8,4.6,20,8.3,25.6c1.3,2,1.2,1.9,1.4,1.7
		c0.1-0.1-0.2-1.1-2.1-5.5c-3.9-8.9-6.4-16.5-7-20.4C155.1,174.9,154.6,173.9,154.6,174.6 M255.4,177.1c-2,2.2-4.5,5.7-5.5,7.8l-1,2
		l-0.2,5.1l-0.2,5.1l0.8,2c0.4,1.1,1,2.2,1.2,2.5c0.4,0.5,3.3,2.2,3.4,2c0,0,0.2-1.5,0.4-3.2c0.2-1.7,0.6-4.4,1-6
		c1.6-6.7,2.2-14.4,1.5-17.8l-0.2-0.8L255.4,177.1 M219.5,176.4c1.2,0.9,0.4,2.9-1.2,2.9c-0.5,0-1.6-1.2-1.6-1.6
		C216.7,176.3,218.3,175.5,219.5,176.4 M317.6,176.4c0,0.1-0.3,1.4-0.6,2.8c-1.5,7.2-1,13,1.3,14.4c1.1,0.7,1.3-0.4,0.4-3.7
		c-0.7-2.7-1.1-6.9-0.9-10.3C317.8,177.7,317.7,175.5,317.6,176.4 M308.5,179.2c-0.9,4.3-2.5,8-6.6,14.9c-1.2,2.1-2.5,4.2-2.8,4.9
		c-0.3,0.6-1,1.9-1.6,2.8c-1,1.6-2.3,4.9-2.1,5.2c0.1,0.1,0.4-0.4,0.7-1c0.3-0.6,1.3-2.3,2.3-3.7c8.7-12.6,10.7-16.9,10.5-22.5
		l-0.1-2.2L308.5,179.2 M212.3,186.2c0.9,1.9,1.4,2.5,0.9,1.2c-0.3-0.8-1.6-3-1.8-3C211.4,184.3,211.8,185.2,212.3,186.2
		 M223.7,185.4c1,1,1,1.7,0.1,2.3c-1.6,1.1-3.5-1.4-2-2.6C222.6,184.4,222.8,184.5,223.7,185.4 M147.1,189.9
		c-0.4,1.7-0.5,4.7-0.1,6.5c1.5,6.4,1.5,7,1.6,10c0,3,0,3.1-1,5.3c-1.2,2.7-1.4,4-0.9,5.9l0.3,1.4l0.3-2.5c0.3-2.2,0.5-2.9,1.8-5.3
		c2.3-4.5,2.7-6.3,1.9-9.4c-0.6-2.3-0.3-2.5,0.5-0.3c1,2.4,1.3,8.7,0.6,11.6c-0.5,2.2-0.2,2.6,0.7,0.8c2.5-5.2,1.9-11.9-1.8-17.4
		c-0.9-1.3-2.1-3.5-2.7-4.8C147.4,189.6,147.2,189.4,147.1,189.9 M215.1,191.5c0.3,0.6,1,2.1,1.4,3.2c0.5,1.1,1.7,3.8,2.6,5.9
		c1,2.1,2.5,5.8,3.5,8.3c1.7,4.2,3.3,7.4,4.6,8.8c1.2,1.3,5.8,3.1,6.6,2.7c0.7-0.4,0.7-0.3-2-1.8c-3.2-1.8-6.3-5.7-8.2-10.6
		c-0.8-2-8-16.1-8.6-16.9C214.6,190.4,214.6,190.4,215.1,191.5 M313.5,191.6c-0.4,1.1,0.8,3.2,3.3,5.5c2.6,2.5,2.6,2.5,2,3.9
		c-0.2,0.5-0.4,1-0.4,1c0,0,0.4-0.1,0.9-0.2c1.2-0.4,1.7,0,1.2,0.8c-0.4,0.8-1.9,1.2-3.6,1c-1-0.1-1.5-0.1-1.5,0.1
		c0,0.6,1.8,1,3.8,0.9c1.9-0.1,3.1-2.6,2.2-4.3c-0.6-1-0.5-1.2,0.4-0.6c2.8,1.8,4.6,6.3,3.1,7.6c-0.7,0.6-0.5,0.9,0.2,0.5
		c1.1-0.6,1.7-4.3,0.9-5.8c-0.7-1.2-4.4-4.3-6.9-5.6c-2.9-1.6-3.6-2.2-4.7-3.8C313.9,191.7,313.5,191.4,313.5,191.6 M213.7,192.8
		c-0.2,0.3,0.2,4.8,0.7,8.7c0.2,1.6,0.4,3.5,0.4,4.3c0.1,4-0.5,20.5-0.8,21.3c-0.2,0.5-0.5,2.3-0.7,4.1c-1.2,9.3-1.8,11.8-5.2,21.9
		c-3.4,9.9-9,18.4-16.9,25.4c-1,0.9-3.5,3.2-5.7,5.1c-3.3,3-13,10.6-17.4,13.6c-2.2,1.5-4.9,2.6-9.2,3.7c-2.3,0.6-5.5,1.5-7.3,2
		c-1.7,0.5-5.1,1.2-7.6,1.6c-4.4,0.6-9.6,1.8-10.1,2.3c-0.3,0.3-0.6,0.3,5.9-0.6c3.1-0.4,7.4-1,9.6-1.3c14.2-1.9,20.3-4.7,30.1-13.7
		c2.8-2.6,5.4-4.8,5.9-5.1c1-0.5,12.7-12.2,14-13.9c0.5-0.7,1.4-1.8,2-2.5c1.5-1.8,3-4,4.1-6.1c0.5-0.9,1.5-2.7,2.2-3.9
		c5.1-8.2,8.8-17.7,9.8-25.2c0.2-1.2,0.5-2.8,0.7-3.5c0.3-1.1,1.2-6.6,2.1-13.5c0.6-4.2,0.6-4-3.4-16.8
		C214.5,192.7,214.2,192,213.7,192.8 M208.4,196.2c-2.1,2.4-2.3,3.5-1.7,9.5c0.3,4,0.5,4.6,1,5.3c0.8,1,4.2,3.6,4.5,3.4
		c0.4-0.4-0.5-15.7-1.2-19C210.7,194,210,194.2,208.4,196.2 M260,196c-0.7,3.4-0.9,5.6-0.9,10.3c0,1.7,2.1,4.4,3.3,4.4
		c1.1,0,2.9-1.2,3.1-2c0.6-2.6,0.2-8.1-0.6-9.8c-0.8-1.7-0.9-1.8-4-3.8l-0.7-0.5L260,196 M182.1,196.8c0,0.7,0.3,1.6,1.3,4.6
		c1,2.9,3.6,4.1,12.2,6c8.2,1.8,8.4,1.7,8.2-1.9c-0.2-4.2-0.1-4-1.9-4c-1.9,0-4.8-0.4-6.6-0.9c-0.7-0.2-2.8-0.8-4.7-1.4
		c-1.8-0.5-4.3-1.4-5.6-2C182.3,195.9,182.1,195.8,182.1,196.8 M279.1,201.1c-0.7,0.2-3.3,0.5-8.4,0.9c-2.3,0.2-2.4,0.4-2.4,3.3
		c0,2.3,0,2.3,4.1,1.9c6.5-0.6,8.2-1.4,8.4-3.8C281,201,280.7,200.6,279.1,201.1 M94.4,202.5c-3.6,0.9,2.7,10.7,6.8,10.7
		c0.4,0,0.4,0,0,0.5c-0.9,0.9-5.3-1.8-7.6-4.7c-1.2-1.6-1.4-1.6-0.7,0c1.2,2.7,2.3,3.9,5.1,5.5c4.1,2.3,7.7-0.6,5.6-4.4
		c-1.6-3-2.2-3.9-3.4-5.2C98.5,202.6,96.6,201.9,94.4,202.5 M96.7,203.9c0.7,0.7,0.9,1.1,0.9,2.4c0.1,1.8,0.5,2,0.9,0.4l0.3-1.1
		l0.2,1.3c0.1,0.7,0.2,1.7,0.2,2.2c0,1.2,0.4,1.1,0.7-0.2c0.2-1.4,0.7-1.6,0.7-0.3c0,0.6,0.1,1.5,0.2,2.1l0.2,1l-1.6-1.1
		c-3.1-2.1-5.8-5.8-5.2-7C94.5,202.7,95.6,202.9,96.7,203.9 M305.1,205.5c-1.9,0.6-3.9,1.6-5.3,2.5c-1,0.7-3.4,3-3.3,3.2
		c0.1,0.1,0.5-0.2,0.9-0.6c2-1.9,4.2-3.1,7.9-4c3.4-0.9,3.9-0.8,1.3,0.4c-2.6,1.1-3.6,1.7-3.4,1.8c0.1,0.1,0.5-0.1,1.1-0.3
		c2.6-1.1,6.2-1.8,10.1-2c3.1-0.1,3.7-0.2,3.2-0.5C314.5,204.7,308.5,204.4,305.1,205.5 M250.3,206.3c-0.8,0.8,0.3,2.4,2.5,3.5
		c4.2,2.2,6.8,5.8,7.4,10.3c0.2,1.5,0.6,1.7,0.9,0.5c0.6-2.2-1.6-7.7-4.1-10.3C255.2,208.5,250.8,205.9,250.3,206.3 M314.5,207.7
		c-6.7,0.6-10.6,2.4-14.2,6.4c-2,2.3-2.7,3.5-1.1,2c0.8-0.8,3.6-2.7,4-2.7c0.1,0-0.4,0.6-1,1.3c-1.2,1.3-2.2,2.7-2.2,3.1
		c0,0.1,0.8-0.5,1.8-1.5c4.7-4.6,12.2-7.5,17.8-6.8c1.6,0.2,1.7,0.2,1.1-0.9C320.1,207.6,318.3,207.4,314.5,207.7 M238.8,209.3
		c-2.2,0.8-3.5,2.6-2.7,3.8c0.6,0.9,1.1,0.8,2.2-0.3c0.5-0.5,1.3-1.1,1.8-1.3c0.7-0.3,0.9-0.5,0.9-1.1
		C241,208.9,240.5,208.7,238.8,209.3 M187.7,210.1c-1.2,2.5,0.3,7.2,2.8,9.3c3.8,3.2,6.3,4.3,7.4,3.4c1.1-0.8,3.5-0.5,4.7,0.6
		c1.8,1.7,1.8,1.8-0.2,1.7c-1.5-0.1-1.9,0-3.4,0.7c-0.9,0.5-1.8,0.8-1.9,0.8c-0.8,0-4.4-2.6-6.4-4.6c-1.3-1.3-2.4-2.3-2.5-2.3
		c-0.7,0-1.7,4.1-1.5,6.1c0.3,3.2,5.5,6.7,9.9,6.7c2.2,0,5.1,0.7,6.9,1.6c2.1,1.1,2.6,0.8,6.5-2.9l2.5-2.4l0.1-3.7
		c0.1-4.5,0.2-4.4-3.2-7.7c-3.3-3.3-5.3-4.3-8.2-4.3c-3.7,0-7.4-0.8-10.5-2.3l-2.8-1.3L187.7,210.1 M102.3,210.6
		c0.5,1,0.4,1.2-0.4,1.2c-0.6,0-0.7-0.1-0.5-0.6c0.1-0.3,0.2-0.8,0.2-0.9C101.5,209.7,102,209.9,102.3,210.6 M328.4,211.4l-1,1.3
		l1.3,1.2c1.7,1.6,3.8,2.4,6.2,2.4h1.8l0.1-1l0.1-1l-1.4-0.3c-1.7-0.4-4.3-1.8-4.3-2.4c0-0.4,2.4-0.4,3.6,0.1
		c0.4,0.1,0.5,0.1,0.3-0.1c-0.4-0.6-1.9-1.2-3.7-1.3l-1.9-0.1L328.4,211.4 M312.9,211.5c-4.6,1.5-7.8,3.5-10.2,6.3l-1.3,1.5l1.3-1.2
		c3.3-2.8,11.8-6,15-5.5c1.5,0.2,1.1,0.6-0.8,0.7c-7.3,0.6-14.4,5.6-16.3,11.5c-0.7,2.3,0.3,1.6,2.7-1.7c3.4-4.8,9.5-7.6,13.7-6.1
		c2,0.7,1.9,0.7,2.5-0.3c0.8-1.2,0.7-1.5-0.4-1.7c-1.6-0.3-1.6-0.5,0.1-0.6l1.6-0.1l0.5-1.6c0.6-2,0.5-2.1-2.7-2.2
		C316.3,210.5,315.8,210.6,312.9,211.5 M271,212c-0.7,0.3-1.7,0.7-2.1,1c-1.4,1-3,1.7-3.9,1.7c-0.7,0-0.8,0.1-0.7,0.5
		c0.3,0.7,0.9,4.6,0.9,5.4c0,0.6,0.1,0.7,0.9,0.9c0.5,0.1,1.7,0.5,2.6,0.9c3.9,1.6,11.2-0.2,11.2-2.7c0-0.8-0.5-0.9-1.7-0.1
		c-1.4,0.8-2.3,1-4.2,0.8l-1.7-0.2l1.3-0.6c0.7-0.3,2-1.2,2.9-1.9c0.9-0.7,1.9-1.4,2.3-1.6c0.6-0.3,0.6-0.6,0-2.7
		C278.3,211.7,274.2,210.9,271,212 M256.5,214.3c0,0.1,0.2,0.8,0.4,1.6c0.2,0.8,0.6,2.3,0.7,3.4c0.4,2.4,1.4,3,1.3,0.7
		C258.8,218.1,256.5,212.6,256.5,214.3 M326.9,216.7c-1.6,4.1-3.1,7.7-3.5,8.3c-0.5,0.9-4,9.5-4.5,11.1c-1,3.5-0.4,2.8,1.5-1.6
		c0.7-1.7,2.7-5.8,4.3-9.3c4.2-8.6,4-8.2,2.9-8.8C327.2,216.1,327.1,216.1,326.9,216.7 M332.1,219c0.3,0.4-0.6,1.2-1.6,1.3
		c-1.3,0.2-1.4,0.6-0.2,1c1.5,0.4,0.9,1.7-1.1,2.2c-1.2,0.3-0.5,1.2,0.8,1.2c0.7,0,0.7,0.4-0.2,1.1c-0.5,0.4-0.9,0.5-1.6,0.4
		c-0.6-0.1-0.9,0-1.1,0.2c-0.3,0.4,0.5,1,1.5,1.2c0.4,0.1,0.7,0.2,0.7,0.3c0,0.6-0.6,1-1.7,1.1c-1.6,0.2-1.6,0.5-0.3,1.2
		c1.1,0.5,1.1,0.6,0.8,1.4l-0.3,0.9l-1.6-0.1c-0.9-0.1-1.6,0-1.6,0.1c0,0.4,1.1,1.3,1.9,1.6c1.6,0.6,0.6,2.1-1.4,2.1
		c-2,0-2,1.1,0.1,1.6c0.7,0.2,1,0.4,1,0.8c0,0.9-2.3,1.1-3.9,0.4c-0.6-0.3-1-0.3-1.1-0.1c-0.3,0.5,0.9,1.3,2.5,1.8l1.6,0.4l-0.4,0.8
		c-0.4,1-1.7,1.4-3.4,0.9c-1.3-0.3-1.4-0.3-1.1,0.5c0.2,0.7,1.6,1.3,2.8,1.3c1.1,0,1.2,1.4,0.2,1.7c-1.1,0.3-3,0.2-3.7-0.2
		c-0.9-0.5-1.1-0.5-1.1,0.1c0,0.8,1.2,1.6,2.8,1.8c1.5,0.2,1.9,0.7,1.1,1.4c-0.5,0.4-2.6,0.6-3.3,0.3c-0.8-0.3-1,0.1-0.7,0.8
		c0.8,1.6,5.9,1.5,7.4,0c0.7-0.7,1.7-4.1,2.6-8.6c1.3-6.6,2.6-12.1,4.9-19.8c0.4-1.2,0.6-2.3,0.4-2.4
		C334.1,219.3,331.9,218.8,332.1,219 M85.9,220.6c-1.4,1.1-0.2,5.4,2.4,8.6c1,1.2,1.1,0.6,0.2-0.8c-1.1-1.7-1.7-3.6-1.8-5.6
		l-0.1-1.6l0.5,1.6c0.6,2.1,1.5,3.6,3.2,5.4c1.8,1.9,2,1.6,0.3-0.5c-1.9-2.3-2.3-3.1-1.8-3.6c0.2-0.2,0.5-0.6,0.6-0.9
		c0.1-0.3,0.3-0.5,0.4-0.5c0.3,0,0.3,0.1,0,1.5c-0.3,1.4-0.1,1.6,0.6,0.6c0.7-1.1,0.8-0.9,0.5,0.6c-0.4,1.7-0.2,2.1,0.5,0.9
		c0.7-1.2,1.3-1,0.7,0.3c-0.7,1.4-0.6,1.9,0.3,1c0.6-0.5,0.8-0.6,0.9-0.4c0.1,0.2,0.1,0,0-0.4c-0.3-1.6-3.7-5.9-5.1-6.5
		C87.1,219.9,86.8,220,85.9,220.6 M88.7,222.7c0,0.6-0.1,1.1-0.3,1.2c-0.3,0.2-0.7-1.6-0.4-2C88.4,221.4,88.7,221.7,88.7,222.7
		 M156.5,221.9c-2.9,0.2-3.9,0.5-5.5,1.4c-0.9,0.6-1,0.7-0.5,0.7c0.9,0,0.7,0.4-0.7,1.2c-2.3,1.3-4.3,3.5-4.3,4.6v1l1.1-1.3
		c3.9-4.4,22-2.2,27.4,3.3c1.3,1.3,1.4,1.1,0.3-0.6c-2-3-6.8-5.8-11.4-6.6c-2.4-0.4-2.7-0.8-0.6-0.8c2,0,2.2-0.3,0.6-0.9
		c-2.4-0.8-2.4-0.9-1.1-0.9c0.7,0,2.3,0.3,3.7,0.8c2.9,1,3.2,0.9,1.2-0.3c-1.4-0.8-5.8-1.9-7.2-1.8
		C159.2,221.7,157.9,221.8,156.5,221.9 M229.2,222.5c-0.6,2.1,0.1,6.5,1.3,9.1c0.7,1.4,3.4,4.7,3.9,4.7c0.1,0-0.1-0.4-0.5-0.9
		c-2.4-2.7-4-8-3.5-11.5c0.2-1.1,0.1-1.7-0.1-1.8C229.7,221.8,229.3,221.9,229.2,222.5 M231.4,225c0,7.8,6.4,14.3,12.8,13l1.2-0.2
		l-2.4-0.3c-6-0.9-10.6-6.8-9.9-12.8c0.2-1.6,0-1.8-1.2-1.8C231.4,222.7,231.4,222.9,231.4,225 M255.8,223.7c-0.2,0.5,0.3,1.4,1,1.6
		c0.8,0.3,0.5,0.8-0.5,0.7c-1.6-0.2-2.2,2.2-0.9,3.5c0.9,0.9,0.7,1.1-0.6,0.8c-1.7-0.5-2.1-0.3-3.9,1.1c-0.9,0.8-2.2,1.7-2.8,2.1
		c-2.6,1.6-2.7,2.1-0.8,2.9c0.8,0.3,1.8,1.1,2.4,1.7c9,9.6,12.5,12.7,17.9,15.8c1.1,0.6,3.3,1.9,5,2.9c9,5.3,19.2,9.3,25.1,9.8
		l2,0.2l-0.9-1.3c-0.8-1.2-1.1-1.3-2.5-1.6c-4.6-1-5.7-1.3-7.9-2.4c-4.8-2.3-5.1-2.9-0.8-1.6c2.9,0.9,5.6,1.4,7.4,1.5l0.9,0
		l-0.9-1.1c-0.8-1-1-1.2-2.5-1.5c-3.1-0.6-9.5-3.4-13.2-5.8c-1.9-1.2-1.7-1.2,1.1,0.1c3.6,1.7,7.1,2.7,9.3,2.7c2.2,0,2.2,0,1.1-1.3
		c-0.4-0.5-1.1-1.5-1.5-2.1c-0.4-0.6-0.9-1.1-1.2-1.1c-2.6,0-12.2-7.2-17.5-13c-1.8-2-3.5-3.9-3.9-4.2c-0.4-0.3-0.6-0.7-0.5-0.9
		c0.2-0.5,2.2,0.9,5.6,4.1c5.8,5.4,8.9,7.5,11.9,8l1,0.2l-0.6-1.1c-0.8-1.4-3.2-3.7-6-5.8c-1.1-0.8-4.4-3.8-7.1-6.5
		c-2.8-2.7-5.7-5.3-6.4-5.8C261.8,224.7,256,222.9,255.8,223.7 M110.5,226.3c-3.4,1.7-6.7,5.5-6.9,7.8l-0.1,1l1.3,0
		c2.2-0.1,5.3-1.8,8.5-4.9c1.4-1.4,1.8-1.6,1.8-1.2c0,1.9-7,7.5-9.4,7.5c-0.3,0-0.5,0.1-0.6,0.3c-0.5,0.8,3.1,0,4.6-1
		c4.5-3.1,6.7-6,5.9-7.8C114.7,225.7,112.9,225.1,110.5,226.3 M113.5,227.7c0,0.5-1.1,1.9-1.9,2.5c-0.4,0.3-0.4,0.1,0.3-1.3
		C112.7,227.4,113.5,226.7,113.5,227.7 M311.7,227.8c-1.8,0.6-2.6,1-3.4,1.7c-0.3,0.3-1.7,1.2-3.1,1.9c-2.4,1.3-2.6,1.4-3.6,3.2
		c-1,1.8-1.4,3.6-0.8,3.6c0.5,0-0.9,1.6-1.8,2c-1.8,0.8-2.2,0.8-1.3,0c1.3-1.1,0.6-1-2,0.3c-2.9,1.5-3.1,1.9-1.6,2.9
		c3.7,2.4,8.9-0.3,10.6-5.5c0.7-2.3,1.3-2.4,0.9-0.2c-0.3,1.5-0.3,1.5,0.8,0.9c2.8-1.4,4-2.8,4.4-5.1c0.4-2,1.3-0.9,1,1.2
		c-0.1,0.9-0.1,1.1,0.3,1.1c0.6,0,1.3-1.7,1.3-3.3c0-2.2,0.9-1.8,1.4,0.6l0.2,1l0.7-1.5c1-2.2,1.1-4.6,0.2-4.8
		C314.2,227.3,313.1,227.3,311.7,227.8 M110.9,227.9c0,0.8-1,3.6-1.5,3.9c-0.9,0.8-0.9,0.5,0-1.4c0.5-1.1,0.9-2.1,0.9-2.3
		c0-0.2,0.1-0.3,0.3-0.3C110.7,227.8,110.9,227.9,110.9,227.9 M108.2,231.1c-0.2,1.2-0.4,1.8-0.8,2.1c-0.7,0.6-0.9,0.4-0.4-0.5
		c0.2-0.4,0.5-1.2,0.6-1.8c0.2-0.8,0.5-1.4,0.8-1.5C108.4,229.4,108.3,230.1,108.2,231.1 M153.4,230.2c-0.7,0.1-1.7,0.3-2.1,0.5
		c-0.4,0.2-1.7,0.6-2.8,0.8c-3.8,1-5.9,2.6-6.9,5.4c-0.8,2.1-0.6,2.3,0.5,0.7c1.2-1.8,2.9-2.7,5.8-2.9c1.2-0.1,2.8-0.3,3.7-0.6
		c4.3-1.2,15.1-0.2,20.3,2c1.5,0.6-0.4-0.8-2.2-1.6c-3.4-1.6-7.6-2.3-14.6-2.3l-2.9,0l1.8-0.6c1-0.3,2.5-0.8,3.3-1
		C159.7,230.1,156.6,229.7,153.4,230.2 M106,232.8c-0.2,0.9-0.4,1.4-0.7,1.4c-0.5,0-0.3-1.4,0.4-2.3
		C106.3,231,106.3,231.2,106,232.8 M187.4,231.8c-1,1.8,4.1,6.6,7.8,7.3l1.7,0.3l-1.1,0.2c-1.8,0.3-4.2-0.3-6.2-1.6
		c-1.8-1.2-2.3-1.2-2.1,0.1c0.1,0.3,0.2,1,0.3,1.7c0.3,2,1.5,2.5,7.8,3.6c4.1,0.7,6.5,0.9,7,0.3c0.3-0.4,0.9-6.4,0.7-6.6
		c-0.2-0.2-6.4-2.1-6.9-2.1c-1,0-5-1.6-6.6-2.6C187.6,231.1,187.8,231.1,187.4,231.8 M334.2,232.6c-0.3,0.8-0.9,4.1-0.8,4.3
		c0.3,0.5,1.5,0.5,2,0.1c0.5-0.5,1.2-0.3,1,0.3c-0.3,0.7,0.6,1,1.5,0.6c1-0.5,1.6-0.2,1,0.5c-0.5,0.6,2.3,1.9,3.9,1.7
		c1.5-0.2,1.7,0.3,0.8,1.4c-1.7,2,0.2,6.6,3.1,7.5l1.1,0.3l-0.6,0.6c-1.1,1-1.1,1.4,0.4,3.3c1.3,1.7,5,3.1,5.9,2.2l0.5-0.5l-0.7-1.2
		c-1.9-3.3-4.6-4.3-2.7-1.1c0.8,1.5,0.8,1.5,0.2,1.2c-0.5-0.3-1.9-2.7-1.9-3.2c0-0.2,0.3-0.6,0.7-1l0.7-0.7l-1.1-3.2
		c-2.3-6.5-5-9.9-9.7-12.1C337.4,232.5,334.4,232.1,334.2,232.6 M208,235.1c-2.1,2.2-2.3,2.6-2.6,6.4c-0.3,2.7,2,8,2.7,6.3
		c0.5-1.3,3.3-13.4,3.3-14.3C211.4,232.5,210,233.1,208,235.1 M151,237c-1.3,0.5-3.1,1.4-4,2c-1.9,1.3-2.3,1.1-0.9-0.3l1-1.1h-0.8
		c-2.2,0-6.2,6.4-5.6,9.1l0.2,0.8l0.8-0.8c0.5-0.4,1.1-1.4,1.3-2.2c0.8-2.4,5.7-6.3,8.6-7c0.9-0.2,2.8-1.1,2.8-1.3
		C154.6,235.9,153.2,236.2,151,237 M159.1,236.6c-1.8,0.4-10.7,4.4-11.1,5.1c-0.5,0.8,4.2,0.1,7.6-1.2c9.3-3.5,13.7-2.5,18.4,3.9
		c1.8,2.5,2.1,2.1,0.5-0.9C171.5,237.6,166.3,235.2,159.1,236.6 M282.2,238c2.7,2.4,4.4,4.4,5.7,6.9c3,5.5,8.4,12.9,12.1,16.8
		c6.3,6.5,15.1,14.2,13.9,12.3c-1.2-2.1-2.9-4-6.2-7c-5.5-5.1-8.2-8.4-13-15.4c-7.2-10.6-8-11.7-11.3-13.4
		C280.8,236.6,280.6,236.6,282.2,238 M251.1,243c1,1.6,5.1,5.8,7.2,7.5c1.1,0.9,3.1,2.5,4.4,3.7c1.3,1.2,3.1,2.5,3.9,3
		c0.9,0.5,2.5,1.4,3.6,2.1c1.8,1.1,5.3,3,9.9,5.3c1.6,0.8,10.7,3.9,14.7,4.9c2.7,0.7,7.5,1.2,7.5,0.8c0-0.6-1-1.1-2.3-1.1
		c-4.7,0-24.2-7.1-27.6-10c-0.2-0.2-1.7-1.1-3.3-2c-1.6-0.9-3.3-1.9-3.6-2.2c-0.4-0.3-1.9-1.5-3.3-2.7c-1.4-1.2-3.5-2.8-4.5-3.5
		c-1-0.8-2.8-2.4-4-3.6C251,242.3,250.2,241.7,251.1,243 M156,243.6c-1,0.4-12.4,11.8-12.2,12.3c0.1,0.3,0.6-0.1,1.6-1
		c0.8-0.7,2.2-1.9,3-2.6c6.2-5,9.4-8.1,8.7-8.8C156.9,243.2,156.8,243.2,156,243.6 M161.7,244c-1.6,0.6-2.2,1-4.2,3
		c-1.3,1.3-2.5,2.4-2.6,2.4c-0.1,0-1.2,0.8-2.3,1.7c-1.1,0.9-3.3,2.6-4.7,3.7c-8.5,6.4-11.8,11-6,8.3c2.7-1.2,4.3-1.8,7.9-2.8
		c3.6-1,4.5-1.3,7.1-2.9c1.1-0.7,2.7-1.7,3.6-2.2C169.6,249.8,170.7,240.6,161.7,244 M150.6,244.1c-3.6,0.9-6.6,3.4-9.6,7.6
		c-0.8,1.2-2.5,3.1-3.7,4.3c-2.1,2.1-2.6,2.8-1.8,2.8c0.2,0,0.5,0.4,0.7,0.8c0.4,0.9,1,1.2,1.3,0.7c0.4-0.6,5.2-5.8,10.7-11.4
		c3.4-3.5,5-5.3,4.7-5.2C152.6,243.6,151.5,243.8,150.6,244.1 M335.7,246.9c-0.6,0.2-1.4,1.9-1.7,3.3c-0.4,1.9,0,2.2,0.7,0.6
		c0.8-1.8,1.4-2,0.9-0.3c-0.5,1.6-0.5,5.8-0.1,6.3c0.4,0.4,0.5,0.3,1.2-0.8c0.8-1.3,1.8-1.7,1.5-0.6c-0.1,0.3-0.2,0.8-0.3,1.1
		c-0.1,0.2-0.6,1.1-1.2,1.9c-3.5,4.4-4.8,12.8-2,12.8c0.5,0,2-3.3,1.6-3.7c-0.2-0.3-1.5,0.6-1.6,1c-0.2,0.8-0.6,0.6-0.5-0.2
		c0.3-1.3,1-2.1,2.1-2.3c2-0.4,2.4-1,4.6-6.4l1.3-3.1l-0.9-3.1c-0.7-2.6-1-3.2-1.7-3.8C336.3,246.5,336.5,246.6,335.7,246.9
		 M185.9,247.5c-0.2,0.1-0.8,1.4-1.4,3c-1.6,4.1-3.8,7-9,12.1c-5.7,5.6-7.4,7.9-8,10.5c-0.1,0.5-0.5,1.8-0.8,2.9
		c-0.8,2.5-0.7,2.6,0.8,0.3c0.7-1,2.7-3.3,4.4-5c2.2-2.1,3.4-3.6,4-4.7c0.8-1.5,1.3-2,1.3-1.2c0,1.5-3,8.3-4.2,9.6
		c-0.7,0.7-0.2,0.9,1,0.4c2.6-1.2,5.5-6.7,6.5-12.5c0.2-1,1.6-4.4,4.5-10.9C186.3,249.2,186.7,247,185.9,247.5 M191.1,248.7
		c-1.6,2.4-3.2,5.4-3.7,7c-0.3,1-0.9,3-1.3,4.3c-0.7,2.3-1.5,6.5-1.2,6.7c0.2,0.2,3.5-3.3,4.8-5c0.9-1.2,3.9-6.3,6.9-11.5
		c0.8-1.4,0.5-1.8-1.2-1.8c-0.8,0-2-0.1-2.6-0.1C191.7,248.1,191.5,248.1,191.1,248.7 M226.9,250.4c-4.3,1.9-5,2.9-1.1,1.5
		c1-0.4,2.3-0.7,2.8-0.7c1.3,0,3.6-1,3.1-1.3C230.9,249.4,228.6,249.7,226.9,250.4 M201.1,251.2c-3.4,9.6-10,17.4-19.3,22.8
		c-3.7,2.2-4.9,2.7-10.7,5c-4.8,1.9-6.5,3.4-9.9,8.4c-0.9,1.3-2.1,3.1-2.8,4c-0.6,0.9-1.7,2.5-2.5,3.7c-1.3,2.2-3.3,4.5-4,4.8
		c-0.2,0.1-0.3,0.2-0.2,0.3c1,1.1,7.2-5.4,10.4-10.9c1.8-3.2,1.6-1.8-0.3,2.2c-2.1,4.4-1.7,4.7,1,0.6c2.1-3.2,2.9-3.9,6.8-6
		c2-1.1,3.7-2.2,5.1-3.5c1.2-1.1,2.3-1.9,2.4-1.9s0.7-0.4,1.2-0.8c1.4-1.2,1.6-0.9,0.3,0.6c-0.6,0.8-2.1,2.8-3.3,4.5
		c-1.5,2.1-2.9,3.7-4.3,4.9c-2.4,2-2.3,2-1.7,2c1.6,0,7.6-5.4,11-9.9c1.9-2.6,3.9-4.3,8.2-7.2c9.1-6.1,13.7-12.1,15.5-20.2
		c0.4-1.6,0.2-2.3-1.2-3.8C201.9,249.7,201.6,249.7,201.1,251.2 M233.7,251.7c-0.7,0.2-2.7,1-4.3,1.8c-1.8,0.9-3.4,1.4-4.2,1.5
		c-1.4,0.1-1.5,0.6-0.3,0.9c1,0.3,3,0,5.1-0.6c1.8-0.5,6.3-1.2,7.3-1l0.7,0.1l-0.7,0.5c-1.2,0.8-6.8,2.8-7.9,2.9l-1,0l0.9,0.2
		c2.7,0.6,4.9,0.6,6.6-0.1c8.7-3.5,16.1-2.9,23,1.9c3,2.1,2,0.7-1.9-2.6c-5-4.2-9.2-5.5-14.1-4.4c-1.7,0.4-1.7,0.4-2.2-0.2
		c-0.3-0.4-0.9-0.7-1.5-0.8C236.6,251.3,234.9,251.3,233.7,251.7 M110.3,252.8c-1.6,0.5-2.6,0.7-5.5,0.7l-3.5,0.1l-0.1,1
		c-0.1,1.3,0.9,3.1,2.1,3.9c1.2,0.7,1.3,0.5,0.2-0.6c-1.5-1.7-1-2.8,0.6-1.6c1.7,1.3,6.6,1.7,9.4,0.8l1.3-0.4l0.9,1
		c0.9,1.1,1.3,1.9,1.5,3.9c0.5,3.4,3.9,5.3,7.6,4.3c0.8-0.2,1.9-0.5,2.3-0.6c0.5-0.1,0.9-0.3,1-0.4c0.6-1-2.5-4.8-5.2-6.3
		c-2.1-1.2-2-1.4,0.3-0.6c2.2,0.8,3.6,1.6,5.5,3.5c3.6,3.5,3.9,3.6,2.6,0.9c-1.1-2.3-2.2-3.8-3.2-4c-0.4-0.1-2.2-0.9-3.9-1.7
		s-3.5-1.6-3.9-1.7c-0.4-0.1-1.6-0.8-2.7-1.5C115.6,251.8,113.8,251.6,110.3,252.8 M329.8,255.2c-1,0.9-1.5,3.4-0.7,3.9
		c0.7,0.4,0.5,0.8-0.3,0.6c-2.1-0.5-5.1,2.9-5.1,5.7c0,2.2,0.8,2.9,1.7,1.4c0.9-1.3,3.1-3.8,4-4.3c1.7-1,3.6-6.2,2.8-7.4
		C331.8,254.4,330.7,254.4,329.8,255.2 M325.7,257.4c-0.6,0.6-1.2,1.1-1.5,1.1c-1.4,0-4,2.6-4,3.9c0,1.6,1.3,0.9,2.6-1.2
		c0.3-0.5,1.1-1.3,1.9-1.9c0.9-0.6,1.6-1.3,1.8-1.9C327,256.2,326.9,256.2,325.7,257.4 M241.9,257.5c-0.9,0.2-1.9,0.5-2.2,0.6
		c-0.3,0.2-1.2,0.5-2,0.7c-1.6,0.4-1.8,0.9-0.7,1.4c0.6,0.2,1.3,0.1,3.1-0.3c2.9-0.8,4.1-0.7,6.8,0.1c2.4,0.7,3.6,1.3,2.1,1.1
		c-0.5-0.1-1.7,0-2.8,0.1c-1,0.1-2.8,0.3-4,0.3c-2.3,0-2.4,0.2-1.1,1.2c0.6,0.5,1.2,0.5,4.1,0.6c4.3,0.1,5.1,0.3,9.5,2.5
		c4,2,5.2,2.3,8.4,1.8c2-0.3,2.1-0.6,0.3-0.9c-2.7-0.5-4.6-1.6-7.7-4.5C251,257.6,247.2,256.4,241.9,257.5 M168.3,259.4
		c-2.6,1.7-11,6.5-15.6,8.8c-2.7,1.4-3.8,2.2-4.5,3.6c-0.8,1.7-4.4,6.2-5.2,6.7c-0.4,0.2-2.1,0.6-3.8,0.9c-2.6,0.4-4.3,0.8-4,1.1
		c0.2,0.2,7.7-0.4,8.7-0.7c0.9-0.2,1.7-0.9,4.3-3.7c2-2.1,3.8-3.8,4.7-4.3c7.1-4.2,11.4-7.3,15.4-11.3c1.6-1.6,2.9-2.9,2.8-2.9
		C171,257.7,169.8,258.5,168.3,259.4 M132.8,259.8c0.4,0.5,0.9,1.4,1.2,2c0.7,1.3,0.8,1.4,0.8,0.3c0-0.8-1.2-2.4-2.2-3
		C132.2,259,132.2,259.1,132.8,259.8 M81.8,259.5c-2.7,0.8-2.8,1.3-0.9,2.5c0.8,0.5,2.8,2.2,4.3,3.7c2.4,2.4,3.7,3.5,4.5,3.5
		c0.1,0-0.2-0.4-0.6-0.9c-0.4-0.5-1.3-1.5-1.9-2.3c-0.6-0.8-1.5-1.9-2.1-2.5c-1.3-1.4-0.9-1.9,0.6-0.7c0.4,0.3,0.8,0.5,1,0.5
		c0.2,0,0.5,0.3,0.7,0.6c0.7,0.9,0.8,0.3,0.3-1.2C87,260.1,84.4,258.7,81.8,259.5 M89.5,259.6c-0.9,0.5-0.8,1.5,0.4,3.4
		c0.5,0.8,0.9,1.6,0.9,1.8c0,0.5,0.4,0.4,0.9-0.1c0.3-0.3,0.4-0.7,0.3-1.7c-0.2-1.6,0.2-1.7,0.7-0.3c0.4,1.3,0.4,3.2-0.1,4.4
		c-0.6,1.3,0,3.7,1.2,5.4c0.5,0.6,0.7,0.9,0.6,0.6c-0.5-1.4-0.7-3.6-0.8-7.7c-0.1-4.6-0.2-5.1-1.4-5.5
		C91.1,259.3,90.2,259.3,89.5,259.6 M113.4,261.3c3,2.6,1.8,4.4-3,4.7c-1.8,0.1-3.5,0.3-4,0.4l-0.8,0.2l1,0c1.3,0,4.8,0.7,6.4,1.3
		c1,0.3,1.4,0.4,1.6,0.1c0.2-0.2,0.5-0.3,0.7-0.3s0.8-0.3,1.2-0.8l0.9-0.8l-0.5-0.7c-0.3-0.4-0.6-1.3-0.7-2c-0.3-1.9-1.4-3-3-2.9
		C112.6,260.6,112.6,260.7,113.4,261.3 M266.7,260.9c-0.5,0.9,3.9,10.1,7,14.4c3.9,5.6,12.8,13.2,19.4,16.8c1.2,0.6,3.6,2.1,5.5,3.3
		c1.8,1.2,4.6,2.9,6.1,3.7c1.5,0.8,2.9,1.6,3.1,1.8c0.1,0.1,1.8,1,3.7,2.1c13.3,7.1,15,8.9,16.1,17.1c1.6,11.5,3.4,14.1,13.8,20.5
		c2.1,1.3,5.4,2.6,9.5,3.8c10,3,13.6,5.4,17.1,11.4c1.1,1.8,2.1,3.2,2.4,3.2c0.1,0-0.3-0.9-0.8-1.9c-0.5-1.1-0.9-2.1-0.9-2.2
		c0-3.2-6.9-9.1-13.4-11.4c-1.2-0.4-2.3-0.9-2.6-1.1c-0.2-0.2-1.8-0.9-3.5-1.4c-6.1-2.1-8.3-3.2-11.1-5.5
		c-5.8-4.7-7.7-10.6-7.7-24.4c0-3.8-0.1-6.7-0.3-7.4c-0.8-3-7.8-9.7-12.7-12.3c-6-3.1-12.4-9.2-12.4-11.8c0-0.4-0.9-1.6-1.2-1.6
		c-0.4,0-0.1,2.1,0.5,3.7c1.8,5.2,7.2,10,13.2,11.9c3.7,1.1,8.2,6.4,9.2,10.8c0.6,2.4,0.5,2.4-0.6,0.9c-2.2-2.9-3.7-4.4-6-6
		c-1.3-0.9-3.5-2.5-4.9-3.5c-2.7-1.9-6.2-3.9-12.4-7c-3.7-1.8-11.4-6.6-11.9-7.4c-0.1-0.1-1.2-1-2.5-2c-2.1-1.6-4.7-4-6.5-6.2
		c-1.3-1.6-1.4-0.8-0.1,0.8c4.7,6.1,12.5,12.2,22.2,17.4c2.9,1.6,6.5,4,9.3,6.4c2.9,2.4,2.9,2.5,0.8,1.1c-1-0.7-3.3-2-5.1-2.9
		s-4.6-2.4-6.3-3.3c-1.7-0.9-4.9-2.6-7.2-3.7c-3.8-1.9-6.8-3.7-10.6-6.2c-4.3-2.8-11.1-10.6-13.7-15.5
		C268.8,262.2,267.2,260.1,266.7,260.9 M97,262.5c-0.4,0.3-0.6,5.3-0.2,5.3c0.3,0,0.7-0.4,1.1-1.2c0.5-1,1-1.1,1.3-0.3
		c0.5,1.4-0.7,3.7-2,3.8c-1.1,0.1-1.3,1.6-0.4,3.3c2.2,4.1,5.6,8.9,6.1,8.5c0.2-0.2-0.3-1-1.9-3.5c-2.5-3.9-3-5.4-2-6.3
		c0.1-0.1,0.5-0.6,0.8-1.1c0.8-1.1,0.9-1.1,1.5,0.9c0.3,0.8,0.5,1,1.7,1.5c0.7,0.3,1.9,1,2.6,1.6l1.2,1.1l-0.7-1.2
		c-0.4-0.6-1.1-1.6-1.6-2.2c-0.8-0.8-1-1.4-1.4-3.2C102,264.8,98.8,261.1,97,262.5 M222.4,263.9c-0.2,0.3-0.4,1.1-0.6,1.6
		c-0.2,0.7-0.8,1.4-1.7,2.1c-2.3,1.9-2.6,2.3-2.6,3c0,0.4-0.1,0.8-0.2,1.1c-0.5,1.3,8.8,3.1,9.4,1.8c0.7-1.6,2.8-7.9,2.8-8.2
		c0-0.2-0.4-0.4-1-0.5c-0.6-0.1-1.9-0.5-3-0.8C223.1,263.1,222.8,263.1,222.4,263.9 M233.1,264.3c-0.8,0.3-0.9,0.5-3.4,10.6
		c-0.7,2.7,0,3,10.6,4c2.3,0.2,3.7-0.6,2-1.2c-0.7-0.3-7.6-1.8-9.7-2.1c-0.6-0.1-1-0.2-1-0.2c0,0,0.3-1.4,0.8-3.1
		c0.4-1.7,0.9-3.6,1-4.3s0.3-1.3,0.4-1.3c0.1,0,0.9,0.2,1.8,0.4c1.7,0.4,7.6,1.2,8.8,1.2c1.7,0,0.8-1-1.5-1.6
		c-1.2-0.3-3.6-1-5.3-1.5c-1.7-0.5-3.2-1-3.5-1C233.8,264.2,233.4,264.2,233.1,264.3 M313.3,266.1c0,2.2,14.3,17.3,19.3,20.5
		c5.6,3.5,7.7,3.4,9.5-0.3l0.9-1.8l-0.8-1.7c-0.4-0.9-1-2.1-1.1-2.6c-1.1-2.9-1.8-3.8-2.4-3.1c-2,1.9-4.6,1.8-9.4-0.6
		c-1.9-0.9-3.6-1.8-3.7-1.8c-2.4-1.1,6.6,6.5,10.7,8.9c0.8,0.5,1.5,0.9,1.6,1c0.2,0.2-0.7,1.8-1,1.8c-0.4,0-4.7-2.3-5.5-2.9
		c-2.8-2.2-5.9-4.9-6.8-5.9c-0.6-0.7-2.1-2.2-3.5-3.4c-1.3-1.2-3.4-3.3-4.7-4.8C313.3,265.8,313.3,265.8,313.3,266.1 M107.1,269.4
		c-1.2,0.3-0.8,0.9,0.8,1.2c1.8,0.4,2.8,1.1,5.3,3.9c2.1,2.3,2.8,2.7,4.9,2.7c0.8,0,1.9,0.2,2.5,0.5c1.4,0.6,1.7,0.5,1.2-0.6
		c-0.4-0.8-0.4-0.8,0.4-1.5c0.5-0.4,1.4-1.2,2.1-1.8c2.4-2.1,4.6-2.5,2.3-0.4c-1.4,1.3-1.6,1.7-0.5,1c1.9-1.2,7.3-1.5,10.6-0.5
		c3.8,1.1,3.8-0.7,0-2c-6.5-2.3-13.3-1.5-16.9,1.9c-1.1,1.1-2.7,0.9-3.9-0.5C113.7,270.7,109.2,268.8,107.1,269.4 M236.6,269.7
		c-0.9,0.4-1.6,4.1-0.8,4.8c0.2,0.1,1.7,0.5,3.3,0.7c1.6,0.2,3.8,0.7,4.9,0.9c2.6,0.6,7.3,1.1,11.5,1.1c1.8,0,5,0.1,7.2,0.3
		c5,0.4,6.1,0.4,7.4,0l1-0.3l-2-3c-1.1-1.6-2-3-2-3c0,0-1.3,0.1-2.8,0.2c-1.9,0.2-3.5,0.2-5.3,0c-1.4-0.2-5.2-0.4-8.3-0.6
		c-3.2-0.2-7-0.5-8.5-0.7C238.2,269.4,237.2,269.4,236.6,269.7 M108.5,274c0.1,0.3,0.8,1.3,1.5,2.4c0.7,1.1,2,3.3,2.8,4.9
		c2,3.9,1.8,3.8,5.7,3.8l3.2,0l2.3-1.1c1.2-0.6,2.4-1.1,2.6-1.1c0.2,0,0.5-0.3,0.7-0.6c0.2-0.3,0.4-0.4,0.4-0.3
		c0,0.4,1.3,0.4,1.8,0.1c0.6-0.4-3.8-0.7-4.4-0.3c-1.9,1-6.2,1.6-8.6,1.2c-1.2-0.2-1.2-0.3-2.3-2.3
		C112.6,277.5,107.7,271.8,108.5,274 M212.5,277.5c-0.7,0.8,2.7,2.9,8.5,5c3.4,1.3,4.1,1.2,5.8-0.7c2.4-2.6-0.5-4.2-7.3-4
		c-1.5,0-3.1-0.1-4.2-0.3C213.1,277,212.9,277,212.5,277.5 M210.1,281.3c-2.6,0.7-3.6,1.5-3.9,3.5c-0.3,1.7-0.4,2-1,2
		c-0.4,0.1-0.6,0.3-0.7,0.7c-0.2,1.1,0.7,1.3,7.9,1.3l6.7,0l1.5-1.1c1.4-1.1,1.5-1.1,0.9-1.3c-2.2-0.9-4-1.8-5-2.7
		C214.1,281.7,211.8,280.8,210.1,281.3 M230,281.7c-7.2,9.6-21.6,24.6-28.2,29.4c-3.6,2.6-4.1,3.2-3,3.3c0.7,0.1,6.2-3.5,8.7-5.7
		c11.3-10,19.1-17.7,24.4-24.3l2.1-2.6l-1.5-0.3C230.5,281,230.5,281,230,281.7 M258.4,281.6c-2.2,0.4,3,3.8,5.8,3.8
		c0.6,0,1.9-0.3,3-0.7c1.1-0.4,2.9-0.8,4-0.8c2.2-0.2,2.4-0.3,1.6-1.1C272.2,282.2,260.4,281.2,258.4,281.6 M248.2,283.1
		c-0.6,0.7,0.2,10,1,10.8c0.7,0.8,13,0.3,14.9-0.6c1.8-0.8,0.4-1.1-5.4-0.9c-2.8,0.1-5.8,0.1-6.6,0l-1.5-0.2l-0.3-2.5
		c-0.2-1.3-0.4-3.3-0.5-4.3C249.7,282.9,249.1,282.1,248.2,283.1 M340.6,285.7c-1.3,2.4-2,2.3-1.1-0.2c0.4-1.1,0.8-1.5,1.6-1.5
		C341.5,284.1,341.4,284.3,340.6,285.7 M252.9,284.8c-0.9,0.2-1,0.5-0.6,2.6c0.4,2.7,0.8,3,3.2,3.1c6.7,0.2,8.7-0.4,5.6-1.8
		c-0.8-0.4-2.4-1.3-3.4-2.1C254.9,284.6,254.5,284.4,252.9,284.8 M236.3,285.8c-1.4,0.7-2.2,1.3-3.7,3.2c-1.7,2.1-1.4,2.3,6.1,2.6
		c3.1,0.1,6.1,0.3,6.8,0.3l1.2,0.1l-0.1-1.1c-0.4-5.8-0.4-5.9-2.2-5.5c-0.6,0.1-1.9,0.1-3,0C238.5,285,237.8,285.1,236.3,285.8
		 M188.2,292.3c-0.4,0.8,0.2,1.4,1.7,1.6c1.3,0.1,1.3,0.2,1.1,1.7c-0.1,0.8-0.3,1-1,1.2c-1.1,0.3-1.2,1-0.2,1.2
		c0.7,0.2,0.8,0.3,0.6,0.9c-0.2,1-0.3,1-1.3,1.2c-1.2,0.2-1.2,0.9-0.1,1.1c1.4,0.3,1,1.5-0.5,1.8c-1.4,0.3-1.5,1-0.1,1.2
		c1.5,0.1,1.1,1.2-0.6,1.3c-1.5,0.1-1.6,0.5-0.1,1.2c1.8,0.9,0.9,1.7-1.6,1.5c-0.8-0.1-0.8,0.6,0,1.2c0.3,0.2,0.9,0.4,1.2,0.4
		c0.4,0,0.6,0.1,0.4,0.4c-0.2,0.5-0.7,0.5-2.3,0c-2.1-0.8-1.9,0.3,0.2,1.3c2.7,1.2,3.6,0.4,4.5-3.9c0.8-4.2,1.4-8.4,1.6-11.9
		l0.2-2.9l-0.9-0.5C190,291.7,188.6,291.6,188.2,292.3 M153.8,292.5c-1.8,2.2-10.6,5.2-18.3,6.2c-5.1,0.7-11.4,2.9-14.4,5.3
		c-0.9,0.7-2.4,1.8-3.3,2.5c-5.2,3.7-4.4,3.9,2.5,0.6c5-2.4,7.3-3.1,13.9-4c2.2-0.3,4.4-0.8,4.9-1c0.5-0.2,2.3-0.7,4-1.2
		c4.4-1.1,9.8-4.9,11.3-8C154.9,292,154.5,291.7,153.8,292.5 M282,296.2c-0.5,0.2-2.3,1.3-4,2.4c-7.4,4.9-9.4,5.3-18.2,3.9
		c-0.7-0.1-0.8,0.5-0.1,1c0.3,0.2,2.3,0.7,4.5,1l3.8,0.6l-0.9,0.4c-1.1,0.5-9.7,0.6-10.1,0.1c-0.1-0.2-1-0.6-2-0.9s-2.7-1-3.8-1.5
		c-1.5-0.7-2-0.8-2.2-0.6c-0.1,0.2-0.9,1.2-1.6,2.3c-2,3.1-2.9,3.5-2,1.1c0.5-1.5,0.8-6.2,0.4-6.2c-0.3,0-1.8,2.1-2,2.9
		c-0.5,1.6-4.5,3.9-8.9,5.2c-1.8,0.5-4.1,1.2-5,1.5c-0.9,0.3-1.8,0.5-1.9,0.5s0.9-0.7,2.2-1.6c2.7-1.8,4.1-2.9,3.7-2.9
		c-0.4,0-2.8,1.2-3.9,1.9c-0.4,0.3-1.3,0.7-2,0.9c-0.7,0.2-2.3,0.7-3.7,1c-4.3,1.2-4.1,0.9,0.9-1.6c3.2-1.6,4.9-2.9,4.9-3.6
		c0-0.1-0.6,0.1-1.3,0.7c-0.7,0.5-2.1,1.2-3.2,1.6c-3.1,1.1-5.4,2.3-6.7,3.3c-0.7,0.6-1.8,1.1-2.7,1.4c-3.1,0.8-9.3,6-10.2,8.6
		c-0.6,1.7-0.6,1.7,2.1-0.7c4.5-3.9,9.3-5.9,17.3-7.2c1.2-0.2,1.7,0.5,0.7,0.8c-0.3,0.1-2,0.6-3.9,1.1c-1.9,0.5-4.4,1.4-5.6,2
		c-2.1,1-5.6,3.2-4.5,2.8c0.3-0.1,1.3-0.4,2.3-0.6c1-0.2,2.7-0.8,3.9-1.3c2.6-1.1,6.1-1.9,9.7-2.3c6.3-0.7,7.9-1.3,11.3-4.6
		c2.1-2.1,2.5-2.3,2.2-1.4c-1,3.1-6,6.4-11.3,7.4l-3.1,0.6l2.5,0c2.3,0,6.3-0.5,9.8-1.3c0.7-0.2,2.7-1.1,4.6-2.1
		c4.9-2.7,3.9-2.6,10-0.6c10.1,3.3,11.3,3.4,13.3,1.2c0.5-0.6,0.5-0.6-0.3-0.4c-1,0.3-5.6,0.3-5.9,0c-0.3-0.3,0-0.5,2.1-0.7
		c3-0.4,7.1-1.5,8.5-2.4c2.3-1.4,1.9-1.5-1.3-0.5c-6.2,2-14.4,1.9-18.3-0.3c-1.2-0.7-1.4-1.2-0.2-0.6c4,2.1,12.1,1.5,19.4-1.5
		c2.2-0.9,4.8-1.8,5.8-2.2c1.2-0.4,2.5-1.1,3.9-2.2c1.2-0.9,2.5-1.8,2.9-2c0.4-0.2,0.7-0.5,0.6-0.5c-0.3-0.3-4.9,1.2-7.6,2.6
		c-3.6,1.8-4.2,1.9-1.8,0.2c3.5-2.5,6.4-3.8,10.8-5c3.5-0.9,3.6-1.2,0.3-1.9C283.9,295.7,283.3,295.7,282,296.2 M234.9,305.4
		c-0.5,0.3,0.4,0.3,1.2,0c0.5-0.2,0.5-0.2-0.1-0.2C235.6,305.1,235.1,305.3,234.9,305.4 M141,308c-2.3,0.4-5.3,0.8-6.8,0.9
		c-4.6,0.5-11.7,1.6-13.3,2c-0.8,0.2-2,0.4-2.6,0.4c-1.1,0-13.3,1.8-13.6,2c-0.1,0.1-1.6,0.3-3.3,0.5c-12.8,1.7-18.2,4.7-26.2,14.6
		c-6.4,8-15,23.5-15,27.1c0,1.2,0.8,0,4-6.5c4.8-9.5,11.3-19.1,14.7-21.9c3.2-2.6,3.3-2.5,0.9,0.1c-1.3,1.5-2.9,3.3-3.5,4.1
		c-2.1,2.7-7.8,13.7-8,15.3c0,0.5-0.2,1.1-0.4,1.4c-0.4,0.7-0.4,1,0,0.8c0.1,0,1.2-1.6,2.3-3.4c7.3-11.7,14.3-19.2,21.2-22.8
		l2.7-1.4l-4.2,4.2c-3.3,3.3-4.6,4.8-6.3,7.4c-1.2,1.8-3.2,4.8-4.6,6.9c-3.3,4.9-3.8,6-5.2,11.1c-0.7,2.4-1.5,5.1-1.8,6
		c-1.3,3.9-0.5,8.9,2.6,15c2.6,5.2,2.9,4.9,1-1c-0.9-2.8-1.2-4.2-1.2-5.4c0-2.2,1-7.7,1.5-8c0.2-0.1,0.4-0.5,0.4-0.8
		c0-0.3,0.2-0.9,0.4-1.4s0.5-1.3,0.5-1.8c0.1-0.5,0.3-1,0.5-1.1c0.2-0.1,0.3-0.6,0.4-1.2c0.3-4.2,10.3-19.9,16.7-26.3
		c3.3-3.3,9.2-7.1,10.9-7.1c0.3,0,2.2-0.5,4.3-1.2c3.8-1.2,8.3-2.3,10.6-2.7c0.7-0.1,1.3-0.3,1.5-0.4c0.2-0.1,1.4-0.5,2.8-0.8
		c1.4-0.3,3.9-0.9,5.6-1.3c1.7-0.4,3.9-1,4.9-1.2c1-0.2,2.6-0.6,3.6-0.8c1-0.2,3.1-0.6,4.7-0.8c3.4-0.5,4.9-0.9,4.9-1.2
		C148.7,307.1,145.3,307.3,141,308 M177.3,310.5c0.6,1.8,17.6,10.1,20.7,10.1c0.8,0,1.9-0.7,1.9-1.2c0-0.4-4.4-4.7-5.4-5.3
		c-1.1-0.7-1.5-0.5-0.7,0.2c2.5,2.7-5.7,1.2-12.8-2.4c-1.8-0.9-3.4-1.7-3.6-1.7C177.3,310.2,177.3,310.3,177.3,310.5 M247.5,315.2
		c-0.7,0.3-2.7,1.3-4.5,2.2c-3,1.7-4.2,2.1-7.4,2.9c-1.8,0.4-7.7,0.5-10.3,0.2c-2.2-0.3-5.7,0.4-8.1,1.5c-0.8,0.4-2.2,0.9-3.2,1.2
		c-2.9,0.9-3.9,2.1-1.2,1.5c11.8-2.7,14.6-3,19.3-2c5.2,1,5.4,1,11.5-3c0.8-0.5,0.8-0.5,0.4,0c-1.2,1.7-5,4.3-6.8,4.7
		c-2.1,0.5-2.2,0.5-1.6,0.8c1,0.4,1.7,0.3,4.2-0.7c3.8-1.5,4.1-1.6,5.2-3c1.7-2.3,3.1-2.8,6.8-2.5c3.1,0.2,3.1,0.2,3.8-0.5
		c1.3-1.3,1-2-0.8-2c-0.9,0-2.2-0.3-3.6-0.8C248.9,314.6,249.2,314.6,247.5,315.2 M179.7,317.3c-0.2,0.2-0.3,0.8-0.4,1.3l-0.1,0.9
		l2.7,0c1.6,0,2.7-0.1,2.7-0.3C184.5,318.6,180,316.9,179.7,317.3 M332.7,318c0,3.1,2.4,9.8,4.6,12.7c1.1,1.5,3.3,3.1,6.1,4.6
		c2.8,1.4,3.9,1.6,2.1,0.4c-3.2-2.2-5.4-5.5-7.2-10.7c-1.4-4-2.7-5.8-4.8-7C332.9,317.7,332.7,317.7,332.7,318 M186.4,320.1
		c-0.2,0.2-0.3,0.5-0.3,0.6c0,0.2-0.8,0.4-2.1,0.5c-5.8,0.5-6.6,1.9-1.1,1.9h4l0.2-1.4C187.2,320.2,186.9,319.6,186.4,320.1
		 M184.6,326c-0.2,0.8-0.5,1.7-0.6,2.1c-0.1,0.4-0.3,0.7-0.3,0.7c-0.4,0-2.4-1.5-3.6-2.6c-1.5-1.4-2-1.3-0.8,0.2
		c1.9,2.4,5.3,4.5,6.1,3.7c0.2-0.2,0.9-4.5,0.8-4.8C185.6,324.4,185,324.6,184.6,326 M175.2,328.4c-0.7,0.9-2.8,8.9-2.8,11
		c0,2.8,0.3,2.8,1.2,0.3c0.7-1.9,1.8-3.7,2.7-4.3c1.3-0.8,2,2.7,1.2,5.5c-0.6,1.9-2.5,10.2-2.7,11.7c-0.4,2.9-2.1,10.3-2.6,12.1
		c-1.5,4.4-0.7,4.8,2.8,1.5c3.3-3.1,4.1-5.1,5.2-13c0.3-2.4,1.5-7.1,3.1-12.7c0.9-3,1.7-6.1,1.7-6.8l0.2-1.3l-0.9-0.3
		c-0.5-0.2-1-0.3-1.2-0.3c-0.1,0-0.8-0.2-1.6-0.6c-0.7-0.3-1.8-0.8-2.4-1.1c-0.6-0.3-1.5-0.8-2-1.3
		C175.9,328,175.6,327.9,175.2,328.4 M347.6,333.2c2.8,3.8,5.3,5.5,12.6,8.7c4,1.7,8.3,5.4,10.5,8.9c0.8,1.2,0.8,1.3,2.7,1.5
		c4.7,0.7,8.5,2.2,11.2,4.3c0.8,0.6,1.7,1,2.1,1c3.1,0-5.1-6.9-10.1-8.5c-2.1-0.7-7.3-3.6-7-3.9c0,0,1.2,0.5,2.6,1.2
		c1.6,0.8,3.4,1.5,4.7,1.7c4.7,1,5.7,1.3,8.2,2.5c1.5,0.7,3.4,1.8,4.3,2.5c2,1.5,2.1,1.4,0.7-0.6c-2.4-3.5-9.8-8.1-14.2-8.8
		c-3.6-0.6-7.6-2.6-12.5-6.4c-2.8-2.2-5.7-3.1-10.9-3.3c-1.7-0.1-2.6-0.3-3.4-0.7C347.8,332.8,347.2,332.7,347.6,333.2 M371.4,354.8
		c0,1.4,3.2,4.5,6.3,6c4.3,2.2,5.5,2.3,17.2,2.1c3.5-0.1,8.5,2.4,9.9,5c1,1.9,1.9,1.5,1.3-0.6c-1.2-4.4-9.3-8.9-14.3-8
		c-2.2,0.4-9.1,0.2-12.5-0.3c-4-0.6-5-1.1-6.6-2.9C372,355.3,371.4,354.7,371.4,354.8 M58.6,363.7c-0.2,0.5-0.4,2.6-0.6,5.1
		c-0.3,7.2-0.3,7.1-4.5,11.5c-3.7,3.8-10.3,11.1-10.9,11.8c-1.7,2.4,5.6-2.7,11.5-8c6.2-5.6,6.9-6.8,5.8-11.1c-0.2-1-0.6-3.7-0.8-6
		C59,363.2,58.9,362.9,58.6,363.7"/>
</g>
</svg>
