<svg xmlns="http://www.w3.org/2000/svg" viewBox="0 0 400 432.2"><path d="M233.7 39.3c-.3.3-.3.4-.1.4.2 0 .4-.1.4-.3.2-.6.1-.6-.3-.1m-121.5.1c-.1.2-.2 1.7-.4 3.3-.2 1.6-.4 3.3-.5 3.7-.7 3-.6 16.1.1 19.7.3 1.5.5 2.4.6 2.9.1.3.2 1 .3 1.6.1.5.2 1.3.3 1.7.3 1.7.5 2.9.8 4.2.2.8.5 2.6.8 4.2.6 3.3 1.1 5.2 1.7 6.5.3.5.7 1.4.9 2 .8 2 .8 1.5-.4-4.4-.3-1.6-.9-5.2-1.3-7.9l-.9-6.2c-.2-1.5-.2-1.9 0-1.9.1 0 .2.2.2.4s.2.8.4 1.2c.2.5.4 1.2.5 1.6.1.5.2.9.3.9.1.1.2.4.2.7s.2 1.5.5 2.6.7 3.1.9 4.5c.6 3.6.7 4 1.1 3.7.2-.2.2-.1.1.6-.2.7-.1.9.2 1.4.2.4.4 1.1.5 1.6.1.8.2.9.5.8.3-.1.4-.1.3.2-.5 1.1-.5 1.5-.1 3.3.4 2 .5 2 .9 1.7.2-.2.3-.1.1.5-.2.6-.1 1.1.1 2.3l.3 1.5.3-.5c.3-.5.3-.4.1.5-.2.8-.1 1.2.1 2 .2.5.3 1.2.3 1.5s.1.5.2.6c.1.1.2.3.2.5s.2 1.1.4 2c.2.9.5 2.8.6 4.4.2 3.5.5 4.5 1.8 5.9 1.1 1.1 3 2.2 4.1 2.2.4 0 .9.2 1.2.3s.8.4 1.2.6c.4.1.8.3.9.4.7.5 1.7.4 1.6-.2-.1-.7-.6-1.2-3.3-2.6-1.6-.9-3-1.9-3.3-2.5-.1-.2.1-.2.9.3.6.3 1.9.9 2.8 1.3 1 .4 2.3 1.1 2.9 1.4 2.2 1.3 2 .3-.3-2l-1.7-1.7 1 .5c.5.3 1.4.8 1.9 1.2 1.2 1 1.3 1 1.7.7.5-.4.3-.9-.4-1.4-.4-.3-.8-.6-.9-.8a74 74 0 0 0-1.6-1.4c-.8-.6-1.4-1.2-1.5-1.3-.1-.1 0-.1.1 0s.3.1.5.1.4.1.4.2.1.2.2.2.7.3 1.3.7c1.2.8 1.6.9 1 .1-.3-.5-.3-.6-.1-.8.4-.3.2-.6-1-1.6-1.3-1.1-1.2-1-2.2-1.5l-.9-.4h.7c.4 0 1.1.2 1.7.5.6.3 1 .4 1 .3 0-.3-1.2-2-1.8-2.4-1.1-.9-1.5-1.1-1.7-1.1-.2 0-1.3-.8-1.1-.8.1 0 .6.1 1.1.3.6.2 1.1.3 1.1.2.1-.1-1.4-1.9-2.1-2.3-1.6-1.1-1.9-1.9-.4-.9.8.5.7 0-.3-1.2-1.1-1.4-2-2.3-2.4-2.4-.2-.1-.4-.2-.4-.4-.1-.3.7-.1 1.2.3 1.3 1.1-.1-1.6-1.7-3.1-1.2-1.1-1.3-1.5-.4-1s-1-2.7-2.5-4.1c-.3-.3-.3-.4-.2-.5.2-.1 0-.5-.5-1.3-1.1-1.9-1.8-3.3-1.5-3 .5.4.5.1 0-1.2-.7-1.6-.6-1.7.1-.5.6 1 1.4 2.5 1.3 2.8 0 .1.1.2.2.2.1.1.4.5.6.9.2.4 1.1 1.8 1.9 3 .8 1.2 1.6 2.4 1.7 2.6.1.2 1.1 1.5 2.2 2.9 1.1 1.3 2.3 2.7 2.6 3.1.8.9-.6-1.3-1.8-2.9-.9-1.2-1.4-2-2-3.5-.5-1 0-.5 1 1.1.4.6 1.2 1.6 1.7 2.3.6.7 1.5 1.9 2 2.7 2 2.9 5.5 6.7 7.8 8.5 1.6 1.2 1.3.6-.9-1.5-1.1-1.1-2.2-2.3-2.5-2.6-.3-.3-.7-.8-.9-1.1-.4-.4 0-.1 2 1.8 1.7 1.6 4 3.5 4.2 3.5.2 0-.1-.5-.5-.9-.2-.2-1.3-1.5-3.1-3.5-.5-.6-1.1-1.4-1.2-1.6-.1-.3-.6-.9-1-1.4-1.3-1.4-2.6-3.2-5.4-7.2-.6-.9-1.3-1.9-1.5-2.1-2.8-3.7-3.5-4.8-5.6-9.1-1.2-2.5-2.3-4.6-2.4-4.8-.6-1.1-3.3-8.2-4.3-11.1-1.2-3.8-1.9-6.2-2.2-8.3-.1-.3-.2-1-.4-1.7-.3-1.1-.4-1.3-.6-2.2-.4-1.7-.9-3.8-1.1-4-.3-.3-.6-5.7-.5-7.2.3-1.5-.3-3.2-.7-1.9m46.9 2.5c-.1.2-.1.4 0 .5.1.1.1 1.6.2 3.4.1 4.4.4 6 1.2 8.3l.2.8s0 .4.1.7c.4 1.2.5-.7.2-3.7 0-.4-.1-2.7-.2-5.3l-.2-4.8c-.1-.3-1.4-.3-1.5.1m2.9.5c.1.4.2 1.9.2 3.4.1 1.5.1 3 .2 3.3 0 .3 0 .9.1 1.2v.6l.5-.3c.3-.2.4-.2.2 0-.5.4-.8 1.7-.5 2 .1.1.3.8.3 1.4.1 1.3.2 1.4.5 1.1.5-.5.5-.2 0 .7-.5.9-.5 1.1-.4 2.7.1.9.1 1.8.1 2 0 .2.1.2.4 0 .6-.3.6-.3.2.4-.2.4-.3 1.1-.3 2.2 0 1.4.2 2.1.4 1.6 0-.1.3-.4.5-.7.4-.4.4-.4.1.3-.5 1.2-.7 2.4-.5 2.8.1.2.1.7.1 1.2-.1.7-.1.8.1.6.2-.2.3.9.1 9.6 0 3 2.8 6.5 5.3 6.5.2 0 .5.2.7.4.2.2.5.5.8.6.2.1.8.4 1.3.7 1.1.6 1.4.6 1.4.1 0-.2-.1-.5-.2-.6-.2-.2-.2-.2.1-.1.6.2-1-1.2-3-2.5-1-.7-2.6-2.3-3-3.2l-.4-.7 1.1.9c1.1 1 2.6 2 2.8 2 .3 0 2.2 1.3 2.9 2 .9.8 1.1.9 1.1.2 0-.5-.7-1.6-2.1-3.1-1.9-2-.6-1.4 2.1 1 1.3 1.2 1.3 1.2 1.6.5.2-.5.2-.6-.8-1.6-.6-.6-1.4-1.5-1.8-2-.4-.5-1-1-1.3-1.2-.3-.2-.4-.4-.3-.5.2-.2 1.4.6 2.8 1.8 1.1 1 1.4 1 .9.3-.3-.4-.3-.6-.1-1 .3-.6-1.9-3.1-3.1-3.5-.5-.2-.5-.5.1-.5.5 0 1.6.6 2.3 1.1.6.5.6.2 0-.9-.7-1.3-2.2-2.9-3.5-3.6-.5-.3-.5-.3-.2-.3.2 0 .8.2 1.3.5s.9.5 1 .5c.4 0-.8-1.7-2.1-3-1-1-1.2-1.3-.9-1.3.2 0 .4.1.5.2s.4.3.7.5l.6.3-.4-.8c-.2-.4-.6-1.1-.8-1.4-.2-.3-.8-1.1-1.4-1.7-1.1-1.2-1.1-1.6 0-.7.8.7 1.2.7.8-.1-.1-.2-.4-.8-.7-1.5-.3-.6-1-1.6-1.5-2.1-1-1-1-1.2 0-.6.3.2.6.4.6.3 0-.9-1.2-3.3-2.3-4.6-1.1-1.4-1.1-1.4-.8-1.4.1 0 .3.2.3.4.1.4.6.7.8.5.1-.1-.4-1.2-1.2-2.7-.2-.4-.3-.7-.2-.7.1 0 0-.1-.1-.2s-.3-.6-.5-1.1c-.2-.5-.2-.7-.1-.5.1.2.4.6.6.8l.3.4-.1-.5c0-.3-.2-.7-.3-1-.1-.3-.2-.5-.1-.5 0 0 0-.3-.2-.7s-.2-.7-.1-.7c.2 0 .5.6 1 2.1.1.4.3.8.3.9 0 .2.9 2.5 1.2 3.3.1.2.7 1.4 1.3 2.7.6 1.3 1.1 2.5 1.2 2.7 0 .2.2.7.5 1.1.8 1.2 2.2 3.6 2.8 4.7.5 1 1 1.6.7.9-.1-.2-.7-1.4-1.3-2.7-.7-1.3-1.3-2.5-1.3-2.7-.1-.2-.3-.8-.5-1.4s-.4-1.1-.3-1.1c.1-.1.7.9.8 1.2.1.4 1 2.1 1.7 3.2.4.6 1 1.7 1.3 2.4.4.7.7 1.4.8 1.4.1.1.2.2.2.4 0 .3.9 1.9 2.3 3.9.6.8 1.2 1.7 1.3 2 .4.7 3.1 3.5 3.3 3.4.1-.1-.4-.8-1-1.5a39.8 39.8 0 0 1-3.4-4.7c-.1-.3-.3-.6-.5-.8-.2-.2-.2-.3-.1-.3s.3.2.4.4c.2.4 1 1.4 5 6.3 1 1.2.6.1-.6-1.5-.7-.9-1.4-1.9-1.5-2.2-.2-.3-.5-.9-.8-1.4-.3-.5-.6-1-.6-1.2s-.3-.6-.5-1c-1.4-2.2-2.1-3.3-4.2-7.4-1.3-2.5-2.4-4.8-2.6-5.1-.2-.3-.4-.7-.6-.9-.2-.2-.3-.5-.3-.6 0-.2-.1-.4-.2-.6s-.4-.7-.6-1.3c-1-2.6-1.4-3.8-1.4-4a2 2 0 0 0-.3-.8c-.2-.3-.3-.7-.3-.9 0-.2-.2-.8-.4-1.4-.2-.6-.4-1.2-.4-1.4 0-.2-.1-.4-.2-.5-.1-.1-.2-.5-.3-.8-.2-.7-.3-.8-3.5-1l-2.3-.1.4.8m92.5 13.4c-.5.2-1.2.6-1.7.9-.4.3-.9.6-1 .6-1 0-5.3 5.1-6.8 8-.4.8-1 1.8-1.2 2.2-.9 1.5-2.1 5.6-2.3 8.2-.3 3.2-1.2 7-2.5 10l-1 2.4-2.8 2.9c-3.7 3.8-4.2 4.6-4.2 7.7 0 2.7.6 4 .9 1.8.1-.8.5-2.1.7-2.3.1-.1.2.3.3.9.3 2.7.9 3.9.9 1.9 0-.9.4-2.1 1.2-3.7.6-1.3 1.1-1.8.9-.9-.6 2.6-.2 3 .6.6.6-1.9 1.3-3.3 2.9-5.8.7-1.1 1.5-2.6 1.8-3.5l.6-1.6v1.4c0 1.2-.2 3.2-1 7.7-.2 1.3-.5 2.4-1.3 5.2-.5 1.6-.3 1.8.6.9.4-.4 1.4-1.3 2.1-1.9.7-.6 1.6-1.6 2.1-2.3.4-.6.8-1.1.9-1.1.1.1.7-1 .7-1.3 0-.2-1.8 1.2-2.3 1.8-.4.5-.3-.1.1-.7.5-.8 1.5-2 2-2.5.6-.6 1.8-2.5 1.9-3.1l.1-.5-.6.4c-.3.2-.7.5-.8.5-.1.1.1-.6.6-1.5.4-.9.9-1.8 1-2 .1-.2.3-.7.4-1.1.4-1 .4-1.4 0-1.1-.4.3-.4.3.3-2.2.6-2.2.7-3.6.4-3.6-.1 0-.2.1-.2.3 0 .2-.2.6-.4 1s-.4.8-.4 1-.1.2-.2.2c-.3 0 .3-3.4.8-4.6.3-.7.5-1.5.5-2v-.7l-.4.8c-.2.4-.5 1-.6 1.4-.3.8-.4.2-.2-1.1.1-.7.1-1.1 0-1.2-.8-.3.9-3.8 2.2-4.5.3-.2.7-.7 1-1.1.5-.8 1-1.1.7-.4-1 2.2-1.2 3.7-.5 3.2.2-.1.4-.2.5-.2.1 0-.3.8-.5 1-.2.2-1 2.2-1 2.7s0 .4.6-.3c.6-.8.9-1 .7-.3-.4.9-1 2.9-1 3 0 0 .3-.1.6-.4.6-.6.8-.4.4.5-.2.4-.4 1.1-.4 1.5-.1.9-.1.9 1 0 .8-.6.9-.3.3.7-.3.5-.5 1.2-.6 1.6l-.1.8.5-.5c.9-.8 1.4-.6.8.3-.3.4-.7 1.8-.7 2.2 0 .2.1.1.4-.1.6-.5.5-.1-.2.8-1.6 2.1-1.9 3.1-.9 2.3 1.2-.9 1.1-.3-.4 2.3-1.1 2-1.2 2.2-.3 1.6 1.1-.8.4.5-1.5 2.6-.5.5-1.1 1.3-1.3 1.8l-.5.8.6-.1c.9-.2 1.2-.3 2.2-1.3 2.9-2.6 3.8-3.8 4.5-5.6.2-.6.5-1 .6-1 .6 0 1-5.2.6-7.4-.1-.6-.3-1.8-.4-2.6-.1-.9-.3-2-.5-2.6-.4-1.7-.5-2.3-.5-5.5 0-2 .1-3.6.3-4.8.2-1 .4-2.1.4-2.5.1-.4.4-1.9.7-3.2.8-3.4.8-4-.2-3.5-.2.1-.4.1-.5 0 .1-.6.1-.6-1-.2m-5.7 1.7c-.8.8-1.9 2.2-2.4 3-.2.3.5-.3 1.5-1.3 1-1.1 1.9-2 1.9-2.1.1-.5-.4-.2-1 .4M68.9 63.3c-.2 2.4-.2 8.2.1 10.2.1.9.2 2.3.3 3.1.1.8.2 2.3.3 3.4.1 1.1.2 2.6.3 3.5.3 4.4.7 7.9 1 9.3.2.8.6 2.6.9 4 .3 1.3.6 3 .8 3.6.2.6.4 1.5.5 2 .3 1.3 2.9 9.3 3.3 10.3l1.1 2.8c.4 1.1 1 2.6 1.3 3.5.4.8.8 2.1 1 2.8.9 3.4 1.9 5.5 3.6 8 .3.5.9 1.5 1.4 2.2.4.7.8 1.2.8 1.1.1-.4-.6-3.8-1.2-5.2-.9-2.1-1-2.5-.9-2.6.1-.1.1-.1.2 0 0 0 .4.9.9 1.8.5 1 1 1.8 1.1 1.8s.2.3.2.6.1.8.2 1.1c.1.3.3 1 .4 1.5.1.5.4.9.5.9.1-.1.2.1.1.5-.1.6.4 3 .7 3.5.1.2.2.2.5 0s.3-.2.2 0c-.4.5-.3 1.4.1 2.6.2.6.4 1.3.4 1.5s.1.4.2.4.1.3.1.7c-.1.7.6 3.3 1.1 4.4.4.8 1.4 1.7 2.5 2.2.5.2 1.1.6 1.5.8 1.2.9 3 1.4 3 .8 0-.2-.4-.6-.9-1s-1.3-1.1-1.8-1.6l-.8-1 1.1.4c1 .4 1.6.6 3.7 1.1.9.2.8-.1-.3-.6-1.7-.9-1.5-.9.8-.2 2.2.7 2.2.8 1.4-.3-.8-1.2-1.3-1.4-2.4-1.5-1 0-1-.4.1-.6.3-.1.6-.2.5-.3 0-.1-.2-.4-.3-.6-.1-.3-.6-.7-1-1-.8-.5-.8-.5-1.7-.5-.8 0-.7-.4.2-.6l.8-.2-.5-1c-.6-1.2-.7-1.3-1.9-1.3-.5 0-.9-.1-.9-.2 0-.3 1-.6 1.3-.5.5.2.5-.3 0-1.2-.7-1.3-1.2-1.7-2.2-1.9-1-.2-1.1-.4-.2-.6.8-.1.8-.1.4-.9-.6-1.2-1-1.5-2-1.5-.9 0-1-.3-.1-.5 1.1-.2-.3-2.4-1.6-2.5-.4 0-.4-.3 0-.3.2 0 .4-.1.4-.2 0-.7-1.4-2.5-1.9-2.5-.3 0-.3-.3 0-.4.2-.1.2-.2 0-.5-.1-.2-.5-.9-.8-1.5-.3-.6-1-1.4-1.4-1.8-.5-.4-.7-.7-.6-.6 1 .5.5-1.1-.8-2.8-.4-.5-.6-.8-.6-.8.1 0-.4-1-1-2.2-1.2-2.2-1.6-3.4-2.8-6.7-.3-1-.7-2-.9-2.2-.1-.3-.3-.7-.3-.9 0-.5 1.2 1.1 2 2.7.3.6.9 1.7 1.2 2.2 1 1.6 1.8 3.1 2.6 4.6.4.8 1.5 2.7 2.5 4.4 1 1.7 1.9 3.4 2.1 3.8.2.4.4 1 .6 1.2.1.2.5.9.8 1.4.3.6.8 1.5 1.1 2 .3.5.7 1.3.9 1.7.6 1.2 1.6 2.5 5 7.2.5.6.9 1.2.9 1.3 0 .2.3.6 2.2 3 1.4 1.8 1.6 2.1 1.9 2.1.2 0 .3 0 .3-.1 0-.2-.9-1.9-1.6-3.1-1-1.7-2.8-5-2.5-4.7.3.3 3.3 3.7 4.3 5 .5.6 1.1 1.4 1.4 1.9.8 1.3 1.9 2.3 1.9 1.8 0-.2-.7-1.7-1.1-2.2-.2-.3-.4-.7-.4-.8 0-.1-.2-.5-.5-.9l-.5-.8.9.7c.8.7.9.7.9.3 0-.2-.1-.5-.2-.5-.4-.2-2.8-4-2.7-4.1.2-.2 2.4 2.3 3.6 4 .4.5.7 1 .8 1 .1 0-.2-.7-.4-1-.4-.4-.7-1.4-.5-1.4.1 0 .2.1.2.1 0 .1.3.5.8 1 1.3 1.5 3.5 0 2.8-1.9-.2-.5-8.5-8.9-10.8-10.8-2-1.7-2.9-2.8-5-5.9a73.1 73.1 0 0 0-3.7-5.2c-2.8-3.8-4.4-6.2-5.4-8-4.2-7.8-3.9-7.3-7.5-14.6-.4-.9-.8-1.6-.8-1.7 0-.2-.4-1-1.5-3.4-.8-1.7-1.1-2.6-1.7-5.3-.3-1.2-.8-3.2-1.2-4.6-1.1-4-1.9-7-2.1-8.5-.2-.8-.4-2-.6-2.8-.2-.8-.3-2-.3-2.7.2-2.7-.1-3.5-.2-1.5m231.7 1.2c-.7.8-1.3 2.4-3.1 8.5-.9 3.1-2.4 6-3.6 7.2-1.1 1-3.7 3-4 3-.1 0-.7.2-1.3.5-.6.3-1.2.5-1.3.5-.1 0-.7.2-1.3.4-.6.2-2.4.7-4 1.1-4.1.9-5.5 1.6-7.8 3.8-.8.8-2 2.4-1.8 2.5.3.1 2-.5 3-1 .4-.2.7-.3.7-.2 0 .2-.1.3-1.1 1.5-.6.7-.7.8-.3.8.5 0 2.5-.7 3-1.1.7-.5 1-.4.6.2-.2.3-.3.5-.2.6.1.1 2.9-1.2 3.7-1.7.4-.3 1.3-.9 2.2-1.3l1.5-.8-1.7 1.9c-1.6 1.7-4.4 4-5.5 4.4-.9.3-.5 1.2.5 1.2.2 0 .5.2.7.4 1 1.2 5.8 0 9.3-2.2 1.2-.8.3-.9-1-.2-1.1.6-1.6.3-.6-.3.5-.3 1.1-.6 1.3-.6 1.1 0 4-1.8 4-2.4 0-.2.1-.5.2-.6.4-.4-.3-.3-1 .2-.9.6-1.6.8-.9.3.3-.2.9-.8 1.4-1.2.4-.4.9-.7 1-.7.3 0 1.6-1.5 1.6-1.9 0-.6-.2-.6-.7-.3-.4.2-.3.1.3-.7.4-.5 1.1-1.2 1.5-1.5.8-.6 1.2-1 1.6-1.9l.2-.5-1.5.8-1.5.8 2.2-2.1c2.1-2 2.8-3.1 3.2-4.5.1-.4.1-.3.1.5 0 .6 0 1.1.1 1.1s.2-.1.2-.1c0-.1.2-.3.5-.5l.5-.3-.5 1c-.3.6-.7 1.2-.8 1.5-.9 1.2-.7 1.8.4 1.2l.6-.3c0 .2-1 1.5-1.8 2.2-.8.8-1 1.3-.4 1 .2-.1.6-.2.9-.3l.6-.2-.8.8c-.4.5-1.2 1.3-1.8 1.9-1 1.1-1 1.1-.6 1.1.9 0 .8.4-.1 1.2-1.1 1-1.4 1.6-1.1 2.6.3 1.2 1.1 1.3 1.8.3.2-.3.6-.9 1-1.3 2.1-2.6 4.6-11.2 4.5-15.8 0-4.2-.3-5.5-1.5-8.6-.8-2.5-.8-2.4-1.3-1.9m-82.9 6.3c.1.2.2.5.2.7.1.2.2.3.3.3.2 0 .2-.5 0-1-.3-.4-.7-.4-.5 0m-16.8 1c-1.3.7-3.3 2.4-3.7 3.4-.2.4-.8 1.2-1.4 1.7-1.2 1-1.5 1.6-2.7 5.1-1.2 3.4-.7 5.3.5 2.3.4-.9.7-1.5 1.1-1.6.3-.1.5-.3.5-.4 0-1.5 4.8-5.2 7.8-6 2-.5 2-.5 2.5-1.3.6-.9.6-1-1.4-.9-3.2.2-1.7-.6 2.3-1.1.4-.1 1-.3 1.3-.5l.6-.5-1.8-.2c-4-.6-4.5-.6-5.6 0m11.9.4c-.4.2-1 .3-1.2.3-2.3 0-7.4 5.5-10.1 10.8-2.6 5.1-3.6 8-5.6 16.2-.4 1.6-1 3.8-1.4 4.9-1.9 5-2.3 6.6-1.6 6.5.3-.1.6-.6 1.7-2.9.4-.8 1.1-2.1 1.5-2.9.4-.8 1.1-2.3 1.4-3.4.6-1.9 1.9-5.3 2.9-8.2.3-.7.7-1.8 1-2.3.3-.5.6-1.4.8-1.9 1.8-4.5 4.5-8.9 6.8-11.2 1.6-1.6 2.9-3.1 2.9-3.4 0-.1.5-.3 1-.5 2.9-1 3.1-1.1 3.1-1.6 0-.4-.1-.5-.9-.6-1.2-.2-1.4-.2-2.3.2m13.9 0c-.8.2-1.5.6-1.5.8 0 .1-.2.2-.5.2-.8 0-3.5 1.4-4.9 2.6-3.2 2.7-5.1 6.4-6.9 13.6-.5 1.8-.6 5.5-.2 5.7.4.2.9-.4.9-1 0-.8 2.1-6.9 3-8.7 3.2-6.5 6.4-9 11.7-9.4l1.4-.1.7.7c1.2 1.3 2.2.9 1.7-.7-.9-2.7-3.3-4.2-5.4-3.7m-12.6 3.9c0 .2.2.3.4.3s.4-.1.4-.3c0-.2-.2-.3-.4-.3-.3 0-.4.1-.4.3m-1.4.9c-.6.3-1.9 2.1-2.7 3.6-.3.7-1 1.9-1.5 2.6s-1 1.6-1 1.9c-.1.3-.6 1.4-1.1 2.4-.5 1.1-1.4 3.2-1.9 4.6-1.1 3.2-2.5 6.1-4.7 9.6-.4.6-1.2 2.2-1.9 3.5-1.4 2.9-1.7 3.3-3.5 6.3-2.4 4-4.3 7.5-5 9.4-.3.8-.7 1.4-1.8 2.7-.7.9-4.7 8.6-6.4 12.3-2.3 5.2-5 15-5.5 20.2-.2 2.1-.2 11.6 0 11.6.1 0 .2.9.4 1.9.6 4.5 1.5 8 3 11.5.6 1.3 1.2 2.7 1.3 3.2.2.5.7 1.6 1.2 2.4 1.1 1.8 1 1.7.4 4.8-.6 2.8-.6 4.5.1 4.5.3 0 .4-.1.4-.6 0-1.1.8-4 1.3-4.7.1-.2.6.4.7.8.1.2.8 1.9 1.7 3.7 1.5 3.2 1.7 3.8 2.2 6.4.3 1.6.2 5.2-.1 6.4-.2.9-.4 2.6-.4 4.2 0 .4.1 1.7.2 2.7.3 2.2.2 7.8-.1 8.1-.1.1-.2.1-.2 0-.2-1.6-.6-4.8-.7-5.9-.7-7.8-2.4-11.8-7.2-16.9-.6-.6-1.3-1.5-1.6-2-.3-.5-.8-1-1.1-1.1-.3-.1-.9-.4-1.4-.6-.5-.2-1.2-.7-1.6-1-.4-.3-.8-.6-1-.6-.1 0-.8-.6-1.6-1.4-.7-.8-1.4-1.4-1.6-1.4-.8 0-3.5-4.4-3.9-6.4 0-.2-.2-1-.5-1.8-.7-2.7-.8-3.5-1.1-6.1-.3-2.8-.3-2.7-.4.8 0 2.1.6 6.5 1.3 8.9.1.5.2.9.2.9-.1 0-.5-1-.8-2.2-.1-.6-.5-2-.8-3-.6-2.3-.8-6.2-.4-9.1.5-3.9 2.1-11.3 2.6-12.1.1-.1.1-.3.2-.5.1-.6 1.6-3.7 3.1-6.3 1.4-2.6 1.6-2.9 1.8-3.9.3-1.5-.1-1.1-2.3 2.4-1.9 3.2-4.2 8.1-4.9 10.8-.1.5-.3.9-.4.9s-.1.1-.1.3c.1.1 0 .5-.2.8-.2.6-.3.6-.2-.3.1-.5.2-1.1.4-1.4l.2-.6c-.1-.1 0-.4.2-.8s.4-1.2.6-1.8c.4-1.5 1.9-5.2 2.6-6.4 1.1-2 2.8-4.9 3.3-5.7 1-1.5 1.1-1.8 1.5-4.1.1-.4.1-.9.2-1 .3-.9-.5.2-1.5 2.1-2.6 5.1-5.4 9.1-3.3 4.9.8-1.6 2.3-4.7 5-10.4 1.2-2.6 2.1-7.6 1.5-8.2-.2-.2-.3-.2-.1.4.1.6-.1 1.1-.9 2.9-.6 1.2-1.3 3-1.7 3.8-1.5 3.6-4.2 9.4-5.2 11-1.4 2.2-4 7.9-5 11.1-.3.9-.7 1.9-.8 2.1-.2.2-.2.4-.1.4s0 .1-.1.3c-.1.2-.2.3-.1.3s0 .2-.1.5c-1.7 5.4-1.9 6.9-2 10.6 0 3 0 3.6.8 7.4.7 3.4 1.3 5.4 1.7 5.7.2.1.5.7.8 1.1.9 1.7 3.8 5 5.4 6.2 1 .7 6.9 6.6 8.8 8.8 3 3.4 6.4 9.4 6.9 12.1.7 3.4.8 4.5.9 6.2.1 4.7-1.1 11.4-2.6 13.7-.6.9-2.6 2.8-2.6 2.4 0 0 .1-.4.2-.7.2-.6.3-2.4.5-5.9 0-.8.2-2.9.3-4.7.9-13.2-2-19.2-14.9-30.5-2.9-2.5-5.6-5.4-5.1-5.4.1 0 0-.2-.2-.3-2.3-2.6-3.4-12.5-1.9-17.2.2-.6.4-1.4.5-1.8l.1-.7-.3.6c-.5.9-2.1 4.7-3 7.1-.5 1.2-1.4 3.4-2.1 4.8-.7 1.4-1.6 3.3-1.9 4.3-.4 1-.6 1.6-.7 1.4 0-.8.8-3.6 1.7-5.4.5-1 1-2.4 1.1-3.1.2-.6.6-1.9.9-2.7 2-4.6 2.9-11.4 2.2-15.8a24 24 0 0 1-.4-2.9c-.1-.5-.2-1.2-.4-1.5-1-2-.8-10 .4-14.5.5-1.7.5-1.7.5-.8 0 .5.1.9.2.9s.1.9.1 1.9c0 1.9.2 3.8.4 5.1.4 1.9 2.3 8 2.5 7.8 0 0 .7-1.5 1.4-3.2.7-1.7 1.9-4.4 2.5-6 .7-1.6 1.5-3.5 1.9-4.3.3-.8 1-2.4 1.5-3.5s1-2.2 1.2-2.4c.3-.3.3-.9.3-4.3 0-2.2.1-4.2.1-4.6.4-2.1.5-3 .5-3.1-.1-.1-.2.2-.2.5-.1.3-.3 1-.4 1.6-.2.6-.3 1.1-.3 1.2a48.38 48.38 0 0 1-2.5 6.7c0 .3-2.2 5-2.3 4.9-.1-.1 0-.5.2-1s.5-2.3.8-3.9c.5-2.9 1.3-7.1 1.6-7.8.4-1-1 .8-2.6 3.3-1 1.5-3.2 7.5-3.9 10.4-.4 1.5-.4 1.5-.7 4.1-.3 2.6-.5 2.1-.3-1.4.2-4.5 1.1-8.9 2.4-11.3 3-5.4 5-7.9 10.8-12.9 4.7-4 8-8.3 10.1-12.8.5-1.1 1.2-2.4 1.5-2.8.4-.6.6-1.3 1-3.4.2-1.4.5-2.5.6-2.5.1.1.1 0 .1-.1-.1-.2.4-3.7.9-5.4.5-1.8 1.8-5.3 2.6-7l.9-1.8-.6-.5c-2.8-2.5-9.6 1.5-12.4 7.5-.3.6-1.2 2.4-2 4.1-.8 1.7-1.5 3.1-1.6 3.1-.1 0 .4-1.7 1-3.4.2-.6.5-1.4.6-1.8.5-2.1 3-6.7 4.6-8.8 1.2-1.5 1.2-1.6 0-1.2-2.6.9-5.9 6.2-8.2 13.3-.7 2-2.3 7-2.6 8.3-.6 2-.4-.1.3-3.9.9-4.5 2.5-9.2 4.7-13.3.6-1.1 1-2 .9-2-.9 0-5.2 7.2-5.6 9.4-.1.4-.2.9-.3 1.2-.1.3-.2.6-.3.8-.1.4-.3.5-.3.2 0-.2.1-.6.2-1s.2-1 .3-1.5c.3-1.8 1.2-4.3 2.4-6.4.8-1.5.7-1.8-.2-.8-.6.6-2.2 3.4-2 3.4.1 0-.4 1.3-1.4 3.6-.4.9-.7 2-.8 2.4l-.7 3.8c-.3 1.6-.6 3.9-.7 5-.2 3.3-.5 5.6-1 8.1-.3 1.3-.8 3.7-1.2 5.4-.9 4.4-2 8.1-2.9 10.5-.4 1.1-.8 2.2-.8 2.3 0 .1-.2.4-.3.5-.2.2-.2.1-.1-.4.1-.4.2-.9.2-1.3.1-.3.2-1.1.4-1.7.5-1.8 1.1-5.1 1-5.2 0 0-.3.4-.5.9-.5 1.2-.7 1.2-.3-.1.2-.5.4-1.3.5-1.6.1-.4.4-1.6.7-2.6.9-3.3.9-3.6-.1-1.6-.5 1.2-1.6 2.9-1.6 2.6 0-.3 1.5-4.8 2.5-7.5.6-1.5 1.1-3.1 1.3-3.6.2-.5.4-1.2.5-1.5.1-.4.2-.7.1-.8-.1-.1-.2.1-.2.3-.2.6-1.7 3.6-2.9 5.8-.7 1.2-1.5 2.9-2 3.8-.7 1.6-1.4 2.5-.8 1 .2-.4.4-1.1.6-1.5.5-1.5 1.5-3.6 1.7-3.6.1 0 .2-.1.2-.2s.6-1.6 1.2-3.2c1.6-3.8 2.7-7.5 2.7-9.4 0-.4-1.4 1.2-2.8 3.2s-1.4 1.7-.1-1l.7-1.4-1.2 1.3a18 18 0 0 0-1.9 2.4c-.8 1.3-1 1.3-.6.2s.8-1.9 2.2-4c1.7-2.7 1.7-2.8-.1-1-3.3 3.2-7 10.4-7.4 14.3 0 .4-.2.8-.3.9-.3.3-.1-2 .3-3.9.6-3.2 2.2-6.5 4.5-9.8 1.6-2.3 5.7-5.8 7.2-6 .8-.1.8-.2 1.5-2.6.5-1.7.4-1.8-1.8-.7-4 2.1-9.1 7.1-10.9 10.6-1.3 2.6-3.3 8.5-3.6 10.9-.1.9-.2 1.1-.4.9-.1-.1 0-1.2.2-2.4.4-3.1.4-3.1.6-3.4.2-.3.4-1.8.2-1.8-.4 0-2.7 4.4-3.3 6.1-1 3.3-1 3-1.5 16-.2 4.5-.8 9.9-1.3 12.1-.1.6-.4 1.7-.5 2.4-.3 1.5-1.1 4.3-1.4 4.6-.2.2-.1-.6.2-1.8.1-.4.2-1.4.3-2.3l.1-1.7-.6 1.7c-1.1 3.2-2.9 7.8-3.1 7.7 0 0 .2-.7.4-1.5.9-2.7 2-7.3 2.6-10.8.3-1.9.7-3.8.8-4.1.7-1.9.8-8.1.2-8.3-.2 0-.4.3-.6 1.8-.4 3-.8 5-1.3 6.8l-.5 1.7.1-3.4c.1-4.1.2-5.4.6-7.7.2-1 .4-2.7.6-3.9.6-4.6.9-6 1.5-7.7.9-2.3 2.3-5 3.6-7 1.1-1.8 1-2-.6-.6-1.3 1.1-4 5.2-4 5.9 0 .1-.1.4-.3.6-.4.5-.2-1.5.2-2.3.9-1.7-.2-1-1.3.8-3.1 5.4-4.3 10.5-5.2 21.8-.1 1.6-.3 3.1-.3 3.3 0 .2-.1 1-.2 1.9-.3 3.8-1.4 9.4-3.3 17.4-.3 1.3-.6 2.5-.6 2.6 0 .1-.4 1.3-.9 2.7-.4 1.4-1.2 3.7-1.6 5.2-.4 1.4-1 3.3-1.3 4.1-3 9.8-3.4 11.7-3.6 16.5-.2 6 1 10.5 4.4 17.2.4.8 1 2.2 1.4 3.1.3.9.7 1.8.9 2.1 1.1 2.3 1.6 4.8 1.4 6.5-.1.5-.2 1.7-.3 2.7-.5 4.2-.9 4.4-1.1.6-.3-5.9-.4-6.2-2.1-9.9-.7-1.5-1.3-2.7-1.3-2.8 0 0-1-2.1-2.2-4.7-2.2-4.6-3.4-7.9-3.9-11.4-.2-1.2-.2-1.1-.8 2.4-1.2 7.9-.7 14.4 1.6 20 1.2 2.8 3 6.3 3.4 6.4.5.1.4-.1-.6-2.9-1.6-4.2-4.3-15.8-3.1-12.7.2.4.3.8.3.9 0 .4.7 2.1 1.7 4s2.1 4.5 3.5 7.9c1.8 4.6 2.5 6.1 4.6 10.1 2.4 4.7 3.5 6.8 5 9.3.6.9 1.3 2.1 1.6 2.6l.5 1-.5-.6c-.3-.3-.9-1.1-1.3-1.7-.4-.6-1.6-2.1-2.7-3.4-1-1.3-2.2-2.8-2.6-3.4-.4-.6-1.4-1.9-2.2-3-.8-1.1-1.5-2.1-1.5-2.2 0-.1-.2-.3-.4-.4-1-.5.7 3 3.8 8 .2.4.8 1.3 1.2 2 .4.7.8 1.3.9 1.4.1.1.2.2.2.3.2.6 2.8 4.2 3.5 5 .7.7 2 2.3 2.6 3 .8 1.1 2.5 3 3.6 4 2.7 2.5 3.7 3.7 5 5.4.7 1 1.4 1.7 1.5 1.7.2-.1 1.2 1 3.1 3.3 1.7 2.1 3.4 4.1 3.6 4 .1-.1-.8-2-2.3-5.2-1-2-2-4.8-2.8-7.2-.2-.8-.5-1.7-.6-1.9-.1-.3-.1-.4.1-.4.1 0 .2.1.2.2 0 .3 2.5 5.8 3.3 7.1.4.6 1.1 1.9 1.6 2.9 1.1 1.9 1.3 2 .8.5-.2-.8-.9-4.6-.9-5.4 0-.5.4.2.7 1.1.2.6.6 1.8 1 2.5s.8 1.6.9 2c.3.7.5.8.7.2.1-.2.2-.8.4-1.2.2-.4.4-1.3.4-2 .2-2.1 1.2-6.8 1.7-8.1.1-.3.7-2.5.8-3.1 0-.2.1-.5.2-.7.2-.6.9-3.8 1-4.5.1-.4.2-.8.2-1 .1-.2.1-.6.2-1 0-.4.2-.9.3-1.3.1-.3.2-.9.3-1.4.1-.4.1-1 .2-1.2.3-1.6.3-6.1 0-6.6-.4-.6-.4-.8-.1-4.6.3-5.4 0-13.2-.6-16.4-.3-1.2-.5-2.9-.6-3.7-.1-.8-.2-1.6-.2-1.9-.1-.3 0-.4.1-.4s.2 0 .2.1.2.8.4 1.6.4 1.7.5 1.9c.2 1 1 3.9 1.6 5.8.4 1.4.7 2.8.8 4l.2 2c0 .1.2 1.7.3 3.6.2 2.8.3 3.8.7 5 .3.9.7 2.8.9 4.4.2 1.6.5 3.6.7 4.6.5 3.2 1.4 15.1 1.2 15.7-.1.2-.1 1.1-.2 2.1-.2 4.2-.4 6.1-.4 6l-.2-1.4c-.1-.8-.2-2.2-.3-3.2-.1-1-.2-3-.3-4.5-.2-6.1-.7-9.2-1.4-9.2-.2 0-.3.6-.2 4.1v8.2c-.1 9.1.7 13.5 4.5 24.3.6 1.8 2 4.3 3.4 6.5 1.3 1.9 1.6 2.5 1 1.7-1.1-1.4-2.8-3.8-3.3-4.8-.3-.6-.8-1.4-1-1.9-.3-.4-.5-.9-.5-1 0-.2-.9-2.4-1.5-3.6-.2-.3-.7-1.5-1.2-2.7-2-4.7-1.8-.7.3 4.4 1.9 4.9 4.2 8.9 7.6 13.6.2.3.7 1 1.1 1.6.8 1.1 1.4 1.9 2.7 2.9.5.4 1.1.9 1.4 1.2.3.3.9.8 1.4 1.1 1.3 1 4 4.6 6.7 8.7.8 1.2 1.5 2.3 1.6 2.3.1 0-.6-1.6-1.1-2.6-.3-.6-.4-.7-.1-.5.2.1.3.4.3.5 0 .1.1.3.2.4.4.4 1.2 1.5 2 2.6 2.3 3.4 2.4 3.4 1.4.6-.4-1.2-1.2-3.5-1.8-5.2-1.3-4-2.4-6.7-3.2-8.2-.7-1.3-2.1-6.1-2.6-9-.3-1.6-.2-2 .1-.9 1.1 3.7 2.8 7.2 4.5 9.4.6.8 1.4 1.9 1.7 2.5.3.6 1 1.6 1.4 2.3 1.2 1.9 3.2 6.8 4.5 10.8.7 2.3.9 2.3 1 0 0-1.2.3-.8.5.6.3 2 .4 2 1-.2.7-2.6 1-4.1 1.4-6.6.2-1.1.4-2.3.4-2.6.1-.3.1-.7.1-.8 0-.1.1-.2.2-.1s-.2 3-.6 5.9c-.1.7-.2 1.8-.3 2.5-.3 4-.3 4.5-.8 6.1-.1.2 0 .3.1.3s.2-.2.2-.4.1-.4.2-.5c.1-.1.7-1.1 1.3-2.2l1.1-2.1-.1 1.4c-.1.8-.2 1.7-.3 2-.3.7-.1 1.1.2.4.1-.3.9-1.9 1.8-3.7s1.9-4.1 2.2-5.2c.4-1.1 1.1-3.1 1.6-4.6 1-3 1.4-4.7 1.8-8.2.1-1.4.4-3.4.7-4.5.2-1.1.4-3 .5-4.2.3-6.4.9-4.3 1.2 4.6l.2 4c.1.2.1 5.8 0 6.8-.3 2.1-2.4 10-3.2 11.8-.5 1.1-.9 2.1-1 2.4-.1.2-.6.6-1.1.8-4.2 1.6-8.8 6.7-9.9 11.1l-.2.9-.8-1.2c-1.6-2.4-5.6-5.6-7-5.6-.2 0-.6-.2-1-.4s-.9-.4-1.2-.5c-.3-.1-1.2-.5-2-.9l-1.6-.2-7.7-.1h-8.8l-1.1.1.3.5c.4.7.8 2.7.6 2.9-.1.1-.1 0-.1-.1 0-.2-.9-1.6-1.3-1.8-.2-.2-.6 2-.7 3.4 0 1.3-.3.9-.5-.6l-.2-1.2-.9 1.8c-1 1.9-2.1 3.6-2.1 3.2 0-.1.1-.4.2-.6.3-.5.9-3.5 1.2-5.4.1-.8.3-1.6.4-1.9.2-.6-.1-.7-2-1-6.8-1.1-13.2-3.4-15.4-5.4-.6-.6-2.3-1.9-3.5-2.8-1.3-.9-4.3-3.5-6.5-5.6-.6-.6-1.6-1.4-2-1.7-.5-.3-1.8-1.4-2.8-2.4-4.8-4.5-18.3-12-20.8-11.5-.2 0 1.3 1.7 3.8 4.2 2.3 2.3 4.2 4.3 4.4 4.6l.2.4-.5-.4c-.3-.2-1.1-.9-1.9-1.5-.8-.6-1.7-1.3-1.9-1.5-1.7-1.4-4.3-3.4-4.4-3.3 0 0 .2.5.6.9.4.5.7.9.7 1 0 .4-1.6-1.1-2.9-2.7-1.6-2.1-2-2.2-.9-.3.4.7.8 1.4.8 1.5 0 .1.7 1 1.4 2.1s1.4 2.1 1.5 2.4c.3.5-1.5-1.3-1.9-2.1-.5-.8-.9-.8-.5 0 .5 1.1 1.9 3.6 3.2 5.7.6 1 1.2 2 1.3 2.1.1.1.6.9 1.2 1.7a7.08 7.08 0 0 1 1.1 1.9c.1 0 .6.8 1.2 1.7.6.9 1.3 1.9 1.6 2.2.3.3.6.7.8.9.1.2.5.5.7.9 1.4 1.7-.7-.3-4.7-4.5-5.7-5.9-5.7-5.9-8-10.2-1.9-3.7-2.2-4.1-2.3-3.5-.1.7.4 2.4 1.1 3.6.3.5 1 1.9 1.6 2.9.6 1.1 1.3 2.3 1.6 2.7.3.4.9 1.3 1.3 1.9.7 1 4.5 5.6 6.9 8.4 1 1.1 4.8 4.3 8 6.7 1.2.9 5.8 5.3 5.8 5.5 0 .2-1.5-.9-2.4-1.7-.9-.8-3.6-2.6-7.2-4.9-1-.6-2.4-1.5-3.1-2.1-1.3-.9-1.9-1.2-1.9-.8 0 .2 1.1 1.4 1.3 1.4.1 0 .5.3.9.6s1.2.9 1.8 1.3 2 1.5 3.1 2.6c3.2 3.1 6.8 5.8 9.6 7.5.9.5 1.9 1.2 2.2 1.5 1.4 1.1 7 3.7 8.7 4.1 4.3 1 4.5 1.1 2 1.2-1.9.1-3.7-.2-5-.7-.5-.2-2.3-.9-3.9-1.4-1.6-.6-3.1-1.1-3.3-1.2-.8-.3 1.2 1.3 2.3 1.9 1.1.5 2.1 1.1 4 2.2 3 1.7 10 2.3 11.5.9.2-.2.9-.6 1.6-.9 1.5-.7 2.3-1.3 3.6-2.5.6-.6.9-.8.8-.5-1.6 5.3-2.5 12.4-1.7 12.9.4.2.5-.2 1-2.7.9-4.6 1-4.6 1 1.1 0 6.5.2 8.2 1.8 13.1.4 1.3.6-.7.3-2.5-.2-1-.3-3.1-.2-7.1 0-1.7.1-2.1.3-1.1 0 .3.3 1.5.5 2.9.6 3.4 1.5 6.1 3.5 10.5.5 1.1 1 2.3 1.2 2.6 2.6 6 6.6 10.1 11.4 11.6.6.2 1.3.6 1.6.9.7.7.2.8 3.8-1 5.4-2.7 8.2-5.9 10.1-11.7.3-.9.8-2 1.1-2.5.3-.5.6-1.3.7-1.7.1-.7 1.1-2.2 1.2-2.1.1.1.2.5.3 1 .4 1.9 2.5 5.4 3.3 5.4.1 0 .6.3 1.1.7 2.3 1.7 4.6 1.6 9.5-.1 1.5-.5 3.5-1.2 4.5-1.5 2.2-.7 6.6-2.6 9.1-4.1 1-.6 2.2-1.3 2.6-1.5 1.3-.7 5.6-3.6 6-4 .1-.1.8-.6 1.7-1.3.9-.6 2.1-1.7 2.7-2.2 1.7-1.6 5.9-5.1 9.2-7.7 1.6-1.3 4-3.3 5.4-4.6 1.3-1.2 3.5-3.3 4.9-4.5 1.3-1.2 3.3-3 4.3-3.9 7.8-7.1 16-12.6 22-14.7 1.7-.6 2.5-.7 1.9-.3-.5.3-1.8 1.4-3.5 2.9-1 .9-2.1 1.8-2.4 2.1-.4.3-1.3 1.2-2.1 2s-2.6 2.6-4 4.1c-3 3-5.3 5.6-6 6.6-.3.4-.8 1-1.1 1.4-.7.7-.8 1.2-.4 1.2.1 0 1.2-1 2.4-2.2 4.1-4.2 11.2-10.5 11.8-10.5.1 0 .2-.1.2-.2.1-.2 6.6-4.5 6.8-4.5.1 0 0 .1-.1.1-.1.1-.4.6-.8 1.2-.3.6-1 2-1.6 3-2.2 4.1-2.3 8.9-.3 12.9.4.9 1 2.2 1.2 3 1.1 4.1 2.2 7 4.4 11.5.9 1.8 1.8 3.8 2.1 4.4.6 1.3.6 1.4 1.8 3.4 1 1.7 1.5 2.8 2.5 5.1.4.9.9 2 1.2 2.4.3.4.4.8.4.8-.3.3-1.3-.7-2.7-2.7l-.3-.4-.7.6c-.9.8-1.8 1.2-3.1 1.2-2.2 0-4.5 1.9-6.2 5.1-1.1 2-3.1 4-4.6 4.8l-1 .5-1-.5c-.6-.3-1.1-.5-1.3-.5-.1 0-.5-.2-.7-.5-1.3-1.3-2.3-1.1-1.6.3.4.8-.3.5-1.1-.4-.7-.8-1-.9-1.2-.5-.1.4.8 2.1 1.6 3l.7.8-.7.4c-1.1.7-1.2.9-.6 1.5.6.7.6.9.1.6-.3-.2-.4-.2-.3 0 0 .1.3.4.5.5.7.3.5.7-.3.8-1.7.3-1.8.4-.6 1.1.4.3.9.7 1.1 1 .2.3.4.5.6.5.5 0 .1.6-.6.8-.9.3-.8.4.3 1.2 1.1.8 1.2 1.4.4 2.4l-.4.5.7.4c.4.2.7.4.7.5 0 .1.2.2.5.3.6.2.8.6.4 1.4-.2.4-.3 1-.2 1.6.1 1.1.2 1.2.8.7.7-.7.8-.5.2.6l-.9 1.8-.3.7.7-.1c.8-.2.8-.1.1.7-.7.8-.7 1 0 .9 1.8-.1 2.1.1 1 .8-.9.6-.9.8.2.8 1.2 0 1.6.2 1.3.8-1.3 2.7-1.1 3.3.7 1.7.8-.7 1.5-1.3 1.6-1.3.1 0-.1.6-.5 1.3-.6 1.2-.6 1.3-.3 1.4.4.1-.4 2-1.1 2.8-.2.2-.3.5-.2.8.2 1.1 2.1-.3 3.2-2.3l.5-1v.7c-.1 2.2 0 2.3.6 2.3.5 0 .6-.1.8-1.1.6-3.3.9-3.8 1-2 .1 1.6.9 1.6 1.4 0 1.1-3.7 1.4-4.4 1.6-4.3.2 0 .5-.3.8-1 .3-.6.6-1 .7-1 .1 0 1-.8 2.1-1.8 3.2-3.2 5.3-4.8 8.9-6.9 1.1-.6 2.2-1.4 2.6-1.6l.6-.5v.7c0 .4-.1 1-.3 1.5-.5 1.5.2 1.6 1 .1.7-1.2 1.6-2.2 1.6-1.6 0 .8 1 .3 2.1-1.2l.4-.6v.6c0 .6.2.8.7.5.1-.1.5-.9.9-1.8.5-1.3.9-1.8 1.7-2.6 1.7-1.6 2.3-3.7 1.8-6.6-1-5.5-.6-16.9.8-21.5.6-1.9 1.1-4.5 1.6-7.3l.7-4c.6-3.2.6-3.4.6-7.1-.1-7.2 0-10.8.1-12.9.1-1.2 0-2.6 0-3.1-.1-.5-.3-1.9-.5-3-.5-2.9-.5-3-1-2.9-.4.1-.4.2-.4 1.2 0 1.3-.2 2.9-.5 3.7l-.2.6-.2-.6c-.4-.9-2.5-3.1-3.4-3.5-.5-.2-1.2-.6-1.7-.8-1.1-.4-1.1-.5.3-1.1 2.7-1.3 6.2-3.5 6.3-4 0-.2.3-.6.6-.9.7-.7.7-.8.1-3.6-.3-1.2-.6-2.9-.7-3.6-.4-2.6-2.9-4.8-7-6.4-2-.8-5.2-2.6-7-4-1.7-1.3-2.3-1.6-3.1-1.5-.4.1-.8 0-1-.2-.7-.5-2-.2-2 .5 0 .1-.2.2-.5.2-.4 0-1.5.4-3.5 1.3-3.7 1.7-7 2.8-10.1 3.6-1.2.3-2.8.8-3.5 1.1-4 1.5-8.1 2.9-10.4 3.5-.7.2-3.1.9-5.4 1.6-2.3.7-5.2 1.5-6.5 1.8-2.2.5-6.1 1.7-7.4 2.2-.3.1-1.6.5-3 .9s-3.2.9-4.1 1.1c-.8.2-2.6.6-4 .8-4.8.7-7.7 1.5-10.8 2.7-.9.4-2 .7-2.5.8-.4.1-1.4.4-2 .7-1.4.7-1.4.7-1.3.3.3-.7-1-.3-1.6.5-.4.5-.8.9-1.6 1.2-1.5.6-3.2 1.4-4.1 2-.7.4-.7.4.5-1.2.7-.9 1.9-2.7 2.6-4.1 3.7-6.9 3.5-5.9 3.6-18.7.1-15 .2-14.6-3.5-23-.7-1.7-1.9-4.5-2.5-6.2s-1.5-3.9-2-4.9c-.4-1-1.1-2.6-1.4-3.4-.7-1.8-1.8-3.9-3.1-5.9-.8-1.2-4.9-8.7-4.9-9 0-.1-.2-.4-.5-.8s-.7-1.3-1.1-2.1c-.3-.8-1.1-2.5-1.7-3.9-1.8-4.1-3.6-9.2-3.4-9.4.1-.1 1.1 1.6 2.2 3.7.8 1.6 3.5 6 3.6 5.9.1-.1-.1-1.1-.3-2.4-.4-2.4-.5-6.7 0-11.9.1-.9.1-2.3 0-3.2-.2-1.6-.1-5.4.2-7.6.1-1.2.4-.9.4.5 0 .7.3 1.8.4 1.4 0-.1.4.2.8.7.7.8.8.9.7 1.6-.2 1.1.2.8.9-.8.6-1.3.6-1.9.1-1.7-.3.1-1.1-1-1.5-1.9-.3-.7-.3-.8 0-.7.1 0 .2.1.2.2s.1.3.9 1c.6.6 1.2.1 1.8-1.5.2-.7.7-1.7.9-2.2l.5-.9-.5-.5c-.3-.3-.6-.5-.7-.5-.2 0-1.2-1.6-1.1-1.8 0-.1.2 0 .5.2s.8.7 1.3 1l.9.7.6-.7c.7-.8.7-.9 0-1.3-1.1-.6-2.3-1.9-2.5-3-.1-.6-.1-.5.5.2 1.2 1.4 2.7 2 3 1.1.1-.2-.1-.5-.6-.9-.4-.4-.9-1.1-1.3-1.8-.9-2-.8-2 .9 0 1.3 1.7 2.2 1.6 2.6-.2.5-2.6-1.9-3.9-4.4-2.3-1.3.9-2.3 3.1-3.9 8.7-.2.6-.5.4-.4-.2.5-2.8.4-5.5-.4-7.5-.2-.4-.3-.9-.3-1.1 0-.3 0-.3.1-.1.1.2.3.5.5.7s.5.6.6.8c.3.7.6.5.6-.5 0-1.3-.4-3.1-.8-4-1.6-3.5-1.6-3.7-.1-1.5 1.2 1.7 1.3 1.8 1.3.7 0-1.2-1-4.3-2.3-6.9-.6-1.2-1.4-3.2-1.7-4.3-.8-2.5-2-3.3-2.1-1.4 0 .3 0 .6-.1.8 0 .2-.1.6-.2 1.1-.3 1.7-.3.7-.2-3.9.1-3.8 0-5.4-.2-7-.2-1.6-.3-3.8-.3-8.7 0-4-.1-6.2-.2-5.8a77.74 77.74 0 0 0-1.1 7.2c-.1.3-.1.7-.1.9 0 .2 0 .5-.2.8-.1.3-.2-.3-.1-2.3.1-1.5.1-3 .1-3.2 0-.6.7-5.3 1.1-7.2 1.1-5.5 1.8-8 2.8-10.2 1.3-2.8 1.3-2.9.1-1.2-4 5.9-6.3 16-6 26.8l.1 2.6-.4-1.6c-.8-3.5-1-5.2-1-9.3 0-4.6.2-6.6.8-8.8 1.1-3.9 1.9-5.5 6.2-12.3 1.9-3.1 3.9-6.2 4.3-7.1 2.6-5.2 4.2-9.4 4.9-12.6.1-.7.3-1.3.4-1.3.1-.1.2-.3.2-.6 0-1-.4-.4-.9 1.2-.6 1.8-1.6 4.1-2.8 6.1-2 3.4-2.4 4.1-3.1 5.1-.4.6-.9 1.3-1.1 1.6-.2.3-.9 1.3-1.6 2.4-2.4 3.6-3.3 5-5.1 8.4-.5 1-.9 1.7-.9 1.6 0-.4 1.4-5.1 2-6.5.3-.8.7-1.9.9-2.3.2-.4.4-.9.5-1 .1-.1.3-.6.5-1.1.4-1.1 4.6-9.4 6.4-12.4.2-.4.7-1.2.9-1.7.3-.5.5-.9.6-1 1.3-1.2 6.2-14.5 5.3-14.5-.4 0-.8.3-.8.5 0 .8-2.8 7-4.1 9.1-.5.7-1 1.8-1.2 2.3-.5 1.3-1.1 2.2-3.1 5.3-6.4 9.7-9.1 16-11.1 25.9-.3 1.7-.7 3.6-.9 4.2-.9 3.7-.7 12.2.3 16.6.8 3.4 1.5 5.8 2.5 8.3.6 1.4 1.4 3.7 1.7 5 .4 1.3 1 3.3 1.4 4.4.7 2.1.8 3 .2 1.3-.2-.5-.4-.9-.4-.8-.1.1.6 2.3.9 3 .4.7 1.3 3.7 1.2 3.8-.1.1-3-5.8-3-6.1 0-.3-1.9-5.9-2.8-8.4-.5-1.3-1-2.7-1.6-4.7-.2-.6-.4-1-.5-1-.1 0-.2-.4-.3-.9-.5-3.9-1.6-4.9-1.7-1.5 0 1.4-.1 2.6-.3 3.1l-.3.8-.1-1.3c-.2-2.7-.5-5.6-.8-7.8-.5-3.6-.4-6.9.2-9.7 1-4.7 1.9-9.1 1.8-9.2-.1-.1-2.6 4.2-3.8 6.8-1.3 2.6-1.9 4.3-1.9 5.2 0 .4-.2 1.1-.4 1.6-.5 1.3-1.2 3.9-1.9 6.8-.3 1.3-.6 2.4-.7 2.4-.1 0-.1-.2-.1-.5.1-.3.2-.8.2-1.2.1-.9 1.8-9.2 2.2-10.5.8-2.8 5.3-12.3 6.3-13.3.1-.1.2-.2.3-.4.1-.2.5-.8.9-1.4.4-.6 1-1.8 1.4-2.8.4-.9 1.2-2.6 1.8-3.7 1.1-2.1 1.3-2.7.7-2.1-.2.2-.4.4-.3.5 0 .1-.2.4-.5.7-.3.3-.5.6-.5.7 0 .1-.2.3-.4.6-.5.6-2.1 3-2.1 3.2 0 .1-.2.4-.5.8l-.5.6.5-.9c1.4-2.6 1.7-3.1 2.1-3.5.2-.2.4-.5.4-.6s.3-.5.6-.8c.3-.4.6-.7.6-.7-.1-.2 0-.5.5-.9.6-.6 3-4.2 3.8-5.7l1.8-3.1c1.4-2.3 2.4-4.4 2.4-4.8 0-.2.5-1 1.2-1.9 2.1-2.9 5.2-8.1 4.5-7.7-.3.2-1.4 1.8-1.4 2.1 0 .1-.1.1-.2.1-.1-.1-.1 0-.1.2.1.4-1.5 2.7-4.1 5.8-2.1 2.6-2.2 2.4-.1-.3 1.9-2.5 5.9-8.9 6.8-10.9.2-.5.7-1.3.9-1.7.5-.7 1.5-3.9 1.8-5.5.1-.7.1-.7-.4-.7-.4 0-.6.3-1.4 2.2-1.3 3-4 8.7-4.7 9.7-.3.5-1 1.5-1.5 2.3-1.5 2.5-2.9 4.3-4.2 5.8-.2.2-.6.7-.9 1.1-.3.4-.5.7-.6.7-.2 0 0-.4 1.5-2.8.5-.9 1.6-2.8 2.3-4.3.8-1.5 1.8-3.4 2.3-4.2 2.1-3.5 3.9-7.7 4.5-10.2l.1-.6-.4.5c-.5.6-.5.4.1-1 1-2.2 1.8-4.2 2-4.9.9-3.4 3-7.8 4.2-8.9.9-.6.4-1.2-.7-.6m15.3 1.5c.2.2.7.2 1.1 0 .2-.1.1-.2-.5-.2-.4 0-.6.1-.6.2m2.5 1.4c-.6.2-1.8.7-2.6 1-6.5 2.2-10.7 6.6-13.5 13.8-2.2 5.6-2.9 8.7-3.2 14.6-.2 3.6-.6 6.3-1.4 8.8-.9 3-1.6 5.3-1.8 5.5-.2.2-.6 1.9-.6 2.3 0 1 1.3-.4 1.8-2 .2-.5.7-1.6 1.2-2.6s1-2.1 1.1-2.4c.1-.3.4-1.3.8-2.1.8-1.9 1-2.5 1.4-5.1.2-1.2.4-2.3.6-2.6.2-.3.5-1.1.7-1.7.2-.6.6-1.6.8-2.2l.4-1.1-.5.5-.5.5c0-.4 3.9-6.4 4.3-6.7.2-.1.1 1.1-.3 1.9-.2.4-.3 1.1-.4 1.7-.1.9-.7 3.6-1.4 6.3-.4 1.6-1.8 6.1-2 6.3-.1.1-.3.5-.4 1-.3.8-1.7 3.7-2.3 4.6-.2.3-.6 1-.9 1.6-.3.6-.6 1.3-.8 1.4-.2.2-.3.4-.3.6 0 .5.7 0 1.9-1.4.6-.7 1.3-1.5 1.5-1.8 1.1-1.3 2.5-3.4 3-4.7.3-.8 1.2-2.6 1.8-3.9 1.5-3.1 2.5-6.3 3.3-10.2.2-1.2 1.3-4.5 2-6.2.4-.9.7-1.7.7-1.8 0-.2-.8.7-1.3 1.5-.2.4-.5.7-.6.7-1 0 3.4-5.4 5.9-7.1.6-.4 1.1-.9 1.1-1.1 0-.2.5-.5 1.1-.8 2.1-1 2.3-1.5.1-.5-.4.2-1.1.4-1.5.5-.4.1-.8.2-.9.3-.1.1-.3.1-.3 0-.1-.1.3-.3.7-.4.5-.1 1.4-.5 2.2-.9.8-.3 2.1-.8 2.9-1 2.4-.6 3-1 3-1.5 0-.6-.7-.5-2.7.3-.8.3-1.6.6-1.8.6-1.2 0-5.2 1.7-7.3 3.1-5.1 3.4-6.8 4.8-7.9 6.2-1 1.4-1.1 1.3-.4-.1 1.5-3.6 6.1-8.4 9.7-10.4 3.5-1.8 5.4-2.5 7.1-2.6 2.4-.1 2.5-.1 2.5-.4 0-.7-4.5-.9-6-.3m-30.7.4c-.4.2-1.2 1-2 1.7-4.7 4.9-7.3 8.4-8.8 12.1-.6 1.6-4 11.4-4.4 13.1-.6 2.2-1.3 4.8-1.6 6.2-.2.8-.5 2.3-.6 3.3-.2 1.4-.4 2.3-.8 3.1-.3.7-1.1 3-1.6 5.2-.6 2.2-1.4 4.9-1.8 6-2 5.9-2.5 7.3-3.1 9.4-1.1 3.8-1.9 9.1-1.3 9.5.2.1.5-.6 1.3-4.1.3-1.2.8-2.9 1.2-3.9.8-1.9 1.9-5.5 2.9-9 1-3.7 1.6-5.6 1.8-5.9.1-.1.1-.3.1-.3-.1-.1 0-.4.2-.7.3-.5.3-.5.2-.1-.2 1.3-.8 3.7-1.1 4.9-.4 1.4-.7 3.1-.5 2.9.8-.7 2.6-5.2 3.4-8.5 1.1-4.3 1.9-7.2 2.2-7.8.2-.6 1.4-4.9 1.6-6.1.3-1.5.6-2.2.6-1.2 0 .5-.1.7-.2.7-.2 0-.2.1 0 .1.1.1.2.3.2.5-.3 2.3-.7 4.1-1.7 7.9-.6 2.1-1.1 4-1.1 4.1 0 .1.6-.8 1.4-2.1.8-1.3 1.4-2.6 1.4-2.7 0-.2.4-1.3.8-2.6.4-1.2.9-2.6 1.1-3.1.1-.5.3-1 .4-1.2.1-.2.1-.3.1-.3s.1-.4.3-.9c.2-.5.6-1.8.9-3 .3-1.2.8-2.9 1.1-3.8.5-1.7 1.6-5.7 2.3-8.6 2.2-8.9 3.1-11 5.7-13.3 1.6-1.5 1.4-2.7-.6-1.5m-18.7-.1c-.4.3-.5.8-.3 2 .2 1.5.1 1.4 1.7 1.1 1.3-.3 1.5-.3 3.1.1 1.9.4 2.1.3 1.2-.6-1.3-1.6-4.8-3.2-5.7-2.6m47.7 8.2c-.2.2-.4.2-.5.2 0 0 .1-.2.3-.4.2-.2.4-.2.5-.2 0 .1-.1.2-.3.4m-32.2 1.7c-.5 2.3-.8 3.8-.7 4.1.1.3.9-3.1 1.1-4.5.2-1.5 0-1.3-.4.4m-8.1.4c-.5.7-2 4.6-2.1 5.6-.1.7.9-1.6 1.3-2.9.1-.4.5-1.3.8-2 .8-1.4.7-1.8 0-.7m69.2 2.4c-1.3 2.6-2.3 5.3-2.2 6 0 .2 0 .4-.1.4-.3 0-.1-2.3.2-3.4.6-2-.1-.9-.8 1.2-.2.7-.5 1.9-.7 2.8-.4 2.2-.4 2-.6 3.5-.5 5.1-3.2 11.4-7.2 16.9-.2.3-.5.9-.6 1.2-.1.3-.6 1.4-1.2 2.2-.5.9-1.2 2.2-1.5 2.8-.3.7-.6 1.2-.7 1.1-.1-.1-.2-.1-.2 0 0 0-.2.5-.4 1.1-.3.8-.3 1-.1.8.2-.2.3-.2.2.2-.1.2-.2.4-.3.3-.2-.1-.2.2-.2.8 0 .2-.2.8-.5 1.3a9 9 0 0 0-.7 1.4c-.1.3-.4 1.1-.8 1.9-.4.8-.7 1.5-.7 1.6 0 .2-1.2 2.5-1.2 2.3 0-.6-1.2 2.1-1.6 3.5-.6 2.4-.7 2.9-.5 2.8.1-.1.1.1.1.3-.9 4.3-1.1 7-.6 10.6.2 1.6 1.7 5.4 2.9 7.2 1.3 2 2.2 3.3 3.1 4.2 3.8 3.9 4.9 8.4 3.7 14.3-.2 1-.5 2.4-.6 3.1-.2 1.3-.2 1.5-.8 2.9-1.4 3.3-3.1 6.6-3.7 7.4-.2.3-.9 1.2-1.5 2.1-.6.8-1.2 1.7-1.4 1.9-.4.5-.6.8-1.3 1.7-.3.5-.8 1.1-1.1 1.5-3.1 3.3-4.3 8.8-3.1 14.1.4 1.8.3 1.6.8 2.9.2.6.4 1.4.4 1.7 0 .3.4 1.5.9 2.6 2.4 5.6 2.6 6 3 8.9.3 2.3.3 7.2-.1 8.6-.2.6-.4 1.9-.5 2.7-.1.8-.5 2.3-.8 3.2-.9 2.7-.3 3 .8.4 3.5-8.5 3.9-15.2 1.2-21.6-1.6-3.9-2.5-9.2-2.1-12.3.3-2.1 2.2-6.3 4.2-9.4.5-.8.9-1.4.9-1.5 0-.1.2-.4.4-.7.2-.3.7-1 1.1-1.5.4-.5.7-1 .8-1 .1-.1 1.5-2.2 1.9-2.7 1.1-1.8 2.3-3.4 3.4-4.5 1.9-1.9 4-4.8 6.3-8.5 1.3-2.2 2.4-4.7 2.8-6.6.1-.3.2-.8.2-1.1.2-1.1.2-2.5 0-3.3-.1-.5-.4-1.4-.5-2.1-.1-.6-.4-1.4-.6-1.7-.6-.8-1.2-2.2-1-2 .2.1.2.1.1-.1-.1-.1-.2-.9-.2-1.6 0-.8-.2-1.8-.3-2.3-.3-1.3-.9-4.3-1.2-5.2-.3-1.2-2.4-6.5-3.6-9.2a18 18 0 0 1-1.3-3.6c-.2-.7-.4-1.6-.5-2-.4-1.4-.5-2.6-.4-6.7.1-7.6 1.6-11.7 6.1-16.5.4-.4.6-.7.6-.8 0-.1.3-.5.7-1 1-1.2 1.1-1.3 1.9-2.5.4-.6.8-1.1.9-1.2.3-.3 1.6-2.2 2-2.9.2-.5.6-1.1.9-1.3.6-.6 2.1-3.6 2.6-5.3.6-1.8.7-1.7.3.4-.8 4.4-3.3 8.8-7.2 12.8-1.3 1.3-3 3.2-3.8 4.1l-1.7 1.9c-.7.8-2 4.1-1.7 4.4.1.1.2 0 .2-.2.1-.1.4-.5.7-.9.5-.6.5-.5-.2.9-1.3 2.4-1 2.6.6.4 1.9-2.7 4.8-6 8.3-9.5 2.5-2.6 4.6-4.9 4.6-5.3 0-.1.2-.4.5-.8.6-.9 2.4-4.5 2.5-5.2.1-.2.2-.8.3-1.3.5-1.9.2-7-.4-8.5l-.2-.6s.2.3.4.7c.2.4.7 1 1.1 1.4.8.7 1.6 1.9 1.6 2.5 0 .2.1.5.2.5.1.1.2 0 .2-.1 0-.2.1-.2.2 0 .2.2.2.3 0 .3-.1 0-.2.2-.2.3s.1.1.2.1c.1-.1.2.1.1.6-.1.4-.2 1-.2 1.4-.4 2.5-2.3 7.3-3.6 8.9-.4.5-.7 1-.7 1 .2.2 2-.9 2.5-1.4.3-.3.6-.5.7-.5s.2-.1.2-.2.2-.4.5-.7c.3-.3.9-1.1 1.3-1.7.4-.7.8-1.2.9-1.1.2.2-2 3.8-2.3 3.8-.1 0-.1.1-.1.3 0 .4.5.1 1.6-1.1 4.4-4.6 4.3-10.4-.3-15-1.1-1.1-1-1.2.3-.5.6.3 1.3.5 1.5.5.5 0 1.7.7 2.2 1.2.6.5 2.1 1.7 2.2 1.7.1 0-.1-.3-.3-.7l-.4-.7.6.6c.6.5 1.6 2.3 1.6 2.8 0 .4.5.2.9-.2.2-.2.4-.6.4-.8 0-.4-1.5-3.3-1.8-3.4-.1 0-.2-.2-.2-.3 0-.3-2.3-2.2-3.1-2.7-1.7-.9-4.8-1.6-6.7-1.5-1.1 0-2.3 0-2.7-.1l-.8-.2.5.4.5.4-.8-.1c-.4-.1-1-.4-1.4-.7-.7-.7-2.3-1.5-2.7-1.4-.1 0-.2-.3-.3-.8-.3-1.2-.4-1.1-1.7 1.6m-74.4-.5c-.7.7-1 1.1-1.9 3.8-1.5 4.2-2.5 5.7-7.4 10.7-2.4 2.4-3.9 3.3-1.8 1 .6-.7 1.3-1.7 1.7-2.6 3-6.6 4-8.4 6.1-11.1.7-.9.9-1 1.3-.9.4.1.6 0 .9-.4.3-.4 1.3-1 1.7-1 .1-.1-.2.2-.6.5m125 .5c-.4.3-1.2.6-1.7.8-2.2.8-2.2.9 0 1.5 1 .2 2.3.6 2.9.8s1.1.4 1.2.4-.1-.7-.3-1.6c-.3-.9-.5-1.8-.5-2 .1-.6-.7-.5-1.6.1m-40.6-.1c-.4.2-.2.3 1.4.5.7.1.8.1.3-.2-.8-.4-1.3-.5-1.7-.3m-61.2.8c-.1.2-.2.5-.3.5-.1.1-.2 0-.1-.2s.1-.4.1-.5c0-.1.1-.2.2-.2s.2.1.1.4m93.7 2.1c-.2.1-.7.4-1.1.8l-.7.7.3-.6c.4-.7.3-.7-.7-.6-1.3.1-2.9 1.1-3.2 2.2-.1.2-.2.3-.3.3-.2 0 .1-1.2.4-1.4.5-.5.2-.6-.8-.5-1.3.2-2.1.7-2.8 1.8-.3.5-.6.9-.7.9-.1-.1.3-1.1.5-1.1.1 0 .2-.1.2-.3 0-1-3 2.2-3.5 3.8-.1.2-.2.4-.3.4-.2 0-.1-1.9.2-2.7.3-.7-.3-.6-1.2.3-.4.4-.8.7-.8.5-.2-.6-2.3 2.6-2.6 3.9-.2 1.2-.7.6-.7-.9 0-.4-.1-.7-.1-.7-.3 0-2 2.1-2.1 2.6-.1.6-.5.5-.4 0 .1-.6-.2-.9-.5-.5-.2.2-.4.3-.5.3-.3 0-1 1.1-1 1.6 0 .2-.1.4-.1.3-.1-.1-.2-.4-.2-.6 0-1.2-1.1.1-1.5 1.8-.3 1.4-.1 6.1.3 7.7.2.6.3 1.5.3 2v.9l.7-.7c.8-.8 1-1.8.9-4.2 0-1.5.2-.6.4 1.4.1 1.5.2 1.6.7 1.1.2-.3.3-.7.3-1.7 0-.9.1-1.3.2-1.1.1.2.2.6.2 1 0 1.7 1 .4 1.2-1.5.1-.8.2-1.7.3-1.8.2-.5.6.8.6 1.8 0 1.1-.1 1.1 1.3.4.6-.3 1.1-.5 1.2-.5.1 0 .3-.1.4-.3.1-.1.5-.3.9-.4 1.4-.3 1.9-1.3 1.9-3.9 0-2.3.4-1.5 1.1 2.1.1.3.2.5.3.5.7 0 3.5-.9 3.6-1.1.1-.2.2-.1.3.1.5.6 1.3 0 1.8-1.4.4-1.2.6-1.1.6.4 0 .6 0 .7.4.6.2-.1.9-.2 1.6-.2h.8c-2.3.6-3.6 1.4-4.6 2.9l-.5.8.1-.7c.1-.4.3-.9.4-1.2.4-.7.2-.9-.4-.4-.3.2-.6.3-.8.3-.2 0-.7.4-1.2.8-.5.5-.8.6-.6.4.1-.2.2-.5.2-.6 0-.3-.9.4-1 .8-.1.2-.1.2-.1 0-.1-1.7-3.6 3-4 5.4-.1.4-.2.7-.3.7-.2 0-.3-2.4-.1-2.6.1-.1.2-.3.2-.5.1-.6-.5-.2-2.1 1.4-1.4 1.4-1.5 1.7-1.7 3.6 0 .6-.1 1.2-.1 1.3-.1.5-.4-.7-.4-1.4 0-1.2-.1-1.2-1.2 0-1 1-1.3 1.7-1.3 2.6 0 .7-.2.6-.3-.1 0-.6 0-.6-.9.1-1.8 1.4-2.9 5.4-2.2 8.1 1.1 4.2 3.8 8 5.7 8h.9l-.5-.5c-.9-.9-1.1-1.5-.5-1.2.3.1.5.3.5.4 0 .1.4.3 1 .6 1.6.7 4.3.3 3.3-.5-.3-.3-.3-.3.6-.3 1.6 0 1.9-.3.8-.6-1.8-.6-3.2-2.3-5-6.3-.6-1.3-.8-2.2-.3-1.2.2.3.4.5.4.5s.3.2.4.5c.4 1 3.1 4.4 3.7 4.8 1.2.7 2.7.8 1.8.2-.7-.5-.4-.6.6-.1 1.1.5 1.5.6 1.9.3.2-.1.1-.3-.4-.5-.8-.4-1.3-.9-.6-.6.6.3 1.8.4 2.5.2l.7-.1-1.2-1.2c-1.1-1.1-3-4.3-3.3-5.6 0-.2-.1-.3-.2-.4-.2-.2-.5-1.8-.4-1.8.1 0 .4.5.7 1.1 2.1 4.3 4.7 6.9 6.2 6.4l.4-.1-.5-.3c-.8-.5-.8-.8-.1-.5.5.3.8.3 1.9.1.7-.1 1.5-.2 1.7-.1.9.3.8-.2-.3-1.3-1.2-1.3-2.9-4.5-3.1-6.1 0-.1-.1-.3-.2-.5-.4-.9.1-.7.5.1 1.9 4.2 3.2 6 4.5 6.4.9.2 1.2.1.7-.3s-.1-.4.6 0c1 .5 1.3.4.8-.4-.8-1-.6-1.1.3-.3 1 .9 2.6 1.4 1.7.5-.3-.3-.3-.6 0-.4.2.1 2.3.3 2.3.2 0 0-.3-.6-.8-1.2-.4-.7-1-1.9-1.4-2.7-.3-.8-.7-1.6-.8-1.7-.1-.1-.3-.7-.5-1.3-.2-.6-.4-1.3-.4-1.5-.3-.9.1-.4 1 1.3 1.4 2.8 3.3 5.7 4.1 6.3l.7.5.1-.4c.1-.2.1-.3.1-.2 0 .4.8 1 1.3 1.1.2.1.7.1.9.2.5.1.5.1.3-.4l-.2-.5.6.5c.5.5 2 1.1 2.2.9l-.4-1.2c-.4-1-1-3.7-.7-4 .1-.1.3.1.3.4 0 .1.1.4.2.5.1.1.2.6.4 1.1.5 2.1 1.8 3.4 3.3 3.6.5.1 1.2.3 1.5.4 1.2.5 1.5.3 1-.7-.4-.8-.6-2.6-.2-2.1.2.2.3.5.3.5 0 .3 1.5 2.5 1.7 2.6.2.1.3-.1.3-.4v-.5l.3.6c.3.7.6.8 1.9 1.2 1.9.5 1.7.5 1.4-.2-.3-.8-.8-3.3-.6-3.4.1-.1.1 0 .1.1 0 1.6 2 4 4.1 4.7 1.5.5 1.5.5 1-1.1-.7-2-.4-2.2.5-.4.8 1.7 1.6 2.5 2.5 2.5.4 0 .8.1 1.1.2.2.1.6.2.9.2s.9.1 1.5.3c1.3.4 1.3.4.8-.7-.4-.8-1-2.9-.8-2.9 0 0 .4.7.9 1.5 1.2 2.3 1.7 2.7 3.2 3.1 1.7.4 1.9.4 1.7 0-.5-1.2-.3-1.5.5-.6s1.4 1.2 3.1 1.4c1.1.1 1.2.1.8-.7-.1-.3-.3-.9-.4-1.4l-.1-.9.4.8c1 1.9 2 2.4 4.5 2.4 1.4 0 1.4 0 1.3-.4-.1-.2-.2-.7-.2-.9-.1-.3-.2-.6-.2-.7l.8.8c.9.9 3.2 1.8 3.2 1.2 0 0-.1-.4-.3-.9-.5-1.3-.3-1.4.3-.4.8 1.3 3.3 1.8 3 .7-.1-.4.1-.5.3-.2.4.4 3-.2 2.8-.7-.1-.2 0-.2.3-.2.6.2 2.4-.4 4.2-1.3 1.9-1 2.1-1 3.4-1.5.6-.2 1.5-.6 2.1-.9.5-.3 1.5-.8 2-1.1.6-.3 1.5-.8 2.1-1.1.6-.3 1.5-.8 2-1 1.2-.4 3.2-1.9 4.4-3.3 2-2.2 5.2-6 6.4-7.5.4-.5.4-.5-.1.6-.9 2.1-1.2 2.9-1.8 4.9-.4 1.3-.9 2.4-1.5 3.4-.5.8-1 1.6-1.1 1.7-.3.4 1.3-1 1.9-1.7.3-.3 1-1.3 1.7-2.2 1.4-1.8 2-3.1 4-8.2.5-1.2 1.1-3 1.4-4 .3-1 .7-2.3.9-2.9.6-1.8.8-5.9.5-9-.1-1.4-.2-3-.3-3.6 0-1.8-.8-2.1-1-.3-.3 2.5-.9 5.8-1.2 6.6-.7 2-3.1 6.5-4.4 8.4-2.5 3.5-6.3 7.5-7.1 7.5-.1 0-.6.3-1.2.7-3.3 2.2-7.1 3.8-9.6 4-4.6.5-6.3.4-6.2-.2 0-.2-.2-.4-.6-.6-.4-.2-.7-.4-.7-.5 0-.1-.3-.5-.6-.8-.3-.4-.6-.9-.7-1.1-.1-.3-.3-.7-.5-.9-.2-.3-.4-1-.5-2.1-.2-2.2-.6-2.3-1.5-.3-1.1 2.4-2.4 3.6-4.3 3.9-1.2.2-1 .4 1.5 1.2 2 .7 2.2.8 1.7.9-.3.1-.7.4-.8.6-.3.7-.6.6-.5-.1.1-.5.1-.6-.6-.7-2.8-.4-4-.5-4.7-.2-.2.1-.4.1-.4 0s-.5-.3-1.2-.4c-.8-.2-1.1-.3-.9-.4.1-.1.2-.4.2-.7 0-.3.1-.7.2-.9.3-.4.3-.3.3.6v.9l1.2-.1c.7-.1 1.4-.2 1.7-.4.2-.2.6-.3.8-.3.3 0 .3 0 .1-.4-.6-.9-1.8-5.1-2-6.7-.1-1.7-.5-2.1-1-1.1-1 1.9-3.4 3.5-6.4 4.1-2.3.5-2.9 1-2.1 1.8.3.3.6.3 1.7.2 1.4-.1 1.5.1.2.7-.5.2-.8.5-.8.5.1.1-.2.1-.5-.1-.5-.2-.6-.2-1.1.2-.5.5-.7.3-.3-.7.2-.4.1-.6-.5-1l-.7-.5-.6.6c-.9 1-.8 1.4.5 2 .6.3 1.5.8 2.1 1.2.6.4 1.6 1 2.3 1.2.6.3 1.3.6 1.5.7.2.1.4.1.6 0 .2-.2.3-.1.3.2.1.6 3.4 2.1 3.9 1.7.5-.3.5-.3.5.1 0 .3.3.4 1.5.7.8.2 1.7.4 1.9.4.2.1.4-.1.6-.4l.2-.5.1.6.1.6 2.2.2c2.2.2 2.2.2 2.6-.3l.4-.4-.1.5c-.1.8 2.7.8 3.7-.1l.7-.6-.1.6-.1.6 1.1-.1c2.1-.2 5.6-.4 5.5-.2-.1.1-.5.2-1 .2-2.1.2-3.6.5-3.8.7-.1.1-.3.4-.4.6-.2.3-.2.3-.2-.1s0-.5-.3-.5c-1.5.1-1.4 0-2.1 1.5-.7 1.5-.7 1.5-.7-.5v-.6l-1.4.1c-1.2.1-1.4.1-1.9.6l-.5.6-.1-.5c-.1-.5-.2-.5-1.1-.6-.6 0-1.3-.2-1.6-.4-.9-.4-1.4-.3-1.9.6-.5.8-.8.6-.4-.2.3-.5.1-.7-1.6-1.2-2.3-.7-2.4-.7-3.1.5-.3.5-.5 1.1-.5 1.3 0 .2-.1.3-.2.2-.1-.1-.1-.7-.1-1.5l.1-1.4-1.5-.7c-1.7-.8-1.9-.8-2.4.5-.4.9-.6.5-.3-.7.4-1.5-.8-2.1-1.8-1l-.5.6.2-.8c.3-1.1.3-1.1-.7-1.6s-1.3-.4-2 .9c-.5 1-.6.5-.2-.8.4-1.4.4-1.4-.5-2l-.8-.5-.9.8-.9.8.4-1c.5-1.1.4-1.7-.3-2.4-.5-.4-.5-.5-.1-.4.2.1.5.2.5.3.2.4.6.1 1.2-.7l.6-.9-.5-.1c-.3-.1-.7-.1-1 0-.4.1-.5.1-.4-.2.1-.3-.4-.8-1.3-1.4-.5-.3-.5-.3-.7.1-.2.5-.3.4-.4-.5-.1-.9-.7-1.8-1.7-2.6-.4-.3-.7-.6-.7-.7 0-.1-.4-.5-.8-1-.5-.5-1.1-1.2-1.4-1.6-.8-1.1-1.4-.8-1.5.7-.1.9-.4.6-.4-.5 0-.7.1-1.1.3-1.2.3-.2.3-.9-.1-.9-.1 0-.6-.4-1.2-.9s-1.4-1.1-1.9-1.4l-.8-.4-.6.5-.6.5.1-.5c.1-.3.2-.7.2-.9.2-.7-4.5-3.5-5.6-3.4-.6.1-.7 0-.6-.1.3-.3.3-.7-.2-.8-.2-.1-.7-.3-1.1-.6-.4-.3-.8-.5-1-.5s-.3-.1-.3-.3c0-.3-.8-.6-1.4-.5-.5 0-1.3.8-1.9 1.8-1 1.5-1 .7-.1-1.3.6-1.2.5-1.3-.8-1.5-.9-.1-1.9.3-2.3 1-.1.1-.1.1-.1 0s.2-.4.5-.7c.6-.6.5-.8-.6-.9-1-.1-1.5.3-2.4 2.1-.4.9-.6 1.1-.6.8 0-.6.6-2.6.8-2.9.3-.3.2-.4-.1-.6-.4-.2-1.2.3-1.4.7-.1.2-.2.4-.3.4-.1 0-.1-.2 0-.5s.2-.6.1-.6c-.1-.8-1.9-.9-2.2-.7m-73.1 1c-.4.5-.9 1.1-1.2 1.5-.3.4-.6.8-.8.9-.2.1-.3.4-.3.6s-.1.4-.2.4c-.2 0-1 2.4-1.5 4.4-.2.8-.6 2.4-1 3.7-.4 1.3-.7 2.6-.7 3 0 .9-.5 2.5-1.3 4.1-.3.7-.5 1.1-.3 1.1.4-.2 4.1-3.8 4.4-4.3.2-.2.7-.8 1.1-1.4 1.9-2.1 2.9-5.2 2.9-8.7 0-1.2.1-2.6.1-3 .5-2.8-1.9 3.2-2.7 6.7a4.9 4.9 0 0 1-1.3 2.7c-.6.7-.8.2-.2-.5.1-.1.3-1.2.5-2.3.4-2.8 1.3-5.8 2.4-7.9 1.1-1.9 1.1-2.1.1-1m33.9 3.5c0 3-.1 3.3-1.8 7.2-1.5 3.4-3.8 7-2.7 4.1 2.3-5.6 3.2-9.4 3.2-12.9v-2.8l.6.9.6.9.1 2.6m58.7-3.7c0 .1-.6.8-1.4 1.6-1.5 1.5-1.5 2 0 1.2.4-.2.8-.4.9-.4.1 0 0 .2-.1.6-.4 1-.4 1 1.1 2 .8.5 1.5 1 1.6 1.1.2.3 2.2 1.5 2.4 1.5.1 0-.1-.5-.5-1.2-.6-1.1-1.8-4.7-2.1-6.1-.1-.5-1.9-.8-1.9-.3m-97.4.8c-.2.4-.4.6-.4.6-.1-.1.4-1.3.6-1.3.1.1 0 .4-.2.7m-42.4-.3c0 .1-.2.4-.4.6-.3.3-.9 1.2-3 5-.2.4-.3.6-.2.5.5-.6 1.6-2.1 2.1-2.8.3-.5.8-1.4 1.1-2 .3-.6.6-1.2.5-1.3-.1-.1-.1-.1-.1 0m70.6 2.3c-.1.1-.2.3-.2.4 0 1.5-7.5 6.7-11.4 8.1-1.7.6-1.9.6-.9.1 1-.5 1.1-.6 2.8-2.3 1.1-1 1.3-1.3.8-1-.4.2-1.1.5-1.6.7-2 .8-4.3 1.9-5.2 2.5-.3.2-1.5 1-2.6 1.7-2.3 1.4-2.4 1.5-6.2 4.4-2.8 2.2-4.8 3.9-4.8 4.2 0 .2 1.6-.6 6.3-3.1.3-.2 1.1-.7 1.8-1.1 1-.7 3.2-1.8 3.6-1.8.1 0-.4.3-1 .7s-1.3.9-1.5 1.2c-.3.3-.6.5-.7.5-.3 0-.8.7-.8 1 0 .5.5.4 1.4-.2.4-.3 1.5-.9 2.3-1.3 3.2-1.6 4.5-2.2 4.7-2.2.5 0 6.1-2.9 6.4-3.3.1-.2.8-.8 1.5-1.2.7-.4 1.3-.8 1.3-.9 1-1.2 2.9-2.8 2.8-2.3-.2.8.2.4.5-.5.1-.4.5-1.2.8-1.9.8-1.7.9-2.4.4-2.4-.2-.3-.5-.2-.5 0m-68.5.8c-.1.5-.2 1-.3 1.1-.1.1-.4 1-.7 2s-.9 2.5-1.2 3.3c-.4.8-.8 1.8-.8 2.1-.7 3.5-5.4 9.6-9.3 12.3-1.4.9-4.1 3.7-5 5l-.7.9c0-.3.8-2.5 1-2.7.1-.1.1-.2 0-.2s-.1-.1.1-.2c.1-.1.2-.4.2-.6 0-.7 1.8-5.6 2.4-6.7 1-1.8 2.2-3.2 4.5-5.4 2-1.9 3.2-2.8 2.1-1.6-.2.3-.7.8-1 1.1-.3.4-.9 1.1-1.4 1.6-2.4 2.6-3.8 5-1.7 3 .7-.7 1.8-1.7 2.4-2.1 2.2-1.8 4.1-3.3 4.2-3.6.1-.2.2-.3.4-.3.3 0 2.4-3.9 3.2-6.2.2-.6.5-1.3.6-1.4.1-.1.2-.5.4-1 .1-.4.3-.9.3-1 .3-.7.5-.2.3.6m149.8.6c-.9 1.1-4.9 3.8-5.6 3.8-.6 0-.8.3-.4.8s1.5.4 2.2-.1c.4-.3.3.4-.2 1-.4.5-.5.6-.2 1 .4.6.6.5 1.2-.6.3-.6.6-1 .6-1 .1.1-.5 2.2-.6 2.5-.2.3.7 1 1 .8.2-.2.3-.1.3.2.1.4.2.5.9.6 1.1.2 1.9-.1 1.6-.7-.7-1.9-.7-5.7.1-8.4 0-.8-.3-.7-.9.1m-75.4 5.5c-.6 2.8-.7 3.4-1.8 6.1-.4 1-2.8 4.9-3.3 5.5-.1.1.2-.5.6-1.4 1.3-2.5 2.3-5.1 2.9-7.2.3-1.1.7-2.2.8-2.5.2-.3.4-1.1.6-1.8.4-1.3.5-1.6.6-1.5.2-.2-.1 1.1-.4 2.8m-8.6 0c-.2.2-.3.4-.3.5.1.1.3-.1.5-.3.2-.2.3-.4.3-.5-.1 0-.4.1-.5.3m53.7 1.8c.1.8 0 1.3-.1 1.5-.3.3-.7.2-.5-.1.1-.2.2-.6.2-2 .1-1.1.3-.8.4.6m37.2-.5c-1.7 1.2-3 1.9-4.6 2.5-2 .7-3 1.8-1.5 1.6.7-.1.7-.1.3.2-.9.6-.5 1.1.5.6.7-.3.7-.2.2.5-.5.6-.4 1.1.3 1 .4-.1.5 0 .4.3-.1.5.4.9.7.6.1-.2.2-.2.2.1 0 .5.5 1 1.3 1.2.7.2 1.5.5 1.8.8.3.3 2.3.5 2.6.3.2-.2.2-.4-.2-1.6-.5-1.5-.7-5.2-.3-7.7.1-1.5-.1-1.5-1.7-.4m-106.2.5c-1.4.9-1.3 1 .1.1 1.3-.8 1.2-.7 1.1-.8 0 0-.6.3-1.2.7m12.9 1.8c-2.4 2.4-3.6 3.4-3.6 2.9 0-1.5-14 3.4-18.4 6.3-.7.5-1.4.9-1.4.9-.3 0-2.2 1.9-3 3-.8 1-2.3 4-2.3 4.4 0 .2 0 .2-.2 0-.3-.4-.4-.1-.5 1 0 .6-.2 1.3-.3 1.7-.7 2.5 0 2.5 1.2.1 1-2.1 2.8-4.7 4.2-6.1.8-.8 3.6-3.1 3.8-3.1 0 0 .7-.3 1.4-.8 1.2-.7 4.6-2.2 4.9-2.2.1 0-.5.4-1.3.8-5.1 2.8-10 7.3-12.4 11.3-.4.7-.7 1.3-.7 1.4 0 .1-.2.5-.6.9-.3.4-.9 1.6-1.3 2.6s-.8 1.8-.9 1.8c-.1 0-.3.4-.4.8-1.4 3.8-1.5 10.5 0 15 .3.8.7 2.3 1 3.2 1.2 4.4 3.8 10.3 5.9 13.1.5.7 1.2 1.9 1.6 2.7.4.9 1.1 2.3 1.5 3.2 2.5 4.9 3.2 14.2 1.3 16.3-.2.2-.6.8-1 1.3s-.9 1.2-1.3 1.5c-.4.4-.5.6-.4.8.5.5 2.6-1 4.1-3 3.1-4 1.9-17.2-1.9-21.6-.7-.8-3.8-6.8-4-7.8-.1-.3-.3-.8-.5-1.1-.4-.5-.6-1.4-1.5-5.3-1.2-5.1-1.1-8.9.2-14.3.3-1.4.5-1.7.6-1.4.1.4.3 0 1.2-2.1 1.3-3 5.2-8.4 5.8-7.8.1.1-1.6 2.3-2 2.6-.2.1-.3.3-.3.4 0 .1-.2.3-.4.6-.6.7-1.3 2-.9 1.8.2-.1.3-.2.3-.3 0-.1.6-.6 1.3-1.1 1.5-1.1 1.4-1 2.6-2 .5-.4 1.2-.9 1.6-1 .6-.3.6-.3.3 0-.8.6-1.2 1-2.1 1.7-.5.4-1.2 1.1-1.6 1.4-1.4 1.1-3 3-3.8 4.6-.5 1-.4 1.3.2.4 1-1.6 6.9-6.5 8.7-7.2 1.2-.5 8.1-5.2 8.7-6 .1-.1.6-.5 1.3-1 2.1-1.6 5.8-6 5.8-6.9 0-.1-.7.6-1.6 1.4-2.3 2.1-3.1 2.6-1.5.9 3.5-3.7 6-7.6 6.7-10.2.2-.9 0-1.3-.2-.6-.2.6-2.7 4.1-3.6 5.1-.7.8-.8.8-.5.3.2-.3.4-.6.5-.6s.2-.1.2-.3c0-.2.1-.3.1-.3.2 0 .4-.4 1.8-3.1.9-1.6 1.6-3.4 1.5-3.4 0 0-.6.7-1.3 1.6-1.6 2.1-4.1 4.9-4.2 4.8-.1-.1.2-.5.7-1 1.3-1.6 3.9-5.5 3.7-5.5-.3-.1-1.5 1.1-2.8 2.5m58.2 0c-.2.3-.6.8-.9.9-.3.2-.6.4-.6.5 0 .1-.1.1-.2.1-.4 0-.2-.5.5-1.2.4-.4.8-1 1-1.5l.4-.9.1.7c0 .4-.1 1-.3 1.4m3.1-1.1c-.2.7-.6 1.4-.9 1.4-.3 0-.2-.3.3-1.2.7-.8.8-.9.6-.2m-156.6-.2c-.2.2-.2.5 0 .5.1 0 .2-.1.3-.3.2-.3 0-.4-.3-.2m158.9.8c0 .6-.8 1.9-1.2 1.9-.3 0-.2-.7.2-1.1.2-.2.5-.6.6-.9.3-.8.4-.8.4.1m5.8 1.1c-.2.6-.6 1.3-.9 1.7-1.5 1.7-2 2.2-2.1 2.1-.2-.2.5-1.1.7-1 .1.1.1 0 .1-.2-.1-.2.3-.8.9-1.4.5-.6 1-1.3 1-1.5 0-.2.1-.4.2-.5.1-.1.2-.3.2-.5 0-.3 0-.3.1-.1 0 .2-.1.8-.2 1.4M143 111.9l-.7.7.7-.7c.7-.6.9-.7.7-.7 0-.1-.4.3-.7.7m179.1.1c-.1.5-1 2.2-1.1 2-.1-.1.3-1.6.5-2.3.3-.6.7-.4.6.3m-11.6-.3c0 .1-.1.2-.2.3-.1.1-.4.5-.6 1-.5.9-.8.8-.5-.3.3-.7 1.3-1.6 1.3-1m-37.8 1.2c-.5.6-.5.7-.5 3.1 0 1.4-.1 2.5-.1 2.5-.2 0-.6-1.4-.7-2.9-.1-.8-.2-1.4-.2-1.3-.4.2-.6 2.3-.5 3.9.2 2.4.2 3.3-.2 4.5-.4 1.3-.3 3.4.1 4.1.1.2.5 1 .7 1.7.2.7.6 1.5.8 1.7.2.2.4.5.4.6s.2.2.4.2h.4l-.4-.4c-.9-.8-.8-3.6.1-5.6 1.7-3.7 1.8-4.6 1-8.4-.3-1.3-.5-2.8-.5-3.4-.1-1.1-.2-1.1-.8-.3m1.5.5c0 .4 0 .8.1.9.1.1.2-.2.2-.7-.1-1.1-.2-1.2-.3-.2m53.1 1.6c0 .8-1.3 2.7-1.7 2.3-.1-.1 0-.1.1-.1.3 0 .5-.8.9-2.3.2-1.3.7-1.2.7.1m-60.4-.4c-.3.3-.5.5-.4.5.1 0 .4-.2.7-.5.8-.7.5-.7-.3 0m49.5 1.2c-.1.3-.2 1-.1 1.6.1 1-.1 1.3-.5.5-.4-1 0-3.2.5-2.8.2.1.2.3.1.7m-136.9.1c-2.3 3-4.6 5.3-6.9 7.3-2.1 1.7-2.4 2-2.6 2.8-.1.5-.1.9 0 1 .1.1.1.8-.1 1.9-.2 1.6-.2 5.4.1 5.6.1.1.2-.5.3-1.2.1-.7.3-1.5.4-1.8.1-.3.2-.9.3-1.3.1-.4.3-1.3.5-2l.4-1.2-.1 2.2c-.1 1.2-.2 2.9-.3 3.8-.1.8-.2 1.6-.1 1.7.2.3 2.3-5 2.5-6.2.6-4.1 1-5.6 1.1-4.1 0 .6.1 1.2.1 1.5 0 .2.1.6.1.8 0 .5.3 0 1.5-3.4.9-2.6 2.1-5.3 2.6-5.9.4-.5 1.3-2.2 1.2-2.3-.3 0-.7.3-1 .8m150.7.3c-.2.2-.3-.2-.2-.7l.2-.5.1.6c0 .2 0 .5-.1.6m-173.7 1c-.4 1-1 2.4-1.3 3.1-.3.7-.8 2.4-1.2 3.8-.4 1.4-.7 2.6-.8 2.7-.1.2-1.1 3.2-2 6.3-.6 2-1.2 5.5-1.2 6.7 0 .6.4 0 1.1-1.7 1-2.3 1.2-1.7.3.8-.2.6-.4 1.2-.5 1.4 0 .2-.2.8-.4 1.4-.2.6-.3 1.2-.4 1.3-.1.1-.2.8-.2 1.5-.1.7-.2 1.6-.3 1.9-.6 2.2-.7 6.1-.3 8.8.1.3.1.6 0 .6s-.5-1.3-.6-2.2c0-.4-.2-.8-.2-1-.1-.1-.2-1.2-.2-2.5s-.1-2.3-.1-2.3c-.1-.1-.7 1.4-1.6 4-.3.7-.8 2-1.2 2.8l-.8 1.6.1-1c.1-.5.5-2.3.9-4 .4-1.7.9-3.6 1-4.2.4-2 1.6-6.4 2.1-7.8.2-.4.3-1.3.4-1.9.3-1.9.8-4.1 2-7.3.6-1.7 1.4-4.3 1.9-5.8.8-2.6 1.6-4.9 2-5.5.1-.2.4-.6.6-1.1.4-.8 1.2-2.2 1.4-2.5.4-.4.1.6-.5 2.1m108.4-.4c-.1.1-.2.1-.3.1-.1-.1-.2 0-.2.1s-.2.3-.4.4c-.2.1-.3.2-.2.2.3 0 1.4-.6 1.4-.8 0-.3-.1-.2-.3 0m64.9 1.1c-.7 1.3-1 1.3-.5-.1.3-.6.5-1.2.5-1.2 0-.1.1 0 .2.1.3.3.3.5-.2 1.2m-68 .3c-.7.5-.9.9-.6 1 .1.1.6-.2 1-.7.9-.8.6-1-.4-.3m-39.6.3c-.4.2-.5.3-.3.4.1 0 .4-.1.7-.3.4-.5.4-.5-.4-.1m-52.8 1.3c-.7.7-.8 1-.2.6.5-.4.8-.8.7-1-.1 0-.3.1-.5.4m162.2.9c-.2.3-.3.8-.3 1 0 .2-.1.4-.2.4-.3 0 0-1.5.4-2.1.4-.8.5-.1.1.7m13.7-.1c-.3.8-1 1.3-1.5 1.3-.4 0-.3-.7.3-1.1.3-.2.7-.5.9-.7.6-.5.7-.4.3.5m-100.8.1c-.3.4-.5.9-.6 1-.1.2.1 0 .4-.3.3-.3.6-.8.7-1 .1-.6 0-.6-.5.3m98.9-.2c-.3.4-1.1.5-1.1.2s.8-.8 1.1-.7c.3.1.3.2 0 .5m-95.9 1c-.7 1.1-1 1.3-.5.3s.9-1.5 1-1.4c.1 0-.2.5-.5 1.1m98.9 0c-.1.2-.2.4-.2.3-.1-.1 0-.3 0-.5.1-.2.2-.4.2-.3.1 0 .1.3 0 .5m-211 1.3c-3.8 1.2-6.7 4.7-9.3 11.2-1.1 2.8-1.2 2.5-.1-1.4l.7-2.3c.3-.8.7-1.9.7-2.1 0-1.1-3.5 4.8-3.8 6.4-.2.9-.7 2.5-.9 2.5-.1 0-.1-.5-.1-1.2.1-1.5-.1-1.4-.9.6-1.6 3.8-2.7 10.2-2.9 16.9-.3 11.7-1.6 23.4-2.9 26.5-1.1 2.4-1.7 5.1-2 8.3-.1.8-.2 1.5-.2 1.6l-.2 2.2c-.1 1.2-.2 3-.3 4-.2 2.6-.2 8 0 8.1.1.1.2-1 .3-2.4.2-3.7.9-7.5 2.3-12 2-6.5 2.3-7.8 3.3-13.4.3-1.5-.1-1-.5.8-.2.9-.6 2-.8 2.5l-.4 1 .1-1c.1-.5.2-1.4.3-2 .4-2 1-5.3 1.1-5.9.2-1.4.3-2 .6-3.5.3-1.8.4-2.9.3-8.2 0-4.4 0-4.6.2-4.6.1 0 .1-.1 0-.3-.1-.2-.1-.3.1-.2.1.1.2.6.2 1.1 0 1.7.6 5.1.9 5.1.2 0 .3-.6.3-3 0-5.2.2-6.6.4-3 .2 2.9 1.1-3.7 1.1-8.4 0-.6.1-1 .2-1s.2.4.2.9c0 1.1.3 1.1.6 0 .6-2.4 2.2-6.1 3-7.3.2-.3.6-1.3.9-2.2.6-2.2 1.1-3.8 1.7-5 1.6-3.1 3.1-3.4 1.8-.4-2.5 5.5-3.7 18.5-2.8 30.4.3 4.3.4 4.2 1.7-2.3.5-2.7 1.1-5.1 1.2-5.4.1-.3.4-1.7.6-3.1.6-4 1.2-6.6 1.6-7.4.4-.7.4-1.3.5-4.9.1-3.5.7-11.3 1-11.7 0-.1.3-1.1.5-2.3.4-2.3.4-2.5-.3-2.2m78.1 1.2c-.6.6-1.5 1.5-1.9 2.1-.4.5-.9 1-1 1.2-3.1 3.7-7.1 13.1-8 18.8-.7 4.7-.4 15.7.5 19.1.2.8.6 2.4.8 3.6.4 2.1.8 3.7 2 6.9.6 1.6.5 1.7-.2.3-.3-.6-.6-1.1-.7-1.3-.1-.2-.3-.7-.5-1.2s-.7-1.5-1-2.2c-.7-1.6-1.4-3.3-1.5-4 0-.3-.3-1.1-.5-2-1.3-4.6-1.3-11.8.1-19.3.3-1.7.2-2.4-.4-1.5-.6.9-1.7 6-2 8.9-.1.8-.2 1.5-.3 1.6-.4.6-.1 8.6.5 11.1.9 4.3 2.5 8.9 4.6 13.1 1.4 2.8 1.7 3.3 5.3 8.5 5.3 7.8 6.4 10.6 6.4 16.8 0 1.1.1 2.4.2 2.9.2.8.1 1.6-.4 3.7-.4 1.6-1 4.1-1.3 4.8-.1.4-.6 1.7-1 3-.9 2.9-1.8 5.3-2.2 6-.2.3-.8 1.4-1.3 2.5-1.1 2.2-1.6 3.2-1.8 3.3-.2.1-.5 1.1-.5 1.4 0 .7 1.4-1.1 3.4-4.4.5-.8 1-1.6 1.2-1.8.7-.8 2-3.3 2-3.9 0-.2 1.2-3.6 1.9-5.4.8-2.1 2-5.7 2.1-6.5.1-.4.2-1.6.4-2.5.4-2.3.6-10.2.3-11-.1-.3-.3-1.2-.5-1.9-.1-.8-.3-1.6-.4-1.9-.1-.3-.2-.8-.2-1.2-.4-2.1-2.6-8.7-4.1-12.2-.5-1.1-.9-2.2-.9-2.3 0-.1-.1-.4-.3-.5-1.5-1.7-2.4-16.2-1.2-20.6.2-.8.1-3.7-.2-4.5-.1-.3-.2-.2-.6.7-1.5 4-2 6.8-2 11.9 0 1.9-.1 3.3-.1 3.2-1.2-3.9-1.4-7.4-.8-11.6 0-.3.1-1.2.2-2s.2-1.9.2-2.4c.2-1.4 1.5-7.1 1.6-7.4.1-.1.4-1.6.8-3.2.6-2.9.8-3.4 2.3-6.5 0-.1 0-.1-.1-.1-.3 0-2.8 5.1-3.8 7.8-.4 1-.9 2.3-1.1 2.7-.6 1.5-2 6.1-2.4 7.9l-.4 1.8.1-1.9c.2-4.2 3-12.9 5.3-16 1.9-2.7 3.9-7.3 2.7-6.2-.5.5-.8.4-.3-.1.5-.6 1.8-2.8 1.5-2.6-.5.3-3.2 3.9-4.4 5.8-1.2 1.9-1.6 2-.7.2.2-.4.4-.7.4-.8 0-.2 1.6-2.9 1.9-3.3.2-.3 1.7-2.2 2.3-3 .2-.3.8-1.1 1.3-1.8s.9-1.3.8-1.3c-.3-.7-1-.4-2.1.7m-47.7-.6c-.2.2-.3.5-.3.7 0 .3 0 .3.3-.1.7-.8.7-1.4 0-.6m-22.8 1.3c-.1.9-.2 1.7-.1 1.8.2.4.4-1.1.4-2.4 0-.9 0-.9-.3.6m-4.8 2.7c-.1 2.1-.3 6.2-.3 9.1 0 6.7-.3 12.2-.7 14.5a147 147 0 0 1-2.6 10.2c-.1.1-.1.3-.2.5-.1.6-1.8 4.3-2 4.2 0 0 .1-.7.4-1.4 2.1-5.9 3.6-16.8 3.6-25.8 0-1.8.1-4.2.3-5.3.2-1.1.3-2.8.4-3.9.2-3 .3-3.8.7-5 .7-1.5.7-1.5.4 2.9m130.7-2.5c0 1.3.4 2.5 1.1 3.2.3.3.3.2.1-.2-.4-.8-.8-2.4-.8-3.3 0-.4-.1-.9-.2-.9s-.2.4-.2 1.2m129-1c-.1.1-.4.5-.6.8-.2.3-.4.5-.6.5-.1 0-1.1.8-2.3 1.9-3.9 3.6-6.6 5.6-8.1 6.1-1 .3-2.3 1-4.3 2-1.3.7-2.1.7-2.9-.1-1-1-.8-2.1.7-3.3.9-.7 0-.4-2.1.7-3.6 1.9-4.6 4-2.9 5.7l.6.6 2-.1c2.7-.1 7.9-2.7 12-5.9.7-.5 1.3-.9 1.3-.9.2.2-3.2 3.1-5.5 4.8-2.2 1.6-5.1 4.2-4.9 4.4.3.3 3.4-1.4 6-3.1 2.3-1.6 7.7-6.7 8.7-8.3.9-1.5 2.7-4.2 3-4.7.9-.8.6-1.9-.1-1.1m-21.7.8s-.2.2-.5.4-.5.2-.5.2c0-.1.2-.3.4-.4.6-.3.6-.3.6-.2m-117.1.4c-.1.1-.1.9-.1 1.9 0 3.1-.6 5.9-2 8.6-.6 1.3-1.3 3-1.6 3.8-.2.8-.5 1.5-.5 1.7s-.1.5-.2.7c0 .2-.2.9-.3 1.5-.1.6-.2 1.6-.2 2.1 0 1 0 1-.2.5-.1-.3-.1-1.3-.1-2.2l.1-1.7-.6 1.2c-1.7 3.6-1 7.5 2 10.7 1 1.1 1.8 1.7 3.8 2.7 1.1.6.5.6-1.1-.1-.5-.2-1.1-.4-1.4-.4-.3 0-.7-.2-1-.4-.6-.4-.9-.5-.9-.1s2 2.7 2.9 3.4c.8.6 1 1 .6 1-.1 0-.8-.4-1.5-.9-1.7-1.2-1.9-.9-.6.8.5.7.5.9-.2.3-.2-.2-.4-.3-.5-.2-.1.1 0 .3.2.4.8.5 2.1 2 2.9 3.5.6 1.1 1.6 2.1 3.7 3.6 3.8 2.7 5.4 4.7 2.7 3.3-2.4-1.2-4.5-1.5-4.8-.7-.1.3.6 2.5 1 3.3.1.2.4.9.7 1.5.5 1.1.9 1.4.9.8 0-.2.1-.6.3-.8l.3-.5v.5c0 .5 1.3 2.6 1.6 2.6.1 0 .2-.3.3-.7l.1-.7.4 1c.2.6.5 1.3.8 1.5.2.3.4.6.4.8 0 .1.4.6.8 1 1.1 1 1 1.1-.6.4-.7-.4-2.1-.9-3.1-1.2-.9-.3-1.8-.5-1.8-.6-.1-.1-.7-.6-1.4-1.3-.7-.6-1.7-1.6-2.1-2.2-1.6-2.1-2.3-1-1.3 2.1.7 2.2 2.3 4.3 2.3 2.9 0-.4.1-.6.2-.5.1.1.2.3.2.5s.5.8 1 1.4l1 1 .1-.7.1-.7.8.8c.9.9 1.2 1 1.4.4.1-.4.1-.4.3.1.1.3.7.9 1.8 1.5.9.6 1.6 1.1 1.7 1.3.1.2.4 1.1.8 2.1s.7 2.3.8 2.9c.1 1.1.2 1.3.5 1 .3-.3 2.9-.2 3.2 0 .3.2.2.3-.7.3-1.3 0-2.1.5-2.7 1.6-.6 1.2-.5 1.8.2 1.1.9-1 1-.8.4.7-.3.6-.5 1.2-.5 1.4 0 .4 1 .4 1-.1 0-.6.7-1.3 1.2-1.2.4.1.4.1-.1.3-.5.2-1 .8-.9 1.2 0 .1 0 .4-.1.8-.1.5 0 2 .4 3.6.5 2.3.5 7.2 0 11.3a51.61 51.61 0 0 1-.7 6c-.5 2.1-.4 2.7.2 2.1.2-.2.4-.5.4-.6 0-.1.2-.7.4-1.2s.4-1.1.5-1.4c.1-.3.4-1.4.9-2.5.4-1.1 1-2.9 1.3-3.9.3-1.1.7-2.4 1-3 1.4-3.1 2.3-8.6 1.7-10.2-.3-.8-.3-.8-1.9-1.7-1.1-.6-.7-.7.5-.2 1.6.8 2.1 1.4 2.1 2.8 0 1.2 0 1.3.5 1.3 1.5 0 1.2-3.2-.4-5.1-.3-.3-.3-.3 0-.3s.9.6 1.6 1.6c.7 1 1.1-1.2.4-2.4-.2-.4-.3-.9-.2-1.7.2-1.5-1.8-4.5-3.9-6.1-.7-.5-1-1-1.5-1.9-.3-.7-.7-1.4-.9-1.6-.3-.3-.3-.3 0-.3.9 0 .2-3.8-.8-5-1.8-2.1.6-6.4 3.9-7l.7-.1-.8.6c-1.3 1-2.5 4.1-1.3 3.7.2-.1.3 0 .3.3.1.6 1.3.6 2.2-.1.4-.3.8-.5.9-.5.1 0 .2-.1.2-.2 0-.6 1.5-.9 4.6-.9 1.7 0 3.3-.1 3.5-.2.4-.1.4-.1.1.2-.2.2-.7.4-1.1.4-.4.1-1 .2-1.4.3-.4.1-1.2.2-1.8.2-1.9-.1-2.8.3-3.7 1.4-1 1.2-1.6 3.8-.7 2.9.4-.4.5-.3.3.3-.4 1.1-.1 1.4.6.6.5-.6.5-.1.1.9-.5 1.2-.6 2.3-.2 2.3.2 0 .3-.1.2-.1-.2-.2.4-1.2.6-1.2.1 0 .1.2 0 .5-.4 1-.3 1.7.2 1.4.6-.3.6-.2.3 1s-.2 1.5.7 1.3c.5-.1.5-.1.4 1-.1 1.2.2 1.4 1.3.8.9-.4 2.8-.6 5.2-.5 2.5.2 3.1.5 1.1.7-7.1.7-9.5 5-6.8 12.1.2.6.6 1.6.8 2.1.5 1.3.6 1 .3-.9-.5-3.3-.4-6.7.2-6.3.1.1.1.3.1.5-.1.5.2 3.6.6 5 .7 2.8.9 3.2 1.3 3.2.2 0 .6 0 .8.1.4.1.4.1.6-1.6.4-5.5 2.6-8.5 6.4-9 .8-.1 1.4.3 1.6 1 .1.2.4 1.1.8 1.9.6 1.3.7 1.7.5 2.3-.2 1.3-.4 1.4-.5.4-.4-2.6-2.9-1.7-4.7 1.7-1.2 2.4-1.2 2.6.6 4.3l.6.6-.4.6c-.9 1.3-3.4 3.6-4.3 4-.9.4-.9.5-.5.6l.5.1-.6.4c-1.3.8-2.8 2.5-1.9 2.2 1.9-.8 3-.5 1.6.4-1.5.9-2.3 2.7-.8 1.8.5-.3 1.2-.5 2.4-.6 1.7-.2 3-.4 3.5-.8.4-.3.1-.8-.4-.8-.4 0-.4 0-.1-.3.2-.2.5-.2.7-.2.8.3 1 .3 1.2-.1.2-.4.2-.5-.3-1l-.6-.6.8.1.8.1v-.7c0-.4-.1-.7-.2-.8-.3-.2-.2-.4.2-.5.3-.1.4-.3.4-.7 0-.3.2-.7.4-.9.2-.2.4-.5.4-.7 0-.2.2-.6.4-1l.4-.7.8 1.2a8.6 8.6 0 0 0 3.6 2.9c1.2.5 2 1.3 1.8 1.9-.2.8-6.5 3.8-9.9 4.6l-3.7.9c-1.5.4-2.9.6-4.3.7-2.3.1-2.3.2-3.5 1.8-.7 1.1-.8 1.2-.1 1.2.5 0 .5 0-.3.4-2.5 1.1.6 1.3 3.3.2.9-.4.8 0-.2.5-1.1.5-2 .9-3 1-1.4.2-1.8.9-.6 1.2.6.1 2.9-.4 3.2-.7.1-.1.3-.2.5-.2.1 0 .6-.2 1.1-.4.5-.2 2.3-.9 4-1.6 4.1-1.6 5.8-2.4 6-2.7.1-.1.6-.5 1.1-.8.5-.3 1.4-1.1 2.1-1.7.6-.6 1.7-1.4 2.3-1.8.6-.4 1.1-.8 1.2-.9.6-1 .4.5-.2 1.8-.4.9-.6 1.1-2.2 2.2-.6.4-.7.6-.6.7.2.1-.1.5-.9 1.2-1.3 1.2-1.7 2.4-.5 1.4 1.5-1.3 2.5-1.3 1.4-.1-1 1.1-2.2 2.7-2.2 2.9 0 .3.5.1 1.2-.5 2.7-2.5 6.4-2.9 6.4-.7 0 .9.4.6.9-.8.5-1.3.6-2.8.2-4.4-.2-.7-.1-1.1.5-2.6.6-1.8 1-2.2.6-.7-.1.4-.2 1.1-.2 1.4 0 .4-.1.9-.3 1.2-.4.7-.4 1.2.1 1.2.4 0 1.9-2.1 2.6-3.9.6-1.5 1.4-2.7 2.6-4l.9-.9-.1.7c-.2 1-1.2 2.6-2.5 4-1.5 1.6-1.4 1.8.6 1 .4-.2.8-.3.9-.4.7-.1 4-2.9 4.7-3.9 3.1-4.7 1-8.3-6-10.1-.8-.2-1-.6-.3-.6 1.2.1 2.8 0 2.4-.2-.3-.1-1.2-.2-2.2-.1l-1.7.1-1.2-1.4c-.6-.8-1.3-1.6-1.5-1.8-1.5-1.5-3.6-4.7-3.4-4.9 0 0 .3.3.6.7.9 1.3 3.9 3.7 3.5 2.9 0-.1-.3-.9-.5-1.6-.2-.8-.5-1.6-.6-1.8-.3-.7 0-.5.5.5l.5.9.1-.6c.2-2.4-2.5-7.7-4.8-9.3-1.1-.7-1-.9.2-.4 1.1.5 2 1.2 2.7 2.2.3.4.6.7.6.6 0-.5-.4-1.2-1-1.9-.5-.6-.6-.8-.6-1.9 0-1-.1-1.3-.6-2-1.3-1.7-1.2-1.6-.8-1.5 1.1.3-.6-2.3-2.3-3.6-.6-.5-1.3-1.1-1.5-1.4-.4-.5-.4-.5 0-.2.7.6 1.9 1.2 2.1 1 .6-.3.1-1.1-1-1.9-1.3-.8-1.7-1.2-3.6-3.1-2.7-2.8-7.4-3.7-9.5-1.8-.2.2-.8.4-1.4.6-.6.2-1.6.5-2.1.7-.8.4-1.4.5-3.1.5l-2.1.1 1.1-.5c.6-.3 1.9-.7 2.9-.9 5.2-1 8.4-3.5 8-6.4-.1-.7-.2-1.9-.3-2.7-.1-.8-.2-1.5-.2-1.6-.1-.1 0-.3.2-.5s.3-.5.3-.8c0-.7.3-1.2.5-.7.1.2.1.5.1.7 0 .5.4.4.9-.4.6-.8.6-.4 0 1.3-.3 1.1-.4 1.8-.4 3.7 0 3.6.3 4.3 2.5 5.7 1.7 1.1 3.6 2.8 3.7 3.4.1.7.8.8 1.4.2 1-1.1.3-7.4-1-8.7-.2-.2-.5-.7-.8-1-.2-.4-.4-.7-.5-.8-.1-.1.2-.2.7-.2 3.5-.4 5.3-4.8 4.2-10.3-.2-1.2-.4-3-.4-4.5 0-2.4-.2-3.1-.7-2.6-.2.2-1.2 3.8-1.2 4.2 0 .3-1.6 3.2-3.2 5.8-.7 1.1-.7 1.2-.6 2.4.1.7 0 1.6 0 2l-.2.7-.3-1c-.2-.6-.3-1.2-.3-1.3 0-.2-.1-.5-.3-.6-.2-.2-.3-.6-.3-1 0-.7 0-.8-.6-.8-.8-.1-.9-.5-.2-.8.3-.2.6-.4.5-.4-.1-.1-.3 0-.5.2s-.6.3-.7.3c-.2 0-.1-.1.2-.3.7-.5.9-.8 1.3-1.9.9-2.3.7-3.3-.3-1.4-.5.9-1.5 1.7-2.6 1.9-.7.1-1.7-1.5-2.6-4.3-.5-1.6-1.9-2.7-3.2-2.6-.9.1-1 .7-.1 1.1.6.3.7.4 1.1 2.3.2 1.1.9 3.2 1.5 4.7s1.2 3.4 1.4 4.1c.4 1.7.4 1.9 0 1-.2-.6-1.5-2.4-1.7-2.4-.1 0-.2.4-.2.9-.1.5-.2 1.1-.2 1.3s-.1.5-.1.7c0 .2-.1-.2-.2-.9l-.1-1.2-.3.9c-.4 1.3-1.3 3-1.9 3.4-.5.3-.7.2-.3-.2 1-1 1.7-5.9 1.2-8.8-.3-1.7-.6-2.1-.6-.6 0 1.3-.2 1.5-.3.3-.3-1.7-1.1-3.5-2.1-4.7-.8-.9-1-.9-.6-.1.1.3.4 1.3.7 2.1.9 2.9.8 3.9-.1 1.3-1-2.7-1.8-4.2-4.1-7.6-.5-.7-1.5-2.4-2.2-3.8-1.3-2.5-1.9-3.2-1.9-2.2 0 .4 0 .4-.3-.1-.3-.6-.6-.7-.4-.2.1.2.2.4.2.5 0 .1.2.4.3.7.1.3.2.5.1.6-.1.1-.2 0-.2-.1a8 8 0 0 0-.8-1.4c-1.2-1.8-3.3-5.3-3.3-5.4 0-.4-1.8-2.1-2-2-.5.2-.2.8 1.1 3 .8 1.3 1.4 2.4 1.5 2.5.2.4-1.8-1.8-2.5-2.9-1.9-2.8-1.6-1 .4 2 1.1 1.7 1.7 2.8 2.6 4.9.3.8.8 1.8 1 2.2.3.7.6 1.4.7 1.9 0 .1.2.6.5 1.2.2.5.4 1.1.4 1.2 0 .2.1.3.2.3s.2-.2.1-.3c-.1-.2-.1-.8-.2-1.3l-.1-1 .3.6c.8 1.7.9 2.7.9 8.1 0 4.3.1 5.5.3 6.3.2.6.3 1.2.4 1.5.2 1.7 1.9 3.2 3.3 3 .3 0 .5 0 .5.1s.1.1.1.1c.1 0 .3 0 .5.1s.6.1.8.1c.6-.1.6 0-.1.4s-4.7.5-5.8.2c-.5-.2-1.8-1.7-3-3.6-.4-.7-1.1-1.5-1.5-1.8-.9-.7-.6-.7.5-.1l.8.5v-.7c0-.7-.6-1.1-1.7-1.2-.3 0-1.2-.3-1.3-.5-.1-.1-.5-.4-1-.7-1.3-.9-3.8-3.6-3.2-3.6.1 0 .3.3.6.7 1.1 1.6 1.5 1.6.7 0-1.5-3.1-1.4-5.3.4-8.9l1.1-2.2-.1-2.1c-.1-1.9-.5-3.4-1-3.9s-.9-.2-1.4 1.3c-.3.9-.6 1.7-.7 1.9-.3.4-.4.1-.2-.4.3-.9.5-3.8.2-4.7-.3-1.1-.5-1-.7.3-.1 1.2-.8 3.4-1.4 4.2-.2.3-.3.4-.2.2.1-.2.2-.5.2-.7s.1-.3.1-.3.1-.2.1-.5.2-.5.3-.6c.1 0 .1-.1.1-.2-.1-.1 0-.8.1-1.7.2-1.2.2-1.7 0-2.6-.4-1.5-.6-1.9-.6-.9 0 2.4-.3 2.8-.5.7-.5-2.3-.7-2.8-1.1-2.5m115.9.3c0 .2-4.3 1.7-4.5 1.5-.2-.2.3-.5 1.5-.8.6-.2 1.4-.4 1.9-.6 1-.3 1.1-.3 1.1-.1m-151 .7c-.1.2-.4.6-.7.8-.3.3-1 1.1-1.6 1.8-.6.7-1.2 1.4-1.3 1.6-.4.4-1.2 1.9-1.9 3.5-.2.5-.2.5-.1-.1.4-1.9 3.6-6.7 5-7.6.9-.4.9-.4.6 0m3.1.5c-.4.3-1 1.1-1.4 1.7l-.8 1.2c-1.3 1.1-4.2 6.3-4.6 8.2-.2.8-.9 2.1-1 1.8-.1-.4 3.1-8.3 3.7-9 1.7-2 2.4-2.7 3.4-3.6 1.1-1 1.8-1.3.7-.3m13.3.5c-.4.3-.8.5-.9.5-.1 0-.3.2-.6.4-.5.5-1.3 1-2.8 1.8-1.4.8-2.2 1.3-3.7 2.5-1.1.9-1.3.9-.6.1.3-.3.6-.7.5-.7-.1-.1-2.6 1.6-2.8 1.9-.1.2-.8.8-1.7 1.4a18.8 18.8 0 0 0-6.2 7.2c-.7 1.3-.5.6.2-1.1.5-1.1 1.7-2.9 2.4-3.6.1-.2.4-.5.6-.8l.4-.6-.4.2c-4.6 2.4-8.2 12.8-6.3 18 .2.6.4 1.2.4 1.5 0 1.1 1.2 3.2 1.8 3.2.2 0 .4.1.6.3.1.2.5.4.8.6.4.2.5.3.3.5-.3.2.6 2.1 1.3 2.7l.4.4.1-.5c.1-.5.2-.5.3-.2.1.2.2.5.1.6 0 .1.3.6.7 1l.8.8v-1.8l.3.6c.6 1.4 2 2.4 2 1.5 0-1 0-1.4.2-1.3.1.1.2.2.2.4-.1.6.3 1.5.9 2.1.7.7 1.1.7 1.1-.1 0-.3.1-.5.2-.5s.2.1.2.1c-.1.6.1 1.1.8 1.8l.8.7-.9-.1c-.7-.1-1.9-.6-3.2-1.2-.7-.4-3.1-1.3-3.2-1.2 0 0-.4-.2-.8-.6-.4-.4-1-.8-1.3-1.1l-.5-.4.3.7c.7 1.9 1.8 3.9 2.9 5 .8.8 1 1.2.9 1.3-.1.1-.2.2-.1.3.1.1.2 0 .3-.1.1-.2.3-.2.8.2.3.2.7.4.8.4.1 0 .5.3.9.6.8.7 1.1.8.9.2-.1-.3 0-.3.3.1.4.4 1.6 1 1.8 1 .1 0 0-.2-.1-.4-.3-.7-.1-.8.4-.3.6.6 1.7 1.1 3.3 1.7 1.9.6 3.7 1.6 4.8 2.6.6.5 1.1.9 1.2.8.1-.1.2.1.3.3.1.2.2.4.2.3.1-.1 0-.6-.2-1.1-.2-.5-.4-1.5-.5-2.1-1-4.8-1.9-6.7-4.5-9-.4-.3-.9-.8-1.1-1.2-.2-.3-.8-1-1.2-1.6-.5-.6-.8-1.1-.8-1.2 0-.1-.3-.5-.6-1-1.5-2.1-1.7-3.9-1.3-8 .5-4.8 2.2-11.7 3.7-15.1.3-.7.7-1.7.7-2.2.1-.5.3-1.4.5-1.8 1.1-3-1-3.1-4.5 0-.2.2-.8.5-1.4.8-.7.3-1.6 1.1-3.5 3-1.4 1.4-2.2 2.2-1.9 1.7 1.3-1.8 2.5-3 4.6-4.7 1.2-1 2.3-1.9 2.5-2.1.1-.2.6-.6 1.1-1 .5-.4 1.4-1 2-1.5.6-.5 1.4-1 1.8-1.2 1.8-1 3.2-2.2 3-2.8.2-.2 0-.2-.8.4m14.9 2.2c-1 1.7-1.7 2.5-1.5 1.8.2-.7-.1-.5-1.3.8-2.5 2.8-3.1 5.6-1.8 9.2.3 1 .3 1 .5.4.3-.7.5-.7.5 0 0 .9.3.9.7-.1.2-.5.6-1.5 1-2.2 2.1-3.7 2.6-5.2 3.1-8 .3-2.2.4-2.7.1-2.7-.1 0-.2.2-.2.3 0 .2-.1.5-.2.6-.2.3-.1-.3.1-1.2.3-.7-.2-.2-1 1.1m-67.7 3.4c-1.1 2.2-2.6 5-3.2 6.2-1.2 2.4-1.6 3.3-2 4.6-.1.4-.6 1.9-1.1 3.3-.8 2.3-2.4 8.4-2.4 9.2 0 .2-.1.4-.2.4-.1.1-.2-.1-.1-.6.1-.4.2-1.3.3-1.9.5-3.1 1.9-8.3 2.9-10.2.2-.3.7-1.7 1.1-3.1 1-3 5.9-11.8 6.6-11.8.1-.1-.8 1.7-1.9 3.9m119-2.1c-.2.2.1.7.6.7s.5 0 .1-.4c-.3-.4-.5-.5-.7-.3m-114.5 1.6c-.3.6-.5 1.1-.4 1.2 0 0 .3-.4.6-1s.5-1.1.4-1.2c0-.1-.3.4-.6 1m107.1 1.1c-.2.2-.2.3.1.3.2 0 .3-.1.3-.3 0-.2 0-.3-.1-.3l-.3.3m4.3.4c0 .5.8 1.3 1.3 1.3s.5 0 .1-.2c-.2-.1-.6-.4-.8-.8-.3-.6-.6-.8-.6-.3m-2.3.1c0 .1.1.4.3.6.6.8.3 1-.4.2s-.9-.8-1.5-.5c-.4.2-.4.2.1.8.8.8.5.9-.5.2-.8-.5-.9-.6-1.4-.2-.3.2-.9.5-1.3.8-.9.6-1 .8-.3 1.5.6.6.1.7-.5.1-.9-.9-2-.1-1.4.9l.3.5-.4-.4c-.5-.6-.8-.6-1.7.3-.9.9-.9.9-.2 1.9.3.4.4.7.4.7-.3 0-1-.5-1.2-.8-.3-.4-.3-.4-.5 0-.1.2-.4.4-.5.4h-.4c-.3 0-.2.9 0 1.2.2.2.2.2 0 .2-.3 0-.8-.8-1-1.6-.2-1-.7-1-1 0-.8 2.2.7 5 2.7 5 .4 0 .6.1.6.2 0 .3 1.5-1.3 1.9-2.1.4-.7 6.2-6.5 6.9-6.8.3-.1 1.3-.4 2.2-.5 2-.3 1.9-.3 1-1.2-.4-.4-.8-.9-.9-1.1-.2-.6-1.3-.7-1.3-.3m11.3 1c0 .7 1.6 4.4 2.5 5.6.2.3.5.7.6 1l.2.5-.6-.4c-.5-.3-.5-.3-.3 0 .2.2.7.6 1.1.8 1 .6 1 .7.1.4-1.4-.3-3.2-1.8-4.7-3.9-.5-.7-2.9-2.5-3.4-2.5-.1 0-.4-.2-.6-.4-.2-.2-.6-.4-.9-.4-.5 0-.5 0 .2.4 1.5.9 3.1 2.6 3.9 4 1.9 3.5 3.8 4.5 7.9 4.5 2.6 0 2.6 0 1.9-.7-2.2-2.3-3.8-6-3-6.8.4-.4.4-2 .1-2-.5 0-1.3 2.1-1.2 3.1 0 .4 0 .4-.2.3-.1-.1-.2-.9-.2-2v-1.8h-.5c-.7 0-.7.2-.7 1.5v1c-.2 0-.6-1.1-.7-1.7-.1-.9-.3-1-.9-1-.5.1-.6.2-.6.5m-74.2 1.3c-.2.5-.2.5.1.2.2-.2.3-.4.2-.6 0-.1-.2.1-.3.4m-80.7.7c-.1.3-.3.5-.3.4-.1-.1.2-.9.4-.9 0 0 0 .2-.1.5m170.3.7c-1.2.7-.2 6.7 1.5 8.4.5.5.3.4-.9-.2-2.2-1.1-3-1.7-4.1-3.3-1.3-1.7-1.4-1.8-1.2-.9.3 1.6 2.1 4 3.7 5.2 2 1.5 2.2 1.5 4.2 1.5 2.9 0 3.2-.2 2.1-1.3a5.81 5.81 0 0 1-.4-7.7c.3-.4.6-.8.5-.9-.2-.2-1.7.5-1.7.8 0 .1-.1.1-.1.1-.1-.1.1-.5.4-.9.6-.8.6-1 .3-1-.6 0-2.2 2.3-2.2 3.1 0 .3-.1.4-.2.3-.1-.1-.2-.6-.1-1.6.1-.9.1-1.5-.1-1.5-.4-.2-.8.7-.8 1.7 0 1.3-.3.8-.5-.8 0-1.2 0-1.2-.4-1m11.8.9c-.4 1 .4 4.7 1.5 7.1.3.7.6 1.4.6 1.5 0 .2.4.6.8 1.1.9.9.8.9-.5.5-1.9-.7-3.9-3.1-5.1-6.4-.9-2.2-.9-2.3-.8-.7.2 2.3 1.5 6.2 2.1 6.2.1 0 .7.4 1.4 1 2 1.5 7 2.8 8.2 2.1.3-.2.6-.4.8-.4.4-.1.5-.7.1-.7s-2.1-1.7-2.5-2.5c-.9-1.7-.8-4.4.2-6.4.5-.9.4-1.7-.1-1.7-.7 0-2 2-2.3 3.4-.1.6-.2.7-.3.4-.3-.5.1-2.7.6-3.7.4-.8.4-1.1-.2-1.1-.6 0-1.5 1.4-1.6 2.4-.1 1-.4.4-.3-.7 0-1.4-.3-1.9-.7-1.3-.2.3-.3.7-.2 1.9.1.8 0 1.5-.1 1.4-.2-.1-1-2.6-1-3.2-.1-.4-.4-.6-.6-.2m-79 1.9c-.8 2.3-.7 2.9.1 1.2.6-1.3 1.7-2.8 1.4-2-.1.2-.3.7-.4 1.1-1.5 4-.9 9.2 1.2 11.6.6.6.8 1.1.7 1.3-.1.2-.1.3 0 .2.1-.1.6.3 1.3.8l2.2 1.8c.6.5 1.2 1 1.2 1.2.1.2.3.6.5.8.6.7 1.7 2.5 1.5 2.5-.1 0-.5-.5-1-1.1-.9-1.3-2.1-2.3-3.7-3.3-.6-.4-1.4-.9-1.7-1.2-.3-.3-.6-.5-.8-.6-1.8-1-4-3.9-5-6.5-.7-1.8-.7-2.6 0-1 1 2.3 2.7 5.1 2.3 3.7-1-3.5-1.1-4.1-1.1-6 0-2.5 0-2.8 1.2-5.4.7-1.3.7-.8.1.9m6.4-1.5c-.2.2-.1.5.2.5.2 0 .3-.1.3-.2 0-.3-.3-.4-.5-.3m96.1.2c-.5.1-.9.4-.9.7 0 .1 1.3.1 2.8.1 3.3 0 5.1.4 7.5 1.9.8.5 1.6 1 1.9 1.1.5.3 3.1.3 3.1.1 0-.1-.4-.2-.9-.3-1-.1-2.9-1.1-4.2-2.3-.5-.4-1.3-.9-1.7-1-.8-.3-7-.5-7.6-.3m-95.5 2.2c-3.8 3.3-2.6 9.2 1.8 8.7 1.1-.1 1.1 0 1.2-1.9.1-2.1-.3-3.7-1.3-5.8-1-1.8-.8-1.7-1.7-1m88.7-.3c-.1.2-.4.3-.6.2-1.8-.5 1.9 5.6 4.3 6.9 1.3.7 1.3.8-.2.6-.6-.1-1.6-.2-2.1-.3-2.1-.2-3.4-1.6-4.8-4.8-.8-1.8-1.1-2.3-1.4-2.3-.6 0 1.4 6.4 2.2 7 2 1.6 5.8 2.3 9.1 1.7.9-.2 2.1-.4 2.6-.4 1.4-.1 1.7-1.8.3-1.8-.8 0-4.2-3.2-5-4.7-.8-1.4-1.2-.3-.7 1.9.4 2.1-.7-.7-1.3-3.1-.4-1.6-.8-1-.8 1 0 .3-.1.5-.2.4-.1-.1-.1-.2-.1-.3.1-.1 0-.2-.1-.2-.2 0-.5-1-.5-1.7 0-.4-.4-.4-.7-.1m-161 1.9c-.8 1.7-1.6 4.4-1.6 5 0 .2.4-1 1-2.6s1.1-3.2 1.3-3.5c.2-.3.3-.6.2-.7-.1 0-.5.8-.9 1.8m5.1.1c-.5 2.1-.6 3.2-.4 2.8.2-.4.9-3.6.8-4 0-.2-.2.3-.4 1.2m-86.6.5c-1.4 1.2-2.5 3.7-3.6 7.9-.8 3-.9 3-.8.4.1-1.6.2-2.8.5-3.6.2-.7.4-1.3.3-1.3-.2-.2-2.1 2.2-2.6 3.2-.8 1.7-2.3 5.4-2.3 5.7 0 .2-.1.2-.2.1s-.1-.8.1-2.1c.4-2.2.3-2.4-.3-1.3-1.7 2.7-2.3 5.1-2.8 11.6-.5 6-.8 5.3-.7-1.8 0-2.6.1-4.6.3-5.6.3-1.7.3-2-.1-1.1-1.3 2.5-2.4 13.1-1.8 17.1.2 1.1.3 3.7.4 5.7.2 5.9.3 7.5.8 10.1.3 1.3.5 2.7.6 2.9.2 1.3.5 2.7 1.1 5.1.3 1.4.6 2.9.7 3.3.1.4.2.8.2 1 .1.2.1.6.2.9 0 .3.3 1.4.5 2.5s.5 2.2.5 2.5c.4 2.6 1 3.1 1 .7 0-1 .1-1.6.2-1.6s.2-.2.1-.5-.2-1.7-.4-3.2c-.3-2.6-1.1-7.5-1.9-10.6-.2-.9-.4-2.2-.4-3 0-.8-.2-2.5-.4-3.8-.4-2.2-.3-9.5.1-13.2 0-.4.1-1.5.2-2.5l.2-2c0-.1.2-1.2.4-2.4.4-3 .5-3.2.9-3.4.3-.2.3.1.4 3 0 1.8.1 3.3.1 3.4.1.1.1 1.5.1 3.2 0 1.7.1 3.2.2 3.4.1.3.8-3.9 1.2-7.3.1-.8.3-2.6.5-3.9.2-1.3.3-3 .4-3.7.4-3.4.6.4.5 7.3 0 1.8 0 4 .1 4.8.3 3 .1 9.4-.4 11.6-.4 2.1-.6 5.8-.3 8.1.1 1 .1 1.2-.2 1.2-.4 0-.4 8.9 0 12.6.5 4.9 2.2 11.2 3.5 13.1 1.8 2.7 3.6 5.4 3.9 5.7 2.2 2.4 3.9 7.1 3.7 10.3-.1 1.4-.1 1.6.2 1.6.6-.1.8-1.3.6-4-.2-4.1-.9-5.9-4.3-11.2-2.5-4-2.6-4.2-3.8-8.5-.2-.5-.3-1.8-.3-2.8 0-1-.1-2.5-.2-3.3-.2-1.5 0-3.7.5-10.4.6-6.6-.4-6.6-1.2-.1-.6 4.3-1.2 7.5-1.3 7-.1-.4-.7-5.8-.7-7 0-1.4-.2-2.1-.4-2-.1 0-.2-.1-.2-.2 0-.3.5-.3.7-.1.4.4.4 0 .4-2.1 0-2.9.2-4.7 1.3-9.2.9-3.9 1.3-9.2.8-12.5-.2-1.7-.3-10.7-.1-12.2.3-1.8.8-4.3 1-4.5.1-.1.1 2 .1 4.7 0 6 .6 13.8 1 13.2.6-1 .7-2.7.7-11 0-4.7.1-8.7.2-9 .1-.3.2-1 .2-1.7.2-1.3.8-4.3 1.1-5.1.2-.9-.2-.9-1-.1m38.3 2.9c-.6 2.8-.1 9.2 1.3 15.3.6 3 1.3 8.4 1 8.6-.1.1-.2-.1-.2-.3 0-.2-.1-.7-.1-1-.1-.3-.3-1.3-.4-2.2-.6-3.5-.9-4.8-1.5-6.4-1.5-4.5-1.8-10.7-.7-14.5.2-.6.4-1.4.5-1.9l.3-.9.1.9c0 .4-.1 1.6-.3 2.4m71.3-1.1c-.6 1.2-1.1 2.3-1.1 2.5 0 .1-.1.2-.1.1-.3-.3 1.7-4.8 2.2-4.8.1 0-.4 1-1 2.2m18 .6c.1 1.2.9 4.7 1.5 6.5.2.6.4 1.4.5 1.8.3 1.2 2.3 6.5 3.3 8.5.9 1.8 1.1 2.6.6 2-3.9-4.7-5.6-8-6-11.7 0-.4-.1-1.1-.2-1.5-.3-1.5-.2-6.8.1-6.7l.2 1.1m115 1.2c.3.3.6.5.6.5.1-.1-.2-.3-.5-.6l-.6-.5.5.6M126 148.8c-.3 1-.8 2.7-1 3.7-.2 1-.5 2.1-.6 2.4-.3 1.2-.8 4.1-1 6.4-.1 1.2-.3 2.8-.5 3.6-.1.8-.4 2.2-.5 3.2-.1 1-.3 2.2-.4 2.6-.5 2.6-1.3 5.5-1.6 6.3-.4 1.1-1.6 5.9-2.4 9.9-.3 1.3-.6 3-.8 3.7-1.3 6-1.4 6.6-1.4 10.4 0 7.3 1 12.8 3.2 17.5.5 1 .9 1.9.9 2 0 .1.2.2.4.2.3 0 .4-.1.3-.3-2.3-5.7-2.9-8.8-2.9-15.7 0-5.8.2-10.2.6-11.9.1-.3.2-.9.3-1.5.1-.5.5-1.9.9-2.9 2.5-7 3.4-10 4.1-14.4.3-1.7.7-4.3 1-5.8.9-4.8 1-6.2 1-8.2 0-1.1.1-2.4.3-2.9.2-.5.3-1.8.4-2.8.1-1 .2-2 .2-2.2.1-.6.4-5.2.3-5.2-.1 0-.4.8-.8 1.9m110.9 1.5c0 1.7.3 4.2.7 6 .4 1.5.3 1.7-.3.5-.7-1.6-1-4.7-.7-7.1.2-1.3.3-1.1.3.6m-14.1 3.6c.4 1 .7 1.3 1.2 1.5.3.1.7.4.8.5.2.3 2.2.2 2.5 0 .1-.1.5-.4.7-.6l.4-.4-.2.5c-.4 1-.6 1.3-.9 1.3-.2 0-.3 0-.1.2.3.2-.6 1.2-1.2 1.3-.3.1-.5.2-.5.3 0 .1-.1.1-.2.1s-.5-.1-.8-.2c-1-.2-1.6-1.2-2.2-3.7-.1-.2-.1-1.5-.2-2.8-.1-2.2 0-2.3.1-.8 0 1 .2 1.9.6 2.8m-67.7-1.7c0 .6.1 1.2.2 1.2.1.1.2-.2.1-1-.2-1.5-.3-1.6-.3-.2m18.6-.8c-2.2 2.8-2.6 27.4-.5 32.2.3.6.9 2.2 1.3 3.5.5 1.3 1.1 3.1 1.5 3.8.3.8.9 2.1 1.2 2.9.7 1.9 1.5 3.1 2.2 3.5.7.5.7.3.1-1.1-3.1-7.4-4.5-13.5-4.6-20.1 0-3-.1-5.5-.1-5.7v-1.6c0-.7-.1-2.3-.3-3.5s-.3-3.5-.3-5-.1-3.3-.2-4c-.1-1.3 0-3.7.3-4.7.2-.5-.2-.7-.6-.2m72 1.6c.2.6.3 1.1.2 1-.3-.3-1.1-2.6-.8-2.3.1.1.4.7.6 1.3m-102.2.1c0 .5-.1.9-.1.9s-.1.2-.1.5-.4 1.2-.7 2.1c-.6 1.5-1 2.3-.9 2.3l-.9 2.5a119 119 0 0 0-1.5 4.4c-.4 1-1 2.8-1.5 4-.8 2.2-1.7 5.3-1.5 5.5.1.1.1.1.6-1.6.2-.6.5-1.2.6-1.2.1-.1.2-.2.2-.4-.1-.2 0-.2.1-.2.1.1.3-.4.6-.9.5-1.2.6-.6.2 1a54 54 0 0 0-1.3 10.7c0 2 .1 2.6.7 4.6.4 1.3.8 2.8.9 3.4.1.6.5 1.7.8 2.4.3.8 1 2.4 1.4 3.7.5 1.3 1 2.9 1.3 3.5.4 1.1.5 1.6 1.4 4.9.4 1.6.5 2.4.3 2.2-.1-.1-.2-.2-.2-.4 0-.1-.2-.7-.5-1.3-.2-.6-.7-1.9-1.1-2.9-.4-1-.8-2.2-.9-2.5l-.3-.7-.1.8c-.1.9 0 2.6.3 6.6 0 .4.1 1.4.2 2.1.1.7.2 1.9.4 2.6.1.8.4 2.1.6 3.1.3 1.8.8 3.1 2.5 6.7.6 1.2 1.1 2.4 1.2 2.6.2.5.6 1.5 1.6 3.6a30 30 0 0 1 1.8 5.6c.2 1.7.3 3.7.1 4.1-.1.4-.2.3-.2-.5 0-1.8-1.5-6.5-2.8-9.1-.4-.7-1-2.2-1.4-3.2-.4-1-1.7-3.8-2.9-6.2-3.9-7.8-5.9-15.7-5-20.3.1-.6.3-1.7.3-2.5.1-.8.2-1.7.3-2.2.2-.7.1-1.1-.6-2.9-.9-2.4-1.9-6.6-2-8.5 0-.7-.1-1.9-.2-2.6-.2-2.5.5-6.5 1.9-10.1.4-1 .9-2.4 1.2-3.2 1-3 3.3-8.7 4.2-10.4.3-.6.7-1.7.9-2.4.1-1.4.2-1.4.1-.2m105.3 2.8c1 2.5 1.2 2.9.7 2.2-.2-.3-.6-1.2-1.8-4.3-.1-.1-.1-.2 0-.2.1-.1.6 1 1.1 2.3m-150.1.8c-.5.7-1.1 1.3-1.2 1.4-.5.5-2 3.7-2.7 5.5-1.3 3.5-1.6 3-.6-1.1.4-1.7.4-2.1-.1-1.3-.2.3-.3.6-.4.6-1.2 1.1-2.9 6-4.1 11.5-.7 3.4-1 12.1-.4 14.2.1.4.3 1.9.5 3.3s.4 2.7.5 3c.1.2.4 1.5.7 2.8.6 2.9 1.6 7.3 1.9 8 .1.3.4 1.1.6 2 .5 1.8 1.3 4.1 1.4 3.8 0-.1-.2-1.2-.5-2.5-1.1-5.3-1.7-11.4-1.6-15.2 0-1.2-.1-3.8-.2-5.8-.2-2.2-.2-4.3-.1-5.6.2-2.2.3-2.5.4-1 .3 3.6.4 4.3.5 4.6.1.2.2 0 .2-.5 0-4.9.7-10.7 1.5-13.5.3-.9.5-1.9.6-2.2.1-.2.2-.4.3-.4.2 0 .2.7-.1 2.4-.4 1.9-.6 4.4-.3 4 .1-.2.4-1.1.7-2.1.3-1 1-3 1.5-4.3.5-1.4 1-2.9 1.1-3.5s.2-1.6.2-2.2c.2-1.6.3-2.9.4-3.3.1-.3.1-.3-.2-.1-.9.9-.7 0 .5-2.8.3-1.1.1-1-1 .3m72.2-.4c-1.5 3.9-2.5 16.4-1.8 21.9.3 2.9.3 4.2 0 2.4-.8-3.9-1.1-9.4-.6-13.6.1-.7.1-.9-.1-.6-.1.2-.4 1.9-.6 3.7-1.3 9.9.2 16.2 4.7 20.8.7.7 1.4 1.6 1.7 2.1.6 1 2 2.6 2.1 2.4.2-.2-1.5-4.9-2.6-7.3-.2-.4-.9-3.3-1-3.9 0-.2-.1-.5-.2-.6-.1-.1-.2-.5-.2-.9-.1-.4-.2-.9-.2-1.3s-.3-1.6-.5-2.8c-.3-1.5-.4-2.6-.3-3.5.1-.7.2-4.6.2-8.6.1-4 .1-8.1.2-9 0-1.7-.4-2.3-.8-1.2m12.5 4.7c.2 1.1.5 2.2.5 2.4 1 7.6 1.3 14 .8 17.2l-.2 1.5-.6-2c-.7-2.1-1-6.7-1.1-15.6 0-3.2-.4-4.2-.6-1.7-.1.7-.3 2.1-.4 3.1-.2 1-.4 2.9-.4 4.2-.1 1.6-.2 2.3-.3 2.1-.2-.4 0 6.4.2 7.1.1.2 0 .4-.1.4-.6 0-1-7.2-.5-10.5.1-.6.3-2 .4-3.2s.3-2.7.4-3.4c.1-1 .7-3.9 1.2-6.2.1-.3.2.1.3 1.2-.1.8.2 2.4.4 3.4m-35.1-3.2c.2 1 .1 9.8-.1 10.9-.1.6-.2 1.3-.3 1.6-.2 1-1.7 5.6-2.3 6.9-.3.8-.7 1.6-.9 2-1.2 2.7-2.5 7.5-2.5 9 0 1.8.2 3.6.6 5.3.1.4.2 1.3.3 2 .2 1.9-1.7-3.9-2.4-7.6-1.5-7.3-.2-20.4 2.3-24.9.3-.5.8-1.3 1.1-1.9 1.2-2.2 1.1-.9-.1 1.7-1.7 3.6-3.4 14.1-2.4 14.7.2.1 2.6-4.7 2.9-5.7.1-.3.3-.7.4-.9.1-.2.5-1.1.7-1.9.2-.8.5-1.5.5-1.6.1-.1.1-.3.2-.4 0-.1.2-.8.3-1.5.2-.7.3-1.7.3-2.2 0-.5.1-1.5.3-2.2.4-1.7.4-1.9.5-2.9.2-1.1.4-1.2.6-.4m103.5 5.3l.1.5-.3-.5c-.2-.3-.3-.7-.4-1l-.1-.5.3.5c.2.3.4.7.4 1m-137.8.3c-.1.1-.1.7-.1 1.4s-.1 1.8-.2 2.4c-.1.6-.3 2.1-.4 3.4-.1 1.3-.3 3-.4 3.7-.1.8-.3 1.6-.3 2-.4 2.4-1.3 7.1-1.6 8.1-.5 1.4-.5 2.6-.2 2.5.3-.1.9-1.8 1.9-4.6.3-.9.7-2 1-2.5.8-1.6 1.1-4.5 1-10.4-.1-6.1-.1-6.5-.7-6m65.3 1.2c-.1.7-.2 1.3-.3 1.4-.1.1-.1-.1 0-.4.1-.3.1-1 .1-1.4 0-.5.1-.8.2-.8s.1.5 0 1.2m-11.4-.5c0 .1-.2.5-.3.9-.2.8-.1 1.1.1.4.3-.7.4-1.5.3-1.5 0 0-.1.1-.1.2m85.2 1.3c-.2.2-.7-.9-.6-1.1.1-.2.2 0 .4.4.1.3.2.6.2.7m-117.9.3c-.2.3-.6 1.2-.8 2-.2.7-.6 1.6-.7 1.9-.8 1.6-1.5 4.5-1.8 7.6l-.4 4c-.2 2-.3 8.4-.1 10 0 .5 0 .7-.1.6-.2-.3-.7-3.5-.8-4.5 0-.4-.1-1.2-.1-1.9-.1-1.5.4-9.6.6-10.3.1-.2 0-.2-.1-.1-.4.4-1.6 6.6-2 10-.3 3.2.2 10.1 1 13.2.1.4.2.9.3 1.1.1.6 1.5 4.8 2.1 6.4 1 2.7 2.3 9.5 2.2 11.9-.1 1.8-.1 1.9-.4.8-.1-.6-.3-1.4-.3-1.8 0-.4-.1-.8-.2-.9-.1-.1-.2-.6-.2-1.1-.3-1.9-1.7-7.2-2.6-9.3-.5-1.2-1-2.7-1.2-3.4-.2-.7-.5-1.7-.8-2.2-2-4.3-3.1-12.8-2.2-17 .9-4.2 3.1-9.3 5.6-13.2 1.7-2.6 4.2-5.9 3-3.8m114.7 2.2l.5 1-.5-.6c-.5-.6-1.7-2.5-1.7-2.7 0-.3 1.1 1.1 1.7 2.3m-98 3.6c0 2.9-.5 5.3-1.5 8.1-1.2 3-2.5 7.8-2.5 8.7 0 .4-.1 1.8-.3 3.1-.8 5.5-.4 12.6.9 17.3.3 1.1.6 2.5.7 3l.1 1-.5-1.1c-4-8.6-4-19.4.1-32 1.3-3.9 2.1-7 1.9-7.2-.1 0-.3.6-.5 1.3-.5 1.6-1 2.9-1.7 4.4-.3.5-.5 1.1-.5 1.1 0 .1-.5 1.4-1 2.4-.5 1.1.3-1.9 1-3.6.5-1.3 1.4-4.3 1.4-4.7 0-.1.1-.5.3-.9.4-1.1 1-4 1.2-5.7l.1-1.4.4 2.1c.3 1.5.4 2.9.4 4.1m-25.8-4.4c-.1.4-.5 2.3-.9 4.2-.7 3.2-1 4.6-2.2 8.1-.8 2.5-2 7.2-1.8 7.4.2.2 1.2-2.5 1.9-4.9.4-1.5 1.1-3.5 1.4-4.4.3-.9.7-2 .9-2.6.1-.6.4-1.6.5-2.3.2-.7.3-2.4.4-3.8.1-2.4 0-3.1-.2-1.7M98 169.4c-.2.9-.3 1.8-.3 1.9.1.4.2 0 .5-1.7.4-2 .2-2.1-.2-.2m3.8-.6c-.1.7-.3.6-.2-.1 0-.3.1-.5.2-.5 0 .1.1.4 0 .6m13.7 3.7c0 .7 0 1 .1.6v-1.3c0-.4-.1 0-.1.7m99.2.6l-2 .8.2.7c.3.9.9 2.9 1.9 5.7.8 2.3 1.1 3.2 2 6.6.5 2 .8 2.3 1.7 1.3.4-.5.4-.5.1-.9-.3-.3-.3-.3.2-.3.9.1 1.3-.9.6-1.4-.6-.5-1.4-1.7-1.2-1.9.1-.1 0-.2-.1-.2s-.2-.3-.3-.7c-.1-.6-.1-.6.2-.2.2.2.3.5.3.6 0 .1.3.5.6.9 1.8 1.8 3.1 1.4 1.8-.6-.6-.9-1.1-2.5-.8-2.7.1-.1.2.2.4.6.6 1.5 2.1 2.7 2.4 2 .1-.2.3-.3.5-.3 1.1 0-.4-8.2-1.6-8.8-.1 0-.2-.2-.2-.3 0-.6-1.4-1.5-2.3-1.5-.5 0-1.3 0-1.7-.1-.6-.1-1 0-2.7.7m-69.7 1c-.4.8-1.2 2.2-1.8 3.2l-1 1.8v1.8c0 1.9.2 2.1.6.6.1-.5.6-1.7.9-2.6.8-2.1 2.2-6.1 2.1-6.2 0 0-.4.6-.8 1.4m11.2-.3c-.1.4-.1.7 0 .8.1.1.4-.8.3-1.2-.2-.1-.3 0-.3.4m73.3.3c.3.3.5.5.6.4.1-.1-.1-.5-.6-.7-.5-.2-.5-.2 0 .3m19.9 1.1c.5 3.2-.2 7.5-1.8 10.6-1.1 2.1-1.1 2.1.2-2.5.2-.8.5-2.1.6-2.9.1-.9.4-1.7.5-1.8.3-.2.2-2.8-.1-4.4-.1-.4-.1-.5.1-.4.2 0 .4.7.5 1.4m-17.5.2c1.2 1.4 3.7 2.2 5.7 2 .6-.1 1 0 1.3.2.3.2.6.3.8.3.2-.1-.6-.7-2.1-1.5-1.6-.8-3.7-1.6-5.1-1.7l-1.3-.1.7.8m56.6.2c0 .4-1.1.8-1.8.7l-.6-.1.9-.3c.9-.5 1.5-.6 1.5-.3m-190.7 3c-.9 7-.8 12.6.3 16.4.5 1.5 1.6 5.9 2.5 9.5.3 1.2.6 2.6.6 2.9 0 1 .2 1.6.5 1.6.9 0-.1-9.5-1.4-14.5-.2-.6-.5-1.8-.7-2.5-.6-2.4-.9-5.6-.9-10 0-4 0-4.2-.4-4.2-.3-.1-.4.1-.5.8m178 0c0 .7.3 1.2.5.8.1-.2.1-.5.1-.7-.2-.4-.6-.5-.6-.1m-39.7.7c.1.8.4 1.1.9 1.1.1 0 .7.2 1.3.5.9.4 2.3.8 4.3 1.2 1 .2 1.6-.8 1-1.5-1.3-1.5-2.2-1.9-5.2-2l-2.5-.1.2.8m55.2-.2c-.1.1-.3.4-.5.7-.6 1.2-4.1 1.9-5.6 1.1-.2-.1-.5-.2-.6-.2-.1 0-.3 0-.3-.1-.1-.1.4-.2 1-.2 2.1 0 5.1-.6 5.5-1.2.1-.1.3-.3.4-.3.2 0 .2.1.1.2m-33.4 3.2c.1.3.4.8.8 1.1 1.7 1.5 2.2 3.4 1.4 5.3-1 2.2-1.2 5-.6 7.2s3.2 5 5 5.3c.6.1 1.2.3 1.3.4.2.1 1.1.2 1.9.3l1.6.1v-.5c0-.4-.3-.7-1.1-1.3-.6-.4-1.6-1.3-2.2-1.9-.6-.6-1.2-1.1-1.3-1.1-.5-.1-1 .1-1.5.4-.9.7-.7-.1.3-.9 1-.9 1-1.3.1-1.7-.5-.3-.5-.3-.1-.3.5 0 .6-.2.1-.7-.6-.5-1.4-.4-2 .3-.5.5-.6.6-.6.2 0-.6 1.4-1.8 2.1-1.8 1.1 0 .8-1.1-.4-1.3-.8-.2-.5-.5.5-.5.8 0 .9 0 .9-.5s-.6-1.3-1-1.3c-.1 0-.2-.1-.2-.2 0-.3.7-.2.9 0 .1.1.2.1.3 0 .3-.3-.6-1.7-1.1-1.9-.4-.1-.5-.5-.1-.5 1.4 0-2.2-4.3-3.9-4.6-.3-.1-.6-.2-.6-.3 0 0-.6.2-.5.7m33.3.7c0 .2-1.3.8-1.9.9-.8.1-.6-.5.3-.8.9-.3 1.6-.3 1.6-.1m15.1 2.2c.1.8.3 1.2.4.6 0-.3-.1-.7-.2-.7-.2-.1-.2 0-.2.1m-5.3 8.5c.3.5.8 1 1 1.1.2.2.6.7.9 1.3.3.7.8 1.2 1.3 1.7.9.7 1.1 1 .6.9-.8-.2-1.5.7-1.5 1.9 0 1.3-.1 1.3-.8.5-1-1.1-1.4-2.4-1.4-4.4 0-1.2-.5-2.8-1.4-4.2-.3-.5-.6-1-.6-1.1-.1-.2 1.2 1.3 1.9 2.3m-46.3-1.8c0 .1.2.4.4.6.2.2.3.5.3.7 0 .2.2 1 .6 1.8.4.8.9 2.4 1.2 3.5.7 2.9 1.2 4.1 2.2 5.5 1.4 1.8 1.5 1.9 1.2 1.9-.1 0-.2-.1-.2-.3 0-.2-.1-.3-.2-.2-.1.1-.2 0-.3-.1-.3-.4-.5-.2-.3.3.1.3.3 1 .4 1.6.3 2.7 1.6 4 3.9 4.3.7.1 1.7.2 2.2.3.9.1 2-.1 2-.5 0-.1-.2-.3-.5-.3-1.3-.3-3.1-1.1-3.6-1.6-.7-.7-1.1-1.4-.8-1.1.3.3 1.1.3.9.1-.1-.1.3-.1.7 0 2.1.4 3.1.4 3.1.1 0-.3-1.3-1.2-2-1.4-.3-.1-.7-.4-1-.6-.3-.3-.8-.7-1.1-1-.7-.6-.5-.6.6 0 2.4 1.3 3.1.1.8-1.3-1.9-1.2-4.1-3.6-4.4-4.9-.1-.3-.4-.8-.8-1.2-.4-.5-.8-1.2-1.2-2.5-.4-1.3-.7-1.9-1-2-.2-.1-.4-.3-.4-.3 0-.3-1.2-1.3-1.7-1.5-.8-.3-1-.2-1 .1m-116.3 2.3c.1.2.3.7.4 1 .2.4.2.7-.1 2.1-.5 2.1-.5 7.4 0 9.4.2.8.4 1.8.5 2.2.1.4.4 1.5.7 2.4.3.9.7 1.9.8 2.3.2.5 1 1.5 1 1.2 0-.1-.2-1-.5-2.1s-.6-2.7-.7-3.7c-.1-.9-.3-2-.3-2.4-.2-1.4-.5-5.5-.4-5.9 0-.2.1-.9.1-1.5V198l.3.6c.2.3.3.6.4.6.1 0-1.3-4-1.7-4.8-.5-.7-.7-.9-.5-.2m23.1.3c0 .2 1.7 1.8 2.5 2.5.5.4.5.4.2 0-.9-1.4-2.7-3-2.7-2.5m66.1.6c-.1.1-.2 1.2-.4 2.4-.3 2.4-.5 3.4-.9 3.8-.9 1-3.4 6.8-4.4 9.9-2 6.7-1.8 12.6.8 16.6.4.6.7 1.2.8 1.5.1.2.2.4.3.4.1 0 .2.1.2.2 0 .8 3.3 4.9 4 4.9 1.1 0 1.1-.7.1-1.6-.8-.7-1.2-1.3-2.5-3.3-1.9-3.1-2.5-8.9-1.4-14.1.6-3.1.8-3.5 2.5-7.7.9-2.2 1.8-4.7 1.9-5.7.7-3.2-.1-8.7-1-7.3m-43.8.9c-.1.3-.4 1.3-.5 2.3l-.3 1.7.8 1.8c.4 1 1 2.4 1.3 3.1.7 1.7 1.7 2.1 1.9.8.7-3.6-2.1-12.1-3.2-9.7m-108 .5c-.4.4-.9 1.3-1.3 1.9-.3.6-.7 1.4-.9 1.7-.9 1.7-2.9 6-3.3 7.2-.2.7-.6 1.9-.9 2.6-1.4 3.5-1.4 10.2 0 16.3.3 1.2.6 3 .8 4.1.2 1.1.4 2.4.5 2.9 1 4.6 1.4 13.7.9 19.1-.2 2.3-.2 2.9.1 2.6 1.6-1.6 1.8-16.9.5-29.4-.6-5.6-.5-9.5.3-13.2.2-1 .4-2.6.5-3.4 0-.9.1-1.9.3-2.2 1.6-5.1 2.2-6.8 2.9-8.2 1.3-2.7 1.1-3.8-.4-2m197.6.3c.5 2.1.7 8.6.2 8.6-.1 0-.1-.6-.1-1.3.1-1.4-.3-4.7-.8-6.7-.2-.8-.2-1.1-.1-1.3.4-.3.6-.1.8.7m-83.7 0c.4 2.2.5 2.6 1.5 3.6 1.1 1.1 1.3 1.5 2.4 5.6.4 1.3.9 3.3 1.2 4.3.5 2 1 4.3.9 4.3-.1 0-1.1-2.2-1.9-4-.3-.6-.7-2.1-.8-3.2-.6-3.6-1.8-6.2-2.5-5.5-.1.1-.3.2-.4.2-.2 0-.2-.7.1-.9.2-.2.1-.4-.1-.7-.2-.3-.4-.9-.4-1.4s-.1-.9-.1-.9-.1-.2-.1-.5-.1-.7-.2-1c-.1-.3 0-.5.1-.5.2-.1.3.2.3.6m-13.5 3.6c.5.4 1 .9 1.2 1.3s.4.5.4.5c.1-.1 1.3 1 1.3 1.2 0 .1-.1.1-.2.1-.2-.1.4.7 1.5 2.2 1.2 1.5 2.5 4.3 3 6.4.1.3.2.6.4.7.2.1.2 0 .1-.3-.1-.2-.4-1-.6-1.7-.4-1.3-1.7-4-2.4-5-.2-.3-.3-.6-.2-.7s0-.1-.1 0-.5-.2-.8-.7c-.8-1-.4-1 .6.1 1.7 1.8 3.6 5.8 4.2 8.8.1.4.2.9.2 1 .3 1.3.3 1.8.1 1.9-.3.2-.6-.6-.6-1.9 0-.8-.1-1-.4-1.1-.3-.1-.5-.4-1.6-2.9-.4-.9-1.2-2.3-2-3.3-.7-1-1.5-2-1.7-2.4-.5-.9-1.9-2.8-3.5-4.5-1.5-1.7-1.4-1.6 1.1.3m-80.2-.5c.1.6.3 2 .6 3.2.3 1.3.5 3.3.6 5.1.1 1.6.3 3.5.5 4.3.9 4.5.9 9.8-.1 12.4-.7 1.9-.7 2.1-.2 2.1 2.2 0 3.2-14.7 1.4-20.7-.2-.7-.6-2.4-1-3.8-.3-1.4-.7-2.6-.8-2.7-.1-.1-.2-.3-.2-.5s-.1-.4-.5-.4c-.4-.1-.4 0-.3 1m112.9 1.8c-.7 1-1.5 3.1-1.4 3.4.1.1-.1.7-.3 1.2-.4 1-.4 1-.1 1.6.4.7.3 1-.2.6-.4-.3-.3-.3-.9.8-.4.8-.4.9 0 1.3 1 1.1 1.3 2.4.2 1.4-.7-.7-1.2-.6-1.6.3-.3.6-.3.7-.1.9.1.1.4.5.7.8l.4.6-.7-.3c-1.4-.6-1.8.5-.9 2 .8 1.3.8 1.6-.1.9-.9-.7-1-.6-.5 1.3.5 2.1.8 3.6 1 5.7.2 1.9.9 4.5 1.2 4.3.3-.4.6-2.6.6-4.6 0-2.3.2-2.5.8-.6.1.4.3.9.4.9.3.3.7-3 .7-5.1 0-1.1 0-1.3.2-1.1.4.5.5.3.5-1.4 0-.9.1-2.1.2-2.5.1-.4.3-2.7.5-5s.4-4.8.6-5.6c.4-2.2-.2-3.2-1.2-1.8m-2.5 2c.1 1-.9.5-1.6-.9-.3-.5-.5-1.1-.5-1.2 0-.5 2.1 1.6 2.1 2.1m46.9.3c-3.4 4.5-5.2 8.1-5.8 11.3-.1.5-.4 1.2-.6 1.5-.7 1-1 2.3-1.3 5.4l-.2 2.8-.5-1.1c-1.4-3.3-1.4-6.5-.2-12.4.6-2.8.6-3.3.2-3.3-.4 0-.7.4-.8 1.3-.1.4-.2.9-.3 1-.6.8-1.5 4.4-1.8 6.7-.4 3.8-.4 5.3-.1 6.2.2.5.4 1.4.5 2 .5 2.5 2.3 5.8 4.5 8.4.5.6 1.2 1.6 1.7 2.2.4.7.8 1.2.9 1.3.6.5 1.7 2.9 1.8 3.8 0 .4.3 1.6.6 2.5.7 2.3.6 6.8-.2 12.3-.6 4.2-.6 12.6 0 14 .2.4.3 1 .3 1.2 0 1.1 1.1 3 1.7 3 .3 0 .2-2.1-.2-2.8-.1-.3-.2-1.8-.1-4.5.1-4.5.3-5.3 1.7-10.9 1-3.9 1.1-4.3 1.3-8.1.2-2.8-.5-6.1-1.7-7.8-.2-.3-.5-1-.7-1.6-.2-.6-.6-1.6-.9-2.1-.3-.6-.7-1.5-.9-1.9-.2-.5-.4-1-.5-1.1-1.1-1.4-2.1-6.3-1.8-8.4.1-.7.3-2.1.3-3 .5-7.4 1.7-12.5 3.9-17 1.6-2.7.9-3.3-.8-.9m34.3 2.1c-.8.4-1.6.7-1.8.7-.2 0-1.2.3-2.2.6-1.4.5-2.2.6-4 .7-2.8.1-2.9.2-3.3 2.2-.2.8 0 .9 1.5.5 1.8-.4 1.7-.2-.3.8-1.6.8-1.9 1.1-1.4 1.3.6.2 8.1-3 9.7-4.2.4-.3 1.1-.7 1.5-.9.4-.2.9-.5 1-.5 1.9-1.7 1.6-2.3-.7-1.2m-18.4 1.3l-.7.7.4.3c.6.4.5.8-.1.8-.8-.1-.8 1.9-.1 2.9 1.3 1.8 3.1.5 2.9-2-.1-1.3-.1-1.7.2-1.9.7-.6 0-1.6-1.2-1.6-.6 0-.8.2-1.4.8m.2 3.3c.1.1-.1.2-.4.2-.3 0-.5-.1-.5-.2s.2-.2.4-.2.5.1.5.2m-91.7 1.5c0 .4.2 1.2.5 1.7s.6 1.5.7 2.2c.1.6.3 1.7.5 2.4.2.8.4 3.1.5 5.8.2 4.2.3 5.3.7 4.9.1-.1.2-1.3.4-2.8.1-1.5.4-3.5.5-4.5.3-2.8-1.4-8.6-2.7-9.7-.9-.7-1.1-.7-1.1 0m144.6.2l-1.7 1.2c-.8.6-10.4 4.9-11.8 5.4-1.9.6-3.5 2.2-3.6 3.5 0 .2-.3.6-.5.9-1.6 1.6-.7 1.6 2.3 0 1.3-.7 2.5-1.2 2.5-1.2.1.1-2.9 2.4-4.4 3.2-.7.4-1.3.8-1.2.8.1 2.2 12.4-6.5 18.8-13.2 1.6-1.8 1.5-1.9-.4-.6m-41.2-.5c-.2.1-.6.5-1 .9-.6.7-.7.7-.5.3.3-.7.1-.8-.6-.5-.4.2-.6.4-.7.9-.1.6-.4 1.2-2.1 4.5-1.7 3.3-1.7 3.1.7-3.5.1-.3.3-.7.4-.8.2-.3 0-.5-.4-.5s-1.6 2.2-1.9 3.7c-.3 1.3-.9 2.6-3.1 6.9-2.4 4.8-3.3 6.4-5.5 9.8-1.1 1.7-.1 1.7 1.7-.1.8-.7 1.8-1.8 2.4-2.3.6-.5 1.8-1.8 2.7-2.8.9-1 1.9-2.1 2.1-2.3.3-.3.7-.9 1.1-1.4.6-.9.8-1.2 1.7-2.2.3-.3.9-1.2 1.3-2s1-1.7 1.2-2.1c2.4-3.9 2.7-7.3.5-6.5m-176.3.6c-.1.3-.2.7-.3.9-.1.2-.3 1.9-.4 3.8-.1 2-.3 3.9-.5 4.6-.2.6-.4 1.7-.6 2.3-.1.6-.5 2.2-.8 3.4s-.9 4-1.3 6.2l-.9 4.9c-.1.5-.2 1.3-.3 1.9l-.1 1-.1-1c-.2-1.4-.2-4.2 0-6.2.2-1.9.1-2.8-.4-2.9-.6-.1-1.4 2.7-1.8 6.6-.2 2-.9 7.1-1 7.6-1 4.2.8 12.5 3.9 18l1.8 3.3c.5.9 1.2 2.1 1.7 2.6s.9 1.1 1 1.3c.3.6-1.1-.6-1.8-1.5-.4-.5-1.1-1.3-1.5-1.8-.4-.5-.9-1-1-1.2-.1-.2-.7-1-1.3-1.8-.6-.8-1.2-1.7-1.4-2.1-.1-.3-.3-.6-.3-.6-.4-.3-1.6-3.3-2-4.6-.6-2.5-1.5-3.6-1.2-1.5.8 6.1 5.4 14.3 9.9 17.6.5.3 1.7 1.4 2.8 2.3 2.4 2.1 4.5 3.5 7.7 5.1 2.5 1.3 5.8 3.7 9.1 6.8l1.4 1.3-1.6-.9c-.9-.5-2-1.2-2.5-1.5-.5-.3-1.4-.8-2-1-.5-.2-1.4-.6-1.8-.9-.8-.5-1.4-.6-1.4-.2 0 .5 1.4 1.6 4.7 3.5.7.4 2.3 1.5 3.6 2.5 2.3 1.7 3.1 2.3 4.7 3.3 1 .6 1.1.6.9.2-.2-.5.4-.3.8.2.2.3.4.4.5.4.1 0 .8.5 1.6 1.2 4.5 4 10.4 8 13.9 9.4.7.3 1.6.7 2 .8.4.2 1.7.7 2.7 1.2 1.1.5 2.4 1 2.9 1.3.5.2 1.9.8 3.1 1.2 3.3 1.1 3.3 1.4 0 .6-1.1-.3-2.2-.5-2.5-.6-.3-.1-.8-.2-1.2-.3-2-.6 2.4 1.6 5.2 2.6 5.2 1.9 6.8 2.3 11.6 2.9.8.1 2.2.4 3.1.6.9.2 2.1.4 2.7.5 4 .5 5.2.7 6.1 1.1.5.3 1.4.5 2 .6.5.1 1.2.2 1.5.2.3.1-.3-.2-1.2-.6-3-1.3-3.5-1.5-3.5-1.7 0-.3 6.7 1.4 8.9 2.4 1.3.5 1.3.3.1-.7-1.4-1.2-3.7-3.5-3.1-3.1.3.2 1.6.9 2.8 1.7 1.2.7 2.3 1.3 2.3 1.3.1-.1-1.5-2.7-2.6-3.9a49 49 0 0 1-3.9-5.3c-.5-.7-1.5-2-2.3-2.8-.8-.8-1.7-1.9-2.1-2.4s-2.1-2.3-3.7-4c-2.8-2.9-3.6-3.7-2.7-2.3.8 1.1 0 .6-2.5-1.7-2.8-2.6-4-3.8-4.4-4.5-.1-.3-1-1.2-1.9-2.1-1.3-1.3-1.8-2-2.4-3.2-.4-.9-1-1.9-1.3-2.2-.3-.4-.8-1.2-1.2-1.9-.4-.6-1.1-1.8-1.6-2.5a50 50 0 0 0-1.8-2.4c-3.1-4.4-4.7-6.2-7.8-8.6-1.2-.9-3.2-2.7-4.5-4-3.7-3.8-5.7-5.6-7.8-7.3-2.6-2-2.6-2.1-4.6-3.9-2.1-1.9-4.5-3.7-8.4-6.3-1.6-1.1-3.6-2.5-4.3-3-.7-.6-2.2-1.6-3.3-2.3-4.4-2.9-7.9-6.1-9.5-8.9-1.2-2.1-1.2-2.2-1.4-8.7-.1-3.3-.3-6.6-.5-7.7-.2-1.1-.3-2-.3-2.1.4-1.1-.2-1.5-.4-.5m-14 4.5c-.1.2-.2.7-.2 1 0 .8-1 5-2.2 9.8-2.8 10.3-3.9 22.5-2.6 27.8.8 3.2 1.8 6.6 3.1 9.9.4 1.2.8 2.3.8 2.5 0 .2.6 1.7 1.4 3.2.7 1.5 1.7 3.5 2 4.5.4 1 1 2.5 1.4 3.3 1.2 2.7 2.3 6.1 2.9 9.2.2 1 .4 2.2.5 2.6.5 2.1.4 6.6-.1 9.3-.9 4.6.2 3 1.4-1.9.9-3.6-.2-15.9-1.5-17.8-.2-.2-1.9-5-2.5-6.7-.2-.6-.3-1.5-.3-2.1.1-1.3-.4-2.9-1.5-5.6-.8-1.9-2.8-7.6-3-8.6 0-.2-.2-.7-.3-1.2-.1-.4-.2-.8-.2-.9 0-.1-.1-.4-.2-.8-.2-.6-.4-2.7-.7-6.3-.1-1.1-.1-4-.1-6.5 0-5.4.2-7.5 1.6-15.6.1-.4.2-.8.3-.9.1-.1.2-.5.3-.9.1-.4.4-1.7.6-2.9.6-2.8.6-4.6-.1-4.6-.4-.2-.6-.1-.8.2m-8.3 3.4c-.1.1-.2.4-.2.5 0 .1-.1.5-.3.8-.7 1.2-3.5 8.6-4.2 11.1-1.3 4.3-1.8 6.6-1.9 9 0 1.3-.2 2.7-.3 3.2-.1.5-.2 2-.3 3.4 0 1.4-.1 3.1-.3 3.8-.4 2.2-.1 8.3.6 11.7 1.1 5.5 1.6 7.7 2 9.8.4 2.5.9 4.3 2 8.7.4 1.5.8 3.6 1 4.7.3 2.2.6 4 .8 5 .1.8.8.9.9.2.3-1.3-.4-9.4-1.2-12.3-.3-1.4-.9-5-1.2-7.5-.1-1-.4-3.1-.7-4.6-.5-3-.8-5-.8-5.3 0-1 2.5 7.4 3.2 10.9.7 3.5.7 3.4 1 3.4.4 0 .3-4.7-.3-7.3-1.1-5.4-1.6-7.7-2.5-10.9-1.3-4.9-1.9-9.1-1.5-10.2.1-.3.2-2.2.3-4.3.1-6.2 1.3-14 2.5-16.4.5-1.1 2.1-6.4 2.1-7.1 0-.6-.4-.7-.7-.3m220.4.6c0 .3-.1.4-.4.4-.5 0-1.2.6-1.2 1.1 0 .2-.3.8-.7 1.3-.7.9-1.5 2.4-2.8 4.9-.7 1.4-.9 1.5-.4.3.5-1.4.2-1.1-1 .9-.6 1.1-1.6 2.7-2.2 3.7-.6 1-1.3 2.2-1.6 2.8-1 1.9-1.3 2.1-.7.3.6-1.8.4-1.9-.4-.3-1.6 3.2-3 5.8-3.3 6.1-.1.2-.3.4-.3.5 0 .1-.2.5-.6 1-.3.4-.9 1.4-1.3 2.1s-1.1 1.8-1.6 2.4a49 49 0 0 0-1.4 1.8l-1 1.3c-1.4 1.7-1.1 2 .6.8.5-.4 5.5-5.7 6.6-7 .4-.5 1-1.1 1.2-1.3.4-.3 1.4-1.6 3-3.9.4-.5 1.5-2 2.5-3.3 1-1.3 2.1-2.9 2.3-3.5.3-.6.9-1.7 1.3-2.4.5-.7 1.1-1.9 1.5-2.6.4-.8 1-1.9 1.3-2.6.4-.7.7-1.4.7-1.5 0-.1.2-.6.4-1.1.4-.9.4-.9 0-1.3-.2-.2-.4-.4-.3-.6v-.5c-.1-.1-.1 0-.2.2m-2.5.8c-3.5 1.9-8.7 3.8-10.5 3.8-.7 0-1.2.7-1.4 1.6-.1 1 0 1.2.7.9.2-.1.1.1-.3.4-.4.3-.7.6-.8.5-.1-.1-.6.4-.6.7 0 .3.6.2 1.9-.3 1.8-.7 2.1-.7 1.2.2-.7.6-1.9 1.3-3.1 1.7-.5.2-.2.7.4.8 1.7.4 7.5-3.7 11-7.8.7-.8 1.6-1.9 2-2.3.4-.4.6-.8.6-.8-.2.1-.6.3-1.1.6m-14.9.6c0 .2-.2.6-.5.9l-.5.6.3-.8.3-.8-.6.1c-.5 0-.6.2-.6.5 0 .7-.3 1.3-1.5 3.7-.6 1.3-1.2 2.5-1.3 2.7-.1.3-.9 1.6-1.2 1.9-.1.1.7-2 .9-2.2.1-.1.3-.5.4-.9.1-.4.4-.8.6-1 .2-.2.3-.4.2-.4 0 0 .3-.9.7-1.8.4-1 .7-1.8.6-1.9-.2-.2-1.5.5-1.7 1-.1.3-.4.9-.6 1.2s-.5 1-.7 1.4c-.1.4-.5 1.2-.8 1.9-.3.7-.6 1.3-.6 1.5 0 .1-.1.4-.3.6-.1.2-.5 1-.8 1.7-.8 1.9-1.9 4.1-3.4 6.3-.7 1.1-1.6 2.5-1.9 3.2-.4.7-1 1.8-1.4 2.3-.4.6-.7 1.1-.7 1.2 0 .2-1.1 1.8-1.5 2.1-.2.1-.3.4-.3.5s-.1.3-.2.3-.5.5-.8 1c-.4.6-1 1.4-1.4 1.9-1.3 1.5-.7 1.7 1 .3 1.4-1.2 9.6-9.2 10.4-10.2 2.9-3.6 4.5-5.9 6.2-9 .9-1.6 1.2-2.2 2.1-3.6 2.1-3.5 3-7.4 1.2-5.4-.6.7-.7.5-.2-.7.1-.3 0-.3-.7-.3-.5-.1-.7-.1-.7.2m-103.8 9.1c-.2 1.4-.5 2.7-.5 2.9 0 .2 0 .1.2-.3.3-.8 1-4.5.9-4.9-.2-.1-.4 1-.6 2.3m4.4 2.6c-.2 2.6-7.2 10.8-8.8 10.4-.4-.1-.8-.1-.8-.1-.2.2-.1.4.4.4.3 0 .4.1.4.2-.8 1.2-4-2-4-4v-.6l.5.7c.5.9 1.4 1.8 1.9 2.1.3.1.2 0-.1-.5-.7-1-.6-1.2.3-.4 1.1 1 1.5 1 2.6.4 2.1-1.2 6.6-6.8 7.2-9 .1-.8.5-.7.4.4m-10.3 9.9c0 .1.2.2.4.2s.4-.1.4-.2c.1-.2-.1-.2-.4-.2-.3 0-.4 0-.4.2m-12.4 7.6c-.6 2.8-.6 3.3-.3 3 .1-.1.4-1.3.6-2.6.2-1.3.5-2.6.5-2.7 0-.1 0-.2-.1-.2s-.4 1.1-.7 2.5M68 272.8c0 .2.1.8.3 1.3 1.1 3.5-.5 16.2-2.5 20.1-1.4 2.7-2.6 6.7-3.6 12.2-.8 4.3-.2 10.3 1.4 13.7.4.9.9 2 1.1 2.5.9 2 2.9 4.7 4.6 6.2 1.1.9.9-.1-.3-1.7-1.8-2.4-2.3-3.3-3.6-6.9-.5-1.5-.7-6.5-.4-9.5.3-2.2 3-12.8 3.8-14.6.3-.8.7-2.2 1.5-6.2.6-2.8.7-7.6.3-10.3-.2-1.2-.4-2.7-.5-3.5-.2-1.9-.9-3.5-1.5-3.6-.5 0-.6 0-.6.3m19.2 6.9c.1.5.4 1.9.8 3.2.8 3.1 1.2 4.9 1.6 7.4.2 1.2.4 2.5.5 2.8.3 1 1.2 10.1 1.3 12.8.2 4.3-.6 10.9-2.1 17.5-.7 3.2-1 5-.9 5.7.2 1 .6.9.9-.1.1-.5.3-1.3.5-1.8 1.4-5.5 2.9-13.4 3.8-20.1.4-3 .3-7.4-.2-9.4-.1-.5-.4-2-.7-3.3-.9-4.5-1.7-7.4-2.9-10.1-.2-.5-.6-1.5-.8-2.1-.9-2.7-2.1-4.5-1.8-2.5m17.9.1c0 .4.4.7 1.2.8 1 .2.9 0-.2-.6-1-.6-1-.6-1-.2m-20.5 11.8c.1.7.3 3.3.5 5.4 0 .1.1.1.3.1.4 0 .2-4.2-.4-6.2-.2-.7-.5-.2-.4.7m174.1 2.8c-.2.2-.3.3-.2.3.1 0 .4-.1.6-.3.2-.2.3-.3.2-.3-.1 0-.4.2-.6.3m69.5 2.4c.4 2.9 1 4.7.8 2.5-.2-1.7-.3-2.2-.6-2.8-.3-.5-.3-.5-.2.3m-49.7 7.9c-2.7 2.7-4.5 4.9-4.5 5.8 0 .5.4.8.8.6.4-.2 2-.5 2-.3s-4.9 2.6-6.6 3.3c-2.8 1.1-3.7 1.6-6.1 3.3-3.5 2.6-3.7 2.7-5.5 4.4-1 .9-1.8 1.6-1.9 1.6-.4 0 3.5-4.4 6.7-7.5 1.3-1.3 3.1-3 3.9-3.8 1.8-1.8 4.9-4.2 6-4.8.5-.2 1.4-.9 2.1-1.5 1.8-1.4 4.9-3.6 5.4-3.7.2-.1.4-.1.5-.1 0 0-1.2 1.2-2.8 2.7m-175.6.7c0 .9.7 3.4 1.3 4.8.3.6.7 1.5.9 2 .2.5.6 1.3.8 1.9.3.5 1 2.1 1.6 3.5.6 1.4 1.3 2.7 1.5 2.9.8.8 5.2 7 7 9.7 2.8 4.2 4.3 6 6.6 7.8.8.6 1.6 1.3 1.9 1.6.3.3.9.8 1.4 1.2.4.4 1.2 1 1.6 1.3.8.7 1.3 1.1 3.1 2.8.5.5 1.3 1.1 1.7 1.4.4.3.8.6.9.7.9.9 5.8 3.5 7.9 4.1.8.2 1.5.5 1.6.6.1.1.9.4 1.6.7 1.4.5 4.1 1.6 4.3 1.8.1.1.5.4 1.1.8.5.4 1 .7 1 .8.1.2 1.1.7 1.4.7.7 0-1.3-2.5-2.9-3.8-1.1-.8-2.4-1.6-4.2-2.5-1.2-.6-2.3-1.2-2.4-1.4-.2-.2-1.3-.8-2.5-1.4-1.2-.6-2.9-1.6-3.8-2.3-.9-.7-2-1.5-2.6-1.9-.6-.4-1.5-1.2-2.1-1.7-.6-.5-1.1-1-1.2-1-.1 0-.2-.2-.3-.4-.2-.5-3.5-3.9-5-5.1-1.7-1.3-5.4-5.4-9.8-10.8a43.7 43.7 0 0 0-2.8-3.2 3 3 0 0 1-.7-.9c0-.2-.2-.4-1.2-1.1-.1-.1-1.2-1.8-1.4-2.3-.1-.1-.5-.9-1.1-1.6-1-1.4-1.6-2.6-2.5-4.3-.3-.5-.6-1-.7-1.2-.1-.1-.4-.9-.6-1.7-.5-3-1.4-4.2-1.4-2.5m180.5 13.4c-.9.9-1.1 1.3-.4.8.8-.6 1.5-1.4 1.5-1.5.1-.3-.3-.1-1.1.7m-97.6 0c.2.2 3.7.8 3.6.7-.1-.1-.3-.2-.5-.2s-.6-.1-.9-.3c-.5-.2-2.5-.4-2.2-.2m113 1.7c.9 1.9 1.5 3.7 1.2 4-.3.4-2 5.5-2.3 7-.3 1.3-.1 11.9.2 12.4.1.1.2 1.2.4 5 .1 1.9.6 4.6 1 5.7.2.6.2.8 0 .8-.3-.1-1.8-3.2-2.2-4.4-.2-.6-.4-1.4-.5-1.7-.2-.6-.5-2.3-1.2-6.1-.7-4.4-.5-11.3.5-14.1.7-2 1-3 1.2-4.2.1-.5.3-1.8.4-2.7.2-1 .2-2.1.2-2.6-.1-1.3.2-1 1.1.9m-17.9 2c-.9.8-.9.8-.2.4.8-.4 1.4-.8 1.4-1.1-.1-.3-.4-.1-1.2.7m-36.7 12.3c-.1.1-.9 1.1-1.9 2.2-1.8 2.1-2.8 3-5.2 4.7-.5.4-2.1 1.5-3.4 2.5-2.5 1.9-3.3 2.3-5.2 3.1-.7.2-2 .8-3 1.3-7.1 3.3-16.1 4.8-21.6 3.6-1.5-.3-3.4-.1-4.3.6-.3.2-.7.4-.8.4-.4 0-.1-2.7.6-4.5.6-1.9.9-3.1 1.1-4.7.1-.6.2-1.4.3-1.9s.1-1.8.1-3l-.1-2.2.6 1c2 3.6 6.4 5.6 11.9 5.5h6c3.7 0 3.8 0 6.4-.7 1.5-.4 3.4-.9 4.3-1 4.3-.9 7.6-2.5 11.5-5.4 2.4-1.6 3-2 2.7-1.5m14.8 6.1c-.3.5-1.3 1.5-2.1 2.4-.8.9-2 2.1-2.6 2.8-.6.7-1.9 2.1-2.8 3.1-1 1-2.2 2.4-2.8 3.1-.6.7-2.3 2.5-3.9 4.1-1.9 1.9-3 3.2-3.3 3.8-1 2-5 5.7-9.2 8.3-.9.6-2.2 1.4-2.9 1.9-4.7 3.1-6.7 3.7-14.1 4.7-6.4.8-11.8-.4-17.7-3.8-3.5-2.1-4.7-2.1-6.8-.1-.1.1-1.1.9-2.1 1.8s-1.9 1.7-1.9 1.8c0 .1-.4.6-.9 1.2-1.5 1.7-1.2 2.4 2.3 4.5 4.1 2.6 8.1 3.5 12.5 3 1.4-.2 1.5-.3.5-.8-2.3-1.1-8.5-7.3-8.4-8.5 0-.7 1.9-.2 3.8 1 .4.3 1.1.6 1.5.8.4.2 1.1.6 1.6.8.4.3 1.4.7 2.2 1 .8.3 2 .7 2.6 1 2.5 1 11 .5 16.6-.9 2.5-.6 5-2 7-3.7.5-.4 1.9-1.5 3.1-2.4 3.2-2.4 7.9-6.5 9.8-8.6 1-1.1 1.9-2.1 2.1-2.2.6-.6 4-4.9 4.4-5.7.1-.2 1-1.2 2.1-2.3 1-1.1 2.3-2.6 2.9-3.3.6-.7 2.2-2.6 3.7-4.2 1.4-1.6 2.8-3.2 2.9-3.5.2-.3.4-.7.6-.8.3-.3.4-1.2.1-1.2-.1 0-.4.4-.8.9m-102.1 11.3c.1.3 0 .4-.2.4-.5-.2-.2 4.3.5 6.8.1.4.2 1 .2 1.4 0 1.4 1.9 5.7 4 8.8 2.8 4.2 8.3 8.6 11.4 9 1.3.2 1.5-.4.2-1-2.7-1.2-6.6-4.9-8.9-8.4-3.1-4.8-5.2-10-6.7-17 0-.6-.6-.6-.5 0m-3.6 4c0 .1.1.3.3.6.3.4.3.4.2-.1 0-.5-.5-.9-.5-.5m3.1 2.9c0 .4.6 1 .6.6 0-.2-.1-.4-.3-.6-.1-.1-.3-.1-.3 0m-85.3 2.2c0 .4.5.7 2 1 .5.1 1.7.5 2.5.9.9.4 2.2 1 3 1.3s1.6.7 1.9.9c.3.2 1.2.7 2.1 1.1.9.4 2.3 1.2 3.2 1.7.9.5 2.3 1.1 3 1.3 1.4.4 1.9.7 3.4 1.7.4.3 1.1.6 1.5.8.4.1 1.3.6 2.1 1s2.1.9 3 1.1c.9.2 2.3.6 3.1.9 5 1.6 12.9 2.6 16.1 2 1.5-.3 3.8-.6 7.4-.9 3.2-.3 4.5-.5 6.4-1.1 2-.6 3.1-.9 5.6-1.5 3.7-.8 5.7-1.6 10.8-4.2 1.2-.6 1.2-.8-.7-2.7-2.3-2.3-3.4-3-5.5-3.6-5.3-1.3-10.6-.8-17.1 1.6-2.5.9-2.9 1-6.9 1.6-1.5.2-4.2.7-6.1 1-6.6 1.1-11.8 1.1-15 .1-.6-.2-1.3-.3-2.1-.2-.6.1-1.6 0-2.3-.2-3.9-.9-4.8-1.1-6.3-1.8-.9-.4-2.4-1-3.4-1.3-1-.3-1.9-.6-2-.7-.1-.1-.8-.3-1.5-.5s-1.8-.6-2.5-.8c-.8-.3-1.7-.5-2.4-.5-.6 0-1.7-.1-2.3-.2-.9-.2-1-.2-1 .2m185.5 9.5c-.6 1-3.7 7.3-3.7 7.5 0 .2.2.1.7-.1.4-.2.7-.3.8-.3.2 0-.8 1-1.8 1.6-1 .7-3 4.8-2.1 4.4.1 0 .9-.4 1.8-.9 1.3-.6 2-.9 3.4-1 2.1-.3 2.8-.4 3.3-.5 1.1-.3-.2.4-2.1 1.2-1.1.5-2.6 1.3-3.4 1.8l-2.6 1.9c-1.5 1.1-1.6 1.2-1.7 3.8-.1 2.4-.3 2.4 2.6.9 2.1-1 2.3-1 .9.2-3.7 3.1-3.6 3.1-3.8 7.7-.1 1.6-.2 3.1-.2 3.5-.3 2.2 0 8 .4 8 .1 0 .6-.3 1.1-.6 1.1-.7 2.6-1.6 2.7-1.5 0 0-.4.5-1.1 1-2.4 2-2.7 2.4-2.5 3.2.1 1 .3 1.1.7.8.2-.1.8-.5 1.3-.7s1.5-.9 2.1-1.3c3.3-2.6 3.9-3 2.6-1.6-.1.1-1 1-1.9 2.1-.9 1-1.9 2.1-2.1 2.4a6 6 0 0 1-1.1 1.2c-.8.8-.8.8-.1 2.7.7 2 .6 1.9 2.3 1.2 1.5-.6 2.8-1.6 6.7-4.7 1.3-1 2.8-2.2 3.4-2.7.6-.4 2.1-1.8 3.3-2.9 1.9-1.8 6.1-5.1 7.1-5.7.6-.4.9-1.7.6-3.2-.3-1.5-.3-1.6-.8-1-.3.4-.3.4.1.4 1.2 0 .5 1-1.4 2.3-.9.6-1.8 1.3-2.1 1.5-.8.7-1 .3-.3-.5.1-.1.7-.7 1.3-1.4 1.4-1.4 1.6-1.8.8-1.3-2.1 1.3-8.2 6-10.2 7.9-.5.4-.9.8-1 .7-.2-.2 1-1.6 3.2-3.7 1.4-1.3 3.1-3 3.9-3.8 2-2 4.8-4.3 5.4-4.5.5-.1.5-.2.5-.5-.1-.2-.1-.6-.1-.8v-.4l-1 .4c-.5.2-1.6.7-2.4 1.1-1.4.7-1.6.8-1.4.3.2-.3 5.1-3.6 5.3-3.6.3 0 .7-1.1.7-2.5.1-2 .9-2.3-10.3 3.5-1.5.8-.9.2 1-1 1.1-.7 2.5-1.6 3.1-2.1s2.3-1.5 3.7-2.3c2.8-1.6 2.7-1.5 1.5-2.2-.7-.4-1-.7-1-1 0-.4-.1-.4-.9-.5-1.2 0-1.3-.2-.5-.8.6-.5.6-.6.4-1.3-.2-.7-.4-.8-1.7-1-1.2-.2-1.2-.6.1-.8 1-.2 1-.2-.1-1.1-1.1-.9-1-1.4.1-1.6 1.5-.2 1.4-.4-.6-1.1-1.1-.3-2-.6-2.2-.7-.1 0-.3-.1-.4-.2-.1-.1 2-.2 2.5-.2.1 0 .4-.1.7-.3.3-.2.7-.3.9-.2.4.1.4 0 .4-.5-.1-.6.3-1.2 1-1.4.4-.2-1.7-2.1-2.7-2.5-1.5-.6-2.7-1-4.1-1.1-.8-.1-2.2-.3-3.3-.5-3.5 0-5.2.1-5.7.9m67.3 8.4c-.4.5-.6.9-.3.9.1 0 .3-.3.8-1.2.1-.3-.1-.2-.5.3M180 381c-.4.4.2 2.5 1.2 4.1.3.5.7 1.2.9 1.6 2 4 10.4 4.9 15 1.6.8-.6 1.6-1.2 1.9-1.3.3-.2 0-.2-1 .2-1.7.6-2.9.6-4.8.2-.8-.2-2.2-.5-3.2-.6-1-.2-2.6-.6-3.4-1-.9-.4-1.8-.7-2-.8-.7-.2-2.8-2.3-3.2-3.2-.4-.9-1-1.2-1.4-.8m120 4.7c-.2.4-.7.8-.7.6 0-.3.5-1 .7-1 .1-.1.1 0 0 .4m-4.3.5c0 .3-.1.5-.2.5-.2 0-.3-.6-.1-.8.3-.2.3-.2.3.3m-158.4 1.1c-.4.1-1 .2-1.4.3-6.6 1-8.5 1.9-9.2 4.1-.2.6-.9 2.4-1.6 4-1.2 2.9-1.9 4.3-4 8.6-.6 1.2-1.3 3-1.7 4.1-1.6 4.5-2.9 7.3-4.8 10.3-.7 1-1.7 2.9-2.3 4.1-.6 1.2-1.3 2.5-1.4 2.7-.2.3-.4.7-.6.9-1.4 2.2-1.8 4.4-.5 2.7.2-.3.5-.5.6-.5.4 0 1.1-.7 1.3-1.1.7-1.7 2.3-4.1 4.1-5.9 1.1-1.1 2.6-2.9 3.3-3.9.7-1 1.9-2.6 2.6-3.4 1.8-2.2 4.7-6 5.8-7.7.8-1.2 2.5-3.5 4.3-5.7.2-.2.3-.4.3-.5 0-.1.5-.7 1.1-1.5.6-.8 1.4-2 1.9-2.8.7-1.2 1.2-2.1 2.7-5.5.2-.4 1.2-3.2 1.2-3.4-.1-.1-1-.1-1.7.1m155.5 1.5c0 .2-.1.5-.3.7-.2.2-.2.4-.1.4s.2.1.2.2-.1.2-.2.2c-.3 0-.5-1-.2-1.5.2-.6.6-.5.6 0m-29 1.6c.3.4-2.4 2.3-5.6 4-.8.4-1.5.8-1.6.9-.2.2-1.8 1-2 .9-.5-.2 8-5.9 8.9-6 .1 0 .2.1.3.2m25.7 1.1c-.2.6-.7.5-.7-.1 0-.5 0-.6.4-.4.3.1.4.3.3.5m-1.9 1.9c-.1.1 0 .2.1.3.1.1.1.2 0 .4-.2.2-.2.2-.2 0s-.1-.4-.2-.4-.2-.2-.1-.5.2-.4.3-.2c.1.1.1.3.1.4m-6 1.1c-.1.1 0 .3.1.4.2.2.1.4-.3.8-.6.6-.7.2-.2-.5.2-.2.2-.4.2-.4-.1 0-.1-.1 0-.2l.2-.2v.1m-2.1.7c-.2.2-.2.1-.2-.1s.1-.4.1-.4c.1-.1.2 0 .2.1.1.1 0 .3-.1.4m6 .7c0 .2-.2.6-.4.8-.5.6-.6 0-.2-.9.3-.5.6-.5.6.1m-1.7 1.4c0 .6-.3.9-.5.6-.2-.3.1-1.2.3-1.2.1 0 .2.2.2.6m-29.8 30c-.9.2-.3.5.8.4 1.1-.1 1.4-.2 1-.4-.3-.2-.9-.2-1.8 0"/></svg>