<?xml version="1.0" encoding="utf-8"?>
<!-- Generator: Adobe Illustrator 21.1.0, SVG Export Plug-In . SVG Version: 6.00 Build 0)  -->
<svg version="1.1" id="Layer_1" xmlns="http://www.w3.org/2000/svg" xmlns:xlink="http://www.w3.org/1999/xlink" x="0px" y="0px"
	 viewBox="0 0 500 500" style="enable-background:new 0 0 500 500;" xml:space="preserve">
<style type="text/css">
	.st0{fill:#FFFFFF;}
</style>
<g>
	<g>
		<g>
			<g>
				<path class="st0" d="M230.5,160.4l-0.1-0.6C230.4,160,230.4,160.2,230.5,160.4z"/>
				<path class="st0" d="M267.4,240.3l-0.4,0.1C267.2,240.4,267.3,240.4,267.4,240.3z"/>
				<path class="st0" d="M304.4,228.1l0.4,0.3C304.6,228.2,304.5,228.1,304.4,228.1z"/>
				<g>
					<path class="st0" d="M286.4,205.1c-3.7-5.3-7.2-10.5-10.5-15.7c-1.6-2.6-3.2-5.2-4.7-7.9l-1.1-2l-1.1-2l-2-4
						c-2.7-5.5-5.3-11.3-6.6-17.4c-1.3-6.1-1.7-12.6-0.5-19c1.4-6.8,3.9-13.3,7-19.7c3.1-6.4,6.8-12.6,10.9-18.8
						c4.1-6.2,9-12,14.4-17.1s11.3-9.7,17.6-13.8c6.1-4,12-8.1,18.3-11.8s13-6.8,20.1-8.3c1.9-0.4,3.8-0.7,5.7-1
						c1.9-0.3,3.9-0.4,5.8-0.6c0.9-0.2,3.6-1.1,6.3-2.2c2.7-1.1,5.5-2.2,6.4-2.8c0.8-0.6-5.1-2.2-6.9-2.6c-2.8-0.5-6.4-1.2-9.8-1.4
						c-3.5-0.3-6.8-0.3-9-0.1c-1.1,0.1-2.2,0.2-3.2,0.3s-1.9,0.3-2.8,0.4c-0.9,0.1-1.8,0.2-2.6,0.4c-0.8,0.2-1.6,0.4-2.5,0.5
						c-3.3,0.7-6.5,1.7-10.8,3.3c-8.9,3.5-17.4,7.8-25.6,12.7C291,59.3,283,64.7,275,70.4c-3.3,2.3-6.2,5-9.1,7.8
						c-2.8,3-5.5,6-7.9,9.3c-5,6.6-9.4,13.7-13.6,20.9c-4.6,7.8-8.6,16.4-11.1,25.6c-2.6,9.2-3.7,19-2.7,28.7c0.3,2.6,0.7,5.1,1,7.6
						c0.1,1.3,0.4,2.5,0.7,3.8l0.7,3.8c0.4,2.5,1.2,4.9,1.8,7.4l1,3.7l1.1,3.6c3.2,9.4,7.5,18.5,12.9,26.5c2.7,4,5.5,7.8,8.4,11.4
						c2.9,3.6,5.9,7.1,9.1,10.6c6.4,6.9,13.1,13.1,19.6,19.1c7.6,7,15,13.7,21.8,20.4c4.2,4.2,8.5,8.5,12,12.5
						c3.7,4.1,7.2,8.5,10.4,13.1c3.3,4.6,6.3,9.3,9,14.2c1.3,2.4,2.6,4.9,3.7,7.4c0.6,1.2,1.1,2.5,1.6,3.7c0.1,0.3,0.3,0.6,0.4,0.9
						l0.3,0.9l0.6,1.7c2.8,8.4,2.9,17.7,1.5,26.2c-0.7,4.3-1.8,8.4-3.1,12c-0.4,0.9-0.6,1.8-1,2.6l-0.5,1.2
						c-0.2,0.4-0.4,0.7-0.5,1.1l-0.3,0.6l-0.4,0.8l-0.9,1.8c-0.6,1.2-1.2,2.5-1.8,3.7c-5.1,10.7-13.1,25.3-11.2,38.4
						c0.5,3.2,3.1,5.3,5.7,6.5c-1.1-0.5-0.9-1.4-0.1-2.5s2.3-2.3,4-3.4c3.3-2.2,7.2-4.1,7.7-4.4c5.2-3.8,9.4-8.8,14-13.3
						c2.2-2.2,4.5-4.2,6.8-6.3c1.1-1,2.3-2.1,3.4-3.2c0.6-0.5,1.1-1.1,1.7-1.6l0.8-0.8c0.3-0.3,0.6-0.7,0.9-1
						c4.9-5.8,8.6-12.6,10.4-20.1c3.8-15.9,3.1-32.3-1.7-48.1c-0.3-1-0.6-2-1-2.9l-1.2-3c-0.2-0.5-0.4-1-0.5-1.4l-0.5-1.3
						c-0.4-0.9-0.7-1.8-1.1-2.6c-1.5-3.5-3.2-6.8-5-10.1c-3.5-6.6-7.5-12.9-11.7-18.9c-3.6-5.2-7.5-10.1-11.8-14.9
						c-1-1.2-2.2-2.4-3.2-3.6c-1.1-1.1-2.3-2.4-3.4-3.4c-2.2-2.2-4.3-4.2-6.5-6.3c-8.7-8.2-17.4-15.5-25.3-23
						c-4.7-4.5-9.1-9.1-13.2-13.8c-1-1.2-2-2.4-2.9-3.6c-0.9-1.2-1.9-2.3-2.8-3.6C290,210.1,288.2,207.6,286.4,205.1z"/>
				</g>
			</g>
		</g>
	</g>
	<g>
		<g>
			<g>
				<path class="st0" d="M299.9,453.6h0.4C300.1,453.6,300,453.5,299.9,453.6z"/>
				<path class="st0" d="M245.3,454.1l0.1-0.3C245.3,453.9,245.3,454,245.3,454.1z"/>
				<path class="st0" d="M231.7,481.5h-0.4C231.5,481.5,231.6,481.5,231.7,481.5z"/>
				<g>
					<path class="st0" d="M255.5,483.9c10.7,0.4,21.5-0.4,32.1-2.5c10.9-2.2,21.4-5.6,32.3-7.3c11.5-1.8,23.1-3.6,34.3-7.7
						c1.4-0.5,2.8-1,4.2-1.5l2.1-0.8l1.2-0.4l0.7-0.2c0.2-0.1,0.5-0.2,0.7-0.3l1.2-0.6l1-0.5l2.1-1c1.4-0.7,2.8-1.5,4.1-2.3
						c5.5-3.2,11.1-7.2,15.4-13.4c2.4-3.6,4-7.8,4.6-12.2c0.6-4.4,0-9.2-1.8-13.6c-1.2-2.8-2.9-5.3-4.7-7.4
						c-1.8-2.1-3.7-3.9-5.6-5.5c-2.6-2.3-5.2-4.4-7.9-6.2c-0.7-0.4-3-1.2-5.3-1.6c-2.3-0.5-4.7-0.7-5.5-0.6
						c-0.7,0.1,2.7,3.5,3.6,4.4c1.5,1.5,3.4,3.5,5.1,5.3c1.7,1.9,3.2,3.6,4.2,4.8c1.9,2.1,3,3.8,4,5.4s1.8,3.2,2.3,5.2
						c0,0.2,0.1,0.6,0.2,1c0.9,4.9-1.1,10.3-4.5,14.1c-1.7,1.9-3.9,3.5-6.3,4.8s-5.1,2.3-7.9,3c-1.2,0.3-2.3,0.6-3.5,0.9l-0.4,0.1
						l-0.2,0.1h-0.1c-0.1,0-0.3,0.1-0.4,0.1c-0.2,0-0.3,0-0.7,0.1l-0.9,0.2c-2.5,0.6-5,1.2-7.4,1.8c-5,1.2-10.1,2.4-15.2,2.8
						c-11.2,0.9-22.4,0.3-33.6,1.3c-11.9,1-23.9-0.2-35.9-0.1c-11.8,0.1-23.6,0.3-35.3-0.8c-6.8-0.6-13.6-1.6-20.3-2.8
						c-8.4-1.6-16.7-3.3-24.6-5.4c-3.9-1.1-7.8-2.3-11.3-3.7c-3.5-1.4-6.9-3-9.5-4.8c-1.8-1.2-3.2-2.6-3.8-3.7
						c-0.1-0.1-0.1-0.3-0.2-0.4c0-0.1,0-0.1,0-0.1c0-0.1,0-0.2,0-0.3c0-0.1,0.1-0.2,0.1-0.3c0-0.1,0.1-0.2,0.1-0.2
						c0.2-0.2,0.4-0.3,0.6-0.4c0,0,0,0,0.1,0c0,0,0.1-0.1,0.2-0.1c0.1-0.1,0.2-0.3,0.4-0.5c0.3-0.3,0.6-0.8,1-1.2
						c1.7-1.8,4.3-4.2,7.1-6.6c2.5-2.1,5.8-4.2,8.9-6.4c3.1-2.2,5.8-4.5,8.1-7.7c1.1-1.5,1.5-4.1,1.5-6.4c0,1.9-1.9,0.9-4.5-0.3
						c-2.5-1.2-5.6-2.4-6-2.5c-4.8-0.9-9.8,0.2-14.7,1.2c-4.8,1-9.5,2.2-14.2,4.3c-2.3,1.1-4.7,2.4-6.9,4.2c-2.3,1.8-4.5,4-6.4,7
						c-0.8,1.2-1.5,2.5-2.2,4c-0.3,0.8-0.7,1.6-1,2.4s-0.5,1.6-0.8,2.4c-0.9,3.3-1.2,6.7-0.9,10.2c0.4,3.6,1.4,7.2,3.1,10.5
						c0.4,0.8,0.9,1.6,1.3,2.4l0.8,1.2l0.7,1.1c0.5,0.7,1,1.3,1.5,1.9l0.8,0.9c0.3,0.3,0.5,0.5,0.8,0.8c0.5,0.5,1,1.1,1.6,1.6
						l1.6,1.4c0.5,0.5,1.1,0.9,1.6,1.3l1.6,1.2c2.1,1.5,4.2,2.9,6.3,4c4.2,2.4,8.3,4.2,12.4,5.7c4.1,1.6,8.2,2.8,12.2,4
						c8.5,2.4,16.9,4,25.3,5.4c8.4,1.3,16.7,2.3,25.1,3.2C234.9,482.3,245.2,483.5,255.5,483.9z"/>
				</g>
			</g>
		</g>
	</g>
	<g>
		<g>
			<g>
				<path class="st0" d="M152.4,69.3l0.5-0.5C152.6,69,152.4,69.1,152.4,69.3z"/>
				<path class="st0" d="M108.9,162.1l-0.4-0.2C108.6,162,108.8,162.1,108.9,162.1z"/>
				<path class="st0" d="M144.3,181.1l0.1,0.5C144.4,181.3,144.4,181.2,144.3,181.1z"/>
				<g>
					<path class="st0" d="M148,149.6c3.6-14,9-27.7,15.9-41.2c3.5-7,7.6-13.9,12.4-20.4c2.4-3.3,5-6.4,7.8-9.4s5.8-5.8,9.1-8.4
						c6.9-5.5,14.3-10.2,22-14.5s15.6-8.1,23.7-11.7c8.2-3.6,16.8-6.2,25.5-8c8.7-1.8,17.6-2.8,26.7-3.3c8.7-0.5,17.5-1.2,26.3-1.4
						s17.7,0.2,26.3,2c2.3,0.5,4.6,1,6.9,1.7c2.2,0.6,4.6,1.2,6.6,1.9c1,0.3,4.1,0.5,6.5,0.9c2.5,0.3,4.3,1,5.1,1.2
						c0.4,0.1,0.4-1-0.1-2.4s-1.8-3-2.5-3.6c-2.1-2.1-5.7-4.3-9.4-6c-3.7-1.7-7.2-3.2-9.7-3.9c-10-3.1-14.8-4.4-25.5-5.6
						c-11.1-1.2-22.1-1.5-33.2-1.4s-22.2,0.8-33.6,1.7c-9.2,0.8-18.4,3.2-27.4,6.5s-17.6,7.5-26.1,11.5c-9.3,4.3-18.3,9.3-26.9,15
						c-8.6,5.8-16.8,12.5-23.8,20.3c-3.8,4.1-7.4,8.4-11,12.8s-6.9,9-10.1,13.7c-3.2,4.7-6,9.7-8.6,14.9c-2.6,5.2-4.7,10.5-6.5,16.1
						c-1.7,5.5-3.1,11-4.2,16.7c-1.1,5.8-1.7,11.6-1.9,17.4c-0.2,5.8-0.1,11.6,0.3,17.3c0.5,5.7,1.2,11.3,2.2,16.9
						c2.3,12.8,5.9,25.2,10.2,37.2c2.7,7.5,5.9,14.8,9.3,21.9c1.7,3.5,3.5,7,5.3,10.4s3.6,6.6,5.4,9.9c7.2,13,14.3,25.6,19.7,38.2
						c4.8,11.2,7.6,23.2,9.6,35.3l0.4,2.3c0.2,1,0.4,2,0.6,2.9c0.4,1.9,0.8,3.7,1.2,5.4c0.8,3.3,1.5,6.2,2,8.7s0.7,4.5,0.8,6
						c0,0.3,0,1.1,0,1.7c0,0.7,0,1.3,0,2v2l-0.1,1.9c-0.1,2.7-0.4,5.5-0.9,8.2s-1.1,5.4-1.8,8s-1.6,5.2-2.4,7.9
						c-0.4,1.4-0.9,2.7-1.2,4.2c-0.5,1.4-0.7,2.8-1.3,4.6c0.1,0.2,0.1,0.5,0.2,0.8c0.1,0.3,0.1,0.6,0.2,0.9c0.1,0.6,0.3,1.2,0.4,1.8
						c0.4,1.2,0.9,2.4,1.6,3.6c-0.6-1,0.1-1,1.3-1.4c0.6-0.2,1.1-0.3,2.2-0.9c0.9-0.3,1.9-0.6,2.9-1c1.1-0.3,2.1-0.7,3.1-1
						c1.1-0.3,2-0.7,2.9-1c1.8-0.6,3.1-1.2,3.3-1.4c1.7-1,3.2-2.2,4.7-3.6c1.4-1.4,2.8-2.9,4.1-4.6c2.5-3.3,4.6-7,6.6-10.7
						c1.9-3.6,3.4-7.3,4.8-11c0.3-0.9,0.7-1.9,1-2.8s0.6-1.9,0.9-2.8c0.3-1,0.5-1.9,0.8-2.9l0.4-1.4c0.1-0.5,0.2-0.9,0.3-1.6
						c0.8-4.6,0.9-9.2,0.6-13.5c-0.3-4.2-0.9-8.1-1.6-11.6c-0.4-1.8-0.7-3.5-0.9-5.1l-0.5-2.8l-0.6-3.1c-0.8-4.1-1.7-8.2-2.8-12.3
						c-2.2-8.2-4.9-16.3-8.2-24.2c-6.5-15.7-14.5-29.8-22-43.5l-4.7-8.7c-1.5-2.8-3-5.6-4.4-8.4c-2.8-5.6-5.5-11.2-7.9-16.8
						c-2.4-5.7-4.4-11.3-6.2-17.1c-1.7-5.7-3.1-11.6-4.1-17.3c-1.1-6.8-1.5-13.8-1.1-20.6c0.2-3.4,0.5-6.8,1.1-10.1
						C146.4,156.2,147.1,153,148,149.6z"/>
				</g>
			</g>
		</g>
	</g>
	<g>
		<g>
			<g>
				<path class="st0" d="M226,233.2l-0.2-0.3C225.8,233,225.9,233.2,226,233.2z"/>
				<path class="st0" d="M264,280.2l-0.3,0.1C263.8,280.4,263.9,280.3,264,280.2z"/>
				<path class="st0" d="M292.9,269.6l0.3,0.2C293.1,269.7,293,269.7,292.9,269.6z"/>
				<g>
					<path class="st0" d="M277.7,251.6c-6.8-7.8-14-15.1-21.3-22.2c-7.6-7.3-15.5-14.5-20.9-23.7c-5.6-9.7-9.8-19.8-13.8-30.1
						c-0.5-1.3-1-2.6-1.5-3.9c-0.4-1.3-0.7-2.6-1.1-4c-0.3-1.3-0.7-2.7-1-4l-0.6-4l-0.6-4.1c-0.1-1.4-0.1-2.7-0.2-4.1
						c-0.1-1.4-0.1-2.7-0.2-4.1c0-1.4,0-2.7,0.1-4.1c0.2-5.3,0.2-10.7,0.5-16.2c0.3-5.5,1-11,2.6-16.3c0.9-2.9,2-5.6,3-8.5
						c0.5-1.4,0.6-9.1,0.1-10.7c-0.2-0.7-3.1,3.1-3.8,4.2c-2.5,3.5-6,9-7.3,12c-2.7,6-3.9,8.9-5.3,15.5c-1.5,6.8-2.5,13.7-3.2,20.7
						c-0.4,3.5-0.4,7-0.7,10.6c0,0.9-0.1,1.8-0.2,2.7v2.7c0,1.8-0.1,3.6-0.2,5.5v1.1l0.1,1.1c0,0.7,0.1,1.5,0.2,2.2
						c0.1,1.5,0.3,3,0.5,4.4c0.2,1.5,0.6,2.9,0.9,4.4c0.4,1.4,0.8,2.9,1.2,4.3c1.7,5.7,3.9,11.3,5.8,16.9c4,12.1,8.8,24.1,16,34.5
						c7.6,11.1,14.7,22.5,23.6,32.3c2.2,2.4,4.5,4.7,6.7,7.1l6.9,6.9c4.6,4.5,9,8.8,13.1,13.2c4.8,5.2,9.2,10.5,12.9,15.9
						c2.3,3.4,4.5,6.9,6.3,10.3s3.5,6.9,4.6,10.4c2.5,7,3.3,14.3,2.5,21.8c-0.7,6.8-3.2,13.4-6.4,19.8c-3.2,6.4-7,12.6-10.6,19.3
						c-1,1.8-2,3.7-3.2,5.7c-0.6,1-1.2,2-1.7,3.1c-0.6,1-1.2,2.1-1.7,3.2c-1,2.2-2,4.4-2.7,6.6c-0.7,2.3-1.1,4.6-1.1,6.9
						s1.6,4.4,3.3,5.9c-1.4-1.2,0.9-2.4,3.7-3.4c2.8-0.9,6-1.8,6.4-1.9c2.2-1,4.2-2.4,6.2-3.8s3.8-3.1,5.8-4.6
						c3.8-2.9,7.6-5.7,11.1-8.9c1.8-1.6,3.4-3.3,5-5.2c1.6-1.8,3-4,4.3-6.2l1-1.8l0.9-1.9l1.8-3.8c0.6-1.2,1.1-2.6,1.6-3.9
						s1-2.6,1.5-4l1.2-4.1c0.4-1.4,0.8-2.7,1.1-4.2c0.5-2.9,1.2-5.7,1.5-8.6c1.4-11.6,0.2-24.1-3.7-35.4c-1.6-4.9-3.7-9.4-6-13.7
						c-1.2-2.1-2.4-4.3-3.7-6.3c-1.3-2.1-2.6-4-4-5.9c-5.4-7.7-11.4-14.4-17.2-20.9c-3.4-3.8-6.8-7.6-10.3-11.5
						c-0.8-0.9-1.7-1.9-2.5-2.8l-2.5-2.8C280.9,255.4,279.3,253.5,277.7,251.6z"/>
				</g>
			</g>
		</g>
	</g>
	<g>
		<g>
			<g>
				<path class="st0" d="M228.1,281.3l0.3,0.3C228.3,281.5,228.3,281.3,228.1,281.3z"/>
				<path class="st0" d="M195.5,232.5l0.3-0.1C195.7,232.4,195.6,232.4,195.5,232.5z"/>
				<path class="st0" d="M164.6,233.6l-0.2-0.3C164.4,233.5,164.5,233.6,164.6,233.6z"/>
				<g>
					<path class="st0" d="M176.2,257.8c3.1,5.1,6.4,9.8,10,14.3c3.6,4.4,7.3,8.7,11.2,12.6c4,4.1,8.1,8,12,12c2,2,3.8,4.1,5.6,6.2
						c1.7,2.1,3.4,4.3,4.9,6.7c6.4,9.8,11.6,20.3,17.6,30.6c6.1,10.4,10.4,21.4,14.7,32.7c4.2,11,11,20.9,13.6,32
						c0.7,3,1.1,6,1.5,8.9c0.1,0.7,1,2.7,2,4.8c1,2,2,4.1,2.5,4.7s1.5-4,1.7-5.4c0.8-4.3,1.1-11.1,0.7-14.4
						c-0.8-6.8-1.4-10-3.4-16.5c-2.2-6.8-4.5-13.3-6.6-20c-2.1-6.6-4-13.4-5.6-20.3c-2.6-11.3-8.9-21.7-13.6-32.5
						c-2.5-5.9-5-11.8-8-17.6c-2.9-5.8-6.2-11.4-9.9-16.5c-7.9-11-14.5-22.4-21.6-32.7c-3.5-5.1-7-10.2-10-15.3
						c-3-5.2-5.7-10.4-7.8-15.8c-2.4-6.3-4.2-12.9-5.2-19.6c-0.6-4.2-1.1-8.5-1.4-12.7c-0.3-4.3-0.4-8.5-0.3-12.8
						c0.2-4.3,0.5-8.5,1.1-12.7c0.7-4.2,1.5-8.4,2.7-12.5c2.1-7.4,5.7-14.2,9.7-20.6c2-3.2,4.1-6.3,6.3-9.4c2.1-3,4.2-5.9,6.4-8.8
						c1.1-1.6,2.5-3.2,3.9-4.9c1.4-1.7,2.9-3.4,4.3-5.2c2.8-3.6,5.4-7.3,6.7-11.7c0.7-2.1-0.2-4.6-1.3-6.6c0.9,1.6-1.6,2-4.6,2.1
						c-3,0.2-6.4,0.2-6.8,0.3c-4.9,1-9.5,3.7-14,6.2c-4.4,2.4-8.8,4.9-12.8,7.9c-2,1.5-4,3.2-5.8,5s-3.5,3.8-5,6
						c-6.4,9.3-11.2,19.6-14.4,30.5c-0.8,2.7-1.6,5.5-2.1,8.2c-0.3,1.4-0.6,2.8-0.9,4.2l-0.7,4.2c-0.9,5.6-1.4,11.3-1.6,16.9
						c-0.3,9.6,0.3,19.3,2,28.8c0.8,4.8,1.9,9.4,3.1,14.1c0.7,2.3,1.3,4.6,2.1,6.9l1.1,3.4l1.2,3.4c0.5,1.4,1,2.7,1.6,4
						c0.5,1.3,1.1,2.7,1.6,4c1.2,2.6,2.3,5.3,3.6,7.9C170.6,247.9,173.3,252.9,176.2,257.8z"/>
				</g>
			</g>
		</g>
	</g>
	<path class="st0" d="M275.6,401.4"/>
	<path class="st0" d="M275.5,398.7"/>
	<path class="st0" d="M274.9,392.2"/>
	<path class="st0" d="M276.4,393"/>
	<path class="st0" d="M276.3,392.3"/>
</g>
</svg>
