<svg id="Layer_1" xmlns="http://www.w3.org/2000/svg" viewBox="0 0 500 500"><style>.st0,.st1{fill:#fff;stroke:#fff;stroke-miterlimit:10}.st1{stroke-linecap:round;stroke-linejoin:round}</style><path class="st0" d="M235.3 162.4v-.6c-.1.2-.1.4 0 .6zM270 236.4h-.2.2zM291.8 238.7l.3.3-.3-.3z"/><path class="st0" d="M271.8 214.9a156.43 156.43 0 0 1-15.9-26.4l-1.1-2.3-1-2.3c-.6-1.6-1.2-3.1-1.8-4.7-2.3-6.5-4.3-13.2-4.9-20.1-.7-6.9-.5-14 1-21 1.6-7.4 4.4-14.5 7.8-21.3s7.5-13.3 12.1-19.5c9.3-12.5 20.5-23.1 33.5-31.9 6.3-4.2 12.6-8.2 19.3-11.7 6.7-3.5 13.7-6.5 20.9-8.4 2-.5 3.9-.9 5.9-1.4 2-.4 3.9-.7 5.9-1.1 1-.2 3.8-.9 6.7-1.7 2.9-.7 5.8-1.4 6.8-1.7.9-.3-5.1-.5-6.8-.5-5.4 0-13.9.8-18.1 1.8-1.1.2-2.1.4-3 .7-.9.2-1.8.5-2.7.7-.9.2-1.7.4-2.5.6-.8.2-1.6.5-2.3.7-3.1.9-6.2 2.1-10.4 3.8-17.2 7.5-32.5 17.8-46.7 30.1-2.9 2.5-5.6 5.2-8.2 8-2.5 2.9-5.1 5.8-7.4 9-4.7 6.3-9 13-12.6 19.9-3.9 7.5-7.2 15.5-9.1 24-2 8.4-2.7 17.3-1.8 26 .2 2.3.6 4.6.9 6.9.1 1.2.4 2.3.6 3.4l.7 3.4c.4 2.3 1.2 4.5 1.8 6.7l1 3.3 1.1 3.2c3.2 8.6 7.3 16.8 12.3 24.4 2.5 3.7 5.1 7.3 7.8 10.8 2.7 3.5 5.5 6.8 8.5 10.2 6 6.6 12.3 12.7 18.6 18.6 7.4 6.9 14.9 13.4 22 20.2 4.5 4.3 8.9 8.6 12.8 13 4 4.5 7.7 9.2 11.2 14.1s6.7 10 9.5 15.3c1.4 2.6 2.8 5.3 4 8 .6 1.4 1.2 2.7 1.8 4.1.6 1.4 1 2.7 1.5 4 3.4 9.8 4.2 20.3 3.2 30.5a64 64 0 0 1-3.1 14.7c-.4 1.2-.8 2.3-1.3 3.4l-.7 1.7-.8 1.6-.4.8-.5.9-1 1.8c-.6 1.2-1.3 2.5-1.9 3.7-5.5 10.7-13.6 25.1-15.5 35.7-.5 2.6.4 3.9 1.4 4.4-.9-.4 1.1-3.3 3.3-6 2.3-2.7 4.9-5.4 5.2-5.8 3.7-4.6 7.3-10 10.9-15 1.8-2.4 3.5-4.8 5.3-7.1.9-1.2 1.7-2.4 2.6-3.5l1.3-1.8c.4-.6.8-1.2 1.3-1.9a53 53 0 0 0 7.4-18.3c2.9-14.2 2-28.9-2.4-42.8-.2-.9-.5-1.7-.9-2.6l-.9-2.6c-.7-1.7-1.3-3.3-2-4.9-1.4-3.2-2.9-6.3-4.6-9.4-3.3-6.2-7-12-10.9-17.7-3.4-4.8-7.1-9.5-11-14-1.9-2.2-4-4.4-6.1-6.5s-4.1-4.1-6.2-6.1c-8.4-7.9-17-15.3-25.1-22.9-4.9-4.5-9.6-9.3-14-14.2-1.1-1.3-2.2-2.5-3.3-3.8-1.1-1.3-2.1-2.5-3.2-3.9-1.9-1.9-3.9-4.6-5.8-7.3zM295.5 462.8h.4c-.2-.1-.3-.1-.4 0zM240.1 463.5l.1-.2c-.1 0-.1.1-.1.2zM227.3 476.8h-.3.3z"/><path class="st0" d="M250.8 478.6c10.6.3 21.2-.1 31.6-1.5 10.7-1.4 21.2-3.5 32-5 11.4-1.6 22.8-3.5 33.9-7 1.4-.4 2.8-.9 4.2-1.3l2.1-.7 1-.3.7-.2c.2-.1.5-.2.7-.3 2.7-1.2 5.3-2.5 7.9-4 5.2-3 10.2-6.8 14-12.3 3.5-5.2 5.3-11.8 4.1-18.3-.5-3.2-2-6.4-3.9-8.9-1.9-2.6-4.2-4.7-6.5-6.6-2.5-2-5-3.8-7.7-5.4-.7-.4-2.8-1.2-5-1.9s-4.4-1.2-5.1-1.3c-.7-.1 3 2.4 4 3.1 1.6 1.2 3.7 2.6 5.6 4.1s3.6 3 4.7 4c2.3 2 3.7 3.7 5 5.5 1.2 1.8 2.3 3.6 3 6.3 1.3 5.7-.6 11.8-4.2 16.3-1.8 2.3-4 4.2-6.5 5.9-2.5 1.6-5.2 3-8.1 4.1-1.2.4-2.3.9-3.5 1.3l-.9.3-.2.1h-.1c-.1 0-.1 0-.2.1l-1.8.5c-2.5.7-5.1 1.3-7.6 2-5.1 1.3-10.3 2.4-15.5 3.1-11.3 1.5-22.6 1.9-34 2.8-12.1 1-24.3.6-36.4.6-12 0-24-.2-35.9-1.3-7-.6-13.9-1.5-20.7-2.7-8.6-1.5-17.2-3.2-25.5-5.5-4.1-1.2-8.2-2.5-12-4-3.8-1.6-7.6-3.3-10.7-5.5-1.5-.9-2.7-2-3.8-3.1s-1.9-2.2-2.5-3.3c-.6-1.1-.9-2.1-1-3.1s0-1.9.3-3c.6-2.1 2.2-4.5 4.4-6.8 2.1-2.3 4.8-4.6 7.6-6.8 3-2.3 6.9-4.6 10.7-6.6s7.5-3.7 10.4-5.5c1.4-.8 1.9-2.1 1.9-3.3 0 1-2.2.4-4.7.1-2.5-.4-5.2-.7-5.6-.6-4.4.1-9 1.6-13.4 3.2-4.2 1.5-8.3 3.3-12.2 5.7-1.9 1.2-3.9 2.6-5.7 4.3-1.8 1.7-3.6 3.7-5.1 6.2-1.6 2.6-2.9 5.7-3.4 9.1-.6 3.4-.2 7.2 1 10.5s3 6.1 5.1 8.4c2 2.3 4.3 4.2 6.5 5.8 4.5 3.2 9.2 5.6 14 7.5 4.7 2 9.5 3.5 14.3 4.9 16.3 4.5 32.6 6.7 49 8.3 9.4.8 19.6 1.6 29.7 2zM154.6 78.6l.5-.5c-.3.2-.5.4-.5.5zM114 165.4l-.1-.2c0 .2 0 .3.1.2zM128.4 184.9l.1.5c-.1-.3-.1-.4-.1-.5z"/><path class="st0" d="M131.3 149.5c3.9-15.6 10.4-30.6 19.1-44.4 4.4-7.1 9.4-13.9 15-20.3 2.8-3.2 5.8-6.2 8.9-9.2 3.1-2.9 6.4-5.8 9.8-8.4C198.6 56 214.9 47.4 232 40.8c17.3-6.6 35.2-10 53.8-11.3 17.9-1.2 35.9-1.5 53.7 1.4 2.4.4 4.7.8 7.1 1.3l7 1.5c1.1.3 4.5.8 7.4 1.8 1.5.5 2.9 1.2 3.9 1.8 1.1.6 1.8 1.3 2.2 1.6.3.3-.2-.9-1.3-2.1-1.1-1.3-2.8-2.6-3.6-3-2.6-1.7-6.4-3.1-10.2-4.2-3.8-1.1-7.4-2.1-9.9-2.6-10.1-2.1-14.9-2.9-25.5-3.8-11-.8-21.8-.9-32.7-.3-10.8.6-21.6 1.8-32.5 3.6-8.8 1.5-17.6 3.9-26.2 7.2-8.6 3.2-16.9 7.2-25 11.4-8.7 4.5-17.1 9.7-25.1 15.5-7.9 5.9-15.5 12.4-22.2 19.8-3.6 3.9-7 8-10.3 12.2s-6.3 8.6-9.2 13.1-5.4 9.2-7.8 14.1c-2.3 4.8-4.3 9.9-6 15-1.6 5.1-3 10.2-4 15.4a108 108 0 0 0-2 15.9c-.3 5.3-.2 10.7.2 16 .4 5.3 1.1 10.5 2 15.7 2.2 12.1 5.6 23.8 9.9 35.2 2.7 7.2 5.8 14.2 9.1 21 1.7 3.4 3.4 6.8 5.2 10.1l5.3 9.8c7.1 13 14.3 25.9 20 39.1 5.2 11.9 8.7 24.2 11.3 36.8l.5 2.4c.2.9.4 1.8.6 2.6.4 1.7.8 3.4 1.3 5 .9 3.3 1.7 6.3 2.3 9.3.6 2.9 1.1 5.7 1.1 8.3v4.5l-.1 2.3-.1 2.3c-.5 6.4-2 13.7-4.9 20.1a64.6 64.6 0 0 1-4.9 9c-.9 1.4-1.8 2.7-2.7 4-.9 1.2-1.8 2.5-2.7 3.8-.5 1.5-1.1 2.4-.8 3.5-.1-.5.7-.3 1.7-.8.4-.2 1.1-.6 1.9-1.2.8-.5 1.6-1 2.5-1.6 3.4-2.2 6.9-4.9 7.3-5.3 5.2-4.9 9.1-12.1 11.7-19.3a82.76 82.76 0 0 0 4.6-21.2c.3-3.9 0-7.8-.6-11.5s-1.5-7.4-2.4-10.9c-.5-1.9-.9-3.7-1.3-5.4l-.6-2.8-.6-2.9c-.9-3.9-1.9-7.8-3-11.7-2.2-7.8-4.8-15.4-8-22.9-6.3-14.9-14-28.7-21.5-42.5-3.2-5.9-6.3-11.6-9.2-17.4-2.9-5.8-5.7-11.7-8.1-17.7-2.5-6-4.6-12-6.5-18.1-1.8-6.1-3.3-12.4-4.4-18.6-1.3-7.4-1.9-15.1-1.7-22.7.1-3.8.4-7.6.9-11.4.7-4 1.5-7.7 2.4-11.5zM200.9 216.1zM200.5 215.4zM193.7 213.5c0-.1 0-.1 0 0z"/><path class="st0" d="M191.8 219c-.4 1.4-.7 2.8-.9 4.1 1.3 0 2.6-.1 3.8-.3 2.8-.3 5.4-1 7.3-1.2 1.5-.2 3.1-.3 4.6-.9 1.5-.5 3-.8 4.5-1.1s2.7-1.3 4.2-1.6c.4-.1.8-.1 1.2-.1.2 0 1-.8 1.1-1 0-.1-.7-.4-.8-.4-.6-.2-1.5-.4-2-.5-.9-.1-1.3-.1-2.1.1-1.7.3-3.3.6-5 .3-1.4-.2-2.7.3-4 .2-.7 0-1.5-.2-2.1-.3-.2-.1-.4-.2-.5-.2-.3 0-.3-.2-.3-.3.1-.1.1-.2.1-.2 0-.1-.1-.1-.1-.2v-.2c0-.1 0 0 .2-.5.3-.8.7-1.6 1.1-2.3 1-1.9 2-3.8 3.2-5.5 1.2-1.6 2.9-2.5 4.1-4 .6-.8 1.6-1.8 1.3-3.5 0-.1-.1-.2-.1-.3l-2.2.3c.2-.3.5-.7.7-1.1-.1.2-.2.2-.2.2l1.1-.1c-.3.2-1.7-.2-1.8-.2-.8 0-1.4.2-2.1.4-1.3.3-2.8.4-3.8 1.2-2.1 1.7-3.6 4-5 6.4-1.2 2-2.1 4.1-2.9 6.3l-.2.6c-.1.3-.2.6-.3.8l-.6 1.8c-.9.9-1.2 2.1-1.5 3.3zM219.5 272.4zM220.1 273zM227.1 273.5c.1 0 .1 0 0 0zM227.5 268.7v-2.3c-1.4-.2-2.9-.3-4.2-.3-1.1 0-2.2.1-3.1.3-.6.2-1.2.3-1.8.3-1.2 0-2.5-.1-3.7.2-1.2.3-2.4.2-3.7.3-1.2 0-2.3.8-3.6.7-.3 0-.7 0-1-.1-.2 0-.9.6-1 .9 0 .1.5.4.7.5.5.3 1.2.7 1.6.8.7.2 1 .3 1.7.3 1.3.1 2.7.1 4 .7 1.1.5 2.2.2 3.2.5.6.2 1.1.4 1.7.6.3.1.6.2.8.3.1 0 .3.1.4.1h.1c.3 0 .3.3.3.4v.1c0 .1.1.1.1.2 0 0 0 .1.1.1v.8c0 .7-.1 1.5-.2 2.2-.2 1.8-.2 3.7-.3 5.5-.2 1.6-1.1 3.1-1.1 4.7 0 .8-.1 1.8 1.1 2.8.3.3.9.5 1.5.7-.4-.1-.1-.3.3-.4.4-.1 1-.3 1.1-.3.6-.3 1-.8 1.4-1.2.9-.8 2-1.5 2.3-2.5.7-2 .7-4.1.9-6.1.1-1.7.1-3.5.2-5.2 0-.3 0-.5.1-.8 0-.5.1-1 .1-1.5-.1-1.2 0-2.2 0-3.3zM229.1 230.5l-.2-.3c.1.1.2.2.2.3zM266.3 276h-.1.1zM280 280l.2.2-.2-.2z"/><path class="st0" d="M263.8 262.5c-7.1-7.9-14.2-15.9-20.8-24-6.8-8.4-13.4-17-18.7-26.6-5.7-10.2-10.2-20.8-13.6-31.8-.4-1.4-.8-2.8-1.3-4.2-.3-1.4-.6-2.8-1-4.2l-.9-4.2-.6-4.3-.6-4.3c-.1-1.4-.2-2.9-.2-4.3-.1-1.4-.2-2.9-.2-4.3V146c.3-11.2 1.4-22.4 4.1-33.5.7-2.9 1.5-5.8 2.2-8.8.4-1.4 1.7-8.8 1.9-10.3.1-.7-1.4 3.5-1.8 4.7-1.4 3.8-3.3 9.7-4.1 12.8-1.7 6.2-2.4 9.2-3.5 15.7-1.1 6.7-1.8 13.5-2.1 20.3-.1 3.4.1 6.8.1 10.2 0 .8 0 1.7.1 2.6l.2 2.5c.2 1.7.3 3.4.5 5.1 1.3 11 5.1 22.2 9.4 32.5 4.6 11.2 10.2 22 17.1 32.1 7.3 10.7 15 21 23.6 30.7 2.1 2.4 4.3 4.7 6.4 7l6.6 6.9c4.4 4.5 8.8 9 13.1 13.6 4.9 5.3 9.7 10.8 13.8 16.7 2.6 3.7 5.1 7.4 7.2 11.4 2.1 3.9 4 7.9 5.3 12.1 2.9 8.3 3.7 17.2 2.9 26-.7 8-3 15.7-6 23-3.1 7.4-6.9 14.5-11.2 21.5-1.2 1.8-2.4 3.9-3.8 5.9-.7 1-1.4 2.1-2.1 3.1s-1.4 2.1-2.1 3.1c-1.4 2.1-2.8 4.1-4 6s-2.4 3.7-3.3 5.4c-.9 1.6-.7 2.5-.3 2.8-.4-.3 1.4-2 3.3-3.7s3.9-3.5 4.2-3.7c1.6-1.5 3.1-3.2 4.6-5 1.5-1.7 3-3.6 4.4-5.4 5.6-6.9 10.6-13.4 14.8-22l.8-1.7.7-1.7 1.5-3.5c.5-1.2.9-2.4 1.3-3.6l1.2-3.6 1-3.7c.3-1.2.7-2.4.9-3.7.4-2.5 1-5 1.2-7.6 1.1-10.2.2-20.7-3.1-30.5a71.3 71.3 0 0 0-5.2-12c-1.1-1.9-2.1-3.8-3.3-5.6-1.1-1.9-2.3-3.6-3.6-5.4-4.9-7-10.5-13.4-16.2-19.7-3.4-3.7-6.9-7.4-10.4-11.1-1.8-1.9-3.5-3.7-5.2-5.6-1.7-2-3.5-3.9-5.2-5.8zM215.3 289.5l.2.3c-.1-.1-.1-.2-.2-.3zM181.8 240l.1.1-.1-.1zM169.8 231.8l-.2-.3c.1.1.1.2.2.3z"/><path class="st0" d="M181.6 254.1c6 9.6 12.7 18.5 19.5 27.2 3.5 4.5 7 8.8 10.4 13.3 1.7 2.2 3.3 4.5 5 6.8 1.6 2.3 3.2 4.7 4.7 7.1 6.4 10.2 11.8 20.9 17.2 31.7 5.4 10.9 9.9 21.8 14.5 33.2 4.4 10.9 9.5 21.5 13 32.7.9 3 1.7 6 2.4 9 .2.7.8 2.9 1.5 5.1l1.4 5.1c.2.7-.1-3.9-.3-5.1-.4-4.1-1.7-10.4-2.6-13.6-1.7-6.4-2.7-9.4-5.1-15.8-2.5-6.6-5.1-13-7.5-19.5-2.5-6.5-5-12.9-7.5-19.4-4-10.6-9.3-21.2-14.5-31.4-2.8-5.5-5.7-11-8.9-16.4s-6.6-10.6-10.2-15.7c-7.7-10.8-15.3-21.5-22.6-32.4-3.6-5.3-7-10.7-10.2-16.3-3.1-5.6-5.9-11.3-8.2-17.2-2.6-6.9-4.7-14.1-6-21.3-3.3-18.4-2.8-37.5 2.3-55.4 2.3-8.1 5.5-15.8 9.4-23.1 2-3.7 4.1-7.2 6.4-10.7 2.3-3.5 4.7-6.8 7.4-10 1.4-1.7 3-3.5 4.7-5.3s3.5-3.6 5.4-5.3c3.7-3.5 7.4-6.6 10.2-9.2 1.4-1.3 1.5-2.1 1.2-2.6.2.4-2 1.5-4.4 2.6s-4.9 2.4-5.2 2.6c-3.9 2.3-7.8 5.4-11.4 8.5-3.5 3.1-6.7 6.1-9.6 9.5-3 3.4-5.7 7.1-8.3 11.3-5.4 8.9-9.5 18.5-12.5 28.5-.7 2.5-1.4 5-1.9 7.6-.3 1.3-.6 2.5-.8 3.8l-.7 3.8a130.26 130.26 0 0 0 .2 42c.7 4.4 1.7 8.7 2.8 13 .6 2.1 1.2 4.3 1.9 6.4l1.1 3.2 1.2 3.1c.4 1.3 1 2.5 1.5 3.7s1 2.5 1.6 3.7c1.2 2.4 2.2 4.9 3.5 7.3 2.4 4.6 5.1 9.3 8 13.9z"/><g><path class="st0" d="M247.3 312.6zM249.2 304.6c0-.1 0 0 0 0zM241.3 308.3zM240.9 308.5c0 .1 0 0 0 0 .1.2.3.1.3.8.1 1.1.4 2.3.2 3.4-.3 1.1-.6 2.2-.7 3.4-.1 1.2-.5 2.2-.9 3.3-.4 1-.2 2.3-.7 3.3-.2.3-.3.5-.5.8-.1.1.1.9.3 1.2.1.1.7-.2.8-.3.5-.3 1.2-.7 1.4-.9.5-.5.7-.7 1-1.3.6-1.2 1.1-2.4 2.1-3.5.8-.9.8-2 1.4-3 .6-1 1.4-2 1.7-3.2l.3-.9.4-.9c.4-1 .8-2.1 1-3.2l.3-1.6c0-.5-.1-.9-.1-1.4 0-.2-.1-.4-.2-.6-.1-.2-.1-.4-.2-.5-.1-.3-.5-.8-.8-1-.2-.2-.4-.3-.7-.5-.5-.3-1.2-.6-2.1-.7-.8-.1-1.7-.1-2.5-.1h-4.9c-1.6-.1-3.2-.9-4.9-.6-.9.1-2.1.1-2.8 1.6-.2.4-.3 1-.3 1.6 0-.9.9 1 1 1.1.4.6.9.8 1.3 1.2.8.8 1.6 1.7 2.5 2 1.9.5 3.8.4 5.7.5H240.9h.1c.2-.1-.1 0-.1 0z"/></g><g><path class="st0" d="M277.8 320.6zM281.9 320.1c.1 0 .1 0 0 0zM282 313zM280.1 312.9c-.8.1-1.6.3-2.3.9-.7.5-1.4 1.3-2.1 1.4-.8.2-1.6.2-2.4.5s-1.6.3-2.4.2c-.8-.1-1.5.5-2.3.1l-.6-.3c-.1-.1-.6.3-.8.5-.1.1.1.6.2.7.2.4.6 1.1.8 1.2.4.4.6.6 1.1.7 1 .3 2 .5 3.1 1.1.9.5 1.7.1 2.6.2.9.2 1.9.5 2.8.4.9-.2 1.9.1 2.8-.1s1.7-.5 2.6-.6c.5-.1 1-.1 1.5 0h.9c.3 0 .7 0 1.1-.1l2.4-.3c1.4-.2 3.2 0 4.6-1 .7-.5 1.8-1.3 1.3-2.9-.1-.4-.5-.9-.9-1.3.6.7-1.2-.3-1.3-.4-.6-.3-1-.3-1.4-.5-.8-.4-1.6-1.1-2.1-1.1-1.1-.1-2 .2-3.2.3l-3.7.3c-.7.1-1.5 0-2.3.1z"/></g><g><path class="st0" d="M271.2 309.5zM273.1 306.3c.1 0 .1 0 0 0zM268 301.4zM266.6 302.9c-.6.7-.9 1.7-1 2.7-.1 1.1.1 2.2-.1 3.1-.3 1-.6 2-.5 3v1.5c0 .5-.1 1-.1 1.5 0 1 .7 1.9.7 2.8 0 .3 0 .5-.1.8 0 .1.6.6.8.7.1 0 .5-.5.5-.6a6.55 6.55 0 0 0 1.2-2.5c.1-1 .2-1.9.9-2.7.6-.6.4-1.4.8-2 .5-.7 1.1-1.2 1.4-1.8.3-.7 1.1-1.2 1.4-2 .4-.7.7-1.5 1.3-2.2.3-.4.7-.8 1-1.1 1-.9 1.7-2.1 2.6-3 .8-.8 2.1-1.1 2.8-2 .4-.5.9-1 .4-2.5-.1-.4-.5-.9-.8-1.4.6.8-1.2-.4-1.3-.4-.6-.2-1-.2-1.6-.2-1-.1-2.1-.4-2.9 0-1.5.8-2.5 2.1-3.5 3.2l-1.2 1.5c-.4.5-.8 1.1-1.3 1.6-.3.6-.9 1.3-1.4 2z"/></g><g><path class="st0" d="M202.2 242.3c.1 0 .1 0 0 0zM201.7 234.9c.1 0 .1 0 0 0zM195.3 237.9zM195.1 238.3v.3c0 .2.1.3.1.5.1.4.2.8.4 1.3.4.9.9 2 .8 3-.1 1.1-.3 2.1-.3 3.3s-.2 2.2-.5 3.3.1 2.3-.4 3.3c-.1.3-.3.6-.4.9-.1.1.3 1 .4 1.1.1.1.6-.3.7-.4.5-.3 1.1-.8 1.3-1.1.4-.5.6-.8.9-1.4.5-1.2.9-2.5 1.8-3.6.7-.9.6-2.1 1-3.1.5-1.1 1.1-2.3 1.2-3.5.1-1.3.6-2.7.4-4.4v-.3l-.1-.4c-.1-.3-.1-.5-.2-.8-.1-.5-.3-1-.6-1.5-.5-1-1.2-1.9-2.1-2.5-1-.8-2.2-1.3-3.5-1.5-.8-.1-1.7-.1-2.4 0l-.5.1-.3.1-.6.1c-.9.2-1.7.4-2.5.5-1.5.2-3.1-.4-4.6 0-.8.2-1.9.3-2.5 1.9-.1.4-.2 1-.1 1.6-.1-.9 1 .9 1.1 1 .5.5.9.7 1.4 1.1.9.7 1.8 1.5 2.8 1.7 2 .2 4-.2 5.9-.5l1.1-.2c.2 0 .2 0 .2-.1h.1v.2c0-.1 0-.2 0 0z"/></g><g><path class="st0" d="M239.7 279.3zM240.6 289.9zM245.7 283.9zM245.8 283.6c.1 0 0 0 0 0-.2 0-.3 0-.5-.3-.1-.3-.1-1.1 0-1.7.1-.7.2-1.4.5-2 .6-1.3 1.3-2.6 1.7-4.1s1.1-2.7 1.8-4.1c.7-1.3.7-2.9 1.4-4.3.2-.4.4-.7.6-1.2 0-.1 0-.4-.1-.8s-.2-.8-.3-.9-.6.6-.7.7c-.5.5-1.2 1.1-1.4 1.4-.5.7-.8.9-1.2 1.6-.8 1.5-1.6 2.9-2.9 4.1-1.1 1-1.4 2.4-2.2 3.5-.9 1.2-2 2.3-2.7 3.8l-.6 1.3c-.1.2-.2.5-.3.9-.1.3-.3.6-.3 1-.4 1.4-.6 2.9-.1 4.2.4 1.3 1.2 2.4 2.4 3.2 1.1.7 2.5 1.1 3.9 1.1 1.6 0 3.4-.4 4.1-.5 2.5-.5 4.8-1.4 7.2-2.5 2.1-.9 4.5-1.4 6.3-3.1.9-.8 2.3-2 2-3.8-.1-.4-.5-1-.9-1.4.6.7-1.6.1-1.7.1-.8-.1-1.4.1-2 .1-1.3.1-2.5-.2-3.5.1-2.1.7-4 1.7-6.1 2.4l-2.7.9-1.2.3h-.2c-.4.2-.3 0-.3 0z"/></g><g><path class="st0" d="M223.3 255.1c-.1 0-.1 0 0 0zM227.5 255.2zM229.1 248.3c0-.1 0-.1 0 0zM227 247.8c-1-.1-2 .1-2.9.5-1 .5-1.8 1.2-2.7 1.3-1 .1-1.9.2-2.8.5-.9.3-1.8.3-2.7.3s-1.8.5-2.6.2c-.2-.1-.4-.2-.7-.3-.1-.1-.7.3-.8.5-.1.1.2.6.3.7.3.4.7 1 1 1.2.5.4.8.5 1.3.7 1.1.3 2.3.4 3.4.9.9.5 1.9.1 2.8.2 1 .2 2 .6 2.9.5 1-.1 1.9.3 2.8.3l1.3-.1h1.6c.6 0 1.3.1 1.9.2 1.7.2 3.4-.1 5.2-.4 1.6-.3 3.6-.1 5.1-1.3.8-.6 1.9-1.5 1.4-3.1-.1-.4-.5-.9-.9-1.3.6.7-1.3-.2-1.4-.3-.6-.2-1-.2-1.5-.4-.9-.3-1.8-1-2.3-1-1.2 0-2.3.3-3.6.4-1.1.1-2.3.2-3.6 0-.4 0-.8-.1-1.2-.2-.3.1-.8 0-1.3 0z"/></g><g><path class="st0" d="M300.3 355.7c.1 0 .1 0 0 0zM297.7 354.8c0-.1 0-.1 0 0zM294.8 361.2zM295.9 361.9c.5.2 1.2.3 1.8 0 .7-.2 1.4-.7 2-.6s1.3.3 1.9.1a4 4 0 0 1 1.9.2c.6.1 1.3-.4 1.9-.1.2.1.3.2.5.3.1 0 .5-.4.6-.6 0-.1-.2-.6-.3-.7-.2-.4-.5-1-.7-1.1-.3-.3-.4-.5-.8-.7-.6-.3-1.3-.5-1.8-1.3-.4-.6-1-.4-1.5-.7-.5-.4-.9-1-1.5-1.1s-1.1-.7-1.7-.8c-.6-.1-1.2-.2-1.8-.4-.3-.1-.7-.3-1-.5-.8-.5-1.7-.6-2.5-1s-1.2-1.4-2.1-1.5c-.5-.1-1.1-.3-2 1-.2.3-.5.9-.7 1.4.4-.9.1 1.1.1 1.2 0 .6.1.9.2 1.4.1.9.1 1.9.5 2.3.8.8 1.8 1.1 2.7 1.5.8.3 1.7.6 2.5.9.8.3 1.3.6 1.8.8z"/></g><g><path class="st0" d="M255.5 343.5zM258.6 342.7c0 .1 0 0 0 0zM258.1 335.6zM256.2 335.7c-.8.1-1.5.5-2 1.1-.6.6-1 1.4-1.6 1.7-.6.3-1.3.4-1.9.8-.6.4-1.2.5-1.8.5-.2 0-.8.2-1.1.3-.4.2-.8.3-1.1.3-.2 0-.4-.1-.6-.1-.1 0-.4.5-.4.7 0 .1.3.5.4.6.3.3.8.8 1.1.9.5.2.7.3 1 .4.6.1 1.6.2 2.7.7.9.4 1.6-.2 2.3-.1.8 0 1.7.2 2.4 0 .7-.3 1.6-.1 2.2-.3.6-.2 1.2-.5 1.7-.6h.9c.4.1.7.1 1 .2h.3l.6.1c.4.1.8.1 1.2.2.7.1 1.5.3 2.2.4.8.1 1.6.1 2.2-.2.7-.3 1.6-.7 1.5-2.3 0-.4-.2-1-.4-1.5.3.9-.9-.7-1-.8-.4-.4-.8-.6-1.1-.9-.7-.6-1.2-1.5-1.5-1.6-.4-.2-.6-.3-1-.3l-.5-.1-.9-.2c-1.5-.3-3-.3-4.4-.2-.8.2-1.6.2-2.4.3z"/></g><g><path class="st0" d="M194.9 173.2zM192.1 172.4zM189.2 178.9zM190.8 179.7c.6.2 1.3.2 2.1-.1s1.5-.8 2.2-.8 1.4.1 2.2-.1c.7-.2 1.4-.1 2.1-.1.7 0 1.3-.6 2-.4.2 0 .4.1.6.2.1 0 .5-.5.5-.7 0-.1-.3-.5-.4-.6-.3-.4-.7-.8-.9-1-.4-.3-.6-.4-.9-.5-.7-.2-1.5-.3-2.1-1-.5-.5-1.1-.2-1.6-.5-.6-.3-1.1-.9-1.7-1-.6-.1-1.2-.6-1.8-.7-.3 0-.7-.1-.9-.1s-.4 0-.6-.1c-.2-.1-.5-.3-.8-.5-.6-.5-1.6-1-2.7-1.6-.5-.3-.9-.7-1.5-1.1-.6-.4-1.3-.8-2.1-.8s-2.1 0-2.5 1.6c-.1.4-.1 1 0 1.6-.1-.5.1-.2.3.1.2.4.3.9.4.9.2.5.4.8.6 1.2.3.8.2 1.8.4 2.1.4.6 1.1.9 2 1.5.8.5 1.8 1 3 1.6.6.3 1.6.8 2.1.9z"/></g><g><path class="st0" d="M221.2 244.8s.1 0 0 0zM222.9 242.1c.1.1.1.1 0 0zM217.4 237.7zM216.3 238.8c-.4.5-.6 1.2-.6 2s.3 1.7 0 2.3c-.3.7-.6 1.3-.7 2-.1.7-.4 1.3-.8 1.9-.3.6-.1 1.4-.5 2l-.4.4c-.1.1.2.6.3.8.1.1.6 0 .7 0 .5-.1 1.1-.2 1.3-.3.5-.2.7-.3.9-.6.5-.6 1-1.2 1.9-1.7.7-.3.7-1 1.2-1.5s1.3-.8 1.5-1.4c.3-.6 1-1 1.3-1.6s.5-1.3.9-1.8c.2-.3.5-.6.7-.9.7-.7 1.2-1.6 1.8-2.3.6-.6 1.7-.7 2.1-1.5.2-.4.6-.8 0-2.2-.2-.3-.6-.9-.9-1.3.6.7-1.1-.4-1.2-.4-.6-.2-.9-.2-1.4-.3-.9-.2-1.9-.5-2.5-.2-1.2.6-1.9 1.6-2.7 2.6-.7.8-1.2 1.7-1.8 2.6-.2.4-.7.9-1.1 1.4z"/></g><g><path class="st0" d="M263 353.5zM264.9 351.1c.1 0 .1 0 0 0zM259.5 346.6c0-.1 0-.1 0 0zM258.6 347.2c-.3.4-.5.9-.5 1.5 0 .7.2 1.5-.1 2-.2.3-.3.5-.5.7-.1.2-.3.5-.4.8-.2.6-.7 1.1-1.2 1.6-.5.6-.3 1.5-.8 2.1-.1.2-.3.4-.4.5-.1.1.3.7.5.8.1 0 .6-.2.7-.2.4-.2 1-.3 1.2-.4.4-.2.6-.2.8-.4.5-.4.9-.8 1.8-.8.7 0 .8-.7 1.4-1 .2-.1.3-.2.5-.3.2-.1.3-.1.5-.2.3-.1.6-.3.8-.6.4-.5 1.1-.8 1.5-1.4s.6-1.3 1-1.9c.2-.3.5-.7.8-1 .7-.9 1.1-2 1.5-3 .4-.9 1.4-1.8 1.4-3 0-.6 0-1.5-1.4-2-.4-.1-1-.2-1.6-.2.9.1-1.1.4-1.2.4-.6.2-.8.3-1.2.5-.8.3-1.8.4-2.1.6-.6.6-.8 1.3-1.1 2-.3.6-.6 1.2-1 1.8-.1.5-.5.8-.9 1.1z"/></g><g><path class="st0" d="M264.3 377.7zM266.7 377.9zM268 370.9zM266.7 370.5c-.6-.1-1.1 0-1.7.5-.6.4-1.1 1.1-1.6 1.1-.6.1-1.1.1-1.7.3-.5.3-1.1.3-1.6.2-.5 0-1 .6-1.6.4-.1-.1-.3-.2-.4-.2s-.4.4-.4.6c0 .1.2.5.3.7.2.4.5.9.7 1.1.3.3.5.5.8.6.6.2 1.2.3 1.9.9.5.5 1 .1 1.5.4.5.2 1 .7 1.5.7s1 .4 1.6.4c.5 0 1-.2 1.5-.1.3 0 .6.1.8.2.7.3 1.4.3 2 .5s.8 1.1 1.4 1.1c.4 0 .7.2 1.7-1 .2-.3.6-.8.9-1.3-.5.8.1-1.1.1-1.2.1-.6 0-.9 0-1.4-.1-.8 0-1.9-.4-2.3-.8-.8-1.9-1.1-3-1.3-.9-.2-1.8-.3-2.7-.4-.5-.2-1-.4-1.6-.5z"/></g><g><path class="st0" d="M174.7 194.3zM177.4 195.4c-.1 0-.1 0 0 0zM180.6 189.1c.1 0 0 0 0 0zM179.5 188.3c-.5-.3-1.2-.3-1.9-.1s-1.5.6-2.1.5-1.2-.4-1.9-.3c-.7.1-1.3-.1-1.9-.4-.6-.2-1.3.2-1.8-.2l-.4-.4c-.1-.1-.6.3-.7.4-.1.1.1.6.1.7.1.4.3 1 .4 1.2.2.4.4.6.7.8.6.4 1.3.7 1.7 1.5.4.7 1 .5 1.5.9s.9 1.1 1.5 1.2c.6.2 1.1.8 1.7.9.6.2 1.2.2 1.8.5.3.1.6.3.9.5.7.5 1.6.8 2.4 1.2.7.4.9 1.4 1.7 1.7.4.1.9.4 2.1-.6.3-.2.7-.7 1.1-1.2-.6.7.2-1.1.2-1.2.1-.6.1-.9.1-1.4 0-.9.2-2-.2-2.4-.7-1-1.8-1.5-2.8-2-.9-.4-1.8-.7-2.6-1.2-.6 0-1.1-.4-1.6-.6z"/></g><g><path class="st0" d="M293.1 351.6zM295.7 348.5zM290.9 343.2zM289.5 344.4c-.6.6-.9 1.4-1.1 2.3 0 .8.1 1.7-.4 2.2-.4.5-.9.9-1.3 1.5s-1 .8-1.7.9c-.6.1-1.2.8-1.9.6-.2-.1-.4-.2-.6-.2-.1 0-.6.4-.7.6 0 .1.2.6.3.7.3.4.7.9 1 1.1.5.3.7.4 1.3.5 1.1.1 2.1-.1 3.5 0 1.1.1 1.8-.8 2.7-1.2 1-.5 2-.9 2.7-1.7.7-.9 1.4-1.3 1.9-2s.8-1.4 1.4-2c.3-.3.7-.7 1-.9.9-.7 1.7-1.6 2.6-2.2s2.1-.5 2.8-1.1c.4-.4 1-.7.8-2.3 0-.4-.2-1-.5-1.5.4.9-1-.7-1.1-.7-.5-.4-.9-.4-1.4-.6-.9-.4-2-.9-2.7-.7-1.6.4-2.8 1.5-4 2.5-1 .9-1.9 1.9-2.8 2.8-.6.3-1.3.8-1.8 1.4z"/></g><g><path class="st0" d="M191.5 169.4s0 .1 0 0zM194.1 167.9zM190.9 161.6c0-.1 0-.1 0 0zM189.6 162c-.5.3-1 .8-1.2 1.4-.3.7-.4 1.6-.9 2s-1 .8-1.4 1.4c-.4.6-.9 1-1.5 1.3-.5.4-.6 1.2-1.3 1.5-.2.1-.4.1-.6.2-.1 0-.1.6 0 .8 0 .1.5.3.7.3.4.1 1 .3 1.3.3.5 0 .7 0 1-.1.7-.3 1.3-.6 2.3-.5.8.1 1-.5 1.6-.7.7-.1 1.4-.1 1.9-.5s1.3-.4 1.8-.8 1-.9 1.5-1.2c.3-.2.7-.4 1-.5.9-.4 1.6-1 2.5-1.4.8-.4 1.9-.1 2.5-.8.3-.3.9-.7.5-2.2-.1-.4-.3-1-.6-1.5.4.8-.9-.7-1-.7-.5-.4-.8-.5-1.2-.7-.8-.4-1.6-1.1-2.2-1-1.2.1-2.1.7-3 1.3l-2.4 1.5c-.2.2-.8.3-1.3.6z"/></g><g><path class="st0" d="M271.9 387.6c0 .1 0 .1 0 0zM274.7 385.1zM269.6 380.2zM268.7 380.7c-.3.3-.5.7-.6 1.3-.1.6-.1 1.4-.5 1.8s-.9.7-1.3 1.2-.9.8-1.5 1c-.5.2-.8 1-1.5 1h-.5c-.1 0-.3.6-.3.8 0 .1.4.4.5.5.4.3.9.6 1.1.7.5.2.7.2 1 .2.8-.1 1.5-.3 2.5-.1.8.1 1.2-.5 1.9-.6.7-.2 1.6-.2 2.2-.7s1.5-.8 2.1-1.4c.5-.6 1-1.4 1.5-2.1l.9-1.2c.4-.5.7-1.1.9-1.7l.3-.9.2-.4.1-.2v-.1h0c-.1-.1-.2-.1-.3-.2-.2-.1-.3-.2-.5-.3-.1 0-.2-.2-.2-.2s-.1-.1 0 0v.1c0 .1.1.1.1.2l.1.3c.1.1.1.3.2.4l.2.4c0 .1.1.4.1.3 0-.1.3-.2.6-.5s.8-.9.7-1.7c0-.4-.3-1-.5-1.5.2.4-.1.3-.4 0s-.6-.7-.6-.8c-.4-.5-.6-.6-1-1-.3-.3-.7-.6-1.2-.8-.5-.2-1.2-.2-1.8.1-.6.3-1.2.8-1.5 1.3-.2.3-.3.5-.5.7-.1.3-.2.5-.3.7l-.2.4-.1.3c-.1.2-.1.4-.2.5-.2.6-.5 1.2-.9 1.7-.1 0-.5.2-.8.5z"/></g><g><path class="st0" d="M181.5 206.7zM184.4 203.7c0 .1 0 0 0 0zM178.6 199.6zM178 200c-.2.2-.3.5-.3 1.1s0 1.4-.4 1.8c-.4.4-.9.7-1.3 1.2-.4.6-.9.8-1.5 1.1s-.8 1.1-1.4 1.3c-.2 0-.4.1-.6.1-.1 0-.2.6-.1.8 0 .1.5.3.7.4.4.2 1 .4 1.2.4.5.1.7.1 1 0 .7-.2 1.4-.5 2.3-.3.8.1 1.1-.5 1.8-.6.7-.2 1.6-.2 2.2-.7.6-.5 1.6-.9 2.2-1.7.3-.4.5-.8.7-1.2.2-.3.3-.6.5-1 .1-.2.3-.4.5-.6.6-.5 1.1-1.3 1.8-1.9.6-.6 1.8-.7 2.3-1.5.3-.5.7-1-.1-2.4-.2-.3-.7-.8-1.1-1.2.7.6-1.1-.3-1.2-.3-.6-.2-.9-.2-1.3-.3-.8-.2-1.8-.6-2.3-.4-1.1.4-1.8 1.2-2.6 2.1-.7.8-1.3 1.6-2.1 2.7-.1.2-.3.4-.3.5l-.2.2-.4.4z"/></g><g><path class="st0" d="M180.1 146.1zM179.6 146.5c0-.1 0 0 0 0zM186.7 150zM189 147.8c-.2-.5-.5-.9-.8-1.4-.1-.2-.3-.5-.4-.7l-.2-.3c-.1-.1-.1-.3-.1-.2 0 .2-.4.3-1-.1-.2-.1-.5-.3-.7-.5-.4-.4-.8-1-1.3-1.6l-.1-.1v-.2l-.1-.3c-.2-.1-.3-.3-.5-.4-.3-.2-.7-.5-1.1-.6-.4-.2-.8-.3-1.2-.5l-.6-.2-.4-.1c-.6-.2-1.2-.4-1.7-.6-1.1-.3-2.3.1-3.4-.3-.3-.1-.6-.3-.8-.4-.1-.1-.9.3-1.1.5-.1.1.3.6.4.7.3.4.9 1 1.1 1.2.5.4.8.6 1.4.8 1.1.4 2.3.9 3 1.9.2.4.3.5.5.6s.4.2.4.5-.1.5-.2.6h.2l-.2.1c-.3.1-.5.1-.5.1v.1c0 .1 0 .2-.1.3 0 0-.1.1-.2.1h-.1l-.4.3c-1.5.9-2.8 2.1-4.2 3-1.3.9-2.9 1.2-4.1 2.3-.6.6-1.5 1.3-1.1 2.9.1.4.4.9.8 1.4-.6-.8 1.3.3 1.5.3.7.2 1.2.1 1.7.2 1.1.1 2.3.4 3.1.1 1.7-.7 3.1-1.9 4.6-3 1.4-1 1.9-1.5 4.9-3.6 1.1-.8 2.3-1.5 3.5-2.3-.3-.2-.4-.4-.5-.6z"/></g></svg>