<?xml version="1.0" encoding="utf-8"?>
<!-- Generator: Adobe Illustrator 21.1.0, SVG Export Plug-In . SVG Version: 6.00 Build 0)  -->
<svg version="1.1" id="Layer_1" xmlns="http://www.w3.org/2000/svg" xmlns:xlink="http://www.w3.org/1999/xlink" x="0px" y="0px"
	 viewBox="0 0 500 500" style="enable-background:new 0 0 500 500;" xml:space="preserve">
<style type="text/css">
	.st0{fill:#FFFFFF;}
</style>
<g>
	<g>
		<path class="st0" d="M376.8,245.9c0.1-1,0.2-1.5,0.3-2c0.5-4.4,0.9-8.7,1.6-13.1c2-11.6,6.3-22.4,12.2-32.5
			c4.5-7.6,9.5-15,14.2-22.5c2.8-4.5,5.6-8.9,8.2-13.6c3.5-6.2,5.5-12.8,5.9-19.9c0.1-0.8,0.3-1.7-0.6-2.5c-0.5,1-0.9,1.8-1.2,2.6
			c-6.2,12.9-15.6,22.5-28.7,28.3c-3.6,1.6-7.3,3.1-11.1,4.4c-8.5,2.8-17,5.4-25.5,8.3c-7.8,2.7-15.1,6.4-21.8,11.3
			c-0.5,0.4-1,0.9-1.9,1.7c9.6-0.2,18.5,0.1,26,5.9c0-1.7,0-3.2,0-4.7c0.1-6.4,2.5-9.7,8.5-11.9c4.1-1.4,8.2-2.7,12.2-4.2
			c10.8-3.8,21.4-8.3,30.6-15.3c0.2-0.1,0.4-0.2,1-0.4c-0.3,1-0.5,1.8-0.9,2.5c-1,1.8-2,3.5-3.2,5.1c-1.9,2.5-3.9,5-5.9,7.5
			c-5.8,7.2-11.3,14.7-15.3,23.1c-4.7,9.7-7.1,19.9-6.5,30.7C375.3,238.4,375.7,241.9,376.8,245.9z M335,139.1
			c-0.4-0.2-0.5-0.4-0.7-0.4c-6.6-0.7-11.1-4.3-13.9-10.1c-1.9-3.8-1.5-7.6,0.7-11.2c0.9-1.4,1.9-2.6,3.1-3.8c4-3.8,8.8-6.6,14.1-8
			c10.6-2.9,21.4-4.7,32.4-5.6c6.9-0.6,13.8-1,20.7-1.6c13-1.1,25.3-5,37-10.9c6.5-3.3,11.6-8.1,14.3-15c3.5-8.9,2.4-17.7-0.5-26.5
			c-0.1-0.2-0.3-0.3-0.6-0.7c0.7,4,0.5,7.7-0.4,11.5c-1.5,6.2-4.6,11.6-8.8,16.4c-5.9,6.7-12.2,12.9-20.4,16.7
			c-6.4,2.9-13.3,4.4-20.2,5.2c-8.8,0.9-17.6,1.6-26.5,2.3c-7.5,0.6-15,1.4-22.4,3.1c-8,1.8-15.6,4.6-22.2,9.6
			c-0.8,0.6-1.6,1.2-2.2,1.9c-2.5,3.6-4.6,7.5-5.7,11.8c-1.7,6.8,0.6,12.4,6.6,16.1c2.8,1.7,5.8,2.9,9,3.5c0.7,0.1,1.6,0.2,2.1-0.1
			C332,142.1,333.4,140.6,335,139.1z M164.9,266c6.6-3.3,13.5-5.1,20.7-5.8c-1-3.1-1.9-5.9-2.7-8.8c-1.7-6-0.6-11.4,3.6-16.1
			c2.3-2.6,4.8-4.9,7.7-6.7c0.4-0.3,0.8-0.7,1.2-1c-1.4-0.9-2.6-1.7-3.8-2.6c-2.8-2.1-5-4.6-6.2-8c-0.9-2.4-0.9-4.6,1.1-6.5
			c0.8-0.7,1.4-1.6,2.1-2.4c4.3-4.4,9.4-7.7,14.8-10.6c10.5-5.6,21.7-9.6,33.1-12.9c0.7-0.2,1.5-0.5,2.2-0.7
			c-3.6-0.1-7,0.2-10.5,0.5c-14.1,1.3-28.2,2.6-42.1,5.1c-4,0.7-7.9,1.7-11.9,2.6c-0.9,0.2-1.9,0.5-2.1,1.7
			c-0.4,2.6-0.7,5.2-0.6,8.1c12.5-4.8,25.1-8.1,38-10.7c-0.6,0.5-1.3,0.8-1.9,1.1c-3.8,1.7-7.6,3.3-11.3,5.1
			c-5.7,2.8-11.3,5.7-16.2,9.9c-1.1,0.9-2,2.1-3,3.2c-0.9,1-1,2-0.3,3.1c1.4,2.1,2.7,4.2,4.2,6.3c0.9,1.3,2.1,2.4,3.4,3.8
			c-2.4,0.2-4.5,0.3-6.7,0.4c3.9,2.8,8.4,3.3,13.2,3.8c-4.5,3.1-8.2,6.3-10.8,10.5c-5.3-0.9-9.4-3.5-13.9-6.5
			c0.3,0.9,0.3,1.3,0.5,1.6c2.5,5.8,5.4,11.3,9.5,16.1c1.7,2,3.4,4,5,6c0.5,0.6,0.8,1.4,1.4,2.4C175.5,258.8,169.4,260.9,164.9,266z
			 M144.7,307.5c1.9,3.8,1.4,7.5-1.6,10.1c-1.2,1-2.4,2-3.7,2.7c-4.5,2.5-9.1,5-13.7,7.4c-4.5,2.3-8.4,5.2-11.8,8.9
			c-5.6,6.1-6.8,13.1-4.3,20.8c1.4,4.4,4.5,7.7,7.8,10.7c5,4.4,6,9.2,3.5,15.4c-0.4,0.9-0.8,1.8-1.2,2.7c3.2,0.4,5.8-0.6,7.3-3.4
			c3.1-5.6,4.2-11.4,0.7-17.3c-1-1.7-2.2-3.4-3.3-5.2c-1.4-2.2-2.4-4.5-2.5-7.1c-0.1-2.3,0-4.6,0-7.1c-1.7,1.7-2.3,3.2-2.4,5.5
			c-0.2,3.7,0.6,7.1,2.6,10.2c1,1.6,2.1,3.1,2.9,4.8c1.9,3.5,2.3,8.1,1.1,11c-0.8-5.1-2.3-8-6.2-11.5c-0.7-0.7-1.4-1.3-2.1-2
			c-2.7-2.6-3.7-5.9-3.4-9.3c0.3-3.8,1.3-7.5,2.1-11.2c0.8-3.6,3.1-6.1,6.2-8.1c7.9-5.2,16.1-9.8,24.6-14c1.2-0.6,2.4-1.4,3.3-2.4
			c3.3-3.2,5.3-7.2,6.6-11.5c1.6-5.4,1.8-10.9,1.4-16.4c-0.4-4.7-1.9-9.1-4.4-13c-2.2-3.4-5.2-5.8-9.2-6.9c-0.9-0.3-1.9-0.2-2.9-0.3
			c4,4.1,8,7.9,8.1,14.1c-3.5-0.7-6.5-0.4-9.4,2c3.9,0.2,7.5-0.4,10.9,1.3c0.3,1.6,1,3,0.5,4.6c-2.9,0.1-5.7,0.6-8.6,2.3
			c3.4,0.4,6.4-0.5,9.1,0.7c1.5,7.4-0.6,13.6-4.6,19.4c-0.2-0.5-0.2-1-0.1-1.5c0.6-3.2-0.2-6.1-1.2-9.1c-0.8-2.3-2.6-3.8-4.9-4.6
			c-1.3,1.6-2.5,3.3-3.9,4.6c-1.3,1.3-3,2.2-4.7,3.4C137.5,309.7,141.2,309,144.7,307.5z M104.4,247.1c-0.8-4.5-2-6.6-5.1-9
			c-6.3-4.7-13.3-5.2-20.5-2.4c-0.6,0.2-1.2,0.8-1.6,1.4c-2.2,2.7-2.8,6-3.4,9.3c-0.6,3.1-1,6.2-1.3,9.4c-0.4,4.7-0.7,9.4,0.4,14.1
			c0.8,3.7,1.8,7.4,3.6,10.8c3.3,6.6,7.8,12.1,14.3,15.8c0.6,0.3,1.2,0.6,2.1,1.1c-2.8-9.7-3.6-19-1.8-29c-1.6,1.6-2.4,3-2.6,4.6
			c-0.4,3.7-0.6,7.4-0.8,11.1c0,0.8,0.2,1.6,0.3,2.4c-8.5-16.5-3-38.6,6.8-48.4C98.8,240,101.9,243,104.4,247.1z M352.9,128
			c-4,5.6-9.4,9.7-14.5,14c-6,5.1-12.2,10-18.1,15.2c-5.9,5.1-11.5,10.6-16.2,16.8c-0.6,0.7-1.1,1.7-1.1,2.6c0,2.6,0.4,5.3,0.6,8.1
			c0.7-0.3,1.3-0.6,1.8-0.8c2.6-1,5.1-2.2,7.7-2.9c1.6-0.5,2.6-1.2,3.4-2.7c6.9-12.7,15.9-23.6,27.2-32.6c0.7-0.5,1.4-0.9,2.1-1.4
			c0.2,0.1,0.3,0.2,0.5,0.3c-0.1,1.6-0.1,3.2-0.3,4.8c-0.9,6.4-2.9,12.5-4.9,18.6c-1.1,3.4-2.3,6.7-3.4,10.1
			c0.2,0.1,0.3,0.1,0.5,0.2C348,163.1,353,146.3,352.9,128z M239.3,92.7c0-2.5-1.4-3.5-2.9-4.2c-2.2-1-4.3-0.4-6.3,0.7
			c-2.5,1.3-4.3,3.4-6.1,5.6c-0.5,0.6-1,1.2-1.8,2.2c0.3-6.5,0.7-12.3,2.9-17.8c0.5-1.3,1.3-2.6,2.2-3.8c1.3-1.8,3.2-2.5,5.4-2
			c0.5,0.1,1,0.2,1.7,0.3c-5.8-5-11.9-2.9-15.3,1.6c-0.6,0.8-1.1,1.6-1.5,2.5c-4.7,8.5-5.5,17.6-3.3,26.9c1.7,7,5,13.4,8.6,19.6
			c3.4,6,7.4,11.7,12.7,16.3c2.9,2.5,6,4.5,9.7,5.3c1.3,0.3,2.6,0.4,4.3,0.1c-7.6-8-13.1-16.9-16.5-27c-0.1,1.6-0.1,3.2,0.1,4.7
			c1,5.3,3.2,10.2,5.9,14.9c0.4,0.7,0.7,1.3,1,2c-0.7-0.1-1.2-0.4-1.6-0.8c-7.4-6.1-12-13.8-13.8-23.2c-0.5-2.4-0.9-4.9-0.7-7.2
			c0.5-5.1,2.5-9.7,5.5-13.9c1-1.4,2.2-2.6,3.5-3.7c1.8-1.4,3.3-1.2,5.1,0.1C238.4,91.9,238.7,92.2,239.3,92.7z M49.8,290.1
			c-0.2,0-0.4,0.1-0.6,0.1c-1.1-2.6-2.4-5.1-3.3-7.8c-2.2-6.8-1.6-13.6-0.3-20.5c0.8-4.2,2.1-8.4,4.2-12.1c1.4-2.5,3-5,4.5-7.6
			c1.3-2.3,0.8-3.4-1.7-3.8c-0.6-0.1-1.3-0.1-1.9,0.1c-2.1,0.7-4.1,1.6-6.1,2.4c-3.7,1.4-5.2,4.5-5.9,8.1c-0.7,3.5-1.1,7-1.7,10.5
			c-1.2,8,0.1,15.7,3.3,23c1.1,2.5,2.3,5.1,3.9,7.3c2.5,3.4,5.7,6.2,9,8.8c0.9,0.7,1.9,1.4,3.4,2.5c-0.6-2.2-1.1-3.8-1.5-5.4
			c-2.2-8-3.2-16.1-1.2-24.3c1.3-5.3,3.2-10.3,8.1-13.4c0.3-0.2,0.5-0.4,0.7-0.6c1.8-1.5,2.8-3.4,2.8-5.7c0.1-3.5-0.7-6.8-2.6-9.7
			c-0.2-0.3-0.3-0.8-0.4-1.1c-0.2,0.2-0.5,0.4-0.7,0.5c0.1,0.6,0.2,1.2,0.3,1.7c0.8,4.8,0.4,9.3-3.5,13c-3,2.9-5.3,6.4-6.6,10.4
			c-2.1,6.8-3.3,13.7-2.1,20.8C49.8,288.3,49.8,289.2,49.8,290.1z M329.9,116c0.4,0,0.6,0.1,0.7,0c15.9-4,32-3.8,48.2-1.4
			c4.3,0.6,8.6,1.8,12.9,2.3c10.4,1.2,20.9,1.3,31.4,0.2c6.5-0.7,12.8-2,18.8-4.8c3.4-1.6,6.5-3.7,8.9-6.7c0.3-0.4,0.5-0.9,1-1.7
			c-1.9,0.7-3.3,1.3-4.7,1.8c-11.1,4.1-22.5,6.3-34.3,6.2c-8.4-0.1-16.6-1.5-24.9-2.8c-6.9-1-13.8-2.2-20.8-2.6
			c-12.5-0.7-24.3,2.5-35.4,8.3C331.1,115.2,330.6,115.5,329.9,116z M200.9,274.2c1.8-1.5,4.2-2.4,5.3-5.2c-4.5,1-8.8,1.8-12.9-1
			c2-1.5,3.8-2.9,5.7-4.3c-0.1-0.1-0.1-0.1-0.2-0.2c-4.8,0.9-9.5,1.9-14.3,2.8c0.1,0.1,0.1,0.2,0.1,0.2c0.3,0.2,0.6,0.3,0.9,0.5
			c3.6,1.6,6.5,4,8.5,7.4c1,1.6,2,3.2,3.1,4.7c3,4.4,6,8.7,9,13c3.1,4.3,7.3,7.1,12.2,8.9c11.2,4,22.6,4.3,34.1,2
			c0.3-0.1,0.5-0.3,0.9-0.6c-12.8-1.5-22.9-3.8-25.5-5.8c3.8-3.5,3.8-3.5,4-5.2c-5,1.3-9.9,3.4-15.3,0.3c3.1-2.2,5.8-4.2,6.8-8.1
			c-5.5,2.6-10.6,4-15.9-0.3c1.5-1,2.8-1.8,4-2.7c1.3-0.9,2.7-1.7,3.4-3.4C205.9,278.1,203.5,277.6,200.9,274.2z M364.1,390.7
			c-2.4,0.1-3.7,1.5-5.1,2.9c-0.6-0.6-0.9-1-1.3-1.4c-9.2-9.8-18.3-19.7-27.7-29.2c-5.4-5.5-11.4-10.4-17.2-15.5
			c-0.6-0.6-1.4-1-2.2-1.5c-0.6,2.8-1,5.3-1.5,7.7c1,0.8,2,1.6,2.9,2.3c12.2,9.7,24.3,19.6,35.1,30.9c3.8,3.9,7.4,8,10.1,12.8
			c1,1.7,1.9,3.6,2.5,5.5c1.1,3.6,0,6-3.1,7.8c-5.3-1.9-8.9-1.2-10.8,2c1.7-0.1,3.5-0.5,5.2-0.1c2.6,0.5,5.1,0.9,7.8-0.3
			c-0.3,1.3-0.6,2.2-0.9,3.6c5.2-4,10.6-4.9,16.9-3.5c-2.3-2.9-4.5-4.9-7.5-6c-2.1-0.7-2.8-1.6-3-3.9c-0.2-2.5,0.9-4.6,2.3-6.6
			c0.6-0.9,1.3-1.8,2.1-2.9c-3.3,0-4.7,2.3-6.2,4.3C360.1,397.5,360.6,394.7,364.1,390.7z M215.4,322.8c3.1-4.8,6.4-9.4,6.2-15.7
			c-0.7,0.2-1.2,0.3-1.6,0.5c-5.3,2.3-10.1,1.1-14-2.6c-7.3-6.9-12.5-15.3-15.1-25.2c-0.1-0.5-0.3-1-0.4-1.5
			c-0.6,0.8-0.9,1.5-1.1,2.3c-0.8,3.4-0.8,6.8-0.2,10.2c0.9,5.7,3.2,10.9,6.2,15.8c3.8,6.1,8.4,11.6,13.6,16.5c1.2,1.2,2,2.3,2,4.1
			c-0.1,2.1,0.6,2.4,2.6,2c6.9-1.6,13.2-9.5,13.1-17C224,317.1,220.5,320.8,215.4,322.8z M103.6,273.4c0,1.1,0,2.1,0,3.2
			c-0.3,7-1.9,13.7-5.5,19.8c-1,1.7-2.2,3.3-3.8,4.3c-3,1.8-5.9,3.7-9,5.4c-2.6,1.5-5.4,2.6-8,4.1c-7.5,4.5-11.1,11.4-11.5,20
			c-0.2,4,0.9,7.7,2.2,11.4c0.9,2.5,1.8,5.1,2.5,7.6c0.9,3.5,0.7,6.9-0.8,10.2c-2.3,5-6.2,6.7-11.4,4.9c-2.9-1-5.4-2.6-7.8-4.5
			c-0.6-0.5-1.2-0.9-2.1-1.6c0.3,1.5,0.4,2.4,0.6,3.2c1.4,4.9,4,8.8,9,10.9c4.7,1.9,10.7,0.2,13.5-4.6c-1.4,0.3-2.8,0.7-4.3,1
			c-2.4,0.5-2.6,0.4-4.5-0.1c0.6-0.2,1.1-0.3,1.5-0.5c3.1-1.1,5.8-2.9,7.5-5.6c3.3-5.3,4.7-10.9,2.2-17.2
			c-2.6-6.5-2.7-13.3-1.5-20.2c1-6,3.9-10.6,9.1-13.8c2-1.2,4.2-2.2,6.2-3.4c3.3-1.9,6.6-3.9,9.9-5.8c1.7-1,2.7-2.5,3.5-4.2
			C104.7,290.1,105,281.9,103.6,273.4z M236.9,220.3c-3.7-0.7-6.8,0.2-9.9,1.1c-2,0.5-2.9,1.6-3.3,3.6c-2.2,11.5-1.2,22.6,3.6,33.4
			c0.4,0.9,0.9,1.7,1.2,2.5c3.5-0.2,7.5-2.3,10.4-5.6C234.4,244,233.8,232.3,236.9,220.3z M264,301.8c5-3,9.4-6.5,13.4-10.5
			c6.8-6.8,9-14.9,7.3-24.1c-0.6-3.3-1.3-6.5-2.3-9.7c-1.8-6-2.4-12.1-1.3-18.3c0.1-0.7,0.1-1.5,0.1-2.5c-0.5,0.3-0.7,0.4-0.9,0.6
			c-0.4,0.4-0.8,0.8-1.1,1.3c-3.9,5-4.5,10.6-3.2,16.6c1,4.5,2.1,9,2.9,13.6c1.2,6.8-0.3,12.9-4.9,18.2c-2.8,3.1-5.9,5.8-9.3,8.3
			c-0.4,0.3-0.9,0.5-1.6,0.8c1.5-3.8,3-7.3,1.9-11.4c-3,5.1-7.6,8-13.5,9.7C256,296.9,260,299.3,264,301.8z M252.2,251.4
			c-0.1-0.1-0.3-0.3-0.4-0.4c-0.4,0.4-0.8,0.8-1.2,1.1c-3.9,3.6-8,7-12.7,9.4c-2.4,1.2-5.1,2.1-7.7,2.9c-1.9,0.6-3.3,0.1-4.4-1.8
			c-3.9-6.2-6.2-12.9-6.9-20.1c-0.6-6.6,0.2-13.1,2.3-19.5c0.8-2.5,2.3-3.9,4.9-4.4c4.7-1.1,9.5-1.6,14.3-1.2c3.2,0.2,6.3,0.7,9.5,1
			c-0.9-0.8-1.9-1.3-2.9-1.7c-8.8-3.3-17.7-2.7-26.6-0.1c-1,0.3-1.4,1-1.6,1.9c-2.6,8.1-3.6,16.3-3.1,24.8
			c0.5,9.2,2.8,18.1,6.4,26.6c0.5,1.2,1,2.4,1.5,3.6C237.1,271.3,246.2,263.3,252.2,251.4z M31.1,151.5c1.4-1.4,2.6-2.6,3.8-3.8
			c5.4-5.3,11.3-10,18.1-13.5c18.6-9.7,37-9.2,55,1.6c0.4,0.2,0.8,0.4,1.1,0.6c-3.1-4.9-6.6-9.5-11-13.3c-0.6-0.5-1.6-0.9-2.4-1
			c-4.2-0.4-8.4-1-12.6-1.1c-10.5-0.3-20.5,1.6-29.8,6.9c-9.5,5.4-16.5,13.3-22.1,22.6C31.2,150.7,31.3,150.9,31.1,151.5z
			 M377.1,102.5c0.3,0.2,0.4,0.4,0.6,0.4c9.4,1.6,18.7,3.3,28.1,4.9c1.3,0.2,2.8,0.2,4.1-0.1c5.9-1.5,11.8-3,17.6-4.7
			c8-2.5,15.8-5.5,22.9-10.1c2.7-1.8,5.3-3.8,7.2-6.5c0.5-0.7,0.9-1.6,1.4-2.4c-5.3,4.2-11.2,6.9-17.4,8.9
			c-11.9,3.9-24.2,5.4-36.6,6.7c-8.7,0.9-17.5,1.7-26.2,2.5C378.2,102.1,377.7,102.4,377.1,102.5z M276.7,372.8
			c-0.5-4.8,0-9.1,1.6-13.2c2.2-5.5,6.2-8.9,12.1-9.6c2.5-0.3,5.1,0,8.1,0c-3.1-3.2-6.9-3.3-10.9-3.4c0.8-2.5,2.5-3.8,4.6-4.6
			c2.5-0.9,5-1.2,7.7-1c0.5,0,1-0.1,1.5-0.1c-1.1-1.3-2.2-2.2-3.5-2.8c-1.4-0.6-2.9-0.8-4.6-1.3c2.5-3,6.1-2.2,9.3-3
			c-1.9-2.3-4.5-1.9-7-2.3c0.7-1.2,1.4-2.2,2-3.2c3.6-5.6,6.7-11.5,8.4-18.1c0.6-2.4,0-4.1-2-5.5c-2.1-1.5-4.5-2.4-7.5-3.5
			c4.2,4.8,3.9,9.8,2.7,14.9c-0.5,2.1-1.2,4.2-2,6.3c-2.9,7.5-7,14.3-11,21.2c-1.6,2.7-3.3,5.2-5.3,7.5
			c-6.6,7.3-10.4,16.2-13.6,25.4c-1.1,3.2-0.5,5.5,1.7,7.7c0.7,0.7,1.4,1.4,2.2,1.9c0.7,0.5,1.6,0.6,2.3,1c-1.3-3.2-3.5-5.8-3.3-9.5
			c1.2,0.9,2.2,1.6,3.6,2.7c-0.8-3.8-2.7-7-0.9-10.6C274.1,370.7,274.7,372.3,276.7,372.8z M67.6,245.8c0.1,0,0.2,0,0.4,0
			c0-1.2,0.1-2.5,0-3.7c-0.3-2.7-2.1-4.5-3.5-6.5c-2.4-3.5-5.7-5.2-9.7-6c-0.6-0.1-1.2-0.2-1.8-0.4c0-0.2,0-0.3,0-0.5
			c4.2-0.7,8.2-2.2,12.6-1.2c4.2,0.9,7.8,3.3,11.7,5.7c-0.1-4-3-5.5-5.6-7.6c1.2,0.1,1.9,0.1,2.6,0.2c3.5,0.2,7,0.6,10.4,0.7
			c5.5,0.2,10.8,0.8,15.6,3.9c0.4,0.3,0.9,0.5,1.7,0.9c-1.2-3.3-3.4-5.2-6.4-6.5c2.1-1.7,4-3.3,3.9-6.4c-0.4,0.3-0.8,0.5-0.9,0.7
			c-1.7,2.4-4.3,3.4-7,4c-4.7,1-9.5,0.9-14.3,0.1c-3.4-0.6-6.7-1.1-10.1-1.3c-6.2-0.4-12.1,0.8-17.9,3c-2.9,1.1-5.4,3.1-7.3,5.5
			c-1.3,1.6-2,3.5-1.8,5.7c0.3,2.1,1.2,2.7,3.1,1.7c3.2-1.6,6.5-2.4,10-2.8c5.9-0.7,10.6,1.4,12.9,7.5
			C66.6,243.4,67.1,244.6,67.6,245.8z M308.1,227.8c0.2,2,0.2,3.8,0.5,5.6c0.6,4.8,1.4,9.5,3.8,13.8c1.9,3.5,2.3,3.6,6.1,3
			c0.2,0,0.5,0,0.7-0.1c3.9-0.8,7.7-1.8,11.4-3.7c-4.6-6.9-6.5-14.4-6.4-22.6C318.3,223.2,313.4,225.7,308.1,227.8z M138.4,128.5
			c-2.1-2.9-4.2-5.8-6.2-8.8c-0.8-1.2-1.8-2.1-3.2-2.5c-4.2-1.3-8.3-2.8-12.5-4c-9.4-2.5-19-3.5-28.7-3.9c-2.6-0.1-5.2,0-7.8,0
			c0.3,0.6,0.5,0.7,0.8,0.8c5.2,1.5,9.9,4,14.4,7c12.3,8.3,22.4,18.8,31.2,30.6c0.5,0.6,0.9,1.4,1.5,1.9c4.7,3.5,13.1,2.2,16.6-2.6
			c-2.9,0.1-5.9,0.3-8.9,0.3c-3.5,0-6.5-1.2-8.8-3.9c-3.1-3.7-6.3-7.3-9.4-10.9c-6.7-7.9-14.3-14.9-23.7-19.6
			c-0.2-0.1-0.5-0.3-0.7-0.5c0.1-0.2,0.2-0.3,0.2-0.5C109.7,113.8,125,118.5,138.4,128.5z M214.3,50.4c0.1-0.2,0.3-0.3,0.4-0.5
			c2.3,1.1,4.6,2,6.8,3.3c14.4,8.6,21.9,21.7,24.8,37.8c0.1,0.6,0.2,1.2,0.4,1.7c0.6-1.4,0.8-2.7,0.9-4.1c0.6-7.2-1.4-13.8-5.1-19.9
			c-3.6-6-8.4-10.9-13.7-15.4c-0.4-0.4-0.8-0.8-1.6-1.6c3.4,0.3,6.3,0.8,9,2.1c2.6,1.3,5.2,2.8,8,4.3c-8.1-10.9-28.4-16.8-37.7-11
			c3.4,1.8,5.5,4.8,7.3,8c2.3,4.3,4.4,8.7,6.5,13.1c0.3,0.6,0.6,1.2,1,1.9c0.7-0.3,1.1-0.4,1.6-0.6s0.9-0.6,1.5-0.9
			C222,61.7,218.6,55.8,214.3,50.4z M174.2,267.2c-3.8-0.3-6.9,1.1-9.2,4.3c-2.5,3.5-3.1,7.3-1.6,11.3c1,2.6,2.1,5.1,3.3,7.6
			c2.7,5.8,3.3,11.8,2.1,18.1c-0.7,3.4-1.6,6.6-4,9.3c-6.6,7.4-14.6,12.3-24.1,14.8c-0.7,0.2-1.5,0.4-2.2,0.6
			c0.6,0.4,1.1,0.5,1.6,0.5c3.2-0.2,6.3-0.3,9.5-0.8c7-1.2,13.3-3.9,18.7-8.7c3.3-2.9,4.8-6.4,5-10.7c0.3-5.2,0.1-10.4-0.7-15.6
			c-0.3-1.8-0.7-3.7-1.4-5.4c-1.6-3.6-3-7.2-3.5-11.1C166.8,275,168.7,270.8,174.2,267.2z M383,230.8c6.7-2.5,12.9-4.7,19-7.2
			c9.5-3.9,18.6-8.5,26.8-14.8c4.7-3.6,8.9-7.7,11.8-12.9c3.8-6.9,4.3-13.9,0.6-21c-0.3-0.5-0.7-1-1-1.5c-0.1,0.7,0.1,1.3,0.3,1.9
			c1.5,4.6,1.3,9.1-0.4,13.6c-1.4,3.8-3.8,7-6.5,9.9c-4.3,4.5-9.4,8-14.8,11c-10.1,5.7-20.9,9.7-31.9,13.1c-0.8,0.3-1.7,0.5-2.5,0.8
			C384,226.2,383.6,228.2,383,230.8z M392.3,205.2c0.1,0.2,0.3,0.4,0.4,0.5c2.5-0.7,5-1.4,7.4-2.1c6.9-2.1,13.6-4.9,19.7-8.9
			c4-2.6,7.5-5.6,10.1-9.7c2.1-3.3,3.2-6.9,2.9-10.9c-0.7-8.5-5.6-14.8-11.2-21c-1.2,2.3-1.6,4,0.1,6.2c1.8,2.4,3.2,5.3,4.2,8.2
			c2.7,7.8,1.1,14.7-5,20.4c-2.9,2.7-6.1,4.9-9.8,6.3c-4.4,1.8-9,3.2-13.5,4.8c-0.7,0.3-1.6,0.6-2,1.1
			C394.4,201.8,393.4,203.6,392.3,205.2z M363.1,240.9c0.1-0.6,0.1-0.7,0.1-0.9c-1.4-7.5-1.5-15-0.7-22.6c0.2-1.7-0.2-2.7-1.4-3.8
			c-4.5-4.2-9.4-7.7-15.1-10.1c-8.8-3.8-17.7-4.5-26.9-1.8c-0.8,0.2-1.8,0.7-2.2,1.3c-2.1,3.1-4.1,6.2-6.1,9.4
			c-0.6,1-0.9,2.2-1.5,3.5c1-0.1,1.5-0.2,2-0.1c1.7,0.2,2.3-0.8,2.9-2.2c0.8-2,2-3.9,3.1-5.7c0.7-1.1,1.8-1.6,3-1.8
			c13-2.3,24.8,0.3,35.7,7.8c1.5,1.1,2.1,2.2,1.8,4c-0.8,5-0.3,9.9,1,14.7C359.8,235.5,360.9,238.3,363.1,240.9z M81.5,195.4
			c-0.4,0.1-0.9,0.2-1.3,0.3c-2.1,0.4-4.1,0.9-6.2,1c-5.7,0.2-10.1-2.1-12.9-7.1c-1.1-2-1.9-4.1-2.4-6.3c-2.1-9.2-1-18.2,1.8-27.1
			c1.1-3.4,2.7-6.5,4.6-9.5c-0.4,0.1-0.8,0.3-1.1,0.5c-10.5,8.3-15.3,18.9-12.9,32.3c0.9,5.1,2.7,9.9,6.1,13.9
			c2.2,2.7,4.9,4.5,8.3,5.3C71.1,200.1,76.5,198.4,81.5,195.4z M139.2,295.1c-1-2.6-2.9-4.2-5.5-4.5c-5.2-0.6-10.2,0-14.4,3.7
			c-6.1,5.4-13.3,9-20.9,11.7c-0.5,0.2-0.9,0.4-1.4,0.6c0,0.2,0.1,0.4,0.1,0.6c3.3-0.4,6.7-0.4,9.8-1.3c3.1-0.9,5.9-2.8,8.9-4.3
			c0.2,1.7-0.5,3-1.3,4.4c-1.5,2.7-3.7,4.5-6.5,5.6c-3.9,1.6-7.9,2.9-11.8,4.5c-3.3,1.3-6.6,2.8-9.8,4.3c-3.1,1.5-5.1,4.2-6.2,7.5
			s-1.5,6.8-1.6,10.3c0,0.6,0.1,1.1,0.2,1.7c0.5-1,0.6-1.9,0.9-2.8c0.9-2.9,1.8-5.9,2.8-8.8c1.2-3.2,3.4-5.5,6.5-6.9
			c2.2-1,4.4-2,6.7-2.8c4.4-1.6,8.9-3.1,13.4-4.5c4.2-1.3,7.1-3.8,8.7-7.9c0.6-1.6,1.5-3.1,2.3-4.6c1.9-3.5,5-5.3,8.8-6
			c1.8-0.3,3.6-0.2,4.9,1.6c-0.6,0.7-1.2,1.3-1.8,2c-0.6,0.6-1.1,1.2-2,2.1C133.6,300.5,136.6,298.5,139.2,295.1z M328.5,218.5
			c-0.4-0.3-0.5-0.5-0.7-0.6c-8.4-1.9-16.3-0.5-23.6,4c-0.9,0.6-1.2,1.4-1.4,2.4c-0.7,5.7-0.6,11.3,0.5,17c1.2,6.2,3.5,12,7.1,17.2
			c1.1,1.6,2.3,2.1,4.3,1.7c5-1,10-2.3,14.6-4.4c4.5-2.1,8.5-4.7,11.7-8.5c0.5-0.6,1-1.3,1.6-2.3c-0.6,0.1-0.8,0.1-0.9,0.2
			c-7.3,4.6-15.4,7.3-23.8,9c-5.2,1-4.4,2.2-7.7-3.6c-4-7-4.7-14.7-4-22.7c0.3-3.4,2.1-5.1,4.9-6.3c0.9-0.4,1.8-0.8,2.7-1
			c2.4-0.5,4.7-1.1,7.2-1.5C323.5,218.9,325.9,218.8,328.5,218.5z M131.1,112.8c0.8,0.9,1.3,1.5,1.8,2c3.2,3.6,6.5,7.1,9.5,10.8
			c3,3.7,5.7,7.7,7.5,12.2c1,2.5,1.7,5.1,1.5,7.8c-0.2,3-1.3,4.2-4.2,4.5c1.4,2.2,3.1,3.3,4.8,3c2.1-0.3,2.8-2,3.3-3.8
			c1.4-4.8,1.2-9.5-0.4-14.1c-1.8-5.2-4.8-9.7-8.5-13.8c-0.7-0.8-1.4-1.6-2.1-2.5c1,0,1.9,0.2,2.6,0.6c1.8,1.2,3.6,2.5,5.4,3.8
			c1.5,1.1,2.9,2.3,4.5,3.3c1,0.6,2.1,1.2,3.4,0.6c-0.6-1.6-1.1-3.1-1.7-4.6c-0.1-0.1-0.2-0.3-0.3-0.4c-1-0.5-2.1-1-3.1-1.5
			c-0.8-0.4-1.5-0.9-2.3-1.4C146.5,115.2,139.1,113.7,131.1,112.8z M422.8,54.1c-0.2-0.2-0.5-0.4-0.7-0.6c-0.5,0.7-1,1.5-1.6,2.2
			c-8.3,8.4-17.1,16.2-26.6,23.3c-7.6,5.7-15.6,10.9-24.4,14.7c-0.6,0.3-1.3,0.6-2.3,1.1c1.1,0,1.7,0.1,2.2,0
			c5.9-0.8,11.7-1.7,17.6-2.5c1.3-0.2,2.3-0.6,3.3-1.5c1.7-1.5,3.5-2.9,5.2-4.4c10-8.8,18.9-18.5,26-29.9
			C422,55.6,422.4,54.9,422.8,54.1z M276.9,225.6c-5.3-12.8-5.6-14.1-4.6-20.6c-0.8-0.3-1.6-0.7-2.4-0.8c-4.3-1-8.5-2.1-12.8-2.7
			c-7.7-1.1-15.4-0.7-22.9,1.4c-0.8,0.2-1.8,0.5-2.4,1.1c-2.5,2.4-3.8,5.5-4.4,8.7c2.9-0.2,5.7-0.6,8.4-0.7c2.8,0,5.6,0.3,8.6,0.4
			c-1.7-1.8-3.2-3.4-5-5.3c10.2-3.4,19.7-2.9,29.2,1.1c0,3.5-0.2,6.9,1.2,10C271.2,221.4,273.3,223.9,276.9,225.6z M191.9,220.3
			c0.5,0,0.7,0,0.8-0.1c0.9-0.4,1.8-0.8,2.7-1.1c9.5-3.8,18.8-8.2,29.5-7.9c0.8-1.8,1.6-3.6,2.4-5.6c-4.6-1-8.9-0.5-13.1,0.2
			c-6.5,1.1-12.9,2.6-19.5,2.7c-4.5,0.1-7.3,5-5,8.9C190.3,218.5,191.2,219.4,191.9,220.3z M344.2,184.5c-5.9-0.5-11.2-1.1-16.6-1.3
			c-8-0.3-15.5,1.5-22.4,5.7c-1.1,0.7-1.7,1.5-2,2.8c-0.7,2.8-1.8,5.5-2.7,8.3c-0.2,0.6-0.5,1.2-0.6,1.5c1.3,1.8,2.4,3.4,3.6,5.2
			c0.6-1.6,1.1-3,1.6-4.4c1.5-4.6,4.6-7.8,8.9-9.8c1.3-0.6,2.7-1.1,4.1-1.6c4.9-1.5,9.9-1.8,14.9-2.1c1.5-0.1,3-0.5,4.4-1.1
			C339.6,186.9,341.6,185.8,344.2,184.5z M392.6,72.3c-0.1-0.1-0.2-0.2-0.3-0.3c-0.5,0.3-0.9,0.5-1.4,0.8c-12,8.1-25,14.1-39.1,17.7
			c-5.7,1.5-11.5,3.1-16.7,6c-2.6,1.4-5.1,2.9-7.2,5c0.9,0,1.7-0.2,2.5-0.4c5.8-1.7,11.6-3.2,17.6-3.7c4.8-0.4,9.2-1.6,13.6-3.6
			c10.8-4.8,20.7-11,29.1-19.4C391.4,73.7,392,73,392.6,72.3z M213.1,156.6c-0.5,0.6-1,1.2-1.6,1.8c-3.2,3.5-6.6,6.8-10.9,8.8
			c-0.7,0.3-1.4,0.7-2,0.7c-2.4-0.2-4.6-3.9-3.7-6.2c0.5-1.3,0.7-2.5,0.4-3.8c-2.2,2.1-4.2,4.1-6.4,6.3c0.5,0.3,1.1,0.7,1.7,1.1
			c0.3,0.2,0.9,0.5,0.9,0.7c0.2,2.3,2,2.4,3.6,2.7c0.8,4,1.2,4.3,4.2,2.9c0.1,0,0.3,0.1,0.5,0.1c0.1,2.2,0.5,4.3,2.9,5.3
			c-0.4,1.9-1.1,3.7-0.2,5.8c5.8-0.2,11.5-0.4,17.3-0.7c2.3-0.1,5.2-3.4,5.5-6c-1.3,0.5-2.5,1-3.7,1.4c-3.4,1.2-6.9,2.2-10.5,1.9
			c-2.5-0.2-2.9,0.1-3.4-3c3-2.2,6-4.3,8.8-6.5c2.9-2.3,5.3-4.9,6.5-8.5c-1.1,0.7-2,1.6-2.9,2.5c-2.9,2.7-6,5.3-9.6,7
			c-1.4,0.7-3,1.2-4.6,1.6c-1.8,0.4-2.1,0.2-2.9-1.4c-0.2-0.4-0.3-0.9-0.6-1.4C207.3,166.3,211.2,162.3,213.1,156.6z M265.1,262.8
			c-2.7,3.3-5.4,6.7-8.1,10c-3.5,4.2-7.2,8.2-11.7,11.3c-2.8,1.9-5.3,1.8-8-0.3c-2-1.5-3.3-3.6-4.3-5.8c-0.3-0.7-0.7-1.4-1.1-2.3
			c-1.2,0.4-2.2,0.8-3.2,1.2c1.7,5.1,5.1,10.1,8.9,13.2c1.9,1.6,4,2.8,6.4,3.5c1,0.3,1.8,0.2,2.6-0.5c6-5.4,11-11.5,14.7-18.7
			C262.8,270.7,264.4,266.9,265.1,262.8z M353.5,156.6c0.5,0.1,0.9,0.1,1.2,0.1c5.8,0.6,11.7,0.9,17.4,1.8
			c7.2,1.2,14.3,2.9,21.5,4.3c0.7,0.1,1.6,0.3,2.1,0c1.9-1.2,3.7-2.5,5.6-3.9c-5-4-36.8-7.3-46.4-7.5
			C354.5,153.1,354.1,154.7,353.5,156.6z M368.3,338.1c-2.5-3.7-2-7.5-0.2-11.2c1-2,2-4.1,3.4-5.9c2.7-3.8,5.6-7.4,8.4-11.1
			c2.2-3,4.5-6,6.6-9.1c2.8-4.2,3.5-9,3.3-14c-0.2-4.1-2.5-6.8-6.2-8.2c-0.5-0.2-1-0.2-1.6-0.2c0,0.3,0,0.4,0.1,0.4
			c0.3,0.4,0.5,0.8,0.8,1.2c2.4,3.6,3.5,7.5,2.4,11.8c-0.6,2.4-1.5,4.8-2.7,7c-1.7,3-3.7,5.9-5.8,8.7c-2.9,3.8-6,7.5-8.8,11.4
			c-1.6,2.1-3,4.5-4.1,6.9C361.5,330.5,362.5,335.3,368.3,338.1z M77,147.1c3.4,3.3,3.6,7.2,3.1,11.1c-0.2,1.4-0.8,2.5-2.2,3.2
			c-3.1,1.7-5.7,4.1-7.3,7.3c-0.7,1.4-1.4,2.9-1.2,5c0.7-1,1.1-1.6,1.7-2.2c1.8-1.9,3.5-3.9,5.5-5.5c2.3-1.8,4.9-2.4,7.8-1.2
			c0.4,0.2,1,0.3,1.4,0.2c2.9-1,5.8-1.9,8.7-3.2c1.6-0.7,1.6-1.3,0.8-3c-2.1-4.7-5.5-8.2-10.2-10.4C82.7,147.5,80.2,146.7,77,147.1z
			 M398.2,411.7c-0.8-0.8-1.2-1.5-1.8-1.7c-1.7-0.6-2-1.9-2.2-3.4c-0.5-3.5-2.4-5.9-5.6-7.4c-2.1-1-4.2-2.1-6.3-3.2
			c-9.8-5.3-18.4-12.1-26.8-19.4c-2.2-2-4.5-3.9-6.7-5.9c1,1.9,2.4,3.4,3.8,5c6.7,7.2,14.4,13.1,22.2,19c3.9,3,7.7,6,11.4,9.1
			c1.2,1,2.2,2.2,3.1,3.5c1.2,1.8,0.9,2.4-0.9,3.6c-1.3,0.9-2.4,2.1-3.6,3.2c-0.1,0.1-0.1,0.5-0.1,0.8c0.5,0.4,1.1,0.8,1.6,1.2
			c-1.2,7-1.1,7.3,1,8.8c0.7-1.9,1.2-3.9,2-5.7C391,415.3,393.1,412,398.2,411.7z M407,146c-16.8-3.3-33.5-5-50.3-5.9
			c0,1.5,0,2.9,0,4.3c7.9,0.7,15.9,1.2,23.9,2.2s16,2.4,24.1,3.7C405.3,149,406.1,147.7,407,146z M270.3,305.5
			c-0.3,3.2-0.4,5.8-0.7,8.3c-0.5,4.1-1.3,8.2-3.2,12c-0.5,1-1.2,1.8-1.7,2.7c-0.4-2.2-0.1-4.2-1-5.9c-2.2,1.7-4.3,3.4-6.5,4.8
			c-2.3,1.4-4.7,2.4-7.3,3.6c2.1,3.2,4.6,5.6,8,7.3c0.9,0.4,1.7,0.1,2.5-0.4c5.2-3.1,8.8-7.3,10.7-13.1c1.4-4.3,1.4-8.6,0.9-13
			C271.6,309.8,271.4,307.8,270.3,305.5z M130,174.7c-0.8,0.3-1.3,0.4-1.7,0.7c-3.4,2.1-6.4,4.7-9.1,7.7c-3.8,4.3-6.5,9.3-8.2,14.8
			c-0.6,2-1.5,3.6-3.6,4.5c-2.6,1.1-3.2,3.4-1.6,5.6c1.1-3,1.1-3,3-3.5c-0.1,1.2-0.1,2.4-0.2,3.5c0.2,0,0.4,0.1,0.7,0.1
			c0.6-1.8,1.3-3.6,1.9-5.4c4.8,2.1,8.3,2.7,10.9,1.6c-0.8-0.3-1.6-0.5-2.3-0.8c-0.7-0.3-1.4-0.8-1.9-1.1c0.3-8.8,5-20.1,8.6-21.3
			c0.1,1.8,0.1,3.6,0.3,5.3c0.2,1.7,0.6,3.4,1.7,4.9C127.5,185.7,128.8,180.3,130,174.7z M270.5,97.4c0-0.4,0.1-0.8,0.1-1.2
			c-0.3-9.4-2.2-18.4-6.7-26.7c-3.5-6.5-8.4-11.5-15.2-14.6c-0.7-0.3-1.5-0.5-2.2-0.8c6.8,9.6,10,20.4,12,31.7
			c1.6-7.3-0.1-14.2-2.6-21.1c1,0.8,1.9,1.7,2.5,2.7C264.3,76.5,267,87.1,270.5,97.4z M124.2,152.3c-3.3,0-6.5,0.1-9.6,0.1
			c-2.2,0-4.2-0.7-6.1-2.1c-4.4-3.3-9-6.1-14-8.4c-5.1-2.4-10.4-4.1-16.1-4.5c-2.1-0.2-3.9,0-5.9,0.9c1,0.2,1.8,0.3,2.5,0.5
			c0.8,0.1,1.6,0.3,2.4,0.4c11.4,2.3,21.2,7.2,28.1,16.9c0.6,0.9,1.5,1.2,2.5,1.2c3.1,0.1,6.2-0.1,9.2-1
			C119.8,155.4,122.2,154.3,124.2,152.3z M251.9,307.9c-1.2,5.4-1.6,10.7-5.7,14.6c-1.6-1.7-1.1-3.8-1.8-5.6
			c-1.5,2.2-2.9,4.3-4.4,6.5c-2.6,3.8-6.4,5.1-10.8,4.8c-0.8,0-1.6-0.2-2.4-0.3c-0.6-0.1-1.2-0.1-1.8-0.1c4.6,3.6,9.7,5.6,15.4,5.6
			c0.7,0,1.4-0.4,2-0.8c6.3-3.9,9.5-9.6,10.3-16.8C253,313.2,253.1,310.7,251.9,307.9z M329.4,309c-4.3,3-8.6,5.9-11.6,10.1
			c-3.1,4.2-5,8.8-5.8,14c0.7-0.6,1.1-1.3,1.5-2c2.1-3.2,4-6.5,6.5-9.4c3.4-4.1,7.9-6.6,13.3-7.6c0.5-0.1,1.1-0.2,1.7-0.3
			c0.5-4.1-1.2-7.2-3.8-10c-1.7-1.8-3.6-3.5-5.5-5.2c-4.2-3.6-8.2-7.4-11.1-12.3c-0.1-0.2-0.3-0.2-0.7-0.5c0.2,0.8,0.2,1.3,0.4,1.9
			c0.9,2.8,2.4,5.3,4.5,7.5c1.6,1.7,3.3,3.4,4.9,5.1C326,302.7,328,305.4,329.4,309z M389.3,252.4c2.7,1,5.5,1.9,8.2,3
			c2.4,1,4.7,2.3,6.9,3.6c1.2,0.7,1.4,1.7,1.2,3.1c-0.7,4.8-1.3,9.7-1.9,14.5c-0.7,6.3-1.2,12.6-1.8,18.9c-0.2,2.7-0.3,5.3-0.5,8
			c0.6-2.2,1-4.4,1.3-6.6c1.7-9.9,3.5-19.8,6.4-29.5c1-3.3,2.3-6.6,3.5-9.9C408.8,254.4,396.8,252.2,389.3,252.4z M396.1,422.7
			c0.5,0,0.7,0.1,0.8,0c4.2-1.8,6.1,0.5,7,3.5c0.2,0.5,0.4,1.1,0.5,1.6c0.7,3.9,1.1,7.7,0.7,11.6c-0.2,2.3-0.3,4.6-0.4,7.3
			c0.5-0.6,0.7-0.8,0.9-1.1c3.9-6.3,5.3-13.2,4.5-20.5c-0.5-4.4-2.6-7.8-6.4-10.1c-1.6-1-3.1-0.8-4.6,0.1
			C396.2,417,395.7,419.7,396.1,422.7z M130,219.4c0.1,0,0.2,0.1,0.3,0.1c0.5-1.4,1.1-2.8,1.5-4.3c0.6-2.4,0.7-4.7-1.4-6.7
			c-2.6-2.5-7.3-3.4-10.6-1.9c-3.4,1.5-5.9,4-7.8,7.1c-1.4,2.2-1.6,4.7-1,7.2c0.4,1.6,1.3,2.8,2.9,3.3c3.3,1,6.6,0.9,10.3-0.4
			c-2-0.3-3.5-0.5-5-0.8c-1.8-0.4-1.9-0.7-2-2.5c-0.2-3.8,1.9-6.3,4.6-8.3c1.4-1.1,3-2,4.9-1.9c2.2,0.1,2.6,0.2,2.9,2.4
			C129.8,214.9,129.8,217.1,130,219.4z M294.1,408.3c-1.5-0.3-2.4-0.4-3.3-0.6c-1.5-0.4-3-0.8-4.3-1.5c-2.4-1.2-3.9-3.1-3.6-6.1
			c0.4-3.2,0.7-6.4,1.2-9.7c0.3-2.2,0.8-4.3,1.1-6.5c0.5-4.1-1.7-6.7-5.7-6.9c2.5,1.8,2.2,4,1.2,6.4c-0.7,1.6-1.3,3.3-1.9,5
			c-1.3,4.1-1.9,8.2-1.4,12.5c0.5,4.1,3.2,7.2,7.1,8C287.5,409.8,290.5,409.5,294.1,408.3z M148.8,208c6.6-4,16.8-22.1,15.9-28.3
			c-8.3,9.3-17.3,17.8-26.9,25.4c1,3.6,4.2,6.9,8.5,8.6c-0.7-0.8-1.2-1.3-1.7-1.9c-1.6-1.9-2.6-4.1-2.5-6.7c0-0.9,0.2-1.6,0.9-2.1
			c2.4-1.8,4.7-3.8,7.1-5.6c0.9-0.6,2-1,3.2-1.5C153.7,200.8,150.7,204,148.8,208z M289.2,385c3,1.9,4.2,4.5,4.8,7.4
			c0.5,2.5,0.8,5,1.4,7.4c0.7,2.8,1.4,5.5,2.3,8.2c0.5,1.4,1.5,2.1,3.1,2.2c5.7,0.5,10.3-1.9,13.1-7c0.3-0.6,0.5-1.2,0.9-2.1
			c-7.6,5-9.3,5.6-12.7,4.8c1.5-0.9,3.3-1.4,4-3.4c-2.2-0.1-3.3-1.5-4.2-3.1c-1.5-2.7-2.9-5.5-4.5-8.1c-1.1-1.8-2.3-3.5-3.7-5.1
			C292.7,384.9,291.3,384.3,289.2,385z M309.6,287.4c0.2-0.1,0.4-0.1,0.6-0.2c-1.1-3-2-6.1-3.2-9.1c-2.1-5.6-4.6-11.1-8.4-15.9
			c-2.4-3.1-5.4-5.7-9.1-7.2c-0.5-0.2-1-0.3-1.3-0.4c0.3,3.6,0.6,7,0.9,10.7c-0.1-0.1-0.1,0,0,0c0.7,0.4,1.4,0.7,2.2,1.1
			c5.5,2.5,9.8,6.3,12.8,11.6c1.1,2,2.2,4,3.3,6C308.3,285,309,286.2,309.6,287.4z M279.1,299c3.7,1.9,7.5,2.1,11.4,1.6
			c0.5-0.1,1.2-0.6,1.5-1.1c5.2-7.6,6.6-15.7,3-24.4c-0.1-0.4-0.5-0.6-0.9-1.2c-0.1,5.5,0.5,10.8-2.4,15.7c-1.1-0.9-2-1.6-3.1-2.5
			c-0.5,2.8-1.5,5.1-3.4,6.8C283.3,295.8,281.3,297.3,279.1,299z M283.2,178.4c3-4.9,5-9.9,5.9-15.4c-7.5-2.9-21-3.1-26.2,1.5
			c-0.5,5.6-0.2,11,0.5,12.2c0.9-3.2,1.7-6.5,2.7-9.8c0.2-0.7,0.7-1.7,1.3-1.9c4-1.7,8.1-2.4,12.3-0.8c1.3,0.5,1.9,1.4,2.1,2.7
			C282.2,170.5,282.7,174.2,283.2,178.4z M301.4,214c-0.8-3.7-1.5-7-5.1-8.6c-0.9-0.4-1.7-1-2.7-1.2c-2.7-0.4-4.1-2.3-5.2-4.6
			c-0.6-1.4-1.3-2.8-1.9-4.2c-0.2-0.4-0.4-0.9-0.9-1.7c-1.8,5.9,1.2,9.8,4.3,13.8c-2.2,1.4-4.3,2.7-6.4,4c1.6,1.3,3.2,2.4,4.5,3.8
			c1.4,1.4,2.4,3,3.9,4.9c0-1.5,0-2.6,0-3.6c0-1.5,0.4-2.9,1.3-4.1c1.4-1.8,2.6-2.1,4.6-1C299,212.2,300,213.1,301.4,214z
			 M180.3,130.2c0.4-1.6,1-2.9-0.4-4.1c-5-4.3-10.5-7.7-17-9.2c-0.8-0.2-1.7-0.2-3.1-0.4c3.3,4.3,5.6,8.5,7.2,13
			c1.6,4.4,2.5,9.1,3.4,13.7c1.9-7.7,0.1-14.9-2.8-22c3.8,2.3,5.7,6,7.5,10.4c0.9-1.9,1.5-3.2,2.2-4.8
			C178.4,128,179.2,129,180.3,130.2z M233.3,111.1c0.1-0.7,0.1-1.2,0.1-1.8c0.3-2,0.6-2.3,2.5-2.6c2.7-0.4,4.8,0.6,6.3,2.8
			c0.4,0.6,0.6,1.3,1.6,1.3c3.3,0,6.5-0.6,9.2-2.6c1.1-0.8,1.9-1.8,2.2-3.4c-5.3,2.4-5.9,2.5-8,1.2c0.9-2.7,3.1-5.3,0-8.3
			c-0.9,3-1.4,6-4.6,7.3c-0.6-0.9-1.1-1.7-1.7-2.5c-1-1.4-2.2-2.6-3.9-3.2c-1.8-0.6-3.4-0.1-4.4,1.5
			C230.9,103.8,231.2,108,233.3,111.1z M110.4,239.9c1.4,0.5,2.4,0.7,3.2,1.2c1.6,1.1,3.3,2.2,4.5,3.7c2.6,3.2,5,6.6,7.4,9.9
			c0.4,0.5,0.7,1.1,1.1,1.6c-0.2-5.1-2.2-9.4-5.6-12.9c-5.7-6.1-13-8.9-21-10.4c-0.1,0-0.2,0.1-0.5,0.2c6.8,4.7,9.1,11.9,11.2,19.4
			C112.3,248.5,112.3,244.4,110.4,239.9z M280.4,304.2c-0.4,4.2-0.7,8-1,11.9c-0.1,1.1,0.5,1.6,1.2,2.2c3,2.2,5.6,4.7,7.8,7.7
			c0.2,0.3,0.5,0.5,0.8,0.7c1-1.6,1.8-3.1,2.7-4.6c-4.6-4.6-5.3-10.7-6.5-16.7c-0.7-0.2-1.3-0.4-1.9-0.6
			C282.6,304.6,281.6,304.5,280.4,304.2z M338.3,446.6c-5.1-8.5-2-24,8-29.5c-4.2,0.2-7.8,1.2-10.9,4c-2.4,2.2-3.9,4.5-4.2,7.8
			c-0.3,4.8-0.1,9.4,2.4,13.7C334.6,444.2,335.8,445.7,338.3,446.6z M371.2,355.9c0.2-0.8,0.4-1.6,0.6-2.4
			c1.6-5.1,3.3-10.2,4.9-15.3c0.2-0.6,0.5-1.3,0.4-1.9c-0.3-2.8-4.2-5.3-7.2-4.7c2.4,2.5,2.4,5.5,1.8,8.5c-0.7,3.7-1.7,7.3-2.4,10.9
			c-0.4,2.3-0.8,4.7-0.8,7c0,2.8,1.5,4.2,4.3,4.6c0.1-1.8,0.2-3.6,2.1-4.6c1.8-0.9,3.4,0.4,5.1,0.8
			C379.3,354.8,377.3,354.2,371.2,355.9z M279.9,187.1c-0.4-0.3-0.9-0.7-1.4-1c-6-3.7-12.4-5.1-19.4-4.1c-1.2,0.2-2.1,0.7-2.8,1.7
			c-2.2,3.3-4.6,6.5-6.8,9.8c-0.2,0.3-0.4,0.8-0.5,1.1c5.9-4.1,12.1-6.3,19.6-4.8c-2.5-3.3-5.9-3-9.4-3.5c0.9-0.3,1.5-0.6,2-0.6
			c1.4-0.2,2.7-0.3,4.1-0.4C270.3,185.2,275.1,186.2,279.9,187.1z M165.5,225.9c-2.9-0.6-5.5,0.1-8,1.5c-3.8,2.2-5.2,5.8-6.1,10.3
			c-1.4-2.2-2.2-4.3-4.2-5.3c-0.1,0.2-0.2,0.3-0.2,0.4c0.3,0.7,0.5,1.4,0.8,2c2,4.8,3.9,9.7,4.6,14.9c0.3,2.3,0.1,2.7-2.1,3.3
			c-0.8,0.2-1.6,0.3-2.4,0.5c-0.4,0.1-0.8,0.3-1.7,0.6c3.8,1.3,7.1,1.7,10.7,1.1c-0.6-1.7-1.2-3.1-1.6-4.5
			c-1.4-5.9-0.9-11.8,0.9-17.6c1-3.3,3.5-5.4,6.8-6.5C163.8,226.3,164.7,226.1,165.5,225.9z M413.9,340.3c-2.8-0.6-4.9-2.1-5.8-4.9
			c-0.4-1.3-0.7-2.7-1-4c-0.2-0.8-0.3-1.7-0.4-2.6c-2.5,1.7-3.6,4.4-3.7,8.6c4.2,2.4,4.7,6.2,4,10.5c-0.3,1.8-1,3.6-1.6,5.4
			c-0.2,0.7-0.4,1.3-0.7,2.1C409.9,353.5,414.4,346.9,413.9,340.3z M360.7,444.2c-0.5-1.4-0.8-2.3-1-3.2c-1.4-5.3-1.4-10.6,1-15.7
			c1.9-4.1,4.4-5.3,8.8-4.4c0.1,0,0.3,0,0.5-0.1c-1.4-2.8-4-4.1-6.7-3.1c-1.1,0.4-2.3,0.9-3.3,1.5c-3.4,2.3-5.8,5.5-5.8,9.6
			c-0.1,4.1,1,8.2,3,11.9C358,442,358.9,443.2,360.7,444.2z M378.5,332.9c3.6,2.9,3.7,7,4.2,10.9c0.3,2.2,0.3,4.5,0.6,6.8
			c0.3,2.7,0.9,5.3,2.2,7.6c0.5,0.8,0.8,1.7,1.9,2.1c1.2-2.8,3.2-4.5,6-5.1c0.3-1.4-0.5-1.7-1.4-1.7c-0.8,0-1.6,0.1-2.4,0.2
			s-1.5,0.3-2.6,0.6c0-3.7,0.1-7,0-10.3c-0.1-2.8-0.5-5.7-1.8-8.2C383.9,333.1,381.9,332.3,378.5,332.9z M394.2,286.8
			c0.2-0.1,0.4-0.1,0.5-0.2c0.2-0.2,0.3-0.3,0.5-0.6c1.7-3.1,0.9-6.1-0.3-9.1c-1.2-2.8-3.3-3.9-6.1-4c-1.1-0.1-2.3-0.1-3.4-0.2
			c-5.8-0.3-11.5-0.5-17.3-0.8c-1.5-0.1-3-0.4-4.4-0.6c0.6,0.9,1.4,1.5,2.2,1.9c2.7,1.3,5.5,1.9,8.5,2.1c2.9,0.2,5.8,0.3,8.8,0.5
			c6.2,0.4,9.3,3,10.7,9.1C393.9,285.6,394,286.2,394.2,286.8z M311.8,386.1c-4.2-2.9-5.6-3-7.6-0.2c2.9,1,5.6,2.3,6.9,5.5
			c4.1-2.8,7.1-6.1,8.6-10.7c-2.6-2.3-4.4-5.1-6-8c-1.6-3-3-6.1-4.5-9.2c-0.2-0.4-0.5-0.8-0.8-1.2c-0.1,1.5,0,2.9,0.3,4.2
			c0.9,4.4,2.2,8.7,5.3,12.1c1.1,1.1,1.2,2.2,0.8,3.5C314.4,383.8,313.5,385.2,311.8,386.1z M269.7,166.1c-0.6,3.5-1.2,6.9-1.7,10.2
			c3.8-0.5,7.5-0.9,11.2-1.4c1.1-2.8,1.3-5.7,0.9-8.8C276.5,165,273.2,164.4,269.7,166.1z M370.5,255.2c-0.1-0.1-0.2-0.1-0.3-0.2
			c-0.6,0.6-1.2,1.2-1.9,1.8c-3.5,3.2-7.1,6.4-10.7,9.6c-1.7,1.5-3.8,2.6-6.1,2.8c-3,0.3-6,0.5-8.9,0.7c-0.7,0.1-1.5,0.1-2.2,0.1
			c4.3,2.3,8.8,3.5,13.6,3.5c1.2,0,2.2-0.3,3.1-1.1c5.6-4.4,9.9-9.8,13-16.1C370.2,255.9,370.3,255.6,370.5,255.2z M111,281.1
			c8.1-0.1,15.2-9.2,14.6-18.7c-1.2,2.6-2.4,5.2-3.7,7.7c-1.3,2.5-3,4.8-5.9,6.6c0.2-1.1,0.3-1.7,0.4-2.3c0.4-2.2,0.8-4.3,0.2-6.5
			c-0.7-2.9-2.8-4.7-5.7-4.7C113.3,269.2,113.2,275.1,111,281.1z M128,281.3c2.2-0.5,3.6-1.5,4.9-2.7c2.2-2.1,3.8-4.7,4.6-7.6
			c0.6-2.2,1.9-2.9,3.9-2.8c1.8,0.1,3.7,0.5,5.5,0.7c0.5,0.1,1,0.2,1.7,0.4c-2.5-3.8-7.9-5.5-13-4.1c-1.9,6.9-2.6,8.1-5.5,9.5
			c-0.7-2-0.8-4.2-2.6-5.8c-0.3,1.3-0.7,2.6-0.4,3.7C127.9,275.4,128.6,278.1,128,281.3z M266.7,151.1c1.8,0,3.5,0,5.2,0
			s3.4-0.1,5.1-0.3c1.4-0.2,2.1,0.5,2.7,1.6c0.7,1.5,1.3,3.1,2,4.8c1.3-1.9,1-3.8,1.2-5.6c4.5-1.9,6.5-3.5,7.6-6.1
			c-1.9,0.7-3.8,1.6-5.8,2.1c-5.8,1.6-11.8,1.3-17.7,0.3c-2.2-0.4-3.5,0.5-5,1.8c2.8,2.8,3.9,6.4,5.2,10.1
			C269,156.5,266.9,153.9,266.7,151.1z M68.5,189.3c-2-2.5-3.8-5.1-4.5-8.3c-1.2-4.7-0.8-9.4,0.7-13.9c1.3-4,3.3-7.7,6.2-11.4
			c-0.7,0.2-1,0.3-1.3,0.4c-4.2,1.9-7,5.2-8.5,9.6c-1.4,4.2-1.4,8.5-0.9,12.8c0.3,2.5,1.2,4.9,2.8,7C64.4,187.3,66,188.8,68.5,189.3
			z M249.3,277.4c-1.5-2.4-2.9-4.6-4.3-7c-3,1.6-6,3.1-9.1,4.7c1,3.1,2.5,5.4,5,7.1c1.1,0.7,2,0.8,3.1,0.1
			C246.1,280.8,248,279.2,249.3,277.4z M350.3,258.2c-9.5,4.5-19.3,7.2-30,4.4c0.6,0.8,1.2,1.4,1.9,1.8c2.2,1.1,4.4,2.1,6.6,3.1
			c3.3,1.5,6.4,1.2,9.6-0.4C342.9,264.7,347,262.1,350.3,258.2z M182.2,123.4c-0.2,0.2-0.3,0.3-0.5,0.5c2.8,7.4,4.6,15.1,5.5,23
			c1.4-5.2,0.5-10.6,0.9-16c3.1,1,4.5,3.6,6.4,5.8c1.4-4.2,1.1-5.5-2.2-7.6C189.1,127,185.6,125.3,182.2,123.4z M197,127.4
			c3.6,7.9,2.8,16,1.4,24.1c2.8-4.5,4-9.6,4.9-15c2.9,1.9,3.6,5,5.3,7.3c1.4-2.9,0.6-5.2-1.2-7.5C204.7,132.6,201.2,129.7,197,127.4
			z M93.4,262.4c0.6,0.1,0.7,0.2,0.7,0.2c3.4-1.6,3.9-1.4,5,2.1c0.7,2,1.3,2.5,3.5,2.7c2.1,0.1,4.2,0.2,6.3,0.2
			c0.4,0,0.8-0.1,1.8-0.2c-2.6-2.5-5.5-2.7-8.5-2.8c4.6-4.4,6.5-8.5,5-11.2c-0.6,1.1-1.2,2.2-1.9,3.2c-1.4,1.9-2.3,2.1-4.5,1.1
			s-3.5-0.9-5.2,1C94.9,259.6,94.3,261,93.4,262.4z M308.2,324.4c4.4-4.9,7.7-10.1,9.5-16.1c0.2-0.7,0-1.6-0.3-2.3
			c-1.7-2.8-7.4-5.4-10.9-5.1c0.1,0.1,0.1,0.3,0.2,0.4c4.6,3.6,5.6,8.4,4.4,13.8C310.4,318.1,309.3,321,308.2,324.4z M300.9,420.1
			c-4.7-0.1-9.2-0.1-12.1-4.7c0.8-1.1,1.5-2,2.4-3.2c-3.6,0.7-6.7-0.3-10.2-1.2c1.8,5.4,4.4,9.6,9.6,11.3
			C294.3,423.4,297.9,422.9,300.9,420.1z M299.4,237.6c-1.6,5.2-3.2,10.4-4.8,15.6c2.4,1.8,4.6,3.6,7.2,5.4
			C301.7,251.2,301.6,244.4,299.4,237.6z M376.4,360.4c-1.9,2.7-2.7,5.2-1.4,7.7c1.3,2.4,3,4.6,4.7,6.8c1.3,1.6,3.1,2.6,5.2,3
			c2.4,0.5,4.2-0.6,5.1-3.3c-3.8,1.5-6.2-0.5-8.1-3.3c-1.4-2.1-2.6-4.5-3.8-6.8C377.6,363.3,377.1,362.1,376.4,360.4z M284.8,131.4
			c-1.8,1.2-3.5,2.2-5.1,3.2c-2.1,1.4-4.4,1.6-6.8,1.3c-3.9-0.3-7.7-0.8-11.3-2.7c-0.6,0.9-1.2,1.6-1.7,2.3c2,3.2,3.9,6.2,5.8,9.3
			c0.1-0.1,0.2-0.1,0.4-0.2c-0.6-2.3-1.2-4.6-1.9-7c3.6,0.6,7,0.8,10.4,0.1c0.6-0.1,1.3,0.1,1.9,0.4c1.4,0.8,2.6,0.5,3.8-0.5
			c1-0.9,2.2-1.7,3.1-2.7C284.2,134.1,285,133,284.8,131.4z M287.4,373.4c-0.8-7.1,3.8-9.1,9.5-10.1c-2.7-2.3-5.2-3.3-7.8-3.1
			c-3.9,0.3-6.8,4-5.8,7.7C283.9,370.2,285.3,372,287.4,373.4z M323.7,412.1c-2.9,1.3-5.8,2.1-9,2c-3.4,0-3.9-0.4-4.2-3.1
			c-2.4,0.8-4.9,1.7-7.6,2.7c3.7,3.2,7.8,5.6,13.1,4.6C319.6,417.6,322.4,415.7,323.7,412.1z M268.1,388.7c-0.1,0.1-0.2,0.2-0.2,0.3
			c-0.5,4.4-0.1,8.8,1.8,12.8c0.9,1.8,2.2,3.2,4.1,3.9c1,0.4,2.2,0.9,3.3-0.3c-3.1-3.7-4.8-8-3.8-12.7
			C271.5,391.4,269.8,390,268.1,388.7z M330.6,207.8c-3.2-0.6-6.2-0.5-9.1-0.2c-0.5,0.1-1.1,0.4-1.4,0.8c-1.3,1.8-2.3,3.8-3.2,6
			c3.8,0.1,7.3,0.3,10.9,0.4C328.7,212.5,329.6,210.2,330.6,207.8z M270.5,106.5c-1.3,1.1-2.5,2.2-3.7,3.3c-2.3,2-4.8,3.8-7.9,4.6
			c-2.1,0.5-4,0.2-5.7-1.2c-0.3-0.2-0.6-0.5-0.9-0.7c-1.3,4.1,1.4,6.9,6.9,9.5c-0.7-1.5-1.3-2.8-2-4.3c1.8-0.6,3.2-1,4.7-1.5
			c1.3-0.5,2.4-0.3,3.4,0.5c0.9,0.7,1.7,1.3,2.9,2.3c-0.3-2.2-1.5-3.4-2.6-4.8C267.9,111.9,270.1,109.7,270.5,106.5z M324.5,148.9
			c-2.6-1.1-4.9-1.8-6.9-3c-2.1-1.2-4.1-2.7-5.7-4.5c-1.5-1.7-2.5-3.8-3.7-5.9c-0.5,3,0.1,5.6,1.6,8c2.3,3.7,5.7,6.2,9.6,8
			c0.4,0.2,1.2,0.2,1.6,0C322.2,150.8,323.3,149.9,324.5,148.9z M274.2,331.7c-1.4,1.8-2.6,3.4-4.1,5.2c3.4,2,6.7,3.9,10,5.9
			c1-1.5,1.8-2.9,2.7-4.2C280.2,335.9,277.6,333.5,274.2,331.7z M403.9,371.6c-0.9-0.2-1.7-0.3-2.6-0.5c-4-1-7-3.2-8.8-7
			c-1.3-2.8-1.2-3.1,1.2-5.1c0.2-0.2,0.4-0.4,0.6-0.7c-1.2-0.6-2.3-0.6-3.1,0.1c-1.1,1.1-2.1,2.4-3,3.7c-0.2,0.3-0.1,1.1,0.1,1.6
			c1.1,2.5,2.5,4.8,4.6,6.5C396.2,372.9,399.9,373.5,403.9,371.6z M277.4,109.7c0.2,0.1,0.4,0.1,0.6,0.2c0.1-0.2,0.2-0.4,0.3-0.7
			c0.8-3,1.8-6.1,2.5-9.2c0.2-0.8,0-1.8-0.3-2.6c-1.9-5-4.3-9.8-7.3-14.3c-0.3-0.4-0.6-0.7-1-1C275.9,91,278,100.1,277.4,109.7z
			 M156.6,220.9c5.5,0.7,11,1.3,16.7,2c0.3-5.1-0.2-9.8-4-13.6c0,0.9,0.2,1.8,0.3,2.6c0.1,1,0.2,1.9,0.2,2.9
			c-0.1,2.5-0.5,3.2-2.8,3.9c-1.4,0.5-2.8,0.8-4.2,1.1C160.7,220.2,158.7,220.5,156.6,220.9z M275.1,118.7c-0.1-0.1-0.3-0.2-0.4-0.4
			c-2.4,1.9-4.1,4.8-7.4,5.2c-3,0.4-6.1,0.5-9.4,0.8c0.1,0.6,0,1.4,0.3,1.7c1.6,1.7,3.3,3.3,5,5c0.2,0.2,0.5,0.3,1.2,0.8
			c-0.6-2-1.1-3.5-1.6-5c3.8-2,5.4-1.8,8.1,1.1c1.2,1.3,2.4,2.6,3.9,4.4c-0.7-3.2-2-5.6-3.4-7.8
			C272.7,122.5,273.9,120.6,275.1,118.7z M299.5,160.1c1-3.3,0.6-6.2,0-9c-0.6-2.9-1.7-5.7-2.6-8.7c0.4-0.7,1-1.4,1.5-2.3
			c0.3-0.6,0.8-1.4,0.7-2c-0.7-3.5-2.5-6.4-5.3-8.6c1.5,4.3,4,8.4,0.3,12.8C296.9,147.8,298.6,153.6,299.5,160.1z M293.8,164.5
			c2.4,2.3,3.4,5,3.5,8c0.2,5.1,0.2,10.2,0.3,15.3c0,1.7,0,3.5,0,5.2c0.4-0.4,0.7-0.8,0.8-1.2c2.1-8,1.8-16,1-24.1
			c0-0.4-0.3-1-0.6-1.2C297.4,165.4,296,164.4,293.8,164.5z M381.4,328.1c-0.3-5.1-0.7-9.9,4.3-13c-3-1.8-5.9-0.9-7.6,2.3
			C375.8,321.5,377.1,325.8,381.4,328.1z M344.4,431.7c0.9,1,1.5,1.9,2.3,2.5c1.8,1.4,5.2,0.3,5.6-1.8c0.5-3.3,0.4-6.7-0.8-9.8
			c-0.4-1-0.9-1.9-2.2-2.1c0,1.7,0,3.2,0,4.7C349.3,428.3,348.4,431,344.4,431.7z M159.4,214.3c5.5-1.1,8.2-4,8.5-9
			c0.2-3.8,0.1-7.6,0-11.4c0-1-0.3-2-0.5-3C166.6,199.2,165.7,207.4,159.4,214.3z M289.4,127.7c0.7-0.7,1.2-1,1.4-1.5
			c0.9-2.1,1.8-4.3,2.7-6.5c0.5-1.1,0.2-2-0.4-3c-2.4-4.3-5.5-8.2-8.8-11.9c-0.1-0.1-0.3-0.1-0.8-0.4c0.6,1.1,0.9,1.8,1.3,2.5
			c1.5,2.9,3,5.8,4.5,8.6c1.2,2.2,1.4,4.4,1,6.8C290,124,289.8,125.6,289.4,127.7z M415.7,167.8c-0.8,1.7-1.6,3.3-2,4.2
			c1.4,2.7,2.8,4.8,3.5,7.1c0.7,2.4,0.8,4.9,1.2,7.6C421.4,182.1,420.1,173.2,415.7,167.8z M314.5,393.5c2.5,3.5,11.1,4.2,14.3,0
			c-2.1-0.2-4.2-0.2-6.3-0.5c-2.7-0.4-3.4-1.3-3.1-4.1c0-0.2,0-0.4,0.1-0.6C317.9,390,316.3,391.7,314.5,393.5z M67.4,256.6
			c-0.2,0-0.3-0.1-0.5-0.1c-0.5,0.4-0.9,0.9-1.4,1.3c-0.5,0.5-1.1,0.9-1.7,1.4c-1.7,1.4-2,2.6-1.3,4.7c1,3,3.2,4.9,6.3,6.3
			C68.2,265.4,65.8,261.2,67.4,256.6z M134.3,206.5c-0.5-2.1,0.6-3.3,2.3-4.3c1.3-0.8,2.6-1.8,3.9-2.7c-1.2-0.2-2.2-0.1-3.2,0
			c-2.1,0.1-4.4,0.5-5.9-1.9c1.1,4.2-2.7,4.8-4.4,6.7C129.3,205,131.7,205.7,134.3,206.5z M137.5,244.2c0.9-1.8,1.5-3.7,2.6-5
			s2.9-2.1,4.4-3.1c-1.4-2.7-3.6-3.2-5.9-1.4C135.1,237.3,134.8,240.5,137.5,244.2z M402.7,327.3c-0.9,0.5-1.7,1.1-2.6,1.6
			c-1.3,0.9-2.5,1.8-4.4,1.3c-1.6-0.4-2.6,0.8-2.4,2.4c0.1,0.6,0.3,1.2,0.5,1.9c0.8-0.6,1.4-1,2-1.4c2.2,1,2.2,4.2,5.3,4.3
			C400.5,333.7,401.2,330.5,402.7,327.3z M269.5,152.9c0.3,1.8,0.5,3.6,0.8,5.3c3-0.3,5.8-0.6,8.8-1c-0.3-1.9-1.3-3.2-2.5-4.4
			c-0.2-0.3-0.7-0.4-1.1-0.4C273.6,152.5,271.6,152.7,269.5,152.9z M145.9,227.9c0.5-3.8,2.6-6,6.1-7c-0.8-1.8-1.9-2.6-3.5-2.3
			c-2.2,0.4-3.9,1.6-4.7,3.8C142.9,224.7,143.5,226.4,145.9,227.9z M106.8,215.4c0.2-0.8,0.4-1.2,0.5-1.8c0.1-1,0.3-2-0.6-2.7
			c-1-0.8-2.3-0.9-3.2-0.2c-1.2,0.9-2.4,2-3.1,3.3c-0.6,1.1-0.5,2.6,0.3,3.7c0.9,1.2,2.2,0.9,3.4,0.5c0.1,0,0.2-0.2,0.1,0
			c-0.4-0.8-1-1.5-0.9-2.1c0.3-1.3,0.9-2.5,2.6-2.5C106,214.1,106.3,214.6,106.8,215.4z M179.1,154.9c-2.1-1.3-3.9-2.4-5.8-3.6
			c-0.5,0.2-1,0.5-1.7,0.9c-0.3-0.7-0.6-1.4-0.9-2c-2.1,2.4-2.1,2.4-5.2,1.9c0.5,1.8,2,2.4,3.4,2.7
			C172.3,155.6,175.6,155.1,179.1,154.9z M372.6,433.6c0.1-1.7,0.4-2.8-0.7-3.5c-0.7,0.9-1.2,1.9-2,2.5c-0.8,0.7-1.9,1-2.9,1.5
			c2.3,3.7,7.4,3.8,10.3-3C375.8,431.9,374.4,432.6,372.6,433.6z M181.3,156.5c0.8,2.3,2.2,3.1,5.3,3.2c2.2,0.1,2.2,0.1,3.1-2.3
			c-3.1,0-2.3-2.7-2.9-4.7C185.2,154.7,184.6,157.6,181.3,156.5z M104.3,224.1c0.3-1.2,0.6-2.1,0.8-2.9c1,0,1.7,0,2.4,0
			c-0.1-1.4-0.8-1.9-2.1-2c-2.2-0.1-4.1,2-3.9,4.5c0.1,1.7,1.7,2.7,3.3,2.1c0.7-0.3,1.2-0.8,1.8-1.2c0.1-0.1,0.1-0.4,0.2-0.7
			C106,224,105.4,224.1,104.3,224.1z M131,232c0.8-2.7,2.2-4.3,4.7-4.5c0.1-1.3-0.5-1.8-1.5-1.9c-1.4-0.1-3.6,0.9-4.1,2.1
			C129.6,229.1,129.5,230.5,131,232z"/>
		<path d="M376.8,245.9c-1.1-4-1.5-7.5-1.7-11c-0.6-10.8,1.8-21,6.5-30.7c4-8.4,9.5-15.9,15.3-23.1c2-2.5,4-4.9,5.9-7.5
			c1.2-1.6,2.2-3.4,3.2-5.1c0.4-0.7,0.5-1.5,0.9-2.5c-0.6,0.2-0.8,0.3-1,0.4c-9.3,7-19.8,11.4-30.6,15.3c-4.1,1.4-8.2,2.7-12.2,4.2
			c-6,2.1-8.3,5.4-8.5,11.9c0,1.5,0,3.1,0,4.7c-7.5-5.8-16.5-6-26-5.9c0.9-0.8,1.3-1.3,1.9-1.7c6.7-4.9,14-8.6,21.8-11.3
			c8.5-2.9,17-5.4,25.5-8.3c3.8-1.3,7.5-2.7,11.1-4.4c13.1-5.9,22.5-15.4,28.7-28.3c0.4-0.8,0.8-1.6,1.2-2.6
			c0.9,0.8,0.6,1.7,0.6,2.5c-0.5,7.1-2.5,13.8-5.9,19.9c-2.6,4.6-5.4,9.1-8.2,13.6c-4.7,7.5-9.7,14.8-14.2,22.5
			c-6,10.1-10.2,20.9-12.2,32.5c-0.8,4.3-1.1,8.7-1.6,13.1C377,244.4,377,244.9,376.8,245.9z"/>
		<path d="M335,139.1c-1.6,1.5-3,3-4.6,4.3c-0.4,0.4-1.4,0.3-2.1,0.1c-3.2-0.6-6.3-1.8-9-3.5c-5.9-3.7-8.2-9.3-6.6-16.1
			c1.1-4.3,3.1-8.2,5.7-11.8c0.5-0.8,1.4-1.4,2.2-1.9c6.7-4.9,14.2-7.7,22.2-9.6c7.4-1.7,14.9-2.5,22.4-3.1
			c8.8-0.7,17.7-1.4,26.5-2.3c7-0.7,13.8-2.2,20.2-5.2c8.3-3.8,14.6-10,20.4-16.7c4.2-4.8,7.2-10.2,8.8-16.4
			c0.9-3.8,1.1-7.5,0.4-11.5c0.3,0.4,0.6,0.5,0.6,0.7c2.9,8.8,4,17.6,0.5,26.5c-2.8,6.9-7.8,11.8-14.3,15
			c-11.7,5.8-23.9,9.7-37,10.9c-6.9,0.6-13.8,1-20.7,1.6c-11,0.9-21.8,2.7-32.4,5.6c-5.3,1.4-10.1,4.2-14.1,8
			c-1.2,1.1-2.2,2.4-3.1,3.8c-2.2,3.6-2.6,7.4-0.7,11.2c2.8,5.8,7.4,9.4,13.9,10.1C334.5,138.7,334.6,138.9,335,139.1z"/>
		<path d="M164.9,266c4.5-5.1,10.6-7.2,17.6-8.1c-0.6-1-0.9-1.8-1.4-2.4c-1.6-2-3.3-4-5-6c-4.1-4.8-7-10.4-9.5-16.1
			c-0.2-0.4-0.2-0.7-0.5-1.6c4.5,2.9,8.6,5.6,13.9,6.5c2.6-4.1,6.3-7.4,10.8-10.5c-4.9-0.5-9.3-1-13.2-3.8c2.1-0.1,4.3-0.3,6.7-0.4
			c-1.3-1.4-2.4-2.5-3.4-3.8c-1.5-2-2.8-4.2-4.2-6.3c-0.7-1.1-0.6-2.2,0.3-3.1c1-1.1,1.9-2.2,3-3.2c4.9-4.1,10.5-7.1,16.2-9.9
			c3.7-1.8,7.5-3.4,11.3-5.1c0.7-0.3,1.3-0.6,1.9-1.1c-12.8,2.6-25.5,5.9-38,10.7c-0.1-2.9,0.2-5.5,0.6-8.1c0.2-1.2,1.2-1.5,2.1-1.7
			c4-0.9,7.9-1.9,11.9-2.6c13.9-2.4,28-3.8,42.1-5.1c3.5-0.3,6.9-0.6,10.5-0.5c-0.7,0.2-1.5,0.5-2.2,0.7
			c-11.4,3.3-22.6,7.3-33.1,12.9c-5.4,2.9-10.5,6.2-14.8,10.6c-0.7,0.8-1.4,1.6-2.1,2.4c-2,1.9-2,4.1-1.1,6.5c1.2,3.3,3.4,5.9,6.2,8
			c1.2,0.9,2.4,1.6,3.8,2.6c-0.4,0.4-0.8,0.7-1.2,1c-2.9,1.9-5.4,4.2-7.7,6.7c-4.2,4.7-5.3,10.1-3.6,16.1c0.8,2.9,1.8,5.7,2.7,8.8
			C178.4,260.9,171.5,262.7,164.9,266z"/>
		<path d="M144.7,307.5c-3.6,1.6-7.2,2.3-11.3,0.8c1.7-1.2,3.3-2.2,4.7-3.4c1.4-1.3,2.5-3,3.9-4.6c2.3,0.8,4,2.3,4.9,4.6
			c1.1,2.9,1.8,5.9,1.2,9.1c-0.1,0.5-0.1,1,0.1,1.5c4-5.8,6.1-12,4.6-19.4c-2.7-1.2-5.7-0.3-9.1-0.7c2.9-1.7,5.6-2.3,8.6-2.3
			c0.5-1.6-0.2-3-0.5-4.6c-3.3-1.7-7-1-10.9-1.3c2.9-2.5,5.9-2.8,9.4-2c-0.1-6.3-4.1-10-8.1-14.1c1,0.1,2,0.1,2.9,0.3
			c3.9,1.1,7,3.5,9.2,6.9c2.6,4,4,8.3,4.4,13c0.4,5.5,0.2,11-1.4,16.4c-1.3,4.3-3.3,8.3-6.6,11.5c-1,0.9-2.1,1.8-3.3,2.4
			c-8.5,4.1-16.7,8.8-24.6,14c-3.1,2-5.4,4.5-6.2,8.1c-0.8,3.7-1.8,7.4-2.1,11.2c-0.3,3.5,0.7,6.8,3.4,9.3c0.7,0.7,1.4,1.4,2.1,2
			c3.8,3.5,5.4,6.4,6.2,11.5c1.2-3,0.8-7.5-1.1-11c-0.9-1.6-2-3.2-2.9-4.8c-2-3.1-2.8-6.5-2.6-10.2c0.1-2.3,0.7-3.8,2.4-5.5
			c0,2.5-0.1,4.8,0,7.1c0.1,2.6,1.1,4.9,2.5,7.1c1.1,1.7,2.2,3.4,3.3,5.2c3.5,5.9,2.4,11.7-0.7,17.3c-1.5,2.8-4.1,3.8-7.3,3.4
			c0.4-0.9,0.8-1.8,1.2-2.7c2.6-6.2,1.5-10.9-3.5-15.4c-3.4-3-6.4-6.2-7.8-10.7c-2.5-7.8-1.3-14.7,4.3-20.8
			c3.4-3.7,7.4-6.6,11.8-8.9c4.6-2.4,9.2-4.9,13.7-7.4c1.3-0.7,2.6-1.7,3.7-2.7C146.1,314.9,146.6,311.2,144.7,307.5z"/>
		<path d="M104.4,247.1c-2.5-4.2-5.5-7.2-9.8-8.8c-9.8,9.9-15.3,31.9-6.8,48.4c-0.1-0.8-0.3-1.6-0.3-2.4c0.2-3.7,0.4-7.4,0.8-11.1
			c0.2-1.6,1-3,2.6-4.6c-1.8,10-1,19.4,1.8,29c-0.9-0.5-1.5-0.8-2.1-1.1c-6.5-3.7-10.9-9.2-14.3-15.8c-1.7-3.5-2.8-7.1-3.6-10.8
			c-1-4.6-0.8-9.4-0.4-14.1c0.3-3.1,0.7-6.3,1.3-9.4c0.6-3.3,1.2-6.6,3.4-9.3c0.4-0.5,1-1.1,1.6-1.4c7.2-2.8,14.2-2.4,20.5,2.4
			C102.4,240.6,103.5,242.7,104.4,247.1z"/>
		<path d="M352.9,128c0.1,18.3-4.9,35-14.7,50.3c-0.2-0.1-0.3-0.1-0.5-0.2c1.1-3.4,2.3-6.7,3.4-10.1c2-6.1,3.9-12.2,4.9-18.6
			c0.2-1.6,0.2-3.2,0.3-4.8c-0.2-0.1-0.3-0.2-0.5-0.3c-0.7,0.5-1.4,0.9-2.1,1.4c-11.3,9-20.3,19.9-27.2,32.6
			c-0.8,1.5-1.8,2.2-3.4,2.7c-2.6,0.8-5.2,1.9-7.7,2.9c-0.6,0.2-1.1,0.5-1.8,0.8c-0.2-2.9-0.5-5.5-0.6-8.1c0-0.9,0.5-1.8,1.1-2.6
			c4.8-6.2,10.3-11.7,16.2-16.8c6-5.2,12.1-10.1,18.1-15.2C343.5,137.7,348.9,133.6,352.9,128z"/>
		<path d="M239.3,92.7c-0.6-0.5-0.9-0.7-1.2-1c-1.8-1.3-3.4-1.5-5.1-0.1c-1.3,1-2.6,2.3-3.5,3.7c-2.9,4.2-5,8.8-5.5,13.9
			c-0.2,2.4,0.2,4.9,0.7,7.2c1.8,9.4,6.5,17.1,13.8,23.2c0.4,0.4,0.9,0.6,1.6,0.8c-0.3-0.7-0.7-1.4-1-2c-2.7-4.7-4.9-9.5-5.9-14.9
			c-0.3-1.5-0.3-3-0.1-4.7c3.4,10.2,8.8,19.1,16.5,27c-1.7,0.3-3,0.2-4.3-0.1c-3.7-0.9-6.9-2.8-9.7-5.3c-5.3-4.6-9.3-10.2-12.7-16.3
			c-3.5-6.2-6.9-12.5-8.6-19.6c-2.2-9.4-1.4-18.4,3.3-26.9c0.5-0.9,1-1.7,1.5-2.5c3.4-4.5,9.5-6.6,15.3-1.6
			c-0.7-0.1-1.2-0.2-1.7-0.3c-2.2-0.4-4.1,0.3-5.4,2c-0.9,1.2-1.6,2.4-2.2,3.8c-2.1,5.5-2.6,11.3-2.9,17.8c0.9-1,1.4-1.6,1.8-2.2
			c1.7-2.2,3.6-4.2,6.1-5.6c2-1.1,4.1-1.7,6.3-0.7C237.9,89.2,239.3,90.2,239.3,92.7z"/>
		<path d="M49.8,290.1c0-0.9,0-1.8-0.1-2.6c-1.2-7.1,0-14.1,2.1-20.8c1.3-4,3.5-7.5,6.6-10.4c3.9-3.7,4.2-8.2,3.5-13
			c-0.1-0.6-0.2-1.2-0.3-1.7c0.2-0.2,0.5-0.4,0.7-0.5c0.1,0.4,0.2,0.8,0.4,1.1c2,2.9,2.7,6.2,2.6,9.7c0,2.3-1,4.2-2.8,5.7
			c-0.2,0.2-0.5,0.5-0.7,0.6c-4.9,3.1-6.8,8.1-8.1,13.4c-2,8.2-0.9,16.3,1.2,24.3c0.4,1.6,0.9,3.2,1.5,5.4c-1.4-1.1-2.4-1.7-3.4-2.5
			c-3.3-2.6-6.5-5.4-9-8.8c-1.6-2.2-2.8-4.8-3.9-7.3c-3.2-7.4-4.5-15-3.3-23c0.5-3.5,1-7,1.7-10.5c0.7-3.6,2.2-6.7,5.9-8.1
			c2-0.8,4-1.6,6.1-2.4c0.6-0.2,1.3-0.2,1.9-0.1c2.6,0.4,3.1,1.6,1.7,3.8c-1.5,2.5-3,5-4.5,7.6c-2.1,3.8-3.4,7.9-4.2,12.1
			c-1.3,6.8-1.9,13.7,0.3,20.5c0.9,2.7,2.2,5.2,3.3,7.8C49.4,290.2,49.6,290.1,49.8,290.1z"/>
		<path d="M329.9,116c0.7-0.4,1.2-0.8,1.7-1.1c11.1-5.8,22.8-9,35.4-8.3c7,0.4,13.9,1.5,20.8,2.6c8.3,1.2,16.5,2.6,24.9,2.8
			c11.9,0.2,23.2-2.1,34.3-6.2c1.4-0.5,2.9-1.1,4.7-1.8c-0.5,0.8-0.7,1.3-1,1.7c-2.4,3-5.4,5.1-8.9,6.7c-6,2.8-12.3,4.1-18.8,4.8
			c-10.5,1.1-20.9,1-31.4-0.2c-4.3-0.5-8.6-1.7-12.9-2.3c-16.1-2.4-32.2-2.6-48.2,1.4C330.5,116,330.3,116,329.9,116z"/>
		<path d="M200.9,274.2c2.6,3.4,5,3.9,13.7,3c-0.6,1.7-2.1,2.5-3.4,3.4c-1.2,0.9-2.5,1.7-4,2.7c5.3,4.3,10.4,2.9,15.9,0.3
			c-1,3.9-3.7,6-6.8,8.1c5.4,3.1,10.4,1.1,15.3-0.3c-0.2,1.6-0.2,1.6-4,5.2c2.6,2.1,12.8,4.4,25.5,5.8c-0.4,0.3-0.6,0.5-0.9,0.6
			c-11.6,2.3-22.9,2-34.1-2c-5-1.8-9.2-4.6-12.2-8.9c-3.1-4.3-6-8.7-9-13c-1.1-1.5-2.1-3.1-3.1-4.7c-2.1-3.4-4.9-5.8-8.5-7.4
			c-0.3-0.1-0.6-0.3-0.9-0.5c-0.1,0-0.1-0.1-0.1-0.2c4.8-1,9.5-1.9,14.3-2.8c0.1,0.1,0.1,0.1,0.2,0.2c-1.8,1.4-3.7,2.8-5.7,4.3
			c4.1,2.8,8.4,2,12.9,1C205.1,271.8,202.7,272.7,200.9,274.2z"/>
		<path d="M364.1,390.7c-3.6,4-4,6.8-1.7,9c1.5-2,2.9-4.3,6.2-4.3c-0.8,1.1-1.5,2-2.1,2.9c-1.4,2-2.4,4.1-2.3,6.6
			c0.1,2.2,0.9,3.1,3,3.9c3,1.1,5.2,3.1,7.5,6c-6.4-1.5-11.7-0.5-16.9,3.5c0.4-1.4,0.6-2.3,0.9-3.6c-2.7,1.3-5.2,0.9-7.8,0.3
			c-1.7-0.3-3.5,0-5.2,0.1c1.9-3.2,5.5-3.9,10.8-2c3.1-1.8,4.1-4.2,3.1-7.8c-0.6-1.9-1.4-3.8-2.5-5.5c-2.7-4.7-6.4-8.8-10.1-12.8
			c-10.8-11.3-22.9-21.2-35.1-30.9c-1-0.8-1.9-1.5-2.9-2.3c0.5-2.5,1-4.9,1.5-7.7c0.8,0.6,1.6,1,2.2,1.5c5.8,5.1,11.8,10,17.2,15.5
			c9.4,9.5,18.5,19.5,27.7,29.2c0.4,0.4,0.8,0.8,1.3,1.4C360.4,392.3,361.8,390.9,364.1,390.7z"/>
		<path d="M215.4,322.8c5.1-2.1,8.6-5.7,11.3-10.7c0.1,7.5-6.2,15.5-13.1,17c-2,0.4-2.6,0.1-2.6-2c0.1-1.8-0.8-3-2-4.1
			c-5.2-5-9.8-10.4-13.6-16.5c-3-4.9-5.3-10.1-6.2-15.8c-0.6-3.4-0.6-6.8,0.2-10.2c0.2-0.8,0.5-1.5,1.1-2.3c0.1,0.5,0.3,1,0.4,1.5
			c2.7,9.8,7.8,18.2,15.1,25.2c3.9,3.7,8.7,5,14,2.6c0.4-0.2,0.9-0.3,1.6-0.5C221.9,313.4,218.6,318,215.4,322.8z"/>
		<path d="M103.6,273.4c1.4,8.4,1.1,16.7-2.6,24.5c-0.8,1.7-1.9,3.2-3.5,4.2c-3.3,2-6.6,3.9-9.9,5.8c-2,1.2-4.2,2.2-6.2,3.4
			c-5.2,3.1-8.1,7.8-9.1,13.8c-1.1,6.9-1.1,13.7,1.5,20.2c2.5,6.2,1.1,11.9-2.2,17.2c-1.7,2.7-4.4,4.5-7.5,5.6
			c-0.4,0.2-0.9,0.3-1.5,0.5c1.9,0.5,2.1,0.6,4.5,0.1c1.4-0.3,2.8-0.7,4.3-1c-2.8,4.8-8.8,6.5-13.5,4.6c-4.9-2-7.6-5.9-9-10.9
			c-0.2-0.8-0.3-1.7-0.6-3.2c1,0.7,1.6,1.2,2.1,1.6c2.4,1.9,4.9,3.5,7.8,4.5c5.2,1.8,9.1,0.1,11.4-4.9c1.5-3.3,1.7-6.8,0.8-10.2
			c-0.7-2.6-1.6-5.1-2.5-7.6c-1.3-3.7-2.4-7.4-2.2-11.4c0.4-8.6,4-15.5,11.5-20c2.6-1.5,5.4-2.7,8-4.1c3-1.7,6-3.5,9-5.4
			c1.7-1.1,2.9-2.6,3.8-4.3c3.6-6.1,5.2-12.8,5.5-19.8C103.6,275.5,103.6,274.5,103.6,273.4z"/>
		<path d="M236.9,220.3c-3.1,12-2.5,23.7,2.1,35c-2.9,3.3-6.9,5.4-10.4,5.6c-0.4-0.8-0.9-1.6-1.2-2.5c-4.8-10.7-5.8-21.9-3.6-33.4
			c0.4-2,1.3-3.1,3.3-3.6C230.2,220.5,233.3,219.6,236.9,220.3z"/>
		<path d="M264,301.8c-4.1-2.5-8-4.9-12.3-7.5c5.9-1.8,10.5-4.6,13.5-9.7c1,4-0.4,7.6-1.9,11.4c0.7-0.3,1.2-0.5,1.6-0.8
			c3.4-2.4,6.5-5.1,9.3-8.3c4.6-5.3,6.1-11.4,4.9-18.2c-0.8-4.6-1.9-9.1-2.9-13.6c-1.3-6-0.7-11.6,3.2-16.6c0.3-0.4,0.7-0.9,1.1-1.3
			c0.2-0.2,0.4-0.2,0.9-0.6c0,1,0,1.7-0.1,2.5c-1.1,6.2-0.5,12.3,1.3,18.3c1,3.2,1.7,6.4,2.3,9.7c1.7,9.3-0.6,17.4-7.3,24.1
			C273.4,295.3,269.1,298.8,264,301.8z"/>
		<path d="M252.2,251.4c-6,11.9-15,19.8-28.8,22.1c-0.5-1.2-1-2.4-1.5-3.6c-3.6-8.5-5.8-17.4-6.4-26.6c-0.5-8.4,0.6-16.7,3.1-24.8
			c0.3-0.9,0.6-1.6,1.6-1.9c8.9-2.6,17.7-3.2,26.6,0.1c1,0.4,2,0.9,2.9,1.7c-3.2-0.3-6.3-0.8-9.5-1c-4.8-0.4-9.6,0.2-14.3,1.2
			c-2.6,0.6-4,1.9-4.9,4.4c-2.1,6.4-2.8,12.9-2.3,19.5c0.6,7.2,3,13.9,6.9,20.1c1.2,1.8,2.5,2.4,4.4,1.8c2.6-0.9,5.3-1.7,7.7-2.9
			c4.7-2.4,8.8-5.8,12.7-9.4c0.4-0.4,0.8-0.8,1.2-1.1C251.9,251.1,252,251.3,252.2,251.4z"/>
		<path d="M31.1,151.5c0.1-0.5,0.1-0.8,0.2-1c5.6-9.3,12.5-17.2,22.1-22.6c9.2-5.2,19.3-7.2,29.8-6.9c4.2,0.1,8.4,0.6,12.6,1.1
			c0.8,0.1,1.8,0.4,2.4,1c4.4,3.8,7.8,8.4,11,13.3c-0.4-0.2-0.8-0.4-1.1-0.6c-18-10.8-36.4-11.3-55-1.6c-6.8,3.5-12.7,8.2-18.1,13.5
			C33.8,148.8,32.6,150,31.1,151.5z"/>
		<path d="M377.1,102.5c0.7-0.2,1.2-0.4,1.7-0.5c8.7-0.8,17.5-1.6,26.2-2.5c12.4-1.3,24.7-2.9,36.6-6.7c6.2-2,12.1-4.6,17.4-8.9
			c-0.5,0.8-0.9,1.6-1.4,2.4c-1.9,2.7-4.5,4.7-7.2,6.5c-7.1,4.6-14.9,7.7-22.9,10.1c-5.8,1.8-11.7,3.3-17.6,4.7
			c-1.3,0.3-2.8,0.3-4.1,0.1c-9.4-1.6-18.7-3.2-28.1-4.9C377.5,102.9,377.4,102.8,377.1,102.5z"/>
		<path d="M276.7,372.8c-2-0.5-2.5-2.1-3.9-3.2c-1.8,3.6,0.1,6.8,0.9,10.6c-1.4-1.1-2.5-1.8-3.6-2.7c-0.2,3.7,2,6.3,3.3,9.5
			c-0.8-0.3-1.6-0.5-2.3-1c-0.8-0.5-1.5-1.2-2.2-1.9c-2.2-2.2-2.8-4.5-1.7-7.7c3.2-9.2,7.1-18,13.6-25.4c2.1-2.3,3.8-4.8,5.3-7.5
			c4-6.9,8.1-13.7,11-21.2c0.8-2,1.5-4.1,2-6.3c1.2-5.1,1.6-10.1-2.7-14.9c3,1,5.4,2,7.5,3.5c1.9,1.4,2.6,3.1,2,5.5
			c-1.7,6.5-4.8,12.4-8.4,18.1c-0.6,1-1.3,2-2,3.2c2.5,0.4,5.1,0,7,2.3c-3.2,0.7-6.7,0-9.3,3c1.8,0.5,3.3,0.7,4.6,1.3
			c1.3,0.6,2.4,1.5,3.5,2.8c-0.5,0-1,0.1-1.5,0.1c-2.6-0.2-5.2,0.1-7.7,1c-2.1,0.8-3.8,2.1-4.6,4.6c4,0.1,7.8,0.2,10.9,3.4
			c-3,0-5.5-0.2-8.1,0c-6,0.7-10,4.1-12.1,9.6C276.7,363.7,276.1,368,276.7,372.8z"/>
		<path d="M67.6,245.8c-0.5-1.2-1-2.3-1.5-3.5c-2.3-6.1-7-8.2-12.9-7.5c-3.5,0.4-6.9,1.2-10,2.8c-1.9,1-2.8,0.4-3.1-1.7
			c-0.3-2.2,0.5-4.1,1.8-5.7c1.9-2.5,4.4-4.4,7.3-5.5c5.7-2.2,11.7-3.4,17.9-3c3.4,0.2,6.8,0.7,10.1,1.3c4.8,0.8,9.5,0.9,14.3-0.1
			c2.7-0.6,5.3-1.6,7-4c0.2-0.2,0.5-0.4,0.9-0.7c0.1,3.1-1.8,4.6-3.9,6.4c3,1.3,5.2,3.2,6.4,6.5c-0.8-0.4-1.3-0.6-1.7-0.9
			c-4.7-3.1-10.1-3.7-15.6-3.9c-3.5-0.1-7-0.5-10.4-0.7c-0.7,0-1.4-0.1-2.6-0.2c2.5,2.2,5.5,3.7,5.6,7.6c-3.9-2.4-7.4-4.8-11.7-5.7
			c-4.4-1-8.4,0.5-12.6,1.2c0,0.2,0,0.3,0,0.5c0.6,0.1,1.2,0.2,1.8,0.4c4,0.8,7.3,2.5,9.7,6c1.4,2.1,3.3,3.9,3.5,6.5
			c0.1,1.2,0,2.5,0,3.7C67.9,245.8,67.7,245.8,67.6,245.8z"/>
		<path d="M308.1,227.8c5.3-2.1,10.2-4.5,16.1-4c-0.1,8.2,1.8,15.7,6.4,22.6c-3.7,1.8-7.5,2.8-11.4,3.7c-0.2,0.1-0.5,0.1-0.7,0.1
			c-3.9,0.7-4.2,0.5-6.1-3c-2.4-4.3-3.2-9-3.8-13.8C308.4,231.6,308.3,229.8,308.1,227.8z"/>
		<path d="M138.4,128.5c-13.4-10-28.7-14.8-45.1-16.5c-0.1,0.2-0.2,0.3-0.2,0.5c0.2,0.2,0.4,0.4,0.7,0.5
			c9.4,4.7,16.9,11.7,23.7,19.6c3.1,3.7,6.3,7.3,9.4,10.9c2.3,2.7,5.3,3.9,8.8,3.9c3,0,6-0.2,8.9-0.3c-3.5,4.7-11.9,6.1-16.6,2.6
			c-0.6-0.5-1.1-1.2-1.5-1.9c-8.8-11.8-18.9-22.3-31.2-30.6c-4.5-3-9.2-5.5-14.4-7c-0.3-0.1-0.6-0.3-0.8-0.8c2.6,0,5.2-0.1,7.8,0
			c9.7,0.4,19.3,1.4,28.7,3.9c4.2,1.1,8.4,2.6,12.5,4c1.4,0.4,2.4,1.3,3.2,2.5C134.2,122.7,136.3,125.6,138.4,128.5z"/>
		<path d="M214.3,50.4c4.4,5.4,7.7,11.4,10,18.1c-0.5,0.3-1,0.6-1.5,0.9c-0.4,0.2-0.9,0.4-1.6,0.6c-0.3-0.7-0.7-1.3-1-1.9
			c-2.2-4.4-4.2-8.8-6.5-13.1c-1.7-3.2-3.9-6.2-7.3-8c9.3-5.8,29.6,0.1,37.7,11c-2.9-1.5-5.4-3-8-4.3c-2.7-1.3-5.5-1.7-9-2.1
			c0.8,0.8,1.1,1.2,1.6,1.6c5.3,4.5,10.1,9.5,13.7,15.4c3.7,6.1,5.8,12.7,5.1,19.9c-0.1,1.4-0.4,2.7-0.9,4.1
			c-0.1-0.6-0.3-1.2-0.4-1.7c-2.9-16.1-10.3-29.3-24.8-37.8c-2.1-1.3-4.5-2.2-6.8-3.3C214.5,50,214.4,50.2,214.3,50.4z"/>
		<path d="M174.2,267.2c-5.5,3.6-7.4,7.8-6.5,14.4c0.5,3.9,1.9,7.5,3.5,11.1c0.8,1.7,1.2,3.5,1.4,5.4c0.8,5.2,1,10.3,0.7,15.6
			c-0.2,4.2-1.8,7.8-5,10.7c-5.4,4.8-11.7,7.5-18.7,8.7c-3.1,0.5-6.3,0.6-9.5,0.8c-0.5,0-1.1-0.1-1.6-0.5c0.7-0.2,1.5-0.4,2.2-0.6
			c9.6-2.5,17.6-7.4,24.1-14.8c2.4-2.7,3.3-5.9,4-9.3c1.2-6.2,0.6-12.3-2.1-18.1c-1.2-2.5-2.3-5-3.3-7.6c-1.5-4-0.9-7.8,1.6-11.3
			C167.3,268.4,170.4,266.9,174.2,267.2z"/>
		<path d="M383,230.8c0.5-2.6,0.9-4.6,1.4-6.9c0.8-0.3,1.6-0.5,2.5-0.8c11-3.5,21.8-7.4,31.9-13.1c5.4-3,10.5-6.5,14.8-11
			c2.8-2.9,5.1-6.1,6.5-9.9c1.7-4.5,1.9-9,0.4-13.6c-0.2-0.6-0.4-1.2-0.3-1.9c0.3,0.5,0.7,0.9,1,1.5c3.6,7.1,3.2,14.1-0.6,21
			c-2.9,5.2-7.1,9.3-11.8,12.9c-8.2,6.3-17.3,10.9-26.8,14.8C395.9,226.1,389.8,228.3,383,230.8z"/>
		<path d="M392.3,205.2c1.1-1.7,2.1-3.4,3.4-5c0.4-0.6,1.3-0.9,2-1.1c4.5-1.6,9.1-3,13.5-4.8c3.6-1.4,6.9-3.6,9.8-6.3
			c6.1-5.7,7.7-12.6,5-20.4c-1-2.9-2.4-5.7-4.2-8.2c-1.6-2.2-1.2-3.9-0.1-6.2c5.6,6.1,10.5,12.4,11.2,21c0.3,3.9-0.8,7.6-2.9,10.9
			c-2.6,4.1-6.1,7.1-10.1,9.7c-6.1,4-12.8,6.7-19.7,8.9c-2.5,0.8-5,1.4-7.4,2.1C392.6,205.6,392.4,205.4,392.3,205.2z"/>
		<path d="M363.1,240.9c-2.2-2.6-3.3-5.4-4.1-8.3c-1.4-4.8-1.8-9.7-1-14.7c0.3-1.9-0.2-3-1.8-4c-10.8-7.5-22.7-10.2-35.7-7.8
			c-1.3,0.2-2.4,0.8-3,1.8c-1.2,1.8-2.3,3.7-3.1,5.7c-0.6,1.4-1.2,2.4-2.9,2.2c-0.5-0.1-1.1,0-2,0.1c0.6-1.4,0.9-2.5,1.5-3.5
			c2-3.2,4-6.3,6.1-9.4c0.4-0.6,1.4-1.1,2.2-1.3c9.2-2.7,18.1-2,26.9,1.8c5.7,2.5,10.6,5.9,15.1,10.1c1.1,1.1,1.5,2.1,1.4,3.8
			c-0.8,7.5-0.7,15.1,0.7,22.6C363.2,240.2,363.1,240.4,363.1,240.9z"/>
		<path d="M81.5,195.4c-5,3-10.4,4.7-16.2,3.3c-3.3-0.8-6.1-2.6-8.3-5.3c-3.3-4.1-5.2-8.8-6.1-13.9c-2.4-13.4,2.5-24,12.9-32.3
			c0.3-0.2,0.6-0.4,1.1-0.5c-1.9,3-3.5,6.2-4.6,9.5c-2.8,8.9-3.9,17.9-1.8,27.1c0.5,2.2,1.4,4.4,2.4,6.3c2.8,5,7.2,7.3,12.9,7.1
			c2.1-0.1,4.2-0.7,6.2-1C80.6,195.6,81.1,195.5,81.5,195.4z"/>
		<path d="M139.2,295.1c-2.6,3.3-5.6,5.4-9.1,6.1c0.8-0.9,1.4-1.5,2-2.1c0.6-0.7,1.2-1.3,1.8-2c-1.4-1.8-3.1-1.9-4.9-1.6
			c-3.8,0.7-6.9,2.5-8.8,6c-0.8,1.5-1.7,3-2.3,4.6c-1.6,4.1-4.5,6.6-8.7,7.9c-4.5,1.4-9,2.9-13.4,4.5c-2.3,0.8-4.5,1.8-6.7,2.8
			c-3.1,1.4-5.4,3.7-6.5,6.9c-1,2.9-1.9,5.9-2.8,8.8c-0.3,0.9-0.4,1.9-0.9,2.8c-0.1-0.6-0.2-1.1-0.2-1.7c0.1-3.5,0.5-7,1.6-10.3
			s3.1-6,6.2-7.5c3.2-1.6,6.5-3,9.8-4.3c3.9-1.6,7.9-2.9,11.8-4.5c2.8-1.1,5-3,6.5-5.6c0.8-1.3,1.4-2.7,1.3-4.4
			c-3,1.5-5.8,3.4-8.9,4.3s-6.5,0.9-9.8,1.3c0-0.2-0.1-0.4-0.1-0.6c0.5-0.2,0.9-0.4,1.4-0.6c7.7-2.7,14.8-6.2,20.9-11.7
			c4.2-3.7,9.2-4.3,14.4-3.7C136.3,290.9,138.1,292.5,139.2,295.1z"/>
		<path d="M328.5,218.5c-2.6,0.3-5,0.4-7.4,0.8c-2.4,0.4-4.8,0.9-7.2,1.5c-0.9,0.2-1.9,0.6-2.7,1c-2.8,1.2-4.6,2.9-4.9,6.3
			c-0.7,8,0,15.6,4,22.7c3.2,5.8,2.5,4.7,7.7,3.6c8.4-1.7,16.5-4.4,23.8-9c0.1-0.1,0.3-0.1,0.9-0.2c-0.7,0.9-1.1,1.6-1.6,2.3
			c-3.2,3.8-7.3,6.5-11.7,8.5c-4.7,2.2-9.6,3.4-14.6,4.4c-1.9,0.4-3.1-0.1-4.3-1.7c-3.6-5.2-5.9-11-7.1-17.2
			c-1.1-5.6-1.2-11.3-0.5-17c0.1-1,0.4-1.8,1.4-2.4c7.3-4.5,15.2-5.9,23.6-4C328,218,328.1,218.2,328.5,218.5z"/>
		<path d="M131.1,112.8c8,0.9,15.4,2.4,21.9,6.6c0.7,0.5,1.5,1,2.3,1.4c1,0.5,2,1,3.1,1.5c0.1,0.1,0.2,0.2,0.3,0.4
			c0.6,1.5,1.1,3,1.7,4.6c-1.3,0.6-2.5,0.1-3.4-0.6c-1.6-1-3-2.2-4.5-3.3c-1.8-1.3-3.5-2.6-5.4-3.8c-0.7-0.5-1.6-0.7-2.6-0.6
			c0.7,0.8,1.4,1.6,2.1,2.5c3.7,4.1,6.7,8.6,8.5,13.8c1.6,4.7,1.9,9.4,0.4,14.1c-0.5,1.8-1.2,3.4-3.3,3.8c-1.7,0.3-3.4-0.8-4.8-3
			c2.9-0.3,3.9-1.5,4.2-4.5c0.2-2.7-0.4-5.3-1.5-7.8c-1.9-4.5-4.5-8.5-7.5-12.2s-6.3-7.2-9.5-10.8
			C132.4,114.3,131.9,113.7,131.1,112.8z"/>
		<path d="M422.8,54.1c-0.4,0.8-0.8,1.5-1.3,2.3c-7,11.4-16,21.1-26,29.9c-1.7,1.5-3.5,2.9-5.2,4.4c-1,0.8-2,1.3-3.3,1.5
			c-5.9,0.8-11.7,1.7-17.6,2.5c-0.6,0.1-1.1,0-2.2,0c1.1-0.5,1.7-0.8,2.3-1.1c8.8-3.8,16.8-9,24.4-14.7c9.5-7.1,18.2-15,26.6-23.3
			c0.6-0.6,1.1-1.4,1.6-2.2C422.4,53.7,422.6,53.9,422.8,54.1z"/>
		<path d="M276.9,225.6c-3.6-1.7-5.7-4.2-7.2-7.4c-1.4-3.1-1.3-6.5-1.2-10c-9.4-4-19-4.4-29.2-1.1c1.8,1.9,3.3,3.5,5,5.3
			c-3-0.2-5.8-0.5-8.6-0.4c-2.7,0-5.5,0.4-8.4,0.7c0.6-3.3,1.8-6.3,4.4-8.7c0.6-0.6,1.6-0.9,2.4-1.1c7.5-2.1,15.2-2.5,22.9-1.4
			c4.3,0.6,8.6,1.8,12.8,2.7c0.8,0.2,1.6,0.6,2.4,0.8C271.3,211.5,271.6,212.9,276.9,225.6z"/>
		<path d="M191.9,220.3c-0.7-0.8-1.6-1.8-2.3-2.9c-2.3-3.9,0.5-8.8,5-8.9c6.6-0.1,13.1-1.6,19.5-2.7c4.3-0.7,8.5-1.2,13.1-0.2
			c-0.9,2-1.6,3.8-2.4,5.6c-10.7-0.3-20,4.1-29.5,7.9c-0.9,0.4-1.8,0.8-2.7,1.1C192.6,220.3,192.4,220.2,191.9,220.3z"/>
		<path d="M344.2,184.5c-2.6,1.3-4.6,2.4-6.7,3.2c-1.4,0.6-2.9,1-4.4,1.1c-5,0.3-10.1,0.6-14.9,2.1c-1.4,0.4-2.8,0.9-4.1,1.6
			c-4.3,2-7.4,5.3-8.9,9.8c-0.5,1.4-1,2.8-1.6,4.4c-1.3-1.8-2.4-3.4-3.6-5.2c0.1-0.3,0.4-0.9,0.6-1.5c0.9-2.8,2-5.5,2.7-8.3
			c0.3-1.3,0.9-2.1,2-2.8c6.9-4.2,14.4-6,22.4-5.7C332.9,183.4,338.3,184,344.2,184.5z"/>
		<path d="M392.6,72.3c-0.6,0.7-1.2,1.4-1.9,2.1c-8.4,8.4-18.3,14.5-29.1,19.4c-4.3,1.9-8.8,3.2-13.6,3.6c-6,0.5-11.8,2-17.6,3.7
			c-0.8,0.2-1.6,0.4-2.5,0.4c2.1-2.1,4.6-3.6,7.2-5c5.3-2.9,11-4.5,16.7-6c14.1-3.6,27.1-9.6,39.1-17.7c0.4-0.3,0.9-0.6,1.4-0.8
			C392.4,72.1,392.5,72.2,392.6,72.3z"/>
		<path d="M213.1,156.6c-1.9,5.7-5.8,9.8-10.6,13.2c0.2,0.5,0.3,1,0.6,1.4c0.8,1.6,1.1,1.8,2.9,1.4c1.6-0.4,3.1-0.9,4.6-1.6
			c3.6-1.7,6.7-4.3,9.6-7c0.9-0.9,1.8-1.8,2.9-2.5c-1.2,3.5-3.6,6.2-6.5,8.5s-5.8,4.3-8.8,6.5c0.5,3,0.9,2.8,3.4,3
			c3.6,0.3,7.1-0.7,10.5-1.9c1.2-0.4,2.4-0.9,3.7-1.4c-0.3,2.5-3.3,5.9-5.5,6c-5.7,0.3-11.5,0.4-17.3,0.7c-0.9-2.1-0.2-3.9,0.2-5.8
			c-2.3-0.9-2.7-3.1-2.9-5.3c-0.2-0.1-0.4-0.2-0.5-0.1c-3,1.4-3.4,1.2-4.2-2.9c-1.6-0.3-3.4-0.4-3.6-2.7c0-0.3-0.6-0.5-0.9-0.7
			c-0.6-0.4-1.2-0.8-1.7-1.1c2.2-2.1,4.2-4.1,6.4-6.3c0.3,1.2,0.1,2.5-0.4,3.8c-0.9,2.4,1.3,6.1,3.7,6.2c0.7,0,1.4-0.4,2-0.7
			c4.3-2.1,7.7-5.3,10.9-8.8C212.1,157.7,212.6,157.1,213.1,156.6z"/>
		<path d="M265.1,262.8c-0.7,4.1-2.2,7.9-4.1,11.6c-3.6,7.2-8.7,13.3-14.7,18.7c-0.9,0.8-1.6,0.9-2.6,0.5c-2.4-0.8-4.5-2-6.4-3.5
			c-3.7-3.1-7.1-8.1-8.9-13.2c1-0.4,2-0.8,3.2-1.2c0.4,0.8,0.8,1.6,1.1,2.3c1,2.2,2.4,4.3,4.3,5.8c2.7,2.1,5.2,2.2,8,0.3
			c4.5-3.1,8.2-7.2,11.7-11.3C259.7,269.5,262.3,266.1,265.1,262.8z"/>
		<path d="M353.5,156.6c0.5-1.9,1-3.5,1.4-5.1c9.6,0.3,41.4,3.5,46.4,7.5c-1.9,1.3-3.7,2.7-5.6,3.9c-0.5,0.3-1.4,0.1-2.1,0
			c-7.2-1.4-14.3-3.2-21.5-4.3c-5.8-0.9-11.6-1.3-17.4-1.8C354.4,156.7,354.1,156.7,353.5,156.6z"/>
		<path d="M368.3,338.1c-5.8-2.7-6.8-7.6-4.5-12.3c1.2-2.4,2.6-4.7,4.1-6.9c2.8-3.9,6-7.5,8.8-11.4c2.1-2.8,4.1-5.7,5.8-8.7
			c1.2-2.2,2-4.6,2.7-7c1.1-4.3,0-8.2-2.4-11.8c-0.3-0.4-0.5-0.8-0.8-1.2c0-0.1,0-0.2-0.1-0.4c0.6,0.1,1.1,0.1,1.6,0.2
			c3.8,1.4,6.1,4.1,6.2,8.2c0.2,4.9-0.5,9.8-3.3,14c-2.1,3.1-4.3,6.1-6.6,9.1c-2.8,3.7-5.7,7.3-8.4,11.1c-1.3,1.8-2.4,3.9-3.4,5.9
			C366.3,330.6,365.8,334.3,368.3,338.1z"/>
		<path d="M77,147.1c3.2-0.5,5.7,0.4,8.1,1.4c4.7,2.1,8.1,5.7,10.2,10.4c0.8,1.7,0.7,2.3-0.8,3c-2.8,1.2-5.7,2.2-8.7,3.2
			c-0.4,0.1-1,0-1.4-0.2c-2.9-1.2-5.5-0.6-7.8,1.2c-2,1.6-3.7,3.6-5.5,5.5c-0.5,0.6-0.9,1.3-1.7,2.2c-0.2-2.1,0.5-3.6,1.2-5
			c1.6-3.2,4.1-5.6,7.3-7.3c1.4-0.7,2-1.8,2.2-3.2C80.5,154.3,80.3,150.5,77,147.1z"/>
		<path d="M398.2,411.7c-5.1,0.3-7.3,3.6-8.9,7.4c-0.8,1.8-1.4,3.8-2,5.7c-2.1-1.5-2.2-1.8-1-8.8c-0.5-0.4-1-0.8-1.6-1.2
			c0-0.3,0-0.7,0.1-0.8c1.2-1.1,2.3-2.3,3.6-3.2c1.8-1.2,2.2-1.8,0.9-3.6c-0.9-1.3-1.9-2.5-3.1-3.5c-3.7-3.1-7.6-6.2-11.4-9.1
			c-7.8-5.9-15.5-11.9-22.2-19c-1.4-1.5-2.7-3.1-3.8-5c2.2,2,4.4,4,6.7,5.9c8.4,7.3,17,14.1,26.8,19.4c2.1,1.1,4.2,2.2,6.3,3.2
			c3.2,1.5,5.1,3.9,5.6,7.4c0.2,1.5,0.5,2.8,2.2,3.4C397.1,410.1,397.4,410.9,398.2,411.7z"/>
		<path d="M407,146c-0.9,1.7-1.6,3-2.3,4.3c-8.1-1.3-16.1-2.7-24.1-3.7s-16-1.5-23.9-2.2c0-1.4,0-2.7,0-4.3
			C373.4,140.9,390.1,142.7,407,146z"/>
		<path d="M270.3,305.5c1.2,2.3,1.4,4.3,1.6,6.2c0.6,4.4,0.5,8.8-0.9,13c-1.8,5.8-5.5,10.1-10.7,13.1c-0.8,0.5-1.6,0.8-2.5,0.4
			c-3.4-1.6-6-4.1-8-7.3c2.6-1.3,5.1-2.3,7.3-3.6c2.3-1.4,4.3-3.1,6.5-4.8c1,1.8,0.7,3.8,1,5.9c0.6-0.9,1.3-1.8,1.7-2.7
			c1.9-3.8,2.7-7.8,3.2-12C269.8,311.3,270,308.7,270.3,305.5z"/>
		<path d="M130,174.7c-1.2,5.6-2.5,11-1.7,16.5c-1.1-1.5-1.5-3.2-1.7-4.9s-0.2-3.5-0.3-5.3c-3.6,1.3-8.3,12.6-8.6,21.3
			c0.6,0.4,1.2,0.8,1.9,1.1c0.7,0.3,1.5,0.5,2.3,0.8c-2.6,1.1-6,0.5-10.9-1.6c-0.6,1.8-1.2,3.6-1.9,5.4c-0.2,0-0.4-0.1-0.7-0.1
			c0.1-1.2,0.1-2.3,0.2-3.5c-1.9,0.5-1.9,0.5-3,3.5c-1.5-2.2-1-4.5,1.6-5.6c2.2-0.9,3-2.5,3.6-4.5c1.7-5.5,4.4-10.5,8.2-14.8
			c2.6-3,5.7-5.5,9.1-7.7C128.7,175.1,129.2,175,130,174.7z"/>
		<path d="M270.5,97.4c-3.5-10.3-6.2-20.8-12.1-30c-0.6-1-1.5-1.9-2.5-2.7c2.5,6.9,4.2,13.7,2.6,21.1c-2-11.3-5.2-22.1-12-31.7
			c0.7,0.3,1.5,0.5,2.2,0.8c6.8,3.1,11.7,8.1,15.2,14.6c4.5,8.3,6.4,17.3,6.7,26.7C270.6,96.6,270.5,97,270.5,97.4z"/>
		<path d="M124.2,152.3c-2,2-4.4,3.1-7,3.9c-3,0.9-6.1,1.2-9.2,1c-1,0-1.9-0.3-2.5-1.2c-6.9-9.7-16.7-14.6-28.1-16.9
			c-0.8-0.2-1.6-0.3-2.4-0.4c-0.8-0.1-1.6-0.3-2.5-0.5c2-0.8,3.8-1,5.9-0.9c5.7,0.4,11,2.1,16.1,4.5c5,2.3,9.6,5.1,14,8.4
			c1.9,1.4,3.9,2.1,6.1,2.1C117.8,152.4,120.9,152.3,124.2,152.3z"/>
		<path d="M251.9,307.9c1.2,2.9,1.1,5.4,0.9,7.8c-0.8,7.2-4,13-10.3,16.8c-0.6,0.4-1.3,0.8-2,0.8c-5.8,0-10.9-2.1-15.4-5.6
			c0.6,0,1.2,0.1,1.8,0.1c0.8,0.1,1.6,0.3,2.4,0.3c4.4,0.3,8.2-1,10.8-4.8c1.4-2.1,2.9-4.3,4.4-6.5c0.7,1.8,0.2,3.8,1.8,5.6
			C250.3,318.5,250.7,313.3,251.9,307.9z"/>
		<path d="M329.4,309c-1.5-3.6-3.5-6.3-5.8-8.8c-1.6-1.7-3.3-3.4-4.9-5.1c-2-2.2-3.5-4.7-4.5-7.5c-0.2-0.5-0.2-1.1-0.4-1.9
			c0.4,0.3,0.6,0.4,0.7,0.5c2.9,4.8,6.9,8.6,11.1,12.3c1.9,1.7,3.8,3.3,5.5,5.2c2.6,2.7,4.3,5.9,3.8,10c-0.6,0.1-1.1,0.2-1.7,0.3
			c-5.3,0.9-9.9,3.5-13.3,7.6c-2.4,2.9-4.3,6.3-6.5,9.4c-0.5,0.7-0.9,1.4-1.5,2c0.8-5.2,2.7-9.8,5.8-14
			C320.8,314.9,325.1,312,329.4,309z"/>
		<path d="M389.3,252.4c7.5-0.1,19.5,2,23.4,5.2c-1.2,3.3-2.5,6.5-3.5,9.9c-2.9,9.7-4.7,19.6-6.4,29.5c-0.4,2.2-0.8,4.4-1.3,6.6
			c0.2-2.7,0.3-5.3,0.5-8c0.5-6.3,1.1-12.6,1.8-18.9c0.5-4.8,1.1-9.7,1.9-14.5c0.2-1.4-0.1-2.5-1.2-3.1c-2.3-1.3-4.5-2.5-6.9-3.6
			C394.8,254.3,392,253.4,389.3,252.4z"/>
		<path d="M396.1,422.7c-0.4-3.1,0.2-5.7,2.9-7.5c1.5-1,3-1.1,4.6-0.1c3.8,2.3,5.9,5.8,6.4,10.1c0.8,7.3-0.6,14.2-4.5,20.5
			c-0.2,0.3-0.4,0.5-0.9,1.1c0.2-2.7,0.2-5,0.4-7.3c0.4-3.9,0-7.8-0.7-11.6c-0.1-0.6-0.3-1.1-0.5-1.6c-0.9-3-2.9-5.4-7-3.5
			C396.7,422.8,396.6,422.7,396.1,422.7z"/>
		<path d="M130,219.4c-0.2-2.3-0.2-4.5-0.5-6.8c-0.3-2.2-0.6-2.3-2.9-2.4c-1.9-0.1-3.5,0.8-4.9,1.9c-2.7,2.1-4.8,4.6-4.6,8.3
			c0.1,1.8,0.2,2.1,2,2.5c1.5,0.3,3,0.5,5,0.8c-3.7,1.3-7,1.4-10.3,0.4c-1.6-0.5-2.5-1.6-2.9-3.3c-0.6-2.6-0.4-5,1-7.2
			c1.9-3.1,4.4-5.6,7.8-7.1c3.3-1.5,8-0.6,10.6,1.9c2,2,2,4.3,1.4,6.7c-0.4,1.5-1,2.9-1.5,4.3C130.2,219.5,130.1,219.4,130,219.4z"
			/>
		<path d="M294.1,408.3c-3.6,1.2-6.6,1.4-9.7,0.7c-3.9-0.9-6.6-4-7.1-8c-0.6-4.3,0-8.4,1.4-12.5c0.6-1.7,1.2-3.4,1.9-5
			c1-2.4,1.2-4.6-1.2-6.4c4,0.2,6.2,2.8,5.7,6.9c-0.3,2.2-0.8,4.3-1.1,6.5c-0.4,3.2-0.8,6.4-1.2,9.7c-0.4,2.9,1.2,4.8,3.6,6.1
			c1.3,0.7,2.9,1.1,4.3,1.5C291.6,408,292.6,408.1,294.1,408.3z"/>
		<path d="M148.8,208c1.9-3.9,4.9-7.2,4.6-12.1c-1.3,0.6-2.3,0.9-3.2,1.5c-2.4,1.8-4.7,3.7-7.1,5.6c-0.7,0.6-0.9,1.3-0.9,2.1
			c-0.1,2.6,0.9,4.8,2.5,6.7c0.5,0.6,1,1.2,1.7,1.9c-4.3-1.7-7.5-5-8.5-8.6c9.6-7.6,18.6-16.1,26.9-25.4
			C165.6,185.9,155.4,204,148.8,208z"/>
		<path d="M289.2,385c2.1-0.7,3.5-0.1,4.6,1.1c1.4,1.6,2.6,3.3,3.7,5.1c1.6,2.6,2.9,5.4,4.5,8.1c0.9,1.6,2.1,3,4.2,3.1
			c-0.6,2-2.4,2.5-4,3.4c3.4,0.9,5.1,0.2,12.7-4.8c-0.4,1-0.6,1.6-0.9,2.1c-2.8,5.1-7.4,7.5-13.1,7c-1.6-0.1-2.7-0.8-3.1-2.2
			c-0.9-2.7-1.6-5.4-2.3-8.2c-0.6-2.4-0.9-5-1.4-7.4C293.4,389.5,292.2,386.9,289.2,385z"/>
		<path d="M309.6,287.4c-0.7-1.2-1.3-2.4-2-3.6c-1.1-2-2.2-4-3.3-6c-3-5.3-7.3-9.1-12.8-11.6c-0.7-0.3-1.5-0.7-2.2-1.1
			c-0.1,0-0.1-0.1,0,0c-0.3-3.6-0.6-7.1-0.9-10.7c0.3,0.1,0.8,0.2,1.3,0.4c3.7,1.6,6.6,4.1,9.1,7.2c3.7,4.8,6.2,10.3,8.4,15.9
			c1.1,3,2.1,6.1,3.2,9.1C310.1,287.3,309.8,287.3,309.6,287.4z"/>
		<path d="M279.1,299c2.2-1.7,4.2-3.2,6.1-4.9c1.9-1.7,2.9-4.1,3.4-6.8c1,0.8,1.9,1.6,3.1,2.5c3-4.9,2.4-10.2,2.4-15.7
			c0.4,0.5,0.8,0.8,0.9,1.2c3.6,8.7,2.2,16.8-3,24.4c-0.3,0.5-1,1-1.5,1.1C286.6,301.1,282.8,300.9,279.1,299z"/>
		<path d="M283.2,178.4c-0.5-4.2-1-7.9-1.5-11.6c-0.2-1.3-0.8-2.2-2.1-2.7c-4.2-1.6-8.3-0.9-12.3,0.8c-0.6,0.3-1.1,1.2-1.3,1.9
			c-1,3.3-1.8,6.6-2.7,9.8c-0.7-1.2-1-6.6-0.5-12.2c5.2-4.6,18.8-4.4,26.2-1.5C288.2,168.4,286.2,173.4,283.2,178.4z"/>
		<path d="M301.4,214c-1.4-1-2.4-1.8-3.5-2.4c-2-1.2-3.2-0.9-4.6,1c-0.9,1.2-1.4,2.6-1.3,4.1c0,1,0,2.1,0,3.6
			c-1.4-1.8-2.5-3.5-3.9-4.9c-1.3-1.4-2.9-2.5-4.5-3.8c2.1-1.3,4.1-2.6,6.4-4c-3.1-4-6.1-7.9-4.3-13.8c0.4,0.8,0.7,1.3,0.9,1.7
			c0.7,1.4,1.3,2.8,1.9,4.2c1,2.3,2.4,4.1,5.2,4.6c0.9,0.1,1.8,0.8,2.7,1.2C299.9,207,300.6,210.3,301.4,214z"/>
		<path d="M180.3,130.2c-1.1-1.2-1.9-2.2-3-3.4c-0.7,1.6-1.4,2.9-2.2,4.8c-1.8-4.4-3.7-8.1-7.5-10.4c2.9,7.1,4.7,14.3,2.8,22
			c-0.9-4.6-1.8-9.3-3.4-13.7c-1.7-4.5-3.9-8.7-7.2-13c1.4,0.2,2.3,0.2,3.1,0.4c6.5,1.5,12,4.8,17,9.2
			C181.3,127.3,180.7,128.6,180.3,130.2z"/>
		<path d="M233.3,111.1c-2.2-3.1-2.4-7.3-0.6-10.1c1-1.6,2.6-2.1,4.4-1.5c1.7,0.6,2.9,1.8,3.9,3.2c0.6,0.8,1.1,1.6,1.7,2.5
			c3.2-1.3,3.7-4.3,4.6-7.3c3,3,0.9,5.6,0,8.3c2.2,1.4,2.8,1.3,8-1.2c-0.3,1.6-1.1,2.6-2.2,3.4c-2.7,2-5.9,2.6-9.2,2.6
			c-1,0-1.2-0.7-1.6-1.3c-1.5-2.2-3.6-3.2-6.3-2.8c-2,0.3-2.3,0.6-2.5,2.6C233.4,109.9,233.4,110.4,233.3,111.1z"/>
		<path d="M110.4,239.9c1.9,4.5,1.9,8.6,0.4,12.6c-2.1-7.4-4.4-14.7-11.2-19.4c0.2-0.1,0.4-0.2,0.5-0.2c8,1.5,15.3,4.4,21,10.4
			c3.4,3.6,5.4,7.8,5.6,12.9c-0.4-0.5-0.7-1.1-1.1-1.6c-2.5-3.3-4.8-6.7-7.4-9.9c-1.2-1.5-2.9-2.6-4.5-3.7
			C112.8,240.6,111.8,240.4,110.4,239.9z"/>
		<path d="M280.4,304.2c1.2,0.2,2.2,0.4,3.1,0.6c0.6,0.1,1.2,0.4,1.9,0.6c1.2,6,1.9,12.1,6.5,16.7c-0.9,1.5-1.8,3-2.7,4.6
			c-0.3-0.2-0.6-0.4-0.8-0.7c-2.2-3-4.8-5.5-7.8-7.7c-0.8-0.6-1.3-1.1-1.2-2.2C279.8,312.3,280.1,308.4,280.4,304.2z"/>
		<path d="M338.3,446.6c-2.4-0.9-3.6-2.4-4.6-4.1c-2.5-4.2-2.7-8.9-2.4-13.7c0.2-3.3,1.7-5.7,4.2-7.8c3.1-2.8,6.7-3.7,10.9-4
			C336.3,422.6,333.2,438.1,338.3,446.6z"/>
		<path d="M371.2,355.9c6-1.8,8-1.1,8.9,3.1c-1.7-0.4-3.3-1.8-5.1-0.8c-1.9,1-1.9,2.8-2.1,4.6c-2.8-0.4-4.3-1.9-4.3-4.6
			c0-2.3,0.3-4.7,0.8-7c0.7-3.7,1.8-7.2,2.4-10.9c0.5-3,0.5-6-1.8-8.5c3-0.6,6.8,1.9,7.2,4.7c0.1,0.6-0.2,1.3-0.4,1.9
			c-1.6,5.1-3.3,10.2-4.9,15.3C371.6,354.3,371.5,355.1,371.2,355.9z"/>
		<path d="M279.9,187.1c-4.8-0.8-9.6-1.9-14.5-1.8c-1.4,0-2.8,0.2-4.1,0.4c-0.5,0.1-1.1,0.3-2,0.6c3.5,0.5,6.8,0.2,9.4,3.5
			c-7.5-1.5-13.7,0.7-19.6,4.8c0.2-0.4,0.3-0.8,0.5-1.1c2.3-3.3,4.6-6.5,6.8-9.8c0.7-1,1.5-1.5,2.8-1.7c7-1,13.4,0.4,19.4,4.1
			C279.1,186.4,279.5,186.8,279.9,187.1z"/>
		<path d="M165.5,225.9c-0.8,0.2-1.7,0.4-2.5,0.7c-3.3,1.1-5.8,3.1-6.8,6.5c-1.7,5.8-2.3,11.6-0.9,17.6c0.4,1.5,1,2.9,1.6,4.5
			c-3.6,0.6-6.9,0.2-10.7-1.1c0.9-0.3,1.3-0.5,1.7-0.6c0.8-0.2,1.6-0.3,2.4-0.5c2.1-0.7,2.4-1.1,2.1-3.3c-0.7-5.2-2.5-10.1-4.6-14.9
			c-0.3-0.7-0.5-1.3-0.8-2c0,0,0.1-0.1,0.2-0.4c2,1,2.8,3.1,4.2,5.3c0.9-4.5,2.3-8.1,6.1-10.3C160,225.9,162.6,225.2,165.5,225.9z"
			/>
		<path d="M413.9,340.3c0.5,6.7-4.1,13.2-9.2,15.1c0.3-0.8,0.5-1.5,0.7-2.1c0.5-1.8,1.2-3.5,1.6-5.4c0.8-4.3,0.2-8.1-4-10.5
			c0-4.1,1.2-6.9,3.7-8.6c0.2,0.9,0.2,1.8,0.4,2.6c0.3,1.3,0.5,2.7,1,4C409,338.2,411.2,339.7,413.9,340.3z"/>
		<path d="M360.7,444.2c-1.9-1-2.8-2.2-3.5-3.5c-2.1-3.7-3.1-7.8-3-11.9s2.4-7.3,5.8-9.6c1-0.7,2.2-1.2,3.3-1.5
			c2.7-0.9,5.3,0.4,6.7,3.1c-0.2,0-0.3,0.1-0.5,0.1c-4.5-0.8-6.9,0.3-8.8,4.4c-2.4,5.1-2.4,10.4-1,15.7
			C360,441.9,360.3,442.8,360.7,444.2z"/>
		<path d="M378.5,332.9c3.4-0.6,5.3,0.2,6.7,2.9c1.4,2.6,1.7,5.4,1.8,8.2c0.1,3.3,0,6.6,0,10.3c1.1-0.3,1.8-0.5,2.6-0.6
			c0.8-0.1,1.6-0.3,2.4-0.2c0.9,0,1.6,0.3,1.4,1.7c-2.8,0.5-4.8,2.3-6,5.1c-1.1-0.3-1.5-1.3-1.9-2.1c-1.3-2.4-1.9-5-2.2-7.6
			c-0.2-2.3-0.3-4.5-0.6-6.8C382.2,339.9,382.1,335.8,378.5,332.9z"/>
		<path d="M394.2,286.8c-0.2-0.6-0.3-1.3-0.5-1.9c-1.4-6-4.5-8.6-10.7-9.1c-2.9-0.2-5.8-0.3-8.8-0.5c-2.9-0.2-5.8-0.7-8.5-2.1
			c-0.8-0.4-1.6-1-2.2-1.9c1.5,0.2,3,0.5,4.4,0.6c5.8,0.3,11.5,0.5,17.3,0.8c1.1,0.1,2.3,0.1,3.4,0.2c2.8,0.2,4.9,1.3,6.1,4
			c1.3,3,2,6,0.3,9.1c-0.1,0.2-0.3,0.4-0.5,0.6C394.6,286.8,394.4,286.8,394.2,286.8z"/>
		<path d="M311.8,386.1c1.8-0.8,2.6-2.3,3.1-4c0.3-1.3,0.2-2.4-0.8-3.5c-3.1-3.4-4.4-7.7-5.3-12.1c-0.3-1.3-0.4-2.7-0.3-4.2
			c0.3,0.4,0.6,0.8,0.8,1.2c1.5,3.1,2.9,6.2,4.5,9.2c1.6,2.9,3.4,5.7,6,8c-1.5,4.6-4.5,7.9-8.6,10.7c-1.4-3.2-4-4.6-6.9-5.5
			C306.2,383.1,307.6,383.2,311.8,386.1z"/>
		<path d="M269.7,166.1c3.5-1.7,6.9-1.1,10.4,0.1c0.4,3,0.2,5.9-0.9,8.8c-3.7,0.5-7.4,0.9-11.2,1.4
			C268.5,173.1,269.1,169.7,269.7,166.1z"/>
		<path d="M370.5,255.2c-0.1,0.4-0.2,0.7-0.4,1.1c-3.2,6.3-7.5,11.7-13,16.1c-0.9,0.7-1.9,1.1-3.1,1.1c-4.8,0-9.2-1.2-13.6-3.5
			c0.7,0,1.5-0.1,2.2-0.1c3-0.2,6-0.4,8.9-0.7c2.3-0.2,4.4-1.3,6.1-2.8c3.6-3.1,7.1-6.4,10.7-9.6c0.6-0.6,1.2-1.2,1.9-1.8
			C370.3,255.1,370.4,255.1,370.5,255.2z"/>
		<path d="M111,281.1c2.2-6,2.3-11.9,0-17.9c2.8-0.1,4.9,1.7,5.7,4.7c0.6,2.2,0.2,4.4-0.2,6.5c-0.1,0.6-0.2,1.2-0.4,2.3
			c2.9-1.8,4.5-4.1,5.9-6.6c1.3-2.5,2.5-5.1,3.7-7.7C126.2,271.9,119.1,281,111,281.1z"/>
		<path d="M128,281.3c0.6-3.2,0-5.9-0.8-8.7c-0.3-1.1,0.1-2.5,0.4-3.7c1.8,1.6,1.9,3.8,2.6,5.8c2.9-1.3,3.5-2.6,5.5-9.5
			c5-1.4,10.5,0.3,13,4.1c-0.7-0.2-1.2-0.3-1.7-0.4c-1.8-0.3-3.7-0.7-5.5-0.7c-1.9-0.1-3.2,0.6-3.9,2.8c-0.8,2.9-2.4,5.5-4.6,7.6
			C131.6,279.8,130.1,280.8,128,281.3z"/>
		<path d="M266.7,151.1c0.2,2.7,2.2,5.4,0.5,8.5c-1.3-3.7-2.4-7.2-5.2-10.1c1.5-1.4,2.8-2.2,5-1.8c5.9,1,11.8,1.3,17.7-0.3
			c2-0.5,3.9-1.4,5.8-2.1c-1.1,2.6-3.1,4.3-7.6,6.1c-0.1,1.8,0.2,3.8-1.2,5.6c-0.7-1.7-1.4-3.3-2-4.8c-0.5-1.1-1.2-1.8-2.7-1.6
			c-1.7,0.2-3.4,0.2-5.1,0.3C270.2,151.2,268.5,151.1,266.7,151.1z"/>
		<path d="M68.5,189.3c-2.5-0.5-4.1-2-5.5-3.9c-1.5-2.1-2.4-4.4-2.8-7c-0.6-4.3-0.5-8.6,0.9-12.8c1.5-4.4,4.2-7.6,8.5-9.6
			c0.3-0.1,0.6-0.2,1.3-0.4c-2.9,3.6-4.9,7.3-6.2,11.4c-1.5,4.6-1.9,9.2-0.7,13.9C64.7,184.2,66.5,186.8,68.5,189.3z"/>
		<path d="M249.3,277.4c-1.3,1.8-3.2,3.4-5.3,4.9c-1.1,0.8-2.1,0.6-3.1-0.1c-2.5-1.6-4-4-5-7.1c3.1-1.6,6.1-3.2,9.1-4.7
			C246.5,272.8,247.8,275,249.3,277.4z"/>
		<path d="M350.3,258.2c-3.3,4-7.4,6.5-11.9,8.8c-3.2,1.7-6.3,1.9-9.6,0.4c-2.2-1-4.4-2-6.6-3.1c-0.7-0.4-1.4-1-1.9-1.8
			C331,265.4,340.8,262.6,350.3,258.2z"/>
		<path d="M182.2,123.4c3.4,1.9,6.8,3.7,10.1,5.7c3.3,2.1,3.6,3.5,2.2,7.6c-1.9-2.2-3.4-4.9-6.4-5.8c-0.3,5.5,0.5,10.8-0.9,16
			c-1-7.9-2.7-15.6-5.5-23C181.9,123.7,182.1,123.5,182.2,123.4z"/>
		<path d="M197,127.4c4.1,2.4,7.6,5.3,10.5,9c1.8,2.3,2.6,4.6,1.2,7.5c-1.8-2.3-2.5-5.4-5.3-7.3c-0.9,5.4-2.2,10.4-4.9,15
			C199.9,143.3,200.6,135.3,197,127.4z"/>
		<path d="M93.4,262.4c0.9-1.5,1.4-2.8,2.4-3.9c1.7-1.9,3-2,5.2-1s3.1,0.8,4.5-1.1c0.7-1,1.2-2.1,1.9-3.2c1.5,2.8-0.4,6.9-5,11.2
			c3,0.2,5.9,0.3,8.5,2.8c-1,0.1-1.4,0.2-1.8,0.2c-2.1-0.1-4.2-0.1-6.3-0.2c-2.2-0.1-2.9-0.7-3.5-2.7c-1.1-3.5-1.7-3.7-5-2.1
			C94.1,262.6,94,262.6,93.4,262.4z"/>
		<path d="M308.2,324.4c1.1-3.4,2.2-6.3,2.9-9.3c1.2-5.4,0.2-10.2-4.4-13.8c-0.1-0.1-0.1-0.3-0.2-0.4c3.5-0.3,9.2,2.3,10.9,5.1
			c0.4,0.6,0.5,1.6,0.3,2.3C315.9,314.3,312.6,319.5,308.2,324.4z"/>
		<path d="M300.9,420.1c-3,2.7-6.6,3.3-10.3,2.1c-5.3-1.7-7.8-5.9-9.6-11.3c3.5,1,6.6,1.9,10.2,1.2c-0.9,1.2-1.6,2.2-2.4,3.2
			C291.7,420.1,296.2,420.1,300.9,420.1z"/>
		<path d="M299.4,237.6c2.2,6.7,2.4,13.6,2.4,21c-2.6-1.8-4.8-3.5-7.2-5.4C296.2,248,297.8,242.8,299.4,237.6z"/>
		<path d="M376.4,360.4c0.7,1.7,1.1,3,1.7,4.1c1.2,2.3,2.3,4.7,3.8,6.8c1.9,2.8,4.2,4.8,8.1,3.3c-1,2.7-2.7,3.7-5.1,3.3
			c-2.1-0.4-3.9-1.4-5.2-3c-1.7-2.1-3.4-4.4-4.7-6.8C373.7,365.5,374.5,363.1,376.4,360.4z"/>
		<path d="M284.8,131.4c0.1,1.6-0.6,2.7-1.5,3.6c-1,1-2.1,1.8-3.1,2.7c-1.1,1-2.3,1.3-3.8,0.5c-0.5-0.3-1.3-0.5-1.9-0.4
			c-3.4,0.7-6.8,0.4-10.4-0.1c0.6,2.4,1.3,4.7,1.9,7c-0.1,0.1-0.2,0.1-0.4,0.2c-1.9-3-3.8-6.1-5.8-9.3c0.5-0.7,1.1-1.5,1.7-2.3
			c3.6,2,7.5,2.4,11.3,2.7c2.4,0.2,4.7,0,6.8-1.3C281.4,133.6,283,132.6,284.8,131.4z"/>
		<path d="M287.4,373.4c-2.1-1.4-3.5-3.2-4.1-5.5c-0.9-3.7,1.9-7.3,5.8-7.7c2.5-0.2,5.1,0.8,7.8,3.1
			C291.2,364.2,286.6,366.3,287.4,373.4z"/>
		<path d="M323.7,412.1c-1.3,3.7-4.1,5.5-7.7,6.2c-5.2,0.9-9.3-1.4-13.1-4.6c2.7-0.9,5.2-1.8,7.6-2.7c0.3,2.7,0.8,3.1,4.2,3.1
			C317.8,414.1,320.8,413.3,323.7,412.1z"/>
		<path d="M268.1,388.7c1.7,1.3,3.4,2.6,5.2,4.1c-1,4.7,0.7,8.9,3.8,12.7c-1.2,1.2-2.3,0.7-3.3,0.3c-1.9-0.7-3.3-2.2-4.1-3.9
			c-2-4.1-2.3-8.4-1.8-12.8C267.9,388.9,268.1,388.8,268.1,388.7z"/>
		<path d="M330.6,207.8c-1,2.4-1.9,4.7-2.8,7.1c-3.6-0.1-7.1-0.3-10.9-0.4c0.9-2.2,1.9-4.2,3.2-6c0.3-0.4,0.9-0.8,1.4-0.8
			C324.4,207.2,327.4,207.2,330.6,207.8z"/>
		<path d="M270.5,106.5c-0.4,3.3-2.6,5.4-5,7.5c1.1,1.3,2.3,2.6,2.6,4.8c-1.2-0.9-2-1.6-2.9-2.3c-1-0.8-2.1-1-3.4-0.5
			c-1.4,0.6-2.9,1-4.7,1.5c0.7,1.5,1.3,2.8,2,4.3c-5.5-2.6-8.2-5.4-6.9-9.5c0.3,0.3,0.7,0.5,0.9,0.7c1.7,1.4,3.6,1.8,5.7,1.2
			c3.1-0.8,5.6-2.5,7.9-4.6C268,108.7,269.2,107.6,270.5,106.5z"/>
		<path d="M324.5,148.9c-1.3,1-2.4,1.9-3.6,2.7c-0.4,0.2-1.1,0.2-1.6,0c-3.8-1.9-7.3-4.3-9.6-8c-1.5-2.4-2.1-5.1-1.6-8
			c1.2,2,2.2,4.2,3.7,5.9c1.6,1.8,3.6,3.2,5.7,4.5C319.7,147.1,321.9,147.8,324.5,148.9z"/>
		<path d="M274.2,331.7c3.4,1.7,6,4.2,8.7,6.8c-0.9,1.4-1.7,2.7-2.7,4.2c-3.4-2-6.6-3.8-10-5.9C271.6,335.1,272.8,333.5,274.2,331.7
			z"/>
		<path d="M403.9,371.6c-4,1.9-7.7,1.3-11-1.5c-2.1-1.8-3.5-4-4.6-6.5c-0.2-0.5-0.4-1.2-0.1-1.6c0.9-1.3,1.9-2.6,3-3.7
			c0.8-0.8,1.9-0.7,3.1-0.1c-0.2,0.3-0.4,0.6-0.6,0.7c-2.4,2-2.5,2.3-1.2,5.1c1.8,3.8,4.8,6,8.8,7
			C402.1,371.3,403,371.4,403.9,371.6z"/>
		<path d="M277.4,109.7c0.6-9.6-1.5-18.7-5.2-27.5c0.3,0.3,0.7,0.6,1,1c3,4.5,5.4,9.3,7.3,14.3c0.3,0.8,0.5,1.8,0.3,2.6
			c-0.7,3.1-1.6,6.1-2.5,9.2c-0.1,0.2-0.2,0.4-0.3,0.7C277.8,109.8,277.6,109.8,277.4,109.7z"/>
		<path d="M156.6,220.9c2.1-0.4,4.1-0.7,6.2-1.1c1.4-0.3,2.8-0.6,4.2-1.1c2.3-0.7,2.8-1.4,2.8-3.9c0-1-0.1-1.9-0.2-2.9
			c-0.1-0.9-0.3-1.7-0.3-2.6c3.8,3.8,4.3,8.6,4,13.6C167.7,222.2,162.2,221.5,156.6,220.9z"/>
		<path d="M275.1,118.7c-1.2,1.9-2.4,3.8-3.6,5.8c1.3,2.2,2.7,4.6,3.4,7.8c-1.6-1.8-2.7-3.1-3.9-4.4c-2.8-2.9-4.4-3.1-8.1-1.1
			c0.5,1.5,0.9,3,1.6,5c-0.7-0.5-1-0.6-1.2-0.8c-1.7-1.6-3.4-3.3-5-5c-0.3-0.4-0.2-1.2-0.3-1.7c3.3-0.3,6.4-0.4,9.4-0.8
			c3.3-0.4,5-3.3,7.4-5.2C274.8,118.4,274.9,118.5,275.1,118.7z"/>
		<path d="M299.5,160.1c-0.9-6.5-2.7-12.3-5.4-17.9c3.7-4.4,1.1-8.5-0.3-12.8c2.8,2.2,4.6,5.1,5.3,8.6c0.1,0.6-0.3,1.4-0.7,2
			c-0.5,0.9-1.1,1.6-1.5,2.3c0.9,3,2,5.8,2.6,8.7C300.1,153.9,300.5,156.9,299.5,160.1z"/>
		<path d="M293.8,164.5c2.2-0.2,3.6,0.8,4.9,1.9c0.3,0.3,0.6,0.8,0.6,1.2c0.8,8.1,1.1,16.2-1,24.1c-0.1,0.4-0.3,0.8-0.8,1.2
			c0-1.7,0-3.5,0-5.2c-0.1-5.1-0.1-10.2-0.3-15.3C297.2,169.5,296.2,166.8,293.8,164.5z"/>
		<path d="M381.4,328.1c-4.3-2.3-5.6-6.6-3.3-10.7c1.7-3.1,4.6-4.1,7.6-2.3C380.7,318.2,381.1,323,381.4,328.1z"/>
		<path d="M344.4,431.7c3.9-0.8,4.8-3.4,4.8-6.6c0-1.5,0-3,0-4.7c1.3,0.2,1.8,1.1,2.2,2.1c1.2,3.2,1.3,6.5,0.8,9.8
			c-0.3,2.1-3.8,3.2-5.6,1.8C345.9,433.6,345.3,432.7,344.4,431.7z"/>
		<path d="M159.4,214.3c6.3-6.9,7.2-15.1,8-23.4c0.2,1,0.5,2,0.5,3c0.1,3.8,0.2,7.6,0,11.4C167.7,210.3,164.9,213.2,159.4,214.3z"/>
		<path d="M289.4,127.7c0.3-2.1,0.6-3.7,0.9-5.3c0.4-2.4,0.2-4.7-1-6.8c-1.5-2.8-3-5.7-4.5-8.6c-0.4-0.7-0.7-1.4-1.3-2.5
			c0.5,0.2,0.7,0.3,0.8,0.4c3.4,3.6,6.4,7.5,8.8,11.9c0.5,1,0.8,1.9,0.4,3c-0.9,2.2-1.7,4.3-2.7,6.5
			C290.7,126.7,290.1,127,289.4,127.7z"/>
		<path d="M415.7,167.8c4.4,5.4,5.6,14.3,2.7,18.9c-0.4-2.6-0.4-5.2-1.2-7.6c-0.7-2.3-2.2-4.5-3.5-7.1
			C414.2,171.1,414.9,169.5,415.7,167.8z"/>
		<path d="M314.5,393.5c1.8-1.9,3.4-3.6,5-5.2c0,0.2,0,0.4-0.1,0.6c-0.3,2.8,0.4,3.8,3.1,4.1c2.1,0.3,4.2,0.3,6.3,0.5
			C325.6,397.7,317,397.1,314.5,393.5z"/>
		<path d="M67.4,256.6c-1.6,4.6,0.8,8.9,1.4,13.5c-3.1-1.4-5.3-3.3-6.3-6.3c-0.7-2-0.3-3.2,1.3-4.7c0.6-0.5,1.1-0.9,1.7-1.4
			c0.5-0.4,0.9-0.9,1.4-1.3C67.1,256.5,67.3,256.5,67.4,256.6z"/>
		<path d="M134.3,206.5c-2.6-0.8-5-1.5-7.4-2.2c1.7-1.9,5.5-2.5,4.4-6.7c1.5,2.4,3.8,2,5.9,1.9c1-0.1,2-0.2,3.2,0
			c-1.3,0.9-2.6,1.9-3.9,2.7C134.9,203.3,133.8,204.5,134.3,206.5z"/>
		<path d="M137.5,244.2c-2.7-3.8-2.4-6.9,1.1-9.5c2.4-1.8,4.5-1.3,5.9,1.4c-1.5,1-3.3,1.8-4.4,3.1
			C139,240.6,138.4,242.4,137.5,244.2z"/>
		<path d="M402.7,327.3c-1.5,3.2-2.2,6.5-1.7,10.1c-3-0.2-3.1-3.4-5.3-4.3c-0.6,0.4-1.2,0.9-2,1.4c-0.2-0.7-0.5-1.3-0.5-1.9
			c-0.2-1.7,0.8-2.9,2.4-2.4c1.9,0.5,3.1-0.4,4.4-1.3C401,328.3,401.8,327.8,402.7,327.3z"/>
		<path d="M269.5,152.9c2.1-0.2,4.1-0.3,6.1-0.4c0.4,0,0.8,0.2,1.1,0.4c1.1,1.2,2.2,2.5,2.5,4.4c-3,0.3-5.9,0.6-8.8,1
			C270.1,156.4,269.8,154.7,269.5,152.9z"/>
		<path d="M145.9,227.9c-2.3-1.5-3-3.2-2.2-5.5c0.8-2.2,2.5-3.4,4.7-3.8c1.6-0.3,2.8,0.5,3.5,2.3
			C148.5,221.9,146.4,224.1,145.9,227.9z"/>
		<path d="M106.8,215.4c-0.4-0.8-0.8-1.3-1-1.8c-1.7,0.1-2.3,1.3-2.6,2.5c-0.1,0.6,0.5,1.3,0.9,2.1c0.1-0.1,0.1,0-0.1,0
			c-1.2,0.3-2.5,0.6-3.4-0.5c-0.8-1.1-0.9-2.6-0.3-3.7c0.7-1.3,1.9-2.4,3.1-3.3c0.9-0.7,2.2-0.5,3.2,0.2s0.7,1.7,0.6,2.7
			C107.2,214.2,107,214.7,106.8,215.4z"/>
		<path d="M179.1,154.9c-3.5,0.3-6.8,0.7-10.1-0.1c-1.5-0.4-2.9-0.9-3.4-2.7c3.1,0.5,3.1,0.5,5.2-1.9c0.3,0.7,0.6,1.3,0.9,2
			c0.7-0.3,1.3-0.6,1.7-0.9C175.2,152.5,177,153.6,179.1,154.9z"/>
		<path d="M372.6,433.6c1.8-0.9,3.2-1.7,4.7-2.5c-2.9,6.9-8,6.8-10.3,3c1-0.5,2.1-0.9,2.9-1.5s1.3-1.6,2-2.5
			C373,430.7,372.8,431.9,372.6,433.6z"/>
		<path d="M181.3,156.5c3.3,1.1,4-1.8,5.6-3.9c0.6,2-0.2,4.7,2.9,4.7c-1,2.4-1,2.4-3.1,2.3C183.4,159.6,182.1,158.8,181.3,156.5z"/>
		<path d="M104.3,224.1c1.1-0.1,1.7-0.1,2.5-0.1c-0.1,0.3-0.1,0.6-0.2,0.7c-0.6,0.4-1.1,0.9-1.8,1.2c-1.6,0.6-3.1-0.4-3.3-2.1
			c-0.2-2.5,1.7-4.6,3.9-4.5c1.2,0.1,2,0.6,2.1,2c-0.7,0-1.4,0-2.4,0C104.9,222.1,104.6,223,104.3,224.1z"/>
		<path d="M131,232c-1.6-1.5-1.5-2.9-0.9-4.3c0.5-1.3,2.7-2.2,4.1-2.1c1.1,0.1,1.6,0.6,1.5,1.9C133.3,227.7,131.9,229.3,131,232z"/>
	</g>
</g>
</svg>
