<svg xmlns="http://www.w3.org/2000/svg" viewBox="0 0 500 500"><path d="M376.8 245.9c.1-1 .2-1.5.3-2 .5-4.4.9-8.7 1.6-13.1 2-11.6 6.3-22.4 12.2-32.5 4.5-7.6 9.5-15 14.2-22.5 2.8-4.5 5.6-8.9 8.2-13.6a45.1 45.1 0 0 0 5.9-19.9c.1-.8.3-1.7-.6-2.5-.5 1-.9 1.8-1.2 2.6-6.2 12.9-15.6 22.5-28.7 28.3-3.6 1.6-7.3 3.1-11.1 4.4-8.5 2.8-17 5.4-25.5 8.3-7.8 2.7-15.1 6.4-21.8 11.3-.5.4-1 .9-1.9 1.7 9.6-.2 18.5.1 26 5.9v-4.7c.1-6.4 2.5-9.7 8.5-11.9 4.1-1.4 8.2-2.7 12.2-4.2 10.8-3.8 21.4-8.3 30.6-15.3.2-.1.4-.2 1-.4-.3 1-.5 1.8-.9 2.5-1 1.8-2 3.5-3.2 5.1-1.9 2.5-3.9 5-5.9 7.5-5.8 7.2-11.3 14.7-15.3 23.1-4.7 9.7-7.1 19.9-6.5 30.7.4 3.7.8 7.2 1.9 11.2zM335 139.1c-.4-.2-.5-.4-.7-.4-6.6-.7-11.1-4.3-13.9-10.1-1.9-3.8-1.5-7.6.7-11.2.9-1.4 1.9-2.6 3.1-3.8 4-3.8 8.8-6.6 14.1-8 10.6-2.9 21.4-4.7 32.4-5.6 6.9-.6 13.8-1 20.7-1.6 13-1.1 25.3-5 37-10.9 6.5-3.3 11.6-8.1 14.3-15 3.5-8.9 2.4-17.7-.5-26.5-.1-.2-.3-.3-.6-.7.7 4 .5 7.7-.4 11.5-1.5 6.2-4.6 11.6-8.8 16.4-5.9 6.7-12.2 12.9-20.4 16.7-6.4 2.9-13.3 4.4-20.2 5.2-8.8.9-17.6 1.6-26.5 2.3-7.5.6-15 1.4-22.4 3.1-8 1.8-15.6 4.6-22.2 9.6-.8.6-1.6 1.2-2.2 1.9-2.5 3.6-4.6 7.5-5.7 11.8-1.7 6.8.6 12.4 6.6 16.1 2.8 1.7 5.8 2.9 9 3.5.7.1 1.6.2 2.1-.1 1.5-1.2 2.9-2.7 4.5-4.2zM164.9 266a58.3 58.3 0 0 1 20.7-5.8c-1-3.1-1.9-5.9-2.7-8.8-1.7-6-.6-11.4 3.6-16.1a35 35 0 0 1 7.7-6.7c.4-.3.8-.7 1.2-1-1.4-.9-2.6-1.7-3.8-2.6-2.8-2.1-5-4.6-6.2-8-.9-2.4-.9-4.6 1.1-6.5.8-.7 1.4-1.6 2.1-2.4 4.3-4.4 9.4-7.7 14.8-10.6 10.5-5.6 21.7-9.6 33.1-12.9.7-.2 1.5-.5 2.2-.7-3.6-.1-7 .2-10.5.5-14.1 1.3-28.2 2.6-42.1 5.1-4 .7-7.9 1.7-11.9 2.6-.9.2-1.9.5-2.1 1.7-.4 2.6-.7 5.2-.6 8.1 12.5-4.8 25.1-8.1 38-10.7-.6.5-1.3.8-1.9 1.1-3.8 1.7-7.6 3.3-11.3 5.1-5.7 2.8-11.3 5.7-16.2 9.9-1.1.9-2 2.1-3 3.2-.9 1-1 2-.3 3.1 1.4 2.1 2.7 4.2 4.2 6.3.9 1.3 2.1 2.4 3.4 3.8-2.4.2-4.5.3-6.7.4 3.9 2.8 8.4 3.3 13.2 3.8-4.5 3.1-8.2 6.3-10.8 10.5-5.3-.9-9.4-3.5-13.9-6.5.3.9.3 1.3.5 1.6 2.5 5.8 5.4 11.3 9.5 16.1 1.7 2 3.4 4 5 6 .5.6.8 1.4 1.4 2.4-7.1.8-13.2 2.9-17.7 8zm-20.2 41.5c1.9 3.8 1.4 7.5-1.6 10.1-1.2 1-2.4 2-3.7 2.7-4.5 2.5-9.1 5-13.7 7.4-4.5 2.3-8.4 5.2-11.8 8.9-5.6 6.1-6.8 13.1-4.3 20.8 1.4 4.4 4.5 7.7 7.8 10.7 5 4.4 6 9.2 3.5 15.4l-1.2 2.7c3.2.4 5.8-.6 7.3-3.4 3.1-5.6 4.2-11.4.7-17.3-1-1.7-2.2-3.4-3.3-5.2-1.4-2.2-2.4-4.5-2.5-7.1-.1-2.3 0-4.6 0-7.1a7.35 7.35 0 0 0-2.4 5.5c-.2 3.7.6 7.1 2.6 10.2 1 1.6 2.1 3.1 2.9 4.8 1.9 3.5 2.3 8.1 1.1 11-.8-5.1-2.3-8-6.2-11.5-.7-.7-1.4-1.3-2.1-2-2.7-2.6-3.7-5.9-3.4-9.3.3-3.8 1.3-7.5 2.1-11.2.8-3.6 3.1-6.1 6.2-8.1 7.9-5.2 16.1-9.8 24.6-14 1.2-.6 2.4-1.4 3.3-2.4 3.3-3.2 5.3-7.2 6.6-11.5 1.6-5.4 1.8-10.9 1.4-16.4-.4-4.7-1.9-9.1-4.4-13-2.2-3.4-5.2-5.8-9.2-6.9-.9-.3-1.9-.2-2.9-.3 4 4.1 8 7.9 8.1 14.1-3.5-.7-6.5-.4-9.4 2 3.9.2 7.5-.4 10.9 1.3.3 1.6 1 3 .5 4.6-2.9.1-5.7.6-8.6 2.3 3.4.4 6.4-.5 9.1.7 1.5 7.4-.6 13.6-4.6 19.4-.2-.5-.2-1-.1-1.5.6-3.2-.2-6.1-1.2-9.1-.8-2.3-2.6-3.8-4.9-4.6-1.3 1.6-2.5 3.3-3.9 4.6-1.3 1.3-3 2.2-4.7 3.4 4.2 1.5 7.9.8 11.4-.7zm-40.3-60.4c-.8-4.5-2-6.6-5.1-9-6.3-4.7-13.3-5.2-20.5-2.4-.6.2-1.2.8-1.6 1.4-2.2 2.7-2.8 6-3.4 9.3-.6 3.1-1 6.2-1.3 9.4-.4 4.7-.7 9.4.4 14.1.8 3.7 1.8 7.4 3.6 10.8 3.3 6.6 7.8 12.1 14.3 15.8.6.3 1.2.6 2.1 1.1-2.8-9.7-3.6-19-1.8-29-1.6 1.6-2.4 3-2.6 4.6-.4 3.7-.6 7.4-.8 11.1 0 .8.2 1.6.3 2.4-8.5-16.5-3-38.6 6.8-48.4 4 1.7 7.1 4.7 9.6 8.8zM352.9 128c-4 5.6-9.4 9.7-14.5 14-6 5.1-12.2 10-18.1 15.2-5.9 5.1-11.5 10.6-16.2 16.8-.6.7-1.1 1.7-1.1 2.6 0 2.6.4 5.3.6 8.1.7-.3 1.3-.6 1.8-.8 2.6-1 5.1-2.2 7.7-2.9 1.6-.5 2.6-1.2 3.4-2.7a105.6 105.6 0 0 1 27.2-32.6c.7-.5 1.4-.9 2.1-1.4.2.1.3.2.5.3-.1 1.6-.1 3.2-.3 4.8-.9 6.4-2.9 12.5-4.9 18.6-1.1 3.4-2.3 6.7-3.4 10.1.2.1.3.1.5.2a90.2 90.2 0 0 0 14.7-50.3zM239.3 92.7c0-2.5-1.4-3.5-2.9-4.2-2.2-1-4.3-.4-6.3.7-2.5 1.3-4.3 3.4-6.1 5.6-.5.6-1 1.2-1.8 2.2.3-6.5.7-12.3 2.9-17.8.5-1.3 1.3-2.6 2.2-3.8 1.3-1.8 3.2-2.5 5.4-2 .5.1 1 .2 1.7.3-5.8-5-11.9-2.9-15.3 1.6-.6.8-1.1 1.6-1.5 2.5-4.7 8.5-5.5 17.6-3.3 26.9 1.7 7 5 13.4 8.6 19.6 3.4 6 7.4 11.7 12.7 16.3 2.9 2.5 6 4.5 9.7 5.3 1.3.3 2.6.4 4.3.1a72.2 72.2 0 0 1-16.5-27c-.1 1.6-.1 3.2.1 4.7 1 5.3 3.2 10.2 5.9 14.9.4.7.7 1.3 1 2-.7-.1-1.2-.4-1.6-.8-7.4-6.1-12-13.8-13.8-23.2-.5-2.4-.9-4.9-.7-7.2.5-5.1 2.5-9.7 5.5-13.9 1-1.4 2.2-2.6 3.5-3.7 1.8-1.4 3.3-1.2 5.1.1.3 0 .6.3 1.2.8zM49.8 290.1c-.2 0-.4.1-.6.1-1.1-2.6-2.4-5.1-3.3-7.8-2.2-6.8-1.6-13.6-.3-20.5.8-4.2 2.1-8.4 4.2-12.1 1.4-2.5 3-5 4.5-7.6 1.3-2.3.8-3.4-1.7-3.8-.6-.1-1.3-.1-1.9.1-2.1.7-4.1 1.6-6.1 2.4-3.7 1.4-5.2 4.5-5.9 8.1-.7 3.5-1.1 7-1.7 10.5-1.2 8 .1 15.7 3.3 23 1.1 2.5 2.3 5.1 3.9 7.3 2.5 3.4 5.7 6.2 9 8.8.9.7 1.9 1.4 3.4 2.5-.6-2.2-1.1-3.8-1.5-5.4-2.2-8-3.2-16.1-1.2-24.3 1.3-5.3 3.2-10.3 8.1-13.4.3-.2.5-.4.7-.6a7.2 7.2 0 0 0 2.8-5.7c.1-3.5-.7-6.8-2.6-9.7-.2-.3-.3-.8-.4-1.1-.2.2-.5.4-.7.5.1.6.2 1.2.3 1.7.8 4.8.4 9.3-3.5 13-3 2.9-5.3 6.4-6.6 10.4-2.1 6.8-3.3 13.7-2.1 20.8-.1 1-.1 1.9-.1 2.8zM329.9 116c.4 0 .6.1.7 0 15.9-4 32-3.8 48.2-1.4 4.3.6 8.6 1.8 12.9 2.3 10.4 1.2 20.9 1.3 31.4.2 6.5-.7 12.8-2 18.8-4.8 3.4-1.6 6.5-3.7 8.9-6.7.3-.4.5-.9 1-1.7-1.9.7-3.3 1.3-4.7 1.8a95.92 95.92 0 0 1-34.3 6.2c-8.4-.1-16.6-1.5-24.9-2.8-6.9-1-13.8-2.2-20.8-2.6-12.5-.7-24.3 2.5-35.4 8.3-.6.4-1.1.7-1.8 1.2zm-129 158.2c1.8-1.5 4.2-2.4 5.3-5.2-4.5 1-8.8 1.8-12.9-1 2-1.5 3.8-2.9 5.7-4.3l-.2-.2c-4.8.9-9.5 1.9-14.3 2.8.1.1.1.2.1.2.3.2.6.3.9.5 3.6 1.6 6.5 4 8.5 7.4 1 1.6 2 3.2 3.1 4.7 3 4.4 6 8.7 9 13 3.1 4.3 7.3 7.1 12.2 8.9 11.2 4 22.6 4.3 34.1 2 .3-.1.5-.3.9-.6-12.8-1.5-22.9-3.8-25.5-5.8 3.8-3.5 3.8-3.5 4-5.2-5 1.3-9.9 3.4-15.3.3 3.1-2.2 5.8-4.2 6.8-8.1-5.5 2.6-10.6 4-15.9-.3 1.5-1 2.8-1.8 4-2.7 1.3-.9 2.7-1.7 3.4-3.4-8.9.9-11.3.4-13.9-3zm163.2 116.5c-2.4.1-3.7 1.5-5.1 2.9-.6-.6-.9-1-1.3-1.4-9.2-9.8-18.3-19.7-27.7-29.2-5.4-5.5-11.4-10.4-17.2-15.5-.6-.6-1.4-1-2.2-1.5-.6 2.8-1 5.3-1.5 7.7 1 .8 2 1.6 2.9 2.3 12.2 9.7 24.3 19.6 35.1 30.9 3.8 3.9 7.4 8 10.1 12.8 1 1.7 1.9 3.6 2.5 5.5 1.1 3.6 0 6-3.1 7.8-5.3-1.9-8.9-1.2-10.8 2 1.7-.1 3.5-.5 5.2-.1 2.6.5 5.1.9 7.8-.3-.3 1.3-.6 2.2-.9 3.6 5.2-4 10.6-4.9 16.9-3.5-2.3-2.9-4.5-4.9-7.5-6-2.1-.7-2.8-1.6-3-3.9-.2-2.5.9-4.6 2.3-6.6.6-.9 1.3-1.8 2.1-2.9-3.3 0-4.7 2.3-6.2 4.3-2.4-2.1-1.9-4.9 1.6-8.9zm-148.7-67.9c3.1-4.8 6.4-9.4 6.2-15.7-.7.2-1.2.3-1.6.5-5.3 2.3-10.1 1.1-14-2.6a52.66 52.66 0 0 1-15.1-25.2c-.1-.5-.3-1-.4-1.5-.6.8-.9 1.5-1.1 2.3-.8 3.4-.8 6.8-.2 10.2.9 5.7 3.2 10.9 6.2 15.8 3.8 6.1 8.4 11.6 13.6 16.5 1.2 1.2 2 2.3 2 4.1-.1 2.1.6 2.4 2.6 2 6.9-1.6 13.2-9.5 13.1-17-2.7 4.9-6.2 8.6-11.3 10.6zm-111.8-49.4v3.2c-.3 7-1.9 13.7-5.5 19.8-1 1.7-2.2 3.3-3.8 4.3-3 1.8-5.9 3.7-9 5.4-2.6 1.5-5.4 2.6-8 4.1-7.5 4.5-11.1 11.4-11.5 20-.2 4 .9 7.7 2.2 11.4.9 2.5 1.8 5.1 2.5 7.6.9 3.5.7 6.9-.8 10.2-2.3 5-6.2 6.7-11.4 4.9-2.9-1-5.4-2.6-7.8-4.5-.6-.5-1.2-.9-2.1-1.6.3 1.5.4 2.4.6 3.2 1.4 4.9 4 8.8 9 10.9 4.7 1.9 10.7.2 13.5-4.6-1.4.3-2.8.7-4.3 1-2.4.5-2.6.4-4.5-.1.6-.2 1.1-.3 1.5-.5 3.1-1.1 5.8-2.9 7.5-5.6 3.3-5.3 4.7-10.9 2.2-17.2-2.6-6.5-2.7-13.3-1.5-20.2 1-6 3.9-10.6 9.1-13.8 2-1.2 4.2-2.2 6.2-3.4 3.3-1.9 6.6-3.9 9.9-5.8 1.7-1 2.7-2.5 3.5-4.2 3.6-7.8 3.9-16 2.5-24.5zm133.3-53.1c-3.7-.7-6.8.2-9.9 1.1-2 .5-2.9 1.6-3.3 3.6-2.2 11.5-1.2 22.6 3.6 33.4.4.9.9 1.7 1.2 2.5 3.5-.2 7.5-2.3 10.4-5.6-4.5-11.3-5.1-23-2-35zm27.1 81.5c5-3 9.4-6.5 13.4-10.5 6.8-6.8 9-14.9 7.3-24.1-.6-3.3-1.3-6.5-2.3-9.7-1.8-6-2.4-12.1-1.3-18.3.1-.7.1-1.5.1-2.5-.5.3-.7.4-.9.6-.4.4-.8.8-1.1 1.3-3.9 5-4.5 10.6-3.2 16.6 1 4.5 2.1 9 2.9 13.6 1.2 6.8-.3 12.9-4.9 18.2a61.3 61.3 0 0 1-9.3 8.3c-.4.3-.9.5-1.6.8 1.5-3.8 3-7.3 1.9-11.4-3 5.1-7.6 8-13.5 9.7 4.5 2.5 8.5 4.9 12.5 7.4zm-11.8-50.4l-.4-.4c-.4.4-.8.8-1.2 1.1-3.9 3.6-8 7-12.7 9.4-2.4 1.2-5.1 2.1-7.7 2.9-1.9.6-3.3.1-4.4-1.8-3.9-6.2-6.2-12.9-6.9-20.1-.6-6.6.2-13.1 2.3-19.5.8-2.5 2.3-3.9 4.9-4.4 4.7-1.1 9.5-1.6 14.3-1.2 3.2.2 6.3.7 9.5 1-.9-.8-1.9-1.3-2.9-1.7-8.8-3.3-17.7-2.7-26.6-.1-1 .3-1.4 1-1.6 1.9a67.2 67.2 0 0 0-3.1 24.8c.5 9.2 2.8 18.1 6.4 26.6l1.5 3.6c13.5-2.2 22.6-10.2 28.6-22.1zM31.1 151.5l3.8-3.8c5.4-5.3 11.3-10 18.1-13.5 18.6-9.7 37-9.2 55 1.6.4.2.8.4 1.1.6-3.1-4.9-6.6-9.5-11-13.3-.6-.5-1.6-.9-2.4-1-4.2-.4-8.4-1-12.6-1.1-10.5-.3-20.5 1.6-29.8 6.9-9.5 5.4-16.5 13.3-22.1 22.6 0 .2.1.4-.1 1zm346-49c.3.2.4.4.6.4 9.4 1.6 18.7 3.3 28.1 4.9 1.3.2 2.8.2 4.1-.1 5.9-1.5 11.8-3 17.6-4.7 8-2.5 15.8-5.5 22.9-10.1 2.7-1.8 5.3-3.8 7.2-6.5.5-.7.9-1.6 1.4-2.4-5.3 4.2-11.2 6.9-17.4 8.9-11.9 3.9-24.2 5.4-36.6 6.7-8.7.9-17.5 1.7-26.2 2.5-.6 0-1.1.3-1.7.4zM276.7 372.8c-.5-4.8 0-9.1 1.6-13.2 2.2-5.5 6.2-8.9 12.1-9.6 2.5-.3 5.1 0 8.1 0-3.1-3.2-6.9-3.3-10.9-3.4.8-2.5 2.5-3.8 4.6-4.6 2.5-.9 5-1.2 7.7-1 .5 0 1-.1 1.5-.1-1.1-1.3-2.2-2.2-3.5-2.8-1.4-.6-2.9-.8-4.6-1.3 2.5-3 6.1-2.2 9.3-3-1.9-2.3-4.5-1.9-7-2.3.7-1.2 1.4-2.2 2-3.2 3.6-5.6 6.7-11.5 8.4-18.1.6-2.4 0-4.1-2-5.5-2.1-1.5-4.5-2.4-7.5-3.5 4.2 4.8 3.9 9.8 2.7 14.9-.5 2.1-1.2 4.2-2 6.3-2.9 7.5-7 14.3-11 21.2-1.6 2.7-3.3 5.2-5.3 7.5-6.6 7.3-10.4 16.2-13.6 25.4-1.1 3.2-.5 5.5 1.7 7.7.7.7 1.4 1.4 2.2 1.9.7.5 1.6.6 2.3 1-1.3-3.2-3.5-5.8-3.3-9.5 1.2.9 2.2 1.6 3.6 2.7-.8-3.8-2.7-7-.9-10.6 1.2 1 1.8 2.6 3.8 3.1zm-209.1-127h.4c0-1.2.1-2.5 0-3.7-.3-2.7-2.1-4.5-3.5-6.5-2.4-3.5-5.7-5.2-9.7-6-.6-.1-1.2-.2-1.8-.4v-.5c4.2-.7 8.2-2.2 12.6-1.2 4.2.9 7.8 3.3 11.7 5.7-.1-4-3-5.5-5.6-7.6 1.2.1 1.9.1 2.6.2 3.5.2 7 .6 10.4.7 5.5.2 10.8.8 15.6 3.9.4.3.9.5 1.7.9-1.2-3.3-3.4-5.2-6.4-6.5 2.1-1.7 4-3.3 3.9-6.4-.4.3-.8.5-.9.7-1.7 2.4-4.3 3.4-7 4-4.7 1-9.5.9-14.3.1-3.4-.6-6.7-1.1-10.1-1.3-6.2-.4-12.1.8-17.9 3-2.9 1.1-5.4 3.1-7.3 5.5a7.7 7.7 0 0 0-1.8 5.7c.3 2.1 1.2 2.7 3.1 1.7 3.2-1.6 6.5-2.4 10-2.8 5.9-.7 10.6 1.4 12.9 7.5.4.9.9 2.1 1.4 3.3zm240.5-18c.2 2 .2 3.8.5 5.6.6 4.8 1.4 9.5 3.8 13.8 1.9 3.5 2.3 3.6 6.1 3 .2 0 .5 0 .7-.1 3.9-.8 7.7-1.8 11.4-3.7-4.6-6.9-6.5-14.4-6.4-22.6-5.9-.6-10.8 1.9-16.1 4zm-169.7-99.3c-2.1-2.9-4.2-5.8-6.2-8.8-.8-1.2-1.8-2.1-3.2-2.5-4.2-1.3-8.3-2.8-12.5-4-9.4-2.5-19-3.5-28.7-3.9-2.6-.1-5.2 0-7.8 0 .3.6.5.7.8.8 5.2 1.5 9.9 4 14.4 7 12.3 8.3 22.4 18.8 31.2 30.6.5.6.9 1.4 1.5 1.9 4.7 3.5 13.1 2.2 16.6-2.6-2.9.1-5.9.3-8.9.3-3.5 0-6.5-1.2-8.8-3.9-3.1-3.7-6.3-7.3-9.4-10.9-6.7-7.9-14.3-14.9-23.7-19.6-.2-.1-.5-.3-.7-.5.1-.2.2-.3.2-.5 16.5 1.9 31.8 6.6 45.2 16.6zm75.9-78.1c.1-.2.3-.3.4-.5 2.3 1.1 4.6 2 6.8 3.3 14.4 8.6 21.9 21.7 24.8 37.8.1.6.2 1.2.4 1.7.6-1.4.8-2.7.9-4.1.6-7.2-1.4-13.8-5.1-19.9-3.6-6-8.4-10.9-13.7-15.4l-1.6-1.6c3.4.3 6.3.8 9 2.1 2.6 1.3 5.2 2.8 8 4.3-8.1-10.9-28.4-16.8-37.7-11 3.4 1.8 5.5 4.8 7.3 8 2.3 4.3 4.4 8.7 6.5 13.1.3.6.6 1.2 1 1.9.7-.3 1.1-.4 1.6-.6s.9-.6 1.5-.9c-2.4-6.9-5.8-12.8-10.1-18.2zm-40.1 216.8c-3.8-.3-6.9 1.1-9.2 4.3-2.5 3.5-3.1 7.3-1.6 11.3 1 2.6 2.1 5.1 3.3 7.6 2.7 5.8 3.3 11.8 2.1 18.1-.7 3.4-1.6 6.6-4 9.3a47.9 47.9 0 0 1-24.1 14.8l-2.2.6c.6.4 1.1.5 1.6.5 3.2-.2 6.3-.3 9.5-.8 7-1.2 13.3-3.9 18.7-8.7 3.3-2.9 4.8-6.4 5-10.7.3-5.2.1-10.4-.7-15.6-.3-1.8-.7-3.7-1.4-5.4-1.6-3.6-3-7.2-3.5-11.1-.9-6.4 1-10.6 6.5-14.2zM383 230.8c6.7-2.5 12.9-4.7 19-7.2 9.5-3.9 18.6-8.5 26.8-14.8 4.7-3.6 8.9-7.7 11.8-12.9 3.8-6.9 4.3-13.9.6-21-.3-.5-.7-1-1-1.5-.1.7.1 1.3.3 1.9 1.5 4.6 1.3 9.1-.4 13.6-1.4 3.8-3.8 7-6.5 9.9-4.3 4.5-9.4 8-14.8 11-10.1 5.7-20.9 9.7-31.9 13.1-.8.3-1.7.5-2.5.8-.4 2.5-.8 4.5-1.4 7.1zm9.3-25.6c.1.2.3.4.4.5 2.5-.7 5-1.4 7.4-2.1 6.9-2.1 13.6-4.9 19.7-8.9 4-2.6 7.5-5.6 10.1-9.7 2.1-3.3 3.2-6.9 2.9-10.9-.7-8.5-5.6-14.8-11.2-21-1.2 2.3-1.6 4 .1 6.2 1.8 2.4 3.2 5.3 4.2 8.2 2.7 7.8 1.1 14.7-5 20.4-2.9 2.7-6.1 4.9-9.8 6.3-4.4 1.8-9 3.2-13.5 4.8-.7.3-1.6.6-2 1.1-1.2 1.7-2.2 3.5-3.3 5.1zm-29.2 35.7c.1-.6.1-.7.1-.9-1.4-7.5-1.5-15-.7-22.6.2-1.7-.2-2.7-1.4-3.8-4.5-4.2-9.4-7.7-15.1-10.1-8.8-3.8-17.7-4.5-26.9-1.8-.8.2-1.8.7-2.2 1.3-2.1 3.1-4.1 6.2-6.1 9.4-.6 1-.9 2.2-1.5 3.5 1-.1 1.5-.2 2-.1 1.7.2 2.3-.8 2.9-2.2.8-2 2-3.9 3.1-5.7.7-1.1 1.8-1.6 3-1.8 13-2.3 24.8.3 35.7 7.8 1.5 1.1 2.1 2.2 1.8 4-.8 5-.3 9.9 1 14.7 1 2.9 2.1 5.7 4.3 8.3zM81.5 195.4l-1.3.3c-2.1.4-4.1.9-6.2 1-5.7.2-10.1-2.1-12.9-7.1-1.1-2-1.9-4.1-2.4-6.3-2.1-9.2-1-18.2 1.8-27.1 1.1-3.4 2.7-6.5 4.6-9.5-.4.1-.8.3-1.1.5-10.5 8.3-15.3 18.9-12.9 32.3.9 5.1 2.7 9.9 6.1 13.9 2.2 2.7 4.9 4.5 8.3 5.3 5.6 1.4 11-.3 16-3.3zm57.7 99.7c-1-2.6-2.9-4.2-5.5-4.5-5.2-.6-10.2 0-14.4 3.7-6.1 5.4-13.3 9-20.9 11.7-.5.2-.9.4-1.4.6 0 .2.1.4.1.6 3.3-.4 6.7-.4 9.8-1.3 3.1-.9 5.9-2.8 8.9-4.3.2 1.7-.5 3-1.3 4.4a12.3 12.3 0 0 1-6.5 5.6c-3.9 1.6-7.9 2.9-11.8 4.5-3.3 1.3-6.6 2.8-9.8 4.3-3.1 1.5-5.1 4.2-6.2 7.5s-1.5 6.8-1.6 10.3c0 .6.1 1.1.2 1.7.5-1 .6-1.9.9-2.8.9-2.9 1.8-5.9 2.8-8.8 1.2-3.2 3.4-5.5 6.5-6.9 2.2-1 4.4-2 6.7-2.8 4.4-1.6 8.9-3.1 13.4-4.5 4.2-1.3 7.1-3.8 8.7-7.9.6-1.6 1.5-3.1 2.3-4.6 1.9-3.5 5-5.3 8.8-6 1.8-.3 3.6-.2 4.9 1.6-.6.7-1.2 1.3-1.8 2-.6.6-1.1 1.2-2 2.1 3.6-.8 6.6-2.8 9.2-6.2zm189.3-76.6c-.4-.3-.5-.5-.7-.6-8.4-1.9-16.3-.5-23.6 4-.9.6-1.2 1.4-1.4 2.4-.7 5.7-.6 11.3.5 17 1.2 6.2 3.5 12 7.1 17.2 1.1 1.6 2.3 2.1 4.3 1.7 5-1 10-2.3 14.6-4.4 4.5-2.1 8.5-4.7 11.7-8.5.5-.6 1-1.3 1.6-2.3-.6.1-.8.1-.9.2-7.3 4.6-15.4 7.3-23.8 9-5.2 1-4.4 2.2-7.7-3.6-4-7-4.7-14.7-4-22.7.3-3.4 2.1-5.1 4.9-6.3.9-.4 1.8-.8 2.7-1 2.4-.5 4.7-1.1 7.2-1.5 2.5-.2 4.9-.3 7.5-.6zM131.1 112.8c.8.9 1.3 1.5 1.8 2 3.2 3.6 6.5 7.1 9.5 10.8 3 3.7 5.7 7.7 7.5 12.2 1 2.5 1.7 5.1 1.5 7.8-.2 3-1.3 4.2-4.2 4.5 1.4 2.2 3.1 3.3 4.8 3 2.1-.3 2.8-2 3.3-3.8 1.4-4.8 1.2-9.5-.4-14.1-1.8-5.2-4.8-9.7-8.5-13.8-.7-.8-1.4-1.6-2.1-2.5 1 0 1.9.2 2.6.6 1.8 1.2 3.6 2.5 5.4 3.8 1.5 1.1 2.9 2.3 4.5 3.3 1 .6 2.1 1.2 3.4.6-.6-1.6-1.1-3.1-1.7-4.6-.1-.1-.2-.3-.3-.4-1-.5-2.1-1-3.1-1.5-.8-.4-1.5-.9-2.3-1.4-6.3-4.1-13.7-5.6-21.7-6.5zm291.7-58.7c-.2-.2-.5-.4-.7-.6-.5.7-1 1.5-1.6 2.2-8.3 8.4-17.1 16.2-26.6 23.3-7.6 5.7-15.6 10.9-24.4 14.7-.6.3-1.3.6-2.3 1.1 1.1 0 1.7.1 2.2 0 5.9-.8 11.7-1.7 17.6-2.5 1.3-.2 2.3-.6 3.3-1.5 1.7-1.5 3.5-2.9 5.2-4.4 10-8.8 18.9-18.5 26-29.9.5-.9.9-1.6 1.3-2.4zM276.9 225.6c-5.3-12.8-5.6-14.1-4.6-20.6-.8-.3-1.6-.7-2.4-.8-4.3-1-8.5-2.1-12.8-2.7-7.7-1.1-15.4-.7-22.9 1.4-.8.2-1.8.5-2.4 1.1-2.5 2.4-3.8 5.5-4.4 8.7 2.9-.2 5.7-.6 8.4-.7 2.8 0 5.6.3 8.6.4l-5-5.3c10.2-3.4 19.7-2.9 29.2 1.1 0 3.5-.2 6.9 1.2 10 1.4 3.2 3.5 5.7 7.1 7.4zm-85-5.3c.5 0 .7 0 .8-.1.9-.4 1.8-.8 2.7-1.1 9.5-3.8 18.8-8.2 29.5-7.9.8-1.8 1.6-3.6 2.4-5.6-4.6-1-8.9-.5-13.1.2-6.5 1.1-12.9 2.6-19.5 2.7-4.5.1-7.3 5-5 8.9.6 1.1 1.5 2 2.2 2.9zm152.3-35.8c-5.9-.5-11.2-1.1-16.6-1.3-8-.3-15.5 1.5-22.4 5.7-1.1.7-1.7 1.5-2 2.8-.7 2.8-1.8 5.5-2.7 8.3-.2.6-.5 1.2-.6 1.5 1.3 1.8 2.4 3.4 3.6 5.2.6-1.6 1.1-3 1.6-4.4 1.5-4.6 4.6-7.8 8.9-9.8 1.3-.6 2.7-1.1 4.1-1.6 4.9-1.5 9.9-1.8 14.9-2.1 1.5-.1 3-.5 4.4-1.1 2.2-.8 4.2-1.9 6.8-3.2zm48.4-112.2l-.3-.3c-.5.3-.9.5-1.4.8-12 8.1-25 14.1-39.1 17.7-5.7 1.5-11.5 3.1-16.7 6-2.6 1.4-5.1 2.9-7.2 5 .9 0 1.7-.2 2.5-.4 5.8-1.7 11.6-3.2 17.6-3.7 4.8-.4 9.2-1.6 13.6-3.6 10.8-4.8 20.7-11 29.1-19.4.7-.7 1.3-1.4 1.9-2.1zm-179.5 84.3c-.5.6-1 1.2-1.6 1.8-3.2 3.5-6.6 6.8-10.9 8.8-.7.3-1.4.7-2 .7-2.4-.2-4.6-3.9-3.7-6.2.5-1.3.7-2.5.4-3.8-2.2 2.1-4.2 4.1-6.4 6.3.5.3 1.1.7 1.7 1.1.3.2.9.5.9.7.2 2.3 2 2.4 3.6 2.7.8 4 1.2 4.3 4.2 2.9.1 0 .3.1.5.1.1 2.2.5 4.3 2.9 5.3-.4 1.9-1.1 3.7-.2 5.8 5.8-.2 11.5-.4 17.3-.7 2.3-.1 5.2-3.4 5.5-6-1.3.5-2.5 1-3.7 1.4-3.4 1.2-6.9 2.2-10.5 1.9-2.5-.2-2.9.1-3.4-3 3-2.2 6-4.3 8.8-6.5 2.9-2.3 5.3-4.9 6.5-8.5-1.1.7-2 1.6-2.9 2.5-2.9 2.7-6 5.3-9.6 7-1.4.7-3 1.2-4.6 1.6-1.8.4-2.1.2-2.9-1.4-.2-.4-.3-.9-.6-1.4 4.9-3.4 8.8-7.4 10.7-13.1zm52 106.2c-2.7 3.3-5.4 6.7-8.1 10-3.5 4.2-7.2 8.2-11.7 11.3-2.8 1.9-5.3 1.8-8-.3-2-1.5-3.3-3.6-4.3-5.8-.3-.7-.7-1.4-1.1-2.3-1.2.4-2.2.8-3.2 1.2 1.7 5.1 5.1 10.1 8.9 13.2 1.9 1.6 4 2.8 6.4 3.5 1 .3 1.8.2 2.6-.5 6-5.4 11-11.5 14.7-18.7 1.5-3.7 3.1-7.5 3.8-11.6zm88.4-106.2c.5.1.9.1 1.2.1 5.8.6 11.7.9 17.4 1.8 7.2 1.2 14.3 2.9 21.5 4.3.7.1 1.6.3 2.1 0 1.9-1.2 3.7-2.5 5.6-3.9-5-4-36.8-7.3-46.4-7.5-.4 1.7-.8 3.3-1.4 5.2zm14.8 181.5c-2.5-3.7-2-7.5-.2-11.2 1-2 2-4.1 3.4-5.9 2.7-3.8 5.6-7.4 8.4-11.1 2.2-3 4.5-6 6.6-9.1 2.8-4.2 3.5-9 3.3-14-.2-4.1-2.5-6.8-6.2-8.2-.5-.2-1-.2-1.6-.2 0 .3 0 .4.1.4.3.4.5.8.8 1.2 2.4 3.6 3.5 7.5 2.4 11.8-.6 2.4-1.5 4.8-2.7 7-1.7 3-3.7 5.9-5.8 8.7-2.9 3.8-6 7.5-8.8 11.4-1.6 2.1-3 4.5-4.1 6.9-2.4 4.7-1.4 9.5 4.4 12.3zM77 147.1c3.4 3.3 3.6 7.2 3.1 11.1-.2 1.4-.8 2.5-2.2 3.2-3.1 1.7-5.7 4.1-7.3 7.3-.7 1.4-1.4 2.9-1.2 5 .7-1 1.1-1.6 1.7-2.2 1.8-1.9 3.5-3.9 5.5-5.5 2.3-1.8 4.9-2.4 7.8-1.2.4.2 1 .3 1.4.2 2.9-1 5.8-1.9 8.7-3.2 1.6-.7 1.6-1.3.8-3-2.1-4.7-5.5-8.2-10.2-10.4-2.4-.9-4.9-1.7-8.1-1.3zm321.2 264.6c-.8-.8-1.2-1.5-1.8-1.7-1.7-.6-2-1.9-2.2-3.4-.5-3.5-2.4-5.9-5.6-7.4-2.1-1-4.2-2.1-6.3-3.2-9.8-5.3-18.4-12.1-26.8-19.4-2.2-2-4.5-3.9-6.7-5.9 1 1.9 2.4 3.4 3.8 5 6.7 7.2 14.4 13.1 22.2 19 3.9 3 7.7 6 11.4 9.1 1.2 1 2.2 2.2 3.1 3.5 1.2 1.8.9 2.4-.9 3.6-1.3.9-2.4 2.1-3.6 3.2-.1.1-.1.5-.1.8.5.4 1.1.8 1.6 1.2-1.2 7-1.1 7.3 1 8.8.7-1.9 1.2-3.9 2-5.7 1.7-3.9 3.8-7.2 8.9-7.5zM407 146c-16.8-3.3-33.5-5-50.3-5.9v4.3c7.9.7 15.9 1.2 23.9 2.2s16 2.4 24.1 3.7c.6-1.3 1.4-2.6 2.3-4.3zM270.3 305.5c-.3 3.2-.4 5.8-.7 8.3-.5 4.1-1.3 8.2-3.2 12-.5 1-1.2 1.8-1.7 2.7-.4-2.2-.1-4.2-1-5.9-2.2 1.7-4.3 3.4-6.5 4.8-2.3 1.4-4.7 2.4-7.3 3.6 2.1 3.2 4.6 5.6 8 7.3.9.4 1.7.1 2.5-.4 5.2-3.1 8.8-7.3 10.7-13.1 1.4-4.3 1.4-8.6.9-13-.4-2-.6-4-1.7-6.3zM130 174.7c-.8.3-1.3.4-1.7.7a39.91 39.91 0 0 0-17.3 22.5c-.6 2-1.5 3.6-3.6 4.5-2.6 1.1-3.2 3.4-1.6 5.6 1.1-3 1.1-3 3-3.5-.1 1.2-.1 2.4-.2 3.5.2 0 .4.1.7.1.6-1.8 1.3-3.6 1.9-5.4 4.8 2.1 8.3 2.7 10.9 1.6-.8-.3-1.6-.5-2.3-.8-.7-.3-1.4-.8-1.9-1.1.3-8.8 5-20.1 8.6-21.3.1 1.8.1 3.6.3 5.3.2 1.7.6 3.4 1.7 4.9-1-5.6.3-11 1.5-16.6zm140.5-77.3c0-.4.1-.8.1-1.2-.3-9.4-2.2-18.4-6.7-26.7-3.5-6.5-8.4-11.5-15.2-14.6-.7-.3-1.5-.5-2.2-.8 6.8 9.6 10 20.4 12 31.7 1.6-7.3-.1-14.2-2.6-21.1 1 .8 1.9 1.7 2.5 2.7 5.9 9.1 8.6 19.7 12.1 30zm-146.3 54.9c-3.3 0-6.5.1-9.6.1-2.2 0-4.2-.7-6.1-2.1-4.4-3.3-9-6.1-14-8.4-5.1-2.4-10.4-4.1-16.1-4.5-2.1-.2-3.9 0-5.9.9 1 .2 1.8.3 2.5.5.8.1 1.6.3 2.4.4 11.4 2.3 21.2 7.2 28.1 16.9.6.9 1.5 1.2 2.5 1.2 3.1.1 6.2-.1 9.2-1 2.6-.9 5-2 7-4zm127.7 155.6c-1.2 5.4-1.6 10.7-5.7 14.6-1.6-1.7-1.1-3.8-1.8-5.6l-4.4 6.5c-2.6 3.8-6.4 5.1-10.8 4.8-.8 0-1.6-.2-2.4-.3-.6-.1-1.2-.1-1.8-.1 4.6 3.6 9.7 5.6 15.4 5.6.7 0 1.4-.4 2-.8 6.3-3.9 9.5-9.6 10.3-16.8.3-2.6.4-5.1-.8-7.9zm77.5 1.1c-4.3 3-8.6 5.9-11.6 10.1a31 31 0 0 0-5.8 14c.7-.6 1.1-1.3 1.5-2 2.1-3.2 4-6.5 6.5-9.4 3.4-4.1 7.9-6.6 13.3-7.6.5-.1 1.1-.2 1.7-.3.5-4.1-1.2-7.2-3.8-10-1.7-1.8-3.6-3.5-5.5-5.2-4.2-3.6-8.2-7.4-11.1-12.3-.1-.2-.3-.2-.7-.5.2.8.2 1.3.4 1.9.9 2.8 2.4 5.3 4.5 7.5 1.6 1.7 3.3 3.4 4.9 5.1 2.3 2.4 4.3 5.1 5.7 8.7zm59.9-56.6c2.7 1 5.5 1.9 8.2 3 2.4 1 4.7 2.3 6.9 3.6 1.2.7 1.4 1.7 1.2 3.1-.7 4.8-1.3 9.7-1.9 14.5-.7 6.3-1.2 12.6-1.8 18.9-.2 2.7-.3 5.3-.5 8 .6-2.2 1-4.4 1.3-6.6 1.7-9.9 3.5-19.8 6.4-29.5 1-3.3 2.3-6.6 3.5-9.9-3.8-3.1-15.8-5.3-23.3-5.1zm6.8 170.3c.5 0 .7.1.8 0 4.2-1.8 6.1.5 7 3.5.2.5.4 1.1.5 1.6.7 3.9 1.1 7.7.7 11.6-.2 2.3-.3 4.6-.4 7.3.5-.6.7-.8.9-1.1 3.9-6.3 5.3-13.2 4.5-20.5-.5-4.4-2.6-7.8-6.4-10.1-1.6-1-3.1-.8-4.6.1-2.9 1.9-3.4 4.6-3 7.6zM130 219.4c.1 0 .2.1.3.1.5-1.4 1.1-2.8 1.5-4.3.6-2.4.7-4.7-1.4-6.7-2.6-2.5-7.3-3.4-10.6-1.9-3.4 1.5-5.9 4-7.8 7.1a9.09 9.09 0 0 0-1 7.2c.4 1.6 1.3 2.8 2.9 3.3 3.3 1 6.6.9 10.3-.4-2-.3-3.5-.5-5-.8-1.8-.4-1.9-.7-2-2.5-.2-3.8 1.9-6.3 4.6-8.3 1.4-1.1 3-2 4.9-1.9 2.2.1 2.6.2 2.9 2.4.2 2.2.2 4.4.4 6.7zm164.1 188.9c-1.5-.3-2.4-.4-3.3-.6-1.5-.4-3-.8-4.3-1.5-2.4-1.2-3.9-3.1-3.6-6.1.4-3.2.7-6.4 1.2-9.7.3-2.2.8-4.3 1.1-6.5.5-4.1-1.7-6.7-5.7-6.9 2.5 1.8 2.2 4 1.2 6.4-.7 1.6-1.3 3.3-1.9 5-1.3 4.1-1.9 8.2-1.4 12.5.5 4.1 3.2 7.2 7.1 8 3 .9 6 .6 9.6-.6zM148.8 208c6.6-4 16.8-22.1 15.9-28.3-8.3 9.3-17.3 17.8-26.9 25.4 1 3.6 4.2 6.9 8.5 8.6-.7-.8-1.2-1.3-1.7-1.9a9.62 9.62 0 0 1-2.5-6.7c0-.9.2-1.6.9-2.1 2.4-1.8 4.7-3.8 7.1-5.6.9-.6 2-1 3.2-1.5.4 4.9-2.6 8.1-4.5 12.1zm140.4 177c3 1.9 4.2 4.5 4.8 7.4.5 2.5.8 5 1.4 7.4.7 2.8 1.4 5.5 2.3 8.2.5 1.4 1.5 2.1 3.1 2.2 5.7.5 10.3-1.9 13.1-7 .3-.6.5-1.2.9-2.1-7.6 5-9.3 5.6-12.7 4.8 1.5-.9 3.3-1.4 4-3.4-2.2-.1-3.3-1.5-4.2-3.1-1.5-2.7-2.9-5.5-4.5-8.1a36.8 36.8 0 0 0-3.7-5.1c-1-1.3-2.4-1.9-4.5-1.2zm20.4-97.6c.2-.1.4-.1.6-.2-1.1-3-2-6.1-3.2-9.1-2.1-5.6-4.6-11.1-8.4-15.9-2.4-3.1-5.4-5.7-9.1-7.2-.5-.2-1-.3-1.3-.4.3 3.6.6 7 .9 10.7-.1-.1-.1 0 0 0 .7.4 1.4.7 2.2 1.1 5.5 2.5 9.8 6.3 12.8 11.6l3.3 6c.9 1 1.6 2.2 2.2 3.4zM279.1 299c3.7 1.9 7.5 2.1 11.4 1.6.5-.1 1.2-.6 1.5-1.1 5.2-7.6 6.6-15.7 3-24.4-.1-.4-.5-.6-.9-1.2-.1 5.5.5 10.8-2.4 15.7-1.1-.9-2-1.6-3.1-2.5-.5 2.8-1.5 5.1-3.4 6.8-1.9 1.9-3.9 3.4-6.1 5.1zm4.1-120.6c3-4.9 5-9.9 5.9-15.4-7.5-2.9-21-3.1-26.2 1.5-.5 5.6-.2 11 .5 12.2.9-3.2 1.7-6.5 2.7-9.8.2-.7.7-1.7 1.3-1.9 4-1.7 8.1-2.4 12.3-.8 1.3.5 1.9 1.4 2.1 2.7.4 3.6.9 7.3 1.4 11.5zm18.2 35.6c-.8-3.7-1.5-7-5.1-8.6-.9-.4-1.7-1-2.7-1.2-2.7-.4-4.1-2.3-5.2-4.6-.6-1.4-1.3-2.8-1.9-4.2-.2-.4-.4-.9-.9-1.7-1.8 5.9 1.2 9.8 4.3 13.8-2.2 1.4-4.3 2.7-6.4 4 1.6 1.3 3.2 2.4 4.5 3.8 1.4 1.4 2.4 3 3.9 4.9v-3.6c0-1.5.4-2.9 1.3-4.1 1.4-1.8 2.6-2.1 4.6-1 1.2.7 2.2 1.6 3.6 2.5zm-121.1-83.8c.4-1.6 1-2.9-.4-4.1-5-4.3-10.5-7.7-17-9.2-.8-.2-1.7-.2-3.1-.4 3.3 4.3 5.6 8.5 7.2 13 1.6 4.4 2.5 9.1 3.4 13.7 1.9-7.7.1-14.9-2.8-22 3.8 2.3 5.7 6 7.5 10.4.9-1.9 1.5-3.2 2.2-4.8 1.1 1.2 1.9 2.2 3 3.4zm53-19.1c.1-.7.1-1.2.1-1.8.3-2 .6-2.3 2.5-2.6 2.7-.4 4.8.6 6.3 2.8.4.6.6 1.3 1.6 1.3 3.3 0 6.5-.6 9.2-2.6 1.1-.8 1.9-1.8 2.2-3.4-5.3 2.4-5.9 2.5-8 1.2.9-2.7 3.1-5.3 0-8.3-.9 3-1.4 6-4.6 7.3-.6-.9-1.1-1.7-1.7-2.5-1-1.4-2.2-2.6-3.9-3.2-1.8-.6-3.4-.1-4.4 1.5-1.7 3-1.4 7.2.7 10.3zM110.4 239.9c1.4.5 2.4.7 3.2 1.2 1.6 1.1 3.3 2.2 4.5 3.7 2.6 3.2 5 6.6 7.4 9.9.4.5.7 1.1 1.1 1.6-.2-5.1-2.2-9.4-5.6-12.9-5.7-6.1-13-8.9-21-10.4-.1 0-.2.1-.5.2 6.8 4.7 9.1 11.9 11.2 19.4 1.6-4.1 1.6-8.2-.3-12.7zm170 64.3c-.4 4.2-.7 8-1 11.9-.1 1.1.5 1.6 1.2 2.2 3 2.2 5.6 4.7 7.8 7.7.2.3.5.5.8.7 1-1.6 1.8-3.1 2.7-4.6-4.6-4.6-5.3-10.7-6.5-16.7-.7-.2-1.3-.4-1.9-.6-.9-.2-1.9-.3-3.1-.6zm57.9 142.4c-5.1-8.5-2-24 8-29.5-4.2.2-7.8 1.2-10.9 4-2.4 2.2-3.9 4.5-4.2 7.8-.3 4.8-.1 9.4 2.4 13.7 1 1.6 2.2 3.1 4.7 4zm32.9-90.7l.6-2.4c1.6-5.1 3.3-10.2 4.9-15.3.2-.6.5-1.3.4-1.9-.3-2.8-4.2-5.3-7.2-4.7 2.4 2.5 2.4 5.5 1.8 8.5-.7 3.7-1.7 7.3-2.4 10.9-.4 2.3-.8 4.7-.8 7 0 2.8 1.5 4.2 4.3 4.6.1-1.8.2-3.6 2.1-4.6 1.8-.9 3.4.4 5.1.8-.7-4-2.7-4.6-8.8-2.9zm-91.3-168.8c-.4-.3-.9-.7-1.4-1-6-3.7-12.4-5.1-19.4-4.1-1.2.2-2.1.7-2.8 1.7-2.2 3.3-4.6 6.5-6.8 9.8-.2.3-.4.8-.5 1.1 5.9-4.1 12.1-6.3 19.6-4.8-2.5-3.3-5.9-3-9.4-3.5.9-.3 1.5-.6 2-.6 1.4-.2 2.7-.3 4.1-.4 5-.1 9.8.9 14.6 1.8zm-114.4 38.8c-2.9-.6-5.5.1-8 1.5-3.8 2.2-5.2 5.8-6.1 10.3-1.4-2.2-2.2-4.3-4.2-5.3-.1.2-.2.3-.2.4.3.7.5 1.4.8 2 2 4.8 3.9 9.7 4.6 14.9.3 2.3.1 2.7-2.1 3.3-.8.2-1.6.3-2.4.5-.4.1-.8.3-1.7.6 3.8 1.3 7.1 1.7 10.7 1.1-.6-1.7-1.2-3.1-1.6-4.5-1.4-5.9-.9-11.8.9-17.6 1-3.3 3.5-5.4 6.8-6.5.8-.3 1.7-.5 2.5-.7zm248.4 114.4c-2.8-.6-4.9-2.1-5.8-4.9-.4-1.3-.7-2.7-1-4-.2-.8-.3-1.7-.4-2.6-2.5 1.7-3.6 4.4-3.7 8.6 4.2 2.4 4.7 6.2 4 10.5-.3 1.8-1 3.6-1.6 5.4-.2.7-.4 1.3-.7 2.1 5.2-1.9 9.7-8.5 9.2-15.1zm-53.2 103.9c-.5-1.4-.8-2.3-1-3.2-1.4-5.3-1.4-10.6 1-15.7 1.9-4.1 4.4-5.3 8.8-4.4.1 0 .3 0 .5-.1-1.4-2.8-4-4.1-6.7-3.1-1.1.4-2.3.9-3.3 1.5-3.4 2.3-5.8 5.5-5.8 9.6-.1 4.1 1 8.2 3 11.9a9 9 0 0 0 3.5 3.5zm17.8-111.3c3.6 2.9 3.7 7 4.2 10.9.3 2.2.3 4.5.6 6.8.3 2.7.9 5.3 2.2 7.6.5.8.8 1.7 1.9 2.1 1.2-2.8 3.2-4.5 6-5.1.3-1.4-.5-1.7-1.4-1.7-.8 0-1.6.1-2.4.2s-1.5.3-2.6.6c0-3.7.1-7 0-10.3-.1-2.8-.5-5.7-1.8-8.2-1.3-2.7-3.3-3.5-6.7-2.9zm15.7-46.1c.2-.1.4-.1.5-.2.2-.2.3-.3.5-.6 1.7-3.1.9-6.1-.3-9.1-1.2-2.8-3.3-3.9-6.1-4-1.1-.1-2.3-.1-3.4-.2-5.8-.3-11.5-.5-17.3-.8-1.5-.1-3-.4-4.4-.6.6.9 1.4 1.5 2.2 1.9 2.7 1.3 5.5 1.9 8.5 2.1 2.9.2 5.8.3 8.8.5 6.2.4 9.3 3 10.7 9.1 0 .7.1 1.3.3 1.9zm-82.4 99.3c-4.2-2.9-5.6-3-7.6-.2 2.9 1 5.6 2.3 6.9 5.5 4.1-2.8 7.1-6.1 8.6-10.7-2.6-2.3-4.4-5.1-6-8-1.6-3-3-6.1-4.5-9.2-.2-.4-.5-.8-.8-1.2-.1 1.5 0 2.9.3 4.2.9 4.4 2.2 8.7 5.3 12.1 1.1 1.1 1.2 2.2.8 3.5-.4 1.7-1.3 3.1-3 4zm-42.1-220c-.6 3.5-1.2 6.9-1.7 10.2 3.8-.5 7.5-.9 11.2-1.4 1.1-2.8 1.3-5.7.9-8.8-3.6-1.1-6.9-1.7-10.4 0zm100.8 89.1c-.1-.1-.2-.1-.3-.2-.6.6-1.2 1.2-1.9 1.8-3.5 3.2-7.1 6.4-10.7 9.6-1.7 1.5-3.8 2.6-6.1 2.8-3 .3-6 .5-8.9.7-.7.1-1.5.1-2.2.1 4.3 2.3 8.8 3.5 13.6 3.5 1.2 0 2.2-.3 3.1-1.1 5.6-4.4 9.9-9.8 13-16.1.1-.4.2-.7.4-1.1zM111 281.1c8.1-.1 15.2-9.2 14.6-18.7-1.2 2.6-2.4 5.2-3.7 7.7-1.3 2.5-3 4.8-5.9 6.6l.4-2.3c.4-2.2.8-4.3.2-6.5-.7-2.9-2.8-4.7-5.7-4.7 2.4 6 2.3 11.9.1 17.9zm17 .2c2.2-.5 3.6-1.5 4.9-2.7 2.2-2.1 3.8-4.7 4.6-7.6.6-2.2 1.9-2.9 3.9-2.8 1.8.1 3.7.5 5.5.7.5.1 1 .2 1.7.4-2.5-3.8-7.9-5.5-13-4.1-1.9 6.9-2.6 8.1-5.5 9.5-.7-2-.8-4.2-2.6-5.8-.3 1.3-.7 2.6-.4 3.7.8 2.8 1.5 5.5.9 8.7zm138.7-130.2h5.2c1.7 0 3.4-.1 5.1-.3 1.4-.2 2.1.5 2.7 1.6.7 1.5 1.3 3.1 2 4.8 1.3-1.9 1-3.8 1.2-5.6 4.5-1.9 6.5-3.5 7.6-6.1-1.9.7-3.8 1.6-5.8 2.1-5.8 1.6-11.8 1.3-17.7.3-2.2-.4-3.5.5-5 1.8 2.8 2.8 3.9 6.4 5.2 10.1 1.8-3.3-.3-5.9-.5-8.7zM68.5 189.3c-2-2.5-3.8-5.1-4.5-8.3-1.2-4.7-.8-9.4.7-13.9 1.3-4 3.3-7.7 6.2-11.4-.7.2-1 .3-1.3.4-4.2 1.9-7 5.2-8.5 9.6-1.4 4.2-1.4 8.5-.9 12.8.3 2.5 1.2 4.9 2.8 7 1.4 1.8 3 3.3 5.5 3.8zm180.8 88.1c-1.5-2.4-2.9-4.6-4.3-7-3 1.6-6 3.1-9.1 4.7 1 3.1 2.5 5.4 5 7.1 1.1.7 2 .8 3.1.1 2.1-1.5 4-3.1 5.3-4.9zm101-19.2c-9.5 4.5-19.3 7.2-30 4.4.6.8 1.2 1.4 1.9 1.8 2.2 1.1 4.4 2.1 6.6 3.1 3.3 1.5 6.4 1.2 9.6-.4 4.5-2.4 8.6-5 11.9-8.9zM182.2 123.4l-.5.5c2.8 7.4 4.6 15.1 5.5 23 1.4-5.2.5-10.6.9-16 3.1 1 4.5 3.6 6.4 5.8 1.4-4.2 1.1-5.5-2.2-7.6-3.2-2.1-6.7-3.8-10.1-5.7zm14.8 4c3.6 7.9 2.8 16 1.4 24.1 2.8-4.5 4-9.6 4.9-15 2.9 1.9 3.6 5 5.3 7.3 1.4-2.9.6-5.2-1.2-7.5a31 31 0 0 0-10.4-8.9zm-103.6 135c.6.1.7.2.7.2 3.4-1.6 3.9-1.4 5 2.1.7 2 1.3 2.5 3.5 2.7 2.1.1 4.2.2 6.3.2.4 0 .8-.1 1.8-.2-2.6-2.5-5.5-2.7-8.5-2.8 4.6-4.4 6.5-8.5 5-11.2-.6 1.1-1.2 2.2-1.9 3.2-1.4 1.9-2.3 2.1-4.5 1.1s-3.5-.9-5.2 1c-.7.9-1.3 2.3-2.2 3.7zm214.8 62c4.4-4.9 7.7-10.1 9.5-16.1.2-.7 0-1.6-.3-2.3-1.7-2.8-7.4-5.4-10.9-5.1.1.1.1.3.2.4 4.6 3.6 5.6 8.4 4.4 13.8-.7 3-1.8 5.9-2.9 9.3zm-7.3 95.7c-4.7-.1-9.2-.1-12.1-4.7.8-1.1 1.5-2 2.4-3.2-3.6.7-6.7-.3-10.2-1.2 1.8 5.4 4.4 9.6 9.6 11.3 3.7 1.1 7.3.6 10.3-2.2zm-1.5-182.5l-4.8 15.6c2.4 1.8 4.6 3.6 7.2 5.4-.1-7.4-.2-14.2-2.4-21zm77 122.8c-1.9 2.7-2.7 5.2-1.4 7.7 1.3 2.4 3 4.6 4.7 6.8 1.3 1.6 3.1 2.6 5.2 3 2.4.5 4.2-.6 5.1-3.3-3.8 1.5-6.2-.5-8.1-3.3-1.4-2.1-2.6-4.5-3.8-6.8l-1.7-4.1zm-91.6-229c-1.8 1.2-3.5 2.2-5.1 3.2-2.1 1.4-4.4 1.6-6.8 1.3-3.9-.3-7.7-.8-11.3-2.7-.6.9-1.2 1.6-1.7 2.3 2 3.2 3.9 6.2 5.8 9.3.1-.1.2-.1.4-.2-.6-2.3-1.2-4.6-1.9-7 3.6.6 7 .8 10.4.1.6-.1 1.3.1 1.9.4 1.4.8 2.6.5 3.8-.5 1-.9 2.2-1.7 3.1-2.7.8-.8 1.6-1.9 1.4-3.5zm2.6 242c-.8-7.1 3.8-9.1 9.5-10.1-2.7-2.3-5.2-3.3-7.8-3.1-3.9.3-6.8 4-5.8 7.7.6 2.3 2 4.1 4.1 5.5zm36.3 38.7c-2.9 1.3-5.8 2.1-9 2-3.4 0-3.9-.4-4.2-3.1-2.4.8-4.9 1.7-7.6 2.7 3.7 3.2 7.8 5.6 13.1 4.6 3.6-.7 6.4-2.6 7.7-6.2zm-55.6-23.4c-.1.1-.2.2-.2.3-.5 4.4-.1 8.8 1.8 12.8.9 1.8 2.2 3.2 4.1 3.9 1 .4 2.2.9 3.3-.3-3.1-3.7-4.8-8-3.8-12.7-1.8-1.3-3.5-2.7-5.2-4zm62.5-180.9c-3.2-.6-6.2-.5-9.1-.2-.5.1-1.1.4-1.4.8-1.3 1.8-2.3 3.8-3.2 6 3.8.1 7.3.3 10.9.4.9-2.3 1.8-4.6 2.8-7zm-60.1-101.3c-1.3 1.1-2.5 2.2-3.7 3.3-2.3 2-4.8 3.8-7.9 4.6-2.1.5-4 .2-5.7-1.2-.3-.2-.6-.5-.9-.7-1.3 4.1 1.4 6.9 6.9 9.5l-2-4.3c1.8-.6 3.2-1 4.7-1.5 1.3-.5 2.4-.3 3.4.5.9.7 1.7 1.3 2.9 2.3-.3-2.2-1.5-3.4-2.6-4.8 2.3-2.3 4.5-4.5 4.9-7.7zm54 42.4c-2.6-1.1-4.9-1.8-6.9-3-2.1-1.2-4.1-2.7-5.7-4.5-1.5-1.7-2.5-3.8-3.7-5.9-.5 3 .1 5.6 1.6 8 2.3 3.7 5.7 6.2 9.6 8 .4.2 1.2.2 1.6 0 1.2-.7 2.3-1.6 3.5-2.6zm-50.3 182.8c-1.4 1.8-2.6 3.4-4.1 5.2 3.4 2 6.7 3.9 10 5.9 1-1.5 1.8-2.9 2.7-4.2-2.6-2.7-5.2-5.1-8.6-6.9zm129.7 39.9c-.9-.2-1.7-.3-2.6-.5-4-1-7-3.2-8.8-7-1.3-2.8-1.2-3.1 1.2-5.1.2-.2.4-.4.6-.7-1.2-.6-2.3-.6-3.1.1-1.1 1.1-2.1 2.4-3 3.7-.2.3-.1 1.1.1 1.6 1.1 2.5 2.5 4.8 4.6 6.5 3.3 2.7 7 3.3 11 1.4zM277.4 109.7c.2.1.4.1.6.2.1-.2.2-.4.3-.7.8-3 1.8-6.1 2.5-9.2.2-.8 0-1.8-.3-2.6-1.9-5-4.3-9.8-7.3-14.3-.3-.4-.6-.7-1-1 3.7 8.9 5.8 18 5.2 27.6zM156.6 220.9c5.5.7 11 1.3 16.7 2 .3-5.1-.2-9.8-4-13.6 0 .9.2 1.8.3 2.6.1 1 .2 1.9.2 2.9-.1 2.5-.5 3.2-2.8 3.9-1.4.5-2.8.8-4.2 1.1-2.1.4-4.1.7-6.2 1.1zm118.5-102.2c-.1-.1-.3-.2-.4-.4-2.4 1.9-4.1 4.8-7.4 5.2-3 .4-6.1.5-9.4.8.1.6 0 1.4.3 1.7 1.6 1.7 3.3 3.3 5 5 .2.2.5.3 1.2.8-.6-2-1.1-3.5-1.6-5 3.8-2 5.4-1.8 8.1 1.1 1.2 1.3 2.4 2.6 3.9 4.4-.7-3.2-2-5.6-3.4-7.8 1.3-2 2.5-3.9 3.7-5.8zm24.4 41.4c1-3.3.6-6.2 0-9-.6-2.9-1.7-5.7-2.6-8.7.4-.7 1-1.4 1.5-2.3.3-.6.8-1.4.7-2-.7-3.5-2.5-6.4-5.3-8.6 1.5 4.3 4 8.4.3 12.8 2.8 5.5 4.5 11.3 5.4 17.8zm-5.7 4.4c2.4 2.3 3.4 5 3.5 8 .2 5.1.2 10.2.3 15.3v5.2c.4-.4.7-.8.8-1.2 2.1-8 1.8-16 1-24.1 0-.4-.3-1-.6-1.2-1.4-1.1-2.8-2.1-5-2zm87.6 163.6c-.3-5.1-.7-9.9 4.3-13-3-1.8-5.9-.9-7.6 2.3-2.3 4.1-1 8.4 3.3 10.7zm-37 103.6c.9 1 1.5 1.9 2.3 2.5 1.8 1.4 5.2.3 5.6-1.8.5-3.3.4-6.7-.8-9.8-.4-1-.9-1.9-2.2-2.1v4.7c0 3.1-.9 5.8-4.9 6.5zm-185-217.4c5.5-1.1 8.2-4 8.5-9 .2-3.8.1-7.6 0-11.4 0-1-.3-2-.5-3-.8 8.3-1.7 16.5-8 23.4zm130-86.6c.7-.7 1.2-1 1.4-1.5.9-2.1 1.8-4.3 2.7-6.5.5-1.1.2-2-.4-3-2.4-4.3-5.5-8.2-8.8-11.9-.1-.1-.3-.1-.8-.4.6 1.1.9 1.8 1.3 2.5 1.5 2.9 3 5.8 4.5 8.6 1.2 2.2 1.4 4.4 1 6.8-.3 1.7-.5 3.3-.9 5.4zm126.3 40.1c-.8 1.7-1.6 3.3-2 4.2 1.4 2.7 2.8 4.8 3.5 7.1.7 2.4.8 4.9 1.2 7.6 3-4.6 1.7-13.5-2.7-18.9zM314.5 393.5c2.5 3.5 11.1 4.2 14.3 0-2.1-.2-4.2-.2-6.3-.5-2.7-.4-3.4-1.3-3.1-4.1 0-.2 0-.4.1-.6-1.6 1.7-3.2 3.4-5 5.2zM67.4 256.6c-.2 0-.3-.1-.5-.1-.5.4-.9.9-1.4 1.3-.5.5-1.1.9-1.7 1.4-1.7 1.4-2 2.6-1.3 4.7 1 3 3.2 4.9 6.3 6.3-.6-4.8-3-9-1.4-13.6zm66.9-50.1c-.5-2.1.6-3.3 2.3-4.3 1.3-.8 2.6-1.8 3.9-2.7-1.2-.2-2.2-.1-3.2 0-2.1.1-4.4.5-5.9-1.9 1.1 4.2-2.7 4.8-4.4 6.7 2.3.7 4.7 1.4 7.3 2.2zm3.2 37.7c.9-1.8 1.5-3.7 2.6-5s2.9-2.1 4.4-3.1c-1.4-2.7-3.6-3.2-5.9-1.4-3.5 2.6-3.8 5.8-1.1 9.5zm265.2 83.1c-.9.5-1.7 1.1-2.6 1.6-1.3.9-2.5 1.8-4.4 1.3-1.6-.4-2.6.8-2.4 2.4.1.6.3 1.2.5 1.9.8-.6 1.4-1 2-1.4 2.2 1 2.2 4.2 5.3 4.3-.6-3.7.1-6.9 1.6-10.1zM269.5 152.9c.3 1.8.5 3.6.8 5.3 3-.3 5.8-.6 8.8-1-.3-1.9-1.3-3.2-2.5-4.4-.2-.3-.7-.4-1.1-.4-1.9.1-3.9.3-6 .5zm-123.6 75c.5-3.8 2.6-6 6.1-7-.8-1.8-1.9-2.6-3.5-2.3-2.2.4-3.9 1.6-4.7 3.8-.9 2.3-.3 4 2.1 5.5zm-39.1-12.5c.2-.8.4-1.2.5-1.8.1-1 .3-2-.6-2.7-1-.8-2.3-.9-3.2-.2-1.2.9-2.4 2-3.1 3.3-.6 1.1-.5 2.6.3 3.7.9 1.2 2.2.9 3.4.5.1 0 .2-.2.1 0-.4-.8-1-1.5-.9-2.1.3-1.3.9-2.5 2.6-2.5.1.5.4 1 .9 1.8zm72.3-60.5c-2.1-1.3-3.9-2.4-5.8-3.6-.5.2-1 .5-1.7.9-.3-.7-.6-1.4-.9-2-2.1 2.4-2.1 2.4-5.2 1.9.5 1.8 2 2.4 3.4 2.7 3.4.8 6.7.3 10.2.1zm193.5 278.7c.1-1.7.4-2.8-.7-3.5-.7.9-1.2 1.9-2 2.5-.8.7-1.9 1-2.9 1.5 2.3 3.7 7.4 3.8 10.3-3-1.5.8-2.9 1.5-4.7 2.5zM181.3 156.5c.8 2.3 2.2 3.1 5.3 3.2 2.2.1 2.2.1 3.1-2.3-3.1 0-2.3-2.7-2.9-4.7-1.6 2-2.2 4.9-5.5 3.8zm-77 67.6c.3-1.2.6-2.1.8-2.9h2.4c-.1-1.4-.8-1.9-2.1-2-2.2-.1-4.1 2-3.9 4.5.1 1.7 1.7 2.7 3.3 2.1.7-.3 1.2-.8 1.8-1.2.1-.1.1-.4.2-.7-.8.1-1.4.2-2.5.2zM131 232c.8-2.7 2.2-4.3 4.7-4.5.1-1.3-.5-1.8-1.5-1.9-1.4-.1-3.6.9-4.1 2.1-.5 1.4-.6 2.8.9 4.3z" fill="#fff"/><path d="M376.8 245.9c-1.1-4-1.5-7.5-1.7-11-.6-10.8 1.8-21 6.5-30.7 4-8.4 9.5-15.9 15.3-23.1 2-2.5 4-4.9 5.9-7.5 1.2-1.6 2.2-3.4 3.2-5.1.4-.7.5-1.5.9-2.5-.6.2-.8.3-1 .4-9.3 7-19.8 11.4-30.6 15.3-4.1 1.4-8.2 2.7-12.2 4.2-6 2.1-8.3 5.4-8.5 11.9v4.7c-7.5-5.8-16.5-6-26-5.9.9-.8 1.3-1.3 1.9-1.7 6.7-4.9 14-8.6 21.8-11.3 8.5-2.9 17-5.4 25.5-8.3 3.8-1.3 7.5-2.7 11.1-4.4 13.1-5.9 22.5-15.4 28.7-28.3.4-.8.8-1.6 1.2-2.6.9.8.6 1.7.6 2.5-.5 7.1-2.5 13.8-5.9 19.9-2.6 4.6-5.4 9.1-8.2 13.6-4.7 7.5-9.7 14.8-14.2 22.5-6 10.1-10.2 20.9-12.2 32.5-.8 4.3-1.1 8.7-1.6 13.1-.3.3-.3.8-.5 1.8zM335 139.1c-1.6 1.5-3 3-4.6 4.3-.4.4-1.4.3-2.1.1-3.2-.6-6.3-1.8-9-3.5-5.9-3.7-8.2-9.3-6.6-16.1 1.1-4.3 3.1-8.2 5.7-11.8.5-.8 1.4-1.4 2.2-1.9 6.7-4.9 14.2-7.7 22.2-9.6 7.4-1.7 14.9-2.5 22.4-3.1 8.8-.7 17.7-1.4 26.5-2.3 7-.7 13.8-2.2 20.2-5.2 8.3-3.8 14.6-10 20.4-16.7 4.2-4.8 7.2-10.2 8.8-16.4.9-3.8 1.1-7.5.4-11.5.3.4.6.5.6.7 2.9 8.8 4 17.6.5 26.5-2.8 6.9-7.8 11.8-14.3 15-11.7 5.8-23.9 9.7-37 10.9-6.9.6-13.8 1-20.7 1.6-11 .9-21.8 2.7-32.4 5.6-5.3 1.4-10.1 4.2-14.1 8-1.2 1.1-2.2 2.4-3.1 3.8-2.2 3.6-2.6 7.4-.7 11.2 2.8 5.8 7.4 9.4 13.9 10.1.3-.1.4.1.8.3zM164.9 266c4.5-5.1 10.6-7.2 17.6-8.1-.6-1-.9-1.8-1.4-2.4-1.6-2-3.3-4-5-6-4.1-4.8-7-10.4-9.5-16.1-.2-.4-.2-.7-.5-1.6 4.5 2.9 8.6 5.6 13.9 6.5 2.6-4.1 6.3-7.4 10.8-10.5-4.9-.5-9.3-1-13.2-3.8 2.1-.1 4.3-.3 6.7-.4-1.3-1.4-2.4-2.5-3.4-3.8-1.5-2-2.8-4.2-4.2-6.3-.7-1.1-.6-2.2.3-3.1 1-1.1 1.9-2.2 3-3.2 4.9-4.1 10.5-7.1 16.2-9.9 3.7-1.8 7.5-3.4 11.3-5.1.7-.3 1.3-.6 1.9-1.1-12.8 2.6-25.5 5.9-38 10.7-.1-2.9.2-5.5.6-8.1.2-1.2 1.2-1.5 2.1-1.7 4-.9 7.9-1.9 11.9-2.6 13.9-2.4 28-3.8 42.1-5.1 3.5-.3 6.9-.6 10.5-.5-.7.2-1.5.5-2.2.7-11.4 3.3-22.6 7.3-33.1 12.9-5.4 2.9-10.5 6.2-14.8 10.6l-2.1 2.4c-2 1.9-2 4.1-1.1 6.5 1.2 3.3 3.4 5.9 6.2 8 1.2.9 2.4 1.6 3.8 2.6-.4.4-.8.7-1.2 1-2.9 1.9-5.4 4.2-7.7 6.7-4.2 4.7-5.3 10.1-3.6 16.1.8 2.9 1.8 5.7 2.7 8.8-7.1.8-14 2.6-20.6 5.9zM144.7 307.5c-3.6 1.6-7.2 2.3-11.3.8 1.7-1.2 3.3-2.2 4.7-3.4 1.4-1.3 2.5-3 3.9-4.6 2.3.8 4 2.3 4.9 4.6 1.1 2.9 1.8 5.9 1.2 9.1-.1.5-.1 1 .1 1.5 4-5.8 6.1-12 4.6-19.4-2.7-1.2-5.7-.3-9.1-.7 2.9-1.7 5.6-2.3 8.6-2.3.5-1.6-.2-3-.5-4.6-3.3-1.7-7-1-10.9-1.3 2.9-2.5 5.9-2.8 9.4-2-.1-6.3-4.1-10-8.1-14.1 1 .1 2 .1 2.9.3 3.9 1.1 7 3.5 9.2 6.9 2.6 4 4 8.3 4.4 13 .4 5.5.2 11-1.4 16.4-1.3 4.3-3.3 8.3-6.6 11.5-1 .9-2.1 1.8-3.3 2.4-8.5 4.1-16.7 8.8-24.6 14-3.1 2-5.4 4.5-6.2 8.1-.8 3.7-1.8 7.4-2.1 11.2-.3 3.5.7 6.8 3.4 9.3.7.7 1.4 1.4 2.1 2 3.8 3.5 5.4 6.4 6.2 11.5 1.2-3 .8-7.5-1.1-11-.9-1.6-2-3.2-2.9-4.8-2-3.1-2.8-6.5-2.6-10.2.1-2.3.7-3.8 2.4-5.5 0 2.5-.1 4.8 0 7.1.1 2.6 1.1 4.9 2.5 7.1 1.1 1.7 2.2 3.4 3.3 5.2 3.5 5.9 2.4 11.7-.7 17.3-1.5 2.8-4.1 3.8-7.3 3.4l1.2-2.7c2.6-6.2 1.5-10.9-3.5-15.4-3.4-3-6.4-6.2-7.8-10.7-2.5-7.8-1.3-14.7 4.3-20.8 3.4-3.7 7.4-6.6 11.8-8.9 4.6-2.4 9.2-4.9 13.7-7.4 1.3-.7 2.6-1.7 3.7-2.7 2.9-2.8 3.4-6.5 1.5-10.2zM104.4 247.1c-2.5-4.2-5.5-7.2-9.8-8.8-9.8 9.9-15.3 31.9-6.8 48.4-.1-.8-.3-1.6-.3-2.4.2-3.7.4-7.4.8-11.1.2-1.6 1-3 2.6-4.6-1.8 10-1 19.4 1.8 29-.9-.5-1.5-.8-2.1-1.1-6.5-3.7-10.9-9.2-14.3-15.8-1.7-3.5-2.8-7.1-3.6-10.8-1-4.6-.8-9.4-.4-14.1.3-3.1.7-6.3 1.3-9.4.6-3.3 1.2-6.6 3.4-9.3.4-.5 1-1.1 1.6-1.4 7.2-2.8 14.2-2.4 20.5 2.4 3.3 2.5 4.4 4.6 5.3 9z"/><path d="M352.9 128c.1 18.3-4.9 35-14.7 50.3-.2-.1-.3-.1-.5-.2 1.1-3.4 2.3-6.7 3.4-10.1 2-6.1 3.9-12.2 4.9-18.6.2-1.6.2-3.2.3-4.8-.2-.1-.3-.2-.5-.3-.7.5-1.4.9-2.1 1.4-11.3 9-20.3 19.9-27.2 32.6-.8 1.5-1.8 2.2-3.4 2.7-2.6.8-5.2 1.9-7.7 2.9-.6.2-1.1.5-1.8.8-.2-2.9-.5-5.5-.6-8.1 0-.9.5-1.8 1.1-2.6 4.8-6.2 10.3-11.7 16.2-16.8 6-5.2 12.1-10.1 18.1-15.2 5.1-4.3 10.5-8.4 14.5-14zM239.3 92.7c-.6-.5-.9-.7-1.2-1-1.8-1.3-3.4-1.5-5.1-.1-1.3 1-2.6 2.3-3.5 3.7-2.9 4.2-5 8.8-5.5 13.9-.2 2.4.2 4.9.7 7.2 1.8 9.4 6.5 17.1 13.8 23.2.4.4.9.6 1.6.8-.3-.7-.7-1.4-1-2-2.7-4.7-4.9-9.5-5.9-14.9-.3-1.5-.3-3-.1-4.7 3.4 10.2 8.8 19.1 16.5 27-1.7.3-3 .2-4.3-.1-3.7-.9-6.9-2.8-9.7-5.3-5.3-4.6-9.3-10.2-12.7-16.3-3.5-6.2-6.9-12.5-8.6-19.6-2.2-9.4-1.4-18.4 3.3-26.9.5-.9 1-1.7 1.5-2.5 3.4-4.5 9.5-6.6 15.3-1.6-.7-.1-1.2-.2-1.7-.3-2.2-.4-4.1.3-5.4 2-.9 1.2-1.6 2.4-2.2 3.8-2.1 5.5-2.6 11.3-2.9 17.8.9-1 1.4-1.6 1.8-2.2 1.7-2.2 3.6-4.2 6.1-5.6 2-1.1 4.1-1.7 6.3-.7 1.5.9 2.9 1.9 2.9 4.4zM49.8 290.1c0-.9 0-1.8-.1-2.6-1.2-7.1 0-14.1 2.1-20.8 1.3-4 3.5-7.5 6.6-10.4 3.9-3.7 4.2-8.2 3.5-13-.1-.6-.2-1.2-.3-1.7.2-.2.5-.4.7-.5.1.4.2.8.4 1.1 2 2.9 2.7 6.2 2.6 9.7 0 2.3-1 4.2-2.8 5.7-.2.2-.5.5-.7.6-4.9 3.1-6.8 8.1-8.1 13.4-2 8.2-.9 16.3 1.2 24.3.4 1.6.9 3.2 1.5 5.4-1.4-1.1-2.4-1.7-3.4-2.5-3.3-2.6-6.5-5.4-9-8.8-1.6-2.2-2.8-4.8-3.9-7.3-3.2-7.4-4.5-15-3.3-23 .5-3.5 1-7 1.7-10.5.7-3.6 2.2-6.7 5.9-8.1 2-.8 4-1.6 6.1-2.4.6-.2 1.3-.2 1.9-.1 2.6.4 3.1 1.6 1.7 3.8-1.5 2.5-3 5-4.5 7.6-2.1 3.8-3.4 7.9-4.2 12.1-1.3 6.8-1.9 13.7.3 20.5.9 2.7 2.2 5.2 3.3 7.8.4-.2.6-.3.8-.3zM329.9 116c.7-.4 1.2-.8 1.7-1.1 11.1-5.8 22.8-9 35.4-8.3 7 .4 13.9 1.5 20.8 2.6 8.3 1.2 16.5 2.6 24.9 2.8 11.9.2 23.2-2.1 34.3-6.2 1.4-.5 2.9-1.1 4.7-1.8-.5.8-.7 1.3-1 1.7-2.4 3-5.4 5.1-8.9 6.7-6 2.8-12.3 4.1-18.8 4.8-10.5 1.1-20.9 1-31.4-.2-4.3-.5-8.6-1.7-12.9-2.3-16.1-2.4-32.2-2.6-48.2 1.4 0-.1-.2-.1-.6-.1zM200.9 274.2c2.6 3.4 5 3.9 13.7 3-.6 1.7-2.1 2.5-3.4 3.4-1.2.9-2.5 1.7-4 2.7 5.3 4.3 10.4 2.9 15.9.3-1 3.9-3.7 6-6.8 8.1 5.4 3.1 10.4 1.1 15.3-.3-.2 1.6-.2 1.6-4 5.2 2.6 2.1 12.8 4.4 25.5 5.8-.4.3-.6.5-.9.6-11.6 2.3-22.9 2-34.1-2-5-1.8-9.2-4.6-12.2-8.9-3.1-4.3-6-8.7-9-13-1.1-1.5-2.1-3.1-3.1-4.7-2.1-3.4-4.9-5.8-8.5-7.4-.3-.1-.6-.3-.9-.5-.1 0-.1-.1-.1-.2 4.8-1 9.5-1.9 14.3-2.8l.2.2c-1.8 1.4-3.7 2.8-5.7 4.3 4.1 2.8 8.4 2 12.9 1-.9 2.8-3.3 3.7-5.1 5.2zM364.1 390.7c-3.6 4-4 6.8-1.7 9 1.5-2 2.9-4.3 6.2-4.3-.8 1.1-1.5 2-2.1 2.9-1.4 2-2.4 4.1-2.3 6.6.1 2.2.9 3.1 3 3.9 3 1.1 5.2 3.1 7.5 6-6.4-1.5-11.7-.5-16.9 3.5.4-1.4.6-2.3.9-3.6-2.7 1.3-5.2.9-7.8.3-1.7-.3-3.5 0-5.2.1 1.9-3.2 5.5-3.9 10.8-2 3.1-1.8 4.1-4.2 3.1-7.8-.6-1.9-1.4-3.8-2.5-5.5-2.7-4.7-6.4-8.8-10.1-12.8-10.8-11.3-22.9-21.2-35.1-30.9l-2.9-2.3c.5-2.5 1-4.9 1.5-7.7.8.6 1.6 1 2.2 1.5 5.8 5.1 11.8 10 17.2 15.5 9.4 9.5 18.5 19.5 27.7 29.2.4.4.8.8 1.3 1.4 1.5-1.4 2.9-2.8 5.2-3z"/><path d="M215.4 322.8c5.1-2.1 8.6-5.7 11.3-10.7.1 7.5-6.2 15.5-13.1 17-2 .4-2.6.1-2.6-2 .1-1.8-.8-3-2-4.1-5.2-5-9.8-10.4-13.6-16.5-3-4.9-5.3-10.1-6.2-15.8-.6-3.4-.6-6.8.2-10.2.2-.8.5-1.5 1.1-2.3.1.5.3 1 .4 1.5 2.7 9.8 7.8 18.2 15.1 25.2 3.9 3.7 8.7 5 14 2.6.4-.2.9-.3 1.6-.5.3 6.4-3 11-6.2 15.8zM103.6 273.4c1.4 8.4 1.1 16.7-2.6 24.5-.8 1.7-1.9 3.2-3.5 4.2-3.3 2-6.6 3.9-9.9 5.8-2 1.2-4.2 2.2-6.2 3.4-5.2 3.1-8.1 7.8-9.1 13.8-1.1 6.9-1.1 13.7 1.5 20.2 2.5 6.2 1.1 11.9-2.2 17.2-1.7 2.7-4.4 4.5-7.5 5.6-.4.2-.9.3-1.5.5 1.9.5 2.1.6 4.5.1 1.4-.3 2.8-.7 4.3-1-2.8 4.8-8.8 6.5-13.5 4.6-4.9-2-7.6-5.9-9-10.9-.2-.8-.3-1.7-.6-3.2 1 .7 1.6 1.2 2.1 1.6 2.4 1.9 4.9 3.5 7.8 4.5 5.2 1.8 9.1.1 11.4-4.9 1.5-3.3 1.7-6.8.8-10.2-.7-2.6-1.6-5.1-2.5-7.6-1.3-3.7-2.4-7.4-2.2-11.4.4-8.6 4-15.5 11.5-20 2.6-1.5 5.4-2.7 8-4.1 3-1.7 6-3.5 9-5.4 1.7-1.1 2.9-2.6 3.8-4.3 3.6-6.1 5.2-12.8 5.5-19.8.1-1.1.1-2.1.1-3.2zM236.9 220.3c-3.1 12-2.5 23.7 2.1 35-2.9 3.3-6.9 5.4-10.4 5.6-.4-.8-.9-1.6-1.2-2.5-4.8-10.7-5.8-21.9-3.6-33.4.4-2 1.3-3.1 3.3-3.6 3.1-.9 6.2-1.8 9.8-1.1zM264 301.8c-4.1-2.5-8-4.9-12.3-7.5 5.9-1.8 10.5-4.6 13.5-9.7 1 4-.4 7.6-1.9 11.4.7-.3 1.2-.5 1.6-.8 3.4-2.4 6.5-5.1 9.3-8.3 4.6-5.3 6.1-11.4 4.9-18.2-.8-4.6-1.9-9.1-2.9-13.6-1.3-6-.7-11.6 3.2-16.6.3-.4.7-.9 1.1-1.3.2-.2.4-.2.9-.6 0 1 0 1.7-.1 2.5-1.1 6.2-.5 12.3 1.3 18.3 1 3.2 1.7 6.4 2.3 9.7 1.7 9.3-.6 17.4-7.3 24.1-4.2 4.1-8.5 7.6-13.6 10.6z"/><path d="M252.2 251.4c-6 11.9-15 19.8-28.8 22.1l-1.5-3.6c-3.6-8.5-5.8-17.4-6.4-26.6-.5-8.4.6-16.7 3.1-24.8.3-.9.6-1.6 1.6-1.9 8.9-2.6 17.7-3.2 26.6.1 1 .4 2 .9 2.9 1.7-3.2-.3-6.3-.8-9.5-1-4.8-.4-9.6.2-14.3 1.2-2.6.6-4 1.9-4.9 4.4-2.1 6.4-2.8 12.9-2.3 19.5.6 7.2 3 13.9 6.9 20.1 1.2 1.8 2.5 2.4 4.4 1.8 2.6-.9 5.3-1.7 7.7-2.9 4.7-2.4 8.8-5.8 12.7-9.4.4-.4.8-.8 1.2-1.1.3.1.4.3.6.4zM31.1 151.5c.1-.5.1-.8.2-1 5.6-9.3 12.5-17.2 22.1-22.6 9.2-5.2 19.3-7.2 29.8-6.9 4.2.1 8.4.6 12.6 1.1.8.1 1.8.4 2.4 1 4.4 3.8 7.8 8.4 11 13.3-.4-.2-.8-.4-1.1-.6-18-10.8-36.4-11.3-55-1.6-6.8 3.5-12.7 8.2-18.1 13.5-1.2 1.1-2.4 2.3-3.9 3.8zM377.1 102.5c.7-.2 1.2-.4 1.7-.5 8.7-.8 17.5-1.6 26.2-2.5 12.4-1.3 24.7-2.9 36.6-6.7 6.2-2 12.1-4.6 17.4-8.9-.5.8-.9 1.6-1.4 2.4-1.9 2.7-4.5 4.7-7.2 6.5-7.1 4.6-14.9 7.7-22.9 10.1-5.8 1.8-11.7 3.3-17.6 4.7-1.3.3-2.8.3-4.1.1a2753 2753 0 0 1-28.1-4.9c-.2.1-.3 0-.6-.3zM276.7 372.8c-2-.5-2.5-2.1-3.9-3.2-1.8 3.6.1 6.8.9 10.6-1.4-1.1-2.5-1.8-3.6-2.7-.2 3.7 2 6.3 3.3 9.5-.8-.3-1.6-.5-2.3-1-.8-.5-1.5-1.2-2.2-1.9-2.2-2.2-2.8-4.5-1.7-7.7 3.2-9.2 7.1-18 13.6-25.4 2.1-2.3 3.8-4.8 5.3-7.5 4-6.9 8.1-13.7 11-21.2.8-2 1.5-4.1 2-6.3 1.2-5.1 1.6-10.1-2.7-14.9 3 1 5.4 2 7.5 3.5 1.9 1.4 2.6 3.1 2 5.5-1.7 6.5-4.8 12.4-8.4 18.1-.6 1-1.3 2-2 3.2 2.5.4 5.1 0 7 2.3-3.2.7-6.7 0-9.3 3 1.8.5 3.3.7 4.6 1.3 1.3.6 2.4 1.5 3.5 2.8-.5 0-1 .1-1.5.1-2.6-.2-5.2.1-7.7 1-2.1.8-3.8 2.1-4.6 4.6 4 .1 7.8.2 10.9 3.4-3 0-5.5-.2-8.1 0-6 .7-10 4.1-12.1 9.6-1.5 4.2-2.1 8.5-1.5 13.3zM67.6 245.8c-.5-1.2-1-2.3-1.5-3.5-2.3-6.1-7-8.2-12.9-7.5-3.5.4-6.9 1.2-10 2.8-1.9 1-2.8.4-3.1-1.7-.3-2.2.5-4.1 1.8-5.7 1.9-2.5 4.4-4.4 7.3-5.5 5.7-2.2 11.7-3.4 17.9-3 3.4.2 6.8.7 10.1 1.3 4.8.8 9.5.9 14.3-.1 2.7-.6 5.3-1.6 7-4 .2-.2.5-.4.9-.7.1 3.1-1.8 4.6-3.9 6.4 3 1.3 5.2 3.2 6.4 6.5-.8-.4-1.3-.6-1.7-.9-4.7-3.1-10.1-3.7-15.6-3.9-3.5-.1-7-.5-10.4-.7-.7 0-1.4-.1-2.6-.2 2.5 2.2 5.5 3.7 5.6 7.6-3.9-2.4-7.4-4.8-11.7-5.7-4.4-1-8.4.5-12.6 1.2v.5c.6.1 1.2.2 1.8.4 4 .8 7.3 2.5 9.7 6 1.4 2.1 3.3 3.9 3.5 6.5.1 1.2 0 2.5 0 3.7 0 .2-.2.2-.3.2zM308.1 227.8c5.3-2.1 10.2-4.5 16.1-4-.1 8.2 1.8 15.7 6.4 22.6-3.7 1.8-7.5 2.8-11.4 3.7-.2.1-.5.1-.7.1-3.9.7-4.2.5-6.1-3-2.4-4.3-3.2-9-3.8-13.8-.2-1.8-.3-3.6-.5-5.6z"/><path d="M138.4 128.5c-13.4-10-28.7-14.8-45.1-16.5-.1.2-.2.3-.2.5.2.2.4.4.7.5 9.4 4.7 16.9 11.7 23.7 19.6 3.1 3.7 6.3 7.3 9.4 10.9 2.3 2.7 5.3 3.9 8.8 3.9 3 0 6-.2 8.9-.3-3.5 4.7-11.9 6.1-16.6 2.6a7 7 0 0 1-1.5-1.9c-8.8-11.8-18.9-22.3-31.2-30.6-4.5-3-9.2-5.5-14.4-7-.3-.1-.6-.3-.8-.8 2.6 0 5.2-.1 7.8 0 9.7.4 19.3 1.4 28.7 3.9 4.2 1.1 8.4 2.6 12.5 4 1.4.4 2.4 1.3 3.2 2.5 1.9 2.9 4 5.8 6.1 8.7zM214.3 50.4c4.4 5.4 7.7 11.4 10 18.1l-1.5.9c-.4.2-.9.4-1.6.6-.3-.7-.7-1.3-1-1.9-2.2-4.4-4.2-8.8-6.5-13.1-1.7-3.2-3.9-6.2-7.3-8 9.3-5.8 29.6.1 37.7 11-2.9-1.5-5.4-3-8-4.3-2.7-1.3-5.5-1.7-9-2.1.8.8 1.1 1.2 1.6 1.6 5.3 4.5 10.1 9.5 13.7 15.4 3.7 6.1 5.8 12.7 5.1 19.9-.1 1.4-.4 2.7-.9 4.1-.1-.6-.3-1.2-.4-1.7-2.9-16.1-10.3-29.3-24.8-37.8-2.1-1.3-4.5-2.2-6.8-3.3l-.3.6zM174.2 267.2c-5.5 3.6-7.4 7.8-6.5 14.4.5 3.9 1.9 7.5 3.5 11.1.8 1.7 1.2 3.5 1.4 5.4.8 5.2 1 10.3.7 15.6-.2 4.2-1.8 7.8-5 10.7-5.4 4.8-11.7 7.5-18.7 8.7-3.1.5-6.3.6-9.5.8-.5 0-1.1-.1-1.6-.5l2.2-.6c9.6-2.5 17.6-7.4 24.1-14.8 2.4-2.7 3.3-5.9 4-9.3 1.2-6.2.6-12.3-2.1-18.1-1.2-2.5-2.3-5-3.3-7.6-1.5-4-.9-7.8 1.6-11.3 2.3-3.3 5.4-4.8 9.2-4.5zM383 230.8c.5-2.6.9-4.6 1.4-6.9.8-.3 1.6-.5 2.5-.8 11-3.5 21.8-7.4 31.9-13.1 5.4-3 10.5-6.5 14.8-11 2.8-2.9 5.1-6.1 6.5-9.9 1.7-4.5 1.9-9 .4-13.6-.2-.6-.4-1.2-.3-1.9.3.5.7.9 1 1.5 3.6 7.1 3.2 14.1-.6 21-2.9 5.2-7.1 9.3-11.8 12.9-8.2 6.3-17.3 10.9-26.8 14.8-6.1 2.3-12.2 4.5-19 7z"/><path d="M392.3 205.2c1.1-1.7 2.1-3.4 3.4-5 .4-.6 1.3-.9 2-1.1 4.5-1.6 9.1-3 13.5-4.8a31 31 0 0 0 9.8-6.3c6.1-5.7 7.7-12.6 5-20.4-1-2.9-2.4-5.7-4.2-8.2-1.6-2.2-1.2-3.9-.1-6.2 5.6 6.1 10.5 12.4 11.2 21 .3 3.9-.8 7.6-2.9 10.9-2.6 4.1-6.1 7.1-10.1 9.7-6.1 4-12.8 6.7-19.7 8.9-2.5.8-5 1.4-7.4 2.1-.2-.2-.4-.4-.5-.6zM363.1 240.9c-2.2-2.6-3.3-5.4-4.1-8.3-1.4-4.8-1.8-9.7-1-14.7.3-1.9-.2-3-1.8-4-10.8-7.5-22.7-10.2-35.7-7.8-1.3.2-2.4.8-3 1.8-1.2 1.8-2.3 3.7-3.1 5.7-.6 1.4-1.2 2.4-2.9 2.2-.5-.1-1.1 0-2 .1.6-1.4.9-2.5 1.5-3.5 2-3.2 4-6.3 6.1-9.4.4-.6 1.4-1.1 2.2-1.3 9.2-2.7 18.1-2 26.9 1.8 5.7 2.5 10.6 5.9 15.1 10.1 1.1 1.1 1.5 2.1 1.4 3.8-.8 7.5-.7 15.1.7 22.6-.2.2-.3.4-.3.9zM81.5 195.4c-5 3-10.4 4.7-16.2 3.3-3.3-.8-6.1-2.6-8.3-5.3-3.3-4.1-5.2-8.8-6.1-13.9-2.4-13.4 2.5-24 12.9-32.3.3-.2.6-.4 1.1-.5-1.9 3-3.5 6.2-4.6 9.5-2.8 8.9-3.9 17.9-1.8 27.1.5 2.2 1.4 4.4 2.4 6.3 2.8 5 7.2 7.3 12.9 7.1 2.1-.1 4.2-.7 6.2-1 .6-.1 1.1-.2 1.5-.3zM139.2 295.1c-2.6 3.3-5.6 5.4-9.1 6.1.8-.9 1.4-1.5 2-2.1.6-.7 1.2-1.3 1.8-2-1.4-1.8-3.1-1.9-4.9-1.6-3.8.7-6.9 2.5-8.8 6-.8 1.5-1.7 3-2.3 4.6-1.6 4.1-4.5 6.6-8.7 7.9-4.5 1.4-9 2.9-13.4 4.5-2.3.8-4.5 1.8-6.7 2.8-3.1 1.4-5.4 3.7-6.5 6.9-1 2.9-1.9 5.9-2.8 8.8-.3.9-.4 1.9-.9 2.8-.1-.6-.2-1.1-.2-1.7.1-3.5.5-7 1.6-10.3s3.1-6 6.2-7.5c3.2-1.6 6.5-3 9.8-4.3 3.9-1.6 7.9-2.9 11.8-4.5 2.8-1.1 5-3 6.5-5.6.8-1.3 1.4-2.7 1.3-4.4-3 1.5-5.8 3.4-8.9 4.3s-6.5.9-9.8 1.3c0-.2-.1-.4-.1-.6.5-.2.9-.4 1.4-.6 7.7-2.7 14.8-6.2 20.9-11.7 4.2-3.7 9.2-4.3 14.4-3.7 2.5.4 4.3 2 5.4 4.6z"/><path d="M328.5 218.5c-2.6.3-5 .4-7.4.8-2.4.4-4.8.9-7.2 1.5-.9.2-1.9.6-2.7 1-2.8 1.2-4.6 2.9-4.9 6.3-.7 8 0 15.6 4 22.7 3.2 5.8 2.5 4.7 7.7 3.6 8.4-1.7 16.5-4.4 23.8-9 .1-.1.3-.1.9-.2-.7.9-1.1 1.6-1.6 2.3-3.2 3.8-7.3 6.5-11.7 8.5-4.7 2.2-9.6 3.4-14.6 4.4-1.9.4-3.1-.1-4.3-1.7-3.6-5.2-5.9-11-7.1-17.2-1.1-5.6-1.2-11.3-.5-17 .1-1 .4-1.8 1.4-2.4 7.3-4.5 15.2-5.9 23.6-4 .1-.1.2.1.6.4zM131.1 112.8c8 .9 15.4 2.4 21.9 6.6.7.5 1.5 1 2.3 1.4 1 .5 2 1 3.1 1.5.1.1.2.2.3.4.6 1.5 1.1 3 1.7 4.6-1.3.6-2.5.1-3.4-.6-1.6-1-3-2.2-4.5-3.3-1.8-1.3-3.5-2.6-5.4-3.8-.7-.5-1.6-.7-2.6-.6.7.8 1.4 1.6 2.1 2.5 3.7 4.1 6.7 8.6 8.5 13.8 1.6 4.7 1.9 9.4.4 14.1-.5 1.8-1.2 3.4-3.3 3.8-1.7.3-3.4-.8-4.8-3 2.9-.3 3.9-1.5 4.2-4.5.2-2.7-.4-5.3-1.5-7.8-1.9-4.5-4.5-8.5-7.5-12.2s-6.3-7.2-9.5-10.8c-.7-.6-1.2-1.2-2-2.1zM422.8 54.1c-.4.8-.8 1.5-1.3 2.3-7 11.4-16 21.1-26 29.9-1.7 1.5-3.5 2.9-5.2 4.4-1 .8-2 1.3-3.3 1.5-5.9.8-11.7 1.7-17.6 2.5-.6.1-1.1 0-2.2 0 1.1-.5 1.7-.8 2.3-1.1 8.8-3.8 16.8-9 24.4-14.7 9.5-7.1 18.2-15 26.6-23.3.6-.6 1.1-1.4 1.6-2.2l.7.7zM276.9 225.6a14.4 14.4 0 0 1-7.2-7.4c-1.4-3.1-1.3-6.5-1.2-10-9.4-4-19-4.4-29.2-1.1l5 5.3c-3-.2-5.8-.5-8.6-.4-2.7 0-5.5.4-8.4.7.6-3.3 1.8-6.3 4.4-8.7.6-.6 1.6-.9 2.4-1.1 7.5-2.1 15.2-2.5 22.9-1.4 4.3.6 8.6 1.8 12.8 2.7.8.2 1.6.6 2.4.8-.9 6.5-.6 7.9 4.7 20.6zM191.9 220.3c-.7-.8-1.6-1.8-2.3-2.9-2.3-3.9.5-8.8 5-8.9 6.6-.1 13.1-1.6 19.5-2.7 4.3-.7 8.5-1.2 13.1-.2-.9 2-1.6 3.8-2.4 5.6-10.7-.3-20 4.1-29.5 7.9-.9.4-1.8.8-2.7 1.1 0 .1-.2 0-.7.1zM344.2 184.5c-2.6 1.3-4.6 2.4-6.7 3.2-1.4.6-2.9 1-4.4 1.1-5 .3-10.1.6-14.9 2.1-1.4.4-2.8.9-4.1 1.6-4.3 2-7.4 5.3-8.9 9.8-.5 1.4-1 2.8-1.6 4.4-1.3-1.8-2.4-3.4-3.6-5.2.1-.3.4-.9.6-1.5.9-2.8 2-5.5 2.7-8.3.3-1.3.9-2.1 2-2.8 6.9-4.2 14.4-6 22.4-5.7 5.2.2 10.6.8 16.5 1.3zM392.6 72.3c-.6.7-1.2 1.4-1.9 2.1-8.4 8.4-18.3 14.5-29.1 19.4a42.1 42.1 0 0 1-13.6 3.6c-6 .5-11.8 2-17.6 3.7-.8.2-1.6.4-2.5.4 2.1-2.1 4.6-3.6 7.2-5 5.3-2.9 11-4.5 16.7-6 14.1-3.6 27.1-9.6 39.1-17.7.4-.3.9-.6 1.4-.8l.3.3zM213.1 156.6c-1.9 5.7-5.8 9.8-10.6 13.2.2.5.3 1 .6 1.4.8 1.6 1.1 1.8 2.9 1.4 1.6-.4 3.1-.9 4.6-1.6 3.6-1.7 6.7-4.3 9.6-7 .9-.9 1.8-1.8 2.9-2.5-1.2 3.5-3.6 6.2-6.5 8.5s-5.8 4.3-8.8 6.5c.5 3 .9 2.8 3.4 3 3.6.3 7.1-.7 10.5-1.9 1.2-.4 2.4-.9 3.7-1.4-.3 2.5-3.3 5.9-5.5 6-5.7.3-11.5.4-17.3.7-.9-2.1-.2-3.9.2-5.8-2.3-.9-2.7-3.1-2.9-5.3-.2-.1-.4-.2-.5-.1-3 1.4-3.4 1.2-4.2-2.9-1.6-.3-3.4-.4-3.6-2.7 0-.3-.6-.5-.9-.7-.6-.4-1.2-.8-1.7-1.1 2.2-2.1 4.2-4.1 6.4-6.3.3 1.2.1 2.5-.4 3.8-.9 2.4 1.3 6.1 3.7 6.2.7 0 1.4-.4 2-.7 4.3-2.1 7.7-5.3 10.9-8.8.5-.8 1-1.4 1.5-1.9zM265.1 262.8c-.7 4.1-2.2 7.9-4.1 11.6-3.6 7.2-8.7 13.3-14.7 18.7-.9.8-1.6.9-2.6.5-2.4-.8-4.5-2-6.4-3.5-3.7-3.1-7.1-8.1-8.9-13.2 1-.4 2-.8 3.2-1.2.4.8.8 1.6 1.1 2.3 1 2.2 2.4 4.3 4.3 5.8 2.7 2.1 5.2 2.2 8 .3 4.5-3.1 8.2-7.2 11.7-11.3 3-3.3 5.6-6.7 8.4-10zM353.5 156.6c.5-1.9 1-3.5 1.4-5.1 9.6.3 41.4 3.5 46.4 7.5-1.9 1.3-3.7 2.7-5.6 3.9-.5.3-1.4.1-2.1 0-7.2-1.4-14.3-3.2-21.5-4.3-5.8-.9-11.6-1.3-17.4-1.8-.3-.1-.6-.1-1.2-.2zM368.3 338.1c-5.8-2.7-6.8-7.6-4.5-12.3 1.2-2.4 2.6-4.7 4.1-6.9 2.8-3.9 6-7.5 8.8-11.4 2.1-2.8 4.1-5.7 5.8-8.7 1.2-2.2 2-4.6 2.7-7 1.1-4.3 0-8.2-2.4-11.8-.3-.4-.5-.8-.8-1.2 0-.1 0-.2-.1-.4.6.1 1.1.1 1.6.2 3.8 1.4 6.1 4.1 6.2 8.2.2 4.9-.5 9.8-3.3 14-2.1 3.1-4.3 6.1-6.6 9.1-2.8 3.7-5.7 7.3-8.4 11.1-1.3 1.8-2.4 3.9-3.4 5.9-1.7 3.7-2.2 7.4.3 11.2zM77 147.1c3.2-.5 5.7.4 8.1 1.4 4.7 2.1 8.1 5.7 10.2 10.4.8 1.7.7 2.3-.8 3-2.8 1.2-5.7 2.2-8.7 3.2-.4.1-1 0-1.4-.2-2.9-1.2-5.5-.6-7.8 1.2-2 1.6-3.7 3.6-5.5 5.5-.5.6-.9 1.3-1.7 2.2-.2-2.1.5-3.6 1.2-5 1.6-3.2 4.1-5.6 7.3-7.3 1.4-.7 2-1.8 2.2-3.2.4-4 .2-7.8-3.1-11.2zM398.2 411.7c-5.1.3-7.3 3.6-8.9 7.4-.8 1.8-1.4 3.8-2 5.7-2.1-1.5-2.2-1.8-1-8.8-.5-.4-1-.8-1.6-1.2 0-.3 0-.7.1-.8 1.2-1.1 2.3-2.3 3.6-3.2 1.8-1.2 2.2-1.8.9-3.6-.9-1.3-1.9-2.5-3.1-3.5-3.7-3.1-7.6-6.2-11.4-9.1-7.8-5.9-15.5-11.9-22.2-19-1.4-1.5-2.7-3.1-3.8-5 2.2 2 4.4 4 6.7 5.9 8.4 7.3 17 14.1 26.8 19.4 2.1 1.1 4.2 2.2 6.3 3.2 3.2 1.5 5.1 3.9 5.6 7.4.2 1.5.5 2.8 2.2 3.4.7.2 1 1 1.8 1.8zM407 146l-2.3 4.3c-8.1-1.3-16.1-2.7-24.1-3.7s-16-1.5-23.9-2.2v-4.3c16.7.8 33.4 2.6 50.3 5.9zM270.3 305.5c1.2 2.3 1.4 4.3 1.6 6.2.6 4.4.5 8.8-.9 13-1.8 5.8-5.5 10.1-10.7 13.1-.8.5-1.6.8-2.5.4-3.4-1.6-6-4.1-8-7.3 2.6-1.3 5.1-2.3 7.3-3.6 2.3-1.4 4.3-3.1 6.5-4.8 1 1.8.7 3.8 1 5.9.6-.9 1.3-1.8 1.7-2.7 1.9-3.8 2.7-7.8 3.2-12 .3-2.4.5-5 .8-8.2zM130 174.7c-1.2 5.6-2.5 11-1.7 16.5-1.1-1.5-1.5-3.2-1.7-4.9s-.2-3.5-.3-5.3c-3.6 1.3-8.3 12.6-8.6 21.3.6.4 1.2.8 1.9 1.1.7.3 1.5.5 2.3.8-2.6 1.1-6 .5-10.9-1.6-.6 1.8-1.2 3.6-1.9 5.4-.2 0-.4-.1-.7-.1.1-1.2.1-2.3.2-3.5-1.9.5-1.9.5-3 3.5-1.5-2.2-1-4.5 1.6-5.6 2.2-.9 3-2.5 3.6-4.5 1.7-5.5 4.4-10.5 8.2-14.8 2.6-3 5.7-5.5 9.1-7.7.6-.2 1.1-.3 1.9-.6zM270.5 97.4c-3.5-10.3-6.2-20.8-12.1-30-.6-1-1.5-1.9-2.5-2.7 2.5 6.9 4.2 13.7 2.6 21.1-2-11.3-5.2-22.1-12-31.7.7.3 1.5.5 2.2.8 6.8 3.1 11.7 8.1 15.2 14.6 4.5 8.3 6.4 17.3 6.7 26.7 0 .4-.1.8-.1 1.2zM124.2 152.3c-2 2-4.4 3.1-7 3.9-3 .9-6.1 1.2-9.2 1-1 0-1.9-.3-2.5-1.2-6.9-9.7-16.7-14.6-28.1-16.9-.8-.2-1.6-.3-2.4-.4-.8-.1-1.6-.3-2.5-.5 2-.8 3.8-1 5.9-.9 5.7.4 11 2.1 16.1 4.5 5 2.3 9.6 5.1 14 8.4 1.9 1.4 3.9 2.1 6.1 2.1 3.2.1 6.3 0 9.6 0zM251.9 307.9c1.2 2.9 1.1 5.4.9 7.8-.8 7.2-4 13-10.3 16.8-.6.4-1.3.8-2 .8-5.8 0-10.9-2.1-15.4-5.6.6 0 1.2.1 1.8.1.8.1 1.6.3 2.4.3 4.4.3 8.2-1 10.8-4.8 1.4-2.1 2.9-4.3 4.4-6.5.7 1.8.2 3.8 1.8 5.6 4-3.9 4.4-9.1 5.6-14.5zM329.4 309c-1.5-3.6-3.5-6.3-5.8-8.8-1.6-1.7-3.3-3.4-4.9-5.1-2-2.2-3.5-4.7-4.5-7.5-.2-.5-.2-1.1-.4-1.9.4.3.6.4.7.5 2.9 4.8 6.9 8.6 11.1 12.3 1.9 1.7 3.8 3.3 5.5 5.2 2.6 2.7 4.3 5.9 3.8 10l-1.7.3c-5.3.9-9.9 3.5-13.3 7.6-2.4 2.9-4.3 6.3-6.5 9.4-.5.7-.9 1.4-1.5 2a31 31 0 0 1 5.8-14c3.1-4.1 7.4-7 11.7-10zM389.3 252.4c7.5-.1 19.5 2 23.4 5.2-1.2 3.3-2.5 6.5-3.5 9.9-2.9 9.7-4.7 19.6-6.4 29.5-.4 2.2-.8 4.4-1.3 6.6.2-2.7.3-5.3.5-8 .5-6.3 1.1-12.6 1.8-18.9.5-4.8 1.1-9.7 1.9-14.5.2-1.4-.1-2.5-1.2-3.1-2.3-1.3-4.5-2.5-6.9-3.6-2.8-1.2-5.6-2.1-8.3-3.1zM396.1 422.7c-.4-3.1.2-5.7 2.9-7.5 1.5-1 3-1.1 4.6-.1 3.8 2.3 5.9 5.8 6.4 10.1.8 7.3-.6 14.2-4.5 20.5-.2.3-.4.5-.9 1.1.2-2.7.2-5 .4-7.3.4-3.9 0-7.8-.7-11.6-.1-.6-.3-1.1-.5-1.6-.9-3-2.9-5.4-7-3.5-.1 0-.2-.1-.7-.1zM130 219.4c-.2-2.3-.2-4.5-.5-6.8-.3-2.2-.6-2.3-2.9-2.4-1.9-.1-3.5.8-4.9 1.9-2.7 2.1-4.8 4.6-4.6 8.3.1 1.8.2 2.1 2 2.5 1.5.3 3 .5 5 .8-3.7 1.3-7 1.4-10.3.4-1.6-.5-2.5-1.6-2.9-3.3-.6-2.6-.4-5 1-7.2 1.9-3.1 4.4-5.6 7.8-7.1 3.3-1.5 8-.6 10.6 1.9 2 2 2 4.3 1.4 6.7-.4 1.5-1 2.9-1.5 4.3 0 .1-.1 0-.2 0zM294.1 408.3c-3.6 1.2-6.6 1.4-9.7.7-3.9-.9-6.6-4-7.1-8-.6-4.3 0-8.4 1.4-12.5.6-1.7 1.2-3.4 1.9-5 1-2.4 1.2-4.6-1.2-6.4 4 .2 6.2 2.8 5.7 6.9-.3 2.2-.8 4.3-1.1 6.5l-1.2 9.7c-.4 2.9 1.2 4.8 3.6 6.1 1.3.7 2.9 1.1 4.3 1.5.9.2 1.9.3 3.4.5zM148.8 208c1.9-3.9 4.9-7.2 4.6-12.1-1.3.6-2.3.9-3.2 1.5-2.4 1.8-4.7 3.7-7.1 5.6-.7.6-.9 1.3-.9 2.1-.1 2.6.9 4.8 2.5 6.7.5.6 1 1.2 1.7 1.9-4.3-1.7-7.5-5-8.5-8.6 9.6-7.6 18.6-16.1 26.9-25.4.8 6.2-9.4 24.3-16 28.3zM289.2 385c2.1-.7 3.5-.1 4.6 1.1 1.4 1.6 2.6 3.3 3.7 5.1 1.6 2.6 2.9 5.4 4.5 8.1.9 1.6 2.1 3 4.2 3.1-.6 2-2.4 2.5-4 3.4 3.4.9 5.1.2 12.7-4.8-.4 1-.6 1.6-.9 2.1-2.8 5.1-7.4 7.5-13.1 7-1.6-.1-2.7-.8-3.1-2.2-.9-2.7-1.6-5.4-2.3-8.2-.6-2.4-.9-5-1.4-7.4-.7-2.8-1.9-5.4-4.9-7.3zM309.6 287.4c-.7-1.2-1.3-2.4-2-3.6l-3.3-6c-3-5.3-7.3-9.1-12.8-11.6-.7-.3-1.5-.7-2.2-1.1-.1 0-.1-.1 0 0l-.9-10.7c.3.1.8.2 1.3.4 3.7 1.6 6.6 4.1 9.1 7.2 3.7 4.8 6.2 10.3 8.4 15.9 1.1 3 2.1 6.1 3.2 9.1-.3.3-.6.3-.8.4zM279.1 299c2.2-1.7 4.2-3.2 6.1-4.9 1.9-1.7 2.9-4.1 3.4-6.8 1 .8 1.9 1.6 3.1 2.5 3-4.9 2.4-10.2 2.4-15.7.4.5.8.8.9 1.2 3.6 8.7 2.2 16.8-3 24.4-.3.5-1 1-1.5 1.1-3.9.3-7.7.1-11.4-1.8zM283.2 178.4c-.5-4.2-1-7.9-1.5-11.6-.2-1.3-.8-2.2-2.1-2.7-4.2-1.6-8.3-.9-12.3.8-.6.3-1.1 1.2-1.3 1.9-1 3.3-1.8 6.6-2.7 9.8-.7-1.2-1-6.6-.5-12.2 5.2-4.6 18.8-4.4 26.2-1.5-.8 5.5-2.8 10.5-5.8 15.5zM301.4 214c-1.4-1-2.4-1.8-3.5-2.4-2-1.2-3.2-.9-4.6 1a6.1 6.1 0 0 0-1.3 4.1v3.6c-1.4-1.8-2.5-3.5-3.9-4.9-1.3-1.4-2.9-2.5-4.5-3.8 2.1-1.3 4.1-2.6 6.4-4-3.1-4-6.1-7.9-4.3-13.8.4.8.7 1.3.9 1.7.7 1.4 1.3 2.8 1.9 4.2 1 2.3 2.4 4.1 5.2 4.6.9.1 1.8.8 2.7 1.2 3.5 1.5 4.2 4.8 5 8.5zM180.3 130.2c-1.1-1.2-1.9-2.2-3-3.4-.7 1.6-1.4 2.9-2.2 4.8-1.8-4.4-3.7-8.1-7.5-10.4 2.9 7.1 4.7 14.3 2.8 22-.9-4.6-1.8-9.3-3.4-13.7-1.7-4.5-3.9-8.7-7.2-13 1.4.2 2.3.2 3.1.4 6.5 1.5 12 4.8 17 9.2 1.4 1.2.8 2.5.4 4.1zM233.3 111.1c-2.2-3.1-2.4-7.3-.6-10.1 1-1.6 2.6-2.1 4.4-1.5 1.7.6 2.9 1.8 3.9 3.2.6.8 1.1 1.6 1.7 2.5 3.2-1.3 3.7-4.3 4.6-7.3 3 3 .9 5.6 0 8.3 2.2 1.4 2.8 1.3 8-1.2-.3 1.6-1.1 2.6-2.2 3.4-2.7 2-5.9 2.6-9.2 2.6-1 0-1.2-.7-1.6-1.3a6.07 6.07 0 0 0-6.3-2.8c-2 .3-2.3.6-2.5 2.6-.1.4-.1.9-.2 1.6zM110.4 239.9c1.9 4.5 1.9 8.6.4 12.6-2.1-7.4-4.4-14.7-11.2-19.4.2-.1.4-.2.5-.2 8 1.5 15.3 4.4 21 10.4 3.4 3.6 5.4 7.8 5.6 12.9-.4-.5-.7-1.1-1.1-1.6-2.5-3.3-4.8-6.7-7.4-9.9-1.2-1.5-2.9-2.6-4.5-3.7-.9-.4-1.9-.6-3.3-1.1zM280.4 304.2c1.2.2 2.2.4 3.1.6.6.1 1.2.4 1.9.6 1.2 6 1.9 12.1 6.5 16.7-.9 1.5-1.8 3-2.7 4.6-.3-.2-.6-.4-.8-.7-2.2-3-4.8-5.5-7.8-7.7-.8-.6-1.3-1.1-1.2-2.2.4-3.8.7-7.7 1-11.9zM338.3 446.6c-2.4-.9-3.6-2.4-4.6-4.1-2.5-4.2-2.7-8.9-2.4-13.7.2-3.3 1.7-5.7 4.2-7.8 3.1-2.8 6.7-3.7 10.9-4-10.1 5.6-13.2 21.1-8.1 29.6z"/><path d="M371.2 355.9c6-1.8 8-1.1 8.9 3.1-1.7-.4-3.3-1.8-5.1-.8-1.9 1-1.9 2.8-2.1 4.6-2.8-.4-4.3-1.9-4.3-4.6 0-2.3.3-4.7.8-7 .7-3.7 1.8-7.2 2.4-10.9.5-3 .5-6-1.8-8.5 3-.6 6.8 1.9 7.2 4.7.1.6-.2 1.3-.4 1.9-1.6 5.1-3.3 10.2-4.9 15.3-.3.6-.4 1.4-.7 2.2zM279.9 187.1c-4.8-.8-9.6-1.9-14.5-1.8-1.4 0-2.8.2-4.1.4-.5.1-1.1.3-2 .6 3.5.5 6.8.2 9.4 3.5-7.5-1.5-13.7.7-19.6 4.8.2-.4.3-.8.5-1.1 2.3-3.3 4.6-6.5 6.8-9.8.7-1 1.5-1.5 2.8-1.7 7-1 13.4.4 19.4 4.1.5.3.9.7 1.3 1zM165.5 225.9c-.8.2-1.7.4-2.5.7-3.3 1.1-5.8 3.1-6.8 6.5-1.7 5.8-2.3 11.6-.9 17.6.4 1.5 1 2.9 1.6 4.5-3.6.6-6.9.2-10.7-1.1.9-.3 1.3-.5 1.7-.6.8-.2 1.6-.3 2.4-.5 2.1-.7 2.4-1.1 2.1-3.3-.7-5.2-2.5-10.1-4.6-14.9-.3-.7-.5-1.3-.8-2 0 0 .1-.1.2-.4 2 1 2.8 3.1 4.2 5.3.9-4.5 2.3-8.1 6.1-10.3 2.5-1.5 5.1-2.2 8-1.5zM413.9 340.3c.5 6.7-4.1 13.2-9.2 15.1.3-.8.5-1.5.7-2.1.5-1.8 1.2-3.5 1.6-5.4.8-4.3.2-8.1-4-10.5 0-4.1 1.2-6.9 3.7-8.6.2.9.2 1.8.4 2.6.3 1.3.5 2.7 1 4 .9 2.8 3.1 4.3 5.8 4.9zM360.7 444.2c-1.9-1-2.8-2.2-3.5-3.5-2.1-3.7-3.1-7.8-3-11.9s2.4-7.3 5.8-9.6c1-.7 2.2-1.2 3.3-1.5 2.7-.9 5.3.4 6.7 3.1-.2 0-.3.1-.5.1-4.5-.8-6.9.3-8.8 4.4-2.4 5.1-2.4 10.4-1 15.7.3.9.6 1.8 1 3.2zM378.5 332.9c3.4-.6 5.3.2 6.7 2.9 1.4 2.6 1.7 5.4 1.8 8.2.1 3.3 0 6.6 0 10.3 1.1-.3 1.8-.5 2.6-.6.8-.1 1.6-.3 2.4-.2.9 0 1.6.3 1.4 1.7-2.8.5-4.8 2.3-6 5.1-1.1-.3-1.5-1.3-1.9-2.1-1.3-2.4-1.9-5-2.2-7.6-.2-2.3-.3-4.5-.6-6.8-.5-3.9-.6-8-4.2-10.9zM394.2 286.8c-.2-.6-.3-1.3-.5-1.9-1.4-6-4.5-8.6-10.7-9.1-2.9-.2-5.8-.3-8.8-.5-2.9-.2-5.8-.7-8.5-2.1-.8-.4-1.6-1-2.2-1.9 1.5.2 3 .5 4.4.6 5.8.3 11.5.5 17.3.8 1.1.1 2.3.1 3.4.2 2.8.2 4.9 1.3 6.1 4 1.3 3 2 6 .3 9.1-.1.2-.3.4-.5.6.1.2-.1.2-.3.2zM311.8 386.1c1.8-.8 2.6-2.3 3.1-4 .3-1.3.2-2.4-.8-3.5-3.1-3.4-4.4-7.7-5.3-12.1-.3-1.3-.4-2.7-.3-4.2.3.4.6.8.8 1.2 1.5 3.1 2.9 6.2 4.5 9.2 1.6 2.9 3.4 5.7 6 8-1.5 4.6-4.5 7.9-8.6 10.7-1.4-3.2-4-4.6-6.9-5.5 1.9-2.8 3.3-2.7 7.5.2zM269.7 166.1c3.5-1.7 6.9-1.1 10.4.1.4 3 .2 5.9-.9 8.8-3.7.5-7.4.9-11.2 1.4.5-3.3 1.1-6.7 1.7-10.3zM370.5 255.2c-.1.4-.2.7-.4 1.1a48.4 48.4 0 0 1-13 16.1c-.9.7-1.9 1.1-3.1 1.1-4.8 0-9.2-1.2-13.6-3.5.7 0 1.5-.1 2.2-.1 3-.2 6-.4 8.9-.7 2.3-.2 4.4-1.3 6.1-2.8 3.6-3.1 7.1-6.4 10.7-9.6.6-.6 1.2-1.2 1.9-1.8.1.1.2.1.3.2zM111 281.1c2.2-6 2.3-11.9 0-17.9 2.8-.1 4.9 1.7 5.7 4.7.6 2.2.2 4.4-.2 6.5l-.4 2.3c2.9-1.8 4.5-4.1 5.9-6.6 1.3-2.5 2.5-5.1 3.7-7.7.5 9.5-6.6 18.6-14.7 18.7zM128 281.3c.6-3.2 0-5.9-.8-8.7-.3-1.1.1-2.5.4-3.7 1.8 1.6 1.9 3.8 2.6 5.8 2.9-1.3 3.5-2.6 5.5-9.5 5-1.4 10.5.3 13 4.1-.7-.2-1.2-.3-1.7-.4-1.8-.3-3.7-.7-5.5-.7-1.9-.1-3.2.6-3.9 2.8-.8 2.9-2.4 5.5-4.6 7.6-1.4 1.2-2.9 2.2-5 2.7zM266.7 151.1c.2 2.7 2.2 5.4.5 8.5-1.3-3.7-2.4-7.2-5.2-10.1 1.5-1.4 2.8-2.2 5-1.8 5.9 1 11.8 1.3 17.7-.3 2-.5 3.9-1.4 5.8-2.1-1.1 2.6-3.1 4.3-7.6 6.1-.1 1.8.2 3.8-1.2 5.6-.7-1.7-1.4-3.3-2-4.8-.5-1.1-1.2-1.8-2.7-1.6-1.7.2-3.4.2-5.1.3-1.7.3-3.4.2-5.2.2zM68.5 189.3c-2.5-.5-4.1-2-5.5-3.9-1.5-2.1-2.4-4.4-2.8-7-.6-4.3-.5-8.6.9-12.8 1.5-4.4 4.2-7.6 8.5-9.6.3-.1.6-.2 1.3-.4-2.9 3.6-4.9 7.3-6.2 11.4-1.5 4.6-1.9 9.2-.7 13.9.7 3.3 2.5 5.9 4.5 8.4zM249.3 277.4c-1.3 1.8-3.2 3.4-5.3 4.9-1.1.8-2.1.6-3.1-.1-2.5-1.6-4-4-5-7.1 3.1-1.6 6.1-3.2 9.1-4.7 1.5 2.4 2.8 4.6 4.3 7zM350.3 258.2c-3.3 4-7.4 6.5-11.9 8.8-3.2 1.7-6.3 1.9-9.6.4-2.2-1-4.4-2-6.6-3.1-.7-.4-1.4-1-1.9-1.8 10.7 2.9 20.5.1 30-4.3zM182.2 123.4c3.4 1.9 6.8 3.7 10.1 5.7 3.3 2.1 3.6 3.5 2.2 7.6-1.9-2.2-3.4-4.9-6.4-5.8-.3 5.5.5 10.8-.9 16-1-7.9-2.7-15.6-5.5-23l.5-.5zM197 127.4c4.1 2.4 7.6 5.3 10.5 9 1.8 2.3 2.6 4.6 1.2 7.5-1.8-2.3-2.5-5.4-5.3-7.3-.9 5.4-2.2 10.4-4.9 15 1.4-8.3 2.1-16.3-1.5-24.2zM93.4 262.4c.9-1.5 1.4-2.8 2.4-3.9 1.7-1.9 3-2 5.2-1s3.1.8 4.5-1.1c.7-1 1.2-2.1 1.9-3.2 1.5 2.8-.4 6.9-5 11.2 3 .2 5.9.3 8.5 2.8-1 .1-1.4.2-1.8.2-2.1-.1-4.2-.1-6.3-.2-2.2-.1-2.9-.7-3.5-2.7-1.1-3.5-1.7-3.7-5-2.1-.2.2-.3.2-.9 0zM308.2 324.4c1.1-3.4 2.2-6.3 2.9-9.3 1.2-5.4.2-10.2-4.4-13.8-.1-.1-.1-.3-.2-.4 3.5-.3 9.2 2.3 10.9 5.1.4.6.5 1.6.3 2.3-1.8 6-5.1 11.2-9.5 16.1zM300.9 420.1c-3 2.7-6.6 3.3-10.3 2.1-5.3-1.7-7.8-5.9-9.6-11.3 3.5 1 6.6 1.9 10.2 1.2-.9 1.2-1.6 2.2-2.4 3.2 2.9 4.8 7.4 4.8 12.1 4.8zM299.4 237.6c2.2 6.7 2.4 13.6 2.4 21-2.6-1.8-4.8-3.5-7.2-5.4l4.8-15.6z"/><path d="M376.4 360.4c.7 1.7 1.1 3 1.7 4.1 1.2 2.3 2.3 4.7 3.8 6.8 1.9 2.8 4.2 4.8 8.1 3.3-1 2.7-2.7 3.7-5.1 3.3-2.1-.4-3.9-1.4-5.2-3-1.7-2.1-3.4-4.4-4.7-6.8-1.3-2.6-.5-5 1.4-7.7zM284.8 131.4c.1 1.6-.6 2.7-1.5 3.6-1 1-2.1 1.8-3.1 2.7-1.1 1-2.3 1.3-3.8.5-.5-.3-1.3-.5-1.9-.4-3.4.7-6.8.4-10.4-.1.6 2.4 1.3 4.7 1.9 7-.1.1-.2.1-.4.2-1.9-3-3.8-6.1-5.8-9.3.5-.7 1.1-1.5 1.7-2.3 3.6 2 7.5 2.4 11.3 2.7 2.4.2 4.7 0 6.8-1.3 1.8-1.1 3.4-2.1 5.2-3.3zM287.4 373.4a9.34 9.34 0 0 1-4.1-5.5c-.9-3.7 1.9-7.3 5.8-7.7 2.5-.2 5.1.8 7.8 3.1-5.7.9-10.3 3-9.5 10.1zM323.7 412.1c-1.3 3.7-4.1 5.5-7.7 6.2-5.2.9-9.3-1.4-13.1-4.6 2.7-.9 5.2-1.8 7.6-2.7.3 2.7.8 3.1 4.2 3.1 3.1 0 6.1-.8 9-2zM268.1 388.7c1.7 1.3 3.4 2.6 5.2 4.1-1 4.7.7 8.9 3.8 12.7-1.2 1.2-2.3.7-3.3.3-1.9-.7-3.3-2.2-4.1-3.9-2-4.1-2.3-8.4-1.8-12.8 0-.2.2-.3.2-.4zM330.6 207.8c-1 2.4-1.9 4.7-2.8 7.1-3.6-.1-7.1-.3-10.9-.4.9-2.2 1.9-4.2 3.2-6 .3-.4.9-.8 1.4-.8 2.9-.5 5.9-.5 9.1.1zM270.5 106.5c-.4 3.3-2.6 5.4-5 7.5 1.1 1.3 2.3 2.6 2.6 4.8-1.2-.9-2-1.6-2.9-2.3-1-.8-2.1-1-3.4-.5-1.4.6-2.9 1-4.7 1.5l2 4.3c-5.5-2.6-8.2-5.4-6.9-9.5.3.3.7.5.9.7 1.7 1.4 3.6 1.8 5.7 1.2 3.1-.8 5.6-2.5 7.9-4.6 1.3-.9 2.5-2 3.8-3.1zM324.5 148.9c-1.3 1-2.4 1.9-3.6 2.7-.4.2-1.1.2-1.6 0-3.8-1.9-7.3-4.3-9.6-8-1.5-2.4-2.1-5.1-1.6-8 1.2 2 2.2 4.2 3.7 5.9 1.6 1.8 3.6 3.2 5.7 4.5 2.2 1.1 4.4 1.8 7 2.9zM274.2 331.7c3.4 1.7 6 4.2 8.7 6.8-.9 1.4-1.7 2.7-2.7 4.2-3.4-2-6.6-3.8-10-5.9 1.4-1.7 2.6-3.3 4-5.1zM403.9 371.6c-4 1.9-7.7 1.3-11-1.5-2.1-1.8-3.5-4-4.6-6.5-.2-.5-.4-1.2-.1-1.6.9-1.3 1.9-2.6 3-3.7.8-.8 1.9-.7 3.1-.1-.2.3-.4.6-.6.7-2.4 2-2.5 2.3-1.2 5.1 1.8 3.8 4.8 6 8.8 7 .8.3 1.7.4 2.6.6zM277.4 109.7c.6-9.6-1.5-18.7-5.2-27.5.3.3.7.6 1 1 3 4.5 5.4 9.3 7.3 14.3.3.8.5 1.8.3 2.6-.7 3.1-1.6 6.1-2.5 9.2-.1.2-.2.4-.3.7-.2-.2-.4-.2-.6-.3zM156.6 220.9c2.1-.4 4.1-.7 6.2-1.1 1.4-.3 2.8-.6 4.2-1.1 2.3-.7 2.8-1.4 2.8-3.9 0-1-.1-1.9-.2-2.9-.1-.9-.3-1.7-.3-2.6 3.8 3.8 4.3 8.6 4 13.6-5.6-.7-11.1-1.4-16.7-2z"/><path d="M275.1 118.7c-1.2 1.9-2.4 3.8-3.6 5.8 1.3 2.2 2.7 4.6 3.4 7.8-1.6-1.8-2.7-3.1-3.9-4.4-2.8-2.9-4.4-3.1-8.1-1.1.5 1.5.9 3 1.6 5-.7-.5-1-.6-1.2-.8-1.7-1.6-3.4-3.3-5-5-.3-.4-.2-1.2-.3-1.7 3.3-.3 6.4-.4 9.4-.8 3.3-.4 5-3.3 7.4-5.2 0 .1.1.2.3.4zM299.5 160.1c-.9-6.5-2.7-12.3-5.4-17.9 3.7-4.4 1.1-8.5-.3-12.8 2.8 2.2 4.6 5.1 5.3 8.6.1.6-.3 1.4-.7 2-.5.9-1.1 1.6-1.5 2.3.9 3 2 5.8 2.6 8.7.6 2.9 1 5.9 0 9.1zM293.8 164.5c2.2-.2 3.6.8 4.9 1.9.3.3.6.8.6 1.2.8 8.1 1.1 16.2-1 24.1-.1.4-.3.8-.8 1.2v-5.2c-.1-5.1-.1-10.2-.3-15.3 0-2.9-1-5.6-3.4-7.9zM381.4 328.1c-4.3-2.3-5.6-6.6-3.3-10.7 1.7-3.1 4.6-4.1 7.6-2.3-5 3.1-4.6 7.9-4.3 13zM344.4 431.7c3.9-.8 4.8-3.4 4.8-6.6v-4.7c1.3.2 1.8 1.1 2.2 2.1 1.2 3.2 1.3 6.5.8 9.8-.3 2.1-3.8 3.2-5.6 1.8-.7-.5-1.3-1.4-2.2-2.4zM159.4 214.3c6.3-6.9 7.2-15.1 8-23.4.2 1 .5 2 .5 3 .1 3.8.2 7.6 0 11.4-.2 5-3 7.9-8.5 9zM289.4 127.7c.3-2.1.6-3.7.9-5.3.4-2.4.2-4.7-1-6.8-1.5-2.8-3-5.7-4.5-8.6-.4-.7-.7-1.4-1.3-2.5.5.2.7.3.8.4 3.4 3.6 6.4 7.5 8.8 11.9.5 1 .8 1.9.4 3-.9 2.2-1.7 4.3-2.7 6.5-.1.4-.7.7-1.4 1.4zM415.7 167.8c4.4 5.4 5.6 14.3 2.7 18.9-.4-2.6-.4-5.2-1.2-7.6-.7-2.3-2.2-4.5-3.5-7.1.5-.9 1.2-2.5 2-4.2zM314.5 393.5c1.8-1.9 3.4-3.6 5-5.2 0 .2 0 .4-.1.6-.3 2.8.4 3.8 3.1 4.1 2.1.3 4.2.3 6.3.5-3.2 4.2-11.8 3.6-14.3 0zM67.4 256.6c-1.6 4.6.8 8.9 1.4 13.5-3.1-1.4-5.3-3.3-6.3-6.3-.7-2-.3-3.2 1.3-4.7l1.7-1.4c.5-.4.9-.9 1.4-1.3.2.1.4.1.5.2zM134.3 206.5c-2.6-.8-5-1.5-7.4-2.2 1.7-1.9 5.5-2.5 4.4-6.7 1.5 2.4 3.8 2 5.9 1.9 1-.1 2-.2 3.2 0-1.3.9-2.6 1.9-3.9 2.7-1.6 1.1-2.7 2.3-2.2 4.3zM137.5 244.2c-2.7-3.8-2.4-6.9 1.1-9.5 2.4-1.8 4.5-1.3 5.9 1.4-1.5 1-3.3 1.8-4.4 3.1-1.1 1.4-1.7 3.2-2.6 5zM402.7 327.3c-1.5 3.2-2.2 6.5-1.7 10.1-3-.2-3.1-3.4-5.3-4.3-.6.4-1.2.9-2 1.4-.2-.7-.5-1.3-.5-1.9-.2-1.7.8-2.9 2.4-2.4 1.9.5 3.1-.4 4.4-1.3 1-.6 1.8-1.1 2.7-1.6zM269.5 152.9c2.1-.2 4.1-.3 6.1-.4.4 0 .8.2 1.1.4 1.1 1.2 2.2 2.5 2.5 4.4-3 .3-5.9.6-8.8 1-.3-1.9-.6-3.6-.9-5.4zM145.9 227.9c-2.3-1.5-3-3.2-2.2-5.5.8-2.2 2.5-3.4 4.7-3.8 1.6-.3 2.8.5 3.5 2.3-3.4 1-5.5 3.2-6 7zM106.8 215.4c-.4-.8-.8-1.3-1-1.8-1.7.1-2.3 1.3-2.6 2.5-.1.6.5 1.3.9 2.1.1-.1.1 0-.1 0-1.2.3-2.5.6-3.4-.5-.8-1.1-.9-2.6-.3-3.7.7-1.3 1.9-2.4 3.1-3.3.9-.7 2.2-.5 3.2.2s.7 1.7.6 2.7c0 .6-.2 1.1-.4 1.8zM179.1 154.9c-3.5.3-6.8.7-10.1-.1-1.5-.4-2.9-.9-3.4-2.7 3.1.5 3.1.5 5.2-1.9.3.7.6 1.3.9 2 .7-.3 1.3-.6 1.7-.9 1.8 1.2 3.6 2.3 5.7 3.6zM372.6 433.6c1.8-.9 3.2-1.7 4.7-2.5-2.9 6.9-8 6.8-10.3 3 1-.5 2.1-.9 2.9-1.5s1.3-1.6 2-2.5c1.1.6.9 1.8.7 3.5zM181.3 156.5c3.3 1.1 4-1.8 5.6-3.9.6 2-.2 4.7 2.9 4.7-1 2.4-1 2.4-3.1 2.3-3.3 0-4.6-.8-5.4-3.1zM104.3 224.1c1.1-.1 1.7-.1 2.5-.1-.1.3-.1.6-.2.7-.6.4-1.1.9-1.8 1.2-1.6.6-3.1-.4-3.3-2.1-.2-2.5 1.7-4.6 3.9-4.5 1.2.1 2 .6 2.1 2h-2.4c-.2.8-.5 1.7-.8 2.8zM131 232c-1.6-1.5-1.5-2.9-.9-4.3.5-1.3 2.7-2.2 4.1-2.1 1.1.1 1.6.6 1.5 1.9-2.4.2-3.8 1.8-4.7 4.5z"/></svg>