<?xml version="1.0" encoding="utf-8"?>
<!-- Generator: Adobe Illustrator 22.1.0, SVG Export Plug-In . SVG Version: 6.00 Build 0)  -->
<svg version="1.1" id="Layer_1" xmlns="http://www.w3.org/2000/svg" xmlns:xlink="http://www.w3.org/1999/xlink" x="0px" y="0px"
	 viewBox="0 0 500 500" style="enable-background:new 0 0 500 500;" xml:space="preserve">
<style type="text/css">
	.st0{fill:#231F20;}
</style>
<g>
	<g>
		<g>
			<g>
				<path class="st0" d="M177.6,187.7l-0.3-0.4C177.4,187.5,177.5,187.6,177.6,187.7z"/>
				<path class="st0" d="M205,247.5l-0.2-0.1C204.9,247.5,205,247.5,205,247.5z"/>
				<path class="st0" d="M216.7,264.9l-0.1,0.5C216.7,265.1,216.7,265,216.7,264.9z"/>
				<g>
					<path class="st0" d="M218.7,232c-1.2-7.4-3.6-14.6-6.9-21.2c-3.3-6.6-7.4-12.6-12-18c-4.7-5.6-9.9-10.5-15.1-15.2l-3.9-3.5
						c-1.4-1.2-2.7-2.3-4.1-3.5c-0.7-0.6-1.3-1.2-2-1.8l-2.1-1.7c-1.4-1.1-2.8-2.3-4.2-3.4c-6-4.7-12.6-8.8-19.3-12.3
						c-6.7-3.5-13.5-6.3-19.7-9.6c-6.2-3.3-11.6-7.6-16-12.9c-4.5-5.3-8-11.3-10.6-17.9c-5.1-12.6-8.1-26.4-7.6-40.4
						c0.1-1.9,0.2-3.7,0.4-5.6c0.1-0.9,0.1-1.9,0.2-2.8l0.3-2.8c0.1-0.5,0.1-1.4,0.1-2.5c0-1.2,0-2.5,0-3.9c0.1-2.8,0-5.6-0.1-6.5
						c-0.1-0.9-1.6,4.5-2.1,6c-0.7,2.4-1.3,5.6-2,8.6c-0.6,3-1,6-1.2,8c-0.2,2-0.3,3.8-0.4,5.4c0,0.8-0.1,1.6-0.1,2.4
						c0,0.8,0,1.5,0,2.3c0,1.5,0,3,0.1,4.7c0.1,1.7,0.3,3.5,0.5,5.6c0.9,8.7,3,17.1,6.1,25.3c1.6,4,3.5,8,5.7,11.8
						c1.1,1.9,2.3,3.8,3.6,5.6c0.6,0.9,1.3,1.8,2,2.7l2.1,2.7c1.2,1.4,2.5,2.7,3.8,4l2.1,1.9c0.7,0.6,1.4,1.3,2.2,1.8
						c1.5,1.1,3,2.3,4.6,3.2l2.4,1.5l2.4,1.3c6.4,3.5,12.8,6.3,18.6,9.8c6.2,3.7,11.9,8,17.2,12.7l3.9,3.6l3.8,3.8
						c1.3,1.2,2.6,2.6,3.8,3.9l3.8,4c2.7,2.8,5.2,5.7,7.5,8.7c1.2,1.5,2.3,3,3.4,4.6c0.5,0.8,1,1.6,1.6,2.3c0.5,0.8,1.1,1.6,1.5,2.4
						c3.9,6.4,7,13,9.1,19.9c1,3.4,1.9,6.9,2.3,10.4c0.6,3.5,0.7,7.1,0.6,10.6c-0.2,7.1-1.7,14.3-4.2,21.2
						c-2.9,8-7.2,15.7-12.3,22.8c-3.2,4.5-6.7,8.8-10.4,13c-0.9,1-1.9,2.1-2.8,3.1l-1.5,1.6l-1.4,1.5c-1,1-1.9,2-2.9,2.9l-3,2.8
						c-4.1,3.6-8.4,6.8-13,9.7c-4.7,3-9.7,5.6-15,8.8c-4.7,2.8-9.5,6-13.8,9.7c-4.3,3.7-8.3,7.6-12,11.8
						c-7.3,8.5-13.2,18.2-17.3,28.8c-2.1,5.6-4.2,12.3-5.4,18.9c-1.2,6.6-1.5,13.1-0.6,18.1c0.4,2.4,1.6,3.3,2.8,3.4
						c-0.9-0.1-0.1-3.2,1.2-6.2c1.2-3.1,2.8-6.1,3-6.5c2.1-5.1,4-10.6,6.5-15.7c2.4-4.9,5.1-9.3,7.9-13.5c2.9-4.2,5.9-8.3,9.2-12.7
						c3.5-4.5,7.3-8.8,11.4-12.7c4.1-3.8,8.5-7.1,13.3-10.1c4.9-3,10.3-5.8,15.8-9.3c5.5-3.4,10.9-7.4,15.9-11.7
						c2.1-1.9,4.1-3.8,6-5.8c2-2,3.8-3.9,5.6-6c3.6-4,7.1-8.3,10.4-12.8c6.5-8.9,12.1-18.7,16-29.4c1.2-3.2,2.2-6.5,3-9.9
						c0.8-3.4,1.5-6.8,1.9-10.4c0.4-3.5,0.6-7.1,0.6-10.7c-0.1-1.8-0.1-3.6-0.3-5.4l-0.3-2.7C219,233.8,218.9,232.9,218.7,232z"/>
				</g>
			</g>
		</g>
	</g>
	<g>
		<g>
			<g>
				<path class="st0" d="M159.3,464l-0.4-0.1C159.1,463.9,159.2,464,159.3,464z"/>
				<path class="st0" d="M222,478.2l-0.1,0.1C222,478.3,222,478.3,222,478.2z"/>
				<path class="st0" d="M237,465.9l0.4,0C237.2,465.9,237.1,465.9,237,465.9z"/>
				<g>
					<path class="st0" d="M212,461.7c-11.2-2.2-22.5-4.4-33.8-6.5c-11.6-2.2-23.3-4.2-34.9-7.6c-12.1-3.4-23.5-8.3-34.8-13.7
						c-1-0.4-1.9-0.9-2.8-1.4l-1.4-0.7l-1.1-0.6c-0.9-0.5-1.9-1.1-2.6-2c-0.4-0.5-0.3-1.1-0.1-1.6c0.2-0.5,0.5-1,0.9-1.4
						c0.2-0.2,0.3-0.4,0.5-0.7l0.6-0.7c0.6-0.7,1.3-1.3,2-2c2.8-2.5,6.3-4.7,10-6.9c1.4-0.8,2.5-1.6,3.8-2.3
						c0.6-0.4,1.3-0.7,1.9-1.1c0.6-0.4,1.3-0.7,1.9-1.1c2.6-1.4,5.3-2.6,8.1-3.7c5.5-2.2,11.4-3.7,17.3-4.4c1.6-0.2,3.2-0.3,4.8-0.3
						c1.6-0.1,3.2-0.1,4.8-0.1c0.8,0,3.1-0.3,5.5-0.6c2.4-0.3,4.8-0.5,5.6-0.7c0.7-0.2-4-1.2-5.3-1.4c-2.2-0.3-4.9-0.8-7.6-1
						c-1.3-0.1-2.7-0.2-3.9-0.2c-1.2,0-2.3-0.1-3.2,0c-3.5,0.2-6.2,0.4-8.8,0.8c-1.3,0.2-2.6,0.4-4,0.7c-0.7,0.2-1.5,0.3-2.2,0.5
						c-0.8,0.2-1.6,0.4-2.5,0.7c-3.6,1.1-7.2,2.4-10.7,3.9c-1.7,0.8-3.4,1.6-5.1,2.5c-0.8,0.4-1.7,0.9-2.5,1.4l-2.4,1.4
						c-3.2,1.8-6.5,3.7-9.6,6.1c-0.8,0.6-1.6,1.3-2.3,1.9c-0.4,0.3-0.7,0.7-1.1,1.1c-0.3,0.3-0.9,0.9-1.3,1.4
						c-1.8,2-3.5,4.2-4.1,6.7c-0.3,1.2-0.2,2.6,0.3,3.8c0.7,1.8,2.1,3.3,3.7,4.7c0.8,0.7,1.7,1.3,2.6,1.9l1.2,0.8l1,0.6
						c2.5,1.4,5,2.8,7.6,4.1c5.1,2.6,10.4,5,15.6,7.3c3,1.4,6.1,2.7,9.2,3.9c3.1,1.2,6.3,2.4,9.3,3.4c6.2,2.2,12.4,4.2,18.7,6
						c13.5,3.8,26.9,8.1,40.8,10.7c13.7,2.6,27.6,4.4,41.6,5.4c8.2,0.6,16.4,1,24.6,1c20.8,0.1,41.5-2.8,61.7-8
						c9.1-2.4,18-4.9,26.8-8c8.8-3.1,17.4-6.7,25.7-11.4c4.4-2.4,9.5-5.4,14.1-8.8c4.6-3.3,8.8-7,11.3-10.6c1.2-1.8,1-3.2,0.3-4.1
						c0.5,0.8-2,1.9-4.7,2.8c-2.7,0.9-5.7,1.6-6.1,1.8c-4.5,1.6-9.2,3.8-13.8,5.6c-9,3.4-17.3,5.3-26.6,8.7
						c-19.4,7.2-39.2,12.8-59.7,15.4c-17.4,2.2-35.2,2.7-52.8,1.2C233.6,465.5,222.8,463.7,212,461.7z"/>
				</g>
			</g>
		</g>
	</g>
	<g>
		<g>
			<g>
				<path class="st0" d="M336.5,35.9l-0.6-0.1C336.2,35.9,336.4,35.9,336.5,35.9z"/>
				<path class="st0" d="M376.1,45.4l0.2-0.2C376.1,45.3,376,45.3,376.1,45.4z"/>
				<path class="st0" d="M358.2,61.5l-0.6,0.1C357.9,61.6,358.1,61.5,358.2,61.5z"/>
				<g>
					<path class="st0" d="M405.4,51.6c0.9-0.8,1.5-1.7,2.1-2.6c0.3-0.5,0.5-0.9,0.7-1.5c0.2-0.5,0.2-1.1,0.4-1.7
						c0.1-0.3,0.1-0.7,0.2-1c0-0.4-0.1-0.7-0.1-1.1c-0.1-0.7-0.1-1.3-0.2-1.9c-0.3-1.1-0.7-2.1-1.4-3.1c-1.2-1.9-3.3-3.7-6.1-5.3
						c-1.5-0.8-3-1.5-4.8-2.1c-0.4-0.2-0.9-0.3-1.3-0.4l-1.4-0.3l-2.7-0.6l-5.4-1.2l-2.7-0.6l-1.3-0.3l-0.7-0.1l-0.4-0.1
						c-2.2-0.3-4.3-0.6-6.4-0.9c-2.1-0.3-4.3-0.6-6.4-0.8c-2.1-0.2-4.3-0.4-6.4-0.7c-17.6-1.5-35-1.8-52.6-2.8
						c-9.4-0.5-18.7-1-28-1.3c-9.3-0.3-18.7-0.5-28.1-0.2c-2.4,0.1-4.7,0.1-7.1,0.3c-2.4,0.1-4.7,0.2-7,0.4
						c-4.6,0.3-9.2,0.5-13.8,0.6c-9.2,0.3-18.5,0.7-27.9,1c-18.1,0.7-36,3-54.1,3.9c-4.8,0.3-9.6,0.4-14.5,0.7
						c-2.4,0.1-14.2,2.2-16.5,2.8c-1,0.3,6,0.5,8,0.6c6.4,0.2,16.3,0.4,21.3,0.3c10.2-0.1,15-0.2,25.4-0.7c21.6-0.9,42.6-1.5,63.9-1
						c4.3,0.1,8.7,0.1,13.1,0c2.1,0,4.3-0.1,6.5,0c2.2,0,4.4,0,6.6,0c8.8,0.1,17.7,0.3,26.3,0.9c18.8,1.3,37.5,3.5,56.3,5.4
						c10,1,19.9,2.4,29.7,4.1l7.3,1.4l1.8,0.3l0.4,0.1l0.1,0l0.3,0.1l1.1,0.3l1,0.3l0.4,0.1c0.3,0.1,0.5,0.2,0.8,0.4
						c0.1,0.1,0.3,0.2,0.3,0.3c0,0.2-0.1,0.2-0.2,0.3c-0.2,0.1-0.5,0.2-0.7,0.3c-0.3,0.1-0.6,0.2-0.9,0.3l-0.2,0.1
						c-0.1,0,0,0-0.8,0.1l-3.6,0.6c-9.6,1.4-19.5,2.3-29.3,3c-11.5,0.8-23.1,1.3-34.7,1.5c-29.3,0.6-58.6,0.9-87.7-0.6
						c-26.4-1.4-51.8-5.2-78.2-8.1c-14-1.5-32.7-4.3-44.9-3.5c-3,0.2-4.1,1.4-4.3,2.5c0.3-1.8,15,4.7,16.1,5c6.6,2.2,14,3.8,21,5.6
						c13.7,3.4,25.9,6.9,40.7,8.8c31,4,62.2,5.3,93.5,5.5c26.6,0.1,53.2-0.7,79.8-2.4c8-0.5,16.1-1.1,24.3-2
						c2.1-0.2,4.1-0.5,6.2-0.7l3.1-0.4l2.3-0.3l3-0.5c3.9-0.7,7.9-1.6,11.3-2.7C401.2,54.7,403.8,53.2,405.4,51.6z"/>
				</g>
			</g>
		</g>
	</g>
	<g>
		<g>
			<g>
				<path class="st0" d="M362.8,327.7l0.5,0.3C363,327.9,362.9,327.8,362.8,327.7z"/>
				<path class="st0" d="M312.7,266l0.2,0.1C312.8,266,312.7,266,312.7,266z"/>
				<path class="st0" d="M294.6,252.3l-0.1-0.6C294.6,252,294.6,252.2,294.6,252.3z"/>
				<g>
					<path class="st0" d="M307.1,287.5c4.3,7.1,9.2,13.6,14.4,19.5c1.3,1.5,2.6,3,3.8,4.4c1.3,1.5,2.7,3,4.1,4.4l2.1,2.2l2.2,2.1
						c1.5,1.4,2.9,2.8,4.4,4.1c6.2,5.5,12.9,10.3,19.7,14.7c6.8,4.4,13.6,8.4,19.4,13.2c6.3,5,11.2,11.1,15,18
						c0.5,0.8,1,1.7,1.4,2.6c0.5,0.9,0.9,1.8,1.3,2.7c0.9,1.8,1.7,3.7,2.4,5.6c1.5,3.8,2.9,7.6,4,11.5c1.4,4.7,2.3,9.6,2.8,14.4
						c0.2,2.4,0.4,4.9,0.4,7.2c0,0.6,0,1.1-0.1,1.7l-0.1,0.8l-0.1,0.6c-0.1,0.7-0.3,1.3-0.6,1.9c-0.3,0.8-0.9,1.6-1.7,1.9
						c-0.4,0.1-0.9,0.1-1.3,0c-0.4-0.1-0.9-0.2-1.3-0.4c-0.2-0.1-0.4-0.2-0.6-0.2l-0.7-0.3c-0.7-0.3-1.4-0.7-2.1-1
						c-1.4-0.7-2.9-1.5-4.6-2.3c-3.7-1.8-7.6-3.5-11.5-4.9c-4-1.5-8-2.7-12.1-3.7c-8.2-2-16.5-3.2-24.9-4c-4.5-0.4-8.9-0.7-13.4-0.8
						c-1.1,0-4.5,0.3-7.7,0.8c-3.2,0.5-6.5,1.1-7.5,1.4c-0.9,0.3,5.5,0.7,7.3,0.8c2.9,0.1,6.6,0.4,10.1,0.8c3.5,0.4,6.9,0.8,9.1,1.1
						c4.6,0.6,7.9,1.2,11.2,1.9c3.3,0.7,6.6,1.4,11.2,2.6c7.7,2,14.9,4.9,22,8.4c1.8,0.9,3.6,1.7,5.2,2.7c1.7,0.9,3.5,1.9,5.5,2.9
						c1.3,0.6,2.5,1.1,3.9,1.4c1.3,0.4,2.7,0.6,4,0.5c1.3-0.1,2.6-0.7,3.6-1.5c1.1-0.8,1.9-1.9,2.6-3.1c0.6-1,1-2.1,1.4-3.3
						c0.2-0.6,0.3-1.2,0.5-1.8c0.1-0.3,0.1-0.7,0.2-0.9c0.1-0.2,0.1-0.5,0.1-0.7c0.3-1.9,0.4-3.8,0.5-5.6c0.3-8.2-1.1-16.7-3.4-24.8
						c-1.2-4-2.6-8-4.2-11.9c-1.6-3.9-3.3-7.6-5.4-11.4l-0.8-1.5l-0.9-1.5l-1.9-3c-0.6-1-1.4-1.9-2.1-2.8c-0.7-0.9-1.4-1.9-2.2-2.8
						l-2.3-2.6c-0.8-0.9-1.6-1.7-2.4-2.5c-1.6-1.7-3.4-3.1-5.1-4.7c-7-5.8-14-10.6-20.6-15.7c-7.1-5.4-13.4-11.4-19.2-18.1l-4.2-5.1
						c-1.4-1.7-2.9-3.5-4.3-5.3c-2.8-3.5-5.5-7-8.1-10.6c-1.3-1.7-2.5-3.5-3.7-5.3c-1.1-1.8-2.3-3.6-3.4-5.4c-1.1-1.8-2-3.7-3-5.6
						c-0.5-0.9-0.9-1.9-1.3-2.8c-0.4-0.9-0.9-1.9-1.2-2.9l-1.1-2.9c-0.3-1-0.6-2-0.9-2.9c-0.3-1-0.6-2-0.8-3l-0.7-3
						c-0.7-4-1.2-8.1-0.9-12.1c0.2-9.5,3.2-18.7,8.1-27.1c3.1-5.4,6.8-10.5,10.8-15.7c1-1.4,2-2.5,3-3.8c1-1.2,1.9-2.5,3-3.6
						l3.2-3.5c0.5-0.6,1.1-1.1,1.6-1.7l1.7-1.6c4.5-4.3,9.4-8.2,14.7-11.7c5.3-3.5,11-6.7,16.9-10.3c5.3-3.2,10.8-6.8,15.8-11.2
						c2.5-2.2,4.9-4.5,7-7l1.6-1.9l1.5-2c1-1.3,1.9-2.7,2.9-4c3.7-5.5,6.6-11.6,8.7-17.8c0.5-1.6,1-3.1,1.5-4.7
						c0.4-1.6,0.8-3.2,1.2-4.8c0.3-1.6,0.6-3.2,0.9-4.8c0.3-1.6,0.4-3.2,0.6-4.8c0.7-6.9,0.9-14.9,0.2-22.5
						c-0.5-3.8-0.9-7.5-1.8-10.9c-0.4-1.7-0.8-3.3-1.3-4.9c-0.5-1.5-1.1-2.9-1.6-4.3c-1.1-2.5-2.5-3.1-3.6-3
						c0.9-0.1,0.9,3.5,0.7,7.2c-0.3,3.8-1,7.6-1,8.1c-0.6,6.2-0.7,13-1.9,19.4c-2.1,12.3-5.9,22.6-11.4,33.4c-1.5,2.8-3.1,5.5-5,8.1
						c-1.8,2.6-3.9,4.9-6,7.2c-4.3,4.5-9.4,8.2-15.1,11.7c-5.7,3.5-12,7-18.1,11c-6.2,4-12.2,8.7-17.7,14
						c-4.7,4.4-8.8,9.3-12.8,14.3c-3.7,4.8-7.4,9.8-10.8,15.4c-1.7,2.7-3.2,5.6-4.7,8.6c-1.4,3-2.7,6.1-3.7,9.3
						c-0.5,1.6-1,3.2-1.4,4.8c-0.4,1.6-0.8,3.3-1,4.9l-0.4,2.5l-0.3,2.5c-0.2,1.7-0.2,3.4-0.3,5c-0.3,8.1,0.9,16.3,3.2,24.1
						C299.5,273.4,303,280.8,307.1,287.5z"/>
				</g>
			</g>
		</g>
	</g>
	<g>
		<g>
			<g>
				<path class="st0" d="M290.2,190.1l-0.3,0.2C290,190.2,290.1,190.1,290.2,190.1z"/>
				<path class="st0" d="M301.9,150.7l0.1-0.1C301.9,150.6,301.8,150.6,301.9,150.7z"/>
				<path class="st0" d="M293,164l-0.3,0.1C292.9,164.1,292.9,164,293,164z"/>
				<g>
					<path class="st0" d="M308.5,160.5C308.5,160.5,308.5,160.5,308.5,160.5C308.5,160.5,308.5,160.5,308.5,160.5L308.5,160.5
						C308.5,160.6,308.5,160.5,308.5,160.5l-0.2,0.4c-0.6,0.9-1.3,1.8-2,2.7c-3,3.6-6.3,7.1-10,10.3c-3.8,3.3-7.8,6.4-12.2,9.2
						c-4.3,2.9-8.9,5.5-13.7,8.3c-1.3,0.7-2.5,1.6-3.8,2.4c-0.6,0.5-1.3,0.9-1.9,1.4l-1.7,1.3c-1.1,0.9-2.3,1.8-3.4,2.8
						c-1.1,0.9-2.2,2-3.3,3c-4.3,4.1-8.1,9.1-10.7,14.6l-0.9,2.1c-0.2,0.3-0.3,0.7-0.5,1l-0.4,1.1c-0.5,1.4-1,2.8-1.5,4.2
						c-0.4,1.4-0.7,2.9-1.1,4.3l-0.5,2.1l-0.4,2.2l-0.8,4.3c-0.2,1.4-0.3,2.9-0.5,4.3c-0.2,1.4-0.3,2.9-0.5,4.3
						c-0.1,1.5-0.1,2.9-0.2,4.4l-0.1,4.2c0,1.4,0.1,2.8,0.1,4.2l0.2,4.2l0.1,2.1l0.2,2.1c0.3,2.8,0.5,5.5,0.7,8.3
						c0.3,2.8,0.6,5.5,0.7,8.3c0.1,1.5,0.2,3,0.3,4.4c0.1,1.5,0.2,2.9,0.4,4.4c0.1,1.5,1.8,8.6,2.3,10c0.2,0.6,0.3-3.7,0.4-4.9
						c0.1-4,0-10,0-13.1c-0.1-3.1-0.1-5.4-0.2-7.7c-0.1-2.3-0.1-4.6-0.2-7.8c-0.1-1.6-0.1-3.3-0.2-4.9c0-1.6,0-3.2,0-4.9
						c0-1.6,0-3.2,0.1-4.8c0.1-1.6,0.2-3.2,0.3-4.8c0.4-6.4,1.5-12.7,3.3-18.7c0.4-1.2,0.8-2.4,1.2-3.6l0.3-0.9
						c0.1-0.3,0.2-0.6,0.4-0.9l0.7-1.7c0.5-1.2,0.9-2.4,1.5-3.5c0.6-1.1,1.1-2.3,1.7-3.3c2.5-4.4,5.8-8.2,9.7-11.4
						c2.1-1.8,4.4-3.4,6.7-5.1c0.6-0.4,1.1-0.8,1.6-1.1c0.5-0.3,1.1-0.7,1.7-1c0.6-0.3,1.2-0.7,1.8-1c0.6-0.3,1.2-0.6,1.8-1
						c5-2.5,10.4-5.1,15.5-8.2c5.5-3.3,10.9-6.9,15.9-11.2c1.2-1.1,2.5-2.2,3.7-3.3c1.2-1.2,2.4-2.4,3.5-3.6
						c1.1-1.3,2.2-2.6,3.2-4.1c0.1-0.1,0.3-0.5,0.5-0.8c0.2-0.3,0.4-0.6,0.6-0.9c0.4-0.6,0.7-1.2,1.1-1.9c0.6-1.3,1.1-2.6,1.4-3.8
						c0.5-2.5,0.3-4.9-1-7c-0.7-1-1.6-1.9-2.6-2.4c-1-0.6-2.1-1.1-3.4-1.3l-0.9-0.2l-1,0l-1,0l-1,0.1c-0.7,0-1.4,0.1-2.1,0.2l-1,0.2
						c-0.3,0.1-0.7,0.1-1,0.2c-1.7,0.3-3.2,0.7-4.7,1.1c-6.1,1.7-11.8,3.4-17.6,4.8c-6.8,1.7-13.6,2.9-20.4,3.5
						c-8.6,0.8-17.2,0.8-25.7-0.3c-4.3-0.5-8.5-1.3-12.7-2.3c-2.1-0.5-4.2-1.1-6.3-1.7l-1.3-0.4l-1.5-0.5l-3-1l-6.1-2.1
						c-1.8-0.6-3.7-1.3-5.3-1.7l-1.2-0.3l-1-0.2l-1-0.2c-0.3,0-0.6,0-0.8,0c-2.2-0.1-3.5,0.2-4.5,0.7c-0.5,0.3-1.1,0.4-1.7,0.9
						c-0.3,0.2-0.6,0.6-1,1.1c-0.4,0.5-0.5,1-0.6,1.3c-0.2,0.6-0.2,1-0.3,1.5c-0.1,0.5,0,1,0.1,1.6c0.1,0.6,0.3,1.4,0.7,2.3
						c0.2,0.4,0.6,1,0.9,1.5c0.5,0.6,0.9,1.2,1.6,1.8c1.3,1.3,2.9,2.7,4.5,4.1c1.6,1.4,3.2,2.8,4.7,4.1c1.5,1.4,3,2.8,4.4,4.2
						l1.1,1.2c0.3,0.3,0.7,0.7,1,1c1.3,1.4,2.5,2.8,3.8,4.2c1.3,1.5,2.6,3.3,3.9,5.1c1.3,1.8,2.6,3.8,3.8,5.7
						c2.4,3.9,4.6,7.7,6.7,10.7c1,1.4,2.1,1.7,2.9,1.5c-0.7,0.2-0.9-2.2-1.2-4.6c-0.3-2.5-0.6-5.1-0.7-5.5c-0.9-4.2-2.9-8.5-5-12.6
						c-2-3.9-4.1-7.6-6.7-11.2c-0.6-0.9-1.3-1.8-1.9-2.6c-0.1-0.3-0.2-0.5-0.2-0.7c-0.1-0.4-0.1-0.6-0.2-0.7
						c-0.1-0.2-0.1-0.3-0.1-0.4c0,0,0-0.1,0-0.1c0,0,0-0.1,0.2-0.1c0.6,0.2,0.9,0.4,1.2,0.5c0.1,0.1,0.2,0.1,0.3,0.1l1.1,0.3
						l1.8,0.5c1.2,0.3,2.4,0.6,3.6,0.9c4.8,1.2,9.7,2.1,14.6,2.7c8.4,1.1,17,1.2,25.4,0.4c8.4-0.7,16.7-2.3,24.7-4.2
						c4.8-1.1,9.6-2.4,14.4-3.7c2.4-0.6,4.7-1.2,6.9-1.6C308.7,160.4,308.4,160.4,308.5,160.5C308.5,160.4,308.5,160.4,308.5,160.5
						C308.5,160.5,308.5,160.5,308.5,160.5z"/>
				</g>
			</g>
		</g>
	</g>
	<g>
		<g>
			<g>
				<path class="st0" d="M275.4,354.7l0.2,0.3C275.5,354.9,275.5,354.8,275.4,354.7z"/>
				<path class="st0" d="M236.8,321.1l0.1-0.2C236.8,321,236.8,321.1,236.8,321.1z"/>
				<path class="st0" d="M235.6,336l-0.2,0.2C235.6,336.1,235.6,336,235.6,336z"/>
				<g>
					<path class="st0" d="M246.6,330.6c2,0.7,4.6,3.5,7,6.9c2.4,3.4,4.7,7.3,7.1,11.1c4.9,8,10.2,15.9,15.5,23.9
						c2.8,4.3,5.7,8.5,8.9,12.5c1.6,2,3.2,4,4.9,5.9l2.5,2.9c0.9,0.9,1.8,1.8,2.7,2.8c3.6,3.7,7.3,7.1,11,10.6
						c3.8,3.4,7.6,6.7,11.6,9.9c7.8,6.2,16.5,10.8,24.9,15.9c1.1,0.7,2.2,1.4,3.4,2c1.1,0.7,2.3,1.3,3.4,2c0.6,0.3,2.4,1,4.2,1.7
						c1.8,0.7,3.7,1.3,4.3,1.4c0.6,0.1-2.6-2.1-3.4-2.7c-2.8-2.1-7.2-5.1-9.4-6.7c-4.5-3.1-6.6-4.5-11.2-7.7
						c-4.8-3.2-9.3-6.6-13.7-10.3c-2.2-1.8-4.2-3.7-6.3-5.7c-2-2-4-4-5.9-6.1c-6.1-6.8-12.8-13.6-18.1-21.2
						c-5.7-8.2-10.3-17-15.2-25.9c-2.6-4.7-4.9-9.6-7.5-14.5c-1.3-2.5-2.6-5-4.2-7.5c-1.6-2.5-3.3-5-5.9-7.4
						c-1.2-1.2-2.7-2.2-4.3-3.2c-1.7-0.9-3.5-1.6-5.5-1.9c-1.9-0.3-3.8-0.3-5.8,0c-1.9,0.4-3.8,1-5.4,1.9c-3.2,1.8-5.5,4.1-7.5,6.4
						c-2,2.3-3.6,4.6-5.2,6.9c-3.7,5.4-6.9,10.8-10.3,16.1c-8.4,13.3-16.8,26.4-26.7,38.5c-8.9,11-19,20.3-29,30.2
						c-5.3,5.3-12.8,12-16.4,17.7c-0.9,1.4-0.6,2.5-0.1,3.1c-0.9-1.1,7.5-4.1,8-4.4c3.4-1.7,6.7-4.2,9.9-6.4
						c6.3-4.3,12.2-8,18.1-13.7c12.2-11.9,22.8-25.2,32.4-39.2c4.1-6,8-12.1,11.7-18.2c3.7-6.1,7.4-12.3,11.2-17.9
						c1.2-1.7,2.4-3.3,3.6-4.7c1.2-1.4,2.5-2.7,3.8-3.7c1.3-0.9,2.4-1.4,3.4-1.6C244.4,330.1,245.6,330.3,246.6,330.6z"/>
				</g>
			</g>
		</g>
	</g>
</g>
</svg>
