<svg xmlns="http://www.w3.org/2000/svg" viewBox="0 0 410 410"><path d="M333.8 42.6c-.4.1-1 .2-1.5.1-1.9-.4-9.4 2-14.5 4.6-14 7.2-20.3 14.9-17.9 22 .9 2.9 2.2 4.2 5 5.1 2 .7 2 .7 1.3-.7-1-2.1.4-7.2 3.1-11 .8-1.2.9-1.2.2.6-1.8 4.8-2.4 7.9-1.6 7.9.4 0 .4.1 2-4.4 1-2.8 2.8-6.5 3.1-6.5.1 0-.4 1-.9 2.2-2.2 4.8-2.8 11-1 11 .7 0 1.3-1.4 1.8-4.2 1.4-7.3 9.8-19.5 16.5-24 1.5-1 1.5-.8-.1.9-5 5.4-10.1 16.4-10.4 22.6-.1 3 .8 2.9 1.2-.1.1-.6.5-2.1.8-3.3.4-1.2.7-2.5.8-2.9.8-3.8 5.8-11.4 11.1-16.9 3.3-3 3.6-4.1 1-3m-39.7 21.5c-.8.3-2.2.5-3.1.6-7.9.8-14.8 2.7-28.5 8a87.17 87.17 0 0 0-14 7.6c-3.4 2-5.5 3.6-8.9 6.6l-3.4 3.1-1.9.4c-1.1.2-3.2.3-4.8.3-4.4-.1-7.2 1.2-10.3 4.6-2.4 2.6-6.1 9.2-7.1 12.4-.3.9-.8 2.6-1.2 3.9-.9 2.8-.9 2.9 1.2 3.1.9.1 2 .3 2.5.5.7.3.9.2 2.2-.9 1.6-1.4 4.8-3 6.4-3.2 2-.2 1.9-1.7-.2-2.4-1-.3-4.4-.1-5.5.4-.6.2-.6.1.1-1.3 2.7-5.3 8.1-9.8 14-11.7 3.6-1.2 4.2-1.3 3.7-.6-.1.2-.3.7-.4 1.1-.1.4-.6 1.2-1.1 1.7-2 2.2-4.1 8.1-3.3 9.3.2.3.5.1 1.6-1.1 1.3-1.5 4.3-3.3 4.9-2.9.4.2.3 1.8-.1 3.6-1.8 7.7-1.7 17 .1 14.8.9-1.1 4-1.4 7.6-.8 2.5.5 2.7.4 2.4-.6-.2-.7-.5-.9-2.7-1.9-1.4-.6-5.5-.9-5.9-.5-1.6 1.6.9-3.1 2.8-5.3 2.6-3 3.4-5.3 3.1-9.6-.3-4 .1-5.7 1.5-7.9 1.8-2.7 6.1-7 7.8-7.9 3.6-1.8 3.7-1.8.8 1.2a32 32 0 0 0-6.2 8.7c-1.4 2.7-1.3 3.6.6 6.4.6.9 1.3 2.2 1.6 2.8.2.6.6 1.1.7 1.1.2 0 .6.5.9 1.2.3.6 1.3 2 2.2 3a124 124 0 0 1 6 7.6c1.5 2.1 2.2 2.6 2.2 1.7 0-.6-1.7-3.9-2.7-5.2-.4-.6-1-1.4-1.3-1.8-.3-.4-1.3-1.8-2.3-3.1-3.5-4.6-5.3-9.9-4.3-12.6 1-2.7 7.5-10 11.1-12.4 1.8-1.2 7.6-4 8.2-4 .1 0 1-.3 1.8-.7 10.7-4.7 22.4-2.9 24.7 3.9 1.7 4.8 1.2 12-1.1 17-.4.9-.7 1.8-.7 2 0 .2-.1.4-.2.6-.1.1-.4.7-.6 1.3-.7 2-4.5 9.4-6.1 11.8-3.4 5.1-5.6 6.9-8.5 7-2.4.1-3 .4-4.6 2.2-2.5 2.8-4.9 6.2-4.8 6.6.3.8 1 .3 4.2-2.6 3-2.8 3.3-3 4.3-3h1.1v1.2c0 .6-.1 1.2-.3 1.3-.1.1-.6.7-1 1.2-.8 1.3-.9 1.3-3.5 3.1-3.4 2.2-2.6 2.9 1.3 1.2 3.4-1.5 6.8-2 6.8-.9 0 1-4.1 3.2-7.3 3.9-1.6.3-1.7.7-.5 1 3.4.8 9.5-2.1 10.2-4.9.3-1.2.9-1.9 2.9-3.3 1.1-.7 2.2-1.8 2.5-2.3 1-1.7 3.5-8.8 3.2-9.3-.2-.3 1.2-3 2.8-5.3 1.2-1.7 1.8-2.7 3.9-6.6 4.2-7.9 10.8-14.7 16.6-17.1 5.9-2.5 9.4-3.1 14.3-2.5l1.9.2-1-1.1c-1.1-1.2-1.7-2.3-1.4-2.5.2-.2 1.5 1 3.5 3 .6.6 1.3 1 2.2 1.2l1.4.3-.1 1.1c-.1 1.5.4 3.1 1 3.3.9.3 1.1-.1.9-1.5-.2-1.5-.1-1.5 2.4.3s3 2.1 3.4 2c.5-.2 1.9 1.4 3.1 3.3.4.7 1 1.4 1.3 1.6.3.1.6.6.7.9.3.9.8.8.6-.1-.3-1.4-1.7-4.9-2.2-5.8-7.9-13.2-13.9-20.2-19-22-1.4-.5-2.1-1-3.7-2.2-1.4-1.1-3-1.9-4.1-2l-.9-.1-.5 2.1c-.4 1.9-.4 2.2-.1 3.2 1.5 4.6-2.9 7.8-10.6 7.8-1.7 0-4.4-.4-5.2-.8-.3-.1-1.3-.6-2.2-.9-6.9-2.9-10.7-9.8-8.2-14.8.9-2 .8-2.1-1.6-1.3m2.7 1.5c-1.4 1.6-1.2 4.3.5 7.1.8 1.4 3.3 3.9 3.8 3.9.1 0 .8.3 1.4.8.8.5 1.7.8 2.7.9 2.2.2 4.9.7 6.3 1 1 .2 1.3.2 1.5-.1.4-.6-.1-.8-2.5-1-3.1-.3-8.7-3-9.9-4.7-1.5-2.3-1.9-3.1-2.2-5.7-.3-3-.6-3.3-1.6-2.2m22.6 8.8c-.1.1-.2.4-.2.8 0 .5-.2.7-.9 1-1.4.6-1.9 1.7-.7 1.7.6 0 2.4-1.1 2.7-1.6.6-.8-.3-2.5-.9-1.9m13.2 6.3c.3.3.8.7 1.2.9.9.5.9 1.1.1 1.1s-2-.9-2-1.6c0-.3-.3-.9-.7-1.3l-.7-.8.8.5c.4.4 1 .9 1.3 1.2m-9.2 3.2c.8.7 3.5 1.7 4.4 1.5.7-.1.8 0 .8.4 0 .6-.5.8-1.6.8-.6 0-4.4-2.6-4.4-3 0-.2.4 0 .8.3m-29.2 2.4c.3 2.3.1 7.5-.3 8.7-.2.6-.6 1.9-.9 3-1.4 5.3-1.5 5.5-5 10.6-3.7 5.4-6.6 8.7-9.7 11.1-1.1.8-2.6 2-3.3 2.7-3.1 2.6-4.9 3.3-5.9 2.3-1.3-1.4-1.9-.6-.8 1.1 1.5 2.2 3.2 2.4 5.7.6.8-.6 2.1-1.5 3-2.1 10.4-7.2 15.9-15.4 18.3-27.1.9-4.5.7-9-.6-11.5-.6-1.2-.7-1-.5.6m25 1.7c.2 1.5-3.9 2.6-4.9 1.4-.5-.6-.1-.8 1.1-.7.9.1 1.3-.1 2-.7 1.1-1 1.7-.9 1.8 0m6.1 2.1c-1.7.8-1.7 2.1-.2 3.7.9.9 1.3.8 1.3-.4 0-.5 0-.7.1-.5.2.6 2.5 2.1 3.1 2.1 1.5 0 2.4-1.1 1.5-1.8-.2-.2-.3-.5-.2-.7.3-.9-.8-2.1-2.3-2.3-.5-.1-1-.3-1.1-.4-.3-.4-1-.3-2.2.3m-14.6 3c-.3 1.6-.7 2.1-3.7 3.8-.5.3-.9.3-1.6.1-1-.3-1-.7-.1-.7s2.8-1 2.8-1.4c0-.2.2-.5.4-.6.2-.1.7-.7 1.2-1.5.9-1.4 1.3-1.3 1 .3m7.7-1c-1.2.2-1.6.6-2.1 2.3-.6 1.8.2 3.7 1 2.4.1-.2.4-.1.7.3 1.3 1.3 4.8.1 4.5-1.5-.1-.4-.1-.5 0-.3.2.5 1.1.4 1.3-.1.1-.2 0-.5-.1-.7-.2-.2-.2-.4-.1-.5.2-.2-.6-1.7-1.1-1.8-.6-.4-2.8-.3-4.1-.1m18.8 5.9c-.2.6.4 1.2 1.2 1.2.8 0 2.3 1.3 2.4 2.1.1.8.9 1.3 1.3.8.3-.3.2-.5-.1-1.2-.2-.5-.6-1.2-.7-1.7-.5-1.4-3.6-2.4-4.1-1.2m-8.3 1.9c-.5.1-1 .5-1.3.9-.8 1.2.2 2.4 1.1 1.4.5-.5 2.8-.7 3.1-.2.4.6 1.2.3 1.2-.5 0-1.3-2.1-2.1-4.1-1.6M308 101c-1.5.7-3.9 3.8-3.7 4.9.2 1.4.9 1.2 2.7-.7 1.4-1.6 1.8-1.9 2.7-2 1.2-.2 1.8-.6 1.8-1.2 0-1.1-2.1-1.6-3.5-1m6.7 2.3c-1.2.6-2.2 4.4-1.3 4.7.7.3 1.2-.1 1.8-1.4.6-1.3.7-1.3 1.9-1.3 1.8 0 2.5-.7 1.7-1.7-.3-.5-3.2-.8-4.1-.3m7.9 1.6c-1 .5-.9 1.6.1 1.6.4 0 1.3-.1 1.9-.1.6 0 1.2-.1 1.3-.3.3-.4-.4-1-1.1-1-.3 0-.7-.1-.8-.3-.2-.3-.6-.3-1.4.1m-125.3 2.5c-.4.7-.4.8.1.8.2 0 .4-.2.4-.6 0-.8 0-.8-.5-.2m105.7 1.8c-1.1.5-2.8 3.4-2.5 4.4.3 1.2 1.3.8 2.4-.8.6-.9 1.3-1.6 1.8-1.8 1.1-.5 1.5-1.3 1-1.8-.6-.6-1.7-.6-2.7 0m17.8 1.3c-.8.3-1.6 1.2-1.6 1.8 0 .9.6 1 1.5.3.4-.3 1.2-.6 1.7-.7.7-.1.9-.3.9-.6.1-.8-1.3-1.3-2.5-.8m-12.9 1.1c-1.3.6-3.2 2.7-3.2 3.6 0 .9.8.8 1.7-.2 1.1-1.2 2.2-1.7 3.7-1.9 1.6-.2 1.7-.5.5-1.4-1-.8-1.3-.8-2.7-.1m-58.4 5.1c0 2.1-.1 3.2-.3 3.6-.2.3-.6 1.7-.8 3-.6 2.8-2.7 9-3.9 11.3-1.1 2.1-1 2.1.7 2.1 2.6-.1 9.5.3 9.9.6.3.3 1.1-.2.8-.4-.4-.4-4.9-1.7-5.6-1.7-.5 0-1.6-.1-2.3-.2l-1.3-.2 1.3-1.1c7.6-6 8.3-10.3 2.9-18.8-1.3-1.8-1.5-1.7-1.4 1.8m82.1-2c-1.2.5-1.7 2.2-.8 3 .5.5 1.2.3 1.2-.4 0-.5.1-.5 1-.2 3.7 1.3 5.2-.1 1.9-1.7-1.8-.8-2.6-1-3.3-.7m25.9 4.7c0 5.5-.9 10.3-3.2 16.5-1 2.8-1 3 .3 3.5 1.4.5 1.4.5 2.2-2.6 1.1-4.3 1.3-5.6 1.5-8.1.1-1.4.3-3.2.4-4.1.4-2.7-.3-9.4-1-9.4-.1 0-.2 1.9-.2 4.2m-59.5-3.7c-.7.3-2.1 3.2-2.2 4.4-.1 1.3 1.1.9 2.1-.9.5-.8 1.2-1.6 1.5-1.7.3-.1.7-.4.8-.6.7-.8-.9-1.7-2.2-1.2m-97 1.5c-2.9.4-7.5 2.5-9.9 4.6-4.3 3.7-8 8.3-9.1 11.1-1 2.5-1.6 4.5-1.6 5 0 .6-1.5 2.1-2.9 2.8-6 3.1-10.3 13.7-10.3 25.3 0 5.7-3.6 16.9-7.2 22.2-2.8 4.1-13.6 5.2-19.3 2-3.2-1.8-4.6-11.4-3.1-20.4.5-2.8.6-4 .4-6-.2-2.8.1-2.7.8.1.3 1.4.4 2.7.2 6.6-.5 14.3 3.7 20.3 13.1 18.7 2.6-.4 7.4-3.6 8.4-5.5 1.4-2.8 3.6-10.2 3.2-10.6-.1-.1-.9.7-1.8 1.6-1.9 1.9-4.2 3.3-6.5 3.8-8 1.7-11-1-11.6-10.4-.4-5.8-2.4-9.9-7.6-15.2-2.9-3-2.2-2.7-8.8-3.3-6.3-.5-7.5-1.1-7.5-3.6 0-1 .2-1.5.7-2.2 1.3-1.7 1.4-3.1.3-2.7-.8.2-3.7 4.4-4 5.8-.6 2.3 3.6 5.7 7.5 6.2 8.1.9 10.7 4.7 8.9 13.4-.3 1.5-.7 3.9-.9 5.5-.5 3.1-1.1 6.3-2.1 10.5-2.7 11.2 8.3 23.7 21.5 24.5 4.5.2 13-3 17-6.5 1.6-1.3 3.1-7.4 4.7-18 .9-6.2 1.4-8.1 2.2-9.7.3-.6.7-1.5.9-2.1 1.4-4.2 6.1-10.5 10.6-14.1 4.6-3.7 9.4-5 19.9-5.4 9.1-.4 11.5.1 17.4 3.1 3 1.5 4.8 2.2 7.7 3.1 4.3 1.3 8.1 3 11 5.1 3 2.2 3.5 2 3-1.2-.4-2.7-2.9-9.6-4.2-11.5-2.7-3.9-6.8-7.1-9.9-7.8-.4-.1-1.4-.7-2.3-1.3-4.5-3.2-5-3.5-7.1-4-1.1-.3-2.4-.5-2.7-.5-.4 0-1.4-.2-2.2-.5-3.4-1.1-10.3-2.5-13.3-2.6-.3 0-.2-.1.1-.2 2.4-1 15.4.2 21.3 2 1.8.6 3.5 1 3.6.9s.5.1.9.4c3.4 2.7-.6-4.7-5.5-10-5.4-6-16.1-10-23.9-9m118.1.7c-1 .5-1.8 1.3-1.6 1.9.1.5.2.5 2.3.2 1.6-.2 3.8.4 4.1 1.1.5 1.4 1.4 1.1 1.7-.6.2-1.5-.3-2-2.8-2.4-1-.2-2.1-.4-2.4-.4-.3-.1-.9 0-1.3.2m-10 1.6c-2.6.8-2.1 2.2.6 1.7.9-.2 2.1-.2 2.8-.1 1.5.2 1.9-.3.9-1.3-.7-.8-2.3-.9-4.3-.3m-6.5 1.5c-2.2.5-4.2 1.9-4 2.7.1.7.9.7 2.6-.2 1.3-.6 1.8-.8 2.6-.6 1.1.2 1.5-.3 1-1.2-.5-.8-1.1-1-2.2-.7m29.4 2.7c-1 .4.2 1.7 1.3 1.3.2-.1.7 0 1.2.2 1.3.5 2.4.5 2.4-.1 0-.8-3.8-1.9-4.9-1.4m-20.1 2.6c-1.4.5-1.9 1-1.6 1.7.2.5.1.5 3.4-.1 1.2-.2 1.7-.8 1.3-1.5-.5-.6-1.6-.6-3.1-.1m-8.4.3c-2.2.6-3.3 2.9-1.2 2.5 2.6-.5 3.1-.6 3.5-.8 1.9-.8 0-2.3-2.3-1.7m36.1 5.7c-4.8 3.3-7.7 10.9-6.5 17 .6 3.2 1.5 3.2 1.5 0 0-6.2 3-13.1 6.4-14.6 2.9-1.2 4.8-.3 5.2 2.5.1.7.2 1.5.3 1.6.2.6 1 .2 1.2-.6.1-.4.4-1 .5-1.3.7-1.4-.8-4.7-2.5-5.6-1.8-1-3.7-.7-6.1 1m-50.8 4.1c-2.1 1.8-4.9 3.5-7.7 4.5-1.1.4-2.3 1.5-2.3 2.1 0 .4 1.4 2.1 1.8 2.1.1 0 1.3.2 2.6.5 1.5.3 3.4.5 5.2.5 2.5 0 6.7.5 7.4.9.1.1 1.4.4 2.8.7 2.6.5 4.3 1.1 6.8 2.2.8.3 1.4.6 1.5.6.1 0 .7.4 1.5.9.7.5 1.4.9 1.6.9.1 0 .9.5 1.8 1.1.9.6 1.9 1.2 2.4 1.3.5.2 1.2.6 1.6 1l.7.7-.2-.8c-.2-.9-1.6-3.7-2.6-5.2-3.7-5.6-8.3-8.7-15.3-10.1-4.1-.8-6-2.2-6.3-4.5-.5-1.8-.7-1.8-3.3.6m53.6-.2c-4.8 3.5-8.1 13.9-5.6 17.4 2.2 3.2 4.7 4.9 2.9 1.9-1.4-2.2-1.4-4.6-.1-3.9 2.7 1.3 11.2 1.5 17 .4 5.6-1.1 5.3-1.3-2.8-1.4-8.4-.1-13.9-.8-13.8-1.7 0-.7.5-.8 1.4-.4 3.3 1.4 14.3 2 19.2 1 4.6-.9 11-3.2 12-4.4.3-.4.8-.7 1.1-.7.8 0 2.6-.8 2.8-1.4.5-1-.1-1.1-3.2-.4-5.8 1.2-18.5.5-23-1.3-.9-.3-.7.2.2 1.1 1.6 1.5 6.4 3 9.8 3.1 1.8 0 .6.5-1.4.5-6.7.1-12.7-3.8-13.5-8.7-.1-.7-.4-1.1-1-1.4-.9-.6-.8-.6-2 .3m-81.4.9c-1.2.4-.8-.1-2.9 4-2.1 4.2-3.1 6-5 8.5-.8 1-1.4 2-1.4 2.1 0 .7 11.9-.3 14.7-1.2 1.8-.6.5-.7-5-.6-5.7.2-5.7.2-3.2-1.5 2.2-1.5 5.4-4.9 6.2-6.4.7-1.6 1.5-4.5 1.3-5-.2-.4-3.2-.4-4.7.1m112.7 8.5c-.6.5-1.7 1.3-2.4 1.9-1.7 1.5-8.3 5.3-12.6 7.3-3.7 1.7-9.5 3.4-13.3 3.8-2.8.3-3 1.4-.2 1.4 6.4 0 20.7-5.9 27.3-11.4 3.5-2.7 4.5-5.3 1.2-3m-106.4 8.3c-1.4.2-1.3 0-3.2 3-1.7 2.5-3.4 4.4-5.3 5.7-1.8 1.3-1.4 1.5 3.1 1.5 1.3 0 3.3.2 4.4.4 2.3.5 3.6.5 5.3-.1 1.4-.5 1.5-.8.1-.4-.8.2-1.2.1-2.4-.4-.8-.3-2.2-.7-3.1-.8-2.3-.2-2.4-.3-.9-1.2 3.3-2.1 9.5-7.2 9.1-7.6-.3-.2-6-.3-7.1-.1m-64.1 4.1c-.8.2-1.6.5-1.7.6-.4.2-.2 13.4.2 15 .3 1 1.5 2.4 2.4 2.7.3.1.9.5 1.4.9 2.1 1.7 7.5 3.2 7.5 2.2 0-.4-1.1-1.2-2.3-1.7-2.6-1-4.8-4.4-5.8-8.6-.3-1.2-.2-3.8.2-9 .3-2.5.1-2.7-1.9-2.1m110.3.4c0 .1-.1.8-.1 1.4-.3 4.3-3.6 6.5-14.8 9.7-4.2 1.2-7.3-.7-10-6.1-1-2-1.9-3.6-2.1-3.6-.5 0-.5.5 0 1.6 3.8 8.7 5.7 11 9.2 10.9 7.6-.2 14.5-2.6 17.2-6.1 1.2-1.5 1.8-6.5 1-7.6-.2-.2-.4-.3-.4-.2m26.3 6.8c-.5.5-1.6 1.8-2.4 2.8-2.2 2.6-2.8 3.1-10.2 8-8.1 5.3-15 8.2-23 9.5-3 .5-3.4.7-3.4 1.8 0 2.5-7.4 7.4-13.1 8.6-1.3.3-2.9.7-3.6.9-1.4.4-14.1.6-16.4.2-1.6-.3-2.6-.1-2.7.5-.1.7 5 1.6 11.9 2 2.6.2 5.9.4 7.1.6 5.5.6 12.8-1.5 15.7-4.6 1.6-1.8 3-3.6 3.6-4.7.5-1.1 2.7-2.4 4.9-2.9 1.1-.3 5.4-2.1 10.4-4.6 3.1-1.5 5.7-3 9.6-5.7 1.6-1.1 3.6-2.4 4.5-3 3.8-2.4 9.2-8.7 8.7-10.1-.2-.5-.6-.3-1.6.7m-116.9 1.9c-1.1.3-3 .8-4.3 1.2-1.2.4-2.8.8-3.4.9-1.3.2-1.7.9-1.5 2.9.2 1.9 1.3 6 1.6 6 .6 0 1.4-1 2.3-3 1.2-2.4 2.4-3.6 5.9-6.3 3.3-2.6 3.3-2.6-.6-1.7m49.1.7c-1.1 1.1-3.6 2.9-5.7 4-4.3 2.3 7.8 5.4 12.6 3.2l.8-.4h-1.3c-1.5 0-7.4-.5-8.3-.7-.5-.1-.1-.4 3.1-2.1 4-2.1 6.5-3.3 7-3.6.4-.3-4.7-1.7-6-1.7-.9.1-1.2.3-2.2 1.3m-38.2 3.6c-.5.2-1.4.6-1.9 1-.6.3-1.1.6-1.3.5-.2-.1-.3.1-.3.3 0 .2-.6.9-1.5 1.7-3.1 2.7-3.3 3.2-2.6 6.7.2 1.1 1.2 1.4 2.2.7.4-.3.8-.5 1-.5.4 0 1-.9 2.7-4 1.2-2.3 2-3.5 3.2-4.6 1.9-2.1 1.3-2.8-1.5-1.8m-9.3 2.4c-.3.6-.5 1.1-.5 1.2 0 .2.9-1.2 1.1-1.8.3-.8 0-.4-.6.6m25.2 2c-.4.2-1.4.7-2.3 1.1-2.4 1.1-5.3 3-7.1 4.7-1 1-2.1 1.7-3.3 2.2-2 .8-2.1 1-1 1.4 2.8 1.1 9.1.1 9.1-1.5 0-1 3.2-4.7 5.3-6.1 1.4-1 1.6-1.3 1.1-1.9-.4-.4-1-.4-1.8.1m33.3.6c-.3.1-.7.4-.8.7-.5 1.1-3.3 2.4-6.1 2.9-5.6 1-5.2 1.8.9 1.8h4.6l2-1c2.3-1.2 4.4-3.7 3.5-4-.6-.3-3.4-.6-4.1-.4m-22 4.3c-2.1.9-4 1.9-4.8 2.6-1.1.9-3.3 2.2-3.8 2.2-.7 0-3.8 2.4-3.5 2.7.1.1 1.1.3 2.1.3s2.4.2 3.1.2c2.4.3 4.2-.6 5.3-2.8.6-1.3 3.4-4.5 4.8-5.4l.6-.4h-1.2c-.5 0-1.8.3-2.6.6m22.6 3.1c-1.7 1.1-4.3 1.7-8.7 2.1-7.8.8-11.8 1.7-14 3.1l-.9.6 3.2.2c10 .6 23.3-.8 28-3 1.8-.9 1.9-1.1.2-1.3-.7-.1-2.1-.6-3.2-1.1-2.6-1.3-3.3-1.4-4.6-.6m-54.7 9.1c-.9.3-.9.4-1.1 2-.4 4.1-2.3 13.3-3.3 16.4-.6 1.7-1.4 4.4-1.8 6-.4 1.6-1.1 4-1.4 5.4-1.1 4.2-1.7 7-2 9.7l-.9 6.3c-1.9 10.6-.2 24.9 3.9 31.9.5.9 1.4 3 1.9 4.5 2.3 6.8 7.4 13.7 11.4 15.5.4.2 1.6 1 2.6 1.8 2.3 1.8 5.3 3.6 8.2 4.7 1.2.5 3.8 1.6 5.8 2.5 3.4 1.6 6.2 2.4 8.1 2.4.5 0 1.4.3 2 .7 3.4 1.9 16 2.8 16 1.2 0-.3-1.7-.5-6.4-.8-1.9-.1-3.7-.4-4.2-.5s-1.3-.5-1.9-.7c-2.5-.8-4.4-1.6-4.8-2-.3-.2-1.1-.6-1.8-.7-.7-.2-1.4-.4-1.5-.5-.1-.1-.4-.2-.7-.2-3.1 0-8.8-5.8-9.7-9.9-.6-2.7 1.8-5.5 5.3-6.3 8.4-1.8 13-.2 19.8 7 1 1.1 2.7 2.8 3.6 3.8 1.4 1.5 2 2.5 3.4 5.3 2.3 4.7 2.1 4.2 4.3 13.9 1 4.2 1.6 6.9 2.2 9.1.2.9.7 3.5 1.1 5.8.4 2.4.8 5.1 1 6.1.3 1.3.3 1.9.1 2.3-.3.6-.2 2.2.3 5.6.3 1.7.3 2.8 0 5.9-.6 6.7 1 11.2 4.4 12.7.6.3 1.3.7 1.6 1 1.2 1.4 3 2 8.9 2.7 1.2.1 2.2.4 2.5.7.3.2 1.3.5 2.6.7 1.2.1 2.7.4 3.3.5 3.3.7 6.1 1.3 7.7 1.5 1 .1 2.5.4 3.3.7 2.4.7 7.8 1.9 10.5 2.4 3.2.6 3.6.8 5 2.2 2.7 2.6 4.8 7.1 5.5 12 1.1 7.4 3.3 10.8 5.5 8.5 1.8-1.9 1.5-3.1-.7-2.9-1 .1-1 .1-1.4-.9-.4-1.1-1-7.1-.8-7.4.6-.6 4.5 1.9 5.8 3.8.4.6 1.1 1.3 1.5 1.5.4.2 1.3 1 2 1.7 2.2 2.3 3.1 2.4 5.3.4 1.7-1.6 2.7-1.8 5.7-.7 1.4.5.8.8 4.5-2.6 1-.9 3.1-2.8 4.7-4.1 5.4-4.5 6.8-6.3 6.4-8-.5-2.1-6.9-5.1-8.1-3.9-.3.3-.3.4.7.6 4.5.7 4.3 6.6-.3 8.6-.5.2-2.5 1.9-4.4 3.8-4.6 4.5-4.7 4.6-5.8 3.7-1.3-1-2.6-1.1-3.8-.3-1.8 1.2-4.1.3-5.9-2.5-.6-.9-1.6-2.2-2.3-3s-1.9-2.5-2.7-3.7c-2.3-3.4-3.3-4.4-6-5.3-.7-.3-1.5-.6-1.7-.8-.2-.2-.6-.3-.9-.3-.6 0-2.9-.7-3.3-1.1-.6-.5-3.6-1.3-4.8-1.3-2.7 0-24.3-7-29.3-9.6-4.6-2.3-6-3.7-5.8-5.4.2-1.1-.1-2.1-.6-2.1-.4 0-.4-.1-.1-1.4.3-1.3-.1-12.4-.4-13-.2-.4-.3 0-.4 1.6-.4 4.2-1.7 12.7-2.1 13-.7.7-.7-10.4 0-13.6.3-1.3.7-3.6.8-5.2.2-1.6.5-3.7.7-4.8.2-1.1.6-3.5.9-5.5.3-2.1.7-4.1 1.1-4.9.8-1.9.9-13 .1-17.8-.9-6-1-7.6-.4-8.1.5-.4.5-.5.1-2.4-.2-1.1-.4-2.6-.4-3.3.1-1.8-.4-2.3-1.2-1.3-.3.4-.6.9-.6 1.2 0 .2-.2-.1-.5-.9-1.1-2.9-3-7.1-4-9-2.1-3.5-2.1-3.5-1.7-4.3.6-1.2-.3-1.9-1.4-1.1-1.3.9-4.7-3.5-3.8-4.8.7-.9.7-1.2.1-1.5-.7-.4-1.6.2-2.1 1.2l-.4.8-1.8-1.2c-1.8-1.2-2-1.5-1.4-2.1 1.3-1.1-.1-1.8-1.8-1l-1.2.5-1.4-.7c-2.9-1.5-6.2-2.5-11.4-3.6-2.2-.5-2.7-.7-2.8-1-.1-.9-.3-1.1-1.8-2.4-2.4-2-4.8-1.8-4.8.5 0 .7-1 .4-4.6-1.3-1-.5-2-.9-2-.9-.6 0-1.9-1.1-1.5-1.3.2-.1.4-.5.4-.7 0-.3.3-.8.6-1.1 1.5-1.5 0-3.9-2.2-3.3-1.2.3-1.8 1.3-1.5 2.8l.2 1-1-1.2c-.6-.6-1.2-1.5-1.5-1.9-.2-.4-1-1.5-1.7-2.4-1.5-1.9-2.8-5-1.6-3.8.5.5 1 .5 1.3.1.1-.2.4-.4.8-.5.7-.3 1-1.2.8-2.2-.2-.8-.8-1.1-1.5-.7-.3.1-.8.3-1 .4-.3.1-.5.4-.6.7-.2.8-.5.6-.7-.5-.1-.5-.4-1.9-.7-3-.3-1.1-.6-3.8-.8-6-.2-3.6-.3-6.7-.7-21.9-.2-8.6-.4-10.2-1.3-12.4-.8-2-1.5-2.4-3.4-1.8m2.1 10.9c0 1.8-1 3.2-1.4 2.1-.2-.5.8-3.8 1.1-3.6.2.1.3.7.3 1.5m123.5.6c-2.6 1.7-2.8 5.5-.3 7.1 2.3 1.4 4.5 4 7.1 8.2.5.8.9 1.5 1.1 1.7.1.2.8 1.1 1.5 2.1s1.5 2.2 1.9 2.6c.4.4.7.9.7 1.1 0 .2.2.6.5.9.3.4 1.2 2 2.1 3.7 1.7 3.3 1.6 2.9 1.1 6.8-.2 1.7.2 1.9.9.5.7-1.5 3.1-3.2 4.9-3.4a22 22 0 0 1 1.6-.2c.7-.1.6-.7-.3-1.1-3.3-1.4-5.1-3.2-6.9-6.9-.7-1.3-.6-1.3-4.1-5.7-2.3-2.9-5.9-8.5-6.5-10.1-.1-.4-.7-1.2-1.2-1.9s-1-1.7-1.1-2.1c-.2-1.3-.7-.9-1.1 1-.4 1.8-1.1 2.2-1.6.8-.7-1.8 0-3.7 1.9-4.8 1.2-.8 1.2-1 0-1-.7 0-1.4.3-2.2.7m-9.2 1.2c-1.2.6-2.5 1.4-3 1.8-.5.4-2 1.3-3.4 2-1.4.8-3.4 1.9-4.3 2.4-.9.6-2.4 1.4-3.2 1.9s-1.7.9-1.8 1.1c-.4.4-4.5 2.6-9.9 5.4-7.6 4-8.4 4.4-9.6 4.6-6.7 1-5.8 1.6 2.5 1.7 5.2.1 8-1 19.5-7.3 6.8-3.7 7.5-4.2 9.2-6.9.9-1.3 2.2-2.8 3.4-4 1.9-1.7 2.9-3.1 2.7-3.6 0-.1-1 .3-2.1.9m-113.8 4.5c0 .9-.6 3.6-.8 3.8-.6.6-.6-.3.2-3.7.1-.6.6-.7.6-.1m117.9 1.2c-1.2 1.2-1.5 2.1-1.1 2.8.2.3.2 1.1 0 2.8-.4 3-.5 3.5-1.4 5.5-.4.9-.8 1.7-.8 1.8 0 .1-.4.5-.8.9-1.4 1.3-.8 3.3.6 2.5.6-.3 1.6.3 2.1 1.4.2.4.5.8.7.8.6 0 .6-.9-.1-2.2l-.7-1.3.8-1.7c1.1-2.4 2.1-5.3 2.3-7.1.2-1.7.6-3.3 1-4.2.1-.3.2-.7.1-.8-.1-.1 0-.3.2-.4.4-.1-1-1.8-1.5-1.8-.2-.1-.8.4-1.4 1m11.6-.7c-.3.3.8 2.1 2.4 3.6.9.9 2.5 2.4 3.5 3.4 1.9 1.9 3.3 3.1 4.3 3.7 1.8 1.2 7.1 6.2 8.7 8.3 1.4 1.8 2.2 5.1 1.5 5.7-.5.4-.5.8-.1.8.5 0 1.5-1 2.4-2.3.9-1.3 2.3-2.3 3.6-2.6 1.3-.3 1.1-.9-.5-1.2-1.6-.3-2.4-.8-4.5-2.9-.9-.9-2.2-1.9-2.7-2.1-.6-.3-1.2-.6-1.4-.9-.2-.2-.5-.4-.6-.4-.1 0-.6-.3-1.1-.7-.5-.4-1.8-1.4-3-2.3-3.6-2.7-3.9-2.9-6.8-5.7-1.6-1.5-2.9-2.7-3-2.7-.1 0-.4-.3-.8-.8-.7-.8-1.6-1.2-1.9-.9m-133 4.5c-.1.6-.3.8-.7.8-.6 0-.5-1.1.1-2.5l.3-.7.2.7c.2.5.2 1.2.1 1.7m25.6-1.3l-2.9 1.1c-.8.4-2.1.8-2.9.9-6.6 1.2-7.4 9.7-1.2 13 .7.4 6.3.4 9.3.1 1.1-.1 1.7-.1 2 .2.3.2.9.3 2.3.2 1-.1 5.6-.2 10.2-.2s9.2-.1 10.3-.3c6-.7 11.1-.6 22.2.4 1.9.2 2.9-.3 2.3-.9-.5-.5-5.2-1.5-12.7-2.7-7.5-1.2-8.6-1.4-12.5-2.4-1.1-.3-3.4-.7-5-1-3.6-.5-5.3-1.2-6.6-2.8-4.9-5.3-9.9-7.2-14.8-5.6m-21.3 4.8c0 .6-.4 1.2-.8 1.2-.2 0-.3-.8-.1-1.4.3-.6.9-.5.9.2m30.5.2c1 2-.5 3.5-2.6 2.8-.8-.3-1.1-.5-1.1-.9 0-.7 1.1-.8 2.2-.3 1 .5 1.1.3.6-1-.5-1.7.1-2.1.9-.6m-9.6.9c.4 1-.7 2.8-1.4 2.3-.4-.3-.3-1.1.1-1.4.2-.2.4-.5.4-.8 0-.6.7-.7.9-.1m-36.7.5c-.6.2-2 .6-3.1.9-5.9 1.6-8.2 6.3-8.6 16.8-.2 4.7-.3 5.8-.9 8-.4 1.4-.8 4-1 5.7-.2 2.7-.4 3.4-1.1 4.8-1.1 2.3-1.3 5.3-.2 4.6.8-.5 3.5-7 4.4-10.7.1-.6.6-2.1.9-3.5.4-1.4.9-3.6 1.2-4.9 1.3-6.8 4-11.8 7.1-13.4.7-.3 1.2-.7 1.2-.7s.4-1.8.8-3.8c.9-4.2.9-4.3-.7-3.8m12.9.4c.9.9-.2 3-1.2 2.4-.6-.4-.7-1.7-.2-2.3.5-.5 1-.5 1.4-.1m28.3 2.1c.2 1-1.4 2.4-2.2 2-.6-.2-.3-1 .6-1.8 1-.8 1.5-.9 1.6-.2m11.2 1.6c.6 1.3-.3 2.9-1.4 2.7-.7-.1-.7-1 0-1.5.4-.3.7-.8.7-1.2-.1-.8.3-.8.7 0m-6 .5c0 .7-1.1 1.7-1.8 1.7-.9 0-1.2-.6-.6-1.1 1.1-.9 2.4-1.2 2.4-.6m-9.5 1c.2.6-.4 1.5-1 1.5-.8 0-1-.7-.5-1.3.5-.6 1.3-.7 1.5-.2m-16 .5c-.7 1-.3 3.1.6 3.1.5 0 1.3-.8 1.4-1.5.4-1.8-1.1-2.9-2-1.6m39.2 1.2c-.1.4-.3.6-.7.6-.7 0-.7-.9.1-1.4.6-.5.8-.2.6.8m-43 .3c-.1.9-1 1.2-1 .3 0-.7.2-1 .7-1 .2 0 .3.2.3.7m108.6.8c-1.1.4-1.7.4-3.4.2-3.6-.4-8.7 1.4-10.7 3.7-1.1 1.3-.5 1.8.7.5 1.1-1.2 5.5-2.6 7.1-2.3.3.1 2 .2 3.7.4l3.2.3.9-.7c1.1-.8 2.4-.9 3.3-.2.8.6 1.2.7 1.2.1 0-.5-.8-1.7-1.1-1.7-.1 0-.6-.2-.9-.5-.7-.4-2.2-.4-4 .2m-78.2 1.5c-.9.7-.9 2 0 2.1 1.1.1 2.4-.9 2.3-1.7-.1-.9-1.4-1.1-2.3-.4m-33.6 1.4c.2.7.2.9-.2 1.3l-.5.6-.3-.5c-.2-.3-.2-.7-.2-1 .1-.2.2-.6.3-.8.3-.6.6-.5.9.4m27.4-.1c-.4.6-.4.7 0 1.1.5.5 1.4.3 1.8-.5.7-1.3-1-1.9-1.8-.6m-6.1.1c-2 .4-2.3 1.9-.4 2 2.2.2 3.7-1 2.5-1.9-.6-.4-.6-.4-2.1-.1m-25.9.3c.4.5-.2 1.8-.8 1.8-.5 0-.7-1.3-.2-1.8.4-.4.6-.4 1 0m-116.2 1c-.9 1.6 4.1 6.5 5.7 5.6.4-.2.3-1.1-.1-1.4-.6-.5-1-.5 9.9-.6 5.6-.1 10.6-.3 11.1-.4 3.9-1 .2-1.6-9.4-1.6-8.4 0-11.6-.2-12.7-.8-.5-.3-1.2-.5-1.7-.5s-1-.2-1.2-.4c-.5-.6-1.3-.5-1.6.1m130.6-.1c-.7.7-.3 2.4.6 2.4.6 0 .9-.4 1.1-1.3.4-1.3-.7-2.1-1.7-1.1m147.2.4c-1.4 1.5-1.3 4.4.2 7.5 1.2 2.5 1 2.6-1 .6-.9-.9-1.9-1.7-2.2-1.8-1.3-.3-3.1-.4-3.3-.1-.1.1.2.2.6.2 1 0 3.6 1.7 4.9 3.3.6.7 1.5 1.8 2.1 2.4 3.1 3.4 5.8 8.5 5.4 10.2-.3 1.2.5 1.8 1.3 1.1.4-.4.4-.4.8 0 .3.4.4.4 2.6 0 1.2-.2 2.7-.4 3.2-.4 2.1.2 1.1-1.1-1.5-1.8-.4-.1-1.3-.6-2-1.1-.7-.5-1.5-.9-1.6-.9-.1 0-1-1.5-2-3.4-.9-1.9-2.1-4-2.5-4.6-.4-.6-1-1.6-1.3-2.2-.3-.6-1-1.8-1.6-2.7-1.5-2.5-1.7-2.9-1.7-4.3 0-.9.1-1.5.4-1.8.5-.6.6-.8 0-.8 0 0-.5.3-.8.6m-59.7 1.3c-1.1.5-1.6 1.7-1.1 2.7.2.4.5 1.1.7 1.4 1.3 2.7 5.8 5.7 8.7 5.8 4.9.1 7.1-3.9 4.1-7.2-1.2-1.3-1.8-.8-.8.5 1.5 2.1-.6 4.6-3.4 4-1.4-.3-5.2-4.6-4.6-5.2.3-.3.7.2 1.2 1.2.7 1.4 3.4 3.8 3.4 3 0-.1-.4-.6-.9-1.2s-1.1-1.7-1.4-2.5c-.8-2.2-3.7-3.5-5.9-2.5m-220.9.8c-.1.4-.1 1.2 0 1.8.4 3.1-4.8 17-8.3 21.8-1.3 1.8-.8 2.6.7 1.1 2.4-2.6 9.3-16.3 9.3-18.6 0-.5.4-.6.6-.2.3.4 1.2.3 1.3-.1.1-.3-.3-.8-1-1.6-1.5-1.6-1.8-2.2-1.7-3.5.2-1.4-.6-1.9-.9-.7m36.8-.3c-.4.5-.3 2.8.1 2.8.2 0 .4.1.4.3 0 .1.4.8.9 1.4.5.6 1.6 2.6 2.5 4.4 2.3 4.7 7.9 12.8 11.1 16.3.6.6 1.8 2 2.7 3 1.7 1.9 3.5 3.5 3.9 3.5.9 0 .2-1.2-2.4-4.1-3.1-3.5-9.3-13.9-11.2-19-1.9-5.1-3.3-7.1-5.4-8.2-1.5-.8-2.2-.9-2.6-.4m87.8 2.9c.2.5-1.1 2.6-1.5 2.4-.5-.2-.2-1.5.4-2.2.6-.7.9-.7 1.1-.2m143.3.4c-2.3 1.1-3.1 1.8-3.6 3-.8 1.7-.1 2.4 1 1 1.8-2.4 1 .5-1.6 6.2-1.3 2.9-1.4 3.2-2.6 6.1-.6 1.6-1.2 3.2-1.3 3.6-.1.4-.6 1.1-1.1 1.6-1.1 1-1.2 2.2-.5 4.8.6 2.1.9 2.2.9.3 0-1.4.2-2 1.1-3.9.6-1.2 1.3-2.8 1.6-3.5.3-.7.7-1.6.9-2.1 1.2-2.6 1.7-3.8 2.2-5.1.3-.8.9-2.2 1.3-3 .4-.9.7-1.7.7-1.7s.4-1 .9-2.1c1.4-2.9 3.4-4.2 4.7-3 .9.8 1 .5.4-.9-.9-2.2-2.5-2.6-5-1.3m-15.6 1.6c-.2.4 0 .8.5.8 1.3 0 2.8 2.5 2.9 4.8l.1 1.6-.5-1.3c-2-5.3-5.6-6.4-7.4-2.3-1.1 2.6-1.2 6.1 0 5.7.3-.1 1.1-.3 1.7-.4.9-.2 1.1-.4 1.1-.8 0-.3.1-.7.1-.8 0-.1.1-.7.1-1.2.1-3 2.7-1.6 4.4 2.4.5 1.1.9.7 1.1-1 .7-4.3-.3-6.8-3.2-7.5-.4-.3-.8-.2-.9 0m-116.7 1c-.7.7-.5 1.9.4 2.8 1.2 1.1 2.4.3 2.1-1.4-.2-1.8-1.4-2.4-2.5-1.4m7.6 2.7c-1.3 1.3 1.3 4.1 3.2 3.4.7-.3.4-.9-1-2.3-1.5-1.5-1.7-1.6-2.2-1.1m26.4.1c0 .9 4.8 4.5 9.1 6.6 1.9 1 4.6 2.6 6 3.6 1.3 1 4 2.8 5.8 4.1 4.1 2.8 5.3 3.9 7.9 6.9 1.1 1.3 2.6 3 3.4 3.8.8.9 2.3 2.9 3.2 4.5 3.3 5.6 4.7 7.6 6 9.1 9.7 10.1 15.5 33.1 11.6 46-.2.6-.6 2-.9 3-.3 1-1 2.6-1.6 3.5s-1 1.8-1 1.9c0 .6-2.1 3.4-4.8 6.3-1.2 1.3-1.5 1.7-1.1 1.8 1.5.3 6.7-6.2 9.6-11.9l1.3-2.6c1.4-2.5 2-6.7 2.2-15.6l.1-5.8-1-4.9c-.6-2.7-1.3-5.6-1.6-6.4-.3-.8-.7-1.8-.8-2.3-.2-1.2-1.6-3.8-3.8-7.6-1.9-3.2-2.7-4.2-6.9-8.6-2.4-2.5-3.2-3.6-5.8-7.5-.8-1.2-2.2-3-3.1-3.9-.9-.9-2.2-2.5-3-3.4-1.6-2.1-4.4-4.7-5.7-5.3-.5-.2-1.6-1-2.5-1.6a82.9 82.9 0 0 0-14.7-9.1c-2.5-1.1-6-3.4-7-4.5-.2-.3-.9-.5-.9-.1m-44.9 4.3c.5 2.2.4 3-.5 3-.5 0-.5-.1-.4-.8.1-.4.2-1.7.2-2.8 0-2.2 0-2.1.7.6m6.2 0c0 .8-.3 1.1-.7.6-.2-.2-.2-.9-.1-1.7l.2-1.4.3.9c.2.5.3 1.2.3 1.6m21.1-1.9c-.2.4-.2.6.2 1.1.7.7 1.6.3 1.5-.7-.1-1-1.3-1.2-1.7-.4m-128.9 1.1c-.5.4-.8 1-.9 1.8-.5 2.9-3.4 7.4-7.6 11.5a65.2 65.2 0 0 0-4.9 5.3c-1.5 1.7-3.3 3.7-4 4.6-2.1 2.3-1.6 3.8.7 2.1 3.1-2.3 16.4-16.5 16.4-17.5 0-.5.4-.3.9.6 1.2 1.8 2.4 1 1.8-1.3-.4-1.7-.4-3.9.2-5.2.7-1.9-1.1-3.2-2.6-1.9m5.3-.1c-1.3 1-1.6 3.6-.6 6 1.3 3.1 2.7 2.3 2.2-1.3-.2-1.6-.2-2.2 0-2.3.5-.3.7-.2.7.3 0 .6 1.4 1.6 2.2 1.6.3 0 1.5 1 2.7 2.3a31 31 0 0 0 4.1 3.6c1 .7 3 2.2 4.5 3.4 6.6 5.2 12.4 9.1 13.9 9.3 1.6.3 1.1-.5-1.3-2.3-1.2-.9-3.3-2.5-4.5-3.5l-5.3-4.4c-5.4-4.5-7.9-6.8-9.8-9.1-1.5-1.9-2.6-2.6-3.9-2.7-.5 0-1.2-.3-1.6-.5-1.1-1-2.5-1-3.3-.4m92.8 1.9c.8 2.3.8 3 .1 3.8-1.2 1.3-2.2.4-1.2-1.1.6-.8.6-1.1.4-1.9-.2-1-.3-3.1-.1-2.9.1.1.4 1 .8 2.1m20.9-.1c-.6 1.1 1 2.6 1.9 1.8.5-.4.5-1.2-.1-1.8-.6-.6-1.4-.6-1.8 0m14.3 1.4c-1 1-.4 3.9.8 3.9 1 0 1.3-.5 1.1-2.1-.2-2.4-.8-2.9-1.9-1.8m-6.4.1c-.1.2 0 .5.1.7.4.4 1.1 0 1-.5-.1-.6-.9-.8-1.1-.2m98.4 0c-1.6.5-2.6 1.9-1.3 1.9.6 0 3.9 3.5 4.8 5 .5.8 1.4 2.3 2 3.2.6.9 1.1 1.8 1.1 2 0 .5 1.2 2.9 1.6 3.2.6.5.8.2.5-.6-.2-.4-.5-1.7-.7-3-.3-2.1-.5-2.5-1.3-3.3-2.3-2.4-4.2-5.8-4-6.9.5-1.7-.4-2.1-2.7-1.5m-120.1 6.3c.1.9-.4 1.9-1.1 1.9-.6 0-.7-.8-.2-1.3.5-.6.6-1.1.3-3l-.2-1.3.5 1.4c.3.8.6 1.8.7 2.3m8.4-2.3c.5.7 1.3 1.8 1.9 2.5 2.3 2.7.5 7.5-2.2 5.8-1.1-.7-1.3-1.2-.2-.7 1.2.6 1.4.5 1.9-1.1.6-2 .4-2.7-1.1-5.3-1.1-1.9-1.4-2.5-1.2-2.5 0 0 .4.6.9 1.3m-13.6 1.8c.9 2.6.5 4.2-.9 4.2-.9 0-1-.5-.4-1.2.7-.7.8-1.9.4-4-.2-1.6.2-1.1.9 1m40.5-1.3c-.9.9-.9 1.9 0 3.1 1.2 1.6 2.8 1.1 1.9-.6-.4-.7-.5-1.3-.4-2 .2-1.3-.4-1.5-1.5-.5m-47 2.5c.5 2.2.3 3.3-.9 3.4-.7.1-.8-.7-.1-1.7.3-.5.4-1.1.4-2.2-.2-2 0-1.9.6.5m55.1-.8c-1.5 1.8 0 4 3.4 5.1 2.1.7 2.7.6 2.8-.4.2-1.6-.6-2.6-1.2-1.5-.6 1-4.2-1.1-3.8-2.2.3-1-.6-1.7-1.2-1m-16.6 2.7c0 2.6-5.2 3-6.8.5-.5-.8 0-.8 1.4-.1 1.9 1 4.2.8 4.2-.3 0-.7.5-1.4.9-1.2.2.1.3.5.3 1.1M397 259c-1.3.2-1.4.4-1 1.2.3.5.3.9.1 1.9-.5 2.2-.8 3.5-1.1 3.9-.1.2-.4.9-.5 1.5-.3 1-1.2 3.2-2.5 6.2-1 2.1-2.4 3.3-2.4 1.9 0-.6-.3-.5-1.1.4-1.1 1.2-.5 4.3 1 6 .3.3.6.8.8 1.2.6 1.1 2.6 1.7 3.8 1.2.8-.4.9-1 0-1-2.2 0-2.5-4-.7-8.2.4-1 1.3-3.1 1.9-4.8.6-1.6 1.5-3.7 1.9-4.7.5-.9.9-1.8.9-2 .5-1.3 1.7-3 2.5-3.4 1.9-1.2-.5-1.9-3.6-1.3m-156.7 1.8c.4.7.9 1.7 1.2 2.1.8 1.5-.4 3.9-1.7 3.3-.2-.1-.6-.2-.8-.1-.4.2-2.2-.6-2.2-1 0-.3.4-.3 1.5.2 2.1.9 2.7-1 1.4-3.8-1.3-2.5-.7-3.1.6-.7m47.1-1.1c-.6.4-1.2 1.5-1.2 2.3 0 1.3 2.2 4.1 3.3 4.1 1.2 0 1.1-.8-.4-2.7-1.2-1.6-1.3-1.7-.9-2.3.8-1.1.2-2.1-.8-1.4m-36.9 2.2c2.1 2.5 2.4 3.4 1.5 5.1-.8 1.6-1.9 1.9-3 .8-.6-.7-.3-.9.5-.4 2.1 1.4 2.6-2.1.7-4.5-1.9-2.5-1.6-3.3.3-1m-155.7-.5c-.4.5-.6 2-.3 2.6.1.4-.1.9-.8 1.9-3.4 4.9-3.6 13.3-.3 15.3 2 1.2 5 .7 7.1-1.1 1-.9.8-1.4-.4-.8-1.1.6-3.3.5-3.8-.1-1.3-1.4-.9-8.6.5-11.9.3-.8.6-1.6.6-1.9s.1-.5.3-.5c.4 0 .3-.9-.2-1.3-.2-.2-.6-.8-.9-1.5-.5-1.1-1.2-1.4-1.8-.7m138 3.4c.3 1 .9 2.4 1.2 3.2.9 1.8.3 3.4-1.1 3.4-.9 0-1-.7-.2-1.5 1-1 .9-2.1-.8-7-.1-.3 0-.3.1-.1.1.1.5 1 .8 2m-81.7-1.7c.1.1.8.8 1.7 1.6 1.7 1.4 2.8 2.5 6.4 6.4 3.7 4 4.2 5.1 5.8 12.8 1 4.6 1 5.6.5 9.9l-.2 1.4 1.6 1.5c2.5 2.4 4.6 2.5 2.3 0-1.5-1.6-2-3.8-1.5-6.9.4-2.8 1.3-7.2 1.6-8.1 1.8-5.7 1.7-6.3-1.4-7.8-1.3-.7-3.2-1.8-4.1-2.4-.9-.7-2.4-1.7-3.4-2.3-.9-.6-2.1-1.5-2.7-2-1.5-1.4-6.8-4.7-6.6-4.1m114 .8c.3.4.9 1.3 1.4 1.9 1.3 1.7 1.1 3.2-.3 3.2-.6 0-.7 0-.5-1.1.1-.9 0-1.4-.6-2.7-.4-.9-.8-1.8-.8-1.9-.1-.4.3-.2.8.6m-67.7.8c-.7.3-3.9 1.8-7.1 3.5-6.6 3.4-7.5 3.7-10.8 4.2-3.1.5-4.5.9-5 1.5-2.1 2.4 11.1-.6 19.9-4.4 4.3-1.9 6.1-2.1 7.3-.9 1.3 1.4 3 0 1.9-1.5-1.9-2.6-3.8-3.3-6.2-2.4m82.4.9c.1-.1.4.5.7 1.3.6 1.5.6 2.6-.3 3-.9.4-2.1.7-2.1.5 0-.1.2-.3.5-.4.8-.2 1.1-2.2.6-3.6-.5-1.3-.5-1.4 0-1 .4.2.6.3.6.2m-174.7.7c0 1.9-5.1 9.1-5.9 8.4-1.1-1-1.8 1.6-.8 2.9 1.2 1.5 5.3-3.3 6.5-7.5.6-2.1.8-3.9.5-3.9-.1 0-.3.1-.3.1m185.9.9c-.7.8-.7 1.2-.1 2.3.3.4.7 1.4.9 2.2.4 1.3 1.5 2.5 2 2.3.6-.2.8-.9.4-1.4-.8-.9-1.6-3.5-1.3-4.3.7-1.7-.9-2.5-1.9-1.1m-29.5 2c1.9 3.8-.9 6.1-4.1 3.3-1.3-1.2-1.1-1.3.7-.4l1.3.6.9-.7c1-.8 1.1-1 .4-2.9-1.1-2.6-.5-2.6.8.1m-13.7 2.1c.6.6.6 1.5 0 2.4-.3.5-2 1.1-2.6 1-1.5-.4-1.3-1.7.3-1.7 1.4 0 1.9-.8 1.3-2.3-.4-1-.4-1.1 0-.7.2.4.6.9 1 1.3m39.7 2.4c.7 1.5.5 2.6-.5 3.2-1.2.6-1.6-.3-.6-1.2.7-.6.7-1-.2-3.1-1-2.3.2-1.3 1.3 1.1m-6.4-.1c1.1 2.3.9 4.3-.5 4.3-.7 0-.9-.7-.4-1.5s.5-1.8 0-3.2c-.5-1.5.1-1.2.9.4m-172.9-.2c-.4.4-.1 1.9.6 4 .4 1.2 1 3.1 1.2 4.1.2 1 .6 2.3.8 2.9.2.5.6 2.1.9 3.4.7 3.5 1.5 4.9 2.2 3.9.3-.5-1.3-10.8-1.8-12.3-.1-.3.1-.3 1.1 0 2.1.5 3.1-.6 1.2-1.3-3.5-1.4-4.5-2.2-4.9-3.7-.3-1-.9-1.4-1.3-1m132.7 1.8c.3.8.5 1.6.5 1.7 0 .2.3.2.6.1.8-.2.9.2.1.6-.3.2-1 .7-1.5 1.2-.9.9-1 .9-1.2.4-.2-.4-.2-.6.1-.7.4-.1.4-.5.3-2.5-.2-2.7.2-3.1 1.1-.8m137-1.1c-5.9.8-10.3 5.9-8.5 9.7 1.9 4.1 7.6 4.7 13.1 1.5 1.7-1 3-2.1 2-1.7-2.8 1-5.9 1.3-8.1.6-1.6-.5-3.5-2-3.5-2.7 0-.3.1-.3.5 0 3.5 3 12 1 12-2.9 0-1.4-.3-1.5-2-.3-2.5 1.7-5.3 2.2-6.6 1.3-1.7-1.2-.5-3.7 2.2-4.8.7-.3 1.2-.6 1.2-.7 0-.4 0-.4-2.3 0m-84.6 1.4c-.7.9.4 5 1.6 5.7 1 .6 2-1 1.1-1.9-.5-.5-.9-1.5-1.1-2.8-.1-1.5-.9-2-1.6-1m-164.7 2.3c-1.5.7-2 1.6-2.2 3.4-.1 2.2 0 2.7 1.4 4.1 1.5 1.5 1.7 1.5 1.3.1-1.1-4.7 5.2-6.3 9-2.3 1.6 1.7 2.4 1.4 1.1-.4-2.6-3.7-7.9-6.2-10.6-4.9m179.8.1c0 .2.2 1.6.4 3 .5 3.7.5 6.3-.1 8.1-.3.8-.6 2.7-.8 4.2-.2 1.5-.5 3.9-.8 5.3-.3 1.5-.6 4.1-.6 5.8-.1 2.9-.4 4.9-1.3 7.7-1 3.3-2.2 11-2.6 18-.4 5.5.1 10.5 1 11.4.5.5.7-.6.7-5.2.1-7.3 1.6-20.8 2.6-22.1.4-.6 1.6-4.4 2.1-6.8.3-1.4.9-3.6 1.3-5 .4-1.3.8-2.6.8-2.8 0-.2.2-.5.4-.7 1.2-1.2 1.1-10.7-.2-15.8-1.1-3.4-3-7-2.9-5.1m-30 3.1c.5 1.2.3 2.4-.5 2.4-.5 0-.6-.2-.8-2.6-.2-2.2.3-2.2 1.3.2m10 .6c.9 2.5.8 3.6-.3 3.6-.5 0-.5-.1-.4-1.4.1-.9 0-1.9-.3-3-.7-2.8-.3-2.5 1 .8m3.4-1.2c.7 2.4.3 3.7-.8 3-1.1-.6-1.6-4-.6-4.3.9-.2 1.1-.1 1.4 1.3m-7.3 1.6c1.2 2.5 1 4.5-.3 4.5-.4 0-.5-.2-.5-1.5 0-.8-.2-2-.4-2.6-.9-2.7 0-3 1.2-.4m-151.2 3.2c-.9.5-1.4 2.3-.5 2.3.3 0 1.1 1.1 2 2.7.4.7 5.9 6.4 8.2 8.4 1.2 1.1 1.7 2.2 2 4.3.1 1.1.3 1.7.8 2 .8.7 1.1.3.9-1.1-.1-.8 0-1.6.3-2.6.5-1.7.4-1.9-1.8-3.1-3.1-1.7-9.4-9-9.7-11.2-.3-1.5-1.2-2.3-2.2-1.7m256.1.5c-.6.4-1.7 1-2.5 1.3-.8.3-1.7.6-1.9.8-2.5 1-7.2 1.7-9.1 1.3-1.7-.4-1.8-.4-2.1-.6-.2-.1-.3-.1-.3 0 0 .8 3.6 1.9 6.4 1.9 4.7 0 12.4-3.1 12-4.8-.2-.8-1.3-.7-2.5.1m-97.8.8c.7 3.8.3 5.7-1.2 5.9-.9.1-1-.7-.2-1.7.3-.4.5-1.1.5-1.6 0-2.7.6-4.3.9-2.6M110 289.6c-.7.8-1.1 2.5-1.2 4.6 0 1.6-.2 2.5-.7 3.9-.7 1.8-1.3 4-1.6 5.4-.4 2.1 3.3 2.5 4.3.4.5-.9-.1-1.3-1-.7-1.2.7-1.4.5-.6-1 .9-2 1.9-5.2 1.9-6.1 0-1.1.2-1.5.8-1.3 1.2.3 1.4-.2.4-1.2-1-1-1.6-2.8-1.4-3.7.3-.7-.4-.9-.9-.3m178.5 2.6c.4.1.6.3.6.4-.1.1-.6 0-1.1-.2-.6-.2-.8-.4-.6-.4.2-.1.7.1 1.1.2m-2.8 3c.6 1.1.6 2.9.1 2.9-.4 0-.6-.3-.8-1-.5-1.6.1-3.1.7-1.9m7.8 1.8c.6 2.1-.1 3.2-1.3 2.1-.6-.6-.7-2.4-.1-2.4.2 0 .4-.2.4-.7 0-1.1.7-.4 1 1m-129.8-.5c-.4 2.3-3.9 3.2-12.9 3.3h-2l-.5 1.1c-.6 1.3-.7 3.8-.2 4.5.6.8.9.3 1.1-1.7.2-1.7.5-2.4.8-1.8.1.2.3.2.6 0 .2-.1 1.9-.3 3.7-.4 3.3-.1 5.1-.5 8.4-1.7 1.7-.6 2.6-.7 3.6-.5 1 .3.9-.2-.6-2-1.7-2-1.8-2-2-.8m-45.9 3.4c.8 1.8 2.2 6.6 2.2 7.6.1 4.9-5.4 3.6-6.7-1.5-.4-1.5-1-1.6-2-.4-1.1 1.3-1.3 1.9-.8 2.4.2.2.7 1.1 1.2 1.9 1.8 3.2 7.7 8 9.8 8 3.7 0 3.9-3.8.7-11.4-.6-1.5-1.1-2.6-1.1-2.6 1.5 1.7 3.9 6.1 4.3 7.9.3 1.7.7 2.2.9 1.5.8-2.1-2.5-8.5-6.6-12.5-1.3-1.3-2.4-1.8-1.9-.9m154.1 7.1c-1.1.1-2.1.3-2.3.4-.3.3.4 1.9.8 1.9.1 0 .7.7 1.4 1.6 2.3 3.1 5 6 7.5 8 4.5 3.8 6.6 4.4 3.5 1.1-3-3.2-5.9-7.9-7.2-11.7-.6-1.5-.7-1.5-3.7-1.3m-107.3 28.5c-12 2.1-23.9 9.1-32.2 18.8-5.7 6.8-4.1 15.6 4 21.7 1.9 1.4 4.2 2.6 5 2.7.4 0 1.2.3 1.8.6 1.2.6 3 1.3 4.3 1.5.6.1-.1-.4-2.2-1.5-8.6-4.5-13.1-11-12.1-17.6.4-2.9 1.2-4 5.8-8.7 2.1-2.1 4.3-4.5 5-5.2 3.7-4 11.3-8.1 16.4-8.9.8-.1 2.3-.4 3.3-.6 2.7-.6 7.4-.8 9.9-.4 7 1 13.5 2.9 19.6 5.6 1.3.6 6.8 3.8 8.6 4.9.8.5 4.5 3 8.1 5.4 3.6 2.4 7.3 4.8 8.1 5.3s2.3 1.5 3.3 2.1c1 .6 2.5 1.5 3.2 2 .8.4 2.5 1.4 3.8 2.1 4.8 2.6 9.8 4.6 13.3 5.2.9.2 2.3.5 3.1.7 4.7 1.2 22.2 3.1 26.2 2.8 7.4-.5 9.3-.8 9.3-1.5 0-.5-.1-.5-1.5-.4-2.1.2-14.4-.2-16.8-.6-1.1-.2-4.2-.6-7-.9-5.7-.8-9.2-1.5-10.1-2-.3-.2-1.6-.5-2.8-.7-7-.9-16.8-5.7-26.6-12.9l-4.6-3.3c-1.4-1-3-2.2-3.6-2.7-.6-.5-2.3-1.6-3.9-2.5-1.6-.8-3.3-1.8-3.9-2.1-11.4-6.5-26.5-10.4-34.8-8.9m139.8 9.5c-.2.6.1 1.1.4.5.2-.3.2-.5 0-.7-.2-.1-.3-.1-.4.2m68.9 10c-2.3.8-4.2 3.3-4.2 5.5 0 1.3.2 1.2 1.1-.2 2.4-3.9 8.1-2.1 8.4 2.6.2 1.9.3 2.1 3.2 3.1 1.7.6 2.6-2.4 1.2-4.1-.3-.4-.9-1.5-1.3-2.4-1.8-4-5-5.7-8.4-4.5m-231.6 3.4c-2 2.4-1.9 7.7.2 10.9.6 1 3.2 3.1 3.6 3.1.2 0 1.2.6 2.2 1.2s2.4 1.5 3 1.7c.6.3 1.2.6 1.4.8.5.6 4 1.9 5.6 2 .9.1 2.7.3 4 .5 12.9 1.8 21-3.1 17.7-10.5-1.5-3.5-5.8-5.5-8.8-4.1-1.9.9-3.6 3.6-3 4.7.2.3.2.1.3-.7 0-3.4 6.1-3.2 8.5.3 1.7 2.4-.6 6-4 6.4-.9.1-2.5.4-3.5.6-2.2.5-6.7.7-10.8.4-3.5-.2-5.9-1.2-10.5-4.3-1.3-.9-2.6-1.6-2.9-1.7-2.8-.9-4.3-7.9-2.3-10.7 1.2-1.9.7-2.3-.7-.6m220.4 10.3c-1.4.8-2.7 3.1-1.4 2.5 2.1-.9 4.8-.1 6.5 1.8 2 2.4 3.5.7 2-2.2-1.1-2.2-4.8-3.3-7.1-2.1M144 377.1c.5.3.9.5 1 .4.1-.1-.2-.3-.6-.6-1.2-.5-1.4-.5-.4.2"/></svg>