<?xml version="1.0" encoding="utf-8"?>
<!-- Generator: Adobe Illustrator 21.1.0, SVG Export Plug-In . SVG Version: 6.00 Build 0)  -->
<svg version="1.1" id="Layer_1" xmlns="http://www.w3.org/2000/svg" xmlns:xlink="http://www.w3.org/1999/xlink" x="0px" y="0px"
	 viewBox="0 0 500 500" style="enable-background:new 0 0 500 500;" xml:space="preserve">
<style type="text/css">
	.st0{fill:#231F20;}
</style>
<g>
	<g>
		<g>
			<path class="st0" d="M175.4,152.3l-0.4,0C175.2,152.4,175.3,152.4,175.4,152.3z"/>
			<path class="st0" d="M228.7,136.9l0,0.2C228.7,137,228.7,137,228.7,136.9z"/>
			<path class="st0" d="M233.8,119.5l0.3-0.1C233.9,119.4,233.8,119.5,233.8,119.5z"/>
			<g>
				<path class="st0" d="M213.2,127.3c-9,3.4-17.9,6.7-26.9,9.5c-4.6,1.4-9.3,2.8-14,3.7c-4.8,0.9-9.6,1.5-14.5,1.4
					c-10.4-0.3-20.7-2.3-31-4.8c-5.2-1.3-10.3-2.9-15.4-4.6c-5.1-1.7-10.2-3.5-15.5-5.2c-10.2-3.3-20.8-4.8-31.4-6.8
					c-1.4-0.3-2.8-0.5-4.3-0.8c-1.4-0.3-2.9-0.5-4.4-0.6c-0.7-0.1-2.9,0.1-5,0.4c-0.3,0-0.5,0.1-0.8,0.1c-0.1,0-0.3,0.1-0.4,0.1
					c0,0,0,0,0,0l0,0c0,0,0,0,0,0.1l-0.1,0.5l-0.1,0.4c-0.2,0.5-0.3,0.7-0.4,0.8c-0.1,0.1,0.1-0.1,0.3-0.1c0.1-0.1,0.3-0.1,0.5-0.1
					c0.2,0,0.4,0,0.6-0.1l0.2,0c0,0,0,0,0,0c0,0,0,0,0,0l0,0c0,0,0-0.1-0.1-0.1c0-0.1-0.1,0-0.3,0.1c-0.1,0.1-0.1,0.1-0.2,0.1
					c-0.4,0-0.9,0.2-0.9,0.3c0,0,0,0,0,0l0.1-0.1c0,0,0.2-0.4,0.2-0.4c0,0.1,0.1,0.2,0.3,0.3c0.2,0.1,0.4,0.1,0.5,0.2
					c0.2,0,0.4,0.1,0.5,0.1c1.9,0.4,4.3,0.9,6.5,1.4c2.2,0.5,4.3,1.2,5.7,1.5c2.9,0.7,5,1.3,7.1,1.9c2.1,0.6,4.2,1.1,7.1,1.9
					c12,3.2,23.5,7.5,34.9,12.6c2.3,1.1,4.7,2,7.1,2.9c2.5,0.9,5,1.7,7.5,2.4c5.1,1.5,10.4,2.6,15.5,3.8c5.6,1.2,11.3,2.2,17.2,2.6
					c5.8,0.4,11.7,0.3,17.5-0.5c12.3-1.6,24.4-4.1,35.9-8.4c11.3-4.2,21.8-9.4,32.4-13.6c6.2-2.5,12.4-4.6,18.7-6.2
					c4-1,7.8-1.8,11.9-2.5c4-0.7,8.1-1.3,12.1-1.6c8.1-0.7,16-0.5,23.7,1.1c3.5,0.7,6.9,1.8,10.4,3l0.3,0.1c0,0,0,0,0.1,0
					c0,0,0,0,0.2,0.1l1.2,0.6c0.8,0.4,1.6,0.8,2.4,1.3l2.4,1.3l2.3,1.4c3.1,1.9,6.2,3.8,9.1,5.9c1.5,1,3,2.1,4.5,3.1
					c1.4,1.1,3,2.1,4.4,3.2c3.1,2.3,6.5,5.2,9.7,8c3.2,2.8,6.2,5.5,9,7.4c1.4,0.9,2.8,0.8,3.8,0.2c-0.4,0.2-0.8-0.2-1.1-1
					c-0.3-0.8-0.6-1.9-0.9-3.1c-0.6-2.4-1.4-4.9-1.5-5.2c-1.7-3.8-4.5-7.5-7.2-10.9c-2.6-3.3-5.3-6.5-8.1-9.5
					c-2.9-3-6.1-5.8-9.9-8.3c-4-2.6-8.1-5-12.4-7.1l-1.6-0.8c-0.2-0.1-0.8-0.4-1.3-0.6l-1.1-0.4c-1.1-0.4-2.3-0.7-3.4-1.1
					c-2.3-0.7-4.7-1.3-7.1-1.8c-4.8-1.1-9.7-1.7-14.6-1.9c-4.9-0.2-9.8-0.1-14.6,0.3c-4.1,0.3-8.1,0.9-12.1,1.5
					c-2,0.4-4,0.7-5.9,1.1c-2,0.4-4,0.9-6,1.4c-7.9,2.1-15.5,4.8-22.8,7.7C230.8,120.4,221.9,124,213.2,127.3z"/>
			</g>
		</g>
	</g>
</g>
<g>
	<g>
		<g>
			<path class="st0" d="M94.5,326.3l-0.2,0C94.4,326.3,94.4,326.4,94.5,326.3z"/>
			<path class="st0" d="M129.2,326.4l0,0.2C129.2,326.5,129.2,326.5,129.2,326.4z"/>
			<path class="st0" d="M131.9,311l0.2-0.1C132,310.9,131.9,311,131.9,311z"/>
			<g>
				<path class="st0" d="M120.4,313c-0.6,0.1-1.3,0.1-1.9,0.2c-0.7,0-1.3,0.1-1.9,0.1c-1.4,0-2.7,0.1-4.1,0.2
					c-1.4,0.1-2.8,0.1-4.2,0.2c-1.4,0-2.8,0.2-4.2,0.2c-1.5,0.1-2.9,0.1-4.4,0.2c-1.5,0.1-3,0.1-4.4,0.1c-3,0-6-0.2-9-0.8
					c-6.3-1.2-12.5-2.9-18.8-4.2c-6.4-1.3-12.4-3.4-18.6-5.6c-5.9-2.2-12.3-3.2-18.1-5.7c-1.6-0.7-3.1-1.4-4.7-2.1
					c-0.8-0.4-5.1-0.8-6-0.7c-0.4,0.1,1.7,1.7,2.2,2.2c1.9,1.4,4.8,3.6,6.4,4.5c3.2,1.8,4.6,2.6,8,4.1c7,2.9,13.9,5.6,20.7,9.2
					c5.5,2.8,11.9,4,17.9,6c1.6,0.6,3.2,1.1,4.9,1.6c1.6,0.5,3.2,1.1,4.9,1.6c1.7,0.5,3.3,0.9,5,1.4c1.7,0.4,3.4,0.7,5.1,0.9
					c7.3,1,14.8,2.4,22.5,2c7.9-0.5,15.6-2.8,22.6-5.6c4.1-1.6,8-3.5,11.8-5.3c9.6-4.7,18.1-10.1,27.2-13.9
					c4.1-1.7,8.3-2.9,12.5-3.9c4.2-1,8.4-1.7,12.7-2.8c4.5-1.1,10.7-1.9,14.6-5.1c0.9-0.8,1.2-2.1,1.1-3.2c0,0.9-1.3,0.5-2.8-0.2
					c-0.7-0.3-1.5-0.7-2.1-1.1c-0.6-0.3-1-0.5-1.1-0.6c-1.3-0.4-2.6-0.7-3.9-0.9c-1.3-0.2-2.7-0.3-4-0.5c-5.2-0.7-10.1-1.6-15.6-0.6
					c-5.7,1.1-11.2,2.9-16.5,5.1c-5.3,2.2-10.3,4.8-15.3,7.4c-8.4,4.4-16.1,9.2-24.1,12.2C130.3,311.5,125.3,312.6,120.4,313z"/>
			</g>
		</g>
	</g>
</g>
<g>
	<g>
		<g>
			<path class="st0" d="M407.6,125.5l0-0.2C407.6,125.3,407.5,125.4,407.6,125.5z"/>
			<path class="st0" d="M425.1,153.3l-0.1,0.1C425.1,153.4,425.1,153.4,425.1,153.3z"/>
			<path class="st0" d="M435.3,144.3l0.1,0C435.3,144.2,435.3,144.2,435.3,144.3z"/>
			<g>
				<path class="st0" d="M427.7,139.3c-2.2-1.7-4.2-3.1-5.9-4.4c-0.4-0.3-0.8-0.6-1.2-0.9c-0.1-0.1-0.1-0.1-0.2-0.1
					c-0.1,0-0.2,0-0.2-0.1c-0.1-0.1-0.2-0.2-0.2-0.2c-0.1-0.1-0.2-0.2-0.2-0.4c-0.1-0.1-0.2-0.2-0.3-0.4c-0.1-0.2-0.2-0.3-0.2-0.5
					c-0.7-1.5-1.2-3.7-1.1-5.9c0-2.3,0.5-4.6,1.5-6.7c0.5-1.1,1.1-2.1,1.8-3l0.5-0.7c0.2-0.2,0.4-0.4,0.6-0.6
					c0.3-0.4,0.8-0.8,1.3-1.2c1.9-1.6,4.1-2.9,6.4-4.3c4.7-2.7,10.3-4,16-6c5.1-1.8,10.2-4.4,15.7-5.8c1.5-0.4,3-0.7,4.5-1.1
					c0.7-0.2,4-2.3,4.5-3c0.2-0.3-2.1-0.1-2.8-0.1c-2.1,0.1-5.3,0.3-6.9,0.5c-3.2,0.5-4.7,0.7-7.8,1.5c-3.3,0.9-6.5,1.7-9.7,2.7
					c-3.1,0.9-6.3,1.5-9.7,2.1c-5.5,0.9-11.2,3.8-16.2,7.5l-0.5,0.4l-0.5,0.5l-1.1,0.9c-0.7,0.7-1.3,1.3-1.9,2
					c-1.2,1.4-2.2,2.9-3,4.4c-1.7,3.1-2.9,6.4-3.3,10c-0.1,1-0.2,1.9-0.2,2.9c0,1-0.1,2,0.1,3l0.1,1.6l0.3,1.6
					c0.1,0.3,0.1,0.5,0.2,0.8l0.3,0.8c0.2,0.6,0.3,1.1,0.6,1.7c0.3,0.6,0.6,1.1,0.9,1.7c0.3,0.6,0.8,1.1,1.2,1.7
					c0.2,0.3,0.4,0.5,0.6,0.8l0.5,0.5c0.3,0.3,0.7,0.7,1,1c1.4,1.3,2.7,2.4,4.1,3.4l3.8,2.7l0.9,0.6l0.4,0.3l0.6,0.4
					c0.8,0.6,1.7,1.2,2.6,1.7c3.5,2,7.5,3.1,11.5,3.4c4.6,0.3,9.3-0.5,13.5-2.3c1.3-0.6,2.7-1.2,3.9-2.1c0.6-0.4,1.2-0.8,1.8-1.3
					l1.7-1.4c0.6-0.5,1-1.1,1.6-1.6c0.5-0.6,1-1.1,1.4-1.7c0.9-1.2,1.7-2.4,2.4-3.8c0.3-0.7,0.7-1.3,1-2l0.7-2.1
					c0.1-0.3,0.3-0.7,0.3-1l0.2-0.8l0.5-1.6c0.6-2.1,1.3-4.3,2-6.4c1.3-3.9,2.9-7.5,4.6-11.3c0.8-1.9,1.6-3.7,2.4-5.6
					c0.4-1,0.7-1.9,1.1-2.9c0.4-1.1,0.7-2.1,1-3.1c0.6-2.2,1.3-4.4,1.8-6.5c0.5-2.1,0.9-4.1,0.8-6.3c-0.1-1-0.8-1.9-1.7-2.5
					c0.7,0.5-0.4,1.2-1.6,1.8c-1.2,0.7-2.6,1.4-2.8,1.5c-1.9,1.5-3.2,3.6-4.6,5.6c-1.4,1.9-2.7,3.6-4,5.3c-1.3,1.7-2.5,3.6-3.5,5.7
					c-2,4.4-3.8,9-5.4,13.6c-0.8,2.3-1.5,4.7-2.3,7L453,133c-0.2,0.6-0.4,1.3-0.5,1.6c-0.1,0.4-0.3,0.8-0.4,1.2
					c-0.1,0.4-0.4,0.7-0.5,1.1c-0.6,1.3-1.5,2.3-2.4,3.4c-0.2,0.2-0.5,0.5-0.8,0.7c-0.3,0.2-0.5,0.5-0.8,0.7
					c-0.6,0.4-1.1,0.9-1.8,1.2c-2.5,1.4-5.5,2.1-8.3,1.8c-1.7-0.1-3.3-0.7-4.7-1.5c-0.4-0.2-0.7-0.4-1.1-0.6c-0.3-0.3-0.6-0.5-1-0.8
					l-0.2-0.2c-0.1-0.1-0.2-0.1-0.3-0.2l-0.8-0.7L427.7,139.3z"/>
			</g>
		</g>
	</g>
</g>
<g>
	<g>
		<g>
			<path class="st0" d="M79.8,237.9l-0.1,0.2C79.7,238,79.8,238,79.8,237.9z"/>
			<path class="st0" d="M97.8,206.6l0.1,0C97.9,206.6,97.9,206.6,97.8,206.6z"/>
			<path class="st0" d="M85.4,203.9l-0.1-0.2C85.4,203.8,85.4,203.8,85.4,203.9z"/>
			<g>
				<path class="st0" d="M87.6,210.9c-1.7,2.3-3.4,4.6-5.1,6.9c-1.8,2.4-3.5,4.9-5.2,7.4c-3.4,5.1-6.7,10.4-10.7,15.2
					c-4.2,5.1-8.6,10-12.7,15.2c-4.1,5.2-8.5,10-13.1,14.8c-4.4,4.6-8.2,9.9-13,14.1c-1.3,1.1-2.6,2.2-3.9,3.2
					c-0.3,0.2-1.1,1.2-1.9,2.1c-0.8,1-1.6,1.8-1.8,2.1c-0.2,0.3,2.1-0.5,2.7-0.8c2.1-1,5.2-2.8,6.7-3.9c3-2.2,4.3-3.3,7-5.8
					c5.6-5.3,10.8-10.7,16.7-15.7c4.7-4.1,8.6-9.2,13-13.7c4.8-4.8,9.7-9.5,14.1-14.7c4.6-5.6,9.7-10.7,14.2-16.6
					c0.6-0.7,1.1-1.5,1.6-2.3l0.4-0.6l0.5-0.8c0.5-0.7,0.9-1.4,1.2-2.1c0.3-0.7,0.7-1.5,0.8-2.2c0-0.4,0-0.8,0-1.2l-0.2-1.2
					c0-0.4-0.1-0.8-0.3-1.2l-0.3-1.2c-0.1-0.5-0.2-0.6-0.3-0.9l-0.2-0.7c-1.3-3.6-2.8-6.9-4.3-10.3c-1.7-3.9-3.5-7.7-5.3-11.5
					c-4.6-9.6-10-18.8-15.7-27.9c-2.6-4.1-5-8.2-7.8-12.3c-2.7-4-5.7-8-9.6-11.5c-1-1-2.2-1.9-3.4-2.9c-1.1-0.8-2.2-1.7-3.2-2.4
					c-2-1.5-3.5-2.5-5.2-3.6c-0.8-0.5-1.8-0.5-2.6-0.2c0.7-0.2,0.6,1.1,0.8,2.5c0.1,1.5,0.5,3.1,0.6,3.3c1,2.5,2.9,4.6,4.5,6.7
					c2.9,4,4.6,8,7.5,12.2c6,8.8,11.8,17.8,17.1,27.3c4.5,8.1,8.9,16.3,12.5,24.7c1.1,2.5,2.1,5.1,3,7.7c0.2,0.6,0.4,1.3,0.6,1.9
					l0.1,0.5C87.6,210.7,87.7,210.9,87.6,210.9L87.6,210.9C87.7,210.9,87.6,211,87.6,210.9z"/>
			</g>
		</g>
	</g>
</g>
<g>
	<g>
		<g>
			<path class="st0" d="M259.3,319.9l-0.3,0.3C259.2,320,259.3,320,259.3,319.9z"/>
			<path class="st0" d="M301.8,281.1l0,0.2C301.9,281.2,301.9,281.1,301.8,281.1z"/>
			<path class="st0" d="M301.2,262.5l0.2-0.2C301.3,262.3,301.3,262.4,301.2,262.5z"/>
			<g>
				<path class="st0" d="M283.4,278c-7.9,7.1-15.5,14.6-22.6,22.3c-7.4,8-14.4,16.2-22.4,23.7c-8.5,8-17,15.7-25.2,24
					c-8.2,8.3-16.7,15.9-25.4,23.7c-8.4,7.5-15.8,16-24.4,23.2c-2.3,1.9-4.6,3.8-7,5.7c-1.1,0.9-6,6.6-6.8,7.9
					c-0.4,0.6,3.5-1.7,4.5-2.3c3.5-2.1,8.7-5.4,11.2-7.3c5.1-3.8,7.5-5.6,12.5-9.8c10.2-8.8,20.1-17.4,30.7-25.5
					c8.6-6.5,16.5-14.6,24.8-21.7c9-7.6,18.3-14.9,27-22.9c9.2-8.6,19.1-16.5,28.3-25.1c9.1-8.5,18-17.2,27.1-25.6
					c5.3-4.9,10.7-9.8,16.2-14.6c13.7-12.2,26.9-24.9,40.5-37.2c6.1-5.6,12.4-10.8,18.6-16.1c6.2-5.3,12.4-10.7,18.4-16.6
					c3.2-3.2,6.9-6.9,10.2-10.9c3.3-4,6.1-8.1,7.5-12c0.7-1.9,0-3.1-0.8-3.9c0.7,0.6-1.3,2.2-3.5,3.5c-2.3,1.4-4.8,2.5-5.1,2.7
					c-3.7,2.3-7.3,5.3-11.1,7.9c-7.2,5-14.2,8.7-21.3,14.7c-14.8,12.4-28.8,25.6-43.1,38.7c-12.1,11.2-24.1,22.5-36.3,33.5
					C298.7,264.5,291,271.2,283.4,278z"/>
			</g>
		</g>
	</g>
</g>
<g>
	<g>
		<g>
			<path class="st0" d="M229.6,307.8l-0.3,0.3C229.4,307.9,229.5,307.9,229.6,307.8z"/>
			<path class="st0" d="M274.7,268.4l0,0.2C274.8,268.5,274.8,268.5,274.7,268.4z"/>
			<path class="st0" d="M275,249.5l0.3-0.3C275.1,249.3,275,249.4,275,249.5z"/>
			<g>
				<path class="st0" d="M256.1,265.2c-8.4,7.2-16.5,14.7-24.2,22.6c-7.9,8.1-15.5,16.4-24,24.1c-9,8.1-18,16-26.7,24.4
					c-8.7,8.5-17.6,16.3-26.8,24.3c-8.8,7.7-16.7,16.5-25.7,24c-2.4,2-4.8,3.9-7.3,5.9c-1.2,1-6.3,6.8-7.1,8.2
					c-0.4,0.6,3.6-1.8,4.7-2.4c3.6-2.2,9-5.7,11.6-7.7c5.3-4,7.8-5.8,13-10.2c10.7-9.1,21-18,32.2-26.2c9.1-6.7,17.4-15,26.2-22.1
					c9.5-7.7,19.4-15.1,28.6-23.3c9.8-8.7,20.2-16.7,30-25.5c9.7-8.6,19.2-17.4,28.9-25.9c5.7-5,11.4-9.9,17.2-14.8
					c14.6-12.4,28.7-25.2,43-37.8c13-11.4,26.5-21.4,39.1-33.4c6.7-6.3,15.8-14.8,19.5-22.2c0.9-1.8,0.5-3.1-0.3-4
					c1.3,1.4-8.9,5.3-9.5,5.6c-4,2.2-8,5.1-12,7.6c-7.7,4.9-15,8.9-22.5,15c-15.6,12.7-30.4,26.1-45.6,39.4
					c-12.9,11.3-25.6,22.8-38.6,34C272.3,251.5,264.1,258.3,256.1,265.2z"/>
			</g>
		</g>
	</g>
</g>
</svg>
