<svg xmlns="http://www.w3.org/2000/svg" viewBox="0 0 400 400"><path d="M242 41.6c-.6.2-1.1.4-1.3.5-1 .8-2.7 1.1-6 1-4.2-.2-4.5 0-7.2 2.6-1.9 1.8-2.8 3.2-2.8 4.1 0 .5-.1.5 1.9-.6 3.6-2.1 5.9-3.2 5.9-2.7 0 .1-.1.2-.2.2-.2 0-2.6 2.2-2.5 2.3 0 0 .4-.1.8-.4.9-.6 3.1-1.4 4-1.6.4-.1.8-.2 1-.3.4-.2 1.6-.6 1.5-.5-.3.3-2.6 1.9-3.3 2.3-1.9 1.1-1.1 1.2 2.1.1 2.4-.8 3.7-.9 7.3-.4 5.5.8 7.3 1.6 10.6 4.6 1.8 1.7 1.2 1.8-1 .2-2.1-1.6-4.7-2.4-8-2.8-1-.1-2.4-.3-3-.4-3.4-.5-4-.1-1.4 1 2.6 1 3.3 1.5 5.8 4 1.3 1.3 2.9 2.8 3.6 3.5.7.7 1.7 1.8 2.2 2.6.6.8 1.1 1.4 1.2 1.4.3 0 .5.7 1 2.3.2.7.4 1.4.5 1.7.2.4.2.5 0 .6-.5.3.7 1.1 1.3.9.5-.2.5-.2.5-1.3v-1.1c.2 0 .9 1.3 1.1 1.9.1.5.2.5 1.4.6 2.1.2 2.1.1 1.6-1.7-.2-.8.4-.4 1 .7l.6 1h1.1c1 0 1.1 0 1-.3-.1-.2-.2-.7-.2-1.1-.1-.4-.3-1.2-.4-1.7-.4-1.4-.4-1.4.5.3.4.8.9 1.6 1.1 1.9.5.5 1.6 2.9 1.4 2.9-.1 0-.4-.2-.6-.3-1-.7-1.8-1-2.5-.9-.7.2-.8.3-.5 1.3l.1.5-.9-.6c-.9-.6-.9-.6-2.5-.5-1.9.2-1.9.2-1 .9.4.3.9.8 1.1 1.2.7 1.1.8 1.1 2.6 1.4 3.8.5 3.8.5 5.7 1.7 1 .6 1.9 1.2 2.1 1.4.5.3-1.6.1-3.4-.3-3-.8-6.8-.7-6.8.1 0 .2 3.4 1.2 5.6 1.7 4.9 1.1 7.9 2.6 3.8 1.9-2.2-.4-2.6-.4-1.9 0 .3.2.6.3.8.3.2 0 .5.2.7.4.2.2.8.4 1.2.5.6.1 1.1.4 1.7 1 .5.5 1.2 1 1.5 1.2.9.5.6.6-1.5.6s-2.2.1-1.7 1.6c.3 1 .5 1.1 1.7.7 2.6-.7 3.1-.8 3-.5-.1.1-.3.3-.5.4-1.2.4-4.4 3.4-6.5 6.1-.8 1-2.1 2.5-2.9 3.2-1.5 1.4-1.8 1.9-1 1.9 1.2 0 4.3-2.1 5.3-3.8.5-.8 1-1 .8-.3-.8 2.8-2.1 4.4-5.6 7.2-3.7 2.9-4 3.4-1.7 2.3 3.1-1.5 6.4-4.1 8.2-6.8 2.6-3.7 3.2-4.2 5.6-4.4.8-.1 1.4-.1 1.5-.1.5-.1 4.5.3 4.5.4 0 .2-.9 1-1.1 1-.1 0-.2 1.6-.2 3.9 0 2.8-.1 4.3-.3 5.5-.2.9-.4 3-.4 4.7s-.2 4.3-.4 6c-.2 1.6-.4 3.6-.5 4.5-.2 1.8-.1 9.1.2 10.6 1.5 9.5 2.9 15.8 2.8 12.3 0-.5.1-1.6.2-2.4.2-1.1.3-4.1.3-9.3 0-5.9.1-8.3.4-10.4.5-3.9.5-4.2.7-5l.3-1.3c.1-.3.5-1.7 1-3.1 3.7-10.6 4-12.7 2.7-16.1-1.7-4.5-2.4-5.4-6.4-8.6-1.4-1.1-4-3.8-3.7-3.8.1 0 .3.1.5.3.2.2.3.3.3.2 0-.1.5.2 1 .6.6.4 1.7 1.2 2.6 1.8.9.6 2 1.4 2.5 1.8 1.4 1.2 1.6.9.4-.8-2.1-3.2-4.5-5.7-8.1-8.4-8.5-6.4-8.6-6.5-10.7-10.6-.9-1.7-1.6-3.2-1.6-3.3 0-.7-2.9-6.6-4.1-8.3-.5-.7-1.2-1.7-1.5-2.2-2.5-3.7-5.3-5.8-10.5-7.7-3.7-2.1-5-2.3-7.1-1.6m-12.8 9.2c-.1.1.1.2.3.2.2 0 .4-.1.3-.2-.1-.1-.2-.2-.3-.2s-.2.1-.3.2m-.3.4c-1 .1-2.2.3-2.6.5-.4.2-.9.3-1.1.3-1 0-3.5 1.8-3.5 2.6 0 .1-.4.7-.9 1.2s-.9 1-.9 1.1c0 .1-.4.5-.8.9-1 1-.8 1.2.7.7 1.4-.4 1.5-.3.5.7-2 2.1-4.6 2.9-8 2.3-.6-.1-1.5-.2-2-.2-.4 0-1-.1-1.2-.3-3.7-2.6-13.9-1.5-17.2 1.8-.1.1-.4.3-.5.3-.9 0-1 2.2-.2 3.2.3.3.5.6.5.7 0 .3 1.7.7 3.7 1 1.1.1 2.3.4 2.6.5l1.1.4c.7.2 2.2 1.3 3.4 2.5 2.1 2.1 2.6 2.1.6 0-.5-.5-1-1.2-1.2-1.5-.3-.7-2.3-2.4-3.2-2.9-.9-.5-.6-.5.7-.1 1.6.5 3.9 1.8 6.4 3.6 1.5 1.2 3.6 2.8 4.1 3.2 5.7 4.8 8.7 4.5 8.6-.9 0-1.7.2-1.5.6.5.5 2.5.1 3.9-1.8 5.3l-1.1.8-1.5-.1a6.8 6.8 0 0 1-4.7-2.1 8.32 8.32 0 0 0-3.9-2.1c-.4-.1-.8-.2-.8-.3.1-.8-.6-1-1.3-.3-.3.3-.8.6-1 .6-1 .2-1.1.3-1.4.8-.2.5-.2.6.3 1.4.3.5.7 1.3 1 1.8.3.7.6.9.9.9.6 0 .6-1 .1-1.9-1-1.8 2.8-.1 7 3.1 3.4 2.6 3.8 2.8 6.6 3.5 2.2.5 6.6.7 8.9.2 1.7-.3 2.4-.3 2.4 0 0 .1.2.2.6.1.3-.1 1.1-.2 1.7-.3.7-.1 1.8-.5 2.9-1.1 2.1-1.1 2.3-1.1.9.1-.6.5-1.2 1-1.4 1.2-1.2 1.4 1.9-1 3.7-2.9 1.3-1.4 1.3-1.2 0 .5-.3.4-.7.9-.8 1.1-.2.2-1 1-1.8 1.7-.9.7-1.7 1.5-2 1.8-.2.2-1 .9-1.8 1.6-1.5 1.2-3 2.8-3.3 3.4-.6 1.1-6.1 3.9-7.2 3.7l-.6-.1.6-.3c.9-.4 1-.5 1.1-2.1.1-.7.2-1.4.2-1.5.2-.3.3-2.2.2-2.2-.1 0-.5.5-1 1.2s-1.5 2-2.2 3c-1.1 1.4-1.3 1.8-1.1 2.1.3.5-1.7.5-3.1.1-.5-.2-1.6-.4-2.4-.6-1.5-.3-4.6-1.1-5.5-1.4l-.5-.2.5-.1c.5-.1.8-.6.7-.9-.1-.2.9-3.8 1.5-5.3.8-2.1.1-2.1-2.8.2-1.2 1-2.3 1.7-2.3 1.6 0-.1-.2.1-.5.4-.3.3-.6.5-.7.5-.1 0-.2.1-.2.3 0 .4-.1.4-1.2-.2-.9-.5-.9-.5-.6-.7.6-.3 1.6-3.9 1.6-6 0-.6-.4-.7-.7-.1l-1.3 2.4c-.6 1.1-1.1 2.1-1.1 2.3 0 .4-.1.4-.8 0-.9-.4-2.5-.1-3 .7-.1.2-.2 1-.1 2.3.1 1.7 0 2-.2 2s-.4.1-.6.3c-.2.2-2.6 1.2-4.2 1.8-.4.2-.9.4-1.1.5-.2.1-.6.2-.8.2-.7 0-.8.3-.2.8.3.2.7.8 1 1.2.3.4.6.8.7.8.1 0 .6.3 1.1.7 2.8 2.2 6 3.4 13.4 5.1 6.2 1.4 17.3 1.6 21.9.4 2.7-.7 5.5-2 7.8-3.5.3-.2.7-.4.8-.5.9-.4 4.4-3.4 5.6-4.8.4-.5 3.6-2.5 4-2.5.1 0 .4-.2.8-.5.8-.6 2.3-1.1 4.2-1.4.9-.1 2.2-.3 3-.4.8-.1 2.4-.3 3.6-.4 2.3-.2 3.9-.6 6.1-1.7 3.2-1.6 5.2-4.8 3.1-5.1-3.3-.5-7.9-4.4-10.2-8.7-.4-.7-1-1.8-1.3-2.3-.3-.5-.9-1.6-1.4-2.4-.5-.8-1.2-2.1-1.5-3-.6-1.6-1.8-5-2.1-5.7-.8-2-3.9-5.2-6.2-6.5-.8-.4-1.5-.8-1.5-.9 0-.1-.1-.1-.3-.1-.2 0-.3-.1-.3-.2-.3-.7-4.3-2.8-5.5-2.8-.3 0-1.1-.1-1.7-.3-1.1-.3-1.2-.3-4.1-.1m4.7 3.2c3.2 1 3.7 1.2 5.4 2.9.9.8 1.8 1.7 2.2 2 .9.7.7.8-.4.1-5.4-3.6-7.9-4.5-13.3-4.6-1 0-1.2-.2-.5-.6.3-.2 2.3-.5 3.9-.6.2.1 1.4.4 2.7.8m31.8.8c-.3.3-.1 1.7.3 2.5.2.5.5 1.2.7 1.6.7 2.3 4.4 6.2 5.8 6.2.2 0 1.2.3 2.3.7 1.1.4 2.3.8 2.6.9.9.3 2.4 3.6 2.9 6.5.2 1.1.5 1 .4-.1-.1-.5-.2-2-.2-3.2-.2-4.2-.7-5.7-2.6-8.3-1.3-1.8-1.7-2-5.3-3.5-1.6-.7-3.2-1.4-3.5-1.5-.3-.2-1-.7-1.5-1.1-1.1-.8-1.7-1-1.9-.7m-25.8 12c3.1.5 5 2.4 5.8 6 .1.4.3 1.1.4 1.4l.2.7-.4-.4c-.2-.2-.6-.4-.8-.4-.2 0-.8-.2-1.5-.5-2.3-1.1-7.9-.9-7.9.2 0 .1-.2.5-.6 1-.3.5-.8 1.5-1.1 2.3-1.1 3-2.2 4-4.4 4.2-4.5.3-3.1-3.6 2.4-6.5 1.2-.6 2.4-1.4 2.6-1.6l.5-.5-4.2.1c-3.5.1-4.1 0-3.6-.2.8-.4-.7-.1-2 .4-2.5.9.3-1.3 5.1-4 3.6-2.1 6.4-2.7 9.5-2.2m-5.3 1.4c-1.5.4-2.2.7-1.2.6 1-.1 3.4-.7 3.4-.8 0-.1-1.3 0-2.2.2m21.1.9c-.2.3.3.9.9 1.1.3.1.6.3.6.3s-.1.1-.3 0c-.2-.1-.3 0-.4.1-.2.3 1.3.6 2.2.6l.7-.1-.7-1c-1.1-1.2-2.6-1.7-3-1m78.2 8c-.2.5-.2 1 .1 2.9.1 1 .2 1 .8.3l.5-.5-.3.7c-.3.6-.5 2.8-.2 4 0 .2 0 .4-.2.3-.2 0-.2.9-.2 3.1 0 3.6-.1 4.5-.6 8.3-.2 1.6-.6 3.1-.8 3.5-.2.4-.3.8-.2.8.1.1-.1.2-.4.3-.6.2-2.3 2.5-2.2 2.8.1.1 0 .3-.1.4-.2.1-.2.1-.1-.1s.1-.2 0-.1c-.2.2-.2.2-.3.8 0 .1-.2.3-.5.4-.3.1-.4.2-.2.3.9.9-2.1 3.7-4.5 4.4-.6.2-1.3.4-1.5.5-.2.1-.6.2-.9.2-2.6 0-4.1 1.7-6.8 7.8-.3.6-.8 1.6-1.3 2.3-1.1 1.7-1.3 2.3-.5 2.2.1 0 .4.6.8 1.3 1.2 2.3 4.1 5.2 5.3 5.2.2 0 .8.3 1.2.5 1 .7 1 .7 2-.7 1.9-2.7 3.8-4.4 6.5-5.8.8-.4 1.3-.9 1.7-1.4.3-.4.6-1 .9-1.3.6-.9.6-1-.6-1.1-1.4-.1-1.7-.4-.4-.4.5 0 1.6-.3 2.4-.6 1.3-.5 2.7-.9 8.8-2.4l1.7-.4-3.1.1c-1.7.1-3.2.1-3.3.2-.1.1-.2 0-.3-.1-.1-.2 1.4-.5 3.4-.7.8-.1 1.8-.2 2.1-.3.4-.1 2.1-.2 3.8-.3 1.7 0 3.9-.2 4.9-.4 1-.2 2.1-.3 2.4-.2l.7.1-.7.3c-1 .5-.9.7.4.7.6 0 1.6.1 2.1.2s1.5.3 2.1.4c1.1.1 1 .2-1 .2-2.3 0-2.4.1-.8.7.5.2 1.3.6 1.8.8 1 .6 2.1.6 3 0 .4-.3.9-.5 1.1-.5s.8-.2 1.4-.4c2.6-1 12.3.2 12.3 1.6 0 .1.2.2.5.3 1.2.3 4.3 1.7 4.9 2.3 1 .9 1.8 1.1 3.7 1.1 2.3 0 9.9 2.6 11.7 4.1 1.3 1.1 2.6 1.2 2.6.3 0-.5-2.8-3.5-4.1-4.3-1.4-.9-.8-1.1.8-.2 1.3.7.8-1-.8-2.6-2-1.9-5.5-2.6-9.8-2-.9.1-.9.1-.9-.3 0-1.9-7.2-4.7-12.3-4.7-3 0-4.8.4-6.8 1.6-1.5.9-3.3 1.8-3.4 1.7 0 0 .3-.4.9-.8.5-.4 1.2-1.1 1.6-1.5.4-.4 1-.9 1.3-1.1.3-.2.6-.4.6-.5 0-.6 4.2-2.2 6.8-2.6 2.2-.4 6-1.2 6.2-1.3.1-.1-.1-.3-.3-.5-.6-.5-.1-.5 1.3 0 1.4.5 2.5.5 3.1 0 .9-.7 9.2-3.3 10.6-3.3.3 0 0-.8-.3-.9-.2-.1-.4-.3-.5-.5-.3-.8-3.1-.9-5.1-.3-.8.2-1.1.5-1.7 1.3-.3.4-.3.4-.2-.2.2-.8 1.2-1.8 2.3-2.2 1.1-.4 1.1-.4 0-.9-3-1.2-8.8.3-10.2 2.7-.3.5-.5.7-.5.5-.1-.1-.1 0 0 .3.1.6-.5.8-.7.2-.2-.7-.2-.7-5.5 0-.8.1-1.8.4-2.2.6-.8.4-.8.4-1.1.1-.2-.2-.3-.3-.4-.2-.1.1 0 .3.2.5.3.4.3.4 0 .3-.3-.1-2.4.2-3.3.5l-.5.2.5-.4c.5-.4.4-.5-.3-.2-.7.4-2.9 2.2-4.3 3.5-.3.3-.6.5-.7.4-.2-.2 4.6-4.8 4.9-4.8.2 0 .3-.1.3-.2.1-.2 2.5-1.7 3.7-2.3.6-.3 4-2.7 4.5-3.3l1.6-1.4c1.8-1.6 2.7-2.3 4.2-3.8.7-.7 1.9-1.7 2.7-2.3 2.7-1.9 2.1-3.1-1.1-2.5-2.6.5-4.9 2.1-4.9 3.4 0 1.1-.3 1.3-.5.5-.2-.9 0-1.9.4-2.5.3-.4.3-.4-.1-.4-1.7 0-4.3 2.2-5.4 4.6l-.7 1.4V95c0-.6-.1-.7-.2-.5-.3.4-.2 1.2.1 1.3.8.3.3.7-1.1 1-.5.1-1 .4-1.7 1-1.1 1.1-2.8 2.4-3.1 2.4-.1 0-.4.2-.7.4-.3.2-1.7.9-3.2 1.5-5.8 2.4-7.1 3.3-8 5.2-.1.3-.3.6-.4.8-.2.5-1.6.8-2.4.6-.4-.1-1.3-.2-2.1-.3-.8 0-2.3-.2-3.4-.4-2.3-.4-3.5-.3-6.1.6-1 .3-1.8.6-1.8.5-.3-.3 4-2.9 4.9-2.9.8 0 .7-.4-.1-.5-1.5-.2-1-.5.7-.4 1.4.1 1.7 0 1.6-.2-.1-.3-.2-.3 1.3 0l1.2.3 1-.5c.5-.3 1-.6 1-.7 0-.3-2.6-2.1-4.4-3-1-.5-2.1-1.2-2.5-1.6l-.8-.7.6.1c.7.1.8 0 .4-.8-.1-.3-.2-1.4-.3-2.5-.1-1.9-.3-3-.9-3.3-.4-.2 0-.5.6-.3.7.2.5.5 1.2-3.5.6-3.9.5-4.9-1-7.6-1-1.8-1.4-2.3-1.4-1.7 0 .4-.2.4-.6-.1-.2-.2-.5-.4-.6-.4-.2 0-.4-.2-.6-.5-.5-.9-2.4-1.6-2.7-.8m-77.4 4.4c2.3 1.9 2.8 2.9 2.1 4-.6.8-1 1-5.5 1.5-6.2.8-9.7 2.5-13.5 6.6-1.4 1.5-1.9 1.9-4.6 4.1-1.6 1.2-4 2.9-4.3 2.9-.1 0-.4.2-.7.4-.7.5-3 1.4-3.5 1.3-.3 0-.2-.1.4-.3 1.2-.4 3.1-1.4 3.9-2.1l2.3-1.7c.9-.6 1.9-1.4 2.2-1.7 2-1.9 2.7-2.5 3.7-3.9 2.7-3.5 6.6-5.8 11.2-6.5 2.6-.4 3.8-.8 4.8-1.5 1.3-1 1.2-1.3-1.5-4.6-1.7-2.1-1.8-2.7-.2-1.1 1 .6 2.3 1.9 3.2 2.6m76.8-2.5c0 .2.1.5.2.7.1.2.2.1.1-.3-.2-.7-.3-.9-.3-.4m-129.7 1.3c0 .1 0 .8-.1 1.4 0 1.2-.8 5.8-1.1 6.3-.3.6-.4 1.6-.2 1.6.1 0 .5-.3.9-.6s1.6-1.4 2.7-2.3c3.6-3.1 3.4-2.7 1.8-4.3-2-2-3.9-3-4-2.1m53.1 4.8c-.7.4-.7.7 0 .3.3-.2.6-.4.6-.5 0-.2.1-.2-.6.2m-46.2.6c-.5.9-2 6.5-2 7.3 0 .3.1.4.6.3.3 0 .5-.1.5-.2-.1-.2 2.5-2.7 4.9-4.9 1.4-1.2 1.5-1.1-1-1.9-1.2-.4-2.2-.7-2.4-.8-.3-.1-.5-.1-.6.2m14.4 1.6c-.9.1-1 .2-1.5 2.1-.8 3-.7 5.1.1 3.9.1-.2.3-.5.4-.6.1-.1.3-.4.5-.7.2-.3 1-1.4 1.8-2.4 1.9-2.5 1.8-2.6-1.3-2.3m-7.5.2c-.1.1-.1.5-.2.8 0 .3-.3 1.8-.5 3.2-.4 2.8-.4 3 .3 3 .4 0 .8-.4 2.1-2 2.7-3.5 3.3-4.5 3-4.9-.2-.3-4.6-.3-4.7-.1m-2.2 1.8a27 27 0 0 1-2.2 1.8c-4 3.2-3.9 3.4.4 3.7l1.8.1.2-.8c.1-.5.4-1.7.6-2.8.5-2.9.5-3.1-.8-2m-16.8 2.2c.4.3.7.5.8.5.1 0 1.6 1.1 1.9 1.4 1.1 1.2 5.2 3 7.6 3.5.3 0 1 .3 1.6.5.6.2 1.7.4 2.4.5 2.5.3 1.5.5-1.6.4-2.7-.1-3.3-.2-4.1-.4-.2-.1-.5-.1-.8-.2-2.4-.4-6.3-2-8.4-3.3l-1.5-1 .6-1.1c.6-1.4.6-1.5 1.5-.8m9.7 5.8c.2.1.5.2.8.2h.5l-.5-.2c-.8-.3-1.2-.3-.8 0m-42.3 5.6c-1.8 4.8-1.9 11-.2 17.2.3.9.5 2 .6 2.3.5 2.3 2.5 7.6 4.3 11.1.7 1.4 1.2 2.5 1.1 2.5-2 0-11.7 6-15 9.4-2 2-4.6 5.4-5.5 7-.1.3-.3.5-.4.6-.2.1-2.1 3.9-2.2 4.5-.1.3-.3.6-.4.8-.4.5-1.2 2.7-1.2 3.3 0 .7.3.7.9-.1.7-.9 5.8-4 6.6-4 .1 0 .5-.1.8-.3 3.7-1.7 8.8-2.7 13.4-2.7 2.9 0 3.1.1 1.3.8-4.1 1.8-9.6 7.5-11.1 11.4-.5 1.4-.8 1.8-.6.7.3-1.5 3.3-6.9 3.8-6.9.1 0 .6-.4 1-.9.8-1 2.4-2.6 2.7-2.6.2 0 .9-.8.9-1 0-.5-2.1.4-4.2 1.9l-1.2.9.1-.8c.1-.9-.6-1.2-.8-.3-.1.2-.4.8-.7 1.3-.3.4-.6.9-.6.9 0 .1-.4.6-.8 1.2-.5.6-1.3 1.9-1.9 2.9-.6 1-1.6 2.6-2.3 3.6-1.2 1.9-2 3.8-2.3 5.5-.1.5-.2 1-.2 1.3-.2.7-.3 1.9-.3 2.6 0 .4-.1.8-.2 1-.3.3-.3 15.1 0 22.1l.2 4 .8-1.6c.4-.9 1.2-2.4 1.6-3.3.9-1.8 1-2.1.5-2.2-1.1-.2-3.6-17-2.7-17.9.2-.2.3.3.9 4 1.3 7.6 1.5 8.4 2 10.6.5 2.1.8 2.8.8 2.2 0-.1.1-.2.2-.1s.1.4.1.7c-.1.7.5 1.6.9 1.4.1-.1.2 0 .2.1 0 .3-1.1.2-1.4-.1-.4-.5-.5-.4-1.2 1.5-.3 1-1 2.8-1.6 4-1 2.2-1.5 4-1.3 4.5.1.1.3-.2.5-.7.4-1 2.3-3.9 3-4.6.2-.2.4-.5.4-.6 0-.1.3-.5.6-.8.5-.6.4-.3-.6 1.6-.6 1.2-1.5 3.1-2 4.2-.4 1.1-1.1 2.7-1.6 3.6-1.3 2.7-1.5 4.2-2.3 12.4-.2 1.8-.4 4.2-.6 5.3-.2 1.1-.5 3.6-.7 5.6-.2 2-.5 3.9-.6 4.3-.2.9-.3 1.3-.8 4.7-.4 3.1-2.7 14.7-3.3 16.9-.2.8-.4 1.8-.5 2.2-.2 1-1.3 4.8-2 6.2l-1.1 2.8c-.3 1-.8 2.2-1 2.7-.2.5-.4.9-.4 1 0 .1-.4 1-.8 2s-.8 1.9-.8 2.1c0 .1-.9 2-2 4.1-1.1 2.1-2.7 5.3-3.6 7.1-.9 1.8-2 3.9-2.4 4.7-.4.8-1.3 2.4-1.9 3.6-.6 1.2-1.7 3.2-2.5 4.6-2.2 3.8-4 7.4-5.3 10.5-.6 1.6-1.5 3.6-2 4.6-1 2.1-2 5.4-2.6 8.5-.3 1.2-.9 4-1.4 6.1-3.1 12.1-3.8 24.9-2.1 35.5.2 1 .3 2.1.4 2.3 0 .3.2 1.5.4 2.7.3 2.4 1.2 6.4 1.9 9.3.3 1 .6 2.4.7 3.1.4 2.7.6 3.2 1.1 3.2.3 0 .5-.1.5-.2s.2-.3.4-.5c.4-.4.4.6.7-19.1.1-3.4.2-7.8.4-9.8.1-1.9.3-4.4.4-5.6.1-1.7.5-4.3 1.6-11.2.4-2.2 1.9-9 3.1-13.5 2-7.8 2.6-9.6 4.1-14 1.6-4.6 2.6-6.9 5.7-12.8.9-1.6 1.6-3.5 2.2-5.2.9-2.8 2-6.1 3-8.9.3-1 .8-2.5 1.1-3.4.4-1.5 2.8-7.7 4.3-11.3.6-1.5 1.4-4.3 2.3-8.3l1.1-4.8c.3-1.3.7-3.1 1-4 .7-2.9 2.1-8.9 2.4-10 .5-1.8.8-3.9.8-5.3 0-.7 0-1.6.1-2 .1-.4.2-1.5.2-2.5.1-1 .3-2.8.6-3.9.9-4.2 2-14.8 1.4-13.3-.2.5-1.4 5.6-1.6 7 0 .2-.2 1.1-.3 2.1-.5 3.6-.8 5.4-1 6.6-.1.5-.2 1.2-.3 1.6 0 .4-.1.7-.2.8-.1.1.1-4.3.2-4.5l.2-2.6c.1-1.4.1-2.7.2-2.9 0-.2.1-.9.2-1.6.6-5.2 3-13.1 5.3-17.2.5-.9 2.1-3.9 3.4-6.6 2-4 5.2-9.9 6.1-11.4 1.1-1.8 1.8-2.9 1.9-2.9.1 0 .2-.2.2-.3 0-.1.6-1.3 1.2-2.7 1.4-2.8 2.4-5.1 2.2-5.2-.2-.1-.1-.2-1.1 1.6-.5.9-1.2 2-1.6 2.5-.4.5-1 1.5-1.4 2.2-.4.7-1.3 1.8-2 2.6-1.8 2-4 4.9-4.9 6.6-.9 1.5-1.6 2.5-2.2 2.9-.7.5-.6.1.2-1.3 1.8-3 2.1-5.7.8-5.7-.5 0-.5 0 .3-1.5.4-.7.7-1.4.7-1.5 0-.2.3-.4.7-.5 1.5-.5 4.5-5.8 4.1-7.3-.1-.4-.2-.5-1-.4-.9.1-.9.1-.6-.2.4-.5.9-4.2 1.1-7.7l.1-2.6-1.4.1c-2.2.1-2-.4-2 6.9 0 6.9-.1 7.7-.9 6.4-.5-.8-.5-8.8 0-10.7.2-.6.3-1.4.4-1.6.1-.3 0-.4-.2-.5-.3-.1-.2-.2.2-.8.5-.8.5-1-.3-1s-.4-.4.9-1.1c3.7-1.9 8.1.6 10.7 6 1.4 2.9 1.6 2.8 1.6-.3 0-2.4-.4-4.1-1.2-5.2-.8-1.2-.6-1.2.5-.1 1.2 1.3 1.8 2.1 1.9 2.8.2.8.4.3.6-1.5.1-1.4.6-3 1.2-3.7.1-.2.6-1.1 1-2 1-2.4 3.2-6.7 3.4-6.8.1 0 .4-.8.7-1.7.3-.9.7-2.2 1-2.8.3-.7.4-1.2.3-1.3-.1-.1 0-.5.2-1.1 1.2-3 2-10.7 1.5-13.5-.2-.8-.4-2.5-.6-3.7-.2-1.5-.5-2.5-.9-3.4-1-2-1-1.9 2-2.9 1.4-.5 2.8-.8 3-.8s.7-.2 1.2-.5c.7-.5 1.8-.8 4.7-1.3 1.8-.3 3.2-1.1 3.2-1.7 0-.3-.1-.3-.3-.3-1 .4-4.2.4-6.1-.1-1.4-.3-2.7-.5-4.6-.5-1.4 0-2.9-.1-3.3-.2-4.1-.8-5.5-1.1-6.2-1.5-.7-.4-.7-.4-.2-.3.9.2 6.4.3 6.7.1.2-.1-.4-.4-1.6-1-1-.5-2.4-1.2-3.1-1.7-.7-.5-1.4-.9-1.5-.9-.1 0-1.8-1.2-5.3-3.9-.9-.7-2-1.6-2.4-2.1-.4-.5-.8-.8-.9-.7-.3.3-.1 6.7.3 9.4.6 4.2.6 4.3.3 3.9-.1-.2-.3-.8-.4-1.3-.1-.5-.2-1.1-.3-1.3-1.1-2.1-1.6-12.2-.5-12.2.1 0 .1-.2 0-.4-.1-.3.1-.2.5.4.6.8 2.4 2.3 3.2 2.8.2.1-.1-.5-.7-1.4-.6-.9-1.6-2.7-2.3-4-1.3-2.6-1.3-2.6-1.8-1.1m125 2c-1.5 4.1-2.2 6.7-1.8 7.2.7.9 3.4 3.6 4.6 4.4.7.5 1.4 1 1.5 1.1.4.4 2.6 1.9 2.6 1.7 0-.1-.6-1.2-1.3-2.5-2.3-4.2-3.3-6.2-3.8-7.8-1.3-4-1.6-4.6-1.8-4.1m69.3 1.6c-.3.5-.8 1-1 1.1-.6.3-2.1.4-2 .2.1-.1-.2.1-.6.4-.4.3-.7.5-.7.4 0-.3 1.4-1.6 1.7-1.6.1 0 .3-.1.4-.3s.5-.3.8-.3c.4 0 .9-.2 1.2-.4.9-.6.9-.5.2.5m-9.8.5c-.6.3-.6.6-.1.5.1 0 .3 0 .4-.1.2 0 .7-.8.5-.8l-.8.4m-150.7 1.7c-.8.1-1.7.4-2 .5s-1 .2-1.4.2c-.7 0-2 .4-2.2.8-.1.2.7.9 1.3 1.1 3 .9 6.4 4.1 6.4 5.8 0 .3.1.7.2.9.2.4 0 .5-.3.1-.1-.1-.3-.6-.5-1-.4-1.1-1.7-2.5-3.2-3.3-1.2-.6-1.8-.7-1.3-.1.1.1.2.3.1.4-.1.1 0 .1.1.1.5 0 2.5 5.9 2.3 6.8-.2.8-2.2 2.8-2.8 2.8-.2 0-1.2.5-2.4 1.1-2.2 1.1-4.6 1.9-7.7 2.7-2.1.5-2.3.7-2 1.9l.9 4.1c.4 1.8.8 3.7.9 4.3.7 3.3.2 13.3-.9 16.7l-.5 1.6.1-2.1c.1-1.1.2-2.5.2-3.1.1-.6 0-1-.1-1-.2 0-.4 3.2-.4 5.5 0 1.5-.6 4.6-1.5 7.1-.8 2.4-.8 2.6-.3 2.5.3 0 .7-.6 1.3-1.8.5-1 1.4-2.5 1.9-3.5.6-.9 1-1.8 1-1.9 0-1 7-7.7 11-10.6.3-.2.6-.5.8-.6.1-.1.9-.7 1.7-1.2 1.4-.9 2.4-1.6 8-4.8 1.1-.6 2.3-1.4 2.8-1.6.4-.2.9-.4 1.1-.4.4 0 1.4-.4 1.4-.6 0-.1-.2-.8-.5-1.7-1.2-3.7-.9-6.9 1-10.6.7-1.4 1.3-2.6 1.3-2.7s.4-.7.9-1.3c1.1-1.4 1.1-1.7.1-1.1-.4.2-1.2.7-1.8 1-.6.3-2 1.3-3.1 2.2-1.1.9-2.1 1.6-2.2 1.6-.7 0 3.3-3.8 6-5.7 2.3-1.6 8.2-3.7 10.6-3.7.6 0 1.6-.1 2.2-.2 1.3-.2 3.2-.4 6.2-.5 1.2-.1 2.8-.1 3.5-.2.8 0 1.7-.1 2-.1.9 0 .8-.2-.2-.9-.5-.3-.9-.6-.9-.7s-.1-.2-.3-.2c-.2 0-1.4-1.1-2.8-2.4-2.5-2.5-3.2-2.9-3.2-1.9 0 .6.7 1.7 1.9 3.1.6.6 1 1.1 1 1.2l-2 .2c-1.1.1-2.9.2-4 .4s-3.6.3-5.6.4l-3.7.1-2.1.9c-1.1.5-2.3.9-2.6.9-.5 0-3 1.5-3.3 2-.1.1-.4.4-.9.8-.4.3-1.6 1.4-2.5 2.3-1 .9-2.2 2-2.7 2.5-1.3 1.2-5.4 6.5-5.2 6.7 0 0 .7.2 1.5.4 1.5.4 2 .8 1.5 1.3-.3.3-.7.2-2.3-.5l-1.1-.5-.4.4c-.2.2-.6.8-.9 1.2l-.4.8 1.7.6c.9.3 1.8.7 1.9.9.5.8-.7.8-2.5 0-1.7-.8-1.6-.8-2.5.5-1 1.4-1 1.5.4 1.9 2 .6 2.3.8 2.1 1.3-.3.5-.7.4-2.4-.4-1.5-.7-1.4-.8-2.3.8-.9 1.7-.9 1.5.2 1.7 1.6.4 3.4 1.3 3.4 1.8 0 .6-.7.5-2.7-.5-2.1-1-2.1-1-2.9.5-.6 1.2-.6 1.1.6 1.3 1.4.3 2 .8 1.7 1.3-.3.6-.5.5-1.9-.2-1.5-.7-1.4-.8-2 .4-.3.5-.5 1-.6 1s-.1-.1 0-.2c.2-.3.6-1.3.6-1.6.1-.4-.6-.7-1.8-.7-1 0-1.5-.6-1-1.1.3-.3.4-.3.8 0 1.5 1 2.2 1.1 2.7.2.1-.2.3-.6.5-.9.7-1 .6-1.1-.6-1.5-.6-.2-1.4-.4-1.7-.4-.7 0-1.2-.5-.9-.9.3-.5.8-.5 1.9.3 1.6 1.1 2 1.1 2.9-.6.4-.8.7-1.5.7-1.6-.1-.2-1.8-.7-2.8-.9-1.3-.2-1.7-.8-1-1.3.2-.2.4-.1.8.1 3 1.9 3.4 1.9 4.6-.2l.6-1.1-.5-.2c-.3-.1-.8-.3-1.2-.4-.9-.3-1.3-.7-1.1-1.1.1-.3.9-.2 1.4.2 1.2 1.1 1.7 1 2.5-.3.7-1.1.7-1-.9-1.4-1.3-.3-1.7-.6-1.5-1.2.2-.6.7-.5 2.1.2 1.6.8 1.6.8 2.7-.9.6-.8 1.3-1.9 1.7-2.3.7-.9 1.5-2.3 1.5-2.7 0-.2.1-.8.3-1.3.3-.9.3-1.2.1-2.9-.1-1-.3-2.5-.4-3.3-.2-1.9-.2-1.8-2-3-2-1.3-3.3-2-3.9-2-.7 0-1.4-.2-1.4-.4 0-.1.2-.2.3-.2 1.3 0 5.3-1.6 5.3-2.1.5-.5-1.2-.4-2.5-.1m166.2 1.4c-.6.5-1.4 1.2-1.7 1.6-.7.8-.9.8-2.7.3-1.2-.3-1.3-.3-2 0-1.2.6-1.6.3-1.2-.6.3-.7 1.8-1 4.1-1 1.8 0 2 0 3.1-.6 1.6-.8 1.7-.8.4.3m-97.2.1c-.4.3-.9.5-1.1.6-.6.2-2.5 1.2-3.8 2-2.8 1.7-7.6 3.7-10.8 4.3-1.7.4-2.5.7-4.8 2.3-1 .7-2.2 1.5-2.8 1.8-.6.4-1.4.9-1.8 1.2-1 .9-1 .9-2.5 1.8-.7.5-1.5 1.1-1.7 1.3-.6.6-5.3 4.7-6.6 5.7-.6.5-1.2.9-1.3 1-.2.3-3.4 2.5-5.2 3.8-1.1.7-2.2 1.5-2.5 1.8-.9.8-5.8 2.8-6.1 2.6-.1-.1.1-.2.4-.2.3-.1.5-.2.5-.3 0-.1.3-.3.6-.4.5-.2 3.8-2.5 4.1-2.9.1-.1 1.1-.9 2.2-1.8 1.2-.9 2.5-2 3-2.4.5-.4 1.8-1.4 2.8-2.3 1.1-.9 2.6-2.2 3.3-2.9 1.5-1.5 2.1-2 4.9-4.4 1.1-.9 2.5-2.2 3.2-2.8.7-.6 1.9-1.6 2.6-2.1l1.4-1-.9.1c-.5.1-1.7.3-2.6.6-2.3.6-3.8.8-6.7 1.1-3 .3-8.2 1-10.5 1.5-.9.2-2.2.4-2.8.5-5.1.7-8.3 3.9-9.4 9.6-.5 2.7-.1 7.8.6 8.6.4.4.2.9-.7 1.1-1.6.4-6 2.9-7.8 4.5-.6.5-2.6 1.9-5.3 3.5-3.2 2-5.3 4.8-8.7 11.6l-2.9 5.6c-.6.9-3.6 7.3-3.3 7.3.1 0 .5-.2.8-.4.6-.4 1-.5 2.6-.7.5-.1.5 0-.5.5-1.4.7-3.4 2.6-4.3 3.9-2 3.1-2.8 11.9-1.6 17.8.2 1.2.5 4 .4 4.6-.1.9 1.6 12.2 2.2 14.5.1.6.5 2.1.7 3.4.2 1.3.6 3 .9 3.8.3.8.5 1.7.5 2.1 0 .7.8 3 1.9 5.6.4.9.7 1.7.7 1.8s.5 1.1 1 2.3c.6 1.1 1.2 2.4 1.3 2.8.1.4.6 1.1 1 1.5.6.6 1.4 2 2.8 4.8 1.1 2.2 2.3 4.5 2.7 5 .4.6.7 1.1.7 1.2 0 .1 1.4 2.9 2.3 4.7.3.6 1.6 2.6 2.7 4.3 1.1 1.7 2.5 3.9 3 4.8.5.9 1.4 2.7 2.1 3.9 1.2 2.3 1.3 2.4 2.9 5.1.5.9 1.1 1.8 1.2 2l.4.8c.2.4.8 1.4 2.8 4.5.7 1.2 2 3.4 2.9 4.9a454.04 454.04 0 0 0 8.5 14.3c3 5 3 5 5.3 8.4 1.9 2.7 3.1 6 5.9 16 1.3 4.5 5.4 16.8 6.3 18.9.5 1.2.8 2.2 1.3 4.1.3 1.3.7 2.7 1.1 3.9 1 3.2 1.2 4 1.6 5.4 2.1 9 3.6 11.1 10.9 15.2.8.5 2.3 1.3 3.3 2 2.2 1.4 2.1 1.4 1.8-.4-.4-2.4-.6-4-.5-4 0 0 .5 1 1 2.3 1.2 3 1.3 2.9.4-.3-.6-2.1-.9-3.5-1.4-6.3 0-.3-.3-1.3-.6-2.3-.5-1.8-.6-2.7-.1-1.3.1.4.4 1 .5 1.3.2.3.3.7.4.8.2.7 2.9 6.7 3.5 7.7.6 1 2.1 4.1 3.8 7.6 1.2 2.6.8.5-1.2-7-.8-2.7-1.4-5.2-1.5-6.3-.2-1.2-.8-3.2-2.3-7.5-.8-2.3-1.7-5.2-2.2-6.4a120 120 0 0 0-3.8-10.3c-.6-1.4-1.1-2.5-1.1-2.6s-.2-.6-.5-1.1c-.3-.6-.7-1.5-.9-2-.2-.5-.8-1.9-1.2-2.9-.4-1.1-1-2.4-1.2-2.9-.3-.5-.6-1.4-.8-1.9-.2-.5-.7-1.8-1.2-2.9-.5-1.1-1.1-2.3-1.2-2.6-1.8-4.1-2.4-5.2-2.8-5.6-.2-.2-.8-1.2-1.2-2.2-1.2-2.9-3.6-8.1-4.4-9.4-.3-.5-1.7-2.9-3-5.3-3-5.3-2.9-5.1-4.5-7.5-.7-1.1-1.8-2.8-2.4-3.8-1-1.7-1.8-2.8-2.2-3.4-.1-.1-.4-.6-.7-1.1-1.1-1.7-6.3-8.6-6.9-9.3-.2-.2-1.1-1.4-2-2.6-.9-1.2-2.2-2.9-2.9-3.7-.7-.8-1.7-2.1-2.2-2.8-.5-.8-1-1.6-1.2-1.8-.6-.7-2-2.7-4.8-6.8-5.7-8.4-6.8-10.2-7.8-12.2-.3-.7-1-1.9-1.5-2.7-.5-.8-1.1-2-1.4-2.7-.3-.6-1-2.3-1.7-3.6-.6-1.3-1.2-2.5-1.2-2.6 0-.1-.1-.4-.2-.6-1-2.6-1.8-4.5-2-5.5-1.2-3.9-1.9-7-2.1-8.2-.1-.8-.2-1.6-.2-1.9-.3-2.1-.5-3.6-.6-4.8-.1-.8-.3-3-.6-5.1-.3-2-.5-4.2-.6-4.8 0-.6-.2-1.8-.3-2.6-.1-.8-.2-2.4-.3-3.5 0-1.1-.1-2.2-.1-2.5 0-.3-.1-.1-.3.5-1 3.9-5.8 3.9-5.8 0v-.6l.4.7c.9 1.5 1.8 2 2.9 1.6.9-.4 2.1-2.9 2.2-4.3 0-1.1 0-1.1.3-.5l.3.6.1-.7c.1-.4.2-1.9.4-3.4s.4-2.9.4-3.2c.2-.6-.1-.7-1.9-.2-1.8.5-2 .6-3.7 1.6-2.4 1.5-2.9 5.1-2.2 14.7.4 4.4.5 7.8.4 7.6-.2-.2-.6-3.6-.9-7.4-.1-1.4-.4-3.3-.5-4.3-1.1-6.8.5-13.1 3.5-14.5 2.2-1 8.1-1.3 10.9-.6.8.2 1.5.4 1.8.4.2 0 .7.2 1.2.4.4.2 1.3.5 1.9.7 1.6.4 5.3 2.7 7.6 4.6l1 .9-.1-2.8c-.1-2.2-.2-3.1-.5-4-.3-.8-.4-1.6-.4-2.6 0-1.6-.1-2-2.2-8.3-.6-1.9-1.1-3.5-1.1-3.6.3-.3 4.6 1.2 6.4 2.1.2.1.4.2.6.2.3 0 3.6 1.6 6.1 3 1.6.9 2.6 1.6 5.8 4.1 1.5 1.1 5.3 5.3 5.7 6.2 1.5 3.3.8-10.6-.7-15.8-.4-1.3-1.6-8.1-2.1-11.7-.1-.7-.4-2-.9-3.5-.2-.7-.2-1 0-.8.3.2.2-.5-.2-1.8l-.4-1.2.8-.3c.4-.2 1.6-.9 2.6-1.6 1-.7 2.4-1.6 3.1-2.1.7-.5 1.9-1.4 2.5-1.9 2.1-1.8 3.8-3 6.1-4.3 1.2-.7 2.8-1.7 3.5-2.1.8-.5 1.9-1.2 2.5-1.6 1.6-1 4.7-3.2 7.3-5.3 1.2-1 2.6-2 2.9-2.2.4-.3.7-.5.8-.6.1-.1.5-.4 1-.7 1.7-1.1 7.3-7.2 7.8-8.4.6-1.4.7-.1.2 2-.3 1-1.3 3.4-1.7 4-.6.7-.3 2.3.9 5.6 1 2.7 1.1 7.5.2 11.7-.2.9-.2 1.6-.1 1.7.3.3.8 0 .8-.5 0-.2.3-1.5.7-2.9 1.9-6.7 2.3-19.5.7-23.5-.3-1.8-.6-2-1.8-1.2m116.4 5.8c-.1.1.1.2.3.2.2 0 .4-.1.4-.2s-.1-.2-.3-.2-.4.1-.4.2m-48.8.1h-.7c-.2 0 0-.1.3-.1s.6.1.4.1m-27.2 1.8c-.1 0-.7.2-1.3.4-2.4.7-6.5 4.2-9.2 7.8-1 1.3-2.7 3-3.8 3.9-1.3 1-4.1 3.1-4.7 3.3-1.4.8-1.2 1.5.4 1.3.5-.1 1.3-.2 2-.2.6 0 1.9-.2 2.9-.4 2.3-.4 2.4-.7-.6 3.2-.8 1-2.3 3.1-3.4 4.6-1.1 1.5-2.6 3.3-3.3 4-1.1 1.1-5 5.7-6.2 7.5-.2.3-.6.8-.8 1.1-.2.3-.5.6-.6.7-.1.1-.8.9-1.5 1.9-1.7 2.1-3.1 4.1-3.4 5-.2.6-.3.7-.7.6-.7 0-1.5 1.1-2.5 3.7-.7 1.8-1.1 2.3-.9 1.1.1-.4-.1-.7-.6-1.3-.9-1-.9-1.2 0-.8.9.4.8.4 1.3-1.2.4-1.7.5-1.6-.2-1.6-.5 0-.7.2-1.3 1-1.1 1.6-2.5 3.8-3.1 5-.3.6-.6 1.1-.7 1.2-.2.2.2-1.8.4-2.2.3-.6-.9-4-3.3-9.3-.5-1.2-1.4-3.2-2-4.6-2.7-6.5-5-10.1-9.1-14.8-.3-.3-1-1.1-1.6-1.8-.7-.8-1.2-1.2-1.5-1.2-.9 0-4.5 1.8-4.7 2.4-.3.8-.3.9.4 1.6.4.4 1.2 1.4 2 2.4 1.2 1.5 3.4 4.2 5 6 2.2 2.5 6.7 8.7 6.7 9.2 0 .1 3.4 9.3 4.6 12.1.5 1.2 1 2.9 1.3 3.7.2.9.6 1.7.7 1.8.2.1.2.3.2.4-.1.1 0 .3.1.5.3.3-.9.6-1.2.3a16 16 0 0 1-1-2.9c-.7-2.4-1.6-4.6-4-10.9-.3-.9-.9-2.4-1.3-3.4-.8-2.1-3-5.7-5.6-8.7-4.1-4.9-5.9-7.2-7-8.9-.6-1-1.2-1.8-1.3-1.8-.4.1-2.8 7-3 8.8-.1.7-.3 1.4-.4 1.6-.2.3-.5 2-.9 4.6-.2 1.4-.3.8-.3-1.4.1-2.7.1-2.6-1-1.2-.5.6-1.9 2.2-3.3 3.6-2.1 2.2-2.4 2.5-2.3 3 .7 3.6 1.1 6.6 1.2 8.3.1 1.2.2 2.1.3 2.2.4.2 4.6-5.4 5-6.7l.3-.8.5.5c.5.6.6 1 .2 1.3-.6.6.1 8 1 10.4.2.6.4 1.4.5 1.8.1.7.9 2 3.7 6.1.6.9 1.7 2.5 2.4 3.6 2.1 3.3 5.3 6.4 3.6 3.4-.4-.6-1.1-2.1-1.7-3.2-.9-1.8-3-4.6-4.5-6l-1.5-1.7-1.5-1.7c-.2-.1-.4-1.2-.3-1.2.2 0 5.3 5.1 6.7 6.7.8 1 1.6 2.1 2.1 3.1.4.9 1.3 2.5 2.1 3.5s1.4 2.2 1.5 2.6c.2 1 1.5 2.7 4 5.5 1.2 1.4 2.8 3.2 3.5 4 1.3 1.5 1.5 1.7 1.7 1.3.1-.1.3-.2.5-.2s.7-.2 1.1-.4c.4-.2.9-.4 1-.4 1.2 0 7.2-4.3 9.7-7.1 1.8-1.9 1.9-1.9.7-.3-1.3 1.9-1.7 2.3-2.8 3.5-1.3 1.3-1.3 1.6-.2.9.8-.5 5.1-3.6 6-4.4 1.4-1.1 4.8-5.2 6-7.5 2.7-4.8 4.3-7.9 6.2-11.7 1.1-2.3 2.6-5 3.2-6.1.6-1 1.4-2.5 1.8-3.2 2.8-5.3 4.4-7.9 4.9-7.9.1 0 0 .3-.3.7-.2.4-.6 1-.8 1.4-.2.4-.5 1.1-.7 1.5-.6 1.1-.4 1.1.9-.6 1.2-1.5 8.4-9.9 8.8-10.2.5-.5 2-2.4 2-2.6 0-.2-.2-.2-3.8 1.6-3 1.5-3.5 1.5-3.5.4 0-.8-.3-.8-1.6-.5-.9.2-.9.2-.6-1 .1-.6.3-1.9.4-2.9.1-1 .2-2.1.3-2.3.3-1.1-2.6.2-3.3 1.4-.3.5-.5.9-.6.9s-.2.2-.2.3c0 .2-.1.2-.1.1s.1-.6.4-1c.8-1.2.5-1.3-1.1-.8-1.1.4-1.2.4-1.2-.2 0-.8-.5-.6-1.2.6-.4.7-.9 1.2-1.3 1.4-.8.4-.8.3 0-1.1.4-.7.6-1.2.5-1.4-.1-.1-.2-.7-.2-1.2 0-1.6-.1-1.6-1.4.1-.7.9-1.7 2.2-2.3 3-.6.8-1.4 1.8-1.8 2.4-.5.9-1.8 1.9-1.8 1.5 0-.1 2.7-4 3.1-4.5.2-.2 1-1.3 1.8-2.5s1.7-2.4 2.1-2.8c.4-.4.9-1.1 1.1-1.5.7-1.5 1.1-2.5 1.2-2.4.1.1-.1 1.2-.6 3.9-.5 2.8-.3 2.9 3.4 1.7 2.7-.9 3.1-1 3.1-.7 0 .4.7.3.9-.1.1-.2.2-.4.4-.4.3 0 .4-.3-.2 3-.5 2.6-.6 5.4-.4 5.4.1 0 .7-.2 1.3-.5 1.9-.8 6.4-2.3 6.8-2.3.5 0 .7.5.8 1.9.1 1.7 2.2 7.3 2.7 7.3.1 0 .4-.7.7-1.5.3-.8.9-2.2 1.4-3.1 1.2-2.1 3.4-6.6 3.3-6.7-.2-.2-2.7 2.1-3.6 3.4l-.5.7-.2-.5c-.3-.6-.6-2.1-1-5.1-.2-1.2.2-1 .5.4.5 2.2.9 3.4 1 3.4.1 0 .9-.8 1.8-1.6.9-.9 2.1-2 2.7-2.4 1.4-1.2 2.4-2.1 2.8-2.9l.3-.6h-1.3c-.7 0-1.6-.1-1.9-.2l-.6-.2c-.1 0-1.4-.7-2.4-1.4-4.2-3.1-7.9-7.9-10.2-13.4-.4-.9-.4-.9 0-.4s1.2 2 1.2 2.2a42.94 42.94 0 0 1 1.8 2.6c.8 1.2 1.5 2.2 1.7 2.4.1.1.4.5.6.8 3.5 5 8.6 7.6 11.6 6 1.9-1 2.1-2 .7-4.5-.5-.9-.9-1.7-.9-1.9 0-.3-.7-.8-1-.6-.3.2 0 2.9.4 3.9s.4 1-.4 1.2c-1.8.3-7.6-4.3-10.1-8-.3-.4-.9-1.2-1.2-1.7-2.6-3.3-2.9-4.9-.8-4.9 1.2 0 1.8-.8 1-1.2-1.9-.2-2.8-.4-3.7-.1m57.8 0c-.2 0-.9.1-1.6.2l-1.2.1 1 .4c.6.2 1.1.5 1.1.7.1.1.8.6 1.5 1.2 1.7 1.2 2.3 1.7 4.3 3.5.8.8 1.8 1.6 2.1 1.7.3.2.8.5 1 .7.3.2 1.1.7 1.9 1 .7.3 1.5.7 1.7.8 1 .7 7.6 7.1 7.6 7.4 0 .4.6.9 1 .9 1 0 .1-2.6-1.6-4.6-.6-.8-1.2-1.5-1.2-1.6 0-.1-.4-.4-.8-.7-.4-.3-.7-.6-.7-.6.2-.2 1.8.8 2.4 1.3.8.9 1.1.8 1.1-.6 0-2.9-1.6-5.4-3.9-6.1-2-.6-4.4-1.7-4.4-2 0-.3-.4-.5-.6-.2-.2.3-.4.2-.8-.4-.9-1.6-6.7-3.4-9.9-3.1m-144.4 1.4c-.2 0-.4.2-.4.3 0 .2 1 .1 2-.2.4-.3-.6-.3-1.6-.1m38.2 6.7c-.5.2-2.4 2-2.4 2.3 0 .1.4-.1.9-.6s1.2-1.1 1.5-1.3c.6-.5.6-.7 0-.4m-85.3 2c.5 1.1.9 2.1 1 2.2.1.1.5.9.9 1.9.4.9 1.3 2.5 2 3.6s1.2 1.9 1.2 2-.7.4-1.4.8c-10.7 5.5-12.9 6.8-18.1 11.1-2.1 1.8-1.5.8 1.3-1.9 1.9-1.9 5.1-4.5 7.1-5.9.5-.4 3.9-2.3 7.7-4.3l1.2-.7-.6-1c-.3-.5-.8-1.6-1-2.3-.2-.7-.5-1.8-.7-2.4-.2-.6-.4-1.5-.5-1.9-.1-.5-.3-1.1-.4-1.5-.3-.7-.5-1.7-.4-1.7-.2 0 .2.9.7 2m17.4 0c-.2.2-1.7 1.2-3.5 2.3-.6.3-1.2 3.4-1.1 5.5 0 .4-.3.7-.3.3 0-.1-.1-.4-.1-.6s-.1-.9-.2-1.6c-.1-.6-.2-1.7-.3-2.3-.3-1.7-.2-1.9 1.9-2.5 1-.3 2.1-.7 2.6-.9 1-.5 1.3-.6 1-.2m70 .2c-1.2.8-3.2 2.6-3.2 2.9 0 .1.3.6.7 1.1 2 2.3 5.6 10.3 7.2 15.8.6 2.3 2 6.2 2.3 6.5.2.2.1-2.9-.2-3.3-.1-.1-.2-1.4-.3-2.8-.3-5.1-2.3-13.5-4.5-19.2-.7-1.6-.9-1.7-2-1m38.1.9c-.2.3-1.9.8-2.4.7-.7-.2-.4-.4.8-.6 1.3-.3 1.7-.3 1.6-.1m-91.1 1.8c0 1.2.1 2.5.4 3.7.6 2.6.4 2.8-2.8 4.5l-1.9 1.1c-.5.3-1 .6-1.2.6-.3 0-.1-.2 1.1-1.1.3-.2 1.3-1.1 2.1-2l1.6-1.5v-3c0-2.7.2-4.1.6-4.1 0 0 .1.8.1 1.8m-26.2.3c0 .2.1.5.2.7l.2.4v-.4c0-.2-.1-.5-.2-.7-.2-.2-.2-.2-.2 0m136.8.1c.1.3 1 .4 1 .1 0-.1-.2-.2-.4-.3-.6-.1-.7-.1-.6.2m-62.7.8c-1.1.7-3.9 2-5.2 2.5-.6.2-1.3.5-1.5.7l-.5.3 1.9 1.9c1 1 2.4 2.5 3.1 3.3.7.8 1.4 1.7 1.6 1.9 1.4 1.7 6.4 11.1 6.4 12 0 0 .5 1.1 1 2.3.6 1.2 1.5 3.4 2.1 4.8 1.3 3.1 1.2 3.1 1.9 1.8.3-.6.9-1.5 1.3-2.1 1.5-2 1.8-3 1.2-4-.1-.2-1.2.4-2 1.1l-.7.6.3-.6c.1-.3.5-.9.7-1.3.5-.8.6-1.2.1-1.2-.4 0-1.2-1.8-2.2-5.1-1.8-5.8-2.5-8-3.4-10.1-.5-1.2-1.2-2.8-1.5-3.6-.7-1.7-1.6-3.5-2.2-4.4-.2-.3-.5-.8-.6-1-.3-.3-.9-.3-1.8.2m44 1.4c0 1-.1 1.9-.1 1.9s.8-.3 1.7-.6c1.9-.6 2.1-.6.9.2-.5.3-1.5 1-2.4 1.5-.8.5-1.5.9-1.4.8.1-.1.2-.6.2-1.2.1-.6.3-1.8.4-2.6.2-.9.3-1.6.3-1.7 0-.1.1-.1.2-.1.2-.1.3.5.2 1.8m-57.4.8c-.2.5 0 .5.5.1s.5-.4 0-.4c-.2 0-.5.1-.5.3M308 137c-.1 1.2-.3 2.7-.4 3.3-.1.6-.2 1.3-.2 1.4 0 .1 1.2-.4 2.8-1.2 1.5-.8 3-1.5 3.3-1.6.7-.2-1.4 1.5-2.5 2-.5.2-1.6.9-2.4 1.5-2.3 1.5-2.1 1.4-2 .6.1-.4.2-1.8.4-3 .3-2 1.1-5.4 1.2-5.2l-.2 2.2m21.7 2.3c-1.3 1.4-3.2 4.7-4 6.8-.8 2.2-.8 2.4.3 2.9.5.2 1.8.8 2.8 1.3l1.9 1 .6-.5c.7-.6 1.8-1.1 2.8-1.3.5-.1.4 0-.8 1.2-1.6 1.5-1.6 1.5-.6 2 1.2.6 2.9 2.2 2.9 2.5 0 .2.4.7.8 1.1.4.5.8.9.8 1 0 .1.3.4.6.8.3.3.6.8.7 1 .1.4.4.4 1.3 0 .6-.3 3.3-.6 3.3-.3 0 0-.8.5-1.8 1-1.9 1-1.9 1-1.4 1.5.3.3.3.7.3 2.6 0 1.2 0 2.5.2 3 .2.8 0 1.6-1.4 6.3-.3 1.1-.7 2.9-.9 3.9-.2 1-.4 2.1-.4 2.4-.3 2-.1 7.2.4 9.8.5 2.5 3.2 6.6 6.4 9.8.8.8.9-.3.1-1.4-.3-.4-.8-1.2-1.1-1.8-.3-.6-.6-1-.7-1-.1 0-.2-.2-.3-.4-.1-.2-.4-1-.7-1.7-1.1-2.5-1.2-2.9-1.5-4.1-.7-3.5 1.3-10.7 4-14 .7-.8 1.2-2 1.6-3.1.1-.4.8-1.8 1.4-3.1 1.5-3.1 1.8-4 1.8-5.6 0-1.6.3-2.7 1.1-5.4.8-2.6.8-2.7.3-4-.8-1.9-2.8-3.7-5.9-5.3-.5-.3-1.2-.8-1.6-1.1-2.4-2.2-4.8-3.8-10.1-6.4-2.8-2-2.6-2-3.2-1.4m-89 1c-3.4 1.8-8.9 6.9-9.3 8.5-.1.4 0 1 .1 1.7.2.6.2 1.4.2 1.6-.1.3 0 1.2.2 2.1.2.8.3 1.8.4 2 0 .3.2.5.3.5.3.1 3.3-3.1 5-5.4.9-1.1 1.7-2.2 1.9-2.4.2-.2.4-.5.5-.8.1-.2.2-1 .4-1.8.3-1.3 1.2-4.6 1.8-6 .2-.8.1-.8-1.5 0m-41.3 6.7c-.5.4-1 .8-1.1.9s.4-.1 1-.6c1-.7 1.3-1 1.1-1-.1 0-.5.3-1 .7m17.7 1.1c1 1.3 1.4 2.3 2.4 4.8a57 57 0 0 0 1.9 4.7c.9 1.9 2.2 5.7 2.1 5.8 0 0-.9-.3-2-.7-1.1-.4-2.1-.8-2.2-.8-.1 0-1.6-.7-3.3-1.5-3.2-1.5-3.9-1.8-7.3-2.9-2.5-.8-2.5-.8-.4-.6 2.6.3 3.1.4 3.7.5.8.2.9.2.9.2s.3.1.5.1c1.1.2 5.3 1.9 6.6 2.7l.7.4-.1-1c-.3-2.2-3.5-11.4-4.2-11.9-.1-.1-.3-.4-.4-.7-.1-.3-.2-.6-.3-.7-.1-.1-.2-.2-.2-.3.1 0 .7.6 1.6 1.9m-148.2 2c-.1.1-1 .2-2.2.3-6.9.4-13.4 7.8-13.4 15 0 4 .9 7.8 2.5 10.5 1.1 1.9 1.6 2.1.8.4-1.4-3.3-1.7-6.7-.8-9.5.7-2.2 1.1-2.8 1.5-2.8.5 0 .5.1.1.7-.2.3-.2.5-.1.5s.3-.3.5-.7c.2-.4.4-.7.5-.7 1 0 1.5-2.4.8-3.4l-.4-.5 1-1.1c.5-.6 1.7-1.6 2.6-2.2l1.6-1.1.1 1.8c.1 2 .5 3.9.8 3.9.1 0 .3.2.4.5.7 1.6 6.7 2.8 8.8 1.7 2.2-1.2 2-1.6-1.2-4.2-2-1.5-2-1.6-.7-1.1 3.4 1.3 5.8 3.8 8.2 8.2 1.1 2.1 1.2 2 .5-.7-.4-1.4-2.9-4.7-4.7-6.1-1.8-1.4-1.8-1.6.1-.8 2.4 1 4.7 3.1 6.6 6.2 3.5 5.7 4 6.9 3.6 8.4-.4 1.1-.6 1.3-.6.4 0-.3-.1-.9-.3-1.3-.2-.4-.4-1.2-.5-1.8-.2-1.3-1-3-1.6-3.3-.5-.3-.5.4 0 2 .6 1.9.8 7.1.3 7-.3-.1-.4-.3-.4-2.2 0-1.2-.1-2.1-.2-2.1-.3 0-.6.5-.6.9 0 .2-.1.7-.2 1-.1.3-.2.8-.3 1.1-.1.3-.3.6-.6.7-.6.2-.7.2.6 1.2 1.5 1.2 1.1 1.3-.7.2a99.2 99.2 0 0 1-6.5-4.4c-.6-.5-1.1-.9-1.2-.9s.1.8.3 1.7a117 117 0 0 1 1.4 9.6c0 1.6-1 1.4-4.5-.9-1.6-1-5.2-4.9-4.9-5.2 0 0 1.2.8 2.5 1.8 3.4 2.6 6.4 3.9 6.3 2.8-.1-1.1-.5-2-.7-2-.2 0-1-.4-1.8-.8-.8-.5-1.8-1-2.2-1.2-.4-.2-.7-.4-.7-.5 0-.1-.1-.2-.3-.2-2 0-7.2-9-7.6-13.2-.1-.8-.2-1.4-.2-1.4-.1-.1-.9 3-1.2 4.5-.5 2.7-.3 7.5.4 9.4 1 3 1.5 4.3 2 5.3.3.5.5 1.1.5 1.2 0 .3 1 2.5 1.1 2.4 0 0-.1-.6-.3-1.3-.2-.7-.4-1.7-.5-2.2-.1-.5-.5-2-.9-3.3-.4-1.3-.8-2.9-1-3.5-.1-.6-.3-1.4-.3-1.6-.1-.3-.1-1.2-.2-2-.1-1.7.1-1.9.6-.4 1.1 3.7 3.2 8.4 4.8 10.8.4.7.8 1.4.8 1.5 0 .2.3.6.7.9s.9.7 1.2 1c.6.6 1.6 1.1 3.5 1.8 3.1 1.2 4 1.8 5.6 3.4.8.8 1.5 1.6 1.5 1.8 0 .4.7 1.8 1 1.9.1.1.4.6.5 1.1.2.7.5 1.1.8 1.4.3.2 1 1.1 1.6 2.1 1.8 2.8 3.8 5.4 5.4 7 .9.9 1.5 1.6 1.5 1.7-.1.2 2.5 3.3 2.8 3.5.3.1.3.1 0-.2-.2-.2-.2-.4-.2-.4.1-.1 3.3 4.1 3.3 4.3 0 .2 2 3.5 2.3 3.9.2.2.2.3.1.3s-.1.1 0 .1c.5.3 2.3 3 2.9 4.3 1.6 3.3 1.8 3.7 1.8 4 0 .1.1.4.2.5.3.3-.2.5-.5.2-.3-.2-.3-.2-.2 0 .1.4 1.4.5 2.3.1.9-.4 1-.3-.1-1.8-2.3-3.5-2.7-4.4-.9-2.1 2.6 3.3 3.9 4.2 2.1 1.4-2.6-4-3-4.7-4.9-6.9-1.3-1.6-3.2-4.6-3.5-5.5-.2-.5-1-1.9-1.8-3.1-1.6-2.3-2-3.1-.8-1.5.4.5 1 1.2 1.2 1.4.6.6 1.5 1.8 3.5 4.8.8 1.2 2.2 3.1 3.1 4.3s2.3 3.2 3.2 4.4c2.3 3.4 1.9 3.1 4.1 2.9 2.4-.1 3.1-.9 2-2.1-.2-.2-.4-.5-.6-.8l-.3-.5.7.1c.5.1 1 0 1.7-.3 1.1-.5 1.2-.5 1-.2-.1.2.3.4 1.1.6 1.4.4 1.5.5 2.6 1.8.7.9 2 1.7 2.9 1.7.5 0 .5.3-.1.4-.8.2-2-.2-2.6-.7l-.5-.5-1.1 1.1c-1.5 1.5-1.4 1.7 1 2 .6.1 1.2.2 1.4.3.2.1.7.4 1.3.6.7.3 1 .5 1.1.8 0 .3.2.4.6.4 2.8.1 3.8-.1 4.6-1 .8-.9 1.1-.8.9.3-.1.5-.1 1.2-.1 1.6.2 3.6.2 4 .6 4.9.4.9.6 3 .3 3.4-.1.1-.1.6-.2 1.1-.1.5-.2 1.1-.2 1.3-.5 1.5 1.6-1.4 2.6-3.7 2-4.5 1.9-7.7-.4-10.6l-1.2-1.5-.1-1.9c-.2-4.3-2.8-6.9-6.7-6.6-5.8.4-7.4.2-7.7-.9-.1-.7-1.7-2-2.2-1.8-.4.1-2.6-2.4-3.2-3.6-1-2-1.2-2.5-1.2-2.6 0 0-.1-.2-.2-.3-1-.8-.9 2.6 0 4.4.2.3.2.5.1.5s0 .1.2.3c.2.2.3.3.2.4s-.4-.1-.8-.5l-.7-.6-.2.5c-.4 1.3-.4 1.3-.8.6-.9-1.6-1.9-3.3-2-3.3-.6-.5-3-4.5-2.6-4.4.4.1.4.1-.2-1.2-.6-1.3-1-4.1-1-6.6 0-2-.1-2.1-1.2-1.1-.4.3-.7.5-.7.4 0-.1-.1-.2-.2-.2-.2 0-.1.8.2 2.4.1.5.1 1 .1 1-.1.1-.7-1.1-.7-1.2.2-.3-2.2-5-3.2-6.4-.5-.7-1.6-2.5-1.6-2.7 0-.1-.2-.4-.3-.7-.2-.3-.5-1.2-.8-1.9-.3-.7-.7-1.7-1-2.2-1.2-2.5-.9-8.7.5-12.8l.6-1.8-.4-.9c-1.6-3.2-10.4-11.4-13-12.1-.9-.2-3.4-1.4-3.3-1.5.1-.1.6-.1 1.1-.1 1 0 1 0 1.2-.7.1-.4.2-.9.3-1.2l.2-.5 1 .4c2.2.8 6.2 4.3 8 6.9 1.1 1.7 1.2 1.6.4-1.3-.2-.7-2.9-4.9-4.2-6.5-1.4-1.7-5.3-3.6-8.3-4-1.8-.3-5.9-.4-6.1-.2m173.3 1.9c.5.6 1.1 1.4 1.3 1.8.3.4.6.8.7.9.1.1.8.9 1.5 1.8.7.8 1.9 2.5 2.7 3.6 1.1 1.7 2.8 3.8 4.2 5.3.5.6.8 1.2 2.3 6.4.3 1.1.8 1.8 2.8 3.9 1.6 1.7 3.8 5 3.8 5.6-.1 1.1-.6 1-1.3-.3a23 23 0 0 0-3.6-4.9c-2.3-2.3-2.2-2.2-3.7-7.3-.6-1.9-.7-2.1-2.5-4.3-1-1.3-2.5-3.2-3.2-4.2-.7-1.1-1.8-2.6-2.5-3.4-1.6-2-3.9-5.9-3.5-5.9.1 0 .6.5 1 1m-69.9.2c1.7.3 4.2 1.2 5.2 2.1l.8.7-.7.3c-.4.2-1.7.9-3 1.7-2.9 1.8-4.8 2.9-4.4 2.5.3-.3 3-2.2 4.9-3.4 1.4-.9 1.4-1.2.3-1.2-.5 0-1.3-.2-2.2-.7-1.2-.6-2.1-.9-5.4-1.8-1-.5 2.5-.6 4.5-.2m153.6 4.1c-.7.8-2.2 3.8-2.2 4.5 0 .5-.6.3-1.7-.5-1.8-1.4-5.3-2.9-6.2-2.6-1.8.5-1.9.7-.4 1.2 2.5.8 2.9 1 4.5 2.7.3.4.8.8 1.1 1 .2.2.6.5.8.6.2.1.5.7.6 1.4.3 1 .4 1.1 1 1.3.4.1.8.3.9.5 1.1 1.3 2.8-.5 2-2.1-.9-1.9-.9-4 .2-6.2 1.2-2.8 1-3.5-.6-1.8m-144.1.1c-.4.8-.9 2-.8 2 .1 0 .8-1.3 1-1.9.3-.8.1-.8-.2-.1m-120.8 3c-.3.3-.3.5 0 .5.1 0 .3-.2.4-.4.2-.4-.1-.5-.4-.1m140.3 5.7c.9 1.9 1.8 4 2 4.7 1.5 5 1.6 5.3 1 5.1-.2-.1-.4 0-.4.1 0 .6-1.9-.1-4.3-1.5-.5-.3-1.3-.7-1.9-.9-1.1-.5-1-.5.9-.5 1.1 0 2.7.3 3.6.7.5.2.5-.1-.5-3.1-.4-1.5-.9-3.1-1.1-3.6-.1-.5-.6-2-1.1-3.4-.5-1.4-.9-2.6-.9-2.7.1-.3.1-.2 2.7 5.1m130.2-3.1c-2.1.9-4 2.7-5.1 4.7-1.1 2.1-.8 2.8 1.5 4.3 2 1.2 2.1 1.5 2.4 5.2.1.8.1 1.9.2 2.5.1.6.2 2.7.3 4.8.3 6.4.7 7.7 2.2 9.3.3.3.5.6.5.7s.1.2.2.2.5.5.9 1.2c.8 1.2 1.1 1.6 1.6 1.9.2.1 1 .8 1.8 1.6 2.1 2.1 4.6 3.7 4.6 3 0-.2-.1-.3-1.8-2.2-.7-.8-1.8-2.1-2.3-2.9-.5-.8-1.2-1.7-1.4-2-.2-.3-.6-1.1-.9-1.8s-.6-1.7-.9-2.3c-.2-.6-.5-1.6-.7-2.3-.1-.7-.5-2.4-.9-3.7-.8-3-1-8.2-.3-10.2.4-1.2.4-1.6-.1-2.8-.5-1.3-1.5-2-3.3-2.6-.9-.3-.9-1.5 0-2.9.4-.6.7-1.1.6-1.2-.1-.1.4-.6 1.1-1.2 1.7-1.4 1.6-2.1-.2-1.3m-86.6 4.6c3.7 2.3 3.8 2.5 3.8 4.1 0 2.8 1 5.5 2.1 5.8.7.2 1.9 1.6 2.9 3.7.5 1 1.5 2.8 2.2 3.9 1.7 2.8 1.7 2.8 1.4 3.2-.4.4-2.3-2.4-4.4-6.4-1.4-2.5-2-3.3-2.7-3.3-.7 0-1.3-.9-1.2-1.8.1-.4 0-1.3-.2-1.9s-.4-1.6-.5-2.2c-.3-1.3-1-2.2-2.8-3.4-1.5-1-4.1-3.4-3.4-3.2.4 0 1.6.7 2.8 1.5m-6.9.7c-.3.4-1.3 1.3-2.1 2-2.1 1.8-2.1 1.8-2 5.4.1 2.2 0 3.2-.2 4-.4 1.3-.2 1.4 1.1.3 4.3-3.8 4.1-3.3 4.1-8.3 0-4.4 0-4.4-.9-3.4m-61.7-.1c-1.7 1.2 0 3.9 1.8 2.9.5-.3 1.6.2 1.6.7 0 .3.1.3.2.2.3-.3 1.2-.1 1.2.2 0 1.1 1.9 1.4 2.9.4 1.5-1.5-.1-3.7-1.9-2.7-.3.2-.6.1-1.3-.1-.5-.2-1.1-.3-1.2-.3-.2 0-.4-.2-.5-.4-.7-1.3-1.7-1.7-2.8-.9m-94.1-.1c-.1.1-.1.2 0 .4.1.3.6 0 .6-.3 0-.2-.4-.3-.6-.1m-3.3.1c0 .3.8 2.6 1.1 3.1.5.8.3.1-.3-1.5-.6-1.4-.8-1.8-.8-1.6m132.1.6c.1.2.2.7.4 1l.2.5.7-.7c.7-.7.7-.7.3-1-.7-.4-1.7-.3-1.6.2M77 168c0 .2.1.4.2.5.3.2.4 0 .1-.4-.3-.4-.3-.4-.3-.1m135.8 1.5l-1 1 .3 1.5c.2.8.4 2.4.5 3.4l.1 1.9 2.8-2.7c3-2.9 3.1-3.1 2.1-3.7-.4-.2-.9-.7-1.2-.9-1.9-1.7-2.3-1.8-3.6-.5m-57 .5c-.7 3.3-.2 13.5.8 18.5.5 2.6.5 3-.1 3-1.8 0-2.7-19.2-1.1-21.8.2-.6.5-.4.4.3m9.2 0c0 .1-.3 1.8-.5 3.8-.2 1.9-.5 3.8-.5 4.1-.4 1.9 1.7-1.9 2.7-4.9.8-2.3.8-2.3-.4-2.7-1.2-.6-1.3-.7-1.3-.3m2.3 3.2c-.3.9-.6 1.9-.6 2.1-.2.7-1.5 3-2 3.6-.5.6-.5.6.1.6.8.1-.1 3.5-1.5 6-.7 1.4-2.2 2.5-3.2 2.7-.3 0-.6.4-1 1.1-.7 1.3-.7 1.2.1 1.6.3.2.7.7.9 1.1l.4.8 1.4-2c.7-1.1 1.4-2 1.4-2.1.1-.1.5-.8 1.1-2 1.1-2.1 1.8-3.3 2-3.4.7-.5 3.7-6 3.8-7.3.1-1.1-.6-2.9-1.6-4.1-.7-.7-.7-.6-1.3 1.3m50.5.9c-1 .9-2.5 2.2-3.3 2.9-1.7 1.4-1.8 1.6-1.5 2.4.1.3.2 1.6.1 2.8-.1 2.5-.1 2.5 1.3 1.5 1.4-1.1 2.8-2.1 6.4-4.4 1.7-1 3.1-1.9 3.1-2 .3-.3-2.4-3.6-3.7-4.5l-.5-.4-1.9 1.7m-43.3 0c-1.1 1.2-.4 2.6 1.3 2.4 1-.1 2.8.3 3.2.8.8.9 1 1.1 1.7 1.1 1.3 0 2.1-1.2 1.6-2.4-.3-.8-.8-1-1.9-.9-1.3 0-3.2-.3-3.4-.7-.7-1.2-1.6-1.3-2.5-.3m124.9 3.6a94 94 0 0 1-2.3 3.8c-.6.9-1 1.7-1 1.7.1.1 3.8 1 4.8 1.1 2 .2 5.4 1.3 7.1 2.1 1 .5 1.8.9 1.9.9.1 0 .8.4 1.6.9s1.9 1.2 2.4 1.5c.5.3 1.2.8 1.5 1.1.3.3.8.6 1 .6s.5.1.6.3c.2.5.4.3 1.1-.6l.6-.9-.1.9c-.1.5-.2 1.1-.2 1.3-.1.4 0 .5.4.6.3.1.7.4.9.6.4.5.6.4 1.3-.9.6-1.2 1.1-1.1.6.1-.3.7-.7 4.9-.4 4.9.1 0 .5-.5.9-1.2.5-.7.9-1.1 1-1.1.1.1 0 .2-.1.3-.1.1-.4.7-.5 1.4-.2.7-.6 1.7-.9 2.3-1 1.8-1.3 4.2-.8 7.4.1.6.2 1.3.2 1.6.4 3 .4 7.2 0 9.3 0 .2-.2 1.5-.3 2.8-.2 2.3-.4 3.4-.4 1.9 0-.4-.1-1-.3-1.4-.4-1.1-.7-3.7-.7-6.5 0-3-.5-5.6-1.6-9.1l-.8-2.6.5-.4c1-.7 2.6-3.1 2.3-3.4-.4-.5-.8-.3-1.5.4-.4.4-1.2.9-1.9 1.2-2.5 1-3 2.9-1.5 5.2.6 1 .9 1.8 1.3 3.4.7 2.8.6 2.6 1.3 6.3.3 1.8.8 4.2 1.1 5.5.3 1.3.6 2.7.7 3.2.1.5.3 1.6.5 2.4.2.8.4 2.1.5 2.8.5 4.6 1.1 5.3 2.2 2.9.7-1.5 3.1-8.9 3.6-10.9 2.1-8.9 2.9-18.1 2.2-24.2-.1-.4-.1-1.3-.2-1.9-.6-5.3-2.2-7.8-5.9-9-1.7-.5-4.4-2-5.7-3-.8-.6-1.9-1.5-2.6-2-.7-.5-1.5-1.1-1.8-1.3-1.5-1.2-7.8-3.8-10.5-4.3l-.7-.1-1.4 2.1m-222.8-.5c.3.6.7 1.2.9 1.3.2 0 .5.5.7 1 .2.5.5.9.6.9.1 0 .4.3.5.7.2.4.8 1.4 1.4 2.2.6.8 1.1 1.6 1.1 1.7 0 .2.4.8.8 1.4.9 1.2 1.2 2 .8 1.9-.2-.1-.4-.3-.5-.6-.1-.3-.3-.4-.4-.3-.1.1-.1 0-.1-.1.1-.2-.5-1.2-2-2.8-.5-.5-.8-1.1-.9-1.5-.1-.4-.4-1.1-.7-1.5-.3-.4-.8-1.1-1-1.5-.2-.4-.4-.6-.3-.4.1.2.2 1.3.4 2.4.4 2.8.7 3.2 2 4 .6.3 1.1.7 1.2.9.1.1.5.6 1 .9.5.4 1 .7 1 .8.1.1.3.2.5.2.5 0 1 .5 1 .8 0 .5-.4.3-2.1-.7-.9-.6-2.3-1.3-3.1-1.7-2.4-1.1-3.1-2.4-3.1-5.5 0-1-.4-4-.7-5.1-.4-1.2.3-.7 1 .6m161.2.2c-.3.3-1.4 1.3-2.5 2.2s-2 1.7-2.1 1.8c-.1.1-.2.3-.3.3-1.1 0-2 1.3-2.4 3.5-.5 2.5-.7 2.7-1.4 1.2-.3-.7-.6-1.2-.8-1.2-.5 0-3 1.8-6.6 4.7-1.9 1.5-4.5 3.5-5.6 4.5-1.2.9-2.3 1.9-2.5 2-.7.6-2.7 1.9-2.7 1.8 0-.4 3.2-3.2 6.6-6 1.3-1.1 2.5-2 2.5-2.1.2-.3 6.2-5 6.9-5.5.9-.6.9-.7.3-2.6-.6-1.8-1-2.5-1.8-3l-.6-.4-.8.4c-.4.2-1.6 1-2.7 1.6-1 .7-2.4 1.5-3 1.9-1.9 1.1-5.1 3.8-5.4 4.4-.2.5-.6 3.1-.5 3.5 0 .2-.4-.3-1-1.1-.7-1-1-.8-3.1 1.4-1.1 1.1-2.4 2.6-2.9 3.2-1.1 1.1-3.3 4.4-3.3 4.8 0 .1-.4 1.1-1 2.1s-1.3 2.5-1.7 3.3l-.7 1.5 1 1.5c1.2 1.8 1.3 2.6.3 3.7-.8.9-.6 1.5.9 3.2 1.2 1.3 1.2 1.8.2 3.1-.7 1-.7 1.2 0 1.2.4 0 .5.1.4.4-.1.2.1.7.4 1.2.6 1 .7 2.1.1 3.1-.9 1.5-.7 2.5.9 4.2 2 2.1 2.3 2.8 2.7 5.2.4 2.4 1.3 4.6 2.9 6.7.6.8 1.6 2.4 2.3 3.5 1.3 2.1 1.9 3 4.4 6.2 1.4 1.7 2.4 3 4.4 5.3.6.7 1.2 1.5 1.2 1.7 0 .2.3.7.6 1 .3.3.5.7.6.8.1.2.2.3.3.3.1 0 .2.1.2.3 0 .2-.4-.2-.9-.8-.5-.6-.9-1.3-.9-1.5 0-.2-.1-.3-.2-.3-.2.1-.6-.2-.7-.6 0-.1-.4-.5-.9-.8-1.6-1.2-5.8-6.6-8.6-10.8-.7-1.1-1.8-2.7-2.3-3.4-1.6-2.2-2.8-4.9-3.1-7.2-.4-2.5-.8-3.2-2.8-5.3-1-1-1.7-1.8-1.7-1.9 0-.1.2-.6.5-1.1.8-1.6 1-2.6.7-3.3-.4-1-1.6-2-2.3-2.2-.9-.2-1.3-.6-.5-.8.3-.1.7-.2.8-.2.4-.1 1.2-1.9 1.2-2.6 0-.6-1.1-2.2-1.5-2.2-.7 0-1.6-1.2-1.2-1.5.2-.2.5-.3.6-.3.3 0 .8-1.4.8-2.5 0-1.2-.8-2.7-1.8-3.1l-.5-.2.5-.2c.3-.2.6-.7 1.1-1.9.8-2.1 2.2-4.9 2.6-5.3.2-.2.5-.6.7-1 .2-.4.5-1 .8-1.5.3-.4.5-.9.6-1.1.1-.2.2-.3.3-.3.1 0 .2-.2.3-.3.1-.2.5-.8 1-1.3s1.2-1.3 1.6-1.8c.4-.5 1.2-1.3 1.7-2 1.2-1.3 1.3-1.7.5-2.3-.3-.2-.6-.5-.8-.6s-.3-.2-.5-.2c-.1 0-.2-.1-.2-.2s-.1-.2-.3-.2-.3-.1-.3-.2c0-.4-2-1.2-2.5-1-1.1.5-7.5 8.7-7.5 9.5 0 .1-.4.9-1 1.8-1.8 3.1-2.4 4.4-2.4 5.7 0 2.6 1 10.8 1.5 12.3.1.2.1.6.2 1 .2 1.5.5 3.1.8 4 .2.5.6 2.2 1 3.7 1.1 4.1 6.6 16.7 7.7 17.7.1.1.2.4.4.7.2.3.8 1.4 1.5 2.4s1.2 1.9 1.2 2c0 .1.1.2.2.3.1 0 .6.7 1.1 1.5.5.8 1.4 2.1 1.9 2.8.5.8 1.6 2.3 2.4 3.5 2.5 3.7 4.9 7.2 6.4 9 1.5 1.9 1.9 2.4 1.9 2.7 0 .2.3.8.7 1.3.4.5 1.1 1.4 1.6 2.1.5.7 1.4 1.8 2 2.5 1.1 1.2 2.1 2.6 4.8 6.2a130.52 130.52 0 0 1 7.5 11c.2.3.4.6.4.7 0 .1.1.2.2.3.2.1 1.9 2.7 2.3 3.4.3.6 3.9 7 5 8.8.9 1.4 1.7 3.2 2.7 5.4.2.5.8 1.8 1.3 2.8s1 2.4 1.2 3c.2.6.5 1.4.7 1.8.2.4.7 1.3 1.1 2.1.4.8.9 2 1.3 2.6.3.6.6 1.3.6 1.4 0 .1.1.3.1.3.2.1.2.2 2.3 4.5 1.3 2.6 2.5 5.4 2.5 5.5 0 .1.4.8.8 1.8.4.9.8 1.7.8 1.8 0 .1.2.6 1.5 3.4 1.2 2.7 3.3 8.1 4 10.8.4 1.2.7 1.4.3.2-.1-.4-.3-1.1-.3-1.4-.1-.4-.3-1.1-.5-1.7-.2-.6-.3-1-.2-.9.1.1.3.4.4.8.1.4.4 1.1.7 1.6.2.5 1 2.3 1.6 4 .6 1.7 1.7 4.2 2.3 5.4.6 1.3 1.1 2.3 1.1 2.4 0 .1 2.4 4.9 3 5.9 1.2 2.1 4.8 6.9 4.4 5.8-.4-1.1-.4-1.4.1-.7.2.4.5.6.5.6.2-.2-2.2-7-4-11.4-1.2-2.9-2-5.2-2.5-7.1-.4-1.5-1-3.4-1.3-4.1-.3-.7-.6-1.4-.6-1.5 0-.2 1.7 2.9 2.4 4.5.4.8 2.3 4.7 5.9 11.7.5.9 1 2.1 1.2 2.6.2.5.7 1.6 1.1 2.4.4.8 1 2.1 1.3 2.9.9 2.1 1.1 2.3 2.1 2.2 1-.1 1-.2.4-2.4-.5-2-.5-2.1.7-.2 1.3 2 1.8 2.1 2.8.1l.4-.8-1.3-3.9c-1.1-3.4-2.4-6.9-4.5-12.4-1-2.5-1.1-3.1-.3-2 3.2 4.9 5.9 9.9 7.8 14.6.7 1.7 1.3 2.7 1.7 2.9.3.1 2.2-.8 2.4-1.2.2-.6-3-9.8-4.4-12.6-.6-1.2-1-2.2-1-2.3 0-.1.3.2.5.7.3.5.5 1 .6 1 .3.3 2.6 4.1 3.2 5.3 1.5 3 2.8 5.6 2.9 6 .2.6.5.6 1.1-.1l.5-.5-.6-1.6c-1-2.9-2-5.5-2.9-7.5-.9-2-1.3-3.3-.9-2.9.9.9 3.7 6.8 4.7 9.7.6 1.7.7 1.7 1.8.6l1-1-.7-2.2c-.4-1.2-.8-2.6-1-3-.5-1.3-.1-1 .6.6 2 4.3 1.9 4.2 2.7 3.4l.6-.6-.8-1.7c-.4-.9-1.3-2.8-1.8-4.1-.6-1.3-1.8-3.8-2.7-5.5-1.7-3.4-1.8-3.6-1.3-3.2.2.1.3.3.2.3l.4.6c.3.3.7.8.9 1.1a68.35 68.35 0 0 1 6.2 9.7l.8 1.3 1.2-.9c.7-.5 1.6-1.1 2-1.4s.9-.6 1-.8c.1-.1.4-.4.6-.5.4-.2.5-.9.2-1.3-.1-.1-.5-.8-.8-1.6-1.8-4.2-7.3-15-8.5-16.6-.7-1-.8-1.5-.1-.7.2.3.6.7.8 1 .2.3 1.2 1.7 2.2 3.2 1.6 2.4 3.7 5.5 4 5.8.2.2 3.2 4.8 4.1 6.3 1 1.8 1 1.8 2.3.7 1.2-.9 1.2-.8.4-1.9-.3-.5-1-1.5-1.4-2.2-.9-1.6-1.1-1.9-3.2-5-.8-1.2-1.7-2.5-2-2.8-.8-.9-1-1.2-2.9-3.5-1-1.2-3.5-4.2-5.7-6.8-2.2-2.6-4.2-5-4.5-5.4-2.1-2.6-3.2-3.9-7.5-8.6-1.9-2.1-4.1-4.6-5-5.6-.9-1-1.8-2.2-2.1-2.5-.5-.6-6.3-6.8-6.5-7-.1-.1-1.3-1.4-2.9-3.3-1.3-1.5-7.8-8-8.3-8.3-.1-.1-1.9-2-4-4.3-2-2.3-4.8-5.2-6.1-6.5-1.4-1.3-3.4-3.6-4.7-5.2-2.3-2.9-4.9-5.8-7.6-8.7-1.9-2-2.7-2.9-4.6-5.3-2.7-3.4-4.8-5.8-7.1-8.2-3.8-4-10.2-11.3-11.4-13.1-1.8-2.7-4.5-7.9-4.5-8.7 0-.2-.3-.6-.6-.9-.5-.6-.6-.8-.6-2 0-1.7-.1-1.9-.8-2.3-.3-.2-.6-.4-.6-.5 0-.3.6-.2 1.4.3.9.5.9.7 1.1 3.4.1 1.9.1 1.8 2.7 6.2 2.4 3.9 3.5 5.4 6.4 8.7 1.2 1.4 3.1 3.5 4.2 4.7 1.1 1.2 3 3.3 4.3 4.6 1.3 1.3 3.3 3.6 4.5 5.1 1.2 1.4 2.7 3.2 3.3 4 .6.8 1.8 2 2.6 2.8 2.8 2.9 6.1 6.6 7.9 8.9 1 1.3 3.3 3.8 5 5.5 1.7 1.7 4.5 4.6 6.1 6.4 1.6 1.8 4.3 4.6 6 6.2 1.7 1.6 3.3 3.3 3.6 3.7.4.7 2.1 2.7 3.1 3.8.2.2.5.6.7.9.4.5 2.4 2.7 6.1 6.5.6.6 1.7 1.9 2.4 2.8 1.2 1.4 3.9 4.6 4.2 4.9l1.7 1.9c.9 1 2 2.2 2.6 2.8 1.4 1.4 1.6 1.7 4.7 5.4 1.5 1.7 3 3.5 3.4 3.9.7.7 1.4 1.6 3.1 3.6.4.5 1.7 2.1 2.9 3.5s2.4 2.9 2.6 3.2c.4.6 2.1 2.6 2.6 3.1.7.8 4.7 7 6 9.3.7 1.2 1 1.5 1.6 1.2 1.2-.6 1.2-.7.7-1.6-.2-.4-.6-1.4-.9-2.2-1.7-4.7-3.4-7.7-6.9-12-3-3.7-4.3-5.4-4.3-5.6 0-.2 7.3 7.2 8.2 8.2.7.9 5.2 7.5 6.4 9.4.4.7.8 1.2.9 1.2.9-.4 2.4-1.3 2.4-1.5 0-.1-.8-1.2-1.7-2.2l-4-4.9c-3.3-4.1-4.2-5.1-6.9-7.9-1.3-1.3-2.4-2.5-2.5-2.6-.1-.1-1.2-1.3-2.3-2.7-1.2-1.3-2.6-2.9-3.1-3.4-.5-.6-1.4-1.5-2-2.1-.5-.6-1.7-1.7-2.6-2.5-2.9-2.6-8.6-8.7-10.5-11.4-.5-.8-1.2-1.6-1.5-1.9-.4-.4-.4-.5-.1-.4.2.1.7.5 1 .9.3.4 1.4 1.5 2.3 2.6 3.2 3.6 7.9 8.4 9.7 10 1.4 1.2 6.4 6.2 7.5 7.6.8.9 2.3 2.6 4.8 5.1 2.8 2.9 5.1 5.4 6.1 6.7.3.4 1.4 1.7 2.4 3s2 2.4 2.1 2.5c.3.5.4-.1.1-.7-.5-1.1-1.7-3.1-2.5-4.3-1.5-2.5-2.7-5.1-1.8-3.9.3.3.6.7.7.9 1.3 2.1 7.5 10.7 7.8 10.7.1 0 .1-.2 0-.4s-.1-.8-.1-1.3c0-1.1-.6-2.4-2.1-4.6-.7-1-2.2-3.2-3.4-4.9-1.2-1.7-2.7-3.8-3.3-4.6-.7-.8-2-2.5-2.9-3.7-1.6-2-3.5-4.3-7.1-8.3-.7-.8-2.5-2.9-4.1-4.8-1.6-1.9-4-4.6-5.4-6.1-2.4-2.5-4.3-4.5-5.8-6.4-1.6-2-3.2-3.8-6.2-6.8-1.7-1.8-3.5-3.6-3.9-4.1-1.7-2-6.6-6.7-8.9-8.6-1.4-1.1-3.8-3.3-5.4-4.8-3.2-3.1-5-4.7-8.6-7.3-1.3-1-3.9-3.1-5.6-4.7-1.8-1.6-4.2-3.7-5.5-4.8-1.2-1.1-3.1-2.8-4.2-3.8-2.3-2.3-4.2-3.9-6.6-5.7-.4-.3-1-.8-1.4-1.1-.4-.3-1-.8-1.2-1-.3-.2-.7-.5-.9-.7-.2-.2-.7-.6-1.1-.9-1-.8-2-1.6-2.4-2-.2-.2-.5-.3-.6-.3-.2 0 .1.4 1.3 2 .4.6 4.3 4.8 8.1 8.9 1.4 1.5 3.7 4 5.2 5.6 6.8 7.4 13.4 14.1 19.9 20.2 5.8 5.5 10.6 10.2 11.2 11.2.3.4.6.9.7 1 .1.2.9 1 1.7 1.9.8.9 1.9 2.2 2.6 2.8 2.1 2.2 4.1 4.7 4.1 5 0 1-1.3.1-2.7-1.8-.4-.6-1.5-1.9-2.4-2.8-.9-1-2.3-2.5-3.1-3.5-2-2.3-5.9-6.3-9-9.2a455.2 455.2 0 0 1-23.9-24.1c-1.2-1.3-3.4-3.7-4.9-5.3-4.1-4.4-8-8.9-9.8-11.1-.9-1.1-2-2.5-2.6-3.1-.5-.6-1.1-1.4-1.3-1.7-.2-.4-1.3-1.5-2.5-2.6-3.1-2.8-3.7-3.4-6.7-7.8-2.1-3.1-2.2-3.5-1.3-4.2.7-.5.8-1.4.4-2.9s-2.2-1.5-3.9 0c-.3.2-.8.4-1.2.3-.1 0 .2-.7.5-1.4.8-1.7.8-1.7.1-2.6-1.1-1.3-.6-1.5.6-.3.7.7.8.9.7 1.6-.1.9-.1.9 1.2.1 2.3-1.5 1.1-3.5-1.7-3.1-2 .3-3.3.4-3.2.2.1-.1.3-.2.5-.2.8 0 1.4-.6 2.2-2 .9-1.8.9-1.8.1-2.9-.9-1-.7-1.2.3-.5 1.3.9 1.5 1.6.9 2.9-.6 1.3-.5 1.4 1.1.5 2.7-1.6 3.1-2.6 2.1-4.9l-.6-1.3-1.9.8c-1.8.7-3.6 1.3-4.1 1.3-.4 0 .6-.6.9-.6.2 0 .4-.1.4-.2s.2-.5.5-.9c.8-1.3.6-1.7-1.1-1.7-1.4 0-1.8.3-1 .8.8.4.4 2.4-.6 2.9-.5.3-.5.5.1 1 .7.6 1.1 1.5 1 2.1-.2.7-1.1 2.8-1.3 2.9-.3.1-.2.6.1.7.5.2 1.5 1.8 1.6 2.5.1.6-.2 1.1-1.6 2.9-.4.5-.2-.4.2-1.2.7-1.2.6-1.7-.4-2.8-.4-.4-.7-.9-.6-1.1 0-.2 0-.5-.1-.8-.1-.3.1-.8.5-1.7.7-1.5.7-1.9.2-2.5-1-1.2-1-1.7-.2-2.8 1-1.6.6-2.8-1-2.8-.8 0-.9-.1-.2-.2.2 0 2.4-1.6 4.8-3.5s5-3.9 5.8-4.5c1.7-1.2 7.1-5.3 8-6.1 1.5-1.3 2.5-2.1 4.8-3.8 2.5-1.9 5.2-4.4 5.7-5.4.2-.3.7-1.2 1.1-1.9.5-.8.9-1.7 1-2 .1-.3.3-.6.4-.6.4 0 .7-1.8.4-2-.8-.8-1.1-.6-1.4-.2m-65.7 2.3c-2.1 1-.4 3.8 1.8 2.9.4-.2.7-.1 1.6.1.6.2 1.2.3 1.4.3.2 0 .5.2.6.6.6 1.4 3.2.6 3.2-1 0-1.3-1.3-2-2.6-1.3-.7.3-2.9-.3-3.9-1.1-.8-.7-1.3-.8-2.1-.5m58.5.2c.1.2.2.8.2 1.2.1.8.3.9 1 .4.6-.4.5-.8-.1-1.5-.7-.6-1.3-.7-1.1-.1m-147.6.7l.7.3v1.8c.1 2.3 0 2.3-.7-.3-.2-.6-.5-1.1-1-1.6l-.8-.8.6.1c.3.1.8.3 1.2.5m111.3.4c-.1.3-.3 1.7-.5 3.2-.2 1.5-.4 3.2-.5 4-.2 1.5-.2 8.1 0 9 .1.6.2.5.8-.9 1.7-3.5 4.7-8.3 7.1-10.9 1.6-1.8 2-2.5 1.4-2.5-.1 0-.8-.4-1.5-.9-2-1.5-2.5-1.3-5.1 2.1-.8 1.1-1.6 2-1.7 2.2-.1.1-.2.4-.2.5s-.1.2-.2.2c-.5 0 1.4-3.4 3.1-5.3.7-.8.6-.9-1.1-1.1-1.4-.2-1.4-.2-1.6.4m-107.7 3.2c.3.6.5 1.1.5 1.3s.3.8.7 1.5c.4.7.7 1.3.6 1.4-.2.2-1.6-2.1-2-3.2-.7-2.1-.6-2.7.2-1m153.7 1.4c-.6.6-1.7 1.6-2.4 2.2-.7.6-1.7 1.4-2.2 1.9-.5.5-1.3 1.1-1.8 1.5-.4.3-.9.7-1 .8-.3.3-1.7 1.4-3.2 2.7-1 .8-4.6 2.7-5 2.7-.1 0 .5-.7 1.3-1.5 3-3.1 5.3-5.9 5.3-6.3 0-.3-1 .3-3 1.9-2.1 1.6-4.9 3.7-7.2 5.4-.9.6-2.1 1.6-2.7 2.2-1.2 1.1-6.8 5.3-8.9 6.7-1.7 1.1-1.7 1.1.3.8 2.3-.3 3.4-.7 4.5-1.5 1.2-.9 7.5-4.7 7.9-4.7.3 0 2.1-1 3.4-1.8.5-.3 1.4-.9 2-1.3.6-.4 1.7-1 2.3-1.3.7-.3 1.6-.8 1.9-1.1.4-.3 1.2-1 2-1.6.7-.6 1.7-1.4 2.2-1.8.5-.4 1-.8 1.2-1 .1-.1.6-.6 1.1-1 1.7-1.5 3.7-4 3.7-4.6-.2-.7-.4-.5-1.7.7m-163.8.4c.6.5 1.6 1.5 2.3 2.2l1.6 1.6c.9.7 2.7 2.7 3.5 3.9.4.7.9 1.2 1 1.1.1-.1.2 0 .2.2 0 .8 1.6 4.1 2.6 5.4 1.9 2.5 5.3 4.5 6.7 3.8.4-.2.7-.3.8-.2.2.2-.9 1.1-1.3 1.1-.5 0-.5.1.2 1.1.3.5.5.9.4.9-.1 0-.4-.4-.7-.9-.4-.7-1-1.1-2.1-1.7-.9-.5-1.9-1-2.2-1.3-1.1-.8-.7-.1.7 1.3 1.4 1.4 1.6 1.7.5.9-2.2-1.6-4.1-4-6.3-7.9-.7-1.3-1.5-2.5-1.6-2.8-.6-.9.1-.4.8.6.9 1.3 1.1 1.3.5-.1-.9-2.1-2.7-4.4-5.1-6.3-3.2-2.5-4.4-3.8-3.6-3.8-.1.1.5.5 1.1.9m92.5.4c-1.5 1.8-.1 4.2 1.8 3 .5-.4 3.8.1 3.8.6 0 1.2 1.8 1.4 2.9.4 1.4-1.4-.4-3.5-2.2-2.5-.7.4-3.6-.3-4.4-1.1-.8-.7-1.5-.9-1.9-.4m-103.2 1.9c-.6.6.2 1 1.8.9.8 0 1.5 0 1.9.2.4.1 1.7.5 2.8.7 1.2.2 2.6.6 3.2.8 1.5.5 1.6.5.8-.3-1.6-1.7-3.8-2.4-7.6-2.5-2.2-.1-2.6-.1-2.9.2m27 .1c0 .7 1.3 2.9 1.7 2.9.3 0 .5.1.6.6.4 2 2.7 3.5 3.3 2.3.3-.6.4-.6.8 0 .4.8.4.9.2.7-.9-.9-2 .4-1.3 1.4.4.5 1.4.2 1.5-.5 0-.3.2-.4.3-.3 1.3.5-.6-3.7-2.3-5.3-1.7-1.3-4.8-2.5-4.8-1.8m199.9.8c-.4.9-.3 1 1.1 1.1 1.5.2 5.5 2.4 10.1 5.5.3.2.8.6 1.2.9 2 1.8 7.8 1.6 8.3-.2.1-.2.4-.6.8-.9 1.4-.8 2.8-2.4 2.4-2.7-.3-.2-1 .1-1.6.6-1.5 1.3-3.5 1.8-4.9 1.2-.6-.3-1.5-.6-2-.8-.5-.2-1.9-.8-3.1-1.5-4.9-2.7-6-3.1-9.3-3.7-2.8-.3-2.6-.3-3 .5m-113.8 1.7c-1 2-1.9 4.7-2.4 7.2-.2.9-.5 2.3-.6 3-.9 4.1-.3 16.3 1 21.9 2 8.7 3.3 12.5 4.3 12.7s3.5-1.3 5.2-3.2c1.3-1.5 1-1.4-2.1.2-1.1.5-2 1-2.1.9-.2-.2-3-10-3.2-11.3 0-.2-.1-.8-.2-1.2-.1-.4-.2-1.6-.3-2.5-.1-1-.2-2.1-.3-2.4-.5-3.8-.7-11.3-.3-13.7.1-.7.5-3.2.8-5.5.4-2.7.7-4.7 1.1-5.7.9-2.9.4-3.1-.9-.4m133.7-.8c.3.5 2.8 1.3 2.8 1 0-.1-.7-.5-2.1-1-.6-.3-.9-.3-.7 0m-74.9.6c-.4.4-.6.7-.6.8.1.1 1.5-1.2 1.5-1.4.1-.2-.3 0-.9.6m67.4.5c1 .7 2.4 1.4 2.4 1.2 0-.1-.1-.2-.2-.2s-.7-.3-1.3-.7c-1.2-.7-1.8-.9-.9-.3m-138.9 1.4c-.6.6-.8 2.1-.4 2.7.6.9 2 1.1 3 .5 1.2-.7 4-.4 4.9.6 1.3 1.5 3.8-.4 2.8-2.1-.6-.9-1.6-1.3-2.5-.7-1 .6-4.1.1-4.9-.7-.9-1.1-2-1.2-2.9-.3M88 194.8c.6 1.7 1.9 2.8 2.9 2.5.6-.1.8-.8.5-1.2-.1-.2 0-.1.2.1.4.3.4.5.2.8-.3.6 0 1.2.7 1.3.8.2 1 .4 1.1 1.2.1.8.5.9.5.2 0-.6-.7-3.2-1.2-4.1l-.4-.8.5.6c.3.3.6 1 .7 1.4.1.5.4.9.6 1 .8.2 1.3 3.5.7 4.4-1.7 2.6-5.9.1-8.1-4.7-.6-1.3-1-3-.6-2.3.4.6.8.4.8-.4 0-.9.6-.9.9 0m-8.7-.3c0 .1.1.5.3 1.1.3.9.3 1 .3.3 0-.4-.1-.9-.3-1.1l-.3-.3m238.1 1.8c-1.8 1.8-4.6 3-6.2 2.4-1.2-.4-1.8 0-1.8 1 0 .8.6 1.4 2 1.7 1.6.4 6-1.8 6-3 0-.3.2-.8.5-1 .8-.8 1.5-1.8 1.4-2-.3-.5-.8-.2-1.9.9m-153.3-.1c-.4.3-2.4 4.5-2.8 6-1 3.9-2.1 9.3-3.9 19.3l-.4 2.3-.6-1.3c-.5-1.2-.9-2.3-1.2-3.6-.2-.8-.7-.7-.8.3-.4 2.4 1.3 8.5 2.3 8.6.5 0 2.1-4.6 2.7-7.5.8-4 1.4-6.5 1.5-6.6.1-.1.2-.2.2-.4.2-1.4.5-3.4.6-4.5.1-1.2.5-2.3.5-1.5 0 1.3 1.8 2 3 1.2.8-.5 5.1 0 5.8.6 1.2 1.3 3.5.4 3.5-1.4 0-1.5-1.9-2.2-3.2-1.3-.5.4-1.1.5-3.5.3-1.3-.1-1.5-.2-1.5-.5 0-1.5-2.6-2.3-3.7-1.2l-.6.6.1-.5c.8-4.6.9-5.2 2.1-7.6.6-.9.6-1.7-.1-1.3m-82.9 1.6c-.6 1.6.5 5 2.2 6.6.8.8 1.1.6.4-.3-.2-.3-.3-.6-.3-.6.1 0 0-.3-.2-.6-.3-.5-.3-.6 0-.8.8-.6.6-2.4-.2-2.4-.5 0-.7-.2-.4-.5.2-.2.1-.4-.4-1-.9-.8-1-.9-1.1-.4m129 1.1c0 .1-1.6 2-3.5 4l-3.5 3.8.6.6c1.2 1.2 1.4 2.5.5 3.3l-.5.4.6.4c1.9 1.4 2.5 4.7 1 5.9-.2.2-.2.3.3.7.9.7 1.2 1.2 1.2 2.2 0 1.2-.8 3.5-1.3 3.6-.6.2-.5.3.9 1.3 2.2 1.5 2.4 2 3 6.4.2 1.5.3 1.8 1.2 3.2.6.9 1.6 2.6 2.4 3.8 3.3 5.6 2.6 4.6 10.9 14.4 1.9 2.2 4.2 4.9 5.1 5.9 1.9 2.2 6.7 8.5 6.7 8.9 0 .3 1.1 1.6 1.8 2.4.2.2.4.5.4.5s.4.5.9 1 1.3 1.3 1.6 1.8a37.37 37.37 0 0 1 3.1 4c1.6 2.2 6.1 7.9 7.6 9.7.4.5 1.8 2.3 3 4 1.3 1.7 2.5 3.4 2.8 3.8 1.4 1.8 1.9 2.6 1.6 2.8-.3.2-.6 0-1.5-1.4-.3-.5-.6-.9-.7-1-.1-.1-.9-1.2-1.9-2.5-2.8-3.8-2.9-4-5-6.6-1.1-1.3-2.3-2.8-2.6-3.3-.9-1.2-3.5-4.8-4.3-5.9-1.2-1.6-3.2-4.1-3.8-4.8-1.1-1.1-2.8-3.1-3.5-4.1-.4-.5-1.2-1.5-1.8-2.1s-1.3-1.5-1.6-1.9c-.7-1.1-3.5-4.4-4.9-6.1-.7-.8-2.3-2.7-3.5-4.2-1.2-1.5-2.5-3-3-3.4-.4-.4-1.2-1.2-1.8-1.9-.6-.7-1.6-1.8-2.2-2.5-1.4-1.4-2.9-3.6-4.9-7.4-.8-1.5-1.9-3.5-2.5-4.3-.9-1.5-1-1.6-1.1-3.5-.2-2.6-.5-3.4-2-4.8-.7-.6-1.4-1.3-1.6-1.6-.2-.2-.5-.4-.7-.4-.2 0-.1-.3.5-.9 1.5-1.7 1.5-3.1 0-5-.9-1.1-.9-1-.1-2.4s-.3-3.8-2.1-4.5c-.5-.2-.5-.2-.1-.5l.8-.8.5-.5-.4-.9c-.2-.5-.7-1.2-1.2-1.6l-.8-.8.6-.3c.3-.2 2-1.7 3.8-3.5 2.7-2.6 4-3.8 4.5-3.9.4.2.5.4.5.5m-19.4.6c1.4 1.3 1.1 5.2-.5 5.2-.2 0-.5.1-.8.3-.7.5-2.4.3-2.9-.3s-.3-.9.2-.5c.8.7 2.7.2 3.4-1 .5-.8.5-3 0-3.7-.6-.8-.3-.8.6 0m-93.7 1.8c.3 2.8.9 4.8 1.7 6.1.2.3.4.8.5 1.3.3 1 1.7 3.5 3.7 6.5.8 1.3 1.9 3 2.5 3.8l.9 1.5-.8-.9c-4-4.4-8.7-13.9-8.9-17.7 0-1-.1-2-.2-2.3-.1-.5-.1-.5.1-.2.2.1.4 1 .5 1.9m67.9-1.6c-1.9 1-1.3 4 .8 4 .5 0 1-.1 1.3-.4.8-.6 4-.2 4.8.5 1.9 1.9 4.5-1.2 2.6-3.1-.8-.8-2.8-.2-2.8.8 0 .2-.1.3-.7.2-.4-.1-1.2-.2-1.8-.2-1-.1-1.1-.2-1.3-.7-.5-1.3-1.7-1.7-2.9-1.1m-21.3 4.6c-.2.2-.5.6-.8 1-.8 1.1-2.5 2.7-4.4 4.2-.1.1-.4.3-.6.5-.2.2-.6.5-1 .8-4.7 3.6-6 6.8-4.7 11.7.2.8.4 1.7.4 2.1 0 3.8 4.9 12 7.1 12 .5 0 .4-.1-.6-1.5-1.4-2.1-3.4-6.2-3.7-7.9-.1-.3-.3-1.4-.5-2.4-.4-1.9-.7-5.3-.3-5.1.1.1.2.5.2 1 0 3.1 2.8 10.5 5.2 13.6 2.7 3.6 3.1 3.7 3.4.8.1-1.1.3-2.5.5-3 .2-1 .8-4 .8-4.3 0-.1-.5-.1-1-.1-1.4.1-1.8 0-1.4-.5.2-.2.2-.3.2-.1-.1.2-.1.2.1.1.1-.1.2-.2.1-.3-.1-.2.4-1.1 1.7-3.1.5-.8 1-1.7 1.2-2.1.1-.4.4-1.1.6-1.5.2-.4.4-1.1.5-1.7.1-.5.2-1.4.4-2.1.2-.6.3-1.2.3-1.2s-.7-.1-1.7-.1c-2 0-2.1-.1-1.8-2.1.3-1.8.7-8.5.5-8.9-.3-.1-.5 0-.7.2m-56.2 1.9c-.7.5-.7.5.9 1.3.8.4 1.5.8 1.6.9.1.1.2.2.3.2.2 0-.6-1.2-1.5-2.2-.6-.6-.6-.6-1.3-.2m126.5.4c-2 .3-1.9.3-1.7.9.1.3.2.6.3.8.1.3.2.3 1.5-.3 1.1-.6 2.4-1.7 1.8-1.6-.1-.1-1 0-1.9.2m-127.5.8c0 .1.1.2.3.3.5.2.5.1.3-.2-.3-.3-.6-.4-.6-.1m105.7 3.8c.9 1.6.2 3.6-1.4 4.1-1.8.5-3.1-.2-3.2-1.8l-.1-.8.3.6c1.3 2.8 4.9.6 3.7-2.3-.4-1 .2-.8.7.2m-46.8-.2c-.1.3-.1.6 0 .6s.1-.1.2-.4c.1-.3.1-.6 0-.6s-.1.2-.2.4m17.3.3c-1 .4-1.5 2-.9 3.1.6 1.2 1.8 1.5 2.7.7.8-.7 4.6-.3 4.9.5.3 1.1 2.3 1.3 3.2.3 1.8-1.8-.6-4.7-2.6-3.1-.7.6-4.4.2-4.6-.5-.3-.9-1.7-1.4-2.7-1m-22.8 4c-.4 1.6-.4 1.6 1.8 1.7 1 .1 1.8.1 1.8.1.6.1-.4.4-1.8.7-1 .2-2 .4-2.2.6-.5.3-1.9.3-1.7 0a16.36 16.36 0 0 0 2.2-4.4c0-.1 0-.2.1-.1s0 .7-.2 1.4m26.2 1.5c-.1.1-.2.5-.2.9-.8 4.7-3.3 11.1-6.3 16.2-1 1.7-1.8 3.1-1.8 3.2s-.4.6-.8 1.3l-.8 1.2-.3-.6c-1.2-2.8-1.5-5.1-1.7-11-.1-4-.9-2.1-1.2 3.1-.2 2.7.1 4.7 1.1 8.6.3 1 1.2 2.8 1.4 2.8.3 0 3.6-3.7 4.1-4.5.1-.2.3-.5.4-.5.1-.1.3-.5.6-1 .2-.5.6-1.1.9-1.5 1-1.4 2.1-3.5 2.8-5.5.4-1.2 1-2.6 1.3-3.2l.5-1.1.2 1.5c.2 1.4.8 3.4 1.3 4.6.1.3.5 1.3.9 2.2 2 5.1 8.2 12.7 10.4 12.7 1.2 0 4.4-2.3 7.3-5.4 3.1-3.2 2.6-3.3-1.7-.1-1.8 1.4-5.4 3.5-5.8 3.5-.3 0-1.3-.8-1.3-1 0-.1-.6-1-1.3-1.9-1.7-2.2-2.8-3.8-3.6-5.7-.4-.8-1.3-2.7-2-4.1-1.9-3.8-2.9-7.7-3.3-12.7-.1-1-.2-1.9-.4-2-.2-.2-.5-.2-.7 0m43.8 7c1.2.6 1.5 1 1.5 2.1-.3 4.1 1.8 8.1 7.2 14.5.5.6 1.9 2.4 3.1 4.1 2.3 3.1 4.1 5.3 6.6 8.1.8.9 2.2 2.6 3.1 3.8.9 1.2 2.5 3.1 3.5 4.2s2.4 2.8 3.2 3.7c1.8 2.4 5.9 7.2 7.7 9.2 2.9 3.1 6.3 7.1 5.9 6.9-.2-.1.4.6 1.2 1.5.1.1.6.7 1.2 1.4s1.2 1.4 1.4 1.6c3.3 3.4 8.6 10.3 8.6 11.3 0 .6-.7.1-1.4-1.2-.8-1.3-2.1-3.2-2.7-3.8-.1-.1-.7-.8-1.2-1.6-.6-.7-1.2-1.5-1.4-1.7-.2-.2-1.1-1.1-1.9-2-.8-.9-1.6-1.7-1.7-1.8s-1.1-1.3-2.1-2.5c-1.1-1.3-3.1-3.5-4.5-5-2.6-2.7-7.7-8.7-9.5-11.2-.5-.8-1.9-2.3-2.9-3.5-1.1-1.2-2.8-3.3-3.8-4.7-1.1-1.4-2.5-3.2-3.2-3.9-2.1-2.3-3.9-4.5-6.1-7.6l-3.3-4.4c-3.8-4.7-5.4-7-6.2-9.5-.3-1-.8-2-1-2.3-.5-.7-.6-1.4-.4-2.7.3-1.4.1-1.7-1.1-2.4-1.5-1.1-1.3-1.3.2-.6m-93.9 0c0 .2.9.6 1.2.6.3 0-.3-.5-.8-.7-.2 0-.4 0-.4.1m-9.6 3.9c-3.3.6-4.8 2.1-4.6 4.4.2 2.1 1.4 3.6 2.8 3.5.7-.1.7-.1.3-.3-.2-.1-.4-.2-.3 0 .2.3-.1.3-.7-.1-.5-.2-.4-.3.3-.3 1.1 0 2.7-.9 2.5-1.5-.4-1.5-.4-1.4 0-1.1.4.4 1.4.5 1.5.2 0-.1.5-.1 1.4 0 .8.1 1.6.1 2.1 0 .4-.1.9-.1 1.2 0 .5.2 2.2-.3 2-.6-.1-.1-.5-.2-.9-.3-.8-.1-1.3-.5-.6-.5 1.1 0 3.7-.2 4.2-.3.3-.1.6-.1.7-.1.5 0 .2-.5-.6-.8-.5-.2-1.3-.7-1.8-.9-1.2-.7-5.2-.6-4.1.1.3.2.1.2-.5 0-.4-.1-.4-.2 0-.6.6-.6.6-.6-.3-.8-1-.4-2.8-.4-4.6 0m5.5 2.7h-.7c-.2 0 0-.1.3-.1s.6.1.4.1m12.6 1.7c-.4.3-.7.5-.5.5.3 0 1.6-.7 1.6-.9 0-.2-.3 0-1.1.4m-10.6 1.5c-.2.1-.4.3-.4.4 0 .1-.5.1-1.2.1-.7-.1-1 0-.6.1l.6.1-.6.3c-.3.1-.9.6-1.3 1s-1 .8-1.4 1c-1.7.7-2.3 2.2-1.6 4 1.2 2.8 3.2 3.5 4.8 1.7 1.4-1.4 1.4-2.2.2-2.2-.9 0-1.2-.3-.4-.5.3-.1 1.3-.4 2.2-.7 2.4-.9 3-1 3.4-.8.2.1.8.1 1.7-.2.8-.2 1.7-.5 2.2-.6l.8-.1-.9.4c-.5.2-1.3.7-1.7 1.1-.4.4-.9.8-1 .8-.8 0-4.1 2.1-4.4 2.7 0 .1-.5.5-.9 1-1.6 1.4-1.8 2.3-.8 3.6.8 1.1 1.5 1.6 2.5 1.6.4 0 .9.1 1 .2.3.2.8-.1 1.2-.5.4-.5.7-.4 1.2.4l.4.7-.4.9c-1.8 3.7-.4 6.6 2.8 6 1.2-.2 1.3-.4 2.1-1.8.7-1.3.8-1.8.4-2.4l-.4-.4-.1.7c-.2 1.2-1 1-.8-.2.1-.5.1-1.3.1-1.7 0-.4.1-.7.2-.7.2 0 .3.2 1.1 1.7.2.3.5.6.6.6.1 0 .3.2.3.4s.1.4.3.5c.1.1.8.9 1.4 1.8 1.3 2 2.2 3.2 3.2 4.3a45.4 45.4 0 0 1 4.3 5.4c.1.2.6.8 1.1 1.4 1.5 2.1 2.6 3.3 2.8 3.1.5-.7 2-6 2-6.8 0-.2-.8-1.4-1.9-2.7-1-1.3-2.2-2.8-2.6-3.4s-1.6-2.5-2.7-4.2c-2.2-3.4-4.5-7.4-5.6-9.7-.4-.8-.8-1.5-.9-1.5-.4 0-1.6 2.3-1.5 2.8.2.9 4 7.1 5.7 9.3 1.3 1.7 3 4.3 2.6 3.9-1.4-1.2-5.6-6.9-8.7-11.7-.6-.9-.6-.9-1.3-.3-.6.6-.6.5.1 1.6.3.5 1 1.4 1.4 2 .4.6 1.2 1.7 1.7 2.4s1.5 2 2.1 2.9c3.9 5.6 4.7 6.6 4.7 6.8 0 .1.1.2.2.3.1.1.1.1 0 .1s-.5-.5-.9-1c-2.9-3.9-4.4-5.8-5.3-6.9-.6-.7-1.3-1.5-1.6-1.9-.3-.4-1.2-1.5-2.1-2.5-.9-1-1.7-2-1.7-2.2-.2-.4-.5-.3-.3.1.1.3 0 .4-.4.6-.3.1-.5.4-.5.6-.1.6-.5.6-.8 0-.1-.3-.3-.6-.4-.6-.1 0-.2-.1-.2-.3 0-.2-.2-.3-1-.3-1.3 0-1.2-.3.1-.7.9-.3 2-.9 3.6-2 .6-.4.4-1.2-.3-1.2s-1.9-.6-1.9-1c0-.1.1 0 .3.1.3.3.5.3 1.3 0 .3-.1.3-.1.2.1-.3.4.8.1 1.9-.6 1.9-1.2 2.5-4.3.9-4.3-.2 0-.3-.1-.2-.3.1-.4.3-.4-1.2.6-.3.2-.5.2-.9.1s-.7-.1-1.3.1c-1.2.4-2.5.5-2.5.1 0-.1.2-.1.4-.1.6.2 2.7-1 3.9-2l1.1-1-3.1.1c-3.5.1-4.1.2-4.9 1.1-.7.7-1 .4-.5-.4.2-.4.2-.5 0-.6-.2-.1-.2-.1 0-.1.1 0 .2-.1.1-.2-.4-.6-.5-.6-1.1-.4m12.1.2c-.1.3-.1.6-.1.8.1.2.2.1.3-.4.2-.8.1-1.1-.2-.4m-9.6 2.3c.2.1.1.2-.3.3-.6.1-1.1 0-.9-.3.1-.2.8-.2 1.2 0m10.4 2.1c0 .2.1.5.2.5.2.2.2-.3 0-.7-.2-.2-.2-.1-.2.2m-3.2 5.1c0 .2.2.6.5 1 .6.9.6.8.1-.4-.4-1-.6-1.1-.6-.6m30 1.8c-.4.6-.3.7.6 1.2.8.4 1.9.7 4.6 1.4.5.1.3.1-.8.1-1.4-.1-2.7-.3-3.6-.6-.4-.1-1 .8-1 1.5 0 .2 2 1 2.7 1.2 1.2.3 2.4.5 3 .5.5 0 .6.1.4.2-.4.2-2.8.1-4.1-.3-2.6-.7-2.6-.4-.1.4 2.4.8 6.2 1.3 9.8 1.3 5.8.1 9.4 0 10.9-.2 4.4-.6 6.7-1 6.8-1.1.1-.1 0-.1-3.2-.1-3.7 0-2.5-.2 4.9-1 3-.3 5.1-1.4 5.1-2.7 0-.5-.1-.5-4.1.2-4 .7-12.9 1-16 .6-.9-.1-2-.3-2.4-.3-.4 0-1-.1-1.2-.2-.2-.1-.8-.1-1.2-.2-.4-.1-1.9-.4-3.3-.7-6.7-1.6-7.5-1.7-7.8-1.2m36.6 5.5c-.3.1-.9.4-1.5.6-.5.2-1.1.4-1.2.5-.4.3-5.6 1.5-7.4 1.8-2.6.3-2.5.2-2 3.3.6 3.8 2.7 8 3.9 8 .1 0 .6.4 1.2.9s1.4 1 1.8 1.1c.4.1 1.2.3 1.9.5l1.1.3.7-1.1c.4-.6.7-1.1.7-1.3 0-.1.1-.2.2-.2s.2-.1.2-.1c0-.1.1-.5.3-.9.2-.4.5-1.1.6-1.5.2-.4.4-1 .6-1.3.7-1.5.9-3.6.9-9.1v-1.7h-.7c-.4 0-1 .1-1.3.2m-36.9 1.2c0 .3.1.8.3 1.3.5 1.3-.1 7.1-.9 8.9-.4.9-.5 2.2-.2 2.2.6 0 1.8-2.1 2.6-4.6.7-2.4 1.3-5 1.4-5.8l.1-.9-1.3-.5c-.7-.3-1.4-.7-1.5-.8-.2-.4-.5-.3-.5.2m5 1.6c-1.8 5.3.4 12.5 4.8 16 1 .8 1.1.7 3.9-1.8 2.7-2.5 3.5-3.8 4.1-6.6.1-.6.4-1.3.5-1.6.2-.3.4-1.3.6-2.2.2-.9.4-1.9.5-2.2.4-1-.1-1.1-4.2-1.1-2 0-4.3-.1-5-.2-2.6-.5-5.1-.6-5.2-.3m-34.4 1.2c-.4 1 0 1.7 2.7 4.7.7.7 1.5 1.8 2 2.3.4.5 1.2 1.5 1.8 2.2.6.7 1.3 1.6 1.6 2 1.6 2.4 4.2 5.8 4.4 5.7 1-.6.9-.7-5.8-9.1-2.5-3.2-3.2-4.1-5.2-7-1.1-1.5-1.2-1.5-1.5-.8m62.6.5c.2.3.9.9 1.6 1.2 1.4.7 1.4.8-.3.6-1.1-.2-1.3-.3-1.7-.9-.7-1.2-.4-2.1.4-.9m-2.8 1.2c-.2 1.4-1 2.5-2 2.5-.7 0-.5-.5.7-1.8.3-.3.7-.9.9-1.3.5-1.1.6-.9.4.6m63.3-.7c.2.3 1.5 1.5 3 2.7 1.5 1.2 3.8 3.3 5.3 4.5 1.5 1.3 4 3.3 5.6 4.5 3.9 2.9 5.8 4.5 9.2 7.8 1.6 1.5 3.7 3.4 4.8 4.3 2.7 2.1 6.6 5.9 7.9 7.7.6.8 2.3 2.7 3.8 4.2 3.3 3.3 5.5 5.7 7.5 8.1 1.8 2.2 2.8 3.3 5.8 6.4 2 2.1 3.3 3.5 6.6 7.4 2 2.4 2.9 3.4 5.3 6.1 1.5 1.7 3.3 3.8 4 4.7.7.9 2 2.5 2.9 3.6 1.6 2.1 3 4 5.9 8.3.9 1.3 1.7 2.3 1.7 2.3.4-.2-.9-3.2-2.4-5.7-.7-1.1-.7-1.1-2.2-3.1-.5-.7-1.1-1.5-1.3-1.8-.9-1.2-2-2.7-2.3-3-.2-.2-.3-.4-.3-.4 0-.1-.2-.4-.5-.7-1.2-1.4-1.5-1.7-1.6-2.2-.1-.3-.2-.5-.3-.5-.1 0-.2-.2-.3-.3-.2-.5-1-1.8-1.4-2.3-.2-.2-.3-.4-.3-.5s-.4-.7-.9-1.4-1.1-1.5-1.2-1.7c-.6-.9-1.9-2.6-2-2.6-.1 0-.1-.2-.1-.3 0-.1-.1-.3-.2-.4-.1-.1-.5-.5-.7-.9-.3-.4-.6-.7-.7-.9-.1-.1-.4-.5-.7-.9s-.5-.7-.6-.8c-.1-.1-.4-.5-.7-1-.3-.5-.6-.9-.7-.9-.1 0-.1-.1-.1-.2s-.4-.7-.9-1.4-1.2-1.6-1.4-2c-.3-.4-.7-1-.9-1.2-.2-.2-.4-.5-.4-.6s-.1-.2-.1-.3c-.1 0-.7-.7-1.3-1.4-1.7-1.9-3-3.3-7.4-7.8-2.1-2.2-4.3-4.4-4.8-4.9s-1.4-1.4-2-1.9c-.6-.5-1.4-1.3-1.9-1.7-.4-.4-1.1-.9-1.5-1.3-.4-.3-.9-.7-1.1-.9-.2-.2-.6-.5-1-.8-.9-.6-1.5-1.2-3.1-2.7-2.3-2.2-3.5-3.2-4.3-3.8-.4-.3-.8-.6-.9-.7-.6-.6-1.1-.9-1.2-.9-.1 0-.2-.1-.2-.1s-.5-.5-1.2-.9c-.6-.4-1.2-.8-1.2-.9 0-.1-.1-.1-.3-.1-.2 0-.3-.1-.3-.1 0-.1-.5-.5-1.1-.9s-1.1-.8-1.1-.9c0-.1-.1-.1-.2-.1-.2 0-.7-.4-1.3-.9-.4-.4-6.1-4.2-8.6-5.7-1.3-.8-2.6-1.6-2.9-1.9-.3-.2-.7-.5-.7-.5-.1 0-1-.6-1.8-1.2-1.3-1.1-3-2-2.7-1.6m-83.6 1.1c.2.2.3 1 .4 1.6.1 1.2 0 1.2-.6.1-.2-.3-2-.6-2.2-.4-.3.3-.5.2-.3-.3.6-1.4 2.1-1.9 2.7-1m5.5.4c.2.3.3.6.2.9-.1.4-.4.5-.6.2-.3-.5-1.4-.2-1.9.4-.6.8-.7.4-.2-.6.8-1.5 1.8-1.9 2.5-.9m26.5.4c-2.6 1.5-2.3 4.7.5 5.1 1.3.2 3.2-2.4 2.7-3.9-.3-1.1-2.2-1.8-3.2-1.2m-7.7 2c.6.4 1.7 2 1.5 2.2 0 0-.6-.1-1.2-.3-2.1-.7-3.4-.2-4 1.7-.3.9-.6.6-.6-.8 0-3.1 2-4.4 4.3-2.8m36.4 0c.3.3.5.7.6.9.1.3 0 .3-.2-.1-.2-.3-.5-.7-.8-.9-.2-.2-.4-.4-.3-.4.1 0 .4.2.7.5m-62.9 2.3c1.5 3.4 3.3 3.7 6.2 1.2 1.2-1.1 1.1-.1-.2 1.7-.4.6-3.1 2.5-3.5 2.5-.8 0-2.7-3.3-3.1-5.3-.3-1.7-.1-1.7.6-.1m64.2-.5c.2.2.3.5.3.6 0 .1.1.2.2.2s.2.1.2.2c0 .2-.5-.2-1.1-1.1-.4-.4 0-.3.4.1m-84.5 1.5c-.1.3-.2 1-.4 1.6-.3 1.3-.3 1.4-.1 1.2.2-.1 1-2.6 1-3.1 0-.4-.4-.2-.5.3m33.1-.1c-2.1 1.7-1.2 5.3 1.4 5.3 2.7 0 4.2-3 2.5-4.8-.9-1-3-1.2-3.9-.5m55.1 3.4c0 .2-1.1-1-1.4-1.6-.1-.2.2 0 .6.5.4.5.8 1 .8 1.1m-32-.4c-.9.4-2 .8-2.4 1-2.5.9-6.9 2.4-7 2.4-.1 0-.5.1-.9.2s-.9.2-1.1.2c-.6-.1-2.2.2-4.9.9l-2.6.7h-5.5c-9.5 0-13.5-.5-18.9-2.6-2.2-.8-2.7-.9-2.7-.2 0 .5 2.5 1.7 6.5 3.1 2.3.8 2.3.9.2.5-1.6-.3-1.8-.3-3.9-1-1.1-.3-2.3-.8-2.7-1l-.7-.4-.4.8c-.7 1.6-.7 1.6.5 2.3 1.1.7 3.9 1.9 4.8 2.2a41.52 41.52 0 0 0 4.7 1.1c2.5.4 2.3.6-.3.3-3.8-.4-7.1-1.3-9.5-2.6-1.2-.7-1.4-.7-1.4-.1s.8 1.2 1.7 1.2c.5 0 1 .2 1.6.6.5.3 1.3.7 1.9.9.5.1 2 .6 3.2.9 1.3.4 2.9.7 3.8.7.9 0 2.5.2 3.6.3 1.1.1 4 .2 6.4.2h4.4l3.4-.8c1.9-.5 3.7-1 4.1-1.2.4-.2 1.4-.6 2.2-.8 1.8-.6 2.3-.9 1.1-.6-1.1.2-1.7.1-.9-.2.3-.1.7-.3 1-.3 4.1-.8 15.7-5.6 16.5-6.9.5-.7.2-.8-1.1-.2-1.6.7-2.8 1.1-2.8.9 0-.1.1-.2.2-.2.8 0 4.1-2.4 3.8-2.8-.3-.3-.7-.1-3.8 1.4-5.5 2.7-13.2 5.1-18.3 5.7-1.1.1-.6-.2.6-.4.5-.1 1.2-.3 1.5-.4.4-.2.7-.3.8-.3.1 0 .5-.1.9-.2s.9-.2 1-.3c.4-.1 1.2-.3 1.6-.5.2-.1 1.6-.7 3.1-1.3 6-2.4 6.9-2.8 7.7-3.2.6-.3 1.2-1 .8-.8-.1.2-.9.5-1.8.8m33.6 2.3c0 .1.1.2.2.3.2.1.3.2.3.3 0 .1.3.5.7.8.4.3.7.7.7.8s.1.3.3.4c.2.1.2.2.2.3-.2.3-.7-.3-.7-.7 0-.2-.1-.3-.2-.3s-.7-.6-1.2-1.2c-.5-.7-1.1-1.4-1.3-1.6-.2-.2-.4-.5-.4-.6 0-.1.3.1.7.6s.7.8.7.9m-47-.5c.3.3.7.5 1 .6.5.1.2-.1-.7-.6l-.8-.4.5.4m-45.3 4.3c-.3.5-.4.9-.2.9s.7-1.2.6-1.3c0-.1-.2.1-.4.4m95.3-.2c.1.4-.3.3-.4-.1-.1-.2 0-.3.1-.2.2.1.3.2.3.3m.7 1c.2.3.3.6.3.7 0 .1-.3-.1-.5-.5-.5-.8-.3-1 .2-.2m-27.1 1.6c-.3.4-.6.8-.7.8s-.6.7-1.1 1.4c-2.2 2.7-9.1 8.3-7.5 6.1.4-.6 4-5.1 4.7-6 .7-.8 0-.6-4.9 1.8-6.4 3.1-13.3 5.6-14.9 5.3-.5-.1-.6 0 1.6-.9 3.2-1.2 4-1.5 5.7-2.4 2.1-1.1 3.9-2.2 3.5-2.2-.1 0-.5.2-.8.4-.4.3-1 .4-2.9.5-2 .1-2.7.2-5 .9-3 .9-4.5 1-11.4.8-1.9-.1-5.9-.2-8.8-.3l-5.3-.1.6.5c.3.3 1.1.8 1.8 1.1 1.5.8 4.2 2.3 4.3 2.5.1.2-.6.1-1.2-.3-.3-.2-1.3-.6-2.3-.9-1-.3-2.4-1.1-3.2-1.6-1.4-.9-1.9-1.2-1.4-.7 1 .9 5 3.6 8 5.4 1.8 1 2.5 1.6 2 1.6-1.7 0-11.9-5.6-14.5-8-.7-.7-.9-.7-1.8-.7-1.9 0-2.5.9-3 4.5s-.5 3.8.8 5.4a89.83 89.83 0 0 1 1.4 1.9c1.4 1.7 2.6 3.3 3.3 4.4.5.8 1 1.5 1.1 1.7 1.2 1.5-1.8-1.1-4.9-4.2-1.5-1.5-2.2-2-2.3-1.9-1.5 2.3-1.6 5.7-.4 8.6 1.5 3.4 1.5 3.7-.2 1.5-1.7-2.3-1.8-2.3-1.7-.6.1 1.1.2 1.6 1 3.1 1.7 3.4 1.8 4.3.2 2.2-1.1-1.4-1.3-1.5-1.1-.2.1.8.1 1-.3 1.5-.5.7-1 2.5-1.2 4.1-.3 2.7-.3 3.2-.6 4.9-.3 2.3-.5 3.1-.6 4.5-.3 3.2-.5 5-.8 6-.2.6-.4 2-.5 3-.1 1.1-.3 3-.5 4.2-.4 2.8-.4 3.8-.7 6.9-.1 1.4-.2 2.9-.3 3.4-.1.5-.2 2.2-.3 3.9-.1 1.7-.3 3.6-.5 4.4-.1.8-.5 3.3-.8 5.6l-.7 5.4c-.1.6-.3 2.1-.4 3.3-.1 1.2-.3 2.5-.4 3-.6 2.5.7-.3 2.1-5 1-3.2 1.7-5.7 2.9-11.1 1-4.5.4 5.7-.6 10.9-.5 2.5-.5 3.1-.1 2.3.2-.4.2-.4.8.3.6.8 1.7 1.7 1.8 1.5.2-.3 1.3-4.2 1.4-4.9.1-.4.2-.9.2-1.2 1.3-7 1.7-7.9 1.6-3.8-.2 4.4-.3 6.8-.5 8.9-.2 2.1-.1 2.3.9 2.1.6-.1.7-.2 1-1 .5-1.4 1.3-3.9 1.3-4.2 0-.1.1-.2.2-.2s.1.2.1.5-.1 1.1-.2 1.9c-.1.7-.2 1.5-.2 1.8-.5 2.2 8.3-3.9 10-6.9.6-1 .8-1.9 2.1-7.1.5-2 1.1-4.1 1.3-4.8l.4-1.2-.1 3.6-.1 3.6.6-1.1c.9-1.7 1.9-4.9 2.4-7.6.6-3.3.4-20.5-.3-23.6-.1-.2 0-.5.1-.5.1-.1.4 1.5.8 3.4.7 4.2.8 5.1 1.1 10.2.1 2.4.2 2.5.4 1.1.1-.6.4-2 .6-3 .5-2.1 1.2-4.9 1.3-5.9.1-.4.3-1.5.5-2.5s.4-2.3.5-2.7c0-.5.2-1.4.3-2.1l.2-1.2-1.4-2c-1.4-2-2.9-4.6-2.7-4.6.1 0 0-.2-.1-.4-.5-1 0-.3.7.8.7 1.3 3.1 4.5 3.5 4.6.3.1 0-.6-1-2.4-1.5-2.8-3.7-9.5-3.1-9.5.1 0 1.6 2.6 2 3.4.4.9 2.4 4 2.6 4 .1 0 0-.8-.3-1.7-.7-2.5-.9-7.9-.2-6.2.1.2.4 1.1.7 1.9 1.2 3.3 5.8 6.1 8.6 5.3.7-.2.7-.2.3-2.3-.4-2-.4-2.3.2-1.2.3.5.5 1.1.5 1.2 0 .4.6.8.6.3 0-.9.6-6 .6-6.1.2-.2.3.4.7 3 .5 2.8.6 3.1 1.4 4 .8.8.9.7 1-.7.2-1.5.3-2.4.5-3 .1-.3.2-.7.2-.9.2-1 .3-.5.6 3.2.3 3.1.9 5.6 2.2 8.5 1.6 3.6 1.6 3.7 1.2 1.2-.2-.9-.3-2.4-.4-3.3-.6-8.3-.6-9.1-.4-9.3.1-.1.4 1 .7 3 .6 3 3.9 10.6 6 13.4.8 1.1 1.9 2.3 1.7 1.8-.5-1.4-2.7-9.7-2.7-10.4 0-.4.2-.2.3.3.2 1 2.6 7.5 3.7 10.2l1.3 3 2.5 2.4c4.8 4.7 5.8 5.5 5.9 5.4.1-.1 0-.2-.1-.2s-.2-.2-.2-.3c0-.1-.3-.6-.7-1.1-.8-1-2.5-4.4-2.4-4.6.1-.1.1-.2 1.2 1.5 2.1 3.3 2.7 4 5.7 6.6 1.7 1.5 3.8 2.8 3.8 2.4 0-.1-.4-.7-.8-1.4s-1.1-1.8-1.4-2.4c-.3-.6-.7-1.3-.8-1.5-.3-.6-.6-1.5-.3-1 .1.2.9 1.2 1.8 2.3.9 1.1 2.1 2.7 2.8 3.5 1.5 1.9 1.5 1.9 3.1 1.8 1.4-.1 1.7-.5.9-1.3-.2-.2-.3-.4-.3-.5 0-.1.3.1.8.6.7.8.8.8 1.2.5.6-.4 2.5-2.3 2.5-2.4 0-.2-1.6-3.7-3.2-7.2-1.5-3-2.8-6.2-2.8-6.7a2 2 0 0 0-.3-.8c-.2-.4-.2-.6 0-.6.1 0 .4.4.6.9.2.5.8 1.6 1.3 2.5.5.9.9 1.7.9 1.8 0 .1.2.5.6.9.3.4.8 1.3 1.2 2 2.1 3.9 2.5 4.7 2.5 4.8 0 .7.6 0 1-1.2.7-2.2.7-2.9 0-4.6-1.2-3.3-2-5.6-2.5-7.8-.2-.9.6.9 1.7 3.8 1.6 4 1.8 4.2 1.6 1.7-.2-3.4-.6-5.6-2.1-10.8-.2-.8-.4-1.6-.5-1.8 0-.2-.2-.8-.4-1.4-.2-.6-.5-1.9-.7-2.8-.5-2-.4-1.8-2.3-6.6-.8-1.9-1.8-4.7-2.4-6.2-1.4-3.7-1.9-5.1-2.4-6.4-.3-.6-.5-1.3-.5-1.5 0-.2-.2-.7-.4-1.1-.2-.4-.7-1.4-1-2.3-.6-1.7-1.9-5-2.7-6.9-.3-.6-.9-2.1-1.4-3.4-1.1-2.8-2.2-4.1-2.9-3.5-.2.2-.4.4-.4.5 0 .3-2.8 4.8-3.2 5.3-.4.4-.4.2.4-1.5 1.4-3.1 2.1-5 1.8-5.3 0-.2-.5 0-1.1.8m28.3-.2c.2.2.3.4.3.5 0 .1.4.7 1 1.5.9 1.3 1.2 2.1.8 1.8-.1-.1-.2-.2-.1-.3.1-.1-.1-.4-.3-.6-.2-.2-.4-.6-.5-.8-.1-.2-.2-.3-.2-.3-.1.1-.9-1.1-.9-1.3 0-.1 0-.1-.1-.1s-.3-.2-.4-.4c-.3-.5 0-.5.4 0m-30.7.1c-.3.2-.7.9-.5.9 0 0 .3-.3.5-.6.4-.6.4-.7 0-.3m-20.7 1.1c-.2.1-.5.2-.8.2h-.5l.5-.2c.8-.2 1.2-.2.8 0m54.4 3.4l.3.6-.4-.4c-.2-.2-.4-.5-.4-.6 0-.4.1-.3.5.4m.7.9c0 .1.5.9 1.2 1.8 1.6 2.2 1.8 2.5 2.5 3.3.4.4.6.8.6.8s.2.3.5.7c.3.3.8.9 1.1 1.2.3.4.5.7.6.8.1.1.4.5.7 1 .3.5.6.9.7 1 .1.1.8 1.3.8 1.5 0 .1.2.3.5.6s.5.6.5.8c0 .1.1.3.2.3s.2.1.2.3c0 .1.2.5.4.8.4.5.6.8 1.2 1.8.1.2.3.5.3.5.7.7 2.3 3.1 2 3.1-.2 0-1.8-2.2-1.8-2.4 0-.1-.2-.3-.3-.5-.3-.3-3.4-5.2-4-6.2-.1-.2-.4-.7-.7-1-.3-.4-.5-.8-.5-.9 0-.1-.1-.2-.2-.2s-.3-.2-.5-.5-.7-1-1.2-1.5-.9-1.1-1-1.3c-.1-.2-.2-.3-.3-.3s-.5-.5-.9-1c-.4-.6-.8-1.1-.9-1.2-1.4-1.7-2.1-3-1.7-3-.1-.5 0-.4 0-.3m-18.8 43.8c.2.6.3 1.1.2 1.1-.2 0-.4-.2-.5-.8-.1-.3-.2-.7-.3-.9s-.2-.5-.2-.6c0-.5.4 0 .8 1.2m73.4 26.2c.8 1.3 1.2 3.2.6 2.4-.2-.2-.4-.5-.6-.7s-.4-.6-.5-1c-.3-.7-.3-.8-.4-1.3 0-.2-.1-.2-.2-.2-.2.1-.3-.2-.1-.4.3-.2.5 0 1.2 1.2m-74.3 3.6c.5.2 1.5.2 1.9 0 .2-.1-.1-.2-1-.2-.9.1-1.1.1-.9.2m-82 18.2c-.1.2-.3.8-.3 1.2l-.1.8.4-1c.3-1 .4-1.7 0-1m127.8 5.8c0 .2 1.7 1.5 1.9 1.4 0 0-.1-.3-.4-.5-.6-.6-1.5-1.1-1.5-.9"/></svg>