<?xml version="1.0" encoding="utf-8"?>
<!-- Generator: Adobe Illustrator 21.0.0, SVG Export Plug-In . SVG Version: 6.00 Build 0)  -->
<svg version="1.1" id="Layer_1" xmlns="http://www.w3.org/2000/svg" xmlns:xlink="http://www.w3.org/1999/xlink" x="0px" y="0px"
	 viewBox="0 0 475 475" style="enable-background:new 0 0 475 475;" xml:space="preserve">
<path d="M341,0L166.1,255.3l1.5,1.1l32,22.3L374.6,23.1L341,0L341,0z M431,62.3c-20.2,29.4-44.1,23.1-68.2,8.9L314.1,144
	c21.3,16.6,36.5,35.6,18.6,61.7l43,29.5l28.9-42.2l-14.7-9.2c-3.2,1.8-6.9,2.9-10.8,2.9c-11.9,0-21.5-9.6-21.5-21.5
	c0-11.8,9.6-21.4,21.5-21.4s21.4,9.6,21.4,21.4c0,0.2,0,0.4,0,0.6l15.9,9.9l17.9-26.2l-37.7-23.5l11-17.7l14.9,9.3l10.1-16.2
	l24.2,15.1L474,91.7L431,62.3L431,62.3z M125.7,252.3c-0.3,0-0.6,0-0.9,0.1c-0.8,0.1-1.7,0.3-2.5,0.6c-3.5,1.1-7.4,4.1-10.1,7.9
	c-2.7,3.9-4.2,8.5-4,12.1c0.2,3.6,1.3,6.3,5.2,9.1l76.6,53.5c3.3,2.3,5.7,2.4,9.1,1.2c3.4-1.2,7.3-4.3,10.1-8.2
	c2.8-4,4.4-8.7,4.3-12.2c0-3.5-0.9-5.8-4.4-8.2l-76.6-53.5C130,252.9,127.8,252.2,125.7,252.3L125.7,252.3z M68.8,296.5
	c-24.4,0.4-45.5,9.5-57.7,27.2c-17,24.7-11.9,59.8,9.6,90.3c-1.8,4.7-2.9,9.8-2.9,15.2c0,23.2,19.1,42.3,42.3,42.3
	c8.6,0,16.7-2.6,23.4-7.1c43.2,18.5,88.1,12.7,108.3-16.8c18.7-27.3,10.9-66.9-16.4-99.3l-63.1-44c-14-5.1-28.1-7.7-41.2-7.8
	C70.3,296.4,69.5,296.4,68.8,296.5L68.8,296.5z M60.2,405.6c13.1,0,23.6,10.5,23.6,23.6c0,13.1-10.4,23.6-23.6,23.6
	c-13.1,0-23.6-10.5-23.6-23.6S47,405.6,60.2,405.6L60.2,405.6z"/>
</svg>
