<?xml version="1.0" encoding="utf-8"?>
<!-- Generator: Adobe Illustrator 21.0.0, SVG Export Plug-In . SVG Version: 6.00 Build 0)  -->
<svg version="1.1" id="Layer_1" xmlns="http://www.w3.org/2000/svg" xmlns:xlink="http://www.w3.org/1999/xlink" x="0px" y="0px"
	 viewBox="0 0 470 470" style="enable-background:new 0 0 470 470;" xml:space="preserve">
<path d="M149.5,283.9c12.5,0,22.6-10.1,22.6-22.6c0-12.5-10.1-22.6-22.6-22.6s-22.6,10.1-22.6,22.6
	C126.9,273.8,137,283.9,149.5,283.9L149.5,283.9z M40.5,261.5c0-59.4,47.8-107.6,107-108.2c-1.2-8.8-1.7-18-1.4-27.6
	C151.5-62.6,444.3-23.6,400,157.2c-16.4,66.9-45,130.6-71.4,188.6c-24.7,54.3,13.7,50.3,17.2,32.8l83.6,1.8
	c-3,139.3-258.6,110.4-177-69.2c26.8-58.9,49-116.6,66.3-173.9C338.6,71.6,188,47,242.3,187c7.8,20.1,14.5,44.7,14.4,69l0.1,5.5
	c0,59.7-48.4,108.2-108.2,108.2C89,369.7,40.5,321.3,40.5,261.5L40.5,261.5z"/>
</svg>
