<?xml version="1.0" encoding="utf-8"?>
<!-- Generator: Adobe Illustrator 22.1.0, SVG Export Plug-In . SVG Version: 6.00 Build 0)  -->
<svg version="1.1" id="svg" xmlns="http://www.w3.org/2000/svg" xmlns:xlink="http://www.w3.org/1999/xlink" x="0px" y="0px"
	 viewBox="0 0 410 410" style="enable-background:new 0 0 410 410;" xml:space="preserve">
<g id="svgg">
	<path id="path0" d="M347.3,23.6c-0.2,0.3-0.3,1.1-0.3,2.5c0,1.2-0.1,2.7-0.3,3.5c-0.2,0.8-0.4,1.8-0.4,2.3c0,2.1-3.7,12.9-6.5,19.1
		c-1.7,3.7-2.2,4.4-4.3,6.9c-1.9,2.2-3.5,4.5-5.1,7.7L329,68l-0.1,4.6c-0.1,2.5-0.2,4.7-0.4,4.9c-0.1,0.2-0.3,2.8-0.3,5.7
		c-0.1,4.1-0.2,6.1-0.6,8.3c-0.9,4.6-1,7-0.5,6.5c0.4-0.4,1.4-4.6,2-8.6c0.6-3.9,5.6-14,6.9-14c1.6,0,10.6,8.5,12.2,11.4l1.1,2.1
		l-0.7,0.5c-0.4,0.3-2,1.2-3.7,2.1c-1.6,0.9-4,2.2-5.4,2.9c-2.9,1.6-2.8,1.5-3.2,4.7c-0.3,2.8-0.2,4.2,0.9,9
		c0.8,3.6,0.8,3.6,1.9,1.7c3.9-7.1,7.6-11.2,11.9-13.4c2-1,1.8-1.2,3,3.9c2,8.5,1.4,12.7-2.7,21c-2.2,4.3-2.5,5.3-1.6,5.3
		c0.9,0,4.2-4.6,5.7-7.9c1.5-3.2,1.7-4,2.9-8.1c1.5-5.2,2-8.7,2-14.2l0-4.1l1.1-0.6c0.9-0.5,4.5-1.8,6.8-2.3
		c2.6-0.6,4.5,4.2,4.4,11.2c0,5.3-1.7,11.5-4.1,15.6c-0.6,1-1,1.9-1,2c0,0.2-0.5,1-1.2,1.9c-2.7,3.6-0.4,2.6,2.5-1.1
		c3.2-4.2,7.1-13,7.8-18c0.2-1.2,0.8-4.7,1.4-7.9c1-5.4,1.5-7.5,3.8-15.3c0.5-1.8,1.2-4.2,1.5-5.3c0.3-1.2,1-3.2,1.5-4.4
		c4.4-11.3,5.2-30.3,1.6-37.3c-0.2-0.4-0.4-1.2-0.4-1.6c0-0.4-0.1-0.8-0.2-0.8c-0.1,0-0.3-0.3-0.4-0.7c-0.1-0.4-0.4-0.7-0.6-0.7
		c-0.5,0-0.4,1.4,0.4,7.2c1,6.7-0.6,14.1-4.6,21.6c-2.2,4.2-3.4,6.5-4.2,8.6c-1.4,3.3-5,8.6-8.3,12.3c-1.6,1.7-10,8.5-10.2,8.2
		c0-0.1-0.3-0.9-0.7-1.8c-0.3-1-1.1-2.7-1.7-3.9l-1-2.2l0.9-1.6c0.5-0.9,0.9-1.6,0.9-1.7c0-0.1,0.6-1.5,1.4-3.2
		c2.5-5.1,4.3-10.5,5.1-15.2c1.2-6.6,1.3-7.5,0.9-7.9c-0.8-0.8-1.4,0.2-3,5.8c-1,3.5-7.3,10.9-11.3,13.3l-1.8,1l-1.9-1.6
		c-1-0.9-2.5-2.3-3.4-3l-1.5-1.4l1.2-2.5c3.1-6.2,4.5-10.7,5.7-18.2C349.3,31.8,348.9,21.5,347.3,23.6 M293.5,31.5
		c-1.7,6.8-1.4,17.7,0.6,22.9c1.5,3.8,1.7,3.7,2-1.2c0.4-4.8,0.4-4.7-0.3-7.1c-0.9-3.4-1.7-8.3-1.9-12.3
		C293.8,30.3,293.8,30.2,293.5,31.5 M269,34.6c-0.6,0.6-1.5,2.3-2.2,3.6c-0.6,1.4-1.5,3-1.8,3.5c-2.5,4-3.1,12-1.3,17.8
		c0.5,1.6,0.7,3.1,0.8,4.9l0.1,2.7l-0.5-1.5c-0.3-0.8-0.5-1.8-0.5-2.1c0-1.4-1.3-2.1-1.3-0.7c0,0.6,0.5,3.2,0.8,4.7
		c0.3,1.3,2.2,3.4,2.7,3c0.3-0.3,0.8-2.3,1.4-5.9c0.4-2,0.3-2.6-0.1-5.6c-0.5-3.6-0.6-10.7-0.2-12.8c0.2-1,0.3-0.6,0.4,2.7
		c0.3,6.1,1.8,11.5,3.6,12.7c1,0.7,1.1,0.4,0.4-1.3c-1.9-4.5-2.5-13.1-1.5-20.4c0.3-2.1,0.6-4.3,0.7-4.8
		C270.8,33.5,270.2,33.3,269,34.6 M145.9,38.2c-0.4,0.4-0.2,3.3,0.5,7.5c0.4,2.3,1,6.8,1.3,10c1,8.2,1.5,10.4,1.9,8.1
		c0.5-2.7-0.4-12.1-2.2-22.8C146.9,38.3,146.5,37.6,145.9,38.2 M304.3,41.8c0,0.2,0.7,1.5,1.6,3c2.9,4.9,4.7,11.6,4.4,16.2
		c-0.3,5.6,0.4,9.6,1.7,8.4c3.3-2.9,2.8-8.4-1.8-19.9C308.8,46.1,304.3,40.2,304.3,41.8 M130.2,45.7c0,0.1,0.4,1.8,0.9,3.8
		c0.5,2,1.2,5,1.6,6.7c1.7,7.3,5,17.1,5.5,16.6c0.3-0.3-0.3-2.8-1.9-7.8c-1.5-4.8-2-6.5-3.4-12c-1.6-6.2-1.9-7.5-2.4-7.5
		C130.4,45.5,130.2,45.6,130.2,45.7 M284.9,48.8c1.9,5,1,12.7-1.9,15.1c-0.6,0.5-1.3,1.1-1.7,1.5s-1.6,1.1-2.7,1.6
		c-1.6,0.8-4.5,3-4.5,3.5c0,0,1-0.5,2.1-1.3c1.3-0.8,3.5-1.9,5.7-2.8c6.4-2.5,6.2-2.2,6-6.8c-0.1-1.8-0.2-3.5-0.3-3.9
		c-0.1-0.4,0.8,0.9,2,2.9c2.5,3.9,4,5.8,5,6.2c1,0.4,1,0.1,0.1-1c-0.4-0.6-1.2-1.9-1.8-2.9c-0.6-1-1.6-2.8-2.3-4
		c-0.7-1.2-1.8-3.1-2.4-4.3c-0.6-1.2-1.4-2.4-1.6-2.8C286.1,49.1,284.7,48.3,284.9,48.8 M165.3,55.1c-0.3,3.4-0.8,6.3-1.7,9.3
		c-1,3.6-1.7,7.1-2.5,13.9c-1.1,9-1.6,10.4-3.2,9.6c-1.1-0.6-2.7-5.4-4.4-13c-0.8-3.5-1.6-5.7-2.1-5.7c-0.4,0-0.8,0.7-0.5,1.1
		c0.2,0.4,1.7,17.6,1.6,17.9c-0.7,1.1-1.6-0.9-5.4-12.6c-1.7-5.1-2.4-6.6-3-6.6c-0.8,0-0.5,2.2,1.1,8c1.4,4.9,2.4,8.9,2.9,11.1
		c0.3,1.2,1.1,3.6,1.9,5.5c0.8,1.8,1.8,4.2,2.3,5.2c0.4,1,0.8,1.9,0.9,1.9c0,0,0.4-0.4,0.7-0.9c2.2-3.2,6-5.2,8.8-4.4l0.9,0.3
		l-0.1-2.8c-0.1-1.6,0-3.5,0.2-4.4c0.7-3.7,0.8-4.9,1.2-11.3C165.5,63.7,166,46.8,165.3,55.1 M298.1,53.3c-0.1,0.2,0,0.9,0.1,1.5
		c0.5,2.5-0.5,6.6-1.6,6.6c-1,0-1.1,0.7-0.2,1.3c2.9,1.8,3.3,1.5,3.2-3.3C299.6,55,298.8,51.6,298.1,53.3 M185.7,55.1
		c-1.6,2.5-4.3,8.7-7.1,16.6c-0.8,2.3-1.8,4.9-2.2,5.7c-0.4,0.9-1,2.4-1.3,3.4c-0.3,1-1.2,2.9-1.9,4.3c-0.7,1.4-1.2,2.7-1.1,2.8
		c0.3,0.3,0.1,0.5,3.3-6.2c3.8-8.1,3.9-8.4,5.1-11.2c0.5-1.3,2.1-5,3.5-8.3C186.9,55.4,187.7,52,185.7,55.1 M218.5,56.4
		c-3.7,3.9-11.1,13.3-18.7,23.9c-1.9,2.6-4.2,5.8-5.1,7.1c-1.6,2.3-4.2,6.9-4,7.1c0.1,0.1,1.8-2,4.1-5.2c1.4-2,5.1-6.9,9.6-12.6
		c2.3-3,13.3-16.5,15-18.4C223,54,222.3,52.5,218.5,56.4 M274.1,57.9c0.3,4.2-0.5,6-2.6,6c-0.6,0-2.6-1.9-2.6-2.5
		c0-0.2-0.2-0.4-0.4-0.4c-1.1,0,0.5,5,1.8,5.9c2.2,1.4,5.1-0.8,6-4.4c0.3-1.3,1.3-1.2,1.3,0.1c0,0.6,0.7,0.9,0.9,0.4
		c0.2-0.6-4-7.9-4.5-7.9C274,55.1,274,56.4,274.1,57.9 M306.8,59c-0.2,0.1-0.3,0.6-0.3,1.1c0,0.6-0.2,1.5-0.4,2
		c-1.1,2.7-0.3,7.4,1.6,9.2c0.8,0.7,1.3,0.4,1-0.7c-0.8-2.9-1-4.5-0.9-8C307.9,58.9,307.9,58.6,306.8,59 M260.2,65.1
		c-0.5,1.3,0.9,12.7,2,16.2l0.5,1.8l1.4,0.3c2.4,0.6,2.6,0.1,0.8-2.4c-1.6-2.3-2.1-4-1.8-6.3c0.3-2.4,0.3-2.3-1.3-6.4
		C260.8,65.6,260.3,64.7,260.2,65.1 M288.7,65.4c-3.7,0.8-9.1,2.8-10.9,4c-1,0.7-1.9,1.2-2,1.2c-1.2,0-3.9,3.3-3.9,4.8
		c0,1.6,0.1,1.6,1.2,0.2c2.1-2.8,6.5-5.7,9.8-6.6c1-0.2,2.8-0.7,4-1.1c2.4-0.7,5.9-0.9,7.9-0.3c2.8,0.8,7.6,4.1,9.3,6.4
		c0.8,1.1,1.2,1.3,1.2,0.6c0-1.6-5.1-6.2-8.7-7.9c-1.8-0.9-2.9-1.2-5.9-1.7C290.6,65.1,289.6,65.2,288.7,65.4 M125.4,67.1
		c0,0.2,0.2,0.7,0.5,1.3c0.3,0.6,0.7,1.6,1,2.3c0.4,1.2,2.4,5.3,4.6,9.6c1.8,3.4,3.5,7.4,5.5,13.1c3.7,10.3,3.4,9.7,5,8.2
		c1.4-1.3,2.8-2,4.2-2.3c0.6-0.1,1-0.2,1-0.3s-0.5-1.2-1.2-2.6c-0.6-1.4-1.4-3.2-1.8-4c-1.7-4.1-2.6-3.5-1.2,0.9
		c1.1,3.6,1.1,3.5,0.5,3.1c-1-0.8-2.9-4.1-5.8-9.9c-1.7-3.4-3.8-7.2-4.6-8.4c-0.8-1.2-1.8-2.5-2.2-3.1c-0.4-0.5-1.3-2.1-1.9-3.4
		C127.2,68.3,125.4,66,125.4,67.1 M314.1,69.2c-2.8,3.9-3.2,5.7-1.8,10c1.3,4,2.7,4.9,1.9,1.2c-0.5-2.4-0.1-7.3,0.8-8.8
		c0.4-0.7,1.4,2,1.7,4.8c0.3,2.5,0.7,3.4,1.1,2.2c0.9-3.3-0.2-8.9-2-10.2l-0.8-0.5L314.1,69.2 M288.6,69c-7.3,1.5-13.2,4.5-15.4,7.8
		c-1.3,2-3.2,6.2-3.2,7.2c0,0.5,1.7-0.1,2.6-0.9c0.9-0.8,0.9-0.8,0.7-0.2c-0.6,2-1.7,2.9-4,2.9c-2,0-2.8,1.3-3.4,5.3
		c-0.4,3.3,0.5,8.2,1.7,8.9c0.8,0.4,0.9,0.2,0.3-0.9c-0.8-1.5-0.7-5.6,0.2-7.3l0.7-1.3h2.4c3.2,0,5-2,4.2-4.6
		c-0.1-0.4-0.2-1-0.1-1.4c0.1-0.9,0.6-1.4,0.6-0.6c0,1,1,3.4,1.7,4c1.5,1.4,3.5,0.8,6.7-2.2c4.4-4,6.7-5.4,9.4-5.7
		c1.8-0.2,4.8,0.7,6.1,1.8c0.7,0.6,0.9,0.7,0.7,0.3c-0.4-0.7-2-2.1-3.2-2.9c-0.5-0.3-0.8-0.6-0.6-0.6c0.6-0.2,1.5,0.2,2.9,1.1
		c1.3,0.9,1.4,0.9,0.9,0.2c-0.9-1.2-3.1-3.2-4.2-3.7c-0.8-0.3-0.9-0.5-0.5-0.6c0.9-0.2,2.8,0.8,4.3,2.3c1.2,1.2,1.4,1.3,1,0.6
		c-0.5-0.9-1.9-2.1-4.5-4c-1.9-1.4-1.8-1.7,0.3-0.6c2.2,1.2,4.1,2.7,5.2,4c0.5,0.6,1,1,1,0.9c0-0.6-1.1-2.2-3-4.1
		c-1.2-1.2-2-2.2-1.9-2.2c0.3,0,2,1.1,3.6,2.4l1.2,1l-0.7-0.9C298.8,70.3,293.6,68,288.6,69 M267.1,69.9c-1.1,1.7-2.1,5.5-1.8,6.8
		c0.4,1.5,2.8,6.3,3.1,6.3c1.5-0.3,2.7-8.4,1.6-10.6c-1.1-2.1-1.7-1.3-0.9,1.2c0.4,1.3,0.5,2.1,0.4,3.3c-0.1,1.5-0.8,4.6-0.9,4
		c0-0.1-0.3-1.4-0.6-2.8c-0.6-3-0.7-4.7-0.1-6.8C268.5,69.1,268.1,68.4,267.1,69.9 M98.9,69.8c-0.4,0.6,13.5,13.3,20.9,19.3
		c3.3,2.6,6.7,4.6,6.7,3.8c0-0.4-0.8-1.1-4.8-4.4c-1.7-1.4-4.7-4-6.7-5.7s-4.7-4-6-5.1c-1.3-1.1-3.4-2.9-4.7-4.1
		C100.4,70,99.2,69.2,98.9,69.8 M193.4,74.2c-2.7,3-6.4,7.8-8.5,10.9c-3.1,4.6-4.5,6.4-7.9,10c-1.5,1.6-2.8,3.2-2.8,3.5
		c0,1.5,1.1,3.9,2.4,5.3c0.7,0.8,1.4,1.8,1.5,2.1c0.2,0.9,0.3,0.8,2.1-1.4c3.4-4.3,3.9-6.5,0.7-3c-0.8,0.9-1.6,1.6-1.7,1.5
		c-0.8-0.7,2.6-7.8,7.5-16.1c3.1-5.1,7.9-13.8,7.7-13.9C194.4,73.1,193.9,73.6,193.4,74.2 M74.5,74.9c0,0.3,7.1,5.4,8.9,6.4
		c0.7,0.4,2.6,1.5,4.1,2.5c1.6,1,3,1.8,3.1,1.8c0.1,0,0-0.2-0.2-0.3c-1.6-1-6.1-4.1-7-4.7C78.9,77.2,74.5,74.4,74.5,74.9 M218.9,78
		c-3.4,2.2-6.1,6-4.4,6c0.5,0,6.4-5.9,6.4-6.4C220.9,77.1,220,77.2,218.9,78 M284.7,79.8c-1.9,2.5-4.4,3.4-5.7,2.1l-0.6-0.6l1.2-0.2
		c2.1-0.3,3.3-0.7,4.4-1.5C285.4,78.6,285.6,78.7,284.7,79.8 M291,81.8c-1.8,0.7-7.9,5.5-8,6.2c-0.1,0.5,2.5-0.7,4.4-2.1
		c5.3-4,12.3-2.9,12.2,1.9c-0.1,1.4,0.4,1.7,0.7,0.6C301.9,83.7,296.2,79.7,291,81.8 M301.3,84.4c0.5,2.8,0.2,4.6-1,6.1
		c-0.4,0.6-0.8,1.3-0.7,1.5c0,0.3-0.3,0.8-1,1.4c-2.2,1.8-8,1-14.6-2.1c-2.6-1.2-2.7-1-0.4,1.1c2,1.9,1.1,1.8-1.3-0.2
		c-1.6-1.3-1.8-0.9-0.3,0.8c0.5,0.6,0.9,1.1,0.8,1.2c-0.2,0.2-3.6-2.8-4.8-4.2c-0.6-0.8-1.3-1.5-1.4-1.5c-0.6,0-1.7,2.4-1.9,4.2
		c-0.1,1-0.4,2.7-0.7,3.8c-0.3,1.1-0.4,2.1-0.3,2.2c0.5,0.5,1-0.3,1.8-3.1c0.6-2.1,0.9-2.8,1.1-2.5c0.1,0.2,0.8,1,1.6,1.8
		c2.5,2.6,2.8,3.5,1.6,4.5c-1.3,1-2.8,0.3-2.8-1.3c0-1.2-0.4-1-1.3,0.9c-0.9,1.8-1.4,2.2-1.9,1.6c-0.5-0.6-0.8-0.5-0.8,0.4
		c0,1.4,1.3,2,2.5,1.3c0.3-0.2,1.7-0.7,3-1c3.5-0.9,3.9-1.7,2.2-4.8c-1-2-1-2,0.2-0.8c1.5,1.5,2.1,2.9,2.3,5.6
		c0.2,2.5-0.1,3.3-0.7,1.8c-0.4-1.1-0.8-0.9-1.1,0.4c-0.3,1.1-0.7,1-0.7,0c0-0.6-0.2-0.7-0.9-0.5c-0.3,0.1-0.4,0.5-0.4,1.1
		c0,1-0.6,1.1-0.8,0.1c-0.1-0.7-0.9-0.7-1.1,0.1c-0.3,1.9-0.7,2.3-1,0.9c-0.3-1.3-1-0.9-1.1,0.6c-0.1,1.6-0.7,1.6-0.8,0
		c-0.1-1.1-0.4-1.7-0.9-1.7c-0.2,0-0.2,0.7-0.1,2.1c0.1,1.2,0.1,2.1-0.1,2.1c-0.4,0-1.1-2.7-0.8-3.1c0.2-0.3,0-1.3-0.4-2
		c0-0.1-0.4,0.2-0.8,0.5c-0.4,0.3-1,0.8-1.2,0.9c-0.4,0.2-0.4,0.4,0.5,1.9l1,1.6l-0.2,2.6c-0.2,3.5,0.3,4.9,1,2.7
		c2-6.3,15.7-10.4,22.7-6.8c1.9,1,5.8,0.1,7.2-1.6c1.6-2.1,1.5-4.1-0.2-2.3c-0.6,0.7-0.9,0.8-0.8,0.5c0.2-0.7-0.3-1-1-0.6
		c-0.5,0.3-0.5,0.2-0.2-0.4c0.5-1-0.1-1.4-1-0.7c-0.8,0.6-2.8,1-2.8,0.6c0-0.1,0.5-0.8,1.1-1.4c2.8-3.2,8.7-3.3,15.1-0.3
		c1.4,0.7,3.1,1.3,3.7,1.3c1.7,0.2-6.1-3.7-8.9-4.4c-2-0.5-2.2-0.6-1.5-0.8c0.4-0.1,1.1-0.1,1.4,0.1c0.7,0.3,3.4,0.8,4.5,0.9
		c0.4,0,0.7-0.1,0.8-0.3c0.2-0.6-4.9-2.6-6.5-2.5c-0.4,0-1,0-1.2,0c-0.7-0.1,1.1-0.5,2.5-0.5c2.2-0.1,1-0.9-1.5-1.2l-0.8-0.1
		l0.8-0.2c1.6-0.4,1.8-1.4,0.3-1.5c-0.4,0-0.3-0.1,0.3-0.3c0.5-0.2,0.9-0.4,0.9-0.5c0-0.3-1.2-0.6-1.8-0.4c-0.5,0.2-0.4-0.2,0.3-1.9
		c0.4-1,0.5-3.1,0.1-2.8c-0.1,0.1-0.5,0.9-0.8,1.7c-0.7,1.9-1.4,2.7-1,1.1c0.4-1.5,0.3-3.1-0.1-3.7c-0.5-0.7-0.9-0.1-1,1.2l0,0.9
		l-0.4-1.1C301.9,82.8,300.9,82.1,301.3,84.4 M237.7,87.6c-7.9,3.6-14.4,7.2-26.8,15c-3.1,1.9-4.2,2.9-3.4,2.9
		c0.5,0,5.1-2.5,8.5-4.6c5.6-3.4,7-4.3,13.4-7.7c8.9-4.9,10.8-6.1,9.5-6.1C238.8,87.1,238.2,87.3,237.7,87.6 M98.3,90.1
		c-0.2,0.3,0.3,1.1,0.8,1.1c0.6,0,0.7-0.5,0.2-0.9C98.9,89.7,98.6,89.7,98.3,90.1 M101.8,91.7c-0.1,0.2,0,0.4,0.3,0.6
		c0.3,0.2,1.9,1.2,3.6,2.3s4.1,2.6,5.2,3.2c9.7,5.7,13.3,8.3,13,9.4c-0.1,0.4-0.2,1.2-0.3,1.7l-0.1,0.9l0.4-1.1
		c0.2-0.6,0.4-1.3,0.4-1.5c0-0.3,0.1-0.5,0.1-0.5c0.5,0,2.6,1.1,6,3.3c2.2,1.4,4,2.5,4.1,2.5c0.4,0,2.8-5.4,2.5-5.6
		c-0.2-0.1-1.5-0.7-2.9-1.2c-5-1.9-6.5-2.6-6.9-3c-0.2-0.2-0.6-0.4-0.7-0.3c-0.2,0.1-2.1-0.8-4.4-2c-4.7-2.4-9.3-4.6-9.7-4.6
		c-0.1,0-1.7-0.7-3.6-1.6C104.2,92,102.1,91.2,101.8,91.7 M201.2,94.4c-1.2,1.2-2.9,2.9-4,3.8c-1,0.9-2.9,2.6-4.3,3.9
		c-1.3,1.3-2.5,2.3-2.7,2.3c-0.1,0-0.1-0.1,0.1-0.3c1.1-1.1,0-0.5-1.7,1c-1.1,1-3.1,2.5-4.4,3.4c-1.3,0.9-2.6,1.8-2.8,1.9
		c-1,0.7,0.5,3.9,2.5,5.2c3,2.1,3.5,9.7,1.1,15.8c-0.3,0.8-0.8,2.2-1.2,3.1l-0.6,1.7l1.1-0.6c1.6-0.8,3.6-0.7,7.2,0.4
		c4.1,1.3,4.2,1.2,1.1-0.6c-3.1-1.9-4.9-3.5-5.2-5c-0.1-0.6-0.3-1.4-0.4-1.8c-0.1-0.5,0-1.2,0.3-1.9l0.4-1.2l3.1-1
		c1.7-0.5,4.5-1.6,6.2-2.3c3.4-1.5,5.3-2.2,9.8-3.8c1.7-0.6,3.3-1.2,3.6-1.4c0.3-0.2,2-0.8,3.6-1.2c3.7-1,3.8-1.1,1.5-1.1
		c-3.3,0-6.1,0.4-22.4,3c-6.3,1-7.9-0.1-6.1-4.2c0.3-0.8,1-1.9,1.5-2.5c1-1.3,0.9-1.6-0.3-0.7c-2.7,2-1.7,0.8,1.4-1.7
		c1.4-1.1,3.1-2.8,4-4.1c0.9-1.2,3.4-4.3,5.5-6.9c4.6-5.7,4.4-5.5,4.2-5.5C203.4,92.2,202.4,93.2,201.2,94.4 M80.6,96.5
		c0,1.6,27.6,11.1,33.7,11.6c3.9,0.4,0.8-0.9-9.7-3.9c-10-2.9-13-3.9-20.1-6.8C81.7,96.2,80.6,96,80.6,96.5 M285.6,100.6
		c0.2,0.7,0.3,1.5,0.3,1.8l0,0.6l-0.5-0.6c-0.4-0.4-0.5-1-0.5-1.9C284.9,98.9,285.2,98.9,285.6,100.6 M287.8,100.8
		c0.6,1.9,0.7,2.3,0.3,2.3c-0.4,0-0.9-1.4-1.2-2.9C286.6,98.6,287.1,98.9,287.8,100.8 M162,100.1c-0.3,0.1-0.6,0.2-0.6,0.3
		c0,0.2,1.5,3.2,1.7,3.4c0,0,0.5-0.5,1.1-1.3l1-1.4l-0.6-0.5c-0.3-0.3-0.8-0.5-0.9-0.5s-0.5,0-0.7-0.1
		C162.8,100.1,162.3,100.1,162,100.1 M265.7,100c0,0.4,0.8,2,1.3,2.7c1.3,1.6,4.5,0.6,4.1-1.3l-0.2-0.9l-0.6,0.7
		c-0.7,0.8-2.2,0.5-3.8-0.6C266,100.2,265.7,100,265.7,100 M291.3,102.9c0.4,1-0.9,0.4-1.4-0.6c-1-2-0.9-2.4,0.2-1.1
		C290.7,101.9,291.2,102.7,291.3,102.9 M156.7,101.5c-0.6,0.4-1.2,1.3-2.4,3.7c-1.7,3.5-2,3.9-3.5,4.8c-1.4,0.9-3.3,2.9-3.3,3.6
		c0,0.7,0.3,0.6,1.3-0.2c1.5-1.3,3.5-1.4,5.2-0.4c0.6,0.4,0.8,0.4,1,0c0.3-0.5-0.2-1.3-1.1-1.7l-0.8-0.3l1.1-1
		c0.8-0.8,1.3-1.7,1.9-3.3c1.1-3,2.2-4.1,3.7-3.9c1.3,0.2,1.4-0.3,0.3-1.1C159.1,100.9,157.8,100.8,156.7,101.5 M168.2,101.3
		c-1.6,0.6-5.2,5.1-6.9,8.5c-0.9,1.8-1.7,2.7-2.3,2.7c-0.3,0-0.8,0.3-1.2,0.6c-0.9,0.8-0.7,1.3,0.3,1c1.6-0.6,3.4-0.1,4.1,1.2
		c0.3,0.5,0.4,0.6,0.7,0.4c0.4-0.3,0.5-1.5,0.1-1.7c-0.4-0.3-0.3-0.9,0.2-1.4c0.3-0.3,1-1.4,1.6-2.4c1.7-2.8,4.7-5.9,5.8-5.9h0.9
		l-0.2-1.1C171.2,101.3,169.9,100.6,168.2,101.3 M153.5,102.6c-0.2,0.3,0.2,0.6,0.5,0.4c0.3-0.3,0.2-0.6-0.1-0.6
		C153.8,102.3,153.6,102.4,153.5,102.6 M149.2,103.2c-0.7,0.7,0.1,2.1,1.3,2.1c0.3,0,0.8,0.1,1.1,0.3c0.6,0.3,1.3-0.1,1.3-0.7
		C152.9,103.5,150.1,102.3,149.2,103.2 M329,104c-2,0.9-2.4,1.5-2.9,3.9c-0.6,2.9-2.7,9.5-3.9,12.1c-6,13.1-7.6,16-9.8,16.8
		c-4.9,1.9-5.9,2.7-7.8,6.3c-1.8,3.5-1.5,3.6,2.6,1.1c1.9-1.1,4.6-2.7,6-3.5l2.6-1.4l1-2.2c0.9-2,3.8-6.8,7.9-13.4
		c3-4.8,6.3-6.9,9.4-5.7c0.4,0.2,0.8,0.2,0.9,0.1c0.5-0.5-1.9-12.1-2.9-14.5C331.7,102.9,331.2,103,329,104 M144.9,104.4
		c-1.6,0.8-2.5,2.3-4.2,7.1c-0.3,0.7-0.9,1.8-1.4,2.3c-0.5,0.5-0.9,1.2-0.9,1.4c0,0.2-0.4,0.6-0.8,0.8c-1,0.6-1.1,1.4-0.2,1.1
		c0.9-0.3,4.1-0.2,5,0.3c0.4,0.2,0.9,0.3,1.1,0.2c0.5-0.3,0.1-1.5-0.8-1.9l-0.8-0.3l1.8-4c1-2.2,1.8-4.2,1.8-4.3
		c0-0.4,1.2-0.9,2-0.9c0.7,0,0.8-0.3,0.3-1.2C147.4,103.8,146.4,103.6,144.9,104.4 M308.2,104.4c-0.1,0.1-0.2,0.8-0.2,1.5
		c0,5.3-3.4,7.1-15,8c-0.9,0.1-1.8,0.3-2.1,0.5c-0.3,0.2-1.4,0.4-2.4,0.5c-6.1,0.5-12.4,4.7-12.4,8.3v0.8l0.8-1.2
		c2.3-3.7,6.8-5.8,13.9-6.5c2.1-0.2,4.2-0.5,4.6-0.6c0.4-0.1,0.7-0.1,0.6,0.1c-0.1,0.1-0.9,0.4-1.7,0.6c-2,0.4-2,0.5-1.5,1.2
		c0.2,0.4,0.4,0.7,0.3,0.8c-0.2,0.2-1.2-0.7-1.2-1.2c0-0.4-0.5-0.5-1-0.1c-0.3,0.2-0.3,0.4,0.1,1.2c0.6,1.2,0.3,1.6-0.4,0.7
		c-0.3-0.4-0.7-0.9-0.9-1.2c-0.8-1-1.5-0.3-1.1,0.9c0.2,0.6,0.3,1.2,0.2,1.2c-0.2,0.2-1.5-1.3-1.5-1.8c0-0.3-0.2-0.3-0.7-0.2
		c-1,0.2-1,0.2-0.4,1.4c1.3,2.5,1,3.1-0.4,1c-0.5-0.8-1-1.6-1.1-1.6c-0.3-0.5-1.1,0.6-0.8,1.1c0.5,0.8,1.2,2.9,1,2.9
		c-0.1,0-1.8-2-2.3-2.9c0,0-0.3,0-0.6,0.2l-0.6,0.3l0.6,0.9c2,2.6,1.8,3.7-0.2,1.4c-1.2-1.3-1.5-1.5-1.8-1.3
		c-0.3,0.3-0.3,0.4,0.1,0.6c0.6,0.3,1.9,2.5,1.8,2.9c-0.1,0.2-0.7-0.4-1.5-1.2l-1.4-1.5l-0.4,0.7c-0.5,0.8-0.5,0.9,0,0.9
		c0.4,0,1.4,1.9,1.4,2.7c0,0.2-0.5-0.2-1.2-0.9c-1.1-1.2-1.2-1.2-1.5-0.8c-0.4,0.8-0.4,1,0.6,2.4c0.5,0.7,1.1,1.9,1.4,2.5
		c0.6,1.4,0.8,1.5,1.2,0.7c0.4-0.7,2.6-2.1,3.3-2.1c0.4,0,0.3,0.3-0.8,1.3c-3.6,3.3-3.3,5.8,0.7,5.5c2.7-0.2,2.6-0.2,1.8-1
		c-0.8-0.8-0.9-1.3-0.1-2c1.9-1.7,10.8-5.5,17.4-7.4c5.7-1.6,14.2-7.9,12.4-9.1c-0.2-0.1-0.5,0.1-0.7,0.5c-1.2,1.8-3.1,3.5-5.2,4.5
		c-4.2,2-13.4,5.5-13.7,5.2c-0.2-0.2,0.7-0.7,3.4-1.9c6.7-2.8,10.6-5.1,12.5-7.3c1.8-2,1.4-2.5-0.6-0.9c-1.7,1.4-3.8,2.5-5.1,2.8
		l-0.8,0.2l0.8-0.6c0.4-0.3,1.2-1,1.6-1.4c0.5-0.4,1.3-1.1,1.8-1.5c1.8-1.3,1.7-2,0-0.8c-1.7,1.2-3.6,2.2-4.1,2.2
		c-0.2,0,0.7-0.7,1.8-1.6c1.9-1.5,3-2.4,2.7-2.4c-0.1,0-0.9,0.3-1.9,0.7c-1.9,0.7-3.6,0.9-2.2,0.3c0.4-0.2,0.6-0.4,0.4-0.4
		c-0.2,0,0-0.4,0.5-1c1.2-1.4,2.4-4,2.6-5.5C309.3,105,308.9,103.7,308.2,104.4 M172.7,104.7c-1.1,0.7-1.1,2.1-0.2,3.2
		c0.4,0.4,1.1,1.2,1.5,1.7c1,1.2,1.6,1,1.8-0.3C176,106.7,174,103.8,172.7,104.7 M288,106.2c-0.5,0.5,1.8,6.1,2.7,6.4
		c1.1,0.4,0.6-5.7-0.5-6.4C289.6,106,288.2,106,288,106.2 M284.1,107.2c-0.3,0.4,0,3,0.4,3.4c0.4,0.4,1.9,0,2.1-0.6
		C287,108.7,284.9,106.2,284.1,107.2 M281,107.9c-1.1,0.7-0.4,3.6,0.9,3.5c1.2-0.1,1.3-0.7,0.6-2.2
		C281.8,107.8,281.5,107.5,281,107.9 M278.2,109.9c-0.4,0.9,0.3,2.7,1.1,2.8c1.1,0.2,1.4-1.2,0.7-2.6
		C279.4,109.1,278.6,109,278.2,109.9 M287,110.7c-1.1,0.4-1.4,1.4-0.5,2.7c0.9,1.4,2.4,0.8,2-0.7c-0.1-0.4,0-0.8,0.1-0.9
		C289.6,111.2,288.3,110.3,287,110.7 M276.1,111c-0.2,0.2-0.2,0.6,0,1.3c0.3,1.2,0.3,1.3-0.1,0.6c-0.9-1.3-1.7-0.1-1,1.6
		c0.6,1.4,1.6,1.4,1.6,0.1c0-0.7,0.1-0.8,0.4-0.5c0.5,0.4,1.4-0.7,1.2-1.5C277.6,110.8,276.7,110.2,276.1,111 M310,111.6
		c-0.1,0.3-0.2,0.6-0.3,0.7c-0.1,0.1,0,0.2,0.2,0.1c0.5-0.3,0.9-1.2,0.6-1.2C310.3,111.1,310.1,111.3,310,111.6 M282,112.4
		c-0.4,0.4-1,0.7-1.3,0.7c-1.4-0.2-2.3,1.7-1.3,3.1c1,1.5,1.8,1.1,1.8-1c0-1.4,0.4-1.6,1.1-0.4c0.9,1.6,1.7,1.2,1.9-1.1
		C284.4,111.6,283.4,111,282,112.4 M90.6,113.2c-0.6,0.2-1.2,0.6-1.2,0.9c0,0.7,6.5,1.2,7.5,0.5C98.4,113.6,93.4,112.5,90.6,113.2
		 M173.3,114c-2.4,1.2-7,2.8-8.5,3c-2.1,0.2-2.5,1-0.7,1.2c1.5,0.2,2.7,0.8,3.9,2c1,1,1.5,0.8,1.2-0.5c-0.1-0.4,0-0.6,0.4-0.7
		c0.3-0.1,1.8-0.8,3.4-1.6c4-2,6.4-1.6,4,0.7c-0.9,0.8-1.1,0.9-2.7,1.2c-1.2,0.2-4,2-4.7,2.9c-0.8,1.2-0.1,1.4,1.4,0.5
		c1.9-1.2,3.6-1.9,4.5-1.9c2,0,4.1-2.7,3.7-4.9C178.9,112.9,176.7,112.2,173.3,114 M149.3,114.5c-3,1.5-3.1,1.7-3.1,9.5
		c0,4.3-0.1,7-0.4,8.9c-0.8,4.9-0.4,6.6,1.6,7.5c1.6,0.8,2.4-0.2,1.1-1.3c-0.7-0.7-0.7-1.8,0.4-5.8c0.7-2.8,1.1-5.5,1.3-10.6
		c0.3-5.5,0.7-6.7,2.6-6.7c1.4,0,1.6-0.7,0.4-1.6C152.3,113.6,150.9,113.7,149.3,114.5 M53.7,114.3c-3.4,0.5-4.4,1-7.9,3.8
		c-4.4,3.6-7.5,7.6-9.2,12c-7.9,20.6-7.7,45.2,0.5,61.7c1.7,3.5,3.5,5.8,4,5.3c0.1-0.1-1-2.4-2.4-5.1c-2.4-4.8-4.3-9.4-4.1-10
		c0.1-0.2,0.7,0.9,1.3,2.2c1.6,3.3,3.4,6.5,3.9,6.6c0.5,0.2,0.4-0.6-0.4-2.1c-0.7-1.4-2.6-5.8-4.1-9.4c-1.4-3.3-2.1-7.9-2.3-14.8
		c-0.2-5.9,0.2-6.2,0.7-0.5c0.4,4.3,0.9,6.7,3.1,13.7c1.3,4.2,1.8,5.2,2.1,4.8c0.1-0.1-0.2-1.4-0.7-3c-2.5-9-4.1-22.4-3.4-28.5
		c0.4-2.9,0.6-1.8,0.6,3.2c0.1,6.2,2.2,19,4.7,27.6c0.5,1.8,1.1,4.1,1.4,5.2c1.2,5.4,5.9,17.3,8.5,21.6c2.2,3.6,3.8,5.9,4.1,5.9
		c0.5,0,0.6,0.5-1.9-4.8c-1.3-2.6-2.8-6-3.5-7.7c-0.7-1.7-1.4-3.7-1.7-4.4c-0.8-2-2.7-8.2-3.4-11.2c-0.3-1.5-0.9-3.8-1.3-5.2
		c-0.4-1.4-0.9-3.8-1.3-5.3c-0.3-1.5-0.8-3.5-1-4.4c-0.4-1.4-1-5.2-1.7-10C36.7,151,37,137.8,38.9,133l0.4-0.9l-0.1,1.2
		c-0.7,6.2-0.8,12.5-0.1,7.7l0.4-2.8l0.1,6.6c0.1,3.6,0.2,6.7,0.3,6.8c0.3,0.3,0.3,0.2,0.3-5.4c0-4.6,0.5-9,1.2-10.6
		c0.3-0.6,0.3-0.6,0.1,0.2c-0.1,0.4-0.2,3-0.3,5.6c-0.1,4.7-0.1,4.8,0.2,2.5l0.3-2.3l0,5c0,5.5,0.4,6.6,0.7,2.1
		c0.2-3.2,0.8-7.5,1.3-9.7l0.4-1.5l0,2.6c0,3.3,0.4,3.3,1.4-0.1c1.7-5.9,1.9-5.5,0.5,0.9c-1.2,5.4-1.2,6-0.3,3.7
		c1-2.4,2.2-4.9,2.3-4.8c0.1,0.1-0.8,3.2-2,6.5c-1.6,4.5-0.9,3.6,1-1.2c0.9-2.3,1.8-4.4,2.1-4.7l0.4-0.5l-0.2,0.5
		c-0.7,2.1-0.8,2.8-0.3,3.2c0.4,0.3,0.4,0.4-0.2,1.4c-2.7,4-5.5,11.8-5.4,15.4c0,3.1,0.4,3.7,0.6,0.9c0.2-3.2,3.9-13.1,4.6-12.4
		c0.1,0.1-0.1,0.6-0.4,1.2c-3.8,7.5-4.4,14.4-1.7,20.7c1,2.3,1,1.6,0.1-2.2c-2.4-9.6-0.9-15.1,6.9-25.7c5-6.7,7.9-14.4,7.4-19.7
		c-0.1-1.5,0-1.6,1-0.5c1.4,1.7,2,3.4,2.2,6.4l0.2,2.8l-1.5,1.4c-0.8,0.8-1.5,1.6-1.6,1.9s-0.8,0.9-1.6,1.4
		c-3.8,2.6-11.4,15-11.3,18.8c0,0.4,0.3-0.2,0.8-1.5c0.8-2.3,2.4-5.8,2.6-5.7c0.1,0.1-0.4,1.5-0.9,3.2c-1.2,3.7-1.7,5.7-0.6,2.9
		c2.9-7.7,9.3-16.5,12.4-16.9c0.5-0.1,1.4-0.5,2-0.9c0.6-0.4,1.1-0.7,1.1-0.5c0,0.5-3.3,3.7-4.5,4.4c-1.9,1.1-1.3,1.2,0.8,0.2
		c1-0.5,2.6-1.6,3.4-2.3c1.6-1.4,1.5-1.1-0.2,1.2c-2.3,3.1-1.1,3.2,1.7,0.1c1.9-2.1,2.7-2.7,3-2.4c0.1,0.1-0.5,0.8-1.2,1.6
		c-0.7,0.8-2,2.5-2.9,3.7c-1.7,2.5-1.9,2.6-3.5,1.9c-4.4-1.8-7,1.5-9.4,12.1c-1.3,5.5-1.3,14.2,0,18.8l0.5,1.9l-0.1-2.7
		c-0.1-1.5-0.3-4.3-0.4-6.3c-0.3-3.6-0.2-7.7,0.3-9.2c0.1-0.5,0.2,0.4,0.1,2.4c-0.1,1.8,0,3.9,0.1,4.7l0.2,1.5l0.2-2.3
		c0.5-6.1,2.8-14.3,4.9-17.5c0.9-1.4,1-1.5,3-0.8c3.1,1,4.2,0.5,5.5-2c2.7-5.3,4.9-6.5,7.4-3.9c1,1,2.3,1.5,3.2,1.2
		c0.7-0.3,0.5-0.8-0.9-2.1c-0.7-0.7-1.3-1.2-1.2-1.2c0.3,0,1.9,0.9,2.7,1.5l0.9,0.7l1-0.7l1-0.7l-0.8-0.8c-0.4-0.4-1.2-1-1.6-1.3
		c-1.7-1-0.6-0.8,1.4,0.3c1.9,1,2.1,1.1,2.7,0.7c0.9-0.6,0.8-0.7-0.7-2.1c-1.6-1.5-1.4-1.6,0.7-0.2c1.8,1.2,2.4,1,2.4-0.5
		c0-0.8-0.6-1.4-4.6-4.2l-2-1.4l-0.5-2.1c-0.3-1.2-0.6-2.2-0.8-2.3c-0.6-0.5-3.9-1.4-4.3-1.2c-0.7,0.3-1.2-0.3-2.5-2.9
		C67.7,115.5,62.2,113.2,53.7,114.3 M276.9,115.2c-0.2,0.2-0.3,0.6-0.3,0.9c0,0.5-0.1,0.6-0.6,0.5c-1.2-0.2-1.7,1-0.9,2.3
		c0.9,1.4,1.6,1.4,1.4,0.1c-0.3-1.6,0-2.1,0.8-1.3c1.1,1.3,1.7-0.3,1-2.5C278.2,114.8,277.3,114.8,276.9,115.2 M130.1,115.4
		c-0.3,0.6,2.5,2.6,3.1,2.3c0.9-0.6,0.3-1.7-1.2-2.1C130.3,115.1,130.3,115.1,130.1,115.4 M157.3,115.3c-0.9,0.1-2,1.4-2.4,2.8
		c-0.2,0.6-0.5,1.9-0.8,2.9c-0.3,1-0.9,3.5-1.3,5.7c-0.5,2.2-1.2,5.3-1.7,6.9c-1.3,4.2-1.4,5.8-0.5,6.7c1,1,1.6,0.8,1.5-0.6
		c-0.1-0.8,0.3-1.9,1.4-4.5c1.9-4.5,2.9-7.8,3.7-11.7c0.9-4.5,1.4-5.8,2.4-6c1-0.2,1.2-1,0.4-1.8C159.5,115.1,159,115.1,157.3,115.3
		 M130.3,118.6c-1.6,0.7-4.3,1.6-6,1.9c-4.1,0.8-8.8,1.4-12.3,1.6c-4,0.2-4.9,0.4-4.7,0.9c0.1,0.4,1.5,0.6,7,1
		c4.6,0.4,5.6,0.4,13.8,0.2l5.3-0.1l0-1.4C133.4,118,132.9,117.4,130.3,118.6 M180.4,119l-0.7,0.9l0.7,2.2c0.4,1.3,0.8,3,0.8,4.2
		c0.2,3.4,0.7,4.2,1.5,2.3c0.5-1.2,1-8.2,0.7-9C182.9,117.8,181.5,117.6,180.4,119 M137.7,118.7c-1.2,0.6-1.3,2.6-0.3,6.1
		c0.3,0.9,0.7,1.9,0.9,2.1c0.5,0.6,0.6,1,1.2,4.9c0.5,3.1,0.8,4.4,1.6,6.1c0.1,0.3,0.4,1,0.6,1.6c0.5,1.6,3.2,2.9,4.2,1.9
		c0.5-0.5,0.4-1-0.3-1.2c-1.3-0.3-2.7-4.2-3.3-9.4c-1-8.2-1.1-10.7-0.3-10.7c0.9,0,1.9,1,1.9,2c0,1,0.5,1.5,0.8,0.9
		c0.6-1,0.3-2.7-0.8-3.7l-1-1l-2.2,0C139.3,118.3,138,118.5,137.7,118.7 M160.9,120.9c-1.4,1.3-1.9,2.4-3.1,6.6
		c-0.7,2.3-2.4,7.2-3.5,10.3c-0.7,1.7-0.6,2.7,0.3,3.7c1,1.1,2.2,0.6,1.4-0.6c-0.5-0.7-0.6-1.6-0.2-1.8c0.1-0.1,0.9-1.5,1.7-3.1
		c0.8-1.6,2.3-4.3,3.4-5.9c1.1-1.6,2.4-3.8,2.9-4.9c1-2.1,1.2-2.2,1.6-1.3c0.4,0.8-0.2,2.7-1.5,4.9c-2.6,4.3-5.2,9.1-5.2,9.7
		c0,0.6,0.8,0.2,1.2-0.6c0.2-0.4,1.3-2.1,2.4-3.8c5.9-9.1,6.4-10.4,5-11.8c-0.3-0.3-0.8-0.8-1.1-1.1
		C164.1,119.2,162.7,119.2,160.9,120.9 M229.6,121.8c-0.7,0.5-0.2,1,1.2,1.2c2.6,0.3,8.6,0.2,8.7-0.1
		C239.7,122.1,230.6,121.1,229.6,121.8 M336.4,123c-0.5,0.2-1.5,1.1-2.3,2c-1.4,1.6-7.5,7.4-10.8,10.3c-4.1,3.6,3.4-1.3,10.5-6.9
		c2.1-1.6,4.7-3,5.1-2.7c0.4,0.3,1.1-0.4,1.1-1.2C340.1,122.8,338.4,122.1,336.4,123 M176.5,123.1c-2.1,0.2-4.6,1-6.4,2.1
		c-0.9,0.5-2,2-3.5,4.7c-0.8,1.4-2.1,3.4-6.1,9.6c-2.9,4.4-2.9,4.5-1.8,6.9c2.8,5.9,22.1-5.7,22.1-13.3c0-1.5-0.7-8.2-1-8.9
		c-0.2-0.6-0.9-1.4-1.1-1.4C178.7,122.9,177.6,123,176.5,123.1 M338.2,126.7c-1.1,0.7-8.6,7.9-8.5,8.1c0.1,0.1,1.7-1,3.7-2.5
		c4.1-3,5.7-3.8,7-3.8c1.3,0,1.8-0.2,1.8-1C342.2,126.2,339.8,125.7,338.2,126.7 M302.6,127.5c-2.3,0.6-4.5,1.8-4.5,2.4
		c0,1,4.3,0.6,5.2-0.4c0.4-0.4,0.9-0.8,1.1-0.8c0.8,0,1.5-0.7,1.1-1.2C305,127.1,304.4,127,302.6,127.5 M202.9,128.4
		c-0.3,0.4,0.2,0.5,4.7,1.4c4.3,0.8,7.3,1.5,12.2,2.8c3,0.8,7.7,1.5,8.3,1.3c0.9-0.3-0.7-0.9-10.7-3.6
		C211.1,128.7,203.4,127.7,202.9,128.4 M340.1,129.8c-2.1,1.4-4,2.9-7.2,5.8c-1.1,1,0.2,0.4,2.8-1.3c3.1-2,6.7-3.9,6.9-3.7
		c0.1,0.1-0.3,0.4-0.7,0.8c-0.8,0.6-2.5,2-5.7,4.8c-4.7,4.2-9.5,10.1-9.9,12.2c-0.3,1.3,0.3,1,1.4-0.7c1.9-3,13.9-14.7,17.4-16.8
		c1.3-0.8,1.3-1.2,0.3-1.9C343.9,127.8,342.8,128,340.1,129.8 M358.1,128.9c-0.6,0.1-2.3,0.4-3.9,0.8c-1.5,0.3-3.4,0.7-4.1,0.8
		c-1.8,0.2-2.2,0.5-5.6,3.2c-3.5,2.8-3.3,2.4-2.1,3.7c5.1,5.3-1.5,11.8-8.5,8.3l-1.5-0.7l-1.4,1.6c-3.6,4-5.6,7.7-4.7,9.1
		c0.9,1.4,9.8,2.2,14.3,1.2c6.3-1.3,14.9,3.1,17.1,8.8c0.6,1.6,0.6,1.7,0.6,7.9c0,4.9,3.8,17.5,5.8,19c0.7,0.5,1.2,0.4,1-0.1
		c-1.1-2.8-1.2-12-0.1-15c1.7-5,6.8-12.3,8.7-12.3c0.3,0,1.4,0.7,2.1,1.4c1.4,1.3,1.2,0.1-0.5-3.7c-0.8-1.8-2.3-1.6-3.9,0.4
		l-0.7,0.9l1.3-0.6c1.9-0.8,2.4-0.5,0.7,0.4c-0.8,0.4-2.1,1.2-2.9,1.7c-0.8,0.5-1.5,0.9-1.5,0.8c-0.3-0.3,6.8-9.5,7.3-9.5
		c0.1,0,0.3,1.2,0.4,2.7c0.2,2.8,1.1,6.3,1.9,7.2c0.6,0.7,0.6,0.5,0.1-1.9c-0.3-1.5-0.6-3.9-0.7-7.2l-0.2-5l-0.8-0.2
		c-0.6-0.1-1,0-1.9,0.7c-3,2.3-5,2.6-6.9,1c-1.1-0.8-1.1-0.9-2.6-0.5c-5.9,1.2-8.6,0.1-11.5-5c-1.5-2.6-1.8-3-4-4
		c-1.6-0.7-1.9-1-1.9-1.5c0-0.6,0-0.6,0.7-0.3c1.8,0.9,2.8,1,5.1,0.4c5.4-1.4,10.3,1,12.4,6c2.8,6.6,9.6,4.9,10-2.6l0.1-2.9l0.6,1.5
		c1,2.4,1.6,5,2.1,8.3c0.2,1.7,0.6,3.3,0.8,3.6c0.2,0.3,0.4,0.9,0.5,1.3c0.3,1,0.8,0.9,2.2-0.4c1.9-1.8,2.4-3.1,1-3.1
		c-0.5,0-0.8-0.4-1.7-1.9c-1.1-2.1-1.2-2.3-1.8-7.8c-0.7-6.8-3-10.2-8.9-13.5C366.1,129,363.2,128.3,358.1,128.9 M92.8,129.2
		c-1.9,0.5,0.6,1.5,3.8,1.6c4,0.1,6.5-0.6,5.1-1.6C101.3,129,93.7,128.9,92.8,129.2 M136.1,130c-2.1,3-2.6,5.2-1,4.4
		c0.8-0.4,1.1-0.4,2-0.1c1.4,0.4,1.4,0.5,1-2.4C137.8,129,137.2,128.5,136.1,130 M298.6,131.8c-1.8,0.2-1.9,0.3-2.5,1.7
		c-1.1,2.6-1,2.7,2.5,3l1.8,0.2l1.2-1.2c1-1,1.5-1.2,2.5-1.3c1.6-0.2,2.1-0.6,1.5-1.1C304.9,132.4,300.6,131.6,298.6,131.8
		 M135.2,136.5c-1.4,1.5,0.1,5.6,2.8,7.7c2.4,1.8,3.7,0.9,1.8-1.3c-1.6-2-1.8-2.3-1.6-4.4C138.6,135.7,137,134.7,135.2,136.5
		 M258.2,136.1c-3.3,0.3-6.7,1.7-8.8,3.7c-2.1,2-5.4,6.2-5.2,6.7c0.1,0.3,0.6,1.6,1.2,2.9c1.3,2.9,2.3,6.3,2.8,9.7
		c0.2,1.4,0.5,2.5,0.5,2.6c0.1,0.1,1-0.7,2.1-1.7c1.1-1,2.6-2.2,3.3-2.7c2.4-1.6,3.3-2.9,4.6-7.3c0.9-3.1,1.9-5.4,2.5-5.8
		c0.3-0.2,1.8-2.5,1.8-2.8c0-0.1-0.3-0.3-0.6-0.4c-0.9-0.3,1.8-0.7,3.2-0.4c1.2,0.2,2.8-0.4,2.8-1.2
		C268.3,138.4,260.8,135.9,258.2,136.1 M325.4,137.1c-0.5,0.2-2,0.9-3.2,1.5c-1.2,0.6-2.6,1.2-2.9,1.4c-0.8,0.3,1.1,0.1,3.5-0.2
		c2.3-0.3,2.4-0.1,2.1,4c-0.3,3.4-0.2,4,0.3,3.9c0.5-0.2,2.1-9.7,1.8-10.5C326.9,136.7,326.6,136.7,325.4,137.1 M294.1,138.2
		c-1,1-2.9,5.3-2.8,6.1c0.2,1.1,0.9,1.2,2,0.3c1.5-1.2,1.9-1.4,3.6-1.6c0.8-0.1,1.5-0.3,1.5-0.4c0-0.2,0.6-0.8,2.4-2.5
		c0.4-0.4,0.9-0.7,1.2-0.8c0.9-0.3,0-0.7-2.8-1.2c-1.5-0.3-3.1-0.6-3.5-0.7C295.1,137.2,294.8,137.4,294.1,138.2 M321.9,138.1
		c-1.1,0.6-1.3,0.8-0.5,0.6c0.4-0.1,2-1.2,1.7-1.1C322.9,137.6,322.4,137.8,321.9,138.1 M111.4,141.5c-2.2,1.2-4.3,2.4-4.8,2.6
		c-1.3,0.8-4.3,2.4-9.2,4.8c-4.3,2.2-5,2.7-3.6,2.7c1.7,0,9-3.1,13.9-6c4.5-2.6,8.8-5.5,8.7-5.9
		C116.3,139.1,115.2,139.5,111.4,141.5 M281.8,145.7c-6.8,6.5-7.3,7.1-6.8,8c0.3,0.7,0.3,0.7,2.2-0.6c0.7-0.5,2.3-1.5,3.6-2.3
		c2.5-1.5,3.1-2.2,4.4-4.5l0.8-1.4l0.8,2.1c0.9,2.3,3,6.5,3.3,6.7c0.5,0.3,0.2-3.3-0.9-9.8c-0.5-2.8-0.7-3.6-1.1-3.7
		C287.7,140.2,285.4,142.2,281.8,145.7 M319.6,140.8c-3.1,0.6-4.7,3.7-5.2,10.1c-0.1,2,0.1,1.7,0.9-0.8c0.2-0.8,0.6-1.5,0.8-1.6
		c0.5-0.1,0.4,1.9-0.1,3.3l-0.4,1.1l1.1-1.1c0.7-0.7,1.1-1.4,1.1-1.8c0-0.4,0.2-0.8,0.4-0.8c0.2-0.1,0.5-0.4,0.6-0.7
		c0.1-0.3,0.4-0.5,0.8-0.5c2,0,3.3-1.5,3.4-3.7c0-1.3,0.4-1.6,0.4-0.3c0,1,0.3,1.9,0.6,1.8c0.4-0.2,0.3-2.5-0.1-3.3
		C323,141,321.5,140.4,319.6,140.8 M129.9,141.6c-1.8,1.7-4.3,3.7-9,7.2c-0.5,0.4-2.5,1.7-4.3,3c-3.2,2.1-5.1,3.7-4.8,4
		c0.2,0.2,6.7-3.3,9.9-5.5c3.7-2.5,6-3.7,9-4.7c1.4-0.4,2.2-0.8,2.1-1c-0.1-0.2-0.5-1.1-0.9-2.1C131,140.4,131.1,140.5,129.9,141.6
		 M178.2,142.7c-3.2,3.4-8.8,6.8-12.5,7.5c-2.4,0.5-2.2,0.7,0.9,1.4c2.7,0.6,4.3,1.6,6.9,4.1l2.3,2.3l-0.4-1.2
		c-0.7-1.8-0.7-5.9,0-6.6c1.2-1.3,3-0.6,6,2.3c1.2,1.2,2.3,2.2,2.3,2.2c0,0-0.6-0.9-1.3-2c-2.5-3.5-3-5.8-2.2-10.6
		C180.4,140.4,180.3,140.4,178.2,142.7 M205.3,141.3c-4.6,0.7-7.1,2.1-11,5.9c-6.8,6.7-9.2,14.4-8.7,27.8c0.1,2.6,0.2,6.7,0.3,9.1
		c0.2,6.3,0.7,9.2,2.9,16.8c0.9,3.2,2.6,8.1,3.4,9.8c0.4,0.8,0.7,1.6,0.7,1.7c0,1.3,4.8,11,7.2,14.6c5.9,8.8,11.3,14.5,20.8,22
		c10.9,8.7,12.8,9.9,18.5,13.2c6.2,3.5,4.7,2-2.6-2.5c-5.7-3.6-7-4.9-17.3-18.3c-2.8-3.6-5.1-7.9-8.2-15c-0.6-1.5-0.6-1.5,1.4,1.6
		c1.6,2.5,3.6,5.2,5,6.8c0.4,0.4,2.3,2.4,4.3,4.4c2,2,4,4.1,4.6,4.7c2.8,3.3,6,6.5,8.1,8.3c1.3,1.1,3.1,2.6,4,3.3
		c1.9,1.6,9.6,6.8,11.5,7.8c1.5,0.8,8,3.4,8.4,3.4c0.8,0-0.2-0.7-3.3-2.3c-8.9-4.6-15.8-10.1-22.4-18.1c-1.6-1.9-3.2-3.8-3.6-4.3
		c-2.5-2.9-4.4-5.2-5.1-6.4c-0.5-0.7-1.5-2.1-2.1-3.1c-3.2-4.4-6.1-10.9-8.2-18.1c-0.1-0.2,0.6,0.9,1.5,2.5c2.1,4,2.6,4.6,6.4,9.6
		c1.9,2.4,4.3,5.5,5.4,7c4.8,6.5,8.6,10.5,11.8,12.9c0.8,0.6,2.7,2.1,4.1,3.4c4.9,4.3,9.4,7,15.9,9.8l3.3,1.4h3.7
		c6.5,0,9.5-1.6,12.7-6.7c2.8-4.4,5.6-4.2,8.8,0.6c0.8,1.1,2.4,3.4,3.7,5.1c1.3,1.7,2.9,4,3.7,5.1c1.4,2.1,2.1,2.8,2.3,2.6
		c0.3-0.3-0.3-1.4-2.8-5.2c-3-4.5-4.8-7.5-6.6-10.8c-2.2-4.2-3.1-5.8-4-7.1c-0.5-0.7-1.6-2.8-2.5-4.7c-2.1-4.3-2.2-4.3-2.4,0.4
		c-0.3,7.7-3.6,10.5-12.6,10.6c-11.4,0-17.2-3.7-29.3-18.7c-0.5-0.6-1.1-1.3-1.2-1.5c-0.1-0.2-0.7-0.8-1.2-1.5
		c-0.5-0.7-1-1.3-1.1-1.3c-0.2-0.2-2.4-3.6-4-6.2c-0.8-1.3-1.8-2.8-2.1-3.5c-0.8-1.3-3.4-5.8-4.8-8.5c-1.9-3.5-5.1-12.3-6.9-18.8
		c-3.1-11.4,0.9-25.5,8.7-30.7c2.1-1.4,5.9-3.3,6.5-3.3c0.3,0,0.5-0.1,0.5-0.3c0-0.6-8.2,0-9.6,0.7c-5.5,2.8-10,10.7-9.9,17.5
		c0,1-0.1,3.5-0.3,5.6c-0.2,2.8-0.2,4.7,0,6.9c0.3,3.4,0.3,3.6-0.3,2.5c-1-2-2-8.6-2.6-18.2c-0.2-2.7-1.1,3.8-1.2,8.9
		c-0.1,5.2-0.3,6.3-0.8,4.1l-0.3-1.1l-0.1,1.2l-0.1,1.2l-0.4-1.3c-2.2-7.9-2.1-15.5,0.1-22c1.6-4.6,5.8-9.5,8.8-10.2
		c9.6-2.4,21.5-0.7,27.3,4.1c1.3,1.1,2.9,1.8,2.9,1.4c0-0.3-0.9-1.9-1.6-2.7c-0.6-0.8-4.2-3.3-4.7-3.3c-0.1,0-0.6-0.3-1.1-0.7
		c-0.5-0.4-1-0.7-1.1-0.7c-0.1,0-0.7-0.3-1.2-0.7c-1.1-0.8-7-3.8-8.9-4.5c-0.7-0.3-1.6-0.6-1.9-0.8
		C222.2,142.9,208.8,140.7,205.3,141.3 M269.7,141.8c-1,0.4-2.5,1-3.3,1.2c-3.7,1.1-4.6,2.3-5.5,8c-0.9,5.1,0,5.8,3.3,2.6
		c2.1-2,2.4-2.6,0.8-1.8c-1.2,0.6-1,0.4,0.8-0.9c2.5-1.9,2.3-2.7-0.4-1.5c-0.8,0.4-1.5,0.6-1.5,0.5c0-1.1,5-6.8,6-6.8
		c0.1,0,0.2,0.9,0.1,2.1l-0.2,2.1l0.8-0.8c0.8-0.8,2.3-4.8,2-5.2C272.2,140.8,271.5,141,269.7,141.8 M151.4,143.5
		c-1.4,1.4-0.5,2.7,1.1,1.7c0.9-0.5,1.1-0.5,1.9-0.3c1.7,0.6,1.5-0.8-0.3-1.6C152.6,142.7,152.2,142.7,151.4,143.5 M83.6,143.5
		c-0.1,0.2,0,1.1,0.3,2c0.6,2.5,0.5,2.8-0.4,0.8c-1-2-0.9-2-1.9-1.1c-0.7,0.6-0.7,0.7-0.5,1.7c0.3,1.4,0,1.6-0.6,0.4
		c-0.5-1-0.7-1.1-1.7-0.5c-0.6,0.4-0.7,0.5-0.5,1.8c0.2,1.5-0.1,1.5-0.7,0.2c-0.2-0.5-0.5-0.8-0.7-0.7c-0.2,0.1-0.7,0.2-1,0.3
		c-0.5,0.1-0.6,0.4-0.8,1.2c-0.3,2.2-1.3,2.4-4.3,0.6l-2.1-1.2l-2.3,0.4c-3.5,0.6-4.3,1.4-7.1,7.6c-0.8,1.8-1.5,3.2-1.5,3.2
		c-0.2-0.2,1.1-4.7,1.8-6.6c1.4-3.4,0.1-4-1.4-0.7c-2.9,6.3-4.2,16.4-3,23.2c1,5.8,1.9,8.3,1.3,3.7c-0.5-3.7-0.3-9.1,0.4-11.8
		c0.7-2.7,1.2-3.1,0.6-0.4c-0.6,2.4-0.8,5.2-0.6,7.8c0.2,3.3,0.5,3.1,0.7-0.5c0.1-2.5,1.4-7.9,2.6-11.2c0.8-2.1,0.7-1.4-0.4,3
		c-1.6,6.7-1.8,10.2-1.1,16.2c0.8,6.1,3.1,14.7,4.5,16.8c0.4,0.5,1,1.8,1.3,2.8c0.8,2,1.3,3.1,1.7,3.1c0.3,0,0.1-1.1-1.3-5.7
		c-0.8-2.7-1.2-4.9-1.4-6.8c-0.1-1.5-0.4-3.5-0.5-4.4c-0.5-2.7-0.3-2.5,0.5,0.7c1.5,5.9,4,11.5,4.9,11.1c0.4-0.1,0.2-0.7-0.9-4
		c-4.8-13.7-4.3-27.5,1.3-35.9c1.2-1.7,0.7-2.9-0.6-1.5c-3.5,4-6.5,13.7-7.6,24.2c-0.3,3.5-1.4-2-1.4-7.1c0-4.8,0.9-8,3.6-13.7
		c3.6-7.4,6.7-9,10.9-5.6c2.4,2,5.3,1.2,9.6-2.7c1-1,2.4-2.1,2.9-2.6c1.1-1,1.2-1.7,0.6-2.7c-0.2-0.3-0.7-1.6-1-2.8
		c-0.3-1.2-0.7-2.4-0.8-2.5C85,143,83.8,143.1,83.6,143.5 M144.4,143.8c-3,1.4-1.4,5.5,2.2,5.5h1l-0.7-0.8c-1.3-1.5-0.4-3.3,1.3-2.7
		c0.8,0.3,1.1,0,0.9-0.8C148.6,143.8,146,143.1,144.4,143.8 M313.3,143.9c-0.1,0.3-0.3,2.1-0.4,4.1c-0.1,2-0.3,4.6-0.4,5.8l-0.2,2.2
		h0.7c0.9,0,3.4-1.1,3.9-1.7c0.4-0.5,0-0.9-0.6-0.6c-0.2,0.1-0.5-0.1-0.7-0.3c-0.2-0.4-0.3-0.4-0.2,0c0.1,0.4-1.6,1.3-1.8,1
		c-0.2-0.2,0.4-8.7,0.7-9.3c0.2-0.4,0.3-0.9,0.3-1.1C314.5,143.2,313.5,143.3,313.3,143.9 M320.5,145.4c-0.2,0.4-0.6,0.7-0.7,0.7
		c-0.3,0-0.1-1,0.5-1.9l0.4-0.7l0.1,0.6C320.9,144.5,320.7,145.1,320.5,145.4 M276.4,144.4c-0.2,0.1,0.2,0.5,1,1.1
		c1.3,0.9,1.9,0.9,1.9,0.2C279.3,144.6,277.4,143.8,276.4,144.4 M311.3,144.9c-0.4,0.8-0.8,3.3-1.1,6.5c-0.2,1.7-0.5,4.1-0.7,5.3
		c-0.8,4.4-0.5,4.7,2.4,3c0.9-0.5,1.9-0.9,2.2-0.9c1,0,5.4-2.7,5.4-3.4c0-0.5-1.8-0.2-4.1,0.7c-1,0.4-2.3,0.8-2.8,0.8l-0.9,0.1
		l0.1-5.1c0-2.8,0.1-5.6,0.2-6.2C312.1,144.7,311.7,144.1,311.3,144.9 M295.7,145.5c-4.2,1.6-5.1,6.4-2.1,10.8c3,4.4,4.6,8,6.2,13.4
		c1,3.5,1,3.5,1,2.2c0-2.3-2.1-9.6-4-14c-2.1-4.8-0.3-2.9,2.4,2.4c1.4,2.9,2.2,4.1,2.2,3.4c0-1.5-2.8-7.1-5-10.1
		c-1-1.3-1.7-2.4-1.6-2.5c0.2-0.2,3.2,2.9,4.4,4.7c2,2.9,2.5,2.8,1-0.2c-1.2-2.4-2.1-3.5-4-4.8c-3.2-2.3-1.1-2.1,2.8,0.3
		c1.5,0.9,2.6,1.5,2.6,1.4c0-0.5-1.4-1.9-3.2-3.2c-2-1.5-2-1.6-0.6-2l1-0.3l-1.2,0.1c-0.7,0.1-1.5,0.2-1.8,0.3
		c-0.8,0.3-0.7-0.3,0.3-1.1c1-0.7,3.7-0.9,5.1-0.3l1.1,0.4l-0.8-0.7C300.5,144.8,297.7,144.7,295.7,145.5 M273.2,146.3
		c-1.8,1-6.6,5.7-6.2,6.1c0.1,0.1,1-0.5,2-1.3c3.1-2.4,5.8-3.5,6.3-2.7c0.1,0.1-0.3,0.3-0.8,0.3c-1.2,0.1-1.6,0.3-4.6,3
		c-1.3,1.2-2.5,2.1-2.6,2.1c-0.2,0-1.1,0.7-3,2.6c-0.9,0.9-1,0.9-0.9,0.3c0-0.7-1.2-0.7-2.3-0.2c-0.3,0.1-0.6,0.2-0.7,0
		c-0.7-1-3.5,0.2-5.9,2.6c-0.8,0.8-2.3,2.1-3.3,2.8c-2.7,1.9-8.7,7.9-10.2,10.3c-0.7,1.1-1.8,2.8-2.5,3.7c-1.6,2.3-3.6,5.7-4.1,7.2
		c-0.8,2.4-2.5,5.1-8.4,13.8c-1.7,2.4-2.3,4-1.6,3.7c1-0.4,7.5-9.4,12.3-17c5.7-9.1,7.7-11.6,14.4-17.7l0.9-0.8l-0.6,0.9
		c-2.8,4.6-6.2,11.4-7.8,15.6c-1.1,2.7-1.3,3.3-4.9,12.7c-1.1,2.9-2.4,6.7-3,8.5c-0.5,1.8-1.1,3.6-1.3,4s-0.6,1.5-0.8,2.5
		c-0.2,1-0.8,2.6-1.2,3.7c-0.7,1.7-0.9,3.1-0.2,2.4c0.3-0.3,2.4-5.1,5.3-12.2c1.2-2.8,3.4-8.1,5.1-11.9c1.6-3.7,3.1-7.3,3.2-7.8
		c0.4-1.7,2-4.5,5-8.9c5.9-8.7,6.9-10,11.3-14.5c2.4-2.4,4.3-4.5,4.3-4.7c0-0.2,0.6-0.6,1.4-1c0.8-0.4,2-1.1,2.9-1.7
		c1.5-1,2.1-1.2,4-1.5c1.2-0.2,1.9-0.8,1.8-1.6c-0.1-0.4,0-0.6,0.3-0.6c0.3,0,0.7-0.2,0.9-0.5C279,146.8,275.5,145,273.2,146.3
		 M152.1,147.6c-1.9,1-2.5,2.8-1.3,3.9c1.1,1.1,1.6,1,1.9-0.4c0.2-0.9,0.4-1.4,1.1-2c1.1-1,1.2-1.4,0.3-1.7
		C153.2,147.1,153.2,147.1,152.1,147.6 M135.3,148.3c-0.2,0.5-0.2,1.2-0.1,2.5c0.3,2.4,0,4.8-1.1,7.3c-2.5,5.5-3.2,8-2.2,7.7
		c0.5-0.1,2.4-3.2,3.4-5.2c0.4-0.9,1.4-2.3,2.2-3.2l1.4-1.5l-0.2-2.7c-0.2-3.7-0.3-3.9-1.5-4.8C135.9,147.5,135.7,147.5,135.3,148.3
		 M143.5,149.3c-1.6,0.5-2.1,3.4-0.7,4.5c0.9,0.8,4.7,0.3,4.7-0.6c0-0.1-0.2-0.2-0.4-0.2c-0.9,0-1.8-1.2-1.8-2.4
		C145.3,149.3,144.7,148.9,143.5,149.3 M307,150.7c-0.4,0.5-2.4,4.8-3,6.6c-0.5,1.4-0.7,3.4-1.3,10.8c-0.1,1.9-0.6,4.6-0.9,6
		c-0.4,1.4-0.9,3.6-1.1,4.8c-0.9,4.6-3,11.9-4,14c-0.3,0.7-0.9,2.1-1.2,3c-2.4,6.5-11.3,20.6-19.6,30.9c-4.7,5.9-10.8,18.5-9,18.5
		c0.1,0,0.4-0.5,0.7-1.1c0.3-0.6,0.6-1.1,0.8-1.2c0.2-0.1,0.7-0.9,1.2-1.8c0.5-0.9,1.1-2.1,1.4-2.6c0.3-0.5,1.1-1.9,1.8-3
		c2-3.4,4.7-7.1,7.8-10.5c2.5-2.7,8.7-11.2,11.3-15.5c0.2-0.3,0.7-1.1,1.1-1.9c0.5-0.7,1-1.6,1.1-1.9c0.2-0.3,0.4-0.6,0.5-0.7
		c2.3-2.3,6.6-11.3,8-16.9c0.4-1.7,1.1-4,1.6-5.3c3.3-9.4,5-19.2,3.9-22.8c-0.5-1.7-0.5-5.2,0-6.4c0.2-0.5,0.4-1.3,0.4-1.7
		c0-0.4,0.1-0.8,0.3-0.8c0.5,0,0.3-0.4-0.5-0.7C307.5,150.2,307.4,150.3,307,150.7 M282.1,152c-2.6,1.5-6,4-6,4.4
		c0,1.2,0.7,4.8,0.9,5.1c0.4,0.4,5.8-1.2,5.6-1.7c0-0.1-0.9-0.3-1.9-0.3s-1.9-0.1-1.9-0.2c-0.2-0.2,1.6-3.4,3.1-5.4
		C284,151.1,284,150.9,282.1,152 M269.7,154.1c-3.1,2.2-2.8,3.9,0.6,3.3c1.3-0.2,1.5-0.7,0.5-1.2l-0.7-0.4l0.9-0.7
		c0.5-0.4,1.1-0.7,1.2-0.7c0.7,0,1-0.8,0.5-1.2C272,152.6,271.8,152.6,269.7,154.1 M151.9,153.2c-2.4,0.6-1.6,4,1.8,7.8
		c0.9,1,1.9,2.2,2.2,2.6s1.9,2.2,3.6,4c3.7,4,8.7,10.7,10.5,14c0.7,1.3,2,3.5,2.7,4.9c1.2,2.2,2.9,6.1,5.5,12.4
		c0.7,1.8,1.9,3.2,2.4,2.9c0.2-0.1,0.2-0.3,0-0.5c-0.4-0.5-2.9-6.6-3.4-8.3c-0.3-0.9-0.6-1.9-0.8-2.3c-0.2-0.4-0.3-0.8-0.2-0.9
		c0.1-0.1,0.5,0.6,0.8,1.4c1.5,3.5,2.1,4.6,4.2,7.6c4.7,7,5.2,4.8,0.5-2.5c-1.3-2.1-3.6-6.2-5.2-9.2c-1.6-3-3.3-6.3-3.9-7.2
		c-0.6-0.9-1.8-3.1-2.8-4.9c-1.9-3.5-2.4-4.3-5.8-8.7c-4.9-6.4-6.9-11-4-9c2.4,1.6,2.8,0.8,0.7-1.3
		C158.6,153.7,154.9,152.5,151.9,153.2 M178.7,154.9c0,0.1-0.6,0.9-1.3,1.6c-3.2,3.2-3.2,6.8-0.1,10.2c2.4,2.6,2.4,3.8-0.3,8.1
		c-0.5,0.9-1,1.7-1,1.9c0,0.5,0.8,0.4,1-0.1c0.8-2.1,1-1.9,1,0.7c0,3.2,1.2,6.2,2.4,6.2c0.5,0,0.5-0.1-0.4-1.5
		c-0.9-1.4-1.5-4-1.2-4.9c0.4-1.4,1.5-4.2,1.6-4.1c0.1,0.1-0.1,0.8-0.3,1.7c-0.6,2-0.3,5.2,0.5,5.2c0.2,0,0.2-0.6,0.1-1.7
		c-0.1-1.4,0-2.1,0.7-4.1c1.7-5.2,1-7.7-3.2-10.5c-1.7-1.1-1.9-1.5-1.4-3.7c0.2-1,0.6-1.7,1.2-2.3c1.4-1.4,1.9-2.8,1.1-2.8
		C178.9,154.6,178.7,154.7,178.7,154.9 M143.5,155.8c-0.6,0.7-0.5,3.5,0.3,5c0.3,0.7,1.1,2.4,1.8,3.8c2.5,5.2,7.1,11.5,11.9,16.3
		c3.9,3.8,10.7,9.8,12.5,11c0.4,0.2,1.3,0.9,2.1,1.6c1.5,1.2,2.1,1.4,2.1,0.8c0-0.2-2.2-2.5-4.9-5.1c-7.3-7.1-8.6-8.8-12.6-16.7
		c-2.3-4.6-2.6-5.4-2.8-7c-0.1-1.7-0.2-1.9-1.5-3.3c-0.8-0.9-2.1-2.4-2.9-3.4C147.1,155.7,144.6,154.5,143.5,155.8 M289.7,157.2
		c-0.9,0.6-1.7,4.1-1.1,4.5c1.9,1.2,3.8,1.1,2.6-0.2c-1.1-1.1-0.3-2.7,1.2-2.7c1.2,0,1.1-0.5-0.2-1.1
		C291,157.1,290.1,157,289.7,157.2 M270.3,158.7c-0.5,0.3-1.6,0.4-3.1,0.5c-2.3,0.1-2.3,0.1-3.3,1.1l-1,1l0.8-0.2
		c0.4-0.1,2.2-0.2,3.9-0.1c3,0.1,3.1,0.1,3.8-0.6c0.8-0.8,0.9-1.6,0.3-1.9C271.1,158.3,271.3,158.3,270.3,158.7 M339.3,159.5
		c-0.3,0.5-0.9,1.2-1.2,1.5c-2,1.9-1.8,3.2,0.7,3.2c7.2,0,9.3,1.3,10.6,6.9c1.2,4.9,2.4,7.7,4.4,10.5c1.4,1.9,2,2,1.2,0.2
		c-2.2-5.5-2.6-11.6-0.9-15.1c0.7-1.6,0.7-1.6,0.3-2.5c-1.1-2.1-5.9-5.6-6.2-4.7c-0.6,1.8-5.9,1.7-7.1-0.2
		C340.3,158.4,340,158.4,339.3,159.5 M272.2,160.7c-1.6,1.6-1.4,1.5-5.9,1.8c-3.9,0.3-6.1,1.1-7.3,2.7c-0.9,1.2-0.5,1.2,1.7,0.2
		c2.3-1.2,4-1.6,4.7-1.3c0.5,0.3,5.4,0,6-0.4c0.7-0.4,2.9-3.3,2.9-3.9C274.2,159.1,273.7,159.3,272.2,160.7 M381.3,161.1
		c-1.2,1.9-1.6,3.2-1.6,5.9c0,2.4-0.2,3.2-0.6,2.2c-0.2-0.5-1.2-0.5-1.2,0c0,0.2,0.6,1.4,1.3,2.7c1.9,3.4,2.1,5.1,0.6,9.4l-0.7,2.1
		l0.4,4.1c0.2,2.2,0.4,4.6,0.4,5.3c0,0.7,0.1,1.3,0.3,1.4c1.2,0.7,4.2-10.3,4.3-15.5c0-3.1,0.1-3-2-8c-1.2-3-1.5-7.5-0.6-9.8
		C382.3,160.3,381.8,160.4,381.3,161.1 M236.4,161.8c-2.4,0.5-3.4,0.9-4.3,1.7c-0.5,0.5-1.5,1.3-2.2,1.7c-1.4,0.9-2.9,3.5-2.9,4.9
		c0,1,0.2,1,1.5-0.3c1.1-1.1,2.7-1.9,5.5-2.6c1-0.2,3-0.8,4.5-1.3c1.5-0.5,3.5-1,4.3-1.1c3.6-0.4,5.1-1.4,3.2-2
		C242.5,161.9,238.4,161.4,236.4,161.8 M323.8,162.2c-3.6,1.9-6.2,7.2-8.1,16.2c-1.3,6.2-1.4,7.1-1.8,11.9c-0.2,2.3-0.6,5.7-1,7.6
		c-1.3,6.7-1.4,7.8-2,11.4c-0.3,2-0.8,5-1.2,6.5c-0.4,1.6-0.7,3.4-0.8,4c-0.7,4.6-2.6,12-4.2,16.3c-0.9,2.6-2,5.6-2.4,6.8
		c-0.4,1.2-1.8,4.7-3.1,7.8c-2.9,6.8-3,7-2,8.9c0.4,0.8,0.7,1.6,0.7,1.8c0,1.4,1.2,1.3,1.6,0c0.4-1.5,3.2-8.7,6.5-16.9
		c1.9-4.8,2.8-7.3,2.8-8c0-0.6,0.5-2.4,1.1-4.1c0.6-1.7,1.6-5.4,2.3-8.2c0.7-2.8,1.6-6.6,2.1-8.4c0.5-1.8,1.2-4.8,1.4-6.7
		c0.3-1.8,0.8-4.4,1.2-5.7c1-3.5,1.1-3.9,1.6-7.5c0.4-3,0.8-5.7,1.9-11.3c0.2-1.2,0.6-3.4,0.8-4.8c0.9-6,1.5-7.2,0.8-1.5
		c-0.7,5.7-0.7,11.3,0.2,15.7c1.7,8.7,1.5,17.6-0.6,27.3c-1,4.4-0.9,5,0.2,1.2c1.1-4.1,4.3-13.4,5.2-15.4c1.2-2.5,1-3.5-0.7-6
		c-1.6-2.1-2.9-12.8-1.9-15.1c0.1-0.3,0.8-2.1,1.6-3.9c2-5,2.3-5.6,5.2-10c2.9-4.3,3.7-6,3.7-7.8c0-1.6-0.5-1.5-1.4,0.3
		c-0.6,1.2-1.9,3.5-5.3,9.7c-1.1,2.1-1.1,1.4,0.1-0.9c2.2-4.4,4.1-10.5,3.4-11.1c-0.8-0.8-1.2-0.2-5.2,8.8c-0.5,1.1-1.1,3.1-1.4,4.4
		c-0.5,2.3-0.5,2.3-0.5,1c0-2,2.1-10.4,3.4-13.3c0.6-1.4,0.6-1.5-0.7-1.2c-0.7,0.2-1,0.2-1.2,0C325.5,161.4,325.2,161.5,323.8,162.2
		 M283.3,162.3c0,0.5,1.4,1.3,8.1,5l3.1,1.7l0.3,1.5c1.3,6.2,3,10,4.2,9.3c0.5-0.3,0.3-1.2-0.5-1.8c-1-0.7-1.5-2.1-2-6.1
		c-0.7-5.2,0-4.4-6-6.7c-1.5-0.6-3.7-1.6-4.8-2.3C283.5,161.7,283.3,161.6,283.3,162.3 M280,162.9c-0.3,0.8,1.4,3.1,2.3,3.1
		c0.1,0,1.1,0.4,2,0.9c1,0.5,2.5,1.2,3.4,1.5c2.4,0.9,2.7,1.3,3.1,2.9c1.3,6.1,3.5,10.9,5.9,12.6c1.2,0.9,1.2,0.4,0-1.4
		c-1.8-2.8-3.2-6-4.1-9.5c-1.2-4.9-0.9-4.4-4.7-6.2c-3-1.4-5.4-2.7-7.1-3.9C280.3,162.7,280.1,162.6,280,162.9 M273.6,164
		c-1.8,1.4-2,1.4-4.4,1.7c-3.1,0.3-3.1,0.3-3.7,2.4c-0.3,1-0.7,2.6-1,3.4c-0.3,0.9-0.6,2.2-0.6,3c0,0.8-0.3,1.8-0.5,2.2
		c-0.6,1.2-0.3,2.8,0.6,3.3c1.2,0.6,4.7,0.8,5.1,0.3c0.2-0.2,0.5-0.4,0.7-0.4c0.5,0,4-3.3,6.4-6.1c2-2.2,3.7-5.3,3.5-6.3
		c-0.1-0.8-0.9-0.9-1.1-0.2c-0.3,1.1-3.3,5.2-5.1,7.2c-1.9,2-2.6,2.4-1.3,0.7c1.5-1.9,4.5-6.7,5-7.9
		C278.5,164.1,276.2,162,273.6,164 M106.7,165.4c-9.5,1.5-18.7,6.1-23,11.5c-1.5,1.9-3.1,4.4-3.8,5.9c-1.4,3.1-1.3,4,0,1.6
		c0.9-1.6,2.8-3.7,4.5-5c1.6-1.1,1.5-1-0.3,0.9c-1.7,1.9-3.5,4.3-3.2,4.6c0.1,0.1,1.3-0.9,2.7-2.2c3.6-3.5,8-5.8,15.8-8.5
		c1.5-0.5-2.1,1.6-5.7,3.3c-4,1.9-6.8,3.6-7.9,4.9c-0.9,1,0,0.6,2-0.9c2.2-1.7,3.8-2.5,8.9-4.4c3-1.2,8.5-3.8,9.5-4.6
		c0.8-0.6,0.2,0.4-1.4,2.5c-2.4,3.1-3.4,4.1-5.4,5.4c-1,0.7-1.6,1.2-1.3,1.2c0.7,0.1,3.4-1,5.2-2.2c2.1-1.5,2-0.8-0.2,0.9
		c-2.8,2.1-5.8,3.1-12.8,4.2c-1.3,0.2-2.8,0.6-3.3,0.8c-0.5,0.2-1.4,0.5-1.9,0.5c-1.3,0.1-6.9,3-9.1,4.7c-2.2,1.6-3.7,3.9-4.3,6.3
		c-0.2,1-0.6,2.4-0.8,3.1c-0.2,0.8-0.4,2.5-0.4,3.9c0,3-0.3,4.8-1.4,8.4c-1.2,3.9-2.2,5.8-8.9,17.1c-1.2,2.1-2.2,3.9-2.1,4.1
		c0.5,0.8,1.2,0.1,3.2-3.1c1.2-1.9,3.2-5,4.5-7c2.5-3.9,3.4-5.8,4.9-11.1c1.3-4.8,1.5-5.1,1.3-3.2c-0.6,6.2-2.4,10.9-7.8,20.6
		c-2.3,4.2-3.6,6.8-3.4,6.9c0.2,0.2,6.9-11.3,8.3-14c0.7-1.5,1.6-3.8,2.1-5.6c0.4-1.7,1.1-4.2,1.5-5.5l0.6-2.4l-0.1,1.9
		c-0.1,1-0.3,2.4-0.4,3.1c-0.8,3.6-1.3,5.8-1.4,6.3c-0.1,0.3,0.4-0.5,1-1.7c0.6-1.3,1.4-2.5,1.7-2.9c0.8-0.8,1.7-2.6,2.8-5.7
		c0.5-1.4,1.6-3.9,2.4-5.5c2-3.9,2-5.3-0.1-2.7c-0.5,0.6-1,1.2-1.1,1.4c-0.1,0.1-0.1-0.4-0.1-1.1l0.1-1.3l-0.5,0.6
		c-0.3,0.3-0.9,1.9-1.4,3.4c-1,3.2-1.1,3.2-1.5-0.9c-0.6-7.2-0.3-8.5,2.7-10c2.7-1.3,5.4-0.8,7.8,1.6l1.1,1.1l0.5-1.1
		c0.7-1.4,3.1-4.3,3.6-4.3c0.6,0,0.5,0.5-0.2,1.4c-1.8,2.4-3,7.1-2,8c1.2,1.1,2.7-0.2,3-2.5c0.1-0.8,0.5-2.4,0.9-3.6
		c0.4-1.2,0.7-2.3,0.8-2.5c0.1-0.5,1.2-0.4,1.2,0c0,0.2-0.2,0.5-0.4,0.7c-0.6,0.5-2,5.3-1.5,5.3c0.5,0,2.2-2.8,2.9-4.7
		c0.9-2.4,1.5-3,0.9-0.8c-0.2,0.7-0.3,1.4-0.3,1.5c0.2,0.2,2.4-1.5,2.8-2.3c0.3-0.6,0.4-0.6,0.5-0.2c0.1,0.3,0.1,0.5,0.2,0.5
		c0.4,0,2.7-1.2,3-1.5c0.3-0.4,0.3-0.4,0.4,0c0,0.6,1.8,0.6,2.5,0c0.5-0.4,0.5-0.4,0.5,0c0,0.3,0.4,0.5,1.2,0.8
		c0.7,0.2,1.2,0.4,1.2,0.6c0,0.2,0.3,0.7,0.8,1.2l0.8,0.9l0.6-0.9c0.6-1,0.7-0.7,0.3,0.8c-0.2,0.7-0.1,1.3,0.2,2.5l0.5,1.6l0.4-0.9
		c1.1-2.1,0.8-0.1-0.4,2.6c-0.8,1.8-1.7,5.8-1.6,6.6c0,0.2,0.8-0.9,1.8-2.5c1.6-2.8,1.9-2.8,0.8,0c-0.3,0.7-0.9,2.1-1.4,3
		c-1,1.8-0.9,2.5,0.3,2.5c0.5,0,0.8-0.4,2-2.7c1.3-2.7,1.7-2.8,0.9-0.2c-0.5,1.8-0.4,1.9,0.8,0.5c1.8-2,2-2.3,2.4-3.9
		c0.2-0.9,0.5-1.5,0.7-1.4c0.4,0.2,0.2,2.5-0.3,3.8c-0.5,1.3-0.5,1.3,0,1.3c1,0,4.8,1.4,5.6,2c1.9,1.6,2.4,4.3,1.4,7.6
		c-0.2,0.8-0.6,2.1-0.8,2.9s-0.9,2.5-1.6,3.8c-1.4,2.8-1.9,2.8-1.3,0c0.3-1.2,0.4-2.6,0.3-3.9c-0.1-2.5-0.6-3.2-0.9-1.3
		c-0.2,1.5-1.2,4.8-1.4,5c-0.1,0.1-0.1-1.5-0.1-3.5c0.1-4,0.1-4-1.2,0.9l-0.8,2.9l0-2.8l0-2.8l-0.8,1.2c-1.5,2.4-2.1,7.2-1.2,10
		c0.7,2.2,0.4,6.8-0.8,10.3c-1.2,3.7-1.8,6.7-1.6,8c0.2,1.5,0.6,0.8,0.6-1c0-1.6,0.7-5,1.1-5.3c0.3-0.2,0.3,0,0,3.5
		c-0.3,2.7,0,5.3,0.5,5.6c0.1,0.1,0.2-1.7,0.2-3.8c0-4.3,0.9-9,2.4-12c0.8-1.7,0.8-1.5-0.5,4c-1.9,8.3-1.4,14.9,1.2,17.2
		c1.3,1.1,1.8,1.2,1,0.2c-3.9-5.5-3.1-14.6,2.2-22.8c3.2-4.9,5.4-11.1,6-16.5l0.2-2l0,1.9c0.1,4.5-2.4,12.5-5.3,17.3
		c-1.6,2.7-1.2,2.4,1.2-0.7c5.2-6.8,7-12.4,6.7-20.3c-0.2-4.8-1.7-9.8-3-9.8c-0.4,0-2.4-2-5.3-5.3c-1.1-1.2-2.7-3-3.6-4
		c-2.5-2.6-4.4-6.7-4.8-10.3c-0.2-2.1,0-1.8,0.5,0.6c0.7,3.4,2.8,7.1,5.1,8.9c0.9,0.7,0.9,0.8-0.7-2.5c-1.8-3.5-2.3-7.8-1.4-12.2
		l0.3-1.7l0.6,2c0.3,1.1,1.2,3.3,2,4.9s1.6,3.5,1.9,4.2c0.3,0.7,1.1,2.4,1.8,3.6c1.8,3.1,3.3,6.2,4,8.5c0.5,1.7,1.6,4,1.6,3.4
		c0-0.4-1.1-5.1-1.5-6.4c-0.2-0.7-1.3-3.1-2.3-5.3c-3.3-7.1-3.3-7.9,0.1-1.5c2.2,4.2,3.2,6.6,4,9.9l0.6,2.5l0.1-1.6
		c0.1-1.8-0.4-4.4-1.3-6.5c-1.4-3.4-1.7-4.2-2.3-5.6c-0.4-0.8-0.8-1.8-1-2.3c-0.2-0.4-1.1-2.4-2-4.4c-1-2.2-1.7-4.1-1.8-4.8
		c-0.1-1.4-0.1-1.4,0.8,0.7c0.4,0.9,1.3,2.8,2.1,4.1c0.8,1.4,1.8,3.1,2.2,3.9c1,1.8,1,1.7,0.4-1.1c-0.3-1.3-0.5-2.5-0.4-2.6
		c0.1-0.3,1.1,1.6,1,2c0,0.1,0.1,0.2,0.2,0.2c0.3,0,0.9,2.1,1,3.8c0.1,0.8,0.2,1.8,0.4,2c0.2,0.3,0.3,1.1,0.3,1.9
		c0,0.8,0.1,1.4,0.3,1.4c0.4,0,0.2-9.6-0.3-10.9c-0.2-0.5-0.2-0.8,0-0.7c0.9,0.6,1.8,8.1,1.3,11.6c-0.4,3.1,0,3.3,0.9,0.4
		c1.2-3.9,0.8-11.1-0.8-13.3c-0.4-0.5-1-1.4-1.4-2C122.2,166.9,116.7,163.9,106.7,165.4 M174.2,167.6c-0.1,0.4-0.3,1.2-0.3,1.8
		c0,0.7-0.3,1.7-0.7,2.4c-0.7,1.5-0.7,1.8,0.3,1.7c0.5-0.1,0.8,0,1.1,0.4c0.4,0.5,0.4,0.5,1-0.2c0.6-0.7,0.6-0.8,0.1-1.2
		c-0.6-0.6-1.2-3.4-1-4.6C175,166.7,174.6,166.5,174.2,167.6 M372.2,168.7c-0.7,0.9-1.4,2-1.6,2.6c-1,2.6-1.4,4.2-1.4,5.1
		c0,1.2-0.4,0.5-0.6-1.4c-0.3-2.2-0.8-1.4-0.8,1.3c0.1,4.2,2.2,7.8,2.2,3.8c0-0.9,1.1-3.4,2.6-6c0.7-1.3,1.4-2.7,1.5-3.2
		c0.3-1.5,0.8-0.3,0.6,1.6c-0.2,1.4-0.1,1.7,0.8,3.5c0.5,1.1,1.1,2.7,1.2,3.5c0.3,2.2,0.7,2.3,1.2,0.4c1.2-4.8,0.6-7.6-2.3-11.2
		C373.9,166.8,373.7,166.8,372.2,168.7 M259.5,167.7c-1.1,0.3-2.3,1.3-2.3,1.9c0,0.3,0.7,0.3,3.1,0.3h3.1l0.4-0.9
		c0.7-1.5,0.6-1.6-1.4-1.6C261.3,167.4,260,167.6,259.5,167.7 M281,171c-0.2,0.4-0.4,0.9-0.4,1.2c0,0.6,0,0.6,4,2.1
		c1.5,0.6,3.2,1.2,3.7,1.4c1.1,0.5,1.2,0.3,0.9-1.6c-0.4-2-0.4-1.9-3.2-2.8C282.5,170.2,281.6,170.1,281,171 M111.9,171.3
		c0.3,0.1,0.4,0.6,0.4,2.7c0,3.2-0.5,4.6-0.5,1.6c0-2-0.6-3.4-1-2.8c-0.6,0.8-3.1,1.9-2.7,1.2c0.2-0.4,3.1-2.9,3.3-2.9
		C111.5,171.1,111.7,171.2,111.9,171.3 M260.6,171.6c-4,0.7-7.9,2.8-8,4.3c0,0.4,0.1,0.4,1.7-0.2c0.7-0.3,2.7-0.7,4.4-1l3.1-0.5
		l0.4-1.3C262.8,171.4,262.6,171.2,260.6,171.6 M309,174.1c-0.1,0.3-0.5,2.4-1,4.6c-0.5,2.2-1.4,6.2-2.2,8.9l-1.4,4.9l1.4,1.5
		c2.3,2.5,2.5,3.2,1.8,6.1c-0.8,3.2-1.5,3.1-3.8-0.7c-0.8-1.3-1.4-1.9-1.4-1.4c0,0.1-0.3,1.5-0.7,3.1c-2.5,11.1-2.5,11.8-0.2,6.8
		c1.6-3.6,1.6-3.5,3.2-1.2c2.3,3.4,2.7,3.5,3.4,1.1c0.2-0.8,1-3.5,1.7-5.9c1.5-4.9,1.5-4.8-0.6-7.3c-2.2-2.7-2.3-3.5-0.6-12.4
		c0.7-4,1.1-8.7,0.7-8.7C309.3,173.5,309.1,173.8,309,174.1 M279.7,175.3c-1.1,1.1,0.2,2,4.8,3.5c1.5,0.5,3.5,1.3,4.4,1.7
		c1.8,0.9,1.8,0.9,2.3,0.6c0.3-0.2,0.2-0.5-0.5-1.7c-1-1.7-1.4-2-4.3-2.8c-1.1-0.3-2.2-0.7-2.5-0.9
		C283,174.9,280.2,174.8,279.7,175.3 M244.4,176c-0.5,0.5-1.9,2.5-3.2,4.4c-1.7,2.6-2.6,3.7-3.2,3.9c-0.5,0.2-1.2,0.9-1.8,2
		c-0.5,0.9-1.9,2.9-2.9,4.3c-2.2,3.1-2.2,3-0.5,2.4c1.5-0.5,2.2-0.4,1.1,0.2c-0.8,0.4-1,0.9-0.2,0.7c0.5-0.2,0.5-0.1-0.2,1.4
		c-1.1,2.4-1.2,2.8-1.3,3.6c-0.1,1.1,0.2,0.7,1.6-1.7c0.7-1.2,1.8-3.1,2.6-4.2c1.7-2.7,1.6-3.5-0.4-2.8c-1.1,0.4-1.1,0.4,0.1-1.6
		c1-1.7,2.2-2.7,3.3-2.7c0.4,0,0.8-0.6,1.9-2.7c0.8-1.5,2-3.8,2.9-5.1C246.1,175.2,246.2,174.1,244.4,176 M260.4,176.5
		c-0.6,0.9-0.9,1.1-1.9,1.2c-3.8,0.5-7.3,1.8-8.8,3.3c-1.3,1.3-1.1,1.7,0.5,0.9c1.5-0.7,6.8-1.9,7.1-1.6c0.3,0.3-0.9,1.2-2.3,1.6
		c-4.3,1.3-9.9,6.3-7.7,6.8c0.2,0,1-0.4,1.6-1c1.6-1.4,5.8-3.5,5.8-2.8c0,0.6-2.2,3.3-2.8,3.5c-0.9,0.2-3.5,2-4.4,3
		c-3,3.3-3.6,6.6-0.7,3.5c1.5-1.5,3.5-3.1,3.8-2.8c0.2,0.2-0.6,2.1-1.1,2.5c-1.8,1.4-4.4,5.3-4.4,6.6c0,1.3,1.1,1.2,1.6-0.2
		c0.2-0.5,0.6-1.2,1-1.6l0.7-0.8l-0.2,0.8c-1.2,5.4-1.3,11.3-0.2,13.1c1,1.6,2.3,3,2.8,3c0.7,0,0.8-0.8,0.2-1.4
		c-2.1-2.2-2.2-9.7-0.2-14.2c2.7-6,4.3-9,6-11.1c0.5-0.7,1.7-2.4,2.6-3.9l1.6-2.7l0.2-2.8c0.1-1.5,0.2-3.1,0.3-3.4
		C261.8,175,261.2,175.3,260.4,176.5 M54.5,178.2c0,0.7,0.1,1,0.1,0.6c0.1-0.4,0.1-1,0-1.3C54.6,177.1,54.5,177.5,54.5,178.2
		 M275.3,178.4c-0.7,0.6-1.8,1.7-2.6,2.3l-1.4,1.2l3.7,3.3c4.5,4.1,7.3,8,10.7,14.9c1.2,2.4,2.2,4.3,2.4,4.2s0.5-0.7,0.8-1.5
		l0.6-1.4l-1-3.1c-0.6-1.7-1.5-3.8-2-4.6c-0.5-0.8-1.4-2.2-1.9-3.1c-1.1-1.9-3.6-5.7-5.7-8.4c-1.6-2.1-2.1-3.1-2.1-4.1
		C276.9,177.2,276.5,177.2,275.3,178.4 M109.4,181.9c0,3.9,0,4.3-0.4,3.8c-1.8-2.5-4-3.1-6.4-1.9c-0.7,0.4,1.6-2.1,4.2-4.4
		C109.5,176.9,109.4,176.8,109.4,181.9 M339.5,177.5c0,0.1,0.3,0.9,0.7,1.8c2.7,6.9,2.7,14.7-0.2,26.5c-0.3,1.2-1,3-1.5,4.1
		c-0.9,1.8-1,2.2-1,4.2c0,2.5-0.4,2.6-0.6,0.1c-0.1-1.3,0.1-2.1,0.9-4.4c1.2-3.5,1.1-4.3-0.2-2c-3.1,5.5-2,10.9,2.2,10.9
		c1.4,0,1.5-0.2,0.3-1.2c-2.7-2.3-2.4-5.7,0.7-10.3c3.7-5.3,5.1-16.8,2.9-23.6c-0.9-2.9-1-2.7-0.2,1c1,4.7,0.8,9.6-0.6,14.4
		c-0.6,2.2-0.7,1.5-0.2-2.4c0.6-5,0.5-7.2-0.3-11.1C341.7,182.3,339.6,176.4,339.5,177.5 M45.9,178c-0.1,0.1,0.1,0.9,0.4,1.8
		c0.3,0.9,0.9,3.1,1.3,4.9c0.4,1.9,1.1,4.6,1.6,6c0.4,1.5,1,3.4,1.2,4.3c1.7,7,6.3,18.2,7.6,18.2c1,0,0.5-1.6-2.5-8.3
		c-0.8-1.9-1.9-4.5-2.4-5.9c-0.5-1.4-1.5-3.9-2.1-5.7c-0.7-1.9-1.6-4.9-2.1-7.4C47.6,181.1,46.3,177.3,45.9,178 M349.2,178.9
		c0,0.7,0.1,1.6,0.3,2c0.7,1.9,0.2,10.6-0.8,12.8c-0.3,0.6-0.7,2.1-0.9,3.3c-0.7,3.6-1.8,6.6-3.3,8.8c-2.3,3.4-3.6,6.7-3.2,8
		c0.2,0.7,0.9,0.7,0.9,0c0-1.1,0.9-3.6,1.5-4c0.7-0.5,3.4-4.7,4.5-6.8c0.4-0.8,0.9-1.6,1.2-1.9c1.8-1.8,3.1-9.1,2.7-14.9l-0.2-2.8
		l-0.2,2.8c-0.3,4.3-2.2,12.8-2.9,13.3c-0.2,0.1-0.2-0.1-0.1-0.5c1.8-7.3,2.2-15.1,0.9-19.9l-0.4-1.3L349.2,178.9 M332.9,178.1
		c0,0.1,0.8,1.3,1.8,2.6c1.8,2.5,2.8,4.2,2.8,4.7c0,0.6-0.5,0.2-1.6-1.3c-2.1-2.9-1.3-1.3,1.2,2.7c0.6,1,1.3,2.2,1.6,2.7
		c1.4,2.9,1-0.9-0.4-4.2C337.3,183.2,332.9,177.2,332.9,178.1 M146.3,179.3c-0.9,2.3,1.7,5.4,4.1,4.7c2.4-0.6,4.1,0.2,4.5,2.2
		c0.2,0.9,0.5,1,0.8,0.2c0.8-2.5-2.2-4.8-5.9-4.3c-1.6,0.2-2.5-0.4-2.7-1.8C146.9,179,146.6,178.6,146.3,179.3 M281.3,180
		c-0.3,1,2.3,3.2,4.9,4.1c2.1,0.7,4.6,2,6.8,3.4c2.7,1.7,2.6,1.7,3.1,0.7c0.4-1,0.5-0.8-2.9-3.3c-2.8-2-4.6-3-6.9-3.6
		c-1.1-0.3-2.4-0.8-3-1.1C282.1,179.6,281.5,179.5,281.3,180 M328.1,180.8c-0.5,0.5-0.3,1.2,0.6,2.1c2.3,2.3,6.6,8.6,8.5,12.6
		c1.4,2.9,2,3.1,1,0.3c-0.8-2.2-1.6-3.8-3.3-6.6c-1.4-2.3-3.1-5.4-3.1-5.7c0-0.2,3,3.7,4.5,6c0.6,1,1.8,2.9,2.5,4.4
		c1.4,2.8,1.9,3.2,1.8,1.5c-0.1-1.5-1.4-4-3.2-6.2c-0.8-1-2.6-3.3-3.8-5c-1.3-1.7-2.4-3.2-2.6-3.3
		C330.4,180.5,328.4,180.5,328.1,180.8 M366.7,183c0,0.8,1,2.9,2.4,5.1c1.5,2.4,2.1,5.4,1.7,8.4c-0.4,2.7,0.1,3.3,1.6,2.1
		c3-2.4,2.4-6.5-1.6-10.9c-1.3-1.4-2.6-3.2-3-3.9C367.1,182.2,366.7,182,366.7,183 M50.9,182.8c-0.5,0.5,0.2,4,1.8,9.8
		c2.2,7.8,9.1,23.9,9.8,22.7c0.2-0.3,0-1-0.8-2.6c-1.9-3.9-6.8-17.7-9.2-26.5C51.6,183.1,51.3,182.4,50.9,182.8 M156.7,184.8
		c0.1,0.4,0.3,1.7,0.4,2.9c0.5,4,2.3,5.9,7.4,7.5c1.5,0.5,2.6,1.6,2.9,2.7c0.1,0.6,0.3,0.7,0.8,0.6c0.3,0,0.1-1-0.3-1.9
		c-0.7-1.3-2.3-2.6-4.4-3.6c-1.1-0.5-2.3-1.1-2.7-1.3c-0.8-0.4-1.6-1.4-1.8-2.5c-0.2-0.7-2.1-4.9-2.4-5.2
		C156.6,184.1,156.6,184.4,156.7,184.8 M286.9,187.8c-0.3,0.9,0.3,1.7,2.3,2.7c1.1,0.5,2.4,1.3,3.1,1.7c1.4,1,1.5,1,2.1-0.3
		c0.6-1.4,0.4-1.7-2.9-3.3C288.9,187.3,287.2,187,286.9,187.8 M139.3,188.3c-1.7,4.4,1.5,6.7,6.8,4.9c5.4-1.8,8.8-0.1,9.3,4.7
		c0.4,3.5,1.7,6.5,3.2,7.2c2.4,1,5.2,1.1,7,0.3c0.7-0.3,2-0.7,2.7-0.8c0.8-0.1,1.4-0.3,1.4-0.4c0-0.4-1.4-0.5-3.4-0.1
		c-6.2,1.1-9.4-1.2-10-7.2c-0.4-3.9-1.8-5.4-5.5-5.9c-1.7-0.2-1.3-0.6,0.7-0.6c3,0,4.7,1.3,6.1,4.9c1.8,4.5,3.2,6.3,4.8,6.3
		c0.9,0,0.8-0.5-0.4-1.1c-1.4-0.7-2-1.6-2.8-4.3c-1.8-5.8-3-6.9-7.4-7.1L149,189l-3,1.7c-4.9,2.8-6,2.7-5.9-0.9
		C140.2,187.7,139.8,187,139.3,188.3 M366.8,188.6c-0.1,0.2,0.1,1.3,0.4,2.3c0.9,2.9,1.1,4.2,0.9,5.5c-0.2,1.6,0.4,2.1,1.3,1
		c1-1.2,0.6-3.5-1.3-7.4C367.2,188.1,367.1,188,366.8,188.6 M330.2,193.2c0,0.1,0.3,0.5,0.6,0.7l0.6,0.5l-0.5-0.7
		C330.4,193,330.2,192.8,330.2,193.2 M332.3,193.1c0,0.1,0.2,0.5,0.5,0.9c2.5,3.5,3.5,9.1,2.1,12l-0.4,0.9l0.1-1.9
		c0.1-2.4,0.2-2.3-0.9-0.1c-1.4,2.9-0.8,6.7,1.1,6.7c0.6,0,0.6-0.1,0.5-1.9c0-1,0.1-1.5,0.9-2.7c1.9-3.2,1.3-7.5-1.7-11.8
		C333.7,194.1,332.3,192.8,332.3,193.1 M319.7,194.5c-0.5,2.3-1.8,10.4-2.3,13.7c-0.3,2.1-1,6.4-1.5,9.4c-1.8,11-1.8,20.7-0.1,29.9
		c1.8,9.7,2.3,7.4,1.9-10c-0.1-5.5,0.2-11.2,1-20.9c0.7-7.3,1.5-22.5,1.2-22.8C319.9,193.8,319.8,194.1,319.7,194.5 M289.2,195.3
		c0.1,0.7,0.4,1.2,1,1.7c1.1,0.9,1.2,0.9,1.8-0.2l0.5-1l-0.9-0.8C290.1,193.9,289,194,289.2,195.3 M332.9,197.5
		c0.6,2.1,1.6,4.2,1.4,3.1c-0.2-1-1.3-3.9-1.5-3.9C332.7,196.7,332.7,197.1,332.9,197.5 M328.3,197.6c0.4,0.2,1.1,0.5,1.7,0.7
		c2.8,1.2,2.9,2.4,0.1,1.4c-1.1-0.4-2.1-0.6-2.2-0.5c-0.3,0.3,0.3,0.6,1.6,1c0.6,0.2,1.4,0.6,1.9,0.9c1.6,1.2,2.4,0.6,1.5-1.1
		c-0.6-1.2-3.2-2.8-4.5-2.7l-0.8,0L328.3,197.6 M362.1,199.1c-7.1,1.3-17.8,11.2-17.8,16.5c0,1.8,1.3,3.4,1.4,1.6
		c0.1-3.3,5.1-6.7,10.4-7.1c1.2-0.1,2.5-0.3,2.9-0.5c0.4-0.2,0.9-0.4,1.2-0.4c0.3,0,0.8-0.3,1.3-0.6l0.8-0.6l-2.2,0.2
		c-2.4,0.2-2.7-0.1-0.8-0.6c1.5-0.4,7-0.5,9.2-0.2c2,0.3,2.2-0.2,0.4-0.8c-4.8-1.7-10.5-0.6-16.7,3c-2.7,1.6-3.2,1.4-1-0.3
		c7.9-5.9,16.6-6.9,23-2.6c1.5,1,1.7,1,1.2,0.1c-0.7-1.4-4.3-3.2-7.4-3.6c-0.7-0.1-1.2-0.3-1.1-0.4c0.3-0.5-0.5-0.5-3.1,0
		c-6.3,1.2-11.1,3.7-15.6,8c-1.7,1.7-2.5,2-1.5,0.6c1.8-2.5,8.2-7.5,11.6-9c7.6-3.3,16.4-1.1,18.5,4.7c0.6,1.7,1,1.7,0.8,0
		C377.1,202.1,369,197.9,362.1,199.1 M226.8,199.9c-0.7,0.1-1.9,1.6-1.9,2.4c0,0.9,0.3,0.9,1,0.2l0.6-0.7l-0.6,1
		c-0.6,1-0.4,3.1,0.2,3.1c0.3,0,3-5.8,2.8-6C228.8,199.7,227.8,199.7,226.8,199.9 M282,200.6c-0.5,0.5-0.9,1.3-1,1.7
		c-0.1,0.4-0.3,1.3-0.5,2c-0.6,2.1,0.8,3,1.5,1c0.2-0.7,0.5-0.8,1.5-1c2.4-0.4,2.6-0.8,1.5-3.2C284,199.3,283.2,199.2,282,200.6
		 M277,201.1c-0.8,1.3-0.7,2.3,0.1,2.6c0.5,0.2,0.9-0.3,0.9-1.1c0-0.3,0.2-1,0.4-1.6c0.5-1.2,0.5-1.2-0.1-1.2
		C277.9,199.9,277.4,200.4,277,201.1 M229.5,201.5c-0.4,0.7-1.3,2-2,3.1c-1.4,2.2-1.4,2.1-0.3,2.1c1,0,1.1,0,2.2-3.2
		C230.6,200.6,230.6,199.8,229.5,201.5 M231.6,201.7c-0.3,0.4-0.8,1.5-1.2,2.5c-0.7,1.7-1.3,2.7-2.5,4c-0.9,0.9-0.2,1.6,1.2,1.2
		l1.1-0.3l1.1-3.7c0.6-2,1.2-3.8,1.3-4C232.8,200.8,232.1,201,231.6,201.7 M174.3,202.3c-1.7,0.8-3.6,3.2-2.4,3.2
		c0.2,0,0.8-0.3,1.3-0.8c1.6-1.3,2.4-1.5,3.6-1c2,0.8,2.8,0.3,1.6-0.9C177.3,201.7,176,201.5,174.3,202.3 M265,203
		c-1.2,0.6-2.7,1.9-6.9,5.7c-3.9,3.7-4.2,3.8-5.6,2.7c-1.2-0.8-1.3-0.3-0.2,0.7c2.5,2.3,4.4,1.7,6.9-2.2c1.3-2,3.4-4.2,6.3-6.8
		C266.4,202.5,266.2,202.4,265,203 M330.4,204.2c-0.7,0.4-1.7,2.2-3.2,6.2c-1.8,4.7-2.1,5.6-0.8,3.1c1.2-2.4,4.3-7.1,5.3-8
		C332.9,204.3,332,203.3,330.4,204.2 M169.9,206.1c-1.6,0.2-2.5,0.7-3.8,1.9c-0.9,0.9-1.9,1-3.4,0.1c-3.3-1.8-7.4-0.9-7.6,1.7
		c0,0.5-0.4,1.9-0.7,3.2l-0.6,2.3l-0.8-0.1c-1.1-0.1-2.1-0.7-2.9-2c-0.7-1.1-1.2-1.3-1.2-0.5c0,0.9,1.6,2.7,2.7,3.3
		c2.4,1.1,3.6,0.4,4.3-2.4c0.9-3.6,2.3-3.9,5.8-1.5c3.5,2.4,6.5,2,8.9-1.2c1-1.4,0.7-1.7-0.6-0.7c-1,0.8-3.8,2.2-4.5,2.2
		c-0.7,0-0.6-0.4,0.1-0.7c0.8-0.4,5-3.8,5-4.1c0-0.3-0.7-0.3-1.5,0c-0.3,0.1-0.5,0.3-0.5,0.4c0.1,0.1-0.2,0.4-0.5,0.6
		c-0.8,0.5-0.8,0.3-0.1-0.7c0.8-1,2.2-1.6,3.4-1.6c0.6,0,1-0.1,0.9-0.3C172.3,205.8,172.1,205.8,169.9,206.1 M176.2,206.3
		c0.1,0.2,0.5,0.4,0.9,0.5c2.5,0.5,4,3.4,3.5,6.7c-0.5,3,0.2,3.9,2.9,4.2c1.8,0.2,1.8-0.2-0.1-1.4c-2-1.3-2.1-2-0.1-1.3
		c1.7,0.6,2.4,0,0.8-0.7c-0.5-0.3-0.8-0.7-1.1-1.7c-1-3.6-1.7-4.6-3.8-5.7C178.1,206.3,175.9,205.8,176.2,206.3 M296.6,208
		c-5.2,11.9-5,10.9-3.2,14.4l1.3,2.6l-0.7,2c-0.8,2.2-0.9,2.3-1.5,1.3c-0.2-0.4-1.2-1.8-2.1-3.1c-1.9-2.7-1.9-2.4-0.1-6.5
		c1.4-3.2,3.3-8.9,3.3-9.7c0-1-4.4,6.4-6.8,11.6l-1.1,2.3l2.2,4.1c1.2,2.3,2.5,4.6,2.9,5.2l0.7,1.1l-1.1,3c-0.6,1.6-1.4,3.7-1.7,4.6
		c-0.7,1.7-0.7,2.1,0.1,2.1c0.5,0,2-2.6,3.7-6.2c0.5-1,1.6-3.1,2.5-4.7c2.3-3.8,3.2-5.6,4.4-9c0.6-1.6,1.1-2.9,1.2-3
		c0.1-0.1,0.6,0.8,1.2,1.8l1.1,1.9l-0.3,1.8c-1,5.5-2.1,12.2-2,12.3c0.2,0.2,0.4-0.2,2.2-5.2c1-2.8,2.2-5.8,2.6-6.8s0.8-2,0.8-2.3
		c0-0.9-5.8-11.1-6.3-11c-0.1,0-1,1.8-1.9,3.9c-1.8,4.3-2,4.5-2.8,3l-0.5-1.1l0.5-2.1c0.6-2.4,2.1-8.8,2.1-9.2
		C297.7,206.5,297.1,207,296.6,208 M274.9,208.3c-1,1.2-1.2,2.4-0.4,2.6c0.4,0.1,1.3-1.4,2.3-3.5
		C277.1,206.6,275.7,207.3,274.9,208.3 M279.6,208.2c-0.5,0.3-0.9,0.8-1,1c-0.1,0.3-0.4,1.1-0.8,1.9c-0.8,1.8-0.4,2.7,0.8,1.7
		c1-0.9,2-1.4,2.7-1.4c1.1,0,3.6-2.8,2.9-3.3C283.3,207.6,280.4,207.7,279.6,208.2 M93.3,208.8c-0.2,0.3-0.6,1.3-0.8,2.1
		c-0.5,1.6-1,2-1.7,1.2c-0.2-0.3-0.2-0.7,0.4-1.7c0.9-1.8,0.9-1.9-0.6-1.9c-1.5,0-1.9,0.3-2.7,1.7l-0.5,1.1l0-1
		c0-2.1-3.1,0.1-3.3,2.3c-0.1,1.7-0.7,2.4-2.5,3.5c-2.1,1.2-5,6-6.1,9.7c-2.3,8.4-2.4,9.4-2.4,16.3c0,8.3,0.5,9.7,4.8,17.1
		c2.6,4.3,3.6,5.5,6.8,7.7c1.6,1,3.4,2.4,4.1,2.9c1.7,1.3,4.9,2.8,8.7,3.9c3.9,1.2,5,1.2,1.3,0c-5.6-1.9-9.7-4.2-12.7-7.4
		c-1-1-1.2-1.4-0.7-0.9c3.4,2.6,6.6,4.4,9.5,5.4c3.5,1.1,3.6,0.7,0.2-0.8c-6.7-3-15.3-11.1-15.3-14.4c0-0.1-0.3-0.9-0.8-1.8
		c-1.7-3.7-1.8-4.2-1.7-9.8c0-5.2,0.4-8.6,1.3-11.7c0.5-1.6,0.5-2,0-1c-1.4,2.5-2.5,11.4-2.1,16.6c0.3,4.1-0.6,2.9-1.2-1.6
		c-1.6-12.6,2.4-22.8,10.7-27l2.6-1.3l3.9-0.2c4.7-0.3,5.8,0,8.1,1.9c4.1,3.4,5.5,7.1,5.2,13.5c-0.4,8.2-1.6,9.8-1.7,2.1
		c0-6.2-1-9-4-12.1c-2.1-2.1-3.1-2.3-1.2-0.2c2.5,2.6,3.3,7.1,2.2,11.5c-1.5,6-1.8,19.5-0.5,22c0.2,0.4,0.6,1.2,0.9,1.9
		c1.1,2.4,1.6,2.6,0.7,0.3c-0.8-2-1.9-6.1-1.6-6.3c0,0,0.6,1.3,1.3,3.1c1.3,3.3,2.7,5.9,4,7.4c0.7,0.8,0.6,0.6-0.4-1.6
		c-2-4.1-3.1-8.2-3.1-11.4c0-4.2,0.5-4.9,0.6-1.1c0.2,4.5,2.1,10.1,4.7,13.9c1.5,2.2,1.5,2.1,0.1-0.7c-2.6-5.1-2.8-10.9-0.9-21.1
		c0.5-2.5,1.1-8.4,1.1-10.7c0-0.6,0.1-0.8,0.3-0.6c0.7,0.7,0.6,6.8-0.2,12.2c-0.2,1.5,1.6-2.2,1.8-3.9c0.1-0.6,0.6-2.1,1-3.2
		c1.3-3.3,1-4.8-2.3-9.8c-0.7-1-1.4-2.2-1.5-2.5c-0.2-0.3-0.6-1-0.9-1.5c-0.8-1.1-0.8-1.8,0-3c0.5-0.8,0.6-1.2,0.5-1.9
		c-0.2-1-1.7-2.9-1.9-2.4c-0.6,1.3-1.4,2.6-1.6,2.7c-0.7,0.2-0.6-0.7,0.1-2.2c0.8-1.7,0.8-2-0.5-2.7c-1.2-0.7-1.6-0.5-2.2,1.2
		c-0.5,1.4-1,1.7-1.5,0.8c-0.2-0.4-0.2-0.8,0.4-1.8c0.9-1.6,0.9-1.6-0.5-2.2c-1.8-0.8-1.7-0.9-2.8,2.9c-0.1,0.5-1.2,0.4-1.4-0.1
		c-0.1-0.2,0.1-1.1,0.5-2l0.7-1.6l-0.6-0.2C94.5,208,93.7,208.2,93.3,208.8 M362.9,209.4c-1.7,0.9-1.3,1.5,0.5,0.8
		c0.7-0.3,1.3-0.4,1.5-0.3c0.2,0.1,1.1,0.3,2.1,0.4c3.2,0.5,10.3,3.2,11.3,4.4c0.2,0.3,0.7,1.1,1.1,1.7c1.1,2,2.3,1.7,2.3-0.5
		c0-2.4-7.3-5.9-14.2-6.8c-1.1-0.1-2.2-0.3-2.6-0.4C364.4,208.8,363.7,209,362.9,209.4 M354.4,211.4c-3.6,0.8-7.1,3.2-7.1,4.7
		c0,1.2,0.5,1.4,0.9,0.3c0.8-2,6.9-3.9,10.5-3.4c1.1,0.2,2.4,0.3,3,0.4c0.6,0.1,1.4,0.2,1.9,0.4c0.4,0.2,1,0.3,1.2,0.2
		c0.8-0.2-1.3-1.1-3.6-1.7c-1.1-0.3-2.1-0.6-2.2-0.7c-0.3-0.3,4.3,0.4,5.3,0.8c1,0.4,1.1,0.1,0.3-0.4
		C363.3,211.3,356.7,210.9,354.4,211.4 M87,212.1c0,0.2-0.1,0.4-0.3,0.4c-0.3,0-0.6-0.4-0.4-0.6C86.7,211.5,87,211.7,87,212.1
		 M370.3,213.7c0.9,0.8,2.4,2.7,3.3,4.1c1.2,1.8,2.4,3.2,4.2,4.9c2.6,2.4,4.1,4.2,2.2,2.7c-0.5-0.4-1.8-1.4-3-2.3
		c-1.1-0.9-2.7-2.3-3.4-3.3c-1.7-2.1-2-2.3-1.6-1.6c0.2,0.3,0.9,1.3,1.6,2.2c1.1,1.4,1.2,1.6,0.7,1.5c-0.8-0.1-1.8-0.7-1.7-0.9
		c0.1-0.1-0.3-0.6-0.8-1.1s-0.9-0.7-0.7-0.5c0.1,0.2,0.5,0.6,0.9,0.9c0.3,0.3,0.6,0.6,0.5,0.6c-0.1,0.1-0.4-0.1-0.7-0.3
		c-0.8-0.8-0.9-0.3-0.2,0.7c0.7,0.9,3,2.7,4.7,3.5c1.4,0.7,4.8,3.4,6,4.6c1,1.1,1.2,1.8,0.2,0.9c-0.3-0.3-0.5-0.4-0.5-0.2
		c0,0.1,0.3,0.6,0.7,0.9c0.4,0.4,1,1.2,1.3,1.9c1,2,1.7,1.5,1.9-1.3c0.2-3.3-2.7-7.9-6.5-10.1c-2.5-1.5-5.7-4.1-6.8-5.8
		c-1.5-2.1-2.1-2.8-2.9-3.3C368.5,212,368.5,212.1,370.3,213.7 M367.3,212.7c0,0.1,0.3,0.4,0.8,0.6c0.4,0.2,1.2,0.8,1.6,1.5
		c0.9,1.3,1.1,1.4,1.1,0.7c0-0.2-0.4-0.8-1-1.3C368.7,213.2,367.3,212.3,367.3,212.7 M39.1,213.1c-2.2,0.6-3.3,1.4-5,4.1
		c-1.4,2.2-1.6,2.4-2.2,2.2c-0.7-0.3-0.7-0.3-1.4,1.7c-0.7,2-1.4,2.5-3.7,2.7c-2.3,0.2-2.7,0.3-2.8,0.8c-0.3,0.8,0.3,1.4,1.6,1.4
		c1.5,0,1.8,0.4,0.5,0.8c-1,0.3-1.1,0.5-0.6,1.1c0.2,0.3,0.8,0.5,1.7,0.5l1.3,0.1l-0.9,0.4c-1.7,0.7-0.7,1.4,1.9,1.5
		c3.6,0,5.2,1.6,5.9,5.7c0.2,1.3,0.7,2.9,1,3.7c1.3,2.7,3.7,9.5,4.5,12.6c0.3,1.1,0.6,1.9,0.7,1.9c0.6,0-0.5-7.2-2.1-13.2
		c-0.9-3.3-1.4-6.3-1.1-6c0.7,0.6,4,12.4,4.4,15.1c0.2,1.8,0.4,1.4,1.1-2.2c1.2-6,1.2-9.2,0-17.5c-1.1-7.3-0.9-10,0.2-4.4
		c1.5,7.2,2.3,13.8,2.1,16.9c-0.3,3.3,0.3,2.6,1.2-1.5c0.4-1.6,0.5-13.7,0.1-16.3c-0.3-1.9,0.1-2,0.8-0.1c2.1,5.7,0.7,21.7-2.8,32.2
		c-1.1,3.3-1.2,4-0.1,1.4c0.4-1,1.2-2.8,1.7-4c3.6-7.8,5.7-16.1,5.7-22.6c0-2.1,0.1-3.6,0.4-4.6c0.7-2.2,0-5.4-1.9-9.1
		C49.4,214,44.2,211.8,39.1,213.1 M185.2,213.1c-0.1,0.3,0.1,0.7,0.8,1.3c2.2,1.8,1.6,4.1-1.2,4.9c-4.3,1.1-7.7,4.7-6.7,6.9
		c0.2,0.3,0.5,1.6,0.8,2.9c0.6,2.6,0.6,2.9-0.9,4.4c-0.8,0.9-0.8,0.9-0.1,0.4c1.4-0.9,2.2-2.6,1.9-4.5c-0.7-5,0.6-6.7,5.9-7.8
		c3.2-0.6,4.3-0.9,4.3-1.2c0-0.6-0.8-2.2-1.1-2c-0.1,0.1-0.3-0.2-0.3-0.6C188.8,216.1,185.7,211.9,185.2,213.1 M373.6,213.6
		c-0.1,0.2,0,0.8,0.3,1.3c0.4,0.8,1.1,1.6,5.2,5.5c1.3,1.3,2.1,1.4,2.3,0.5c0.1-0.8-0.9-1.9-2.9-3.2c-1.7-1.1-2.3-1.7-4-3.7
		C373.9,213.4,373.7,213.3,373.6,213.6 M271.2,214.4c-1.4,1.1-1.9,3.1-0.8,3.5c0.3,0.1,0.6-0.2,1-0.9c0.4-0.6,1-1.3,1.5-1.7
		C274.2,214.2,272.6,213.2,271.2,214.4 M277.4,214.1c-1.2,0.2-2,0.8-2.9,2.5c-0.2,0.4-0.8,1.2-1.3,1.8c-1.5,1.7-0.5,2.7,1.2,1.1
		c0.8-0.8,1.3-1,2.6-1.1c1.4-0.2,1.7-0.3,2.8-1.4c1.5-1.5,1.5-1.6,0.4-2.2C279,213.9,278.7,213.9,277.4,214.1 M326.3,217.7
		c-5.5,12.1-7.3,21.9-6,34.1c0.6,6,4.8,19,6.1,19c0.7,0,0.7-0.1-0.5-5c-4.2-16.8-3.7-35.6,1.4-47.1c1-2.4,1.1-3.1,0.3-3.1
		C327.4,215.7,326.9,216.4,326.3,217.7 M360.5,216.1c-0.9,0.2-2.2,1.4-3.4,2.9c-0.8,1-1.3,1.5-1.9,1.6c-0.4,0.1-0.9,0.3-0.9,0.4
		c-0.4,0.7,1.9-0.2,3.2-1.3c0.5-0.4,1-0.7,1.1-0.6c0.2,0.2-2,2.1-2.9,2.5c-0.7,0.3-0.8,0.4-0.2,0.4c1,0,2.3-0.7,3.3-1.7
		c1.4-1.5,2.2-1.8,3.8-1.6c1.6,0.2,1.6,0.1,0.1-0.8c-1.6-0.9-1.3-1.2,0.4-0.3c1.6,0.8,1.8,0.3,0.3-0.6
		C362.2,216.2,361.3,215.9,360.5,216.1 M351.5,216.5c-3.2,0.4-7,3.1-9.8,6.9c-2,2.6-2,4.6-0.1,7.1c0.5,0.7,1.1,1.8,1.3,2.4
		c0.3,1,0.4,1.1,0.4,0.3c0-0.4-0.3-1.8-0.8-3.1c-0.6-1.9-0.8-2.9-0.5-2.4c0.4,0.7,1.9,4.1,2,4.9c0.2,1.1,0.2,1.1,0.3,0.2
		c0-0.5-0.2-1.6-0.5-2.4c-0.3-0.8-0.5-2.1-0.5-2.7c0-1.2,0-1.2,0.3-0.4c0.1,0.4,0.6,1.7,1,2.8c0.4,1.1,0.8,2.3,0.8,2.7
		c0.1,0.4,0.3,0.7,0.5,0.7c0.7,0,0.6-2-0.1-4.4c-1.3-4-0.5-6.2,3-8.5c2.5-1.7,2.8-2.2,0.9-1.4c-1.5,0.6-3.4,1.8-5,3.3
		c-1.3,1.2-1.5,1-0.4-0.5c1.8-2.5,4.6-4.2,8.6-5.3C354.2,216.2,353.8,216.2,351.5,216.5 M40,222.5c0.1,3.3,0.5,6.1,1.3,8.7
		c0.8,2.5,1.5,5.8,1.4,7l0,0.9l-0.3-1.1c-0.1-0.6-0.4-1.9-0.7-2.9c-0.5-2.3-1.3-4.2-2.9-6.5c-2.1-3.1-2.5-6.9-0.9-8.2
		C39.5,219,39.9,219.4,40,222.5 M362.2,220.9c-1.1,0.2-2.4,1.4-3.3,2.9c-1,1.7-1.9,2.4-3.7,2.6c-1.6,0.2-2.1,0.4-1.6,0.6
		c0.7,0.3,3.5-0.6,4.6-1.3c0.8-0.6,1-0.7,0.8-0.3c-0.4,0.7-0.9,1.1-2.6,1.8l-1.5,0.7l1.2-0.2c2-0.3,3.3-1.1,4.5-2.8
		c1.3-1.8,1.6-2,4-1.7c3.2,0.3,2.5-0.8-0.8-1.2l-1.5-0.2l0.9-0.3c0.5-0.2,1.4-0.2,1.9-0.2c0.6,0.1,0.8,0,0.5-0.1
		C365.2,221,363.1,220.8,362.2,220.9 M264.1,221.3c-1.1,0.3-1.7,0.7-2.1,1.8c-1,2.3,0.1,2.6,1.7,0.5c0.6-0.8,1.4-1.5,1.7-1.6
		C266.7,221.5,265.6,220.9,264.1,221.3 M270,221.9c-1.6,0.8-3.1,2-4.1,3.5c-1.1,1.5-0.8,1.8,0.9,1c1.4-0.7,1.7-0.7,4.4,0.1
		c0.6,0.2,2.3-1.1,3.3-2.6C275.8,222,272.8,220.6,270,221.9 M349.1,222.3c-2.4,1.2-2.7,3.7-0.9,6.9c0.7,1.2,0.9,1.9,0.8,2.3
		c-0.1,0.4-0.1,0.5,0.1,0.4c0.4-0.2,0.4-1.3-0.1-3.1c-0.5-2-0.5-2.8,0.1-1.5l0.5,1.1l-0.1-1.1c-0.2-1.7,0.3-2.1,3-1.8
		c1.5,0.1,2.3,0.1,2.4-0.1c0.1-0.2,0.5-0.2,0.9-0.1c0.8,0.2,1.9-0.3,1.9-0.7c0-0.1-0.9-0.2-2.1-0.2c-2.4,0-4.4-0.3-4.2-0.6
		c0.1-0.1,1.1-0.2,2.3-0.2c3.6,0,2-0.9-2.6-1.5C350.4,221.8,349.8,221.9,349.1,222.3 M370.7,222.6c0,0.4,2.6,4.2,3.7,5.4
		c1.8,2,1.8,2.3,0.1,0.6c-0.9-0.9-2-2.1-2.4-2.6c-0.9-1.3-1.1-1.1-0.3,0.5c0.7,1.4,2.8,4,6.4,7.7c2.9,3.1,4.5,5.4,5.4,7.8
		c0.7,1.9,2,4.3,3.3,5.7c1,1.1,0.8,2.1-0.5,3.4c-1.2,1.3-2,2.6-2.2,3.9c-0.3,1.2-0.1,1.1,0.9-0.5c0.7-1.3,2.2-3,2.2-2.5
		c0,0.1-0.3,0.6-0.6,1c-0.9,1.1-2,3.6-2,4.4c0,1,0.5,0.6,0.9-0.7c0.6-2,0.8-2.3,2.6-3.5c3.1-2.1,3.1-4.4-0.1-8.6
		c-1.3-1.7-1.7-2.6-2.3-5c-0.3-1.1-0.7-2.3-0.9-2.6c-0.2-0.3-0.7-1-1.1-1.6c-0.8-1.2-2-2.5-2.3-2.5c-0.1,0,0.3,0.8,0.8,1.7
		c0.6,0.9,1.5,2.9,2,4.4c0.5,1.5,1.1,2.9,1.2,3.2c0.2,0.3,0.2,0.6,0.2,0.7c-0.1,0.1-0.9-1.5-1.9-3.4c-2-4.1-4.7-8.1-7.4-10.7
		c-1-1-2.6-2.9-3.5-4.2C371.4,222.6,370.7,221.9,370.7,222.6 M368.6,224.6c0,1.5,2.1,5.3,5.3,9.4c5.6,7.4,6.7,9.3,1.9,3.2
		c-4-4.9-4.5-5.7-5.7-7.4c-0.8-1.2-1-1.3-0.8-0.7c0.4,1.7,2.3,5.1,3.9,6.9c6.2,7.1,7.4,10.5,6.3,18.5c-0.8,5.8-0.4,5.7,0.8-0.3
		c0.8-3.9,0.9-4.2,0.8-2.4c-0.1,1.1-0.3,2.8-0.5,3.9c-0.5,2.6-0.8,4.7-0.5,4.7c0.2,0,1.5-4.6,2.1-8c0.7-3.6,0.7-3.5,0.9-2.4l0.2,0.9
		l0.2-0.9c1-4.9,0-7.4-5.5-13.1c-3.9-4.1-5.1-5.7-7-9.3C369.7,225.4,368.6,223.9,368.6,224.6 M255.6,228.6c-1,0.8-2.1,2.9-1.9,3.4
		c0.3,0.8,0.9,0.5,2-1.1c0.6-0.9,1.4-1.8,2-2.1c1.2-0.6,1.1-0.9-0.4-0.9C256.7,227.9,256.1,228.1,255.6,228.6 M260.5,230.4
		c-1.4,1.5-2.1,2.4-2.1,2.8c0,0.9,0.6,1,1.4,0.3s1.4-0.9,5.4-1.1c3.3-0.1,4-0.4,4.9-2c1-1.5-0.6-2.2-5.1-2.2l-2.5,0L260.5,230.4
		 M353.1,229.3c-1.4,0.7-1.8,1.3-2.4,3.8c-0.6,2.5-1.3,3.6-2.8,4.3c-3.4,1.7-4.6,3.9-3.8,7c0.6,2,0.6,2.4,0.4,4
		c-0.3,1.9-1.4,3-4.7,4.3c-3.3,1.3-5.2,3.5-6,6.9c-0.7,2.6-0.2,10.6,0.6,9.8c0.3-0.3,0.6-3.5,0.5-5.3c-0.4-4.7,1.6-8.3,5.5-9.7
		c6-2.2,7.7-5.1,5.6-9.6c-1.4-3-0.3-6,2.2-6c1.7,0,4.9-2.6,5.4-4.5c0.6-2.2,0.1-2.1-1,0.1c-0.4,0.8-1.1,1.8-1.6,2.3
		c-1,0.9-1.5,0.9-0.7-0.1c0.3-0.3,0.9-1.4,1.3-2.4c0.4-1.1,1.1-2.1,1.6-2.6c0.9-0.8,1.4-0.9,4.2-1.2c1.7-0.2,2.3-0.5,2.3-1.3
		c0-0.4-0.1-0.5-0.6-0.4c-1.3,0.4-2.8,0.5-3.9,0.2C354.4,228.8,354,228.9,353.1,229.3 M356.9,232.1c-1.9,0.3-2.5,5.3-0.9,8.2
		c0.9,1.6,0.9,1.8,0.5,4c-0.1,0.3-0.1,0.6-0.1,0.7c-0.1,0.6-2.2,2.5-4,3.4c-3.1,1.7-4.7,3.7-5.8,7.2c-0.6,1.8,0,3.6,0.6,1.9
		c1.5-4.2,3-6.2,5.8-7.5c2.8-1.3,4.4-2.7,5.4-4.9c0.8-1.7,0.8-1.9,0.6-5.7c-0.1-2.2,0.3-2.8,1.7-3.2c0.9-0.2,1.1-0.8,0.3-1.1
		c-0.8-0.3-2.7,0.7-3,1.5c-0.1,0.3-0.2,2-0.1,3.6c0.2,3.5,0,3.6-0.7,0.4c-1.1-4.8-0.5-7.1,2-7.4c1.3-0.2,1.3-0.2,0.6-0.5
		C359,232.3,357.7,232,356.9,232.1 M54.6,233.1c-0.1,0.2,0,0.8,0.1,1.3c0.7,2.2,1.2,7.9,0.9,9.8c-0.2,1-0.2,2-0.2,2.3
		c0.2,0.6-1.5,6.6-3.2,11.2c-4,10.8-1.3,23.6,6.5,30.8c1.7,1.6,1.8,0.9,0.1-1.3c-5.8-8-6.6-16.6-2.7-29.7c0.9-3,1.1-4.1,1.1-5.9
		c0-1.2,0.2-3.1,0.4-4.1c1.1-4.9,0.2-11.8-1.8-14C55.1,232.6,54.8,232.6,54.6,233.1 M23.1,233.3c-1.2,1.5-2,4.7-1.2,4.7
		c0.1,0,0.8,0.5,1.5,1c0.7,0.6,2.6,1.6,4.1,2.3c5.4,2.4,5.8,2.7,7.2,5.1c2.6,4.4,3.7,8.5,4.3,16l0.3,4.5l0.3-2.3
		c1.1-7.5-1.1-18.7-4.5-23.1c-0.6-0.8-1.5-2.1-2-2.8c-1.1-1.6-2.3-2.3-5.3-2.9l-2.2-0.4l-0.3,0.9c-0.6,1.7-1,1-0.5-0.8
		c0.5-1.6-0.1-2.4-1-1.4l-0.7,0.8l0.2-1C23.6,232.9,23.5,232.8,23.1,233.3 M196.9,234.8c-0.5,0.5-2.1,2-3.7,3.4
		c-3.5,3.1-3.7,4.2-0.6,4.2c1.7,0,3.2,0.2,3.2,0.5c0,0.1-1.6,2.1-3.6,4.4c-3.5,4.1-4.1,4.9-3.1,4.9c0.5,0,9.7-9.3,11.1-11.2
		c0.8-1.1,0.8-1.2,0.9-0.5c0.1,0.5-0.2,1.1-1.1,2.1c-4.2,5-7.4,9.6-6.8,10c0.6,0.3,10.6-10.3,10.3-10.9c-0.2-0.2-0.9-1.4-1.6-2.4
		c-1.6-2.4-1.6-2.4-2.8-0.7c-1.3,1.8-1.4,1.9-2.9,1.7l-1.3-0.2l2-2.5c1.8-2.3,2-2.6,1.7-3.2C198.1,233.6,197.9,233.6,196.9,234.8
		 M347.2,235.6c-1.8,1.7-5,3.9-5.3,3.6c-0.1-0.1,0.6-0.8,1.4-1.6l1.6-1.4l-1.5,0.5c-6.9,2.6-8.5,5.3-5.4,8.9l0.9,1l-0.4-1
		c-0.2-0.6-0.4-1.3-0.4-1.7c0-0.6,0.1-0.6,0.2-0.2c0.1,0.3,0.6,1.3,1.1,2.2c0.5,0.9,1.1,2.1,1.3,2.7l0.3,1l0-1.2
		c0-0.9-0.2-1.5-0.8-2.5c-0.9-1.4-1.1-2.9-0.4-3.5c0.3-0.3,0.4-0.2,0.6,0.8c0.1,0.7,0.5,1.9,0.8,2.8c0.4,0.9,0.7,1.8,0.7,2.1
		c0,0.7,0.3,0.9,0.7,0.6c0.5-0.4,0.5-1.8-0.1-3.7c-0.7-2.7,0.4-4.9,3.8-7.9c1.5-1.3,3-3,2.6-3C349,234.1,348.2,234.8,347.2,235.6
		 M187.5,235.9c-0.8,0.7-1.8,1.6-2.3,1.9c-0.5,0.4-1.4,1-1.9,1.5c-0.5,0.5-1.8,1.6-3,2.4c-2.5,1.9-5.7,4.5-10.1,8
		c-1.9,1.5-4.7,3.8-6.4,5c-3.1,2.3-7.7,6.2-8.3,7.1c-0.2,0.3-1.3,1.2-2.4,2c-1.1,0.9-2.8,2.2-3.7,3.1c-0.9,0.8-2.9,2.2-4.3,3
		c-4.7,2.8-9.6,6.6-14.9,11.4c-0.2,0.1-0.9,0.8-1.7,1.5c-0.8,0.7-2,1.7-2.8,2.4c-0.7,0.7-2.3,2-3.3,2.9c-5.7,5-15.3,16.9-21,26.3
		c-2.2,3.6-6.6,14-8.1,19.2c-0.3,1.1-1.1,3.6-1.7,5.6c-3.3,10.2-4.6,34.6-2.3,40.8c0.1,0.3,0.4,1.7,0.5,3.1c0.3,2.5,0.6,3.5,1.1,3.5
		c0.6,0,0.6-1,0.2-6.9c-0.5-7.4-0.6-11.7-0.1-16.5c0.2-2,0.5-4.8,0.6-6.2c1-15.3,9-36.2,18.6-48.9c3.2-4.3,4.3-5.6,5.4-6.9
		c0.6-0.7,1.8-2.2,2.5-3.2c2-2.7,2.9-3.6,6.4-6.6c1.7-1.5,3.1-2.8,3.2-2.9c0.1-0.1,1.3-1.1,2.8-2.4c1.5-1.2,3.4-2.9,4.3-3.7
		c1.3-1.3,3.3-3,5.8-4.9c0.2-0.2,1.4-1,2.5-1.9c2.7-2,3.2-2.5,8.8-7.6c4.8-4.4,8.3-7.5,15.9-13.8c4.1-3.4,7-6,16.4-14.3
		c2.2-2,5.2-5.2,4.8-5.2C188.9,234.6,188.2,235.2,187.5,235.9 M253.9,236.5c-1.2,1.2-2.7,3.4-2.7,3.8c0,0.9,1.2,1.5,2.3,1.2
		c0.8-0.2,1.5-0.2,2.8,0c2.9,0.5,3.2,0.4,4.8-0.9c1.6-1.4,2.4-1.8,3.3-1.6c1,0.2,1.3-0.1,0.7-0.7c-1.1-1.2-4.8-2.5-8.2-2.7l-2.1-0.2
		L253.9,236.5 M247.9,235.9c-0.2,0.3,0.5,1.6,0.8,1.6c0.7,0,2-1.3,1.5-1.6C249.6,235.6,248.1,235.6,247.9,235.9 M123.1,237.5
		c-0.9,0.9-1.9,2.7-2.1,3.6c-0.3,1.1,2.6,3.7,5.9,5.4l2.4,1.2l5.1,0.2c6.7,0.3,7.5,0.3,7.2,0c-0.3-0.3-3.4-0.8-4.8-0.8
		c-1.2,0-6.1-1.2-6.6-1.6c-0.2-0.1-1.1-0.7-2.2-1.2c-2.4-1.2-3.2-2-1.3-1.2c1.5,0.6,9,2.4,9.8,2.4c0.8,0,0.2-0.5-0.5-0.5
		c-0.4,0-1.6-0.4-2.7-0.9c-1.1-0.5-2.6-1.1-3.3-1.4c-1.2-0.4-1.9-1.2-0.8-0.8c6.8,2.1,16,3.1,17.9,1.9c0.1-0.1,1.4-0.2,2.8-0.4
		c3.2-0.4,8.7-1.5,9.1-1.9c0.3-0.3-0.5-0.2-4.8,0.6c-3,0.6-14.5,1.1-12.4,0.5c0.8-0.2,0.7-0.2-0.6-0.1c-0.9,0.1-1.5,0-1.4-0.1
		c0.1-0.1-0.1-0.3-0.5-0.3c-0.3,0,1.9-0.1,5-0.2c4.1-0.1,6.3-0.3,8.1-0.8c1.4-0.3,3.2-0.7,4-0.8c1.8-0.3,5.1-1.3,5.4-1.6
		c0.5-0.5-0.2-0.6-1.4-0.2c-1.2,0.4-2.4,0.6-6.9,1.3c-1.2,0.2-3.3,0.5-4.8,0.7c-3.8,0.6-8.1,0.5-13.1-0.1c-3.7-0.5-5-0.8-7.7-1.6
		c-0.3-0.1-1.2-0.6-1.9-1C124.3,236.5,124,236.5,123.1,237.5 M68.4,239.1c-1.1,2.8-2.5,8.8-2.1,9.2c0.1,0.1,0.2-0.1,0.2-0.4
		c0-0.3,0.7-2.7,1.5-5.4C69.5,237.3,69.7,236,68.4,239.1 M350.3,239c-1.8,0.8-2.7,2.9-2.4,5.8c0.3,3.1,1,3.8,1,0.9
		c0-2,0.3-3.4,0.9-4.2c0.4-0.5,0.4-0.4,0.1,0.4c-0.5,1.9-0.3,2.4,0.4,1.1c1-1.6,1.6-1.5,2.1,0.2c0.4,1.4,0.2,2.3-0.8,3.5
		c-0.5,0.6-0.2,1.1,0.5,0.7c1-0.6,1.3-1.8,1.3-4.9v-2.9l-0.9-0.4C351.3,238.5,351.4,238.5,350.3,239 M365.4,240.3
		c-0.5,0.5-1.6,1.7-2.4,2.7c-0.8,1-2.4,2.6-3.6,3.5c-10.6,8.4-16.9,19.5-17.3,30.6l-0.1,2.3l1.3,1.4c0.7,0.8,1.8,2.2,2.4,3.2
		c2,3.3,2.3,2.9,2.2-3.2c-0.1-5.8,0.1-6.5,2.1-11.1c4-9.1,5.8-12.4,8.7-15.6c1.1-1.3,2.5-2.8,3.1-3.5s2.1-2.3,3.3-3.6
		c1.3-1.3,2.5-2.8,2.7-3.3c0.4-0.8,1-1.2,1-0.7c0,0.5-3.1,5-6.7,9.7c-4.8,6.4-5.7,7.7-7.2,10.7c-3,6.2-5.5,19-3.9,20.4
		c0.4,0.3,0.5,0.3,0.5,0c0.3-1,0.7-3.7,0.7-4.7c0-2.8,2.4-10.5,4.6-14.7c1.5-2.9,2.4-4.2,8.2-11.4c6.6-8.1,7.6-9.8,7.1-12.1
		c-0.3-1.3-1-1.6-2.9-1.4c-0.9,0.1-1.8,0.1-2,0C366.5,239.3,366.4,239.3,365.4,240.3 M163.3,242.3c-2.5,0.4-7.9,2.5-10.3,4
		c-1.7,1.1-5.5,2.7-10.9,4.6c-10.9,4-19.1,3.7-23.2-0.8c-1.6-1.7-2.1-1.2-0.7,0.7c3.3,4.5,10.6,5.1,21.6,1.8
		c1.7-0.5,3.1-0.9,3.2-0.8c0.1,0.1,0,0.1-0.2,0.1c-0.2,0-0.3,0.1-0.2,0.3c0.1,0.2,0,0.2-0.3,0.1c-0.3-0.1-0.4-0.1-0.3,0.1
		c0.1,0.2,0,0.3-0.2,0.2c-0.3-0.1-4.8,1.2-7,2.1c-0.8,0.3-4.9,1.2-6.7,1.5c-1.4,0.2-1.4,0.2-0.7,0.4c1,0.3,2.2,0.1,6.9-0.9
		c6.3-1.3,7.3-1.7,14.1-4.9c4.3-2,4.8-2.2,2.2-0.6c-6.4,3.8-9.3,4.9-16.3,6.6c-6.1,1.5-7.3,1.5-12,0.7c-1.9-0.3,0.1,0.4,2.2,0.8
		c2.6,0.6,7.1,0.3,10.7-0.7c2.3-0.6,2.7-0.5,0.9,0.2c-5.3,2.4-13.5,2.9-17.2,1.2c-3.6-1.7-6.9-5.9-7.4-9.5c-0.3-2.1-1-2-1,0.2
		c0.1,3.3,2.9,7.8,6.3,10c2.1,1.4,1.1,1.4-1.7-0.1c-2.9-1.5-4-2.6-5.4-5.4c-1.6-3.4-2.1-3.2-0.9,0.4c1.9,5.6,8.1,9,15.6,8.4l1.8-0.1
		l-1.2,0.5c-2.1,0.9-7.9,1.1-10.4,0.3c-0.5-0.2-0.6-0.1-0.5,0.3c0.1,0.8,1.2,1.2,4.3,1.5c4.4,0.5,6.8-0.3,15.5-5.1
		c2.3-1.3,6.8-3.6,9.9-5.2c5.6-2.8,12.3-6.9,16.3-10c2.2-1.7,4.1-3.3,3.9-3.2C164,242.1,163.6,242.2,163.3,242.3 M64.3,249.1
		c-2.7,10.7,1.4,21,11.3,28.4c2.3,1.7,9.6,4.9,11.3,4.8c0.6,0,0.5-0.1-0.3-0.4c-2.4-0.9-7.4-3.7-9.4-5.3c-1.5-1.2-1-1.2,0.6,0
		c3.3,2.2,9,4.7,11.9,5c1.2,0.2,1,0.1-1.6-1c-10.9-4.5-18.1-13.9-19.2-24.8c-0.3-3.4-0.9-4.9-0.6-1.8c0.3,4.4,2.5,12,4.3,15.5
		c0.9,1.7,1,2.1,0.5,1.5c-1.9-2.2-3.4-5.8-4.8-11.2c-1-3.8-1.1-3.5-0.5,0.8c0.4,3,0.7,3.7,2.1,6.9c0.6,1.4,0.8,1.9,0.4,1.5
		c-1.1-1.3-2-3.1-3.1-6c-1.2-3.1-1.5-3.1-0.6,0c0.6,2.2,0.7,2.7,0.1,1.7c-1.7-3.1-2.5-9.9-1.9-15.1
		C65.6,244.8,65.5,244.7,64.3,249.1 M164.6,249.3c-2,1.3-4.5,2.9-5.6,3.5c-1.1,0.6-3.5,2-5.4,3c-6,3.5-17.1,9.6-19.7,10.9
		c-6.9,3.4-13,6.8-18.1,10.1c-1.8,1.2-3.5,2.2-3.7,2.3c-0.4,0.2-4.5,2.8-6.7,4.4c-11.2,8-17.9,14.4-26.9,25.7
		c-1.1,1.4-2,2.7-1.9,2.8c0.1,0.1,0,0.2-0.2,0.1c-0.2,0-0.4,0.2-0.4,0.5c0,0.5-3.2,5.4-3.5,5.4c-0.2,0,0-0.3,1-1.7
		c1-1.4,1.1-1.7,1-1.7c-0.4,0-4.6,6.3-7.4,11.3c-1.5,2.7-0.4,1.4,1.5-1.7c1.7-2.8,2.8-4.3,1.9-2.4c-1,2,0.4,3,1.8,1.3
		c0.7-0.8,0.6-0.6-0.4,1.2c-0.6,1.2-1.7,3.2-2.3,4.5s-1.8,3.5-2.6,4.9c-2,3.6-3.9,10.8-3.1,12.1c0.3,0.5,1.8-0.8,2.4-2.1
		c0.3-0.7,0.7-1.5,0.9-1.7s1.1-2,2.2-3.9c1-1.9,2.8-4.8,3.8-6.5c1.1-1.7,2.4-3.9,3-5c1.8-3.2,1.7-2.5-0.4,2.1
		c-1.1,2.4-2.3,5.1-2.7,5.9c-0.4,0.9-1.6,3.4-2.6,5.6c-2.1,4.2-3.4,7.6-4.4,10.7c-0.3,1-1.2,3.8-1.9,6.3l-1.4,4.4l0.1,3.5
		c0.1,1.9,0.3,3.7,0.4,4c0.2,0.3,0.3,0.4,0.3,0.1c0-0.2,0.4-1.4,0.9-2.7s1.3-3.5,1.8-5c2.2-6.9,5.6-15.4,7.2-17.7
		c0.6-0.8,1.4-2.2,1.8-3c1-1.9,1-1.9,0.4,0.7c-0.7,3.1-1.6,9.2-3.2,21.9c-0.3,2.3-0.7,4.7-0.8,5.2c-0.1,0.5-0.3,2.3-0.3,4l0,3.1
		l3.4,1.5c4.7,2,4.2,2.4,4.4-3.4c0.8-22.2,4.9-42.6,10.8-54.5c5.3-10.5,9.3-15.9,17.7-24.2c9.2-9.1,13.8-13.1,19.7-17.3
		c3-2.1,8.5-6,10.7-7.4c1.2-0.8,3.7-2.6,5.5-4c1.8-1.3,4.5-3.3,6-4.3c4.8-3.3,19.9-15.5,18.9-15.4
		C168.2,246.9,166.6,248,164.6,249.3 M202.9,251.9c-6.8,7.2-15.1,15.2-20.9,20.1c-4.3,3.6-15.9,15.1-19.1,19.1
		c-6.7,8.2-8.1,10-9.3,11.8c-4.3,6.4-12.2,21.9-15.3,29.9c-1.6,4.1-2.6,7.5-3.8,12.4c-1.5,6-1.6,6.8-2.8,18.9
		c-0.5,5-0.5,14,0.1,16.8c0.2,1.3,0.5,3.4,0.6,4.7c0.2,2.2,0.5,3.1,1,2.8c0.6-0.4,0.7-1.6,0.5-6.3c-0.5-8.6-0.4-11.2,0.7-19.1
		c2.7-19.3,5.8-28.4,15.6-46.5c3-5.6,6.9-12.2,7.5-12.7c0.1-0.1,0.6-0.8,1.2-1.6c2.4-3.3,6.2-8,8.7-10.5c1.4-1.5,4.1-4.3,6-6.3
		c1.9-2,8.1-8.3,13.8-14c5.7-5.7,11.1-11.4,12-12.5c3.4-4.3,9-11.9,8.7-11.9C207.7,246.9,205.5,249.1,202.9,251.9 M372.5,247.6
		c-0.4,1.9,0.5,3.8,2.9,5.5c1.7,1.3,1.8,1.8,0.5,6.2c-0.6,2.1-0.5,3.4,0.2,2c1.2-2.7,1.8-6.4,1.3-8.5c-0.2-1-2.4-3.7-3.1-3.7
		c-0.3,0,0.7,2,1.4,2.9c0.8,1.1,0.6,1.5-0.3,0.6c-1.2-1.1-1.8-2.2-2.3-4C372.7,246.8,372.7,246.8,372.5,247.6 M34.2,249.2
		c0,0.4,0.2,2.2,0.4,3.9c0.2,1.8,0.5,6.9,0.6,11.3c0.3,8.3,0.5,10.3,1.6,13.3c1.4,4,3,5.3,1.8,1.4c-1.1-3.6-1.2-4.7-1.5-13.6
		c-0.2-9.1-0.7-13.4-1.8-16.1C34.9,248.3,34.2,248.1,34.2,249.2 M366.6,253.5c-0.9,1-1.9,2.3-2.3,3c-0.4,0.7-1.4,2.2-2.2,3.4
		c-2,3-3.9,9.3-4.6,15.7c-0.4,3.6-0.9,4.9-2.7,8.4c-1.6,3-1.7,3.5-0.8,3.5c2.3,0,10.5-16.2,11.9-23.3c0.2-1.2,0.6-3.2,0.8-4.5
		c0.2-1.3,0.8-3.5,1.3-4.9C369,251.4,368.7,251.1,366.6,253.5 M165.5,260.7l-8.5,8.5l0,5.6c0,3.1,0.1,5.8,0.2,5.9
		c0.6,1,2.4-0.2,5.3-3.7c1.9-2.2,2-2.2,2,0.3v1.9l-3.2,3.4c-1.8,1.9-3.2,3.5-3.2,3.7c0,0.9,1,0.4,3.1-1.4c1.2-1.1,3-2.5,3.8-3.2
		c2-1.7,2.1-2,1.7-5.8c-0.6-4.6-0.3-4.9,2.8-3.3c2.6,1.4,3.3,1.3,4.7-0.6c1.3-1.8,5.2-6.5,8.6-10.2c3.3-3.6,3.9-4.5,3.2-4.5
		c-0.7,0-2.8,1.9-8.3,7.5l-6.1,6.1l-1.1-0.6c-0.6-0.3-1.2-0.6-1.3-0.7c-0.1-0.1,0.6-0.9,1.5-1.8c2.9-2.9,6.7-7.5,6.7-8
		c0-1-1-0.4-3.5,2.1c-1.4,1.4-4.9,5-7.8,7.9c-2.9,2.9-5.5,5.6-5.8,5.9l-0.6,0.5l0.4-0.5c2-2.8,6.2-8.4,7.6-9.9c0.9-1,2.5-3,3.6-4.4
		s2.1-2.7,2.3-2.9c0.5-0.4,0.5-1.3,0-1.3c-0.4,0-3.3,2.9-4.7,4.7c-0.5,0.6-1.8,2-2.9,3.2c-1.1,1.2-2.9,3.2-4,4.5
		c-1.9,2.3-2,2.3-2.2,1.6c-0.2-0.6,0-1,2-3.3c1.2-1.4,2.9-3.3,3.6-4.3s2.4-2.8,3.7-4.1c2-2.1,5.6-6.8,5.6-7.2
		C174.7,251.7,172.9,253.3,165.5,260.7 M371.4,255.6c-0.4,0.8-0.8,1.8-1,2.1c-0.4,0.7-1.3,4.1-1.3,4.8c0,1.5-2.2,7-4.1,10.3
		c-1.1,1.9-2.4,4.3-2.8,5.2c-1.2,2.4-3.3,6.2-4.7,8.3l-1.1,1.8l1.3,1.3l1.3,1.3l1.1-2.2c0.6-1.2,1.1-2.4,1.1-2.7
		c0-0.3,0.6-1.3,1.3-2.4c1.8-2.8,6.4-12.4,7.1-15c0.7-2.6,2-8.8,2-10c0-0.4,0.2-1.5,0.5-2.3C373,253.5,372.4,253.1,371.4,255.6
		 M283.1,259.1c-1.4,1.2-1.5,3-0.1,5c1.3,1.8,1.5,1.9,1.7,0.7c0.2-1.2,0.7-1.9,1.8-2.4c1.1-0.5,0.7-3.5-0.5-3.5
		c-0.2,0-0.8-0.1-1.4-0.1C283.9,258.6,283.5,258.7,283.1,259.1 M384.9,260c0,0.1,0.3,0.6,0.6,1.3c0.9,1.7,1.4,3.7,0.9,4
		c-0.6,0.4-0.5,4.6,0.2,5.5c0.8,1.1,1.3,1.2,0.8,0.1c-0.4-0.8-0.4-1,0-3.2c0.4-1.8,0.4-2.5,0.2-3.4C387.2,263,384.9,259.3,384.9,260
		 M381.3,266.5l0.2,2.3l-1.2,2.5c-1.1,2.3-1.2,2.6-1,3.3c0.4,0.9,0.1,2.5-0.5,4.1c-0.4,0.9-0.4,1.1-0.1,1.1c0.9,0,1.9-2.4,2.4-5.9
		c0.2-1,0.4-1.5,1.7-2.7c2.1-2.1,2.6-4.2,1.4-5.6c-0.7-0.8-0.9-0.5-0.7,1.1c0.1,1.1,0,1.7-0.2,2c-0.3,0.5-0.4,0.4-0.5-1.2
		c-0.1-1.7-0.8-3.4-1.3-3.4C381.2,264.2,381.2,265,381.3,266.5 M74.3,265.6c0.7,3.5,6.2,10.4,10.3,12.7c2.9,1.7,9.2,3.3,12.5,3.2
		l0.9,0l-0.9-0.2c-0.5-0.1-2.2-0.4-3.7-0.7c-3.6-0.6-4.7-1-3-1.1l1.2-0.1l-1.9-0.6c-3.4-1.1-4.6-1.9-8.6-5.5
		c-2.4-2.2-4.2-4.3-5.8-6.9C74.3,264.5,74.1,264.3,74.3,265.6 M376.9,265.3c0.1,0.3,0.4,1.2,0.6,1.9c1,2.7,0,5.7-3.1,10
		c-1,1.4-2,3.1-2.3,3.9c-0.3,0.8-0.5,1.2-0.6,0.9c-0.2-1,0.9-3.5,3-6.7l0.5-0.8l-0.8,0.6c-4.6,3.3-5.3,6.7-2.4,12.4
		c1.6,3.1,1.8,3.8,1.8,5.1c0,1.5,0.1,1.4-2.5,5.1c-0.7,1.1-1,2.7-0.6,3.8c0.3,0.8,0.6,0.4,0.6-0.6c0-1.5,0.3-2.2,2-4
		c0.8-0.9,1.6-2.1,1.8-2.6c0.2-0.5,0.5-1.3,0.8-1.8c0.6-1,0.6-2.3-0.1-5c-0.6-2.5-0.3-5.5,0.7-6.6c0.2-0.3,0.4-0.6,0.3-0.6
		c-0.8-0.8-1.8,2.9-2,7.2c-0.2,3.9-0.5,4-0.9,0.2c-0.1-1.3-0.2-2.1-0.2-1.8c-0.1,1.5-0.6-0.5-0.6-2.5c0-2.7,0.3-3.6,2.7-6.5
		c3.4-4.4,4.2-7.3,2.7-10.3C377.8,264.8,376.6,264.1,376.9,265.3 M274.5,268c0,0.2,4.8,3.6,6.3,4.4c2.3,1.3,3.6,2.3,7.3,6.1
		c1.8,1.9,3.7,3.6,4.1,3.9c1.1,0.8,0.7,1-0.9,0.5c-2.1-0.7-5.2-0.9-10.1-0.8c-4.3,0.1-4.8,0.1-7.7-0.6c-0.4-0.1-0.5-0.1-0.1,0.1
		c0.2,0.1,2,0.6,3.9,1.1c9.7,2.4,13.9,4.4,19,9.3c2.9,2.8,6.5,10.2,7.7,15.8c0.7,3.3,3.5,7.7,5.3,8.1c1.6,0.4,1.9-0.6,0.6-1.8
		c-1.2-1.1-2.6-3.9-3.6-7.2c-0.5-1.5-1.2-3.9-1.8-5.1c-1.1-2.7-1-2.6-0.5-2.6c0.2,0,1.3,1.8,2.6,4.4c1.2,2.4,2.2,4.4,2.3,4.3
		c0.8-0.8-3.5-11.3-6-14.5c-1-1.3-2.4-3.4-2.9-4.5c-1.1-2.2-3.9-6.6-6-9.3c-2.6-3.4-10.4-8.3-17.5-11.2
		C274.5,267.9,274.5,267.9,274.5,268 M291.7,269.2c-0.6,0.2-1.4,2.3-1.1,3.1c0.6,1.9,2.4,4,3.4,4c0.6,0,0.5-0.4-0.4-1.3
		c-1.3-1.4-0.9-2.4,0.9-2.4c2,0,2.6-0.9,1.5-2.2C295.4,269.4,293.2,268.8,291.7,269.2 M43.4,272.5c0.3,4.8,2.1,11.6,4.1,16.2
		c1.6,3.7,1.6,3.9-0.2,2c-1.8-1.9-3.3-4.4-5.1-8.6c-2.3-5.2-2.9-2.9-0.6,2.5c3.5,8.2,10.9,15.4,21.1,20.4c4,2,4.9,2.3,5.2,1.8
		c0.3-0.4-0.6-1.1-3.3-2.7c-10-6-17.3-17-20.7-31.2l-0.6-2.7L43.4,272.5 M383.3,273.9c-0.6,1-0.6,1.2-0.2,1.4c1.1,0.7,1.6,4.1,1,6.3
		c-0.2,0.6-0.2,1.1-0.2,1.1c0.3,0.3,1.5-2.7,1.5-3.5c0-0.5,0.1-0.9,0.3-1c0.3-0.2,0.6,1.3,0.5,2.2c-0.1,1,0.7,1,1.1,0
		c0.6-1.4-0.4-4.5-2-6.6C384.4,272.8,383.9,272.8,383.3,273.9 M389.9,275.1c1.6,3.2,1.3,9.1-0.4,9.1c-0.5,0-1.4,1.1-1.3,1.4
		c0.4,1,2.8-0.8,3.9-2.9c1.5-2.9,1.1-5.5-1.3-7.8C389.6,273.8,389.3,273.8,389.9,275.1 M304.6,274.9c0,1.4,4.6,5.9,8.3,8.2
		c5.2,3.2,8.8,7.5,9.2,10.9c0.3,2,0.8,1.8,0.8-0.3c0-3.7-3.7-9.5-7.2-11.4c-0.4-0.2-1.2-0.8-1.9-1.2c-0.7-0.5-2.1-1.5-3.2-2.2
		c-1.1-0.7-2.8-2-3.7-2.8C305.3,274.7,304.6,274.3,304.6,274.9 M243.4,276.5c-0.6,0.9-1.7,2.6-2.5,3.8c-3.1,4.5-7.1,12.1-10,18.9
		c-0.7,1.6-1.7,3.7-2.2,4.7c-1.7,3.4-6.7,16.2-9.5,24.2c-2.2,6.4-3.4,10.5-4.2,14.8c-0.3,1.6-0.8,4.2-1.1,5.8
		c-0.7,3.7-1.9,16-2.3,22.9c-0.2,4.5,0.1,11,0.5,9.9c0.2-0.4,0.4-2.5,0.5-4.7c0.2-4.7,0.9-12,1.3-12.6c0.1-0.2,0.2-0.9,0.2-1.4
		c0-1.2,1.4-8.1,2.4-12c0.4-1.6,1.3-4.8,1.8-7.1c0.6-2.3,1.2-4.5,1.3-4.9c0.2-0.4,0.9-2.8,1.6-5.3c2.2-7.5,3.9-12.5,6.1-17.5
		c0.6-1.4,1.5-3.7,2-5.1c0.5-1.4,1-2.8,1.2-3.1c0.1-0.3,0.5-1.2,0.8-2c1-2.6,7.6-15.2,8.9-17.1c5.4-8.1,7.6-11.5,7.6-11.7
		c0-0.3-3-2.4-3.4-2.4C244.5,274.9,244,275.6,243.4,276.5 M300,276.7c-0.4,0.6,1.2,3.4,3.2,5.6c1.5,1.7,2.1,2.9,2.9,6.3
		c1.1,4.4,2.7,7.4,5.3,9.5c3.7,3.1,4.7,1.9,1.7-2.1c-1.6-2.2-2.6-4.1-2.8-5.7l-0.2-1.2l1.8,1.3c3.9,2.7,4.8,4,5.3,7.8
		c0.4,2.5,0.8,3.8,1.7,4.7c0.7,0.8,0.8,0.5,0.4-0.8c-0.2-0.7-0.5-3-0.6-5.2c-0.4-7-4.1-11.7-10.7-13.7c-1.9-0.6-5.4-3.5-6.7-5.5
		C300.5,276.5,300.2,276.3,300,276.7 M389.7,278.2c0,2.8-1.1,4.5-5,7.7c-4.4,3.6-5.4,7.3-2.8,11c0.9,1.4,1.1,1.6,0.5,1.3
		c-3.4-2.2-3.6-7.6-0.5-11.1c0.6-0.6,1.2-1.4,1.5-1.7l0.5-0.6l-0.9,0.4c-2.3,1-3.9,3.4-4.3,6.5c-0.4,3.1,0.2,4.3,3.6,7.8
		c5.4,5.3,6.4,9.8,3.7,15.9c-2,4.5-1.2,8.3,2,9.4c2,0.7,2.6,0.2,0.9-0.6c-2.2-1.1-3-4.4-1.7-6.8c4.8-8.6,4.8-14.1-0.3-20.4
		c-2.5-3.1-3-4.6-2.4-7c0.4-1.4,0.2-1.8-0.6-1c-1.6,1.7-0.9,5.3,1.9,9.4c1.3,1.9,2,3.3,2.4,4.7c0.4,1.6,0.2,1.4-0.9-0.6
		c-0.5-1-1.6-2.5-2.3-3.4c-0.7-0.9-1.3-1.7-1.3-1.8c0-0.1-0.4-0.7-0.9-1.2c-2.6-3-0.9-7.5,4.5-11.6c2.6-2,4-5.8,2.6-7.2
		C389.7,277,389.7,277.2,389.7,278.2 M49,280.6c0.4,2.7,4.9,8.8,9,12.4c5.9,5.2,9.4,6.9,15.1,7.7l3.3,0.4l1-1
		c1.4-1.3,1.4-1.4-0.8-1.6c-6.6-0.7-7.5-0.9-10.6-2.4c-6.8-3.4-11-7.2-15.5-14.4C49.2,279.5,48.7,279.2,49,280.6 M334.6,281
		c-1.7,0.5-3.1,2.6-3.1,4.6c0,1.3,1.2,5.6,1.6,5.6c0.5,0,1.4-1.3,1.4-2c0-2.9,5.5-4.6,8.3-2.6c3,2.3,2.4-0.5-0.9-3.6
		C339.8,280.9,337.3,280.2,334.6,281 M258.4,281.7c-0.2,0.4-0.5,1-0.6,1.4c-0.1,0.4-1.5,3.4-3.1,6.7c-4.1,8.4-4.9,10.7-3.8,11.1
		c0.2,0.1,0.4,0.3,0.4,0.4c0,0.1,0.3,0.7,0.6,1.2c0.3,0.5,1,1.7,1.4,2.5l0.8,1.5l-0.7,1.7l-0.7,1.7l-0.9-1.7
		c-2.7-5.3-4.7-6.3-5.2-2.5c-0.1,0.7-0.7,3.5-1.4,6.1c-0.6,2.6-1.2,5-1.3,5.3c-0.2,0.9,0.6,1.5,0.9,0.7c0.5-1.2,2.5-6.5,3-8.2
		c0.7-2.1,0.7-2.1,2.1,0.7c0.6,1.3,1.3,2.4,1.4,2.4c0.2,0-0.9,3.6-1.2,3.9c-0.3,0.3-0.2,1.4,0.2,1.6c0.7,0.3,4-0.4,7.9-1.7
		c2.1-0.7,4.6-1.4,5.6-1.5l1.9-0.3l0.6-1.9c2.3-7.2,3-9.2,4.3-12.7c1.6-4.4,4.5-13.6,4.3-13.8c-0.2-0.2-1.2,1.6-2,3.8
		c-1,2.7-3.2,7.8-5.4,12.4c-1,2-2.1,4.7-2.6,6.1c-0.5,1.4-0.9,2.7-1.1,2.9c-0.2,0.4-3.3,1.5-3.7,1.3c-0.4-0.2,2.4-9.5,5.2-17.4
		c1.8-5.1,1.7-5.1-1,0.2c-1.2,2.4-2.3,4.5-2.4,4.6c-0.3,0.4-2.3,5.3-3.5,8.5c-1.8,5-2,5.4-3.3,6.1c-1.7,0.9-1.7,0.9,0-4.7
		c0.8-2.8,1.9-6.5,2.4-8.4c0.5-1.8,1.4-4.8,2-6.6c1.8-5.6,1.1-4.2-3.2,6.2c-0.5,1.1-0.9,2.1-1,2.1c-0.3,0-2.3-3.6-2.2-4.1
		c0.1-1,1.4-5.2,2.5-8.1c3.7-9.5,3.9-10.1,3.5-10.1C258.9,281,258.6,281.3,258.4,281.7 M129,290.6c-1.8,1.8-4,4.1-4.8,5.2l-1.5,2
		l0.3,1.8c0.7,3.6,2.1,7.3,4.5,11.7c1.6,2.9,1.4,3,4-0.9c3.9-5.8,4.4-6.4,5.8-7c0.7-0.3,1.3-0.5,1.4-0.4c0.1,0.1-1.1,2.7-2.7,5.4
		c-0.5,0.9-1.5,2.7-2.3,4c-1,1.8-1.7,3.4-1,2.5c0-0.1,0.7-0.9,1.4-1.8c3.9-5,5.7-7.5,6.8-9.1c1.9-2.9,3.5-4.5,4.3-4.5
		c0.3,0-0.7,2-2.8,5.2c-1,1.6-3,4.9-4.4,7.3c-4.6,7.9-4.5,7.7-3.6,7.7c0.5,0,2.3-2.5,5.8-7.7c0.9-1.4,2.8-4.1,4.1-6
		c1.3-1.9,3.2-4.8,4.2-6.4c1-1.6,1.9-3,2-3.2c0.2-0.2,0.2-0.5,0.2-0.6c-0.1-0.3-9.4,3.3-11.8,4.6c-0.7,0.4-2.2,0.9-3.2,1.3l-1.8,0.6
		l-1.6,2.4c-0.9,1.3-1.9,3-2.3,3.7c-0.7,1.4-0.7,1.4-1.5-0.1c-0.4-0.7-0.3-0.9,1.4-4.2l1.8-3.5l2.6-1c4.6-1.8,4.6-1.7,5.1-3
		c0.2-0.6,1-2.3,1.8-3.7c1.5-3,1.2-2.8-2.3,1.3c-1.7,2-2,2.2-3.6,2.8c-2.2,0.7-2.2,0.9-0.2-3c1.7-3.4,1.8-4.1,0.5-2.6
		c-1.3,1.4-6.4,8.8-8.2,11.9c-0.9,1.5-1,1.4-1.6-0.9c-0.7-2.8,0.8-6.3,5.1-11.8c1.1-1.4,2-2.6,2-2.7
		C132.9,287,131.9,287.8,129,290.6 M327.9,289.1c-0.4,0.5-1,1.6-1.3,2.6c-0.8,2-1.1,2.4-2.2,2.8c-1.3,0.6-1,1.7,0.5,1.7
		c1.2,0,2.2-0.7,3.5-2.4c0.7-0.9,1.4-1.6,1.7-1.6c0.8,0,1.1-0.6,0.9-2C330.8,288,329.2,287.4,327.9,289.1 M338.8,289.3
		c-3.5,0.9-3.9,1.8-2,3.5c1.5,1.3,1.9,1.4,4.1,0.6c6.1-2.2,10.3,0.1,13.2,7.3c0.9,2.1,1.1,1.6,0.5-1c-0.5-1.8-3.1-6.1-4.8-7.8
		C347.1,289.1,343.1,288.1,338.8,289.3 M348.3,288.9c0,0.1,0.7,0.7,1.5,1.3c0.8,0.6,1.5,1.1,1.5,1.2c0,0.7,2.6,3,3,2.7
		c0.4-0.3,1.5-0.3,2.8,0.1c2.3,0.7-1.1-3.5-3.9-4.8C352.2,288.9,348.3,288.5,348.3,288.9 M280.8,291.8c-1.5,1.7-4.9,9.8-6.6,15.9
		c-1.6,5.7-2.3,8.1-3.2,10.5c-0.4,1.2-1,2.9-1.3,3.9c-0.3,0.9-1,3.3-1.6,5.3c-3.6,12.1-6.2,28.8-4.5,28.8c0.2,0,0.6-1.5,1.2-4.5
		c1.8-9.3,6.1-23.3,10.7-35c0.9-2.4,2.3-6,2.9-7.9c1.5-4.3,4.3-10,6.3-12.8c1.7-2.4,1.7-2.5-0.3-3.6
		C282.6,291.4,281.4,291.2,280.8,291.8 M331.6,292.8c-1.2,1.4-1.9,2.6-2.3,4.3c-1.4,5.4-4.6,10.5-7.7,12.1c-1.3,0.7-2.4,1.8-2.9,3.1
		c-0.3,0.7-0.6,1-0.9,1c-1,0-1.4,0.4-3,2.5c-1.8,2.5-2,2.6-4.1,3.4c-4.1,1.5-6.3,6-4.7,9.3c0.7,1.3,2.1,2.4,3.1,2.4
		c1.2,0,1.3-0.4,0.2-1.2c-1.9-1.4-1-3.4,2.4-5.1c1.1-0.6,2.8-1.7,3.7-2.6l1.7-1.5l1.3,1.3c1.6,1.5,2.5,1.8,3.9,1.2
		c1.4-0.6,1.3-1.2-0.3-1.2c-2,0-3.5-1.6-3.5-3.8v-0.9l0.6,1.1c1,1.9,2.2,2.6,5.4,3c1.3,0.1,1.6,0.1,2.3-0.4c1.2-0.9,1.1-1.3-0.5-1.1
		c-4,0.4-3.7-2.4,0.6-7.4c1-1.1,1.9-2.3,2.1-2.7c2.8-5.3,4.2-8.7,4.2-10.4c0.1-3.4,2.9-4.6,3.8-1.6c0.4,1.3,0.7,1.3,0.9,0.1
		C338.5,294.1,333.7,290.4,331.6,292.8 M339.5,294.7c-1.1,0.4-1.2,0.9-0.8,2.5c0.3,1.2,1,1.5,1.6,0.8c0.9-1.1,4.2-0.6,5.8,0.7
		l0.9,0.8v-0.7C347,296.4,342.2,293.8,339.5,294.7 M345.7,300.7c-1.5,0.3-1.7,1.1-0.5,2.6c0.4,0.6,0.9,1.5,1,2.1
		c0.3,1.6,1.4,1.5,1.4-0.1c0-2,4.3-1.2,5.9,1.1c1.2,1.8,2,1.9,1.6,0.2C353.9,302.8,349.5,300,345.7,300.7 M339.5,302.8
		c-1.1,1.2-1.4,2.1-2,4.9c-1.4,7.1-4.8,16.9-5.5,15.8c-0.3-0.5-1.3,0-1.5,0.7c-0.8,3.2,1.3,7,4,7c1.2,0,1.3-0.4,0.3-1.2
		c-0.9-0.8-0.8-1.5,1.2-5.3c2.6-4.9,3.3-7.6,4-15.7c0.3-2.9,0.6-3.8,1.7-4.5c0.5-0.3,1.9,0.9,2.2,1.9l0.2,0.7l0.4-0.7
		c0.9-1.7,0.1-3.9-1.5-3.9c-0.3,0-0.6-0.1-0.6-0.3C341.9,301.4,340.4,301.8,339.5,302.8 M346.6,310.2c-1.1,1.2-1.7,3.4-2,7
		c-0.1,1.8-0.4,4.6-0.5,6.2c-0.2,1.5-0.4,3.8-0.5,4.9c-0.1,1.6-0.3,2.4-0.8,3.1c-0.8,1.3-0.9,1.3-0.7-0.4c0.2-1.3,0.1-1.3-0.3-1.1
		c-4.4,2.5-2.9,9.6,2.1,9.6c2.5,0,4.5-1.4,3.4-2.5c-0.2-0.2-0.5-0.1-1,0.4c-0.9,1-2.2,1-2.5,0c-0.3-0.9-0.1-1.7,1.3-3.7
		c0.7-1,1.4-2.5,2-4.3l0.8-2.7l0-6.7c0-9,0.6-10.2,3.7-7.4c0.9,0.9,1.3,0.2,0.7-1.4C351.6,309.6,348,308.7,346.6,310.2 M75,313.5
		c-0.3,0.4-0.5,0.8-0.4,0.8c0.1,0,0.4-0.4,0.7-0.8c0.3-0.4,0.5-0.8,0.4-0.8C75.6,312.7,75.3,313.1,75,313.5 M354.5,313.7
		c0,0.2,0.2,0.8,0.4,1.2c0.3,0.7,0.4,2.2,0.5,8.6c0.1,6,0.2,8.2,0.5,9.5c0.2,1,0.5,3.1,0.6,4.9l0.2,3.1l-0.7,0.3
		c-0.6,0.3-0.9,0.2-1.6-0.1c-3.1-1.5-2.3,0.6,0.9,2.3c4.1,2.2,5-0.1,3.7-9.7c-0.4-2.6-0.5-5.5-0.6-10.4c-0.1-7.7-0.1-8.2-1.1-9.1
		C356.3,313.4,354.5,313,354.5,313.7 M233.1,316.9c-0.1,0.4-0.3,0.8-0.3,0.9c0,0.1-0.5,1.8-1.2,3.8c-1.3,4-2.9,10.7-3.2,13.3
		c-0.1,1-0.6,3.8-1.1,6.3c-1.1,5.4-1.1,6.4,0.2,2.5c0.5-1.5,1.4-4.5,2-6.5c0.6-2.1,1.4-4.8,1.7-6c0.3-1.2,0.9-3.3,1.3-4.7
		c0.4-1.3,0.9-2.9,1-3.5l0.2-1.1l0.6,1.2l0.6,1.2l-0.6,3.6c-1.9,11.8-2.1,17.9-0.3,10.9c1.1-4.3,2.8-10.2,2.9-10.2
		c0.1,0,0.7,1,1.3,2.3l1.1,2.3l-0.9,4.3c-1.6,7.5-1.6,7.2,1,6.2c1.4-0.5,14.2-3.6,17.1-4.1c0.8-0.1,1.1-0.4,1.1-1.4
		c0.1-1.2,2.1-11.2,3.2-15.7c0.3-1.2-0.3-0.5-1.1,1.2c-0.7,1.6-1.5,4.1-2.7,8.7c-0.9,3.3-2,5.2-3.1,5.2c-0.6,0-1.6,0.2-2.3,0.4
		c-0.7,0.2-1.4,0.4-1.6,0.4c-0.4,0,1-7.8,1.9-11c1-3.7,0.7-4.1-0.6-0.8c-2.3,5.7-2,5.3-3.3,3.7c-1.1-1.4-1.1-1.4-0.4-5.6
		c0.8-4.8,0.3-4.6-1.5,0.6c-1.7,4.9-1.7,4.5,0.2,7c2.1,2.7,2,2.4,1,4.9l-0.9,2.1l-2.8,0.9c-1.5,0.5-2.8,0.8-2.9,0.8
		c-0.1-0.1,1-5,1.6-7c0.4-1.3-0.3-2.9-5.3-12C233.6,316,233.5,315.8,233.1,316.9 M108.7,323.6c-1.3,2.9-4.5,13-5.4,16.9
		c-1.7,7.5-1.8,8.1-1.3,7.6c0.3-0.3,1.9-4.2,3.4-8.2c0.7-1.8,1.9-4.8,2.7-6.6c0.8-1.8,1.7-3.8,2-4.5c0.7-1.5,0.7-1.5,1.4-0.3
		c0.3,0.5,1.3,2,2.2,3.2c0.9,1.2,1.7,2.3,1.8,2.5c0.1,0.1-0.2,1.9-0.5,3.9c-0.4,2-0.9,4.8-1.1,6.1c-0.2,1.3-0.5,2.9-0.7,3.6
		c-0.3,1.4,0.1,2.1,0.5,0.9c0.3-0.9,4.6-10.8,4.8-11c0.2-0.2,2.3,2.3,5.1,6.1c2.6,3.4,3,3.8,3.8,3.2c0.6-0.4,1.4-4.3,1.9-9.3
		c0.8-7.3,1.2-10.5,1.4-10.9c0.1-0.3,0.1-0.4-0.2-0.1c-0.7,0.6-2.5,5.8-4.4,12.6c-0.4,1.5-0.6,1.5-1.6,0.3c-2.5-3.2-5.8-7.2-6.8-8.2
		c-0.6-0.7-2.6-3-4.4-5.2C109.6,321.2,109.7,321.3,108.7,323.6 M327.8,325.2c-0.3,0.4-0.6,1.3-0.7,2c-0.3,2.2-1,2.7-9.7,6.3
		c-2.8,1.2-3.5,1.3-5,1c-0.6-0.1-0.9-0.4-1-0.8c-0.2-0.8-1.1-0.8-1.3,0c-1.2,4.4,2.7,8.1,6.1,5.8c1.4-1,3.7-2,6.1-2.9
		c1.3-0.5,3.6-1.4,5-2.1c2.5-1.1,2.7-1.2,4.2-1c1.5,0.2,2.3-0.3,1-0.6c-0.7-0.2-2.3-2.3-2.7-3.5c-0.2-0.5-0.5-1.2-0.7-1.4
		c-0.2-0.3-0.4-0.9-0.3-1.6C329,324.2,328.8,324,327.8,325.2 M336.7,335.2c-0.2,0.2-0.3,0.6-0.3,0.9c0,1.1-0.9,1.5-6.7,3.2
		c-3,0.9-6.9,2.6-8,3.4c-1,0.9-1.3,0.9-2.4,0c-0.8-0.7-0.8-0.7-1.1-0.1c-0.5,1-0.3,1.6,1.4,3.4c2,2.1,2.3,2.1,6,0.8
		c3.1-1.1,4.4-2.3,1.8-1.7c-4.2,1-1-1.2,4.7-3.2c5.4-1.9,5.1-1.8,6.4-1.1c1.3,0.6,2.1,0.6,2.2,0c0.1-0.3-0.2-0.5-0.7-0.7
		c-1.1-0.5-1.9-2.1-1.9-3.7C338.2,334.8,337.5,334.3,336.7,335.2 M364.3,336.9c0,12,0.8,15.2,4.4,17.7c0.9,0.6,5.4,2.7,5.9,2.7
		c0.1,0-0.8-0.9-1.9-2.1c-2.5-2.5-4.1-5.4-4.3-7.8c-0.1-1.7,0.2-1.7,1,0.1c1.2,2.7,3.2,5.2,5.7,7.1c2.6,2,4.3,3.7,6.4,6.4
		c0.7,0.9,1.4,1.6,1.4,1.4c0.2-0.5-1.6-3.1-3.9-5.4c-4-4.3-6.6-7.9-7.3-10.4c-0.3-1.2,0.1-0.8,1.4,1.1c0.7,1,3.3,3.9,6,6.6
		c5.4,5.4,6.4,7,7.6,11.4c0.4,1.3,1,3.1,1.4,4c2.7,5.4,2.7,11.1,0,14.1l-0.9,1.1l0.3-1.2c1.8-8.3-6.8-16.6-16.4-15.8
		c-7.2,0.7-7.2,0.7-9.4,0c-2.3-0.7-2.3-0.8,0-1.6c7.3-2.4,10-3.7,9.6-4.3c-0.3-0.4-4,0.2-10.2,1.7c-3.3,0.8-5.3,0.9-7.1,0.3
		c-1.6-0.5-1.4-0.6,2.8-1.1c3.6-0.4,5.5-1,5.9-1.6c0.5-0.9-0.1-0.9-6.4-1c-7.9,0-9.8-0.6-3.8-1.2c8.7-0.8,9.2-1.7,1.1-1.9l-5.5-0.1
		l-1.8-0.9c-1.8-0.8-2.9-1.8-5-3.9c-0.6-0.6-1.1-1-1.1-0.9c-1.5,1.9-1.5,2-0.6,3.1c0.3,0.4,0.8,1.5,1.1,2.3c0.5,1.6,1.3,2.6,3.1,4
		c0.4,0.3,0.9,0.9,1.1,1.3c1,1.9,3.5,3.7,6.2,4.5c0.9,0.3,2,0.8,2.4,1.2c2.2,2,7.5,4.1,12.1,4.7c1.7,0.2,3.5,0.5,4,0.6
		c1.9,0.5,4.4,1.3,6.3,2c1,0.4,2.5,0.7,3.2,0.8c1.3,0,1.3,0.1,3.1,2.2c2.6,3.1,3,5.5,1.4,8.3c-0.7,1.2-0.6,1.9,0.3,1.9
		c1.5,0,5.4-3.3,6.5-5.6c0.3-0.7,0.7-1.3,0.8-1.4c0.8-0.6,0.7-6-0.1-10.1c-1.1-5.6-8.9-19.8-14.9-26.9c-1-1.2-6-5.1-8.2-6.4
		c-0.7-0.4-1.8-1.2-2.3-1.8C364.6,335,364.3,335.1,364.3,336.9 M350.3,343.5c-0.1,0.2,0,0.6,0.2,1c0.4,0.7,0.6,0.7-2.7,1
		c-1.5,0.2-3.9,0.6-5.3,0.9c-7.5,1.6-8.3,1.6-9.7,0.5c-1.5-1.2-1.9-0.6-0.9,1.3c0.9,1.7,2.2,2.3,4.4,1.9c4.5-0.8,16.3-1.4,18.2-1
		c1.8,0.4,3-0.2,3.8-1.8c0.9-1.9,0.8-2.1-1.2-1.9c-1.8,0.2-3.7-0.4-5.4-1.8C350.8,343,350.5,343,350.3,343.5 M228.3,350.8
		c-0.4,1.4-2.7,11.7-3.4,15.7c-0.4,2.1,1.1,1.8,5.5-1.2c1.3-0.8,3.2-2,4.3-2.6l2-1.1l0,6c0,6.1,0.1,7.1,0.7,7.1
		c0.4,0,0.9-2.1,1.6-6.9c0.2-1.5,0.8-4,1.1-5.6l0.7-2.8l2.8-1.6c3.6-2,3.5-2,3.5,0.4c0,1.1,0.2,4.4,0.5,7.4c0.3,3,0.5,7.2,0.5,9.3
		c0,5.3,0.4,4.5,1.1-2.4c1.2-11.4,1.5-21.6,0.6-21.6c-0.7,0-5.5,2.3-8.6,4.1c-1.5,0.9-4.1,2.4-5.8,3.3c-1.6,0.9-3.7,2.2-4.6,2.8
		c-0.9,0.6-1.7,1.1-1.9,1.1c-0.4,0-0.2-5.7,0.2-9.7C229.9,348.5,229.3,347.7,228.3,350.8 M156.5,360.2c-0.1,0.8-0.1,1.5-0.1,1.6
		c0.2,0.2,0.5-2.2,0.4-2.6C156.7,358.9,156.6,359.4,156.5,360.2 M363.1,375.7c-0.2,1,1.5,4.2,2.9,5.4c2.1,1.8,3,0.8,1.2-1.3
		c-0.6-0.6-1.5-1.9-2-2.9C364.1,375.1,363.4,374.7,363.1,375.7 M371,376.5c-0.8,0.5-1.4,2.5-1.2,4.3c0.4,5.4,6.2,9.9,10.3,7.9
		c4.6-2.2,4-7.6-0.8-6.6c-2.1,0.4-2.9,0.2-3.7-1c-0.4-0.5-1-1.2-1.5-1.5c-0.6-0.4-0.8-0.7-0.8-1.4
		C373.1,376.7,372.1,375.8,371,376.5"/>
</g>
</svg>
