<svg xmlns="http://www.w3.org/2000/svg" viewBox="0 0 410 410"><path d="M347.3 23.6c-.2.3-.3 1.1-.3 2.5 0 1.2-.1 2.7-.3 3.5-.2.8-.4 1.8-.4 2.3 0 2.1-3.7 12.9-6.5 19.1-1.7 3.7-2.2 4.4-4.3 6.9-1.9 2.2-3.5 4.5-5.1 7.7L329 68l-.1 4.6c-.1 2.5-.2 4.7-.4 4.9-.1.2-.3 2.8-.3 5.7-.1 4.1-.2 6.1-.6 8.3-.9 4.6-1 7-.5 6.5.4-.4 1.4-4.6 2-8.6.6-3.9 5.6-14 6.9-14 1.6 0 10.6 8.5 12.2 11.4l1.1 2.1-.7.5c-.4.3-2 1.2-3.7 2.1-1.6.9-4 2.2-5.4 2.9-2.9 1.6-2.8 1.5-3.2 4.7-.3 2.8-.2 4.2.9 9 .8 3.6.8 3.6 1.9 1.7 3.9-7.1 7.6-11.2 11.9-13.4 2-1 1.8-1.2 3 3.9 2 8.5 1.4 12.7-2.7 21-2.2 4.3-2.5 5.3-1.6 5.3.9 0 4.2-4.6 5.7-7.9 1.5-3.2 1.7-4 2.9-8.1 1.5-5.2 2-8.7 2-14.2v-4.1l1.1-.6c.9-.5 4.5-1.8 6.8-2.3 2.6-.6 4.5 4.2 4.4 11.2 0 5.3-1.7 11.5-4.1 15.6-.6 1-1 1.9-1 2 0 .2-.5 1-1.2 1.9-2.7 3.6-.4 2.6 2.5-1.1 3.2-4.2 7.1-13 7.8-18 .2-1.2.8-4.7 1.4-7.9 1-5.4 1.5-7.5 3.8-15.3.5-1.8 1.2-4.2 1.5-5.3.3-1.2 1-3.2 1.5-4.4 4.4-11.3 5.2-30.3 1.6-37.3-.2-.4-.4-1.2-.4-1.6 0-.4-.1-.8-.2-.8s-.3-.3-.4-.7c-.1-.4-.4-.7-.6-.7-.5 0-.4 1.4.4 7.2 1 6.7-.6 14.1-4.6 21.6-2.2 4.2-3.4 6.5-4.2 8.6-1.4 3.3-5 8.6-8.3 12.3-1.6 1.7-10 8.5-10.2 8.2 0-.1-.3-.9-.7-1.8-.3-1-1.1-2.7-1.7-3.9l-1-2.2.9-1.6c.5-.9.9-1.6.9-1.7 0-.1.6-1.5 1.4-3.2a57.9 57.9 0 0 0 5.1-15.2c1.2-6.6 1.3-7.5.9-7.9-.8-.8-1.4.2-3 5.8-1 3.5-7.3 10.9-11.3 13.3l-1.8 1-1.9-1.6c-1-.9-2.5-2.3-3.4-3l-1.5-1.4L342 59c3.1-6.2 4.5-10.7 5.7-18.2 1.6-9 1.2-19.3-.4-17.2m-53.8 7.9c-1.7 6.8-1.4 17.7.6 22.9 1.5 3.8 1.7 3.7 2-1.2.4-4.8.4-4.7-.3-7.1a66 66 0 0 1-1.9-12.3c-.1-3.5-.1-3.6-.4-2.3M269 34.6c-.6.6-1.5 2.3-2.2 3.6-.6 1.4-1.5 3-1.8 3.5-2.5 4-3.1 12-1.3 17.8.5 1.6.7 3.1.8 4.9l.1 2.7-.5-1.5c-.3-.8-.5-1.8-.5-2.1 0-1.4-1.3-2.1-1.3-.7 0 .6.5 3.2.8 4.7.3 1.3 2.2 3.4 2.7 3 .3-.3.8-2.3 1.4-5.9.4-2 .3-2.6-.1-5.6-.5-3.6-.6-10.7-.2-12.8.2-1 .3-.6.4 2.7.3 6.1 1.8 11.5 3.6 12.7 1 .7 1.1.4.4-1.3-1.9-4.5-2.5-13.1-1.5-20.4.3-2.1.6-4.3.7-4.8.3-1.6-.3-1.8-1.5-.5m-123.1 3.6c-.4.4-.2 3.3.5 7.5.4 2.3 1 6.8 1.3 10 1 8.2 1.5 10.4 1.9 8.1.5-2.7-.4-12.1-2.2-22.8-.5-2.7-.9-3.4-1.5-2.8m158.4 3.6c0 .2.7 1.5 1.6 3 2.9 4.9 4.7 11.6 4.4 16.2-.3 5.6.4 9.6 1.7 8.4 3.3-2.9 2.8-8.4-1.8-19.9-1.4-3.4-5.9-9.3-5.9-7.7m-174.1 3.9c0 .1.4 1.8.9 3.8.5 2 1.2 5 1.6 6.7 1.7 7.3 5 17.1 5.5 16.6.3-.3-.3-2.8-1.9-7.8-1.5-4.8-2-6.5-3.4-12-1.6-6.2-1.9-7.5-2.4-7.5-.1 0-.3.1-.3.2m154.7 3.1c1.9 5 1 12.7-1.9 15.1-.6.5-1.3 1.1-1.7 1.5s-1.6 1.1-2.7 1.6c-1.6.8-4.5 3-4.5 3.5 0 0 1-.5 2.1-1.3 1.3-.8 3.5-1.9 5.7-2.8 6.4-2.5 6.2-2.2 6-6.8-.1-1.8-.2-3.5-.3-3.9-.1-.4.8.9 2 2.9 2.5 3.9 4 5.8 5 6.2 1 .4 1 .1.1-1-.4-.6-1.2-1.9-1.8-2.9-.6-1-1.6-2.8-2.3-4-.7-1.2-1.8-3.1-2.4-4.3-.6-1.2-1.4-2.4-1.6-2.8-.5-.7-1.9-1.5-1.7-1m-119.6 6.3c-.3 3.4-.8 6.3-1.7 9.3-1 3.6-1.7 7.1-2.5 13.9-1.1 9-1.6 10.4-3.2 9.6-1.1-.6-2.7-5.4-4.4-13-.8-3.5-1.6-5.7-2.1-5.7-.4 0-.8.7-.5 1.1.2.4 1.7 17.6 1.6 17.9-.7 1.1-1.6-.9-5.4-12.6-1.7-5.1-2.4-6.6-3-6.6-.8 0-.5 2.2 1.1 8 1.4 4.9 2.4 8.9 2.9 11.1.3 1.2 1.1 3.6 1.9 5.5.8 1.8 1.8 4.2 2.3 5.2.4 1 .8 1.9.9 1.9 0 0 .4-.4.7-.9 2.2-3.2 6-5.2 8.8-4.4l.9.3-.1-2.8c-.1-1.6 0-3.5.2-4.4.7-3.7.8-4.9 1.2-11.3.6-13.5 1.1-30.4.4-22.1m132.8-1.8c-.1.2 0 .9.1 1.5.5 2.5-.5 6.6-1.6 6.6-1 0-1.1.7-.2 1.3 2.9 1.8 3.3 1.5 3.2-3.3 0-4.4-.8-7.8-1.5-6.1m-112.4 1.8c-1.6 2.5-4.3 8.7-7.1 16.6-.8 2.3-1.8 4.9-2.2 5.7-.4.9-1 2.4-1.3 3.4-.3 1-1.2 2.9-1.9 4.3s-1.2 2.7-1.1 2.8c.3.3.1.5 3.3-6.2 3.8-8.1 3.9-8.4 5.1-11.2.5-1.3 2.1-5 3.5-8.3 2.9-6.8 3.7-10.2 1.7-7.1m32.8 1.3c-3.7 3.9-11.1 13.3-18.7 23.9-1.9 2.6-4.2 5.8-5.1 7.1-1.6 2.3-4.2 6.9-4 7.1.1.1 1.8-2 4.1-5.2 1.4-2 5.1-6.9 9.6-12.6 2.3-3 13.3-16.5 15-18.4 3.6-4.3 2.9-5.8-.9-1.9m55.6 1.5c.3 4.2-.5 6-2.6 6-.6 0-2.6-1.9-2.6-2.5 0-.2-.2-.4-.4-.4-1.1 0 .5 5 1.8 5.9 2.2 1.4 5.1-.8 6-4.4.3-1.3 1.3-1.2 1.3.1 0 .6.7.9.9.4.2-.6-4-7.9-4.5-7.9 0 0 0 1.3.1 2.8m32.7 1.1c-.2.1-.3.6-.3 1.1 0 .6-.2 1.5-.4 2-1.1 2.7-.3 7.4 1.6 9.2.8.7 1.3.4 1-.7-.8-2.9-1-4.5-.9-8 .1-3.7.1-4-1-3.6m-46.6 6.1c-.5 1.3.9 12.7 2 16.2l.5 1.8 1.4.3c2.4.6 2.6.1.8-2.4-1.6-2.3-2.1-4-1.8-6.3.3-2.4.3-2.3-1.3-6.4-1-2.7-1.5-3.6-1.6-3.2m28.5.3c-3.7.8-9.1 2.8-10.9 4-1 .7-1.9 1.2-2 1.2-1.2 0-3.9 3.3-3.9 4.8 0 1.6.1 1.6 1.2.2 2.1-2.8 6.5-5.7 9.8-6.6 1-.2 2.8-.7 4-1.1 2.4-.7 5.9-.9 7.9-.3 2.8.8 7.6 4.1 9.3 6.4.8 1.1 1.2 1.3 1.2.6 0-1.6-5.1-6.2-8.7-7.9-1.8-.9-2.9-1.2-5.9-1.7-.1.1-1.1.2-2 .4m-163.3 1.7c0 .2.2.7.5 1.3.3.6.7 1.6 1 2.3.4 1.2 2.4 5.3 4.6 9.6 1.8 3.4 3.5 7.4 5.5 13.1 3.7 10.3 3.4 9.7 5 8.2 1.4-1.3 2.8-2 4.2-2.3.6-.1 1-.2 1-.3s-.5-1.2-1.2-2.6c-.6-1.4-1.4-3.2-1.8-4-1.7-4.1-2.6-3.5-1.2.9 1.1 3.6 1.1 3.5.5 3.1-1-.8-2.9-4.1-5.8-9.9-1.7-3.4-3.8-7.2-4.6-8.4-.8-1.2-1.8-2.5-2.2-3.1-.4-.5-1.3-2.1-1.9-3.4-1.8-3.3-3.6-5.6-3.6-4.5m188.7 2.1c-2.8 3.9-3.2 5.7-1.8 10 1.3 4 2.7 4.9 1.9 1.2-.5-2.4-.1-7.3.8-8.8.4-.7 1.4 2 1.7 4.8.3 2.5.7 3.4 1.1 2.2.9-3.3-.2-8.9-2-10.2l-.8-.5-.9 1.3m-25.5-.2c-7.3 1.5-13.2 4.5-15.4 7.8-1.3 2-3.2 6.2-3.2 7.2 0 .5 1.7-.1 2.6-.9.9-.8.9-.8.7-.2-.6 2-1.7 2.9-4 2.9-2 0-2.8 1.3-3.4 5.3-.4 3.3.5 8.2 1.7 8.9.8.4.9.2.3-.9-.8-1.5-.7-5.6.2-7.3l.7-1.3h2.4c3.2 0 5-2 4.2-4.6-.1-.4-.2-1-.1-1.4.1-.9.6-1.4.6-.6 0 1 1 3.4 1.7 4 1.5 1.4 3.5.8 6.7-2.2 4.4-4 6.7-5.4 9.4-5.7 1.8-.2 4.8.7 6.1 1.8.7.6.9.7.7.3-.4-.7-2-2.1-3.2-2.9-.5-.3-.8-.6-.6-.6.6-.2 1.5.2 2.9 1.1 1.3.9 1.4.9.9.2-.9-1.2-3.1-3.2-4.2-3.7-.8-.3-.9-.5-.5-.6.9-.2 2.8.8 4.3 2.3 1.2 1.2 1.4 1.3 1 .6-.5-.9-1.9-2.1-4.5-4-1.9-1.4-1.8-1.7.3-.6 2.2 1.2 4.1 2.7 5.2 4 .5.6 1 1 1 .9 0-.6-1.1-2.2-3-4.1-1.2-1.2-2-2.2-1.9-2.2.3 0 2 1.1 3.6 2.4l1.2 1-.7-.9c-3.5-4.7-8.7-7-13.7-6m-21.5.9c-1.1 1.7-2.1 5.5-1.8 6.8.4 1.5 2.8 6.3 3.1 6.3 1.5-.3 2.7-8.4 1.6-10.6-1.1-2.1-1.7-1.3-.9 1.2.4 1.3.5 2.1.4 3.3-.1 1.5-.8 4.6-.9 4 0-.1-.3-1.4-.6-2.8-.6-3-.7-4.7-.1-6.8.6-2.2.2-2.9-.8-1.4m-168.2-.1c-.4.6 13.5 13.3 20.9 19.3 3.3 2.6 6.7 4.6 6.7 3.8 0-.4-.8-1.1-4.8-4.4-1.7-1.4-4.7-4-6.7-5.7l-6-5.1c-1.3-1.1-3.4-2.9-4.7-4.1-3.9-3.6-5.1-4.4-5.4-3.8m94.5 4.4c-2.7 3-6.4 7.8-8.5 10.9-3.1 4.6-4.5 6.4-7.9 10-1.5 1.6-2.8 3.2-2.8 3.5 0 1.5 1.1 3.9 2.4 5.3.7.8 1.4 1.8 1.5 2.1.2.9.3.8 2.1-1.4 3.4-4.3 3.9-6.5.7-3-.8.9-1.6 1.6-1.7 1.5-.8-.7 2.6-7.8 7.5-16.1 3.1-5.1 7.9-13.8 7.7-13.9 0 0-.5.5-1 1.1m-118.9.7c0 .3 7.1 5.4 8.9 6.4.7.4 2.6 1.5 4.1 2.5 1.6 1 3 1.8 3.1 1.8.1 0 0-.2-.2-.3-1.6-1-6.1-4.1-7-4.7-4.5-3.4-8.9-6.2-8.9-5.7M218.9 78c-3.4 2.2-6.1 6-4.4 6 .5 0 6.4-5.9 6.4-6.4s-.9-.4-2 .4m65.8 1.8c-1.9 2.5-4.4 3.4-5.7 2.1l-.6-.6 1.2-.2c2.1-.3 3.3-.7 4.4-1.5 1.4-1 1.6-.9.7.2m6.3 2c-1.8.7-7.9 5.5-8 6.2-.1.5 2.5-.7 4.4-2.1 5.3-4 12.3-2.9 12.2 1.9-.1 1.4.4 1.7.7.6 1.6-4.7-4.1-8.7-9.3-6.6m10.3 2.6c.5 2.8.2 4.6-1 6.1-.4.6-.8 1.3-.7 1.5 0 .3-.3.8-1 1.4-2.2 1.8-8 1-14.6-2.1-2.6-1.2-2.7-1-.4 1.1 2 1.9 1.1 1.8-1.3-.2-1.6-1.3-1.8-.9-.3.8.5.6.9 1.1.8 1.2-.2.2-3.6-2.8-4.8-4.2-.6-.8-1.3-1.5-1.4-1.5-.6 0-1.7 2.4-1.9 4.2-.1 1-.4 2.7-.7 3.8-.3 1.1-.4 2.1-.3 2.2.5.5 1-.3 1.8-3.1.6-2.1.9-2.8 1.1-2.5.1.2.8 1 1.6 1.8 2.5 2.6 2.8 3.5 1.6 4.5-1.3 1-2.8.3-2.8-1.3 0-1.2-.4-1-1.3.9-.9 1.8-1.4 2.2-1.9 1.6-.5-.6-.8-.5-.8.4 0 1.4 1.3 2 2.5 1.3.3-.2 1.7-.7 3-1 3.5-.9 3.9-1.7 2.2-4.8-1-2-1-2 .2-.8 1.5 1.5 2.1 2.9 2.3 5.6.2 2.5-.1 3.3-.7 1.8-.4-1.1-.8-.9-1.1.4-.3 1.1-.7 1-.7 0 0-.6-.2-.7-.9-.5-.3.1-.4.5-.4 1.1 0 1-.6 1.1-.8.1-.1-.7-.9-.7-1.1.1-.3 1.9-.7 2.3-1 .9-.3-1.3-1-.9-1.1.6-.1 1.6-.7 1.6-.8 0-.1-1.1-.4-1.7-.9-1.7-.2 0-.2.7-.1 2.1.1 1.2.1 2.1-.1 2.1-.4 0-1.1-2.7-.8-3.1.2-.3 0-1.3-.4-2 0-.1-.4.2-.8.5s-1 .8-1.2.9c-.4.2-.4.4.5 1.9l1 1.6-.2 2.6c-.2 3.5.3 4.9 1 2.7 2-6.3 15.7-10.4 22.7-6.8 1.9 1 5.8.1 7.2-1.6 1.6-2.1 1.5-4.1-.2-2.3-.6.7-.9.8-.8.5.2-.7-.3-1-1-.6-.5.3-.5.2-.2-.4.5-1-.1-1.4-1-.7-.8.6-2.8 1-2.8.6 0-.1.5-.8 1.1-1.4 2.8-3.2 8.7-3.3 15.1-.3 1.4.7 3.1 1.3 3.7 1.3 1.7.2-6.1-3.7-8.9-4.4-2-.5-2.2-.6-1.5-.8.4-.1 1.1-.1 1.4.1.7.3 3.4.8 4.5.9.4 0 .7-.1.8-.3.2-.6-4.9-2.6-6.5-2.5H305c-.7-.1 1.1-.5 2.5-.5 2.2-.1 1-.9-1.5-1.2l-.8-.1.8-.2c1.6-.4 1.8-1.4.3-1.5-.4 0-.3-.1.3-.3.5-.2.9-.4.9-.5 0-.3-1.2-.6-1.8-.4-.5.2-.4-.2.3-1.9.4-1 .5-3.1.1-2.8-.1.1-.5.9-.8 1.7-.7 1.9-1.4 2.7-1 1.1.4-1.5.3-3.1-.1-3.7-.5-.7-.9-.1-1 1.2v.9l-.4-1.1c-.9-2.6-1.9-3.3-1.5-1m-63.6 3.2c-7.9 3.6-14.4 7.2-26.8 15-3.1 1.9-4.2 2.9-3.4 2.9.5 0 5.1-2.5 8.5-4.6 5.6-3.4 7-4.3 13.4-7.7 8.9-4.9 10.8-6.1 9.5-6.1-.1 0-.7.2-1.2.5M98.3 90.1c-.2.3.3 1.1.8 1.1.6 0 .7-.5.2-.9-.4-.6-.7-.6-1-.2m3.5 1.6c-.1.2 0 .4.3.6.3.2 1.9 1.2 3.6 2.3s4.1 2.6 5.2 3.2c9.7 5.7 13.3 8.3 13 9.4-.1.4-.2 1.2-.3 1.7l-.1.9.4-1.1c.2-.6.4-1.3.4-1.5 0-.3.1-.5.1-.5.5 0 2.6 1.1 6 3.3 2.2 1.4 4 2.5 4.1 2.5.4 0 2.8-5.4 2.5-5.6-.2-.1-1.5-.7-2.9-1.2-5-1.9-6.5-2.6-6.9-3-.2-.2-.6-.4-.7-.3-.2.1-2.1-.8-4.4-2-4.7-2.4-9.3-4.6-9.7-4.6-.1 0-1.7-.7-3.6-1.6-4.6-2.2-6.7-3-7-2.5m99.4 2.7a68.2 68.2 0 0 1-4 3.8c-1 .9-2.9 2.6-4.3 3.9-1.3 1.3-2.5 2.3-2.7 2.3-.1 0-.1-.1.1-.3 1.1-1.1 0-.5-1.7 1-1.1 1-3.1 2.5-4.4 3.4-1.3.9-2.6 1.8-2.8 1.9-1 .7.5 3.9 2.5 5.2 3 2.1 3.5 9.7 1.1 15.8-.3.8-.8 2.2-1.2 3.1l-.6 1.7 1.1-.6c1.6-.8 3.6-.7 7.2.4 4.1 1.3 4.2 1.2 1.1-.6-3.1-1.9-4.9-3.5-5.2-5-.1-.6-.3-1.4-.4-1.8-.1-.5 0-1.2.3-1.9l.4-1.2 3.1-1c1.7-.5 4.5-1.6 6.2-2.3 3.4-1.5 5.3-2.2 9.8-3.8 1.7-.6 3.3-1.2 3.6-1.4.3-.2 2-.8 3.6-1.2 3.7-1 3.8-1.1 1.5-1.1-3.3 0-6.1.4-22.4 3-6.3 1-7.9-.1-6.1-4.2.3-.8 1-1.9 1.5-2.5 1-1.3.9-1.6-.3-.7-2.7 2-1.7.8 1.4-1.7 1.4-1.1 3.1-2.8 4-4.1.9-1.2 3.4-4.3 5.5-6.9 4.6-5.7 4.4-5.5 4.2-5.5.1.1-.9 1.1-2.1 2.3M80.6 96.5c0 1.6 27.6 11.1 33.7 11.6 3.9.4.8-.9-9.7-3.9-10-2.9-13-3.9-20.1-6.8-2.8-1.2-3.9-1.4-3.9-.9m205 4.1c.2.7.3 1.5.3 1.8v.6l-.5-.6c-.4-.4-.5-1-.5-1.9 0-1.6.3-1.6.7.1m2.2.2c.6 1.9.7 2.3.3 2.3-.4 0-.9-1.4-1.2-2.9-.3-1.6.2-1.3.9.6m-125.8-.7c-.3.1-.6.2-.6.3 0 .2 1.5 3.2 1.7 3.4 0 0 .5-.5 1.1-1.3l1-1.4-.6-.5c-.3-.3-.8-.5-.9-.5s-.5 0-.7-.1c-.2.1-.7.1-1 .1m103.7-.1c0 .4.8 2 1.3 2.7 1.3 1.6 4.5.6 4.1-1.3l-.2-.9-.6.7c-.7.8-2.2.5-3.8-.6-.5-.4-.8-.6-.8-.6m25.6 2.9c.4 1-.9.4-1.4-.6-1-2-.9-2.4.2-1.1.6.7 1.1 1.5 1.2 1.7m-134.6-1.4c-.6.4-1.2 1.3-2.4 3.7-1.7 3.5-2 3.9-3.5 4.8-1.4.9-3.3 2.9-3.3 3.6 0 .7.3.6 1.3-.2 1.5-1.3 3.5-1.4 5.2-.4.6.4.8.4 1 0 .3-.5-.2-1.3-1.1-1.7l-.8-.3 1.1-1c.8-.8 1.3-1.7 1.9-3.3 1.1-3 2.2-4.1 3.7-3.9 1.3.2 1.4-.3.3-1.1-1-.8-2.3-.9-3.4-.2m11.5-.2c-1.6.6-5.2 5.1-6.9 8.5-.9 1.8-1.7 2.7-2.3 2.7-.3 0-.8.3-1.2.6-.9.8-.7 1.3.3 1 1.6-.6 3.4-.1 4.1 1.2.3.5.4.6.7.4.4-.3.5-1.5.1-1.7-.4-.3-.3-.9.2-1.4.3-.3 1-1.4 1.6-2.4 1.7-2.8 4.7-5.9 5.8-5.9h.9l-.2-1.1c-.1-1.9-1.4-2.6-3.1-1.9m-14.7 1.3c-.2.3.2.6.5.4.3-.3.2-.6-.1-.6-.1-.1-.3 0-.4.2m-4.3.6c-.7.7.1 2.1 1.3 2.1.3 0 .8.1 1.1.3.6.3 1.3-.1 1.3-.7 0-1.4-2.8-2.6-3.7-1.7m179.8.8c-2 .9-2.4 1.5-2.9 3.9-.6 2.9-2.7 9.5-3.9 12.1-6 13.1-7.6 16-9.8 16.8-4.9 1.9-5.9 2.7-7.8 6.3-1.8 3.5-1.5 3.6 2.6 1.1 1.9-1.1 4.6-2.7 6-3.5l2.6-1.4 1-2.2c.9-2 3.8-6.8 7.9-13.4 3-4.8 6.3-6.9 9.4-5.7.4.2.8.2.9.1.5-.5-1.9-12.1-2.9-14.5-.4-.7-.9-.6-3.1.4m-184.1.4c-1.6.8-2.5 2.3-4.2 7.1-.3.7-.9 1.8-1.4 2.3-.5.5-.9 1.2-.9 1.4 0 .2-.4.6-.8.8-1 .6-1.1 1.4-.2 1.1.9-.3 4.1-.2 5 .3.4.2.9.3 1.1.2.5-.3.1-1.5-.8-1.9l-.8-.3 1.8-4c1-2.2 1.8-4.2 1.8-4.3 0-.4 1.2-.9 2-.9.7 0 .8-.3.3-1.2-.4-1.2-1.4-1.4-2.9-.6m163.3 0c-.1.1-.2.8-.2 1.5 0 5.3-3.4 7.1-15 8-.9.1-1.8.3-2.1.5-.3.2-1.4.4-2.4.5-6.1.5-12.4 4.7-12.4 8.3v.8l.8-1.2c2.3-3.7 6.8-5.8 13.9-6.5 2.1-.2 4.2-.5 4.6-.6.4-.1.7-.1.6.1-.1.1-.9.4-1.7.6-2 .4-2 .5-1.5 1.2.2.4.4.7.3.8-.2.2-1.2-.7-1.2-1.2 0-.4-.5-.5-1-.1-.3.2-.3.4.1 1.2.6 1.2.3 1.6-.4.7-.3-.4-.7-.9-.9-1.2-.8-1-1.5-.3-1.1.9.2.6.3 1.2.2 1.2-.2.2-1.5-1.3-1.5-1.8 0-.3-.2-.3-.7-.2-1 .2-1 .2-.4 1.4 1.3 2.5 1 3.1-.4 1-.5-.8-1-1.6-1.1-1.6-.3-.5-1.1.6-.8 1.1.5.8 1.2 2.9 1 2.9-.1 0-1.8-2-2.3-2.9 0 0-.3 0-.6.2l-.6.3.6.9c2 2.6 1.8 3.7-.2 1.4-1.2-1.3-1.5-1.5-1.8-1.3-.3.3-.3.4.1.6.6.3 1.9 2.5 1.8 2.9-.1.2-.7-.4-1.5-1.2l-1.4-1.5-.4.7c-.5.8-.5.9 0 .9.4 0 1.4 1.9 1.4 2.7 0 .2-.5-.2-1.2-.9-1.1-1.2-1.2-1.2-1.5-.8-.4.8-.4 1 .6 2.4.5.7 1.1 1.9 1.4 2.5.6 1.4.8 1.5 1.2.7.4-.7 2.6-2.1 3.3-2.1.4 0 .3.3-.8 1.3-3.6 3.3-3.3 5.8.7 5.5 2.7-.2 2.6-.2 1.8-1s-.9-1.3-.1-2c1.9-1.7 10.8-5.5 17.4-7.4 5.7-1.6 14.2-7.9 12.4-9.1-.2-.1-.5.1-.7.5-1.2 1.8-3.1 3.5-5.2 4.5-4.2 2-13.4 5.5-13.7 5.2-.2-.2.7-.7 3.4-1.9 6.7-2.8 10.6-5.1 12.5-7.3 1.8-2 1.4-2.5-.6-.9-1.7 1.4-3.8 2.5-5.1 2.8l-.8.2.8-.6c.4-.3 1.2-1 1.6-1.4.5-.4 1.3-1.1 1.8-1.5 1.8-1.3 1.7-2 0-.8s-3.6 2.2-4.1 2.2c-.2 0 .7-.7 1.8-1.6 1.9-1.5 3-2.4 2.7-2.4-.1 0-.9.3-1.9.7-1.9.7-3.6.9-2.2.3.4-.2.6-.4.4-.4-.2 0 0-.4.5-1 1.2-1.4 2.4-4 2.6-5.5.3-1.6-.1-2.9-.8-2.2m-135.5.3c-1.1.7-1.1 2.1-.2 3.2.4.4 1.1 1.2 1.5 1.7 1 1.2 1.6 1 1.8-.3.2-2.6-1.8-5.5-3.1-4.6m115.3 1.5c-.5.5 1.8 6.1 2.7 6.4 1.1.4.6-5.7-.5-6.4-.6-.2-2-.2-2.2 0m-3.9 1c-.3.4 0 3 .4 3.4.4.4 1.9 0 2.1-.6.4-1.3-1.7-3.8-2.5-2.8m-3.1.7c-1.1.7-.4 3.6.9 3.5 1.2-.1 1.3-.7.6-2.2-.7-1.4-1-1.7-1.5-1.3m-2.8 2c-.4.9.3 2.7 1.1 2.8 1.1.2 1.4-1.2.7-2.6-.6-1-1.4-1.1-1.8-.2m8.8.8c-1.1.4-1.4 1.4-.5 2.7.9 1.4 2.4.8 2-.7-.1-.4 0-.8.1-.9 1-.6-.3-1.5-1.6-1.1m-10.9.3c-.2.2-.2.6 0 1.3.3 1.2.3 1.3-.1.6-.9-1.3-1.7-.1-1 1.6.6 1.4 1.6 1.4 1.6.1 0-.7.1-.8.4-.5.5.4 1.4-.7 1.2-1.5-.6-1.8-1.5-2.4-2.1-1.6m33.9.6c-.1.3-.2.6-.3.7-.1.1 0 .2.2.1.5-.3.9-1.2.6-1.2-.2-.1-.4.1-.5.4m-28 .8c-.4.4-1 .7-1.3.7-1.4-.2-2.3 1.7-1.3 3.1 1 1.5 1.8 1.1 1.8-1 0-1.4.4-1.6 1.1-.4.9 1.6 1.7 1.2 1.9-1.1.2-2.1-.8-2.7-2.2-1.3m-191.4.8c-.6.2-1.2.6-1.2.9 0 .7 6.5 1.2 7.5.5 1.5-1-3.5-2.1-6.3-1.4m82.7.8c-2.4 1.2-7 2.8-8.5 3-2.1.2-2.5 1-.7 1.2 1.5.2 2.7.8 3.9 2 1 1 1.5.8 1.2-.5-.1-.4 0-.6.4-.7.3-.1 1.8-.8 3.4-1.6 4-2 6.4-1.6 4 .7-.9.8-1.1.9-2.7 1.2-1.2.2-4 2-4.7 2.9-.8 1.2-.1 1.4 1.4.5 1.9-1.2 3.6-1.9 4.5-1.9 2 0 4.1-2.7 3.7-4.9-.3-3-2.5-3.7-5.9-1.9m-24 .5c-3 1.5-3.1 1.7-3.1 9.5 0 4.3-.1 7-.4 8.9-.8 4.9-.4 6.6 1.6 7.5 1.6.8 2.4-.2 1.1-1.3-.7-.7-.7-1.8.4-5.8.7-2.8 1.1-5.5 1.3-10.6.3-5.5.7-6.7 2.6-6.7 1.4 0 1.6-.7.4-1.6-.9-.8-2.3-.7-3.9.1m-95.6-.2c-3.4.5-4.4 1-7.9 3.8-4.4 3.6-7.5 7.6-9.2 12-7.9 20.6-7.7 45.2.5 61.7 1.7 3.5 3.5 5.8 4 5.3.1-.1-1-2.4-2.4-5.1-2.4-4.8-4.3-9.4-4.1-10 .1-.2.7.9 1.3 2.2 1.6 3.3 3.4 6.5 3.9 6.6.5.2.4-.6-.4-2.1-.7-1.4-2.6-5.8-4.1-9.4-1.4-3.3-2.1-7.9-2.3-14.8-.2-5.9.2-6.2.7-.5.4 4.3.9 6.7 3.1 13.7 1.3 4.2 1.8 5.2 2.1 4.8.1-.1-.2-1.4-.7-3-2.5-9-4.1-22.4-3.4-28.5.4-2.9.6-1.8.6 3.2.1 6.2 2.2 19 4.7 27.6.5 1.8 1.1 4.1 1.4 5.2 1.2 5.4 5.9 17.3 8.5 21.6 2.2 3.6 3.8 5.9 4.1 5.9.5 0 .6.5-1.9-4.8-1.3-2.6-2.8-6-3.5-7.7-.7-1.7-1.4-3.7-1.7-4.4-.8-2-2.7-8.2-3.4-11.2-.3-1.5-.9-3.8-1.3-5.2-.4-1.4-.9-3.8-1.3-5.3-.3-1.5-.8-3.5-1-4.4-.4-1.4-1-5.2-1.7-10-1.6-10.5-1.3-23.7.6-28.5l.4-.9-.1 1.2c-.7 6.2-.8 12.5-.1 7.7l.4-2.8.1 6.6c.1 3.6.2 6.7.3 6.8.3.3.3.2.3-5.4 0-4.6.5-9 1.2-10.6.3-.6.3-.6.1.2-.1.4-.2 3-.3 5.6-.1 4.7-.1 4.8.2 2.5l.3-2.3v5c0 5.5.4 6.6.7 2.1.2-3.2.8-7.5 1.3-9.7l.4-1.5v2.6c0 3.3.4 3.3 1.4-.1 1.7-5.9 1.9-5.5.5.9-1.2 5.4-1.2 6-.3 3.7 1-2.4 2.2-4.9 2.3-4.8.1.1-.8 3.2-2 6.5-1.6 4.5-.9 3.6 1-1.2.9-2.3 1.8-4.4 2.1-4.7l.4-.5-.2.5c-.7 2.1-.8 2.8-.3 3.2.4.3.4.4-.2 1.4-2.7 4-5.5 11.8-5.4 15.4 0 3.1.4 3.7.6.9.2-3.2 3.9-13.1 4.6-12.4.1.1-.1.6-.4 1.2-3.8 7.5-4.4 14.4-1.7 20.7 1 2.3 1 1.6.1-2.2-2.4-9.6-.9-15.1 6.9-25.7 5-6.7 7.9-14.4 7.4-19.7-.1-1.5 0-1.6 1-.5 1.4 1.7 2 3.4 2.2 6.4l.2 2.8-1.5 1.4c-.8.8-1.5 1.6-1.6 1.9s-.8.9-1.6 1.4c-3.8 2.6-11.4 15-11.3 18.8 0 .4.3-.2.8-1.5.8-2.3 2.4-5.8 2.6-5.7.1.1-.4 1.5-.9 3.2-1.2 3.7-1.7 5.7-.6 2.9 2.9-7.7 9.3-16.5 12.4-16.9.5-.1 1.4-.5 2-.9.6-.4 1.1-.7 1.1-.5 0 .5-3.3 3.7-4.5 4.4-1.9 1.1-1.3 1.2.8.2 1-.5 2.6-1.6 3.4-2.3 1.6-1.4 1.5-1.1-.2 1.2-2.3 3.1-1.1 3.2 1.7.1 1.9-2.1 2.7-2.7 3-2.4.1.1-.5.8-1.2 1.6s-2 2.5-2.9 3.7c-1.7 2.5-1.9 2.6-3.5 1.9-4.4-1.8-7 1.5-9.4 12.1-1.3 5.5-1.3 14.2 0 18.8l.5 1.9-.1-2.7c-.1-1.5-.3-4.3-.4-6.3-.3-3.6-.2-7.7.3-9.2.1-.5.2.4.1 2.4-.1 1.8 0 3.9.1 4.7l.2 1.5.2-2.3c.5-6.1 2.8-14.3 4.9-17.5.9-1.4 1-1.5 3-.8 3.1 1 4.2.5 5.5-2 2.7-5.3 4.9-6.5 7.4-3.9 1 1 2.3 1.5 3.2 1.2.7-.3.5-.8-.9-2.1-.7-.7-1.3-1.2-1.2-1.2.3 0 1.9.9 2.7 1.5l.9.7 1-.7 1-.7-.8-.8c-.4-.4-1.2-1-1.6-1.3-1.7-1-.6-.8 1.4.3 1.9 1 2.1 1.1 2.7.7.9-.6.8-.7-.7-2.1-1.6-1.5-1.4-1.6.7-.2 1.8 1.2 2.4 1 2.4-.5 0-.8-.6-1.4-4.6-4.2l-2-1.4-.5-2.1c-.3-1.2-.6-2.2-.8-2.3-.6-.5-3.9-1.4-4.3-1.2-.7.3-1.2-.3-2.5-2.9-3-6.3-8.5-8.6-17-7.5m223.2.9c-.2.2-.3.6-.3.9 0 .5-.1.6-.6.5-1.2-.2-1.7 1-.9 2.3.9 1.4 1.6 1.4 1.4.1-.3-1.6 0-2.1.8-1.3 1.1 1.3 1.7-.3 1-2.5-.1-.4-1-.4-1.4 0m-146.8.2c-.3.6 2.5 2.6 3.1 2.3.9-.6.3-1.7-1.2-2.1-1.7-.5-1.7-.5-1.9-.2m27.2-.1c-.9.1-2 1.4-2.4 2.8-.2.6-.5 1.9-.8 2.9-.3 1-.9 3.5-1.3 5.7-.5 2.2-1.2 5.3-1.7 6.9-1.3 4.2-1.4 5.8-.5 6.7 1 1 1.6.8 1.5-.6-.1-.8.3-1.9 1.4-4.5 1.9-4.5 2.9-7.8 3.7-11.7.9-4.5 1.4-5.8 2.4-6 1-.2 1.2-1 .4-1.8-.5-.6-1-.6-2.7-.4m-27 3.3c-1.6.7-4.3 1.6-6 1.9-4.1.8-8.8 1.4-12.3 1.6-4 .2-4.9.4-4.7.9.1.4 1.5.6 7 1 4.6.4 5.6.4 13.8.2l5.3-.1v-1.4c0-4.7-.5-5.3-3.1-4.1m50.1.4l-.7.9.7 2.2c.4 1.3.8 3 .8 4.2.2 3.4.7 4.2 1.5 2.3.5-1.2 1-8.2.7-9-.5-1.8-1.9-2-3-.6m-42.7-.3c-1.2.6-1.3 2.6-.3 6.1.3.9.7 1.9.9 2.1.5.6.6 1 1.2 4.9.5 3.1.8 4.4 1.6 6.1.1.3.4 1 .6 1.6.5 1.6 3.2 2.9 4.2 1.9.5-.5.4-1-.3-1.2-1.3-.3-2.7-4.2-3.3-9.4-1-8.2-1.1-10.7-.3-10.7.9 0 1.9 1 1.9 2s.5 1.5.8.9c.6-1 .3-2.7-.8-3.7l-1-1h-2.2c-1.4 0-2.7.2-3 .4m23.2 2.2c-1.4 1.3-1.9 2.4-3.1 6.6-.7 2.3-2.4 7.2-3.5 10.3-.7 1.7-.6 2.7.3 3.7 1 1.1 2.2.6 1.4-.6-.5-.7-.6-1.6-.2-1.8.1-.1.9-1.5 1.7-3.1.8-1.6 2.3-4.3 3.4-5.9 1.1-1.6 2.4-3.8 2.9-4.9 1-2.1 1.2-2.2 1.6-1.3.4.8-.2 2.7-1.5 4.9-2.6 4.3-5.2 9.1-5.2 9.7 0 .6.8.2 1.2-.6.2-.4 1.3-2.1 2.4-3.8 5.9-9.1 6.4-10.4 5-11.8l-1.1-1.1c-2.1-2-3.5-2-5.3-.3m68.7.9c-.7.5-.2 1 1.2 1.2 2.6.3 8.6.2 8.7-.1.2-.8-8.9-1.8-9.9-1.1m106.8 1.2c-.5.2-1.5 1.1-2.3 2-1.4 1.6-7.5 7.4-10.8 10.3-4.1 3.6 3.4-1.3 10.5-6.9 2.1-1.6 4.7-3 5.1-2.7.4.3 1.1-.4 1.1-1.2.1-1.7-1.6-2.4-3.6-1.5m-159.9.1c-2.1.2-4.6 1-6.4 2.1-.9.5-2 2-3.5 4.7-.8 1.4-2.1 3.4-6.1 9.6-2.9 4.4-2.9 4.5-1.8 6.9 2.8 5.9 22.1-5.7 22.1-13.3 0-1.5-.7-8.2-1-8.9-.2-.6-.9-1.4-1.1-1.4 0 .1-1.1.2-2.2.3m161.7 3.6c-1.1.7-8.6 7.9-8.5 8.1.1.1 1.7-1 3.7-2.5 4.1-3 5.7-3.8 7-3.8 1.3 0 1.8-.2 1.8-1 0-1.3-2.4-1.8-4-.8m-35.6.8c-2.3.6-4.5 1.8-4.5 2.4 0 1 4.3.6 5.2-.4.4-.4.9-.8 1.1-.8.8 0 1.5-.7 1.1-1.2-.5-.4-1.1-.5-2.9 0m-99.7.9c-.3.4.2.5 4.7 1.4 4.3.8 7.3 1.5 12.2 2.8 3 .8 7.7 1.5 8.3 1.3.9-.3-.7-.9-10.7-3.6-6.3-1.6-14-2.6-14.5-1.9m137.2 1.4c-2.1 1.4-4 2.9-7.2 5.8-1.1 1 .2.4 2.8-1.3 3.1-2 6.7-3.9 6.9-3.7.1.1-.3.4-.7.8-.8.6-2.5 2-5.7 4.8-4.7 4.2-9.5 10.1-9.9 12.2-.3 1.3.3 1 1.4-.7 1.9-3 13.9-14.7 17.4-16.8 1.3-.8 1.3-1.2.3-1.9-1.5-1.2-2.6-1-5.3.8m18-.9c-.6.1-2.3.4-3.9.8-1.5.3-3.4.7-4.1.8-1.8.2-2.2.5-5.6 3.2-3.5 2.8-3.3 2.4-2.1 3.7 5.1 5.3-1.5 11.8-8.5 8.3l-1.5-.7-1.4 1.6c-3.6 4-5.6 7.7-4.7 9.1.9 1.4 9.8 2.2 14.3 1.2 6.3-1.3 14.9 3.1 17.1 8.8.6 1.6.6 1.7.6 7.9 0 4.9 3.8 17.5 5.8 19 .7.5 1.2.4 1-.1-1.1-2.8-1.2-12-.1-15 1.7-5 6.8-12.3 8.7-12.3.3 0 1.4.7 2.1 1.4 1.4 1.3 1.2.1-.5-3.7-.8-1.8-2.3-1.6-3.9.4l-.7.9 1.3-.6c1.9-.8 2.4-.5.7.4-.8.4-2.1 1.2-2.9 1.7-.8.5-1.5.9-1.5.8-.3-.3 6.8-9.5 7.3-9.5.1 0 .3 1.2.4 2.7.2 2.8 1.1 6.3 1.9 7.2.6.7.6.5.1-1.9-.3-1.5-.6-3.9-.7-7.2l-.2-5-.8-.2c-.6-.1-1 0-1.9.7-3 2.3-5 2.6-6.9 1-1.1-.8-1.1-.9-2.6-.5-5.9 1.2-8.6.1-11.5-5-1.5-2.6-1.8-3-4-4-1.6-.7-1.9-1-1.9-1.5 0-.6 0-.6.7-.3 1.8.9 2.8 1 5.1.4 5.4-1.4 10.3 1 12.4 6 2.8 6.6 9.6 4.9 10-2.6l.1-2.9.6 1.5c1 2.4 1.6 5 2.1 8.3.2 1.7.6 3.3.8 3.6.2.3.4.9.5 1.3.3 1 .8.9 2.2-.4 1.9-1.8 2.4-3.1 1-3.1-.5 0-.8-.4-1.7-1.9-1.1-2.1-1.2-2.3-1.8-7.8-.7-6.8-3-10.2-8.9-13.5-4.5-2.9-7.4-3.6-12.5-3m-265.3.3c-1.9.5.6 1.5 3.8 1.6 4 .1 6.5-.6 5.1-1.6-.4-.2-8-.3-8.9 0m43.3.8c-2.1 3-2.6 5.2-1 4.4.8-.4 1.1-.4 2-.1 1.4.4 1.4.5 1-2.4-.3-2.9-.9-3.4-2-1.9m162.5 1.8c-1.8.2-1.9.3-2.5 1.7-1.1 2.6-1 2.7 2.5 3l1.8.2 1.2-1.2c1-1 1.5-1.2 2.5-1.3 1.6-.2 2.1-.6 1.5-1.1-.7-.7-5-1.5-7-1.3m-163.4 4.7c-1.4 1.5.1 5.6 2.8 7.7 2.4 1.8 3.7.9 1.8-1.3-1.6-2-1.8-2.3-1.6-4.4.4-2.8-1.2-3.8-3-2m123-.4c-3.3.3-6.7 1.7-8.8 3.7-2.1 2-5.4 6.2-5.2 6.7.1.3.6 1.6 1.2 2.9 1.3 2.9 2.3 6.3 2.8 9.7.2 1.4.5 2.5.5 2.6.1.1 1-.7 2.1-1.7s2.6-2.2 3.3-2.7c2.4-1.6 3.3-2.9 4.6-7.3.9-3.1 1.9-5.4 2.5-5.8.3-.2 1.8-2.5 1.8-2.8 0-.1-.3-.3-.6-.4-.9-.3 1.8-.7 3.2-.4 1.2.2 2.8-.4 2.8-1.2-.1-1-7.6-3.5-10.2-3.3m67.2 1c-.5.2-2 .9-3.2 1.5-1.2.6-2.6 1.2-2.9 1.4-.8.3 1.1.1 3.5-.2 2.3-.3 2.4-.1 2.1 4-.3 3.4-.2 4 .3 3.9.5-.2 2.1-9.7 1.8-10.5-.1-.5-.4-.5-1.6-.1m-31.3 1.1c-1 1-2.9 5.3-2.8 6.1.2 1.1.9 1.2 2 .3 1.5-1.2 1.9-1.4 3.6-1.6.8-.1 1.5-.3 1.5-.4 0-.2.6-.8 2.4-2.5.4-.4.9-.7 1.2-.8.9-.3 0-.7-2.8-1.2-1.5-.3-3.1-.6-3.5-.7-.6-.2-.9 0-1.6.8m27.8-.1c-1.1.6-1.3.8-.5.6.4-.1 2-1.2 1.7-1.1-.2 0-.7.2-1.2.5m-210.5 3.4c-2.2 1.2-4.3 2.4-4.8 2.6-1.3.8-4.3 2.4-9.2 4.8-4.3 2.2-5 2.7-3.6 2.7 1.7 0 9-3.1 13.9-6 4.5-2.6 8.8-5.5 8.7-5.9-.1-.6-1.2-.2-5 1.8m170.4 4.2c-6.8 6.5-7.3 7.1-6.8 8 .3.7.3.7 2.2-.6.7-.5 2.3-1.5 3.6-2.3 2.5-1.5 3.1-2.2 4.4-4.5l.8-1.4.8 2.1c.9 2.3 3 6.5 3.3 6.7.5.3.2-3.3-.9-9.8-.5-2.8-.7-3.6-1.1-3.7-.4 0-2.7 2-6.3 5.5m37.8-4.9c-3.1.6-4.7 3.7-5.2 10.1-.1 2 .1 1.7.9-.8.2-.8.6-1.5.8-1.6.5-.1.4 1.9-.1 3.3l-.4 1.1 1.1-1.1c.7-.7 1.1-1.4 1.1-1.8 0-.4.2-.8.4-.8.2-.1.5-.4.6-.7.1-.3.4-.5.8-.5 2 0 3.3-1.5 3.4-3.7 0-1.3.4-1.6.4-.3 0 1 .3 1.9.6 1.8.4-.2.3-2.5-.1-3.3-.9-1.5-2.4-2.1-4.3-1.7m-189.7.8c-1.8 1.7-4.3 3.7-9 7.2-.5.4-2.5 1.7-4.3 3-3.2 2.1-5.1 3.7-4.8 4 .2.2 6.7-3.3 9.9-5.5 3.7-2.5 6-3.7 9-4.7 1.4-.4 2.2-.8 2.1-1-.1-.2-.5-1.1-.9-2.1-.9-2.1-.8-2-2-.9m48.3 1.1c-3.2 3.4-8.8 6.8-12.5 7.5-2.4.5-2.2.7.9 1.4 2.7.6 4.3 1.6 6.9 4.1l2.3 2.3-.4-1.2c-.7-1.8-.7-5.9 0-6.6 1.2-1.3 3-.6 6 2.3 1.2 1.2 2.3 2.2 2.3 2.2s-.6-.9-1.3-2c-2.5-3.5-3-5.8-2.2-10.6.2-1.7.1-1.7-2 .6m27.1-1.4c-4.6.7-7.1 2.1-11 5.9-6.8 6.7-9.2 14.4-8.7 27.8.1 2.6.2 6.7.3 9.1.2 6.3.7 9.2 2.9 16.8.9 3.2 2.6 8.1 3.4 9.8.4.8.7 1.6.7 1.7 0 1.3 4.8 11 7.2 14.6 5.9 8.8 11.3 14.5 20.8 22 10.9 8.7 12.8 9.9 18.5 13.2 6.2 3.5 4.7 2-2.6-2.5-5.7-3.6-7-4.9-17.3-18.3-2.8-3.6-5.1-7.9-8.2-15-.6-1.5-.6-1.5 1.4 1.6 1.6 2.5 3.6 5.2 5 6.8.4.4 2.3 2.4 4.3 4.4 2 2 4 4.1 4.6 4.7 2.8 3.3 6 6.5 8.1 8.3 1.3 1.1 3.1 2.6 4 3.3 1.9 1.6 9.6 6.8 11.5 7.8 1.5.8 8 3.4 8.4 3.4.8 0-.2-.7-3.3-2.3a68.35 68.35 0 0 1-22.4-18.1c-1.6-1.9-3.2-3.8-3.6-4.3-2.5-2.9-4.4-5.2-5.1-6.4-.5-.7-1.5-2.1-2.1-3.1-3.2-4.4-6.1-10.9-8.2-18.1-.1-.2.6.9 1.5 2.5 2.1 4 2.6 4.6 6.4 9.6 1.9 2.4 4.3 5.5 5.4 7 4.8 6.5 8.6 10.5 11.8 12.9.8.6 2.7 2.1 4.1 3.4 4.9 4.3 9.4 7 15.9 9.8l3.3 1.4h3.7c6.5 0 9.5-1.6 12.7-6.7 2.8-4.4 5.6-4.2 8.8.6.8 1.1 2.4 3.4 3.7 5.1 1.3 1.7 2.9 4 3.7 5.1 1.4 2.1 2.1 2.8 2.3 2.6.3-.3-.3-1.4-2.8-5.2-3-4.5-4.8-7.5-6.6-10.8-2.2-4.2-3.1-5.8-4-7.1-.5-.7-1.6-2.8-2.5-4.7-2.1-4.3-2.2-4.3-2.4.4-.3 7.7-3.6 10.5-12.6 10.6-11.4 0-17.2-3.7-29.3-18.7-.5-.6-1.1-1.3-1.2-1.5-.1-.2-.7-.8-1.2-1.5s-1-1.3-1.1-1.3c-.2-.2-2.4-3.6-4-6.2-.8-1.3-1.8-2.8-2.1-3.5-.8-1.3-3.4-5.8-4.8-8.5-1.9-3.5-5.1-12.3-6.9-18.8-3.1-11.4.9-25.5 8.7-30.7 2.1-1.4 5.9-3.3 6.5-3.3.3 0 .5-.1.5-.3 0-.6-8.2 0-9.6.7-5.5 2.8-10 10.7-9.9 17.5 0 1-.1 3.5-.3 5.6-.2 2.8-.2 4.7 0 6.9.3 3.4.3 3.6-.3 2.5-1-2-2-8.6-2.6-18.2-.2-2.7-1.1 3.8-1.2 8.9-.1 5.2-.3 6.3-.8 4.1l-.3-1.1-.1 1.2-.1 1.2-.4-1.3c-2.2-7.9-2.1-15.5.1-22 1.6-4.6 5.8-9.5 8.8-10.2 9.6-2.4 21.5-.7 27.3 4.1 1.3 1.1 2.9 1.8 2.9 1.4 0-.3-.9-1.9-1.6-2.7-.6-.8-4.2-3.3-4.7-3.3-.1 0-.6-.3-1.1-.7-.5-.4-1-.7-1.1-.7-.1 0-.7-.3-1.2-.7-1.1-.8-7-3.8-8.9-4.5-.7-.3-1.6-.6-1.9-.8-2.2-1.6-15.6-3.8-19.1-3.2m64.4.5c-1 .4-2.5 1-3.3 1.2-3.7 1.1-4.6 2.3-5.5 8-.9 5.1 0 5.8 3.3 2.6 2.1-2 2.4-2.6.8-1.8-1.2.6-1 .4.8-.9 2.5-1.9 2.3-2.7-.4-1.5-.8.4-1.5.6-1.5.5 0-1.1 5-6.8 6-6.8.1 0 .2.9.1 2.1l-.2 2.1.8-.8c.8-.8 2.3-4.8 2-5.2-.4-.5-1.1-.3-2.9.5m-118.3 1.7c-1.4 1.4-.5 2.7 1.1 1.7.9-.5 1.1-.5 1.9-.3 1.7.6 1.5-.8-.3-1.6-1.5-.6-1.9-.6-2.7.2m-67.8 0c-.1.2 0 1.1.3 2 .6 2.5.5 2.8-.4.8-1-2-.9-2-1.9-1.1-.7.6-.7.7-.5 1.7.3 1.4 0 1.6-.6.4-.5-1-.7-1.1-1.7-.5-.6.4-.7.5-.5 1.8.2 1.5-.1 1.5-.7.2-.2-.5-.5-.8-.7-.7-.2.1-.7.2-1 .3-.5.1-.6.4-.8 1.2-.3 2.2-1.3 2.4-4.3.6l-2.1-1.2-2.3.4c-3.5.6-4.3 1.4-7.1 7.6-.8 1.8-1.5 3.2-1.5 3.2-.2-.2 1.1-4.7 1.8-6.6 1.4-3.4.1-4-1.4-.7-2.9 6.3-4.2 16.4-3 23.2 1 5.8 1.9 8.3 1.3 3.7-.5-3.7-.3-9.1.4-11.8.7-2.7 1.2-3.1.6-.4-.6 2.4-.8 5.2-.6 7.8.2 3.3.5 3.1.7-.5.1-2.5 1.4-7.9 2.6-11.2.8-2.1.7-1.4-.4 3-1.6 6.7-1.8 10.2-1.1 16.2.8 6.1 3.1 14.7 4.5 16.8.4.5 1 1.8 1.3 2.8.8 2 1.3 3.1 1.7 3.1.3 0 .1-1.1-1.3-5.7-.8-2.7-1.2-4.9-1.4-6.8-.1-1.5-.4-3.5-.5-4.4-.5-2.7-.3-2.5.5.7 1.5 5.9 4 11.5 4.9 11.1.4-.1.2-.7-.9-4-4.8-13.7-4.3-27.5 1.3-35.9 1.2-1.7.7-2.9-.6-1.5-3.5 4-6.5 13.7-7.6 24.2-.3 3.5-1.4-2-1.4-7.1 0-4.8.9-8 3.6-13.7 3.6-7.4 6.7-9 10.9-5.6 2.4 2 5.3 1.2 9.6-2.7 1-1 2.4-2.1 2.9-2.6 1.1-1 1.2-1.7.6-2.7-.2-.3-.7-1.6-1-2.8-.3-1.2-.7-2.4-.8-2.5 0-.6-1.2-.5-1.4-.1m60.8.3c-3 1.4-1.4 5.5 2.2 5.5h1l-.7-.8c-1.3-1.5-.4-3.3 1.3-2.7.8.3 1.1 0 .9-.8-.5-1.2-3.1-1.9-4.7-1.2m168.9.1c-.1.3-.3 2.1-.4 4.1-.1 2-.3 4.6-.4 5.8l-.2 2.2h.7c.9 0 3.4-1.1 3.9-1.7.4-.5 0-.9-.6-.6-.2.1-.5-.1-.7-.3-.2-.4-.3-.4-.2 0 .1.4-1.6 1.3-1.8 1-.2-.2.4-8.7.7-9.3.2-.4.3-.9.3-1.1-.1-.8-1.1-.7-1.3-.1m7.2 1.5c-.2.4-.6.7-.7.7-.3 0-.1-1 .5-1.9l.4-.7.1.6c.1.4-.1 1-.3 1.3m-44.1-1c-.2.1.2.5 1 1.1 1.3.9 1.9.9 1.9.2 0-1.1-1.9-1.9-2.9-1.3m34.9.5c-.4.8-.8 3.3-1.1 6.5-.2 1.7-.5 4.1-.7 5.3-.8 4.4-.5 4.7 2.4 3 .9-.5 1.9-.9 2.2-.9 1 0 5.4-2.7 5.4-3.4 0-.5-1.8-.2-4.1.7-1 .4-2.3.8-2.8.8l-.9.1.1-5.1c0-2.8.1-5.6.2-6.2.1-1-.3-1.6-.7-.8m-15.6.6c-4.2 1.6-5.1 6.4-2.1 10.8 3 4.4 4.6 8 6.2 13.4 1 3.5 1 3.5 1 2.2 0-2.3-2.1-9.6-4-14-2.1-4.8-.3-2.9 2.4 2.4 1.4 2.9 2.2 4.1 2.2 3.4 0-1.5-2.8-7.1-5-10.1-1-1.3-1.7-2.4-1.6-2.5.2-.2 3.2 2.9 4.4 4.7 2 2.9 2.5 2.8 1-.2-1.2-2.4-2.1-3.5-4-4.8-3.2-2.3-1.1-2.1 2.8.3 1.5.9 2.6 1.5 2.6 1.4 0-.5-1.4-1.9-3.2-3.2-2-1.5-2-1.6-.6-2l1-.3-1.2.1c-.7.1-1.5.2-1.8.3-.8.3-.7-.3.3-1.1 1-.7 3.7-.9 5.1-.3l1.1.4-.8-.7c-1-.9-3.8-1-5.8-.2m-22.5.8c-1.8 1-6.6 5.7-6.2 6.1.1.1 1-.5 2-1.3 3.1-2.4 5.8-3.5 6.3-2.7.1.1-.3.3-.8.3-1.2.1-1.6.3-4.6 3-1.3 1.2-2.5 2.1-2.6 2.1-.2 0-1.1.7-3 2.6-.9.9-1 .9-.9.3 0-.7-1.2-.7-2.3-.2-.3.1-.6.2-.7 0-.7-1-3.5.2-5.9 2.6-.8.8-2.3 2.1-3.3 2.8-2.7 1.9-8.7 7.9-10.2 10.3-.7 1.1-1.8 2.8-2.5 3.7-1.6 2.3-3.6 5.7-4.1 7.2-.8 2.4-2.5 5.1-8.4 13.8-1.7 2.4-2.3 4-1.6 3.7 1-.4 7.5-9.4 12.3-17 5.7-9.1 7.7-11.6 14.4-17.7l.9-.8-.6.9c-2.8 4.6-6.2 11.4-7.8 15.6-1.1 2.7-1.3 3.3-4.9 12.7-1.1 2.9-2.4 6.7-3 8.5-.5 1.8-1.1 3.6-1.3 4s-.6 1.5-.8 2.5c-.2 1-.8 2.6-1.2 3.7-.7 1.7-.9 3.1-.2 2.4.3-.3 2.4-5.1 5.3-12.2 1.2-2.8 3.4-8.1 5.1-11.9 1.6-3.7 3.1-7.3 3.2-7.8.4-1.7 2-4.5 5-8.9 5.9-8.7 6.9-10 11.3-14.5 2.4-2.4 4.3-4.5 4.3-4.7 0-.2.6-.6 1.4-1 .8-.4 2-1.1 2.9-1.7 1.5-1 2.1-1.2 4-1.5 1.2-.2 1.9-.8 1.8-1.6-.1-.4 0-.6.3-.6s.7-.2.9-.5c1.3-1.7-2.2-3.5-4.5-2.2m-121.1 1.3c-1.9 1-2.5 2.8-1.3 3.9 1.1 1.1 1.6 1 1.9-.4.2-.9.4-1.4 1.1-2 1.1-1 1.2-1.4.3-1.7-.9-.3-.9-.3-2 .2m-16.8.7c-.2.5-.2 1.2-.1 2.5.3 2.4 0 4.8-1.1 7.3-2.5 5.5-3.2 8-2.2 7.7.5-.1 2.4-3.2 3.4-5.2.4-.9 1.4-2.3 2.2-3.2l1.4-1.5-.2-2.7c-.2-3.7-.3-3.9-1.5-4.8-1.3-.9-1.5-.9-1.9-.1m8.2 1c-1.6.5-2.1 3.4-.7 4.5.9.8 4.7.3 4.7-.6 0-.1-.2-.2-.4-.2-.9 0-1.8-1.2-1.8-2.4 0-1.3-.6-1.7-1.8-1.3m163.5 1.4c-.4.5-2.4 4.8-3 6.6-.5 1.4-.7 3.4-1.3 10.8-.1 1.9-.6 4.6-.9 6-.4 1.4-.9 3.6-1.1 4.8-.9 4.6-3 11.9-4 14-.3.7-.9 2.1-1.2 3-2.4 6.5-11.3 20.6-19.6 30.9-4.7 5.9-10.8 18.5-9 18.5.1 0 .4-.5.7-1.1.3-.6.6-1.1.8-1.2.2-.1.7-.9 1.2-1.8s1.1-2.1 1.4-2.6c.3-.5 1.1-1.9 1.8-3 2-3.4 4.7-7.1 7.8-10.5 2.5-2.7 8.7-11.2 11.3-15.5.2-.3.7-1.1 1.1-1.9.5-.7 1-1.6 1.1-1.9.2-.3.4-.6.5-.7 2.3-2.3 6.6-11.3 8-16.9.4-1.7 1.1-4 1.6-5.3 3.3-9.4 5-19.2 3.9-22.8-.5-1.7-.5-5.2 0-6.4.2-.5.4-1.3.4-1.7 0-.4.1-.8.3-.8.5 0 .3-.4-.5-.7-.8-.3-.9-.2-1.3.2m-24.9 1.3c-2.6 1.5-6 4-6 4.4 0 1.2.7 4.8.9 5.1.4.4 5.8-1.2 5.6-1.7 0-.1-.9-.3-1.9-.3s-1.9-.1-1.9-.2c-.2-.2 1.6-3.4 3.1-5.4 2.1-2.8 2.1-3 .2-1.9m-12.4 2.1c-3.1 2.2-2.8 3.9.6 3.3 1.3-.2 1.5-.7.5-1.2l-.7-.4.9-.7c.5-.4 1.1-.7 1.2-.7.7 0 1-.8.5-1.2-.7-.6-.9-.6-3 .9m-117.8-.9c-2.4.6-1.6 4 1.8 7.8.9 1 1.9 2.2 2.2 2.6s1.9 2.2 3.6 4c3.7 4 8.7 10.7 10.5 14 .7 1.3 2 3.5 2.7 4.9 1.2 2.2 2.9 6.1 5.5 12.4.7 1.8 1.9 3.2 2.4 2.9.2-.1.2-.3 0-.5-.4-.5-2.9-6.6-3.4-8.3-.3-.9-.6-1.9-.8-2.3-.2-.4-.3-.8-.2-.9.1-.1.5.6.8 1.4 1.5 3.5 2.1 4.6 4.2 7.6 4.7 7 5.2 4.8.5-2.5-1.3-2.1-3.6-6.2-5.2-9.2-1.6-3-3.3-6.3-3.9-7.2-.6-.9-1.8-3.1-2.8-4.9-1.9-3.5-2.4-4.3-5.8-8.7-4.9-6.4-6.9-11-4-9 2.4 1.6 2.8.8.7-1.3a9.66 9.66 0 0 0-8.8-2.8m26.8 1.7c0 .1-.6.9-1.3 1.6-3.2 3.2-3.2 6.8-.1 10.2 2.4 2.6 2.4 3.8-.3 8.1-.5.9-1 1.7-1 1.9 0 .5.8.4 1-.1.8-2.1 1-1.9 1 .7 0 3.2 1.2 6.2 2.4 6.2.5 0 .5-.1-.4-1.5s-1.5-4-1.2-4.9c.4-1.4 1.5-4.2 1.6-4.1.1.1-.1.8-.3 1.7-.6 2-.3 5.2.5 5.2.2 0 .2-.6.1-1.7-.1-1.4 0-2.1.7-4.1 1.7-5.2 1-7.7-3.2-10.5-1.7-1.1-1.9-1.5-1.4-3.7.2-1 .6-1.7 1.2-2.3 1.4-1.4 1.9-2.8 1.1-2.8-.2-.2-.4-.1-.4.1m-35.2.9c-.6.7-.5 3.5.3 5 .3.7 1.1 2.4 1.8 3.8 2.5 5.2 7.1 11.5 11.9 16.3 3.9 3.8 10.7 9.8 12.5 11 .4.2 1.3.9 2.1 1.6 1.5 1.2 2.1 1.4 2.1.8 0-.2-2.2-2.5-4.9-5.1-7.3-7.1-8.6-8.8-12.6-16.7-2.3-4.6-2.6-5.4-2.8-7-.1-1.7-.2-1.9-1.5-3.3-.8-.9-2.1-2.4-2.9-3.4-2.4-3.1-4.9-4.3-6-3m146.2 1.4c-.9.6-1.7 4.1-1.1 4.5 1.9 1.2 3.8 1.1 2.6-.2-1.1-1.1-.3-2.7 1.2-2.7 1.2 0 1.1-.5-.2-1.1-1.2-.6-2.1-.7-2.5-.5m-19.4 1.5c-.5.3-1.6.4-3.1.5-2.3.1-2.3.1-3.3 1.1l-1 1 .8-.2c.4-.1 2.2-.2 3.9-.1 3 .1 3.1.1 3.8-.6.8-.8.9-1.6.3-1.9-.6-.2-.4-.2-1.4.2m69 .8c-.3.5-.9 1.2-1.2 1.5-2 1.9-1.8 3.2.7 3.2 7.2 0 9.3 1.3 10.6 6.9 1.2 4.9 2.4 7.7 4.4 10.5 1.4 1.9 2 2 1.2.2-2.2-5.5-2.6-11.6-.9-15.1.7-1.6.7-1.6.3-2.5-1.1-2.1-5.9-5.6-6.2-4.7-.6 1.8-5.9 1.7-7.1-.2-.8-.9-1.1-.9-1.8.2m-67.1 1.2c-1.6 1.6-1.4 1.5-5.9 1.8-3.9.3-6.1 1.1-7.3 2.7-.9 1.2-.5 1.2 1.7.2 2.3-1.2 4-1.6 4.7-1.3.5.3 5.4 0 6-.4.7-.4 2.9-3.3 2.9-3.9-.1-.7-.6-.5-2.1.9m109.1.4c-1.2 1.9-1.6 3.2-1.6 5.9 0 2.4-.2 3.2-.6 2.2-.2-.5-1.2-.5-1.2 0 0 .2.6 1.4 1.3 2.7 1.9 3.4 2.1 5.1.6 9.4l-.7 2.1.4 4.1c.2 2.2.4 4.6.4 5.3 0 .7.1 1.3.3 1.4 1.2.7 4.2-10.3 4.3-15.5 0-3.1.1-3-2-8-1.2-3-1.5-7.5-.6-9.8.4-.6-.1-.5-.6.2m-144.9.7c-2.4.5-3.4.9-4.3 1.7-.5.5-1.5 1.3-2.2 1.7-1.4.9-2.9 3.5-2.9 4.9 0 1 .2 1 1.5-.3 1.1-1.1 2.7-1.9 5.5-2.6 1-.2 3-.8 4.5-1.3s3.5-1 4.3-1.1c3.6-.4 5.1-1.4 3.2-2-3.5-.9-7.6-1.4-9.6-1m87.4.4c-3.6 1.9-6.2 7.2-8.1 16.2-1.3 6.2-1.4 7.1-1.8 11.9-.2 2.3-.6 5.7-1 7.6-1.3 6.7-1.4 7.8-2 11.4-.3 2-.8 5-1.2 6.5-.4 1.6-.7 3.4-.8 4-.7 4.6-2.6 12-4.2 16.3-.9 2.6-2 5.6-2.4 6.8-.4 1.2-1.8 4.7-3.1 7.8-2.9 6.8-3 7-2 8.9.4.8.7 1.6.7 1.8 0 1.4 1.2 1.3 1.6 0 .4-1.5 3.2-8.7 6.5-16.9 1.9-4.8 2.8-7.3 2.8-8 0-.6.5-2.4 1.1-4.1.6-1.7 1.6-5.4 2.3-8.2.7-2.8 1.6-6.6 2.1-8.4.5-1.8 1.2-4.8 1.4-6.7.3-1.8.8-4.4 1.2-5.7 1-3.5 1.1-3.9 1.6-7.5.4-3 .8-5.7 1.9-11.3.2-1.2.6-3.4.8-4.8.9-6 1.5-7.2.8-1.5s-.7 11.3.2 15.7c1.7 8.7 1.5 17.6-.6 27.3-1 4.4-.9 5 .2 1.2 1.1-4.1 4.3-13.4 5.2-15.4 1.2-2.5 1-3.5-.7-6-1.6-2.1-2.9-12.8-1.9-15.1.1-.3.8-2.1 1.6-3.9 2-5 2.3-5.6 5.2-10 2.9-4.3 3.7-6 3.7-7.8 0-1.6-.5-1.5-1.4.3-.6 1.2-1.9 3.5-5.3 9.7-1.1 2.1-1.1 1.4.1-.9 2.2-4.4 4.1-10.5 3.4-11.1-.8-.8-1.2-.2-5.2 8.8-.5 1.1-1.1 3.1-1.4 4.4-.5 2.3-.5 2.3-.5 1 0-2 2.1-10.4 3.4-13.3.6-1.4.6-1.5-.7-1.2-.7.2-1 .2-1.2 0-.6-.6-.9-.5-2.3.2m-40.5.1c0 .5 1.4 1.3 8.1 5l3.1 1.7.3 1.5c1.3 6.2 3 10 4.2 9.3.5-.3.3-1.2-.5-1.8-1-.7-1.5-2.1-2-6.1-.7-5.2 0-4.4-6-6.7-1.5-.6-3.7-1.6-4.8-2.3-2.2-1.2-2.4-1.3-2.4-.6m-3.3.6c-.3.8 1.4 3.1 2.3 3.1.1 0 1.1.4 2 .9 1 .5 2.5 1.2 3.4 1.5 2.4.9 2.7 1.3 3.1 2.9 1.3 6.1 3.5 10.9 5.9 12.6 1.2.9 1.2.4 0-1.4-1.8-2.8-3.2-6-4.1-9.5-1.2-4.9-.9-4.4-4.7-6.2a48 48 0 0 1-7.1-3.9c-.5-.2-.7-.3-.8 0m-6.4 1.1c-1.8 1.4-2 1.4-4.4 1.7-3.1.3-3.1.3-3.7 2.4-.3 1-.7 2.6-1 3.4-.3.9-.6 2.2-.6 3 0 .8-.3 1.8-.5 2.2-.6 1.2-.3 2.8.6 3.3 1.2.6 4.7.8 5.1.3.2-.2.5-.4.7-.4.5 0 4-3.3 6.4-6.1 2-2.2 3.7-5.3 3.5-6.3-.1-.8-.9-.9-1.1-.2-.3 1.1-3.3 5.2-5.1 7.2-1.9 2-2.6 2.4-1.3.7 1.5-1.9 4.5-6.7 5-7.9 1.3-3.2-1-5.3-3.6-3.3m-166.9 1.4c-9.5 1.5-18.7 6.1-23 11.5-1.5 1.9-3.1 4.4-3.8 5.9-1.4 3.1-1.3 4 0 1.6.9-1.6 2.8-3.7 4.5-5 1.6-1.1 1.5-1-.3.9-1.7 1.9-3.5 4.3-3.2 4.6.1.1 1.3-.9 2.7-2.2 3.6-3.5 8-5.8 15.8-8.5 1.5-.5-2.1 1.6-5.7 3.3-4 1.9-6.8 3.6-7.9 4.9-.9 1 0 .6 2-.9 2.2-1.7 3.8-2.5 8.9-4.4 3-1.2 8.5-3.8 9.5-4.6.8-.6.2.4-1.4 2.5-2.4 3.1-3.4 4.1-5.4 5.4-1 .7-1.6 1.2-1.3 1.2.7.1 3.4-1 5.2-2.2 2.1-1.5 2-.8-.2.9-2.8 2.1-5.8 3.1-12.8 4.2-1.3.2-2.8.6-3.3.8-.5.2-1.4.5-1.9.5-1.3.1-6.9 3-9.1 4.7-2.2 1.6-3.7 3.9-4.3 6.3-.2 1-.6 2.4-.8 3.1-.2.8-.4 2.5-.4 3.9 0 3-.3 4.8-1.4 8.4-1.2 3.9-2.2 5.8-8.9 17.1-1.2 2.1-2.2 3.9-2.1 4.1.5.8 1.2.1 3.2-3.1 1.2-1.9 3.2-5 4.5-7 2.5-3.9 3.4-5.8 4.9-11.1 1.3-4.8 1.5-5.1 1.3-3.2-.6 6.2-2.4 10.9-7.8 20.6-2.3 4.2-3.6 6.8-3.4 6.9.2.2 6.9-11.3 8.3-14 .7-1.5 1.6-3.8 2.1-5.6.4-1.7 1.1-4.2 1.5-5.5l.6-2.4-.1 1.9c-.1 1-.3 2.4-.4 3.1-.8 3.6-1.3 5.8-1.4 6.3-.1.3.4-.5 1-1.7.6-1.3 1.4-2.5 1.7-2.9.8-.8 1.7-2.6 2.8-5.7.5-1.4 1.6-3.9 2.4-5.5 2-3.9 2-5.3-.1-2.7-.5.6-1 1.2-1.1 1.4-.1.1-.1-.4-.1-1.1l.1-1.3-.5.6c-.3.3-.9 1.9-1.4 3.4-1 3.2-1.1 3.2-1.5-.9-.6-7.2-.3-8.5 2.7-10 2.7-1.3 5.4-.8 7.8 1.6l1.1 1.1.5-1.1c.7-1.4 3.1-4.3 3.6-4.3.6 0 .5.5-.2 1.4-1.8 2.4-3 7.1-2 8 1.2 1.1 2.7-.2 3-2.5.1-.8.5-2.4.9-3.6.4-1.2.7-2.3.8-2.5.1-.5 1.2-.4 1.2 0 0 .2-.2.5-.4.7-.6.5-2 5.3-1.5 5.3s2.2-2.8 2.9-4.7c.9-2.4 1.5-3 .9-.8-.2.7-.3 1.4-.3 1.5.2.2 2.4-1.5 2.8-2.3.3-.6.4-.6.5-.2.1.3.1.5.2.5.4 0 2.7-1.2 3-1.5.3-.4.3-.4.4 0 0 .6 1.8.6 2.5 0 .5-.4.5-.4.5 0 0 .3.4.5 1.2.8.7.2 1.2.4 1.2.6 0 .2.3.7.8 1.2l.8.9.6-.9c.6-1 .7-.7.3.8-.2.7-.1 1.3.2 2.5l.5 1.6.4-.9c1.1-2.1.8-.1-.4 2.6-.8 1.8-1.7 5.8-1.6 6.6 0 .2.8-.9 1.8-2.5 1.6-2.8 1.9-2.8.8 0-.3.7-.9 2.1-1.4 3-1 1.8-.9 2.5.3 2.5.5 0 .8-.4 2-2.7 1.3-2.7 1.7-2.8.9-.2-.5 1.8-.4 1.9.8.5 1.8-2 2-2.3 2.4-3.9.2-.9.5-1.5.7-1.4.4.2.2 2.5-.3 3.8-.5 1.3-.5 1.3 0 1.3 1 0 4.8 1.4 5.6 2 1.9 1.6 2.4 4.3 1.4 7.6-.2.8-.6 2.1-.8 2.9s-.9 2.5-1.6 3.8c-1.4 2.8-1.9 2.8-1.3 0 .3-1.2.4-2.6.3-3.9-.1-2.5-.6-3.2-.9-1.3-.2 1.5-1.2 4.8-1.4 5-.1.1-.1-1.5-.1-3.5.1-4 .1-4-1.2.9l-.8 2.9v-5.6l-.8 1.2c-1.5 2.4-2.1 7.2-1.2 10 .7 2.2.4 6.8-.8 10.3-1.2 3.7-1.8 6.7-1.6 8 .2 1.5.6.8.6-1 0-1.6.7-5 1.1-5.3.3-.2.3 0 0 3.5-.3 2.7 0 5.3.5 5.6.1.1.2-1.7.2-3.8 0-4.3.9-9 2.4-12 .8-1.7.8-1.5-.5 4-1.9 8.3-1.4 14.9 1.2 17.2 1.3 1.1 1.8 1.2 1 .2-3.9-5.5-3.1-14.6 2.2-22.8 3.2-4.9 5.4-11.1 6-16.5l.2-2v1.9c.1 4.5-2.4 12.5-5.3 17.3-1.6 2.7-1.2 2.4 1.2-.7 5.2-6.8 7-12.4 6.7-20.3-.2-4.8-1.7-9.8-3-9.8-.4 0-2.4-2-5.3-5.3-1.1-1.2-2.7-3-3.6-4-2.5-2.6-4.4-6.7-4.8-10.3-.2-2.1 0-1.8.5.6.7 3.4 2.8 7.1 5.1 8.9.9.7.9.8-.7-2.5-1.8-3.5-2.3-7.8-1.4-12.2l.3-1.7.6 2c.3 1.1 1.2 3.3 2 4.9s1.6 3.5 1.9 4.2c.3.7 1.1 2.4 1.8 3.6 1.8 3.1 3.3 6.2 4 8.5.5 1.7 1.6 4 1.6 3.4 0-.4-1.1-5.1-1.5-6.4-.2-.7-1.3-3.1-2.3-5.3-3.3-7.1-3.3-7.9.1-1.5 2.2 4.2 3.2 6.6 4 9.9l.6 2.5.1-1.6c.1-1.8-.4-4.4-1.3-6.5-1.4-3.4-1.7-4.2-2.3-5.6-.4-.8-.8-1.8-1-2.3-.2-.4-1.1-2.4-2-4.4-1-2.2-1.7-4.1-1.8-4.8-.1-1.4-.1-1.4.8.7.4.9 1.3 2.8 2.1 4.1.8 1.4 1.8 3.1 2.2 3.9 1 1.8 1 1.7.4-1.1-.3-1.3-.5-2.5-.4-2.6.1-.3 1.1 1.6 1 2 0 .1.1.2.2.2.3 0 .9 2.1 1 3.8.1.8.2 1.8.4 2 .2.3.3 1.1.3 1.9 0 .8.1 1.4.3 1.4.4 0 .2-9.6-.3-10.9-.2-.5-.2-.8 0-.7.9.6 1.8 8.1 1.3 11.6-.4 3.1 0 3.3.9.4 1.2-3.9.8-11.1-.8-13.3-.4-.5-1-1.4-1.4-2-7.3-11.1-12.8-14.1-22.8-12.6m67.5 2.2c-.1.4-.3 1.2-.3 1.8 0 .7-.3 1.7-.7 2.4-.7 1.5-.7 1.8.3 1.7.5-.1.8 0 1.1.4.4.5.4.5 1-.2s.6-.8.1-1.2c-.6-.6-1.2-3.4-1-4.6.3-1.2-.1-1.4-.5-.3m198 1.1c-.7.9-1.4 2-1.6 2.6-1 2.6-1.4 4.2-1.4 5.1 0 1.2-.4.5-.6-1.4-.3-2.2-.8-1.4-.8 1.3.1 4.2 2.2 7.8 2.2 3.8 0-.9 1.1-3.4 2.6-6 .7-1.3 1.4-2.7 1.5-3.2.3-1.5.8-.3.6 1.6-.2 1.4-.1 1.7.8 3.5.5 1.1 1.1 2.7 1.2 3.5.3 2.2.7 2.3 1.2.4 1.2-4.8.6-7.6-2.3-11.2-1.7-1.9-1.9-1.9-3.4 0m-112.7-1c-1.1.3-2.3 1.3-2.3 1.9 0 .3.7.3 3.1.3h3.1l.4-.9c.7-1.5.6-1.6-1.4-1.6-1.1 0-2.4.2-2.9.3M281 171c-.2.4-.4.9-.4 1.2 0 .6 0 .6 4 2.1 1.5.6 3.2 1.2 3.7 1.4 1.1.5 1.2.3.9-1.6-.4-2-.4-1.9-3.2-2.8-3.5-1.1-4.4-1.2-5-.3m-169.1.3c.3.1.4.6.4 2.7 0 3.2-.5 4.6-.5 1.6 0-2-.6-3.4-1-2.8-.6.8-3.1 1.9-2.7 1.2.2-.4 3.1-2.9 3.3-2.9.1 0 .3.1.5.2m148.7.3c-4 .7-7.9 2.8-8 4.3 0 .4.1.4 1.7-.2.7-.3 2.7-.7 4.4-1l3.1-.5.4-1.3c.6-1.5.4-1.7-1.6-1.3m48.4 2.5c-.1.3-.5 2.4-1 4.6-.5 2.2-1.4 6.2-2.2 8.9l-1.4 4.9 1.4 1.5c2.3 2.5 2.5 3.2 1.8 6.1-.8 3.2-1.5 3.1-3.8-.7-.8-1.3-1.4-1.9-1.4-1.4 0 .1-.3 1.5-.7 3.1-2.5 11.1-2.5 11.8-.2 6.8 1.6-3.6 1.6-3.5 3.2-1.2 2.3 3.4 2.7 3.5 3.4 1.1.2-.8 1-3.5 1.7-5.9 1.5-4.9 1.5-4.8-.6-7.3-2.2-2.7-2.3-3.5-.6-12.4.7-4 1.1-8.7.7-8.7 0 0-.2.3-.3.6m-29.3 1.2c-1.1 1.1.2 2 4.8 3.5 1.5.5 3.5 1.3 4.4 1.7 1.8.9 1.8.9 2.3.6.3-.2.2-.5-.5-1.7-1-1.7-1.4-2-4.3-2.8-1.1-.3-2.2-.7-2.5-.9-.9-.8-3.7-.9-4.2-.4m-35.3.7c-.5.5-1.9 2.5-3.2 4.4-1.7 2.6-2.6 3.7-3.2 3.9-.5.2-1.2.9-1.8 2-.5.9-1.9 2.9-2.9 4.3-2.2 3.1-2.2 3-.5 2.4 1.5-.5 2.2-.4 1.1.2-.8.4-1 .9-.2.7.5-.2.5-.1-.2 1.4-1.1 2.4-1.2 2.8-1.3 3.6-.1 1.1.2.7 1.6-1.7.7-1.2 1.8-3.1 2.6-4.2 1.7-2.7 1.6-3.5-.4-2.8-1.1.4-1.1.4.1-1.6 1-1.7 2.2-2.7 3.3-2.7.4 0 .8-.6 1.9-2.7.8-1.5 2-3.8 2.9-5.1 1.9-2.9 2-4 .2-2.1m16 .5c-.6.9-.9 1.1-1.9 1.2-3.8.5-7.3 1.8-8.8 3.3-1.3 1.3-1.1 1.7.5.9 1.5-.7 6.8-1.9 7.1-1.6.3.3-.9 1.2-2.3 1.6-4.3 1.3-9.9 6.3-7.7 6.8.2 0 1-.4 1.6-1 1.6-1.4 5.8-3.5 5.8-2.8 0 .6-2.2 3.3-2.8 3.5-.9.2-3.5 2-4.4 3-3 3.3-3.6 6.6-.7 3.5 1.5-1.5 3.5-3.1 3.8-2.8.2.2-.6 2.1-1.1 2.5-1.8 1.4-4.4 5.3-4.4 6.6 0 1.3 1.1 1.2 1.6-.2.2-.5.6-1.2 1-1.6l.7-.8-.2.8c-1.2 5.4-1.3 11.3-.2 13.1 1 1.6 2.3 3 2.8 3 .7 0 .8-.8.2-1.4-2.1-2.2-2.2-9.7-.2-14.2 2.7-6 4.3-9 6-11.1.5-.7 1.7-2.4 2.6-3.9l1.6-2.7.2-2.8c.1-1.5.2-3.1.3-3.4.3-1-.3-.7-1.1.5m-205.9 1.7c0 .7.1 1 .1.6.1-.4.1-1 0-1.3 0-.4-.1 0-.1.7m220.8.2c-.7.6-1.8 1.7-2.6 2.3l-1.4 1.2 3.7 3.3c4.5 4.1 7.3 8 10.7 14.9 1.2 2.4 2.2 4.3 2.4 4.2s.5-.7.8-1.5l.6-1.4-1-3.1c-.6-1.7-1.5-3.8-2-4.6-.5-.8-1.4-2.2-1.9-3.1-1.1-1.9-3.6-5.7-5.7-8.4-1.6-2.1-2.1-3.1-2.1-4.1.1-.9-.3-.9-1.5.3m-165.9 3.5c0 3.9 0 4.3-.4 3.8-1.8-2.5-4-3.1-6.4-1.9-.7.4 1.6-2.1 4.2-4.4 2.7-2.5 2.6-2.6 2.6 2.5m230.1-4.4c0 .1.3.9.7 1.8 2.7 6.9 2.7 14.7-.2 26.5-.3 1.2-1 3-1.5 4.1-.9 1.8-1 2.2-1 4.2 0 2.5-.4 2.6-.6.1-.1-1.3.1-2.1.9-4.4 1.2-3.5 1.1-4.3-.2-2-3.1 5.5-2 10.9 2.2 10.9 1.4 0 1.5-.2.3-1.2-2.7-2.3-2.4-5.7.7-10.3 3.7-5.3 5.1-16.8 2.9-23.6-.9-2.9-1-2.7-.2 1 1 4.7.8 9.6-.6 14.4-.6 2.2-.7 1.5-.2-2.4.6-5 .5-7.2-.3-11.1-.7-3.2-2.8-9.1-2.9-8m-293.6.5c-.1.1.1.9.4 1.8.3.9.9 3.1 1.3 4.9.4 1.9 1.1 4.6 1.6 6 .4 1.5 1 3.4 1.2 4.3 1.7 7 6.3 18.2 7.6 18.2 1 0 .5-1.6-2.5-8.3-.8-1.9-1.9-4.5-2.4-5.9-.5-1.4-1.5-3.9-2.1-5.7-.7-1.9-1.6-4.9-2.1-7.4-1.3-4.8-2.6-8.6-3-7.9m303.3.9c0 .7.1 1.6.3 2 .7 1.9.2 10.6-.8 12.8-.3.6-.7 2.1-.9 3.3-.7 3.6-1.8 6.6-3.3 8.8-2.3 3.4-3.6 6.7-3.2 8 .2.7.9.7.9 0 0-1.1.9-3.6 1.5-4 .7-.5 3.4-4.7 4.5-6.8.4-.8.9-1.6 1.2-1.9 1.8-1.8 3.1-9.1 2.7-14.9l-.2-2.8-.2 2.8c-.3 4.3-2.2 12.8-2.9 13.3-.2.1-.2-.1-.1-.5 1.8-7.3 2.2-15.1.9-19.9l-.4-1.3v1.1m-16.3-.8c0 .1.8 1.3 1.8 2.6 1.8 2.5 2.8 4.2 2.8 4.7 0 .6-.5.2-1.6-1.3-2.1-2.9-1.3-1.3 1.2 2.7l1.6 2.7c1.4 2.9 1-.9-.4-4.2-1-2.1-5.4-8.1-5.4-7.2m-186.6 1.2c-.9 2.3 1.7 5.4 4.1 4.7 2.4-.6 4.1.2 4.5 2.2.2.9.5 1 .8.2.8-2.5-2.2-4.8-5.9-4.3-1.6.2-2.5-.4-2.7-1.8-.2-1.3-.5-1.7-.8-1m135 .7c-.3 1 2.3 3.2 4.9 4.1 2.1.7 4.6 2 6.8 3.4 2.7 1.7 2.6 1.7 3.1.7.4-1 .5-.8-2.9-3.3-2.8-2-4.6-3-6.9-3.6-1.1-.3-2.4-.8-3-1.1-1.2-.6-1.8-.7-2-.2m46.8.8c-.5.5-.3 1.2.6 2.1 2.3 2.3 6.6 8.6 8.5 12.6 1.4 2.9 2 3.1 1 .3-.8-2.2-1.6-3.8-3.3-6.6-1.4-2.3-3.1-5.4-3.1-5.7 0-.2 3 3.7 4.5 6 .6 1 1.8 2.9 2.5 4.4 1.4 2.8 1.9 3.2 1.8 1.5-.1-1.5-1.4-4-3.2-6.2-.8-1-2.6-3.3-3.8-5-1.3-1.7-2.4-3.2-2.6-3.3-.6-.4-2.6-.4-2.9-.1m38.6 2.2c0 .8 1 2.9 2.4 5.1 1.5 2.4 2.1 5.4 1.7 8.4-.4 2.7.1 3.3 1.6 2.1 3-2.4 2.4-6.5-1.6-10.9-1.3-1.4-2.6-3.2-3-3.9-.7-1.6-1.1-1.8-1.1-.8m-315.8-.2c-.5.5.2 4 1.8 9.8 2.2 7.8 9.1 23.9 9.8 22.7.2-.3 0-1-.8-2.6-1.9-3.9-6.8-17.7-9.2-26.5-.9-3.1-1.2-3.8-1.6-3.4m105.8 2c.1.4.3 1.7.4 2.9.5 4 2.3 5.9 7.4 7.5 1.5.5 2.6 1.6 2.9 2.7.1.6.3.7.8.6.3 0 .1-1-.3-1.9-.7-1.3-2.3-2.6-4.4-3.6-1.1-.5-2.3-1.1-2.7-1.3-.8-.4-1.6-1.4-1.8-2.5-.2-.7-2.1-4.9-2.4-5.2 0 .1 0 .4.1.8m130.2 3c-.3.9.3 1.7 2.3 2.7 1.1.5 2.4 1.3 3.1 1.7 1.4 1 1.5 1 2.1-.3.6-1.4.4-1.7-2.9-3.3-2.6-1.3-4.3-1.6-4.6-.8m-147.6.5c-1.7 4.4 1.5 6.7 6.8 4.9 5.4-1.8 8.8-.1 9.3 4.7.4 3.5 1.7 6.5 3.2 7.2 2.4 1 5.2 1.1 7 .3.7-.3 2-.7 2.7-.8.8-.1 1.4-.3 1.4-.4 0-.4-1.4-.5-3.4-.1-6.2 1.1-9.4-1.2-10-7.2-.4-3.9-1.8-5.4-5.5-5.9-1.7-.2-1.3-.6.7-.6 3 0 4.7 1.3 6.1 4.9 1.8 4.5 3.2 6.3 4.8 6.3.9 0 .8-.5-.4-1.1-1.4-.7-2-1.6-2.8-4.3-1.8-5.8-3-6.9-7.4-7.1l-2.8-.1-3 1.7c-4.9 2.8-6 2.7-5.9-.9.1-2.1-.3-2.8-.8-1.5m227.5.3c-.1.2.1 1.3.4 2.3.9 2.9 1.1 4.2.9 5.5-.2 1.6.4 2.1 1.3 1 1-1.2.6-3.5-1.3-7.4-.9-1.9-1-2-1.3-1.4m-36.6 4.6c0 .1.3.5.6.7l.6.5-.5-.7c-.5-.7-.7-.9-.7-.5m2.1-.1c0 .1.2.5.5.9 2.5 3.5 3.5 9.1 2.1 12l-.4.9.1-1.9c.1-2.4.2-2.3-.9-.1-1.4 2.9-.8 6.7 1.1 6.7.6 0 .6-.1.5-1.9 0-1 .1-1.5.9-2.7 1.9-3.2 1.3-7.5-1.7-11.8-.8-1.1-2.2-2.4-2.2-2.1m-12.6 1.4c-.5 2.3-1.8 10.4-2.3 13.7-.3 2.1-1 6.4-1.5 9.4-1.8 11-1.8 20.7-.1 29.9 1.8 9.7 2.3 7.4 1.9-10-.1-5.5.2-11.2 1-20.9.7-7.3 1.5-22.5 1.2-22.8 0 0-.1.3-.2.7m-30.5.8c.1.7.4 1.2 1 1.7 1.1.9 1.2.9 1.8-.2l.5-1-.9-.8c-1.5-1.1-2.6-1-2.4.3m43.7 2.2c.6 2.1 1.6 4.2 1.4 3.1-.2-1-1.3-3.9-1.5-3.9-.1 0-.1.4.1.8m-4.6.1c.4.2 1.1.5 1.7.7 2.8 1.2 2.9 2.4.1 1.4-1.1-.4-2.1-.6-2.2-.5-.3.3.3.6 1.6 1 .6.2 1.4.6 1.9.9 1.6 1.2 2.4.6 1.5-1.1-.6-1.2-3.2-2.8-4.5-2.7h-.8l.7.3m33.8 1.5c-7.1 1.3-17.8 11.2-17.8 16.5 0 1.8 1.3 3.4 1.4 1.6.1-3.3 5.1-6.7 10.4-7.1 1.2-.1 2.5-.3 2.9-.5.4-.2.9-.4 1.2-.4.3 0 .8-.3 1.3-.6l.8-.6-2.2.2c-2.4.2-2.7-.1-.8-.6 1.5-.4 7-.5 9.2-.2 2 .3 2.2-.2.4-.8-4.8-1.7-10.5-.6-16.7 3-2.7 1.6-3.2 1.4-1-.3 7.9-5.9 16.6-6.9 23-2.6 1.5 1 1.7 1 1.2.1-.7-1.4-4.3-3.2-7.4-3.6-.7-.1-1.2-.3-1.1-.4.3-.5-.5-.5-3.1 0-6.3 1.2-11.1 3.7-15.6 8-1.7 1.7-2.5 2-1.5.6 1.8-2.5 8.2-7.5 11.6-9 7.6-3.3 16.4-1.1 18.5 4.7.6 1.7 1 1.7.8 0-.5-5-8.6-9.2-15.5-8m-135.3.8c-.7.1-1.9 1.6-1.9 2.4 0 .9.3.9 1 .2l.6-.7-.6 1c-.6 1-.4 3.1.2 3.1.3 0 3-5.8 2.8-6-.1-.2-1.1-.2-2.1 0m55.2.7c-.5.5-.9 1.3-1 1.7-.1.4-.3 1.3-.5 2-.6 2.1.8 3 1.5 1 .2-.7.5-.8 1.5-1 2.4-.4 2.6-.8 1.5-3.2-1-1.8-1.8-1.9-3-.5m-5 .5c-.8 1.3-.7 2.3.1 2.6.5.2.9-.3.9-1.1 0-.3.2-1 .4-1.6.5-1.2.5-1.2-.1-1.2-.4.1-.9.6-1.3 1.3m-47.5.4c-.4.7-1.3 2-2 3.1-1.4 2.2-1.4 2.1-.3 2.1 1 0 1.1 0 2.2-3.2 1.2-2.9 1.2-3.7.1-2m2.1.2c-.3.4-.8 1.5-1.2 2.5-.7 1.7-1.3 2.7-2.5 4-.9.9-.2 1.6 1.2 1.2l1.1-.3 1.1-3.7c.6-2 1.2-3.8 1.3-4 .2-.6-.5-.4-1 .3m-57.3.6c-1.7.8-3.6 3.2-2.4 3.2.2 0 .8-.3 1.3-.8 1.6-1.3 2.4-1.5 3.6-1 2 .8 2.8.3 1.6-.9-1.1-1.1-2.4-1.3-4.1-.5m90.7.7c-1.2.6-2.7 1.9-6.9 5.7-3.9 3.7-4.2 3.8-5.6 2.7-1.2-.8-1.3-.3-.2.7 2.5 2.3 4.4 1.7 6.9-2.2 1.3-2 3.4-4.2 6.3-6.8.9-.6.7-.7-.5-.1m65.4 1.2c-.7.4-1.7 2.2-3.2 6.2-1.8 4.7-2.1 5.6-.8 3.1 1.2-2.4 4.3-7.1 5.3-8 1.2-1.2.3-2.2-1.3-1.3m-160.5 1.9c-1.6.2-2.5.7-3.8 1.9-.9.9-1.9 1-3.4.1-3.3-1.8-7.4-.9-7.6 1.7 0 .5-.4 1.9-.7 3.2l-.6 2.3-.8-.1c-1.1-.1-2.1-.7-2.9-2-.7-1.1-1.2-1.3-1.2-.5 0 .9 1.6 2.7 2.7 3.3 2.4 1.1 3.6.4 4.3-2.4.9-3.6 2.3-3.9 5.8-1.5s6.5 2 8.9-1.2c1-1.4.7-1.7-.6-.7-1 .8-3.8 2.2-4.5 2.2-.7 0-.6-.4.1-.7.8-.4 5-3.8 5-4.1 0-.3-.7-.3-1.5 0-.3.1-.5.3-.5.4.1.1-.2.4-.5.6-.8.5-.8.3-.1-.7.8-1 2.2-1.6 3.4-1.6.6 0 1-.1.9-.3 0-.2-.2-.2-2.4.1m6.3.2c.1.2.5.4.9.5 2.5.5 4 3.4 3.5 6.7-.5 3 .2 3.9 2.9 4.2 1.8.2 1.8-.2-.1-1.4-2-1.3-2.1-2-.1-1.3 1.7.6 2.4 0 .8-.7-.5-.3-.8-.7-1.1-1.7-1-3.6-1.7-4.6-3.8-5.7-1.1-.6-3.3-1.1-3-.6m120.4 1.7c-5.2 11.9-5 10.9-3.2 14.4l1.3 2.6-.7 2c-.8 2.2-.9 2.3-1.5 1.3-.2-.4-1.2-1.8-2.1-3.1-1.9-2.7-1.9-2.4-.1-6.5 1.4-3.2 3.3-8.9 3.3-9.7 0-1-4.4 6.4-6.8 11.6l-1.1 2.3 2.2 4.1c1.2 2.3 2.5 4.6 2.9 5.2l.7 1.1-1.1 3c-.6 1.6-1.4 3.7-1.7 4.6-.7 1.7-.7 2.1.1 2.1.5 0 2-2.6 3.7-6.2.5-1 1.6-3.1 2.5-4.7 2.3-3.8 3.2-5.6 4.4-9 .6-1.6 1.1-2.9 1.2-3 .1-.1.6.8 1.2 1.8l1.1 1.9-.3 1.8c-1 5.5-2.1 12.2-2 12.3.2.2.4-.2 2.2-5.2 1-2.8 2.2-5.8 2.6-6.8s.8-2 .8-2.3c0-.9-5.8-11.1-6.3-11-.1 0-1 1.8-1.9 3.9-1.8 4.3-2 4.5-2.8 3l-.5-1.1.5-2.1c.6-2.4 2.1-8.8 2.1-9.2.4-.6-.2-.1-.7.9m-21.7.3c-1 1.2-1.2 2.4-.4 2.6.4.1 1.3-1.4 2.3-3.5.3-.8-1.1-.1-1.9.9m4.7-.1c-.5.3-.9.8-1 1-.1.3-.4 1.1-.8 1.9-.8 1.8-.4 2.7.8 1.7 1-.9 2-1.4 2.7-1.4 1.1 0 3.6-2.8 2.9-3.3-.9-.5-3.8-.4-4.6.1m-186.3.6c-.2.3-.6 1.3-.8 2.1-.5 1.6-1 2-1.7 1.2-.2-.3-.2-.7.4-1.7.9-1.8.9-1.9-.6-1.9s-1.9.3-2.7 1.7l-.5 1.1v-1c0-2.1-3.1.1-3.3 2.3-.1 1.7-.7 2.4-2.5 3.5-2.1 1.2-5 6-6.1 9.7-2.3 8.4-2.4 9.4-2.4 16.3 0 8.3.5 9.7 4.8 17.1 2.6 4.3 3.6 5.5 6.8 7.7 1.6 1 3.4 2.4 4.1 2.9 1.7 1.3 4.9 2.8 8.7 3.9 3.9 1.2 5 1.2 1.3 0-5.6-1.9-9.7-4.2-12.7-7.4-1-1-1.2-1.4-.7-.9 3.4 2.6 6.6 4.4 9.5 5.4 3.5 1.1 3.6.7.2-.8-6.7-3-15.3-11.1-15.3-14.4 0-.1-.3-.9-.8-1.8-1.7-3.7-1.8-4.2-1.7-9.8 0-5.2.4-8.6 1.3-11.7.5-1.6.5-2 0-1-1.4 2.5-2.5 11.4-2.1 16.6.3 4.1-.6 2.9-1.2-1.6-1.6-12.6 2.4-22.8 10.7-27l2.6-1.3 3.9-.2c4.7-.3 5.8 0 8.1 1.9 4.1 3.4 5.5 7.1 5.2 13.5-.4 8.2-1.6 9.8-1.7 2.1 0-6.2-1-9-4-12.1-2.1-2.1-3.1-2.3-1.2-.2 2.5 2.6 3.3 7.1 2.2 11.5-1.5 6-1.8 19.5-.5 22 .2.4.6 1.2.9 1.9 1.1 2.4 1.6 2.6.7.3-.8-2-1.9-6.1-1.6-6.3 0 0 .6 1.3 1.3 3.1 1.3 3.3 2.7 5.9 4 7.4.7.8.6.6-.4-1.6-2-4.1-3.1-8.2-3.1-11.4 0-4.2.5-4.9.6-1.1.2 4.5 2.1 10.1 4.7 13.9 1.5 2.2 1.5 2.1.1-.7-2.6-5.1-2.8-10.9-.9-21.1.5-2.5 1.1-8.4 1.1-10.7 0-.6.1-.8.3-.6.7.7.6 6.8-.2 12.2-.2 1.5 1.6-2.2 1.8-3.9.1-.6.6-2.1 1-3.2 1.3-3.3 1-4.8-2.3-9.8-.7-1-1.4-2.2-1.5-2.5-.2-.3-.6-1-.9-1.5-.8-1.1-.8-1.8 0-3 .5-.8.6-1.2.5-1.9-.2-1-1.7-2.9-1.9-2.4-.6 1.3-1.4 2.6-1.6 2.7-.7.2-.6-.7.1-2.2.8-1.7.8-2-.5-2.7-1.2-.7-1.6-.5-2.2 1.2-.5 1.4-1 1.7-1.5.8-.2-.4-.2-.8.4-1.8.9-1.6.9-1.6-.5-2.2-1.8-.8-1.7-.9-2.8 2.9-.1.5-1.2.4-1.4-.1-.1-.2.1-1.1.5-2l.7-1.6-.6-.2c-.9-.4-1.7-.2-2.1.4m269.6.6c-1.7.9-1.3 1.5.5.8.7-.3 1.3-.4 1.5-.3.2.1 1.1.3 2.1.4 3.2.5 10.3 3.2 11.3 4.4l1.1 1.7c1.1 2 2.3 1.7 2.3-.5 0-2.4-7.3-5.9-14.2-6.8-1.1-.1-2.2-.3-2.6-.4-.5.1-1.2.3-2 .7m-8.5 2c-3.6.8-7.1 3.2-7.1 4.7 0 1.2.5 1.4.9.3.8-2 6.9-3.9 10.5-3.4 1.1.2 2.4.3 3 .4.6.1 1.4.2 1.9.4.4.2 1 .3 1.2.2.8-.2-1.3-1.1-3.6-1.7-1.1-.3-2.1-.6-2.2-.7-.3-.3 4.3.4 5.3.8s1.1.1.3-.4c-1.3-.7-7.9-1.1-10.2-.6m-267.4.7c0 .2-.1.4-.3.4-.3 0-.6-.4-.4-.6.4-.4.7-.2.7.2m283.3 1.6c.9.8 2.4 2.7 3.3 4.1 1.2 1.8 2.4 3.2 4.2 4.9 2.6 2.4 4.1 4.2 2.2 2.7-.5-.4-1.8-1.4-3-2.3-1.1-.9-2.7-2.3-3.4-3.3-1.7-2.1-2-2.3-1.6-1.6.2.3.9 1.3 1.6 2.2 1.1 1.4 1.2 1.6.7 1.5-.8-.1-1.8-.7-1.7-.9.1-.1-.3-.6-.8-1.1s-.9-.7-.7-.5c.1.2.5.6.9.9.3.3.6.6.5.6-.1.1-.4-.1-.7-.3-.8-.8-.9-.3-.2.7.7.9 3 2.7 4.7 3.5 1.4.7 4.8 3.4 6 4.6 1 1.1 1.2 1.8.2.9-.3-.3-.5-.4-.5-.2 0 .1.3.6.7.9.4.4 1 1.2 1.3 1.9 1 2 1.7 1.5 1.9-1.3.2-3.3-2.7-7.9-6.5-10.1-2.5-1.5-5.7-4.1-6.8-5.8-1.5-2.1-2.1-2.8-2.9-3.3-1.2-.4-1.2-.3.6 1.3m-3-1c0 .1.3.4.8.6.4.2 1.2.8 1.6 1.5.9 1.3 1.1 1.4 1.1.7 0-.2-.4-.8-1-1.3-1.1-1-2.5-1.9-2.5-1.5m-328.2.4c-2.2.6-3.3 1.4-5 4.1-1.4 2.2-1.6 2.4-2.2 2.2-.7-.3-.7-.3-1.4 1.7s-1.4 2.5-3.7 2.7c-2.3.2-2.7.3-2.8.8-.3.8.3 1.4 1.6 1.4 1.5 0 1.8.4.5.8-1 .3-1.1.5-.6 1.1.2.3.8.5 1.7.5l1.3.1-.9.4c-1.7.7-.7 1.4 1.9 1.5 3.6 0 5.2 1.6 5.9 5.7.2 1.3.7 2.9 1 3.7 1.3 2.7 3.7 9.5 4.5 12.6.3 1.1.6 1.9.7 1.9.6 0-.5-7.2-2.1-13.2-.9-3.3-1.4-6.3-1.1-6 .7.6 4 12.4 4.4 15.1.2 1.8.4 1.4 1.1-2.2 1.2-6 1.2-9.2 0-17.5-1.1-7.3-.9-10 .2-4.4 1.5 7.2 2.3 13.8 2.1 16.9-.3 3.3.3 2.6 1.2-1.5.4-1.6.5-13.7.1-16.3-.3-1.9.1-2 .8-.1 2.1 5.7.7 21.7-2.8 32.2-1.1 3.3-1.2 4-.1 1.4.4-1 1.2-2.8 1.7-4 3.6-7.8 5.7-16.1 5.7-22.6 0-2.1.1-3.6.4-4.6.7-2.2 0-5.4-1.9-9.1-1.9-4.4-7.1-6.6-12.2-5.3m146.1 0c-.1.3.1.7.8 1.3 2.2 1.8 1.6 4.1-1.2 4.9-4.3 1.1-7.7 4.7-6.7 6.9.2.3.5 1.6.8 2.9.6 2.6.6 2.9-.9 4.4-.8.9-.8.9-.1.4 1.4-.9 2.2-2.6 1.9-4.5-.7-5 .6-6.7 5.9-7.8 3.2-.6 4.3-.9 4.3-1.2 0-.6-.8-2.2-1.1-2-.1.1-.3-.2-.3-.6.2-1.7-2.9-5.9-3.4-4.7m188.4.5c-.1.2 0 .8.3 1.3.4.8 1.1 1.6 5.2 5.5 1.3 1.3 2.1 1.4 2.3.5.1-.8-.9-1.9-2.9-3.2-1.7-1.1-2.3-1.7-4-3.7-.6-.6-.8-.7-.9-.4m-102.4.8c-1.4 1.1-1.9 3.1-.8 3.5.3.1.6-.2 1-.9.4-.6 1-1.3 1.5-1.7 1.3-1.1-.3-2.1-1.7-.9m6.2-.3c-1.2.2-2 .8-2.9 2.5-.2.4-.8 1.2-1.3 1.8-1.5 1.7-.5 2.7 1.2 1.1.8-.8 1.3-1 2.6-1.1 1.4-.2 1.7-.3 2.8-1.4 1.5-1.5 1.5-1.6.4-2.2-1.2-.9-1.5-.9-2.8-.7m48.9 3.6c-5.5 12.1-7.3 21.9-6 34.1.6 6 4.8 19 6.1 19 .7 0 .7-.1-.5-5-4.2-16.8-3.7-35.6 1.4-47.1 1-2.4 1.1-3.1.3-3.1-.2.1-.7.8-1.3 2.1m34.2-1.6c-.9.2-2.2 1.4-3.4 2.9-.8 1-1.3 1.5-1.9 1.6-.4.1-.9.3-.9.4-.4.7 1.9-.2 3.2-1.3.5-.4 1-.7 1.1-.6.2.2-2 2.1-2.9 2.5-.7.3-.8.4-.2.4 1 0 2.3-.7 3.3-1.7 1.4-1.5 2.2-1.8 3.8-1.6 1.6.2 1.6.1.1-.8-1.6-.9-1.3-1.2.4-.3 1.6.8 1.8.3.3-.6-1.2-.8-2.1-1.1-2.9-.9m-9 .4c-3.2.4-7 3.1-9.8 6.9-2 2.6-2 4.6-.1 7.1.5.7 1.1 1.8 1.3 2.4.3 1 .4 1.1.4.3 0-.4-.3-1.8-.8-3.1-.6-1.9-.8-2.9-.5-2.4.4.7 1.9 4.1 2 4.9.2 1.1.2 1.1.3.2 0-.5-.2-1.6-.5-2.4-.3-.8-.5-2.1-.5-2.7 0-1.2 0-1.2.3-.4.1.4.6 1.7 1 2.8.4 1.1.8 2.3.8 2.7.1.4.3.7.5.7.7 0 .6-2-.1-4.4-1.3-4-.5-6.2 3-8.5 2.5-1.7 2.8-2.2.9-1.4-1.5.6-3.4 1.8-5 3.3-1.3 1.2-1.5 1-.4-.5 1.8-2.5 4.6-4.2 8.6-5.3 1.3-.5.9-.5-1.4-.2m-311.5 6c.1 3.3.5 6.1 1.3 8.7.8 2.5 1.5 5.8 1.4 7v.9l-.3-1.1c-.1-.6-.4-1.9-.7-2.9-.5-2.3-1.3-4.2-2.9-6.5-2.1-3.1-2.5-6.9-.9-8.2 1.6-1.4 2-1 2.1 2.1m322.2-1.6c-1.1.2-2.4 1.4-3.3 2.9-1 1.7-1.9 2.4-3.7 2.6-1.6.2-2.1.4-1.6.6.7.3 3.5-.6 4.6-1.3.8-.6 1-.7.8-.3-.4.7-.9 1.1-2.6 1.8l-1.5.7 1.2-.2c2-.3 3.3-1.1 4.5-2.8 1.3-1.8 1.6-2 4-1.7 3.2.3 2.5-.8-.8-1.2l-1.5-.2.9-.3c.5-.2 1.4-.2 1.9-.2.6.1.8 0 .5-.1-.4-.2-2.5-.4-3.4-.3m-98.1.4c-1.1.3-1.7.7-2.1 1.8-1 2.3.1 2.6 1.7.5.6-.8 1.4-1.5 1.7-1.6 1.3-.5.2-1.1-1.3-.7m5.9.6c-1.6.8-3.1 2-4.1 3.5-1.1 1.5-.8 1.8.9 1 1.4-.7 1.7-.7 4.4.1.6.2 2.3-1.1 3.3-2.6 1.3-1.9-1.7-3.3-4.5-2m79.1.4c-2.4 1.2-2.7 3.7-.9 6.9.7 1.2.9 1.9.8 2.3-.1.4-.1.5.1.4.4-.2.4-1.3-.1-3.1-.5-2-.5-2.8.1-1.5l.5 1.1-.1-1.1c-.2-1.7.3-2.1 3-1.8 1.5.1 2.3.1 2.4-.1.1-.2.5-.2.9-.1.8.2 1.9-.3 1.9-.7 0-.1-.9-.2-2.1-.2-2.4 0-4.4-.3-4.2-.6.1-.1 1.1-.2 2.3-.2 3.6 0 2-.9-2.6-1.5-.7-.3-1.3-.2-2 .2m21.6.3c0 .4 2.6 4.2 3.7 5.4 1.8 2 1.8 2.3.1.6-.9-.9-2-2.1-2.4-2.6-.9-1.3-1.1-1.1-.3.5.7 1.4 2.8 4 6.4 7.7 2.9 3.1 4.5 5.4 5.4 7.8.7 1.9 2 4.3 3.3 5.7 1 1.1.8 2.1-.5 3.4-1.2 1.3-2 2.6-2.2 3.9-.3 1.2-.1 1.1.9-.5.7-1.3 2.2-3 2.2-2.5 0 .1-.3.6-.6 1-.9 1.1-2 3.6-2 4.4 0 1 .5.6.9-.7.6-2 .8-2.3 2.6-3.5 3.1-2.1 3.1-4.4-.1-8.6-1.3-1.7-1.7-2.6-2.3-5-.3-1.1-.7-2.3-.9-2.6-.2-.3-.7-1-1.1-1.6-.8-1.2-2-2.5-2.3-2.5-.1 0 .3.8.8 1.7.6.9 1.5 2.9 2 4.4.5 1.5 1.1 2.9 1.2 3.2.2.3.2.6.2.7-.1.1-.9-1.5-1.9-3.4-2-4.1-4.7-8.1-7.4-10.7-1-1-2.6-2.9-3.5-4.2-1.5-2-2.2-2.7-2.2-2m-2.1 2c0 1.5 2.1 5.3 5.3 9.4 5.6 7.4 6.7 9.3 1.9 3.2-4-4.9-4.5-5.7-5.7-7.4-.8-1.2-1-1.3-.8-.7.4 1.7 2.3 5.1 3.9 6.9 6.2 7.1 7.4 10.5 6.3 18.5-.8 5.8-.4 5.7.8-.3.8-3.9.9-4.2.8-2.4-.1 1.1-.3 2.8-.5 3.9-.5 2.6-.8 4.7-.5 4.7.2 0 1.5-4.6 2.1-8 .7-3.6.7-3.5.9-2.4l.2.9.2-.9c1-4.9 0-7.4-5.5-13.1-3.9-4.1-5.1-5.7-7-9.3-1.3-2.2-2.4-3.7-2.4-3m-113 4c-1 .8-2.1 2.9-1.9 3.4.3.8.9.5 2-1.1.6-.9 1.4-1.8 2-2.1 1.2-.6 1.1-.9-.4-.9-.6 0-1.2.2-1.7.7m4.9 1.8c-1.4 1.5-2.1 2.4-2.1 2.8 0 .9.6 1 1.4.3s1.4-.9 5.4-1.1c3.3-.1 4-.4 4.9-2 1-1.5-.6-2.2-5.1-2.2h-2.5l-2 2.2m92.6-1.1c-1.4.7-1.8 1.3-2.4 3.8-.6 2.5-1.3 3.6-2.8 4.3-3.4 1.7-4.6 3.9-3.8 7 .6 2 .6 2.4.4 4-.3 1.9-1.4 3-4.7 4.3a9.15 9.15 0 0 0-6 6.9c-.7 2.6-.2 10.6.6 9.8.3-.3.6-3.5.5-5.3-.4-4.7 1.6-8.3 5.5-9.7 6-2.2 7.7-5.1 5.6-9.6-1.4-3-.3-6 2.2-6 1.7 0 4.9-2.6 5.4-4.5.6-2.2.1-2.1-1 .1-.4.8-1.1 1.8-1.6 2.3-1 .9-1.5.9-.7-.1.3-.3.9-1.4 1.3-2.4.4-1.1 1.1-2.1 1.6-2.6.9-.8 1.4-.9 4.2-1.2 1.7-.2 2.3-.5 2.3-1.3 0-.4-.1-.5-.6-.4-1.3.4-2.8.5-3.9.2-.8-.1-1.2 0-2.1.4m3.8 2.8c-1.9.3-2.5 5.3-.9 8.2.9 1.6.9 1.8.5 4-.1.3-.1.6-.1.7-.1.6-2.2 2.5-4 3.4-3.1 1.7-4.7 3.7-5.8 7.2-.6 1.8 0 3.6.6 1.9 1.5-4.2 3-6.2 5.8-7.5 2.8-1.3 4.4-2.7 5.4-4.9.8-1.7.8-1.9.6-5.7-.1-2.2.3-2.8 1.7-3.2.9-.2 1.1-.8.3-1.1-.8-.3-2.7.7-3 1.5-.1.3-.2 2-.1 3.6.2 3.5 0 3.6-.7.4-1.1-4.8-.5-7.1 2-7.4 1.3-.2 1.3-.2.6-.5-.8-.4-2.1-.7-2.9-.6m-302.3 1c-.1.2 0 .8.1 1.3.7 2.2 1.2 7.9.9 9.8-.2 1-.2 2-.2 2.3.2.6-1.5 6.6-3.2 11.2-4 10.8-1.3 23.6 6.5 30.8 1.7 1.6 1.8.9.1-1.3-5.8-8-6.6-16.6-2.7-29.7.9-3 1.1-4.1 1.1-5.9 0-1.2.2-3.1.4-4.1 1.1-4.9.2-11.8-1.8-14-.7-.9-1-.9-1.2-.4m-31.5.2c-1.2 1.5-2 4.7-1.2 4.7.1 0 .8.5 1.5 1 .7.6 2.6 1.6 4.1 2.3 5.4 2.4 5.8 2.7 7.2 5.1 2.6 4.4 3.7 8.5 4.3 16l.3 4.5.3-2.3c1.1-7.5-1.1-18.7-4.5-23.1-.6-.8-1.5-2.1-2-2.8-1.1-1.6-2.3-2.3-5.3-2.9l-2.2-.4-.3.9c-.6 1.7-1 1-.5-.8.5-1.6-.1-2.4-1-1.4l-.7.8.2-1c.3-1 .2-1.1-.2-.6m173.8 1.5c-.5.5-2.1 2-3.7 3.4-3.5 3.1-3.7 4.2-.6 4.2 1.7 0 3.2.2 3.2.5 0 .1-1.6 2.1-3.6 4.4-3.5 4.1-4.1 4.9-3.1 4.9.5 0 9.7-9.3 11.1-11.2.8-1.1.8-1.2.9-.5.1.5-.2 1.1-1.1 2.1-4.2 5-7.4 9.6-6.8 10 .6.3 10.6-10.3 10.3-10.9-.2-.2-.9-1.4-1.6-2.4-1.6-2.4-1.6-2.4-2.8-.7-1.3 1.8-1.4 1.9-2.9 1.7l-1.3-.2 2-2.5c1.8-2.3 2-2.6 1.7-3.2-.5-.8-.7-.8-1.7.4m150.3.8c-1.8 1.7-5 3.9-5.3 3.6-.1-.1.6-.8 1.4-1.6l1.6-1.4-1.5.5c-6.9 2.6-8.5 5.3-5.4 8.9l.9 1-.4-1c-.2-.6-.4-1.3-.4-1.7 0-.6.1-.6.2-.2.1.3.6 1.3 1.1 2.2.5.9 1.1 2.1 1.3 2.7l.3 1v-1.2c0-.9-.2-1.5-.8-2.5-.9-1.4-1.1-2.9-.4-3.5.3-.3.4-.2.6.8.1.7.5 1.9.8 2.8.4.9.7 1.8.7 2.1 0 .7.3.9.7.6.5-.4.5-1.8-.1-3.7-.7-2.7.4-4.9 3.8-7.9 1.5-1.3 3-3 2.6-3 .1 0-.7.7-1.7 1.5m-159.7.3c-.8.7-1.8 1.6-2.3 1.9-.5.4-1.4 1-1.9 1.5s-1.8 1.6-3 2.4c-2.5 1.9-5.7 4.5-10.1 8-1.9 1.5-4.7 3.8-6.4 5-3.1 2.3-7.7 6.2-8.3 7.1-.2.3-1.3 1.2-2.4 2-1.1.9-2.8 2.2-3.7 3.1-.9.8-2.9 2.2-4.3 3-4.7 2.8-9.6 6.6-14.9 11.4-.2.1-.9.8-1.7 1.5-.8.7-2 1.7-2.8 2.4-.7.7-2.3 2-3.3 2.9-5.7 5-15.3 16.9-21 26.3-2.2 3.6-6.6 14-8.1 19.2-.3 1.1-1.1 3.6-1.7 5.6-3.3 10.2-4.6 34.6-2.3 40.8.1.3.4 1.7.5 3.1.3 2.5.6 3.5 1.1 3.5.6 0 .6-1 .2-6.9-.5-7.4-.6-11.7-.1-16.5.2-2 .5-4.8.6-6.2 1-15.3 9-36.2 18.6-48.9 3.2-4.3 4.3-5.6 5.4-6.9.6-.7 1.8-2.2 2.5-3.2 2-2.7 2.9-3.6 6.4-6.6 1.7-1.5 3.1-2.8 3.2-2.9.1-.1 1.3-1.1 2.8-2.4 1.5-1.2 3.4-2.9 4.3-3.7 1.3-1.3 3.3-3 5.8-4.9.2-.2 1.4-1 2.5-1.9 2.7-2 3.2-2.5 8.8-7.6 4.8-4.4 8.3-7.5 15.9-13.8 4.1-3.4 7-6 16.4-14.3 2.2-2 5.2-5.2 4.8-5.2-.1-.1-.8.5-1.5 1.2m66.4.6c-1.2 1.2-2.7 3.4-2.7 3.8 0 .9 1.2 1.5 2.3 1.2.8-.2 1.5-.2 2.8 0 2.9.5 3.2.4 4.8-.9 1.6-1.4 2.4-1.8 3.3-1.6 1 .2 1.3-.1.7-.7-1.1-1.2-4.8-2.5-8.2-2.7l-2.1-.2-.9 1.1m-6-.6c-.2.3.5 1.6.8 1.6.7 0 2-1.3 1.5-1.6-.6-.3-2.1-.3-2.3 0m-124.8 1.6c-.9.9-1.9 2.7-2.1 3.6-.3 1.1 2.6 3.7 5.9 5.4l2.4 1.2 5.1.2c6.7.3 7.5.3 7.2 0-.3-.3-3.4-.8-4.8-.8-1.2 0-6.1-1.2-6.6-1.6-.2-.1-1.1-.7-2.2-1.2-2.4-1.2-3.2-2-1.3-1.2 1.5.6 9 2.4 9.8 2.4.8 0 .2-.5-.5-.5-.4 0-1.6-.4-2.7-.9s-2.6-1.1-3.3-1.4c-1.2-.4-1.9-1.2-.8-.8 6.8 2.1 16 3.1 17.9 1.9.1-.1 1.4-.2 2.8-.4 3.2-.4 8.7-1.5 9.1-1.9.3-.3-.5-.2-4.8.6-3 .6-14.5 1.1-12.4.5.8-.2.7-.2-.6-.1-.9.1-1.5 0-1.4-.1.1-.1-.1-.3-.5-.3-.3 0 1.9-.1 5-.2 4.1-.1 6.3-.3 8.1-.8 1.4-.3 3.2-.7 4-.8 1.8-.3 5.1-1.3 5.4-1.6.5-.5-.2-.6-1.4-.2-1.2.4-2.4.6-6.9 1.3-1.2.2-3.3.5-4.8.7-3.8.6-8.1.5-13.1-.1-3.7-.5-5-.8-7.7-1.6-.3-.1-1.2-.6-1.9-1-1.7-1.3-2-1.3-2.9-.3m-54.7 1.6c-1.1 2.8-2.5 8.8-2.1 9.2.1.1.2-.1.2-.4 0-.3.7-2.7 1.5-5.4 1.5-5.2 1.7-6.5.4-3.4m281.9-.1c-1.8.8-2.7 2.9-2.4 5.8.3 3.1 1 3.8 1 .9 0-2 .3-3.4.9-4.2.4-.5.4-.4.1.4-.5 1.9-.3 2.4.4 1.1 1-1.6 1.6-1.5 2.1.2.4 1.4.2 2.3-.8 3.5-.5.6-.2 1.1.5.7 1-.6 1.3-1.8 1.3-4.9v-2.9l-.9-.4c-1.2-.7-1.1-.7-2.2-.2m15.1 1.3c-.5.5-1.6 1.7-2.4 2.7-.8 1-2.4 2.6-3.6 3.5-10.6 8.4-16.9 19.5-17.3 30.6l-.1 2.3 1.3 1.4c.7.8 1.8 2.2 2.4 3.2 2 3.3 2.3 2.9 2.2-3.2-.1-5.8.1-6.5 2.1-11.1 4-9.1 5.8-12.4 8.7-15.6 1.1-1.3 2.5-2.8 3.1-3.5s2.1-2.3 3.3-3.6c1.3-1.3 2.5-2.8 2.7-3.3.4-.8 1-1.2 1-.7s-3.1 5-6.7 9.7c-4.8 6.4-5.7 7.7-7.2 10.7-3 6.2-5.5 19-3.9 20.4.4.3.5.3.5 0 .3-1 .7-3.7.7-4.7 0-2.8 2.4-10.5 4.6-14.7 1.5-2.9 2.4-4.2 8.2-11.4 6.6-8.1 7.6-9.8 7.1-12.1-.3-1.3-1-1.6-2.9-1.4-.9.1-1.8.1-2 0-.7-.2-.8-.2-1.8.8m-202.1 2c-2.5.4-7.9 2.5-10.3 4-1.7 1.1-5.5 2.7-10.9 4.6-10.9 4-19.1 3.7-23.2-.8-1.6-1.7-2.1-1.2-.7.7 3.3 4.5 10.6 5.1 21.6 1.8 1.7-.5 3.1-.9 3.2-.8.1.1 0 .1-.2.1s-.3.1-.2.3c.1.2 0 .2-.3.1s-.4-.1-.3.1c.1.2 0 .3-.2.2-.3-.1-4.8 1.2-7 2.1-.8.3-4.9 1.2-6.7 1.5-1.4.2-1.4.2-.7.4 1 .3 2.2.1 6.9-.9 6.3-1.3 7.3-1.7 14.1-4.9 4.3-2 4.8-2.2 2.2-.6-6.4 3.8-9.3 4.9-16.3 6.6-6.1 1.5-7.3 1.5-12 .7-1.9-.3.1.4 2.2.8 2.6.6 7.1.3 10.7-.7 2.3-.6 2.7-.5.9.2-5.3 2.4-13.5 2.9-17.2 1.2-3.6-1.7-6.9-5.9-7.4-9.5-.3-2.1-1-2-1 .2.1 3.3 2.9 7.8 6.3 10 2.1 1.4 1.1 1.4-1.7-.1-2.9-1.5-4-2.6-5.4-5.4-1.6-3.4-2.1-3.2-.9.4 1.9 5.6 8.1 9 15.6 8.4l1.8-.1-1.2.5c-2.1.9-7.9 1.1-10.4.3-.5-.2-.6-.1-.5.3.1.8 1.2 1.2 4.3 1.5 4.4.5 6.8-.3 15.5-5.1 2.3-1.3 6.8-3.6 9.9-5.2 5.6-2.8 12.3-6.9 16.3-10a52 52 0 0 0 3.9-3.2c0 .1-.4.2-.7.3m-99 6.8c-2.7 10.7 1.4 21 11.3 28.4 2.3 1.7 9.6 4.9 11.3 4.8.6 0 .5-.1-.3-.4-2.4-.9-7.4-3.7-9.4-5.3-1.5-1.2-1-1.2.6 0 3.3 2.2 9 4.7 11.9 5 1.2.2 1 .1-1.6-1-10.9-4.5-18.1-13.9-19.2-24.8-.3-3.4-.9-4.9-.6-1.8.3 4.4 2.5 12 4.3 15.5.9 1.7 1 2.1.5 1.5-1.9-2.2-3.4-5.8-4.8-11.2-1-3.8-1.1-3.5-.5.8.4 3 .7 3.7 2.1 6.9.6 1.4.8 1.9.4 1.5-1.1-1.3-2-3.1-3.1-6-1.2-3.1-1.5-3.1-.6 0 .6 2.2.7 2.7.1 1.7-1.7-3.1-2.5-9.9-1.9-15.1.8-4.8.7-4.9-.5-.5m100.3.2c-2 1.3-4.5 2.9-5.6 3.5-1.1.6-3.5 2-5.4 3-6 3.5-17.1 9.6-19.7 10.9-6.9 3.4-13 6.8-18.1 10.1-1.8 1.2-3.5 2.2-3.7 2.3-.4.2-4.5 2.8-6.7 4.4-11.2 8-17.9 14.4-26.9 25.7-1.1 1.4-2 2.7-1.9 2.8.1.1 0 .2-.2.1-.2 0-.4.2-.4.5 0 .5-3.2 5.4-3.5 5.4-.2 0 0-.3 1-1.7s1.1-1.7 1-1.7c-.4 0-4.6 6.3-7.4 11.3-1.5 2.7-.4 1.4 1.5-1.7 1.7-2.8 2.8-4.3 1.9-2.4-1 2 .4 3 1.8 1.3.7-.8.6-.6-.4 1.2-.6 1.2-1.7 3.2-2.3 4.5s-1.8 3.5-2.6 4.9c-2 3.6-3.9 10.8-3.1 12.1.3.5 1.8-.8 2.4-2.1.3-.7.7-1.5.9-1.7s1.1-2 2.2-3.9c1-1.9 2.8-4.8 3.8-6.5 1.1-1.7 2.4-3.9 3-5 1.8-3.2 1.7-2.5-.4 2.1-1.1 2.4-2.3 5.1-2.7 5.9-.4.9-1.6 3.4-2.6 5.6-2.1 4.2-3.4 7.6-4.4 10.7-.3 1-1.2 3.8-1.9 6.3l-1.4 4.4.1 3.5c.1 1.9.3 3.7.4 4 .2.3.3.4.3.1 0-.2.4-1.4.9-2.7s1.3-3.5 1.8-5c2.2-6.9 5.6-15.4 7.2-17.7.6-.8 1.4-2.2 1.8-3 1-1.9 1-1.9.4.7-.7 3.1-1.6 9.2-3.2 21.9-.3 2.3-.7 4.7-.8 5.2-.1.5-.3 2.3-.3 4v3.1l3.4 1.5c4.7 2 4.2 2.4 4.4-3.4.8-22.2 4.9-42.6 10.8-54.5 5.3-10.5 9.3-15.9 17.7-24.2 9.2-9.1 13.8-13.1 19.7-17.3 3-2.1 8.5-6 10.7-7.4 1.2-.8 3.7-2.6 5.5-4 1.8-1.3 4.5-3.3 6-4.3 4.8-3.3 19.9-15.5 18.9-15.4-.3.2-1.9 1.3-3.9 2.6m38.3 2.6c-6.8 7.2-15.1 15.2-20.9 20.1-4.3 3.6-15.9 15.1-19.1 19.1-6.7 8.2-8.1 10-9.3 11.8-4.3 6.4-12.2 21.9-15.3 29.9-1.6 4.1-2.6 7.5-3.8 12.4-1.5 6-1.6 6.8-2.8 18.9-.5 5-.5 14 .1 16.8.2 1.3.5 3.4.6 4.7.2 2.2.5 3.1 1 2.8.6-.4.7-1.6.5-6.3-.5-8.6-.4-11.2.7-19.1 2.7-19.3 5.8-28.4 15.6-46.5 3-5.6 6.9-12.2 7.5-12.7.1-.1.6-.8 1.2-1.6 2.4-3.3 6.2-8 8.7-10.5 1.4-1.5 4.1-4.3 6-6.3 1.9-2 8.1-8.3 13.8-14 5.7-5.7 11.1-11.4 12-12.5 3.4-4.3 9-11.9 8.7-11.9-.4-.1-2.6 2.1-5.2 4.9m169.6-4.3c-.4 1.9.5 3.8 2.9 5.5 1.7 1.3 1.8 1.8.5 6.2-.6 2.1-.5 3.4.2 2 1.2-2.7 1.8-6.4 1.3-8.5-.2-1-2.4-3.7-3.1-3.7-.3 0 .7 2 1.4 2.9.8 1.1.6 1.5-.3.6a7.6 7.6 0 0 1-2.3-4c-.4-1.8-.4-1.8-.6-1m-338.3 1.6c0 .4.2 2.2.4 3.9.2 1.8.5 6.9.6 11.3.3 8.3.5 10.3 1.6 13.3 1.4 4 3 5.3 1.8 1.4-1.1-3.6-1.2-4.7-1.5-13.6-.2-9.1-.7-13.4-1.8-16.1-.4-1.1-1.1-1.3-1.1-.2m332.4 4.3c-.9 1-1.9 2.3-2.3 3-.4.7-1.4 2.2-2.2 3.4-2 3-3.9 9.3-4.6 15.7-.4 3.6-.9 4.9-2.7 8.4-1.6 3-1.7 3.5-.8 3.5 2.3 0 10.5-16.2 11.9-23.3.2-1.2.6-3.2.8-4.5.2-1.3.8-3.5 1.3-4.9 1-3.4.7-3.7-1.4-1.3m-201.1 7.2l-8.5 8.5v5.6c0 3.1.1 5.8.2 5.9.6 1 2.4-.2 5.3-3.7 1.9-2.2 2-2.2 2 .3v1.9l-3.2 3.4c-1.8 1.9-3.2 3.5-3.2 3.7 0 .9 1 .4 3.1-1.4 1.2-1.1 3-2.5 3.8-3.2 2-1.7 2.1-2 1.7-5.8-.6-4.6-.3-4.9 2.8-3.3 2.6 1.4 3.3 1.3 4.7-.6 1.3-1.8 5.2-6.5 8.6-10.2 3.3-3.6 3.9-4.5 3.2-4.5-.7 0-2.8 1.9-8.3 7.5l-6.1 6.1-1.1-.6c-.6-.3-1.2-.6-1.3-.7-.1-.1.6-.9 1.5-1.8 2.9-2.9 6.7-7.5 6.7-8 0-1-1-.4-3.5 2.1-1.4 1.4-4.9 5-7.8 7.9-2.9 2.9-5.5 5.6-5.8 5.9l-.6.5.4-.5c2-2.8 6.2-8.4 7.6-9.9.9-1 2.5-3 3.6-4.4s2.1-2.7 2.3-2.9c.5-.4.5-1.3 0-1.3-.4 0-3.3 2.9-4.7 4.7-.5.6-1.8 2-2.9 3.2-1.1 1.2-2.9 3.2-4 4.5-1.9 2.3-2 2.3-2.2 1.6-.2-.6 0-1 2-3.3 1.2-1.4 2.9-3.3 3.6-4.3s2.4-2.8 3.7-4.1c2-2.1 5.6-6.8 5.6-7.2 0-.6-1.8 1-9.2 8.4m205.9-5.1c-.4.8-.8 1.8-1 2.1-.4.7-1.3 4.1-1.3 4.8 0 1.5-2.2 7-4.1 10.3-1.1 1.9-2.4 4.3-2.8 5.2-1.2 2.4-3.3 6.2-4.7 8.3l-1.1 1.8 1.3 1.3 1.3 1.3 1.1-2.2c.6-1.2 1.1-2.4 1.1-2.7 0-.3.6-1.3 1.3-2.4 1.8-2.8 6.4-12.4 7.1-15 .7-2.6 2-8.8 2-10 0-.4.2-1.5.5-2.3.9-2.6.3-3-.7-.5m-88.3 3.5c-1.4 1.2-1.5 3-.1 5 1.3 1.8 1.5 1.9 1.7.7.2-1.2.7-1.9 1.8-2.4s.7-3.5-.5-3.5c-.2 0-.8-.1-1.4-.1-.7-.2-1.1-.1-1.5.3m101.8.9c0 .1.3.6.6 1.3.9 1.7 1.4 3.7.9 4-.6.4-.5 4.6.2 5.5.8 1.1 1.3 1.2.8.1-.4-.8-.4-1 0-3.2.4-1.8.4-2.5.2-3.4-.4-1.3-2.7-5-2.7-4.3m-3.6 6.5l.2 2.3-1.2 2.5c-1.1 2.3-1.2 2.6-1 3.3.4.9.1 2.5-.5 4.1-.4.9-.4 1.1-.1 1.1.9 0 1.9-2.4 2.4-5.9.2-1 .4-1.5 1.7-2.7 2.1-2.1 2.6-4.2 1.4-5.6-.7-.8-.9-.5-.7 1.1.1 1.1 0 1.7-.2 2-.3.5-.4.4-.5-1.2-.1-1.7-.8-3.4-1.3-3.4-.3.1-.3.9-.2 2.4m-307-.9c.7 3.5 6.2 10.4 10.3 12.7 2.9 1.7 9.2 3.3 12.5 3.2h.9l-.9-.2c-.5-.1-2.2-.4-3.7-.7-3.6-.6-4.7-1-3-1.1l1.2-.1-1.9-.6c-3.4-1.1-4.6-1.9-8.6-5.5a31.3 31.3 0 0 1-5.8-6.9c-1-1.9-1.2-2.1-1-.8m302.6-.3c.1.3.4 1.2.6 1.9 1 2.7 0 5.7-3.1 10-1 1.4-2 3.1-2.3 3.9-.3.8-.5 1.2-.6.9-.2-1 .9-3.5 3-6.7l.5-.8-.8.6c-4.6 3.3-5.3 6.7-2.4 12.4 1.6 3.1 1.8 3.8 1.8 5.1 0 1.5.1 1.4-2.5 5.1-.7 1.1-1 2.7-.6 3.8.3.8.6.4.6-.6 0-1.5.3-2.2 2-4 .8-.9 1.6-2.1 1.8-2.6.2-.5.5-1.3.8-1.8.6-1 .6-2.3-.1-5-.6-2.5-.3-5.5.7-6.6.2-.3.4-.6.3-.6-.8-.8-1.8 2.9-2 7.2-.2 3.9-.5 4-.9.2-.1-1.3-.2-2.1-.2-1.8-.1 1.5-.6-.5-.6-2.5 0-2.7.3-3.6 2.7-6.5 3.4-4.4 4.2-7.3 2.7-10.3-.5-1.8-1.7-2.5-1.4-1.3M274.5 268c0 .2 4.8 3.6 6.3 4.4 2.3 1.3 3.6 2.3 7.3 6.1 1.8 1.9 3.7 3.6 4.1 3.9 1.1.8.7 1-.9.5-2.1-.7-5.2-.9-10.1-.8-4.3.1-4.8.1-7.7-.6-.4-.1-.5-.1-.1.1.2.1 2 .6 3.9 1.1 9.7 2.4 13.9 4.4 19 9.3 2.9 2.8 6.5 10.2 7.7 15.8.7 3.3 3.5 7.7 5.3 8.1 1.6.4 1.9-.6.6-1.8-1.2-1.1-2.6-3.9-3.6-7.2-.5-1.5-1.2-3.9-1.8-5.1-1.1-2.7-1-2.6-.5-2.6.2 0 1.3 1.8 2.6 4.4 1.2 2.4 2.2 4.4 2.3 4.3.8-.8-3.5-11.3-6-14.5-1-1.3-2.4-3.4-2.9-4.5-1.1-2.2-3.9-6.6-6-9.3-2.6-3.4-10.4-8.3-17.5-11.2-2-.5-2-.5-2-.4m17.2 1.2c-.6.2-1.4 2.3-1.1 3.1.6 1.9 2.4 4 3.4 4 .6 0 .5-.4-.4-1.3-1.3-1.4-.9-2.4.9-2.4 2 0 2.6-.9 1.5-2.2-.6-1-2.8-1.6-4.3-1.2m-248.3 3.3c.3 4.8 2.1 11.6 4.1 16.2 1.6 3.7 1.6 3.9-.2 2s-3.3-4.4-5.1-8.6c-2.3-5.2-2.9-2.9-.6 2.5 3.5 8.2 10.9 15.4 21.1 20.4 4 2 4.9 2.3 5.2 1.8.3-.4-.6-1.1-3.3-2.7-10-6-17.3-17-20.7-31.2l-.6-2.7.1 2.3m339.9 1.4c-.6 1-.6 1.2-.2 1.4 1.1.7 1.6 4.1 1 6.3-.2.6-.2 1.1-.2 1.1.3.3 1.5-2.7 1.5-3.5 0-.5.1-.9.3-1 .3-.2.6 1.3.5 2.2-.1 1 .7 1 1.1 0 .6-1.4-.4-4.5-2-6.6-.9-1-1.4-1-2 .1m6.6 1.2c1.6 3.2 1.3 9.1-.4 9.1-.5 0-1.4 1.1-1.3 1.4.4 1 2.8-.8 3.9-2.9 1.5-2.9 1.1-5.5-1.3-7.8-1.2-1.1-1.5-1.1-.9.2m-85.3-.2c0 1.4 4.6 5.9 8.3 8.2 5.2 3.2 8.8 7.5 9.2 10.9.3 2 .8 1.8.8-.3 0-3.7-3.7-9.5-7.2-11.4-.4-.2-1.2-.8-1.9-1.2-.7-.5-2.1-1.5-3.2-2.2-1.1-.7-2.8-2-3.7-2.8-1.6-1.4-2.3-1.8-2.3-1.2m-61.2 1.6l-2.5 3.8c-3.1 4.5-7.1 12.1-10 18.9-.7 1.6-1.7 3.7-2.2 4.7-1.7 3.4-6.7 16.2-9.5 24.2-2.2 6.4-3.4 10.5-4.2 14.8l-1.1 5.8c-.7 3.7-1.9 16-2.3 22.9-.2 4.5.1 11 .5 9.9.2-.4.4-2.5.5-4.7.2-4.7.9-12 1.3-12.6.1-.2.2-.9.2-1.4 0-1.2 1.4-8.1 2.4-12 .4-1.6 1.3-4.8 1.8-7.1l1.3-4.9c.2-.4.9-2.8 1.6-5.3 2.2-7.5 3.9-12.5 6.1-17.5.6-1.4 1.5-3.7 2-5.1.5-1.4 1-2.8 1.2-3.1.1-.3.5-1.2.8-2 1-2.6 7.6-15.2 8.9-17.1 5.4-8.1 7.6-11.5 7.6-11.7 0-.3-3-2.4-3.4-2.4.1.3-.4 1-1 1.9m56.6.2c-.4.6 1.2 3.4 3.2 5.6 1.5 1.7 2.1 2.9 2.9 6.3 1.1 4.4 2.7 7.4 5.3 9.5 3.7 3.1 4.7 1.9 1.7-2.1-1.6-2.2-2.6-4.1-2.8-5.7l-.2-1.2 1.8 1.3c3.9 2.7 4.8 4 5.3 7.8.4 2.5.8 3.8 1.7 4.7.7.8.8.5.4-.8-.2-.7-.5-3-.6-5.2-.4-7-4.1-11.7-10.7-13.7-1.9-.6-5.4-3.5-6.7-5.5-.8-1.2-1.1-1.4-1.3-1m89.7 1.5c0 2.8-1.1 4.5-5 7.7-4.4 3.6-5.4 7.3-2.8 11 .9 1.4 1.1 1.6.5 1.3-3.4-2.2-3.6-7.6-.5-11.1.6-.6 1.2-1.4 1.5-1.7l.5-.6-.9.4c-2.3 1-3.9 3.4-4.3 6.5-.4 3.1.2 4.3 3.6 7.8 5.4 5.3 6.4 9.8 3.7 15.9-2 4.5-1.2 8.3 2 9.4 2 .7 2.6.2.9-.6-2.2-1.1-3-4.4-1.7-6.8 4.8-8.6 4.8-14.1-.3-20.4-2.5-3.1-3-4.6-2.4-7 .4-1.4.2-1.8-.6-1-1.6 1.7-.9 5.3 1.9 9.4 1.3 1.9 2 3.3 2.4 4.7.4 1.6.2 1.4-.9-.6-.5-1-1.6-2.5-2.3-3.4-.7-.9-1.3-1.7-1.3-1.8 0-.1-.4-.7-.9-1.2-2.6-3-.9-7.5 4.5-11.6 2.6-2 4-5.8 2.6-7.2-.2-.3-.2-.1-.2.9M49 280.6c.4 2.7 4.9 8.8 9 12.4 5.9 5.2 9.4 6.9 15.1 7.7l3.3.4 1-1c1.4-1.3 1.4-1.4-.8-1.6-6.6-.7-7.5-.9-10.6-2.4-6.8-3.4-11-7.2-15.5-14.4-1.3-2.2-1.8-2.5-1.5-1.1m285.6.4c-1.7.5-3.1 2.6-3.1 4.6 0 1.3 1.2 5.6 1.6 5.6.5 0 1.4-1.3 1.4-2 0-2.9 5.5-4.6 8.3-2.6 3 2.3 2.4-.5-.9-3.6-2.1-2.1-4.6-2.8-7.3-2m-76.2.7c-.2.4-.5 1-.6 1.4-.1.4-1.5 3.4-3.1 6.7-4.1 8.4-4.9 10.7-3.8 11.1.2.1.4.3.4.4 0 .1.3.7.6 1.2s1 1.7 1.4 2.5l.8 1.5-.7 1.7-.7 1.7-.9-1.7c-2.7-5.3-4.7-6.3-5.2-2.5-.1.7-.7 3.5-1.4 6.1-.6 2.6-1.2 5-1.3 5.3-.2.9.6 1.5.9.7.5-1.2 2.5-6.5 3-8.2.7-2.1.7-2.1 2.1.7a10 10 0 0 0 1.4 2.4c.2 0-.9 3.6-1.2 3.9-.3.3-.2 1.4.2 1.6.7.3 4-.4 7.9-1.7 2.1-.7 4.6-1.4 5.6-1.5l1.9-.3.6-1.9c2.3-7.2 3-9.2 4.3-12.7 1.6-4.4 4.5-13.6 4.3-13.8-.2-.2-1.2 1.6-2 3.8-1 2.7-3.2 7.8-5.4 12.4-1 2-2.1 4.7-2.6 6.1-.5 1.4-.9 2.7-1.1 2.9-.2.4-3.3 1.5-3.7 1.3-.4-.2 2.4-9.5 5.2-17.4 1.8-5.1 1.7-5.1-1 .2a87.5 87.5 0 0 1-2.4 4.6c-.3.4-2.3 5.3-3.5 8.5-1.8 5-2 5.4-3.3 6.1-1.7.9-1.7.9 0-4.7.8-2.8 1.9-6.5 2.4-8.4.5-1.8 1.4-4.8 2-6.6 1.8-5.6 1.1-4.2-3.2 6.2-.5 1.1-.9 2.1-1 2.1-.3 0-2.3-3.6-2.2-4.1.1-1 1.4-5.2 2.5-8.1 3.7-9.5 3.9-10.1 3.5-10.1-.2-.1-.5.2-.7.6M129 290.6c-1.8 1.8-4 4.1-4.8 5.2l-1.5 2 .3 1.8c.7 3.6 2.1 7.3 4.5 11.7 1.6 2.9 1.4 3 4-.9 3.9-5.8 4.4-6.4 5.8-7 .7-.3 1.3-.5 1.4-.4.1.1-1.1 2.7-2.7 5.4-.5.9-1.5 2.7-2.3 4-1 1.8-1.7 3.4-1 2.5 0-.1.7-.9 1.4-1.8 3.9-5 5.7-7.5 6.8-9.1 1.9-2.9 3.5-4.5 4.3-4.5.3 0-.7 2-2.8 5.2-1 1.6-3 4.9-4.4 7.3-4.6 7.9-4.5 7.7-3.6 7.7.5 0 2.3-2.5 5.8-7.7.9-1.4 2.8-4.1 4.1-6 1.3-1.9 3.2-4.8 4.2-6.4 1-1.6 1.9-3 2-3.2.2-.2.2-.5.2-.6-.1-.3-9.4 3.3-11.8 4.6-.7.4-2.2.9-3.2 1.3l-1.8.6-1.6 2.4c-.9 1.3-1.9 3-2.3 3.7-.7 1.4-.7 1.4-1.5-.1-.4-.7-.3-.9 1.4-4.2l1.8-3.5 2.6-1c4.6-1.8 4.6-1.7 5.1-3 .2-.6 1-2.3 1.8-3.7 1.5-3 1.2-2.8-2.3 1.3-1.7 2-2 2.2-3.6 2.8-2.2.7-2.2.9-.2-3 1.7-3.4 1.8-4.1.5-2.6-1.3 1.4-6.4 8.8-8.2 11.9-.9 1.5-1 1.4-1.6-.9-.7-2.8.8-6.3 5.1-11.8 1.1-1.4 2-2.6 2-2.7 0-.9-1-.1-3.9 2.7m198.9-1.5c-.4.5-1 1.6-1.3 2.6-.8 2-1.1 2.4-2.2 2.8-1.3.6-1 1.7.5 1.7 1.2 0 2.2-.7 3.5-2.4.7-.9 1.4-1.6 1.7-1.6.8 0 1.1-.6.9-2-.2-2.2-1.8-2.8-3.1-1.1m10.9.2c-3.5.9-3.9 1.8-2 3.5 1.5 1.3 1.9 1.4 4.1.6 6.1-2.2 10.3.1 13.2 7.3.9 2.1 1.1 1.6.5-1-.5-1.8-3.1-6.1-4.8-7.8-2.7-2.8-6.7-3.8-11-2.6m9.5-.4c0 .1.7.7 1.5 1.3.8.6 1.5 1.1 1.5 1.2 0 .7 2.6 3 3 2.7.4-.3 1.5-.3 2.8.1 2.3.7-1.1-3.5-3.9-4.8-1-.5-4.9-.9-4.9-.5m-67.5 2.9c-1.5 1.7-4.9 9.8-6.6 15.9-1.6 5.7-2.3 8.1-3.2 10.5-.4 1.2-1 2.9-1.3 3.9-.3.9-1 3.3-1.6 5.3-3.6 12.1-6.2 28.8-4.5 28.8.2 0 .6-1.5 1.2-4.5 1.8-9.3 6.1-23.3 10.7-35 .9-2.4 2.3-6 2.9-7.9 1.5-4.3 4.3-10 6.3-12.8 1.7-2.4 1.7-2.5-.3-3.6-1.8-1-3-1.2-3.6-.6m50.8 1a9.52 9.52 0 0 0-2.3 4.3c-1.4 5.4-4.6 10.5-7.7 12.1-1.3.7-2.4 1.8-2.9 3.1-.3.7-.6 1-.9 1-1 0-1.4.4-3 2.5-1.8 2.5-2 2.6-4.1 3.4-4.1 1.5-6.3 6-4.7 9.3.7 1.3 2.1 2.4 3.1 2.4 1.2 0 1.3-.4.2-1.2-1.9-1.4-1-3.4 2.4-5.1 1.1-.6 2.8-1.7 3.7-2.6l1.7-1.5 1.3 1.3c1.6 1.5 2.5 1.8 3.9 1.2 1.4-.6 1.3-1.2-.3-1.2-2 0-3.5-1.6-3.5-3.8v-.9l.6 1.1c1 1.9 2.2 2.6 5.4 3 1.3.1 1.6.1 2.3-.4 1.2-.9 1.1-1.3-.5-1.1-4 .4-3.7-2.4.6-7.4 1-1.1 1.9-2.3 2.1-2.7 2.8-5.3 4.2-8.7 4.2-10.4.1-3.4 2.9-4.6 3.8-1.6.4 1.3.7 1.3.9.1.6-3.6-4.2-7.3-6.3-4.9m7.9 1.9c-1.1.4-1.2.9-.8 2.5.3 1.2 1 1.5 1.6.8.9-1.1 4.2-.6 5.8.7l.9.8v-.7c0-2.4-4.8-5-7.5-4.1m6.2 6c-1.5.3-1.7 1.1-.5 2.6.4.6.9 1.5 1 2.1.3 1.6 1.4 1.5 1.4-.1 0-2 4.3-1.2 5.9 1.1 1.2 1.8 2 1.9 1.6.2-1.2-3.8-5.6-6.6-9.4-5.9m-6.2 2.1c-1.1 1.2-1.4 2.1-2 4.9-1.4 7.1-4.8 16.9-5.5 15.8-.3-.5-1.3 0-1.5.7-.8 3.2 1.3 7 4 7 1.2 0 1.3-.4.3-1.2-.9-.8-.8-1.5 1.2-5.3 2.6-4.9 3.3-7.6 4-15.7.3-2.9.6-3.8 1.7-4.5.5-.3 1.9.9 2.2 1.9l.2.7.4-.7c.9-1.7.1-3.9-1.5-3.9-.3 0-.6-.1-.6-.3-.5-.8-2-.4-2.9.6m7.1 7.4c-1.1 1.2-1.7 3.4-2 7-.1 1.8-.4 4.6-.5 6.2-.2 1.5-.4 3.8-.5 4.9-.1 1.6-.3 2.4-.8 3.1-.8 1.3-.9 1.3-.7-.4.2-1.3.1-1.3-.3-1.1-4.4 2.5-2.9 9.6 2.1 9.6 2.5 0 4.5-1.4 3.4-2.5-.2-.2-.5-.1-1 .4-.9 1-2.2 1-2.5 0-.3-.9-.1-1.7 1.3-3.7.7-1 1.4-2.5 2-4.3l.8-2.7V320c0-9 .6-10.2 3.7-7.4.9.9 1.3.2.7-1.4-.7-1.6-4.3-2.5-5.7-1M75 313.5c-.3.4-.5.8-.4.8.1 0 .4-.4.7-.8.3-.4.5-.8.4-.8-.1 0-.4.4-.7.8m279.5.2c0 .2.2.8.4 1.2.3.7.4 2.2.5 8.6.1 6 .2 8.2.5 9.5.2 1 .5 3.1.6 4.9l.2 3.1-.7.3c-.6.3-.9.2-1.6-.1-3.1-1.5-2.3.6.9 2.3 4.1 2.2 5-.1 3.7-9.7-.4-2.6-.5-5.5-.6-10.4-.1-7.7-.1-8.2-1.1-9.1-1-.9-2.8-1.3-2.8-.6m-121.4 3.2c-.1.4-.3.8-.3.9 0 .1-.5 1.8-1.2 3.8-1.3 4-2.9 10.7-3.2 13.3-.1 1-.6 3.8-1.1 6.3-1.1 5.4-1.1 6.4.2 2.5.5-1.5 1.4-4.5 2-6.5.6-2.1 1.4-4.8 1.7-6 .3-1.2.9-3.3 1.3-4.7.4-1.3.9-2.9 1-3.5l.2-1.1.6 1.2.6 1.2-.6 3.6c-1.9 11.8-2.1 17.9-.3 10.9 1.1-4.3 2.8-10.2 2.9-10.2.1 0 .7 1 1.3 2.3l1.1 2.3-.9 4.3c-1.6 7.5-1.6 7.2 1 6.2 1.4-.5 14.2-3.6 17.1-4.1.8-.1 1.1-.4 1.1-1.4.1-1.2 2.1-11.2 3.2-15.7.3-1.2-.3-.5-1.1 1.2-.7 1.6-1.5 4.1-2.7 8.7-.9 3.3-2 5.2-3.1 5.2-.6 0-1.6.2-2.3.4-.7.2-1.4.4-1.6.4-.4 0 1-7.8 1.9-11 1-3.7.7-4.1-.6-.8-2.3 5.7-2 5.3-3.3 3.7-1.1-1.4-1.1-1.4-.4-5.6.8-4.8.3-4.6-1.5.6-1.7 4.9-1.7 4.5.2 7 2.1 2.7 2 2.4 1 4.9l-.9 2.1-2.8.9c-1.5.5-2.8.8-2.9.8-.1-.1 1-5 1.6-7 .4-1.3-.3-2.9-5.3-12-3.4-6-3.5-6.2-3.9-5.1m-124.4 6.7c-1.3 2.9-4.5 13-5.4 16.9-1.7 7.5-1.8 8.1-1.3 7.6.3-.3 1.9-4.2 3.4-8.2.7-1.8 1.9-4.8 2.7-6.6.8-1.8 1.7-3.8 2-4.5.7-1.5.7-1.5 1.4-.3.3.5 1.3 2 2.2 3.2.9 1.2 1.7 2.3 1.8 2.5.1.1-.2 1.9-.5 3.9-.4 2-.9 4.8-1.1 6.1-.2 1.3-.5 2.9-.7 3.6-.3 1.4.1 2.1.5.9.3-.9 4.6-10.8 4.8-11 .2-.2 2.3 2.3 5.1 6.1 2.6 3.4 3 3.8 3.8 3.2.6-.4 1.4-4.3 1.9-9.3.8-7.3 1.2-10.5 1.4-10.9.1-.3.1-.4-.2-.1-.7.6-2.5 5.8-4.4 12.6-.4 1.5-.6 1.5-1.6.3-2.5-3.2-5.8-7.2-6.8-8.2-.6-.7-2.6-3-4.4-5.2-3.7-5-3.6-4.9-4.6-2.6m219.1 1.6c-.3.4-.6 1.3-.7 2-.3 2.2-1 2.7-9.7 6.3-2.8 1.2-3.5 1.3-5 1-.6-.1-.9-.4-1-.8-.2-.8-1.1-.8-1.3 0-1.2 4.4 2.7 8.1 6.1 5.8 1.4-1 3.7-2 6.1-2.9 1.3-.5 3.6-1.4 5-2.1 2.5-1.1 2.7-1.2 4.2-1 1.5.2 2.3-.3 1-.6-.7-.2-2.3-2.3-2.7-3.5-.2-.5-.5-1.2-.7-1.4-.2-.3-.4-.9-.3-1.6.2-2.2 0-2.4-1-1.2m8.9 10c-.2.2-.3.6-.3.9 0 1.1-.9 1.5-6.7 3.2-3 .9-6.9 2.6-8 3.4-1 .9-1.3.9-2.4 0-.8-.7-.8-.7-1.1-.1-.5 1-.3 1.6 1.4 3.4 2 2.1 2.3 2.1 6 .8 3.1-1.1 4.4-2.3 1.8-1.7-4.2 1-1-1.2 4.7-3.2 5.4-1.9 5.1-1.8 6.4-1.1 1.3.6 2.1.6 2.2 0 .1-.3-.2-.5-.7-.7-1.1-.5-1.9-2.1-1.9-3.7.1-1.6-.6-2.1-1.4-1.2m27.6 1.7c0 12 .8 15.2 4.4 17.7.9.6 5.4 2.7 5.9 2.7.1 0-.8-.9-1.9-2.1-2.5-2.5-4.1-5.4-4.3-7.8-.1-1.7.2-1.7 1 .1 1.2 2.7 3.2 5.2 5.7 7.1 2.6 2 4.3 3.7 6.4 6.4.7.9 1.4 1.6 1.4 1.4.2-.5-1.6-3.1-3.9-5.4-4-4.3-6.6-7.9-7.3-10.4-.3-1.2.1-.8 1.4 1.1.7 1 3.3 3.9 6 6.6 5.4 5.4 6.4 7 7.6 11.4.4 1.3 1 3.1 1.4 4 2.7 5.4 2.7 11.1 0 14.1l-.9 1.1.3-1.2c1.8-8.3-6.8-16.6-16.4-15.8-7.2.7-7.2.7-9.4 0-2.3-.7-2.3-.8 0-1.6 7.3-2.4 10-3.7 9.6-4.3-.3-.4-4 .2-10.2 1.7-3.3.8-5.3.9-7.1.3-1.6-.5-1.4-.6 2.8-1.1 3.6-.4 5.5-1 5.9-1.6.5-.9-.1-.9-6.4-1-7.9 0-9.8-.6-3.8-1.2 8.7-.8 9.2-1.7 1.1-1.9l-5.5-.1-1.8-.9c-1.8-.8-2.9-1.8-5-3.9-.6-.6-1.1-1-1.1-.9-1.5 1.9-1.5 2-.6 3.1.3.4.8 1.5 1.1 2.3.5 1.6 1.3 2.6 3.1 4 .4.3.9.9 1.1 1.3 1 1.9 3.5 3.7 6.2 4.5.9.3 2 .8 2.4 1.2 2.2 2 7.5 4.1 12.1 4.7 1.7.2 3.5.5 4 .6 1.9.5 4.4 1.3 6.3 2 1 .4 2.5.7 3.2.8 1.3 0 1.3.1 3.1 2.2 2.6 3.1 3 5.5 1.4 8.3-.7 1.2-.6 1.9.3 1.9 1.5 0 5.4-3.3 6.5-5.6.3-.7.7-1.3.8-1.4.8-.6.7-6-.1-10.1-1.1-5.6-8.9-19.8-14.9-26.9-1-1.2-6-5.1-8.2-6.4-.7-.4-1.8-1.2-2.3-1.8-1.1-1.1-1.4-1-1.4.8m-14 6.6c-.1.2 0 .6.2 1 .4.7.6.7-2.7 1-1.5.2-3.9.6-5.3.9-7.5 1.6-8.3 1.6-9.7.5-1.5-1.2-1.9-.6-.9 1.3.9 1.7 2.2 2.3 4.4 1.9 4.5-.8 16.3-1.4 18.2-1 1.8.4 3-.2 3.8-1.8.9-1.9.8-2.1-1.2-1.9-1.8.2-3.7-.4-5.4-1.8-.9-.6-1.2-.6-1.4-.1m-122 7.3c-.4 1.4-2.7 11.7-3.4 15.7-.4 2.1 1.1 1.8 5.5-1.2 1.3-.8 3.2-2 4.3-2.6l2-1.1v6c0 6.1.1 7.1.7 7.1.4 0 .9-2.1 1.6-6.9.2-1.5.8-4 1.1-5.6l.7-2.8 2.8-1.6c3.6-2 3.5-2 3.5.4 0 1.1.2 4.4.5 7.4s.5 7.2.5 9.3c0 5.3.4 4.5 1.1-2.4 1.2-11.4 1.5-21.6.6-21.6-.7 0-5.5 2.3-8.6 4.1-1.5.9-4.1 2.4-5.8 3.3-1.6.9-3.7 2.2-4.6 2.8-.9.6-1.7 1.1-1.9 1.1-.4 0-.2-5.7.2-9.7.8-4 .2-4.8-.8-1.7m-71.8 9.4c-.1.8-.1 1.5-.1 1.6.2.2.5-2.2.4-2.6-.1-.3-.2.2-.3 1m206.6 15.5c-.2 1 1.5 4.2 2.9 5.4 2.1 1.8 3 .8 1.2-1.3-.6-.6-1.5-1.9-2-2.9-1.1-1.8-1.8-2.2-2.1-1.2m7.9.8c-.8.5-1.4 2.5-1.2 4.3.4 5.4 6.2 9.9 10.3 7.9 4.6-2.2 4-7.6-.8-6.6-2.1.4-2.9.2-3.7-1-.4-.5-1-1.2-1.5-1.5-.6-.4-.8-.7-.8-1.4-.2-1.5-1.2-2.4-2.3-1.7"/></svg>