<?xml version="1.0" encoding="utf-8"?>
<!-- Generator: Adobe Illustrator 22.1.0, SVG Export Plug-In . SVG Version: 6.00 Build 0)  -->
<svg version="1.1" id="Layer_1" xmlns="http://www.w3.org/2000/svg" xmlns:xlink="http://www.w3.org/1999/xlink" x="0px" y="0px"
	 viewBox="0 0 500 500" style="enable-background:new 0 0 500 500;" xml:space="preserve">
<style type="text/css">
	.st0{fill:#231F20;}
</style>
<g>
	<g>
		<g>
			<path class="st0" d="M289.7,70.7l-1.3-0.2C289,70.6,289.4,70.7,289.7,70.7z"/>
			<path class="st0" d="M419.8,179.3l-0.5-0.2C419.5,179.4,419.6,179.4,419.8,179.3z"/>
			<path class="st0" d="M467.6,209.9l0.3,1.2C467.8,210.5,467.7,210.2,467.6,209.9z"/>
			<g>
				<path class="st0" d="M439.5,126.2c-1.3-2.3-2.8-4.4-4.2-6.6c-0.7-1.1-1.4-2.2-2.2-3.3l-2.4-3.2c-0.8-1.1-1.6-2.1-2.4-3.2
					l-2.7-3.1l-1.3-1.6l-0.7-0.8c-0.2-0.3-0.4-0.5-0.6-0.7l-2.5-2.6c-6.6-7-13.6-13.9-21.2-20.3c-7.6-6.4-15.8-12.5-24.5-17.7
					c-8.7-5.2-17.8-9.7-27.1-13.3c-9.6-3.7-19.5-6.4-29.3-8.6l-7.4-1.4l-1.8-0.3l-1.9-0.3l-3.7-0.5c-5-0.8-9.8-1.3-14.6-1.7
					c-19.4-1.9-39.3-2.2-59.2-0.4c-10.5,0.9-20.9,2.6-31.1,4.8c-5.1,1.1-10.1,2.4-15.1,3.8l-1.9,0.5l-1.9,0.6l-3.8,1.2l-3.8,1.2
					l-1.9,0.6l-1.9,0.7l-7.4,2.9c-1.2,0.5-2.4,1-3.6,1.6l-3.6,1.7l-3.6,1.7c-1.2,0.6-2.3,1.3-3.5,1.9c-2.3,1.3-4.7,2.6-6.9,3.9
					c-9.1,5.5-17.6,11.8-25.6,18.7c-8,7-15.3,14.5-22.2,22.3c-6.8,7.8-13.1,16.1-18.8,24.4c-3,4.2-5.7,8.6-8.4,13.1
					c-2.6,4.5-5.1,9-7.5,13.7c-2.3,4.7-4.5,9.4-6.5,14.3c-1,2.4-1.9,4.9-2.9,7.4c-0.8,2.5-1.7,5-2.5,7.5c-6.1,19.5-8.4,40.2-7,60.4
					c0.2,2.5,0.3,5.1,0.5,7.6l0.9,7.5c0.2,2.5,0.7,4.9,1.1,7.4c0.4,2.5,0.7,4.9,1.2,7.4l1.4,7.4L45,290c0.5,2.5,1.1,4.9,1.7,7.3
					l0.9,3.6l1,3.6c2.7,10.3,5.7,20.6,9.7,30.6c1,2.5,4.8,9.5,9.4,16.2c1.2,1.7,2.3,3.3,3.5,4.9c1.2,1.5,2.3,3,3.5,4.3
					c1.2,1.3,2.1,2.5,3.1,3.4c1,0.9,1.7,1.7,2.3,2.1c0.5,0.4,0.3-0.2-0.2-1.4c-0.3-0.6-0.6-1.3-1-2.2c-0.4-0.8-0.8-1.8-1.2-2.8
					c-0.9-1.9-1.7-4.1-2.5-6c-0.7-1.9-1.4-3.6-1.8-4.6c-2.5-6.6-5.2-15-7.3-23c-1.1-4-2-8-2.9-11.5c-0.8-3.6-1.5-6.8-2.1-9.4
					c-0.5-2.6-1.1-5.1-1.5-7.4c-0.4-2.3-0.8-4.6-1.1-6.7c-0.4-2.1-0.6-4.2-0.9-6.2c-0.3-2-0.6-3.9-0.8-5.9c-0.4-3.9-1-7.8-1.3-12.2
					c-0.2-2.2-0.5-4.4-0.6-6.8c-0.1-2.4-0.3-4.9-0.4-7.6c-0.4-11.1,0.1-22.2,1.7-33c1.7-10.8,4.5-21.4,8.2-31.6
					c3.7-10.2,8.5-20,14.1-29.2c5.6-9.3,12.2-17.7,19.6-25.9c5.9-6.5,11.9-12.9,18.2-18.9c6.3-6.1,13-11.8,20.1-17
					c0.9-0.6,1.7-1.4,2.6-2l2.7-1.9c1.8-1.2,3.6-2.5,5.5-3.6l5.6-3.4c1.9-1.1,3.8-2,5.8-3.1l2.9-1.5l3-1.3c2-0.9,4-1.8,5.9-2.6
					c2-0.7,4.1-1.5,6.1-2.2l3-1.1l3.1-0.8l6.7-1.8l7-1.5c2.4-0.4,4.7-0.9,7-1.3c2.3-0.4,4.7-0.8,7-1.1c9.4-1.3,18.7-2,28-2.1
					c9.3-0.1,18.6,0.5,27.9,1.6c4.7,0.5,9.4,1.2,14.1,1.9c2.4,0.4,4.7,0.7,7.1,1.2c2.4,0.4,4.8,0.8,7,1.3
					c19.6,3.7,37.8,11,53.9,21.3c8.1,5.2,15.6,11.1,22.9,17.7c7.3,6.6,14.2,13.8,21.2,21.4c5.8,6.4,11,14,15.6,22.2
					c4.6,8.2,8.6,17.1,11.9,26.2c3.3,9.2,6,18.7,8.1,28.4l1.5,7.3c0.3,1.2,0.5,2.4,0.6,3.7l0.6,3.7c0.9,4.9,1.3,9.9,1.9,14.9
					c0.4,5.8,0.9,11.6,1,17.5c0.1,2.9,0.2,5.9,0.1,8.6l-0.1,4.2c0,1.4-0.2,2.8-0.2,4.2c-0.7,11.1-2.6,22.1-5.8,32.7
					c-2,6.7-4.3,13.3-7.2,19.6c-2.8,6.3-6,12.6-9.7,18.4c-0.5,0.7-0.9,1.5-1.4,2.2l-1.4,2.2c-1,1.4-1.9,2.9-2.9,4.3l-3.1,4.2l-3.3,4
					c-0.5,0.7-1.1,1.3-1.7,2l-1.7,1.9l-1.7,2l-1.9,2l-3.8,4l-3.9,3.9l-1.9,2l-2,1.9c-1.3,1.3-2.6,2.5-4,3.8
					c-2.7,2.4-5.4,4.9-8.2,7.2c-5.5,4.7-11.3,9.1-17.2,13.1c-11.8,8.1-24.4,14.8-37.8,19.9c-1.5,0.6-3,1.1-4.6,1.7l-2.3,0.8
					l-2.2,0.6c-1.4,0.4-2.8,0.9-4.3,1.3l-4.4,1c-6,1.2-12.1,2.2-18.4,2.6c-12.5,1-25.4,0.5-38.1-0.9c-1.6-0.1-3.2-0.4-4.8-0.6
					l-4.8-0.7l-4.8-0.8c-1.6-0.3-3.2-0.5-4.7-0.9l-4.7-0.9c-1.6-0.3-3.1-0.7-4.7-1c-3.1-0.7-6.2-1.5-9.4-2.3
					c-1.6-0.4-3.1-0.8-4.6-1.3c-1.5-0.4-3.1-0.9-4.6-1.3l-4.3-1.4l-4.3-1.5c-5.7-2.1-11.3-4.5-16.8-7.3
					c-11.7-5.7-24.3-14.7-35.9-24.8c-11.6-10-22.2-20.9-32-29c-4.8-3.9-8.8-3.8-11.5-2.2c2.3-1.3,5.1,6.5,8.1,14.7
					c1.5,4.1,3,8.3,4.3,11.7c1.3,3.4,2.3,5.8,2.6,6.4c3.5,6.7,7.9,13.3,13,19.5c5.1,6.3,10.8,12.2,16.7,17.9
					c11.4,10.9,23.7,20.3,37.7,27.7c1.8,0.9,3.5,1.8,5.3,2.7c1.8,0.9,3.6,1.6,5.5,2.5c0.9,0.4,1.8,0.8,2.7,1.1
					c0.9,0.4,1.8,0.7,2.7,1.1c1.8,0.7,3.7,1.5,5.6,2.1c1.9,0.6,3.8,1.2,5.7,1.9c1.9,0.6,3.9,1.1,5.9,1.7c3.9,1.1,8,2,12.2,2.8
					c8.7,1.6,17.5,2.9,26.4,3.6c8.9,0.7,17.9,1,26.9,0.7c9.1-0.3,18.2-1.2,27.3-2.8l6.9-1.3c2.3-0.5,4.6-1.1,6.9-1.7
					c2.3-0.5,4.6-1.3,6.9-2c1.1-0.4,2.3-0.7,3.4-1.1l3.2-1.1c17-6.1,33.4-14.4,48.5-24.4c15.1-10.1,28.9-21.7,41.4-34.1l4-4l3.9-4.1
					l1.9-2l1-1l1-1.1l3.9-4.5c1.3-1.5,2.5-3.1,3.8-4.6l1.9-2.3l1.8-2.4c1.2-1.6,2.4-3.2,3.5-4.8l3.3-5c4.3-6.7,8.2-13.6,11.6-20.7
					c1.8-3.5,3.3-7.2,4.8-10.8l0.6-1.4l0.5-1.4l1-2.8c0.7-1.9,1.4-3.7,2-5.6c4.9-15,8.2-30.6,9.4-46.3l0.4-5.9l0.2-2.9l0-2.9
					l0.1-5.9c0-1,0-1.9,0-2.9l-0.1-2.8c-0.2-7.5-0.7-15-1.3-22.5c-1.7-17.9-4.7-36.2-9.6-54.3c-2.6-9-5.4-18.1-9.1-27
					C448.9,143.6,444.7,134.8,439.5,126.2z"/>
			</g>
		</g>
	</g>
</g>
<g>
	<g>
		<g>
			<path class="st0" d="M332.4,239l-0.3,0.5C332.3,239.3,332.4,239.2,332.4,239z"/>
			<path class="st0" d="M344.5,158.8l0.6-0.5C344.8,158.5,344.6,158.7,344.5,158.8z"/>
			<path class="st0" d="M310.5,204.5L310.5,204.5C310.4,204.6,310.4,204.5,310.5,204.5z"/>
			<g>
				<path class="st0" d="M310.3,206.2c-0.6,0.5,1.6-1.5,2.6,0.9c0.1,0.2,0.1,0.3,0.2,0.5l0.1,0.3l0,0.2l0,0.1l0,0l0,0.1l-0.1,0.2
					l-2.4,5.4c-1.6,3.6-3.2,7.2-4.9,10.8c-3.4,7.1-7.1,14.1-11.6,20.7c-4.8,6.9-9.7,13.7-14.8,20.4c-2.5,3.3-5.1,6.9-7.3,9.6
					c-1.1,1.4-2.1,2.5-3.2,3.5c-1.1,1.1-2.4,2.2-3.9,3.3c-2.9,2.2-6.7,4.6-10.3,6.8c-3.6,2.2-7.2,4.3-10.9,6.3
					c-7.4,4-14.9,7.8-22.6,11.5c-14.8,7.2-28.3,17-43.8,22.9c-4.1,1.6-8.4,2.9-12.5,4.4c-2,0.7-11.1,7.3-12.6,9.1
					c-0.7,0.8,6.1,0.3,8,0.1c6.2-0.6,15.4-2,20-3.2c9.2-2.5,13.5-3.7,22.4-7.3c18.4-7.6,36.1-15.7,55-22.4c3.8-1.3,7.6-3,11.3-4.8
					c3.6-1.8,7.5-3.8,11.7-6.8c2-1.4,4.2-3.2,6.1-5.1c1.9-1.8,3.5-3.7,5-5.4c1.4-1.6,2.7-3.3,4.1-4.9c1.3-1.6,2.7-3.1,4.1-4.6
					c11.9-13.2,24.1-26.4,33.8-41.5c1.3-2,2.6-4,3.9-5.9l4.2-6.3c4.6-7.1,9.4-14.2,13.8-21.5c1.1-1.8,2.2-3.6,3.2-5.5l1.4-2.7
					c0.5-0.9,0.9-1.8,1.3-2.6c1.6-3.5,3.3-7,4.4-10.1c0.3-0.8,0.5-1.6,0.7-2.3c0.1-0.4,0.2-0.8,0.3-1.1l0.2-1l0.2-1l0.1-1
					c0.1-0.6,0.1-1.3,0.1-1.9c0-0.6-0.1-1.3-0.1-1.8c-0.1-0.6-0.1-1.2-0.2-1.7c-0.2-1.1-0.5-2.1-0.8-3c-0.4-0.9-0.7-1.7-1.1-2.5
					c-0.2-0.4-0.4-0.8-0.7-1.2c-0.1-0.2-0.2-0.4-0.4-0.6c-0.2-0.3-0.4-0.4-0.5-0.6c-1.3-1.2-2.5-2-4.2-2.7l-0.6-0.3l-0.8-0.3
					l-1.5-0.5l-3.1-1l-0.8-0.2c-0.3-0.1-0.4-0.2-0.9-0.1l-2.5,0.2l-4.9,0.4l-2.4,0.2c-0.4,0-0.9,0.2-1.4,0.3l-1.5,0.4l-5.9,1.6
					c-3.9,1-8,2.3-12,3.5l-6,1.8l-6,1.9l-6,1.9l-3,0.9l-2.2,0.7c-10.4,3.4-20.9,7-31.3,10.6c-8.8,3.1-17.6,6.6-26.1,10.4
					c-4.3,1.9-8.6,3.9-12.8,5.9l-6.4,3.1c-1.1,0.6-2.5,1.3-4,2.2l-1.2,0.7c-0.4,0.3-0.9,0.6-1.3,0.9c-0.9,0.6-1.7,1.2-2.5,1.9
					c-0.8,0.7-1.6,1.3-2.3,2c-0.7,0.7-1.5,1.5-2.1,2.2c-1.2,1.4-2.2,2.7-3.1,3.8c-0.9,1.2-1.6,2.2-2.2,3.1l-1.9,2.8l-7.6,11.2
					c-13.9,20.7-29.4,39.5-41,61.2c-6.1,11.5-14.9,26.5-14.2,39.6c0.2,3.2,2.5,5.6,4.9,7.1c-2-1.3,1-3.6,4.6-5.7
					c3.6-2.1,7.8-4.1,8.2-4.4c5.6-3.9,10.3-9.2,15.3-14c9.8-9.1,19.8-16.5,27.7-27.5c6.9-9.6,13.4-19.3,19.9-28.9
					c3.2-4.8,6.5-9.6,9.7-14.4l4.9-7.1c0.8-1.1,1.3-1.9,1.7-2.3c0.4-0.5,0.3-0.4,0.4-0.5l0.1-0.1c0,0,0.1-0.1,0.3-0.2
					c0.4-0.2,1.1-0.6,2.1-1.1c2.1-1,4.1-2,6.2-3c21.2-9.9,42.9-19,65.5-26l0.6-0.2c0,0,0,0,0.1,0c0.1,0,0.1,0,0.1,0
					c0.1,0,0.1,0,0.2,0c0.1,0,0.2,0,0.3,0.1c0.2,0.1,0.3,0.2,0.3,0.3C310.8,205.7,310.6,206,310.3,206.2z"/>
			</g>
		</g>
	</g>
</g>
<g>
	<g>
		<g>
			<path class="st0" d="M107.8,233.9L107.8,233.9C107.9,233.9,107.8,233.8,107.8,233.9z"/>
			<path class="st0" d="M99.4,233.3l0-0.4C99.4,233,99.4,233.1,99.4,233.3z"/>
			<path class="st0" d="M97.3,268.5L97.3,268.5C97.3,268.5,97.3,268.5,97.3,268.5z"/>
			<g>
				<path class="st0" d="M100.8,270.1c1.5,0.3,3.1-0.5,4.7-2.6c1.6-2.1,3.2-5.3,4.8-5.6c1.7-0.3,3.4-0.1,5.1-1.4
					c1.7-1.3,3.4-1,5.1-0.6c1.6,0.4,3.3-2.6,4.9-1.3c0.4,0.3,0.9,0.9,1.3,1.3c0.2,0.2,1.3-1.9,1.5-2.9c0.1-0.5-0.5-2.8-0.7-3.4
					c-0.6-2-1.4-4.7-1.9-5.6c-0.9-1.7-1.3-2.5-2.3-3c-2-1.2-3.9-2-5.8-5.3c-1.5-2.7-3.2-1-4.8-2.3c-1.7-1.4-3.4-3.7-5.1-3.6
					c-1.8,0.1-3.7-2-5.5-1.7c-1.8,0.3-3.6,1.1-5.5,1.1c-1.1,0-2.1-0.2-3.2-0.5c-2.7-0.8-5.4,0.1-8-0.1c-2.4-0.2-4.7-3.9-7.2-2.7
					c-1.3,0.7-3,0.9-4.2,8.4c-0.3,1.8-0.4,5.1-0.4,7.9c0-4.7,1.4,5.1,1.5,5.5c0.6,2.8,1.3,4,1.9,5.9c1.2,3.7,2.3,8.5,3.7,9.6
					c2.8,2.3,5.6,1.7,8.4,1.8c2.4,0,4.8-0.5,7.2-0.2C97.8,269,99.3,269.8,100.8,270.1z"/>
			</g>
		</g>
	</g>
</g>
<g>
	<g>
		<g>
			<path class="st0" d="M378.3,265.8L378.3,265.8C378.3,265.9,378.3,265.9,378.3,265.8z"/>
			<path class="st0" d="M386.3,266.8l0,0.4C386.3,267.1,386.3,266.9,386.3,266.8z"/>
			<path class="st0" d="M389.8,231.7L389.8,231.7C389.9,231.6,389.8,231.7,389.8,231.7z"/>
			<g>
				<path class="st0" d="M386.6,229.9c-1.5-0.4-3,0.4-4.6,2.4c-1.6,2-3.3,5.2-4.8,5.4c-1.6,0.3-3.2,0-4.9,1.2
					c-1.7,1.2-3.3,0.8-4.9,0.4c-1.6-0.4-3.3,2.4-4.8,1.1c-0.4-0.4-0.8-0.9-1.2-1.4c-0.2-0.2-1.3,1.9-1.6,2.9
					c-0.1,0.5,0.4,2.8,0.5,3.5c0.4,2.1,1.2,4.8,1.6,5.6c0.8,1.7,1.2,2.5,2.1,3.1c1.8,1.3,3.6,2.1,5.3,5.5c1.4,2.7,3,1.1,4.5,2.4
					c1.6,1.4,3.1,3.9,4.8,3.8c1.8,0,3.4,2.1,5.2,1.9c1.7-0.2,3.5-1,5.3-0.9c1,0.1,2,0.3,3,0.6c2.5,0.9,5.1,0.1,7.7,0.5
					c2.3,0.3,4.4,4.1,6.7,2.9c1.3-0.6,2.9-0.8,4.4-8.2c0.3-1.8,0.6-5,0.7-7.9c-0.2,4.7-1.1-5.1-1.2-5.6c-0.5-2.8-1-4-1.6-6
					c-1-3.7-1.9-8.6-3.1-9.8c-2.6-2.4-5.3-2-8-2.1c-2.3-0.1-4.6,0.3-6.9-0.1C389.4,231.1,388,230.2,386.6,229.9z"/>
			</g>
		</g>
	</g>
</g>
<g>
	<g>
		<g>
			<path class="st0" d="M233.8,371.2L233.8,371.2C233.8,371.2,233.7,371.2,233.8,371.2z"/>
			<path class="st0" d="M233.3,380.9l-0.4,0C233,380.9,233.1,380.9,233.3,380.9z"/>
			<path class="st0" d="M268.5,382.9L268.5,382.9C268.6,382.9,268.5,382.9,268.5,382.9z"/>
			<g>
				<path class="st0" d="M270.1,378.9c0.3-1.8-0.6-3.6-2.6-5.3c-2.1-1.8-5.3-3.6-5.7-5.4c-0.3-1.9-0.1-3.9-1.4-5.8
					c-1.3-2-1-3.9-0.7-5.8c0.3-1.9-2.6-3.8-1.4-5.6c0.3-0.5,0.9-1,1.3-1.5c0.2-0.2-2-1.5-3-1.7c-0.5-0.1-2.8,0.6-3.4,0.8
					c-2,0.7-4.7,1.7-5.6,2.2c-1.7,1.1-2.5,1.6-3,2.6c-1.2,2.3-1.9,4.4-5.2,6.7c-2.7,1.8-1,3.7-2.2,5.5c-1.4,2-3.7,3.9-3.6,5.9
					c0.1,2.1-1.9,4.2-1.6,6.3c0.3,2.1,1.1,4.2,1.1,6.2c0,1.2-0.2,2.4-0.5,3.6c-0.8,3.1,0.1,6.1-0.1,9.2c-0.2,2.8-3.9,5.5-2.6,8.3
					c0.7,1.5,0.9,3.5,8.4,4.7c1.8,0.3,5.1,0.4,7.9,0.4c-4.7,0,5.1-1.6,5.5-1.7c2.8-0.7,4-1.5,5.9-2.3c3.7-1.5,8.5-2.8,9.6-4.3
					c2.3-3.2,1.7-6.4,1.7-9.7c0-2.8-0.5-5.5-0.2-8.3C269.1,382.3,269.9,380.6,270.1,378.9z"/>
			</g>
		</g>
	</g>
</g>
<g>
	<g>
		<g>
			<path class="st0" d="M247.3,141.1L247.3,141.1C247.3,141.1,247.3,141.2,247.3,141.1z"/>
			<path class="st0" d="M249.1,140.6l-0.1,0.6C249,140.9,249.1,140.8,249.1,140.6z"/>
			<path class="st0" d="M258.5,95.4l0.1,0.1C258.5,95.4,258.5,95.4,258.5,95.4z"/>
			<g>
				<path class="st0" d="M251.9,85.9c-3.6,3.1-7.4,8-10.3,13.7c-1.5,3-2.8,6.1-4,8.8c-1.2,2.7-2.3,5-3.7,6.6c-1.5,1.7-3,3.2-4.5,4.9
					c-0.7,0.8-1.4,1.6-2.1,2.5l-0.5,0.7l-0.3,0.5c-0.2,0.3-0.3,0.7-0.4,1c-1.1,2.9-3.2,4.5-5.5,6.2c-2.2,1.6-2,5.6-4.8,6.6
					c-0.7,0.3-1.7,0.3-2.5,0.5c-0.4,0.1-0.2,2.9,0.3,3.8c0.2,0.4,2.6,1.4,3.2,1.6c2.1,0.8,5,1.7,6.1,1.8c2.3,0.2,3.3,0.2,4.8-0.5
					c3.1-1.4,5.9-3,10.4-2.9c1.8,0.1,3-0.7,3.9-1.6l0.7-0.7c0.1-0.1,0.2-0.2,0.3-0.2c0.2-0.1,0.5-0.2,0.9-0.1
					c0.8,0.2,1.6,0.7,2.2,1.2c0.6,0.5,1,0.9,1.1,0.6c0.2-0.3,0.5,0.1,0.7,0.5c0.2,0.4,0.3,0.9,0.5,0.6c0.1-0.1,0.1-0.4,0.2-0.6
					c0.2-0.3,0.5-0.7,0.8-0.4c0.2,0.2,0.3,0.7,0.3,1.2c0,0.6,0.2,0.8,0.4,0.9c0.1,0.1,0.3,0.1,0.4,0.2l0,0l0,0l0,0l0.1,0.1l0.5,0.6
					c0.3,0.4,0.7,0.9,1,1.3c2.3,3.2,1.7,8.5,5.2,10.8c1.8,1.2,3.8,3.3,10.8,0.1c1.7-0.8,4.3-2.7,6.6-4.4c-3.7,2.9,2.6-4.9,2.8-5.4
					c1.6-2.5,1.8-4.1,2.6-6.1c1.6-3.9,4.3-8.3,3.8-10.7c-0.5-2.5-1.6-4.6-2.9-6.5c-0.3-0.5-0.7-0.9-1-1.4l-1.4-1.8
					c-1.4-1.7-2.8-3.5-4.2-5.3c-2.4-3-4.8-5.9-7.2-8.8c-2.4-2.9-4.7-5.8-7-8.9c-2.5-3.5-5.1-7.9-7.9-12
					C252.3,85.6,252.1,85.7,251.9,85.9z"/>
			</g>
		</g>
	</g>
</g>
</svg>
