<?xml version="1.0" encoding="utf-8"?>
<!-- Generator: Adobe Illustrator 22.1.0, SVG Export Plug-In . SVG Version: 6.00 Build 0)  -->
<svg version="1.1" id="Layer_1" xmlns="http://www.w3.org/2000/svg" xmlns:xlink="http://www.w3.org/1999/xlink" x="0px" y="0px"
	 viewBox="0 0 500 500" style="enable-background:new 0 0 500 500;" xml:space="preserve">
<style type="text/css">
	.st0{fill:#231F20;}
</style>
<g>
	<g>
		<g>
			<path class="st0" d="M291.4,61.1l-1.3-0.2C290.7,61,291.1,61.1,291.4,61.1z"/>
			<path class="st0" d="M429.2,176l-0.3-0.3C429.1,176,429.2,176,429.2,176z"/>
			<path class="st0" d="M456.7,211.8l0.3,1.2C456.8,212.4,456.7,212.1,456.7,211.8z"/>
			<g>
				<path class="st0" d="M429.2,132.5c-1.2-2.1-2.6-4.1-3.9-6.1c-0.7-1-1.3-2-2.1-3l-2.2-3c-0.7-1-1.5-2-2.2-2.9l-2.4-2.8
					c-0.8-0.9-1.6-1.9-2.4-2.8l-2.4-2.6c-6.3-6.8-13-13.5-20.2-19.7c-7.2-6.2-14.7-12-22.8-17.1c-8.1-5.1-16.5-9.5-25.2-13.2
					c-9-3.8-18.2-6.7-27.5-9l-7-1.6l-1.8-0.4l-1.8-0.3l-3.5-0.6c-4.7-0.9-9.4-1.5-14.1-2.2c-18.8-2.5-38-3.3-57.3-1.6
					c-10.2,0.9-20.3,2.4-30.2,4.6c-5,1.1-9.9,2.3-14.7,3.6l-1.8,0.5l-1.8,0.6l-3.7,1.2l-3.7,1.2l-1.8,0.6l-1.8,0.7l-7.2,2.8
					c-1.2,0.4-2.4,1-3.5,1.5l-3.5,1.6l-3.5,1.6c-1.2,0.5-2.3,1.2-3.4,1.8c-2.2,1.2-4.5,2.4-6.7,3.7c-8.8,5.2-17.1,11.2-24.9,17.8
					c-7.8,6.6-15.1,13.8-21.8,21.4c-6.7,7.6-12.8,15.6-18.5,23.8c-2.9,4.1-5.6,8.4-8.2,12.7c-2.5,4.4-5,8.8-7.2,13.3
					c-2.3,4.5-4.3,9.2-6.2,13.9c-0.9,2.4-1.8,4.8-2.7,7.1c-0.8,2.4-1.6,4.9-2.4,7.3c-5.8,18.9-8.4,38.8-7.4,58.5
					c0.1,2.5,0.2,4.9,0.4,7.4l0.8,7.3c0.2,2.4,0.6,4.9,0.9,7.3c0.4,2.4,0.6,4.8,1.1,7.2l1.3,7.2l1.6,7.2c0.5,2.4,1.1,4.8,1.7,7.1
					l0.9,3.6l1,3.5c2.8,10.1,6.1,20,10.2,29.6c1,2.4,4.5,9.4,8.6,16c1.1,1.6,2.1,3.3,3.2,4.8c1.1,1.5,2.1,3,3.1,4.3
					c1,1.3,1.9,2.5,2.7,3.4c0.8,0.9,1.5,1.7,2,2.1c0.4,0.4,0.2-0.1-0.5-1.1c-0.3-0.5-0.7-1.2-1.2-1.9c-0.4-0.8-0.9-1.6-1.4-2.5
					c-1.1-1.8-2-3.8-3-5.5c-0.9-1.8-1.6-3.3-2.1-4.3c-3-6.2-6.3-14.2-9-22c-1.4-3.9-2.6-7.8-3.7-11.3c-1-3.5-1.9-6.7-2.6-9.3
					c-0.7-2.6-1.3-5.1-1.9-7.4c-0.5-2.3-1-4.5-1.5-6.6c-0.5-2.1-0.8-4.2-1.2-6.2c-0.3-2-0.8-3.9-1.1-5.9c-0.5-3.9-1.3-7.9-1.7-12.2
					c-0.2-2.2-0.6-4.4-0.7-6.9c-0.2-2.4-0.4-5-0.6-7.7c-0.6-11.3-0.2-22.6,1.2-33.7c1.6-11.1,4.2-22,7.8-32.5
					c3.6-10.5,8.2-20.6,13.7-30.3c5.4-9.7,11.9-18.6,19-27.3c5.7-7,11.8-13.7,18.2-20.1c6.5-6.4,13.4-12.5,20.7-17.9
					c0.9-0.7,1.8-1.4,2.8-2l2.8-1.9c1.9-1.3,3.7-2.6,5.7-3.8l5.8-3.6c2-1.1,4-2.2,6-3.2l3-1.6l3.1-1.4c2.1-0.9,4.1-1.9,6.2-2.8
					c2.1-0.8,4.2-1.6,6.3-2.4l3.2-1.2l3.2-1l7-2.1l7.2-1.8c2.4-0.5,4.8-1.1,7.2-1.5c2.4-0.4,4.8-0.9,7.2-1.3
					c9.7-1.6,19.4-2.6,29.1-2.9c19.4-0.7,39,1.7,58.4,5.5c20.4,3.9,40,11.3,57.4,22.1c8.7,5.4,16.9,11.6,24.6,18.5
					c7.7,6.9,15,14.4,22.1,22.2c6.5,7.2,12.1,15.6,16.9,24.4c4.8,8.9,8.9,18.2,12.3,27.9c3.4,9.7,6.1,19.6,8.3,29.7l1.5,7.6
					c0.3,1.3,0.5,2.5,0.7,3.8l0.6,3.8c0.9,5.1,1.3,10.3,1.9,15.4c0.4,6,1,12.1,1.1,18.1c0.1,3,0.2,6.1,0.1,9l-0.1,4.4
					c0,1.5-0.2,3-0.2,4.4c-0.7,11.8-2.7,23.5-5.9,34.9c-2.1,7.1-4.5,14.2-7.6,21c-3,6.8-6.4,13.5-10.3,19.8
					c-0.5,0.8-0.9,1.6-1.5,2.4l-1.5,2.3c-1.1,1.5-2,3.1-3.2,4.6l-3.3,4.5l-3.5,4.3c-0.6,0.7-1.2,1.4-1.8,2.1l-1.8,2.1l-1.8,2.1
					l-2,2.1l-3.9,4.2l-4,4l-2,2l-2.1,2c-1.4,1.3-2.7,2.6-4.2,3.9c-2.8,2.5-5.6,5.1-8.6,7.5c-5.8,4.9-11.8,9.5-18.1,13.7
					c-6.2,4.2-12.7,8.1-19.3,11.6c-6.6,3.5-13.5,6.6-20.5,9.3c-1.6,0.6-3.2,1.2-4.8,1.8l-2.4,0.9l-2.4,0.7c-1.6,0.5-3.1,1-4.7,1.4
					l-4.8,1.2c-6.5,1.4-13,2.6-19.7,3.1c-13.3,1.3-26.8,1-40.2-0.2c-1.7-0.1-3.4-0.3-5-0.5l-5-0.6l-5-0.8c-1.7-0.2-3.3-0.5-5-0.8
					l-5-0.9c-1.7-0.3-3.3-0.7-5-1c-3.3-0.7-6.6-1.5-9.9-2.3c-1.6-0.4-3.3-0.9-4.9-1.3c-1.6-0.5-3.3-0.9-4.9-1.4l-4.7-1.5l-4.7-1.7
					c-6.2-2.3-12.3-5-18.2-8.1c-12.6-6.5-26.2-16.3-38-27.6c-11.9-11.2-22-23.5-30.1-33.1c-3.9-4.6-6.3-5.5-7.5-4.8
					c1-0.6,4.6,6.9,8.6,14.5c2,3.8,4.1,7.7,5.8,10.7c1.7,3,3.1,5.2,3.4,5.7c4.1,6.1,8.9,12.2,14.3,18c5.4,5.8,11.2,11.3,17.3,16.3
					c11.7,9.7,24.2,17.7,37.8,23.9c1.7,0.7,3.5,1.5,5.2,2.2c1.7,0.7,3.5,1.3,5.3,2c1.8,0.7,3.6,1.2,5.4,1.8c1.8,0.6,3.6,1.2,5.4,1.7
					c1.8,0.5,3.7,1,5.6,1.6c1.9,0.5,3.8,0.9,5.7,1.4c3.8,1,7.8,1.7,11.8,2.4c8.4,1.4,16.9,2.5,25.5,3.1c8.5,0.5,17.1,0.7,25.7,0.4
					c8.6-0.4,17.2-1.3,25.8-2.8l6.4-1.3c2.1-0.5,4.3-1.1,6.4-1.6c2.1-0.5,4.2-1.2,6.4-1.9c1.1-0.3,2.1-0.7,3.2-1l3-1.1
					c16.2-5.9,31.7-13.7,46.1-23.2c14.3-9.6,27.6-20.7,39.7-32.7l3.9-3.8l3.7-3.9c2.5-2.6,5-5.4,7.4-8.2c1.2-1.4,2.4-2.9,3.5-4.3
					l1.7-2.2l1.7-2.3c1.1-1.5,2.2-3,3.3-4.5l3.1-4.6c1.1-1.5,2-3.2,2.9-4.7c0.9-1.6,2-3.2,2.8-4.8l2.7-4.9c0.9-1.6,1.6-3.3,2.5-5
					c1.7-3.3,3.1-6.8,4.5-10.2l0.5-1.3l0.5-1.3l1-2.6c0.6-1.8,1.3-3.5,1.9-5.2c4.7-14.1,7.8-28.8,8.9-43.6l0.3-5.6l0.2-2.8l0-2.8
					l0.1-5.6c0-1.9-0.1-3.6-0.1-5.5c-0.2-7.3-0.7-14.5-1.3-21.7c-1.6-17.3-4.7-34.8-9.6-52.1c-2.5-8.6-5.3-17.2-8.9-25.6
					C438,148.7,434.1,140.4,429.2,132.5z"/>
			</g>
		</g>
	</g>
</g>
<g>
	<g>
		<g>
			<path class="st0" d="M315.8,226.9l-0.3,0.4C315.7,227.1,315.8,227,315.8,226.9z"/>
			<path class="st0" d="M318,173.8l0.1-0.2C318,173.7,318,173.8,318,173.8z"/>
			<path class="st0" d="M307.4,191.6l-0.4,0.1C307.2,191.7,307.3,191.7,307.4,191.6z"/>
			<g>
				<path class="st0" d="M323.1,187.7c-0.1,0.1,0.1-0.1,0.1,0.1c0,0,0,0,0,0c0,0,0,0,0,0.1l-0.3,0.5l-0.6,1.1l-1.1,2.1l-2.3,4.3
					c-1.6,2.9-3.1,5.7-4.7,8.6c-6.4,11.8-12.7,23.6-20.6,34.8c-4.2,5.9-8.4,11.7-12.8,17.3c-2.2,2.8-4.4,5.8-6.5,8.3
					c-1.1,1.2-2.2,2.4-3.4,3.4c-1.2,1-2.5,2-3.9,3c-2.8,1.9-6,3.7-9.1,5.6c-3.1,1.8-6.2,3.5-9.4,5.2c-6.3,3.4-12.7,6.7-19.2,9.9
					c-12.6,6.2-24.7,13.3-37.6,18.8c-3.5,1.5-6.9,2.8-10.4,4.2c-1.7,0.7-9.8,5.4-11.3,6.5c-0.7,0.5,4.7-0.9,6.1-1.3
					c4.9-1.3,12.2-3.6,15.9-4.9c7.5-2.8,11-4.1,18.4-7.4c15.4-6.9,30.2-14,45.5-20.8c3.1-1.4,6.2-2.9,9.2-4.5c3-1.6,6.2-3.3,9.3-5.5
					c1.6-1.1,3.1-2.4,4.6-3.8c1.4-1.4,2.7-2.8,3.9-4.2c1.2-1.4,2.3-2.7,3.4-4.1c1.1-1.3,2.2-2.7,3.3-4c9.6-11.4,19-23.1,27.2-35.6
					c4.4-6.7,8.7-13.3,13.1-20c2.2-3.4,4.3-6.8,6.3-10.3c0.9-1.6,1.9-3.2,2.6-4.9l0.6-1.2l0.5-1.2c0.4-0.8,0.7-1.6,1.1-2.4
					c0.7-1.6,1.4-3.3,1.9-4.9c0.6-1.6,0.8-3.1,0.8-4.2c0-1.2-0.2-2.1-0.6-2.9c-0.2-0.4-0.3-0.8-0.5-1.1c-0.1-0.2-0.2-0.3-0.3-0.5
					c-0.2-0.3-0.3-0.3-0.5-0.5c-0.6-0.6-1.4-0.9-2.2-1.3c-0.8-0.4-1.8-0.7-3.2-0.7c-0.3,0-0.7,0-1.1,0.1c-0.4,0.1-0.8,0.2-1.3,0.3
					l-2.6,0.6l-5.1,1.2c-0.9,0.2-1.7,0.4-2.5,0.6l-2.6,0.7l-3.9,1.1c-7.5,2.2-15.1,4.6-22.6,7c-8.7,2.8-17.5,5.8-26.1,9
					c-10.9,4-21.6,8.6-32.2,13.5l-3.9,1.9c-1.3,0.6-2.6,1.2-4.2,2.1c-1.5,0.8-3.2,1.9-4.8,3.3c-1.5,1.4-2.8,2.8-3.8,4.2
					c-1,1.4-1.9,2.6-2.7,3.8l-2.5,3.6l-4.9,7.2c-11.7,17.4-23.4,34-33.7,52.1c-5.5,9.6-13.1,22.3-15.5,31.7
					c-0.6,2.3,0.2,3.6,1.1,4.2c-1.6-1,8.2-9.2,8.8-9.9c3.7-4,7.2-8.7,10.8-13.2c6.9-8.6,13.6-15.9,19.9-25.5
					c6.7-10.1,13.2-20.1,19.8-30l5-7.4l2.5-3.7c0.8-1.2,1.7-2.5,2.5-3.5c0.8-1,1.4-1.8,2-2.4c0.3-0.3,0.6-0.5,0.9-0.7
					c0.3-0.2,0.8-0.5,1.2-0.8c0.5-0.3,1-0.6,1.7-0.9l2-1l4-1.9c18.4-8.5,37.2-16.1,56.6-22.2c5.8-1.8,11.7-3.6,17.8-5.2
					c1.5-0.4,3-0.8,4.5-1.2l1.1-0.3l0,0c0,0,0,0,0,0C323.1,187.6,323.1,187.7,323.1,187.7z"/>
			</g>
		</g>
	</g>
</g>
<g>
	<g>
		<g>
			<path class="st0" d="M114.9,243.6L114.9,243.6C115,243.6,115,243.6,114.9,243.6z"/>
			<path class="st0" d="M109.5,243.3l0-0.2C109.5,243.2,109.5,243.2,109.5,243.3z"/>
			<path class="st0" d="M108.1,257.4L108.1,257.4C108.1,257.4,108.1,257.4,108.1,257.4z"/>
			<g>
				<path class="st0" d="M110.4,258.1c1,0.1,2-0.2,3-1c1-0.8,2.1-2.1,3.1-2.2c1.1-0.1,2.2,0,3.3-0.5c1.1-0.5,2.2-0.4,3.3-0.2
					c1.1,0.2,2.1-1,3.2-0.5c0.3,0.1,0.6,0.4,0.8,0.5c0.1,0.1,0.9-0.8,1-1.2c0.1-0.2-0.3-1.1-0.4-1.4c-0.4-0.8-0.9-1.9-1.2-2.2
					c-0.6-0.7-0.9-1-1.5-1.2c-1.3-0.5-2.5-0.8-3.8-2.1c-1-1.1-2.1-0.4-3.1-0.9c-1.1-0.6-2.2-1.5-3.3-1.5c-1.2,0-2.4-0.8-3.6-0.7
					c-1.2,0.1-2.4,0.4-3.5,0.4c-0.7,0-1.4-0.1-2.1-0.2c-1.7-0.3-3.5,0-5.2-0.1c-1.6-0.1-3.1-1.6-4.7-1.1c-0.8,0.3-2,0.3-2.7,3.3
					c-0.2,0.7-0.3,2-0.3,3.2c0-1.9,0.9,2,1,2.2c0.4,1.1,0.8,1.6,1.2,2.4c0.8,1.5,1.5,3.4,2.4,3.9c1.8,0.9,3.6,0.7,5.5,0.8
					c1.6,0,3.1-0.2,4.7,0C108.4,257.6,109.4,257.9,110.4,258.1z"/>
			</g>
		</g>
	</g>
</g>
<g>
	<g>
		<g>
			<path class="st0" d="M373.3,256.1L373.3,256.1C373.2,256.1,373.3,256.2,373.3,256.1z"/>
			<path class="st0" d="M379.1,256.8l0,0.2C379,256.9,379,256.8,379.1,256.8z"/>
			<path class="st0" d="M381.3,242.8L381.3,242.8C381.3,242.8,381.3,242.8,381.3,242.8z"/>
			<g>
				<path class="st0" d="M378.9,242c-1.1-0.2-2.2,0.1-3.3,0.8c-1.2,0.8-2.3,2-3.4,2c-1.2,0.1-2.3-0.1-3.5,0.3
					c-1.2,0.4-2.3,0.2-3.5,0c-1.1-0.2-2.3,0.9-3.4,0.3c-0.3-0.2-0.6-0.4-0.9-0.6c-0.1-0.1-1,0.7-1.1,1.1c-0.1,0.2,0.3,1.1,0.4,1.4
					c0.3,0.8,0.9,2,1.2,2.3c0.6,0.7,0.9,1,1.5,1.3c1.3,0.6,2.6,1,3.9,2.4c1,1.1,2.2,0.5,3.3,1.1c1.1,0.6,2.3,1.6,3.5,1.7
					c1.3,0,2.5,0.9,3.8,0.9c1.3,0,2.5-0.3,3.8-0.2c0.7,0.1,1.5,0.2,2.2,0.3c1.8,0.4,3.7,0.2,5.5,0.4c1.7,0.2,3.2,1.8,4.9,1.4
					c0.9-0.2,2.1-0.2,3.1-3.2c0.2-0.7,0.4-2,0.5-3.1c-0.1,1.9-0.8-2.1-0.9-2.3c-0.4-1.1-0.8-1.6-1.2-2.4c-0.8-1.5-1.4-3.5-2.3-4
					c-1.9-1-3.8-0.9-5.8-1.1c-1.7-0.1-3.3,0-5-0.3C381,242.5,380,242.1,378.9,242z"/>
			</g>
		</g>
	</g>
</g>
<g>
	<g>
		<g>
			<path class="st0" d="M243.5,383.9L243.5,383.9C243.5,383.9,243.5,383.9,243.5,383.9z"/>
			<path class="st0" d="M243.3,390.4l-0.2,0C243.2,390.4,243.3,390.4,243.3,390.4z"/>
			<path class="st0" d="M257.4,391.8L257.4,391.8C257.4,391.8,257.4,391.8,257.4,391.8z"/>
			<g>
				<path class="st0" d="M258.1,389.1c0.1-1.2-0.2-2.4-1-3.6c-0.8-1.2-2.1-2.4-2.3-3.7c-0.1-1.3,0-2.6-0.6-3.9
					c-0.5-1.3-0.4-2.6-0.3-3.9c0.1-1.3-1-2.5-0.5-3.8c0.1-0.3,0.4-0.7,0.5-1c0.1-0.2-0.8-1-1.2-1.2c-0.2-0.1-1.1,0.4-1.4,0.6
					c-0.8,0.4-1.9,1.1-2.2,1.5c-0.7,0.7-1,1.1-1.2,1.8c-0.5,1.5-0.8,3-2.1,4.5c-1.1,1.2-0.4,2.5-0.9,3.7c-0.5,1.3-1.5,2.7-1.4,4
					c0.1,1.4-0.8,2.8-0.7,4.3c0.1,1.4,0.5,2.8,0.4,4.2c0,0.8-0.1,1.6-0.2,2.5c-0.3,2.1,0,4.1,0,6.2c-0.1,1.9-1.6,3.7-1,5.6
					c0.3,1,0.4,2.3,3.4,3.2c0.7,0.2,2,0.3,3.2,0.3c-1.9,0,2-1.1,2.2-1.2c1.1-0.5,1.6-1,2.3-1.5c1.5-1,3.4-1.9,3.8-2.9
					c0.9-2.2,0.7-4.4,0.7-6.5c0-1.9-0.2-3.7-0.1-5.6C257.6,391.4,257.9,390.3,258.1,389.1z"/>
			</g>
		</g>
	</g>
</g>
<g>
	<g>
		<g>
			<path class="st0" d="M249.8,123.8L249.8,123.8C249.8,123.9,249.8,123.9,249.8,123.8z"/>
			<path class="st0" d="M250.9,123.4l0,0.3C250.8,123.5,250.9,123.5,250.9,123.4z"/>
			<path class="st0" d="M256.7,101.8L256.7,101.8C256.7,101.9,256.7,101.8,256.7,101.8z"/>
			<g>
				<path class="st0" d="M253.1,92.3l-0.6-1.5c-1.9,3.2-3.8,7.1-5.4,11.2c-0.9,2.4-1.7,4.8-2.5,6.9c-0.7,2.1-1.4,4-2.2,5.5
					c-0.9,1.6-1.8,3.2-2.7,4.8l-0.2,0.5l-0.2,0.4l-0.4,0.8c-0.2,0.5-0.4,1.1-0.6,1.6c-0.7,2.3-2,4.1-3.3,6.1
					c-1.3,1.9-1.4,4.4-2.9,6.1c-0.4,0.4-0.9,0.8-1.4,1.3c-0.2,0.2-0.2,1.9,0,2.4c0.1,0.2,1.3-0.1,1.7-0.1c1.1-0.3,2.6-0.8,3.2-1.1
					c1.2-0.7,1.8-1.1,2.6-2.1c1.8-2.1,3.3-4.2,5.8-5.8c1-0.7,1.6-1.5,2.2-2.5l0.9-1.4c0.1-0.2,0.3-0.5,0.5-0.7
					c0.1-0.1,0.2-0.3,0.2-0.3c0,0,0.1-0.1,0.1-0.1c0.5-0.2,0.9-0.3,1.2-0.3c0.3,0,0.5,0.1,0.6-0.1c0.1-0.3,0.3-0.2,0.4,0
					c0.1,0.1,0.2,0.4,0.3,0.2l0-0.1c0.1-0.1,0.4-0.2,0.5,0.1c0.1,0.2,0.2,0.5,0.2,0.8c0,0.2,0,0.3,0.1,0.4c0,0.1,0,0.1,0.1,0.2l0,0
					l0.1,0.3l0.3,0.6c0.8,1.6,1.6,3.3,2.3,5c1.3,3,1.2,6.6,3.1,9.4c1,1.5,2,3.6,5.4,3.7c0.8,0,2-0.4,3.1-0.9
					c-1.7,0.8,1.1-2.6,1.2-2.8c0.7-1.2,0.7-2.3,1-3.4c0.6-2.2,1.8-4.4,1.4-6.2c-0.7-3.9-2.5-7.3-4.1-10.8l-3.6-7.8
					c-1.3-2.9-2.6-5.7-3.9-8.7C256.2,100.4,254.7,96.2,253.1,92.3z"/>
			</g>
		</g>
	</g>
</g>
</svg>
