<svg xmlns="http://www.w3.org/2000/svg" viewBox="0 0 500 500"><path d="M241.83 245.28l.03.15c0-.07.07-.12-.03-.15zM241.12 220.44l.4.02a1.01 1.01 0 0 0-.4-.02zM205.56 218.68l-.07-.11c0 .06.03.09.07.11z"/><path d="M204.66 227.69a25.1 25.1 0 0 0 .72 6.56c.26 1.14.6 2.29 1 3.42s.89 2.26 1.47 3.47a73 73 0 0 0 1.92 3.62l2.03 3.65a29.71 29.71 0 0 1 3 7.51c.28 1.39.54 2.77.8 4.15a117.53 117.53 0 0 0 1.73 6.29c.11.35.21.67.35 1.05l.54 1.31c.18.41.38.9.57 1.24l.59 1.03.61 1.02c.21.31.43.6.65.9a57.96 57.96 0 0 1 4.46 6.96c1.28 2.3 2.39 4.68 3.59 7.05 1.14 2.3 3.04 4.14 4.88 6 1.84 1.86 3.62 3.72 4.68 6.22.3.68.55 1.39.8 2.1.26.73.57 1.48.89 2.21.09.19.37.4.86.66.5.27 1.12.54 1.77.77.6.2 1.42.48 2.09.62.66.15 1.22.21 1.54.16.3-.04.3-.97.3-1.95-.01-1-.01-2.02.05-2.44.1-2.82.67-6.46.56-8.02-.22-3.14-.26-4.57-1.3-7.13-1.02-2.67-2.08-5.26-2.8-8.01a24.96 24.96 0 0 1-.92-8.73c.18-2.51-.48-4.5-1.18-6.26l-.44-1.2c-.11-.34-.15-.54-.23-.82-.15-.88-.24-1.94-.14-2.92.05-.55.11-1.1.18-1.63l.12-.8.18-.86c.25-1.14.5-2.27.72-3.37l.28-1.66c.1-.58.2-1.15.26-1.73.12-1.14.15-2.27.01-3.4-.13-1.2-.07-2.53.03-3.8.1-1.3.26-2.5.45-3.89.36-2.72.71-5.33.44-8.23-.13-1.4-.3-2.77-.49-4.2l-.68-4.37-.33-2.19-.4-2.28c-.27-1.53-.5-3.06-.69-4.6l-.3-2.37-.09-.72-.12-.86c-.05-.3-.07-.54-.14-.9l-.2-1.07-.1-.54a7.9 7.9 0 0 0-.14-.6l-.35-1.33c-.18-.78-.65-2.05-1.09-3.1l-.17-.41c-.06-.15-.09-.23-.24-.53a24.59 24.59 0 0 0-2.75-4.3l-.27-.33-.09-.12-.17-.24-.18-.23-.04-.06-.02-.03-.01-.02-2.65.15-.04.05c-.12.15-.27.31-.46.47l-.07.06.01-.01.02-.01.13-.09.31-.19.35-.18a8.34 8.34 0 0 1 1.33-.6l.68-.28c0-.03-.04.02-.05-.1-.01-.1-.06-.13-.09-.28a3.3 3.3 0 0 0-.12-.46c-.15-.77-.29-2-.34-3.54-.05-1.54 0-3.4.07-5.64l.09-1.57.12-1.68.29-3.4.34-3.25.23-3.37c.09-1.12.05-2.3.02-3.48-.07-1.18-.08-2.32-.3-3.54-.2-1.2-.45-2.4-.77-3.6-.3-1.17-.84-2.4-1.37-3.56l-.9-1.92c-.33-.66-.74-1.35-1.15-2.03a28.08 28.08 0 0 0-2.1-2.97c-.28-.31-.58-.62-.9-.91a13.5 13.5 0 0 0-4.3-2.83c-1.74-.63-3.67-.9-5.79-.65-2.07.24-4.77 2.04-7.02 3.8 1.84-1.46 1.58.36.67 2.4a24.23 24.23 0 0 1-1.59 2.94c-.52.84-1 1.47-1.06 1.6a25.32 25.32 0 0 0-1.62 3.8 27.3 27.3 0 0 1-1.39 3.32c-2.27 4.28-6.37 7.6-7 10.58l-.18 1.16c-.08.41-.15.81-.2 1.21-.12.81-.15 1.56-.26 2.4-.08.81-.11 1.67-.15 2.43l-.07.97-.07 1.2c-.08 1.71-.16 3.87-.14 6.4.03 2.54.13 5.47.61 8.92a39.2 39.2 0 0 0 2.73 9.8 33.74 33.74 0 0 0 6.65 10l1.08 1.06.54.53.28.25.14.13.07.07.03.03c19.22-22.82 5.33-6.32 9.62-11.41v.02l-.1.98-.02.24c0 .08.01.17-.14.22a3.91 3.91 0 0 1-1.73.5l-.18.01c-.07.01-.16.08-.23.11-.63.34-1.28.62-1.94.85-.35.13-.62.2-1.04.33a32.07 32.07 0 0 1-4.73 1.38l-.43.1-.7.18-1.4.36-.7.17-.12.03.02.08.1.7.15 1.22.09.76.04.55c.1 1.78.1 3.5.02 5.4-.14 1.98-.24 3.86-.27 5.9zM430.87 399.5l-.51.68c.25-.3.45-.44.51-.67zM467.2 286.13l.41.2c-.15-.21-.3-.24-.41-.2zM428.07 271.38l-.22-.5c.07.26.14.4.22.5z"/><path d="M431.09 308.44c-.05 1.04-.18 2.07-.3 3.1l-.34 3.11-.46 3.1-.22 1.55-.3 1.55-.54 3.1-.68 3.1-.33 1.56-.4 1.55-.76 3.1a212.7 212.7 0 0 1-8.55 25.01c-.92 2.12-1.8 4.39-2.75 6.4l-1.4 3.1-1.53 3.06-.77 1.53-.83 1.5-1.67 3.01-1.82 2.94-.91 1.48-.99 1.43-1.98 2.86-2.14 2.77-1.08 1.39-1.14 1.34c-.77.88-1.54 1.78-2.33 2.66a89.04 89.04 0 0 1-10.5 9.67 141.1 141.1 0 0 1-12.6 8.72c-2.14 1.39-4.41 2.62-6.62 3.92-2.27 1.22-4.5 2.5-6.83 3.65-9.21 4.68-18.8 8.8-28.7 12.89-9.95 4.12-20.21 7.4-30.64 10.48l-3.93 1.15c-1.3.37-2.64.79-3.89 1.08l-7.6 1.88-3.81.93-3.9.71-7.84 1.4c-2.53.46-5.12.76-7.66 1.21-2.56.4-5.08.93-7.66 1.33l-7.73 1.24c-2.57.43-5.15.86-7.8 1.25a352.9 352.9 0 0 1-15.7 2.09c-5.18.46-10.4.85-15.54.66l-4.12-.14-4.28-.2-8.62-.41c-.69-.04-2.15.12-3.86.35-1.7.23-3.76.57-5.82.95-4.11.74-8.24 1.65-9.6 2.19-1.24.49 6.92 2.63 9.22 3.19 3.75.92 8.55 1.97 13.15 2.84 4.6.87 8.93 1.62 11.95 1.93 3.04.3 5.7.59 8.15.8 2.44.14 4.69.26 6.95.34 2.26.1 4.52.09 6.99.04 2.46-.06 5.17-.12 8.24-.3 3.2-.18 6.35-.32 9.55-.54l9.58-.66 2.39-.16 2.4-.24 4.78-.48c3.19-.34 6.38-.53 9.57-1.04l9.6-1.26c1.61-.15 3.2-.52 4.8-.78l4.83-.83 4.84-.8c1.64-.26 3.12-.57 4.7-.83 3.1-.55 6.22-1.08 9.38-1.58 20.4-3.22 41.14-11.5 61.19-20.45a248.06 248.06 0 0 0 16.14-7.88 175.74 175.74 0 0 0 15.57-9.52c5.01-3.54 9.92-7.32 14.48-11.56 1.18-1.02 2.25-2.15 3.37-3.24 1.11-1.1 2.23-2.19 3.27-3.36l3.14-3.49 2.97-3.65a199.9 199.9 0 0 0 11.6-16.34c.94-1.41 1.7-2.78 2.57-4.18.85-1.38 1.7-2.77 2.49-4.2l2.41-4.27 2.3-4.37c2.97-5.9 5.71-12 7.94-18.37a124.97 124.97 0 0 0 5.14-19.74 139.96 139.96 0 0 0 1.73-20.23c.03-6.78-.5-13.54-1.4-20.2a143.05 143.05 0 0 0-11.4-38.74 139.42 139.42 0 0 0-26.8-38.76c-.83-.9-1.74-1.74-2.61-2.6-.88-.86-1.76-1.75-2.66-2.53l-5.43-4.81-5.58-4.48c-1.87-1.46-3.77-2.8-5.66-4.21a334.08 334.08 0 0 0-22.93-14.88l-11.32-6.7-11.88-6.69-11.7-6.24c-3.8-2.02-7.71-4.06-11.4-6.1-2.98-1.63-5.92-3.3-8.84-5a167.6 167.6 0 0 1-8.24-5.18c-5.16-3.45-9.33-6.99-12.5-10.61l-12.7-15.04-1.7-2-.42-.5-.21-.25-.17-.18-.22-.22-1.79-1.77-7.2-7.06c-.6-.56-1.18-1.23-1.83-1.71a22.94 22.94 0 0 0-6.78-2.77l-1.18-.27-1.19-.18c-.8-.1-1.65-.07-2.48-.09-1.67 0-3.36.04-5.04.13l-5.11.77-2.57.4-1.3.2c-1.75.3-3.52.61-5.15.92l-6.27 1.16c-1.08.2-2.18.4-3.29.62l-2.26.48-2.38.54c-.38.09-.85.19-1.15.28l-.93.27-1.87.55c-1.23.38-2.54.75-3.7 1.15-2.35.8-4.73 1.63-7 2.53-9.1 3.57-17.4 7.97-23.11 13.5-2.74 2.67-2.86 6.07-2.1 8.83-1.29-4.5 19.05-.15 20.45-.04 4.25.25 8.6.1 12.93-.15l6.5-.35 3.17-.1 1.58-.03 1.4.08 2.6.2 3 .26 5.94.56c3.71.41 8.81.64 9.04 1.49.66.41 1.19.7 1.6 1.25.41.58.47 1.48.6 2.1l.13.88.02.2.01.09v.04l.12.17.95 1.35a98.73 98.73 0 0 0 4.05 5.36c3.05 3.69 6.13 7.34 9.25 10.97l.58.68.75.78 1.54 1.58c.52.52 1.03 1.06 1.56 1.56l1.6 1.45a92.81 92.81 0 0 0 6.48 5.37c4.39 3.33 8.75 6.06 12.95 8.59 2.13 1.28 4.11 2.43 6.18 3.6l6.17 3.43c4.15 2.32 8.14 4.42 12.2 6.58l11.85 6.34c2 1.04 3.8 2.13 5.7 3.2l5.65 3.2 5.86 3.47 5.77 3.48a405.7 405.7 0 0 1 18.67 11.95c5.88 4.08 11.41 8.35 16.47 12.84 4.94 4.49 9.42 9.34 13.33 14.56a90.72 90.72 0 0 1 9.77 16.74c6.25 14.06 8.41 30.85 7.12 46.62z"/><g><path d="M68.25 374.68l.12.42c-.04-.2 0-.33-.12-.42zM69.02 310.1l.36.2a.47.47 0 0 0-.36-.2zM38.5 286.78l.1-.47c-.08.21-.1.36-.1.47z"/><path d="M30.32 318.42a119.98 119.98 0 0 0-1.16 22.05c.33 7.37 1.3 14.71 3.01 21.85.46 1.85 1 3.71 1.5 5.55l.8 2.75.93 2.74c.65 1.82 1.23 3.63 1.92 5.42l2.15 5.36.53 1.33.6 1.32 1.19 2.64 1.16 2.63c.38.87.85 1.73 1.26 2.6.86 1.73 1.63 3.48 2.5 5.2.9 1.72 1.78 3.44 2.63 5.19a102.3 102.3 0 0 0 13.73 20.48c1.4 1.5 2.75 3.07 4.22 4.5 1.5 1.4 3.02 2.78 4.55 4.14a78.22 78.22 0 0 0 9.97 7.06c7 4.16 14 7.81 21.18 10.81l2.67 1.18c.88.37 1.76.7 2.63 1.05l5.27 2.1c3.56 1.28 7.1 2.7 10.75 3.84 7 2.4 14.35 3.52 21.63 4.47l5.46.68c1.82.21 3.64.39 5.45.63l5.43.73c1.82.26 3.6.56 5.43.93 2.76.41 4.77.54 6.79.72l5.58.49c.86.08 3.42-.5 5.51-.96 1.05-.24 1.95-.44 2.5-.65.19-.05.2-.1.32-.15.08-.06.2-.12.25-.18l.1-.21c.18-.33.36-.6.51-.8l.05-.07-.22.3.06-.14c.03-.14.12-.31.08-.51-.06-.2-.15-.42-.26-.66a8.25 8.25 0 0 0-2.67-2.26c-2.11-1.23-5.3-2.36-8.35-3.27-3.06-.9-6-1.65-7.8-2.13-.48-.1-.87-.26-1.28-.38l-1.29-.44-2.4-.8c-1.51-.52-2.91-.93-4.3-1.37-1.4-.46-2.8-.88-4.34-1.3l-2.42-.63-2.71-.75a166.38 166.38 0 0 1-23.15-7.65 83.2 83.2 0 0 1-5.5-2.47 77.69 77.69 0 0 1-5.37-2.74c-1.74-1-3.55-1.96-5.18-3.04-1.62-1.1-3.2-2.22-4.76-3.36-4.86-3.93-10-7.15-14.74-10.87-4.69-3.73-9.1-7.84-12.31-12.73-3.43-5.32-5.82-11.17-7.72-17.12a209.09 209.09 0 0 1-4.72-18.35c-1.5-6.7-1.9-13.7-1.81-20.88.09-7.14.62-14.23 1.07-21.37.44-7.01 1.15-14.15 2.35-21.12l.44-2.6.23-1.31.28-1.3 1.16-5.15c.4-1.7.93-3.38 1.4-5.07l.75-2.53.88-2.48a115.7 115.7 0 0 1 10.37-22.14c.62-1.12 1.33-2.2 2.02-3.28l2.06-3.26c.64-1.12 1.45-2.12 2.16-3.18l2.18-3.17c1.37-2.15 3.06-4.12 4.6-6.19.78-1.02 1.53-2.06 2.34-3.07l2.53-2.96a175.07 175.07 0 0 1 22.47-22.24c3.82-3.03 7.7-5.92 11.85-8.53 4.08-2.7 8.26-5.13 12.57-7.66 8.62-5.06 17.71-10.35 26.33-17.6 4.53-3.83 10.02-8.5 14.51-14.07 4.5-5.55 7.87-12.06 8.24-18.4.18-3.1-1.92-5.65-4.17-7.42 1.84 1.42-1.16 3.2-4.73 4.35-1.8.56-3.68 1.03-5.22 1.31-1.54.28-2.67.44-2.9.51-5.65 1.79-10.65 4.64-16.04 6.58-10.5 3.71-20.84 4.93-31.04 10.63a222.65 222.65 0 0 0-16.01 9.81 511.22 511.22 0 0 0-7.82 5.51 518.7 518.7 0 0 0-7.62 5.93 221.35 221.35 0 0 0-28.28 27.55l-2.8 3.24c-.92 1.1-1.76 2.27-2.64 3.4l-2.6 3.43c-.86 1.15-1.78 2.25-2.55 3.47l-4.8 7.21c-.82 1.19-1.52 2.45-2.25 3.68l-2.18 3.73a204.1 204.1 0 0 0-14.35 31.37c-1.26 3.2-2.23 6.52-3.37 9.82-.59 1.65-1.01 3.34-1.52 5.01l-1.47 5.06c-.8 3.4-1.73 6.84-2.43 10.27l-1.02 5.15-.82 5.21z"/></g><g><path d="M178.8 264.95l-.02.16c.03-.07.1-.1.02-.16zM189.16 243.51l.32.24c-.1-.1-.2-.18-.32-.24zM161.6 220.8l.05-.17c-.05.06-.06.12-.04.17z"/><path d="M154.2 230.59a35.84 35.84 0 0 0-5 16.93c-.06 1.6.04 3.27.11 4.9.1 1.62.14 3.2.32 4.81.28 3.2.34 6.22 0 9.19l-.35 2.33-.18 1.16-.12 1.17a200.3 200.3 0 0 0-.43 4.68c-.12 1.55-.04 3.12 0 4.68.08 1.56.2 3.12.58 4.67.33 1.56.57 3.09.73 4.6.23 1.52.41 3.02.53 4.53l.16 2.26.26 2.35c.18 1.57.27 3.16.49 4.74a27.04 27.04 0 0 0 3.28 8.58c.74 1.34 1.37 2.71 2.01 4.06a16.97 16.97 0 0 1 1.68 5.45l.04.32.03.15v.1l-.2-.47v.05l.04.56.07 1.13.01.28c.02.12-.05.07-.07.1l-.18.1c-.06.03.02.01.23 0 .21 0 .48.21.84.35.38.16.7.37 1.04.58.34.2.67.4.92.5.24.1.92-.06 1.65-.4.73-.33 1.5-.86 1.75-1.1.45-.4.97-.93 1.41-1.51.42-.57.82-1.25 1.15-1.99.28-.73.5-1.42.69-2.05l.06-.23.03-.11.02-.06v-.02l.01-.02v-.01c-.01-.04.04.08-.03-.09l.1-.42c.05-.27.1-.52.12-.73.2-1.7.37-2.91.4-4.06.02-.58-.04-1.13-.04-1.74-.02-.6-.06-1.26-.15-1.99l-.28-2.24-.15-1.1-.04-1.12a74.67 74.67 0 0 1-.04-4.4c.18-1.48.41-2.93.76-4.36.09-.36.18-.72.29-1.08a30.04 30.04 0 0 1 1.39-3.32 16.1 16.1 0 0 0 1.47-6.93c.05-1.14.15-2.29.26-3.42.13-1.14.3-2.26.8-3.33a69.7 69.7 0 0 1 1.59-3.42c.61-1.1 1.27-2.18 1.85-3.26.3-.54.57-1.07.84-1.6a18.57 18.57 0 0 0 2.08-4.87c.38-1.2.88-2.34 1.43-3.45l.43-.84.5-.8 1.04-1.59c1.28-2.07 2.96-4.28 3.94-6.7 2.2-4.82 4.18-10.05 7.2-15 1.75-2.9 3.66-5.72 5.76-8.6a73.37 73.37 0 0 0 3.75-5.63c1.2-1.92 2.33-3.98 3.44-6.04l.84-1.55.2-.38.1-.2.03-.04.02-.03-1.65-.92.05.02.75.39.73.4.14.07h.01l.01-.03.03-.06.02-.06v-.03l.07-.1.25-.4c.1-.15.13-.23.28-.43l.4-.59c1.1-1.59 2.7-3.7 4.28-6.05 2.9-4.18 6.27-8.6 8.83-13.33 2.59-4.72 4.41-9.74 4.64-14.88.2-5.36.38-12.48-7.11-16.47-1.8-.97-5.04-1.25-7.9-1.25 2.34 0 1.04 1.24-.9 2.43-1.94 1.2-4.53 2.3-4.76 2.45a21.5 21.5 0 0 0-3.47 2.83c-.96.95-1.79 1.9-2.88 2.73a42.39 42.39 0 0 1-3.22 2.26c-1.11.69-2.26 1.3-3.29 1.9l-1.48.9c-.49.28-.94.56-1.36.84a9.83 9.83 0 0 0-2 1.8c-2.05 2.73-3.56 4.91-5.3 7.4l-3.36 4.65-.58.81-.3.41-.35.53-.72 1.05-.37.56-.44.72-.86 1.44-.48.86-.8 1.4c-3.56 6.32-7.22 13.12-11.66 19.93-1.33 2.1-2.83 4.03-4.34 6.2l-2.26 3.2c-.74 1.07-1.46 2.26-2.16 3.41z"/></g><g><path d="M203.67 88.67l-.2.04c.1 0 .16.06.2-.04zM232.07 85.32v.4a.98.98 0 0 0 0-.4zM233.57 49.57l.18-.07c-.09 0-.14.03-.18.07z"/><path d="M221.29 49.6a36.2 36.2 0 0 0-7.71 1.57 38.38 38.38 0 0 0-7.46 3.2c-2.5 1.4-4.96 3.07-7.47 4.52-1.25.72-2.51 1.4-3.8 1.95-.64.27-1.29.52-1.94.73-.64.21-1.37.4-1.92.5-4.95 1-10.19.95-15.79 2.3a35.6 35.6 0 0 1-8.47.96c-1.38 0-2.75-.05-4.13-.13s-2.69-.27-4.04-.42c-2.64-.23-5.1.07-7.69.34l-.96.1-.66.03c-.39.05-1-.03-1.56-.14a9.77 9.77 0 0 1-3.51-1.34c-1.23-.75-2.41-1.77-3.7-2.65-.32-.22-1.51-.11-2.85.12l-.98.2c-.34.08-.69.15-.99.24a5.1 5.1 0 0 0-1.38.54c-.46.34 1.23 3.3 1.53 4.08 1.3 2.56 3.22 6.08 4.48 7.37a28.5 28.5 0 0 0 3.26 3.06 16 16 0 0 0 1.76 1.1c.63.36 1.51.66 2.46 1 6.93 2.12 13.72 3.1 20.53 6.43 2.73 1.32 5.44 1.56 8.3 1.59 2.86.04 5.8-.16 8.77.32 1.64.22 3.28.54 4.97.8 1.67.22 3.48.45 5.1.62 3.02.35 6.02.5 8.94.06 6.23-1 12.75.3 18.96-.92 1.52-.29 3.05-.62 4.57-.96l4.4-.99c1.45-.32 2.9-.64 4.36-.92 1.45-.28 2.82-.43 4.25-.59 1.65-.16 3.3-.31 4.97-.37 1.68-.02 3.35 0 5.03.06 1.06.03 2.11.04 3.17.03l.79-.01h.2l.32-.02.72-.05c.96-.07 1.92-.15 2.87-.25l.72-.08.53-.08 1-.17 2.01-.35c1.4-.24 2.5-.52 3.74-.78 4.83-1.08 9.32-2.31 13.92-3.32 2.07-.45 4.18-.7 6.3-.87l3.24-.23.82-.05.92-.1 1.85-.2.93-.12.46-.05.53-.1 2.12-.45c.72-.17 1.38-.29 2.15-.53.77-.25 1.54-.52 2.3-.8.77-.3 1.53-.56 2.28-.94.75-.38 1.5-.78 2.24-1.2.72-.42 1.49-.85 2.14-1.32.65-.48 1.28-.98 1.9-1.5.64-.55 1.35-1.12 2-1.71.58-.58 1.17-1.18 1.76-1.8.58-.64 1.15-1.3 1.7-1.98.45-.65.86-1.34 1.24-2.06 1.6-2.9 2-6.16.72-10.19-.63-1.95-2.79-4.4-4.86-6.37 1.7 1.62-.1 1.65-2.36 1.21-2.26-.43-4.95-1.34-5.23-1.38a21.12 21.12 0 0 0-4.54-.23 21.8 21.8 0 0 1-5.87-.29c-.63-.15-1.23-.35-1.81-.55-1.17-.4-2.25-.8-3.2-1.36l-2.6-1.37a4.87 4.87 0 0 0-2.3-.66c-3.18-.12-8.33.68-12.76 1.63-4.52.95-9.04 2.15-13.31 3.02l-5.03 1.01c-.45.05-.44.1-.95.2l-3.32.26c-2.2.17-4.4.34-6.62.47-2.2.14-4.44.41-6.66.55a8361.9 8361.9 0 0 1-7.98.36c-2.6.1-5.38.2-7.82.43z"/></g><g><path d="M240.74 48.79l-.28.05c.13 0 .22.05.28-.05zM282.1 46.56l-.1.4c.1-.13.1-.27.1-.4zM291.6 11.42l.25-.05c-.12-.01-.2.01-.25.05z"/><path d="M273.17 9.75c-2.2-.03-4.43-.08-6.61.1a97.9 97.9 0 0 0-9.75 1.4 94.15 94.15 0 0 0-9.52 2.73c-2.15.72-4.25 1.67-6.34 2.54-2.1.91-4.18 1.75-6.25 2.67a73.5 73.5 0 0 1-9.35 3.57c-1.05.35-2.1.66-3.17.93-2.26.56-4.51 1.09-6.77 1.62l-6.69 1.83-3.32.97a115.07 115.07 0 0 0-9.71 3.75 99.53 99.53 0 0 1-12.53 5.01c-1.91.66-4.02 1.19-6.07 1.73l-6.47 1.54c-4.25.96-8.5 2.9-12.7 4.9l-3.18 1.6-1.6.76-1.6.82a53.86 53.86 0 0 1-3.28 1.51l-1.8.84c-.62.28-1.23.55-1.86.87a36.82 36.82 0 0 0-7.98 4.76c-.3.26-.8.89-1.3 1.79-.45.92-1.01 2-1.37 3.17-.8 2.33-1 4.73-.86 5.56.07.39 1.11-.16 2.24-.8 1.1-.67 2.44-1.3 2.97-1.58.86-.49 1.94-.89 2.95-1.32 1.04-.4 2.13-.72 3.14-1.01 2.07-.53 3.9-.82 5.07-1.07l1.65-.34 1.47-.22.67-.1.7-.08 1.33-.19c.87-.13 1.73-.3 2.63-.52.95-.18 1.96-.4 3.1-.69 4.8-1.14 9.6-2.04 14.7-2.64a178.4 178.4 0 0 1 16.11-1.15c2.17 0 4.17-.23 6.18-.63 2-.39 3.95-.98 5.92-1.48 3.94-1.05 7.83-2.33 11.88-2.62 8.74-.86 17.55-.1 25.97-1.55 2.25-.34 4.52-.54 6.8-.68 2.26-.15 4.56-.06 6.83-.07h3.4c1.14 0 2.28.06 3.4.06 2.27.02 4.53-.04 6.79-.25 2.2-.08 4.41-.2 6.62-.32l3.32-.21c1.13-.07 2.16-.16 3.44-.2 2.46-.1 4.92-.19 7.38-.25 2.33-.06 5.4-.08 6.32-.05 1.51.1 2.61.37 3.29.68.66.32.95.69 1.42 1.27.1.14.2.26.3.36l-3.92-17.8-1.51 3.87-.73 1.95-.45 1.25-.5 1.6-1.17 3.65-.78 2.7c-.25.97-.48 2.14-.7 3.2-.09.36.1.12-.6 1.74l-1.2 2.68-.42.98-.54 1.28-.26.65-.13.36-.25.7-.07.18-.2.58-.01.02-.01.01-.03.07-.06.14c-.04.1-.03.22-.09.3-.13.15-.1.32-.3.55-.18.37-.91 1.17-1.9 2.2l-1.34 1.3-1.69 1.54c-1.24 1.17-2.57 2.38-3.81 3.65-1.26 1.25-2.57 2.48-3.75 3.82-1.22 1.32-2.46 2.65-3.51 3.94l-1.64 1.97c-.55.66-.99 1.24-1.48 1.86a165.1 165.1 0 0 0-2.77 3.64 93.3 93.3 0 0 0-2.5 3.57 70 70 0 0 0-1.4 2.42l-.7 1.25-.3.59c.07-.13.15-.25.24-.37a.95.95 0 0 1 .32.38c0 .02.01.05.04.06l.03.02-.14.16-.76.77c-1.08 1.1-2.42 2.45-3.73 4.06s-2.6 3.46-3.69 5.7a27.53 27.53 0 0 0-2.07 5.89c-.17.76-.4 1.65-.36 2.34-.02 2.87 2.55 5.28 4.86 6.94-.96-.68-.95-1.38-.22-1.92a6.84 6.84 0 0 1 3.6-.95c2.88-.04 5.93.91 6.29.91 4.2.29 7.74-.64 11.87-1.36.47-.1.94-.18 1.4-.26.23-.04.5-.12.8-.21l.85-.26c1.14-.36 2.29-.77 3.42-1.25a19.68 19.68 0 0 0 3.27-1.74c1.01-.7 1.92-1.53 2.9-2.36l.53-.53.25-.26.13-.13.07-.03.56-.27 1.1-.54 1.02-.55c.33-.18.78-.51 1.15-.77 1.54-1.1 3-2.39 4.18-3.75 1.13-1.26 2.25-2.67 3.23-3.72.5-.55.99-1.17 1.47-1.67s.95-1 1.4-1.5c.44-.52.96-.97 1.43-1.46l1.42-1.46 1.57-1.5.93-.9 1.08-1.07c.39-.39.72-.7 1.15-1.16l1.31-1.41.66-.72.72-.87 1.42-1.76c.48-.65.96-1.36 1.43-2.05.47-.7.94-1.37 1.36-2.16.83-1.55 1.71-3.1 2.32-4.72.32-.8.64-1.62.94-2.44l.11-.3.03-.08.01-.04.01-.02c1.21.3-10.64-2.63-5.56-1.38l.88.24 3.54.95.88.23.22.06c.03 0 .01 0 .02-.01l.02-.05.06-.16.12-.32.06-.16.02-.01.02-.03.4-.9 1.3-2.85.38-.85.43-1.04.45-1.13.45-1.28c.6-1.6.86-3.31 1.27-4.97.07-.25.08-.41.16-.75l.35-1.24c.35-1.19.75-2.37 1.3-4.34l.16-.54-.08.22c-.05.12.13-.42.22-.7l.66-1.97 1.32-3.95 3.76-11.28-8.04-8.15a42.16 42.16 0 0 0-14.22-9.43 49.15 49.15 0 0 0-15.23-3.26l-3.85-.17-2.77-.17-5.6-.41c-3.53-.32-8.02-.53-12.2-.64z"/></g><g><path d="M177.87 100.7l.06.05c-.01-.03.02-.1-.06-.05zM170.96 90.19l.34-.2c-.13.05-.24.13-.34.2zM139.97 107.23l-.1-.05c.02.04.05.05.1.05z"/><path d="M142.02 113.21c1.43 2.5 3.71 4.35 7.17 5.46 1.75.55 3.64.9 5.52 1.39 1.85.47 3.44 1.04 4.6 2.09 1.3 1.11 2.48 2.31 3.75 3.41a12.1 12.1 0 0 0 3.27 1.85c2.73.98 4.35 3.36 6.05 5.78.9 1.2 2.3 1.83 3.78 2.54.73.35 1.43.72 2.03 1.18.6.47 1.17 1.03 1.54 1.8.41.81.6 1.82 1.08 2.71.24.46 3.33.14 4.22-.44.4-.27.84-2.92 1-3.6l.63-3.6c.21-1.14.41-2.2.41-2.74.03-1.13.06-1.94 0-2.63a5.98 5.98 0 0 0-.53-2.06c-1.31-3-2.74-5.77-2.47-10.43.04-.95-.08-1.7-.4-2.4a8.23 8.23 0 0 0-1.24-1.85c-.45-.55-1.05-1.13-1.57-1.74a10.38 10.38 0 0 1-1.06-1.5c-.08-.17-.1-.3-.14-.45-.3-1.32-.39-2.74-.58-4.02-.2-1.41-.53-2.66-1.33-3.52-1.74-2-1.68-5.35-3.5-7.5-.9-1.01-1.93-2.04-2.93-3.1-1-1.04-1.97-2.1-2.77-3.36a30.34 30.34 0 0 1-2.44-4.6 23.23 23.23 0 0 0-1.55-2.98 49.99 49.99 0 0 0-1.92-2.85l-1-1.4-1.24-1.68-2.55-3.45c-2.88-4-2.76-9.37-5.54-10.88-1.63-.96-2.5-1.85-9.63.83-1.75.64-4.66 2.1-7.16 3.48 2.06-1.12 1.2-.1-.15 1.37-1.36 1.45-3.18 3.38-3.32 3.59-1.76 2.43-1.98 4.13-2.8 6.28-.76 2.05-1.73 4.23-2.4 6.32-.69 2-1.1 3.83-.72 5.13.16.63.36 1.23.58 1.8.23.58.5 1.15.7 1.61.44.95 1.04 1.88 1.47 2.58.24.36.5.72.77 1.07.22.32.42.62.65.92l.34.45.17.22.23.34.95 1.42c.53.82 1.09 1.61 1.65 2.4l1.76 2.45a55.98 55.98 0 0 1 3.34 5.14c.6 1.08 1.1 2.28 1.62 3.52.52 1.23 1.02 2.47 1.66 3.65z"/></g></svg>