<?xml version="1.0" encoding="utf-8"?>
<!-- Generator: Adobe Illustrator 21.0.0, SVG Export Plug-In . SVG Version: 6.00 Build 0)  -->
<svg version="1.1" id="Layer_1" xmlns="http://www.w3.org/2000/svg" xmlns:xlink="http://www.w3.org/1999/xlink" x="0px" y="0px"
	 viewBox="0 0 500 500" style="enable-background:new 0 0 500 500;" xml:space="preserve">
<style type="text/css">
	.st0{fill:#FFFFFF;}
</style>
<g>
	<g>
		<g>
			<path class="st0" d="M232.2,246l0,0.2C232.2,246.1,232.2,246,232.2,246z"/>
			<path class="st0" d="M231.1,221.2l0.2,0C231.2,221.2,231.2,221.2,231.1,221.2z"/>
			<path class="st0" d="M216.6,217.4l0-0.1C216.5,217.3,216.6,217.4,216.6,217.4z"/>
			<g>
				<path class="st0" d="M216.7,227.1c0,2.3,0.2,4.4,0.5,6.7c0.3,2.3,0.6,4.5,1.2,6.8c0.6,2.4,1.1,4.7,1.8,7.1
					c0.7,2.4,1.2,4.7,1.7,7.2c0.2,1.3,0.4,2.6,0.6,3.9c0.3,1.3,0.6,2.6,0.9,3.9l0.5,1.9c0.1,0.3,0.2,0.6,0.3,1l0.4,1.1
					c0.3,0.7,0.6,1.3,0.9,2c0.3,0.6,0.6,1.2,0.9,1.8c2.6,4.6,4.9,9,7.4,13.5c2.4,4.4,6,7.9,8.6,12.2c0.7,1.2,1.3,2.4,2.1,3.6
					c0.2,0.3,1,1,1.9,1.6c0.4,0.3,1,0.6,1.4,0.8c0.4,0.2,0.8,0.4,1,0.4c0.4,0.1-0.7-2.1-0.8-2.6c-0.7-1.9-1.4-4.6-1.9-5.8
					c-1.1-2.6-1.5-3.8-2.9-6.2c-2.7-5-5.3-10-6.7-15.6c-0.6-2.2-1.4-4.3-2.3-6.3l-0.6-1.5c-0.2-0.5-0.3-0.9-0.4-1.3
					c-0.2-1-0.4-2.2-0.5-3.2l-0.2-1.8c-0.1-0.6-0.1-1.2-0.1-1.8l0-3.6l0-1.8l0-1.8c0-1.2-0.1-2.4-0.2-3.6c-0.2-2.6-0.1-5.3-0.1-8
					c0.1-2.7,0.2-5.4,0-8.2c-0.1-1.4-0.2-2.7-0.3-4.1l-0.4-4.2l-0.2-2.1l-0.3-2.1c-0.2-1.4-0.4-2.8-0.6-4.2
					c-0.1-0.9-0.2-1.4-0.3-2.3c-0.1-0.4-0.1-0.9-0.2-1.3c-0.1-0.4-0.2-1-0.3-1.5c-0.1-0.5-0.2-1-0.4-1.7c-0.2-0.7-0.5-1.4-0.8-2
					c-0.3-0.7-0.7-1.3-1-1.9c-0.2-0.3-0.5-0.6-0.7-0.8l-0.3-0.4c0-0.1-0.1-0.1-0.2-0.2l-0.2-0.2l-0.2-0.3l-0.1-0.1l-0.1-0.1l0,0
					l0.1,0.1c-0.2-0.2-0.5-0.5-0.6-0.7c-0.1-0.2-0.3-0.4-0.4-0.6c-0.2-0.4-0.5-0.9-0.7-1.4c-0.4-1-0.8-2.3-1-3.7
					c-0.4-3-0.4-6.6-0.3-10.6c0-1,0.1-1.9,0.1-2.9l0-1.5l0-1.4c0-1,0-1.9,0-2.9l-0.1-2.9c-0.2-3.9-0.7-8-2.4-11.9
					c-0.2-0.5-0.4-1.1-0.6-1.6c-0.2-0.6-0.5-1.1-0.8-1.7c-0.3-0.6-0.6-1.1-0.9-1.7l-0.5-0.8c-0.2-0.3-0.4-0.5-0.6-0.8
					c-0.8-1-1.7-2-2.6-2.8c-1-0.7-2.1-1.3-3.2-1.6c-1.1-0.3-2.3,0.3-3.2,1c0.7-0.6,1,0.7,1,2c0,0.7,0,1.4-0.1,1.9
					c-0.1,0.6-0.2,1-0.2,1.1c0,1.1,0,2.1,0.2,3c0.1,1,0.1,2,0.2,2.9c-0.1,3.8-1.2,7.1-1,10.6l0.1,1.4l0,1.4c0,0.9,0.1,1.9,0.1,2.8
					l0.1,2.8l0,1.3l0,1.4c-0.1,3.9-0.4,8.4,0.4,13.6c0.3,2.4,1,5,2.2,7.6c0.6,1.3,1.3,2.5,2.1,3.7c0.4,0.6,0.9,1.2,1.4,1.7
					c0.5,0.5,0.9,0.9,1.4,1.4c0.1,0,0.1,0.1,0.1,0.1c0,0.1,0-0.1,0.1,0.5c0.1,0.3,0.1,0.5,0.2,0.8c0.1,0.3,0.1,0.6,0.2,1
					c0.1,0.7,0.2,1.7,0.3,2.4c0.2,2,0.4,3.9,0.4,6C216.6,222.9,216.7,225,216.7,227.1z"/>
			</g>
		</g>
	</g>
</g>
<g>
	<g>
		<g>
			<path class="st0" d="M423.4,393.3l-0.5,0.6C423.1,393.7,423.3,393.5,423.4,393.3z"/>
			<path class="st0" d="M457.2,287.3l0.2,0.2C457.3,287.3,457.3,287.3,457.2,287.3z"/>
			<path class="st0" d="M438.6,268l-0.2-0.6C438.5,267.7,438.6,267.8,438.6,268z"/>
			<g>
				<path class="st0" d="M443.1,309.2c0,1.2-0.2,2.3-0.3,3.5c-0.1,1.2-0.2,2.3-0.4,3.5l-0.5,3.5l-0.3,1.7l-0.3,1.7l-0.7,3.5
					l-0.8,3.4l-0.4,1.7l-0.5,1.7l-0.9,3.4c-2.8,9-6.4,17.9-10.6,26.5c-1.1,2.2-2.2,4.4-3.4,6.5l-1.8,3.2l-1.9,3.1l-1,1.6l-1,1.5
					l-2,3.1l-2.2,3l-1.1,1.5l-1.2,1.4l-2.3,2.9l-2.4,2.8l-1.2,1.4l-1.3,1.3l-2.6,2.7c-3.6,3.4-7.3,6.8-11.4,9.8
					c-4.3,3.2-8.7,6.3-13.2,9c-2.2,1.4-4.6,2.7-6.9,4c-2.4,1.2-4.7,2.6-7.1,3.7c-9.6,4.8-19.5,8.9-29.7,12.6
					c-10.3,3.8-20.6,7-31.1,10c-2.6,0.7-5.2,1.6-7.8,2.2c-2.6,0.7-5.2,1.3-7.8,2l-3.9,1c-1.3,0.3-2.7,0.5-4,0.8
					c-2.7,0.5-5.3,1-8,1.5c-5.2,0.8-10.4,1.6-15.6,2.4c-5.2,0.7-10.4,1.4-15.7,2c-5.3,0.6-10.5,1.2-15.8,1.7
					c-5.3,0.4-10.5,0.8-15.8,0.8c-5.6,0.1-11.3,0-17,0c-2.8,0-16.7,1.2-19.5,1.7c-1.2,0.2,7,0.9,9.3,1.1c7.5,0.6,19.1,1.3,25,1.4
					c3,0.1,5.6,0.1,8.1,0.1c2.4-0.1,4.6-0.1,6.9-0.1c2.2,0,4.5-0.2,6.9-0.3c2.4-0.2,5.1-0.3,8.2-0.6c6.3-0.5,12.7-1.1,19-1.7
					l2.4-0.2l2.4-0.3l4.7-0.6c3.1-0.4,6.3-0.7,9.4-1.3l9.4-1.6c1.6-0.2,3.1-0.6,4.7-1l4.7-1l4.7-1c1.6-0.3,3.1-0.7,4.6-1.1
					c3.1-0.7,6.1-1.5,9.2-2.2c19.9-4.7,40.5-11.9,59.5-21.2c5.1-2.5,10.2-5.2,15.2-8.1c4.9-3,9.8-6.1,14.4-9.6
					c4.6-3.5,9.1-7.2,13.3-11.3c1.1-1,2.1-2.1,3.1-3.1c1-1,2.1-2.1,3-3.2l2.9-3.3l2.8-3.4c3.8-4.9,7.5-10,10.7-15.4
					c3.2-5.3,6.3-10.7,9-16.3c2.7-5.6,5.1-11.4,7.1-17.3c2-6,3.6-12.1,4.7-18.3c1-6.2,1.6-12.4,1.7-18.6c0.1-6.2-0.3-12.5-1.1-18.7
					c-1.7-12.3-5.1-24.4-10.3-35.8c-6.1-13.3-14.7-25.3-24.9-35.6c-0.8-0.8-1.6-1.6-2.5-2.4c-0.8-0.8-1.6-1.6-2.5-2.3L412,206
					l-5.3-4.2c-1.8-1.4-3.6-2.7-5.4-4c-7.3-5.2-14.8-9.9-22.3-14.5l-11.2-6.7l-11.5-6.5l-23-12.3c-2.7-1.5-5.3-2.9-8-4.4
					c-2.6-1.5-5.2-3-7.8-4.5c-5-3.1-9.7-6.3-13.7-9.9c-0.5-0.5-1-0.9-1.5-1.4l-1.4-1.4c-0.9-0.9-1.9-2.1-2.9-3.2l-6-6.7
					c-2-2.2-4-4.5-6-6.8c-2.2-2.5-4.4-4.9-6.6-7.4c-1.1-1.2-2.4-2.2-3.9-3c-1.5-0.8-3.1-1.2-4.7-1.3c-0.8-0.1-1.7,0-2.5,0l-2.3,0.3
					l-2.5,0.4c-3.4,0.5-6.8,1-10.1,1.6c-2,0.3-4.2,0.7-6.4,1c-1.1,0.2-2.2,0.4-3.3,0.5c-1.2,0.2-2.6,0.5-3.9,0.8
					c-4.9,1.2-9.6,2.5-14.2,4c-9.1,2.9-17.7,6.2-24.1,9.5c-3.1,1.6-3.7,3.2-3.4,4.3c-0.5-1.8,18.2-3.1,19.6-3.2
					c4-0.6,8.2-1.3,12.4-2c4.2-0.7,8.5-1.6,12.6-2c0.7-0.1,1.3-0.1,2-0.2c0.7-0.1,1.4-0.1,2.1-0.1c1.4-0.1,2.8-0.1,4.2-0.2
					c2.8-0.1,5.5-0.2,8.2-0.4c2.7-0.1,5.4-0.3,8.1-0.4l0.5,0c0.1,0,0.4,0,0.4,0l0.3,0c0.2,0,0.4,0.1,0.6,0.2
					c0.4,0.2,0.6,0.5,0.7,0.8l0.1,0.1c0,0,0,0.1,0.1,0.2l0.6,0.8c0.4,0.5,0.8,1,1.2,1.5c0.8,1,1.6,2,2.4,3c1.7,2,3.3,4.1,5.2,6.2
					c3.1,3.5,6.2,6.9,9.3,10.4l0.6,0.6l0.7,0.7l1.4,1.3c0.5,0.4,0.9,0.9,1.4,1.3l1.4,1.2c1.9,1.7,3.9,3.2,5.8,4.7
					c4,2.9,8.1,5.4,12.1,7.8c4,2.4,8.1,4.6,12.1,6.8c4.1,2.2,8.1,4.4,12.1,6.5c4.1,2.1,8,4.3,12,6.4c4,2.2,7.8,4.4,11.7,6.6
					c3.9,2.3,7.9,4.7,11.7,7c6.6,4,13.1,8.1,19.3,12.4c6.2,4.3,12.1,8.9,17.6,13.8c5.4,5,10.4,10.4,14.7,16.2
					c4.3,5.9,8,12.2,11,18.8C441.4,272.9,444.4,291.4,443.1,309.2z"/>
			</g>
		</g>
	</g>
</g>
<g>
	<g>
		<g>
			<path class="st0" d="M58.8,376.9l0.1,0.5C58.9,377.2,58.9,377,58.8,376.9z"/>
			<path class="st0" d="M59.2,308.1l0.1,0.2C59.3,308.1,59.2,308.1,59.2,308.1z"/>
			<path class="st0" d="M49.2,289.9l0.1-0.4C49.2,289.7,49.2,289.8,49.2,289.9z"/>
			<g>
				<path class="st0" d="M42.3,319.9c-0.9,6.9-1.4,13.8-1.3,20.8c0.1,6.9,0.6,13.8,1.7,20.6c0.3,1.8,0.6,3.5,1,5.2l0.5,2.6l0.6,2.6
					c0.4,1.7,0.8,3.5,1.3,5.2l1.6,5.1c2.3,6.8,4.9,13.4,8.1,19.9c3.4,6.8,7.6,13.3,12.6,19.1c1.3,1.4,2.5,2.9,3.9,4.2l4.2,3.9
					c2.9,2.4,5.9,4.9,9.1,6.9c6.4,4.2,13,7.8,19.8,10.7l2.6,1.1c0.9,0.4,1.7,0.7,2.6,1c1.7,0.7,3.4,1.3,5.1,2
					c3.5,1.2,6.9,2.5,10.5,3.6c6.8,2.2,13.9,3.7,20.9,4.9l5.3,0.9l5.3,0.8l2.7,0.4l2.7,0.3c1.8,0.2,3.5,0.5,5.3,0.8
					c2.2,0.3,4.2,0.3,6.1,0.3c1.9,0,3.7,0,5.6,0.1c0.9,0,3.6-0.3,6.1-0.3c1.3,0,2.4,0,3.3,0.1c0.4,0.1,0.8,0.1,1.1,0.2
					c0.2,0.1,0.5,0.1,0.6,0.1c0.1,0,0.1-0.1-0.1-0.3c-0.1-0.1-0.2-0.3-0.4-0.4c-0.2-0.1-0.4-0.3-0.7-0.5c-1.1-0.6-2.7-1.1-3.4-1.3
					c-4.7-1.3-12.6-1.6-16.4-2.1c-7.7-1.4-11.4-2.2-19.3-3.9c-8.2-1.8-16.1-3.9-23.8-6.7c-1.9-0.6-3.8-1.4-5.7-2.2
					c-1.9-0.8-3.8-1.5-5.7-2.4c-1.9-0.9-3.8-1.7-5.5-2.6c-1.8-1-3.5-1.9-5.3-2.9c-5.6-3.4-11.2-6.7-16.4-10.8
					c-5.2-4-9.9-8.6-13.8-13.7c-4.2-5.6-7.4-11.8-10-18.2c-2.6-6.4-4.6-13.1-6-20c-1.6-7.3-2.3-14.8-2.5-22.4
					c-0.2-7.6,0.1-15.2,0.6-22.8c0.6-7.5,1.5-15,2.9-22.3L60,305l0.3-1.4l0.3-1.4l1.3-5.5c0.5-1.8,1-3.6,1.6-5.4l0.8-2.7l0.9-2.6
					c2.9-8.2,6.4-16.3,10.8-23.8c10.9-19.1,25.5-36,42.7-50.3c3.9-3.2,7.9-6.3,12-9.2c4.1-3,8.3-5.7,12.5-8.5
					c8.5-5.5,17.3-11.1,25.7-17.7c4.5-3.5,9.7-7.8,14.3-12.6c4.6-4.8,8.4-10,10.3-14.7c0.9-2.3,0.4-3.6-0.5-4.3
					c0.7,0.6-1.6,2.7-4.3,4.6c-1.4,0.9-2.7,1.8-3.9,2.5c-1.1,0.7-2,1.1-2.2,1.2c-4.5,3-9.1,6.5-13.9,9.4
					c-9.3,5.6-18.3,9.4-28.1,15.6c-20.7,12.9-40.5,28.4-57,47.7l-2.6,3.1c-0.9,1-1.7,2.1-2.5,3.2l-2.5,3.2c-0.8,1.1-1.7,2.1-2.4,3.3
					l-4.5,6.7c-0.8,1.1-1.4,2.3-2.1,3.4l-2.1,3.5c-5.4,9.4-9.9,19.2-13.5,29.4c-1.2,3-2,6.2-3,9.3c-0.5,1.6-0.9,3.2-1.3,4.7
					c-0.4,1.6-0.9,3.2-1.3,4.8C44.5,306.8,43.1,313.3,42.3,319.9z"/>
			</g>
		</g>
	</g>
</g>
<g>
	<g>
		<g>
			<path class="st0" d="M169.5,262.1l0,0.2C169.5,262.2,169.5,262.2,169.5,262.1z"/>
			<path class="st0" d="M180.4,238.6l0.1,0.1C180.5,238.6,180.5,238.6,180.4,238.6z"/>
			<path class="st0" d="M171.2,226.5l0.1-0.2C171.2,226.4,171.2,226.4,171.2,226.5z"/>
			<g>
				<path class="st0" d="M164.9,236.3c-2.6,4.6-4.6,9.7-5.9,15c-0.3,1.4-0.5,2.8-0.7,4.2c-0.2,1.4-0.5,2.7-0.6,4.1
					c-0.3,2.8-0.7,5.5-1.1,8.2l-0.4,2.2L156,271l-0.1,1.1l-0.5,4.3c-0.2,1.4-0.1,2.9-0.2,4.4c0,1.5,0,2.9,0.1,4.4
					c0.1,1.5,0.2,2.9,0.3,4.3c0.1,1.4,0.3,2.9,0.4,4.3l0.1,2.1l0.3,2.2c0.2,1.4,0.3,2.9,0.6,4.4c0.6,2.8,1.4,5.5,2.5,8.1
					c0.6,1.3,1,2.6,1.6,3.9c0.6,1.3,1.1,2.6,1.5,3.9l0.3,1.1l0.2,0.5l0.1,0.4c0.1,0.6,0.3,1.1,0.3,1.6c0,0.1,0.1,0.4,0.3,0.7
					c0.2,0.3,0.3,0.7,0.5,1.1c0.2,0.4,0.3,0.8,0.5,1.1c0.1,0.3,0.3,0.6,0.4,0.8c0.1,0.1,0.4-0.2,0.7-0.7c0.3-0.5,0.6-1.1,0.7-1.3
					c0.1-0.4,0.3-1,0.4-1.5c0.1-0.6,0.1-1.2,0.2-1.8c0-1.2-0.1-2.4-0.3-3.2c-0.3-1.5-0.5-2.6-0.7-3.7c-0.1-0.5-0.3-1.1-0.4-1.7
					c-0.1-0.6-0.3-1.2-0.4-2c-0.2-0.8-0.4-1.5-0.6-2.3l-0.3-1.1l-0.2-1.1c-0.2-1.5-0.5-3-0.7-4.5c-0.1-1.5-0.1-3-0.1-4.6
					c0-0.4,0-0.8,0-1.1l0.1-1.2c0.1-0.8,0.2-1.5,0.3-2.3c0.3-2.5,0.5-5,0.5-7.5c0-1.3,0.1-2.5,0.2-3.7c0.1-1.2,0.2-2.5,0.5-3.7
					l1-3.9l1.2-3.8l0.6-1.9l0.7-1.9c0.4-1.2,0.8-2.5,1.2-3.8c1.6-5.4,4.6-10.2,7.1-15.4c2.5-5.1,5.1-10.3,8.1-15.3
					c1.8-2.9,3.6-5.9,5.6-8.8c1.2-1.8,2.4-3.7,3.5-5.6c1.2-1.9,2.3-3.9,3.4-5.8c1.3-2.3,1.7-3.1,3-4.9c1.2-1.7,2.7-3.6,4-5.6
					c2.5-3.7,4.9-7.5,6.7-11.6c1.8-4.1,3.1-8.4,3.6-12.8c0.5-4.6,0.8-10.9-2.2-14.6c-0.7-0.9-2-1.2-3.1-1.2c0.9,0,0.4,1.2-0.4,2.4
					c-0.8,1.2-1.8,2.4-1.9,2.6c-0.6,1-1.1,2-1.5,3c-0.4,1-0.8,2.1-1.3,3c-0.5,0.9-1,1.8-1.5,2.7c-0.6,0.8-1.1,1.7-1.6,2.5
					c-0.3,0.4-0.5,0.8-0.8,1.2c-0.3,0.4-0.5,0.8-0.8,1.2c-0.5,0.8-0.9,1.7-1.3,2.6c-1.6,3.7-3.4,7.1-5.6,10.5
					c-1.1,1.7-2.3,3.3-3.7,5.2c-0.7,1-1.5,2-2.3,3.3l-0.6,1l-0.5,0.8l-0.8,1.5c-3.8,6.6-7.7,13.4-11.9,20.1
					C170.2,227.7,167.3,231.8,164.9,236.3z"/>
			</g>
		</g>
	</g>
</g>
<g>
	<g>
		<g>
			<path class="st0" d="M202.4,79.1l-0.2,0C202.2,79.1,202.3,79.1,202.4,79.1z"/>
			<path class="st0" d="M230.7,75.4l0,0.2C230.7,75.5,230.7,75.4,230.7,75.4z"/>
			<path class="st0" d="M234.9,60.6l0.2,0C235,60.6,234.9,60.6,234.9,60.6z"/>
			<g>
				<path class="st0" d="M223,61.6c-2.6,0.3-5.2,0.8-7.8,1.3c-2.6,0.5-5.1,1.2-7.7,1.9c-5.2,1.5-10.3,3.5-15.7,4.4
					c-5.4,0.8-11,0.9-16.7,1.5c-2.9,0.3-5.8,0.4-8.6,0.4c-1.4,0-2.8,0-4.2-0.1c-1.4-0.1-2.8-0.2-4.2-0.3c-2.7-0.1-5.4-0.2-8.1-0.3
					l-1,0l-0.9-0.1c-0.6-0.1-1.2-0.2-1.8-0.3c-0.6-0.1-1.3-0.3-1.9-0.5c-0.6-0.2-1.3-0.4-1.9-0.7c-1.3-0.6-2.7-1.3-4-1.9
					c-0.6-0.3-4.5-0.7-5.4-0.5c-0.4,0.1,1.5,1.6,2,2.1c1.6,1.4,4.1,3.4,5.5,4.2c1.4,0.8,2.5,1.4,3.5,1.9c1.1,0.5,2.2,1,4,1.4
					c6.8,1.4,13.4,1.9,20.1,3.3c5.4,1,11,0.4,16.6,0.6l4.6,0.1c1.5,0,3.1,0,4.7,0c3-0.1,5.9-0.3,8.8-0.7c6.2-0.9,12.6-0.8,18.8-1.9
					l9.1-1.6l4.5-0.7c1.5-0.2,3-0.4,4.5-0.5c1.7-0.2,3.5-0.4,5.2-0.5l5.3-0.2c2.3-0.1,4.1-0.1,7.3-0.4c0.8-0.1,1.3-0.2,1.9-0.3
					l1.8-0.3c1.2-0.2,2.3-0.5,3.5-0.7c4.6-1,9.1-2.1,13.6-3.1c2-0.5,4.1-0.9,6.1-1.2c2-0.4,4.1-0.7,6.3-1.2c1.1-0.2,2.2-0.5,3.4-0.8
					c0.6-0.2,1.1-0.3,1.7-0.5l1.8-0.7c0.6-0.2,1.2-0.5,1.8-0.8l1.7-0.9c0.6-0.3,1.1-0.6,1.7-1c0.5-0.4,1-0.7,1.5-1.1
					c4.3-3.3,8.8-7.9,9.2-12.7c0.1-1.2-0.6-2.3-1.5-3c1.3,1.3-4.9,2.1-5.2,2.1c-2.3,0.6-4.3,1.9-6.4,2.6c-0.5,0.2-1,0.3-1.5,0.5
					c-0.5,0.1-1,0.2-1.5,0.3c-1,0.2-1.9,0.4-2.9,0.4c-0.9,0.1-1.8,0.2-2.7,0.3c-0.5,0-0.9,0.1-1.3,0.2c-0.5,0.1-1,0.1-1.4,0.3
					c-4,0.9-8.9,1.8-13.4,2.9c-4.6,1.1-9.2,2.2-13.8,3.1c-2,0.4-3.8,0.7-5.6,1.1l-2.2,0.3l-3.2,0.2l-6.3,0.4
					c-2.1,0.1-4.2,0.4-6.3,0.6c-1.3,0.1-2.5,0.2-3.8,0.3c-1.3,0.1-2.5,0.2-3.8,0.4C228.1,61,225.5,61.2,223,61.6z"/>
			</g>
		</g>
	</g>
</g>
<g>
	<g>
		<g>
			<path class="st0" d="M239.3,39.2l-0.3,0C239.1,39.2,239.2,39.2,239.3,39.2z"/>
			<path class="st0" d="M282.2,36.5l-0.1,0.2C282.2,36.6,282.2,36.6,282.2,36.5z"/>
			<path class="st0" d="M291.6,22.5l0.3,0C291.8,22.5,291.7,22.5,291.6,22.5z"/>
			<g>
				<path class="st0" d="M273.4,21.8c-2.1,0-4.2,0-6.3,0.1c-2.1,0.2-4.2,0.3-6.3,0.5l-3.1,0.3c-1,0.1-2.1,0.3-3.1,0.5
					c-2.1,0.3-4.1,0.7-6.1,1.1c-2.1,0.4-4.2,1-6.2,1.5c-2.1,0.5-4.1,1-6.2,1.6c-2.1,0.6-4.1,1.1-6.2,1.7c-2.1,0.5-4.1,1-6.2,1.5
					c-2.2,0.5-4.4,1-6.6,1.5c-2.2,0.6-4.4,1.1-6.6,1.7l-3.3,0.9l-3.2,1c-2.1,0.7-4.3,1.4-6.4,2.1c-2.1,0.8-4.2,1.6-6.4,2.3l-3.2,1.1
					l-3.1,1c-4.1,1.3-8.3,2.4-12.7,3.5c-4.2,1.1-8.4,2.6-12.5,4.2l-3.1,1.3L155,52c-0.5,0.2-1,0.5-1.5,0.7c-1,0.5-2,1-3.1,1.4
					c-0.5,0.2-1.1,0.5-1.6,0.8c-0.5,0.3-1.1,0.5-1.6,0.8c-2.3,1.2-4.4,2.7-6.4,4.5c-0.2,0.2-0.7,0.7-1.1,1.4c-0.4,0.7-1,1.5-1.4,2.4
					c-0.9,1.8-1.4,3.7-1.5,4.3c0,0.3,0.6-0.3,1.3-1c0.7-0.8,1.6-1.5,1.9-1.9c0.6-0.6,1.3-1.1,2.1-1.7c0.8-0.6,1.6-1.1,2.4-1.6
					c1.6-1,3.2-1.7,4.3-2.2c0.5-0.2,1-0.5,1.5-0.7c0.5-0.2,1-0.4,1.4-0.5c0.9-0.4,1.8-0.6,2.6-0.9c0.8-0.3,1.7-0.6,2.6-0.9
					c0.9-0.3,1.9-0.6,3.1-1c9.6-3.1,19.5-4.7,29.9-6.8c2-0.4,4-0.9,6-1.4c2-0.5,4-1.2,6-1.7c4-1.1,8-2.4,12.1-3
					c8.8-1.7,17.6-2.4,26.4-3.8c2.3-0.3,4.7-0.6,7-0.9c2.3-0.3,4.7-0.3,7.1-0.5l3.5-0.2c1.2-0.1,2.4-0.1,3.5-0.1
					c2.4-0.1,4.7-0.2,7.1-0.4c4.7-0.1,9.3-0.2,13.9-0.3l7.2-0.1c2.4,0,5,0,6.8,0c2.3,0.1,4.4,0.5,6.2,1.2c0.4,0.2,0.9,0.4,1.3,0.6
					c0.1,0,0.2,0.1,0.3,0.2l0.3,0.2l0.1,0L305,39c0.1,0.1,0.1,0.1,0.2,0.2c0.3,0-0.1,0.7-0.3,1.2l-0.3,0.7l-0.1,0.2l0,0.1
					c-0.1,0.2-0.2,0.5-0.2,0.7l-0.3,1.1c-0.2,0.7-0.5,1.6-0.8,2.4c-0.3,0.8-0.6,1.8-0.8,2.8l-0.2,0.7l-0.2,0.8l-0.3,1.6l-0.1,0.4
					l0,0.2c0,0.1,0,0,0,0.1c0,0.1,0,0.1-0.1,0.2c0,0.1-0.1,0.4-0.2,0.6c-0.4,1.1-1,2.5-1.8,4.2l-0.6,1.3l-0.6,1.4
					c-0.2,0.5-0.4,1.1-0.6,1.7l-0.4,0.9c-0.9,2.2-2.2,4.1-4.4,6.4l-1.5,1.5l-1.6,1.6l-1.7,1.7c-0.6,0.6-1.1,1.2-1.7,1.8l-1.7,1.8
					c-0.5,0.6-1,1.3-1.6,1.9l-1.5,1.9l-1.4,1.9c-1,1.3-1.8,2.5-2.7,3.8c-0.9,1.3-1.7,2.5-2.5,3.8l-1.2,1.9l-0.6,0.9l-0.6,1
					c-0.8,1.4-1.6,2.8-2.3,4.2l-0.2,0.4c0.1-0.1,0.1-0.2,0.2-0.3c0.1-0.1,0.1-0.1,0.1-0.1l0,0l0,0c0,0,0.1,0,0,0.1
					c-0.2,0.3-0.7,0.7-1.2,1.2c-0.5,0.5-1.2,1-1.9,1.6c-1.3,1.1-2.8,2.3-4.3,3.7s-2.9,2.7-4.2,4.3c-1.3,1.6-2.4,3.2-3.1,5.3
					c-0.2,0.5-0.3,1-0.3,1.5c0,0.5,0,0.9,0.2,1.2c0.3,0.6,0.9,1,1.4,1.2c-0.2-0.1-0.3-0.3-0.3-0.5c0-0.2,0.3-0.7,0.6-1
					c0.6-0.7,1.6-1.2,2.6-1.6c2-0.8,4.2-1.1,4.5-1.2c3.2-1.1,6.5-2.7,9.8-4.2c1.2-0.6,2.5-1.1,3.8-1.9c0.6-0.4,1.3-0.8,2-1.4
					c0.8-0.6,1.4-1.4,2-2.2c1.3-1.4,2.6-2.8,3.9-4.3c1.4-1.5,2.7-3.2,3.9-4.9c1-1.4,2.1-3,3.1-4.3c0.5-0.7,1-1.4,1.5-2l1.6-1.9
					c0.5-0.7,1.1-1.3,1.6-1.9c0.6-0.6,1.1-1.2,1.7-1.8c1.1-1.2,2.3-2.4,3.7-3.8c1.3-1.3,2.9-3,4.3-4.9c0.7-1,1.4-2,2-3.1
					c0.6-1.1,1.2-2.2,1.7-3.4l0.7-1.7l0.4-0.9c0.1-0.3,0.3-0.7,0.4-1l0.5-1.2c0.8-1.6,1.7-3.4,2.5-5.9c0.2-0.5,0.4-1,0.5-1.8
					l0.4-1.6c0.1-0.6,0.2-1.1,0.4-1.7l0.6-1.9l0.7-2.2c0.7-2.3,2.6-8.6,4.2-13.6l0.1-0.5c-0.1-0.1-0.3-0.3-0.4-0.4l-0.8-0.8
					l-1.6-1.5c-1.1-1-2.3-1.9-3.4-2.9c-1-1-2.5-1.8-3.9-2.6l-0.5-0.3l-0.4-0.2c-0.2-0.1-0.5-0.3-0.7-0.4l-1.5-0.6
					c-3.9-1.6-8-2.3-11.7-2.5c-3.9-0.1-7.8-0.3-11.8-0.4C281.5,21.9,277.4,21.9,273.4,21.8z"/>
			</g>
		</g>
	</g>
</g>
<g>
	<g>
		<g>
			<path class="st0" d="M170.3,106.8L170.3,106.8C170.4,106.8,170.4,106.8,170.3,106.8z"/>
			<path class="st0" d="M162.6,95.8l0.1-0.1C162.7,95.7,162.7,95.8,162.6,95.8z"/>
			<path class="st0" d="M149.2,101.1L149.2,101.1C149.2,101.1,149.2,101.1,149.2,101.1z"/>
			<g>
				<path class="st0" d="M152,106.4c1.5,2.3,3.2,4.3,5.6,5.9c2.3,1.7,5.1,3,7,5.1c1.1,1.1,2.2,2.1,3.2,3.2c1,0.9,1.9,1.7,3.1,2.6
					c2.2,1.6,4,3.9,5.8,6.1c1.8,2.2,4.6,3.4,6.4,5.7c0.5,0.6,0.9,1.3,1.4,1.9c0.3,0.3,2.4,0.9,2.9,0.8c0.2,0-0.1-1.5-0.2-1.9
					c-0.1-0.6-0.3-1.4-0.5-2.1c-0.2-0.7-0.4-1.3-0.5-1.7c-0.3-0.8-0.6-1.3-0.9-1.8c-0.3-0.5-0.6-1-1-1.7c-1.9-2.6-3.7-5.1-4.9-8.5
					c-0.5-1.3-1.3-2.4-2.3-3.5c-0.9-1-2.1-2.1-2.8-3.2c-0.7-1.2-1.3-2.3-2-3.5c-0.6-1.2-1.3-2.4-2.2-3.4c-1.8-2.3-2.9-5.1-4.7-7.4
					l-2.7-3.5c-0.9-1.2-1.8-2.3-2.6-3.6c-1-1.5-1.9-3-2.7-4.5c-1.1-2-2.3-3.8-3.6-5.7c-0.6-0.9-1.2-1.8-2-2.9l-1.1-1.5l-1.1-1.5
					c-2.6-3.5-4.2-7.4-6.8-9.9c-1.5-1.4-2.8-3.2-6.2-3.1c-0.8,0-2,0.5-3,1.1c0.8-0.5,0.7,0.3,0.3,1.2c-0.4,0.9-0.9,2-0.9,2.1
					c-0.4,1.5-0.1,2.7,0,4.1c0.1,1.3,0.1,2.7,0.2,4c0.1,1.3,0.3,2.5,0.9,3.5c1.2,2.1,2.5,4,3.8,5.7l1,1.3l0.9,1.2
					c0.3,0.4,0.6,0.8,0.9,1.3l1,1.5c2.2,3.3,4.5,6.6,6.6,10.1C149.5,101.9,150.7,104.2,152,106.4z"/>
			</g>
		</g>
	</g>
</g>
</svg>
