<svg xmlns="http://www.w3.org/2000/svg" viewBox="0 0 500 500"><path d="M232.15 246l.02.16c0-.07.02-.12-.02-.16zM231.11 221.21l.16.04a.19.19 0 0 0-.16-.04zM216.58 217.38l-.03-.13c0 .06.01.1.03.13z"/><path d="M216.72 227.06a69.93 69.93 0 0 0 1.62 13.58c.57 2.39 1.15 4.7 1.84 7.1a95.42 95.42 0 0 1 1.66 7.2l.64 3.88c.3 1.3.62 2.59.94 3.87l.5 1.93c.09.32.16.63.27.97l.39 1.05c.25.73.55 1.35.85 1.97.29.63.6 1.23.94 1.8 2.64 4.64 4.9 9.02 7.37 13.55 2.42 4.36 6 7.87 8.57 12.2.7 1.16 1.33 2.37 2.1 3.55a8.6 8.6 0 0 0 1.95 1.57 11.21 11.21 0 0 0 2.41 1.24c.35.06-.66-2.08-.78-2.63-.67-1.87-1.42-4.56-1.94-5.84-1.07-2.57-1.51-3.78-2.86-6.2-2.7-5.05-5.31-10.04-6.68-15.6a45.79 45.79 0 0 0-2.29-6.33l-.57-1.48c-.17-.47-.28-.9-.43-1.34a31.68 31.68 0 0 1-.54-3.24l-.18-1.77c-.06-.58-.1-1.17-.1-1.79l-.03-3.6-.05-1.8v-1.83a43.07 43.07 0 0 0-.2-3.65c-.18-2.63-.13-5.27-.06-7.96.08-2.71.17-5.38-.02-8.17-.09-1.37-.18-2.72-.3-4.09l-.44-4.16-.22-2.07-.3-2.11c-.2-1.41-.39-2.82-.56-4.24-.1-.88-.2-1.44-.3-2.34a42.3 42.3 0 0 0-.48-2.81c-.1-.51-.23-1.03-.43-1.73-.19-.69-.47-1.35-.75-2.02-.27-.66-.67-1.27-1.03-1.9-.2-.29-.46-.55-.69-.83l-.35-.41c-.04-.08-.13-.1-.15-.24l-.22-.25-.25-.26-.13-.13-.06-.06-.03-.03.11.12-.63-.72a6.61 6.61 0 0 0-.44-.61c-.25-.45-.52-.87-.72-1.4a15.38 15.38 0 0 1-1.01-3.72c-.44-2.97-.36-6.57-.25-10.65l.08-2.9.03-1.51v-1.44c0-.96.04-1.91.03-2.88l-.1-2.93c-.21-3.9-.72-7.96-2.34-11.89l-.64-1.61c-.23-.56-.54-1.12-.82-1.68-.3-.57-.6-1.14-.92-1.7l-.5-.83a17.04 17.04 0 0 0-3.23-3.56 10.03 10.03 0 0 0-3.23-1.6c-1.1-.28-2.26.32-3.16 1.03.74-.59 1 .65 1 2 0 .68-.05 1.38-.1 1.93-.07.55-.19.98-.18 1.06a17.1 17.1 0 0 0 .17 3.03c.1.98.14 1.98.15 2.94-.08 3.8-1.16 7.07-1.04 10.62l.09 1.39.02 1.42c.02.94.1 1.85.09 2.82l.06 2.83v1.32l-.03 1.41c-.07 3.89-.35 8.38.35 13.61.34 2.4 1 5 2.17 7.56a22.83 22.83 0 0 0 3.5 5.45c.45.5.91.93 1.38 1.4.06.01.06.08.11.1.04.1 0-.06.15.52.05.25.11.47.16.81l.16 1.02c.08.66.25 1.73.3 2.4.18 1.98.36 3.95.44 6l.16 6.3zM423.39 393.33l-.5.62c.24-.27.4-.44.5-.62zM457.23 287.33l.18.2c-.07-.2-.13-.23-.18-.2zM438.63 267.95l-.22-.56c.1.27.16.44.22.56z"/><path d="M443.14 309.23c-.04 1.16-.18 2.33-.3 3.5-.14 1.15-.24 2.32-.38 3.48l-.52 3.48-.27 1.73-.34 1.73-.66 3.46-.82 3.43-.4 1.72-.48 1.7-.95 3.4a174.93 174.93 0 0 1-10.6 26.47c-1.14 2.18-2.2 4.45-3.42 6.54l-1.77 3.2-1.9 3.13-.96 1.56-1.02 1.53-2.04 3.05-2.17 2.97-1.1 1.48-1.15 1.44-2.32 2.87-2.45 2.78-1.23 1.39-1.3 1.34-2.59 2.67a123.86 123.86 0 0 1-11.36 9.81 154.28 154.28 0 0 1-13.23 9.02c-2.25 1.43-4.6 2.7-6.92 4.04-2.36 1.25-4.7 2.56-7.1 3.73a300.29 300.29 0 0 1-29.74 12.61c-10.26 3.8-20.63 6.96-31.08 10.02-2.61.75-5.25 1.58-7.84 2.24l-7.8 1.98-3.92.98-3.98.76-8 1.52-15.62 2.44c-5.24.65-10.43 1.43-15.72 2.04-5.29.65-10.55 1.22-15.81 1.73-5.26.4-10.53.84-15.78.83-5.56.08-11.33.02-17 .05a276 276 0 0 0-19.47 1.72c-1.24.21 6.97.94 9.26 1.12 7.51.65 19.08 1.3 25.02 1.44 3.02.06 5.65.12 8.07.14l6.88-.15c2.24-.04 4.47-.17 6.92-.32 2.45-.16 5.12-.32 8.2-.58 6.34-.47 12.67-1.09 18.98-1.7l2.36-.22 2.36-.3 4.71-.6c3.14-.44 6.29-.72 9.4-1.33l9.37-1.59c1.57-.22 3.1-.64 4.66-.97l4.66-1.03 4.67-1.02c1.56-.34 3.06-.74 4.6-1.1l9.17-2.22a292.22 292.22 0 0 0 59.5-21.2c5.14-2.5 10.2-5.2 15.17-8.12 4.93-2.98 9.78-6.13 14.43-9.6 4.62-3.5 9.14-7.2 13.34-11.27 1.08-.98 2.07-2.07 3.1-3.1 1.03-1.05 2.06-2.09 3.03-3.2l2.92-3.28 2.77-3.43c3.85-4.93 7.51-10.02 10.75-15.37 3.21-5.3 6.26-10.66 8.95-16.28 2.68-5.6 5.14-11.36 7.14-17.32a131.56 131.56 0 0 0 4.68-18.3c1.02-6.16 1.6-12.4 1.75-18.63.08-6.25-.33-12.48-1.1-18.66a127.37 127.37 0 0 0-10.29-35.82 124.74 124.74 0 0 0-24.92-35.62c-.8-.83-1.64-1.6-2.46-2.4-.83-.78-1.64-1.6-2.5-2.33l-5.13-4.47-5.3-4.21c-1.78-1.39-3.6-2.67-5.41-4a346.86 346.86 0 0 0-22.26-14.48l-11.22-6.7-11.53-6.54-23.01-12.3-7.97-4.39a276.93 276.93 0 0 1-7.75-4.53 95.08 95.08 0 0 1-13.75-9.93c-.5-.46-1.03-.9-1.51-1.37l-1.42-1.42c-.92-.87-1.94-2.08-2.93-3.17l-5.97-6.66c-1.99-2.18-4-4.5-6.02-6.8l-6.57-7.4a14.04 14.04 0 0 0-3.9-3 12.22 12.22 0 0 0-4.72-1.3c-.81-.1-1.66-.04-2.48.01l-2.28.29-2.54.37c-3.36.5-6.8 1.02-10.13 1.56l-6.38 1.02-3.33.54c-1.23.22-2.6.52-3.92.8a202.2 202.2 0 0 0-14.15 3.97c-9.14 2.9-17.74 6.18-24.06 9.54-3.06 1.63-3.72 3.17-3.42 4.27-.5-1.8 18.23-3.09 19.56-3.24 4.03-.55 8.22-1.29 12.45-2.05 4.2-.73 8.55-1.56 12.57-1.98l1.97-.19c.66-.05 1.39-.07 2.08-.11l4.17-.2a14488.86 14488.86 0 0 1 16.34-.76l.5-.03c.16 0 .4-.02.41 0l.34.03c.2.04.39.08.56.17.35.17.58.52.71.84l.07.13c.02.04.02.06.15.22l.59.75 1.18 1.5 2.44 3.03c1.67 2.04 3.35 4.08 5.18 6.17l9.31 10.4.59.65.66.67 1.36 1.35c.46.44.9.9 1.37 1.33l1.42 1.24c1.88 1.7 3.86 3.2 5.83 4.69 3.97 2.94 8.07 5.44 12.11 7.83 4.04 2.38 8.06 4.56 12.13 6.79 4.06 2.24 8.08 4.35 12.12 6.5 4.07 2.13 7.98 4.28 11.99 6.42 3.97 2.15 7.79 4.42 11.7 6.62 3.91 2.3 7.85 4.67 11.72 7.02a390.45 390.45 0 0 1 19.25 12.39 187.26 187.26 0 0 1 17.58 13.84 116.92 116.92 0 0 1 14.73 16.21 105.38 105.38 0 0 1 11.02 18.76c7.15 15.8 10.1 34.25 8.86 52.1z"/><g><path d="M58.8 376.9l.12.46c-.04-.2-.05-.35-.12-.46zM59.18 308.11l.13.17c-.03-.14-.08-.17-.13-.17zM49.16 289.9l.1-.43c-.06.2-.09.33-.1.43z"/><path d="M42.3 319.93c-.89 6.87-1.4 13.81-1.33 20.75.08 6.93.6 13.85 1.66 20.64.29 1.75.64 3.5.96 5.25l.5 2.6.65 2.6c.44 1.73.83 3.46 1.31 5.17l1.57 5.11a150.64 150.64 0 0 0 8.11 19.9 94.62 94.62 0 0 0 12.6 19.12c1.29 1.41 2.51 2.88 3.86 4.23l4.16 3.94a85.91 85.91 0 0 0 9.09 6.9c6.38 4.21 12.96 7.82 19.82 10.7l2.55 1.14c.86.36 1.71.67 2.57 1.01l5.14 2.02c3.48 1.21 6.94 2.54 10.51 3.61 6.85 2.24 13.9 3.69 20.94 4.92l5.3.87 5.3.75 2.66.4 2.66.33c1.77.23 3.54.48 5.32.75 2.23.26 4.16.28 6.1.32l5.6.06c.9.02 3.6-.27 6.1-.33 1.25-.03 2.44.03 3.33.13.44.05.79.13 1.1.17.24.07.45.12.6.13.14.02.1-.1-.09-.33-.1-.1-.2-.27-.38-.42l-.68-.47a14.81 14.81 0 0 0-3.4-1.32c-4.69-1.3-12.6-1.59-16.38-2.08-7.7-1.4-11.39-2.24-19.28-3.9a185.8 185.8 0 0 1-23.83-6.71c-1.94-.65-3.84-1.4-5.74-2.17-1.9-.75-3.8-1.5-5.66-2.37-1.85-.85-3.75-1.65-5.54-2.59l-5.33-2.86c-5.55-3.39-11.21-6.74-16.41-10.76a76.06 76.06 0 0 1-13.83-13.72 81.47 81.47 0 0 1-10-18.17c-2.57-6.43-4.59-13.1-6.05-19.98a121.35 121.35 0 0 1-2.54-22.45c-.22-7.58.06-15.17.63-22.75.56-7.48 1.5-14.97 2.93-22.33l.53-2.76.26-1.39.33-1.36 1.33-5.46c.46-1.82 1.04-3.6 1.56-5.4l.81-2.69.94-2.65a139.1 139.1 0 0 1 10.82-23.8c10.88-19.15 25.53-35.98 42.73-50.31a210.4 210.4 0 0 1 12.03-9.19c4.08-2.95 8.25-5.71 12.5-8.49 8.5-5.54 17.27-11.06 25.73-17.72 4.47-3.52 9.72-7.82 14.3-12.6 4.58-4.75 8.4-10.02 10.32-14.7.94-2.29.36-3.64-.54-4.35.72.57-1.6 2.72-4.28 4.6a66.17 66.17 0 0 1-3.88 2.5c-1.14.64-1.99 1.1-2.17 1.23-4.5 3-9.15 6.5-13.93 9.4-9.3 5.58-18.27 9.38-28.07 15.59-20.68 12.94-40.46 28.43-56.96 47.66l-2.64 3.05c-.87 1.03-1.66 2.13-2.49 3.19l-2.46 3.21c-.8 1.08-1.68 2.1-2.4 3.25l-4.53 6.73c-.78 1.1-1.43 2.29-2.13 3.44l-2.06 3.48a178.76 178.76 0 0 0-13.46 29.42c-1.16 3.01-2.02 6.15-3.05 9.26-.52 1.56-.89 3.16-1.33 4.74l-1.29 4.78c-1.46 6.45-2.87 12.93-3.68 19.53z"/></g><g><path d="M169.5 262.15l-.03.17c.03-.07.06-.12.04-.17zM180.43 238.56l.11.12a.19.19 0 0 0-.11-.12zM171.16 226.46l.07-.15a.36.36 0 0 0-.07.15z"/><path d="M164.87 236.27a55.79 55.79 0 0 0-5.86 15.01c-.31 1.37-.5 2.78-.72 4.16-.2 1.39-.48 2.74-.59 4.14-.28 2.78-.7 5.48-1.1 8.23l-.38 2.16-.19 1.07-.13 1.09-.49 4.34c-.15 1.44-.13 2.9-.18 4.35-.02 1.46-.03 2.9.14 4.36.14 1.46.24 2.9.3 4.34.14 1.43.28 2.86.38 4.28l.14 2.15.28 2.16c.2 1.45.33 2.92.57 4.37a40.53 40.53 0 0 0 2.54 8.1c.56 1.3 1.02 2.63 1.57 3.92.58 1.28 1.1 2.58 1.53 3.93l.33 1.08.15.54.1.42c.1.56.26 1.1.27 1.64.02.13.12.38.28.68.16.3.28.67.47 1.05.21.39.32.79.45 1.13.13.35.26.64.36.79.1.13.37-.2.67-.67.3-.46.61-1.07.67-1.34.14-.45.33-.98.44-1.54.08-.57.15-1.18.2-1.8a22.7 22.7 0 0 0-.28-3.17c-.27-1.52-.46-2.62-.71-3.7-.11-.55-.3-1.07-.4-1.67a47.4 47.4 0 0 0-.45-1.97l-.55-2.27-.28-1.13-.18-1.14c-.24-1.53-.47-3.04-.67-4.55-.06-1.52-.1-3.04-.1-4.56 0-.38 0-.75.02-1.13l.12-1.16c.08-.77.18-1.54.3-2.3.28-2.49.5-4.98.47-7.48.03-1.25.15-2.5.24-3.75.1-1.24.2-2.48.52-3.68l.96-3.88 1.22-3.8.59-1.88.67-1.87c.44-1.24.78-2.5 1.17-3.77 1.64-5.4 4.6-10.15 7.08-15.35 2.53-5.1 5.08-10.29 8.14-15.32 1.78-2.95 3.63-5.85 5.56-8.78 1.21-1.84 2.38-3.73 3.53-5.64 1.16-1.89 2.26-3.86 3.36-5.82 1.27-2.3 1.7-3.1 3.02-4.9 1.21-1.7 2.65-3.6 4-5.64a77.47 77.47 0 0 0 6.72-11.62c1.85-4.1 3.13-8.4 3.63-12.8.48-4.64.78-10.91-2.2-14.63-.72-.9-2-1.17-3.15-1.18.94 0 .4 1.2-.4 2.4s-1.84 2.38-1.94 2.54c-.6.99-1.1 2-1.52 3.03-.44 1.03-.8 2.07-1.35 3.04-.5.94-1.01 1.84-1.53 2.72l-1.64 2.52a738.49 738.49 0 0 1-1.55 2.48c-.5.83-.9 1.7-1.32 2.56a70.05 70.05 0 0 1-5.62 10.46c-1.11 1.67-2.33 3.33-3.74 5.25-.7.97-1.47 2.01-2.29 3.34l-.61 1.02-.46.8-.83 1.46a549.94 549.94 0 0 1-11.95 20.13c-2.5 4.07-5.34 8.19-7.8 12.65z"/></g><g><path d="M202.35 79.05l-.2.04c.1 0 .16 0 .2-.04zM230.71 75.37l-.03.16a.18.18 0 0 0 .03-.16zM234.9 60.6l.18-.05a.41.41 0 0 0-.18.04z"/><path d="M223.02 61.56c-2.61.33-5.2.76-7.78 1.31a88.15 88.15 0 0 0-7.66 1.9c-5.2 1.54-10.35 3.53-15.68 4.35-5.42.85-10.96.93-16.66 1.5-2.87.26-5.75.42-8.56.38-1.4-.01-2.82-.04-4.23-.09-1.41-.05-2.8-.18-4.2-.28-2.75-.14-5.4-.25-8.1-.32l-1-.03-.88-.1a14 14 0 0 1-1.85-.35c-.62-.14-1.27-.33-1.9-.55-.64-.2-1.27-.44-1.9-.72-1.35-.58-2.66-1.27-4.02-1.92-.63-.32-4.53-.7-5.41-.52-.38.09 1.54 1.64 2 2.07 1.64 1.4 4.13 3.4 5.52 4.22 1.4.82 2.45 1.4 3.54 1.92 1.11.5 2.24.96 4 1.39 6.75 1.38 13.38 1.91 20.06 3.26 5.37 1.04 11.01.4 16.65.6l4.62.13c1.54-.01 3.13-.01 4.66-.05 2.95-.09 5.9-.26 8.82-.67 6.22-.9 12.55-.83 18.75-1.88l9.1-1.57 4.5-.74c1.5-.24 2.97-.37 4.47-.54 1.74-.17 3.47-.35 5.22-.47l5.26-.15c2.28-.08 4.12-.06 7.31-.42.78-.07 1.29-.19 1.92-.29l1.81-.31c1.24-.2 2.34-.47 3.5-.7 4.62-.97 9.08-2.09 13.57-3.13 2.03-.47 4.07-.86 6.1-1.23 2.04-.36 4.07-.7 6.28-1.17 1.05-.2 2.21-.52 3.35-.84.58-.17 1.14-.3 1.73-.52l1.76-.68c.59-.24 1.18-.45 1.76-.75l1.7-.92c.56-.32 1.14-.63 1.66-.99s1.02-.74 1.53-1.12c4.28-3.26 8.79-7.88 9.22-12.67.13-1.16-.62-2.26-1.45-3.05 1.34 1.32-4.87 2.06-5.2 2.15-2.32.61-4.27 1.9-6.4 2.57l-1.5.5c-.51.13-1.02.22-1.5.32-.99.2-1.93.39-2.87.45-.93.1-1.8.23-2.73.3-.45.04-.9.1-1.34.2-.46.07-.96.14-1.44.25-4.01.85-8.88 1.8-13.44 2.88-4.6 1.06-9.2 2.2-13.75 3.11-1.96.43-3.8.73-5.63 1.07l-2.22.28-3.16.2-6.32.4c-2.11.12-4.22.4-6.34.56l-3.82.3-3.8.38c-2.54.24-5.16.48-7.63.8z"/></g><g><path d="M239.28 39.2l-.3.04c.14-.01.23 0 .3-.05zM282.23 36.53l-.09.15c.09-.05.1-.1.1-.15zM291.63 22.52l.26-.01c-.12-.01-.2 0-.26.01z"/><path d="M273.4 21.83c-2.11 0-4.22-.05-6.32.09-2.1.15-4.18.33-6.26.54l-3.12.34c-1.04.14-2.07.32-3.1.49-2.06.34-4.11.72-6.15 1.12-2.1.4-4.17 1-6.24 1.5-2.07.53-4.14 1-6.2 1.58-2.05.58-4.1 1.14-6.17 1.66l-6.23 1.5-6.63 1.48-6.56 1.7-3.27.86-3.23 1c-2.15.7-4.3 1.4-6.43 2.15-2.13.8-4.24 1.59-6.36 2.33l-3.18 1.1-3.08 1c-4.08 1.33-8.33 2.38-12.7 3.5-4.2 1.06-8.39 2.59-12.52 4.22l-3.08 1.32-1.55.65c-.51.23-1.02.49-1.53.73-1.02.48-2.04.95-3.07 1.4-.52.25-1.05.54-1.58.8s-1.06.53-1.58.83a30.39 30.39 0 0 0-6.4 4.5c-.24.23-.69.71-1.15 1.4-.43.72-1 1.53-1.41 2.44-.9 1.78-1.4 3.68-1.5 4.3-.04.3.57-.3 1.26-1.04.65-.76 1.56-1.54 1.91-1.89.57-.6 1.35-1.14 2.08-1.75.75-.58 1.6-1.12 2.38-1.63a46.85 46.85 0 0 1 4.3-2.22l1.52-.7 1.4-.52c.86-.35 1.76-.56 2.59-.86.84-.28 1.67-.57 2.58-.9.93-.29 1.94-.6 3.1-.99 9.65-3.09 19.49-4.72 29.9-6.8 2.04-.38 4.03-.85 6.04-1.4 2-.54 3.99-1.18 6-1.71 4.03-1.12 8.04-2.36 12.1-3.05 8.75-1.7 17.61-2.4 26.38-3.81 2.34-.33 4.68-.61 7.03-.86 2.35-.26 4.71-.32 7.06-.48l3.53-.2c1.18-.08 2.36-.08 3.54-.13 2.35-.08 4.7-.19 7.06-.35l13.94-.34 7.25-.06c2.37-.01 5.02-.02 6.83.04 2.27.14 4.38.52 6.23 1.2.44.2.88.4 1.33.58.12.04.22.1.32.17l.26.15.05.05.19.17.2.22c.31.04-.12.74-.26 1.19l-.28.73-.07.18-.05.13-.23.72-.34 1.13c-.2.7-.5 1.57-.77 2.41-.27.8-.56 1.84-.84 2.78l-.2.73-.2.81-.34 1.64-.08.4-.04.21-.03.07-.05.21c0 .1-.1.4-.2.65a46.05 46.05 0 0 1-1.77 4.15l-.59 1.27-.6 1.42c-.22.5-.43 1.11-.64 1.66l-.37.93c-.86 2.25-2.19 4.11-4.44 6.43l-1.5 1.5-1.64 1.6-1.72 1.72c-.56.59-1.1 1.2-1.65 1.8l-1.66 1.79c-.53.61-1.04 1.25-1.56 1.87l-1.54 1.9-1.43 1.9a209.1 209.1 0 0 0-5.22 7.57l-1.21 1.88-.6.95-.6 1.04c-.78 1.4-1.55 2.81-2.3 4.24l-.22.4c.05-.1.1-.2.17-.3.09-.14.06-.08.06-.1l.02.02c-.01.02.05-.02-.05.12-.23.28-.7.74-1.23 1.23-.55.49-1.18 1.02-1.86 1.58-1.34 1.12-2.84 2.34-4.3 3.65s-2.9 2.72-4.17 4.28a18.64 18.64 0 0 0-3.15 5.3c-.17.48-.29 1.04-.3 1.46 0 .5.05.93.21 1.23.35.6.86.97 1.38 1.2-.21-.1-.29-.28-.25-.55.02-.24.27-.68.56-1a6.96 6.96 0 0 1 2.58-1.63c2-.8 4.19-1.13 4.46-1.23 3.25-1.07 6.46-2.66 9.76-4.19 1.24-.57 2.47-1.14 3.75-1.88.65-.37 1.28-.76 2.03-1.37.77-.61 1.41-1.36 2-2.17 1.34-1.42 2.6-2.81 3.86-4.3a55.92 55.92 0 0 0 3.91-4.9c1.05-1.44 2.06-2.96 3.09-4.3.51-.67 1-1.4 1.53-2.03l1.56-1.94c.5-.66 1.08-1.25 1.62-1.87.56-.61 1.09-1.24 1.66-1.85 1.14-1.19 2.34-2.37 3.73-3.78a52.23 52.23 0 0 0 4.31-4.87c.7-1 1.42-1.98 2.03-3.07.6-1.11 1.25-2.2 1.67-3.38l.68-1.75.36-.95c.1-.28.29-.67.43-1l.53-1.15c.75-1.65 1.66-3.45 2.52-5.92.18-.53.36-1.03.52-1.75l.36-1.64c.14-.56.22-1.07.37-1.67l.57-1.94.71-2.24c.66-2.34 2.63-8.61 4.15-13.59l.15-.48c-.05-.15-.25-.26-.37-.39l-.82-.75-1.65-1.51c-1.08-1.03-2.26-1.91-3.39-2.87-1.04-1-2.5-1.78-3.85-2.61l-.5-.3-.34-.19c-.24-.12-.47-.26-.71-.36l-1.47-.61a36.18 36.18 0 0 0-11.74-2.5l-11.78-.38c-3.74-.16-7.89-.21-11.9-.24z"/></g><g><path d="M170.31 106.8l.07.06c-.02-.03-.02-.07-.07-.07zM162.63 95.79l.14-.07a.3.3 0 0 0-.15.07zM149.24 101.13l-.06-.06c.01.03.04.05.06.06z"/><path d="M151.98 106.38a21.41 21.41 0 0 0 5.58 5.94c2.3 1.73 5.11 3.04 7.04 5.08l3.25 3.2c.97.92 1.95 1.7 3.07 2.57 2.25 1.65 3.98 3.86 5.8 6.09 1.83 2.17 4.56 3.42 6.4 5.71.49.62.87 1.34 1.41 1.95.27.32 2.36.87 2.88.76.23-.04-.09-1.5-.17-1.88-.14-.63-.34-1.38-.53-2.06-.2-.68-.35-1.34-.52-1.71-.34-.77-.58-1.32-.85-1.83-.27-.52-.57-1.02-1.03-1.65-1.91-2.59-3.74-5.14-4.92-8.46a10.57 10.57 0 0 0-2.27-3.47c-.9-1.03-2.08-2.1-2.78-3.21-.72-1.15-1.35-2.34-2.01-3.48a16.96 16.96 0 0 0-2.2-3.4c-1.82-2.25-2.9-5.06-4.68-7.44l-2.7-3.48c-.91-1.17-1.8-2.35-2.62-3.62a72.6 72.6 0 0 1-2.7-4.51 73.01 73.01 0 0 0-3.57-5.7c-.64-.95-1.23-1.85-2.02-2.9l-1.1-1.55-1.1-1.45c-2.63-3.52-4.17-7.4-6.77-9.94-1.47-1.38-2.78-3.2-6.17-3.06a8.1 8.1 0 0 0-3.04 1.1c.82-.45.66.27.31 1.17-.35.9-.88 1.99-.91 2.12-.38 1.5-.05 2.73 0 4.13.07 1.32.05 2.67.16 3.99.1 1.27.35 2.48.92 3.52 1.18 2.1 2.55 3.96 3.8 5.66l.94 1.26.87 1.23c.3.43.57.77.9 1.28l.96 1.45c2.15 3.3 4.49 6.6 6.62 10.06 1.24 2.06 2.43 4.36 3.75 6.53z"/></g></svg>