<svg id="Layer_1" data-name="Layer 1" xmlns="http://www.w3.org/2000/svg" viewBox="0 0 456.53 238.34"><defs><style>.cls-1,.cls-2{fill:none;stroke:#000;stroke-linecap:round;stroke-linejoin:round;}.cls-2{stroke-width:2px;}.cls-3{fill:#231f20;}</style></defs><title>magic</title><path class="cls-1" d="M318.65,229" transform="translate(-26.24 -129.72)"/><path class="cls-2" d="M286,324.22" transform="translate(-26.24 -129.72)"/><path class="cls-3" d="M128.8,293.44l-.35-.07A1,1,0,0,0,128.8,293.44Z" transform="translate(-26.24 -129.72)"/><path class="cls-3" d="M180.89,297.2l-.09.16C180.89,297.3,180.91,297.25,180.89,297.2Z" transform="translate(-26.24 -129.72)"/><path class="cls-3" d="M190.38,282.26l.29,0A1,1,0,0,0,190.38,282.26Z" transform="translate(-26.24 -129.72)"/><path class="cls-3" d="M170.34,282.82c-9,0-18-.12-26.83-.51-4.58-.18-9.19-.49-13.81-1a93.64,93.64,0,0,1-13.81-2.59c-9.68-2.64-19-6.09-28.44-9.58a125.83,125.83,0,0,1-13.74-6c-4.44-2.26-8.78-4.71-13-7.41-4.1-2.59-8.27-5-12.27-7.75a62.36,62.36,0,0,1-11.08-9.16c-.86-.94-1.66-1.92-2.48-2.88s-1.53-2-2.26-3c-.32-.51-1.7-1.77-2.92-3.14l-.95-1-.82-.93a14.55,14.55,0,0,0-1.18-1.23c-.22-.19-.07.6.19,1.58.13.49.28,1,.44,1.5l.43,1.12A44.8,44.8,0,0,0,33.6,241a67.77,67.77,0,0,0,4.61,5.32c.72.77,1.48,1.51,2.34,2.28s1.78,1.64,2.92,2.55c9.29,7.68,19.25,13.85,29.31,20.34a92,92,0,0,0,13.12,6.71c4.57,1.93,9.23,3.69,13.75,5.55,4.91,2,9.86,4,14.91,5.69a123.38,123.38,0,0,0,15.51,4.24c5.63,1.12,11.28,2.2,17,3,2.87.4,5.71.64,8.58.94s5.74.32,8.61.4A246.59,246.59,0,0,0,198,295.56c1.63-.23,3.26-.41,4.88-.66l4.86-.76c1.6-.21,3.3-.6,5-.95l2.51-.53c.84-.17,1.68-.35,2.46-.56,8.05-2,15.85-4.29,23.57-6.68s15.42-4.83,23.11-7.07c3.49-1.05,6.93-1.9,10.39-2.74,1.75-.45,3.39-.75,5.06-1.09s3.3-.69,5-.9c6.79-1,13.57-1.71,20.49-2.32,1.83-.2,3.83-.25,5.9-.43s4.2-.2,6.31-.41,4.19-.32,6.16-.67a30,30,0,0,0,5.47-1.3,3.46,3.46,0,0,0,2.36-3c-.11.93-2.15.24-4.27-.72s-4.35-2.1-4.66-2.21c-3.7-1.35-7.89-1.89-11.93-2.59-7.81-1.33-15.14-2.65-23.6-1.68-2.21.24-4.4.61-6.6.94s-4.4.92-6.6,1.4-4.21,1.08-6.31,1.63-4.17,1.13-6.21,1.74c-8.21,2.38-16.31,5-24.44,7.4q-5.19,1.59-10.34,3.11l-5.15,1.53-5.11,1.42c-1.71.48-3.43,1-5,1.3s-3.22.78-4.92,1.09c-3.47.58-6.94,1.15-10.43,1.55A212.65,212.65,0,0,1,170.34,282.82Z" transform="translate(-26.24 -129.72)"/><path class="cls-3" d="M288.14,338.64l-.32,0A.76.76,0,0,0,288.14,338.64Z" transform="translate(-26.24 -129.72)"/><path class="cls-3" d="M335.86,335.62l0,.18C335.89,335.72,335.89,335.66,335.86,335.62Z" transform="translate(-26.24 -129.72)"/><path class="cls-3" d="M337.69,318.86l.17-.13A.6.6,0,0,0,337.69,318.86Z" transform="translate(-26.24 -129.72)"/><path class="cls-3" d="M323,324.22c-1.76.43-3.57.69-5.37,1s-3.64.54-5.49.66-3.7.28-5.56.42-3.88.1-5.83.2a148.74,148.74,0,0,1-25-1.17l-6.78-1c-2.26-.34-4.54-.63-6.84-.89-4.57-.53-9-.93-13.55-1.23-9.17-.51-18-1.73-27.35-2.18-2.25-.11-4.49-.15-6.73-.14-1.15,0-2.31.12-3.46.2s-2.31.21-3.48.41a57,57,0,0,0-7,1.45,43.72,43.72,0,0,0-6.91,2.64,24.75,24.75,0,0,0-6.71,4.72,16.88,16.88,0,0,0-2.46,4,26.17,26.17,0,0,0-1,2.6,14.28,14.28,0,0,0-.41,1.71c0,.29.56-.31,1.23-1s1.53-1.58,1.86-2a28.13,28.13,0,0,1,4.41-3.6,27.68,27.68,0,0,1,4.34-2.26,25.5,25.5,0,0,1,5.61-1.69l1.29-.26,1.37-.2c.94-.18,2-.24,3.19-.39a62.06,62.06,0,0,1,7.54-.12c2.55.17,5.11.41,7.65.64l3.8.38,3.8.63c2.53.44,5,.92,7.57,1.48a109.5,109.5,0,0,0,12.59,2.11l6.44.81,3.2.45q1.56.25,3.09.55c8.87,1.71,17.7,4.36,27.15,5.59l3.77.51,3.81.48c2.52.36,5.12.58,7.7.83a67.5,67.5,0,0,0,16.11-.47,65.9,65.9,0,0,0,15.58-4.47,52.29,52.29,0,0,0,14.27-8.93c.63-.59,1.29-1.11,1.87-1.77l1.77-1.94c.58-.66,1.09-1.42,1.64-2.13.26-.37.54-.71.79-1.1l.7-1.19a30.29,30.29,0,0,0,2.41-5.08c.27-.91.57-1.81.79-2.75s.41-1.9.49-2.9a22.7,22.7,0,0,0-.46-7.67,23.8,23.8,0,0,0-3-7,30.24,30.24,0,0,0-10.14-9.4c-7.58-4.35-15.31-6.14-23.19-7.16a89.23,89.23,0,0,0-21.23-.12A56.25,56.25,0,0,0,282.28,283a45,45,0,0,0-10.61,7.91,27,27,0,0,0-6,9.52,3.51,3.51,0,0,0,.89,3.56c-.64-.69,1-1.62,3-2.43s4.1-1.53,4.36-1.66c.79-.38,1.57-.77,2.33-1.2l1.14-.65,1.16-.59c.77-.39,1.51-.81,2.28-1.18s1.58-.66,2.36-1a21.21,21.21,0,0,1,2.3-.74c.77-.2,1.5-.46,2.28-.6,1.54-.3,3-.64,4.55-.83,3-.52,6-.79,9.21-1.37a88.78,88.78,0,0,1,10.08-1,80.25,80.25,0,0,1,10,.32,61.56,61.56,0,0,1,9.71,1.84c.79.2,1.54.5,2.32.74l1.16.38,1.08.44a28.92,28.92,0,0,1,4,2,16.41,16.41,0,0,1,4.95,4.27,9.79,9.79,0,0,1,1.3,2.31,9.59,9.59,0,0,1,.31,1.19l.12.6c0,.21,0,.42,0,.63a11,11,0,0,1-1.38,5.53c-.29.46-.5.94-.82,1.39s-.68.9-1,1.36a24.18,24.18,0,0,1-2.56,2.55C336.31,320.15,329.76,322.8,323,324.22Z" transform="translate(-26.24 -129.72)"/><path class="cls-3" d="M458.41,322.61l-.56.66A5.55,5.55,0,0,0,458.41,322.61Z" transform="translate(-26.24 -129.72)"/><path class="cls-3" d="M471.11,204.58l.25.15C471.21,204.54,471.14,204.53,471.11,204.58Z" transform="translate(-26.24 -129.72)"/><path class="cls-3" d="M446.13,191.11l-.44-.47A4.92,4.92,0,0,0,446.13,191.11Z" transform="translate(-26.24 -129.72)"/><path class="cls-3" d="M464.86,231.33c4.47,19.67,3.71,40.55-3,59.39a100.74,100.74,0,0,1-6.37,14.07c-.6,1.14-1.33,2.21-2,3.33l-1,1.66c-.34.55-.73,1.07-1.1,1.6l-2.23,3.2-2.44,3.06c-6.51,8.2-14.9,14.9-24.11,20.71-19.55,12.18-42,18.92-65,20.65a136.7,136.7,0,0,1-34.46-1.9c-2.85-.38-5.64-1.15-8.45-1.77-1.4-.34-2.82-.61-4.2-1l-4.15-1.23-4.16-1.24c-1.39-.42-2.73-1-4.1-1.45-2.75-1-5.43-1.93-8.27-3.06a313.13,313.13,0,0,0-33.09-10.86c-5.6-1.54-11.22-3-16.94-4.21a156.16,156.16,0,0,0-17.48-2.84,78,78,0,0,0-19.24.22c-.79.15-2.37.43-4.31,1l-3.12,1c-1.1.34-2.21.85-3.32,1.28-.56.23-1.12.44-1.66.68l-1.57.78c-1,.52-2,1-2.88,1.47-1.7,1-3,1.85-3.68,2.29s1.31-.25,3.61-1.1l.88-.33.92-.28,1.8-.54,1.58-.48c.47-.13.89-.21,1.2-.29A66,66,0,0,1,206.7,333a85.63,85.63,0,0,1,12.8.49,117.14,117.14,0,0,1,15.64,2.8c4.62,1.12,9.27,2.34,15.61,4.25A376,376,0,0,1,289,354.24a196.89,196.89,0,0,0,39.69,11.85,133.3,133.3,0,0,0,34.49,1.48,163.92,163.92,0,0,0,34.23-6.74,147.8,147.8,0,0,0,34.21-15.41c2.62-1.73,5.26-3.45,7.87-5.23,2.53-2,5.15-3.8,7.52-6l1.82-1.58.91-.79.86-.85,3.43-3.41c1.12-1.17,2.15-2.41,3.23-3.62.53-.61,1.08-1.21,1.58-1.84l1.48-1.93a106.61,106.61,0,0,0,18.47-36.71,108.68,108.68,0,0,0,3.33-40.88,113.42,113.42,0,0,0-3.92-19.89A118.55,118.55,0,0,0,471,203.8a109.91,109.91,0,0,0-10.54-17.41l-3.15-4-3.38-3.87c-1.18-1.25-2.39-2.46-3.59-3.69s-2.47-2.3-3.71-3.46a157.29,157.29,0,0,0-39.12-25.17,184.05,184.05,0,0,0-114.33-12.43A182.13,182.13,0,0,0,267.81,141c-2.08.69-4.1,1.53-6.13,2.35s-4.07,1.6-6,2.56-4,1.81-6,2.76l-5.82,3-1.45.76-1.42.82-2.83,1.65-5.52,3.26L222,164.56l-10.82,6.26c-3.59,2.13-7.28,4.22-10.87,6.26a137.49,137.49,0,0,1-25.56,11.57A103.46,103.46,0,0,1,161.5,192c-2.14.47-4.24.71-6.25,1.09s-3.94.57-5.76.86c-3.53.45-4.79,1.65-4.92,2.79.13-1,4.87.09,10,.86,2.54.31,5.16.74,7.25.86l2.65.23c.69,0,1.17,0,1.35,0,8.89,0,18.64-2.44,27.48-5.67,4.31-1.53,8.44-3.18,12.45-4.92s7.94-3.47,11.84-5.35,7.85-3.75,11.84-5.79,8-4.38,12.1-6.8l6.23-3.62c2-1.24,4.15-2.27,6.25-3.38,1.05-.54,2.09-1.11,3.15-1.63l3.21-1.49,3.21-1.5c1.08-.47,2.18-.9,3.27-1.36A166.59,166.59,0,0,1,350,145.39a173.29,173.29,0,0,1,46.78,11.88,155.65,155.65,0,0,1,21.52,10.81,120.89,120.89,0,0,1,19.13,14.19C451.22,194.63,460.58,212.48,464.86,231.33Z" transform="translate(-26.24 -129.72)"/><path class="cls-3" d="M232.48,202.08l-.23.12C232.35,202.16,232.43,202.15,232.48,202.08Z" transform="translate(-26.24 -129.72)"/><path class="cls-3" d="M265.67,186.78V187A.16.16,0,0,0,265.67,186.78Z" transform="translate(-26.24 -129.72)"/><path class="cls-3" d="M267.79,170.8l.21-.1A.65.65,0,0,0,267.79,170.8Z" transform="translate(-26.24 -129.72)"/><path class="cls-3" d="M253.12,176.09c-1.6.68-3.21,1.37-4.77,2.13s-3.09,1.59-4.61,2.43q-4.56,2.5-8.93,5.3c-3,1.93-5.84,3.91-8.74,5.83a96.47,96.47,0,0,1-9,5.38l-2.48,1.27-2.43,1.08c-.81.35-1.61.73-2.43,1.06l-2.47.94c-3.29,1.28-6.65,2.3-10,3.32a51.9,51.9,0,0,1-20.94,1.49c-3.39-.35-6.76-.79-10.13-1.42-.84-.15-1.66-.41-2.49-.61s-1.67-.41-2.47-.72-1.6-.62-2.39-.95l-1.18-.51-1.12-.63c-.79-.46-1.57-.94-2.34-1.43s-1.47-1.08-2.21-1.59c-.35-.28-1.65-.72-2.87-1.31a21.13,21.13,0,0,0-3-1.16c-.45-.09,1.22,2.21,1.72,2.86a30.41,30.41,0,0,0,3.05,3.41A22,22,0,0,0,154,205a34.63,34.63,0,0,0,4.41,2.77,31.17,31.17,0,0,0,4.85,2.13,70.67,70.67,0,0,0,12.94,3.19c2.19.43,4.41.56,6.64.87l3.36.26,1.7.15c.57,0,1.13,0,1.7.07a30.87,30.87,0,0,0,5.57-.19c.93-.11,1.86-.24,2.79-.37s1.84-.38,2.76-.58l2.75-.64,2.71-.79c.9-.27,1.81-.49,2.7-.77s1.77-.56,2.67-.82c2-.52,3.84-1.2,5.75-1.84l1.44-.49c.47-.17.9-.35,1.35-.52l2.68-1.06c3.56-1.42,7.1-2.92,10.55-4.64,3.7-1.86,7.35-3.4,11-5s7.34-3.16,10.91-4.94c7.13-3.33,14.21-6.64,21.52-9.25a133,133,0,0,1,12.93-3.88c2.75-.6,5.48-1.36,8.23-1.84l4.12-.84,4.13-.63c2.75-.51,5.49-.65,8.24-.88l2.06-.17c.68-.07,1.38,0,2.07,0l4.15,0,1.87,0c.63,0,1.25.12,1.88.19l3.73.44c2.47.24,4.94.86,7.4,1.3s4.92,1.07,7.4,1.56,5,1,7.55,1.47c5.42.87,12.74,2.69,18.09,1a3.64,3.64,0,0,0,2.29-2.67c-.49,1.81-5.49-3.56-5.9-3.86-2.37-1.78-5.22-2.94-7.87-4.39s-5-2.73-7.58-4a40.88,40.88,0,0,0-8.24-3.07,105.11,105.11,0,0,0-39.26-1.42c-11.15,1.57-21.84,4.73-32.2,8.28-1.57.5-3.12,1.06-4.67,1.62l-4.72,1.67C259.37,173.63,256.18,174.77,253.12,176.09Z" transform="translate(-26.24 -129.72)"/><path class="cls-3" d="M234.93,202.57l.3-.27C235.09,202.41,235,202.47,234.93,202.57Z" transform="translate(-26.24 -129.72)"/><path class="cls-3" d="M189.9,236.82l0-.19C189.85,236.72,189.86,236.78,189.9,236.82Z" transform="translate(-26.24 -129.72)"/><path class="cls-3" d="M185.6,255l-.32.18A1.57,1.57,0,0,0,185.6,255Z" transform="translate(-26.24 -129.72)"/><path class="cls-3" d="M207.49,243.17a160.88,160.88,0,0,0,25.38-20.9c7.86-7.87,14.8-16.1,23.31-22.69a103.65,103.65,0,0,1,14-9.17,94.72,94.72,0,0,1,15.2-6.7,84.49,84.49,0,0,1,16.4-3.89c2.84-.37,5.69-.75,8.54-1.07s5.71-.51,8.58-.71,5.52-.29,8.28-.48l8.24-.17c5.59.24,11.2.55,16.77,1.26,3,.39,6,.93,9,1.38a75.65,75.65,0,0,0,10.52-.18c.68-.12-3.63-1.48-4.82-1.84-3.92-1.19-9.92-2.84-13-3.48-6.32-1.21-9.29-1.76-15.85-2.54-.85-.09-1.69-.22-2.54-.27l-2.57-.13-5.13-.25c-1.71-.08-3.4,0-5.1,0s-3.4,0-5.09.06c-3.37.2-6.77.27-10.13.48s-6.71.32-10.2.58a71.75,71.75,0,0,0-16.88,3.38,109.82,109.82,0,0,0-16.17,6.81c-1.44.64-2.79,1.41-4.15,2.17s-2.75,1.49-4.08,2.29c-2.61,1.66-5.31,3.25-7.78,5.06a154.4,154.4,0,0,0-14.35,11.3c-4.79,4.26-9.6,8.23-14.5,12.09s-9.85,7.55-14.83,11.14c-2.42,1.84-4.93,3.51-7.4,5.24-1.23.89-2.52,1.63-3.78,2.46s-2.52,1.65-3.82,2.39c-2.6,1.47-5.16,3.06-7.85,4.34l-4,2c-1.34.57-2.65,1.18-4,1.72a123.8,123.8,0,0,1-20,5.85,133.6,133.6,0,0,1-26,3,127,127,0,0,1-26.14-2.41,137.64,137.64,0,0,1-22.67-6.95c-7.31-2.94-14.5-6.39-22.06-9.66-8-3.46-18.86-8.85-27-9.26a3.31,3.31,0,0,0-3.49,1.87c.8-1.69,8,6,8.55,6.48,3.37,2.86,7.41,5.37,11.15,8,7.26,5.14,13.65,10.3,22.46,14.25,2.33,1,4.64,2,7,2.9l7.21,2.53,7.3,2.09c2.45.63,4.94,1.16,7.41,1.73a144.48,144.48,0,0,0,30.56,3h3.3l3.31-.22,3.3-.23,1.65-.12,1.65-.22,6.58-.93c2.13-.4,4.25-.77,6.36-1.25A161.76,161.76,0,0,0,179.16,258c2.47-1,5-2.05,7.34-3.21l3.61-1.7c1.21-.55,2.36-1.22,3.55-1.83l3.55-1.88c1.18-.63,2.31-1.34,3.47-2l3.46-2C205.26,244.64,206.37,243.9,207.49,243.17Z" transform="translate(-26.24 -129.72)"/></svg>
