<?xml version="1.0" encoding="utf-8"?>
<!-- Generator: Adobe Illustrator 19.2.1, SVG Export Plug-In . SVG Version: 6.00 Build 0)  -->
<svg version="1.1" id="Layer_1" xmlns="http://www.w3.org/2000/svg" xmlns:xlink="http://www.w3.org/1999/xlink" x="0px" y="0px"
	 viewBox="0 0 500 500" style="enable-background:new 0 0 500 500;" xml:space="preserve">
<style type="text/css">
	.st0{fill:none;stroke:#000000;stroke-width:5;stroke-linecap:round;stroke-linejoin:round;stroke-miterlimit:10;}
</style>
<g>
	<g>
		<g>
			<path class="st0" d="M179.4,179.9"/>
		</g>
	</g>
	<g>
		<g>
			<path class="st0" d="M188.3,306.1"/>
		</g>
	</g>
	<g>
		<g>
			<g>
				<path class="st1" d="M134,310l-0.4,0C133.8,310,133.9,310,134,310z"/>
				<path class="st1" d="M193.2,304.1l-0.1,0.3C193.2,304.3,193.2,304.2,193.2,304.1z"/>
				<path class="st1" d="M200.3,280.8l0.3-0.1C200.5,280.8,200.4,280.8,200.3,280.8z"/>
				<g>
					<path class="st1" d="M177.9,284.5c-10.1,1.5-20,3.2-30,5c-10.2,1.8-20.6,3.6-30.9,2.4c-0.7-0.1-1.4-0.1-2-0.2l-2-0.3l-4-0.7
						c-1.3-0.3-2.6-0.6-3.9-0.9c-1.3-0.3-2.6-0.6-3.9-1l-3.8-1.2c-1.3-0.4-2.5-0.9-3.8-1.4c-2.6-0.9-5.1-2-7.7-3
						c-5.2-2.1-10.1-4.7-15-7.6c-4.9-2.9-9.6-6-14.5-9.2c-9.4-6.2-20-10.7-30-16.4c-1.4-0.7-2.7-1.5-4.1-2.3c-0.7-0.4-1.4-0.8-2-1.1
						l-2.1-1c-0.4-0.2-1.1-0.4-2-0.6c-1-0.2-2.1-0.5-3.3-0.7c-2.4-0.3-4.7-0.6-5.5-0.5c-0.7,0.1,3.2,2.8,4.2,3.5
						c0.4,0.3,0.9,0.6,1.4,0.9c0.5,0.3,1,0.7,1.4,1.1c1,0.7,2,1.5,3,2.2c2,1.5,3.8,3,5.1,3.8c2.6,1.8,4.5,3.2,6.4,4.5
						c1.9,1.4,3.8,2.6,6.5,4.4c11.1,7.3,21.6,15,32.3,23.5c8.7,6.9,19.8,11.4,30.9,15.5c12,4.2,24.5,6.8,36.9,6.9c3.3,0,6.6,0,9.9,0
						c3.3-0.1,6.6-0.1,9.8-0.2c3.3-0.2,6.5-0.2,9.8-0.6l4.9-0.5c1.6-0.2,3.2-0.4,4.8-0.7c12.7-2.1,25.1-5.1,37.5-8.5l5.4-1.5
						l5.4-1.6c1.9-0.5,3.5-1,5.1-1.4c1.7-0.4,3.3-0.9,5-1.3c8.5-2.1,17-3.8,25.6-5.1c4.3-0.7,8.7-1.1,13-1.6l6.6-0.5
						c2.2-0.2,4.4-0.2,6.6-0.3l3-0.1l3,0.1c2,0.1,4,0.1,5.9,0.2c4,0.3,7.9,0.6,11.8,1c7.9,0.8,15.7,1.9,23.8,2.3
						c8.6,0.5,20.1,1.9,28-1.3c1.9-0.8,2.8-2.6,3.1-4.3c-0.5,2.8-9.1-4.5-9.7-4.9c-2-1.1-4.1-2-6.3-2.8c-2.2-0.8-4.4-1.6-6.6-2.4
						c-2.1-0.8-4.2-1.6-6.2-2.5c-2-0.8-4.1-1.6-6.2-2.3c-4.1-1.5-8.4-2.7-13.1-3.3c-19.7-2.5-39.8-1.9-59.9,1l-3.2,0.5
						c-1.1,0.2-2.1,0.4-3.2,0.6c-2.1,0.4-4.2,0.7-6.4,1.2l-6.3,1.4c-2.1,0.4-4.2,1.1-6.3,1.6l-3.1,0.8c-1,0.3-2.1,0.6-3.1,0.9
						l-6.1,1.8l-5.7,1.7l-5.7,1.5C197.2,281.4,187.5,283,177.9,284.5z"/>
				</g>
			</g>
		</g>
	</g>
	<g>
		<g>
			<g>
				<path class="st1" d="M255.7,359.9l-0.3,0C255.5,359.9,255.6,360,255.7,359.9z"/>
				<path class="st1" d="M301.4,362.6l-0.1,0.3C301.4,362.8,301.4,362.7,301.4,362.6z"/>
				<path class="st1" d="M310,334.1l0.2-0.1C310.1,334.1,310,334.1,310,334.1z"/>
				<g>
					<path class="st1" d="M292.8,333c-7.8-0.4-16-0.3-24.3,0.8c-4.3,0.6-8.6,1.3-13,2c-2.2,0.3-4.3,0.6-6.4,0.8
						c-2.1,0.2-4.2,0.3-6.4,0.2c-9.1-0.3-18.5-1.1-28.1,0.4c-4.8,0.7-9.6,1.3-14.3,2.1c-4.8,0.7-9.6,1.7-14.3,2.9
						c-4.6,1.2-8.8,3.1-12.8,5.2l-3.1,1.5c-0.9,0.4-1.8,0.8-2.7,1.2c-1.9,0.7-3.9,1.2-6,1.6c-2.3,0.4-4.7,0.5-7.3,1
						c-0.6,0.1-2.3,1-4,2.2c-1.7,1.1-3.2,2.6-3.6,3.2c-0.2,0.3,0.8,0.5,1.9,0.6c1.1,0.1,2.4,0.3,3,0.3c3.6,0.3,8.7,1.2,11.3,1.2
						c2.6,0,4.5,0,6.4-0.3c1-0.1,1.9-0.3,3-0.5c0.5-0.1,1.1-0.3,1.7-0.4c0.5-0.2,1.1-0.3,1.7-0.5c9.9-2.9,19.7-5.2,29.5-3.7
						c4,0.6,7.9,0.5,12,0.4c4,0,8.2-0.1,12.3,0.6c4.4,0.7,8.9,1.8,13.5,2.6c4.5,0.9,9.4,1.6,13.8,1.8c9.7,0.5,19.4,2.9,29.7,3.2
						c10.1,0.2,20.4-0.4,31-1.3c6.2-0.6,12.4-1.4,18.8-2.6c2.1-0.5,4.2-0.9,6.2-1.5c2.1-0.6,4.1-1.3,6.2-2l1.6-0.6l1.1-0.4l1.2-0.5
						c1.6-0.7,3.1-1.5,4.6-2.5c2.9-1.9,5.5-4.2,7.5-7c1.8-2.6,3-5.5,3.7-8.5c0.4-1.5,0.6-3.1,0.7-4.7c0.1-0.8,0.1-1.6,0.2-2.4
						l0.1-2.4c0.1-3.2-0.1-6.3-0.9-9.3c-0.8-3-2.2-5.8-4.1-8.3c-3.4-4.8-8.4-8.3-14-10.5c-0.7-0.3-1.4-0.6-2.1-0.8l-1.7-0.6
						c-1.1-0.4-2.1-0.7-3-0.9c-0.9-0.3-1.9-0.5-2.8-0.8l-2.8-0.7c-3.7-0.8-7.5-1.4-11.2-1.7c-3.7-0.3-7.3-0.2-10.8,0.2
						c-3.7,0.4-8,0.9-11.9,2c-3.9,1.2-7.5,3-10.1,6.2c-1.3,1.6-1.5,4.2-1.4,6.5c-0.3-3.7,7.8,3.5,8.4,3.8c3.5,1.9,7.2,2.6,10.7,3.9
						c6.8,2.6,12.5,6.3,18.5,7.7c0.8,0.2,1.5,0.4,2.3,0.5c0.8,0.2,1.5,0.4,2.2,0.6c0.7,0.2,1.4,0.4,2.1,0.6c0.7,0.2,1.5,0.4,1.9,0.6
						l0.8,0.3l0.1,0.1l0,0c0,0,0,0,0,0l0.1,0.2c0.1,0.1,0.1,0.2,0.2,0.3c0.1,0.2,0.1,0.3,0.1,0.5c0,0,0,0,0,0.1c0,0,0,0,0,0l0-0.1
						c0,0,0,0,0,0c0,0,0,0.1,0,0.1c0,0.1,0,0.2-0.1,0.3c0,0,0,0,0,0c-0.1,0.1-0.1,0.1-0.2,0.2l-0.1,0.1c0,0,0,0-0.1,0l-0.7,0.3
						c-2.5,0.8-5,1.8-7.7,2.5c-5.3,1.4-10.8,2.4-16.6,2.8C307.7,334,300.4,333.4,292.8,333z"/>
				</g>
			</g>
		</g>
	</g>
	<g>
		<g>
			<g>
				<path class="st1" d="M154.5,264.9l-0.4,0.1C154.3,264.9,154.4,265,154.5,264.9z"/>
				<path class="st1" d="M216.5,247.4l0,0.3C216.6,247.6,216.6,247.5,216.5,247.4z"/>
				<path class="st1" d="M209.6,217.6l0.2-0.2C209.7,217.4,209.6,217.5,209.6,217.6z"/>
				<g>
					<path class="st1" d="M193.1,226.1c-8.6,3.2-18.6,6.3-28.3,9.9c-10.1,3.6-20.4,7.5-31.5,8.6c-11.7,1.1-23.3,1.2-35.1,2
						c-11.9,0.9-23.5,0-35.4-1.1c-5.8-0.5-11.5-0.5-17.3-0.6l-4.5-0.1c-1.6,0-3,0-4.2-0.1c-0.6,0-1.2-0.1-1.7-0.2
						c-0.2,0-0.5-0.1-0.7-0.1l-0.8-0.2c-1.4-0.4-2.8-0.8-4.2-1.3c-1.5-0.5-3-1.1-4.3-1.7c-1.1-0.5-2.3-1.1-3.7-1.8
						c-0.7-0.3-3-0.9-5.9-1.1c-1.4-0.1-2.9-0.2-4.3-0.1c-1.3,0.1-2.4,0.4-2.9,0.6c-0.5,0.2,0.9,0.7,2.3,1.4c1.4,0.7,2.9,1.7,3.4,2.1
						c2,1.4,4,3.2,6.1,4.8c1,0.8,2.1,1.6,3.1,2.2c1,0.6,1.9,1.1,2.6,1.5c1.5,0.7,2.8,1.4,4,2c0.6,0.3,1.2,0.6,1.8,0.8
						c0.7,0.3,1.4,0.6,2.1,0.8c1.3,0.4,2.7,0.7,4,0.9c1.3,0.2,2.7,0.4,4.4,0.7c13.8,2.2,27.4,3.8,41.2,7c11.2,2.6,23.1,1.4,34.7,2.1
						c12.5,0.7,25.3,1.7,38-0.2c6.8-1,13.6-1.8,20.4-2.9c6.8-1.1,13.6-2.4,20.5-4.8c6.7-2.3,13.6-5.3,20.3-9.5
						c1.7-1.1,3.3-2.2,5-3.4c1.6-1.2,3.2-2.6,4.7-3.9c2.9-2.7,5.4-5.3,7.7-7.7c2.6-2.8,5-5.2,7.2-7.1c0.3-0.2,0.6-0.5,0.8-0.7
						l0.9-0.7l2.1-1.6c1.4-1.1,2.9-2.1,4.3-3.2c7.4-5.3,14.9-10.6,22.4-15.4c3.8-2.4,7.5-4.7,11.3-6.6c3.7-1.9,7.5-3.7,10.7-4.6
						l1-0.3c0.4-0.1,0.6-0.2,1.2-0.3l3.3-0.7c2.1-0.4,4.3-0.9,6.3-1.2c4.1-0.8,8.1-1.4,12.1-1.9c7.9-1.1,15.4-1.8,22.7-2.6
						c1-0.1,2-0.2,3-0.3c1-0.1,2.1-0.1,3.2-0.2c0.5,0,1.1-0.1,1.6-0.1c0.5,0,1.1,0,1.6-0.1c1.1,0,2.2-0.2,3.3-0.3
						c2.1-0.1,4.3-0.5,6.4-0.8c1-0.2,2.1-0.5,3.1-0.8c1-0.3,2-0.6,3-1.1c2-0.9,3.4-3.2,4.2-5.3c-0.7,1.8-2.5,0.1-4.5-2.1
						c-2-2.1-4.3-4.7-4.6-5c-1-0.8-2.1-1.4-3.2-2c-1.1-0.6-2.3-1.2-3.5-1.6c-2.4-0.9-4.9-1.8-7.3-2.5c-1.2-0.4-2.4-0.8-3.6-1.2
						c-1.2-0.4-2.4-0.7-3.5-1.1c-2.4-0.8-4.7-1.3-7.2-1.8c-2.4-0.5-4.8-0.8-7.3-1c-2.5-0.1-5-0.2-7.6,0.1
						c-5.4,0.5-10.6,1.4-15.7,2.5l-3.7,0.8l-3.6,0.8l-3.5,0.8l-1.7,0.4l-0.4,0.1l-0.6,0.1l-1.2,0.3l-2.5,0.7
						c-0.8,0.2-1.5,0.5-2.3,0.8c-1.5,0.5-3,1.1-4.3,1.6c-2.8,1.1-5.3,2.4-7.9,3.7c-5,2.6-9.6,5.3-14.1,8.2c-7.7,4.8-14.9,10-22,15.4
						c-1.8,1.4-3.5,2.7-5.3,4.1l-2.6,2.1c-0.9,0.7-1.7,1.4-2.8,2.3c-4.1,3.5-7.4,7.1-10.3,10c-1.7,1.8-3.3,3.3-4.9,4.6
						c-1.6,1.3-3,2.3-4.5,3.3C201.1,222.9,197.3,224.6,193.1,226.1z"/>
				</g>
			</g>
		</g>
	</g>
	<g>
		<g>
			<g>
				<path class="st1" d="M280.4,155.9l0.2,0C280.5,155.9,280.4,155.9,280.4,155.9z"/>
				<path class="st1" d="M247.6,162.3l0-0.2C247.5,162.2,247.5,162.2,247.6,162.3z"/>
				<path class="st1" d="M244.5,177.6l-0.2,0.1C244.4,177.7,244.5,177.7,244.5,177.6z"/>
				<g>
					<path class="st1" d="M257.9,174.6c1.6-0.5,2.6-0.8,3.9-1.2c1.2-0.4,2.5-0.7,3.9-1c2.6-0.7,5.4-1.4,8.1-2.2
						c5.7-1.6,11.5-3.3,17.6-3.8c6.4-0.5,12.8-0.6,19.2-1.1c6.5-0.5,12.8-0.2,19.2,0.3c3.1,0.3,6.2,0.3,9.3,0.4
						c3.1,0.1,6.2,0.4,9.1,1.2c1.5,0.5,3,1.1,4.3,1.7c0.3,0.2,1.4,0.3,2.1,0.5c0.2,0,0.3,0.1,0.5,0.1c0.1,0,0.1,0,0.1,0
						c0,0,0.1,0,0.1,0l0,0l0.1-0.1l0.1-0.1c0.1-0.1,0.2-0.1,0.3-0.2l0.2-0.1l0.1-0.1c0.1-0.1,0.2-0.1,0.3-0.1c0.1,0,0.1,0,0.2-0.1
						c0,0,0,0-0.1,0c0,0,0,0-0.2,0.1c-0.1,0-0.2,0.1-0.2,0.1c0,0,0.1,0,0.1-0.1c0.2-0.3-0.1-1-0.3-1.2c-0.6-0.8-1.7-1.8-2.9-2.6
						c-1.2-0.8-2.4-1.4-3.2-1.8c-3.4-1.4-5.1-1.9-8.7-2.6c-7.6-1.4-15-2-22.5-3.5c-6.1-1.2-12.5-0.5-18.7-0.8
						c-6.7-0.3-13.5-0.9-20.3-0.2c-3.6,0.4-7.3,0.6-10.9,1c-3.7,0.4-7.4,0.9-11.3,1.9l-1.4,0.4l-1.4,0.5l-2.4,0.8
						c-1.6,0.5-3.2,1.1-4.8,1.6c-3.2,1-6.5,1.9-9.8,2.7c-3.9,0.9-7.8,1.6-11.7,2.2c-5,0.7-10,1.5-15,2.2c-2.5,0.4-4.9,0.6-7.4,0.9
						c-2.5,0.2-5,0.4-7.5,0.5c-9.1,0.5-18.3-0.9-28,0.5c-0.6,0.1-1.2,0.2-1.9,0.3c-0.3,0.1-0.7,0.1-1,0.2l-0.5,0.1
						c-0.1,0-0.4,0.1-0.3,0.1c-0.1,0,0.1,0.1-0.5,0.1c-0.5,0-1,0-1.5,0.1c-1,0-2.1,0.1-3.2,0.3c-2.1,0.3-4.1,0.8-5.9,1.8
						c-1.1,0.6-1.9,2-1.7,3.1c0.4-2,5.4,2.4,5.8,2.6c1.1,0.7,2.4,1.2,3.6,1.6c0.6,0.2,1.3,0.4,1.9,0.7c0.3,0.1,0.6,0.2,1,0.3
						c0.4,0.1,0.9,0.2,1.3,0.2l0,0c0.3,0,0.4,0.1,0.5,0.1l0.5,0.1l0.9,0.2c0.6,0.1,1.2,0.3,1.8,0.4c1.2,0.3,2.3,0.6,3.5,0.9
						c2.3,0.5,4.7,1,7.3,1.1c5.4,0.2,10.8,0.2,16.3-0.1c2.8-0.1,5.5-0.3,8.3-0.6c2.8-0.3,5.7-0.6,8.4-0.9c9.4-1.2,18.7-3,28-5
						C246.4,177.5,252.2,176.3,257.9,174.6z"/>
				</g>
			</g>
		</g>
	</g>
	<g>
		<g>
			<g>
				<path class="st1" d="M313.4,129.7l-0.5,0.1C313.2,129.8,313.3,129.8,313.4,129.7z"/>
				<path class="st1" d="M376,129.7l-0.2,0.4C375.9,130,376,129.9,376,129.7z"/>
				<path class="st1" d="M399.9,100l0.5,0.1C400.2,100,400,100,399.9,100z"/>
				<g>
					<path class="st1" d="M368.4,91c-14.5-2-29.1-0.9-42.7,2.7c-1.8,0.4-3.5,1-5.2,1.5c-1.7,0.5-3.5,1.1-5.1,1.6
						c-3.3,1.2-6.5,2.3-9.7,3.5c-6.4,2.4-12.9,4.6-19.4,6.4c-13.9,3.6-27.7,7.3-40.9,12.7c-6.6,2.7-13.2,5-19.9,7.2l-5,1.6
						c-1.7,0.5-3.3,1-5.2,1.6l-2.8,0.9l-2.7,1c-1.8,0.7-3.6,1.4-5.4,2.2c-6.8,3-12.8,7.4-18.4,11.7c-5.6,4.4-10.9,8.9-16.6,12.1
						c-1.5,0.9-3.1,1.6-4.6,2.3l-2.2,1c-0.8,0.4-1.7,0.7-2.6,1.2c-0.5,0.2-1.3,0.8-2.4,1.8c-1.1,1-2.4,2.3-3.6,3.8
						c-1.2,1.5-2.1,3.2-2.7,4.5c-0.6,1.4-0.9,2.4-1,3c-0.1,0.5,1.2-0.2,2.8-1.1c1.6-0.9,3.5-1.9,4.3-2.2c1.4-0.6,2.9-1.1,4.4-1.5
						c1.5-0.4,3.1-0.7,4.6-1c1.5-0.3,3-0.6,4.3-1c1.3-0.4,2.5-0.8,3.4-1.1c7.4-3,10.7-4.7,17.3-8.6c3.5-2,6.9-3.9,10.4-5.6
						c3.5-1.7,7-3.2,10.5-4.4c1.8-0.6,3.6-1.1,5.4-1.6c0.9-0.3,1.8-0.4,2.7-0.6c0.9-0.2,1.7-0.4,2.8-0.5c4-0.7,8-1.3,12.1-1.7
						c13.1-1.4,25.6-7,38.4-9.1c13.9-2.4,27.8-3.2,41.3-5.8c1.8-0.3,3.6-0.6,5.4-0.9c1.8-0.3,3.5-0.4,5.2-0.6l2.6-0.2
						c0.9-0.1,1.7-0.1,2.6-0.1c1.7-0.1,3.5-0.1,5.2-0.2c6.9,0,13.7,0.4,20.5,0.6c1.7,0.1,3.3,0.2,5,0.3l2.5,0.1l2.5,0.3
						c1.6,0.2,3.3,0.3,4.9,0.6l4.8,0.8c6.4,1.3,12.7,2.9,18.6,5.6l2.6,1.1c0.8,0.4,1.7,0.9,2.5,1.3l2.5,1.3l1.2,0.7
						c0.4,0.2,0.8,0.5,1.2,0.7l4.7,3l4.4,3.4c3.6,3,7.1,6.1,10.4,9.5c3.4,3.3,6.4,6.9,9.4,10.7c5.9,7.7,11.1,16.2,15.5,25.5
						c2,4.2,3.6,8.5,5,12.9c0.7,2.2,1.4,4.4,2,6.7c0.3,1.1,0.5,1.9,0.8,3l0.8,3.4c2.1,9.3,4.3,18.9,7.7,28.2
						c3.5,9.9,7.6,23.6,16.6,29.9c2.1,1.4,5.5,1.5,8.3,1c-1.2,0.2-1.6-0.4-1.5-1.5c0.1-1.1,0.5-2.7,1.1-4.3c1.2-3.4,2.9-7.1,3-7.5
						c1.4-5.7,1.1-11.6,1.4-17.3c0.7-11.2,2.7-21.7,0.4-32.9c-0.6-3-1.3-5.9-2.1-8.9l-0.6-2.3l-0.7-2.5l-0.4-1.2l-0.4-1.1l-0.7-2.2
						c-2-5.9-4.3-11.8-7-17.5c-5.3-11.5-11.9-22.8-20-33.4c-3.4-4.5-7.2-8.9-11.3-13l-6.3-6c-2.2-1.9-4.5-3.7-6.7-5.6
						c-9.2-7.1-19.3-13.1-29.9-17.8C396,97.4,382.3,93,368.4,91z"/>
				</g>
			</g>
		</g>
	</g>
	<g>
		<g>
			<g>
				<path class="st1" d="M325.9,404.6l-0.6-0.1C325.6,404.6,325.7,404.7,325.9,404.6z"/>
				<path class="st1" d="M407.7,393l0.1,0.4C407.9,393.2,407.8,393.1,407.7,393z"/>
				<path class="st1" d="M404.2,354.9l0.3-0.2C404.4,354.7,404.3,354.8,404.2,354.9z"/>
				<g>
					<path class="st1" d="M379.6,365.4c-4.9,1.5-10.3,2.8-15.9,4c-1.4,0.3-2.8,0.6-4.2,0.9c-1.4,0.3-2.8,0.5-4.3,0.8
						c-2.9,0.4-5.8,1-8.7,1.5c-3,0.5-6.1,0.9-9.2,1.3c-3.1,0.3-6.2,0.6-9.4,0.6c-3.2,0.1-6.3-0.1-9.5-0.3c-3.1-0.4-6.3-0.9-9.3-1.8
						c-3.1-0.8-6.8-2.1-10.2-3.3c-3.5-1.2-7-2.3-10.5-3.5c-7-2.3-14-4.4-21.2-6.3l-2.7-0.7l-1.3-0.4l-1.5-0.4l-3-0.7l-1.5-0.4
						l-1.4-0.3c-1.9-0.4-3.8-0.9-5.7-1.2l-5.7-1.1c-7.5-1.4-15-2.6-22.6-3.6c-7.3-0.9-14.7-0.8-22.1-0.5l-11.1,0.5
						c-1.8,0.1-3.7,0.1-5.5,0.1c-1.9,0.1-3.7,0.1-5.6,0c-2-0.1-4-0.1-6.1-0.1c-1,0-2-0.1-3.1,0l-3.1,0.1c-0.5,0-1.5,0.3-2.8,0.7
						c-1.3,0.4-2.8,1.1-4.2,1.7c-0.7,0.3-1.5,0.6-2.2,1c-0.7,0.4-1.4,0.8-2,1.2c-1.2,0.7-2.1,1.4-2.5,1.8c-0.4,0.4,1.2,0.6,2.9,0.8
						c0.9,0.1,1.8,0.2,2.7,0.3c0.8,0.1,1.5,0.2,2,0.3c5.7,0.6,13.6,2.6,17.5,3c4,0.6,6.9,1.1,9.9,1.5c1.5,0.2,2.9,0.4,4.5,0.5
						c1.6,0.2,3.4,0.4,5.4,0.5c8.4,0.8,16.6,1.8,24.7,3.4c8.1,1.6,16,3.8,23.5,7.1c1.5,0.6,3,1.3,4.5,1.9c0.7,0.3,1.5,0.6,2.2,0.8
						l2.1,0.9c0.7,0.3,1.4,0.5,2.2,0.8c0.3,0.1,0.8,0.3,1.2,0.4l1.2,0.5c1.6,0.6,3.3,1.2,4.9,1.8c6.6,2.4,13.3,4.6,19.6,7.4
						c3.4,1.6,6.8,3.2,10.2,4.8c1.7,0.8,3.3,1.6,5.1,2.4l5.8,2.4c7.8,3,15.9,5.3,24.2,6.3c8.8,1.1,17.7,1.9,26.7,2
						c9,0.1,18.1-0.5,27.2-2.8c1.1-0.3,2.2-0.5,3.4-0.9l3.4-1c2.2-0.6,4.5-1.6,6.7-2.4c0.6-0.2,1.1-0.4,1.7-0.7l1.7-0.8l3.4-1.6
						c1.1-0.6,2.3-1.2,3.4-1.9l1.7-1l0.8-0.5l0.5-0.3c1.3-0.8,2.9-1.8,4.5-2.7l5.1-2.9c3.5-1.9,7.1-3.9,10.9-6.1
						c2.2-1.3,4.5-2.6,7-4.3c1.2-0.8,2.5-1.7,3.9-2.8l1.1-0.9l0.5-0.5l0.4-0.4l1.4-1.2c3.7-3.3,7.4-6.9,11-10.6
						c4.5-4.7,8.8-9.8,12.6-15.1c3.8-5.3,7.2-10.8,10.3-16.5c6.2-11.4,11.1-23.6,14.6-36.3c1.6-5.8,3-11.5,4.2-17.4
						c0.2-0.7,0.3-1.5,0.4-2.2c0.1-0.8,0.2-1.3,0.4-2.6c0-0.3,0.1-0.6,0.1-0.9c0-0.3,0-0.6,0.1-0.9c0-0.6,0.1-1.2,0.1-1.9
						c0-1.2,0-2.5-0.1-3.7c-0.1-1-0.1-1.9-0.2-2.7c-0.1-0.9-0.2-1.6-0.3-2.4c-0.1-0.8-0.2-1.5-0.3-2.3l-0.3-2.2
						c-0.8-5.8-1.9-11.1-3.1-16.4c-1.2-5.3-2.7-10.4-4.5-15.5c-3.8-10.7-8.5-25.3-18.1-31.8c-1.2-0.8-2.6-1.1-4-1.1
						c-1.4,0-3,0.1-4.4,0.4c1.2-0.2,1.5,0.3,1.6,1.5c0,1.1-0.3,2.8-0.8,4.6c-1,3.6-2.5,7.5-2.6,8c-1.1,6-0.6,12-0.8,18
						c-0.4,11.6-2.3,22.4-0.7,33.4c0.4,2.9,0.8,5.7,1.1,8.3c0.1,0.7,0.2,1.3,0.2,1.9c0.1,0.6,0.1,1.1,0.1,1.7c0,0.3,0,0.5,0,0.6
						c0,0.1,0,0.1,0,0.2c0,0,0,0.1,0,0.1c0,0,0,0.1-0.1,0.1c0,0-0.1,0.1-0.1,0.2l-0.2,1c-0.1,0.6-0.2,1.3-0.3,1.9
						c-0.2,1.3-0.4,2.5-0.7,3.8l-0.4,1.9l-0.4,1.9c-0.3,1.3-0.6,2.5-0.9,3.8c-2.7,10.1-6.6,20-11.8,29.5c-2.2,4-4.7,8-7.2,11.8
						c-2.6,3.8-5.3,7.4-8.2,10.8c-2.9,3.4-6.1,6.7-9.5,10l-1.3,1.2l-0.7,0.6l-0.3,0.3c-0.1,0.1-0.1,0.1-0.1,0.1
						c-0.2,0.1-0.2,0.2-0.6,0.4c-0.3,0.2-0.5,0.4-0.9,0.7c-1.4,1-3.3,2.1-5.3,3.2c-2.4,1.3-5.1,2.7-7.8,4c-2.9,1.4-5.8,2.8-8.8,4.2
						l-2.4,1.2l-1.2,0.6l-1.3,0.7c-0.5,0.3-0.7,0.3-0.9,0.4l-0.7,0.3l-1.4,0.7c-1,0.4-2.1,0.8-3.2,1.2L379.6,365.4z"/>
				</g>
			</g>
		</g>
	</g>
</g>
</svg>
