<svg xmlns="http://www.w3.org/2000/svg" viewBox="0 0 410 410"><path d="M305.8 34.3c-.7.2-2.3.7-3.4 1.2s-3.2 1.2-4.6 1.7c-7.5 2.6-11.4 5.5-15.6 11.6-1.1 1.6-2.1 3-2.3 3.2-.2.2-.2.3-.1.3.2 0-1.4 2.1-2.8 3.5-1.2 1.3-6 5.1-6.4 5.1-.9 0-1.3 1-.9 2.3.6 1.7.6 4.3-.1 5.8-.9 2-.5 2.4 1.3 1.3.5-.3 1.4-.9 1.9-1.2.9-.6 1.9-1.8 3.7-4.6.5-.7.9-1.4 1-1.4.1-.1.7-.8 1.3-1.7 6.4-8.6 16.1-13.4 23.6-11.7.6.1 2 .4 2.9.5 5.6.7 11.2 5.3 10.4 8.5-.3 1.4-.3 1.4-.6.6-.1-.4-.4-1-.5-1.2-.2-.2-.4-.7-.6-1.2-.2-.6-.4-.8-1-.9-1.5-.2-1.9 1.9-1 5.3 1.6 6 13.3 2.9 16.8-4.4 4.1-8.5 1.6-16.3-6.3-20.2-1.1-.5-2.7-1.4-3.7-1.9l-1.7-.9H312c-3.2 0-5.3.1-6.2.4m-60.9 15.9c-4.5.6-7.2 1.7-11.7 5-1.7 1.2-3.8 2.6-4.7 3.1-1.2.6-2.8 1.9-5.5 4.6-3.7 3.6-5 5.3-7.4 9.4-.7 1.3-1.4 2.1-1.7 2.2-.3.1-1.4.8-2.5 1.5-1.1.8-2.5 1.6-3.1 1.9-5.4 2.1-8.7 5.6-12.4 13-2.1 4.1-3.1 5.7-6.7 9.5a32.1 32.1 0 0 0-2.6 3c0 .5 1.2-.1 3.3-1.7 1.3-1 3-2.3 3.7-2.8 2.2-1.6 4.1-3.7 5.7-5.9 2.8-3.9 5.6-6.6 9.3-8.8 1.3-.8 1.4-.8 1.1-.2-1.1 2.1-3.1 4.6-5.4 6.9-3.4 3.3-3.5 3.7-1 2.6.8-.4 2.4-1 3.4-1.3 9.8-3.5 16.7-10.5 17.5-17.8.3-2.8.6-2.9 1-.3 1.7 10.7 15.6 5.9 20.2-7 1.2-3.3 1.1-7.8-.2-9-1.2-1.2 0-1 1.2.1s2.1 3.8 2.1 6.2c0 4.1 9.6 6.4 12.3 3 3.2-4.1.2-13.7-5.1-16.3-1.7-1.2-7-1.5-10.8-.9m58.5 2.3c-.2.2-.3.4-.3.5 0 .1-.7 1.3-1.5 2.8-.8 1.4-1.9 3.6-2.4 4.8-.5 1.2-1.3 3-1.8 4s-1.2 2.6-1.6 3.7c-.4 1-1.1 2.7-1.6 3.7-3.2 6.3-7.3 18.9-8.6 26.3-.2 1.2-.6 2.9-.8 3.7-.2.8-.7 3.4-1.1 5.7-.4 2.3-1 5.3-1.3 6.6-1.9 7.2-2.3 27.1-.9 45.3.4 5.1.5 12.2.2 11.4-.1-.3-.7-2.3-1.2-4.3-1.2-4.9-1.7-6.7-2.9-10.7-.6-2-1.3-5.3-1.7-8.4-.4-2.8-1-6.6-1.3-8.4-.4-2.5-.6-4.9-.7-10.1-.1-6.7-.4-8.7-1-8.5-.3.1-.6 2.8-1.2 10.7-.5 6.2.6 17.8 3 34.2.2 1.2-1.4-3.6-2.1-6.5-.3-1.4-.8-3.5-.9-4.6-.2-1.1-.6-3.3-1-4.8s-.8-4.2-.9-5.9c-.5-6.6-1.1-12.9-1.4-14.9-.8-4.2-1.5-27.7-.9-27.7.5 0 .7-.9.8-4.9.1-1.7.2-4.3.3-5.7.3-4.9-.6-2.7-2 5-1.3 7.1-1.5 8.8-1.8 14.2-.2 2.8-.4 6.4-.5 8-.4 4.5.3 12.5 1.6 18.5.3 1.4.7 4.5.9 7 .2 2.5.5 4.9.6 5.4.1.5.1.9 0 .8-.1-.1-.5-1.8-.9-3.9-2.2-10.7-2.2-10.5-2.7-10.5s-.5.1-.3 1.6c.1.9.2 3 .3 4.7s.3 4.2.5 5.6c.2 1.4.4 3.9.5 5.4l.1 2.8-.6-3.1c-.6-3.1-.9-5.3-1.6-11-.2-1.6-.5-3.4-.7-4.1-.3-1-.3-2.2 0-5.9.4-6.4.6-14.3.4-15.1-.5-1.9-1.2-.2-1.2 2.7 0 1.7-.6 7-1.2 11-.7 4.4-.3 16.1.7 22.9.1 1 .4 3.3.5 5 .6 8.3.7 8-.5 3.5-2.3-8.8-2.3-9.6-2.4-26 0-14.9.2-22.4.9-28.1.2-1.9.5-4.6.6-6.2.1-1.5.4-4.1.6-5.8.2-1.7.5-4.8.5-7.1.1-2.2.3-4.8.4-5.6.4-2.6.4-6 0-6.5s-2.5-1.7-3-1.7-.7 3.9-.9 13.5c-.1 3.5-.2 7.1-.4 8.1s-.4 3.4-.5 5.4c-.1 1.9-.4 5.5-.6 8-.7 7.4-.8 17.7-.3 24.9.2 3.4.4 7.5.4 9.1 0 1.6.1 4 .3 5.3.4 3.8.9 10.4.8 11.7 0 1.2.9 9.8 1.1 10.4.1.2.3 2.2.5 4.5s.7 5.8 1.1 7.8c.4 2 1 5.7 1.4 8.1.4 2.5.9 5.3 1.1 6.4.5 2.5.1 2.1-.5-.5l-1.6-5.9c-3.5-11.8-5.2-19-4.7-20.1.3-.8 0-5-1.7-21.5-.6-5.9-1-7.2-1.3-4.2-.4 4-.5 15.3-.2 18.7.3 3.3 1.2 11.6 1.5 14.1.3 2.5-.2.7-.7-2.5-.3-1.9-.6-3.5-.7-3.6-1-1.6-2.2-19.1-1.7-24.5.2-1.6.4-4.9.6-7.3.2-2.5.4-6.2.6-8.4.4-3.8.2-5.1-.5-3.9-.3.5-1 6.4-1 8.5 0 1.5-.5 5.7-1.6 13-.8 5.5-1.1 10.3-.8 13.5.9 10.7 3.3 23.6 6.2 34.1.7 2.4.5 2.6-.3.3-.3-.8-.9-2.3-1.4-3.3-.7-1.5-4.3-11.2-5.2-14-1.1-3.3-3.1-16.3-3.9-24.7-.7-7.2 1.3-28.8 2.9-30.9 1-1.4 1.3-3.7 1.4-10.8.1-7.5.4-12.8 1.1-17.6 1.2-9.5 1.8-13 2.7-16.8 1.2-4.6 1.2-4.9.6-5.2-1-.4-2.8 5.2-3.7 11.1-.2 1.5-.5 3.1-.6 3.4-.4 1.1-1.8 10.8-1.9 13.7l-.1 1.4-.4-1.9c-.3-1.5-.3-3.3-.2-7.8.2-5.2.1-5.9-.2-5.9-1.2 0-1.9 13.6-.9 17.4.6 2.2 1 6.2.9 9.4 0 3.8-.4 4.4-.6 1-.2-3-.7-5.8-1.5-8.1-2.5-7.4-1.9-23.1 1.3-31.1 1.2-3.1.7-3.4-1.1-.7-3.1 4.8-5.4 22.3-3.7 28.7 2.4 9 2.7 14 2.1 28.2-.4 10-.7 11.3-.7 3.8-.1-13-.9-22.1-1.9-21.1-.5.5-.5 27.2-.1 30.7.2 1.7.4 3.8.5 4.5l.1 1.4-.4-1.3c-.2-.7-.4-1.8-.4-2.5 0-.6-.1-1.7-.3-2.2-.1-.6-.5-3.7-.8-7-.7-7.7-1.2-12.9-1.9-17.4l-.5-3.7-1.6-2c-2.4-3.1-3-4.7-3.2-8.1-.1-1.5-.3-3.2-.4-3.8-.1-.6-.3-1.8-.3-2.6 0-.9-.2-2.9-.4-4.5s-.5-5.1-.7-7.7c-.3-4.9-.6-6-1.2-4.4-.8 2.1 0 25.1 1 27.4 1.3 3.2 2.2 4.8 2.8 5 .4.2.9.8 1.5 2 .5 1 1.1 2.1 1.3 2.6.6 1.1.9 4.1 1.4 11.9.8 13.6.8 13.1 2.6 25.4.4 2.5 1.1 6.6 1.6 9.3 1.4 7.3 1.4 7.2.2 4.1-1.8-4.8-3.5-10.7-4.2-14.6-.2-1.2-.7-3.4-1.1-4.9-.4-1.4-.9-5.3-1.3-8.7-.7-6.4-.9-7.3-1.6-7.2-1.1.2-.5 10.2.8 15.9.3 1.4.9 3.9 1.2 5.5.6 3.1 2.3 9.3 3.2 11.5.8 2 1.6 4.2 1.7 4.8.1.3.6 1.9 1.3 3.5.6 1.6 1.3 3.6 1.6 4.4.2.8 1.5 3.7 2.8 6.4 1.3 2.7 2.8 6.5 3.5 8.3.6 1.8 1.4 3.8 1.6 4.3.2.6.3.9.2.8-.1-.1-.8-1.4-1.4-2.8-2.5-5.7-2.8-2.8-.3 3.2.5 1.2 1.3 3.3 1.8 4.7.5 1.3 1.2 3 1.7 3.8l.8 1.3-1.2-1c-1.3-1.1-1.9-2.2-3.9-7.3-.7-1.7-2-4.8-2.9-6.8s-2.1-4.8-2.7-6.2c-.6-1.4-1.4-3.2-1.8-4.1-.4-.9-.8-1.8-.8-2.1 0-.3-.4-1.7-.8-3.1-2.9-9.5-5.5-19.9-7.3-29.7-.3-1.5-.7-3.4-.9-4.2-.7-2.6-.9-5.5-.9-9.9 0-2.3-.1-5.5-.2-7.1-.7-8.1-.8-9.7-1.2-13-.2-1.9-.6-5-.8-6.7s-.5-5.7-.6-8.9c-.3-7.1-1.3-16.1-1.9-16.7-.1-.1-.8.3-1.6.9-1.7 1.3-1.7 1.4-1 5.1.3 1.4.6 3.7.7 5 .1 1.3.3 3.7.4 5.2.1 1.6.3 4.2.4 5.9.2 6.6.6 12.9 1 15.3.2 1.4.7 3.9.9 5.5.5 2.9 1.1 7.7 1 9 0 .4-.5-1.1-1-3.3-.6-2.2-1.1-4.2-1.3-4.5-.1-.3-.7-2.8-1.4-5.6-.6-2.8-1.3-5.6-1.5-6.3-.2-.6-.5-2.2-.7-3.4-.2-1.2-.6-3.4-.9-4.9-1.3-5.8-1.7-9.2-1.8-14.8 0-5.7 0-5.6-1.4-4.8-.8.5-1.7 3.1-1.3 3.7.1.1-.2.1-.6-.1-.4-.2-.7-.4-.7-.5.5-.8-.6-1.3-1.3-.6-.9 1 1.3 18.5 3 24.7.3 1.1.6 2.8.6 3.9.1 1.1.4 3.3.8 4.8s.9 4.1 1.2 5.8c.3 1.7.8 4 1.2 5.2.4 1.2.9 3.3 1.3 4.6l1.3 4.2c.3 1 .7 2.5.9 3.3.2.8.6 2.2 1 3.1.8 1.9 2.9 8.7 3.9 12.7.6 2.4 1.7 6 2 6.5.5.9.9.2.5-.9-.2-.5-.5-2-.7-3.4-.9-5.1-2.3-11.7-3-14.1-1.1-3.4-2.2-8.3-3.4-15.5-.3-1.6-.7-3.6-.9-4.5-.2-.9-.4-1.8-.3-1.9.1-.2.3.5.6 1.5.9 3.2 1.6 5.9 3.3 11.1.9 2.8 2.1 7.6 2.8 10.6 1.1 5.1 3.7 15.6 5.2 21 .4 1.3 1.2 4.4 1.9 6.8.7 2.5 1.6 5.3 2.1 6.4.5 1.1 1.1 2.6 1.3 3.4.5 1.6 2 5.2 4.5 11.3l1.7 4.1 2.1 1.9c1.2 1.1 5.3 5.2 9.2 9.1 3.9 3.9 9.1 9.1 11.7 11.5 7.1 6.5 9.3 8.8 13.5 13.8 4.6 5.6 14.9 16.5 16.6 17.8.7.5 1.4 1.2 1.5 1.5.2.3 1.1 1.5 2.1 2.6 3.2 3.5 5.6 8.4 6.4 12.7.3 1.6.7 3.4.8 4 1.4 5-1.4 12.2-5.4 14-2.4 1.1-6.8 2-9.6 2-2.4 0-2.6 0-5.6-1.3-1-.4-.3.5 2.7 3.9 3.3 3.7 5.1 5 8.5 6.4.7.3 2.5 1 4.1 1.7 8.1 3.4 12.7 3.5 17.4.1 3.4-2.4 4.6-2.9 6.8-2.5 5.2.9 6.4 2.5 6.5 9.2.1 7-1.7 11-6.5 14.6-1.7 1.3-2.3 1.9-1.8 1.9 2.1 0 6.9-3.7 9.5-7.4 7.9-11.1 8.2-20.5 1.2-35.1-.7-1.4-1.2-2.7-1.3-2.9-.3-1.3-3.2-6.2-7-11.9-.6-.8-1-1.6-1-1.6 0-.1-1.1-1.7-2.4-3.7-5.6-8.3-10.8-17.4-13.2-23.3-.4-1-1.7-3.8-2.9-6.3-5-10.3-8.7-34.9-6.4-42.2.3-.9.7-3.2.9-5.2.4-3.5 1.4-8.5 2.9-15.3.4-1.7 1.1-5.2 1.7-7.8.6-2.6 1.3-6 1.7-7.5.4-1.5 1-3.9 1.3-5.3.3-1.4.9-3.9 1.3-5.4 1.4-5.6.6-7.7-1.1-2.9-.2.7-.9 2.2-1.4 3.5s-1.1 2.6-1.3 3.1c-.2.5-.8 2.5-1.5 4.3a121 121 0 0 0-3.6 12.1c-.3 1.4-.8 3.6-1 4.8-.3 1.2-.8 3.9-1.3 6s-1 4.6-1.2 5.6c-.2 1-.4 1.6-.4 1.4-.1-1.2 1.4-11.1 2.1-14.4 1.5-6.8 1.6-7.4 2.2-10.6.8-3.8 3.3-12.5 5.8-19.7.9-2.7 1.8-5.2 1.8-5.5.1-.7 4-8.5 5-10.1.5-.7 1.2-2 1.6-2.8.4-.8 1.1-2.1 1.6-2.9.4-.8 1.5-2.7 2.3-4.2.8-1.5 2.3-4 3.3-5.5 2-3 2-3.1 1.4-3.3-2.7-1-16.4 21-21 33.9-.8 2.1-1.6 4.4-1.9 5.2-.3.8-.5 1.4-.4 1.4.2.2-1.2 4.4-1.5 4.4-1 0-5.6 10.9-5.7 13.5 0 .3-.1.4-.2.2-.5-1.3 2.6-12 6.5-22.2.5-1.4 1.3-3.7 1.8-5 .9-2.8 3.8-10.2 5.3-13.9 1.9-4.6 2.1-5.1 1.8-5.2-.1-.1-1 1.3-1.8 3.1-.9 1.8-2.1 4-2.6 5.1-1.4 2.5-3.6 6.7-3.8 7.5-.1.4-1.2 2.7-2.4 5.2-1.9 4-4.1 9.2-5.7 13.5-.8 2.2-1.7 5.6-2.4 9.3-.4 1.9-1 4.9-1.3 6.6l-.6 3v-2.1c0-1.2-.2-3.2-.4-4.4-.5-3.2-.8-15.5-.4-20.6.6-8.3 1.4-14.4 3.3-23.8.5-2.5 1.2-6.8 1.6-9.7 1.1-8.2 1.1-8.4 2.6-12.8.8-2.3 1.6-4.4 1.7-4.7.4-.8 3.4-8.2 4.3-10.6 1.6-4.3 2-5.1 2.5-5.8.3-.4 1-1.7 1.7-3s1.7-3.2 2.3-4.2c1-1.7 3.6-7.5 3.4-7.6-.9-.9-1.4-.5-3.3 3.1-1 1.9-2.5 4.6-3.4 5.9-4.4 6.8-10.2 19.9-12.2 27.6-.8 3-1.5 5.6-1.6 5.8-.2.3-.2.3-.1-.1.1-.3.3-1.6.6-2.9.2-1.3.8-3.7 1.2-5.4.4-1.7.9-3.5 1-4.2.3-1.6 1-3.3 3.4-8.4 1.1-2.4 2.6-5.6 3.4-7.2s1.9-3.9 2.6-5.1c2.4-4.2 5.6-10.4 5.6-10.7 0-.3-.8-.7-.9-.6-1.3 1.8-6.5 10.7-9.1 15.5-.7 1.3-1.6 3.2-1.9 4.3-.4 1.1-1.2 3.1-1.8 4.6-2.3 5.4-6.7 17.7-7.1 20-.1.6-.4 2.5-.8 4.3-.6 3.2-1.2 7.5-1.6 11-.1.9-.3 2.2-.4 2.8-.5 2.2-.8 8.3-.9 19.1-.1 9.3-.6 17.7-1 18.1 0 0-.3-2-.5-4.4-.3-2.5-.6-5.6-.8-7-.3-2.2-.3-8.4-.1-13.4.4-9.5.7-13.2 1.2-15.5 1.4-6.5 1.9-9.1 2.3-12.7.7-5.3 1.6-9.5 2.8-12 .5-1.2 1.7-3.8 2.6-5.9.9-2.1 3.9-8.2 6.6-13.6 7.7-15.2 9.6-19.2 9.4-20.2-.2-1.1-.5-.9-2 2-2.1 4-4.3 8.1-4.8 8.7-.4.6.1-.8 3.5-8.8 1.6-3.9 1.7-3.9 1.2-4.4-.5-.5-1.3-.2-1.3.4 0 .4-1.9 4.5-3 6.4-1.1 1.9-5.9 11.9-6.9 14.6-.3.8-.9 2-1.3 2.8-1.1 1.9-2.9 6.8-4.3 11.3-.7 2.2-1.4 4.6-1.7 5.5-.3.9-.6 2-.7 2.4-.3 1.5-.4.7-.1-1 1-6 3.7-15 6.7-22.4 1.1-2.7 2.5-6.1 3-7.5.6-1.4 1.4-3.3 1.8-4.2.4-.9 1.2-2.7 1.7-4 .5-1.3 1.3-3.2 1.8-4.3 2.5-3.1 2.9-5.6 1.5-4.2m-7.4 1.4c-.3.4-1.7 3.8-3.1 7.3-.5 1.2-1.6 3.8-2.6 5.6-1.9 3.8-2.5 5.1-2.8 6.3-.1.4-.8 2.4-1.6 4.5-2.1 5.6-3.1 9-3.4 11-.4 2.9-1.9 8.6-2.4 9.4l-.5.8.2-1c.1-.6.4-3.1.7-5.6.8-6.6 2.2-13.7 4.1-19.8 2.6-8.8 3.4-13.5 2.1-13.5-.7 0-1 .8-2.3 5.8-.7 2.8-1.8 6.5-2.3 8.3-.6 1.8-1.2 3.9-1.4 4.6l-.4 1.3v-2.2c0-2.5-.4-3.5-1.1-2.9-.4.4-.7 1.9-1.5 8.2-.3 2.4-.7 5.1-.8 6-.9 5.5-1.5 20.8-1 27.3.2 2.7.4 8.8.4 13.5.1 8.6.7 16.4 1.4 19 .1.5.4 2.2.5 3.7.3 3 .9 5 1.5 5 .4 0 .3-5.1-.2-9-1-7.7-.3-27.3 1.2-34.8.2-.9.5-3.2.8-5 .5-3.6 2.5-14.7 3.3-17.9.3-1.1.7-3.2 1-4.6.9-4.6 3-10.4 6.1-17.2 3.5-8 6.1-16.6 4.1-14.1m51 1.9c-2.8.7-8.2 2.4-9.3 3-.8.4-1.7.8-2.1.9-.4.1-1.6.7-2.8 1.2-2.8 1.4-7.5 3.2-9.4 3.6-1 .2-1.5.5-1.5.7 0 1 2.9.8 7.2-.5 8.4-2.5 10.8-3.1 11.8-2.8 1.4.4 4.4 2.1 5.6 3.1 2.1 1.8 4.1 2.7 7.7 3.1 4.2.6 4.8 1.6 4 6.2-.8 4.3 0 7.2 2.8 10 3.3 3.4 6.4 3.2 10.6-.7 2.9-2.6 2.7-10.6-.4-15.2-1.2-1.8-1.3-1.9-4.4-3.8-1.9-1.2-2.3-1.5-2.9-2.8-1.7-3.4-3.5-4.9-6.8-5.7-1.7-.2-9.1-.5-10.1-.3m-82.6 6c.3 2.7-.5 5.1-2.1 6.9l-1.3 1.4.6.5c.7.6 2.8.5 3.7-.1 3.5-2.5 4.4-5 2.8-7.7-1.2-2-2.1-2.8-3-2.8h-.8l.1 1.8m75 5.9c-.7.6-2 2.1-3.1 3.4-1 1.2-2.1 2.5-2.4 2.8-.8.8-3 3.4-4.2 5.1l-2.5 3.4c-2.5 3.4-5.9 8.5-6.5 9.7-.3.6-1.3 2.4-2.1 3.8-3.5 6-6.3 11.7-6.3 12.9 0 .2-.3.7-.6 1.1-.4.5-.7 1.2-.8 2-.1.7-.3 1.6-.6 2-.3.5-.5 1.9-.6 4.1-.2 3.7-.3 4-3.8 11.1-1.1 2.1-1.9 4.1-1.9 4.4 0 1 .7.5 1.7-1.3 2.4-4.2 4.6-8.3 5.2-9.9 1.1-2.8 6.6-11.6 10.7-17.1 1.4-1.9 2.9-4 3.3-4.6.4-.7 2-2.7 3.5-4.5 10.2-12.4 18.7-20.2 23.5-21.7 2.3-.7 3-1.9 1.4-2.2-2.3-.5-5.2 0-6.4.9-4.8 3.9-9.3 8.1-10.9 10-.3.4-1.6 1.8-2.8 3-1.2 1.2-3.1 3.4-4.2 4.9-1.1 1.4-2.1 2.7-2.2 2.8-.8.7-5 6.2-5 6.5 0 .2-.1.3-.3.3-.1 0-.3.1-.3.3 0 .1-.8 1.4-1.7 2.8-1 1.4-2.7 4.3-4 6.4-2.3 3.9-2.5 4-1.2.1.3-1 1.1-2.7 1.6-3.7 1.2-2 4-7.1 5.4-9.9 2.4-4.7 9.6-15.7 12-18.5.9-1 2.3-2.9 3.3-4.2 1-1.3 2.6-3.4 3.7-4.6 1.1-1.2 1.9-2.2 1.9-2.3-.7-.6-1.7-.3-2.8.7m-4.8-.3c-.9.2-1.8.6-2 .8-.6.5-5.4 7-6.6 8.9-.6.9-1.8 2.8-2.6 4.2-.9 1.4-2.1 3.4-2.8 4.6-.6 1.2-1.5 2.6-1.9 3.3-1 1.6-2.8 5.4-2.8 5.9 0 1.3 2.2-1.5 4.2-5.5.3-.6 1.8-2.8 3.5-5 1.6-2.2 3.2-4.3 3.4-4.8 1-1.6 3.4-4.7 6.4-8.2 4-4.4 4.1-5 1.2-4.2m-6.4 1.1c-.7.4-5.5 6.3-6.9 8.4-5.4 8.6-8.9 14.5-10.2 17.3-2.3 5-4.6 9.5-5.3 10.4-2.2 2.9-9.4 19.4-10 22.9-.1.5-.3 1.3-.4 1.8-.1.5-.4 2.3-.5 3.9a99 99 0 0 1-1.7 12c-1 4.9-1 5.3-.6 5.3.1 0 .3-.2.3-.3 0-.2.6-2.2 1.3-4.4.7-2.2 1.5-4.8 1.7-5.6.2-.9.6-2.5.9-3.5.3-1.1.6-3.1.7-4.5.2-3.4.4-3.6.8-1.2 1 5.9 1 5.9-2 14.8-.8 2.5-1.7 5.4-1.8 6.3-.2.9-.5 2-.7 2.3-.5.8-.8 4.8-.4 4.8.2 0 .4-.6.6-1.4s.5-1.7.6-2c.6-1.3 5.7-16.5 6-18.3.5-2.1.5-7.4.1-9.8-.5-2.7-.4-3.3 1.4-8l1.7-4.4.2 2.7c.3 3.2-.1 7.2-.9 9.4-.6 1.7-.7 2.6-.1 2.8 1.5.6 3.3-5.5 3.5-12 .2-5.7.4-6.3 3.3-14.2.7-1.8 2-4.9 3-6.9 3.6-7.4 4.8-9.7 5.9-11.5.6-1 1.3-2.1 1.5-2.6 1.9-3.5 7.1-11.8 8.3-13.2 1.1-1.3 1-2.1-.3-1.3m-6.5.9c-5.2 2.1-6.4 3-8 5.8-.8 1.4-1.5 2.6-1.5 2.7s-.2.6-.5 1.1c-3.2 5.2-4.8 9-8.8 21.6-.7 2.2-1.6 4.9-2.1 6-1.5 3.6-2 5.1-2.1 5.9 0 .4-.1.9-.2 1.1 0 .2.1.4.2.4.6.2 7.1-13.4 9.3-19.5 1.1-2.9 2.5-6 3.9-8.9 1.6-3.1 7.2-10.9 10-13.9.4-.4.7-.9.7-.9 0-.1.4-.5.9-1 1.9-1.6 1.3-1.7-1.8-.4m20.1 1.9c-3.7 3.6-10.7 12.2-12.5 15.5-.3.6-.7 1.1-.8 1.1-.3 0-.3.7.1.9.1.1.6-.2 1-.7.4-.5 2-2.2 3.5-3.8 1.5-1.6 3.5-3.7 4.3-4.7.8-1 3.2-3.3 5.3-5.2 4.2-3.8 4-3.6 3-4.8-1.1-1.1-.9-1.2-3.9 1.7m-219.5 4.6c-.8.4-3.4.7-3.4.4 0-.4-1-.3-1.3.2-.3.4-1 .6-2.8.8-1.1.1-4.8 1.2-10.6 3-1.9.6-4 1.2-4.6 1.4a45.4 45.4 0 0 0-13.8 6.4c-1.4 1-3.4 2.3-4.5 3-1.8 1.1-10.2 9.2-10.2 9.8 0 .7 1.3-.1 3.7-2.4 3.3-3.2 4.5-4.1 8.1-6.3 1.5-.9 3.4-2 4.2-2.5 1.6-.9 7-3.6 7-3.4 0 .1-.4.4-1 .8-1.2.8-3.5 3-3.5 3.3 0 .6 1.4.1 3.4-1.2 3.1-2 3.4-2.2 2.3-1-2.1 2.3-7.1 9-7.1 9.5 0 .4.7.4 2.9-.1l1.7-.3 1.5-2.1c2-2.9 3.1-4.2 4-4.8l.8-.6-.7 1.2c-.5.7-.9 1.5-.9 1.6 0 .2-.4 1.1-.9 2-1.2 2.1-1.2 2.2.3 2.2h1.2l1.2-2c1.4-2.3 1.6-2.4.8-.2-.7 1.9-.7 2.4 0 2.7.8.5 1 .3 1.4-1 .5-1.8 4.4-9.2 4.4-8.4 0 .1-.4 1.3-.9 2.7-.5 1.4-1 3.5-1.2 4.7-.1 1.2-.4 2.6-.5 3.1-.4 1.3-.3 3.4 0 3.4.7 0 2.6 1.1 2.7 1.6.5 1.6 1.2-.2 1.2-3.2 0-1.6.6-3.7 1.4-4.7.3-.4.7-.9.8-1.1.1-.2.2-.1.2.3s-.4 1.2-.8 1.9c-.9 1.4-1.5 7.9-.8 8.4.6.4 1.9-.1 1.9-.7 0-.4.1-.5.1-.1.1.5.1.5 2 .2l1.5-.3v-2.5c0-2.6.4-2.7.5-.2 0 2.4.1 2.5 2 2.5s1.8.1 1.4-2.6c-.3-1.6-.9-2.7-1.3-2.1-.3.5-.5-1.4-.5-4.7 0-2.4.1-3.1.3-2.7.2.6.7 4.7.8 6.1 0 .3.2.5.7.5.5 0 .7.1.7.6 0 .3.2 1.1.4 1.6.2.6.4 1.6.4 2.2v1.1h1.3c1.6 0 2.1-.8 2.1-3.6 0-2.4-.1-2.6-1.5-3.2-1.4-.6-1.4-.6-1.6-5.1-.5-8.6.3-14.1 1-7.4.3 2.6.6 3.5 1.1 3.1.3-.3.3-7.1.1-7.7-.1-.4-.1-.4.4-.2.4.2.7.6.9 1.4.2.6.8 2.5 1.4 4.2.6 1.7 1.2 3.9 1.5 5 .6 2.6 1.2 3.1 3.2 3.1 1.7 0 1.7 0 1.1-3.4-.4-2.3-.2-2.2.9.6.5 1.2 1 2.1 1.1 2.2 1.1.3 1.3.1 1.2-1.3-.2-1.6-.1-1.6.7 0 .6 1.1.8 1.3 1.6 1.4 1.2.2 5.6.2 5.6 0 0-.3-1.3-2.6-1.8-3.2-.9-1-2.8-1.9-4.9-2.2-3-.5-3.2-.6-3.7-2-.3-.7-.7-1.8-1-2.4-.7-1.6-1.5-4.5-1.2-4.5.5 0 1.5 2.1 2.2 4.7l.8 2.8 2.5.2c2.9.2 3.1.2 2.4-.9-.3-.5-.8-1.5-1.2-2.3-.4-.8-1.1-2-1.5-2.7-.9-1.4-1-1.7-.4-1.7 1.4 0 5.5 4.1 8.8 8.7l2.2 3 2 .1c1.5.1 2 0 2.2-.3.2-.4-1.5-4.2-2.2-5-.2-.3-.4-.5-.3-.6.2-.2 2.3 2.4 3.5 4.4l.9 1.5h3.2c1.8 0 3.2-.1 3.2-.2s-.2-.6-.5-1.1c-.5-.9-.5-.9.6.3.6.7 1.3 1.2 1.5 1.2.5 0 .4-1.3-.2-1.8-.3-.3-.5-.6-.5-.7 0-.1-.5-.7-1.2-1.4-1.7-1.7-2-2.4-.5-1.1 1.5 1.2 2.9 2.7 2.7 2.7-.1 0 .1.3.4.6.3.3.9 1 1.2 1.4.5.6.9.8 2 1 1.7.2 1.7.1 0-2-1.8-2.2-.5-1.5 2.4 1.3 1.4 1.4 2.2 1.9 2.7 1.9.8 0 5.2 1.4 6.6 2.1.6.3 1 .4 1 .3 0-.4-3.6-3.9-5.1-4.9-.7-.5-1.9-1.4-2.7-2-1.9-1.6-7.2-4.4-10.5-5.6-12.2-4.3-21.4-6.3-29.1-6.5-1.9-.1-3.7-.2-3.9-.2-.4-.2-.9-.2-1.3 0m229.1 1.5c-1.6.9-3.8 2.3-5.3 3.6-5.1 4.1-5.8 4.9-12.8 12.7-2.3 2.6-4 4.8-9.2 11.7-.6.8-1.5 2.2-2 3.1-.5.9-1.2 1.8-1.5 2.1-2.6 2.3-10.9 20.1-9.1 19.4.2-.1 1.3-1.9 2.4-4.1 1.7-3.4 2.8-5.4 4.7-8.5 1.9-3.2 6.6-9.2 13.3-17.1 1.6-1.9 9.6-9.6 11.3-10.9 3.1-2.4 4.1-3.2 5.2-4.2 2-1.9 2.4-2.2 4.3-3.3l1.8-1.1-.2-1.2c-.1-.7-.2-1.6-.2-2.2.1-1.3-.3-1.3-2.7 0m-87.3.6c-.1.3-.1.5 0 .6.3.3.5-.1.4-.6-.2-.4-.2-.4-.4 0m8.7.4c-.9 1-1.3 4.5-1.7 15.4-.2 4-.4 10.4-.6 14.2-.4 7.6-.3 12.7.1 13.1.7.7 1-.7 1.1-5.7.1-2.8.4-6.7.6-8.7.2-2 .6-6.3.9-9.6.3-3.2.7-7.5.9-9.4.6-5.5.6-8.9 0-9.3-.7-.6-.8-.6-1.3 0m-8.9 1c-.3.3-.2 1.3.1 1.5.2.1.3-.2.3-.8-.1-.9-.1-1-.4-.7m-32.1 3.5c-.2.1-.4 1.9-.6 5.2l-.3 5 .9 3c1.3 4.6 1.7 3.2.6-2.1-.5-2.5-.3-2.4.5 0 .9 2.6 1.4 5.5 1.7 8.9.2 2.2 1.3 9.1 1.7 10.5 1 3.4.7-11-.2-16.5-.4-1.9-1-4.4-1.3-5.4-1.5-4-2-5.5-2.1-7.1-.3-1.8-.4-1.9-.9-1.5m122.4 1.2c-.3.4-.7.7-.9.7-1.5 0-9.3 6.2-15 11.9-2.5 2.5-7.6 8.7-7.9 9.7-.5 1.4 1.4.5 3.2-1.5 4.3-4.7 14.5-11.6 21.7-14.7 3.3-1.4 3.7-2 2.1-3.7-.5-.5-1.2-1.4-1.5-2-.6-1.2-.9-1.3-1.7-.4m-101.3.6c-.5.7-.8 5.5-.9 16.8-.1 11.1-.3 15.1-1 16.2-.2.3-.6 1.8-.8 3.2-.2 1.4-.8 4.2-1.3 6-1.9 7.4-2.4 15.1-.8 15.1.6 0 .7-.3.9-3.7.3-4 1-6.6 3.4-13.7 1.7-4.9 2.3-12.2 1.8-21.2-.2-4.1-.3-8.4-.1-11.7.2-6.6-.1-8.4-1.2-7m115.3 3.7c-1.2.5-2.1.7-3.7.7-2.1 0-2.1 0-2.3.8-.6 2.1.8 5.4 3.5 8 2 2 3.1 4.7 1.8 4.7-.8 0-3.2-1.4-4.3-2.4-1.7-1.7-2.2-.1-.6 1.9 5.9 7.1 13.7 5 14-3.8.1-4-.5-5.5-3.6-8.6-2.2-2.3-2.4-2.4-4.8-1.3M83.9 94.5c-1.9 1.9-3.6 3.4-3.7 3.3-.1-.1 0-.3.3-.5.2-.2.4-.6.4-.8 0-2.5-10.4 6.9-14.8 13.3-.9 1.3-1.9 2.5-2.3 2.7-.9.5-1.9 2.1-3.4 5.4-1.6 3.3-1.6 3.6 0 4.7 1.5 1.1 1.5 1.1 2 0 .5-1 1.1-1.3.8-.3-.6 1.9-.4 2.3 1 2.3.6 0 .8-.1.9-.7.1-.4.6-1.5 1-2.4.9-1.8 2.1-3.6 1.8-2.8-2 6-2 6.2-1 6.2.7 0 .8-.2 1.6-2 1.6-3.7 3.5-7.4 4.5-8.6.6-.7 3.1-4.7 3.1-4.9 0-.1.2-.3.4-.4.2-.1.4-.3.4-.5s.6-1 1.3-1.8c.7-.8 1.7-2.1 2.3-2.9.6-.8 2.2-3 3.7-4.9 2.7-3.4 3.1-4.2 2.3-4.3-.3-.1-.2-.4.7-1.5 1.1-1.4 1.4-2.2.7-2.2-.3.1-2.1 1.7-4 3.6m274.5-2.7c-.9.2-8.1 3.7-11.4 5.6-7.8 4.6-21.3 17.2-18.3 17.2.3 0 1.2-.7 2-1.4 3.7-3.4 6.7-5.9 8.5-7.2 2.4-1.6 7.6-5.1 9-6l1-.6-.8.7c-.4.4-1.8 1.4-3.1 2.3-2.8 2-3.8 2.8-6.8 5.5-5.7 5.3-7.9 7.5-9.6 9.9-1 1.4-2.3 3.2-3 4-2.1 2.5-8.6 14.2-8.6 15.5 0 1.2 1.5-.8 3.5-4.6 1.1-2.2 3.3-5.4 5.2-7.9 2.8-3.6 7.6-9.3 8.5-10 .6-.5 1.7-1.4 2.5-2.2 2.3-2.1 4.3-3.6 5.5-4.3.6-.4 2.4-1.3 3.8-2.2l3.9-2.2c1.8-.9 4.7-2.8 6.2-3.8.7-.5 1.9-1.2 2.8-1.7 1.8-.9 1.8-.7 1.1-3.9-.6-2.6-.7-2.9-1-2.9.1 0-.4.1-.9.2M190 94.2c-.4.2-1.1.3-1.5.2-3.5-.2-11.7 8.8-13.5 14.7-2.7 8.8-2.3 13.9 1.3 16.2 3.3 2.1 6.6.5 6.4-3.2-.1-2.3-1.3-4-1.9-2.6-.1.2-.2-.4-.3-1.2-.9-6.5 1.5-13.1 6.6-17.8 2.2-2.1 2.5-2.5 1.7-2.5-.3 0 .2-.6 1.2-1.5 2.1-1.9 2.2-3.2 0-2.3m12.1 3.6c-1.1.4-1.2.5-1.3 1.7-.5 4.4-.1 12 1.1 18.6.4 2.2 2.5 8.9 3.6 11.2.5 1.1 1.1 2.6 1.3 3.4.2.8 1 2.9 1.7 4.6.7 1.7 1.6 4.1 2 5.2.7 1.9 1.3 2.6 1.3 1.3-.1-2.4-1.9-9.1-3.9-15.3-2.7-8.1-3.6-13.8-3.6-23.2-.3-8.5-.2-8.2-2.2-7.5m4.9-.1c-1.3 1.3-.9 15.8.6 21.5.3 1 .7 2.8 1 4 .5 1.8.7 2.2 1.1 2.2.4 0 .5-.1.4-.6-.2-.8-.6-4.7-1.1-10.7-.4-4.7-.4-6.6.1-13.5.1-2.9-.8-4.2-2.1-2.9m-66 .4l-2 .2.1 1c.2 2.5-.2 3.1-.9 1.1-.6-1.8-.9-2.2-1.7-1.7-.3.2-.3 1-.1 4.7.1 2.4.2 4.5.1 4.6-.3.3-1.2-2.4-2-5.7-.8-3.4-.7-3.2-3.2-3.4-2.2-.2-2.2-.2-1.8 1.4.1.5.4 2.8.6 5.1.2 2.3.5 4.8.7 5.5.1.7.3 3.6.4 6.3l.1 5-.4-2.1c-.2-1.2-.5-2.4-.5-2.7-.4-2.1-2.3.1-2.5 3l-.1 2.3-.3-1.5c-.4-1.8-.3-1.8-2.1-.3s-1.9 1.8-1.3 10.5c.1 2.3.3 6.5.3 9.3v5.1l1 .7c.6.4 1 .9.9 1-.3.5.8.6 2.4.1l1.7-.5v-2.5c0-4.6.3-5.1.8-1.2l.4 3.4 1.8-.1c1 0 3-.3 4.3-.6 1.4-.3 3-.6 3.7-.6 2.5-.3 2.4-.1 2.4-2.7 0-2.7.4-2.5.6.4.2 1.8.2 1.9.8 1.9 1.5 0 1.8-1.1 2.2-9.6l.2-4.2.3 3.3c.2 1.8.3 4.7.3 6.4v3.1l.7-.2c.4-.1 2.3-.7 4.1-1.4l3.4-1.2v-3.4c0-1.9-.1-5.1-.2-7.2-.2-4.1.1-4.5.6-.9.5 3.4 2.1 1.6 2.1-2.3 0-1.2.1-2 .3-2 .1 0 .3.6.3 1.3 0 1.5.3 1.7 1.3.7 1.3-1.4-.3-9.5-2-10.4-.5-.3-1.4-.9-2-1.3-1.8-1.5-2.1-.5-1.2 4.4.1.6.1 1.1 0 1.1-.2 0-.5-1-1.3-4.3-.8-3.6-1.8-6.8-2.8-9.2-.5-1.3-1-2.5-1-2.8 0-.3-.1-.5-.2-.5s-.2-.2-.2-.5-.5-1.6-1.1-3.1l-1-2.6h-1.3c-.7 0-1.8-.1-2.4-.2-.8-.1-2.3-.1-3.3 0m35.9 1c0 .5.6.4.7-.1.1-.2-.1-.3-.3-.3-.2 0-.4.1-.4.4m-20.2.2c0 .2.4 1.2.8 2.1.5 1 .8 1.9.8 2.1 0 .2.1.3.2.3s.2.2.2.4c0 .5 1.5 1.9 2.2 2.1 1.7.5 2.7 1.9 4.1 5.4.9 2.3 3.5 7.7 3.7 7.8.1 0 .1.2.1.3-.1.1 0 .2.1.2s.2-1 .1-2.3c-.1-3.2.6-8.2 1.7-11.7 2.2-6.9 2-6.3 1.6-6.6-1-.7-6.1-.8-5.9-.1.1.3 0 .3-.4-.1-.5-.5-1.9-.6-1.9-.2 0 .4.7 2.9 1.2 4.2.7 1.8.5 1.6-.6-.6-1.7-3.4-1.7-3.5-5.1-3.6-2.5 0-2.9 0-2.9.3m-68.1 2.2c-1.6 2-2 2.2-1.1.6 1.2-2.3-.4-2.5-2-.3-.6.8-2.5 3.4-4.3 5.8-1.8 2.4-3.2 4.5-3.2 4.6 0 .1 0 .2-.2.3-.1.1-.7 1.6-1.3 3.4-1.2 3.8-1.2 4.4.5 4.1.9-.1 1.1-.3 1.7-1.4.2-.4.3-.3.3.4 0 2 1.5 1.4 2.3-.9.6-1.8 1.8-3.2 1.3-1.7-1.2 4-1.3 3.8 1.3 4l2.1.2.5-1.3c.6-1.7 1-2.1.8-.7-.2 1.4-.1 1.4 2.1.1 1.1-.7 1.7-1.2 1.8-1.6.3-1 1.7-4.5 1.9-4.4.1.1 0 .4-.1.7-.6 1.6-.6 3.1-.1 3.1.7 0 1-.4 1.3-1.7.4-1.6.9-2.1.7-.7l-.2 1.2.8-.2c.4-.1 1.8-.3 3-.4l2.2-.2.6-3.3c.3-1.8.6-3.9.7-4.7l.1-1.4-1.6-.6c-2-.8-2.1-.8-2.5.2-.4.9-.9 1.1-.7.2.1-.3.3-1.1.4-1.6 1.2-5-.5-4.9-3.2.2-1.2 2.4-1.3 1.7-.1-1.1.5-1.2.9-2.3.9-2.5 0-.5-2.3-.2-2.9.4-.6.5-.8.5-.8-.2 0-1.1-1.4-.5-3 1.4m121.8-.9c-.5.6 0 8.8 1 16.5 1 8 1.6 12.6 1.9 16.9.7 8.9 2.1 18.5 3.4 22.3.6 2 1.3 4.4 1.3 4.6 0 .1-.3-.3-.5-.8-.3-.6-1.5-2.9-2.7-5.1-1.2-2.2-2.5-4.9-2.9-6-.4-1.1-1.3-2.9-1.9-4.1-2.1-3.7-5.8-11.4-6.6-13.6-.4-1.2-1.1-3.1-1.6-4.3-1-2.6-1.8-5.8-2.3-9.3-.6-4.5-.9-6.2-1.2-7.5-.4-1.7-1-6.8-1-8 0-1.2-.4-1.3-1.3-.3-.8.9-.5 11 .4 12.4.1.1.2 1.5.4 3.2.3 3.2 1.4 8.5 1.8 9.4.2.3.2.5.1.5s0 .3.2.6c.4.8.4.7-1.6-1.6-.9-1.1-2.3-2.7-3-3.5-.8-.9-2-2.3-2.8-3.3-2.2-2.6-6.5-4.9-6.5-3.4 0 .3.1.6.2.6.5 0 3.6 3.1 4.6 4.6.6.9 2.1 3 3.4 4.7 4.7 6.2 5.4 7.3 6.8 9.6.8 1.3 2.5 4.1 3.9 6.1 1.3 2 3.3 5.1 4.3 6.8 1 1.7 2.4 4.3 3.2 5.6 3.2 5.6 10.1 19.6 11.4 23.1.4 1.1 2 5 3.6 8.8 1.6 3.8 3.3 7.6 3.6 8.5.4.9 1.1 2.1 1.6 2.6 2.2 2.3 10.5 8.5 10.5 7.9 0-.2-1.2-2-1.6-2.3-.3-.2-2.3-4-2.3-4.2 0-.1-1.1-2.5-2.5-5.4-1.4-2.8-2.5-5.3-2.5-5.4 0-.1-.5-1.3-1.1-2.7s-1.1-2.6-1.2-2.8c-.1-.6-.9-2.5-3.9-9.4-3.9-9.2-5.3-14.3-9.9-35.9-1.1-5-1.9-9.9-2.5-14.8-.5-4-1.1-8.3-1.3-9.4-.2-1.2-.5-3.5-.6-5.2-.4-5.7-1.2-8.2-2.3-7m-34.2.1c-.4.1-.5.9-.1.9.2 0 .6-.8.5-.9a.3.3 0 0 0-.4 0m179.4 3.3c-1.4.7-1.4.7 0 2.7 1.3 1.8 1.7 3.1 1.7 5.2s-.3 2.2-1 .5c-.7-1.7-.9-1.9-1.6-1.3-1.2 1.1.6 4.8 2.7 5.5.7.2 2.8-1.1 3.1-1.9.8-1.9-.2-6.5-1.9-9.4-1.3-2-1.5-2.1-3-1.3m-7.3 2.3c-3 1.8-9.9 7.7-11.9 10.4-.8 1.1-2 2.4-3.8 4.3-.4.4-1.5 1.8-2.5 3.1-1.6 2.2-2.8 3.9-7.5 11-1 1.5-2.2 3.8-2.8 5.1-.6 1.4-1.5 3.3-2 4.4-1.9 3.9-4.3 10.6-4.3 11.8 0 1.4 1 .2 3.1-3.9 1.2-2.4 2.8-5.3 3.4-6.4 1.3-2.3 4.7-7.6 5-7.7.1 0 1.3-1.6 2.6-3.5s2.9-3.9 3.5-4.5c1-1 6.7-7.3 6.9-7.7.2-.3 5.9-5.4 7.3-6.6.8-.7 2.4-1.8 3.5-2.6 4.5-3 5.2-4.2 3.1-5.2-.5-.2-.8-.6-.9-.8.3-1.2-1.4-1.9-2.7-1.2m-235.6 1.5l-1.4.1-.2 1.8c-.3 2.8-.6 3.1-.6.6 0-2.1 0-2.2-.6-2.2-1.6 0-2.2 7.6-.9 10.9.9 2.2 1.1 2.3 2.7 1.7l1.2-.5v-1.5c0-1.6.5-1.3.5.4 0 1 2.2 1.4 2.6.4.1-.4.2-.4.6 0 .2.2 1.1.4 1.9.5l1.4.1v-.9c0-.5-.2-3.2-.3-5.9-.3-5.7-.3-5.6-1.7-5.6h-1v1.5c0 3-.6 3.7-.9 1-.3-2.4-.3-2.6-1.1-2.5-.5-.1-1.4 0-2.2.1m-9.9 14.6c-.9.2-1.1.6-1 3.2l.1 2.5-.4-1.6c-.2-.9-.4-2-.5-2.6-.1-.9-.2-1-.9-1h-.8v2c0 2.1-.2 1.9-.6-.8-.1-.8-.3-1-.6-.9-2.7.8-4.9 1.3-6.3 1.6l-1.7.3-.1 3.3-.1 3.3-.5-3c-.6-3.6-.3-3.3-2.8-2.7l-2 .5-.2 2.6c-.1 1.4-.1 3.6-.1 4.7l.1 2.1-.4-2c-.2-1.1-.4-3.1-.6-4.5-.2-2.5-.2-2.6-.7-2.4-.3.1-1 .3-1.6.5-1.2.3-1.4.8-1.4 5.2 0 2.2-.2 2.2-.6-.1-.7-3.6-2 3.3-2 11.1 0 3.1 2 7.9 4.6 10.8.3.4 1.1 1.5 1.8 2.6 1.4 2.2 2.1 2.5 1.8.8-.2-1.1.1-1.3.3-.2.4 2.1 1.7 5.1 2.4 5.3 1.6.6 2.7 0 2.3-1.2-.6-1.6-.6-1.9.1-.6.4.7.8 1.2 1 1.1 1.3-.6 3.2-1.3 4.5-1.7 2.3-.7 2.4-.8 1.9-2.2-.7-2.1-1.5-5.7-1.4-6.9.1-1.1.1-1.1 1 1.5.7 2.2 2.2 5.7 2.5 6 0 0 .4-.1.9-.2.9-.3.9-.3.1-2.8-.4-1.5-.3-1.7.4-.3.3.6.5 1.1.4 1.2-.1.1-.1.2.1.2s.3.2.3.6c.1.8 0 .8 3.2 0 3.9-1 4-1.2 2.8-7-.4-1.7-.6-3.2-.5-3.2.1-.1 1.1 2 1.3 3 .1.6.4.8.9.9 1 .2 1.2 0 1-1.4-.2-1.7.3-1.7.7-.1.3 1.2.3 1.2 1.1 1 .4-.1 1.3-.2 1.8-.3 1.1-.2 1.1 0 .6-3.7-.2-1.5-.5-3.9-.6-5.2-.1-1.4-.6-3.7-1-5.2s-.9-3.1-.9-3.4c-.1-.5-.8-1.1-2.1-2.1-2.2-1.6-3.6-4-4.2-7l-.3-1.6h-1.1c-1-.1-1.7 0-2 0m66.2 2.9c-1.6 1.7-2.8 3.6-3 4.4-.6 2.9 1.6 8.8 3.2 8.8.2 0 .4.3.4.8 0 .9.3 1.1 2.4 1.1 3.1 0 3.1-.1 2.4-4.5-.1-.5.2.2.7 1.6l.9 2.5 1 .1c.8.1 1.1.2 1.6.9 1.3 1.9 2 2.3 3.4 2.1 1.9-.3 2.5-1.3 1.4-2.4-.8-.8-2.2-4.3-2.6-6-.1-.5-.3-1-.5-1.1-4.7-1.4-8-3.9-9.6-7.2-.9-2-.8-2-1.7-1.1m169.4 2.5c-.6.6-1.9 1.6-2.8 2.3-2.1 1.6-2.7 2.7-1 2 2-.9 6.5-.8 6.8.1.2.6 1.1.4 1.4-.2.6-1.2-.2-3.4-1.9-4.6-1-.9-1.1-.9-2.5.4m-277.9 2.4c-.3.1-.8.8-1.2 1.4s-.6 1.1-.6.8c.6-2 .5-2.3-.4-2.3-1.5 0-2.2.9-4.1 4.9-1.4 3-1.5 2.6-.2-.9 1.1-3 1.1-3.3.3-3.3-2.4 0-3.8 2.9-5.9 11.5-.4 1.5-1 4-1.3 5.5-.7 2.7-.7 2.8-.5 11.4.2 10.2-.1 8.8 1.4 8.9.7.1 1.9.3 2.6.6 1.7.5 1.6.9 1.8-3.6.2-3.7.2-3.7.3-1.3.1 5.4.1 5.4 1.4 5.1.8-.1 1-.3 1-.9v-.7l.3.7c.3.7.4.7 1.3.6.6-.1 1.8-.2 2.7-.3l1.7-.2-.1-1.6c-.1-2.9.1-6.2.3-5.1.1.5.3 1 .5 1 .2.1.2.2.1.4-.2.3.3 4.3.6 4.6.1.1 1.3-.3 2.7-.8l2.6-.9.3-1.3.3-1.3v1.1c0 .6.1 1.1.2 1.1s1.1-.3 2.3-.6l2.1-.6 1-1.8c.6-1 1.3-2.3 1.7-3 .4-.6.7-1.3.7-1.4 0-.1.2-.3.4-.5.2-.1.3-.3.2-.3-.1 0 0-.3.3-.8.6-.9.7-1.4.3-2.2-.2-.3-.3-.8-.4-1.2-.1-.4-.2-.8-.4-.9-.1-.1-.2-.2-.2-.3.3-.4-3-6-4.8-8.2-.6-.8-.9-.3-1.1 1.9-.4 3.8-.6 4.6-.6 2.2 0-1.2.1-2.9.2-3.9.5-3.3.5-11.5 0-12s-4.2-1.8-5.3-1.8c-.9 0-1.3.8-2.9 5.5-1 3-1 3-.9 1.5.2-1.8.7-4.4 1.3-5.8.2-.5.4-1.1.4-1.2.2.2-1.8 0-2.4.3M188 132c.2.5.7.6.7.1 0-.2-.2-.4-.4-.4-.3 0-.4.1-.3.3m150.7 1.3c-.6.1-1.5.4-1.8.7-.4.3-1.1.8-1.6 1.1-.5.3-1 .7-1 .9 0 .3-.3.4-.9.4-1.1 0-1.9.4-1.9.9 0 .4.6.7 1.4.7 4.3 0 7.2 4.6 8.3 13.4.8 6 5.2 9.2 10.1 7.4 4.1-1.5 5.4-5 4-10.4-2.5-9.3-10.1-16.2-16.6-15.1M194 137.8c-.6 3.2-.8 3.6-2.2 5.1a44.9 44.9 0 0 1-7.8 6.3c-7.2 4.1-11.9 15.5-9.9 23.8.3 1 .5 2 .6 2.3.9 4.5 9.1 8.4 13.2 6.3 4.4-2.3 6.8-9 4.6-13.3-1.9-4-9.4-5.4-12.8-2.5-.3.2-.5.3-.6.2-.3-.3 2.1-2.4 3.5-3.1 3.2-1.5 4-2.7 3.4-5.1-.8-3.2.1-5.1 3-7.1 4.3-2.8 5.1-3.8 5.5-6.7.1-.9.3-2.1.5-2.6.5-1.6.4-4.7-.2-5-.5-.2-.5 0-.8 1.4m-133 3.7c0 .5-.1.9-.2.9s-.2-.4-.1-.9.2-.9.2-.9.1.4.1.9m268.3.1c-1.7.3-2.1.5-3 1.5-2 2.1-4.6 5.5-5.3 7-.4.8-1.4 2.9-2.3 4.6-1.8 3.7-2.1 4.9-1.3 4.9.4 0 .8-.5 1.6-1.9 2.4-4.1 9.9-11.7 13-13.2 2-1 2.4-2.4.9-2.9-1-.5-1.1-.5-3.6 0m4.6 4c-.4.4-.9.8-1.1.8-.7 0-3.5 2.2-5.8 4.5-1.3 1.3-2.6 2.7-3 3-2.1 1.8-3.1 2.9-3.7 3.8-.4.6-1.4 2.1-2.3 3.4-2.2 3-4 6.1-4 7 0 1.3.8.8 2.4-1.3 5.3-7.5 7-9.3 12.4-13.3 4-3 5.4-3.4 2.3-.7-5.5 4.8-9.9 9.7-12.5 13.7-1.2 1.9-2.6 3.9-3.1 4.6-1 1.3-3.3 5.4-3.4 6.1-.1.2-.5 1.3-1 2.4-1.1 2.4-2.2 5.7-2.5 7.3-.4 2.9 1.5-.2 3.2-5.2.7-2 4-7.9 5.8-10.4 1-1.3 2.4-3.3 3.2-4.4 2.2-3.2 9.3-10.2 11.9-11.7 2.6-1.5 2.8-1.8 3.4-3.8 1.4-4.5-.1-8.1-2.2-5.8m-137.6.7c-.2.1-.4.6-.5 1.1l-.1.9 2.6 1c1.5.6 3.3 1.6 4.2 2.3 3.2 2.4 2.8.4-.6-2.7-2.6-2.3-4.5-3.3-5.6-2.6m-31.4 1c-.5.4-.6.7-.7 4.3-.2 5.7-.6 6.6-.8 2.3-.3-5.4-.4-5.6-1.5-4.5-.5.5-.9.7-1.8.7-.7 0-1.6.2-2.1.3l-.9.3-.1 7.1c-.1 9.7-.5 10.8-.9 2.6-.5-9.6-.7-10.3-2.5-9.4l-.9.4.1 3.8c.1 4.8-.3 5.5-.7 1.3-.5-4.1-.5-4.4-1.1-4.4-.6 0-2.8 1.2-3.8 2.1-1.9 1.7-1.9 1.7-1.8 1.1.2-.8-.2-.7-1.1.2-.4.4-.9.8-1.2.8-.2 0-1 .3-1.6.8-1.2.7-1.2.8-2.3.4-1.3-.5-2-.1-5.3 2.5-.2.1.3 8.3.7 13.8.2 1.9-.4 1.7-.8-.2-.1-.3-.4-1.6-.7-2.7-.3-1.2-.7-3.2-.9-4.6-.8-5.1-1.3-6.3-2.9-7.2-1.5-.9-1.5-.9-1.1 1.3.4 2.7.2 3.2-.4.8-.3-1.2-.6-2.6-.8-3.1l-.3-1-1.5-.1c-1.3-.1-1.7 0-2.5.6-.5.4-1.1.7-1.2.7-.1 0-1.4.5-3 1.1l-2.8 1.1.2.8c.2 1 .4 4.2.3 3.4-.7-2.9-1-3.8-1.2-3.8-.1 0-1.3.5-2.6 1.2l-2.4 1.2.2 1.4c.6 4.7 1.2 10.2 1.2 11.2 0 1.5-1.1-3.7-1.7-8.3-.5-3.7-.6-3.8-2.3-2.7l-1.3.8.1 2.4.1 2.4-.4-1.8c-.5-2.2-.5-2.2-3.8-1.2-1.5.4-2.9.8-3.1.8-1.9 0-2.7 2.8-1.8 6.3 1 3.9 2.3 12.5 1.8 12.2-.1-.1-.3 0-.3.2s-.5-1.4-1.1-3.5c-2-6.6-4.5-11.9-6.3-12.8-1-.5-1-.4-.4 1.6.8 2.5.5 2.4-.6-.3-1.2-2.8-1.9-4-2.3-4-.2 0-.9-.2-1.5-.5s-1.4-.6-1.6-.6c-.2 0-1.2-.5-2.2-1.2-2.6-1.8-3.4-1.5-5.7 1.9-.8 1.2-1.7 2.2-2 2.4l-.6.3.5 1.9c.3 1.1.8 2.4 1.1 3.1.3.6.7 1.6.9 2.1l.4.9-.5-.7c-.7-.9-2.5-4.7-2.9-6-.2-.9-.4-1.1-.9-1.1-1 0-2.5.5-2.5.9 0 1 3.6 10.8 4.9 13.4.2.4.3.7.1.5-.8-.7-5.8-11.7-6.1-13.4-.1-.6-1.8-.6-2.5-.1-.2.1-1.2.3-2.2.3-1.1.1-2 .1-2.1.1-.1 0-.3.6-.4 1.3l-.2 1.2-.3-.9c-.3-.8-1.2-1.5-1.2-.8 0 .2-.1.3-.3.3-.2 0-1 .3-1.9.6-.9.3-2.3.7-3.1.8l-1.5.2.2.8c.3 1.5 2.7 7.2 4.2 10.3.4.7.6 1.2.4 1.1-.9-.9-4.6-8.1-5.3-10.4-.4-1.3-.5-1.4-1.3-1.5-1.1-.1-1.1.4.1 3.8.5 1.4 1 2.8 1 3.1.1.2.5 1.3 1 2.4.5 1.1.9 2 .8 2-.2 0-2.2-4.2-2.2-4.6 0-.2-.3-1.1-.8-2.1s-.9-2.4-1.1-3.2l-.3-1.4-1.1.2c-3.3.5-3.7 2.7-1.8 8.3.4 1.2 1.1 3.2 1.4 4.4 4 13.5 20.7 29.6 31.3 30.3 1.7.1 3.8.3 4.6.5.8.2 1.7.2 2 .1.3-.1 1.9-.2 3.6-.1 3 .1 3.1.1 3.1-.5 0-.4-.2-.6-.5-.6-1.5 0-8.6-3-8.9-3.7 0-.1-.3-.2-.5-.2-.3 0-.4-.1-.1-.3.2-.2.3-.7.3-1.1 0-1.1 6.9-8 9.3-9.2.9-.4 3-1.6 4.7-2.5 5.3-2.9 8.8-4.6 10.9-5.2 1.1-.3 4.3-1.3 7.2-2.2 2.9-.9 6.7-2.1 8.5-2.6 1.8-.5 4.3-1.3 5.6-1.7 2.9-1 13.3-3.7 18.5-4.8 2.1-.4 5-1.1 6.4-1.5 2.7-.8 9.7-1.9 12-1.9 1.4 0 1.4 0 .6-2.2-2.1-5.6 0-17.1 4.7-25.5.7-1.2 1.2-2.3 1.2-2.4 0-.5-2.5-1.9-3.9-2.3-2.2-.5-2.1-.7-2.1 2.3 0 3.7-.7 11.2-1.4 15.3-.6 3.5-.8 3.2-.3-.3.5-3 .8-15.6.5-17.4 0-1.5-.4-1.7-1.3-1.1m28.1 5c-.5 1.3-.5 1.7.2 1.8.3.1 1.3.2 2.2.4 2.8.5 5.4 1.5 8.6 3.3 3.1 1.7 4.1 2 4.1 1.4 0-1.3-8.5-6.4-12.2-7.4-2.2-.6-2.5-.6-2.9.5m-1.3 3.6c-.2.6.2.7 2 .8 1 0 1.7.2 1.9.4.2.2 1 .7 1.8 1 1.9.7 1.8.9-.2.4-.8-.2-2.4-.4-3.5-.5l-2-.2.1.8c.1.8.1.8 3.1 1.2 4.2.6 5 1 2.2 1-5.1 0-6.2.8-1.7 1.3 5.2.6 9.4 2 15.7 5.2 2.1 1.1 3.8 1.9 3.9 1.9.5 0-.1-.9-1.1-1.7-.7-.6-1.3-1.1-1.4-1.3-.8-1.3-4.6-4.3-7.9-6.2-4.4-2.7-12.4-5.2-12.9-4.1m99.8 4.4c0 .4.1.8.3.8.1 0 .3-.4.3-.8s-.1-.8-.3-.8c-.2 0-.3.4-.3.8m-97.6 2.3c-1.5.4-1 1.4.8 1.4 3.7 0 9.1 3 17.8 9.8 5.6 4.4 8.4 7.1 9.9 9.7 1.5 2.5 1.7 2.7 1 .6-.3-.8-.5-1.5-.5-1.5-.4-2.6-3.3-7.3-5-8.2-.3-.2-1.5-1.1-2.8-2-7.4-5.8-18.1-10.7-21.2-9.8m90.1 37.5c0 13.5-.1 14.5-1.2 14.9-.9.3-.7.6-1.7-3.4-.4-1.5-.8-4.2-1.1-6-.2-1.8-.6-4.5-.8-6-.6-4.1-.4-6 .6-9.4.4-1.3.4-1.4 1.6-1.5.7-.1 1.3-.2 1.5-.3 1.1-.3 1.1-.4 1.1 11.7m-89.4-7.1c-.1.1-2.3.2-4.8.2-3.4 0-5 .1-6.1.5-.8.2-2.2.6-3 .7-5.2 1-8.3 2.2-11.3 4.1-.9.5-1.8 1.1-2.1 1.3-2 1.1-2.7 1.8-2.4 2.4 0 .1-.8.3-1.8.5-3.8.6-6.9 3.9-6.9 7.2 0 .4-.9 1.9-2.7 4.2l-3.8 5.1c-1 1.5-1.2 1.6-2.5 1.9-2.7.6-4.1 2.5-3.8 5.2l.2 1.6-1.8 2.7c-4.1 6.2-4.5 6.7-5.5 7.2-2.2 1-4 3.5-4 5.5 0 1.6-3.1 5.7-4.9 6.6-2.3 1.1-3 2.1-3 4.4 0 1-.3 1.6-2.9 5.4-29 43.2-32.1 51.3-23.2 60.1 3.7 3.7 5.4 4.3 11.5 4 7.7-.4 16.3-4.9 20.3-10.7 3.6-5.2 8.7-8.4 12.4-7.8 1.2.2 1.3-.2.2-.6-1.3-.5-5.9.6-8.2 1.9-2.7 1.5-10.4 9.3-10 10.2.1.2 0 .6-.2.8-.3.4-.4.4-.2-.8.1-.9.1-1.2-.1-1.2-.5 0-1.8.9-1.8 1.2 0 .2-.2.4-.4.5-.2.1-.4.5-.5.8-.1.4-.5 1.1-.8 1.5l-.7.8.7-1.2c.9-1.7.8-2.4-.3-1.5-2.6 2.3-3.6 3.1-4.4 3.5-.5.2-.7.3-.4.1 2.5-2.1 2.6-2.3.4-1.7-.9.2-2 .8-3 1.6-1.8 1.4-2.7 1.6-1.5.4 1.1-1.2 1.1-1.3-.4-.7-1.7.6-3.6 1.1-4.9 1.2-.6 0-.8 0-.6-.1.3-.1.5-.2.5-.3 0-.1.4-.3.8-.4 1.6-.3.9-.7-.9-.6-2.8.3-3.8.2-4.5-.3-.5-.4-.4-.4.6-.2 2.2.3 4.6-.4 2.8-.8-3.3-.7-4.6-1.4-5.8-3l-.7-.9 1.1.9c2 1.7 6.4 2.6 6.4 1.3 0-.1-.2-.3-.5-.3s-.9-.2-1.5-.4c-1-.3-1-.3.9-.2 2.9.2 2.6-.5-.5-1.2-2.1-.5-2.5-.7-3.5-1.7l-1.1-1.1 1.2.8c2 1.4 5.3 2.1 6.5 1.2.5-.4.5-.4-.4-.4h-.9l1-.3c1.7-.5 1.3-1-1.2-1.5a9 9 0 0 1-2.9-.9l-.6-.5.7.2c.8.3 4.9.3 5.8 0 1.4-.4.7-.7-1.6-.8h-2.3l2.2-.2c1.7-.1 2.3-.3 2.7-.7.6-.6.7-.6-1.8-1.2l-1.6-.4h2c2 0 3.6-.6 2.6-.9-.2-.1-.6-.2-.8-.3-.2-.1 0-.1.4-.2 1.9 0 1.1-.7-1-.9-3.1-.2-3.2-.6-.2-.6 1.9 0 2.8-.2 3.3-.5 1-.7.8-.9-.9-.8l-1.5.1 1.4-.4c1.6-.5 2.7-1 3.2-1.6.5-.6.2-.7-.6-.4-.8.3-2.8.3-4 0-.7-.2 2-.4 3.3-.3.6.1 2.6-1 2.6-1.3 0-.1-.4-.3-1-.4-2.5-.4-2.6-.6-.3-.6 1.7 0 2.4-.1 2.7-.4.6-.6.5-.7-.3-.6-2.2.2-2.8-.1-1-.4 2.9-.5 4.4-1.7 1.7-1.3-2 .3-1.6-.1.5-.4 2.3-.4 2.5-.9.2-.9-.9 0-1.3 0-.9-.1 1.3-.2 3.5-.9 3.5-1.2 0-.1-.7-.2-1.5-.3-2.9 0-2.9-.4-.1-.6 3.4-.2 3.9-.5 1.6-1l-1.2-.2h1.6c3-.1 4.1-1 1.3-1.1l-1.6-.1 2-.1c2.8-.1 4.9-1.7 2.4-1.8-1.2 0-3.6-.7-4.5-1.3-.7-.4-.5-.4 1.3.3 1.1.4 3.1.5 3.1.1 0-.1-.3-.3-.6-.4s.3 0 1.4 0c1.8.1 2 .1 2-.3 0-.3-.2-.4-.7-.4-.4 0-1.1-.2-1.5-.3-.7-.3-.7-.3.8-.2 3.2.2 4-.4 1.1-.9-2.4-.4-4.4-1.4-4.4-2.2 0-.1.3 0 .6.3.8.8 1.6 1 4.1 1.2 2.5.2 2.6-.1.2-.7-2-.6-2.2-1-.2-.5.9.2 2 .3 2.4.3l.8-.1-.7-.3c-.6-.3-.6-.3.3-.2.9.1 2.1-.2 2.1-.7 0-.1-.5-.3-1-.4-1.7-.3-1.4-.6.4-.5 1.2.1 1.7 0 1.7-.2s-.2-.3-.3-.3c-.8 0-3.1-1.4-3.7-2.3l-.7-.9 1.2.9c1.3 1 2.4 1.4 3.8 1.5 1.4.1 1.2-.4-.4-1.1-1.9-.8-1.7-.9.3-.2 1.2.4 1.8.5 2.3.3.9-.3 1.1-.9.3-.9-1 0-3.3-1.2-3.9-2.1-.6-.9-.4-.9.9.2 1.4 1 4.5 1.5 5.7.9.8-.4.6-.8-.2-.7-.4.1-.9 0-1.1-.1-.3-.2-.1-.3.6-.3.5 0 1-.1 1-.3 0-.1-.2-.3-.4-.3-2.1 0-1.3-.7.9-.8l2.5-.1-1.6-.6c-1.9-.7-2-1-.2-.4 1.5.5 3.2.5 3.4.1.2-.3-.3-.7-1-.8-2.1 0-5.6-2.6-7-5.2-1-1.9-1.1-2.4-.1-.8 2.1 3.4 7.8 6.2 10.2 5.2.8-.4.7-1-.1-1-1.2 0-3.6-1.5-4.6-2.9l-.6-.8 1.6 1c2.3 1.5 5.5 2.3 5.5 1.4 0-.2-.2-.4-.4-.4-.4 0-2.7-1.2-2.7-1.4 0-.1.6.1 1.2.4 1.6.6 3.5 1 3.5.6 0-.2-.5-.4-1.1-.6-1.1-.3-3-1.8-3.5-2.7-.3-.5-.2-.5.6.1 1 .8 2.9 1.5 4.8 1.7 1.5.2 1.7-.2.3-.8-1-.4-.5-.4 1 0 .7.2.6-.4-.1-.6-2-.6-4.3-3.4-5.2-6.1-.7-2.3-.5-2.4.4-.3 1.6 3.9 5.7 7 7.8 5.9 1-.5 1-.9.1-1.2a7.8 7.8 0 0 1-2.7-2.4c-.2-.5-.2-.4.5.1 2.1 1.5 4.4 2 5.4 1.2.3-.2.4-.4.4-.5-.1-.1-.8-.5-1.5-1-.8-.5-1.9-1.5-2.5-2.3-2-2.6-1.9-2.6.9-.1 1.6 1.4 3.7 2.5 4.7 2.4 1.1-.1 1.1-.5.2-1.1-1-.6-2.6-2.6-2.7-3.2-.1-.3-.2-.8-.3-1.2-.1-.6 0-.5.6.6 1.3 2.2 5.3 4.8 5.3 3.4 0-.2-.2-.4-.3-.4-.2 0-.6-.3-1-.7l-.6-.7.8.6c1 .7 2.2.9 2.7.6.4-.3.4-.4-1.5-1.5-.5-.3-1.3-1-1.6-1.4-.6-.8-.6-.7.5.2 1.9 1.7 3.7 2.3 4.8 1.7.5-.3.4-.3-.6-1-1.3-.8-1.4-1-2.4-2.8l-.5-.8 1.1 1.3c1.3 1.5 2.6 2.4 4 2.7 1.3.4 1.4 0 .3-.7-1.1-.7-1.2-1-.1-.4.9.5 2.4.5 2.4.1 0-.1-.1-.3-.3-.3-1.3 0-3.4-3.3-3.6-5.6l-.1-1.6.3 1.5c.7 2.8 4.7 6.2 6.2 5.2.4-.3.5-.2-1.1-1.1-1.7-1-2.2-1.7-.6-.8 1.4.7 4.1 1.2 4.4.7.1-.1-.4-.8-1-1.5-2.2-2.3-3.3-5.8-2.8-8.6l.3-1.4v1.7c.1 3.7 5 10.3 6.2 8.4.1-.2-.1-.6-.4-.9-.7-.8-.5-.8.6-.1 1.3 1 2.3.2 1.4-1.1-.4-.7-1.2-3.4-1.2-4.2 0-.3.6.6 1.2 2 1.5 3.2 3.4 3.8 2.7.8-.4-1.7-.3-1.9.2-.4s.5 1.5 1.7 1.2c.8-.2.8-.4.3-2-.2-.7-.4-2.1-.5-3.1-.1-1.1-.1-1.6 0-1.3.3 1.5 1.8 5.5 2 5.5.8 0 1.5-.4 1.5-.7 0-.3.1-.3.2-.1.2.4.7.4 1.1 0 .2-.2.2-.8-.1-1.8-.2-.8-.3-1.5-.2-1.5.2-.2.3.3.5 1.6.3 2 2.7 2.1 2.6.1l-.1-1 .4.9c.5 1 .3 1 2.2.4 1.4-.4 1.6-.5 1.4-1-.8-2.6-1.4-5.6-1.5-7.2l-.1-2 .3 2.1c.7 4.1 1.7 7.2 2.4 7.2 1.7 0 1.9-.3 2-2.8v-2.3l.4 2.2.4 2.2 1.5-.2c2.8-.3 2.7-.2 2.7-2.9v-2.4l.4 1.7c.2.9.4 2 .5 2.3.1.7 1.8.9 2.5.3.5-.4 1.3-2.8 1.3-3.8 0-.4.1-.6.2-.5.1.1.1 1 .1 2.1v2h1.2c3.3-.1 3.8-.8 3.8-5.5v-3l.4 1.4c.2.9.3 2.4.3 4l-.1 2.5.8-.1c2.4-.4 4.1-1.9 5-4.5l.4-1-.1 1.5c-.1.8-.3 1.8-.5 2.3-.5.9-.4 1.1.9 1.1.5 0 1.5.1 2.1.3 1.6.4 2.5-.9 3-4.1.1-.9.2-1 .4-.5.3.9.3 2.7-.1 3.7-.5 1.3-.5 1.3.6 1.5 2 .3 2.9-1.2 3.1-5.1.2-2.7.5-3 .7-.7.2 1.7 0 3.8-.5 5.3-.3.9-.3 1 .4 1.1.4.1.9.2 1.1.3.3.1.6-.2 1-.9.8-1.4.9-1.3.7.2l-.2 1.3 1.2.3c.7.2 1.4.4 1.6.4.8.2 1.7-2.8 1.9-6.4.1-3.2.2-3.3.4-1.8.4 2.6.3 5.6-.2 7.1-.8 2.3.2 2.8 1.1.6.7-1.6.9-1.6.6.1-.5 2.3 0 2.5 1.3.4 1.3-2 2-3.6 2.2-5.4.1-1.1.2-1.4.4-1 .6 1.6-.1 4.6-1.6 7.1-.6 1-.7 1.3-.5 1.5.6.4.9.2 1.8-.8.9-1.1 1.3-.5.4.6-.5.7-.5 1.4.1 1.6.4.1.7 0 .9-.3.7-.9 2.3-3.8 2.6-4.9l.4-1.1-.2 1.4c-.1.8-.5 2.4-.9 3.7-.4 1.2-.7 2.2-.7 2.3 2.1 1.7 3.7.9 5.8-2.8 1.3-2.3 1-.9-.4 2.2-1.4 3-1 3.4 1.3 1.2 1.2-1.2 1.2-.7 0 .9-.4.6-.7 1-.7 1.1.3.3 1.3.7 1.6.7.7 0 3.5-4.6 3.9-6.3.2-.7.2-.5.1.7-.1 1.3-.3 2-1.3 3.9-1.5 2.7-1.5 2.7 0 3.7l1.2.8 1.2-1.4c.7-.7 1.5-1.9 1.8-2.7.3-.7.7-1.3.7-1.2.2.2-.8 3.4-1.6 4.9-1.2 2.2-.2 2.2 1.4.1.8-1.1.7-.2-.1 1-1.6 2.4 1.7 1.5 3.7-1 .4-.5.7-.7.7-.6 0 .6-.9 1.8-2 2.8-1.5 1.3-1.4 1.7.6 1.5 1.8-.2 3.5-1.2 4.6-2.6.8-1.1.8-1.1.6-.3-.3 1.1-2 3-3.2 3.7-1.4.7-1.4.7.2 1.7 1.8 1.2 3.3.4 5-2.5.9-1.6 1-1.5.1.5-.3.8-1.1 1.9-1.6 2.5-1 1.2-1 1.1.2 1.9.2.1.8.2 1.2.1.7-.1.7-.1.2.2-1.2 1 .5 1.6 1.9.7 1.3-.8 1.4-.6.2.2l-1 .7 1.1.1c1.7.1 3.5-1.4 4-3.4l.2-.8v.9c0 1.6-2 4.7-3.1 4.7-.4 0-.3.7.3 1.2.5.5 2.2.5 3.3 0 .8-.4.4.4-.6 1-.9.6-1.1 1.2-.4 1.2.5 0 1.8-.6 2.7-1.2.4-.2.1.1-.6.8-1.5 1.5-1.5 1.5-.4 1.5 1.5 0 3.2-1.3 3.7-2.8.2-.7.2-.7.1.3-.2 1.3-1.2 2.9-2.2 3.3-1.9.8-.3 1.4 1.9.6l1.1-.4-.6.5c-.3.3-.8.5-1 .5-.2 0-.4.2-.4.4 0 .3.2.4.9.3 2.7-.4 4.2-2.2 3.9-4.6-.1-1.1-.1-1.3.1-1 1.1 1.9-.8 6.2-3 6.9-.6.2-.6.8 0 1.1.6.3 2.9-.7 3.8-1.7.8-.8.8-.5 0 .6-.3.5-1.1 1.2-1.6 1.4-1.2.7-1.2 1 .1.8 2.9-.4 4.4-3.4 3.3-6.6-.2-.6-.2-.9-.1-.7 1.8 1.8.6 6.8-1.8 8.1-.5.3-1 .5-1.1.6-.1 0 0 .2.2.5.5.6 1.1.5 2.3-.4 1.4-1 1.5-.4 0 .9-.9.8-1 1-.7 1.2.9.8 3.4-1.3 3.7-3.1.1-.5.2-1.3.3-1.6l.1-.7.2.8c.6 1.9-.8 4.7-2.4 5.3-.6.2-.7.8-.1 1 .6.2 2.2-.3 3.1-1.1.7-.6.8-.6.5-.1-.3.6-1.8 1.9-2.2 1.9-.5 0-.2.7.6 1.5 1.1 1 1.2 1 2.1.1 1.1-1.2 1.6-2.4 1.8-4.3l.1-1.7.2 1.6c.4 2.5-1.3 6-3 6.6-.9.3-.6.7.5.7.6 0 1.5-.3 2.1-.6 1.5-.8 1.1-.3-.4.7-1.7 1.1-7.3.8-8.7-.4-.4-.4-1.1-.6-1.1-.3s1.9 1.8 3 2.4c.6.3 1 .6.8.6-.4 0-3.3-1.8-4.1-2.5-.8-.7-4.2-2-4.4-1.6-.1.1.5.8 1.2 1.5 1.6 1.6 1.1 1.7-.6.2-2.2-1.9-3-2.5-4.2-2.8-1.6-.4-1.6-.2-.3 1.1.9.8 1 .9.4.6-.4-.3-1.4-.9-2.2-1.3-2.7-1.6-5.8-1.8-10-.5-3.7 1.1-3.4 1.7.7 1.1 3-.4 11.6 1.5 18.1 4 1.5.6 6.2 1.1 6 .6-.1-.1.5-.2 1.5-.1 3.7.2 7.4-1.5 8.6-4.1 2.7-5.7-1.7-14.5-13.4-26.6-2.9-3-5.9-6.2-6.8-7.2-7.6-8.7-9.2-10.8-9.2-11.2 0-1.5-1.9-3.6-3.7-4-.4-.1-1.8-1.2-3.1-2.6-1.3-1.3-3.8-3.7-5.5-5.3-1.7-1.6-5.1-5-7.6-7.7-2.5-2.6-5.2-5.2-5.9-5.7-.7-.5-2.9-2.2-4.9-3.8-3.7-3.1-4.4-3.6-11.2-7.2l-4.3-2.3-.8 1c-1 1.2-3.3 1.6-4.5.8-.9-.6-.8-1 .1-.6 1.7.6 4.2-.9 4.2-2.5 0-2.6-4.5-4.8-6.9-3.3l-.9.5-2.2-1.3c-1.2-.7-2.7-1.5-3.2-1.8-.6-.3-1.7-1.1-2.4-1.8-1.7-1.6-2.9-2.1-5.5-2.2-1.2 0-2.9-.2-3.8-.3-1.9-.9-4.7-1.1-4.9-.9m-3.3 1.6c1.5.8 1.2 3-.6 4.3-2.9 2.2-9.9-.2-7.4-2.5.4-.4.5-.4.5.3.2 2.9 6.9 1.8 6.8-1v-1.3c.2 0 .4.1.7.2m9.8 3.2c-.7 1.1 2.3 3.1 4.6 3.2 1.7 0 2-.2 2.6-1.4l.5-1.1.4 1c1.5 3.5-5.4 5-8.1 1.7-.8-1-.8-3.7 0-3.7.1 0 .1.1 0 .3m-66.4 3.1c0 1.8-.8 7.1-1.1 7.1-.1 0-.2-1.8-.3-4-.1-4.7 0-4.5-1.8-4l-1.4.4.1 1.9c0 1.1 0 2.2-.1 2.6l-.2.7-.2-.6a14 14 0 0 1-.5-2.3c-.3-1.9-.4-1.9-2-1.2-1.2.5-1.2.4-.9 3.3.1 1 .1 1.8 0 1.8s-.2-.4-.2-.9c0-3.4-.2-3.6-2.5-2.5l-1.1.5.2 1.5c.2 1.8-.3 2.2-.6.4-.2-1.5-.3-1.5-2.9.7l-2.2 1.9v1.6c0 1.5-.1 1.5-.1.3-.1-1.6-.3-1.6-3.1 1l-2.3 2.1.2 1.4c.1.8.1 1.5 0 1.7-.3.5-.9-.2-.9-1.1 0-1-.2-1-1.4.2l-1 1v3c0 2.3-.1 2.8-.3 2.2-.4-1.4-1.9-2.7-3.1-2.6-1.3.1-1.4.8-.2 2.1.8.9.9 1.2.8 2-.1.6 0 1.5.2 2.2.6 1.8.8 4.1.8 10.4 0 4.2.1 5.9.3 6.1.5.5.6.2.8-2l.2-2.1v2.3c0 1.7.1 2.3.4 2.2.6-.2 1-2.2 1.2-6.2.2-3.8.2-4 .4-2.7.2.7.4 1.4.5 1.6.1.1.2.4.2.7 0 .4.1.5 1.4.3 1.7-.2 1.6 0 2.3-3.1.8-3.6.9-3.6 1.2.1.2 2.6 0 2.4 2 2.6 1.8.1 1.8.1 2.1-2.1l.2-1.4v3.4l1.1.1c.6.1 1.4.2 1.7.3.8.3 1.4-.5 2.3-2.7 1.5-3.5 2.2-3.8 1.5-.6-.5 2.8-.5 3.9.2 4.2.6.3.5.4 1.3-.9l.6-1-.2 1c-.1.6-.2 1.1-.2 1.3 0 .1.2.3.5.4.6.2 2.5-2.1 4.5-5.7.3-.6 1.6-2.5 2.8-4.3 2.1-3.3 5.8-9.9 5.5-10.2-.1-.1-.5.3-.9.8-1 1-.7.2.4-1.3.3-.5.6-.9.6-1.1 0-.1.3-.9.8-1.7 1.1-2.1 1.5-7 .5-7-.1 0-.2.2-.2.3 0 .4-.9 2.2-3 6l-1.2 2.2.1-1.3c.1-.7 1-3.7 2-6.7 2.3-6.7 2.3-7.7.4-7.9-.8-.1-.8-.1-1 1.4-.3 2.5-2.5 9.4-3.1 9.8-.1.1-.1-.2 0-.6.4-1.2 1-6.5 1-8.7v-2.1h-3.2l.1 1.5m58.4 1.4c.1.6-1.1 1.2-1.6.8-.5-.4-.3-.7.5-1.1.6-.3 1-.2 1.1.3m-25.1 1.8c2 2.1 2.1 2.5.9 4.9-1.6 3.3-5.1 6.6-6.9 6.8-.8.1-1.2 0-.9 0 .9-.2.7-.6-.3-.6-.6 0-.9.1-.8.3.1.1 0 .3-.2.3-.4 0-1-.8-1.3-1.6-.1-.4 0-.4.7-.2 4.1 1.2 9.8-4.8 8.4-8.9-.5-1.4-.8-1.8-1.5-2.1-.5-.2-.5-.2 0-.2.2-.3 1 .4 1.9 1.3m125-.7c1.4 1.5 1.8 6.4.7 7.5-.4.4-3.2 1-3.7.8-.2-.1-.6-.3-.9-.4-.5-.1-.5-1.2-.1-2.3.1-.2.3-1.6.6-3.1.5-3.8 1.5-4.5 3.4-2.5m-109.3.2c0 1.3-2.1 2.4-2.6 1.4-.3-.6 0-1.2 1.1-1.5 1.2-.6 1.5-.5 1.5.1m68.1 2.8c-.1.1-.3-.4-.6-1-.7-1.8-.7-2 0-.5.4.7.7 1.4.6 1.5m102.9 1.9c-4.6.6-8.4 4.9-7.1 8.2.5 1.3 1 .9 1.1-1 .3-5.2 8.7-7.5 12.1-3.3.5.6.9 1.2.9 1.3-.1 2.6-.8 4.9-1.8 6.2-1.8 2.3-2.2 2.5-1.3.8 1.2-2.4.9-3.2-.4-1.3-1.2 1.6-4.7 3.8-8 4.9-6.4 2.1-8.3 2.5-12.3 3-2.9.3-3.6.4-6.4.9-1.2.2-3.3.5-4.9.6-5.2.5-10.4 4.2-13.3 9.2l-.9 1.6.4 1.3c2 6.2 2.7 7.3 3.2 5.3 1.7-6.4 11.8-13.5 20.5-14.6 1.9-.2 3.2-.5 7.4-1.5 1.5-.4 5-1.4 10.4-3.1 1.9-.6 4.5-2.2 6-3.7s1.8-1.6.9-.1c-2.8 4.4-7.8 6.8-18.8 9-6.5 1.3-10.7 2.9-13.9 5.4-5 3.8-7.8 7.4-8.5 11-.1.4-.3 1.9-.6 3.2-.3 1.9-.4 2.6-.1 3.1.5 1.1.9.5 1.1-1.7.4-5 1.6-7.6 4.9-10.8 4.3-4.2 7.5-6.2 11.3-7 1.1-.2 2-.5 2.1-.5.1-.1 1.6-.4 3.2-.6 2.6-.4 6.1-1.1 11.2-2.1 8.9-1.8 15.6-12.4 12.2-19.2-1.6-3.6-5.5-5.2-10.6-4.5m-156.3 2.5c0 .8-1.6 1.9-2.7 1.9-1.7 0-3.1-1.3-2.5-2.4.4-.7.7-.7 1.2.3.6 1.3 3 .7 3-.7 0-.3.1-.3.5.1.3.2.5.6.5.8m-16 .5c0 .4-1 .8-1.2.6-.1-.1-.1-.3 0-.5.2-.6 1.2-.6 1.2-.1m-62.8 7.9c-.1 3-.3 5.9-.4 6.4-.2.8-1.8 2.7-1.8 2.1 0-.1-.4-.4-.9-.5-2.3-.9-2.6-8.6-.4-10.5.6-.6 1-1.1 1-1.5 0-.5.1-.6.5-.5.7.2 1.6-1.4 1.6-2.7 0-1 0-1 .3.3.1.8.2 3.8.1 6.9m64.7-5.2c.1.1 0 .4-.1.6-.3.5-1.1.1-.9-.4.2-.4.8-.6 1-.2m-10.4 2.1c.1.2-.1.4-.4.6-.6.3-1.9.1-1.9-.4 0-.6 2.1-.8 2.3-.2m7.4 2.1c0 .1-.2.3-.4.3s-.4-.1-.4-.3c0-.1.2-.3.4-.3.3.1.4.2.4.3m39.5 4c.8.4 2 .1 2-.4 0-.3.7-.9 1.2-.9s-.1 2.2-.7 2.7c-2.4 1.8-6.7-1.1-4.6-3.1l.6-.6.4 1c.2.6.7 1.2 1.1 1.3m66.7 1.7c1.6 3.7 4.6 9.4 5.6 10.7.4.5 1.5 2 2.4 3.1 2.2 3 4.5 5.1 8.1 7.4l3.1 2 .5 2.5c.8 4.4.1 9.1-1.6 10.5-1.7 1.4-7.2-1.8-11.1-6.4-1.1-1.3-2.4-2.7-2.7-3.1-2.2-2.1-5-7.8-6.3-12.8-.3-1.2-.7-2.4-.8-2.7-.9-2.3-3-11.5-2.6-11.8.7-.6 3.8-2.5 4-2.4.1.1.7 1.4 1.4 3m-52.2-2.1c.1.6-.4 1-.9.8-.4-.1-.5-.9-.2-1.2.4-.4 1-.1 1.1.4m-27.7.8c.9.5 1.3 1.1 1.3 2.1 0 3.8-9.3 5.6-12.6 2.5-1.1-1-1-4.4.1-4 .3.1.4.4.3.9-.6 3 7 3.9 9.8 1.3.6-.6.8-2.1.3-2.4-.9-.7-.2-.9.8-.4m-46.1.5c1.9 1.8-1 5.4-4.1 5-1-.1-1.2-.7-.2-.7 1.7 0 4-2.5 3.5-3.8-.4-.9 0-1.2.8-.5m24.9 1.8c-.3.9-.9 1.4-1.8 1.6-1.4.3-1.6-.1-.4-.7.6-.3 1.2-.8 1.4-1 .5-.8 1.1-.7.8.1m50.3 1.6c0 .2-.2.4-.4.4s-.4-.2-.4-.4.2-.4.4-.4.4.2.4.4m-58.8 2.1c.3.3.7.6.9.5.5-.3 1.1 1.8.9 3.1-.9 5-12.4 7.9-12.4 3.1v-1.2l.9.9c2.7 2.6 10.1-.3 10.1-4 0-1.3-.1-1.4-1.4-2.6-1.2-1.2-1.3-1.2-.5-.8.4.2 1.1.7 1.5 1m39.6.5c.9-.2 1.5.5.8 1-.5.3-2.3 0-2.9-.5-.7-.6-.6-.9.4-.6.4.2 1.2.2 1.7.1m-72.1 3.1c.4.4.4 1.7 0 1.9-.5.3-1.5-.1-1.7-.8-.3-1.1.9-1.9 1.7-1.1m42.8 1.5c0 1.1-2.1 2.2-3.2 1.8-.2-.1-.1-.1.2-.2.7 0 2.5-1.6 2.5-2.2 0-.3.1-.5.3-.5 0 .1.2.5.2 1.1m62.6 1.9c2.1 1.4 4.8 1.5 4.8.3 0-.2.1-.4.3-.4.5 0 .3 1.3-.3 1.8-1.3 1.2-3.4.4-5.9-2.1-.9-.9-1.2-1.4-.8-1 .4.4 1.3 1 1.9 1.4m-163.2-.9c1.2 2.9 2.9 8.9 2.7 9.4-.1.2-.1.1-.1-.1-.1-2-3.8-9.4-4.7-9.4-2.6 0-2.7 1.2-.5 5.9 3.6 7.6 5 18.9 3 24.4-.2.6-.6 1.7-.8 2.4-.6 1.9-3.4 7.4-4.6 9.1-.6.8-2.4 3.3-4.1 5.5-1.6 2.2-3.5 4.6-4.2 5.4-1.8 2-1.1 2.1.8.1 5.3-5.7 9.8-11.6 12.1-16 1-1.9 1.7-3.3 1.6-3.1-.1.3-.2.8-.3 1.2-.8 3.8-6.1 14.1-9 17.8-.5.6-.9 1.2-.9 1.3 0 .1-.2.3-.4.5-.3.2-.3.4-.2.5.3.2 2-1.9 5-6 1.3-1.7 5.4-9.6 6.3-12 .3-.8.6-1.5.7-1.4.2.2-1.6 5.1-2.2 6.4-1.4 2.7-.9 2.9.8.3 1.5-2.4 2.5-4.4 3.2-6.5.3-.9.6-1.5.6-1.2 0 .8-1.7 5.8-3 8.3-1.3 2.6-1.4 3.1-.9 3.1.6 0 4.4-7 4.8-8.7.2-.9 1.2-3.4 1.6-3.7.2-.2.5-.8.6-1.4.4-1.5.2 2.9-.3 4.8-.4 1.5-.1 2.2.8 1.7.7-.5 1.9-3 2.1-4.5.1-1.1.3-1.4.5-1.2.2.1.6.2 1 .3 1.1.3 0 3.7-2.4 7.3-.6 1-.6 1-.2 1.5 1 1 2.2.1 4.6-3.7.5-.7.9-1.3 1.1-1.3.1 0 .6-.5 1-1.1 1.1-1.5 1-.9-.4 1.8-2.1 4.1-1.8 6 .4 2.9.6-.9 2.1-2.8 3.2-4.2 10.1-13.3 13.2-18.1 13.6-20.9.1-1.1.5-3.4.8-5 .7-4.1.7-4.7-.6-5.3-1.3-.6-1.2-.7-1.9 2.4-.3 1.4-.6 2.1-.5 1.5.4-3.6.5-4.9.2-4.9-.2 0-.5-.1-.7-.2-.3-.1-.4 0-.4.5s-.1.5-.2-.2c-.2-1.1-1.3-1.3-1.5-.2-.4 1.9-.6 2.1-.6.7 0-1.6-.1-1.7-1.2-1.3-.8.4-1 .8-2.1 6.8-.2 1.3-.8 3.6-1.3 5.1-.5 1.5-1.2 4.2-1.6 5.9l-.9 3-.2-6c-.2-6.2-.7-8.5-1-4.8l-.1 1.6-.1-1.6c-.2-2-.4-2.2-1.6-1.9-1.1.3-1 .2-1 2.7.1 4.7-.8 10.3-2 12.1-.2.3-.4 1-.5 1.6-.7 4.8-.8 4.4-1-3.7-.2-10.2-.7-13.9-2.3-20.7-.5-2.1-3.8-3.9-3.5-1.9.1.8.1.8-.5-.3-.6-1.2-2.3-2-1.9-.9.1.4.1.3-.3-.1-.3-.4-.9-.7-1.6-.8l-1.1-.2.6 1.4c1 2.5 1.6 4 1.5 4.2 0 .1-.6-1.1-1.4-2.6-1.1-2.2-1.5-2.8-2-2.8-.5-.1-.6 0-.4.4m72 1.5c0 .7-.1.9-.5 1.1-.7.2-1.1-.1-1-.7.2-1.6 1.5-1.9 1.5-.4m-5.9.8c0 .3-.2.5-.6.6-.7.1-1.1-.7-.6-1 .6-.4 1.2-.2 1.2.4m-11.8 2.8c.7.9-.2 3.6-2.1 6.2-1.6 2.1-2.9 2.6-4.1 1.7l-.6-.5 1-.5c2.4-1.1 5.2-4.5 5.2-6.3 0-1 .2-1.1.6-.6m18.2 1.8c0 .1-.2.2-.4.2-.4 0-.5-.3-.2-.6.2-.2.6.1.6.4m107.6 2.3c.9.7 2 1.5 2.5 1.7.8.3.9.3.5.7-.8.8-5.4-2.8-5.4-4.3 0-.2.1-.1 2.4 1.9m-47.5 6c-.6.7-1 1.3-.9 1.4.1.1 2.4-2.1 2.5-2.4 0-.5-.6-.1-1.6 1m12-1c-4.4 1.3-10.1 7.7-11.8 13.1-.6 1.9-1.1 7.8-1 10.5.1 1.9.1 2-.2 1-1.1-3.1-1-8.9.3-12.4 1.2-3.5 3.5-8.3 4.7-9.7 1.1-1.4.9-2.1-.2-.8-3.6 4-7.2 12.3-7.7 17.8l-.2 2.8v-2.5c-.1-4.8 1.2-9.3 4.1-14.2 1.2-2.2 1.3-2.3.9-2.3s-2.2 2.6-3.8 5.4c-2.7 4.9-3.7 8.9-3.5 13.1l.1 2.1-.6-2.5a23 23 0 0 1 .6-14.2c1.5-4.3 1.1-5-.6-1.2-1.7 3.7-2.5 6.3-2.7 9.4-.1.7-.1.4-.1-.9-.1-2.9.8-7.2 1.9-9.3 1.2-2.3-.6-.7-2.2 2-2.1 3.4-2.6 11.9-1 17.1.5 1.8.2 2-.5.4-.7-1.5-1.4-3.8-2.4-8.6-.5-2.6-.7-7.8-.4-10.4.3-2.3-.2-2.1-.9.4a32.1 32.1 0 0 0-.6 13c.4 1.9.2 2.5-.3.8-1.3-5-1.3-12.1 0-15.9.7-2-.8-1-1.8 1.3s-1.4 4.1-1.6 8.3c-.1 2.9-.2 3.7-.4 2.9-.4-2-.3-7.5.2-9.5.5-2.3.3-2.6-.8-1.3-1.5 1.8-2.2 9.5-1.3 14.9.4 2.5.4 3.4 0 3-.1-.1-.4-1.8-.8-3.8-.4-2-.9-4.4-1.1-5.3-1-3.8-3.7-7.7-3.4-4.7.7 5.8.9 7.6.8 7.7-.1.1-1.1-4.2-1.5-6.6-.5-2.7-.4-2.6-1.6-2.4-1.4.2-1.4.2-.9 1.6.6 1.5 1.2 5.3 1.4 7.8l.1 2-.7-2.5c-1.3-4.8-2.2-7.6-2.6-7.5-.4.1-.3 1.3.4 3.9.7 2.8.7 6.1-.1 9.6-.6 2.6-.6 2.7-.8 1.7-.9-5-1.6-6.8-3.4-8.6-1.3-1.3-2.1-1.5-1.3-.3 2 3 3.2 8.6 2.8 13.8l-.2 2.6-.2-3.5c-.3-5.7-1.9-10.8-4.2-13-1.4-1.3-1.2-.2.2 1.6a6 6 0 0 1 1.3 2.8c.1.4.2 1.2.4 1.8.3 1.3.3 8.8 0 10.1-.1.6-.2.1-.3-1.6-.2-2.4-.9-5.2-1.8-7.1-.8-1.5-2.9-4.3-3.3-4.3-.5 0-.4.2.2 1 1.6 2.3 3.2 6.7 3.1 9v1.3l-.5-1.9c-.9-3.5-4.6-9.5-6.3-10.4-1.5-.8-1.7-.3-.3.6 1.4.9 3.2 3.9 4.6 8 .7 2 .8 7.3.1 11.3-.4 2.3-.5 2.3-.8.3-.6-5.1-1.7-5.4-2.3-.7-.4 2.9-.8 2.7-.5-.4.2-2.2-.3-5.8-.9-7.6-1.8-5-7.1-10.8-10.7-11.5-1.4-.3-1.2.1.6 1.4 2.2 1.6 4.7 4.3 6 6.5 1.1 1.8 1.4 3 .4 1.5-.9-1.4-4.4-4.5-5.5-5-2.4-1.1-3-1-1.3.2 1.3.9 3.6 3 4.6 4.3l.8 1-1-1c-3.6-3.3-10.7-6.8-12.2-5.9-.5.3-.2.6.7.7 1.2.2 5.7 2.1 5.8 2.5.1.2.8.8 1.6 1.5 3.1 2.4 5.5 9.6 4.6 14-.1.4-.1.3-.2-.4-.2-4.8-2.2-9.1-4.7-10.2-1.5-.7-1.6-.3-.2 1.1.7.7 1.4 1.7 1.6 2.1l.5.9-1-.9c-.6-.5-1.9-1.7-3-2.6-2-1.7-4.1-2.9-5.2-2.9-1 0-.7.4.9 1 1.9.8 5.9 4.5 6.5 6.1.3.8 1.2 6.2 1.2 7 0 .1-.2-.2-.4-.6-2.1-4.1-6.7-7.7-10.5-8.2-1.6-.2-1.4.2.4 1.3 1.9 1.1 4.4 3.2 6.3 5.5l1.4 1.7-1.3-1.1c-5.5-4.7-10.1-7-11.4-5.5-.3.3.1.6 3 2 7.1 3.4 9.1 5.6 9.8 10.9.2 1.8.2 1.8-.6.1-2.5-4.9-6.7-8.9-10.5-10-3.2-.9-4.9-.7-2.3.2 1.8.7 4.1 2.1 6.1 3.8 2 1.7 2.1 1.9.3.9-4-2.3-8-4.1-8.4-3.7-.2.2.5.8 2.5 1.8 4 2 6.6 4.6 8.6 8.5l.9 1.8-1.4-1.2c-3.2-2.7-4.5-3.7-6.1-4.5-6.9-3.6-13.3-3.9-18.8-.8-1.1.6-1.9 1.5-1 1.1 4.4-1.9 6.4-2.3 10.6-1.8 5 .6 5.1.6 7.1 1.9 3 1.9 2.5 2.3-.9.6-3.6-1.8-9-2.7-11.1-1.8-1.1.5-1 .9.2.6 4.5-.9 10.5 1.1 15.1 5.1 5.7 5 7 8.1 5.9 14.4-1.6 9.2-1.9 10-5.9 18.1-1.5 3-2.7 5.5-2.7 5.6-.1.5-1.3 3.5-2.5 6.3-7.6 17.8-5.8 26.1 7.2 33.8 3.3 1.9 4.3 5.2 3.3 11.1-.1.8.6.6 1.1-.3.7-1.3.5-7.3-.2-8.7-1.4-2.7-5-6.8-5.7-6.6-.6.2-1.2-.5-1.5-1.8-.2-.7-.6-2-.9-2.9-.8-2.2-1.2-3.7-1.3-6l-.1-1.9.3 2c.3 2.2 1.7 6.1 2.2 6 .2-.1.6.5.9 1.2.3.7 1.6 2.3 2.8 3.6 3.1 3.3 5.2 5.8 5.8 7 .3.5.6 1 .7 1 .3 0 .3-.2-.6-1.9l-.8-1.6.8.8c.4.4.9.7 1 .6.3-.3-1-1.8-1.5-1.7-.4.1-1.5-1.6-3.3-5.1-.5-1.1-1.2-2.2-1.4-2.6-.6-.9-1.1-2-1.1-2.6 0-.3-.2-1-.5-1.6-.3-.6-.6-1.6-.7-2.1l-.2-.9.5 1c.3.6 1.3 2.6 2.2 4.6 1.5 3.1 1.9 3.7 3.4 5.2 2.5 2.4 2.9 2.2 1.4-.4-2.1-3.6-3.6-8.5-3.5-11.6 0-.5.1 0 .3 1 1.1 8.6 6.9 16.2 14 18.2.9.3 1.4.5 1.2.6-.2.1-.9-.1-1.6-.3-.7-.2-2.4-.6-3.8-.9-1.4-.3-2.9-.8-3.5-1.1-.5-.3-1-.4-1-.3 0 .5 3.7 3.3 4.7 3.6.4.1 1.2.4 1.9.7l1.2.5-.7.5c-1.9 1.5-3.5 4.9-2.5 5.4.5.2.7.1 2.1-1.4 2.4-2.7 3.1-2.9 1.3-.4-1 1.4-2.1 4.7-1.8 5.6.4 1.5 1.1.8 3.2-3.5 2-4.1 3.7-6.4 4.9-6.8 1.3-.4-.6-1.4-2.4-1.2-.3 0-.3 0-.1-.1.6-.3.3-.6-1.8-1.6-3.1-1.5-10.2-6.8-8-6 .6.2.6-.2-.1-.8-.4-.4-2.6-4.6-2.6-5 0-.6.8.4 1.5 1.8 1 2.1 4.9 6.1 7.5 7.8 1.7 1.1 2.9 1.3 1.4.2-.4-.3-1.8-1.5-3-2.7l-2.2-2.2 3.3 2.6c4.1 3.2 5.9 4.5 6.3 4.5.7 0 0-.7-2.3-2.4-4.1-3-8.9-7.7-8.3-8.2.1-.1-.3-.9-1-1.8-1.6-2.4-1.1-2.2.9.4 1.6 2 3.3 3.4 3.6 2.8 0-.1 1.1.7 2.2 1.8 3.2 3.1 5.6 5.1 5.9 5.1.6 0 .2-.7-1.8-2.8-1.2-1.2-2-2.3-2-2.5.1-.1-.2-.7-.6-1.2-.5-.8-.4-.7.6.4 1.2 1.3 2.2 1.8 1.8 1-.1-.3 4.8 4.6 6.3 6.3 1.3 1.5 5.7 4.3 6.1 3.9.1-.1 0-.3-.2-.5s-1.1-.8-2-1.4c-2-1.4-4.6-4-6.1-6.3-.7-1-1.7-2.6-2.3-3.4-.6-.9-1.1-1.8-1.1-2 0-.2.3.2.7.8 1.7 2.8 8.6 10 9.3 9.6.1-.1-.4-.9-1.2-1.8-2.8-3-7.2-9.6-7.2-10.6 0-.1.8 1 1.8 2.6 2.9 4.4 10.9 12.3 12.4 12.3.7 0 .2-.8-1.4-2-1.2-.9-4.7-4.6-4.7-5 0-.1-.8-1.2-1.7-2.5-.9-1.3-1.8-2.7-2-3.1-.3-.9-.5-1 1.5 1.7 2.4 3.3 8.8 10 9.7 10 .6 0 .4-.5-.9-1.6-1.3-1-3.5-3.8-4.7-5.8-1.1-1.7-.4-1.1 2.2 2.1 2.5 3.1 3.9 4.4 4.4 4.1.5-.3.3-.6-1.5-2.6-1.7-1.9-3.1-3.6-3.7-4.9-.2-.4.4.1 1.2 1 2.7 3 6.1 6.3 6.7 6.5 1 .3.8-.1-.7-1.9-2.6-3-6.2-8.5-6.5-10.1-.2-.8.1-.6 1.6 1.7 3.4 5.2 4.5 6.5 7.1 9.2 2.5 2.5 3.5 3.3 3.5 2.6 0-.1-.7-1.1-1.5-2.2-.9-1.1-1.5-2.1-1.4-2.3.1-.3.4-.1.9.6 1.5 2 6 6.1 6.6 6.1.7 0 .4-.7-1.3-2.4-.9-1-2-2.3-2.5-3l-.9-1.2h1.1c1.3 0 1.3-.1.1-2-1.3-2-1-1.8.5.3.7.9 1.3 1.7 1.5 1.7.1 0 1 1.2 2 2.6 2.4 3.7 3.5 4.3 1.7 1-1-1.9-2.3-5.6-2.1-5.9.1-.1.4.8.8 1.9.7 2 3.7 7.4 4.1 7.4.3 0 .3-.1-.4-2.9-.3-1.4-.7-3.1-.8-3.9-.1-1.2-.1-1 .4.8 1.3 5.7 1.7 5.6 2.2-.3.2-2.2.4-3.7.4-3.4.1 1.9 1.4 2.8 1.7 1.1.1-.4.1 1.3 0 3.8-.2 6.5 0 6.2 2.9-4.6.3-1.2.6-2.1.7-2.1.1.1-1.6 8.3-2.4 10.9-.5 1.7-.5 2.2-.3 2.2.6 0 2.2-3.6 3.9-8.8.5-1.4.8-2.2.7-1.6-.1.6-.2 1.2-.3 1.4-.1.3 0 .3.3-.1.2-.3.4-.6.3-.7-.1-.1.2-.2.7-.3.5-.1.8-.4 1-.9.3-.7.3-.7.2.2-.2 1.5-1.1 4.7-1.9 6.8-.9 2.2-1 2.9-.5 2.9.2 0 .7-1 1.2-2.3 1.5-4.1 3.9-9.9 3.9-9.6 0 .4-2 6.3-2.5 7.2-.4.7-1.7 4.6-1.7 4.9 0 .9 3.9-6.2 5.3-9.7 1.2-3 1.6-3.5.8-1.3-.5 1.6-.4 1.8.9 1.5 1-.2 1.4-.7 1.8-2 .1-.3.2-.4.3-.4.2.2-.7 2.9-1.4 4.5-.3.7-1.4 2.5-2.4 4s-1.8 2.9-1.8 3c0 .5.6.1 2.6-2s3.4-4.2 6.5-9.8c1.9-3.5 1.7-2.7-.4 1.6-2.1 4.3-3.6 6.6-5.4 8.6-.7.8-1.2 1.5-1.1 1.5.3.3 5.4-5.3 7.8-8.6 1.6-2.2 2.1-2.7 1.8-1.9-.1.2-.1.4 0 .4.5 0 2.6-.9 3-1.3.9-.8-.8 2-2.3 3.9-.8.9-2.4 2.6-3.6 3.6-2.1 1.8-2.6 2.4-2 2.4.1 0 .9-.5 1.6-1.1l2.9-2.2c1.6-1.2 6.1-5.8 7.7-7.8 1.3-1.7 1.7-2 1.1-1-1.8 3-5.6 7.1-8.3 9.2-2.3 1.7-3 2.4-2.4 2.4 2 0 12.3-10 14.6-14.1 1.1-2 1.3-2 .4.1-.7 1.5-.6 1.9.2 1.4.7-.4.8-.1.3.8-.5 1-.3 1.4.3.7.4-.6 2.3-4.4 2.9-5.9l.4-.9-.2.9c-.7 4-5.7 11.3-10.7 15.7-2.3 2-1.6 1.9 1.2-.2 4.5-3.4 10.1-10.3 10.8-13.3.1-.3.3-1.3.6-2.2.6-2 .7-1.6.2.5-.4 1.6-.4 1.8.5 1.4.4-.2.8-.8 1.2-1.7.3-.8.5-1.1.4-.6-.1.4-.2 1.4-.4 2.3-.4 2.4-3 6.9-5.5 9.4-.9.9-1.6 1.7-1.6 1.8.3.3 2.3-1.4 5.1-4.2l2.9-2.8-1.7 2.1c-4.8 5.8-10.8 9.6-19.2 12.2-1.3.4-9.2 1.1-9.5.8-.1-.1-.9-.1-1.7 0-.8.1-1.8.1-2.2.1-.4-.1-1.4 0-2.2.2-1 .2-1.5.3-1.6.1-.1-.2-2.2-.3-6.1-.3-6.5 0-11.7-.4-13.9-.9-.8-.2-2.6-.4-3.9-.5-2.3-.1-7.4-.9-12.9-1.9-2.9-.5-3.6 0-1.2.9.5.2.8.4.8.6-.2.8 12.4 3.1 20.5 3.7 11.4.9 20.6 1 24.5.4 1.4-.2 3.4-.5 4.5-.6 3.4-.4 10.6-2.3 12.9-3.4 7.3-3.4 15.6-10.5 18.2-15.4.3-.6.5-.9.5-.7 0 1.1-1.9 5.5-3 6.7-1 1.1-3 4.8-3 5.6 0 1.2.6.8 2.2-1.4.8-1.2 2-2.8 2.7-3.6 1.6-1.8 3.2-4.1 4-5.7.6-1.2.6-1.2.5-.4-.2 1.2-2 4.5-3.2 5.7-1.2 1.3-1.1 1.5.2.8 1-.5 1.1-.5.7-.1-1.7 1.9-2.3 5.9-1.2 8.1 1.2 2.3 1.7 1.9 1.7-1.3 0-2.7.4-3.9 2.2-6 .2-.3.6-.8.8-1.2.2-.4.9-1.3 1.5-2 1.7-1.9 5.2-9 5.8-11.6.7-2.9.7-10 .1-11.9-.6-1.9-2.4-5.5-3-6.1-.5-.5-2.7-5.4-4-9-1.8-4.8-4.6-10.4-6-11.7-.2-.2-1.6-1.8-3.1-3.5s-3.7-4.1-5-5.3c-1.6-1.5-2.5-2.6-3-3.5-.4-.8-1.4-2.2-2.3-3.2-3.1-3.4-6.4-8.3-9-13.1-.7-1.3-1.5-2.7-1.7-3-1.5-2.3-3.1-10.3-2.7-13.7.4-3.7 1.5-7.9 2.6-10.7 1.1-2.6 1.1-2.6.1-1.2-1.3 1.9-3 5.3-3.5 7-.4 1.5-.8 2.1-.5.8 1.4-6.1 6.6-15.8 9.8-18 .4-.3.8-.7.8-.8 0-.4-.7-.2-1.6.5-.5.4-1 .7-1.2.7-1.9 0-8.4 10.6-10 16.3-.6 2.2-.4.4.3-2.2.7-2.9 3.3-8.4 5.2-11.2 1.5-2.2 1.4-2.4-.4-.8-3.1 2.6-7.4 9.1-7.4 11.2 0 .2-.1.2-.1.2-.8-.8 2.6-8.3 4.8-10.7 2.6-2.8.1-2-2.8.9-5.3 5.3-7.5 9.7-7.3 14.7l.1 2.6-.5-2c-.5-1.9-.5-7.3 0-9.7.5-2.4-.9.1-1.8 3.3-.6 2.1-.5.1.1-2.3 1.1-4.4 6.6-11.8 10.5-14.2 1.9-1.1 1.7-2.1-.2-1.1-3.3 1.7-8 6.7-10 10.8-1.2 2.5-1.7 3.3-1 1.6.2-.6.4-1.1.3-1.1-1.1-1.1 5.9-10.1 9.5-12.1 2-1.6 1.9-2.2-.3-1.5m20.1 11.9c-1.9.8-5.9 4-7.2 5.9-.6.8-2.9 6.7-3.1 7.8-.3 1.7.6 1.2 1.7-1 1.1-2.3 2.8-4.4 4.2-5.3.5-.3 1.7-1.3 2.6-2.1 1-.9 2.2-1.7 2.9-1.9 3.6-1.3 4.3-2.1 1.1-1.3-2.1.5-3.6 1.3-5.6 2.9-2 1.6-2 1.6-2 1.2 0-1.1 4.4-4.6 6.8-5.4.9-.3 1.8-.7 1.8-.9.2-.7-1.8-.5-3.2.1m-120.8.2c0 .1-.2.2-.4.2-.4 0-.5-.3-.2-.6.2-.2.6.1.6.4m126.6 4.1c-.5.2-1.7.8-2.5 1.3s-2.3 1.4-3.4 2c-2.7 1.6-5 3.4-6.2 4.9-.6.7-1.2 1.5-1.3 1.7-1.8 2.2-2.9 6-2.4 7.9.2.8.6.9.9.3 1.2-3.7 5.6-8 10.2-10.1 2.8-1.2 10.5-2.2 13.6-1.8 2.7.4 2.8.4 2.8-.2 0-.6-7.4-2-9.7-1.8-2.1.2-5.5 1.3-9.1 2.9-2.7 1.2-.2-.7 2.7-2.1 3.5-1.7 6.3-2.3 9.8-2.1 3.9.2 3.7-.2-1.5-2.3-2.6-1.1-2.5-1.1-3.9-.6m-86.7 3.2c0 .4 1.1 1.1 1.6 1.1.7 0 .5-.4-.5-.9s-1.1-.5-1.1-.2m-48.4.6c.9.8.8 1.9-.4 3.7-1.1 1.6-3.6 2.9-4 1.9-.1-.2 0-.3.3-.3 1.2.3 4-4.4 2.9-5-.4-.2-.3-.9.1-.9.2 0 .7.3 1.1.6m99.7 2.8c-.1.4-.1.1-.1-.6s0-1 .1-.7c.1.3.1.9 0 1.3m-128.6-.8c-.1.3-.2.8-.3 1.1-.1.4.1.3.3-.4.4-1 .4-1.6 0-.7m169.6 2.9c-.5.1-1.7.3-2.6.5-.9.2-2.1.3-2.8.2-4.6-.6-13 9.6-13 15.9 0 1.8 1.5 1.7 2-.2.6-2.1 4.5-6.6 5.7-6.6.2 0 1.3-.4 2.4-.9 3.3-1.5 11.8-1.9 16.7-.8 2.7.6 5.4 1.1 5.5.9.8-.8-1.2-2.3-3.7-2.7-.7-.1-2.7-.5-4.4-.8-6.4-1.3-12-.4-17 2.7-.9.6-2.1 1.3-2.6 1.6-2.4 1.5.8-1.7 3.6-3.6 4.3-2.9 10.5-4 18.9-3.5 3 .2 2.4-1.6-.7-2-.8-.1-1.7-.3-2-.4-.5-.2-4.8-.5-6-.3m-172.3 7.4c-.7 1.7-5.8 8.8-7.1 9.9-.1.1-.7.8-1.3 1.7-1.2 1.6-3.6 4.4-5.2 6.2-4.1 4.3-7.6 10.3-8.6 14.7-.4 1.6-.8 2.9-.9 2.9-.3 0 0-2.3.5-4.1.2-.7.4-1.7.5-2.2.2-1.3 2-5.2 3.1-7 1.2-1.9.8-4.2-.5-2.6-.3.4-.3.4-.1-.1.8-1.6-.1-2.5-1.2-1.2l-.7.8.5-.9c.9-1.6 0-3.6-1-2.1-.2.4-.7 1-1.1 1.4-1.9 2.3-5.4 9.6-6.4 13.6-.9 3.3-1 3.5-.8 1.4.2-3.2.7-4.8 2.5-9.7 1.5-4 4.7-11.1 6-12.9.5-.8.6-1.1.4-2.2-.2-1.3-.9-1.7-1.4-.7-.2.4-.3.4-.3-.2 0-.4.2-.8.6-1.1.6-.4.6-.4.1-1.6-.7-1.9-1.5-1.6-1.8.9-.1.8-.3 1.9-.6 2.4-.4.9-.4.9-.3.1.1-.4.3-1.6.4-2.6.2-1.6.3-1.9 1-2.4 1-.8.5-2-1-2h-.9l.1 1.3c.2 2.5-.4 4.5-2.5 8.4-1.1 2.1-1.9 3.8-2 3.9 0 .1-.6 1.4-1.4 2.9-2 4.2-5.5 14.2-6.2 17.6-.3 1.4-.4 3.3-.3 6.7 0 2.6 0 4.9-.2 5.1-.2.2-.1.4.1.5.2.1.7.4 1.3.9 1.1.9 1.6 1 1.3.3-.3-.7-.7-4.7-.6-5.2.1-.3.3.4.4 1.5.4 2.3 1 4.7 1.2 4.9.4.4.4-.3.2-1.7-.2-.8-.3-2.4-.2-3.4l.1-1.8.3 2.7c.5 4.3.8 5 1.8 5.5 1.1.5 1.2.4.7-1-.2-.6-.4-2-.5-3l-.2-1.8.8 2.8c.9 3.2 1.2 3.9 1.7 3.9s.5.1 0-1.7c-.2-.8-.4-2.5-.4-3.6 0-1.2.1-1.8.1-1.3.3 2.7 1.3 6.7 1.6 6.7.1 0 .2-2.9.2-6.4 0-5.7 0-6.6.6-8.6l.6-2.2-.1 2.4c-.1 1.3-.2 3.2-.3 4.1-.2 2.3 0 2.3 1.5 0 1.6-2.4 3.9-5.1 4.7-5.5.5-.3.8-.8 1.2-2 .7-2 .8-2.1.6-.4-.2 1.1-.1 1.3.3 1.5.3.1.8.3 1.3.5.9.5 1.1.3 1.3-1.5.2-1.3 1.4-5 1.6-4.9.1.1-.1 1-.4 2.2-.3 1.1-.6 2.9-.7 3.9l-.1 1.8 1 .7c.8.6 1 .7 1 .3 0-.3.1-.2.2.2.2.6 2.2 2.6 2.7 2.6.1 0 .3-1 .3-2.3v-2.3l.2 2.6c.3 3.3 1.3 4.8 1.3 2 0-3.1.4-3.8.5-.8v2.9l1.2.6 1.2.6.2-.6c.2-.5.2-.5.3-.1 0 1 2 6.8 2.4 6.9.3.1.3-.1.2-.5-.5-2-1.2-10.5-.9-10.1.1.1.5 2.1.8 4.6 1 6.4.9 6.1 1.8 6.6 1 .5 1 .5.8-2-.1-1.2-.1-2.5 0-2.9.1-.4.2-.6.2-.4 0 .1.2 1.1.4 2.1s.4 2.3.5 2.8c.1.8.4 1.1 1.4 1.8 1.4 1 1.5 1 1.3.1-.1-.7-.1-.7.2.1.2.4.4.9.4 1.1 0 .2.4.6.9.9.5.3 1.4 1.2 2 2 1 1.3 1.2 1.4 1.9 1.3.4-.1 1.4-.2 2.2-.2h1.4v-.9c0-4.1-1.6-7-4.7-8.5-5.9-2.9-8.5-7.9-9.2-17.5-.5-6.5 1.2-11.6 8.6-26.1.3-.7.6-1.3.6-1.5 0-.3-1.5-1-1.7-.8 0 .1-.3.5-.6 1.1-.3.5-.5.9-.6.9-.1-.1.1-.5.3-.9.7-1.4 0-2.5-1-1.6-.3.2-.3.2-.3-.2.1-1.3-1-.6-2.4 1.6-1.6 2.6-2.8 4.1-1.6 2 .5-.8 1.1-1.9 1.4-2.4.8-1.3 1-2.1.6-2.4-.5-.8-1-.6-1.3.2M130 283c.2 0 .2.1.1.2-.2.2-1.6-.6-2.4-1.5-.7-.8-.6-.7.6.2a7 7 0 0 0 1.7 1.1m63.2 8.3c3 .6 5.2 7 3.6 10.2-3 5.8-10 3.1-10-3.8-.1-4.9 2.2-7.2 6.4-6.4m21.6 4.1c1.9 1.5 2.8 3.7 2.1 4.9-1.2 1.8-4.6 2.8-5.7 1.6-2.9-2.9.5-9 3.6-6.5m-73.1 1.5c-6.6.8-14.9 4.2-18.5 7.8-1.2 1.1-1.5 2-.5 1.3 7.6-5.4 16.7-7.9 23.5-6.5 3.1.6 3.1.6 2.5.2-1.9-1.5-4.3-3-4.7-3-.3 0-1.3.1-2.3.2m-.1 3.7c-.6.1-1.6.4-2.2.5-1.4.3-4.7 1.8-4.7 2.1 0 .3.1.3 1-.1 2.4-.9 5.8-1.5 8.2-1.5h2.5l-2.9.2c-5.2.3-12.7 3.4-15.6 6.4-1.1 1.1-.9 1.5.3.6 6.8-5.2 14.4-7.1 20.3-5 4.3 1.5 4.9 2 6.3 4.5 1.7 3 2.5 3.2 1.7.3-1.5-5.6-8.4-9.4-14.9-8m114.9 2.5c-2.2.4-2.6.8-2 2l.4.9 2.2-.1c1.9-.1 7 .8 7 1.1 0 0-1.9.1-4.2 0-4.8 0-5.2.1-4 1.4 1 1.1 1.8 1.3 5.1 1.5 4.2.2 6.2.5 10.2 1.7 5.4 1.6 9.7 4.1 13.4 7.8 2.6 2.6 2.6 2.7.1.8-5-3.8-6.4-4.5-10.4-5.3l-4-.9c-.4-.1-2.1-.4-3.8-.5-3.2-.3-3.9-.1-3.1.7.4.4 1 .6 5.1 1.4 5.5 1.1 9.9 3.2 14 6.7.5.4 1.7 1.3 2.6 2 4.2 3 6.4 5.5 11.7 13.4 2 2.9 3.8 5.6 4.1 6 .3.4 1.2 1.7 2 2.9s2.4 3.7 3.6 5.4c1.1 1.7 2.5 3.8 3 4.5s1.6 2.1 2.5 3c.8.9 1.5 1.6 1.5 1.6s.2.3.4.5c.2.3.6.8.9 1.1.5.7 1.2.5.7-.1-3-4.3-10.9-17.8-10.9-18.6 0-.1.2 0 .3.2.2.3.8 1.2 1.3 2.1.6.9 2.3 3.7 3.8 6.3 3.9 6.6 8.5 12.9 10.7 14.4 3.2 2.3 11.2 4 13.8 3 .4-.1 1.5-.4 2.6-.6 2.3-.4 5.5-1.3 7-2.1 4.1-2 8.6-2.8 10.8-1.8 2.6 1.1 6.5 4.9 7.6 7.2.3.7 1.3.9 1.3.2 0-1.7-5.4-7.7-8.1-9.1-2.6-1.4-7.9-.8-12.7 1.4-3.1 1.4-9.2 2.5-12.6 2.3-6-.4-10.8-3.9-14.2-10.4-.4-.7-.8-1.4-.9-1.5-.7-.4-3.3-5-5.3-9.2-2.9-6.1-5.4-11-6.9-13.5-.6-1.1-1.1-2.1-1.1-2.4 0-1.6-6.9-10.5-11.1-14.3-4-3.6-5.3-4.6-11.3-8.3-2.1-1.3-6.4-2.7-11.6-3.9-7.9-1.5-8.1-1.5-11.5-.9m-67.8 9.9c.2.6.4 1.8.6 2.8.4 2.1.6 2.1 1.4 0 .7-1.7 2.3-4.3 2.5-4.1.1.1-.1.6-.3 1.3-1.7 5.6-3.9 24.5-3.3 28.1.1.7.2 1.5.2 1.8 0 .6-2-5.3-2.1-6 0-.3-.1-.5-.3-.5-.3 0-.4.2-1.1 3.7-1 4.9-1.3 3.8-.8-3.4.3-4.2.6-6.8 1.6-14.8.3-2.1.5-5.4.5-7.2.3-3.2.5-3.8 1.1-1.7m38.8 2.4c1.9 1.8 3.9 3.9 4.4 4.7 3.9 5.5 5.3 3.9 2.4-2.6l-.8-1.8.9.9c.5.5 1.7 1.7 2.8 2.6 2.9 2.5 6.2 6.9 8.9 11.7 1.4 2.5 1.9 3.9.6 1.9-.4-.6-1.1-1.4-1.5-1.7-.4-.3-1.5-1.2-2.4-2-2-1.9-2.7-2.1-1.8-.5 1.6 2.9 2.5 5.1 1.9 4.6-1-.9-1.2-.9-1.6-.5-.3.3-.4.5-.1.9.5.9 0 .8-.5-.1-.3-.5-1.3-1.5-2.3-2.3-1-.8-2.5-2-3.3-2.7-1.9-1.6-2.1-1.4-.9 1 .5 1.1 1.3 2.9 1.6 4 .4 1.1 1 2.9 1.5 4 1.1 2.8.9 3-.7.6-1.8-2.6-2.6-3.7-4.1-5.5-.7-.8-2.2-2.8-3.5-4.5-1.3-1.7-2.9-3.8-3.7-4.6a54 54 0 0 1-3.6-4.4c-1.2-1.6-2.6-3.4-3.1-3.9-.5-.6-.8-.9-.5-.7.2.2.5.2.6.2.2-.2 3.3 1.4 4.2 2.2 1.9 1.6 3.3 2.3 3.3 1.6 0-.3-1.7-5.1-2.1-5.8-.5-.9-.3-.7 3.4 2.7m-45.4 12.5c-.2 7.8-.3 15.7-.3 17.3 0 2.1-.1 3.1-.3 3.1-.5 0-1.5-3.8-1.8-7.1-.2-1.9-.4-2.1-.9-1-.4.8-3.7 5.8-4 6-.5.3 0-3.4 1.1-9.3 1-5.4 1-5.5-.5-3.8-4.2 4.5-8.4 8.5-8.9 8.5-.1 0 .2-.4.6-1 .4-.5 1.5-2.3 2.4-3.9.9-1.6 2.2-3.8 2.9-5 .7-1.1 1.7-3 2.3-4 1.2-2.5 4.9-9.1 5.9-10.9.4-.7 1-1.7 1.2-2.3.6-1.4.6-2.2.3 13.4m16.4-12.2c.4 1.2 1 3.3 1.4 4.7.9 3.6 1.7 4.4 1.7 1.7 0-1.4 1.1-6.9 1.3-6.3.2.5.6.4.6-.3 0-.4.2-.1.5.7l1.1 2.6c.3.7 1 2.4 1.4 3.7.4 1.3.8 2.5.9 2.6.1.1.5 1.3.9 2.6s.8 2.3.9 2.3c.3 0 2.3-11 2.5-13.7l.2-2.5.9 1.5c.5.8.9 1.5.9 1.6 0 .9 7.1 11 13.2 18.7 3.5 4.5 7.1 9.4 6.8 9.4-.6 0-7.7-6.6-9.9-9.3-2.5-2.9-3.5-3.8-4.2-3.8-.9.1-.8 1 .2 2.6.5.8.9 1.5.9 1.7s.4 1.2.8 2.3c.7 1.7 2.1 6 1.9 6 0 0-.7-.8-1.4-1.9-1.6-2.1-4.8-5-5.4-4.8-.5.2-.5 1.1.3 3.3.3 1 .7 2.4.8 3l.1 1.1-.9-.9c-1-1-3.6-5.1-4.9-7.5-1.4-2.6-2.7-1.9-2 1.1.5 1.9.7 8.1.2 7-.4-1-.8-1.1-.6-.3.2.7-1.5-2.4-3-5.6-1.5-3.2-1.8-3.1-2.3.6-.1 1.1-.6 4-1.1 6.4-.5 2.5-.9 5.3-1 6.2-.1 1.4-.6 2.6-.6 1.6 0-.5-.8-6.6-1.2-9.1-.4-2.6-.9-6.2-.9-6.8 0-.6-.6.2-.9 1.3-.8 2.5-3.3 8.6-3.4 8.4-.3-.3 1.1-19.5 1.6-22.8.2-1.4.4-4 .5-5.8.1-3.3.3-5.6.5-5.5 0 0 .3 1 .7 2.2m-127.4 4.7c-.4.1-.5.5-.5 2.8 0 2.7-.4 2-.5-.8 0-1.8-1.1-1-1.1.9 0 .7-.1 1-.1.7-.4-1.9-1.3.2-1.4 3 0 1.5-.1 1.5-.1.3-.3-3.4-1.5-.4-1.4 3.5.1 4.2.1 4.3 1.9 10.4 1.5 4.9 3.2 7.9 7 11.8.8.8 1.3 1.4 1 1.3-.7-.3-.5.3.4 1.2l.9.9-.9-.6c-1.3-.8-7.9-6.1-7.9-6.3 0-.1-1.4-.3-3.1-.3-6.6-.3-12.4-3.3-16.2-8.5-.5-.6-.6-.7-.8-.4-.2.3-.4 0-.7-.8-.5-1.4-1.5-2.4-2.1-2.1-.6.2-.5.8.5 3.4 4.1 10.2 8.2 14.1 18.2 17.6 4.9 1.7 6.5 1.5 2.5-.4-4.7-2.2-10.4-5.6-10-6 .1-.1 1.3.6 2.7 1.5 2.5 1.5 9.7 4.5 10 4.1.1-.1.1-.2 0-.2s-1-.6-2-1.3c-1.9-1.2-4.9-3.6-4.6-3.6.1 0 1.2.7 2.5 1.6 2.9 2 10.6 5.5 11.9 5.5.6 0 0-.5-1.2-1.1-1.4-.7-5.2-3.3-5.1-3.5 0 0 1.7.7 3.6 1.7 3.4 1.7 7.5 3.4 7.7 3.1.1-.1-.7-.9-1.6-1.9a22.8 22.8 0 0 1-4.6-6.7c-1.3-2.6-1.1-2.5 1.1.8 1.5 2.3 6.1 7.3 6.6 7.3s.1-.6-1.7-2.7c-2.1-2.4-4-5.8-4.9-8.6-.8-2.4-.5-2.4.6-.1 1.6 3.3 5.3 8.5 6 8.5.5 0 .2-1.5-.5-2.6-2-3.3-4-10-4-13.1v-1l.3 1.2c1.3 4.7 1.4 4.8 2.2 2.3.3-1 .8-2.4 1.1-2.9.3-.6.4-1.2.4-1.4-.1-.2-.6-2.9-1.1-5.9-.5-3.1-1.1-5.7-1.2-5.9-.4-.5-.7-.4-.8.4 0 .5-.1.4-.3-.5-.3-1.1-1.3-2.6-1.8-2.6-.1 0-.2.6-.3 1.4l-.1 1.4V324l-1.5-1.2-1.5-1.2-.2 1.1c-.1.9-.2 1-.2.4-.1-1.7-.2-2-.6-2.2-.5-.6-1.7-.7-2.5-.5m73.8 1.6c-9.1 1.6-17.9 7.2-29.4 18.7-4.4 4.5-7.6 7.3-12.3 11-4.4 3.5-10 4.6-11.1 2.3-.6-1.3.7-5.8 1.8-6.1a9 9 0 0 0 1.4-.7c2.2-1.2 4.4-.1 4.4 2.1 0 1.5.7 1.2.9-.4.9-5.8-8.5-5.1-11.4.9-2.9 5.8-1.7 10.7 3.1 13 1.7.8 6.2.9 8.4.1 1.6-.6 11.7-7.2 13.1-8.6.7-.7.1-.8-.8-.1-10 7.5-21.7 8.2-22.6 1.5-.2-1.2-.1-1.2.2-.4 2.1 4.8 14.7 2 22.2-5.1 10.3-9.6 10.3-9.6 13.6-11.6 1.8-1.1 4.2-2.3 5.5-2.8 1.2-.5 2.7-1.1 3.3-1.4 3.5-1.6 6.3-2.5 9.3-2.9 2.4-.4 2.6-.7.9-1.5-1.4-.7-1.9-.7-3.7-.2-1.7.4-1.7.4-.2-.3 2.7-1.2 4.9-1.2 6.6-.2.6.4.9.2 1.4-.6.7-1.3 0-1.8-3.4-2.6-2.4-.5-2.9-.4-6.8 1.3-2.8 1.3-3.3 1.3-1.3.3 4.6-2.6 8.2-3.2 12.3-2.1.5.1 1.4-1.2 1.4-2.1 0-.9-4.4-1.9-6.8-1.5m139.3 6.1c0 .1.2 1.1.4 2 1 4.4-.4 16.5-2 17.4-1 .5-.3 4.5 1 5.8.8.8.8.8 5.5 1.5l3.5.5 1.6-.8c2.1-1.1 2.1-1.1.1-2.7-2.2-1.7-2.7-2.2-4.2-4.6l-1.2-1.8-.1-3.1c-.1-1.7.1-4.3.2-5.7l.3-2.6-.8-1.6c-1-2-4.3-5.4-4.3-4.3m51.5 2c-2.2 2.8-3.5 6-3 7.7.5 2.1 1.3 4.9 1.8 6.4.6 1.6.6 2.3 0 .9-.7-1.8-2-1.5-1.6.4.4 1.7.3 3.3-.1 3.3-.3 0-.4-.4-.4-2.2 0-3.6-2.2-9.2-3.5-9.2-.7 0-.6.7.2 3.5.8 2.6 1.2 5.1.7 5.1-.2 0-.3-.2-.3-.4 0-1.5-4.1-8-5-8-.6 0-.7 1.2-.2 2 2.2 3.3 3.2 9.7 1.8 11.9-2.8 4.5-1.8 5.8 3.9 5.1 1.6-.2 3.7-.3 4.9-.2 2.4.2 3.5-.3 4.3-1.7.2-.5.6-1 .8-1.2.7-.9.4-2.4-1.2-5.5-1.5-3-3.3-8.3-3.8-10.8-.3-1.9 0-3.7 1.2-6.2 1.2-2.6 1.1-2.8-.5-.9m-284.4 2.5c0 2.9 1.7 8 3.1 9.3 1.8 1.6 5.8 3.1 9.2 3.5 1.9.2 1.9.1.7-1.8-1.4-2.2-2.9-5.8-3-7.3 0-.2-.3-.5-.7-.6-.3-.1-.8-.2-1-.3-.3-.1-.4 0-.4.6 0 .7 0 .7-.3-.2-.4-1.3-1.7-1.5-1.8-.3l-.1.7v-.7c-.1-1-1.8-2-2.8-1.6-.6.2-.7 1.7-.2 2.6.9 1.5.9 2.1 0 .8-.9-1.4-1.1-2.5-.7-3.5.2-.5.1-.7-.5-1.4-1.1-1.2-1.5-1.1-1.5.2m38.7 3.2c-.5.4-.7.8-.7 1.6 0 .6-.1 1-.3.9-.1-.1-.3-.5-.3-.9 0-1.6-1.8-.9-1.9.8 0 .8-.1 1-.1.5-.2-1.3-.7-.7-2.2 2.5-2.3 5-2.5 6.8-.7 9.6.7 1.2.9 1.1 1.4-.5 1.1-3.5 5.6-8.9 8.5-10.2 1.7-.8 1.7-1.2.3-2.5l-1.1-1-.1 1.2c-.2 1.8-.4 1.7-.6-.1-.4-2.4-1-2.9-2.2-1.9m246.1 12.8c0 .2.2.8.4 1.2.4.7.3.8-.1.9-.3.1-.6.3-.7.5-.4.6-.6.2-.4-.5.3-.8.2-2.9-.2-4-.1-.3.1-.1.4.5.3.5.6 1.2.6 1.4m-219.3 2.2c-1.8 1.8-2.6 3.1-.9 1.5 1.8-1.7 3.1-3.2 3-3.3-.1-.1-1 .8-2.1 1.8m8.7 6.4c-.6 2.1-2.6 4.9-5.7 7.9-3.6 3.6-4.2 3.4-1-.4.6-.8 1-1.4.9-1.4-.5 0-2.4 1.6-3.3 2.7-1.5 2.1-2.1 1.3-2.1-3.1 0-2.4.2-4.6.7-5.7.1-.4.1-.5-.3-.4-.6.1-1.4 2.5-1.6 5-.4 4.9-.9 5.4-1.1 1.1l-.1-2.5-.8.5c-.6.3-.7.6-.6 1 .4 1.1.4 2.5.1 2.5-.2 0-.3-.1-.3-.2 0-.7-1.1-1.9-1.5-1.6-.5.4-.5.9.1 2.2.3.6.6 1.9.7 2.9l.2 1.9-1.3 1.8c-1.7 2.4-2.4 3.6-2.4 4.1 0 .5 6.2 1.1 8.6.9.8-.1 3.2-.3 5.2-.4 4.5-.3 5.9-.6 5.9-1.3 0-.8-2.1-2.7-4.4-3.8-1.1-.6-2.2-1.2-2.5-1.4-.4-.3-.5-.3-1.1.2-1.8 1.4-.4-.4 2.7-3.3 4-3.8 4.9-5.4 5.2-8.3.4-2.1.3-2.4-.2-.9M76 366.3c-.9.9-1.7 1.5-2.6 1.9-3.7 1.4-5.6 2.8-8.1 5.9-.7.9-1 2.1-.5 2.1 1 0 8.5-1.9 8.9-2.2.3-.3-.2-2.2-.6-2.3-.2 0 .3-.6 1.3-1.3 2.4-1.7 4.1-3.7 4.1-4.7 0-1.3-.9-1.1-2.5.6m155.9 5.8c-.2.4-.4.7-.4.6 0-.3.6-1.5.7-1.4 0 0-.1.4-.3.8m-32.6 3.3l.5.9-.7-.8c-1-1.1-1.5-2-.8-1.4.3.2.7.8 1 1.3m43.9 3.9c-3 2.6-4.9 4.4-5 4.7 0 .5 5.1-3.7 6-5 .5-.7.1-.6-1 .3m18.4 3.4c0 .7 2.3 5.7 3.1 6.7.5.6.8 1.2.8 1.3-.2.2-3.2-3.7-3.4-4.3-.2-.7-1-1-.8-.4.1.3.4 1.3.7 2.4.9 3.2.5 3.3-.8.1-.5-1.3-.9-.7-1.2 2.1-.3 2.9-1.1-.5-1.2-4.9 0-1.4-1-.1-1.1 1.4 0 .9-.9 3.7-1.7 5.2-.4.7-.6 1.3-.5 1.3.2 0-1.1 2.5-1.7 3.1-.8.8-1.1.7-.7-.2.5-1 .5-1.4 0-1.2-.3.1-.2-.2.3-1 1.4-2.3 2-3.8 2.3-6.5.4-2.9.3-3.5-.8-3.7-1-.2-1.2 0-1.2 1.3 0 1.2-.9 3.8-2.2 6.2-.4.7-1.1 1.6-1.9 2.2a6.23 6.23 0 0 0-2.6 4.5l-.1 1.2 1.6.3c2.4.5 8.3.9 8.8.6.3-.1 1.9-.2 3.6-.2 4.5 0 14.9-1.4 16.9-2.3l1-.5-.7-1.4c-1.5-3.1-3.4-4.7-9-7.3-4-1.8-5.6-3.2-5.9-5.2-.1-.9-1.6-1.7-1.6-.8m-99.1 1.2c0 1 .4 1.9.7 1.6.2-.2-.2-2.6-.4-2.6-.2.1-.3.5-.3 1m48 .5c0 .4.7.8 1 .6.2-.2-.4-1-.7-1-.2 0-.3.2-.3.4m-44.3 2c-.1.2-.3.8-.5 1.5-.2 1.4-1.2 3.4-2.7 5.4-.8 1.1-2.5 4.1-2.5 4.5l-.6.2c-1.2.4-.5-2.8 1.6-7.2.6-1.3.9-2 .7-2.2-.5-.5-1 0-1.7 1.3-.4.7-.8 1.4-1.1 1.6-.2.2-.4.4-.4.5 0 .1-.5 1-1 2-.9 1.5-1 1.7-1 1.1 0-1.3-1.4-.1-2.1 1.7-.2.4-.4.7-.5.7-.5 0-.3-1.2.5-2.8 1.8-3.5 1.9-3.6 1.6-4-.5-.7-.8-.6-2.4 1.3-1.2 1.3-2.2 2.1-3.6 2.9-5 2.8-5.4 7-.9 8.5 1.7.6 8.2.4 10.6-.3 1.4-.4 1.6-.4 2.3 0 .7.4.9.4 3.6-.3 4-1 4.8-1.6 4.7-3.5-.1-2.4-.7-3-1.8-1.6-.3.4-1.1.9-1.8 1.2-3.3 1.3-4.1-.3-2.5-4.7a32 32 0 0 0 1.8-6.7c.2-1.4.2-1.6-.3-1.1"/></svg>