<svg xmlns="http://www.w3.org/2000/svg" viewBox="0 0 500 500"><path d="M258.3 119.9c-.2 0-.3-.1-.5-.1-.5 1.2-1 2.3-1.4 3.5-1.9 5.1-3.6 10.3-5.7 15.3-10.1 23.4-27.6 37.9-52.6 43.2-4.7 1-9.3 2.2-13.7 4.3-3.8 1.8-7.3 4-10.2 7-5.2 5.5-7.1 12.1-5.9 19.6.2 1.2.4 2.4.7 3.6-.8.6-1.5 1.1-2.3 1.6-4 2.9-7.9 6-11 10-2.4 3-4.2 6.2-4 10.1-2.9 2-5.8 3.8-8.5 5.9-8 6.3-14.2 14.1-18.8 23.1-8.2 16.1-12.8 33-11.7 51.2.7 11.6 3.6 22.6 8.7 33 7.5 15.2 19.1 25.9 34.9 32 .9.3 1.7.6 2.6.9-10-6.6-18.1-14.9-24.7-24.7-6.4-9.5-14.4-27-14.4-31.7.5.7.9 1.3 1.3 1.9 2.9 4.1 5.6 8.4 8.8 12.3 2.5 3.1 5.5 5.8 8.4 8.5 1.1 1 2.4 1.9 4.3 2.2-.5-.9-.8-1.5-1.2-2.1-3.1-4.9-5.7-10-7.8-15.4-4.1-10.8-6.4-21.9-4.7-33.4 1.1-7.7 4.1-14.5 9.6-20.1 1.4-1.4 2.7-2.8 4.2-4.1 6.8-6.4 14.3-11.8 23.1-15.2 7.6-3 15.5-4.4 23.6-3.3 1.6.2 3.2.6 5 .9-1.2-3.4-3.4-5.7-6.2-7.5a27.1 27.1 0 0 0-11-3.7c-1-.1-2.1-.2-3.6-.6l1.5-.5c.5-.1.9-.2 1.4-.4 7-1.6 13.9-1 20.8.3 9.8 1.8 19.2 5 28.3 8.9.7.3 1.5.6 2.3.9.1-.2.3-.3.4-.5-1.3-2.1-2.5-4.3-4-6.3-4.9-6.5-11.3-10.9-18.7-14-8.1-3.3-16.6-4.7-25.3-4.8-5.2-.1-10.4.5-15.6.8-.9 0-1.8.4-2.8-.1l.5-.5c15.9-9.4 32.8-13 51.1-9.5 3.6.7 7 1.9 10.2 3.9 2.9 1.9 6.2 3.3 9.4 4.7 2.5 1.1 5.3 1.8 8.1 1.6.9 0 1.8-.3 3.1-.6-.9-1.4-1.4-2.7-2.3-3.6-2-2-4-4.1-6.2-5.8-4.4-3.5-9.4-6.2-14.4-8.7-.7-.3-1.4-.7-2.1-1.1.7-.2 1.2-.2 1.7-.1 9.4 2.5 17.6 7 24.6 13.8 3.5 3.4 6.1 7.6 9 11.5 10.6 13.9 24.6 20.6 42.1 18.3 16.5-2.2 30.3-9.8 41.8-21.7 1.8-1.9 3.2-4.3 4.7-6.5.3-.4.3-1.1.4-1.3-1.2 1-2.6 2.1-3.8 3.3-6.4 6.5-13.4 12.1-21.7 16-11.1 5.2-22.5 6.3-34.2 2.5-10.9-3.6-20.1-9.5-27-19-10.5-14.5-25-22.1-42.9-23.3-12.2-.8-24 1.3-35.4 5.5-.7.3-1.5.5-2.5.9-.2-4.2.9-7.8 2.8-11.2 3.6-6.6 9.4-10.4 16.4-12.7 9.1-3 18.4-3 27.8-2.2 2.5.2 4.9.5 7.4.8-3.2-3.7-7.8-4.5-11.9-6.4 8-1.9 15.8-2.1 23.9 1.4-.7-2.2-1.9-3.4-3.4-4.5a17.8 17.8 0 0 0-7-2.8c-.5-.1-.9-.3-1.7-.6 6.9-2.2 11.7-6.5 15.4-12.1 1.9-3 3.7-6.2 5.1-9.4 3.5-7.9 5.3-16.4 6.5-24.9.3-3 .6-5.6.9-8.2zM83 406c.7-.5 1.3-.9 1.9-1.3 3.1-2 5.8-4.4 8.2-7.2 4.3-5 7.2-10.8 9.1-17.1 2.5-8.4 3.6-16.9 1.6-25.5-1.4-5.9-3.3-11.7-5.5-17.4-4.7-12.6-9.8-25-14.5-37.5-3.8-10.1-7.1-20.3-8.4-31-.6-4.8-.7-9.6.7-14.3.8-2.5 2.2-4.5 4.4-6 2.5-1.7 5.3-2.9 8.2-3.5 7.7-1.8 15.5-1.4 23.3-.2 3.6.5 7.2 1.3 11.3 2.1-.7-.4-1.1-.7-1.4-.9-8-3.8-16.3-6.9-25.1-8.7-6.3-1.3-12.7-1.9-19.1-.6-11 2.2-17.5 10.9-16.5 22.1.4 4.8 1.5 9.5 3 14 3.2 9.9 7.7 19.2 12.1 28.5 5.2 10.9 10.5 21.8 15.5 32.8 5 10.9 7.4 22.3 6.6 34.4-.5 6.8-1.6 13.4-4.6 19.6-3.2 6.8-8 12.2-14.9 15.6-1.4.7-2.8 1.1-4.4 1-4-.2-8 .2-11.9 1-8.8 1.8-16.4 5.6-22.1 12.8-2.2 2.8-4 5.9-5.2 9.4.9.6 1.6 1.2 2.4 1.7 3.2 1.9 6.7 2.9 10.3 3.4 6.5.9 13 .1 19.4-1.3 3.4-.7 6.7-1.7 10.1-2.6 0-.2-.1-.3-.1-.5-1.5.2-3 .5-4.6.6-5.4.6-10.8 1.2-16.3.3-2.5-.4-4.9-1-7-2.7-1.1-.9-1.5-1.9-1-3.4.9-2.7 2.5-4.7 4.7-6.3 2.5-1.8 5.4-2.9 8.4-3.7 6.7-1.7 13.5-1.8 20.4-1.5h4c-.1-2.5-1.8-4.1-3-6.1zm270 7.6c.2 0 .5-.1.7-.1 0-1.1.2-2.2 0-3.3-.2-1.1-.6-2.2-.9-3.3-.2-.9-.6-1.9-.6-2.9-.2-2.5 1.3-3.6 3.7-2.9.5.2 1 .3 2.1.7-.5-1.2-.6-2-1.1-2.6-2.3-3-2.2-6.2-1.3-9.5.7-2.4.8-2.5 3.3-2.8.2 0 .4-.2.9-.4-.9-1.3-1.8-2.4-2.6-3.5.2-1.7.6-3.5.5-5.3-.1-4.5-.4-9.1-.8-13.6-.1-1.4-.3-3-.8-4.3-7.1-18-10.2-36.6-9.3-55.9.6-12.6 3.2-24.8 7.7-36.6.2-.7.4-1.3.7-2-.1-.1-.3-.2-.4-.3-1.4 1.1-2.8 2.1-4.1 3.3-5.7 5.5-9.1 12.4-11.1 20-3 11.2-2.6 22.6-.7 33.9 1.8 10.7 4.9 21 9 31.1 2.1 5.2 3.5 10.5 4.1 16 1.6 14.2-1.6 27.2-10.6 38.4-8.5 10.6-19.5 16.7-33.5 16.8-4.9 0-9.7.6-14.4 2.1-7.7 2.4-13.8 6.8-17.5 14.2-.7 1.4-1.1 2.8-1.6 4.2 9.2 6.9 27.1 8 32.5 2.2-7.5 0-15 0-21.4-4.9 1.5-3 3.8-5.8 6.4-7.9 5.9-4.8 12.6-5.4 19.3-1.6.8.4 1.5.9 2.4 1.4.6-2.9-1.3-4.5-2.7-6.4 2.7-1.1 5.3-1.3 7.8-.5 2.4.8 4.7 2 7.1 3 .4-2-1.1-3.3-1.9-4.9 2.6-1.2 5.3-1.2 7.9-1 2.9.2 5 1.8 7.3 3.7.2-3.5-2.3-4.8-4.4-6.4 1.6-1.6 3.4-2.5 5.5-2.8 3.1-.4 5.2 1.3 7.3 3.4.6-1.4-.1-2.4-.5-3.4-.5-1.2-1-2.4-1.3-3.7-.4-1.5.4-3.1 1.7-3.8 1.3-.7 2.5-.3 3.6.6.8.5 1.4 1 2 1.6zm-60.2-43.4c-.5.2-.6.2-.6.3-.3.5-.6.9-.9 1.4-7.5 11.3-17 20.5-28.6 27.5-16.2 9.8-33.8 14-52.6 13.7-4.7-.1-9.5-.3-14.1-1.1-7.4-1.3-14.4-3.9-21.1-7.3-9.1-4.5-17.2-10.3-23.2-18.6-.4-.6-1.1-1-1.7-1.4-5.1-3-10.2-6-15.4-9-.4-.2-.9-.4-1.5-.7.1.4.1.6.2.8.2.4.3.7.5 1.1 6 12 14.1 22.4 24.6 30.9 11.7 9.4 24.9 15 39.9 16 11.5.8 22.9-.3 34.1-3.1 19.6-4.9 36-14.8 48.6-30.6 4.8-5.9 8.7-12.4 11.8-19.9zm14.9-332.7c-.1-.3-.1-.5-.3-.5-5.4-3.8-10.8-7.6-16.1-11.4-4.3-3-8.9-3.8-13.9-2.5-.8.2-1.6.4-2.3.7-3.5 1.4-7 1.1-10.5-.2-1.8-.7-3.7-1.3-5.6-1.8-2.9-.9-6-1.2-8.9 0-2.3 1-4.4.9-6.7.2-3.2-1-6.3-.7-8.8 1.9-.4.4-1.1.6-1.7.6-3.7-.1-6.6 1.4-9.2 3.8-.3.3-.7.8-1.1.9-3.8.9-6.4 3.5-8.9 6.1-.4.4-.8 1-1.3 1-3.4.2-5.7 2.4-7.8 4.6-3.1 3.1-6.2 6.3-9 9.6-2.8 3.4-6.3 5.9-10.2 7.7-5.7 2.6-11.7 3.8-17.9 4.4-8.2.7-16.3.3-24.3-1-12.5-2-24.5-5.6-35.8-11.6-10.7-5.7-22.2-8.5-34.4-6.4-15 2.6-25.8 10.8-31.7 24.9-2.5 5.9-3.8 11.9-2.4 18.3 1.3 5.8 3.8 10.7 8.9 14.1 6.6 4.3 15.2 1.1 17.5-6.1-1.8 1-3.8 2.3-5.9 3.1-5.3 1.9-10.4-.3-12.9-5.4-.8-1.6-1.3-3.3-1.6-5.1-.9-4.1-.6-8.3 0-12.4 1.8-11.4 8.3-23 23.2-27 12.5-3.4 24.7-1.9 36.3 3.7 1.8.8 3.5 1.8 5.2 2.6 13.5 6.1 27.6 10.2 42.3 12 7.9 1 15.7 1.2 23.6-.3 8.9-1.7 16.6-5.6 22.1-13.2.7-1 1.5-1.9 2.3-2.8 2.5-3 5.2-5.8 8.5-8s6.8-3.5 10.8-2.7c.2 0 .4-.1.6-.2-.9-1.2-.9-1.2-4.5-2.2 1.6-2.1 3.5-3.7 5.9-4.6 3.5-1.3 6.8-.3 10.3 1.5-.2-3.7-3.1-3.8-5.5-4.8 4.9-2.7 9.3-1.7 13.5 1.3.5-2.2-1.3-3.1-1.9-4.9 2.1.1 3.8.3 5.6.4 2.5.1 4.4 1.4 5.9 3.4.8 1 1.6 2 2.5 3 1.8 2.1 4 3.5 6.9 3.8 2.4.2 4.4 1.3 5.9 3.1 1.3 1.5 2.5 3.2 3.7 4.9.4.6.7 1.2 1.3 2.2.1-.8.2-1.1.2-1.4 0-6.5-4.1-11.3-10.6-12.3-1.8-.3-3.5-.8-4.9-2-1.9-1.7-3.7-3.5-5.7-5.4 2.4-1.9 4.8-1.5 7.1-.7 2.3.7 4.6 1.7 6.9 2.5 3.4 1.2 6.9 1.6 10.6.9 2.9-.6 5.8-1 8.7-1.4 3.7-.5 7.1.3 10.2 2.5 1.9 1.3 3.8 2.8 5.7 4.2 1.8 1.3 3.6 2.6 5.5 3.7 1.4.4 2.9 1 4.6.7zm-66.5 54.2c1.1-.1 2-.2 3-.1 6.9.2 10.1 4.9 7.5 11.2-1.2 3-3 5.7-4.8 8.4-1.5 2.2-3.6 4.1-6.2 4.9-5.9 1.9-12.9.5-13.4-8.5v-1c-.1-11 8.4-22.4 19.4-26.2 4.2-1.5 7.7-.9 10.8 2.1 2.4 2.3 4.5 4.9 6.5 7.5 2.7 3.6 5.1 7.4 7.8 10.9s5.5 6.8 8.6 10 6.8 5.5 11.2 6.7c5.9 1.6 11.4.5 16.9-1.8 6.1-2.5 9.8-7.1 11.1-13.5.9-4.3.8-8.6 1-12.9.2-3.3.7-6.6 1.3-9.9.3-1.4 1.2-2.7 1.9-4.4-2.4.9-4.2 2.3-5.4 4.1-1.8 2.6-3.4 5.3-5 8.1-1.7 3-3.1 6.1-4.7 9.1a21.1 21.1 0 0 1-5.4 6.5c-2.1 1.6-4.4 2.7-7.2 2.5-2.6-.2-5.2-.2-7.8-.6-10.6-1.5-17.7-8.3-19.8-18.8-.3-1.2-.4-2.5-.7-4-1.6 1.6-1.8 3.5-2.3 5.2-3.1-1.4-5.6-5-5.5-8.3 2.8-1.2 4.8-3.1 5.3-6.7-4.8 2.1-9.6 2.7-14.4 3.3-1.9.2-3.9.5-5.7 1.1a30.4 30.4 0 0 0-21 32.1c.3 3 1.1 6.1 3.6 8.1 3.1 2.5 6.8 3.7 10.9 3.4 4.4-.3 7.8-2.7 10.5-6 2.3-2.8 4-5.9 5.5-9.2 2.1-4.9.7-10.5-3.5-13.7-3.2-2.2-7-2.2-10 .4zm17.7-41.4c-.5-4.6-2.1-8.6-5.7-11.5-3.2-2.6-6.6-3-10.2-1.2-.5.3-1.3.6-1.8.4-2.4-.8-4.5.1-6.5 1.3-1.2.7-2.2 1.6-3.7.9-.5-.2-1.4.2-2.1.6-.9.5-1.9 1.1-2.6 1.8a5.59 5.59 0 0 1-4.1 1.8c-3.4.2-5.9 1.7-7.5 5-.6 1.3-1.7 2.4-2.8 3.3-1.6 1.2-3.4 2.2-5.2 3.3-2.6 1.6-5.2 3.1-7.6 4.8a27.1 27.1 0 0 0-8.5 9.6c-2.3 4.3-3.7 8.8-5.2 13.4-2 6.4-4.2 12.6-7.4 18.5-5.9 10.8-14.4 18.7-25.8 23.5-6.5 2.7-13.3 4.2-20.2 5.2-6.1.9-12.1 1.2-18.2-.1-5.6-1.2-10.5-3.6-13.9-8.4-4.5-6.3-5.6-13.4-4.1-20.9.8-3.8 3.2-6.2 7.1-6.9 2.4-.4 4.8-.6 7.2-.9 1.2-.2 2.4-.5 3.5-1 1.4-.6 1.7-1.3 1.9-2.9-2.1 1.7-4.5 1.8-7 1.9-2.3.1-4.6.2-6.8.5-4.6.6-7.7 3.1-9.6 7.3-1.7 3.9-2.2 8-1.9 12.2.9 10.3 5.9 17.5 15.7 21.2 4.1 1.5 8.3 2.2 12.7 2.4 11.1.3 21.9-1.3 32.5-4.5 9.3-2.8 17.5-7.4 23.7-15.1 4.3-5.2 7.4-11.1 10-17.3 3.4-8.3 6.6-16.8 9.9-25.2 1.7-4.4 4.4-6.1 9.2-6h2.2c-.6-1.7-1.9-2.3-3.4-3.1 3.8-3.5 8.1-1.7 12.3-1.7-1.2-2.1-3.3-2.7-5-4.2 4-1.7 7.6.3 11.5.7a9.88 9.88 0 0 0-6.4-4.6c.5-.3.7-.6 1-.7 3.2-.9 6.2.2 9.6.5-1.6-2.4-3.6-3.8-6.1-4.6 1-1.6 2.4-2.1 3.9-1.5 1.8.7 3.5 1.7 5.2 2.7.7.4 1.2.9 2.2 1.6-.6-3.1-2-5.2-3.9-7 1.4-2.1 2.9-2.7 4.9-1.7 1.5.8 2.8 1.9 4.1 3 .7.5 1.2 1.2 2.2 2.1-.4-3.1-1.5-5.4-3.3-7.4 1.3-.9 2.6-1 3.8-.4 1.3.7 2.6 1.4 3.6 2.5 1.9 2.1 3.5 4.5 5.2 6.7.5.6.9 1.3 1.3 1.9-.3-4.8-2.5-8.8-5.3-12.6 2.6-1.2 4.1-1.1 6.4.4 2.7 1.7 4.7 4.3 6.5 6.9 1.1 1.2 1.8 2.4 2.5 3.5zM362 352.2v.7c2.6 6.1 3 12.4 1.3 18.8-.6 2.3-.8 4.6.1 7 .2.6.2 1.3.2 1.9-.1 3.3-.2 6.7 1 9.9.1.4.1 1 0 1.4-1.2 2.8-.8 5.6-.5 8.4.1 1.2 0 2.4-.3 3.5-.7 2.5-1 5-.3 7.4.3 1 0 1.6-.6 2.4a6.48 6.48 0 0 0-1.4 5.5c.3 1.3-.1 2.2-.7 3.2a33.8 33.8 0 0 1-12 12.9c-1.8 1.1-3.5 2.6-5 4.2-.9.9-1.7 1.3-2.9 1.4-13.5 1-24.4 6.8-32.5 17.7-3.1 4.2-5.5 8.8-7.2 14 11.9 5.2 23.8 6.7 36.1 2.1-.7-.4-1.4-.5-2.1-.7-4.3-1.1-8.7-2.1-12.9-3.4-1.8-.6-3.5-1.6-5.2-2.5-1-.6-1.4-1.4-.9-2.7 1.6-4.2 3.7-8.1 6.9-11.4 3.9-3.9 8.7-5.8 14.2-4.8 2.5.4 4.9 1.6 7.4 2.4.6.2 1.1.4 2.1.8-2.3-5.3-7.2-6.4-11.4-8.4 6-.6 11.9-.2 18.1 2.1-2-2.4-4.4-3.1-6.6-4.5 3.8-3.8 8.2-2.8 12.6-2.2 0-.2.1-.4.1-.6-1.6-.9-3.3-1.8-4.9-2.8 2.1-2.4 2.9-2.6 10-1.3-1.2-1.7-3.2-1.9-4.8-2.9.9-2.1 2.2-3.6 4.3-3.7 1.9-.1 3.8.6 5.7 1-1.6-2.2-4.2-2.7-6.5-3.8.9-3.8 4-3.6 7-3.7-2.2-2-4.6-3.5-3.9-6.9 2.3.6 4.3 2.1 7.3 1.4-5.5-2.5-7.2-6.6-6.7-12.1 2.6.3 5 1.6 7.6.3-6.3-2.6-8.4-6.5-6.3-11.9 2.1.3 4.2.8 6.3.2-2.3-1.1-4.7-1.9-6.1-4.2-1.4-2.3-1.7-4.7-1.2-7.4 1.3.1 2.5.3 3.7.3 1.1 0 2.3-.2 3.4-.3-.7-.7-1.5-.9-2.2-1.2-1.2-.6-2.4-1.1-3.4-1.9-1.8-1.4-2.2-3.3-1.3-5.5 3.2.1 6.7.9 9.4-2.5h-1.8c-5.1.5-7.2-.8-8.6-5.7-.2-.6-.3-1.3-.5-1.9-.5-2.1-.8-4.1-1.4-6.2-.4-1.2-1-2.7-2.7-3.8zm54.1-32.6c.2 0 .3-.1.5-.1v-2.3c0-6.3-1.1-12.5-2.9-18.5-3.4-11.8-9.3-22.3-17.2-31.7-9.3-11-20.6-19.6-33.2-26.6-1.3.6-2.7 1.2-3.9 1.9-11.8 6.1-20.9 14.9-26.3 27.1-5.2 11.8-6.3 24.1-4.8 36.8.3 2.5.8 4.9 1.2 7.3.5-.6.5-1.2.5-1.7 0-6.8.7-13.5 2-20.1 1.7-8.6 4.4-16.8 9-24.3 5.3-8.6 12.5-14.9 21.9-18.6 1.6-.6 2.9-.7 4.4.2 3.2 1.9 6.6 3.6 9.6 5.8 7.5 5.4 13.2 12.5 18.3 20.1 8.8 13.2 15.2 27.6 20.2 42.6.3.6.5 1.4.7 2.1zm-28.6-95.2c.1.3.2.5.3.6.3.3.6.5 1 .7 7.7 5.2 16 6.8 25.1 5.3 3.1-.5 4.7-2.2 5.3-5.1l.3-1.2c.8-4 .4-7.9-.3-11.9-1.5-8-4.5-15.6-8.1-22.9-.6-1.2-.9-2.4-.9-3.7.1-4.5-.8-8.9-2.3-13.1-3.5-10.3-10-18.6-18.4-25.3-1.4-1.2-2-2.2-1.8-4.1.6-4.9.1-9.8-1.5-14.4-3.7-10.3-11.1-17-20.7-21.6-.1-.1-.3 0-.6.1.6.6 1.1 1.2 1.7 1.8 4 4.2 7.7 8.6 10.7 13.6 2.3 3.8 4.1 7.8 4.9 12.2.5 2.9.6 5.8-.4 8.7-5.1-1.1-9.8.2-14.4 1.8.7.3 1.4.5 2.1.6 5 .8 9.8 2.3 14.4 4.5 11.5 5.5 18.9 14.4 21.3 27.1.3 1.5.4 3.1.7 5.1-4.5-3.3-9.1-4.7-14.1-4.9 1.6 1.6 3.3 3 4.9 4.5 6.5 5.9 11.9 12.7 15.3 20.9 2.6 6.5 3.2 13.2 1.6 20.1-.6 2.3-1.9 3.5-4.1 3.9-1.8.3-3.7.4-5.6.3-2.3-.2-4.7-.6-7-1.1-3.2-.9-6.2-1.7-9.4-2.5zm100 238c-6.7 3.3-13.7 4.9-21.2 4.9-7.4 0-14.5-1.6-21.6-4.4-.1-1.5-.3-2.9-.2-4.3.3-4.2 2.6-7.3 5.9-9.7 3.2-2.4 7-3.8 10.8-4.9l2-.6c-2.6-.6-5-.2-7.4.4-7 1.7-12.1 6-16.3 11.7-.6.8-1.2 1.7-2 2.8-1.8-.9-3.6-1.5-5.1-2.5-3.4-2.4-6.6-5-9.9-7.5-4.9-3.5-9.6-7.2-14.7-10.5-6.2-4-13-5.7-20.5-5.1-4 .3-8 .7-11.6 2.4-.9.4-1.8 1.1-2.7 1.6.1.2.1.3.2.5 6.8-2.9 13.7-3.3 20.8-1.6 7 1.6 13.2 4.9 18.9 9.3-.9 0-1.6-.2-2.4-.4-5.6-1.3-11.1-2.3-16.9-2.1-3 .1-6 .6-8.8 1.8-.4.2-.8.6-1.5 1.1h4.4c5.5-.1 10.9.4 16.2 1.5 10.4 2.1 19.8 6.2 28.1 12.9 1.3 1 2.2 2.2 2.8 3.8 1.1 3.1 3.1 5.4 6.5 6.1 9 1.9 18.1 3.1 27.4 2.1 5.1-.6 10.1-1.9 14.4-4.8 1.8-1.2 3.3-2.5 4.4-4.5zm-82.4-43.7c-.1-.2-.1-.4-.2-.7.9-.3 1.9-.7 2.8-1 1.5-.5 3-.7 4.4-1.4 2.5-1.3 3.4-4 2.2-6.4-.2.5-.4.9-.6 1.3-1.6 2.9-5 4.3-8.1 3.2-.6-.2-1.4-.7-1.5-1 0-.6.4-1.4.9-1.8 1-.7 2.1-1.2 3.2-1.8 1.3-.8 2.7-1.5 3.9-2.4 1.6-1.3 1.7-2.6.6-4.7-.3.6-.5 1.3-.9 1.7-.6.6-1.3 1.3-2.1 1.5-3.8.9-8.2-3.2-7.8-7.3.7-.2 1.5-.4 2.2-.7 1.7-.8 3.4-1.5 5-2.5 1.4-1 2.3-2.4 2-4.5-1.4 1.1-2.6 2.1-4 2.9-2.5 1.4-4.8 1-6.4-1.4-.9-1.4-1.7-3-2.2-4.6-1.3-4.1-1.8-8.4-2-12.7-.2-3.3-.3-6.6-.5-9.9-.5.7-.8 1.4-.9 2.2-.8 4-.7 7.9-.2 11.9.4 3.7 1 7.4 1.5 11.1.3 2.3-.3 3.1-2.7 3.3-1.1.1-2.3-.1-3.4 0-.8.1-1.6.3-2.3.5.8.5 1.6.4 2.3.5 1.6.2 3.2.5 4.8.9 1.2.3 1.7 1.1 1.6 2.3-.1 2.1-1 3.2-3 3.6-1.1.2-2.3.3-3.4.5-.9.2-1.9.2-2.5 1.3 1.5 0 2.9-.1 4.3 0 2.5.2 4.8 1 6.7 2.6 1.7 1.4 1.8 3 .1 4.5-.6.6-1.5 1-2.3 1.3-1.1.4-2.3.7-3.5 1.1-.9.3-1.8.6-2.4 1.7h1.9c1.6.1 3.3.1 4.8.4 2.1.4 2.5 1.3 2.1 3.4-.4 2-1.6 3.5-3.1 4.8-.6.5-1.3 1.1-2.1 1.7 3.3 1 6.2-.2 9.3-.3-1.2 1.3-2.2 2.4-3.2 3.6 2.6 2.5 5.3 4.2 8.1 5.8 3.7 2.1 7.7 3.1 11.9 3 2.8 0 5.5-.2 8.3-.3.5 0 1-.1 2-.1-2.6-1.6-5-1.6-7.3-1.8-1.9-.2-3.9-.3-5.8-.5-1.1-.1-2.2-.5-2.8-1.7 2.1-2.4 5.2-1.4 7.7-2.4-1.2-.4-2.4-.7-3.5-.8-2.1-.1-4.2 0-6.3 0-1.3 0-2.7-.3-3.9-1.5 2-.4 3.8-.6 5.5-1 2.4-.6 3.2-1.4 3.6-3.2-6.1.9-7.8.9-11.1-.6 2-.4 3.9-.6 5.6-1.1 1.9-.6 3.5-1.6 3.7-4.3-3.7 2.7-7.3 3-11 1.8zM106 396.3c2.1-.1 4.2-.3 6.3-.3 6.4.2 10.5 5.1 9.7 11.4-.1.7-.7 1.4-1.2 2-2.1 2.3-4.4 4.5-6.4 7-1.6 1.9-2.6 4.3-3.3 6.7-.4 1.5-.2 2.7.8 3.8 4.3 5.1 9.8 7 16.3 6.2.7-.1 1.3-.4 2.2-.6-3.7-1.6-5.6-3.1-7.2-5.7-3.9-6.3-2.1-12.4 4.5-15.6.9-.4 1.8-.8 2.7-1 2.4-.6 4.9-1 7.4-1.5.7-.1 1.6.2 2.2-.6-1.6-1.4-2.3-1.9-4.2-1.7-3 .2-5.9.8-8.9 1.2-.9.1-1.8.3-2.9.5-.4-3.2.5-5.7 2.9-7.3 1.4-.9 3-1.5 4.6-2.1.7-.3 1.5-.4 2.7-.7a17 17 0 0 0-11.1-.7c.7-4.2 4.3-3.9 7.1-5.1-7.7-3.8-9.8-11-12.2-18.1-1.5 6.7.5 13.1 2 19.7-5-.8-9.9-1.3-14 2.5zm250.3-214.7c-2.4 0-4.5.1-6.6 0-6.5-.4-6.7-.5-10-5.8-1.7-2.6-3.2-5.3-4.9-7.9-1-1.4-2.2-2.6-3.5-3.7-.9-.8-2.1-1.2-3.1-.8.3 2.4.6 4.6 1 7 .8-.7 1.4-1.3 2.1-1.9 1.9 1.1 2.9 2.7 3.8 4.4s1.7 3.5 2.7 5.2a13 13 0 0 0 7.6 6.2c2.1.6 3.7 1.6 4.6 3.7 6.4-3 12.8-2.5 19.2-.8 4.2 1.1 8.2 2.6 12.3 3.8 2.4.7 4.8 1.4 7.3 1.9 1.4.3 2.7.2 4.1-1-.8-.7-1.5-1.3-2.3-1.9-5.4-4.1-11.6-6.5-18.1-8.1-.9-.2-1.9-.6-2.6-1.2-3.1-2.8-6.1-5.6-9-8.6-2.2-2.3-4.2-4.7-5.1-7.9-4.4 4.6-4.3 9.3.5 17.4zm-32.8 77c-3.7 3.4-6.4 7-8.5 11-3.8 7.3-5.1 15.2-5.3 23.3-.3 11.6 1.5 23 2.1 34.6.4 7.4 0 14.8-1.8 22l-.3 1.4c.2 0 .3.1.5.1.8-1.9 1.7-3.8 2.4-5.8 1.9-5.5 2.5-11.3 2.8-17 .3-6.7.4-13.3.5-20 .1-9.4-.1-18.9 1.1-28.3.9-7.1 2.3-14.1 6.3-20.3 0-.2 0-.4.2-1zM198.6 89.2c-.1-.1-.2-.3-.3-.4 5.2-7.5 11.2-13.6 21.6-12.9a9.74 9.74 0 0 0-8.2-1.9c-2.7.6-5 1.8-7.1 3.5-3.4 2.6-6.1 5.9-8.3 9.5-2.7 4.4-4.7 9.1-6.7 13.8-2.4 5.9-4.6 11.8-7.4 17.5a35.98 35.98 0 0 1-19.3 18.1c-3.3 1.3-6.7 2.4-10.2 3.2-3.7.9-7.5 1.3-11.8 2 5.7.1 10.7-.5 15.8-1.5 12.8-2.4 22.8-8.9 29-20.6 2.7-5 5-10.2 7.3-15.4 2.1-4.7 5-8.8 8.5-12.4 1.1-1.1 2.5-2.1 3.9-2.8 2.3-1.2 4.2-.7 5.9 1.2.4.4.7.8 1.3 1.4.1-.7.2-1.1.2-1.5v-1.7c-.3-2.7-1.9-4-4.5-3.5-1.6.3-3.1.9-4.6 1.5-1.8.9-3.4 1.9-5.1 2.9zm-3.4 19.8c-.1.8-.3 1.7-.4 2.5-.2 3.3.6 6.5 1.8 9.5 1.8 4.7 3.8 9.3 5.7 14 1.2 2.9 2.2 6 2.3 9.2.2 5.6-1.2 7.5-6 10.1-3.2 1.7-6.2 1.2-8.6-1.6-1.3-1.6-2.2-3.6-3.3-5.4-.3-.4-.5-.9-.7-1.3-.4 1.1-.6 2.2-.6 3.2 0 5.2 2.4 8.5 7.6 9.5 2.3.5 4.7.5 7 .4 10.2-.4 18.1-8.6 18.1-18.7 0-2 0-4.1-.9-5.9-.8 3-1.4 6-2.3 9-.7 2.4-2 4.6-4 6.3-.8.7-1.8 1.2-2.7 1.7-.2-.4-.3-.5-.3-.5.1-.4.1-.8.2-1.2 1.8-7 .6-13.7-2.6-20.1-1.3-2.5-2.7-4.8-4.1-7.2-2.6-4.3-5.2-8.5-6.2-13.5zm205.2 95.5c-1.1.7-1.7 1.2-2.4 1.6-3.1 2.1-6.4 3.9-10 5-4.8 1.4-9.5 1.3-13.9-1.4-2.6-1.6-5.3-3.2-7.9-4.8-5.7-3.5-11-7.5-17.6-9.2.3-2.1.3-2.1-.4-3.4-1.2 1.4-2.4 3-3.8 4.3s-3 2.2-4.8 3.4c2.4.3 4.2.1 6.1-.8.7-.3 1.7-.4 2.5-.2 4.7.9 8.8 3.3 12.5 6.3 3.4 2.9 6.7 5.9 9.9 9 5 4.9 11 6.3 17.7 5.8 3.5-.3 6.4-1.9 8.5-4.7 2.5-3.1 3.4-6.6 3.6-10.9zM94 357.5c-.2-.1-.4-.1-.6-.2-.7 2.1-1.4 4.3-2.2 6.4-3.2 8.6-9.2 14.2-18.2 16.5-2 .5-4 .8-6 1.1-2 .3-3.8 0-5.6-.9-4-2-8.2-3.2-12.7-2.8-9.4 1-15 6.9-19.1 14.7 3.3 6 10.6 9.4 16.7 7.8-4.8-1.7-9.4-3.5-12.5-7.9 4.2-4.5 8.8-8 14.6-9.7 1.2-.3 2.4-.5 3.6-.6 5.2-.3 9.3 2 12.7 5.7.6.6 1.1 1.3 2 2.3v-4.3c2-.5 3.9-.8 5.8-1.3 5.8-1.6 11.1-4.1 15.4-8.5 5-5.2 6.7-11.5 6.1-18.3zm171.7-252.2c.1.5.2.9.3 1.3.6 2.2 1.3 4.4 1.9 6.6 2.4 10.1 2.5 20.1-1.2 30-3.3 8.7-8.9 15.6-16.1 21.4-.7.5-1.3 1.1-1.9 1.6 8-2 15-1.8 20.2 5.7-1.4-5.8-5.4-8.9-11.3-10.5 2-2.3 3.8-4.2 5.4-6.4 2.6-3.5 6.8-3.4 9.6-1.5 1.8 1.2 3.3 2.9 4.9 4.3.2.2.4.5.6.7s.4.3.6.4c-1.8-5.7-4.1-10.8-11.1-11.4.7-2.2 1.9-3.8 3.9-4.1 1.9-.2 3.8.1 5.9.2-1.2-2.3-3.3-3.3-5.6-3.8-.5-2.7-.4-3.1.6-5 4.9 2.6 5.5 2.8 7.6 2.4-3.9-2.7-8.2-5.2-7.9-11.2 4.9 2.6 9.6 5.3 15.2 3.2-.7-.4-1.5-.6-2.2-.9-3.3-1.1-6.7-2.2-9.4-4.4-1.4-1.1-2.6-2.7-3.7-4.1-.6-.9-.8-2-.3-3.2 1.6.8 2.9 2 5.1 1.3-4.7-3.7-7.9-8.1-11.1-12.6zm160.4 305.9c2.2 2.1 4.4 3 6.8 3.3 3 .4 6 .7 9 1 3.1.4 6.1 1.1 8.2 3.7.1.2.4.2.6.3.2-.2.4-.4.4-.6.1-1.1.2-2.2.3-3.5 3.8-.1 4.8 3.1 6.5 5.7 1-1.8.2-3.4-.1-5-.1-.8-.1-1.5.6-1.9.8-.5 1.8-.6 2.5.2s1.3 1.7 1.7 2.6c.9 2 1.6 4.1 2.6 6 1 1.8 2.1 3.7 3.5 5.2 1.8 2 4.3 2.7 7.3 2.1-.8-.7-1.3-1.1-1.8-1.6-1.4-1.6-2.9-3.1-4.1-4.8-1.7-2.4-2.4-5.2-2-8.1.6-5 3.1-8.3 8.7-8.1.6 0 1.3.1 1.9.2 3.9.4 7.6 1.6 11.3 3 .8.3 1.6.6 2.4.8-4.1-3.6-8.8-6.2-14.2-7.2-5.4-1-10.2.1-14.5 3.5-2.7 2.1-5.7 3.4-9 4-5.8 1.2-11.6 1.2-17.5.6-3.4-.2-7-.8-11.1-1.4zM221.4 67c0 .1-.1.3-.1.4.3.1.5.3.8.4 2.7.9 3.7 2.1 3.4 4.8-.2 2-.7 4-1.5 5.9-1.3 2.9-2.7 5.8-4.4 8.4-2.8 4.3-4.5 9-5.9 13.8-.9 3.1-1.4 6.4-1.2 9.6.4 6.2 3.3 10.8 9.1 13.3 3.1 1.3 6.4 1.9 9.7 1.9h1c.2 0 .5-.1.5-.1-2.7-1.3-5.6-2.3-8.2-3.9-4.1-2.5-6.6-6.3-7-11.1-.2-2.5.1-5.2.6-7.7.8-4.2 2.7-8 4.7-11.7 2.3-4.4 4.6-8.8 5.9-13.6.5-1.8.8-3.7.8-5.5 0-3.3-1.8-5.1-5.2-5.1-1.1-.1-2 .1-3 .2zm49.8 160.3c-5.3-5.7-10.3-11.2-15.4-16.5-3-3.2-6-6.4-9.3-9.3-2-1.8-4.3-3.6-6.7-4.7-9.6-4.4-19.7-6.1-30.2-4.2-2.7.5-5.5 1.1-8.4 2.8 3-.2 5.4-.4 7.8-.6 12.7-.7 24.2 2.2 33.9 10.8 5.1 4.5 10.3 8.9 15.6 13.2 2.9 2.4 6.1 4.6 9.2 6.8 1 .7 2.2 1 3.5 1.7zm22.5-77.2c4.5-3.4 9.5-5.5 15-6.7 4.7-1 9.5-1.4 14.3-1.2 6.3.2 12.3-1.2 17.9-3.9 3.4-1.6 6.2-3.8 8.4-6.9 2.1-3 3.4-6.3 3.5-10.1-.3.1-.4.1-.4.1-.4.5-.8 1-1.2 1.6-6.5 8.8-15.1 13.6-26.1 13.8-3.8.1-7.6.4-11.4 1-5 .7-9.8 2.2-14.1 5-2.7 1.8-4.9 4-5.9 7.3zM273.4 33.8c2.6.9 4.6.8 6.6.5 3.8-.6 7.3.1 10.2 2.8.9.9 2 1.6 3 2.5 2.8 2.3 5.9 3.8 9.4 4.4l9.3 1.8c8.3 1.8 15.1 5.7 19 13.8 1.4 2.9 3.2 5.6 5.1 8.3 1.2 1.8 2.8 3.3 4.3 4.9.3.3.9.4 1.2.6-1.9-3.9-3.7-7.7-5.6-11.5-1.6-3.2-3.2-6.4-4.9-9.5-1.5-2.8-3.8-4.8-6.7-6.2-5.1-2.5-10.4-4.3-16-4.8-5.3-.5-10.1-1.9-14.4-5.3-2.3-1.8-5-3-7.7-4.1-1.4-.6-3.2-.8-4.7-.6-2.5.5-5 1.5-8.1 2.4zM56.2 62.1c.1.1.2.2.3.2.8-.6 1.5-1.2 2.3-1.8 11.9-9 24.6-10.7 38.3-4.7 7.7 3.4 14.2 8.5 20 14.6 2.6 2.7 5.3 5.3 8.1 7.7 3.8 3.2 8.3 5.2 13.3 5.7 2.8.3 5.7.2 8.5.2 3.8 0 7.5.4 11.1 1.5l1.5.3c-2-1.6-4.2-2.5-6.7-2.9-3.5-.4-7.1-.7-10.7-.9-3.9-.3-7.5-1.2-10.9-3.1-3.9-2.1-7.2-5-10.1-8.3-4.5-5-9.7-9.1-15.3-12.8-4.1-2.7-8.4-4.9-13.1-6.4-14-4.3-25.9-.7-36 9.8l-.6.9zm270.5 256.8c-.1 1.1-.4 2.5-.4 3.8.1 4.1.1 8.1.5 12.2.6 6.2 2.4 12 5.7 17.4a95.3 95.3 0 0 1 10.7 25c.2.5.4 1.1.7 1.9.2-.5.3-.7.3-.8 2-9 .4-17.3-4.7-24.9-3.7-5.6-6.7-11.5-8.6-17.9-1.6-5.6-2.8-11.2-4.2-16.7zm-149.4-225c2.5-5.3.6-10.2-2.7-12.8-2.5-2-5.3-3.1-8.3-4-5.5-1.5-11.1-1.8-16.7-1.9-8.5-.2-16.7-1.7-24-6.2-.1-.1-.4 0-.7 0 1.9 2.5 4.7 4.7 8.2 6.5 6.1 3.2 12.7 4.6 19.5 4.7 5.5.1 10.9.4 16.1 2.4 4.9 2 8.3 5.2 8.6 11.3zm112.6 74.6c.2-.1.4-.2.6-.4 7.7-7.4 16.8-11.1 27.5-10.9 5.5.1 10.9-.8 16-2.9 3.4-1.4 6.4-3.3 8.6-6.2.3-.4.4-.9.8-1.6-10.5 5.5-16.6 7.1-26.1 6.8-5.2-.2-10.2.9-14.9 3-5.6 2.5-10 6.4-12.5 12.2zm116.7 104.1c2.4-4.9 2.7-9.8 1.9-14.6-1.5-9.3-6.4-16.8-12.7-23.4-.1-.1-.3-.1-.6-.1.4.8.7 1.5 1 2.2 1.2 2.8 2.5 5.6 3.5 8.6 2.3 6.8 4.2 13.7 1.3 20.9 1.8 2 3.6 4 5.6 6.4zm-94.5-147.3c2.6 1.8 5.3 3.2 8.3 3.8 3.4.7 6.4-.1 8.6-2.8 1.5-1.8 2.7-3.9 3.5-6 2.5-6.5 2.8-13.4 2.2-20.3-.3.8-.5 1.7-.7 2.5-.7 4.5-1.7 8.9-3.9 13-2.3 4.3-5.9 6.8-10.9 7.1-1.3.1-2.6.3-3.9.5-1.3.2-2.5.6-3.2 2.2zm64.9-16.2c.2 0 .3-.1.5-.1-.2-2.3-.3-4.6-.7-6.9-1.1-6.7-4.2-12.2-10.3-15.7-2.5-1.4-4.9-2.9-7.2-4.5-3.6-2.6-7.2-5.3-10.8-8-.5-.4-1-.9-1.6-1.4-.1.2-.2.3-.1.4.1.4.3.8.5 1.1 1.7 3.4 4.1 6.2 7.1 8.6 1.9 1.4 3.7 2.9 5.7 4.1 6.8 4.3 11.6 10.3 14.7 17.7.5 1.3 1.1 2.5 1.6 3.8l.6.9zm-30.6-26.7c.3 2.7.7 5.5.8 8.2.3 4-1.3 6.9-5.1 8.5-1.2.5-2.2 1.4-3.2 2.2-.9.8-.8 1.8 0 2.5.5.5 1.2.9 1.8 1.2 6.4 2.8 12.4-1.4 11.7-8.4-.4-5.3-3-9.8-6-14.2zm.7 390.9c3.8-.3 7.4-1.4 10.5-3.7 2.3-1.7 4-3.9 4.1-6.9.1-1.7-.1-3.5-.8-5-.7-1.8-.3-3.1.8-4.5 1.7-2.1 3.8-3.8 6.2-5.1.6-.3 1.2-.7 2.1-1.2-2-.2-3.4.4-4.7 1.3-2.2 1.4-4.2 3-6.3 4.6-.8.6-1.4 1.2-2.6 1s-2.4.1-3.6.9c.7.7 1.2 1.3 1.7 1.8 2.7 2.9 3 6.1.7 9.3-1.1 1.6-2.6 3.1-4.1 4.4-1.1 1.2-2.6 2.1-4 3.1zM325.5 183c-2-.3-3.9-.3-5.7-.8-4.3-1-7.7.1-10.4 3.5-.5.6-1 1.1-1.4 1.7-2.6 3.9-5.2 7.8-7.8 11.8-.3.4-.4.9-.8 1.8 5.5-2.3 10.6-4 16-5-1.5-.3-2.9-.5-4.3-.4-1.4 0-2.9.3-4.4.4.7-3 3.7-7.2 6.5-9.4 1.3-1 2.8-1.6 4.5-1.5 1.5.1 3.1.1 4.6 0 1.5-.1 2.7-.5 3.2-2.1zm-8.2 30.6c1.2-1.1 2.3-2.2 3.5-3.1 2.6-1.8 5.2-3.6 7.9-5.3 1.7-1.1 3.5-2 4.5-3.9-5.1 2.1-10.8 3-15 8-.1-1.6-.4-2.6-.1-3.6.4-1.4 1.1-2.7 1.7-4 .7-1.4 1.5-2.7 2.1-4.1.5-1.2.5-2.4-.4-3.6-1.4 2.1-2.7 3.9-3.9 5.8-.9 1.4-1.7 2.8-2.2 4.3-1.3 3.7-.4 6.8 1.9 9.5zm13.7-39.9c-1.6 1-3 .6-4.4.1-1.8-.7-3.6-1.5-5.5-2-7.1-2.2-15.2.7-19.4 6.7 2.8.6 5.7 1.2 8.7 1.8-.2-2.2-2.4-2.6-3.9-3.8.5-.4.8-.6 1.2-.8 6.4-3.5 12.6-3.3 18.5 1.1 1.1.8 2.3 1.5 3.6.8 1.2-.8 1.3-2.2 1.2-3.9zm24.8-100.2c.1-2.7-.7-5-2.2-7.1-4-5.4-9.7-8.1-16.2-10.4 1 2.4 1.8 4.4 2.6 6.5 3.3.5 6.4 1.5 8.9 3.7 2.4 2.3 4.5 4.8 6.9 7.3zm-82.3-19.6c-.2 0-.3.1-.5.1.1.9 0 1.8.3 2.7.3.8.7 1.6 1.3 2.3 2.1 2.8 2.6 5.9 2 9.2-.4 2.6-1.1 5.2-1.7 7.7.1 0 .4-.1.5-.2 3.8-3.1 5.3-10.2 2.9-14.4-1.4-2.5-3.2-4.9-4.8-7.4zm161.4 392.4c4.4-1.6 8.5-3 12.8-4.6-5.9-1.7-10.1-.2-12.8 4.6zM267.1 69.5c.6-.7 1-1 1.2-1.3 1.4-2.5 1-5.8-1.1-7.9-1.6-1.6-3.4-3-5.4-4.8.2.9.2 1.5.5 1.9.7.9 1.4 1.8 2.2 2.5 1.9 1.6 2.7 3.6 2.7 6-.1 1.1-.1 2.1-.1 3.6zm-27.5-12.3c6.2 1.5 6.4 6.7 7.2 12 1.5-3.3 1.6-6.1 0-8.8a7.03 7.03 0 0 0-7.2-3.2zm18.3 10.7c2.1-4.2-.2-8.5-4.4-9 2.3 2.4 4 5.1 4.4 9zm170.9 374c2.9-.8 5.7-1.7 9-2.6-4.1-1.8-6.6.2-9 2.6z" fill="#fff"/><path d="M258.3 119.9l-.9 7.8c-1.2 8.6-3 17-6.5 24.9-1.4 3.3-3.2 6.4-5.1 9.4-3.6 5.6-8.4 9.9-15.4 12.1.8.3 1.3.5 1.7.6 2.5.5 4.9 1.3 7 2.8 1.4 1 2.7 2.3 3.4 4.5-8-3.5-15.9-3.4-23.9-1.4 4.1 1.9 8.7 2.7 11.9 6.4-2.5-.3-4.9-.6-7.4-.8-9.4-.7-18.7-.7-27.8 2.2-7 2.3-12.8 6.1-16.4 12.7-1.9 3.4-3 7-2.8 11.2 1-.3 1.7-.6 2.5-.9 11.4-4.1 23.2-6.3 35.4-5.5 17.9 1.2 32.4 8.8 42.9 23.3 6.9 9.5 16.1 15.5 27 19 11.7 3.8 23.1 2.7 34.2-2.5 8.3-3.9 15.3-9.5 21.7-16 1.2-1.2 2.6-2.2 3.8-3.3-.1.3-.1.9-.4 1.3-1.5 2.2-2.8 4.6-4.7 6.5-11.5 11.9-25.4 19.6-41.8 21.7-17.5 2.3-31.6-4.4-42.1-18.3-2.9-3.9-5.5-8.1-9-11.5a55.3 55.3 0 0 0-24.6-13.8c-.5-.1-1.1-.2-1.7.1.7.4 1.4.8 2.1 1.1 5 2.5 10 5.2 14.4 8.7 2.2 1.7 4.2 3.8 6.2 5.8.9.9 1.4 2.1 2.3 3.6-1.3.2-2.2.5-3.1.6-2.8.1-5.5-.5-8.1-1.6-3.2-1.4-6.4-2.8-9.4-4.7-3.2-2-6.6-3.2-10.2-3.9-18.3-3.5-35.2.1-51.1 9.5l-.5.5c1 .5 1.9.2 2.8.1 5.2-.3 10.4-.8 15.6-.8 8.7.1 17.2 1.5 25.3 4.8 7.4 3.1 13.9 7.5 18.7 14 1.5 2 2.7 4.2 4 6.3-.1.2-.3.3-.4.5-.8-.3-1.5-.6-2.3-.9-9.1-3.9-18.5-7.1-28.3-8.9-6.9-1.3-13.9-1.9-20.8-.3-.5.1-.9.2-1.4.4l-1.5.5c1.5.4 2.6.5 3.6.6 3.9.5 7.7 1.5 11 3.7 2.8 1.8 5 4.1 6.2 7.5-1.8-.3-3.4-.7-5-.9-8.2-1.2-16 .3-23.6 3.3-8.8 3.5-16.3 8.8-23.1 15.2-1.4 1.3-2.8 2.7-4.2 4.1-5.5 5.6-8.5 12.4-9.6 20.1-1.6 11.6.6 22.7 4.7 33.4 2.1 5.4 4.7 10.6 7.8 15.4.4.6.7 1.2 1.2 2.1-1.9-.4-3.2-1.2-4.3-2.2-2.9-2.7-5.9-5.4-8.4-8.5-3.2-3.9-5.9-8.2-8.8-12.3-.4-.6-.8-1.2-1.3-1.9 0 4.7 7.9 22.2 14.4 31.7 6.6 9.8 14.7 18.2 24.7 24.7-.9-.3-1.8-.5-2.6-.9-15.8-6.1-27.4-16.9-34.9-32-5.2-10.4-8-21.5-8.7-33-1.1-18.2 3.5-35.1 11.7-51.2 4.6-9 10.8-16.8 18.8-23.1 2.7-2.1 5.6-3.9 8.5-5.9-.2-3.9 1.6-7.1 4-10.1 3.1-3.9 6.9-7.1 11-10 .7-.5 1.4-1 2.3-1.6-.2-1.2-.5-2.4-.7-3.6-1.2-7.5.7-14 5.9-19.6 2.9-3.1 6.4-5.3 10.2-7 4.4-2 9-3.3 13.7-4.3 25-5.2 42.5-19.7 52.6-43.2 2.1-5 3.8-10.2 5.7-15.3.4-1.2.9-2.4 1.4-3.5.1.4.3.4.5.5z"/><path d="M83 406c1.2 2 2.9 3.6 3.3 6h-4c-6.8-.2-13.7-.2-20.4 1.5-3 .8-5.9 1.8-8.4 3.7-2.2 1.6-3.8 3.7-4.7 6.3-.5 1.5-.1 2.5 1 3.4 2 1.7 4.4 2.3 7 2.7 5.4.9 10.9.4 16.3-.3l4.6-.6c0 .2.1.3.1.5-3.4.9-6.7 1.8-10.1 2.6-6.4 1.4-12.8 2.1-19.4 1.3-3.7-.5-7.2-1.4-10.3-3.4-.8-.5-1.6-1.1-2.4-1.7 1.3-3.5 3-6.6 5.2-9.4 5.7-7.1 13.4-10.9 22.1-12.8 3.9-.8 7.9-1.2 11.9-1 1.6.1 3-.3 4.4-1 6.9-3.4 11.6-8.8 14.9-15.6 3-6.2 4.1-12.8 4.6-19.6.8-12-1.6-23.5-6.6-34.4-5.1-11-10.3-21.9-15.5-32.8-4.4-9.3-8.9-18.6-12.1-28.5a67.2 67.2 0 0 1-3-14c-1-11.2 5.4-19.9 16.5-22.1 6.4-1.3 12.8-.7 19.1.6 8.7 1.8 17 4.9 25.1 8.7.4.2.7.4 1.4.9-4.1-.8-7.7-1.5-11.3-2.1-7.8-1.2-15.5-1.6-23.3.2-3 .7-5.7 1.9-8.2 3.5a10.7 10.7 0 0 0-4.4 6c-1.5 4.7-1.3 9.5-.7 14.3 1.3 10.7 4.6 20.9 8.4 31 4.7 12.6 9.8 25 14.5 37.5 2.1 5.7 4.1 11.5 5.5 17.4 2 8.6.9 17.1-1.6 25.5-1.9 6.3-4.8 12.1-9.1 17.1-2.4 2.8-5.1 5.2-8.2 7.2-1 .5-1.5 1-2.2 1.4zM353 413.6c-.6-.5-1.2-1.1-1.8-1.6-1.1-.9-2.2-1.4-3.6-.6-1.2.7-2 2.3-1.7 3.8.3 1.3.9 2.4 1.3 3.7.4 1 1.1 2 .5 3.4-2.1-2.1-4.2-3.8-7.3-3.4-2.1.3-4 1.2-5.5 2.8 2.1 1.6 4.6 2.9 4.4 6.4-2.3-1.9-4.5-3.6-7.3-3.7-2.7-.2-5.3-.2-7.9 1 .8 1.7 2.2 3 1.9 4.9-2.4-1.1-4.7-2.2-7.1-3-2.5-.8-5.1-.6-7.8.5 1.5 1.9 3.3 3.6 2.7 6.4-.9-.5-1.6-.9-2.4-1.4-6.7-3.8-13.3-3.2-19.3 1.6-2.6 2.1-4.9 4.9-6.4 7.9 6.3 4.9 13.8 5 21.4 4.9-5.4 5.8-23.3 4.7-32.5-2.2.5-1.3.9-2.8 1.6-4.2 3.6-7.4 9.8-11.8 17.5-14.2 4.7-1.5 9.5-2.1 14.4-2.1 14 0 24.9-6.1 33.5-16.8 9-11.2 12.2-24.2 10.6-38.4-.6-5.5-2-10.8-4.1-16-4.1-10-7.2-20.4-9-31.1-1.9-11.3-2.3-22.7.7-33.9 2-7.6 5.4-14.5 11.1-20 1.3-1.2 2.7-2.2 4.1-3.3.1.1.3.2.4.3-.2.7-.4 1.3-.7 2-4.5 11.8-7.1 24-7.7 36.6-.9 19.3 2.2 37.9 9.3 55.9.5 1.3.7 2.8.8 4.3.3 4.5.6 9.1.8 13.6.1 1.8-.3 3.5-.5 5.3.8 1.1 1.6 2.2 2.6 3.5-.5.2-.7.3-.9.4-2.5.3-2.6.4-3.3 2.8-.9 3.4-1 6.6 1.3 9.5.4.6.6 1.4 1.1 2.6-1.1-.3-1.6-.5-2.1-.7-2.4-.7-3.8.4-3.7 2.9.1 1 .4 1.9.6 2.9.3 1.1.8 2.2.9 3.3.1 1.1 0 2.2 0 3.3-.4 0-.7.1-.9.1zM292.8 370.2c-3.1 7.5-7 14-11.8 20-12.7 15.8-29.1 25.8-48.6 30.6-11.2 2.8-22.6 3.9-34.1 3.1-14.9-1.1-28.2-6.7-39.9-16-10.5-8.4-18.6-18.8-24.6-30.9-.2-.4-.3-.7-.5-1.1-.1-.1-.1-.3-.2-.8.6.3 1.1.4 1.5.7 5.1 3 10.3 6 15.4 9 .6.4 1.3.8 1.7 1.4 6.1 8.3 14.2 14 23.2 18.6 6.7 3.4 13.8 6 21.1 7.3 4.6.8 9.4 1 14.1 1.1 18.8.3 36.5-3.9 52.6-13.7 11.6-7 21.1-16.2 28.6-27.5.3-.5.6-.9.9-1.4 0-.2.1-.2.6-.4zM307.7 37.5c-1.7.3-3.2-.3-4.6-1.1-1.9-1.1-3.7-2.4-5.5-3.7-1.9-1.4-3.8-2.9-5.7-4.2-3.1-2.1-6.5-2.9-10.2-2.5-2.9.4-5.8.8-8.7 1.4-3.6.7-7.1.3-10.6-.9-2.3-.8-4.6-1.7-6.9-2.5-2.4-.7-4.7-1.1-7.1.7 1.9 1.9 3.7 3.7 5.7 5.4 1.4 1.2 3 1.8 4.9 2 6.5 1 10.6 5.8 10.6 12.3 0 .3-.1.6-.2 1.4-.6-1-.9-1.7-1.3-2.2-1.2-1.6-2.3-3.3-3.7-4.9a9.75 9.75 0 0 0-5.9-3.1c-2.9-.3-5-1.7-6.9-3.8-.9-1-1.7-2-2.5-3a7.9 7.9 0 0 0-5.9-3.4c-1.8-.1-3.5-.2-5.6-.4.6 1.8 2.4 2.7 1.9 4.9-4.2-3-8.6-3.9-13.5-1.3 2.4 1 5.3 1.1 5.5 4.8-3.4-1.9-6.7-2.8-10.3-1.5-2.4.9-4.3 2.5-5.9 4.6 3.5.9 3.5.9 4.5 2.2-.2.1-.5.2-.6.2-4-.8-7.5.5-10.8 2.7-3.2 2.2-5.9 5-8.5 8-.8.9-1.6 1.9-2.3 2.8-5.5 7.6-13.1 11.4-22.1 13.2-7.8 1.5-15.7 1.3-23.6.3-14.7-1.9-28.8-6-42.3-12-1.8-.8-3.5-1.8-5.2-2.6-11.7-5.6-23.8-7.1-36.3-3.7C53.2 52 46.8 63.5 45 75c-.6 4.1-.9 8.3 0 12.4.4 1.7.9 3.5 1.6 5.1 2.5 5 7.6 7.2 12.9 5.4 2.2-.8 4.1-2.1 5.9-3.1a11.63 11.63 0 0 1-17.5 6.1c-5.1-3.3-7.6-8.3-8.9-14.1-1.4-6.4-.1-12.5 2.4-18.3 5.9-14.2 16.7-22.5 31.7-25 12.2-2.1 23.6.7 34.4 6.4 11.3 6 23.3 9.6 35.8 11.6 8.1 1.3 16.2 1.7 24.3 1 6.2-.6 12.2-1.8 17.9-4.4 4-1.8 7.4-4.3 10.2-7.7s5.9-6.6 9-9.6c2.2-2.1 4.4-4.4 7.8-4.6.4 0 .9-.6 1.3-1 2.6-2.6 5.2-5.2 8.9-6.1.4-.1.8-.6 1.1-.9 2.6-2.4 5.5-3.9 9.2-3.8.6 0 1.3-.2 1.7-.6 2.5-2.6 5.6-2.9 8.8-1.9 2.3.7 4.4.8 6.7-.2 2.9-1.2 5.9-.9 8.9 0 1.9.6 3.7 1.2 5.6 1.8 3.5 1.3 7 1.6 10.5.2.8-.3 1.6-.5 2.3-.7 5-1.4 9.6-.6 13.9 2.5 5.4 3.8 10.8 7.6 16.1 11.4.1.2.1.4.2.6zM241.2 91.7c3-2.5 6.9-2.6 9.9-.3 4.2 3.2 5.6 8.9 3.5 13.7-1.4 3.3-3.1 6.4-5.5 9.2-2.8 3.3-6.1 5.6-10.5 6-4.1.3-7.8-1-10.9-3.4-2.5-2-3.2-5-3.6-8.1-1.5-14.2 7.2-27.5 21-32.1 1.8-.6 3.8-.9 5.7-1.1 4.8-.5 9.6-1.2 14.4-3.3-.6 3.6-2.6 5.5-5.3 6.7 0 3.3 2.4 6.9 5.5 8.3.6-1.7.7-3.6 2.3-5.2.2 1.5.4 2.8.7 4 2.1 10.5 9.2 17.2 19.8 18.8 2.6.4 5.2.4 7.8.6 2.8.2 5.1-.9 7.2-2.5 2.3-1.8 4.1-4 5.4-6.5 1.6-3 3-6.1 4.7-9.1 1.5-2.8 3.2-5.5 5-8.1 1.2-1.8 3-3.1 5.4-4.1-.7 1.7-1.6 3-1.9 4.4-.6 3.3-1.1 6.6-1.3 9.9-.3 4.3-.1 8.6-1 12.9-1.4 6.5-5.1 11-11.1 13.5-5.4 2.3-11 3.4-16.9 1.8-4.3-1.2-8.1-3.5-11.2-6.7-3-3.2-5.9-6.5-8.6-10s-5.1-7.4-7.8-10.9c-2-2.6-4.2-5.2-6.5-7.5-3-3-6.6-3.6-10.8-2.1-11 3.9-19.5 15.2-19.4 26.2v1c.5 9 7.5 10.4 13.4 8.5 2.6-.9 4.7-2.7 6.2-4.9 1.8-2.7 3.6-5.5 4.8-8.4 2.6-6.4-.6-11.1-7.5-11.2-.9-.2-1.9-.1-2.9 0z"/><path d="M258.9 50.3c-.7-1.2-1.4-2.3-2.2-3.5-1.8-2.6-3.7-5.2-6.5-6.9-2.3-1.5-3.8-1.6-6.4-.4 2.8 3.7 5 7.7 5.3 12.6-.4-.7-.8-1.3-1.3-1.9-1.7-2.3-3.3-4.6-5.2-6.7-.9-1.1-2.3-1.8-3.6-2.5-1.2-.7-2.5-.6-3.8.4 1.8 2 2.9 4.2 3.3 7.4-.9-.9-1.5-1.6-2.2-2.1-1.3-1-2.6-2.2-4.1-3-2.1-1.1-3.5-.5-4.9 1.7 1.9 1.7 3.3 3.9 3.9 7-1-.7-1.6-1.2-2.2-1.6-1.7-.9-3.4-2-5.2-2.7-1.5-.6-2.9-.1-3.9 1.5 2.5.9 4.5 2.2 6.1 4.6-3.4-.3-6.5-1.4-9.6-.5-.3.1-.5.3-1 .7 2.7.8 4.8 2 6.4 4.6-3.9-.5-7.5-2.4-11.5-.7 1.7 1.5 3.8 2.1 5 4.2-4.3 0-8.6-1.8-12.3 1.7 1.5.8 2.8 1.4 3.4 3.1h-2.2c-4.8-.1-7.5 1.6-9.2 6-3.3 8.4-6.5 16.8-9.9 25.2-2.5 6.2-5.7 12.1-10 17.3-6.3 7.6-14.4 12.3-23.7 15.1-10.6 3.1-21.4 4.8-32.5 4.5-4.3-.1-8.6-.8-12.7-2.4-9.9-3.6-14.9-10.9-15.7-21.2-.3-4.2.1-8.3 1.9-12.2 1.9-4.2 5-6.8 9.6-7.3 2.3-.3 4.5-.3 6.8-.5 2.4-.1 4.9-.2 7-1.9-.2 1.7-.6 2.3-1.9 2.9-1.1.5-2.3.8-3.5 1-2.4.4-4.9.5-7.2.9-3.9.7-6.3 3.1-7.1 6.9-1.5 7.5-.4 14.6 4.1 20.9 3.4 4.7 8.3 7.2 13.9 8.4 6.1 1.3 12.1 1 18.2.1 6.9-1 13.7-2.5 20.2-5.2 11.4-4.8 19.9-12.7 25.8-23.5 3.2-5.9 5.4-12.2 7.4-18.5 1.5-4.6 2.9-9.1 5.2-13.4 2.1-3.9 4.9-7.1 8.5-9.6 2.5-1.7 5.1-3.2 7.6-4.8 1.7-1.1 3.6-2 5.2-3.3 1.1-.9 2.2-2 2.8-3.3 1.5-3.3 4-4.8 7.5-5 1.7-.1 2.9-.6 4.1-1.8.7-.7 1.7-1.3 2.6-1.8.6-.3 1.5-.8 2.1-.6 1.6.7 2.6-.2 3.7-.9 2-1.2 4-2.1 6.5-1.3.5.2 1.3-.1 1.8-.4 3.7-1.9 7.1-1.4 10.2 1.2 3.3 2.9 5 6.9 5.4 11.5zM362 352.2c1.6 1.1 2.2 2.6 2.7 4.2.6 2 .9 4.1 1.4 6.2.1.6.3 1.3.5 1.9 1.4 4.9 3.5 6.3 8.6 5.7h1.8c-2.7 3.4-6.2 2.6-9.4 2.5-.9 2.2-.5 4.1 1.3 5.5 1 .8 2.2 1.3 3.4 1.9.7.3 1.5.5 2.2 1.2-1.1.1-2.3.3-3.4.3-1.2 0-2.4-.2-3.7-.3-.6 2.7-.2 5.1 1.2 7.4 1.4 2.3 3.8 3.1 6.1 4.2-2.2.6-4.3.2-6.3-.2-2.1 5.4 0 9.3 6.3 11.9-2.5 1.3-4.9 0-7.6-.3-.5 5.5 1.2 9.6 6.7 12.1-2.9.8-5-.8-7.3-1.4-.7 3.4 1.7 4.9 3.9 6.9-3 .2-6.1-.1-7 3.7 2.3 1.1 4.9 1.6 6.5 3.8-2-.4-3.9-1.1-5.7-1-2.1.1-3.4 1.6-4.3 3.7 1.6.9 3.6 1.2 4.8 2.9-7-1.3-7.9-1.2-10 1.3 1.6.9 3.3 1.8 4.9 2.8 0 .2-.1.4-.1.6-4.4-.6-8.9-1.5-12.6 2.2 2.1 1.5 4.6 2.1 6.6 4.5-6.2-2.4-12-2.7-18.1-2.1 4.2 2 9.1 3 11.4 8.4-.9-.4-1.5-.6-2.1-.8-2.5-.8-4.9-1.9-7.4-2.4-5.5-1-10.3.8-14.2 4.8-3.2 3.2-5.3 7.2-6.9 11.4-.5 1.2-.1 2.1.9 2.7 1.7.9 3.4 2 5.2 2.5 4.3 1.3 8.6 2.3 12.9 3.4.7.2 1.4.3 2.1.7-12.3 4.6-24.2 3.2-36.1-2.1 1.6-5.3 4.1-9.9 7.2-14 8.1-10.9 19-16.7 32.5-17.7 1.2-.1 2-.4 2.9-1.4 1.5-1.6 3.2-3.1 5-4.2 5.2-3.2 9.1-7.6 12-12.9.6-1 .9-1.9.7-3.2-.4-2 .1-3.9 1.4-5.5.6-.8.9-1.4.6-2.4-.8-2.5-.4-5 .3-7.4.3-1.1.4-2.4.3-3.5-.3-2.8-.7-5.7.5-8.4.2-.4.2-1 0-1.4-1.1-3.2-1-6.6-1-9.9 0-.6 0-1.3-.2-1.9-.9-2.3-.7-4.6-.1-7 1.7-6.4 1.3-12.7-1.3-18.8v-1.1zM416.1 319.6c-.2-.7-.5-1.5-.7-2.2-5-15-11.3-29.4-20.2-42.6-5.1-7.6-10.9-14.7-18.3-20.1-3-2.2-6.4-3.8-9.6-5.8-1.5-.9-2.8-.8-4.4-.2-9.5 3.7-16.6 10-21.9 18.6-4.6 7.5-7.3 15.7-9 24.3-1.3 6.6-2 13.3-2 20.1 0 .5 0 1.1-.5 1.7-.4-2.4-.9-4.9-1.2-7.3-1.5-12.7-.4-25 4.8-36.8 5.4-12.3 14.6-21 26.3-27.1 1.3-.7 2.6-1.3 3.9-1.9 12.6 7.1 23.9 15.6 33.2 26.6 7.9 9.4 13.8 19.9 17.2 31.7 1.7 6 2.8 12.2 2.9 18.5v2.3c-.1.1-.3.2-.5.2zM387.5 224.4c3.1.8 6.2 1.7 9.2 2.3 2.3.5 4.6.9 7 1.1 1.8.1 3.7 0 5.6-.3 2.2-.3 3.6-1.5 4.1-3.9a32.2 32.2 0 0 0-1.6-20.1c-3.3-8.3-8.8-15-15.3-20.9-1.6-1.5-3.3-2.8-4.9-4.5 5 .2 9.5 1.6 14.1 4.9-.3-2-.4-3.6-.7-5.1-2.4-12.7-9.7-21.6-21.3-27.1a52.4 52.4 0 0 0-14.4-4.5c-.7-.1-1.4-.3-2.1-.6 4.6-1.6 9.3-2.9 14.4-1.8 1.1-3 .9-5.9.4-8.7-.7-4.4-2.6-8.4-4.9-12.2-3-5-6.6-9.5-10.7-13.6-.5-.6-1.1-1.1-1.7-1.8.3-.1.5-.2.6-.1 9.6 4.6 17 11.3 20.7 21.6 1.7 4.7 2.1 9.5 1.5 14.4-.2 1.9.3 2.9 1.8 4.1 8.4 6.7 14.9 15 18.4 25.3 1.5 4.3 2.4 8.6 2.3 13.1 0 1.3.3 2.5.9 3.7 3.6 7.3 6.5 14.9 8.1 22.9.8 3.9 1.2 7.9.3 11.9l-.3 1.2c-.6 2.9-2.2 4.5-5.3 5.1-9.1 1.6-17.5-.1-25.1-5.3l-1-.7c.1 0 .1-.2-.1-.4zM487.5 462.4c-1.1 1.9-2.6 3.3-4.3 4.4-4.4 2.9-9.3 4.2-14.4 4.8-9.2 1.1-18.3-.2-27.4-2.1-3.3-.7-5.4-3-6.5-6.1-.6-1.6-1.5-2.8-2.8-3.8-8.3-6.7-17.7-10.8-28.1-12.9-5.4-1.1-10.8-1.6-16.2-1.5h-4.4c.7-.5 1.1-.9 1.5-1.1 2.8-1.3 5.7-1.7 8.8-1.8 5.7-.2 11.3.8 16.9 2.1.8.2 1.5.4 2.4.4-5.7-4.4-11.9-7.7-18.9-9.3-7.1-1.6-14-1.2-20.8 1.6-.1-.2-.1-.3-.2-.5.9-.5 1.7-1.2 2.7-1.6 3.7-1.7 7.7-2 11.6-2.4 7.4-.6 14.3 1.1 20.5 5.1 5 3.3 9.8 6.9 14.7 10.5 3.3 2.4 6.6 5.1 9.9 7.5 1.5 1 3.3 1.6 5.1 2.5.8-1.1 1.4-2 2-2.8 4.1-5.7 9.3-10 16.3-11.7 2.4-.6 4.9-1 7.4-.4l-2 .6c-3.8 1.1-7.6 2.5-10.8 4.9-3.3 2.4-5.6 5.5-5.9 9.7-.1 1.4.1 2.9.2 4.3 7.1 2.8 14.1 4.4 21.6 4.4 7.4.2 14.4-1.5 21.1-4.8z"/><path d="M405.1 418.7c3.7 1.2 7.3.9 10.8-1.7-.2 2.6-1.8 3.7-3.7 4.3-1.7.5-3.6.7-5.6 1.1 3.3 1.5 5 1.5 11.1.6-.4 1.8-1.2 2.5-3.6 3.2-1.7.4-3.4.7-5.5 1 1.2 1.3 2.5 1.5 3.9 1.5 2.1.1 4.2 0 6.3 0 1.2 0 2.3.3 3.5.8-2.6.9-5.6 0-7.7 2.4.6 1.3 1.7 1.6 2.8 1.7 1.9.2 3.9.4 5.8.5 2.3.2 4.7.2 7.3 1.8-1 .1-1.5.1-2 .1l-8.3.3c-4.2 0-8.2-1-11.9-3-2.8-1.6-5.5-3.4-8.1-5.8 1.1-1.2 2.1-2.3 3.2-3.6-3.1.1-6 1.3-9.3.3.8-.7 1.5-1.2 2.1-1.7 1.5-1.3 2.8-2.8 3.1-4.8.4-2.1 0-2.9-2.1-3.4-1.6-.3-3.2-.3-4.8-.4h-1.9c.6-1.1 1.5-1.4 2.4-1.7 1.1-.4 2.4-.7 3.5-1.1.8-.3 1.7-.7 2.3-1.3 1.7-1.5 1.6-3.1-.1-4.5-2-1.5-4.3-2.4-6.7-2.6-1.4-.1-2.8 0-4.3 0 .6-1.1 1.6-1.2 2.5-1.3 1.1-.2 2.3-.3 3.4-.5 2-.4 2.9-1.5 3-3.6.1-1.2-.3-2.1-1.6-2.3l-4.8-.9c-.7-.1-1.4 0-2.3-.5.8-.2 1.5-.5 2.3-.5 1.1-.1 2.3 0 3.4 0 2.4-.2 3-.9 2.7-3.3-.5-3.7-1.1-7.4-1.5-11.1-.4-4-.6-8 .2-11.9.2-.8.4-1.5.9-2.2.2 3.3.3 6.6.5 9.9.2 4.3.7 8.6 2 12.7.5 1.6 1.2 3.2 2.2 4.6 1.6 2.4 3.9 2.9 6.4 1.4 1.4-.8 2.6-1.9 4-2.9.3 2.1-.5 3.5-2 4.5s-3.3 1.7-5 2.5c-.7.3-1.5.5-2.2.7-.4 4.1 4 8.2 7.8 7.3.8-.2 1.5-.9 2.1-1.5.4-.4.6-1.1.9-1.7 1.1 2.1 1 3.3-.6 4.7-1.2 1-2.6 1.6-3.9 2.4-1.1.6-2.2 1.1-3.2 1.8-.5.4-.9 1.2-.9 1.8 0 .4.9.8 1.5 1 3.1 1 6.5-.4 8.1-3.2.2-.4.4-.9.6-1.3 1.2 2.4.3 5.1-2.2 6.4-1.3.7-2.9 1-4.4 1.4-.9.3-1.9.7-2.8 1 .2.2.3.4.4.6zM106 396.3c4-3.8 9-3.3 14.1-2.8-1.5-6.6-3.5-12.9-2-19.7 2.4 7.1 4.6 14.3 12.2 18.1-2.8 1.2-6.4.9-7.1 5.1 3.8-.9 7.3-.7 11.1.7-1.2.3-2 .4-2.7.7-1.6.6-3.2 1.2-4.6 2.1-2.4 1.6-3.3 4.1-2.9 7.3 1-.2 2-.3 2.9-.5 3-.4 5.9-.9 8.9-1.2 1.9-.1 2.6.3 4.2 1.7-.6.8-1.5.5-2.2.6-2.5.5-4.9.9-7.4 1.5-.9.2-1.8.6-2.7 1-6.6 3.2-8.4 9.4-4.5 15.6 1.6 2.6 3.5 4.1 7.2 5.7-.9.3-1.6.6-2.2.6-6.5.7-12-1.2-16.3-6.2-1-1.2-1.2-2.3-.8-3.8.7-2.5 1.7-4.8 3.3-6.7 2-2.4 4.3-4.6 6.4-7 .5-.6 1.1-1.3 1.2-2 .8-6.4-3.3-11.2-9.7-11.4-2.1.3-4.3.5-6.4.6zM356.3 181.6c-4.8-8.1-4.9-12.8-.6-17.2.9 3.2 2.9 5.6 5.1 7.9 2.9 3 5.9 5.8 9 8.6.7.6 1.6 1 2.6 1.2 6.6 1.5 12.7 4 18.1 8.1.8.6 1.5 1.2 2.3 1.9-1.3 1.2-2.7 1.3-4.1 1-2.4-.6-4.9-1.2-7.3-1.9-4.1-1.2-8.2-2.7-12.3-3.8-6.4-1.7-12.8-2.2-19.2.8-.9-2.1-2.5-3.1-4.6-3.7-3.3-1-5.8-3.2-7.6-6.2-1-1.7-1.8-3.5-2.7-5.2-.9-1.8-1.9-3.4-3.8-4.4-.7.6-1.3 1.2-2.1 1.9-.3-2.5-.7-4.6-1-7a3 3 0 0 1 3.1.8c1.3 1.1 2.5 2.3 3.5 3.7 1.8 2.5 3.2 5.3 4.9 7.9 3.4 5.2 3.5 5.4 10 5.8 2.2 0 4.3-.2 6.7-.2zM323.5 258.6c-.2.6-.2.9-.3 1-3.9 6.2-5.4 13.2-6.3 20.3-1.2 9.4-1 18.8-1.1 28.3-.1 6.7-.2 13.3-.5 20-.3 5.8-.9 11.5-2.8 17-.7 2-1.6 3.9-2.4 5.8-.2 0-.3-.1-.5-.1.1-.5.1-.9.3-1.4 1.8-7.2 2.2-14.6 1.8-22-.6-11.5-2.4-23-2.1-34.6.2-8.1 1.4-16 5.3-23.3 2.2-4.1 4.9-7.7 8.6-11zM198.6 89.2c1.7-1 3.3-2 5.1-2.8 1.5-.7 3-1.3 4.6-1.5 2.7-.5 4.2.8 4.5 3.5.1.6.1 1.1 0 1.7 0 .4-.1.7-.2 1.5-.6-.7-1-1-1.3-1.4-1.8-1.9-3.7-2.3-5.9-1.2-1.4.7-2.8 1.7-3.9 2.8-3.6 3.6-6.4 7.7-8.5 12.4-2.3 5.2-4.7 10.4-7.3 15.4-6.2 11.6-16.2 18.1-29 20.6-5 1-10.1 1.6-15.8 1.5 4.3-.7 8.1-1.1 11.8-2 3.5-.8 6.9-1.9 10.2-3.2 8.7-3.5 15.2-9.7 19.3-18.1 2.8-5.7 5-11.6 7.4-17.5 1.9-4.7 4-9.4 6.7-13.8 2.3-3.6 5-6.8 8.3-9.5 2.1-1.7 4.5-3 7.1-3.5 3-.6 5.6 0 8.2 1.9-10.3-.7-16.4 5.4-21.6 12.9l.3.3z"/><path d="M195.2 109c1 5.1 3.6 9.3 6.2 13.5 1.4 2.4 2.8 4.7 4.1 7.2 3.3 6.4 4.4 13 2.6 20.1-.1.4-.1.8-.2 1.2 0 .1.1.1.3.5.9-.6 1.9-1 2.7-1.7 2-1.7 3.3-3.9 4-6.3.9-2.9 1.5-6 2.3-9 1 1.8.9 3.9.9 5.9 0 10.1-7.9 18.3-18.1 18.7-2.3.1-4.7.1-7-.4-5.1-1.1-7.6-4.3-7.6-9.5 0-1 .1-2.1.6-3.2.2.4.5.9.7 1.3 1.1 1.8 2 3.8 3.3 5.4 2.4 2.8 5.3 3.3 8.6 1.6 4.8-2.6 6.2-4.5 6-10.1-.1-3.2-1.1-6.2-2.3-9.2-1.9-4.7-3.9-9.3-5.7-14-1.2-3-2-6.2-1.8-9.5 0-.9.2-1.7.4-2.5zM400.4 204.5c-.2 4.3-1.2 7.9-3.5 11-2.1 2.8-5 4.5-8.5 4.7-6.7.5-12.7-.9-17.7-5.8-3.2-3.1-6.5-6.1-9.9-9-3.6-3.1-7.7-5.4-12.5-6.3-.8-.2-1.8-.1-2.5.2-1.9.8-3.7 1.1-6.1.8 1.8-1.3 3.4-2.2 4.8-3.4 1.4-1.3 2.6-2.9 3.8-4.3.7 1.3.7 1.3.4 3.4 6.6 1.7 11.9 5.7 17.6 9.2 2.6 1.6 5.3 3.2 7.9 4.8 4.4 2.7 9 2.9 13.9 1.4 3.6-1.1 6.9-2.9 10-5 .6-.5 1.2-1 2.3-1.7zM94 357.5c.5 6.9-1.1 13.1-6.1 18.2-4.2 4.4-9.6 6.9-15.4 8.5-1.9.5-3.8.9-5.8 1.3v4.3c-.9-1-1.5-1.6-2-2.3-3.4-3.7-7.5-6-12.7-5.7-1.2.1-2.4.2-3.6.6-5.8 1.7-10.4 5.2-14.6 9.7 3.1 4.4 7.7 6.2 12.5 7.9-6.1 1.6-13.4-1.9-16.7-7.8 4.1-7.7 9.6-13.7 19.1-14.7 4.5-.5 8.7.8 12.7 2.8 1.9.9 3.7 1.2 5.6.9 2-.3 4-.6 6-1.1 8.9-2.3 14.9-7.9 18.2-16.5.8-2.1 1.4-4.3 2.2-6.4.3.1.5.2.6.3zM265.7 105.3c3.2 4.5 6.4 8.9 11 12.6-2.2.7-3.5-.5-5.1-1.3-.5 1.2-.3 2.4.3 3.2 1.1 1.5 2.2 3 3.7 4.1 2.8 2.2 6.1 3.4 9.4 4.4.8.2 1.5.5 2.2.9-5.6 2.1-10.3-.6-15.2-3.2-.3 6.1 4 8.5 7.9 11.2-2.2.4-2.8.2-7.6-2.4-.9 1.8-1 2.3-.6 5 2.3.5 4.3 1.5 5.6 3.8-2-.1-4-.5-5.9-.2-2.1.3-3.3 1.9-3.9 4.1 7 .6 9.3 5.7 11.1 11.4-.2-.1-.4-.3-.6-.4-.2-.2-.4-.5-.6-.7-1.6-1.5-3.1-3.1-4.9-4.3-2.7-1.8-7-2-9.6 1.5-1.6 2.1-3.4 4.1-5.4 6.4 5.9 1.5 9.8 4.7 11.3 10.5-5.2-7.4-12.3-7.7-20.2-5.7l1.9-1.6c7.2-5.8 12.8-12.7 16.1-21.4 3.7-9.9 3.6-19.9 1.2-30-.5-2.2-1.2-4.4-1.9-6.6 0-.4-.1-.9-.2-1.3zM426.1 411.2c4.2.6 7.8 1.2 11.4 1.6 5.8.6 11.7.6 17.5-.6 3.3-.7 6.3-1.9 9-4 4.2-3.3 9.1-4.5 14.5-3.5s10 3.5 14.2 7.2c-.8-.3-1.6-.5-2.4-.8-3.6-1.4-7.4-2.6-11.3-3-.6-.1-1.3-.1-1.9-.2-5.7-.2-8.2 3.1-8.7 8.1-.3 2.9.4 5.7 2 8.1 1.2 1.7 2.7 3.2 4.1 4.8.5.5 1 1 1.8 1.6-3.1.6-5.5-.1-7.3-2.1-1.4-1.5-2.5-3.4-3.5-5.2-1-1.9-1.7-4-2.6-6-.4-.9-1-1.8-1.7-2.6-.7-.7-1.6-.7-2.5-.2-.7.4-.8 1.1-.6 1.9.3 1.6 1 3.1.1 5-1.7-2.6-2.7-5.8-6.5-5.7l-.3 3.5c0 .2-.3.4-.4.6-.2-.1-.5-.2-.6-.3-2.1-2.6-5.1-3.3-8.2-3.7-3-.4-6-.6-9-1-2.8-.5-5-1.4-7.1-3.5zM221.4 67c1-.1 1.9-.3 2.9-.2 3.4 0 5.2 1.8 5.2 5.1 0 1.8-.4 3.7-.8 5.5-1.3 4.8-3.6 9.2-5.9 13.6-2 3.7-3.9 7.5-4.7 11.7-.5 2.5-.8 5.2-.6 7.7.4 4.8 2.9 8.6 7 11.1 2.6 1.6 5.5 2.6 8.2 3.9 0 0-.2.1-.5.1h-1c-3.4 0-6.6-.6-9.7-1.9-5.8-2.5-8.8-7-9.1-13.3-.2-3.3.3-6.5 1.2-9.6 1.3-4.9 3.1-9.6 5.9-13.8 1.7-2.6 3.2-5.5 4.4-8.4.8-1.8 1.3-3.9 1.5-5.9.3-2.8-.7-4-3.4-4.8a3 3 0 0 1-.8-.4c.1-.1.2-.3.2-.4zM271.2 227.3c-1.3-.6-2.5-1-3.4-1.7-3.1-2.2-6.2-4.4-9.2-6.8-5.3-4.3-10.5-8.7-15.6-13.2-9.7-8.6-21.2-11.5-33.9-10.8-2.4.1-4.8.4-7.8.6 2.9-1.7 5.6-2.3 8.4-2.8 10.5-1.9 20.6-.2 30.2 4.2 2.5 1.1 4.7 2.9 6.7 4.7 3.2 2.9 6.3 6.1 9.3 9.3 5 5.3 10 10.8 15.3 16.5zM293.7 150.1c1-3.3 3.2-5.5 5.9-7.3 4.3-2.9 9.1-4.3 14.1-5 3.8-.6 7.6-.9 11.4-1 11-.3 19.7-5 26.1-13.8.4-.5.8-1 1.2-1.6 0-.1.1 0 .4-.1-.1 3.8-1.3 7.1-3.5 10.1s-5.1 5.3-8.4 6.9c-5.7 2.7-11.6 4.1-17.9 3.9-4.8-.1-9.6.2-14.3 1.2a35.1 35.1 0 0 0-15 6.7zM273.4 33.8c3.1-.9 5.6-1.9 8.2-2.3 1.5-.3 3.3 0 4.7.6 2.7 1.1 5.4 2.3 7.7 4.1 4.3 3.4 9.1 4.9 14.4 5.3 5.6.5 10.9 2.3 16 4.8 2.9 1.4 5.2 3.4 6.7 6.2 1.7 3.1 3.3 6.3 4.9 9.5 1.9 3.8 3.7 7.6 5.6 11.5-.4-.2-.9-.3-1.2-.6-1.5-1.6-3.1-3.1-4.3-4.9a59.7 59.7 0 0 1-5.1-8.3c-3.9-8.1-10.6-12-19-13.8-3.1-.7-6.2-1.2-9.3-1.8a22 22 0 0 1-9.4-4.4c-1-.8-2.1-1.6-3-2.5-2.9-2.7-6.3-3.5-10.2-2.8-2.1.3-4.1.3-6.7-.6zM56.2 62.1c.2-.3.4-.6.7-.9 10-10.5 21.9-14.1 36-9.8 4.7 1.4 9 3.7 13.1 6.4 5.6 3.7 10.8 7.8 15.3 12.8 2.9 3.3 6.2 6.2 10.1 8.3 3.4 1.8 7.1 2.8 10.9 3.1 3.6.2 7.1.5 10.7.9 2.4.3 4.7 1.2 6.7 2.9l-1.5-.3c-3.6-1.1-7.3-1.4-11.1-1.5-2.8 0-5.7.1-8.5-.2-5-.5-9.4-2.5-13.3-5.7-2.9-2.4-5.5-5-8.1-7.7-5.8-6-12.3-11.2-20-14.6-13.7-6-26.5-4.3-38.3 4.7-.8.6-1.5 1.2-2.3 1.8-.2 0-.3-.1-.4-.2zM326.7 318.9c1.4 5.5 2.6 11.1 4.3 16.6a65.7 65.7 0 0 0 8.6 17.9c5.1 7.6 6.7 15.9 4.7 24.9 0 .2-.1.3-.3.8-.3-.8-.6-1.3-.7-1.9-2.5-8.8-5.9-17.2-10.7-25-3.3-5.4-5.1-11.2-5.7-17.4-.4-4-.4-8.1-.5-12.2-.1-1.2.2-2.6.3-3.7z"/><path d="M177.3 93.9c-.3-6.1-3.7-9.3-8.6-11.2-5.2-2-10.6-2.3-16.1-2.4-6.8-.1-13.4-1.6-19.5-4.7a25.1 25.1 0 0 1-8.2-6.5c.3 0 .5-.1.7 0 7.4 4.5 15.6 6 24 6.2 5.6.2 11.2.5 16.7 1.9 3 .8 5.8 2 8.3 4 3.3 2.5 5.2 7.3 2.7 12.7zM289.9 168.5c2.5-5.8 6.9-9.6 12.4-12.2 4.7-2.1 9.7-3.2 14.9-3 9.5.3 15.7-1.3 26.1-6.8-.3.7-.5 1.2-.8 1.6-2.2 2.9-5.2 4.8-8.6 6.2-5.1 2.1-10.5 3-16 2.9-10.7-.2-19.8 3.5-27.5 10.9-.1.2-.3.3-.5.4zM406.6 272.6c-2-2.3-3.7-4.4-5.6-6.5 2.9-7.2 1-14.1-1.3-20.9-1-2.9-2.3-5.7-3.5-8.6-.3-.7-.6-1.4-1-2.2.3.1.5 0 .6.1 6.3 6.7 11.3 14.2 12.7 23.4.8 4.9.5 9.7-1.9 14.7zM312.1 125.3c.8-1.5 2-2 3.3-2.2s2.6-.4 3.9-.5c5-.3 8.5-2.8 10.9-7.1 2.2-4.1 3.2-8.5 3.9-13 .1-.8.3-1.7.7-2.5.5 6.9.3 13.8-2.2 20.3-.8 2.2-2.1 4.2-3.5 6-2.2 2.6-5.2 3.4-8.6 2.8-3.2-.6-5.8-2-8.4-3.8zM377 109.1c-.2-.3-.4-.6-.5-1-.5-1.3-1.1-2.5-1.6-3.8-3.1-7.3-7.9-13.3-14.8-17.6-2-1.2-3.9-2.7-5.7-4.1-3-2.3-5.3-5.2-7.1-8.6-.2-.4-.3-.7-.5-1.1 0-.1 0-.1.1-.4.6.5 1 1 1.6 1.4 3.6 2.7 7.1 5.4 10.8 8 2.3 1.6 4.7 3.1 7.2 4.5 6.1 3.5 9.2 9 10.3 15.7.4 2.3.4 4.6.7 6.9-.2 0-.3.1-.5.1zM346.4 82.4c3.1 4.4 5.7 8.9 6.2 14.3.6 6.9-5.3 11.1-11.7 8.4-.7-.3-1.3-.7-1.8-1.2-.9-.8-.9-1.8 0-2.5 1-.8 2-1.7 3.2-2.2 3.8-1.6 5.4-4.6 5.1-8.5-.4-2.8-.8-5.6-1-8.3zM347.1 473.3c1.4-1 2.9-1.9 4.1-3 1.5-1.4 3-2.8 4.1-4.4 2.3-3.3 1.9-6.4-.7-9.3-.5-.6-1.1-1.1-1.7-1.8 1.2-.7 2.4-1 3.6-.9 1.1.2 1.8-.3 2.6-1 2-1.6 4.1-3.2 6.3-4.6 1.3-.8 2.7-1.5 4.7-1.3-.9.5-1.5.9-2.1 1.2-2.4 1.3-4.4 3-6.2 5.1a4.09 4.09 0 0 0-.8 4.5c.6 1.5.8 3.3.8 5-.1 3-1.8 5.2-4.1 6.9-3.2 2.1-6.7 3.2-10.6 3.6zM325.5 183c-.6 1.6-1.8 2.1-3.2 2.1-1.5 0-3.1.1-4.6 0-1.7-.1-3.2.5-4.5 1.5-2.8 2.2-5.8 6.4-6.5 9.4 1.5-.1 2.9-.4 4.4-.4 1.4 0 2.9.1 4.3.4-5.4 1-10.6 2.6-16 5 .4-.9.5-1.4.8-1.8 2.6-3.9 5.2-7.9 7.8-11.8.4-.6 1-1.1 1.4-1.7 2.7-3.4 6.2-4.5 10.4-3.5 1.8.4 3.7.5 5.7.8zM317.3 213.6c-2.3-2.7-3.2-5.8-1.9-9.4.5-1.5 1.4-2.9 2.2-4.3 1.2-1.9 2.5-3.7 3.9-5.8.8 1.2.9 2.4.4 3.6-.6 1.4-1.5 2.7-2.1 4.1-.6 1.3-1.3 2.6-1.7 4-.2.9 0 2 .1 3.6 4.2-5.1 9.9-5.9 15-8-1.1 1.8-2.9 2.8-4.5 3.9-2.7 1.7-5.3 3.4-7.9 5.3-1.2.8-2.3 1.9-3.5 3zM331 173.7c.1 1.8 0 3.1-1.3 3.8s-2.5.1-3.6-.8c-5.9-4.5-12.1-4.6-18.5-1.1-.3.2-.7.5-1.2.8 1.5 1.2 3.7 1.6 3.9 3.8-3-.6-5.8-1.2-8.7-1.8 4.2-6.1 12.3-9 19.4-6.7 1.9.6 3.6 1.4 5.5 2 1.4.5 2.9 1 4.5 0zM355.8 73.5c-2.4-2.5-4.5-5-6.9-7.2-2.4-2.3-5.6-3.3-8.9-3.7-.8-2.1-1.6-4-2.6-6.5 6.5 2.3 12.3 4.9 16.2 10.4 1.5 2 2.3 4.3 2.2 7zM273.5 53.9c1.6 2.5 3.4 4.8 4.9 7.4 2.4 4.2.9 11.3-2.9 14.4-.2.1-.4.2-.5.2.6-2.6 1.3-5.1 1.7-7.7.6-3.3.1-6.5-2-9.2-.5-.7-1-1.5-1.3-2.3s-.2-1.8-.3-2.7c.1 0 .2 0 .4-.1zM434.9 446.3c2.6-4.8 6.9-6.3 12.8-4.6-4.3 1.6-8.3 3-12.8 4.6zM267.1 69.5V66c0-2.4-.8-4.4-2.7-6-.9-.7-1.6-1.6-2.2-2.5-.3-.4-.3-1-.5-1.9 2 1.8 3.8 3.2 5.4 4.8 2.1 2.1 2.5 5.3 1.1 7.9-.1.2-.5.5-1.1 1.2zM239.6 57.2c3.1-.4 5.5.7 7.1 3.2 1.7 2.7 1.6 5.5 0 8.8-.7-5.3-.9-10.5-7.1-12zM257.9 67.9c-.3-3.9-2-6.6-4.4-9 4.2.5 6.5 4.8 4.4 9zM428.8 441.9c2.4-2.5 4.9-4.5 9-2.6-3.3 1-6.2 1.8-9 2.6z"/></svg>