<?xml version="1.0" encoding="utf-8"?>
<!-- Generator: Adobe Illustrator 21.1.0, SVG Export Plug-In . SVG Version: 6.00 Build 0)  -->
<svg version="1.1" id="Layer_1" xmlns="http://www.w3.org/2000/svg" xmlns:xlink="http://www.w3.org/1999/xlink" x="0px" y="0px"
	 viewBox="0 0 500 500" style="enable-background:new 0 0 500 500;" xml:space="preserve">
<style type="text/css">
	.st0{fill:#FFFFFF;}
</style>
<g>
	<g>
		<path class="st0" d="M258.3,119.9c-0.2,0-0.3-0.1-0.5-0.1c-0.5,1.2-1,2.3-1.4,3.5c-1.9,5.1-3.6,10.3-5.7,15.3
			c-10.1,23.4-27.6,37.9-52.6,43.2c-4.7,1-9.3,2.2-13.7,4.3c-3.8,1.8-7.3,4-10.2,7c-5.2,5.5-7.1,12.1-5.9,19.6
			c0.2,1.2,0.4,2.4,0.7,3.6c-0.8,0.6-1.5,1.1-2.3,1.6c-4,2.9-7.9,6-11,10c-2.4,3-4.2,6.2-4,10.1c-2.9,2-5.8,3.8-8.5,5.9
			c-8,6.3-14.2,14.1-18.8,23.1c-8.2,16.1-12.8,33-11.7,51.2c0.7,11.6,3.6,22.6,8.7,33c7.5,15.2,19.1,25.9,34.9,32
			c0.9,0.3,1.7,0.6,2.6,0.9c-10-6.6-18.1-14.9-24.7-24.7c-6.4-9.5-14.4-27-14.4-31.7c0.5,0.7,0.9,1.3,1.3,1.9
			c2.9,4.1,5.6,8.4,8.8,12.3c2.5,3.1,5.5,5.8,8.4,8.5c1.1,1,2.4,1.9,4.3,2.2c-0.5-0.9-0.8-1.5-1.2-2.1c-3.1-4.9-5.7-10-7.8-15.4
			c-4.1-10.8-6.4-21.9-4.7-33.4c1.1-7.7,4.1-14.5,9.6-20.1c1.4-1.4,2.7-2.8,4.2-4.1c6.8-6.4,14.3-11.8,23.1-15.2
			c7.6-3,15.5-4.4,23.6-3.3c1.6,0.2,3.2,0.6,5,0.9c-1.2-3.4-3.4-5.7-6.2-7.5c-3.4-2.1-7.1-3.2-11-3.7c-1-0.1-2.1-0.2-3.6-0.6
			c0.9-0.3,1.2-0.4,1.5-0.5c0.5-0.1,0.9-0.2,1.4-0.4c7-1.6,13.9-1,20.8,0.3c9.8,1.8,19.2,5,28.3,8.9c0.7,0.3,1.5,0.6,2.3,0.9
			c0.1-0.2,0.3-0.3,0.4-0.5c-1.3-2.1-2.5-4.3-4-6.3c-4.9-6.5-11.3-10.9-18.7-14c-8.1-3.3-16.6-4.7-25.3-4.8
			c-5.2-0.1-10.4,0.5-15.6,0.8c-0.9,0-1.8,0.4-2.8-0.1c0.3-0.3,0.4-0.4,0.5-0.5c15.9-9.4,32.8-13,51.1-9.5c3.6,0.7,7,1.9,10.2,3.9
			c2.9,1.9,6.2,3.3,9.4,4.7c2.5,1.1,5.3,1.8,8.1,1.6c0.9,0,1.8-0.3,3.1-0.6c-0.9-1.4-1.4-2.7-2.3-3.6c-2-2-4-4.1-6.2-5.8
			c-4.4-3.5-9.4-6.2-14.4-8.7c-0.7-0.3-1.4-0.7-2.1-1.1c0.7-0.2,1.2-0.2,1.7-0.1c9.4,2.5,17.6,7,24.6,13.8c3.5,3.4,6.1,7.6,9,11.5
			c10.6,13.9,24.6,20.6,42.1,18.3c16.5-2.2,30.3-9.8,41.8-21.7c1.8-1.9,3.2-4.3,4.7-6.5c0.3-0.4,0.3-1.1,0.4-1.3
			c-1.2,1-2.6,2.1-3.8,3.3c-6.4,6.5-13.4,12.1-21.7,16c-11.1,5.2-22.5,6.3-34.2,2.5c-10.9-3.6-20.1-9.5-27-19
			c-10.5-14.5-25-22.1-42.9-23.3c-12.2-0.8-24,1.3-35.4,5.5c-0.7,0.3-1.5,0.5-2.5,0.9c-0.2-4.2,0.9-7.8,2.8-11.2
			c3.6-6.6,9.4-10.4,16.4-12.7c9.1-3,18.4-3,27.8-2.2c2.5,0.2,4.9,0.5,7.4,0.8c-3.2-3.7-7.8-4.5-11.9-6.4c8-1.9,15.8-2.1,23.9,1.4
			c-0.7-2.2-1.9-3.4-3.4-4.5c-2.1-1.5-4.5-2.3-7-2.8c-0.5-0.1-0.9-0.3-1.7-0.6c6.9-2.2,11.7-6.5,15.4-12.1c1.9-3,3.7-6.2,5.1-9.4
			c3.5-7.9,5.3-16.4,6.5-24.9C257.7,125.1,258,122.5,258.3,119.9z M83,406c0.7-0.5,1.3-0.9,1.9-1.3c3.1-2,5.8-4.4,8.2-7.2
			c4.3-5,7.2-10.8,9.1-17.1c2.5-8.4,3.6-16.9,1.6-25.5c-1.4-5.9-3.3-11.7-5.5-17.4c-4.7-12.6-9.8-25-14.5-37.5
			c-3.8-10.1-7.1-20.3-8.4-31c-0.6-4.8-0.7-9.6,0.7-14.3c0.8-2.5,2.2-4.5,4.4-6c2.5-1.7,5.3-2.9,8.2-3.5c7.7-1.8,15.5-1.4,23.3-0.2
			c3.6,0.5,7.2,1.3,11.3,2.1c-0.7-0.4-1.1-0.7-1.4-0.9c-8-3.8-16.3-6.9-25.1-8.7c-6.3-1.3-12.7-1.9-19.1-0.6
			c-11,2.2-17.5,10.9-16.5,22.1c0.4,4.8,1.5,9.5,3,14c3.2,9.9,7.7,19.2,12.1,28.5c5.2,10.9,10.5,21.8,15.5,32.8
			c5,10.9,7.4,22.3,6.6,34.4c-0.5,6.8-1.6,13.4-4.6,19.6c-3.2,6.8-8,12.2-14.9,15.6c-1.4,0.7-2.8,1.1-4.4,1c-4-0.2-8,0.2-11.9,1
			c-8.8,1.8-16.4,5.6-22.1,12.8c-2.2,2.8-4,5.9-5.2,9.4c0.9,0.6,1.6,1.2,2.4,1.7c3.2,1.9,6.7,2.9,10.3,3.4c6.5,0.9,13,0.1,19.4-1.3
			c3.4-0.7,6.7-1.7,10.1-2.6c0-0.2-0.1-0.3-0.1-0.5c-1.5,0.2-3,0.5-4.6,0.6c-5.4,0.6-10.8,1.2-16.3,0.3c-2.5-0.4-4.9-1-7-2.7
			c-1.1-0.9-1.5-1.9-1-3.4c0.9-2.7,2.5-4.7,4.7-6.3c2.5-1.8,5.4-2.9,8.4-3.7c6.7-1.7,13.5-1.8,20.4-1.5c1.3,0,2.6,0,4,0
			C85.9,409.6,84.2,408,83,406z M353,413.6c0.2,0,0.5-0.1,0.7-0.1c0-1.1,0.2-2.2,0-3.3c-0.2-1.1-0.6-2.2-0.9-3.3
			c-0.2-0.9-0.6-1.9-0.6-2.9c-0.2-2.5,1.3-3.6,3.7-2.9c0.5,0.2,1,0.3,2.1,0.7c-0.5-1.2-0.6-2-1.1-2.6c-2.3-3-2.2-6.2-1.3-9.5
			c0.7-2.4,0.8-2.5,3.3-2.8c0.2,0,0.4-0.2,0.9-0.4c-0.9-1.3-1.8-2.4-2.6-3.5c0.2-1.7,0.6-3.5,0.5-5.3c-0.1-4.5-0.4-9.1-0.8-13.6
			c-0.1-1.4-0.3-3-0.8-4.3c-7.1-18-10.2-36.6-9.3-55.9c0.6-12.6,3.2-24.8,7.7-36.6c0.2-0.7,0.4-1.3,0.7-2c-0.1-0.1-0.3-0.2-0.4-0.3
			c-1.4,1.1-2.8,2.1-4.1,3.3c-5.7,5.5-9.1,12.4-11.1,20c-3,11.2-2.6,22.6-0.7,33.9c1.8,10.7,4.9,21,9,31.1c2.1,5.2,3.5,10.5,4.1,16
			c1.6,14.2-1.6,27.2-10.6,38.4c-8.5,10.6-19.5,16.7-33.5,16.8c-4.9,0-9.7,0.6-14.4,2.1c-7.7,2.4-13.8,6.8-17.5,14.2
			c-0.7,1.4-1.1,2.8-1.6,4.2c9.2,6.9,27.1,8,32.5,2.2c-7.5,0-15,0-21.4-4.9c1.5-3,3.8-5.8,6.4-7.9c5.9-4.8,12.6-5.4,19.3-1.6
			c0.8,0.4,1.5,0.9,2.4,1.4c0.6-2.9-1.3-4.5-2.7-6.4c2.7-1.1,5.3-1.3,7.8-0.5c2.4,0.8,4.7,2,7.1,3c0.4-2-1.1-3.3-1.9-4.9
			c2.6-1.2,5.3-1.2,7.9-1c2.9,0.2,5,1.8,7.3,3.7c0.2-3.5-2.3-4.8-4.4-6.4c1.6-1.6,3.4-2.5,5.5-2.8c3.1-0.4,5.2,1.3,7.3,3.4
			c0.6-1.4-0.1-2.4-0.5-3.4c-0.5-1.2-1-2.4-1.3-3.7c-0.4-1.5,0.4-3.1,1.7-3.8c1.3-0.7,2.5-0.3,3.6,0.6
			C351.8,412.5,352.4,413,353,413.6z M292.8,370.2c-0.5,0.2-0.6,0.2-0.6,0.3c-0.3,0.5-0.6,0.9-0.9,1.4c-7.5,11.3-17,20.5-28.6,27.5
			c-16.2,9.8-33.8,14-52.6,13.7c-4.7-0.1-9.5-0.3-14.1-1.1c-7.4-1.3-14.4-3.9-21.1-7.3c-9.1-4.5-17.2-10.3-23.2-18.6
			c-0.4-0.6-1.1-1-1.7-1.4c-5.1-3-10.2-6-15.4-9c-0.4-0.2-0.9-0.4-1.5-0.7c0.1,0.4,0.1,0.6,0.2,0.8c0.2,0.4,0.3,0.7,0.5,1.1
			c6,12,14.1,22.4,24.6,30.9c11.7,9.4,24.9,15,39.9,16c11.5,0.8,22.9-0.3,34.1-3.1c19.6-4.9,36-14.8,48.6-30.6
			C285.8,384.2,289.7,377.7,292.8,370.2z M307.7,37.5c-0.1-0.3-0.1-0.5-0.3-0.5c-5.4-3.8-10.8-7.6-16.1-11.4
			c-4.3-3-8.9-3.8-13.9-2.5c-0.8,0.2-1.6,0.4-2.3,0.7c-3.5,1.4-7,1.1-10.5-0.2c-1.8-0.7-3.7-1.3-5.6-1.8c-2.9-0.9-6-1.2-8.9,0
			c-2.3,1-4.4,0.9-6.7,0.2c-3.2-1-6.3-0.7-8.8,1.9c-0.4,0.4-1.1,0.6-1.7,0.6c-3.7-0.1-6.6,1.4-9.2,3.8c-0.3,0.3-0.7,0.8-1.1,0.9
			c-3.8,0.9-6.4,3.5-8.9,6.1c-0.4,0.4-0.8,1-1.3,1c-3.4,0.2-5.7,2.4-7.8,4.6c-3.1,3.1-6.2,6.3-9,9.6c-2.8,3.4-6.3,5.9-10.2,7.7
			c-5.7,2.6-11.7,3.8-17.9,4.4c-8.2,0.7-16.3,0.3-24.3-1c-12.5-2-24.5-5.6-35.8-11.6c-10.7-5.7-22.2-8.5-34.4-6.4
			c-15,2.6-25.8,10.8-31.7,24.9c-2.5,5.9-3.8,11.9-2.4,18.3c1.3,5.8,3.8,10.7,8.9,14.1c6.6,4.3,15.2,1.1,17.5-6.1
			c-1.8,1-3.8,2.3-5.9,3.1c-5.3,1.9-10.4-0.3-12.9-5.4c-0.8-1.6-1.3-3.3-1.6-5.1c-0.9-4.1-0.6-8.3,0-12.4c1.8-11.4,8.3-23,23.2-27
			c12.5-3.4,24.7-1.9,36.3,3.7c1.8,0.8,3.5,1.8,5.2,2.6c13.5,6.1,27.6,10.2,42.3,12c7.9,1,15.7,1.2,23.6-0.3
			c8.9-1.7,16.6-5.6,22.1-13.2c0.7-1,1.5-1.9,2.3-2.8c2.5-3,5.2-5.8,8.5-8s6.8-3.5,10.8-2.7c0.2,0,0.4-0.1,0.6-0.2
			c-0.9-1.2-0.9-1.2-4.5-2.2c1.6-2.1,3.5-3.7,5.9-4.6c3.5-1.3,6.8-0.3,10.3,1.5c-0.2-3.7-3.1-3.8-5.5-4.8c4.9-2.7,9.3-1.7,13.5,1.3
			c0.5-2.2-1.3-3.1-1.9-4.9c2.1,0.1,3.8,0.3,5.6,0.4c2.5,0.1,4.4,1.4,5.9,3.4c0.8,1,1.6,2,2.5,3c1.8,2.1,4,3.5,6.9,3.8
			c2.4,0.2,4.4,1.3,5.9,3.1c1.3,1.5,2.5,3.2,3.7,4.9c0.4,0.6,0.7,1.2,1.3,2.2c0.1-0.8,0.2-1.1,0.2-1.4c0-6.5-4.1-11.3-10.6-12.3
			c-1.8-0.3-3.5-0.8-4.9-2c-1.9-1.7-3.7-3.5-5.7-5.4c2.4-1.9,4.8-1.5,7.1-0.7c2.3,0.7,4.6,1.7,6.9,2.5c3.4,1.2,6.9,1.6,10.6,0.9
			c2.9-0.6,5.8-1,8.7-1.4c3.7-0.5,7.1,0.3,10.2,2.5c1.9,1.3,3.8,2.8,5.7,4.2c1.8,1.3,3.6,2.6,5.5,3.7
			C304.5,37.2,306,37.8,307.7,37.5z M241.2,91.7c1.1-0.1,2-0.2,3-0.1c6.9,0.2,10.1,4.9,7.5,11.2c-1.2,3-3,5.7-4.8,8.4
			c-1.5,2.2-3.6,4.1-6.2,4.9c-5.9,1.9-12.9,0.5-13.4-8.5c0-0.3,0-0.7,0-1c-0.1-11,8.4-22.4,19.4-26.2c4.2-1.5,7.7-0.9,10.8,2.1
			c2.4,2.3,4.5,4.9,6.5,7.5c2.7,3.6,5.1,7.4,7.8,10.9c2.7,3.5,5.5,6.8,8.6,10s6.8,5.5,11.2,6.7c5.9,1.6,11.4,0.5,16.9-1.8
			c6.1-2.5,9.8-7.1,11.1-13.5c0.9-4.3,0.8-8.6,1-12.9c0.2-3.3,0.7-6.6,1.3-9.9c0.3-1.4,1.2-2.7,1.9-4.4c-2.4,0.9-4.2,2.3-5.4,4.1
			c-1.8,2.6-3.4,5.3-5,8.1c-1.7,3-3.1,6.1-4.7,9.1c-1.4,2.5-3.1,4.7-5.4,6.5c-2.1,1.6-4.4,2.7-7.2,2.5c-2.6-0.2-5.2-0.2-7.8-0.6
			c-10.6-1.5-17.7-8.3-19.8-18.8c-0.3-1.2-0.4-2.5-0.7-4c-1.6,1.6-1.8,3.5-2.3,5.2c-3.1-1.4-5.6-5-5.5-8.3c2.8-1.2,4.8-3.1,5.3-6.7
			c-4.8,2.1-9.6,2.7-14.4,3.3c-1.9,0.2-3.9,0.5-5.7,1.1c-13.8,4.5-22.5,17.8-21,32.1c0.3,3,1.1,6.1,3.6,8.1
			c3.1,2.5,6.8,3.7,10.9,3.4c4.4-0.3,7.8-2.7,10.5-6c2.3-2.8,4-5.9,5.5-9.2c2.1-4.9,0.7-10.5-3.5-13.7
			C248,89.1,244.2,89.1,241.2,91.7z M258.9,50.3c-0.5-4.6-2.1-8.6-5.7-11.5c-3.2-2.6-6.6-3-10.2-1.2c-0.5,0.3-1.3,0.6-1.8,0.4
			c-2.4-0.8-4.5,0.1-6.5,1.3c-1.2,0.7-2.2,1.6-3.7,0.9c-0.5-0.2-1.4,0.2-2.1,0.6c-0.9,0.5-1.9,1.1-2.6,1.8c-1.1,1.2-2.4,1.7-4.1,1.8
			c-3.4,0.2-5.9,1.7-7.5,5c-0.6,1.3-1.7,2.4-2.8,3.3c-1.6,1.2-3.4,2.2-5.2,3.3c-2.6,1.6-5.2,3.1-7.6,4.8c-3.6,2.5-6.4,5.7-8.5,9.6
			c-2.3,4.3-3.7,8.8-5.2,13.4c-2,6.4-4.2,12.6-7.4,18.5c-5.9,10.8-14.4,18.7-25.8,23.5c-6.5,2.7-13.3,4.2-20.2,5.2
			c-6.1,0.9-12.1,1.2-18.2-0.1c-5.6-1.2-10.5-3.6-13.9-8.4c-4.5-6.3-5.6-13.4-4.1-20.9c0.8-3.8,3.2-6.2,7.1-6.9
			c2.4-0.4,4.8-0.6,7.2-0.9c1.2-0.2,2.4-0.5,3.5-1c1.4-0.6,1.7-1.3,1.9-2.9c-2.1,1.7-4.5,1.8-7,1.9c-2.3,0.1-4.6,0.2-6.8,0.5
			c-4.6,0.6-7.7,3.1-9.6,7.3c-1.7,3.9-2.2,8-1.9,12.2c0.9,10.3,5.9,17.5,15.7,21.2c4.1,1.5,8.3,2.2,12.7,2.4
			c11.1,0.3,21.9-1.3,32.5-4.5c9.3-2.8,17.5-7.4,23.7-15.1c4.3-5.2,7.4-11.1,10-17.3c3.4-8.3,6.6-16.8,9.9-25.2
			c1.7-4.4,4.4-6.1,9.2-6c0.7,0,1.4,0,2.2,0c-0.6-1.7-1.9-2.3-3.4-3.1c3.8-3.5,8.1-1.7,12.3-1.7c-1.2-2.1-3.3-2.7-5-4.2
			c4-1.7,7.6,0.3,11.5,0.7c-1.6-2.6-3.7-3.9-6.4-4.6c0.5-0.3,0.7-0.6,1-0.7c3.2-0.9,6.2,0.2,9.6,0.5c-1.6-2.4-3.6-3.8-6.1-4.6
			c1-1.6,2.4-2.1,3.9-1.5c1.8,0.7,3.5,1.7,5.2,2.7c0.7,0.4,1.2,0.9,2.2,1.6c-0.6-3.1-2-5.2-3.9-7c1.4-2.1,2.9-2.7,4.9-1.7
			c1.5,0.8,2.8,1.9,4.1,3c0.7,0.5,1.2,1.2,2.2,2.1c-0.4-3.1-1.5-5.4-3.3-7.4c1.3-0.9,2.6-1,3.8-0.4c1.3,0.7,2.6,1.4,3.6,2.5
			c1.9,2.1,3.5,4.5,5.2,6.7c0.5,0.6,0.9,1.3,1.3,1.9c-0.3-4.8-2.5-8.8-5.3-12.6c2.6-1.2,4.1-1.1,6.4,0.4c2.7,1.7,4.7,4.3,6.5,6.9
			C257.5,48,258.2,49.2,258.9,50.3z M362,352.2c0,0.4,0,0.6,0,0.7c2.6,6.1,3,12.4,1.3,18.8c-0.6,2.3-0.8,4.6,0.1,7
			c0.2,0.6,0.2,1.3,0.2,1.9c-0.1,3.3-0.2,6.7,1,9.9c0.1,0.4,0.1,1,0,1.4c-1.2,2.8-0.8,5.6-0.5,8.4c0.1,1.2,0,2.4-0.3,3.5
			c-0.7,2.5-1,5-0.3,7.4c0.3,1,0,1.6-0.6,2.4c-1.3,1.6-1.8,3.5-1.4,5.5c0.3,1.3-0.1,2.2-0.7,3.2c-2.9,5.3-6.8,9.7-12,12.9
			c-1.8,1.1-3.5,2.6-5,4.2c-0.9,0.9-1.7,1.3-2.9,1.4c-13.5,1-24.4,6.8-32.5,17.7c-3.1,4.2-5.5,8.8-7.2,14
			c11.9,5.2,23.8,6.7,36.1,2.1c-0.7-0.4-1.4-0.5-2.1-0.7c-4.3-1.1-8.7-2.1-12.9-3.4c-1.8-0.6-3.5-1.6-5.2-2.5
			c-1-0.6-1.4-1.4-0.9-2.7c1.6-4.2,3.7-8.1,6.9-11.4c3.9-3.9,8.7-5.8,14.2-4.8c2.5,0.4,4.9,1.6,7.4,2.4c0.6,0.2,1.1,0.4,2.1,0.8
			c-2.3-5.3-7.2-6.4-11.4-8.4c6-0.6,11.9-0.2,18.1,2.1c-2-2.4-4.4-3.1-6.6-4.5c3.8-3.8,8.2-2.8,12.6-2.2c0-0.2,0.1-0.4,0.1-0.6
			c-1.6-0.9-3.3-1.8-4.9-2.8c2.1-2.4,2.9-2.6,10-1.3c-1.2-1.7-3.2-1.9-4.8-2.9c0.9-2.1,2.2-3.6,4.3-3.7c1.9-0.1,3.8,0.6,5.7,1
			c-1.6-2.2-4.2-2.7-6.5-3.8c0.9-3.8,4-3.6,7-3.7c-2.2-2-4.6-3.5-3.9-6.9c2.3,0.6,4.3,2.1,7.3,1.4c-5.5-2.5-7.2-6.6-6.7-12.1
			c2.6,0.3,5,1.6,7.6,0.3c-6.3-2.6-8.4-6.5-6.3-11.9c2.1,0.3,4.2,0.8,6.3,0.2c-2.3-1.1-4.7-1.9-6.1-4.2c-1.4-2.3-1.7-4.7-1.2-7.4
			c1.3,0.1,2.5,0.3,3.7,0.3c1.1,0,2.3-0.2,3.4-0.3c-0.7-0.7-1.5-0.9-2.2-1.2c-1.2-0.6-2.4-1.1-3.4-1.9c-1.8-1.4-2.2-3.3-1.3-5.5
			c3.2,0.1,6.7,0.9,9.4-2.5c-0.9,0-1.4,0-1.8,0c-5.1,0.5-7.2-0.8-8.6-5.7c-0.2-0.6-0.3-1.3-0.5-1.9c-0.5-2.1-0.8-4.1-1.4-6.2
			C364.3,354.8,363.7,353.3,362,352.2z M416.1,319.6c0.2,0,0.3-0.1,0.5-0.1c0-0.8,0-1.5,0-2.3c0-6.3-1.1-12.5-2.9-18.5
			c-3.4-11.8-9.3-22.3-17.2-31.7c-9.3-11-20.6-19.6-33.2-26.6c-1.3,0.6-2.7,1.2-3.9,1.9c-11.8,6.1-20.9,14.9-26.3,27.1
			c-5.2,11.8-6.3,24.1-4.8,36.8c0.3,2.5,0.8,4.9,1.2,7.3c0.5-0.6,0.5-1.2,0.5-1.7c0-6.8,0.7-13.5,2-20.1c1.7-8.6,4.4-16.8,9-24.3
			c5.3-8.6,12.5-14.9,21.9-18.6c1.6-0.6,2.9-0.7,4.4,0.2c3.2,1.9,6.6,3.6,9.6,5.8c7.5,5.4,13.2,12.5,18.3,20.1
			c8.8,13.2,15.2,27.6,20.2,42.6C415.7,318.1,415.9,318.9,416.1,319.6z M387.5,224.4c0.1,0.3,0.2,0.5,0.3,0.6c0.3,0.3,0.6,0.5,1,0.7
			c7.7,5.2,16,6.8,25.1,5.3c3.1-0.5,4.7-2.2,5.3-5.1c0.1-0.4,0.2-0.8,0.3-1.2c0.8-4,0.4-7.9-0.3-11.9c-1.5-8-4.5-15.6-8.1-22.9
			c-0.6-1.2-0.9-2.4-0.9-3.7c0.1-4.5-0.8-8.9-2.3-13.1c-3.5-10.3-10-18.6-18.4-25.3c-1.4-1.2-2-2.2-1.8-4.1
			c0.6-4.9,0.1-9.8-1.5-14.4c-3.7-10.3-11.1-17-20.7-21.6c-0.1-0.1-0.3,0-0.6,0.1c0.6,0.6,1.1,1.2,1.7,1.8c4,4.2,7.7,8.6,10.7,13.6
			c2.3,3.8,4.1,7.8,4.9,12.2c0.5,2.9,0.6,5.8-0.4,8.7c-5.1-1.1-9.8,0.2-14.4,1.8c0.7,0.3,1.4,0.5,2.1,0.6c5,0.8,9.8,2.3,14.4,4.5
			c11.5,5.5,18.9,14.4,21.3,27.1c0.3,1.5,0.4,3.1,0.7,5.1c-4.5-3.3-9.1-4.7-14.1-4.9c1.6,1.6,3.3,3,4.9,4.5
			c6.5,5.9,11.9,12.7,15.3,20.9c2.6,6.5,3.2,13.2,1.6,20.1c-0.6,2.3-1.9,3.5-4.1,3.9c-1.8,0.3-3.7,0.4-5.6,0.3
			c-2.3-0.2-4.7-0.6-7-1.1C393.7,226,390.7,225.2,387.5,224.4z M487.5,462.4c-6.7,3.3-13.7,4.9-21.2,4.9c-7.4,0-14.5-1.6-21.6-4.4
			c-0.1-1.5-0.3-2.9-0.2-4.3c0.3-4.2,2.6-7.3,5.9-9.7c3.2-2.4,7-3.8,10.8-4.9c0.7-0.2,1.3-0.4,2-0.6c-2.6-0.6-5-0.2-7.4,0.4
			c-7,1.7-12.1,6-16.3,11.7c-0.6,0.8-1.2,1.7-2,2.8c-1.8-0.9-3.6-1.5-5.1-2.5c-3.4-2.4-6.6-5-9.9-7.5c-4.9-3.5-9.6-7.2-14.7-10.5
			c-6.2-4-13-5.7-20.5-5.1c-4,0.3-8,0.7-11.6,2.4c-0.9,0.4-1.8,1.1-2.7,1.6c0.1,0.2,0.1,0.3,0.2,0.5c6.8-2.9,13.7-3.3,20.8-1.6
			c7,1.6,13.2,4.9,18.9,9.3c-0.9,0-1.6-0.2-2.4-0.4c-5.6-1.3-11.1-2.3-16.9-2.1c-3,0.1-6,0.6-8.8,1.8c-0.4,0.2-0.8,0.6-1.5,1.1
			c1.8,0,3.1,0,4.4,0c5.5-0.1,10.9,0.4,16.2,1.5c10.4,2.1,19.8,6.2,28.1,12.9c1.3,1,2.2,2.2,2.8,3.8c1.1,3.1,3.1,5.4,6.5,6.1
			c9,1.9,18.1,3.1,27.4,2.1c5.1-0.6,10.1-1.9,14.4-4.8C484.9,465.7,486.4,464.4,487.5,462.4z M405.1,418.7c-0.1-0.2-0.1-0.4-0.2-0.7
			c0.9-0.3,1.9-0.7,2.8-1c1.5-0.5,3-0.7,4.4-1.4c2.5-1.3,3.4-4,2.2-6.4c-0.2,0.5-0.4,0.9-0.6,1.3c-1.6,2.9-5,4.3-8.1,3.2
			c-0.6-0.2-1.4-0.7-1.5-1c0-0.6,0.4-1.4,0.9-1.8c1-0.7,2.1-1.2,3.2-1.8c1.3-0.8,2.7-1.5,3.9-2.4c1.6-1.3,1.7-2.6,0.6-4.7
			c-0.3,0.6-0.5,1.3-0.9,1.7c-0.6,0.6-1.3,1.3-2.1,1.5c-3.8,0.9-8.2-3.2-7.8-7.3c0.7-0.2,1.5-0.4,2.2-0.7c1.7-0.8,3.4-1.5,5-2.5
			c1.4-1,2.3-2.4,2-4.5c-1.4,1.1-2.6,2.1-4,2.9c-2.5,1.4-4.8,1-6.4-1.4c-0.9-1.4-1.7-3-2.2-4.6c-1.3-4.1-1.8-8.4-2-12.7
			c-0.2-3.3-0.3-6.6-0.5-9.9c-0.5,0.7-0.8,1.4-0.9,2.2c-0.8,4-0.7,7.9-0.2,11.9c0.4,3.7,1,7.4,1.5,11.1c0.3,2.3-0.3,3.1-2.7,3.3
			c-1.1,0.1-2.3-0.1-3.4,0c-0.8,0.1-1.6,0.3-2.3,0.5c0.8,0.5,1.6,0.4,2.3,0.5c1.6,0.2,3.2,0.5,4.8,0.9c1.2,0.3,1.7,1.1,1.6,2.3
			c-0.1,2.1-1,3.2-3,3.6c-1.1,0.2-2.3,0.3-3.4,0.5c-0.9,0.2-1.9,0.2-2.5,1.3c1.5,0,2.9-0.1,4.3,0c2.5,0.2,4.8,1,6.7,2.6
			c1.7,1.4,1.8,3,0.1,4.5c-0.6,0.6-1.5,1-2.3,1.3c-1.1,0.4-2.3,0.7-3.5,1.1c-0.9,0.3-1.8,0.6-2.4,1.7c0.8,0,1.3,0,1.9,0
			c1.6,0.1,3.3,0.1,4.8,0.4c2.1,0.4,2.5,1.3,2.1,3.4c-0.4,2-1.6,3.5-3.1,4.8c-0.6,0.5-1.3,1.1-2.1,1.7c3.3,1,6.2-0.2,9.3-0.3
			c-1.2,1.3-2.2,2.4-3.2,3.6c2.6,2.5,5.3,4.2,8.1,5.8c3.7,2.1,7.7,3.1,11.9,3c2.8,0,5.5-0.2,8.3-0.3c0.5,0,1-0.1,2-0.1
			c-2.6-1.6-5-1.6-7.3-1.8c-1.9-0.2-3.9-0.3-5.8-0.5c-1.1-0.1-2.2-0.5-2.8-1.7c2.1-2.4,5.2-1.4,7.7-2.4c-1.2-0.4-2.4-0.7-3.5-0.8
			c-2.1-0.1-4.2,0-6.3,0c-1.3,0-2.7-0.3-3.9-1.5c2-0.4,3.8-0.6,5.5-1c2.4-0.6,3.2-1.4,3.6-3.2c-6.1,0.9-7.8,0.9-11.1-0.6
			c2-0.4,3.9-0.6,5.6-1.1c1.9-0.6,3.5-1.6,3.7-4.3C412.4,419.6,408.8,419.9,405.1,418.7z M106,396.3c2.1-0.1,4.2-0.3,6.3-0.3
			c6.4,0.2,10.5,5.1,9.7,11.4c-0.1,0.7-0.7,1.4-1.2,2c-2.1,2.3-4.4,4.5-6.4,7c-1.6,1.9-2.6,4.3-3.3,6.7c-0.4,1.5-0.2,2.7,0.8,3.8
			c4.3,5.1,9.8,7,16.3,6.2c0.7-0.1,1.3-0.4,2.2-0.6c-3.7-1.6-5.6-3.1-7.2-5.7c-3.9-6.3-2.1-12.4,4.5-15.6c0.9-0.4,1.8-0.8,2.7-1
			c2.4-0.6,4.9-1,7.4-1.5c0.7-0.1,1.6,0.2,2.2-0.6c-1.6-1.4-2.3-1.9-4.2-1.7c-3,0.2-5.9,0.8-8.9,1.2c-0.9,0.1-1.8,0.3-2.9,0.5
			c-0.4-3.2,0.5-5.7,2.9-7.3c1.4-0.9,3-1.5,4.6-2.1c0.7-0.3,1.5-0.4,2.7-0.7c-3.8-1.5-7.3-1.7-11.1-0.7c0.7-4.2,4.3-3.9,7.1-5.1
			c-7.7-3.8-9.8-11-12.2-18.1c-1.5,6.7,0.5,13.1,2,19.7C115,393,110.1,392.5,106,396.3z M356.3,181.6c-2.4,0-4.5,0.1-6.6,0
			c-6.5-0.4-6.7-0.5-10-5.8c-1.7-2.6-3.2-5.3-4.9-7.9c-1-1.4-2.2-2.6-3.5-3.7c-0.9-0.8-2.1-1.2-3.1-0.8c0.3,2.4,0.6,4.6,1,7
			c0.8-0.7,1.4-1.3,2.1-1.9c1.9,1.1,2.9,2.7,3.8,4.4s1.7,3.5,2.7,5.2c1.7,3,4.3,5.2,7.6,6.2c2.1,0.6,3.7,1.6,4.6,3.7
			c6.4-3,12.8-2.5,19.2-0.8c4.2,1.1,8.2,2.6,12.3,3.8c2.4,0.7,4.8,1.4,7.3,1.9c1.4,0.3,2.7,0.2,4.1-1c-0.8-0.7-1.5-1.3-2.3-1.9
			c-5.4-4.1-11.6-6.5-18.1-8.1c-0.9-0.2-1.9-0.6-2.6-1.2c-3.1-2.8-6.1-5.6-9-8.6c-2.2-2.3-4.2-4.7-5.1-7.9
			C351.4,168.8,351.5,173.5,356.3,181.6z M323.5,258.6c-3.7,3.4-6.4,7-8.5,11c-3.8,7.3-5.1,15.2-5.3,23.3c-0.3,11.6,1.5,23,2.1,34.6
			c0.4,7.4,0,14.8-1.8,22c-0.1,0.5-0.2,0.9-0.3,1.4c0.2,0,0.3,0.1,0.5,0.1c0.8-1.9,1.7-3.8,2.4-5.8c1.9-5.5,2.5-11.3,2.8-17
			c0.3-6.7,0.4-13.3,0.5-20c0.1-9.4-0.1-18.9,1.1-28.3c0.9-7.1,2.3-14.1,6.3-20.3C323.3,259.4,323.3,259.2,323.5,258.6z M198.6,89.2
			c-0.1-0.1-0.2-0.3-0.3-0.4c5.2-7.5,11.2-13.6,21.6-12.9c-2.5-1.9-5.2-2.5-8.2-1.9c-2.7,0.6-5,1.8-7.1,3.5
			c-3.4,2.6-6.1,5.9-8.3,9.5c-2.7,4.4-4.7,9.1-6.7,13.8c-2.4,5.9-4.6,11.8-7.4,17.5c-4.1,8.4-10.6,14.6-19.3,18.1
			c-3.3,1.3-6.7,2.4-10.2,3.2c-3.7,0.9-7.5,1.3-11.8,2c5.7,0.1,10.7-0.5,15.8-1.5c12.8-2.4,22.8-8.9,29-20.6c2.7-5,5-10.2,7.3-15.4
			c2.1-4.7,5-8.8,8.5-12.4c1.1-1.1,2.5-2.1,3.9-2.8c2.3-1.2,4.2-0.7,5.9,1.2c0.4,0.4,0.7,0.8,1.3,1.4c0.1-0.7,0.2-1.1,0.2-1.5
			c0-0.6,0-1.1,0-1.7c-0.3-2.7-1.9-4-4.5-3.5c-1.6,0.3-3.1,0.9-4.6,1.5C201.9,87.2,200.3,88.2,198.6,89.2z M195.2,109
			c-0.1,0.8-0.3,1.7-0.4,2.5c-0.2,3.3,0.6,6.5,1.8,9.5c1.8,4.7,3.8,9.3,5.7,14c1.2,2.9,2.2,6,2.3,9.2c0.2,5.6-1.2,7.5-6,10.1
			c-3.2,1.7-6.2,1.2-8.6-1.6c-1.3-1.6-2.2-3.6-3.3-5.4c-0.3-0.4-0.5-0.9-0.7-1.3c-0.4,1.1-0.6,2.2-0.6,3.2c0,5.2,2.4,8.5,7.6,9.5
			c2.3,0.5,4.7,0.5,7,0.4c10.2-0.4,18.1-8.6,18.1-18.7c0-2,0-4.1-0.9-5.9c-0.8,3-1.4,6-2.3,9c-0.7,2.4-2,4.6-4,6.3
			c-0.8,0.7-1.8,1.2-2.7,1.7c-0.2-0.4-0.3-0.5-0.3-0.5c0.1-0.4,0.1-0.8,0.2-1.2c1.8-7,0.6-13.7-2.6-20.1c-1.3-2.5-2.7-4.8-4.1-7.2
			C198.8,118.2,196.2,114,195.2,109z M400.4,204.5c-1.1,0.7-1.7,1.2-2.4,1.6c-3.1,2.1-6.4,3.9-10,5c-4.8,1.4-9.5,1.3-13.9-1.4
			c-2.6-1.6-5.3-3.2-7.9-4.8c-5.7-3.5-11-7.5-17.6-9.2c0.3-2.1,0.3-2.1-0.4-3.4c-1.2,1.4-2.4,3-3.8,4.3s-3,2.2-4.8,3.4
			c2.4,0.3,4.2,0.1,6.1-0.8c0.7-0.3,1.7-0.4,2.5-0.2c4.7,0.9,8.8,3.3,12.5,6.3c3.4,2.9,6.7,5.9,9.9,9c5,4.9,11,6.3,17.7,5.8
			c3.5-0.3,6.4-1.9,8.5-4.7C399.3,212.3,400.2,208.8,400.4,204.5z M94,357.5c-0.2-0.1-0.4-0.1-0.6-0.2c-0.7,2.1-1.4,4.3-2.2,6.4
			C88,372.3,82,377.9,73,380.2c-2,0.5-4,0.8-6,1.1c-2,0.3-3.8,0-5.6-0.9c-4-2-8.2-3.2-12.7-2.8c-9.4,1-15,6.9-19.1,14.7
			c3.3,6,10.6,9.4,16.7,7.8c-4.8-1.7-9.4-3.5-12.5-7.9c4.2-4.5,8.8-8,14.6-9.7c1.2-0.3,2.4-0.5,3.6-0.6c5.2-0.3,9.3,2,12.7,5.7
			c0.6,0.6,1.1,1.3,2,2.3c0-1.8,0-3.1,0-4.3c2-0.5,3.9-0.8,5.8-1.3c5.8-1.6,11.1-4.1,15.4-8.5C92.9,370.6,94.6,364.3,94,357.5z
			 M265.7,105.3c0.1,0.5,0.2,0.9,0.3,1.3c0.6,2.2,1.3,4.4,1.9,6.6c2.4,10.1,2.5,20.1-1.2,30c-3.3,8.7-8.9,15.6-16.1,21.4
			c-0.7,0.5-1.3,1.1-1.9,1.6c8-2,15-1.8,20.2,5.7c-1.4-5.8-5.4-8.9-11.3-10.5c2-2.3,3.8-4.2,5.4-6.4c2.6-3.5,6.8-3.4,9.6-1.5
			c1.8,1.2,3.3,2.9,4.9,4.3c0.2,0.2,0.4,0.5,0.6,0.7s0.4,0.3,0.6,0.4c-1.8-5.7-4.1-10.8-11.1-11.4c0.7-2.2,1.9-3.8,3.9-4.1
			c1.9-0.2,3.8,0.1,5.9,0.2c-1.2-2.3-3.3-3.3-5.6-3.8c-0.5-2.7-0.4-3.1,0.6-5c4.9,2.6,5.5,2.8,7.6,2.4c-3.9-2.7-8.2-5.2-7.9-11.2
			c4.9,2.6,9.6,5.3,15.2,3.2c-0.7-0.4-1.5-0.6-2.2-0.9c-3.3-1.1-6.7-2.2-9.4-4.4c-1.4-1.1-2.6-2.7-3.7-4.1c-0.6-0.9-0.8-2-0.3-3.2
			c1.6,0.8,2.9,2,5.1,1.3C272.1,114.2,268.9,109.8,265.7,105.3z M426.1,411.2c2.2,2.1,4.4,3,6.8,3.3c3,0.4,6,0.7,9,1
			c3.1,0.4,6.1,1.1,8.2,3.7c0.1,0.2,0.4,0.2,0.6,0.3c0.2-0.2,0.4-0.4,0.4-0.6c0.1-1.1,0.2-2.2,0.3-3.5c3.8-0.1,4.8,3.1,6.5,5.7
			c1-1.8,0.2-3.4-0.1-5c-0.1-0.8-0.1-1.5,0.6-1.9c0.8-0.5,1.8-0.6,2.5,0.2c0.7,0.8,1.3,1.7,1.7,2.6c0.9,2,1.6,4.1,2.6,6
			c1,1.8,2.1,3.7,3.5,5.2c1.8,2,4.3,2.7,7.3,2.1c-0.8-0.7-1.3-1.1-1.8-1.6c-1.4-1.6-2.9-3.1-4.1-4.8c-1.7-2.4-2.4-5.2-2-8.1
			c0.6-5,3.1-8.3,8.7-8.1c0.6,0,1.3,0.1,1.9,0.2c3.9,0.4,7.6,1.6,11.3,3c0.8,0.3,1.6,0.6,2.4,0.8c-4.1-3.6-8.8-6.2-14.2-7.2
			c-5.4-1-10.2,0.1-14.5,3.5c-2.7,2.1-5.7,3.4-9,4c-5.8,1.2-11.6,1.2-17.5,0.6C433.8,412.4,430.2,411.8,426.1,411.2z M221.4,67
			c0,0.1-0.1,0.3-0.1,0.4c0.3,0.1,0.5,0.3,0.8,0.4c2.7,0.9,3.7,2.1,3.4,4.8c-0.2,2-0.7,4-1.5,5.9c-1.3,2.9-2.7,5.8-4.4,8.4
			c-2.8,4.3-4.5,9-5.9,13.8c-0.9,3.1-1.4,6.4-1.2,9.6c0.4,6.2,3.3,10.8,9.1,13.3c3.1,1.3,6.4,1.9,9.7,1.9c0.3,0,0.7,0,1,0
			c0.2,0,0.5-0.1,0.5-0.1c-2.7-1.3-5.6-2.3-8.2-3.9c-4.1-2.5-6.6-6.3-7-11.1c-0.2-2.5,0.1-5.2,0.6-7.7c0.8-4.2,2.7-8,4.7-11.7
			c2.3-4.4,4.6-8.8,5.9-13.6c0.5-1.8,0.8-3.7,0.8-5.5c0-3.3-1.8-5.1-5.2-5.1C223.3,66.7,222.4,66.9,221.4,67z M271.2,227.3
			c-5.3-5.7-10.3-11.2-15.4-16.5c-3-3.2-6-6.4-9.3-9.3c-2-1.8-4.3-3.6-6.7-4.7c-9.6-4.4-19.7-6.1-30.2-4.2c-2.7,0.5-5.5,1.1-8.4,2.8
			c3-0.2,5.4-0.4,7.8-0.6c12.7-0.7,24.2,2.2,33.9,10.8c5.1,4.5,10.3,8.9,15.6,13.2c2.9,2.4,6.1,4.6,9.2,6.8
			C268.7,226.3,269.9,226.6,271.2,227.3z M293.7,150.1c4.5-3.4,9.5-5.5,15-6.7c4.7-1,9.5-1.4,14.3-1.2c6.3,0.2,12.3-1.2,17.9-3.9
			c3.4-1.6,6.2-3.8,8.4-6.9c2.1-3,3.4-6.3,3.5-10.1c-0.3,0.1-0.4,0.1-0.4,0.1c-0.4,0.5-0.8,1-1.2,1.6c-6.5,8.8-15.1,13.6-26.1,13.8
			c-3.8,0.1-7.6,0.4-11.4,1c-5,0.7-9.8,2.2-14.1,5C296.9,144.6,294.7,146.8,293.7,150.1z M273.4,33.8c2.6,0.9,4.6,0.8,6.6,0.5
			c3.8-0.6,7.3,0.1,10.2,2.8c0.9,0.9,2,1.6,3,2.5c2.8,2.3,5.9,3.8,9.4,4.4c3.1,0.6,6.2,1.2,9.3,1.8c8.3,1.8,15.1,5.7,19,13.8
			c1.4,2.9,3.2,5.6,5.1,8.3c1.2,1.8,2.8,3.3,4.3,4.9c0.3,0.3,0.9,0.4,1.2,0.6c-1.9-3.9-3.7-7.7-5.6-11.5c-1.6-3.2-3.2-6.4-4.9-9.5
			c-1.5-2.8-3.8-4.8-6.7-6.2c-5.1-2.5-10.4-4.3-16-4.8c-5.3-0.5-10.1-1.9-14.4-5.3c-2.3-1.8-5-3-7.7-4.1c-1.4-0.6-3.2-0.8-4.7-0.6
			C279,31.9,276.5,32.9,273.4,33.8z M56.2,62.1c0.1,0.1,0.2,0.2,0.3,0.2c0.8-0.6,1.5-1.2,2.3-1.8c11.9-9,24.6-10.7,38.3-4.7
			c7.7,3.4,14.2,8.5,20,14.6c2.6,2.7,5.3,5.3,8.1,7.7c3.8,3.2,8.3,5.2,13.3,5.7c2.8,0.3,5.7,0.2,8.5,0.2c3.8,0,7.5,0.4,11.1,1.5
			c0.5,0.1,1,0.2,1.5,0.3c-2-1.6-4.2-2.5-6.7-2.9c-3.5-0.4-7.1-0.7-10.7-0.9c-3.9-0.3-7.5-1.2-10.9-3.1c-3.9-2.1-7.2-5-10.1-8.3
			c-4.5-5-9.7-9.1-15.3-12.8c-4.1-2.7-8.4-4.9-13.1-6.4c-14-4.3-25.9-0.7-36,9.8C56.6,61.5,56.4,61.8,56.2,62.1z M326.7,318.9
			c-0.1,1.1-0.4,2.5-0.4,3.8c0.1,4.1,0.1,8.1,0.5,12.2c0.6,6.2,2.4,12,5.7,17.4c4.8,7.8,8.3,16.2,10.7,25c0.2,0.5,0.4,1.1,0.7,1.9
			c0.2-0.5,0.3-0.7,0.3-0.8c2-9,0.4-17.3-4.7-24.9c-3.7-5.6-6.7-11.5-8.6-17.9C329.3,330,328.1,324.4,326.7,318.9z M177.3,93.9
			c2.5-5.3,0.6-10.2-2.7-12.8c-2.5-2-5.3-3.1-8.3-4c-5.5-1.5-11.1-1.8-16.7-1.9c-8.5-0.2-16.7-1.7-24-6.2c-0.1-0.1-0.4,0-0.7,0
			c1.9,2.5,4.7,4.7,8.2,6.5c6.1,3.2,12.7,4.6,19.5,4.7c5.5,0.1,10.9,0.4,16.1,2.4C173.6,84.6,177,87.8,177.3,93.9z M289.9,168.5
			c0.2-0.1,0.4-0.2,0.6-0.4c7.7-7.4,16.8-11.1,27.5-10.9c5.5,0.1,10.9-0.8,16-2.9c3.4-1.4,6.4-3.3,8.6-6.2c0.3-0.4,0.4-0.9,0.8-1.6
			c-10.5,5.5-16.6,7.1-26.1,6.8c-5.2-0.2-10.2,0.9-14.9,3C296.8,158.8,292.4,162.7,289.9,168.5z M406.6,272.6
			c2.4-4.9,2.7-9.8,1.9-14.6c-1.5-9.3-6.4-16.8-12.7-23.4c-0.1-0.1-0.3-0.1-0.6-0.1c0.4,0.8,0.7,1.5,1,2.2c1.2,2.8,2.5,5.6,3.5,8.6
			c2.3,6.8,4.2,13.7,1.3,20.9C402.8,268.2,404.6,270.2,406.6,272.6z M312.1,125.3c2.6,1.8,5.3,3.2,8.3,3.8c3.4,0.7,6.4-0.1,8.6-2.8
			c1.5-1.8,2.7-3.9,3.5-6c2.5-6.5,2.8-13.4,2.2-20.3c-0.3,0.8-0.5,1.7-0.7,2.5c-0.7,4.5-1.7,8.9-3.9,13c-2.3,4.3-5.9,6.8-10.9,7.1
			c-1.3,0.1-2.6,0.3-3.9,0.5C314,123.3,312.8,123.7,312.1,125.3z M377,109.1c0.2,0,0.3-0.1,0.5-0.1c-0.2-2.3-0.3-4.6-0.7-6.9
			c-1.1-6.7-4.2-12.2-10.3-15.7c-2.5-1.4-4.9-2.9-7.2-4.5c-3.6-2.6-7.2-5.3-10.8-8c-0.5-0.4-1-0.9-1.6-1.4c-0.1,0.2-0.2,0.3-0.1,0.4
			c0.1,0.4,0.3,0.8,0.5,1.1c1.7,3.4,4.1,6.2,7.1,8.6c1.9,1.4,3.7,2.9,5.7,4.1c6.8,4.3,11.6,10.3,14.7,17.7c0.5,1.3,1.1,2.5,1.6,3.8
			C376.6,108.5,376.8,108.8,377,109.1z M346.4,82.4c0.3,2.7,0.7,5.5,0.8,8.2c0.3,4-1.3,6.9-5.1,8.5c-1.2,0.5-2.2,1.4-3.2,2.2
			c-0.9,0.8-0.8,1.8,0,2.5c0.5,0.5,1.2,0.9,1.8,1.2c6.4,2.8,12.4-1.4,11.7-8.4C352,91.3,349.4,86.8,346.4,82.4z M347.1,473.3
			c3.8-0.3,7.4-1.4,10.5-3.7c2.3-1.7,4-3.9,4.1-6.9c0.1-1.7-0.1-3.5-0.8-5c-0.7-1.8-0.3-3.1,0.8-4.5c1.7-2.1,3.8-3.8,6.2-5.1
			c0.6-0.3,1.2-0.7,2.1-1.2c-2-0.2-3.4,0.4-4.7,1.3c-2.2,1.4-4.2,3-6.3,4.6c-0.8,0.6-1.4,1.2-2.6,1s-2.4,0.1-3.6,0.9
			c0.7,0.7,1.2,1.3,1.7,1.8c2.7,2.9,3,6.1,0.7,9.3c-1.1,1.6-2.6,3.1-4.1,4.4C350,471.4,348.5,472.3,347.1,473.3z M325.5,183
			c-2-0.3-3.9-0.3-5.7-0.8c-4.3-1-7.7,0.1-10.4,3.5c-0.5,0.6-1,1.1-1.4,1.7c-2.6,3.9-5.2,7.8-7.8,11.8c-0.3,0.4-0.4,0.9-0.8,1.8
			c5.5-2.3,10.6-4,16-5c-1.5-0.3-2.9-0.5-4.3-0.4c-1.4,0-2.9,0.3-4.4,0.4c0.7-3,3.7-7.2,6.5-9.4c1.3-1,2.8-1.6,4.5-1.5
			c1.5,0.1,3.1,0.1,4.6,0C323.8,185,325,184.6,325.5,183z M317.3,213.6c1.2-1.1,2.3-2.2,3.5-3.1c2.6-1.8,5.2-3.6,7.9-5.3
			c1.7-1.1,3.5-2,4.5-3.9c-5.1,2.1-10.8,3-15,8c-0.1-1.6-0.4-2.6-0.1-3.6c0.4-1.4,1.1-2.7,1.7-4c0.7-1.4,1.5-2.7,2.1-4.1
			c0.5-1.2,0.5-2.4-0.4-3.6c-1.4,2.1-2.7,3.9-3.9,5.8c-0.9,1.4-1.7,2.8-2.2,4.3C314.1,207.8,315,210.9,317.3,213.6z M331,173.7
			c-1.6,1-3,0.6-4.4,0.1c-1.8-0.7-3.6-1.5-5.5-2c-7.1-2.2-15.2,0.7-19.4,6.7c2.8,0.6,5.7,1.2,8.7,1.8c-0.2-2.2-2.4-2.6-3.9-3.8
			c0.5-0.4,0.8-0.6,1.2-0.8c6.4-3.5,12.6-3.3,18.5,1.1c1.1,0.8,2.3,1.5,3.6,0.8C331,176.8,331.1,175.4,331,173.7z M355.8,73.5
			c0.1-2.7-0.7-5-2.2-7.1c-4-5.4-9.7-8.1-16.2-10.4c1,2.4,1.8,4.4,2.6,6.5c3.3,0.5,6.4,1.5,8.9,3.7C351.3,68.5,353.4,71,355.8,73.5z
			 M273.5,53.9c-0.2,0-0.3,0.1-0.5,0.1c0.1,0.9,0,1.8,0.3,2.7c0.3,0.8,0.7,1.6,1.3,2.3c2.1,2.8,2.6,5.9,2,9.2
			c-0.4,2.6-1.1,5.2-1.7,7.7c0.1,0,0.4-0.1,0.5-0.2c3.8-3.1,5.3-10.2,2.9-14.4C276.9,58.8,275.1,56.4,273.5,53.9z M434.9,446.3
			c4.4-1.6,8.5-3,12.8-4.6C441.8,440,437.6,441.5,434.9,446.3z M267.1,69.5c0.6-0.7,1-1,1.2-1.3c1.4-2.5,1-5.8-1.1-7.9
			c-1.6-1.6-3.4-3-5.4-4.8c0.2,0.9,0.2,1.5,0.5,1.9c0.7,0.9,1.4,1.8,2.2,2.5c1.9,1.6,2.7,3.6,2.7,6C267.1,67,267.1,68,267.1,69.5z
			 M239.6,57.2c6.2,1.5,6.4,6.7,7.2,12c1.5-3.3,1.6-6.1,0-8.8C245.1,57.9,242.7,56.8,239.6,57.2z M257.9,67.9c2.1-4.2-0.2-8.5-4.4-9
			C255.8,61.3,257.5,64,257.9,67.9z M428.8,441.9c2.9-0.8,5.7-1.7,9-2.6C433.7,437.5,431.2,439.5,428.8,441.9z"/>
		<path d="M258.3,119.9c-0.3,2.6-0.6,5.2-0.9,7.8c-1.2,8.6-3,17-6.5,24.9c-1.4,3.3-3.2,6.4-5.1,9.4c-3.6,5.6-8.4,9.9-15.4,12.1
			c0.8,0.3,1.3,0.5,1.7,0.6c2.5,0.5,4.9,1.3,7,2.8c1.4,1,2.7,2.3,3.4,4.5c-8-3.5-15.9-3.4-23.9-1.4c4.1,1.9,8.7,2.7,11.9,6.4
			c-2.5-0.3-4.9-0.6-7.4-0.8c-9.4-0.7-18.7-0.7-27.8,2.2c-7,2.3-12.8,6.1-16.4,12.7c-1.9,3.4-3,7-2.8,11.2c1-0.3,1.7-0.6,2.5-0.9
			c11.4-4.1,23.2-6.3,35.4-5.5c17.9,1.2,32.4,8.8,42.9,23.3c6.9,9.5,16.1,15.5,27,19c11.7,3.8,23.1,2.7,34.2-2.5
			c8.3-3.9,15.3-9.5,21.7-16c1.2-1.2,2.6-2.2,3.8-3.3c-0.1,0.3-0.1,0.9-0.4,1.3c-1.5,2.2-2.8,4.6-4.7,6.5
			c-11.5,11.9-25.4,19.6-41.8,21.7c-17.5,2.3-31.6-4.4-42.1-18.3c-2.9-3.9-5.5-8.1-9-11.5c-7-6.8-15.3-11.3-24.6-13.8
			c-0.5-0.1-1.1-0.2-1.7,0.1c0.7,0.4,1.4,0.8,2.1,1.1c5,2.5,10,5.2,14.4,8.7c2.2,1.7,4.2,3.8,6.2,5.8c0.9,0.9,1.4,2.1,2.3,3.6
			c-1.3,0.2-2.2,0.5-3.1,0.6c-2.8,0.1-5.5-0.5-8.1-1.6c-3.2-1.4-6.4-2.8-9.4-4.7c-3.2-2-6.6-3.2-10.2-3.9
			c-18.3-3.5-35.2,0.1-51.1,9.5c-0.1,0.1-0.2,0.2-0.5,0.5c1,0.5,1.9,0.2,2.8,0.1c5.2-0.3,10.4-0.8,15.6-0.8
			c8.7,0.1,17.2,1.5,25.3,4.8c7.4,3.1,13.9,7.5,18.7,14c1.5,2,2.7,4.2,4,6.3c-0.1,0.2-0.3,0.3-0.4,0.5c-0.8-0.3-1.5-0.6-2.3-0.9
			c-9.1-3.9-18.5-7.1-28.3-8.9c-6.9-1.3-13.9-1.9-20.8-0.3c-0.5,0.1-0.9,0.2-1.4,0.4c-0.3,0.1-0.6,0.2-1.5,0.5
			c1.5,0.4,2.6,0.5,3.6,0.6c3.9,0.5,7.7,1.5,11,3.7c2.8,1.8,5,4.1,6.2,7.5c-1.8-0.3-3.4-0.7-5-0.9c-8.2-1.2-16,0.3-23.6,3.3
			c-8.8,3.5-16.3,8.8-23.1,15.2c-1.4,1.3-2.8,2.7-4.2,4.1c-5.5,5.6-8.5,12.4-9.6,20.1c-1.6,11.6,0.6,22.7,4.7,33.4
			c2.1,5.4,4.7,10.6,7.8,15.4c0.4,0.6,0.7,1.2,1.2,2.1c-1.9-0.4-3.2-1.2-4.3-2.2c-2.9-2.7-5.9-5.4-8.4-8.5
			c-3.2-3.9-5.9-8.2-8.8-12.3c-0.4-0.6-0.8-1.2-1.3-1.9c0,4.7,7.9,22.2,14.4,31.7c6.6,9.8,14.7,18.2,24.7,24.7
			c-0.9-0.3-1.8-0.5-2.6-0.9c-15.8-6.1-27.4-16.9-34.9-32c-5.2-10.4-8-21.5-8.7-33c-1.1-18.2,3.5-35.1,11.7-51.2
			c4.6-9,10.8-16.8,18.8-23.1c2.7-2.1,5.6-3.9,8.5-5.9c-0.2-3.9,1.6-7.1,4-10.1c3.1-3.9,6.9-7.1,11-10c0.7-0.5,1.4-1,2.3-1.6
			c-0.2-1.2-0.5-2.4-0.7-3.6c-1.2-7.5,0.7-14,5.9-19.6c2.9-3.1,6.4-5.3,10.2-7c4.4-2,9-3.3,13.7-4.3c25-5.2,42.5-19.7,52.6-43.2
			c2.1-5,3.8-10.2,5.7-15.3c0.4-1.2,0.9-2.4,1.4-3.5C257.9,119.8,258.1,119.8,258.3,119.9z"/>
		<path d="M83,406c1.2,2,2.9,3.6,3.3,6c-1.4,0-2.7,0-4,0c-6.8-0.2-13.7-0.2-20.4,1.5c-3,0.8-5.9,1.8-8.4,3.7
			c-2.2,1.6-3.8,3.7-4.7,6.3c-0.5,1.5-0.1,2.5,1,3.4c2,1.7,4.4,2.3,7,2.7c5.4,0.9,10.9,0.4,16.3-0.3c1.5-0.2,3-0.4,4.6-0.6
			c0,0.2,0.1,0.3,0.1,0.5c-3.4,0.9-6.7,1.8-10.1,2.6c-6.4,1.4-12.8,2.1-19.4,1.3c-3.7-0.5-7.2-1.4-10.3-3.4
			c-0.8-0.5-1.6-1.1-2.4-1.7c1.3-3.5,3-6.6,5.2-9.4c5.7-7.1,13.4-10.9,22.1-12.8c3.9-0.8,7.9-1.2,11.9-1c1.6,0.1,3-0.3,4.4-1
			c6.9-3.4,11.6-8.8,14.9-15.6c3-6.2,4.1-12.8,4.6-19.6c0.8-12-1.6-23.5-6.6-34.4c-5.1-11-10.3-21.9-15.5-32.8
			c-4.4-9.3-8.9-18.6-12.1-28.5c-1.5-4.6-2.5-9.2-3-14c-1-11.2,5.4-19.9,16.5-22.1c6.4-1.3,12.8-0.7,19.1,0.6
			c8.7,1.8,17,4.9,25.1,8.7c0.4,0.2,0.7,0.4,1.4,0.9c-4.1-0.8-7.7-1.5-11.3-2.1c-7.8-1.2-15.5-1.6-23.3,0.2c-3,0.7-5.7,1.9-8.2,3.5
			c-2.2,1.5-3.6,3.4-4.4,6c-1.5,4.7-1.3,9.5-0.7,14.3c1.3,10.7,4.6,20.9,8.4,31c4.7,12.6,9.8,25,14.5,37.5
			c2.1,5.7,4.1,11.5,5.5,17.4c2,8.6,0.9,17.1-1.6,25.5c-1.9,6.3-4.8,12.1-9.1,17.1c-2.4,2.8-5.1,5.2-8.2,7.2
			C84.2,405.1,83.7,405.6,83,406z"/>
		<path d="M353,413.6c-0.6-0.5-1.2-1.1-1.8-1.6c-1.1-0.9-2.2-1.4-3.6-0.6c-1.2,0.7-2,2.3-1.7,3.8c0.3,1.3,0.9,2.4,1.3,3.7
			c0.4,1,1.1,2,0.5,3.4c-2.1-2.1-4.2-3.8-7.3-3.4c-2.1,0.3-4,1.2-5.5,2.8c2.1,1.6,4.6,2.9,4.4,6.4c-2.3-1.9-4.5-3.6-7.3-3.7
			c-2.7-0.2-5.3-0.2-7.9,1c0.8,1.7,2.2,3,1.9,4.9c-2.4-1.1-4.7-2.2-7.1-3c-2.5-0.8-5.1-0.6-7.8,0.5c1.5,1.9,3.3,3.6,2.7,6.4
			c-0.9-0.5-1.6-0.9-2.4-1.4c-6.7-3.8-13.3-3.2-19.3,1.6c-2.6,2.1-4.9,4.9-6.4,7.9c6.3,4.9,13.8,5,21.4,4.9
			c-5.4,5.8-23.3,4.7-32.5-2.2c0.5-1.3,0.9-2.8,1.6-4.2c3.6-7.4,9.8-11.8,17.5-14.2c4.7-1.5,9.5-2.1,14.4-2.1
			c14,0,24.9-6.1,33.5-16.8c9-11.2,12.2-24.2,10.6-38.4c-0.6-5.5-2-10.8-4.1-16c-4.1-10-7.2-20.4-9-31.1
			c-1.9-11.3-2.3-22.7,0.7-33.9c2-7.6,5.4-14.5,11.1-20c1.3-1.2,2.7-2.2,4.1-3.3c0.1,0.1,0.3,0.2,0.4,0.3c-0.2,0.7-0.4,1.3-0.7,2
			c-4.5,11.8-7.1,24-7.7,36.6c-0.9,19.3,2.2,37.9,9.3,55.9c0.5,1.3,0.7,2.8,0.8,4.3c0.3,4.5,0.6,9.1,0.8,13.6
			c0.1,1.8-0.3,3.5-0.5,5.3c0.8,1.1,1.6,2.2,2.6,3.5c-0.5,0.2-0.7,0.3-0.9,0.4c-2.5,0.3-2.6,0.4-3.3,2.8c-0.9,3.4-1,6.6,1.3,9.5
			c0.4,0.6,0.6,1.4,1.1,2.6c-1.1-0.3-1.6-0.5-2.1-0.7c-2.4-0.7-3.8,0.4-3.7,2.9c0.1,1,0.4,1.9,0.6,2.9c0.3,1.1,0.8,2.2,0.9,3.3
			c0.1,1.1,0,2.2,0,3.3C353.5,413.5,353.2,413.6,353,413.6z"/>
		<path d="M292.8,370.2c-3.1,7.5-7,14-11.8,20c-12.7,15.8-29.1,25.8-48.6,30.6c-11.2,2.8-22.6,3.9-34.1,3.1
			c-14.9-1.1-28.2-6.7-39.9-16c-10.5-8.4-18.6-18.8-24.6-30.9c-0.2-0.4-0.3-0.7-0.5-1.1c-0.1-0.1-0.1-0.3-0.2-0.8
			c0.6,0.3,1.1,0.4,1.5,0.7c5.1,3,10.3,6,15.4,9c0.6,0.4,1.3,0.8,1.7,1.4c6.1,8.3,14.2,14,23.2,18.6c6.7,3.4,13.8,6,21.1,7.3
			c4.6,0.8,9.4,1,14.1,1.1c18.8,0.3,36.5-3.9,52.6-13.7c11.6-7,21.1-16.2,28.6-27.5c0.3-0.5,0.6-0.9,0.9-1.4
			C292.2,370.4,292.3,370.4,292.8,370.2z"/>
		<path d="M307.7,37.5c-1.7,0.3-3.2-0.3-4.6-1.1c-1.9-1.1-3.7-2.4-5.5-3.7c-1.9-1.4-3.8-2.9-5.7-4.2c-3.1-2.1-6.5-2.9-10.2-2.5
			c-2.9,0.4-5.8,0.8-8.7,1.4c-3.6,0.7-7.1,0.3-10.6-0.9c-2.3-0.8-4.6-1.7-6.9-2.5c-2.4-0.7-4.7-1.1-7.1,0.7c1.9,1.9,3.7,3.7,5.7,5.4
			c1.4,1.2,3,1.8,4.9,2c6.5,1,10.6,5.8,10.6,12.3c0,0.3-0.1,0.6-0.2,1.4c-0.6-1-0.9-1.7-1.3-2.2c-1.2-1.6-2.3-3.3-3.7-4.9
			c-1.6-1.7-3.6-2.8-5.9-3.1c-2.9-0.3-5-1.7-6.9-3.8c-0.9-1-1.7-2-2.5-3c-1.5-2-3.4-3.2-5.9-3.4c-1.8-0.1-3.5-0.2-5.6-0.4
			c0.6,1.8,2.4,2.7,1.9,4.9c-4.2-3-8.6-3.9-13.5-1.3c2.4,1,5.3,1.1,5.5,4.8c-3.4-1.9-6.7-2.8-10.3-1.5c-2.4,0.9-4.3,2.5-5.9,4.6
			c3.5,0.9,3.5,0.9,4.5,2.2c-0.2,0.1-0.5,0.2-0.6,0.2c-4-0.8-7.5,0.5-10.8,2.7c-3.2,2.2-5.9,5-8.5,8c-0.8,0.9-1.6,1.9-2.3,2.8
			c-5.5,7.6-13.1,11.4-22.1,13.2c-7.8,1.5-15.7,1.3-23.6,0.3c-14.7-1.9-28.8-6-42.3-12c-1.8-0.8-3.5-1.8-5.2-2.6
			c-11.7-5.6-23.8-7.1-36.3-3.7C53.2,52,46.8,63.5,45,75c-0.6,4.1-0.9,8.3,0,12.4c0.4,1.7,0.9,3.5,1.6,5.1c2.5,5,7.6,7.2,12.9,5.4
			c2.2-0.8,4.1-2.1,5.9-3.1c-2.3,7.2-10.9,10.4-17.5,6.1c-5.1-3.3-7.6-8.3-8.9-14.1c-1.4-6.4-0.1-12.5,2.4-18.3
			c5.9-14.2,16.7-22.5,31.7-25c12.2-2.1,23.6,0.7,34.4,6.4c11.3,6,23.3,9.6,35.8,11.6c8.1,1.3,16.2,1.7,24.3,1
			c6.2-0.6,12.2-1.8,17.9-4.4c4-1.8,7.4-4.3,10.2-7.7s5.9-6.6,9-9.6c2.2-2.1,4.4-4.4,7.8-4.6c0.4,0,0.9-0.6,1.3-1
			c2.6-2.6,5.2-5.2,8.9-6.1c0.4-0.1,0.8-0.6,1.1-0.9c2.6-2.4,5.5-3.9,9.2-3.8c0.6,0,1.3-0.2,1.7-0.6c2.5-2.6,5.6-2.9,8.8-1.9
			c2.3,0.7,4.4,0.8,6.7-0.2c2.9-1.2,5.9-0.9,8.9,0c1.9,0.6,3.7,1.2,5.6,1.8c3.5,1.3,7,1.6,10.5,0.2c0.8-0.3,1.6-0.5,2.3-0.7
			c5-1.4,9.6-0.6,13.9,2.5c5.4,3.8,10.8,7.6,16.1,11.4C307.6,37.1,307.6,37.3,307.7,37.5z"/>
		<path d="M241.2,91.7c3-2.5,6.9-2.6,9.9-0.3c4.2,3.2,5.6,8.9,3.5,13.7c-1.4,3.3-3.1,6.4-5.5,9.2c-2.8,3.3-6.1,5.6-10.5,6
			c-4.1,0.3-7.8-1-10.9-3.4c-2.5-2-3.2-5-3.6-8.1c-1.5-14.2,7.2-27.5,21-32.1c1.8-0.6,3.8-0.9,5.7-1.1c4.8-0.5,9.6-1.2,14.4-3.3
			c-0.6,3.6-2.6,5.5-5.3,6.7c0,3.3,2.4,6.9,5.5,8.3c0.6-1.7,0.7-3.6,2.3-5.2c0.2,1.5,0.4,2.8,0.7,4c2.1,10.5,9.2,17.2,19.8,18.8
			c2.6,0.4,5.2,0.4,7.8,0.6c2.8,0.2,5.1-0.9,7.2-2.5c2.3-1.8,4.1-4,5.4-6.5c1.6-3,3-6.1,4.7-9.1c1.5-2.8,3.2-5.5,5-8.1
			c1.2-1.8,3-3.1,5.4-4.1c-0.7,1.7-1.6,3-1.9,4.4c-0.6,3.3-1.1,6.6-1.3,9.9c-0.3,4.3-0.1,8.6-1,12.9c-1.4,6.5-5.1,11-11.1,13.5
			c-5.4,2.3-11,3.4-16.9,1.8c-4.3-1.2-8.1-3.5-11.2-6.7c-3-3.2-5.9-6.5-8.6-10s-5.1-7.4-7.8-10.9c-2-2.6-4.2-5.2-6.5-7.5
			c-3-3-6.6-3.6-10.8-2.1c-11,3.9-19.5,15.2-19.4,26.2c0,0.3,0,0.7,0,1c0.5,9,7.5,10.4,13.4,8.5c2.6-0.9,4.7-2.7,6.2-4.9
			c1.8-2.7,3.6-5.5,4.8-8.4c2.6-6.4-0.6-11.1-7.5-11.2C243.2,91.5,242.2,91.6,241.2,91.7z"/>
		<path d="M258.9,50.3c-0.7-1.2-1.4-2.3-2.2-3.5c-1.8-2.6-3.7-5.2-6.5-6.9c-2.3-1.5-3.8-1.6-6.4-0.4c2.8,3.7,5,7.7,5.3,12.6
			c-0.4-0.7-0.8-1.3-1.3-1.9c-1.7-2.3-3.3-4.6-5.2-6.7c-0.9-1.1-2.3-1.8-3.6-2.5c-1.2-0.7-2.5-0.6-3.8,0.4c1.8,2,2.9,4.2,3.3,7.4
			c-0.9-0.9-1.5-1.6-2.2-2.1c-1.3-1-2.6-2.2-4.1-3c-2.1-1.1-3.5-0.5-4.9,1.7c1.9,1.7,3.3,3.9,3.9,7c-1-0.7-1.6-1.2-2.2-1.6
			c-1.7-0.9-3.4-2-5.2-2.7c-1.5-0.6-2.9-0.1-3.9,1.5c2.5,0.9,4.5,2.2,6.1,4.6c-3.4-0.3-6.5-1.4-9.6-0.5c-0.3,0.1-0.5,0.3-1,0.7
			c2.7,0.8,4.8,2,6.4,4.6c-3.9-0.5-7.5-2.4-11.5-0.7c1.7,1.5,3.8,2.1,5,4.2c-4.3,0-8.6-1.8-12.3,1.7c1.5,0.8,2.8,1.4,3.4,3.1
			c-0.8,0-1.5,0-2.2,0c-4.8-0.1-7.5,1.6-9.2,6c-3.3,8.4-6.5,16.8-9.9,25.2c-2.5,6.2-5.7,12.1-10,17.3c-6.3,7.6-14.4,12.3-23.7,15.1
			c-10.6,3.1-21.4,4.8-32.5,4.5c-4.3-0.1-8.6-0.8-12.7-2.4c-9.9-3.6-14.9-10.9-15.7-21.2c-0.3-4.2,0.1-8.3,1.9-12.2
			c1.9-4.2,5-6.8,9.6-7.3c2.3-0.3,4.5-0.3,6.8-0.5c2.4-0.1,4.9-0.2,7-1.9c-0.2,1.7-0.6,2.3-1.9,2.9c-1.1,0.5-2.3,0.8-3.5,1
			c-2.4,0.4-4.9,0.5-7.2,0.9c-3.9,0.7-6.3,3.1-7.1,6.9c-1.5,7.5-0.4,14.6,4.1,20.9c3.4,4.7,8.3,7.2,13.9,8.4
			c6.1,1.3,12.1,1,18.2,0.1c6.9-1,13.7-2.5,20.2-5.2c11.4-4.8,19.9-12.7,25.8-23.5c3.2-5.9,5.4-12.2,7.4-18.5
			c1.5-4.6,2.9-9.1,5.2-13.4c2.1-3.9,4.9-7.1,8.5-9.6c2.5-1.7,5.1-3.2,7.6-4.8c1.7-1.1,3.6-2,5.2-3.3c1.1-0.9,2.2-2,2.8-3.3
			c1.5-3.3,4-4.8,7.5-5c1.7-0.1,2.9-0.6,4.1-1.8c0.7-0.7,1.7-1.3,2.6-1.8c0.6-0.3,1.5-0.8,2.1-0.6c1.6,0.7,2.6-0.2,3.7-0.9
			c2-1.2,4-2.1,6.5-1.3c0.5,0.2,1.3-0.1,1.8-0.4c3.7-1.9,7.1-1.4,10.2,1.2C256.8,41.7,258.5,45.7,258.9,50.3z"/>
		<path d="M362,352.2c1.6,1.1,2.2,2.6,2.7,4.2c0.6,2,0.9,4.1,1.4,6.2c0.1,0.6,0.3,1.3,0.5,1.9c1.4,4.9,3.5,6.3,8.6,5.7
			c0.5,0,0.9,0,1.8,0c-2.7,3.4-6.2,2.6-9.4,2.5c-0.9,2.2-0.5,4.1,1.3,5.5c1,0.8,2.2,1.3,3.4,1.9c0.7,0.3,1.5,0.5,2.2,1.2
			c-1.1,0.1-2.3,0.3-3.4,0.3c-1.2,0-2.4-0.2-3.7-0.3c-0.6,2.7-0.2,5.1,1.2,7.4c1.4,2.3,3.8,3.1,6.1,4.2c-2.2,0.6-4.3,0.2-6.3-0.2
			c-2.1,5.4,0,9.3,6.3,11.9c-2.5,1.3-4.9,0-7.6-0.3c-0.5,5.5,1.2,9.6,6.7,12.1c-2.9,0.8-5-0.8-7.3-1.4c-0.7,3.4,1.7,4.9,3.9,6.9
			c-3,0.2-6.1-0.1-7,3.7c2.3,1.1,4.9,1.6,6.5,3.8c-2-0.4-3.9-1.1-5.7-1c-2.1,0.1-3.4,1.6-4.3,3.7c1.6,0.9,3.6,1.2,4.8,2.9
			c-7-1.3-7.9-1.2-10,1.3c1.6,0.9,3.3,1.8,4.9,2.8c0,0.2-0.1,0.4-0.1,0.6c-4.4-0.6-8.9-1.5-12.6,2.2c2.1,1.5,4.6,2.1,6.6,4.5
			c-6.2-2.4-12-2.7-18.1-2.1c4.2,2,9.1,3,11.4,8.4c-0.9-0.4-1.5-0.6-2.1-0.8c-2.5-0.8-4.9-1.9-7.4-2.4c-5.5-1-10.3,0.8-14.2,4.8
			c-3.2,3.2-5.3,7.2-6.9,11.4c-0.5,1.2-0.1,2.1,0.9,2.7c1.7,0.9,3.4,2,5.2,2.5c4.3,1.3,8.6,2.3,12.9,3.4c0.7,0.2,1.4,0.3,2.1,0.7
			c-12.3,4.6-24.2,3.2-36.1-2.1c1.6-5.3,4.1-9.9,7.2-14c8.1-10.9,19-16.7,32.5-17.7c1.2-0.1,2-0.4,2.9-1.4c1.5-1.6,3.2-3.1,5-4.2
			c5.2-3.2,9.1-7.6,12-12.9c0.6-1,0.9-1.9,0.7-3.2c-0.4-2,0.1-3.9,1.4-5.5c0.6-0.8,0.9-1.4,0.6-2.4c-0.8-2.5-0.4-5,0.3-7.4
			c0.3-1.1,0.4-2.4,0.3-3.5c-0.3-2.8-0.7-5.7,0.5-8.4c0.2-0.4,0.2-1,0-1.4c-1.1-3.2-1-6.6-1-9.9c0-0.6,0-1.3-0.2-1.9
			c-0.9-2.3-0.7-4.6-0.1-7c1.7-6.4,1.3-12.7-1.3-18.8C362,352.8,362,352.6,362,352.2z"/>
		<path d="M416.1,319.6c-0.2-0.7-0.5-1.5-0.7-2.2c-5-15-11.3-29.4-20.2-42.6c-5.1-7.6-10.9-14.7-18.3-20.1c-3-2.2-6.4-3.8-9.6-5.8
			c-1.5-0.9-2.8-0.8-4.4-0.2c-9.5,3.7-16.6,10-21.9,18.6c-4.6,7.5-7.3,15.7-9,24.3c-1.3,6.6-2,13.3-2,20.1c0,0.5,0,1.1-0.5,1.7
			c-0.4-2.4-0.9-4.9-1.2-7.3c-1.5-12.7-0.4-25,4.8-36.8c5.4-12.3,14.6-21,26.3-27.1c1.3-0.7,2.6-1.3,3.9-1.9
			c12.6,7.1,23.9,15.6,33.2,26.6c7.9,9.4,13.8,19.9,17.2,31.7c1.7,6,2.8,12.2,2.9,18.5c0,0.8,0,1.5,0,2.3
			C416.5,319.5,416.3,319.6,416.1,319.6z"/>
		<path d="M387.5,224.4c3.1,0.8,6.2,1.7,9.2,2.3c2.3,0.5,4.6,0.9,7,1.1c1.8,0.1,3.7,0,5.6-0.3c2.2-0.3,3.6-1.5,4.1-3.9
			c1.6-6.9,1.1-13.6-1.6-20.1c-3.3-8.3-8.8-15-15.3-20.9c-1.6-1.5-3.3-2.8-4.9-4.5c5,0.2,9.5,1.6,14.1,4.9c-0.3-2-0.4-3.6-0.7-5.1
			c-2.4-12.7-9.7-21.6-21.3-27.1c-4.6-2.2-9.4-3.7-14.4-4.5c-0.7-0.1-1.4-0.3-2.1-0.6c4.6-1.6,9.3-2.9,14.4-1.8
			c1.1-3,0.9-5.9,0.4-8.7c-0.7-4.4-2.6-8.4-4.9-12.2c-3-5-6.6-9.5-10.7-13.6c-0.5-0.6-1.1-1.1-1.7-1.8c0.3-0.1,0.5-0.2,0.6-0.1
			c9.6,4.6,17,11.3,20.7,21.6c1.7,4.7,2.1,9.5,1.5,14.4c-0.2,1.9,0.3,2.9,1.8,4.1c8.4,6.7,14.9,15,18.4,25.3
			c1.5,4.3,2.4,8.6,2.3,13.1c0,1.3,0.3,2.5,0.9,3.7c3.6,7.3,6.5,14.9,8.1,22.9c0.8,3.9,1.2,7.9,0.3,11.9c-0.1,0.4-0.2,0.8-0.3,1.2
			c-0.6,2.9-2.2,4.5-5.3,5.1c-9.1,1.6-17.5-0.1-25.1-5.3c-0.3-0.2-0.7-0.5-1-0.7C387.7,224.8,387.7,224.6,387.5,224.4z"/>
		<path d="M487.5,462.4c-1.1,1.9-2.6,3.3-4.3,4.4c-4.4,2.9-9.3,4.2-14.4,4.8c-9.2,1.1-18.3-0.2-27.4-2.1c-3.3-0.7-5.4-3-6.5-6.1
			c-0.6-1.6-1.5-2.8-2.8-3.8c-8.3-6.7-17.7-10.8-28.1-12.9c-5.4-1.1-10.8-1.6-16.2-1.5c-1.3,0-2.6,0-4.4,0c0.7-0.5,1.1-0.9,1.5-1.1
			c2.8-1.3,5.7-1.7,8.8-1.8c5.7-0.2,11.3,0.8,16.9,2.1c0.8,0.2,1.5,0.4,2.4,0.4c-5.7-4.4-11.9-7.7-18.9-9.3
			c-7.1-1.6-14-1.2-20.8,1.6c-0.1-0.2-0.1-0.3-0.2-0.5c0.9-0.5,1.7-1.2,2.7-1.6c3.7-1.7,7.7-2,11.6-2.4c7.4-0.6,14.3,1.1,20.5,5.1
			c5,3.3,9.8,6.9,14.7,10.5c3.3,2.4,6.6,5.1,9.9,7.5c1.5,1,3.3,1.6,5.1,2.5c0.8-1.1,1.4-2,2-2.8c4.1-5.7,9.3-10,16.3-11.7
			c2.4-0.6,4.9-1,7.4-0.4c-0.7,0.2-1.3,0.4-2,0.6c-3.8,1.1-7.6,2.5-10.8,4.9c-3.3,2.4-5.6,5.5-5.9,9.7c-0.1,1.4,0.1,2.9,0.2,4.3
			c7.1,2.8,14.1,4.4,21.6,4.4C473.8,467.4,480.8,465.7,487.5,462.4z"/>
		<path d="M405.1,418.7c3.7,1.2,7.3,0.9,10.8-1.7c-0.2,2.6-1.8,3.7-3.7,4.3c-1.7,0.5-3.6,0.7-5.6,1.1c3.3,1.5,5,1.5,11.1,0.6
			c-0.4,1.8-1.2,2.5-3.6,3.2c-1.7,0.4-3.4,0.7-5.5,1c1.2,1.3,2.5,1.5,3.9,1.5c2.1,0.1,4.2,0,6.3,0c1.2,0,2.3,0.3,3.5,0.8
			c-2.6,0.9-5.6,0-7.7,2.4c0.6,1.3,1.7,1.6,2.8,1.7c1.9,0.2,3.9,0.4,5.8,0.5c2.3,0.2,4.7,0.2,7.3,1.8c-1,0.1-1.5,0.1-2,0.1
			c-2.8,0.1-5.5,0.2-8.3,0.3c-4.2,0-8.2-1-11.9-3c-2.8-1.6-5.5-3.4-8.1-5.8c1.1-1.2,2.1-2.3,3.2-3.6c-3.1,0.1-6,1.3-9.3,0.3
			c0.8-0.7,1.5-1.2,2.1-1.7c1.5-1.3,2.8-2.8,3.1-4.8c0.4-2.1,0-2.9-2.1-3.4c-1.6-0.3-3.2-0.3-4.8-0.4c-0.6,0-1.1,0-1.9,0
			c0.6-1.1,1.5-1.4,2.4-1.7c1.1-0.4,2.4-0.7,3.5-1.1c0.8-0.3,1.7-0.7,2.3-1.3c1.7-1.5,1.6-3.1-0.1-4.5c-2-1.5-4.3-2.4-6.7-2.6
			c-1.4-0.1-2.8,0-4.3,0c0.6-1.1,1.6-1.2,2.5-1.3c1.1-0.2,2.3-0.3,3.4-0.5c2-0.4,2.9-1.5,3-3.6c0.1-1.2-0.3-2.1-1.6-2.3
			c-1.6-0.3-3.2-0.6-4.8-0.9c-0.7-0.1-1.4,0-2.3-0.5c0.8-0.2,1.5-0.5,2.3-0.5c1.1-0.1,2.3,0,3.4,0c2.4-0.2,3-0.9,2.7-3.3
			c-0.5-3.7-1.1-7.4-1.5-11.1c-0.4-4-0.6-8,0.2-11.9c0.2-0.8,0.4-1.5,0.9-2.2c0.2,3.3,0.3,6.6,0.5,9.9c0.2,4.3,0.7,8.6,2,12.7
			c0.5,1.6,1.2,3.2,2.2,4.6c1.6,2.4,3.9,2.9,6.4,1.4c1.4-0.8,2.6-1.9,4-2.9c0.3,2.1-0.5,3.5-2,4.5s-3.3,1.7-5,2.5
			c-0.7,0.3-1.5,0.5-2.2,0.7c-0.4,4.1,4,8.2,7.8,7.3c0.8-0.2,1.5-0.9,2.1-1.5c0.4-0.4,0.6-1.1,0.9-1.7c1.1,2.1,1,3.3-0.6,4.7
			c-1.2,1-2.6,1.6-3.9,2.4c-1.1,0.6-2.2,1.1-3.2,1.8c-0.5,0.4-0.9,1.2-0.9,1.8c0,0.4,0.9,0.8,1.5,1c3.1,1,6.5-0.4,8.1-3.2
			c0.2-0.4,0.4-0.9,0.6-1.3c1.2,2.4,0.3,5.1-2.2,6.4c-1.3,0.7-2.9,1-4.4,1.4c-0.9,0.3-1.9,0.7-2.8,1
			C404.9,418.3,405,418.5,405.1,418.7z"/>
		<path d="M106,396.3c4-3.8,9-3.3,14.1-2.8c-1.5-6.6-3.5-12.9-2-19.7c2.4,7.1,4.6,14.3,12.2,18.1c-2.8,1.2-6.4,0.9-7.1,5.1
			c3.8-0.9,7.3-0.7,11.1,0.7c-1.2,0.3-2,0.4-2.7,0.7c-1.6,0.6-3.2,1.2-4.6,2.1c-2.4,1.6-3.3,4.1-2.9,7.3c1-0.2,2-0.3,2.9-0.5
			c3-0.4,5.9-0.9,8.9-1.2c1.9-0.1,2.6,0.3,4.2,1.7c-0.6,0.8-1.5,0.5-2.2,0.6c-2.5,0.5-4.9,0.9-7.4,1.5c-0.9,0.2-1.8,0.6-2.7,1
			c-6.6,3.2-8.4,9.4-4.5,15.6c1.6,2.6,3.5,4.1,7.2,5.7c-0.9,0.3-1.6,0.6-2.2,0.6c-6.5,0.7-12-1.2-16.3-6.2c-1-1.2-1.2-2.3-0.8-3.8
			c0.7-2.5,1.7-4.8,3.3-6.7c2-2.4,4.3-4.6,6.4-7c0.5-0.6,1.1-1.3,1.2-2c0.8-6.4-3.3-11.2-9.7-11.4C110.3,396,108.1,396.2,106,396.3z
			"/>
		<path d="M356.3,181.6c-4.8-8.1-4.9-12.8-0.6-17.2c0.9,3.2,2.9,5.6,5.1,7.9c2.9,3,5.9,5.8,9,8.6c0.7,0.6,1.6,1,2.6,1.2
			c6.6,1.5,12.7,4,18.1,8.1c0.8,0.6,1.5,1.2,2.3,1.9c-1.3,1.2-2.7,1.3-4.1,1c-2.4-0.6-4.9-1.2-7.3-1.9c-4.1-1.2-8.2-2.7-12.3-3.8
			c-6.4-1.7-12.8-2.2-19.2,0.8c-0.9-2.1-2.5-3.1-4.6-3.7c-3.3-1-5.8-3.2-7.6-6.2c-1-1.7-1.8-3.5-2.7-5.2c-0.9-1.8-1.9-3.4-3.8-4.4
			c-0.7,0.6-1.3,1.2-2.1,1.9c-0.3-2.5-0.7-4.6-1-7c1.1-0.4,2.3,0,3.1,0.8c1.3,1.1,2.5,2.3,3.5,3.7c1.8,2.5,3.2,5.3,4.9,7.9
			c3.4,5.2,3.5,5.4,10,5.8C351.8,181.8,353.9,181.6,356.3,181.6z"/>
		<path d="M323.5,258.6c-0.2,0.6-0.2,0.9-0.3,1c-3.9,6.2-5.4,13.2-6.3,20.3c-1.2,9.4-1,18.8-1.1,28.3c-0.1,6.7-0.2,13.3-0.5,20
			c-0.3,5.8-0.9,11.5-2.8,17c-0.7,2-1.6,3.9-2.4,5.8c-0.2,0-0.3-0.1-0.5-0.1c0.1-0.5,0.1-0.9,0.3-1.4c1.8-7.2,2.2-14.6,1.8-22
			c-0.6-11.5-2.4-23-2.1-34.6c0.2-8.1,1.4-16,5.3-23.3C317.1,265.5,319.8,261.9,323.5,258.6z"/>
		<path d="M198.6,89.2c1.7-1,3.3-2,5.1-2.8c1.5-0.7,3-1.3,4.6-1.5c2.7-0.5,4.2,0.8,4.5,3.5c0.1,0.6,0.1,1.1,0,1.7
			c0,0.4-0.1,0.7-0.2,1.5c-0.6-0.7-1-1-1.3-1.4c-1.8-1.9-3.7-2.3-5.9-1.2c-1.4,0.7-2.8,1.7-3.9,2.8c-3.6,3.6-6.4,7.7-8.5,12.4
			c-2.3,5.2-4.7,10.4-7.3,15.4c-6.2,11.6-16.2,18.1-29,20.6c-5,1-10.1,1.6-15.8,1.5c4.3-0.7,8.1-1.1,11.8-2
			c3.5-0.8,6.9-1.9,10.2-3.2c8.7-3.5,15.2-9.7,19.3-18.1c2.8-5.7,5-11.6,7.4-17.5c1.9-4.7,4-9.4,6.7-13.8c2.3-3.6,5-6.8,8.3-9.5
			c2.1-1.7,4.5-3,7.1-3.5c3-0.6,5.6,0,8.2,1.9c-10.3-0.7-16.4,5.4-21.6,12.9C198.3,88.9,198.5,89.1,198.6,89.2z"/>
		<path d="M195.2,109c1,5.1,3.6,9.3,6.2,13.5c1.4,2.4,2.8,4.7,4.1,7.2c3.3,6.4,4.4,13,2.6,20.1c-0.1,0.4-0.1,0.8-0.2,1.2
			c0,0.1,0.1,0.1,0.3,0.5c0.9-0.6,1.9-1,2.7-1.7c2-1.7,3.3-3.9,4-6.3c0.9-2.9,1.5-6,2.3-9c1,1.8,0.9,3.9,0.9,5.9
			c0,10.1-7.9,18.3-18.1,18.7c-2.3,0.1-4.7,0.1-7-0.4c-5.1-1.1-7.6-4.3-7.6-9.5c0-1,0.1-2.1,0.6-3.2c0.2,0.4,0.5,0.9,0.7,1.3
			c1.1,1.8,2,3.8,3.3,5.4c2.4,2.8,5.3,3.3,8.6,1.6c4.8-2.6,6.2-4.5,6-10.1c-0.1-3.2-1.1-6.2-2.3-9.2c-1.9-4.7-3.9-9.3-5.7-14
			c-1.2-3-2-6.2-1.8-9.5C194.8,110.6,195,109.8,195.2,109z"/>
		<path d="M400.4,204.5c-0.2,4.3-1.2,7.9-3.5,11c-2.1,2.8-5,4.5-8.5,4.7c-6.7,0.5-12.7-0.9-17.7-5.8c-3.2-3.1-6.5-6.1-9.9-9
			c-3.6-3.1-7.7-5.4-12.5-6.3c-0.8-0.2-1.8-0.1-2.5,0.2c-1.9,0.8-3.7,1.1-6.1,0.8c1.8-1.3,3.4-2.2,4.8-3.4c1.4-1.3,2.6-2.9,3.8-4.3
			c0.7,1.3,0.7,1.3,0.4,3.4c6.6,1.7,11.9,5.7,17.6,9.2c2.6,1.6,5.3,3.2,7.9,4.8c4.4,2.7,9,2.9,13.9,1.4c3.6-1.1,6.9-2.9,10-5
			C398.7,205.7,399.3,205.2,400.4,204.5z"/>
		<path d="M94,357.5c0.5,6.9-1.1,13.1-6.1,18.2c-4.2,4.4-9.6,6.9-15.4,8.5c-1.9,0.5-3.8,0.9-5.8,1.3c0,1.2,0,2.5,0,4.3
			c-0.9-1-1.5-1.6-2-2.3c-3.4-3.7-7.5-6-12.7-5.7c-1.2,0.1-2.4,0.2-3.6,0.6c-5.8,1.7-10.4,5.2-14.6,9.7c3.1,4.4,7.7,6.2,12.5,7.9
			c-6.1,1.6-13.4-1.9-16.7-7.8c4.1-7.7,9.6-13.7,19.1-14.7c4.5-0.5,8.7,0.8,12.7,2.8c1.9,0.9,3.7,1.2,5.6,0.9c2-0.3,4-0.6,6-1.1
			c8.9-2.3,14.9-7.9,18.2-16.5c0.8-2.1,1.4-4.3,2.2-6.4C93.7,357.3,93.9,357.4,94,357.5z"/>
		<path d="M265.7,105.3c3.2,4.5,6.4,8.9,11,12.6c-2.2,0.7-3.5-0.5-5.1-1.3c-0.5,1.2-0.3,2.4,0.3,3.2c1.1,1.5,2.2,3,3.7,4.1
			c2.8,2.2,6.1,3.4,9.4,4.4c0.8,0.2,1.5,0.5,2.2,0.9c-5.6,2.1-10.3-0.6-15.2-3.2c-0.3,6.1,4,8.5,7.9,11.2c-2.2,0.4-2.8,0.2-7.6-2.4
			c-0.9,1.8-1,2.3-0.6,5c2.3,0.5,4.3,1.5,5.6,3.8c-2-0.1-4-0.5-5.9-0.2c-2.1,0.3-3.3,1.9-3.9,4.1c7,0.6,9.3,5.7,11.1,11.4
			c-0.2-0.1-0.4-0.3-0.6-0.4c-0.2-0.2-0.4-0.5-0.6-0.7c-1.6-1.5-3.1-3.1-4.9-4.3c-2.7-1.8-7-2-9.6,1.5c-1.6,2.1-3.4,4.1-5.4,6.4
			c5.9,1.5,9.8,4.7,11.3,10.5c-5.2-7.4-12.3-7.7-20.2-5.7c0.6-0.5,1.3-1.1,1.9-1.6c7.2-5.8,12.8-12.7,16.1-21.4
			c3.7-9.9,3.6-19.9,1.2-30c-0.5-2.2-1.2-4.4-1.9-6.6C265.9,106.2,265.8,105.7,265.7,105.3z"/>
		<path d="M426.1,411.2c4.2,0.6,7.8,1.2,11.4,1.6c5.8,0.6,11.7,0.6,17.5-0.6c3.3-0.7,6.3-1.9,9-4c4.2-3.3,9.1-4.5,14.5-3.5
			s10,3.5,14.2,7.2c-0.8-0.3-1.6-0.5-2.4-0.8c-3.6-1.4-7.4-2.6-11.3-3c-0.6-0.1-1.3-0.1-1.9-0.2c-5.7-0.2-8.2,3.1-8.7,8.1
			c-0.3,2.9,0.4,5.7,2,8.1c1.2,1.7,2.7,3.2,4.1,4.8c0.5,0.5,1,1,1.8,1.6c-3.1,0.6-5.5-0.1-7.3-2.1c-1.4-1.5-2.5-3.4-3.5-5.2
			c-1-1.9-1.7-4-2.6-6c-0.4-0.9-1-1.8-1.7-2.6c-0.7-0.7-1.6-0.7-2.5-0.2c-0.7,0.4-0.8,1.1-0.6,1.9c0.3,1.6,1,3.1,0.1,5
			c-1.7-2.6-2.7-5.8-6.5-5.7c-0.1,1.2-0.2,2.3-0.3,3.5c0,0.2-0.3,0.4-0.4,0.6c-0.2-0.1-0.5-0.2-0.6-0.3c-2.1-2.6-5.1-3.3-8.2-3.7
			c-3-0.4-6-0.6-9-1C430.4,414.2,428.2,413.3,426.1,411.2z"/>
		<path d="M221.4,67c1-0.1,1.9-0.3,2.9-0.2c3.4,0,5.2,1.8,5.2,5.1c0,1.8-0.4,3.7-0.8,5.5c-1.3,4.8-3.6,9.2-5.9,13.6
			c-2,3.7-3.9,7.5-4.7,11.7c-0.5,2.5-0.8,5.2-0.6,7.7c0.4,4.8,2.9,8.6,7,11.1c2.6,1.6,5.5,2.6,8.2,3.9c0,0-0.2,0.1-0.5,0.1
			s-0.6,0-1,0c-3.4,0-6.6-0.6-9.7-1.9c-5.8-2.5-8.8-7-9.1-13.3c-0.2-3.3,0.3-6.5,1.2-9.6c1.3-4.9,3.1-9.6,5.9-13.8
			c1.7-2.6,3.2-5.5,4.4-8.4c0.8-1.8,1.3-3.9,1.5-5.9c0.3-2.8-0.7-4-3.4-4.8c-0.3-0.1-0.5-0.2-0.8-0.4
			C221.3,67.3,221.4,67.1,221.4,67z"/>
		<path d="M271.2,227.3c-1.3-0.6-2.5-1-3.4-1.7c-3.1-2.2-6.2-4.4-9.2-6.8c-5.3-4.3-10.5-8.7-15.6-13.2c-9.7-8.6-21.2-11.5-33.9-10.8
			c-2.4,0.1-4.8,0.4-7.8,0.6c2.9-1.7,5.6-2.3,8.4-2.8c10.5-1.9,20.6-0.2,30.2,4.2c2.5,1.1,4.7,2.9,6.7,4.7c3.2,2.9,6.3,6.1,9.3,9.3
			C260.9,216.1,265.9,221.6,271.2,227.3z"/>
		<path d="M293.7,150.1c1-3.3,3.2-5.5,5.9-7.3c4.3-2.9,9.1-4.3,14.1-5c3.8-0.6,7.6-0.9,11.4-1c11-0.3,19.7-5,26.1-13.8
			c0.4-0.5,0.8-1,1.2-1.6c0-0.1,0.1,0,0.4-0.1c-0.1,3.8-1.3,7.1-3.5,10.1s-5.1,5.3-8.4,6.9c-5.7,2.7-11.6,4.1-17.9,3.9
			c-4.8-0.1-9.6,0.2-14.3,1.2C303.2,144.5,298.2,146.6,293.7,150.1z"/>
		<path d="M273.4,33.8c3.1-0.9,5.6-1.9,8.2-2.3c1.5-0.3,3.3,0,4.7,0.6c2.7,1.1,5.4,2.3,7.7,4.1c4.3,3.4,9.1,4.9,14.4,5.3
			c5.6,0.5,10.9,2.3,16,4.8c2.9,1.4,5.2,3.4,6.7,6.2c1.7,3.1,3.3,6.3,4.9,9.5c1.9,3.8,3.7,7.6,5.6,11.5c-0.4-0.2-0.9-0.3-1.2-0.6
			c-1.5-1.6-3.1-3.1-4.3-4.9c-1.9-2.7-3.7-5.4-5.1-8.3c-3.9-8.1-10.6-12-19-13.8c-3.1-0.7-6.2-1.2-9.3-1.8c-3.5-0.7-6.6-2.2-9.4-4.4
			c-1-0.8-2.1-1.6-3-2.5c-2.9-2.7-6.3-3.5-10.2-2.8C278,34.7,276,34.7,273.4,33.8z"/>
		<path d="M56.2,62.1c0.2-0.3,0.4-0.6,0.7-0.9c10-10.5,21.9-14.1,36-9.8c4.7,1.4,9,3.7,13.1,6.4c5.6,3.7,10.8,7.8,15.3,12.8
			c2.9,3.3,6.2,6.2,10.1,8.3c3.4,1.8,7.1,2.8,10.9,3.1c3.6,0.2,7.1,0.5,10.7,0.9c2.4,0.3,4.7,1.2,6.7,2.9c-0.5-0.1-1-0.2-1.5-0.3
			c-3.6-1.1-7.3-1.4-11.1-1.5c-2.8,0-5.7,0.1-8.5-0.2c-5-0.5-9.4-2.5-13.3-5.7c-2.9-2.4-5.5-5-8.1-7.7c-5.8-6-12.3-11.2-20-14.6
			c-13.7-6-26.5-4.3-38.3,4.7c-0.8,0.6-1.5,1.2-2.3,1.8C56.4,62.3,56.3,62.2,56.2,62.1z"/>
		<path d="M326.7,318.9c1.4,5.5,2.6,11.1,4.3,16.6c1.9,6.4,4.9,12.4,8.6,17.9c5.1,7.6,6.7,15.9,4.7,24.9c0,0.2-0.1,0.3-0.3,0.8
			c-0.3-0.8-0.6-1.3-0.7-1.9c-2.5-8.8-5.9-17.2-10.7-25c-3.3-5.4-5.1-11.2-5.7-17.4c-0.4-4-0.4-8.1-0.5-12.2
			C326.3,321.4,326.6,320,326.7,318.9z"/>
		<path d="M177.3,93.9c-0.3-6.1-3.7-9.3-8.6-11.2c-5.2-2-10.6-2.3-16.1-2.4c-6.8-0.1-13.4-1.6-19.5-4.7c-3.5-1.8-6.3-4.1-8.2-6.5
			c0.3,0,0.5-0.1,0.7,0c7.4,4.5,15.6,6,24,6.2c5.6,0.2,11.2,0.5,16.7,1.9c3,0.8,5.8,2,8.3,4C177.9,83.7,179.8,88.5,177.3,93.9z"/>
		<path d="M289.9,168.5c2.5-5.8,6.9-9.6,12.4-12.2c4.7-2.1,9.7-3.2,14.9-3c9.5,0.3,15.7-1.3,26.1-6.8c-0.3,0.7-0.5,1.2-0.8,1.6
			c-2.2,2.9-5.2,4.8-8.6,6.2c-5.1,2.1-10.5,3-16,2.9c-10.7-0.2-19.8,3.5-27.5,10.9C290.3,168.3,290.1,168.4,289.9,168.5z"/>
		<path d="M406.6,272.6c-2-2.3-3.7-4.4-5.6-6.5c2.9-7.2,1-14.1-1.3-20.9c-1-2.9-2.3-5.7-3.5-8.6c-0.3-0.7-0.6-1.4-1-2.2
			c0.3,0.1,0.5,0,0.6,0.1c6.3,6.7,11.3,14.2,12.7,23.4C409.3,262.8,409,267.6,406.6,272.6z"/>
		<path d="M312.1,125.3c0.8-1.5,2-2,3.3-2.2s2.6-0.4,3.9-0.5c5-0.3,8.5-2.8,10.9-7.1c2.2-4.1,3.2-8.5,3.9-13
			c0.1-0.8,0.3-1.7,0.7-2.5c0.5,6.9,0.3,13.8-2.2,20.3c-0.8,2.2-2.1,4.2-3.5,6c-2.2,2.6-5.2,3.4-8.6,2.8
			C317.3,128.5,314.7,127.1,312.1,125.3z"/>
		<path d="M377,109.1c-0.2-0.3-0.4-0.6-0.5-1c-0.5-1.3-1.1-2.5-1.6-3.8C371.8,97,367,91,360.1,86.7c-2-1.2-3.9-2.7-5.7-4.1
			c-3-2.3-5.3-5.2-7.1-8.6c-0.2-0.4-0.3-0.7-0.5-1.1c0-0.1,0-0.1,0.1-0.4c0.6,0.5,1,1,1.6,1.4c3.6,2.7,7.1,5.4,10.8,8
			c2.3,1.6,4.7,3.1,7.2,4.5c6.1,3.5,9.2,9,10.3,15.7c0.4,2.3,0.4,4.6,0.7,6.9C377.3,109,377.2,109.1,377,109.1z"/>
		<path d="M346.4,82.4c3.1,4.4,5.7,8.9,6.2,14.3c0.6,6.9-5.3,11.1-11.7,8.4c-0.7-0.3-1.3-0.7-1.8-1.2c-0.9-0.8-0.9-1.8,0-2.5
			c1-0.8,2-1.7,3.2-2.2c3.8-1.6,5.4-4.6,5.1-8.5C347,87.9,346.6,85.1,346.4,82.4z"/>
		<path d="M347.1,473.3c1.4-1,2.9-1.9,4.1-3c1.5-1.4,3-2.8,4.1-4.4c2.3-3.3,1.9-6.4-0.7-9.3c-0.5-0.6-1.1-1.1-1.7-1.8
			c1.2-0.7,2.4-1,3.6-0.9c1.1,0.2,1.8-0.3,2.6-1c2-1.6,4.1-3.2,6.3-4.6c1.3-0.8,2.7-1.5,4.7-1.3c-0.9,0.5-1.5,0.9-2.1,1.2
			c-2.4,1.3-4.4,3-6.2,5.1c-1.1,1.3-1.5,2.7-0.8,4.5c0.6,1.5,0.8,3.3,0.8,5c-0.1,3-1.8,5.2-4.1,6.9
			C354.5,471.8,351,472.9,347.1,473.3z"/>
		<path d="M325.5,183c-0.6,1.6-1.8,2.1-3.2,2.1c-1.5,0-3.1,0.1-4.6,0c-1.7-0.1-3.2,0.5-4.5,1.5c-2.8,2.2-5.8,6.4-6.5,9.4
			c1.5-0.1,2.9-0.4,4.4-0.4c1.4,0,2.9,0.1,4.3,0.4c-5.4,1-10.6,2.6-16,5c0.4-0.9,0.5-1.4,0.8-1.8c2.6-3.9,5.2-7.9,7.8-11.8
			c0.4-0.6,1-1.1,1.4-1.7c2.7-3.4,6.2-4.5,10.4-3.5C321.6,182.6,323.5,182.7,325.5,183z"/>
		<path d="M317.3,213.6c-2.3-2.7-3.2-5.8-1.9-9.4c0.5-1.5,1.4-2.9,2.2-4.3c1.2-1.9,2.5-3.7,3.9-5.8c0.8,1.2,0.9,2.4,0.4,3.6
			c-0.6,1.4-1.5,2.7-2.1,4.1c-0.6,1.3-1.3,2.6-1.7,4c-0.2,0.9,0,2,0.1,3.6c4.2-5.1,9.9-5.9,15-8c-1.1,1.8-2.9,2.8-4.5,3.9
			c-2.7,1.7-5.3,3.4-7.9,5.3C319.6,211.4,318.5,212.5,317.3,213.6z"/>
		<path d="M331,173.7c0.1,1.8,0,3.1-1.3,3.8s-2.5,0.1-3.6-0.8c-5.9-4.5-12.1-4.6-18.5-1.1c-0.3,0.2-0.7,0.5-1.2,0.8
			c1.5,1.2,3.7,1.6,3.9,3.8c-3-0.6-5.8-1.2-8.7-1.8c4.2-6.1,12.3-9,19.4-6.7c1.9,0.6,3.6,1.4,5.5,2
			C327.9,174.2,329.4,174.7,331,173.7z"/>
		<path d="M355.8,73.5c-2.4-2.5-4.5-5-6.9-7.2c-2.4-2.3-5.6-3.3-8.9-3.7c-0.8-2.1-1.6-4-2.6-6.5c6.5,2.3,12.3,4.9,16.2,10.4
			C355.1,68.5,355.9,70.8,355.8,73.5z"/>
		<path d="M273.5,53.9c1.6,2.5,3.4,4.8,4.9,7.4c2.4,4.2,0.9,11.3-2.9,14.4c-0.2,0.1-0.4,0.2-0.5,0.2c0.6-2.6,1.3-5.1,1.7-7.7
			c0.6-3.3,0.1-6.5-2-9.2c-0.5-0.7-1-1.5-1.3-2.3s-0.2-1.8-0.3-2.7C273.2,54,273.3,54,273.5,53.9z"/>
		<path d="M434.9,446.3c2.6-4.8,6.9-6.3,12.8-4.6C443.4,443.3,439.4,444.7,434.9,446.3z"/>
		<path d="M267.1,69.5c0-1.5,0-2.5,0-3.5c0-2.4-0.8-4.4-2.7-6c-0.9-0.7-1.6-1.6-2.2-2.5c-0.3-0.4-0.3-1-0.5-1.9
			c2,1.8,3.8,3.2,5.4,4.8c2.1,2.1,2.5,5.3,1.1,7.9C268.1,68.5,267.7,68.8,267.1,69.5z"/>
		<path d="M239.6,57.2c3.1-0.4,5.5,0.7,7.1,3.2c1.7,2.7,1.6,5.5,0,8.8C246,63.9,245.8,58.7,239.6,57.2z"/>
		<path d="M257.9,67.9c-0.3-3.9-2-6.6-4.4-9C257.7,59.4,260,63.7,257.9,67.9z"/>
		<path d="M428.8,441.9c2.4-2.5,4.9-4.5,9-2.6C434.5,440.3,431.6,441.1,428.8,441.9z"/>
	</g>
</g>
</svg>
