<svg xmlns="http://www.w3.org/2000/svg" viewBox="0 0 500 500"><path d="M196.93 268.72l-.5-.14c.22.07.36.14.5.14zM267.49 298.77l-.2.08c.14.01.19-.03.2-.08zM288.4 293.18l.43.18c-.2-.1-.32-.16-.42-.19z"/><path d="M259.96 278.74c-12.96-6.37-26.42-12.2-40.34-16.6-14.34-4.56-29.11-7.55-44.3-9.55a138.6 138.6 0 0 0-24.3-1.12c-8.12.37-16.2 1.58-24.05 3.71a178.73 178.73 0 0 0-22.76 7.97c-7.33 3.1-14.5 6.56-21.53 10.46a221.91 221.91 0 0 0-19.46 12.44c-6.28 4.41-12.43 8.93-18.8 13.15l-10.21 6.66c-1.67 1.1-9.33 7.64-10.7 9.1-.61.65 4.73-1.98 6.2-2.73a330.44 330.44 0 0 0 15.82-8.6c7.4-4.43 10.83-6.5 18.24-11.22a297.35 297.35 0 0 1 23.22-13.5c7.88-4.04 16-7.54 24.4-10.1 6.81-2.05 13.73-4.09 20.75-5.55a98.22 98.22 0 0 1 21.3-2.23c15.38.22 30.37 3.81 45.27 8.23 15.92 4.7 30.97 12.14 46.33 19.22 15.16 7 30.33 14.35 45.88 21.39 4.53 2.06 9.13 4.05 13.75 6l6.95 2.82c2.35.9 4.67 1.84 7.03 2.71 5.95 2.25 12.06 4.21 18.24 5.96a176.13 176.13 0 0 0 18.98 4.03 120.37 120.37 0 0 0 19.67 1.25c6.52-.08 13-.6 19.43-1.47 11.61-1.58 23-4.03 34.07-8.05 5.53-2 10.97-4.4 16.23-7.35a81.04 81.04 0 0 0 14.88-10.71c4.86-4.44 10.2-10.38 13.73-17.22.84-1.73 1.75-3.38 2.35-5.16l.94-2.58c.3-.85.47-1.73.7-2.58.2-.85.4-1.68.56-2.5.15-.82.22-1.65.3-2.44.16-1.59.27-3.08.13-4.5-.2-2.74-1.33-3.7-2.46-3.88.46.08.4.93.05 2.18-.18.62-.43 1.34-.73 2.1-.29.76-.75 1.54-1.15 2.32a66.8 66.8 0 0 1-1.3 2.28l-1.36 1.94a41.97 41.97 0 0 1-1.58 2.14c-3.26 4.77-7.02 9.65-11.43 13.5a69.56 69.56 0 0 1-13.54 9.04 201 201 0 0 1-15.07 6.97c-11.3 4.82-23.38 8-35.63 9.82-6.13.9-12.31 1.43-18.48 1.54-6.16.09-12.3-.18-18.28-1.14a182.05 182.05 0 0 1-31.03-7.91 305.72 305.72 0 0 1-15.3-5.73 343.49 343.49 0 0 1-15.07-6.51c-11.95-5.48-24.1-11.9-36.54-18z"/><g><path d="M315.2 259.35l.42.16c-.18-.08-.3-.15-.42-.16zM255.53 229.3l.19-.07c-.14-.01-.18.03-.2.08zM236.34 235.06l-.37-.16c.17.09.28.14.37.16z"/><path d="M260.4 248.63a310.56 310.56 0 0 0 33.94 16.09 367.59 367.59 0 0 0 18.2 6.59c6.1 2.08 12.28 4.07 18.5 6.1 6.6 2.17 13.24 4.14 20 5.72a148.81 148.81 0 0 0 20.57 3.32c13.97 1.24 27.68 1.22 41.63-.7 6.75-.98 13.2-2.77 19.64-4.65 6.38-2.03 12.7-4.16 19.05-6.32 1.71-.52 3.38-1.15 5.08-1.73 1.68-.59 3.39-1.14 5.04-1.82.82-.34 3.19-1.57 5.47-2.95a70.58 70.58 0 0 0 5.16-3.44c.61-.51-4.44.96-5.82 1.37-2.27.67-5.2 1.4-7.92 2.2-2.78.69-5.4 1.38-7.16 1.9-3.61.93-6.2 1.72-8.88 2.34-1.32.34-2.65.69-4.1 1.09l-4.87 1.23a170.73 170.73 0 0 1-22.68 4.27c-7.56.83-15.17.87-22.72.07-6.1-.66-12.33-1.26-18.56-2.14-6.22-.9-12.44-2.14-18.42-3.89-12.95-3.78-25.29-9.3-37.84-14.61-13.38-5.67-26.02-12.99-39.08-19.72l-38.9-20.1-5.73-2.95-5.79-2.88-5.79-2.88-5.87-2.77c-4.9-2.41-10-4.46-15.04-6.62-5.13-1.97-10.25-3.99-15.53-5.65l-3.93-1.3c-1.33-.41-2.67-.76-4-1.15l-4-1.13c-1.34-.38-2.67-.76-4.03-1.05l-8.14-1.87c-2.75-.52-5.5-.96-8.26-1.45-2.48-.5-5-.72-7.5-1.06l-3.76-.48c-.63-.07-1.25-.18-1.88-.23l-1.89-.12-7.56-.51c-.63-.06-1.26-.07-1.9-.06h-1.9l-3.8.02c-10.14-.09-21.05 1.8-30.81 6.13-1.3.57-2.66 1.14-4 1.85-1.34.7-2.77 1.33-4.1 2.15l-2.05 1.19-1.02.6-.6.37-.55.36c-1.3.88-2.42 1.69-3.58 2.5l-6.44 4.62-2.7 1.96c-.8.6-1.5 1.1-1.87 1.5-.11.11-.11.19-.17.3-.04.12-.2.2-.29.32l-.58.6c-.35.4-.6.83-.78 1.36.15-.44.53-.05 1.37.11.63.19 1.96.28 3.41.2 2.92-.17 6.16-.75 6.56-.84 2.5-.67 5.01-1.67 7.49-2.77 1.22-.52 2.52-1.16 3.61-1.6l3.65-1.37a80.48 80.48 0 0 1 13.86-3.21c4.57-.66 9.16-.98 14.1-1.31 2.56-.24 5.3-.13 7.96-.17l4.01-.04c1.34.05 2.67.16 4.01.23 5.34.16 10.67.87 15.99 1.55a190.74 190.74 0 0 1 31.6 7.75c17.74 5.86 35.02 13.8 51.94 22.62 10.13 5.26 20.44 11.25 30.96 16.96z"/></g><g><path d="M329.09 143.87l.1.04c-.04-.02-.06-.06-.1-.04zM314.83 135.76l.1-.1a.28.28 0 0 0-.1.1zM303.92 145.42l-.1-.04c.04.03.07.04.1.04z"/><path d="M309.9 150.1a29.84 29.84 0 0 0 9.47 4.08c3.53.8 7.18 1.03 10.51 2.14 3.53 1.18 7.1 2.35 10.9 2.61 3.8.26 7.4.84 11.23 1.04 1.85.12 3.7-.25 5.51-.62.9-.23 1.8-.42 2.7-.6.9-.2 1.8-.36 2.74-.42l3-.24c.52-.04 2.56-1.7 2.84-2.22.12-.24-1.53-.66-1.95-.77-1.44-.3-3.52-.91-4.48-1-2-.28-2.86-.37-4.76-.4-3.88-.01-7.7-.43-11.23-2.25-2.8-1.46-6-1.5-8.82-2.88-3.04-1.48-5.77-3.54-8.82-4.89-3.28-1.42-6.06-3.83-9.2-5.55-3.12-1.7-6.3-3.37-9.24-5.46a65.72 65.72 0 0 1-4.96-3.91c-4-3.5-8.26-6.72-12.05-10.44-.83-.83-1.58-1.7-2.38-2.7l-.58-.75-.13-.16-.35-.35-.72-.67c-1.15-1.04-1.57-1.29-2.25-1.82a26.56 26.56 0 0 0-7.44-4.12 22.99 22.99 0 0 0-4.81-1.25c-.93-.08-1.86-.07-2.75.1-.42.07-.93.2-1.4.4-.48.18-.92.4-1.34.7-.81.56-1.2 1.8-1.4 2.92.15-.92.9-.23 1.49.7.6.9 1 2.16 1.08 2.27.43.74.92 1.3 1.41 1.86.5.58 1 1.11 1.46 1.7 1.76 2.33 2.98 5 4.89 6.54.24.2.53.4.74.58l.62.54.31.25c.03.03.15.1.12.1a.17.17 0 0 1-.05.02h-.06v-.01l.17-.21a34.01 34.01 0 0 1 2.93-2.97l.26-.23.14-.12c-7 7.04-1.94 1.95-3.5 3.53h.01l.05.06c.48.55.96 1.1 1.46 1.64.5.54 1.08 1.12 1.62 1.67 2.2 2.18 4.48 4.18 6.81 6.2 3.96 3.4 8.2 6.47 12.4 9.6 2.53 1.87 5.06 3.95 7.8 5.76z"/></g><g><path d="M254.4 281.7l-.04-.48c0 .21-.01.36.03.48zM249.98 349.96l-.11-.17c.01.13.06.17.1.17zM257.2 369.3l-.2.43c.11-.2.17-.32.2-.42z"/><path d="M267.52 339.47a97.64 97.64 0 0 0 1.25-10.39c.2-3.38.35-6.76.48-10.13.03-.84.07-1.68.08-2.52l-.04-2.53-.11-5.03-.16-5.02c-.07-1.67-.25-3.32-.39-4.98-1-13.68-3.5-26.96-5.11-40.53a740.63 740.63 0 0 0-6.26-42.67 296.3 296.3 0 0 1-3-21.09c-.71-7-1.08-14-1.15-21.09-.05-6.8.28-13.66.4-20.51.19-3.44.49-6.88.78-10.31.16-1.72.33-3.43.53-5.15.22-1.72.47-3.44.74-5.15l1.87-10.96c.3-1.81.52-11.07.33-12.9-.09-.82-1.66 4.44-2.08 5.9a311.28 311.28 0 0 0-4.15 15.94 195.04 195.04 0 0 0-3.33 19.38c-.31 2.07-.44 4.16-.62 6.23l-.52 6.23c-.43 4.13-.52 8.3-.65 12.46-.17 8.31.13 16.58.38 24.91.2 6.74 1.05 13.56 1.98 20.35.94 6.79 1.95 13.54 2.6 20.23 1.45 14.48 2.14 28.89 3.1 43.28 1.03 15.34.27 30.58-.94 45.66a106.2 106.2 0 0 1-3.86 21.2c-2.02 6.82-4.91 13.3-8.89 18.79-4.64 6.4-10.78 11.25-17.94 13.67a39.68 39.68 0 0 1-14.2 2.07 51.8 51.8 0 0 1-14.64-2.6c-9.5-3.1-18.3-8.95-23.46-16.78a26.98 26.98 0 0 1-4.25-11.42c-.14-1.03-.2-1.9-.17-2.8.01-.45.02-.9.08-1.34l.07-.67.12-.65c.3-1.76.89-3.47 1.7-5.13 3.33-6.64 10.38-12.13 18.17-15.32 2.07-.85 4.4-1.55 6.8-2.02 1.2-.18 2.42-.44 3.62-.45.61-.02 1.17-.11 1.85-.1h2.02c5.53.09 12.37.57 17.69-1.42 2.6-1.07 3.04-2.47 2.81-3.58.21.88-3.23 1.04-6.4.17-3.17-.88-6.18-2.3-6.61-2.44a60.05 60.05 0 0 0-5.99-1.76c-.7-.17-1.41-.3-2.13-.44-1.43-.33-2.96-.42-4.48-.6a48.28 48.28 0 0 0-21.4 3.62 38.21 38.21 0 0 0-14.97 11.04 36.47 36.47 0 0 0-5.55 9.56 31.9 31.9 0 0 0-2.17 11.27v1.45l.1 1.44c.06 1 .22 1.85.34 2.76.12.9.3 1.8.5 2.68l.31 1.33.38 1.3a43.1 43.1 0 0 0 4.34 9.9 51.79 51.79 0 0 0 14.2 15.21 65.14 65.14 0 0 0 18.05 9.15c2.72.9 5.5 1.63 8.33 2.15a60.38 60.38 0 0 0 17.38.85c2.94-.3 5.94-.86 8.78-1.66a52.47 52.47 0 0 0 8.38-3.17 52.69 52.69 0 0 0 7.71-4.62 56.71 56.71 0 0 0 12.36-12.53 78.24 78.24 0 0 0 9.68-18.13 105.02 105.02 0 0 0 5.33-19.59z"/></g></svg>