<svg xmlns="http://www.w3.org/2000/svg" viewBox="0 0 500 500"><path fill="#FFF" d="M356.74 76.27l.16.05c-.06-.04-.08-.11-.16-.05zM335.03 63.67l.26-.3c-.12.09-.2.2-.26.3zM310.57 89.7l-.18-.07c.07.06.12.07.18.06z"/><path fill="#FFF" d="M320.05 97.81a35.73 35.73 0 0 0 15.98 5.92c6.14.7 12.56.03 18.03 1.73 5.8 1.83 11.66 3.82 18 3.8 6.34-.02 12.21 1.06 18.57 1.51 3.07.24 6.14-.58 9.1-1.38 1.5-.46 2.97-.87 4.45-1.18a17.8 17.8 0 0 1 4.54-.61c1.66-.06 3.38.05 5.11.02.44.02 1.46-.88 2.4-1.88.95-1 1.8-2.15 1.97-2.74.14-.54-2.84-1.98-3.6-2.38-2.57-1.17-6.1-3.08-7.67-3.51-3.26-1.08-4.64-1.5-7.59-1.76-6.01-.47-11.9-1.41-17.07-5.45-2.07-1.66-4.26-2.25-6.54-2.86l-1.7-.4c-.57-.16-1.13-.33-1.7-.51a13.29 13.29 0 0 1-3.23-1.44c-4.46-2.77-8.23-6.74-12.88-8.73-5.02-2.13-8.88-6.5-13.74-9.04-4.8-2.51-9.89-4.8-14.42-8.02a75.18 75.18 0 0 1-7.54-6.19c-6-5.62-12.8-10.34-18.63-16.17a28.73 28.73 0 0 1-3.12-3.81l-.46-.68-.11-.17-.06-.09-.14-.16-.56-.68-.65-.76-.16-.19c-.04-.01-.03-.09-.1-.06l-.1-.1-.33-.36c-.44-.5-.9-.99-1.4-1.43-.5-.46-.95-.91-1.52-1.36l-1.54-1.26a57.4 57.4 0 0 0-4.33-3.34 29.51 29.51 0 0 0-8.78-4.39c-2.39-.67-5.18-1.58-8.3-1.57-3.12.02-6.72.93-10.03 4.04-1.64 1.52-2.48 4.67-2.97 7.49.36-2.31 1.68-.8 2.4 1.39.8 2.17 1.14 5 1.23 5.26 1.02 3.24 2.54 5.08 3.7 7.62 2.18 4.86 3.2 10.7 5.82 13.32.33.37.74.74 1.03 1.07l.45.47c.16.16.3.32.32.4l-.09.11-.01.16-.04.27-.03.01c0 .03-.07-.04.04.09l.44.52.9 1.04a86.98 86.98 0 0 0 5.73 5.84c2.64 2.5 5.4 4.85 8.15 7.24 6.45 5.54 13.45 10.38 20.25 15.57 4.09 3.1 8.08 6.73 12.53 9.77z"/><g><path fill="#FFF" d="M229.95 300.68l-.07-.76c0 .34-.04.57.07.76zM223 406.75l-.32-.3c.07.21.2.28.31.3zM246.27 442.42l-.33.72c.2-.32.29-.54.33-.72z"/><path fill="#FFF" d="M263.93 393.1a148.72 148.72 0 0 0 1.74-12.84l.2-2.14.1-2.05c.3-5.45.5-10.91.63-16.35.03-1.36.08-2.73.07-4.08l-.14-4.07a586.68 586.68 0 0 0-.83-16.18c-.19-2.68-.57-5.33-.87-8-.7-5.46-1.37-10.92-2.22-16.32l-2.78-16.14-.67-4.03-.75-4a337.49 337.49 0 0 1-2.62-16.09c-.4-2.69-.82-5.37-1.17-8.07-.77-5.7-1.4-11.45-2.22-17.1l-2.4-16.99a724.53 724.53 0 0 0-5.84-33.63 367.1 367.1 0 0 1-5.1-33.26 333.23 333.23 0 0 1-1.69-33.16c.1-10.65-.08-21.4.25-32.23.39-10.85 1.12-21.73 3.1-32.57 1.04-5.79 2.36-11.51 3.48-17.32.28-1.43.34-5.84.21-10.27-.14-4.44-.43-8.89-.78-10.36-.3-1.33-3.6 6.94-4.5 9.23-2.92 7.52-7.06 19.02-8.65 25.04-1.59 6.09-2.78 10.55-3.73 15.1-.5 2.28-.94 4.57-1.4 7.09-.42 2.52-.83 5.28-1.27 8.47a435.3 435.3 0 0 0-3.48 39.75c-.53 13.3-.42 26.53-.61 39.89-.17 10.81 1.1 21.69 2.56 32.47l2.2 16.1c.68 5.35 1.35 10.7 1.71 15.99 1.8 23 2.02 45.8 3.58 68.41 1.66 24.12-.3 47.96-2.08 71.45-.9 11.04-2.63 22-5.62 32.35-2.96 10.34-7.24 20.06-13.05 28.07-6.8 9.34-15.5 16.06-25.63 19.36a60.09 60.09 0 0 1-9.86 2.28c-3.33.48-6.81.65-10.36.53a76.8 76.8 0 0 1-21.39-3.8 73.92 73.92 0 0 1-19.54-9.59 53.54 53.54 0 0 1-14.4-14.45 34.57 34.57 0 0 1-3.78-7.66c-.2-.67-.5-1.3-.64-1.98l-.51-1.99c-.22-1.35-.53-2.67-.6-4.02-.04-.66-.17-1.4-.12-1.91 0-.56-.03-1.1.04-1.65.04-.54.07-1.08.18-1.6l.1-.8.2-.79a23.98 23.98 0 0 1 2.37-6.16c2.24-4.04 5.78-7.99 10.13-11.47a66.78 66.78 0 0 1 14.84-8.87 53.92 53.92 0 0 1 9.29-3.02c.8-.13 1.62-.36 2.42-.47l1.2-.21 1.13-.15c1.57-.19 3.36-.35 5.46-.41l6.7-.23c2.37-.1 4.9-.23 7.43-.5 5.1-.57 10.38-1.7 14.88-3.96a9.91 9.91 0 0 0 2.62-1.89 7.26 7.26 0 0 0 1.46-2.24c.62-1.53.6-3.08.31-4.48.26 1.13-1.06 1.7-3.12 1.7-2.07 0-4.77-.68-7.32-1.69-5.1-2.06-9.69-5.3-10.37-5.6a71.25 71.25 0 0 0-12.83-4.7 57.57 57.57 0 0 0-7.35-1.4 82.47 82.47 0 0 0-7.58-.52 80.44 80.44 0 0 0-28.75 4.34 64.32 64.32 0 0 0-13.77 6.8 56.82 56.82 0 0 0-12.58 11.19 63.15 63.15 0 0 0-9.94 16.72 56.73 56.73 0 0 0-4.02 20.16v2.61l.15 2.6c.1 1.8.36 3.27.57 4.86.12.8.21 1.58.37 2.36l.5 2.34.52 2.33c.2.77.43 1.53.65 2.29a74.61 74.61 0 0 0 7.52 17.28c6.37 10.73 15 19.36 24.39 26.2a110.45 110.45 0 0 0 30.57 15.47c2.3.8 4.64 1.42 6.97 2.07 2.36.56 4.7 1.15 7.11 1.57 4.78.92 9.64 1.53 14.58 1.76 4.94.23 9.94.19 15-.37a90.15 90.15 0 0 0 15.1-2.89 90.1 90.1 0 0 0 14.42-5.47 90.74 90.74 0 0 0 13.29-7.97 97.6 97.6 0 0 0 11.54-10.01c3.54-3.6 6.7-7.44 9.62-11.4a133.85 133.85 0 0 0 16.44-30.33 170.45 170.45 0 0 0 9.03-32.32z"/></g><g><path fill="#FFF" d="M191.73 302.88h-.47c.21.02.35.09.47 0zM260.94 309.9l-.18.37a.45.45 0 0 0 .19-.37zM280.13 276.76h.43a.89.89 0 0 0-.43 0z"/><path fill="#FFF" d="M251.4 271.58a183.43 183.43 0 0 0-40.2-1.4c-3.5.32-6.96.63-10.45 1.09-3.5.46-6.97.93-10.44 1.34-3.49.5-6.97.99-10.45 1.34-1.73.15-3.48.36-5.23.54-1.75.17-3.5.3-5.27.4-14.87.86-29.82 2.23-44.28 6.5-14.54 4.26-28.4 8.28-42.45 13.2-13.58 4.78-25.23 13.28-38.36 18.17-3.51 1.3-7.08 2.4-10.61 3.63-1.74.6-9.03 6.49-10.21 8.18-.54.76 5.3.56 6.93.48 5.29-.28 13.24-1.13 17.09-2.05 7.82-1.79 11.4-2.73 18.92-5.44 15.46-5.64 30.7-10.72 46.81-11.8a64.16 64.16 0 0 0 7.23-.87l2.4-.32c3.19-.46 6.35-1.08 9.52-1.74l9.6-1.49c1.6-.27 3.22-.37 4.83-.48 1.62-.1 3.23-.17 4.83-.2 13.96-.08 27.77 1.99 41.8 2.37 15 .4 29.84 3.87 45.11 5.33 15.08 1.45 30.4 2.65 45.91 4.43l13.65 1.57 6.86.8 6.86.74c5.75.72 11.67 1.04 17.52 1.43 2.95.13 5.92.19 8.88.26l4.45.1c1.48.01 2.99-.04 4.48-.06l8.96-.18c1.5-.04 3.06-.15 4.59-.21l4.56-.31c6.06-.46 12.04-1.1 17.99-1.85 10.75-1.37 21.4-2.32 32.16-4.13 10.73-1.82 21.56-4.4 32.3-9.63 5.64-2.8 12.49-6.32 18.66-12.08l1.14-1.07c.37-.37.75-.79 1.12-1.18.73-.82 1.44-1.58 2.12-2.46a32.66 32.66 0 0 0 3.68-5.7c2.08-4.12 3.37-8.8 2.8-13.28a5.16 5.16 0 0 0-.92-2.57 6.62 6.62 0 0 0-1.65-1.7 9.97 9.97 0 0 0-4.1-1.62c1.15.2 1.23 1.18.67 2.5l-.25.5a14.07 14.07 0 0 1-1.26 1.58c-.6.72-1.46 1.31-2.3 1.85-3.47 2.2-7.47 2.46-7.9 2.59l-7.9 2.22c-1.3.35-2.62.66-3.92.97-1.36.25-2.63.54-4 .68-5.2.62-10.33.45-15.38.39-5.06-.07-10.08-.04-15.3.83-10.96 1.82-22 3.57-33.06 4.97-5.52.7-11.04 1.3-16.5 1.72l-4.1.27-4.06.18-8.42.11-3.58.04-3.62-.08-7.24-.14c-2.41-.06-4.87-.22-7.3-.32-2.45-.13-4.86-.18-7.34-.38-4.92-.37-9.86-.65-14.78-1.16-2.46-.25-4.92-.47-7.39-.75l-7.43-.9c-11.87-1.54-24.2-3.94-36.78-5.75z"/><g><path fill="#FFF" d="M312.35 224.87l.45.12c-.2-.08-.31-.17-.45-.12zM247.09 202.04l.26-.32a.45.45 0 0 0-.26.32zM221.24 230.19l-.4-.1c.18.09.3.1.4.1z"/><path fill="#FFF" d="M247.69 241.45a191.74 191.74 0 0 0 37.9 10.35c13.5 2.16 27.21 2.9 40.52 6 14.1 3.3 28.26 6.4 42.83 7.3 7.3.51 14.49.99 21.64 1.72 3.6.25 7.18.55 10.79.88 1.8.2 3.6.27 5.42.38l5.47.32c1.76.1 3.52.17 5.28.17 1.75-.05 3.5-.13 5.25-.24 3.5-.22 6.98-.5 10.46-.8 3.48-.4 6.95-.75 10.42-.97 1.74-.12 3.48-.16 5.22-.22a79.5 79.5 0 0 1 5.24-.07c1.87.04 3.74.14 5.61.25 1.88.1 3.75.26 5.64.24 1.87.02 10.86-3.1 12.5-4.3.74-.54-4.9-2.3-6.43-2.77a175.8 175.8 0 0 0-8.72-2.32 76.74 76.74 0 0 0-7.8-1.8c-7.78-1.1-11.37-1.84-19.23-2.11-16.22-.8-31.94-1.96-47.24-6.88a71.97 71.97 0 0 0-9.4-2.37 157.7 157.7 0 0 0-9.59-1.79c-3.22-.46-6.43-1.13-9.62-1.75a70.81 70.81 0 0 1-9.43-2.38c-13.38-4.2-26.18-9.99-39.67-13.97-14.4-4.2-27.95-11.02-42.38-15.86-14.25-4.76-28.71-9.23-43.24-14.28-8.51-2.91-16.89-6.1-25.5-9-21.49-7.82-44.22-12.84-67.17-17.03-2.6-.45-5.2-.91-7.79-1.43l-3.87-.8-3.88-.72-7.77-1.51-7.82-1.3c-1.31-.2-2.61-.42-3.94-.61l-4.08-.44-4.11-.4c-1.37-.1-2.74-.26-4.14-.26-2.78-.07-5.57-.08-8.37-.03-1.4 0-2.8.17-4.2.28-1.4.14-2.8.29-4.21.46-1.48.2-3.05.31-4.62.62a257.16 257.16 0 0 0-7.32 1.37l-1.25.27-1.43.33a69 69 0 0 0-4.4 1.4c-2.74.98-5.32 2.1-7.58 3.44-2.21 1.34-4.25 2.86-5.2 4.67-.2.9-.92 2.08-1.42 3.35-.53 1.28-1 2.65-1.32 4.04.28-1.13.8-1.09 1.62-.73l3.4 2.08c2.97 1.8 6.53 3.91 6.97 4.09a40.6 40.6 0 0 0 8.6 2.04c1.44.22 2.96.35 4.2.63 1.38.26 2.75.53 4.1.84 2.63.61 5.15 1.26 7.62 2.15 2.47.85 4.86 1.61 7.24 2.45 2.38.89 4.74 1.69 7.14 2.32 1.19.29 2.41.68 3.64.97 1.23.3 2.48.55 3.75.74 1.35.22 2.63.33 4.03.6l4.12.7c2.74.44 5.49.8 8.22 1.31l8.21 1.33c2.74.5 5.47.98 8.21 1.43 10.94 1.99 21.91 4.2 32.88 6.98a547.65 547.65 0 0 1 28 7.86l7 2.13c2.34.71 4.67 1.41 7 2.24 4.65 1.6 9.3 3.22 13.93 4.89 11.1 4.01 22.42 9.06 34.07 13.52z"/></g></g></svg>