<svg xmlns="http://www.w3.org/2000/svg" viewBox="0 0 374 372.1"><path d="M120.7 0c.2.2 19.3 8.5 23.6 10.2 4.6 1.9 11.4 5 19.1 8.9 2.6 1.3 4.8 2.4 4.8 2.3s-3.8-2.2-8.4-4.7c-4.6-2.5-8.4-4.6-8.4-4.7 0-.4 28.7 11.8 40.9 17.4 17.9 8.1 56.2 29.2 64.4 35.4 8.1 6.2 13.2 8.2 16.9 6.8 1.4-.5 3.4-1.9 2.2-1.4-4 1.3-7.1.4-12.3-3.7-2.1-1.6-5.1-3.6-7.5-5-11.3-6.3-38.7-22-38.6-22.1 0 0 6.1 2.6 13.4 5.9 16.7 7.5 16.3 7.4 15.8 7-.2-.2-6.3-3.6-13.5-7.7-7.2-4-13.1-7.4-13-7.4 0 0 9 4 19.9 9 28.1 12.9 28.2 12.9 7.1 2.3-28.2-14.1-44.9-21.8-55.6-25.7-11.8-4-71.4-23.4-70.8-22.8m137.8 2.6c-1.7 1.3.1 3.7 2.5 3.5 1.2-.1 1.8-2.5.8-3.5-.8-.7-2.4-.7-3.3 0m-74.5.5c-4.5 1.4-3.3 7.6 1.7 8.7l.9.2-1.7-1.7-1.7-1.7 1.1-.5c1.7-.8 2.5-2.6 1.6-3.7-.4-.4-.1-.6 1.7-.8.9-.1 1.1-.3.9-.4-.3-.4-3.4-.4-4.5-.1m9.4 1c-.5.5-.2 2.2.6 3 1 1.1 1.4.9 1.5-.4.2-1.7-1.3-3.5-2.1-2.6m8.7.1c-.4.4-.4 1.7.1 2.1 1.1.9 2.9-.8 1.9-1.8-.6-.7-1.5-.8-2-.3m-4.3 1c0 .1.4.3 1 .2.8 0 .9-.1.5-.2-.8-.3-1.5-.3-1.5 0m101.7.3c-.8.9-.5 2 .5 2.1 1 .1 1.5-.6 1.4-1.8-.1-.9-1.2-1.1-1.9-.3m-74.2 1.1c-5.3 2.6-5.5 9.6-.4 10.5 1.9.3 1.8-.2-.3-1.7l-1.9-1.4 1.6-.8c2.2-1.1 3-2.5 2.3-4.5-.2-.8-.2-.8 2.9.6l1.6.7-.6-1.1c-1.5-2.6-3.1-3.3-5.2-2.3m49.3.2c-1.1 2 1.3 4.7 2.5 2.9.6-.8.5-1.9-.1-2.7-.7-.9-2-1-2.4-.2m-40.7 1c-.9 1.4.8 3 2 1.9.6-.6.7-1.5 0-2.1-.7-.7-1.5-.6-2 .2M73.6 9.4c-5 1.2-7 3.1-9.3 8.7-.5 1.2-1.2 2.7-1.6 3.3-1.7 2.5-1.5 2.4 1.2-.7 1.2-1.3 2.6-3.3 3.1-4.3 1.5-2.8 3-4.1 6.8-6 3.5-1.8 3.4-1.9-.2-1m8.9 1.6c-.9 1-2.5 2.9-3.4 4.3-2.4 3.6-5.7 6.9-7.8 8-2.3 1.2-2.1 1.2 1 .2 3.5-1.1 6.6-4.3 9.1-9.4.5-1.1 1.3-2.5 1.8-3.1 1.7-2.3 1.6-2.4-.7 0m202.1 4.5c-.3.3-.2 1.1.2 1.4.6.5 1.3-.2 1.1-1-.2-.5-.9-.7-1.3-.4M97.1 18.3c-6.8 1-15.1 8-17.7 14.8l-.3.7 1.9-1.1c1.7-.9 2.1-1.3 2.9-2.7 2.8-4.9 7.8-8.2 14.8-9.8 5.2-1.2 7.4-.8 15.6 2.3 4.3 1.6 7.4 1.2 10.8-1.6 1.5-1.3 1.5-1.3-.6-.4-4.6 1.9-5.3 1.9-12-.3-6.1-2-10.7-2.6-15.4-1.9m177.7 2.2c-.4.5-.1 1.2.5 1.2.5 0 .9-.6.6-1.2-.1-.4-.7-.4-1.1 0m41.5.4c-.7.7-.4 1.3.6 1.3.9 0 .9-.1.9-.8.1-1-.8-1.3-1.5-.5M300 22c-.2.4.1.8.5.8.2 0 .4-.2.4-.5.1-.5-.6-.7-.9-.3m6.5 2.3c-.5.6 0 1.3.8 1.3.7 0 1-.7.5-1.3-.3-.5-.8-.5-1.3 0m-72 1.7c-.6.7-.6 1.3.1 1.7.7.5 1.6.2 1.9-.7.5-1.3-1.1-2.1-2-1m14.6.8c-1 .5-2.3 1.6-3.2 3-1.6 2.4 1.6 6.5 4.6 6 1.4-.2 1.4-.4-.7-1.5l-1.8-1 1.2-.6c2.3-1.1 2.9-2.8 1.6-4-.8-.8-.5-1 1.3-1.1 1.9-.1 2.3-.4 1-.9-1.3-.5-2.7-.5-4 .1m-121.4.2c-4.4 1.3-5.1 5.7-1.1 6.7 1.9.5 2.2.2.7-.8-1.2-.8-1.3-.9-.8-1.2 1.4-.8 1.9-1.9 1.1-2.6-.6-.6-.6-.5.9-1.5 1.8-1.2 1.7-1.3-.8-.6m133.3.1c-.3.2-.3.4-.1 1 .4 1 1.8 1.1 1.9.1.1-1-1-1.7-1.8-1.1M52.9 28.3l-1.3.7.4.9c.4.9.6 1 1.9.2.7-.4.8-.7.7-1.1-.3-1.3-.4-1.3-1.7-.7m234-.2c-1 .7-.7 2.1.4 2.5 1.4.5 2.5-1.1 1.6-2.2-.5-.7-1.4-.8-2-.3m-121.5.8c-4.2 1-4.7 1.6-6.4 8.5-2.8 10.9-5.2 12.7-18.6 13.7-4.8.4-4.8.5.4 1.6 10.6 2.2 17-1.8 19.3-12 1.8-7.9 2.8-9.2 8.7-11 1-.3 1.7-.7 1.6-.8-.2-.2-4.2-.2-5 0m16.6-.1c.1.1 5.8 3.7 12.8 8.1 24.8 15.6 25.5 16.1 44.2 30 6.3 4.7 11.6 8.7 11.9 8.8.2.1-.4-.6-1.3-1.7a26.5 26.5 0 0 1-4.2-6.3c-.7-1.5.3-.8-14-10.4-10-6.5-11.4-7.3-38-22.3-9.8-5.5-11.9-6.6-11.4-6.2m-90.2.7c-4.7.8-12.7 4.7-12.7 6.3 0 .7.8.4 3.2-1 4.5-2.6 6.3-3 11.7-3 10.5.1 15.5 1.8 25.9 9.4 1.8 1.3 3.4 2.4 3.7 2.6 1 .6-7-7.1-8.8-8.3-5.4-3.9-17.4-6.9-23-6m232 .5c-.2.4.1.8.6.8.2 0 .4-.2.3-.4-.2-.5-.7-.8-.9-.4m-13.2 1.4c.2.5.7.6.7.1 0-.2-.2-.4-.4-.4s-.3.1-.3.3m-39.7.3c-.4.4-.4 1.4.1 1.8 1 .8 1.9-.4 1.2-1.6-.4-.6-.9-.7-1.3-.2M47.1 33.4c-1.5 1.9-1.5 1.8.4 2.4 1 .3 2.1-1.7 1.7-2.9-.4-1.5-.6-1.4-2.1.5m40.4 1.4l-1.9.7 2.5.2c4.3.3 9 2 13.3 4.7 3.3 2.1 5.2 4.5 9.4 11.8 1 1.8 1.9 3.2 1.9 3.1 0-1.3-3.8-9-5.8-11.7-4.8-6.5-14.3-10.8-19.4-8.8m-57.4.7c-1.3.6-3.6 2.8-3.6 3.5 0 .2.6 0 1.5-.5 1.4-.8 1.7-.8 4.1-.9 3 0 3 0 2.5-1.3-.6-1.6-2.2-1.9-4.5-.8m252.5-.1c-.3.6.4 1.5 1 1.2.2-.1.4-.1.5-.1.2 0 .1-1-.2-1.3-.5-.5-1-.4-1.3.2M39.2 37.1c-5.8 3.6-2.3 14.8 4.6 14.8 1 0 3.4-.7 2.5-.8-2.5-.1-5.9-1.4-6.7-2.6-1-1.4-1-1.5-.3-1.4 2.5.2 3.8-.9 3.6-3.1-.2-1.9-.8-2.8-1.9-2.8h-.8l.8-.8c.9-1 1.9-1.5 3.8-2.1l1.4-.4-1.1-.6c-1.9-1-4.5-1.1-5.9-.2m282.4-.2c-.2.6.5 1 .9.5.2-.2.3-.5.2-.7-.3-.4-.9-.3-1.1.2m-3.8.3c0 .4.1.6.6.5.3 0 .6-.3.6-.5s-.3-.4-.6-.5c-.5 0-.6.1-.6.5m-244.2.7c-2.8.5-3.8.9-4.5 1.8-.5.7-1.5 2.6-1.5 3 0 .1 1.1-.6 2.4-1.5 1.3-.9 3.2-2.1 4.2-2.7 1-.6 1.6-1 1.5-1-.1 0-1.1.2-2.1.4m64.6 1.9c-12.8 10-24.5 21.3-32.9 31.8-3.7 4.6-4.3 6-4.3 10.3 0 3.7 0 3.7 2.9-.8 10.6-16.4 17.9-25 34.8-41.1 3.4-3.1 3.2-3.2-.5-.2m168.2-1.6c-2.2 1-1.7 4 .7 3.5 1.6-.4 2.8-2.5 1.8-3.3-.6-.5-1.7-.6-2.5-.2m-128.9 2.4c-2.5 3.7-3.4 6.5-2.1 6.9 1.5.4 2.6-1.4 3.1-5.3.5-3.3.4-3.5-1-1.6m119.1-.8c-.4.4-.2 1.2.3 1.2.7 0 .9-.5.5-.9-.3-.5-.5-.6-.8-.3M77.8 40c0 .1.1.5.3.9.2.6.2 1.1-.3 2.4-.7 1.9-.6 1.9-.2 1.9 1.2 0 2-2.7 1.3-4.2-.4-.8-1.1-1.5-1.1-1m242.5.5c-.2.4.3.9.7.7.4-.3.4-.9-.1-.9-.3-.1-.5 0-.6.2m-253 4c-1.9.5-2.9 1.6-2.9 3.4v.9l1.5-1.5a7.5 7.5 0 0 1 3.5-2.1c2.9-.9 1-1.5-2.1-.7m7.8 2.1c0 1.4.8 2 .8.7 0-1-.1-1.3-.4-1.3-.3 0-.4.3-.4.6m-46.4 1.3c-1.6 1-3.2 8.1-1.9 8.9.5.3.8-.4.8-2.2 0-1.9 1-4.9 1.8-5.8.6-.6 1.5-.5 2.7.5 1.2 1 1.1.2-.1-1.1-1-1-1.9-1.1-3.3-.3m159.6 1c-3 .4-4.4 1.3-3.2 2.1.6.4.8.4 2.5-.1 2.6-.8 2.6-.8 6.3 1.2 1.8.9 3.3 1.7 3.3 1.6s-1-1-2.2-2c-3.2-2.9-4-3.2-6.7-2.8m130.3.2c-.6.7-.2 1.6.7 1.6 1 0 1.3-1.1.5-1.7-.7-.4-.8-.4-1.2.1m-13.1.3c-.4.5.3 1.3.9 1.1.5-.2.5-1.1 0-1.3-.6-.3-.5-.3-.9.2m6.5.3c-.5.4-.6 1.1-.2 1.5.5.5.9.4 1.3-.2.4-.7-.4-1.8-1.1-1.3m-244.5.6c-3.6.4-4.5 1.1-4.9 3.6l-.2 1.3 1.8-1.6c1.6-1.4 2.1-1.7 4.8-2.6 3.3-1 3-1.2-1.5-.7m105 .1c-3.3 1.4-5.2 5.5-3.9 8.3 1.1 2.3 4.5 4.4 6.4 4l1-.2-1.1-.3c-2.3-.7-3.7-1.8-4.9-4-.1-.2.4-.2 1.4-.2 3 .2 4.6-2.1 3.2-4.9l-.5-1 2.9.2c3.2.2 3.2.2.7-1.3-1.8-1.1-3.6-1.3-5.2-.6M52 50.7c-.1.2.2 1.2.6 2.1.4.9.8 2.4.9 3.3l.2 1.6.5-.8c.8-1.2.7-3.7-.2-5.2-.7-1.3-1.7-1.8-2-1m241.8 0c-.4.5-.3 1.2.3 1.6.7.4 1.8-.7 1.4-1.4-.4-.6-1.3-.7-1.7-.2m-219 1.9c0 .4.2 1.2.4 1.7l.4.9-.1-1.6c0-1-.2-1.6-.4-1.7-.2 0-.3.2-.3.7m241.9 0c0 .2.1.4.2.5.3.2.9-.3.7-.6-.2-.5-.9-.4-.9.1m-125.2.8c-.5.5-.1 1.2.7 1.5.5.2 2.1 1 3.7 1.7 3.5 1.6 5.5 1.7 9.6.4 2.9-.9 2.8-1-.7-.4-3.8.6-5 .5-7-.9-2.4-1.7-5.7-2.8-6.3-2.3m-66.9 4.3c-8.1 9-12.4 16-13.4 22.2-.6 3.6-.6 3.7-1.2 3.9-.7.2-.7.7.1.7 1.6 0 1.9-.8 3.3-6.8 1.2-5.5 2-6.8 9.2-16.4 5.9-7.9 6-7.9 2-3.6m-59.3-1.9c-6.5 1.8-9.6 6.1-9.4 12.8.2 5.2 3.5 9.8 7.5 10.5 1.6.3 2.1-.1.7-.5-2.6-.8-2.2-3 1-5.5 2-1.5 2-1.6.2-.9a10 10 0 0 0-2.9 2.1L61 75.9l-1-.8c-1.4-1.1-1.8-2.1-2-4.6-.2-3.4.7-3.3 1.7 0l.5 1.6.2-1.8c.2-2.2.4-2.4 1.3-1.4l.7.8.1-1c.1-.6.5-1.4.9-1.9 1-1.2 1.5-2.5 1.3-3.5-.1-.5 0-1.1.1-1.4.2-.5.2-.5-.4-.4-1 .2-1.1-.6-.3-1.8l.7-1.1-.8.6c-1.5 1.1-2.7 1.5-3.2 1-1.1-1.1 4.8-3.6 9.1-3.8 2.2-.1 2.8-.2 2.3-.4-1-.6-5.4-.7-6.9-.2m256.3.2c-.4.3-.4.5-.2.9.4.7 1.5.6 1.7-.1 0-.8-.8-1.3-1.5-.8M28.4 57.8c-5 1-12 9.6-12 14.8v1.3l.7-1.9c2.6-6.6 6.5-11.2 11.2-13.1 2.1-.8 3.2-.8 7.6 0 3.7.7 7.2.8 8.7.2.5-.2.1-.2-1.5-.1-1.7.1-2.9 0-6.2-.7-3.9-.8-6.2-.9-8.5-.5m286.7 1.8c-.2.1-.3.5-.3.9.1.8 1.6.9 1.8.2.2-1-.7-1.6-1.5-1.1m-263.8 3c-.2 4.9-2.4 5.7-11.7 3.8-8.9-1.8-15.1-1.1-18.9 2.2-1.7 1.5-4.6 7.7-3.8 8.2.4.2 1.1-.3 1.1-.8 0-2.1 3-6.1 5.9-7.5 3.9-2.1 8-2.1 18 0 6.8 1.4 10.2-.3 10.1-5.2-.1-2.9-.6-3.4-.7-.7m111.1-1c-1.2.7-2.8 1.3-3.6 1.5l-1.5.3 1.2.2c4.2.8 8.1-.5 7.1-2.4-.4-.9-.8-.9-3.2.4m144.8-.5c-.5.5-.5.5-.1 1.2.7 1.2 2.7.2 2.3-1.1-.3-.6-1.6-.7-2.2-.1m-60.7.5c-.8 3 1.7 7.8 5.5 10.8l1.9 1.5.1-2.4c.1-2.2 0-2.4-.5-2.8-2.5-1.8-4-3.7-4-5.3 0-.5-.2-.9-.6-1.1-.3-.2-1-.5-1.4-.8l-.8-.6-.2.7m-218.6.9c0 .9.1 1.4.4 1.6.9.7 1.1-1 .3-2.5-.4-.7-.7-.4-.7.9m40.5-.3c-2 4.3-1.8 6.5.8 10.4.8 1.1 1.6 2.7 1.9 3.4l.5 1.3-.9 1.1-.9 1.1 1.2-.2c3.3-.5 4.8-1.4 6.2-3.7.7-1.1.6-1.1-1.1.1-2 1.4-2.5 1.4-3.6-.2-.5-.7-1.5-2-2.3-3-2.3-2.8-2.5-3.8-1.8-8.6.5-2.5.5-2.7 0-1.7m236 .5c0 .2.1.4.3.3.5-.2.6-.7.1-.7-.2 0-.4.2-.4.4m18.1.5c-.6.7.2 1.8 1.3 1.9.9.1 1.5-.9.9-1.8-.3-.5-1.7-.6-2.2-.1M74.6 64.7C73 65.9 72.5 67 73 68.4c.5 1.5.8 1.5 1.2.1.2-.7.9-1.6 1.6-2.3 2.1-2 1.1-3.2-1.2-1.5m106.8.2c-3 1.6 2.6 5.4 8 5.4 2.1 0 2.4-.4.5-.6-2.5-.4-4.9-2-6.6-4.4-.6-1-.8-1-1.9-.4m-57.1 1.3c3.8 3.1 8.3 3.9 14.5 2.5 6.1-1.4 8.3-1.3 13.3.4 1 .3 2 .7 2.3.8.9.3-3.1-2.2-4.9-3.1-2.4-1.2-3.6-1.2-9.4-.2-6.1 1-6.3 1-12-.1l-4.6-.9.8.6m192.4 1.2c0 .9.9 1.4 1.5.7.6-.6 0-1.5-.9-1.5-.5 0-.6.1-.6.8m-8.1 0c-.1.2 0 .5.1.7.3.5 1.1.1 1-.5-.1-.5-.9-.7-1.1-.2m-231.8.5c-.2.4 1.5 1.2 5 2.3 4 1.2 4.2 1.1.6-.5-3.2-1.4-5.4-2.1-5.6-1.8m-48.1 2.2c0 2.4-2.7 5.2-6.1 6.2-1.9.6-2.3.8-2.3 1.3 0 2 6.3-1.3 8.1-4.2.6-1 1.1-3.9.6-3.9-.2 0-.3.3-.3.6m59.1-.3c-.7.4-.6.9.4 2l.8 1-.6 2.2c-.3 1.2-1.4 4.7-2.3 7.8-.9 3.1-1.7 5.6-1.6 5.7.1.1 3.9-9.6 4.9-12.7 1.4-4.5.6-7.3-1.6-6m-36.2 1.8c-1.7.9-1.9 1.5-.4 1.5 1.2-.1 3.2-1.1 3.3-1.7.1-.8-1.3-.7-2.9.2m262.7-.4c0 .2.2.4.4.4s.4-.2.4-.4-.2-.4-.4-.4-.4.2-.4.4M46.5 73.4c-1 .6-1.9 2.6-2.9 6.3-.9 3.4-2.7 13.6-2.4 13.3.3-.3 2.5-7.6 3.6-11.8.6-2.1 1.3-4.3 1.9-5.2 1.4-2.6 1.3-3.5-.2-2.6m208.7 3.2c.7 20.3 3.1 86.6 3.2 88.4l.2 2.2 2.7 1.3c1.5.7 2.7 1.3 2.8 1.2.1-.1-.1-2-.4-4.3-1.1-9.6-.6-20.5.9-21.1 1-.4 3.7 5.3 3.9 7.8 0 .3.1.3.2.2.2-.5-.9-6.5-1.5-8.2-.9-2.4-2.4-3.2-3.8-2.1l-.7.5-.2-1.1c-.1-.6-1.7-16.1-3.6-34.5-1.9-18.3-3.5-33.5-3.6-33.7-.1-.2-.1 1.3-.1 3.4m-84.8-1.4c-4.7 2.1-.4 4.3 8.1 4.2 6.6-.1 7.1.3 5.3 3.4-2.9 5-9.6 9.4-20.1 13.1-1.6.6-2.5 1-2 .9 12.9-2.3 25.4-11.2 23.9-17-.3-1.2-.9-1.3-7.6-1.3-5.5 0-6.4-.1-7.1-.5-1.2-.6-1.1-1.6.2-2.5.9-.7.6-.8-.7-.3m-21.2.4c-13.8 1.4-18.8 3.3-20.1 7.8-.6 2-.5 2.8.1 1.2 1.5-3.8 5.8-6.1 14.5-7.6 7.8-1.4 13.8-.5 16.2 2.4 1 1.1.9 1.8-.5 4.3-1.6 3-1.5 4.2.4 5.4l.9.5-.9-1c-1.4-1.6-1.2-2.5 1.3-5.5 3.5-4.3-3.2-8.4-11.9-7.5m-101.3.6c-.6.6-.7 1.1-.2 1.1.5 0 1.5-.8 1.5-1.2 0-.6-.7-.6-1.3.1m18.2-.3c-.8.8-.1 1.9 1 1.8.8-.1 1.3-.9.9-1.5-.4-.5-1.5-.7-1.9-.3m242.1 0c.1.4.7.5.8.1 0-.1-.2-.3-.4-.4-.3 0-.5.1-.4.3m12.4.7c-.4.4-.2 1.4.3 1.7.6.3 1.4-.1 1.4-.8 0-.7-1.2-1.3-1.7-.9M16.5 79.3c-1.7.9-3 2.4-3.5 4l-.1.7.8-.6c.7-.5 1-.6 2.5-.4l1.7.2-.7-.7c-.8-.8-.9-1.3-.2-2.5.6-1.2.6-1.2-.5-.7m91.3.1c-.1.2-.2.7-.3 1.2-.1.4-.6 1.1-1 1.6l-.9.8.9-.2c2-.4 2.5-1.3 1.8-3-.2-.6-.4-.7-.5-.4m198.5.3c.2.5.7.6.7.1 0-.2-.2-.4-.4-.4s-.3.1-.3.3m6.5 0c-.2.4.3.9.7.7.4-.3.4-.9-.1-.9-.2-.1-.5 0-.6.2m-177 1.9c-2.5 1.9-3.8 4.2-2.4 4.2.5 0 .7-.2 1-1.1.2-.7.9-1.7 2-2.8.9-.9 1.6-1.7 1.5-1.7s-1.1.6-2.1 1.4m-66.8.3c-.2.5.3 2.2 1 3.2l.5.8v-1.7c.1-2.2-.9-3.7-1.5-2.3m34.3 3.4c-1.6 2.5-4.1 15.6-3.2 16.2.2.1 1.2.7 2.1 1.3l1.7 1.1.2-1.7c.1-1.4.3-11 .2-16.4.1-1.6-.2-1.7-1-.5m-90-.1c-1.7 1.1-2.4 2.9-1.5 4.6l.4.9.3-1.4c.4-1.9 1.2-2.6 3.5-3.2 2.5-.6 2.5-.7.9-1.1-1.9-.4-2.6-.4-3.6.2m179.3 1.5c-2.6 1.1-4.2 2.3-8.3 6.3-8 7.8-11.9 9.9-17.3 9.5-5.5-.4-9.3-1.6-14.8-4.9-10.1-6.1-15.7-7.9-24.2-7.9-8.3 0-18 2.1-18 3.8v.8l1.5-.5c13.4-4.6 26.1-3.2 38.6 4.2 15.1 9 22.7 8.2 34.7-3.7 5.3-5.2 7.2-6.5 10.1-6.8 2.8-.2 5.4.8 6.2 2.4.2.4.2.3.1-.4-.3-2.9-4.8-4.4-8.6-2.8m118-.3c0 .2.2.4.4.4s.4-.2.4-.4-.2-.4-.4-.4-.4.2-.4.4m-239 1.3c0 1.6-1.2 3.2-4.8 6.7-1.5 1.4-1.4 1.3.3-2.6 1.1-2.4 1.1-2.7 0-.7-3.8 6.8-5.2 9.3-5.1 9.4.1.1 8.5-8.6 9.8-10.3 1.3-1.6 1.4-2.3.4-3.4l-.7-.7.1 1.6m192.3.1c0 .3.9 7.7 2.1 16.4l2.1 15.9-2.4 2.4-2.4 2.4.7 6.9c.4 3.8.8 7.1.8 7.3.1.2.1-2.7 0-6.5l-.1-6.9 1.2-.5c1.7-.7 2.3-.6 2.7.6 1 2.9 5.2 27.3 6.1 34.6.6 5.1.2 6-2.9 7.3l-1 .4-.3-1.8c-.2-1-.5-2.7-.7-3.8l-.4-2 .1 4.6.2 4.7c.1.1 1.9-.7 4-1.8l3.9-1.9-.2-1.1c-1.4-9.4-13.5-77.6-13.5-77.2m-148.7.5c-.6 0-2.2.2-3.5.2-2.5.2-2.6.2-2.2.8.2.3 7.6-.8 8-1.2.1.1-.2.1-2.3.2m-9.4 1.4c0 1.8 1.8 11.5 2 11.2.1-.1-.4-6.6-.7-8.9-.5-3.4-1.4-4.8-1.3-2.3m-90 .1c-3.6 1.8-4.4 4.1-2.8 7.2l.6 1.2.1-2.3c.1-1.3.3-2.5.5-2.7.7-.8 3.7-2.6 4.9-2.9 1.9-.5 2.1-.6 1.3-.8-1.3-.4-3.5-.3-4.6.3m287.2 0c-.2.3.2.6.5.4.3-.3.2-.6-.1-.6-.2-.1-.4 0-.4.2m-132.1.6c-2.1.9-9.7 2.7-15 3.6l-2 .3.8.5c1.3.8 14.7-2.5 16.5-4.2.9-.6.9-.7-.3-.2M26.7 92.6c-10.5 1.3-15 7.7-11.3 15.9.5 1 1 2.7 1.3 3.7l.5 1.9.2-1.2.2-1.2 1.1 1.1c3.1 3.1 8.3 3.2 11.9.3l.7-.5h-2.2c-1.2 0-2.4-.1-2.6-.2-.3-.1-.4 0-.3.3.1.2.5.5.9.6 1.8.4 1 .8-2 .9-5 .1-9.2-4.8-9.2-10.8 0-2.1.6-1.3 1.6 2 .2.8.2.6.1-1-.2-2.3.2-2.8 1-1.1l.5 1.2v-1c0-3.4 4.9-6.3 6.3-3.7l.4.7v-.7c0-1.2-.7-2.3-1.9-2.8l-1.1-.5 1.2-.7c1.5-.9 1.5-.9-.3-.7-.7.1-1.4.2-1.4.1 0 0 1.5-.7 3.5-1.4 3.5-1.3 3.6-1.5.9-1.2m67.1.3c-1.9.6-3.1 1.6-4.6 3.7-1.6 2.1-1.6 2-.3 2.7l1 .5 1.1-2.2c1.4-2.7 1.5-2.9 4.8-4.2l2.6-1h-1.6c-.9.1-2.2.3-3 .5m28.3 1.2c-3 .6-9.4 2.7-9.1 3 0 0 1.3-.2 2.7-.5 10.3-2.5 14.6-2 30.5 3.3 5.9 2 6.1 1.9 1.1-.2-12.2-5.2-19-6.7-25.2-5.6m-25.6 2c-1.8.6-4 2.8-3.5 3.4.1.1 2.5-.3 4.6-.8.5-.1 1.2-1.8 1.2-2.9 0-.3-1-.1-2.3.3m-61.8 2.5c.9 2.3 1.5 9.1.6 7.3-.4-.7-.6-.7-1.7 0s-1.1.7-.3.6c.9-.2 1.6.7 1.5 1.9l-.1.9.6-.6c1.6-1.5 2.1-4.2 1.2-6.8-.1-.3.3.1.9.7.6.7 1.1 1.1 1.2 1 .5-.5-.3-2-2-3.8-1-1-2-2.2-2.4-2.7-.3-.6-.2-.3.5 1.5m40.2-1.1c-1.2.6-3.9 2.6-5.2 3.9l-.7.8h2.3c4.8 0 7.4 1.8 9.3 6.2l.7 1.6-.2-1.5c-.5-4.2-2.2-6-6.8-7.2l-1.9-.5 2.6.1c2.9.1 3.6.4 6.2 2.8 1.5 1.4 1.6 1 .4-1-1.1-1.8-2.1-2.5-4.7-3.1-1.8-.4-2-.5-1.5-.8 1.4-1 4.8.2 7.1 2.5s2.8.9.6-1.5l-.7-.7 2.2.6c3 .9 3.1.7.6-.6-4-2.2-7.8-2.7-10.3-1.6m226.4 0c-.3.4.1.7.4.3.2-.2.2-.3 0-.5-.1 0-.3.1-.4.2m-173.5 3.7c-.3 3.9-1.6 6.3-4.3 7.8-1.8 1-1.1 1 1 0 3.3-1.6 5.2-4 6-7.6.4-1.8.5-1.7-1.2-1.9l-1.4-.2-.1 1.9M22.3 101c-1.5 1.5 4.4 6.6 13.2 11.5 1.7.9 1.7.9-3.3-3.2-6.1-5-8.3-7-8.6-7.7-.4-.7-.9-1-1.3-.6m18.9 2.1l-.7.2.7.3c.4.2.9.6 1.1.9.4.6 3.3 11.9 3.3 12.8 0 .3.1.4.2.4.4-.4-1.5-13.2-2.2-14.2-.3-.7-1.1-.8-2.4-.4m57.7 1.2c-.3 1.4.1 1.7 2.3 1.9l1.7.2-1.5-.7c-1.1-.5-1.6-.9-1.9-1.5l-.4-.8-.2.9m-10.4.6c0 .7-.7 2-1.5 3.1-.7.9-.4 1.3.3.5.9-.9 1.4-2.3 1.3-3.3-.1-.6-.1-.7-.1-.3m-22.5 0c-.4.1-1.3.8-2.2 1.7-1.9 2-4.2 6.5-2.5 4.9 1.9-1.8 7.4-2.8 10.4-2l1 .3-.6-.6c-.7-.7-.6-.8 1.7-1.1 2.1-.3 2.3-.5.9-1.3-2.2-1.6-6.2-2.4-8.7-1.9m65.8 1.7c-.9 2.2-1.9 3.5-3.6 4.6-1.6 1-.5.7 1.9-.5 2-1.1 2.3-1.5 2.5-4.1.2-2.3.1-2.3-.8 0m-36.1-.8c-1.2.7-3.8 3.2-3.8 3.7 0 1.1 4.9 3.2 7.8 3.4l2.2.1-2.8-1c-2.9-1-3.6-1.4-4.2-2.6-.4-.9-.5-.8 1.5-3.1 1.3-1.5 1.2-1.6-.7-.5m14.1-.1c0 .1.5.7 1.1 1.3 1.8 2 1.7 3.1-.7 4.7-1.5 1-1.4 1.1.4.5 5-1.7 5.1-3 .3-6-.6-.4-1.1-.6-1.1-.5m186.1 1.8c0 .2.2.4.4.4s.4-.2.4-.4-.2-.4-.4-.4-.4.2-.4.4M84.5 110c-.7 1.2-.7 1.3-.2 1.3.2 0 .6-.4.8-.9.8-1.7.3-2-.6-.4M67 111.3c-3.9.9-6.4 3.1-8.6 7.6l-.9 1.8.8 3c.8 3.2 1 2.9.6-.9-.3-2.2 0-4.2.5-4.2.2 0 2.3 5.8 2.6 6.9l.2.9.5-1.5c1.2-3.8 3.4-6.3 8.3-9 1.7-.9 3.1-1.8 3.1-1.8.1 0-.1-.2-.3-.4-1.1-.9-.9-1.6.4-1.4 1.5.2.9-.2-1.3-.9-2.1-.6-3.7-.7-5.9-.1m20.2.4c-3.5 1.3-7.1 4.1-9.8 7.6-1.4 1.9-1.7 3.5-.9 5.2.4.9.5.7.8-1l.2-1 .6.5c4.5 4.1 13.9 5.5 20 2.9 1.5-.6 1.1-.7-1.9-.2-3.1.5-3.3.4-2.4-.9l.6-1-1.2 1c-1.1.9-2.5 1.5-2.9 1.2-.3-.3.5-1.4 2.3-3.2l1.8-1.8-3 2c-3.4 2.3-3.2 2.2-4.4 2l-.9-.2 1.4-.8c1-.6 1.7-1.2 2.3-2.2.5-.8 1.6-1.9 2.4-2.5 2.1-1.6 2.4-2 1.1-1.5-2.7 1.1-2.9.2-.5-2.3l1-1-1.2.5c-2.8 1.2-3.3.6-1.3-1.5l1.4-1.5-1.1.6c-2.8 1.6-3.4 1.9-3.7 1.8-.5-.2-.3-.8.7-2.1 1-1.4.8-1.4-1.4-.6M71.6 113l.6.8-1 .4c-1.6.7-1.8.6-2.3-.7l-.5-1.3h1.3c1.2 0 1.4.1 1.9.8m-4.2 1.3l.7 1.5-1.2 1.1c-.8.8-1.2 1-1.3.8-.1-.2-.4-1.3-.8-2.3l-.7-1.9 1.1-.5c1.4-.6 1.4-.6 2.2 1.3m130.1.3c-3.7.6-7.4 3.6-8.4 6.8-.2.6-.1.6 1.5-.3 7.2-3.9 14.1-3 20.1 2.7l1.9 1.8-1.4-1.7c-4.8-5.7-10.3-7.4-17.2-5.4-2.5.7-2.7.7-1.3-.5 7.6-6 19.9.8 31.1 17.2 0 0 .8-.3 1.7-.7l1.7-.7-2.5-3.1c-9.8-11.9-19.1-17.4-27.2-16.1M63 117.7l.9 2.3-.7 1.2c-.9 1.6-.9 1.6-2-1.4l-1-2.6.8-.9c1.1-1.2 1-1.3 2 1.4m12.9-2.1c-6.8 2.1-11.4 11.8-9.2 19.6l.4 1.3.2-1.3.2-1.3 1 .6 1 .6-1.2-1.2-1.2-1.2.2-1.6.2-1.6 1.9-.1c2.5-.2 2.5-.2.5-2.2l-1.7-1.7.7-1.5.7-1.5 1.4 1c2.3 1.7 4.2 2.5 3.8 1.5-.1-.2-.4-1.2-.7-2.2-.4-1.2-.8-2.1-1.3-2.6-1-.9-1-.9.3-1.9l1-.8 1.2.5 1.2.5 1-1.4c1.2-1.6.7-2.2-1.6-1.5m48.1.8c2.8 4.8 3.3 6.9 1.9 9.2-1.5 2.5-2.6 3-6.3 2.9-2.8 0-3.1 0-2.3.3 5.8 2 14-2.3 11.7-6.2-.6-1.1-3.8-5.3-4.9-6.6l-.7-.8.6 1.2m-104.6 3.5c0 .8.1 2 .2 2.6l.2 1.2 5 1.7c2.8.9 5.1 1.7 5.1 1.6 0 0-1.8-1.4-4.1-3l-4.2-3-.7.7-.7.7-.3-1.4c-.5-2.5-.5-2.6-.5-1.1m110.5 6.5c-.1.4-.2 1-.3 1.4-.1.4-.7 1.3-1.4 2.2-.7.8-1.1 1.5-1 1.4 1.6-.7 3.3-2 3.3-2.6 0-1.8-.4-3.2-.6-2.4m-49.5.5c4 3.5 8.1 3.9 17.1 1.8 1.8-.4 4-.8 4.8-.8 2.6-.1 3.3-.3 1.8-.7-2-.5-4-.4-7.9.6-6.4 1.6-8.7 1.5-14.4-.8l-2.3-.9.9.8m-5.3 3l-1.5 1.7-.3 3.1c-.4 3.4-.2 7.4.3 9.3l.4 1.2.2-2.4c.1-1.3.3-2.9.5-3.5.3-1.3.9-2 .7-.7-.2 1.1.3 6.2.7 7.5l.4 1v-1.7c.1-4.8.6-8.9 1.2-9.4.9-.7.9-.6.6 1.3-.3 2.1-.1 6.8.3 7.8.2.4.3.5.3.4.7-8.5 1-10.4 1.5-10.2.2.1.6.2.9.2.4 0 .4.2.2 1.6-.2 1-.2 1.9 0 2.6.3 1.1.3 1.1 1.1-1.7.6-2 1.4-2.6 1.6-1.1.2 1.3.3 1.5.7.9 1-1.3 3.9 3.5 4.6 7.8.3 1.7.8 3.3 1.3 4.3.8 1.6 2.4 3.9 2.1 2.9-.1-.3-.6-1.5-1-2.6-.4-1.2-1-3.4-1.2-4.9-.9-6.7-5.1-10.9-13.2-13.4l-2-.6.7-1.3c.8-2.1.6-2-1.1-.1m202.1-1.2c-.6.1-.1.2 1.5.1 2.4-.1 2.5-.1 2.6.5.3 1 1.2 1.8 1.2.9s.5-1.3 1.8-1.3c1 0 1.1.1 1.2.6 0 .9.3 1.8.6 1.8.1 0 .2-.2.2-.4s.2-.6.5-.9c.6-.7 2.8-.5 2.6.2-.1.3 0 .7.1 1.1l.2.6.4-.8c.2-.4.6-.8.8-.8.3 0 .9 0 1.5.1h1l-.1 1.2c-.1.8 0 1.2.2 1.2s.3-.2.3-.4.3-.7.6-1.1l.6-.7 1.5.6 1.5.6-.3.9c-.4 1.3-.1 1.4.9.4.4-.5.9-.8 1-.7.1.1.7.3 1.3.4l1.1.3-.3.9c-.4 1.3-.1 1.4.9.3l.9-1 1.1.6c.9.4 1.1.7 1 1-.7 1.6-.4 2 .7 1 1.2-1.1 2.7-.2 2.5 1.4-.2 1.3 0 1.4 1 .5 1.2-1.1 2.5-.3 1.9 1.1-.2.5-.3.9-.2.9.1-.1.5-.3.9-.5 1.3-.7 3.1.5 2.1 1.5-1 .9-.7 1.6.3.9 1.4-.9 3.8.4 2.8 1.5s-.7 1.6.7 1c1.2-.5 1.3-.5 2.1.4l.7.8-.7.4c-1.2.6-1.1 1 .3.8 1.9-.2 3.4 1.1 2.3 1.9-.7.5-.3.7.7.4 1.1-.3 2.3 1.2 1.4 1.8-.3.2-.5.5-.5.6 0 .2.4-.1.9-.5.5-.5 1.2-1 1.6-1.2l.7-.4-2.8-2.2c-11.2-9.5-20.5-14.4-32.1-17-6.1-1.4-12.8-1.9-15.7-1.3m-145.9 2.6c1.1 1.4 1.2 1.2-1.4 2.5-3.9 1.9-4.5 2.7-6.3 8-1.3 4-1.3 4.2.2 1 1.9-4.1 3.2-5.5 5.4-5.5 2.1 0 2.8 1.2 3.3 6 .6 4.9.5 4.9 1.4 1.4 1-4.1 1.2-7 .6-9.9-.5-2.5-.7-2.7-2.7-3.9l-1.3-.8.8 1.2m-29.9 0c-.7.3-1.9.7-2.6 1-2 .9-4.1 1.2-6.5 1l-2.2-.2 1.1.6c2.1 1.2 5.2.9 8.9-.9 1.7-.8 3.3-1.5 3.5-1.5.3 0 .5-.1.5-.3.1-.3-1.3-.2-2.7.3m71.3.1c-7.5 4.5-3 14.1 8.7 18.6 4 1.6 4.6 1.6 1.5 0-7.3-3.6-11.4-7.5-11.9-11.3-.1-1-.1-1.1.2-.6 3.8 5.5 10.2 9.7 16 10.3 11 1.2 21.4-.9 39.2-8 10.8-4.3 13.7-5.3 19.6-6.6 2.8-.6 2.9-.6 1.1-.5-4.6.4-9.2 1.6-21 5.8-16.1 5.7-21.8 7-31.8 7-10.5 0-14.3-1.3-18.9-6.3-5.1-5.5-3.4-9 3.3-7 2.2.6 2.2.8-.2.9-1.6.1-2.3.3-2.7.6-.8.7-.6.8.7.3 1.4-.6 3.6-.4 5.5.5l1.5.7-.5-.8c-1.8-2.9-7.9-5.1-10.3-3.6m-85.9 1.4c4.2 2.5 5 3.7 7.6 11.4 1.5 4.3 1.6 4.1.6-1.1-1.3-6.9-1.8-7.6-6.7-10-3.6-1.8-4.2-1.9-1.5-.3m26.8-1c2.1.5 2.7.8 3.9 1.8 1.3 1.1 1.4 1.2 2.9 1.2 2 0 2.3-.4.5-.6-1.6-.2-2.1-.5-3.5-1.7-.9-.8-1.1-.9-2.7-.9-.9.1-1.4.2-1.1.2m165.6 2.2c-.6.1.3.3 2.6.4 15.9.9 29.7 7.3 39.7 18.6l1.8 2 .2-.8c.3-1.4-8.9-10-14.1-13.2-7.6-4.6-24.3-8.5-30.2-7m-163 1.3c.8.9 1.3 1.8 1.7 2.9.6 2 .7 2 1.3.4.7-1.9-.1-3.1-2.4-4l-1.8-.6 1.2 1.3m200.4-.1c1.2.8 1.6.9 3 .9 1.7 0 1.8.1 1.2.7-.7.7-.5 1.3.2.8.8-.6 3-.5 4.3.1.9.4 1 .5.4.5-.8 0-2.4 1-2.4 1.4 0 .2.2.2.5.1 1.1-.5 4.2-.3 5.1.4l.9.7-1.7.1c-2.2.2-3.4.8-1.6.8 2.1 0 4.3 1.1 5.1 2.4.3.5.2.5-.2.3-.6-.3-2.4-.4-2.9-.1-.2.2 0 .3.9.5.8.2 1.6.7 2.3 1.3 1.3 1.3 1.3 1.7 0 1-.6-.3-1.1-.5-1.2-.4-.2.3 2 2.4 2.7 2.5.3.1.7.3.8.4.9 1.4.8-2.2-.1-4.6-2.5-6.8-8.8-10.9-16.7-10.9h-1.8l1.2 1.1m-219.4-.4c-1.1.3-2.5 3.1-2.2 4.5.3 1.6.5 1.4 2.1-1.8.8-1.7 1.3-2.9 1.1-2.9-.2 0-.6.1-1 .2m6.8.7c-5.2 1.9-5.2 10.9 0 12.9 3.1 1.2 7.5-.5 8.9-3.3 2.6-5.2-3.3-11.6-8.9-9.6m18 .7c-1.7 1-2.6 2.4-2.8 4.6l-.1 1.3 1.3-2.5c1-1.9 1.6-2.7 2.4-3.3.6-.4 1.1-.8 1.1-.9 0-.2-.6 0-1.9.8m-13.7.5c2.3.6 4.1 3.3 4.1 5.9 0 5.7-9.4 6.8-11.2 1.3-1.5-4.3 2.5-8.4 7.1-7.2m-5.7 2.5c-.7.9.3 2.2 1.2 1.5.5-.4.5-1.1.1-1.6-.5-.4-.9-.3-1.3.1m6.6 0c-.6.7-.2 1.3.7 1.3.9 0 1.3-.8.5-1.4-.6-.4-.8-.4-1.2.1m178.2 2.8c-1.7 1.3-3.9 2.9-5.1 3.6-1.1.7-2.1 1.3-2.1 1.3s0 .5.1 1l.2.9 1-.7 1-.7.4 1c.5 1.1.9.8.9-.6 0-.7.2-1 1.2-1.6.6-.4 1.1-.9 1.1-1-.1-.2.8-.8 1.9-1.4l2-1.1.4.9c.5 1.1 1.1.7 1.1-.7 0-.6.2-.9 1.2-1.4l1.2-.7.6 1.1.6 1.1.3-.8c.2-.6.2-.8-.1-1.1-.3-.3-4.4-1.8-4.8-1.7 0 .3-1.4 1.3-3.1 2.6m-182.2-1.3c-1.2 1.2-.3 3 1.5 3 .7 0 1.1-.2 1.4-.5 1.3-1.8-1.3-4.1-2.9-2.5m134 .1c-2.7.8-4.4 1.4-11.9 4.4-10.3 4.1-15.2 5.7-20.4 6.6l-2.4.4 2.6-.1c5.2-.2 12.7-2.4 23-6.7 8.4-3.5 10.7-4.4 12.2-4.8l1.4-.4h-1.2c-.6 0-2.1.3-3.3.6m58.4 3.7c-3.8 1-5.6 1.9-10.4 5-2.2 1.4-4.5 2.8-5 3.1-.5.3-1 .6-1 .7 0 .7 1.8-.1 7.4-3.2 5-2.8 8.3-4.2 11.3-4.9 3-.7 2.9-.7 2.3-1.2-.8-.5-1.2-.4-4.6.5m-191.5 1.1c-.3.7.1 1.3.8 1.2.4-.1.6-.3.6-.8 0-.7-1.1-1.1-1.4-.4m10.7.9c-.3.8-1.6 2.3-3.8 4.7-3.6 3.8-4.2 4.8-4.5 8.5l-.2 1.7.6-1.4c.8-1.9 1.4-2.2 2.4-1.2.9.9 1.1 3.3.4 5l-.4 1 .7-.6c.8-.7 1-1.5 1.6-4.7.6-3.3 1.1-4.1 3.8-6.3 2.1-1.7 3.2-2.8 3.2-3.4 0-.1-.3.1-.6.4-.3.3-1.3.9-2.2 1.4s-2.1 1.2-2.7 1.6c-2.6 2.1-2.9.4-.5-2.7 2.1-2.8 2.8-4 2.7-4.7.1-.4-.1-.2-.5.7m17.7-.7c-.1.2-.3 1.2-.4 2.2-.2 1-.5 2.3-.7 2.9-.4 1.2-.4 1.6.1.9.6-.7.9-.5.7.5-.3 1.3-1 2.6-2.4 4.3-1.4 1.8-1.3 1.9.7.5 2.8-1.9 3.9-4.1 3.7-7.1-.2-1.8-1.5-5-1.7-4.2m152.3.9c.1.4.2.7.4.8.4.2.3-.9-.1-1.2-.4-.2-.5-.1-.3.4m-49.3 1.1c-1.9.8-1.9.8 1.4 3 4.1 2.7 5.8 3.3 10.8 3.7l2.5.2v-3.3l-1.3-.2c-5.3-.7-7.8-1.4-10.9-3.4l-1.1-.7-1.4.7m-164 1.1c-.6.7-.4 2.3.5 4.2l.8 1.7v-1.4c0-2.6 1-2.4 4.9 1 2.3 2 2.3 1.8-.2-1.3-3.2-3.9-5.2-5.3-6-4.2m64.3 2.3v1.7l2.1.2c3.9.3 9 1 11.4 1.5 2.8.6 3 .5 1.4-.4-1.7-1-13.3-4.7-14.7-4.7-.1 0-.2.8-.2 1.7m154.6-.7c-.3.2 0 .3.7.4.8.1 1.3.5 2 1.2l.9 1-.9.2c-1.2.2-1.6.4-1.6 1.1 0 .5 0 .5.7.1.9-.6 2.1-.3 2.5.6.2.4.2.7 0 .7-.4 0-1.6 1.3-1.6 1.7 0 .4.1.3.7-.1 1.6-1.3 3.1-.4 2.8 1.7-.2 1.7 0 1.8.6.5 1-2 2.4-1.4 2.3.9-.1 1.7.2 1.7.7 0 .4-1.1.5-1.1 1.5-.7.4.2.8.6.8 1.1.2 1.1.5 1.1.9.2.5-1.1 2.3-1.2 2.6-.1.3 1.4.9 1.3.9-.2 0-.9 1.6-1.5 2.3-.8.2.3.4.6.4.8 0 .2.1.4.3.5.2.1.3-.2.2-1-.1-1.8 1.5-2.5 2.7-1.3.9.9 1.2.8.6-.3-.9-1.7 2.4-1.7 3.3 0 .1.3.4.4.5.2.1-.1-.1-.7-.4-1.3l-.6-1.1 1.1.2 1.1.2-.7-.7c-.4-.4-1.1-1-1.7-1.2l-1-.5-1.9 1c-1.1.5-2.2 1.2-2.6 1.5-4.8 3.4-14.1.9-16.1-4.4-.5-1.9-2.7-2.8-4-2.1m-58.9.9c5.4 4.1 11.2 6.8 14 6.5l1.4-.2-3.1-1c-1.7-.6-5.4-2.1-8.1-3.5-5.9-3-5.7-2.9-4.2-1.8m-78.8-.3c-3.6.9-2.5 2.2 2.7 3.1 3.3.5 4 .8 10.1 4 10.6 5.6 19.4 10.3 19.3 10.4 0 .1-1.6-.5-3.4-1.3-7.2-2.9-8.7-3.4-14.5-4.4-8.6-1.5-10.9-2-12.3-2.6-1.4-.6-1.8-.5-1 .3.8.9 1.9 1.2 8.7 2.4 11.3 1.9 17.1 3.8 30.6 10.3 2 1 3.7 1.7 3.7 1.6.1-.1-2.8-2.1-6.2-4.6-22.5-15.7-32.1-20.7-37.7-19.2m135.1 2.4c.4 6 4.8 10.3 11.9 11.6 4.6.9 7.4.4 13.4-2.1 2.4-1 5-2 5.7-2.2 1.4-.4 1.4-.7.1-.7-1.2 0-3.2.6-6.6 2.1-11.3 4.9-21.7 1.1-23.7-8.7-.6-2.3-.9-2.3-.8 0m-189.9-.9c0 1.2 2.4 3.6 4.1 4.1 1.2.4 1.8 1.2 2 3.2.2 1.8.5 1.9.7.1.3-2.6-.1-3.5-2.7-4.8-.9-.4-2.2-1.3-2.9-1.9-.6-.4-1.2-.8-1.2-.7m4 .6l-.9.1.8.5c1.2.8 5 .7 6.1-.2l.8-.7h-2.9c-1.7.1-3.4.2-3.9.3m225.6.5c-2.5.5-3.8 2.9-2.8 5.2l.3.8.6-1.4c.7-1.7 1.8-2.7 3.8-3.5 1.7-.7 1.9-1.1.8-1.1-.4 0-1-.1-1.3-.1-.2 0-.9 0-1.4.1M137.8 155c0 .5 2.9.9 9.7 1.4 6.7.5 6.7.3 0-.6-6.1-.8-9.7-1.1-9.7-.8m17.9.7c-.5.5-.4 1.9.2 2.4 1.1 1 2.7.2 2.7-1.2 0-1.2-2-2.1-2.9-1.2m178.3.2c-.5.1-1.9.7-3 1.2-2.3 1-2.1.7-2.5 4.2l-.2 1.4 3.6-.9c6.9-1.8 12-1.6 17.7.7 3.4 1.4 3.4 1.3 0-1-8.6-5.5-11.9-6.6-15.6-5.6m-260.3 1.7c-9.2 9.8-19.2 21.8-21.4 25.7-1.5 2.7-1 2.4 1.4-.8 7.3-9.6 17.3-19.5 24.2-24 1.7-1.1 1.7-1.3-.3-2-2-.6-2.5-.5-3.9 1.1m265.8.3c1.1.2 2.8.8 3.7 1.2l1.6.8-1.3-.1c-.7-.1-2.2-.1-3.3-.1h-2l-.9-1.1c-1.1-1.3-1-1.3 2.2-.7m-212.8 3c-4.6 5.8-8.8 8.9-14.1 10.3-2.2.6-2.4.5-2.4-1.8v-1.7l-.9 1.6-.8 1.6-1-.4c-1.5-.5-1.5-.3.3 1.1 1.8 1.5 2.5 1.5 5.6.5 6.7-2.2 10.7-5.6 14.6-12.4 1.1-1.7.7-1.4-1.3 1.2m-26.7-1.5c1.1 3.6 1.3 5.6.8 7.1-1.2 3.6-3.6 3.9-10.8 1.5-2.8-.9-1.8-.2 2.9 2.2 4.4 2.2 6 2.4 9.2.9 2.1-1 2.3-1.2.5-1l-1.3.2.5-1.4c.7-1.9.7-3.6-.3-6.3-.8-2-1.9-4.5-1.5-3.2m-15.3 2c0 1.6-.7 2.3-2.4 2.4-1.4.1-1.4.1-.8.6 3.3 2.6 4.9 1.2 3.6-2.9l-.4-1.2v1.1m-6.8.9c-2.9 1.2-17.2 14.9-21.5 20.5-1.6 2.2-1.3 2.2.5 0 2.4-3 6.8-7 13.2-12.2 6.8-5.4 8.7-7.1 8.7-8 0-.6-.1-.6-.9-.3m170.1.8c-20.3 2.4-41.2 15.7-49.2 31.6l-1.4 2.7-.1 6.9c-.2 8.3 0 7.8-4.1 12-3.2 3.4-3.4 3.7-4.2 7.5-2.1 10.5-1.8 22.7.9 28.5l.6 1.4-.5 2.1c-2.3 9.3.9 19.3 8.4 26.8 2.1 2 2.1 2 .6-.4-4.3-7-6.3-15-4.7-18.5l.4-.9.9 2c8 18.1 20.3 32.8 33.3 39.8 3.1 1.6 8.3 2.9 13.6 3.2 2.6.2 2.5.1-2.2-1.3l-2.3-.7v-1.4c0-5.5-4.2-14.5-10.6-22.4-3-3.8-3.9-4.5-2-1.6 9.4 14.2 11.1 21.8 4.7 21.1-6.3-.7-22-14.9-25.4-23.1-3.7-9.1-5.7-23.5-3.9-28.5l.5-1.5.2 5.2c.4 11.8 3.3 20.9 8.5 26.5 1.7 1.8 1.8 1.6.4-.4-5.6-8.1-8.8-23.2-6.4-30.8l.4-1.2-.1 1.5c-.6 6.8 2.6 18.5 6.5 23.6 1.4 1.9 1.4 1.6.2-.9-2.3-4.6-3.4-9.3-3.7-15.4-.2-5 .1-5.9.9-3.7.9 2.4 4.2 8.6 6.7 12.7 2.7 4.5 3.2 4.9 1.1.8-3.6-7.1-6.7-16.2-7.2-21.4-1.1-9.7-3.1-15.3-7-19.4-3.2-3.4-3.6-6.1-1.5-10.3.8-1.6 1.1-1.8 1.5-1.2 1.2 2.2 7.3 8 10.6 10.2 5.8 3.9 9 4 23.1 1.3 11.9-2.3 16.7-2.5 20.8-.8.9.4 1.9.8 2.1.9 1.1.5-.8-1.1-2.3-1.8-3.3-1.6-7.6-1.9-17.9-1.2-9.7.7-15.7.5-20.2-.6-5.5-1.3-12.1-8.7-13.7-15.1-.7-2.9-.5-3.2.6-1.2 2.1 3.5 6.9 8 10.6 9.7 3.2 1.5 4.3 1.6 19.5 1.5 17.3-.1 18.1 0 28.2 3.4 5.7 1.9 18.1 3.2 20.7 2.2.6-.2.4-.3-.8-.3-5.4-.1-15.3-2.7-21.2-5.6-5.4-2.7-8.7-3.5-17.2-4.4-4.8-.5-5.5-.6-5.9-1.1-.3-.4-.2-2.2.2-3.1.7-1.7-1.6.6-2.6 2.6-.7 1.5-1.4 2-2.5 2-.8 0-.4-3.8 1.1-10.3.2-.8.2-.8-.9.4-1.5 1.6-2.8 4.3-3.5 7.4-.6 2.7-1 3.2-2.4 2.9-1.1-.2-1.1-.5-.6-2.8 1-4.6 3.3-9.9 5.9-13.3 1.6-2.1 1.6-2.3 0-1.2-3.9 2.8-9.2 10.9-10.1 15.3-.3 1.6-.4 1.6-1.2 1.7-1.2.1-1.2-.3-.4-3 2.2-7.5 6.6-14.8 11.8-19.1l2.2-1.9-.4-.9c-.5-1.1-.6-1.1-2.2 0-3.9 2.9-10.5 11.6-15.3 20.2-1.1 1.9-1.3 2-2.4.8-1.7-1.9 4.2-11.1 9.6-15.1 3.2-2.3 5.3-5.2 5.8-7.8.1-.6.6-1.6 1.2-2.3.8-1 1-1.4.9-1.9l-.2-.7-1 .8-1 .8-.5-1.5c-.6-1.8-.6-1.9 2.5-4.7 2.3-2 7.7-7.4 7.5-7.4-1.2 0-7.5 4-10.7 6.7-1.8 1.6-2 1.6-2.7 1.3-.4-.2-1.3-.4-2-.5l-1.3-.2 2.9-2.2c8.5-6.3 16.4-9.8 24.5-10.6 1.6-.2 1.7-.2 1.1-.4-1.1-.3-1.8-.2-4.1 0m85.4 1c-5.6 1.2-6.2 1.6-7.5 3.9-.6 1.1-1.1 2-1 2 0 0 2.9.1 6.4.1 11.8 0 16.5 2.5 25.2 13.3 3.6 4.5 3.5 4.3-.1-1.3a83.4 83.4 0 0 0-4.4-6.1c-2-2.5-2-2.6-1-3.4 1.1-.8 2.6-.9 3.7-.1l.9.6-.1 2.4-.1 2.4.8-1.2c1.7-2.6 3.3-2.3 5.1 1l.6 1.1-.2-.9c-1.3-7.5-18.7-16-28.3-13.8m-47 1.4c18.2 4.7 31.7 15.5 37 29.7.9 2.3.9 3.1 0 4.9-2 4.3-11.6 13-19.1 17.5-2.7 1.6-2.7 1.7-.4 1.1 5.6-1.4 12.2-6.1 21.5-15.2l4.6-4.5.8.9c.4.5 1.2 1.7 1.7 2.6 1.3 2.3 1.3 2 .2-1.8-1.6-5.8-3-8.5-7.3-13.9-9.1-11.5-23.2-19.4-38.1-21.7-3.9-.6-4.2-.5-.9.4m51.7-.3l1.5.2-.9 1.7-.9 1.7h-1.3c-.7 0-2-.1-2.9-.2l-1.6-.2 1.3-1.7c1.4-1.9 1.4-1.9 4.8-1.5m-88.3 2.9c-6.1 3.2-7.5 4.4-11 9.5l-1.8 2.6.9 1.7c5.6 10.8 16.3 15.3 32 13.4 2.9-.3 3.1-.6.7-.9-8.4-.9-13.4-2.4-17-5.3l-.9-.7.7-1.3c.9-1.7.8-1.7-1-.6-1.1.7-1.6.8-1.8.6-.5-.5-.3-.9 1.5-3 3.2-3.7 3.2-3.7-.7-.8-2 1.5-2.6 1.8-2.9 1.6-.8-.5-.6-1.1 1.6-3.6 1.2-1.4 2.5-2.8 2.9-3.3.9-1 .5-.8-3.4 2s-3.4 2.7-4.4.6c-1-2.1-1-2.1-.1-1.6 2.5 1.3 7-2 7-5.1 0-1-.6-2.4-1.1-2.6-.2-.1 0-.1.5-.2.4 0 1.1-.1 1.4-.2.5-.1.6-.1.6.5 0 2.2 1.3 3.4 4.9 4.2 2.7.7 3.4.7 1.8 0-3.5-1.5-5.4-4-5.4-6.9 0-1.6-.1-1.8-.7-2.1-.9-.4-.4-.5-4.3 1.5m98.5.3c.1.2-.3 1.7-1 3.7-.1.3-.6.1-1.9-.6-2.8-1.6-2.7-1.1-.7-4.3l.4-.6 1.6.8c.7.4 1.5.9 1.6 1m-66.6.3c-1.2.1-1.2.1-.3 1 1.2 1.2.4 2.6-2.5 4-2 1-1.7 1 1 .1 2.8-.9 3.4-1.4 3.4-2.8 0-1.1.1-1.1 2.8.1 3.1 1.4 5.1 4.2 5.8 7.9.7 4.2-.1 6.3-3.9 10.2-1.3 1.4-2.3 2.5-2.1 2.5 3-.1 8.6-4.4 9.7-7.4 2.5-6.5-6.2-16.3-13.9-15.6m37.8 5.3l1.7 1.5 1.4 1.3 1.3-.6c1.5-.7 1.9-.6 4.3.9l1.5.9 2.9-.2c3.4-.2 5.7.2 2.7.5-2.2.2-4.5 1.1-5.3 2l-.6.7.8-.2c3.2-.8 7.9-.7 10.3.2.9.3.7.3-2.4.4-3 0-10 .9-10.4 1.3-.7.7 1.3 1.4 2.9 1 4-.9 12.2-.4 15.1 1l1.1.5-1.2-.2c-3.3-.5-15.2.1-15.2.7 0 .1.5.8 1.2 1.6.6.8 1.4 1.7 1.7 2.1l.5.7 2.3-2c3.3-2.8 3.8-3.1 4.8-2.4 1 .7 4 4.5 4.8 6.1l.6 1.2-.7 1c-.4.6-1.8 2.4-3.2 4-3.6 4.3-3.5 4.3 1.7-.3 2.2-1.9 4-3.5 4-3.6.1 0-.6-1.5-1.6-3.2-1.9-3.5-1.9-3.5 1.1-2.4 3.4 1.3 4.2 2.5 7.8 12.3 1.1 3.1 1.2 2.8.3-1.3-3.6-16.1-12.3-24-28.3-25.6-3.3-.2-8.3-.2-7.9.1m5 3.9c-.8.6-.5.8 1.6 1 2.1.2 2.2.1.5-.8-1.6-.7-1.4-.7-2.1-.2m-280.7 9.8c-3.2.8.6 3.5 11.8 8.3 10 4.3 14.5 5.2 33.7 6.8 3.7.3 7.6.6 8.7.7 3.9.3 1.7-.1-6.1-1.2-25.1-3.5-30-4.8-39-9.9-3.9-2.2-4.7-3.2-3.5-4.6.5-.5-3.6-.6-5.6-.1m295.3 4.5c-2.7 2.4-2.9 2.9-.3 1.3 2.1-1.4 2.6-1.5 3.8-1l1 .4-.6-.9c-.3-.5-.7-1.1-.9-1.5-.3-.7-.1-.7-3 1.7m-128.8-.2c0 .2.3 1 .8 1.8l.8 1.5-1.1 1.3-1.1 1.3-.2-1c-.2-1.5-.2-2.5.1-4.1.2-1.2.7-1.7.7-.8m-167.8 1.7c-1.5 1.6.7 3.9 9.6 9.8 15.1 10.1 29.3 15.7 41.5 16.5l2.3.1-7.6-2.6c-11.4-3.9-10.7-3.6-22.3-10.4-6.9-4-6.2-3.7-5.6-3.1.8.7 8.2 6 10.7 7.6 3.2 2.1 3 2.2-.7.2-6.6-3.4-22.5-13-23.9-14.5-.9-.8-1.1-1.8-.6-2.1.5-.3.3-.5-1-1.3-1.7-.8-1.9-.8-2.4-.2m174 3.5c.4.2-3.6 7.5-4.3 7.7-.1 0-.5-.4-.8-1l-.6-1.1 1.1-1.9c.6-1.1 1.4-2.4 1.8-3.1.6-1.1 1-1.2 2.8-.6m133.4 8.5c-3.5 5-3.4 4.9-1.7 3.6 3.5-2.8 4.3-2.3 4.4 2.8v2.1l-1.5 2.4c-2.1 3.2-1.8 3.4.7.6l2.1-2.3-.7-5.7c-1-7.4-.8-7.2-3.3-3.5m-24.5 8.6c-5.1 4.4-9.5 8.2-9.7 8.4-.4.4 1.7-1.1 13.7-10 6.2-4.6 5.8-4.5 7.5-3 2.7 2.3 3 5.1.9 7.9-1.1 1.4-1.1 1.6-.3 1.1 1.5-1 3.1-1.2 3.8-.6 2.8 2.7 3.8 16.9 2.4 36.9l-.1 1.9.5-2c3.5-13.5 3.5-29.5.1-37.6-1.8-4.3-7.4-11-9.2-10.9-.2-.1-4.5 3.5-9.6 7.9m24.7-2.2c-.2.8-.6 2-1 2.5-1.1 1.6-.8 1.8.7.3 1.3-1.3 1.3-1.3 1.2-2.7-.3-1.8-.6-1.9-.9-.1m-146.7 6.6c.2.3 1.6 2.1 3.2 4 6.2 7.7 7 9.5 8.3 18.2 1.2 8.6 1.6 9.7 4.5 14.5 2.4 3.9 10.3 15.3 10.6 15.3.1 0 0-.3-.2-.6-6.3-9.8-9.6-17.6-11.7-27.8-1.8-8.8-2.3-10.4-4-12.4-2.2-2.4-11.6-12.3-10.7-11.2m121.4 8.7c-18.8 11.4-27 15-29.1 12.8-1.4-1.5.1-3.5 4.3-6 2.3-1.3 2-1.4-1.5-.3-7.3 2.4-10.5 6.3-11 13.4-.3 4.7-1 6.3-4.8 11.9-7 10.4-17.2 21-23 23.9-5.4 2.7-9.2 6-10 8.6-.2.6-.2.6 1.1-.1 4.7-2.4 7.6 0 9 7.6 1 5.3 2 7.1 5.9 10.3 1.9 1.6 1.9 1.6-1.2 2-8 1-10 .5-12.2-3.3-.5-.8-1.3-2.6-1.8-3.8-1-2.7-1.3-2.5-1.1.7.4 5.4 2.5 7.3 8.6 8.1 6.3.7 23.1-1.9 30.9-4.8 1.9-.7 1.9-.9-.1-.4-4 1.1-9.7 1.8-13.9 1.8h-4.1l-1.6-.9c-5-2.7-6.3-5.1-5.9-11.2.3-5.4.5-5.7 7.7-11.5 4.8-3.9 6.3-5.3 6-5.6-.1-.1-1.1.5-2.3 1.4-1.2.9-3.3 2.4-4.6 3.4-4.7 3.5-6.9 4.2-9.6 3.1-2.8-1.2-2.3-2.4 2.3-6 17-13 23.1-19.7 26.2-28.9 1.5-4.6 2.6-5.7 3.6-3.7 1.6 3.1-.5 13.2-3.7 17.6-1.1 1.5-1 1.6.5.5 2.2-1.5 3.4-3.8 5.5-9.7 2.9-8.3 4.4-10.5 12.1-16.9 3.4-2.9 15.7-12.3 19.4-14.8 2.4-1.3 1.4-1-1.6.8m-81.4 2.2c-.8.2-2.4.7-3.4 1.2-2.3 1-2.5 1-4.2.3-.7-.3-1.3-.5-1.4-.5-.1 0 1.7 3.7 2.1 4.2.2.2.6 0 1.7-.8 3-2.4 6.2-3.4 11.3-3.5 3 0 3.2-.1 2.2-.4-3-.8-6.1-1-8.3-.5m31.2.3c0 .5 8.3 6.2 10.1 6.9 2.3.9 5.6-.2 11.4-4 3.7-2.4 3.8-2.7 1.1-1.6-9.6 3.8-13.4 3.8-20.5-.3-1.2-.5-2.1-1-2.1-1m-43.3 1.7c-1.8 5.6-1.7 5.4-5.6 10-2.9 3.4-3 3.1.7 3.4l1.8.2-.3-.6c-1.1-2 .6-4.5 4.3-6.4l2.1-1.1-.4-.9c-.9-2.1-2.5-4.9-2.6-4.6m32.6 2.1c0 .1.2.3.4.4.2.2 1.6 1.4 3.1 2.7l2.7 2.4 1.8-1.4c1-.8 1.8-1.4 1.8-1.5 0 0-1.1-.2-2.5-.3-1.8-.2-3-.5-4.9-1.3-1.3-.7-2.4-1.1-2.4-1m-19 .3c-11.4 2.1-16.6 12-12.5 23.9 4.4 12.7 21.4 18.4 32.8 11 13.6-8.8 8.5-30-8.3-34.4-2.2-.6-9.7-.9-12-.5m11.3 2.7c19.8 5.1 17.8 33.2-2.3 33.1-11.8 0-19.9-7.5-20.6-19-.7-10.7 10.2-17.4 22.9-14.1m-6.9 2.7c.2 1.4-.1 1.2 2.5 1.4 2.2.1 2.2.1 2.5-.5.5-1.4.3-1.5-3.3-1.9l-1.9-.2.2 1.2m-4.9-.2c-2.3.8-2.3.8-1.4 1.8l.8.8 2-.5c2.1-.5 2.1-.5 1.7-2.1-.2-.8-.8-.8-3.1 0m30.5 1.6L273 243l1.4 2.2c2.8 4.3 3.2 6.2 2.5 10.3l-.2 1.1h1.4c.8 0 1.8-.1 2.3-.2l.8-.2-1-.5c-2.1-1-2.1-1-1.9-6.4.1-2.2 0-2.4-.9-4.5l-1-2.2.3-2c.3-2.4.5-2.4-1.8.2m-18.9-.3c-.1.5-.1.8-.1.9.1 0 1 .5 2.1 1.1l2 1 .7-.7c.8-.8.7-.9-2-2.3-2.1-1.1-2.5-1.1-2.7 0m-16.8 1.6c-1.2 1.1-2.8 3-2.8 3.4 0 .6 2.2 1.1 2.5.6.1-.3.9-1.2 1.8-2l1.5-1.5-.9-.9-.9-.8-1.2 1.2m22.6 1.9l-.6.6 1.1 1.8c.6 1 1.1 2 1.1 2.2 0 .4.2.4 1.4.1.5-.2 1.1-.3 1.3-.4.4-.1-.4-1.6-2-3.6-1.3-1.5-1.5-1.6-2.3-.7m-19.7 1.4c-1.2.9-.5 3.3 1 3.3.8 0 1.9-1 1.9-1.7 0-1.5-1.7-2.4-2.9-1.6m15.4 2.2c-1.4 1.4.4 3.6 2 2.5 1.2-.8.5-3.1-.9-3.1a3 3 0 0 0-1.1.6m-21.8 2.3c.2 2.9.3 3.1 1.7 2.9l1-.2-.2-1.2c-.1-.7-.2-1.6-.2-2.2 0-.9-.1-1-.9-1.4-1.6-.7-1.6-.7-1.4 2.1m13-2c-3.8 2.6-2.5 8.1 1.8 8.1 5.5 0 5.8-8.1.4-8.6-1-.1-1.5 0-2.2.5m-25.8 1.8c-.3.7 4.8 10.3 5.2 9.9.1-.1-1.1-8.3-1.4-9.7-.2-.8-3.5-1-3.8-.2m42.6.5l-1.2.4v6l1.1.4 1.2.4.3-.7c.5-1.4.7-3.5.5-5.1-.4-1.8-.5-1.8-1.9-1.4m-28.2 4.3c-.8.2-.8.7.4 2.9 1.2 2.4 1.2 2.4 2.3 1.7 1.1-.7 1.1-.6.4-1.6-.3-.4-.8-1.3-1.1-2-.5-1.2-.7-1.3-2-1m25.1 4.6c-.4.6-1.2 1.4-1.7 1.9l-.9.8.7 1.3.7 1.3 1.5-1.4c1.5-1.4 3.1-3.4 3.1-3.9 0-.2-2.1-1.1-2.5-1.1-.1 0-.5.5-.9 1.1m-13-.2c-1.4 1.1-.2 3.6 1.5 2.9 1.4-.5 1.6-2.6.3-3.2-.9-.4-1-.4-1.8.3m26.1 1.5c-.5 3.6-1 4.8-3.5 8.3-1.5 2.1-1.3 2.1.9-.1 1.8-1.8 2.4-2.6 3.6-4.9 1.2-2.4 1.6-2.9 2.7-3.6 1.6-1.1 1.7-1-1.1-1h-2.4l-.2 1.3m-34.5 0c-1.1.7-1 1 1.3 2.8 2.2 1.7 2.1 1.7 2.9.3.6-1.1.6-1.1.1-1.4-.3-.2-1.1-.7-1.8-1.3-1.4-1.1-1.4-1.1-2.5-.4m90.5.8c-1 .3-2.5.8-3.2 1.1l-1.3.6 1.3.2c9.3 1.6 11.1 3.8 10.4 12.9-.2 2.8 0 2.5.8-1.1 2.4-10.7-.5-15.7-8-13.7m-74.9 2.2c-.7.3-1.6.5-1.9.5-.7 0-.7.1-1 1.7l-.2 1 1.6-.2c3.6-.4 4.6-1.1 3.9-2.6-.6-1.1-.6-1.1-2.4-.4m-9.9.9c-.8 1.3-.8 1.3.9 1.8 2.4.7 4.2.6 4.2-.4 0-.4.1-.9.1-1.2.1-.3-.3-.4-1.7-.7-1-.2-2.1-.4-2.4-.5-.3.1-.5.2-1.1 1m-11.9 5.6c.2.3.8 1 1.3 1.6.9 1.1 1 2.1.4 3.7-.2.6.7-.7 1.7-2.3l.6-1-1.3-.7c-.7-.4-1.7-1-2.2-1.3-.8-.5-.9-.5-.5 0m29.2 4.4c-3.2 1.3-3.2 1.3-2.8 2.2l.3.7.9-.9c.5-.5 1.7-1.4 2.7-1.9 2.6-1.5 2.5-1.5-1.1-.1m-21.6.3c-.3.8-.9 3.8-.8 3.9.1.1.7-.2 1.4-.6l1.3-.7 4.2.2c3.5.1 4.5.1 6.4-.3l2.3-.5-1.7-.2c-1-.1-2.9-.2-4.4-.3-2.2-.1-6.2-.9-8-1.6-.4-.2-.6-.1-.7.1M157 304.2c-15.8 15.9-28.2 28.4-27.6 27.9.6-.5 5.2-4.8 10.3-9.6 5.1-4.8 9.5-8.9 9.8-9.2l.6-.5v.9c0 .9-.4 1.4-4.8 6.1-2.7 2.8-5.4 5.8-6.1 6.5l-1.2 1.3 1.6-1.4c.9-.8 4.1-3.7 7.1-6.5l5.5-5.1v-3.2l10.9-9.8 10.9-9.8.2 1.1.2 1.1-4.6 4.6c-5.2 5.1-5.3 5.3-4.8 8.3l.3 1.6-13.7 12.4c-12.1 11-15.2 13.9-13.1 12.2 6.7-5.4 52.2-42.3 52.2-42.4 0-.1-.4.1-.9.5-3.7 2.8-21.9 16-21.9 15.9 0-.1-.2-.7-.3-1.5l-.2-1.4 9.6-9.3c5.3-5.1 9.6-9.3 9.6-9.4 0-.1-1.1.8-2.5 2-9 7.5-11.6 5.8-3.4-2.2 2-1.9 6.4-5.9 6.8-6.1.1 0-1.8-3.8-1.9-3.8L157 304.2m104.6-25.8c.1.6.3 1.2.4 1.3.2.2.3.1.1-.6-.2-1.4-.7-2-.5-.7m-27.4.2c.6 1.2 3.9 4.2 6 5.4 1 .6-.8-1.4-3.1-3.5l-2.7-2.5c0-.1-.2-.2-.3-.2s-.2.3.1.8m76.3 2.8c-5.2 5.4-6.8 12.2-4.5 18.6 1.2 3.2 6.3 2.9 13.9-.7 1.8-.8 2.4-1.4.8-.8-1.6.6-5.1.4-6.7-.4-4.6-2.4-5.9-9.7-2.9-16.1 1.3-2.4 1.2-2.4-.6-.6m27 2c-1 .3-2.7 1.2-3.6 2l-.8.7.7.1c.4.1 2.2.4 4.1.7 4.7.8 8.9 2.5 25.7 10.7 3.9 1.9 7.1 3.4 7.1 3.3.1-.1-12.5-7.9-19.4-12-9.3-5.5-11.3-6.3-13.8-5.5m-96.5 1.4c.1.1.5 1.1 1 2.1s1.4 3.1 1.9 4.5c1.2 3.1 1.3 3 .4-.3-.8-2.8-2-5.4-2.8-6.1-.4-.2-.6-.3-.5-.2m95.4 9.3c.1.1 19.9 7.6 22.5 8.6l.5.2-.5-.4c-1.7-1.3-14.1-6.6-18.1-7.8-1.9-.6-4.7-.9-4.4-.6M.6 296.6c4.9 6.9 22 14.4 47 20.5 16.9 4.1 21.3 4.5 49.2 4.5 22.8-.1 26.1.1 28.8 1.8l.9.5v-.7c0-2.1-1.7-5.6-3.2-6.5-1.9-1.1-8.1-1.2-35.2-.5-15.8.4-21.1.1-33.4-2.1-25.4-4.6-42.3-10.2-54-17.8l-.7-.5.6.8M17 312.4c35.7 19.5 54.3 26.6 81.6 31.4 9.4 1.6 9.2 1.5-2.4-1.5-9.8-2.5-17.2-4.5-20.9-5.6-3.5-1.1-26.4-9.8-26.2-10 0 0 4.3 1.3 9.5 2.9 20 6.2 38.8 11.2 46.1 12.4l1.1.2v-2.5c0-2.6.4-4.8 1.3-6.8l.5-1.1-1.5.2c-8.9 1.2-29.1-.9-41.7-4.2-6.2-1.6-41.1-13.5-49.4-16.8-1.9-.9-1.1-.3 2 1.4m100.8 13.8c-6.4 1.5-10.5 7-10.4 14 0 2.8.8 6.8 1.1 5.6.1-.4.3-1.4.6-2.4 1.1-4.7 1.8-5.8 3.7-5.2 4.8 1.4 9.1-2.3 8.3-7.1l-.3-1.5 2.6-1.3c1.4-.7 2.6-1.3 2.6-1.4 0-.8-5.8-1.3-8.2-.7m255.6 6.2c-.8 1.2-25.1 14.1-59.6 31.6-8.7 4.4-15.8 8-15.7 8.1.2.2 19.8-7.6 37.1-14.7 22.7-9.3 37.8-16.2 38.4-17.5.6-1.3.4-8.5-.2-7.5m-235.1 6.1c-21.1 7.2-23.2 7.9-23.1 8 0 0 5.2-.9 11.4-2.1 6.2-1.2 11.4-2.1 11.4-2 .2.4-.6 1.6-1.3 2.2-2.1 1.6-27.9 5.5-44.5 6.8-23.5 1.8-55.7-1.1-80.9-7.2-3.6-.9-3.5-.7.6 1.2 23.4 11.1 42.6 15.8 64.5 15.7H82l-16.1-3.3-16.1-3.3h17.1c32.3-.1 41.9-.9 60.7-5.2 10.7-2.5 13.6-.5 8.2 5.5-2.6 2.9-5.8 4.3-15.1 6.8-3.5.9-3.5 1-.2 1.4 7.1.9 11.2-.2 16.4-4.4 6.3-5 11.6-15.3 11.6-22.6-.1-1.1 1.1-1.4-10.2 2.5"/></svg>