<?xml version="1.0" encoding="utf-8"?>
<!-- Generator: Adobe Illustrator 22.1.0, SVG Export Plug-In . SVG Version: 6.00 Build 0)  -->
<svg version="1.1" id="svg" xmlns="http://www.w3.org/2000/svg" xmlns:xlink="http://www.w3.org/1999/xlink" x="0px" y="0px"
	 viewBox="0 0 410 410" style="enable-background:new 0 0 410 410;" xml:space="preserve">
<g id="svgg">
	<path id="path0" d="M105.4,16.2c-2.5,4.3-3.1,5.3-5.3,8.3c-3.2,4.4-3.5,4.3-3.7-1.1c-0.1-1.8-0.2-3.3-0.3-3.3
		c-0.1,0-0.2,0.1-0.2,0.2c0,2.8-2.6,11.7-4,13.7c-0.3,0.4-0.6,1-0.7,1.3c-0.5,1.8-1.4-1.9-1.5-6.6c0-1.4-0.1-1.3-0.4,0.9
		c-0.6,4.3-1.6,8.4-2.3,9.3l-0.6,0.9l-0.4-0.6l-0.4-0.6l-0.3,0.7c-0.1,0.4-0.3,1.2-0.4,1.7c-0.2,1.2-1.6,3.9-2,3.9
		c-0.2,0-0.6-0.7-1-1.5L81,41.9l-0.2,2c-0.8,8-2.2,8.5-3.7,1.3c-0.3-1.4-0.5-2.3-0.6-2s-0.1,1.7-0.3,3.1c-0.1,1.4-0.4,3.7-0.5,5.1
		c-0.4,3.9-0.9,4.4-1.9,2.3c-0.8-1.6-0.9-1.5-1.1,0.6c-0.6,6.6-0.6,6.6-1.6,6.4c-0.9-0.2-2-2.6-2.3-5l-0.2-1.7l-0.2,1.2
		c-0.1,0.7-0.4,3.1-0.6,5.3c-0.5,5.3-1,6-1.5,2.4l-0.3-2l-0.3,1.5c-1.7,8-2.3,9.5-3.1,7.5c-1-2.5-0.9-2.5-1.3,0.7
		c-0.3,3.1-0.7,4.3-1.6,4.8c-0.6,0.3-1.1-0.1-1.1-1c0-0.9-0.4-0.5-0.6,0.6c-0.2,1.3-1.5,4.1-1.9,4.1c-0.6,0-1.5-4.2-1.5-6.7
		c0-1.6-0.1-2.1-0.3-1.9c-0.1,0.2-0.3,0.9-0.3,1.6c0,2.4-2.4,13-3.3,14.9l-0.6,1.2l-0.6-1.1c-0.3-0.6-0.6-1.4-0.6-1.8
		c0-1.4-0.4,0-0.8,2.6c-0.9,7.2-2.9,6.3-3-1.4c0-2.4,0-2.4-0.2,1.1c-0.4,6.7-0.8,10.8-1.5,13.8c-0.4,1.6-0.6,3.1-0.6,3.3
		c0,0.4,1-0.8,1.1-1.2c0-0.1,0.5-0.8,1-1.5s1.5-2,2.1-2.8c0.6-0.9,2.5-3.6,4.4-6c1.8-2.4,6-8.5,9.3-13.5c3.3-5,7.9-11.5,10.1-14.5
		c2.3-3,5.2-7,6.5-8.9c3-4.4,6.9-9.6,12.7-16.8c0.6-0.7,1.6-2,2.2-2.8c2.3-3,4.6-5.8,6.3-7.5l1.7-1.8l-0.2,0.9
		c-0.1,0.5-0.7,2.5-1.3,4.3c-1.2,3.8-1.8,5.9-3.7,13.7c-0.7,3-1.6,6.5-1.9,7.7c-1.3,5.4-5.4,17.3-9.7,28.7c-3.3,8.5-3.6,9.4-3.6,10
		c0,0.3-0.5,1.9-1.2,3.7c-1.2,3.1-3.2,10.1-3,10.3c0.1,0.1,0.7-0.6,1.4-1.5c0.7-0.9,1.6-1.9,1.9-2.2c0.3-0.3,1.2-1.3,2-2.3
		c1.5-1.8,5.3-6,9-9.8c2.2-2.2,2.4-2.9,0.5-1.4c-2.8,2.3-6.2,3.8-6.2,2.7c0-0.3,1.6-2.5,3.4-4.4c5.4-6.1,5.9-6.7,3.7-4.9
		c-7,5.7-3.4-0.5,6.1-10.6c3.6-3.8,3.7-3.9,1.8-2.4c-1.1,0.9-3,2.3-4.2,3.1c-1.2,0.8-2.3,1.6-2.3,1.8c-0.3,0.4-0.8,0.3-1.1-0.3
		c-0.4-0.6,1.2-3.5,3.4-6.3c2-2.5,2-2.6,0.6-1.6c-3.4,2.3-3.3,0.5,0-2.9l1.8-1.9l-0.9,0.1c-2.1,0.2-1.4-1.1,2.9-5.5
		c2.1-2.2,3.3-3.6,2.7-3.1c-0.6,0.4-2,1.4-3.2,2.2c-1.2,0.8-2.2,1.6-2.3,1.8C96.1,58.1,95,57.8,95,57c0-1.2,1.7-3.4,6.1-7.9
		c2.3-2.3,4-4.2,3.8-4.2c-0.4,0-2.5,1.6-3.8,2.8c-1.3,1.2-3.2,1.9-3.2,1.2c0-0.4,2.1-3.6,3.4-5c1-1.2,0.9-1.2-0.7,0
		c-0.9,0.7-2.1,1.4-2.3,1.4c-0.1,0,0-0.2,0.1-0.5c0.1-0.3,0.4-0.9,0.6-1.4c0.4-1,3.5-5.2,5.7-7.7c1-1.1,0.7-0.9-1.4,1
		c-3.5,3.3-4.3,3.4-2.6,0.4c0.9-1.6,0.9-1.7,0.3-1.1c-0.6,0.6-0.7,0.6-0.9,0.2c-0.2-0.6,0.2-1.3,2.8-4.6c1.2-1.6,2.9-3.6,3.6-4.6
		l1.3-1.7l-1.9,1.8c-3.1,3-4.1,2-1.5-1.4c1.5-1.9,1.5-1.9,0.5-1.2c-1.8,1.4-1.8,1.4-1.6,0.1c0.4-2.4,1.5-6.1,2.4-8.1
		C106.9,13.7,106.8,13.7,105.4,16.2 M297.9,15.3c0.4,0.3,1.7,1.1,3.1,1.9c4.2,2.4,8.6,5.5,9.1,6.4l0.4,0.8l-1.3,0
		c-1.6,0-1.1,0.6,1.1,1.1c3,0.7,7.1,2.9,6.6,3.6c-0.3,0.4-4.6,0.4-6.7,0c-0.5-0.1,0.8,0.5,2.9,1.3c6.7,2.5,7.7,2.9,7.8,3.5
		c0.1,0.5,0,0.5-1.4,0.3c-2-0.2-2-0.1,0.1,0.7c5.7,2.1,7.2,3.7,3.1,3.3c-5.2-0.5-5-0.5-4.2,0c0.9,0.5,3.8,1.5,6.8,2.4
		c5.8,1.6,7.1,2.1,8.2,2.7c1.6,0.9,1.4,1-0.9,0.8c-2.6-0.2-2.5-0.2,0.9,1.2c5.3,2.1,5.8,3.6,0.6,2.1c-4.9-1.4-4.3-0.5,0.8,1.1
		c7.1,2.2,11.1,5.1,5.1,3.7c-2.2-0.5-3.7-0.7-3.4-0.3c0.3,0.3,9.1,3.2,11.4,3.8c1.1,0.3,2.8,0.9,3.6,1.3c3.1,1.5,5.4,2.3,5.4,1.6
		c0-0.3-3.8-3.4-8.6-6.9c-3.7-2.7-8.8-6.8-11.8-9.5c-2.5-2.2-4.8-4.1-8-6.6c-1.6-1.3-5.2-4.5-7.9-7.1c-6.1-6-6.6-5.8,5.8-2.5
		c10,2.7,14.5,4.1,21.6,6.9c1,0.4,4.7,1.7,8.3,2.9c3.5,1.2,7.5,2.6,8.9,3.1c1.4,0.5,3.2,1.1,4.1,1.2c0.9,0.2,3.5,1,5.9,1.9
		c6.9,2.6,11,3.9,11.8,3.9l0.8,0l-0.9-0.6c-0.5-0.3-1-0.7-1.1-0.8s-2.5-1.2-5.4-2.5c-6.9-2.9-13.5-6.9-18.1-10.9
		c-2-1.7-1.6-0.8,1,2.1c2.6,2.9,2.2,3.4-0.8,0.9c-1.6-1.3-1.8-1.2-0.7,0.3c2.4,3-2.3,0.7-6.6-3.2c-2.4-2.2-3.9-3.3-3.9-2.9
		c0,0.2,2.3,2.5,3.7,3.8c0.5,0.4,0.6,0.6,0.4,0.8c-0.6,0.7-3.6-1.2-6.6-4c-2.5-2.4-3.4-3.1-3.4-2.5c0,0.1,0.7,0.9,1.5,1.7
		c3.9,3.9-1.5,1.4-8.8-4.1c-2.2-1.6-2.9-2.1-2.2-1.4c4.4,4.7,3.1,5.6-1.7,1.1c-1.7-1.6-1.9-1.5-0.6,0.3c1.1,1.5,1.1,1.6,0.2,1.3
		c-0.4-0.1-1-0.3-1.4-0.4c-0.4-0.1-1.7-0.9-2.9-1.8l-2.3-1.6l1.5,1.5c0.8,0.8,1.5,1.6,1.5,1.7c0,0.7-5.3-1.7-8.3-3.7
		c-1.4-1-1.5-1-1.5-0.4c0.2,1.7-5.9-0.1-10.3-3.1c-2.9-2-3.3-1.4-0.4,0.7c3.2,2.4,2.2,2.8-2,0.8c-1.2-0.5-2.9-1.3-3.7-1.6
		c-0.9-0.3-2.7-1.1-4.1-1.7C297.3,14.7,297,14.6,297.9,15.3 M262.1,26c-1.2,0.3-1.6,0.5-0.7,0.6c0.7,0-0.9,0.3-3.9,0.8
		c-1,0.1-3,0.4-4.4,0.7c-1.4,0.2-4.1,0.6-6,0.8c-3.1,0.4-4.7,0.7-11.2,2.5c-0.9,0.2-1.4,0.5-1.2,0.5c0.2,0.1,1.8-0.3,3.5-0.7
		c3.2-0.9,6.8-1.4,13.3-1.9c2.1-0.2,4.5-0.5,5.3-0.7c3.8-1.1,8.9-0.7,13.7,1c3.8,1.3,4.3,1.5,6.1,2.7c0.8,0.5,2.7,1.7,4.1,2.6
		l2.7,1.6l-1.2-1.2c-0.7-0.7-1.9-1.7-2.8-2.3c-4.7-3.1-4.6-3-3.7-2.8c1.3,0.2-2.8-1.6-5.2-2.3l-2.2-0.7l2.4,0c4.7,0,10,2,14.5,5.6
		l2,1.6l-2.2-2.1c-1.5-1.5-2-2.1-1.5-1.9c1.8,0.7,5.3,3.8,7.4,6.4c1.1,1.4,1.4,1.2,0.4-0.3c-1.3-1.9-3.7-4.6-4.7-5.2
		c-0.5-0.3-0.8-0.6-0.8-0.6s1,0.5,2.1,1.2c8.1,5.5,11,16.3,6.7,25.1c-1.2,2.5-1,2.8,0.4,0.4c6.8-11.7-1-28.4-14-30.3
		c-1-0.1-3-0.4-4.5-0.7C273.5,25.9,263.8,25.6,262.1,26 M323,27.5c0.5,0.4,9.7,7.9,20.4,16.6c22.5,18.3,19.3,16.4,26.8,16.2
		c5.1-0.1,5.3-0.2,6.4-2.3c0.9-1.7,3.1-4.3,3.7-4.3c1.9,0,6.5-3.6,5.6-4.4c-0.1-0.1-62.4-22.2-63.3-22.5
		C322.2,26.8,322.4,27,323,27.5 M235.5,27.2c-0.1,0.1-2,0.4-4.4,0.7c-2.3,0.3-4.5,0.8-4.8,1c-0.3,0.2-2.8,1.1-5.5,2
		c-8.3,2.8-19.8,8.3-23.1,11.1l-0.8,0.7l1.1-0.6c3.9-2.2,5.1-2.9,5.7-3.1c1.3-0.3,1.6-0.4,2-0.8c2.3-2.3,17.7-8.2,24.2-9.2
		c1.8-0.3,4.1-0.7,5.1-0.9s2.1-0.4,2.4-0.4c0.3,0,0.8-0.1,1-0.3c0.3-0.2-0.1-0.3-1.2-0.3C236.4,27.1,235.6,27.1,235.5,27.2
		 M208.7,30.4c-8.6,1.8-23.7,8.8-31.5,14.6c-14.3,10.6-22.2,17.9-26.7,24.6c-2.8,4.1-2.8,4.2-0.3,1.2c4.1-4.9,11.7-13,12-12.7
		c0.1,0.1-0.9,1.3-2.1,2.7c-1.2,1.4-2.5,2.9-2.8,3.3c-0.8,0.9,1.6-1.2,5.8-5.1c3.7-3.5,8.5-7.6,8.5-7.4c0,0.1-1.6,1.5-3.5,3.2
		c-5,4.4-15.1,15.1-15.1,16c0,0.1,1.1-1,2.5-2.3c13-13,23.2-21.6,32.2-27.2c2.1-1.3,3.7-2.4,3.6-2.5c-0.3-0.3-2.9,0.9-6.8,2.9
		c-2.3,1.2-4.1,2.1-4.2,2c-0.4-0.4,6.7-4.4,11.2-6.3c1.7-0.7,3.9-1.7,4.7-2.1c1.9-1,2.1-1,1.1-0.1c-1.2,1-0.4,0.8,2.1-0.7
		c2.8-1.6,4.2-2.2,8.7-3.3C213.7,29.7,214.2,29.2,208.7,30.4 M258.5,30c-3.7,0.3-14.1,3-12.3,3.2c0.1,0,1.5-0.3,3.1-0.7
		c2.9-0.7,8.8-1.2,7.7-0.7c-0.3,0.1-0.9,0.3-1.3,0.3c-1.2,0-7.2,1.3-9.7,2.1c-1.3,0.4-3.2,0.9-4.4,1.3c-2.2,0.6-10,3.3-10.2,3.5
		c-0.7,0.7,2.2,0.2,6.1-1.1c1.5-0.5,3.3-1,4-1.1c0.7-0.1,2.7-0.7,4.5-1.4c3.1-1.1,3.6-1.2,7-1.4c4.3-0.3,4.8-0.4,2-0.7
		c-1.1-0.1-2-0.3-2-0.5c0-0.3,4.2-0.1,6.1,0.4c0.7,0.1,1.6,0.2,2.2,0.1c2.2-0.4,8.7,1.3,12.3,3.1c8.6,4.3,13.2,9.8,13.1,15.7
		c0,2.9,0.1,3.1,0.8,1c0.4-1,0.4-1.6,0.3-2.7c-0.1-0.8-0.2-1.9-0.3-2.6c-0.1-3.1-3.3-7.2-7.1-9.3c-0.8-0.5-1-0.5-0.8-0.2
		c0.6,0.8-0.2,0.5-1.9-0.6c-3.8-2.6-10.5-4.9-16-5.5c-1.4-0.2-2.1-0.4-1.6-0.7c1.5-0.9,12.1,1.5,17.3,4c4.1,1.9,3.4,0.8-0.8-1.3
		c-2.9-1.4-6.2-2.5-8.8-3c-1.6-0.3-1.7-0.4-0.8-0.4c1.6,0,4.9,0.9,8.5,2.3c0.3,0.1,0.5,0.1,0.3-0.1c-0.1-0.2-1.3-0.7-2.8-1.1
		c-1.4-0.5-2.9-1-3.3-1.2C268,29.8,264.3,29.6,258.5,30 M278.2,31.2c0,0.1,0.7,0.5,1.5,1.1c2,1.2,4.2,3.4,6.3,6.2
		c0.9,1.2,2,2.6,2.5,3.1c1.5,1.7,2.3,3.5,2.4,5.9c0.1,2.1,0.4,2.7,0.8,1.4c1.2-4.7-5.1-13.5-12.4-17.2
		C278.7,31.3,278.2,31.1,278.2,31.2 M210.5,33.9c-0.4,0.2-0.5,0.4-0.4,0.4c0.1,0,0.6-0.2,0.9-0.4c0.4-0.2,0.5-0.4,0.4-0.4
		C211.3,33.5,210.8,33.7,210.5,33.9 M263.7,34.4c0.6,0.2,1.6,0.4,2.3,0.5c1,0.1,1,0.1-0.5-0.4c-1-0.3-2-0.5-2.3-0.5
		C262.8,34,263.1,34.2,263.7,34.4 M206.3,35.7c-1.6,0.8-4,2-5.2,2.7c-1.2,0.7-3.7,2.1-5.4,3.1c-10.3,5.9-22.7,17-27.9,24.8
		c-1.1,1.7-2.8,4.2-3.7,5.6c-1.5,2.3-4.4,7.7-4.4,8.2c0,0.2,1.4-2.1,3-5c0.5-1,1.4-2.2,1.9-2.8l1-1.1l-1.3,2.4
		c-3,5.7-4.2,8.6-3.8,9.3c0.2,0.4,0.4,0.3,1.5-1.6c1.4-2.4,5.8-8.8,6.9-10.2c0.4-0.5,2.2-2.8,4-5.1l3.3-4.1l-4,4
		c-2.2,2.2-4.9,5.3-6.1,6.8c-2.5,3.3-2.6,3.4-1.7,1.9c0.7-1.3,4.5-6.4,6.1-8.2c3.6-4.1,10.6-11.4,13.6-14.1c2-1.8,4-3.6,4.5-4.1
		c4.1-3.8,10.4-8.2,17.4-12C210.4,33.9,210.4,33.8,206.3,35.7 M230.1,36.9c-3.4,1-7.8,2.5-9.7,3.3c-3.7,1.6-8,3.2-8.2,3
		c0-0.1,0.7-0.7,1.6-1.4c2.1-1.6,2.4-1.9,1.7-1.6c-0.8,0.3-7,3.8-9.1,5.2c-2.3,1.6-2.5,1.7-2.5,1.5c0-0.2,4.6-3.6,5.9-4.4
		c0.6-0.3,1-0.7,1-0.7c0-0.4-7.9,4.4-10.3,6.3c-2.3,1.8-2.9,2-1.3,0.4c3.8-3.6,13-9.2,20.2-12.1c2.6-1.1,2.5-1.3-0.1-0.4
		c-1.1,0.4-2.3,0.8-2.8,0.9c-0.5,0.1-1.9,0.9-3.2,1.7c-1.3,0.8-3.8,2.3-5.5,3.3c-12.1,6.8-21.8,16.1-28.4,27.2
		c-1.9,3.1,0.3,1.2,2.7-2.4c2.9-4.3,5.5-7.4,8.5-10.4c3.9-3.8,4.1-3.4,0.4,0.4c-2.3,2.4-5.8,6.8-7.1,8.9c-0.6,1,0.3,0,2.6-2.8
		c1.4-1.7,4-4.6,5.8-6.3c3.6-3.5,3.4-3-0.6,1.2c-5.9,6.4-5.8,6.9,0.1,1.1c6.5-6.3,9.8-9,14.7-11.9c3.2-1.9,2.9-1.5-0.7,1
		c-4.2,2.9-6.1,4.4-7.8,6c-1.2,1.1-1.2,1.2-0.3,0.6c0.6-0.4,2.2-1.5,3.6-2.3c1.4-0.8,3.7-2.3,5.2-3.3c6.2-4.1,16.4-8.7,24.8-11.1
		c3-0.9,6.8-2.3,7-2.6C238.5,34.7,235.7,35.3,230.1,36.9 M249.8,36.6c-3.7,0.2-7.6,0.7-8.8,1.1l-1.3,0.4l1.9-0.1
		c15.8-1.1,20.2-0.8,27.2,1.9c0.4,0.1,0.5,0.1,0.3-0.1C267.3,37.9,256.6,36.1,249.8,36.6 M243.9,39c-9.9,1.3-16.9,2.8-22,4.8
		c-6,2.4-15.9,7.6-18.7,9.9c-0.7,0.6-2.5,2-4,3.2c-3.3,2.6-9.9,8.9-9.7,9.1c0.1,0.1,0.7-0.4,1.4-1c8.6-8.1,22.6-17.3,30.3-19.8
		c4.4-1.4,7.6-2,4.3-0.8c-1,0.4-3,1.1-4.4,1.6c-2.6,1-7.7,3.6-7.3,3.8c0.1,0,1.1-0.3,2.1-0.8c12.9-5.9,27.8-7.9,40.1-5.3
		c3.1,0.7,3.5,0.7,1.6,0c-5.9-2.1-14.9-2.7-24.1-1.6c-3,0.4-3.8,0.3-2.3-0.1c7.8-2.4,19.8-1.7,28.9,1.5c2.1,0.7,4.5,1.5,5.3,1.7
		c3.2,0.8,3.7,1,5.3,2.2c0.9,0.6,1.6,1.1,1.7,1c0.2-0.2-2.4-2.3-3.7-3c-6.9-3.3-9.2-4.1-14.1-5.2C249.7,39,246.6,38.7,243.9,39
		 M91.3,44.5c-1.7,2.2-6.9,9.2-11.6,15.5S67.6,76.2,63.3,82c-4.3,5.8-9.6,12.8-11.6,15.6c-2,2.8-4.3,5.7-5.1,6.6
		c-2.1,2.5-2.2,2.7-1.4,4.1c0.6,1,0.7,1.2,1.3,1c3.7-0.9,10.6-0.3,13.4,1.1c1.4,0.7,3.7,0.8,6.1,0.3c1.8-0.4,5.6-1.8,5.7-2.2
		c0.1-0.2,5.2-15.5,11.5-34.1c6.3-18.6,11.3-33.9,11.3-33.9C94.3,40.5,92.9,42.2,91.3,44.5 M300.3,42.6c0,0.1,0.2,0.7,0.4,1.3
		c1.2,3.4,1,8.4-0.6,13.5c-0.1,0.3,0.2-0.1,0.6-0.8c0.9-1.6,1.4-4.3,1.5-6.8c0-2.8,0.6-1.8,0.7,1.3c0.4,6.6-4.4,13.7-10,14.9
		c-1.3,0.3-1,0.7,0.3,0.5c8.7-1.4,14-15.4,8.4-22.3c-0.3-0.4-0.7-0.9-0.9-1.2C300.5,42.6,300.4,42.5,300.3,42.6 M235.5,44.7
		c-5.1,0.3-11.2,2.3-16.8,5.2c-3.8,2-3.2,2.1,0.9,0.1c8.6-4.1,12.5-4.9,24.2-4.7c7.5,0.1,8.2-0.1,2.1-0.7
		C242.5,44.4,240.2,44.4,235.5,44.7 M191.6,46c-1.1,0.8-1.4,1.1-0.8,0.8c0.7-0.4,1.9-1.4,1.7-1.4C192.5,45.5,192.1,45.7,191.6,46
		 M239,46c-7.7,1.6-11.1,2.7-17.7,5.8c-2.1,1-4.3,2-5,2.2c-0.7,0.3-2.5,1.3-4,2.2c-1.5,0.9-3.9,2.4-5.3,3.2c-3.4,2-11.4,8.3-11,8.7
		c0.1,0.1,0.9-0.5,1.8-1.2c4.6-3.6,14.6-9.9,15.8-9.9c0.1,0,2.8-1.3,6-2.8c6-2.9,12.8-5.6,16.6-6.6c2.2-0.6,4.5-1.4,4.5-1.7
		C240.6,45.7,240.6,45.7,239,46 M181.9,47.2c-4.1,2.3-14.2,10.9-17.3,14.8l-0.9,1.2l1.3-1.2c1.9-1.8,1.5-1.1-0.6,1.3
		c-1.5,1.7-5.4,6.5-8.9,11.2c-1.5,2.1,0.8-0.5,3.5-3.8c7.2-8.8,15.5-16.8,23.9-22.9C185.2,46,184.7,45.7,181.9,47.2 M190.1,48.6
		c-1.6,1.1-8.4,6.8-9.9,8.4c-1.6,1.6-1.3,1.5,4.8-3.5C190.4,49.1,192.9,46.7,190.1,48.6 M257.5,50c-5,0.3-12.4,1.6-15.3,2.6
		c-6.7,2.4-10.7,5-12.3,8.2c-0.3,0.6-1.1,1.9-1.7,2.8c-3.1,4.7-3.8,9.3-2.1,12.5c0.8,1.4,2,2.7,1.6,1.7c-1.3-3.2-1.3-3.2-1.1-5.5
		c0.2-3.9,0.8-4.8,1-1.5c0.1,2.6,0.6,4.1,1.3,4.3c0.3,0.1,0.3-0.1,0.1-0.6c-1.2-4.3,0.5-11.4,3.6-14.9c1.1-1.3,1.4-1.3,0.4,0
		c-1.8,2.3-1.7,2.5,0.4,0.6c3.9-3.6,4.7-4.3,6.9-5.3c1.2-0.5,2.3-1.1,2.5-1.3c0.4-0.3,2.3-0.9,3-0.9c0.2,0-1.1,0.8-3,1.8
		c-5.8,3.1-9.1,6.4-11,11.2c-0.8,2-0.4,2.3,0.6,0.5c3.5-6.6,14.9-14.8,20.6-14.8c1.1,0,0.6,0.4-1,0.8c-1.4,0.3-7.7,3.2-7.5,3.4
		c0.1,0.1,0.8-0.2,1.6-0.6c1.4-0.6,4.4-1.5,4.4-1.3c0,0-0.8,0.6-1.8,1.2c-1.6,1-3.9,3-3.4,3c0.1,0,0.8-0.4,1.6-0.9
		c2.4-1.6,10.5-5.1,12.5-5.5c2.4-0.4,3.4-0.3,2,0.1c-1,0.3-0.9,0.3,2,0.3c3.4,0,5.6,0.3,4.7,0.6c-0.3,0.1-1.3,0.2-2.3,0.2
		c-3.1,0-7.6,1.3-9.1,2.5c-0.6,0.5-0.6,0.5,0.7,0.1c5.8-1.8,11.9-2.2,14.8-0.9c3,1.3,3,1.2-1.5,2.2c-1,0.2-2,0.6-2.1,0.7
		c-0.2,0.2-0.1,0.2,0.4,0.1c4-1,6.5-1.1,8.4-0.1c0.6,0.3,1.3,0.6,1.5,0.6c0.8,0.2,2.8,1.9,4.1,3.6c3,4,3.9,6.6,4.8,14.1
		c0.1,0.5,0.1-0.7,0-2.7c-0.2-8.6-3.8-14.1-12.1-18.3c-1.1-0.5-2-1.1-2.1-1.2c-0.8-1.3-10-4.2-12.6-3.9
		C260.7,49.8,259.1,49.9,257.5,50 M185.5,50.6c-0.1,0.2-1.3,1.3-2.7,2.5c-2.5,2.1-6.3,5.8-10.3,10.3c-2.5,2.7-2.2,2.3,1.2-1.9
		c3.1-3.7,8.6-9,11.1-10.8C185.6,50.2,185.7,50.2,185.5,50.6 M305,51.3c-0.1,0.1,0.4,0.9,1.1,1.8c1.8,2.3,1.6,4.9-0.6,7.9
		c-1.3,1.7-0.7,2.4,0.6,0.7c0.4-0.5,0.7-0.7,0.7-0.6c0,0.8-1.1,3.5-1.5,3.8c-0.3,0.2-0.7,0.5-1,0.8c-0.9,0.6-0.3,0.7,0.9,0.1
		c4.3-2.2,5.4-10.1,2-13.6C306,51.1,305.3,50.8,305,51.3 M384.4,54.5c-7.3,2.5-8.1,8.1-1.6,11.2c2.9,1.4,3.2,1.4,6.9-0.4
		c3.1-1.5,3.3-1.5,5.4-1.6l2.2,0l-0.1-0.9c-0.2-1.4-1.8-2.9-3.1-3c-0.9-0.1-1.1-0.2-1.6-1.1c-0.7-1.2-1.8-2-3.3-2.2
		c-0.9-0.1-1.2-0.3-1.5-0.9c-0.3-0.6-1.5-1.7-1.8-1.6C385.8,54,385.2,54.2,384.4,54.5 M304.3,58.6c-1,5.5-1.6,7.1-3.8,10.1
		c-1.9,2.6-4.1,4.4-5.6,4.6c-1,0.2-4.4,1.5-4.4,1.8c0,0.4,1.3,0.6,2.7,0.3c5.2-1.1,8.7-5.1,10.8-12.4c0.6-2.1,1.2-6.3,0.9-6.3
		C304.7,56.7,304.5,57.5,304.3,58.6 M153.3,60.4c-5.2,2.7-10.6,7.7-15.1,14.2c-1.3,1.9-0.8,1.5,1-0.8c2-2.5,4.5-5.4,5.4-6.1
		c0.7-0.5,0.7-0.5-0.1,0.4c-0.4,0.5-1.7,2.1-2.8,3.6c-1.1,1.5-2.9,3.7-4,5.1c-1,1.3-1.9,2.5-1.8,2.5c0.3,0.3,1.4-0.9,3.1-3.2
		c1.8-2.6,9-10.3,11.3-12.2c0.6-0.5,1.4-1.1,1.7-1.5c0.4-0.3,1.4-1.1,2.2-1.7C156.6,59,156.4,58.9,153.3,60.4 M271,61.3
		c-3.8,1.3-4.5,1.4-16.4,1.3c-9.6-0.1-11.5,0-13.2,0.4c-1.1,0.2-2.3,0.5-2.6,0.5c-1.6,0.2-4.9,2.6-5.9,4.3
		c-1.7,2.8-0.8,8.6,1.9,11.7l0.4,0.5l-0.2-0.5c-0.1-0.3-0.5-1.4-0.8-2.4c-0.8-2.2-1.1-5-0.7-5.8c0.2-0.3,0.4-1,0.6-1.6
		c0.5-1.5,3.1-4.2,4.1-4.2c0.1,0-0.3,0.6-0.9,1.4c-1.2,1.6-2.2,4.3-2.1,5.7c0.1,0.9,0.1,0.9,1.1-1.4c1.7-4,4-6,7.9-6.7
		c0.9-0.2,1.6-0.4,1.7-0.5c0.1-0.1,3.9-0.2,8.6-0.2c10.2,0,15.5-0.7,17.8-2.5C273.1,60.6,272.8,60.6,271,61.3 M373.7,62.5
		c-1.4,2-3.6,2.5-5.7,1.5c-1.7-0.9-1.9-0.5-0.6,1c0.5,0.6,1.2,1.6,1.5,2.2c0.7,1.4,1,1.5,1.6,0.3c0.3-0.7,0.7-0.9,1.5-1.1
		c0.6-0.1,1.2-0.3,1.3-0.5c0.4-0.4,1.3-0.3,3.1,0.3c2.7,0.9,2.8,0.2,0.4-1.6c-1-0.7-1.5-1.3-1.7-1.9
		C374.8,61.6,374.4,61.5,373.7,62.5 M328.3,63.1c-0.9,0.2-4.1,0.6-9.3,1c-3,0.3-5,1-5.9,2.2c-0.3,0.5-1.6,2.2-2.9,3.9l-2.2,3.1
		l0.1,1.9c0.1,1,0.3,2.3,0.5,2.8l0.4,0.9l0-1.6c0.1-5.3,2-8.4,6.2-9.6c3.4-1,8.6-2.1,9.8-2.1c0.9,0,1.8-0.3,3-0.8
		c0.9-0.4,2.2-0.9,2.9-1c1.1-0.2,1.2-0.2,0.6-0.5C330.5,63,329.4,62.8,328.3,63.1 M357,63.5c-0.4,0.1-0.1,0.5,1.4,2
		c1.1,1.1,2,2.3,2.2,2.9c0.2,0.6,0.4,0.9,0.6,0.9c0.4-0.2,0.3-1.3-0.1-2.4c-0.4-0.9-0.4-0.9,0.1-0.9c0.3,0,0.6-0.2,0.6-0.3
		c0.2-0.7,1.6,0.5,2.3,1.9c0.8,1.5,1,1.5,1,0C365.1,64.8,360.7,62.6,357,63.5 M346.9,63.9c-2.6,0.4-3,1-1.3,2.1
		c1.5,1,2.7,2.4,3.9,4.5c0.5,0.9,1,1.5,1.1,1.4c0.3-0.5-0.3-2.6-1.3-4c-1.5-2.2,0.3-2.1,2,0.2l0.8,1.1l0-0.8c0-0.4-0.2-1.2-0.5-1.6
		c-0.5-0.9-0.3-1.2,0.3-0.5c0.2,0.2,0.5,0.4,0.7,0.4s0.4-0.2,0.4-0.4c0-1,2.1,0.7,2.9,2.4l0.6,1.3l-0.1-1.2
		C355.8,65,352.3,63.1,346.9,63.9 M337.3,67.3c-0.3,0.1-2.3,0.7-4.4,1.4c-2.1,0.7-5.1,1.5-6.6,1.8c-3.3,0.7-3.3,0.7-3.8,1.4
		c-0.3,0.5-0.3,0.5,1.1,0.5c3,0,3.5,0.6,0.8,0.9c-3,0.3-5.3,1.1-8.2,3c-1.4,0.9-2.7,1.7-2.8,1.7c-0.7,0-0.1,0.8,0.8,0.9
		c2.3,0.4,7.6,2.5,8.6,3.5c0.9,0.8,1.1,0.4,0.9-1.3c-0.2-1.5,0.5-2.3,3.3-3.5c1.2-0.5,2.6-1.3,3.1-1.6c1.5-1.1,6.2-3.3,8.4-3.9
		C345.4,70.2,344.3,65.6,337.3,67.3 M136.8,71c-4.5,3.7-5.9,5.1-5.3,5.3c0.2,0.1-0.3,0.9-1.3,2.1c-4.2,5-6.4,7.9-6.2,8
		c0.4,0.4,3.1-2.5,6.7-7.2c0.6-0.7,2.5-2.9,4.4-4.8c3.5-3.5,6.5-6.8,6.4-7C141.3,67.4,139.2,69,136.8,71 M158.2,68.9
		c-1.3,1.6-1.6,2-1.1,1.7c0.3-0.2,2.7-3.3,2.6-3.3C159.6,67.3,158.9,68.1,158.2,68.9 M398.7,68.7c-1,0.3-1.9,0.9-1.9,1.4
		c0,0.5,2.5,1.9,3.8,2.2c0.6,0.1,2.1,0.6,3.2,1.1c1.1,0.4,2.1,0.8,2.2,0.8c0.5,0-0.9-1.9-2.6-3.7C401.2,68.2,400.9,68.1,398.7,68.7
		 M259,70.1c0.1,0.1,1,0.4,2.1,0.7c4.4,1.2,10.1,4.2,12.6,6.6c1.9,1.8,4.7,6,4.7,7c0,2.4,4.6,7.1,8.2,8.5c1.9,0.7,1.8,0.6-0.6-0.9
		c-1.1-0.7-2.1-1.4-2.3-1.7c-0.2-0.3,0-0.2,0.5,0.2c2.3,1.6,6.4,3,10.9,3.6c1.5,0.2,3,0.6,3.3,0.8c0.3,0.2,1.3,0.6,2.2,0.8
		s2.1,0.8,2.9,1.2c1.8,1.1,1.6,0.8-0.3-0.6c-1.9-1.4-3.8-2.2-6.8-2.7c-4.7-0.8-13-7.8-15.8-13.3c-0.6-1.1-3.1-3.5-5.1-4.8
		c-2.4-1.6-3.1-1.8-1.2-0.3c2.3,1.8,6.1,6.1,8.9,10.1c1,1.4,2.2,2.7,4.4,4.5c3.5,2.9,3.6,3,0.9,1.9c-3.4-1.4-6.6-4.5-8.7-8.3
		c-1.9-3.4-6.8-7.9-10.7-9.9C265,71.4,258.1,69.1,259,70.1 M245.5,71.5c-3.9,0.9-5.2,1.8-7.1,5.1c-1.2,2.1-1.3,3-0.1,1.2
		c4.7-7,19.8-7.4,26.8-0.7c1.5,1.4,1.3,1.7-0.4,0.5c-1.8-1.3-5.7-3.1-5.7-2.7c0,0,0.8,0.5,1.8,1.1c4.7,2.8,7.4,5.6,11.4,12.1
		c3.9,6.3,4.5,6.6,1.7,0.9c-3.8-7.9-5.4-9.9-11.7-14.8C258.7,71.4,251.3,70.2,245.5,71.5 M152.2,76.9c-0.3,0.3-0.4,0.6-0.3,0.7
		c0.1,0.1,0.3-0.2,0.6-0.5C153,76.3,152.9,76.2,152.2,76.9 M248.9,76.6c-1.5,0.4-3.1,1.5-4.6,2.9c-2.3,2.2-2.2,0.6,0.1-2l0.6-0.6
		l-0.9,0.5c-0.8,0.5-1.5,1.2-3.9,4c-1.6,2-0.7-1,1-3.2l0.8-1.1l-0.9,0.5c-0.5,0.3-1.6,1.3-2.5,2.3c-0.9,1-1.7,1.7-1.8,1.7
		c-0.1-0.1-0.3,0.2-0.5,0.6l-0.3,0.7l-1.3-1.6c-1.7-2.1-2.4-1.9-1.3,0.3c0.7,1.4-1.8-0.6-3.1-2.5c-1.5-2.1-3.2,0.8-3,4.9
		c0.1,2.9,0.3,3.3,2.2,5.3c1.6,1.7,2.6,1.9,1.1,0.2c-0.9-1-1-1.3-0.9-2.1c0.1-1.1,0.2-1.2,0.9-0.3c0.3,0.4,1.1,1.1,1.9,1.6
		c3.9,2.5,5.4,5.3,4.6,8.9l-0.3,1.6l1.4-0.1c1.8-0.2,2.1-0.5,3.2-3.8l0.9-2.8l0.2,1.3c0.1,0.7,0.5,1.9,0.9,2.6l0.7,1.3l0.6-0.8
		c2.2-3.2,10.1-7.6,14.2-7.8c0.3,0-0.1-0.1-0.8-0.2c-0.8-0.1-1.9-0.1-2.4,0c-1.7,0.4-1.9,0.3-0.8-0.6c1.3-1.1,5.1-3,6.6-3.3
		c0.6-0.1,1.2-0.3,1.3-0.5c0.3-0.6-2.4,0.1-4.8,1.2c-1.7,0.7-3.6,1.9-6.5,4.1c-4.6,3.5-7.4,5-7.1,4.1c0.1-0.3,0-1.3-0.1-2.2
		c-0.3-1.6,0.1-2.7,0.9-2.2c0.2,0.1,7.2-3.1,7.7-3.6c0.2-0.2,1-0.7,1.8-1.1c3.1-1.8,3.9-5.5,1.5-6.7
		C253.4,76.8,250.4,76.2,248.9,76.6 M269.6,78.6c1.2,1.2,2.3,2.6,2.5,3c0.2,0.4,1,1.8,1.7,3.1c0.8,1.3,1.8,3.2,2.4,4.3
		c3.8,7.6,12.3,14.1,20,15.1c2.5,0.4,3.1,0,0.8-0.6c-2.2-0.5-6.1-2-8-3c-1.3-0.7-3-1.9-2.3-1.7c5.1,1.7,10.6,3.4,12,3.6
		c3.4,0.5,9.9,4.2,15.1,8.6c1.5,1.2,2.3,1.8,1.9,1.3c-4-4.6-12.9-10.1-18-11.2c-11.6-2.3-15.1-4.8-22.3-15.9
		c-2.4-3.6-4.1-5.9-5.9-7.5C267.1,75.6,267.2,76.2,269.6,78.6 M127.3,80.3c-2.7,2.8-5.6,6.4-5.6,6.8c0,0.4,0.1,0.2,2.3-2.5
		c1.7-2.1,2.8-3.4,5.2-5.9c0.5-0.6,0.9-1,0.8-1C129.8,77.7,128.6,78.9,127.3,80.3 M259.9,78.2c0.1,0.2,1,0.8,1.9,1.5
		c2.3,1.8,4.5,4.5,6.8,8.2c5,8.3,7.8,11.1,14.5,14.5c4.1,2.1,3.8,1.9,3.2,2.2c-0.4,0.2-1,0.1-2.4-0.4c-2.3-0.8-2.5-0.5-0.4,0.5
		c1.5,0.7,3.8,1.2,8,1.7c12,1.5,23.5,12.3,31.6,29.8c3.6,7.9,7.5,12.9,11,14.4c1.5,0.6,1.1,0-0.4-0.8c-3.1-1.6-6.5-6.4-9.4-13.5
		c-4.5-10.7-9.7-18.7-14.4-21.8c-8.5-5.6-12.7-7.8-16.6-8.4c-1.2-0.2-1.5-0.6-0.4-0.6c1.8,0,6.4,1.4,10.1,3.2c4.3,2,3.2,0.9-1.6-1.5
		c-3.1-1.6-5.2-2.2-9.4-2.9c-8.9-1.5-14.1-5.4-20.9-15.8c-3.5-5.3-5.2-6.9-10.3-9.9C260.1,78.2,259.8,78,259.9,78.2 M140.8,80.1
		c-3,0.6-5.6,1.9-7.3,3.5l-1.4,1.3l0.9,0.3c3.1,1.1,8.2,0.1,11.9-2.4c0.5-0.4,1.4-0.7,1.8-0.7c0.9,0,5.3-0.7,5.4-0.9
		C153.3,80.3,144.5,79.4,140.8,80.1 M309.1,80.8c-0.4,0.2-1.1,0.9-1.6,1.5c-0.5,0.7-1.7,1.5-2.6,2c-2.4,1.3-7.9,5.1-7.9,5.4
		c0,0.2,0.7,0.5,1.7,0.7c4.1,0.8,8.2,4.2,10.3,8.6c1.1,2.4,1.7,2.3,1.2-0.1c-0.8-3.8-3.9-7.2-8.5-9.5l-0.9-0.5l0.6-0.3
		c1.6-0.9,5.3,0.9,7.8,3.7c1.5,1.7,2.4,1.9,2.4,0.3c0-0.8,0.1-1.1,0.6-1.3c0.4-0.2,0.6-0.5,0.7-1.3c0.1-1.2,0.4-1.2,2.4-0.6
		c4,1.3,1.2-4-3.2-6c-1.2-0.5-1.4-0.7-0.9-0.9c1.9-0.7,7.8,2.7,8.4,4.8c0.4,1.5,1.1,1.3,1.2-0.3C321,83.7,312.5,79,309.1,80.8
		 M207.9,81.8c-1.4,0.3-6.7,1.4-8.5,1.9c-4.9,1.2-3.4,12.4,2.4,16.9c1.4,1.1,1.9,1.2,1.2,0.2c-1.2-1.7-3-6.2-3.4-8.3
		c-0.3-1.5,0-1.4,0.8,0.4c2.3,5.3,7.9,7,13.7,4.2c3.2-1.5,3.7-2.1,4.4-4.5c1-3.8,0-6.5-3.1-8.4l-1.4-0.8l1.2,0.2
		c1.3,0.2,4.6,1.4,6.4,2.4l1.2,0.7l-1.1-0.9C218.7,82.9,211.9,81,207.9,81.8 M162.1,82.8c-0.5,0.9-0.5,1.2-0.2,1
		c0.3-0.2,0.9-1.8,0.7-1.8C162.5,82,162.3,82.4,162.1,82.8 M192.1,83.1c-1.8,0.9-2.9,4.1-3.8,11.5c-1,7.9,7.4,18.6,18.5,23.5
		c0.7,0.3,1.5,0.8,1.9,1c0.8,0.6,1,0.6,1,0.2c0-0.1-1.6-1.4-3.5-2.9c-6.6-4.9-11.2-9.6-12.8-13c-3-6.4-2.7-19.6,0.5-19.6
		c0.8,0,0.8-0.4-0.1-0.8C192.9,82.7,192.9,82.7,192.1,83.1 M151.4,87.2c-4.4,1.6-9.5,1.9-15.6,0.8c-4.7-0.8-8.6-0.3-8.6,1.1
		c0,2.2,17.3,1.4,23.4-1C154.7,86.5,155.3,85.7,151.4,87.2 M157.8,89.3c-1.1,0.3-1.7,0.7-3.1,2.2c-1.3,1.4-2.4,2.2-4.2,3.1
		c-3.3,1.7-3.5,2-3.6,4.6c-0.1,2.1,0,2.2,0.7,3c1.1,1.1,1.1,1.1,1-1.2c-0.1-2.1,0.2-3.5,0.7-3.5c0.2,0,0.3,0.8,0.3,1.8
		c0,2.9,0.4,3.5,2.3,4.1c0.9,0.2,2.9,1.2,4.6,2c3.6,1.9,4.1,1.8,2.8-0.5c-2.9-5-1.5-11,3.2-14C164.8,89.5,161.4,88.4,157.8,89.3
		 M167.5,90c-1.2,0.4-2.8,1.3-3.4,1.9c-2.9,3.2-3.2,12.3-0.5,16.4c1.4,2.2,6.2,5.4,8,5.4c0.7,0,1.5,0.1,1.8,0.3
		c0.8,0.4,0.8,0.3-0.2-1.9c-3.6-7.6-3.5-17.8,0.2-20.9c1-0.9,1.1-0.8-1.3-1.2C170,89.7,168.5,89.7,167.5,90 M179,91.8
		c-5.2,2.6-6.2,12.1-2.2,19.6c4,7.5,5.9,9.2,12.6,11l2.3,0.6l0.3-2.6c0.2-2.2,0.4-2.9,1.2-4.5c1.3-2.4,1.2-2.8-0.2-4.3
		c-3.8-3.7-7.4-11.9-7.4-16.7l0-2.2l-1.8-0.6C181.1,91.3,180.1,91.2,179,91.8 M118.3,92c-2,0.4-7.1,2.8-9.4,4.4
		c-2,1.4-2.1,1.5-1.2,1.7c2.5,0.6,8.1,6.7,8.9,9.7c0.3,1,0.4,1.1,0.9,1c5.4-1.2,6.8-1.8,10.6-3.9c5.1-3,5-2.7,5.4-6.4
		c0.4-3.3,0.9-3.6,1.1-0.7l0.1,1.9l0.6-1.3c0.4-0.8,0.7-1.8,0.7-2.5l0-1.2l-1.9-0.5C124.2,91.8,121.1,91.4,118.3,92 M262.2,91.6
		c0,0.1-0.1,0.9-0.1,1.9c-0.3,5-3.5,7.4-10,7.5c-2.2,0-1,0.4,3.1,0.9c6.8,0.9,8.9-1.2,7.9-8.1C262.8,92.4,262.3,91,262.2,91.6
		 M256.3,92.1c-2.2,0.3-7.6,4.2-6.8,5c0.8,0.8,5.5,0.8,7,0.1c2-1,3.4-5.7,1.5-5.3C257.9,91.9,257.1,92,256.3,92.1 M232.6,93.4
		c-0.6,1.2,0,4.5,0.9,4.8c0.5,0.2,1.2-1.8,1.1-2.8C234.4,93.6,233.1,92.5,232.6,93.4 M138.3,97.1c0.2,1.9,1,3,1,1.4
		c0-2,0.8-2.1,1-0.1c0.2,2.1,1.1,1.5,1.1-0.8c0-1.4-0.3-1.7-2-1.9l-1.3-0.2L138.3,97.1 M143.1,96.9c-0.4,1.1-0.1,3.1,0.6,4
		c1.2,1.5,1.6,1.1,1.6-1.8v-2.4l-1.1-0.1C143.6,96.6,143.2,96.6,143.1,96.9 M100.4,99.6c-0.9,0.4-1.7,0.9-1.7,1
		c0,0.1-0.2,0.3-0.5,0.4c-1,0.3-0.6,0.6,1.8,1.4c2.9,0.9,5.3,3,6.9,6c0.5,1,1,1.9,1.1,1.9c0.3,0-0.2-2.6-0.7-4.2
		c-0.3-0.8-0.5-1.6-0.4-1.7c0.5-0.5,2,1.6,2.6,3.7c0.2,0.7,0.4,1,0.4,0.7s-0.3-1.2-0.6-2.1c-0.7-1.6-0.9-2.7-0.4-2.7
		c0.3,0,2.1,2.5,2.7,3.8c0.7,1.5,0.7,0.5,0-1.5c-0.9-2.7,0.5-1.9,1.5,0.8c0.2,0.7,0.5,1.4,0.6,1.6c0.5,1.3,0.3-0.8-0.2-2.3
		c-0.9-2.8-4.9-6.2-8.3-7.3C103,98.6,102.4,98.7,100.4,99.6 M237.7,101.1l-1.4,0.1l-1.4,2.9c-1.7,3.5-1.7,4.2,0,7.1
		c0.6,1.1,1.6,2.8,2.3,3.8c1.1,1.9,4.6,5.9,4.8,5.6c0.1-0.1-0.5-1-1.2-2c-1.5-2-2.1-3.9-2.1-6.4c0-3.6,2.3-4.5,12.7-4.7
		c7-0.2,10.2-0.6,14.4-2.2c4.2-1.6,4.5-1.8,2.1-1.6c-9.5,0.8-11.5,0.8-15.6,0.3c-3.8-0.6-10.1-1.9-11.2-2.3
		C239.8,101.1,239.3,101,237.7,101.1 M90.7,104.1c-2.9,1.5-3.1,2-1.2,2.8c1.6,0.7,4.1,2.6,5.7,4.3c1.1,1.1,1.5,1.2,3.1,0.3
		c0.7-0.4,1.9-0.8,2.7-1c2.5-0.5,2.9-1.6,1.1-3.6C99,103.3,94.4,102.1,90.7,104.1 M278,104.6c-0.1,0.4-0.5,1.4-0.7,2.2
		c-1.4,4.9-9.3,11.9-20.4,18.1c-1.6,0.9-2.5,1.5-2.1,1.4c4.5-1,18.8-10.7,21.2-14.2c1.3-2,2.4-4.6,2.5-6.4
		C278.8,104.1,278.4,103.4,278,104.6 M226.1,106.5c-1.6,1.6-1,3.7,2.2,8.2c0.8,1.2,1.7,2.4,1.9,2.8c0.2,0.4,0.8,1.2,1.3,1.8
		s0.9,1.2,0.8,1.2c-0.3,0.2-5.5-4.4-6.2-5.6c-1.1-1.7-1.2-1.2-0.3,1.5c1.2,3.6,3.1,6.8,6.1,10.1c0.6,0.7,1.7,2.1,2.5,3.2
		c5.4,7.7,7,8.9,15.3,11.5c1.5,0.5,3.2,1,3.7,1.2c1.2,0.4,4.9,0.5,6.5,0.1c0.6-0.1,2.4-0.6,4-0.9c6.3-1.4,7-2.1,1.2-1.3
		c-9.6,1.4-18.2-0.5-22.2-4.7l-0.7-0.8l2,0.8c7.4,2.9,14.1,3,19.6,0.3c1.5-0.7,3.8-1.6,5.1-1.9c1.2-0.3,2.8-0.8,3.5-1
		c0.8-0.3,1.6-0.3,2.3-0.2c0.7,0.1,1.1,0.1,1.1-0.1c0-1.1-9.2,0.5-13.8,2.4c-1.9,0.8-5.6,1.5-6.4,1.2c-0.2-0.1-0.4,0-0.5,0.1
		c-0.2,0.3-4.1-0.4-6.4-1.1c-3-0.9-5.6-2.2-8.6-4.4c-1.6-1.1-3.5-2.5-4.4-3.1c-0.8-0.6-2-1.6-2.7-2.4c-0.6-0.8-1.7-2-2.4-2.7
		c-1.3-1.4-2.7-3.3-2.7-3.7c0-0.1,0.9,0.6,2,1.6c1.2,1.1,3.3,2.7,5.4,3.9c5.6,3.4,7,3.6,4.1,0.8c-4-3.9-9.3-10.3-9.3-11.3
		c0-0.2-0.4-1.2-0.9-2.4c-0.8-1.8-1.1-2.9-1.6-5.5C227.5,105.2,227.3,105.3,226.1,106.5 M83.5,108.1c-3.6,1-4.2,1.6-2.8,2.9
		c1.2,1.3,2,3.1,2,4.5c0,0.6,0.1,1.1,0.2,1.1c0.1,0,1.7-0.8,3.6-1.8c1.9-0.9,3.5-1.7,3.7-1.7c2.2,0,0.2-3.3-2.9-4.9
		C85.7,107.5,85.8,107.5,83.5,108.1 M220.6,109.8c-0.5,0.9-0.2,5.1,0.5,7c0.9,2.6,1,2.8,0,1.7c-0.5-0.5-1-1.4-1.1-1.9
		c-0.4-1.1-0.6-1.2-1.8-0.5c-1.7,1.1-0.7,2.8,3.3,5.5c1.9,1.3,2.9,2.3,4.7,5.2c1.7,2.6,2.6,3.5,5.1,5c2.3,1.4,4.4,1.5,2.4,0.1
		c-0.4-0.2-0.7-0.6-0.7-0.7c0-0.2-0.6-1.1-1.4-2c-0.8-0.9-2.1-2.7-2.9-4c-0.8-1.2-1.8-2.6-2.2-3.1c-1.5-1.8-3.7-8.3-3.7-11l0-1.7
		l-1-0.1C221.1,109.2,220.8,109.3,220.6,109.8 M290.2,110.7c-0.7,1.4-2.1,3.1-3.4,4.2c-1.2,0.9-0.5,1.1,0.9,0.2l0.9-0.6v0.7
		c0,1.3,2-0.2,3.2-2.5c1-1.9,0.5-0.2-0.5,2.1c-1.9,3.9-6.5,7.9-10.8,9.4l-1.9,0.6l1.4,0.1c3.3,0.2,10.5-4.8,12.7-8.7
		c0.4-0.7,0.9-1.3,1.1-1.3c0.3,0,0.7-0.1,0.9-0.2c0.5-0.2,0.3,1.2-0.5,3c-0.7,1.6,0,1.6,1.2,0.1c0.5-0.6,1-1,1.1-1
		c0.2,0.1,0.5,0,0.7-0.1c0.4-0.2,0.4-0.1,0.2,0.8c-0.5,1.8-1.7,3-5.3,5.2c-2,1.2-1.7,1.9,0.5,1.1c3.6-1.4,6.1-4,6.7-7.1
		c0.8-4,0.6-4.3-4.4-5.9C290.9,109.2,290.9,109.2,290.2,110.7 M49.3,110.4c-4.3,0.7-7.1,3.9-7.1,8.1c0,2.5,2.1,4.3,5,4.3h0.7
		l-0.6-0.6c-0.4-0.5-0.6-0.9-0.5-1.5l0.1-0.9l1.8-0.2c3.6-0.3,6.3-4.4,4.6-6.8c-0.5-0.7,0.4-1,3.6-0.8c2.6,0.1,2.5,0-0.6-0.9
		C53.1,110.1,51.6,110,49.3,110.4 M75.8,111.5c-2,0.5-2.2,0.8-1.2,1.7c0.5,0.4,1.2,1.2,1.5,1.8c1.2,1.9,2,1.3,1-0.7
		c-1-2,0-1.6,1.2,0.4c0.5,0.9,0.9,0.1,0.6-1C78.4,111.7,77.5,111.1,75.8,111.5 M39.9,112.2c-1.2,0.3-2.8,0.8-3.6,1
		c-2.4,0.6-2.8,0.9-3.1,2.3c-0.2,1.5-0.3,1.5,1.3,1c1.3-0.5,2.1-0.3,1.1,0.3c-2.1,1.1-4.6,4.7-3.1,4.2c1.3-0.4,1.2,0.2-0.2,1.1
		c-2.7,1.8-2.4,3.4,0.4,2.4c3.7-1.3,4.2-0.9,1.1,0.7c-6.9,3.6-8.1,6.4-4.3,10.1c1.6,1.6,2.6,1.3,2.8-0.9c0.2-2.4,1.9-3.9,5.9-5.3
		c10.1-3.5,17.2-1.1,17.1,5.9l0,2.1h0.8c3.4,0,3.8-5,0.6-8.1c-1.9-1.8-2.2-1.9-7.3-2.2c-7.7-0.4-10.9-2.4-10.9-6.7
		c0-1.3,2.1-5.5,3.5-7C43.3,111.4,43.1,111.3,39.9,112.2 M283.1,113.6c-1.4,1.3-4.2,2.6-6.6,3.2c-1.5,0.4-2.4,0.8-3.6,1.7l-1.6,1.2
		l1.7-0.2c2.2-0.2,5.6-1.1,6.1-1.6c0.2-0.2,1.3-0.9,2.4-1.6c1.9-1.2,2.9-2.3,2.9-3.2C284.6,112.5,284.3,112.6,283.1,113.6
		 M70.3,113.7c-0.8,0.9,0.5,4,1.7,4c0.8,0,0.9-0.4,0.3-1.6c-1.1-2.3-0.2-2.4,1-0.1c0.6,1.1,0.7,1.3,0.9,0.9
		C75.3,114.9,71.8,112.2,70.3,113.7 M151.4,114.2c-2.2,2.2-2.3,7.3-0.3,10.9c0.7,1.2,5.5,6.4,6.3,6.8c0.3,0.2-0.3-0.5-1.2-1.4
		c-2.8-2.6-4.7-5.7-5.1-8.3l-0.2-1.2l0.5,1.2c0.8,1.7,2.7,4.6,3.7,5.5c0.8,0.7,0.8,0.6-0.4-1.1c-0.7-1-1.2-2-1.2-2.2
		c0-0.2-0.3-1.1-0.7-2c-0.6-1.6-0.7-2.1-0.7-5.4c0-2,0-3.7-0.1-3.7C152.2,113.5,151.8,113.8,151.4,114.2 M65.1,114.5
		c-0.3,0.3-0.5,1-0.5,1.8c0,0.7-0.2,1.6-0.4,1.9c-0.5,1-0.5,1,1.1,1.6c2.5,1,3.5,0.7,3.9-0.9C69.8,116,66.7,112.6,65.1,114.5
		 M303.4,115.4c-0.1,0.2-0.2,1.8-0.2,3.7c-0.1,2.4-0.3,3.6-0.6,4.2c-0.8,1.5-2.1,3.3-2.7,3.7c-0.4,0.2-0.6,0.6-0.5,0.8
		c0.2,0.5-2.2,2-5.4,3.3c-4.1,1.7-4.1,2.1-0.2,0.7c9.3-3.3,14.8-10.4,11.9-15.2C304.9,115.2,303.7,114.6,303.4,115.4 M196.2,116.3
		c-1.6,3.9-1.7,9.2-0.2,12.4l0.8,1.6l-0.1-2.4c-0.1-2.4,0.5-5.1,1-5.1c0.1,0,0.2,1.2,0.1,2.7c-0.1,2.3-0.1,2.7,0.2,2.7
		c0.3,0,0.4-0.5,0.5-2.8c0.2-4.2,0.9-4.6,1-0.4c0.1,2.2,0.5,1.2,0.5-1.3c0-0.6,0.2-1.8,0.5-2.7c1-3.1,1-3.3-0.7-4.4
		C197.6,115.2,196.7,115.1,196.2,116.3 M138.1,116.8c-0.1,0.6-0.3,1.5-0.5,2.1c-0.4,1.5,0.7,4.8,2.4,7.4c2.9,4.3,3.3,5,3.2,5.2
		c-0.3,0.3-4.9-5.5-6.6-8.3c-1.1-1.8-1.4-1.5-0.4,0.6c2.1,4.6,10.9,13.3,16.5,16.5c1.6,0.9,1.6,0.9-2.4-2.6
		c-3.9-3.4-5.6-5.1-6.8-6.7c-1.2-1.7-0.5-1.7,1,0.1c2.8,3.3,11.7,10.2,17.1,13.2c5,2.8,23.6,9.1,24.4,8.3c0,0-2.3-0.8-5.2-1.8
		c-11.7-3.7-23.9-9.3-27.5-12.6c-1-0.9-0.7-0.8,0.9,0.3c1.6,1.1,8.4,4.4,8.4,4.1c0-0.1-1.4-1-3.2-2.2c-3.7-2.4-3.8-2.5-0.8-1.4
		c6.9,2.7,6.6,2.6,15.6,4.4c5.2,1.1,7.4,1.3,3.6,0.4c-9.4-2.2-15.7-4.3-16.1-5.3c-0.1-0.2-1-0.8-2.1-1.3c-1-0.5-3.1-1.6-4.6-2.6
		c-1.5-0.9-3.7-2.3-5-3.1c-1.4-0.8-3.4-2.4-5-3.9c-1.5-1.4-2.7-2.4-2.7-2.3c0,1.1,3.6,5.2,6.6,7.5c2,1.5,2.4,1.9,1.4,1.4
		c-6.3-3.3-10.7-9.6-11.8-16.4C138.3,115.8,138.3,115.8,138.1,116.8 M108.1,119.4c-4.3,4.5-3.2,9.9,3.9,18.7
		c1.8,2.2,6.2,6.9,7.4,7.7l0.8,0.6l-0.7-0.8c-0.4-0.5-1.4-1.7-2.4-2.8l-1.7-1.9l1.5,1.2c4.3,3.6,14.7,10.5,14.7,9.7
		c0-0.1-1.2-0.9-2.7-1.8c-2-1.2-2.7-1.8-2.6-2.1c0.1-0.3-0.4-0.7-1.7-1.5c-8.7-4.9-15.5-14.9-15.1-22.1c0.1-2,0.1-2.2-0.3-1.6
		c-0.3,0.4-0.4,1.4-0.5,3.1c-0.1,2.6-0.3,2.9-1,0.9c-0.8-2.3-0.3-5.3,1.2-7C109.9,118.3,109.3,118.1,108.1,119.4 M115.7,119.7
		c-0.9,4.4,2.6,10.9,9.8,18.2c2.5,2.5,4.4,4.3,4.2,4c-0.2-0.3,0.4,0.2,1.4,1c1,0.8,3,2.4,4.4,3.4c1.4,1,2.7,2,2.9,2.2
		c0.2,0.1,0.3,0.2,0.3,0.1c0-0.1-1.4-1.3-3.1-2.7c-1.7-1.4-3-2.7-3-2.7c0.2-0.2,5.9,3.8,9.5,6.5c2.5,1.9,4.6,3.3,13,8.9
		c2.8,1.9,8.9,5,8.9,4.6c0-0.1-3.3-2.1-7.2-4.5c-11.6-7-12.8-8.6-2.9-3.6c3,1.5,6.4,3.1,7.5,3.6c1.1,0.5,3.1,1.4,4.5,2.1
		c2.3,1.1,4,1.9,9.7,4.3c0.9,0.4,2,0.7,2.5,0.8l1,0.1l-1.1-0.5c-0.6-0.3-1.5-0.6-1.9-0.7c-3.4-0.7-31.3-15.5-31.3-16.6
		c0-0.2,0.1-0.1,2,1.1c1.3,0.8,13.7,7.3,13.5,7c-0.1-0.1-2.4-1.6-5.1-3.4c-9.6-6.4-22.9-17.4-23.8-19.7c-0.2-0.5-0.3-0.6-0.5-0.3
		c-0.3,0.6,5.1,6.4,9.9,10.6c0.9,0.8,1.8,1.9,1,1.3c-0.4-0.3-0.5-0.4-1.1-0.4c-0.1,0-0.3-0.2-0.3-0.3c0-0.2-0.4-0.6-0.8-0.9
		c-0.4-0.3-2.1-1.7-3.8-3.2c-4.6-4-4.8-4.1-2.6-1.5c2.6,3.1,5.1,5.6,6.8,7c1.6,1.4,1.2,1.5-0.5,0.2c-1-0.8-3-2.1-5-3.2
		c-0.9-0.5,0.1,0.7,1.5,1.7c2.9,2.3,3.7,3.1,2.7,2.6c-4.2-2-17.8-14.6-18.4-16.9c-0.3-1.1-0.3-1.2-0.6-0.6c-0.5,1.3-3.4-5.4-3.8-9
		l-0.2-1.5L115.7,119.7 M300,120.3c-1.3,2.1-3.8,3.8-8.3,5.9c-2.3,1.1-2.5,1.4-1.1,1.4c2.4,0,8.4-3.9,9.6-6.2
		C301.2,119.7,301,118.8,300,120.3 M203.2,123.1c-1.5,4.3-1.3,5.1,3,10.9c2.7,3.7,5,5.4,8.6,6.2l0.7,0.2l0.3-2.8
		c0.2-1.6,0.5-3.3,0.7-3.9c0.5-1.3,0.4-1.6-0.9-2.1c-1.9-0.7-3.5-1.9-5.5-4.4C206.1,122.4,203.9,121.1,203.2,123.1 M220.6,123.5
		c0,0.1,0.5,1,1.1,2.1c0.6,1.1,1.6,2.8,2.2,3.9c2.5,4.5,7.6,8.1,16.8,11.7c3.2,1.2,6.5,2.6,8.7,3.6c2.9,1.3,5.1,1.9,7.1,2.1
		c1,0.1,2.1,0.3,2.4,0.5c2.9,1.8,9.6,0.2,14.7-3.6c2.7-2,6-3.7,8.2-4.2c0.7-0.2,2.1-0.7,3.1-1.1c1-0.4,2.8-1.1,4.1-1.5
		c1.5-0.5,2.3-0.8,2.3-1.1c0-0.7-3.1-0.2-6,0.9c-0.7,0.3-2.8,0.8-4.6,1.2c-3.5,0.7-4.7,1.2-7.9,3.3c-4.3,2.8-6.9,3.6-14.1,4
		c-5.7,0.3-6.2,0.2-16.7-4.9c-12.5-6.1-13.5-6.8-16-11C224.2,126.2,220.6,122.4,220.6,123.5 M101.6,125.2c-2.5,3-0.2,10.6,4.2,13.7
		c0.7,0.5,0.6,0.3-0.6-1.1c-2.4-2.9-1.5-2.7,1.5,0.4c2.7,2.8,4,3.9,5.8,5c0.4,0.3-1.2-1.5-3.7-4c-5-5-5.3-5.5-5.8-9.1
		c-0.3-2.5-0.7-2.5-0.8,0l0,1.6l-0.4-0.9c-0.6-1.5-0.5-4,0.1-5.2C102.6,124.3,102.5,124.1,101.6,125.2 M307.5,127.3
		c-0.1,1.4,0.1,2.6,0.8,4.6c3.6,10.7,5.2,24.1,3.5,30.1c-2.5,9-5.8,13.8-10.4,14.8c-1,0.2-2.1,0.5-2.4,0.5c-0.4,0.1-0.6,0.2-0.4,0.4
		c0.6,0.6,7-1.6,10-3.3c4.7-2.8,7.3-7.6,8.2-15.1c0.8-7.7-0.3-12.6-5.6-23.4c-1.6-3.2-3.2-7.5-3.2-8.4
		C308.1,126.9,307.5,126.6,307.5,127.3 M62.6,127.9c-1.2,1-1.5,2-1.2,4.4c0.4,3.1-0.1,5-2,7c-1.3,1.4-0.4,1,1.3-0.5
		c2.4-2.2,3.3-4.7,2.8-7.4c-0.2-1-0.2-1.6,0.1-2.5C64.1,127.2,63.9,126.9,62.6,127.9 M222.1,132.3c-2.2,2.3-3.8,10.7-3.1,15.7
		c0.2,1.2,0.5,3.6,0.7,5.4c0.5,4.6,0.8,4.7,1.3,0.9c1-7.3,3.6-13.9,6.5-16.5l1.5-1.3l-1.4-1c-0.8-0.6-1.9-1.7-2.6-2.5
		C223.6,131.4,223,131.3,222.1,132.3 M38.5,137.2c-3.6,1.8-4.2,2.5-4.4,4.7c-0.1,1-0.5,3.9-0.9,6.5c-1.3,8-1.3,7.8-0.1,9.1
		c2.1,2.3,4.1,1.7,9.1-2.5c2.8-2.3,2-2.2-1.7,0.2c-4.2,2.7-4.2,2.7-1.8-1.1c0.8-1.2,1.4-2.4,1.3-2.5c-0.2-0.2,1.9-4.1,5-9.2
		c2.3-3.8,2.5-4.4,2.1-4.4c-0.1,0-0.8,0.8-1.4,1.8c-0.6,1-1.8,2.6-2.5,3.7c-0.8,1-2.4,3.4-3.6,5.3c-4.2,6.6-6,8.6-4.4,5
		c0.4-0.8,1.4-3.8,2.4-6.6c0.9-2.8,2.1-6.1,2.7-7.3c1-2.3,1.5-4,1-4C41.1,135.9,39.9,136.5,38.5,137.2 M206.9,140.3
		c0.6,5.9,0.7,6.3,2.3,7.7c2.9,2.6,7.7,4.3,7.7,2.8c0-1.5-0.9-6.9-1.2-7c-3.4-1-5.6-2.1-7.7-4.1l-1.3-1.2L206.9,140.3 M228.9,141
		c-4.5,6.1-5.6,10.4-4.7,19.2c0.7,6.3,1.5,9.3,3.4,12c1.5,2.3,8.6,8.6,9,8.1c0.2-0.2-1.4-1.7-3.7-3.4c-4.3-3.3-6-8.1-6-16.6
		c0-5,0.4-7.1,0.7-3.7c0.7,7.1,5.6,14.3,10.9,16c7.7,2.5,13.7,0.2,17.1-6.7c3.7-7.3-3.3-17.8-13.7-20.6c-1.4-0.4-2.7-0.8-3-0.9
		c-0.8-0.4-4.2,0.4-5.4,1.4c-2.3,1.7-2.7,0.6-0.5-1.5c1.3-1.3,3.7-2.5,4.7-2.5c0.1,0,0.3-0.1,0.3-0.2c0-0.4-1-0.5-2-0.3
		c-0.5,0.1-1.2,0.2-1.5,0.1c-0.7-0.2-2.4,1.4-3.8,3.5c-0.6,0.9-0.8,1.1-0.9,0.7c-0.2-0.8,1.5-3.8,2.8-4.9c1.4-1.3,1.4-1.2,0.4-1.6
		C231,138.4,230.6,138.6,228.9,141 M114.7,139.9c0.3,0.4,0.5,0.8,0.4,0.8c-0.1,0-0.4-0.4-0.7-0.8c-0.3-0.4-0.5-0.8-0.4-0.8
		C114.1,139.1,114.4,139.4,114.7,139.9 M143.2,141.2c0.3,0.4,8.2,5.6,11.1,7.2c1.4,0.8,3.4,2,4.4,2.7c3.2,2.2,6.5,4.3,6.5,4.1
		c0-0.1-1.1-0.8-2.4-1.7c-1.3-0.9-2.4-1.7-2.4-1.8c0-0.2,4,2,5.7,3c5.2,3.3,18.2,9.3,21.1,9.7c0.9,0.1,2.7,0.6,3.9,0.9
		c2.8,0.9,6,1.5,7.5,1.4c1,0,0.7-0.1-1.8-0.7c-7.3-1.5-20.2-6.8-28.9-11.8c-1.8-1-5.7-3.1-8.7-4.7s-6.5-3.6-7.9-4.4
		C147.6,142.9,142.7,140.5,143.2,141.2 M111.4,147.8c0.3,0.4,10,7,10.6,7.1c0.8,0.2,0.7,0-1.3-1.4c-1.9-1.3-2.5-1.9-1-1
		c0.5,0.3,2.9,1.8,5.4,3.3c7,4.3,20.9,11.2,21.8,10.9c0.2-0.1-0.7-0.5-1.8-1c-4.7-1.9-14.2-7.1-22.7-12.4c-6-3.7-8.4-5.1-8.6-4.9
		c-0.1,0.1-0.6-0.1-1-0.4C111.6,147.6,111.1,147.4,111.4,147.8 M126.9,147.8c0.4,0.4,8.1,4.4,8.3,4.3c0.1-0.1-1.8-1.1-4.2-2.3
		C128.5,148.5,126.7,147.6,126.9,147.8 M131.8,152c0,0.2,4.8,2.5,5.1,2.5c0.1,0-1-0.6-2.4-1.3C133,152.5,131.8,152,131.8,152
		 M280.5,152.4c-0.1,0.2-0.4,0.2-0.7,0.1c-0.4-0.1-5.9,1.3-7.6,2c-0.9,0.4-0.8,0.9,0.1,0.7c1.8-0.4,6.5-0.5,6.9-0.2
		c0.8,0.7,0.1,1.2-3.7,2.5c-1.9,0.7-3.5,1.5-2.1,1.1c0.3-0.1,1.9-0.4,3.5-0.7c1.6-0.3,3.7-0.7,4.5-0.9c0.9-0.2,1.7-0.3,1.8-0.4
		c0.4-0.2-1.3-4.5-1.8-4.6C280.9,152.1,280.6,152.2,280.5,152.4 M323,154.3c-1.1,0.2-1.2,0.2,4,0.4c6.9,0.2,13.2,1.2,24,3.9
		c3.4,0.9,7.1,1.8,8.2,2c1.1,0.2,2.9,0.8,4,1.2c1.1,0.4,2.3,0.8,2.5,0.8c0.2,0,2.2,0.7,4.2,1.6c2.1,0.9,4,1.6,4.2,1.6
		c0.7,0,4.2,1.9,7,3.8c7.8,5.3,8.7,10.6,2.6,14.2l-1.7,1l1.5-0.2c7.4-0.8,9.1-7.2,3.2-12.5c-1.7-1.5-0.9-1.2,1.1,0.4
		c5.1,4.2,6.1,7.9,3.1,11c-1,1-0.7,1.1,0.6,0.3c1.1-0.7,2.2-2.8,2.2-4.1c0-0.5,0.1-0.9,0.2-0.8c0.5,0.3,0.2,2.5-0.5,4
		c-0.8,1.6-0.7,1.9,0.4,0.8c6.2-6.2-9.5-17.8-32.8-24.2C348.9,156.1,327.9,153.2,323,154.3 M212.9,160.9c-0.2,1.7-0.5,3.6-0.7,4.2
		c-0.3,0.8-0.4,1.2-0.1,1.8c1.2,2.8,3-4.5,2-7.9C213.5,157,213.2,157.5,212.9,160.9 M281.1,160.5c-0.5,0.2-2.3,0.8-4.1,1.3
		c-2.6,0.8-3.1,1-3.1,1.5c0,0.6,0.4,0.6,2.5,0.1c4.2-1,4.6,0,0.5,1.4c-2.1,0.7-2.7,1.1-2.7,1.4c0,0.7,0.6,0.6,3.9-0.4
		c1.6-0.5,3.5-1,4.3-1.1l1.4-0.2v-1.9C283.8,160.2,283.2,159.7,281.1,160.5 M215.1,164.3c0,2.9-0.1,3.3-0.7,4.6
		c-0.9,1.8-0.4,3.3,0.7,2c1.1-1.2,1.4-5,0.7-8.2C215.3,160.4,215.1,160.9,215.1,164.3 M217.3,166.7c-0.1,1.7-0.4,3.4-0.8,4.8
		c-0.7,2.2-0.7,2.8,0.1,2.8c1.5,0,2.3-6.3,1.2-9.2l-0.4-1.1L217.3,166.7 M209,166.8c-0.7,0.7-0.8,1-1,3.7c-0.1,1.6-0.4,3.3-0.6,3.9
		c-1.6,3.9,4.9,12.8,13.7,18.9c0.2,0.2-1.2-1.4-3.2-3.4c-3.8-3.9-5.5-5.8-6.9-7.9c-1.3-1.9-0.8-1.8,0.9,0.3c3.2,3.9,4.2,4.2,1.5,0.4
		c-0.9-1.2-1.6-2.3-1.5-2.4c0.1-0.1,0.6,0.5,1.1,1.2c1.8,2.5,8.7,8.6,11.5,10.3c0.8,0.5,0.3,0-4.8-4.9c-2.4-2.3-5.9-6.4-5.6-6.6
		c0.3-0.3,1.3,0.6,4.2,3.6c1.7,1.7,3.6,3.5,4.1,4c5.3,4.3,8.5,6.7,9.5,7.3c1.4,0.8,1.3,0.7-2.6-2.8c-4.9-4.4-7.3-6.6-7.4-7
		c-0.2-0.6,0.8,0.1,2.2,1.4c5.6,5.2,12.2,8.9,19.7,11c2.7,0.8,2,0.2-0.9-0.6c-1.3-0.4-2.6-0.9-2.9-1.2c-0.7-0.6-4.2-2.9-8.2-5.3
		c-4.4-2.6-12.9-10.4-16.6-15.1c-0.9-1.2-2-2.5-2.5-3.1c-0.5-0.5-1.1-1.4-1.4-2c-0.3-0.6-0.7-1.2-1-1.4c-0.3-0.3-0.4-0.6-0.3-1.6
		C210.3,165.8,210.1,165.7,209,166.8 M279.7,169.2c-6.6,1.8-7.5,2.3-3.2,2c4-0.3,4,0.5-0.1,1.7c-3.3,0.9-3.6,1.2-0.9,1
		c4.1-0.4,6.1-1.1,6.7-2.5C283.4,168.4,283.2,168.3,279.7,169.2 M377.3,169.9c5.4,4.1,6.6,9.5,2.5,11.1c-0.9,0.4-1,0.5-0.5,0.5
		c3,0,5.1-3.2,3.9-6c-0.5-1.3-0.3-1.4,0.4-0.3c1,1.7,1.2,3.2,0.6,4.6c-0.6,1.4-0.4,1.6,0.6,0.4c0.8-0.9,0.8-1.7,0.1-4.4
		c-0.4-1.7-3.3-4.3-6.2-5.7C375.8,168.7,375.7,168.7,377.3,169.9 M219.7,171.9c-0.1,1.3-0.4,3-0.7,3.8l-0.5,1.4l0.6,0.6l0.6,0.6
		l0.4-1c1-2.3,1.1-4.2,0.4-6.9C220.2,168.9,219.9,169.3,219.7,171.9 M376.2,171.7c3.9,4,4.4,7,1.6,9.3c-0.6,0.5-0.6,0.5-0.2,0.5
		c1.2,0,3-2.6,3-4.3c0-2.4-4.2-7.4-6.2-7.4C374.3,169.7,375.1,170.6,376.2,171.7 M264.2,172.8c-0.9,4.8-5.2,9.5-10,11
		c-2.4,0.8-2.4,0.9,0.3,0.8c6-0.3,10.9-5.8,10.1-11.3l-0.2-1.6L264.2,172.8 M222.9,177.3c-0.1,1.5-0.2,3-0.2,3.2
		c0,0.3,0.1,0.6,0.4,0.8c1.2,0.8,1.6-1.6,0.8-4.9C223.3,173.9,223.1,174.1,222.9,177.3 M205.2,180c-1.4,1.5-7.4,3.9-9.9,3.9
		c-1.3,0-1,0.5,0.4,0.7c3.4,0.4,6.5,1,10.2,2c2.2,0.6,4,1,4.1,0.9c0.3-0.3-0.2-1.4-1.3-3.1c-0.6-1-1.4-2.4-1.7-3.3
		C206.2,179.2,206,179.1,205.2,180 M299.3,181c-1.2,0.6-1.3,0.6,3.1,0.6c7.5,0,9.7,0.5,3.5,0.7c-7.1,0.3-12.1,0.6-12.6,0.9
		c-0.4,0.2-0.2,0.3,0.8,0.3c1.6,0,11.1,0.5,13.6,0.7c5.2,0.5,10.6,1.6,16.5,3.6c1.8,0.6,3.3,1,3.3,0.9c0.7-0.7-9-3.9-14.8-4.9
		c-1.6-0.3-2.5-0.5-2-0.5c2.8-0.1,14.2,1.4,16.8,2.2c1.7,0.5,1.7,0,0-0.7C321.4,182.2,302.5,179.6,299.3,181 M226.6,181.5
		c-0.3,1.1-0.2,1.8,0.3,1.8c0.5-0.1,0.9-1.4,0.7-2C227.4,180.7,226.8,180.9,226.6,181.5 M350.5,183.6c-1,0.1-2.3,0.2-3.1,0.1
		c-0.7-0.1-2.8,0.1-4.5,0.3c-1.8,0.2-3.9,0.5-4.8,0.6c-6,0.8-8,4.3-4.5,7.8c3.6,3.5,15.1,7.5,23.3,8.1l2,0.1l-2.3-0.6
		c-1.2-0.4-2.9-0.7-3.6-0.8c-1.4-0.2-8-2.3-9.3-3c-2.5-1.3-5.5-4.8-5.5-6.4c0-1.9,3.1-4,6.5-4.4c2.5-0.3,2.8-0.1,1.2,0.6
		c-5.1,2.3-4.3,6.2,2.1,9.3c2.5,1.2,3.1,1.4,1.4,0.4c-3.1-1.9-5-3.9-5.1-5.3c0-1.8,4.7-4.7,8.3-5.2c4.5-0.5,11.6-1,16.1-1
		c2.6,0,4.8-0.1,4.9-0.1C373.9,183.7,352.8,183.3,350.5,183.6 M374.9,184.1c0.5,0.1,1.3,0.1,1.9,0c0.6-0.1,0.2-0.1-0.9-0.1
		C374.9,184,374.5,184,374.9,184.1 M279.5,188.3c-3.8,3.9-6.1,7.5-5.1,8.1c0.6,0.4,1,0,1.4-1.1c0.8-2,2.9-5.1,5.8-8.6
		C283.2,184.9,282,185.7,279.5,188.3 M338,187.2c-1.6,1.6-1.6,1.5-0.8,4c0.5,1.6,0.3,1.6-1.3,0.1c-2.1-1.9-1.8-3.1,1.3-4.6
		C339.7,185.4,339.8,185.5,338,187.2 M276.6,188.6c-1.2,1.4-2.3,2.8-2.5,3.1c-0.1,0.3-0.6,1-1,1.7c-1,1.5-1.8,3.3-1.9,4.1
		c0,0.9,0.4,0.5,1.2-1.1c0.9-2,2.9-4.9,5-7.5c1.7-2.1,2.1-2.7,1.6-2.7C278.9,186,277.8,187.2,276.6,188.6 M188.2,187.4
		c-1.2,0.1-3.9,0.6-6,1c-2.1,0.5-4.2,0.9-4.7,1c-4.3,0.8-15.5,9.1-20.2,15c-7.3,9.1-9.6,22.5-5.5,31.8c1.3,2.9,1.6,3,4,1l0.7-0.6
		l-0.7-2.4c-2.9-10.7,3.5-26.9,12.9-32.6c6.6-4,10.4-5.9,12-5.9l0.7,0l-0.7,0.4c-13.3,7-19.8,15.6-21.7,28.4
		c-0.6,3.8-0.5,3.8,0.9-0.6c1.4-4.3,3.2-7.9,5.1-10.4c0.6-0.9,1.2-1.6,1.2-1.7c0.6-0.8,0,0.6-0.9,2.5c-2.1,4.1-4.2,10.4-4.8,14.3
		c-0.2,1.6-0.1,1.4,1.1-1.8c1.7-4.7,5.6-10.8,8.8-13.6c0.8-0.7,2-2,2.8-2.9c7.9-9.5,21.6-11.9,33.8-5.9l1.6,0.8l-0.8-0.7
		c-1.4-1.2-5.8-4-6.9-4.4c-1.3-0.5-1.3-0.9,0.1-0.7c2.2,0.4,5.9,2.2,8.5,4.4l1.1,0.9l-0.6-0.9c-0.4-0.5-1.4-1.7-2.2-2.6l-1.6-1.7
		l1.2,0.4c1.4,0.5,2.7,1.4,5.9,4.4c1.3,1.2,2.3,2,2.2,1.7c-0.6-1.1-3.4-4.8-5-6.4c-1.6-1.8-1.5-2.2,0.3-0.9c1.1,0.8,4.4,4.2,5.4,5.5
		l0.6,0.8l-0.6-1.2c-0.3-0.7-1.2-2.1-2-3.2c-1.3-1.9-1.5-2.9-0.3-2.2c0.9,0.5,3.1,2.7,4,3.8c0.6,0.7,1.1,1.3,1.2,1.2
		c0.1-0.1,0.4,0.1,0.7,0.3c1,0.9-1.7-3.2-4.3-6.3c-1.2-1.5-0.3-1,2,1.1c3,2.7,4.4,4.7,5.6,8c0.4,1.1,0.5,1.2,0.4,0.4
		c-0.8-5.3-8.5-13.8-15.1-16.5C203,188,194.8,186.8,188.2,187.4 M309.4,187.9c4.7,0.7,9.4,1.7,13.1,2.8c1.8,0.5,3.3,0.9,3.3,0.8
		c0.1-0.1-3.3-1.2-6.6-2.1c-2.8-0.8-8.7-1.8-10.9-1.9l-2.3-0.1L309.4,187.9 M272.9,189.2c-1.6,1-3.3,4.1-3.3,6.1
		c0,0.9,0.1,0.8,1-1.1c0.6-1.1,1.5-2.8,2.1-3.7C274.1,188.6,274.1,188.5,272.9,189.2 M289.3,189.5c-3.4,0.2-4.4,0.3-4.9,0.7
		l-0.7,0.5l0.9,0.1c0.5,0,0.9,0.2,0.9,0.3s1.7,0.2,3.8,0.1c2.7-0.1,3.4,0,2.3,0.1c-0.8,0.1-2.6,0.2-4,0.3c-1.4,0-3.1,0.1-3.9,0.3
		c-0.9,0.1-0.2,0.2,1.7,0.1c12.5-0.7,24.4,0.2,33.9,2.4c1.2,0.3,3,0.6,4,0.8c5.2,0.7,21.4,7.5,26.8,11.3c0.4,0.3,0.7,0.4,0.6,0.2
		c-1.2-2-10.6-6.7-20.6-10.3c-11.9-4.3-16.2-5.1-32.7-6.1c-0.8-0.1,1.8-0.1,5.7,0c8.1,0.1,13.4,0.7,19.3,2.3
		c3.6,0.9,4.2,0.9,1.2-0.1C315.8,189.7,303.6,188.7,289.3,189.5 M364.9,192.9c2.8,1.5,3.1,3.7,0.6,4.7c-0.7,0.3-1.4,0.6-1.5,0.7
		c-0.1,0.1-0.9,0.2-1.7,0.3l-1.5,0l1.2,0.2c2.8,0.5,7.6-0.4,8.4-1.8c1.1-1.7-2.7-4.7-5.8-4.7C364,192.4,364.1,192.5,364.9,192.9
		 M275.2,197.6c-0.1,0.1-0.2,0.6-0.2,1.2c0,1.4-1.4,2.5-2.9,2.3c-1.1-0.2-1.5,0.4-0.7,1.1c0.2,0.2,0.2,0.5,0,0.9
		c-0.2,0.3-0.7,1.6-1.1,2.7c-0.4,1.2-1.1,2.8-1.5,3.7c-1.1,2.4-0.9,2.6,1.1,1.2c3.6-2.5,7.1-7.7,7.2-10.6
		C277,198.6,275.9,197,275.2,197.6 M251.5,198.2c-0.7,0.3-1.3,0.9-1.3,1.5c0,0.6,0.5,0.7,1,0.2c0.2-0.2,1.1-0.2,3.7,0
		c5.6,0.5,8.9,0.4,8.9-0.2c0-0.8-0.9-1-5.7-1.3C253.4,198,252.1,198,251.5,198.2 M266.2,199.7c0,0.2,0.2,0.8,0.4,1.5
		c0.5,1.2-0.6,5.2-2.2,8.3c-0.9,1.7-1.1,2.7-0.6,2.7c0.2,0,1.2-1.7,2.5-4.2c2.4-4.9,2.8-7,1.5-8.1
		C267.1,199.3,266.2,199.2,266.2,199.7 M237,203.7c-4.5,1.9-5.4,2.5-7,5.1c-1.5,2.3-1.2,3.1,1.9,5c2,1.3,4,0.8,5.4-1.3
		c0.2-0.4,1-1,1.6-1.3c0.7-0.4,1.2-0.9,1.2-1.2c0-0.8-0.8-0.9-1.9-0.1c-1.8,1.2-1.5,0.1,0.4-1.3c2.1-1.6,1.1-1.7-1.4-0.1
		c-1,0.6-1.8,1.1-2,1.1c-0.5,0,2.2-2.5,3.5-3.3c1.6-0.9,1.7-1.1,0.7-0.8c-2.6,0.6-4.1,1.5-6.4,3.7c-2.6,2.5-2.8,2.6-1.8,0.5
		c1.3-2.7,3.4-4.5,7-6c1-0.4,1.6-0.8,1.4-0.8C239.3,202.8,238.2,203.2,237,203.7 M363.4,204.6c10.6,5.6,24.8,19.6,28.3,27.9
		c0.7,1.7,0.7,2.6,0,1.6c-0.2-0.3-0.5-0.7-0.7-0.9c-0.2-0.2-1-1.4-1.9-2.5c-5.1-7.1-21.5-21.2-25.2-21.6c-0.3,0-1.1-0.4-1.7-0.8
		c-1.6-1.1-2.1-1.3-1.2-0.5c0.4,0.4,1.8,1.4,3.2,2.2c16.7,10.3,30.2,25.5,28.9,32.5c-0.2,1.2-0.6,1.5-0.6,0.3c0-1.3-0.9-4.4-1.7-5.9
		l-0.7-1.3l0,1.2c-0.1,5.8-8.8,9.1-17.3,6.6c-16.3-4.9-22.2-7.1-27-10.1c-1.3-0.8-3.3-2-4.5-2.7c-6.7-3.9-9.2-6.9-7.3-8.8
		c0.6-0.6,2.3-1,3.1-0.7c0.5,0.2,0.5,0.3-0.6,0.5c-2.1,0.5-2.3,2.1-0.4,4c1.1,1.1,1.2,0.9,0.4-0.4c-1.8-2.7,1.2-4.1,6.9-3.2
		c1.3,0.2,2.5,0.3,2.6,0.2c0.8-0.4-3.3-2-6.8-2.5c-0.8-0.1-1.8-0.3-2.3-0.4c-1-0.2-3.7,0.7-4.6,1.5c-0.8,0.7-0.7,2,0.3,3.7
		c1,1.8,1,1.8,0,1.2c-3.5-2.1-4.8-6-2-6c1.3,0,1.4-0.5,0.1-0.7c-1.3-0.2-3.6,0.1-4.6,0.6c-1.7,0.9-1.5,2.2,0.8,4.6l1.4,1.5l-0.7-1.2
		c-0.4-0.8-0.7-1.6-0.7-2.3c0-1.5,0.3-1.4,0.7,0.1c0.7,2.5,4.6,5.8,11.7,9.6c9,4.9,10.5,5.6,19.3,8.8c1.4,0.5,3.1,1.2,3.9,1.6
		c0.7,0.4,3.4,1.2,5.9,2c18.1,5.3,24.5,5.3,25.7,0c2.5-10.7-3.6-20.2-21.5-33.8c-4.5-3.4-10.2-6.9-11.2-6.9
		C361.1,203.3,362.1,203.9,363.4,204.6 M258.7,206.6c0,1.7,3.5,3.2,4.8,2.1c1-0.8,0.4-1.4-1.5-1.6c-0.9-0.1-1.9-0.3-2.3-0.5
		C258.8,206.2,258.7,206.2,258.7,206.6 M190.4,210.4c-1.7,0.6-4.3,1.8-5.7,2.5c-1.4,0.7-3.3,1.6-4.1,1.9c-4.7,1.7-9.8,7.2-13.7,14.8
		c-3.3,6.4-5.1,8.1-10.6,10.3c-9.7,3.8-13.6,8.9-12.9,16.4l0.2,2.1l0.2-1.5c0.7-4.8,6.2-11.4,11.6-14c3.2-1.5,8-4.9,9.6-6.6
		c1.2-1.4,1.8-2.5,3.3-6c1.3-3.1,3.7-6.6,6-9c2.5-2.5,3.6-3.1,1.7-0.9c-2.6,3.1-3.4,4.4-5.5,9.3c-3,7-5,9.4-9.4,11.9
		c-4,2.3-6.8,5.5-7.9,9.1c-0.6,2.2-0.5,2.3,1.4,1.2c0.9-0.5,3.4-1.9,5.5-3c8-4.2,13.2-8.7,16.9-14.6c0.3-0.4,0.3-0.4,0.1,0.3
		c-0.1,0.4-0.7,1.5-1.3,2.3c-3.6,5.4-5.6,8.3-6.9,9.6c-1.7,1.8-1.7,2.1,0,1c2-1.3,5.3-5.8,10.9-15.1c2-3.3,2.7-4.4,4.7-7
		c0.7-1,2.8-4,4.6-6.6c4.3-6.4,6.1-8.4,6.9-7.7c0.3,0.3,1.1,0.9,1.7,1.4l1.2,0.8l0.3,2.8c0.3,3.2,0.1,7.2-0.8,11
		c-0.8,3.8-2.6,9.8-3.3,11.5c-1.1,2.6,0.1,0.8,1.8-2.7c2.2-4.4,3.6-11.4,3.6-18.1c0-1.3,0.1-2.3,0.2-2.3c1.8,0,4.1,7.1,4.2,12.8
		c0.1,5.3,0.1,5,0.4,4.4c0.3-0.6,0.1-10.1-0.3-12.4c-1-5.4-4.9-9.8-9.5-10.7c-0.7-0.1-1.5-0.3-1.7-0.4
		C193.7,209.3,192.1,209.8,190.4,210.4 M269.3,213.6c-2.4,1.4-7.3,5.8-7.3,6.5c0,0.5,0.6,0.3,1.7-0.6c2.5-2,5.8-4,7.1-4.3
		c1.3-0.3,1,0.3-0.4,1c-1.5,0.7-4.1,3.3-4.1,4c0,0.5,0.1,0.5,1.5-0.6c2.1-1.6,5.7-2.7,5.7-1.8c0,0.2-0.1,0.3-0.2,0.3
		c-0.4,0-2.9,2.1-3.1,2.6c-0.4,0.9,0.3,0.9,2.1,0c1.9-1,2.8-1.2,2.8-0.6c0,0.2,0.1,0.6,0.2,0.8c0.1,0.3-0.4,0.7-1.8,1.4
		c-7.8,3.9-15,11.3-18.7,19c-1.5,3.2-1.4,4.1,1.2,6.6c2.7,2.6,2.7,2.6,5.4-0.5c2.6-3,2.4-3.5-0.3-0.7c-1.9,2-2,2.1-2.5,1.6
		c-1.5-1.4,6.4-8.6,9.5-8.6c2.1,0,5,2.1,6.2,4.4c1.4,2.7,1.2,4.6-1.3,11.2c-1,2.7-0.8,3.7,0.9,4.7c2,1.1,2.2,0.9,4.2-3.1
		c1-1.9,2.1-3.8,2.4-4.2c0.3-0.4,1.8-2.3,3.2-4.2c2.9-4,4.7-5.6,8.3-7.6c1.2-0.7,2.9-1.6,3.7-2.1c2-1.2,5.6-2.5,6.4-2.3
		c1.2,0.3,0.8,0.7-1.3,1.4c-5.1,1.8-15.5,10.5-15.5,12.9c0,0.7,0.4,0.4,2.9-2.2c4.6-4.6,9.3-7.5,15.4-9.4l3.5-1.1l1,0.5
		c0.6,0.3,1.3,0.9,1.6,1.3c0.7,0.9,1.4,0.9,1.4-0.1c0-1.2-1-2.3-2.9-3.2c-2.7-1.3-4.1-2.3-7.6-5.8c-8.5-8.4-10.6-9.6-15.6-9
		c-8.3,1-17.6,7.2-24.6,16.3c-0.8,1-1.4,1.7-1.5,1.7c-0.7-0.7,7.7-10,12.3-13.5c4.2-3.3,9.5-5.5,15-6.2l1.4-0.2l-0.8-0.5
		c-1.9-1.2-4.7-1.1-7.6,0.1c-1.1,0.5-1,0.6-1.5-1.7C276.8,213.7,272.8,211.6,269.3,213.6 M358.3,230.6c-2.1,0.8-2.8,2.5-1.7,4
		c0.6,0.8,4.8,3.7,5.3,3.7c0.6,0,0.3-0.4-1-1.4c-3.2-2.6-2.2-5,2.3-5.5c1.7-0.2,1.7-0.2,1-0.5C363.1,230.3,359.6,230.2,358.3,230.6
		 M395.4,234.9c1.3,3.6,1.7,5.5,1.7,8.6c0,4.8-2,7.2-6.6,8l-2,0.3l1.1,0.2c3.8,0.7,8.9-3.2,8.9-6.8c0-0.5,0.1-0.7,0.3-0.6
		c1.1,0.7-0.1,4.6-1.9,6.1c-1.2,1.1-0.7,1,1.2,0c2.5-1.5,2.5-6,0-11.6C397.2,237.4,395,233.9,395.4,234.9 M220.2,238.7
		c-0.1,0.1-0.4,1-0.7,1.8c-2,5.5-7.8,11.5-14,14.5c-2.6,1.3-2.7,1.3-2.4,2.7c0.2,1.4,0.4,1.4,4.6-1.4c7.1-4.7,12-10.6,12.9-15.7
		C220.9,239.1,220.7,238,220.2,238.7 M391.5,241.2c0.2,2.3-0.5,4-1.7,4.5c-2.7,1.1-8.1,1.3-8.8,0.3c-0.4-0.5-0.3-0.5,1.5-0.8
		c3.4-0.6,7.8-3.6,8.2-5.8C390.9,238.3,391.3,239.1,391.5,241.2 M305.6,242.5c-10,2.7-15.7,8-19.6,18.3c-0.8,2.2-1.9,3.9-4,6.7
		c-0.6,0.8-1.7,2.5-2.4,3.8l-1.2,2.3l0.1,2.4c0.2,3,1,5.5,2.1,6c0.4,0.2,0.7,0.5,0.7,0.6c0,1.1,4.5,5.9,7.9,8.4
		c1.2,0.9,3,2.3,4.1,3.2c1.1,0.9,3.3,2.2,4.8,3c3.6,1.7,5.4,2.8,5.7,3.3c0.1,0.2,0.8,0.4,2,0.4c1.2,0,1.9,0.1,2.1,0.4
		c0.9,0.9,3.1-1.3,4.7-4.5c1-2,3.9-4.1,9.8-7.1c3.9-2,4.6-3.5,4.6-9.9c0-9.4-2.4-17.6-7.5-24.9c-2-3-1.7-2.8,1.8,0.8
		c7.7,8.1,11.7,17.1,13.1,29.7c0.3,3.1,1,5.2,2.4,7.3c1.2,1.9,2.3,4.4,2.6,6c0.2,1.2,0.6,1.6,0.9,1c0.6-0.9,0.1-3.6-1.1-6.2
		c-1-2.2-1.4-4.6-1.4-7.6c0-11.2-6.1-25-15.4-34.5c-2-2-4-3.9-4.5-4.2c-0.5-0.3-1.5-1-2.1-1.5C312.1,242.5,308.9,241.6,305.6,242.5
		 M401.3,243.2c1.8,4.9,0.6,9.2-2.9,10.9c-3.4,1.6-11.9,0.8-17.8-1.9c-1.2-0.5-2.4-0.9-2.7-0.9c-0.3,0-2.1-0.4-3.9-0.8
		c-1.8-0.4-3.3-0.8-3.4-0.7c-0.5,0.5,11.7,7.6,15.3,8.8c1.4,0.5,1.2,0.1-0.3-0.8c-1.6-1-5-3.6-4.9-3.7c0.1-0.1,1.8,0.5,3.8,1.1
		c2.4,0.8,3.9,1.2,4.2,1c0.3-0.1,2-0.2,3.8-0.2c4.4-0.1,7.8-1.6,9.4-4.1c0.5-0.8,0.6-0.9,0.7-0.5c0.2,1-1.6,3.1-3.7,4.3
		c-1.4,0.8-1.2,0.9,0.6,0.3c1.2-0.4,3.4-2.4,3.4-3c0-0.1,0.1-0.6,0.3-1l0.3-0.7l0.5,1c1.6,3.1-2.2,7.6-6.5,7.6
		c-0.6,0-0.7,0.1-0.4,0.3c2.3,1.5,6.9-0.6,8-3.7c1.1-2.9-0.5-9.9-2.6-11.7c-0.4-0.3-0.6-0.7-0.6-0.8s-0.2-0.5-0.4-0.8
		C401.1,242.7,401.1,242.7,401.3,243.2 M376.5,245.5c0.3,0.1,0.4,0.2,0.1,0.2c-0.2,0-0.6-0.1-0.9-0.2c-0.3-0.1-0.4-0.2-0.1-0.2
		C375.8,245.2,376.2,245.3,376.5,245.5 M235.5,247.3c-3.5,3.2-7,4.5-13.1,4.9c-5.5,0.3-5.8,0.4-7.1,2l-1.1,1.3l1,0.2
		c2.8,0.5,10.7-0.2,13.6-1.2c2.5-0.9,7-4.8,8.2-7.1C238.1,245.2,237.7,245.2,235.5,247.3 M264.4,250c-3.6,1.9-7.2,11.8-5.7,15.9
		c0.2,0.6,0.6,1.6,0.8,2.2c0.5,1.3,3.1,3.8,5.1,5l1.4,0.7l-0.2-0.9c-0.6-3.3,1.2-11.7,3.5-15.8c2.5-4.6,1.8-7.2-2.1-7.5
		C265.9,249.5,265.3,249.5,264.4,250 M199.3,251.1c-0.8,2.4-1,9.3-0.2,14.6c0.7,5.2-2.7,11.5-7.4,13.6c-1.8,0.8-2,1.1-0.8,1.5
		c2.4,0.7,8.1-2.2,9.4-4.7c0.9-1.8,1.5-6.8,0.9-8.4c-1.2-3.2-2.1-11.9-1.6-15.2C199.9,250.3,199.8,249.7,199.3,251.1 M172.2,251.9
		c-1.2,1-1.6,1.2-1.8,0.9c-1.1-2-10.8,2.4-15.8,7.1c-3.2,3-4.3,3.8-6,4.4c-1.7,0.6-5.4,2.6-6.8,3.8c-1.5,1.2-1.8,0.1-0.5-1.9
		l0.4-0.6h-1.5c-4.7,0-7.5,5.4-5,9.5c0.5,0.9,1.4,2.4,1.9,3.4c0.5,1,1.6,2.5,2.4,3.4c1.5,1.7,1.9,2,6.8,5.7c4.4,3.3,5.7,3.7,2.4,0.8
		c-1-0.9-1.9-1.8-1.9-1.9c0-0.1-0.7-1.1-1.6-2.1c-2.4-2.8-4.4-7.5-4.6-10.6l-0.1-1.2l1.1-0.1c1.9-0.1,3.2,0.7,6.2,4
		c5.4,5.8,8.8,6.4,13.1,2.2c2-1.9,5.1-6.9,6.6-10.6c0.3-0.8,1.2-2.9,1.9-4.7c0.8-1.8,1.8-4.6,2.2-6.1c0.5-1.5,1.1-3.1,1.4-3.5
		l0.6-0.7l0,1.1c0,2.7-1.5,9-3.3,13.9c-2.5,6.6-5.9,14.2-7.8,17.2c-1.3,2.1-1,2.6,0.5,1c4.3-4.5,10.6-18.8,12.6-29.1
		c1.1-5.6,1.1-5.2,0.2-5.7C174.2,250.4,173.9,250.5,172.2,251.9 M252.6,251.7c-1.8,4.8-1.3,12,1.1,14.7l1,1.1l0-4.6
		c0-4.3,0-4.7,0.8-7c0.4-1.4,0.8-2.5,0.8-2.6c0-0.1-1.8-1.3-3.1-2.1C253,251.1,252.8,251.3,252.6,251.7 M233,258.3
		c-1,0.1-2.2,0.4-2.6,0.5c-1,0.4-2.7,0.4-4.5,0c-2.9-0.6-1.4,0.6,2,1.6c3.3,1,4.8,1.3,8.4,1.8c4.5,0.6,6.5,1.5,10.9,4.7
		c0.9,0.7,1.2,0.8,1.5,0.5c0.4-0.4-3-3.7-6.1-6.1c-1.1-0.8-1.9-1.5-1.9-1.7C240.6,258.5,236.7,257.8,233,258.3 M270.6,263.6
		c-0.2,0.3-0.4,0.6-0.4,0.7c0,0.1-0.2,0.5-0.5,0.9c-2,2.9-1.1,12.5,1.3,14.3c1.1,0.8,1.1,0.8,0.9-0.1c-0.6-2.4,0.1-12.4,0.9-13.3
		c0.6-0.6,0.2-1.8-1.1-2.6C271.1,263.1,271,263.1,270.6,263.6 M228.1,264.6c-1.9,1.8-2.2,2.5-1.6,4c1,2.6,3.3,6.9,3.6,6.8
		c0.2,0,1.2-0.2,2.2-0.4c3.2-0.5,3.2-0.5,3.3-3.9c0.1-1.6,0.2-3.1,0.3-3.2c0.4-0.6-0.1-1.2-1.7-2.3
		C230.7,263.4,229.6,263.2,228.1,264.6 M240,270.7c-0.2,1.1,0.3,4.3,0.8,5.4c0.5,1,0.6,1.1,5.8,2c4,0.7,5.6,1.6,14,8.2
		c1.7,1.3,3.8,3.1,4.8,4c2.8,2.5,4.8,4,5.1,3.7c0.3-0.3-2.4-3.3-5.8-6.2c-1.4-1.2-3.5-3-4.5-4c-2-1.9-6.9-5.8-9-7.2
		c-2.2-1.5-3.4-1.9-5.5-1.9c-3,0-3.2-0.1-3.9-2c-0.3-0.9-0.8-1.9-1.1-2.2l-0.5-0.6L240,270.7 M181.7,276.2c0,1.1,0.2,2.8,0.5,3.9
		c2.3,9.6-4.7,16.4-14.9,14.6c-1.6-0.3-1.1,0.3,1,1.3c5.5,2.5,11.5,2,17.4-1.5c3.4-2,4.2-3.6,2.6-5.5c-3.6-4.3-4.8-6.8-5.8-12.8
		c-0.2-1.1-0.4-1.9-0.6-1.9C181.8,274.3,181.7,275.1,181.7,276.2 M231.7,277.7c-1.3,0.4-1.2,2.2,0.2,5c0.5,1,0.4,1,2.4,0.5
		c2.5-0.6,4.9-0.5,8.9,0.6c0.4,0.1,0.2-0.1-0.7-0.7c-0.7-0.5-2.3-1.7-3.5-2.8C235.8,277.3,234.6,276.9,231.7,277.7 M250.8,283.5
		c-0.8,2.9-2.5,5.2-4.2,6c-1.5,0.7-1.5,0.7,0.4,1.7c1.7,0.9,2.7,2.4,2.7,4.2c0,0.8,0.1,1,0.5,1c0.3,0,0.5,0.1,0.5,0.2
		c0,0.1,0.4,0.3,0.8,0.4c1.4,0.3,3.6,1.7,5.1,3.4c1.2,1.3,1.5,1.5,1.5,1c0-1.7-4-5.3-5.9-5.3c-0.7,0-0.7,0-0.7-1.4
		c0-2.3-0.9-3.8-2.4-3.7c-1.4,0.1-1.4,0-0.1-0.8c1.6-1,2.9-5.6,2.2-7.4C251.2,282.4,251,282.6,250.8,283.5 M138.5,283.8
		c-0.4,0.6-0.6,1.2-0.6,2.3c-0.1,4.8-0.1,4.6-0.6,4.6c-0.3,0-0.7,0.4-0.9,0.9c-0.2,0.5-0.8,1.1-1.2,1.2c-2.8,1.2-2.4,3.4,1.4,7.1
		c4.6,4.4,8,6.5,14.4,8.9c5.1,1.9,5.8,2.1,6.2,1.7c0.5-0.5,0.2-0.6-5.4-3c-7.1-3.1-11.4-6.1-13.1-9.3l-0.5-0.9l1.2,1.1
		c2.8,2.6,9.2,6.8,9.9,6.3c0.3-0.2,0-0.5-1.3-1.5c-6.5-4.4-10.1-8.6-9.3-10.6l0.3-0.8l1,1.3c1.8,2.4,17.7,11.5,20.1,11.5
		c1.1,0-1.4-1.5-7.8-4.8c-6.6-3.4-10.3-6.2-11.8-9.1c-0.6-1.1-0.6-1.1,1.6,1c2,1.9,7,5.2,7.9,5.2c0.9,0-0.2-1.1-3.2-3.2
		c-1.9-1.4-4.1-3.6-5.3-5.3c-0.8-1.1-0.4-1,1.3,0.5c3.9,3.3,11.9,8.1,15.2,9.1c1.1,0.3,2.9,0.9,3.9,1.2c5,1.7,2.4,0-3.5-2.3
		c-4.8-1.9-12.3-7-16.9-11.7C139,282.8,139.2,282.8,138.5,283.8 M235.4,285.5c-1.4,0.6-1.9,1.4-2.1,3.4c-0.3,3,0.2,3.2,1.9,0.9
		c0.6-0.8,1.5-1.9,2-2.4c1-0.9,1.1-1.1,0.8-1.8C237.9,285.2,236.3,285.1,235.4,285.5 M238.3,289.4c-2.9,1.4-4.4,4.4-4.2,8.2
		c0.2,3.5,0.6,4.2,2.9,4.7c0.8,0.2,2.5,0.8,3.9,1.4c5.1,2.1,11.6,2.7,14,1.5c1.6-0.8,1.1-1.6-0.7-1.2c-1.4,0.3-2.6,0-5.4-1.4
		c-3.5-1.8-4.2-2.8-2.6-4.1c0.5-0.4,1-0.8,1.2-1c1.2-1-1.7-0.9-4.4,0.2c-0.9,0.4-1.8,0.6-1.9,0.6s-0.8,0.5-1.5,1.1
		c-1.4,1.3-1.4,1.3-1.9,0.3c-0.5-1-0.1-5.6,0.8-8.3C239.4,289,239.4,288.8,238.3,289.4 M330.1,292.5c-3,1-5.3,3-8.5,7.5l-1.9,2.6
		l0.6,1.2c0.3,0.6,0.6,1.3,0.6,1.5c0,0.6,1.7,1.3,3.5,1.4c1.9,0.2,3.4-0.3,5.2-1.8c0.7-0.5,2.1-1.5,3.1-2.2c3.1-2.1,3.7-4.5,2.1-7.8
		C333.3,292.1,332.5,291.7,330.1,292.5 M346.9,300.1c-0.2,0.4-0.4,1-0.4,1.2c0,2.8-4.2,6.7-9.2,8.7c-3.9,1.5-4.3,1.8-5.1,3.6
		c-0.5,1.2-1.5,2.5-3.5,4.9c-0.6,0.7-1.1,0.9-2.9,1.3c-1.2,0.2-2.3,0.5-2.4,0.6c-0.8,0.7-5.6,0.6-7.4-0.1c-2-0.8-2.7-0.9-2.9-0.4
		c-0.1,0.2-0.8-0.1-2-0.8c-2.8-1.7-3.6-1.4-1.1,0.5c2.4,1.8,4.5,2.6,4.5,1.8c0-0.3,0.4-0.2,1.8,0.3c5,1.8,14.6-0.4,16.8-3.8
		c0.2-0.4,1.4-1.3,2.6-2.1c4.8-3.1,10.4-8.4,11.5-10.9c0.4-0.8,0.5,2.3,0.1,3.9c-0.1,0.7-0.9,2.7-1.7,4.5c-2.8,6.1-1,5.5,2.1-0.7
		c2-4,2.2-7.4,0.8-12.8C348.3,299,347.3,299.3,346.9,300.1 M135.5,304.4c0,2.8,3.1,12,5.1,15.1c0.6,1,1.8,2.8,2.5,4
		c2.9,4.6,4.5,5.9,2,1.6c-1.5-2.5-2.7-5.4-2.6-5.8c0.1-0.2,0.6,0.6,1.2,1.7c1,1.9,2.9,4.2,3.2,3.9c0.1-0.1-1-2.4-2.3-5.3
		c-2.7-5.7-4.3-9.7-4.8-11.6c-0.5-1.8-0.6-2.1-2.2-3.2c-0.8-0.5-1.5-1.1-1.5-1.2c0-0.1-0.1-0.2-0.3-0.2
		C135.7,303.3,135.5,303.8,135.5,304.4 M132.1,306.8c-1.3,0.6-0.5,3.5,1.5,5.7c2.1,2.2,2.3,1.6,0.5-1.8c-0.9-1.8-1.1-2.4-0.9-2.8
		C133.7,306.8,133.2,306.2,132.1,306.8 M169.6,311.2c-0.1,0.1-1.3,0.3-2.6,0.4c-4,0.3-3.9,1.2,0.1,1c2.2-0.1,3.4-0.6,3.4-1.3
		C170.5,311,169.8,311,169.6,311.2 M128.3,311.8c-0.9,1-0.8,1.6,0.4,3.3c4.3,6,4.7,7,2,5.3c-1.5-1-3.7-3.4-4.1-4.6
		c-0.4-1.1-1.1-1.2-1.2-0.1c-0.3,2.8,2.6,5.5,7.6,7c2.8,0.8,3,0.8,3,0.3c0-0.2-0.1-0.4-0.2-0.4s-1-1.2-1.9-2.6c-0.9-1.4-2-3-2.5-3.4
		c-1.3-1.3-1.5-1.8-1.3-2.7l0.2-0.8l1.6,1.5c2.2,2,3.3,2.8,3.3,2.2c0-0.3-3.5-3.9-4.6-4.7C129.6,311.2,128.8,311.1,128.3,311.8
		 M147.3,313.7c-0.7,0.4,0,0.7,7.5,2.6c4.7,1.2,10.6,0.5,12.4-1.4c1-1.1,0.7-1.2-0.6-0.3c-2.5,1.5-7.3,1.5-13.8-0.2
		C148.9,313.4,147.9,313.3,147.3,313.7 M123.3,320.4c-2,3.1,0.2,5.1,8.9,8.2c2.7,1,3.2,0.8,0.5-0.2c-1.5-0.5-4.8-2.6-4.5-2.8
		c0,0,1.7,0.5,3.7,1.2c4.1,1.4,5.8,1.4,3,0.1c-1.9-0.9-1.4-1,2.1-0.3c1.9,0.4,3.7,0.3,2.3-0.1c-0.2-0.1-1.6-0.5-3-1.1
		c-1.5-0.6-4-1.4-5.7-1.9c-4.4-1.3-5.9-2.3-5.9-3.9C124.6,318.7,124.2,319,123.3,320.4 M123.8,327.2c0,0.5,3.2,6.1,4.8,8.4
		c2.4,3.6,5.1,6.1,7.6,7.1c1.1,0.5,0.9,0.2-0.6-0.7c-1.5-1-3.8-3.4-4.5-4.8c-0.7-1.3-0.2-1.6,0.5-0.4c0.6,1,3.6,3.9,4,3.9
		c0.4,0,0.3-0.3-1.2-2c-2.5-2.8-3-3.8-0.8-1.9c1.6,1.5,5.5,3.8,6.3,3.8c0.6,0,0.3-0.4-0.6-0.8c-2.3-0.8-6.6-4.9-9.2-8.7
		c-1-1.5-1.5-1.9-2.6-2.3c-0.7-0.3-1.5-0.6-1.7-0.8C124.4,327.4,123.8,327.1,123.8,327.2 M119.4,327.8c-1.2,1.2,0.1,4.4,2.7,6.8
		c3,2.8,4.2,2.6,1.4-0.1c-2.7-2.6-3.3-4.4-0.7-2.2c2.2,1.9,2.7,1.7,1.1-0.5c-1.8-2.4-2-2.7-1.5-2.9c0.8-0.3,0.4-0.7-1-1.1
		C119.7,327.3,119.9,327.2,119.4,327.8 M118.4,334.2c-0.4,1.4-0.3,2.1,0.8,3.5c0.8,1,3.4,2.8,3.9,2.6c0.2-0.1-0.2-0.4-0.9-0.8
		c-1.7-1-2.6-2-2.6-2.7c0-0.8,0.1-0.8,1.2-0.1c2.2,1.7,3.3,1.8,1.6,0.2c-0.5-0.5-1.4-1.6-2-2.5C119,332.6,118.9,332.6,118.4,334.2
		 M115.7,340.3c-1.8,1.8-1.3,3.1,1.4,3.9c3.8,1,10.3,2.1,7,1.1c-4.9-1.4-5.1-1.5-5.1-2c0-0.3-0.1-0.5-0.2-0.5
		c-0.1,0-0.3-0.2-0.4-0.4c-0.1-0.3,0.2-0.3,1.4,0.1c1.7,0.5,6.1,1.2,6.3,1c0.1-0.1-0.9-0.5-2.1-0.9c-3.4-1.1-5.8-2.3-6-2.8
		C117.8,339,116.7,339.2,115.7,340.3 M113.9,345.5c-0.2,0.1-0.7,0.3-1.1,0.3c-0.4,0-1.1,0.2-1.5,0.4c-0.4,0.2-1.8,0.6-3,1
		c-4.2,1.1-6,3.5-5.4,7.2l0.1,1l2-1c1.1-0.6,3.1-1.3,4.3-1.6c2.7-0.7,4.1-1.3,4.6-2.2c0.5-0.8,1-4.1,0.7-4.8
		C114.4,345.1,114.4,345.1,113.9,345.5 M107.7,356c-4.8,0.7-7.8,2.5-9,5.5c-0.3,0.6-0.8,1.9-1.3,2.9c-1,2.2-1,2.2,0.5,2
		c1-0.1,1.6-0.4,2.8-1.5c2.6-2.2,5.5-3.4,8.6-3.4c2.3,0,3-0.4,1.4-0.6c-2.9-0.4-4.7-0.2-8.8,1.1c-1.2,0.4,0.2-0.9,1.7-1.6
		c1.3-0.6,2.2-0.8,4.8-0.9c4.6-0.3,4.9-1,0.5-1c-1.9,0-2.1-0.2-1.3-1c0.7-0.6,6.8-0.4,9,0.3c1.6,0.5,2.1,0.3,1.1-0.4
		C115.9,355.7,112.4,355.3,107.7,356 M104.9,367.3c-9.3,2-13.1,4-14.9,7.9c-2.1,4.3-1.8,6.4,1.4,8.4c5.2,3.4,17,8.3,17.5,7.4
		c0.6-1,0.8-2.6,0.6-5.3l-0.2-2.8l1.3-2.2l1.3-2.2l0-2.7c0-3-0.7-5.7-1.9-7.5l-0.7-1.1l-1.7,0C106.6,367.1,105.4,367.2,104.9,367.3"
		/>
</g>
</svg>
