<svg xmlns="http://www.w3.org/2000/svg" viewBox="0 0 410 410"><path d="M105.4 16.2c-2.5 4.3-3.1 5.3-5.3 8.3-3.2 4.4-3.5 4.3-3.7-1.1-.1-1.8-.2-3.3-.3-3.3-.1 0-.2.1-.2.2 0 2.8-2.6 11.7-4 13.7-.3.4-.6 1-.7 1.3-.5 1.8-1.4-1.9-1.5-6.6 0-1.4-.1-1.3-.4.9-.6 4.3-1.6 8.4-2.3 9.3l-.6.9-.4-.6-.4-.6-.3.7c-.1.4-.3 1.2-.4 1.7-.2 1.2-1.6 3.9-2 3.9-.2 0-.6-.7-1-1.5l-.9-1.5-.2 2c-.8 8-2.2 8.5-3.7 1.3-.3-1.4-.5-2.3-.6-2s-.1 1.7-.3 3.1c-.1 1.4-.4 3.7-.5 5.1-.4 3.9-.9 4.4-1.9 2.3-.8-1.6-.9-1.5-1.1.6-.6 6.6-.6 6.6-1.6 6.4-.9-.2-2-2.6-2.3-5l-.2-1.7-.2 1.2c-.1.7-.4 3.1-.6 5.3-.5 5.3-1 6-1.5 2.4l-.3-2-.3 1.5c-1.7 8-2.3 9.5-3.1 7.5-1-2.5-.9-2.5-1.3.7-.3 3.1-.7 4.3-1.6 4.8-.6.3-1.1-.1-1.1-1s-.4-.5-.6.6c-.2 1.3-1.5 4.1-1.9 4.1-.6 0-1.5-4.2-1.5-6.7 0-1.6-.1-2.1-.3-1.9-.1.2-.3.9-.3 1.6 0 2.4-2.4 13-3.3 14.9l-.6 1.2-.6-1.1c-.3-.6-.6-1.4-.6-1.8 0-1.4-.4 0-.8 2.6-.9 7.2-2.9 6.3-3-1.4 0-2.4 0-2.4-.2 1.1-.4 6.7-.8 10.8-1.5 13.8-.4 1.6-.6 3.1-.6 3.3 0 .4 1-.8 1.1-1.2 0-.1.5-.8 1-1.5s1.5-2 2.1-2.8c.6-.9 2.5-3.6 4.4-6 1.8-2.4 6-8.5 9.3-13.5 3.3-5 7.9-11.5 10.1-14.5 2.3-3 5.2-7 6.5-8.9 3-4.4 6.9-9.6 12.7-16.8.6-.7 1.6-2 2.2-2.8 2.3-3 4.6-5.8 6.3-7.5l1.7-1.8-.2.9c-.1.5-.7 2.5-1.3 4.3-1.2 3.8-1.8 5.9-3.7 13.7-.7 3-1.6 6.5-1.9 7.7-1.3 5.4-5.4 17.3-9.7 28.7-3.3 8.5-3.6 9.4-3.6 10 0 .3-.5 1.9-1.2 3.7-1.2 3.1-3.2 10.1-3 10.3.1.1.7-.6 1.4-1.5s1.6-1.9 1.9-2.2c.3-.3 1.2-1.3 2-2.3 1.5-1.8 5.3-6 9-9.8 2.2-2.2 2.4-2.9.5-1.4-2.8 2.3-6.2 3.8-6.2 2.7 0-.3 1.6-2.5 3.4-4.4 5.4-6.1 5.9-6.7 3.7-4.9-7 5.7-3.4-.5 6.1-10.6 3.6-3.8 3.7-3.9 1.8-2.4-1.1.9-3 2.3-4.2 3.1-1.2.8-2.3 1.6-2.3 1.8-.3.4-.8.3-1.1-.3-.4-.6 1.2-3.5 3.4-6.3 2-2.5 2-2.6.6-1.6-3.4 2.3-3.3.5 0-2.9l1.8-1.9-.9.1c-2.1.2-1.4-1.1 2.9-5.5 2.1-2.2 3.3-3.6 2.7-3.1-.6.4-2 1.4-3.2 2.2-1.2.8-2.2 1.6-2.3 1.8-.5.8-1.6.5-1.6-.3 0-1.2 1.7-3.4 6.1-7.9 2.3-2.3 4-4.2 3.8-4.2-.4 0-2.5 1.6-3.8 2.8-1.3 1.2-3.2 1.9-3.2 1.2 0-.4 2.1-3.6 3.4-5 1-1.2.9-1.2-.7 0-.9.7-2.1 1.4-2.3 1.4-.1 0 0-.2.1-.5s.4-.9.6-1.4c.4-1 3.5-5.2 5.7-7.7 1-1.1.7-.9-1.4 1-3.5 3.3-4.3 3.4-2.6.4.9-1.6.9-1.7.3-1.1-.6.6-.7.6-.9.2-.2-.6.2-1.3 2.8-4.6 1.2-1.6 2.9-3.6 3.6-4.6l1.3-1.7-1.9 1.8c-3.1 3-4.1 2-1.5-1.4 1.5-1.9 1.5-1.9.5-1.2-1.8 1.4-1.8 1.4-1.6.1.4-2.4 1.5-6.1 2.4-8.1 1.2-2.8 1.1-2.8-.3-.3m192.5-.9c.4.3 1.7 1.1 3.1 1.9 4.2 2.4 8.6 5.5 9.1 6.4l.4.8h-1.3c-1.6 0-1.1.6 1.1 1.1 3 .7 7.1 2.9 6.6 3.6-.3.4-4.6.4-6.7 0-.5-.1.8.5 2.9 1.3 6.7 2.5 7.7 2.9 7.8 3.5.1.5 0 .5-1.4.3-2-.2-2-.1.1.7 5.7 2.1 7.2 3.7 3.1 3.3-5.2-.5-5-.5-4.2 0 .9.5 3.8 1.5 6.8 2.4 5.8 1.6 7.1 2.1 8.2 2.7 1.6.9 1.4 1-.9.8-2.6-.2-2.5-.2.9 1.2 5.3 2.1 5.8 3.6.6 2.1-4.9-1.4-4.3-.5.8 1.1 7.1 2.2 11.1 5.1 5.1 3.7-2.2-.5-3.7-.7-3.4-.3.3.3 9.1 3.2 11.4 3.8 1.1.3 2.8.9 3.6 1.3 3.1 1.5 5.4 2.3 5.4 1.6 0-.3-3.8-3.4-8.6-6.9-3.7-2.7-8.8-6.8-11.8-9.5-2.5-2.2-4.8-4.1-8-6.6-1.6-1.3-5.2-4.5-7.9-7.1-6.1-6-6.6-5.8 5.8-2.5 10 2.7 14.5 4.1 21.6 6.9 1 .4 4.7 1.7 8.3 2.9 3.5 1.2 7.5 2.6 8.9 3.1 1.4.5 3.2 1.1 4.1 1.2.9.2 3.5 1 5.9 1.9 6.9 2.6 11 3.9 11.8 3.9h.8l-.9-.6c-.5-.3-1-.7-1.1-.8s-2.5-1.2-5.4-2.5c-6.9-2.9-13.5-6.9-18.1-10.9-2-1.7-1.6-.8 1 2.1 2.6 2.9 2.2 3.4-.8.9-1.6-1.3-1.8-1.2-.7.3 2.4 3-2.3.7-6.6-3.2-2.4-2.2-3.9-3.3-3.9-2.9 0 .2 2.3 2.5 3.7 3.8.5.4.6.6.4.8-.6.7-3.6-1.2-6.6-4-2.5-2.4-3.4-3.1-3.4-2.5 0 .1.7.9 1.5 1.7 3.9 3.9-1.5 1.4-8.8-4.1-2.2-1.6-2.9-2.1-2.2-1.4 4.4 4.7 3.1 5.6-1.7 1.1-1.7-1.6-1.9-1.5-.6.3 1.1 1.5 1.1 1.6.2 1.3-.4-.1-1-.3-1.4-.4-.4-.1-1.7-.9-2.9-1.8l-2.3-1.6 1.5 1.5c.8.8 1.5 1.6 1.5 1.7 0 .7-5.3-1.7-8.3-3.7-1.4-1-1.5-1-1.5-.4.2 1.7-5.9-.1-10.3-3.1-2.9-2-3.3-1.4-.4.7 3.2 2.4 2.2 2.8-2 .8-1.2-.5-2.9-1.3-3.7-1.6-.9-.3-2.7-1.1-4.1-1.7-2.7-1-3-1.1-2.1-.4M262.1 26c-1.2.3-1.6.5-.7.6.7 0-.9.3-3.9.8-1 .1-3 .4-4.4.7-1.4.2-4.1.6-6 .8-3.1.4-4.7.7-11.2 2.5-.9.2-1.4.5-1.2.5.2.1 1.8-.3 3.5-.7 3.2-.9 6.8-1.4 13.3-1.9 2.1-.2 4.5-.5 5.3-.7 3.8-1.1 8.9-.7 13.7 1 3.8 1.3 4.3 1.5 6.1 2.7.8.5 2.7 1.7 4.1 2.6l2.7 1.6-1.2-1.2c-.7-.7-1.9-1.7-2.8-2.3-4.7-3.1-4.6-3-3.7-2.8 1.3.2-2.8-1.6-5.2-2.3l-2.2-.7h2.4c4.7 0 10 2 14.5 5.6l2 1.6-2.2-2.1c-1.5-1.5-2-2.1-1.5-1.9 1.8.7 5.3 3.8 7.4 6.4 1.1 1.4 1.4 1.2.4-.3-1.3-1.9-3.7-4.6-4.7-5.2-.5-.3-.8-.6-.8-.6s1 .5 2.1 1.2c8.1 5.5 11 16.3 6.7 25.1-1.2 2.5-1 2.8.4.4 6.8-11.7-1-28.4-14-30.3-1-.1-3-.4-4.5-.7-3-.5-12.7-.8-14.4-.4m60.9 1.5l20.4 16.6c22.5 18.3 19.3 16.4 26.8 16.2 5.1-.1 5.3-.2 6.4-2.3.9-1.7 3.1-4.3 3.7-4.3 1.9 0 6.5-3.6 5.6-4.4-.1-.1-62.4-22.2-63.3-22.5-.4 0-.2.2.4.7m-87.5-.3c-.1.1-2 .4-4.4.7-2.3.3-4.5.8-4.8 1-.3.2-2.8 1.1-5.5 2-8.3 2.8-19.8 8.3-23.1 11.1l-.8.7 1.1-.6c3.9-2.2 5.1-2.9 5.7-3.1 1.3-.3 1.6-.4 2-.8 2.3-2.3 17.7-8.2 24.2-9.2 1.8-.3 4.1-.7 5.1-.9s2.1-.4 2.4-.4c.3 0 .8-.1 1-.3.3-.2-.1-.3-1.2-.3-.8 0-1.6 0-1.7.1m-26.8 3.2c-8.6 1.8-23.7 8.8-31.5 14.6-14.3 10.6-22.2 17.9-26.7 24.6-2.8 4.1-2.8 4.2-.3 1.2 4.1-4.9 11.7-13 12-12.7.1.1-.9 1.3-2.1 2.7-1.2 1.4-2.5 2.9-2.8 3.3-.8.9 1.6-1.2 5.8-5.1 3.7-3.5 8.5-7.6 8.5-7.4 0 .1-1.6 1.5-3.5 3.2-5 4.4-15.1 15.1-15.1 16 0 .1 1.1-1 2.5-2.3 13-13 23.2-21.6 32.2-27.2 2.1-1.3 3.7-2.4 3.6-2.5-.3-.3-2.9.9-6.8 2.9-2.3 1.2-4.1 2.1-4.2 2-.4-.4 6.7-4.4 11.2-6.3 1.7-.7 3.9-1.7 4.7-2.1 1.9-1 2.1-1 1.1-.1-1.2 1-.4.8 2.1-.7 2.8-1.6 4.2-2.2 8.7-3.3 5.6-1.5 6.1-2 .6-.8m49.8-.4c-3.7.3-14.1 3-12.3 3.2.1 0 1.5-.3 3.1-.7 2.9-.7 8.8-1.2 7.7-.7-.3.1-.9.3-1.3.3-1.2 0-7.2 1.3-9.7 2.1-1.3.4-3.2.9-4.4 1.3-2.2.6-10 3.3-10.2 3.5-.7.7 2.2.2 6.1-1.1 1.5-.5 3.3-1 4-1.1.7-.1 2.7-.7 4.5-1.4 3.1-1.1 3.6-1.2 7-1.4 4.3-.3 4.8-.4 2-.7-1.1-.1-2-.3-2-.5 0-.3 4.2-.1 6.1.4.7.1 1.6.2 2.2.1 2.2-.4 8.7 1.3 12.3 3.1 8.6 4.3 13.2 9.8 13.1 15.7 0 2.9.1 3.1.8 1 .4-1 .4-1.6.3-2.7-.1-.8-.2-1.9-.3-2.6-.1-3.1-3.3-7.2-7.1-9.3-.8-.5-1-.5-.8-.2.6.8-.2.5-1.9-.6-3.8-2.6-10.5-4.9-16-5.5-1.4-.2-2.1-.4-1.6-.7 1.5-.9 12.1 1.5 17.3 4 4.1 1.9 3.4.8-.8-1.3-2.9-1.4-6.2-2.5-8.8-3-1.6-.3-1.7-.4-.8-.4 1.6 0 4.9.9 8.5 2.3.3.1.5.1.3-.1-.1-.2-1.3-.7-2.8-1.1-1.4-.5-2.9-1-3.3-1.2-1.7-.9-5.4-1.1-11.2-.7m19.7 1.2c0 .1.7.5 1.5 1.1 2 1.2 4.2 3.4 6.3 6.2.9 1.2 2 2.6 2.5 3.1 1.5 1.7 2.3 3.5 2.4 5.9.1 2.1.4 2.7.8 1.4 1.2-4.7-5.1-13.5-12.4-17.2-.6-.4-1.1-.6-1.1-.5m-67.7 2.7c-.4.2-.5.4-.4.4.1 0 .6-.2.9-.4.4-.2.5-.4.4-.4-.1 0-.6.2-.9.4m53.2.5c.6.2 1.6.4 2.3.5 1 .1 1 .1-.5-.4-1-.3-2-.5-2.3-.5-.4 0-.1.2.5.4m-57.4 1.3c-1.6.8-4 2-5.2 2.7-1.2.7-3.7 2.1-5.4 3.1-10.3 5.9-22.7 17-27.9 24.8-1.1 1.7-2.8 4.2-3.7 5.6-1.5 2.3-4.4 7.7-4.4 8.2 0 .2 1.4-2.1 3-5 .5-1 1.4-2.2 1.9-2.8l1-1.1-1.3 2.4c-3 5.7-4.2 8.6-3.8 9.3.2.4.4.3 1.5-1.6 1.4-2.4 5.8-8.8 6.9-10.2l4-5.1 3.3-4.1-4 4c-2.2 2.2-4.9 5.3-6.1 6.8-2.5 3.3-2.6 3.4-1.7 1.9.7-1.3 4.5-6.4 6.1-8.2 3.6-4.1 10.6-11.4 13.6-14.1 2-1.8 4-3.6 4.5-4.1 4.1-3.8 10.4-8.2 17.4-12 4.4-2.3 4.4-2.4.3-.5m23.8 1.2c-3.4 1-7.8 2.5-9.7 3.3-3.7 1.6-8 3.2-8.2 3 0-.1.7-.7 1.6-1.4 2.1-1.6 2.4-1.9 1.7-1.6-.8.3-7 3.8-9.1 5.2-2.3 1.6-2.5 1.7-2.5 1.5 0-.2 4.6-3.6 5.9-4.4.6-.3 1-.7 1-.7 0-.4-7.9 4.4-10.3 6.3-2.3 1.8-2.9 2-1.3.4 3.8-3.6 13-9.2 20.2-12.1 2.6-1.1 2.5-1.3-.1-.4-1.1.4-2.3.8-2.8.9-.5.1-1.9.9-3.2 1.7-1.3.8-3.8 2.3-5.5 3.3-12.1 6.8-21.8 16.1-28.4 27.2-1.9 3.1.3 1.2 2.7-2.4 2.9-4.3 5.5-7.4 8.5-10.4 3.9-3.8 4.1-3.4.4.4-2.3 2.4-5.8 6.8-7.1 8.9-.6 1 .3 0 2.6-2.8 1.4-1.7 4-4.6 5.8-6.3 3.6-3.5 3.4-3-.6 1.2-5.9 6.4-5.8 6.9.1 1.1 6.5-6.3 9.8-9 14.7-11.9 3.2-1.9 2.9-1.5-.7 1-4.2 2.9-6.1 4.4-7.8 6-1.2 1.1-1.2 1.2-.3.6.6-.4 2.2-1.5 3.6-2.3 1.4-.8 3.7-2.3 5.2-3.3 6.2-4.1 16.4-8.7 24.8-11.1 3-.9 6.8-2.3 7-2.6.2-.5-2.6.1-8.2 1.7m19.7-.3c-3.7.2-7.6.7-8.8 1.1l-1.3.4 1.9-.1c15.8-1.1 20.2-.8 27.2 1.9.4.1.5.1.3-.1-1.8-1.9-12.5-3.7-19.3-3.2m-5.9 2.4c-9.9 1.3-16.9 2.8-22 4.8-6 2.4-15.9 7.6-18.7 9.9-.7.6-2.5 2-4 3.2-3.3 2.6-9.9 8.9-9.7 9.1.1.1.7-.4 1.4-1 8.6-8.1 22.6-17.3 30.3-19.8 4.4-1.4 7.6-2 4.3-.8-1 .4-3 1.1-4.4 1.6-2.6 1-7.7 3.6-7.3 3.8.1 0 1.1-.3 2.1-.8 12.9-5.9 27.8-7.9 40.1-5.3 3.1.7 3.5.7 1.6 0-5.9-2.1-14.9-2.7-24.1-1.6-3 .4-3.8.3-2.3-.1 7.8-2.4 19.8-1.7 28.9 1.5 2.1.7 4.5 1.5 5.3 1.7 3.2.8 3.7 1 5.3 2.2.9.6 1.6 1.1 1.7 1 .2-.2-2.4-2.3-3.7-3-6.9-3.3-9.2-4.1-14.1-5.2-4.9-1.2-8-1.5-10.7-1.2M91.3 44.5c-1.7 2.2-6.9 9.2-11.6 15.5S67.6 76.2 63.3 82c-4.3 5.8-9.6 12.8-11.6 15.6-2 2.8-4.3 5.7-5.1 6.6-2.1 2.5-2.2 2.7-1.4 4.1.6 1 .7 1.2 1.3 1 3.7-.9 10.6-.3 13.4 1.1 1.4.7 3.7.8 6.1.3 1.8-.4 5.6-1.8 5.7-2.2.1-.2 5.2-15.5 11.5-34.1s11.3-33.9 11.3-33.9c-.2 0-1.6 1.7-3.2 4m209-1.9c0 .1.2.7.4 1.3 1.2 3.4 1 8.4-.6 13.5-.1.3.2-.1.6-.8.9-1.6 1.4-4.3 1.5-6.8 0-2.8.6-1.8.7 1.3.4 6.6-4.4 13.7-10 14.9-1.3.3-1 .7.3.5 8.7-1.4 14-15.4 8.4-22.3-.3-.4-.7-.9-.9-1.2-.2-.4-.3-.5-.4-.4m-64.8 2.1c-5.1.3-11.2 2.3-16.8 5.2-3.8 2-3.2 2.1.9.1 8.6-4.1 12.5-4.9 24.2-4.7 7.5.1 8.2-.1 2.1-.7-3.4-.2-5.7-.2-10.4.1M191.6 46c-1.1.8-1.4 1.1-.8.8.7-.4 1.9-1.4 1.7-1.4 0 .1-.4.3-.9.6m47.4 0c-7.7 1.6-11.1 2.7-17.7 5.8-2.1 1-4.3 2-5 2.2-.7.3-2.5 1.3-4 2.2-1.5.9-3.9 2.4-5.3 3.2-3.4 2-11.4 8.3-11 8.7.1.1.9-.5 1.8-1.2 4.6-3.6 14.6-9.9 15.8-9.9.1 0 2.8-1.3 6-2.8 6-2.9 12.8-5.6 16.6-6.6 2.2-.6 4.5-1.4 4.5-1.7-.1-.2-.1-.2-1.7.1m-57.1 1.2c-4.1 2.3-14.2 10.9-17.3 14.8l-.9 1.2L165 62c1.9-1.8 1.5-1.1-.6 1.3-1.5 1.7-5.4 6.5-8.9 11.2-1.5 2.1.8-.5 3.5-3.8 7.2-8.8 15.5-16.8 23.9-22.9 2.3-1.8 1.8-2.1-1-.6m8.2 1.4c-1.6 1.1-8.4 6.8-9.9 8.4-1.6 1.6-1.3 1.5 4.8-3.5 5.4-4.4 7.9-6.8 5.1-4.9m67.4 1.4c-5 .3-12.4 1.6-15.3 2.6-6.7 2.4-10.7 5-12.3 8.2-.3.6-1.1 1.9-1.7 2.8-3.1 4.7-3.8 9.3-2.1 12.5.8 1.4 2 2.7 1.6 1.7-1.3-3.2-1.3-3.2-1.1-5.5.2-3.9.8-4.8 1-1.5.1 2.6.6 4.1 1.3 4.3.3.1.3-.1.1-.6-1.2-4.3.5-11.4 3.6-14.9 1.1-1.3 1.4-1.3.4 0-1.8 2.3-1.7 2.5.4.6 3.9-3.6 4.7-4.3 6.9-5.3 1.2-.5 2.3-1.1 2.5-1.3.4-.3 2.3-.9 3-.9.2 0-1.1.8-3 1.8-5.8 3.1-9.1 6.4-11 11.2-.8 2-.4 2.3.6.5 3.5-6.6 14.9-14.8 20.6-14.8 1.1 0 .6.4-1 .8-1.4.3-7.7 3.2-7.5 3.4.1.1.8-.2 1.6-.6 1.4-.6 4.4-1.5 4.4-1.3 0 0-.8.6-1.8 1.2-1.6 1-3.9 3-3.4 3 .1 0 .8-.4 1.6-.9 2.4-1.6 10.5-5.1 12.5-5.5 2.4-.4 3.4-.3 2 .1-1 .3-.9.3 2 .3 3.4 0 5.6.3 4.7.6-.3.1-1.3.2-2.3.2-3.1 0-7.6 1.3-9.1 2.5-.6.5-.6.5.7.1 5.8-1.8 11.9-2.2 14.8-.9 3 1.3 3 1.2-1.5 2.2-1 .2-2 .6-2.1.7-.2.2-.1.2.4.1 4-1 6.5-1.1 8.4-.1.6.3 1.3.6 1.5.6.8.2 2.8 1.9 4.1 3.6 3 4 3.9 6.6 4.8 14.1.1.5.1-.7 0-2.7-.2-8.6-3.8-14.1-12.1-18.3-1.1-.5-2-1.1-2.1-1.2-.8-1.3-10-4.2-12.6-3.9-.3.3-1.9.4-3.5.5m-72 .6c-.1.2-1.3 1.3-2.7 2.5-2.5 2.1-6.3 5.8-10.3 10.3-2.5 2.7-2.2 2.3 1.2-1.9 3.1-3.7 8.6-9 11.1-10.8.8-.5.9-.5.7-.1m119.5.7c-.1.1.4.9 1.1 1.8 1.8 2.3 1.6 4.9-.6 7.9-1.3 1.7-.7 2.4.6.7.4-.5.7-.7.7-.6 0 .8-1.1 3.5-1.5 3.8a7 7 0 0 0-1 .8c-.9.6-.3.7.9.1 4.3-2.2 5.4-10.1 2-13.6-1.2-1.1-1.9-1.4-2.2-.9m79.4 3.2c-7.3 2.5-8.1 8.1-1.6 11.2 2.9 1.4 3.2 1.4 6.9-.4 3.1-1.5 3.3-1.5 5.4-1.6h2.2l-.1-.9c-.2-1.4-1.8-2.9-3.1-3-.9-.1-1.1-.2-1.6-1.1-.7-1.2-1.8-2-3.3-2.2-.9-.1-1.2-.3-1.5-.9-.3-.6-1.5-1.7-1.8-1.6-.1 0-.7.2-1.5.5m-80.1 4.1c-1 5.5-1.6 7.1-3.8 10.1-1.9 2.6-4.1 4.4-5.6 4.6-1 .2-4.4 1.5-4.4 1.8 0 .4 1.3.6 2.7.3 5.2-1.1 8.7-5.1 10.8-12.4.6-2.1 1.2-6.3.9-6.3-.2 0-.4.8-.6 1.9m-151 1.8c-5.2 2.7-10.6 7.7-15.1 14.2-1.3 1.9-.8 1.5 1-.8 2-2.5 4.5-5.4 5.4-6.1.7-.5.7-.5-.1.4-.4.5-1.7 2.1-2.8 3.6-1.1 1.5-2.9 3.7-4 5.1-1 1.3-1.9 2.5-1.8 2.5.3.3 1.4-.9 3.1-3.2 1.8-2.6 9-10.3 11.3-12.2.6-.5 1.4-1.1 1.7-1.5.4-.3 1.4-1.1 2.2-1.7 2.4-1.7 2.2-1.8-.9-.3m117.7.9c-3.8 1.3-4.5 1.4-16.4 1.3-9.6-.1-11.5 0-13.2.4-1.1.2-2.3.5-2.6.5-1.6.2-4.9 2.6-5.9 4.3-1.7 2.8-.8 8.6 1.9 11.7l.4.5-.2-.5c-.1-.3-.5-1.4-.8-2.4-.8-2.2-1.1-5-.7-5.8.2-.3.4-1 .6-1.6.5-1.5 3.1-4.2 4.1-4.2.1 0-.3.6-.9 1.4-1.2 1.6-2.2 4.3-2.1 5.7.1.9.1.9 1.1-1.4 1.7-4 4-6 7.9-6.7.9-.2 1.6-.4 1.7-.5.1-.1 3.9-.2 8.6-.2 10.2 0 15.5-.7 17.8-2.5.8-.7.5-.7-1.3 0m102.7 1.2c-1.4 2-3.6 2.5-5.7 1.5-1.7-.9-1.9-.5-.6 1 .5.6 1.2 1.6 1.5 2.2.7 1.4 1 1.5 1.6.3.3-.7.7-.9 1.5-1.1.6-.1 1.2-.3 1.3-.5.4-.4 1.3-.3 3.1.3 2.7.9 2.8.2.4-1.6-1-.7-1.5-1.3-1.7-1.9-.3-1.1-.7-1.2-1.4-.2m-45.4.6c-.9.2-4.1.6-9.3 1-3 .3-5 1-5.9 2.2-.3.5-1.6 2.2-2.9 3.9l-2.2 3.1.1 1.9c.1 1 .3 2.3.5 2.8l.4.9v-1.6c.1-5.3 2-8.4 6.2-9.6 3.4-1 8.6-2.1 9.8-2.1.9 0 1.8-.3 3-.8.9-.4 2.2-.9 2.9-1 1.1-.2 1.2-.2.6-.5-1-.3-2.1-.5-3.2-.2m28.7.4c-.4.1-.1.5 1.4 2 1.1 1.1 2 2.3 2.2 2.9.2.6.4.9.6.9.4-.2.3-1.3-.1-2.4-.4-.9-.4-.9.1-.9.3 0 .6-.2.6-.3.2-.7 1.6.5 2.3 1.9.8 1.5 1 1.5 1 0 0-2.8-4.4-5-8.1-4.1m-10.1.4c-2.6.4-3 1-1.3 2.1 1.5 1 2.7 2.4 3.9 4.5.5.9 1 1.5 1.1 1.4.3-.5-.3-2.6-1.3-4-1.5-2.2.3-2.1 2 .2l.8 1.1v-.8c0-.4-.2-1.2-.5-1.6-.5-.9-.3-1.2.3-.5.2.2.5.4.7.4s.4-.2.4-.4c0-1 2.1.7 2.9 2.4l.6 1.3-.1-1.2c-.6-3.8-4.1-5.7-9.5-4.9m-9.6 3.4c-.3.1-2.3.7-4.4 1.4-2.1.7-5.1 1.5-6.6 1.8-3.3.7-3.3.7-3.8 1.4-.3.5-.3.5 1.1.5 3 0 3.5.6.8.9-3 .3-5.3 1.1-8.2 3-1.4.9-2.7 1.7-2.8 1.7-.7 0-.1.8.8.9 2.3.4 7.6 2.5 8.6 3.5.9.8 1.1.4.9-1.3-.2-1.5.5-2.3 3.3-3.5 1.2-.5 2.6-1.3 3.1-1.6 1.5-1.1 6.2-3.3 8.4-3.9 6.9-1.9 5.8-6.5-1.2-4.8M136.8 71c-4.5 3.7-5.9 5.1-5.3 5.3.2.1-.3.9-1.3 2.1-4.2 5-6.4 7.9-6.2 8 .4.4 3.1-2.5 6.7-7.2.6-.7 2.5-2.9 4.4-4.8 3.5-3.5 6.5-6.8 6.4-7-.2 0-2.3 1.6-4.7 3.6m21.4-2.1c-1.3 1.6-1.6 2-1.1 1.7.3-.2 2.7-3.3 2.6-3.3-.1 0-.8.8-1.5 1.6m240.5-.2c-1 .3-1.9.9-1.9 1.4 0 .5 2.5 1.9 3.8 2.2.6.1 2.1.6 3.2 1.1 1.1.4 2.1.8 2.2.8.5 0-.9-1.9-2.6-3.7-2.2-2.3-2.5-2.4-4.7-1.8M259 70.1c.1.1 1 .4 2.1.7 4.4 1.2 10.1 4.2 12.6 6.6 1.9 1.8 4.7 6 4.7 7 0 2.4 4.6 7.1 8.2 8.5 1.9.7 1.8.6-.6-.9-1.1-.7-2.1-1.4-2.3-1.7-.2-.3 0-.2.5.2 2.3 1.6 6.4 3 10.9 3.6 1.5.2 3 .6 3.3.8.3.2 1.3.6 2.2.8s2.1.8 2.9 1.2c1.8 1.1 1.6.8-.3-.6-1.9-1.4-3.8-2.2-6.8-2.7-4.7-.8-13-7.8-15.8-13.3-.6-1.1-3.1-3.5-5.1-4.8-2.4-1.6-3.1-1.8-1.2-.3 2.3 1.8 6.1 6.1 8.9 10.1 1 1.4 2.2 2.7 4.4 4.5 3.5 2.9 3.6 3 .9 1.9-3.4-1.4-6.6-4.5-8.7-8.3-1.9-3.4-6.8-7.9-10.7-9.9-4.1-2.1-11-4.4-10.1-3.4m-13.5 1.4c-3.9.9-5.2 1.8-7.1 5.1-1.2 2.1-1.3 3-.1 1.2 4.7-7 19.8-7.4 26.8-.7 1.5 1.4 1.3 1.7-.4.5-1.8-1.3-5.7-3.1-5.7-2.7l1.8 1.1c4.7 2.8 7.4 5.6 11.4 12.1 3.9 6.3 4.5 6.6 1.7.9-3.8-7.9-5.4-9.9-11.7-14.8-3.5-2.8-10.9-4-16.7-2.7m-93.3 5.4c-.3.3-.4.6-.3.7.1.1.3-.2.6-.5.5-.8.4-.9-.3-.2m96.7-.3c-1.5.4-3.1 1.5-4.6 2.9-2.3 2.2-2.2.6.1-2l.6-.6-.9.5c-.8.5-1.5 1.2-3.9 4-1.6 2-.7-1 1-3.2l.8-1.1-.9.5c-.5.3-1.6 1.3-2.5 2.3-.9 1-1.7 1.7-1.8 1.7-.1-.1-.3.2-.5.6l-.3.7-1.3-1.6c-1.7-2.1-2.4-1.9-1.3.3.7 1.4-1.8-.6-3.1-2.5-1.5-2.1-3.2.8-3 4.9.1 2.9.3 3.3 2.2 5.3 1.6 1.7 2.6 1.9 1.1.2-.9-1-1-1.3-.9-2.1.1-1.1.2-1.2.9-.3.3.4 1.1 1.1 1.9 1.6 3.9 2.5 5.4 5.3 4.6 8.9l-.3 1.6 1.4-.1c1.8-.2 2.1-.5 3.2-3.8l.9-2.8.2 1.3c.1.7.5 1.9.9 2.6l.7 1.3.6-.8c2.2-3.2 10.1-7.6 14.2-7.8.3 0-.1-.1-.8-.2-.8-.1-1.9-.1-2.4 0-1.7.4-1.9.3-.8-.6 1.3-1.1 5.1-3 6.6-3.3.6-.1 1.2-.3 1.3-.5.3-.6-2.4.1-4.8 1.2-1.7.7-3.6 1.9-6.5 4.1-4.6 3.5-7.4 5-7.1 4.1a9 9 0 0 0-.1-2.2c-.3-1.6.1-2.7.9-2.2.2.1 7.2-3.1 7.7-3.6.2-.2 1-.7 1.8-1.1 3.1-1.8 3.9-5.5 1.5-6.7-2.8-1.3-5.8-1.9-7.3-1.5m20.7 2c1.2 1.2 2.3 2.6 2.5 3 .2.4 1 1.8 1.7 3.1.8 1.3 1.8 3.2 2.4 4.3 3.8 7.6 12.3 14.1 20 15.1 2.5.4 3.1 0 .8-.6-2.2-.5-6.1-2-8-3-1.3-.7-3-1.9-2.3-1.7 5.1 1.7 10.6 3.4 12 3.6 3.4.5 9.9 4.2 15.1 8.6 1.5 1.2 2.3 1.8 1.9 1.3-4-4.6-12.9-10.1-18-11.2-11.6-2.3-15.1-4.8-22.3-15.9-2.4-3.6-4.1-5.9-5.9-7.5-2.4-2.1-2.3-1.5.1.9m-142.3 1.7c-2.7 2.8-5.6 6.4-5.6 6.8 0 .4.1.2 2.3-2.5 1.7-2.1 2.8-3.4 5.2-5.9.5-.6.9-1 .8-1-.2 0-1.4 1.2-2.7 2.6m132.6-2.1c.1.2 1 .8 1.9 1.5 2.3 1.8 4.5 4.5 6.8 8.2 5 8.3 7.8 11.1 14.5 14.5 4.1 2.1 3.8 1.9 3.2 2.2-.4.2-1 .1-2.4-.4-2.3-.8-2.5-.5-.4.5 1.5.7 3.8 1.2 8 1.7 12 1.5 23.5 12.3 31.6 29.8 3.6 7.9 7.5 12.9 11 14.4 1.5.6 1.1 0-.4-.8-3.1-1.6-6.5-6.4-9.4-13.5-4.5-10.7-9.7-18.7-14.4-21.8-8.5-5.6-12.7-7.8-16.6-8.4-1.2-.2-1.5-.6-.4-.6 1.8 0 6.4 1.4 10.1 3.2 4.3 2 3.2.9-1.6-1.5-3.1-1.6-5.2-2.2-9.4-2.9-8.9-1.5-14.1-5.4-20.9-15.8-3.5-5.3-5.2-6.9-10.3-9.9-.7-.4-1-.6-.9-.4m-119.1 1.9c-3 .6-5.6 1.9-7.3 3.5l-1.4 1.3.9.3c3.1 1.1 8.2.1 11.9-2.4.5-.4 1.4-.7 1.8-.7.9 0 5.3-.7 5.4-.9 1.2-.9-7.6-1.8-11.3-1.1m168.3.7c-.4.2-1.1.9-1.6 1.5-.5.7-1.7 1.5-2.6 2-2.4 1.3-7.9 5.1-7.9 5.4 0 .2.7.5 1.7.7 4.1.8 8.2 4.2 10.3 8.6 1.1 2.4 1.7 2.3 1.2-.1-.8-3.8-3.9-7.2-8.5-9.5l-.9-.5.6-.3c1.6-.9 5.3.9 7.8 3.7 1.5 1.7 2.4 1.9 2.4.3 0-.8.1-1.1.6-1.3.4-.2.6-.5.7-1.3.1-1.2.4-1.2 2.4-.6 4 1.3 1.2-4-3.2-6-1.2-.5-1.4-.7-.9-.9 1.9-.7 7.8 2.7 8.4 4.8.4 1.5 1.1 1.3 1.2-.3.2-3.3-8.3-8-11.7-6.2m-101.2 1c-1.4.3-6.7 1.4-8.5 1.9-4.9 1.2-3.4 12.4 2.4 16.9 1.4 1.1 1.9 1.2 1.2.2-1.2-1.7-3-6.2-3.4-8.3-.3-1.5 0-1.4.8.4 2.3 5.3 7.9 7 13.7 4.2 3.2-1.5 3.7-2.1 4.4-4.5 1-3.8 0-6.5-3.1-8.4l-1.4-.8 1.2.2c1.3.2 4.6 1.4 6.4 2.4l1.2.7-1.1-.9c-3-2.9-9.8-4.8-13.8-4m-45.8 1c-.5.9-.5 1.2-.2 1 .3-.2.9-1.8.7-1.8-.1 0-.3.4-.5.8m30 .3c-1.8.9-2.9 4.1-3.8 11.5-1 7.9 7.4 18.6 18.5 23.5.7.3 1.5.8 1.9 1 .8.6 1 .6 1 .2 0-.1-1.6-1.4-3.5-2.9-6.6-4.9-11.2-9.6-12.8-13-3-6.4-2.7-19.6.5-19.6.8 0 .8-.4-.1-.8-.9-.3-.9-.3-1.7.1m-40.7 4.1c-4.4 1.6-9.5 1.9-15.6.8-4.7-.8-8.6-.3-8.6 1.1 0 2.2 17.3 1.4 23.4-1 4.1-1.6 4.7-2.4.8-.9m6.4 2.1c-1.1.3-1.7.7-3.1 2.2-1.3 1.4-2.4 2.2-4.2 3.1-3.3 1.7-3.5 2-3.6 4.6-.1 2.1 0 2.2.7 3 1.1 1.1 1.1 1.1 1-1.2-.1-2.1.2-3.5.7-3.5.2 0 .3.8.3 1.8 0 2.9.4 3.5 2.3 4.1.9.2 2.9 1.2 4.6 2 3.6 1.9 4.1 1.8 2.8-.5-2.9-5-1.5-11 3.2-14 2.3-1.4-1.1-2.5-4.7-1.6m9.7.7c-1.2.4-2.8 1.3-3.4 1.9-2.9 3.2-3.2 12.3-.5 16.4 1.4 2.2 6.2 5.4 8 5.4.7 0 1.5.1 1.8.3.8.4.8.3-.2-1.9-3.6-7.6-3.5-17.8.2-20.9 1-.9 1.1-.8-1.3-1.2-2.1-.3-3.6-.3-4.6 0m11.5 1.8c-5.2 2.6-6.2 12.1-2.2 19.6 4 7.5 5.9 9.2 12.6 11l2.3.6.3-2.6c.2-2.2.4-2.9 1.2-4.5 1.3-2.4 1.2-2.8-.2-4.3-3.8-3.7-7.4-11.9-7.4-16.7v-2.2l-1.8-.6c-2.7-.8-3.7-.9-4.8-.3m-60.7.2c-2 .4-7.1 2.8-9.4 4.4-2 1.4-2.1 1.5-1.2 1.7 2.5.6 8.1 6.7 8.9 9.7.3 1 .4 1.1.9 1 5.4-1.2 6.8-1.8 10.6-3.9 5.1-3 5-2.7 5.4-6.4.4-3.3.9-3.6 1.1-.7l.1 1.9.6-1.3c.4-.8.7-1.8.7-2.5v-1.2l-1.9-.5c-9.9-2.4-13-2.8-15.8-2.2m143.9-.4c0 .1-.1.9-.1 1.9-.3 5-3.5 7.4-10 7.5-2.2 0-1 .4 3.1.9 6.8.9 8.9-1.2 7.9-8.1-.3-1.4-.8-2.8-.9-2.2m-5.9.5c-2.2.3-7.6 4.2-6.8 5 .8.8 5.5.8 7 .1 2-1 3.4-5.7 1.5-5.3-.1 0-.9.1-1.7.2m-23.7 1.3c-.6 1.2 0 4.5.9 4.8.5.2 1.2-1.8 1.1-2.8-.2-1.8-1.5-2.9-2-2m-94.3 3.7c.2 1.9 1 3 1 1.4 0-2 .8-2.1 1-.1.2 2.1 1.1 1.5 1.1-.8 0-1.4-.3-1.7-2-1.9l-1.3-.2.2 1.6m4.8-.2c-.4 1.1-.1 3.1.6 4 1.2 1.5 1.6 1.1 1.6-1.8v-2.4l-1.1-.1c-.6 0-1 0-1.1.3m-42.7 2.7c-.9.4-1.7.9-1.7 1 0 .1-.2.3-.5.4-1 .3-.6.6 1.8 1.4 2.9.9 5.3 3 6.9 6 .5 1 1 1.9 1.1 1.9.3 0-.2-2.6-.7-4.2-.3-.8-.5-1.6-.4-1.7.5-.5 2 1.6 2.6 3.7.2.7.4 1 .4.7s-.3-1.2-.6-2.1c-.7-1.6-.9-2.7-.4-2.7.3 0 2.1 2.5 2.7 3.8.7 1.5.7.5 0-1.5-.9-2.7.5-1.9 1.5.8.2.7.5 1.4.6 1.6.5 1.3.3-.8-.2-2.3-.9-2.8-4.9-6.2-8.3-7.3-2.2-.5-2.8-.4-4.8.5m137.3 1.5l-1.4.1-1.4 2.9c-1.7 3.5-1.7 4.2 0 7.1.6 1.1 1.6 2.8 2.3 3.8 1.1 1.9 4.6 5.9 4.8 5.6.1-.1-.5-1-1.2-2-1.5-2-2.1-3.9-2.1-6.4 0-3.6 2.3-4.5 12.7-4.7 7-.2 10.2-.6 14.4-2.2 4.2-1.6 4.5-1.8 2.1-1.6-9.5.8-11.5.8-15.6.3-3.8-.6-10.1-1.9-11.2-2.3-1.3-.6-1.8-.7-3.4-.6m-147 3c-2.9 1.5-3.1 2-1.2 2.8 1.6.7 4.1 2.6 5.7 4.3 1.1 1.1 1.5 1.2 3.1.3.7-.4 1.9-.8 2.7-1 2.5-.5 2.9-1.6 1.1-3.6-3.1-3.6-7.7-4.8-11.4-2.8m187.3.5c-.1.4-.5 1.4-.7 2.2-1.4 4.9-9.3 11.9-20.4 18.1-1.6.9-2.5 1.5-2.1 1.4 4.5-1 18.8-10.7 21.2-14.2 1.3-2 2.4-4.6 2.5-6.4.3-1.6-.1-2.3-.5-1.1m-51.9 1.9c-1.6 1.6-1 3.7 2.2 8.2.8 1.2 1.7 2.4 1.9 2.8.2.4.8 1.2 1.3 1.8s.9 1.2.8 1.2c-.3.2-5.5-4.4-6.2-5.6-1.1-1.7-1.2-1.2-.3 1.5 1.2 3.6 3.1 6.8 6.1 10.1.6.7 1.7 2.1 2.5 3.2 5.4 7.7 7 8.9 15.3 11.5 1.5.5 3.2 1 3.7 1.2 1.2.4 4.9.5 6.5.1.6-.1 2.4-.6 4-.9 6.3-1.4 7-2.1 1.2-1.3-9.6 1.4-18.2-.5-22.2-4.7l-.7-.8 2 .8c7.4 2.9 14.1 3 19.6.3 1.5-.7 3.8-1.6 5.1-1.9 1.2-.3 2.8-.8 3.5-1 .8-.3 1.6-.3 2.3-.2.7.1 1.1.1 1.1-.1 0-1.1-9.2.5-13.8 2.4-1.9.8-5.6 1.5-6.4 1.2-.2-.1-.4 0-.5.1-.2.3-4.1-.4-6.4-1.1-3-.9-5.6-2.2-8.6-4.4-1.6-1.1-3.5-2.5-4.4-3.1-.8-.6-2-1.6-2.7-2.4-.6-.8-1.7-2-2.4-2.7-1.3-1.4-2.7-3.3-2.7-3.7 0-.1.9.6 2 1.6a33 33 0 0 0 5.4 3.9c5.6 3.4 7 3.6 4.1.8-4-3.9-9.3-10.3-9.3-11.3 0-.2-.4-1.2-.9-2.4-.8-1.8-1.1-2.9-1.6-5.5-.1-.9-.3-.8-1.5.4m-142.6 1.6c-3.6 1-4.2 1.6-2.8 2.9 1.2 1.3 2 3.1 2 4.5 0 .6.1 1.1.2 1.1s1.7-.8 3.6-1.8c1.9-.9 3.5-1.7 3.7-1.7 2.2 0 .2-3.3-2.9-4.9-1.6-.7-1.5-.7-3.8-.1m137.1 1.7c-.5.9-.2 5.1.5 7 .9 2.6 1 2.8 0 1.7-.5-.5-1-1.4-1.1-1.9-.4-1.1-.6-1.2-1.8-.5-1.7 1.1-.7 2.8 3.3 5.5 1.9 1.3 2.9 2.3 4.7 5.2 1.7 2.6 2.6 3.5 5.1 5 2.3 1.4 4.4 1.5 2.4.1-.4-.2-.7-.6-.7-.7 0-.2-.6-1.1-1.4-2-.8-.9-2.1-2.7-2.9-4-.8-1.2-1.8-2.6-2.2-3.1-1.5-1.8-3.7-8.3-3.7-11v-1.7l-1-.1c-.7-.1-1 0-1.2.5m69.6.9c-.7 1.4-2.1 3.1-3.4 4.2-1.2.9-.5 1.1.9.2l.9-.6v.7c0 1.3 2-.2 3.2-2.5 1-1.9.5-.2-.5 2.1-1.9 3.9-6.5 7.9-10.8 9.4l-1.9.6 1.4.1c3.3.2 10.5-4.8 12.7-8.7.4-.7.9-1.3 1.1-1.3.3 0 .7-.1.9-.2.5-.2.3 1.2-.5 3-.7 1.6 0 1.6 1.2.1.5-.6 1-1 1.1-1 .2.1.5 0 .7-.1.4-.2.4-.1.2.8-.5 1.8-1.7 3-5.3 5.2-2 1.2-1.7 1.9.5 1.1 3.6-1.4 6.1-4 6.7-7.1.8-4 .6-4.3-4.4-5.9-4-1.6-4-1.6-4.7-.1m-240.9-.3c-4.3.7-7.1 3.9-7.1 8.1 0 2.5 2.1 4.3 5 4.3h.7l-.6-.6c-.4-.5-.6-.9-.5-1.5l.1-.9 1.8-.2c3.6-.3 6.3-4.4 4.6-6.8-.5-.7.4-1 3.6-.8 2.6.1 2.5 0-.6-.9-3.2-1-4.7-1.1-7-.7m26.5 1.1c-2 .5-2.2.8-1.2 1.7.5.4 1.2 1.2 1.5 1.8 1.2 1.9 2 1.3 1-.7s0-1.6 1.2.4c.5.9.9.1.6-1-.5-2-1.4-2.6-3.1-2.2m-35.9.7c-1.2.3-2.8.8-3.6 1-2.4.6-2.8.9-3.1 2.3-.2 1.5-.3 1.5 1.3 1 1.3-.5 2.1-.3 1.1.3-2.1 1.1-4.6 4.7-3.1 4.2 1.3-.4 1.2.2-.2 1.1-2.7 1.8-2.4 3.4.4 2.4 3.7-1.3 4.2-.9 1.1.7-6.9 3.6-8.1 6.4-4.3 10.1 1.6 1.6 2.6 1.3 2.8-.9.2-2.4 1.9-3.9 5.9-5.3 10.1-3.5 17.2-1.1 17.1 5.9v2.1h.8c3.4 0 3.8-5 .6-8.1-1.9-1.8-2.2-1.9-7.3-2.2-7.7-.4-10.9-2.4-10.9-6.7 0-1.3 2.1-5.5 3.5-7 1.3-1.7 1.1-1.8-2.1-.9m243.2 1.4c-1.4 1.3-4.2 2.6-6.6 3.2-1.5.4-2.4.8-3.6 1.7l-1.6 1.2 1.7-.2c2.2-.2 5.6-1.1 6.1-1.6.2-.2 1.3-.9 2.4-1.6 1.9-1.2 2.9-2.3 2.9-3.2.2-.6-.1-.5-1.3.5m-212.8.1c-.8.9.5 4 1.7 4 .8 0 .9-.4.3-1.6-1.1-2.3-.2-2.4 1-.1.6 1.1.7 1.3.9.9 1.1-2-2.4-4.7-3.9-3.2m81.1.5c-2.2 2.2-2.3 7.3-.3 10.9.7 1.2 5.5 6.4 6.3 6.8.3.2-.3-.5-1.2-1.4-2.8-2.6-4.7-5.7-5.1-8.3l-.2-1.2.5 1.2c.8 1.7 2.7 4.6 3.7 5.5.8.7.8.6-.4-1.1-.7-1-1.2-2-1.2-2.2 0-.2-.3-1.1-.7-2-.6-1.6-.7-2.1-.7-5.4 0-2 0-3.7-.1-3.7.2.2-.2.5-.6.9m-86.3.3c-.3.3-.5 1-.5 1.8 0 .7-.2 1.6-.4 1.9-.5 1-.5 1 1.1 1.6 2.5 1 3.5.7 3.9-.9.6-2.9-2.5-6.3-4.1-4.4m238.3.9c-.1.2-.2 1.8-.2 3.7-.1 2.4-.3 3.6-.6 4.2-.8 1.5-2.1 3.3-2.7 3.7-.4.2-.6.6-.5.8.2.5-2.2 2-5.4 3.3-4.1 1.7-4.1 2.1-.2.7 9.3-3.3 14.8-10.4 11.9-15.2-.8-1.4-2-2-2.3-1.2m-107.2.9c-1.6 3.9-1.7 9.2-.2 12.4l.8 1.6-.1-2.4c-.1-2.4.5-5.1 1-5.1.1 0 .2 1.2.1 2.7-.1 2.3-.1 2.7.2 2.7.3 0 .4-.5.5-2.8.2-4.2.9-4.6 1-.4.1 2.2.5 1.2.5-1.3 0-.6.2-1.8.5-2.7 1-3.1 1-3.3-.7-4.4-2.2-1.4-3.1-1.5-3.6-.3m-58.1.5c-.1.6-.3 1.5-.5 2.1-.4 1.5.7 4.8 2.4 7.4 2.9 4.3 3.3 5 3.2 5.2-.3.3-4.9-5.5-6.6-8.3-1.1-1.8-1.4-1.5-.4.6 2.1 4.6 10.9 13.3 16.5 16.5 1.6.9 1.6.9-2.4-2.6-3.9-3.4-5.6-5.1-6.8-6.7-1.2-1.7-.5-1.7 1 .1 2.8 3.3 11.7 10.2 17.1 13.2 5 2.8 23.6 9.1 24.4 8.3l-5.2-1.8c-11.7-3.7-23.9-9.3-27.5-12.6-1-.9-.7-.8.9.3s8.4 4.4 8.4 4.1c0-.1-1.4-1-3.2-2.2-3.7-2.4-3.8-2.5-.8-1.4 6.9 2.7 6.6 2.6 15.6 4.4 5.2 1.1 7.4 1.3 3.6.4-9.4-2.2-15.7-4.3-16.1-5.3-.1-.2-1-.8-2.1-1.3-1-.5-3.1-1.6-4.6-2.6-1.5-.9-3.7-2.3-5-3.1-1.4-.8-3.4-2.4-5-3.9-1.5-1.4-2.7-2.4-2.7-2.3 0 1.1 3.6 5.2 6.6 7.5 2 1.5 2.4 1.9 1.4 1.4a22.9 22.9 0 0 1-11.8-16.4c-.2-2-.2-2-.4-1m-30 2.6c-4.3 4.5-3.2 9.9 3.9 18.7 1.8 2.2 6.2 6.9 7.4 7.7l.8.6-.7-.8c-.4-.5-1.4-1.7-2.4-2.8l-1.7-1.9 1.5 1.2c4.3 3.6 14.7 10.5 14.7 9.7 0-.1-1.2-.9-2.7-1.8-2-1.2-2.7-1.8-2.6-2.1.1-.3-.4-.7-1.7-1.5-8.7-4.9-15.5-14.9-15.1-22.1.1-2 .1-2.2-.3-1.6-.3.4-.4 1.4-.5 3.1-.1 2.6-.3 2.9-1 .9-.8-2.3-.3-5.3 1.2-7 1-1.4.4-1.6-.8-.3m7.6.3c-.9 4.4 2.6 10.9 9.8 18.2 2.5 2.5 4.4 4.3 4.2 4-.2-.3.4.2 1.4 1 1 .8 3 2.4 4.4 3.4 1.4 1 2.7 2 2.9 2.2.2.1.3.2.3.1s-1.4-1.3-3.1-2.7c-1.7-1.4-3-2.7-3-2.7.2-.2 5.9 3.8 9.5 6.5 2.5 1.9 4.6 3.3 13 8.9 2.8 1.9 8.9 5 8.9 4.6 0-.1-3.3-2.1-7.2-4.5-11.6-7-12.8-8.6-2.9-3.6 3 1.5 6.4 3.1 7.5 3.6 1.1.5 3.1 1.4 4.5 2.1 2.3 1.1 4 1.9 9.7 4.3.9.4 2 .7 2.5.8l1 .1-1.1-.5c-.6-.3-1.5-.6-1.9-.7-3.4-.7-31.3-15.5-31.3-16.6 0-.2.1-.1 2 1.1 1.3.8 13.7 7.3 13.5 7-.1-.1-2.4-1.6-5.1-3.4-9.6-6.4-22.9-17.4-23.8-19.7-.2-.5-.3-.6-.5-.3-.3.6 5.1 6.4 9.9 10.6.9.8 1.8 1.9 1 1.3-.4-.3-.5-.4-1.1-.4-.1 0-.3-.2-.3-.3 0-.2-.4-.6-.8-.9-.4-.3-2.1-1.7-3.8-3.2-4.6-4-4.8-4.1-2.6-1.5 2.6 3.1 5.1 5.6 6.8 7 1.6 1.4 1.2 1.5-.5.2-1-.8-3-2.1-5-3.2-.9-.5.1.7 1.5 1.7 2.9 2.3 3.7 3.1 2.7 2.6-4.2-2-17.8-14.6-18.4-16.9-.3-1.1-.3-1.2-.6-.6-.5 1.3-3.4-5.4-3.8-9l-.2-1.5v.9m184.3.6c-1.3 2.1-3.8 3.8-8.3 5.9-2.3 1.1-2.5 1.4-1.1 1.4 2.4 0 8.4-3.9 9.6-6.2 1-1.7.8-2.6-.2-1.1m-96.8 2.8c-1.5 4.3-1.3 5.1 3 10.9 2.7 3.7 5 5.4 8.6 6.2l.7.2.3-2.8c.2-1.6.5-3.3.7-3.9.5-1.3.4-1.6-.9-2.1-1.9-.7-3.5-1.9-5.5-4.4-4-4.8-6.2-6.1-6.9-4.1m17.4.4c0 .1.5 1 1.1 2.1.6 1.1 1.6 2.8 2.2 3.9 2.5 4.5 7.6 8.1 16.8 11.7 3.2 1.2 6.5 2.6 8.7 3.6 2.9 1.3 5.1 1.9 7.1 2.1 1 .1 2.1.3 2.4.5 2.9 1.8 9.6.2 14.7-3.6 2.7-2 6-3.7 8.2-4.2.7-.2 2.1-.7 3.1-1.1 1-.4 2.8-1.1 4.1-1.5 1.5-.5 2.3-.8 2.3-1.1 0-.7-3.1-.2-6 .9-.7.3-2.8.8-4.6 1.2-3.5.7-4.7 1.2-7.9 3.3-4.3 2.8-6.9 3.6-14.1 4-5.7.3-6.2.2-16.7-4.9-12.5-6.1-13.5-6.8-16-11-1.8-3.2-5.4-7-5.4-5.9m-119 1.7c-2.5 3-.2 10.6 4.2 13.7.7.5.6.3-.6-1.1-2.4-2.9-1.5-2.7 1.5.4 2.7 2.8 4 3.9 5.8 5 .4.3-1.2-1.5-3.7-4-5-5-5.3-5.5-5.8-9.1-.3-2.5-.7-2.5-.8 0v1.6l-.4-.9c-.6-1.5-.5-4 .1-5.2.7-1.3.6-1.5-.3-.4m205.9 2.1c-.1 1.4.1 2.6.8 4.6 3.6 10.7 5.2 24.1 3.5 30.1-2.5 9-5.8 13.8-10.4 14.8-1 .2-2.1.5-2.4.5-.4.1-.6.2-.4.4.6.6 7-1.6 10-3.3 4.7-2.8 7.3-7.6 8.2-15.1.8-7.7-.3-12.6-5.6-23.4-1.6-3.2-3.2-7.5-3.2-8.4.1-.6-.5-.9-.5-.2m-244.9.6c-1.2 1-1.5 2-1.2 4.4.4 3.1-.1 5-2 7-1.3 1.4-.4 1 1.3-.5 2.4-2.2 3.3-4.7 2.8-7.4-.2-1-.2-1.6.1-2.5.5-1.7.3-2-1-1m159.5 4.4c-2.2 2.3-3.8 10.7-3.1 15.7.2 1.2.5 3.6.7 5.4.5 4.6.8 4.7 1.3.9 1-7.3 3.6-13.9 6.5-16.5l1.5-1.3-1.4-1c-.8-.6-1.9-1.7-2.6-2.5-1.4-1.6-2-1.7-2.9-.7m-183.6 4.9c-3.6 1.8-4.2 2.5-4.4 4.7-.1 1-.5 3.9-.9 6.5-1.3 8-1.3 7.8-.1 9.1 2.1 2.3 4.1 1.7 9.1-2.5 2.8-2.3 2-2.2-1.7.2-4.2 2.7-4.2 2.7-1.8-1.1.8-1.2 1.4-2.4 1.3-2.5-.2-.2 1.9-4.1 5-9.2 2.3-3.8 2.5-4.4 2.1-4.4-.1 0-.8.8-1.4 1.8-.6 1-1.8 2.6-2.5 3.7-.8 1-2.4 3.4-3.6 5.3-4.2 6.6-6 8.6-4.4 5 .4-.8 1.4-3.8 2.4-6.6.9-2.8 2.1-6.1 2.7-7.3 1-2.3 1.5-4 1-4-.2 0-1.4.6-2.8 1.3m168.4 3.1c.6 5.9.7 6.3 2.3 7.7 2.9 2.6 7.7 4.3 7.7 2.8s-.9-6.9-1.2-7c-3.4-1-5.6-2.1-7.7-4.1l-1.3-1.2.2 1.8m22 .7c-4.5 6.1-5.6 10.4-4.7 19.2.7 6.3 1.5 9.3 3.4 12 1.5 2.3 8.6 8.6 9 8.1.2-.2-1.4-1.7-3.7-3.4-4.3-3.3-6-8.1-6-16.6 0-5 .4-7.1.7-3.7.7 7.1 5.6 14.3 10.9 16 7.7 2.5 13.7.2 17.1-6.7 3.7-7.3-3.3-17.8-13.7-20.6-1.4-.4-2.7-.8-3-.9-.8-.4-4.2.4-5.4 1.4-2.3 1.7-2.7.6-.5-1.5 1.3-1.3 3.7-2.5 4.7-2.5.1 0 .3-.1.3-.2 0-.4-1-.5-2-.3-.5.1-1.2.2-1.5.1-.7-.2-2.4 1.4-3.8 3.5-.6.9-.8 1.1-.9.7-.2-.8 1.5-3.8 2.8-4.9 1.4-1.3 1.4-1.2.4-1.6-2-.7-2.4-.5-4.1 1.9m-114.2-1.1c.3.4.5.8.4.8-.1 0-.4-.4-.7-.8-.3-.4-.5-.8-.4-.8.1 0 .4.3.7.8m28.5 1.3c.3.4 8.2 5.6 11.1 7.2 1.4.8 3.4 2 4.4 2.7 3.2 2.2 6.5 4.3 6.5 4.1 0-.1-1.1-.8-2.4-1.7-1.3-.9-2.4-1.7-2.4-1.8 0-.2 4 2 5.7 3 5.2 3.3 18.2 9.3 21.1 9.7.9.1 2.7.6 3.9.9 2.8.9 6 1.5 7.5 1.4 1 0 .7-.1-1.8-.7-7.3-1.5-20.2-6.8-28.9-11.8-1.8-1-5.7-3.1-8.7-4.7s-6.5-3.6-7.9-4.4c-3.7-2.2-8.6-4.6-8.1-3.9m-31.8 6.6c.3.4 10 7 10.6 7.1.8.2.7 0-1.3-1.4-1.9-1.3-2.5-1.9-1-1 .5.3 2.9 1.8 5.4 3.3 7 4.3 20.9 11.2 21.8 10.9.2-.1-.7-.5-1.8-1-4.7-1.9-14.2-7.1-22.7-12.4-6-3.7-8.4-5.1-8.6-4.9-.1.1-.6-.1-1-.4-1.2-.4-1.7-.6-1.4-.2m15.5 0c.4.4 8.1 4.4 8.3 4.3.1-.1-1.8-1.1-4.2-2.3-2.5-1.3-4.3-2.2-4.1-2m4.9 4.2c0 .2 4.8 2.5 5.1 2.5.1 0-1-.6-2.4-1.3-1.5-.7-2.7-1.2-2.7-1.2m148.7.4c-.1.2-.4.2-.7.1-.4-.1-5.9 1.3-7.6 2-.9.4-.8.9.1.7 1.8-.4 6.5-.5 6.9-.2.8.7.1 1.2-3.7 2.5-1.9.7-3.5 1.5-2.1 1.1.3-.1 1.9-.4 3.5-.7 1.6-.3 3.7-.7 4.5-.9.9-.2 1.7-.3 1.8-.4.4-.2-1.3-4.5-1.8-4.6-.5.1-.8.2-.9.4m42.5 1.9c-1.1.2-1.2.2 4 .4 6.9.2 13.2 1.2 24 3.9 3.4.9 7.1 1.8 8.2 2 1.1.2 2.9.8 4 1.2 1.1.4 2.3.8 2.5.8.2 0 2.2.7 4.2 1.6 2.1.9 4 1.6 4.2 1.6.7 0 4.2 1.9 7 3.8 7.8 5.3 8.7 10.6 2.6 14.2l-1.7 1 1.5-.2c7.4-.8 9.1-7.2 3.2-12.5-1.7-1.5-.9-1.2 1.1.4 5.1 4.2 6.1 7.9 3.1 11-1 1-.7 1.1.6.3a6 6 0 0 0 2.2-4.1c0-.5.1-.9.2-.8.5.3.2 2.5-.5 4-.8 1.6-.7 1.9.4.8 6.2-6.2-9.5-17.8-32.8-24.2-12.1-3.4-33.1-6.3-38-5.2m-110.1 6.6c-.2 1.7-.5 3.6-.7 4.2-.3.8-.4 1.2-.1 1.8 1.2 2.8 3-4.5 2-7.9-.6-2-.9-1.5-1.2 1.9m68.2-.4c-.5.2-2.3.8-4.1 1.3-2.6.8-3.1 1-3.1 1.5 0 .6.4.6 2.5.1 4.2-1 4.6 0 .5 1.4-2.1.7-2.7 1.1-2.7 1.4 0 .7.6.6 3.9-.4 1.6-.5 3.5-1 4.3-1.1l1.4-.2v-1.9c0-2.4-.6-2.9-2.7-2.1m-66 3.8c0 2.9-.1 3.3-.7 4.6-.9 1.8-.4 3.3.7 2 1.1-1.2 1.4-5 .7-8.2-.5-2.3-.7-1.8-.7 1.6m2.2 2.4c-.1 1.7-.4 3.4-.8 4.8-.7 2.2-.7 2.8.1 2.8 1.5 0 2.3-6.3 1.2-9.2l-.4-1.1-.1 2.7m-8.3.1c-.7.7-.8 1-1 3.7-.1 1.6-.4 3.3-.6 3.9-1.6 3.9 4.9 12.8 13.7 18.9.2.2-1.2-1.4-3.2-3.4-3.8-3.9-5.5-5.8-6.9-7.9-1.3-1.9-.8-1.8.9.3 3.2 3.9 4.2 4.2 1.5.4-.9-1.2-1.6-2.3-1.5-2.4.1-.1.6.5 1.1 1.2 1.8 2.5 8.7 8.6 11.5 10.3.8.5.3 0-4.8-4.9-2.4-2.3-5.9-6.4-5.6-6.6.3-.3 1.3.6 4.2 3.6 1.7 1.7 3.6 3.5 4.1 4 5.3 4.3 8.5 6.7 9.5 7.3 1.4.8 1.3.7-2.6-2.8-4.9-4.4-7.3-6.6-7.4-7-.2-.6.8.1 2.2 1.4a47.4 47.4 0 0 0 19.7 11c2.7.8 2 .2-.9-.6-1.3-.4-2.6-.9-2.9-1.2-.7-.6-4.2-2.9-8.2-5.3-4.4-2.6-12.9-10.4-16.6-15.1-.9-1.2-2-2.5-2.5-3.1-.5-.5-1.1-1.4-1.4-2-.3-.6-.7-1.2-1-1.4-.3-.3-.4-.6-.3-1.6.3-1.7.1-1.8-1-.7m70.7 2.4c-6.6 1.8-7.5 2.3-3.2 2 4-.3 4 .5-.1 1.7-3.3.9-3.6 1.2-.9 1 4.1-.4 6.1-1.1 6.7-2.5 1.2-3 1-3.1-2.5-2.2m97.6.7c5.4 4.1 6.6 9.5 2.5 11.1-.9.4-1 .5-.5.5 3 0 5.1-3.2 3.9-6-.5-1.3-.3-1.4.4-.3 1 1.7 1.2 3.2.6 4.6-.6 1.4-.4 1.6.6.4.8-.9.8-1.7.1-4.4-.4-1.7-3.3-4.3-6.2-5.7-2.9-1.4-3-1.4-1.4-.2m-157.6 2c-.1 1.3-.4 3-.7 3.8l-.5 1.4.6.6.6.6.4-1c1-2.3 1.1-4.2.4-6.9-.3-1.5-.6-1.1-.8 1.5m156.5-.2c3.9 4 4.4 7 1.6 9.3-.6.5-.6.5-.2.5 1.2 0 3-2.6 3-4.3 0-2.4-4.2-7.4-6.2-7.4-.1-.1.7.8 1.8 1.9m-112 1.1c-.9 4.8-5.2 9.5-10 11-2.4.8-2.4.9.3.8 6-.3 10.9-5.8 10.1-11.3l-.2-1.6-.2 1.1m-41.3 4.5c-.1 1.5-.2 3-.2 3.2 0 .3.1.6.4.8 1.2.8 1.6-1.6.8-4.9-.6-2.5-.8-2.3-1 .9m-17.7 2.7c-1.4 1.5-7.4 3.9-9.9 3.9-1.3 0-1 .5.4.7 3.4.4 6.5 1 10.2 2 2.2.6 4 1 4.1.9.3-.3-.2-1.4-1.3-3.1-.6-1-1.4-2.4-1.7-3.3-.8-1.9-1-2-1.8-1.1m94.1 1c-1.2.6-1.3.6 3.1.6 7.5 0 9.7.5 3.5.7-7.1.3-12.1.6-12.6.9-.4.2-.2.3.8.3 1.6 0 11.1.5 13.6.7 5.2.5 10.6 1.6 16.5 3.6 1.8.6 3.3 1 3.3.9.7-.7-9-3.9-14.8-4.9-1.6-.3-2.5-.5-2-.5 2.8-.1 14.2 1.4 16.8 2.2 1.7.5 1.7 0 0-.7-6.1-2.6-25-5.2-28.2-3.8m-72.7.5c-.3 1.1-.2 1.8.3 1.8.5-.1.9-1.4.7-2-.2-.6-.8-.4-1 .2m123.9 2.1c-1 .1-2.3.2-3.1.1-.7-.1-2.8.1-4.5.3-1.8.2-3.9.5-4.8.6-6 .8-8 4.3-4.5 7.8 3.6 3.5 15.1 7.5 23.3 8.1l2 .1-2.3-.6c-1.2-.4-2.9-.7-3.6-.8-1.4-.2-8-2.3-9.3-3-2.5-1.3-5.5-4.8-5.5-6.4 0-1.9 3.1-4 6.5-4.4 2.5-.3 2.8-.1 1.2.6-5.1 2.3-4.3 6.2 2.1 9.3 2.5 1.2 3.1 1.4 1.4.4-3.1-1.9-5-3.9-5.1-5.3 0-1.8 4.7-4.7 8.3-5.2 4.5-.5 11.6-1 16.1-1 2.6 0 4.8-.1 4.9-.1.3-.4-20.8-.8-23.1-.5m24.4.5c.5.1 1.3.1 1.9 0 .6-.1.2-.1-.9-.1-1 0-1.4 0-1 .1m-95.4 4.2c-3.8 3.9-6.1 7.5-5.1 8.1.6.4 1 0 1.4-1.1.8-2 2.9-5.1 5.8-8.6 1.6-1.8.4-1-2.1 1.6m58.5-1.1c-1.6 1.6-1.6 1.5-.8 4 .5 1.6.3 1.6-1.3.1-2.1-1.9-1.8-3.1 1.3-4.6 2.5-1.3 2.6-1.2.8.5m-61.4 1.4c-1.2 1.4-2.3 2.8-2.5 3.1-.1.3-.6 1-1 1.7-1 1.5-1.8 3.3-1.9 4.1 0 .9.4.5 1.2-1.1.9-2 2.9-4.9 5-7.5 1.7-2.1 2.1-2.7 1.6-2.7-.1-.2-1.2 1-2.4 2.4m-88.4-1.2c-1.2.1-3.9.6-6 1-2.1.5-4.2.9-4.7 1-4.3.8-15.5 9.1-20.2 15-7.3 9.1-9.6 22.5-5.5 31.8 1.3 2.9 1.6 3 4 1l.7-.6-.7-2.4c-2.9-10.7 3.5-26.9 12.9-32.6 6.6-4 10.4-5.9 12-5.9h.7l-.7.4c-13.3 7-19.8 15.6-21.7 28.4-.6 3.8-.5 3.8.9-.6 1.4-4.3 3.2-7.9 5.1-10.4.6-.9 1.2-1.6 1.2-1.7.6-.8 0 .6-.9 2.5-2.1 4.1-4.2 10.4-4.8 14.3-.2 1.6-.1 1.4 1.1-1.8 1.7-4.7 5.6-10.8 8.8-13.6.8-.7 2-2 2.8-2.9 7.9-9.5 21.6-11.9 33.8-5.9l1.6.8-.8-.7c-1.4-1.2-5.8-4-6.9-4.4-1.3-.5-1.3-.9.1-.7 2.2.4 5.9 2.2 8.5 4.4l1.1.9-.6-.9c-.4-.5-1.4-1.7-2.2-2.6l-1.6-1.7 1.2.4c1.4.5 2.7 1.4 5.9 4.4 1.3 1.2 2.3 2 2.2 1.7-.6-1.1-3.4-4.8-5-6.4-1.6-1.8-1.5-2.2.3-.9a47 47 0 0 1 5.4 5.5l.6.8-.6-1.2c-.3-.7-1.2-2.1-2-3.2-1.3-1.9-1.5-2.9-.3-2.2.9.5 3.1 2.7 4 3.8.6.7 1.1 1.3 1.2 1.2.1-.1.4.1.7.3 1 .9-1.7-3.2-4.3-6.3-1.2-1.5-.3-1 2 1.1 3 2.7 4.4 4.7 5.6 8 .4 1.1.5 1.2.4.4-.8-5.3-8.5-13.8-15.1-16.5-5.4-2.4-13.6-3.6-20.2-3m121.2.5c4.7.7 9.4 1.7 13.1 2.8 1.8.5 3.3.9 3.3.8.1-.1-3.3-1.2-6.6-2.1-2.8-.8-8.7-1.8-10.9-1.9l-2.3-.1 3.4.5m-36.5 1.3c-1.6 1-3.3 4.1-3.3 6.1 0 .9.1.8 1-1.1.6-1.1 1.5-2.8 2.1-3.7 1.4-1.9 1.4-2 .2-1.3m16.4.3c-3.4.2-4.4.3-4.9.7l-.7.5.9.1c.5 0 .9.2.9.3s1.7.2 3.8.1c2.7-.1 3.4 0 2.3.1-.8.1-2.6.2-4 .3-1.4 0-3.1.1-3.9.3-.9.1-.2.2 1.7.1 12.5-.7 24.4.2 33.9 2.4 1.2.3 3 .6 4 .8 5.2.7 21.4 7.5 26.8 11.3.4.3.7.4.6.2-1.2-2-10.6-6.7-20.6-10.3-11.9-4.3-16.2-5.1-32.7-6.1-.8-.1 1.8-.1 5.7 0 8.1.1 13.4.7 19.3 2.3 3.6.9 4.2.9 1.2-.1-7.8-2.8-20-3.8-34.3-3m75.6 3.4c2.8 1.5 3.1 3.7.6 4.7-.7.3-1.4.6-1.5.7-.1.1-.9.2-1.7.3h-1.5l1.2.2c2.8.5 7.6-.4 8.4-1.8 1.1-1.7-2.7-4.7-5.8-4.7-.6.1-.5.2.3.6m-89.7 4.7c-.1.1-.2.6-.2 1.2 0 1.4-1.4 2.5-2.9 2.3-1.1-.2-1.5.4-.7 1.1.2.2.2.5 0 .9-.2.3-.7 1.6-1.1 2.7-.4 1.2-1.1 2.8-1.5 3.7-1.1 2.4-.9 2.6 1.1 1.2 3.6-2.5 7.1-7.7 7.2-10.6-.1-1.5-1.2-3.1-1.9-2.5m-23.7.6c-.7.3-1.3.9-1.3 1.5s.5.7 1 .2c.2-.2 1.1-.2 3.7 0 5.6.5 8.9.4 8.9-.2 0-.8-.9-1-5.7-1.3-4.7-.4-6-.4-6.6-.2m14.7 1.5c0 .2.2.8.4 1.5.5 1.2-.6 5.2-2.2 8.3-.9 1.7-1.1 2.7-.6 2.7.2 0 1.2-1.7 2.5-4.2 2.4-4.9 2.8-7 1.5-8.1-.7-.6-1.6-.7-1.6-.2m-29.2 4c-4.5 1.9-5.4 2.5-7 5.1-1.5 2.3-1.2 3.1 1.9 5 2 1.3 4 .8 5.4-1.3.2-.4 1-1 1.6-1.3.7-.4 1.2-.9 1.2-1.2 0-.8-.8-.9-1.9-.1-1.8 1.2-1.5.1.4-1.3 2.1-1.6 1.1-1.7-1.4-.1-1 .6-1.8 1.1-2 1.1-.5 0 2.2-2.5 3.5-3.3 1.6-.9 1.7-1.1.7-.8-2.6.6-4.1 1.5-6.4 3.7-2.6 2.5-2.8 2.6-1.8.5 1.3-2.7 3.4-4.5 7-6 1-.4 1.6-.8 1.4-.8-.3-.1-1.4.3-2.6.8m126.4.9c10.6 5.6 24.8 19.6 28.3 27.9.7 1.7.7 2.6 0 1.6-.2-.3-.5-.7-.7-.9-.2-.2-1-1.4-1.9-2.5-5.1-7.1-21.5-21.2-25.2-21.6-.3 0-1.1-.4-1.7-.8-1.6-1.1-2.1-1.3-1.2-.5.4.4 1.8 1.4 3.2 2.2 16.7 10.3 30.2 25.5 28.9 32.5-.2 1.2-.6 1.5-.6.3 0-1.3-.9-4.4-1.7-5.9l-.7-1.3v1.2c-.1 5.8-8.8 9.1-17.3 6.6-16.3-4.9-22.2-7.1-27-10.1-1.3-.8-3.3-2-4.5-2.7-6.7-3.9-9.2-6.9-7.3-8.8.6-.6 2.3-1 3.1-.7.5.2.5.3-.6.5-2.1.5-2.3 2.1-.4 4 1.1 1.1 1.2.9.4-.4-1.8-2.7 1.2-4.1 6.9-3.2 1.3.2 2.5.3 2.6.2.8-.4-3.3-2-6.8-2.5-.8-.1-1.8-.3-2.3-.4-1-.2-3.7.7-4.6 1.5-.8.7-.7 2 .3 3.7 1 1.8 1 1.8 0 1.2-3.5-2.1-4.8-6-2-6 1.3 0 1.4-.5.1-.7-1.3-.2-3.6.1-4.6.6-1.7.9-1.5 2.2.8 4.6l1.4 1.5-.7-1.2c-.4-.8-.7-1.6-.7-2.3 0-1.5.3-1.4.7.1.7 2.5 4.6 5.8 11.7 9.6 9 4.9 10.5 5.6 19.3 8.8 1.4.5 3.1 1.2 3.9 1.6.7.4 3.4 1.2 5.9 2 18.1 5.3 24.5 5.3 25.7 0 2.5-10.7-3.6-20.2-21.5-33.8-4.5-3.4-10.2-6.9-11.2-6.9-.3-.3.7.3 2 1m-104.7 2c0 1.7 3.5 3.2 4.8 2.1 1-.8.4-1.4-1.5-1.6-.9-.1-1.9-.3-2.3-.5-.9-.4-1-.4-1 0m-68.3 3.8c-1.7.6-4.3 1.8-5.7 2.5-1.4.7-3.3 1.6-4.1 1.9-4.7 1.7-9.8 7.2-13.7 14.8-3.3 6.4-5.1 8.1-10.6 10.3-9.7 3.8-13.6 8.9-12.9 16.4l.2 2.1.2-1.5c.7-4.8 6.2-11.4 11.6-14 3.2-1.5 8-4.9 9.6-6.6 1.2-1.4 1.8-2.5 3.3-6 1.3-3.1 3.7-6.6 6-9 2.5-2.5 3.6-3.1 1.7-.9-2.6 3.1-3.4 4.4-5.5 9.3-3 7-5 9.4-9.4 11.9-4 2.3-6.8 5.5-7.9 9.1-.6 2.2-.5 2.3 1.4 1.2.9-.5 3.4-1.9 5.5-3 8-4.2 13.2-8.7 16.9-14.6.3-.4.3-.4.1.3-.1.4-.7 1.5-1.3 2.3-3.6 5.4-5.6 8.3-6.9 9.6-1.7 1.8-1.7 2.1 0 1 2-1.3 5.3-5.8 10.9-15.1 2-3.3 2.7-4.4 4.7-7l4.6-6.6c4.3-6.4 6.1-8.4 6.9-7.7.3.3 1.1.9 1.7 1.4l1.2.8.3 2.8c.3 3.2.1 7.2-.8 11-.8 3.8-2.6 9.8-3.3 11.5-1.1 2.6.1.8 1.8-2.7 2.2-4.4 3.6-11.4 3.6-18.1 0-1.3.1-2.3.2-2.3 1.8 0 4.1 7.1 4.2 12.8.1 5.3.1 5 .4 4.4.3-.6.1-10.1-.3-12.4-1-5.4-4.9-9.8-9.5-10.7-.7-.1-1.5-.3-1.7-.4-.1.1-1.7.6-3.4 1.2m78.9 3.2c-2.4 1.4-7.3 5.8-7.3 6.5 0 .5.6.3 1.7-.6 2.5-2 5.8-4 7.1-4.3 1.3-.3 1 .3-.4 1-1.5.7-4.1 3.3-4.1 4 0 .5.1.5 1.5-.6 2.1-1.6 5.7-2.7 5.7-1.8 0 .2-.1.3-.2.3-.4 0-2.9 2.1-3.1 2.6-.4.9.3.9 2.1 0 1.9-1 2.8-1.2 2.8-.6 0 .2.1.6.2.8.1.3-.4.7-1.8 1.4-7.8 3.9-15 11.3-18.7 19-1.5 3.2-1.4 4.1 1.2 6.6 2.7 2.6 2.7 2.6 5.4-.5 2.6-3 2.4-3.5-.3-.7-1.9 2-2 2.1-2.5 1.6-1.5-1.4 6.4-8.6 9.5-8.6 2.1 0 5 2.1 6.2 4.4 1.4 2.7 1.2 4.6-1.3 11.2-1 2.7-.8 3.7.9 4.7 2 1.1 2.2.9 4.2-3.1 1-1.9 2.1-3.8 2.4-4.2.3-.4 1.8-2.3 3.2-4.2 2.9-4 4.7-5.6 8.3-7.6 1.2-.7 2.9-1.6 3.7-2.1 2-1.2 5.6-2.5 6.4-2.3 1.2.3.8.7-1.3 1.4-5.1 1.8-15.5 10.5-15.5 12.9 0 .7.4.4 2.9-2.2 4.6-4.6 9.3-7.5 15.4-9.4l3.5-1.1 1 .5c.6.3 1.3.9 1.6 1.3.7.9 1.4.9 1.4-.1 0-1.2-1-2.3-2.9-3.2-2.7-1.3-4.1-2.3-7.6-5.8-8.5-8.4-10.6-9.6-15.6-9-8.3 1-17.6 7.2-24.6 16.3-.8 1-1.4 1.7-1.5 1.7-.7-.7 7.7-10 12.3-13.5 4.2-3.3 9.5-5.5 15-6.2l1.4-.2-.8-.5c-1.9-1.2-4.7-1.1-7.6.1-1.1.5-1 .6-1.5-1.7-.9-4.1-4.9-6.2-8.4-4.2m89 17c-2.1.8-2.8 2.5-1.7 4 .6.8 4.8 3.7 5.3 3.7.6 0 .3-.4-1-1.4-3.2-2.6-2.2-5 2.3-5.5 1.7-.2 1.7-.2 1-.5-1.1-.6-4.6-.7-5.9-.3m37.1 4.3c1.3 3.6 1.7 5.5 1.7 8.6 0 4.8-2 7.2-6.6 8l-2 .3 1.1.2c3.8.7 8.9-3.2 8.9-6.8 0-.5.1-.7.3-.6 1.1.7-.1 4.6-1.9 6.1-1.2 1.1-.7 1 1.2 0 2.5-1.5 2.5-6 0-11.6-.9-1.7-3.1-5.2-2.7-4.2m-175.2 3.8c-.1.1-.4 1-.7 1.8-2 5.5-7.8 11.5-14 14.5-2.6 1.3-2.7 1.3-2.4 2.7.2 1.4.4 1.4 4.6-1.4 7.1-4.7 12-10.6 12.9-15.7.3-1.5.1-2.6-.4-1.9m171.3 2.5c.2 2.3-.5 4-1.7 4.5-2.7 1.1-8.1 1.3-8.8.3-.4-.5-.3-.5 1.5-.8 3.4-.6 7.8-3.6 8.2-5.8.2-1.1.6-.3.8 1.8m-85.9 1.3c-10 2.7-15.7 8-19.6 18.3-.8 2.2-1.9 3.9-4 6.7-.6.8-1.7 2.5-2.4 3.8l-1.2 2.3.1 2.4c.2 3 1 5.5 2.1 6 .4.2.7.5.7.6 0 1.1 4.5 5.9 7.9 8.4 1.2.9 3 2.3 4.1 3.2 1.1.9 3.3 2.2 4.8 3 3.6 1.7 5.4 2.8 5.7 3.3.1.2.8.4 2 .4s1.9.1 2.1.4c.9.9 3.1-1.3 4.7-4.5 1-2 3.9-4.1 9.8-7.1 3.9-2 4.6-3.5 4.6-9.9 0-9.4-2.4-17.6-7.5-24.9-2-3-1.7-2.8 1.8.8 7.7 8.1 11.7 17.1 13.1 29.7.3 3.1 1 5.2 2.4 7.3 1.2 1.9 2.3 4.4 2.6 6 .2 1.2.6 1.6.9 1 .6-.9.1-3.6-1.1-6.2-1-2.2-1.4-4.6-1.4-7.6 0-11.2-6.1-25-15.4-34.5-2-2-4-3.9-4.5-4.2-.5-.3-1.5-1-2.1-1.5-3.7-3.2-6.9-4.1-10.2-3.2m95.7.7c1.8 4.9.6 9.2-2.9 10.9-3.4 1.6-11.9.8-17.8-1.9-1.2-.5-2.4-.9-2.7-.9-.3 0-2.1-.4-3.9-.8-1.8-.4-3.3-.8-3.4-.7-.5.5 11.7 7.6 15.3 8.8 1.4.5 1.2.1-.3-.8-1.6-1-5-3.6-4.9-3.7.1-.1 1.8.5 3.8 1.1 2.4.8 3.9 1.2 4.2 1 .3-.1 2-.2 3.8-.2 4.4-.1 7.8-1.6 9.4-4.1.5-.8.6-.9.7-.5.2 1-1.6 3.1-3.7 4.3-1.4.8-1.2.9.6.3 1.2-.4 3.4-2.4 3.4-3 0-.1.1-.6.3-1l.3-.7.5 1c1.6 3.1-2.2 7.6-6.5 7.6-.6 0-.7.1-.4.3 2.3 1.5 6.9-.6 8-3.7 1.1-2.9-.5-9.9-2.6-11.7-.4-.3-.6-.7-.6-.8s-.2-.5-.4-.8c-.4-.5-.4-.5-.2 0m-24.8 2.3c.3.1.4.2.1.2-.2 0-.6-.1-.9-.2-.3-.1-.4-.2-.1-.2.2-.1.6 0 .9.2m-141 1.8c-3.5 3.2-7 4.5-13.1 4.9-5.5.3-5.8.4-7.1 2l-1.1 1.3 1 .2c2.8.5 10.7-.2 13.6-1.2 2.5-.9 7-4.8 8.2-7.1 1.1-2.2.7-2.2-1.5-.1m28.9 2.7c-3.6 1.9-7.2 11.8-5.7 15.9.2.6.6 1.6.8 2.2.5 1.3 3.1 3.8 5.1 5l1.4.7-.2-.9c-.6-3.3 1.2-11.7 3.5-15.8 2.5-4.6 1.8-7.2-2.1-7.5-1.3-.1-1.9-.1-2.8.4m-65.1 1.1c-.8 2.4-1 9.3-.2 14.6.7 5.2-2.7 11.5-7.4 13.6-1.8.8-2 1.1-.8 1.5 2.4.7 8.1-2.2 9.4-4.7.9-1.8 1.5-6.8.9-8.4-1.2-3.2-2.1-11.9-1.6-15.2.3-2.2.2-2.8-.3-1.4m-27.1.8c-1.2 1-1.6 1.2-1.8.9-1.1-2-10.8 2.4-15.8 7.1-3.2 3-4.3 3.8-6 4.4-1.7.6-5.4 2.6-6.8 3.8-1.5 1.2-1.8.1-.5-1.9l.4-.6h-1.5c-4.7 0-7.5 5.4-5 9.5.5.9 1.4 2.4 1.9 3.4s1.6 2.5 2.4 3.4c1.5 1.7 1.9 2 6.8 5.7 4.4 3.3 5.7 3.7 2.4.8-1-.9-1.9-1.8-1.9-1.9 0-.1-.7-1.1-1.6-2.1-2.4-2.8-4.4-7.5-4.6-10.6l-.1-1.2 1.1-.1c1.9-.1 3.2.7 6.2 4 5.4 5.8 8.8 6.4 13.1 2.2 2-1.9 5.1-6.9 6.6-10.6.3-.8 1.2-2.9 1.9-4.7a51 51 0 0 0 2.2-6.1c.5-1.5 1.1-3.1 1.4-3.5l.6-.7v1.1c0 2.7-1.5 9-3.3 13.9-2.5 6.6-5.9 14.2-7.8 17.2-1.3 2.1-1 2.6.5 1 4.3-4.5 10.6-18.8 12.6-29.1 1.1-5.6 1.1-5.2.2-5.7-1.6-1.1-1.9-1-3.6.4m80.4-.2c-1.8 4.8-1.3 12 1.1 14.7l1 1.1v-4.6c0-4.3 0-4.7.8-7 .4-1.4.8-2.5.8-2.6 0-.1-1.8-1.3-3.1-2.1-.2-.1-.4.1-.6.5m-19.6 6.6c-1 .1-2.2.4-2.6.5-1 .4-2.7.4-4.5 0-2.9-.6-1.4.6 2 1.6 3.3 1 4.8 1.3 8.4 1.8 4.5.6 6.5 1.5 10.9 4.7.9.7 1.2.8 1.5.5.4-.4-3-3.7-6.1-6.1-1.1-.8-1.9-1.5-1.9-1.7-.1-1.1-4-1.8-7.7-1.3m37.6 5.3c-.2.3-.4.6-.4.7 0 .1-.2.5-.5.9-2 2.9-1.1 12.5 1.3 14.3 1.1.8 1.1.8.9-.1-.6-2.4.1-12.4.9-13.3.6-.6.2-1.8-1.1-2.6-.6-.4-.7-.4-1.1.1m-42.5 1c-1.9 1.8-2.2 2.5-1.6 4 1 2.6 3.3 6.9 3.6 6.8.2 0 1.2-.2 2.2-.4 3.2-.5 3.2-.5 3.3-3.9.1-1.6.2-3.1.3-3.2.4-.6-.1-1.2-1.7-2.3-3.5-2.2-4.6-2.4-6.1-1m11.9 6.1c-.2 1.1.3 4.3.8 5.4.5 1 .6 1.1 5.8 2 4 .7 5.6 1.6 14 8.2 1.7 1.3 3.8 3.1 4.8 4 2.8 2.5 4.8 4 5.1 3.7.3-.3-2.4-3.3-5.8-6.2-1.4-1.2-3.5-3-4.5-4-2-1.9-6.9-5.8-9-7.2-2.2-1.5-3.4-1.9-5.5-1.9-3 0-3.2-.1-3.9-2-.3-.9-.8-1.9-1.1-2.2l-.5-.6-.2.8m-58.3 5.5c0 1.1.2 2.8.5 3.9 2.3 9.6-4.7 16.4-14.9 14.6-1.6-.3-1.1.3 1 1.3 5.5 2.5 11.5 2 17.4-1.5 3.4-2 4.2-3.6 2.6-5.5-3.6-4.3-4.8-6.8-5.8-12.8-.2-1.1-.4-1.9-.6-1.9-.1 0-.2.8-.2 1.9m50 1.5c-1.3.4-1.2 2.2.2 5 .5 1 .4 1 2.4.5 2.5-.6 4.9-.5 8.9.6.4.1.2-.1-.7-.7-.7-.5-2.3-1.7-3.5-2.8-3.2-3-4.4-3.4-7.3-2.6m19.1 5.8c-.8 2.9-2.5 5.2-4.2 6-1.5.7-1.5.7.4 1.7 1.7.9 2.7 2.4 2.7 4.2 0 .8.1 1 .5 1 .3 0 .5.1.5.2s.4.3.8.4c1.4.3 3.6 1.7 5.1 3.4 1.2 1.3 1.5 1.5 1.5 1 0-1.7-4-5.3-5.9-5.3-.7 0-.7 0-.7-1.4 0-2.3-.9-3.8-2.4-3.7-1.4.1-1.4 0-.1-.8 1.6-1 2.9-5.6 2.2-7.4 0-.4-.2-.2-.4.7m-112.3.3c-.4.6-.6 1.2-.6 2.3-.1 4.8-.1 4.6-.6 4.6-.3 0-.7.4-.9.9-.2.5-.8 1.1-1.2 1.2-2.8 1.2-2.4 3.4 1.4 7.1 4.6 4.4 8 6.5 14.4 8.9 5.1 1.9 5.8 2.1 6.2 1.7.5-.5.2-.6-5.4-3-7.1-3.1-11.4-6.1-13.1-9.3l-.5-.9 1.2 1.1c2.8 2.6 9.2 6.8 9.9 6.3.3-.2 0-.5-1.3-1.5-6.5-4.4-10.1-8.6-9.3-10.6l.3-.8 1 1.3c1.8 2.4 17.7 11.5 20.1 11.5 1.1 0-1.4-1.5-7.8-4.8-6.6-3.4-10.3-6.2-11.8-9.1-.6-1.1-.6-1.1 1.6 1 2 1.9 7 5.2 7.9 5.2.9 0-.2-1.1-3.2-3.2a26.6 26.6 0 0 1-5.3-5.3c-.8-1.1-.4-1 1.3.5 3.9 3.3 11.9 8.1 15.2 9.1 1.1.3 2.9.9 3.9 1.2 5 1.7 2.4 0-3.5-2.3-4.8-1.9-12.3-7-16.9-11.7-2.5-2.4-2.3-2.4-3-1.4m96.9 1.7c-1.4.6-1.9 1.4-2.1 3.4-.3 3 .2 3.2 1.9.9.6-.8 1.5-1.9 2-2.4 1-.9 1.1-1.1.8-1.8-.1-.4-1.7-.5-2.6-.1m2.9 3.9c-2.9 1.4-4.4 4.4-4.2 8.2.2 3.5.6 4.2 2.9 4.7.8.2 2.5.8 3.9 1.4 5.1 2.1 11.6 2.7 14 1.5 1.6-.8 1.1-1.6-.7-1.2-1.4.3-2.6 0-5.4-1.4-3.5-1.8-4.2-2.8-2.6-4.1.5-.4 1-.8 1.2-1 1.2-1-1.7-.9-4.4.2-.9.4-1.8.6-1.9.6s-.8.5-1.5 1.1c-1.4 1.3-1.4 1.3-1.9.3s-.1-5.6.8-8.3c.9-2.4.9-2.6-.2-2m91.8 3.1c-3 1-5.3 3-8.5 7.5l-1.9 2.6.6 1.2c.3.6.6 1.3.6 1.5 0 .6 1.7 1.3 3.5 1.4 1.9.2 3.4-.3 5.2-1.8l3.1-2.2c3.1-2.1 3.7-4.5 2.1-7.8-1.5-2.8-2.3-3.2-4.7-2.4m16.8 7.6c-.2.4-.4 1-.4 1.2 0 2.8-4.2 6.7-9.2 8.7-3.9 1.5-4.3 1.8-5.1 3.6-.5 1.2-1.5 2.5-3.5 4.9-.6.7-1.1.9-2.9 1.3-1.2.2-2.3.5-2.4.6-.8.7-5.6.6-7.4-.1-2-.8-2.7-.9-2.9-.4-.1.2-.8-.1-2-.8-2.8-1.7-3.6-1.4-1.1.5 2.4 1.8 4.5 2.6 4.5 1.8 0-.3.4-.2 1.8.3 5 1.8 14.6-.4 16.8-3.8.2-.4 1.4-1.3 2.6-2.1 4.8-3.1 10.4-8.4 11.5-10.9.4-.8.5 2.3.1 3.9-.1.7-.9 2.7-1.7 4.5-2.8 6.1-1 5.5 2.1-.7 2-4 2.2-7.4.8-12.8-.2-.8-1.2-.5-1.6.3m-211.4 4.3c0 2.8 3.1 12 5.1 15.1.6 1 1.8 2.8 2.5 4 2.9 4.6 4.5 5.9 2 1.6-1.5-2.5-2.7-5.4-2.6-5.8.1-.2.6.6 1.2 1.7 1 1.9 2.9 4.2 3.2 3.9.1-.1-1-2.4-2.3-5.3-2.7-5.7-4.3-9.7-4.8-11.6-.5-1.8-.6-2.1-2.2-3.2-.8-.5-1.5-1.1-1.5-1.2 0-.1-.1-.2-.3-.2-.1-.1-.3.4-.3 1m-3.4 2.4c-1.3.6-.5 3.5 1.5 5.7 2.1 2.2 2.3 1.6.5-1.8-.9-1.8-1.1-2.4-.9-2.8.5-1.1 0-1.7-1.1-1.1m37.5 4.4c-.1.1-1.3.3-2.6.4-4 .3-3.9 1.2.1 1 2.2-.1 3.4-.6 3.4-1.3 0-.3-.7-.3-.9-.1m-41.3.6c-.9 1-.8 1.6.4 3.3 4.3 6 4.7 7 2 5.3-1.5-1-3.7-3.4-4.1-4.6-.4-1.1-1.1-1.2-1.2-.1-.3 2.8 2.6 5.5 7.6 7 2.8.8 3 .8 3 .3 0-.2-.1-.4-.2-.4s-1-1.2-1.9-2.6c-.9-1.4-2-3-2.5-3.4-1.3-1.3-1.5-1.8-1.3-2.7l.2-.8 1.6 1.5c2.2 2 3.3 2.8 3.3 2.2 0-.3-3.5-3.9-4.6-4.7-1-.9-1.8-1-2.3-.3m19 1.9c-.7.4 0 .7 7.5 2.6 4.7 1.2 10.6.5 12.4-1.4 1-1.1.7-1.2-.6-.3-2.5 1.5-7.3 1.5-13.8-.2-3.9-1-4.9-1.1-5.5-.7m-24 6.7c-2 3.1.2 5.1 8.9 8.2 2.7 1 3.2.8.5-.2-1.5-.5-4.8-2.6-4.5-2.8 0 0 1.7.5 3.7 1.2 4.1 1.4 5.8 1.4 3 .1-1.9-.9-1.4-1 2.1-.3 1.9.4 3.7.3 2.3-.1-.2-.1-1.6-.5-3-1.1-1.5-.6-4-1.4-5.7-1.9-4.4-1.3-5.9-2.3-5.9-3.9-.1-.9-.5-.6-1.4.8m.5 6.8c0 .5 3.2 6.1 4.8 8.4 2.4 3.6 5.1 6.1 7.6 7.1 1.1.5.9.2-.6-.7-1.5-1-3.8-3.4-4.5-4.8-.7-1.3-.2-1.6.5-.4.6 1 3.6 3.9 4 3.9.4 0 .3-.3-1.2-2-2.5-2.8-3-3.8-.8-1.9 1.6 1.5 5.5 3.8 6.3 3.8.6 0 .3-.4-.6-.8-2.3-.8-6.6-4.9-9.2-8.7-1-1.5-1.5-1.9-2.6-2.3-.7-.3-1.5-.6-1.7-.8-1.4-.6-2-.9-2-.8m-4.4.6c-1.2 1.2.1 4.4 2.7 6.8 3 2.8 4.2 2.6 1.4-.1-2.7-2.6-3.3-4.4-.7-2.2 2.2 1.9 2.7 1.7 1.1-.5-1.8-2.4-2-2.7-1.5-2.9.8-.3.4-.7-1-1.1-1.7-.5-1.5-.6-2 0m-1 6.4c-.4 1.4-.3 2.1.8 3.5.8 1 3.4 2.8 3.9 2.6.2-.1-.2-.4-.9-.8-1.7-1-2.6-2-2.6-2.7 0-.8.1-.8 1.2-.1 2.2 1.7 3.3 1.8 1.6.2-.5-.5-1.4-1.6-2-2.5-1.4-1.8-1.5-1.8-2-.2m-2.7 6.1c-1.8 1.8-1.3 3.1 1.4 3.9 3.8 1 10.3 2.1 7 1.1-4.9-1.4-5.1-1.5-5.1-2 0-.3-.1-.5-.2-.5s-.3-.2-.4-.4c-.1-.3.2-.3 1.4.1 1.7.5 6.1 1.2 6.3 1 .1-.1-.9-.5-2.1-.9-3.4-1.1-5.8-2.3-6-2.8-.2-.8-1.3-.6-2.3.5m-1.8 5.2c-.2.1-.7.3-1.1.3-.4 0-1.1.2-1.5.4-.4.2-1.8.6-3 1-4.2 1.1-6 3.5-5.4 7.2l.1 1 2-1c1.1-.6 3.1-1.3 4.3-1.6 2.7-.7 4.1-1.3 4.6-2.2.5-.8 1-4.1.7-4.8-.2-.7-.2-.7-.7-.3m-6.2 10.5c-4.8.7-7.8 2.5-9 5.5-.3.6-.8 1.9-1.3 2.9-1 2.2-1 2.2.5 2 1-.1 1.6-.4 2.8-1.5 2.6-2.2 5.5-3.4 8.6-3.4 2.3 0 3-.4 1.4-.6-2.9-.4-4.7-.2-8.8 1.1-1.2.4.2-.9 1.7-1.6 1.3-.6 2.2-.8 4.8-.9 4.6-.3 4.9-1 .5-1-1.9 0-2.1-.2-1.3-1 .7-.6 6.8-.4 9 .3 1.6.5 2.1.3 1.1-.4-1.8-1.7-5.3-2.1-10-1.4m-2.8 11.3c-9.3 2-13.1 4-14.9 7.9-2.1 4.3-1.8 6.4 1.4 8.4 5.2 3.4 17 8.3 17.5 7.4.6-1 .8-2.6.6-5.3l-.2-2.8 1.3-2.2 1.3-2.2v-2.7c0-3-.7-5.7-1.9-7.5l-.7-1.1h-1.7c-1-.1-2.2 0-2.7.1"/></svg>