<svg xmlns="http://www.w3.org/2000/svg" viewBox="0 0 500 500"><path d="M471.4 338.5c-.1.8-.1 1.5-.2 2.3h.3c0-.8 0-1.6-.1-2.3-.1-.1-.2-.3-.2-.4-1.2-8.2-2.3-16.4-3.6-24.6-3.8-23.8-8-47.6-13.1-71.2-4.7-21.7-10-43.2-17.1-64.3-4-12-8.5-23.9-14.6-35.1-2.9-5.3-6.1-10.4-10.3-14.8a29.7 29.7 0 0 0-8.9-6.8c-1.1-.5-2.1-1.2-3.1-1.9-5.2-4.2-10.3-8.5-15.5-12.7-19.2-15.7-39.6-29.9-62-41.1-23.5-11.7-48.1-19.8-74.2-22.7-.5-.1-1-.3-1.4-.5 3-.8 6-1.2 9-1.3 7.8-.3 15.4.7 23 2.1 13.1 2.4 25.9 6.3 38.5 10.6.8.3 1.6.5 2.3.8-.4-.5-.9-.8-1.5-1-13.7-5.7-27.7-10.7-42.1-14.4-5.3-1.4-10.8-2.7-16.2-3.4-6.5-.9-13.2-.9-19.7-.1-4.6.6-9.2 1.4-13.3 3.8-4.9 2.9-6.7 7.1-5.4 12.6.9 4 2.9 7.4 5.2 10.7 3.3 4.8 7.1 9.1 11.2 13.2.4.4.9.8 1.4 1.2-.8-1.9-1.8-3.7-2.8-5.4-2-3.7-3.6-7.5-4.3-11.6-1.2-6.8 1.8-11.4 8.4-13.2 3.9-1.1 7.9-1.1 11.9-.7 7.7.7 15.1 2.5 22.3 4.9 18.4 6 35.7 14.5 52.3 24.3 18.8 11.1 36.5 23.6 53 37.7 5.9 5 11.7 10.2 17.3 15.5 8.3 7.9 14.2 17.5 19.6 27.5 7.9 14.7 14.1 30.2 19.5 46 11.9 34.4 20.5 69.7 27.9 105.3 2.1 10 3.9 20.1 5.9 30.1 0 .2.4.5.6.9zM280 38.2c44 12.3 84.6 31.6 121.3 58.7 36.7 27.2 67.5 59.9 91.6 98.8-23.5-45.1-56.2-82-98.1-110.7-34.9-23.8-73.3-39.1-114.8-46.8zM21 247.7c15-13.9 31.5-24.7 51.9-28.8-12.9.7-24.6 5.2-36.1 10.9 2.3-2.5 4.9-4.5 7.6-6.2 12.4-8 26.1-11.9 40.5-13.6 6.9-.8 6.9-.6 13.2-3.6 2.3-1.1 4.7-2.2 7.1-3.3-.1-.5-.1-.8-.2-1.1-1.1-3.1-5.1-5.5-8.6-5.1-6.6.7-13 2-19.3 3.8-12.3 3.5-23.9 8.5-34.2 16.2-7.5 5.6-13.8 12.4-18.1 20.8a34.5 34.5 0 0 0-3.8 10zm91.6 178.9c-.6 1-1.1 1.8-1.6 2.6-3.5 5.2-6.7 10.6-10.4 15.6-9.4 12.7-21.9 20.4-37.5 22.8-4.9.7-9.8 1.5-14.8.7-5.4-.9-10.6-2.4-15.2-5.6-6.3-4.5-8.8-11.1-6.7-18.6 1.8-6.5 5.8-11.4 11.2-15.2.6-.4 1.2-.8 1.8-1.3-.6-.3-1-.3-1.4-.2-7.7 2.3-12.6 7.6-15.1 15-4 11.9.9 23.8 11.9 28.9 5.2 2.4 10.8 3.3 16.4 2.9 5.8-.4 11.6-1.2 17.4-2.2 13.6-2.3 25.2-8.2 33.6-19.4 5.4-7.2 10.4-14.7 15.6-22.1.1-.1 0-.3 0-.6-1.7-.9-3.3-2-5.2-3.3zm222.8-226.9c-.1.1-.3.2-.4.3.2.4.3.7.5 1.1.2.4.4.7.5 1.1 2.1 4.4 1.9 8.7-.7 12.8a26.9 26.9 0 0 1-3.9 5c-2.1 2.1-4.4 4.1-6.7 6-3.3 2.9-6.7 5.7-10 8.5-2.5 2.1-3.9 4.9-4.2 8-.4 4.3-.6 8.6-.6 12.9-.1 5.2.2 10.4.2 15.6 0 1-.4 2.1-1 2.9-2.3 3.5-4.1 7.2-5.6 11.1-3.1 8.1-4.7 16.6-5.7 25.1-1 9.7-1.7 19.4-2.6 29.1-.5 5.9-1 11.8-2.7 17.6-.4 1.3-.1 2.5.7 3.4l5.7 6c.3.3.8.5 1.2.8-1.9-3.7-3-7.5-3.7-11.5-.3-1.6-.3-3.1.5-4.7.7-1.5 1.1-3.1 1.3-4.7 1-7.9 2-15.8 2.9-23.7 1-9 1.9-18.1 3.1-27.1.5-3.6 1.5-7.1 2.4-10.7.4-1.6 1.1-3.2 2.7-4.6.6 2.2 1.1 4.1 1.8 6.4.4-1.1.6-1.7.8-2.4 1.6-5.4 2.1-11 2.3-16.6.2-4.7.3-9.4.5-14.1.4-7.8 3.3-14.3 9.5-19.3 3-2.5 5.9-5.1 8.6-8 1.9-2 3.6-4.2 5-6.6 2-3.3 2.8-6.9 2.4-10.8-.2-3.5-1.7-6.6-4.8-8.9zm-148-48.8l.5-.5c6.7-.7 11.6-4.2 15.2-9.8 1.4-2.2 2.6-4.5 4-6.7 1.8-3.1 3.5-6.3 5.5-9.2 3.9-5.6 8.9-9.9 15.4-12.2 4.2-1.5 8.4-1.9 12.7-.8 4.9 1.3 8.6 4.2 11.4 8.3 1 1.5 1.8 3.2.2 5.7-.7-1-1.1-1.8-1.8-2.4-2.3-1.9-4.5-4-7.1-5.5-5.5-3.3-11.1-2.9-16.2.9-1.9 1.4-3.6 3.1-5.1 4.8a54.1 54.1 0 0 0-4.9 6.9c-2.1 3.5-3.9 7.1-5.8 10.7-.3.5-.5 1.1-.7 1.6.1.1.3.2.4.2 1-1.4 2-2.7 3-4.1 1.8-2.8 3.4-5.7 5.4-8.4 1.9-2.6 4-5.2 6.2-7.5s5-3.9 8.3-4.4c3.9-.6 7.3.3 9.3 4.1.7 1.4 1.5 2.7 2.4 4 .7 1.1 1.5 2.1 2.3 3.1 1 1.1 2.3 1.8 3.8 1.9 1.9.1 2.3-.1 2.8-1.9 1.5-5.2 1.7-10.4.2-15.6-.6-2-1.8-3.7-3.8-4.5-2.6-1.1-5.2-2.3-7.9-3.1-10.5-3-19.9-.8-28.1 6.6-3.3 3-6 6.5-8 10.4-1.5 3-2.9 6.2-4.4 9.2-1.4 2.7-2.8 5.4-4.5 7.8-2.8 4-6.7 6.3-11.6 6.8-2.1.2-4.2.1-6.3.1-1.4 0-2.8-.3-4.4-.5 7.1 7 19.2 8.5 25.2 4.7-4.7.9-9.2 1.6-13.6-.7zM180 363.6c.1 0 .1-.1.2-.1-.4-.2-.7-.4-1.1-.5-8-2.6-16.1-4.8-24.4-6-6.6-1-13.3-1.5-19.9-.6-3.9.5-7.7 1.4-10.8 4-2.7 2.2-5.6 4.2-8.2 6.6-4.5 4-8.1 8.7-10.5 14.2-2.6 5.9-3.5 12-2 18.3 3.3 14.3 17.5 26.6 32.4 28.3 8.8 1 17.4 0 25.8-2.4 5.9-1.6 11.6-3.9 16.6-7.5 2.1-1.5 4.1-3.2 5.4-5.6 1.6-2.9 1.4-5.6-.8-8.1-.5-.6-1.1-1.2-1.7-1.7-3.6-2.8-7.7-4.3-12.1-5.4.6.5 1.3.8 2 1.2 1.9 1.2 4 2.2 5.8 3.6 4.4 3.5 4.5 7.7.6 11.7-1.2 1.2-2.5 2.3-4 3.2-5.2 3.4-10.9 5.5-16.7 7.2-.5.2-1.1.2-1.7.2-4.4 0-8.8.3-13.2 0a43.4 43.4 0 0 1-19.2-5.8c-6.3-3.6-11.3-8.6-13.6-15.7-3.5-10.9-1.4-20.9 5.4-29.9 5.3-7.1 12.9-10.7 21.4-12.5 9.9-2 19.8-1.4 29.6.2 4.9.9 9.8 2.1 14.7 3.1zM285.9 258c1.6 7.2 5.2 12.7 10.3 17.3-.1-.9-.4-1.7-.8-2.5-2.7-5.6-4.4-11.4-4.7-17.6-.4-8 1.6-15.3 6.3-21.9.5-.6 1.1-1.2.7-2.2-.7-2-2.1-3-4.4-3l.3.6c1.8 2.3 1.6 3.3-.9 4.8-1 .6-2.2 1.1-3.3 1.6-1.3.6-2.1 1.5-2.5 2.8-.3.9-.7 1.9-.8 2.8-.5 3-.8 5.9-1.2 8.7-4.3 3.4-8.6 6.6-12.7 10-4.3 3.6-8.4 7.4-12.5 11.3-9.3 8.9-18.1 18.3-25.5 28.8-2.9 4.1-5.6 8.4-7.4 13.2-.7 2-1.2 4.2-1.6 6.4-.2.7-.3 1.5.4 2.3.9-1.7 1.6-3.2 2.4-4.7.8-1.5 1.7-2.9 2.7-4.4 9.3-13.8 20.3-26.2 32.4-37.6 5.6-5.3 11.4-10.2 18-14.2 1.6-.8 3.1-1.5 4.8-2.5zm-14.6-50.4l.3.3c.9-.9 1.9-1.7 2.7-2.7 1.6-2 3-4.1 4.5-6.1 2.9-4 5.7-8.1 8.8-12 5.2-6.5 11.5-11.7 19.3-15 .9-.4 1.4-1 1.8-1.9 1.5-3.8 2.4-7.7 2.6-11.8.2-6-.8-11.8-2.3-17.6-1.7-6.5-3.5-12.9-4.8-19.4-2-9.5 0-18.3 6.4-25.8.3-.3.5-.7.7-1-5.4 4.2-9.4 9.3-10.6 16.1-.7 3.8-.4 7.6.5 11.4 1.4 5.5 2.9 11 4.3 16.5 1.8 7 2.1 14.1.3 21.2-.6 2.2-1.7 4-3.4 5.5-3.1 2.7-6.5 4.9-10.3 6.5-3.5 1.4-5.9 3.9-8.1 6.8-3.5 4.8-6 10-7.8 15.7-.4 1.2-1 1.8-2.1 2.4-1.7.8-3.3 1.8-4.7 3-2.1 1.9-4 4.1-5.7 6.3-2.6 3.4-4.9 7.1-7.5 10.5-2.6 3.5-5.5 6.8-8.2 10.3-.1.1-.1.3-.2.5 1.6-.7 3-1.6 4-2.7 2-2.3 3.9-4.8 5.7-7.3 2-2.7 3.9-5.6 5.9-8.4 1.6-2.2 3.7-3.9 6.2-5.1.8-.3 1.6-.5 3-1-.6 2-1 3.4-1.3 4.8zm38.6-139.9v.4c7.3 5.4 12.3 12.6 16.4 20.6 5.6 11 9.2 22.7 11.6 34.8 1.1 5.4 1.7 10.9 1 16.5-.6 4.9-1.9 9.4-6.6 12.3l1 4.8c.7-.9 1.1-1.4 1.4-1.9 1.9-2.4 4.3-3.3 7.1-2.2 1.6.6 3.2 1.4 4.4 2.6 2.6 2.6 5.1 5.2 7.3 8.1 4.6 6.1 8.2 12.9 11.7 19.7.5 1 1 1.9 1.5 2.9.1-.8-.1-1.5-.3-2.1-3.2-7.8-7-15.4-11.4-22.6-1.9-3.2-3.9-6.4-5.8-9.6-2.1-3.8-3.9-7.6-4.7-12-1.7-9.3-3.5-18.5-5.3-27.8-1.8-9.5-3.9-18.9-6.8-28.2-.3-.9-.8-1.8-1.5-2.4-5.7-4.5-11.6-8.7-17.9-12.2-.9-.6-2-1.2-3.1-1.7zm115.6 284.4c2 4.1 1.9 8-.1 12 2.6-1.8 3-4.7 3.5-7.5.4.4.6.5.8.7 4.4 5.5 3.9 15.6-1.1 20.5a6.8 6.8 0 0 1-4 2.1c-2.3.2-2.8-.1-3.5-2.3-.3-1-.6-2.2-1.8-2.5-.6 2.1-1 4.1-1.6 6-.6 1.8-1.8 3.3-3.5 4.2-1.1.5-2 .6-2.9-.3-.9-.8-1.9-1.6-2.7-2.5-16.6-16.8-33.1-33.6-49.7-50.4-.2-.2-.3-.5-.8-1.3 2.4.8 4.3 1.5 6.3 2.1-10.6-8.1-22.7-12.3-36-13.8-.5 1.5-.8 2.6-1.3 4.1h2.3c9.7.3 18.3 3.3 25.6 9.9 1.6 1.4 3.2 2.8 4.7 4.3 16.4 15.4 31.9 31.6 47.5 47.7 1.8 1.9 3.4 3.8 6.2 4.5 1.9.5 2.7.6 4.1-.9.8-.8 1.5-1.7 2.2-2.5 2 .4 3.9.8 5.6.4 7.2-1.6 13.1-10.6 12-18-1.1-7.5-5.8-12.4-11.8-16.5zm-281.8.4c0 .2.1.4.1.5h1.3c10.1-.8 19.9.7 29.7 3.3 12 3.2 23.5 7.6 34.8 12.6 15.2 6.7 30.3 13.7 45.6 20.4 13.8 6.1 28 11.4 42.8 14.6 10.4 2.3 20.9 3.4 31.5 2.2 2-.2 3.9-.6 6-.9-2.1-3.2-2.7-3.5-5.6-2.9-4.7.9-9.5 1.1-14.3 1-9.4-.2-18.5-2.2-27.5-4.8-13.1-3.8-25.7-9-38.2-14.7-14.2-6.4-28.3-13.1-42.6-19.4-11.5-5.1-23.3-9.7-35.7-12.2-6.9-1.4-13.8-2.3-20.8-1.2-2.4.4-4.7 1-7.1 1.5zM93.9 218.9c.7-.5.8-.6 1-.7 10.7-3.9 21.7-6.2 33.2-5.7 2.2.1 4.5.6 6.7 1.3 3 1 3.6 2.1 3.5 5.3 0 .1.2.2.4.4.6-.6 1.3-1.2 1.9-1.8.5-.5 1-1.1 1.5-1.6 2.5-3.3 1.5-6.1-2.5-7.1-8.7-2.3-17.5-2.8-26.4-1.8-18.1 2.2-32.7 10.6-44.2 24.6-.3.4-.6.9-.9 1.3.9-.1 1.6-.5 2.3-.9 6.3-3.7 12.8-7 19.8-9.3 8.5-2.8 17.2-3.9 25.9-1.6 3.5.9 6.9 2.5 10.3 3.7 1.4.5 2.8.9 4.2 1.1 1.3.2 2.3-.3 2.7-2-3.1.7-5.6-.5-7.9-2.1l-3-2.1a13.6 13.6 0 0 0-7-2.6c-5.6-.6-11.2-.1-16.8.8-1.4.2-2.8.4-4.7.8zm3.4 89.4c-4-9.3-4.5-18.8-5.1-28.2h-.5c-.2 5.3-.5 10.5-.8 16.1-.3-.6-.5-.8-.5-1-2.8-10.6-4.5-21.3-4-32.3.3-6.9 1.5-13.6 4.4-19.9 1.2-2.8 2.7-5.4 4.8-7.6 2.3-2.3 3.3-2.1 4.5.9 1.3 3.2 2.7 6.4 5.3 9-4 5.9-7.1 12.1-8.6 19 3.5-6.2 7-12.4 10.3-18.3-1.3-4-2.5-7.8-3.7-11.6-.3-1.1-.6-2.2-1.1-3.2-1.6-3.5-5.5-4.2-8.2-1.6-.6.6-1.2 1.1-1.7 1.8-11 13.4-15.5 28.5-12 45.7 2.4 11.5 8.3 21.3 15.8 30.1.2.3.4.5 1.1 1.1zm144.3-46.9c.7-.8 1.4-1.7 2.1-2.4 7.8-7.6 15.7-15.1 23.6-22.6 2.9-2.8 6.4-4.8 10.2-6 3.6-1.1 7.1-2.3 10.7-3.3 5.4-1.6 10.8-3 16.2-4.5 2.5-.7 4-2.3 5-4.6 1.2-2.9 1.9-5.9 1.6-9-.1-1-.4-1.9-.7-2.9-.4.1-.5.1-.5.2-.2.4-.4.7-.5 1.1-1.5 3.8-3.9 7-7.2 9.3-2.9 2-6 4-9.2 5.4-4.7 2.1-9.6 3.9-14.6 5.5-7.1 2.2-13.1 6-18.2 11.4-2.5 2.6-5.2 5.2-7.9 7.6-2.5 2.3-5.2 4.2-8.3 5.5-2.1 1-4.3 1.4-6.6 1-2.5-.4-5-.7-7.4-1.5-7.7-2.5-15.4-5.1-23.1-7.8-8.9-3.1-17.8-6.2-27.2-7.3-5.5-.7-11-.7-16.4 1.2-.5.2-1 .5-1.5.7 1.9.1 3.7-.1 5.4-.2 6.8-.2 13.5.7 20.1 2.2 13.5 3 26.4 7.9 39 13.6 5.1 2.4 10 4.8 15.4 7.4zm-3.1-138.9c-.2.1-.3.2-.5.3 0 11.2 3.1 22.1 10.7 30.3a38.6 38.6 0 0 0 18.7 11.1c.2-.4.3-.6.3-.7 0-.5 0-1-.1-1.5-1-7.4.2-14.6 2.6-21.6.4-1.3.9-2.6 1.2-4 .3-1.4.4-2.7-.1-4.2-1.5 3.2-2.8 6.1-4.3 9-1.7 3.2-3.4 6.3-4.2 9.8 0 .1-.3.1-.5.3-2.4-1.7-4.2-4-5.3-6.7-1.1-2.7-2-5.5-3-8.4-3.1.4-5.9-.4-8.2-2.7-1.1-1.1-2-2.3-2.8-3.6-1.1-1.7-2-3.5-3-5.3-.5-.8-1-1.4-1.5-2.1zm71 241.2c-.1.1-.2.3-.3.4.8 1 1.8 1.9 2.4 3 1.8 3.3 4.5 5.5 7.6 7.4.9.5 1.7 1.2 2.6 1.8 19.5 13.9 29.5 33.1 31.2 56.7.6 8.3-.4 16.6-2.8 24.6-.2.7-.3 1.4-.5 2.1.2 0 .3 0 .5.1 5.2-13 6-26.4 3.5-40.2.5.8.9 1.7 1.2 2.5 2 5.9 3 12 3.4 18.2.4 6.4.6 12.8.8 19.2 0 .4.1.8.2 1.2 1.2-3 1.6-6.1 1.9-9.3 1.2-16.1-2.4-31.2-9.9-45.3-8-15.1-19.3-27.3-33.3-37-2.8-1.7-5.7-3.5-8.5-5.4zm-1.5-14.5c9.4 2.9 16.4 8.5 21.9 16 .5.7 1 1.3 1.5 1.9 4.1 5.7 8.2 11.3 12.3 17 1.9 2.6 4.1 4.9 6.6 6.8 3.6 2.6 7.2 5.4 10.8 7.9 1.9 1.3 3.3 2.9 4.1 5 .8 1.9 1.3 4 1.9 6 4.3-1.2 7.6 1 10.6 3.9s4.3 6.5 3.5 10.9c.6-.5 1-.9 1.3-1.5 4.1-8.1-.7-17.8-9.7-19.3-1.6-.3-3.2-.4-4.9-.6-1-3-3.3-5-5.7-6.8-2.8-2.1-5.7-4.1-8.5-6.1-4.4-3-7.8-6.8-10.6-11.3-3.3-5.5-6.7-11-10.4-16.2-2.4-3.5-5.3-6.8-8.2-10-1.9-2.1-4.3-3.8-7-4.8-3.1-1.3-6.2-1-9.5 1.2zm3.1-248.5c-.1 0-.3-.1-.4-.1-.3 1-.7 2-.9 3-.3 1.6-.6 3.2-.7 4.8-.6 6.3.7 12.3 3.2 18 1.7 3.9 3.8 7.7 5.5 11.7 1.6 3.6 3.2 7.3 4.2 11.1 1.8 7.2.7 14-4.1 20-2.8 3.5-4.3 7.7-4.6 12.7.9-.9 1.5-1.4 2.1-1.9 2.4-2.1 4.7-4.2 7.2-6.2 1.3-1 2.9-2.1 4.5-2.4 2.2-.4 2.7-1.6 3.1-3.4 1.1-5.2.7-10.3-1.3-15.1-2-4.9-4.5-9.7-6.8-14.5-2.4-4.8-5-9.5-7.2-14.4-3.2-7.1-4.8-14.5-3.8-22.3-.1-.2-.1-.6 0-1zm41.7 184.1c3.8 1.2 7.4 2.1 10.9 3.3 8.6 2.9 16.8 6.6 23.8 12.5 12 10.1 16.4 22.9 12.9 38.2-.8 3.7-2.3 7.3-3.5 11.2.4.4.9 1 1.7 1.8 5.5-10.4 7.7-20.9 4.8-32.1-2.3-9-7.4-16.2-14.2-22.3-9.8-8.8-21.3-14.4-33.5-18.9-.1-.1-.3 0-.7 0-.7 2-1.4 4.1-2.2 6.3zm-30.7 62.6c-1.3-4.5-1.2-8.8-.5-13.2 1.1-7 3.5-13.5 6.8-19.7.9-1.6 1.9-3.2 3.1-4.7 3.9-4.7 7.8-9.4 11.8-14 1.8-2.1 3.2-4.5 4.3-7 1.6-3.8 3.2-7.6 4.8-11.5.7-1.8 1.8-3.2 3.2-4.5 7.2-6.3 11.9-14.1 13.3-23.7 1.1-7.7-.3-15-4-22v5.2c0 .5.2.9.4 1.4 3.4 9.6 2 18.5-3.3 27.1-2.2 3.6-4.9 6.9-8 9.8-1.8 1.7-3.2 3.7-4.2 5.9-1.4 3.1-2.8 6.2-4.1 9.4-1.4 3.3-3.1 6.2-5.4 8.9-2.7 3.1-5.1 6.4-8 9.2-4.1 4.1-6.8 8.9-8.8 14.2-.4 1-.8 2-1.2 2.9-2.3 6.3-4.2 12.7-4.5 19.4-.2 5-.8 3.6 3.6 6.8.2 0 .3 0 .7.1zM301.3 159l2.6 1.7c.4-.9.7-1.7 1.2-2.7l-3.8-1.9c-.5-3.1-.7-3.4-4.3-6.6.1-.5.2-1 .3-1.6.6-3.9 0-5.2-3.7-6.5-1.7-.6-2.5-1.5-2.9-3.2-.1-.5-.3-.9-.4-1.4-1.1-3.6-2-4.2-5.7-4.5-.2 0-.5-.1-.8-.2-.5-1.3-1-2.7-1.5-4-.7-1.7-1.9-2.9-3.7-3.1-1.8-.2-2.7-1-3.2-2.8-.7-2.7-2-4.8-5.1-5-.8-2.3-1.4-4.5-2.2-6.7-.9-2.7-2.5-5-5-6.3a7.9 7.9 0 0 1-3.1-2.9 86.6 86.6 0 0 0-3.8-4.7c-.6-.7-1.5-1.3-2.3-1.8-2.2-1.3-4.2-1-6 .9-1.9 2-2.8 4.4-3.6 6.9 2.8 1.4 5.4 2.7 8.1 4.1.4-.6.7-1.2 1.1-1.7 1.6-2.2 3.3-2.6 5.3-.8 1.6 1.4 2.9 3.3 4.3 4.9l.5.5c.3-.4.6-.9 1.1-1.5 3 4.4 3.4 9.3 4.8 14 .6-.9 1.2-1.7 1.9-2.7 2.9 2.9 3.6 6.5 5 9.7 1.9-1.1 2.7-1 3.8.7.7 1.1 1.3 2.3 1.8 3.4.5 1.2.9 2.4 1.4 3.6 1.9-.9 2.6-.9 3.7.5 1.1 1.3 1.9 2.8 2.7 4.3.7 1.5 1.2 3.1 1.7 4.6.6-.4 1.3-1.2 1.6-1.1.7.3 1.4 1 1.9 1.7.3.5.3 1.3.2 1.9-.2 1.4-.6 2.7-.9 4-.2.7-.4 1.3-.5 2 .1.1.2.2.3.2l3.3-2.4c2.4 2.4 1.6 5.4 1.7 8.7.7-1 1.3-1.5 2.2-2.2zm.6 35.3c-.1 0-.3 0-.4.1-.1.2-.2.5-.2.7-1.2 6.3-4.8 10.3-11 12.1-2.4.7-4.8 1.4-7.3 1.9-7.8 1.6-14.8 4.7-20.7 10.2-3.3 3-6.9 5.7-10.6 8.1-8.1 5.4-17 8-26.8 7.5-.4 0-.8.1-1.6.2.6.3.8.4 1.1.5l.9.3c5.6 1.7 11.1 1.1 16.5-.7s10.2-4.7 14.8-7.8c3.4-2.3 6.7-4.7 10.1-6.8 1.6-1 3.4-2.1 5.3-2.4 4.8-.7 9.3-2.3 13.6-4.4 1.3-.6 3-1.1 4.4-1 4.9.2 8-2.1 9.9-6.4 1.6-3.5 2-7.2 2.1-10.9.1-.5 0-.8-.1-1.2zm42.5-14.6c0-.2 0-.4.1-.6-2.3-.2-4.6-.5-7-.4-7.4.1-12.5 3.7-15.2 10.5-2.1 5-2.5 10.2-1.7 15.6.1.5 0 1.1 0 1.7-3.1.1-3.4-2.9-5.1-4.6-.1 2.1.5 3.7 1.6 5 1.1 1.4 2.3 2.7 3.6 3.9 2.9 2.6 5 5.6 5.5 9.5 0 .1.2.2.5.4 1.1-.7 2.3-1.4 3.4-2.1-.2-2.7-1.3-4.8-2.5-7-.9-1.6-2-3.2-2.9-4.8-1.7-3-2.2-6.2-1.6-9.6.7-3.7 2.3-7.1 4-10.4.5-.9 1.2-1.2 2.2-1.3 3.4-.3 6.7-.1 9.9.8 6.7 1.8 12.5 5.5 17.8 9.8 8.5 6.8 15.5 15 22.1 23.7.4.6.9 1.1 1.4 1.7.1-.6-.1-1.1-.4-1.4-3.8-5.2-7.3-10.5-11.4-15.5-5.2-6.5-11.4-12-18.7-16.2-5.4-3.1-11.1-5.3-17.5-5.5-.3 0-.6-.1-1.2-.3 4.2-3 8.7-2.9 13.1-2.9zm-142.6 58.4c1.9 1.7 4.2 2.4 6.5 3.1 11.4 3.6 23.2 5.4 35.1 7.3 1.1.2 2 0 2.9-.8 6.2-5.6 12.2-11.5 17.6-17.9.4-.5.7-1 1.1-1.5-1.1.1-1.9.6-2.7 1.1-2.8 1.7-5.6 3.5-8.5 5.3-6.3 3.8-13.1 6-20.4 6.7-7.5.7-14.9-.1-22.3-1.4-3.2-.6-6.3-1.3-9.3-1.9zm215.7 27.1c-.7-.6-1.4-1.4-2.2-1.8-2.4-1.4-4.7-3-7.2-4-12.2-5.3-24.7-4.8-37.2-1-.5.2-1.1.5-1.3.9-1.6 2.5-3.1 5.1-4.7 7.8.6.5 1.2 1.1 1.8 1.5 5.9-4.5 12-6.9 16.9-6.5-.8 1.2-2.2 1.8-2.7 3.4 12.3-6.4 24.3-4.9 36.6-.3zM283.2 160.3c.2 0 .3 0 .5-.1-.4-2.7-.5-5.4-1.1-8.1-.7-3.2-1.7-6.4-2.7-9.6-.5-1.5-1.5-2.9-3.2-3.3-1.9 1.7-3.8 3.3-5.7 5 2.4.9 3.9-1 5.9-1.9 1 3.2 1.8 6.2 2.8 9.2.5 1.4.3 2.6-.5 3.8-3.3 5-6.4 10.2-9.8 15.2-1.2 1.8-1.5 3.3-.7 5.4 1.3 3.3 2.3 6.8 3.5 10.1.3.9.7 1.8 1 2.7.1 0 .2-.1.4-.1a681 681 0 0 0-1.9-13c.7-.1 1.2-.3 1.8-.4 4.3-.7 8.5-1.7 12.3-3.8 4.7-2.6 5.8-4.8 4.9-10.2 0-.2 0-.3-.1-.5-.8-3.6-1.9-7.2-3.7-10.4-.1 1.1 0 2.2.1 3.3.3 4.1.3 8.1-1.1 12-1.6 4.6-4.9 6.5-9.7 5.8-2-.3-2.3-.7-1.7-2.5 1.3-4.1 3.8-7.5 6.6-10.9.7.9 1.4 1.6 2.1 2.3zm173.9 74.6v-4.6c.2-8.7.5-17.4 2.3-25.9 1.1-5.1 2.5-10.1 5.5-14.5 3.7-5.2 8.7-6.7 14.7-4.5.6.2 1.3.4 2 .7-3.1-3.1-6.5-5.5-10.7-6.4-4.3-1-7.7.5-10.1 4-1 1.5-1.8 3.1-2.4 4.8-1.8 4.7-2.5 9.8-2.8 14.8-.5 10.5 0 21 1.5 31.6zM381 308.4c-2.1-2.7-4.6-4.8-7.4-6.5-8.7-5.2-17.3-5-25.7.5-2 1.3-3.9 2.2-6.3 2.2-.4 0-.8.1-1.2.1-2.1.2-2.7.7-3.5 3 5.4-1.6 9.9.3 14.2 3.4 1.4 1.1 3 2 4.5 2.9 1.6.9 3.3 1.6 5.8 1.6-3-2.1-5.4-4-6.6-7.3 8.9-6.5 17.5-4.7 26.2.1zM196.1 135.5c-3.3.6-6.4 1.6-9.9 1.5.2-.4.3-.7.5-.8 3.9-2.6 6.6-6.2 9.1-10.1 2.3-3.5 5.4-6.1 9.4-7.4 1.3-.5 2.2-1.2 2.9-2.3 2.8-4.3 6.3-7.8 10.7-10.5.4-.3.8-.6 1.4-1.2-3.6-.4-6.5.3-9.4 1.6-3.9 1.8-7.2 4.5-10 7.7-3.1 3.7-5.8 7.6-8.8 11.4-2 2.5-3.9 5-6.1 7.3-2.6 2.8-5.9 4.5-9.8 5.1-.4.1-.7.3-1.5.7 7.9 1.6 14.9.6 21.5-3zm141.1 276.1c-.5.1-.8.1-1 .1-7.7 2.3-15.6 2.8-23.7 2.4-10.4-.4-20.5-2.3-30.5-4.8-14.5-3.6-28.6-8.7-42.3-14.6-.6-.3-1.2-.5-1.8-.7.2.4.5.6.7.7 18.7 9.1 38 16.5 58.5 20.5 11.1 2.2 22.2 3 33.5 1.7 2.6-.3 5.3-.6 7.9-1.7-.2-.8-.4-1.6-.6-2.3-.2-.3-.4-.7-.7-1.3zm-208.5 2.3c.4-.2.5-.2.5-.3l1.2-1.5c5.6-6.5 12.5-10.2 21.1-10.8 7-.5 13.5 1.1 19.9 3.9l2.4.9c-20-16.8-39.5-9.5-49.9 5.6 1.7.7 3.3 1.5 4.8 2.2zm173.4-130.6c-4.4 4.3-9.6 7.3-14.9 10-2.9 1.5-5.9 2.8-8.8 4.1-5.9 2.8-11.8 5.4-17.6 8.4-3.1 1.6-5.8 3.9-8.6 6-.6.5-1.1 1.2-1.6 1.8 2.4-1.1 4.4-2.4 6.6-3.5s4.4-2.1 6.7-2.9c8.4-3 17.1-3.8 25.9-3.5 1.8.1 3.5 0 5.3 0 .1-.6.2-1.1.3-1.5.1-.5.2-1.1.3-1.8-7-.2-13.8 1-20.6 2 1.3-1 2.7-1.9 4.1-2.5 5.9-2.5 11.8-4.9 17.8-7.4.9-.4 1.8-.5 2.2-1.6 1-2.6 2-5.1 2.9-7.6zm69.5-121.6c1.6-1.3 1.9-3.7 4.4-4.5-2.3 12.8-.2 25.1 2.7 37.3.2-.6.2-1.1.2-1.7l-1.2-11.1c-.5-6.2-.9-12.3-.2-18.5.2-1.9.4-3.9 1.7-5.8.9.4 1.8.7 2.6 1.2 1.5 1.1 3.1 2.2 4.3 3.5 3 3.3 6.1 6.6 8.8 10.1 9.4 12.1 17.4 25.1 25.3 38.2.4.7.9 1.4 1.4 2.2.1-.7-.2-1.3-.5-1.8-2.6-4.8-5.2-9.6-8-14.3-6.3-10.8-12.7-21.4-20.6-31.1-2.1-2.6-4.5-5.1-7-7.5a19.2 19.2 0 0 0-5-3.4c-3.2-1.6-5.7-.6-7.3 2.5-.7 1.6-1.1 3.2-1.6 4.7zm-59.8 146.8c.1-.3.2-.5.3-.8 2.7-8.8 6.9-16.8 11.7-24.5 3.7-5.8 7.6-11.5 11.2-17.4 1.9-3.1 3.6-6.3 5.2-9.6 1.3-2.8-.4-6.6-3-7.9-.8 2.6-1.5 5.3-2.5 7.8-1.3 3.1-2.8 6.2-4.4 9.2-4.2 7.9-8.5 15.7-12.6 23.6-2.5 4.8-4.7 9.8-5.8 15.2a7.3 7.3 0 0 0-.1 4.4zm24.4-38.2c-.5 6.8-1.9 12.7-4.3 18.4-2.4 5.8-5.8 11-9.9 15.8 2.4-.7 4.4-2.1 6.3-3.6 4.7-3.8 8.1-8.3 9.5-14.3s4.5-11.3 9.2-15.5c3.6-3.3 6.2-7.3 7.4-12.1.5-1.9.9-3.8.4-5.8-3.2 8.6-8 15.9-15.6 21.4-1.1-1.3-1.9-2.6-3-4.3zm70.5 89.7v.3c1 0 1.9-.1 2.9 0 1.6.1 3.3.1 4.8.5 2 .4 2.4 1.3 2 3.8-2.8.4-5.6-.2-8.3-.7-2.6-.5-4.9-1.5-6.9-3.4-3.3-3.1-6.8-6.1-10-9.3-5.2-5.2-9.8-10.8-13.7-17.1-4.5-7.3-7.8-14.9-8.5-23.6-1.5.2-2.3 1.1-2.8 2.3-.8 1.8-1 3.6-.2 5.4 1 2.1 1.9 4.3 3.1 6.3 6.1 10.5 13.2 20.1 21.7 28.7 3.7 3.9 7.8 7.4 12.3 10.3 3.6 2.2 7.3 3.9 11.5 4.2 1.6.1 2.8.8 3.7 2 .3.4.7.8 1.2 1.5.4-1.6.8-2.8 1.1-4 .4-2.3.2-2.6-2.1-3.3-.3-.9-.5-1.7-.9-2.5-1-2.2-1.8-2.7-4.2-2.4-2.1.3-4.4.7-6.7 1zM245 310.7c.4-.3.7-.6 1.1-.9 6.2-5.8 13.2-10.6 20.8-14.4 3.8-1.9 7.8-3.7 11.6-5.7 3.3-1.8 6.6-3.8 9.8-6 1.4-1 2.6-2.3 3.8-3.4-1.7-2.1-3.2-4-4.7-5.8-.9 3.7-1.7 5.1-5 7.4-1.7 1.2-3.5 2.3-5.4 3.4-2.3 1.3-4.7 2.6-7.1 3.9-5.3 2.9-10.5 6-15.1 9.8-4 3.2-7.4 6.9-9.8 11.7zm164.8-57.9c-7.5-10.4-25.3-15.8-38.1-11.5v2.9c0 .2.1.5.2.9 9.1-.9 18.1-1.2 26.6 3.1a63.3 63.3 0 0 0-21.7.3c5.6.4 11.2.6 16.6 1.3 5.4.8 10.8 2 16.4 3zM242 230.6c-1.1-.8-1.9-1.7-3-2.1-2.2-.9-4.4-1.8-6.6-2.4-6.7-1.6-13.5-2-20.3-2.2-13.4-.2-26.8-.3-40.2-.4-.4 0-.9.1-1.3.1 4.2.7 8.4 1.1 12.6 1.4 10.2.7 20.4 1.3 30.7 2 8.3.6 16.5 1.7 24.3 4.7 1.3.6 2.5.2 3.8-1.1zm61.2 133.8c-.2.1-.4.1-.6.2.7 2.4 1.3 4.8 2 7.1a12 12 0 0 0 5.3 7c3.6 2.2 7.2 4.5 10.7 6.9 5.8 4 11.1 8.5 15.4 14.1 3.4 4.5 5.9 9.5 6.9 15.2 1.6 9.6 1.6 19.3 1 28.9l-.6 9.4c.5-.7.8-1.5.9-2.2 2.8-12.7 2.6-25.5.7-38.3-.5-3.8-1.9-7.1-4.3-9.9-2.9-3.5-5.9-7-9.4-9.9-6.2-5.2-12.7-9.9-19.1-14.7-3.3-2.5-5.8-5.4-7-9.4-.3-1.6-1.2-3-1.9-4.4zm102.3-7c2.2.6 2.4.6 3.3-.7 1.4-2.1 2.8-4.2 3.8-6.5 2.9-6.3 4-13 4.4-19.9.5-6.4.2-12.8-.5-19.2-.1-1.4-.1-2.9-.2-4.5l2.5.3c-1.6-3.4-3.5-6-7.2-7.1-2.1-.6-3.4-2.4-4.4-4.4-.2-.4 0-1.1.2-1.6s.6-.8 1.2-1.4c-2-.3-3.7-.4-5.5.7.8 1 1.5 1.8 2.2 2.7 1.5 1.7 3.1 3.3 4.5 5.1 1.7 2 3 4.3 3.5 6.9 1.6 8.3 2.2 16.6 1.5 25-.6 6.8-2.3 13.3-5.8 19.2-1 1.8-2.2 3.5-3.5 5.4zm13.9-191c-2.4 2-3.2 4.5-3.4 7.1-.3 3.7 0 7.3.8 10.9 2.3 10.6 6.3 20.6 10.7 30.5.1.2.3.4.4.6-1-3.8-2.2-7.5-3.4-11.2-1.8-5.9-3.5-11.8-3.9-18-.2-3.1-.2-6.3 3.1-8.2-1.3-4-2.8-7.8-4.3-11.7zm-16.4 111c4.9-.4 9.6.1 14.1 2.2-2.8-4.5-6.6-7.4-11.7-8.7-3.5-.9-7.1-.9-10.7-.6-2.9.3-5.8.6-8.7.7-2.4.1-4.8 0-7.7 0 1.7 1.4 3.2 2.4 4.4 3.6 1.1 1 2.2 1.3 3.7.8a41 41 0 0 1 13.5-1.6c2.3.1 4.6.4 7.2 1.4-1.6.9-2.9 1.6-4.1 2.2zM293.3 319c-2.5-.6-4.9-.4-7.2 0-5.5 1-10.6 3-15.8 4.9-6.3 2.3-12.5 4.7-19.1 5.9-4.2.7-8.4.9-12.5-.7-3.4-1.3-3.7-1.9-2.7-5.5 0-.1-.1-.3-.2-.5-2.1 1.7-4.4 3-7.3 2.7.8 1.7 1.1 2.3 1.9 2.2 1.8-.3 3 .9 4.4 1.7 1.1.6 2.4 1.1 3.6 1.4 4 1.1 8.1.8 12.1.3 7.1-1 14-3 20.6-5.8 6.5-2.8 13.3-4.3 20.4-3.3.4.1.8 0 1.3 0 .3-1.2.4-2.2.5-3.3zm-46.3 2.9c1.3 1.5 2.9 1.4 4.5 1.4 3.8 0 7.4-1.2 10.9-2.3 4.7-1.4 9.3-2.9 14-4.3 5.8-1.8 11.8-3.1 18-3 .2-1.1.3-2 .5-3.1-.7 0-1.2-.1-1.7-.1-4.7.2-9.4.9-13.9 2.3-6.8 2.1-13.6 4.5-20.3 6.8-3.8 1.3-7.6 2.8-12 2.3zm44.9-226.7a31.9 31.9 0 0 0 0 17.6c1.6 5.8 4.1 11.1 7.8 15.9-.1-.9-.4-1.7-.8-2.4-1.6-3.4-3.5-6.7-4.7-10.2-3.1-9-2.9-18 1.4-26.8.2-.3.3-.7.4-1.1-.9.3-1.5.8-2 1.4-6.4 6.2-8.4 14.1-8.1 22.7.2 6.1.7 12.3 1 18.5.7.3 1.6.8 2.9 1.3-.4-2-.7-3.8-1-5.5-1.1-5.7-2-11.4-1.7-17.2.2-5.1 1.3-10 4.8-14.2zM108 231c3.5.3 6.2-1.2 8.8-2.9 1.5-1 2.8-1.1 4.3-.4 2.5 1 4.9 2.1 7.4 3 1.4.5 3 .7 4.5.8 1.1.1 1.9-.5 2.3-1.9-3.1 1.2-5.6.3-8.1-1-1.3-.7-2.5-1.6-3.7-2.4-4.7-3-9.8-4.4-15.7-4.9 6.2 2.7 6.2 2.7 6.8 4.9-3.3 1.9-7.1 1.9-10.8 2.4.6 1.4 1.1 2.8 1.6 4.1s.5 2.9 2.1 3.5c1.3-1.7.4-3.4.5-5.2zm47.1 7.3c-2.4 1-2.4 1-4.2-.5-.4-.3-.8-.6-1.1-.9-2.4-2.3-5.1-3-8.3-1.9-2.4.9-5 1.6-7.5 2.1-4.1.8-8 .5-10.5-3.6-.1-.1-.3-.1-.6-.2-3.6 1.5-7.3 3.1-11 4.7 1.7.1 3.3-.2 4.9-.4 3.8-.4 7.5-.4 10.9 1.5a6 6 0 0 0 4.9.4c3.3-1 6.6-1.8 9.8-2.7 2-.6 3.7-.3 5.2 1 1.5 1.2 2.9 2.6 4.4 3.8.5.4.9.8 1.8 1.5.6-1.9.9-3.4 1.3-4.8zm145.7-2.4s-.2 0-.3.2c-.3.4-.7.9-1 1.4-2.4 4.3-3.7 9-4.7 13.8-.2 1 .3 1.7.8 2.4 3.1 3.8 6.1 7.6 9.2 11.4.3.3.6.6 1.1 1-.1-1-.4-1.9-.1-2.6.5-1.4 0-2.3-.9-3.2-.5-.6-1-1.3-1.5-1.9-3-3.7-4.5-7.9-4.1-12.7.3-3.4 1-6.5 1.5-9.8zM386 369.4c-3.5 2.6-23.6 21.3-24.5 22.9.8.5 1.6.9 2.5 1.4 8-7.7 15.9-15.2 23.8-22.8-.8-.6-1.2-1-1.8-1.5zm-43.2-165.1c.1.8.1 1.1.2 1.2 1.8 3.6 3.6 7.3 5.5 10.8 1.1 2 2.2 4 3.5 5.8.8 1.1 2 2.2 3.2 2.9 2.8 1.5 5.7-.3 6-3.4.2-2.5-1.8-6-4.4-7.4.1.8.3 1.5.3 2.2 0 1 .1 2-.1 2.9-.4 1.7-1.4 2.2-2.8 1.1-1.1-.9-2.1-2.1-2.9-3.3-2-3-3.9-6.2-5.9-9.2-.5-1-1.4-2.1-2.6-3.6zm33.4-64.6c-3-2.8-6.3-5.1-10.3-6.2-.6-.2-1.3-.2-1.9-.2-2.1-.1-3.6.9-4.4 2.8-.4.8-.7 1.7-.7 2.6-.1 2.6-.2 5.2 0 7.8.4 4.4 1.3 8.6 2.8 12.8.1-.9 0-1.7-.1-2.6-.3-3.8-.7-7.6-.6-11.4 0-1.9.7-3.8 1.4-5.6.8-2.1 2.6-3 4.9-3 2.4 0 4.4.8 6.5 1.9.7.2 1.6.6 2.4 1.1zm-231.1 77.5c.3 2.3 1.5 3.3 3.1 3.9 1.1.4 2.2.7 3.3 1 1.9.4 3 1.6 3.3 3.5.3 1.8.5 3.7.7 5.6.2-.2.3-.4.4-.6.7-3.7 1.6-7.3 1.9-11 .4-4.7-1.2-5.5-5.3-3.3-2.3 1.2-4.5 2.2-7.4.9zm225.3 181.7c1.9.4 3.1.4 4.3-.7l20.4-18.6c.2-.1.2-.4.4-.8-.5-.5-.9-1-1.4-1.6-8.1 7.3-15.7 14.4-23.7 21.7zm24.8-119.2c-2 .3-3.8.5-5.1 2.2 2 2.1 3.9 4.1 5.7 6.1 1.3 1.4 2.7 1.8 4.6.9 2.3-1.1 4.7-1.2 7.2-.8 2.8.5 5.2 1.9 7.4 3.5.6.4 1.2.8 1.8 1.3-1.3-3.5-3.8-5.6-7.2-6.8-2.6-.9-5.2-1-7.9-.7-1.4.1-2.7.4-4.1.5-1.8.1-2.9-.9-3.7-2.3-.8-1.4.1-2.3 1-3.1 0-.1 0-.3.3-.8zm-43.4-150.2c.1-.7.2-1.2.3-1.7 1.2-4.9 4.3-6.8 9.2-5.8 3.2.6 5.9 2.1 8.7 3.7.7.4 1.5.8 2.2 1.2-2.9-3.3-9.7-7.7-13.5-8.8-1.1-.3-2.4-.5-3.6-.5-1.3 0-2.3.6-3.1 1.7-1.7 2.3-1.9 7.4-.2 10.2zm22.6 286.6c-.2 0-.4-.1-.6-.1-.6 1.4-1.3 2.8-1.7 4.2-.6 2.6-1.3 5.2-1.4 7.9-.3 7.1-.4 14.1-.4 21.2 0 2.8.4 5.6.6 8.4.5-1.4.4-2.9.5-4.3.3-8.5.5-17.1.9-25.6.1-2.4.6-4.8 1-7.5 1.3.2 2.4.2 3.3.6.9.3 1.6 1.1 2.7 1.8-.9-2.8-3.3-3.5-5-4.8 0-.7 0-1.2.1-1.8zM150.8 225.4c-1.5 1.2-2.8 2.2-4.1 3.1-1 .7-2.3 1-3.2.1-1.4-1.4-3.2-2.7-3-5 0-.5-.1-.9-.1-2-1 1.2-1.7 1.9-2.2 2.8-.9 1.7-.5 2.6 1.2 3.6.6.4 1.2 1 1.7 1.6s.9 1.4 1.5 1.9c2.4 2.2 5.6 1.8 7.2-1.1.9-1.5 1.3-3.1 1-5zm271.5 131.2c.7 1.3 1.2 2.3 1.7 3.3 1.3-2 1.4-2.2-.1-3.7-1-1-2.1-1.8-3.3-2.5-.8-.5-1.9-.8-2.7-.4.8 1.9 1.5 3.7 2.4 5.6.5-.6 1.1-1.2 2-2.3z" fill="#fff"/><path d="M471.4 338.5c-.2-.3-.6-.7-.7-1-2-10-3.8-20.1-5.9-30.1-7.3-35.6-16-70.9-27.9-105.3-5.4-15.8-11.6-31.3-19.5-46-5.4-10-11.3-19.6-19.6-27.5-5.6-5.3-11.4-10.5-17.3-15.5a385.76 385.76 0 0 0-53-37.7C310.9 65.5 293.7 57 275.3 51c-7.3-2.4-14.7-4.2-22.3-4.9-4-.4-8-.4-11.9.7-6.6 1.8-9.6 6.5-8.4 13.2.7 4.1 2.4 7.9 4.3 11.6.9 1.8 2 3.5 2.8 5.4-.5-.4-.9-.8-1.4-1.2-4.1-4.1-7.9-8.4-11.2-13.2-2.3-3.3-4.3-6.7-5.2-10.7-1.3-5.5.5-9.8 5.4-12.6 4.1-2.4 8.7-3.2 13.3-3.8 6.6-.8 13.2-.8 19.7.1 5.5.7 10.9 2 16.2 3.4 14.4 3.8 28.4 8.8 42.2 14.5.5.2 1 .5 1.5 1-.8-.3-1.6-.5-2.3-.8-12.6-4.3-25.4-8.2-38.5-10.6-7.6-1.4-15.3-2.4-23-2.1-3 .1-6 .6-9 1.3.5.2.9.4 1.4.5 26.2 2.9 50.8 11 74.2 22.7 22.4 11.2 42.8 25.4 62.2 41.1 5.2 4.2 10.3 8.5 15.5 12.7.9.8 2 1.4 3.1 1.9a31 31 0 0 1 8.9 6.8c4.1 4.4 7.4 9.5 10.3 14.8 6.1 11.2 10.6 23 14.6 35.1 7 21.1 12.4 42.6 17.1 64.3 5.1 23.6 9.4 47.4 13.1 71.2 1.3 8.2 2.4 16.4 3.6 24.6-.2.2-.1.3-.1.5z"/><path d="M280 38.2c41.5 7.7 79.9 23 114.8 46.8 41.9 28.7 74.7 65.6 98.1 110.7-24.1-38.9-54.9-71.6-91.6-98.8C364.6 69.8 324 50.5 280 38.2zM21 247.7c.7-3.6 2.1-6.9 3.7-10.1 4.4-8.4 10.6-15.2 18.1-20.8 10.3-7.7 21.9-12.7 34.2-16.2 6.3-1.8 12.8-3.2 19.3-3.8 3.5-.4 7.5 2 8.6 5.1.1.3.1.6.2 1.1-2.4 1.1-4.7 2.2-7.1 3.3-6.3 2.9-6.3 2.8-13.2 3.6-14.5 1.6-28.2 5.6-40.5 13.6-2.8 1.8-5.4 3.8-7.6 6.2 11.4-5.7 23.1-10.2 36.1-10.9-20.3 4.2-36.8 15-51.8 28.9zM112.6 426.6c1.9 1.3 3.5 2.4 5 3.4 0 .3.1.5 0 .6-5.2 7.4-10.1 14.9-15.6 22.1-8.4 11.2-20 17.1-33.6 19.4-5.8 1-11.6 1.8-17.4 2.2-5.6.4-11.2-.5-16.4-2.9-11-5.1-15.9-17-11.9-28.9 2.5-7.5 7.4-12.7 15.1-15 .4-.1.8-.1 1.4.2-.6.4-1.2.8-1.8 1.3-5.3 3.9-9.4 8.8-11.2 15.2-2.1 7.5.3 14.2 6.7 18.6 4.6 3.2 9.8 4.7 15.2 5.6 5 .8 9.9 0 14.8-.7 15.7-2.3 28.2-10.1 37.5-22.8 3.7-5 7-10.4 10.4-15.6.7-.9 1.2-1.7 1.8-2.7zM335.4 199.7c3.1 2.2 4.6 5.3 4.9 9 .4 3.8-.4 7.5-2.4 10.8-1.4 2.3-3.1 4.6-5 6.6-2.7 2.8-5.6 5.5-8.6 8-6.1 5-9 11.6-9.5 19.3-.3 4.7-.3 9.4-.5 14.1-.2 5.6-.8 11.2-2.3 16.6-.2.7-.4 1.3-.8 2.4-.6-2.3-1.2-4.3-1.8-6.4-1.6 1.4-2.3 3-2.7 4.6-.9 3.5-2 7.1-2.4 10.7-1.2 9-2 18.1-3.1 27.1-.9 7.9-1.9 15.8-2.9 23.7-.2 1.6-.6 3.2-1.3 4.7-.7 1.6-.8 3.1-.5 4.7.7 3.9 1.9 7.7 3.7 11.5-.4-.3-.9-.5-1.2-.8-1.9-2-3.9-3.9-5.7-6-.8-.9-1.1-2-.7-3.4 1.6-5.7 2.1-11.7 2.7-17.6.9-9.7 1.6-19.4 2.6-29.1.9-8.6 2.6-17 5.7-25.1 1.5-3.9 3.3-7.6 5.6-11.1.5-.8 1-1.9 1-2.9 0-5.2-.2-10.4-.2-15.6 0-4.3.3-8.6.6-12.9.3-3.2 1.7-5.9 4.2-8 3.4-2.8 6.7-5.7 10-8.5 2.3-2 4.6-3.9 6.7-6 1.5-1.5 2.8-3.2 3.9-5 2.6-4.1 2.8-8.4.7-12.8-.2-.4-.4-.7-.5-1.1-.2-.4-.3-.7-.5-1.1.1-.1.2-.2.3-.4zM187.4 150.9c4.4 2.3 8.9 1.6 13.6.9-5.9 3.8-18 2.3-25.2-4.7 1.6.2 3 .5 4.4.5 2.1.1 4.2.1 6.3-.1 4.9-.4 8.8-2.8 11.6-6.8 1.7-2.5 3.1-5.1 4.5-7.8 1.6-3 2.9-6.2 4.4-9.2 2-4 4.7-7.4 8-10.4 8.1-7.4 17.5-9.6 28.1-6.6 2.7.8 5.3 2.1 7.9 3.1 2.1.8 3.2 2.4 3.8 4.5a27.6 27.6 0 0 1-.2 15.6c-.5 1.8-1 2-2.8 1.9a5.6 5.6 0 0 1-3.8-1.9c-.9-1-1.6-2-2.3-3.1-.9-1.3-1.7-2.6-2.4-4-2.1-3.8-5.4-4.6-9.3-4.1-3.3.5-6.1 2-8.3 4.4s-4.3 4.9-6.2 7.5c-1.9 2.7-3.6 5.6-5.4 8.4-.9 1.4-2 2.7-3 4.1-.1-.1-.3-.2-.4-.2.2-.5.5-1.1.7-1.6 1.9-3.6 3.8-7.2 5.8-10.7 1.5-2.4 3.1-4.8 4.9-6.9 1.5-1.8 3.2-3.4 5.1-4.8 5.1-3.8 10.7-4.2 16.2-.9 2.6 1.5 4.8 3.6 7.1 5.5.7.5 1.1 1.4 1.8 2.4 1.5-2.5.8-4.2-.2-5.7-2.8-4.1-6.5-7-11.4-8.3-4.3-1.2-8.5-.7-12.7.8-6.5 2.3-11.5 6.6-15.4 12.2-2 2.9-3.7 6.1-5.5 9.2-1.3 2.2-2.5 4.5-4 6.7-3.6 5.5-8.5 9.1-15.2 9.8-.1-.1-.2 0-.5.3zM180 363.6c-4.9-1-9.8-2.2-14.8-3-9.8-1.7-19.7-2.2-29.6-.2-8.5 1.7-16.1 5.3-21.4 12.5-6.8 9-8.8 19.1-5.4 29.9 2.3 7.1 7.2 12 13.6 15.7 5.9 3.4 12.4 5.3 19.2 5.8 4.4.3 8.8.1 13.2 0 .6 0 1.1-.1 1.7-.2 5.9-1.7 11.6-3.8 16.7-7.2 1.4-.9 2.8-2 4-3.2 4-4 3.8-8.2-.6-11.7-1.7-1.4-3.8-2.4-5.8-3.6-.7-.4-1.4-.7-2-1.2 4.4 1.1 8.5 2.6 12.1 5.4.6.5 1.2 1.1 1.7 1.7 2.1 2.5 2.4 5.2.8 8.1a17 17 0 0 1-5.4 5.6c-5 3.6-10.7 5.8-16.6 7.5-8.5 2.3-17 3.3-25.8 2.4-14.9-1.6-29.1-14-32.4-28.3-1.5-6.3-.6-12.4 2-18.3 2.4-5.5 6.1-10.2 10.5-14.2 2.6-2.3 5.5-4.3 8.2-6.6 3.2-2.6 6.9-3.5 10.8-4 6.7-.9 13.3-.4 19.9.6 8.3 1.2 16.4 3.4 24.4 6 .4.1.7.3 1 .5.1-.1.1 0 0 0zM285.9 258c-1.7 1-3.2 1.7-4.7 2.6-6.6 4-12.4 8.9-18 14.2-12.1 11.4-23.1 23.8-32.4 37.6-1 1.4-1.9 2.9-2.7 4.4s-1.6 3-2.4 4.7c-.7-.8-.5-1.6-.4-2.3.5-2.1.9-4.3 1.6-6.4 1.7-4.8 4.4-9 7.4-13.2 7.5-10.5 16.2-19.9 25.5-28.8 4.1-3.9 8.2-7.7 12.5-11.3 4.1-3.5 8.4-6.7 12.7-10 .4-2.7.7-5.7 1.2-8.7.1-1 .5-1.9.8-2.8.4-1.3 1.2-2.3 2.5-2.8 1.1-.5 2.2-1 3.3-1.6 2.5-1.5 2.7-2.5.9-4.8l-.3-.6c2.3 0 3.8 1.1 4.4 3 .3 1-.3 1.5-.7 2.2-4.7 6.6-6.6 13.9-6.3 21.9.3 6.2 2 12 4.7 17.6.4.8.7 1.6.8 2.5-5.2-4.7-8.8-10.2-10.4-17.4zM271.3 207.6c.4-1.4.7-2.7 1.2-4.7-1.4.4-2.2.6-3 1-2.5 1.1-4.5 2.9-6.2 5.1-2.1 2.7-3.9 5.6-5.9 8.4-1.8 2.5-3.7 4.9-5.7 7.3-1 1.2-2.4 2-4 2.7.1-.2.1-.4.2-.5 2.7-3.4 5.6-6.8 8.2-10.3 2.6-3.4 4.9-7.1 7.5-10.5 1.7-2.3 3.6-4.4 5.7-6.3 1.3-1.3 3-2.2 4.7-3 1.2-.5 1.7-1.2 2.1-2.4 1.8-5.6 4.3-10.9 7.8-15.7 2.1-2.9 4.6-5.4 8.1-6.8 3.8-1.5 7.2-3.8 10.3-6.5 1.7-1.5 2.8-3.3 3.4-5.5 1.8-7.1 1.5-14.2-.3-21.2-1.4-5.5-3-11-4.3-16.5-.9-3.7-1.2-7.6-.5-11.4 1.2-6.9 5.2-11.9 10.6-16.1-.2.3-.4.7-.7 1-6.4 7.5-8.4 16.2-6.4 25.8 1.3 6.5 3.2 12.9 4.8 19.4 1.5 5.8 2.5 11.6 2.3 17.6-.2 4.1-1.1 8-2.6 11.8-.3.9-.8 1.5-1.8 1.9-7.8 3.2-14 8.5-19.3 15-3.1 3.9-5.9 8-8.8 12-1.5 2-2.9 4.1-4.5 6.1-.8 1-1.8 1.8-2.7 2.7 0-.2-.1-.3-.2-.4zM309.9 67.7c1.2.6 2.2 1.1 3.3 1.7 6.3 3.6 12.2 7.8 17.9 12.2.7.5 1.2 1.5 1.5 2.4 2.9 9.2 5 18.7 6.8 28.2 1.8 9.3 3.6 18.5 5.3 27.8.8 4.3 2.6 8.2 4.7 12 1.8 3.3 3.8 6.4 5.8 9.6 4.4 7.2 8.2 14.8 11.4 22.6.3.6.4 1.3.3 2.1-.5-1-1-1.9-1.5-2.9-3.5-6.8-7.1-13.6-11.7-19.7-2.2-2.9-4.7-5.6-7.3-8.1-1.2-1.2-2.8-2-4.4-2.6-2.8-1.1-5.2-.2-7.1 2.2-.4.5-.7 1-1.4 1.9-.4-1.9-.7-3.3-1-4.8 4.7-2.9 6-7.4 6.6-12.3.7-5.6.1-11.1-1-16.5-2.4-12.1-6-23.8-11.6-34.8-4.1-8-9.1-15.2-16.4-20.6-.3 0-.2-.2-.2-.4zM425.5 352.1c6 4 10.7 8.9 11.8 16.5 1.1 7.4-4.8 16.3-12 18-1.7.4-3.7.1-5.6-.4l-2.2 2.5c-1.4 1.5-2.2 1.4-4.1.9-2.7-.7-4.4-2.6-6.2-4.5-15.6-16.2-31.2-32.4-47.5-47.7-1.5-1.4-3.1-2.8-4.7-4.3-7.2-6.6-15.9-9.6-25.6-9.9h-2.3c.5-1.4.8-2.6 1.3-4.1 13.2 1.5 25.3 5.6 36 13.8-1.9-.6-3.8-1.3-6.3-2.1.4.7.5 1 .8 1.3 16.5 16.8 33.1 33.6 49.7 50.4.9.9 1.8 1.6 2.7 2.5.9.9 1.8.8 2.9.3 1.8-.9 2.9-2.4 3.5-4.2.6-1.9 1.1-3.9 1.6-6 1.3.3 1.5 1.4 1.8 2.5.7 2.2 1.2 2.5 3.5 2.3 1.6-.2 2.9-1 4-2.1 5-5 5.5-15 1.1-20.5-.1-.2-.4-.3-.8-.7-.5 2.9-.9 5.7-3.5 7.5 2-3.9 2.1-7.9.1-12z"/><path d="M143.7 352.5c2.3-.5 4.7-1 7-1.4 7-1 14-.2 20.8 1.2 12.4 2.6 24.1 7.1 35.7 12.2 14.2 6.4 28.4 13 42.6 19.4 12.4 5.6 25 10.9 38.2 14.7 9 2.6 18.1 4.5 27.5 4.8 4.8.1 9.6-.1 14.3-1 3-.6 3.5-.3 5.6 2.9-2.1.3-4.1.7-6 .9-10.6 1.2-21.1.1-31.5-2.2-14.8-3.2-29-8.6-42.8-14.6-15.2-6.7-30.4-13.7-45.6-20.4-11.3-5-22.8-9.5-34.8-12.6-9.7-2.6-19.6-4.1-29.7-3.3h-1.3c.1-.3.1-.4 0-.6zM93.9 218.9c2-.4 3.4-.6 4.8-.9 5.6-.9 11.1-1.4 16.8-.8 2.6.3 4.9 1 7 2.6l3 2.1c2.3 1.6 4.8 2.8 7.9 2.1-.4 1.6-1.4 2.2-2.7 2-1.4-.2-2.8-.6-4.2-1.1-3.4-1.2-6.8-2.8-10.3-3.7-8.8-2.3-17.4-1.2-25.9 1.6-7 2.3-13.5 5.5-19.8 9.3-.7.4-1.4.8-2.3.9.3-.4.6-.9.9-1.3 11.5-14.1 26.1-22.5 44.2-24.6 8.9-1.1 17.7-.5 26.4 1.8 4 1 4.9 3.8 2.5 7.1-.4.6-.9 1.1-1.5 1.6-.6.6-1.3 1.2-1.9 1.8-.2-.2-.4-.3-.4-.4.1-3.1-.5-4.3-3.5-5.3-2.1-.7-4.4-1.2-6.7-1.3-11.5-.5-22.5 1.8-33.2 5.7-.3.2-.5.3-1.1.8z"/><path d="M97.3 308.3c-.7-.6-1-.8-1.1-1-7.5-8.9-13.4-18.6-15.8-30.1-3.5-17.2.9-32.3 12-45.7.5-.6 1.1-1.2 1.7-1.8 2.8-2.6 6.7-1.8 8.2 1.6.5 1 .8 2.1 1.1 3.2 1.2 3.8 2.4 7.6 3.7 11.6-3.3 5.8-6.8 12-10.3 18.3 1.5-6.9 4.5-13.1 8.6-19-2.6-2.5-3.9-5.7-5.3-9-1.2-3-2.2-3.2-4.5-.9-2.1 2.2-3.6 4.8-4.8 7.6-2.8 6.3-4 13-4.4 19.9-.5 11 1.2 21.7 4 32.3l.5 1c.3-5.6.5-10.9.8-16.1h.5c.7 9.3 1.1 18.7 5.1 28.1zM241.6 261.4c-5.4-2.6-10.4-5-15.4-7.3-12.6-5.7-25.5-10.6-39-13.6-6.6-1.5-13.3-2.4-20.1-2.2-1.8.1-3.6.3-5.4.2.5-.2 1-.5 1.5-.7 5.4-1.9 10.9-1.9 16.4-1.2 9.4 1.2 18.3 4.2 27.2 7.3 7.7 2.7 15.4 5.3 23.1 7.8 2.4.8 4.9 1 7.4 1.5 2.3.4 4.5 0 6.6-1 3.1-1.4 5.8-3.3 8.3-5.5 2.7-2.5 5.4-5 7.9-7.6 5.1-5.4 11.1-9.1 18.2-11.4 5-1.6 9.8-3.4 14.6-5.5 3.2-1.4 6.3-3.4 9.2-5.4 3.3-2.3 5.7-5.5 7.2-9.3.1-.4.4-.7.5-1.1 0 0 .1-.1.5-.2.2 1 .6 1.9.7 2.9.3 3.1-.4 6.1-1.6 9-1 2.3-2.6 3.9-5 4.6l-16.2 4.5c-3.6 1-7.1 2.2-10.7 3.3a25.1 25.1 0 0 0-10.2 6c-7.9 7.5-15.7 15.1-23.6 22.6-.7.6-1.4 1.5-2.1 2.3zM238.5 122.5c.5.7 1 1.3 1.5 2.1 1 1.8 1.9 3.6 3 5.3.8 1.3 1.8 2.5 2.8 3.6 2.2 2.3 5 3.1 8.2 2.7 1 2.9 1.8 5.7 3 8.4s2.9 5 5.3 6.7c.3-.1.5-.2.5-.3.7-3.6 2.5-6.7 4.2-9.8 1.5-2.9 2.8-5.8 4.3-9 .5 1.5.4 2.8.1 4.2-.3 1.3-.7 2.7-1.2 4-2.4 7-3.7 14.1-2.6 21.6.1.5.1 1 .1 1.5 0 .1-.1.3-.3.7a38.6 38.6 0 0 1-18.7-11.1c-7.6-8.1-10.7-19-10.7-30.3.2-.1.3-.2.5-.3zM309.5 363.7c2.9 1.9 5.8 3.6 8.6 5.6 14 9.7 25.3 21.9 33.3 37 7.6 14.2 11.2 29.2 9.9 45.3-.2 3.1-.7 6.2-1.9 9.3-.1-.4-.2-.8-.2-1.2-.3-6.4-.4-12.8-.8-19.2a70.5 70.5 0 0 0-3.4-18.2c-.3-.9-.7-1.7-1.2-2.5 2.5 13.8 1.7 27.2-3.5 40.2-.2 0-.3 0-.5-.1.2-.7.3-1.4.5-2.1 2.4-8 3.4-16.2 2.8-24.6-1.8-23.6-11.7-42.8-31.2-56.7-.9-.6-1.7-1.3-2.6-1.8-3.1-1.9-5.8-4.1-7.6-7.4-.6-1.1-1.6-2-2.4-3-.1-.3 0-.4.2-.6zM308 349.2c3.3-2.2 6.4-2.5 9.7-1.2 2.7 1.1 5.1 2.7 7 4.8 2.9 3.2 5.7 6.5 8.2 10 3.7 5.3 7 10.7 10.4 16.2 2.8 4.5 6.2 8.3 10.6 11.3 2.9 2 5.7 4 8.5 6.1 2.4 1.8 4.7 3.7 5.7 6.8l4.9.6c9 1.6 13.8 11.2 9.7 19.3-.3.5-.7 1-1.3 1.5.8-4.3-.5-7.9-3.5-10.9-2.9-2.9-6.2-5-10.6-3.9-.6-2-1.2-4.1-1.9-6-.8-2.1-2.2-3.7-4.1-5-3.7-2.5-7.2-5.3-10.8-7.9a28.4 28.4 0 0 1-6.6-6.8c-4.1-5.7-8.2-11.3-12.3-17-.5-.7-1-1.3-1.5-1.9-5.7-7.5-12.7-13.1-22.1-16zM311.1 100.7c0 .4 0 .8-.1 1.2-1.1 7.8.6 15.2 3.8 22.3 2.2 4.9 4.8 9.6 7.2 14.4 2.4 4.8 4.8 9.6 6.8 14.5 2 4.8 2.4 9.9 1.3 15.1-.4 1.8-.9 3-3.1 3.4-1.6.3-3.1 1.4-4.5 2.4-2.5 1.9-4.8 4.1-7.2 6.2-.6.5-1.1 1.1-2.1 1.9.3-5 1.8-9.2 4.6-12.7 4.8-6 5.9-12.8 4.1-20-.9-3.8-2.6-7.5-4.2-11.1-1.7-4-3.7-7.8-5.5-11.7-2.5-5.7-3.8-11.7-3.2-18 .1-1.6.4-3.2.7-4.8.2-1 .6-2 .9-3 .2-.1.3-.1.5-.1zM352.8 284.8c.8-2.2 1.5-4.3 2.2-6.3.4 0 .5-.1.7 0 12.2 4.5 23.8 10.2 33.5 18.9 6.8 6.1 11.9 13.3 14.2 22.3 2.9 11.2.7 21.7-4.8 32.1-.8-.8-1.3-1.4-1.7-1.8 1.2-3.9 2.7-7.5 3.5-11.2 3.5-15.3-.9-28.1-12.9-38.2-7-5.9-15.2-9.6-23.8-12.5-3.5-1.2-7.1-2.2-10.9-3.3z"/><path d="M322.1 347.4c-.4-.1-.5-.1-.6-.1-4.4-3.2-3.8-1.7-3.6-6.8.2-6.7 2.2-13.1 4.5-19.4.4-1 .8-2 1.2-2.9 2-5.3 4.7-10.1 8.8-14.2 2.9-2.9 5.3-6.2 8-9.2 2.3-2.7 4.1-5.6 5.4-8.9 1.3-3.1 2.7-6.2 4.1-9.4 1-2.3 2.4-4.2 4.2-5.9 3-2.9 5.8-6.2 8-9.8 5.2-8.5 6.7-17.5 3.3-27.1-.2-.5-.4-.9-.4-1.4v-5.2c3.7 7 5 14.3 4 22-1.3 9.6-6 17.4-13.3 23.7-1.5 1.3-2.5 2.7-3.2 4.5-1.6 3.8-3.2 7.6-4.8 11.5-1.1 2.6-2.5 4.9-4.3 7-4 4.6-7.9 9.3-11.8 14-1.2 1.4-2.2 3-3.1 4.7a62.3 62.3 0 0 0-6.8 19.7c-.8 4.4-.8 8.7.4 13.2zM301.3 159c-.9.7-1.5 1.3-2.4 2.1-.1-3.2.7-6.3-1.7-8.7l-3.3 2.4c-.1-.1-.2-.2-.3-.2.2-.7.4-1.3.5-2 .3-1.3.7-2.7.9-4 .1-.6.1-1.4-.2-1.9-.4-.7-1.1-1.4-1.9-1.7-.3-.1-1 .7-1.6 1.1-.5-1.5-1-3.1-1.7-4.6s-1.6-3-2.7-4.3-1.9-1.3-3.7-.5c-.4-1.2-.8-2.4-1.4-3.6-.5-1.2-1.1-2.4-1.8-3.4-1.2-1.7-1.9-1.8-3.8-.7-1.5-3.2-2.1-6.8-5-9.7-.7 1-1.3 1.8-1.9 2.7-1.4-4.7-1.8-9.6-4.8-14-.5.7-.8 1.1-1.1 1.5-.2-.1-.3-.3-.5-.5-1.4-1.7-2.7-3.5-4.3-4.9-2-1.8-3.7-1.5-5.3.8-.4.5-.7 1.1-1.1 1.7-2.6-1.3-5.2-2.6-8.1-4.1.8-2.5 1.7-4.9 3.6-6.9 1.7-1.8 3.8-2.1 6-.9.8.5 1.7 1.1 2.3 1.8 1.4 1.5 2.7 3.1 3.8 4.7.9 1.2 1.8 2.2 3.1 2.9 2.6 1.3 4.1 3.6 5 6.3.8 2.1 1.4 4.3 2.2 6.7 3.1.2 4.4 2.4 5.1 5 .4 1.7 1.4 2.5 3.2 2.8 1.8.2 3.1 1.4 3.7 3.1.5 1.4 1 2.7 1.5 4 .4.1.6.1.8.2 3.7.3 4.6.9 5.7 4.5.1.5.3.9.4 1.4a4.1 4.1 0 0 0 2.9 3.2c3.7 1.2 4.3 2.6 3.7 6.5l-.3 1.6c3.6 3.2 3.8 3.5 4.3 6.6l3.8 1.9c-.4 1-.8 1.8-1.2 2.7-.8-.6-1.5-1.1-2.4-1.6zM301.9 194.3c.1.4.3.7.3 1.1-.1 3.8-.6 7.5-2.1 10.9-1.9 4.3-5 6.6-9.9 6.4-1.5-.1-3.1.4-4.4 1-4.4 2.1-8.8 3.7-13.6 4.4-1.8.3-3.6 1.4-5.3 2.4-3.4 2.2-6.7 4.6-10.1 6.8-4.7 3.1-9.5 6-14.8 7.8-5.4 1.8-10.9 2.5-16.5.7l-.9-.3c-.2-.1-.4-.2-1.1-.5.8-.1 1.2-.2 1.6-.2 9.8.5 18.7-2.1 26.8-7.5 3.7-2.5 7.4-5.1 10.6-8.1 5.9-5.5 12.9-8.6 20.7-10.2 2.5-.5 4.9-1.2 7.3-1.9 6.1-1.7 9.8-5.8 11-12.1 0-.2.1-.5.2-.7h.2zM344.4 179.7c-4.4 0-8.9-.1-13.1 2.9.6.2.9.3 1.2.3 6.4.1 12.1 2.4 17.5 5.5 7.3 4.2 13.5 9.7 18.7 16.2 4 5 7.6 10.3 11.4 15.5.3.4.4.8.4 1.4-.5-.6-1-1.1-1.4-1.7-6.5-8.7-13.6-16.9-22.1-23.7-5.4-4.3-11.1-8-17.8-9.8-3.3-.9-6.6-1.1-9.9-.8-1 .1-1.7.4-2.2 1.3-1.7 3.3-3.3 6.7-4 10.4-.7 3.4-.1 6.6 1.6 9.6.9 1.6 2 3.2 2.9 4.8 1.2 2.1 2.3 4.3 2.5 7-1.2.7-2.3 1.4-3.4 2.1-.2-.2-.4-.3-.5-.4-.5-3.9-2.6-6.9-5.5-9.5-1.3-1.2-2.5-2.5-3.6-3.9-1-1.4-1.7-3-1.6-5 1.7 1.7 2 4.7 5.1 4.6 0-.6.1-1.1 0-1.7-.8-5.3-.4-10.6 1.7-15.6 2.8-6.8 7.9-10.4 15.2-10.5 2.3 0 4.6.3 7 .4 0 .2-.1.4-.1.6z"/><path d="M201.8 238.1c3.1.6 6.1 1.3 9.2 1.9 7.4 1.3 14.8 2.1 22.3 1.4 7.3-.7 14.1-2.9 20.4-6.7 2.9-1.7 5.7-3.5 8.5-5.3.8-.5 1.6-.9 2.7-1.1-.4.5-.7 1-1.1 1.5-5.5 6.4-11.4 12.3-17.6 17.9-.9.8-1.8 1-2.9.8-11.8-1.8-23.6-3.7-35.1-7.3-2.2-.7-4.5-1.4-6.4-3.1zM417.5 265.2c-12.3-4.5-24.3-6-36.6.3.5-1.6 1.9-2.2 2.7-3.4-4.9-.4-11 1.9-16.9 6.5l-1.8-1.5c1.6-2.7 3.1-5.2 4.7-7.8.3-.4.8-.8 1.3-.9 12.5-3.8 25-4.3 37.2 1 2.5 1.1 4.8 2.6 7.2 4 .8.4 1.5 1.1 2.2 1.8zM283.2 160.3c-.7-.7-1.4-1.3-2.3-2.2-2.8 3.4-5.2 6.8-6.6 10.9-.6 1.9-.3 2.2 1.7 2.5 4.8.7 8.1-1.2 9.7-5.8 1.4-3.9 1.4-8 1.1-12-.1-1.1-.2-2.2-.1-3.3 1.9 3.3 3 6.8 3.7 10.4 0 .2 0 .3.1.5.9 5.3-.2 7.6-4.9 10.2-3.8 2.1-8 3.1-12.3 3.8-.5.1-1.1.2-1.8.4.6 4.4 1.2 8.7 1.9 13-.1 0-.2.1-.4.1-.3-.9-.7-1.8-1-2.7-1.2-3.4-2.2-6.8-3.5-10.1-.8-2.1-.5-3.6.7-5.4 3.3-5 6.5-10.2 9.8-15.2.8-1.3 1-2.4.5-3.8-1-3-1.9-6-2.8-9.2-1.9.9-3.4 2.8-5.9 1.9 1.9-1.7 3.8-3.3 5.7-5 1.7.4 2.7 1.8 3.2 3.3 1.1 3.1 2 6.3 2.7 9.6.6 2.7.8 5.4 1.1 8.1 0-.1-.1-.1-.3 0zM457.1 234.9c-1.6-10.5-2.1-21.1-1.5-31.6.3-5 .9-10 2.8-14.8.6-1.7 1.4-3.3 2.4-4.8 2.4-3.6 5.8-5 10.1-4 4.2 1 7.7 3.3 10.7 6.4-.7-.2-1.3-.4-2-.7-6-2.3-11.1-.8-14.7 4.5-3.1 4.3-4.5 9.3-5.5 14.5-1.8 8.5-2.1 17.2-2.3 25.9v4.6zM381 308.4c-8.7-4.8-17.3-6.6-26.3-.2 1.1 3.3 3.6 5.3 6.6 7.3-2.4 0-4.1-.7-5.8-1.6-1.6-.9-3.1-1.8-4.5-2.9-4.2-3.2-8.7-5-14.2-3.4.8-2.4 1.4-2.9 3.5-3 .4 0 .8-.1 1.2-.1 2.3 0 4.3-.8 6.3-2.2 8.4-5.5 17-5.7 25.7-.5 2.9 1.8 5.5 4 7.5 6.6zM196.1 135.5c-6.6 3.5-13.5 4.6-21.4 3 .8-.4 1.1-.7 1.5-.7 3.8-.6 7.1-2.4 9.8-5.1 2.2-2.3 4.1-4.8 6.1-7.3 3-3.8 5.7-7.7 8.8-11.4a28 28 0 0 1 10-7.7c2.8-1.3 5.8-2 9.4-1.6-.7.6-1 1-1.4 1.2-4.4 2.7-7.9 6.2-10.7 10.5-.7 1.1-1.6 1.9-2.9 2.3-4 1.4-7.1 3.9-9.4 7.4-2.5 3.9-5.2 7.5-9.1 10.1-.2.1-.2.4-.5.8 3.4.2 6.5-.9 9.8-1.5zM337.2 411.6c.2.6.5 1 .6 1.4.2.7.4 1.4.6 2.3-2.6 1.1-5.2 1.3-7.9 1.7-11.2 1.4-22.4.5-33.5-1.7-20.5-4-39.8-11.4-58.5-20.5-.3-.1-.5-.3-.7-.7.6.2 1.2.4 1.8.7 13.8 5.9 27.8 11 42.3 14.6 10 2.5 20.2 4.4 30.5 4.8 8 .3 15.9-.2 23.7-2.4.4-.1.6-.1 1.1-.2zM128.7 413.9c-1.6-.7-3.2-1.5-4.8-2.2 10.4-15.1 29.9-22.3 49.9-5.6l-2.4-.9c-6.3-2.8-12.9-4.4-19.9-3.9-8.5.6-15.5 4.3-21.1 10.8l-1.2 1.5s-.1.1-.5.3zM302.1 283.3c-1 2.5-2 4.9-2.9 7.4-.4 1.1-1.4 1.3-2.2 1.6-5.9 2.5-11.9 4.9-17.8 7.4-1.5.6-2.8 1.5-4.1 2.5 6.8-1 13.6-2.2 20.6-2-.1.7-.2 1.2-.3 1.8-.1.5-.2.9-.3 1.5-1.8 0-3.6.1-5.3 0-8.8-.3-17.5.5-25.9 3.5-2.3.8-4.5 1.8-6.7 2.9-2.2 1.1-4.2 2.4-6.6 3.5.5-.6 1-1.3 1.6-1.8 2.8-2.1 5.5-4.4 8.6-6 5.7-3 11.7-5.6 17.6-8.4 2.9-1.4 5.9-2.7 8.8-4.1 5.4-2.5 10.5-5.5 14.9-9.8zM371.6 161.7c.5-1.5.9-3.1 1.6-4.5 1.6-3.2 4.1-4.1 7.3-2.5 1.8.9 3.5 2 5 3.4 2.5 2.3 4.8 4.8 7 7.5 7.9 9.7 14.3 20.3 20.6 31.1 2.7 4.7 5.3 9.5 8 14.3.3.5.5 1.1.5 1.8-.5-.7-.9-1.4-1.4-2.2-7.9-13.1-15.9-26.1-25.3-38.2-2.7-3.5-5.8-6.8-8.8-10.1-1.3-1.4-2.8-2.4-4.3-3.5-.7-.5-1.7-.8-2.6-1.2-1.2 1.9-1.4 3.9-1.7 5.8-.7 6.2-.3 12.3.2 18.5.3 3.7.8 7.4 1.2 11.1.1.6 0 1.1-.2 1.7-2.8-12.2-4.9-24.5-2.7-37.3-2.5.6-2.8 3.1-4.4 4.3zM311.8 308.5c-.6-1.6-.4-3 0-4.5 1.2-5.4 3.3-10.4 5.8-15.2 4.1-7.9 8.5-15.7 12.6-23.6 1.6-3 3.1-6.1 4.4-9.2 1.1-2.5 1.7-5.2 2.5-7.8 2.6 1.3 4.3 5.1 3 7.9-1.5 3.3-3.2 6.6-5.2 9.6-3.6 5.9-7.6 11.6-11.2 17.4-4.9 7.7-9 15.8-11.7 24.5.1.3-.1.6-.2.9zM336.2 270.3c1.2 1.7 2 2.9 2.9 4.3 7.6-5.5 12.4-12.9 15.6-21.4.5 2 0 3.9-.4 5.8-1.2 4.8-3.7 8.8-7.4 12.1-4.7 4.2-7.8 9.5-9.2 15.5-1.4 6-4.8 10.6-9.5 14.3-1.9 1.5-3.8 2.9-6.3 3.6 4.1-4.8 7.5-10 9.9-15.8 2.5-5.6 3.9-11.6 4.4-18.4z"/><path d="M406.7 360c2.3-.3 4.6-.7 6.9-1 2.4-.3 3.2.2 4.2 2.4.4.8.6 1.7.9 2.5 2.3.7 2.6 1 2.1 3.3-.2 1.2-.6 2.5-1.1 4-.6-.7-.9-1.1-1.2-1.5-1-1.2-2.2-1.9-3.7-2-4.3-.3-8-2-11.5-4.2-4.6-2.9-8.6-6.4-12.3-10.3-8.4-8.7-15.6-18.3-21.7-28.7-1.2-2-2.1-4.2-3.1-6.3-.8-1.8-.6-3.7.2-5.4.5-1.1 1.3-2.1 2.8-2.3.6 8.7 4 16.4 8.5 23.6 3.9 6.3 8.5 11.9 13.7 17.1 3.2 3.2 6.7 6.2 10 9.3 2 1.9 4.2 2.9 6.9 3.4 2.8.5 5.5 1.2 8.3.7.4-2.4 0-3.3-2-3.8-1.6-.3-3.2-.4-4.8-.5-.9-.1-1.9 0-2.9 0-.2-.1-.2-.2-.2-.3zM245 310.7c2.3-4.7 5.8-8.5 9.8-11.8 4.6-3.9 9.8-6.9 15.1-9.8 2.4-1.3 4.7-2.5 7.1-3.9 1.8-1.1 3.6-2.2 5.4-3.4 3.2-2.3 4.1-3.7 5-7.4 1.5 1.9 3 3.7 4.7 5.8-1.2 1.1-2.3 2.5-3.8 3.4-3.2 2.1-6.4 4.1-9.8 6-3.8 2.1-7.7 3.8-11.6 5.7-7.6 3.9-14.5 8.7-20.8 14.4-.3.4-.7.6-1.1 1zM409.8 252.8c-5.6-1-11-2.2-16.4-2.9-5.5-.7-11-.9-16.6-1.3a63.3 63.3 0 0 1 21.7-.3c-8.5-4.2-17.5-4-26.6-3.1-.1-.5-.2-.7-.2-.9v-2.9c12.8-4.4 30.6 1 38.1 11.4zM242 230.6c-1.3 1.3-2.5 1.7-4 1.1-7.8-2.9-16-4.1-24.3-4.7-10.2-.7-20.4-1.3-30.7-2-4.2-.3-8.4-.7-12.6-1.4.4 0 .9-.1 1.3-.1 13.4.1 26.8.2 40.2.4 6.8.1 13.7.5 20.3 2.2 2.3.6 4.5 1.4 6.6 2.4 1.2.4 2.1 1.3 3.2 2.1zM303.2 364.4c.7 1.4 1.5 2.8 2 4.3 1.2 4 3.7 6.9 7 9.4 6.4 4.8 12.9 9.6 19.1 14.7 3.5 2.9 6.5 6.4 9.4 9.9 2.4 2.8 3.8 6.2 4.3 9.9 1.8 12.8 2.1 25.6-.7 38.3-.2.8-.4 1.5-.9 2.2l.6-9.4c.6-9.7.6-19.3-1-28.9-1-5.7-3.4-10.6-6.9-15.2-4.3-5.6-9.6-10.2-15.4-14.1-3.5-2.4-7-4.7-10.7-6.9a12 12 0 0 1-5.3-7c-.7-2.4-1.3-4.8-2-7.1.2 0 .3 0 .5-.1z"/><path d="M405.5 357.4c1.3-1.9 2.5-3.6 3.6-5.4 3.5-5.9 5.2-12.4 5.8-19.2.8-8.4.1-16.7-1.5-25-.5-2.6-1.8-4.9-3.5-6.9-1.5-1.8-3-3.4-4.5-5.1-.7-.8-1.4-1.7-2.2-2.7 1.8-1.2 3.5-1.1 5.5-.7-.5.6-1 1-1.2 1.4-.2.5-.4 1.2-.2 1.6.9 1.9 2.3 3.8 4.4 4.4 3.7 1.1 5.6 3.7 7.2 7.1l-2.5-.3c.1 1.6.1 3.1.2 4.5.6 6.4.9 12.8.5 19.2-.5 6.9-1.5 13.6-4.4 19.9-1.1 2.3-2.4 4.4-3.8 6.5-1 1.3-1.3 1.3-3.4.7zM419.4 166.4c1.5 4 3 7.8 4.4 11.6-3.4 1.9-3.3 5-3.1 8.2.4 6.2 2.1 12.1 3.9 18 1.1 3.7 2.4 7.4 3.4 11.2-.1-.2-.3-.4-.4-.6-4.4-9.9-8.5-19.8-10.7-30.5-.8-3.6-1.1-7.2-.8-10.9.1-2.6.8-5 3.3-7zM403 277.4c1.3-.6 2.5-1.3 4.1-2.1-2.6-1-4.9-1.3-7.2-1.4a41 41 0 0 0-13.5 1.6c-1.6.5-2.6.2-3.7-.8-1.3-1.2-2.7-2.2-4.4-3.6 2.9 0 5.3.1 7.7 0 2.9-.2 5.8-.5 8.7-.7 3.6-.3 7.1-.3 10.7.6 5.1 1.2 8.9 4.2 11.7 8.7-4.5-2.2-9.2-2.7-14.1-2.3zM293.3 319l-.3 3.2h-1.3c-7.2-1-13.9.5-20.4 3.3-6.6 2.8-13.5 4.8-20.6 5.8-4 .6-8.1.8-12.1-.3-1.2-.3-2.5-.8-3.6-1.4-1.4-.8-2.5-1.9-4.4-1.7-.8.1-1.1-.4-1.9-2.2 2.9.3 5.2-1 7.3-2.7.1.2.2.4.2.5-1 3.6-.7 4.2 2.7 5.5 4.1 1.6 8.3 1.4 12.5.7 6.6-1.2 12.8-3.6 19.1-5.9 5.2-1.9 10.3-3.9 15.8-4.9 2.1-.2 4.5-.5 7 .1z"/><path d="M247 321.9c4.4.4 8.2-1.1 12-2.4 6.8-2.3 13.5-4.7 20.3-6.8 4.5-1.4 9.2-2.1 13.9-2.3.5 0 1 0 1.7.1-.2 1.1-.3 2-.5 3.1-6.3 0-12.2 1.3-18 3-4.7 1.4-9.3 2.9-14 4.3-3.6 1.1-7.1 2.3-10.9 2.3-1.5.1-3.1.3-4.5-1.3zM291.9 95.2c-3.5 4.2-4.6 9.1-4.9 14.3-.3 5.8.6 11.5 1.7 17.2.3 1.7.6 3.5 1 5.5-1.2-.6-2.2-1-2.9-1.3-.4-6.2-.8-12.4-1-18.5-.3-8.6 1.7-16.5 8.1-22.7.6-.5 1.2-1 2-1.4-.1.4-.2.7-.4 1.1-4.2 8.7-4.4 17.7-1.4 26.8 1.2 3.5 3.1 6.8 4.7 10.2.4.8.7 1.5.8 2.4-3.7-4.8-6.3-10.1-7.8-15.9-1.5-6-1.6-11.8.1-17.7zM108 231c-.1 1.8.8 3.5-.4 5.1-1.7-.6-1.6-2.2-2.1-3.5s-1-2.7-1.6-4.1c3.7-.4 7.5-.4 10.8-2.4-.6-2.2-.6-2.2-6.8-4.9 5.9.5 11.1 1.9 15.7 4.9 1.2.8 2.4 1.6 3.7 2.4 2.5 1.4 5 2.2 8.1 1-.4 1.4-1.2 2-2.3 1.9a17 17 0 0 1-4.5-.8c-2.5-.9-5-2-7.4-3a4.2 4.2 0 0 0-4.3.4c-2.7 1.8-5.4 3.3-8.9 3z"/><path d="M155.1 238.3c-.4 1.4-.7 2.9-1.2 4.7-.8-.7-1.3-1.1-1.8-1.5-1.5-1.3-2.9-2.6-4.4-3.8a5.18 5.18 0 0 0-5.2-1c-3.3 1-6.6 1.8-9.8 2.7-1.7.5-3.2.5-4.9-.4-3.4-1.9-7.2-1.9-10.9-1.5-1.6.2-3.2.5-4.9.4 3.7-1.6 7.4-3.1 11-4.7.3.1.5.1.6.2 2.5 4.1 6.4 4.4 10.5 3.6 2.5-.5 5.1-1.2 7.5-2.1 3.2-1.1 5.9-.4 8.3 1.9.3.3.7.6 1.1.9 1.7 1.6 1.7 1.6 4.1.6zM300.8 235.9c-.5 3.3-1.2 6.5-1.5 9.7-.4 4.7 1.1 9 4.1 12.7.5.6 1 1.3 1.5 1.9.9.9 1.4 1.8.9 3.2-.3.7.1 1.6.1 2.6-.5-.4-.8-.7-1.1-1-3.1-3.8-6.1-7.6-9.2-11.4-.6-.7-1.1-1.3-.8-2.4 1.1-4.8 2.3-9.5 4.7-13.8.3-.5.6-.9 1-1.4.1-.1.3-.1.3-.1zM386 369.4c.6.5 1.1.9 1.7 1.5-7.9 7.6-15.8 15.1-23.8 22.8-.8-.5-1.7-.9-2.5-1.4 1-1.6 21-20.3 24.6-22.9zM342.8 204.3c1.2 1.5 2.1 2.5 2.8 3.7 2 3.1 3.9 6.2 5.9 9.2.8 1.2 1.8 2.4 2.9 3.3 1.4 1.1 2.5.7 2.8-1.1.2-.9.1-1.9.1-2.9 0-.7-.2-1.4-.3-2.2 2.5 1.3 4.5 4.9 4.4 7.4-.2 3.1-3.2 4.9-6 3.4-1.2-.7-2.4-1.7-3.2-2.9-1.3-1.8-2.5-3.8-3.5-5.8-1.9-3.6-3.7-7.2-5.5-10.8-.3-.2-.3-.5-.4-1.3zM376.2 139.7c-.8-.4-1.7-.9-2.5-1.3-2-1-4.1-1.9-6.5-1.9-2.3 0-4 1-4.9 3-.7 1.8-1.4 3.7-1.4 5.6 0 3.8.4 7.6.6 11.4.1.9.2 1.7.1 2.6-1.5-4.2-2.4-8.4-2.8-12.8-.2-2.6-.1-5.2 0-7.8 0-.9.4-1.8.7-2.6.8-1.9 2.3-2.9 4.4-2.8.6 0 1.3 0 1.9.2 4.1 1.2 7.4 3.5 10.4 6.4zM145.1 217.2c2.9 1.4 5.2.4 7.4-.9 4-2.3 5.6-1.4 5.3 3.3-.3 3.7-1.2 7.3-1.9 11 0 .2-.2.4-.4.6-.3-1.9-.4-3.8-.7-5.6s-1.4-3.1-3.3-3.5c-1.1-.2-2.2-.6-3.3-1-1.6-.6-2.8-1.6-3.1-3.9zM370.4 398.9c8-7.3 15.6-14.4 23.6-21.7.5.6 1 1.1 1.4 1.6l-.4.8-20.4 18.6c-1.1 1.1-2.4 1.2-4.2.7zM395.2 279.7c-.2.5-.3.6-.4.7-.9.9-1.8 1.8-1 3.1.8 1.4 2 2.4 3.7 2.3 1.4-.1 2.7-.3 4.1-.5 2.7-.3 5.4-.1 7.9.7 3.4 1.1 5.9 3.3 7.2 6.8-.6-.4-1.2-.8-1.8-1.3-2.2-1.6-4.6-3-7.4-3.5-2.4-.5-4.9-.3-7.2.8-1.8.9-3.3.5-4.6-.9-1.9-2-3.8-4-5.7-6.1 1.4-1.6 3.2-1.8 5.2-2.1zM351.8 129.5c-1.7-2.8-1.5-8 .2-10.3.8-1 1.8-1.7 3.1-1.7 1.2 0 2.4.2 3.6.5 3.9 1.2 10.6 5.5 13.5 8.8-.7-.4-1.5-.8-2.2-1.2-2.8-1.6-5.5-3.1-8.7-3.7-4.9-1-8 .9-9.2 5.8-.1.6-.1 1.1-.3 1.8zM374.4 416.1c-.1.5-.1 1.1-.2 1.7 1.7 1.3 4.1 2 5 4.8-1.1-.7-1.9-1.5-2.7-1.8-.9-.4-2-.4-3.3-.6-.4 2.7-.9 5.1-1 7.5-.4 8.5-.6 17.1-.9 25.6 0 1.4 0 2.9-.5 4.3-.2-2.8-.6-5.6-.6-8.4 0-7.1.1-14.1.4-21.2.1-2.6.8-5.3 1.4-7.9.4-1.5 1.1-2.8 1.7-4.2.3.2.5.2.7.2z"/><path d="M150.8 225.4c.3 1.9-.1 3.5-1 5-1.6 2.8-4.9 3.3-7.2 1.1-.6-.5-1-1.3-1.5-1.9-.5-.6-1-1.2-1.7-1.6-1.7-1-2.1-1.9-1.2-3.6.5-.9 1.2-1.6 2.2-2.8.1 1.1.2 1.6.1 2-.2 2.4 1.6 3.7 3 5 .9.9 2.2.6 3.2-.1 1.4-.9 2.6-1.9 4.1-3.1zM422.3 356.6c-.9 1.1-1.5 1.8-2 2.4-.8-1.9-1.5-3.7-2.4-5.6.9-.4 1.9 0 2.7.4 1.2.7 2.3 1.5 3.3 2.5 1.4 1.4 1.4 1.7.1 3.7-.5-1.1-1.1-2.2-1.7-3.4zM471.4 338.5c0 .8.1 1.6.1 2.3h-.3c.1-.8.2-1.6.2-2.3z"/></svg>