<?xml version="1.0" encoding="utf-8"?>
<!-- Generator: Adobe Illustrator 22.1.0, SVG Export Plug-In . SVG Version: 6.00 Build 0)  -->
<svg version="1.1" id="Layer_1" xmlns="http://www.w3.org/2000/svg" xmlns:xlink="http://www.w3.org/1999/xlink" x="0px" y="0px"
	 viewBox="0 0 500 500" style="enable-background:new 0 0 500 500;" xml:space="preserve">
<style type="text/css">
	.st0{fill:#231F20;}
</style>
<g>
	<g>
		<g>
			<g>
				<path class="st0" d="M437.7,331.6l0.6-1.2C438,330.9,437.8,331.3,437.7,331.6z"/>
				<path class="st0" d="M276.2,436.6l0.3-0.5C276.2,436.3,276.2,436.4,276.2,436.6z"/>
				<path class="st0" d="M234.1,475.4c-0.5,0-0.9,0-1.4,0C233.4,475.5,233.8,475.4,234.1,475.4z"/>
				<g>
					<path class="st0" d="M326.6,461.8c20.1-6.6,39.4-15.6,57.3-26.9c17.9-11.3,34.4-25,48.4-40.7c7.2-8.1,13.8-16.8,19.8-25.8
						c5.9-9.1,11.1-18.6,15.5-28.5c4.5-9.9,8.1-20.1,11-30.5l1.1-3.9l0.9-3.9c0.7-2.6,1.2-5.3,1.7-7.9l0.4-2l0.3-2l0.7-4
						c0.2-1.3,0.5-2.7,0.6-4l0.5-4c2.9-22.7,2.4-45.7-1.9-67.9c-4.2-22.2-12-43.8-23.2-63.5c-11.3-19.8-25.2-37.6-41.3-53
						c-2.1-1.9-4.1-3.8-6.2-5.7l-6.4-5.4l-6.6-5.2c-1.1-0.9-2.3-1.7-3.4-2.5l-3.4-2.4c-9.3-6.4-19.1-12.1-29.3-17l-7.5-3.4
						c-2.5-1-5.1-2-7.7-2.9c-2.5-1-5.3-1.8-8-2.6l-2-0.6l-2.1-0.5l-4.2-0.9c-11.1-2.3-22.6-2.7-33.7-1.8c-11.1,1-22,3.3-32.4,6.5
						C255,52,244.9,56,235,60.4c-10.5,4.7-20.7,9.9-30.6,15.6c-2.4,1.4-9.3,6.4-15.8,11.5c-3.2,2.5-6.4,5.1-9,7.2
						c-2.6,2-4.5,3.4-5.2,4.1c-0.4,0.3,0.1,0.3,1.1,0.2c0.5-0.1,1.2-0.3,2-0.5c0.8-0.2,1.7-0.6,2.7-1c3.9-1.6,8.6-3.9,10.6-4.8
						c6.7-3.2,15.1-7.5,23.3-11.2c8.2-3.8,16.1-7.1,21.4-9.3c10.8-4.5,18.9-7.1,27.1-9.5c2-0.6,4.1-1.1,6.2-1.6
						c2.1-0.5,4.3-1,6.6-1.5c2.3-0.5,4.7-0.9,7.2-1.4c1.3-0.2,2.6-0.4,3.9-0.6c0.7-0.1,1.4-0.2,2.1-0.3c0.7-0.1,1.4-0.1,2.1-0.2
						c6-0.7,11.9-0.8,17.8-0.6c2.9,0.2,5.9,0.4,8.8,0.8l2.2,0.3l1.1,0.1l1.1,0.2l4.3,0.9l1.1,0.2l1.1,0.3l2.1,0.6l2.1,0.6
						c0.7,0.2,1.4,0.4,2.1,0.6c2.7,1,5.5,1.8,8.2,3c5.5,2.2,10.9,4.7,16.2,7.5c21,11,39.6,26.1,54.2,44.4c1.5,1.9,2.9,3.7,4.4,5.6
						c1.4,1.9,2.8,3.8,4.2,5.7c0.7,0.9,1.4,1.9,2.1,2.9l2,2.9c1.4,1.9,2.7,4,4,6c5.2,8.1,9.9,16.5,14.1,25.2
						c8.2,17.5,14.1,36.2,16.4,55.1c2.4,20.4,1.3,41-2.9,60.8c-1.1,5-2.2,9.8-3.7,14.6c-1.4,4.8-3.1,9.5-4.9,14.1
						c-3.8,9.2-8.1,18.2-13.3,26.9c-10.9,18.4-25.8,34.5-42.7,48c-8.5,6.7-17.4,12.9-26.8,18.4c-9.3,5.6-19.1,10.5-29,15
						c-9.8,4.4-19.9,8.2-30.3,11.5c-10.3,3.2-20.8,5.8-31.5,7.7c-10.6,1.9-21.4,3.1-32.2,3.6c-10.8,0.5-21.6,0.1-32.2-1
						c-24.9-2.6-49.2-9.7-70.7-21.5c-13.5-7.4-26.1-16.8-37.5-27.4c-11.4-10.6-21.6-22.6-30.2-35.6c-17.3-25.9-27.8-56.1-29.5-87
						c-0.2-1.7-0.2-3.5-0.2-5.2c0-1.7-0.1-3.5-0.1-5.2c0.1-3.5,0.1-7,0.5-10.5l0.2-2.6l0.1-1.3l0.2-1.2l0.6-4.8
						c0.6-3.3,1.2-6.5,2.1-9.7l0.6-2.4c0.2-0.8,0.5-1.6,0.7-2.4c0.5-1.6,1-3.2,1.5-4.9c1.1-3.2,2.2-6.5,3.6-9.6
						c1.2-3.2,2.7-6.4,4.1-9.5c0.7-1.6,1.5-3.1,2.3-4.7c0.8-1.6,1.5-3.1,2.4-4.7l2.5-4.7l2.6-4.6c1.7-3.1,3.6-6.1,5.4-9.1
						c3.8-6,7.7-12,11.9-17.8c4.1-5.9,8.5-11.5,13-17.2l3.4-4.2l1.7-2.1l1.8-2.1l3.5-4.2l3.6-4.1c2.5-2.9,5.3-5.8,8.1-8.9
						c2.9-3,5.8-6.1,8.9-9.1c6.1-6.1,12.6-12.2,19.2-17.9c6.5-5.7,13.1-11.3,19.2-16.4c6.2-5.1,11.9-9.8,17-14.2
						c4.9-4.2,5.5-8,4.5-10.6c0.4,1.1-1.5,2.2-4.6,3.3c-1.6,0.5-3.4,1.2-5.5,1.8c-1,0.3-2.1,0.6-3.2,0.9c-1.1,0.3-2.2,0.7-3.3,1
						c-4.5,1.3-9.1,2.8-12.8,3.9c-3.6,1.2-6.3,2.2-7,2.4c-7.4,3.3-14.9,7.4-22.1,12.1c-7.2,4.7-14.3,9.8-21.1,15
						c-0.8,0.6-1.7,1.2-2.5,1.9c-0.8,0.6-1.6,1.3-2.4,1.9c-1.6,1.3-3.2,2.5-4.8,3.8c-1.6,1.3-3.2,2.6-4.7,3.9
						c-1.6,1.3-3.1,2.6-4.7,3.9c-1.5,1.3-3.1,2.6-4.6,3.9c-1.5,1.3-3,2.7-4.5,4c-3,2.7-5.9,5.5-8.8,8.3C64.9,119,59.3,125,54,131.5
						c-5.4,6.5-10.5,13.6-15.3,21.2c-5.1,8-9.7,16.4-13.9,25.1c-4.2,8.7-7.9,17.7-10.9,27.1c-3,9.4-5.4,19.2-6.6,29.5
						c-0.7,5.3-0.9,10-1.2,14.9l-0.1,7.4c-0.1,2.5,0.1,4.9,0.1,7.4c0.3,9.8,1.3,19.6,3,29.3c1.7,9.7,4.2,19.3,7.2,28.6
						c3.1,9.4,6.7,18.5,11,27.3c4.3,8.8,9.2,17.4,14.6,25.5c18.4,27.8,42.7,51.4,71.4,68.9c29,17.4,61.6,27.1,94.4,30.6
						C246.9,478.6,288.1,474.4,326.6,461.8z"/>
				</g>
			</g>
		</g>
	</g>
	<g>
		<g>
			<g>
				<path class="st0" d="M273.9,359.5l0.3,0C274.1,359.5,274,359.4,273.9,359.5z"/>
				<path class="st0" d="M233.2,359.2l0.1-0.4C233.2,359,233.2,359.1,233.2,359.2z"/>
				<path class="st0" d="M224.8,394.5l-0.2,0.1C224.7,394.6,224.8,394.6,224.8,394.5z"/>
				<g>
					<path class="st0" d="M241.5,396c7.5,0.2,15-0.7,22.4-2.8c7.6-2.2,15.2-5.4,23-5.8c8.2-0.4,16.4-0.2,24.6-1.6
						c8.3-1.4,16.3-1.1,24.5-0.8c8,0.3,15.9-2.7,23.8-1.5c2.1,0.3,4.2,0.9,6.4,1.3c1,0.2,6.3-2,7.3-3c0.5-0.5-2.6-2.8-3.5-3.4
						c-2.8-2-7.1-4.7-9.4-5.5c-4.5-1.7-6.6-2.4-11.2-2.9c-9.5-1.1-18.8-1.8-28.2-5c-7.6-2.6-15.6-0.8-23.3-2.1
						c-8.4-1.3-16.7-3.6-25.1-3.4c-8.9,0.2-17.8-1.8-26.8-1.5c-8.8,0.3-17.6,1.3-26.4,1.3c-5.1,0-10.3-0.1-15.4-0.4
						c-13-0.7-25.9,0.3-38.9,0.2c-11.7-0.1-23.1-3.7-34.9-2.4c-6.2,0.7-14.7,1-19.9,8.6c-1.3,1.8-1.6,5.1-1.6,7.9
						c0-4.7,6.9,5,7.4,5.5c3,2.7,6.4,3.9,9.6,5.8c6.2,3.6,11.7,8.4,18.2,9.5c13.7,2.2,27.3,1.5,41,1.4c11.7-0.1,23.3-0.7,34.9-0.5
						C227.1,395.1,234.3,395.8,241.5,396z"/>
				</g>
			</g>
		</g>
	</g>
	<g>
		<g>
			<g>
				<path class="st0" d="M268.7,210.2l0.3-0.3C268.8,210,268.7,210,268.7,210.2z"/>
				<path class="st0" d="M227,259.1l-0.3-0.4C226.8,258.9,226.9,259.1,227,259.1z"/>
				<path class="st0" d="M253.5,294.7l-0.2,0.4C253.4,295,253.5,294.8,253.5,294.7z"/>
				<g>
					<path class="st0" d="M269.7,276.1c1.8-2.1,3.4-4.3,5.1-6.4c1.7-2.2,3.3-4.4,4.8-6.7c3.2-4.5,6-9.3,8.8-14.2
						c2.8-5.1,5.4-10.3,8.3-15.5c1.4-2.6,3-5,4.6-7.4c1.7-2.4,3.4-4.7,5.4-6.9c2.1-2.3,4.2-4.5,6.3-6.8c2.1-2.2,4.3-4.4,6.4-6.7
						c4.2-4.5,8.5-9,12.4-13.8c3.9-4.9,8.3-9.3,12.8-13.5c4.5-4.2,9.2-8.2,14-12.2c4.7-3.8,8.7-8.4,12.8-12.8
						c4.2-4.4,8.4-8.7,13.5-12.1c2.7-1.8,5.6-3.3,8.4-5c1.4-0.8,5.8-7.9,6.3-9.8c0.2-0.9-5.2-0.1-6.7,0.2c-4.8,0.9-12,2.6-15.2,4
						c-6.5,2.9-9.6,4.3-15.4,8.4c-6,4.2-11.8,8.6-17.8,12.7c-3,2.1-6,4.1-9.1,6c-1.6,1-3.1,1.9-4.8,2.8c-1.6,0.9-3.2,1.8-4.9,2.7
						c-5.4,2.8-10,6.7-14.4,10.9c-2.2,2.1-4.4,4.2-6.6,6.2c-2.2,2.1-4.5,4.1-6.8,5.9c-5.2,3.9-10.5,7.8-15.7,11.9
						c-2.6,2-5.1,4.2-7.5,6.3c-1.2,1.1-2.4,2.2-3.6,3.4c-1.2,1.2-2.3,2.4-3.4,3.6c-9.3,10.4-20.4,19.4-29.1,30.7
						c-2.1,2.8-4.2,5.6-6.2,8.5l-6,8.7l-5.8,8.7c-1.8,2.7-3.4,5-5.1,7.1c-4,4.9-8.3,8.7-12.2,10.4c-2.4,1.1-4.4,1.6-6.1,1.8
						c-0.2,0-0.5,0.1-0.6,0.1c-0.2,0-0.4,0-0.6,0l-0.3,0l-0.4,0c-0.3,0-0.5,0-0.8,0c-0.2,0-0.6-0.1-0.9-0.1c-0.3,0-0.6-0.1-0.9-0.1
						l-2.1-0.5c-3-0.8-6.6-2.1-10.1-3.8c-3.6-1.7-7.2-3.8-10.8-6.2c-6.5-4.3-12.2-10.1-17.7-16c-2.8-2.9-5.5-5.9-8.3-8.8
						c-2.8-2.9-5.7-5.7-8.8-8.4c-3.3-2.8-6.9-6.3-10.9-9.1c-4-2.8-8.4-4.8-13.8-5c-2.5,0-6.3,1.3-9.3,2.9c2.5-1.3,2.2,1.3,1.7,4.8
						c-0.5,3.4-1.2,7.6-1.2,8c0.2,5.8,2.5,10.8,4.2,16c3.3,10.2,5.7,20.7,12.9,28.8c7.6,8.5,16.2,16,26,22.6
						c4.9,3.3,10.1,6.4,15.8,9.2c5.7,2.8,11.8,5.4,18.9,7.3c6,1.6,12.9,2.8,21,2.1c7.5-0.7,14.8-2.9,20.9-6
						c6.2-3.1,11.4-6.9,15.9-10.9c4.5-4,8.4-8.2,11.8-12.3c2.1-2.5,4-5,5.9-7.3c0.9-1.1,1.7-2.2,2.6-3.3c0.8-1,1.6-2,2.4-3
						c0.8-1,1.6-2,2.5-3l2.5-3C266.4,280.1,268,278.1,269.7,276.1z"/>
				</g>
			</g>
		</g>
	</g>
</g>
</svg>
