<?xml version="1.0" encoding="utf-8"?>
<!-- Generator: Adobe Illustrator 21.1.0, SVG Export Plug-In . SVG Version: 6.00 Build 0)  -->
<svg version="1.1" id="Layer_1" xmlns="http://www.w3.org/2000/svg" xmlns:xlink="http://www.w3.org/1999/xlink" x="0px" y="0px"
	 viewBox="0 0 500 500" style="enable-background:new 0 0 500 500;" xml:space="preserve">
<style type="text/css">
	.st0{fill:#231F20;}
</style>
<g>
	<g>
		<g>
			<g>
				<path class="st0" d="M179.9,60c-0.3,0.2-0.7,0.4-1,0.6C179.4,60.3,179.7,60.2,179.9,60z"/>
				<path class="st0" d="M347.8,49.1l-0.4,0.1C347.7,49.2,347.8,49.1,347.8,49.1z"/>
				<path class="st0" d="M388,45l1,0.3C388.5,45.1,388.2,45,388,45z"/>
				<g>
					<path class="st0" d="M316.2,26.9c-8.3-1.6-16.7-2.6-25.1-3.4l-6.3-0.5c-1.1-0.1-2.1-0.2-3.2-0.2l-3.2-0.1l-6.4-0.2l-6.4,0.1
						l-3.2,0l-3.2,0.2l-6.4,0.4l-6.4,0.7l-3.2,0.3c-1.1,0.1-2.1,0.3-3.2,0.5l-6.3,1c-2.1,0.4-4.2,0.9-6.2,1.3
						c-4.2,0.8-8.2,2.1-12.3,3.2c-8.3,2.6-16.6,5.7-24.3,9.6l-2.9,1.4c-1,0.5-1.9,1-2.9,1.6c-1.9,1.1-3.8,2.1-5.7,3.2l-5.5,3.4
						l-1.4,0.9l-1.3,0.9l-2.7,1.8c-1.8,1.2-3.6,2.4-5.3,3.8l-5.2,3.9c-3.3,2.8-6.7,5.5-9.8,8.5c-3.3,2.9-6.3,6-9.4,9
						c-2.9,3.2-6,6.3-8.8,9.6c-3.1,3.4-5.9,7-8.8,10.6l-4.1,5.5c-1.4,1.8-2.6,3.8-4,5.6c-5.1,7.6-10,15.3-14.2,23.4
						c-1.1,2-2.1,4.1-3.1,6.1c-1,2-2.1,4.1-3,6.1c-1.9,4.1-3.8,8.3-5.5,12.5c-3.5,8.4-6.5,17-9.3,25.7c-1.3,4.4-2.7,8.7-3.8,13.1
						c-1.3,4.4-2.3,8.8-3.4,13.2c-2.1,8.8-4,17.6-5.5,26.5c-3.2,17.7-5.4,35.5-7.1,53.7c-1.6,17.5-2,34.9-3.3,52.2
						c-1.2,17.3-3.3,34.4-7.8,51c-2.5,8.8-5.7,17.3-9.4,25.5c-0.5,1-1.4,3-2.6,5.6c-0.3,0.6-0.6,1.3-0.9,2c-0.2,0.3-0.3,0.7-0.5,1.1
						c-0.2,0.3-0.4,0.7-0.6,1.1c-0.8,1.4-1.5,2.9-2.3,4.4c-3,6-6.9,11.6-8,13.5c-0.5,0.9,1.4-1.2,3.7-3.9c1.1-1.4,2.3-2.9,3.4-4.3
						c1.1-1.4,1.9-2.7,2.4-3.4c0.8-1.3,1.8-2.6,2.7-4c0.5-0.7,1-1.4,1.4-2.2c0.4-0.8,0.9-1.5,1.3-2.3c0.9-1.6,1.8-3.2,2.7-4.8
						c0.9-1.6,1.7-3.4,2.5-5.1c0.8-1.7,1.6-3.3,2.3-5c0.7-1.7,1.3-3.3,1.9-4.8c1.3-3.1,2.2-6,3-8.3c0.4-1.2,0.7-2.3,1.1-3.4
						c0.4-1.1,0.6-2.2,0.9-3.3c0.6-2.1,1.1-4.1,1.6-6c0.5-1.9,0.9-3.8,1.3-5.6c0.4-1.8,0.8-3.6,1.1-5.4c0.3-1.8,0.6-3.6,1-5.5
						c0.2-0.9,0.3-1.9,0.5-2.8c0.1-1,0.3-1.9,0.4-2.9c0.3-2,0.6-4.1,0.9-6.3c0.3-2.2,0.5-4.6,0.8-7.1c2.2-20.8,3.1-41.4,5.3-61.7
						c1-10.2,2.4-20.3,4-30.3c1.6-10.1,3.6-20.1,6-30c1.9-8,4-16.1,6.3-24.2c0.6-2,1.2-4,1.8-6l0.9-3l1-3c0.6-2,1.3-4,1.9-6l2.1-6
						c5.6-15.9,12.5-31.4,20.8-45.8c4.5-7.7,9.5-15.2,14.8-22.3c5.4-7.1,11.2-13.9,17.3-20.3l4.7-4.7l4.9-4.5l1.2-1.1l1.3-1.1
						l2.5-2.2l2.5-2.2l2.6-2c3.4-2.8,7.1-5.3,10.7-7.9l5.6-3.6c0.9-0.6,1.9-1.2,2.8-1.7l2.9-1.7c8.1-4.7,16.7-8.5,25.5-11.6
						c8.9-2.9,18-5.1,27.3-6.6c9.3-1.4,18.7-2,28.2-2.1l7.1,0l7.1,0.3c2.4,0.1,4.7,0.3,7.1,0.5c2.4,0.2,4.7,0.3,7.1,0.6
						c9.4,0.9,18.7,2.4,27.9,4.2c2.3,0.5,4.6,0.9,7,1.4l6.9,1.5c2.3,0.5,4.6,1.1,6.9,1.7l7,1.8c9.4,2.3,18.8,4.5,27.9,7
						c9.2,2.5,18.2,5.2,27,8.4c10.2,3.8,20.1,8.3,28.8,14.1c4.3,2.9,8.3,6.2,11.7,9.8c3.4,3.6,6,7.7,7.7,12l0.4,1.1
						c0,0.1,0,0.2,0,0.4c0,0.1,0,0.1,0,0.2c0,0,0,0.1,0,0.1c0,0.1,0,0.2-0.1,0.3c-0.3,1-1,2.2-1.8,3.5c-1.5,2.5-3.5,5.2-5.6,7.8
						c-4.2,5.2-8.9,10.2-13.7,15.2c-4.8,5-9.7,9.9-14.7,14.9c-2.5,2.5-5,5-7.5,7.8c-0.6,0.7-1.3,1.4-1.9,2.2c-0.3,0.4-0.7,0.8-1,1.3
						l-0.9,1.1l-3.2,4.3c-16.7,23.2-31,48.1-42.6,74.2c-10.6,23.9-19.2,48.2-25.4,73.4c-6.1,25.1-9.9,50.9-10.5,77.3
						c-0.1,3.5-0.2,7.2-0.1,10.8c0,3.6-0.1,7.3-0.2,11c-0.2,7.4-0.8,15-2.1,22c-1.3,7-3.3,13.6-6.4,18.2c-1.5,2.3-3.3,4.1-5.3,5.4
						c-2,1.3-4.3,2.2-6.6,2.6c-2.3,0.5-4,0.8-5.1,1.2c-1.1,0.4-1.6,1-1.7,1.5c0-0.2,0.5-0.3,1.3-0.3c0.8,0,1.9,0.2,3.2,0.3
						c2.7,0.2,6.3,0.3,9.8-0.9c3.6-1.1,6.9-3.3,9.1-5.5c1.1-1.1,2-2.1,2.7-3c0.7-0.8,1.1-1.4,1.2-1.7c3.7-5.7,6-12.6,7.6-19.5
						c1.6-7,2.5-14.2,3.1-21.2c0.6-6.8,1-13.4,1.6-19.8c0.2-3.2,0.6-6.4,1-9.6l0.6-4.8c0.2-1.6,0.4-3.2,0.7-4.8
						c1.8-12.7,4-25.5,6.8-39.2c5.9-28.9,14.6-57,26.3-83.9c11.7-26.9,26.2-52.6,43.5-76.4l3-4c0.7-0.9,1.8-2.2,2.9-3.3
						c2.2-2.4,4.7-4.8,7.1-7.3c4.8-4.9,9.8-9.8,14.6-14.9c4.8-5.1,9.6-10.3,14.2-16c2.3-2.9,4.5-5.8,6.6-9.3c1-1.8,2-3.6,2.9-6
						c0.2-0.6,0.5-1.4,0.6-2.2c0.2-0.8,0.3-1.6,0.4-2.5c0.1-0.8,0.1-1.7-0.1-2.5c0-0.4-0.1-0.8-0.2-1.2c-0.1-0.4-0.2-0.8-0.3-1.2
						l-1.1-2.9l-0.5-1.2l-0.6-1.2l-1.2-2.3c-0.4-0.8-0.9-1.5-1.3-2.2c-0.5-0.7-0.9-1.5-1.4-2.2l-1.5-2.1c-1-1.4-2.1-2.6-3.2-3.9
						c-4.4-5-9.5-9.1-14.7-12.6c-10.5-7.1-21.8-12-33.1-16.3c-14.8-5.4-30.1-9.6-45.3-13.4c-7.6-2-15.2-3.9-22.9-5.9
						C332,30.1,324.2,28.3,316.2,26.9z"/>
				</g>
			</g>
		</g>
	</g>
	<g>
		<g>
			<g>
				<path class="st0" d="M474.3,308l0,0.3C474.3,308.2,474.3,308.1,474.3,308z"/>
				<path class="st0" d="M480.1,259.2l0.2,0.1C480.2,259.2,480.1,259.2,480.1,259.2z"/>
				<path class="st0" d="M466.7,248.1l0-0.3C466.7,247.9,466.7,248,466.7,248.1z"/>
				<g>
					<path class="st0" d="M464.6,267.7c-0.4,4.4-0.9,8.8-1.1,13.2c-0.4,4.4-0.5,8.8-0.8,13.2c-0.3,9.1-0.5,18.2-2,27.3
						c-1.6,9.6-3.6,19.1-5.2,28.7c-1.7,9.7-4,18.9-6.7,28.4c-1.3,4.6-2.3,9.2-3.4,13.8c-1.1,4.6-2.3,9.2-3.9,13.6
						c-0.9,2.4-1.8,4.7-2.8,7.1c-0.5,1.2-1.6,7.4-1.5,8.7c0,0.6,2-2.6,2.6-3.5c0.9-1.5,2-3.3,3-5.2c1-1.8,1.9-3.6,2.5-4.8
						c2.3-4.9,3.2-7.3,5-12.5c3.6-10.8,6.8-21.5,10.7-32.1c3.1-8.6,4.6-18.2,6.9-27.2c2.5-9.7,5.2-19.5,6.6-29.5
						c1.5-10.7,3.8-21.2,4.7-32c0.9-10.6,1.4-21.2,1.8-31.9c0.3-6.2,0.5-12.4,0.7-18.6c0.6-15.7-0.1-31.3-0.7-46.9
						c-0.6-14.1,0-27.9-1.7-42c-0.9-7.5-2-17.6-5.7-23.5c-0.9-1.4-2.2-1.8-3.4-1.6c1.9-0.2-1.1,8.4-1.3,9c-0.7,3.7-0.8,7.7-1.2,11.5
						c-0.8,7.4-2.2,14.1-2.1,21.9c0.2,16.3,1.2,32.3,1.5,48.5c0.2,13.8,0.3,27.5-0.5,41.3C466.3,250.8,465.5,259.2,464.6,267.7z"/>
				</g>
			</g>
		</g>
	</g>
	<g>
		<g>
			<g>
				<path class="st0" d="M136.1,439.8l-0.3,0C136,439.8,136,439.8,136.1,439.8z"/>
				<path class="st0" d="M173.3,442.5l-0.1,0.1C173.3,442.6,173.3,442.5,173.3,442.5z"/>
				<path class="st0" d="M182.9,431.2l0.2,0C183,431.2,183,431.2,182.9,431.2z"/>
				<g>
					<path class="st0" d="M167.2,428.8c-3.6-0.3-7.1-0.6-10.7-0.7c-1.8,0-3.6-0.1-5.3-0.1c-1.8,0.1-3.6,0.2-5.3,0.3
						c-1.8,0.1-3.6,0.3-5.5,0.4c-1.8,0.2-3.6,0.3-5.4,0.5c-3.6,0.4-7.2,0.8-10.9,0.9l-2.9,0.1l-2.9,0.2c-1.9,0.1-3.9,0.3-5.8,0.4
						c-1.9,0.1-3.9,0.3-5.8,0.4c-1.9,0.1-3.8,0.5-5.8,0.8c-3.9,0.6-7.7,1.1-11.5,1.5c-3.8,0.6-7.6,1.1-11.5,1.6
						c-3.7,0.4-7.4,1.4-11,2.3c-1.8,0.4-3.6,0.9-5.5,1.3c-0.9,0.2-1.8,0.4-2.8,0.5c-0.9,0.2-1.8,0.4-2.8,0.6c-2,0.3-3.9,0.6-5.9,0.9
						c-1,0.2-5.6,2-6.4,2.6c-0.4,0.3,2.6,0.4,3.5,0.4c2.7,0.1,6.9,0.1,8.9-0.1c4.2-0.4,6.2-0.5,10.4-1.1c4.4-0.6,8.7-1.4,13-1.7
						c2.2-0.2,4.3-0.3,6.5-0.5c2.2-0.1,4.3-0.3,6.5-0.1c3.5,0.1,7.1-0.2,10.7-0.5l2.7-0.3l2.7-0.1c1.8-0.1,3.6-0.1,5.4-0.1
						c3.9,0,7.7,0.1,11.5,0.4c3.8,0.2,7.7,0.3,11.5,0.3c4.1,0.1,8.2,0.4,12.3,0.7c2,0.1,4.1,0.4,6.1,0.6c2,0.2,4.1,0.4,6.1,0.5
						c2,0.1,4,0.2,6,0.4l6,0.6c4,0.4,8,0.7,12,1.5l7,1.2l3.5,0.6c1.2,0.2,2.3,0.5,3.4,0.8c5.8,1.4,11.6,2.5,17.4,4.1l8.6,2.2
						c2.8,0.8,5.7,1.7,8.5,2.6c1.3,0.4,2.5,0.8,3.8,1.3c1.3,0.4,2.5,0.9,3.7,1.4c2.4,1,4.9,2.1,7.3,3.1c4.9,2,9.7,4.3,14.7,6.1
						c1.3,0.5,2.8,1,4.3,1.6c1.5,0.6,3,1.2,4.6,1.7c3.1,1,6.2,1.8,9,1.6c1.3-0.1,2.2-0.9,2.6-1.8c-0.7,1.5-5-4.3-5.4-4.7
						c-2.1-2.1-4.8-3.8-7.2-5.7c-2.4-1.7-4.7-3.4-7-5.1c-1.2-0.8-2.4-1.6-3.6-2.4c-0.6-0.4-1.3-0.8-1.9-1.1c-0.7-0.4-1.4-0.7-2.1-1
						c-3-1.3-6-2.5-9-3.7c-1.5-0.6-3-1.2-4.6-1.7l-4.6-1.5c-3.1-1-6.2-1.9-9.3-2.9c-3.1-0.8-6.3-1.6-9.4-2.5
						c-5.3-1.5-10.8-2.5-16.2-3.7l-4.1-0.9c-1.4-0.3-2.7-0.5-4.1-0.7l-8.2-1.4c-1.6-0.3-3.3-0.6-4.9-0.9c-1.7-0.2-3.3-0.5-5-0.7
						C174,429.7,170.6,429.2,167.2,428.8z"/>
				</g>
			</g>
		</g>
	</g>
	<g>
		<g>
			<g>
				<path class="st0" d="M402.1,283.8l-0.1-0.4C402,283.6,402,283.7,402.1,283.8z"/>
				<path class="st0" d="M424.5,338.9l-0.2-0.1C424.4,338.9,424.5,338.9,424.5,338.9z"/>
				<path class="st0" d="M438.6,347.7l0.1,0.4C438.7,347.9,438.7,347.8,438.6,347.7z"/>
				<g>
					<path class="st0" d="M429.6,323.7c-4.6-9.9-9.4-19.4-13.6-28.9c-2.2-4.9-4.1-9.8-5.6-14.9c-0.8-2.6-1.4-5.1-1.8-7.7l-0.3-1.9
						c-0.1-0.6-0.1-1.3-0.2-2l-0.1-2l0-2c0-2.8,0.3-5.6,0.7-8.4c0.3-1.4,0.5-2.8,0.8-4.1c0.4-1.4,0.6-2.7,1.1-4.1
						c1.6-5.4,3.8-10.6,6.6-15.6c2.7-5.1,6.2-9.5,9.9-14.1c3.7-4.6,7.4-9.3,10.8-14.5c1.6-2.5,3-5.2,4.2-8c0.6-1.4,1.1-2.9,1.5-4.3
						c0.4-1.4,0.8-2.8,1.2-4.2c1.5-5.6,2.7-11.4,3.2-17.5c0.3-3.2,0.4-6.4,0-9.7c-0.1-0.4-0.2-1.2-0.4-2.2c-0.2-1-0.6-2.1-1-3.3
						c-0.8-2.3-2-4.4-2.4-5.1c-0.2-0.3,0,0.7,0.2,1.9c0.3,1.2,0.4,2.7,0.5,3.3c0.1,1,0.2,2.2,0.3,3.4c0,1.2,0.1,2.5,0.1,3.7
						c0,2.5-0.3,4.8-0.4,6.4c-0.4,3.2-0.9,5.5-1.4,7.8c-0.5,2.3-1.2,4.6-2.1,7.7c-1,3.2-2.1,6.5-3.4,9.4c-1.3,3-3,5.8-4.9,8.5
						c-3.7,5.4-8.2,10.4-12.8,15.4c-1.9,2-3.8,4.2-5.5,6.6c-0.9,1.2-1.7,2.4-2.5,3.6l-1.2,1.9l-1.1,1.9c-2.9,5.2-5.2,10.7-6.9,16.3
						c-1.9,6.1-3,12.4-3.2,18.9c-0.2,6.4,0.8,13,2.4,19.1c3.5,13,8.4,25.2,13.9,36.9c2.7,5.8,5.6,11.4,8.2,17.1l1,2.1l0.5,1.1l0.4,1
						c0.5,1.3,1,2.6,1.3,3.9c0.3,1.3,0.6,2.5,0.6,3.6c0,1.1-0.1,2.1-0.4,2.8c-0.3,0.8-0.7,1.4-1.5,2c-0.9,0.6-2,1.1-3.2,1.4
						c-2.5,0.5-5.8,0.2-9.6-0.2c-1.2-0.1-2.5-0.2-3.8-0.2c-1.3,0-2.7,0-4,0.1c-2.6,0.2-5,0.6-7.3,0.9c-1.1,0.2-2.2,0.3-3.2,0.4
						l-0.8,0.1c-0.3,0-0.4,0-0.6,0c-0.4,0-0.8,0-1.3,0c-1.8-0.1-4.1-0.7-7.1-0.8c-0.8,0-1.5-0.1-2.4,0l-1.3,0.1
						c-0.4,0.1-0.9,0.2-1.3,0.3c-1.8,0.4-3.6,1.2-5.2,2.5c-1.6,1.3-2.8,2.9-3.6,4.5c-0.8,1.7-1.2,3.4-1.4,5c-0.2,1.6-0.2,3.2,0,4.7
						c0.1,0.8,0.2,1.5,0.3,2.2l0.3,1.6c0.3,2,0.5,3.9,0.3,5.7c-0.2,1.6-0.5,2.9-1.2,4c-0.6,1.1-1.5,2-2.7,2.8l-1.3,0.9
						c-0.5,0.4-1,0.7-1.5,1.1l-1.5,1.2c-0.5,0.4-1,0.9-1.4,1.4c-1.9,1.9-3.6,4.4-4.5,7.2c-1,2.7-1.3,5.5-1.4,7.9
						c-0.1,2.4,0,4.5,0,6.4c0,0.9,0,1.8-0.1,2.8c-0.1,0.9-0.1,1.9-0.2,2.9l-0.3,2.8c-0.2,0.9-0.3,1.8-0.5,2.6
						c-0.5,1.7-1,3.7-1.9,5.1c-0.9,1.5-1.9,2.8-3.3,4c-1.4,1.1-3.2,2.1-5.1,3c-1.9,0.9-3.8,1.7-5.5,2.6c-1.7,0.8-2.1,1.9-1.9,2.7
						c-0.1-0.7,2.4-0.7,5-0.7c2.6,0,5.4,0,5.7-0.1c2.2-0.3,4.6-1.1,6.7-2.4c1.1-0.6,2.1-1.5,3.1-2.3c0.9-1,1.8-1.9,2.5-3
						c2.9-4.1,4.5-8.6,5.5-13.1c0.3-1.1,0.4-2.2,0.6-3.4c0.1-0.6,0.2-1.2,0.3-1.7c0.1-0.6,0.1-1.2,0.2-1.8c0.2-2.4,0.2-4.6,0.4-6.6
						c0.1-2.1,0.5-3.7,1.3-5c0.7-1.3,1.8-2.6,3.3-3.8c0.3-0.3,0.8-0.6,1.2-0.9l1.6-1.1c1.3-1,2.6-2.2,3.7-3.5c1.1-1.4,2-2.9,2.7-4.5
						c0.6-1.6,1.1-3.2,1.4-4.8c0.5-3.2,0.4-6.3,0-9.1c-0.1-0.7-0.2-1.4-0.4-2.1l-0.3-1.6c-0.1-0.8-0.2-1.6-0.1-2.4
						c0.1-0.7,0.2-1.3,0.4-1.8c0.2-0.4,0.4-0.7,0.6-0.9c0.4-0.3,1.1-0.6,2.9-0.5c1.5,0.1,3.5,0.5,6,0.8c1.2,0.1,2.7,0.2,4.1,0.1
						c1.2-0.1,2.4-0.2,3.5-0.4c2.2-0.3,4.3-0.6,6.2-0.9c1-0.1,1.9-0.2,2.8-0.3c0.9-0.1,1.7,0,2.6,0c1.8,0.1,3.9,0.3,6.1,0.4
						c2.3,0.1,4.8,0.2,7.5-0.2c2.7-0.4,5.6-1.4,8.1-3c0.6-0.4,1.3-1,1.9-1.4c0.6-0.6,1.2-1.2,1.8-1.8c0.5-0.7,1.1-1.4,1.4-2.1
						l0.6-1.1c0.2-0.4,0.3-0.8,0.4-1.2c0.4-0.9,0.5-1.9,0.7-2.8c0.1-0.9,0.2-1.8,0.2-2.7c0-1.8-0.1-3.4-0.4-4.9
						c-0.6-3.1-1.5-5.9-2.6-8.6C434,333.2,431.8,328.4,429.6,323.7z"/>
				</g>
			</g>
		</g>
	</g>
</g>
</svg>
