<?xml version="1.0" encoding="utf-8"?>
<!-- Generator: Adobe Illustrator 16.0.0, SVG Export Plug-In . SVG Version: 6.00 Build 0)  -->
<!DOCTYPE svg PUBLIC "-//W3C//DTD SVG 1.1//EN" "http://www.w3.org/Graphics/SVG/1.1/DTD/svg11.dtd">
<svg version="1.1" id="Layer_1" xmlns="http://www.w3.org/2000/svg" xmlns:xlink="http://www.w3.org/1999/xlink" x="0px" y="0px"
	 width="500px" height="500px" viewBox="0 0 500 500" enable-background="new 0 0 500 500" xml:space="preserve">
<g>
	<g>
		<g>
			<g>
				<path d="M185,68.3c-0.3,0.2-0.6,0.4-0.9,0.6C184.5,68.6,184.8,68.5,185,68.3z"/>
				<path d="M345.3,58.8l-0.5,0.3C345.2,59,345.3,58.9,345.3,58.8z"/>
				<path d="M391.1,34.3l1.1,0.3C391.6,34.4,391.3,34.3,391.1,34.3z"/>
				<g>
					<path d="M318.3,15c-8.6-1.6-17.3-2.7-26.1-3.6l-6.6-0.4c-1.1-0.1-2.2-0.2-3.3-0.2l-3.3-0.1l-6.7-0.1l-6.7,0.2
						l-3.3,0.1l-3.4,0.2l-6.7,0.5l-6.7,0.8l-3.3,0.4c-1.1,0.2-2.2,0.4-3.3,0.6l-6.6,1.2c-2.2,0.5-4.4,1-6.6,1.6
						c-4.4,1-8.7,2.5-13,3.8c-8.8,3.1-17.4,6.6-25.5,11.1l-3.1,1.6c-1,0.6-2,1.2-3,1.8c-2,1.2-4,2.3-5.9,3.6l-5.7,3.8l-1.4,1l-1.4,1
						l-2.7,2c-1.8,1.4-3.7,2.7-5.4,4.2l-5.2,4.3c-3.4,3-6.8,5.9-10,9.1c-3.3,3.1-6.4,6.4-9.5,9.5c-3,3.3-6.1,6.6-9,10
						c-3.2,3.6-6.1,7.3-9,11l-4.2,5.7c-1.4,1.9-2.7,3.9-4.1,5.8c-5.3,7.8-10.2,15.8-14.5,24.1c-1.1,2.1-2.1,4.2-3.2,6.2
						c-1,2.1-2.1,4.2-3,6.3c-1.9,4.3-3.8,8.5-5.5,12.8c-3.5,8.6-6.5,17.4-9.1,26.3c-1.3,4.5-2.5,9-3.7,13.4
						c-1.2,4.5-2.2,8.9-3.3,13.4c-2,8.9-3.9,17.9-5.5,26.8c-3.3,17.9-5.6,35.9-7.4,54.2c-1.7,17.7-1.7,35.1-2.7,52.3
						c-0.8,17.1-2.7,34.1-7.4,50.2c-2.6,8.5-6,16.6-9.9,24.4c-0.5,0.9-1.4,2.9-2.4,5.4c-0.2,0.6-0.5,1.3-0.8,2
						c-0.1,0.3-0.3,0.7-0.4,1c-0.2,0.3-0.3,0.7-0.5,1c-0.6,1.4-1.3,2.9-2,4.3c-2.6,6-5.9,11.6-6.8,13.7c-0.4,0.9,1.8-0.8,4.4-3.2
						c1.3-1.2,2.7-2.6,3.8-3.9c1.2-1.3,2.1-2.4,2.7-3.2c1-1.2,2-2.4,3.1-3.8c0.5-0.7,1.1-1.3,1.6-2c0.5-0.7,1-1.5,1.5-2.2
						c1-1.5,2.1-3.1,3.2-4.6c1.1-1.6,1.9-3.2,2.9-4.9c0.9-1.6,1.9-3.2,2.7-4.9c0.8-1.6,1.6-3.2,2.3-4.7c1.5-3,2.6-5.9,3.5-8.2
						c0.4-1.2,0.9-2.3,1.3-3.4c0.4-1.1,0.7-2.2,1.1-3.2c0.7-2.1,1.3-4.1,1.9-6c0.6-1.9,1-3.8,1.5-5.6c0.5-1.8,1-3.6,1.4-5.4
						c0.4-1.8,0.8-3.6,1.2-5.5c0.2-0.9,0.4-1.9,0.6-2.8c0.2-1,0.3-1.9,0.5-2.9c0.3-2,0.7-4.1,1-6.3c0.3-2.2,0.6-4.6,0.9-7.1
						c2.6-20.9,3.7-41.5,6.3-61.6c1.3-10.1,2.9-20.1,4.8-30c1.9-9.9,4.3-19.8,7.1-29.4c2.2-7.8,4.6-15.7,6.9-23.6
						c0.6-2,1.2-3.9,1.8-5.9l0.9-3l1-2.9c0.6-2,1.3-3.9,1.9-5.9l2.1-5.8c1.3-3.9,2.9-7.7,4.4-11.6c0.7-1.9,1.6-3.8,2.4-5.7
						c0.8-1.9,1.6-3.8,2.5-5.6c1.8-3.7,3.4-7.4,5.4-11c1-1.8,1.9-3.6,2.9-5.4c1-1.7,2.1-3.5,3.1-5.2c4.6-7.4,9.5-14.5,14.9-21.2
						c5.4-6.7,11.1-13,17.2-19l4.6-4.4l4.7-4.2l1.2-1.1l1.2-1l2.4-2l2.4-2l2.5-1.9c3.3-2.6,6.7-4.9,10.1-7.3l5.2-3.4
						c0.9-0.6,1.8-1.1,2.7-1.6l2.7-1.6c7.6-4.4,15.6-8,24-10.7c8.4-2.6,17-4.6,25.7-5.8c8.8-1.2,17.7-1.6,26.7-1.6l6.7,0.1l6.8,0.3
						c2.3,0.1,4.5,0.3,6.8,0.5c2.3,0.2,4.5,0.3,6.8,0.6c9,0.8,18,2.2,27,3.9c2.3,0.4,4.5,0.8,6.8,1.3l6.8,1.4
						c2.3,0.5,4.5,1.1,6.8,1.6l7.1,1.7c9.6,2.3,18.8,4.4,27.8,6.7c9,2.4,17.8,5,26.2,8.1c9.7,3.6,18.9,7.9,26.6,13
						c3.8,2.6,7.2,5.4,9.8,8.3c0.4,0.4,0.7,0.7,0.9,1.1l0.9,1.1c0.6,0.7,1,1.5,1.6,2.2l0.3,0.6l0,0c0-0.1,0,0.1,0.1,0.2
						c0.1,0.2,0.2,0.4,0.2,0.6l0,0.1c0.2,0.5,0,1-0.3,1.4c-0.1,0.2-0.3,0.4-0.4,0.6l-0.1,0.1l-0.3,0.4l-0.6,0.8l-1.4,1.7
						c-3.8,4.7-8.4,9.7-13.1,14.6c-4.7,4.9-9.7,9.9-14.7,15c-2.5,2.6-5.1,5.1-7.8,8c-0.7,0.7-1.4,1.5-2.1,2.4
						c-0.7,0.9-1.5,1.8-2.5,3.1l-3.3,4.5c-17.4,24-32.1,49.9-44.1,76.9c-10.9,24.4-20.3,49.2-27.1,75c-6.8,25.7-11,52.3-11.2,79.5
						c0,1.8,0,3.6,0,5.5c0,1.9,0,3.7,0,5.5c0,3.6,0.1,7.1,0,10.7c-0.1,7.1-0.4,14-1.2,20.2c-0.4,3.1-0.9,6-1.4,8.4
						c-0.6,2.5-1.2,4.5-1.7,6.1c-0.6,1.6-1,2.7-1.6,3.8c-0.6,1.1-1.7,2.3-3.3,3.3c-1.5,1-3,2.1-4.1,3.4c-1.1,1.3-1.7,2.7-2,4.1
						c0.1-0.6,0.6-0.9,1.3-1c0.7-0.1,1.8,0.1,2.9,0.2c2.4,0.4,5.6,0.9,9.1,0.5c0.4-0.1,0.9-0.1,1.3-0.2c0.4-0.1,0.9-0.2,1.3-0.3
						c0.9-0.2,1.7-0.6,2.6-0.9c0.9-0.3,1.6-0.8,2.5-1.2c0.8-0.5,1.5-0.9,2.2-1.4c1.3-1,2.5-1.9,3.3-2.6c0.8-0.7,1.4-1.3,1.5-1.5
						c2.3-2.7,4.2-5.9,5.8-9.2c1.6-3.3,2.8-6.8,3.9-10.4c2.1-7.1,3.5-14.5,4.7-21.6c0.6-3.4,1.1-6.8,1.7-10.2
						c0.5-3.3,1.1-6.5,1.7-9.6c0.5-3.1,1.2-6.3,1.9-9.3l1-4.6c0.4-1.5,0.7-3.1,1.1-4.6c2.8-12.3,5.9-24.6,8.9-38
						c6.4-27.9,15.1-55.2,26.6-81.2c11.4-26.1,25.4-51,42.3-74.1l2.8-3.8c0.1-0.1,0.5-0.6,0.9-1.1l1.5-1.6c2.1-2.3,4.6-4.8,7-7.3
						c5-5,10.1-10.2,15.2-15.5c5.1-5.4,10.2-10.9,15.3-17.5c0.6-0.8,1.3-1.7,1.9-2.5l1-1.3l0.7-1l0.7-1.1c1.9-2.9,3.6-5.8,4.9-8.9
						c1.3-3.1,2.2-6.3,2.5-9.6c0.1-1.6,0.1-3.3-0.1-4.9l-1.1-4.8l-0.7-1.9l-0.8-1.9l-1.6-3.7c-0.5-1.2-1.2-2.4-2-3.7l-1.1-1.9
						c-0.3-0.4-0.5-0.9-0.8-1.3c-1.2-1.6-2.3-3.2-3.5-4.7l-1.9-2.2l-0.9-1.1l-1-1c-5.2-5.4-10.8-9.8-16.4-13.6
						C434.9,50,423.3,45,411.9,40.7c-15.4-5.7-31.1-10.1-46.4-14.1c-7.6-2-15.2-4.1-22.9-6.1C334.6,18.4,326.5,16.5,318.3,15z"/>
				</g>
			</g>
		</g>
	</g>
	<g>
		<g>
			<g>
				<path d="M483.9,309.5l0,0.3C483.9,309.7,484,309.6,483.9,309.5z"/>
				<path d="M490.1,259.9l0.4,0.1C490.4,259.9,490.2,259.9,490.1,259.9z"/>
				<path d="M455.6,247.5l0-0.3C455.5,247.3,455.6,247.4,455.6,247.5z"/>
				<g>
					<path d="M452.6,266.6c-0.5,4.3-0.8,8.6-0.8,13c-0.1,4.3,0.2,8.7,0.6,13.1c1,9.1,2.7,18.4,1.4,27.4
						c-1.4,9.6-3.5,18.9-4.3,28.6c-0.9,9.8-3.4,18.9-6.3,28.2c-1.3,4.5-2,9.2-2.8,13.8c-0.8,4.6-1.7,9.3-3.7,13.6
						c-1.1,2.3-2.3,4.5-3.5,6.8c-0.6,1.1-0.4,7.7,0.2,9.2c0.3,0.7,3.6-2.1,4.5-2.9c1.5-1.3,3.3-2.9,4.9-4.6c1.6-1.6,3-3.2,3.8-4.4
						c3.2-4.6,4.6-6.8,6.7-12c4.3-10.7,7.9-21.3,13.8-31.5c4.7-8.4,5.2-18.2,8.2-27.2c3.3-9.7,7.4-19.3,8.8-29.5
						c1.5-10.8,5-21.4,5.7-32.4c0.8-10.8,0.7-21.7,1.2-32.5c0.3-6.3,0.6-12.6,1-18.9c1-15.9-0.1-31.7-0.6-47.5
						c-0.5-14.2,2.3-28.4-0.2-42.6c-1.3-7.5-2.6-17.7-10.7-23.2c-2-1.3-5.3-1.4-8.1-1.1c4.7-0.5-4.2,8.7-4.6,9.3
						c-2.4,3.9-3.2,7.9-4.7,11.8c-3,7.6-7.3,14.4-7.8,22.2c-1.1,16.2,0.2,32,0.5,48c0.2,13.6,0.6,27.1-0.3,40.6
						C454.9,250.1,453.6,258.4,452.6,266.6z"/>
				</g>
			</g>
		</g>
	</g>
	<g>
		<g>
			<g>
				<path d="M136,450.3l-0.3,0C135.9,450.4,135.9,450.4,136,450.3z"/>
				<path d="M172,453.3l-0.1,0.4C172,453.5,172,453.4,172,453.3z"/>
				<path d="M184.6,419.3l0.2,0C184.8,419.3,184.7,419.3,184.6,419.3z"/>
				<g>
					<path d="M168.5,415.7c-3.7-0.4-7.4-0.6-11.1-0.4c-1.9,0.1-3.7,0.2-5.6,0.5c-1.9,0.3-3.7,0.7-5.5,1.1
						c-1.9,0.5-3.8,1-5.7,1.5c-1.9,0.6-3.7,1.1-5.6,1.7c-3.7,1.1-7.4,2.1-11.2,2.3l-3,0.1l-3,0.2c-2,0.2-3.9,0.3-5.9,0.5
						c-2,0.2-3.9,0.4-5.9,0.7c-2,0.3-3.9,0.8-5.8,1.3c-3.9,1.1-7.7,1.7-11.6,2.2c-3.9,0.6-7.7,1-11.7,1.4c-3.8,0.3-7.4,1.8-11.1,3
						c-1.8,0.6-3.6,1.2-5.5,1.7c-0.9,0.2-1.9,0.4-2.8,0.6c-0.9,0.2-1.9,0.3-2.8,0.4c-2,0.1-4.1,0.1-6.2,0.1c-1,0-5.4,3.3-6.1,4.5
						c-0.3,0.5,3.1,2.1,4,2.6c3.1,1.4,7.6,3,9.8,3.4c4.4,0.6,6.5,1.1,10.7,0.8c4.4-0.2,8.7-0.7,13.1-0.5c2.2,0.1,4.4,0.2,6.5,0.4
						c2.2,0.3,4.4,0.5,6.6,1.2c3.6,1,7.1,0.9,10.6,0.6l2.6-0.2c0.9-0.1,1.8-0.1,2.6-0.1c1.8,0,3.5,0,5.3,0.2
						c3.8,0.5,7.5,1.1,11.3,1.9c3.7,0.7,7.5,1.2,11.2,1.1c4,0.1,7.9,0.7,11.8,1.3c2,0.3,3.9,0.7,5.9,1c2,0.3,3.9,0.5,5.9,0.6
						c1.9,0.1,3.9,0.1,5.8,0.2l5.8,0.3c3.9,0.3,7.8,0.4,11.7,1.1c2.2,0.4,4.5,0.8,6.7,1.3l3.3,0.7c1.1,0.2,2.2,0.6,3.3,0.9
						c5.5,1.6,11.2,2.6,16.7,4.1l8.4,2c2.8,0.8,5.5,1.6,8.2,2.5c1.2,0.4,2.4,0.9,3.6,1.4c1.2,0.5,2.4,1,3.5,1.6
						c2.3,1.2,4.5,2.5,6.8,3.7c4.6,2.4,9,5,14,6.4c1.3,0.4,2.8,0.8,4.3,1.2c1.5,0.4,3.1,0.8,4.7,1c3.3,0.3,6.8-0.1,10.6-2.5
						c1.8-1.1,3.6-3.9,4.9-6.5c-1.1,2.1-1.9,0.3-2.6-2.1c-0.6-2.4-1.1-5.5-1.2-5.8c-1.4-3.7-3.7-6.2-5.7-9.2c-2-2.8-3.7-5.8-5.7-8.6
						c-1-1.4-2-2.7-3.2-3.9c-0.6-0.6-1.2-1.2-1.8-1.7c-0.6-0.5-1.3-0.9-2-1.4c-3-1.7-6-3.2-9.1-4.6c-1.5-0.7-3.1-1.4-4.7-2
						c-1.6-0.6-3.2-1.1-4.8-1.7c-3.2-1.1-6.4-2.1-9.6-3c-3.3-0.8-6.5-1.7-9.8-2.5c-5.5-1.6-11.2-2.5-16.8-3.7l-4.2-0.8
						c-1.4-0.3-2.8-0.5-4.2-0.7c-2.8-0.5-5.7-1-8.5-1.5c-1.7-0.3-3.4-0.7-5.1-1c-1.7-0.3-3.4-0.7-5.2-1
						C175.5,417,172,416.2,168.5,415.7z"/>
				</g>
			</g>
		</g>
	</g>
	<g>
		<g>
			<g>
				<path d="M391.1,286.5l-0.1-0.4C391,286.3,391,286.4,391.1,286.5z"/>
				<path d="M412.5,340.8l-0.4,0.1C412.2,340.9,412.4,340.8,412.5,340.8z"/>
				<path d="M451.7,353.9l0,0.6C451.7,354.2,451.7,354,451.7,353.9z"/>
				<g>
					<path d="M442.4,317.7c-4.4-10-9.6-18.9-14.8-27.2c-2.7-4.3-5.4-8.5-7.6-12.9c-0.5-1.1-1.1-2.3-1.5-3.3
						c-0.4-1-0.9-2.1-1.1-3.2l-0.4-1.6c-0.1-0.6-0.2-1.1-0.3-1.7c-0.1-0.6-0.2-1.1-0.2-1.7l-0.1-1.7c-0.1-2.4,0.2-4.8,0.5-7.2
						c0.2-1.2,0.4-2.4,0.6-3.6c0.3-1.2,0.5-2.4,0.9-3.6c1.3-4.7,3.1-9.4,5.1-14.2c1.1-2.4,2.3-4.7,3.8-6.9l1.1-1.6l1.3-1.7
						c0.9-1.2,1.8-2.3,2.7-3.5c3.7-4.7,7.7-9.4,11.4-15c1.8-2.7,3.3-5.7,4.5-9c0.3-0.8,0.6-1.6,0.8-2.5c0.2-0.8,0.5-1.7,0.7-2.5
						c0.3-1.5,0.7-2.9,1-4.5c1.2-6,2.3-12.2,3.3-18.9c0.5-3.5,1-7.2,0.9-11c0-0.5-0.3-1.4-0.7-2.5c-0.4-1.1-1-2.4-1.7-3.6
						c-0.7-1.2-1.4-2.4-2.2-3.3c-0.7-0.9-1.3-1.6-1.7-1.9c-0.4-0.3-0.6,1-0.8,2.5c-0.2,1.5-0.5,3.2-0.6,3.9
						c-0.2,1.2-0.4,2.5-0.7,3.8c-0.3,1.3-0.6,2.7-1,4c-0.7,2.6-1.6,4.8-2.1,6.3c-1,3.1-1.9,5.2-2.7,7.3c-0.9,2.1-1.7,4.3-2.8,7.2
						c-1.2,3-2.4,6.3-3.8,8.8c-1.4,2.6-3.1,5.1-5.1,7.5c-4,4.8-8.8,9.1-14.4,13.5c-0.6,0.4-1.1,0.9-1.7,1.4l-0.8,0.7l-0.8,0.8
						c-1.1,1.1-2.2,2.3-3.2,3.5c-1,1.2-2,2.5-2.8,3.9l-1.3,2l-1.2,2.1c-3.2,5.7-5.7,11.8-8,18c-2.5,6.7-4.5,13.9-5.2,21.3
						c-0.1,1.9-0.2,3.7-0.3,5.6l0.1,2.8l0.1,1.4l0.1,1.4l0.3,2.8c0.1,1,0.3,1.8,0.4,2.6l0.5,2.6c0.2,0.8,0.4,1.7,0.6,2.5
						c3.9,14.2,7.8,27.6,13.6,39.4c1.4,2.9,2.9,5.7,4.3,8.5l2.1,4.1c0.1,0.2,0.2,0.3,0.3,0.4c0.1,0.1,0.2,0.3,0.3,0.4
						c0.3,0.4,0.7,0.9,0.9,1.4c0.2,0.5,0.4,1.1,0.2,1.6c-0.2,0.6-0.9,0.9-1.5,1c-0.7,0-1.3-0.1-1.9-0.3c-0.2-0.1-0.3-0.1-0.5-0.1
						l-0.1,0c0,0-0.1,0,0.2,0l-0.3,0c-0.4,0-0.9,0-1.3,0c-0.9,0-1.7,0-2.5,0.1c-3.2,0.2-5.8,0.6-7.8,0.8c-1,0.1-1.9,0.3-2.7,0.3
						l-0.5,0.1l-0.3,0c0,0,0,0-0.1,0l-0.2,0c-0.1,0-0.3,0-0.4-0.1c-1.1-0.2-2.1-0.3-3.2-0.4c-2.2-0.3-4.3-0.4-6.2-0.3
						c-1.9,0.1-3.8,0.3-5.5,0.7c-0.9,0.2-1.7,0.4-2.5,0.7c-0.8,0.3-1.6,0.5-2.4,0.9c-1.6,0.6-3.1,1.5-4.6,2.6c-3,2.1-5.5,5-7.2,8.2
						c-1.7,3.2-2.7,6.5-3.1,10.1c-0.2,1.8-0.3,3.7-0.2,5.7c0.1,1,0.1,2.1,0.2,3.1c0.2,1.1,0.3,2.1,0.5,3.2l0.2,1.2l0,0.3l0,0.2
						l0,0.1c0,0,0,0,0,0.1l0,0.5c0,0.1,0,0.1,0,0.1c0,0.1,0,0.2,0,0.2c0,0,0,0.1,0,0.1c-0.1,0,0.2,0,0.4,0.1l0.5,0.1
						c0.3,0,0.5,0.1,0.8,0.2c0.6,0.2,0.9,0.2,1.3,0.4l0.1,0.1l0.1,0l0.2,0.1c0.1,0,0.2,0.1,0.3,0.2c0.1,0.1,0.2,0.1-0.3-0.3
						c-0.1-0.1-0.2-0.2-0.3-0.3c-0.1-0.1-0.3-0.3-0.5-0.5l-1.9-2.3c0,0-0.1,0-0.1,0l-0.1,0l0,0l0,0l-0.1,0.1l-0.2,0.1l-1.2,0.8
						c-0.8,0.6-1.6,1.1-2.4,1.7c-0.8,0.6-1.5,1.3-2.3,1.9c-0.8,0.6-1.4,1.4-2.1,2.1c-2.7,2.9-5,6.2-6.6,10
						c-1.6,3.7-2.5,7.7-2.8,11.8c-0.1,1-0.1,1.9-0.2,2.9l-0.1,2l-0.1,2.7c-0.2,2.5-0.4,5.1-0.6,7.6c0,0.1,0,0.2,0,0.4
						c0,0.1,0,0.3,0.1,0.3c0.1,0.1,0.1,0.1,0.2,0.3c0.1,0.1,0.2,0.3,0.2,0.4c0.1,0.2,0.2,0.4,0.2,0.7c0.1,0.3,0.1,0.6,0.1,1.1
						c0,0.2-0.1,0.4-0.1,0.7l0,0.2l0,0.1l-0.1,0.1l-0.4,0.5c-0.4,0.7-1.2,1.5-1.8,2.4c-0.7,0.9-1.4,1.9-2,2.9
						c-1.3,2.1-1.4,5.4-0.9,8.2c-0.4-2.3,2.2-1.4,5-0.1c1.4,0.7,2.9,1.5,4.1,2c0.6,0.3,1.2,0.5,1.6,0.7c0.4,0.2,0.7,0.3,0.9,0.3
						c5.5,1.1,11.9-1.5,16.5-6.1c1.2-1.1,2.2-2.3,3.3-3.6c0.6-0.6,1-1.3,1.4-1.9c0.5-0.6,0.9-1.3,1.4-2c0.8-1.3,1.5-2.5,2.3-3.8
						c0.7-1.3,1.3-2.5,1.9-3.8c0.3-0.7,0.6-1.3,0.8-1.9c0.3-0.6,0.5-1.3,0.7-1.9c0.2-0.7,0.5-1.3,0.7-2c0.2-0.7,0.4-1.5,0.6-2.2
						c0.1-0.7,0.3-1.3,0.4-2c0.1-0.6,0.2-1.1,0.4-1.7c0.1-0.5,0.2-1.2,0.3-1.2c0-0.1,0.1-0.2,0.1-0.2c0-0.1,0.1-0.1,0.1-0.1
						c0.6-0.7,1.4-0.9,1.9-0.9l0,0l0,0c0,0,0,0,0,0l0.2-0.1l1.6-1.2c0.5-0.3,1.2-0.9,1.7-1.4c0.6-0.5,1.2-1,1.7-1.7
						c2.3-2.3,4.3-5.2,5.8-8.1c0.8-1.5,1.3-3,1.9-4.5c0.5-1.5,0.9-3,1.1-4.4c0.1-0.7,0.3-1.4,0.3-2.1c0.1-0.7,0.2-1.4,0.2-2l0.1-2
						l0-0.1l0,0c0,0,0,0,0,0.1l0,0.4c0,0.1,0,0.1,0,0.1l0,0l0,0l0,0l0,0l0,0c0-0.2-0.1-0.4,0-0.6c0-0.2,0.2-0.4,0.5-0.4
						c0.1,0,0.2,0,0.3,0c0.1,0,0.1,0,0.2,0c0,0,0,0,0,0l0.6,0l1.1-0.1l2-0.2l6.1-0.9c0.8-0.1,1.4-0.2,1.9-0.2l0.7,0l0.1,0l0,0l0.4,0
						l0.8,0l1.5,0.1c4.1,0.3,8.2,0.5,11.9,0.2c3.8-0.4,7.2-1.3,10.4-2.6c0.8-0.3,1.6-0.7,2.3-1.1c0.7-0.4,1.5-0.8,2.2-1.3
						c0.4-0.2,0.7-0.4,1.1-0.7l1-0.8c0.7-0.5,1.4-1.1,2-1.6c2.6-2.3,4.8-5.2,6.4-8.3c0.9-1.9,1.7-3.8,2.2-5.8c0.5-2,0.9-4.1,1-6.2
						l0.1-1.6l0-1.6c0-1.1-0.1-2.2-0.2-3.3c-0.3-2.2-0.7-4.5-1.3-6.8c-0.8-2.3-1.6-4.7-2.4-7c-0.9-2.3-1.9-4.5-2.8-6.8l-1.7-4.1
						L442.4,317.7z"/>
				</g>
			</g>
		</g>
	</g>
</g>
</svg>
