<?xml version="1.0" encoding="utf-8"?>
<!-- Generator: Adobe Illustrator 21.0.0, SVG Export Plug-In . SVG Version: 6.00 Build 0)  -->
<svg version="1.1" id="Layer_1" xmlns="http://www.w3.org/2000/svg" xmlns:xlink="http://www.w3.org/1999/xlink" x="0px" y="0px"
	 viewBox="0 0 450 450" style="enable-background:new 0 0 450 450;" xml:space="preserve">
<path d="M252,193.1c6.9-79.5,40.1-148.7,87.9-192.5h87.7c-47.9,43.9-75.5,113-81.1,192.5h70.7v79.4h-69
	c8.4,73.2,36.1,136.3,81.5,176.8h-87.7c-45.4-40.6-77.9-103.6-88-176.8h-57.9c-10.1,73.2-42.6,136.3-88,176.8H20.3
	c45.4-40.6,73.1-103.6,81.5-176.8H27v-79.4h76.4C97.8,113.6,70.2,44.5,22.4,0.6h87.8c47.9,43.9,81,113,87.9,192.5L252,193.1
	L252,193.1z"/>
</svg>
