<?xml version="1.0" encoding="utf-8"?>
<!-- Generator: Adobe Illustrator 22.1.0, SVG Export Plug-In . SVG Version: 6.00 Build 0)  -->
<svg version="1.1" id="Layer_1" xmlns="http://www.w3.org/2000/svg" xmlns:xlink="http://www.w3.org/1999/xlink" x="0px" y="0px"
	 viewBox="0 0 500 500" style="enable-background:new 0 0 500 500;" xml:space="preserve">
<style type="text/css">
	.st0{fill:#231F20;}
</style>
<g>
	<g>
		<g>
			<path class="st0" d="M182.6,366.6l-0.6-0.1C182.3,366.6,182.5,366.7,182.6,366.6z"/>
			<path class="st0" d="M263.6,373.6l-0.1,0.4C263.6,373.8,263.6,373.7,263.6,373.6z"/>
			<path class="st0" d="M277.7,337.4l0.4-0.1C278,337.3,277.8,337.3,277.7,337.4z"/>
			<g>
				<path class="st0" d="M247.7,337c-13.5-0.4-26.9-0.5-40.4-0.3c-3.5,0-7,0.1-10.5,0.1c-3.5,0-7-0.1-10.6-0.2
					c-7-0.4-14.1-1.1-21-2.9c-1.8-0.5-3.7-0.9-5.5-1.5c-1.8-0.5-3.6-1-5.4-1.6c-3.6-1.1-7.2-2.3-10.7-3.5c-3.6-1.2-7.1-2.5-10.6-3.7
					c-3.5-1.3-7.1-2.6-10.6-3.9c-7.2-2.6-14-5.8-20.5-9.5c-6.5-3.7-12.8-7.8-18.8-12.3c-5.8-4.4-12-8.3-17.8-12.6
					c-5.8-4.4-11.4-9.1-15.9-14.9c-1.2-1.6-2.3-3.1-3.4-4.7c-1.1-1.6-2.1-3.2-3.2-4.8c-0.5-0.8-2.6-2.7-4.9-4.6
					c-2.2-1.9-4.5-3.8-5.5-4.3c-0.9-0.4,0.5,5.5,1,7.2c1.5,5.4,4.7,13.5,7.1,17.2c4.6,7.5,7,11,13.3,17.4
					c6.6,6.6,13.5,12.7,20.6,18.5c7.1,5.9,14.4,11.6,21.7,17.5c6,4.8,12.8,8.5,19.9,11.7c7.1,3.2,14.3,6.1,21.3,9.2
					c15.1,6.9,30.7,13.5,47.2,16.6c8.8,1.6,17.5,3.5,26.4,4.9c8.8,1.4,17.7,2.6,26.7,2.8c8.8,0.1,17.7-0.1,26.5-0.7
					c8.8-0.6,17.6-1.4,26.3-2.5c10.2-1.2,20.4-2.6,30.6-4.4c25.7-4.6,50.4-13.7,74.1-24.9c10.7-5.1,21.5-10,31.8-15.8
					c10.4-5.8,20.4-12.6,29.2-21.2c4.7-4.5,10-10.1,14.3-16.1c2.1-3.1,4-6.2,5.3-9.6c0.7-1.6,1.2-3.3,1.6-4.9
					c0.4-1.7,0.6-3.3,0.7-4.9c0.1-3.2-2-5.7-4.3-7.4c1.9,1.4-1.2,3.3-4.8,4.8c-3.7,1.5-7.9,2.4-8.3,2.7c-2.9,1.2-5.6,2.7-8.3,4.3
					c-2.7,1.5-5.3,3.2-8.1,4.4c-1.3,0.6-2.7,1.2-4,1.8c-1.3,0.6-2.7,1.1-4,1.6c-1.3,0.5-2.6,1-4,1.5c-1.3,0.5-2.6,1-4,1.5
					c-5.2,2-10.4,4-15.4,6.9c-10.6,6-21.2,11.7-32.1,16.9c-10.9,5.2-22.1,9.9-33.7,13.8c-19.7,6.6-40.2,11.6-61,13.7
					C273.6,337.4,260.6,337.4,247.7,337z"/>
			</g>
		</g>
	</g>
</g>
<g>
	<g>
		<g>
			<path class="st0" d="M207.8,171.4l-0.5,0.1C207.6,171.5,207.7,171.5,207.8,171.4z"/>
			<path class="st0" d="M277.4,170.8l-0.2,0.4C277.4,171,277.4,170.9,277.4,170.8z"/>
			<path class="st0" d="M297.1,137.6l0.5,0C297.3,137.6,297.2,137.6,297.1,137.6z"/>
			<g>
				<path class="st0" d="M265.5,132.9c-14.3-1-28.8,0-42.8,3.1c-14.4,3.2-28.1,8.3-42.3,11.6c-15,3.4-29.8,7.5-43.8,14
					c-14,6.6-27.7,12.4-41.4,19.5c-6.6,3.4-12.7,7.8-18.6,12.3c-5.9,4.5-11.7,9-18,13.1c-3.3,2.1-6.8,4.2-10.1,6.4
					c-0.8,0.5-2.8,2.8-4.5,5.3c-1.8,2.5-3.4,5.1-3.7,6.1c-0.3,0.9,5.5-1.3,7-1.9c2.6-1,5.8-2.2,8.8-3.4c3-1.2,5.9-2.3,7.7-3.2
					c3.7-1.8,6.4-3,9.1-4.4c1.3-0.7,2.7-1.3,4.1-2.1c1.4-0.8,3-1.6,4.8-2.6c14.7-8.3,29.6-15.5,46-19c6.6-1.4,12.9-3.7,19.4-5.9
					c3.2-1.1,6.4-2.2,9.7-3.2c3.2-1,6.5-1.8,9.8-2.4c14.3-2.5,28.7-3,42.9-5c7.6-0.9,15.2-1.2,22.9-1.1c7.6,0,15.2,0.5,22.9,0.5
					c15,0.1,30.1,0.6,45,3.2c4.3,0.7,8.7,1.6,13,2.6c4.3,1.1,8.5,2.1,12.7,3.4c10.6,3.1,21.2,6.5,31.5,10.3
					c10.4,3.8,20.5,8.2,30.2,13.4c8.8,4.7,16.7,10.5,24.3,16.6c7.6,6.1,14.9,12.4,22.7,18.3c4.1,3.2,8.8,7.1,13.6,10.5
					c1.2,0.9,2.5,1.7,3.8,2.4c1.3,0.8,2.5,1.5,3.9,2.2c2.7,1.3,5.4,2.3,8.2,2.8c2.8,0.5,5.8-1,8-2.9c-1.8,1.5-2.8-1.6-3.4-5.3
					c-0.3-1.9-0.6-3.8-0.8-5.3c-0.2-1.6-0.3-2.7-0.4-3c-1.7-5.9-5.2-11.1-8.2-16.6c-5.9-10.5-11-20.9-20.7-29.2
					c-10.1-8.6-21.1-15.8-32.6-22.1c-11.5-6.2-23.6-11.5-35.8-16.1c-10.4-4-21.1-7.3-31.8-10.1c-10.8-2.8-21.6-5.1-32.6-7.1
					C292.9,136.2,279.2,133.9,265.5,132.9z"/>
			</g>
		</g>
	</g>
</g>
<g>
	<g>
		<g>
			<path class="st0" d="M303,253.3l0-0.3C303,253.1,303,253.2,303,253.3z"/>
			<path class="st0" d="M277.5,292.2l-0.1-0.3C277.4,292.1,277.5,292.2,277.5,292.2z"/>
			<path class="st0" d="M278.7,323.1c-0.1,0.1-0.3,0.1-0.4,0.2C278.5,323.2,278.6,323.1,278.7,323.1z"/>
			<g>
				<path class="st0" d="M305,308.2c10.2-9,17.6-21.1,20.6-34.2c0.4-1.7,0.7-3.4,1-5.1c0.2-1.7,0.5-3.4,0.6-5.1
					c0.3-3.4,0.3-6.8,0.1-10.2c-0.2-3.4-0.6-6.8-1.1-10.1c-0.6-3.3-1.3-6.6-2.2-9.9c-0.2-0.9-0.5-1.7-0.8-2.6
					c-0.3-0.9-0.5-1.7-0.8-2.5l-0.9-2.5l-1-2.3c-0.6-1.6-1.4-3.1-2.2-4.6c-0.8-1.5-1.6-3-2.5-4.4c-3.4-5.8-7.7-11.1-12.7-15.7
					c-2.5-2.3-5.1-4.4-7.8-6.4c-2.7-2-5.5-3.9-8.3-5.6c-2.9-1.7-5.9-3.3-9.1-4.6c-3.2-1.3-6.6-2.4-10.1-3.1
					c-4.9-1-10.1-0.9-15.1,0.2c-5,1.1-9.8,3.4-13.8,6.2c-0.2,0.1-0.4,0.3-0.6,0.4c-0.2,0.1-0.5,0.3-0.8,0.4
					c-0.6,0.3-1.3,0.6-2.1,0.9c-1.5,0.6-3.2,1.2-5,1.9c-3.3,1.2-6.8,2.7-10.2,5.2c-0.4,0.3-1.1,1-1.9,2.1c-0.4,0.5-0.8,1.1-1.2,1.8
					c-0.4,0.6-0.7,1.4-1.1,2.1c-0.2,0.4-0.3,0.7-0.5,1.1c-0.1,0.4-0.3,0.7-0.4,1.1c-0.2,0.7-0.5,1.4-0.6,2c-0.2,1.3-0.3,2.3-0.3,2.8
					c0,0.5,1-0.5,2.1-1.6c0.5-0.6,1.2-1.1,1.7-1.6c0.5-0.5,1-0.9,1.3-1.1c1.9-1.6,4.6-2.9,7.1-3.8c2.5-0.9,4.8-1.4,6.4-1.8
					c2.2-0.6,4-0.9,5.8-1.3c0.9-0.2,1.8-0.4,2.7-0.7c0.5-0.1,1-0.3,1.5-0.5c0.5-0.2,1-0.5,1.6-0.7c0.5-0.2,1.2-0.5,1.8-0.8
					c0.7-0.2,1.5-0.6,2.3-0.9c5.7-2,11.9-1.8,17.6-0.1c5.7,1.8,11,5.2,15.2,9.6c1.7,1.8,3.4,3.6,5.1,5.3c1.7,1.8,3.4,3.6,5.1,5.5
					c3.3,3.8,6.3,7.9,8.2,12.5c1,2.5,1.9,5,2.5,7.6c0.6,2.4,1,4.7,1.2,7.1c0.2,2.4,0.2,4.7,0.1,7.1c-0.1,2.4-0.3,4.7-0.6,7.1
					c-0.7,5.1-2.6,10-5.2,14.6c-1.3,2.3-2.7,4.5-4.3,6.6c-1.6,2.1-3.2,4.2-4.9,6.1c-6.7,7.9-15.3,14.2-25.2,16.6
					c-5.8,1.5-12.1,1.8-18.1,1.1c-7.6-0.9-15-3.1-21.4-6.6c-6.4-3.5-11.6-8.5-15.1-14.6c-0.4-0.7-0.7-1.4-1.1-2.1
					c-0.2-0.3-0.4-0.8-0.5-1.2c-0.2-0.4-0.4-0.9-0.5-1.3c-0.7-1.8-1.3-3.5-1.9-5.3c-1.1-3.6-1.9-7.2-2.5-10.7
					c-0.6-3.5-0.9-7-1.1-10.4c-0.2-3.4-0.2-6.6-0.2-9.7c0-1.6,0.2-3.4,0.4-5.1c0.2-1.7,0.6-3.5,0.8-5.2c0.3-1.7,0.6-3.5,0.8-5.3
					c0.2-1.9,0.4-3.8,0.3-5.9c0-2-1.4-4.3-3-6c1.3,1.4-1,2.1-3.8,3.1c-2.7,0.9-6,2.1-6.3,2.4c-2.2,1.4-4,3.3-5.7,5.4
					c-1.6,2.1-3,4.5-4.4,6.9c-2.6,4.6-4.8,9.5-6.2,14.5c-1.4,5.1-2.1,10.5-1.5,16c0.6,5.8,1.9,11.5,3.6,16.9c0.9,2.7,1.8,5.4,2.9,8
					c0.5,1.3,1.1,2.6,1.7,3.9l0.4,1l0.2,0.5l0.3,0.5l1.1,2.2c3,5.7,7,11,11.6,15.6c4.6,4.5,9.8,8.5,15.3,11.6
					c9.4,5.3,19.7,8.4,30,9.5c10.4,1.2,20.8,0.5,31.1-2c6.1-1.5,12.4-3.8,18.2-6.7C294.6,316.2,300.1,312.5,305,308.2z"/>
			</g>
		</g>
	</g>
</g>
<g>
	<g>
		<g>
			<path class="st0" d="M203.8,320.1l-0.5,0.4C203.6,320.4,203.7,320.3,203.8,320.1z"/>
			<path class="st0" d="M270.3,261.1l0.1,0.4C270.4,261.3,270.3,261.2,270.3,261.1z"/>
			<path class="st0" d="M259.8,222.6l0.3-0.4C260,222.4,259.9,222.5,259.8,222.6z"/>
			<g>
				<path class="st0" d="M232.3,245.9c-6,5.4-12,10.9-17.7,16.7c-5.7,5.7-11.2,11.6-16.6,17.7c-5.5,6.3-10.8,12.7-16.3,19
					c-5.5,6.3-11.2,12.4-17.5,17.9c-13.3,11.8-26.9,23-39.8,35.3c-12.9,12.4-26.7,23-40.9,33.9c-13.7,10.5-25.5,23.3-39.9,32.8
					c-3.9,2.5-7.8,4.8-11.8,7.3c-1.9,1.2-9.7,9.7-10.9,11.9c-0.5,1,6.2-1.1,8.1-1.8c6.1-2,15.2-5.5,19.5-7.8
					c8.8-4.5,12.8-6.8,21.1-12.4c17.1-11.8,33.3-23.7,51.3-34c14.6-8.3,26.9-20.8,40.6-30.6c14.8-10.7,30.1-20.7,43.8-32.9
					c14.6-12.9,30.5-24.3,44.7-37.7c14-13.2,27.5-26.8,41.5-40.1l12.3-11.5l12.4-11.4c20.9-19.2,40.3-39.8,60.2-60
					c18-18.2,37.8-33.8,54.3-53.6c8.7-10.5,21-24.3,23-37.9c0.5-3.3-1.4-6.1-3.5-8c3.5,3.1-13.7,7.7-14.8,8.2
					c-6.5,3-12.2,7.5-18.2,11.3c-11.7,7.4-23.3,12.8-33.8,22.3c-21.9,20-41.8,41.3-62.7,62.2c-17.8,17.8-35.4,35.6-53.9,52.7
					C255.9,225.6,244,235.6,232.3,245.9z"/>
			</g>
		</g>
	</g>
</g>
</svg>
