<?xml version="1.0" encoding="utf-8"?>
<!-- Generator: Adobe Illustrator 22.1.0, SVG Export Plug-In . SVG Version: 6.00 Build 0)  -->
<svg version="1.1" id="svg" xmlns="http://www.w3.org/2000/svg" xmlns:xlink="http://www.w3.org/1999/xlink" x="0px" y="0px"
	 viewBox="0 0 410 410" style="enable-background:new 0 0 410 410;" xml:space="preserve">
<g id="svgg">
	<path id="path0" d="M325.7,39.8c-0.2,0.2-6.1,1.8-14.4,3.8c-4.2,1-9.3,2.4-11.3,3.1c-4.9,1.6-6.5,2-8.7,2.4c-1,0.2-2.8,0.7-4,1.2
		c-4.4,1.7-3.7,2.1,1.6,1c1.6-0.4,3.7-0.7,4.5-0.8c0.8-0.1,2.5-0.4,3.9-0.7c1.3-0.3,4.5-0.9,7.1-1.4c2.6-0.5,7.2-1.5,10.4-2.1
		c10-2.1,10-2.1,8.2,2c-0.8,1.8-1.1,2.8-1,3.6c0.1,1.6-0.2,2.3-1.2,2.6c-0.5,0.2-1.6,0.8-2.4,1.5c-0.8,0.6-1.5,1.2-1.5,1.2
		c-0.1,0-0.6,0.4-1.2,0.9c-6.6,5.8-17.6,13.8-22.5,16.3c-0.4,0.2-1.7,1.1-3,2c-3.8,2.8-13.5,8-16.9,9c-3.7,1.1-7.6,2.9-7.6,3.5
		c0,0.1-0.1,0.2-0.3,0.2c-0.2-0.1-0.8,0.2-1.5,0.5c-1.5,0.8-1.6,0.7-0.5-0.7c1.7-2.2,6.5-5.4,12.3-8.3l3.9-2l0-3.8
		c0-9,0.5-14.2,1.3-13.4c0.2,0.2,0.9,10,0.9,13.1c0,2.9,0,2.9,1.3,2.2c0.5-0.3,1-0.6,1-0.6c0,0-0.1-1.3-0.3-3
		c-1.3-10.4-1.5-12.2-1.1-12.6c0.6-0.6,2.2,5.5,3.1,12c0.2,1.3,0.4,2.3,0.5,2.3c0.4-0.2,6.9-6.5,6.9-6.8c0-0.3-2.9-3.5-6.1-6.7
		c-2.3-2.3-2.9-3.3-2.2-3.3c0.9,0,6.7,4.3,8.7,6.6l1.6,1.8l1.7-1.5c2.2-1.9,2.2-1.7-0.5-2.9c-1.2-0.6-3.9-1.8-6.1-2.8
		c-2.1-1-4.8-2.2-5.9-2.8c-2.5-1.2-4.4-1.3-4.7-0.3c-0.3,0.7-2.1,4-5.2,9.3c-9.8,16.9-14.6,26.5-13.5,27.2c0.1,0.1,0.2,0.5,0.1,0.9
		c-0.1,0.6,0,0.9,0.4,1.1c0.3,0.2,1.1,1,1.7,1.9c3.5,5.1,7.5,9.6,11.2,12.3l1.6,1.2l1-0.4c0.5-0.2,2.6-0.6,4.6-0.8
		c7.7-0.8,7.5-0.8,15.6,0c2.1,0.2,2.3-0.3,0.4-0.6c-0.6-0.1-1.3-0.3-1.4-0.4c-0.5-0.4-2.9-0.8-6.8-1.1c-2.1-0.2-3.9-0.3-3.9-0.4
		c0,0,1.9-0.7,4.2-1.5l4.2-1.4l0.2-1.7c0.2-1.8,0-4.6-0.4-6.1c-0.1-0.5-0.5-2-0.8-3.4c-0.7-3.2-2.5-9.1-3.3-10.7
		c-0.8-1.6-0.8-1.9-0.1-1.5c0.5,0.3,0.7,0.2,1.2-0.5c0.3-0.4,0.6-0.6,0.6-0.4c0,0.2-0.1,0.3-0.3,0.3c-1,0,0.6,3.5,2.3,5.1
		c0.4,0.4,1.9,2.5,3.4,4.7c3.5,5.2,6.2,8.9,6.7,9.1c0.4,0.2,1.9-0.7,5.9-3.5c0.3-0.2,0.7-0.4,0.8-0.4c0.3,0,2.3-1.1,2.2-1.2
		c-0.1,0-1.1-0.5-2.2-0.9c-5.6-2.2-15.6-10-15.6-12.2c0-0.7,0.5-0.4,3.2,1.9c3.2,2.6,8.2,5.3,11.9,6.3c2.7,0.7,7.6,0.6,8.5-0.2
		c3.4-2.8,6.1-4.8,8.9-6.6c5.3-3.5,7.5-5.3,7.3-6.2c-0.4-1.5-3.4-8.7-3.7-9.1c-1.6-1.5-5.7-8.8-5.7-10.1c0-1.3,3.2-10.2,3.6-10
		c3.3,1.9,7.4,9.4,9.1,16.9l0.7,3.2l0.6-3.3c1.1-5.8,1.1-5.4-0.3-7.4c-0.7-1-2.3-3.2-3.5-5.1c-1.2-1.8-3-4.2-3.9-5.2
		c-1-1-2.4-2.8-3.2-3.8C326.4,39.8,326.1,39.5,325.7,39.8 M162.3,55c-3.4,0.6-12.4,4.1-14.8,5.7c-6.2,4.2-9.6,10.7-10.6,20.4
		c-1.2,11-0.6,17.1,2.3,23.7c2.9,6.7,3.2,7.4,3.5,9.7c0.1,1.3,0.6,3.7,0.9,5.4c0.4,1.7,0.8,3.7,0.9,4.4c0.8,4.1,4.8,9.7,7.9,11.2
		c4.4,2.1,8.2,2.7,11.1,1.9c0.7-0.2,1.4-0.3,1.5-0.3c0.8,0.5,5.7-1.5,6.3-2.6c1.7-3.3-0.6-7.3-5-8.7c-2.1-0.6-1.8-1,1-1.4
		c2.5-0.4,4.9-1.1,6.7-2.1c2.5-1.4,1.3,0.7-1.9,3.1c-1.3,1-1.2,1.2,0.8,3.2c4.7,4.5,8.9,4.5,16.9,0c0.8-0.5,2.1-1.1,2.9-1.5
		c3.3-1.5,7.6-4,9.3-5.4c9.3-7.8,9.8-14.9,1.7-23.6c-2.5-2.6-3.2-3.8-3.7-5.7c-0.3-1.3,0-1.9,0.6-1.1c0.5,0.6,1.2,0.1,1.2-0.8
		c0-0.9-0.9-2.7-1.6-3.2c-0.6-0.5-2.3-2.5-2.5-3.2c-0.5-1.4,1.2-1.6,2-0.3c0.6,1.1,1,1,1-0.2c0-1-0.8-2.2-1.7-2.4
		c-0.6-0.2-0.6-0.2,0.1-0.5c1.5-0.8,2.6,0.2,2.6,2.4c0,1.9,0.8,5.9,1.8,8.8c1.1,3.1,0.9,3.3-0.9,1.7c-1.3-1.1-1.6-0.9-0.9,0.5
		c0.7,1.5,1.5,2,2.6,1.8c1.1-0.2,1.3-1.2,0.7-2.5c-1.4-2.9-1.7-4.5-1.7-8.2c0-5.9-2.7-8.3-5.5-5l-0.6,0.7l-0.2-1.8
		c-0.2-2.7-2.8-8.9-5.4-12.9c-2.3-3.6-4.2-5.2-8.1-7.2c-1.8-0.9-3.6-1.9-3.9-2.2C177.8,55.1,167.8,54,162.3,55 M177.3,73.3
		c0.6,0.2,1.3,0.6,1.7,0.9l0.7,0.6l-2.3,0.2c-3.9,0.3-7.9,2.6-9.9,5.7c-0.6,0.9-2,1.9-2.7,1.9c-0.2,0-0.6-0.6-0.9-1.2l-0.5-1.2
		l0.6-0.8c0.3-0.4,0.8-1,1-1.3C167.3,75.1,174.2,72.4,177.3,73.3 M391.5,76.5c-1,0.4-3,1.3-4.4,1.9c-1.4,0.6-4.8,2.1-7.5,3.4
		c-2.7,1.3-6.3,2.9-8,3.5c-7.6,2.9-10.4,4.4-9.5,5c3.2,2,7.4,6.6,7.4,8.2c0,0.9-0.1,0.8-2-0.9c-2.2-2-3.6-2.7-5.7-2.7
		c-2.4,0-2.8,1.3-0.7,1.9c4.5,1.1,8.6,5,10.9,10.3c1.9,4.5,3.4,0.9,1.8-4.5c-0.7-2.4-0.2-5.2,1.4-8.6c0.8-1.7,12.3-12.9,12.3-12
		c0,0.4-3.1,7-6,12.9c-3.2,6.3-3.7,7.8-2.7,7.5c0.6-0.2,7.1-11.3,10.7-18.5c2-4,3.8-7.3,3.9-7.5C394.4,75.5,393.8,75.5,391.5,76.5
		 M159.2,84.1c2.2,2.4,5.6,2.1,9.6-1c0.7-0.5,1.4-1,1.5-1s0.8-0.5,1.5-1.2c2.6-2.4,5-2.9,7.9-1.6c1.9,0.9,2.5,1.8,0.9,1.4
		c-1.3-0.4-2.7-0.3-3.3,0.1c-0.6,0.5-0.2,0.9,0.9,0.9c1.5,0,7.6,2.5,9.7,4.1c1,0.7,0.8,0.8-0.4,0.4c-0.5-0.2-1.9-0.5-3-0.7
		c-1.2-0.2-2.7-0.5-3.4-0.7c-0.7-0.2-1.9-0.4-2.5-0.4h-1.2l1.7,0.9c2.3,1.2,2.4,1.5,1.6,3.1c-1.8,3.3-8.7,5-15.1,3.7
		c-2.5-0.5-3.7-0.5-5.7,0.2c-3.2,1-3.6,2.5-0.6,2.2c1.6-0.2,1.7,0,0.7,1c-0.8,0.9-0.7,1.2,0.3,0.7c1.7-0.8,2,0.5,0.4,1.5
		c-1.1,0.7-1.1,0.8-1.2,2.4c-0.3,5.3,4.6,9.1,5.8,4.5c0.2-0.6,0.4-1.3,0.4-1.5c0.1-0.3,0.3-0.1,0.9,0.6c0.9,1.1,1.7,1.3,2.6,0.5
		c1.1-1,0.8-1.7-1.8-3.8c-1.1-0.9-1.2-2.2-0.2-2.6c3.7-1.4,8-0.4,13.2,3.3c3.7,2.6,10-3,10-9c0-2.5,0.4-2.2,1.4,0.9l0.7,2.3
		l-0.5,3.9c-1.2,10.3-1.2,9.9,0.9,15.1c1.8,4.5,1.3,8.8-1.3,11.2c-1.7,1.5-1.9,1.5-1.2-0.1c1.4-3.1,0.9-6.1-1.2-7.9
		c-1.9-1.6-6.2-5.9-10.4-10.3c-3.8-4.1-6.4-6.1-8-6.1c-0.7,0-0.7,0-0.2,0.5c1.3,1.3,0.8,3.2-1.6,5.7c-1.1,1.1-1.3,1.3-1.8,1
		c-0.8-0.5-1.3-0.1-1.5,1.1c-0.2,1.5-0.2,1.5-2.3,1.4c-3.4-0.1-6.1,3.5-6.1,8.2c0,1.9,0.3,1.8,1.3-0.5c1.4-2.9,5.3-6.5,7.2-6.5
		c0.2,0,1.4-1.1,2.8-2.4c4.1-4,6.3-4.3,9.7-1.2c1.2,1.1,5.7,8.1,5.9,9.3c0.3,1.4,0.3,4,0,5.4l-0.2,1.1l-0.3-1.2
		c-0.6-2.1-0.9-3-1.2-3.7c-0.2-0.4-0.4-1-0.5-1.4c-0.4-1.6-4.6-4.6-7.4-5.1c-1.4-0.3-2.9,0.5-4.9,2.4c-0.9,0.9-1.7,1.5-1.8,1.5
		c-0.5-0.5-4,0.8-4.9,1.9c-1.8,1.9-4.9,8.2-4.9,9.8c0,0.5-0.1,0.7-0.3,0.6c-1.9-0.7-3.2-10.8-1.8-14.7c0.7-1.9,0.7-1.9,0.3-1.9
		c-1.5,0-2.6,9.5-1.6,13.9c0.5,2.1,0.8,2.8,2,4.7l0.5,0.8l-0.8-0.6c-5.3-3.8-6.4-10.9-2.8-19c1.4-3.2,1.5-4.3,0.8-7.5
		c-0.4-1.8-0.4-2.1,0-3.9c0.4-1.7,0.4-2,0-2.9c-0.5-1.3-0.6-1.3-2.3,0.4c-3.3,3.2-7.2,3.9-9.5,1.7c-1-1,1.9-4.4,4.3-5.1
		c1.5-0.4,2.1-0.9,1.8-1.4c-0.8-1.2-5.5,0.8-7.6,3.3c-1.5,1.8-0.1-2.5,1.6-4.9c2-2.8,8.2-3.6,10.6-1.3c0.3,0.3,0.6,0.5,0.7,0.4
		c0.2-0.2-0.5-4.6-1-6.8c-0.6-2.6-0.4-2.5,0.9,0.3c1.8,3.8,2.6,4.8,3.6,4.2c0.4-0.3,0.1-1.8-1.2-5.4c-2-5.5-1.8-7.1,0.4-3
		C157.4,81.6,158.6,83.4,159.2,84.1 M335.6,84.8c-1,1.4,2.7,8.2,6.8,12.8c1.6,1.8,1.5,1.7,2.5,0.9l0.8-0.7l-1.2-1.3
		c-2.3-2.4-6-7.7-7.2-10.4C336.3,84.2,336.1,84,335.6,84.8 M170.8,87c-2.5,0.9-2.2,1.8,0.4,1.7l1.7-0.1v-0.9
		C172.9,86.6,172.4,86.4,170.8,87 M176.1,87.2c-0.2,0.8,0.5,1.4,1.3,1c0.3-0.1,0.5-0.4,0.5-0.5C177.8,86.5,176.4,86.1,176.1,87.2
		 M332.9,88.5c-0.5,0.8-0.2,2,0.9,4c0.6,1,4.7,7.3,5.6,8.6c0.2,0.2,2.4-0.9,2.4-1.2c0-0.1-1.4-2.1-3.2-4.4c-1.8-2.3-3.5-5-3.9-5.9
		C333.9,87.8,333.5,87.6,332.9,88.5 M146.4,96.6c-1.9,1.2-1.7,2.5,0.4,2.1c1.7-0.3,2.1-0.7,1.8-1.8
		C148.2,95.8,147.8,95.8,146.4,96.6 M350.6,97.1c0,0.3-0.2,1-0.5,1.4c-1,1.5-0.1,2.1,1.1,0.9l0.6-0.6l0.4,0.6c0.8,1.2,1.7,2.1,1.9,2
		c0.3-0.2-2.7-4.9-3.1-4.9C350.8,96.5,350.6,96.7,350.6,97.1 M317.5,99.5l-0.7,0.6l1.4,1.1c1.6,1.2,4.7,4.9,6.5,7.6
		c1.3,2,1.4,2,2,1.4c0.4-0.4,0.3-0.6-1-2.2c-0.8-1-2.7-3.4-4.3-5.4C318.3,98.5,318.5,98.7,317.5,99.5 M359.3,100.1
		c-0.3,0.3-0.2,0.6,1.4,2.1c0.9,0.9,1.8,1.9,2,2.3c1,1.9,3,3.4,3,2.2C365.8,104.1,360.6,98.8,359.3,100.1 M311.1,103.2
		c-2.4,1.3-2.4,1.3,0.6,3.6c2.4,1.8,6.6,5.8,7.5,7.3l0.5,0.7l1.4-0.8c0.8-0.4,1.4-0.9,1.5-1.1c0.3-0.8-5-7.5-7.5-9.5
		C313.3,102,313.3,102,311.1,103.2 M157.1,104.1c-0.4,2.4,0.5,4.4,2,4.6c1.6,0.2,1.7-0.1,0.6-1.6c-0.6-0.8-1.3-2-1.5-2.7
		C157.7,102.9,157.4,102.8,157.1,104.1 M353.1,105.4c-1.5,0.8-3,1.7-3.4,2c-0.4,0.3-1.4,0.9-2.3,1.4c-0.9,0.5-2.9,1.7-4.5,2.7
		c-1.6,1-3.3,1.9-3.8,2c-1.7,0.5-5.3,2.3-7,3.3c-0.9,0.6-2,1-2.4,1c-1.3,0-1.8,0.7-2.5,3.5c-1.3,4.7-1.2,5.3,0.8,7.9
		c0.5,0.6,1.7,2.3,2.7,3.7c3.1,4.6,3.3,4.8,3.9,4.2c0.4-0.4,0.6-0.4,0.7-0.1c0.2,0.2,0.3,0.2,0.7-0.2c0.5-0.6-1.7-4.2-4.5-7.6
		l-1.1-1.3l0.6-2.7c0.3-1.5,0.6-3,0.7-3.3c0.2-0.9,2.8-3,4.8-4c1.1-0.5,3-1.6,4.4-2.4c1.4-0.8,3.3-2,4.3-2.6s3.1-1.9,4.5-2.8
		c5.1-3.4,5.9-3.8,7.1-3.6c1,0.2,1,0.1,1-0.6c0-0.4,0.2-0.8,0.3-0.9c0.3-0.1,0.3-0.2,0-0.6C357.6,103.5,356,103.8,353.1,105.4
		 M338.6,106.9c-1.5,1.1-4.6,3-6.9,4.4c-2.3,1.4-4.6,2.9-5.3,3.3c-0.6,0.4-2.5,1.5-4,2.3c-1.6,0.8-3,1.6-3.2,1.8
		c-2.3,2-5.7,2.4-7.4,0.9c-1.4-1.3-2.1,1.9-0.8,4.1c1.2,2,5.9,8.5,6.3,8.6c0.9,0.4,0.8-0.6-0.2-2.2c-2.1-3.3-3.5-6.4-2.8-6.2
		c0.3,0.1,0.9,0,1.1-0.2c0.5-0.2,0.6-0.1,1.1,1c1,2.1,3.5,6.2,3.7,6.2c0.1,0,0.8-0.2,1.4-0.5l1.2-0.5l-0.8-1.6
		c-1.5-2.9-1.6-6.5-0.3-8.1c0.4-0.5,0.7-0.9,0.7-1c0-0.1,3.1-2.3,7.1-5.1c7.8-5.4,12.7-9.1,12-9.1
		C341.4,105,340.1,105.9,338.6,106.9 M304,106.6c-1.2,0.7-0.6,2.1,1.2,2.9c1.2,0.6,1.7,1,1.7,1.3c0,0.3,1.5,1.9,3.2,3.6
		c3.6,3.4,4,3.6,6,2.7l0.9-0.4l-1.8-1.8c-1-1-2.8-2.7-4.1-3.8c-1.2-1.1-2.9-2.5-3.8-3.3C305.9,106.3,304.9,106,304,106.6
		 M360.6,107.3c-0.3,0.3-0.2,0.5,0.9,2l1.1,1.4l-0.8,1.5c-0.4,0.8-1.3,2.2-2,3.2c-0.7,0.9-1.9,2.8-2.8,4.1c-0.9,1.3-2.2,3.3-3,4.3
		c-1.2,1.6-1.9,2.9-1.2,2.2c0.7-0.7,11.3-15,11.3-15.2c0-0.2-3-3.6-3.2-3.6C360.9,107.1,360.7,107.2,360.6,107.3 M172.4,108.3
		c-0.4,0.2-1.7,1.3-2.8,2.5c-1.1,1.1-2.5,2.3-3,2.5c-0.5,0.2-1.5,0.7-2.2,1c-2.2,1-3.9,2.9-4.7,5.2c-0.3,0.9-0.2,0.8,1.2-1.3
		c1-1.4,2.7-2.5,4.5-2.8c1.1-0.2,1.5-0.5,2.5-1.5c3.5-3.9,4.2-4.4,6.4-4.4c0.7,0,1.8,0.2,2.4,0.5c1.3,0.6,1.4,0.4,0.4-0.6
		C175.5,108.1,173.7,107.6,172.4,108.3 M354.6,112.9c-1.3,1.3-4.1,4.5-6.2,7.1c-6.8,8.5-9,10.2-11.4,8.5c-0.9-0.6-0.7-0.3,0.5,1.3
		c2.7,3.5,3.6,3.3,7.3-1.7c1.2-1.7,3.8-4.8,5.6-6.8c3.8-4.3,4.5-5.3,6-8.3C358.1,109.8,357.8,109.7,354.6,112.9 M175.3,117
		c1.7,0.5,2,1,0.6,1c-0.3,0-1.2,0.7-2.1,1.6c-2.4,2.2-3.4,2.8-5.9,3c-2.1,0.2-5.2-0.1-5.2-0.6c0-0.6,1.7-2,2.9-2.5
		c0.7-0.3,1.5-0.7,1.7-0.9s0.4-0.4,0.6-0.4c0.2,0,0.5-0.2,0.8-0.5C170,116.5,172.6,116.2,175.3,117 M366.9,121.5
		c-1.6,0.6,4.4,7.2,7.9,8.8c1.4,0.6,2.6,1.1,2.6,1.1c0.1-0.1-7-7.4-7.3-7.4c-0.1,0-0.8-0.6-1.6-1.3
		C367.9,121.9,367.1,121.4,366.9,121.5 M227.4,121.7c-0.1,0.1-0.4,0.9-0.6,1.7c-0.3,0.8-0.9,2.2-1.4,3.1c-1.3,2.4-1.2,3,0.4,1.9
		c1.5-1,1.9-2,1.8-4.6C227.6,122.5,227.5,121.5,227.4,121.7 M221.6,125.1c-0.6,0.7-1.5,2-2,2.9c-0.5,0.9-1.3,2.2-1.8,3
		c-0.7,1.2-1.1,2.3-2.1,7.2c-0.6,2.9-2.4,7.7-3.8,10.2c-2.3,4.2-3.4,7.3-3.6,9.9c-0.2,2.3-0.2,2.3-0.8-0.2
		c-0.6-2.7,0.2-9.2,1.6-12.4c1.2-2.9-0.4-1.4-2.3,2.1c-3,5.4-4,10-3.5,15.1c0.8,8.6,0.8,9.6-1.2,16.1c-0.4,1.3-0.7,2.7-0.7,3.2
		c0,0.5-0.1,1-0.3,1.2c-0.8,1.2-0.2-3.8,0.9-8c0.4-1.4,0.4-2.3,0.3-4.5c-0.2-2.4-0.6-5.3-0.7-4.7c0,0.1-0.3,2.1-0.6,4.3
		c-0.3,2.3-1,5.8-1.5,7.7c-1,3.7-1.2,6.3-0.9,9.2l0.2,1.5l-0.4-0.9c-0.9-2-1.1-11.7-0.2-14c0.3-0.7-0.3-0.4-0.8,0.4
		c-1.6,2.8-3,11.7-2.3,15.3c0.9,5.4,1.1,7.5,1.1,11.5c-0.1,6.7,0.4,5.5,2.7-5.7c1-4.7,1.2-5.5,3.2-11.6c4.4-13.6,4.4-13.9,3.6-18.2
		c-0.4-2.3-0.6-8-0.2-8.4c0.1-0.1,0.3,0.8,0.4,2.4c0.1,1.4,0.4,3.6,0.7,4.7c0.3,1.2,0.6,2.5,0.7,3c0.5,3.1,2.7-2.9,2.8-7.7
		c0.1-3.7,0.5-5.6,1.2-5.8c0.3-0.1,0.3,0.1,0.2,0.6c-0.3,1.3-0.5,4.9-0.2,5.2c0.6,0.6,3.8-6.7,4.2-9.9c0.6-4.3,2.3-9.6,3.3-10.3
		c0.4-0.2,0.3-0.1-0.4,1.6c-0.8,1.7-1.5,5.3-1.5,7.6v1.5l0.9-0.4c1.5-0.7,3.8-5.4,4-8.4c0.2-2.2,0.2-2.4-0.8-4.7
		c-1.2-3-1.4-4.3-0.9-5.1c0.3-0.6,0.4-0.6,0.5,0.7c0.1,0.8,0.7,2.1,1.5,3.4l1.3,2.1l0.2-0.9c0.2-1.3,0.9-2.6,2.1-4
		c1.3-1.5,1.6-1.5,0.7,0.1c-0.9,1.5-1.5,3.9-1.5,5.9c0,2-1.6,6.2-3.9,10.4c-0.3,0.5,4.3,1,4.7,0.6c0.8-1.1,1.2-3.4,1.2-7.2
		c0-2.7,0.1-3.9,0.3-4.1c0.3-0.3,0.3-0.1,0.3,0.6c0,1.5,0.3,2.3,2.6,6c0,0,0.9-0.3,1.9-0.9c1-0.5,2-1,2.2-1s1.1-0.4,1.9-0.9
		c0.9-0.5,1.6-0.9,1.7-0.8c0.3,0.3-1.4,1.7-3.4,2.8c-3,1.6-4.1,2.6-5.3,5.1l-1.1,2.1l0.7,0.3c1.4,0.5,1.8,0.3,3.1-1.5
		c1.5-2.3,3.7-4,6-4.8c2.2-0.8,2.4-0.6,0.6,0.6c-2.5,1.6-6.6,6.2-5.8,6.7c0.1,0.1,1.7,0.6,3.5,1.1l3.3,1l0.8-0.7
		c0.4-0.4,1.3-1.5,2-2.3c1-1.3,1.3-1.5,1.3-1c0.1,0.7-1,3.1-2,4.5l-0.8,1l0.9,0.9c1.1,1.2,1.2,1.1,2.6-0.6c1.1-1.5,1.2-1.5,1.2-0.8
		c0.1,1.1-1.7,4.3-3.4,6.1c-1.4,1.5-1.9,2.3-2.5,3.7c-0.2,0.6,0.2,0.3,1.5-1.1c3.4-3.5,2.3-0.3-1.3,3.8c-2.8,3.2-2.6,3.4,0.3,0.4
		c3.7-3.9,5.1-6.3,6.9-12.5c0.4-1.5,1-3.1,1.2-3.5l0.4-0.7l-0.1,0.8c-0.1,0.4-0.3,1.6-0.5,2.7c-0.2,1-0.5,2.5-0.6,3.2l-0.2,1.3
		l0.8-1.2c1-1.5,2.3-2.6,4.4-3.7c0.9-0.5,2.1-1.3,2.6-1.9c0.7-0.7,1-0.9,1-0.7c0,0.8-1.2,2.2-3.3,3.8c-2.6,2-3.6,3.2-5.7,7.4
		c-1.2,2.3-2,3.6-2.9,4.3c-4.6,4.1-8,8.1-4.6,5.4c3.6-2.8,3.4-1.6-0.3,2.2c-1.5,1.5-3.2,3.4-3.7,4.1c-0.5,0.7-1.1,1.6-1.3,1.9
		c-0.2,0.3,1.2-0.8,3.1-2.5c3.8-3.2,5.3-5,6.2-7.3c0.7-1.7,1.1-2,0.8-0.5c-0.3,1.5-1.8,4.2-3.2,6c-1.5,1.9-0.9,1.7,0.9-0.2
		c2.3-2.5,3.9-5.5,4.4-8.2c0.2-1.1,1.6-3.7,3.3-6c0.7-1,1.3-2,1.3-2.1c0-0.2,1-1.2,4.6-4.6c1.2-1.1,1.9-2.5,3.1-5.7c1-2.7,1-2.7-1-1
		c-1.3,1.1-4.5,2.8-4.8,2.5c-0.1,0,0.3-0.7,0.8-1.5c1.2-1.8,3.9-6.7,3.9-7c0-0.5-2.2,1.9-3.9,4.3c-0.9,1.3-2,2.8-2.4,3.2l-0.7,0.8
		l0.2-0.8c0.1-0.4,0.6-1.5,1.1-2.3c1.1-1.9,2.6-7,2-7.3c-0.1-0.1-0.6,0.4-1,1.1c-0.9,1.3-1.9,2.4-1.9,2c0-0.1,0.1-0.7,0.3-1.2
		c0.2-0.7,0.2-1.2-0.2-2.1l-0.4-1.2l-0.8,1.3c-0.7,1.1-0.8,1.6-1,3.9c-0.2,3.4-0.9,5-3.5,7.6c-1,1.1-1.7,1.7-1.4,1.3
		c0.2-0.4,0.9-1.3,1.4-2.1c2.1-3.2,2.6-5.3,1.9-9.3c-0.3-1.9-0.3-2.5,0-3.5c0.5-1.6,0.5-4.4-0.1-5.6l-0.4-0.9l-0.7,1.4
		c-0.4,0.8-1.5,2.3-2.4,3.4c-1.1,1.3-1.9,2.5-2.3,3.5c-0.6,1.6-1.2,2.2-2.8,2.9l-0.8,0.3l0.9-0.7c1.4-1.1,1.6-1.8,1.5-4.9
		c-0.1-3.1-0.4-5.6-0.7-5.6c-0.4,0-2.5,2-3.5,3.4c-0.6,0.8-1.2,1.4-1.3,1.4c-0.4,0-0.3-0.9,0.1-1.5c0.4-0.5,0.6-6,0.2-6.3
		c-0.1-0.1-0.7,0.2-1.4,0.6c-0.7,0.4-1.8,1.1-2.5,1.6c-1.9,1.2-2.3,2-2.2,4.5l0.1,2.1l-0.7-1.5c-1-2.1-0.8-5.6,0.4-7.8
		c1.4-2.6-0.4-1.7-3.7,1.8l-2.1,2.3l-0.3-0.8c-0.2-0.6-0.2-1.2,0-2.3c0.4-1.8,0.4-6,0-6.4C222.8,124,222.2,124.4,221.6,125.1
		 M204.8,126.8c-0.9,0.7-2.7,1.9-3.9,2.7l-2.3,1.4l0.6,0.5c1.5,1.2,3.8,2.6,5.4,3.3c1.8,0.8,2.1,1.2,1.2,1.8
		c-1.1,0.7-6.1-0.8-9.1-2.6c-1.8-1.1-2.2-1.1-2.9-0.2c-2.1,2.6,1.9,6.5,7.6,7.4c5,0.8,6.7,0.5,8.2-1.5c3.6-4.9,3.8-7.1,0.6-10.7
		c-0.9-1-1.9-2.1-2.3-2.6C207,125.3,206.7,125.3,204.8,126.8 M393.5,126.2c-1.2,1.1-4.9,2.2-7.6,2.4c-0.6,0-1.3,0.2-1.5,0.4
		c-0.3,0.2-0.9,0.2-2.2,0.1c-3-0.4-3.1-0.4-1.6,1l1.3,1.3l2.5,0.2c2.7,0.2,3.4,0,6.7-1.5l1.6-0.7l-0.2,0.9c-0.1,0.5-0.2,1.5-0.2,2.2
		c0,0.7-0.2,2.2-0.5,3.3c-0.4,1.4-0.4,1.9-0.2,1.7c0.2-0.2,0.5-0.8,0.7-1.5c0.2-0.7,0.9-3.1,1.7-5.3
		C395.4,125.6,395.3,124.5,393.5,126.2 M238,128.4c-0.9,1.3-1.3,1.9-1.3,2.6c0,2.1,1,1.2,2-2C239.6,126.3,239.6,126.3,238,128.4
		 M397.8,127.6c0,0.8,0.9,2.6,3.3,6.6c3.7,6.1,4.2,8,4.2,13.9c0,3.1,0,3.8,0.3,3.8c1.2,0,2-9.7,0.9-11.8c-0.8-1.6-6.9-10.9-8.1-12.3
		C397.8,127,397.8,127,397.8,127.6 M243.1,130c-1.5,1.8-1.9,3.3-1.5,5.1c0.4,1.6,0.8,1,2.2-4.2C244.6,128.1,244.6,128.1,243.1,130
		 M369.9,131.5c-0.3,0.9,3.3,3.4,6.4,4.4c0.6,0.2,1.8,0.6,2.7,1c3,1.3,8.2,1,7.7-0.4c-0.2-0.6-0.2-0.6-4.4-1.1
		c-3-0.4-4.8-0.9-8.8-2.8C370.2,131,370.1,131,369.9,131.5 M318.1,136.3c-2.4,1.9-4.5,3.7-4.6,3.9c-0.1,0.3-0.6,0.6-1,0.8
		c-1.7,0.6-4.5,3.2-4.5,4.2c0,0.9,2.5,4.1,3.2,4.1c0.2,0,12.6-9.5,14-10.8l0.6-0.5l-0.5-0.9c-0.3-0.5-0.5-1.1-0.5-1.4
		c0-0.8-0.7-2.2-1.1-2.2c-0.2,0-0.5-0.2-0.7-0.4C322.5,132.9,321.9,133.2,318.1,136.3 M251.1,134.8c-1.2,1.6-1.9,3.1-2.3,4.4
		c-0.3,1.1,0.2,0.7,1.6-1.7C252.8,133.7,253.2,132.1,251.1,134.8 M233.8,134.2c0,0.1-0.7,1.4-1.6,2.8c-1,1.6-0.7,3,0.4,2.7
		c0.4-0.1,1.6-0.5,2.7-0.8c1.2-0.3,2.3-0.9,2.9-1.4l0.9-0.8v0.8c0,1.3-2.7,3-4.7,3c-0.2,0-0.6,0.2-1,0.6l-0.6,0.6l1.4-0.2
		c1.6-0.2,1.9,0.2,0.5,0.6c-2.1,0.6-4.1,0.4-4.3-0.6c-0.7-2.9,0.4-6.9,1.8-6.9c0.3,0,0.6-0.1,0.6-0.3
		C233,134.1,233.8,134,233.8,134.2 M141.3,134.9c-2.4,0.7-3.4,1.4-10.6,7.7c-7.3,6.3-11.5,8.1-18,7.5c-1.5-0.1-2.8-0.2-3-0.1
		c-0.2,0.1-1.1-0.1-1.9-0.3c-0.9-0.3-3.3-0.5-5.5-0.7c-14.7-0.9-22.1,0.8-31.1,7.2c-1.2,0.9-3.5,2.4-4.9,3.4
		c-7.2,4.9-11.3,11.3-14.1,21.8c-1.9,7-0.1,18.6,3.9,25.4c2.9,5,3.8,5.9,4.6,5.2c0.2-0.2,0.4-0.6,0.3-0.8c-0.1-0.3,0.3-0.8,1.4-1.6
		c2.5-1.9,8.5-8.1,11.8-12.2c5-6.3,9.1-10,13.3-12.2c3.7-1.9,4.5-2,2.6-0.5c-3.5,2.9-7.8,7.9-9.5,11.2c-0.7,1.3-2.7,4-5.5,7.5
		c-0.7,0.9-0.3,1.3,0.6,0.8c1.7-0.9,2.9-2.1,7.8-8.5c5.3-6.8,9.7-10,13.9-10.1c0.9,0,1.8-0.2,2-0.3c0.2-0.1-0.8,0.9-2.3,2.4
		c-4.2,4.2-6.6,8.1-5.9,9.6c0.3,0.6,0.4,0.5,2.8-1.8c4.4-4.1,7.8-6,11.8-6.4c3.5-0.4,3.6-0.2,1,1c-1.2,0.6-2.7,1.5-3.2,2
		c-0.5,0.5-1.4,1.2-1.9,1.5c-1,0.6-1.8,1.5-1.8,2.1c0,0.2,0.7,0.4,1.6,0.5c2.7,0.3,9.4,2.7,8.9,3.1c-1,0.9-6,1.8-7.5,1.3
		c-0.8-0.2-0.9-0.2-1,0.7c-0.2,1.1,0.1,1.4,2.4,3.3c0.9,0.7,1.9,1.6,2.3,2c0.9,1,2.9,2.3,5.3,3.4c1.1,0.5,3,1.3,4.2,1.9
		c5.7,2.8,21.1,3.7,30.1,1.8c1.5-0.3,3.3-0.6,4.2-0.6c1.1,0,2.3-0.4,4.7-1.4c1.7-0.7,5-1.9,7.2-2.7c4.1-1.4,6.8-2.6,10.6-4.7
		c3.3-1.9,3.7-2.8,5.2-15.2c2-16.2,6.4-19.3,4.9-3.5c-1,10.3,0.6,17.9,4,19.3c0.5,0.2,1,0.5,1,0.6c0.2,0.4,1.4,0.3,1.7-0.1
		c0.2-0.2,0.3-3.2,0.4-8.2c0.2-10.6,1.1-17.3,2.8-20.8c0.4-0.8,0.8-2,0.9-2.6c0.1-0.6,0.4-1.4,0.7-1.8c1.1-1.4-0.2-4.3-1.5-3.1
		c-0.2,0.2-0.5,0.3-0.8,0.3c-0.5,0-4.4,1.4-5.5,2c-0.7,0.4-4.9,0.2-10.4-0.4c-1.4-0.2-3.6-0.4-4.9-0.5c-1.8-0.1-2.9-0.4-4.3-1
		c-1-0.4-2.7-1.1-3.7-1.4c-1-0.3-2-0.7-2.1-0.8c-0.1-0.1-2-0.9-4.1-1.7c-5.2-2.1-7.3-2.4-14.9-2.1c-8.2,0.2-12-0.3-16.8-2.5
		l-1.2-0.5l2,0.2c2.7,0.3,10,0.2,17.7-0.1c7-0.3,8.7-0.1,12.4,1.1c2.4,0.7,8.7,2.3,12.1,3c1.3,0.3,3.4,0.9,4.7,1.3
		c2.1,0.8,2.6,0.8,6.7,0.9l4.4,0.1l3-1.5c2.3-1.1,3.3-1.4,4.1-1.4c0.9,0,1.4-0.2,3.1-1.4c3.1-2.2,3.5-2.7,3.8-4.9
		c0.4-2.1,0.4-2.1-0.8-1.2c-0.5,0.4-1.2,0.7-1.7,0.7c-0.4,0-0.9,0.1-1.1,0.3c-0.2,0.2-0.7-0.5-1.4-1.9c-0.6-1.2-1.6-2.9-2.2-3.7
		l-1.1-1.5l-0.3,1.6c-0.6,2.8-2.8,6.3-4.6,7.2c-0.5,0.3-1.3,0.7-1.6,1c-0.9,0.7-3.9-0.4-6.1-2.2c-3.5-2.8-5-6.1-5.4-11.8l-0.2-3.2
		l-1,0.8c-3,2.3-3.9,7.9-2,12.5c0.9,2.1,0.9,2.3-0.1,3c-2.3,1.6-7.3,0.1-9.4-2.9l-0.6-0.8l1.2-4.3c1.1-4.1,1.9-7.4,1.7-7.6
		c0,0-1,0.8-2.2,1.9c-2.6,2.5-8.5,6.3-9.2,5.9c-0.4-0.2,0.3-1.1,2.4-3.3c2.7-2.9,3.3-4.9,0.7-2.7c-5.6,4.8-7.6,5.5-19,6.3
		c-8.9,0.6-12.7,0.1-5.9-0.8c5.5-0.7,9.1-1.5,12.5-2.6c1.8-0.6,3.7-1.2,4.3-1.3c1.6-0.4,5.7-3.2,5.7-3.9c0-2.2-5.6-1.5-11.2,1.5
		c-1.8,0.9-2.2,0.5-0.6-0.7c0.5-0.4,1.5-1.1,2.1-1.5c0.6-0.4,2-1.4,3.1-2.2l2.1-1.4l-1.7-1.8c-0.9-1-1.8-1.9-1.9-2.1
		C143.1,134.5,142.5,134.6,141.3,134.9 M280.8,135.9c-5.8,2.6-7.4,5-7.5,11.2c0,1.8,0.2,2,1.6,0.7c2.3-2.1,5.8,0,10.2,6.3
		c4.3,6.2,8.2,10.8,11.1,13.1c1.3,1.1,5.3,8.5,4.4,8.2c-0.7-0.2-5.7-5.2-6.7-6.6c-1.4-2.1-3.5-4-6.3-5.8c-3.2-2.1-3.7-2.5-5.4-5.4
		c-2.6-4.5-3.1-4.8-8.6-6.3c-4.3-1.2-4.1-1.2-7.3,2.3c-2.9,3.3-3.1,5.1-0.8,6.7l0.9,0.6l-0.5,0.9c-0.5,0.9-0.7,1-2.7,0.9
		c-1.2-0.1-1.2,0-3.2,2.1c-3.6,3.9-4.4,6.6-2.3,8.8l1.2,1.3l0.7-0.5c0.8-0.5,1.6-0.2,2.5,1c0.6,0.8,0.8,0.4,0.6-1.1
		c-0.3-2.4,0.7-3,2.1-1.3c0.5,0.5,1.6,1.6,2.5,2.4c2.3,1.9,3.5,3.6,5.6,7.7c2.1,4.2,3.5,6.2,5.8,8.3c7.8,7.1,17.2,3.1,17.2-7.4
		c0-2.1-2.1-4.9-4.5-6c-0.5-0.3-1.8-1.2-2.8-2.2c-2.1-2-4.7-3.8-7.5-5.2c-1.1-0.5-2-1.1-2.1-1.2c-0.1-0.2-0.8-0.8-1.5-1.3
		c-1.2-0.9-5.9-6.4-5.7-6.6c0.5-0.5,6.5,3.3,9.6,6.1c1,0.9,2,1.6,2.3,1.6c1,0,6.4,3,8.5,4.7c2.4,1.9,6.1,6.8,8.8,11.7
		c0.6,1.2,1.5,2.6,1.9,3.3c1.3,2,2.2,4.6,2.9,9c0.7,4.2,0,23.4-1.1,29.8c-0.3,1.8-0.9,6.1-1.3,9.7c-1.5,11.8-1.6,12.5-5.1,21.9
		c-3.8,10.2-4.5,11.3-9.2,13.7c-0.7,0.4-1.1,0.4-1.9,0.2c-2.2-0.6-3.5,0.9-1.8,2.2c1.5,1.1,2.4,2.2,3.3,3.7c1.5,2.7,3.9,3.9,5.2,2.7
		c1.7-1.6,5.8-11.9,6.8-17.2c0.2-1.2,0.7-3.2,1.1-4.5c0.8-2.6,2.2-8.3,3-12.3c0.3-1.3,0.7-4.2,1-6.4c0.4-4,1-6.1,1.5-5.6
		c0.3,0.3,0.4,1,1.5,7.4c0.4,2.3,0.9,4.8,1.1,5.5c1.3,4.5,1.8,16.6,0.7,18.6c-0.2,0.3-0.5,1.4-0.7,2.4c-0.6,2.8-1.4,4.7-2.8,6.5
		c-0.7,0.9-1.5,2-1.9,2.5c-0.8,1.1-3.7,3-4.9,3.2c-1.3,0.2-1.8,0.6-1.4,0.9c0.3,0.3,4,0.9,4.3,0.7c0.1-0.1,1.4-0.3,2.9-0.6
		c5.6-0.9,6.6-1.6,7.7-5.9c0.8-3.1,1.6-9,1.6-12.2c0-1,0.3-4.1,0.6-6.8c0.9-7.5,0.8-15.4-0.1-19.3c-0.5-2.1-0.8-4-0.9-6.7
		c-0.1-2.1-0.5-5.3-0.8-7.2c-1.3-7.1-2.3-15.3-1.9-15.3c0.1,0,0.5,1.7,1,3.7c0.5,2,1.4,5.7,2.1,8.2c0.7,2.5,1.7,6.2,2.3,8.2
		c0.5,2,1.3,4.4,1.6,5.3c2.9,7.3,4.2,15.6,3.5,22.5c-0.3,2.6,0,2.3,1-1.1c1.2-4.3,1.6-6.9,1.6-13.4c0-8.7-0.3-10.1-4.8-21.5
		c-2.6-6.5-2.8-7.2-3.5-10.9c-0.3-1.6-0.9-4.7-1.4-6.9s-1-4.9-1.2-5.9c-0.2-1.1-0.7-3.1-1.2-4.4c-0.8-2.4-1.1-3.8-1.9-7.8
		c-0.2-0.9-0.8-3-1.3-4.6c-1.5-4.4-2.4-9.2-2.8-15.5c-0.9-12.5-1.4-17.3-2.1-20c-0.6-2-3.3-7.2-4-7.6c-0.8-0.5-5.3-0.8-5.8-0.4
		c-0.2,0.2-0.7,0.3-1,0.3c-1.1-0.1-1.6,0-1.6,0.4c0,0.6,1.3,1.5,2.1,1.5c2.6,0,4.7,2.7,5,6.4c0.1,1.3,0.7,4.6,1.5,7.7
		c0.7,3,1.4,6.4,1.6,7.5c0.1,1.1,0.4,2.7,0.6,3.6c0.4,1.6,0.8,4.4,0.6,4.4c-0.1,0-0.6-0.9-1.2-1.9c-0.6-1.1-1.8-2.9-2.6-4.1
		c-1.6-2.2-2-3.3-4.9-11.1c-3.7-9.8-5.3-12.2-10.9-15.6C282.4,135,282.8,135,280.8,135.9 M394.5,136.5c-0.1,0.2-0.6,1.8-1.1,3.7
		l-1,3.3l0.5,0.8c0.3,0.4,1.3,1.9,2.3,3.2c1,1.3,1.9,2.7,2.1,3c0.6,1.3,4.8,6.1,5.5,6.4c1.1,0.5,1.1,0.3-0.4-2.5
		c-1.9-3.7-3.9-8.6-5.5-13.4c-1.4-4.4-1.6-4.8-2.1-4.8C394.7,136.2,394.5,136.4,394.5,136.5 M256.2,136.7c0,0.2,0.2,0.6,0.4,0.9
		c0.3,0.4,0.3,0.7,0.1,0.8c-0.1,0.1-0.4,0-0.6-0.3c-0.2-0.4-0.3-0.1-0.2,1.1c0.1,0.9,0,2.2-0.2,2.9c-0.4,1.7-0.3,1.8,0.5,0.5
		c1.4-2.2,1.7-4,1.1-5.3C257,136.5,256.2,136.1,256.2,136.7 M341.1,137.8c-0.8,0.3-1,0.8-0.6,1.2c0.5,0.5,1.6-0.2,1.6-1
		C342.1,137.5,341.9,137.5,341.1,137.8 M245.3,140.5c-0.1,0.3-0.3,1.3-0.3,2.4c0,2.8-0.6,4.1-3.1,6.2c-1.1,0.9-2.5,2.1-3,2.7
		c-0.6,0.6-1,0.9-1,0.8c0-0.4,1.3-2.1,2.6-3.5c0.6-0.7,1.1-1.3,1.1-1.5s0.3-0.6,0.7-0.9c0.9-0.8,1.3-2.2,1.1-3.6
		c-0.2-1.2,0.3-2.5,1.2-3.6l0.6-0.7l0.2,0.7C245.4,139.7,245.4,140.2,245.3,140.5 M351.1,140.4l-0.9,0.8l2.2,2.6
		c1.2,1.4,2.6,3.3,3.1,4c1.8,2.7,7,6.3,7,4.7c0-0.5-4.4-6.1-8.7-11C352.1,139.4,352.2,139.5,351.1,140.4 M320.9,146.8
		c-7.6,5.9-7.6,5.9-7.6,7.3c0,0.8,0,0.9,0.5,0.5c2.4-1.8,15-12,15-12.2C328.7,140.8,327.9,141.2,320.9,146.8 M322.5,150.1
		c-8.4,6.6-8.6,6.8-8.2,7.2c0.2,0.2,2.9-1.8,7.9-5.6c8.8-6.8,8.7-6.7,8.2-7.1C330,144.3,328.3,145.5,322.5,150.1 M343.9,145.3
		c-2.2,1.4-2.4,0.8,1.7,5.4c1.9,2.2,4.5,5.2,5.7,6.7l2.2,2.7l1-1.1c0.6-0.6,1.1-1.1,1.3-1.1c0.8,0-3.6-6.4-8.3-12
		C345.6,143.9,346.1,144,343.9,145.3 M381.5,151c-5.4,4.2-9.7,7.8-11.2,9.3c-0.8,0.8-1.3,0.8-3.5,0c-3.5-1.4-5.2-2.5-8-5.1
		c-2.7-2.5-3.5-2.9-3.1-1.5c0.2,1,2.6,4.3,4.5,6.4c0.9,1,2.2,2.4,2.8,3.2l1.2,1.4l-1.7,1.6c-0.9,0.9-2.1,1.8-2.6,2
		c-0.6,0.3-0.9,0.7-0.9,1.1c0,0.5-0.6,0-2.6-2.3c-4.4-4.7-6.9-7.1-7.2-6.8c-0.8,0.8,8.8,18,12.6,22.7c1.2,1.5,2.5,3.1,2.9,3.6
		l0.7,0.9l-0.7-2c-0.4-1.1-0.9-2.9-1.2-4c-0.3-1.1-0.7-2.5-1-3.2c-0.5-1.2-0.5-2.9,0-2.9c0.1,0,0.8,1.1,1.5,2.5
		c1.4,2.8,2.3,4.2,4.2,6.5c3.1,3.8,3.4,3.8,7,0.1c1.5-1.5,3.9-3.8,5.3-5.1c1.5-1.3,4-3.7,5.7-5.3c1.7-1.6,4-3.7,5.2-4.7
		c2.3-2,9.7-9.6,9.7-10c0-1.5-12.3-12.8-13.9-12.8C387.3,146.6,384.7,148.6,381.5,151 M336.5,149.7l-0.6,0.4l1.6,2.1
		c1.5,2,2.8,4.8,3.5,7.4c0.9,3.4,0.9,3.4,1.1,2.9c0.4-1.1-0.9-8.7-1.8-10C338.5,149.8,337.5,149,336.5,149.7 M217.6,153.3
		c-0.6,0.7-7.1,14.3-8.8,18.5c-3,7.4-6.2,17.6-7.9,25.3c-0.9,4-0.8,4,0.5,0.3c1.9-5.3,7.8-20,8.9-22.1c0.3-0.6,0.9-2,1.3-3.2
		c0.4-1.2,1.1-2.9,1.6-3.7c0.5-0.9,1.8-3.8,2.9-6.4c1.3-3,2.4-5.2,2.9-5.8l0.9-0.9l1.7,0.4c1,0.2,3.2,0.8,5,1.5
		c1.8,0.6,3.6,1.1,4,1.1c0.4,0,1.2,0.1,1.7,0.3c3,1,4.1,1.4,4.2,1.7c0.2,0.6-1.8,8-4.4,15.7c-1.5,4.4-3.2,9.9-3.8,12.2
		c-0.6,2.3-1.3,4.7-1.5,5.2c-0.6,1.1-2.6,9.3-2.4,9.5c0.8,0.8,1.5-0.6,3.1-6.3c1.7-6,2.3-8.1,4.1-12.8c2.5-6.7,6.6-19.3,6.7-20.6
		c0.1-0.7,0.2-1.5,0.4-1.8c0.6-1.2,0.6-3,0-3.4c-2.3-1.4-12.5-4.6-13.7-4.3c-0.3,0.1-1.6-0.1-2.9-0.4
		C219,152.6,218.3,152.6,217.6,153.3 M343.6,154c-0.1,0.1,0.1,1.3,0.3,2.6c0.6,3.4,0.3,9.3-0.4,11.3c-1.1,2.9-1.5,3.7-1.6,2.9
		c-0.2-1.1-1.1-4.6-1.8-6.3c-0.3-0.9-0.9-2.7-1.4-4l-0.7-2.4l-0.2,1.2c-0.1,0.7-0.2,2.8-0.2,4.8c0,5-1.3,9.9-3.2,12.1
		c-0.6,0.7-1.3,2.1-1.3,2.6c0,0.2,1.3,1.9,3,3.8c4.1,4.8,4.7,5.4,8.2,9l3,3.1l2.7,0c4.1,0,14.6-0.9,14.9-1.3
		c0.4-0.4-8-9.7-10.8-11.8c-2.2-1.7-5.5-3.4-6.2-3.3c-1.2,0.3-10.4,0.5-10.2,0.2c0.4-0.4,5-1.3,7.7-1.5c1.3-0.1,2.7-0.3,3.2-0.5
		l0.8-0.3l-0.1-5.1c-0.1-5.1-0.7-8.3-1.8-10.4c-0.1-0.3-0.7-1.7-1.3-3.3C344.9,154.5,344,153.2,343.6,154 M310.5,159.3
		c0.6,11.5,0.6,11.1,1.6,14.7c1.5,5.5,3.8,12.3,4,11.7c1.7-5.4,1.4-9.3-1-14.8c-1.1-2.5-2.1-5.6-2.8-8.8c-0.3-1.4-0.9-3.3-1.2-4.1
		l-0.7-1.6L310.5,159.3 M121.4,158.9c0.3,0.1,0.4,0.2,0.1,0.2c-0.2,0-0.6-0.1-0.9-0.2c-0.3-0.1-0.4-0.2-0.1-0.2
		C120.7,158.6,121.1,158.7,121.4,158.9 M220.7,159.1c-1,1-4.5,9-7.7,17.3c-0.5,1.4-1.4,3.6-2,4.8c-2.1,4.7-5.9,16.7-6.3,19.9
		c-0.3,2.2-0.1,2.3,4.6,2.6c4.7,0.2,6.2,0.4,8.1,0.9c2.5,0.7,2.7,0.3,5.5-11.8c2.1-9,2.5-10.5,3.9-14.2c1.2-3.1,3.5-9.5,4.9-13.8
		c1.1-3.2,1.5-2.8-4.6-4.8C222.2,158.5,221.5,158.4,220.7,159.1 M223.1,160.8c1,1-0.1,3.7-1.4,3.7c-1.2,0-1.4-0.8-0.4-1.6
		c0.7-0.6,0.8-0.8,0.7-1.6C221.7,160.4,222.4,160.1,223.1,160.8 M400.9,164.5c-0.9,1.5-2.2,3.9-2.9,5.3l-1.4,2.5l-0.2-1.2
		c-0.1-0.7-0.2-1.6-0.2-2.2c-0.1-3-1.4,0.2-2.8,6.8c-0.4,1.9-0.5,2.1-1.4,2.7c-1.2,0.7-6.2,4.3-7.7,5.4c-0.6,0.5-2.3,1.6-3.9,2.6
		c-3.5,2.2-4.9,3.1-4.7,3.3c0.1,0.1,8.5-4.2,11.8-6.1c1.2-0.7,3.5-1.9,5.1-2.7c3.1-1.6,3.4-1.8,4.3-4.2c0.3-0.8,1.7-4.4,3.1-8
		C403,161.4,403.1,160.6,400.9,164.5 M251.2,164.3c-2.4,2.5-3.1,3.8-3.5,6c-0.8,4.2-3.8,8.1-8.6,11.3c-1.3,0.8-3,2.3-3.8,3.2
		c-1.5,1.7-2,2.7-0.8,1.5c0.4-0.4,1.7-1.4,2.9-2.2c2.9-2,2.9-1.4,0.1,1.4c-1.2,1.1-2.6,2.6-3.1,3.2l-1,1.2l0.9-0.5
		c4.1-2.4,6.1-4.1,8.2-6.7c3.8-4.9,6.6-9.2,8-12.2c1.5-3.3,1.5-4.1,0.2-2.2c-1.6,2.3-1.6,2.3-1.6,1.4c0-1.2,1.3-3.3,3.7-5.8
		c0.5-0.5,0.9-1.2,0.8-1.4C253.4,162.1,252.8,162.6,251.2,164.3 M230,163.5c0.8,0.8,0.1,2.9-1.2,3.4c-1.5,0.6-2.4-1.1-1-1.7
		c0.9-0.4,1.1-0.7,1.1-1.5C229,163.1,229.5,162.9,230,163.5 M219.8,169.9c0.3,1-0.2,2-1.1,2.2c-1.3,0.3-1.8-1.2-0.6-1.6
		c0.3-0.1,0.5-0.4,0.5-0.6C218.6,168.8,219.4,168.8,219.8,169.9 M227.4,172.2c0.4,1,0.2,2-0.7,2.6c-1.3,0.8-2.1-0.3-0.9-1.4
		c0.3-0.3,0.5-0.8,0.5-1.2C226.3,170.9,226.9,170.9,227.4,172.2 M216.2,178.7c1,1.3,0.1,3.5-1.4,3.3c-0.8-0.1-1-1.2-0.2-1.7
		c0.4-0.3,0.5-0.6,0.4-1C214.8,178.3,215.6,178,216.2,178.7 M259.5,182c-1.5,1.1-11.8,9.2-22.9,17.9c-11.1,8.7-39.7,31-63.5,49.6
		c-23.8,18.6-43.6,34-44.1,34.4s-0.8,0.7-0.8,0.8c0,0.1-0.1,0.5-0.3,0.9c-1.3,3.2,1.9,4,5.6,1.4c1.4-0.9,2.7-1.8,3-1.8
		c0.3-0.1,5.5-4,11.6-8.8c11.9-9.3,60.7-47.3,82.1-64c40-31.2,36.5-28.2,35.7-30.1C264.8,179.4,263,179.3,259.5,182 M224.6,181.6
		c0.5,1.5-1,3.4-2.2,2.7c-0.7-0.4-0.6-1.2,0.3-1.7c0.5-0.2,0.8-0.6,0.9-1.1C223.8,180.6,224.2,180.6,224.6,181.6 M241.8,186
		c-1.4,2.2-1.2,2.1-1.7,1.7c-1.2-1-9.1,7.4-10.6,11.3l-0.3,0.7l0.7-0.5c6.8-4.3,11.5-9.2,12.9-13C243.8,183.5,243.4,183.4,241.8,186
		 M212.5,188.7c0.9,1.7-0.9,4.2-2,2.6c-0.2-0.3-0.1-0.6,0.3-1.1c0.3-0.3,0.6-1,0.6-1.3C211.4,188.1,212,187.9,212.5,188.7
		 M267.5,188.5c-0.3,0.1-2,1.5-3.9,3.2c-1.8,1.6-3.4,2.9-3.6,2.8c-0.1-0.1-0.7,0.2-1.2,0.6c-1.8,1.5-13.1,10.3-44.7,34.9
		c-17.3,13.5-33.4,26.1-35.9,28c-6,4.7-12.3,9.7-17.7,14c-2.5,2-5.4,4.3-6.5,5.1c-1.1,0.8-3.7,3-5.7,4.9c-4.7,4.3-7.9,7-9,7.8
		c-0.8,0.6-1.8,2.1-1.6,2.3c0.1,0.1,29.8-23.2,66-51.7c44.9-35.3,65.8-51.9,65.6-52C269,188.2,268.2,188.2,267.5,188.5 M267.3,193.2
		c-2.2,1.7-29.6,23.1-60.9,47.5c-31.3,24.4-57.1,44.5-57.3,44.8c-1.9,2,16-11.7,44.8-34.1c15.2-11.8,30-23.3,32.9-25.6
		c7.8-6,39.4-30.6,42.4-33c2.2-1.7,3.2-2.8,2.4-2.8C271.4,190.1,269.5,191.5,267.3,193.2 M222.3,190.8c0.9,1.6-0.3,3.6-1.7,2.9
		c-0.6-0.3-0.6-0.8,0.1-1.6c0.3-0.3,0.5-0.9,0.5-1.2C221.3,190.2,221.9,190.1,222.3,190.8 M298.4,192.6c-0.8,2.6-9,14-9.6,13.4
		c-0.2-0.2,1.7-3.7,3.1-5.8c1.7-2.5,1.7-2.5-1.1-0.7c-1.2,0.8-2.6,1.6-3,1.6c-3.3,0.7-5.3,13.6-2.2,14.2c0.6,0.1,3.8-3.1,5.7-5.8
		c0.8-1.1,2.3-3.1,3.3-4.5c3.3-4.5,4.4-7.4,4.2-11.3C298.7,191.5,298.7,191.5,298.4,192.6 M209.5,199.3c0.1,1.3-0.4,2-1.2,1.9
		c-0.8-0.1-1.2-1.3-0.5-1.3c0.2,0,0.5-0.4,0.6-0.8C208.6,198,209.4,198.2,209.5,199.3 M220.2,200.5c0.6,1.2-0.6,3.2-1.7,2.8
		c-0.5-0.2-0.5-1.5,0-1.7c0.2-0.1,0.5-0.5,0.7-0.9C219.5,199.8,219.8,199.7,220.2,200.5 M49.4,202.9c-0.3,0.5-0.9,1.3-1.3,1.9
		c-5.3,6.1-9.2,15.3-9.2,22c0,1.5-0.1,5.3-0.3,8.6c-0.3,6.6,0.1,11.1,1.5,15.7c0.9,2.9,0.9,2.9,1.5,0.7c0.6-2.4,1.3-3.8,4-8
		c1.2-1.8,2.4-3.8,2.7-4.4c0.3-0.6,1.4-2.2,2.5-3.6c3.1-4.1,3.5-4.8,4.5-7.8c1.4-3.9,1.3-6.6-0.2-10.1c-1.7-3.7-2.3-5.5-3.5-10.4
		C50,201.7,50,201.7,49.4,202.9 M298.8,208.9c-2.9,6.8-5.2,11.4-7.5,14.8c-1.6,2.4-1.2,1.4,2.8-7.8c3.5-7.9,3.5-8,0.8-4.4
		c-2.5,3.4-3.3,4.3-6.7,7.6c-7.6,7.5-10.8,11.8-13.1,17.8c-2.1,5.5-2.6,10.2-1.5,15.7c0.3,1.6,0.7,3.6,0.8,4.4
		c0.7,4.8,5.3,5.2,9.6,0.8c2.8-2.8,8.3-11.1,10.3-15.4c0.4-0.9,1-1.8,1.3-2c2.8-2.2,6.7-18,7.2-29l0.1-3.6l-0.8,2.5
		c-1.1,3.5-4.7,13.6-6.2,17.4c-1.6,4.1-3.9,8.5-6,11.4c-2.9,4-4.2,4.6-1.8,0.9c3.3-5.4,7.2-15.8,10.9-29.4
		C300.2,206.3,300.1,205.7,298.8,208.9 M203,207.4c-4.4,0.7-8.4,2.3-12.4,4.9l-1.5,0.9l6.4-0.2c5.2-0.1,6.9-0.1,9,0.3
		c3.7,0.6,5.1,0.4,6.6-0.9c0.6-0.6,1.9-1.6,2.7-2.3c1.7-1.4,1.7-1.4-0.3-2.1C210.3,206.8,207.5,206.7,203,207.4 M86.8,208.1
		c-0.3,0.3-0.5,0.9-0.5,1.7c0,2.8-2.3,10.9-3.4,12.1c-0.7,0.7-0.7,0.5-0.3-2.1c1.2-7,1.4-10,0.7-10c-0.2,0-2.1,0.8-4.1,1.9
		c-2.1,1-5.1,2.4-6.7,3.1c-6.5,2.6-7.7,3.8-8.9,8.6c-1.3,5.1,0.2,9,4.4,11.1c0.8,0.4,2.3,1.6,3.4,2.7c2.3,2.2,3,2.5,5.4,2
		c2-0.4,6-2.7,8.4-4.9c2-1.9,2.5-2.1,2.5-1.3c0,2.1-6.6,8.1-10.3,9.3l-1.7,0.6l1.5,1.3l1.5,1.3l1.4-0.5c2.3-0.7,4.7-2,6.7-3.4
		c1.9-1.3,2.6-1.6,2.6-1c0,0.6-4.3,4.5-6.3,5.8c-2,1.3-2,1.3-1.7,1.8c0.5,0.8,6.6-1.9,9.2-4.1c3.3-2.9,7.6-9.4,8.6-13.1
		c1.6-6.3,1.9-12.8,0.7-16.4c-0.6-1.9-1.2-2.8-1-1.4c0.2,1.2-0.5,6.7-1.2,8.7c-1.6,4.8-2.7,6.3-2.1,3c0.9-5.1-0.1-12.9-1.8-14.5
		c-1.2-1.1-1.2-1.1-0.9,1.2c0.5,3.2-0.3,7.8-1.7,10.3c-1,1.7-1.2,0.9-0.4-1.6C92.1,215.6,88.9,205.8,86.8,208.1 M101.2,216.3
		c-0.3,0.8-0.3,1.9,0.1,1.6c0.2-0.2,0.2-0.7,0.2-1.2C101.4,216,101.4,215.9,101.2,216.3 M188.2,216.5c-5.3,0.7-8.6,1.2-15.9,2.7
		c-9.8,1.9-9,1.8-21.9,5.4c-13.3,3.8-25.4,10.7-27.6,15.9c-1.1,2.5-2,6.7-1.6,7c1,0.6,1.9-0.4,1.5-1.8c-0.4-1.4-0.1-3.5,0.4-3.5
		c0.2,0,0.5,0.6,0.7,1.5c0.2,0.8,0.4,1.5,0.6,1.6c0.4,0.3,2.2-1.2,2-1.7c-0.5-1.2-0.7-2.4-0.5-3.3c0.3-1.4,0.7-1.1,1.3,0.9
		c0.6,2.1,0.4,2.1,2.5,0.8c1.7-1.1,1.7-1.1,1.4-1.7c-0.6-1-0.8-3.1-0.3-4.2c0.6-1.3,1.2-1.3,1.2,0c0,2.9,0.9,3.9,2.6,3
		c1.3-0.7,1.3-0.7,0.8-1.6c-0.5-0.9-0.5-3.3,0-3.8c0.6-0.6,0.8-0.4,1.1,1c0.2,0.6,0.5,1.5,0.8,2l0.5,0.9l1.2-0.6l1.2-0.6l-0.3-1.3
		c-0.3-1.6,0-3.3,0.7-3.4c0.4-0.1,0.5,0.1,0.5,0.7c0,1,0.9,3,1.4,3c0.8,0,3.5-1.2,3.3-1.5c-0.6-1.6-0.7-2.5-0.3-3.5
		c0.5-1.2,1-1.1,1.3,0.2c0.2,0.9,1,2.9,1.2,2.9c0,0,0.7-0.2,1.6-0.6l1.5-0.6v-1.9c0-1.4,0.1-2,0.4-2.3c0.4-0.4,0.5-0.3,1.1,1.6
		c0.6,1.9,0.6,1.9,2.4,1.4l1.6-0.5v-1.8c0-2.9,0.9-2.8,2.1,0.1l0.4,1l1.8-0.5l1.8-0.5l-0.1-1.6c-0.1-2.1,0.5-2.2,1.3-0.4
		c0.3,0.7,0.6,1.3,0.7,1.4c0,0.1,1-0.1,2.1-0.4l2-0.5v-1.6c0-2,0.6-2.1,1.6-0.1l0.6,1.3l1.5-0.2c2.9-0.4,2.9-0.3,2.8-2.1
		c-0.1-2.3,1.4-1.9,2,0.5c0.2,0.7,0.2,0.7,1.7,0.5c2-0.3,2.2-0.5,2.1-2.2c-0.1-2.3,1.2-1.9,1.9,0.5c0.3,1.2,1.1,1.3,3.9,0.9l1-0.2
		l-0.2-1.9c-0.1-1.1-0.1-2,0-2.1c0.6-0.6,2.2,1.8,2.2,3.4c0,0.7,0,0.7,1.5,0.7c2.2,0,2.3-0.1,2.3-2.7c0-2.8,0.6-3.1,1.7-0.8l0.7,1.4
		l2.8-1.8c1.5-1,3.5-2.3,4.3-2.8l1.5-1.1l-1.6-0.2C200,216.4,190,216.3,188.2,216.5 M236.3,222.8c-2.5,1.4-6,4.4-5.6,4.8
		c0.1,0.1,1.2,0.3,2.4,0.4l2.2,0.2l0.3-0.8c0.2-0.4,0.4-1.5,0.5-2.3c0.4-3.4,1.8-2.5,1.7,1.1l0,2.4l1.1,0.2c1.5,0.2,1.5,0.2,2.1-1.6
		c0.7-2.2,1.3-2,1.3,0.6l0,1.9l1.5,0.4c0.8,0.2,1.7,0.5,1.9,0.6c0.6,0.2,1.4-1.3,1.1-1.9c-0.6-1.1-3.6-3.6-6.1-5.1
		C237.7,221.8,238,221.9,236.3,222.8 M181,231c-5.7,0.5-13.1,2.2-21,4.7c-18.1,5.8-27.4,9.8-33.5,14.5c-4.1,3.1-3.9,2.8-6.1,11.4
		c-0.8,3.1-1.6,5.7-1.7,5.9c-0.9,0.9-0.3,2.3,2,4.6c2.6,2.6,2.4,2.7,2.7-1.2c0.6-6.7,1.9-12.6,3.3-14.2c0.7-0.8,4-3.2,6.3-4.6
		c1.2-0.7,2.4-1.5,2.7-1.8c2.3-2,14.3-7.3,21.9-9.7c6.5-2,17.2-4.4,19.5-4.4c0.6,0,1.2-0.3,1.8-0.8c0.8-0.7,0.8-0.8,0.4-0.8
		c-0.7,0-7.2,1.5-9.9,2.3c-1.2,0.4-3.9,1-5.8,1.5c-6.7,1.5-14.8,4.2-20.3,6.6c-4.1,1.9-4.3,1.1-0.3-1c5.9-3.1,13.2-5.8,21.1-7.8
		c1.4-0.4,4-1.1,5.7-1.6c3.9-1.1,9.2-2.3,11.9-2.5c1.7-0.2,3.4-0.7,3.4-1C185,230.9,182.6,230.9,181,231 M237.3,233.7
		c0,0,0.4,0.3,0.9,0.6c0.5,0.3,1.4,1,2,1.5c0.6,0.5,2.5,1.6,4.1,2.4c4,2,7.7,5.2,9,7.8c1.8,3.5,3.4,10.2,3.9,15.9
		c0.4,5.7,0.8,8.7,1.4,11.5c0.3,1.5,0.7,4,0.8,5.7c0.2,3,0.3,3.5,0.7,3.1c0.2-0.2-0.2-5-0.7-10.8c-0.2-1.8-0.2-3,0.1-4.1
		c0.4-2-0.3-9.8-1.3-12.9c-0.8-2.6-1.1-4.4-1.3-7.1c-0.4-5-2-8-5-9.5C247.4,235.7,237.3,232.7,237.3,233.7 M227.7,235.9
		c-0.2,0.1,1,0.6,2.7,1.1c3.8,1.2,6.1,2.3,6.3,2.8c0.1,0.2,1.4,1,2.9,1.7c4.7,2.3,8.4,6,10.8,10.9c2,4.1,2.6,5.9,3.8,12.7
		c0.6,3.3,1,1.2,0.4-2.3c-0.2-1.6-0.5-3.8-0.6-4.8c-0.1-1-0.5-2.6-0.8-3.5c-0.4-0.9-0.9-2.4-1.3-3.3c-2.1-5.4-4.7-8.6-8.3-10.2
		c-1.4-0.6-3.8-1.7-5.2-2.4C235.1,237,229,235.4,227.7,235.9 M53.7,237.7c-3.2,1.6-9.6,12-10.6,17.1c-1.8,8.8,0.2,16,7.6,27
		c4.7,7.1,11.3,14.1,14.9,15.8c3.1,1.5,3.1,1.5,5.2-1.3c2.3-3.1,2.3-2.8,0.5-3.8c-8.6-5.2-14.9-18.7-16.4-35.6
		c-0.2-1.8-0.3-3.9-0.4-4.7c-0.4-4,1.3,1.5,2.2,6.9c0.5,3.1,2.3,10.3,3.1,12.4c2.4,6.2,8.3,15.6,10.4,16.7c0.3,0.2,0.1-0.2-0.6-1
		c-5-5.7-7.1-13.1-7.4-26.1c-0.1-5.7-0.2-6.9-0.9-10.4c-0.8-4.2-1.2-6.5-1-6.5c0.4,0,2.8,6.6,3.3,9.6c0.2,0.8,0.4,1.9,0.5,2.3
		c0.1,0.4,0.4,3,0.5,5.6c0.3,4.7,0.7,8.2,1,8.8c0.1,0.2,0.2-1.4,0.2-3.5c0-2.1,0.2-6.8,0.4-10.5l0.3-6.7l-0.9-2.2
		C62.1,239.4,57.6,235.6,53.7,237.7 M170.1,240.3c-7.6,1.3-17.3,4.3-23.6,7.3c-5.4,2.6-15.9,8.9-16.8,10.1c-0.2,0.3-0.7,1.8-1.1,3.3
		c-0.4,1.5-0.9,3.3-1.2,4.1c-0.3,0.7-0.7,3.1-1,5.3c-0.9,6.9-0.9,6.6,0,7.6l0.7,0.9l2.5-2.7c4.9-5.3,8.4-8.2,20.4-17.3
		c1.5-1.1,8-6.3,13.2-10.4c2.4-1.9,5.3-4.2,6.5-5C174,240.3,174.1,239.6,170.1,240.3 M214.7,241.1c-0.8,0.5-1.4,1.1-1.5,1.2
		c-0.1,0.1-0.8,0.8-1.6,1.4c-2.9,2.2-12.5,9.9-12.4,10c0,0,0.7-0.1,1.4-0.2c1.8-0.4,9-0.1,13,0.6c6.4,1,10.2,2.6,13.6,5.5
		c1.7,1.4,1.4,1.5,2.7-0.5c4.9-7.6,12.9-7.1,17.2,1.1c1,1.9,1.2,2.2,1.4,1.8c0.4-0.7,1.1,3,1.7,8.4c0.2,1.5,0.5,4.5,0.8,6.6
		s0.8,5.9,1.1,8.5c0.5,4.5,1.3,7.9,1.5,6.9c0.1-0.3-0.1-1.9-0.3-3.6c-0.2-1.7-0.5-5.3-0.7-7.9c-0.2-2.6-0.5-6.6-0.8-8.8
		c-0.3-2.2-0.6-4.8-0.7-5.7c-0.9-10.2-3.3-14.5-10.1-19.1c-7.8-5.2-10.5-6.1-18.5-6.5c-2.6-0.1-5.1-0.3-5.6-0.4
		C216.2,240.2,215.8,240.3,214.7,241.1 M216.7,243.6c1.4,2.3-0.1,6.2-2.4,6.2c-1.9,0-2.3-2.1-0.5-2.5c0.8-0.2,1.6-1.9,1.6-3.4
		C215.4,243,216.2,242.8,216.7,243.6 M231.7,245.8c2,1.1,0.9,5.4-1.6,6.4c-2,0.8-2.9-1.4-1.1-2.5c1.3-0.8,1.7-1.5,1.6-2.6
		C230.4,245.7,230.8,245.3,231.7,245.8 M148.3,253.1c1.3,1.8-0.5,4.9-2,3.5c-0.6-0.6-0.6-0.8,0.2-1.8c0.4-0.5,0.7-1.2,0.7-1.6
		C147.1,252.3,147.8,252.2,148.3,253.1 M78.1,252.8c0,0.1,0.2,0.6,0.5,1.2c2.1,4.2,4.7,12.8,5.3,18c0.2,1.3,0.4,2.9,0.5,3.7
		c0.4,2,0.3,4-0.2,5.5c-1,3.2,1.9,1.8,3.5-1.7c1.7-3.5-3.3-18.5-8.4-25.1C78.7,253.5,78.1,252.7,78.1,252.8 M117.5,254.2
		c-4,1.7-4.1,1.7-5.4,5.7c-1.1,3.2-1.6,5.7-1.9,8.8l-0.2,2.2l0.9,0.5c2,1.2,4,1.1,2.8-0.2c-1.9-2.1-1.9-3.1,0-8
		c1.2-3,2.2-4.7,4.4-7.3C120.2,253.5,120,253.1,117.5,254.2 M198,256.7c-1.1,0.1-1.9,0.8-1.3,1c0.4,0.1,4.6,0.5,8.1,0.8
		c5,0.4,10.6,2.2,17.3,5.4l4.8,2.3l1.8,2.2c2.7,3.3,4.4,6.1,7,11.7c2.6,5.7,3.7,7.8,5.3,10.1c0.6,0.9,1.4,2.1,1.7,2.7
		c0.9,1.5,0.7,1.1-2.3-5.9c-1.5-3.4-2.8-6.5-2.8-7c-0.3-3-3.7-8.8-7.5-13c-3.1-3.4-10.8-7.4-17-8.8C207.6,257,201.2,256.3,198,256.7
		 M136.2,258.2c1.4,1.8,0,5.2-2.2,5.2c-1.5,0-1.7-1.3-0.3-2.6c0.9-0.8,1-1,0.8-1.9C134.3,257.3,135.2,257,136.2,258.2 M193.7,261.1
		c-2.2,0.4-4.1,0.6-4.2,0.7c-0.1,0-0.3,0.2-0.4,0.5c-0.3,0.6-6.5,5.7-7.6,6.3c-0.8,0.4-2.7,1.9-8.8,6.9c-3.4,2.7-9.2,7.1-14.3,10.7
		c-2.8,2-3.9,3-4.5,4.3c-1.4,2.8-4.3,9.2-4.3,9.5c0,0.1-0.2,0.5-0.5,0.7c-0.4,0.3-0.5,0.8-0.5,1.5c0,2.2,2,2.9,8.6,2.9
		c2.1,0,4.5,0.1,5.3,0.3c3.6,0.7,4.3,0.3,9.8-5.8c6.4-7.2,15.2-13.2,21.7-14.7c1.8-0.4,3.7-0.9,4.1-1.1c0.4-0.2,1.5-0.4,2.4-0.6
		l1.6-0.3l0.2-2c0.3-4.3,1.9-8.5,3.8-10.2c0.3-0.3,0.9-1,1.3-1.5c2.1-2.7,9.6-3.4,14.6-1.2c1.9,0.8,6.1,5.3,9.6,10.4
		c0.3,0.4-0.1-0.6-0.8-2.2C225.6,264.9,209.7,258.6,193.7,261.1 M262.9,265.2l-0.6,0.5l0.4,3.7c0.5,3.9,0.7,4.5,2.1,4.8
		c1.6,0.3,6.3,1,7.2,1.1c2.6,0.3,2.9-1.3,0.4-2.6c-2.4-1.2-3.6-2.4-4.4-4.5C266.7,265,264.6,263.8,262.9,265.2 M198,266.2
		c0.8,1.7,0.3,3.5-1.1,4.4c-2.7,1.7-4.3-0.6-1.8-2.6c1-0.8,1.3-1.2,1.3-1.7C196.5,265.3,197.6,265.2,198,266.2 M241.5,266.8
		c-1.1,1.1-0.9,2.4,0.3,2.4c1.1,0,2.3-2.7,1.4-3C242.5,266,242.3,266,241.5,266.8 M215.8,269.7c-1.3,0.5-1.7,1-1.7,2.3
		c0,1.9,1.3,2.6,3,1.4C219.7,271.6,218.7,268.6,215.8,269.7 M105.9,275.8c-0.4,0.2-1.2,0.7-1.6,1.1c-0.6,0.5-1.1,0.7-1.9,0.7
		c-1.1,0-4.9,2.5-5.2,3.4c-0.2,0.6-3.9,1.6-5.4,1.4c-1.1-0.1-1.1-0.1-2.7,1.8c-2,2.5-3.3,3.6-5.4,4.8c-2.4,1.3-6.7,5.6-8.3,8.4
		c-1.5,2.6-2.5,3.7-3.5,4.1c-1.9,0.8-3.2,4.1-3.8,9.7c-0.7,6.9-0.5,7.6,1.6,7.6c2.9,0,5-2.8,5-6.8c0-2.4,0.3-3.3,1-3.3
		c1,0,3.3,3.7,3.6,5.8c0.2,1,0.6,1.5,2.9,4c1.5,1.6,3.6,3.9,4.7,5.2c3.1,3.6,4.6,5,5.5,5c1.1,0,4.6-2.3,4.6-3.1
		c0-1.1-0.5-2.6-1.2-3.4c-0.4-0.4-0.7-1-0.7-1.2c0-0.8-6.5-10-7.7-10.8c-0.4-0.3-1.2-0.6-1.8-0.7c-3.4-0.6-4.7-2.5-4.8-6.7l0-3.3
		h0.9c0.5,0,1.5,0.2,2.2,0.5c0.7,0.3,1.8,0.5,2.3,0.5c1.6,0,1.9,0.3,2.1,2.2c0.2,2.2,0.6,3,2.1,4.8c0.7,0.8,2.1,2.6,3.2,4
		c1.1,1.4,3,3.9,4.3,5.5c1.3,1.6,2.7,3.4,3,3.9c1.1,1.7,1.3,1.7,3.7-0.1c4.4-3.2,4.4-3.8-0.3-10.8c-4.8-7.3-7.5-10.4-9.6-11.4
		c-2.4-1.1-2.5-1.4-2.7-5.5c-0.1-2.4-0.2-3.1-0.6-3.5c-0.9-1-0.1-0.9,1,0.2c0.7,0.6,1.8,1.4,2.6,1.8c2.7,1.3,5.6,3.4,5.7,4.1
		c0.4,1.9,0.8,2.8,2.6,5.4c8.6,12.7,11.1,14.2,15.9,9.7c0.9-0.8,0.7-2.1-0.8-4.1c-0.6-0.9-1.9-2.8-2.9-4.3c-0.9-1.4-2.4-3.5-3.3-4.5
		c-0.9-1-2.2-2.7-2.9-3.8c-0.7-1.1-2.1-2.8-3.1-3.7c-1.9-1.8-3.4-5.8-2.5-6.7c0.6-0.6,5.8,3.3,6.1,4.6c0.2,0.8,3.2,5,5,7.1
		c0.5,0.6,1.6,2.2,2.5,3.6c0.9,1.4,2.2,3.4,3,4.2c0.8,0.9,1.4,1.7,1.4,1.8c0,0.1,0.3,0.6,0.7,1c1.1,1.3,2.3,1.1,4.4-0.4
		c2-1.5,2.1-2.2,0.2-5.3c-0.6-1-1.3-2.1-1.4-2.4c-0.1-0.3-0.5-1-0.8-1.5c-1.8-3.4-4.4-8.9-4.3-9c0.5-0.5,7.3,8.8,9.2,12.6
		c0.9,1.8,1.3,2.3,1.3,1.8c0.1-0.9-0.9-3.7-1.9-5.4c-1.6-2.5-5.1-7.6-6.3-9.1c-0.7-0.8-1.9-2.5-2.8-3.7
		C116,278.2,109.3,274.3,105.9,275.8 M242.5,281c-0.8,0.9-0.8,1.4-0.2,3c0.4,1,1,0.9,1.5-0.3c0.2-0.5,0.8-1.3,1.3-1.7
		c1.1-0.9,0.8-1.6-0.8-1.8C243.3,280.2,243.1,280.3,242.5,281 M232.7,280.5c0,0.7,2,4.2,2.1,3.7c0.1-0.6-1.1-3-1.7-3.6
		C232.9,280.5,232.7,280.5,232.7,280.5 M264,281.6c-0.2,0.4,0.5,1,1.9,1.3c1.8,0.5,4,2.2,5.3,4.2c1.5,2.3,2.1,2.6,5.1,2.8l2.4,0.1
		l-0.1-1.9c-0.1-2.4-0.8-4.5-1.7-5.2C275.3,281.6,264.7,280.6,264,281.6 M226.8,282.8c-1,1-1.1,2.7-0.2,3.3c2.1,1.5,4.5-1.7,2.8-3.5
		C228.5,281.9,227.8,281.9,226.8,282.8 M166.1,283c1.1,1.4-0.5,4.9-2.3,4.9c-2.2,0-2.4-2.5-0.3-3.3c0.3-0.1,0.7-0.6,0.9-1.1
		C164.9,282.5,165.5,282.3,166.1,283 M47.3,284.5c0.6,3.7,3.5,10.4,5.8,13.2c0.6,0.8,1.4,1.8,1.6,2.3c2,3.9,4.5,6.6,7.8,8.2
		c1.7,0.9,2.2,1,2.2,0.4c0-0.4,1.1-4.2,1.4-5c0.1-0.3-0.1-0.6-0.8-1.1c-1.3-0.8-6.6-5.6-9.9-8.8c-1.4-1.3-3.6-3.9-5-5.8
		c-1.4-1.8-2.7-3.6-2.9-3.9C47.2,283.6,47.2,283.6,47.3,284.5 M199.5,287.2c-4.5,0.4-7.1,1.3-12.6,4.7c-8.6,5.2-11.7,8.8-16.9,19.3
		c-1.2,2.4-1.4,2.6-4.2,4.1c-3.9,2-4.9,5.2-3.7,11.9c0.4,2.2,0.7,2.9,0.7,1.3c0-1.9,1.6-3.6,3.1-3.2c0.8,0.2,2.3,2.5,4.2,6.4
		c2.3,4.8,2.4,5.1,4.3,7.5c2.3,3.1,5.6,5.7,6.3,5c0.1-0.1-0.9-1.8-2.3-3.8c-12.6-18.7-8.1-37.6,11.3-47.3
		c12.3-6.1,28.4-4.9,34.7,2.7c0.4,0.5,1.1,1.2,1.5,1.5l0.7,0.6l-0.2-0.9c-0.3-1.1-2.8-3.6-5.1-5.3
		C216.2,288.1,208,286.4,199.5,287.2 M280.9,294.3c-3.2,0.8-4.9,3.7-3.5,6.1c0.4,0.6,0.7,1.4,0.7,1.8c0,4.2,4.1,17.7,5.5,18.2
		c0.7,0.3,0.3-3.8-0.8-8.4c-1.2-5-1.7-14.7-0.7-14.7c0.1,0,0.6,1.7,1.1,3.8c2.1,9.1,4.3,13.8,3.2,7c-0.4-2.7-0.3-2.7,0.8-0.2
		c1.5,3.6,2.5,3.8,1.9,0.4c-1-5.6-4.3-12.9-6.2-13.8C281.8,294.1,281.8,294,280.9,294.3 M234.7,294.7c-0.8,0.6-1,1.6-0.5,2.4
		c0.5,0.8,1.4,0.8,2.4,0.1C238.2,296,236.4,293.6,234.7,294.7 M194.3,296.2c-5.1,1.5-7.5,3.2-11.6,8.2c-6.7,8-7.4,22.8-1.5,31.6
		c1.1,1.6,1,1-0.3-2.2c-5.8-14.7,2.8-34.4,16.2-37.4c1.9-0.4,2-0.5,1.3-0.7C197.2,295.4,197,295.4,194.3,296.2 M159.3,297.1
		c1.5,2.8-0.5,6.6-2.7,5.1c-1.3-0.8-1.1-2.4,0.4-2.6c0.9-0.2,1.1-1,0.5-2.6C156.9,295.3,158.4,295.4,159.3,297.1 M214.1,297.8
		c0,0.1,1.2,1.1,2.5,2.2c6.9,5.6,9.4,9.7,10.7,17.5c1.7,10.7-4.4,22.3-13.6,25.8c-3.3,1.2-12.9,2-16.5,1.4c-2.8-0.5-2.6,0.3,0.2,1.1
		c6.7,2,19.3-0.5,23.7-4.7c0.8-0.8,1.5-1.5,1.5-1.7s0.6-1.1,1.4-2.1c5.8-6.9,6.9-11.2,5.4-21c-1.1-6.8-5.9-13.7-11.7-16.6
		c-0.8-0.4-1.7-1-2.1-1.4C215.1,297.6,213.9,297.3,214.1,297.8 M203.1,298.9c-0.4,0.1-2,0.4-3.6,0.5c-5.5,0.4-8.9,2.6-12.3,7.8
		c-8.3,12.7-6.5,25.4,4.7,32.1c3.1,1.8,6.2,2.9,8.3,2.7c1.3-0.1,1.5,0-2.5-1.6c-12-4.7-16-16.6-9.7-29c2.9-5.6,6.1-8,12.9-9.5
		c7.8-1.8,11.3-1,17.1,3.7c2.7,2.1,0.8,0-2.1-2.5C211.6,299.4,206.2,297.7,203.1,298.9 M270.2,300.6c-0.4,0.2-1.2,0.8-1.8,1.3
		c-0.6,0.6-1.1,0.9-1.4,0.7c-0.5-0.2-2.2,0.6-2.7,1.3c-0.2,0.3-0.7,0.7-1,0.8c-1.1,0.5-0.8,2.3,1.1,8.2c0.4,1.2,1.4,4.7,2.2,7.6
		c0.8,2.9,1.7,5.9,1.9,6.6c0.5,1.4,1.2,1.9,1.2,1c0-0.4,0.2-0.6,0.8-0.6c1.1,0,1.1-0.3,0.6-4.7c-0.8-6.1-0.6-10.3,0.8-13.5l0.5-1.1
		l0.4,1.3c0.2,0.7,0.7,2.5,1,3.9c0.7,3.1,1.5,5.3,2.1,5.3c0.6,0,0.3-6.3-0.3-7.4c-0.8-1.4-1.5-4.2-1.6-6.5
		C273.7,300.6,272.6,299.4,270.2,300.6 M230.8,302c-0.1,0.1,0.1,0.8,0.4,1.5c2.2,5,4,15.3,3.6,20.3c-0.3,4.1-2,10.8-3.7,14.3
		c-1.1,2.3-0.7,2.5,1.2,0.5c1.7-1.8,2.4-3,3.7-6.2c3.3-8.4,6.2-12.6,8.5-12.4l1.3,0.1l0-1.2c0-1.3-0.9-3.1-1.6-3.5
		c-0.2-0.1-1.1-0.4-1.9-0.7c-4-1.3-6.2-3.5-9.2-9.3C231.6,302.3,231,301.6,230.8,302 M210.8,306.4c-0.4,0.6-1.1,2.2-1.6,3.4
		c-1.1,2.6-2.2,4.7-2.8,5.4c-0.4,0.4-0.3,1.3,0.1,1.3c0.6,0,2-1.2,2.4-1.9c0.2-0.5,1-1.4,1.6-2l1.2-1.1l1,0.4
		c0.5,0.2,1.1,0.5,1.3,0.6c0.7,0.3,0.2-2.8-0.8-4.7C211.9,304.8,211.7,304.8,210.8,306.4 M258.3,306c-0.1,0.1-1.1,0.2-2.2,0.3
		c-2.4,0.1-4.7,0.9-4.8,1.6c-0.1,0.4,0.1,0.5,1.9,0.3l2-0.2l1.4,1.1c2.7,2.1,3.9,5.1,5.1,12.5c0.6,3.4,1.6,7.7,1.7,7.1
		c0.2-1.2-0.6-8.2-1.5-13.1c-0.6-2.9-1-5.7-1.1-6.1C260.7,307.9,258.9,305.4,258.3,306 M194.4,306.4c-0.3,0.4-1.4,4.5-1.6,5.8
		c-0.1,1.3,0.2,1.8,1,1.4c0.8-0.5,1-0.4,2.8,1.2c3,2.8,5.3,3.6,3.7,1.2c-0.7-1.1-2.1-4.3-2.3-5.5c-0.1-0.6-0.5-1.4-0.8-1.9
		c-0.3-0.5-0.8-1.3-1-1.7C195.6,306,194.9,305.8,194.4,306.4 M129.7,309.9c-1.9,1.9-2.4,2.3-3.1,2.3c-1.5,0-1.8,0.3-2.7,2.1
		c-0.6,1.3-1.2,2-2.3,2.9c-2.5,2-1.8,3.2,1.4,2.2l1.9-0.6l1.4,1.4c2.3,2.3,2.9,1.9,4.9-3.1C134.5,308.6,133.9,305.6,129.7,309.9
		 M205,309.6c-0.1,0.3-0.3,0.9-0.4,1.3c-0.4,1.7-1.1,1.7-2.3-0.1c-1-1.4-1.4-1.5-1.8-0.3c-0.6,1.8,1.5,5.8,3,5.8
		c2.3,0,3.9-4.2,2.6-6.7C205.7,308.8,205.3,308.9,205,309.6 M141.7,310.6c-0.8,0.4-1.7,2.7-2.3,5.4c-0.7,3.2-0.6,3.1-3,4.9
		c-3.4,2.6-4.2,5.2-2.9,9.9c0.3,1.2,0.7,2.7,0.8,3.2c0.3,1.9,2.3,3,6.1,3.5c2.8,0.4,2.8,0.5,1.6-3.6c-0.5-1.8-0.6-2.8-0.6-6.8l0-4.7
		l1.1-4.3c1.6-6.1,1.8-6.8,1.5-7.1C143.6,310.7,142.2,310.4,141.7,310.6 M255.5,311.3c-0.4,0.3-0.6,0.7-0.6,1.3
		c0,1.6,1.6,2.3,2.7,1.2C259,312.3,257.1,310.1,255.5,311.3 M150.5,311.5c-2.7,0.9-3.8,4.8-3.8,14.3l0,5.5l0.9,2.5
		c0.5,1.4,1.2,3.1,1.6,3.7l0.7,1.2l1.5-0.2c4.4-0.5,8.3-2.2,7.7-3.3c-1-1.7-1.2-18.7-0.3-22.6C159.1,311.3,153.4,310.6,150.5,311.5
		 M218.7,314.8c0,4.6-1.5,9.7-3.9,14.2c-1.4,2.6,0,4,2.7,2.6c4.3-2.2,5.4-11.3,2.2-18.5C218.9,311.3,218.7,311.6,218.7,314.8
		 M155.4,314.5c1.8,2.2-1.2,5.7-3.7,4.4c-0.8-0.4-0.6-0.8,0.6-2c0.6-0.6,1.2-1.5,1.5-2.1C154.1,313.6,154.6,313.5,155.4,314.5
		 M209.4,315.7c-1.7,1.2-1.7,1.3-0.9,2c2.7,2.3,5.4,0.8,4-2.2C212,314.3,211.3,314.3,209.4,315.7 M194.5,316.4
		c-0.9,1-0.5,2.7,0.9,3.4c1.6,0.8,2.9,0.4,3.3-1.1C199,317.6,195.3,315.5,194.5,316.4 M187.9,318.9c-1.3,2.3-0.1,10.3,2,13
		c1.7,2.3,5.5,1.9,5.5-0.5c0-0.8-0.2-1-2.4-3c-2-1.9-2.8-3.7-3.9-9.5c-0.1-0.3-0.3-0.6-0.5-0.6C188.4,318.3,188.1,318.6,187.9,318.9
		 M202.3,319.3c-0.5,0.2-1.6,0.7-2.5,1.2c-0.9,0.5-1.7,0.8-1.9,0.8c-0.5,0-3.3,2.6-2.8,2.7c0.2,0,1.4-0.5,2.7-1
		c5.2-2.4,10.5-2.4,14-0.2c1.3,0.8,1.2,0.3-0.2-1.1C209.3,319.3,205.1,318.2,202.3,319.3 M203,323.1c-5.8,0.9-8.3,3.3-6.1,5.9
		c0.4,0.4,0.7,0.9,0.7,1.1c0,1.3,2.8,3.6,4.4,3.6c1.2,0,1.2-0.3-0.2-1.2c-3.4-2.2-4-3.9-2.2-5.7c1.8-1.8,3.9-0.9,3.9,1.7
		c0,2.2,0.7,3.3,2.1,3.3c0.7,0,0.8-0.2,1-2.9c0.3-2.8,0.5-3.2,2-3.2c2.9,0,3,3.2,0.1,6.4c-0.9,1-0.9,1.1,0,1.1
		c1.8,0,3.2-2.5,3.4-5.9l0.1-2l-1-0.7C209.4,323.1,206.4,322.6,203,323.1 M258.1,324.8c-0.6,0.7-0.8,2-0.3,2.5
		c0.5,0.5,2.3,0.4,2.6-0.2C261.5,325.2,259.6,323.3,258.1,324.8 M72.8,327.8c-1.6,1.3-5.3,4.2-8.2,6.4c-2.9,2.3-12.4,9.6-21,16.4
		L28,362.9l-0.1,3.1c0,1.7,0,3.3,0.1,3.6c0.1,0.4,3.6-2.2,21.8-16.3c11.9-9.3,23.7-18.5,26.3-20.5c5.4-4.1,5.2-3.8,2.2-5.8
		C75.7,325.2,76.2,325.1,72.8,327.8 M294.4,328.3c-0.3,0.2-0.6,0.7-0.6,0.9c0,0.8-2.1,4.8-2.7,5.3c-0.3,0.2-0.9,1-1.4,1.8
		c-0.7,1-1.1,1.4-1.5,1.4c-2.1,0-2.4,1.7-1.1,6.6c0.5,2,1.7,6.5,2.5,10c0.9,3.4,2,7.7,2.5,9.5c0.5,1.8,1.3,4.2,1.6,5.3
		c1.3,4.6,2.1,6.8,2.7,7.5c0.3,0.4,0.8,0.9,0.9,1.2c0.6,1.1,0.7,0.5,0.2-1.1c-1.9-6.1-5.9-25.3-6.7-32.1c-0.4-3.6-0.6-3.1,1.8-6.9
		c0.8-1.4,1.8-3,2-3.7l0.5-1.1l0.4,0.8c0.2,0.4,1.2,3.2,2.2,6.1c2.7,8,3.1,9.2,3.5,9.2c0.5,0,0.5-0.2-0.1-2.2
		c-0.3-0.9-0.7-2.7-1-3.8C297.4,330.2,296.2,327.1,294.4,328.3 M155.7,329.8c1.7,3.3-1.9,7.9-4,5.2c-0.9-1.2-0.3-2.5,1.2-2.5
		c0.8,0,1.5-1.2,1.5-2.7C154.3,328.4,154.9,328.4,155.7,329.8 M140.2,330.6c0.9,2.8-2.7,6.1-4,3.7c-0.4-0.7,0-1.4,1.2-2
		c0.7-0.4,1-0.8,1.4-1.8C139.3,329,139.7,329,140.2,330.6 M72.1,340.6c-5.7,4.5-12.3,9.6-14.5,11.3c-2.3,1.8-6.1,4.7-8.5,6.7
		c-6.9,5.5-10,7.7-8.4,6.3c3.1-2.9-5.2,3.6-11.3,8.9c-1.4,1.2-1.7,1.9-1.2,2.7c0.2,0.3,1.2-0.5,3.9-2.7c2-1.7,14-11,26.5-20.7
		c27.9-21.6,25.1-19.4,24.8-20C82.9,332.1,82.9,332.2,72.1,340.6 M76.3,342c-4.6,3.5-17.2,13.1-28,21.4
		c-10.8,8.3-19.8,15.1-19.9,15.2c-0.1,0.1-0.2,0.4-0.2,0.8c0.1,0.7-1.2,1.6,33.6-25.5c9.6-7.5,18.7-14.6,20.3-15.7
		c2.6-2,3.2-2.5,2.6-2.5C84.7,335.7,80.9,338.5,76.3,342 M196.5,336.4c0,0.5,2.3,2,4.4,2.9c1.9,0.8,1.7,0.8,1.7-0.1
		c0-1.6,1.4-1.4,1.9,0.3c0.4,1.4,0.7,1.8,1.4,1.8c0.5,0,0.6-0.3,0.9-2.2c0.3-2.3,1.8-2,1.8,0.3l0,1.5l1.9-1.9c1-1,1.9-2,1.9-2.1
		c0-0.1-3-0.2-6.7-0.2c-4.1,0-7.2-0.1-7.9-0.3C196.7,336,196.5,336.1,196.5,336.4 M105.6,339.6c-0.2,0.4-0.5,1.6-0.7,2.7
		c-0.2,1.1-1.3,4.6-2.4,7.9c-5.3,15.6-8.3,25-10.8,34.4c-1.6,6-1.6,6.1,0,3.4c1.7-2.8,4.2-5.9,6.1-7.5c0.8-0.7,3.2-3,5.3-5.1
		l3.8-3.8l1.6-4.1c1.4-3.7,3.5-9.9,3.5-10.4c0-0.1-0.2-0.2-0.5-0.2c-1.9,0-1.3-2.5,0.7-3.1c1-0.3,1-0.3,1-1.6v-1.3l-1.4,0
		c-1.6,0-1.9-0.5-0.6-1l0.8-0.3l-0.6-0.8c-0.3-0.4-1.1-1.4-1.7-2.2c-0.6-0.8-1.1-1.5-1.1-1.6c0-0.8,6.8,3.1,7.4,4.2
		c0.7,1.4,0,5.6-1.5,8.5c-0.3,0.6-0.8,2-1.1,3.1c-0.3,1.2-1.2,4.1-2,6.5c-0.8,2.4-1.7,5.6-2,7.1c-0.3,1.5-1.3,5.5-2.2,8.9
		c-2,7.9-3,12.5-2.8,12.8c0.5,0.5,1.2-0.7,2.1-3.4c1.8-5.7,3.8-12.6,6.1-21c2-7.4,2.4-8.7,4.8-16.4c2.5-7.8,2.5-8.8,0.1-9.5
		c-1-0.3-4.6-2.6-5.9-3.9c-0.4-0.3-1.1-0.8-1.5-1c-0.5-0.2-1.4-0.7-1.9-1.1C106.6,338.7,105.9,338.7,105.6,339.6 M108.5,348.5
		c0.7,1.2-1,4.3-2.4,4.3c-1.8,0-1.9-1.8-0.2-2.5c0.6-0.3,1-0.6,1.2-1.3C107.5,347.8,108,347.7,108.5,348.5 M268.2,348.8
		c-6.8,1.6-10.7,2.8-11.3,3.4c-0.1,0.1-0.8,0.3-1.5,0.3c-0.7,0-1.6,0.1-2,0.3c-0.4,0.2-1,0.3-1.3,0.3c-1.1,0.1-1.3,0.5-1.2,4.2
		c0,2.9,0.1,3.7,0.6,4.7c0.7,1.4,0.8,2,3,12.8c1.4,7.1,1.7,8.8,1.5,9.8c-0.2,1,0,2.1,0.8,5.8c0.6,2.5,1,4.8,1,5.1
		c0,0.3,0.2,0.9,0.4,1.3c0.2,0.5,0.6,1.4,0.8,2.1c0.5,1.3,1.1,1.7,2.2,1.5c0.8-0.2,0.7-1.2-1-7.8c-0.9-3.5-2-8.4-2.4-10.9
		c-0.5-2.5-1.1-5.9-1.5-7.6c-0.4-1.7-1.1-5.5-1.6-8.4c-1-5.7-1-5.8,0.1-8.3c0.5-1.3,0.7-1.5,1.2-1.4c0.1,0,0.4-0.1,0.7-0.4
		c0.3-0.2,1.1-0.5,1.8-0.5c0.7-0.1,2.6-0.6,4.3-1.1c1.7-0.5,5-1.4,7.5-2c4.9-1.3,5-1.3,2.7-2.5c-0.5-0.3-1.1-0.7-1.3-0.8
		C271.3,348.1,270.9,348.1,268.2,348.8 M138.9,352.1c-2,1-2.6,2.6-4.3,11.8c-0.8,4.4-3.2,15.3-5.7,26.1c-1.5,6.4-2.3,10.4-2.2,10.7
		c0.1,0.4,2.1-6.8,4.2-15c0.9-3.5,2.4-9.1,3.7-13.2c1.5-4.9,2-7.1,2.8-11.3c1.2-7.1,2.7-8,9.5-5.8c2.8,0.9,1.9,2.2-1.3,1.9
		c-3.4-0.3-4.9,0.8-5.4,3.9c-0.7,4.6-1,6.2-1.2,6.9c-0.4,1.2-2.7,14.7-3.9,22.5c-0.7,4.5-1.2,7.7-1.4,8.4l-0.2,0.6l0.8-0.6
		c3.8-2.8,14.8-20.9,17.6-28.8c1.7-5,1.7-5,0-4.1c-0.9,0.5-1.4,0.4-1.9-0.5c-0.8-1.2,0.2-2.3,1.8-2.3c0.7,0,1.1-0.9,0.8-2
		c-0.1-0.5-0.1-0.7,0.3-0.7c0.5,0,1.4,1.6,1.4,2.4c0,0.2,0.2,0.9,0.6,1.4c0.5,1,0.6,1.3,0.4,13.3c-0.1,8.4-0.1,12,0.1,11.5
		c0.3-0.9,1.9-12.1,2.2-15.2c0.1-1,0.5-4.6,0.9-8c1.4-11.5,1.4-12.7-0.9-12.7c-0.5,0-1.3-0.2-1.9-0.4c-1.6-0.7-3.3-0.9-8.9-1.2
		c-2.9-0.2-5.6-0.3-6-0.4C140.6,351.4,139.8,351.7,138.9,352.1 M271.9,356.3c2.2,0.8,4.1,2.4,4.6,3.9c1.2,3.2,2.2,6.9,4,13.7
		c2.3,9,4.8,15.9,5.9,15.9c0.7,0-1.7-10.2-4.7-20.5c-0.5-1.8-1.4-4.9-1.9-6.7c-1-3.9-1.2-4.2-2.2-4.9c-2-1.3-3.8-2-5.6-2l-1.8,0
		L271.9,356.3 M167.4,360.7c0,3.3,0,3.4,2,4.4c0.6,0.3,1.4,0.8,1.8,1c0.4,0.3,2.2,1.3,4.1,2.3c1.9,1,5,2.7,7,3.9
		c4.1,2.4,4.7,2.7,10.6,5.5c5.6,2.6,6.1,2.8,9.6,2.6l2.7-0.1l7.4-3.8c11.5-5.8,24.7-13.9,17.3-10.7c-0.6,0.3-2.5,0.8-4.1,1.2
		c-1.7,0.4-5,1.2-7.4,1.8c-6.6,1.7-9.7,2.3-10.3,1.8c-0.2-0.1-1.7-0.4-3.4-0.6c-2.5-0.3-3.5-0.6-5.6-1.5c-1.4-0.6-4.1-1.6-6.1-2.2
		c-2-0.6-4.5-1.4-5.7-1.9c-1.2-0.5-3.5-1.3-5.2-1.7c-3.2-0.9-5.2-1.7-8.9-3.4c-1.6-0.8-2.8-1.1-4.1-1.3l-1.8-0.2V360.7 M270.5,359.9
		c-0.2,0.3-0.4,0.9-0.4,1.4c0,2.1,2.7,2.7,3.7,0.9C274.6,360.7,271.7,358.6,270.5,359.9 M145.5,360.2c1,1.9-1.2,5.1-3,4.2
		c-1.4-0.6-1-2.1,0.6-2.5c1-0.2,1.6-0.9,1.6-1.6C144.7,359.5,145.1,359.5,145.5,360.2 M151.8,360.6c0.1,0.2-0.4,0.2-1.3,0.2
		c-0.9-0.1-1.3-0.2-1-0.3C150,360.1,151.7,360.2,151.8,360.6 M261.1,360.7c-2,0.8-1.2,4,1,4c1.2,0,1.8-0.6,2.1-1.9
		C264.4,361.2,262.7,360.1,261.1,360.7 M165.9,369.1c-1.2,1.9,2.1,5.1,11.8,11.5c8.5,5.6,20,11,22.1,10.5c0.3-0.1,0.8,0.1,1.3,0.3
		c1.1,0.6,2.6,0.2,6.1-1.9c1.5-0.9,4.8-2.7,7.2-4c5.6-3,6.4-3.7,2-1.7c-12.9,5.9-18,6.7-21.8,3.4c-0.6-0.6-1.9-1.5-2.9-2
		c-1-0.6-2.8-1.7-4.1-2.5c-1.3-0.8-3.1-1.9-4-2.4c-7.2-4-11.8-7.1-15.3-10.3C166.4,368.2,166.5,368.3,165.9,369.1"/>
</g>
</svg>
