<svg xmlns="http://www.w3.org/2000/svg" viewBox="0 0 400 400"><path d="M325.9 11.4c-1.4 2.4-2.8 4.6-3.7 6-.5.8-1.2 1.9-1.4 2.3-.2.5-.7 1.2-.9 1.5-.7.9-4.7 7.7-5.5 9.3-.4.8-.8 1.4-.8 1.5-.1.1-.9 1.6-1.8 3.4-1.6 3.2-5.3 9.9-5.7 10.4-.1.1-1.4 2.7-2.9 5.6-1.5 3-3.2 6.1-3.7 7-.5.9-1.3 2.3-1.6 3-.4.7-1 1.8-1.5 2.5-.5.6-1.4 2.1-2.1 3.1-2.3 3.7-3.5 5.6-4.2 6.5-.4.5-.9 1.2-1 1.6-.5 1-.5 1.1 3.8-4.7 1.5-2 1.9-2.4 2.2-2.8.3-.3 2.2-3.1 3.5-5.3.5-.8 1.1-1.6 1.2-1.6.1-.1.2-.2.2-.3s.1-.3.3-.4c.2-.1.6-.7 1-1.5s1.3-2.3 1.9-3.5c.7-1.1 2.4-4.4 3.8-7.3 3.1-6.2 4.8-9.2 5-8.9.1.1-.4 1.1-1 2.2s-1.5 3.1-2 4.4c-1.1 2.6-2.6 5.6-4.6 9.9-.8 1.6-1.5 3.1-1.6 3.4s-.5 1.2-.9 2.1c-.4.9-1 2.3-1.2 3-.7 2-2.9 6.6-3.8 8.2-.5.8-1.2 2.1-1.5 2.9s-1.1 2.2-1.6 3c-.5.8-.9 1.6-.9 1.6.6.6 2.2.9 1.8.4-.2-.2-.1-.4.2-.9.7-1.1 2.5-4.6 4.2-8.1 2.2-4.5 2.5-5 2.6-5 .1 0 0 .5-.3 1-.2.6-.6 1.5-.8 2-.5 1.3-1.4 3.5-2 4.8-.6 1.3-.7 1.7-.2 1.3 1.3-1.1 2.3.7 1.5 2.7-.2.5-.3 1-.2 1 .4.4 1.6-2.4 2.6-6 .2-.7.5-1.8.7-2.3.2-.6.6-1.9.9-2.8.3-1 .9-2.6 1.3-3.7.8-2.1 2.8-7.7 3.3-9.4.4-1.6 2.3-6.7 3.3-8.8.5-1.1 1.3-2.9 1.7-4 .5-1.1 1.2-2.8 1.6-3.6.4-.9.9-1.8.9-2.1.1-.3 1.5-3.1 3-6.3 3.2-6.6 4.4-9 4.9-10.7.6-1.9 1.7-4.5 2.4-5.4.4-.5.9-2.4.9-3-.1-.6-.8-.2-1.3.8m-16.4 5.2c-.5.8-1.2 2-1.6 2.5l-2.2 3.7c-1.6 2.9-2.3 3.9-5 7.5-2.5 3.3-5.7 6.2-9.8 8.9-5.5 3.6-6.2 4-6.2 4.1 0 .4 4.8-1.7 7.5-3.3 1.4-.8 4.9-3.5 5.1-3.9l2.6-2.8c1.4-1.4 2.5-2.6 2.5-2.7 0-.1.1-.3.2-.5s.3-.4.5-.6c.3-.6.6-.6.5.1 0 .3-.1.6-.2.6s-.1.2-.2.4c0 .5-1.2 3.3-1.6 3.9-.2.3-.6 1.1-.8 1.8-1.2 3.7-6.8 7.9-14.5 10.9-3.7 1.4-6.4 4.1-8.6 8.6-2.2 4.4-2.6 5.9-2.6 9.2 0 3.6-.7 3.4-1.3-.3-.7-4.2-.1-10.3 1.4-13.5.6-1.2 2.5-4.2 2.8-4.3.1 0 .2-.2.2-.4s-.1-.3-.3-.2c-1.6.6-3.8 1.3-4.4 1.3-.9 0-1 .1-1.5 2.7-.7 3.4-.7 9 0 12.7.3 1.6.7 3.5.8 4.3.3 1.9.6 2.7 1.9 5.2.6 1.1 1.3 2.6 1.5 3.3.7 1.9 1.6 3.3 3.1 4.7.9.8 1.6 1.7 2.4 3 1.6 2.6 1.8 2.7 2.2 1.4.9-2.7 2.6-4.5 5-5 .9-.2 1-.3.7-.5-.4-.3-1.2-1.5-1.4-2-.1-.2-.2-.4-.3-.3-.2.1-2.7-2.6-3.1-3.4-4.5-8.8-1.4-20.4 6.6-24.4 1.2-.6 3.1-1.6 4.2-2.3 1.1-.7 2.3-1.3 2.6-1.5 2.1-.8 2.8-2.6 8.8-20.4 1.2-3.5 2.4-6.9 2.8-7.6 1.3-2.9 1.1-3.3-.3-.9m-145.9.1c-.8.9-3.5 5.4-4.7 7.8-2.1 4.2-2.2 4.5-2.8 8-.2 1-.5 2.7-.7 3.9-.5 2.9-.6 9.1-.1 11.7.4 2 .4 2.3.1 1.8-.1-.2-.8-.7-1.6-1.2s-1.4-1-1.5-1c-.1-.1-.8-3.7-.9-5-.1-.7-.2-2.1-.3-3-.1-1-.2-2.2-.2-2.7v-.9h1.1c1.2 0 1.2 0 1.4-1.4l.1-.9h-2.8v-4c0-4.8 1.2-11.1 2.3-11.8.4-.3.4-1.2 0-1.1-.9.1-3.2 5.4-4 9.3-.3 1.5-.4 10.5-.2 13.7.3 3.2.7 6.1 1.2 7.3.1.2 0 .2-.4.2-.4-.1-1.3-1.5-1.4-2.2 0-.2-.7-2.4-.8-2.8-.1-.2-.1-.4-.2-.5 0-.1-.2-.8-.5-1.4-.5-1.5-.5-1.6-.1-1.9.3-.2.3-.4.1-1.8-.3-2.1-.3-2.1-.9-2-.7.2-.7-.2-.8-4.8l-.1-4 .6-2.2c.3-1.2.7-2.3.9-2.5.3-.4 1-2.3.8-2.5-.4-.4-3.1 4.6-3.7 7-.5 2-.8 6.3-.5 7.9.1.8.3 1.7.3 2.2.1 1.3.7 3.9 1 4.5.1.3.5 1.7.8 3.1.3 1.4.7 2.8.8 3.2s.3.7.2.7c0 0-.5.2-1 .3-.5.1-.9.3-.9.4 0 .2 3.2 1 4.3 1.1 2.2.2 2.9.5 4.7 2.1l.9.8-.8.1c-.7.1-.9.1-1.5-.4-.4-.3-.9-.5-1.2-.6-.3-.1-1.1-.4-1.7-.7-3.5-1.8-7.9-2.2-13.5-1.5-1.3.2-3 .4-3.9.5-5.9.7-12.7 3.6-17.8 7.6-2.2 1.7-6.9 7.1-8.4 9.5-.3.5-.9 1.5-1.4 2.2-1.3 1.9-2.8 5.1-3.4 7.1-1 3.1-1.4 5-1.3 5.3.2.4.5.4.7-.1.1-.2.4-1 .7-1.7 1.3-3.2 1.9-4.6 3.2-6.4.7-1.1 1.7-2.5 2.1-3.1 1-1.5 2.5-3.3 3.6-4.3.5-.4 1.6-1.4 2.4-2.2.9-.8 1.7-1.4 1.8-1.4.1 0 .4-.2.5-.3.1-.2.6-.6 1.1-.9l.8-.5-.1 1c-.2 2.4.9 5.2 2.2 5.2 1.5 0 4.9-.6 7.3-1.3 3.1-.9 4.1-1 7-.6 6.4.9 7.5 1.7 8.1 6.4l.1.9-.4-.7a6.32 6.32 0 0 0-4.8-3.2c-1.8-.3-4.3-.4-3.2-.1 3.3.9 5.7 3.2 6.5 6.3.4 1.4.3 1.8-.2.8-.6-1.1-2.2-2.5-3.6-3.2-1.5-.7-1.5-.7-.7.7.6 1.1 1.2 2.4 1.4 3.4.1.5.1.5-1-.8-.9-1.1-.9-.7-.2 1.8.4 1.5.5 2.1.4 3.7 0 1-.1 3.2-.1 4.8v2.9l1.1 3.3c2.9 8.6 9.2 15 15.8 16.1 1.8.3 6.1 1.3 6.6 1.6.5.3.6.2.5-.1-.1-.2 0-.3.1-.4.2-.1.1-2.1-.2-2.6-.1-.2-.6-.6-1.2-.8l-1-.5-1.4.3c-1.4.3-2.5.2-1.7-.1.2-.1.8-.2 1.4-.2.7 0 1-.1.9-.2-.2-.3.7-.1 2.5.6s2.3.6 2.8-.6c.3-.8.1-2-.5-2.6-.6-.5-.1-1.4.6-1.3.3.1.7 0 1-.3.3-.2.6-.5.9-.5.2-.1.5-.3.7-.5.1-.2.4-.4.6-.4 1 0 1.6-3.1 1-4.7-.1-.3-.2-.6-.2-.7 0-.3.8.6 1 1.1.1.3.3.6.3.6.2 0 1.8-1.2 2.5-1.9l.7-.8-.3-1.3c-.3-1.4-.4-1.9-.1-1.2.7 1.9 4.1-1.7 4.9-5.2.3-1.5.3-3.5-.1-3.5-.3 0-1.8.7-2 1-.5.6-.9.7-.5.1.5-.7 1.2-1.4 2.1-1.9 1.2-.6 3.3-4.7 3.3-6.3 0-.1.2-.6.5-1.2.3-.5.5-1 .4-1.1-.1-.1-.1 0-.1.1s-.2.2-.4.2c-.3 0-.4-.2-.3-.9 0-1.3-.1-3.6-.2-3.9-.1-.3-1.4.4-1.4.7 0 .1-.1.2-.2.2-.2 0-.1-.1 0-.3.5-.6 0-.5-.6.1-1.1 1.1-2.3 1.6-2.3.9 0-1.3-1.8-1.9-2.7-.9-2.5 2.6-.3 5.3 2.4 3 .3-.3.4-.3.3 0-.2.7 1.3 1.6 2 1.2.5-.3.6 0 .1.4-.7.5-1.7.5-2.4 0-.6-.4-.6-.4-1.2-.1-1.8.9-4-.8-3.2-2.5.2-.4.2-.5-1.5-.7-2.8-.4-3.4-2.2-1.3-4.2l1-1-.1-1.5c-.1-.8-.2-1.8-.2-2.2-.1-.7-1-2.5-1.7-3.2-.8-.8-2.7-2.4-2.9-2.4-.2 0-.2-.4-.1-1.4.1-.8.2-1.8.2-2.2.1-1.9.3-4 .5-4.8.1-.5.2-1.1.3-1.5.1-.3.2-.9.3-1.3.1-.4.3-.9.3-1.1.7-3.3 2-7 3-8.6.5-.8 1.5-2.5 2.1-3.8 1.4-2.8 4.7-7.9 5.9-9 .2-.2.4-.5.4-.6 0-.1.1-.3.3-.5.4-.4.2-.8-.3-.5-.8.4-3.2 3-4.9 5.3-1 1.3-1.8 2.4-1.9 2.5-.2.2-1.5 2.2-2.3 3.6-.4.8-1 1.7-1.2 2.1-.2.4-.7 1.4-1 2.1-.3.8-.9 2.2-1.2 3.3-1.5 3.9-2.5 9.1-2.5 12.7 0 1.8-.4 1.3-.6-.9-.1-.9-.3-2.2-.4-2.7-.4-2.3-.6-8.5-.3-10.1.1-.5 1-.6 2.2-.2.3.1.8-1 .8-1.6 0-.2-.5-.4-1.3-.7l-1.3-.4.3-1.3c.2-1.3.5-2.1 1.8-6.7 1.1-3.6 1.4-4.3 3.1-7.5.9-1.7 1.6-3.1 1.6-3.2-.2 0-.7.1-1.1.6m21.8 8.3c-.4.4-2 3.1-2.6 4.3-.1.3-.6 1-.9 1.6-.3.6-.6 1.2-.5 1.3.1.1 0 .2-.1.2-.3 0-1.6 2-1.6 2.5 0 .2-.1.4-.3.4-.3 0-1.1 1.4-1.1 1.9 0 .2-.1.4-.2.3-.2-.1-1.2 1.7-1.2 2.2 0 .2-.1.4-.3.5-.4.1-1.1 2.4-1.1 3.4 0 2 1 3.2 3.2 3.7.8.2 1.7.5 2.1.7.9.5 1 .5 1-.1 0-.3-.3-.8-.6-1.3-1.3-1.7-1.2-1.6-.8-1.6.2 0 .7.4 1.2.8l.9.8.2-.6c.4-.9.1-2.1-.7-3.2-.4-.6-.6-.9-.4-.7.2.2.5.3.6.3.1 0 .4.2.6.5.6.6.7.5 1-.9.3-1.4.1-2-1.1-3.4-.7-.7-.7-.8-.2-.6.7.2 1.3.6 1.6 1.2.4.7.5.6.9-.8.3-1.1.3-1.4.1-2.2l-.2-1s-.1-.3-.4-.5c-.6-.6-.1-.6.6 0 .6.5.6.4.8-1.6.1-.9 0-1.6-.1-2-.1-.3-.1-.5 0-.4.3.2.3-.1.5-2.9.1-2.9-.1-3.6-.9-2.8m7.2.1c0 .3-.1.9-.2 1.3s-.2.9-.3 1.2c-.1.3-.3 1.2-.5 2.1-.4 1.8-.5 3.1-.2 2.6.1-.2.3-1.1.5-2 .2-.9.5-2.5.7-3.5.3-1.3.3-1.9.2-2-.2-.2-.2-.1-.2.3m140.4.2c-.7.6-2.7 3.3-3.5 4.7-1 1.8-2.2 3.6-3.1 4.6-.4.5-.8 1-.8 1.1 0 .1-.2.4-.4.6-.6.7-2.9 5-3.4 6.4-.4 1.3-.7 1.8-1.5 2.9-.3.4-.6 1-.7 1.4-.1.4-.3 1-.5 1.3-.5.8-.5 1.5 0 1.4.3-.1.9-.9 1.8-2.6.2-.4.8-1.2 1.2-1.7s1.2-1.7 1.7-2.8c1-2 1.6-2.9 1.6-2.6 0 .1-.8 1.7-1.7 3.5-2.6 5-3.1 9.3-1.9 15.8.6 3.3.7 6.7.2 8.2-.2.5-.5 1.5-.6 2.1-1 3.5-3.1 6.4-6.6 9-5.7 4.3-13.3 6.5-14.3 4.3-.5-1 .1-1.3 6.1-3.4 5-1.7 6.8-2.8 9.7-6 .2-.2.4-.5.4-.5s.2-.4.5-.8.6-1.2.7-1.7.4-1.3.6-1.7c1.3-2.1 1.1-8.8-.4-12.2-.4-.9-.5-1.7-.6-2.8-.1-1.7-.4-2.1-1-1-.3.6-.2 6.2.2 7.1.2.6.3 4.3.1 5.8-.6 4.4-3.7 8.7-7.9 10.8-.6.3-1.1.6-1.3.8-.1.1-1.3.5-2.5.9s-2.4.8-2.5.9c-.2.1-1 .5-1.9.8-.9.3-2.2.9-3 1.3-1.5.8-2 .8-2-.1 0-.2-.1-.4-.3-.4-.2 0-.3.1-.2.2.2.3.1.3-1.5-.2-4.4-1.3-7.9 1.1-8.3 5.6-.3 3 1.9 5.1 4.4 4.3.8-.2.4.1-.5.5-.5.2-1.1.5-1.2.7-1 .8-4.7 2.1-5.8 1.9-1.4-.2-.8-1.7 1.1-2.8l1.2-.7-.3-.5c-.2-.3-.4-.5-.6-.4-.2.1-1 .3-2 .6s-2 .7-2.5 1c-.5.3-1.1.7-1.5.9-6.3 3.9-10.3 12.3-11.1 23.4-.1 1.5-.2 3.2-.3 3.7-.2 2.2-2.6 8-3.3 8.1-2.5.4-4.5 1.9-5.6 4.2-1.3 2.6-1.4 3.3-.3 1.8.8-1.2.8-1.2 1.2-.8.6.6 1.3.4 2.1-.6.3-.4.3-.1-.3 1-1 2-1.3 2.8-1.2 3 .2.2-.4 1.5-1.3 3.1-.5.8-.9 1.5-.9 1.4 0-.1-.1-.3-.1-.5s-.1-.7-.2-1.1c-.1-.5-.2-.7-.5-.7-.5 0-.5.3-.5 2.7 0 1.1-.1 2.1-.2 2.2-.2.2-4 7.5-5.6 10.8-1.3 2.6-1.8 3.8-2 4.6-.1.3-.3.7-.4.8-.4.3-.4 1 0 1.5.3.5.5.3 1-.9.4-.9.7-1.6 3-5.3.7-1.2 1.6-2.7 1.9-3.3.3-.6.8-1.3 1-1.7l.5-.6-.3.6c-.4.8-.8 1.7-1.3 3-.2.6-1.1 2.4-1.9 4-2.5 5.2-2.6 5.5-1.8 5.7.7.2.7.2.7-.3s1.7-3.8 2.1-4.1c.3-.2.3-.2.1 0-.1.2-.2.5-.2.7 0 .2-.2 1-.4 1.8-.5 1.6-.4 1.8.5 1.4.7-.3.7-.4 1.2-2 .8-2.6 2.8-6.1 4.5-7.8.9-.9 3-3.4 4.1-4.7 1.1-1.4 2-2.3 3.1-2.9.5-.3 1-.7 1-.9.1-.2.3-.6.5-.8.7-.9.3-1.4-.5-.6-.8.8-1.8.6-2-.3-.2-1.2.7-4.5 1.6-6 .3-.4.5-.9.5-1 0-.2.1-.3.9-1.3l.5-.6-.1.8c-.3 1.6-.2 1.8.1 2.5.4.6.4.6 1.2.5.8-.1.8-.1.7.3-.3.6-.2.7.2.2l.4-.5-.1.7c-.1.9-.7 2.1-1.5 3l-.6.7.6-.4c3.1-2.2 4.1-4.9 3.1-8.4-.1-.4-.1-.5.2-.4.6.2.5-1.1-.2-1.9-.4-.4-1.1-.4-2.4 0-1.3.5-1.4.4-.7-.3 1.5-1.3 3.8-1.9 4.5-1.2.4.4.8.1 4.3-3.4 2.2-2.1 4.1-5.2 4.9-8.1.2-.8.5-1.5.6-1.6.6-.8 1.6-5.8 1.2-5.8-.1 0-3 2.3-4.5 3.6-2.9 2.5-7.8 7.6-7.8 8.2 0 .6 3.1-1.9 4.3-3.4 1.6-2.1 3.4-2.9 3.4-1.5 0 .9-3.2 4.3-5.3 5.6-5 3.2-7.1 5.2-9.2 8.8-.5.9-1.1 1.7-1.2 1.7-.1 0-.2.1-.2.2 0 .3-1.6 2.9-1.9 3.2-.3.2-.3.2-.1-.1.1-.2.2-.5.3-.7.1-.2.2-.3.3-.3.1 0 .1-.1.1-.2-.1-.2 2.9-6.2 4.3-8.5 1.4-2.2 1.5-2.7 1.7-8.5.2-5.8.8-9 1.9-11.7.1-.3.6-1.4 1-2.3 1.8-4.2 4.2-4.1 3 0-.8 2.7-1.3 5.8-1.6 8.7-.2 1.6-.3 3.2-.4 3.6 0 .3 0 .6.1.6s.2-.2.2-.4c0-1.1 1.4-5.6 2.7-8.9.4-1 1.3-2.6 2.3-4.2 1.5-2.3 6.5-6.5 10-8.2 4.2-2.1 6.6-5.6 5.4-7.9-.9-1.7-4-1.2-4.4.7-.2.8-.6.6-.8-.4-.3-1.4 1.8-3.6 3.4-3.6 2.3 0 4 2.1 4 4.9 0 3.1-1 4.1-7.5 7.9-5.1 2.9-7.1 4.8-8.9 8.3-1.1 2.2-1.8 6.2-1.3 7.1.6 1.1.9.9 5.4-3.6 2.4-2.3 4.9-4.6 5.6-5.2 2.8-2.2 4.4-4 7.2-8 1.7-2.4 3.1-5.7 3.1-7.5 0-2.4.4-2.1.9.5.2 1.1.2 1.5-.1 2.9-.1.6 0 .7.7.2 1.7-1.2 6.3-3.1 9.8-4 4.4-1.2 6.1-1.8 10.1-3.8 2.6-1.3 3-1.5 6.2-3.4 1.1-.7 2.4-1.4 2.8-1.6.4-.2.7-.4.7-.6 0-.1-.4-1.1-.9-2.1-.8-1.9-1.8-5.4-2.2-7.5-.1-.6-.4-1.9-.6-2.8-.9-4.2-1.2-10.9-.5-12.7.1-.2.1-.5.2-.8.1-.3.2-.8.3-1.3.1-.4.3-1.5.5-2.3.2-.8.3-1.8.4-2 .1-.3.1-.6.2-.7 0-.1.1-.4.2-.7.1-.3.2-.8.4-1.3.1-.4.3-1.1.5-1.4.1-.3.3-.7.3-.8 0-.1.1-.6.3-1.1.7-2.2 1.9-5.5 2-5.8.7-1.4 1.1-2.7 1.3-3.2.1-.4.3-.9.5-1.3s.4-.8.4-1c0-.2.3-.8.7-1.5.7-1.7.6-2.9-.6-1.8m-158.4 3.9c-.8.3-1.7.9-2.4 1.5s-1.3 1.1-1.5 1.2c-.4.1-2.9 3.3-2.9 3.7 0 .1-.1.2-.3.1-.3-.1-1 .6-2.2 2.5-1.6 2.4-1.9 4.5-.9 5.7.2.2.2.3.1.3s-.2.1-.1.2.2.1.4-.1.4-.3.9-.2c.3.1.6.1.6 0-.1-.4.1-.4.5-.2.4.3 3.4.6 3.5.3.1-.1-.7-2.5-.9-3-.1-.2.2.1.6.5.4.4.9 1.1 1 1.5l.3.7.5-1.5c.4-1.1.5-1.9.5-3.2 0-1.2.1-1.6.2-1.3.1.2.2.4.3.4.3 0 1.8-3.8 1.8-4.5 0-.8.2-1 .5-.6.1.1.5-.5 1-1.4l1.1-2c.7-1.2-.4-1.4-2.6-.6m125.9 5.3c-.3.6-.9 1.7-1.4 2.3-1.4 1.9-1.4 1.8-.9 1.5.6-.5.8-.6 1.4-1.6.7-1.1 1.7-3.1 1.6-3.3-.2 0-.4.4-.7 1.1m-161 3.2c-3 1.5-3 1.5-3 1.7 0 .1-.1.1-.2.1-.3 0-5.5 3.5-6 4-.2.2-.7.6-1.2.9-1.1.7-2.8 2.4-2.8 2.7 0 .1-.3.5-.6.8-.6.6-.8 1.2-.3 1.3.4.2 1.1.1 1.1 0s.5-.3 1.2-.5c1.3-.4 4.3-1.9 4.9-2.5.8-.7 5.7-2.6 8.8-3.5 1.1-.3 1.3-.9 1.1-3-.1-.9-.3-2-.3-2.5-.1-.9-.1-.9-2.7.5m173.2.2c-.2.4-.5.8-.6.8s0-.4.3-.8.5-.8.6-.8c.1 0-.1.4-.3.8m-127.9 6.9c-.2 1-.6 2.4-.9 3.2-.3.8-.4 1.6-.4 1.8.1.5 1 .8 1.3.5.6-.6 1.3-6.4.9-7.1-.3-.5-.5-.1-.9 1.6m-21 1.4c-.6.3-.7.6-.9 3.1-.1 2.1-.4 2.3-.6.3-.3-2.9-.9-1.8-.9 1.6 0 2.1.1 3.2.3 3.5.1.1 2.7 1.9 3 2.1.1 0 .3-.4.5-.9.5-1.2 2.4-3.6 3.6-4.5 1.5-1.2 1.8-1.5 1.6-1.9-.1-.2 0-.4.2-.5.4-.2.4-.9 0-.9-.2 0-.6.4-.9.9-.4.5-.7.8-.7.7 0-.1 0-.3.1-.4.1-.1.2-.3.2-.4s.1-.6.2-.9c.1-.5.1-.7-.4-1-.7-.4-.7-.4-1.8 2.5-.9 2.5-1.2 3.1-1 1.9.2-.9.7-4.6.7-5.1 0-.3-.1-.4-.6-.4-.7 0-.6 0-1.1 3.2-.3 2.4-.6 2.9-.6 1.5 0-4.6-.1-4.8-.9-4.4m-21 1.1c-.2.1-.4.2-.4.3 0 .2 1.1-.1 1.3-.3.2-.3-.3-.3-.9 0m31.5.6c-.1.2 0 .4.1.6.2.2.2.2.1 0-.1-.1 0-.3.2-.3.3-.1.3-.1 0-.3-.2-.2-.3-.2-.4 0m1.4.8c-2.1.6-3.6 1.2-4.1 1.6-.2.2-.8.7-1.2 1-.4.4-.7.6-.6.4.1-.2 0-.1-.3.1-.5.4-1 1.2-.6 1 .1-.1 0 .4-.3 1-.8 1.9-1.1 3.8-1.1 7.4v2.5l.6.6.6.6v-2.6c0-1.7.1-3.3.3-4.4l.3-1.8.2 2.5c.1 2.4.7 6.3.8 6.5.2.2.6-1.7.8-3.8.1-.6.3-2 .4-2.9.2-1 .3-2.6.3-3.6v-1.9l.3 1.2c.3 1.4.4 3.4.2 6.7-.2 2.9 0 2.9.7.3.2-1 .6-2.5.9-3.5s.7-2.6.9-3.6c.2-1 .4-1.8.5-1.7.6.6-.2 7.2-1.5 11.5-.5 1.7-.4 1.8.6.5 1.7-2.2 4.4-9.1 4.5-11.7h.2c.4.2-.1 5-.6 6.4-.6 1.6-1.3 3.6-1.2 3.7.2.2 2.3-3.9 2.6-4.9.1-.6.5-.9.5-.5 0 .9-.5 2.6-1.4 4.4-1.1 2.3-1.1 2.4-.5 1.9 6.1-5.5 4.1-16.9-2.8-14.9m143.1 2.6c-.2.9-.2 1.6 0 2.1.1.3.2-.1.3-1.2 0-1.7 0-2-.3-.9m-136.4.2c0 .2.6 1.5.7 1.5.1 0 0-.6-.2-1.2-.1-.4-.5-.6-.5-.3m-32.6 2.2c.6.1 1.8.5 2.6.9 1.2.5 1.9.8 3 .9.8.1 1.3.2 1.1.2-.2 0-.3.2-.3.4 0 .3-.2.4-1 .4-1.5 0-2.2.1-2.7.5-.3.2-.6.3-.7.3-.1 0-.1-.1.1-.2.8-.5-.5-1.9-2.6-2.8-1.4-.7-2-1.1-1.1-.8.3 0 1 .1 1.6.2m3.2 2.2c.1.1.2.2.4.2s.3-.1.3-.2-.2-.2-.4-.2-.3.1-.3.2m-4.1 2.7c.5.2 1.1.4 1.3.5.2 0 1 .3 1.8.5s1.8.4 2.3.4c1.6 0 3.9.2 4.1.4.1.1.1.2-.1.2-.7 0-.1 1.2.8 1.6.3.1.6.3.6.4 0 .2-1.7.6-2.4.5-.4-.1-1 0-1.5.2-.6.2-.9.2-1.1.1-.1-.2-.1-.2.1-.1.5.2 1.1-.6.8-.9-.2-.2-.2-.2-.2 0 .1.6-.4.4-.6-.2-.2-.6-1.3-1.3-3.3-2-.9-.3-3.7-1.7-3.7-1.8.1-.2.2-.2 1.1.2m32.6 3c-1.8 2.2-2.3 3.1-2.4 4.2-.1 1-.3 1.9-.3 1.9s-.1.3-.1.7c0 .4-.1.9-.2 1.2-.1.2-.1.4 0 .3.1-.1.3-.7.5-1.5.2-.7.4-1.1.4-.9 0 1.6 2.3-2.2 2.5-4.1 0-.6.2-1.2.3-1.4.3-1 0-1.2-.7-.4m1.5 0c0 .7 0 .9.2.6.1-.2.1-.6 0-1-.1-.5-.2-.5-.2.4m-19.8 3c-.1.1-.2.1-.2.1 0-.1-.2.1-.4.3-.3.4-.3.5.1.8l.5.4-.7-.3c-.4-.2-.8-.3-1-.2-.2.1-1.2.2-2.2.2-1 0-2.2.1-2.5.1-1 0-2.5-.2-2.5-.5 0-.1-.1-.1-.3-.1-.2.1-.3 0-.2-.1.1-.1.7-.2 1.6-.1.9.1 2 0 2.7-.1.6-.1 1.8-.3 2.5-.4l1.4-.2s.4-.1.7-.1c.4.1.6.1.5.2m3 .5c-1 .8-1.4 1.8-1.3 2.9.1 1 3 1.6 3.6.7 1-1.5 1-2.5.1-3.3-.2-.1-.3-.4-.2-.5s0-.1-.1-.1c-.1.1-.4 0-.6-.2-.6-.2-.7-.2-1.5.5m11.1 1.8c-.1.1-.1.2 0 .4s.1.2.3 0c.3-.4 0-.7-.3-.4m21 .9c-4.1.5-6.5 1.6-8.5 4-1.8 2.2-2.3 7.3-.9 9.1.6.8.8.4.6-1.3-.1-.9-.2-1.8-.1-2.4l.2-.9.1 1.5c.3 3.3 2.9 6.2 5.7 6.2.4 0 .3 0-.1.2-.3.1-.9.1-1.4.1-1.1-.2-1.4.4-.3.6 5.8 1.2 11.2-4.4 7.7-8-1.3-1.4-4.1-1.5-5.4-.2-.6.6-.5.8.6.7.7-.1 1 0 1 .1s.2.3.4.5c.6.4.5 1.4-.2 2.2-.6.7-.5 1.1.2.9.5-.2 1.2-.7 1.5-1.4l.3-.6v.6c0 1.8-3.9 2.5-5.5 1-5-5.1 3.6-11 9.9-6.8 2.6 1.7 3.3 7.3 1.2 9.7-.7.8-.9 1.3-.4 1.4.5 0 2.4 0 3-.1.3 0 1.5-.2 2.7-.3 2.3-.2 2.3-.2 2.4-.7.9-5 .1-8.6-2.4-11.5-2.2-2.5-3.5-3.5-5.4-3.8-.6-.1-1.3-.3-1.6-.4-1.1-.5-3.9-.6-5.3-.4m-17.4.7c-.2.4-.3.7-.3.8 0 .1-1.1 2.7-2.1 4.7-.6 1.3-1.4 4.3-1.2 4.5.2.2 2.4-2 3.5-3.4 1.3-1.7 1.5-2 1.6-3.5.1-.6.2-1.4.3-1.8.2-1.1.1-1.4-.6-1.6-.8-.5-.8-.5-1.2.3m-27.4 3.3c3.3 1.5 5.8 6.5 5.8 11.8 0 1.6-.2 1.7-.8.5-.3-.6-.8-1.2-1.1-1.4-.7-.4-1.2-.3-.7.2.7.7.9 2.1.2 1.6-.4-.4-1.4-.3-2.1.2-1.8 1.1-4.7 1.5-6.4.9-4.4-1.6-6.3-8.1-3.5-12.2 1.3-1.9 6-2.8 8.6-1.6m114.8-.4c-3.9 1-6.6 3.3-8 7-.3.7-.8 1.9-1.1 2.5l-.6 1.1.2 2.5c.3 3.4.6 9.3.6 10.8 0 1.2-.2 1.8-.9 3.2-.8 1.5-1 2.1-1 2.5l.1.5.5-.4c1.1-.9 3.3-6.6 3.3-8.6 0-.3.1-.6.2-.7.1-.1.2-.4.2-.8s.1-.8.1-.9c0-.1.1-.5.2-.9.6-4 3.5-7.5 6.5-7.8 1.1-.1 4.1.4 5.2.9 1.3.5 2.8.5 3.4-.1.7-.6.5-.9-1.9-4.6-.9-1.3-2-3.2-2.5-4.1-.5-.9-1-1.8-1.1-1.8-.4-.3-3-.4-3.4-.3m-92 .4c-.2.2-.5.3-.6.2-.5-.2-.2-.4.4-.5.5 0 .5 0 .2.3m-28.1 1.6c-.3.2-.5.2-.5.2 0-.2-1.8 1.6-2 2-1.6 3.8.8 7.7 5 8.1 4.3.4 7-3.3 5.1-7.1-1.5-2.7-5.4-4.4-7.6-3.2m-42.8 2.9c-.7.4-.8.8-.3.7.2 0 .6-.3.8-.6.4-.5.3-.5-.5-.1m9 4.7c-3.8.3-9.1 3.6-12.1 7.7-.5.7-1.3 1.6-1.7 2-2.7 2.9-4.9 6.3-5.8 9.1-.3.9-.9 2.3-1.3 3.1-1.2 2.6-3.9 12.3-4.5 16.7-.1.4-.3 1.5-.5 2.4-.6 2.2-.4 2.4.5.3.6-1.5 1.9-3.8 5.3-9.5.4-.6.9-1.6 1.3-2.3.4-.7.7-1.3.8-1.4l.2-.2c-.1-.5 0-.5.2 0 .7 2.1-1.9 10.6-5 16.9-3 6-4 14.4-2.1 17.9 1.3 2.4 2.5 3.8 4.4 4.7 4.8 2.5 4.7 2.6 6.6-5.5 1.4-5.8 2.5-8.8 5.7-15.5 3.6-7.7 10.8-15.1 15.3-15.8 1-.2 2.7.2 3.8.8 1.1.6 1 .7-.4.3-2-.5-3.3-.4-5 .6-.5.3-.8.5-.8.5h1.8c2.8 0 4.7.6 2.1.6-1.5.1-3 .4-4.2.9-1.6.7-1.6.9.2.8 4.4-.4 7.8.3 10.5 2.3.3.2 1 .7 1.5.9.5.3 1.2.8 1.6 1.2.7.8 2.7 1.8 3.8 1.9.9.1 7.4-1.2 8.3-1.8.1-.1.2-.1.2 0s-.3.3-.7.5c-2.6 1.6-6.9 6.5-8.1 9.3-.3.8-1 2.4-1.6 3.5-1.6 3.4-2.8 7.5-3.3 11-.1 1.1.6 1.5.8.4.5-2.4 2.1-6.5 3.6-9.2 1.1-1.9 1.5-2.4 2.7-2.8.4-.1 1.6-.5 2.6-.8 1.1-.3 2.3-.8 2.7-1 .4-.2.8-.4.9-.4.1 0 .6-.2 1.1-.5 1.3-.8 1.8-.9 1-.3-6.1 4.8-10.2 13.7-11.1 24-.1 1.2 0 1.9.4 1.9.3 0 .4-.2.8-2.1.9-4.1 2.6-8 3.7-8.2 3.9-.9 5.2-1.6 8.2-4.2 1.1-.9 2.1-1.7 2.3-1.8.2-.1.9-.4 1.6-.7l1.1-.5-1.7 1.7c-4.1 4.1-6.5 7.8-7.5 12-.2.9-.5 1.8-.6 2.1-.2.5-.4 1.1-1 3.4-.6 2.1-1.2 8.7-.7 8.7.2 0 .8-1.1.8-1.5 0-.5 1-4.6 1.5-6 1.4-4.3 2.3-6.1 3.7-7.6l1-1.2 1.4.4c4.4 1.2 5.3 1.1 8.9-1.6 1.8-1.3 4-2.4 6.3-3.2 1.2-.4 2.4-.9 2.8-1.1.3-.2.8-.5 1-.6.2-.1.6-.5.9-.9.5-.6.6-.7.7-.5.2.6.3.2.1-.4-.1-.4-.1-.8.1-1.3l.3-.8.3 1c.2.5.4 1.3.4 1.6.2.8 1.1 1.9 1.9 2.2.8.3 1 .5 2.6 2 .7.6 1.5 1.4 1.9 1.6.4.3 1.2 1.2 1.9 2 .6.9 1.7 2.2 2.3 3 .6.8 1.9 2.5 2.8 3.8.9 1.3 1.9 2.7 2.3 3 .6.6.9 1.2 2 3.2.2.5.5.9.6 1 .5.3 1-3.5.6-5.2-.5-2.3-1.8-6.2-2.5-7.4-.4-.7-.9-2-1.2-3-.8-2.2-3.1-5.6-5.6-8.3-2.1-2.1-2.2-2.3-.8-1.4 2.1 1.4 3.2 2.7 5.2 6.3.8 1.3 2.3 3.3 2.6 3.3.1 0 .1-.3.1-.6s.1-1.5.2-2.5l.2-1.9-1.5-3c-2.4-4.7-3.9-6.4-7.5-8.6-1.7-1-2.2-1.2-3.3-.7-.4.2-.4.2 0-.3 1.2-1.3 4.3-.9 6.2.9 1.6 1.4-.1-3.3-1.8-5-2.4-2.5-4.4-3.2-7-2.5l-.6.1.5-.2c.3-.1.6-.4.8-.5.5-.4 2.5-.5 3.8-.2.6.2 1.2.3 1.2.2.4-.4-2.2-4.7-3.6-6.1-.4-.4-.3-.6.3-.3 1.6.9 6.1 5.4 7.1 7.3 1 2 1.9-3.6.9-5.8-1.1-2.3-5.2-4.3-8.9-4.3-1.2 0-1.9-.4-3.1-1.7-1.6-1.7-3.8-2.8-5.3-2.8-.4 0-.6-.1-.6-.3 0-.3 0-.3-.2 0-.1.2-.8.5-1.4.6-1 .3-1.7.7-2.6 1.6-.3.3-.3.8 0 .8.2 0 .3-.1.4-.2.2-.2 2.1-.5 2.6-.3.8.2.9.8.4 2.3-1 3.7-.6 6.7 1.8 14.1.8 2.5-.2.9-1.3-2.1-.5-1.4-1.1-3-1.4-3.6-.3-.6-.6-1.6-.8-2.3-.4-1.6-.7-2.1-1.7-3.3-.5-.5-.9-1.1-.9-1.2 0-.5-2.3-4.1-3.2-5-1.2-1.2-2.6-1.7-6.4-2.4-7.8-1.5-14.6-5.3-18.8-10.5-1.3-1.6-3.1-4.1-3.5-5-.3-.5-.8-1.5-1.2-2.1-.4-.6-1-1.8-1.4-2.5-1-1.9-2.5-3.8-3.8-4.9-.6-.5-1.3-1.1-1.5-1.3-1.8-1.8-3.5-2.2-7.9-1.9m153.3 2.8c-1.1.5-2 1.2-1.5 1.2.1 0 .3-.1.4-.3.8-1 3.3-1.1 4.9-.2 1.7.9 3.1 3.7 3.1 6.2s.7 1.6.8-1.1c.2-3.6-.4-4.9-2.9-5.7a5.1 5.1 0 0 0-4.8-.1m-127.9 1.5c3.5 3.1 6.2 4.2 10.2 4.1.9 0 2.3-.1 3-.3 3.2-.7 3.6-.6 1.3.6-3.8 1.9-10.1 1.2-13.3-1.5-.8-.7-1-.5-.3.2.3.3.8.8 1.1 1.2 1.6 1.9 4.8 3 8.9 3h.7v2c0 1.7.3 3.9.6 3.6l.4-1.4c.7-3.3 1.1-3.9 2.5-3.3l.7.3v2.9c0 3.3 0 3.3.5 2.1.2-.5.6-1.5.9-2.1.3-.6.6-1.4.6-1.7v-.6l.6.4c.3.2.6.5.6.6 0 .5-.8 2.6-1.2 3.2-.3.4-.5 1-.4 1.2.1.4 2.9-2.1 3.4-3.1.2-.4.6-.3 1.6.6.4.3-.3 1.9-1.1 2.8-.3.3-.3.3.1-2.2.2-1.2-.4-.9-1.2.5-.3.6-.9 1.5-1.1 1.9l-.5.8-1.9.1-1.9.1-.1-.6c-.1-.3-.1-1.7-.2-3.1-.1-3.3-.5-4.3-.8-1.9-.1.7-.2 1.5-.3 1.8l-.7 2.3c-.4 1.3-.6 1.7-.8 1.6-.2-.1-.4-.1-.5-.1-.1 0-.3-.2-.4-.5-.5-2-.9-4.3-.9-5.7 0-1.6 0-1.6-.4-1.6-.6.1-1 1.7-1 4.7 0 1.9-.1 2.3-.3 2.2-.7-.3-2.2-1.6-3.1-2.6-.5-.7-1.4-1.8-1.9-2.5-.6-.7-1.2-1.6-1.3-2-.5-1.1-.5-.7-.1.5 1.5 4.2 2.4 5.7 4.8 8 .6.6 1 1.1 1 1.1-.1.1-.2 0-.3-.1-.1-.1-.4-.3-.7-.5-4.2-2.2-7.9-9.6-8.3-16.5l-.1-2.1.5.7c.4.2.9.7 1.1.9m23.4 1c-.2 3.2-1.1 4.9-1.8 3.5-.4-.8 0-2.2 1.1-4.5.7-1.7.8-1.4.7 1m3.3-.3c-.4 2.6-1.5 5.2-2.2 5.5-1 .4-.6-1.1.9-3.9 1.4-2.5 1.5-2.5 1.3-1.6m98.8 0c-.3.7-.3.9.1.2.2-.3.3-.6.2-.6-.1 0-.2.2-.3.4m-85.7 0c-.4.7 5.6 4.1 10 5.6 4.8 1.6 6.3 2 13.9 3.3 2.1.4 5 .9 6.2 1.3 2.1.6 2.6.6 4.9.5 7-.2 11.2.5 13.5 2.2.8.6 1.6 1.1 3 1.8 1 .5 1.5 1.2 3.3 4.1l1.5 2.4v2.6c0 5.7-1.2 8.3-4.9 10.5-2.5 1.5-5 2-6.6 1.3-.6-.2-1.2-.5-1.4-.5-1.7 0-3.4-4.3-2.7-6.8 1.5-5.3 5.5-7.3 8.5-4.3 1.3 1.3.6 4.8-1.3 6-1.3.8-.5 1.7.9 1 4.3-2.2 5.4-7.4 2.1-9.8-3.5-2.5-6.6-2.4-10.7.2-3.8 2.4-6.7 9.5-5.5 13.2.4 1.2.8.9.8-.5 0-1.3.5-3.8.8-4.5.2-.4.2-.2.3 1.6 0 1.1.1 2.2.1 2.4 0 .2.2.7.3 1.1.5 1.9 2.4 4.6 3.8 5.3 1.5.8 7.4.6 10.1-.5 1.4-.5 1.7-.5.4.1-.5.2-1.3.6-1.9.8-1.3.6-3.9 1.3-5.4 1.5-.8.1-1.1.2-1.1.4 0 1.3 8.5-.7 11.2-2.6 1.6-1.1 5.4-5.7 7.3-8.7 3.6-5.8 3.1-12.8-1.2-18.6-4.1-5.4-4.4-5.7-7.3-7.2-5-2.7-5.9-3.1-10-3.8-1.6-.3-2.8-.3-19.4-.4-1.9 0-5.5 0-8 .1-5.8.1-12.6-.3-14-1-.7-.3-1.4-.4-1.5-.1m-40.3 1.4c0 .3.1.5.2.5s.1-.2.1-.5c-.1-.3-.1-.5-.2-.5s-.1.2-.1.5m35.5 1.9a56 56 0 0 1-2.7 5.5c-.3.2-.2.4 1 1.4 3.2 2.5 8 4.5 13.4 5.4 2.3.4 4.3.8 5.9 1.1.7.2 2.1.3 3 .4 3.9.3 8.9 1 14.5 2.1.6.1 1.1.2 1.2.2.5 0 2.9 1 3.9 1.5l1.2.6.6-.6c.6-.6 1.2-1.7 1.4-2.6.1-.4 0-.5-1-.9l-1.8-.9c-2.6-1.4-3.4-1.8-5.2-2.4-3.1-1.1-8-2.5-12.3-3.4-1.4-.3-2.9-.7-3.4-.9-.5-.2-1.9-.5-3.2-.7-6.3-1.1-14-3.8-15.6-5.4-.7-.7-.9-.8-.9-.4m131.1.8c-2.3 1.2-2.4 3.4-.2 6.4 2.3 3.3 2 6.8-1.1 9.7-1.3 1.3-1.8 1.5-1.1.5 2.3-3.1 2.1-7.2-.5-8.5-1.8-.9-3.9-1-2.3-.2 2.1 1.1 3.3 3.4 3 5.5-.2 1.2-4.3 5.9-6.1 7.1-.3.2-.9.7-1.3 1.1-.4.4-.9.8-1 .8-.3.2-2.1 2.6-2.5 3.4-.4.8-.4 2.8 0 3.2.5.4 1.2.2 1.2-.4.2-1.5 2.3-3.6 5-5 1-.5 1.8-1 1.9-1.1.1-.1.5-.2.9-.2 8.8 0 14.5-14.9 8-21-2-1.9-2.3-2-3.9-1.3m-18.8 1.3c0 .1.1.2.3.2s.3-.1.4-.2c.1-.1-.1-.2-.3-.2-.2 0-.4.1-.4.2M262.5 93c0 .4-.1 1-.1 1.4-.1.6-.1.6.1.2.1-.3.2-.9.1-1.4 0-.8 0-.8-.1-.2m-118.1 0c.1.4.8.8 1 .5.1-.1-.1-.3-.3-.5-.6-.3-.8-.3-.7 0m153.5.9c-.3.3-.6.6-.6.7 0 .2 1.1-.6 1.3-.9.1-.5-.1-.4-.7.2m84.5-.2l-3.1.2c-1.7.1-3.4.2-3.8.2-.4.1-1 .1-1.3.2-1.2.2-2.6.3-3.9.4-.8.1-1.7.1-2 .2-.3 0-.9.1-1.4.2-1.5.2-6.5 1.4-8.8 2.1-6.8 2.1-10.8 3.9-16 7.3-1.2.8-2.9 1.8-3.7 2.3-4 2.2-5.7 3.3-9.2 6.2-.2.1-.8.7-1.5 1.2-2.9 2.4-13.7 13.4-16.2 16.6-.7.8-1.9 2.4-2.8 3.4-.9 1-2.4 3-3.3 4.3L303 142c-2.7 3.9-3.5 5.1-4.8 7.4-.8 1.4-1.6 2.7-1.6 2.9-.1.2-.3.7-.6 1.1-.7 1.1-3 7-3.3 8.4-.1.7-.5 1.9-.9 2.8-.7 1.7-.8 2.2-.3 2 .5-.2 2.6-.7 5.2-1.2 1.6-.3 3.4-.8 4.9-1.4 1.3-.5 3.7-1.2 5.4-1.6 1.7-.4 3.7-.8 4.4-1 .8-.2 2.8-.6 4.5-.8l3.1-.5 1.1-2.4c7.8-17.2 17.9-28.4 33.2-36.9 5.7-3.2 7.6-4 12.4-5.3.9-.2 2.3-.7 3.1-.9 1.4-.4 1.9-.5 3.1-.8.2 0 1-.2 1.8-.4s2.2-.4 3.1-.5c1-.1 1.9-.2 2.1-.3.3-.1.3-.1.2.1-.1.1-.5.2-.9.3-2.2.3-8 1.9-11 2.9-1.4.5-2.5.9-2.6.9-.4 0-5.7 2.2-6.3 2.7-.4.3-.7.5-.8.5-.1 0-.6.3-1.2.7-.6.4-2.2 1.3-3.6 2.1a65.21 65.21 0 0 0-22 20.4c-1.3 1.9-2.4 3.6-2.5 3.7-2 2.6-7.4 12.6-7 12.9.2.2 3.5-.2 3.7-.4.1-.1.7-1.3 1.4-2.6 5.8-11.4 13.1-20.1 22.7-27.2.1-.1.5-.4.9-.6 1-.7 2.7-1.9 3.8-2.7 1.2-.8 9.2-4.8 11.7-5.9 6-2.5 11.8-4.2 16.7-4.7 1.1-.1 3.3-.4 4.9-.6 1.6-.2 3.1-.4 3.5-.5s1.9-.1 3.3-.2c3.1-.1 2.8 0 2.6-1.5-.4-2.4-.4-3.8-.5-11.1l-.1-7.3-.5-.2c-1.7-.6-12.5-1.1-12.9-.6m-210.6 3.5c.9.8 1.4 1 .6.2-.4-.4-.9-.7-1-.7-.1 0 .1.2.4.5m-1.3 1.1c-.6 1-.6.9.7 2.2 1.5 1.4 6.4 3.9 9.2 4.6 1.6.4 12.6.4 12.6 0 0-.2-.4-.3-1.8-.4-4.4-.3-5.2-.4-7.1-.7-3.4-.5-5.2-1.1-9.9-3.5-.6-.3-1.1-.7-2.6-2.1l-.7-.7-.4.6m46.9 1c-.1.2.1.5.4.8.6.5.7.5 2.9.9 2.6.4 4.6 1.1 7.4 2.4 2.5 1.2 1.3-.6-1.2-1.9-.7-.4-1.2-.7-1.2-.8.1-.9-7.9-2.2-8.3-1.4m-87.7 1.8c1 1 3.7 4.6 3.4 4.6-.1 0-.4-.2-.7-.5-2-1.7-6-3.6-7.7-3.6-.2 0-.3-.1-.2-.2.1-.2-.1-.2-.6-.1-.9.1-.6-.3.4-.6.4-.1.9-.3 1.1-.4.8-.3 1-.4 2-.3 1.1-.1 1.2 0 2.3 1.1m-80.3-.6c0 .2.3 1.1.7 1.8.4.7.9 1.9 1.1 2.6.2.7.6 1.7.9 2.1 1.1 1.9 1.5 4.9 1.6 10 0 2.5.1 4.7.1 4.8.1.1.2 1.5.2 3 .1 1.6.2 3.4.2 4.1.2 1.6.2 2.1.2 3.5v1.1l.3-.8c.3-.9.8-3.2 1-4.9.2-1.4.4-.9.4 1 0 .9.1 1.4.5 2.1.5.8 2.4 5.2 3 6.7 1.4 3.7 2.3 6.8 2.3 7.3-.1.5-.1.5-.4-.2l-.3-.7-.7.7c-.7.8-2.4 1.2-3.4 1l-.6-.1.5.7c.3.4.6.8.6 1 .2.4-2.8-2.8-3.9-4.1-.8-1-1.2-1.3-3.1-2.2-2.5-1.2-2.5-1.3-1.3-1.2 3.5 0 6.1-2.2 6.4-5.6.2-1.6-.2-2-.4-.5-.5 3.1-3.1 4.8-6.4 4.2-2.1-.4-4.6-2-2.6-1.7 1 .1 1.2 0 .6-.5-.2-.1-.5-.6-.8-1.1-.6-.9-1-1.2-4-2.1-3.3-1-5-.9-7.5.3-2.3 1.1-2.9 1.3-5.1 1.4-.9.1-1.8.2-2.1.3-1.2.5-4.1.2-6.5-.6-1.4-.5-1.4-.4-.2 1.3 1.1 1.7 2.5 3.1 4.7 4.8 3.1 2.4 4.8 3.2 8.3 3.5.6.1 1.5.2 1.9.2.9.1 4.1-.2 5.4-.6 1.3-.4 2.7-1.6 3.5-2.8l.6-1-.1 1c-.1 1.1-1.1 2.9-1.9 3.5l-.6.4 1.6 1.4c1.8 1.5 3.8 3.5 4.2 4.2.2.2.8 1 1.5 1.7 1.4 1.6 3.4 4.7 2.8 4.5-.3-.1-.4.1-.7.9-.4 1.1-.9 1.8-1.7 2-.6.2-.8.5-.3.5.6 0 1.4.4 1.1.6-.8.5-3.3.2-5.8-.6-2.3-.7-2.7-.8-4.5-.8-2.2 0-2.3-.1-1.4-.6 2.2-1.3 3.8-3.8 4.4-6.7.4-1.9.1-3.2-.3-1.6-.8 3-5.4 8.2-6.9 7.9-.4-.1-.3-.1.2-.5.9-.6.5-.7-1.9-.7-3.2 0-4.2.5-5 2.5-.9 2.3-.4 3.9 1.7 4.8 1.7.8 5.3 3.2 6.7 4.6 3.7 3.6 5.3 4 10 2.9 1.6-.4 5.8-2.3 6.3-2.8.2-.3-1.4-.7-2.9-.7-1 0-4.8-.7-5.9-1-.6-.2-.7-.2-1 .2-.5.6-.6.5-.6-.5 0-.8-.2-1.2-1-2.5-.5-.9-1.1-1.8-1.3-2.2s-.4-.6-.6-.6c-.1 0-.3-.1-.3-.3 0-.3 0-.3.4 0 .2.2.4.3.5.2s.5.2 1 .7c.5.4 1.1.9 1.4 1 .9.4 2.5 1.6 3 2.3.5.7 1.3.8 2.4.3.4-.2 1.4-.3 2.2-.4 3-.2 3.1-.3 4.6-1.4 1.9-1.4 2.2-2 2.6-6 .3-2.8 1.6-4.1 4.1-4.4a4.4 4.4 0 0 0 3.6-2.8c.6-1.6.8-1.1.6 1.3-.2 3.1-.1 4.3.4 6 .5 1.4.6 2.4.4 2.4-.4 0-1.4-1.5-1.6-2.5-.6-2.1-.5-2.1-1.6-2.2-2.8-.3-3.3.5-3.5 5.2-.1 2.9-.7 4.5-2.2 6.5-.6.8-1.9 3-1.7 3 .3 0 2.9-1.8 3.6-2.5.5-.5.9-.8 1-.7.1.2-1.1 2.1-2 3.1-.8 1-.8 1.1.3.8 1.7-.5 2.6-1 4.6-2.7 2.3-1.9 3.7-2.9 4.8-3.3l.8-.3-.7.5c-1.8 1.4-4.5 4.6-6.1 7.1-1.7 2.7-6.4 5.9-10.1 6.9l-.9.2.8.2c4 1.1 6.6-.1 12-5.6 4.6-4.7 5.9-5.5 9.2-6 5.1-.8 8.8-2.9 4.6-2.6l-1.7.1.7-.5c.4-.3 1-.8 1.3-1.2 1.2-1.3 2.4-1.7 4.9-1.7 1.2 0 2.2-.1 2.1-.1-1.1-2.2-1.1-2.6-.2-1.7 2.5 2.2 7.3 3.2 11.3 2.2 4-1 6.5-1.7 7.3-2.1 1.7-1 3-1.8 4.1-2.7.6-.5 1.8-1.2 2.6-1.7l1.5-.8-2.4-.1c-4.6-.2-9.7-1.1-14.2-2.3-3.3-1-4.2-1.1-5.1-1.1-1.1.1-4.3 1.1-5.5 1.7-.6.3-1.4.5-2.7.6-2.2.2-2.6.4-3.2 1.9-.2.6-.5 1-.6.9-.2-.1.2-2.3.5-2.8.2-.3.2-.5 0-.5-3.2-1-4.2-.7-5.8 1.7-.5.7-.5.8-.6.4-.1-.6.5-1.9 1.1-2.8.7-.8.6-.9-1.1-1.8l-1-.6-.6.6c-.7.6-.8.3-.4-.8.2-.4.1-.6-.8-1.6-1.3-1.4-2.2-3.1-2.8-5.6-.3-1.1-.8-3-1.2-4.4-.8-2.9-.8-2.9.6-1.1 1.8 2.4 7.5 7.7 8.2 7.7.1 0 .6.3 1.1.7.9.7 6.7 3.4 8 3.8 2.3.7 5 1 5 .5 0-.2-.5-.4-1.4-.6-1.5-.3-5.8-2.4-7.6-3.6-.6-.4-1.2-.8-1.3-.8-.1 0-.5-.3-1-.7-.5-.4-1.4-1.1-2.1-1.6-1-.8-2.6-2.2-5.3-4.8-.4-.4-1-1.1-1.3-1.6-.3-.4-1-1.3-1.5-1.9-.9-1.1-3-4.5-3.8-6.3-.3-.7-.7-1.9-1-3.4-.1-.3-.1-.6-.2-.9-2.1-9.2-3.2-11.4-9-18.6-.9-1.2-2.2-2.2-2.7-2.2-.2 0-.4-.2-.5-.4.1-2-1.7-3.3-1.7-2m129.7.6c.2.1.5.2.8.3.3.1.4.1.2-.1-.2-.1-.5-.2-.8-.3-.3 0-.4 0-.2.1m6.1 1.7s.2.1.5.2.5 0 .5-.1-.2-.2-.5-.2-.5.1-.5.1m10.9 3.8c-2.5 2.3-8.4 6.1-9.6 6.1-.1 0-.9.2-1.6.4-.8.2-1.6.4-1.9.4-.7 0-.7.5 0 .7.3.1.7.2 1 .2 1.1.2 6.5-.8 9.2-1.8 4-1.5 5.6-2.5 8.1-4.8 1.6-1.5 1.4-1.6-2.2-1.8l-2-.1-1 .7m-41.9 7c2.6 1 4.1 2.8 6.5 8.1 2.1 4.7 2.1 5.2-.1 1.5-1.4-2.4-3.3-5.1-3.8-5.5-1.3-1.1-4-2.1-8-3-.9-.2-2.5-.9-2.5-1.1h1.3c.7 0 1.8 0 2.3-.2 1.6-.2 3.2-.2 4.3.2m17.4 1.5c.3.3.3.3-.3.6-.8.4-2.4 2.2-2.7 3.2l-.2.7v-.6c0-.9.7-3.1 1.1-3.4.7-.7 1.5-.9 2.1-.5m-52.4 3.7c.1.2 0 .3-.6.3-2.9 0-6.1 3.1-7.5 7.2-.5 1.4-.4 1.5.5.9.2-.1 0 .1-.3.4-.9.9-1.5 2.4-1.9 4.1-.3 1.7-.3 1.8.4 1.1s.5 0-.3 1c-.3.3-.6 1-.8 1.5-.3 1-.3 1 1-.2.8-.8 1.3-1.2 1.8-1.4.6-.3 2.5-1 2.1-.7-.2.1-.5.4-.7.5-.2.2-.7.6-1.2 1-.7.6-1.7 1.7-2.9 3.4-.4.5-.2.4 1.2-.6 2-1.5 4.7-2.3 7.1-2.1 2.2.2 5 1.1 5 1.5 0 .1.1.2.2.2s.6.3 1 .6c.9.7 1.2.6.7-.1-.2-.3-.3-.5-.3-.6.1-.1 1.3 1.8 1.3 2 0 .1.1.3.3.5.3.4.3.3.2-.5-.1-.5-.2-1.3-.2-1.8l-.1-.9.3.7c.2.4.5 1.5.8 2.5 1.1 4.2 1.2 4.1 1.1-1.8 0-2.8-.1-5.9-.2-6.7s-.2-3.1-.2-5c-.1-2.5-.2-3.6-.5-4.1-.6-1.4-3.2-3.7-3.6-3.2-.1.1.2.6.6 1.1 1 1.4 1.9 4.1 1.9 5.5 0 .5-.2.4-.3-.1-.2-1.2-.4-1.6-.5-1.6-.1 0-.2-.3-.3-.7-.2-.8-1.8-3.4-2.5-3.9-.7-.4-2.8-.4-2.6 0m269.1.1c-5 .7-7.7 3.5-5.4 5.7 2.5 2.5 13.2 1.4 14.7-1.5s-3.1-5-9.3-4.2m-16.1 2.5c-2.9.7-5.1 1.6-6.8 2.6-1.8 1.1-1.4 1.5.7.8 1.6-.5 1.6-.5-.1.4-7.6 4.2-7.4 11 .3 9.1 5.5-1.4 10.3-4.2 11.6-6.8.4-.8.6-2.8.2-3-.1-.1-.1-.3 0-.5.3-.5-.2-1.3-.9-1.5-.3-.1-.5-.2-.5-.3 0-.2-2.5-1.2-3.1-1.2-.2.1-.9.2-1.4.4m20.9.1c1.4 0 1.8.4 1.3 1-.6.6-.8.7-5.8 1-3.4.2-2.7-1.6.7-2 .7-.1 1.3-.2 1.4-.2h.8c.3.1 1 .2 1.6.2m-24.3 2.5c-.6.2-1.1.3-1.1.3-.1-.1 1.5-.7 1.9-.7.1.1-.3.2-.8.4m-131.7 1.5c-.5.4-1.6 1.1-2.5 1.6-.9.5-1.6 1-1.6 1.1.2 1.2.4 5 .2 5.8 0 .2-.1.8-.2 1.3-1.2 7.9-7.3 12.3-11.5 8.2-2-1.9-2.6-5.1-1.3-6.6.9-1.1.5-1.8-.5-.8-1.5 1.6-1.9 3.6-1.2 5.9.2.6.4 1.4.5 1.9.2.6.5 1.1 1.5 2 4.1 3.9 8.2 3.3 13.4-1.9 1.6-1.6 3.1-5 3.7-8.2.1-.7.3-1.7.5-2.2.4-1.5.7-4.6.6-6-.1-.7-.1-1.6-.1-2.1-.1-.9-.3-.9-1.5 0m-50.9.5c-.2.3 0 .5.3.4.1 0 .1-.2 0-.3-.1-.3-.2-.3-.3-.1m189.2.4c.2 1.1-.6 1.8-4.8 3.9-3.8 1.9-5.5 2.1-5.5.5-.1-1.8 9.9-6 10.3-4.4m11.8.7c-.4.1-1.2.2-1.8.3-.9.1-1.9.5-3.4 1.2-.6.3-.6.7.1.6.5-.1.5 0-.2.3-6.4 3.3-7 8.9-1.1 9.2 6.1.3 13.5-3.2 13.4-6.4.1-3.7-3.1-5.9-7-5.2m2.6 5.4c.5.9-.2 1.4-3.4 2.4-3.7 1.2-5.2 1.2-5.2 0 0-.7 1-1.3 3.1-2 3.6-1.2 5-1.3 5.5-.4m-250 2c-1 .3-1.4.7-.7.7.5 0 1.8-.6 1.8-.8v-.2c-.2 0-.6.1-1.1.3m123.6.9c-.6 1.3-1 3.9-.9 5.9l.1 1.6-1.3 1.5c-3.1 3.8-3.6 4.2-2.2 1.7 1.8-3.2 2.3-4.3 2.4-4.8.1-1.9 1.9-7.4 2.3-7 .1 0-.1.5-.4 1.1m106.2-.8c-2.6.5-9.6 5.5-9.6 6.8 0 .5.4.6.8.2 1.4-1.3 1.4-1.1-.1.7-.9 1.1-1.4 2-2.1 3.3-1.2 2.3.1 5 2.5 5 .8 0 2.8-.9 4-1.7.3-.2 1.2-.7 1.9-1.2 4-2.3 7.9-6.5 8-8.7 0-.6.1-1.2.2-1.3.9-1.3-3.3-3.6-5.6-3.1m-17 .2c-3.1.3-6.5 2.6-8.4 5.5-1 1.5.3 1.4 1.8-.1.6-.7 1.4-1.4 1.6-1.5.3-.1-.1.4-.9 1.3-4.5 4.9-5.5 9-2.6 10.5 4.7 2.4 16.2-9.1 13.3-13.4-.9-1.6-2.9-2.5-4.8-2.3M118 138.2c.1 3.7 5.6 18.2 7 18.2.1 0 .3-.5.5-1 .2-.6.9-1.9 1.8-3.1 1.7-2.4 1.7-2.3.3-1.7-3.4 1.6-6.3-2.1-8.1-10.3-.5-2.4-.6-2.5-1-2.6-.5 0-.5.1-.5.5m236.6 1.6c.4 1.7-5.5 7.9-6.8 7.2-1.7-.9 3.9-7.6 6.5-7.8.1.1.2.3.3.6m16.9-.3c.6.3 0 1.1-3.2 4-4.2 3.9-5.6 4.7-5.9 3.6-.6-2.3 7.1-8.7 9.1-7.6m-200.1 8.4c-1.9.8-2.9 3.3-4.4 10.9-.4 2.1-.3 6.6.2 8.6.2.9.5 2.2.5 2.8.2 2.1.7 4.3 1.4 6.2.4 1.1.7 2.3.8 2.6.1.4.4 1.6.8 2.8.3 1.2.7 2.4.8 2.7l.1.6-.5-.6c-3.3-3.9-5.9-10.8-6.9-18.6-.1-.9-.3-1.7-.3-1.8 0-.1-.1-.6-.2-1.3-.1-1.4-.8-2.4-1.7-2.6-.3-.1-.6-.2-.6-.3 0-.2-1.2.5-1.7 1.1-1.2 1.3-2.4 5.8-2.7 10.3-.1 1.1-.2 2.2-.2 2.4-.5 2.4-.2 8.1.5 11.7.6 2.9.2 3-1.5.3-2.1-3.6-3.6-7.5-4.3-11.7-.2-1.1-.5-1.7-.5-.9 0 .6-1.7 2.6-2.8 3.1-2.5 1.3-5.7-1.5-6.2-5.3-.1-.8-.3-1.7-.4-2.1l-.3-.8-.1 1.1c-.7 5.5 1.7 9.2 5.7 8.7.8-.1.8-.1.4.3-.5.4-2.5.9-4 1.1-1.3.1-1.8 1.1-1.4 3.4.3 1.5 2.1 2.7 4.3 2.9 1.4.1 1.5.3.6.6-2.1.7-5.5.3-6.6-.7-.2-.2-.4-.3-.4-.2l-1.9 2.1c-1 1.1-2.2 2.5-2.6 3.1-.4.6-1.3 1.7-1.9 2.4-.7.8-1.6 1.8-2 2.4-1.7 2.2-2.4 3-4.4 5-3.5 3.5-10.8 12.6-10.8 13.4 0 .1-.1.3-.3.4-1.3 1.5-4.8 9.4-6 13.8-.4 1.6-1 3.6-1.2 4.4l-.4 1.4-1.3.5c-.7.3-1.7.6-2.2.8-.5.2-1.8.6-2.8 1-1 .4-2.2.9-2.6 1-2.2.7-4.8 1.8-6.3 2.8-.4.3-1.6.8-2.6 1.2-3.7 1.4-6.5 3.4-9 6.5-4.3 5.3-6.5 8.2-7.4 9.9-.3.6-.7 1.3-.8 1.5-.2.3-1.7 3.5-2 4.2-.3.8-.8 2.4-2.4 7.4-3.5 11.6-2.7 23.2 2.3 33.2.9 1.9 1 1.6.2-1.5-2.3-8.8-3.1-15.3-2.1-18.8.2-.9.5-2.4.6-3.3.1-1 .3-2.5.4-3.5.7-6.1 2.8-9.2 5.6-8.2.5.2.5.1.7-1.5.1-.8.9-3 1.5-4.4.2-.5.4-.9.4-.9 0-.2 2.3-4.8 3-5.9.8-1.3 1.7-2.6 1.9-2.9.1-.1.7-1 1.4-2 1.9-2.7 8.8-8.5 10.1-8.5.1 0 .4-.2.7-.4.3-.2 1.1-.6 1.9-.9.8-.3 1.5-.6 1.8-.7.6-.3 5.5-1.9 7.2-2.4.9-.3 2.4-.8 3.5-1.2 1.8-.6 6.2-1.7 7.9-2 .8-.1 2.5-.4 2.9-.6.7-.2 1.4-.3 1.4-.2 0 .2-3.2 1.2-4 1.3-.2 0-.5.1-.6.2-.1.1-.5.2-1 .2-1.3.2-5.4 1.5-7.4 2.2-1.1.4-2.6.9-3.4 1.2-.8.2-1.7.6-2 .7-.3.1-.7.3-.9.3-.2 0-.5.1-.6.2-.2.1-1 .4-1.9.7-5.8 2.1-10.2 5.4-13.8 10.4-1.4 1.9-2.5 3.6-2.5 3.8 0 .1-.3.5-.6 1.1-.3.5-.6 1.2-.7 1.4s-.6 1.5-1.2 2.7c-3.2 6.7-3.8 11.4-2.5 18.9.2.9.3 1.9.4 2.2.4 3.4 1.3 6.8 2.3 8.7.4.7.7 1.3.7 1.3 0 .1 3.6 5.6 4.8 7.2.4.5.9 1.2 1.3 1.5l.6.6.1-1.8.1-1.8-.8-1.3-.8-1.3.8.8c1 1 1.1 1 1.3 0 .3-2 2-5.9 3.3-7.9.4-.6.7-1.1.7-1.1 0-.1-1.2.2-1.6.4-.5.2-1-.4-1.8-1.9-.6-1.3-1.5-2.3-3-3.5-.6-.5-.6-.6-.2-.5.9.1.9 0 1-1.3.1-1 .3-1.7.9-3 2.2-4.6 3.1-8.7 2.2-10.7-1.3-3-5-3.7-7-1.3-1 1.2-1.3 2.4-.4 2.1.4-.1.4-.1 0 .8-.6 1.6-.9 5.7-.4 7.3.3 1.2.8 1.6 2.2 2 1.2.3 1.3.4.3.5-.2 0-.6.1-.9.3-.8.3-1.2 0-2.2-1.5-.3-.5-.6-.7-.6-.6-.1.7 0 1.1.1 1.6.1.4.1.4-.1.3-.5-.5-1-3.9-1-6.4 0-6.7 3.7-14.3 9.8-20.3 3.1-3 10.6-7.5 14.7-8.8 2.1-.7 5.2-1.9 7.9-3.2 1.7-.8 3-1.2 5.3-1.7 3.2-.7 4.7-1.2 8.7-2.9a36.6 36.6 0 0 1 6.1-2.1c2.4-.7 9.5-7.3 9.6-8.9 0-.2.9-1.6 1.9-3.3 1.3-2.1 1.8-1.5.9 1.2-.6 1.8-.6 2.1-.1 1.7.2-.1.4-.1.5 0 .2.2.2.2-.1.5-.8.6-1.3 1.2-1.8 2-.3.5-.7 1.1-1 1.3-.7.7-1.1 2.4-.9 3.7.2.8.1 1-.1 1-.1 0-.3-.2-.3-.4s-.2-.6-.4-.8c-.2-.3-.3-.6-.2-.9.4-1 .2-1.2-.5-.4-.4.4-.9.7-1.1.7-2 0-4.6 4.7-3.4 6.1.3.3.3.4 0 .4-.5 0-.9-.7-1.1-1.4-.1-.4-.2-.7-.2-.7-.2 0-1.3.7-2.3 1.6-.9.8-1.1.9-1.7.8-1.3-.2-2.6.7-3 2.1-.3 1-.2 1.2.3.5.2-.2.6-.4.8-.4.3 0 .7-.1.9-.2.4-.2.4-.2.2.2-.4.7-1.8 1.7-2.8 2-1.4.4-1.3 1.7.1 1.7 1.1.1 1.8-.1 2.5-.4l.7-.4-.6.5c-.3.3-1 .9-1.5 1.3-2.5 2.1-1.7 4.4 1.3 4 1.7-.3 4.2-2.3 4.2-3.5 0-.3.1-.8.3-1 .3-.4.3-.4-.5-.8-1.2-.5-1.5-1.5-.9-2.9l.3-.6v.9c0 1.1.6 1.9 1.3 1.9.5 0 .8.3.6.6-.4.6-.4 2.9-.1 3.3 1.2 1.5 5.9-2.1 5.9-4.6 0-.2.5-.5 1-.8l1-.5-1.1.1c-.8.1-1.3 0-2-.3l-.9-.4v-3l1-.7 1-.7-.5 1.1c-.9 1.8-.5 3.4.9 3.4 2.4 0 4.7-1.7 4.4-3.2-.1-.7.4-1.2 1.3-1.2 1 0 1.6-.4 2.5-1.6.4-.6.8-1.1.9-1.1.7-.6 1-3.5.4-4s-.5-.8.2-1.2c.4-.2.8-.6.9-.9.2-.3.3-.4.5-.4 1 .4.9 4.2-.2 5.3-.3.3-.6 1.1-.8 2-.2.8-.6 2.1-.9 2.9-.3.9-.5 1.5-.4 1.7.9 1.5-1.5 4.9-3.4 4.6-.8-.1-2.3 1.5-2.3 2.5 0 1.9-2.8 4.2-5.1 4.2-.6 0-1.2.1-1.2.2-.1.1-.9.8-2 1.5-1.5 1.1-1.9 1.4-2.2 2.2-.9 2.1-3.7 3.5-5.8 3l-1-.2-1.1.9c-.8.7-1.1 1-1.3 1.6a8 8 0 0 1-1.7 3.3c-.8 1-.8.9-.1 4.4.9 4.3 2.1 8.1 4 11.9.4.8.8 1.7.9 1.9.2.6 1.7 2.9 2.3 3.4.2.2 1.3 1.5 2.4 2.8 2.1 2.5 4 4.5 5.3 5.5 2.5 2 5.7 4.7 6.9 5.7 2.6 2.3 3.6 2.9 7.4 5.3 5.5 3.4 8.3 4.8 9.1 4.6.4-.1 8.1-9.6 10.5-12.9l1.2-1.7-.4-.4c-1-1.1-3.1-4.8-4.1-7.3l-1.3-3c-2.1-4.8-3.5-10.5-4.2-17.1-.1-1-.3-2.5-.4-3.3-.4-3.5-.5-4.8-.5-11 0-8 .2-9.3 2.5-17.6.4-1.5.4-1.8.2-2.4-.1-.4-.5-1.6-.8-2.7-.3-1.1-.8-2.7-1.1-3.6-.3-.9-.7-2.2-.8-2.9-.2-.7-.5-1.9-.7-2.7-.2-.8-.4-1.9-.5-2.5-.2-1.6-.3-2.5-.6-4.1-.2-.8-.4-2.2-.5-3.1-.8-7-1.1-11.7-.7-9.1.1.4.3 1.3.5 2l.4 1.3v-.9c-.1-2 .5-1.2 1.5 2.2 2 6.8 5.5 10 13.3 12.4 1.2.4 2.3.7 2.5.8.2.1 1.5.6 2.8 1.1 1.3.5 2.9 1.3 3.6 1.7.7.4 2.3 1.3 3.6 1.9 6 3.1 8.8 7.2 11 16 1 4 1.3 6.3 1.4 10.4.1 2.5.3 3 .5 1.1.2-2.2-.2-10.3-.7-12.7-.2-1.1-.5-2.9-.6-4-.3-2.8-1.3-9.2-1.4-9.7 0-.1-.2-.4-.3-.7l-.4-1.1c-.8-3.4-3.7-8.8-7.5-14.2-1.6-2.2-.9-1.9 2 1 1.9 1.9 2.8 2.9 5.3 5.7 3 3.5 4.6 4.6 9.3 6.3 1.7.6 3.7 1.4 4.4 1.7.7.3 1.6.7 2 .8 4.1 1.5 6.8 4.4 7.2 8 .2 1.8.9.4 1.5-2.9.5-3 .4-3.6-.8-5.7-.6-1-1.4-2.5-1.9-3.5-.8-1.5-2.5-4.7-4.1-7.5-.3-.6-.8-1.4-1-1.8-.5-.9-5-5.7-7.1-7.5-3.2-2.8-3.8-3.3-6.1-4.6-1.3-.7-3.5-2.2-4.9-3.3-1.4-1.1-3-2.2-3.4-2.4-3.3-1.9-5.8-4-7.9-6.5-.7-.9-1.4-1.7-1.5-1.8-.3-.3-3.1-4.5-4-6.2-.4-.6.9.6 2.2 2.1 2.5 2.9 4.6 4.8 7.1 6.4.8.5 1.5 1.1 1.6 1.2.6.7 3.6 2.6 6.4 4 1.8.9 3.9 2 4.8 2.6l3.2 2.1c.9.6 2.2 1.5 2.8 2 2.5 2.2 7.2 5.3 8.9 5.9.5.2 1.7.7 2.7 1.2.9.5 2.2 1 2.8 1.3.6.2 1.2.5 1.3.6.1.1 1.3.6 2.6 1.2 2.9 1.2 3.7 1.6 5 2.7 1.7 1.4 4.2 2.2 4.2 1.2 0-.7-.6-1.6-1.5-2.2-.9-.6-3.4-2.8-5.3-4.5-.6-.5-1.3-1.1-1.7-1.4-.3-.2-.6-.5-.7-.5 0-.1-.2-.2-.3-.2-.2 0-1.2-.8-3.2-2.5-1.9-1.7-3-2.5-4-3.2-.6-.4-1.5-1.1-2-1.6-1.4-1.3-2.4-1.9-3.9-2.5-.7-.3-1.7-.9-2.2-1.3-1.1-.9-.7-.9 1.5.3.8.4 2 .9 2.6 1.1.6.2 1.9.8 2.9 1.4 1 .6 2.5 1.3 3.3 1.7.9.4 2 1 2.6 1.3 1.7 1.2 2.1 1.4 2.4 1.4.2 0 .7.3 1.1.6 1.7 1.3 1.9.4.3-1.7-.6-.8-1.2-1.5-1.3-1.5-.2-.1-2.9-2.4-5.5-4.8-1.2-1.1-2.3-1.8-3.3-2.4-.9-.4-2.3-1.3-3.1-2-.9-.7-2.1-1.4-3.1-1.9-1.5-.7-3.6-1.6-7.4-3.5-.8-.4-2.1-1.1-2.8-1.5-.8-.4-1.6-.8-1.9-.8-1.6 0-5.5-4.3-7.7-8.5-1.1-2.2-2.5-4.5-3.7-6.3-.3-.5-.9-1.4-1.2-1.9-1-1.6-4.4-6-5-6.5-.2-.1-.4-.5-.5-.9-.2-.9-.7-1.3-1.5-1-.8.3-.8.6.1 7.2.2 1.1.3 2.3.4 2.5.2.8-.6-.5-1.1-1.8-.2-.6-.6-1.4-.8-1.9-.7-1.6-2.1-6.5-2.4-8.5.3-2.1-1.6-3.5-3.2-2.8m-42.1 1.5c-.1.3-.3.8-.3 1 0 .3-.6 1.6-1.3 3l-1.2 2.5v2c0 2.7.4 3.5 3.1 6.1 1.9 1.9 2.4 2.3 2.2 1.6-.1-.2-.2-.6-.2-.9-.1-.3-.5-1-1-1.5-2.1-2.3-2.5-5.7-1.3-11.2.3-1.5.6-2.9.6-3 0-.4-.3-.2-.6.4m147.7-.2c0 .3.1.4.3.3.5-.1.6-.7.1-.7-.3 0-.4.2-.4.4m88.3.7c-1.6.7-5 5.1-5 6.6 0 .7.6.7.9.1.4-.7.5-.3 0 .6-.2.5-.4 1.5-.5 2.3l-.1 1.5.7.7c1.9 2 6.1-1.1 8-5.9 1.7-4.1-.5-7.4-4-5.9m-28.9 4.1c-1.4.6-3.9 5-2.9 5 .2 0 .4-.2.6-.3.2-.3.3-.2.3.8 0 1.1 0 1.1.6 1.5 1 .6 2.8.5 2.8-.2 0-.3.4-1.2.8-2.1l.7-1.7h.8c1.4 0 1.6.8.8 3.2-.6 1.7-.5 2 .7 2 3.1 0 3.5-6.1.5-8-1.1-.9-4.1-.9-5.7-.2m16.5-.1c-2.4.7-4.4 3-4.9 5.6-.4 2 .1 1.9 1.2-.3.4-.7.8-1.4.9-1.5.3-.2-.7 2.8-1.1 3.3-.9 1.2 0 2.8 1.9 3.4 2.2.7 2 .7 2.4-.8 1-4.2 1.2-4.7 2.1-4.7 1 0 1.1.7.9 5.9-.1 1.5 1.6 1.8 2.5.4.9-1.4.2-6.9-1.2-9-.2-.4-.5-.8-.5-.9 0-.4-.9-1-1.9-1.2-1.7-.3-1.8-.3-2.3-.2m14.4 0c.4.4.3 1.2-.4 2.2-2.4 3.5-3.9 3.6-1.9.1 1.3-2.2 1.8-2.8 2.3-2.3m-169.1.2c-.4.7.7 5.1 1.8 7 1.7 2.9 3.2 4 7.8 5.5a37 37 0 0 1 3.9 1.4c1.2.5 5.2 1.5 6.6 1.7 2.4.3 6.3 1.1 6.6 1.4.1.1-1.2.1-2.8.1-4.3-.1-4.5-.1-2.7.6 2.6 1 2.3 1.1-1.4.5-1.2-.2-2.8-.4-3.4-.5-.6-.1-1.6-.2-2.1-.3l-2.6-.5c-.9-.2-1.8-.3-1.9-.4-.1-.1-.8-.2-1.5-.3-1.7-.2-2-.3-2.9-.6-.8-.4-1.1-.4-1.1-.1 0 .2 1.2.7 3.2 1.4.6.2 2.2.7 3.4 1.2 2 .7 6.8 1.9 9.9 2.4.8.1 2.3.2 3.7.1l2.3-.1.8-.9c.4-.5.9-1.1.9-1.4.2-.8.5-.7.5.1 0 1.3 2.1 3.8 3.3 4 2.3.4 3.9 1 5.1 2.1.8.7 1.7 1.2 1.9 1.1 0 0-.2-1-.4-2.2-.3-1.3-.5-2.3-.4-2.7.2-1.1.5-1.7.9-1.7.2 0 .4-.1.4-.4 0-.2.1-.4.2-.5.2-.1.5.6.4 1.2 0 .4 0 .4.1 0 .1-.3.3-.2 1.2.9.6.7 1.7 2 2.5 2.9 1.7 2 2.6 2.5 5.1 2.7.9.1 1.9.2 2.1.3.7.3.8.2 1.1-.5l.3-.7-.7-.7c-.4-.4-1.2-.8-1.7-1.1-.5-.2-1.5-.7-2.1-1.2-.6-.4-1.3-.9-1.5-1-.8-.4-.6-2.1.5-4.3 2.2-4.3 2.3-4.3 3.9-3.6 3.8 1.7 7.6 1.9 8.7.4l.6-.8-1.6-1.6c-1.4-1.4-1.7-1.6-2.6-1.8-1.1-.2-6.1-.3-6.4-.1-.1.1-.5-.2-.9-.6a7.53 7.53 0 0 0-3.7-2.3c-.6-.2-1.5-.6-2-.9-2.6-1.6-3.3-1.3-7 3.3-2 2.5-3.1 3.2-5.7 3.7l-1.7.3-.7-.5c-.4-.3-1.2-.7-1.8-.9-.6-.2-1.6-.6-2.3-.9-.6-.3-1.7-.7-2.3-1-1.3-.4-2.5-1-5.3-2.3-1.1-.5-2.8-1.1-4.5-1.5-2.4-.6-6.5-2.2-7.4-2.9-.1-.1-.4-.2-.7-.3-.3-.1-1-.5-1.7-.9-1.4-1.2-2.1-1.5-2.2-1.3m-47.4 2.3c0 .1.2.2.4.2.4 0 .4 0 .1-.2-.3-.2-.5-.2-.5 0m41.4 1.5c0 .1.2.8.4 1.7.3 1.1.4 1.9.3 2.9-.1 1.2 0 1.4.2 1.2.4-.3.3-1.3-.1-3.5-.4-1.5-.8-2.8-.8-2.3m-58 3.6c-.2.9-.6 2.2-.8 2.9-.3 1.2-.3 2.2.1 3.9.2.8 2 2.3 3.3 2.7.4.1 1.1.5 1.6.9 1.1.8 1 .9.8-.8-.2-1.1-.3-1.3-.7-1.5-.6-.2-.9-.5-1.8-1.6-1.4-1.7-1.8-2.9-2.1-6.8l-.1-1.5-.3 1.8m125.7-.5c.2.2.5.3.7.3.2 0 .2-.1-.1-.3-.2-.2-.5-.3-.7-.3-.2 0-.2.1.1.3m-20.2 3c.4.6 1.2.7 2 .2.8-.4 1.1-.1.7.6-.2.3-.3.8-.3 1.1s-.1.8-.2 1.2c-.3 1-.3 3.6 0 4.9.1.6.2 1.1.2 1.2 0 0 .1.4.4.9.6 1.1.5 1.2-.2.4-.4-.4-.8-1.2-1-1.8-.5-1.6-2.6-2.8-3-1.9-.3.6-3.2 3.4-3.6 3.4-.2 0-.1-.4.4-1.3.4-.7.7-1.4.7-1.6 0-.2.4-.5.9-.8 2.6-1.7 3.1-2.8 2.7-5.3-.3-1.7-.3-1.5-.1-1.5 0-.2.3 0 .4.3m-38.3 3.2c.1.2.4.4.5.4.3 0 .3 0 0-.4-.2-.2-.4-.4-.5-.4s-.1.2 0 .4M35 168c0 .2.2.7.4 1.1 1.4 2.8 1.5 5.1.4 7.2-1.4 2.7-1.4 5.4 0 6.5 1.1.8 5.4 1.7 6.5 1.3 1.2-.5 5.8-8 6.3-10.5.2-.9 0-.8-1.5.6-.7.7-1.4 1.3-1.5 1.3-.1 0-.9.3-1.8.8-2.5 1.2-5.9 1.7-5.6.7.7-2.1.5-3.5-.6-5.9-.6-1.2-2.6-3.6-2.6-3.1m211.2 1.8c-.4 1.4.1 2.7 1.5 4.2l.8.9 2.7-.1c5.1-.2 5.5-.3 4.1-1.5-.3-.3-.9-.8-1.3-1.1-1.6-1.4-2.7-1.9-4.2-2-.9 0-1.8-.2-2.3-.4-1.2-.5-1.1-.6-1.3 0m78.4-.3c-5 .4-9.2.9-12.2 1.5-.8.1-2.6.5-4.2.8-6.2 1.2-7.5 1.5-11 2.8-1.1.4-2.8 1-3.8 1.3-2.5.8-5.2 1.9-6.9 2.8-2.3 1.2-2.6 1.4-6.1 3.2-1.8.9-3.6 1.9-4 2.2-.5.3-.9.5-.9.5-.1 0-.5.3-.9.6-.5.3-1.5.9-2.3 1.3l-4.5 2.6c-1.9 1.2-3.8 2.4-4.9 3.3-1.2.9-2 1.6-4.4 3.7-.1.1-.9.7-1.7 1.3-.8.6-1.8 1.4-2.2 1.7-.4.4-1 .8-1.3 1.1-.7.5-4.3 4-5.3 5.3-.7.8-4 4.4-7 7.5-1.7 1.8-2 2.2-3 3.4-.4.4-1.4 1.6-2.2 2.7-.9 1-1.8 2.2-2.1 2.7-.3.4-.7.9-.8 1-.3.3-.9 1.1-2 2.7-.5.8-1.1 1.5-1.2 1.6-.1.1-.2.3-.2.4 0 .1-.6.9-1.2 1.9-.7 1-1.8 2.9-2.6 4.2l-1.5 2.8c-.1.2-.4.7-.7 1.3-.6 1.1-3.2 5-4.4 6.5-.4.6-1.1 1.5-1.5 2.1-.4.5-.8 1.1-.9 1.2-.1.1-.4.6-.7 1l-1.7 2.3c-2 2.7-3.2 4.5-3.2 4.7 0 .1-.1.2-.2.2s-.3.4-.5.8-.7 1.3-1.1 1.9c-.4.6-.9 1.5-1.2 1.9-1.5 2.6-3.6 5.8-7.9 12.2-3.5 5.2-5.9 9.1-8 13.3-1.6 3.1-2.9 5.4-5.4 9.7-.5.9-1.2 2.1-1.6 2.8-.4.7-.8 1.5-1 1.8-.2.3-.6 1-.9 1.6-1.3 2.3-6.3 9.8-8.3 12.6-1.1 1.4-4.3 4.8-10.8 11.4-1.4 1.5-3 3.1-3.5 3.6-6.1 6.9-10.3 10.9-15.9 14.9-1 .7-2.5 1.8-3.5 2.5a50.5 50.5 0 0 1-10.9 6.4c-.3.1-.6.3-.8.4-2.8 1.9-11.2 6.1-13.8 6.9-5.9 2-15.4 2-21.9.1-.8-.2-3-.8-5-1.4-4.4-1.2-7.2-2.1-9.5-3.2-2.2-1.1-3-1.1-3-.3 0 .4.1.6.3.6.2 0 .5.3.8.7 1 1.4 11.2 6.1 16.5 7.6 1.3.4 3.5 1 4.8 1.4 1.3.4 3 .8 3.8 1 .8.1 1.8.4 2.2.5 1.4.5 7.2.4 13.8-.4 6.3-.8 8.2-1.2 14.5-3.8 7.3-2.9 12.2-5.8 16.2-9.5 1-.9 4.5-3.4 6.4-4.7 1.2-.8 4.2-2.9 5.8-4.1 5.2-4.1 6.9-5.6 10.8-10.2 1.3-1.5 5.5-5.9 9-9.4 1.1-1.1 2.3-2.4 2.5-2.7.4-.7.7-1 2.2-2.6.4-.4 1-1.3 1.4-2 .4-.7 1.2-1.8 1.9-2.6.7-.7 1.5-1.7 1.8-2.2s.9-1.1 1.2-1.5c.3-.3 1.2-1.2 1.8-2 .6-.8 1.7-2 2.4-2.7 4.4-4.9 7.5-9 10.9-14.4 1.1-1.8 6-10.3 7.1-12.4 1.7-3.3 3.4-6.5 4.9-9 .8-1.3 1.9-3.2 2.4-4.1.8-1.4 5.1-8 6.2-9.6.2-.3 1.2-2.2 2.2-4.3 1.5-3.2 4.1-7.5 5.4-9 .1-.1.7-.9 1.4-1.8s1.5-2 1.9-2.4c.4-.4 1.3-1.8 2.2-3.1.9-1.2 2.1-2.8 2.8-3.5 1.4-1.5 2.2-2.3 3.1-3.5.4-.5.9-1.1 1.2-1.5.3-.3 1-1.1 1.6-1.7.6-.6 1.9-1.9 2.9-2.7 1-.9 2.4-2.1 3.1-2.7 1-.9 2.8-2.4 3.9-3.3 2.1-1.6 3.2-2.4 4-2.8.5-.2 1.5-.9 2.2-1.4.7-.5 1.4-1 1.6-1.1.2-.1 1.3-.8 2.4-1.6s3.4-2.1 5.1-2.9c1.6-.8 3.3-1.6 3.7-1.8 2.8-1.5 8.8-3.6 14.2-5 1-.3 2.2-.6 2.8-.8.6-.2 1.6-.4 2.1-.5s1.9-.3 2.8-.5c2.3-.4 7.8-.6 7.3-.3-.2.1-.8.3-1.5.4l-2.2.4c-.6.1-1.7.4-2.5.6-.8.2-2.5.7-3.7 1-1.2.3-3.5 1-5.1 1.5-1.6.5-4.1 1.4-5.7 1.9-9.9 3.2-19.1 8.7-27.1 16.2-1.3 1.2-3.2 2.9-4.2 3.8-4 3.6-7.7 7.7-10 11-.5.8-3.8 4.6-4.3 5-.6.5-2.7 3.5-3.2 4.5-.6 1.4-1.6 3-3.2 5.4-.6.9-1.4 2.1-1.7 2.7-.3.6-1.5 2.4-2.5 4s-2.6 3.9-3.4 5.2c-.8 1.3-1.6 2.4-1.7 2.5-.2.2-3.3 5.3-3.9 6.5-.1.2-.7 1.1-1.2 2.1-.5.9-1.7 3.1-2.6 4.8-2.4 4.6-3.1 5.9-4.2 7.9-.6 1-1 1.8-1 1.9 0 .1-.2.4-.5.8-.2.4-.9 1.5-1.4 2.5-.5 1-1 1.8-1.1 2-.2.2-.3.5-1.6 2.7-2.8 5.1-5.2 9-7.2 11.8-.6.8-2.6 3.8-4.6 6.7-2 2.9-3.6 5.3-3.7 5.4-.1.1-.5.6-.9 1.3-.6 1-2.2 3.1-4.6 6.3-.3.4-1.1 1.6-1.9 2.7-1.7 2.7-4.2 5.9-6.3 8.5-.9 1.1-2.4 2.9-3.2 4-5.6 7.3-8.3 10.3-16.5 18.4-2 2-3.7 3.7-3.6 3.7.2.2 2.4.5 3.6.6l1.4.1 1.4-1.4c.8-.8 1.6-1.7 1.8-1.9.2-.3.7-.9 1.2-1.5.4-.5.9-1.1 1-1.2l1.4-1.6c.6-.8 1.5-1.8 1.9-2.2 2.3-2.7 3.7-4.5 4.3-5.4.4-.5 1.3-1.9 2-2.9 2.6-3.8 4.1-5.8 5.7-7.5.8-.8 3.4-4.1 4.1-5.2.4-.5.8-1.2 1.1-1.5.2-.3.6-.7.7-1 .2-.3.4-.6.6-.6.2-.1.1.2-.2.5-.3.3-.5.8-.6 1-.1.2-.2.4-.3.4s-.2.1-.1.1c.2.2-2.7 4.4-4.9 7.3-1.1 1.5-2.8 3.8-3.7 5.2-2.8 4.3-3.9 6-5 7.3-1.1 1.4-4.4 5.5-4.6 5.7-.1.1-.5.6-1 1.2s-.9 1.1-1 1.2c-.1.1-.5.6-1 1.3a49 49 0 0 0-1.4 1.8c-.7.8-.6.9.4.8 1.3-.2 3.2-1.2 4.1-2.2 3-3.3 8.2-10.5 10.7-14.7 1.5-2.5 2-3.3 3.9-5.5 1.1-1.2 2.2-2.6 2.5-2.9.3-.4 1.2-1.5 2-2.4.8-1 1.6-2.1 1.9-2.4.3-.4.5-.7.6-.8.3-.2 4.7-6.5 4.7-6.6 0-.1.1-.2.1-.2.1 0 1.1-1.5 2.2-3.2 2.2-3.4 2.5-3.8 4.7-7.4 1.6-2.7 2.3-3.8 5.1-8a455 455 0 0 0 6.8-10.8c.5-.8 1.5-2.5 2.3-3.8 2-3.3 4-6.6 5.5-9.4.7-1.3 1.6-3 2-3.7.4-.8 1.5-2.8 2.4-4.6.9-1.8 1.8-3.4 1.9-3.5.1-.2.5-.8.8-1.4.3-.6.9-1.6 1.3-2.3.4-.7 1.1-2 1.5-2.8.5-.9 1.6-2.7 2.5-4.1.9-1.4 1.8-2.8 2.1-3.2 1.3-2.1 2.8-4.8 3.4-5.8.3-.6.7-1.2.8-1.4.1-.1.6-.8 1.2-1.5 1.2-1.4 2.9-3.9 4.5-6.2 1.2-1.7 6.2-8.5 7.3-9.9 1-1.2 9.1-9.2 10.6-10.5.7-.6 1.6-1.4 2.1-1.9.5-.4 1.3-1.1 1.9-1.6.5-.4 1-.8 1.1-.9.1-.1.4-.4.9-.7.4-.3.9-.7 1-.8.3-.3 2.3-1.6 5-3.3.3-.2.9-.5 1.2-.7 1.5-.8 2.9-1.6 3.1-1.8.3-.3 1.7-1.1 2.4-1.4.4-.2.7-.4.8-.5.2-.2 4.8-2.4 7-3.3 5.6-2.2 8.8-2.9 14.5-3.2 4.9-.2 7.4 0 9.7.9l.6.2c.5.1 6.5 1.9 7.2 2.2 1.8.8 4.2 4 5.4 7.2l1.1 2.7c.3.6.4 1.6.6 3.1.1 1.3.3 2.7.5 3.2.5 1.3.5 9 0 11.3-.2.9-.5 2.5-.6 3.5-.4 2.7-1.2 4.9-2.3 7.2-.6 1.1-1.3 2.8-1.5 3.6-.3.9-.9 2.6-1.3 3.9-.4 1.3-.9 2.9-1.1 3.6-.3 1.3-2.1 5.1-3.4 7.3-.6 1-1.5 2.5-4.3 6.9-.3.4-1.2 1.9-2 3.2-.9 1.3-1.9 2.9-2.2 3.5-.7 1.1-.9 1.3-2.2 3-4.3 5.5-12.3 12.1-17.7 14.4-1 .4-2.8 1.3-4.1 2-1.4.7-3 1.4-3.9 1.6-.9.2-2.6.7-3.8 1.1-1.2.4-2.7.7-3.2.7s-1.2.2-1.5.3c-2.4 1.4-6.6-.6-8.9-4.3-.4-.6-.9-1.3-1.1-1.6-.9-1.3-2.1-4.1-2.5-5.7-1.2-5 .2-14.2 2.8-17.9 3.6-5.1 4.1-5.7 7.5-8.6 2.6-2.2 3.2-2.6 6.5-4.2 3.4-1.7 6.9-2.3 11.3-2 2.7.2 2.6.3-.2.8-.6.1-1.3.4-1.6.6-1.6 1.2-4.1 4.3-4.6 5.6-.3.7-.6.9-.6.2 0-3-4.1-3.4-6.8-.7-1.7 1.7-2.1 2.7-.8 2.3.6-.2.6.1-.1.9-.9 1-.9 2.8-.1 4.6.2.5.4 1.1.3 1.3-.1.3 0 .4.2.4s.2-.1.2-.4c-.1-.4-.1-.4.3-.1 1.1.8 3.1-.2 4.6-2.3.3-.4.4-.5.4-.3 0 .6-1 2.3-2 3.3l-.9 1 .5.5c.5.5.8 1.4 1 2.9.2 1.2-.2 1.2-.5.1-.7-2.2-4.2-3.4-5-1.6-.1.1-.1-.1 0-.4.3-2.3-2.1-4.8-4.5-4.7-2.2 0-4.6 2.1-4.6 3.9 0 1 .9.8 1.5-.4.5-.9 1.1-1.1 1-.2-.1.4-.2.9-.3 1.1-.7 1.3-1.3 5.5-.9 6.1 1.2 1.9 4.5 1 6.2-1.7.3-.5.4-.5.2-.1-1.1 3.8.6 7.2 3.5 7.2 1.5 0 1.7-.2 2.6-2 .9-1.7 1.1-2 1-1.2-.1 1.5 0 2.2.6 2.8.6.6.6.7 0 .6-1-.1-2.7 1.2-2.8 2.2 0 .3-.1.6-.2.6-1 1 1.4 4.2 4.3 5.7 1.2.6 3.4 1.2 4.4 1.2 2.6 0 4.5-2.6 3.5-4.7-.2-.4-.3-.7-.3-.8 0-.1-.4-.6-1-1.1s-1-1.1-1-1.3c0-.2-.6-.7-1.2-1.1-2.2-1.5-5-6.2-5.1-8.5-.1-9.7 4.2-16.2 13.9-21.3 1.6-.8 3-1.5 3.2-1.5 1.1 0-.6-1.9-2.3-2.6-8.3-3.1-13.9-3.3-24.3-.7-8.3 2-9.8 2.6-13.4 5.5-2.2 1.8-7.9 8.1-7.9 8.8 0 .1-.4.7-.8 1.4-1.6 2.4-3.2 4.9-3.3 5.2-.3.6-2.6 4.2-3.9 6-1.2 1.8-2.8 4.6-3.4 6-.1.3-.4 1.1-.6 1.7-1.2 3.2-1.7 5.2-2.3 9.2-1 6.5 1.9 20.1 5.6 26.1.5.9 1.2 2 1.4 2.4 4 6.8 9.6 11 18.4 13.5.9.3 1.8.6 1.9.6.7.5 4.2.8 5 .4.9-.5.2-1.2-1.5-1.5-1-.2-3.4-1.3-5.2-2.3-5.4-3-9.9-7.7-12.9-13.2-1-1.8-1.2-2.2-1.3-2.3-.3-.2-1.8-3.6-2.2-4.7-.4-1.3-.7-6.6-.5-8.6l.1-1.1 1-.2c.7-.2 1.8-.2 3.4-.1 4.7.2 5.3.3 7 1.3 3.9 2.2 14.6 3.9 19.1 3.1 2.2-.4 1.9-.6-1.1-.6-7.7 0-14.1-4.3-17-11.3-2.5-6.1-3.4-12.8-2.3-18.1 0-.2.1-.8.2-1.4.5-3.5 4.5-10.7 8.3-14.6 3.1-3.2 8.8-6.7 13.6-8.4 2-.7 3.9-1.1 2.8-.7-2.2 1-4.7 2.4-8.6 4.8-.3.2-.7.4-.9.5-4.5 2.4-8.9 7.8-11.4 14-.6 1.4-1.3 3.1-1.5 3.7-.5 1.1-.5 1.3-.5 4.7 0 3 .1 4 .4 5.6 0 .2.4 1.5.9 2.9.4 1.4.8 2.8.9 2.9.5 2.3 1.9 4.8 3.6 6.6 5 5.1 10.4 6.3 18 4 1.1-.3 2.4-.7 3-.8 3.3-.6 12-4.9 14.3-7 .4-.3 1.2-1 1.8-1.4 1.9-1.3 2.7-2.1 5.9-6.1 1.6-2 3.9-4.8 5-6.2 1.6-2 4.6-6 6.1-8.2l1-1.5c1.1-1.5 4.8-7.1 5.6-8.5.9-1.4 4.1-7.8 5.1-10.1.4-.9.9-2 1.1-2.4.2-.5.5-1.1.5-1.4.1-.3.4-1.1.8-2 .9-1.8 1-2.3 1.2-2.9 0-.3.3-1.1.7-1.8.3-.7.8-2.2 1.1-3.2.3-1 .6-2.2.8-2.6.2-.4.3-.7.2-.7 0 0 .1-.8.4-1.8.3-1 .6-2.3.7-3 .4-1.7 1-3.6 1.1-3.6.2 0 .2.3-.1 1.4-.2.8-.7 3.2-.9 4.6-.1.3-.2.9-.3 1.3-.1.4-.2 1.1-.3 1.6-.1.5-.6 2.5-1.1 4.4-.5 1.9-1.1 3.8-1.1 4.2a28 28 0 0 1-.9 2.6l-1.3 3.5c-.7 1.9-3 7.5-4.2 9.9-.9 1.8-1.3 2.7-2.8 5.3-.9 1.6-1 2.3-.3 1.4l.4-.5-.1.5c0 .3-.2.6-.3.7-.1.1-.8 1.5-1.6 3-1.5 2.8-2.2 4-3.4 5.6-.4.5-1 1.3-1.4 1.9-.8 1.1-3.6 4.9-4.1 5.5-.2.2-.6.7-.9 1.1-.3.4-.9 1.1-1.4 1.7-1.1 1.4-1.9 2.3-4 4.4-1.4 1.4-1.7 1.8-1.4 1.7 5.4-1.3 11.1-1.4 16.2 0 1.2.3 2.4 1 4.2 2.3.5.4 1.7 1.1 2.5 1.5.8.4 2.4 1.4 3.4 2.2 2.6 1.9 5 3 7.8 3.8 4.4 1.1 9.8 1.2 11.9.2 2.4-1.2 4.5-3.6 8.1-9.2 1.1-1.7 2.2-3.4 2.6-3.8.3-.4 1-1.4 1.5-2.2.5-.8 1.2-1.9 1.6-2.4.4-.5 1.3-2 2-3.3 1.2-2 1.7-3 3-5.9.1-.3.6-1.3 1-2.1.4-.9.9-2.1 1.2-2.7.2-.6 1.1-2.4 1.8-4 2.4-5.1 2.8-6 5.7-15.1 1.1-3.4 1.6-5.6 2.2-9.2.2-1.3.5-2.8.6-3.3.9-4.4.8-12.1-.4-17.2-.3-1.4-.9-4-1.3-5.8-1.4-6.8-1.8-7.9-2.9-10.5-2-4.5-3.5-6.8-8.5-13.3-1.1-1.5-2.2-2.9-2.4-3.2-3.4-4.6-7.4-8.6-12-12-1.2-.9-2.4-1.9-2.6-2.1-.2-.2-1.1-.8-1.9-1.3-.8-.5-2.3-1.4-3.2-2-5.9-3.8-7-4.1-11.9-4.4-2.5-.1-3.4-.2-5.6-.6-1-.5-5.2-.6-6.4-.5M195 170.7c.1.3.3.7.4 1l.3.5-.1-.6c-.1-.3-.3-.8-.4-1-.3-.4-.3-.4-.2.1m44.7 7.4c2.2 4.2 3.8 5.6 5.9 5 2-.6 2.1-1 .6-1.5-1.1-.4-3.2-1.8-4-2.9-.8-1-3.1-2.9-3.5-2.9-.1 0 .2.8 1 2.3m.1 3.6s.1.2.3.3c.2.2.3.2.3-.1 0-.2-.1-.3-.3-.3-.1 0-.3.1-.3.1m-5.4 2.7c-.4.6-1 1.6-1.4 2.4-.4.8-.9 1.7-1.2 2.2-.3.5-.5.9-.5.9s-.2.4-.5.8c-.9 1.4-1.1 2.3-.8 2.5.4.2.8.1.8-.2 0-.2 2.2-3.6 4.5-6.8.7-1 1.4-2 1.4-2.1.2-.3-.8-.8-1.4-.8-.1.1-.5.5-.9 1.1m2.7.1c-.4.5-2.9 4.7-2.9 4.9 0 .1-.4.8-.9 1.5s-.8 1.4-.8 1.4c.1.1-.1.5-.3 1-.5 1.1-.5 1.2.1 1.7.7.6 1.1.2 2.5-2.5.2-.4.8-1.3 1.4-2.1 1.2-1.6 2.2-3.3 2.2-3.7 0-.2.1-.5.3-.7.6-.8-1-2.2-1.6-1.5m-114.7 12.3a86.3 86.3 0 0 1-11.9 4.5c-4.1 1.5-5.8 2.1-13.5 4.5-9.6 3-19.4 7.2-23.3 9.9-1.5 1-2.1 1.5-6.6 4.4-4 2.6-9.5 6.8-10.8 8.2-.4.4-2.9 2.7-4.2 3.8-1.2 1-2.8 2.9-3.9 4.5-.3.4-.5.7-.6.8-.3.3-1.4 2-1.8 2.9-.5 1-.4.9 2.5-2 1.6-1.6 3.4-3.3 4-3.7.5-.4 1.1-.7 1.2-.8.8-.7 3.7-2.7 6.3-4.4.7-.5 3.1-2.1 5.4-3.6 2.2-1.5 4.3-2.9 4.7-3 .3-.2 1.2-.6 1.8-1 .6-.4 1.9-1.1 2.7-1.6.8-.5 1.6-.9 1.6-.9s.3-.1.6-.3c.3-.2 1.2-.6 2.1-1 6.9-2.8 8.8-3.4 12.2-3.8 1.2-.1 3-.3 4-.4 3.7-.4 8.6-.4 10.3-.1 2.1.4 2 .5 3-.7.5-.6 1.9-2.1 3.1-3.5 1.3-1.3 3.5-3.7 4.9-5.3 1.4-1.6 3.7-4 5.1-5.3 1.3-1.4 2.5-2.5 2.5-2.6-.2-.1-.5 0-1.4.5m16.2 3.6c-.2.5-1.5 1.1-2.8 1.2-1.3.1-1.7-.1-.6-.3 2.3-.4 3-.6 3.1-.9.3-.4.4-.4.3 0m3.6 1.1c.4.1.4.3.1.6-.3.3-1.4-.2-1.6-.7-.1-.3.3-.2 1.5.1m-10.9 1.1c-.9.9-.1 1.9 1.4 1.9.6 0 1.2-.1 1.2-.2.1-.1.3-.2.4-.2.5 0-.1.5-1.1 1-1.4.6-2.6.4-2.6-.6s-1.2.4-1.8 2.1c-.8 2.3-.8 2.8 0 6.4.7 3.2 4 5.7 7.1 5.5 3.3-.2 4.6-1.4 4.6-4.2 0-2.5-1.1-3.5-1.5-1.3-.1.8-.4 1.2-.9 1.9l-.7.8h-1.5c-2.9 0-4.1-1.6-3.7-5 .3-2.6 3.6-4.1 7.2-3.3.4.1.4 0 .5-.9 0-.7.5-1.2 1.3-1.2l.7-.1-.7.6c-1.5 1.3.7 3.9 3.5 4.3.3 0 .6.1.7.1.1 0 0 .1-.2.2-.3.2-.2.3.3 1.2l.6 1-.8-.7c-.9-.8-1.8-1.3-2.4-1.3-.2 0-.8-.2-1.4-.5-1.4-.7-1.4 0 0 1 1.8 1.3 2.9 4.9 2.1 7.2-1.7 5.1-9.3 10.3-18.5 12.6-1.8.5-3.2.7-3.3.6-.1-.1.2-.3.7-.4.5-.1 1.1-.3 1.4-.5s1.2-.5 2-.8c2.1-.8 5.5-2.5 6.5-3.3.5-.4 1.6-1.2 2.4-1.8 2-1.4 3-2.3 2.8-2.7-.1-.2-.1-.8-.1-1.4v-1.1l-1.9-.1c-2.5-.1-4.1-.8-6-2.5-1-.9-1.1-.9-1.4-.1-1.1 2.7.3 6.4 2.8 7.2 1 .3.8.5-.4.6-2.4 0-6.1-3.6-6.5-6.2-.1-.5-.3-1.4-.4-2-.5-1.8.2-3.6 1.6-4 1.2-.3 1.7-1.1 1.8-2.7.1-2.6 1-5.1 2.5-6.2 1.2-.9 2.3-1.5 1.7-.9m15.1.7c-.2.3-.2.3.2.1 1-.3 1.7-.3 2.1 0l.4.3h-.4c-.2 0-.9.1-1.4.2-1.2.2-1.9-.3-1.7-1 .1-.4.2-.4.6-.2.4.3.4.3.2.6m-12.8-.1c-.2.3-1 .3-1 .1 0-.1.3-.2 1-.3.2-.1.1.1 0 .2m8.4.2c.1.1.3.3.3.6s.2.4.4.5c.6.1.3.4-.4.4s-2.1-.6-2.4-1c-.2-.3-.2-.3.2-.2.4.1.5 0 .5-.3 0-.5.7-.4 1.4 0m-5.3 2.4c.2.2.7.3 1.2.2.7 0 .8 0 .5.2-1 .7-3 .2-3-.8 0-1.1.4-1.5.7-.7.1.5.4.9.6 1.1m1.9-1.1c-.1.1-.3.2-.6.2s-.5-.1-.5-.2.3-.2.6-.2.5.1.5.2m9.2 1.8c.1.1.3.5.3.9.3 1.9 2 4.1 3.3 4.4.3.1.5.2.5.3 0 .2-2.5.2-3-.1-.9-.5-2.2-3.3-2.5-5.2-.1-.7.9-1.3 1.1-.8.1.3.2.5.3.5m3.6 2.2c.4.7.4.9.2 1-.6.4-1.8-1.5-1.8-2.7 0-.4 1.1.7 1.6 1.7m-68.2-1.1c-1.5.5-2.3 1-2.3 1.2 0 .1.8-.1 2.7-1 .7-.3 1.2-.6 1.2-.7v-.1c-.1.1-.8.3-1.6.6m46.9 0c-.5.9.5 2.8 1.3 2.6.5-.1.7.4.2.5-1.5.6-2.8-1.4-1.9-2.9.4-.6.7-.8.4-.2m13.1-.2c.3.1.5.3.5.5 0 .4-.3.4-.9-.2-.5-.5-.4-.6.4-.3m156 1.2c-.8.1-1.6.2-1.7.3-.1.1-.7.3-1.3.4-2.4.6-2.7 1.5-.3 1 1.8-.4 2.4-.4 1 .1-4.3 1.4-8.2 4.4-8.8 6.9-.2.9.1 2.7.4 2.7.1 0 .2.2.2.4.4 1.7 5.5 2.2 9.4.9 4.6-1.5 7-3.3 8-5.7.4-1.1.5-2.5.2-2.7-.1-.1-.1-.2-.1-.4.1-.2 0-.6-.1-1s-.3-.8-.3-.8c-.2-1.6-3.2-2.5-6.6-2.1M154.3 212c.3 1.1.3 1.1-.5.7-.8-.4-.8-.7-.3-1.3.4-.5.5-.4.8.6m163.2-.7c-.2.1-.4.2-.5.2-.1.1-.5.2-.9.4-2.9.8-3.6 4.8-1.2 6.6 2 1.5 8.2 2 9.7.8.7-.6 1.5-2 1.5-2.8 0-.5-.9-2.6-1.1-2.6-.1 0-.4-.2-.6-.4-1.6-1.5-5.2-2.7-6.9-2.2m-170 1.5c.1.2 0 .3-.1.4-.7.4-.3 4.2.5 4.9.6.5 1.4.6 1.7 0 .3-.5.5-.5.5-.1 0 .2-.1.3-.2.3s-.2.1-.2.2.2.2.4.2c.5 0 .5-.2-.1 2.1-.6 2.5-.7 3.9-.4 4.6.3.6.3.6-.3.7-.5.1-.5.1-.5-1.1 0-.9-.1-1.3-.4-1.7-.4-.5-.3-1.3.4-3.8.1-.3-.1-.4-.7-.5-1.4-.2-2.1-1.5-2.1-3.7.1-1.8 1.1-3.7 1.5-2.5m5.1 1.9c.1 1.1.3 2 .5 2.5.5 1 .2 1.2-.5.6-1-.9-1.4-2.7-.8-4.2.3-1.1.6-.7.8 1.1m147.7-1.5c1 .7.9 2.4-.3 3.7-1 1.1-2 1.5-5.4 2.3-1.5.4-2.8-.5-2.8-1.9 0-2.3 6.6-5.5 8.5-4.1m-134.1.2c0 .4 1 1.2 1.8 1.6.9.5.9.5-.7-.9-.6-.4-1.1-.8-1.1-.7m-12.1 1.6c0 .4-.1.8-.2.8-.2 0-.3-.5-.2-1.1.1-.7.4-.5.4.3m166.5-.4c2.7.9 2.4 3.1-.4 3.1-3.7 0-4.6-3.1-1-3.3.3-.1.9 0 1.4.2m-171.5 1.6c-.4.4-.7-.1-.4-.8l.3-.6.2.6c0 .4 0 .7-.1.8m5.9 1.9c-.1.3-.3.8-.5 1.1-.2.3-.5 1-.7 1.6l-.3 1.1v-.8c0-.5-.1-1-.2-1.2-.2-.3.1-.9.9-1.7.1-.1.3-.6.5-1.2l.3-.9.1.7c0 .4 0 .9-.1 1.3m122.8-1c-2.1.7-2.3.9-5 2.9-2.2 1.6-3.1 2.5-2.8 2.9.2.2 1-.3 2.1-1.1 2.4-1.8 5.6-3.2 7.3-3.1.4 0 .3.1-.3.2-1.6.3-4 1.6-6.6 3.6-.5.4-1.3 1.2-1.8 1.9-.3.4-.7.9-.9 1.2-4.6 5.3-.8 11.2 6.4 9.7 6.7-1.4 10.6-5.9 10.5-12.3 0-2.7-.2-3-1.6-4.2-2.2-1.9-5-2.5-7.3-1.7m-132.2 3.7c-.1.2-.3.5-.4.7-.2.2-.2.4-.2.4.1.1.3-.2.5-.6.2-.4.4-.8.3-.8 0 0-.1.1-.2.3m6 1.1c.2.6.2 1.4 0 1.6-.2.2-.6-.5-.6-1 0-.9.4-1.4.6-.6m163.8-.3c-6.4.7-7.7 6.3-1.7 7.8 6.4 1.6 12.1-1.5 9.9-5.6-1.1-2-3.7-2.7-8.2-2.2m-17.5 1.2c-2.1.8-3.3 1.5-3.3 2 0 .2.8.2 1.5-.1 1-.4.9-.1-.2.5-7.9 3.7-6 10.8 2.3 8.7 5.2-1.3 8.3-4.5 7.1-7.2-.2-.4-.2-.6 0-.7.7-.7-.9-2.5-2.9-3.2-1.9-.6-2.7-.6-4.5 0m-16.2.7c1.2.9.6 2.9-1.6 5-.9.9-1.6 1.7-1.6 1.8 0 .3-1.5 1-2.2 1-.9 0-2.2-.7-2.5-1.4-1.6-3.1 5.2-8.6 7.9-6.4m36.5.8c1.9.3 2.8 2.2 1.4 2.8-2.4 1.1-5.7.1-5.3-1.6.2-.7 2.3-1.7 3.1-1.4 0 .1.4.1.8.2m-171.5 2c0 .2-.2.8-.5 1.2l-.5.9v-.9c0-.5.1-1 .3-1.2.4-.4.7-.4.7 0m6.2.2c-.1.1-.1.5-.1 1v.9l.2-.9c.1-.9.1-1.2-.1-1m148.1.8c.9.9.5 1.9-1.5 3.2-2.3 1.5-4.9 1-4.4-.9.4-1.8 4.7-3.4 5.9-2.3m-154 3.8c-.2.7-.3 1.3-.2 1.9.1 1.2-.1 1.4-.8.7-.8-.9-.7-2.2.4-3.1.9-1 1-.9.6.5m3-.8c0 .1-.2.4-.4.5-.2.2-.6.6-.7.9l-.3.5v-.7c0-.6.1-.7.6-1.1.6-.4.8-.4.8-.1m158.1 1.4c-1.4.3-1.6.4-3.9 2s-2.9 2.3-3.2 3.7c-.5 2.4.3 3.1 3.2 2.9.9-.1 2.1-.1 2.7-.1 2.9.1 5.7-1.4 7.3-3.8.5-.7.8-2.1.6-2.5-.1-.1-.2-.5-.2-.7 0-.9-1-1.7-2.3-1.6-.6 0-1.6 0-2.1-.1-.5 0-1.4.1-2.1.2m14.3.4c-2.5.8-3.9 2.6-3.4 4.6.1.5.3 1 .4 1 .1 0 .2.1.2.3 0 1 2.8 2.3 5.5 2.5l.9.1.3-.9c.4-1.3.2-1.5-.8-1.5-1.7 0-2.9-.9-2.9-2.1 0-.7 1.1-1.8 1.9-1.9 1.2-.1 1.7 0 2.2.1.6.2.5.3.9-1.6.1-.5.1-.6-.8-.7-1.6-.2-3.6-.2-4.4.1m-182.6 1.1c-.3.4-.7.7-.7.7-.1-.1.4-1.2.7-1.4.6-.5.6 0 0 .7m119.8-.4c-2 .5-4.7 2.2-4.7 2.9 0 .5.1.5 2.4-.5.8-.3 2.1-.7 2.5-.7.2 0 0 .1-.6.3-1.8.4-4.2 2.1-5.7 4.1-2.9 3.7-3.9 5.7-4.1 8.1-.2 1.6.8 4 1.7 4 .1 0 .2.1.2.2 0 1 5.7.9 6.7 0 .1-.1.5-.4.8-.6 2-1.3 5.1-5 6.4-7.6 2.9-5.8-.3-11.5-5.6-10.2m51.7 1.9c.5.6-1.3 1.6-4.1 2.4-.9.2-1.8.5-2 .6-.5.2-.3-.7.2-1 .2-.1.6-.5 1-.8 1.3-1.2 4.4-1.9 4.9-1.2m-29.1.3a14 14 0 0 0-5.1 3.3c-2.3 2.3-2.4 3.1-.1 1.3.7-.5 1.3-1 1.4-1 .1 0 .6-.3 1.2-.7 1.6-1 2.3-1.1.9-.2-3 2-5.7 5.7-5.3 7.3.3 1.1 3.1 2.2 3.1 1.2 0-.8 2.5-3.6 4-4.6 3.4-2.2 4.3.5 1.4 4.2-.3.4-.6.8-.5.8l1.4.4c1.6.4 1.5.5 3.2-2 2.5-3.7 2.4-5.7-.2-8.8a6.03 6.03 0 0 0-5.4-1.2m-138.4 1.2c-.4.6-.7.6-.7.1 0-.4.8-1.1.9-.8.1.1 0 .4-.2.7m-26.1 1.9c-.3.1-.7.3-1 .6-.2.2-.8.6-1.3.8-2 1-3.2 3.5-2.3 4.6 1.5 1.8 8.1-.5 8.1-2.9 0-.1.2-.4.5-.7 1.5-1.3-1.6-3.2-4-2.4m19.5.9c-.6.7-.8.8-.8.4s.7-1.1 1.1-1.1c.2 0 .1.1-.3.7m158.1-.2c-1.3.4-4.6 2.6-4.6 3.2-.1.5.2.6 1 .1 1.1-.7 1.2-.6.4.2-.4.5-.9 1.1-1.1 1.5-.3.7-.6 1.2-.9 1.2-1.4 0-1.7 3.3-.3 4.7.8.8.9.8 2.7.9.8 0 1.7.1 2.1.2 1.6.3 2.8-.5 3.5-2.2.1-.4.6-1.2 1-1.9 1.8-2.8 1.7-4.5 0-6.4-1.4-1.6-2.3-2-3.8-1.5m-34 2c0 1.6-1.9 4.4-3.7 5.6-2.7 1.7-4-1.2-1.6-3.8.2-.3.4-.5.5-.6 0-.1 1.3-1.6 2.2-2.4 1.3-1.1 2.6-.6 2.6 1.2m-142.2 0c0 .3-1 1-1.3 1-.4 0-1.2.5-1.2.8 0 .1.1.1.2.1.1-.1.2-.1.1.1-.2.3-1.1.5-1.4.3-.2-.2 1.3-1.9 1.9-2.2.6-.3 1.7-.3 1.7-.1m4.6.5c-.7.3-1 .5-1 .8 0 .2-.3.6-.7.8-2.7 1.7-2.5 4.2.3 4.2 1.3 0 1.4.4.1 1-2.3 1.1-3.2 3-1.9 4 1 .9 3.9.3 5.3-1.2.4-.4.8-.7.9-.7.2 0 1-1.4 1-1.9 0-1.2-.8-1.8-2.3-1.7h-1l.9-.4c.8-.4 1.9-1.6 2.4-2.5.6-1.6-2-3.2-4-2.4m15.4 1.1c-.6 1-.9 1.2-1.1.9-.5-.5.5-1.5 1.6-1.8 0 .1-.2.5-.5.9m-33.7.5c-4.7 1.4-8.3 5.5-7.2 8.4 1.4 3.6 10.5-.7 11.6-5.5.5-2.4-1.5-3.8-4.4-2.9m192 1c.6 1.3-1.6 4.2-3.3 4.2-2.2 0-1.7-2.1.9-3.9 1.4-1 2.1-1.1 2.4-.3m-172.4.3c-.7 1-2 1.3-1.5.4.1-.2.4-.4.6-.4.2 0 .6-.1.8-.3.5-.5.6-.4.1.3m7.7-.1c-.6.5-2 1.3-2 1.2 0-.8.6-1.3 1.4-1.3.4 0 .7.1.6.1m-25.4 1.2c.5.9-3.9 5.2-5.2 5-1.9-.3 0-3.1 3.5-4.9.6-.3 1.6-.4 1.7-.1m7.3.2c-.9.2-1.7.4-1.9.5-.5.2-.4.7.2.7.5 0 .4.1-.5.5-4.7 2.4-3.6 7.5 1.4 6.4.6-.1.7-.1.4.1-1.1.6-1.4 1.4-.5 1.2.3-.1 0 .2-.6.6-2.9 2-4.2 4.5-3.1 5.8l.5.6 1.9-.1c4-.2 7.6-3.3 7.8-6.6 0-.6.1-1.1.2-1.2.6-.9-2.4-1.9-4-1.3l-.7.3.6-.4c2.9-2.1 3.8-4.5 2.3-6-.7-.7-1.9-1.4-2.3-1.3-.1-.2-.9 0-1.7.2m2.1 3.1c.3.2-.8 1.5-1.2 1.3-.3-.1-1.3.5-2.1 1.2-.6.5-1.1.5-1.1-.1 0-.5 1.5-2.2 2-2.4.6-.2 2.2-.2 2.4 0m8.3.6c.2.1-.1.3-.8.8-1.4.8-1.6.7-.9-.2.3-.8 1-1 1.7-.6m-31.1 1.4c-1 .3-2.2 1-2.4 1.5-.3.6-.3.7.3.6.5-.1.4 0-.5.9-3.9 4-3.6 9.3.5 9.3 5.4 0 8.9-9.6 4.3-11.9-.9-.5-1.6-.6-2.2-.4m10.2 2.1c-1.3.4-2.5 1.4-2.8 2.2-.1.3-.1.3.3.2.3-.1.2.2-.6 1.1-1.8 2.1-2.8 4.4-2.8 6.2 0 2 2.3 3 3.7 1.6.3-.3 1.1-.8 1.6-1.1 2.4-1.3 5-5.2 5-7.5.1-1.8-2.4-3.3-4.4-2.7m-8.3 1.6c.1.1 0 .3-.1.3-.1.1-.2.6-.2 1.1 0 2.8-2.8 5.6-4.3 4.4-1-.8.8-4.5 2.7-5.7.8-.3 1.7-.4 1.9-.1m145.8.5c-1.4.5-2.3 1.4-4.1 3.8-3 4.3-3.6 7.3-.6 3.3 1.3-1.7 1.6-1.8.4 0-1.9 2.8-3.4 9.7-2.6 12.2 1.2 3.7 4.9 4.1 7.2.8a25.83 25.83 0 0 1 2.5-3.2s-.5.3-1.1.6c-2 1.2-3.9.4-4.2-1.7-.4-2.4 2.3-8.3 4.1-9.1 3-1.3 5.3 1.9 3.9 5.3-.2.4-.3.8-.2.8 0 0 .3-.4.5-1s.6-1.3.7-1.6c1.2-2.6 1.4-5.2.7-6.9-.2-.5-.5-1-.5-1-.9-1.9-4.2-3.1-6.7-2.3m-124.6 1c-1.1.5-1.8 1.1-1.4 1.1.1 0 .7-.2 1.2-.5 1.3-.7 1.3-.2 0 1-.8.7-1.3 1.1-3.3 2-.1 0-.1 0 0-.1s0-.2-.1-.2-.3.3-.4.6c-.3.9-.9.6-.7-.3.2-.8 2.7-3.1 3.9-3.6 1.5-.7 2.1-.6.8 0m-11.1 1.5c-.6 1.3-3.1 3.7-3.7 3.5-.4-.1-.5 0-.6.5-.1.6-.5.8-.7.3-.5-1.3 1.6-4.2 4-5.5l1.1-.6.2.5c0 .3-.1.7-.3 1.3m-1.1-.9c-.8.6-1.1 1-.5.9.4-.1 1.4-1 1.4-1.3 0-.2-.1-.2-.9.4m94.7 2.1c-.1.4-.2 1-.2 1.2-.1.3 0 .4.1.3.2-.2.5-2.2.3-2.2 0 0-.1.3-.2.7m-96.5.3c-.3.3-.5.7-.4.7.1.1 1.3-.9 1.3-1.2 0-.3-.4-.1-.9.5m77.6 3.9c-.2.4-.3 2.9-.1 3 .1.1.2-.1.2-.4.1-2.9.1-2.9-.1-2.6m100.2 3.5c-.4.6-1 1.6-1.3 2.3-.9 2-1.3 2.1-1.1.2.1-1.3.2-1.6.5-1.9.2-.2.9-.7 1.4-1.2 1.3-1.1 1.4-.9.5.6m-180.9-1c-.9.2-1.4.5-2 1.3-.3.4-.8 1-1.1 1.4-1.3 1.5-.5 2.3.8.9l.9-.9-.5.8c-3.4 5.6-2.1 10 2.3 8 1.9-.8 1.9-.9 3.3-2.2 3.1-3.2 3.3-7.2.3-8.5-1.7-.9-2.9-1.1-4-.8m-11.3 1.7c1 .7.8 3.9-.3 6.1-1.1 2.2-3 1.2-2.7-1.5.3-2.8 1.9-5.3 3-4.6m15.1 1.7c.8.8-2.3 5.6-3.7 5.6-.2 0-.4.1-.4.2s-.2.1-.4-.1c-.9-.9 1.3-5 3.2-5.6 1.1-.4 1-.4 1.3-.1m91.6 5.5c-.1.2-.2.4-.1.4.2.2.6-.3.5-.5-.1-.1-.2-.1-.4.1m76.5.6c-.1.2-.2.8-.2 1.3-.1.5-.2.9-.3.9-.1.1-.2.2-.2.4 0 .4-.9 1.8-1.2 1.8-.7 0 0-3.1.8-4 1-1 1.3-1.1 1.1-.4M92 275.9c-1.6 1.4-2.2 5.1-1.2 7.2.2.5.4 1 .4 1.1 0 .1.3.5.7.9 1.8 1.8 4.9.1 5.4-3 .8-4.6-2.6-8.6-5.3-6.2m2 3.1c.6 2.6.7 3.3.4 3.6-.6.6-1.3-.3-1.4-1.9 0-1.5.8-2.9 1-1.7m183.4 2.3c0 2.4-.2 2.8-.8 1.6-.6-1.2-.6-2.1-.1-3.2.7-1.3.9-1 .9 1.6m-169.5-1.6c-.2.3-1 1.6-1.8 2.8-2 3-2.8 5.5-2.4 6.9.1.3.2 1.7.4 3.3.2 3 .9 7.8 1.2 9 .1.4.4 1.8.7 3.2.5 2.7 1.4 6.3 2.2 8.3.3.7.8 2.1 1.2 3.2 1.7 4.7 6.5 12.9 9.3 15.8 4.3 4.5 8 8.2 8.1 8.1.1-.1-.3-.6-.8-1.3-2.1-2.4-5.3-7.1-6.3-9-.3-.7-.7-1.4-.9-1.6-.3-.3-.7-1.2-1.4-3-.3-.8-1-2.3-1.6-3.5-1.3-2.6-2.1-5-2.7-8.2-.2-1.3-.5-2.7-.7-3-.4-1.1-.7-3.5-1-7-.4-4.9-.9-9.4-1.4-11.1-.2-.6-.4-2.5-.5-4.3-.2-2.7-.4-5.4-.7-6.9 0-.2-.1-.8-.1-1.3-.1-1.2-.3-1.2-.8-.4m122.7 2.6c-.1.1-.6.1-1.2.1-1.4 0-1.9.2-3 1.5-2.7 3-6.1 8.7-6.4 10.9-.2 1.5.2 1.2 1-.7 1.1-2.5 2.5-4.5 4.7-6.4 2.1-1.8 2.5-2 1.2-.7-1.3 1.4-1.9 2.2-1.9 2.3 0 .1-.2.4-.5.7-2.1 2.8-4 9-3.4 11.2 1 3.5 5.4 4.1 8.6 1.2l.9-.8.2-2.1c.1-1.1.3-2.2.4-2.5.2-.6.1-.6-1 .5-1.9 1.9-4.3 1.8-4.9-.3-.9-3.5 5.4-10.8 7.9-9.2l.6.4.2-.5c.1-.3.4-1 .7-1.5.7-1.4.6-1.5-.5-2.7-1-1.2-3-1.9-3.6-1.4m-145.9 2c.2 3.1 1.3 6 2.8 7.4.4.4.8.8.8.9s.2.2.4.4l.4.2h-.5c-.6 0-.7 0-2-1.6-2.6-3.3-3.7-6.8-2.6-8.4.5-.8.6-.7.7 1.1m3.3 1c.5.7 1.1 1.6 1.2 1.9.1.3.3.9.5 1.2.7 1.6.8 1.9.7 2-.7 1.1-3.4-2.8-3.7-5.4-.3-1.4.1-1.3 1.3.3m38.9 1.9c.3.8.8 1.5 1.1 1.5.2 0-.4-1-1-1.8l-.4-.5.3.8m143.6-.3c-2.3.4-4.2 2.6-3.6 4.3.3.9 1 .8 1.2-.2.2-1.1.5-1.2.5-.2 0 .7.6 2.4 1.6 4.4.9 1.7 3.1 2.7 4.9 2.1 4-1.3 2.7-8.7-1.8-10.3-1-.3-1.4-.3-2.8-.1m14 .3c.4.2.6.3.6.4 0 .1-1.6-.5-1.9-.7-.1-.2.4-.1 1.3.3m-162.9 1.3c.1.5.2 1 .3 1.2.3.6.2-.6-.1-1.4l-.3-.7.1.9m162.3 1.7c.4.2 1.3.8 1.9 1.4l1.1 1-.9-.1c-.5-.1-1.3-.1-1.8-.2-1.1 0-2.5-1.3-2.5-2.3-.1-.3 1.4-.2 2.2.2m-10.1 1.7c.6 1-.4 2.1-1.1 1.2-.3-.4-.6-1.7-.5-2.1.1-.5 1 .1 1.6.9M215 308.6c-3.6.7-7.3 4.2-9.5 8.7-1.2 2.5-.7 3.1.9 1.1.5-.7 1.1-1.4 1.2-1.7.4-.7 1.3-1.8 2.1-2.5.7-.5.6-.5-.2.6-1.6 2.1-5.2 8.6-5.8 10.5-.8 2.3-.3 5 1 6.3 4.7 4.4 11.8-.4 15.2-10.3.4-1.2 1.1-3 1.5-4 1.4-3.6 1.1-5.8-1-8-.4-.5-4.1-1-5.4-.7m.9 7c1.6 1.1 1.5 3.4-.2 6.2-1.7 2.7-4 5-4.8 4.8-.2 0-.4-.1-.5-.1-1.6-.1-1.4-4.2.2-7.1 2.1-3.8 3.7-4.9 5.3-3.8m5.4 11.8c-1.5.6-2.6 1.5-3.9 3.3-.4.5-.7.9-.8.9-.1 0-.6 1.4-.9 2.6-.2.7.5.8.9.1.4-.7 2-2.7 2.5-3 .3-.2.1.2-.6 1.2-.6.8-1.1 1.6-1.1 1.7 0 .1-.4 1.2-1 2.4-2 4.6-.6 7.3 3.7 6.9 2.6-.2 6.8-4.3 8-7.8 1-2.8.2-6.6-1.5-7.6-2.5-1.3-3.2-1.4-5.3-.7m3.4 4.6c1.6.8 1.5 2.9-.4 5-3.4 3.7-6.5 2.9-4.5-1.3 1.6-3.4 3.2-4.6 4.9-3.7m10.6 1.8c-3.3 3.8-4.5 10.3-2.5 12.7 2.3 2.6 5.7 2.1 9.8-1.6 1.7-1.5 1.7-1.6.2-3.1l-1.2-1.2-.7.8c-1 1.1-1.6 1.4-2.6 1.4-1.9 0-2.8-1.4-2.1-3.4.3-.9 1.3-2.5 1.7-2.8.1-.1-.1-.6-.6-1.6-1.3-2.2-1.2-2.1-2-1.2m-34 6c-3 1.1-6.6 4.4-8.6 7.7-.5.9-1 1.6-1.1 1.7-.2.1-.2 1.1 0 1.1.3 0 .8-.2.8-.4 0-.1.1-.3.3-.4.1-.1.7-.8 1.3-1.5 1.4-1.7 4-4 3.1-2.8-.2.2-.3.4-.4.5-.2.2-1.5 1.9-1.5 2.1 0 .1-.3.5-.7 1-1.7 2.3-3.4 6.5-3.4 8.4 0 3.3 4.9 6.3 8.2 5 .8-.3 2.7-1.2 3-1.4.1-.1.6-.4 1.2-.8 7.8-5 10.5-16.3 4.7-19.4-.5-.3-1.3-.7-1.7-.9-1.1-.9-3.1-.7-5.2.1m3.7 6.6c.9.6 1.1 2.3.3 3.4-.2.3-.4.6-.4.7 0 .2-1.6 2.3-2.6 3.4-3.9 4.2-6.7 1.4-3.4-3.3 2.9-4.3 4.4-5.3 6.1-4.2m16 2.3c-3.2.4-4.1 1.1-7.2 4.9-2.3 2.8-3.4 4.8-3.4 5.8 0 1.1 1.6-.5 3.3-3.1.4-.6 2.1-2.3 2.9-2.9.6-.5.6-.4-.3.8-.9 1.1-4.1 5.7-5 7.2-1.2 1.9-1.7 5.7-1 7.3 1.1 2.6 5.2 2.8 8.2.6 6.3-4.7 10-11.3 9.1-16-.3-1.5-.4-1.7-2.1-3.4-1.4-1.6-1.3-1.6-4.5-1.2m28.8.7c-.1.2-.4.7-.6 1-.4.7-1.1 2-3.3 6.6-1.7 3.5-1.8 3.7-3.3 6.2-.7 1.2-1.6 2.8-1.9 3.5-1.2 2.7-1.5 3.3-2.4 4.6-.5.8-1.3 2.2-1.9 3.1-.9 1.7-1.5 2.6-3.1 5-.4.6-1 1.5-1.3 2.1-.4.6-.9 1.4-1.3 1.9-.8 1-1.1 2.2-.5 2.2.3 0 3.7-3.4 4.7-4.7.2-.3 1.4-1.5 2.6-2.7 1.2-1.1 2.7-2.7 3.3-3.5.6-.8 1.2-1.5 1.4-1.6.1-.1.4-.4.5-.7.2-.3.9-1.1 1.7-1.9.7-.8 1.6-1.7 1.8-2.1.3-.4 1.5-2 2.8-3.6 1.3-1.6 2.7-3.5 3-4.1.4-.6 1.4-2.5 2.4-4.1 1.7-2.9 2.7-4.6 2.7-4.8 0-.1-.9-.4-2.1-.8-1.2-.4-2.7-1.1-3.5-1.5-1.4-.4-1.5-.4-1.7-.1m-16.7 3.9c-1.2.4-1.4.6-3.3 2.5-2.4 2.4-1.8 2.7 1.3.6 2.1-1.4 2.8-1.5.9 0-.7.5-1.6 1.4-1.9 1.8-.3.4-1 1.3-1.6 2-2.5 3-4.4 8.9-3.4 11 1.6 3.4 6.1 3.3 10-.1.5-.4 1.2-1 1.5-1.3 2.4-1.9 5.6-8.1 5.6-10.9-.1-3.8-5.2-7-9.1-5.6m-11.5 3.1c1.6 1.6-2.3 8.1-5 8.1-1.6 0-1.8-1.8-.4-3.9 3-4.5 4.2-5.4 5.4-4.2m16.1 2.4c.7.9-.1 3-2.1 5.6-.3.4-1.1 1.4-1.7 2.2-2.4 3.1-3.5 3.7-4.6 2.5-.7-.8-.4-1.9 1.3-4.8 3-4.9 5.7-7.1 7.1-5.5m-59.8.1c-3 1.2-6.2 3.8-6.2 4.9 0 .7.4.6 1.6-.5.6-.5 1.7-1.2 2.3-1.6l1.2-.7-.8.6c-3.2 2.6-6.8 7.5-8.1 11-.5 1.4-.3 1.5.4.1.7-1.5 3.9-5.3 3.9-4.7 0 .1-.5 1.2-1.2 2.3-1.8 3.4-2.8 7-2.1 7.8.4.4 2 .4 3.1 0 .4-.2 1.2-.4 1.7-.6 1.5-.5 3-1.7 5.2-4.1a27 27 0 0 1 2.3-2.2c.6 0-2.7 5.2-4.4 7-1.5 1.6-1.5 1.6-.2.9 2.5-1.3 6.7-5.7 7.6-8 .2-.5.5-1 .7-1.2.5-.5 1.6-2.9 2-4.2.6-2 .1-4.5-1.2-5.7-1.6-1.4-5.6-2.1-7.8-1.1m3 5.7c2 2-5.1 11.4-8.8 11.7-2.4.2-.5-4.8 3.6-9 2.8-3.1 4.1-3.8 5.2-2.7m18.2 2.2c-.6.2-1.2.5-1.5.7-4.7 4.1-5.5 4.9-6.1 6.2-.3.5-.7 1.2-.9 1.5-.2.3-.7 1.2-1.1 2.1-.4.8-.7 1.4-.5 1.2 1.4-2.1 2.8-3.8 3-3.6l-1.1 2.9c-1.3 3.1-1.3 3.4-.2 4.5.9.9 4.6.4 6.9-1.1.4-.3.5-.3.2.1s-1.7 1.6-2.6 2.1c-.7.4-.4.4 1 .1 3.1-.8 6.7-3.7 8.5-7 2.7-5.2-.8-11.4-5.6-9.7m1.4 5.3c.8 1 .6 1.8-1.1 4.4-1.8 2.7-3.8 4.4-5.1 4.4-.8 0-2.2-.6-2.5-1-1.5-2.9 6.6-10.2 8.7-7.8m18.3.4c-1.3.5-2.6 1.4-3.4 2.5-2.7 3.5-3 4-2.2 4 .3 0 1-.5 2-1.4 2.8-2.5 3.5-2.5 1.1-.1-4.9 4.8-5.2 8.7-.8 9.6 2.8.6 9.6-4.3 10.8-7.7 1.3-4.5-3.2-8.6-7.5-6.9m3.9 4.8c.4.9-.1 1.7-2.8 4.4-2.7 2.7-5 2.2-3.6-.8 1.5-3 5.6-5.3 6.4-3.6m-57.1.5c0 .5.1 1 .2 1 .3.2.3-1.3 0-1.7-.1-.2-.2 0-.2.7m6.2 3.7c-.2.1-1 .2-1.7.2-.8 0-1.3.1-1.2.2.1.2 2.8.3 3.2 0 .3-.3.1-.6-.3-.4m29.7 1.4c-2 .9-3.9 2.6-4.9 4.4-.1.3-.5.8-.8 1.3-.8 1.2-1.5 2.6-1.8 3.8-.4 1.3-.3 1.5.2.4.5-1 2.4-3.5 2.7-3.6.1 0 0 .5-.4 1.3-1.7 3.5-1.8 4.4-.2 1.8 2.7-4.2 5.2-5.8 6.8-4.4 1.4 1.3.7 3.6-2.4 7.8-2 2.7-2 2.8-1.9 2.8.2 0 1.8-1.4 3.1-2.7 1.1-1 1.3-1.2 1.1-.8-.4 1-1.8 2.9-2.9 4-1.8 1.8-.1 1 2-.9 5.9-5.4 7.7-12.3 3.8-15-1-.8-2.9-.9-4.4-.2m-7.1 2.3c-.8.2-1.2.7-.6.7.2 0 .8-.2 1.3-.5 1.2-.5.8-.6-.7-.2"/></svg>