<svg xmlns="http://www.w3.org/2000/svg" viewBox="0 0 395 395"><path d="M120.9 54.8C107 67.3 95.1 78.2 94.3 78.7c-.7.6-1.6 1.3-2 1.6s-.8.5-1 .5-.4.2-.5.4c-.2.3-4.4 3.5-9 6.8-1.5 1.1-2.3 1.9-2.1 2.4.1.3-.2 1.1-.5 1.8-.4.7-.9 2.1-1.3 3.2-.3 1-.8 2-1 2.1-.2.1-.4.4-.4.6s-.3.5-.6.7c-.3.2-.8.5-1.1.8-.3.3-2.5 2.1-4.8 4-4.9 4.1-8.3 7-11.9 10.6l-2.6 2.5v3c0 1.6-.1 3.3-.2 3.8-.2 1.1 0 1.3 1.9 1.9l1.6.5.2 1.5c.1.8.3 3.1.5 5.1s.4 4.3.5 5.2l.2 1.6 1.7.1 1.7.1v-1.7c0-.9-.2-3.2-.4-5.1-.2-1.9-.5-5.5-.5-8-.2-6.1 0-5.6-2-6-4.2-.7-4.4-1-.7-1.1 2.7 0 3.5-.1 3.8-.5.2-.2.5-.4.6-.3.2.2 1 8.2 1.4 13.6.3 4.4.4 4.8.8 4.1.3-.4.1-11.9-.2-16.3-.2-2.3-.1-2.9.2-3.3.6-.7.8-.4 1 2.1.1 1.3.3 2.9.4 3.7.1.7.4 2.9.5 4.8.4 4.8.6 6.3.8 6.1.3-.3.2-9.2-.1-13.9-.3-3.9-.3-4.6.1-5 .6-.8.8-.6.9 1.5.5 5.9 1.4 12.4 1.8 12.9.3.5.1-8.8-.3-13.5-.2-2.5-.2-2.5.5-3.2 1-.9 1.1-.6 1.5 4.9.4 4.8.9 9.8.9 9.9.5 2.1.8-11.4.3-14.9l-.3-1.7.9-.7c1.2-1 1.2-1.1 1.4 2.8.1 1.9.3 4.6.4 5.8.1 1.2.3 3 .4 3.8.4 3.6.6 1 .6-6.4s0-8 .5-8.4c.9-.8 1-.5 1.2 2.2.2 3.5.8 10.3.9 10.4.4.4.5-1 .5-7.4 0-6.5.1-7.1.5-7.5.8-.6.8-.5 1 3.4.2 4.2.7 8.7 1 8.7s.3-.6.2-3.3c-.1-3.9.3-9.8.6-9.5.2.2.4 1.5.5 3.7.1 1.9.3 4.5.6 5.8s.4 2.4.4 2.5c0 0 .1 0 .3-.1.2-.1.3-2 .3-4.9v-4.7l1 1c1.3 1.3 1.3 1.3 1.2-1.3-.1-3.8.7-2.6 1.4 2 .6 4.2 1.6 4.2 1.2-.1-.6-6 .2-5 1 1.3.4 3.4.7 4.2 1.1 3.7.2-.3 0-6.8-.4-8.1-.2-.9.3-1.7.6-1.1.3.5 1.2 4.6 1.5 6.5.3 2 .4 2.5.8 2.5.5 0 .5-1 0-4.4-.7-4.5-.7-4.9-.5-4.9.6 0 1.4 2.4 2 6.1.4 2.7.5 2.9 1 2.9.3 0 .4-.2.2-1.3-.2-1.5-.3-1.9-.7-5.1-.7-5.4.9-2.4 1.8 3.3.2 1.5.5 2.7.7 2.7.3 0 0-3.3-.5-5.9s-.5-3-.1-3.1c.5-.2 1.1 1.5 1.8 5.2.4 1.8.7 3.4.8 3.5.3.3.1-4.9-.4-8.2-.3-2-.4-3.8-.4-4.1.2-.7-.5-.8-3-.4-1.3.2-4.3.6-6.6.9-2.3.3-4.7.7-5.1.8-.5.1-.8.2-.7 0 .2-.4 3.3-1.3 6.8-2 6-1.2 7.9-2 10.1-4.2 1.1-1 3.3-3.1 5-4.6s5.2-4.8 7.9-7.4c2.6-2.6 7.1-6.8 10-9.5 4.7-3.7 32.3-30.2 36-33.9 1.5-1.5-.7.3-16.8 13.8-18.3 15.4-26.6 22.4-32.1 27-3.7 3.1-6.2 5.1-6.4 5-.2-.1-2.1-.6-4.2-1.2L99 80.9l1.9-2.1c2.4-2.5 10.5-11 29.4-30.6 15.4-15.9 16.1-16.5 15.9-16.5-.1.1-11.5 10.3-25.3 23.1m24.8-20c-.7.8-.9 1.6-1.5 6.1-.6 4.8-.4 4.5 1.1-1.4 1.3-5.5 1.3-5.7.4-4.7M206.5 56c-68.2 32-67 31.5-67.3 31.7-.2.1 1.8 1.5 3.3 2.3.1.1 3.3-1.5 7.2-3.4 12.2-6.1 28.3-13.9 28.4-13.8.2.2-8.4 14.7-9 15-.3.2-3.4 1.5-6.9 2.9-7.6 3.2-7.6 3.2-3.8 2.9l3-.2 5 2.6 5 2.6 2-3 2-3 .2 1.8c.1 1 .2 2.9.2 4.2.1 4.1.6 2.2.9-3.2.3-4.7.3-5.1 1-6.2l.7-1.2.2 3.2c.1 1.8.2 5.2.3 7.7.1 2.8.2 4.5.4 4.5.1 0 .3-.2.3-.5.4-4.8.6-8.9.7-12.9l.1-4.9.9-1.3c1.3-2 1.3-1.5 1.1 8-.2 8.3-.2 9.4.3 8.6.2-.4.4-2 1.3-12.1.1-1.6.3-3.8.3-4.9 0-1.7.1-1.9.6-2.2.9-.5.9-.3 1 5.8.1 5.1.3 6.7.7 5.2.2-.8.7-6.7.8-9.5.1-2.6.1-2.7.9-3.1 1.2-.7 1.2-.7 1.1 3.3-.2 5.7.6 6.3 1.2.9.2-1.6.4-3.6.5-4.4l.2-1.4L216 65c13.8-7.2 25.2-13 25.3-13 .1.1-.8 1.1-2 2.2l-2.1 2.1-10.1 5.1c-5.6 2.8-11.6 6-13.5 7.2-3.6 2.3-11.4 6.6-13.2 7.3-3.4 1.4-7.1 4.7-8.2 7.1-.7 1.6-.3 2.3.5.7 1.3-2.6 4.2-4.6 11.5-8.3 3.7-1.9 7.6-3.9 8.7-4.5 1-.6 4.9-2.7 8.7-4.6 18-9.1 19.6-10.1 20.9-12.6.3-.6.8-1.5 1.2-2.1.9-1.4 8.6-17 8.4-17-.1.1-20.6 9.6-45.6 21.4m-40.6-18.5l-1.2 1.2-.6 6.3c-.3 3.4-.7 6.9-.8 7.6l-.1 1.3.7-.7c.6-.6 3.6-16.4 3.2-17 0 0-.5.6-1.2 1.3M141.6 39l-1 1.2v4c0 4 .3 5.4.6 2.6.1-.8.5-2.9.8-4.7 1-4.3.9-4.8-.4-3.1m19.3 3.2l-1.1 1.1-.8 8.1c-.4 4.5-.7 8.1-.7 8.2 0 0 .7-.7 1.5-1.6l1.5-1.7.2-4.2c.1-2.3.3-5.7.4-7.6l.2-3.4c0 .1-.6.4-1.2 1.1m-22.7.3l-1.1 1.2.2 1.9c.4 4.5.5 5.2.6 5.2 0 0 .3-1.8.6-3.8.3-2 .7-4.1.8-4.6.3-1.2.2-1.2-1.1.1m-2.9 3.2c-.9.9-1.1 3.2-.6 6.7l.2 1.3.2-1.6c.1-.9.4-2.9.7-4.4.6-3.2.6-3.2-.5-2m20.3 1.5l-.9.7-.3 7.9c-.3 8.9-.3 9.1 1.2 7.3l.9-1.2v-7.5c0-4.1.1-7.6.2-7.7.3-.5-.3-.2-1.1.5m-23.4 1.6l-1 1.1.1 3.3c.1 3 .2 3.9.6 3.5.1-.1.3-1.2.4-2.6.1-1.3.4-3.3.7-4.3.6-2.3.5-2.3-.8-1m18.1 2.9l-1.1 1-.1 6.3c-.1 3.4-.1 7.5 0 8.9l.2 2.7 1.4-1.7 1.4-1.7-.2-1.5c-.1-.8-.2-4.5-.2-8.2s-.1-6.7-.2-6.7c0-.1-.6.4-1.2.9m-21.6 1l-1.1 1.1v2.6c0 5.2.5 6.5 1 2.5.2-1.4.5-3.6.8-4.9.6-2.8.6-2.8-.7-1.3m-3.7 3.6l-1 1.1.2 3.1.2 3.1c.1.7.5-.4.6-1.6.1-.9.4-2.8.7-4.2.6-3 .6-3-.7-1.5m19.6.9l-1.2 1.2.1 7.4c0 4.1.1 8.2.2 9.2l.2 1.8 1.2-1.4 1.2-1.4-.2-8.9c-.1-4.9-.2-9-.3-9 0-.1-.5.4-1.2 1.1m-23.2 3l-.9.9.3 2.6c.4 3 .7 3.6 1 1.6.1-.8.3-2.4.5-3.6.3-2.7.3-2.7-.9-1.5m18.2 2l-1.1 1.1v5.9c0 3.2.1 7.6.2 9.7l.2 3.8 1.5-1.8 1.5-1.8-.1-2.3c-.2-3.9-.7-12.6-.7-14.2 0-1.8-.1-1.8-1.5-.4m-21.4 1.1c-.7.7-.8 4-.3 6.3l.2.9v-.9c0-.5.2-2 .4-3.4.7-3.2.6-3.9-.3-2.9m138.1-.3c-.2.1-.8.2-1.4.1-.8-.1-1.5.1-4 1.2-2.9 1.3-4.4 1.8-6.7 2.1-1.8.2-1.6 1.2.3 1.5.9.2 1.6 1 1.6 2 0 .7-6.4 6.3-10.1 8.9-5.2 3.5-9.2 5.1-16.2 6.2-2.9.5-6.6 1.1-8.1 1.5-1.6.4-3.9.8-5.2.9-1.3.2-2.6.4-2.8.5-.3.1-.7.2-1.1.2-2.6 0-6.1 2.5-10.9 8-6.2 7-5.7 8.2 2.3 5.8 11.5-3.4 24.7-4.6 37.1-3.4 5.8.6 9.4 1.2 10.1 1.8.7.6 1.5.1 3.2-2 4-4.9 10.5-10.9 18.8-17.3 2.3-1.7 4.9-3.7 5.7-4.4.9-.7 2.7-1.9 4-2.7 1.3-.8 2.4-1.5 2.5-1.5s0-.2-.1-.3c-.6-.9-15.1 8-26.5 16.4-1.2.9-3 2.2-3.9 2.8-3 2.2-3 2.2-4.6-.6-.4-.7-1.5-2.5-2.4-4.1-1.2-2-1.7-3-1.5-3.4.2-.6.8-.7 1.1-.1.3.6 4.2 3.9 4.5 3.9.6 0 .4-.5-1.2-2.8-2.3-3.1-2.3-3.2-1.5-3.9l.6-.6.9 1c1.7 1.8 2.5 1.2 1.4-1-.9-1.7-1-1.4 2.9-5.1 12.1-11.1 13.4-11.5 27.3-8.2 4.6 1.1 5.3 1.2 4.3.4-.4-.3-1.1-.7-1.7-.8-.6-.2-1.6-.5-2.3-.8-.8-.3-1.6-.5-2.1-.4-.5.1-1.6 0-2.4-.2s-3-.5-4.8-.7c-1.8-.2-3.7-.5-4.3-.7-1.2-.5-2.2-.7-2.8-.2m-121.9 3.9l-1.3 1.1v3c0 1.6.1 4.7.3 6.7.1 2.1.3 5.1.4 6.9.2 3.5.3 3.7 1.7 2.1l.9-1.1-.1-3.8c-.1-2.1-.2-6.5-.3-9.8-.3-7.1 0-6.3-1.6-5.1m-19.4-.1c-.6.7-.6.9-.5 2.4.3 2.7.7 2.5 1-.4.3-3 .3-3-.5-2m-3.4 3.6c-.7.7-.2 4 .5 3.5.3-.2.3-3.5 0-3.7-.1 0-.3 0-.5.2m17 2l-1.2 1 .3 5.1c.2 2.8.4 6.1.5 7.3l.2 2.2h2.6l-.1-.9c-.1-.5-.3-3.3-.5-6.2s-.4-6.3-.5-7.4l-.2-2.1-1.1 1m-20.1 1.2c-.6.6-.6 2.9-.1 3.7.6.8.7.1.6-2.3 0-1.9 0-1.9-.5-1.4m15.3 3.1l-.9.9.2 5.7c.1 3.1.3 6 .4 6.4l.2.7 1.2-1.3 1.2-1.3-.2-3.4c-.2-4-.7-8.8-1-8.8-.1.2-.6.6-1.1 1.1m-18.6.5c-.5.5-.6.8-.4 1.4.4 1.6 1.3 1.1 1.1-.8l-.1-1.3-.6.7m64.9 2.4c-.7.3-1.6.9-1.9 1.2-1 1.2-3.6 6.1-3.2 6.1 1.4 0 2.8-1.2 4-3.2.7-1.2 1.6-2.8 2-3.5.4-.7.7-1.3.6-1.2-.2-.1-.8.2-1.5.6m102.2.5l-4.4 3.5c-4.2 3.3-8.7 7.2-8.5 7.3.9.9 15.5-.6 18.4-1.9 3.2-1.4 2.8-4.6-.9-7.8-2.4-2-3.3-2.3-4.6-1.1m-153.6 1.5l-1.4 1.3.2 4c.2 3.6.8 8.8 1 9.1.1.1.6-.4 1.3-1.1l1.1-1.2-.2-6.4c-.2-7.6-.1-7.5-2-5.7m44.3 1.3c-1.1.6-1.5 1.1-3.4 4.4-1.6 2.8-1.6 2.7.2 1.9 1.3-.5 1.5-.8 2.6-2.7 2.5-4.4 2.6-4.7.6-3.6m-63.6 1.8c2.2.6 2.4.6 1.8 1-.6.3-4.8-.6-4.8-1-.1-.9.1-.9 3 0m135.4 1.2c2.8 3.7 4.3 5.7 5.2 6.7 1.2 1.2.8 1.8-1.2 1.8-2.5 0-7.3-7.5-6.2-9.6.5-.9.9-.6 2.2 1.1m-77.9-.5c-1.4.7-5.4 6.9-4.4 6.8 1.4-.1 2.7-1.3 4.3-4.1 2.1-3.7 2.1-3.8.1-2.7m136.2-.3c-1.2.3-1.8.7-1.2 1 .2.1.6.1.8 0 .2-.1 2.8 0 5.7.2 2.9.2 8.1.6 11.5.8 3.4.2 8.7.8 11.6 1.2l5.3.8h-9.9c-9.5 0-12.1.1-12.1.6 0 .4 2.7.7 12.3 1.2 4.1.2 9.3.6 11.6.9s4.4.5 4.6.5c.3 0 .3 0 0 .4-.3.3-1.2.3-4.7.1-6.8-.4-11.7.5-6.5 1.2 1.1.1 3.3.5 5 .7l3.1.4-1.9.5c-2 .5-9 .6-14.5.3-1.5-.1-7-.1-12.2 0-10.4.2-10.6.2-16.2 2.4-12.5 4.8-18.1 6.5-22.5 7.1-.8.1-2.1.3-2.9.5-2.4.6-6.3.7-8.6.3-3.4-.6-4.2.6-1.1 1.5 11.4 3.1 17.8 2.6 27.7-2.3 8.1-4.1 14.6-6.5 17.4-6.5 1.3 0 3.7-.1 5.3-.3s3.9-.3 5.1-.3c3.3 0 38.4 4.1 39.2 4.5 1.2.7 3.4-.2 11.3-4.7 4.7-2.7 5.5-3.1 7.2-4.7.8-.8 1.7-1.5 2-1.6 1.4-.5.1-1.2-3.2-1.8-4.3-.7-31.9-3.4-41.5-4-2.3-.2-5.7-.4-7.5-.5-4.5-.6-19-.7-20.2-.4m-179.8 1.6c-1.2 1.2-1.2.9-.5 5.6.3 2.5 1.2 12.3 1.2 13.8 0 .4.3.7 1.4 1.1l1.4.6-.1-3.4c-.1-1.9-.4-5.5-.7-8.1l-.9-7.7c-.5-3.4-.4-3.4-1.8-1.9m-16.1.1c.8.2 1.5.5 1.5.7-.2.7-1 .8-3.5.2l-2.6-.6.6-.5c.6-.5 1.2-.5 4 .2m53.5 1.4c-1.3.6-2.9 3.3-2.2 3.6 1.2.5 1.6.3 2.4-1.3 1.5-2.8 1.5-3.2-.2-2.3m-57.7 1c2.9.6 2.9.6 2 1.6l-.8.8-1.8-.4c-1-.2-2.3-.5-2.8-.6-1.2-.2-1.2-.4-.3-1.2.9-.7 1.1-.7 3.7-.2m15.8 1.5l-1 1 .3 4.8c.3 5.4.4 6.6.9 8.6.3 1.5.4 1.6 1.1 1 .3-.2.7-.4 1-.4.6 0 .6-1.1 0-7.2-.3-2.6-.6-5.6-.7-6.7-.3-2.6-.3-2.6-1.6-1.1m23.4.5c-1 .1-2.7.4-3.6.7l-1.8.5-1.7 2.4c-3.3 4.7-3.6 5.5-3.6 8.6 0 3.2-.1 3.1 3.1 2.6 1.5-.2 5.8-.5 9.9-.7 6.3-.2 8.4-.4 10.4-1 .3-.1.3-.2-.1-.6-.2-.3-.4-.6-.4-.8 0-.2-.1-.3-.1-.2-.2.2-2.6-2.4-4.4-5-.9-1.3-2.1-2.9-2.6-3.6l-.9-1.2.7.2c.4.1 1.5 1 2.5 2 1.8 1.9 5.4 4.3 7.6 5.2.7.3 1.8.8 2.6 1.2 1.9.9 2.4.4.5-.5-.8-.4-2.5-1.5-3.8-2.5s-2.9-2.1-3.4-2.5c-1.3-.8-1.4-1.7-.2-1.5 1.1.2 4.4 1.9 7.2 3.7 3.5 2.2 4.9 2.8 5.8 2.4.7-.3.7-.3-1.9-1.8-2.6-1.4-3.7-2.2-3.5-2.4.3-.3 3 .6 5.6 1.8l2.9 1.4 1.6-.5c.9-.3 1.7-.6 1.7-.7.2-.4-4.6-2.4-6.8-2.8-3.1-.6-9.4-2.1-12.4-3-2.9-.8-7.2-1.7-8.1-1.7-.6 0-1.8.3-2.8.3m-27.3 3.6l-1.2 1.2.3 4.3c.5 7.1 1.2 9.6 2.3 8.8.7-.4.7-.5.5-3.3-.1-1.6-.2-4.6-.3-6.7-.1-2.2-.2-4.3-.3-4.7l-.2-.8-1.1 1.2m61.3 5.8c-.8.3-3.1 1.1-5.2 1.8s-5.3 2-7.3 2.9c-6.3 2.9-6.3 2.9-17.8 3.4-12.1.5-11.5.4-13.6 2.6-.9 1-3.1 2.9-5 4.4-1.8 1.4-5 4.1-7.1 5.9s-6.3 5.3-9.3 7.9c-3.1 2.5-7.5 6.5-9.7 8.7-5.8 5.7-5.7 5.6-10.4 6-3.6.3-3.9.4-4.9 1.2-1.6 1.2-1.3 1.4 2 1.3s3.4 0 1.3 1.5l-1.6 1.2-3.2.1c-3.1.1-3.2.2-4.2 1-1.2 1-.9 1.2 2.3 1.2h2.3l-.7.7c-.7.7-1 .7-4 1-5.2.5-6.8 2-2.1 2h2.3l-1.3.9c-1.3.9-1.4.9-3.9.9h-2.6l-.9.9-.9.9 2.2.1 2.2.1-.9.7c-.8.6-1.4.8-3.6 1-4 .4-6.1 2.4-2.3 2.2l1.8-.1-1.2 1.1c-1.1 1.1-1.4 1.2-3.9 1.6-2.3.4-2.8.6-3.7 1.4-1.3 1.2-1.3 1.2.9 1.1l1.9-.1-1.4 1.3-1.4 1.3h-2c-1.6 0-2.1.1-2.7.6-1.2.9-1 1 1.1 1 2.5 0 1.8.7-1.2 1.1a16 16 0 0 0-2.5.4c-.8.1-3 1.9-5.6 4.4-4.9 4.8-8.4 7.2-10.2 7.2-1.2 0-1.1.4.4 1.3 2.3 1.3 4.1 1 13.7-2.5 5-1.8 6.3-2.5 8.9-4.7 1.3-1.1 3.1-2.5 3.9-3 .8-.5 2.5-1.7 3.6-2.6 1.1-.9 4-3.1 6.4-4.9 7.1-5.4 11.3-8.9 11.4-9.2.1-.5 5.1-4.5 7.9-6.4 1.2-.8 3.6-2.5 5.5-3.9a98 98 0 0 1 3.7-2.6c1.1-.5 12.3-8.1 13.2-9 2.3-2.2 5.6-4.1 7.3-4.1.7 0 2-.2 3-.4 6.8-1.5 6.7-1.5 13.9-1.4 15.8.2 18.1.1 19.5-.8.6-.4.8-.4 1.3-.1.8.5.7.3-.5-1.7-1.8-3.1-8-15.9-8-16.4 0-.1.4-.1.8-.1.7 0 .9.3 2.7 3.3 4.8 8.2 4.9 8.4 6.6 9.2.8.4 2.6 1.2 3.8 1.8 1.3.6 2.4 1 2.5.9.1-.1.1-.3-.1-.3-.9-.3-6.3-4-7.5-5-2.3-2.1-1.1-1.8 5.6 1.3 2.5 1.2 2.6 1.1.4-.3-6.4-3.9-10.3-6.8-10.3-7.8 0-.5.5-.4 2.1.5.8.5 2.8 1.5 4.3 2.3s3.2 1.7 3.7 2c3.8 2.4 6.4 3.5 6.9 3 .6-.6.4-.7-8-6-8.6-5.3-5.9-4.8 6.9 1.5l4.1 2 .8-.7.8-.7-1-.6c-.5-.3-1.7-.8-2.5-1.2-2.3-1-11-5.9-11.6-6.4-1.4-1.4.3-.9 6.3 1.5 11.9 4.9 11.7 4.9 11.7 4.1 0-.1-.6-.5-1.4-.8-5.3-2.2-12.3-6.1-12.1-6.7.2-.7 1.7-.2 12 3.9 3.9 1.5 4 1.6 4.5 1.1s.5-.5-.8-1.1c-2.8-1.3-5.7-2.5-7.7-3.3-3.7-1.4-5.2-2.9-3-2.9 1.6 0 8.6 1.9 11.4 3.1 2.6 1.1 3.5 1.3 3.5.8 0-.2-3.6-1.8-8.8-3.9-5.8-2.4-2.1-3 4.5-.7l1.5.5-1.1-.9c-.6-.5-2.3-1.8-3.7-2.8-1.5-1-2.9-2.1-3.1-2.4l-.5-.5c.2-.6-.5-.5-1.3-.1m133.1 2.5c-6.9 2.3-14 7.7-19.1 14.4-.6.8-2.1 2.7-3.3 4.3-1.3 1.6-2.7 3.5-3.2 4.2l-.9 1.3-1.4-.2c-4.3-.5-21.4-.9-20.3-.4.3.1 1.5.2 2.7.2s2.8.1 3.5.3c.7.1 2.6.4 4.2.5 1.6.2 3.1.4 3.5.5.4.1 1.8.4 3.3.7 3.1.5 3.3.7 2.3 1.7-.9.9-1 1-5 .3-2.5-.4-12.5-1-12.5-.7 0 .2 3.4 1 5.4 1.2 1.3.1 3.2.5 4.2.8 3.3.9 7.5 1.9 7.7 1.7.1-.1.6-.7 1.1-1.4.9-1.3 2.6-3.4 7.1-8.5 1.4-1.7 3-3.5 3.4-4 4.4-5.8 11.3-11.4 16.5-13.5 2.4-1 9.2-1.9 10.1-1.3.1.1 4.1.2 9 .3 8.7.1 10.6.3 17.4 1.1 5.2.6 11.5.3 11.5-.7v-.4c0-.1-1.3-.2-2.9-.2s-3.8-.2-5-.3c-5.4-.8-10.2-1.3-15.6-1.6-19-1.2-20.9-1.2-23.7-.3m-88.6 2.7c-.1.1-3.6.2-7.9.2-7.4.1-7.8.1-10.2.8-1.4.4-3 .8-3.6 1-1.1.3-4.4 3.3-15.1 14.4-4.1 4.2-4.2 4.3-3.8 4.9.5.7 2.8 1.5 4.5 1.5 1.6 0 5 1.2 5.8 2 .9.9 1.1 2.2 1.1 8 .1 11.9 1.5 15 9.2 21.2 1.6 1.3 3.4 3 3.9 3.7 1 1.5 2.9 2.5 5 2.8 1.4.2 1.4.2 4.6-2.3 1.1-.8 2.1-1.5 2.2-1.5s1.2-.9 2.5-2.1c3.2-2.9 8.6-7.4 10.7-9.1 3.8-3 10.2-5.7 14.4-6.2 7.2-.8 8.8-.9 10.5-.5 2.7.5 3.1.3 3.1-1.6 0-4.5-1.4-13.2-2.8-17.4-.6-1.9-1.4-4.4-1.7-5.5s-.5-1.6-.4-1.1.2 2.2.4 3.8c.2 1.6.5 3.8.7 4.9.4 2.2.5 6.5.2 8.9-.3 2.1-1.1 2.7-4.4 3.5-12.2 2.8-17.9 6-29.8 16.4a23.5 23.5 0 0 1-6 4.2c-3.5 1.9-4.1 1.9-5.7.4l-1.2-1.1 1.7-1.5c.9-.8 5.2-4.9 9.4-9.1 10.8-10.8 19.5-17 26-18.4 4.2-1 5.2-3 4-8.8-.6-3.2-1.2-7.5-1.2-9.2 0-1.6-.9-5.5-1.4-6.1-.8-.8-24-1.8-24.7-1.1m96.7 3.5c-4.1.5-6.6 1.5-10 4-2.9 2.1-3 2.3-1.7 2.6 1 .2 3.5.7 7.3 1.6 3.4.8 13-.2 13.5-1.4.4-1.1-2.4-6-3.6-6.5-1.1-.4-3.4-.4-5.5-.3m-169.3 1.5c.9.2.8.4-2.5 2.4-1.7 1-3.8 2.5-4.7 3.2s-3 2.2-4.7 3.2c-4.8 2.9-12.6 8.1-16 10.7-1.7 1.3-4.7 3.6-6.8 5.1-5.9 4.3-9.5 7.2-14.1 11.1-2.3 2-5.3 4.5-6.7 5.5-1.4 1-3.9 3.1-5.5 4.5s-3.7 3.2-4.5 3.9-3.4 2.6-5.6 4.2c-2.3 1.6-5.4 3.9-6.9 5.1-1.5 1.2-3.5 2.7-4.4 3.4s-2.4 1.8-3.3 2.4c-5.1 3.8 1-2.3 7.9-7.9 5-4.1 16.9-14.5 19.1-16.7 2.1-2.1 6.1-5.4 7.5-6.2.7-.4 2.1-1.5 3.2-2.4 3.2-2.7 7-5.7 11.9-9.4 2.5-1.9 5.4-4.2 6.5-5 1.1-.9 3-2.4 4.3-3.4s3.7-2.8 5.3-4.1c10.8-8.6 11.2-8.9 12.5-9.4.8-.3 6.4-.4 7.5-.2m-30.3.9l-1.2.7 1.5.2c3 .4 2.5 1.1-.9 1.2-2 .1-2.6.2-3.2.7l-.8.6 1.3.2c2.1.3 2.5.5 2.5.9s-.4.4-2.9.3-3 0-3.4.4-.4.4.3.4c1.1 0 3.4.6 3.5 1 .2.5-.4.5-3.2.4-2.2-.1-2.7-.1-3.1.3-.8.7-.7.8.8.8s3.3.6 3.1 1.1c-.1.2-1.2.3-3 .2-1.6 0-3 0-3.3.1-.8.3-.5.7.6.7 1.3 0 2.8.5 2.6.9-.1.2-1 .3-2.8.3-2.2 0-2.8.1-3.4.5-1 .6-.5.9 1.7.9.8 0 1.5.1 1.5.3.3.5-.9.8-3.3.8-2.9 0-3.3.3-.9.9 3.1.8 2.6 1.3-.8 1-2.3-.3-2.4-.3-3.3.4-1.3 1-1.2 1.1 1 1.3 1.8.2 2.6.5 2.3.9-.1.1-1.6.2-3.4.3-4 .2-4.5.6-1.1 1.1 2.8.4 3 .4 3 .8 0 .5-1.3.6-4.2.3-3.9-.4-4.8.2-1.4.9 2.9.6 2.9.6 2.7 1-.1.2-1.1.2-3.4.1l-3.2-.2-.7.8-.7.8 3 .2c5.3.3 3.6 1.2-2.5 1.2-1.9 0-2.4.1-2.8.6-.5.5-.5.5 2 .6 5.2.1 5.5.8.6 1.2-1.9.2-3.7.3-4 .2-.8-.2-7.2 5.4-21.2 18.9-2.9 2.8-5.6 5.3-6 5.5s-2.9 2.8-5.5 5.6c-4.1 4.4-5.3 5.4-8.1 7.4-7.1 5-7 4.9-8.4 5.1-1.4.1-1.6.3-.5.8 1.9.9 5.5-.3 8.4-2.8 2.8-2.4 9.3-8.2 12.3-11.1 1.9-1.8 4.4-4.2 5.5-5.2s3.4-3.2 5.2-4.9c4.8-4.6 6.1-5.8 9.1-8 1.5-1.1 3.8-3 5.1-4.2 4.2-3.9 7.1-5.3 10.9-5.3 1 0 2.5-1.2 7.9-6.3 1.1-1 3.4-3.1 5.1-4.6s5.6-5.2 8.8-8.2c3.2-3 7.3-6.8 9.1-8.4l3.4-2.8-1.1-.2c-3.1-.5-5.8-.4-7.1.4m121.1 1.2c-.4 1.8-.3 1.7-1.8.4l-1.1-1 1.1-.3c.6-.2 1.3-.4 1.5-.5.6-.3.6-.3.3 1.4m-5.4 2c1.4 1.3 2.6 2.4 2.9 2.5.3.2.3.4-.3 1.6l-.7 1.4-4.8-4c-2.6-2.2-4.8-4-4.8-4.1s1.2 0 2.6.1l2.6.2 2.5 2.3m-128.3-1.8c-2.1.2-2.4.3-3.4 1.1-.6.5-2.8 2.4-4.9 4.2-4.9 4.2-8.3 7.2-13.8 12.8-2.4 2.5-5.6 5.6-7.1 7.1l-2.7 2.6-2.5-.2-2.5-.2-2.8 2.8-2.8 2.8-1.5-.2c-2.4-.3-2.8-.2-3.3.6-.3.4-2.1 2.4-4 4.3-4.7 4.8-9 9.7-13.4 15.3-2 2.5-3.8 4.7-3.9 4.9-.8.6-1.5 7.1-.9 7.8.1.1 1.4-.4 3.1-1.1 3.5-1.4 4-1.8 10.7-8.3 5.4-5.3 18.5-17.7 26.6-25.4 2.8-2.7 5.3-5.1 5.5-5.4s1.2-1.2 2.1-1.9c2.2-1.8 9.9-8.3 12.5-10.6 1.1-1 3.1-2.7 4.4-3.7 1.3-1.1 3.2-2.7 4.1-3.5.9-.9 3-2.5 4.5-3.6s2.7-2.1 2.7-2.2c0-.3-3.3-.3-6.7 0m118.7 2.5c1.7 1.4 4.3 3.5 5.8 4.8s3 2.5 3.3 2.7l.6.4-.7 1c-1 1.3-.5 1.5-7.5-3.8-3.4-2.6-6.7-5.1-7.4-5.5l-1.1-.8 1.9-.6c1-.3 1.9-.6 2-.6 0-.1 1.5 1 3.1 2.4m-4.4 4.6c3.4 2.6 6.9 5.4 7.9 6.1l1.8 1.3-.8.7c-.5.4-1.3.8-2 .9l-1.2.2-6-4.5c-8.1-6-10.7-8.1-10.5-8.4.3-.3 3.6-1.3 4.1-1.2.4 0 3.4 2.3 6.7 4.9m-9.7 1.6c2 1.6 5.2 4 7.1 5.5 1.9 1.4 3.5 2.7 3.4 2.8s-.6.4-1.3.8l-1.2.6-3.9-2.6c-4.3-2.9-8.5-5.6-11.3-7.1-2.2-1.2-2.2-1.1.1-2.5 2.5-1.4 1.8-1.6 7.1 2.5m-8.8 2.4c4.1 2.6 13.6 9 13.6 9 0 .1-3.4 1.8-3.7 1.8-.1 0-2.7-1.8-5.7-3.9-5.4-3.8-9.1-6.2-9.8-6.2-.6 0-.3-.4 1.1-1.4 1.7-1.3 1.4-1.3 4.5.7m-6.8 3c1.8.9 13.3 9.1 13.5 9.7 0 .1-.6.5-1.4 1l-1.5.8-2.7-1.8c-1.5-1-3.7-2.5-4.8-3.4s-2.6-1.8-3.2-2.1c-.6-.3-1.3-.8-1.6-1.3-.3-.4-.7-1-.8-1.2-.3-.4-.2-.6.4-1.3.9-1 .9-1 2.1-.4m-130.7.4c-2.7 3-5.5 15.1-3.9 16.8.5.5.5.3.9-2.3.4-3.2 1.3-3.7 1.7-.8.5 3.3 1.4 2.5 1-.8-.5-3.8-.4-6 0-6.9l.4-.8.2.7c.1.4.4 2 .7 3.7.3 1.7.7 3.2.8 3.3.3.3.3-4.4 0-7.8-.2-2.5.2-3.8.8-2.4.2.4.3 1.1.3 1.6s.2 1.6.4 2.6.4 2.4.4 3.3c0 1.1.1 1.5.3 1.4.8-.3.1-11.6-.8-11.9-1.2-.5-2.6-.5-3.2.3m230.9 1.8c-1.3 1.4-1.2 1.5 1.9 2.2.4.1 1.7.5 2.8.8 7.7 2.4 9.7 2.7 13.7 2.1 12.2-1.7 16.6-1.8 22.2-.8 2 .4 5.2.9 7.2 1.2 1.9.3 6.5 1.3 10.2 2.3s6.9 1.7 7.1 1.7 2.1.4 4.2.9c4.9 1.2 4.9 1.1 0-.7-10.9-3.9-12-4.2-29.9-8.5-4.8-1.2-9.5-1-23.2.9-1.4.2-2.6 0-7.6-1.3-3.5-.9-6.8-1.7-7.5-1.7-.1.1-.6.4-1.1.9m-138.3 4.7c-.6.1-1.7.4-2.5.6s-1.9.6-2.4.7c-.8.2-6.1.2-19.7.1-1.7 0-2.6.1-2.8.3-.5.5.2.8 1.7.9 1.1 0 5.1.6 8.7 1.3 2 .4 9.6 1.3 10.8 1.3 2.3 0 8.5-3.8 8.5-5.3-.1-.1-.7-.1-2.3.1m7.1.1c-1.1.8-3.1 3.8-4.7 7-2 4.1-2.1 5.1-.8 8.6.5 1.2 1.8 4.8 2.8 7.9 2.4 6.8 3.3 8.7 3.7 7.8 1.8-3.3 1.4-6.8-1.8-13.5-.7-1.4-1.5-3.4-1.8-4.5s-.8-2.2-1-2.4c-.6-.7-.2-1.7 3.1-7.7 2.1-3.5 2.2-4.3.5-3.2m31.1 1.4c.2.2 1.8 1.4 3.6 2.7 3.8 2.7 3.6 2.3 2.3 3.2l-1 .7-1.4-1.1c-1.5-1.2-3.2-2.1-3.8-2.1-.3 0-.4-.4-.4-1.9-.1-1.9.1-2.2.7-1.5m-27.5.6c-.8.5-2.9 4-3.1 5-.3 2.3 1.1 7.3 3.7 13.4 1.8 4.1 1.8 4.3.9 6.8-1.7 5-.7 10.3 2.7 14.3 2.2 2.5 7.3 4.3 10.8 3.7 2.2-.4 2.3-.9.2-.6-4.8.5-9.5-1.8-11.4-5.7l-1-2v-3.8c0-4.5.3-5.3 3.1-8.9 2.6-3.3 2.7-4.2.1-10.9-.7-1.9-1.9-5.1-2.5-7.2-1.4-4.5-1.8-4.9-3.5-4.1m-44.1 1.4c-1.1.7-1.1.8-1.1 2.1v1.4l1.1-.2c3.3-.5 3.5-.7 2.5-3.2-.5-1.1-1-1.1-2.5-.1m159.8 0c-.3.4.5 1.4 1.9 2.6 2 1.7 7.4 6 10.8 8.6 3.3 2.5 3.4 2.6 2.8 3.1-.4.3-1.8-.6-7.1-4.9-1.1-.9-3.3-2.4-4.9-3.5s-3.8-2.5-4.8-3.4c-1.9-1.6-3-2.3-3.2-2.1-.2.2 4.8 4.9 7 6.5 1.2.9 3.1 2.5 4.3 3.5 2.5 2.3 7.8 6.3 8.9 6.9.9.4.3.7 6.7-2.7 3-1.6 12.8-5.4 17.3-6.7 2.7-.8 12.1-2.3 17.4-2.8 3.3-.3 8 0 11.1.8 1.1.3 2.7.6 3.5.7.8.1 3.1.6 5 1.1 3.9 1 5 1 1.7 0-1.2-.4-2.7-.9-3.5-1.2s-3.2-1.1-5.4-1.7c-3.4-1-4.1-1.3-5.3-2.3-3.2-2.7-5.5-3.3-3-.8l1.6 1.6-1.3-.2c-.9-.1-1.6-.4-2.1-.9-3-2.7-5-3.4-2.4-.8l1.2 1.2-1 .1c-.8.1-1.3-.1-2.4-.8-3.4-2.2-4.7-2.5-2.6-.4 1.7 1.6 1.7 1.6.2 1.6-1 0-1.6-.2-3-1.2-2.9-1.9-3.5-1.9-1.6.2l1.1 1.1-.9.1c-.6.1-1.7-.3-3.6-1.3-3.9-1.9-4.9-1.7-1.7.3 2.1 1.3 2.1 1.5.2 1.7-1.4.2-1.7.1-3.5-.8-3.6-1.7-4.8-1.5-1.8.4 2 1.3 2.1 1.5.7 1.7-1.1.2-1.3.1-5.1-1.6-3.8-1.8-4-1.3-.5 1.1l2.1 1.5-.7.4c-.7.4-.8.3-2.1-.6-.8-.5-2.1-1.3-3-1.8-2.6-1.3-3.7-1-1.6.4 3.1 2.1 3.8 2.8 3.3 3.2-.8.6-1.2.4-4.2-1.4-1.6-1-2.9-1.7-3-1.7-.5 0 .2 1.1 1.9 2.6 3.2 3 1.9 3-3-.1-4.3-2.7-5.2-2.9-2.6-.6 4.1 3.6 4 3.6 3.4 3.7-.4.1-1.5-.5-3.8-2.1-1.8-1.3-3.9-2.7-4.6-3.2-4.2-2.9-.2 1.7 4.7 5.4 1.2.9 1.2 1 .1 1.4s-.6.7-7.1-4.3c-3.5-2.7-8.6-6.2-11.1-7.8-1 0-1.3 0-1.4.2m-154.1 2.8c-.6 5.5-2.8 9.5-6 11.2-4.9 2.5-10.5 2.2-14.8-.8-2.9-2-3.1.2-.2 2.6 4.8 4 12.7 3.6 17.8-.8 3.1-2.7 5.2-10 3.9-13.1l-.4-.9-.3 1.8m138.7 0c-.1.1.6.9 1.6 1.8 2.8 2.7 2 3.1-1.5.8-2.4-1.6-2.8-1.7-3-1-.1.4.3.9 1.7 2.2 3.3 3 1.5 3.5-2.3.6-.7-.6-.9-.6-1.1-.3-.4.6-.3.9.7 1.8 1.5 1.5 1.2 2.1-.6 1l-.9-.6-.8.8c-.4.5-.9.8-1.1.8-.2 0 .1.4.6.8 2 1.7.7 1.8-2.2.2-2.8-1.5-3.1-1.4-1.3.5 2.4 2.5.9 2.4-2.7-.2-2.8-1.9-3-1.5-.5 1 3.2 3.1 1.8 3.1-3.5-.2-3.2-1.9-3.6-1.4-.8 1 4.4 3.8 2.8 3.8-2.8 0-3.8-2.6-4.3-1.9-.8 1.2 5.6 4.9 4.9 5.3-1.7 1-2.6-1.7-3.4-2.1-3.9-2-1 .3-.8.6 1 1.6 2.4 1.5 5.5 4.1 5.6 4.7 0 .6-1.7-.1-5.2-2.2-4.7-2.8-4.1-2.6-5.3-1.4l-1 1 1.8 1.1c3.4 1.9 5.5 3.1 8.6 4.6 3.4 1.7 2.6 1.6 8.8.6l2.7-.5 3.8-3.6c5.3-5 9-7.9 14-10.9 1.1-.6 1.9-1.2 1.9-1.2 0-.8-3.5-4.5-4.6-4.9-1.8-.7-2-.6-.8.4 3.1 2.9 1.7 3.5-1.8.7-2.6-1.5-2.4-1.5-2.6-1.2m-72 3c.7.6 1.1 1.1 1.1 1.1-2.9 2.2-2.7 2.3-2.7-.2 0-2.2.1-2.2 1.6-.9m-74.4-.3c-.7.7 1 2.8 2.9 3.6.7.3 1.5-.9 1.9-3l.1-.7h-2.4c-1.3-.1-2.5.1-2.5.1m-2.5 3c-.6.7-.6 1 .4 3 1 2.1 1.1 2.1 2.7 1 1.5-1 1.7-1.4.9-1.7-.3-.2-1.2-.8-2-1.5-1.5-1.5-1.4-1.5-2-.8m-8.8 1.3c-.7.8-1.2 1.6-1.1 1.7.2.2 2.8 1.2 2.9 1 .2-.2 1-1.8 1.2-2.5.2-.6.2-.7-.6-1.2-1.1-.8-1-.8-2.4 1m5.6-.3c-.7.1-.9.2-1.1 1.4-.5 2.1-.4 2.3.7 2.5 2.3.4 2.1.5 2.1-1.9.1-2.3.2-2.2-1.7-2m220.9.8c-1.4.3-1.4.2.4 3.2 3.4 5.7 7.3 9.7 11.3 11.8 3.2 1.6 3.7 1.6 5.2 0 2.6-2.9 3.8-7.8 3-11.8-.5-2.3-13.3-4.5-19.9-3.2m-200.5 3.7c-5.6 1-7.5 1.6-9.3 2.9-.7.5-1.9 1.2-2.8 1.7-.9.4-2.2 1.3-2.9 1.9l-1.3 1.1-2.3-.3c-4.2-.6-12.9-2.6-13.2-3.1-.2-.4-1.5-.2-2.3.5-.2.2-.9.5-1.5.8-2.4 1.1-2 1.4 5.5 3.9l5.7 2-1.3.7c-.7.4-2.5 1.4-3.8 2.2-1.4.8-3.9 2-5.5 2.7-2.6 1.1-15 7.1-21.2 10.2-4 2-4.9 2.3-7.1 2l-2-.2-1.9 1.4c-3.4 2.5-6.1 4.8-6 5.2.4 2.2 6.2 1.9 12.7-.6 2-.8 4.8-1.8 6.3-2.3s3.4-1.2 4.4-1.5c1-.4 2.8-1.1 4.1-1.5 1.3-.5 3.4-1.2 4.5-1.7 1.2-.4 2.7-.9 3.3-1 1.5-.2 2.7-.7 2.7-1 0-.7-5.1.7-16 4.2-8.4 2.7-13.9 4.4-16 4.8-2.2.5-3.2.5-2.2.1.4-.1.8-.4 1.1-.6.2-.2.7-.4 1.1-.6.4-.1 2.2-.8 4-1.6s3.6-1.5 4-1.6c.4-.1 2.3-.9 4.3-1.9 5.8-2.7 6.1-2.8 9.1-3.9 1.5-.6 4.1-1.5 5.6-2.1 5-1.9 4.5-2 9.8 2.2 1.5 1.2 3.4 2.6 4.2 3.2.8.6 2.3 1.8 3.4 2.8 6.6 5.8 11.6 8.8 13.2 8.1l1-.4-.8-.6c-.4-.4-.9-.6-1-.6s-1.1-1.1-2.2-2.3c-7.6-8.8-6.9-19.9 1.8-28.2 4.8-4.6 13.5-6.4 19.7-4 2.8 1.1 3.2 1.1 2.6.5-.5-.6-4.3-2.4-5.6-2.6-.6-.1-1.2-.4-1.4-.6-.4-.1-3.3-.5-4.5-.3m138.6 1.3c-4.4 2.2-8.7 5.2-11.7 8-1 .9-2.5 2.2-3.3 3l-1.6 1.3-3.6.5c-2 .3-4.3.6-5.1.8l-1.5.4-4.1-2.4c-2.3-1.3-5.2-3.1-6.5-3.8-5.1-3-6.1-3.4-6.1-2.6 0 .4 6.1 4.6 11.2 7.8 6.3 3.9 6.3 3.9 9.6 2.9 1.1-.3 2.7-.5 3.6-.5 3.3 0 4-.4 8.4-4.6 4.7-4.5 8.7-8.2 10.8-9.7 1.3-1 2.7-2.2 2.4-2.2-.1 0-1.2.4-2.5 1.1m-178.1 3.5c-6.7 4.5-18.2 13.1-23.3 17.3-1.5 1.2-3.8 3-5.1 3.9-1.3 1-4.1 3.1-6.1 4.7-4.1 3.3-4 3.3-7.9 4.2-1.5.4-3.5.9-4.3 1.2-1.8.6-7.2 1.6-8.7 1.6-1.6 0-1.3.4.3.6.9.1 3-.1 6.1-.6 10.6-1.8 11.4-2 14.2-4.3 6.3-5.2 8.4-6.9 13.6-11 3.2-2.5 5.9-4.6 6.1-4.6.6-.3 8.1-6.3 9.7-7.9 1.2-1.2 4.9-4.1 8.3-6.7.3-.2.5-.4.4-.4-.2 0-1.6 1-3.3 2m220.8-1.5c0 1.1 7.1 11.2 9.3 13.2 1.2 1.1 4.9 2.4 10 3.5l4.1.9c.5.1 2.6.6 4.6 1.1 5.2 1.1 5.3 1.2 13 8.7 6.3 6.1 7.6 6.6 2.7 1-10.2-11.7-9.7-11.1-13.1-11.9-.9-.2-3.3-.7-5.2-1.2-1.9-.4-3.9-.9-4.5-1s-3.1-.7-5.5-1.3l-4.5-1.1-1.8-1.9c-1-1-3.2-3.6-5-5.8-3-3.7-4.1-4.9-4.1-4.2M167 159.6c-7.7 2.7-5.9 16.3 2 15.5 2.4-.2 3.1-.8 1.2-1a7.1 7.1 0 0 1-1.7-13.8c1.2-.5 1.3-.5.8-.8-.8-.4-1.1-.4-2.3.1m120 .3c0 1 1.7 4.1 5.5 9.9 1.5 2.3 5.2 7.3 6.6 8.7s3.9 2.5 8.4 3.6c1.6.4 5.1 1.2 7.8 1.9 4.2 1.1 5.4 1.2 8.1 1.3l3.2.1-2.7-.5c-8.8-1.7-21.6-5.8-22.5-7.1-.4-.7 1.8-.9 3.2-.4.3.1 1.8.5 3.1.8 1.4.3 2.9.8 3.3 1s1.1.4 1.5.4 1.9.2 3.3.5 3.4.7 4.6.9 3.5.7 5.2 1.1c1.7.4 4.9.9 7.1 1.1 4.7.5 5.4.8 9.7 3.9 3 2.1 4 2.5 4.8 1.7.7-.7-5.6-5.6-7.7-6-1.5-.3-2.8-1.1-6.2-4.1-1-.9-1.9-1.5-1.9-1.5-.5 0 .2 1.1 1.8 2.8l1.9 2-1.1-.1c-1.4-.2-1.6-.4-5.5-4-1.6-1.5-3-2.8-3.1-2.8-.5 0 .1.8 2.2 3.3 2.1 2.3 2.3 2.8 1.8 2.8-.9.1-2.5-1.2-6.1-4.8-2.9-3-4-3.9-4-3.2 0 .2 1.7 2.4 4.5 5.6l1.7 1.9-.9-.2c-1.2-.2-5.9-4.4-9-8-2.1-2.4-2.9-3.1-2.9-2.6 0 .4 4.3 6.1 6 7.8 1.8 1.9 1.8 1.9 1.1 1.9-1.2 0-1.5-.2-4.7-3.6-3.1-3.3-7.7-7.6-8.1-7.6-.5 0 2 3.2 6.4 8.4.8.9 1.3 1.7 1.3 1.7-.6.6-4.1-2.3-7.1-5.9-1.3-1.5-6.4-6.9-6.5-6.8 0 .1.8 1.3 1.9 2.8s2.5 3.5 3.1 4.5 1.4 2.2 1.9 2.7c.9 1 .8 1.1-.6.7-1-.3-6.2-5.5-8.7-8.9-2.6-3.4-4.2-5.3-4.4-5.3-.5 0-.2.7 1.2 2.5.8 1 1.8 2.6 2.3 3.4.7 1.3 3 4.6 4.4 6.3.5.6-1.4.1-2.3-.6-1.3-1.1-7.6-9.5-9.3-12.6-.4-.8-.8-1.2-1.4-1.3-.4-.1-1-.2-1.4-.3-.6-.3-.8-.1-.8.2m-161.7.2c-3.9.7-9.2 4-10.6 6.8-2.3 4.5-2.9 11.3-1.3 14.7 1.3 2.7 5.4 6.6 6.9 6.6.3 0 .4.6.5 2.3.6 8.1.4 7.7 4 9.1 4.4 1.7 4 1.8 4.3-.9.3-1.9 1.5-4.9 3.1-7.6.7-1.2 1.3-2.3 1.3-2.3s-1.4-.2-3.1-.3c-8.4-.8-12.7-5.5-12.6-13.9 0-8.8 6.1-15 14.1-14.3l1.6.1-1.1-.3c-1.5-.5-4.6-.5-7.1 0m89.7 1.7c0 .5 2.1 2.6 4.5 4.4 1.3 1.1 1.6 1.6.7 1.6-1.2 0-4.2 2.9-9.1 8.8 0 .1-1.4-.8-3-2-5.5-4-5.2-2.7.5 2.4 2.9 2.5 2.8 3.3-.2 1.8-2.1-1-2-1 .1 1.1 2.8 2.7 1.9 2.5-3-.5-2.2-1.4-1.7-.2 1 2.1 1.3 1.1 2.2 2 2 2.2-.3.3-2.3.3-3.3.1-1.2-.4-.9.4.7 1.4 1.4.9 1.5.9 4 .4.5-.1 1.3-.8 2.5-2.3 1-1.2 3.3-3.7 5.2-5.5 3.5-3.5 8.2-9 8.2-9.7 0-.2.1-.5.3-.6.5-.3.2-.6-2.1-2.1-4.7-3.2-9-4.8-9-3.6m-132.4 1.3l-1.8 1.5.9.4c1.2.5 7.6 2.4 8.1 2.4.4 0 5.7-2.6 6.6-3.3l.7-.5-.7.1c-.4.1-1.3.3-2.1.6-2.8.8-2.8.8-9.6-2.7-.2 0-1.1.6-2.1 1.5m85.7.8c-.6.5-.6.5.5.5 2 0 3.2 1.4 2.9 3.4-.2 1.3-1.1 2.3-2.1 2.3-.8 0-.9.2-.4.7.7.7 3.1.1 3.7-1 1.8-3.2-1.9-8-4.6-5.9m43.9.2c-.2 1 .6 5.5 1.1 6 1.2 1.2 1.4-4.5.3-6.4-.4-.6-1.3-.3-1.4.4m-2.5 2c-.4 1.1.1 6.6.6 7.1.9.9 1.1.1.8-3.5s-.8-5.1-1.4-3.6m-81.6 0c-8 1.3-9.6 14.6-2.2 18.3 1 .5 1.8.6 3.5.7l2.3.1-1.8-.4c-2.3-.5-4.7-2-4.7-3 0-.2-.3-1.2-.6-2.2-1.5-5.1.8-11 5-12.5 1.7-.9.7-1.5-1.5-1m221 0c0 .2 2.7 3.8 4.2 5.6.6.8 2.2 2.9 3.5 4.8 2.5 3.7 3 4.3 5 6.4l1.3 1.4 1.7-.3 1.7-.3-2.8-2.8c-1.5-1.6-3.4-3.6-4.2-4.6-2-2.4-10.4-10.7-10.4-10.2m-72.8.7c0 .1.9 1.2 2 2.4 2.5 2.8 5 6 4.7 6.4-.2.3-.4 0-4.2-3.6-3.9-3.7-4.6-4.3-5.2-3.9-.7.4-.7.4.9 2.2 5.7 6.6 5.6 7.9-.2 2.2-1.6-1.6-3-2.9-3.2-2.9-.7 0-.4.7 1 2.5 4.7 5.7 4.3 7.3-.5 1.8-2.1-2.4-2.8-2.8-3.5-2.2l-.6.5 1.6 2.1c.9 1.2 2.1 2.6 2.6 3.3 1.6 2.1 1.1 2.2-1.1.4-1.5-1.3-2.8-2.6-4-4.1-.4-.5-.7-.7-1-.6-.5.2-.5.1 2.2 4.5.8 1.3 1.4 2.4 1.3 2.5-.2.2-3.1-2.7-4.3-4.4-1-1.4-1.6-1.7-2.5-1.2-.3.2-.3.3 0 .7.7.8 4.3 6.8 4.1 7-.2.2-3.5-3.4-5.1-5.5-.7-.9-1.5-1.7-1.8-1.7-.6 0-.6.1 1.8 4.3 1.1 1.9 2 3.5 1.9 3.6-.2.2-3.2-3.4-5-5.8-.7-1-1.5-1.8-1.7-1.8-.5 0-.5-.1.8 2.4 2.3 4.2 1.3 4.1-1.5-.2-1.5-2.3-1.7-2.5-2.9-2.8-1.1-.3-1.3-.5-2.1-1.9s-1.4-2.1-1.4-1.7c0 .1 1 2.1 2.3 4.5s2.7 5.1 3.2 5.9c2.4 4.6 3.4 5.4 7.4 6.1l2.1.4 1.4-.9c3.1-2 10.8-5.7 14.7-7 2.6-.9 5.8-.8 13.1.4 2.1.4 2.3.3 2.3-.2 0-.6-5.8-9.7-6.5-10.3-.3-.2-1.3-.8-2.1-1.3l-1.6-.9.6.9c.4.5 1.2 1.6 1.8 2.5 3.6 5 4.2 7.5.8 3.4-4.6-5.5-7.1-8.1-8-8.1h-.8l1.2 1.3c1.4 1.5 6.1 7.8 6 8-.1.1-1.7-1.4-3.7-3.3-4-3.8-7.3-6.6-7.3-5.9m-68.8 1.1c-.2.3.2 4.4.5 4.8.4.7.7.3.7-1-.1-2.1-.8-4.5-1.2-3.8m-20.2 1.7c0 1.9-3.7 7.5-6.5 9.9-8.6 7.3-20.7 5.7-26.2-3.4-.7-1.2-1.2-1.3-1-.3 1 3.9 6.4 8.5 11.7 10.1l1.6.5-1.6.3c-3.5.7-6.1 0-9.6-2.7-.9-.7-1-.7-.7-.2.4.8 2.4 2.4 3.7 3.1.6.3 1.1.7 1.1.8 0 .9 7.8 1.8 10.8 1.1 8.2-1.7 13.4-6.1 15.7-13.2.9-2.6 1.5-6.6 1.1-6.6 0 .1-.1.4-.1.6m-114.1 1.2c-1.9 1.6-1.9 1.9.6 2.8 2 .8 2.3.7 4.7-.5 1.1-.6 2.2-1.1 2.4-1.1.2 0 .7-.2 1-.5l.6-.5H80c-2.5 0-3.6-.3-4.3-1.2-.4-.7-.7-.6-2.5 1m57.2.4c-.7.4-.6.8.2.8 3.3 0 3.1 7.2-.2 8.3-1.2.4-1.3.8-.5 1.2 1.4.7 3.9-.1 4.7-1.6 2.1-3.8-1.2-10.5-4.2-8.7m101.2.9c-.2.2-.7 1.3-1.2 2.5-1 2.3-5.7 10-8.2 13.5-3.2 4.3-6.2 6.6-10.4 8.1-1.1.4-2.1.9-2.1 1 0 .8 3.9 7.3 5.5 9.2.2.2 4.4.3 5 .1.8-.2.5-1.4-1-4.1-1.4-2.4-2.8-5.8-2.8-6.5 0-.4 1.1.9 2.2 2.6.5.7 1.5 2.1 2.3 2.9.8.9 1.8 2 2.2 2.5.6.8.8.9 1.1.6.2-.2.5-.3.7-.3s.9-.4 1.6-.9c.7-.5 2-1.3 2.8-1.7 1.6-.8 11.7-7.4 12.4-8.2.3-.3.4-1.4.6-4.2.1-2.1.3-4.7.4-5.7.4-4.5-1-.8-1.8 4.8-.5 3.6-.8 2.3-.7-4 0-5.8-.3-8.9-.7-5.8-.2 1.9-.7 5.9-.9 7.4l-.2 1.4-.6-1.2c-.6-1.1-.6-1.3-.6-7 .1-8.3-.9-7.8-1.6.6l-.2 2.3-.5-.7c-.5-.6-.5-.9-.4-3.5.3-5-.3-6.9-.9-3.3-.9 5.5-2.4 5.1-1.6-.5.3-1.4.1-2.6-.4-1.9m14.3.3c.1.3.8 1.9 1.5 3.4s1.7 3.6 2.1 4.7c.8 1.9 3.7 7 4.9 8.6.7.9 3.4 2.1 8.7 3.8l2.6.8 2.2-1.2c1.8-1 2.2-1.3 2.4-2 .2-.8 1-1.2 1.4-.6.2.4.7.3.7-.1 0-.6.5-.8.9-.4.3.2.6.2 1.1-.1 1.1-.6 6.1-2.4 7.8-2.9 2.1-.6 6.9-.8 9.2-.4 4.4.7 7.1.5 6.2-.5-1.1-1.1-14.9-2.8-16.6-2.1-.6.2-2.2.9-3.6 1.4-3 1.1-5.8 2.5-9.5 4.6-3.1 1.8-2.9 1.8-5.4.8-1.1-.4-2.8-1-3.8-1.2-1.4-.4-1.9-.7-2.4-1.3-.9-1.2-4.6-7.3-6.3-10.3-2.3-4.2-5-7.5-4.1-5m-19.2 3c-.8 1-3.1 4-5 6.7-5 7-5.2 7.2-7.5 8.1-2.5.9-2.7.9-3.7-.1-1.2-1.3-1.7-.9-1.8 1.9 0 1.2 0 2.2.2 2.2.7 0 5.4-1.8 6.4-2.4 2.9-1.8 6.7-6.8 11-14.1 2.6-4.6 2.7-5.1.4-2.3m-33.8 1.5c-2 6-3.2 7.4-9.7 11.2l-1.3.8 1.7-1.6c1.4-1.4 5.1-6.7 4.8-7 0 0-1.6 1.4-3.5 3.3-4.4 4.3-7.4 6.2-13 8.1l-3.7 1.3h2.1c3.1 0 7.8-.7 10.2-1.6l1.3-.5-.8.7c-3 2.5-10.6 4.9-15.3 4.9-2.5 0-3.3.3-2.7.8.2.2 1.7.3 5.3.3h5l2.8-1c6.9-2.4 6.9-2.4 10.5-5.7 5.1-4.7 6.5-7.4 7.4-14.3.1-2.7-.1-2.7-1.1.3M64 176.8c-3.6 3 1.5 3.4 6.5.5l1.5-.9h-2.2c-1.6 0-2.4-.1-3.1-.5-1.1-.5-.9-.7-2.7.9m132.2 3.6c-.4 1.2-1.2 3.2-1.8 4.4l-1.1 2.2.6.6c.3.3.8 1.3 1.2 2.1.8 1.9.9 1.9 2.1.2 1.6-2.3 2-5.1 1-8.1-.3-.9-.6-2.1-.7-2.7-.2-1.5-.5-1.2-1.3 1.3m-105.4.7c-1.2.6-1.2.4-.6 3.2.2.7.4 1.8.5 2.3.5 2.6 2.5.3 2.7-3.1.1-2.9-.4-3.4-2.6-2.4m143.5 6.5c3.6 4.9 3.4 4.3 1.7 5.4-.8.5-2.4 1.4-3.5 1.9-2.3 1.1-4.9 2.6-6.4 3.7-.6.4-1.1.7-1.2.6-.9-1.1-2.9-3.9-3.4-4.9l-.4-.8 5-5.1c4.9-5 5-5.1 5.4-4.5.3.2 1.5 1.9 2.8 3.7m-156.5-2.7c-.1.1-.1.6 0 1.2.3 2.5-1.1 6-3.4 8-3.4 3.1-8.3 2-11.6-2.7-.7-1-.9-1.1-1.6-1-1.4.3-1.5.6-.7 2.3 4.4 8.9 16.9 7.4 18.5-2.2.5-2.9-.2-6.4-1.2-5.6m65.1.2c-4.6 1.4-8.9 9.1-8.8 15.8 0 5.2.5 5.6 3.3 2.5 1.4-1.5 1.4-1.6 1.6-3.5.6-5.3 5.2-11.3 9-11.8 2.5-.4 1.4-2.2-1.8-2.8-2.1-.5-2.2-.5-3.3-.2m86.3 2.5c-.9 1-1.7 7.4-.9 7.4 1.1 0 1.9-2.8 1.9-6.7 0-1.5-.2-1.7-1-.7m-160.1.8c-4.4 1.3-4.3 1.2-3 2.6 2.5 2.9 8.1.4 7.3-3.3-.1-.6 0-.6-4.3.7m16.4-.2c2.3 7.2-3.3 15.6-11.9 17.7-2.1.5-4.2.4-6.6-.4-1.9-.7-2.1-1-.1-.4 5.8 1.8 12-1.5 15.4-8.3 1-2 .8-1.9-.7.3-3.7 5.5-9 8-13.9 6.3l-1.5-.5h2.2c2.8 0 4.5-.8 6.8-3 .9-.9 1.2-1.3.8-.9-.5.4-1.1.7-1.3.7s-.9.2-1.4.5c-5.3 2.8-11.1.3-14.4-6.4l-1.2-2.3-2.9-.2c-3.8-.2-3.6-.4-3.6 2.1 0 8 5.8 14.6 14.8 16.9 9.4 2.4 20.1-3.5 21.6-11.9.3-1.4 0-1.1-1.2 1.4-2.1 4.3-5.3 7.2-9.4 8.2-3.1.8-9.5.5-11.8-.6-2.6-1.2-2.4-1.5.2-.5 6.8 2.4 16.4-1.3 19.5-7.5 1.5-2.9 2.1-8.2 1.3-10.6-.2-.9-1-1.7-.7-.6m146.5-.1c-.3.3-.2 3.8.1 4 .9.6 1.7-2.7.9-3.6-.5-.6-.7-.6-1-.4m133.9.3c-5.8 1.2-11.9 3-23.2 6.6-3.6 1.2-8.5 2.7-10.9 3.5s-5 1.7-5.7 2c-2.8 1.2-8.4 7.4-8.4 9.1 0 1.1 1.3 1.1 1.9.1.2-.4.5-.5 1.5-.4 1.6.2 1.6.1.4 2.6-2 4-1.2 3.7 1.6-.7.7-1 .8-1.1 1.3-.8 1.3.7 1.3.7.2 2.7-1.2 2.3-2.9 6.4-2.9 7 0 .3.5-.5 1.2-1.7.6-1.2 1.8-3.1 2.5-4.2l1.3-2.1.6.7c.8 1 .8 1-.8 3.7-1.5 2.6-3.5 6.8-3.5 7.3 0 .8.6 0 2.9-3.8 2.8-4.8 2.8-4.8 3.1-3.3.2 1.2-.2 2.2-3.1 7-2.2 3.7-3.1 5.8-2.4 5.8.1 0 1.5-2 3-4.4 2.5-3.9 2.8-4.3 3-3.8.5 1.3 0 4-1.3 6.9-1.7 3.9-1.5 3.8 2.2-.7 7.9-9.6 8.6-10.2 13.5-11.8 1.8-.6 4.9-1.7 6.9-2.4 6-2.2 11-3.9 14.4-4.8 3.6-1 3.5-.9 3.7-2.1.2-.7.1-.9-.3-.9-.5 0-8.4 2-12.1 3.1-1.2.4-2.9.8-3.7 1-1.5.4-3.6 1.2-8.1 2.9-3.7 1.5-3.8.8-.2-1.4 2.1-1.3 6-4.2 6.1-4.6 0-.1-.7.1-1.6.4-.9.3-2.5.9-3.5 1.2s-2.4.8-3.1 1.1c-1.5.6-2.2.7-1.4.1.5-.4 12.5-6.3 13.4-6.6.3-.1.7-.4.9-.8l.5-.6-2.4.8c-1.3.4-3.6 1.2-5.1 1.8-6.3 2.4-8.3 2.9-7.8 2.2.4-.6 11.6-6 15.4-7.3 1.8-.6 3.2-1.7 2.3-1.7-1.1 0-6.6 1.7-11.7 3.7-4.6 1.8-5.3 2-5.5 1.7-.4-.6 9.1-5 16.3-7.5 3.5-1.2 5.5-2.2 5.1-2.6-.2-.2-5 1.3-10.5 3.2-6.9 2.3-7.9 2.1-2.3-.6 3.6-1.7 9.9-4 15-5.5 4.1-1.6 4.7-1.9 1.3-1.1m-176.4 3.2c-1.2 1.2-2.8 2.7-3.6 3.2-1.2.9-1.4 1.2-1.2 1.8.4 1.4.6 2.9.6 3.8 0 1.2.2 1.2 1.5.2 3-2.1 5.2-6 5.3-9.2.2-2.6.1-2.6-2.6.2m-40.8-1.2c-4.9 2.5-7.9 7.3-8.8 14.1-.2 1.6-1.3 3.9-3 6-2.7 3.5-8.5 11.9-9.4 13.8-1 1.9-1.1 2.8-.5 2.8.8 0 2.3-.5 2.5-.8.1-.2 1.1.5 2.8 1.9 1.4 1.2 2.6 2.2 2.7 2.2.5 0-.1-1.1-1.6-3.1s-1.7-2.4-1.5-2.9c.4-.8 4.8-6.8 7.5-10.2 5.4-6.9 6.2-8.1 5.8-9.2-.5-1.5-.1-7.7.6-9 1.1-2.1 2.6-3.9 4.2-4.9 1.1-.7 1.4-1.1 1.2-1.2-.7-.3-.7-.3-2.5.5m-101.3.5c-1.2 1.3-2 2.9-2.5 4.8-.4 1.7-.3 1.9.6 1.3.4-.3 1.2-.7 1.7-.9.6-.3 1-.6 1.1-1 1.2-5.2.9-6.2-.9-4.2m178.6-.3c-.6.8-1.1 5.9-.6 6.4.7.7 1.3-.7 1.5-3.7.2-3.4 0-3.9-.9-2.7m8.1.3c-.1.3 0 .4.2.3.4-.1.6-.7.3-.7-.2-.1-.4.1-.5.4m-139.9.5c-.5.4-1.4.9-1.9 1.2-.9.5-1 .6-1 1.5 0 .5-.2 1.8-.4 2.9-.2 1-.4 1.9-.4 1.9 0 .4 1.3-.1 2-.8 1.5-1.3 2.9-4.8 2.7-6.6l-.1-.8-.9.7m129.7 1.2c-.6.7-.6 1.3-.2 2.2l.4.9.2-1c.4-1.5 0-2.6-.4-2.1m23.1-.2c-.4.6-1.8 4.3-1.9 5.2-.4 2.1-1.6 5.2-2.1 5.7-1.1.9-6.7 4.3-9.1 5.6-8.5 4.4-7.7 4.1-9.8 3.9-1.1-.1-2.8-.5-3.8-.8l-1.9-.7-.2.6c-.1.6 1.4 6.7 2.6 10.5.6 1.9 1 2.1 4.4 2.4 2.4.2 2.4.3 1.3-4.1-1.2-4.6-1.7-6.8-1.4-6.8.1 0 1.2 2.1 2.5 4.7 2.2 4.4 2.4 4.7 3.5 5.2l1.1.5 3.2-.7c1.7-.4 4.5-.9 6.1-1.3 1.6-.3 3.7-.8 4.5-1 .9-.3 2.4-.7 3.4-.9 2.2-.6 2.2-.6 3-3.7 1.9-7.2 1.6-8.8-.6-2.4-1.2 3.5-1.8 2.1-.9-1.9 1.3-5.7 1.3-5.9 1-6.2-.1-.1-.3-.2-.4-.1-.2.3-2 6-2 6.5 0 .4-.1.4-.4.2-.6-.5-.5-1.4.4-5 1-3.9 1.4-6.5 1.2-6.7s-.9.7-.9 1.2c0 .2-.5 1.9-1.2 3.8l-1.2 3.5-.5-.7c-.5-.7-.5-.8 0-2 1.1-3.1 2.5-10.8 1.9-10.6-.2.1-.4.6-.6 1.1-2.4 8-2.8 8.8-3.2 8.1-.4-.6-.3-1.3 1.2-7.7 1-4.4 1.3-6.4.8-5.4m-94.9 2.5c-2.7.4-4.4 3.3-3.9 6.5.9 5.9 8.3 4.3 8.3-1.8 0-2.6-1.8-5.5-3.1-4.9-.1.1-.7.2-1.3.2m2.1 2.7c1 1.9-.4 5.6-2.1 5.6-2.3 0-2.6-4.2-.5-5.7.9-.6 2.3-.6 2.6.1m114.4.2c0 .4.5 2.6 1.1 4.9.6 2.3 1.1 4.7 1.2 5.4.1.7.6 3.8 1.2 6.9l1.1 5.7 1.8 1.7c1 .9 2.7 2.3 3.8 3l2 1.4 2.3-.2c4.6-.3 7.1-1.1 6.8-2.1-.2-.6 1.4-3.9 3.9-8 2.1-3.4 2.1-2.7-.4-9.2l-1.6-4.2-1.5.3c-1.7.3-1.6.1-.8 2.9 1.3 4.1 1.2 5.8 0 2.9-2.4-5.5-2.2-5.1-3.2-5.1-.5 0-.9 0-.9.1 0 0 .5 1.7 1.2 3.7 1.2 3.8 1.6 5.3 1.4 5.3-.3 0-2-3.3-3-5.7-.5-1.3-1-2.6-1.1-2.7-.1-.4-1.9-.5-1.9-.1 0 .1.5 2 1.2 4.3 1.9 6.3 1.2 6.1-1.4-.4-.8-2-1.5-3.8-1.7-4.1-.3-.5-2.3-.9-2.1-.4.6 1.6 2.8 9.3 2.8 9.8 0 1.5-1.4-1.2-3.3-6.5-1.3-3.5-2.3-5.4-2.7-5 0 0 .4 2 1 4.4 1.2 5.1 1.5 7 1.1 7-.6 0-2.1-4.4-4.7-13.7-.2-.8-.5-1.5-.7-1.5-.3 0 .3 3 .9 5 .2.7.7 2.7 1 4.3 1.2 6.4-.2 3.2-3.1-6.5-1-4-1.7-5.3-1.7-3.6m-87.5 0c-.4.2-2 .8-3.6 1.3l-2.9 1-.1 2.1c0 1.1-.2 2.5-.4 3.1-.8 2.9 3.9.3 6.5-3.6 2.3-3.3 2.5-5.1.5-3.9m83.6.6c.3 2 1.5 10.1 2 14.2l.9 6.8c.2 1.5.4 3.1.4 3.6 0 2.1 1.1 3.2 9.1 8.5 1.7 1.2 3.1 1.4 6.9 1 4.1-.4 5.7-1.6 1.8-1.4-2.3.1-4.4-.2-5.2-.9-.5-.4-2.6-1.8-5.1-3.5-4.8-3.1-5-3.4-5.1-4.4 0-.5-.2-1.8-.4-2.9-.2-1.1-.6-3.3-.9-4.8-.3-1.5-.9-4.8-1.4-7.3-1.2-6.6-2.2-10-3-10-.1.1-.1.3 0 1.1m-216.3.2c-1.1 2.5 0 9.4 1.1 7.4.2-.3.7-1 1.2-1.6l1-1.1-.9-1.6c-.5-.9-1-2.2-1.2-2.9-.3-1.4-.6-1.6-1.2-.2m118.6 1.6c-1.7.3-3.5.5-3.9.5-.8 0-.9.1-1 1.3-.2 1.7-.6 3.6-.8 4.1-.8 2.2 7.4-2.1 9.3-4.8 1.2-1.7 1.1-1.7-3.6-1.1m66 4.9c-8.1 4.8-8.1 4.8-10.5 4.7-2.3-.1-2.8.3-1.2 1 2.5 1.1 3.8.8 8.9-2.1 6.7-3.8 10.5-6.3 10.1-6.7-.8-.6-1.6-.2-7.3 3.1m-141.3-2c-.4.1-1.2.1-1.6.1-.7-.1-.9 0-1.5.9-.4.5-1.4 1.6-2.2 2.4-1.9 1.7-1.8 1.9.7 1.4 2.8-.5 4.6-1.6 5.6-3.5.8-1.6.8-1.6-1-1.3m202.6.3c.1.3.8 2.3 1.6 4.5l1.4 4.1.7-.6.7-.6-1-3.9-1-3.9-1.3-.1c-1.1 0-1.2 0-1.1.5m5 .4c0 .6 1.4 5.6 1.6 5.6.1 0 .5-.2.8-.5l.6-.5-.6-2.1c-.4-1.2-.8-2.2-1-2.4-.6-.5-1.4-.5-1.4-.1m4.2.6c0 .5.9 2.8 1.1 2.8.9 0 1.8-.8 1.6-1.3-.3-.7-2.7-2-2.7-1.5m7.5 3c-1.5 1.1-10.4 8.8-11.9 10.3-2.5 2.4-4.6 5.2-6 8.2-3.3 7.1-4.8 9.9-5.4 10.3l-1.3 1c-.3.3-1.1.8-1.9 1.2-.7.4-1.9 1.1-2.7 1.7-.8.6-3.2 2.3-5.4 3.8-3 2-4.2 3-4.6 3.8-.3.5-1 1.3-1.5 1.6-.6.4-.9.8-.9 1.2s-.7 1.7-1.6 3c-2.6 3.9-5.2 10.4-6.3 15.8-.2 1.1-.8 3.6-1.2 5.5-1.9 8.3-2.4 19.7-1.1 24 .2.6.3 1.3.3 1.6 0 .3.1 1.1.3 1.7.8 2.7-1 9.7-3.4 13.3-.7.9-1.3 2.2-1.5 3.1-.2.8-.6 1.9-.8 2.5-.6 1.2-.4 2 .5 2.4.5.2.8.8 1.2 2.1.6 2.1 2.8 9.6 3.5 11.9.5 1.8 1.2 3.5 3.2 7.7.8 1.6 1.9 4.1 2.5 5.5.6 1.4 1.6 3.6 2.2 4.8 2.6 5.2 3 8.8 2.6 24.1-.2 6-.4 11.5-.6 12.2-.5 2.1 1 2.4 2.3.4.2-.3 1.2-1.1 2.1-1.6s2.3-1.5 3.1-2.2l1.4-1.2-.1-14.1c-.1-7.8-.3-14.4-.4-14.8-.2-.5-.1-.7.4-1.2 2-1.5 3-4.4 1.5-4.4-.4 0-.7.2-.9.4-.1.2-.7.9-1.3 1.6l-1.1 1.3-.5-1.2c-.5-1.1-.5-1.2-.1-1.5 3.6-2.8 6.1-7 4.8-7.9-.4-.2-.6-.2-1 .4-1.7 2.2-2.5 3-3.9 4.2l-1.6 1.4-.6-1.1-.6-1.1 2.1-2.2c2.2-2.4 4.9-6.5 4.9-7.5s-.9-.7-1.9.6c-.9 1.3-3.8 4.2-5.6 5.7l-1 .8-1.1-1.5c-1.4-1.8-1.4-1.7.1-2.6 2.4-1.5 7.5-7.8 7.3-9-.2-1.1-.6-.8-3.8 2.4-2 2-3.8 3.5-4.9 4.2l-1.7 1-.5-.6c-.5-.6-.6-1.3-.2-1.3.9 0 6.4-6.4 7.7-9 1-2 .5-3.2-.7-1.8-2.8 3.3-8.4 8.3-8.9 7.9-.7-.4-1.2-2.5-.7-2.5 1.2 0 6.9-5.6 7.9-7.8 1.2-2.7.2-3.6-1.4-1.4-1.3 1.9-7.4 6.7-7.9 6.3-.9-.6-.5-1.5 1.4-3.3 2.5-2.4 3.9-4.2 5.4-7.1 1.7-3.3 1.5-5.2-.2-2.6-2.7 3.9-7.5 8.7-8.2 8.2-.5-.3-.2-1.1 1-2.4 2.7-3 6.1-8.9 5.5-9.5-.4-.4-.8-.1-3 2.9-1.8 2.5-4.1 5.1-4.6 5.1-.7 0-.6-2.4.1-3.7 2.2-3.8 3.2-5.7 3.8-6.9l.6-1.4 1.5 1.1c.8.6 2.3 1.8 3.3 2.7 1 .8 2 1.7 2.3 1.8.3.2.7.7.9 1.2.2.5.9 1.6 1.6 2.5.6.8 1.5 2 1.8 2.7.4.8.7 1 .7.7.1-.3.9.7 2.2 2.8 4.6 7.1 8.5 11.3 14.6 16 2.7 2.1 7.2 4.2 6.1 2.9-.3-.4-.3-.4 0-.3 4 1.5 8.8 2.5 8.8 1.9 0-.1-.8-.5-1.9-.9-12.9-4.2-22-12.5-29.4-27.2l-1.8-3.5-3.9-3.7c-7.6-7.1-7.9-7.5-8.3-9.1-.7-2.8.7-2.1 7.7 3.8 2 1.6 2 1.7 1.5.4-.2-.5-.7-2.3-1.1-4s-1.1-4.1-1.5-5.5c-.4-1.3-1.1-3.7-1.5-5.2-.8-3.5-2.1-7.6-2.8-8.7-.7-1.1-.3-1.1.8 0 1 1 3.4 6.7 4.2 9.6.6 2.4 1.9 5.2 3.9 8.1 1.9 2.8 2.7 3.7 2 2-.7-1.6-2.2-6.1-2.7-8.1-.2-1-1-3-1.6-4.5-1.4-3.4-1.7-4.4-2-8.9s-.6-5.7-1.7-7.4c-1.1-1.6-.9-1.8.5-.4 1.6 1.6 2.3 3.8 3.4 10 .5 3.2 1.7 6.5 3.8 10.4 1.1 2.1 1.1 1.9.2-1.7-.4-1.7-1-4.1-1.2-5.3-.2-1.2-.5-2.8-.7-3.5-.2-.7-.4-3-.6-5.3-.4-6.7-1.3-9.6-3.8-12-1.4-1.5-1.4-1.7.2-.6 3.2 2.3 4.9 6.2 5.4 11.9.4 4.3 2.1 9.4 2.9 8.6.1-.1-.1-1.5-.5-3-.4-1.6-.8-3.6-.9-4.6s-.4-2.7-.7-3.9c-.3-1.2-.6-3.4-.8-4.9-.5-5.6-1.4-8.2-3.5-10.6-1.4-1.5-1.3-1.8.2-.9 2.3 1.4 4 4.9 4.9 9.9 1 5.7 1.5 7.3 2.8 8.6.1.1.1-2.6 0-5.9-.1-4.5-.1-6.6.2-8.5.8-5.5.5-7.2-1.8-9.5-1.3-1.3-1.4-1.8-.3-.9.4.3.8.5.9.5.5 0 2 1.9 2.7 3.5.7 1.4.7 1.7.6 5.3 0 2.2.1 4.5.2 5.3l.3 1.5.5-1.7c.3-1 .7-2.9.9-4.2.5-2.9 1.4-5.9 2.8-9.2 1.7-4.1 1.7-5.7-.3-7.3-1-.8-1.3-1.3-.8-1.3s3.4 2.9 3.9 3.8c.6 1.3.5 2.6-.4 5.2-1 2.8-1.6 5.8-1.6 7.3v1.1l.4-1c1.9-5.1 7.1-13.5 10-16.1l1.2-1.1-1.1 2c-2.3 4.3-4.1 10.2-3.1 10.6.6.2 1-.3 1.9-2.7 1.9-5.6 5.6-12 7.4-12.7 1.1-.4 1.1-.5.2-.3-.8.2-.9.1-.6-.3.5-.6.5-.6-2.7.5-3.9 1.3-6.4 1.3-10.4-.2-3.2-1.2-3-2.4.5-1.8 6.2 1 8.3-.1 10.4-5.6 1.2-3.1 1.6-2.6 1.3 1.8-.2 2.3-.1 2.5.3 2.4.9-.2 1.5-3.1 1.4-6.7l-.1-3.1 1.2-1.3 1.2-1.3-.1 6.3c-.1 6.6 0 7.3.7 4.9 1-3.3 1.5-8.3 1.3-11.7-.1-1.7-.1-1.7.7-2l.8-.3.2 1.5c.2 1.4 0 6.5-.3 10.5-.2 2 .4 3.1.8 1.6 1.2-4 1.8-12.2 1.2-14.5-.2-.6-.1-.9.5-1.5.8-1 .7-2.1-.7-6.6-1.2-3.8-.4-4.1 1.2-.4 2.8 6.2 3.3 9.8 1.8 15.2-2.1 7.7-1.5 8.7.8 1.3 3-10 3.1-9.7-1.7-18.2l-2-3.5-.9.7m-257.7.7c.7 3.8 5.5 8.9 5.6 5.9 0-.5.1-1.5.2-2.2l.2-1.2-1.5-.9c-.9-.5-2.1-1.3-2.8-1.8-1.7-1-2-1-1.7.2m93.3.3c-.8.9-1.8 2.4-1.7 2.5.6.6 3.1 2 3.3 1.9.3-.1 1.7-2.5 1.5-2.6-.1 0-.7-.6-1.3-1.2l-1.2-1.1-.6.5m97.9 1.2c1.2 2.1 2.6 4.7 2.8 5.6.2.5.1.6-.8.8-.6.1-2.9.8-5.1 1.6-2.3.8-5.4 1.7-7 2.1l-2.9.7-.7-2.3c-.4-1.3-.7-2.4-.8-2.5s2-1.3 4.5-2.8c2.5-1.4 5.5-3.1 6.6-3.7 1.1-.6 2.1-1.2 2.2-1.2.1-.1.7.7 1.2 1.7m-3.4 1.3c-1.5 1.7-2.1 6-.9 5.5.4-.1 2-4.7 2-5.6 0-.6-.6-.6-1.1.1m-118 1l-1.1 1.3 1.3 1.3 1.3 1.3 1.4-1.4 1.4-1.4-1.2-1.2c-1.6-1.4-1.8-1.4-3.1.1m-44.2 0c-1 .5-4.1 1.4-4.9 1.4s-.8.3.1 1.2 1.5 1.1 4.2.9c3-.2 5.9-1.7 4.1-2.2-.3-.1-1-.5-1.5-1-1-.8-1-.8-2-.3m164.1 1.5c-.7 2.1-.6 2.4.5 1.8.9-.5 1.3-1.4.9-2.6-.4-1.5-.8-1.2-1.4.8m-180.7-1c-.2.4-.1.6 1.5 2.6 1.4 1.9 3.3 2.9 5.3 2.9 1.8 0 1.8 0 .7-2.1s-1.1-2.1-3.1-2.3c-.8-.1-2.1-.5-2.7-.8-1.5-.8-1.5-.8-1.7-.3m175.7.4c-1.4 1-2.4 4.6-1.3 4.6.5 0 .7-.3 1.5-2.3 1.1-3 1.1-3.2-.2-2.3m-94.9.8c-1.3 1.1-2.5 3.5-1.7 3.5.1 0 .8.4 1.4.8 1.6 1.1 1.7 1 2.6-.7 1-1.7.9-2.1-.5-3.3-1.2-1-1.1-1-1.8-.3m91.6 1c-.7.5-1.7 3.3-1.4 3.6.4.4 1.3-.1 1.4-.7.1-.3.3-1.2.5-1.9.6-1.4.4-1.7-.5-1m-115.8 2.3c-.7.8-1.2 1.6-1.2 1.7 0 .3 2.4 2.6 2.5 2.4 0-.1.7-.9 1.5-1.8l1.4-1.6-1.3-1.1c-1.6-1.3-1.5-1.4-2.9.4m113.2-1.1c-.4.2-.2 1.9.2 1.9.2 0 .8-1.4.8-1.9 0-.4-.5-.4-1 0m-136.8 1.3c-.8.6-2 1.4-2.6 1.8l-1.1.8.6 1.2c.8 1.6.7 1.6 3.5-1.1 2.3-2.3 2.4-2.4 2.1-3.1-.6-.9-.8-.8-2.5.4m32.6 0c-1.6 1.2-7.7 8.7-11.2 13.9-.8 1.1-2.2 2.9-3.1 4.1-4.5 5.4-10.9 15.4-11.7 18.2-1.5 5.2-1.2 8.2 1 10.6 1.1 1.2 2.9 1.8 2.9 1 0-.1-.1-.3-.3-.3-2.2 0-4.3-5.8-3.1-8.7.6-1.4 1-1.2 1 .6 0 3 2.1 5.5 4.6 5.3h1l-1.3-.4c-4.9-1.4-3-8.9 5.4-22.3 1.2-2 5-7 9.3-12.5 7.3-9.4 8.8-12 5.5-9.5m133.1-.2c-.2.4-.8 1.3-1.3 2.1-.5.7-1.6 2.9-2.5 4.8-1.3 2.7-1.8 3.5-2.1 3.4-.5-.1-9.9 2.9-13.9 4.6-5.2 2.1-12.3 4.2-13.3 4-.6-.2-.6-.1-.5.7.1.5.3 1.9.5 3.2.5 3.4 1.5 9.7 1.8 10.4.1.3.2.3.4.1s.4-.2.7.1.7.4 1.9.2c3.1-.4 19.4-3.4 21.1-3.9 2.3-.7 2.4-.8 3.6-3 .7-1.2 2.1-3.7 3.2-5.5 2.1-3.6 2.6-4.8 1.9-4.8-.5 0-3.4 4.3-5.9 8.7-.9 1.5-1.7 2.8-1.9 2.8-.5.2.1-2 .8-2.8.4-.4.7-.9.7-1.1 0-.5 1.9-4.3 3.2-6.4 2.2-3.5 3.8-7.6 2.6-6.3-.5.5-4.9 7.2-5.8 8.7-2.3 4.1.9-3.5 3.5-8.4 2.7-5 4.3-9.9 1.9-5.7-.6 1.1-1.8 3.1-2.7 4.5-.8 1.4-1.9 3.3-2.4 4.2s-1 1.7-1.1 1.7c-.4 0-.2-2 .3-2.5s1-1.7 3.4-7.1c.5-1.2 1.4-3.1 1.8-4.2 1.2-3 1.3-4.5.1-2.5m98.4 2.7c-6.1 3.4-10.9 6.6-14.9 9.6-1.2.9-3 2.2-4 2.9l-1.8 1.3-9.7.1c-11.2.1-12 .3-11.1 2 .6 1.1 1.3 1.2 12.1 1.1l10-.1 1.2-1.2c.7-.7 2.9-2.5 5-4s4.4-3.3 5.2-3.9c.8-.6 2.6-1.9 4-2.9s3.7-2.8 5.1-4.1c3.9-3.5 3.8-3.5-1.1-.8m-220.9.2c-1 1.4-1 1.2.6 2.6l1.3 1.2 1.1-1c1.4-1.3 1.3-1.5-.4-2.8-1.9-1.4-1.7-1.4-2.6 0m-24.8 3.6c-1.8 2.4-1.8 2.4-.6 3.6 1.2 1.2 1.2 1.2 3.3-1.2l1.6-1.9-1.3-1.1c-1.6-1.4-1.3-1.6-3 .6m-28.4.5c-2.1 1.5-2 1.3-.9 3 1.1 1.6.8 1.6 3 0l1.8-1.4-.8-1.3c-1-1.8-.9-1.8-3.1-.3m49.8.2c-.6.6-1.2 1.1-1.4 1.1-.7 0-.3 1 .7 1.9 2.2 2.1 5.3-.4 3.3-2.6-1.4-1.6-1.4-1.6-2.6-.4m109.4 1.7c-3.1 1.2-6.6 2.7-7.9 3.3-1.3.6-3.4 1.5-4.8 1.9-1.4.5-2.7 1-3 1.1-.4.2-1 0-2.7-.9-2.1-1.1-2.3-1.1-2.7-.7-.6.6.2 1.4 2.9 2.8l2 1.1 4.2-1.5c2.3-.8 5.9-2.2 8-2.9 2.1-.8 5.7-2.1 8.1-2.9 2.4-.8 4.4-1.7 4.5-1.8.1-.2-2.6-1.7-2.9-1.6-.1-.3-2.6.7-5.7 2.1m-99.3.1c-.2.2-.3.4-.3.6s-.7 1.2-1.5 2.3l-1.5 2 .6.6c.3.3.9.9 1.3 1.1l.7.5 1-1.5c1.8-2.8 2.3-4 2-4.6-.6-1.3-1.6-1.7-2.3-1m-66.8 2.9c-1.8 1.2-1.8 1.3-.6 3.2l.9 1.5 1.4-1c.8-.5 1.5-1.1 1.6-1.2.2-.1-1.5-3.5-1.8-3.4.1-.1-.6.2-1.5.9m45.7 1.6c-7.1 7.2-16.4 20.9-16.4 24.1 0 4.2 6.6 2 10.1-3.3 1.2-1.8 3.4-4.6 6.3-8 1.2-1.4 3.5-4.4 5.1-6.6l2.8-4-1-.7c-.5-.4-1.7-1.4-2.7-2.1-2-1.9-1.8-1.9-4.2.6m-15.8.5c-1.3 1.9-1.3 1.8 0 2.9l1 .9 1.2-1.7c1.5-2 1.4-1.8.4-2.8-1.1-1.1-1.3-1.1-2.6.7m-35.8 2c-.6.4-1.2.9-1.4 1-.4.2 1.4 3.5 1.9 3.5.3 0 3.1-2 3.1-2.2 0-.4-1.9-3.1-2.2-3.1-.2 0-.8.3-1.4.8m147.8 7c-.4 8.9-.6 8 2.3 9.7 3.8 2.3 3.7 2.4 3.9-5.6.2-8.7.4-7.9-2.3-9.5-1.3-.8-2.6-1.6-2.9-1.8-.6-.5-.6-.5-1 7.2m30.9-2.5l-.1 5.1-.9.2c-.5.1-2.6.6-4.7 1.1-4.3 1.1-8.6 1.9-10 1.9-.5 0-1.3.1-1.8.2-1 .2-.9.4-1.5-4.6-.3-3.2-.2-3.8.8-3.8.2 0 1.7-.4 3.2-.9 2.6-.9 14.3-4.3 14.7-4.4.3 0 .4 2.4.3 5.2M127 232.9c.5.6.2 2.1-.5 2.3-.8.3-2-.8-1.7-1.6.4-1 1.5-1.5 2.2-.7m227.3.7c-.5.5 0 2.4.8 2.9.3.2-3.6 3.4-6.1 4.9-1.2.7-3.3 2.2-4.8 3.2-7.1 5.1-8.1 5.5-10.6 4.8-13.6-3.6-28.7-.2-37.8 8.5-.7.6-1.5 1.4-1.9 1.7-.4.3-1.7 1.9-3 3.5-5.2 7-6.4 9.6-8 17.4-.9 4.4-.9 4.5.6.4 1.6-4.4 4.2-10 5.5-12 2.2-3.3 8.9-9.4 12.7-11.6.9-.5 2.2-1.3 2.9-1.7.7-.4 2.4-1.3 3.8-2 1.9-.8 2.5-1.2 2.1-1.3-.3-.1.3-.4 1.8-.7 5.8-1.5 13.2-1.5 19.9-.1 4.6 1 5.1.9 7.8-.8l1.3-.8.6.5c.3.3 1.6.9 2.8 1.3 4.5 1.6 11.6 7.4 13.5 11 .9 1.6 1.9 2.9 2.5 2.9.2 0 1.2.8 2.1 1.9 2.3 2.4 3.1 2.4 2.1-.1l-.4-.9 1-.2c6.7-1 6.6-2.8-.2-2.8-2 0-2.5-.1-2.8-.5-.2-.3-1.1-1.4-2.1-2.6-3.3-4.2-8.6-9-10.6-9.6-.3-.1-1.8-.8-3.3-1.5l-2.7-1.3 4.6-3.3c2.5-1.8 5.4-4.1 6.4-5l1.8-1.8v-2c0-1.1-.1-2-.2-1.9-.1 0-.5-.2-.9-.5-.7-.3-.8-.3-1.2.1m-216.7 2.8c-1.5 1.9-1.7 2.2-1.1 2.2.2 0 .8.4 1.4.9.6.5 1.1.9 1.2.9.2 0 3.2-4 3.1-4.1-2.8-1.9-2.9-1.9-4.6.1m110.1-1.2c-1.2.4-1.4.6-2.3 2.5-1.8 3.8-1.8 4.5-.3 4.1.8-.2 1-.5 2.2-3.2 1.5-3.2 1.6-3.7.4-3.4M103 237.8c-1.6 2.2-1.6 2.2-.3 3.3 1.4 1.1 1.4 1.1 2.7-.9 1-1.5 1.1-1.8.7-2.1-.2-.2-.6-.7-.8-1.1-.5-1.2-.8-1.1-2.3.8m140.1-1.2c-1.5.4-4.3 5.5-3.3 6.1.9.5 1.6-.2 3.1-3.1 1.7-3.2 1.7-3.4.2-3m-176.5 1.5c-.7.9-1.4 1.7-1.4 1.8s.7.7 1.6 1.4l1.7 1.2.5-.8c.3-.4.9-1.2 1.4-1.8l.9-1-1.4-1.2c-1.8-1.5-1.7-1.5-3.3.4m56.9-.7c.4.4.4 1.7-.1 2.1-.5.4-1.6.1-2-.6-.6-1.1 1.2-2.5 2.1-1.5m124.8 1.5c-.7 1.7-.9 2.5-.6 2.5 1.6 0 2.1-1.1 1.5-3.6-.2-.9-.2-.7-.9 1.1m-9.6-1c-.7.3-.9.6-2.2 4-.8 2-.8 2 .4 1.8.9-.2 1.1-.4 2.1-3.3 1.1-3 1.1-3-.3-2.5m-3.5 1.2c-1 .2-1 .3-.9 1.2.1.5.2 1.2.2 1.4 0 .9.4.5 1.1-1.2.9-1.9.9-1.9-.4-1.4m32.2 1.3c-.7.5-3.5 3-6.1 5.6s-5.2 5.1-5.8 5.5c-1.7 1.5-14.3 5.9-19.9 7-1.4.3-2.8.6-3 .7-.2.1-.5 0-.6-.1-.1-.2-.5-.3-1-.3-.4 0-1-.1-1.3-.3a66 66 0 0 0-5.9-2.2c-1.6-.5-1.6-.5-1.6 10.7 0 11.8.1 12.4 1.7 14.9 1.3 2 2.5 2.7 2.2 1.1-.4-1.5-.2-5.8.2-7.2.9-2.7 1.1-4.2.8-5.7-.5-2.5-.4-3.2.6-3.7.5-.2 1.6-1 2.5-1.6s2.6-1.6 3.8-2.1l2.2-1 1.3 1c1.9 1.3 2.4 1 1-.6-1.3-1.6-.2-1.8 1.8-.4 1.9 1.3 2.2 1 .8-.7l-.8-1 .8-.3c.7-.3.9-.2 2.7 1.3 3.9 3.3 4.7 2.7 1.2-1-1.2-1.3-1.3-1.4-.7-1.5.7-.2.5-.3 4.6 3.5 4.4 4.1 4.1 2.5-.5-2.7-1.1-1.2-1.2-1.6-.9-1.8.8-.5 1.3-.2 3.5 2 3.4 3.4 4 3 1.1-.7-1.3-1.6-1.6-2.3-1.4-2.4.6-.4 1-.2 2.2 1.1 2.1 2.3 3.2 1.4 1.2-.9l-1.1-1.2.7-.4c.7-.4.7-.4 1.2.3.6.7 1.6 1 1.6.3 0-.2-.2-.6-.5-.9l-.5-.6 2.3-2.5c1.3-1.4 4.2-4.3 6.5-6.6 5.1-5.1 6.2-6.6 3.1-4.6m-147.5 1.5c1 1.1-.5 2.8-1.7 2-.6-.4-.8-1.7-.2-2.2.5-.6 1.4-.5 1.9.2m11.8 2c-1.5 1.6-1.7 2-1.3 2 .3 0 1.1.5 1.8 1.2l1.3 1.2 1-1.5c.6-.8 1.2-1.8 1.5-2.2l.5-.7-1.5-1c-1.6-1.3-1.1-1.3-3.3 1m-32.9 0c-2.1 2.6-2 2.8.5 4.2l.8.5 1.2-1.9c.6-1.1 1.2-2 1.2-2.1.1-.2-2.2-1.9-2.5-1.8-.2-.2-.7.4-1.2 1.1m-35.9 0c-.8 1.6-1.3 3.9-.9 4.1.4.2 2.6.9 3.5 1.1.4.1 1.5-2.6 1.8-4.3 0-.1-2.7-1.3-3.4-1.5-.5-.1-.7.1-1 .6m53.6 2.3c.8.8.3 2.2-.9 2.2-1.3 0-1.8-1.2-.9-2.2.5-.4 1.2-.4 1.8 0m10.7 3c-.5.6-2.6 3.7-2.6 3.9 0 .3 3.5 2.9 3.7 2.7.1-.1.8-1.2 1.6-2.3l1.4-2-.9-.6-1.8-1.4c-.9-.6-1-.6-1.4-.3m-32.3 2c-1 2.7-1 2.8.8 3.3.8.2 1.7.5 1.8.5.3.1 1.4-3.8 1.2-4-.3-.2-2.9-1.8-3-1.8-.1.2-.4.9-.8 2m-31.3.4c-1.9.8-2 .8-1.8 1.6.1.9 1.1 3.5 1.5 4.1.4.5 3.6-1.2 3.3-1.8-.4-.9-.6-2.3-.6-3.6-.1-1.5.1-1.5-2.4-.3m49.3-.4c.7.4.7 1.5-.1 2-1.2.8-2.4-.4-1.6-1.7.4-.6.9-.7 1.7-.3m134.2.7c-.3.1-2.5.7-4.9 1.3-6.8 1.8-8.4 2-11.6 1.4-4.5-.8-4.8.7-.3 1.8l2.5.6 7.8-2.6c4.3-1.4 7.9-2.6 7.9-2.7.2.1-.7.1-1.4.2m76 2.2c-.7.1-2 1.6-4.1 4.7-2.5 3.6-2.8 2.7-.7-1.7.6-1.2 1.1-2.3 1.2-2.4.1-.2-1.5.1-3 .6-1 .3-1.1.5-2.9 4.1-1 2-2 3.7-2.1 3.6-.5-.2-.2-2.8.6-4.6.9-2.2.9-2.2-.6-1.7-1.3.4-2.4 2-4 6-2.1 5.2-2.9 3.6-1-1.9.8-2.4.7-2.5-.7-1.7-1.2.7-2.5 3.9-3.3 8.3-.4 1.9-.9 2.8-1.2 1.9-.3-.7.1-5.1.5-6.7.5-1.7.3-1.7-1.1-.4-1 1-1 1.1-1.5 4.2-1 7.4-1 7.2-1.6 6.6-.2-.2-.3-1.4-.3-3.9v-3.6l-1.1 1.1-1.1 1.1-.2 4.6c-.2 6-1.2 6.3-1.6.6-.2-2.8-.2-2.8-1.2-1.2l-.7 1.2.7 5.4c.7 5.4.7 6.1-.1 5.3-.5-.5-1.9-5.7-1.9-6.9 0-1.1-.5-.9-1.1.4-.5 1.2 0 5.4 1.2 8.7.5 1.5.5 1.8 0 1.3-.6-.5-1.5-2.4-2.3-4.6l-.6-1.9-.4.9c-.8 1.9-.1 5.3 2 9.4.5 1 .8 1.9.7 2-.5.5-2.2-1.6-3.5-4.1l-.8-1.5-.3 1.9c-.4 2.3.2 3.6 3 6.6 1.7 1.8 2.2 2.8 1.4 2.8-.4 0-2.5-1.7-3.8-3.2l-.9-1 .1 1.4c.1 1.7 1.6 3.8 3.7 5.3 1.3.9 1.7 1.7.9 1.7-.7 0-2.1-.7-3-1.4l-.9-.7v.8c0 .9 2.4 3.4 4.3 4.6 1 .6 1.2.9.8 1.2-.2.2-2.2-.5-3.4-1.3-1.3-.8-1.3-.8-1 .3.3 1.2.7 1.7 3.4 3.5 3 2 2.8 2.7-.3 1.3-.8-.4-1.6-.7-1.6-.7-.6 0 2.6 5.4 5.5 9.3 4.1 5.5 12.3 12.2 16.7 13.7.6.2 1.4.5 1.7.8.6.4 6.5 2.4 8.3 2.8.4.1 1.1.1 1.5-.1s1.8-.2 3.4-.1c2.2.2 3.2.1 6.3-.5 6.4-1.2 6.7-1.4 1.6-1.2-6.8.2-9.8-.3-14.9-2.8-14.2-6.9-19.4-12.1-24.6-24.7-4.2-10.1-.5-25.5 8.3-34.3 2.6-2.6 8.8-6.9 9.9-6.9.4 0 1.9-.5 3.5-1.1 11.7-4.5 23.6-3.5 32.5 2.9 1.1.8 2.2 1.5 2.4 1.6.7.2 6.7 5.2 8.4 6.9 1.6 1.6 1.6 1.6 1 .5-1.2-2.2-3.3-4.7-5.7-6.7-1.3-1.1-3.4-2.9-4.6-3.9s-3.3-2.7-4.8-3.6l-2.6-1.8-.9.6c-2.1 1.4-2.6 0-.7-1.9.7-.7 1.2-1.3 1.1-1.3-.1-.1-.6-.3-1.1-.5-1.2-.5-.9-.6-3.4 1.5-1.5 1.3-1.9 1.5-2.3 1-.2-.3.4-1.3 1.8-2.8l1.1-1.2-1.2-.5-1.2-.5-.9.7c-.5.4-1.6 1.5-2.5 2.4-3 3.3-3.6 1.6-.7-2 1.3-1.6 1.3-1.8-.6-2l-1.4-.2-2.1 2.8c-2.1 2.9-2.4 3.1-2.7 2.4-.2-.5.4-1.8 1.7-3.7.5-.8.9-1.5.9-1.5-.2-.6-2.3-.6-3.3-.4m-237.6 2.8c-1.6.9-1.6.8-.7 2.4.8 1.5.9 1.5 2.7.3l1.4-.9-.9-1.2c-1.1-1.6-.9-1.6-2.5-.6m35.5.6c-2.6 2.8-2.5 2.3-.6 4.4 2.1 2.2 1.8 2.2 3.1.5a27 27 0 0 1 1.8-2.2l.8-.8-1.8-1.6-1.8-1.6-1.5 1.3m-54.9.7c-1.2 1.9-1.2 2 .1 3.2 2.3 1.9 2.4 1.9 3.2.1l.7-1.6-.6-.4c-.8-.5-1.6-1.4-2.1-2.1l-.4-.6-.9 1.4m27.2-.3c-.3.8-.4 3.6-.2 4.4l.2.7 2-.9 2-.9.1-1.4.1-1.4-1.3-.2c-.7-.1-1.6-.3-2-.5-.7-.2-.8-.2-.9.2m-13.6 1.5l-1.8.7.4 1c.2.5.5 1.3.7 1.7.2.5.4.7.7.6 4-1.5 3.8-1.3 2.8-3.7-.4-1.2-.4-1.2-2.8-.3m-7.5 2.4c.1.7.2 1.5.2 1.9 0 .6.1.6 1.9.6h1.9l-.2-1.5c-.1-.8-.2-1.7-.2-1.9s-.6-.3-1.9-.3H72l.2 1.2m44.1 1.2c-.3.3-.8 1-1.2 1.4l-.7.8 1.1 2 1.1 2 .7-.5c.4-.3.9-.8 1.2-1.1s.9-.8 1.3-1l.7-.4-1.7-1.7c-.9-1-1.7-1.9-1.7-2 0-.3-.3-.1-.8.5m-20.2 1.5c-2.2 1.2-2.3 1.7-.4 3.9.9 1.1 1 1.1 2.4-.6l1.2-1.5-.6-1.3c-.7-1.5-.7-1.5-2.6-.5m148.2.7c-.5.9-1.1 3.2-.9 3.4.1.1 1 .2 2 .4 1.2.1 2.6.6 3.7 1.1 2 .9 2 .9 2.6-1 .6-1.7.6-1.7-3-3.4-2.9-1.3-3.9-1.5-4.4-.5m-9.6.3c-1.8.5-3.2 1.2-4.2 1.9l-.9.7.2 1.8c.3 3.4.7 3.7 2.8 2 .6-.5 1.7-1.1 2.4-1.4 3.4-1.2 3.4-1.2 2.6-4.1-.5-1.4-.7-1.5-2.9-.9m88.7 1.6c-2.3.3-3.6.7-4.1 1.3-1.5 1.6-4.5 6.6-4.5 7.5 0 .2.6 0 1.8-.6 1-.5 2.2-1 2.7-1.2.6-.2 1.1-.6 1.4-1.1.3-.4 1.7-2 3.1-3.5l2.6-2.7h-1.1c-.6.2-1.5.2-1.9.3m-213.6 1.3l-1.6.8.4.9c.2.5.4 1.4.4 2.1.1 1.2.1 1.2.8 1 1.1-.2 3.6-1.5 3.6-1.9 0-.4-1.7-3.9-1.9-3.8 0 0-.8.5-1.7.9m219.5 0c-.8.5-2.4 1.7-3.6 2.7l-2.1 1.8h3.4c2.6 0 3.5-.1 4-.4 1.5-1 4.2-2.2 5.9-2.6l1.9-.5-1.1-.4c-4.2-1.8-6.3-1.9-8.4-.6m-228 .1c-.2.4-.7 1.2-1.1 1.9l-.6 1.2 1.8.8c1 .4 2.2.9 2.8 1l1 .1-.1-2.4-.1-2.4-1.2-.3c-.6-.2-1.4-.4-1.6-.5-.3-.1-.6.1-.9.6m210.8 2.5c-2.4 1.4-5.8 4-6 4.7-.5 1.2-.7 4.8-.4 7.1.1 1.4.3 2.7.3 2.9s.6-.6 1.3-1.7c.7-1.2 2-2.9 2.9-3.9 1.3-1.5 1.7-2 2-3.4.2-.9 1-2.9 1.6-4.3 1.4-3.3 1.3-3.3-1.7-1.4m-73.8.9c-4.8 1.3-7.8 3.5-8.3 6.2-.2.8-.5 2-.7 2.6-.2.6-.5 1.8-.7 2.8s-.5 2.6-.7 3.7c-1.1 5.3-.2 11.3 2.2 14.1 1.3 1.5 2 .5 2-2.8 0-1.6.1-2 .6-2.6.3-.4 1-1.4 1.5-2.3 1.1-1.9 3-4.1 4-4.6 1.1-.5 5.8-1.6 6.4-1.4 1.1.3.5-.4-.7-.9-3.3-1.4-11.5 3.1-13 7.1-.5 1.4-1 1.4-1 0 0-1.8 1.2-3.8 3.7-6.3 4.5-4.6 10.7-5.9 15.5-3.4 1.8.9 2.3.6 1-.7-1-1-3.2-1.8-5.7-2.1l-1.4-.2.4-.6c.8-1.2 3.9-.8 7.5 1 2.3 1.1 2.8 1.2 2 .3-1.2-1.4-5.9-3.5-7.8-3.5-.8 0-1-.4-.5-1 .5-.7 5.7.5 7.7 1.7.8.5 1 .3.5-.5-.6-.9-4.5-2.8-6.1-3-1.3-.1-1.9-1.1-.7-1.1.3 0 .6-.2.8-.4.6-.7 2.2-.1 5.4 2 2.7 1.7 3 1.1.6-1.1-3.7-3.4-9-4.4-14.5-3m99.8.6c-1.6.2-3.9 1-3.9 1.3 0 .1.6.4 1.3.7.7.3 2.4 1.1 3.7 1.9 1.7 1 2.7 1.5 3.8 1.6 2.4.3 5.9 1.4 7.5 2.4.8.5 1.5.8 1.5.8 0-.9-4.8-6.4-7-8-1.2-1.1-3-1.2-6.9-.7m-13.3 3.9c-.1.1 0 1 .2 2s.4 2.4.4 3.2v1.4h1.2c.6 0 1.7.1 2.3.2l1.2.2.5-3.1c.3-2.2.4-3.2.2-3.4-.3-.4-5.7-.8-6-.5m-5.1 1.1c-.6.2-1.8.8-2.9 1.3l-1.9 1 1.6 1.8c.9 1 1.9 2.2 2.3 2.7l.8.9 1.3-.7 1.4-.8c.1 0-.1-.9-.3-1.9-.2-1-.6-2.4-.7-3.2-.2-.8-.4-1.4-.5-1.4 0-.2-.5 0-1.1.3m14.3 1.9l-.8 3.1c-.5 1.5-.5 1.6-.1 1.9.2.1 1.1.8 1.9 1.4l1.5 1.2 2.4-2.4c1.3-1.3 2.4-2.4 2.4-2.5 0-.5-5.8-4.2-6.6-4.2-.3 0-.6.6-.7 1.5m-32.8 2.6c-2.1 3.7-2.2 5.1-.9 9.1.5 1.3 3.1 6.3 3.3 6.3.4 0 0-6.9-.6-9.3-.4-1.5-.8-3.9-.9-5.2l-.2-2.4-.7 1.5m11 .1c-.5.5-1.3 1.5-1.9 2.3l-1.1 1.4 1.6 1c.9.5 2.3 1.3 3.1 1.8l1.5.9 1.1-1.4 1.1-1.4-2.1-2.7c-2.5-3-2.3-3-3.3-1.9m33.3-.3c.2.4 1.4 2.9 2 4.4.4.8.8 1.5.9 1.4s.3.1.4.5c.1.3 1.2 1.6 2.5 2.9 1.5 1.4 2.8 3.1 3.7 4.5l1.4 2.3V296c0-4.3-.8-7.1-2.3-8.8-2.5-2.7-9.4-7-8.6-5.4m-125.2 1.3c-2.2 4.7.9 13.3 6 16.9l.7.5-.6-1.6c-1.2-3-1.4-7.9-.5-10.3.1-.2-.5-1-1.2-1.9-.8-.9-1.6-2.3-2-3.2-.9-2-1.6-2.3-2.4-.4m122.2 3.4c-.5.4-1.7 1.2-2.6 1.8-1.1.7-1.6 1.1-1.5 1.4 1.3 4.1 1.6 4.6 2.1 4.4.3-.1 1.8-.3 3.4-.6 1.5-.2 2.8-.5 2.9-.5.5-.4-2.3-7.3-2.9-7.3-.3-.1-.9.3-1.4.8m-18.6.5c-8.7 2.8-8.6 14.8.1 17.6 5.2 1.6 10.7-1.2 12.2-6.2 2.1-7.3-4.9-13.9-12.3-11.4m-16.3 2.5c-.3.6-1.2 5.1-1.1 5.2s1.7.2 3.7.3l3.6.2.2-.8c.4-1.8.3-1.9-1.6-2.8-1-.5-2.4-1.2-3.2-1.7-1.3-.8-1.4-.9-1.6-.4m-26.1 2c0 .7.1 1 .1.6.1-.4.1-1 0-1.3-.1-.3-.1.1-.1.7m-42.6 1c-2.7 1-4.8 4-5.6 7.9-.3 1.2-1 3.7-1.6 5.6-2.1 6.2-2.8 10.4-2.8 16 0 16.1 3.9 24.5 16.5 35.4 3.7 3.2 4.6 3.5 2 .6-.9-1-1.6-1.9-1.5-1.9s.8-.6 1.7-1.1c1.7-1.1 2.9-2.4 3.2-3.6.3-1 0-.9-1.5.4-3.1 2.9-4.8 3.1-6.6.9-1.6-2-1.6-2-.5-2.2a5.6 5.6 0 0 0 3.6-3c.8-1.7.8-2.3 0-1.2-2.3 3.1-5.2 3.3-7 .6-1.3-2-1.4-2-.3-2.6 1.6-.8 4.1-3.6 3.7-4-.1-.1-.8.3-1.7.9-1 .7-2 1.1-2.8 1.2l-1.2.2-.6-1.1c-.6-1.2-1.6-4-1.5-4.1 0 0 .6-.3 1.3-.7 1.8-.9 2.6-1.6 3.5-2.7 1.2-1.7.9-2.4-.6-1.3-.4.3-.9.5-1.1.5-.2 0-1.2.3-2.1.7-2 .8-1.9.9-2.3-1.4-.5-2.8-.5-3.2.5-3.7 1.2-.6 5.1-3.7 4.8-3.8-.2-.1-3.6.8-5.8 1.4-.4.1-.5-.1-.5-2.2v-2.4l2.2-2c1.2-1.1 2.4-2.2 2.7-2.3 1.4-.8-.2-.5-2.3.5l-2.5 1.1.2-1.2c.1-.7.2-1.4.3-1.6.2-.6 4.1-3.8 5.3-4.4 2.5-1.2 0-1.4-2.8-.3l-1.4.6.2-.9c.5-2.6.8-3 2.3-4.5 1.1-1 2.1-1.7 3.2-2.1 1.9-.7 2-1.2.1-1.1-1.2 0-2.1.3-4.2 1.4-.3.2-.2-.9.2-2 .7-1.6 5-4.3 7-4.3.9 0 1.2-.5.5-1.1-.6-.5-3.7-.1-4.9.5-1 .6-1 .5-.4-.6.8-1.6 3-3.7 3.7-3.5.5.1.6 0 .6-.3 0-.4.1-.4.9-.3 2.8.7 3.6-.3.9-1.1-1.8-.4-3.5-.3-5 .2m58.6 1.1c-.1.2-.1 1.7-.1 3.2l.1 2.8 1.1 1.3c3.3 4 10 9.1 8 6.1a11 11 0 0 1-1.1-2.4c-.5-1.3-1.1-2.2-2.4-3.6-.9-1-2.5-3.2-3.6-4.8-1.3-2.1-1.9-2.8-2-2.6m52.7 1.9c0 1-.1 3.1-.4 4.6-.4 2.4-.4 2.9 0 4.3.8 3.1.8 5.5 0 9.7l-.2.9.7-.8c2-2.4 4.7-8 4.9-10.3.1-1.4-1.4-5.2-3.3-8-1.7-2.5-1.8-2.5-1.7-.4m-69.2-.7c-.6 1.4-.3 8.7.5 11.1.4 1.2 1 3.5 1.4 4.9.4 1.5 1.1 3.9 1.7 5.5 1.2 3.2 1.2 3.4.1 1.8-.4-.6-1.1-1.5-1.5-1.9-.7-.8-2.8-4.8-3.4-6.6-.2-.5-.6-1.2-.9-1.5l-.6-.5.1 1.6c.2 2.5 3.1 8.2 5.6 11.1.5.5 1.9 2.2 3.2 3.8 2.9 3.5 9.4 8.9 12.9 10.7 3.2 1.7 18.3 7.1 18.6 6.7.1-.1-.6-.4-1.4-.7-7.1-2.4-13.5-5.7-17.4-9-2.1-1.7-9.8-10.9-12-14.1-3.4-5.2-6.4-14.3-6.4-19.7.1-2.2-.2-4-.5-3.2m-63.6 4.1c-.8 1.7-1.9 4.1-2.4 5.4-.5 1.2-1 2.4-1.2 2.5-.1.1-.2.6-.2 1.1 0 .4-.2 1.6-.4 2.5-3 12.8-.3 26.7 6.7 33.8 3.3 3.4 6.2 5.2 3.5 2.2-1.3-1.4-4.5-6.1-4.4-6.3.1 0 .8.2 1.7.5 1.8.7 4.1 1.1 4.1.7 0-.1-.3-.4-.7-.6-3.9-1.6-8.6-7-8.6-9.9 0-.1.9.3 1.9.8 2 1.1 4.7 2 5 1.7.1-.1 0-.2-.1-.3-.1-.1-.6-.3-1-.6s-1.4-.9-2.1-1.4c-3.1-2-4.5-4.4-4.5-7.5 0-2.2.1-2.4.9-1.5.8.8 5 3.9 5.8 4.2 1.6.6 2.1 0 .7-.9-.5-.3-1-.7-1.3-1.1-4.3-5.1-5.6-7.5-5-9.4l.4-1.3 2.7 2.6c2.5 2.4 3.6 3.2 4 2.8.1-.1-.4-.7-1.1-1.5-.8-.9-1.2-1.5-1.1-1.8.1-.3-.4-1.3-1.2-2.5-2.2-3.3-2.4-4.2-1.6-6.3.2-.6.3-.6 1.6.9 2.1 2.2 3.6 2.5 1.6.3-.6-.7-1.3-1.9-1.6-2.7l-.5-1.4.7-1.5c.9-1.7.8-1.7 1.9-.5 1.8 1.9 2.1 1.1.5-1.3-.6-.9-1.6-2.4-2.1-3.3-1.1-1.9-.9-2.2-2.6 1.6m122.2-1l-.5 2.1c-.5 1.7-.5 1.7 1.3 2.7.8.4 2 1.3 2.7 1.9l1.3 1.1.9-2c.8-1.8 1.9-6 1.7-6.3-.1-.1-1.7-.1-3.6-.2l-3.5-.1-.3.8m-32.4.7c-.6.1-.6.3-.1 2.1.6 2.1 2 4.9 2.4 4.8.2-.1 1.3-.7 2.4-1.4 1.1-.7 2.4-1.5 2.8-1.6l.8-.3-.6-1.5-.6-1.5-1.7-.2c-2.5-.4-4.9-.5-5.4-.4m28.6 6.5l-1.1 1.1 1.2 3c.7 1.7 1.3 3.1 1.3 3.1.3.3 4.9-3.5 4.9-4.1 0-.2-1.2-1.2-2.6-2.4l-2.6-2-1.1 1.3m-36.9.4c1.2 4 3.2 7.1 5.2 8.1 2.4 1.2 11.3 2.8 10.2 1.8-.1-.1-.9-.7-1.6-1.3-.7-.6-1.7-1.4-2.2-1.9s-2-1.4-4-2.2c-3.3-1.4-4.8-2.3-6.7-4.1-1-.9-1.1-.9-.9-.4m17 .4c-4.2 2.3-4.6 3-2.8 4.5 3.7 3.1 3.7 3.1 5.5-.5l1.4-2.9-1.1-.9c-1.4-1.2-1.3-1.2-3-.2m30.5 2.7c-.5.8-1.7 2.3-2.7 3.4-.9 1.1-1.9 2.4-2 3-.6 1.9-2.9 6.4-3.9 7.7-1.2 1.5-1.2 1.5 2.1.1 5-2.1 6.7-5.3 7.5-13.6.2-2.3.2-2.4-1-.6m-16.2-.2c-2.1.6-2 .4-1.6 2.4.2.9.3 2.3.3 3.1v1.4l1.3-.2c1.7-.2 4.3-1 4.4-1.4.1-.2-.4-1.4-1.1-2.7-.7-1.3-1.2-2.5-1.2-2.7 0-.4-.3-.4-2.1.1m-8 .6c-1.4 3-2.1 5.2-1.8 5.4.4.3 2.5.7 4.3.9l1.5.2v-6.6l-1.5-.3c-2.1-.5-2.1-.5-2.5.4m13.9 8.4c-1 .4-2.8 1-4.2 1.3-2.4.5-2.5.5-3.9 2.1-1.6 1.7-3.9 3-6.2 3.8-1.8.5-1.6.7 1.4 1.1 7.2 1 10.4-.8 14.3-7.5.9-1.8.9-1.8-1.4-.8m-29.9 0c0 .3 3.8 3.3 5.3 4.2 2.5 1.5 8.9.9 12.6-1.3 1.7-1 1.7-1-.5-1.3-.9-.1-2.5-.5-3.4-.8-1.4-.4-2-.5-3.6-.2-2.2.3-6.1.1-8.7-.4-.9-.2-1.7-.4-1.7-.2m1.6 24.1c0 .1.4.3.9.4.5.2.7.2.6.1-.3-.4-1.5-.8-1.5-.5M221.6 352c-.3.4 0 2.4 1.8 11.4.5 2.6.7 4.2.7 6.5 0 3.1-.2 4.2-1.8 12.1-.8 4-.9 4.9-.9 7.8.1 4.8.4 4.6 2.6-1.5.8-2.1 2.2-5.5 3.2-7.5s2.1-4.5 2.5-5.6.9-2.3 1.1-2.7c.4-.7.2-6.2-.3-11-.1-1.1-.8-2.1-4.4-7-.7-.9-1.4-2-1.7-2.3-.4-.8-2.2-1-2.8-.2"/></svg>