<svg xmlns="http://www.w3.org/2000/svg" viewBox="0 0 400 400"><path d="M293.1 33.3c-1.6.6-3.1 2.6-3.8 5.3-.2.9-.8 2.7-1.2 4-.7 2.4-1.1 3.8-1.3 5 0 .3-.3 1.5-.6 2.6s-.7 3.7-1.1 5.7c-.3 2-.8 4.7-1 6.1-.3 1.3-.5 3.3-.6 4.3-.1 1-.2 2.6-.3 3.5-.1.9-.2 2.3-.3 3.1-.1.8-.3 2.3-.5 3.2-.2 1-.5 2.5-.7 3.3-.6 3.5-2.2 7.6-4.4 11.7-2.3 4.3-3.2 7.6-3.3 12.2-.1 2.2-.3 2.7-.7 1.7-.2-.3-.3-.5-.5-.4-.4.1-.9-.5-1.5-1.7-.5-1-1-1.2-.7-.4.2.9.2 3.7-.1 4-.2.2-.3 0-.4-.9-.3-2.5-1.1-4.3-1.1-2.4 0 1.8-.8 4.6-1.6 5.5-.2.2-.3.3-.3.2.4-.8 1-4.6.7-4.6-.1 0-.2.3-.2.6 0 1.8-2.8 6.7-3.8 6.8-.3 0-.7.2-.9.3-1.9 1.8-6.3 1.4-8.7-.8-.8-.7-1-.3-.2.8l.5.8-.6-.5c-.3-.3-1.1-1.2-1.7-2.1-1-1.4-1.7-1.9-1.3-.8.1.2 0 .2-.1.2-.1-.1-.2-.4-.2-.6 0-.9-1.3-4.3-1.5-4.1-.1.1-.2.8-.2 1.6l-.1 1.5-.3-.7c-.2-.4-.3-1.1-.3-1.7 0-1.2-.2-.9-.7.7l-.4 1.3.1-1.3.1-1.3-.4.5c-.2.3-.6.7-.8 1l-.4.5.1-.6c.1-.3.2-.7.3-.8.5-.5.2-1.1-.6-1.1-.7 0-.8.1-1.3.8-.3.4-.7.8-.9.8-.2 0-.3.1-.2.2.1.2-.8 1.9-1.2 2.1-.2.1-.3 0-.2-.2 1.2-3.2.5-6.3-3.4-14.4-1-2.1-2.1-5.1-2.1-5.7 0-.1-.4-1.3-.8-2.6s-1-3.3-1.2-4.3c-.2-1-.5-2.7-.7-3.6-.2-1-.4-2.4-.5-3.2-.1-.8-.2-2.2-.3-3.1-.1-.9-.2-2.5-.3-3.5-.1-1-.3-3-.6-4.3-.3-1.3-.7-4.1-1-6.1-.3-2-.8-4.5-1.1-5.7-.3-1.1-.5-2.3-.6-2.6-.2-1.1-.5-2.6-1.3-5-.4-1.3-.9-3.1-1.2-4-1.6-5.7-5.9-7.3-9-3.4-1.1 1.4-1.1 1.6-.6 3.9.2.8.4 1.8.5 2.3l.1.8-.5-.8c-1.3-2-2.3-1.7-4.7 1.3-.9 1.2-1.1 1.9-.6 2.6.6.9.6 1.2-.1 1.1-.3 0-.7 0-.9.1-.3.2-1.4 4.5-1.6 6.2l-.1 1 1 .6c.6.3 1.6 1.2 2.3 1.8 1.5 1.4 1.2 1.4-1.6 0l-1.9-1v1c0 .9.1 1.1.6 1.6.6.6.6.7.3 1-.3.3-.4 1.2-.2 1.3.1.1.6.6 1.1 1.2l.9 1.2H209l-.1.9c-.1.5-.1 1 0 1.1.1.1.1.9 0 1.7-.5 4.8-.4 10.7.2 11.4.1.1.2.4.3.7.1.3.3.5.4.5s.3.1.3.1c0 .2-1.4 1.2-1.6 1.2-.9 0-4.8 4.1-5.7 6-1.1 2.4-1.2 6.1-.1 6.7 1.4.7 3.4.3 2.5-.5-.4-.4-.1-3.5.4-4.9 1.4-3.3 4.6-6.9 6.2-6.9 1.2 0 2.3-1.8 1.4-2.3-.1-.1-.1-.4 0-.7l.1-.5.4.7c.8 1.7.6 3.6-.4 3.6-1.7 0-2.8 1.5-2.5 3.3l.2 1.2-.9.9c-4.1 4.1-5.9 9.1-4.6 12.7.9 2.5 5.1 2.9 7.4.7 1.2-1.1.2-1.6-1.7-.7-.5.3-.8.3-.9.1-.1-.1-.4-.2-.7-.2-1.2 0-1.7-1.8-1.1-4.5.8-4 2.8-6.9 5.7-8.3 1.2-.6 1.5-1.7.5-2.2-.3-.2-.3-.2-.1-.4.1-.1.2-.4.2-.6 0-.8.4-.3.9 1.2.7 2.1.4 2.9-1 2.9-.2 0-.4.1-.4.1 0 .1-.3.3-.6.5-.6.4-1.2 1.3-1.2 1.7 0 .1 0 .4-.1.6-.6 1.3.6 4.9 3.4 10.9 2.8 5.9 3.1 6.2 4.9 4.4 1-.9 1.1-2 .3-2-.1 0-.2 0-.1-.1.5-.5 2.8 2.8 3.1 4.4.1.6.3 1.1.4 1.1.2.1 0 .3-.5.8-.4.4-.9 1-1.1 1.5-.2.5-.5.8-.6.8-.4 0-.2 1.1.2 1.5.7.6 1.8.8 4.2.8 5.6-.1 7.7.9 9.7 4.1.6.9 1.1.8 1-.3-.1-1 .3-3.6.9-5.2.3-1 1.3-2.3 1.1-1.6-1.3 6.4-.7 11.5 1.7 15 1.6 2.4 6.2 6.9 8.3 8.2 1.1.7 3.8 2.8 4.9 3.8.7.7 1.3.7 1.5.2.2-.5 1.2-1.1 2.2-1.3l.8-.1-.6.4c-.8.5-1.3 1.4-1.1 1.8.1.2.2.5.2.7 0 .7 2.9 2.2 4.4 2.2.7 0 3.1-2.9 3.1-3.7 0-.3-1-1.2-1.2-1.2-.1 0-.4-.1-.6-.3-.7-.6 1.5-.2 2.5.4.6.4.9.5 1.1.3.6-.3 4.4-4.4 4.4-4.7 0-.2 1.8-2.7 2.4-3.3 2.5-2.5 5.7-8.3 6.6-11.9.3-1.4.1-7.1-.5-9.3-.1-.3 0-.3.3.1.5.6.9 2 1.1 3.4.1.5.1 1 .2 1.1 0 .1.1.7.1 1.5l.1 1.4 1.2-1.2c2.4-2.4 4.3-2.9 7.4-2.2 1.5.4 1.7.4 2.5.1.9-.3.9-.1.3-2.9-.7-3.4 0-6.1 2-7.8.9-.8.9-.7 0 1.2-1.3 2.7-1.3 3.2.2 6.6 2.6 5.8 2.5 16.7-.2 20.7-2.3 3.5-3.9 4-6 2-2.9-2.7-4.1-10.8-2.4-16.5.6-1.9 0-1.8-.7.1-1.8 5.3-1.2 13.9 1.2 18 2.2 3.6 7.4 3.9 10.2.7 4.6-5.3 4.5-19.6-.2-26-.7-1-1.2-1.8-1.4-2.6l-.1-.5.6.4c.7.5.9.4 1.2-.5.1-.4.5-1.3 1-1.9 3-4.6 6.3-13.5 5.6-15-.1-.2-.1-.5-.1-.6.1-.4-.6-1.3-1.2-1.7-.3-.2-.6-.4-.6-.5 0-.1-.2-.1-.4-.1-1.4 0-1.7-.8-1-2.9.5-1.5.9-2 .9-1.2 0 .2.1.5.2.6.2.2.2.3-.1.4-1 .5-.7 1.6.5 2.2 3 1.4 4.9 4.2 5.7 8.3.5 2.7.1 4.5-1.1 4.5-.2 0-.5.1-.7.2-.2.2-.4.1-.9-.1-1.9-.9-2.9-.4-1.7.7 2.3 2.1 6.4 1.8 7.4-.7 1.4-3.6-.4-8.7-4.5-12.7-.8-.8-.9-.9-.6-1.3.7-1.1 1.3-4.5.8-4.7-.6-.4-1.9-1.6-1.8-1.8.1-.2 1.3.4 1.7.8.4.4.5.1.5-1v-1.2l-1.6-.8c-.9-.4-1.8-1-2.1-1.2l-.5-.4h4.8v-2.6l-1-.4c-1.2-.4-1.2-.6.1-.6h.9l-.1-2c0-1.1-.1-2.7-.2-3.5-.1-1.1-.1-1.5.1-1.8.4-.5.4-.5-.8-.9-.6-.2-1.2-.5-1.3-.6-.1-.1-.3-.3-.5-.3s.1-.5.7-1.2c1.3-1.7 1.3-1.6 1.2-2.2-.1-.5-.2-.5-1.1-.5-1 .1-1.1-.2-.1-.5 2-.6 2.2-1.4 1.6-5.4-.7-4.7-1.4-6.5-2.4-6.4-.7.1-.7-.2-.1-1.1.5-.7.3-1.4-.6-2.6-2.4-3-3.3-3.3-4.7-1.3l-.5.8.1-.8c.1-.4.3-1.5.5-2.3.5-2.2.5-2.5-.6-3.9-1.5-1.5-3.6-2.3-5.3-1.6m3.4 3.1c.4.3.6.6.4.5-.5-.3-1-.1-1.6.7-1.2 1.7-1.6 2.7-2.7 6.9-.3 1-.8 3-1.3 4.2-.9 2.8-1.3 4.5-1.7 8-.2 1.4-.4 2.9-.5 3.3-.3 1.3-.7 9.4-.6 12.6.1 2.4.1 3.7-.1 5.5l-.2 1.8.6.7c1.6 1.8 2.2 3.5 3 8.6.8 4.8-.5 11.7-2.7 14.5-1.1 1.4-1.1 1.4-.6-.1.7-2.1.6-7.9-.1-9.4-.8-1.7-2.1-2.8-3.2-2.8-.5 0-.7 1.4-.4 3.1 1 6.1 1 6.3-1.9 9.9-.4.5-.9 1.1-1 1.3-.3.5-.8-.1-.8-1 0-.6-.4-1.2-.8-1.2-.1 0-.8.5-1.5 1.2-1.3 1.2-1.8 1.4-1.1.4.2-.3.4-.7.4-.8 0-.1.1-.3.2-.4 1.3-.8 2.8-3.4 3-5.4.1-.7.2-1.6.3-2 .1-.5.2-2.8.2-5.7v-4.9l.5-1.1c.5-1 .7-1.7 1-3.9l.3-1.3c.1-.3.2-.8.3-1.1 0-.3.2-1 .4-1.7.5-1.9 1.5-8.1 2-13.1.8-7.3.9-8.3 1.3-9.7.2-.8.6-2.3.8-3.2.9-4.3 1.9-7.4 3.8-11.3 2.3-3.9 3-4.5 4.3-3.1m-75.6 1c1.5.8 4.9 9.1 6 14.8.2 1 .5 2.4.8 3.2.4 1.4.5 2.4 1.3 9.7.5 4.9 1.5 11.1 2 13.1.2.6.4 1.4.4 1.7 0 .3.2.8.3 1.1.1.3.2.9.3 1.3.3 2.1.5 2.8 1 3.9l.5 1.1v4.9c0 2.8.1 5.2.2 5.7.1.4.3 1.3.3 2 .2 1.9 1.6 4.5 3 5.4.1.1.2.2.2.3 0 .1.2.5.4.8.8 1 .2.8-1.1-.4a6.3 6.3 0 0 0-1.5-1.2c-.4 0-.8.6-.8 1.2 0 .9-.5 1.5-.8 1-.1-.2-.6-.8-1-1.3-2.9-3.6-2.9-3.8-1.9-9.9.3-1.8.1-3.1-.4-3.1-1.1 0-2.4 1.1-3.2 2.8-.7 1.6-.8 7.3-.1 9.4.5 1.5.5 1.5-.6.1-2.2-2.8-3.5-9.7-2.7-14.5.9-5.1 1.5-6.8 3-8.6l.6-.7-.2-1.8c-.2-1.8-.2-3.1-.1-5.5.1-3.2-.2-11.3-.6-12.6-.1-.4-.3-1.8-.5-3.3-.4-3.5-.8-5.2-1.7-8l-1.3-4.2c-1.1-4.2-1.5-5.2-2.7-6.9-.6-.8-1.2-1.1-1.6-.7-.1.1.1-.1.4-.5 1-.7 1.3-.7 2.1-.3m64.5 9.2c-.1.1-.4.8-.5 1.5-.7 3-2 9.7-2.2 11.6-.2 1.1-.5 3.4-.8 5l-1.1 5.8c-.3 1.6-.8 4.1-1.1 5.6-.3 1.5-.7 3.2-.7 3.8-.3 2.1-1.6 5.5-2.8 7.1-3.6 4.7-4.6 6.7-4.9 9.2-.1.7-.3 1.3-.5 1.4-.4.3-.4 1.8-.1 3.1.4 1.5.9.8.9-1.2s1-4.3 2.9-7.3c1.3-2 1.4-2.1 1.3-1.5-.1.6 0 .4 1.1-1.2 2.8-4.1 3.8-6.6 4.6-11.5.1-.6.2-1.1.5-2.1.1-.4.3-1.9.4-3.3.1-1.4.2-2.6.3-2.6.1-.1.2-1.3 1.2-8.4.2-1.3.5-3.4.7-4.6.9-5 1.6-10.5 1.3-10.4-.2-.1-.4 0-.5 0m-55.5 3.1c.1 1.9.6 5 1.3 8.6.2 1.2.5 3.2.7 4.6.9 7.1 1.1 8.3 1.2 8.4 0 .1.2 1.3.3 2.6.1 1.4.3 2.9.4 3.3.3 1 .4 1.4.5 2 .8 4.9 1.7 7.3 4.5 11.4 1.2 1.8 1.4 2 1.2 1.4-.1-.6 0-.5 1.3 1.5 1.9 3 2.9 5.3 2.9 7.3s.6 2.6.9 1.2c.3-1.3.3-2.9-.1-3.1-.2-.1-.4-.7-.5-1.4-.3-2.5-1.4-4.4-4.9-9.2-1.2-1.6-2.6-5-2.8-7.1-.1-.6-.4-2.3-.7-3.8-.3-1.5-.8-4-1.1-5.6l-1.1-5.8c-.3-1.6-.7-3.9-.8-5-.3-1.9-1.5-8.6-2.2-11.6-.3-1.2-.5-1.6-.9-1.7-.2.2-.2 1-.1 2M260 72.2c-.3.8-1.2 2.6-1.7 3.2-.2.2-.4.7-.5 1.2l-.3.9-.1-1.1c-.1-.6-.1-1.5-.1-2.1.1-1.5 0-1.5-.6-.2-.7 1.3-1.1 1.9-1.1 1.4 0-.2.1-.4.2-.5.1-.1.2-.5.3-1l.1-.8-.7.8c-.4.4-1.1 1.3-1.6 1.8-.5.6-.9 1-1 .9-.2-.2 1-2.2 1.7-2.8.7-.6 1-1.2.6-1.2-.1 0-.6.5-1.2 1.1-1.3 1.3-1.4 1.3-.5-.3.4-.7.7-1.2.6-1.3-.1-.1-2.2 1.8-3.3 3-2 2.3-2.9 3.2-3.1 3.2-.3 0-.3-.7.1-1.4.6-1 .1-1.3-.8-.5-2.5 2.2-3.4 3.2-3.9 4.6-1 3-1 2.9-.6 3.4.6.7 1 .8 1 .1 0-1.1 1.7-5.2 2.3-5.6.2-.1.2-.3-.1 1.5-.4 2.3-.1 2.3 1.4 0 .4-.5 1.1-1.2 1.5-1.5.5-.3.9-.7 1.1-.9.1-.2.5-.6.8-.8l.6-.5v1c0 .8-.1 1.2-.6 1.8-.3.4-.8 1.1-1 1.4-.2.3-.4.6-.5.6-.1 0-.2.2-.2.4 0 .7 1.5.3 2.4-.6.7-.7.8-.6.5.2-.1.4-.2.7 0 .9.1.2.1.7-.3 1.7-.3.8-.5 1.3-.6 1.1-.1-.2-.1-.1-.1.2 0 .2-.2.9-.5 1.4-1.2 2.3.4 1.7 2.1-.8l.7-1.1v.9c0 1.2-.7 4.2-.9 4.3-.1 0-.2.3-.2.6 0 1 .5.6 1.1-.8.9-2.2 1.2-2 .9.4-.2 1.3-.2 1.4.2 1.8.5.5.4.5 1.4-1.3l.8-1.5-.1 1.4-.1 1.4.5-.7c.3-.4.6-1.1.8-1.4l.3-.7v1c0 1.4.3 2.1.5 1.6.1-.2.5-1.2 1-2.2.8-1.7.9-1.9.8-2.9-.1-1 0-1.3.2-.4.4 2.3 1.6 1.6 1.6-1 0-.7.1-1.4.2-1.4.2-.1.6.5.6 1.1 0 .7.6.4 1.1-.5.2-.4.4-.9.3-1.1-.1-.2 0-.2.1-.2.3.2.3 0 0-1.1-.4-1.4-.1-1.5.8-.2.8 1.1 1.3 1.5 1.7 1.3.3-.2.2-.7-.3-1.4s-1.9-3.6-1.7-3.7c0 0 .3.2.5.6.3.4.9 1 1.4 1.4.5.4 1.1.9 1.3 1.1 1 1 1.9.2.9-.9-.3-.4-.6-.8-.6-.9 0-.1-.2-.5-.5-.9-.7-.9-.8-1.2-.5-1 .4.3 2.2 1.5 2.3 1.6.1.1.3.2.6.4s.7.7 1 1.2c.6 1.1.9 1.1.9.2-.1-1.4-1.9-4.1-3.5-5.2-.9-.6-2-2.1-2.1-3-.1-.4-.2-.6-.4-.6-.5 0-.6.8-.5 2.8l.1 1.6-.6-1.3c-.3-.7-.8-1.8-.9-2.5-.4-1.7-.8-1.8-1.6-.1-.3.7-.7 1.8-.8 2.5-.1.6-.3 1.2-.3 1.2-.2 0-.6-2.1-.8-3.7l-.1-1.5-.4.9m11.2 4c.1.4.3 1 .5 1.4.2.4.4 1.2.4 1.7 0 .6.1.9.3.9.4 0 .7-.7.5-1.2-.1-.2.1-.1.4.3.6 1 .9 1.9.9 3 0 .8.4 1.1.7.6.3-.5.2-3.3-.2-4-.6-1.2-2.6-3.3-3-3.2-.2.1-.4 0-.4-.1s-.1.2-.1.6m-11.3 4.7c.2.5.3 1 .3 1-.1.1 0 .1.2.1s.7-.6 1.2-1.2l.9-1.1.1.7c.1.4.3 1.1.5 1.6s.3.9.3 1c-.1.1-.2-.2-1-1.5l-.3-.4-.5.5c-1.4 1.2-1.2 1.2-1.8-.1-.3-.7-.6-1.3-.6-1.5 0-.3-.3-.3-.5 0-.1.1-.2.2-.4.2s-.2 0 0-.1c.1-.1.3-.4.4-.7.1-.3.3-.8.4-1 .1-.3.2-.1.3.7.1.4.3 1.3.5 1.8m-4 .6c-.1.6-.1.6-.2.1-.1-.4-.2-.4-.6-.2-.5.3-.4-.3.3-1.2l.4-.6.1.7v1.2m28.3-.1c-.4 1.6-.5 2.2-.2 1.4.3-.7.8-2.8.7-2.9 0 0-.3.7-.5 1.5m-53.3-.1c0 .3.5 2.3.7 2.8.2.4.2.4.1-.2-.1-.7-.8-2.8-.8-2.6m27.2 3.4c.4 1.2.2 1.4-.4.6l-.4-.6-.2.6c-.1.3-.4.8-.6 1l-.4.5.1-.5c.2-.9 1.3-2.9 1.4-2.8.1.1.3.6.5 1.2m15.8-.8c-.3.1-.3.9 0 1.2.6.5 1.2.2 1.2-.6 0-.6-.5-.9-1.2-.6m-33.2 1.2c.1.8 1.2.8 1.2.1 0-.4-.1-.5-.7-.5-.6-.2-.6-.1-.5.4m68.1-.4c.2.6 1.6 3.2 1.7 3.2.2-.2-.8-2.5-1.2-2.9-.3-.3-.5-.4-.5-.3m-25.7 1.6c-.1.2-.1.5 0 .6.2.2.3-.1.3-.6l-.1-.5-.2.5m-40.5.1c.1.3 0 .4-.4.4s-.5.1-.6.7c-.1.7-.1.7.6.7.8-.1 1.1-.9.6-1.7-.2-.4-.2-.4-.2-.1m30.1 0c-.4.5-.2 1.2.3 1.3.6.1 1-.3 1-.9-.1-.7-.9-.9-1.3-.4m-40.5 1.3c0 .3.1.5.2.5.2 0 .2-.4 0-.8-.1-.1-.2-.1-.2.3m39.6.5c-.4.4-.3 1.1.2 1.2.6.1 1.2-.3 1.2-.8 0-.7-.9-1-1.4-.4m-28.4.1c.1.2 0 .3-.4.4-.6.1-.9 1-.3 1.3 1 .4 1.7-.7 1-1.6-.3-.3-.4-.3-.3-.1m.7 1.1c0 .2.2.5.4.6.5.3.5.1 0-.5-.3-.5-.4-.5-.4-.1m26.3.7c-.3.8.4 1.6 1 1.2.4-.3.6-1.1.2-1.3-.4-.2-1.1-.2-1.2.1m-26.4.8c-.3.9.9 1.5 1.4.8.1-.2.3-.2.4-.1.1.2.5.3.5 0 0-.4-.8-1.1-1-.8-.1.2-.2.2-.3 0-.2-.3-.9-.2-1 .1m69.3-.1c0 .4.6 1 .6.6 0-.2-.1-.4-.3-.6-.2-.1-.3-.1-.3 0m-44.5 1.1c-.2.6 0 1 .6 1 .5.1.9-.6.6-1.1-.2-.3-1-.2-1.2.1m-18.7.3c0 .1-.3.1-.6.1-.4-.1-.4 0-.2.1.3.1.2.2-.4.9-1 .9-2.3.8-2.3-.3 0-.8-1.3-.8-1.4 0-.1.4 0 .6.4.7.4.1.5.3.6.7 0 .5.2.6.6.7.4 0 .5.1.4.4-1.1 2-.2 3.6 2.1 3.8 1.2.1 1.3.1 1.4.6.1.3.3.5.5.5.4.1.4.1.2.6-.3.9 1 1.8 1.5 1 .2-.4-.1-1.6-.5-1.7-.7-.2-.7-1.4 0-2 .3-.3.7-.9.9-1.2.2-.5.4-.7.6-.6.6.2 1.3-.1 1.2-.7-.1-.7-1-.9-1.3-.3-.1.2-.3.3-.5.3-.2-.1-.4.1-.6.4-.6.9-1.3 1.6-1.7 1.6-.2 0-.4.1-.4.3 0 .3-.7.4-.9.1-.1-.1-.3-.2-.6-.2-.5 0-1.1-.8-1-1.3.1-.3.1-.3.5.1.9.9 2.8.7 2.8-.4 0-.3-.1-.4-.9-.4-.5 0-.9-.1-1-.2-.1-.1.1-.2.3-.2.3 0 .6-.2.9-.4.4-.4.4-.4.5 0 .2.6 1 .4 1.1-.3.1-.5 0-.5-.5-.5-.4 0-.6-.1-.8-.5-.2-.5.3-.4.7.1.3.5.8.2.9-.5.1-1-2-2.2-2.5-1.3m-3.2.3c.2.3.9.3 1.4.1.6-.2.3-.4-.7-.4-.7.1-.9.1-.7.3m18.5-.2c-.7.3-1.9 1.5-2.2 2.1-.6 1.2-.2 3.6.5 3.6.2 0 .2 0 0 .2-.1.1-.2.4-.2.6.1.6.9.8 1.1.2.2-.6.5-.6 1.5-.5.8.1 1 0 1.2-.2.1-.2.5-.3.8-.3.5 0 1.2-.5 1.2-.9 0-.3-.4-.3-1.1 0-.4.2-.5.1-.5-.2 0-.4-.1-.4-.7-.3-.5.1-.8 0-1.1-.3-.6-.6-.5-1 .1-1 1 0 1.4-1.1.7-1.8-.3-.3-.3-.3 0-.3.2 0 .4.2.6.4.7.7 1.2.1.7-.7-.1-.6-1.9-.9-2.6-.6m45.1 0c-.3.3-.1.8.2.8.3 0 .3-.1.3-.4-.1-.4-.3-.6-.5-.4M259.8 94l-.5.4.7-.1c.8-.1.9-.2.7-.5-.2-.3-.4-.3-.9.2m-4.6.6l-.6.3h.6c.8 0 1.5-.2 1.5-.4-.1-.2-.9-.2-1.5.1m6.4.4c-.2.5 0 1 .4 1.1.5.1.8-.2.6-.8-.1-.6-.8-.8-1-.3m5.6 0c-.6.6 0 1.3.9 1 .4-.1.7-.8.5-1.1-.1-.2-1.1-.2-1.4.1m-2.1 2.1c.3.2 1 .3 1.6.3.7 0 .9 0 .7.2-1.5.9-3.5-.3-3.5-2 0-.5 0-.5.3.4.3.5.5.8.9 1.1m-5.3-1.9c-.4.2-.3 1 .1 1.1.7.2 1.2-.1 1.1-.7 0-.4-.6-.6-1.2-.4m-4.1.2c-.4.2-.3 1.2.1 1.3.5.2 1.2-.2 1.2-.6 0-.6-.6-.9-1.3-.7m1.6.2c-.3.7.7 1.2 1.3.7.4-.4.3-.8-.2-.7-.2 0-.6 0-.7-.1-.2-.2-.3-.1-.4.1m5.7 4.1c-.2.2-.2 1.2.1 1.3.7.4 1.7-.6 1.2-1.2-.3-.2-1-.3-1.3-.1m-6.7.5c-.4.2-1.1.6-1.4.9-1.2 1-.5 2.1.7 1.2.3-.2 1-.5 1.8-.6.7-.1 1.4-.4 1.5-.5.2-.2.3-.2.6 0 .6.4 2.1.4 2-.1 0-.2-.3-.4-.5-.4s-.5-.2-.5-.4c-.1-.6-3-.6-4.2-.1m1.5 1.7c-3.2 1-4.6 4.1-2.9 6.6.7 1 .7 1.3 0 .5-1.1-1.3-1.3-2.7-.6-4.5.6-1.6.5-1.8-.4-1.9-2.9-.5-3 5.2-.1 7.3 1.9 1.4 4 2 3.8 1.2-.1-.3 0-.4.2-.4.4 0 .3-.4-.3-1-1-1-2.2-3.9-1.2-3 1.7 1.6 4.8-1.1 3.3-2.9-.2-.3-.4-.5-.4-.6 0-.3 1.3-.1 1.9.3 1.2.8 1.5.2.4-1-.8-.9-2-1.1-3.7-.6m4.9.5c0 .2.2.9.5 1.5.9 1.8.8 3.7-.2 5.3-.7 1.1 0 1.1 1 .1 1.7-1.7 1.8-4.7.2-6.6-.7-.9-1.5-1-1.5-.3m-1.9 3.5c-.6.6-.1 1.9.7 1.9.7 0 1-.3 1-1.1s-.3-1.1-1-1.1c-.3.1-.6.2-.7.3m-40.1 3.1c-.5.8-1.2 1.9-1.6 2.6-4.8 7.6-4.9 20.8-.2 26.3.9 1.1 1.7 1.4 3.1 1.4.8 0 1.3.1 1.5.3.9.8 3.7.1 4.9-1.4 1-1.1 2.2-4 2.7-6.5.3-1.3.3-8.1 0-9.3-.1-.5-.2-1.2-.3-1.6-.1-.6-.2-.7-.4-.7-.3.1-.3.3-.3 2.5.1 3.4-1 8.3-2.6 11.8-.7 1.6-.9 1.8-2 1.9-.4.1-.9.2-1.1.2-.4.1-2.3-1.8-3.2-3.1-1.8-2.7-2.7-10.6-1.7-15.4.7-3.6.8-3.9 1.7-5.7 1.9-3.9 1.6-6.6-.5-3.3m52.6 1.9c-.4.8-.4 1.2-.1 3.3.6 4.6-.2 9.8-1.9 11.3-1.4 1.2-5.2 2.6-7.3 2.7-.3 0 3-9.2 4.4-12 .5-1.1 4.7-6 5.2-6 0 0-.1.3-.3.7m-24.3 4l2.6 2.5.7 2.2c.4 1.2.8 2.9 1 3.7.3 1.2.7 2.6 1.4 4.1.1.3 0 .3-1.5 0-6.7-1.5-9.6-6.1-8.1-12.7.3-1.4.3-1.6 0-2.8-.4-1.7-.4-1.7.5-.6.4.7 1.9 2.2 3.4 3.6m9.3-3.2c-.6.1-.7.2-.5.3.3.2 1.4.2 1.6-.1.3-.2-.2-.3-1.1-.2m8.2 3.8c-.5.9-1.2 2.4-1.6 3.4-.4 1-1 2.2-1.3 2.8l-.5 1.1.1-.8c.5-3.1 1.4-5.4 3-6.9l1.2-1.2-.9 1.6m-3.1-1.1c-1 1.8-2.3 5.6-2.5 7.6-.1.8-.2 1.2-.2 1 0-.2-.1-.3-.2-.3-.9 0 1-6.6 2.1-7.7.8-.7 1-.9.8-.6m-2.7.6c-.2.3-.6.8-.8 1l-.4.5.2-.7c.2-.6.8-1.4 1.2-1.4.2.1.1.3-.2.6m-1.7 1.7c.1.3 0 .6-.1.7-.1.1-.2.1-.1 0s-.1-.5-.3-1c-.6-1-.6-1.2 0-.6.2.1.5.6.5.9m28.8-.4c-.5 2.5-.5 9.1 0 10.5 0 .1.1.5.2.8.4 1.7 2 2.4 3.2 1.4.7-.6.8-1.3.1-1.3-1.1 0-2.4-4.4-2.5-8.9-.1-1.6-.1-3-.1-3.1-.1-.4-.8 0-.9.6m-30.4 1.9c.9 1.7 1.3 3.7.9 4.9-.2.9-.4.3-.4-1.5v-1.8l-1.1-2c-.7-1.3-.9-1.9-.7-1.6.3.2.8 1.1 1.3 2m-30.5 1.9c-.2 3.5-.6 5.8-1.5 7.6-.3.7-.5 1.3-.5 1.4s-.2.5-.5.9c-.8.8-.7 1 .3 1 2.5 0 4-4.6 3.4-10.7-.3-2.9-.4-3.3-.8-3.3-.3 0-.3.3-.4 3.1m27.6-1.1c1 2.2 1.5 4.4.9 3.9-.1-.1-.3-.8-.4-1.4-.1-.7-.3-1.5-.5-1.8-.4-.6-1-2.3-.9-2.3.1 0 .5.7.9 1.6m-4 23.6c-.7 1-.2 2.2 1.3 3.3 1.8 1.2 2.1 1.7 2.2 3.5.1 2 1.1 4 2.2 4.4.5.2.5-.1-.1-1.4-.6-1.2-.6-3 0-3.9.5-.8 0-1.8-.7-1.6-.2.1-.3-.1-.4-.5-.1-.4-.4-.7-.9-1.1-1.1-.7-2-1.6-2-2.2 0-1-1-1.4-1.6-.5m17.2.5c-.2.2-.3.4-.3.6 0 .3-.6.9-1.6 1.7-.7.5-1 1.4-.5 1.4.4 0 1.6-.5 1.9-.7.5-.4 1.8-1.2 1.9-1.2.2 0 .6-.6.6-1 0-.9-1.4-1.4-2-.8m-28.1.7c-1.2.4-1.3.5-1.2 3.8.1 2.7.1 2.9-.2 2.1-.1-.5-.3-1-.4-1.1-.3-.4-.6-2.9-.5-3.3.3-.9-.3-1.1-1.4-.5-.4.2-.6.5-.6.9 0 .7 1.1 5.7 1.6 6.9.2.5.8 2.3 1.4 3.8s1.1 3.1 1.1 3.4c.4 2.5 1.2 4 2.1 4 .7 0 .8-.4.4-1.6-.3-.8-.3-1.2-.1-1.7.2-.8.5-2.8.5-3.1 0-.1 0-.2.2-.1.1.1.2 0 .2-.2.1-2.6.4-4.8.6-5 .3-.2 1.3-3.6 1.3-4.4 0-.5.7-1.3.9-1.1.2.1.1.4-.1 1-.7 1.6-1.8 5.3-2.2 7.5-.2 1.2-.5 2.5-.6 2.8-.4 1-.5 3.9-.1 3.9.2 0 .4-.2.4-.5.4-1.6 2.2-8.1 2.8-9.9.4-1.2.9-2.5 1-3l.3-.9.2.9c.2 1.1.4 1.4 1 1.4.7 0 .9-.4.6-1.3-.2-.4-.3-1.1-.3-1.5 0-.9-.2-1.1-.9-1.3-.6-.1-.6-.1-.6.5 0 .8-.3.6-.6-.4-.4-1.3-2.4-1.9-3.4-1l-.4.4-.2-.5c-.7-1.1-1.5-1.3-2.8-.9m31.8.7c-.1.1-.1.6 0 1.1.1.5 0 1-.1 1.1-.2.3-.8 4.4-.8 5.6 0 1.6 1.4.5 2.6-1.9.4-.8 1-1.7 1.4-2.1.8-.9.9-1.1.1-1.6-.7-.5-.7-.6-1.3.9-.3.7-.6 1.3-.7 1.3-.2 0-.2-.8 0-1 .1-.1.1-.4.2-.8s.1-.9.2-1.3c.1-1-1.2-2-1.6-1.3m-40.9 1.4c-.1.5-.3 1.1-.4 1.4-.1.5-.1.5-.7.2-2.1-1.1-2.7-.5-1.4 1.4.9 1.3.9 1.3-.7 1.2l-1.3-.1-.1 1.2c-.1 1.5-.2 1.6-1.1.7-1-.9-1-1-1.1 1.7-.1 2.8-.3 3.5-.6 3.1-.3-.4-1-.8-1.5-.8-.4 0-.5.6-.2.9.2.2.1.6-.2 1.7-.2.8-.6 2-.7 2.6-.8 2.9.2 5.5 3.7 9.7 1.7 2.1 3 3.3 3.3 3.3 0 0 .2-.5.3-1 .3-1.6 1-2.8 2.5-4.6.8-.9 1.5-2.1 1.7-2.5.5-1.4.7-1.4.6-.1-.1.6-.2 1.2-.3 1.3-.7.4-3 5.3-3 6.5 0 .9.2.8 1.7-.9.7-.8 2.4-2.5 3.6-3.8 2.1-2.1 2.3-2.4 2.2-2.9-.2-.9.3-2.3 1-3.4 1-1.4 1-2.1.3-3.7-1.7-3.7-1.9-4.1-2.6-4.5-.4-.2-1-.8-1.3-1.1l-.7-.7.9.1c1.2.2 1.2.2-.2-1.8-1.8-2.5-2-3.1-.4-1.5.6.6.6.6.3-1.3s-.3-2-1-2c-.3 0-.6-.2-.8-.4-.1-.2-.4-.4-.5-.4-.2 0-.3-.1-.3-.2.1-.5-.8 0-1 .7m11.4 0c.5 0 .5.4-.1 2.9-.5 2-.8 1.9-.8-.3 0-1.7.2-3.3.3-2.8.1.1.3.2.6.2m20 .3c0 .3.9 1.2 1.2 1.2.8 0 1 2.7.3 4.1-.7 1.4-.3 1.9.8 1 1.6-1.4 1.8-5.8.3-5.8-.3 0-.5-.1-.5-.2 0-.2-1.1-.6-1.7-.6-.2 0-.4.1-.4.3m-2.9.7c-2.9.7-3.9 3.7-2.1 6 .4.5.8.9.9.9.1 0 .3.1.5.3.4.4 2 .4 2.4.1.4-.4.3-.7-.4-.7-1.4 0-2.7-2-1.5-2.2 1.2-.2 1.9-1.5 1.4-2.5-.3-.5.5-.5.9-.1.5.5 1.2.4 1.2-.1 0-1.4-1.6-2.2-3.3-1.7m18.9 1.2c-1.2.5-1.9 1.1-3.2 2.7-.5.6-1.1 1.1-1.3 1.1-.5 0-.5.9 0 2.8 1.2 4.8.1 10.6-2.7 14.3-.9 1.1-1.1 1.4-2 2.5-.6.7-.9.6-1-.6-.3-2.3-1-5.1-1.4-6-.2-.5-.5-1.3-.6-1.7-.1-.4-.2-.7-.4-.7-.1 0-.3-.1-.3-.2 0-.5-.9-.1-1.1.6-.9 2.6-1.4 5.5-1.4 7.3 0 3.1 5.7 5.2 11.3 4.1.8-.2 1.4-.3 2.8-.5 2.7-.4 10.5-2.4 10.9-2.7.1-.1-.2-.5-.6-.9-.4-.4-.8-.8-.8-.9 0-.1-.1-.2-.1-.1-.1.1-.3-.1-.6-.3-.2-.2-.8-.7-1.3-1-1.2-.8-.8-.8 1 0 .9.4 1.6.7 1.7.7 0 0 .1-.4.1-.9 0-1.1.3-2.4.3-1.6.1 1.7 1.2 4 1.8 3.8.1 0 1 1.1 1.4 1.8.1.2.4.5.5.5.2.1.6.5.9 1 .6 1 .8 1.1.9.5.1-.2.2 0 .5.6.6 1.4 1 2.1 1.4 2.4.2.1.5.7.7 1.4.2.6.5 1.3.6 1.6.2.2.4.9.5 1.5.5 2.5.5 2.4.6 2 .1-.2.2-.3.3-.3.1 0 .1.2.1.3-.5 2.4-.5 3.4-.2 3.9.4.6.9.3.9-.4 0-.3.1-.5.2-.5s.2.8.1 2.3c-.1 1.5 0 2.4.1 2.5.1.1.2.4.2.7 0 .3.1 1.2.3 1.9.2.8.3 1.8.4 2.4.1 1.3.2 1.3.8-.1.5-1 1.1-1.4.8-.5-.6 1.9-.2 2.4 1.2 1.6l.9-.5-.3.6-.3.6.7.3c.9.4 2 .4 3.8.1.7-.1 1.8-.2 2.4-.2h1.2l-1.1.4c-1.7.6-1.5.9.5.9 2.1 0 4.3.5 3.3.8-.3.1-.5.3-.5.5 0 .4 1.4.7 6.2 1.5 2 .3 1.9.3 2.1.5.1.1-.2.1-.5.1-2 0-2.6 1.2-.7 1.5.3 0 1 .2 1.6.3.5.1 1.5.2 2.2.3 2 .2 2.4.3 2.2.5-.1.1-.2.3-.2.3a8 8 0 0 0 2.4.4c.1 0 .4.1.7.2.8.3.4.6-1.1.7l-1.2.1-.1.8c-.1.9 0 .9-1.3.1-.6-.4-1.1-.7-1.2-.7-.1 0-.6-.2-1.1-.5-.5-.3-1.3-.5-1.8-.6a8.1 8.1 0 0 1-3.3-1.2 30.4 30.4 0 0 0-5.1-2.6c-.3 0-.9-.2-1.3-.3-1.6-.6-1.6-.3-.1.8.6.4 1.6 1.2 2.1 1.7 1.6 1.4 4.9 3.1 4.5 2.3-.2-.3.2-.4.5-.1.1.2.7.5 1.1.7.9.4 1.6.9 3.4 2.4 1.3 1.1 1.9 1.1 1.5-.1-.3-.8-.2-.8 1.3.2 1.1.7 2.4 2 3.1 3 .3.4.4-.3.1-1-.6-1.7-.7-2.2-.3-1.9.2.1.3.4.3.5 0 .1.1.4.3.5.2.2.3.2.3-.1 0-.5 1.1-2.8 1.4-2.8.2 0 .7-.7.9-1.3.1-.3 0-.5-.4-.6-.6-.3-.6-1.9 0-2.8.4-.7-.1-1-1.5-1.2-1.4-.1-3.2-.6-4.8-1.4l-.8-.4h1.3c3.5 0-1.1-1.9-5.6-2.3-1.9-.2-3-.4-1.9-.5.4 0 .7-.1.7-.2 0-.4-.8-1.3-1.1-1.3-.2 0-.3-.1-.4-.3-.3-.9-4.8-2.8-6.3-2.6-1 .1-1.2 0-.5-.6.3-.3.4-.4.3-.4-.1 0-.5.2-.7.5-.5.5-1.3 1-1.3.8 0-.2.8-1.2 1.2-1.7.5-.5.1-.6-.7-.2-.4.2-.7.3-.8.3-.1 0-.6.3-1.1.6l-.9.6v-.9c0-.8-.2-1.1-.5-.6-.1.1-.1-.5 0-1.3l.1-1.6-.5.7c-.3.4-.7.9-1 1.2l-.4.5.3-1.2c.3-1.1.3-1.2-.1-2.3-.5-1.4-.4-2.1.3-2.1.8 0 .6-.9-.3-2-2.1-2.4-3.1-4-2.2-3.5 1.7.9 1.8-.5.1-2.3-.3-.4-.8-1-1.1-1.4l-.5-.7.7.1c1 .1.8-1.2-.4-2.2-1.2-1-2.9-4.2-4.2-8.3-.4-1.3-.9-2.6-1.1-2.9-.4-.7-.4-.7 1-.6 1.7.2 1.7-.3-.1-1.5-.5-.3-1.2-1-1.5-1.5-.4-.5-1-1.2-1.4-1.5-.6-.6-.7-.6-.3-.6.4 0 .4-.1.4-.6 0-.4-.1-.6-.4-.6-.2 0-.4-.1-.5-.2-.1-.1-.3-.2-.6-.3-.6-.1-2.6-1.5-2.3-1.6.1 0 .6-.1 1.1-.2.7-.1.9-.2.9-.5 0-.7-1.5-1.2-4.2-1.3-2.3-.1-2.4-.1-2.1-.5.2-.2.3-.5.2-.7-.1-.4-.2-.4-2.4-.7-.4-.1-1.4 0-2.2 0-1.6.2-1.7.1-.7-.5 1.6-1.1-.3-1.6-2.6-.7m-29.1 2c-1.4 1.6-1.8 3.5-1.3 6.1.2.8.4 2.2.5 3.2.1 1 .4 2.2.6 2.7.2.5.5 1.3.6 1.8.4 1.5 1.1 2.1 1.1.9 0-.8.4-2.6.6-2.8.1-.1.1 0 .1.3-.2.6.2.7.4.1.1-.2.3-.9.6-1.4 1-2.2 1-2.6.4-3.2l-.4-.4c.1.1.5.2.8.4.3.1.6.3.6.4 0 .1 1.3.5 1.7.6.1 0 .2-.1.2-.3 0-.4-.6-1.1-.9-1.1-.5 0-1-.9-1-1.7.1-1.2-.3-2.4-.6-2.3-.3.1-.3-.1-.6-1.5-.1-.8-.5-1-.5-.2 0 1.1-.3 1.1-.5 0 .1-1.7-1.4-2.6-2.4-1.6m11.7.3c-.5.5-.5 1-.1 1.5.7.7 1.8.2 1.8-.8.1-1-.9-1.4-1.7-.7m6.3 2.8c0 .5-.4.6-.7.3-.2-.2-.2.1-.2 1.4 0 1.7.2 2.1.9 2.1.5 0-1.1 1.7-1.8 1.8-.3.1-.5.2-.5.4 0 .6 1.6.2 3-.6 1.1-.7 1.2-.3.2.5l-.9.7.1 1.2c.1.7.3 1.8.6 2.6l.4 1.4.1-1.2c.4-3 .8-.6.5 2.7-.2 2.6-.2 2.8.3 2.6.4-.1 2.1-3.8 2.6-5.5 1.3-4.4.8-9-1.2-10.4-1.2-.9-1.8-.8-2 .1l-.1.7-.3-.7c-.3-.7-1-.9-1-.1m-21.4 2.7c-.1.1-.2.3-.2.4 0 .1-.4 1.1-.8 2.2-.8 2-.9 3.2-.3 3.2.6 0 1.3.9 1.8 2.3.8 2.1.7 2 4.6 3.9 1.1.5 3 1.4 4.3 2 3.9 1.8 4.6 1.8 3.9.2-1-2.2-1.9-4.6-2.4-6.7-.8-3.5-1.6-4.2-2.5-2.3-.2.4-.6 1-.8 1.4s-.8 1.3-1.3 2.1c-.9 1.6-.9 1.6-1.9 1.3-.5-.2-.6-.4-.6-.6 0-.2-.1-.5-.2-.6-.2-.3-1.1-3.9-1.5-6.2-.5-2.6-1.3-3.5-2.1-2.6m13 1.1v.7l-.3-.6c-.3-.7-.6-.8-.8-.3-.1.2-.2.3-.4.3-1-.4-1.6 4.3-.6 4.8.2.1.3.3.3.5 0 .4 1.2 3.4 1.4 3.4.1 0 .3.6.6 1.4.7 2.3 1.7 4.2 2.1 4.2.1 0 .3-.9.4-2 .6-5.2.7-5.6.9-4.9.2.9.3.8.9-1.3.7-2.5.8-4.4.2-5.7-.6-1.3-1-1.6-.8-.4.2 1.1-.2 1-.5 0s-1.9-1.5-1.7-.6c.1.2 0 .4-.1.4s-.2-.2-.3-.4c-.3-.7-1.3-.4-1.3.5m-15.8 5c-.4.4-.3 1.1.3 1.6.3.3.5.6.5 1 0 1.3 1.3 1 1.5-.4.2-1.5-1.5-3.1-2.3-2.2m-24 .2c-.2.1-.4.3-.4.4s-.2.7-.5 1.3c-.3.6-.6 1.6-.7 2.3l-.2 1.2 1 2.1c1.2 2.5 1.9 3.5 2.9 4.2.9.6 1.4 1.1 1.4 1.5 0 .2.1.4.3.6.8.8-.5 2.7-2.3 3.3l-1.2.4-.9-.5c-.5-.3-1.2-.8-1.5-1.2l-.7-.7.8.4c2.1 1.1 4 1.1 4.8 0 .5-.6.3-.6-.4-.3-1 .5-2 .2-4.1-1.5-.7-.5-1.3-1-1.4-1s-.2-.1-.2-.2c0-.5-.5-.9-1-.8-1.3.3-4.9 10.3-4.2 11.7.3.6 1.4 1.7 1.7 1.7.1 0 .6.3 1.1.6 1.1.7.8 1 3.7-2.8 2.4-3.1 3-3.7 2.3-2.5-.2.3-.7 1.1-1 1.7s-1.1 1.8-1.8 2.7c-.6.9-1.1 1.7-1.1 1.7.6.5.9.5 1.3 0 4.7-6.2 7.2-9.6 8.3-11.1.6-.9 1.1-1.8 1.1-2 0-.6-.4-2.1-.6-2.1-1.6 0-5.3-7.1-5.3-10.1-.1-1.4-.2-1.5-1.2-1m19.7.3c-.6.7-.9 3.5-.4 3.5.7 0 1.7-1.9 1.7-3.2 0-.6-.9-.8-1.3-.3m1.4 3.1c-2.2 2.2-3.6 3.4-3.9 3.4-.1 0-.6.5-1.1 1.1-.5.6-2.2 2.4-3.8 4.1-3.3 3.3-3.4 3.5-4.2 7-1.5 6.6.2 13.2 4.1 16 5.8 4.1 11.2 4.5 17.3 1.3 1.2-.6 2.6-1.3 3.1-1.5.5-.2 1-.4 1.2-.5.3-.3 2.2-.7 3.7-.8.9-.1.9-.1.5.1-1.5.7-3.9 1.7-4.9 2-2.3.7-1.3.9 1.7.2 1.5-.3 1.8-.3 1.3 0-.6.4-.7.4 3.2-.2 6.3-.9 14.2-1.4 15.1-.9.6.3-5.1 1-8.4 1-1.3 0-3 .3-2.2.4.1 0 1.4.1 2.9.1 4.6.2 6.3.7 2.1.7-3.5 0-3.4.4.3.8 1.7.2 7.6 1.1 9.4 1.5 4.5.9 8.1.4 11-1.4 1-.6 2.6-2.3 2.6-2.7 0-.1-4.1-3-4.9-3.4-.2-.1-1-.6-1.7-1s-1.6-1-2.1-1.3c-.5-.3-1.7-1.1-2.8-1.9-1.1-.7-2.6-1.8-3.4-2.3-.8-.5-1.4-1-1.4-1.1 0-.1-.1-.2-.2-.2s-.8-.5-1.6-1c-.8-.6-1.9-1.2-2.6-1.5-.6-.3-1.7-.7-2.4-1l-2.5-1.1c-4.7-1.7-4.7-1.7-4.8-2.6-.1-2.1-1.2-2.9-1.3-1 0 .5-.1.9-.1.9-.9 0-1.2-.4-1.4-1.8-.2-1.6-.2-1.7-.8-1.7-.5 0-.5.1-.5 1.3v1.3l-.9-.3-.9-.3-.1-1.8c-.1-1.8-.1-1.8-.5-1.8-.5 0-.5 0-.5 1.5 0 .8-.1 1.5-.1 1.5s-.5-.1-.9-.3l-.9-.3-.1-2c-.1-1.5-.2-2.1-.4-2.1-.4-.2-.5-.1-.7 1.8-.2 2.1-.1 1.8-1 1.6-.8-.2-1-.5-1.1-3.1-.2-3.4-1.2-3-1.2.4v2.1l-.5-.1c-.6-.1-.6-.3-.9-3.3-.2-1.9-.3-2.4-.6-2.7-.5-.5-.7-.2-.8 2.8-.1 1.3-.2 2.3-.2 2.2 0-.1-.3-.2-.6-.2-.5 0-.6-.1-.7-.7-.1-.9-.6-3-.9-4-.2-.6-.3-.7-.8-.7h-.6l.7-.3c1.7-.8 3.9-.4 5.9.9.4.3 1.2.7 1.7 1 3.6 1.6 7.2 3.5 9.2 4.7 1.3.8 2.9 1.8 3.7 2.2 1.6.9 1.6 1.2 0 .3-1.4-.7-1.5-.5-.3.5 1.4 1.1 2 1.4 6.2 3.9 2.1 1.3 5.1 3.1 6.6 4.1 1.5 1 3.8 2.5 5.3 3.3 1.4.8 3.1 1.8 3.6 2.2 4 2.6 9.5 5.4 10.6 5.4 1.1 0 1.2-.3.1-.8-.6-.2-1-.5-.9-.5s.4.1.9.2c.9.4 1.6.3 1.2-.2-.3-.3-2.7-1.5-5-2.6-.7-.3-1.2-.6-1.2-.7s.2-.1.3 0c.2.1 1 .4 1.7.7.8.3 2.1.9 3 1.3 1.7.8 2 .8 2 .1 0-.6-.2-.8-2-1.3-1.6-.5-1.9-.6-6.2-2.7-1.6-.7-3.5-1.6-4.3-1.9-.8-.3-1.6-.7-1.8-.8-.2-.1-.5-.3-.8-.4-.7-.2-2.2-1-3.8-1.9-1.4-.8-4.3-2.4-7.2-3.9-.8-.4-1.5-.8-1.5-.9 0-.1 1.3.5 2.8 1.3 8 4.2 10.8 5.4 17.1 7.3 5.2 1.6 8.3 2.2 9 1.8.5-.3.5-.8 0-.8-1.1-.1-1.6-.1-1.8-.3-.1-.1.4-.1 1-.1 1.3.1 1.9-.6.7-.9-.3-.1-1.3-.2-2.1-.4-.9-.2-2.2-.5-2.9-.8l-1.4-.5 1.3.1c.7.1 1.6.2 2 .3 1.4.4 1.6.2 1.7-1.1.1-1.4-.1-1.6-1.6-1.6h-1.2l1-.2c1.3-.3 1.3-.3 1.2-1.2-.1-1.1-.3-1.4-1.2-1.4-.7 0-.7 0-.2-.2.7-.3.7-1.1.2-1.7-.3-.2-.3-.4-.2-.4.6 0-.8-3.1-1.5-3.4-.1-.1-.8.2-1.4.5l-1.1.6 1-.9c1.1-1 1-1.6-.1-1.4-.5.1-.5.1-.1-.1.6-.3.6-.4-.8-1.6-.9-.9-1.3-1.1-1.6-1-.4.1-2 .8-6.2 2.5-1.5.6-3.4 1.4-4.4 1.7-1 .3-2.2.8-2.8 1.1l-1.4.7c-1.2.6-.1.9 1.8.6 1.3-.2 1.4-.2.5.3-2 1 .8 2 3 1.1.6-.2 1.4-.5 1.8-.7.4-.2.9-.4 1.1-.5.3-.2.3-.2 0 .1-.3.3-2.7 1.8-3.2 2-.3.1.3.5.9.5.3 0 .9-.2 1.5-.5 1.3-.7 5-2.3 5.6-2.5.3-.1-.2.2-1 .7-2.7 1.4-2.6 1.8.2 1.7 1-.1 2.1-.2 2.4-.2 1-.2-.1.3-1.4.6-2.5.6-2.7.7-2.7.9 0 .1.4.1.8.1l.8-.1-.6.2c-1.3.5-.9.6 1.9.5l2.8-.1-1.1.3c-2 .6-2.1 1.1-.1.8 2.3-.3 1.7.2-.7.7-.4.1-.7.2-.7.4.1.2 1.7.2 4.3 0l1.2-.1-.9.2c-1.4.4-1.8 1-1.1 1.7.6.6-1.6-.1-4.5-1.3-.8-.3-1.9-.8-2.5-1-.6-.2-1.3-.5-1.7-.7-.3-.1-1.7-.7-3.1-1.3-1.4-.6-3.4-1.4-4.4-1.9-1-.5-3.3-1.4-5-2.1-2.8-1.2-5.4-2.3-6.7-3.1-.3-.1-.9-.5-1.4-.7-.5-.2-1.3-.7-1.9-1-.5-.3-1.5-.8-2.1-1-.6-.3-1.3-.5-1.4-.6-.1-.1-1-.6-2-1.1-1-.5-2-1.1-2.3-1.3l-.6-.4c-.1 0-.4-.2-.8-.5-.7-.5-1.7-1.1-3.9-2.1-2.1-1-2.5-1.1-4.3-1.6-.6-.4-.9-.2-1.8.7m.6 5.1c.2 1.5.4 2.9.4 3.1.1.3 0 .5-.4.6-.7.3-.6.4-1.4-2.4l-.7-2.5.7-.7c1.1-1.1 1-1.2 1.4 1.9m-2.4 3.6l.4 1.3-.7.4c-.4.2-.7.4-.7.3 0 0-.3-.6-.5-1.3-.2-.7-.6-1.5-.8-1.8l-.4-.5.9-1.1.9-1.1.2 1.2c.2.7.4 1.8.7 2.6m-3.6 2.1l.1 1.6-.6.4c-.3.2-.6.4-.7.4 0 0-.3-.8-.5-1.7l-.5-1.6.9-.9c1-.9 1.1-.9 1.3 1.8m33.4-.8c.6.3 1.1.3.7 0-.2-.1-.5-.2-.7-.2h-.4l.4.2m-43.7 3.6c-1 1.4-2.3 3.2-2.9 4.1l-2.5 3.7c-1.9 2.8-1.3 3.1.7.4.7-1 2.9-3.9 5.1-6.9 1.3-1.7 2-3.3 1.7-3.6-.2-.1-.9.7-2.1 2.3m6.9-.4v1.8l-.9.7c-1.1.8-1.2.7-.7-.8.2-.6.3-1.5.3-1.9 0-.6.8-1.7 1.3-1.7-.1.1 0 .9 0 1.9m28 3.5c.6.2 2.2.6 3.4.9 2.1.5 2.2.6 1.1.5-.6 0-1.1 0-1.1.1s1.6.9 2.4 1.1c1.2.3.6.4-1.4.2-1.1-.1-2.8-.3-3.6-.4-1.1-.1-1.5-.2-1.5-.4s-.2-.4-.5-.5c-.7-.3-.6-.5.1-.4 1.1.2.6-.5-.9-1.3-1.3-.6-1.5-1.1-.3-.6.6.3 1.6.6 2.3.8m-35.4 2.6c-2.5 3.2-3.2 4.3-2.7 4.7.2.1 3.6-3.3 4-3.9.1-.2.1-.8.1-1.4l-.1-1.1-1.3 1.7m36.7 2c.9.1 2.7.2 4 .3 3.2.1 3.5.4.6.6-1.4.1-2.3.1-2.4 0-.1-.1-.6-.2-1.2-.3s-1.4-.2-1.8-.2c-1.2-.2-2.7-.5-2.7-.6 0-.1.4-.1.9 0 .5 0 1.6.1 2.6.2m-51.6 1.1c0 .3-.1.3-.6.2-1.5-.3-2.2.6-.9 1.2.7.3.9.7.4.7-.2 0-.4.2-.5.5-.2.6-.7.6-1.5.2-.6-.3-1.4-.4-1.5-.1-.2.4.2 1.1.7 1.3l.6.3-1.3.4c-1.9.6-5.5.9-6 .5-.8-.7-1.1.3-.5 1.2.3.4.3.4-.1.4-.7 0-3 .7-3.8 1.2-.4.2-.8.4-1 .4-.8 0-1.9.5-1.9.8 0 .3.2.4 1.4.4 1.5 0 1.5.1.1.7-3.6 1.5-6.2 2-6.8 1.3-.8-.9-1.3-.4-.8.7.2.4-.1.6-.3.2-.3-.6-.5 0-.5 1.9 0 1.2-.1 2.6-.3 3.3-.4 1.5-.4 1.6 0 1.3.3-.2 1-2.1 1.2-3.1.1-.5.3-.8.3-.4 0 .2 0 .4.1.5 0 .1.1.5.1.9v.7l.9-.1c.5-.1 1.1-.3 1.2-.4.2-.2.2-.3.1-.2-.2.1-.6-.2-1-.8-.1-.2-.1-.2.1-.1.1.1.4.2.6.2.2 0 .7.1 1.2.2 1.3.2 5.3-1 5.1-1.6-.1-.2 0-.3.1-.3 1.3 0 6.1-1.4 6.1-1.8 0-.1-.9-.1-1.9-.1-1.9.1-1.8-.3.2-.6.3-.1.6-.1.7-.2.1 0 1.4-.3 3-.5 2.8-.4 2.9-.4 4.2-1.3 1-.7 1.2-.9.9-.9-.9 0-.4-.5.7-.7 1-.2 2.7-1.5 2-1.5-.7 0-.5-.3.6-.8.9-.4 1-.5 1-1.1 0-.8.3-1.1 1-1.1 1.5 0 1.4-1-.3-2.9-1-1.3-3.1-1.9-3.1-1m76.4.2c0 .2.4.4 1 .6.5.2 1.9.8 3.1 1.4 2.7 1.3 4.8 2.1 6 2.1h1v-1.4l-3.5-.9c-1.9-.5-4.2-1.1-5-1.4-2.4-.7-2.6-.8-2.6-.4m-17.1 1.2l-.8.2 1.4.1c1 .1 1.3.2 1.1.3-.6.3-.3.5.5.5.4 0 .8.1.8.2 0 .2-.4.3-2.7.5-2 .2-1.3 1 .9 1.1.6 0 1.3.1 1.6.2.5.2-.5.2-3 .2h-5.1c-3 0-3.7-.1-3.5-.3.2-.2 4.7-.9 5.8-.9.8 0 .2-.8-.6-.9-.5-.1-1.3-.2-1.8-.2-.5-.1-.9-.2-.9-.3 0-.1-.2-.2-.3-.2-1.4.1-1.6-.1-.3-.3 3-.5 8.7-.8 6.9-.2m-114.4.7c-1 .2-2 1-2 1.5 0 .3.1.3 1.3-.1 1.3-.4 3.2-.3 3.5.3.1.2 1.8.9 2.1.9.5 0 .3-1.1-.3-1.6-1-1-2.8-1.4-4.6-1m65.1.5c-.5.5-.7 1.1-.7 2.1 0 .8 0 .8-.5.7-.4-.1-.5 0-.5.5 0 .3-.2.8-.6 1.2-.4.5-.6.9-.6 1.4 0 1.2-.3 1.7-.9 1.6-.3-.1-.5 0-.6.1-.1.1-.3.2-.5.2-.7 0-.4.4.8 1 1.5.8 1.6.8 1.5-.1l-.1-.7.7.8.7.8v-1c0-.5-.1-1.6-.2-2.3-.2-1.9 0-2.4.6-1.3.5.9.7.7.8-.7.1-.7.3-1.8.5-2.5.7-1.7.4-2.6-.4-1.8m-7.2 1.8c0 .1.2.3.3.3.1 0 .2 0 .2-.2 0-.1-.2-.3-.3-.3-.2 0-.3 0-.2.2m149 .6c-1.4.3-2.6 1.4-2.6 2.2 0 .3.1.5.3.5.4 0 2-.7 2.1-.9.3-.5 2.2-.7 3.5-.3 1.2.4 1.3.4 1.3.1 0-1.2-2.6-2.1-4.6-1.6m-201.8.4c0 .3-.1.4-.5.4-.8 0-.5 1.6.3 2.3.5.5 1.5.5 1.5.1 0-.7 4.1.4 4.4 1.2.1.2 0 .5-.1.7-.7 1.1-.5 3.9.2 4.2.4.1.3.2-.4.6-1.6 1-4.8 3.5-4.8 3.9 0 1.2-5.1 2-7.1 1.1-2.6-1.1-8.9-.3-9.1 1.2-.1.4 0 .4 2.6.3 2.1-.1 2.8 0 3.1.2.5.3 2.3.8 3.8 1 2.2.3 2.2.3 1 1-2.7 1.8-6 7.5-4.3 7.5.3 0 .6-.3 1.5-2 .8-1.5 3.2-3.6 4.9-4.3 1.2-.5 1-.3-.8 1-2.5 1.7-5 5.1-5.5 7.4-.2 1-.4 1.2-.7.8-.3-.5-1.1-.2-2.3.9-.7.6-1.4 1.2-1.6 1.3-1.4.7-.2 1.1 1.3.5 1.1-.4 1.2-.5 2.3-1.5l.7-.6-.1 1.8c-.1 2 .1 2.3.7.9.2-.4.4-.6.4-.6.1.2 1-.7 2.1-2 1.9-2.3 4.5-4.1 6.8-4.8 4-1.2 5.9-2.4 5.9-3.8 0-1.6 3-3.6 6.9-4.6 2.4-.6 1.8-1-.8-.6-3.8.7-5.2 1.4-7.4 4.1-1.4 1.7-1.8 2-4.5 3-2.2.9-3.8 1.9-5.3 3.4-1.8 1.8-2.4 2.5-3 3.7-.7 1.5-.8 1.3-.2-.5.4-1.2 1.4-2.9 1.9-3.3.1-.1.2-.3.4-.5.1-.2.7-.8 1.3-1.1.6-.4 1.2-.9 1.4-1.1.9-1.1 4.3-2.9 5.4-2.9.8 0 1.8-1 2.1-2.1.1-.4.3-.8.4-.8.1 0 .3-.2.4-.5 1.4-2.7 3.1-4.3 4.5-4.3.9 0 1.2-.5.6-.9-.7-.5-3.6.1-4.9 1-.8.6-1 .6-.4-.1s1.5-1.3 3.1-1.9c1.8-.6 1.8-1 .1-.8l-1.3.1.8-.4c.4-.2.9-.4 1.1-.4.2 0 .4-.1.6-.3.3-.4-.1-.7-.9-.7-1.2 0-1.3 0-1.1-.3.1-.2.6-.4 1-.5 1.1-.3 1.2-.8.8-3.2-.2-1 2.2.8 2.7 2.1.4 1 1.8 2.7 2.8 3.5 1.2.9 2 2.4 2.5 4.6.2.9.4 1.3.6 1.3.2 0 .3.1.1.2-.1.1-.2.5-.2.8 0 .5 0 .5-1 .5-2 0-3.9 3.6-2.8 5.5.3.5.7.1.9-.8.2-1.2 2-3.5 2.8-3.5.1 0 .3-.1.3-.3.1-.2.3-.2.8-.2l.7.1.1-1.1c.1-.9 0-1.2-.2-1.4-.3-.3-.3-.3.8-.7 1.4-.5 1.7-1.1.6-1.2-.3 0-.9 0-1.4-.1-1-.1-.1-.3 1.3-.4.9 0 1.8-.5 1.6-.8-.1-.1-.5-.2-1.1-.1-1.4.1-1.3-.1 0-.5 1.4-.4 1.4-.4 2-2.5.3-1 .6-1.9.6-2.1.2-.6-1.2-.4-5.6 1.1l-2.4.8-.7-.5c-.4-.3-.8-.5-.9-.5-.1 0-.2-.1-.2-.3 0-.2-.1-.3-.3-.3s-.4-.2-.5-.5c-1-2.8-1.3-3.3-2.2-4.1-.5-.4-1-1-1.1-1.3-.7-1.6-1.3-1.9-3.2-1.6-.5.1-1.5.1-2.2.1-.7-.1-1.7 0-2.1.1-.7.2-.8.2-1.2-.3-.2-.4-1.1-.4-1.1.2m138.6 3.4c-.5 1.1-.9 2.1-.9 2.1 0 .3.9.1 1.1-.2.2-.3.3-.3.2.4-.4 2.6-.4 4.4 0 4.4.3 0 .5-.2.7-.7.1-.4.3-.6.4-.6.1.1.2-.1.3-.3.1-.3.2-.1.3.6.3 1.2.5 1.3 1 .4.5-1 .7-.9 2.7.9 2.7 2.4 2.7 2.4 3.3 2.6l.5.1-.3-.6c-.2-.3-.4-.9-.5-1.2-.1-.3-.2-.8-.3-1.1-.1-.3-.1-.4 0-.4.6.3 5 2.4 5.7 2.8.5.3 1.6.7 2.4.9 2.8.8 2.3.2-2.9-3.1-1.8-1.2-2.2-1.3-1.4-.4l.6.6-.6-.2c-.3-.1-.7-.3-.9-.5-.8-.7-6.4-3.6-6.5-3.4 0 0 .2.5.5 1 .8 1.2.6 1.5-.3.6-1.4-1.4-3.1-3.5-2.9-4 .1-.2 0-.4-.1-.4s-.3-.2-.3-.4c-.6-2.4-.7-2.4-1.8.1m59.3-.4c-.4.4-.5.5-1.2.3-.4-.1-1.4-.2-2.1-.1-.7.1-1.7 0-2.2-.1-1.9-.4-2.5 0-3.2 1.6-.1.3-.6.8-1.1 1.3-.9.8-1.2 1.2-2.2 4-.3.9-.9.8-1.6-.2-.9-1.2-1.4-1.5-2.1-1.5h-.6l.6.9c.3.5.8 1.4 1 1.9l.4 1-.6-.7c-1.8-2-2.6-2.8-3.5-3.2-1.2-.6-1.3-.6-.5.5l.7.9c0 .1-1.1-.4-1.6-.8-.8-.6-1.7-.8-1.8-.4-.1.2-.3.3-.4.2-.5-.1-2.1.6-2.2.9-.1.4.1.9.3.9.1 0 .3.1.4.3.2.3.6.3 2.7.3 2.4 0 2.5 0 3 .5 1.4 1.4 2.2 3.7 1.8 4.8-.4 1 .4 1.2 1.4.3.9-.7 1.1-1 1.2-1.8.1-.7 1-2.5 1.2-2.6.3-.1 1.7-2.2 2-2.8.2-.6 1.6-2 2.3-2.4.5-.3.5-.3.1 1.8-.2.9.2 1.5 1.1 1.7.4.1.9.4 1 .5.3.3.1.4-1.1.3-.8 0-1.2.3-.9.7.1.2.4.3.6.3.2 0 .7.2 1.1.4l.8.4-1.3-.1c-1.7-.2-1.7.2.1.8 1.6.5 2.5 1.1 3.1 1.9.5.7.4.8-.4.1-1.3-1-4.2-1.6-4.9-1-.6.4-.3.9.6.9 1.5 0 3.2 1.6 4.5 4.3.1.3.3.5.4.5.1 0 .2.4.4.8.3 1.1 1.3 2.1 2.1 2.1 1.1 0 4.5 1.8 5.4 2.9.2.2.8.7 1.4 1.1.6.4 1.1.9 1.3 1.1.1.2.3.5.4.5.5.4 1.5 2.1 1.9 3.3.6 1.8.5 2-.2.5-.5-1.1-1.2-1.9-3-3.7-1.6-1.5-3.2-2.6-5.3-3.4-2.7-1.1-3.1-1.3-4.5-3-2.3-2.8-5.7-4.4-9.2-4.4-.7 0 .1.6 1.1.9 3.9 1.1 6.8 3.1 6.8 4.6 0 1.4 1.9 2.6 5.9 3.8 2.3.7 4.9 2.5 6.8 4.8 1.1 1.4 1.7 1.9 2 1.9.1 0 .3.3.5.6.6 1.3.9 1 .7-.9l-.1-1.8.7.6c1 1 1.2 1.1 2.3 1.5 1.5.6 2.7.1 1.3-.5-.2-.1-1-.7-1.6-1.3-1.2-1.1-2-1.4-2.3-.9-.2.4-.4.2-.7-.8-.5-2.4-3-5.7-5.5-7.4-1.8-1.2-2-1.5-.8-1 1.7.7 4.1 2.8 4.9 4.3.9 1.7 1.2 2 1.5 2 1.7 0-1.6-5.7-4.3-7.5-1.2-.8-1.2-.7 1-1 1.5-.2 3.3-.7 3.8-1 .4-.2 1-.3 3.1-.2 2.6.1 2.7.1 2.6-.3-.2-1.5-6.6-2.3-9.1-1.2-2 .9-7.1.1-7.1-1.1 0-.3-3.2-2.9-4.8-3.9-.7-.4-.7-.5-.4-.6.8-.3 1-3.1.2-4.2-.1-.2-.2-.6-.1-.7.3-.8 4.4-1.9 4.4-1.2 0 .4 1 .4 1.5-.1.9-.7 1.1-2.3.3-2.3-.4 0-.5-.1-.5-.4-.2-.7-1.2-.6-1.7 0m-145.6 3.1c-.8 1-3.5 2.2-5.8 2.7-1 .2-2.5.5-3.3.7-.8.2-2.2.3-3.2.4-1 0-2.2.2-2.7.4s-1.2.4-1.7.5c-.4.1-1.8.5-3 .9-1.9.7-3.1 1-5.7 1.8-.3.1-.5.3-.6.6-.1.4 0 .4.8.1.4-.2 1.1-.3 1.5-.3.4 0 1-.1 1.5-.2 1.1-.3 1-.2-.2.7-1.4 1-.7 1.5.8.7.2-.1.6-.3.9-.4.3-.1 1.1-.4 1.7-.7l1.1-.5-.1.5c-.1.7.2.6 1.5-.2.6-.4 1.5-.8 2-.9.5-.1 1.1-.4 1.5-.6.8-.5 3.7-1.4 4.4-1.4.8 0 3.8-.7 4.9-1.1 2-.8 4.8-3 4.8-3.8.1-.8-.5-.7-1.1.1m48.3 2.8c.5 1 .7 2.5.3 2.2-.1-.1-.3-.4-.4-.6-.1-.2-.3-.4-.5-.5-.2-.1-.7-.4-1.1-.7-.7-.6-3-1-4-.7-.3.1-.7 0-1.1-.1-1-.3-1 0 0 .8.5.4.7.8.6.8-.3 0-.5.4-1.1 2.1-.2.4-.2.4-1.4-.6l-1.3-1v-1c0-1.1-.4-1.3-1.2-.5-.2.2-.5.3-.7.3-1.1-.1-1 .5.3 1.7 2.8 2.7 4.3 4.3 4.3 4.9 0 .1.1.2.3.2.2 0 .7.3 1.1.7.4.4 1.3.9 2 1.3s1.5.9 1.9 1.3c.4.4.8.7.9.7.1 0 .4.3.7.7 2.7 3.9 5.5 6.9 5.9 6.6.1-.1.5-.9.9-1.7.3-.8.9-1.9 1.3-2.4s.9-1.4 1.2-1.9c.3-.5 1.2-1.7 2-2.6.8-.9 2-2.4 2.7-3.4.7-1 1.4-2 1.7-2.3.5-.5 1.2-1.6 1-1.7-.3-.3-1.2-.3-1.4 0-.3.3-.4.3-1-.4-1.3-1.4-1.8-.9-1.1 1.1l.4 1.1-.8 1c-1.2 1.5-1.3 1.5-1.5.8-.3-1.3-1.7-2.8-2-2.1-.1.1.1.9.4 1.8.7 2 .7 2-.5 3.1l-1 .9-.1-.8c-.4-2.4-1.8-3.4-1.5-1.1.3 2.2.2 3.7-.6 6.2l-.7 2.3-.6-.7c-.3-.4-1.2-1.7-2-2.9L260 213v-1.7c0-2.4-.7-2.6-1.1-.3-.1.6-.5 1.1-.5.5 0-.1-.1-.2-.2-.2s-.7-.3-1.3-.6l-1.1-.6v-1.7c0-1.5 0-1.7-.4-1.7-.5 0-.8.8-.8 1.9v.9l-.9-.9c-1-1-1.2-2.1-.7-4l.2-.8.8.7c3.8 3.5 9.2 6.1 10 4.8.4-.5 2-2.2 4.4-4.4 2-1.8 2-1.7-.7-2.5l-1.7-.5-.4.5c-.3.4-.4.4-.3.1.2-.6-.1-.9-1.1-1-1.1-.2-1.8.4-1.6 1.3.1.3.2 1 .2 1.5l.1 1-.5-1c-.9-1.7-1.5-2.4-1.9-2.5-.2 0-.7-.1-1.1-.2l-.7-.1.5.8m-21.8 0c.1.3 0 .4-.1.4-.3 0-.2.7.2 1.7.3.5.7 1.7 1 2.6.6 2 1 2.2 1.3.6.2-.8.3-1 .4-.7.2.6.2 2.7-.1 3.6-.3 1-.3 1 .9.2.5-.3.9-.5 1-.5.2.2-1.6 2.3-2.7 2.9-1.6 1-1.2 1.1.9.2 1-.4 1.9-.8 2.1-.8.8-.2-1.4 1.6-2.9 2.4l-1.4.7.9-.1c.6-.1.9 0 .9.1s-.1.2-.3.2c-.7 0-.7.6-.1.7 2.3.4 2 .2 2.2 1.5.2 1.4.3 1.5.9.2.9-1.8 1-.9.3 1.7-.5 1.8-.1 2.1.8.5.3-.5.6-1 .7-1 .2 0-.1 2.1-.3 2.8-.3.8-.3.8.2.4s.5-.3.1.9c-.3 1.1-.1 1.4.4.6.2-.3.8-1.3 1.4-2.1.6-.9 1-1.7 1-1.8 0-.1.1-.2.2-.2.2 0 .2.3-.1 1.8-.1.3-.3 1-.5 1.5-.9 2-1 2.2-.9 2.3.1.1 1.9-1.7 1.9-1.9 0-.1.1-.2.2-.2.2 0 .1 1.3-.4 2.8-.2.6-.3 1.1-.3 1.1.1 0 1.5-2 1.5-2.1 0-.1.1-.2.3-.3.4-.1.5.7.4 2.3 0 1 .2 1.7.3.7 0-.2 0-.6.1-.7 0-.2.2-.6.3-.9l.3-.6.2 1.8c.3 2.4.6 2.4.6.1v-1.9l.4.5c.2.3.5.8.7 1.3.2.6.3.7.3.3 0-.5.5-.3.8.5.1.3.2.3.2-.3 0-.9.1-1.2.4-2.1l.2-.7.3 1.7c.2.9.5 1.9.7 2.2.3.5.3.5.2.1-.1-.3-.2-.8-.2-1.2l-.1-.7.5.4c.7.6.7.6.7-.3 0-1.4.7-.8.9.9.1 1.1.2 1 1.1-.8l.7-1.4-.1 1.3c-.1 1.4.2 1.7.7.9.4-.6 1.1-2.7 1.1-3.2 0-.3.1-.5.2-.6.1-.1.1 0 .1.1-.1.1 0 .4.1.5.1.1.2.8.2 1.5 0 1.6 1.1 1.3 1.5-.4.2-.8.4-.8.5-.1.1.7.3.7 1.2 0 .5-.4.9-.8 1-1.3.7-2.2 1-2.4 1-.9 0 1.1.1 1.1 1 .7.5-.3.6-.4.5-1.2 0-.5 0-1.2.1-1.6l.2-.7.3.7c.2.4.3.8.3.9 0 .4.6.9 1 .7.4-.1.4-.2.3-1.5-.3-2.8.5-4.3 2.3-4.3 1 0 1.2-.4 1-1.7-.3-1.6-.3-2.1.3-4 .6-2 .6-2.4.1-2.4-.4 0-.4.1-1.4 2.2-.5 1.1-1.1 1.9-2.3 3.1-1.6 1.6-3.5 4.2-3.8 5.1-.5 1.5-2.9 4-3.1 3.2-.2-.7-.7-1.7-.9-1.8-.1-.1-.4-.5-.6-.9-.2-.4-.8-1.3-1.4-2l-1.1-1.2v.6c0 .8-.3.8-.6-.1-.5-1.4-2-2.9-5.6-5.5-1.6-1.2-1.7-1.2-1.4-.1.4 1.6-.7.7-1.3-1-.2-.5-.5-.9-.8-1l-.6-.4c-.2-.4-.4.1-.4.8 0 .9-.3.5-.6-.8-.2-1-2.9-2.9-3.3-2.2-.1.1-.3 0-.6-.4-1.7-2.4-3.4-3.6-2.4-1.7.5 1 .2.8-.6-.4-1-1.6-1.6-2-1.6-1.3 0 .2-.3 0-1-.7-.9-.9-1.2-1.1-1.1-.8m45.3.8c-.2.4-.2 1-.1 1.9.1 1.3.1 1.4-.3 1.6-.4.2-.4.2 0 .2.2 0 .5.1.5.3.3.8 2.2-.3 2-1.1-.1-.2-.2-.4-.3-.4-.2 0-.7-1.4-.9-2.5-.3-.7-.6-.7-.9 0m50.7 2.7c-1.3 1.4-1.8 2.1-1.8 2.7 0 .3-.1.5-.2.6-.5.3-.1.7 1.5 1.2 2.5.8 2 1.1-.7.5-.9-.2-1.2-.2-1.2 0s1.9.9 2.9 1.1c.4.1 1.2.2 1.6.2.4.1 1.1.2 1.6.4 1.3.5 1.7.4 1.6-.4-.1-1 .5-2.6.8-2.3.6.5.5-.9-.2-2.6l-.7-1.7-1-.2c-.9-.2-1.3-.3-2.5-.5-.6-.1-.8 0-1.7 1m-169.4 1c-.4.5-1.8 1.3-1.9 1.2-.2-.2.6-.9 1.1-1 .3-.1.6-.2.7-.3.4-.4.4-.3.1.1m125 1.1c-1.5 1.2-3.1 2.2-3.9 2.4-1.6.4-2.1.4-2.2.1-.1-.2.1-.3.8-.4 1-.1 1.8-.5 1.8-.7 0-.1-1.3-.6-1.8-.6-.2 0-.5-.2-.7-.4-2.1-2-3 .3-1.3 3.2 1.2 2 4.5 1.6 6.4-.8.4-.5 1-1.1 1.2-1.4.4-.4 1-1.6 1-2 .1-.3-.4-.1-1.3.6m-152.3.9c0 1.2 4.4 2.9 5.4 2.2.9-.7.2-1.5-1.5-1.6-.7-.1-1.7-.3-2.3-.5-1.2-.6-1.6-.6-1.6-.1m216.6 1.1c.5.1 1.3.8 1.1 1-.1.1-1.5-.7-1.9-1.2-.3-.3-.3-.3 0-.1.2.1.6.2.8.3m-174 1.7c0 .2.2.5.4.7 1.1 1.1 1.3 2.8.3 4.1-.3.5-.7.9-.8 1.1-.1.2 0 .4.2.8l.4.5.5-.7c1.4-1.9 1.6-2.6 1.1-4.5-.3-1.6-2.1-3.2-2.1-2m198.9.1c-.5.2-1.5.4-2.2.5-1.7.2-2.4.9-1.5 1.6.6.5 4.3-.5 5-1.4.9-1 .3-1.3-1.3-.7m-47.3.5c0 .2.2.4.4.4s.8.2 1.4.5 1.4.4 1.7.4c.7 0 1 .3.5.4-.5.1 2.1.5 3.2.5.8 0 1-.1 1-.3 0-.5-.7-1.1-1.3-1.1-.7 0-.6 0-1.5-.3-.5-.1-1.3-.3-1.8-.3s-1.5-.2-2.1-.3c-1.6-.3-1.6-.3-1.5.1m-40.1.1c-.4.2-.4 1-.2 1.8.2.5 1.1 1 2.7 1.6 2.8.9 5.3 4.8 5.3 8 0 .6.9-.8 1.3-2.2 1.1-3.5-.6-7.4-3.7-8.9-1.1-.5-4.7-.7-5.4-.3m-113.7.5c0 .2.2.5.5.8.8.9.6 2.3-.3 2.3-.5 0-.7-.1-.8-.4-.5-1.7-2.6.1-4.5 3.8-.3.7-1.1 2.1-1.8 3.2-.6 1.1-1.4 2.5-1.7 3.2-.5 1.1-1.8 3.4-2.3 4-.1.2-.6 1-1.1 2-.8 1.5-1.9 3.6-3.2 5.7-2.2 3.7-5.7 12.6-6.4 16.4l-.5 2.1c-.1.3-.4 1.4-.7 2.4-.3 1-.7 2.5-1 3.3-.7 2.1-.9 4.4-.8 8.9.3 10.9 1.6 16.7 5.4 24.1.5 1.1 1 2 1 2.1 0 1.8 9.5 12.7 14 16.1.4.3.8.6.9.7.3.3 2.4 1.5 3.4 2 .5.2.9.6 1 .7.2.4 1.7 1.1 1.9 1 .1-.1.7.1 1.4.5 3.4 1.6 5.9 2.4 8.5 2.8 1.4.2 3.7.6 5.1.9 4.3.9 13.4.9 13 .1-.2-.3-.6-.4-3-.5-3.3-.2-8.3-.8-11-1.3-1.1-.2-2.2-.5-2.5-.5-3.9-.6-12.2-4.2-14.4-6.2-.3-.2-.9-.8-1.5-1.2-.6-.4-1.1-.8-1.2-.8v-.2c.1-.1 1.4.6 3.1 1.7 1.1.7 2.5 1.5 5.8 3.2 1.6.8 12.1 4.1 12.1 3.8 0-.1-.7-.3-1.6-.6-4.9-1.4-10.5-3.7-13-5.4-1-.7-2.2-1.4-2.7-1.7-.4-.3-.9-.6-1.1-.8-.6-.6-3.2-2.6-4.1-3.2-4.2-2.8-10.4-13-11.7-19.1-.2-1.1-.7-2.7-1-3.5-3-8.1-3.5-14.7-2-26.3 1.1-8.4 1.3-9.3 3.6-15.2 2.6-6.7 2.3-6 4.6-10.6.9-1.8 1.6-3.4 1.6-3.5 0-.2.5-1 1-1.8.6-.9 1.1-1.8 1.2-2 .1-.3.7-1.3 1.4-2.3.7-1 1.4-2.1 1.5-2.5.5-.9.5-.8.2.7-.7 3.3.1 13 1.4 17.9.1.5.3 1.3.4 1.8.1.4.3 1.5.6 2.4.3.9.6 2.5.9 3.5.9 3.7 3 8.6 4.7 10.9.5.7 1.3 1.9 1.8 2.7.4.8 1.5 2.4 2.3 3.6l2.6 3.9c.6.9 1.6 2.2 2.1 2.7.5.6 1.2 1.4 1.6 1.9 1.4 1.9 2.5 2.6 4.8 3.3 2.5.7 2.5.8 1.4-.3-1.8-1.8-4.5-5.3-5.6-7-.6-1-1.7-2.7-2.4-3.8-.7-1.1-1.3-2-1.2-2 .2 0 3.8 3.7 4.8 4.9 1.1 1.3 7.8 8 8 8 .1 0 0-.3-.2-.7-.2-.4-.5-1.3-.8-2-.6-1.8-.7-2-2.2-3.2-.7-.6-2-1.7-2.8-2.5-.8-.8-1.7-1.6-2-1.8-.3-.2-1.1-1.1-1.9-1.9s-1.8-2-2.3-2.5c-.5-.6-1.2-1.4-1.6-1.9-.3-.5-1-1.4-1.5-2a8 8 0 0 1-1.3-2.1c-.2-.5-.6-1.3-.9-1.8-1.5-2.3-5.1-10.1-5.7-12.7 0-.2-.3-1-.5-1.8s-.4-1.6-.5-1.9c0-.2-.1-.5-.2-.7-.3-.7-1.1-4.4-1.3-5.7-.2-2-.5-6.5-.3-6.4.1.1 1 6.3 1.1 7.1 0 .5.4 2 .5 2 .1 0 .1-.3 0-.7-.1-.7-.1-.7.2.2.1.5.6 1.6 1 2.5s.9 2.3 1.2 3c.8 2.4 2.4 6.4 4 9.5.8 1.7 1.5 3.1 1.5 3.1s-.4-.5-.8-1.1c-2.4-3.4-2.5-2.5-.3 2 1.7 3.6 6.5 8.7 9.6 10.2.3.1.9.5 1.5.9.5.3 1.1.7 1.3.8.2.1.1 0-.1-.4-.7-1-.7-1.1.1-.6.4.3.8.4.8.4.1-.5-.1-1-.5-1.9-.3-.5-.8-1.9-1.1-3.1-.7-2.3-1.5-3.7-3.7-6.1-5.6-6.2-9.1-12-10.2-16.7-.1-.6-.5-1.8-.9-2.7-2.3-5.7-4-16.3-2.6-15.9 1 .3 1.5-2.1.7-3.5-.2-1.1-1.8-1.4-1.8-.7m101.4.6c-.9.5-1.3 1.1-1.3 2.1 0 1.2.3 1.2 1.2.1.6-.8 1.4-1 1.4-.5 0 .8-1.7 1.7-5.5 2.9-2.5.8-2.1 3.1.6 3.7.5.1.6.2.5.7-.1.9.3 1.1 1.5.5.6-.3 1.1-.5 1.3-.5.5 0 1.6-.7 3-1.9.8-.7.7-1.1-.2-1l-.6.1.7-1.3c1-2 1.2-2.9.7-3.9-.8-1.1-2.2-1.6-3.3-1m47.3.1c-.2.3-1.1.7-1.6.7-.7 0-2.5 3.8-3.9 8.1-.7 2.3-.9 8.3-.3 10.9.8 3.4 1 4.1 1.3 3.8.1-.1 0-1.2-.1-2.6-.2-2.7 0-7.9.2-6.4.1.4.3 1.7.5 2.7.8 4.9 2.6 10.1 3.4 10.1.3 0 .3-.1-.2-2-.7-2.3-1.3-6.8-1.5-10.5-.2-5.1-.2-5.3.5-1.7.6 3.2 1.6 6.4 2 6.5.4.1.4.3-.2-2.9-.5-2.6-.7-7-.5-9.2.4-3.3.5-3.2.5.2 0 4 .1 4.7 1.6 8.9.6 1.8 1.2 3.6 1.3 4.1.1.5.4 1.3.7 1.8.2.5.6 1.3.8 1.9.6 1.3 1.9 3.3 3.5 5.1.7.8 1.4 1.7 1.6 1.9.2.2 1.1 1.2 2 2.3 1.6 1.7 2.8 3.2 2.8 3.6 0 .2.5.4.8.4.6 0-1.5-4.9-3-7-.7-1-2.7-4.1-2.7-4.3 0-.2-1.3-2.9-2.6-5.4-1.5-3-3.5-8.4-4.1-11.3-.5-2.2-.6-3.4-.8-7.1-.1-2-.2-2.4-.7-2.8-.3-.1-1.1-.1-1.3.2m-37.7 1.3c-.7.6-2 .7-3.8.4-1.5-.3-1.9.8-.8 1.9 1.2 1.1 1.3 1.1 2.3.9.5-.1 1-.2 1.1-.2.4 0 1.7-1 2.2-1.7.9-1.5.2-2.4-1-1.3m54.6.3c.4.6 1.6 2 1.6 1.7 0-.3-.8-1.5-1.3-1.8-.5-.2-.5-.2-.3.1m-53.7 2.1c-.3.3-1 .8-1.5 1-1 .4-1.1.8-.2.8.3 0 .8.2 1.2.6l.7.6-.7-.2c-1.8-.5-3.6 0-2.2.6.7.3.6.7-.2.5-1.3-.2-1.4 1.5-.1 2.9.4.4.8 1.2 1 2.1 1 3.3 3.4 4.1 6.2 2.1 4.2-3.1 3.4-8.1-1.6-10.6-.6-.3-1.1-.6-1.1-.7-.4-.5-1-.3-1.5.3m-51.7 0c-1.6.5-2.6 1-2.8 1.3-.2.3-1.4.9-2.3 1.1-.6.1-1 .8-1 1.8 0 .5-.1.7-.4.8-.7.3-1.2 1.1-1.3 2.1-.1.7-.2 1-.9 1.5-.4.3-.8.8-.8.9s-.2.5-.4.7c-1.3 1.1 1.8 6.7 5.6 10.2 2.2 2 2.5 2.1 1 .1-1.1-1.5-1.9-2.8-1.7-3 0 0 .7.6 1.5 1.4.8.8 1.5 1.4 1.5 1.4.1-.1-.5-1.5-1.6-3.1-1.6-2.4-2.4-4-2.4-4.4 0-.2.1 0 .3.3.4 1 2 3.1 2.3 3.1.3 0 .4-.8.1-1.1-.2-.2-1.1-2.6-1.3-3.4-.1-.3 0-.2.3.3 1 1.6 1.4 1 .8-1.2-.3-1.3-.4-3.2-.1-2.9.1.1.3.8.4 1.5.5 2.6 1.3 5.1 1.6 5.1.1 0 .1-1.5.1-3.4-.1-3.9.3-3.2.7 1.4l.4 4.4c.1 1.2.2 2.5.3 2.8 0 .4.2.9.3 1.2s.3.7.4 1c.2.7 1 1.6 1.5 1.6.3 0 .4.1.3.3-.1.2-.1.5-.1.6 0 .2-.7 1.1-1.7 2-2.3 2.3-2.1 1.8-2.2 7.8 0 2.9-.1 6.3-.2 7.6-.2 4-.3 11.5-.1 12.5.1.5.2 1.5.3 2.1.1.6.2 1.2.2 1.4 0 .2.1.7.2 1.2s.3 1.9.5 3.2c.5 3.2.4 3-.5-.4-1.1-4.8-1.6-7.9-1.8-13.5-.1-1.4-.2-1.8-.4-1.6-.9.9-.6 15.7.4 18.5.2.5.4 1.4.6 2.1.3 1.3 1.4 4.2 2.1 5.7.8 1.8 4.5 7.1 5.9 8.6.3.3.7.7.9 1 1.5 2 7.7 8.3 10.4 10.6 5.6 4.8 12.4 9.9 14.9 11.2l1 .5-1.7-1.7c-.9-.9-2.4-2.3-3.2-3-3-2.5-4.6-4-6.3-5.9-2.5-2.8-2.4-3 .2-.7 1.9 1.6 2.3 2 4.1 3.1.9.6 2.3 1.5 3 2.1.8.5 2.1 1.4 2.9 1.9 4.3 2.7 4.9 3.1 6.9 5.6 1 1.3-.1-1.3-1.6-3.6-1.1-1.7-1.1-1.9.1-.7 3.8 4 5.8 9.6 4.8 13.5-2.3 8.7-11.5 13.3-14.9 7.5-.2-.4-.4-.9-.4-1.1 0-.6-1.5-2.7-2-2.7-1.3 0-2.4 3.6-2 6.6.3 2.4.2 2.9-1.1 3.6-1 .6-1.3 1.2-.8 1.6.4.3 6.6.1 8.3-.2l1.8-.3-.9-.3c-.8-.2-1.2-.3-3-.6-.9-.1-1.9-.6-1.5-.7.2 0 .4-.1.5-.1.1 0 .3-.1.4-.1.1 0 0-.5-.3-1.3-1-2.4-1-2.6.1-1.5.5.5 1 .9 1.1.9.1 0 .4.2.7.5 2 1.9 8.8 1.8 12.6-.1 2.9-1.5 6.4-7.2 7.4-12.1.1-.6.4-1.4.6-1.8.7-1.3.3-2.9-1.4-6.6-.8-1.7-.8-1.7-.2-1 .3.4.6.6.6.5 0-.2-1.6-2.4-1.8-2.5-.1 0-.7-.6-1.4-1.3-1.9-2-8.8-6.9-10.9-7.7-.5-.2-1.6-1-2.6-1.8l-3.6-2.9c-1-.8-2.2-1.8-2.5-2.1-.4-.3-1.3-1.1-2.1-1.7a27 27 0 0 1-2.2-1.8c-.5-.4-1.6-1.2-2.4-1.7-6.8-4.6-13.9-20.9-16.3-37.6-.2-1.1-.4-2.6-.5-3.4-.5-3.5-.3-5.6.3-2.8.2.8.7 2.7 1.1 4.1 1.8 6.1 2.2 7.3 2.5 8.9 1.6 8.6 2.4 11.4 2.4 8.5 0-.8-.2-2.5-.4-3.8-.2-1.3-.6-3.8-.8-5.5s-.4-3.4-.5-3.8c-.2-1.6.4-.6.8 1.2.1.3.2 1.2.4 2s.3 1.7.2 1.9c-.1.2 0 .3 0 .3.1-.1.2.3.4.8.3 1.3.3-1.8 0-5.9-.1-1.6-.3-4.1-.5-5.6-.1-1.5-.4-3.4-.6-4.3-.2-.9-.4-1.9-.5-2.2a20 20 0 0 0-1.1-3.9c-.2-.5-.4-1-.3-1 .2-.2 1.9 2.2 1.9 2.5 0 .2.3 1.7.7 3.5.7 3.2 1 5.6 1.6 11.6.2 1.7.5 4.5.8 6.2.3 1.7.5 4.3.6 5.8.2 4.5.3 5.9.6 6.5.1.3.3 1.3.3 2.1.2 3 2 5.8 7.4 11.2 9.4 9.4 11.5 11.3 14.8 13.1.9.5 2.1 1.2 2.6 1.5.5.4 2 1.2 3.2 1.9 1.2.7 2.5 1.5 2.8 1.8.3.3.8.7 1.2.9 4.5 2.9 8.7 10.1 9.4 15.8.2 1.8-.3 5.1-1.2 7.5-.4 1.2-1.1 2.9-1.4 3.9-.3 1-.7 1.9-.8 2.1-.2.4-1.1 1.8-1.8 2.7-1 1.2-.2 1.8.9.7 1.2-1.3 1.6-1.8 2-2.5.2-.4.9-1.2 1.4-1.9.5-.7 1.1-1.6 1.3-2.1l1.1-2.7c.4-1 .7-1.9.7-2.1 0-.2.1-.3.2-.2.6.4-.5 6.3-1.6 8.5-1 2 1.6-1.5 3-3.9 1.6-2.9 1.6-2.8 1.4-1.9-.2.8-1.1 3.2-1.6 4.1-.2.4-.7 1.1-1 1.7-1 1.8-2.1 3.2-3.9 4.9-2.7 2.5-5.5 6.3-5.5 7.5 0 .8.3.6.8-.5.3-.6.8-1.3 1.2-1.7.4-.4.7-.8.7-.9 0-.1.3-.4.7-.7.4-.3 1.2-1 1.8-1.5.6-.6 2-1.6 3-2.3 3.2-2.1 5.3-4.6 7.1-8.4.9-1.9.9-2 1.4-6.5.4-4.4-3.2-15.5-6.1-18.5-1-1 .1-.4 1.4.8 1.4 1.3 2.3 2.7 3.4 5.3 2.3 5.5 2.6 5.8 3.1 5.2.1-.2-.2-4.7-.5-6.2l-.1-.6.3.6c.4.9.9 2.9 1.6 7.4 1.1 6.6 1 7.4-1.5 12.2-.2.4-.6 1-.9 1.4-.5.7-.7 1.4-.2 1.4.7 0 3.9-4.3 5-6.7.3-.6.5-1 .6-.8 0 .6-1.5 4.5-2.3 5.8-1 1.8-.6 1.7 1.3-.4 2.2-2.3 3.1-3.9 3.4-6.4.1-.5.2-.8.3-.8.2 0 .1.9-.1 2.8-.1.7-.1.7.3.6 2-.6 3.4-8.9 2.4-13.9-1.2-5.9-5.7-13.3-9.4-15.5-.6-.4-1.9-1.4-2.9-2.2-1-.9-2.6-2.1-3.6-2.8-1-.7-2.7-1.8-3.8-2.6-1-.7-2.8-1.9-3.9-2.6-1.1-.7-3.2-2.3-4.7-3.5-3.4-2.7-5.4-4.1-8.4-5.8-6.5-3.7-13.5-10.1-15.9-14.4-.4-.6-.8-1.4-1-1.7-.5-.8-1.2-2.1-.8-1.6.2.3.6.8 1 1.2.4.4 1.2 1.3 1.8 2.1.6.8 1.5 1.7 2 2 .5.4 1.5 1.3 2.3 2.1 1.7 1.6 6.6 5.4 8.3 6.4l6.5 3.7c1.3.7 1.4.6.7-.8-.3-.6-.7-1.6-.9-2.2-.2-.6-.6-1.5-.8-2-.3-.5-.5-1-.5-1 0-.1-.2-.5-.4-1-2-4.4-4.3-12.9-4.6-16.8-.4-5.6-.4-7.6.1-4.6.3 2.2.4 2.7.6 3.7.1.5.2 1.2.3 1.6s.3 1.6.6 2.7c.6 2.7.5 2.3.9 3.7.2.6.4 1.3.4 1.5.1.4 1.5 4.8 2 6 .2.5.4.8.5.8.1 0 .1-.1 0-.2-.3-.4-.9-4-1.6-9.9-.3-2.2-.2-6.9 0-8.1.3-1.5.4-13.7.1-14.3-.3-.5-1.8-1.2-2.7-1.2-.7 0-.7-.4-.1-.7l.5-.2-.4-1c-.6-1.3-1-1.8-1.6-1.8-.6 0-.6-.3-.1-.5.6-.2.5-1.6-.2-2.1-.8-.6-3.2-.7-7.4-.5-6.2.4-10.2.3-13.2-.3-1.4-.3-2.9-.5-3.4-.6-1-.1-4.6-1.3-5.2-1.8-.6-.4-1.2-.4-1.2.1s-.3.5-.5 0c-.1-.2-.3-1.4-.4-2.8-.6-5.5-1.2-9-1.3-7.6-.1 2.4-.2 4-.4 4.6l-.2.6-.1-.7c-.5-3.2-.7-8.8-.3-8.2.1.2.2.4.2.6 0 .6.6.4.8-.3l.2-.6v.7c.1 3.1.7 4.2.9 1.6.5-5.9.5-8.7.2-9-.2-.7-1.6-.6-2.9-.2m42.2 1.5c-.1.5 0 .8.2.9.4.3 0 .7-1.6 1.3-2 .8-2.7.7-3.8-.7-.3-.4.4-.3 1 .2 1.1.9 2.3.7 2.1-.3-.1-.3 0-.3.4-.3.4.1.6-.1 1-.9.7-1.1.9-1.2.7-.2m1.4 2.8c-.8.5-.8.5-.2 1.1.6.6.4.7-.5.2l-.7-.4-1 .5c-.8.4-1.1.7-1.5 1.5l-.5 1 .1-.7c.2-1.7-1.4.3-1.7 2.2-.9 5.7 7.4 7.7 10 2.4 1.6-3.6-1.2-9.6-4-7.8m-105.6 4.1c0 .5-.1.1-.1-.8s0-1.3.1-.8c.1.4.1 1.2 0 1.6m95.9-1.4c-1 .5-3 1.6-4.6 2.5-1.6.9-3.1 1.7-3.5 1.9-1.5.7-5.6 3.2-5.9 3.6-.5.6-.5 1.9.1 2.4.8.8 1 .7 9.3-3.3 2.3-1.1 4.8-2.3 5.5-2.6.7-.3 1.4-.7 1.4-.9.5-2 .5-2.7.1-3.5-.5-1.1-.5-1.1-2.4-.1m28 1.9c0 .1-.3.7-.5 1.3-.2.6-.6 1.4-.9 1.7-1 1.2-.5 1.7.8 1 .4-.2 1.1-.5 1.5-.6 1.1-.3 1.2-.5.7-1.1-.4-.5-.5-1.2-.6-2.1 0-.3-.9-.4-1-.2M171 227.3c-2.1 5.3-3.2 11.1-3.4 17.2-.1 2.1-.2 4.4-.3 5.2-.6 3.9-.1 11.3 1.1 15.9 0 .2.3 1.2.6 2.2.3 1.1.5 2.2.6 2.4.1.3.2.7.2 1 .1.5.1.5-.2.1-.4-.5-.8-1.7-1.5-4.4-.3-1.2-.7-2.4-.8-2.6-.2-.3-.6-2.5-1-5.1-.1-.7-.2-2.9-.2-4.9 0-3.7-.2-4-.5-.9-.1 1-.2 1.8-.2 1.9-.1 1.2-.3-.1-.2-1.7.1-1.2.1-3.2.1-4.4 0-2.1.2-4 .5-6 .1-.5.1-.8 0-.8-.1.1-.7 3.3-1 6.2-.4 3-.5 3.5-.7 3.5-.1 0-.1-.7-.1-1.5.1-2.3-.1-1.6-.6 2-.5 3.5-.6 8.8-.3 11.5.3 1.9.6 5.1.7 6.6 0 .8.1 1.7.2 2 .1.3 0 .6-.1.6s-.2-.3-.3-.7c-.1-.4-.3-1.7-.5-3-.5-3.1-1.1-7.7-1.2-9.8 0-.9-.2-1.8-.2-1.9-.1-.1 0 4.2.2 9.9.1 2.2-.5-.8-.8-3.9-.1-1.7-.3-1.6-.3.3-.1 3.9.3 8.6.9 11.2 1.2 5.3 4.4 13.6 6.2 16.5.6.9-.1.2-1.9-2.1-.9-1.2-1.8-2.4-1.9-2.8-.1-.4-.6-1.5-1.2-2.4-.5-.9-1.1-2.1-1.2-2.6-.1-.5-.4-1-.5-1.2-.2-.2-.3-.6-.3-.8 0-.2-.1-.5-.2-.6-.1-.1-.2-.3-.2-.6s-.1-.5-.4-.5c-.4 0-.4-.1.1 2.6.6 3.2 1.6 6.5 2 7 .1.1.5 1 .8 1.9 3 8.1 12.6 17.6 22 21.7 2.1.9 2.5.9 1.1.1-4-2.5-5.9-4.1-9-7.4l-2.4-2.5 1.5 1.1c1.6 1.2 5.3 3.2 6.9 3.8.6.2 1.6.7 2.4 1.1.8.4 2.5 1 3.9 1.5 1.4.4 3.2 1 3.9 1.3 1.2.4 4.4 1.1 4.5 1l-2.2-.9c-2.7-1-4.3-1.7-4.3-2 0-.1.1-.1.2-.1 2.8.9 10.9 2 10.9 1.5 0-.3-.2-.3-1.4-.5-.6-.1-1.7-.3-2.4-.4-.8-.2-2.1-.4-3-.6-2.3-.4-7.3-2.1-7.3-2.4 0-.1.9 0 3.2.5 3.8.7 10.1 1.4 10.1 1.1 0-.8-.7-1.6-1.7-2-1.4-.5-4.5-2-4.5-2.2 0-.2 0-.2 2.6.4 3.2.7 3.4.4.3-.6-1.1-.3-2.4-.8-2.8-1-.4-.2-1.1-.5-1.5-.7-1.2-.5-.7-.5 1 0 .9.2 1.6.4 1.6.3 0-.1-.1-.2-.2-.2s-.8-.2-1.5-.5-1.9-.7-2.6-.9c-1.3-.4-2-.7-1.8-.9.1-.1 4.2.4 4.9.6.9.2.5-.1-1.3-1-2.7-1.4-2.8-1.7-.2-.9 2 .6 1.8.5-.7-.8-5.7-2.8-11.3-8-14.9-13.8-3-4.9-4.4-8.5-6.7-17.9-.1-.4-.3-.7-.4-.6-.1.1-.1.2-.1.3 0 .1.1.8.2 1.4.1 1.2.2 1.7.4 3.2.3 2.4-1-2.6-2-7.5-.8-4.1-1-8.5-.6-13.2.1-1.1.3-3.2.4-4.7.1-1.4.3-3.6.5-4.9.2-1.2.4-2.9.5-3.8.1-.9.4-2.4.6-3.3.5-2.5.6-3.3.4-5l-.1-1.5-.4 1.3m-24.4.5c-.7 1-2 1.9-3 2.1-.9.2-.8.8.2.8 2.7-.1 5.8-2.4 4.6-3.5-.5-.5-1.1-.3-1.8.6m67.4.8c-2.1.6-2.4.7-3.6 2.3-.5.7-1.4 1.7-1.9 2.3-.9 1-2.1 3.3-3.1 5.6-.6 1.4-.7 6.7-.1 8.2.2.5.4 1.6.6 2.5.3 1.8.4 1.9 1.1.7l.4-.9-.1 1c-.1 1-1.8 4.4-2.5 4.8-.2.1-.6.9-.9 1.8l-.6 1.7.4 1.8c.2 1 .7 2.4.9 3 .3.8.5 1.6.5 2.4 0 .9.1 1.3.4 1.6.3.3.5.9.6 1.7.2 1.6.8 3.5 1.6 5.3 1.7 3.6 1.9 4.2 2.6 5.6.9 1.8 1.6 2.5 1.4 1.4 0-.1.1-.6.2-1.2.1-.7.1-1.1 0-1.2-.3-.3-.2-.5 0-.5.5.1.4-.9-.5-3.5l-.8-2.7v-3.7c0-3.7-.2-4.5-.5-1.4-.1 1.7-.4 1.7-.4-.1-.1-1.8-.5-2.3-1-1l-.2.5-.2-.5c-.1-.4-.2-.4-.5-.2-.2.1-.3.2-.3 0s.6-.7 2-1.7c.6-.4 1-.8 1-1.1.1-.8 7.9-8.7 10.2-10.4 3.7-2.7 5-6.9 3.6-11.8-.5-1.9-.7-4-.3-5.5l.3-1.2.3 2.1c.2 1.2.3 2.4.3 2.6 0 1.1.7.7 1.5-.8 2.1-3.9 1.2-7.7-2.2-9.3l-1.5-.7h-3.6c-3 .1-3.6.1-5.1.5m87.2 1.8c-3.6.9-4.4 1.2-6.4 2.4-1 .6-2.6 1.3-3.5 1.7-1 .4-2.5 1.1-3.4 1.6-1.9 1-2.7 1.1-1.3.1 1.2-.9 1.2-1-.3-.9-1.1.1-1.7.4-3.5 1.4-1.1.7-1.1.2.1-.8l1.1-1-1.1.1c-.8 0-1.4.2-2.2.7l-1.1.6.7-.7c.4-.4.7-.8.6-.8-.3-.3-1.6-.1-2.1.3-.6.4-.8.4-1.5-.4-.1-.2-.7-.3-1.2-.3h-1l-.6 1.2c-1 2 0 4.7 1.3 3.6.3-.2.3-.1.2.9-.1 1.3.1 2 .6 2 .2 0 .3.1.3.2 0 .5.6.1 1.3-.8l.8-1c.1 0-.3 1-.6 1.3-1.1 1.5.3 4.3 1.8 3.5.3-.2.7-.4.9-.5.2-.1 1.3-.8 2.3-1.5 2.4-1.6 7.7-4.2 10.4-5.2 1.4-.5 3.9-1.1 5.5-1.3 1.4-.2 2.1-.5 3.5-1.5.5-.3 1.4-.9 2.1-1.2 3-1.5-.1-1.5-6.9-.1-.4.1-.4.1 0-.2.2-.2.5-.3.6-.3.1 0 .6-.2 1.1-.4.5-.2 1.9-.6 3.1-.9 1.2-.3 2.3-.5 2.4-.6.5-.3-.9-1.9-1.6-1.8.1-.1-1.1.2-2.4.6m67-.3c-1.1 1.1 1.9 3.4 4.6 3.5.9 0 1.1-.6.2-.8-1-.2-2.4-1.2-3-2.1-.7-.8-1.3-1.1-1.8-.6m-126 .3c-.9.4.2.8 8.1 3.1 2 .6 2.9.2 2.5-1.1-.1-.5-.1-.5-3.6-1.3-1.9-.6-6.4-1-7-.7m56.1.3l-.4.2h.4c.2 0 .5-.1.7-.2.4-.3-.1-.3-.7 0m-44.9.3c-.5.2-.3 1 .3 1.2.3.1.7.2.8.4.6.8 2.2-.1 1.6-.9-.3-.6-2-1-2.7-.7m18.8.7c-2.8.8-6 4-6.4 6.5l-.1.7h1c1.4 0 2.1-.4 3.2-1.6.9-1.1 2.4-2.1 3-2.1.5 0 2.1-2.9 1.9-3.3-.2-.4-1.4-.5-2.6-.2m38.4 1.8c-.7.3-2.3 1.2-3.3 1.9-.4.3-.9.5-1 .5-.3 0-1.1.8-1.1 1.1 0 .1.1.2.3.1.5-.1 2-.3 3.3-.4 1.5-.1 4.5-.5 5.3-.7 1.1-.3.4-1.6-1.4-2.6-.6-.2-1.2-.3-2.1.1m-139 .4c-.1.3-.2 1.1-.3 1.8-.1.7-.3 1.7-.4 2.1-.1.5-.2 1.3-.3 1.9 0 .5-.2 2.1-.5 3.6-.5 3.4-.8 13.6-.4 13.5.2-.1.3-.6.4-2 .1-1.1.3-3.1.5-4.5s.3-3.2.4-4c.1-1.7.7-5.9 1.2-7.4.3-1.3.4-2.2.1-3.9-.3-1.5-.5-1.9-.7-1.1m79.8 1c-.3.4-.1 1.6.4 2.2 1 1.3 3.3 1.4 4.5.2 1.2-1.2.7-2.3-.6-1.4-1 .7-2.2.4-2.7-.6-.5-.8-1.2-1-1.6-.4m-31.3 1.9c0 .7.1 1.4.1 1.7.8 4.4.6 5.8-1 7.8-1 1.3-1.4 1.5-3.1 1.5-3.7 0-5.2-4.3-3-8.8 1.1-2.2 1.6-2.7 1-1-.5 1.4-.6 1.8-.3 1.6.3-.2.2 0-.1.7-.4.7-.2 1 .3.4.4-.5 1.2-1 1.2-.7 0 .1-.2.4-.5.6-.8.7-.6 1.1.3.6.7-.4 2.4-.3 3.2.2.9.5 1 .5.8-.2-.1-.3 0-.6.1-.7.1-.1.2-.8.2-1.6 0-1.3.4-3.3.7-3.3.1-.1.1.5.1 1.2m91.1 1.3c-.5.3-.1.8.8.9 1 .2 1.9.5 3 1.3.4.3 1.7 1 2.7 1.7l1.9 1.2 2 .1c2.3.1 2.4 0 .7-1.5-2.4-2.3-9.8-4.6-11.1-3.7m-13.2.5c-1.8.5-3.4 1.2-5.8 2.7-3.5 2.2-3.9 2.5-3.9 3 0 .6.3.6 2.4-.3 2.2-.9 4.1-1.7 5.7-2.2 1.9-.6 6.5-1.2 6.3-.8-.1.1-.3.2-.6.2-.4 0-4 .9-4.2 1.1 0 0 1.2.1 2.7.2 1.5.1 3.1.2 3.5.3.4.1 1.5.1 3.1 0 3-.3 5.3-.3 7-.1l1.3.2-.8-.7c-1.9-1.7-5-3-7-3-.7 0-1.3-.1-1.5-.3-.9-1-5.4-1.1-8.2-.3m-57.2 1.2c0 .2-.1.4-.2.5-.2.1-.3 0-.3-.4 0-.3-.1-.5-.2-.6-.1-.1-.2-.2-.2-.3-.1-.3.8.4.9.8m-6.3-.2c-2.9.7-7.8 2.9-7.9 3.6-.2 1.5.2 1.6 2.9.6 2.4-.9 5.4-1.9 5.7-1.9.4 0 1.1-.8 1.1-1.2 0-1-.7-1.4-1.8-1.1m11.7 1.3c3.5 1.2 7.5 1.8 11.8 1.9 1.9 0 3.2.1 2.9.1-.5.1-.5.2-.5.6l.1.5h-2.1c-1.1 0-3.6-.1-5.5-.3-5.4-.5-4.4.3 2.3 1.9 1.8.4 3.7.6 8.7 1 1.3.1 2.2.2 1.9.2-.2 0-1.1.2-1.9.4-3.1.8-11.2-.6-17.2-2.9-2-.8-2.3-.4-.8 1l.9.8-.9-.5c-1-.6-2.6-2-2.6-2.4 0-.1-.2-.4-.4-.7l-.4-.5 1 .4c.5.2 1.1.5 1.2.6.1.1.8.2 1.6.2 1.9.1 1.9-.3.1-1.2-1.8-.9-2-1.7-.2-1.1m-79.2.6c0 .1-.2.8-.3 1.6-.3 1.4-.6 4.4-.4 4.2.1-.1.2-1 .3-2.1s.3-2.2.4-2.4c.1-.2.2-.6.1-.9 0-.4-.1-.5-.1-.4m100.4.8c.4.3.3.3-1.6.3-2 0-2 0-.8-.2.7-.1 1.3-.2 1.4-.3.1-.2.5-.1 1 .2m-81.6.4c0 .3.3.8 2 3.4 2 3 8.1 9.3 10.6 11 1.8 1.2 2.2 1.3 1.1.2-1.2-1.1-3.8-4.1-3.7-4.2.1-.1.7.3 1.4.7 1.6 1 1.7 1 .5-.3-.8-.9-1.8-1.8-5-4.4-1.5-1.3-6.2-6.1-6.2-6.4 0-.1-.5-.4-.7-.4 0 .1-.1.2 0 .4m48.4 1.2l-.8.3v1.2c0 1.1.9 2.9 1.1 2.2 0-.1.1-.5.2-.9s.2-.8.4-1c.3-.4.7-1.3.7-1.7-.1-.5-.4-.5-1.6-.1m77.4.6l-3.5.1 3.2.8c1.8.5 3.8 1.1 4.6 1.3 4.1 1.5 7.1 2.6 8.1 2.8.6.1 2.3.7 3.7 1.1 3.6 1.2 4.8 1.5 6.9 1.6 2.5.2 2.8 0 1.6-.8-.5-.3-2-1.3-3.2-2-2.8-1.8-6.2-3.1-10.7-4.1l-.4-.2c0-.1-.2-.1-.5-.1s-1.8-.2-3.3-.3-2.7-.3-2.8-.3c-.1 0-1.7.1-3.7.1m-28.2.5c-.4.2-.7.4-.7.5-.6 2.5-1.6 4.6-3 6-1.2 1.2-1.3 1.6-.6 1.6.3 0 .5-.1.5-.2s.1-.2.3-.2c.3 0 2.3-1.4 2.3-1.7 0-.1.3-.5.6-.8.7-.7 1.1-1.4 1.6-3.1.7-2.3.5-2.7-1-2.1m9.8.9c-.2.3.2.6.9.8.4.1 1.5.5 2.6.8 4.4 1.5 9.3 2.5 13.7 2.8 2.2.1 9.6.7 11.7 1 1.2.1 1.2-.1 0-.5a141.31 141.31 0 0 0-12.4-3.8c-1.3-.3-3-.6-4.8-.7-1.5-.1-2.9-.2-3.2-.3-.8-.2-8.3-.3-8.5-.1m-45.1.4c.4.2.8.5.8.6 0 .1-1.2-.5-1.6-.9-.5-.2 0-.1.8.3m31.1-.2c-.1.1-.4.4-.5.8-.2.4-.5.8-.8 1-.4.3-.5 1.2-.2 2.6.3 1.5 3.1-.5 3.6-2.6.3-1.2.2-1.6-.6-1.6-.3 0-.8-.1-.9-.2-.3-.1-.5-.1-.6 0m-39.2 1c.4 1.3 1.1 3.9 1 4-.1.1-.2-.4-.3-.9-.1-.6-.5-1.6-.7-2.4-.3-.7-.5-1.4-.5-1.6 0-.3.3.1.5.9m7.4 1.8c1.9 1 2.5 1.1 5.8 1.6 4.5.6 8.1.1 12.1-1.7 3.2-1.4 3.5-1.6 3.4-2.1-.1-.6.3-.6.8-.1.4.4.4.4 0 1-.6 1-.1 1.7.6.8.2-.2.4-.1 1 .8l.8 1.1-.3.7c-.2.4-.4 1.2-.5 1.8-.2 1.1-.5 2.6-.7 3.1-.1.2-.1.4-.2.5s-.1.2-.1.3c0 .1-.1.3-.1.6s-.2 1.6-.5 2.9c-.2 1.3-.4 2.7-.4 3.1 0 .5-.1.7-.3.7-.5 0-.1-5.8.5-8 .3-1.2.9-6 .7-6a7 7 0 0 0-1.5 1.4c-1.7 1.8-1.8 1.6-.2-1.1.5-.9.5-.9-1.1.1-2.4 1.5-5 2.3-2.9.9 1.1-.8 2.5-2 2.4-2.1 0 0-.6.2-1.3.5-7 3.2-11.5 3.5-15.9 1.3-2.1-1.1-2.7-1.2-1.9-.5.9.8 4 4.7 3.8 4.9 0 0-.7-.4-1.5-1s-1.4-1.1-1.4-1c0 .1.3 1.1.8 2.4.5 1.6.8 3 1 4.6.7 7 2.1 12.4 4.4 17.5.9 2.1 1.6 3.4 5 10.2 1.2 2.4 2 4 1.7 3.7-.3-.3-.5-.8-.6-1-.1-.2-.4-.7-.7-1.1a16 16 0 0 1-1.3-2.1c-1.1-2-1.5-2.3-.7-.5.6 1.5.3 1.3-.5-.3-.7-1.4-.8-1.2-.1.8.6 2 2.2 5.5 3.3 7.4.6 1.1-1.3-1.3-2.9-3.5-1.2-1.7-3.7-7-4-8.4-.1-.7-.5-2.3-.8-3.6-.3-1.3-.8-3.3-1-4.4-.2-1.1-.6-2.7-.8-3.5-.4-1.7-.7-3.4-1.1-7.1-.2-1.9-.5-3.3-.9-4.6-.3-1-.8-2.8-1.1-4-.6-2.2-1.3-4-2.3-5.2-.3-.4-.6-1-.7-1.4-.1-.4-.4-.9-.7-1.2-.2-.3-.6-.8-.9-1.3l-.5-.8 1.1.9c.9.7 2.2 1.6 3.2 2m41.4-.5c-.3.6-.7 1.3-.9 1.6-.3.5-.3.5 0 .8 1.6 1.1 1.6 1.4.2 1-1.1-.3-1.6-.1-1.8 1-.1.5 0 .7 1.6 2.2.9.9 1.6 1.7 1.4 1.7-.3 0-2.6-1.4-2.7-1.6-.1-.4-.4-.1-.4.4 0 1 2.1 2.5 6.1 4.4 4.3 2.1 6.7 3.2 7.4 3.4.8.3 6.1 2.9 6.4 3.2.2.2-.4.2-.8 0-.2-.1-1.7-.6-3.3-1.1-4.3-1.4-5.1-1.6-6.4-2.2-.6-.3-1.5-.7-2-.8-.4-.1-1.6-.6-2.6-1.1-2.2-1-2.4-1-.9.2.6.5 1.2.9 1.2 1 .1.1.6.4 1.1.8 1.3.9 1.1 1.1-.3.4-.3-.1-.6-.3-.7-.3-.1 0-.2-.1-.2-.2s-.1-.2-.2-.1-.7-.2-1.3-.6l-1.2-.7.8.7c.7.7 3.1 2.5 4.1 3.2 2.1 1.5 2.1 1.7.1.7-2.9-1.4-5.5-2.9-6.6-3.8-2.6-2.2-2.9-2.4-4-1.9-1.2.5-1 1 1.8 4.1.8.9 1.4 1.6 1.2 1.5-.3-.1-1.6-1.2-2.8-2.3-1.6-1.5-2.2-1.6-1.8-.4.4 1.2 7.6 7.3 11 9.3 1.1.7.8.6-1.2-.1-4-1.5-7.1-3.3-9.9-5.7-.3-.3-.3-.2-.3.9v1.2l1.1 1c.6.6 1.8 1.7 2.6 2.5s2.1 2 2.8 2.5 1.8 1.4 2.2 1.9c.5.4 1.3 1.2 1.8 1.6.5.4 1 .9 1 1 .2.6-7-4-8.3-5.2-2.4-2.3-3-2.6-2.7-1.7.1.4.2 1 .3 1.4.2 1.1 4 5.1 7.6 8 1.1.8 1.9 1.5 1.8 1.5-.7 0-4.9-2.8-7.3-4.9-.8-.7-1.2-.9-1.2-.7.1.2.2.8.3 1.3.7 2.9 1.3 3.8 3 4.8.3.2.7.4.9.5.3.2 3.2 1.8 4.9 2.7.6.3 1.4.7 1.9.8.4.1.9.3 1.2.5s.5.2.7.3c.4.1.5.3.1.3-1.2 0-5.2-1.4-8.2-2.7-1.8-.8-1.8-.7-.6 1 1.6 2.4 2.7 3.2 4.8 3.7 4.4 1 8.1 1.1 13.3.2 2.7-.5 3.2-.5 4.8-.3 1 .1 2.5.3 3.4.3 1.6.1 4.1.9 4.9 1.4.7.5 1.3.4 1.3-.3 0-.6-.1-.6-3.7-2.4-2-1-4.4-2.2-5.2-2.7-2.6-1.6-6.7-3.6-9.1-4.6-1.2-.5-2.7-1.2-3.2-1.6-.5-.4-2.3-1.5-3.8-2.5-4.4-2.9-4.6-3.3-.8-1.4 3.1 1.5 7.1 3 10.9 4.1 5.9 1.7 10.9 3.9 14.6 6.3.6.4 1.8 1.1 2.6 1.6.9.5 2.3 1.6 3.1 2.4.9.8 2.1 1.9 2.7 2.4.6.5 2.1 2.1 3.2 3.4 1.1 1.3 2.6 3 3.3 3.7 1.1 1.2 2.4 3 4 5.6 2.7 4.3 4.1 6.2 6.3 8.2.4.4 1.5 1.5 2.4 2.5 3.7 4 8.3 7.2 12.1 8.2 1.8.5 5.9 1.2 6.9 1.2.4 0 .9.1 1.2.2.2.1.7.2 1 .2.6 0 .6 0-.3.5-.5.3-1 .6-1.2.8-.2.2-.5.2-1.2.1-.5-.1-1.7-.2-2.8-.3-6-.4-8.3-1.1-11.6-3.9-3.2-2.6-5.2-4.8-6.8-7.5-1.9-3.1-2.4-3.7-4.3-5.5-.9-.8-2-1.9-2.3-2.3-.8-.9-5-4.5-5.7-4.8-.6-.3-.2.4 1.7 2.9.8 1.1 1.8 2.6 2.2 3.3s.9 1.6 1.2 1.9c.3.4.6.7.6.9 0 .1.5 1 1.1 1.8.6.9 1.8 3 2.7 4.7 2.8 5.2 5.5 7.9 10 9.9 3.3 1.5 4.5 1.4 1.5-.1-.9-.5-2.1-1.3-2.6-1.7-.5-.5-.8-.8-.6-.7 3.3 2.3 12.3 4.1 14.3 2.9.1-.1.2-.1.2 0 0 .3-2.5 1.6-4 2.1-2 .6-5.3.6-7.1-.1-1.5-.5-1.2.2.5 1.1.8.4 1.1.8.8.8-.2 0-3-1.4-4.3-2.1-2.5-1.4-7.9-6.8-10.1-10-1.8-2.6-1.8-.7 0 3.1 2 4.1 8.5 9.8 13.7 12 .9.4-1 0-2.7-.5-4.1-1.3-7.6-3.7-10.8-7.4-1.5-1.8-1.6-1.8-1.2-.4.7 2.7 2 5 3.7 6.8.2.2.3.4.3.5-.2.2-3.4-3.1-3.8-3.9-.8-1.5-.8-.6-.1 1.2.4 1 .6 1.8.4 1.7-.3-.2-1.1-1.8-1.5-2.9-.5-1.3-.6-.8-.3 1.4.4 3.1 1.6 5.4 3.1 6.2.4.2 1.4.7 2.1 1.2 3.5 2 6.4 2.7 10.5 2.2 11.4-1.2 14.7-.9 17.5 1.3.4.3 1 .8 1.4.9.8.4 1.5 1.2 2.1 2.4.6 1.2.9 2.1.6 2-.1-.1-.2-.2-.2-.3 0-.3-1.5-2.1-2-2.5-.6-.4-.7-.2-.2.5.7.9 1.8 5.6 1.8 7.5 0 4-2.6 8.9-6.4 11.9-.7.5-1.6 1.3-2.1 1.7-.8.7-5.3 3.5-5.6 3.5-.3 0-.1-.3.6-.8 5.8-3.9 11.8-11.7 10.6-13.7-.1-.2-.8.9-.8 1.4 0 .1-.3.5-.6.8s-.6.8-.6.9c0 .2-1.7 2.4-2 2.5-.5.2-9.1 6.1-10.7 7.3-5.4 4.1-7.4 6.3-7.7 8.6-.1.4-.2.9-.3 1-.4.6-.4 4.1.1 5.1.9 1.9 2.8 3.1 5 3.1.4 0 1.5.2 2.3.4 1.9.5 2.8.5 4.2.1 1.6-.5 1.3-1-.5-1-1.3 0-1.9-.3-1.4-.8.4-.4.3-.4-.8-.8-1.4-.5-3.4-1.9-3.5-2.6-.1-.5-.2-.6-.3-.3-.2.3.1 2.3.3 2.7.1.1 0 .1-.2.1-1.1-.4-1.8-3.7-1.2-5.5.8-2 1.9-3.2 4-4.2.8-.4 2-1 2.7-1.5.7-.4 2-1.2 2.8-1.6 1.8-.9 4.6-2.7 5.5-3.5.3-.3 1.2-1 2-1.5 3-2 7-8.1 7.6-11.4.3-1.7.3-4.8 0-5.5-.1-.3-.2-.6-.1-.7.1-.1.2.1.2.3.1.2.3.6.5.9.2.3.6 1.3.9 2.2.3.9.6 1.6.7 1.4.8-2.2.7-7.2-.2-9-1-2.2-4.3-6-5.1-6-.1 0-.6-.3-1.2-.6-.6-.4-1.7-.9-2.4-1.2-.7-.3-1.3-.6-1.2-.6s.4.1.8.2c.4.2 1.6.5 2.6.8 6.3 1.7 9.5 5.8 9.4 12 0 2.6-.9 6.4-1.9 7.6-.1.2-.5.8-.8 1.4-.3.6-.7 1.2-.8 1.3-.3.3-.2.6.1.6.2 0 1.6-1.3 1.6-1.6 0-.1.3-.6.7-1.1 1.5-1.9 2.8-4.9 3.1-7.1l.3-2-.1 1.7c-.3 5.4-3.8 10.7-10.1 15.1-1.3.9-.2 1.2 1.7.4 2.1-.8 2.5-1.1 4.1-2.2 5.8-4.3 7.9-8.2 7.9-14.7 0-3.1-.3-4.2-1.4-5.2-.3-.3-1-1.2-1.5-1.9-1-1.5-2.5-2.9-4.2-4-1.2-.8-4.1-2.1-4.5-2.1-.2 0-.5-.1-.7-.3-.4-.3-.4-.3.2-.2 1.7.3 2.6.3 3.4 0l.9-.4-1-.3c-.5-.2-2-.6-3.2-.9-2.2-.6-2.2-.6-1.2-.6 3.1-.1 6.1.5 8.3 1.6.5.3 1.3.5 1.6.6 1.7.4 3.9 2.1 4.7 3.9.7 1.4 1.4 3.5 1.4 4 0 .7.4.4.4-.3v-.7l.2.7c.1.4.2 1 .1 1.4-.1.9.2 1.2.4.4.4-1.4-.4-7.1-1.2-8.9-.9-2.1-3.8-5.7-5.2-6.4-.4-.2-.7-.4-.6-.5.7-.7 5.9 4.1 7.2 6.7.3.5.5.8.4.5-.1-.3-.1-.9-.1-1.4.1-1.4-2-4.4-3.9-6-1.8-1.4-2.6-2.2-2.7-2.4-.2-2.9-9.5-3.8-14.6-1.4l-1.6.7s.7-.5 1.7-.9c.9-.4 1.7-.9 1.7-.9 0-.3-2.4-1.8-3.8-2.4-4.1-1.9-11-5.4-12.8-6.6-3.8-2.6-8.6-7.8-10-11.1-.2-.4-.5-.9-.7-1.2l-.4-.5.1.8c.1.8.7 2.7 1 3.3.4.7 1.2 2.7 2.1 5.1.5 1.3 1.2 2.9 1.6 3.6.4.7.6 1.2.5 1.2-.2 0-1.5-2.2-2.3-3.8-.4-.8-1-1.8-1.3-2.1-1-1-2.4-4.7-3-7.7-.4-2.2-1.3-7.8-1.4-9.3-.1-.7-.3-1.8-.5-2.3-.2-.6-.8-2.4-1.3-4.1-1.2-4.1-1-3.7-4.8-8.7-1-1.3-3.4-3.3-8.1-6.8-4.3-3.1-10.8-5.7-20.2-7.9-1.4-.3-7.1-2.6-8.5-3.4-.9-.5-.5-.6.5-.2 1.3.6 6.9 1.9 10.7 2.6 1.2.2 3.3.7 4.7 1.1 1.3.4 3.2.8 4.1.8 1.4.1 4.9 1.1 6.3 1.8.2.1 1.2.5 2.2.9 10.9 4.7 18.1 13.5 19 23.4.1 1.3.4 3.4.7 4.7.3 1.3.5 2.8.4 3.4 0 .9.1 1.3 1.3 3.8 1.4 3 1.7 3.4 1.2 1.6-.5-1.7-.9-4.8-1-7.3-.1-2.5.1-3.6.4-1.8.8 6.4 3.3 12.7 6 15.6 1.2 1.2 1.7 1.5 1.2.5-.6-1-.3-.9.9.4 1.5 1.5 3.5 3 5.3 3.9 1.4.7 3.2 1.8 3.6 2.2.1.1.4.3.6.4.2.1.5.4.5.6.3.9.9.5.8-.5-.2-1.7-2.6-4.9-3.6-4.9-.3 0-2.1-1.8-2.9-2.9-.4-.5-1-1.2-1.4-1.5-2.2-2-3.5-5-5.2-12-1.5-6.4-3.1-11.4-4.6-14-.8-1.4-.6-1.4.5-.3 1.3 1.4 2.4 3.7 5 10.2.7 1.8.7 1.8.7-1-.1-5-1.2-8.4-4.9-14.2-1.2-1.8-3.7-4.4-4.4-4.4-.1 0-.8-.6-1.5-1.3-3-2.9-8.7-6.1-15.2-8.8-6.1-2.5-14.7-4.4-17.6-3.8-1.6.3-4.3.3-6-.1-.8-.2-2-.4-2.8-.5-3.6-.5-7.6-1.8-10.5-3.5-1.8-1-1.5-1.2.5-.3 2.9 1.2 7 2.3 10 2.5 1 .1 1 .1.5-.3-.2-.2-.4-.5-.4-.6s-.4-.5-.9-.7c-.5-.3-1.3-.7-1.8-1-.5-.3-1.6-.9-2.4-1.2-1.6-.6-2.9-1.3-2.6-1.3.1 0 1.1.2 2.2.5 1.2.3 2.3.5 2.6.6.3 0 .8.2 1.1.3.5.1.6.1.6-.1 0-.4 1.5-.2 1.9.3.3.4 3.2 1.2 5 1.3 4.2.4 7.6 1.1 11.2 2.4 1.1.4 3 1 4.3 1.4 2.7.8 4.6 1.6 6.7 2.9.8.5 2 1.1 2.8 1.5.8.3 2.3 1.1 3.5 1.7 1.1.6 2.4 1.3 2.8 1.4.4.2 1.2.6 1.8 1 .6.4 1.2.7 1.3.7.1 0 .2.1.2.2 0 .2.9.6 1.2.6.9 0-3.5-4.6-5.6-5.9-.6-.4-1.4-.9-1.9-1.2-.4-.3-1.5-1-2.3-1.4-.8-.5-1.8-1.1-2.1-1.3-.4-.3-1.3-.8-2.1-1.2-1.7-.9-1.5-.9.6-.3 1.9.6 5.4 2.3 7.1 3.5.7.5 2.2 1.6 3.4 2.4 1.2.8 2.3 1.6 2.5 1.8.4.4 1.6 1.3 3.6 2.9 1.8 1.4 1.9 1.7 5.4 7.2.3.6 1.1 1.6 1.7 2.2.6.7 1 1.3 1 1.4s.2.5.4.9.5 1.3.6 1.9c.1.7.4 1.7.5 2.2.2.5.3 1.6.3 2.5 0 1.6.4 2.1.8 1 .1-.3.3-.6.3-.6.3-.2 1.6-4.6 2.2-7.3 1.9-8.5-1.1-18.1-6.4-20.1-.5-.2-1-.4-1-.5-.1-.1-.4-.2-.7-.2-.3-.1-1-.4-1.5-.8-3.3-2.5-6.9-3.5-13.1-3.5-1.2 0-3.4-.1-5-.3-1.6-.2-3.3-.3-3.8-.2-2.4.2-8.3-.4-13-1.5-1.5-.3-3.2-.6-3.9-.6-2.7-.1-8.1-1.2-12.9-2.5-4.9-1.3-10.6-2.9-11.2-3.1-.7-.3-.7-.2-1.2.8m-61.5-.4c-.6.8-.1 4.7.7 5.2.4.3.5.1.5-.9 0-2.8 1-3.7 1.3-1.3.4 3.1 1.7 4 1.7 1.1 0-1.7 0-1.7.5-1.6.4.1.5.2.6 1.3.1 1.2.5 1.9 1 1.9s.7-.8.6-1.9c-.1-.9-.1-1 .2-1.1 1.6-.5.7-2.3-1.1-2.3-.4 0-1.6-.2-2.7-.4-2.6-.4-2.9-.4-3.3 0m47.9 2.8c0 .4-.1 1.1-.3 1.6-.2.5-.3 1.7-.3 2.6 0 1-.1 1.7-.2 1.7-.1.1-.2 0-.1-.2s0-.4-.1-.5c-.6-.6 0-5.9.7-5.9.2.1.3.2.3.7m-61.4 1.6c1.4 1.4.4 4.8-1.9 6-.4.2-.4 0 .5-1.7.6-1.3.6-2.1 0-2.7-.6-.6-.6-.7-.1-.5.3.1.4 0 .3-.3-.1-.3-.2-.4-1.2-.4-.6 0-1.2-.1-1.3-.2-.1-.1-.1-.1 0-.1.1.1.4 0 .7-.2 1.3-.8 2.1-.7 3 .1m-49.5 1.3c-.1 1.3-.2 1.3-.2-.1 0-.6.1-1.1.1-1 .1.1.1.6.1 1.1m61.6-.6c-.3 1.2 2.7 3.3 5.9 4.2 2.5.7 2.8.7 2.9-.5.1-1 0-1.1-2.5-1.7-1.3-.3-3-.9-4.2-1.5l-2-1-.1.5m100.9-.2c.4.2.8.2.7 0-.1-.1-.3-.2-.5-.2-.5 0-.5.1-.2.2m-5.3.4c-.2.1.2.2 1.2.4 1.9.3 2.2.3 1-.1-1.5-.4-1.9-.5-2.2-.3m-134 .7c.3.4.3.6.1.4-.3-.3-.8-1-.6-1 0-.1.3.2.5.6m150.2-.3c0 .1.1.2.3.2.2 0 .3-.1.3-.2s-.1-.2-.3-.2c-.2 0-.3.1-.3.2m-112.9 3.5c-.1.2-.3.3-.7.2-1.3-.3.1 3 2.8 6.7 2.1 2.8 2.9 3.1 1.4.7-1-1.6-.7-1.6.4 0 2 2.8 2.9 3.8 3.1 3.8.6 0 .3-.7-1.8-3.9-1.9-2.8-1.7-2.6-1.2-2.3.4.2.4.2.2-.2-.1-.2-.2-.4-.1-.4s1.5 1 1.6 1.2c.5.6 2 .8 2 .2 0-.5-3.7-4.2-4.6-4.7-.3-.2-1.1-.6-1.7-.9-1.1-.9-1.1-.9-1.4-.4m-2.6 2.3c-.4.4 2 4.8 3.7 7.1.7.9 3.2 3.7 4.2 4.7s1.5.2.6-.8c-.1-.2-.5-.7-.8-1.2-.3-.5-.9-1.4-1.4-1.9-.5-.5-1-1.3-1.2-1.7-.2-.4-.8-1.4-1.4-2.2-.6-.8-1.4-2.1-1.9-2.8-.8-1.3-1.4-1.6-1.8-1.2m-1.3 1.2c0 .3.6 1.9 1.4 3.5.7 1.6 1.3 2.9 1.3 3-.1.1-1.2-1.4-1.7-2.3-.2-.5-.6-1-.7-1.2-.1-.2-.5-.8-.8-1.3-.5-1-.9-1.4-1.2-1.2-.1.1 1.2 4.2 1.7 5 .2.4.5 1 .6 1.4.5 1.5 4.5 7.7 6.2 9.4.1.1.8.9 1.5 1.8 2.1 2.5 2 2.6 1.6-.8-.1-.7-1.3-3-1.7-3.2-.1 0-.2-.2-.2-.3 0-.1-.2-.4-.4-.7-.6-.7-.2-.8.5-.1 3.2 2.9 1.2-1.8-2.5-5.9-1.3-1.4-2.3-2.9-4.2-6.2-1.1-1.5-1.4-1.8-1.4-.9m-4.2 1.5l-.7 1.1.3 1.1c.5 1.7 3.1 7.2 3.9 8.5.4.6 1.5 2.1 2.4 3.3.9 1.2 2 2.8 2.6 3.6.6.8 1.3 1.7 1.6 2 .3.3 1.3 1.2 2 1.9.8.8 1.5 1.4 1.5 1.4.4 0-.1-.9-1.2-2.5-.7-1-1.7-2.3-2.1-2.9-.4-.6-1.3-2-1.9-3.1-.6-1.1-1.7-3-2.4-4.1-1.4-2.2-3.3-6.4-4.3-9.6-.8-2.1-.8-2.1-1.7-.7m52.3 3.1l-.1.8-.1-.8c-.1-.9 0-1.1.2-.9v.9m-54.4 2.3c-.3 1-.2 1.2.8 1.3.6 0 .9 0 .9-.2s-.1-.3-.2-.3-.3-.3-.4-.6c-.3-.7-.9-.8-1.1-.2m139.1 9.1c.5.7.8 1 .8.7 0-.1-.3-.4-.6-.7l-.6-.6.4.6m-134.8 2.6c-.1.2-.1.6-.1.9 0 .3-.2.5-.4.5-.2.1-.4.2-.4.4s-.1.3-.2.3c-.5 0-.8-.3-.8-.7 0-.5-.5-.8-.8-.4-.1.1-.2 1-.2 2 0 1.6 0 1.8-.7 2.8-2.5 3.9-4.2 9.8-2.8 9.8.4 0 .6-.4 1.2-2.2.2-.5.4-.9.4-.9s-.1.4-.2.9c-.3 1-.8 5.9-.6 6.8.3 1.5 1.2.5 1.6-1.7.1-.5.2-1.3.4-1.8.3-1 .2 2.3-.1 4.5-.5 3.1.1 8.4 1 8.9.4.3.6-.7.5-2.8l-.1-2.2.4 1.8c.2 1 .4 1.8.5 1.9.2.1.3.7.2 1.9 0 1.6 1 7.2 1.4 7.8.6.9.9.2.9-1.9-.1-2.2-.1-2.2.4-1.2.9 1.7 1.2 3.4 1.3 7 .2 4 .3 4.2 1.1 2.5l.5-1v1c0 .5 0 1.6.1 2.3 0 1.6.3 1.8 1 .5.4-.8.5-1.1.6-2.7 0-.6 0-.6.2-.1.3.7.3 1.3.5 4.9.1 3.6.2 3.7.5 3.6.3-.1.6-1 .9-2.3l.2-.8.1 1c.4 2.8 1.7 6.1 2.4 6.1.3 0 .4.1.4.3 0 .4 1.5 3.3 2 3.7 1 .9 1.1 0 .4-2.9-.2-.9-.4-1.9-.4-2.2 0-.5.1-.4.3.6.3 1.7.7 2.7 1.1 2.8.2.1.4.4.4.8.1.4.2 1 .4 1.3l.2.6.2-.8c.1-.5.1-1.1 0-1.8-.3-1.4-.2-1.4.4-.2.3.6.8 1.5 1.2 2 .4.5 1 1.5 1.3 2.1.6 1.2 1 1.7 1.7 1.9.4.1.3-1.8-.1-2.7-.4-.7.6.5 1.1 1.5 1.2 2.3 2.2 2.9 2 1.4l-.1-.9.8.7c.5.4 1.5 1 2.4 1.4 1.9.9 3.6 2.1 5.2 3.8 2.8 2.7 3.2 3 4.2 2.4 1.2-.6 1.5-1.4 1.5-4.6V345l.7-1.5c.7-1.5.7-1.8.4-3.1-.1-.5-.6-.4-.8.2-.2.7-.4 1-1.3 1.8l-.7.6.2-.5c.1-.3.4-1.2.8-1.9 1.5-3.5 2.2-7 1.5-7.1-.4-.1-.4 0-1.3 1.8-.6 1.2-.9 1.1-.5-.3.6-2.1.8-5.4.4-6.9-.3-1.1-.6-.8-1.1 1.1l-.4 1.6-.4-.9c-.2-.5-.5-1.4-.5-2.1-.1-.6-.2-1.2-.3-1.3-.1-.1-.1-.3 0-.6.2-.6.1-1-.6-3.6-.3-1-.6-2.1-.8-2.5-.2-.8-.9-1.1-1.4-.7-.3.2-.6-.9-1.3-4.1-.3-1.6-1.3-2.1-1.5-.8-.1.6-.6-.6-.9-1.9-.5-2.6-2-4.3-2-2.2 0 .9-.2.8-.5-.3-.6-2.3-1.3-4.3-1.5-4.5-.3-.4-1-.2-1.1.4-.1.3-.1.4-.2.1 0-.3-.1-.3-.6-.3-.5.1-.5 0-.7-.9-.5-4.2-1-6-1.6-6.1-.3-.1-.3.1-.4 1.4 0 1.6-.1 1.4-.5-1.2-.4-2.1-.6-2.7-1-2.7-.3 0-.4.1-.4.4 0 .4-.8-1.7-1.1-2.8-.5-2.2-1.6-2.5-1.5-.5v1.4l-.5-1.4c-.3-.8-.5-1.6-.6-1.9-.3-1.3-1.8-2.5-1.8-1.5 0 .2-.3-.2-.6-.9-.8-1.6-1.4-1.8-1.3-.5.1.8 0 .9-.2.6-.4-.4-.7-.4-.9.1-.2.4-.2.3-.4-.4-.8-2.6-2.2-4.4-1.9-2.4l.1.7-.3-.7c-1.2-2.5-1.3-2.8-1.6-2.7-.2 0-.3.3-.3 1 .1 1.2-.1 1.2-.3-.1-.5-2.4-1.4-3-1.6-1.1-.1 1.1-.1 1.1-.3-.1-.1-.4-.2-1-.4-1.3-.1-.3-.4-1-.6-1.7-.4-1.4-.9-1.7-1.1-.9m83.7 15.3c-3 .5-5.8.5-7.1 0-1.4-.6-.6-.1 1.2.8 3.1 1.5 4.5 2.2 6.2 3.2 1.5.9 1.7.9 3.2 1l3.3.4c1.3.3 1.9.3 2.6.1 1.2-.2 2.3.1 2.3.8 0 .8 3.4 2.8 5 2.8 2.8.1 7.5 4.5 9.6 9 .4.8.9 2.1 1.3 2.8 1.7 3.8 2.6 8.3 2.9 14.8.2 5 1.1 7.1 4.1 9.9 1 .9 1.6 1.4 2.3 1.5 1.4.4 2.1-.1 1-.8-2.5-1.5-4.3-5.4-5-10.7-.3-2.4-.3-3.2.1-6.7.2-2.1.2-4.8-.2-6-.1-.4-.4-1.7-.7-2.9-1.8-8.1-6.5-14.5-11.9-15.9-.9-.2-1.5-.6-2-1-3.2-2.8-11.3-4.3-18.2-3.1m-140.7 8.3c0 .6.9 2.6 1.6 3.8.4.6.7 1.2.8 1.5.2.7 2.5 4.8 3.8 6.8 2.2 3.4 10.7 11.6 13.7 13.1.8.4 4.5 1.8 6.6 2.5 2.4.8 4.4 1.2 7.6 1.5 1.2.1 3 .3 6.3.7 2.9.3 3.3.4 6.2.4 2.8 0 4.1-.1 4.3-.4.1-.1-.5-.2-3.6-.2-2.2 0-1-.3 1.5-.3 3.4 0 4-.3 1.1-.5-1.2-.1-2.7-.2-3.3-.2-1.2-.1-5.7-.3-6.1-.4-.1 0-.2-.1-.2-.1 0-.1 4.4-.1 10.1 0 1.3 0 2.5 0 2.5-.1s-.5-.1-1.2-.1c-.9 0-1.5-.1-1.8-.3-.4-.3-1.2-.3-4.2-.4-6.4-.1-9.7-.5-12.3-1.5-1-.4-3.3-1.3-5.3-2-5.6-2.1-8-3.3-11.3-5.8-.9-.7-1.9-1.4-2.3-1.7-1.1-.8-8.2-7.7-9-8.8-.4-.5-1.3-1.9-2.1-3-1.5-2.1-2.5-3.7-2.8-4.2-.2-.8-.6-.8-.6-.3m182.5.4c0 .5.3.9.4.5 0-.2-.1-.5-.2-.5-.2-.1-.3-.1-.2 0m14.4.4c0 .2.1.5.2.6.1.2.2.2.2-.2 0-.3-.1-.6-.2-.6-.1-.1-.2 0-.2.2m-191.6 4.6c1.1 1.5 1.5 1.9 1.3 1.4-.3-.5-1.8-2.5-2.1-2.7-.1 0 .2.6.8 1.3m178.6.2c.2.7.3.9.3.4 0-.2-.1-.5-.2-.7-.2-.2-.2-.1-.1.3m-171.7 1.7c.2.2.3.3.2.3-.1 0-.4-.1-.6-.3-.2-.2-.3-.3-.2-.3l.6.3m92.5 13.8c0 .3.9 1.1 1.1.9.1-.1-.1-.4-.5-.6-.3-.3-.6-.4-.6-.3m-82.2 5.8c0 .6 8 2.9 10.6 3.1 1 .1 1.5 0 1.3-.1-.2-.1-.5-.2-.8-.2-1.9 0-7.2-1.3-9.4-2.3-1.1-.5-1.7-.7-1.7-.5m82.1 3.4c-1.5.6-2.4 2.7-2 4.8.4 2.2 2.2 4.6 3.1 4.1.2-.2.3-.7 0-.7-.5 0-1.2-1.5-1.2-2.5 0-1.7.3-2.4 1.4-3.3 1.1-.9 1.2-1.2.4-2-.6-.6-1-.7-1.7-.4m19.6 4.4c-2.2 4.3-8.9 9.3-13.7 10.3-1.2.3-3.1 1.2-4.5 2.3-1.4 1.1-1.5 1.1-.3-.3 1.4-1.7.2-1.3-1.8.6-.6.6-1.6 2.2-1.9 3.2-.2.7-.8 1.2-.6.6.1-.3.2-.8.3-1.3.1-.4.3-1.3.6-1.8.7-1.6.2-2.1-.7-.8-2 2.9-2 8.1-.1 10.6.3.4.6 1 .7 1.2.1.5.1.5.1.1s.1-.4.7-.3l.6.1-.3-.5c-.3-.5-.3-.5.2-1 .6-.6.7-1.6.2-2.1-1.7-1.7 3.7-8.5 7.1-8.9 6.2-.7 12.1-5.8 13.9-11.8.7-2 .5-2.1-.5-.2m97.7 1.7c1 .7 1.9 1.3 1.9 1.5.1.1.2.3.4.4 1.2.5-1.6-2-2.9-2.6-1.5-.7-1.4-.6.6.7m-136.1 11c.4 3.2 2.4 7.4 5.4 11.1l2.7 3.6c.9 1.2 2.3 3.2 3.1 4.4 2.9 4.1 3.7 5.2 4.1 5.9 1.1 1.9 2.6 4.5 3.4 5.8 1.4 2.3 2.3 4.5 3.4 8.5.5 1.7.6 1.4.4-1.1-.5-8.5-1.8-14.3-4.1-17.6-.4-.5-1.3-1.9-2.1-3.1-1.2-1.8-2.2-2.9-6.1-6.8-7.1-7.1-7.3-7.3-9.1-10.6-.7-1.3-1.2-1.3-1.1-.1m30.2-.6c0 .2.2.3.4.4 1.5.5 1.3 1-2.3 4.4-3 2.9-4.4 7-2.9 9.2.8 1.2 1.4 1 .8-.3-.7-1.5.7-4.9 3-6.8 4.3-3.8 4.7-4.7 2.8-6.6-.6-.7-1.8-.8-1.8-.3m-24.7 4.3c.2.2.4.3.5.2.2-.2-.1-.5-.5-.5-.3 0-.3 0 0 .3m24.4 3.9c-.6.2-1.5 1-1.5 1.3 0 .2.7.2.9-.1.9-.9 3 .2 4 2.2.8 1.7 2.1 1.7 2.1 0 .1-2.1-3.3-4.2-5.5-3.4m4.5 6.2c.1 1 .7 1 .7.1 0-.6-.1-.7-.4-.7-.3 0-.4.1-.3.6m82.8 10.7c-.6.3-1.6.9-2 1.3-.5.4-1 .7-1.2.7-1.1 0-.7 3.3.5 4.3 1.5 1.2 4.2-.3 2.9-1.7-.7-.7.6-1.3 1.7-.8.3.2.8.3 1.1.3 1.3 0 2.6.9 2.6 1.9 0 1.9-1.4 3.5-4.8 5.5-2.9 1.7-1.8 2.2 1.4.6.5-.3 1.4-.6 1.9-.8.5-.2 1.1-.4 1.2-.5s.8-.5 1.5-.9c3.5-2 5.1-6.2 2.9-7.7-.6-.4-.8-.4-.7.2.1.3 0 .9-.1 1.4-.1.5-.2 1-.2 1.2 0 .2-.1.3-.2.3s-.2-.4-.2-.8c0-3.9-4.4-6.4-8.3-4.5"/></svg>