<svg xmlns="http://www.w3.org/2000/svg" viewBox="0 0 355 355"><path d="M168.8 17.9C105.3 21 51.9 58.3 29.2 115.7c-13.9 34.9-17.1 74-8.8 107.6 3.5 14.1 10 32.3 12.6 35.3.2.3 1.2 1.8 2.1 3.3 8.3 14.4 21.5 31.6 26.9 35 1 .6 1.4.7 1.1.2-.2-.4 1.2.8 4.7 4.1 9.5 8.6 23.9 17.7 37.7 23.7 3.4 1.5 13 5.1 13.4 5.1.1 0-5.8-3-13.2-6.7-16.4-8.2-16.2-8.1-28.9-18.3-10-8-11.9-9.7-16.1-14.6-7.1-8.3-11.5-14.6-16.9-24.5-2.7-5-2.7-4.9-.5-3.7.8.4 2.1 1 3 1.3.9.3 2.4.9 3.4 1.3s1.8.6 1.7.5c-.1-.2-2.9-2.1-6.9-4.7-2.7-1.8-3.1-2.2-4.5-5.5-.6-1.4-1.6-3.7-2.3-5.2-2.1-4.5-2.1-4.3-1.6-8 .3-1.8.5-3.2.5-3.3 0 0 1.7 1 3.6 2.2 3.5 2.3 11.1 6.5 11.7 6.5.5 0 .1-.5-1.9-2-1.1-.8-2.1-1.6-2.3-1.9-.2-.3-1.5-1.3-2.9-2.3-1.4-1-3.7-2.7-5.1-3.8l-2.5-2-1.4-3.7c-1.7-4.4-3.7-11-4.1-13.6-.3-2-.5-1.6 2.1-8.7l.4-1.2 2 1.5c4.1 3.1 9 6.1 10.1 6.1.7 0 .5-.3-1.2-1.7-2.2-1.8-6.8-5.8-8.9-7.8l-1.9-1.9-1.1-6.1a122 122 0 0 0-1.3-6.6c-.6-1.2 5.2-12.1 6.3-11.7.1.1 1.9.9 3.8 1.8s3.9 1.8 4.4 1.9l.9.1-.8-.5c-8-5.5-7.7-4.9-8-12.1l-.2-3.6 2.1-2.6c1.2-1.4 2.7-3.1 3.3-3.8l1.2-1.1 3.6 1.6c5.6 2.5 6.2 2.5 2.6-.1-1.2-.9-2.6-1.9-3.1-2.3l-.9-.8.1-2.4c.2-2.5.4-6.4 1-12.7.3-4.1.4-4.2 3.9-6.8 3.1-2.3 2.5-2.5 6.5 1.5 3 3 4.3 3.9 4.3 3.3 0-.3-.7-1.4-1.6-2.5-3.3-4-4.6-6.2-4.4-7.6.2-1.6 1.6-7.4 2.1-8.5.2-.4.5-1.2.7-1.7.4-1 2.5-2.1 5.8-3 1.1-.3 2.6-.9 3.3-1.2 1.8-.9 1.6-1 3.5 1.8.9 1.4 2 2.9 2.4 3.4.4.5 1.3 1.7 1.9 2.6 1.7 2.4 3.7 3.5 2.4 1.3-.3-.5-1.2-2.3-2.2-4-.9-1.8-2-3.9-2.5-4.7-.5-.8-1.1-2.1-1.4-2.9l-.5-1.4 2-3.9c2.8-5.5 2.6-5.3 12.3-10.2 7.4-3.8 8.4-4.6 3.6-3.1-1.1.4-2.5.7-3.1.8-1 .2-7 2.5-8.7 3.4l-1 .5-.1-1c-.4-5.4.6-10 3.3-15.6a34 34 0 0 0 1.6-3.6c0-.9 3.6-3.1 7.1-4.2 5.1-1.7 5.8-2.5 1-1.3-1.4.3-3.4.8-4.5 1.1-1.1.3-2.2.6-2.4.8-.6.3-2.2-5-1.7-5.7 1.1-1.5 5.9-8.8 6.6-10.1.3-.5 9.1-3.3 11.4-3.6l1.6-.2-1.6-.1c-2.4-.1-3.9 0-6.9.6-4.1.8-4.2.8-4.2-.7 0-1.4 2.8-4.5 6.3-7 1-.7 2.8-2.1 4.1-3.1 3.1-2.4 4.8-3.1 12.3-4.7 3.9-.8 3.6-.8 3.8.3.1.5.2 1.3.3 1.6.1.5-.2.9-1.7 2.4-5 5-6 6.3-3.3 4.6 5.2-3.4 6.6-4.4 6.6-4.7 0-.5 3-.7 6.6-.6 2.5.1 3.9-.2 2.4-.5-1.8-.4-6-1-6.8-1-1.1 0-1.3-.4-1.5-2.7l-.2-1.5 2.5-2.2c1.3-1.2 2.9-2.5 3.5-2.9l1.1-.7 4 .5c2.2.3 4.1.5 4.2.4.4-.3-.1-.6-1.9-1.2-4.1-1.3-4.5-1.7-4.6-4.5v-1.2l1.8-.5c1-.3 3.5-1 5.7-1.5 3.2-.9 7.9-1.9 8.9-1.8.1 0 .8.5 1.4 1l1.2 1-4.3 4.2c-4.6 4.5-5.3 5.4-2.6 3.5 8.4-6.2 10.6-7 18.4-6.5 4.4.2 4.6.3 5.2.9.8.9.8 1-.7 2-.7.5-2 1.5-3 2.2-1.9 1.5-3.4 1.9-7.5 2.3-2.3.2-4.7 1.1-4.3 1.7.1.1 1 .2 2.1.1 1-.1 3-.2 4.3-.2l2.4-.1.3.8c.3.7 3.4 5.7 3.8 6.2.4.5.3-.5-.1-1.8-.3-.9-.7-2.3-1-3.2-.2-.9-.5-1.8-.6-2-.1-.2 1-1.1 3.2-2.6l3.3-2.2 2.7.2c1.5.1 4.4.4 6.4.7 2 .3 4.6.5 5.7.5 2.4 0 3.1.5 4.7 3.8l.9 1.8-3.8 2.8c-3.6 2.7-7.6 6.2-7.4 6.5.1.1 1.1-.5 2.4-1.2 4.9-3 10.2-6.1 10.4-6.1.1 0 1.1.3 2.2.7 2.9 1 9.1 2.5 10 2.5 1.3 0 2.2.4 2.3 1.3.1.4.5 1.6.8 2.7.4 1.1.9 2.8 1.2 3.7.7 2.7 1 1.4.4-2.5-.5-3.6-.5-5-.2-5 2.1-.1 5.8-.7 7.5-1.2 3.2-1 3.6-.9 8 .6 7.7 2.7 7.3 2.4 10.1 8 1.1 2.3 1.8 3.3 2.1 3.3.3 0 1.9.7 3.6 1.5 1.7.8 3.9 1.8 4.9 2.2 1 .4 2.6 1.2 3.7 1.7 1.1.6 2.5 1.1 3.2 1.2l1.3.2 1.3 3.5c.7 1.9 1.6 4.6 2 5.9.4 1.3.9 2.6 1.1 2.8.5.5.6.7-.5-3.8-.9-3.9-1.5-7.6-1.1-8 .1-.2.9-.4 1.8-.5.8-.1 2.8-.4 4.4-.6l2.8-.4 1.3 1.1c.7.6 2.6 1.9 4.2 2.9 2 1.3 3.2 2.2 4.1 3.3.7.8 1.7 1.7 2.2 2 1.3.7 2.9 8.7 1.8 8.7-.2 0-1.7.4-3.2 1-1.6.5-3.8 1.1-5 1.3-1.2.2-2.1.4-2.1.6 0 .3.9.4 7.4.5l4.6.1 1.6 1.9c.9 1 2.3 2.8 3.2 3.9s1.8 2.2 2.1 2.4c.5.4 1.1 6.3 1.1 11.1v1.9l-1.7.3c-.9.2-2.3.3-2.9.3-1.3 0-3.1.6-3.1 1.1 0 .2.5.3 1 .3.9 0 4 .3 6.4.7 1 .2 1 .1 4.6 4.6a105 105 0 0 0 4.9 5.4l2 1.9-.2 1.9c-.2 2-1 5.9-1.4 6.7-.1.3-.2.6-.1.8.1.2-.3.4-.9.5-.6.1-1.6.3-2.2.5-.7.2-1.9.5-2.7.6-3.2.6-4.8 1.2-4.2 1.8.1.1 4.3-.3 6.7-.7 4-.6 4.8 0 5.5 4.1.2 1.3 1.5 3.9 3.6 7.4l1.2 2-.4 1.4c-.6 2.2-3.6 10.4-3.9 10.7-.2.2-1.2.3-3.5.3-2.6 0-3.8.1-5.9.7-4 1.1-3.8 1.3 1.2 1.4 2 0 4.7.1 6 .2l2.3.2 1.4 3.1c3 6.8 3.9 8.5 5.2 10.7 1.3 2.1 1.4 2.4 1.1 2.9-.2.4-.5 1.5-.6 2.5l-.9 4.3-.6 2.4-1.2.2c-.7.1-2.3.3-3.7.5-4.9.6-5.5.7-5.6 1-.2.5.7.7 4.9.8 2.6.1 4.1.3 4.2.5 0 .2.3 1.4.7 2.7.3 1.3 1.1 4 1.7 5.9l1.1 3.4-.6 1.2c-.3.6-1.2 2.7-2 4.6-.7 1.9-1.8 4.4-2.3 5.4l-1 2-4.5.1c-4.7.1-5.3.2-5.2 1.3.1.8 1.7 1.2 4.8 1.2 4.4 0 4.2-.2 6.1 8.6.3 1.3.8 3 1.2 3.8l.7 1.4-.6 1.2c-1 1.9-3.8 7-4.3 7.7-.6.9-2.3 1.1-7.8.8-4-.2-6.2 0-4.3.4.4.1 1.9.5 3.2.8 1.3.3 3.2.8 4.3 1.1 1.3.3 2 .7 2.5 1.2.3.4.7.9.9 1.1.2.2.6 2.1.9 4.3l.6 3.9-1.1.8c-.7.7-2.7 3-4.3 5.2-1.6 2.2-3.7 4.8-4.5 5.9-.8 1-1.7 2.2-1.9 2.6-.5.9-2.7 1.4-7.6 1.9-2.3.2-3.1.4-2.7.5.7.3 6.4 1 7.7 1h1l.5 3.7c.3 2 .5 4 .6 4.3.2.8-2.5 4.1-5.8 7.2-2.1 2-2.2 2.4-1.4 7 .7 4.5.8 4.3-2.2 6.8-3.4 2.9-7.8 7.1-7.5 7.3.1.1.2.3.1.5s-.4 1.4-.8 2.7c-.4 1.5-.9 2.6-1.3 3-3.2 2.9-26.3 14.9-33.8 17.5-8.4 2.9-20.3 6.4-26.1 7.7-3.1.7-2 .6 2.5-.1 24-4.1 44.6-11.7 63.6-23.7 5.5-3.5 11.7-8 12.7-9.3.4-.6.9-.9 1-.9.7.5 13.7-11.6 18.7-17.5 8.3-9.6 14.8-19.4 20.4-30.5 1.6-3.3 2.6-5.4 5.3-11.9 4.5-10.7 9.3-31.6 10.1-44 .4-6.5.5-7.7.2-7.7-.2 0-.2-.2-.1-.5s.2-.5.4-.5c1.6 0-1.2-39.7-2.9-41.7-.3-.3-.3-.4-.1-.3.8.5-1.1-8.4-3.2-15.2-1.2-3.6-2.5-8.2-2.7-9.3-.1-.5-.4-1.6-.8-2.5-.3-.9-.8-2.3-1.1-3.1-1.3-3.9-5.4-12.9-6.6-14.4-.3-.4-.6-1.1-.7-1.6-.1-1.1-4.8-9.3-8.3-14.6-14.7-22.3-34.7-39.9-59-52-26.1-13.2-54.7-19-84.6-17.6m30.9 2.8c8.3 1 8.5 1.1 10.5 3.1 2.1 2.1 2.1 1.8-.5 2.8l-2.2.8-3.5-.3c-1.9-.2-5-.4-6.8-.5-1.8-.1-3.5-.3-3.7-.4-1.2-.7-5.1-3.7-4.9-3.8 2.1-2.3 4.2-2.6 11.1-1.7m-36.3 1.5c2 .7 2 .5-.1 2.1l-1.7 1.4h-12.2l-1.1-.9c-1.7-1.3-1.9-1.2 4.6-2.1 2.3-.3 4.9-.7 5.7-.8 2.4-.4 3-.3 4.8.3m12.8 2.1c2.6.4 5.3.9 6 1 1.2.2 3.4 1.6 3.8 2.5 0 .1-.7.6-1.7 1.2l-1.8 1-2.8-.2c-1.6-.1-4-.4-5.4-.6-1.4-.2-3.4-.4-4.3-.4-1.7 0-1.7 0-2.8-1.3l-1.1-1.3.6-.4c.3-.2 1-.7 1.5-1.1 1.9-1.4 2.2-1.4 8-.4m-52.7 5.1c.4 1.4.2 1.8-1.7 3.5-2.8 2.6-5 4-6.5 4.4-.7.2-3.7.8-6.7 1.5-6.6 1.5-6.3 1.5-6.3.2s-.1-1.2 4.4-3.4c4.5-2.3 6.5-3.1 15.9-6.5.7-.3.8-.3.9.3m97.9.6c3.2 1.1 6.2 2.3 9.7 4 1.3.6 1.5.8 2.8 3.3 1.6 3.1 1.6 3 .3 3.4-.5.2-2.4.7-4.1 1.3-1.7.5-3.3 1-3.6 1.1-.6.2-6.4-1.6-9.2-2.8l-2-.9-1.9-2.9-2.8-4.1c-1.1-1.4-1.1-1.4 2.1-2.4 4.2-1.5 4.3-1.5 8.7 0m-20.2.8c1.9.2 3.6.5 3.9.5 1 .2 7.6 8.2 7.1 8.7-.4.4-6.6 1.9-10.3 2.6-.7.1-5-.9-5.8-1.4-.1-.1-1.5-.3-3-.5s-3.5-.6-4.5-1L187 39l-1.4-2.9c-1.7-3.4-1.8-3.2 2.3-4.7 3.4-1.1 7.2-1.3 13.3-.6m47.3 5.2c1.4.6 3.6 1.6 4.9 2.4 1.3.7 3 1.7 3.7 2.1 2 1.1 2.2 1.4 3.4 3.7 1.3 2.5 1.5 2.2-2.2 2.3l-3.1.1-4.4-2.2c-6.1-3.1-6-3.1-8.4-3.9l-2.2-.8-.9-2.1-.9-2.1 1.4-.2c4.1-.6 6.1-.4 8.7.7m-5.4 9.1c2.2 1.2 4.9 2.7 6 3.4 1.1.7 2.7 1.6 3.6 2.2 1.7 1 2.9 2.5 4.4 5.5 1 1.9 1.1 1.8-1.8 2.3-5.5 1-6.3 1-7.3.5-.8-.4-4.8-1.9-13.4-4.9l-2.1-.8-1-2.4c-.5-1.3-1.3-2.9-1.7-3.6-.8-1.4-.6-2 .5-2 .3 0 1.1-.3 1.8-.6 1.4-.7 3.9-1.4 5.8-1.6.7-.1 1.2-.1 1.2-.1s1.8.9 4 2.1m27 8.7c4.3 3.3 7.6 6.2 7.9 7 .1.2.3 1.5.4 2.7.1 1.2.3 2.5.4 2.9.2.6.1.6-.9.5-.6-.1-1.6-.2-2.3-.3-1.3-.2-2.5-1-4.9-3.1-.6-.5-2.7-2-4.6-3.3l-3.5-2.3-1.7-3.2c-.9-1.8-1.7-3.3-1.8-3.5-.1-.2 1-.3 3.3-.3h3.4l4.3 2.9M84.5 58.7c0 .6-1.1 2.4-5.2 8.8-1 1.5-1.5 2.1-2.2 2.4-1.9.8-5.5 2.6-6.6 3.3-1.3.9-1.7.9-1.7.3 0-.3-.1-1.2-.2-2.1l-.2-1.6 1.8-2.3c4.1-5.1 4.4-5.4 8.4-7.6 5.8-3.2 5.8-3.2 5.9-1.2m50.7-.6c-1.5.2-1.5.5.2.7 2.8.3 5.1 1.2 6.4 2.3 1.3 1.2 1.4 1.1.5-.5-.7-1.2-1.7-1.8-3.8-2.2-2-.4-2.3-.4-3.3-.3m85.4 4.2c-1.9.7-5.5 4.8-5.5 6.3 0 .7.2.6 1.9-1.2 2.5-2.7 6-4.3 9.3-4.2 1.3 0 1.4-.4.3-1-.9-.4-4.7-.4-6 .1m-88.9.6c-4.9.5-10.3 7.7-8.7 11.5l.4.9v-1.5c.1-3.6 3.2-8 6.8-9.6 2.3-1 6.8.1 9.3 2.2.9.8 1.2.7.6-.3-1.6-2.2-4.9-3.5-8.4-3.2m153.9.5c1.4.3 1.9.6 2.2 1 .2.3 1.2 1.5 2.3 2.7 5.1 5.3 6.4 7.4 6.8 10.1l.2 1.3-.8-.2c-.4-.1-1.8-.5-3-.8l-2.3-.6-2.5-2.9c-5.2-6.1-4.9-5.6-5.1-7.3-.3-2.4-.3-3.8.1-3.8.1.1 1.1.2 2.1.5m-165 1.4c-2.9 2.8-4 7.8-2.4 10.7l.6 1.2v-3c0-4 .8-6.6 2.6-9 .9-1.2.5-1.2-.8.1m106 1.2c-.3.3.3.9 1 .9.4 0 1.1.2 1.7.5 1.9 1 2.5.5.9-.7-.9-.6-3.2-1.1-3.6-.7M132 68.6c-6.1 2.9-4.9 11.8 1.5 11.4 1.3-.1 1.2-.2-.3-.6-.4-.1-1.1-.6-1.4-1.1l-.6-.9 1-1c1.7-1.7 2.3-3.7 1.6-4.8-.6-.8-.5-.9.5-.9 1.5 0 2.6.7 2.3 1.5-.4.8.3 2 1.1 2 .6 0 .7 1.2.2 2.6-.4 1 .1 1.7.8 1.1 2.3-1.9 1-7.3-2.1-9.2-1.9-1.2-2.5-1.2-4.6-.1m87.1-.1c-1.7 1.2-2.9 3.9-2.9 6.9 0 2.4.6 3.1.9.9.2-1.6 2.2-5.2 3.7-6.5 1.9-1.8.6-2.8-1.7-1.3m6.7.9c-4.1 1.5-6.4 7.5-3.9 10.5.7.9.9.2.3-1.3-.1-.3 0-.4.4-.4 2.8 0 5.1-4.3 3.3-6.4l-.7-.8.8-.3c1-.4 2.6-.1 4.1.7 1.6.9 1.7 1.2.8 2.2-1.4 1.4-.9 3.8.8 3.8 2 0-1 3.8-3.7 4.7-1.6.5-1.6 1 .1.8 4.6-.5 6.9-6.3 4.5-11.1-.8-1.7-4.9-3-6.8-2.4m-82.9.6c-.1.1 0 .8.1 1.5.3 1.8.4 3 .1 4.1l-.2.8.7-.7c.8-.9.8-1.4.3-3.3-.6-1.8-.9-2.6-1-2.4m139.3 3c.9 1 2.8 3 4.2 4.5l2.5 2.7.6 3.9c.3 2.1.6 3.9.6 4 0 .1-.9.2-1.9.3-1.1.1-2.3.2-2.7.3-.9.1-.4.6-6.6-6.7-1.7-2-2.1-3.3-2.5-7.4-.1-1-.2-2.3-.3-2.8l-.2-.9 2.3.1 2.3.1 1.7 1.9m-81.3-.4c-2.2.4-5.7 2.3-6.3 3.5-.5.9-.1.9 1.3 0 3.5-2.2 11.5-2.5 15-.6 1.3.7.8-.4-.7-1.4-2.3-1.6-5.9-2.1-9.3-1.5m35.3.6s-.1 1.3-.1 2.8c-.1 2.7.1 3.3.6 2.3.4-.8.7-3.9.3-4.6-.2-.5-.8-.8-.8-.5M79 74c.2.3.7 1.5 1.3 2.5l1 1.9-2.2 3.3c-1.4 2-2.6 4.4-3.3 6.1-.6 1.5-1.2 2.8-1.3 2.9-.2.2-11.7 6-11.8 5.9 0 0-.2-.6-.3-1.3s-.5-2.2-.9-3.4l-.5-2.3 1.3-2.1c5.1-8.2 6-9.1 12.2-12.4 3.8-1.9 4.1-2 4.5-1.1m-15.5 2.6c.1.9 0 1.2-1.4 3.2-.9 1.2-2.1 3-2.8 4-.7 1-1.6 2-2.2 2.3-1.2.7-4.3 3.2-5.3 4.3l-.8.8-.3-1.1-.3-1.1 1.9-3.2c1-1.8 2.4-4 3.1-4.9.6-.9 1.3-2 1.5-2.4.2-.4.7-.8 1.1-.9.7-.2 3.9-2.1 4.6-2.7.5-.5.6-.3.9 1.7m176.1 1.1c-.6 5.7-2.4 8.7-6.5 11-2.4 1.4-3.4 2.7-1.8 2.4 4.1-.8 9.2-6.5 9.3-10.5.1-3.5-.7-5.8-1-2.9m-29.5.7c0 .6 2.5 2.6 2.6 2 .1-.3-.2-.8-.9-1.4-.9-.8-1.7-1.1-1.7-.6m-12 1.2c-3 1-5.5 5.5-4.6 8.5.3 1.3.9 1.2.9-.2 0-2.4 2.2-5.3 5-6.8 1.7-.9 2.5-1.6 1.9-1.6-.2 0-.7-.1-1.2-.1s-1.3 0-2 .2m-63.3 1.9c-.1.1 0 .6.2 1.3.2.6.8 2.9 1.4 5.1s1.4 5.1 1.9 6.4c.5 1.3 1.5 4.5 2.3 7.1.8 2.6 1.7 5.5 2.1 6.5.7 1.9.7 2.3-.4 2.3-.3 0-.1.3.4.8l.7.8-2.1 1.2c-32.8 18.5-46.4 57.3-32.1 91.6.9 2.1 1.1 2.3 1.6 1.3.2-.4.4-.7.5-.7.7 0 1.1-1.6.6-2.7-.5-1.3-.5-1.3 1.6-2 .9-.3 1.9-.9 2.4-1.3s.7-.6.4-.6c-.8.3-5.1 1.3-5.2 1.2-.9-.9-.4-1.5 1.9-2.2 9.6-2.9 20.7-7.9 30-13.3 3.3-2 3.2-1.8 3-2.4-.2-.4-.5-.3-3 1.3-7.7 4.9-10.7 6.6-14.8 8.3-6.2 2.6-17.3 6-17.7 5.5-.7-.7-.1-1.2 2.9-2.1 7.2-2.1 16.5-5.9 20.9-8.6 5-3 11-7 11-7.4 0-.5-.6-.5-.9-.2-1.3 1.2-16.6 9.3-20 10.5-1.5.5-3.9 1.5-5.5 2.1-5.5 2.3-9.1 3.1-9.1 1.9 0-.6 3.4-2 4.8-2 .2 0 1.7-.6 3.4-1.3 1.7-.7 4.2-1.7 5.4-2.2 3.1-1.2 6.1-2.8 10.8-5.5 2.2-1.3 5.1-3 6.5-3.8 4.1-2.4 4-2.3 3.7-3.5l-.3-1.1-1.5.9c-.8.5-2.9 1.7-4.7 2.8-3 1.9-5.2 3-13.3 6.8-5.6 2.6-14.7 5.8-15.2 5.3-.1-.1-.1-.6-.1-1.3v-1.1l2.5-.6c1.4-.3 4-1.2 5.9-2s3.6-1.4 3.8-1.4c.2 0 1.7-.6 3.4-1.2 1.7-.7 3.6-1.4 4.2-1.7 1.6-.7 4.4-2.2 7.9-4.4 1.6-1 3.9-2.4 5-3.1l2.1-1.3V169l-.9.7c-6.6 5-17.7 10.4-27.3 13.2-1.1.3-2.9.9-3.9 1.3-2.3.8-2.1.8-2-.8l.1-1.2 2-.4c2.7-.6 5.8-1.4 7.1-1.9 1-.4 2-.7 6.1-1.8 3-.9 14.3-7.3 17.5-10 1.2-1 1.2-1.1 1.5-3.3 1.2-8.6 7.5-17.3 15-20.8l2.4-1.1c.2-.1.5-.7.7-1.4.2-.7 1.1-2.7 2.1-4.5 1-1.8 2.4-4.5 3.1-5.9.8-1.6 1.3-2.8 1.2-3-.1-.3 0-.6.3-.8.6-.5 1.1-1.8.7-2-.2-.1-.2-.4.1-.8.2-.3.4-.9.4-1.3 0-.7 1-5.4 1.6-7.5.3-.9.3-1 1.4-1 .9 0 1.1.1.9.5a88.17 88.17 0 0 1-3 9.9c-1 2.7-2.2 6.1-2.7 7.6-.5 1.4-1.6 4.1-2.5 5.9-1.9 4-1.9 3.8 0 3.4 2.1-.4 2.1-.4 4.1-4.5 2.3-4.6 3.5-8.3 5.4-15.8.8-3.4 1.6-6.3 1.6-6.5.1-.3.4-.4 1.2-.3.9.1 1 .2.9.5-.1.2-.9 3.2-1.9 6.6-2.5 9-4.4 13.8-7.1 17.9l-1.1 1.7 1.3-.2a22 22 0 0 1 1.6-.2c.5 0 4.4-8 5.4-11 .7-2.3 3.5-12.1 4-14 .1-.5.3-.9.4-.9.1 0 .5.1.9.1.6 0 .7.1.5.7-.1.4-.2 1.1-.3 1.5 0 .4-.2 1-.3 1.3-.1.3-.8 2.2-1.4 4.3-.6 2.1-1.5 4.8-1.9 6.1-.8 2.3-3.4 8-5 10.7l-.8 1.4h1.1c1.2 0 .9.4 4.3-6.4 2.3-4.8 5.8-13.9 6.9-18.3.3-1.1 1.5-1.5 2-.6.7 1.1-6.3 18.8-9.3 23.3-1.4 2.1-1.5 2.8-.3 2.5 1.1-.2 8.2-16.4 9.8-22.2.8-2.9 1-3.4 1.4-3.4.5 0 2.6.4 3.2.6 1.3.4-3.9 15-8.1 23-1.5 2.9-1.6 3.2-.6 3.2 1.1 0 7.8-15.9 9.5-22.6.9-3.5.8-3.4 2.7-2.9 9.4 2.7 19.9 7.7 24.3 11.6.8.7 2 1.6 2.7 2.1 1.7 1.3 1.9 1-3 5.1-6.6 5.5-9.4 8.5-12.7 13.5-3.7 5.5-3.6 5.2-3.1 6.8.5 1.9.6 1.8 1.7-.9 2.3-5.7 5.7-9.8 14.9-18.1 5.2-4.6 4.9-4.5 5.9-3.6l.7.6-5.1 4.5c-10.2 9-12.9 12.7-16 21.7-1 2.8-1 3.5 0 1.2 2.9-7.3 4.8-10.5 9.5-15.9 5.1-5.9 11.7-11.4 12.8-10.6.8.6.9.5-1.8 2.7-10.4 8.3-16 16.2-19.8 27.6-2.9 8.9-3.2 27.3-.6 37.4.4 1.4.3 1.4-.3 1.8-.9.6-1.1.5-1.4-.3-.3-.7-.3-.7-.1.2.1 1-1.6 2.6-1.9 1.8-1.4-4-3.1-14-3.1-18.2v-2.4l-.5.7c-1.2 1.4.9 15.2 2.8 19 .8 1.5.3 2.2-1.9 2.9-.6.2-2.3.8-3.8 1.4-2.7 1-7.1 1.8-10.2 1.8-1.4 0-1.6.4-1.7 3.4-.1 3.1-.2 3.5-1 2.8-.4-.4-.9-.5-2.4-.4-2.6.1-2.8.1-6.6-.1l-3.3-.2-.5-1.9c-.3-1-.5-2.3-.5-2.9-.1-1.2-.3-1.4-3.3-1.6-5.7-.5-18.5-5.5-21.8-8.6-.7-.7-1.2-.9-1.5-.8-.9.3-8.2 7.8-8.2 8.4 0 .9 1.4.5 2.6-.9.7-.8 2.2-2.4 3.2-3.6 1.1-1.2 2.1-2.2 2.2-2.4.1-.2.7.2 1.5 1 3.5 3.4 14.8 7.9 21.1 8.4 2 .2 2.2.3 2.5.8.3.8.8 3.3.9 5.2l.2 1.5 1.2-.1c.7-.1 4.2-.2 7.9-.3 7.6-.2 7.1 0 7.3-2.8.1-.9.3-1.6.4-1.7.7-.2 4.4-.9 5.5-1.1 2.8-.4 12.1-4.7 14-6.5 2.4-2.3 3.6-3 4-2.5.3.5 2.7 2.3 4.3 3.4.5.3 1.2.8 1.6 1.1.9.7 1.1.7 3.2-.5 1.7-1 10.4-8.2 10.7-8.9.1-.2.7-.8 1.3-1.4l1.2-1 1.2.7c.6.4 1.5 1 1.9 1.5.4.4 1 .8 1.3.8.3 0 1.6 1.1 3.2 2.7l2.7 2.7.7-1.6c.4-.9.8-1.8.8-2.2 0-.3.2-1 .5-1.6 4.3-8.9 5.8-26.3 3.3-38.4-4-19.9-15.6-37.3-30.7-46-1.2-.7-2.6-1.6-3.1-1.9-2.7-2.1-8.4-4.7-14.8-6.8-1.2-.4-3-1.1-3.9-1.4-3.7-1.5-13.8-2.7-21-2.5-6.7.2-16.2 1.8-16.6 2.7-.1.2-.5.4-1 .4s-1.9.2-3.2.4c-1.3.2-2.6.4-2.9.5-.4 0-.8-.7-2.1-4.4-.9-2.4-1.8-4.6-1.9-4.8-.3-.4-4.9-12.5-5.9-15.5-.6-1.8-1.1-2.4-1.5-1.9-.4.4 1.3 6 3.4 11.5 2.8 7.5 3.6 9.6 4.2 10.8.3.7 1 2.5 1.4 3.9.4 1.4 1.4 4.4 2.2 6.7 1.6 4.9 1.7 5.8.7 6.3s-1.4-.1-2.6-3.9c-1.5-4.7-2.8-8.6-5.1-15-3.2-8.8-4.3-12.2-5.2-15.7-1.6-4-2.4-5.2-3.3-4.3m68.4.3c-1.5.5-3.2 2.3-4.2 4.2-1.2 2.5-.3 7 1.5 7.3.7.1.8-.3.2-.7-1.1-.9-1.1-5.7-.1-4.9 1.8 1.3 5-.5 5-2.8 0-.6-.1-1.2-.3-1.2-1.1-.7 1.9-.9 3.5-.3.9.3 1.2 1.4.5 2.2-1 1.2-.2 3 1.1 2.7.5-.1.5 0 .4.8-.3 1.9-1.8 4-2.7 4-.7 0-1 .7-.4.9.9.2 2-.2 2.3-.8.1-.3.4-.6.5-.6 1.3 0 2.2-5.9 1.1-7.4-.3-.5-.5-.9-.5-1.1.4-.7-1.7-2-3.5-2-1 0-1.9-.2-2-.3-.5-.5-1-.5-2.4 0m-74.2.4c.5.5.6.5 1.3.2.8-.4.4-.7-1.1-.8h-.8l.6.6m92.7.7c-.4.6-1.4 2.5-2.3 4.2-2.4 4.5-5.9 10.8-7.4 13.2-2 3.1-4.6 7.7-4.6 7.9.2 1.1 1.4-.4 3.7-4.4.4-.8 1.8-3.1 2.9-5.2 1.8-3.2 6.6-12 8.3-15.5.7-1.5.3-1.6-.6-.2m76.7.9c1.6.4 3 .8 3.1.9.5.3 4.9 6.3 5.6 7.6.9 1.8 1.9 3.4 2.8 4.9.7 1.1.9 1.8 1.1 4.1.4 3.4.5 3-1.1 2.6-.7-.2-2.5-.6-3.9-.8-2.9-.5-3.4-.9-5.5-3.7-.7-.9-2.4-2.9-3.8-4.5-3.5-3.9-3.4-3.7-3.3-8.6l.1-4.1 1 .4c.6.2 2.3.8 3.9 1.2m-64.5-.8c-.2.2-1.4.9-2.8 1.7-2.4 1.3-3.2 2-2 2 1.5 0 6.2-3 5.7-3.7-.3-.4-.6-.4-.9 0m-45.6.6c-.2.4-.3.9-.3 1.1 0 .2-.3.9-.6 1.5-1.1 2.1-.5 4.7 1.6 8 1.7 2.5 3.5 3.4 1.9.9-1.5-2.4-1.9-4.2-2-8.3-.2-4-.2-4.2-.6-3.2m36.1.6c-.4.4-1.8 3-3.6 6.2-.4.8-1.8 3.1-3.1 5.2-2.3 3.7-7.3 13.4-7.3 14.1 0 .4.1.4.8.5.1 0 1.7-2.9 3.4-6.4 1.7-3.5 3.8-7.4 4.6-8.7 1.6-2.5 6-11.2 5.8-11.4-.1.1-.3.3-.6.5m-98.8 2.2c0 .8 1.2 1.2 3.4 1.3 2.9.1 3.1-.5.2-.8-1-.1-2.2-.3-2.7-.4-.6-.2-.9-.2-.9-.1m99 4c-1.3.3-1 1 .4.9 1.4-.1 1.9-.5 1.3-.9-.4-.3-.5-.3-1.7 0m23.8.3c-1.9.6-1.8 1.5.2 1 .6-.1 1.9-.2 2.8-.2 2 .1 2.5-.2 1.6-.7-.7-.4-3.4-.5-4.6-.1M57.3 93.2c.2.9.6 2.5.8 3.5.7 2.6.7 2.6-1.1 6.3-.9 1.8-1.8 4-2 4.8-.5 1.8-.8 2.1-3.3 4-1.1.8-2.6 2-3.4 2.7-.8.7-1.5 1.1-1.5 1.1 0-.1-.3-1-.6-2.1s-.8-2.7-1.1-3.6l-.6-1.6 1.1-2.5c1.5-3.3 4.2-7.9 5.4-9 2.8-2.6 5.8-5.2 5.9-5.2 0-.1.2.6.4 1.6m230.9-.9c3.2.2 3.4.3 4.3 1.5 1.1 1.5 4.8 6.1 6.4 7.9l1.6 1.8v4.8c0 2.6.1 4.9.2 5 .7.7.5 2.2-.2 2.4-3.7.7-4.2.8-5.1.2-1.7-1.3-9.7-10.5-9.7-11.2 0-.2-.2-.6-.4-.7-.3-.2-.4-1.5-.5-5.2-.1-2.7-.3-5.3-.4-5.9-.2-1-.2-1 .3-.8.5-.1 2 .1 3.5.2m-93.6 1.1c0 1 1.6 3.1 2.3 3.1.5 0 .4-.4-.8-2.1-1.1-1.7-1.5-2-1.5-1m57.4.2c-5.8 1.3-9 4.8-9 9.6 0 2.4.7 3 .9.8.4-5.8 5-9.6 11.7-9.6 4.2 0 8.1 6 8.1 12.3 0 2.1 0 2.2.4 1.7 2.4-3.1-.8-11.8-5.3-14.4-1.6-.9-4-1-6.8-.4m-50.5.2c-.6.6-1.3 2.3-1.3 3 0 .3-.4 1.3-.8 2.1-1.7 3.3-2.2 5-1.6 5.4.5.3.6.1 1.3-1.5.4-1 1.5-3.2 2.3-4.9.8-1.7 1.4-3.4 1.4-3.7-.1-.9-.7-1-1.3-.4m3.3.1c-.1.2-.8 1.7-1.6 3.3-3.9 8.9-3.5 7.8-2.8 8.1.4.2.6.2.8-.3 4.1-9.7 4.5-10.7 4.2-11.1-.2-.2-.3-.2-.6 0M73.7 95.4c.1.2.2 1.2.2 2.1 0 .9.1 2.3.3 3.2.3 1.9-.2 3.7-2 6.8-.6 1.1-1.5 2.8-2 3.7-.9 1.8-1.5 2.2-5.5 3.8-1.1.5-2.6 1.1-3.2 1.5l-1.1.6-.3-1.5c-.2-.8-.5-2.8-.8-4.3-.6-3.1-.7-2.9 1.3-6.2.8-1.4 1.7-3 2-3.6.9-2 10.6-7.3 11.1-6.1m178.5 2.5c-2.8.5-4.6 2.8-4.7 5.7 0 1.8.1 2.1.7 1.8.3-.1.4-.4.3-1.3l-.1-1.1.7.6c2.5 2 5.7 0 5.4-3.3l-.1-1.4.8.2c1.2.3 2.2.8 2.8 1.6l.5.7-.9.9c-1.3 1.3-1 3.4.5 3.4 2.4 0-1.4 3.4-3.9 3.5-1.1 0-1.5.3-1.6.8 0 .4 2.6.2 3.8-.2 1.6-.6 3-2.2 3.3-3.6.1-.6.3-1.5.4-1.9.3-1.1-.9-4-2.2-5-1.1-1.2-3.7-1.8-5.7-1.4m-12.7.7c-1.4 2-1.5 4.7-.3 8.1.4 1.2.8 2.3.8 2.3s.2.1.4.1c.4 0 .4-.2.2-1.8-.3-2.5-.2-6.4.1-7.6.6-1.7-.3-2.5-1.2-1.1m27.8 3.6c.1 1.2 0 2.5-.2 3.4-.2 1-.3 1.5 0 1.7.7.7 1.4-3.9.9-5.9-.5-1.8-.9-1.3-.7.8m41.6 5.6c2.2.5 4.1 1 4.2 1.2.1.2.7 1 1.3 1.8 5 6.6 4.9 6.3 5.1 9 .1 1.1.4 3 .6 4.2.2 1.2.4 2.6.4 3v.7l-1.7-.2c-.9-.1-2.4-.3-3.4-.4l-1.7-.2-1.7-2.1c-1-1.2-3.1-3.7-4.7-5.5l-3-3.4.2-2.1c.1-1.2.2-3.2.2-4.5 0-1.3.1-2.3.1-2.3s1.9.3 4.1.8m-61.2.1c-3.1 2.5-8.8 9.1-7.5 8.6 1-.4 9-8.7 8.6-9-.1-.2-.5 0-1.1.4m-73 1.5c-.1.9-.2 1-.9 1-1.1 0-1-1.3.2-1.8.9-.3.9-.4.7.8m54.3-.9c0 .5 2.9 2.8 4.8 3.8.6.3 1.7 1.1 2.4 1.7 2.3 2.2 3.2 2.7 3.2 1.9 0-.6-2.7-3-6.3-5.3-3.3-2.2-4.1-2.6-4.1-2.1m-48.8.9c-.1.7-.2.9-.8 1-1.2.1-1.4-.1-1.3-1 .1-1.3 2.2-1.3 2.1 0m47.1-.3c-.3.3-.6.5-.8.5-.3 0-2.3 2.6-4 5.3-.7 1-.7 1.7-.2 1.7.1 0 .7-.8 1.4-1.7 2-2.9 4.1-5.7 4.5-6 .4-.3.4-.3 0-.3-.2 0-.6.2-.9.5m20.2 2.6c-4.4 4.6-7.1 8-6.2 8 .1 0 .2-.1.2-.3 0-.1.2-.3.4-.3s1-.8 1.7-1.7c.7-.9 2.4-2.8 3.7-4.2 2.5-2.6 3.6-4 3.6-4.5 0-.4-.4-.1-3.4 3m-63-2.1c0 .8-.1.8-1.1.8-.9 0-1.1-.1-.9-.4.1-.2.2-.6.2-.8 0-.3.3-.4.9-.4.8 0 .9.1.9.8m4.2 0c.5.3.1 1.4-.4 1.4-1.1 0-1.6-.3-1.4-1 .1-.7 1.1-.9 1.8-.4m75.4 1.7c-1.2 1.7-1.5 2.6-.8 2.6.5 0 2.9-3.4 2.7-3.9-.3-.7-.7-.4-1.9 1.3m-72.5-1.2l1.5.4c.8.2 1 1.4.2 1.3-2.1-.3-3.5-.7-3.5-1.1 0-.9.5-1 1.8-.6m67.4 1.4c-1.1.8-4 1.6-5.8 1.6-1 0-1.4.3-.8.8 1 .8 6.1-.3 7.5-1.7 1.5-1.6 1-2-.9-.7m-58.4 1c12.1 3.3 19.4 6.8 25.4 12.7l2.1 2-2.1-1.3c-1.2-.7-3.1-1.9-4.3-2.7-6.5-4.2-8.1-4.9-16.5-7.9-4.4-1.5-5.8-2-8.5-2.7-1.2-.3-1.5-.5-1.5-1s-.3-.6 5.4.9m-20.9-.1c0 1-.4 1.5-1 1.5-1.1 0-1.4-.3-1.2-1.2.1-.7 2.2-1.1 2.2-.3m-5.4.5c-.1.5-.3.6-1.1.7-1 .1-1.1-.1-.8-.9.3-.7 2-.6 1.9.2m9.5.2c-.1 1.1-.2 1.3-1.1 1.1-1.4-.2-1.1-2 .3-1.9.7.1.8.2.8.8m44 .5c-2.3 2.5-3.4 4.3-2.9 4.9.6.6.9.7.9.2 0-.3 1.9-4 2.9-5.4.6-1.1.1-.9-.9.3m-39.6-.1c0 1.1-.3 1.5-1.1 1.5-.9 0-1.2-.5-.9-1.5.2-1 2-1 2 0m2.5-.2c.6.1 1.4.3 1.9.4.8.2.9.5.5 1.6l-.3.7-1.8-.4c-1-.2-1.9-.4-1.9-.5-.1-.1.2-2 .4-2l1.2.2m-133.8 2.5l.7 2.2-.7 2c-1.1 3.4-2.3 7.5-2.6 9.4l-.3 1.7-3.9 3.8c-2.2 2.2-4 3.7-4.1 3.5-.1-.2-.5-1.1-.9-2.1l-.7-1.8.8-3.5c.5-1.9 1.1-4.4 1.5-5.6.3-1.1.9-3 1.2-4.3.7-2.5.6-2.4 5.7-6 2.7-1.8 2.4-1.9 3.3.7m175.1-2c0 .4 5.5 3.9 5.8 3.7.3-.3-1.5-1.6-3.6-2.9-1.8-1-2.2-1.2-2.2-.8m-29.5 2.8c9.9 3.4 17.2 7.3 22.6 12.1 2.3 2 2.3 2 1.4 2.6-.7.4-.7.4-3.7-1.8-1.7-1.2-3.9-2.8-4.9-3.5-2.2-1.6-8.2-4.5-12.6-6.2-2.8-1-10.4-3.6-10.8-3.6-.2 0-.1-.7.1-1.4l.2-.7 2.2.6c1.3.5 3.7 1.3 5.5 1.9m-160.3 1.8l1.3 2.7-.9 2.6c-.5 1.4-1.2 3.8-1.5 5.3-.6 2.6-.6 2.7-2.4 4.6-1 1.1-2.6 2.8-3.5 3.8l-1.7 1.9-.6-1.4c-.3-.8-.8-1.9-1.1-2.5-.4-.9-.5-1.3-.3-2 .1-.5.7-2.6 1.2-4.8.5-2.2 1.1-4.3 1.3-4.8.7-1.7 6.1-8 6.8-8 0 0 .7 1.1 1.4 2.6m215.7-1.2c-1.8.6-2.1.6-3.8.3-2.1-.4-3.2 0-1.8.6 2.7 1 8.1.2 8-1.2-.1-.4-.4-.3-2.4.3m-112.4 3.2c-2.1 2.1-3.1 5.3-2.5 7.5.5 1.6.4 1.8-.5 1-2.4-2.2-1.1-8.1 2.3-10.2l1.2-.8.2.8c.1.7 0 1-.7 1.7m43.3 2.1c-1 3-2.2 6-4.1 9.8-1.5 3-2.7 5.7-2.7 6.1s-.2.7-.4.8c-.7.4-1.9 3-1.5 3.3.7.4.8.3 2-2.2 3-6.1 6.3-14.7 7.7-20.2.9-3 .5-2-1 2.4m116-1.6c6.1 6.6 7.1 8.3 6.3 11-.5 1.7-1.2 6.4-1.2 7.9s.3 1.4-4.1 1.6l-3.7.2-1.8-3.3c-1-1.8-2.4-4.8-3.3-6.6l-1.5-3.3.3-3c.2-1.7.5-3.6.8-4.4.3-.8.5-1.7.5-1.9 0-.4.2-.5 3-.3l3 .2 1.7 1.9m-149.5-.9c1 .6 1.8 1.9 2.2 3.4.4 1.4.7 1.4 1 .3.2-.9.2-.9 0-1.6-.1-.3-.1-.5.2-.5.7 0 .9.8.9 2.8-.1 5.2-10.8 10.3-14.9 7-1-.8-.5-1.2.7-.6 1.3.6 3.9.5 5.2-.1l1.1-.5-1.8-.3c-1.7-.3-3.8-1.2-3.8-1.6 0-.1.9-.2 2.1-.2 4.6 0 8.1-4.4 6.3-7.9-.5-.8-.3-.9.8-.2m73.6 12.3c.7.8.7.8.2 1.1-.9.5-2.4-.6-1.7-1.4.5-.7.6-.7 1.5.3m91 1.5c1.2.3 1.8.6 1.9 1 .1.3 1.3 2.8 2.7 5.6 1.4 2.8 2.7 5.6 3 6.3l.5 1.2-.8 1.9c-1.3 3.1-2.7 6.8-2.7 7.2 0 .2-.1.4-.3.3-.2-.1-1.2-.3-2.3-.6-3.3-.8-4-1.5-5.2-5.1-.2-.7-1.1-2.7-1.9-4.5l-1.5-3.1.6-3.9c.3-2.2.6-4.6.7-5.5l.2-1.5 1.8.1c.8.1 2.4.4 3.3.6m-88.9 1.1c-.6.5-.7.4-1.3-.2-.8-.9.2-1.6 1.2-.7.5.5.5.6.1.9m1.5.9c.2.4.2.6 0 .9-.4.4-1.5-.7-1.2-1.1.3-.6.9-.4 1.2.2m-189.4 3.7l1.5 2.5-.2 5.6c-.3 9.5-.2 9.3-2 11.1-.8.8-2.2 2.4-3.2 3.5l-1.7 2-1.1-1.2c-.6-.7-1.5-1.8-2-2.4l-.9-1.2.6-6.4c1-10.3.7-9.5 4.1-13.1 3.4-3.6 3-3.6 4.9-.4m187.2-2.1l.6.6-2.6 1.9c-18 13.3-25.4 36.7-19.2 60.8.8 3 .8 3.6.2 3-.2-.2-.6-.3-.9-.3-.6 0-.9-.5-.9-1.3 0-.2-.2-.8-.4-1.2-.2-.4-.4-1-.4-1.3 0-.3-.3-2-.7-3.9-1.6-7.4-.9-20.8 1.4-29.1 2.9-10.3 10.2-20.8 19.4-27.8 3-2.3 2.8-2.2 3.5-1.4m4.3 1.3c.4.8.3.9-.3.4s-.7-.9-.3-.9c.2 0 .5.2.6.5m-1.6 1.5l.6.7-.9.7c-11.4 8.7-19.2 22.3-20.9 36.2-1.2 10.6.1 22 3.2 27.3 1.6 2.7 1.4 3.2-.7 1.6-4.8-3.7-6.6-20.3-3.7-34.5 1.9-9.2 8.9-21.6 15.8-27.8 5.6-5.1 5.7-5.2 6.6-4.2m-204.7 1.1c.2.7.6 1.9 1 2.7.6 1.6.6 3.5 0 10.4-.3 3.2-.4 3.6-2.1 5.4l-1 1.1-.6-.6c-1.6-1.5-2-2.5-1.7-4.1.1-.9.3-2.3.4-3.3.8-8.2 1.3-10.7 2.2-11.9 1.2-1.4 1.3-1.4 1.8.3m138.5 1.6c-7.9 2.2-11.3 4.2-14.7 8.7-.8 1-1.6 2-1.8 2.2-.2.2-.8 1-1.3 1.9-.5.8-1 1.7-1.2 1.9-2 2.6-3.2 12.8-2 18.1.1.7.4 1.9.6 2.8.4 1.8 2.5 6.2 3.8 7.9.5.7.9 1.4.9 1.7 0 .3.4.7.9 1 .5.3 1.3 1.1 1.8 1.8 2.5 3.2 13.4 6.3 20.1 5.8 1.3-.1 2.8-.2 3.2-.1 6.2.6 14.6-3.3 16.8-7.9.6-1.2.4-1.4-.5-.6-2.1 2.1-6.2 4.2-10.4 5.3-1.7.4-3.8 1.1-4.6 1.4-3.3 1.3-15.6-.2-17.8-2.3-.3-.3-1.3-.9-2.1-1.4-6-3.3-8.4-6.4-10-13.2-1.1-4.7-1.3-6.1-1.3-10.1v-3.5l1.3-3.9c3-8.7 5.7-11.5 14.9-15.2l3.1-1.2 3.1.2c5.5.3 8.3.8 11.5 2.1 1.6.6 3.8 1.4 4.7 1.8 5.6 2 14 10.7 13.3 13.6-.1.3.3 1.6.8 3 2.7 7.2 2.1 10.5-3.4 19.8-2.6 4.5-.7 3.9 2.4-.7 3-4.5 4.1-8 4.1-13.1 0-3.7 0-3.6-1.6-8.6-.1-.4-.1-.5.2-.3.9.5-.5-3.3-1.9-5.3-.3-.4-.6-1-.6-1.3 0-.3-.3-.7-.6-.8-.3-.1-.9-.7-1.3-1.3-1.2-1.6-4.5-4.6-5.7-5.3-1.3-.7-6.9-2.7-7.5-2.7-.2 0-1.9-.4-3.6-.9-4.9-1.4-11.2-2-13.6-1.3m143 2.9c1 1.4 2.9 5.3 4.1 8.1.6 1.5 1.3 3 1.5 3.3.2.3.3.7.1 1.1-.2.5-3 10.7-3.3 12.2-.2.7-.2.7-1.7.7-.8 0-2.5 0-3.8.1l-2.3.2-.8-1.6c-.5-.9-1.2-2.5-1.6-3.6-.4-1.1-1.4-3.3-2.2-4.9-1.6-3.5-1.6-3.9 0-8.5 1.7-4.9 2.1-6.1 2.3-6.9l.2-.7 3.1-.1c1.7 0 3.3-.1 3.6-.1.1 0 .5.3.8.7m-141.5 1.4c-7.2 1.9-14.7 10.3-16.9 18.7-2.6 10.1 4.4 22.5 14 24.9 1 .3.9-.3-.2-.8-6.9-3.5-10.3-10.3-9.7-19.1.2-3 .3-3 2.1-1.6 5 3.8 11.3 1.8 14.5-4.6 2.2-4.3-.8-10.3-5.6-11l-1.5-.2 1.7-.8c4-1.9 8.4-2.7 11.9-2.2 1.4.2 2.2.2 2.4 0 .1-.1.6-.3 1-.3 1.2 0-.5-.6-4.4-1.6-1.9-.5-3.7-1-3.9-1.3-.7-.7-3.2-.7-5.4-.1m165.1 8l.4 4.1c.4 2.7.3 3.6-.1 4.3-.2.3-.4 1.7-.5 3-.4 6-1.1 6.2-3 .7-.6-1.7-1.3-3.6-1.6-4.3-.4-1-.4-1.4-.2-2 .2-.4.7-1.8 1.3-3.1 1.8-4.5 1.9-4.7 2.8-4.7h.8l.1 2m-142 1.6c0 .2.4 1.7.9 3.2 3.1 9.5 1.9 16.2-4 23-.9 1-1.5 1.9-1.5 2.3 0 .7-.6 1.1-4.2 2.7-2.8 1.3-3.2 1.7-1.8 2 5.7 1.3 11.6-3.3 15-11.6 2.2-5.4 2-13.2-.4-17.2-1.1-1.7-3.9-4.9-4-4.4m129.1 4.8c.7.3 1.8.7 2.5.8.7.1 1.4.3 1.5.5.4.4 2.6 8.4 3 10.7l.4 2.3-1.5 3.3c-.8 1.8-1.7 3.8-1.8 4.3l-.3.9-2.3-.1c-3-.1-3.4-.7-5.4-7.5-.3-1.1-.7-2.2-.9-2.5-.6-1.1-.5-2.6.4-4.9.5-1.3 1.1-3 1.3-3.8 1.5-5.2 1.2-4.8 3.1-4m-286.7 4.3l2.4 2.4v3.5c0 1.9.1 4.2.2 4.9.2 1.3.2 1.4-.7 2.3-.8.8-3.7 4.9-4.6 6.5l-.3.6-1.4-.8c-.8-.4-1.7-.8-2.1-.9-.6-.1-.7-.3-1-2.9-.2-1.5-.5-3.9-.7-5.3-.2-1.4-.5-3.1-.6-3.9l-.1-1.3 3.1-3.8c1.7-2.1 3.2-3.8 3.2-3.8.2.1 1.3 1.2 2.6 2.5m151.1.9c-3 1.5-3.2 4.7-.5 6.2s5.2 0 5.6-3.4c.3-2.4-2.6-4-5.1-2.8m125.6 9.6l2.4.3.7 1.8c.4 1 1.1 3 1.5 4.6l.8 2.8-1.1 2.5c-.6 1.4-1.4 3.3-1.8 4.2-2.5 5.8-2 5.3-5.5 5.4l-2.1.1-1-2.9c-2.3-6.6-2.5-7.5-1.9-8.9.3-.7 1.1-3.2 1.9-5.5.8-2.3 1.5-4.4 1.6-4.6.1-.3.4-.3 1.1-.2.5 0 2.1.2 3.4.4m23.4 2.4c.4.3.9 3 1.6 9.1l.4 2.9-1.3 3.9-1.3 3.9h-1.2c-1.6-.1-1.7-.3-3.4-8l-.5-2.4.7-2.1c.4-1.2 1-3.4 1.5-4.9l.8-2.7h1.1c.6-.1 1.3.1 1.6.3m-132.3 2.9c-.7 1.6-.2 10.8 1 16.2.9 4.3 1.3 5 .6 1.1-.3-1.5-.5-5.2-.7-10.2-.2-8.5-.2-8.5-.9-7.1m-57 4.1c-5.6 3.3-14.7 7.7-20.3 9.8-4.7 1.7-5.6 2.1-5 2.3 2.1.6 27.9-11.7 27.9-13.2 0-.3-.5-.1-2.6 1.1m1.5 2.4c-3.2 2.1-20.2 10.2-21.5 10.2-.6 0-1.5.6-1.2.8.7.5 1.3.3 5.9-1.8 7.5-3.3 16-7.9 18.4-10 1.4-1.1.9-.9-1.6.8m-118.7 2.5c1 1 1.7 3 3.5 11 .5 2 .9 3.8.9 3.9.1.1-.3 1-.8 2.1-.5 1-1.1 2.6-1.4 3.5-.3.9-.6 1.6-.8 1.6-.3 0-3.6-2.7-5.1-4.1-.2-.2-1-3.4-1.8-7.2l-1.4-6.9.8-1.8c.4-1 1.2-2.5 1.7-3.4l.9-1.7 1.2 1c.8.7 1.8 1.5 2.3 2m294.4-1.8c2.1.3 2.3.5 2.5 1.9.1.6.7 3.6 1.4 6.6l1.2 5.5-1.6 3.5c-.9 1.9-1.6 3.6-1.6 3.8 0 .2-.2.3-.5.1-.3-.1-1.5-.5-2.9-1-3.6-1.1-3.6-1.1-4.4-3.6-.4-1.2-1.1-2.8-1.4-3.7-1-2.1-1-2.2 1.4-7.4 1.2-2.5 2.3-5 2.5-5.5.3-.7.5-.9 1-.7.4.1 1.5.3 2.4.5m-172.9.6c-2.8 2.2-12.2 7.1-18.3 9.6-3.6 1.4-4.2 1.8-3 2 1.8.3 22.4-10.8 22.4-12.1.1-.3-.3-.2-1.1.5m-64.7 1.2c-.6.6-.7.8-.3.7a16 16 0 0 1 2.5-.4c3.1-.4 3.2-1 .3-1.1-1.5 0-1.8.1-2.5.8m179.5.2c-.6.4-.4.5 1.7.9 1 .2 2.1.5 2.4.6.7.3.4-.4-.4-1s-3.1-.9-3.7-.5m-15.2 1.7c0 .4.1.8.2.8s.6.3 1.1.7c.5.4 1.8 1.2 3 1.8 1.9 1 3.4 1.9 5.7 3.5.5.3.6.4.6.1 0-.4-3-2.8-5.9-4.7-1.1-.7-2.5-1.7-3.2-2.1-1.3-1.1-1.5-1.1-1.5-.1m-145.1-.2c-7.3 3.9-10.9 6.1-10.9 6.6 0 .3-.3.5 3.7-1.6 1.8-.9 3.4-1.7 3.7-1.7 1 0 4.7-2.2 4.7-2.9-.1-.7-.4-.8-1.2-.4m-12.8.4l-.6.5h.6c.3 0 1 .2 1.6.4 1.1.5 1.2.4 1-.3-.1-.3-.5-.7-1-.9-1-.3-.9-.3-1.6.3m168.7.7c-.5.5-.6 1.3-.1 1.1.2-.1.8-.3 1.5-.5.9-.3 1.1-.4.8-.7-.4-.4-1.7-.4-2.2.1m-175.8 2.3c-2.9 2.3-3.3 9-.7 11.3.3.3.3.1-.1-.6-1.2-2.2-.3-8.4 1.5-10.7 1.1-1.4.9-1.4-.7 0m5.1-.3c-2.8 1.7-4.4 5.9-3.3 8.5 2.4 5.5 11 4.9 12.7-.9.2-.7-.4-.9-.9-.3-2.2 2.7-3.1 3.3-4.3 2.7-.9-.5-1.6-.5-2.8-.1-1 .4-2-.1-2.8-1.5-.6-1-.7-1.8-.2-1.3 1.3 1.3 4.5-2.2 4.5-4.9 0-.9 0-.9.9-.9.6 0 .9-.1.9-.4 0-1.2-3.2-1.9-4.7-.9m171.5.3c-1.7.4-2.1 1.6-.6 1.6.8 0 .9.1.8.7-.4 2.1 1.9 5.9 3.4 5.6.4-.1.8-.1.8 0 0 .5-.8 1.6-1.6 2.2l-1 .7-.9-.5c-.8-.4-1.1-.5-2.2-.2-1.4.4-2.8-.3-3.4-1.8-.8-1.9-1.9-2.3-1.5-.5 1.7 7.5 13.6 5.5 12.2-2-.8-4-3.4-6.5-6-5.8m6.5.1c0 .2.2.4.4.6 1.5 1.2 2.1 9.1.8 11.1-.5.7-.5.8 0 .4 1.6-1.3 2.5-5.8 1.7-8.6-.3-1-2.9-4.1-2.9-3.5m-19.3.8c-.3.7-.2.9.6 1.2 1.4.6 5.6 2.4 7.5 3.3 1.1.5 2 .9 2.1.9.3 0-4.2-3.3-5.3-3.9-1-.5-4.5-2-4.7-2 0 .1-.1.3-.2.5m-145.5 1c-2.2.8-7.9 3.8-7.6 4.1.1.1.6-.1 1.3-.4.6-.3 3.2-1.1 5.6-1.9 5.2-1.7 4.5-1.4 4.4-2.1-.3-.8-.7-.7-3.7.3m16 3.1c-3.6 3.7-3.7 3.3.9 5.9 4.6 2.6 6.1 3.3 6.3 3.2.2-.2-2.4-1.9-5-3.4-2-1.1-3.1-2.2-2.7-2.7.2-.4 1.1-.3 1.5.1.5.6 7.9 4.5 8.3 4.3.3-.1-2.6-2.1-6.4-4.2-2.6-1.5-2.9-1.8-2.5-2.2.3-.3 5.1 1.9 7.9 3.6 1.1.7 2.7 1.6 3.7 2a13 13 0 0 1 2.7 1.5l.9.7.1-.6c.1-.9-1.8-2.5-5.6-4.4-1.8-.9-3.7-2-4.2-2.3s-1.4-.9-2-1.1c-.6-.3-1.3-.6-1.4-.8-.5-.6-1.8-.4-2.5.4m194.6 4.4c1.9 4.7 2 4.2-1.8 11.6-3.8 7.4-3.5 7-4.7 7-.5 0-1.7.3-2.8.7-1.4.5-1.9.6-2 .3-.4-1.1-2.1-8.3-2.2-9.2-.1-1 .1-1.6 1.2-4 1.6-3.5 4-9.2 4-9.6 0-.2 1-.3 3.4-.2l3.4.1 1.5 3.3m-83.4 2.5c-5 4.9-5.6 5.8-2.5 3.7 5.5-3.8 7.8-4.3 3.8-.9-3.2 2.7-3.3 3.1-.3.8 2.2-1.6 3.2-2.3 4-2.3 1.1 0 1.1.2-.9 2.1-1.7 1.6-2.2 2.5-1.6 2.5.4 0 5.5-4.7 5.9-5.3.7-1.3-.2-3.5-1.6-4.2-2.1-1.2-1.8-1.3-6.8 3.6m-151-.8c1 4.1 5.7 7.8 9.6 7.4 2-.2 1.8-.5-.4-.8-3-.3-7-3.2-8.5-6-.8-1.5-1-1.7-.7-.6m35.4.5c-4.5 5.6-9.5 13.7-9.5 15.3 0 .2-.3.8-.7 1.3-.7 1-3.7 9-4.8 12.6-1.3 4.5-2.1 10.8-1.7 13.8.2 1.8.7 4.4.9 5.1.2.7 2.1 1.1 6.1 1.3l3.5.2.1.9.1.9-2.2.1c-1.6 0-2.8-.1-4.6-.6l-2.4-.6.2.6c.1.3.2.6.2.7 0 .1.9.2 2.1.3 1.1.1 3.1.2 4.4.3l2.3.2v.9c0 1.1-.8 1.2-4.4.5-1.2-.2-2.5-.5-2.9-.5-.8-.1-.8.5 0 .8 1.4.6 6.3 1.2 6.9.8.4-.3.6-.3.9-.1.4.4.7-.5 1-2.7 1.2-10.7 8.9-26.8 17.3-35.7.7-.7.8-1 .6-1.8-.2-1.5.2-3.8 1.3-6l.9-2s-.7-.3-1.5-.7c-.8-.3-2.5-1.1-3.7-1.8-1.2-.6-2.3-1.2-2.4-1.2s.7.7 1.8 1.5 2.2 1.8 2.6 2.2l.6.8-.5 1.4c-.3.8-.8 1.9-1.1 2.5s-.5 1.3-.4 1.5c.1.4-.9 2.4-1.3 2.5-.1 0-.5-.6-.7-1.5-.9-3-4.1-9.2-5.7-11-2.1-2.3-2-1.8.1 1.1 3.3 4.6 6.1 11.3 5.4 13.2-.4 1.2-.5 1.1-1.7-1.9-1.5-3.9-3.7-7.9-5.6-10.4-2-2.6-1.9-2.3-.9-3.5l.8-1 1.5.4c2.2.5 2.3.5.3-.7-2.2-1.2-2.2-1.2-3.2 0M98.5 209c-.4.7-1 1.7-1.4 2.2l-.7.9 1.2-.7c1.4-.8 1.9-1.4 2.1-2.8.1-1.3-.4-1.1-1.2.4m153.2-.6c0 .9.4 1.7 1.4 2.7 1 1.1 1.4 1.1.8.2-.3-.4-.7-1.3-1-2-.6-1.6-1.2-2-1.2-.9m19.9.5c-1.7 3-6 5.5-9.2 5.6-1.4 0-1.5.4-.1.6 3.7.6 7.6-1.6 9.4-5.3 1-2.1.9-2.7-.1-.9m58.5-.6c.6.4.3 6.8-.6 9.5-1 3.3-1.9 4.7-3 4.6l-.8-.1-.2-3.8c-.1-2.5-.1-4 .1-4.4.1-.3.4-.9.5-1.2.1-.4.7-1.4 1.3-2.3 1.6-2.7 1.8-2.9 2.7-2.3m-236.4 1.1c-1.4.6-2.3.8-3.7.8-2.1 0-2.3.3-.4.8 2.5.6 4.1.2 5.4-1.4l.7-.9c-.1-.1-1 .3-2 .7m162.3.2c1.3 1.7 1.9 2 4 1.9 2.4-.1 2.9-.5.8-.7-1.1-.1-2.3-.5-3.5-1.1l-1.9-1 .6.9m-21.3 4.2c-4.3 4.4-4.7 5.1-3.9 5.8 1 .8 5.4 7.1 7.1 10.2 1 1.8 2.4 4.2 3 5.3.7 1.1 2 3.5 3 5.3 1 1.8 2.2 3.7 2.7 4.2l.9.9.6-1.3c.5-1.1.6-1.9.7-5.7l.1-4.4-.9-1.4c-.5-.8-1.2-1.9-1.7-2.5-1.2-1.5-1.3-1.8-.7-5.5.9-5.4.9-5.4-3.8-11.2-1.3-1.6-2.3-3-2.3-3.1.2-1.5-.7-.9-4.8 3.4m-93.9-1.7a7.92 7.92 0 0 0-2.4 4.7l-.2 1.4.9-.1c.9-.1 3.5.7 5.8 1.9 1.8.9 8.2 2.9 11.3 3.5 1.8.4 3 .7 3.1 1 .1.3 0 .3-.5.2-1.1-.2-4.1-.7-4.6-.6-1.1 0 3.2 1.3 4.5 1.3 1.1 0 1.3.1 1.4.5.2.6.4.7 2.9 1.2 3.1.7 4.7 1.2 4.7 1.6 0 .4-2.6 6.3-4.5 10.2l-1.3 2.7-1.2-2.5c-2.1-4.4-10.5-14.6-11.9-14.6-.2 0 .2.5.9 1.1.7.6 1.8 2 2.5 3s2.3 3.2 3.5 4.9c2 2.8 4.9 8.2 5.1 9.5.1.7-1.1 4.7-1.4 4.7-.1 0-.2-.1-.2-.3 0-1.4-3.6-8.2-7.7-14.5-4.4-6.8-12.1-12.7-17.6-13.4-1.7-.2-1.4.4.5 1 7.5 2.3 13 7.3 18.6 16.7 4.9 8.2 6.3 12.4 5.1 15.1l-.3.8-.4-1.7c-2.5-11.9-11.8-24.5-20.4-27.7-1.2-.4-2.5-1-3-1.2-.4-.2-1.1-.4-1.5-.4-.9 0-.9-.2-.4-2 .5-1.4 1.4-1.6 4-.9 2.3.6 1.4-.9-1.3-2.2-.9-.4-1.8-1-2-1.2-.8-.7-1.4-.3-1.4.9 0 .6-.2 1.3-.4 1.5-.2.3-2.4 10.2-2.4 11 0 .1.2.1.5 0 1.2-.4 5.1 1.3 7.9 3.4 6.9 5.1 10.8 10.6 12.1 16.9l.9 4.5c1 4.8-.1 11.2-2.5 14.9-3.3 4.9-11.3 10-15.7 10-1.2 0-1.2.1-.7 1.5.5 1.1.7 1.1 3.2.4 4.9-1.4 9.5-4.7 14.7-10.5 3.4-3.8 4.7-11.6 2.8-17.1-.3-.9-.7-2.3-.9-3.2-.7-3.7-6.1-12.6-9.9-16.4-2.5-2.5-8.5-6.1-10-6.1-.6 0-.8-1.2-.3-1.8.8-1 9.7 4.3 12.7 7.6 1.7 1.8 6.3 7.8 6.6 8.6.1.2.7 1.6 1.5 3.1.9 1.8 1.4 3.1 1.4 3.9 0 .6.2 1.9.5 2.7.2.9.5 2.2.6 2.9.1.7.4 2.4.7 3.6.5 2.3.5 2.3 0 4.4-.3 1.1-.5 2.3-.5 2.6 0 3.4-8.3 12.8-14.2 16-2.9 1.5-3.7 2.3-1.5 1.5 4.7-1.8 10.9-6.5 13.6-10.1 1.4-1.9 1.4-1.9 1-.3-.6 2.8-6.4 8.4-11.1 10.8-.8.4-1.5.8-1.6 1-1.2 1.9 6.3-2.9 9.9-6.3 1.3-1.2 1.9-1.6 1.9-1.3.1.7-2.2 3.2-5.4 5.8-1.7 1.4-3 2.5-2.9 2.6.2.2 4.1-2.6 6.1-4.5 1.7-1.5 2.1-1.8 2.1-1.3 0 .7-1.8 2.8-4.4 5l-1.3 1.2 1.4-.8c.8-.4 2-1.3 2.7-1.9l1.3-1.2v1c0 .9-.2 1.2-1.9 2.6-1.3 1.1-1.8 1.6-1.6 1.8.3.3 1.2-.2 2.6-1.5l.9-.9v1.3c0 1 .1 1.4.4 1.5.6.2.6.3 1.2-4.4s1.5-9.8 2.4-12.9c.3-1.1 1-3.4 1.5-5.1 3.3-11.3 6.9-19.9 11.5-27.6 2.3-3.8 2.4-4.1 1.8-5-.6-.7-.5-1.3.3-2.6 1.9-3.1 1.6-4.8-.6-3.3l-1 .7-3.1-.7c-4-.9-3.8-.9-3.6-1.4.5-1.4 1.7-5.5 1.7-6.1 0-2.5-4.7.1-5.3 2.9-.1.7-.2.8-1.2.6-3.2-.5-10.3-2.6-12.6-3.8-.6-.3-1.9-.8-2.9-1.1-1.6-.5-1.8-.7-1.4-1 .3-.3.7-.3 2.8.5 4.3 1.7 14.5 4.3 14.5 3.8 0-.3-3.2-1.3-9.9-3.2-4.1-1.1-6.5-2.1-6.1-2.3.6-.4 1-.3 6.1 1.4 4.9 1.6 7.8 2.1 6.6 1.2-.9-.7-4.4-2.4-7.1-3.4-2.3-.9-3.4-1.5-2.6-1.5.1 0 2.1.6 4.4 1.3 4.9 1.6 5.7 1.7 1.8.3-1.5-.6-3.9-1.6-5.3-2.3-3.4-1.5-3.8-1.5-5.3 0m-26.2 1.6c3.5 3.9 6.8 10.9 5.9 13-.5 1.2-.6 1.1-1.7-1.9-1.7-4.7-2.9-6.7-5.5-9.4l-2.4-2.5.6-.8c.7-1.1.5-1.2 3.1 1.6m93.6-.2c-1.7.9-3.7 2.1-4.4 2.6-.7.5-2.6 1.8-4.2 2.8l-2.9 1.9-.4-.8c-.2-.4-.4-.8-.3-.9l1.4-1c.7-.5 2.6-1.6 4.1-2.5 1.5-.8 2.7-1.6 2.7-1.6 0-.2-5.9 1.8-7.5 2.5-1 .4-2.6 1-3.6 1.1l-1.9.3-.1 5-.1 5h1.4c1.7 0 3.8-1.2 4.2-2.3.2-.6.8-1 3.3-2.2 3.2-1.5 4.6-2.3 10.6-5.9 3.6-2.2 4.3-2.9 3.2-3.1-1.5-.2-2.3-.9-1.9-1.4.5-.6.3-1.4-.3-1.3 0 .1-1.6.9-3.3 1.8m110.1-.7c1 .4 2.1.9 2.6 1.1 1 .4 1 .9 1.3 7.5l.2 3.6-.9 1.2c-1.2 1.6-3.6 5.1-4.4 6.4l-.6 1h-2c-3 0-3.5-1-4.1-7.9l-.2-2.1 3-5.8 3.1-5.8c.2 0 1.1.4 2 .8m-206.1 3.3c3 2.7 4.8 5.5 6.6 10.3.8 2 .8 2.1.1 3l-.5.7-.3-.9c-1.4-4-3.8-7.9-6.5-10.5l-2.7-2.7.5-.7c.6-1.1.7-1.1 2.8.8m103.9.5c-1.8 1.2-5.2 3.3-7.6 4.7-5.8 3.4-5.3 2.9-5.3 6.1 0 8 3.2 17.1 8.3 23.1 6 7.2 9.4 10 12.4 10.3.7.1 1.6.3 2 .5 1.1.6 3 .5 3.7 0 .5-.5.5-.5.2-4.1-.8-7.9-1-10.3-1.1-12.1-.1-1.7-1.2-8.5-2.2-12.8-1.3-5.8-5.3-16.5-6.4-17.4-.7-.6-.4-.7-4 1.7m-11.2.7c-.1.1-.3.7-.4 1.3-.3 1-.5 1.2-2.2 2.2-1.1.6-2.3 1.4-2.7 1.7-1 .7-2.3 1.3-2.3 1 0-.1-.1-.6-.2-1-.2-.8-.1-.8 2.1-2a94 94 0 0 0 3.8-2.3c1.5-1.1 2.2-1.4 1.9-.9m-96.4 1.5c1.8.9 6.7 7.3 7.6 10 .7 2 .7 4.5-.1 5.1-.8.6-1.1.6-1.1 0 0-1.7-3.5-7.6-6.2-10.3-2.9-3-2.9-3.1-1.8-4.5.7-.8.6-.8 1.6-.3m26 4.9c8.2 2.6 18.4 14.2 21.1 23.9.7 2.5 1.3 7.8 1 8.6-.2.5-.6.1-.6-.5 0-.3-.2-.8-.4-1-.2-.2-.5-1.4-.7-2.6-.5-2.9-1.4-6.1-2.8-9.5-3.4-8-13.6-17.3-19.9-18.1-.9-.1-1.2-.3-1.1-.5.1-.2.2-.6.2-.8.1-.3.9-.3 3.2.5m-25.6 3.5c6.5 9.9 1.7 23.7-8.3 23.8-2.4 0-2.7-.8-.4-1 4.8-.5 9.4-4.8 10.2-9.6.7-3.8-1.6-10.9-4.4-14.1-1.1-1.3-1.2-1.5-1-2.1l.3-.7 1 .6c.7.6 1.5 1.6 2.6 3.1m78.4-1.3c-1.6 1.3-2.1 2.4-1.6 3.6.5 1.3.5 1.8-.1 3.7-.7 2-.8 1.7 1.2 3.7.9 1 2.9 3.4 4.3 5.4 1.4 2 2.8 4 3.1 4.4 4.3 5.8 6.8 10.6 9.6 18.4.7 2 1.5 4.2 1.8 4.9.3.7 1.2 3.3 2 5.7.8 2.4 1.7 5.1 2.1 5.9.4.8.8 2.2.9 3.1.3 2.7.4 2.8 2.4 2.8 1.8 0 5-1.2 9.3-3.5.9-.5 1.6-.7 1.7-.5.2.3 1.5-.4 1.5-.8 0-.5-1-.2-2.9.8-4.3 2.2-6.6 3-8.5 2.9l-1.8-.1-.3-2.2c-.2-1.2-.5-2.5-.7-2.8-.2-.3-.6-1.4-.9-2.5s-.8-2.5-1.1-3.3l-.6-1.4 2.1 1.4c2.1 1.5 9.7 5 9.9 4.6 0-.1.6-.2 1.3-.1 1.8.1 1.1-.4-1-.7-2.6-.4-10.8-4.3-12.1-5.8-.4-.4-1.5-3.8-1.5-4.7 0-.1.7.4 1.7 1.1 5 4.1 14.8 8.3 19.3 8.3 1.8 0 1.2-.3-1.9-1-8.7-2-18.7-8.1-20.6-12.6-.3-.8-1.3-2.8-2.1-4.4l-1.5-2.9 2.5 2.7c7.9 8.5 14.7 12.5 22.6 13.6 1.7.2 3.2.4 3.4.4.5 0 .4-1.1-.1-1.1-5.8-.1-11-2-17.1-6.1-2.7-1.8-3.9-3-8.8-8.4-1.6-1.8-3.7-5.1-4.2-6.7-.2-.6-1.1-2.6-2-4.5-.9-1.9-1.7-3.7-1.7-4 0-.7-1.1-5.5-1.4-6.1-.3-.6-1-5.1-1-6.3 0-.6-.1-.8-.3-.7-.3.2-.1 4.5.3 6.4.1.6.4 2.2.7 3.6.2 1.4.5 2.8.6 3.2.1.4-.7-.8-1.6-2.7-1-1.8-1.9-3.5-2-3.6-.3-.4-.6-2.2-.6-4.2 0-2.1-.3-2.5-.8-1.3l-.4.8-1.2-1.9c-1.3-1.9-1.4-2.5-.5-2.7.4-.1.5-.4.5-1.4-.4-1.4-.5-1.5-1.9-.4m44.7.9c1.4 2.2 2.8 4.2 3.7 5.5.5.6 1.7 2.7 2.8 4.7 5.7 10.4 7.1 12.4 7.1 11 0-1.5-8.8-16.5-11.4-19.4-.7-.8-1.5-1.8-1.9-2.2-1-1.6-1.2-1.2-.3.4m-32.1-.2c-.4 1.1-.4 7 0 9.3 1.7 8.5 7.4 17.9 14.4 23.6 4.6 3.7 8.7 5.9 12.5 6.7 3.7.7 3.8.7 3.8-.2 0-.9-.1-.9-2.7-1.3-8.6-1.3-18.8-10.5-23.9-21.5-1.8-4-2.6-7.2-2.7-12.4-.2-5.1-.6-6.2-1.4-4.2m107.6.7c.1.3.4 2.2.8 4.2l.7 3.6-.8 1.9c-4.1 9.7-4.4 10.1-7.3 11.1-2.4.8-3.1.9-3.1.6 0-.3-.7-5.1-1-7.3-.3-2 .1-3 2.6-6.8 2.1-3.1 2.2-3.4 2.9-4.9l.6-1.5 2.1-.7c2.5-1 2.4-1 2.5-.2m-110.7 1c-1.9 3.6 2 17 6.7 23.3.5.6 1.7 2.3 2.6 3.7 4 5.8 11.4 11.3 18.1 13.6 2 .7 6.1 1.3 6.5 1 .6-.6-.1-1-2.3-1.3-4.1-.6-8.9-2.7-12.5-5.5-5.9-4.6-6.4-5-7.9-7.2-.9-1.2-2.2-3.1-3.1-4.3-4.6-6.4-7.4-14.1-7.6-20.8 0-3.1-.1-3.4-.5-2.5m128.1 1.1c1.8.5 1.8.5.9 4.5-.5 2-.9 3.8-.9 4.1-.1.6-2.1 2.2-3.8 3.3l-1 .6-.2-3.1c-.2-2.8-.1-3.2.4-4.3.9-1.9 3-5.4 3.3-5.4 0 0 .6.1 1.3.3m-196.7.8c0 .1-.1.8-.3 1.6-1.6 8.7-1.8 29.5-.4 36.5.4 2.2 2.3 8.9 2.5 9.1.1.1 1.2 0 2.4-.2 7-1.3 14.1-7.4 15.3-13.1 1.5-6.9.3-14.1-3.7-22.2-1.4-2.8-8.9-9.3-12.5-10.7-1.9-.8-3.3-1.2-3.3-1m49.6 2.1c-.7.1-1.9.2-2.8.2-3.2.1-3.6 1.9-.5 2.3 2.6.3 8.6-1.4 8.6-2.4.1-.4-3-.5-5.3-.1m4.3 3.8c-.3.3-7.4 1-8.9.8l-1.6-.2-1 1.4c-.5.8-1.2 2-1.6 2.7-.3.7-.8 1.3-.9 1.3-.4 0-.7.7-.5 1.1.1.1-.3 1.2-.8 2.5s-.9 2.3-.9 2.4c0 1.5 8 3.1 13.2 2.7 3.3-.2 4.4-.5 7.5-2 3.9-1.9 4-2 1.4-5.8-4.3-6.4-5.3-7.5-5.9-6.9m133.8.6l.8.2v3.3c0 3.2 0 3.3-.9 4.8-.5.9-1.6 3.1-2.5 5l-1.6 3.5-2 .4c-1.1.2-2.2.5-2.5.6-.5.2-.6.1-.8-2-.3-2.5-.5-1.9 3.3-11.1l2-4.9h1.7c.9.1 2.1.1 2.5.2m-207.5 14.7c-.7 2.8-6.7 4.7-8.6 2.8-1-1-.5-1.4 1.3-1.2 2.2.2 4.7-.4 6-1.5 1.2-1 1.5-1 1.3-.1m194.4 3.6l-.1 3.5-1.5 2c-.8 1.1-2.9 4-4.7 6.4-1.8 2.4-3.5 4.7-3.7 5-.3.4-1.2.8-3 1.2-1.4.4-3.1.9-3.7 1.2l-1.1.7-.2-1c-.1-.5-.3-1.9-.5-3-.4-2.4-.6-2 2.8-6.3 1.2-1.6 3.3-4.2 4.5-5.8 4.5-5.9 4.3-5.8 5.1-5.6.4.1.8 0 1-.1.3-.3 4-1.5 4.7-1.5.5-.2.5.1.4 3.3m-125.5-2.2c-6.6.4-13.1 1.8-13.8 2.9-.5.7-.5.7 3.6 0 6.2-1 13.3-1.6 18.9-1.5 4.9.1 5.3 0 5.4-.4.2-1.1-6.3-1.5-14.1-1m15.5 6.2c-7.6 2.2-20.1 3.2-29.5 2.3l-2.2-.2-.6 1.5c-.3.8-.6 1.5-.6 1.6 0 1.4 26.8 1.2 30.9-.2 1.1-.4 2.7-.9 3.6-1.1.9-.2 2-.6 2.4-.8.4-.2 1-.4 1.3-.5.6-.2.6-.3-.4-2-1-1.9-.7-1.9-4.9-.6m118.5.7c0 .7-.2 2.4-.3 3.9l-.2 2.6-3.2 4.3c-1.8 2.4-3.9 5.4-4.8 6.8-1.5 2.4-1.6 2.4-3.1 2.8-2.2.6-4.5.7-4.4.2.1-.2.2-2 .2-4 .1-2 .2-3.7.3-3.7.1-.1 1.9-2.5 4.1-5.4 5.5-7.5 5.2-7.1 7.9-8.1 3-1.1 3.6-1 3.5.6m-138.8 13.1c-3.1.3-7.7 1.6-7.7 2.1 0 .7.7.7 3 0 2.1-.6 2.8-.6 9.8-.6 6.2 0 7.8-.1 8.5-.4l.9-.4-1.2-.3c-1-.4-11.2-.7-13.3-.4m17.9 2.2c-3.6 1.2-7.8 1.7-17.3 2-6.4.2-8.1.1-9.5-.8l-1-.7.1.7c.2 1.6 7.3 2.8 13.6 2.3 9.6-.8 15.2-2.1 15.2-3.5-.1-.4-.2-.4-1.1 0m101.1 4c-.1.8-.3 1.8-.4 2.3-.1.5-.2 1.3-.2 1.7 0 .7-1 2.2-2.4 3.6-.2.2-1.1 1.3-1.9 2.3-.9 1.1-1.8 2-2.1 2-.3.1-1.5.3-2.6.5-2.8.6-2.9.6-2.9-.4 0-.5-.2-1.7-.4-2.8l-.4-1.9 1.1-.9c.6-.5 2.3-2.1 3.8-3.6 3.4-3.6 3.7-3.7 5.9-4 2.9-.3 2.7-.4 2.5 1.2m-115 4.8c-1.4.3-4.6 1.8-4.7 2.4-.1.4.9.3 3.9-.3 2.6-.6 6.7-.6 8.3 0 1.3.5 1.6.4 1-.1-.2-.2-.4-.5-.4-.7 0-.6-.6-.8-2.9-1-1.2-.1-2.6-.2-3.1-.3s-1.5-.2-2.1 0m-5.3 4.8c0 2 10 2.5 13 .6 1.5-1 1.5-1-2.4-.5-3.3.4-4.6.4-9.7-.4-.7 0-.9 0-.9.3"/></svg>