<?xml version="1.0" encoding="utf-8"?>
<!-- Generator: Adobe Illustrator 22.1.0, SVG Export Plug-In . SVG Version: 6.00 Build 0)  -->
<svg version="1.1" id="svg" xmlns="http://www.w3.org/2000/svg" xmlns:xlink="http://www.w3.org/1999/xlink" x="0px" y="0px"
	 viewBox="0 0 410 410" style="enable-background:new 0 0 410 410;" xml:space="preserve">
<g id="svgg">
	<path id="path0" d="M212.5,20.8c-2.6,5.9-5.9,10.3-10.6,14.4c-0.9,0.8-3.7,3.2-6.2,5.3c-7.3,6.2-8.8,8.5-8.9,13.6
		c-0.2,5,1,7.8,4.8,12.2c1.2,1.4,1.2,0.8,0-0.9c-2.8-4-3.2-11-0.9-15.2c0.8-1.5,1.3-2.2,2.7-3.7c0.3-0.3,1.1-1.2,1.7-2
		c1.7-1.9,1.9-1.7,0.3,0.4c-3.4,4.5-4.7,12.3-2.4,14.9c0.5,0.5,0.5-0.1,0.2-1.2c-1.5-4.6,0.5-9.3,7.8-18.2c1.1-1.3,2.7-3.3,3.5-4.3
		c0.8-1,1.7-2.1,1.9-2.4c0.3-0.3,0.5-0.7,0.5-0.9c0-0.2,0.8-1.4,1.7-2.6c1.6-2,2.8-4.1,4-6.9c0.6-1.5,2-5.4,2-5.7
		C214.5,16.7,213.9,17.7,212.5,20.8 M265.2,33.3c-2,5.2-2.4,9.8-1.2,14.2c2,7.8,1.2,19.7-1.7,24c-0.6,0.9-0.1,1.5,0.7,0.8
		c3.7-3.3,5.2-17.2,2.7-24.4c-1.3-3.7-1.4-7.9-0.4-11.7c0.4-1.4,0.7-2.7,0.7-2.9C266.2,32.6,265.5,32.7,265.2,33.3 M203.4,38.8
		c-1.9,2.8-4.2,8.8-4.6,12.5c-0.7,6.2,1,9.4,9.1,16.4c5.8,5.1,8.2,7.8,10,11.5c1.6,3.3,2.5,5.5,2.5,6.3c0,0.4,0.1,0.6,0.2,0.5
		c1-1-1.3-8.7-3.3-11.4c-1.5-2-6.2-6.9-8.2-8.6c-1.1-0.9-4-4.2-5.5-6.1c-3.6-4.8-3.7-12.1-0.2-19.3c0.6-1.2,1-2.2,1-2.3
		C204.4,37.8,203.9,38.1,203.4,38.8 M267.4,47.7c0.1,0.3,0.6,2.2,1.1,4.1c0.5,1.9,1.2,4.1,1.6,4.8c0.8,1.4,1.6,4.3,1.7,5.9
		c0,0.6,0.1,2.3,0.2,3.7c0.6,8.1-6,18-16,23.9c-3.3,2-6.6,4.8-6.6,5.6c0,0.7,0.3,0.6,1.6-0.6c0.7-0.6,2-1.6,3.1-2.2
		c1-0.6,3-1.8,4.4-2.6c8.4-4.8,14.2-11.3,15.3-17c1.2-6.1,0.5-10.6-2.7-17.4c-0.7-1.4-1.5-3.5-1.9-4.7c-0.9-2.7-1.6-4.1-1.8-4.1
		C267.3,47.1,267.4,47.4,267.4,47.7 M184.6,57.6c-1.2,4.6,0.8,8.9,7.7,15.9c3.1,3.2,4.1,4.4,4.5,5.4c0.3,0.7,0.6,1.3,0.6,1.3
		c0.2,0,0.9,0.2,1.6,0.4c0.8,0.2,0.7-0.1-0.6-2.8c-0.8-1.8-1.5-2.5-7.8-8.6c-4.1-3.9-4.9-5.5-5.3-10.1
		C185.1,57,184.9,56.4,184.6,57.6 M214,66.6c0,0.1,0.7,0.8,1.5,1.5c1.6,1.3,4.7,5,5.4,6.4c1.3,2.5,2.1,10,1.6,14.2
		c-0.2,1.7-0.3,3.2-0.2,3.5c0.3,0.7,0.8,0.3,0.8-0.7c0-0.5,0.3-2.1,0.5-3.6c0.6-4.3-0.1-11.7-1.4-14.2C221,71.4,214,65.4,214,66.6
		 M266.8,68.9c0,2.1-5.9,6.9-10.2,8.3c-2.7,0.9-9.8,1-11.6,0.3c-0.6-0.3-1.6-0.5-2.2-0.5c-0.7,0-1.6-0.2-2.1-0.3
		c-1.5-0.3-4.3,1.1-3.6,1.8c0.2,0.2,0.7,0.2,1.8-0.1c1.7-0.4,4,0.7,4.3,2c0.9,4,0.7,5.6-1.3,10.6c-0.7,1.7-1.3,3.3-1.3,3.5
		c-0.2,2.5,4.5-6,5.3-9.6c1-4.3,1.7-4.9,5.5-5c6.5-0.1,11.8-3.2,15.7-8.9c0.6-0.8,0.6-2.7,0-2.7C267,68.2,266.8,68.4,266.8,68.9
		 M151,69.7c-1,0.3-0.2,0.7,1.4,0.8c5.3,0.3,10.2,6.1,10.2,12.4c0,3.4,2.2,7.5,4.3,8.2c0.8,0.3,0.9-0.1,0.2-0.7
		c-2.4-1.9-3.3-3.8-3.1-6.6C164.7,75.4,157.8,68,151,69.7 M200.8,71.4c0.2,0.4,0.5,0.8,0.5,0.8s-0.1-0.4-0.3-0.8
		c-0.2-0.4-0.5-0.8-0.5-0.8C200.4,70.6,200.6,71,200.8,71.4 M200.4,74.6c0,0.2,0.5,1.7,1.2,3.3c2.5,6.2,2.5,6.6,2.5,15.9
		c0,9-0.1,9.5-1.7,15.4c-1.4,4.9-1.4,5.5-0.3,8.7c0.5,1.5,1.4,4.4,1.9,6.5c0.5,2.1,1.2,4.7,1.5,5.8c0.5,1.9,0.8,13.9,0.4,14.7
		c-0.1,0.1,0,0.2,0.1,0.2c0.4,0,1.1-1.2,1.9-2.9c0.4-0.8,0.8-1.8,1.1-2.1c1.2-1.8,2.7-5.4,2.4-5.7c-0.2-0.2-0.3-0.2-0.4,0
		c-0.3,0.9-2.5,4.1-2.4,3.6c0.7-3.3,1.2-12,0.7-13.2c-0.4-1.1-0.8-0.4-0.8,1.4c0,0.8-0.2,2.8-0.3,4.5l-0.3,3.1l-0.2-1.9
		c-0.3-3.1-2-11-3.1-14.3l-1-3.2l0.4-1.9l0.4-1.9l0.2,2c0.3,3,1.9,7.2,2.5,6.6c0.1-0.1,0-0.9-0.3-1.9c-0.5-1.9-0.9-8.6-0.7-11.5
		c0.1-1,0.1-2.3,0.1-2.8c0-0.5-0.1-4.4-0.2-8.7c-0.2-8.5-0.1-8.2-1.3-12C203.6,78.9,200.4,73.1,200.4,74.6 M135.3,77.1
		c0,0.4-0.3,1.9-0.7,3.2c-0.4,1.3-0.9,3.1-1.1,3.9c-1,3.5-2.4,7.2-4.3,11.3c-4.9,10.2-5.8,13.8-5.1,20.2c0.6,5.2,1.4,7.7,4,11.2
		c1.5,2.1,1.5,1.2,0.1-1.5c-0.7-1.4-1.4-2.7-1.4-3c-0.1-0.3-0.3-1.1-0.6-1.8c-0.5-1.4-0.8-6.7-0.4-8.2c0.2-0.7,0.2-0.7,0.4,0.5
		c0.7,4.7,1.4,8.1,2.2,9.5c0.6,1.1,0.7,0.8,0.2-0.6c-0.6-1.6-1.2-6.1-1.2-8.5l0-2l0.3,2.2c0.5,3.2,0.7,3.2,0.5,0
		c-0.3-5.5,0.9-10.4,3.6-15.9c1-2,2.1-4.4,2.4-5.5c1.6-5.1,2-4.9,0.7,0.6c-1.1,4.6-1.6,7.9-1.5,9.2c0.2,1.7,0.6,0.8,1-1.8
		c0.2-1.4,0.8-4.3,1.4-6.5c1.4-4.7,1.6-10.1,0.5-14.2C135.8,76.8,135.4,75.9,135.3,77.1 M226.8,77.9c-0.7,0.3-0.9,0.5-1,1
		c-0.5,7-0.7,9.6-1,11.6c-0.5,3.1-0.5,4.3,0,4.5c0.6,0.2,0.5,1-0.1,1c-0.7,0-0.8,1.8-0.1,2.1c0.3,0.1,0.6,0.4,0.8,0.6
		c0.3,0.4,0.4,0.3,0.6-0.4c0.8-1.9,2.2-5.1,2.4-5.3c0.1-0.1,0.1,1.1,0.1,2.7c-0.1,2.8-0.1,2.9,0.5,2.9c0.8,0,0.7,0.8-0.1,1.1
		c-0.6,0.2-0.7,0.4-0.5,1.1c0.1,0.5,0.2,1.3,0.2,1.9v1l0.6-0.5c1.1-0.8,1.6-1.9,0.9-2c-0.9-0.2-0.4-0.9,0.5-0.8c0.5,0,0.8,0,0.8-0.2
		c0-0.1,0.6-1,1.4-2.1c0.8-1,1.5-2.2,1.6-2.6c0.1-0.4,0.2-0.7,0.3-0.6s-0.3,2-0.8,4.3c-0.8,3.6-1,4.9-0.6,4.4c1.1-1.3,2-3.3,1.7-3.5
		c-0.2-0.1-0.4-0.4-0.4-0.6c0-0.4,0.8-0.5,1.2-0.1c0.8,0.8,4.8-9.9,5.1-13.4C241.3,80.9,232.4,75.8,226.8,77.9 M193.1,81.6
		c-5.2,0.4-8.2,1.4-10.9,3.7c-9.3,7.8-16.8,8.7-20,2.5c-1.2-2.4-1.6-2.4-0.8,0c2.5,7.3,8.7,7.8,19.2,1.5c5.5-3.4,9.4-4.3,12.7-3.1
		l0.9,0.3l-1.8,0.2c-1.9,0.2-5.7,1.8-10.8,4.6c-3.5,1.9-4.7,2.4-7.1,2.9c-1.4,0.3-2.1,0.6-2.1,0.8c0,1.1,5-0.3,11.5-3.3
		c6.8-3.1,9-3.6,12-2.4c1,0.4,1.9,0.7,2,0.7c1.1,0,3,3,3.3,5.3c0.2,1.5,0.9,0.7,1.2-1.5c1.3-8.4-0.5-11.7-6.6-12.5
		C195.6,81.4,194.4,81.5,193.1,81.6 M210.6,85c0.1,1.1,0.5,3.1,1,4.4c0.9,2.8,1,3.2,0.2,7.7c-0.8,5.1-0.7,6.2,1.3,10.4
		c2.4,5.1,2.7,6.9,1.8,11c-0.6,2.5-0.8,3.9-0.6,3.7c0.2-0.2,2-4.7,2.6-6.4c0.3-0.8,0.7-2,1-2.7c3.6-7.9,3.5-12-0.4-17.2
		c-0.7-0.9-1.2-1.7-1.2-1.8s-0.7-1.3-1.5-2.7c-0.8-1.3-2-3.7-2.7-5.2C210.6,82.7,210.4,82.5,210.6,85 M228.6,86.1
		c-0.1,0.2-0.2,0.3-0.3,0.3c-0.1,0-0.3-0.1-0.3-0.3c-0.1-0.2,0.1-0.3,0.3-0.3C228.5,85.8,228.7,85.9,228.6,86.1 M158.3,88.3
		c-0.1,4.3,3,9,7.6,11.3c4.1,2.1,13,1.3,19.9-1.6c0.7-0.3,2.1-0.6,3.3-0.7c1.5-0.1,3-0.6,2-0.6c0,0-1.2-0.1-2.6-0.2
		c-2.4-0.1-2.7-0.1-5.6,0.8c-10.7,3.3-17.2,2.5-21.4-2.7c-1.3-1.5-1.5-2.1-2.5-5.4C158.4,88,158.3,87.7,158.3,88.3 M228.1,89.1
		c-0.2,0.5-1,0.6-1,0.1c0-0.2,0.2-0.4,0.6-0.4C227.9,88.7,228.1,88.9,228.1,89.1 M231.1,89.4c0,0.2-0.1,0.4-0.2,0.5
		c-0.3,0.2-0.9-0.3-0.7-0.6C230.4,88.9,231.1,88.9,231.1,89.4 M227.2,91.7c0.1,0.2,0,0.5-0.2,0.7c-0.5,0.5-1.3,0-1.1-0.6
		C226.1,91.3,227,91.3,227.2,91.7 M231.7,92.2c0.3,0.4-0.3,1-0.7,0.6c-0.3-0.3-0.1-0.9,0.3-0.9C231.5,91.9,231.6,92.1,231.7,92.2
		 M231.8,94c0.1,0.4-0.7,0.8-1,0.4c-0.2-0.2-0.2-0.4-0.1-0.6C230.9,93.4,231.7,93.6,231.8,94 M146.4,95.6c-0.2,1.8-1.3,4.9-2.4,7.4
		c-0.5,1.2-1.5,3.1-2,4.4c-2.1,4.5-2.8,7.8-2.4,10.6c0.3,2,2.8,9.1,3.4,9.9c0.2,0.3,0.1-0.1-0.2-1c-1.3-3.3-2.4-8.3-2.4-10.7
		c0-1.2,0.5-0.5,0.6,0.8c0.1,1.6,0.4,1.1,0.8-1.5c0.4-3.2,0.5-3.1,0.8,1.3c0.2,3.5,0.8,5.7,1.3,5.4c0.1-0.1,0.1-0.8,0-1.6
		c-0.9-5.5,0.5-14.4,2.5-16.4c0.1-0.1,0,1.9,0,4.4c-0.1,4.9,0.3,7.8,1.5,10.2c0.9,1.9,1,0.8,0.2-2.4l-0.8-3.1l0.3-4.1
		c0.7-8.1,0.6-10.7-0.3-13.9C146.9,94,146.6,94.1,146.4,95.6 M252.5,95.4c-1.3,0.8-4.7,4.1-6.2,6c-0.5,0.6-1.3,1.7-1.9,2.4
		c-0.6,0.7-1.4,2-1.9,2.8c-0.4,0.8-1.4,2.7-2.3,4.2s-1.5,2.8-1.5,3s-0.2,0.7-0.5,1.1c-0.3,0.4-0.8,1.6-1.2,2.6
		c-1.1,3-3.7,5.9-9.3,10.6c-5.2,4.3-5.4,4.5-7.6,6.7l-2,2l0.9-2.2c3.9-9.9-0.2-15.6-4.3-6c-0.6,1.4,0.4,0.8,1.4-0.8
		c3.2-5,3.8-2.2,1.3,6.1c-1,3.3-4.8,10.8-5.9,11.7c-0.4,0.3-0.5,1.3-0.2,1.3c0.3,0,2.3-1.8,2.6-2.3c0.5-1,6.5-7.7,8.1-9.1
		c2.5-2.2,10.9-8.7,11.9-9.2c0.2-0.1,0.7-0.3,1.1-0.5c0.6-0.3,1-0.9,2-3.2c0.6-1.5,1.4-3.3,1.7-4c0.3-0.7,1.3-2.9,2.2-5
		c3.7-8.2,7.2-13.4,11.6-16.9C255.1,94.6,255.2,93.8,252.5,95.4 M230.8,95.5c0,0.3-0.1,0.4-0.3,0.4c-0.5,0-0.8-0.4-0.6-0.8
		C230.1,94.7,230.6,95,230.8,95.5 M232.3,97.3c0.1,0.7-1.5,1.2-2.1,0.6c-0.4-0.4-0.4-0.5,0.1-0.8C231.1,96.6,232.2,96.7,232.3,97.3
		 M224.7,99.3c-0.4,0.2-0.4,1.1-0.1,1.3c0.1,0.1,0.4-0.2,0.5-0.7C225.4,99.1,225.4,99.1,224.7,99.3 M239.1,103.9
		c-1.7,1.7-3.8,3.6-4.7,4.2c-2.2,1.4-5.1,4.3-5.9,5.7c-0.4,0.7-1.3,2.3-2.1,3.6c-3.4,5.5-3.8,7.9-0.6,3.7c1.7-2.2,2.2-2.7,3.6-3.4
		c4.4-2.1,6.8-4.8,8-9c0.3-1.1,2.9-4.9,4.6-6.7c0.5-0.6,0.7-1.3,0.3-1.3C242.2,100.8,240.8,102.2,239.1,103.9 M225.1,104.1
		c-1.6,3.1-2.2,5.3-3.1,10.2c-0.6,3.5-0.6,3.5-0.3,3.5c0.1,0,0.4-0.4,0.6-0.9c0.2-0.5,1.4-2.1,2.8-3.6c4.5-4.9,5.8-6.9,6.6-10.4
		l0.3-1.2l-0.5,0.6c-0.3,0.3-0.5,0.8-0.5,1c0,0.4-2.4,3.6-4.1,5.5l-1.3,1.4l0.2-0.9c0.6-3.4,1.2-7.8,1.1-7.9
		C226.7,101.3,225.9,102.5,225.1,104.1 M247.4,104.7l-1.4,1.9h1.2c2.8,0,5.4,1.7,6.5,4.3c0.7,1.6,0.9,1.5,0.9-0.3
		c-0.1-2.8-1.5-5.3-4-7C249,102.6,249,102.6,247.4,104.7 M154.5,105.8c-2.1,2.3-3.2,5.2-3.2,8.4c0,1.8,0.4,1.4,1.2-1.3
		c0.4-1.4,1-3,1.3-3.6l0.6-1.2l0.2,1.3c0.2,1.5,2.1,5.7,2.6,5.7c0.4,0,0.2-1-0.7-3.5c-0.7-2-0.8-5.5-0.2-7.1
		C156.6,103.8,156,104.3,154.5,105.8 M197.7,105.8c0,0.2-0.3,0.7-0.7,1c-1.1,1.1-1.4,1.6-1.7,3.8c-0.3,2.4-0.6,3-2.1,4.7
		c-1.7,1.9-4.1,5.3-4.6,6.5c-0.5,1-0.5,1-0.5,0.3c0-0.9,0.3-1.6,2.6-5.4c1.7-2.7,1.8-3,1.7-4.4c0-0.8,0.1-2.1,0.3-3
		c0.5-1.9,0.5-1.9,0-1.9c-0.2,0-0.5,0.2-0.6,0.5c-0.1,0.3-0.4,0.8-0.8,1.1c-0.3,0.3-0.8,1.4-1.1,2.4c-0.3,1.2-0.8,2.2-1.5,3.1
		c-0.5,0.7-1.2,1.6-1.4,2.1s-0.7,1.3-1.1,1.8c-0.8,1.2-0.9,2.8-0.2,2.8c0.7,0,0.9,1,0.2,1.6c-0.4,0.4-0.5,0.7-0.4,1.4
		c0.3,1.7,0.4,1.8,1.1,1.6c0.8-0.1,0.9,0.5,0.3,1c-0.8,0.7,0.1,2.9,1.2,2.9c0.4,0,1.2-2.2,0.9-2.3c-0.6-0.2-0.4-0.9,0.3-0.8
		c1,0.3,2.6-2,1.7-2.4c-0.2-0.1-0.4-0.3-0.4-0.5c0-0.5,0.7-0.7,1.1-0.3c0.2,0.3,0.7,0,2.1-1.6c1-1.1,2.3-2.2,2.9-2.4
		c1.2-0.5,1.2-0.4,1.2-2.8c0-1.2,0.3-2.4,0.8-3.7c0.9-2.4,0.9-4.8,0-6.5C198.7,105.7,197.7,105.1,197.7,105.8 M269.6,108.5
		c-2.2,0.8-7.9,6.1-6.6,6.1c0.1,0,0.9-0.5,1.6-1.1c3.1-2.5,5-3.7,3.6-2.2c-0.4,0.4-1.5,2-2.5,3.7c-5.8,9.2-12.6,11.2-15,4.5
		c-0.9-2.6-1.4-3.4-2.1-3.6c-0.8-0.2-0.9,0-0.4,0.8c0.2,0.3,0.6,1.1,0.7,1.8c0.2,0.6,0.4,1.3,0.4,1.6c0.1,0.2-0.2-0.2-0.7-1.1
		c-1.4-2.6-3.8-4.6-4.8-3.9c-0.3,0.2-0.3,0.3,0.1,0.6c1.3,0.8,2.4,2,3.4,3.7c4.8,8.1,13.6,7.1,18.5-2.1c2.1-3.9,4.6-6.9,6.7-7.9
		c0.5-0.2,0.9-0.5,0.9-0.7C273.5,108.1,270.6,108.2,269.6,108.5 M198,108.9c0,0.2-0.2,0.4-0.5,0.4c-0.3,0-0.5-0.2-0.5-0.4
		c0-0.2,0.2-0.4,0.5-0.4C197.8,108.5,198,108.6,198,108.9 M186.5,112.1c-3.8,2.3-10.9,4.8-12.9,4.4c-1.4-0.2-1.3,0.4,0.4,2.1
		c1.4,1.4,2.9,2.2,4.9,2.5c1.4,0.2,1.4,0.2,1,1c-0.6,1.1,1,5.3,2,5.3c0.9,0,1.1,0.5,0.4,1.1c-0.7,0.6-0.5,1.6,0.3,1.6
		c0.4,0,0.5,0.2,0.5,0.8c0,0.9,0.9,1.8,3,3.1c2.8,1.7,2.8,0.9,0.1-1.3c-0.7-0.6-1.2-1.1-1.1-1.2s-0.1-1-0.4-1.9
		c-0.3-0.9-0.7-2.7-1-4c-0.2-1.2-0.6-2.7-0.8-3.2c-0.8-2,1.3-6.1,5-9.6C190.2,110.6,189.5,110.3,186.5,112.1 M164.4,112.3
		c-1.2,0.5-1.7,1.2-1,1.6c0.3,0.2,1.6,1.4,3,2.8c1.4,1.4,2.6,2.5,2.7,2.5c0.1,0,1.9,1.6,3.9,3.6c4.3,4.3,5.3,5.9,5.4,8.6
		c0.1,2,0.3,2.4,0.7,1.3c0.9-2.4-1-7.1-4.1-9.8c-1-0.9-2.5-2.3-3.2-3.1c-0.8-0.8-1.7-1.6-2.1-1.8c-1.8-1-3.2-4.3-1.7-4.4
		c1.2-0.1,1.9,0.1,3.5,0.6c1.7,0.6,2.1,0.5,1.4-0.3C171.4,112.3,166.7,111.4,164.4,112.3 M252.1,112.5c0,7.5,7.1,10.4,10.8,4.4
		c0.9-1.4,0.8-1.5-0.6-0.2c-3.4,3-6.9,2-8.7-2.5C252.8,112.1,252.1,111.4,252.1,112.5 M177.7,117.5c0.1,0.4-0.7,0.8-1,0.4
		c-0.2-0.2-0.2-0.4-0.1-0.6C176.8,116.9,177.5,117,177.7,117.5 M152.5,119.4c-0.2,0.4,0.7,0.7,3,1c10.9,1.4,18.3,9.3,11.8,12.6
		c-1.7,0.9-4.2,3-4.2,3.6c0,0.6,0.5,0.4,1.3-0.4c0.4-0.4,1.8-1.4,3.1-2.1c3-1.6,3.5-2.2,3.5-4.3c-0.1-4.3-3-7.1-10.1-9.4
		C158.5,119.6,152.8,119,152.5,119.4 M152.1,122.2c0,0.1,0.7,0.9,1.5,1.9c0.8,1,1.5,1.9,1.5,2.2c0,0.3,0.1,0.6,0.3,0.8
		c0.5,0.5-0.1,2.2-1.3,3.3c-1.3,1.3-1.1,1.9,0.2,0.7c2.7-2.4,2.8-4.6,0.2-7.2C153,122.3,152.1,121.7,152.1,122.2 M190,124.1
		c0,0.2-0.2,0.4-0.4,0.4c-0.4,0-0.7-0.4-0.5-0.6C189.4,123.5,190,123.7,190,124.1 M188.9,124.8c0.4,0.4,0.4,1.2,0.1,1.4
		c-0.4,0.2-1.1-0.1-1.2-0.7C187.4,124.6,188.2,124.1,188.9,124.8 M135.9,125.8c-0.9,0.2-0.9,0.9,0.1,0.9c0.4,0,0.7,0.1,0.7,0.2
		c0,0.1,0.3,0.5,0.7,0.9c1,1.2,1.4,2.3,1.4,4c0,3.8-2.6,15.8-4.7,21.5c-0.5,1.4-0.8,2.6-0.7,2.7c0.3,0.2,0.9-1,1.6-3
		c0.3-0.8,1.1-3.1,1.8-5c4.3-11.5,4.7-21.7,0.7-21.7c-0.2,0-0.4-0.1-0.4-0.2C137.2,125.7,136.6,125.6,135.9,125.8 M183.2,126.1
		c0.3,0.4-0.3,1-0.7,0.6c-0.3-0.3-0.1-0.9,0.3-0.9C182.9,125.8,183.1,125.9,183.2,126.1 M125.9,127.1c-1.2,2.5-1.5,7.1-0.8,11.5
		c0.2,1.4,0.4,3.5,0.4,4.7c0,1.7,0.1,2.2,0.4,2.2c0.6,0,0.8-2.2,0.6-7.9c-0.2-5.2,0.1-8.4,1-10c0.1-0.3,0.2-0.7,0.1-1
		C127.2,125.7,126.4,126,125.9,127.1 M171.8,126.3c-0.3,0.5,0.6,2.9,1.8,4.7c1.1,1.5-0.1,2.9-4.2,5c-5.6,2.8-6.7,4.3-9.1,12.9
		c-0.7,2.4-1.9,3.5-4.3,4.1c-0.6,0.1-1,0.4-1.1,0.8c-0.3,0.8-0.7,1-1.3,0.6c-1-0.6-2.4,0.8-1.5,1.5c0.6,0.5,0.1,1.7-0.7,1.7
		c-1,0-0.6,1.1,0.5,1.4c0.6,0.2,1,0.5,1,0.9c0.2,1.5,3.9,1.8,7.2,0.6c4.7-1.7,5.5-1.9,9.3-2.3c5.3-0.5,6.2-0.3,9.1,1.9
		c2.3,1.8,3.3,2.8,4.3,4.4c0.5,0.8,1.5,2.1,2.1,2.8c0.7,0.7,1.8,2.4,2.5,3.6c1.8,3.2,2.9,4.4,4.9,5.7c2.7,1.8,5.6,5.3,6.3,7.9
		c0.2,0.5-0.1,0.3-1.1-0.7c-0.7-0.8-1.8-1.7-2.4-2.1c-0.6-0.4-1.4-0.9-1.6-1.2c-0.3-0.3-1-0.8-1.5-1.1c-2.8-1.4-5.4-3.6-6.8-5.8
		c-3.4-5.3-8.8-7.7-14.9-6.7c-0.9,0.2-2.7,0.5-4.1,0.7c-6.6,1-8.9,1.9-8.5,3.3c0.4,1.6,1.1,2.2,1.5,1.6c0.8-1.1,2.4-0.2,2.1,1.1
		c-0.2,0.9,2.6,1.2,5.1,0.6c0.9-0.2,2.1-0.5,2.7-0.7c1.2-0.3,5.8,0.1,7,0.6c2.6,1.1,4.9,2.8,6.5,4.7c2.6,3.3,7.1,7.2,8.9,7.9
		c1,0.4,0.9,0.4-1.2,0.2c-3.6-0.3-5.9-1.6-7.2-4.2c-0.7-1.3-2.1-2.9-2.5-2.9c-0.5,0-0.5,0.4,0.1,0.9c0.3,0.3,0.9,1.3,1.5,2.4
		c0.5,1.1,1.4,2.4,2,3c0.8,0.8,0.9,0.9,0.2,0.4c-0.4-0.3-1.1-1.1-1.5-1.7c-2.9-4.4-6.8-6.4-10.3-5.6c-0.7,0.2-1.7,0.4-2.3,0.5
		c-0.6,0.1-1.2,0.3-1.3,0.4c-0.1,0.1-0.9,0.4-1.6,0.7c-0.7,0.3-1.4,0.6-1.6,0.7c-0.1,0.1-0.5,0.2-0.8,0.2c-1.6,0-1.8,0.5-0.7,2.7
		c1,2,1.3,2.3,1.4,1.6c0.2-0.9,1-1.3,1.5-0.7c0.6,0.6,0.2,1.3-0.7,1.5c-1.7,0.4,0.3,0.9,3.8,0.8c6.9-0.1,11.1,2.5,15.6,9.3
		c2.5,3.8,4,4.5,7.9,3.9c3.1-0.5,3.3-0.5,5.9,2.1c3.1,3.1,3.6,3,4.1-0.2c0.3-2.2,0.6-1.9,1.2,1.1c0.6,3.1,0.8,3.3,1.5,1
		c0.3-1.2,0.4-2.1,0.2-4.3c-0.3-4.5,0.4-3.2,1.6,3c0.2,0.9,1.3,1.9,2,1.7c0.7-0.2,0.9-2.1,0.3-4.5c-0.7-3.4-0.7-3.4-0.6-3.3
		c0.3,0.3,3.1,5,3.4,5.8c0.7,1.6,0.6-1.3-0.2-4.4c-0.2-0.8,0.8,1.2,1.1,2.3c0.7,2.2,0.9,0.8,1-4.9c0-6.7-0.2-7.7-2.6-13.2
		c-1.4-3.2-2-5.2-2-7c0-2.7-1.6,0-2,3.4c-0.4,3-0.5,3.6-1.1,5.1c-0.3,0.9-0.8,2-1,2.5l-0.4,0.8l0.2-1.3c0.4-2.7,0.2-7.7-0.3-8.6
		c-0.8-1.5,0-9,1.3-11.9c1.1-2.7,0.9-6.7-0.4-7.8c-0.6-0.5-0.7-0.3-2.1,2.5l-1.3,2.6l0,3.6c0,2.7-0.1,3.8-0.4,4.5
		c-1.4,3.1-2.1,5.4-2.5,7.9l-0.2,1.3l-0.5-1.3c-0.6-1.6-0.6-4.5-0.1-6.8c0.4-1.8,0.4-3.5,0-8.9c-0.2-2.9-0.2-3.3,0.3-4.5
		c0.3-0.7,0.9-2.2,1.2-3.2c0.4-1,1.1-2.2,1.5-2.6c0.9-0.9,1.2-1.7,0.9-2.9c-0.3-1.2-1.4-1.4-2.1-0.4c-0.2,0.4-0.6,0.6-0.7,0.6
		c-0.5-0.1-1.5,0.3-1.5,0.6c0,0.1-0.5,0.5-1,0.9c-1.1,0.7-2.7,1.2-2.7,0.7c0-0.1-0.2-0.3-0.4-0.4c-0.5-0.1-1.2-2-1.2-3.3
		c0-0.5-0.1-0.9-0.2-1c-0.1-0.1-0.2,2.2-0.2,5c0,4.3-0.3,11.4-0.5,11.6c-0.4,0.4-5-10.6-5.4-13c-0.4-2.3-0.5-2.3-0.9-0.5
		c-1.2,4.7-4.6,5.6-10.8,2.7c-5.9-2.8-6.6-2.8-13.3-0.2c-2,0.8-5.7,1-4.1,0.3c0.4-0.2,1.7-1.2,2.9-2.3c2.3-2.1,5-3.6,6.6-3.5
		c0.5,0,1.8,0.1,2.8,0.2c4,0.4,6.1-0.8,8.9-5.1c1.6-2.4,1.7-2.7,1-2.8c-1-0.1-1.5,0.1-3.3,0.9c-1.6,0.8-2.1,0.9-4.1,0.9
		c-2.5,0.1-4.9,0.7-6.2,1.6c-1.1,0.8-1.3,0.7-0.7-0.2c1.3-1.9,2.5-3.1,5-4.6c5.7-3.4,6.1-6.4,1.8-11.5c-0.2-0.2-0.5-0.7-0.8-1
		C172.1,126.2,171.9,126.1,171.8,126.3 M133.4,129.2c-0.3,0.3-0.4,0.6-0.2,0.7c0.4,0.3,0.1,0.7-0.4,0.5c-0.6-0.2-2.6,4.2-3.2,7
		c-0.3,1.2-0.6,2.8-0.8,3.6c-1.5,5.6-1.8,7.6-2.1,13.4c-0.1,1.7-0.2,3.1-0.2,3.1c-0.1-0.1-0.9-5.3-1.1-7.2c-0.2-2.1-0.7-2.5-1.1-0.8
		c-1.1,4.7-1,7.4,1,15.1c0.7,2.8,1.4,5.4,1.5,5.7c0.1,0.4,0.4,1.4,0.7,2.3c0.7,2.4,0.8,10.5,0.2,12.6c-0.8,2.7-0.9,3.2-0.2,3.2
		c1.1,0,2.2-3,3.5-9.6c0.8-3.9,1.6-7.2,1.8-7.7c0.3-0.6,0.6,4.4,0.6,11.9c0,6.5,0.2,8,1.1,8c0.5,0,2.8,2.7,3.3,3.7
		c1.1,2.5,1.4,1.2,0.5-2.2c-0.9-3.4-1-4.1-0.7-7.6c0.2-1.9,0.6-4.4,0.8-5.6c1.2-5.6,1.5-7.4,1.1-7.9c-0.3-0.4-0.3-0.6,0.3-1
		c1.2-0.9,1.6-3.2,0.8-4c-0.9-0.9-0.3-2.5,0.9-2.5c0.9,0,1.5-2.2,0.8-2.7l-0.6-0.4l0.8-0.8c0.8-0.8,0.8-1.4-0.1-1.4
		c-0.6,0-5.1,3.2-6.2,4.4l-1.1,1.2l0.3-0.9c0.1-0.5,0.6-1.2,1-1.6c0.4-0.4,1.7-1.8,3-3.1c3.1-3.3,4.8-5.3,4.8-5.9
		c0-0.3,0.2-0.6,0.3-0.7c0.7-0.5,1.3-1.7,1-2.1c-0.4-0.5-0.1-1.2,0.4-1.2c0.6,0,1-0.9,0.8-1.7c-0.1-0.4-0.1-0.7,0.1-0.7
		c0.4,0,0.4-2,0-2.4c-0.3-0.2-0.4-0.1-0.7,0.3c-0.3,0.4-0.5,0.5-1.2,0.4c-1-0.2-0.8-0.3-4.9,5.3c-2,2.8-5.4,7.2-5.6,7.3
		c-0.1,0.1-0.7,1-1.5,2.1c-0.7,1.1-1.3,1.9-1.4,1.8c-0.2-0.2,0.9-4.9,1.7-7.4c1.6-5,2.7-10.4,3.4-16.4c0.4-3.1,0.4-3.2-0.2-3.6
		l-0.6-0.4l0.8-0.7c1-1,0.5-3.7-0.5-2.8c-0.5,0.4-1,0-0.8-0.6C135.4,128.5,134,128.5,133.4,129.2 M193.3,133.1
		c0.2,0.6,1.1,2.3,1.8,3.4c0.4,0.7,0.4,0.7-0.4,0.7c-0.8,0-2,0.7-2.5,1.5c-0.4,0.6,0,0.8,0.7,0.4c1.4-0.9,3.8-0.2,5.5,1.5
		c0.8,0.8,1.5,1.5,1.6,1.5c0.8,0-0.8-3.8-1.8-4.2c-0.7-0.3-3.1-3.1-4-4.5C193.6,132.3,193.1,132.2,193.3,133.1 M345.2,133.9
		c0,0.5,0.1,0.5,0.3,0.2c0.3-0.5,0.3-0.8,0-0.8C345.3,133.3,345.2,133.5,345.2,133.9 M133.2,134.1c0,0.3-0.1,0.5-0.1,0.5
		c-0.1,0-0.3,0.1-0.5,0.1c-0.4,0.2-0.8-0.6-0.6-1C132.3,133.3,133.2,133.5,133.2,134.1 M178.6,135.8c-0.7,0.5-1.9,1.4-2.7,1.9
		c-1.2,0.8-1.8,1.7-1.3,1.7c0.3,0,2.4-1.1,4.3-2.4c1.1-0.7,2.1-1.4,2.3-1.4c0.3-0.1,0.2-0.2-0.1-0.4
		C180.5,134.7,180,134.8,178.6,135.8 M132.4,136.6c0,0.5-0.5,0.8-0.9,0.5c-0.2-0.1-0.2-0.4-0.1-0.6
		C131.7,136.1,132.4,136.1,132.4,136.6 M102.4,139c0.1,1.3,0.2,3.5,0.3,4.9c0.1,1.4,0.5,5.5,0.9,9.1c0.5,4.1,0.8,7.8,0.8,9.9
		c0,2.6,0.1,3.4,0.4,3.7c0.6,0.5,0.7,0.1,0.9-4.4c0.2-4,0.5-4.4,0.6-0.6c0,1.3,0.7,2,1,1.1c0.3-0.8-0.4-8-1.3-12.6
		c-0.1-0.8-0.3-1.6-0.3-1.7c0-0.3,3.6,6.9,4.6,9.5c0.8,2,1.8,2.6,1.1,0.8c-0.5-1.4-2.5-6-3.1-7.2c-0.3-0.5-1.7-4-3.2-7.8
		s-2.8-6.8-2.8-6.9C102.3,136.7,102.3,137.7,102.4,139 M145.2,140.9c-1.8,0.9-4.5,3.8-3.6,3.8c0.1,0,0.8-0.6,1.5-1.3
		c4.6-4.7,8.4-0.3,5.4,6.3c-1.4,3-1.2,3.5,0.5,1C153,144.7,150.5,138.3,145.2,140.9 M193.6,142c-0.2,0.6,1.6,2.2,2.6,2.2
		c1.8,0,3.2-0.9,1.8-1.2c-0.4-0.1-1.3-0.5-2-0.8C194.6,141.4,193.9,141.4,193.6,142 M186.3,142c0,0.2-0.5,0.3-1.2,0.3
		c-1.6,0-2.7,0.8-4,3c-0.6,1-1.3,2-1.6,2.2c-0.4,0.3-0.5,0.5-0.2,0.7c0.5,0.5,2.3-0.9,3.6-2.7c1.1-1.6,2.1-2.3,3.1-2
		c0.8,0.2,0.9,0.7,0.1,0.7c-1.4,0-2.4,1.5-2.6,4.1c-0.2,1.8-0.3,2-1.3,3.1c-1.1,1.1-1.4,1.2-3.4,1.2c-1,0-1.1,0.3-0.2,0.7
		c3.1,1.4,5.8-0.6,6.4-4.6c0.6-3.9,3.4-4.2,4.8-0.5c0.3,0.9,0.4,1,0.4,0.4c0-0.6-0.4-2.2-1.1-4C188.6,143.7,186.3,141.6,186.3,142
		 M132.8,144.7c0.1,0.2,0,0.5-0.2,0.7c-0.4,0.5-1.3-0.1-0.9-0.7C131.9,144.4,132.6,144.4,132.8,144.7 M193.1,144.7
		c-0.1,0.1,0.2,0.8,0.7,1.5c0.5,0.7,1.1,1.8,1.4,2.4c0.6,1.2,1.6,1.6,2.3,0.8c0.2-0.2,0.6-0.4,0.8-0.4c0.6,0,1-0.5,1.2-1.4
		c0.3-1.1,0.9-1.2,1.6-0.4c0.7,0.8,0.8,0.8,1.4,0.5c0.6-0.4-1.2-3-2.1-3c-0.9,0-2.6,1.3-2.8,2.1c-0.4,1.5-0.9,1.4-2-0.4
		C194.9,145.3,193.3,144.3,193.1,144.7 M190.5,145.4c0,0.1,0.1,0.4,0.3,0.7c0.3,0.6,0.7,4,1,9.2c0.4,6.4,0.8,5.7,0.8-1.2
		c-0.1-5.8-0.1-6-0.7-7.3C191.3,145.6,190.5,144.9,190.5,145.4 M145.7,146.7c0.1,0.3-0.1,0.4-0.5,0.4c-0.3,0-0.6-0.2-0.6-0.4
		C144.7,146,145.5,145.9,145.7,146.7 M144.1,148.1c0,0.4-0.9,0.8-1.3,0.5c-0.4-0.3-0.3-0.9,0.2-1.2
		C143.5,147.1,144.1,147.5,144.1,148.1 M67.1,149.2c0.5,0.8,1,1.7,1.1,1.8s1.9,3.7,4,7.9c3.5,7,5,9.8,7.5,14
		c0.6,0.9,0.9,1.8,0.8,2.1c-0.4,1.2,1,5.5,2,6.1c0.5,0.3,0.5,0.4,0.1,1.4c-0.5,1.5-0.5,1.4,1,3.8c1,1.5,1.5,2.6,1.8,3.7
		c0.3,1.6,1.2,3.6,1.9,4.4c2.4,2.6,2.4,2.6,4,2.6c1,0,1.6-0.1,1.8-0.4c0.4-0.5,0.1-0.7-1.4-0.7c-2.9,0-6.4-7.7-3.7-8
		c0.5-0.1,0.8-0.3,0.8-0.6c0.1-0.4,0-0.5-0.9-0.3c-0.9,0.1-1,0.1-1.2-0.5c-0.3-0.9-0.3-0.9,0.2-0.9c0.7,0,3-1.6,2.9-1.9
		c-0.1-0.4-0.3-0.4-2.2,0.2c-2.1,0.6-3.7,0.2-3.6-0.9c0.1-0.6,0.2-0.7,1.5-0.7c1.4,0,2.2-0.4,1.8-0.9c-0.1-0.2-0.4-0.3-0.7-0.3
		c-1.2,0-3.7-1.1-3.8-1.7c-0.7-3.8-0.9-4.1-5.7-13.9c-1.6-3.3-1.5-3.8,0.2-0.6c0.4,0.8,1.3,2.3,1.9,3.3c0.6,1,1.5,2.6,2,3.5
		c1,1.9,1.4,2.3,1.4,1.4c0-0.3-0.8-2.1-1.8-3.9c-1-1.8-2.4-4.4-3-5.8c-0.6-1.3-1.7-3.3-2.4-4.5l-1.3-2.1l2.2,1.9
		c3.8,3.4,9.4,10.1,10.6,12.5c0.3,0.7,1.3,1.9,2.2,2.7c1.8,1.7,1.8,1.7,0.9,3.4c-0.6,1.3-0.6,1.6,0,1.6c0.5,0,1.9-2.4,2-3.1
		c0-1.2-0.6-2.3-1.6-2.9c-0.6-0.4-1.3-1.1-1.6-1.7c-0.3-0.6-0.7-1.1-0.8-1.1c-0.1,0-0.6-0.7-1.2-1.5c-2.6-4-11-13.3-15.4-16.8
		c-0.9-0.7-2.4-1.9-3.3-2.7C66.2,147.3,66,147.3,67.1,149.2 M166,149.5c-1.5,0.5-2.2,0.9-4.3,2.5c-1.2,0.9-1.5,1.5-0.8,1.5
		c0.1,0,0.9-0.5,1.8-1.1c2.9-2,6-2.9,8.9-2.6c1.7,0.2,1.7,0.2,0.8-0.2C171,149,167.7,148.9,166,149.5 M204.7,149.6
		c0,0.5,1.4,1.6,1.7,1.3c0.4-0.4,0-1-0.8-1.3C204.7,149.2,204.7,149.2,204.7,149.6 M206.2,151.3c-0.1,0.1-0.2,0.8-0.2,1.5
		c0,1-0.2,1.6-0.8,2.6c-3.2,4.9-4.2,9-3.3,13.2c0.5,2.3,0.8,1.7,0.9-1.6c0-3.9,1-6.4,3.9-10.6c1.5-2.2,1.7-3.4,0.8-4.6
		C206.7,151.1,206.5,151,206.2,151.3 M358.5,154.3c-0.4,0.1-1.4,0.4-2.2,0.5c-2.3,0.5-2.7,0.9-2.3,2.6c0.4,1.7,1,1.9,1.2,0.3
		c0.2-1.2,1-1.6,2.1-1.1c0.5,0.3,0.8,0.2,1.5-0.1c0.8-0.4,1.4-0.4,4-0.3c3.1,0.2,3.7,0,3.7-0.8C366.5,154.7,360.3,153.7,358.5,154.3
		 M311.1,155.5c-1,0.3-2.3,0.9-3.1,1.3c-0.7,0.4-2,0.9-2.9,1.1c-2,0.6-1.9,1.1,0.2,1c1.5-0.1,2.6-0.4,4.8-1.2
		c0.7-0.3,2.1-0.4,4.3-0.4c3.5,0,3.6-0.1,2.6-1.2C315.9,154.8,313.7,154.6,311.1,155.5 M369.7,155.1c-0.8,0.3-1.6,1.2-1.6,1.9
		c0,0.5,0.1,0.6,0.5,0.5c1.7-0.6,5.1,0.1,9,1.9c4,1.9,5.5,2.5,5.7,2.4c0.2-0.2-0.4-1-0.7-1c-0.1,0-1.2-0.6-2.4-1.4
		c-2.8-1.8-3.7-2.3-6.9-3.5C370.5,154.8,370.4,154.8,369.7,155.1 M208.9,155.8c-0.8,1,0.1,3.9,1.2,3.9c0.4,0,1.1,0.5,2,1.4
		c2.1,2.1,2.1,4.4-0.1,8.8c-1.3,2.6-1.3,3.5-0.2,6c0.5,1.1,0.8,2.2,0.8,2.6c0,0.7,0.3,0.9,3.4,1.7c2.1,0.5,7.5,3,11.9,5.5
		c2.3,1.3,5.2,1,5.2-0.5c0-0.5-2.7-4-5.2-6.6c-2.2-2.3-4.6-5.5-4.3-5.8c0.1-0.1,1.3,0.9,2.6,2.2c6.1,5.9,11.7,9.5,10.7,6.9
		c-0.1-0.2-1-1-1.9-1.6c-3.7-2.5-16.4-14.4-18.3-17.3c-0.6-0.8-1.6-2.1-2.4-2.9c-0.7-0.8-1.9-2.1-2.5-2.9
		C210.2,155.2,209.6,154.9,208.9,155.8 M157.5,155.8c0.3,0.3-0.1,0.9-0.5,0.9c-0.4,0-0.7-0.4-0.5-0.8
		C156.7,155.6,157.3,155.6,157.5,155.8 M350.5,156.5c-0.2,0.1-1.5,0.6-2.8,0.9c-1.3,0.4-3.6,1.3-5,2c-2.7,1.3-4.1,1.8-5.6,1.9
		l-0.8,0.1v1.7c0,1.2-0.1,2-0.5,2.5c-0.3,0.4-0.5,0.8-0.5,0.9c0,0.1-0.2,0.4-0.5,0.6c-0.5,0.3-0.5,0.9,0,0.9c0.5,0,2.7-2.2,3.2-3.2
		c0.8-1.6,4.8-3.8,10.3-5.6c2.6-0.9,3.1-0.9,3.1,0.1c0,1.7,0.7,2.3,1.3,1.1C353.6,158.5,352,155.6,350.5,156.5 M164.1,156.8
		c-0.1,0.2-0.2,0.3-0.3,0.3c-0.1,0-0.3-0.1-0.3-0.3c-0.1-0.2,0.1-0.3,0.3-0.3C164,156.5,164.1,156.6,164.1,156.8 M327.2,156.8
		c-0.4,0.1-1.5,0.6-2.4,0.9c-4.2,1.7-7.4,2.2-14.5,2.2c-2,0-2.5,0.1-2.5,0.4c0,1,7.9,1,14,0c4.7-0.8,9.2-0.8,10.1,0
		c1,0.9,0.7,1.3-1.5,1.9c-4.5,1.2-3.1,2.1,1.5,0.9c2.2-0.6,3.4-4.2,1.4-4.2c-0.2,0-1.2-0.5-2.2-1.2
		C329.3,156.4,328.6,156.3,327.2,156.8 M295.5,157.9c-1,1.5-0.6,3.5,0.4,2.4c1.2-1.3,5.9-0.1,8.2,1.9c1,0.9,1,0.3-0.1-0.8
		C301.1,158.1,296.5,156.2,295.5,157.9 M153.9,158.9c-0.2,0.4-1.2,0.3-1.2-0.1c0-0.2,0.1-0.4,0.2-0.5
		C153.1,158,154,158.6,153.9,158.9 M366.7,158.7c-1.5,2.2,0.7,3.5,8.8,5.3c2.8,0.6,6.7,1.9,9.8,3.3c6.8,3,9.5,4,7.3,2.7
		c-6.8-4.1-11.4-6-17.9-7.6c-3.8-0.9-5.5-1.8-6.3-3C367.8,158.2,367.2,158,366.7,158.7 M363.5,158.9c-0.3,0.3-3.5,1-5.6,1.2
		c-1.7,0.2-2.2,0.4-1.9,1c0.5,0.8,7.9,0,8.4-0.9C365.1,159.1,364.2,158.1,363.5,158.9 M159.7,159.7c-0.2,0.3-0.8,0.3-1.1-0.1
		c-0.3-0.4,0.5-0.8,0.9-0.5C159.7,159.3,159.8,159.6,159.7,159.7 M156.3,159.4c0.1,0.2,0,0.5-0.2,0.7c-0.5,0.5-1.2,0.1-0.9-0.5
		C155.3,159.1,156,159,156.3,159.4 M209.2,160.6c0,0.2,0.3,0.6,0.6,0.9c1.7,1.4,1.8,4.3,0.1,7.4c-1.4,2.6-2.6,6.2-2.6,8
		c0,1.6,0.5,2,0.8,0.5c0.2-1.3,2.5-6.9,3.1-7.6c1.7-2.2,2.5-5.1,1.8-7C212.5,161.5,209.2,159.6,209.2,160.6 M112,161.7
		c0.1,0.6,0.5,1.6,0.8,2.3c1.7,3.5,0.7,4.7-3.3,4.1c-1.8-0.3-1.9-0.4-2.1-2.1c-0.2-2.1-0.3-2.3-0.8-1.7c-0.4,0.4-0.4,0.7-0.2,2.5
		c0.2,1.1,0.2,2.1,0.2,2.2c-0.2,0.2-1.2-0.3-1.7-0.8c-1.1-1.2-1.4,0.6-0.3,1.9c0.8,0.9,5.6,1.5,6.1,0.7c0.1-0.2,0.6-0.4,1.1-0.5
		c1.1-0.2,2.1-0.8,2.1-1.3c0-0.2,0.2-0.5,0.5-0.8c1.1-0.9,0.8-3.1-0.5-4.6c-0.3-0.3-0.7-1-0.9-1.7
		C112.5,160.4,111.7,160.3,112,161.7 M290.4,161.4c-0.6,0.6-0.7,0.9-0.7,2c0,1.7,0.4,1.7,1.8,0.4c1.5-1.3,3.9-1,7.9,1
		c1.8,0.9,2,0.9,1.2-0.2C298.5,161.9,292,159.8,290.4,161.4 M140.9,162.4c0.4,0.4,0.1,1-0.5,1c-0.7,0-0.9-0.5-0.5-0.9
		C140.3,162,140.5,162,140.9,162.4 M164.3,163.8c-1,0.2-3,0.7-4.4,1c-3.5,0.9-7.9,1.8-9.5,1.8c-1.2,0-1.3,0-0.8,0.4
		c0.9,0.7,4.8,0.3,10.8-1.1c4.1-0.9,4.7-1,7.7-1.1c2.1-0.1,2.7,0,2.7,0.3c0,0.3,0.6,0.4,2.3,0.5c4.3,0.2,5.3,0.6,9.2,3.5
		c1.3,1,2.4,1.7,2.5,1.6c0.2-0.2-0.6-1.4-1.4-1.9c-0.4-0.3-1.2-0.9-1.9-1.5C177.6,164.1,170.3,162.6,164.3,163.8 M291.5,165.4
		c-0.4,0.2-1.5,0.8-2.4,1.3c-0.9,0.5-2.2,1.2-3,1.4c-2.3,0.7-1.7,1.2,1.2,1.2c3.1,0,9.1-1.8,9.1-2.7
		C296.4,165.5,293,164.7,291.5,165.4 M164.8,165.7c-3,0.5-5.5,1.2-8.3,2.4c-2.6,1.2-5.2,1.3-7.4,0.5c-1.4-0.6-1.8-0.4-1.1,0.4
		c1.5,1.7,5.1,1.8,9.1,0.2c2.4-0.9,4.9-1.6,9.4-2.5C171.6,165.7,170.2,164.9,164.8,165.7 M316.5,166.4c-0.6,0.1-1.9,0.5-2.9,0.8
		c-1.5,0.4-2.2,0.5-3.7,0.4c-1.5-0.2-1.8-0.1-1.8,0.2c0,0.7,1,0.8,5.6,0.8l4.4,0l1,0.8c0.7,0.5,1.1,0.7,1.1,0.5c0.4-1.1,4.1-1.7,6-1
		c1,0.4,0.4-0.4-0.8-1.2C323.2,166.2,319.5,165.7,316.5,166.4 M138.5,166.9c0,0.4-0.1,0.5-0.5,0.5c-0.7-0.1-0.8-1-0.1-1
		C138.4,166.3,138.5,166.5,138.5,166.9 M340.3,167.3c-3,0.1-2.6,1,0.6,1.2c2.1,0.2,6.4,0.8,9,1.4c2.6,0.6,4.2-0.1,2.9-1.2
		C352,168.1,344.1,167.2,340.3,167.3 M356.7,167.8c-0.8,1-0.2,1.8,1.7,2.6c1,0.4,2.3,1,2.9,1.4c0.6,0.4,1.1,0.6,1.3,0.6
		c0.8-0.5-0.6-2.3-2.7-3.3c-0.7-0.3-1.4-0.8-1.7-1.1C357.6,167.3,357.1,167.3,356.7,167.8 M297,169.1c-0.7,0.5-1.7,1.3-2.1,1.8
		s-1.3,1.6-2,2.4c-1.8,2.2-2.6,2.7-4.2,2.9c-1.7,0.2-1.9,0.3-1.4,0.9c1.3,1.5,4.9-0.2,6.9-3.3c1.6-2.6,2.7-3.8,4-4.6
		c0.9-0.5,1.1-1,0.5-1C298.5,168.2,297.8,168.6,297,169.1 M301.2,168.7c-1.9,0.8-5.7,4.3-5.3,4.7c0.1,0.1,1-0.1,1.9-0.4
		c4.1-1.3,7.8-1.7,10.7-1.2c2.1,0.4,0.6-1.2-2.7-2.7C303.6,168.1,302.9,168,301.2,168.7 M274.9,169.8c-3.2,1.2-6.3,3.1-6.3,3.9
		c0,0.6,0.4,0.5,1.9-0.4c2.8-1.6,3.4-1.7,8.6-1.7c3.5,0,5-0.1,5.4-0.4c0.9-0.5,0.4-0.8-1.7-0.9c-1-0.1-2.7-0.3-3.7-0.6
		C276.9,169.2,276.6,169.2,274.9,169.8 M167.1,170.2c0,0.2-0.2,0.4-0.4,0.5c-0.5,0.2-0.9-0.6-0.4-0.9
		C166.7,169.5,167.1,169.7,167.1,170.2 M193.7,169.9c0,0.2-0.2,0.4-0.4,0.4c-0.2,0-0.4-0.2-0.4-0.4s0.2-0.4,0.4-0.4
		C193.6,169.5,193.7,169.7,193.7,169.9 M161.7,170.5c0.1,0.5,0,0.6-0.5,0.6c-0.6,0-1.2-0.9-0.9-1.2
		C160.7,169.6,161.6,169.9,161.7,170.5 M336.3,170.6c-0.2,0.3,0.7,1.1,1.8,1.8c0.4,0.3,2.1,1.5,3.7,2.7c3.4,2.5,3.4,2.5,5,1.2
		c0.7-0.6,1.4-1.1,1.6-1.1c0.2-0.1,0.2-0.3,0.1-0.6c-0.2-0.5-1.1-0.4-1.9,0.4c-0.9,0.8-1.3,0.8-2.8-0.3c-0.8-0.5-2.4-1.5-3.6-2.1
		c-1.2-0.6-2.5-1.4-2.8-1.6C336.6,170.3,336.5,170.2,336.3,170.6 M113.7,171.3c0,0.2,0.1,0.5,0.3,0.6c0.2,0.1,0,0.5-0.7,1
		c-1.1,1-1.2,2.2,0,2c0.5-0.1,0.6,0,0.8,1.5c0.3,2.7,3.4,9.1,3.4,7c0-0.2-0.4-1.7-0.9-3.2c-1-3-1.1-3.9-0.8-6.4
		c0.2-1.6,0.2-1.6-0.6-2.2C114.2,170.8,113.7,170.7,113.7,171.3 M216.9,171.3c0,0.2-0.2,0.4-0.4,0.4s-0.4-0.2-0.4-0.4
		s0.2-0.4,0.4-0.4S216.9,171,216.9,171.3 M365.1,171.2c-0.3,0.2-0.6,0.3-0.6,0.4c-0.3,0.2-0.5,2.9-0.3,3.4c0.1,0.3,2.4,2.8,5.1,5.5
		c4.3,4.4,6,6.4,7.1,8.1c0.2,0.4,0.4,0.4,0.6,0.2c0.5-0.5-1.4-3.2-4.6-6.6c-6.2-6.7-6.8-7.9-5.9-10.7
		C366.6,170.8,366,170.7,365.1,171.2 M163.7,171.8c0.2,0.5-0.6,1.1-0.9,0.7c-0.4-0.4-0.1-1.1,0.4-1.1
		C163.4,171.4,163.6,171.6,163.7,171.8 M105.9,172c-0.5,0.3-0.5,3,0,4.2c0.1,0.2,0.2,2,0.2,4c0.1,4.3,0.4,5.5,1.7,6.2
		c1.4,0.7,1.8,0.6,1.8-0.4c0-0.7-0.1-0.8-0.6-0.7c-0.9,0.2-1.3-1.1-1-3.4c0.1-1,0.1-2.7,0-3.7c-0.1-1.1-0.3-2.4-0.3-3
		c-0.1-0.6-0.3-1.5-0.4-2c-0.2-0.5-0.4-1.1-0.4-1.3C106.8,171.6,106.6,171.6,105.9,172 M166.7,172c0.2,0.4,0,0.6-0.5,0.4
		c-0.2-0.1-0.4-0.3-0.3-0.4C166.1,171.6,166.5,171.6,166.7,172 M287.1,171.8c-3.8,0.6-4.2,0.8-8,4.6c-4.2,4.2-6.3,5.4-9.1,5.3
		c-1.5-0.1-1.9,0.2-1.2,0.7c2.5,1.8,9-1.2,13.4-6.2c1.7-2,3.1-2.8,6.1-3.7c1.3-0.4,2.4-0.7,2.5-0.8
		C290.9,171.7,288.1,171.7,287.1,171.8 M314.3,172.4c0,0.1,0.5,0.7,1,1.4c2.4,3,3.5,5.5,3.5,8.4c0,2.6,0.5,4.2,1.4,4.2
		c0.1,0,0.3-0.6,0.4-1.3c0.2-1.6,0.8-1.9,3.8-1.9c1.6,0,1.9-0.1,1.8-0.4c-0.2-0.5-2-1.2-3.1-1.2c-1.3,0-1.9-0.6-3.1-2.9
		C317.7,174.8,314.3,170.9,314.3,172.4 M214.2,173.2c0.1,0.6-0.5,1-1.1,0.7c-0.4-0.2-0.5-0.9-0.2-1.3
		C213.2,172.3,214.1,172.6,214.2,173.2 M152.7,173.5c-0.6,1.2,0.1,5.3,1,5.9c0.3,0.2,0.6,0.6,0.8,0.9c0.9,1.8,2.4,2,6.2,0.8
		c1.5-0.4,4.3-1.2,6.2-1.7c1.9-0.5,4.1-1.1,4.9-1.4c1.2-0.4,1.6-0.4,2.3-0.1c1.2,0.4,4.6,0.8,4.8,0.5c0.1-0.1,0-0.3-0.2-0.3
		c-5.5-1.5-7.6-1.6-12.3-0.6c-5,1.1-9,0.4-10.5-1.7c-0.7-1.1-1.4-1.2-1.1-0.1c0.5,1.7,2.1,2.9,4.4,3.5l1.2,0.3l-1.6,0.3
		c-3,0.5-4.9-1.1-5.1-4.3C153.6,173,153.3,172.4,152.7,173.5 M329.8,173.2c-0.6,0.2-0.4,0.7,0.4,1.3c0.4,0.3,1.3,1.2,1.9,2.1
		c1.3,1.7,1.6,1.8,2.2,0.8c0.2-0.4,0.9-0.9,1.4-1.1c1.8-0.9,0.9-1.8-1.1-1l-1.2,0.4l-1.2-1.2C331.2,173.4,330.4,173,329.8,173.2
		 M269.5,174.8c-0.3,0.2-1.4,0.6-2.4,0.8c-2,0.4-9.9,3.7-9.9,4.2c0,0.1,1.3,0.1,2.9,0c1.6-0.1,3-0.2,3.1-0.2c0.1,0,1.7,0.1,3.5,0.2
		c4.8,0.3,7.7-0.7,11.2-3.8c1.6-1.4,1.8-1.9,0.5-1.4c-1.3,0.5-2.9,0.6-5.2,0.1C270.4,174.2,270.3,174.2,269.5,174.8 M215,176.7
		c0,0.2-0.3,0.5-0.5,0.5c-0.6,0.1-0.9-0.7-0.5-1C214.5,175.9,215.1,176.2,215,176.7 M337.3,176.1c-0.6,0.2-0.4,0.6,0.3,0.6
		c0.9,0,2.1,1.3,2.8,3.1c0.6,1.5,1.6,3.1,1.8,2.9c0.2-0.2-0.9-4.6-1.3-5.5C340.2,176.1,338.6,175.6,337.3,176.1 M349.6,176.7
		c-0.1,0.1-0.7,0.5-1.3,0.8c-0.7,0.3-1.2,0.7-1.2,1c0,0.6,3.6,6.1,5.9,9c2.3,2.9,4.3,5.8,4.9,7.1c0.5,1,1,1.3,1,0.7
		c0-0.2-0.7-1.5-1.5-2.9c-0.8-1.4-1.9-3.4-2.4-4.3s-1.4-2.5-2-3.4c-0.6-0.9-1-1.7-1-1.8c0-0.1-0.6-1.1-1.3-2.4l-1.3-2.3l0.6-0.6
		c0.3-0.3,0.6-0.8,0.6-0.9C350.5,176.4,349.8,176.3,349.6,176.7 M334.8,177.5c-0.8,1.4-0.4,3.5,0.9,4.7c0.6,0.5,1.5,1.5,1.9,2.3
		c0.9,1.5,1.4,1.7,1.4,0.5c0-1.3-0.9-2.9-2.2-4.4c-1.3-1.4-1.5-2-0.8-2.9c0.2-0.3,0.3-0.6,0.2-0.7
		C335.8,176.5,335.3,176.8,334.8,177.5 M93.5,177.2c-0.7,0.1-0.8,0.8-0.1,1.3c0.4,0.3,0.4,0.4-0.2,0.9c-0.3,0.3-0.7,0.8-0.7,1.2
		c0,0.4-0.1,0.8-0.2,0.9c-0.4,0.7,0.7,0.5,1.6-0.3c0.8-0.7,0.9-0.8,0.9-0.3c0,0.7,0.8,1.7,1,1.2c0.3-0.7,0.5-0.3,0.4,0.9
		c-0.1,0.8,0.1,1.8,0.4,2.9c0.5,1.5,0.5,3.5-0.1,4.4c-0.3,0.4,0.2,2.1,0.6,2.1c0.2,0,0.4-0.2,0.4-0.4c0-0.2,0.2-0.9,0.5-1.5l0.5-1.1
		l0.5,0.9c0.3,0.7,0.4,1.2,0.3,2.3c-0.3,2.5,0.9,1.7,1.4-0.9c0.1-0.5-0.1-1.7-0.7-3.3c-0.4-1.4-0.9-3.3-1.1-4.3
		c-0.2-1-0.5-2.1-0.8-2.5c-0.8-1.1-1.4-2.3-1.4-2.8C96.7,178.1,94.7,177,93.5,177.2 M217.1,178c0,0.3-0.3,0.5-0.5,0.5
		c-0.2,0-0.4-0.2-0.5-0.5c-0.1-0.3,0.1-0.5,0.5-0.5C217.1,177.5,217.2,177.7,217.1,178 M131.7,178.4c-0.1,0.2-0.3,1.3-0.5,2.5
		c-0.7,3.5-2.9,8.8-3.7,8.7c-1.8-0.2-4,1-4,2.1c0,0.8,0.5,0.9,1.4,0.3c0.7-0.4,1.2-0.5,2.4-0.4c2.5,0.3,3.8-1.9,4.7-7.6
		C132.6,181,132.3,176.7,131.7,178.4 M279.8,180.3c-2,2-5,3.7-6.4,3.8c-2.1,0.1-8.9-1.5-12-2.7c-3.8-1.5-11.9,0-11.9,2.2
		c0,0.5,0.5,0.5,1.2,0c0.6-0.5,3.5-1.4,4.6-1.5c2.3-0.2,4.7,0,5,0.4c0.2,0.2,0.9,0.5,1.6,0.6c0.6,0.1,2.5,0.7,4.2,1.3
		c6.9,2.3,8.3,2.2,12-0.9c1.8-1.5,3.9-4.2,3.4-4.5C281.3,178.9,280.6,179.5,279.8,180.3 M220.9,179.2c0,0.1,0.1,0.3,0.2,0.5
		c0.1,0.3,0,0.4-0.5,0.4c-0.5,0-0.7-0.1-0.7-0.5c0-0.4,0.2-0.5,0.5-0.5C220.7,179.1,220.9,179.2,220.9,179.2 M224.9,181.4
		c0,0.5-0.5,0.8-0.9,0.4c-0.4-0.4,0-1.1,0.4-0.9C224.7,181,224.9,181.2,224.9,181.4 M232.2,181.6c-0.3,0.4,2.7,3.3,4,4
		c1.3,0.6,3.3,0.7,4.8,0.1c3.1-1.2,3.6-0.7,1.6,1.4c-0.2,0.2-0.4,0.4-0.4,0.5c-0.1,0.1-0.6,0.6-1.3,1.1c-0.7,0.5-1.3,1-1.3,1.1
		c-0.1,0.1-0.8,0.6-1.7,1.2c-1.6,1-1.9,1.7-0.7,1.5c0.8-0.1,4.9-2.7,6.5-4.1l1.2-1.1l-0.1,0.8c-0.1,0.6,0.1,1.1,0.7,2
		c1.2,1.8,0.8,3.7-1.2,5.3c-0.5,0.4-0.9,1-0.9,1.2s-0.1,0.4-0.2,0.3c-0.1-0.1-0.3,0-0.4,0.1c-0.1,0.1,0,0.3,0.1,0.3s0.2,0.2,0.1,0.4
		c-0.5,1.3,2.5-0.7,3.7-2.4c1.6-2.3,1.8-4.1,0.5-5.9c-0.5-0.6-0.5-0.8-0.2-1.4c0.3-0.6,0.3-0.6,1.2,0.6c0.5,0.7,1,1.3,1.2,1.3
		c0.2,0.1,1.1,0.7,2,1.5l1.7,1.4v1.6c0,2.1,0.3,2.1,2.5-0.1c0.9-0.9,2.4-2.2,3.4-2.8c1-0.6,2.6-1.8,3.6-2.6c1-0.8,2.4-1.7,3-2
		c1.7-0.9,1.6-1.1-0.4-1.8c-1-0.3-1.9-0.7-1.9-0.8c-0.4-0.5-5.8-1.9-7-1.8c-1.5,0.2-4.5,1.2-5.2,1.7c-2.4,1.9-3.6,2.7-4,2.7
		c-0.2,0-0.5,0.2-0.6,0.4c-0.1,0.3-0.2,0.3-0.5-0.1c-0.3-0.4-0.3-0.7-0.1-1.2c1.2-3.1-1-5.1-3.3-3c-1.7,1.7-5.2,1.8-7.2,0.4
		C233.1,181.7,232.4,181.3,232.2,181.6 M108.6,182.2c-1.5,1.5,1.9,3.4,5,2.8c3.1-0.6,2.9-1.6-0.2-1.6c-2.4,0-3.3-0.1-4.1-0.9
		C109,182.3,108.7,182.1,108.6,182.2 M167.1,183.3c0.4,0.5,0.1,1.3-0.4,1.2c-0.7-0.1-1.1-1-0.6-1.3
		C166.5,182.8,166.7,182.8,167.1,183.3 M179,183.7c-0.1,0.2-0.2,0.3-0.3,0.3c-0.1,0-0.3-0.1-0.3-0.3c-0.1-0.2,0.1-0.3,0.3-0.3
		C178.9,183.4,179.1,183.5,179,183.7 M174.8,184.1c0.2,0.2,0.2,0.4,0.1,0.4c-0.1,0-0.4-0.2-0.6-0.4c-0.2-0.2-0.2-0.4-0.1-0.4
		C174.3,183.7,174.6,183.8,174.8,184.1 M174.7,185.8c0,0.5-0.2,0.7-0.7,0.8c-0.9,0.1-1.2-0.5-0.7-1.2
		C173.7,184.7,174.7,185,174.7,185.8 M171.9,185.7c0.6,0.7,0.2,1.3-0.7,1c-1-0.3-0.9-1.3,0.1-1.5
		C171.4,185.3,171.7,185.5,171.9,185.7 M322.9,186.3c-1,1.1-1,1.3,0.1,3.5c1,2,5.9,6.9,10,10c3.6,2.7,4.3,2.8,1.6,0.2
		c-3.7-3.6-6.3-6.5-7.9-8.9c-2.4-3.6-2.4-4.2,0-4.2c2.4,0,0.5-1.5-1.9-1.6C324,185.3,323.7,185.4,322.9,186.3 M340.2,185.8
		c-1.7,1-1.5,2.7,0.5,5.9c1.5,2.4,5.3,10.2,5.3,10.9c0,0.1,0.2,0.4,0.4,0.6c0.9,0.7-1.4-5.9-3.4-9.9c-0.7-1.4-1.6-4-2-5.7
		c-0.5-2.2,2.3-0.4,3.4,2.3c0.8,1.7,1.1,2,0.9,0.6C344.7,186.4,342.5,184.4,340.2,185.8 M190.3,188.1c3.1,0.1,3.6-0.1,2.7-0.7
		c-1.3-0.8,1.3,0.1,3,1.1c1,0.6,2,1.2,2.3,1.3c0.2,0.1,0.4,0.3,0.5,0.5c0.1,0.2-0.3,0.1-0.8-0.2c-1.7-1-5.1-1.7-7.6-1.5
		c-2.1,0.1-5.1-0.6-5.1-1.3c0-0.1,0.4,0,1,0.3C186.9,187.9,188.1,188,190.3,188.1 M164.1,188.2c0,1,1.6,2.3,2,1.7
		c0.3-0.5,8.6,0.1,11.1,0.7c0.6,0.2,0.6,0.1,0.3-0.2c-0.9-0.9-4.2-1.6-7.9-1.6c-3.1,0-3.6-0.1-4.5-0.6l-1-0.6V188.2 M116.8,187.9
		c-0.1,0.2-0.1,0.4,0.1,0.6c0.6,0.8,1,3.1,0.6,4.3c-0.4,1.7-0.4,3.6,0.1,4.9c0.6,1.6,0.9,1.2,1-1.2c0.1-1.2,0.3-2.6,0.5-3.3
		c0.8-2.2,0.4-3.9-1.1-5.1C117.3,187.6,117,187.5,116.8,187.9 M260.5,187.9c0.2,0.4-0.1,1.1-0.5,1.1c-0.5,0-0.7-0.5-0.6-0.9
		C259.6,187.6,260.3,187.5,260.5,187.9 M106.8,188.9c-0.8,1.5-0.7,2.7,0.5,5.1c1.1,2.2,1.2,2.7,1.3,6.3c0,0.2,0.8,0.3,0.8,0.1
		c0-0.1,0.1-1,0.3-1.9c0.2-1.2,0.2-2.2,0-2.9l-0.3-1.1l1-0.2c2.3-0.4,3.5-0.7,3.5-1c0-0.6-0.2-0.6-1.6-0.4c-2.8,0.4-5.1-0.7-2.5-1.3
		c5-1.2,7.1-2.5,2.4-1.6c-2.5,0.5-3.6,0.3-3.8-0.7C108.2,188.4,107.2,188.2,106.8,188.9 M253.1,189.6c-0.1,0.2-0.2,0.3-0.3,0.3
		c-0.1,0-0.3-0.1-0.3-0.3c-0.1-0.2,0.1-0.3,0.3-0.3S253.2,189.4,253.1,189.6 M170.5,190.4c0,0.5,1.5,1.7,1.9,1.5
		c0.9-0.6,1.7,0.3,0.9,1c-0.4,0.3-0.4,0.4,0.6,1.3c1.1,1,1.3,1.1,1.6,0.7c0.4-0.6,1.3-0.3,1.1,0.4c-0.2,0.8,0.5,1.2,1,0.7
		c0.5-0.5,0.8-0.4,0.7,0.3c-0.1,0.7,2.5,3.4,2.8,2.9c1-1.6-1.9-6.2-4.5-7.3c-0.6-0.3-1.6-0.7-2.1-0.9
		C173.5,190.5,170.5,190.1,170.5,190.4 M255,191.2c0,0.3-0.1,0.4-0.3,0.4c-0.5,0-0.8-0.4-0.6-0.8C254.4,190.5,254.9,190.7,255,191.2
		 M178.8,191.8c0,0.5,0.7,1.1,1.7,1.5c2.8,1,2.6,7.3-0.3,8.6c-1.7,0.8-2,0.8-1-0.2c1.2-1.1,0-1.5-1.5-0.4c-1.6,1.2-0.1,3.4,3.7,5.3
		c2.1,1.1,3.2,1.3,7.9,1.8c3.9,0.4,6.8,1.3,9.9,3.2c1.3,0.8,2.6,1.5,2.8,1.5c0.6,0,2.6,2.3,2.6,3c0,1.6,0.9,2,1.5,0.8
		c0.8-1.4,1.4-8.9,0.8-8.9c-0.3,0-0.7,1.2-0.7,2.3c0,0.5-0.2,1.5-0.4,2.2l-0.4,1.3l-1.5-1.2c-0.8-0.7-2.1-1.5-2.8-1.8
		c-0.7-0.3-1.6-0.8-1.8-1.2c-1-1.1-4.6-2.2-9.9-3c-7.5-1.1-8.7-2-6.5-4.5c1.6-1.8,0-7.7-2.6-9.8C179,191.3,178.8,191.2,178.8,191.8
		 M231.4,192.7c-3,3.6,0.3,7,5.5,5.5c2.3-0.6,4.9-2.5,4.9-3.5c0-0.5-0.7-0.4-1.2,0.2c-2.6,2.9-9.1,2.2-8.3-0.9
		c0.1-0.4,0.2-1,0.3-1.3C232.8,191.7,232.1,191.7,231.4,192.7 M130.9,193c-0.9,0.3-0.7,0.7,0.5,0.9c0.8,0.2,1.1,0.4,1,0.7
		c0,0.3,0.2,0.5,0.6,0.5c0.9,0.1,1.7,1.4,2.4,3.7c1,3.1,0.6,4-0.7,1.8c-1-1.7-2.8-3.5-3.5-3.5c-0.7,0-0.7,0.6,0,1
		c0.4,0.2,0.9,1,1.5,2.5c1,2.3,1.7,3,3.3,3.3c2.7,0.6,2.4-6-0.4-8.8C133.3,192.9,132.5,192.5,130.9,193 M175.8,193.4
		c0.2,0.6-0.5,1-0.9,0.5c-0.2-0.2-0.3-0.5-0.2-0.7C174.9,192.8,175.6,193,175.8,193.4 M218.1,193.7c-0.3,0.2-0.6,0.6-0.6,0.8
		c0,0.5-0.4,0.5-1.1,0.1c-0.4-0.2-0.5-0.2-0.5,0.4c0,1.1,1.7,2,2.7,1.4c0.3-0.1,0.5-0.2,0.5-0.2c0,0-0.2,0.7-0.4,1.4
		c-0.4,1.2-0.3,2.3,0.1,2.3c0.4,0,1.9-3.6,1.9-4.6C220.7,193.7,219.3,192.8,218.1,193.7 M99.8,194.8c-0.4,0.2-1,1-1.4,1.7
		c-1.3,2.6-3.5,4.2-5.1,3.8c-0.8-0.2-0.9,0.2-0.2,0.8c1.1,1,3.7,0.2,5.6-1.7c0.8-0.8,1.1-1,1.1-0.7c0,0.2,0.3,1,0.6,1.6
		c0.6,1.2,0.6,1.5-0.6,3.3c-1.1,1.7,0.8,1.3,2-0.4c1-1.4,1.2-1.4,1.2,0.1c0,0.7,0.2,1.3,0.4,1.6c0.5,0.5,2.7,0.6,2.9,0
		c0.2-0.5-0.5-1.5-1.1-1.5c-0.4,0-0.5-0.1-0.3-1c0.2-1-0.2-3.3-0.6-3.3c-0.1,0-0.5,0.2-0.9,0.6c-0.5,0.4-0.7,0.5-0.8,0.2
		c-0.7-2-0.9-2.9-0.9-4c0-0.7-0.1-1.3-0.2-1.3c-0.1,0-0.4,0-0.6-0.1C100.7,194.4,100.2,194.6,99.8,194.8 M86.8,195.1
		c0,0.3,1,1.2,1.2,1c0.2-0.2-0.5-1.3-0.9-1.3C87,194.9,86.8,195,86.8,195.1 M251.4,197.5c-0.6,1.9-1.4,2.9-3.6,4.5
		c-3.5,2.6-6.4,5.1-6.4,5.6c0,0.7,0.6,0.4,2-0.7c0.7-0.6,1.9-1.4,2.5-1.7c4-2,7.7-5.1,7.7-6.4C253.7,197.6,251.8,196.5,251.4,197.5
		 M89.4,198.4c-1.8,2.3-0.8,5,2.7,7.6c1.1,0.8,2.4,1.9,2.9,2.4c0.9,0.9,1.7,1.2,1.7,0.6c0-0.5-1.2-2.2-2.5-3.6l-1.1-1.1h1.3
		c0.9,0,1.6-0.2,2.3-0.7c1.8-1.1,1.8-2.1,0-1.3c-2.1,0.9-4.4,0.5-5.9-1.1l-0.7-0.8l0.5-1.1c0.4-0.8,0.4-1.2,0.2-1.4
		C90.3,197.4,90.1,197.5,89.4,198.4 M222.7,198.5c-0.7,0.8-0.9,1.7-0.3,1.7c0.2,0,0.5-0.1,0.5-0.3c0.4-0.7,1.2-0.3,1.2,0.6
		c0,1.1-0.9,4-1.5,4.9c-1,1.6-1.9,5-2.2,8.6c-0.2,2.6,0.3,3.1,0.6,0.7c0.3-2.4,2.5-8.3,4.5-11.9
		C227.1,199.7,224.8,196.2,222.7,198.5 M60.3,199.4c-0.8,0.1-2.2,0.4-3.1,0.6c-0.9,0.2-3.3,0.7-5.5,1c-2.2,0.3-4.8,0.8-5.9,1.1
		c-1.1,0.3-3.5,0.9-5.5,1.3c-2,0.4-5.2,1.3-7.1,1.9c-1.9,0.6-3.8,1.2-4.1,1.3c-0.4,0.1-0.7,0.4-0.7,0.6c-0.1,0.3,0.6,0.4,4.4,0.4
		c4.1,0,4.7,0.1,7.7,0.8c3.3,0.8,12.3,2.5,15.7,3c3.2,0.4,6.8-0.3,6.8-1.3c0-0.3,0.2-0.3-1.6,0.1c-2.9,0.8-8.9,0.1-12.8-1.4
		c-0.8-0.3-3.2-0.9-5.3-1.2c-2.1-0.4-4.1-0.7-4.4-0.8c-0.3-0.1-1.1-0.1-1.7-0.2c-1.3-0.1,0.4-0.3,3.9-0.6c4.1-0.3,14.5-1.3,15.6-1.4
		c0.4,0,1.3-0.1,1.9-0.2c0.6,0,1.1-0.2,1-0.3c-0.1-0.1-0.4-0.2-0.7-0.1c-0.5,0.1-5.5,0.2-10.5,0.1c-2.7,0-2.9-0.2-0.4-0.4
		c0.9-0.1,3-0.3,4.5-0.5c3-0.4,8.9-1,12.3-1.3c2.7-0.2,3.6,0.6,2.5,2.5c-0.5,0.9-0.5,1.3,0,1.3c0.7,0,1.8-2.3,1.7-3.4
		C68.7,199.7,65.7,198.6,60.3,199.4 M216.1,200c0,0.2,0.2,0.7,0.6,1.1c0.9,1.2,1,2.3,0,3.7c-0.5,0.7-0.8,1.5-0.8,1.9
		c0,0.4-0.1,0.8-0.3,0.8c-0.4,0.2-0.3,1.2,0.1,1.2c0.5,0,0.9-0.4,1.1-1.1c0.1-0.4,0.3-0.8,0.5-1.1c1.9-2.3,2.1-3.9,0.7-5.8
		C217.2,199.7,216.1,199.3,216.1,200 M129.7,200.3c0,0.6,1.7,3.4,2.4,4.1c1.2,1.1,6.5,3.3,7.9,3.3c0.2,0,0.8,0.2,1.4,0.5
		c2.1,1.1,2.7,0.6,1.2-1.1c-0.5-0.6-1.5-2.2-2.3-3.7c-1.6-3.2-2.5-3.5-1.6-0.6c0.1,0.5,0.4,1.2,0.5,1.7l0.3,0.8l-1.5-0.2
		c-0.8-0.1-1.8-0.3-2.2-0.5c-0.4-0.2-1-0.4-1.4-0.5c-0.8-0.2-1.6-1-3-2.8C130.6,200,129.7,199.6,129.7,200.3 M187.1,201.7
		c0.2,1,2.7,1.9,5.4,1.9c2.7,0,4.4,0.6,5.6,1.9c0.6,0.6,2.8,2,2.9,1.8c0.3-0.3-3.5-4.2-4.5-4.7c-1-0.5-1.6-0.6-4.2-0.6
		c-2,0-3.5-0.2-4.1-0.4C186.9,201.2,187,201.2,187.1,201.7 M243.6,202.3c-0.6,0.4-2,1.5-3,2.4l-1.9,1.6l-0.8-0.9
		c-0.4-0.5-1-1.2-1.3-1.6c-0.9-1.3-1.4-0.6-0.6,0.8c0.2,0.4,0.7,1.4,1,2.2c0.9,2,1.1,1.9,4.8-1.8C245.1,201.7,245.6,201,243.6,202.3
		 M123,202.3c0,0.1-0.1,0.9-0.1,1.9c-0.1,3.9-3.3,6.7-10.1,8.8c-2.6,0.8-6.5,3.5-6.5,4.5c0,0.6,0.6,0.4,1.9-0.7
		c1.8-1.5,3.1-2.1,6.3-2.9c6.7-1.5,9.5-4.1,9.5-8.5C124,203.5,123.3,201.3,123,202.3 M72.2,202.9c-0.3,0.5,1.4,1.8,3,2.2
		c4.1,1.2,5.1,2.6,3.4,5c-0.8,1.2-0.5,1.8,0.6,1.2c1.3-0.7,2.5-2.8,2.5-4.3c0-2.7-1.2-3.7-4.5-3.7c-1.2,0-2.6-0.2-3.2-0.4
		C72.6,202.5,72.5,202.5,72.2,202.9 M306.8,203.3c-2.1,2.2-5.9,4.8-10.9,7.3c-4.5,2.2-5.3,3.1-6.2,5.9c-1.5,5.2-2,6.6-3.1,8.7
		c-2.6,5-3.4,9.2-2.7,15.3c0.5,4.4,1.1,3.8,1-1c-0.1-6,0.7-9.4,3.1-14.4c5.2-10.5,5.3-10.6,11.6-14.9c3.7-2.5,7.2-5.4,7.9-6.6
		C308.3,202.4,307.7,202.3,306.8,203.3 M115.9,203.3c-0.9,0.4-1.2,0.9-0.4,0.9c0.6,0,2.2-0.8,2.2-1.1
		C117.7,202.8,116.9,202.8,115.9,203.3 M220.1,204.2c0,0.3-0.4,1.5-0.9,2.5c-1.3,2.8-1.8,4.3-2,6.8c-0.2,2.6,0,2.7,0.6,0.3
		c0.2-1,1-3.1,1.6-4.7c1.2-3,1.6-5.1,1-5.3C220.3,203.7,220.1,203.9,220.1,204.2 M83.1,204.8c-0.5,0.6-0.6,1.7-0.3,2.5
		c0.3,0.9-0.1,2.7-1.2,4.6c-0.9,1.6-0.1,1.6,1.3,0.1c1.5-1.5,2.4-3.3,2.1-4.2c-0.2-0.6-0.2-0.6,0.3-0.2c1.7,1.5,6.8,2.3,6.8,1.2
		c0-0.5-1-0.9-2.1-0.9c-1.1,0-3.3-1.2-4.4-2.4C84.5,204.5,83.6,204.2,83.1,204.8 M108.1,204.5c0,0-0.1,0.7-0.1,1.4
		c-0.2,3.5-4.6,6.2-8.5,5.1c-1.6-0.4-1.9-0.2-1.3,1c2,3.4-3.5,9.7-8.4,9.7c-1.1,0-1.1,0.1,0.2,1.3c1.7,1.6,2.1,4,1.1,6.6
		c-0.7,1.9-0.7,2.2,0.2,1.4c0.9-0.8,1.5-2,2.4-4.7c0.8-2.4,1.4-3.5,3.8-6.1c0.9-1,2-2.3,2.4-3c0.5-0.7,1.8-1.8,3.7-3.1
		c1.6-1.1,3.6-2.6,4.4-3.4c2-2,2.7-2.2,5.9-2.5c2.8-0.2,5.4-1.2,5.4-2.2c0-0.4-0.8-0.5-1.2-0.1c-0.4,0.4-1.7,0.4-4.4,0.2
		c-3.1-0.3-3.2-0.3-3.9-1.1C109.1,204.6,108.2,204.2,108.1,204.5 M288.6,206.4c-4.5,0.7-12.2,6.6-17.9,13.8c-0.9,1.1-2,2.4-2.4,2.9
		c-0.5,0.5-1.2,1.4-1.7,1.9c-2.6,3-10,15.3-9.4,15.8c0.3,0.3,0.5,0.1,1.3-1.2c1.7-3.2,7.6-11.7,10.3-14.7
		c12.4-14.2,18.7-18.7,24.5-17.4c1.2,0.3,1.1-0.3,0-0.8C292,206.3,290.2,206.1,288.6,206.4 M136.4,208.2c-1,0.2-2.4,0.9-3,1.4
		c-0.2,0.2-0.7,0.6-1.1,0.9c-1.1,0.7-2.4,2.5-2,2.9c0.2,0.2,0.6-0.1,1.4-0.8c1.5-1.5,4.5-3,5.8-3c1.7,0,2.3-0.7,1-1.2
		c-0.5-0.2-1-0.4-1.1-0.4C137.4,208,136.9,208.1,136.4,208.2 M312,208.8c-7,2.8-12.6,7-14.1,10.5c-0.4,0.8-0.9,2.1-1.2,2.7
		c-1.3,3.1-1.9,7-1.3,8.8c0.4,1.2,1.5,2.6,2,2.6c0.5,0,0.5-0.5,0-1.1c-1.8-2,0.5-9.7,3.8-12.9c2.4-2.3,7.6-5.6,9.4-5.9
		c1.6-0.3,3.3,0.3,3.1,1.1c-0.1,0.3-0.3,1.8-0.5,3.4c-0.5,3.8-0.7,4.4-2.4,7.2c-1.7,2.8-1.9,3.2-1.5,3.2c0.7,0,3.4-4.9,4.4-8.1
		C317.5,207.9,317.3,206.6,312,208.8 M286.1,210.4c-4,2.2-9.3,6.8-13.6,11.9c-1.1,1.3-3,5-4.1,7.9c-1.1,3-2.5,11.8-2.7,17.2
		l-0.1,3.6l-1.1,1.9c-0.6,1-1.7,2.7-2.4,3.8c-0.7,1-1.8,2.5-2.3,3.3c-0.5,0.8-2,2.5-3.3,3.9c-1.3,1.3-2.7,3-3.3,3.7
		c-0.6,0.7-2.2,2.6-3.5,4.1c-2.4,2.7-2.8,3.3-2.3,3.3c0.1,0,1.8-1.6,3.6-3.5c1.9-1.9,4.6-4.7,6-6.2c2.2-2.3,4.6-5.2,6.2-7.6
		c0.2-0.4,0.8-1.1,1.2-1.7c2.2-3.1,3.1-5.5,3.5-8.9c0.7-6.1,1-8.5,2-13.5c0.6-3.1,2.8-8.4,4.1-10.1c0.4-0.5,0.9-1.3,1.2-1.7
		c0.7-1.3,6.6-7.1,9.6-9.3c1.6-1.2,2.9-2.2,2.9-2.4C287.9,209.5,288,209.4,286.1,210.4 M123,210.9c-0.9,1.1-3.1,2.3-6.5,3.4
		c-7.2,2.3-8.4,3.2-13.3,10.7c-4.5,6.8-7.1,8.8-11.3,8.8c-0.9,0-1.4,0.4-1,0.8c0.5,0.5,2.2,0.4,4.2-0.1c3.5-0.9,4.5-1.7,8.8-6.3
		c0.7-0.8,2.1-1.9,2.9-2.4c2.4-1.4,5.3-4.3,6.4-6.4c1.1-2.1,1-2.1,4-3.3c3.7-1.5,5.2-2.7,6.6-5.2C124.6,209.7,123.9,209.8,123,210.9
		 M210.4,210.7c-0.1,0.3-0.2,1.2-0.3,2c-0.2,1.8-1,4.1-1.9,5.3c-0.8,1.1-0.9,2-0.3,2c0.8,0,2.2-1.8,3.2-4.1c1.2-2.7,1.1-2.6,2.4-1.3
		c0.9,0.9,1,0.9,0.8,0.3c-0.3-1-1.3-2.5-2.5-3.7C210.6,209.9,210.6,209.9,210.4,210.7 M182.6,210.8c0.2,1,3.3,2.1,6.9,2.4
		c3.5,0.3,6.6,1.1,7.8,2.2c0.3,0.2,0.6,0.3,0.8,0.3c0.4-0.1,2.3,1.1,2.7,1.7c0.4,0.7,0.7,0.2,0.2-0.5c-0.9-1.5-4.2-3.7-5.5-3.7
		c-0.2,0-1.3-0.3-2.3-0.6c-1.1-0.4-2.8-0.7-3.8-0.8c-1-0.1-2.6-0.4-3.6-0.7C183.6,210.3,182.5,210.2,182.6,210.8 M66.5,211
		c-1.5,1.8,3.4,3.2,7.4,2.1c2.7-0.7,2.4-1.1-1-1c-2.7,0-3,0-4.3-0.7C67.1,210.5,67,210.5,66.5,211 M178.5,212.8
		c-2.4,2.2-2.3,3.2,0.6,4.6l1.7,0.8l7.3,0l7.3,0l1.7,0.7c1.8,0.8,2.8,0.6,1.7-0.2c-2.3-1.8-4.9-2.2-12.8-2.3c-6.1,0-7.9-0.8-5.9-2.6
		c0.6-0.5,0.7-0.7,0.5-1.3C180.4,211.5,179.9,211.5,178.5,212.8 M124.7,213.4c0,0.7,0.6,1.5,1.1,1.5c0.2,0-0.1,0.4-0.6,0.9
		c-0.9,0.9-2.3,4.7-2,5.4c0.3,0.8,0.9,0.2,1.6-1.7c0.8-2.1,2.5-4.1,3.6-4.1c0.3,0,0.6-0.1,0.7-0.3c0.2-0.4-0.6-1.6-1-1.5
		c-0.2,0.1-0.8-0.1-1.5-0.4C125,212.6,124.7,212.6,124.7,213.4 M122.2,214.6c-0.2,0.1-0.5,0.6-0.6,1.1c-0.2,0.7-0.5,1-2.8,2.1
		c-3.2,1.6-4.3,2.7-6.6,6.2c-2.5,3.9-4.7,5.8-8.2,7.1c-0.4,0.2-0.7,0.4-0.6,0.6c0.2,0.3,2.2,0.3,2.4,0c0.1-0.1,0.4-0.3,0.7-0.3
		c1.6,0,5.3-3.3,7-6.2c0.5-0.9,1.3-2.1,1.8-2.6c0.7-0.8,0.8-0.8,0.3-0.1c-0.3,0.4-1,1.8-1.6,3.1c-1.9,4-6.3,7-10.7,7.3
		c-1,0.1-1.5,0.2-1.7,0.6c-0.7,1.2,2.4,1.7,4.6,0.7c0.8-0.3,1.8-0.5,2.9-0.6c3.6-0.1,6-1.5,6.1-3.8c0.1-1.5,0.2-1.7,0.9-1.1
		c1,0.9,2,0.8,4.5-0.2c2.2-0.9,2.3-1,3.7-0.7c1.2,0.3,1.5,0.3,2.3-0.1c1.3-0.6,1.8-0.6,5,0.7c1.6,0.6,3.4,1.3,3.9,1.5
		c1.7,0.6,3.2,0.4,3.3-0.5c0.1-0.7-0.1-0.8-1.1-0.8c-1.6,0.2-4.2-1.3-4.7-2.7c-0.3-1-1-0.9-0.9,0.2c0,0.6,0,0.7-0.4,0.5
		c-1-0.4-3.1-0.9-4-0.9c-1,0-2.3-0.6-2.6-1.2c-0.2-0.6-1-0.5-1,0.1c0,0.3,0.2,0.7,0.4,1.1c0.2,0.3,0.3,0.6,0.2,0.6
		c-0.5,0-1.2-0.8-1.4-1.7c-0.1-0.5-0.4-1-0.6-1c-0.4,0-0.7,1-0.5,1.8c0.1,0.5,0,0.6-1,0.9c-0.6,0.2-1.5,0.7-2,1.1
		c-2,1.7-3.5,0.8-2.7-1.6c0.3-0.9,0.5-1.8,0.5-2.1c0-0.6,2-3,3.8-4.5C122.7,217.4,124,213.6,122.2,214.6 M142.3,214.8
		c-2.6,0.1-4,0.3-4,0.7c0,0.2,1.7,0.3,6.6,0.4c3.6,0,7.2,0.2,7.9,0.3l1.3,0.2l-2.1,0.3c-6.4,0.9-12.5,2.2-12.3,2.6
		c0.1,0.4,2.7,0.1,19.5-1.8c0.6-0.1,1,0,0.9,0c-0.2,0.2-6,2.5-9.6,3.7c-4,1.4-7.1,3-7.2,3.7c-0.1,0.3-0.4,0.8-0.8,0.9
		c-0.4,0.2-0.6,0.5-0.6,0.7c0,0.5-0.8,0.4-2.7-0.3c-2.9-1.1-4.6-3.3-4.6-5.8c0-1.4-0.4-1.7-0.7-0.6c-0.5,1.9,0.3,4.2,2.1,6.2
		c1.9,2,5.2,2.8,6.7,1.6c0.4-0.4,1.3-0.9,2-1.2c0.7-0.3,2.1-1,3.2-1.7c1.1-0.6,4.3-2.1,7.1-3.3c5.3-2.3,10.3-5.2,10.5-6.2
		c0.1-0.4,0-0.5-0.5-0.3c-0.8,0.3-2.5,0.3-8.9,0C150.4,214.8,144.9,214.7,142.3,214.8 M78.6,215.3c-1.5,0.7-0.5,2.4,2.1,3.6
		c2.1,1,11.3,0.8,11.6-0.2c0.1-0.3-0.3-0.3-1.7-0.2c-3.4,0.3-7.4-0.8-10-2.8c-0.6-0.4-1-0.8-1.1-0.8
		C79.5,214.9,79.1,215.1,78.6,215.3 M131.6,215.8c-0.4,0.2-1.2,0.4-1.9,0.4c-1.4,0-1.7,0.5-0.6,1.2c0.6,0.4,0.6,0.4,0.2,1.6
		c-0.5,1.3,0,2.5,0.5,1.2c0.1-0.4,0.5-0.9,0.9-1.3l0.7-0.6l-0.3,1.2c-0.3,1.3,0,3.1,0.6,3.3c0.3,0.1,0.3-0.1,0.2-0.7
		c-0.3-1.3,0.8-3.7,2-4.6c1-0.7,1.3-1.3,0.8-1.6C134,215.4,132.2,215.4,131.6,215.8 M213.1,216.1c-0.1,0.1-0.2,0.7-0.2,1.2
		c0,0.6-0.2,1.3-0.4,1.5c-0.5,0.6-0.3,1,0.5,1c1,0,1.5-1.8,1-3.3C213.7,215.9,213.5,215.8,213.1,216.1 M250.4,216.5
		c-1.7,0.6-2.3,1.1-5,3c-0.8,0.6-2.3,1.6-3.1,2.1c-0.9,0.5-2.4,1.4-3.3,1.9c-1.9,1.1-2.4,1.5-1.6,1.3c0.3-0.1,0.6-0.3,0.6-0.4
		c0-0.1,0.1-0.2,0.3-0.2c0.4,0,7.5-2.8,10.4-4.1c4-1.8,5.9-1.3,6.9,1.8c0.1,0.5,0.3,1.2,0.4,1.6c0.4,1.8,1.3-0.4,1.2-3
		c-0.1-1.9,0.1-2,1.7-1.1c1.4,0.7,1.4,0,0-1.4C256.9,216,253.3,215.4,250.4,216.5 M233.7,217.6c-1.1,0.6-4.5,3.2-5.6,4.2
		c-9,8.9-12.2,15.4-10,20.6c0.5,1.3,0.8,1.1,0.5-0.3c-1.1-4.1,1.7-10.8,6.7-15.9c4.4-4.5,10.1-7.9,12.4-7.5c1.4,0.3,5.5,0.4,5.5,0.2
		C243.1,218.2,234.9,217,233.7,217.6 M266.7,219.3c-0.7,0.2-1.8,0.4-2.3,0.4c-3.1,0.1-5.7,3.4-7.1,9.4c-0.5,1.9-1.9,6-2.4,6.9
		c-0.1,0.3-0.3-0.5-0.3-2.1l-0.1-2.5l-1.5-2.2c-4.1-5.8-12.2-5.9-20.5-0.3c-1.1,0.8-1.7,1.1-1.6,0.8c0.2-0.4,0.1-0.4-0.3-0.1
		c-1.7,1.4,2.2-2.9,5-5.6c1.5-1.4,1.5-1.5-0.3-1c-8.3,2.8-13.6,12.7-10.9,20.6c1.2,3.6,3.7,7.8,5.6,9.7c1.4,1.4,3.9,6.1,3.9,7.5
		c0,1.8-0.8,5-1.7,6.3c-0.5,0.7-1.1,1.8-1.5,2.4c-0.7,1.2-1.4,2-3.5,3.9c-1.8,1.6-1.6,1.9,0.7,0.8c7.2-3.5,12.1-8.9,13.3-14.4
		c0.2-1.1,2.2-5.2,3.3-6.9c2.7-4.2,4.4-6.4,2.9-3.7c-0.4,0.6-1.3,2.3-2,3.8c-1.3,2.6-1.6,3.4-3.6,8.8c-2.6,7.1-9.4,15.4-23.5,28.7
		c-4.1,3.9-10.5,10.2-10.5,10.5c0,0.8,1.1,0,6.1-4.6c1.1-1,2.4-2,2.9-2.3c1-0.6,1-0.5-0.3,0.7c-0.7,0.7-3.9,3.8-7.1,6.9
		s-8.1,7.9-11.1,10.6c-8.6,8-8.2,7.6-8,8.1c0.2,0.4,0.4,0.3,1.4-0.6c0.7-0.6,3.1-2.6,5.3-4.5c2.2-1.9,4.1-3.4,4.1-3.5
		c0.1-0.1,0.6-0.6,1.2-1.1c0.6-0.5,2-1.8,3.2-2.9c2.9-2.7,9.4-8.8,10.4-9.7c0.4-0.4,1.3-1.2,1.9-1.7c2.4-2.2,3.7-3.3,3.3-2.8
		c-1.4,1.8-2.9,3.4-9.1,9.8c-3.8,3.9-7,7.3-7.1,7.4c-0.2,0.7,0.8,0,2.9-1.7l2.3-1.9l-1.5,1.5c-0.8,0.8-5.5,5.6-10.5,10.5
		c-17.5,17.4-26.3,26.1-29.7,29.5c-3.3,3.3-4.2,4.5-3.8,5.2c0.3,0.5,5.4-3.3,10.8-8.1c1.6-1.4,3.3-2.7,3.7-2.9
		c1.3-0.6,3.8-2.7,10.5-8.8c0.7-0.6,1.4-1.1,1.5-1.1c0.2,0,1.3-0.8,2.5-1.8c2.2-1.8,3-2.4,8.1-6.8c1.5-1.3,4.6-3.7,7.1-5.5
		c2.4-1.7,5.2-3.7,6.1-4.4c4.6-3.4,9.6-6.9,9.6-6.8c0,0.1-6.2,5.4-10,8.5c-2.8,2.3-3.4,2.9-2.7,2.9c0.4,0,1.5-0.8,6.4-4.4
		c2.7-2,2.2-1.4-2,2c-3.8,3.1-3.9,3.3-8.5,7.4c-1.6,1.5-2.7,2.7-2.7,3c0,0.8,0.3,0.6,2.6-1.1c1.1-0.9,3.6-2.7,5.4-4
		c1.8-1.3,3.5-2.6,3.6-2.7c0.3-0.3,2.1-1.8,3.4-2.8c0.5-0.4,2.5-2.1,4.6-3.8c9.6-8,11-9.2,12.4-10.1c0.8-0.5,4-3.1,7.1-5.7
		c3.1-2.6,6.1-5,6.7-5.5c1.1-0.8,4.6-3.6,6.2-4.9c0.5-0.4,1.2-1,1.7-1.4c0.5-0.4,1.3-1,1.7-1.4c5.2-4.6,10.5-8.7,15-11.5
		c3.7-2.3,4.9-3.3,6.5-5.6c2.5-3.7,3.6-5.8,3.1-6.1c-0.5-0.3-12.1,7.6-17.3,11.7c-1.7,1.3-4.3,3.3-5.7,4.3c-1.5,1-3.4,2.5-4.4,3.2
		c-1,0.8-3.3,2.4-5.3,3.7c-4.9,3.3-5.7,3.8-9.4,6.6c-1.8,1.4-4.2,3-5.2,3.6l-1.9,1.1l2.1-2c2.4-2.3,5.7-5.1,10.8-9.5
		c2-1.7,3.7-3.2,3.9-3.3c0.2-0.2,2.8-2.4,5.9-5s6.6-5.7,7.9-7c1.2-1.3,3-2.9,3.9-3.5c0.9-0.7,2.5-2,3.5-2.9
		c6.2-5.5,10.7-8.8,16-11.5c2.8-1.4,5.2-3.1,4.8-3.4c-0.1-0.1-0.8,0.1-1.5,0.5c-0.7,0.4-3,1.2-5,1.9c-3.8,1.3-6.2,2.4-7.3,3.4
		c-0.8,0.7-1,0.5-0.5-0.5c0.8-1.5,1.5-3.8,1.4-4.2c-0.1-0.2,0-0.8,0.1-1.3c0.2-0.5,0.4-3.8,0.5-7.4c0.3-8.9,0.9-12,2.9-14.3
		c0.6-0.7,1.8-3.3,1.6-3.5c-0.4-0.4-4.4,4.6-5.6,6.9c-0.3,0.6-0.8,1.5-1,1.8c-0.2,0.4-0.7,1.2-0.9,1.9c-0.3,0.7-0.9,2.2-1.4,3.5
		c-0.5,1.2-1.2,3.2-1.5,4.4c-0.3,1.2-0.9,3.3-1.4,4.8c-1.8,5.2-1.9,5.6-4.3,9.6c-0.6,1-1.4,2.4-1.8,3.1c-0.4,0.7-2.3,2.8-4.4,4.8
		c-4.8,4.7-5.3,5.1-5.6,5.6c-0.1,0.2-1.1,1.1-2.3,2.1c-1.1,0.9-3.5,3-5.2,4.7c-4.5,4.2-6.5,5.9-9.6,8.3c-3.4,2.7-7.1,5.7-8.7,7.1
		c-1.6,1.4-4.3,3.8-4.8,4c-1.1,0.6,3.8-4.7,9.2-10.1c5.4-5.4,7.8-8,12.7-13.3c0.7-0.7,1.8-2,2.6-2.8c1.4-1.5,2.2-2.5,5-6
		c3-3.8,3.7-4.8,4.8-7.1l1.1-2.3l0.2-4.8c0.4-8.7,1-12,2.7-15.1c0.3-0.6,0.2-0.8-0.4-0.6c-0.6,0.2-2.1,2.2-4,5.5
		c-0.9,1.4-2.8,4.2-4.3,6.2c-1.5,2-3.2,4.3-3.7,5.1c-0.6,0.8-1.1,1.5-1.1,1.4c-0.2-0.2,2.8-8,3.2-8.1c0.1,0,0.2-0.2,0.2-0.4
		c0-1.8,6.5-13.4,10.5-18.6C269.7,218.5,269.7,218.5,266.7,219.3 M294.3,222c-2.6,4.3-3.9,11.8-2.4,13.5c1.3,1.5,5.2,1.7,7.3,0.4
		c1.3-0.8,1.1-1.1-0.4-0.6c-5,1.3-6.7-4.3-3.7-12.1C296.4,219.7,296,219.2,294.3,222 M219.3,220.7c-0.8,0.1-1.6,0.2-1.8,0.3
		c-0.2,0.1-3.2,0.3-6.8,0.3c-7.4,0.2-10.1,0.6-12.9,2.1c-7.1,3.7-11.7,14.1-9,20.3c0.8,1.8,0.2,1.5-1.3-0.7c-1.9-2.7-2.7-6.8-2-11.8
		c0.5-3.9-2.7,0.1-5.9,7.3c-3.6,8.2-4,19.8-0.9,25.9c1.3,2.6,1.5,2.6,0.9,0c-0.4-1.8-1-9.3-1-12.2c0-4.6,4.3-6.4,11.5-4.6
		c0.5,0.1,1.7,0.4,2.5,0.5c3,0.6,4.2,1.3,5.6,3.4c0.7,1,2.1,2.9,3.1,4.2c1,1.3,2.3,3.3,2.9,4.4c1.2,2.4,1.1,2.3,1.3,2.1
		c0.3-0.3-1.4-4.4-2.5-6.2c-1.9-3-3.1-5.1-3.4-5.8c-0.1-0.4-0.4-1.2-0.7-1.9c-0.7-1.6-0.5-6.4,0.5-9.8c1.5-5.1,2.9-7.4,6.3-10.2
		l1.3-1.1l-0.8,1.2c-2.6,3.9-3.4,11.1-1.6,15c1.7,3.6,5.6,8.3,7.4,8.9c0.3,0.1,1,0.5,1.5,0.9c0.5,0.4,1.3,0.9,1.8,1.2
		c5.4,2.8,7.2,11.1,3.3,15.4c-1.2,1.3-0.8,1.7,0.9,0.6c5.7-3.7,6.9-13.4,2.4-19.2c-0.5-0.6-1.5-1.9-2.4-2.9c-4-4.8-5-10.5-2.6-15.3
		c1.4-2.8,2.3-3.9,6.3-7.9c2.5-2.5,4-4.1,3.8-4.2C226.7,220.7,221,220.6,219.3,220.7 M102.3,222c-0.6,0.7-1.3,1.6-1.7,1.9
		c-0.4,0.4-1.3,1.6-2,2.6c-2.3,3.3-4.3,5.2-5.7,5.5c-0.9,0.2-1,0.9-0.1,0.9c2.5,0,8.9-5.6,8.9-7.9c0-0.1,0.5-1,1.2-1.9
		C104.8,220.5,104.3,219.6,102.3,222 M195.6,221.5c-3.2,0.4-4.4,0.9-6,2.4c-1.8,1.7-1.6,1.2-2.8,7.5c-0.3,1.6-0.3,6.7,0,7.2
		c0.3,0.5,0.5-0.2,0.7-3.1c0.1-2.3,0.3-3.4,0.7-4.4c0.1-0.4,0.5-1.5,0.8-2.6c0.3-1.1,0.7-2.1,0.9-2.3c0.2-0.2,0.7-0.8,1.1-1.4
		c0.9-1.2,2.4-1.9,6.2-2.9C198.9,221.6,197.9,221.2,195.6,221.5 M183.6,224.6c-1.4,1.5-2.6,2.9-2.7,3c-0.1,0.1-1.3,1.1-2.6,2.3
		c-6.7,5.6-8.6,7.5-8.6,8.9c0,1.3,1,4.2,2.9,8.4c0.8,1.7,1.5,3.5,1.7,4.1c0.2,0.6,0.4,1,0.5,1c0.1,0,0.2-0.2,0.1-0.5
		c-0.5-1.9-1.2-6.6-1.3-9.4l-0.2-3.3l1-1.3c0.6-0.7,1.5-2.1,2.1-2.9c0.6-0.9,1.7-2.2,2.4-3c0.7-0.8,2.2-2.4,3.3-3.6
		c1.1-1.2,2.1-2.3,2.2-2.4c0.4-0.3,2.4-3.3,2.4-3.6C186.8,221.3,186,222,183.6,224.6 M78.9,223c-2.3,0.4-3.1,0.9-3.4,1.9
		c-0.2,1-0.1,1,2.8,1.2c1.1,0,2.5,1.6,2.9,3.2c0.4,1.5,0.8,1.7,1.3,0.7c0.5-1.1,0.2-2.6-0.9-4.3c-0.8-1.2-0.9-1.1,1.9-1.5
		c2.9-0.4,3.5-0.6,2.4-1C84.7,222.7,81.1,222.6,78.9,223 M74.9,227.4c-0.6,0.5-1.9,1.3-3,1.8c-1.1,0.5-2.6,1.3-3.3,1.8
		c-0.7,0.5-1.4,0.9-1.5,0.9c-0.6,0-1.7,2.5-1.6,3.4c0.1,0.9,0.1,1-1,1.7c-1.4,0.9-4.1,4.3-5,6.5c-1.4,3.3-2.8,7.3-4.1,11.5
		c-0.4,1.3-0.9,2.8-1.1,3.3c-0.2,0.5-0.7,2-1,3.3c-0.4,1.3-0.8,2.5-0.9,2.7c-0.1,0.2,0,0.4,0.2,0.4c0.2,0,0.5-0.1,0.5-0.3
		c0.6-1.5,5.6-7.2,12-13.7c4.5-4.5,6.8-7.3,6.9-8.1c0-0.5-0.1-0.5-4,3.4c-2.1,2-4.3,4.1-4.8,4.5c-1.7,1.4-3,2.6-3.9,3.7
		c-0.5,0.6-0.9,1.1-1,1c-0.1-0.1,2.1-4.3,2.6-4.8c0.2-0.3,1-1.6,3.8-7.1c1-1.8,2-3.6,2.3-3.8c0.6-0.6,0.7-1.2,0.2-1.2
		c-0.4,0-1.2,0.8-1.2,1.2c0,0.1-0.3,0.6-0.7,0.9c-0.4,0.4-1.5,1.9-2.6,3.4c-2.2,3.3-2.3,3.4-1.7,2.1c0.4-1.1,0.5-1.3,2-3.9
		c1.9-3.3,4.2-5,5.9-4.1c0.7,0.4,0.8,0.4,1,0c0.4-1.1-1.6-2.3-3.1-1.9c-0.7,0.2-0.7-0.2,0.1-0.9c1.2-1.1,2.6-1,4.4,0.4
		c1.1,0.9,1.8,1.1,2.1,0.6c0.5-0.9-1-3-2.6-3.7l-1-0.5l1.7-0.8c1-0.5,1.8-0.8,2-0.8c0.4,0,2.3-1.7,2.5-2.3c0.1-0.3,0.4-0.6,0.7-0.6
		c0.5,0,0.4-0.6-0.2-0.7C76.1,226.6,75.5,227,74.9,227.4 M86.7,232.5c-0.8,0.3-2.1,0.5-3,0.5c-2,0-2.7,0.7-1.8,1.6
		c0.9,1,3.6,0.3,5.6-1.6C88.9,231.8,88.7,231.7,86.7,232.5 M287.9,232.9c-1.7,5.9-0.5,11,2.5,11c1.9,0,6-2,6.8-3.2
		c0.3-0.6,0.5-0.6-2.4,0.8c-4.4,2.1-6.3,0.3-6.2-5.9C288.6,231.9,288.4,231.1,287.9,232.9 M79,235.5c-0.7,0.9-3,2.2-4.8,2.7
		c-1.1,0.3-1.3,1.6-0.3,1.8c1.1,0.3,6.6-4.1,6.6-5.2C80.4,234.3,79.7,234.6,79,235.5 M201,235.7c-1.1,1.7-1.6,4.3-1.7,7.4
		c0,4.2,0.3,5.2,3.8,11c3.6,5.9,4.4,8.2,4.1,12.5c-0.2,3.1-0.7,5.3-1.4,6.3c-0.3,0.4-0.8,1.2-1.1,1.8c-0.3,0.6-0.9,1.4-1.2,1.7
		c-0.7,0.7-0.9,1.3-0.4,1.3c0.4,0,3.8-4.4,4.7-5.9c1-1.9,1.6-4.3,1.3-6.1c-0.2-1.8,0.1-2.4,1.1-2.4c1.5,0,3.2,2.7,3.5,5.5
		c0.2,2.4,0.7,1.2,0.6-1.4c-0.2-3.2-0.9-4.6-3.9-7.1c-2.3-1.9-4.1-4.1-5.1-6.1c-0.3-0.6-1-1.8-1.5-2.6c-3-4.7-3.8-10.2-2.1-15
		C202.1,235,201.7,234.4,201,235.7 M304.9,237c-3,3.1-7.7,6.3-11.6,7.8c-7.3,2.8-9.6,4.5-3.2,2.5c1.8-0.6,4.3-1.4,5.6-1.8
		c4.6-1.4,8.1-4.1,9.7-7.5C306.6,235.5,306.5,235.3,304.9,237 M299.5,247.4c-0.9,1.6-5.3,5.4-6.2,5.4c-0.2,0-3,1.3-6.8,3.2
		c-3.7,1.8-5.5,3-8.7,5.5c-1.3,1.1-4.2,3.3-6.4,5.1c-2.2,1.8-4.7,3.7-5.6,4.4c-0.9,0.6-2.3,1.8-3.2,2.6c-0.9,0.8-3.1,2.5-4.9,3.9
		c-1.8,1.4-3.6,2.8-4,3.1l-0.7,0.7l0.9-0.4c0.5-0.2,1.4-0.8,2-1.3c0.6-0.5,2.3-1.7,3.7-2.7c1.4-1,3.3-2.4,4.1-3.1s2.9-2.3,4.7-3.5
		c1.8-1.3,4.6-3.3,6.3-4.6c7-5.2,8.8-6.3,17.6-10.5c3.7-1.8,6.6-4.3,7.6-6.7C300.7,246.7,300.4,246,299.5,247.4 M182.4,248.6
		c-1.8,1-2.4,2.1-2.2,4.1c0.3,3.5,2.4,8,4.7,10.4c1,1,2.1,1.6,1.4,0.8c-5.5-7-6.1-14.2-1.1-15c0.9-0.2,1.5-0.6,0.9-0.7
		C184.7,247.9,183.4,248.1,182.4,248.6 M188.3,249.9c-5.3,1.8-2.6,12.7,3.8,15.1c1.6,0.6,4,0.7,4.5,0.2c0.5-0.5,0.4,0.3-0.2,1.3
		c-0.7,1.2-1.6,1.5-4.6,1.3c-5.1-0.2-8-2.7-10.4-8.8c-1.3-3.2-1.6-0.3-0.4,3.1c1.8,4.9,6.4,8.4,11.5,8.9c5.3,0.5,9.8-6.3,6.9-10.4
		c-0.3-0.5-1.1-1.6-1.6-2.6c-0.5-1-1.4-2.4-1.8-3.2C193.8,251.1,190.7,249.1,188.3,249.9 M213.4,249.9c0.4,0.4,0.1,0.7-0.5,0.7
		c-0.5,0-0.7-0.5-0.3-0.9C212.8,249.4,213.1,249.5,213.4,249.9 M216.4,250.2c0,0.2-0.2,0.4-0.4,0.4s-0.4-0.2-0.4-0.4
		s0.2-0.4,0.4-0.4S216.4,250,216.4,250.2 M232.3,252.5c-0.2,0.5-0.7,0.6-0.7,0.1c0-0.2,0.2-0.4,0.4-0.4
		C232.3,252.2,232.4,252.3,232.3,252.5 M236.2,254c0.3,0.7-0.9,1.2-1.3,0.6c-0.3-0.5,0.1-1.1,0.6-1.1
		C235.8,253.5,236.2,253.7,236.2,254 M192,256.5c0.2,0.4-0.5,0.8-0.8,0.5c-0.3-0.3,0-0.8,0.4-0.8C191.7,256.2,191.9,256.3,192,256.5
		 M239.3,256.7c-0.1,0.6-0.6,0.5-0.7-0.1c-0.1-0.2,0.1-0.4,0.4-0.4C239.2,256.2,239.3,256.4,239.3,256.7 M236,256.8
		c0.2,0.5-0.4,1-1,0.8c-0.2-0.1-0.4-0.4-0.4-0.7C234.5,256.4,235.7,256.3,236,256.8 M189.9,258.6c0.6,0.7,0.3,1.4-0.4,1.3
		c-0.7-0.1-1.2-0.8-0.9-1.4C188.7,257.9,189.3,258,189.9,258.6 M226.7,260.4c-0.1,0.5-0.2,1.4-0.2,1.9c0,4.4-5.2,10.6-10.8,13
		c-1.9,0.8-2.5,1.4-1.5,1.4c2,0,9.5-4.7,11.1-7c1.4-2,2.5-6.2,2.2-8.5C227.3,259.4,226.9,259.1,226.7,260.4 M193.7,260.4
		c0.3,0.6,0.1,0.8-0.5,0.8c-0.6,0-0.8-0.6-0.4-1C193.2,259.8,193.4,259.9,193.7,260.4 M238.4,260.5c0,0.2-0.3,0.4-0.6,0.5
		c-0.5,0.1-0.6,0-0.6-0.5c0-0.4,0.1-0.6,0.6-0.5C238.1,260,238.4,260.2,238.4,260.5 M223.9,261c0,0.5-0.7,0.9-1.1,0.7
		c-0.4-0.2-0.3-1.1,0.1-1.3C223.4,260.2,223.9,260.5,223.9,261 M236.9,264.5c0.4,0.7,0.1,1.1-0.6,1.1c-0.6,0-0.9-0.6-0.7-1.2
		C235.9,263.8,236.6,263.8,236.9,264.5 M201.3,268.4c-5,7.6-12.1,8.3-17,1.6c-0.5-0.7-1.1-1.2-1.2-1.1c-0.5,0.3,4.4,6.3,5.8,7
		c3.2,1.7,9.4-1.2,12.3-5.8C202.7,267.5,202.9,265.9,201.3,268.4 M203.9,268.4c-1.4,4.9-5.2,8.3-11.1,9.8l-2.7,0.7l-1.5-0.7
		c-2.2-1-4.8-3.8-6.2-6.5c-1-2-1.5-2.7-1.5-1.8c0,0.2,0.5,1.2,1.1,2.3c5.9,10.9,16.3,13.1,24.6,5.1c1.5-1.5,1.7-2.4,0.2-1
		c-3.7,3.4-8.9,5-13.2,4.2l-1.1-0.2l1.3-0.2c4.8-0.8,9.4-5.5,10.5-10.8C204.7,267.5,204.3,266.8,203.9,268.4 M233.9,268.5
		c0.1,0.2,0,0.5-0.2,0.7c-0.5,0.5-1.3,0-1.1-0.6C232.8,268.1,233.6,268.1,233.9,268.5 M225.6,276.2c-3.8,1.4-10.7,1.9-15.3,1.2
		c-0.8-0.1-1.3,0.1-3.7,1.7c-3,2-3.6,2.9-1.3,1.9c4.7-1.9,4.9-1.9,9.1-2c4.3-0.1,8.8-0.9,12.1-2.3
		C228.9,275.7,228.1,275.3,225.6,276.2 M226.8,277.7c-2.6,1.1-8.8,2.4-11.3,2.2c-1.8-0.1-1.8,0.2-0.1,2.1c3.7,4,4.9,3.9,9.4-0.6
		C228.7,277.6,229.2,276.7,226.8,277.7 M267.6,282.1c-7.4,5.6-18,13.5-19.3,14.3c-1.2,0.9-1.6,1.3-1,1.3c0.1,0,0.8,0.4,1.5,0.9
		c0.7,0.5,3.8,2.2,6.8,3.7l5.6,2.9l1.5-0.2c3.5-0.4,4.1-1.8,4.1-8.9c0-3.3,0.1-5.7,0.3-6.7l0.3-1.5l0.2,2c0.2,2.5,0.8,5.3,1.9,8.5
		c1.5,4.8,1.3,7.9-0.7,9.9l-0.9,0.9l1.8,1c1.1,0.6,2.3,1.5,3.1,2.4c2.3,2.5,2.5,2.7,3.1,2.7c3.9,0,14.9-10.8,12.1-11.9
		c-0.2-0.1-0.4-0.5-0.4-0.9c0-1.2-4.4-9.1-5.1-9.1c-0.3,0-1.8,2.2-2.5,3.9c-1.3,2.9-1.8,8.9-0.9,11.2c0.5,1.4,0.1,1.6-0.6,0.3
		c-1.3-2.2-2.5-8.2-2.7-14c-0.2-4.1-1.2-8-3.6-14.1C271.5,279.1,271.7,279.1,267.6,282.1 M274.7,279.6c-0.1,0.1,0.4,0.6,1.1,1
		c4.3,2.5,4.8,4.4,3.2,10.4c-1.3,4.8-1.6,6.7-1.6,9.4c0,3.5,0.5,4.3,0.7,1.1c0.2-2.7,1.2-6.2,2.7-9.5c2.6-5.5,2.2-8.7-1.2-10.7
		C276.9,279.7,275,279.1,274.7,279.6 M257.3,294.6c0,0.5-0.2,0.7-0.6,0.7c-0.7,0.1-1.1-0.6-0.6-1.2
		C256.6,293.6,257.3,293.8,257.3,294.6 M259.8,296.5c-0.1,0.8-1.3,1-1.3,0.3c0-0.6,0.2-0.9,0.9-0.9
		C259.8,295.9,259.9,296.1,259.8,296.5 M254.6,297.2c0.2,0.5-0.3,1.2-0.8,1.2c-0.5,0-1-0.7-0.8-1.2
		C253.2,296.6,254.4,296.6,254.6,297.2 M267.9,300c0,6.8-4.1,9.5-8.8,5.7c-1.6-1.2-1.6-1.1-0.3,1c1.4,2.1,1.9,2.6,3.5,2.7
		c4.5,0.4,7.5-3.9,6.7-9.5C268.5,296.9,267.9,297,267.9,300 M295.2,298.1c-0.1,0.2-0.3,1-0.6,1.9c-1.4,4.6-8.7,12.3-15.6,16.4
		c-1.3,0.8-2.9,1.6-3.6,1.8c-1.6,0.5-4.8,2.7-5.8,4c-0.7,0.9-0.7,1.2-0.9,4.7c-0.1,2.1-0.3,4-0.3,4.2c-0.1,0.2-0.3,1.7-0.4,3.3
		c-0.6,6-3.7,13.2-9.1,21.2c-0.3,0.5-1.3,1.7-2.1,2.8s-1.9,2.5-2.3,3.2c-0.5,0.7-1,1.5-1.1,1.6c-0.1,0.1-0.8,0.9-1.4,1.8
		c-0.7,0.8-2.4,2.9-3.8,4.7c-1.4,1.8-2.6,3.3-2.6,3.5c0,0.6,0.6,0.2,2.3-1.8c1-1.1,2.5-2.8,3.3-3.7c4.4-4.9,5.6-6.3,8.8-10.3
		c1.9-2.4,3.8-5,4.3-5.7c0.4-0.7,1.4-2.4,2.2-3.6c2-3.3,4.5-10.8,5.8-17.2c0.9-4.7,2.1-7.4,3.8-9.2c1.2-1.2,3.8-3.2,4.9-3.7
		c1.9-0.8,9.3-8.5,13.1-13.4c2-2.7,2.1-2.6,0.9,1.9c-0.6,2.1-0.6,3-0.3,3c0.3,0,1-1.7,1.5-3.5l0.4-1.5l0,1.2c0,3.2-2.2,6.8-5,8.1
		c-1.4,0.6-4,3.2-5.4,5.3c-1.4,2.1-1.1,2.2,0.8,0.2c0.8-0.9,3-2.7,4.8-3.9c5.6-3.9,6.9-6.1,6.9-11.2
		C298.4,301,295.9,296,295.2,298.1 M263.5,299.4c0.2,0.4-0.5,0.8-0.8,0.5c-0.3-0.3,0-0.8,0.4-0.8
		C263.2,299.1,263.4,299.3,263.5,299.4 M259.4,300.6c0.3,0.3-0.4,0.9-0.8,0.7c-0.6-0.2-0.5-0.9,0.1-0.9
		C259,300.5,259.3,300.5,259.4,300.6 M273.3,303.6c0.2,0.5,0,0.9-0.5,0.9c-0.5,0-0.8-0.5-0.6-0.9C272.4,303,273.1,303,273.3,303.6
		 M307.3,304.8c0,1.4-2.5,8.2-5,13.3c-1.8,3.6-2.5,6.1-2.4,7.8c0.1,1.6,0.6,1.5,1-0.2c0.3-1.5,1.7-5,4-9.8c1.9-4,1.8-2.3-0.4,4.6
		c-0.4,1.2-0.2,1.8,0.4,1.4c0.4-0.2,1.3-2.9,2.2-6l0.8-2.8l0,4.3c0,8.8-3.1,19.3-5.7,19.3c-1.8,0-4.4-2.9-4.4-5.1
		c0-0.5-0.1-1.1-0.3-1.3c-0.2-0.3-0.2,0.5-0.2,2.7c0.2,6.9,5.6,9.5,8.3,4c4-7.9,5.1-21,2.7-30.5
		C307.8,304.9,307.3,303.9,307.3,304.8 M272.2,308.9c0,0.1-0.2,0.3-0.4,0.4c-0.3,0.1-0.5-0.1-0.5-0.3
		C271.3,308.4,272.1,308.4,272.2,308.9 M274.9,309.8c-0.2,0.4-0.9,0.3-1.1-0.2c-0.2-0.6,0.5-1,0.9-0.5
		C274.9,309.4,275,309.7,274.9,309.8 M297.2,315c-0.8,1-1.9,2.3-2.4,2.9c-0.5,0.6-1.7,2-2.5,3.1c-1.4,1.6-4.1,5.5-6,8.4
		c-3,4.6-4.4,14.3-2.6,17.7c1.5,2.9,8.7,3.3,11.3,0.6c2.2-2.2,2.2-3.3,0-1.6c-2.5,1.9-5.5,1.8-7.1-0.2c-2.3-3-2.4-6.1-0.7-13.1
		c0.7-2.8,5.5-10.7,9.4-15.3c1.3-1.5,2.7-3.6,2.7-4C299.3,312.9,298.5,313.5,297.2,315 M289.8,320c-6.3,4.8-11.1,13.2-12.7,22.2
		c-1.2,6.9-2.3,8.6-9.4,13.8c-1.2,0.9-3.5,2.8-5.1,4.2c-3.6,3.2-5.5,4.8-9.5,8.2c-1.7,1.4-3.3,2.8-3.6,3.1c-0.3,0.3-1.5,1.2-2.7,2.1
		c-1.2,0.9-2.9,2.2-3.7,3c-2.2,1.9-6.8,5.6-8.9,7.2l-1.7,1.3l1.2-1.3c0.7-0.7,2.6-2.7,4.4-4.5c1.7-1.8,3.4-3.7,3.8-4.2
		c0.3-0.5,1-1.4,1.5-1.9c0.5-0.5,1.5-1.8,2.3-2.8c0.8-1,1.6-1.9,1.7-2c0.6-0.5,6.7-9.3,9.6-14c3.3-5.2,7-14.8,8.4-21.6
		c0.7-3.4,0.7-3.4-3.4-0.9c-1.7,1-3.3,1.9-3.7,2c-5.4,1.3-12.4,7.6-21.9,19.5c-0.7,0.8-1.3,1.6-1.5,1.8c-0.2,0.2-0.5,0.6-0.7,0.9
		c-0.2,0.3-0.7,0.9-1,1.3c-0.6,0.7-2.8,4.1-4.7,7.1c-0.5,0.9-1.9,3.4-3,5.6c-1.1,2.2-2.2,4.2-2.4,4.4c-0.2,0.2-0.9,1.7-1.7,3.2
		c-1.5,3.1-3,5.9-6,11.1c-0.6,1-0.6,1.4-0.1,1.4c0.5,0,2.4-2.7,5-7.1c1.2-2.1,2.5-4.2,2.9-4.8c0.4-0.6,1.4-2.1,2.3-3.5
		c0.9-1.3,1.8-2.7,2-3.1s0.7-1.2,1-1.8c0.9-1.8,0.9-1.3-0.1,0.8c-1,2.2-4.4,8.2-6.2,10.9c-1.6,2.4-2.1,3.6-1.7,3.4
		c0.3-0.1,0.8-0.7,3.2-3.7c0.4-0.5,0.2-0.1-0.4,0.9c-0.6,1-1.8,3-2.7,4.4c-0.8,1.4-2.8,4.4-4.4,6.7c-3.3,4.6-3.2,4.4-2.4,4.8
		c0.6,0.3,0.3,0.6,6-6.8c1.7-2.2,3.2-4.1,3.4-4.3c0.3-0.3-1.7,3-3,4.8c-4.3,6.2-4.8,7-4.5,7.3c0.6,0.6,1,0.3,3.4-2.9
		c1.3-1.8,2.5-3.2,2.6-3.2c0.1,0,0,0.3-0.3,0.6c-0.2,0.3-0.9,1.5-1.5,2.6c-0.6,1.1-1.4,2.3-1.7,2.7c-0.8,0.9-0.8,1.2-0.2,1.4
		c0.3,0.1,0.7,0.2,0.9,0.3c0.3,0.1,1-0.3,2.5-1.6c1.1-1,2.2-1.8,2.4-1.8c0.2,0,0.9-0.4,1.6-0.9c0.7-0.5,1.8-1,2.4-1.1
		c0.6-0.1,1.3-0.3,1.6-0.4c0.3-0.1-0.5,0.6-1.8,1.5c-3.7,2.8-6.4,5-6.2,5.3c0.4,0.6,1.2,0.4,2.3-0.5c4.9-3.9,12.2-9,17.2-12.1
		c9-5.4,16.5-10.5,20.7-14.1c1.4-1.2,0.6-1-3.1,0.5c-1.7,0.7-4.2,1.7-5.5,2.3c-4.4,1.8-10,4.7-13.4,6.9c-1.8,1.2-3.3,2.1-3.2,1.9
		c0.1-0.4,5.3-4.3,9.8-7.3c5.1-3.4,9.1-6.4,12.3-8.9c1.4-1.1,3.7-3,5.2-4.2c1.5-1.2,2.9-2.4,3.2-2.6c5.6-5.1,10.8-8.7,14.8-10.1
		c2.1-0.7,3-1.4,3.6-2.6c0.5-1,0.2-1.1-2.1-1l-1.9,0.1L281,349c-0.6-1.8-0.7-8.2-0.2-10.7c1.2-5.9,4.7-13,8.2-16.7
		C290.9,319.6,291.3,318.9,289.8,320 M295.7,322.9c-3.6,4.3-3.2,17.8,0.5,19c1.6,0.5,2.8-1,1.7-2.2c-2.5-3-4-10.3-2.6-12.7
		c0.3-0.4,1.2-3.1,1.5-4C296.8,322.6,296,322.5,295.7,322.9 M281.7,355.8c-0.4,0.2-1.3,0.7-2.2,1.1c-1.8,0.8-3.8,2.5-3.1,2.5
		c0.3,0,1-0.2,1.5-0.5l1.1-0.5l0,0.7c0,1.5-3.7,5.3-5.5,5.8c-0.4,0.1-1.1,0.5-1.6,0.9c-0.5,0.4-2.4,1.5-4,2.3
		c-1.7,0.9-4,2.1-5.1,2.8c-1.1,0.7-3.3,1.8-4.9,2.6c-1.6,0.8-2.9,1.6-2.9,1.8c0,0.2,0.1,0.3,0.3,0.2c9.8-3.9,19.6-8.8,22.9-11.3
		C283.2,360.6,286.2,353.2,281.7,355.8"/>
</g>
</svg>
