<svg xmlns="http://www.w3.org/2000/svg" viewBox="0 0 395 395"><path d="M247.3 12c-8.9 1.1-17.9 4.9-19.6 8.3-.7 1.5 0 14.4.9 18 .2.8.4 2 .4 2.6 0 1.3.4 2.2.9 2.2.3 0 .3-.2.3-.7-.2-1.1-.7-8.4-.6-8.5.1-.1 1.2 5.6 1.4 7.4.1 1.1.3 1.5.6 1.5.2 0 .3-.2.3-.5-.4-1.4-.4-5.5-.1-5.1.2.3.5 1 .6 1.7.1.7.2 1.8.3 2.4.2 1.5.7 1.3.8-.3.1-1.5.6-1.5 1 0 .2 1 .3 1.1.9.8.4-.1 2.6-.7 5.1-1.2 2.4-.5 5.3-1.2 6.3-1.5 1.1-.3 2.2-.5 2.5-.4 1 .2 3.5-.3 3.7-.8.3-.5 1-.6 1-.2 0 .1.4.3.9.3.9 0 .9 0 .9-1.2 0-1.8.4-1.5 1.2.7.1.3.3.4.7.3.6-.1.6-.2.4-3-.3-4.9.4-4 1 1.4.2 1.4.2 1.5.8 1.5.7 0 .8-.3.4-2.7-.4-2.2-1.2-15.1-1-15.3.5-.5 1.6 5.9 2.6 14.9.2 2.2.4 2.9.7 2.9.3 0 .4-.2.3-.7-.3-1.4-.7-5.9-1-10.1-.4-5.5-1-11.6-1.3-12.3-.7-2-7-3.2-13.3-2.4m-1.5 3.8c-.6.3-1.3.8-1.7 1.1-.3.3-.7.5-.8.4-.2-.2 1.4-1.4 2.3-1.8 1.2-.4 1.3-.2.2.3m8.9.7l-.6.3.7.6c.5.4.7.9.7 1.5 0 .9.3 1.2.7.7.1-.1.4-.4.8-.6.7-.4.2.4-.7 1.1-.3.2-.4.5-.3.9.5 1.7.5 3.7 0 4.1-.3.3-1.3 1.4-2.3 2.5-1 1.1-1.8 2-1.9 1.9-.2-.2.7-1.4 2-2.9 1.4-1.5.7-2.6-.9-1.4-.3.2-.7.4-1 .4-.3 0-.8.5-1.2 1.1-.4.6-.8 1.1-.8 1.1-.3 0 0-.7 1.1-2.3l1.2-1.8-.4-1.7c-.2-.9-.5-2-.6-2.5-.2-1.1-.7-1.1-.7.1 0 1-.7 1.7-1.7 1.7-1.4 0-.3 1.2 1.2 1.2 1.4.1 2.1.8 1.4 1.3-.7.5-3 .3-3.6-.4-1.1-1.1-.9-3.8.3-3.8s.8-1.7-.4-1.8c-1.4-.1-1.6-.6-.5-1.1 1.4-.6 2.8-.4 3.1.6.2.5.2.5.6-.1.2-.3.7-.6 1-.6s1.1-.2 1.6-.5c1.3-.3 2.2-.2 1.2.4m-8.9.3c.2.3.4 1.2.4 2.1 0 .9.1 2.1.3 2.7.6 2.3.6 2.6.1 2.5-.7-.1-1.4-2.3-1.6-4.8-.3-2.8 0-3.6.8-2.5m17.4 1.6c0 .7.1 3 .3 5.1.2 2.1.3 4.5.4 5.3.1.8.2 2.5.4 3.9s.3 3 .3 3.7c0 1 .1 1.3.4 1.3.4 0 .4-.2.3-1.4-.1-.8-.4-4.5-.7-8.2-.7-8.6-1.4-13.5-1.4-9.7m-4-.9c-.1 0-.5.4-.9.7l-.8.7.6-.7c.4-.4.8-.7.9-.7.2-.1.3-.1.2 0m-6.6 1.2c0 .6.5 1.1 1.1 1.1.9 0 .5-1.4-.4-1.6-.6 0-.7.1-.7.5m-13.6.4c0 .3.3 1 .7 1.3.4.4.7.9.7 1.1 0 .7.6 1.8 1 1.6.5-.2.5-.2-.3 1.4-.4.9-.8 1.3-.9 1.1-.2-.3-.4-.3-.9 0-.7.3-1.8-.5-1.7-1.2 0-.1-.1-.8-.3-1.5-.7-2.9-.7-3.7.3-4.1 1.1-.5 1.4-.4 1.4.3m4.7 1.1c.1.3-.2.7-.7 1.1l-.8.6-.6-.7c-.7-.8-.5-1.3.7-1.5 1.1-.1 1.3 0 1.4.5m-7.4 1.7c.2.8.5 2 .7 2.7.4 1.3.3 2.2-.1 1.9-.1-.1-.4-1-.7-2-.5-1.9-.9-3-.9-2.1 0 .3-.1.4-.4.3-.5-.2-.5-.3 0 2.2.5 2.2.4 2.6-.4 1.7-.5-.6-.5-.6-.4.5.1 1.5-.7 1.4-1.1-.1-.6-2.1-1-1.9-.9.4.1 2-.5 2.9-1 1.3-.3-1-1-6.5-.8-6.7.3-.5.8-.1 1.1 1.1l.3 1.2-.1-1.6c-.2-3 .8-3 1.1-.1.1.9.3 1.5.4 1.5s.3.3.5.6c.3.5.3.5.2-.3-.6-3.5-.4-4.4.6-3.4.2.2.4.1.7-.6.5-.9.8-.6 1.2 1.5m1.6-1.2c0 .7.1.8.3.5.3-.5.3-1.3 0-1.3-.2-.1-.3.3-.3.8m28 3.2c0 1.6.1 4 .2 5.2.1 1.2.3 3.6.4 5.2.2 2.7.4 3.9.8 3.5.1-.1 0-1.9-.3-4-.2-2.1-.6-5.9-.8-8.4L266 21l-.1 2.9M239 22.3c-.2.2-.4.3-.5.3-.1-.1-.2.1-.1.3 0 .3.1.6.1.8 0 .4.6.4 1.1 0 .3-.2.4-.6.3-1.1-.2-.8-.5-.8-.9-.3m15.1.1c-.6.7-.6.9.2.8.4-.1.6-.3.7-.7 0-.7-.3-.7-.9-.1m-8 5.5c-2 3.1-2.4 3.7-2.4 3 0-.4 2.7-4.9 3.5-5.7 1.2-1.2.8-.3-1.1 2.7m-41.9-2.5c-3.9.2-9.2.9-13.7 1.6-1.7.3-3.7.6-4.4.7-1.6.2-14 2.5-15.3 2.8-1.5.4 6 0 8.4-.4 1.2-.2 4.2-.6 6.7-.9 5-.6 10.7-1.5 12.8-1.9 6.6-1.3 9.2-1.2 11.4.3.4.3 1.3.8 2 1.2 1.4.8 3.3 2.4 6.9 5.8 2.7 2.6 2.8 2.5 2.2-.3-.3-1.2-.5-2.3-.5-2.4 0-.4 1 2 1.5 3.4.5 1.8.8 2.2 1 1.7.2-.4-.4-2.9-1.2-5-.7-2-10.8-7-13.7-6.9-.4.1-2.2.2-4.1.3m38.2.6s-.4.5-1 1l-1 .9.9-1c.9-.9 1.1-1.1 1.1-.9m-28 2.5c.4.2.8.5.8.7 0 .2-.2.1-.5-.1l-1-.7c-.8-.5-.2-.4.7.1m-13.1.1c-.8.1-2.2.4-3.1.6-2.2.6-10.3 1.9-13.6 2.3-8.8.9-10.8 1.2-14.3 1.8-2.1.4-4.9.9-6.1 1.3-1.2.3-2.9.7-3.6.8-2.9.4-4 1.5-11.7 12.6-2.2 3.1-3 4.8-2.6 5.2.4.4.7.1 1.8-1.5.5-.8 2.4-3.4 4.2-5.8 5.7-7.6 6.4-8.3 8.4-8.8.8-.2 2.3-.6 3.3-.9 2.2-.7 5.7-1.3 11.1-1.8 11.5-1.1 16-1.7 22.2-2.8 1.7-.3 3.7-.6 4.4-.6.7 0 2.5-.2 4-.4l2.7-.3 1.7 1.3c2.6 2.1 5.1 4.1 7.5 6.1 2.5 2.1 4.1 3.3 4.6 3.3.2 0-.1-.4-.7-.9s-3.3-3-6.2-5.5c-7.4-6.6-6.3-5.9-9.7-6-1.5-.2-3.5-.1-4.3 0m15.8 1.5c.5 1.2.4 1.6-.3 1-.6-.5-.7-1.7-.3-1.7.2 0 .5.3.6.7m2.4 1.6c.1.5.3 1.4.5 1.8l.2.8-.7-.8c-.4-.4-.8-1.2-.9-1.6-.1-.4-.2-1-.3-1.3-.1-.4-.1-.4.4-.2.3.2.6.8.8 1.3m-12.8 3c0 .2.3.9.6 1.6.4.7.8 2.2 1.1 3.3.4 1.9 1.7 4.5 2.3 4.5.5 0-1-4.8-2.1-7.2-.8-1.5-1.9-2.8-1.9-2.2m-8.3.5c0 .1.2.7.5 1.3.3.6.6 1.9.7 2.9.2 1.7.2 1.7.9 1.7.9 0 .8 0 .5-1.6-.5-2.4-2.6-5.8-2.6-4.3m12.6.2c0 .2.2.5.4.7.8.6 2 3.1 2.9 5.9.9 2.7 1.2 3.2 1.9 2.7.5-.3 0-1.8-1.4-4.8-1.5-3.1-3.8-5.9-3.8-4.5m-8.8.1c0 .1.2.6.5 1.1.3.5.8 1.8 1.1 2.9.5 2 1.8 3.9 2.1 3 .1-.4-1.2-4.2-2-5.8-.7-1.1-1.7-1.9-1.7-1.2m-8.8.3c0 .2.2.7.5 1.1.2.5.6 1.8.7 2.9.3 1.9.3 2 .9 2 .9 0 .8-1.3 0-3.4-1-2.2-2.1-3.6-2.1-2.6m-6.2.7c-.1.1.1.7.5 1.4s.8 2 .9 2.9c.3 1.5.3 1.6 1 1.6.9 0 .7-1.1-.6-3.9-1.1-1.9-1.5-2.4-1.8-2m-65.3.8c-7.8 1.1-16.7 5.3-19 9l-.8 1.4.3 4.1c.8 10.2 1 11.9 1.8 12l.6.1-.2-4.9c-.2-4.4-.1-4.8.2-4.5.7.6 1.1-.3 1.2-2.6 0-3.7 2.4-7.4 5-7.7l1.2-.1-.9.6c-1.4 1-2.4 2.4-2.7 3.8-.4 2.1-.1 2.1 1.9-.2 4.1-4.7 7.1-7.5 7.1-6.6 0 .3-2 2.6-5.6 6.5-2.5 2.7-2.7 3-2.1 3.1.5.1.8-.1 1.3-.8.4-.5 1.6-1.9 2.8-3.2 1.1-1.3 3-3.4 4.1-4.8 2.7-3.3 3.9-3.6 4.3-.9.2 1.2.3 1.3.8.8.6-.6.4.3-.2 1-.3.4-.7 1.3-.9 2-.2.7-.7 1.7-1.1 2.1s-.6.9-.5 1.1c.3.5 3.5-3.3 3.6-4.2.1-.7.2-.8.8-.9 1.3-.2.9.9-1.3 3.3-1.9 2-2 2.3-1.6 2.7 1.4 1.4 0 3.6-2.9 4.5-1.8.5-2.1.7-3.1 2-1.2 1.6-1.7 1.7-.8.2.3-.5.5-1 .5-1.1-.3-.3-2.8.6-3.6 1.4-1.1 1-2.4 1.5-2.4.8 0-.4 1.5-1.9 2.4-2.5.2-.1.6-.6 1-1l.6-.8-.8-.3c-.4-.2-.9-.6-1-1-.2-.5-.3-.6-.4-.1-.1.3 0 .7.3 1 .7.8-.7 2.1-2.2 2.1-.3 0-1 .5-1.5 1.2l-1 1.2.4 1.6c.2.9.4 2.2.5 2.8.1.6.3 1.2.5 1.3.3.1.3-.2.2-1.4-.2-1.9.1-3.2.6-2.3.2.3.4 1.2.5 1.9.2 1.5.9 2 .8.5-.1-1.1.8-1.4 1-.4.2.8 0 .9 3.6-.2 1.7-.5 4.5-1.2 6.3-1.7l3.3-.9-.1-1c-.1-2 .8-2.2 1.1-.2.3 1.5.7 1 .7-.9.1-3.6 1-3.2 1 .5 0 .8.3.9 1.2.6.4-.1.4-.6.3-4.1-.2-4.5-.1-4.7.5-.8.2 1.5.5 3.2.6 3.7.1.8.5 1.1 1.1.7.2-.1.2-1.2.1-3.1-.1-1.6-.3-5.2-.5-8-.5-8.6-.5-8.9-1.3-8.9-.6 0-.6.1-.6 2.1 0 3.3-.7 3.3-1-.1-.3-3.1-.7-2.4-.8 1.2 0 2.5-.1 3.1-.5 3.3-.7.4-.7.2-.9-3.3-.2-3.6.3-3.3-3.8-2.7m9.1.5c.1.2.2 2.4.3 4.9.1 2.5.3 5.8.5 7.3s.4 3.7.5 4.7c.2 1.9.3 2.1.8 1.7.3-.2.1-6.5-.4-11.3-.1-1.2-.3-3.5-.4-5-.2-2.7-.2-2.7-.8-2.7-.4 0-.5.1-.5.4m51.3.5c.1.3.4 1.5.7 2.7.5 2 1.3 2.8 1.7 1.7.2-.5-.6-3-1.2-4.1-.6-1.1-1.5-1.3-1.2-.3m-48.6 3.3c.3 6.5 1 14.2 1.4 14.2.6 0 .2-8.6-.9-16.7-.3-2.7-.6-1.1-.5 2.5m43.4-2.7c0 .1.3 1 .7 2 .4 1 .7 2.1.7 2.4 0 .4.2.5.7.5.8 0 .9-.8.3-2.3-.8-1.6-2.4-3.4-2.4-2.6m-5 .6l.7 1.9c.3.8.6 1.8.7 2.2.2 1 1.5 1.1 1.5.1 0-.8-.9-2.7-1.8-3.9-.7-.9-1.3-1.1-1.1-.3m-5.4.4c0 .1.4.8.8 1.6s.9 2 1 2.5c.2 1.3 1.6 1.5 1.5.2-.3-1.7-3.3-5.8-3.3-4.3m92.9.5c-6.2.5-25.8 3.8-34 5.7-3.2.8-3.2.8-3.2.2 0-.6-1-.5-1.5.3-.4.5-1.2.9-4.4 1.7-5.6 1.5-6.2 1.4-8.3-1.2-1.3-1.5-1.8-1.6-.7-.1.9 1.2 1.2 2.4.4 1.8-.2-.2-.6-.7-.8-1-2.1-4-4.8-5.5-8.8-4.6-.6.1-3.2.4-5.7.7-7 .6-14.8 1.7-20.1 2.7-2.6.5-6.8 1.2-9.2 1.5-5.9.7-8.1 1.5-9.9 3.3-3.2 3.3-6.2 4.7-12.6 6-3.1.6-7.8 1.5-10.5 2-2.6.5-6.6 1.4-8.8 2-2.2.6-5.1 1.3-6.4 1.6-4.1 1-15.6 4.9-17 5.8-.8.5-1.5 1.3-2 2.3l-.8 1.5v6.8c0 11.3 1.1 13.7 6.4 14.3l1.3.1-1.2-.6c-3-1.6-3.2-4.7-.5-7 2.4-1.9 8.5-4 14.3-4.8 1.5-.2 3.3-.6 4-.8 6.3-1.9 26.8-6.3 29.8-6.3.3 0 1.2-.2 1.9-.4s2-.5 2.8-.7c2.1-.4 2.7-1.1 5-5.3 5-9 6.4-11 8.1-11 .5 0 1.8-.3 2.9-.7 1.1-.4 3.4-.8 5.1-1.1 1.8-.2 3.4-.5 3.7-.6.2-.1 1.1-.3 1.9-.4.8-.1 1.6-.3 1.7-.5.7-.8-7.3.2-14.8 1.8-2.9.6-4.3 1.9-6.9 6.7-.7 1.3-1.5 2.7-1.8 3.1-.3.4-1.1 1.8-1.8 3.1-1.5 2.8-1.7 3.1-2.6 3.3-.7.2-.7.2-.2-.5.3-.4.4-.9.3-1.2-.1-.3.1-2.5.4-5 1.1-8.7 1.2-9 6-10.3 2.4-.7 3.9-.9 9.5-1.6 1.7-.2 4-.5 5.2-.7 4.7-.6 10.5-.9 11.7-.6.6.2 2 .4 3 .4 2 .2 2.7.5 4.3 2.3.6.7 1.6 1.7 2.1 2.4 3.9 4.4 8.9 8.9 11 10l.9.5 8.4-1.7c4.6-.9 10.8-2.3 13.6-3 6.5-1.6 11.3-2.6 12-2.4.3.1 1.8-.1 3.3-.4 4.9-1 16.3-2.1 18.4-1.7l1.1.2v-1.6c0-1.8.2-3.3.5-3.3s.8 2.2.8 3.6c0 1 .1 1.2.5 1.2.5 0 .5-.1.4-4.9-.2-5.7.1-6 .8-.7.8 6.4.7 5.9 1.4 5.9.8 0 .8-.3.2-4.5-.2-1.7-.5-5.3-.7-8-.3-5.9.4-5.3-6.4-5.7-.4-.1-2 0-3.5.1m-98 .4c0 .1.1.3.3.5.2.2.6 1.3 1 2.5.6 1.9.8 2.2 1.3 2.3 1.1.2 1.1-.3.3-2-1.1-2.2-2.9-4.2-2.9-3.3m109.2.9c.1.3.3 2.8.4 5.5.5 8.5 1 11.5 2 11.8l.8.2-.2-1.7c-.1-.9-.4-3.8-.6-6.5-.5-6.5-.9-9.6-1.3-9.8-.6-.3-1.2-.1-1.1.5m2.4.4c.4 1.4.9 6 1.2 9.7.5 6.5.8 8 1.5 8 .4 0 .5-.3.1-2.7-.1-1-.4-3.4-.5-5.3-.4-5.2-1-10-1.4-10.2-.7-.4-1.1-.2-.9.5m-137.3 3.8c.1 2.4.2 5.1.4 6 .1.9.3 2 .3 2.5s.2 1 .4 1c.6.2.1-6.8-.9-12.1-.3-1.7-.3-1.6-.2 2.6M263 43.5c-2 2.2-7.5 7.5-7.7 7.5-.1 0-.4.4-.7 1-.6 1.5-1.6 2.4-3.6 3.2-1.9.7-2.6.7-1.6-.1.5-.4 1.5-2.4 1.3-2.6-.1-.1-.9.7-1.9 1.6-2.1 1.9-4.6 2.2-4.6.5 0-.3-.2-.2-.8.3-1.1 1-.9 1.6.4 1.7 1.6.2 1.6.9 0 1.4-1.8.6-4.3.6-5.6-.1-1.8-.9-2.2-.8-4.6 1.7-1.2 1.2-2.2 2-2.2 1.8 0-.3 3.5-4.2 4.2-4.7.2-.1.3-.6.3-1.1-.1-.8 0-.9 1-1.2 2.2-.7 3.4-3 1.4-2.6-.4.1-.9 0-.9-.1-.1-.1-.3-.2-.5-.1s-.2 0-.2-.2c.1-.2.4-1 .6-1.8.6-1.6 1.1-1.8 3.5-1.4.9.1 1.6.3 1.6.3.3 0 .9 1 .9 1.6 0 1.5-.7 2.5-2.5 3.6-.9.6-1.7 1.1-1.7 1.2 0 .1-.2.2-.4.2-.4 0-2.4 1.6-2.2 1.8.2.2 2.6-.5 4.1-1.2 3.8-1.9 5.9-4.7 4.6-6.3-.6-.8-1-1.6-.8-1.7.4-.3 2.2.3 3.1 1 1.3 1 2.1.9.9-.1-1.5-1.2 1.6-1.4 4.1-.3 1 .4 1.2.5 1.7.1.7-.4.8 0 .2.5-.3.3-.3.4 0 1.1l.4.8 4.3-4.2c4-4.1 6.5-6 3.9-3.1m-143.3.3c-.3.4-.5 1.2-.6 1.7l-.2 1 .7-.7c.6-.6.7-.9.6-1.7l-.1-1-.4.7m157 1c.1.7.4 3.4.7 5.9.3 2.6.7 5.6.8 6.8.3 2.8.5 3.8 1 4.2 1 .8-.3 2.6-1.8 2.6-.8 0-2.9 1-2.9 1.3 0 .3 2.3.1 3.5-.3 1.7-.7 2.4-1.5 2.4-3 0-2.8-1.9-16.5-2.4-17.7-.8-1.5-1.5-1.5-1.3.2m-74-.4a60 60 0 0 1 2.4 2.9c1.1 1.5 2.2 2.9 2.5 3.3.9 1.2.3 1.3-.8.2-1-1-5-5.9-5.5-6.6-.2-.4.8-.2 1.4.2m-45-.1c.1.1.3.7.6 1.3.4 1 1.7 1.7 1.7 1 0-.3-.6-1.3-1.1-1.9-.5-.6-1.5-.9-1.2-.4m44.4 2.8c.7 1 2.3 3 3.5 4.4 1.9 2.3 2.6 3.3 2 3.3-.1 0-.4-.3-.7-.7-.3-.4-1.5-1.8-2.7-3.1-2.6-2.9-4.5-5.6-4.2-6 .1-.5.4-.2 2.1 2.1m-86.2-.8c-.9 1-1.2 1.4-.9 1.5.6.2.8.6.8 1.4 0 .9.4.9 1 .1.3-.5.8-4.4.5-4.4-.1 0-.7.6-1.4 1.4m9.7 1.2c-.2 1.6-.6 2.3-1.2 1.8-.8-.7-.3-3.2.7-3.2.5.1.6.2.5 1.4m12.7 2c.2 3.8.4 5.8.6 5.6.1-.1 0-1.8-.2-3.7-.4-4.6-.5-5.1-.4-1.9M204 53c2 2.3 3.4 4.3 3.2 4.5-.1.1-.5-.4-1-1-1.1-1.3-3.1-3.6-5.6-6.2-2.3-2.4-2.5-2.7-2.3-3.1.2-.3 2.2 1.6 5.7 5.8m31.3-4.2c.8.3 0 2.9-2 7.1-1 2-4 5.2-5.5 5.7-1.2.4-1.3 0-.1-.9 1.3-1 1.5-1.3 3.2-4.5l1.4-2.7-3.1 3c-3 3-3.7 3.4-3.9 2.2-.1-.5 0-.6.7-.6.4 0 .9-.2 1.1-.4.4-.5-.3-.7-2.3-.7-.9 0-1.7-.2-2.4-.6l-1-.6 2.9-.7c4.7-1.2 6.1-1.3 5.1-.3-.2.2-.3.4-.2.5.4.4 4.2-4 4.3-5.2.1-.8.3-1.3.6-1.4.2-.1.5-.1.5-.2.3.1.5.2.7.3m-121.7 1.1c-.3.6-.4 1.4-.1 1.4.4 0 .9-.6.9-1.1 0-.7-.4-.9-.8-.3m117.6-.1c.3.5-.1 1.9-.6 2.4-.2.2-1.9.6-3.8 1-5.1 1.1-3.8.2-13.9 9.6-1.1 1-1.9 1.6-1.7 1.3.3-.6 5.1-5.3 8.2-8.1 1-.9 1.6-1.6 1.3-1.5-3.3 1.2-3.8 1-2.3-1.1.9-1.2 1.2-1.4 2.6-1.7l5.4-1.3c4.6-1.1 4.5-1.1 4.8-.6m18 .2c-.3.4-.6 3.1-.3 3.1.4 0 1.6-1.5 1.6-2-.1-1-.9-1.7-1.3-1.1m-131.2.8c-.5.4-1.1.8-1.5.8-.5 0-2.8 2.3-2.6 2.5.3.3 3.9-1.6 4.5-2.3 1.4-1.7 1.1-2.4-.4-1m81.9 1c2 1.9 7.1 8.1 7.1 8.6 0 .3-9.7-9.6-9.8-10-.2-.9 1-.2 2.7 1.4m-80.4-.2l-.6.8.8-.4c.5-.2.8-.6.8-.8.1-.7-.3-.5-1 .4m78.8 2.3c6.7 6.9 8.9 9.4 8.9 9.9 0 .6-4.9-3.8-6.7-6-.5-.6-1.8-2.1-3-3.3-1.9-2-2.3-2.7-1.5-2.7.2 0 1.2.9 2.3 2.1m-43.5 3.2c-.2 2.1-.4 5.7-.5 7.9-.2 3.9-.4 4.7-1 4.1-.1-.1-.4-2.5-.7-5.3l-.4-5 1.4-2.9c.8-1.6 1.4-2.9 1.5-2.8s-.1 1.9-.3 4m-48.8-2l-.8.9.5 3.7c.5 3.8.6 4.1.9 3.8.3-.3-.2-5.5-.5-5.4-.3.2.2-.8 1.1-2.2 1.2-1.7.3-2.4-1.2-.8m72 5c-7.9 1.4-7.1.9-11.1 5.9-8.6 10.5-8.4 10-4.8 12.4 2.2 1.5 2.4 1.9 1.9 4.4-.5 2.3-.4 2.7.2 1.2 1.6-3.7 1.4-5.6-.7-6.5-1.2-.6-1.1-.6 3.9-1.4 9.7-1.6 14.7-1.6 17.1-.2 1 .6 2 1.2 2.2 1.3.6.3.7 3.2.2 4.8-.6 1.7-.5 1.8.1.5 1.7-3.3 1.8-5 .3-6.3-1.3-1.1-1.3-1.1 2.5-1.1 4.1 0 4.1-.1-.3-.8-4.9-.8-5-1.3-.3-1.3 2.2 0 1.9-.5-.4-.6-3.1 0-4.9-.3-4.9-.8 0-.2.2-.4.5-.5.3 0 1.6-.1 2.9-.2 3.2-.2 2.9-.7-.5-.7-1.5 0-2.8-.1-2.8-.2 0-.5.5-.9 1.7-1.1 2.8-.6 2.7-1-.1-1-.6 0-1.1-.1-1.1-.2 0-.5.8-1.1 1.6-1.2 1.2-.1 1.1-.6-.1-.7-.7-.1-.9-.2-.8-.5.1-.2.2-.5.2-.5 0-.1.3-.1.7-.1.4 0 .7-.2.7-.4s-.2-.4-.4-.4c-.5 0-.5-.7.1-2.5.3-.8.5-1.6.4-1.8-.4-.5-4.6-.3-8.9.5m2.7.5c.1.1-.3.5-.9.9-.6.3-2.4 1.8-4.2 3.2-3.6 2.8-4.8 3.7-5.1 3.7-.8 0 9.1-8 9.9-8 .1-.1.2 0 .3.2m73.1 3.9c-.3.1-2.3.5-4.4 1-6.3 1.5-13.4 4.1-13.7 5.1-.3.7 0 .6 2.3-.2 2.5-.9 12.1-3.5 15-4.1 1.4-.3 2.4-.3 4.6-.1 4.3.4 6.8 0 5.8-.8-.7-.6-8.2-1.2-9.6-.9m18.1.5c-.1.1-.2.5-.2.8 0 .5-.3.8-1.7 1.5-.9.5-1.9 1-2.1 1.2-.2.2-1.2.5-2.2.8-3 .7-4.5 1.7-2 1.3 3.7-.6 8.6-2.6 8.9-3.7.4-1.2-.1-2.4-.7-1.9m-147.8 2.5c-2.4 2.2-2.5 2.4-2.2 3.1 1 2.6.2 4.4-1.9 4.5-1.6.1-1.7-.7-.2-1.3 1.4-.6 1.4-.9-.2-.9-1.5 0-2.3.7-2.3 1.8 0 .6-.2.8-1.3 1.1-.9.3-1.8.9-2.9 2-.9.9-1.5 1.4-1.4 1.1.2-.3.8-1.1 1.5-1.7 1.1-1 1.2-1.2.9-1.8-.3-.7-.9-.7-.8 0 .1.4-.6.8-2.3 1.3-.7.2-1.4-.4-1.4-1.4 0-.6-.1-.6-.3-.3-.1.2-.3.8-.3 1.3 0 1-.7 1.5-1.2.8-.2-.4-.7 0-3.2 2.4-3.6 3.5-3.2 2.6.4-1.1l2.6-2.7.2-1.8c.2-2.3 1.4-2.7 1.4-.5v.6l.7-.6c.6-.6.6-.7.2-.8-.5-.2 1-1.3 1.8-1.3.2 0 .9-.5 1.6-1 1.9-1.6 2.2-1.6.7 0-1.2 1.3-1.4 1.5-1.2 2.4.1.9.1 1-.8 1.6-1.2.7-1.1.8.1.5.7-.1 1.1-.4 1.5-1.2.3-.5.9-1.1 1.3-1.3 1.5-.6 1.6-1.1.1-.9-1 .2-1.3.1-1.3-.2 0-.4 1.8-.9 2.8-.8.3 0 .8 0 1.1-.2l2.3-.7c1.4-.3 2-.6 3.1-1.7 1.6-1.5 3.1-2.7 3.3-2.7 0 .1-1.1 1.1-2.4 2.4m12.9-1.4c.4.5.5 6.1.1 6.3-.6.4-.9-.3-1.1-2.3 0-.1-.6-.2-1.3-.2-1.6 0-1.9-.3-1.9-1.7 0-1 0-1-.5-.6-.6.5-.7 2.1-.3 2.4.3.2.4 2.7 0 2.9-.9.5-3.4.5-4-.1l-.6-.6-.8.8c-.8.7-.8.7.1-.2l.9-1-.4-1.5c-.4-1.5-.4-1.6.1-2.2 1-1.4 3.7-1.9 4.3-.8.3.5.3.5 1.4-.6 1.2-1.3 3.3-1.6 4-.6m46-.5c0 .2-.3.4-4.9 3.4-1.7 1.1-3.3 2-3.4 2-.6 0 .8-1.1 3.4-2.8 4.8-3 4.9-3.1 4.9-2.6m-48.5 1.6c-.4.1-.5 1-.1 1.3.5.3 1.4-.2 1.4-.8 0-.7-.5-.8-1.3-.5m67 1.8c-.2 1.6-.2 9.9 0 11.8.2 1.5 1 2.6 3.8 4.8 2.6 2.1 1.5 5.8-4.4 14.4l-1.4 2-.1 7.9c0 4.3 0 8.5.2 9.2l.4 2.7c.2 1.3.5 2 2.5 5.1.2.3.9.3 4.1-.3 4.4-.7 4.1-.6 3.8-1.4-.3-.6-.3-.6-2.5-.3-6.3.9-6.7.5-.9-.8 2.1-.5 3.5-1.2 1.7-.8-.5.1-2.3.2-3.9.3-3.8.2-3.5-.2.7-1 3.3-.6 3.5-.8 2.6-1.9-.5-.7-1.3-9.3-1.4-17.1l-.1-3.1-1.4 2c-1.5 2.1-2.2 2.8-2.2 2.4 0-.1.9-1.4 1.9-2.8l1.9-2.5-.2-3.7c-.1-3.1-.1-4 .4-5.9.3-1.2.6-3.9.8-6.1.3-5.1 2.3-8.9 6.2-12 1.5-1.2 1.4-1.2-1.5-.6-1.2.2-3 .4-4 .4h-1.9l-2.2-2c-2.3-2.3-2.6-2.3-2.9-.7m-72.6-.4c-.3.3-.5.6-.4.6.3.3 1.7-.4 1.7-.8 0-.5-.6-.4-1.3.2m-11.2 2c-.2.3-.3.7-.1 1.2l.2.8 1.1-.9c1-.9 1-.9.3-.8-.5.1-.8 0-1-.3-.2-.4-.3-.4-.5 0m8.9.4c.1.6-2.2 1.4-2.9 1-.7-.4-.2-.9.9-1.3 1.2-.3 1.9-.2 2 .3m2.6-.2c-.9.5-.8 1.1.2.9.5-.1.9-.2 1.1-.2.1 0 .2-.2.2-.5 0-.6-.6-.7-1.5-.2m118 .6c-.1.1-.7.3-1.4.4-2.6.5-3.6 1.1-3.6 2.3 0 1.4.5 2.1 1.3 1.7.3-.2 1.2-.5 2-.7 2.2-.6 2.8-.9 2.8-1.4 0-.5.8-1.1 1.4-1.1.6 0 .9-.5.5-1-.4-.3-2.7-.5-3-.2m10.7.1c-.6.3-.1.7 1.5 1.1 1.8.4 2.4 1 1.4 1.3l-.6.2.6.4c.9.5.7.7-.6.8-2 .2-2.4 1.3-.4 1.3.6 0 1.3.1 1.7.3 1 .4 1.3 0 .9-1.2-.2-.6-.3-1.6-.3-2.3 0-1-.2-1.3-.7-1.5-.9-.4-3.1-.6-3.5-.4M116 73.4c-.4.1-.7.4-.7.6 0 .6.4.5 1.3-.3.7-.6.5-.7-.6-.3m109.9.7c-3.5.5-4.5 1.4-8.2 7.6l-.6 1 .3 9c.2 4.9.4 10 .6 11.1.2 1.2.3 2.3.2 2.4-.1.4.5 1.8.8 1.6.1-.1.7-.9 1.2-1.8s2.1-3.3 3.6-5.4c1.5-2.1 3.1-4.5 3.5-5.3l.9-1.6V74.1h-.8c-.5-.1-1.1-.1-1.5 0m81.8.1c-.1.2-2.1.3-5.3.4-7.2.2-9 1.1-9.9 5.1-.2.9-.1.8 1.4-1.3 2.2-3 2.2-1.7 0 1.8-1.8 2.9-1.8 2.7-1.1 2.9.4.1.9-.5 2.7-3.2 1.2-1.8 2.3-3.3 2.4-3.3.6 0 .2 1.1-1.1 3.2-1.6 2.6-1.5 2.4-.6 2.2.5-.1 1-.6 1.7-1.7 1.3-2 1.9-2.9 2.2-2.9.5 0 .2.9-.8 2.7-1.2 2.1-1.2 2.2-.7 2.6.3.2.6 0 1.5-1 1.8-2.1 2.4-1.6.7.5-1.1 1.4-1.1 1.5-.4 2.4l.5.7.7-.9c1.3-1.7 2-.5.8 1.3-1.3 2-.5 3.3 1.1 1.7 2-2 2.2-1 .3 1.5-.7.9-.8 1.1-.6 2.4l.2 1.4.7-1.1c1.6-2.4 2-1.1.5 1.4-.9 1.5-1 1.8-.9 2.8l.2 1.2 1-1.5c2-3 2.4-1.8.4 1.4-2.6 4.2-1.6 4.7 1.1.5.1-.1.4-.2.6-.1.5.2 0 1.3-1.9 4.2-.8 1.3-1.2 2-1.1 2.5.1.7.1.7 1.1-.8s2-2.1 1.6-.9c-.3.8-.8 1.9-1.9 3.7-1.2 1.9-1 2.7.2.9 3.4-4.9 3.5-3 .2 2.1-.9 1.4-1.5 2.6-1.5 2.9.1.4.3.2 1.4-1.3 1.4-2 2-2.6 2.3-2.3.3.3-1.7 3.8-3.1 5.7a6 6 0 0 0-1.1 2.1c0 .9.3.6 2.1-2 2.3-3.2 2.9-3 1.2.4-.6 1.2-1.3 2.2-1.9 2.6-.5.4-1.6 1.2-2.3 1.9-.7.6-1.5 1.1-1.7 1.1-.5 0-3.3 3.2-4.5 5.3-.8 1.2-1.4 1.8-2.4 2.4-1.8 1-1.8 1.1-2.4 3.2-.7 3-.6 3.8.4 3.6 2.9-.5 2.7-.3 4.6-4 2-3.9 2.3-4.3 5.4-7.9 5.3-6.1 6.4-8.2 7.9-15 1.1-4.8.6-12.6-.8-14.3-.2-.2-.6-1.3-.8-2.4-.7-3-2.1-7.1-3-8.5-1-1.7-3.5-5.2-4-5.6-.8-.7-.4-.8.6-.1 1.2.8 3.2 3.3 4.2 5.1 2.3 4.4 5.8 14.7 5.8 16.9 0 .7.1 1.9.3 2.8.2 1.2.2 2.3-.2 5.7-.3 2.3-.4 4.2-.3 4.3.1.1 5.6-.6 6.5-.9.2-.1.4-.4.5-.8.2-.9-.2-1.2-2-1.2-1.6 0-1.5-.2 1.1-.9 1.2-.3 1.6-.6 1.8-1.1.4-1.1.3-1.2-1.5-1.2-1 0-1.7-.1-1.7-.2 0-.2 2.2-.8 3.1-.8.5 0 .7-.6.5-1.3-.1-.5-.4-.6-1.3-.6-1.5 0-1.5-.4 0-.9 1.5-.4 1.9-2.2.5-2.4-.9-.1-1-.8-.1-1 1.8-.3-1.4-13.9-4.3-18.5l-.9-1.4-3.5-.2c-4.7-.2-5.5-.8-1.6-1.1 5-.5 4.8-.7-.4-.8-5.6-.1-5.8-.6-.5-1.2 2.6-.3 3.6-.5 2-.5-.5 0-.9-.1-1-.3-.1-.4-.8-.4-.9-.1m-60.9 1.9c-3.1.7-5.1 2.3-4.2 3.2.4.4.5.4.9.1 1.6-1.1 5.1-2.2 7.5-2.2 1.2 0 2.1-.4 1.8-.7-.6-.6-4.3-.8-6-.4m-73.2 2.4c-5.8.4-6 .6-4.1 3.4 3.1 4.6 8.8 4.4 11.7-.4.4-.7.3-.7-.7.3-1.5 1.4-3.2 2.2-4.8 2.2h-1.3l1.2-1.1c1.8-1.7 2.8-4.8 1.5-4.7-.2.1-1.8.2-3.5.3m90 1.2c-.1.1-2.7.4-5.6.8-2.9.4-5.4.7-5.5.8-.1.1-1.6.2-3.5.4-2.2.2-3.6.5-4.3.8l-1 .5 1.5 2.2c.8 1.2 1.7 2.4 2 2.5.7.5 1.2 1.4.8 1.6-.2.1 0 .9.5 2.5.8 2.3 2.1 8.3 2.2 9.5 0 .3.2 1.1.4 1.7.2.6.5 2.7.6 4.8.1 2.1.4 5.5.6 7.6.4 3.8.4 13.4.1 15.2-.2.9-.1.9.3-.2 1.1-2.3 1.7-7.1 2.2-15.6.3-5.1.5-6.9.8-6.9.1 0 .2-.5.2-1.1 0-1.3.4-1.7.7-.6.1.4.4 1.9.8 3.3.3 1.4.9 4.2 1.3 6.3.4 2.1 1.1 5.2 1.5 6.9.5 1.7.9 3.4 1 3.7.2.7-1.6 2.5-3.1 3.2-2.1 1-1.1 2.2 1.1 1.3 1.4-.6 9.3-3.2 14.2-4.7l2.7-.8-.1-2.3c-.1-1.6-.6-4.3-1.7-8.7-1.5-6-1.9-8.4-1.3-8 1 .6 1.1-3.9.1-8.1-.7-2.8-2.4-8.5-2.7-9.1-.1-.2-.9-2.1-1.7-4.1-1.9-4.5-3.3-6.1-5.1-5.4m-82.4 2.9c-2.1 2.9-6.9 3.9-9.9 2.1-1.2-.7-1.1.3 0 1.1 1.6 1 6.1.9 7.8-.3.6-.4 2.4-2.6 3-3.8.6-1 .2-.6-.9.9m-61.8 1.7c-4.6.9-7.3 2.5-7.3 4.1 0 .9.6.9 1.1-.1.9-1.6 5.2-2.9 11.3-3.5 3.3-.3 4.4-.5 4.2-.8-.3-.4-6.8-.2-9.3.3m166.8 0c-.7.1-2.4.3-3.9.6s-3.2.5-3.8.5c-1.6 0-1.7.9-.7 4 .4 1.2.8 3.6 1.1 6.3l.5 4.3.8.1c1.1.2 1.1 1.2.1 1.3-.6.1-.7.2-.7.8v.8l1.8-.1c2.3-.2 2.2.4-.1 1.1-2.6.8-2.4 1.6.5 1.3 3.8-.3 3 .4-2.1 1.9-.2.1-.3.3-.3.5 0 .5 5.8.4 7-.1.5-.2.6-5.9.2-8.9-.1-.8-.4-2.6-.6-4l-.4-2.6.7-1c.4-.6 1.4-1.7 2.2-2.6 1-1 1.5-1.7 1.4-2-.1-.2-.2-.9-.2-1.4v-1h-1.1c-.7 0-1.8.1-2.4.2m-21.1 1.5c.3.7.5 1.4.5 1.5 0 .2-4.7 1.5-6.7 1.9-1 .2-2.3.5-3 .7-.7.2-1.3.4-1.4.4-.2 0-1.2-2.5-1.2-2.9 0-.6.7-.8 4.4-1.7 6.5-1.6 6.8-1.6 7.4.1m29.7.7c-1 .6-1.3 1.2-.9 1.6.2.2.5.1 1.1-.3 1.6-1.1 2.9.6 3.9 5.1.4 1.7.9 3.8 1.1 4.7.2.9.5 3.5.6 5.9l.2 4.3.4-2.8c1.2-10.6-2.3-21-6.4-18.5m-177.7 1.2c-.4.1-.8.2-.9.4-.4.4 3.6.1 4-.3.2-.3-1.7-.3-3.1-.1m53.2.1c-9.7.2-13.1.6-18.5 1.9-4.2 1-4.2 1-3.7 3.3 2.5 11.7 3 12.9 5.2 13.7 1.2.4 5.4.7 6.6.4l1-.2-1.1-.2c-2.7-.5-6.5-1.4-6.5-1.6 0-.4 6.6-1.7 12.6-2.4 3.1-.4 18.1 0 26.6.7l1.7.1.7-1.2c.8-1.3 3.2-5.2 6.1-9.8 1-1.6 2-2.9 2.2-2.9 1 0-.1-1.3-1.4-1.7-1.4-.2-19.2-.4-31.5-.1m103.1-.1c-.9.1-1.7.1-1.7.2s.3.8.8 1.7c.4.8 1.2 2.8 1.6 4.3.5 1.5 1.1 3.3 1.4 3.9.3.6.8 2.2 1.1 3.5.9 3.2 1.1 2.5.9-2.8-.2-5-1.3-10.7-2.2-10.8h-1.9m-152.7 1.2c-.7.1-2.1.3-3 .5-1.9.3-2.5.6-2 1.1.2.2 1.1.2 3.2-.1 1.6-.2 3.5-.5 4.4-.6s1.6-.3 1.9-.4c1-.7-1.7-1-4.5-.5m10.5 1.2c-8.4.8-19.6 2.3-20.8 2.8-3 1.2-5.8 7.6-7.5 16.5-.5 2.6.1 13.9.7 14.9.1.1.7.1 1.5 0s1.8-.3 2.3-.4c1.7-.3 1.1-.9-.9-.9-2.1 0-2-.4.1-.8 1.9-.3 2.3-1.1.7-1.1-.8 0-.7-.6.2-.8l.6-.1-.2-4.2c-.2-3.9 0-5.1.5-4.5.4.4 2 22.4 1.9 25.8-.1 4.2-.3 3.9 4.5 7.3 1.7 1.2 1.8 1.1.3-.4-.6-.6-1.4-1.6-1.9-2.1l-.8-1 1.9-.2c1.1-.1 3.9-.5 6.3-.8l4.3-.6 2.5.8c3.5 1.1 5.7 1.6 7.3 1.6 1.7 0 1.3-.3-1.3-1.1-2.3-.7-5.7-2.3-6.2-2.9-.2-.2-.4-1.7-.5-3.2-.1-1.5-.3-4.5-.5-6.7-.2-2.1-.5-5.8-.7-8.1-.2-2.3-.4-4.4-.5-4.6-.1-.2-1.1.8-2.6 2.6-1.9 2.2-2.3 2.9-2 2.9 1.1 0 1.2.6 1.4 6.3.1 4 .2 5.5.5 5.8 1 1.2-.7 2.3-4.4 2.8-5.1.7-4.7.7-4.6-.2 0-1.4-.4-6.2-.5-6.2-.2 0-.1-7.4.1-8 .1-.3.2-.3.3-.1.2.3.8.3 2.9 0l2.7-.3 2.5-2.8c1.4-1.6 2.8-3.1 3.1-3.4.5-.4.6-.8.5-2-.1-2.8 0-4.2.3-3.7.1.2.3 1.8.3 3.5 0 5.1 1.4 12 2.4 12.2.8.2 1 .8.3 1-1.1.3-.6 1.3.8 1.5 1.2.2 1.3.5.2.9-1.3.4-.7 1.4.9 1.4 1.5 0 2.1.4 1.4.9-.3.2-.9.4-1.3.4-.7 0-.9.2-.6.8.1.3.7.3 2.4.3 1.8-.1 2.3 0 2.2.2-.1.4-1.7 1-2.8 1-.8 0-.9.1-.6.4.3.3.9.4 3.6.2 3.8-.2 3.7-.2 2.8-1.1-.4-.4-1-1.3-1.3-2-.3-.7-.7-1.3-.8-1.3-.3 0-2.4-5-2.4-5.7 0-.3-.4-2.7-.9-5.2-2.3-11.8-1.1-20.8 3.5-26.9.5-.6.9-1.2.8-1.2-.9-.3-2.4-.4-4.9-.2m59.4.5l.7.7-.2 2.7c-.1 1.5-.3 3.5-.4 4.5l-.2 1.7-1-.1c-1.4-.1-1.3.3-.9-4.9.4-6 .4-6 2-4.6m3.9 0c.6.2.7.7.5 1.9-.1.6-.4 2.6-.5 4.4-.1 1.8-.4 3.4-.5 3.5-.4.4-1.9-.1-1.8-.6.1-.2.3-2.2.4-4.4.3-4.2.6-5.3 1.1-5.1.2.1.5.2.8.3m4.2 0c.5.7-1.4 6-2.4 6.6-.5.3-.4-5 .1-6.1.4-1 1.7-1.3 2.3-.5m-11.6 1.1c.5 1 .3 7.6-.2 8.4-.3.5-2.3.3-2.4-.2-.2-.6.4-8.3.8-8.9.3-.9 1.2-.5 1.8.7m-11.7-.7c.1.1.4.3.8.3.9 0 1.1.8 1.5 4.7.4 3.7.3 3.8-1.1 3.8-1.3 0-1.3-.1-2-4.7-.4-2.9-.4-3.6-.1-3.9.3-.5.6-.6.9-.2m6.4.5c.2.5.3 1.8.3 4.7l-.1 4-1.2-.1c-.7 0-1.3-.2-1.4-.4-.2-.4-.3-8 0-8.6.3-.7 2-.4 2.4.4m-16.2.2c.4.5 1.9 6.3 1.9 7.4 0 1.4-1.7 1.9-2.5.7-.7-1-2.2-7.9-1.8-8.3.3-.5 2-.3 2.4.2m5.2-.2c.8.3.8.4 1.5 4.4.6 3.5.6 3.6-1.1 3.7l-1.2.1-.6-2.4c-1.4-5.8-1.2-6.8 1.4-5.8m-14.9.4c1.4 2.2 2.7 9.1 1.7 9.3-2.6.5-2.7.4-3.8-5.6-.7-3.8-.6-4.3.6-4.3.8 0 1.2.1 1.5.6m4.7-.1c1.1 1.3 2.8 8.4 2 8.9-.9.6-2.3.3-2.8-.5-.8-1.6-2.3-8.2-1.9-8.6.5-.5 2.4-.3 2.7.2m131.8-.3c-.9.2-2.2 3.2-2.7 6.3-.1.7-.3 1.6-.4 1.9-.1.5 0 .6.5.7 1 .1.9.6-.1.8-2 .5-.8 1.8 1.7 1.8 2.3 0 .5 1.3-1.9 1.3-.7 0-.9.1-.9.7s0 .7 2.7.7c4 .1 3.5.7-.9 1.1-1.7.2-1.8.2-1.8.9v.7l3.2-.2c3.7-.2 4.3.2 1.2.8-4.6.8-4.6.8-4.6 1.6 0 .6.1.7.6.5.3-.1 2.1-.3 4-.4 1.9-.2 3.7-.4 3.9-.5 1.5-.8 1.1-11.3-.6-16-1-2.4-2-3.1-3.9-2.7m-50.8.5c-2.8.7.1 23.9 3 24.7.8.2 1.3-.3.7-.6-.4-.2-.4-.4-.2-1.4.5-2.3.5-2.9.1-6.1-.8-5.7-1.2-8.4-2-11.7-.9-3.8-.9-3.4-.3-3.4.7 0 .9-.4.6-1.1-.3-.6-.9-.7-1.9-.4m25.7.5c.9 4.5.9 4.7-1.2 5-3.4.5-6.2 1-7.7 1.5-2 .7-2.4.5-2.6-1.3-.1-.7-.2-1.6-.3-1.9-.1-.8 4.9-2.7 9.1-3.6 2.6-.5 2.6-.5 2.7.3m-115.4.2c.3.5 1.5 5.6 2 8.5.1.8-.8 1.4-1.8 1.2-.5-.1-1.5-2.8-2.2-6.4l-.6-2.9.6-.5c.8-.7 1.5-.7 2 .1M127 95c-1.3 2.5-1.9 2.7-15.7 3.9l-2 .2.2-.8c.1-.4.4-1.2.6-1.7l.4-.9 3.6-.6c7.2-1.2 10-1.6 11.8-1.6h1.8L127 95m-4.2.2c-.2.1-2.3.5-4.8.9-4.9.8-5.1.9-5.1 1.6 0 1.1 12.4-.8 12.6-2 .1-.7-1.6-1-2.7-.5M101.7 98c-6.8 1-7.9 25.9-1.6 36.4 1.2 2 1.4 1.7.4-.4-2.9-5.8-3.9-13.5-2.7-22.4.1-.6.4-1.8.6-2.5 1.1-3.1 2.1-5.6 2.5-6 .2-.2.6-1 1-1.7.3-.7 1-1.7 1.5-2.2 1.4-1.6 1.4-1.7-1.7-1.2m-16.1 2.3c-2.6.2-2.9.3-3.4 1.4-1.7 4-2.6 9.1-1.8 10.4.4.6 2.7 3.1 6.1 6.7.9 1 1.8 1.9 1.9 2.1.2.2.5 1.9.7 3.7.5 4 .2 3.7 3.6 3.9l2.7.2-.1-.8c-.1-.7-.2-.8-1.9-1-2.4-.3-2-1 .6-1 .6 0 .8-.1.8-.5s-.2-.5-.6-.5c-.9 0-1.5-.5-1-.8.2-.1.6-.3.8-.3.4 0 .4-.5.3-5.9-.2-6.7.3-10.8 1.8-15.1.7-2.1.7-2.2.2-2.5-.2-.2-7.2-.3-10.7 0m39 2c-.1 2.3-.4 2.4-6.2 2.8-2.4.2-4.9.4-5.6.6-.7.1-2.2.2-3.4.3h-2.2v-1.3c0-2.1.3-2.2 5.5-3 4.4-.7 5.8-.8 10-.9l2-.1-.1 1.6m-49.8-.5c-6.7 1.3-8.3 2.7-9.7 8.5-.4 1.7-.8 3.1-.9 3.1-.3 0-1-1.5-1-2 0-.4-.1-.5-.5-.5-6.3.7-6 .6-6.7 3.9-1.2 6.3-.5 12 2.6 21.7 1.4 4.3 4 7.7 8.1 10.2 1.4.9 2.6 1.7 5.9 4.3.9.7 1.4 1.3 1.6 1.9l.3.9 1.6-.1c.9-.1 1.6-.1 1.7-.2.2-.2-1.9-2.1-3.3-2.9-4.8-2.7-6.9-4-8-5.1a6.3 6.3 0 0 0-1.5-1.2c-.4 0-1.3-1.1-1.3-1.6 0-1.3 1.7-.8 4.5 1.2 1.5 1.1 3.5 2.2 3.5 1.9 0 0-1.1-1.1-2.4-2.3l-2.4-2.2-2 .3c-1.8.3-2.1.3-2.5-.1-.7-.7-.1-.9 1.9-1 1.8-.1 2.1-.2 1.4-.7-.2-.2-.4-.2-.6 0-.5.5-3.9.2-4-.4-.1-.4.2-.5 1.9-.5 2.1 0 2.2 0 1.7-.8-.3-.5-1-3.2-.9-3.2l1.3 1.7c2.2 3.1 2.7 3.1.6 0-1.6-2.3-1.7-2.5-1.1-2 .6.4.6.4-1.6-3.1-1.4-2.4-1.2-3 .3-.7 1.4 2.1 2.1 2.6 1 .6-2.7-4.7-3.1-5.8-1.6-4.1 1.1 1.1 1 .9-.5-1.4-.6-.9-1-1.9-1-2.3v-.7l.6.8c.3.4.9 1.2 1.3 1.6l.7.8-.4-.9c-.2-.5-.8-1.5-1.4-2.3-1.5-2.3-1.6-4.1-.1-2.1.4.5.8 1 1 1.1.4.2.4.2-.9-1.9-1.5-2.3-1.2-3.1.5-1.3l1.1 1.1-1.1-1.8c-1.3-2.2-1.4-2.8-.1-1.6l1 .9-.8-1.5c-1-1.8-.9-2.5.3-1.4l.8.8-.7-1.3c-.9-1.5-.7-2.1.3-1l.7.8v6.5c0 7.2.4 9.8 1.8 13.4.8 2 2.2 4.3 2.7 4.5.4.1 3.7 4.5 4.2 5.4.2.4.4.7.6.7s1.1.6 2 1.3c2.3 1.7 4.7 2.7 8.5 3.5 2.4.5 3.4 1.2 4.9 3.6.8 1.3 1.3 1.7 2.5 2.2.8.4 1.8 1 2.3 1.5l.8.8 2-.4c2.9-.6 3.1-.6 4.7.9 1.3 1.2 2.1 2.6 2.1 3.9 0 .1-.5-.3-1.2-.9-1.2-1.1-1.6-1.3-1.8-.9-.1.1-1 .3-2.1.4-2.9.2-3.6 1-.9 1 1.7 0 1.6.6-.1.7-1.4.1-1.8.8-.5.9.4 0 .9.1 1.1.2.6.4.1.8-.9.8-1.1 0-1.2.4-.3.6 1 .2.8.7-.3.7-1 0-1.4.4-1 .9.2.3.2.4-.2.5-.6.2-.7.8-.2 1.4.3.4.9 3.2 2 10.6.1.9.3 2.4.5 3.3.2 1.8.9 2.7 1.4 1.9.2-.3.3-.3.3.1 0 1.1.6.6 2.5-1.8 1.1-1.4 2.2-2.8 2.5-3.1.4-.4.5-.7.3-2.1l-.2-1.6 1.1.9c.6.5 1.1.8 1.2.7.3-.3-1.6-2.5-2.2-2.6-.5-.1-1.1-1.8-.8-2.1.1-.1 1.1.7 3 2.3.3.3.6.4.6.4 0-.8-1.2-6.9-1.5-7.8-.2-.6-.4-1.2-.3-1.2.1 0 .7-.4 1.5-.7 1.5-.7 2.1-1.2 1.1-1-2.3.5-2.8.4-3-.2-.1-.3-.2-.9-.3-1.2-.2-.5 0-.6 1.1-.7 1.4-.2 2.5-.8 2-1.1-.1-.1-1.1-.1-2 0-1.6.2-1.8.2-1.9-.3-.2-.8-.1-.8 1.5-1.2 2.5-.6 2.6-1.2.1-1l-2 .2-.5-1.5c-.3-.8-.6-1.7-.6-1.8 0-.2.4-.4.9-.5 1.2-.2 2.3-.7 2.3-1 0-.3-1.5-.3-2.6 0-.9.2-1 .2-2-.9l-1-1.1.8-.2c.4-.1 1.2-.3 1.8-.5 3.4-.9 1.7-1.5-2.1-.8-1.6.3-1.9.3-2.5-.1-1.4-.9-3.9-2.3-4-2.2-.1.1 1.7 1.6 4.7 3.8 2 1.5 2.8 2.4 3.2 3.7l.5 1.5c.1.3-.4-.2-1.1-1-.7-.8-1.4-1.4-1.6-1.4-.2 0-.6-.3-.9-.6-.5-.5-.8-.5-2.9-.4-1.3.1-2.7.1-3.1-.1-.9-.3-.8-.3 2.2-1 3.1-.7 2.6-1-1.2-.9-4.2.2-4.1-.3.3-1l1-.2-.7-.5c-.7-.6-6.1-.8-6.4-.3-.1.1-.9-.2-1.8-.8-.9-.6-1.9-1.1-2.3-1.1-1.4 0-5.6-1.8-6.8-3-.3-.3-1.2-.8-1.9-1.2-1.6-.8-1.5-.8-1-1.3.3-.3.9-.4 2-.4s1.5-.1 1.4-.3c-.1-.2-.7-.3-2-.2-2.3.1-3-.1-2.3-.6 1.3-.9 4-.5 5.5.9.8.7 2.3 1.6 3.4 2.1s2.2 1 2.5 1.2c1.3.7-.1-.4-2.6-2.1-4.8-3.3-8.4-8.5-8.4-12.1 0-.4-.1-1-.2-1.2-.1-.3-.4-.9-.5-1.3l-.3-.9.8.7c1.4 1.1 1.7 1.4 1.8 1.8.1.2.2.3.3.2s-.8-1.4-1.9-3c-2.7-3.6-3.6-6.3-1-2.9 2.2 2.9 2.1 2.1-.2-1.7-1.7-2.8-1.8-4.1-.2-2.1.6.8 1.2 1.4 1.3 1.4.3 0-.8-2.5-1.7-4.1-1-1.7-.7-2.1.6-.8 1.4 1.4 1.4 1.1.2-1.4-1.3-2.6-1.2-3.9.1-1.9 1.5 2.3 1.8 1.3.4-1.4-1.2-2.3-1-3 .3-1.6s1.4 1.2.4-1c-1-2.1-.8-3.3.3-1.6 1.1 1.7 1.4 1.1.5-.8-.9-1.9-.7-2.4.4-1.2.9 1 1.2.6.6-.9-.2-.7-.3-1.2-.2-1.3.1-.1.3.1.4.4.2.6 1.5 1.9 1.5 1.5 0-.2-.2-.8-.4-1.4-.6-1.7.1-2.3 1.2-.9.7.9.9.7.7-.4-.3-.9-1.6-1.4-3.8-1m64.2.8c-1.4 1.8-2.4 6.5-2.4 11.5v3.9l1.3-.1 1.3-.1.2-4.9c.3-8.6 1-10.2 3.8-8.8.6.3.6.3.2-.2-.2-.3-.5-.7-.6-1-.1-.3-.3-.4-.6-.3-.2.1-.4.1-.5-.1-.4-.3-2.4-.3-2.7.1m-22.4.4c-1.8.3-4 .6-4.9.7-1.4.2-1.5.2-1.5.8 0 .8 1.4.9 5.7.3 1.5-.2 3.6-.4 4.7-.5 2.7-.2 3-.3 2.9-1-.2-.9-2.3-.9-6.9-.3m153.6 7.4l1.3 7.3.6 3.1-.7.8c-.5.7-1.2 1-3 1.6-3.6 1.2-3.5 1.3-4.7-4.1-.6-2.4-1.3-5.7-1.7-7.3-.5-2.2-.6-3-.4-3.3.2-.2.2-.5.1-.7-.1-.2 0-.4.3-.5.3-.1.5 0 .6.1.1.3.8.2 1.4-.4.2-.2 1.2-.5 2.1-.7 1-.2 2-.5 2.3-.7.8-.1 1 .3 1.8 4.8m-65.3-2.8c-2.3 3.1-3.4 4.5-3.6 4.5-.3 0 .6-1.2 2.4-3.4 1-1.3 1.9-2 1.2-1.1m63 .6c-.1.1-1.2.3-2.4.5-2.5.4-2.5-.4-.8 7.3l1.3 5.9 1.2-.4 2.4-.7c1.3-.4 1.3-.1.5-4.1-.4-1.7-.8-4.1-1-5.3-.5-3.5-.5-3.5-1.2-3.2m-74.3.7l-1.3.3.2 2.4.2 2.4-2.5 2.3c-3.8 3.5-4.3 3.8-5.2 3.2-3.1-2-6.2-4.6-6.7-5.7l-.5-1.2v1.5c-.1 3.9-.7 4.5-1 1-.3-4.2-.6-5-.6-1.8 0 3.6-.3 7.2-.6 7.2-.1 0-.3-1.4-.4-3.1-.1-1.7-.3-3.9-.4-4.9l-.2-1.7-.2 3.1c-.1 1.7-.1 4.4 0 5.9.1 1.8.1 2.8-.1 2.9-.2.1-.3-.8-.4-2.4l-.4-5.1c-.1-1.3-.3-2.9-.3-3.5 0-.8-.1-1.1-.4-1.1-.6 0-.7.9-.4 4.9.2 2.1.3 5.5.4 7.6l.2 4.1c.1.2.2.7.3 1.1.2.8 4 4.1 5.8 5.1l1.1.6-.5-.6c-.3-.3-1.4-1.5-2.4-2.6-2.4-2.6-1.5-2.9 1.4-.4.8.7 1.1.3.4-.4-.5-.6-1.1-1.6-1.1-1.9 0-.3.8-.1 1 .2.2.6 1.5 1.3 1.8 1 .2-.2.1-.4-.2-.8-.3-.3-.4-.6-.4-.7.1-.1 13.2-1.4 17.2-1.7 3.1-.2 3.2-.3 2.4-1.6-.9-1.4-1.2-4.2-1.2-10.7v-5.1h-1.8c-1.2 0-2.5.1-3.2.2m-3.8.5c-.4.1-1.8.2-3 .2-2.9 0-3.8.2-3.9.9-.2.6-.9.7-1.2.1-.2-.5-.6-.2-.6.5 0 .3-.1.8-.3 1-.3.5-.8-.1-.8-1 0-.3-.1-.6-.3-.6-.2 0-.3.8-.3 1.8v1.8l2.9 2c1.6 1.1 3 2.1 3.2 2.2.3.2 4.3-3.3 5.2-4.6.5-.8.6-4.6 0-4.5-.1 0-.5.1-.9.2m92.8.1c-2.5.4-2.7.5-2.4 1 .5.8 6.3-.1 6.3-.9-.1-.5-.6-.5-3.9-.1m-15 .6c.7.7.3 1.3-1.1 1.6-.9.2-1.6-.2-1.6-1-.1-1 1.9-1.4 2.7-.6m-32.2.1c-.3.5-.7 9.3-.7 15.6v5.3l1.4 1.9c.8 1 1.8 2.3 2.2 2.8.8.8.9.9.9 3 0 1.2.1 2.2.3 2.3.5.3.8-.9.8-2.8v-2l-2.1-3.2-2.1-3.2v-6.6c-.1-8.2-.4-13.6-.7-13.1m-75.7.7c-1 .2-1.1 1.2-.8 5.9.2 2.1.4 5.9.5 8.3.2 5.9.2 5.9 4.3 5.4l1.4-.2-.5-.6c-.3-.3-.6-1.2-.7-1.9l-.2-1.3 1.5 1.5c.8.8 1.5 1.3 1.5 1.2 0-.3-1.7-3.2-2.4-4.1-.9-1.1-.6-1.5.5-.6.5.5 1 .8 1.1.7.1-.1-1.7-3.3-2.1-3.5-.1-.1-.2-.5-.2-1v-.7l1.2 1.3c1.7 1.9 1.1-.4-.7-2.5-.4-.5-.8-1.2-.8-1.6 0-.7.1-.6 1.4.9.8.9 1.5 1.5 1.6 1.4.2-.2-2.1-4.4-2.8-5.2-1.4-1.5-.3-1.1 1.4.6 1.1 1 1.7 1.6 1.5 1.2-3.4-5.7-3.4-5.7-6.7-5.2m123.5 1.4c-1.4.1-1.5.2-1.2.6.5.6 3.3.4 3.7-.3.2-.6.3-.6-2.5-.3m27.5.9c-.2.7-.2.8.3.6.3-.1 1.9-.3 3.6-.5 4.1-.4 4-.9-.3-.9H311l-.3.8m-1.2 2.7c-.8 1.4-1.1 1.3 2.8 1.1l3.4-.2.4-.9.4-.9-2.2-.2c-4-.2-4-.2-4.8 1.1m-116.1 2.8c-4.2 4.6-4.6 5-4.6 4.7 0-.3 1-1.4 4.6-5.1 2.6-2.7 2.6-2.4 0 .4m-112.7-.6c-1.3 1.3-1.5 5.2-.6 9.4.5 2.2 1 2.8.6.7-.3-1.9.1-6.4.9-8.3.6-1.6.1-2.8-.9-1.8m227.3.6c-.3.4-.5.8-.5.9 0 .3 6.5-.2 6.9-.5.5-.4.3-.5-2.5-.9-3.5-.4-3.4-.4-3.9.5m-171.1.4c-.3.8.1 1.7.8 1.7 1.7-.1 2-.3 1.7-1.2-.2-1-2.1-1.3-2.5-.5m-84.7.2c-1.2.5-1.3.9-1.3 5.3 0 4.6.5 7 1.6 9.1.9 1.6.9 1.6.4-.6s-.6-5.7-.2-6.2c.3-.4.4-.3.7 1.1.5 2.2 1.2 1.6 1-.8-.1-1-.1-3.1 0-4.7.2-3.7-.1-4.1-2.2-3.2m264.4.2a1 1 0 0 0-.1.9c.1.2-.1.6-.5.8-.4.2-.9.9-1.3 1.4-.3.5-1.1 1.6-1.7 2.3-1.7 2-3.3 4.6-3.9 6.2-.2.6 5.5.6 5.9 0 .4-.6.2-.6-1.9-.8-3.6-.2-3.3-.8.5-1 3.2-.2 3.6-.7.7-.9-3.2-.3-3-1 .3-1 2.9 0 3-.9.1-1-2-.1-1.3-.8 1-1.1 2-.2 2.4-.7.8-1-1.8-.3-1.7-1.2.2-1.2.9 0 1-.3.9-2-.1-1.9-.5-2.6-1-1.6m-233.7.2c-1.1 1.8-.3 9.7.9 9.7.3 0 .3 0 0-3.2-.2-1.6-.2-3.1 0-4.2.3-1.9-.3-3.3-.9-2.3m223.6 1.9l-.3.8 3.1-.1c4.9-.2 5.1-1 .3-1.3l-2.8-.2-.3.8m-221.6 1c-.3 1.7 0 4.2.7 5.6.7 1.5 1.5 2.1 1 .8-.2-.4-.3-2-.2-3.4.1-3.4-1-5.5-1.5-3m95.4.3c-.9 1.2-2.6 2.8-2.3 2.2.4-.8 2.6-3.2 2.8-3.2.2 0 0 .5-.5 1m-62-.1c-.5.8-.5.9.1 1.1 1.5.4.3 1.8-1.5 1.8-.9 0-1.2.2-2 1.3l-1 1.3.2 3.1c.2 3.7-.2 3.3 2.7 2.8 1.3-.2 2.7-.4 3.1-.4h.7v-5.2c0-2.9-.1-5.4-.1-5.7-.3-.9-1.7-.8-2.2-.1m19.5-.4c-.4.4.2.9 1 .8 1.5-.3 1.8-.4 1.6-.7-.1-.3-2.3-.4-2.6-.1m-23.5.3c-.7.1-.8.1-.6 1.3.1.7.2 1.6.2 2.2 0 1.2.9.6 1.3-.9.1-.5.6-1.1 1.3-1.6 1.7-1.1 1-1.5-2.2-1m190.1 1.6c-.5.8-.4.8.7.5.6-.1 2.1-.3 3.5-.4 3.4-.3 2.8-.7-.8-.7-2.8.1-3.1.2-3.4.6m-2.3.9c-.8 1-2.2 3-2.7 3.8-.1.2.4.2 1.8.1 1.1-.1 2.4-.2 3-.1.6.1 1.8 0 2.7-.1l1.6-.2-1.6-.2c-.9-.1-2.4-.3-3.4-.3-1.5-.1-2.6-.6-1.5-.6.2 0 .2-.1.1-.2s-.5.1-1 .4c-1 .7-.9.5 1-2.1 1.3-1.9 1.4-2.2 0-.5m-162.3-.6c-.5.3 1.7.9 2.4.7.6-.2.6-.2.1-.5-.6-.5-1.9-.6-2.5-.2m-34.4.5c-1.8.1-1.8.1-1.4.8.4.7 4.3.2 4.3-.5 0-.3-.2-.5-.6-.4-.3-.1-1.4 0-2.3.1m-44 .4c0 .5-1.6.8-2.5.6-1.4-.3-.8-1 .9-1 1.2 0 1.6.1 1.6.4m243.3.7c-1.2.1-1.7.4-1.7.9 0 .1.7.1 1.5 0s2.4-.3 3.4-.4c1.2-.1 1.9-.3 2-.5.1-.3-.9-.3-5.2 0m-243.5 1.3c.2.4-1.1.8-2.4.7-1.6-.1-1.6-.7 0-.8.7-.1 1.5-.1 1.7-.1.4 0 .6.1.7.2m44.4 0c-.8.1-.9.3-.5.8.3.5 3.1.1 3.2-.5 0-.5-.8-.6-2.7-.3m102 .3c-4.1.7-4.1.7-3.4 1.3.5.5.6.5 3.3 0 1.5-.3 3.2-.5 3.7-.5 1 0 1-.1.6-.8-.4-.6-.1-.6-4.2 0m-137.7.4c.6.2.6.2-.2.5-1.5.6-2.7.4-2.1-.3.2-.4 1.2-.4 2.3-.2m20.4 2.3c.1.5.2.9.3 1 .3.3 5.7-.3 5.6-.7-.1-.2-.1-.6-.1-.8 0-.3-.6-.4-3-.4h-3l.2.9m15.9-.6c-.6.4.1.6 1.2.4.5-.1.9-.3.9-.4 0-.3-1.6-.3-2.1 0m102.2.2c-2.9.4-3.4.7-2.8 1.3.6.6 7.5-.5 7.4-1.2-.1-.5-1.3-.6-4.6-.1m92.2.4c-1.4.1-2.5.6-2.2.9.1.1 2 .2 4.4.2l4.2.1.2-.7.2-.7h-2.6c-1.4 0-3.2.1-4.2.2m-238.8.2c.3.4-.8.8-2.1.8-1.2 0-1.7-.3-1.4-.8.2-.3 3.2-.3 3.5 0m9.3.1c.3.3-.1.5-1.8.5-1.8.1-2.2-.1-1.9-.6.2-.3 3.4-.2 3.7.1m91.7.7c-1.6.1-1.8.3-1.2 1.1.5.6.5.6 2.7.3 2.6-.4 2.6-.4 2-1.1-.5-.5-.6-.5-3.5-.3m-100.5 1.1c0 .3-.4.4-1.6.5-1.7.1-2.5-.2-2.1-.7.3-.5 3.7-.3 3.7.2m128.1-.4c-.3.3-.2 2.1.1 3.8.1.8.3 2 .4 2.7.2 1.7 1.3 1.8 1.4.1.1-3-1.1-7.4-1.9-6.6m19.3.4c-1.9.3-2.7.5-2.7.8 0 .5.8.4 4.3-.4 3.3-1 2.7-1.1-1.6-.4m-116.1 0c-2.3.1-2.5.2-2.5.7 0 .6-.1.6 4.3.5 1.9-.1 2-.1 1.8-.7-.3-.7-.3-.7-3.6-.5m-22.1.3c.2.1.3.3.2.4-.3.3-3.9.3-3.9 0-.1-.6 2.9-.9 3.7-.4m121.2 1.2c.5 4.3 1.2 7.1 1.2 4.7 0-2.1-.7-6.2-1-6.2-.3 0-.4.3-.2 1.5m105.6-1c-2.9.4-2.9 2.3 0 2.1 1.1-.1 3.4-.2 5.1-.3 2.9-.2 3-.2 3-.8 0-.6-.2-.6-2.5-.8-1.4-.1-2.9-.2-3.4-.3-.4 0-1.5 0-2.2.1m11.7.3c-1.2.1-1.6.2-1.7.6-.1.7 5.7.7 5.9 0 .2-.6-1.3-.8-4.2-.6m-146.2.2c-1.2.1-1.5.5-.7 1.1.4.3 4.5 0 4.9-.4.7-.7-1-1-4.2-.7m-101 .6c.6.6-2.2 1-3.5.5-.7-.3-.7-.3-.2-.7.6-.4 3.2-.2 3.7.2m147.9.1c-3.1.7-3 .7-2.7 1.2.3.5 7.2-.9 7-1.5-.1-.5-1-.4-4.3.3m-138.9.4l.7.2-.8.3c-1 .4-2.8.3-3-.1-.2-.5 1.8-.7 3.1-.4m63.7.3c-2.5.3-3.1.6-2 1 .6.2 1 .2 1.5 0 .4-.2 1.6-.4 2.8-.5s2.1-.3 2.1-.5-2-.3-4.4 0m-72.8.5c1.2 0 1 .6-.3.9-.7.1-1.3.1-1.9-.2-1.2-.5-.9-1.1.4-.8.4.1 1.3.1 1.8.1m30.3 0c-1 .1-1.2.2-1 .5.2.3 6 .2 6.4-.1.6-.6-2.2-.8-5.4-.4m73.2.1c-2.3.3-2.3.3-1.6 1.1l.6.7 2.4-.3 2.4-.3-.6-.7c-.3-.4-.8-.7-1-.7-.3-.1-1.3 0-2.2.2m45.6.8c-2.8.6-3.3.8-3 1.2.2.2.8.2 2.9-.2 1.5-.3 3.1-.6 3.7-.7 1.3-.2 1.2-.8-.1-.9-.6.1-2.1.3-3.5.6m-138.3.2c-.4.4-3.4.5-3.5.1-.1-.2.4-.3 1.8-.3 1.3-.1 1.8 0 1.7.2m65.1.3c-2.2.1-3.2.5-2.2.9.4.1 4.2-.2 5.1-.5.5-.1.4-.7-.1-.6-.2 0-1.5.1-2.8.2m117.1.1c-.8.8.5 4.6 2.3 6.7 1.8 2.1 7.5 4.2 12.2 4.6 2.7.2 4.5 1 6.8 3 1.6 1.4 1.9 1.2.7-.5-1.5-2.1-3.9-3.2-7.3-3.5-8.3-.8-14-4.4-14-9.1-.1-1.2-.3-1.6-.7-1.2m7.6.8c.2.8.4 4.5.4 6.5 0 .2.1.3.3.2.4-.2.3-4.7 0-6.2-.4-1.5-.9-1.9-.7-.5m31.3-.4c-4.5.4-5.7 2.9-5 10.5.4 4.1 1 4.5 5.7 3.9l1-.1.6 1.7c.3 1 .7 2.1.8 2.5.3 1.4.4.5.1-1.1-.2-.9-.3-2.3-.2-3.3l.1-1.7.6 2.7c.8 3.4 2.8 9.5 3 9.3.2-.3-.2-4.2-.8-8.1-.3-1.7-.5-4.1-.5-5.3 0-2.4-.2-2.9-1.3-2.9-.9 0-.6-.7.4-.8.5 0 1.1.1 1.3.3.4.3 1.2.3 3 .2 2.7-.2 4.3 0 4.3.4s-1 .6-3.1.6c-3.4.1-3.5.8-.1.9 2.3 0 3.6.5 3 1.1-.3.3-4 .9-4.4.6-.1-.1-.2 0-.2.1 0 .3.7.4 3.1.4 1.9 0 2 1 0 1.3-2 .3-1.8.5.4.5h2l.4 1.5c1.2 4.2 2.4 8.3 2.7 8.8l.3.6.5-.7c1.1-1.7 3-2.2 4.2-1.1 1.1 1 1.1.8.4-2.3-.9-4-1.2-5-1.5-5-.3 0-.3 0 .1 2.8.2 1.3.4 2.5.4 2.6 0 .1-.5.2-1 .3l-1 .1-.7-3.5c-.4-1.9-1-4.8-1.5-6.4l-.8-2.9.6-.2c.3-.1 1.5-.2 2.6-.2 3.7-.1 3.7 0 3.3-3.1l-.2-1.4-2.2-.3c-1.2-.2-3.1-.3-4.3-.3-3.3-.1-1.1-.4 2.7-.5 4.5 0 4.1-.5-.5-.7-13-.6-14.1-.9-2.9-1 5.5 0 6.8-.2 5.9-.7-.4-.3-18-.3-21.3-.1m-230.6.5c-.1.4-.4.5-1.7.5s-1.6-.1-1.7-.5c-.1-.4.1-.5 1.7-.5 1.5 0 1.8.1 1.7.5m10.4 0c.6.4.3.5-2.1.7-2.5.2-3.2-.4-.7-.7 2.1-.2 2.4-.2 2.8 0m92 .2c-.5.1-.6.4-.1.8.2.2 1.2.3 2.8.3h2.5l-.4-.6c-.4-.5-3.4-.9-4.8-.5m47.9.2c-1.2.2-2.8.5-3.6.6l-1.5.3-.2 3c-.1 1.6-.2 8.2-.3 14.6l-.1 11.6 1.2-1.3c.7-.7 1.3-1.3 1.3-1.2.1.1-.5.8-1.2 1.7l-1.4 1.5-.1 2.3c-.2 2.8-.2 2.8 2.3 2.4 1-.2 2.5-.3 3.4-.4.9 0 1.7-.2 1.9-.3.3-.2.7-10.9.7-21.9 0-3.8.1-7.9.3-9.1l.2-2.1-2.5 3c-2.3 2.7-2.9 3.4-2.9 2.8 0-.1 1-1.5 2.3-3.1 2.8-3.5 3.3-4.1 3.1-4.6-.2-.2-.1-.2-2.9.2m-138.1 1.4c.4.4-.7.7-2.5.7-2 0-2.7-.3-1.6-.8.6-.3 3.8-.2 4.1.1m126.1.4c-1.2.1-4.2.6-6.7 1.2-2.5.5-6.1 1.2-8 1.5l-3.4.5-1 1.1c-1.9 2-2.5 8.8-.9 8.8.1 0 2.6-.5 5.5-1.2s7.2-1.6 9.5-2.1c7.4-1.7 8.4-2.2 2.4-1.2-6.4 1-8.1 1.3-8.7 1.5-.4.1-.6.1-.5-.1.1-.2 3.1-1 6.6-1.8 3.5-.8 6.4-1.6 6.4-1.8s-.3-.2-.6-.1c-1 .3-6.2.8-7 .7-.7-.1 1.7-.7 7.2-2 .4-.1.6-.5.8-1.2.2-.6.6-1.6 1-2.2.7-1 .5-1.9-.4-1.7 0-.1-1 0-2.2.1m-57.4.7c-.1.3.3.9 1.3 1.9l1.4 1.4.5-.7c.5-.8.1-1.7-.8-1.7-.2 0-.7-.3-1.1-.7-.8-.8-1.1-.8-1.3-.2m22.6-.3c0 .9.8 1.1 3 1.1 2.4 0 2.5 0 2-.8-.2-.5-5-.8-5-.3m-12.8 2.1c5.4 4.9 5.7 15 .7 20.6-1.9 2.1-7.7 4.4-13.1 5.2-4.9.7-10.2 2.9-12.4 5.2-1.3 1.3-1.1 1.6.3.4 2.3-2.1 7.3-4 12.1-4.6 5.8-.8 12.9-3.6 15.1-5.9 4.3-4.7 4.7-9.1 1.4-15.6-.6-1.2-1.1-2.2-1.1-2.4 0-.5-2.1-2.6-3.5-3.6-1-.6-.9-.5.5.7m78.5-.3c-1.4.5-1 .8 1.1.9 1.1 0 2.2.2 2.3.3.2.1.9.3 1.6.4 1 .1 1.5.4 2.2 1.1 1.1 1.1 1.7.9 1-.3-1-2.1-5.5-3.4-8.2-2.4m-63.7 1.2c.5.8 4.9 1.3 4.9.6 0-1-.9-1.4-3.1-1.4H169l.5.8m-20.1.2c-.7.9-.7 1.2-.1 1.6.4.2.6.1 1.2-.7.7-1 .7-1 .2-1.3-.7-.4-.7-.4-1.3.4m-25.4.2c-1.5.3-3.3.8-4 1l-1.2.4-.2 1.9c-.2 2.1 0 2.5 1.6 3.2 1.4.6 1.7.3.5-.7-1.1-1-1.3-.8 3-1.8 4.4-1 3.9-1 6.3.1 2.5 1.1 2.6.7.3-.9-.9-.6-1.7-1.2-1.8-1.2-.5-.4.4-.3 1.4.2 2.1.9 2.1.5-.1-1.1-.9-.6-1.6-1.3-1.6-1.4.1-.5-1.2-.3-4.2.3m27.7 1.2l-.7 1 .6.5c.8.6.7.6 1.6-.5l.7-.9-.8-.5-.8-.5-.6.9m77-.7c-1.2.5-1.9 1.4-.9 1.2.4-.1 1.4-.3 2.3-.5 2.3-.4 2.8-1.1.8-1-.8 0-1.8.1-2.2.3m-57.4 2.8c.6 2.8 1.3 10.9 1.3 15.5 0 2.1.1 4.7.2 5.7l.7 7.7c.2 3.2.6 6 .7 6.1.2.2.2 0 .2-.3s.6-2.5 1.4-4.9c1.3-4.2 1.4-4.4 1.2-6.6l-.2-2.3.6.9c.5.8.6.8.8.4.3-.6.1-1.5-.7-2.5-.6-.8-1.2-2.5-.8-2.5.1 0 .6.6 1 1.2 1.4 2.4 1.5 1 .1-1.8-1.4-2.7-1.7-4.2-.6-2.7 1.6 2.3 1.5.8-.1-2.4s-1.2-4.2.6-1.3c.7 1.2 1 .6.3-.7-.6-1.3-1.5-3.2-2.1-4.3-.9-1.7-.3-1.5 1 .3 1.1 1.6 1.8 2.2 1.8 1.6 0-.1-.7-1.6-1.6-3.2-2-3.8-1.7-4.8.4-1.2.6 1 1.2 1.5 1.2 1 0-.4-2.5-4.8-3-5.4-.5-.5-.8-.6-2.7-.6h-2.2l.5 2.3m126.5-1.5c0 .5-2 .9-3.3.7-1.9-.3-.1-1.2 2.4-1.1.6 0 .9.1.9.4m-29.2.2c1.1.3 2.6.5 3.4.5 4.9 0 9 4.6 9.1 10.1 0 1.7.5.2.6-1.9.2-5.2-4.5-8.8-11.8-9.2l-3.3-.1 2 .6m-54.1.5c-.5.9-3.2 3.9-2.9 3.2.2-.5 3.1-4 3.2-4 .1.1 0 .4-.3.8m-60.4.4c-1.3 1.3-.8 2.2.7 1.2.9-.6.9-.6.5-1.3l-.5-.6-.7.7m73.9-.4c-1.6.2-2.1 1.8-2.6 7.4-.2 1.8-.5 5.1-.7 7.3-.2 2.3-.5 6.8-.6 10.1-.1 3.3-.3 6.3-.4 6.7-1.7 7.6-1.7 25.7.1 29.4l.6 1.3h3.2c4.3 0 5.8-.2 5.7-.8-.1-.4-.6-.4-3.1-.5-4.4-.1-4.7-.1-4.4-.3.1-.1 1.3-.4 2.5-.7 3.9-.8 4.3-1.2 1-1.2-2.2 0-2.2-.4.1-.9.8-.2 1.4-.4 1.4-.6 0-.1.1-3.4.3-7.3l.3-7.1-.8-.9c-.4-.5-1.3-1.8-1.9-2.8l-1.1-1.9-.1-4.9c-.1-3.1.1-6.8.3-9.7.2-2.6.7-8.2 1.1-12.4.6-7.4.8-8.7 1.4-9.8.4-.6.3-.7-2.3-.4m87.3 0c-1 .2-.5.7.7.8.9.1 1.1 0 1.1-.3 0-.2-.1-.4-.2-.4s-.4 0-.6-.1c-.2-.1-.7-.1-1 0m-4.6 3.5c.4 1.7 1 3.9 1.1 4.9.2 1 .5 2.5.8 3.2.4 1.2.4 1.4.1 1.7-.5.4-.4.5-1.1-1.8-1.4-5.2-2.6-11.9-1.9-11.2.1.1.5 1.6 1 3.2m-73.3-2.6c-2.3.4-3.2 2.3-3.5 8.3-.1 2.1-.4 4.4-.5 5.1-.2 1.1-.9 12.7-.9 17.5v1.7l1.6.9c1.6.9 6 1.3 6.6.7.1-.1.4-.2.6-.2.2 0 1-.8 1.7-1.7.7-1 2-2.6 2.9-3.6 1.7-2 2.4-3.5 2.4-4.9 0-.5.1-2 .2-3.3.8-7 .8-14.9-.1-16.5-.4-.8-.5-.3-.2 1.3.2 1.1.2 2 0 3.6-.2 1.1-.4 4-.6 6.4-.2 2.4-.3 5.2-.4 6.1l-.2 1.7-.8-.2c-1.1-.2-1-.1-.5-1.4.6-1.6.2-1.7-1.1-.2-1.5 1.7-1.5 1.5 0-1.2 1.8-3.3 1.3-3.3-1.1-.1-1.4 2-2.6 3.1-1.6 1.6.7-1 3.3-6.3 3.3-6.6 0-.5-.8.5-2.5 3.1-1.9 2.9-2.7 3.9-3.1 3.9-.5 0-.2-.6.9-2.2.6-.9 1.5-2.3 1.9-3.1.4-.8 1.2-2.1 1.7-2.9 2.3-3.5-.3-.8-3.3 3.4-1.2 1.7-1.6 2.1-1.7 1.7-.1-.3.8-1.9 2.4-4.1 4.7-6.8 4.6-7.7-.1-1.6-1.6 2.1-1.9 2.4-2 1.9 0-.3.1-.9.4-1.2.3-.3.9-1.2 1.4-1.9.5-.7 1.5-2.2 2.3-3.3 1-1.3 1.4-2 1.2-2.2-.3-.3-1.6 1.2-3.5 4.1-.6.8-1.2 1.7-1.5 1.9-.9.8-.2-.6 2.1-4.2 2.6-4 2.9-4.8.5-1.7-2.6 3.4-3 3.8-3 3.2 0-.3.3-.9.8-1.5 1-1.2 2.7-4.2 2.7-4.6 0-.2-.7.5-1.6 1.4l-1.6 1.7.4-1.3c.2-.7.5-1.7.7-2.1l.3-.8-1.7.1c-3 .1-2.1-.6 1.3-1.1l1.6-.2H240c-2.9 0-2.6-.3 1-.9l2.9-.4h-2.7c-1.4-.3-3.2-.2-3.8-.1m59.8.1c1.2.5.4.9-1.7.9-2.8 0-2.9-.5-.1-.9.4-.1.9-.1 1.1-.1s.5 0 .7.1m-141.8 1.5c-.8.6-.9 1.1-.5 1.9.5.8 1.9 0 1.7-1-.3-1.4-.4-1.5-1.2-.9m159.8 0c0 .6.3.7.7.2s.4-.7-.2-.7c-.3-.1-.5.1-.5.5m-52 .3c0 4 3.1 9.1 7.4 11.9 2 1.3 2.5.9.5-.5-3.9-2.7-5.8-5.4-6.9-9.7-.5-2.2-1-3-1-1.7m33.3.4c1 .6.1 1.1-2.1 1.1-2 0-2.1 0-1.9-.5.4-.6 3.3-1 4-.6m-10.8 2.5c-1.1 1.5-1.7 2.5-1.8 3.3-.1.6-.3 1.3-.6 1.4-.5.4-.5 1.3 0 1.3.2 0 .5-.1.5-.3.2-.4 1.1-.3 1.4.1.2.2.7.6 1.2.8.5.3.9.6.9.9 0 .3.2 1.3.5 2.3 2.8 9.7 2.5 22.1-.6 25.7-1.8 2.1-1.7 1.9-1.4 3.8.3 1.7 1.4 4.3 1.9 4.3.1 0 .3.2.4.5.2.4.4.2 1.7-1.4.8-1.1 2.7-3 4.2-4.3l2.6-2.4-.9-1.6c-1.8-3.3-2.5-5.8-2.8-10.4-.2-3.9-.3-4.2-1.8-9.9-.5-1.9-1.2-4.5-1.5-5.9-.3-1.3-.9-3.5-1.3-4.8-.4-1.5-.7-3-.7-4.1.2-1.9 0-1.9-1.9.7m-206.5-1.2c0 .2.4 1 .8 1.8l.8 1.4h2.9c3.1 0 3.2 0 2.6-1.2-1-1.8-2.1-2.4-4.7-2.4-2 0-2.4 0-2.4.4m115.2 1.3c-9.3 1.5-11.2 1.9-11.2 2.3 0 .5.8.5 4.7-.2 2.2-.4 6.7-1.1 10.1-1.5 3.3-.5 6.1-.9 6.1-1v-.6c-.1-.6-.1-.6-9.7 1m71.8-.9c0 1.5 1.3 4.2 2.5 5.3.9.8 5.7 3.9 6 3.9.9 0-.1-1-2.4-2.6-3.7-2.4-5.5-4.5-5.5-6.6 0-.2-.1-.5-.3-.6-.2.1-.3.3-.3.6m-110.4.9c-.9.6-.8 1.1.3 1 .8-.1.9-.2.9-.7.1-.8-.3-.9-1.2-.3m58.3 1.1c-1.9 2.4-2.8 3.4-2.8 3.1 0-.5 3.3-4.6 3.8-4.6.1 0-.4.7-1 1.5m88.7.5c.1.6.3 1.7.4 2.4.1.7.4 2.4.6 3.7.2 1.3.4 2.6.5 2.9.1.4 0 .5-.6.5s-1.1.3-1.7.8l-.9.8.9-.4c.5-.3 1.5-.4 2.2-.4 1.8 0 1.8 0 .2-5.6-1.3-5.1-1.8-6.6-1.6-4.7m-170.4.1c.4.4.5.5.7.2.3-.5 0-.8-.6-.8-.5.1-.5.1-.1.6m2.9.6c-1.6 2.8-6.5 6.6-9.9 7.6-2.8.8-7.7 3.9-7.7 4.8 0 .6.5.5 1.6-.4.9-.8 4.6-2.5 6.7-3.2 4.5-1.5 11.2-7.2 11.2-9.5-.1-.9-1.3-.4-1.9.7m20.6-.2c-1.3.7-1.2 1.4.1 1.7l1.1.3v-1.2c0-1.2-.2-1.4-1.2-.8m-25.9.2c-.4.6 1.4 2 1.9 1.5.4-.4.4-.5-.3-1.1-.8-.7-1.3-.9-1.6-.4m-31.1.9l.3.7-1.8-.2c-1-.1-2.1-.2-2.5-.2-2.1 0 .4-.8 3.3-1 .2.1.5.4.7.7m116.9-.5c0 .3-3.5 4.7-3.7 4.6-.2-.2 3.2-4.7 3.5-4.7.1-.1.2 0 .2.1m-138 .9c-.9.1-2.4.3-3.5.3l-1.9.1-.8 1.5c-1.6 3.2-1 7.8 1.2 9.2.7.4 3.1.4 3.5.1.2-.2 0-.3-.9-.3-1.9 0-2.2-.7-.4-.9 1.7-.2 1.7-.7.1-.7-2.9 0-3.5-1.2-.8-1.5 2.8-.3 3.5-.6 1.2-.7-3.8-.1-4.9-1.4-1.5-1.7 2-.2 3.7-.8 3.7-1.2 0-.2-.1-.3-.3-.3-.2 0-.2-.1-.1-.2s.5 0 .8.2c.4.2.9.3 1.3.2.3-.1 2.1-.2 4-.3l3.3-.1.3.7c.2.4.4 1.3.6 2.1.2.7.5 1.7.8 2.2l.5.9-.7.2c-.4.1-.9.2-1.2.3-.4.1-.7-.4-1.6-2.2l-1.2-2.3H82c-3.1 0-3.2.1-3.2 1.9 0 .9.2 1.8.4 2.1.3.5.4.4.2-.6-.3-2.4 3.7-3.4 5-1.2 1.5 2.5 2.6 3.3 4.5 3.3 2.4 0 2.7-.4 1.4-1.9-1.7-2.1-2.2-3.7-.7-2.7 1.4 1 1.5.4.3-1.3-1.3-1.7-1-2.1.5-1 1.1.8 1.3.5.5-.8l-.6-1c0-.2 1.3-.3 1.5-.1.1.1.2-.1.2-.4 0-1.2-1.1-1.4-6.7-1.6-2.1-.1-4.3-.2-5.1-.2-.2-.3-1.6-.2-2.4-.1m49.8.3c-.6.3-.8.7-.4.7.1 0 .6.4 1 .8.8.8.8.8 1.5.3 1.5-.9-.4-2.6-2.1-1.8m26.7.9c-.4.4-.2.8.6 1.2.8.5 1.6.1 1.6-.8.1-.4-1.8-.7-2.2-.4m-30.5.3c0 .1.3.6.8 1.1.4.5.9 1.1 1 1.3.2.4.3.4 1.4 0 1.3-.5 1.2-.7-.4-1.7-1.2-.8-2.8-1.1-2.8-.7M97 158c-1.8.3-2.5.8-.9.8 4.1-.1 4.3-.1 4.2-.6-.2-.5-.9-.6-3.3-.2m23.1-.1c-.5.2-.5.3.9 1.7l1.5 1.6 1-.3c.6-.2 1-.4 1-.5 0-.4-2-2.1-2.7-2.4-.8-.4-.8-.4-1.7-.1m32.5 1.5l-.6.6 1 .5c1 .5 1 .5 1.6-.1l.6-.6-.6-.5c-1-.7-1.3-.7-2 .1m-36.1 0c-1 .5-.9.5.5 1.2.7.3 1.6.9 2 1.3 1 1 2.7.4 1.9-.7-1.2-1.8-3.1-2.5-4.4-1.8m182.3 1.6c.5 3.7 1.4 6.3 2.4 6.3.7 0 .9-.5.3-.7-.5-.2-.6-.6-1.5-4-.7-3.2-1.5-4.2-1.2-1.6m-98.1-.4c-.6.1-1.6.2-2.2.2-1.2 0-2.3.7-5 3.3l-1.3 1.3 1.5-.1c.8-.1 1.7-.2 2-.2.8-.1.8 1.6-.2 4.6l-1.5 5.2c-.7 2.9-1 3.3-1.5 2.9-.4-.3-3.7-.1-7 .6-2.7.5-2.9.3-2.3-2.2.8-3.2.9-3.8.5-3.5-1.8 1.4-4 3-4.2 2.8-.1-.1 1-1.2 2.3-2.5 2.5-2.4 4.1-5.2 3.2-5.7-.1-.1.1-.5.5-.8.5-.5.8-.6.9-.3.2.2.6.3 1.8 0 1.8-.3 1.6-.2 4.9-2.8l2.3-1.9-1.4-.1c-.8 0-3.2.3-5.6.7-2.3.4-4.5.8-4.9.8-1.5 0-2 .8-3.1 5.1-.3 1.2-1 3.5-1.5 5s-1.7 6-2.7 9.9c-1 3.9-1.8 7.4-1.9 7.7-.1.5.1.3 1.2-.9.8-.9 1.5-1.5 1.5-1.4.1.1-.7 1-1.6 2-1.1 1.2-1.8 2.1-1.8 2.4 0 .3-.4 1.8-.9 3.3-.9 2.5-2.1 7.9-3.2 14-.8 4.2 0 13.8 1.1 13.7 4.7-.2 7.8-1.2 3.8-1.2-3.3 0-3.9-.7-.8-.9 2.6-.2 2.9-1.2.5-1.5-1.4-.1-1.3-.5.2-.8l.8-.2-.1-1.9c-.1-1-.1-3.2-.1-4.9 0-1.7-.1-3-.1-3-.4 0-1.9 1.6-2.3 2.4-.3.5-.6 1-.9 1-.2.1-.1-.2.2-.6.4-.4.5-.7.4-.7-.2 0-.4.2-.6.4-.4.5-.8.5-.6 0 .1-.3 3-2.8 3.9-3.4.1-.1.4-1.2.6-2.4.2-1.3.5-2.8.7-3.4.4-1.6.2-1.6-1.9.4-1.1 1-2 1.8-2.2 1.8-.5 0 .4-1 2.6-2.9 1.3-1.1 2.4-2.2 2.4-2.5.1-.3.5-1.8.9-3.5 2.7-10.6 3.5-11.9 7.2-12.3 1-.1 2.7-.3 3.8-.5 1.1-.2 2.6-.4 3.2-.5l1.2-.2 1 1.5c1.1 1.7 1.1 2 .6 4.2-.6 2.4-.5 2.4 2.4-.5 3-3 3-3.1 4.7-10.6.4-1.9 1.2-5.6 1.8-8.1 2-7.9 1.5-9.2-3.2-8.3m79.2.4c-3.3.5-3.8.7-4.6 2.8-1.6 3.7-1.4 14.4.3 16.3l.5.6-.1-1.1c-.8-6-.1-14.5 1.4-16.2.3-.3.8-.5 1.5-.5 3.9 0 5.9 15.3 2.5 19.2-1.6 1.8-1.5 1.9.8 1.9 2.4 0 3.4-.4 1.7-.6-2.3-.4-1.1-1 1.9-1 2.1 0 2.1 0 2.1-.7 0-.6-.1-.7-1.6-.7-1.2 0-1.6-.1-1.6-.4 0-.4 1.8-1 3-1 1.1 0 1.3-5.8.3-11.5-.6-3.4-.4-3.1-2.9-3.3-2.9-.2-3.1-.8-.3-1.2 3.1-.5 2.5-1.1-.8-1-3.1.2-3.2-.3-.3-.9 4.3-.7 1.5-1.4-3.8-.7m-129.7.5c-.8.4-.8.6.1 1.1.8.6 1 .5 1.9-.1 1.2-1-.4-1.8-2-1m-47.3 1.2c.7.7 1.9 3.4 1.6 3.7-.2.2-2.9-3.4-3.1-4.2-.3-.9.1-.8 1.5.5m12.7.2c.3 2.3.5 2.4 1.9 1 1.1-1.1 1-1.3-.4-2-1.6-.8-1.7-.7-1.5 1m31.6 0c-.6.2-.6.4.2 1.1l.6.6 1-.5 1-.5-.6-.4c-.7-.5-1.3-.5-2.2-.3m166.8.8c.8 5.2 3.3 15.1 4 15.7 1 .9-.2-5.6-2.4-12.9-.6-2-1.1-3.6-1.1-3.7 0 0-.1-.1-.3-.1-.3 0-.3.4-.2 1m-233.2.8c0 1.1.8 2.7 1.5 2.9.3.1.6.3.7.5.4.6.7.1.5-.9-.1-.6-.4-1.3-.8-1.6l-.7-.6.6-.2c.9-.3.5-.9-.7-1l-1.1-.1v1m63.2-.5c-.2.1-.6.2-.8.3-.3.1-.1.3.5.7.5.3.9.6.9.8 0 .1.6 0 1.2-.2l1.2-.4-.7-.6c-.7-.8-1.4-.9-2.3-.6m-50.9 1c-.2.2-.2.4 0 .5.1.1.4-.1.6-.4.3-.6-.1-.7-.6-.1m46.7-.2c-1.1.3 1.3 2.1 2.5 1.7 1.2-.3 1.2-.6.1-1.4-.9-.5-1.5-.6-2.6-.3m-4.3.8c-.3.2-.2.3.3.4.4.1 1 .5 1.5.8.8.7 2.7.5 2.3-.2-.5-.8-3.2-1.5-4.1-1m-31.7 1.2c.8.8 1.3 1.5 1.5 2.2.3 1.2.5 1.3-1.9-.9-.9-.9-1.7-2.4-1.1-2.4.2 0 .8.5 1.5 1.1m28.8-.3c-.7.3 1.5 2.1 2.5 2.1 1.9 0 2-1 .2-1.7-1.6-.8-1.8-.8-2.7-.4m59 .2c-1 .1-1.6.4-2.4 1.1-1.3 1.1-1.3 1.1.3.7 1.9-.4 3.1.4 1.9 1.4-1 .8-3.7.6-3.7-.4 0-.3-.1-.3-.7.2-.7.5-2.5 6.7-2.1 7.1.3.3 1.8-.7 4.2-2.7 1.5-1.2 3.1-2.5 3.5-2.8.6-.4.9-1 1.3-2.3.3-.9.5-1.9.6-2.2.3-.4-.2-.4-2.9-.1m111.7.4c-.1.2.3 1.9.9 3.8.6 1.9 1.4 4.9 1.8 6.6.8 3.7 1.5 5.5 2.1 5.5.6 0 .5-1-.5-5-1.9-7.3-3.8-12.1-4.3-10.9m-116.7.7c-.3.8-.1.8.8.1l.8-.6h-.7c-.5 0-.8.1-.9.5m-57.4.2c-1.3.5-1.8.9-1 .9.3 0 1.2.2 1.9.4 1.3.4 1.4.4 2.4-.1l1-.5-1.2-.5c-1.4-.7-1.7-.8-3.1-.2m-41.9.7c-.4.5-.1 3.9 1 10.6l.2 1.2 3.1-.1c3.8-.1 3.6 0 3.4-2.4-.2-2.7-.6-3.3-.8-1.2-.3 2.7-.5 2.9-2.7 2.4l-1.2-.3.2-2.3c.1-5.3-1.6-9.9-3.2-7.9m18.4 2.8c.1.2.2.8.3 1.3l.2.9-1-1.2c-.5-.7-1.3-1.5-1.6-1.7-.4-.3-.7-.8-.9-1.3l-.2-.8 1.5 1.2c1 .7 1.7 1.4 1.7 1.6m-28.2 3.8l.2 6.3s1.3 0 2.8-.1l2.8-.2-.1-3.1c-.1-4.2-.6-5.4-.6-1.5 0 3.6 0 3.7-2 3.4-1.4-.2-1.5-.2-1.5-.9 0-.4-.1-.9-.2-1.2-.1-.3 0-.4.3-.4.8 0 .3-7.1-.6-8-1.2-1.3-1.3-1-1.1 5.7m13.3-5.9c-.2.3.7 6.9 1 6.9.3 0 .2-6.5-.1-6.9-.3-.3-.6-.4-.9 0m110.6 1.9c-3.3 3.2-5.2 4.8-5.4 4.6-.1-.1.6-.9 1.6-1.8 5.2-4.7 7.9-6.7 3.8-2.8m-75.2-1.5c-1.1.7-2.2 2.3-2.1 3 .1 1.1 1.7 1.4 2.5.4.3-.4 1.3-1.2 2.2-1.9 1.6-1.1 1.7-1.2 1.1-1.5-1-.4-3-.5-3.7 0m151.8.5c-.7 1-.6 5.1.2 5.7 1.7 1.2 2.3.1 2-3.5-.2-2.8-1.1-3.7-2.2-2.2m-197.8-.1c-.2.3.4 5.3.6 5.8.2.4.6-5.1.4-5.7-.2-.4-.8-.5-1-.1m162.9.9c.7.2 1.8.5 2.3.7l1 .4-1 1.7c-.6.9-1.5 2.2-2 2.8-.5.6-.9 1.2-.9 1.3.1.4-1.5 2.6-1.8 2.5a74 74 0 0 0-5.6-.9l-1.6-.2.1-1.6c.1-.9.2-1.7.3-1.9.1-.1.2-.5.2-.7 0-.3.9-1.4 2.1-2.6l2.1-2.1 1.8.1c.9.1 2.3.3 3 .5m-53 2.7c-1.5 1.3-2.8 2.4-2.9 2.4-.1.1 1.1.1 2.5-.1 2.8-.2 3.1-.4 2.9-1.4-.1-.3 0-1.2.2-1.8.5-1.6.4-1.6-2.7.9m48.4-1.8c-1 .4-.3 1.1 1.2 1.3.9.1 2.1.2 2.7.3.9.1 1.1.1 1.1-.2 0-.6-4.2-1.7-5-1.4m-123.1 2c-.4.1-1.3.4-1.9.6-1.8.6-7.5 6.1-9.6 9.2-.6 1-2.4 3.2-4 4.9-1.6 1.7-3.8 4.5-5 6.1a87.5 87.5 0 0 1-3.7 4.7c-3.5 3.9-11.8 15.3-13.3 18.1l-.9 1.7 1.1.1c1.2.1 1.2.1.6 2.3-.3.9-.6 2.3-.7 3.1-.3 2.4-.8 1.8-.9-1.2-.1-2.6 0-2.9.7-2.2.2.2.2.1-.1-.3-.3-.4-.6-.5-.8-.3-.4.3-1.2 6.2-1.2 8.9 0 .4-.2 1.1-.4 1.5-.2.5-.5 1.9-.5 3.8-.3 6.7-3.3 8.9-8.7 6.4l-1.6-.7-.7.7-.7.7 1.7.8c7 3.3 12.5-.6 11.8-8.5-.2-2.7.5-4.3 2.5-6 .8-.7 1.6-1.4 1.7-1.7.6-1 3.2-3 3.8-2.8.7.2 1-.2.9-1.4-.1-1.1.5-1 1 .2.2.5.5.8.6.7.1-.1.2.3.3.8.1.7 0 1.1-.2 1.4-.5.5-.5.7 0 .5.6-.2.5 1.2-.1 1.8-.6.5-.7 1-.2 1 1.1 0-.4.4-2.1.6-6.4.6-6.8.7-6.9 1.6 0 .3-.1 1-.2 1.6-.2 1.3.5 1.4 1 .2.5-1.1 1.3-1.5 4.4-1.8 1.5-.2 3-.4 3.4-.4.6-.1.7 0 .7.3 0 .5.4.5.8 0 .2-.2.6-.5.9-.6.3-.1 1.1-.6 1.6-1.2.6-.6 1.7-1.6 2.4-2.3.7-.7 1.8-1.9 2.4-2.8s1.8-2.4 2.7-3.5c.9-1.1 1.9-2.4 2.2-2.9.4-.5 1.3-1.6 2.1-2.5.8-.9 2-2.5 2.7-3.5.7-1.1 1.8-2.7 2.6-3.7.7-.9 1.2-1.8 1.1-1.9-.3-.3-2.6 2.2-4.7 5.3-1.2 1.7-2.9 4-3.9 5.1s-3.3 3.6-5 5.7c-1.8 2-3.7 4.2-4.3 4.7l-1 1v-.9c0-.5-.1-1.4-.2-2.1-.2-1.2-.1-1.2 1.7-3.6 2.3-2.9 2.2-3.4-.3-.8-1 1.1-1.9 1.9-2 1.9-.5 0 .4-1.4 3.8-6 2.1-2.9 3.8-5.3 3.7-5.4-.3-.3-2.5 2.1-5.2 5.6-2.3 3-2.6 3.4-2.8 2.9-.5-1 4.3-7.4 11.6-15.3 1.6-1.7 2.9-3.3 2.9-3.4 0-1-3.8 2.3-7.1 6.2-4.8 5.7-6.1 7.3-7.2 9-1.2 1.9-1.9 2-1.9.5 0-1 8.9-11.9 12.8-15.7 3.2-3.2 5.8-6.1 7.2-8.5.8-1.3.7-1.6-.3-.6-.5.4-1.1 1-1.4 1.2-1.4 1-13.9 14.8-16.3 18-1 1.4-.7.2.6-1.8.7-1.1 2.5-3.5 4.1-5.4 1.6-1.9 5.4-6.6 8.4-10.4 3.1-3.8 6.2-7.7 7-8.6.8-.9 1.7-2.1 2.1-2.7.3-.5 1.7-2 2.9-3.4 2.2-2.3 2.3-2.4 1.2-.8-.6.9-1.1 1.7-1.1 1.8 0 .3-1.7 2.5-4.9 6.3-4.6 5.6-3.4 5 3.1-1.5 3.1-3.1 5.9-5.7 6.4-5.9.9-.4.9-.5-3.4 4.7-2.2 2.6-2.8 3.5-2.5 3.8.2.2 5.3-4.9 7.1-7.1.7-.8 1.3-1.4 1.4-1.3.1.1-.3.8-.9 1.5-1.5 1.7-3.6 4.9-3.4 5.1.1.1 1.2-.9 2.5-2.1 2.9-2.9 4.1-2.9 4.5 0 .1.6.3 1.1.4 1 .4-.2.3 1.6-.2 2.8-.5 1.5-.1 1.1 1.1-1.2 1.1-2.1 1.2-3.5.4-5.1-.3-.6-.5-1.2-.5-1.5 0-.5-3.1-3.4-3.6-3.4-.2 0-.6-.3-.9-.6-.9-1.4-3.2-1.8-5.2-1.1m121.7.5c.1.7 4.2 1.6 4.8 1 .5-.5 0-.8-1.8-1.2-2.3-.6-3.1-.5-3 .2m-25.1.6c-2.4.3-2.8.5-2.5 1 .3.5 6.4-.4 6.2-.9-.1-.4-1-.5-3.7-.1m-14.3 1.8c-1.5 1.6-4.9 4.6-5.1 4.4-.1-.1 1.1-1.3 2.7-2.7 2.9-2.5 4-3.3 2.4-1.7m37.6-.1c-.2.6.3 1 2.3 1.5 2.1.5 2.6.4 2.6-.3.1-1.1-4.5-2.2-4.9-1.2m-107 .5c0 .4.1 2 .3 3.5l.3 2.7-.9 1.2a49 49 0 0 0-2.5 3.6c-.9 1.3-2.3 3.4-3.2 4.7-3.7 5.1-2.7 4.2 2.2-1.9l3.6-4.5.8-.9v.9c0 .8-.3 1.3-1.8 3-1 1.1-2.7 3.5-3.9 5.1-1.1 1.7-2.5 3.7-3.1 4.4-.5.7-.9 1.3-.7 1.2.4-.2 2.2-2.3 5.1-5.8 1.5-1.8 2.9-3.6 3.2-3.8 1.1-1 .6.3-.6 1.8-.7.7-2.2 2.9-3.4 4.7-1.2 1.9-3.3 4.6-4.6 6-3.5 3.9-4.7 5.4-5.3 6.5-.3.5-1.9 3-3.7 5.4-3.7 5.2-5.8 9.3-4.6 9.3.3 0 .4 1.3.3 7.9-.1 8.8.1 7.8-2.2 11.5-1.9 3-.9 3.7 1 .7.8-1.1 1.8-2.5 2.2-3.1.7-.9.8-1.1.5-1.6-.3-.5-.2-1.1.1-3 .4-2.2.6-8.8.3-9.1-.1-.1-.2 1.1-.3 2.6-.1 1.5-.3 2.7-.4 2.7-.2 0-.1-4.5.2-9.5l.1-2.2 2.7-3.7c1.5-2 3.6-4.8 4.6-6.2 2.5-3.4 7.9-9.9 11.3-13.5 2.9-3.1 4.2-5 3.9-5.6-.1-.2 0-1 .1-1.8.5-2.4.3-5.5-.5-9.7-.9-4.1-1.1-4.9-1.1-3.5m84.3.1c-1.5.2-1.8.5-1 1 .3.2 1.1.1 2.3-.1 1-.2 2.2-.3 2.6-.3.4 0 .6-.1.6-.3-.2-.5-2.2-.6-4.5-.3m-30.4 2.9c-.7 1-3.2 3.4-3.2 3.2 0-.2 3.5-3.9 3.7-3.9 0-.1-.2.3-.5.7m-90.6 1.2c-.3.8 1 7.1 1.5 7.1.3 0 .3-4.1-.1-5.9-.3-1.5-1-2.1-1.4-1.2m225.4.1c-2.9.6-9.6 2.6-10.1 3-.1.1.2.4.7.7 1 .5 2.6 2 2.6 2.4 0 .9.4.9 5.3-.2 2.7-.6 5.3-1.3 5.7-1.5.6-.2.8-.2.9.1.3.9 2.2.4 2.2-.6 0-3-3.4-4.7-7.3-3.9m-238 4.1c.2 4.4 1.3 5.4 1.3 1.2 0-3-.2-3.7-.9-3.7-.5.1-.5.2-.4 2.5m162.1-1.3c-.3.7-.6 4.3-1.1 13.3-.2 2.7-.4 5.2-.6 5.5-.2.3-.6 1.1-.9 1.8-.3.7-1.1 1.7-1.7 2.2-1.1.9-1.2 1.5-.2 1.5.7 0 2.4-1.7 3-3.2.3-.7.7-1.4.9-1.6.5-.6.9-3.3 1-6.5.1-1.8.2-3.7.2-4.4.6-4.6.2-10.6-.6-8.6m91.1.1c-4.5 1.7-4.6 1.9-.8 7.5 1.7 2.5 3.5 5.3 4.1 6.3.6 1 1.6 2.6 2.4 3.7.8 1.1 2.2 3.3 3.3 5 2.5 4 2.7 4.2 3.7 3.2 2.2-2 6.5-2.7 9.9-1.6 1.9.6 1.9.6-.4-3-2.9-4.5-3.2-5-5.5-9.1-3.1-5.5-6-9.6-7.4-10.5-2.5-1.6-7.3-2.3-9.3-1.5m-143 .8c-4.8.6-6.3 2-7.3 7-.3 1.5-.6 3-.7 3.4l-.2.7.6-.5c.3-.3.9-1.6 1.3-2.9 1.4-4.7 3.5-6.6 7.9-6.9.6 0 1.3-.1 1.5-.1.3 0 .3-.1-.1-.4-.5-.4-1.2-.5-3-.3m147.1 1.3c.4.5 1.4 1.9 2.1 3.1 2.9 4.9 6.5 10.6 8.1 13.1 2.2 3.2 2.2 3.9.4 3.9-.4 0-1 .1-1.4.3-1 .5-1.5-.1-5.7-6.8-2-3.2-4.6-7.3-5.9-9.1-2.4-3.5-2.5-3.8-1.7-4.4 1.4-1.3 3-1.3 4.1-.1m3.1-.6c1 .4 5.1 6 7.4 9.9 1 1.8 2.8 4.7 4 6.4 1.2 1.8 2.1 3.5 2.1 3.8 0 1.5-1.9.6-3.1-1.5-.9-1.6-4.5-7-6.8-10.2-4.9-6.8-6.1-9.5-3.6-8.4m-142.2 2.9c-2.6 2.6-2.7 2.8-3.3 4.7-1.2 4.5-3 12.9-3.2 15.6-.1 1.6-.4 4-.5 5.3-.2 2.2.1 4.7.7 6.3.1.4 1.2.3 3.9-.3 1.7-.4 1.4-.7-.7-.9-1-.1-1.7-.3-1.7-.4 0-.2 1.9-.8 2.7-.8.5 0 .6-.1.4-.5-.6-1.4-.4-6.7.4-12.5.5-3.2.8-6 .8-6.1 0-.1-.5.2-1.1.7-1.9 1.6-2 1.4-.2-.4l1.8-1.7.7-3.1c.4-1.7.8-3.4.9-3.7.2-.6-.1-.4-1.5.8-1.9 1.7-2.4 2-2.4 1.6 0-.1 1-1.1 2.2-2.1 2-1.7 3.7-4.6 3-5.3-.2.2-1.5 1.3-2.9 2.8m-121.7-.5c-.8.9-2.1 2.3-2.8 3.1-.7.8-2.1 2.4-3.1 3.6-.9 1.2-2.9 3.5-4.3 5.3-1.4 1.7-2.8 3.5-3 4-.2.5-.9 1.5-1.5 2.2-1.7 2.2-2.5 9.1-1.7 13.4.2.9.8 1.1 1 .3.1-.4.3-.5.7-.4.6.2 1-.3.4-.5-.4-.1-.4-.2 0-.6.2-.3.6-1 .9-1.7 1.8-4.1 3-5.9 3-4.4 0 .2.1.4.2.4s.4.1.7.2c.3.1.5-.1.6-.6.1-.4.6-1.5 1.2-2.4 1.7-2.7 1.6-2.8-.2-1-2.7 2.6-2.4.8.5-2.8.7-.9 1.2-1.7 1.2-1.7-.7 0-2.7 2-4.1 3.9-1.2 1.7-.9.4.4-1.6 1.7-2.7 6.3-8.7 7.4-9.8 1.1-1 3-3.7 2.8-3.9-.1-.1-1.2 1.2-2.4 2.7-2.4 3.1-3.6 4.3-3.8 4-.3-.3.7-1.8 2.2-3.8.8-1 1.3-1.7 1.1-1.6-.2.1-1 1-1.8 1.9-.8.9-1.5 1.7-1.6 1.7-.7 0 0-1.1 3-5.1 4.6-6 4.8-6.4 4.7-6.5-.2.1-.9.8-1.7 1.7m140.6.5c-2.9 1.1-15.3 15-17.1 19.2-.4 1-1.1 2.4-1.5 3.2-1.1 2.3-1.2 6-.3 8.1 1.7 3.9 2.5 4.4 6.1 3.8 1.5-.2 1.2-.6-.4-.6-2.6 0-3-.6-.7-.9.8-.1 1.2-.3 1.1-.5-2-4.6-.7-9.3 4.1-15.3l1.7-2.1.3-3.2c.4-3.7.3-3.5 5.5-8.7l3.1-3.1c.2-.3-1.3-.2-1.9.1M301 190c-2.6.9-5 2.2-6.4 3.6-3.8 3.7-6 10-4.2 11.9.3.3 1.4 2.1 2.5 3.9 1.1 1.8 2.2 3.6 2.4 4 .9 1.1 6.1 9.1 7.2 10.9 1.2 1.9 5.6 7.8 5.8 7.6.1-.1 0-.6-.2-1.1-2.6-7.8 7.8-18.3 15-15.2 1.4.6 0-2.3-4.4-8.9-1.7-2.6-3.7-5.8-4.5-7.1-5.1-8.6-8.6-11.1-13.2-9.6m21.2.5c-9.3 2.3-9.3 2.3-7.8 4.7.4.7 1.1 1.9 1.5 2.8.4.8 1.5 2.8 2.5 4.4 1 1.6 2.4 3.8 3.1 5 .7 1.1 1.8 2.7 2.4 3.5.6.8 1.7 2.3 2.4 3.4 1.9 2.8 3.4 3.2 6.5 1.6.9-.5 2.1-.8 3.6-1 3.2-.4 5-.8 5.2-1.2.4-.9-13.9-23.8-15-24-.2-.2-2.2.2-4.4.8m-231.1.1c-1.5.2-4.4.4-6.6.4-4.6 0-4.6 0-6.8 3.2l-1.3 1.8.1 2.8c.1 4.2.7 4.3 1 .2.2-2.7.5-3 .8-.9.3 2.1.9 1.7.9-.5 0-.9.4-1 .8-.2.3.5.3.5.9-.1.5-.5.9-.7 1.6-.7.6 0 1.4-.1 2-.2.9-.2 1-.1 1.1.7.2 1 .7.8.7-.2 0-1.4.8-1.2.9.2.1 1.7.8 1.8 1 .1.1-1.6.6-2.1.6-.7.1 3.2 1.1 3.4 1.4.3.1-1.2.3-1.6.7-1.7.3-.1.8-.7 1.2-1.3.4-.6 1-1.6 1.5-2.2.9-1.1 1-1.5.5-1.5-.2.2-1.5.3-3 .5m-15.7.9c-.4.6-.7 1.1-.6 1.1.2 0 1.6-1.9 1.4-2 0-.1-.4.3-.8.9m230.4.5c1.3 1.1 6.7 8.6 7.2 9.9.1.2 1.1 2 2.3 3.9 3.3 5.3 3.5 5.7 1.9 6.1-1.3.3-2.1-.4-4.5-4.5-1.3-2.1-3.1-5-4.1-6.3-2.9-4.1-5.5-8.9-5-9 .3-.1.6-.2.7-.3.5-.4.9-.3 1.5.2m-91.1 2.3c-4 3.8-4.5 5.2-3.9 9.9l.2 1.5-1.6 1.8c-.9 1-1.8 2.2-2 2.7-.2.5-.5 1.3-.8 1.8-1.4 3.4-1.1 7.8.5 7.5.6-.1.7-.2.7-1.8 0-2.6 1.5-6.6 3.4-8.9 1.6-1.9 1.6-2.3.5-8.4-.2-1 .8-2.4 4.5-6.7 1.7-2.2 1.3-2-1.5.6m87.2.8c.8 1.2 2 3.4 2.8 4.7.7 1.4 1.9 3.3 2.7 4.3.8 1 2.3 3.2 3.4 4.9l2.1 3.1-.7.5c-.4.3-1.4 1.1-2.1 1.8l-1.4 1.3-.8-1.1c-.4-.6-.8-1.3-.8-1.6 0-1.2-4.3-8.3-8.5-14.2-2.5-3.4-2.5-3.6-.2-5.1 1.9-1.1 1.8-1.2 3.5 1.4m-67.4-.8c-.4 1-.4 2.8-.1 2.8.1 0 .4-.6.7-1.4.5-1.3.5-1.3.9-.9 1.2 1.7 1.1 5-.2 6.4-1 1.1 0 1.1 1 0 2.1-2.1 1.2-7.9-1.2-7.9-.7.1-.9.3-1.1 1m94.3 1.5c2.1 3.5 5.2 8.1 6.7 10.1.9 1.2 1.6 2.3 1.6 2.6 0 .3 0 .7.2 1 .4.9-.5 1.2-3.3 1.2-2.4 0-4.5.2-6.2.7-.6.1-.8.1-.9-.3-.1-.3-.6-1-1-1.6-.5-.6-2.1-3.1-3.7-5.6l-3.2-5c-.2-.3-.4-.7-.4-1 0-.3-.1-.8-.3-1.1-.3-.5 0-.7.4-.3.3.3 8.2-1.5 8.5-2 .2-.6.6-.3 1.6 1.3m-1.8.3c-.2.1-.6.3-.9.3-.3 0-.8.3-1.1.6-.4.4-1.1.6-2.6.7-2.6.2-2.5 0-.7 3 1.3 2.1 5.8 9 6 9.3 0 .1.9-.1 1.9-.3s3-.4 4.3-.4c2.8 0 2.8 0 1-1.9-1.3-1.4-6.4-8.7-6.4-9.2.1-.9-1.2-2.4-1.5-2.1m-146 1.1c-.8 1.1-.5 1.8.3.7.4-.5.7-1 .7-1.1-.1-.4-.6-.2-1 .4m-100 2.4c-.9.9-2.3 2.6-3.2 3.7-.8 1.1-2.7 3.4-4.2 5.1-4.6 5.2-6.7 8.4-6.6 10 .2 2.9-.3 6.1-1.1 7.1-1.8 2.5-9.2 10.8-9.9 11.3-.4.3-2.5 2.6-4.6 5.1-5.3 6.4-9 10.3-9.5 10.1-.3-.1-.7.3-1.4 1.3-1.2 1.8-1.2 2.1-.1 2.1 1.1 0 1.9.6 2.9 2.1 1.2 1.9 0 2.3-1.9.7-1.5-1.4-1.3-.6.2 1 2.4 2.4 3.6 1.6 11.4-7.6 1.5-1.8 3.4-3.9 4.2-4.8 1.8-1.9 3-3.3 2.8-3.5-.1-.1-2.9 2.8-6.4 6.4-5.6 5.9-7.6 7.8-7.4 7.1.1-.4-.6-1.5-1.7-2.6-.9-1-1.1-2.1-.1-1.2.2.2.5.3.7.3.2 0 .6.2.9.5.3.3.6.4.6.2.1-.2.4-.2.9-.2.4.1.8 0 .9-.2.1-.2 0-.3-.5-.1-.9.2-1.8-1-1.3-1.7.6-1 2.2-.6 2.2.6 0 .7 3.4-2.9 3.5-3.6 0-.3.2-.5.4-.5.5 0 2.6-2 2.6-2.5 0-.2.2-.4.3-.4.5 0 1.9-1.5 2.5-2.7.3-.5 2.3-3.1 4.4-5.8 2.1-2.7 4-5 4.1-5.2.2-.5-2.9 2.8-6.2 6.3-1.4 1.5-2.5 2.5-2.5 2.3 0-.5 4.3-5.9 7.1-9 1.3-1.4 2.1-2.5 2.1-2.9 0-.4.1-.8.1-.9.1-.9 2.1-.7 3 .4l.5.6v-.6c0-1-.4-1.6-1.7-2.3l-1.2-.7.2-1.5c.2-2 .9-4 1.4-4 .3 0 .3.2.2.6-.3 1.1-.5 3.3-.4 3.1.1-.1.7-1.2 1.4-2.5.8-1.5 1.2-2.1 1.1-1.6-.1.7-.1.7.2.3.4-.6.6-.6 1.5.2 1.3 1.1 2 .8 1.1-.6-.8-1.3-.5-2 3.1-6.6 5.4-6.8 5.4-7.6.1-1.7a42.8 42.8 0 0 1-3.6 3.7c-.6 0-.4-.2 4.6-6.7.9-1.2 2.3-2.9 3-3.6 1.5-1.6 1.3-1.9-.4-.5-1.7 1.4-1.6 1.1.2-.7 1-1 1.7-2 1.8-2.5.1-.4.2-1 .2-1.3.2-1.5-.8-1.1-2.5.6m212.7.6c1 2.2 4.9 8.4 7.1 11.3 1.1 1.4 2.7 3.8 3.7 5.2l1.7 2.6-.4 1.1c-.2.6-.5 1.6-.6 2.2l-.2 1-1.3-1.9c-1.8-2.7-3-4.6-4.5-7.2-.7-1.2-2.4-3.9-3.9-5.9-3.5-5-3.5-4.9-3.5-6.4 0-1.3.7-3.5 1.1-3.5.1 0 .5.7.8 1.5m34.3.6c.1.6-.2.8-2.1 1-1.4.2-2-.1-1.8-.8.2-1 3.7-1.2 3.9-.2m1.9 2.6c.6.7-.2 1.3-1.8 1.2-1.3-.1-1.5-.2-1.5-.6 0-.8 2.7-1.3 3.3-.6m-163.1 3.9c-4.6 5.5-5.9 9.5-4.7 14.4.8 3.3 1.6 4 4.5 3.8 2-.1 3.2-.9 1.4-.9-1.1 0-3.1-.6-2.9-.8.1-.1.5-.2 1-.2 1.6 0 2.9-.8 1.5-1-2.6-.3-3-.7-1-1l1.1-.2-.2-2.7c-.2-2.9.3-9.4.8-11.8.3-1.8.3-1.9-1.5.4m164.7-1.2c.6.7-.2 1.2-2.3 1.3-2.3.1-2.6-.5-.5-1.2 1.7-.6 2.4-.6 2.8-.1m-149.3.6c-.8.1-1.6.4-1.9.7-.5.5-.4.5.7.3.7-.1 2.6-.2 4.4-.2 2.8 0 3.2-.1 3.3-.5.2-.6-3.2-.7-6.5-.3m-.8 2c-3.9.4-4.3 1.1-.6.9 6.7-.4 7.7-.5 7.7-.7 0-.1-.3-.2-.6-.2s-1.3-.1-2.2-.1c-.8-.2-2.8-.1-4.3.1M61.7 210c.1.8-.1 1.5-.7 3.3-.9 2.4-1 2.3-.6-.5.3-2.6 1.1-4.3 1.3-2.8m12.8.7c-.4.6-1.4 1.9-2 2.9-1.1 1.7-2 2.5-2 1.7 0-.4 4.4-5.7 4.7-5.7 0 .1-.3.5-.7 1.1m108.3-.2c-5.3.2-5.4.3-5.4 1.2 0 .7.1.7 1.1.5 3.6-.5 7.3-.7 8.3-.6.9.1 1.2.1 1.3-.3.3-.8.2-1.2-.3-1.1-.2.1-2.5.2-5 .3m30.1.4c-.1.2-.5.6-.9.7-2.8 1.4-2.5 8.5.3 8.4h1l-.6-.5c-1.9-1.6-.9-6.9 1.5-8.2.4-.2.8-.5.8-.7 0-.3-1.9-.2-2.1.3m-149.8.9c-.1 1-2 5-2.2 4.4-.1-.5.5-2.9 1.1-4.4.5-1 1.1-1 1.1 0m160.9 2.1c-1.1 1.3-2.7 3.4-3.6 4.6-3.4 4.7-6.8 7.5-9.4 7.7-1.9.2-2.1.5-.6 1 2.6.9 7.1-2.8 11.1-9.1.4-.7 1.5-2.1 2.3-3.2 3-4 3.2-4.6.2-1m123.5-1.7c-2.7 1-2.1 6.9 1.1 10.7.9 1.1 1.7 1.2 1.4.3-.1-.3-.2-1.9-.3-3.6l-.2-3 .7-.2c.4-.1 1.1-.5 1.6-1 1.2-1 1.2-1.1 1.3.9.1 1.8.4 2.4.7 1.8.2-.4.1-5.7-.2-5.9-.3-.3-5.2-.4-6.1 0m-167.9.7c-3 .3-2.9.2-2.9 3.4 0 7.6 1 8.7 7.8 8.4 6.1-.2 6.5-.6.6-.6-2.5 0-4.6-.1-4.7-.2-.2-.3 1.4-.6 3.6-.6 3.1 0 5-.3 4.8-.7-.1-.3-.7-.4-3.4-.2-2.2.1-3.3.1-3.3-.1 0-.3 3.9-.9 5.5-.9h.8l-.3-1c-.2-.6-.3-2.5-.3-4.4v-3.4h-2.9c-1.5.1-3.9.2-5.3.3m155.9 4.6c-1.6.8-1.6.9.2 2.9 1.6 1.8 2.8 3.6 3.9 5.8 1.3 2.6.8 2.2-1.7-1.2-2.8-3.8-4.5-5.5-4.5-4.6 0 .3 3.3 5 6.3 8.8 1.2 1.5 2.7 3.6 3.3 4.5.6 1 1.9 2.7 2.8 3.9 1.7 2.3 3.4 4.9 3.3 5.1-.1.1-1-1.1-2.1-2.5-5-6.4-8-10.1-8.7-10.9-.4-.4-1.5-1.8-2.4-3.1-.9-1.2-1.8-2.4-1.9-2.5-.7-.7 1.7 3.2 3.3 5.3l3.2 4.5c1.2 1.8 2.8 3.9 3.6 4.8.8.9 2.1 2.7 2.9 4 1.9 2.9 5.4 7.5 7.1 9.3.7.7 2.4 3.1 3.9 5.2 4.4 6.5 9.7 12.6 9.7 11 0-.3-2.9-4-4.3-5.5-.7-.8-2.2-2.8-3.4-4.6-1.2-1.7-2.6-3.8-3.1-4.5l-1-1.3 1.2 1.3c.7.7 2.3 2.7 3.5 4.4 1.3 1.7 3 3.8 3.9 4.8.9 1 2 2.3 2.4 2.9.8 1.2 1.3 1.4 1.3.8 0-.2-1.1-1.9-2.5-3.8s-2.5-3.5-2.5-3.6c0-.1 1.2 1 2.6 2.4 2.3 2.3 3 2.8 3 2.1 0-.3 2.2-2.4 2.6-2.4 1.7 0 2.4 2.5 1.3 4.4-1 1.7-.1 2.5 1.1 1.1 2.3-2.6 1.9-4.3-2.1-9-3.2-3.7-9.5-12-11.9-15.6-.9-1.3-2.7-3.7-4-5.4-1.3-1.7-3.8-5-5.5-7.3-1.7-2.4-4.1-5.4-5.3-6.8-1.2-1.4-2.6-3.1-3.1-3.7-1.3-1.6-2.3-1.3-1.1.3.4.6 1.7 2.5 2.8 4.3 1.1 1.8 2.6 3.8 3.2 4.5 1.6 1.9 3.4 4.4 4.1 5.6.7 1.2.6 1.1-1.2-1.1-.7-.9-2.2-2.6-3.3-3.9-1.6-1.9-4.5-5.7-6.7-8.9-1.9-2.4-2.5-2.7-4.2-1.8M217 220.3c-2.1 2.1-3.8 3.1-5.2 2.8-1-.2-1.2.2-.6.8 1.1 1.1 5.8-2.1 7.4-5 .5-.6.5-.6-1.6 1.4m104.9-1c-2.1.8-3.1 1.1-4.2 1.1-3.3 0-5.5 6.3-3.6 10.1.8 1.5.8 1.4.7-1.1 0-1.8.1-2.5.6-3.6 1.2-2.6 1.5-2.3 3 2.7.3 1 .8 2.6 1.2 3.5.6 1.4.6 1.8.4 2.3-.2.3-.6 1.7-.9 3-.3 1.3-.9 3.3-1.3 4.3-1.2 3.5-1.2 3.7.2 4.2l1.2.4 1-2.1c.5-1.1 1.2-2.8 1.6-3.7l.6-1.6 1.3.1c.7.1 1.5.2 1.6.4.6.5 3.2-2.3 3.4-3.7.2-1.4-.2-1.5-.8-.3-.2.5-.8 1-1.4 1.2-1.2.5-1.2.5-1.2-.1 0-.4-1.3-5.8-1.6-6.9-.1-.2.3-.6.8-1 4.3-3.6 2.2-11.1-2.6-9.2m-25.4.8c-.1.5-.2 1.3-.2 1.9v1.1l-1.1-1.5c-1.2-1.7-1.3-1.7-2-1-.5.5-.4.6.2 1.7 5.2 9.1 9.1 14.6 10.2 14.6 1.1 0 .7-1.4-1.3-4.3l-2-3v-2.3c-.1-3.7-1-4.7-1.2-1.3l-.1 1.7-.9-1.4c-.9-1.3-.9-1.5-.7-3.3.3-2.8-.5-5.1-.9-2.9m-243.1 3.8l-3.2 3.5.1 1.5c.1.9.5 2.2 1.1 3.6.7 1.5 1 2.6 1.1 3.8.1 1.9.4 2.1 1 .7.5-1.2.5-2.7 0-3.2-.2-.2-.4-.6-.4-.8 0-.2-.3-1-.7-1.8-1.2-2.5-1.1-2.8 2.3-6.7 1.6-1.9 2.9-3.6 2.9-3.8 0-1.1-1.1-.2-4.2 3.2m301.1-2.8c-.5.9-.1 2.6.7 3.1.4.2.8.6.9.9.1.3 1.2 1 2.6 1.7 1.4.7 3.3 1.8 4.3 2.5 1.9 1.2 3.8 1.6 4.1.7.1-.2.3-.3.6-.3 2.4 0-6.7-6.4-11.5-8.1-.7-.2-1.3-.5-1.3-.7 0-.2-.2 0-.4.2m-115.3.4c-.4.2-1.3.4-2 .5-2.2.3-2.6 1.5-2.6 8.4-.1 12.1 1.5 23.6 4.8 33.7 1.7 5.2.4 15.7-2.7 22.4-.7 1.4-.7 1.8 0 1.8 3.4 0 9.4 6.2 10.8 11.1l.5 1.8-.1-1.5c-.2-1.8.5-2.7 3.6-4.5 2.8-1.7 3.7-1.4 4.6 1.5.9 2.9.7 3.5-1.7 4.1-.7.2-2 .7-2.8 1.1-1.7.9-2.7.8-3.2-.1-.4-.8-.4 0-.1 1 .1.4.8 3.3 1.5 6.5s1.7 7.6 2.3 9.8c2.5 9.2 4.2 16.5 4.8 19.5 1 5.7 1.9 10.1 2.4 12.6l.6 2.5 1.1-1c3.9-3.5 9.1-.6 14.3 8.1 2.5 4.2 2.5 1.3 0-4.3-.9-2.1-2.4-5.7-3.2-8-.9-2.3-1.9-5.1-2.3-6.1-.7-1.8-6.2-20-6.8-22.8-.2-.8-1.6-6.5-3.2-12.7-3.9-15.4-8.7-39.5-9.8-49.2-.5-4.2-.7-5.6-1.2-6.8-.9-2.3-1.8-11.7-1.8-18.4 0-4.4-.2-5.8-.7-5.6-.7.3-1-.9-.7-2.7.3-2 .2-2.4-1.3-2.8-1.3-.4-4.3-.3-5.1.1m7.5-.1c0 .1.2.3.4.4.2.1.4.4.4.6 0 .4.1.4.3.1.3-.3.3-.4 0-.5-.2-.1-.3-.3-.3-.5s-.2-.4-.4-.4-.4.1-.4.3m-55.3.3c-.3.4.5 1.3 1.1 1.2.3-.1 1.4-.1 2.5-.1 2 0 2.6-.5 1-.8-1.4-.4-4.5-.6-4.6-.3m-41.6 1.9c-.4.3-1.5 1.6-2.5 2.9-1 1.3-2.2 2.7-2.6 3.2-.8.8-2.5 3.2-6.1 8.6-1.7 2.4-4.5 7.9-6.3 12l-2.7 5.9c-8.2 17.1-12.9 28.8-16.2 40.6-.6 2.1-1.7 5.5-2.4 7.6-2.1 5.8-5.7 17.5-8.6 27.5-.3 1-.8 2.3-1.2 2.9-.4.7-.8 2.2-1.2 4.3-.3 1.8-.8 4.3-1.1 5.6-1 4.3-1.4 20.4-.6 21.2.5.5 1.3-.7 1.8-2.7.2-1.1 1.1-3.6 1.8-5.6 2.2-5.8 3.2-8.9 3-9.4-.6-1.8 3-3.2 6.6-2.6.8.1 1.4.2 1.4.2.2-.2 2.4-7.9 3.4-12.1 4.4-18.1 7.5-28 11.7-37.7 1.9-4.4 3.1-5.6 8-8.4 2-1.1 4.5-2.9 4.4-3.2 0-.1-1.3-2.7-2.8-5.7-3.3-6.7-3.6-7.8-3.4-11.8.2-3.9.1-3.5 6-17.9 1-2.5 2.4-5.9 3-7.5 4.3-11.2 8.7-14.7 11.4-9.4 1.4 2.7 2.3 3.9 2.4 3.1.1-.7-1.4-4.8-2.3-6.4-.5-.9-2-3.9-2.3-4.7-.2-.8-2-1-2.6-.5m98.7.7c-.2 1.5-.2 3.3.1 3.8.2.3.3-.4.3-2.2-.1-2.8-.2-3.2-.4-1.6m1.6.8c-.1.7-.2 2-.3 2.9-.1.9-.3 1.8-.5 1.9-.4.2-.1 10.3.4 13.5 3 19.8 8.5 33 19.1 46.1.6.7 1.3 1.8 1.6 2.4l.5 1.1 2.2.3c4.1.6 9.9 3 14.2 5.8 1 .7 1.1-.1.3-2.2-.9-2.3-1.9-3.8-3.1-4.5-.5-.3-1.3-.9-1.7-1.3-.4-.4-1.9-1.2-3.1-1.9-3.3-1.7-8.9-5.6-9.4-6.6-.2-.4-.7-1-1.2-1.3-2-1.5-6.3-8.7-9.2-15.6-3.4-8-3.5-8.4-4.6-15.2-.4-2.8-.8-16.1-.5-18.8.2-1.6.2-1.8.7-1.6.5.1.5.1.4-.5-.1-.4-.2-1.2-.2-1.8 0-.9-.1-1.2-.5-1.2-.3 0-.9-.5-1.5-1s-1.3-1-1.5-1c-.3 0-.8-.2-1.1-.4-.9-.4-.9-.4-1 .9m-49.5-.9c0 .3 2.3.7 3.6.5 2.3-.3 1.7-.6-1-.6-1.5 0-2.6 0-2.6.1m-7.5.5c.3.3.9.3 2.7.2 3.3-.3 3.2-.5-.2-.5-2.5-.1-2.8 0-2.5.3m-19.7.1c-2 .1-2.7.6-.8.6 2 0 4.7-.3 4.7-.6 0-.1-.4-.2-1-.2-.5.1-1.8.2-2.9.2m180.6 1.7c-.3.5.3 1 2.7 2.2 3.3 1.8 5.4 1.6 2.3-.2-3.3-2-4.7-2.5-5-2m-58.9 1.5c-.1.1-.2.7-.2 1.3v1.1l-.7-1c-.7-1.1-1.9-1.4-2.2-.6-.4 1.1 9.7 16.4 10.8 16.3 1.3-.2 1.1-1.1-1.4-5-1.3-2-2.3-3.8-2.3-4.2 0-1.4-.9-2.7-1.1-1.6-.2 1.2-2.1-2.5-2.1-4.2.1-1.9-.2-2.7-.8-2.1m-110.4.4c-2.2.1-7.2.4-11.2.5-4 .2-8.1.4-9.2.4h-2l-.3 2.7c-.2 1.5-.3 4.9-.3 7.7v5l.6.3c.4.2.7.5.8.8.1.5.4.5 4.5.3 2.4-.1 6 0 8.1.1 4.1.3 16.5.8 20.9.9 3.2 0 4.2-.3 10.3-3.1 1.8-.8 4.2-1.9 5.3-2.4 1.2-.5 2.4-1.1 2.7-1.4l.6-.5-3.2-3.9c-3.9-4.8-6.1-7-7.1-7.1-.4 0-1.9-.2-3.3-.4-2.8-.2-11-.2-17.2.1m-90.9 1.5c-1.8 2.3-8 9.1-8.4 9.1-.6 0-.3-.6 1.4-2.6 4.6-5.6 4.8-6.4.4-2-3 3-3.3 3.2-3.9 3l-.7-.3 1.2-1.3c2.2-2.5 2.3-2.7 1.8-2.9-.2-.1-.6-.1-.8 0-.2.1-1.1.2-1.9.1-2.6-.1-4.7 3.9-2.7 5.2 6 3.7 9.7 10.3 9.7 16.9 0 2.8 0 3.3.3 2.9.4-.5.7-2.6.7-4.7 0-1 .2-1.7.7-2.5.8-1.4.4-1.8-.5-.6-1 1.3-.8.3.2-1.4 1.1-1.7 1.1-1.9.3-1.9-.5 0-.5-.1-.3-.3.4-.4.4-1.3 0-1.3-.2 0-.6.4-1.1.9-.9 1.1-1 .5-.1-.7 1.8-2.4 1.7-3.5-.1-1.9-1.4 1.3-1.6 1-.4-.8 1.5-2.2 1.3-2.6-.5-1.1-1.6 1.3-2 .9-.7-.6 1.2-1.4 3.6-5.1 3.2-5.1-.1 0-1.2 1.1-2.4 2.4-1.9 2.1-3 2.9-3 2.2 0-.1.8-1.2 1.8-2.3 1-1.2 2.1-2.7 2.6-3.3.5-.7 1.5-2.1 2.4-3.1.9-1.1 1.7-2.2 1.8-2.5.7-1.3 0-.8-1 .5m-25.4 3.3c-1.9 2.2-4.1 4.8-4.8 5.6l-1.3 1.6 1.1-1.1c.6-.6 2-2.1 3-3.3 1-1.2 2.5-3 3.3-3.8 1.5-1.7 2.3-2.8 2.2-3 0 0-1.6 1.8-3.5 4m254.4-2.1c.5 2.1.5 2-.1 2-.4 0-.6-.3-.9-1.5-.2-.8-.5-1.6-.6-1.9-.1-.3 0-.4.5-.4.6.1.7.3 1.1 1.8m50-1.2c0 .4-.6.8-2.4 1.8-3.8 2-5.9 3.9-4.2 3.9.4 0 6.5-3.1 7.1-3.6.5-.4.8-.2 3.2 3.2.9 1.3 2.1 2.9 2.5 3.5.5.6 1.3 1.9 1.8 2.9.6 1 2.1 3.4 3.3 5.2 1.3 1.8 2.9 4.2 3.6 5.3 1.5 2.4 2.7 3.9 3 3.7.2-.2-2.2-4.9-3.6-6.9-.6-.8-2-3.2-3.3-5.4-1.2-2.2-3.2-5.3-4.4-6.9-2.6-3.5-2.6-3.6 0-1.8 1.1.7 2.5 1.6 3.1 1.9 1.1.6 2 1.8 3 4 1.8 4.4 4.3 8.4 4.3 7 0-.6-2-6.4-3-9-.9-2.3-4.5-5.3-8.4-6.9-1.1-.5-2.7-1.2-3.5-1.6-1.5-.9-2.1-1-2.1-.3m-166.1 1.7c1.7 1.5 7 7.2 7 7.5 0 .9-1.4.7-2.1-.2-.4-.5-1.1-1.4-1.6-2-.5-.6-1.4-1.6-1.8-2.3-.5-.7-1.4-1.7-2-2.3-.6-.6-1-1.2-.9-1.4.2-.3.3-.3 1.4.7m-30.8.9c-1.2 1-6.3 4.5-6.9 4.7-1 .4.4-.7 3.9-3.1 3.4-2.3 4.5-2.9 3-1.6m18.4-.2c-.2.4-7.6 4.7-8.4 4.9l-.7.2.7-.5c.4-.3 2-1.3 3.6-2.3 4.4-2.5 5.2-2.9 4.8-2.3m-12.9.4c0 .2-6.2 4.5-6.3 4.4-.1-.1 1.2-1.1 2.9-2.3 2.7-2 3.4-2.4 3.4-2.1m26.5 3.8c2.2 2.3 3.5 3.7 3.3 3.8-1.2.7-1.3.6-4.6-3.1-2.6-2.8-3.2-3.7-3-4 .4-.6.5-.5 4.3 3.3m-113.8-2.1c-1.4 1.3-2.4 3.3-2.4 4.9 0 2.6 4.4 5 6.3 3.4 1.1-.9.8-1.3-1.2-1.4l-1.8-.1-.1-1.3c-.3-3.1-.2-3.5.6-4.4 1.5-1.5 4.1-.6 4.7 1.7.2.7.8.8.8.1 0-1-1.8-3.4-2.6-3.5-2.9-.5-3.1-.5-4.3.6m39.3-.2c-1.4.2-3.1 1.1-4.2 2.4-1.7 2.1-4.3 7.5-4.3 8.9 0 .6.2.6 4.2.2l1.4-.2 1.2-2c.7-1.1 2.2-3.7 3.5-5.8l2.3-3.8h-1.4c-.6.1-1.9.2-2.7.3m96.2 0c-.2.1-1 .3-1.6.4-1.1.2-2.1.8-1.8 1.1.2.2 5-1.3 4.9-1.5-.3-.3-1-.3-1.5 0m-33.7 1.2c-2.1 1.8-13.6 9.1-13.9 8.8-.2-.2 1.7-1.6 8-5.6 5.8-3.6 7.7-4.7 5.9-3.2m8.5 1.7c1 1 2.5 2.3 3.2 2.8 1.5 1.2 1.5 1.4.3 1.8l-1 .3-2-1.9c-1.1-1.1-2.4-2.3-2.8-2.7-.7-.7-.8-.7-.3-1.4.6-.9.4-1 2.6 1.1m165.1-1.5c-.3.5-1.5.8-3.8.9-2.8.1-2.8.1-1.3 2.2.7 1 1.2 2 1.2 2.3 0 .3.2.6.5.8.3.2.5.6.5 1 0 1.8 1 2.2 1.2.5.1-.8.3-1.1.6-1.1s.7-.1.9-.2c.3-.1.4 0 .4.9 0 2.1 1.1 1.6 1.5-.6.2-1 1-2 1.4-1.6.1.1 0 1.1-.2 2.2-.5 3.2.1 3.1 1-.2.9-3.1.8-3.7-.6-5.2-.7-.7-1.2-1.4-1.2-1.6s-.4-.4-.8-.5c-1-.2-1.1-.2-1.3.2m-45.5.9c0 .4-.4.5-.7.1-.2-.4.1-.9.4-.7.2.1.3.4.3.6m-227.4.2c-.7.7-.7 2-.1 2.8.6.9 1.1.6.9-.6-.1-.8 0-1.1.5-1.5.5-.4.6-.5.3-.9-.5-.6-1-.5-1.6.2m83.2-.5c0 .2-3 2.3-3.1 2.2-.1-.1.5-.6 1.3-1.2 1.2-1 1.8-1.3 1.8-1m48.3.6c-3.2.8-3 .6-3.7 4.9-.6 3.7-.8 8.5-.4 11.2.8 5.7 3.6 18.6 4.2 19.2.1.1 1.3-.1 2.6-.3 1.3-.3 3.3-.5 4.3-.5h1.9l-.1-.9c-.1-1-.1-1-4.8-.6-1.5.1-2.3.1-2.3-.1s.8-.5 5.3-1.6c1.5-.4 1.7-.5 1.6-1.1-.1-.6-.1-.7-2.4-.6-1.3 0-2.3-.1-2.3-.2 0-.3 2.4-1.1 3.2-1.1.9 0 .9.2-.9-6.8-1-3.9-1.4-6.1-1.8-12.4l-.3-4.4-1.6.1c-2.7.1-2.6-1 .2-1.4 1.3-.2 1.3-.2 1.3-1.1 0-.8-.1-.9-.5-.8-1.5.5-3.7 1-4.3 1-1.5 0 0-.9 3.3-2 .8-.3 1.4-.6 1.4-.8 0-.6-.7-.5-3.9.3m36.1-.3c-.9.5-3 .6-3.5.2-2.3-2.3-2.4 8.3-.1 16.2 2.3 8 3.6 11.6 5.8 15.7.9 1.7 1.8 3.5 2.1 4.1.3.6.9 1.6 1.3 2.2l.8 1.1 2.1-.6c2.4-.7 3.1-.8 3.5-.3.4.5-.1.9-2.1 1.4-2.3.6-2.6.8-2.1 1.3.4.4.6.4 2.5-.4 1.2-.4 3-1.1 4-1.4l1.9-.6-.9-1.2c-4.3-5.9-13.4-32.3-11.7-34 .5-.5 4.1 5.4 6.7 11.3 2 4.4 2.1 4.6 2.4 4.4.3-.2-1.4-6-2.4-8.2-1.5-3.2-5.8-9.2-7.7-10.8-1-.9-1.5-1-2.6-.4m30.4-.3c-.1.1-.2.9-.2 1.7v1.5l-1-1.1c-1-1.2-2-1.5-2-.6 0 1 1.4 3.3 5.4 9.1.7 1 1.7 2.6 2.3 3.7 1.7 3 3.2 4.1 3.2 2.4 0-.8-.9-2.8-2.5-5.5-.7-1.1-1-1.9-1-2.7 0-1.4-.2-2-.7-2-.2 0-.4.3-.4.9 0 .8 0 .8-1.2-.8s-1.2-1.7-1.2-3.7c.2-2-.2-3.3-.7-2.9m38.1.8a8 8 0 0 1-.8 1.7c-.5 1-.6 1.4-.4 2.1 1.3 4.5-3.2 11.4-7.4 11.4-1 0-1.1.5-.3 1.2 1.1 1 3.7 5.4 3.7 6.3 0 .2.3.6.6.9.3.3.8.8 1 1.2.8 1.3 4.9.1 7.3-2.2.9-.8 1.5-1.1 1.8-1.1.4.1.5 0 .5-.5 0-.6 1.3-3.2 1.7-3.2.1 0 .3-.7.4-1.6.1-.9.3-1.6.4-1.6.7 0 .1-9.7-.8-11.5-1.3-2.7-1.4-2.7-3.7-3.1-1.2-.2-2.5-.4-3-.5-.7.1-.9.1-1 .5m-290 3.3c-4 4.8-5.5 7.4-3.4 6.1.4-.2 4.9-5.4 5.5-6.3 0-.1.4.2 2.6 2.3.5.5 1 .9 1.2.9.4 0 1.2-1 1.1-1.3-.2-.5-3.3-3-3.7-3-.2 0-.5-.2-.6-.4-.4-.8-1-.4-2.7 1.7m110.5-1.5c-.3.1-1.1.2-1.8.2-1.4 0-1.8.4-3.5 3.9-.4.9-.9 1.6-1 1.7-.1 0-.5.9-.9 1.9-2.4 6.4-3 15.4-1.1 17.4.8.9 1.2.8 1.2-.4 0-10.1 4.7-23.1 8.4-23.1.7 0 1.3-.6 1.1-1.2-.1-.5-1.7-.7-2.4-.4m49.7 1.3c3.1 2.1 3.2 2.2 2.2 2.7-1 .4-1.3.3-3.7-1.9-1.1-1-1.6-1.7-1.5-1.9.3-.7.4-.7 3 1.1m-2.2 1.7c2.8 1.6 2.9 1.6 1.4 2.1-1.2.4-1.2.4-1.7-.1-.3-.3-.9-.8-1.5-1.2-.9-.5-1-.7-.7-1.2.3-.7.5-.7 2.5.4m-144.1.4c.4 0 .3 1.2-.1 1.7-.5.7-1.6.5-1.7-.3-.1-.7.7-1.7 1.2-1.5.2 0 .5.1.6.1m265.9.5c-.6 1.4-1.6 5.4-1.6 6.1 0 1.2.4 1.6.8.7 1.1-2.8 2-6.9 1.7-7.3-.3-.5-.6-.3-.9.5m55.4-.1c-.1.3-.3 1.3-.4 2.2-.1.9-.4 2.7-.7 4-.6 2.9-.4 4 .5 2.9.5-.6 2.1-9 1.8-9.5-.3-.5-.9-.3-1.2.4m-179.2 2.5c-2.6 1-3.2.7-2-1.2l.5-.7 1.4.7 1.4.7-1.3.5m-135.6-1.2c-.1.2-.1 2-.1 3.9l.1 3.6 1.7.2c2.3.3 8.1 0 8.7-.5.5-.4-2.5-2-3.6-2-1.7 0-4-2-5.4-4.6-.5-1-1.2-1.3-1.4-.6m149.8 1c-.9.4-2.5 1.1-3.5 1.5-1 .4-2.7 1.2-3.8 1.7-3.7 1.8-9.5 2.1-19.5.8-1-.1-4.7-.3-8.1-.3-3.4 0-7-.1-8-.3-1-.1-3.3-.4-5.3-.5-4.1-.3-5-.6-4.9-1.7.1-.5 0-.7-.3-.7-.9 0-1.5 2.8-.8 3.5 1.5 1.4 11.1 2.4 27.2 2.9 4.3.1 7.9.3 8 .4.1.1 2.8.2 6 .2l5.8.1 1.1-1.1c.6-.6 2.2-2 3.5-3.1 5.1-4.3 5.6-4.8 2.6-3.4m147.7-.1c1.9 1.9 1 4-1 2.2-1.2-1-1.5-1.8-1.2-2.5.4-.6 1.3-.6 2.2.3m-306.8 1.3c-.1.8-1 1.1-1.7.6-.6-.5-.5-1.1.3-1.7 1-.7 1.6-.2 1.4 1.1m40.5-1c-.2.3.2 2.7 1.1 7.1.5 2.5 1.1 3.9 1.8 3.7.3-.1.5 0 .6.1.1.3 2.1-.2 2.1-.5 0-.1-.2-1.2-.4-2.5-.2-1.2-.4-2.7-.4-3.3 0-1.2-.1-.6-.4 2.6-.2 2.2-.2 2.3-.7 2.1-.3-.2-.5-.6-.5-.9 0-.4-.1-.7-.3-.8-.1-.1-.3-.7-.3-1.3-.1-3.9-1.6-7.8-2.6-6.3m286.6.7c-.8 1-1.7 7.7-1 7.7 1 0 2.5-7.5 1.6-7.8-.2-.2-.5-.1-.6.1m-226.3 2.1c-.4.5-.9 1.5-1.2 2.3-.3.8-.9 2.1-1.4 3-.5.9-.8 1.8-.7 2.1.1.3-.1 1.4-.5 2.5-1.7 4.9-3.2 13.4-3.1 16.8v1h16.1c14.9 0 16.1 0 17.1.4.7.3 1.3.4 1.9.3.5-.1 3.6 0 6.9.1 3.3.2 8.4.4 11.4.5l5.4.2-.1-.9c-.2-1.4.3-5.9 1.2-11.4.4-2.7.9-5.7 1-6.7.2-1.7.3-1.9 1.8-3.6 2.9-3.3 1.9-3.5-2-.5-2 1.5-2.3 1.7-2.8 1.4-.4-.2-2.5-.4-5.7-.5-4.9-.2-6-.3-13.5-1.2-2.5-.3-5.1-.4-8.4-.4-9.1.1-18.7-.7-20.3-1.8-1.1-.7-1.8-2.1-1.6-3.3.3-1.5-.5-1.6-1.5-.3m140.5-.7c-.1.1-.2.6-.2 1.2v1l-.6-.7c-1.2-1.4-2-.1-1 1.8 3.9 7.3 8.2 13.6 9.2 13.6 1.1 0 .6-1.6-1.4-4.6-1.7-2.5-1.9-3.1-2-4.4-.2-2.5-1-3.7-1.4-1.9-.3 1.2-1.6-1.8-1.6-3.7-.1-2.1-.4-2.9-1-2.3m18.7.1c-1.1 3.1-3.3 16.2-3.3 19.9 0 6.6 7 16.9 18.8 27.5 1.6 1.4 3.9 3.5 5.1 4.6 1.2 1.1 3.9 3.4 6 5l3.9 3 1.1-.5c1.4-.7 1.5-.5-3.1-9.1-1.2-2.3-3.4-6.6-4.7-9.5-1.4-2.9-3.5-7.1-4.7-9.2-2.6-4.4-6.3-11.4-7.1-13.5-.3-.8-1.3-2.7-2.1-4.3-.9-1.6-2.4-5.1-3.6-8-2.2-5.8-2.2-5.7-4.7-6-1.2-.2-1.5-.2-1.6.1m-188.2.2c-1 .1-1 .1-1 1.2v1.1h1.7c1.7 0 1.7 0 2.4-1 1-1.6.7-1.7-3.1-1.3m-35.4.8c-.4.6-.4.6-.6.1-.3-.7-.3-.8.4-.8.6.1.6.1.2.7m-39 .8c.1.7 0 .9-.6 1.2-.8.4-1.5-.1-1.5-.9 0-1.6 1.9-1.8 2.1-.3m265-.9c.3.1.6.4.6.7 0 .3.2.6.4.7.4.2 2.5 4.6 3.6 7.8 2.3 6.2 6.2 14.5 9.5 20.2.8 1.4 1.8 3.2 2.1 4 .4.8 2.5 5.1 4.8 9.5 4.5 8.7 4.3 8.4 3.9 8.6-.2.1-.7-.7-1.2-1.7s-2-3.3-3.3-5.2c-9.9-13.7-16.3-26.4-18.4-37-.8-3.7-1.3-5.1-2.4-7-.6-.8-.6-.8.4-.6m57.6 1.9c.4.9.9 2.1 1.2 2.7.4 1 1 1.4 1.1.8 0-.3-2.5-4.7-2.8-4.9-.1-.1.1.6.5 1.4m-9.8-.2c.3.1.7.7 1.1 1.2 1.1 1.7-.4 2.8-1.7 1.3-1.6-1.6-1.1-3.4.6-2.5m-306.3.2c-1.4.2-5.2 4.1-5.3 5.5-.2 2.3.8 4.1 1.3 2.6.2-.6.5-.8 1.3-.9 1.4-.2 2-.7 1-.7-.9 0-1.3-.2-1.5-.9-.1-.4 0-.5.5-.5 1 0 3.5-1.1 4.2-1.7 1-1.1.9-3.8-.2-3.6-.4.1-.8.2-1.3.2m325.3.3c-.4.7-.9 3.7-.7 4.2.2.6.8.6 1 0 .5-1.5.9-4.1.8-4.4-.2-.4-.8-.3-1.1.2m-302.1.1c-2.4 1-5.1 3.8-4.4 4.6.4.4.6 2 .8 6.5.1 2.1.3 3.9.5 4.1.5.5.7-1.6.5-4.7l-.2-3 2.1-.2c3-.3 3.5-.4 3.7-1 .3-.8-.3-1.2-1-.7-1 .7-2.1.6-2.1-.3 0-1 .4-1.6 1.5-2.2.8-.5.9-.6.6-1-.2-.3-.2-.4 0-.4.5 0 .9-1 .6-1.6-.3-.4-1.5-.6-2.6-.1m259 1.8c-.2 2.3-.9 3.3-.9 1.2 0-1.2.6-3 .9-3 .1 0 0 .8 0 1.8m-215.3-.4c0 1.7 1.1 1.8 2.1.1.8-1.4.8-1.3-.7-1.3h-1.3v1.2m260.7 1.7c-.5.6-.5 2.6.1 2.7.5.1 1.4-2.4 1.1-2.9-.3-.4-.9-.3-1.2.2m-47.5 1.5c0 1.4-.9 3.1-1.6 3.1-.5 0 .1-3.1.7-3.8.9-.9.9-1 .9.7m38.3-1.3c-.5.5 0 .9 2.4 2.2 1.4.8 3.3 1.9 4.1 2.5 3.3 2.5 7.5 4.8 6.4 3.6-.3-.3-.3-.4 0-.4 1 0-5.6-5-7.9-6-4.1-1.9-4.7-2.1-5-1.9m-7.8 2.1c1.2 1.4 1.2 2.5 0 2.5-.9 0-2-1.4-2-2.5 0-1.5.7-1.5 2 0m-298.8-.5c-.1.1-2.2.2-4.8.3-4.4.2-4.6.2-4.6.7 0 1.1 4.1 1.4 9.6.7 3.2-.4 4.3-1 3.1-1.6-.6-.2-3.1-.3-3.3-.1m118.7.9c-.4.3-4.3 3-8.7 6.1-4.4 3.1-8.7 6.1-9.5 6.7-.8.6-1.7 1-1.9 1-.6-.2 7.6-6.1 16-11.5 4.3-2.7 5.6-3.4 4.1-2.3m107.6.2c-.1.1-.2 1-.2 1.9v1.8l-.8-1c-1.3-1.6-2.5-1.2-1.6.5 2.1 4.2 8 13.8 8.7 14.1 1.2.5.8-1.7-1-4.6-1.1-1.9-1.4-2.6-1.6-4-.3-2.8-1.2-4.1-1.2-1.7v1l-.6-.9c-.5-.8-.6-1.5-.7-3.8-.2-2.7-.5-3.8-1-3.3m39.3 1.3c0 1.3-.1 1.5-.7 2l-.7.6-.1-1.5c-.1-1.4 0-1.6.5-2 .9-.8 1-.7 1 .9m52.6-1c-.4.7-.4 1.3.1 1.5.5.2 1-.5.9-1.2-.1-.8-.7-.9-1-.3m-211.4.6c-.7.6-5.8 4.1-5.9 3.9-.2-.2 5.4-4.2 5.9-4.2.2 0 .2.1 0 .3m-78.6.7c-.2.6.1 2.8.6 3.5.4.6.3.7-.5 1.5-1.4 1.3-1.5 4.3-.3 9.2.2 1 1.5.8 1.4-.1 0-.4 0-.9.1-1.1.1-.2.1-.6 0-.9-.2-.5-.1-.5.2-.3.6.5.7.1.6-2.3-.2-2.9.1-2.7.6.4s.9 4.4 1.2 4.4c.4 0 .3-2.5-.1-4.9-.5-2.6-.5-3.7-.1-3.6.2.1.5 1.1.6 2.6.7 5.4 1.6 5.6 1.3.2-.2-4.7-.1-4.4-2.2-4.7-1.9-.2-1.7 0-2.1-2.7-.2-1.2-1-2-1.3-1.2m105.4 0c0 .2-7.4 5.4-9.1 6.5-1.5.9-1.2.2.5-1.1 4.3-3.3 8.6-6 8.6-5.4m129.3 1.2c-.1 1.2-.2 1.4-.7 1.5-.7.1-.7-2.2 0-2.7.7-.4.8-.1.7 1.2m-2.2.4c-.2 1.3-.3 1.3-.8.4-.6-1.1-.5-1.4.3-1.4.6 0 .6.1.5 1m7.2 2c-2.4 2.4-4.8 3.7-6.9 3.7-.4 0-.7.1-.7.3 0 .1-.2.3-.4.3-.6 0-.5.6.4 1.9 1.9 2.9 2.9 3.3 5.4 2.2.7-.3 1.4-.6 1.5-.6.3 0 1.6-2 2.5-3.6.7-1.4 1.3-6 .8-6.4-.1-.1-1.3.9-2.6 2.2m-284.5 0c-2.7 2.7-4.2 3.5-7.2 3.6l-2.1.1-2.5 2.3c-2.6 2.4-2.7 2.6-2.2 3.4 1.6 2.1 9.4 2.1 13.2-.1 4.9-2.8 9.3-7 9.3-8.8 0-.3.2-.7.4-.8 1.2-.9-1.1-1.7-5.2-1.7H55l-2 2m115.6-1.7c-.4.5-7.4 6-7.6 6-.6 0 .2-.8 2.7-2.7 3.9-3.1 5.7-4.3 4.9-3.3m-139.4 1.2l-1.5.4c-.4.1-1.6 1-2.8 2.1-1.1 1.1-3 2.6-4.1 3.4-1.1.8-2.2 1.6-2.3 1.9-1.6 2.9-5.8 15.8-7.3 22-.5 2-1.2 4.5-3 10-.8 2.4-1.5 4.9-1.6 5.5-.1.6-.5 2.1-.8 3.3-1.2 4.2-2 9.6-1.5 9.6s6.5-5.3 9.6-8.4c4.1-4.3 9-9.5 9.5-10.2.2-.3.6-.6.7-.6s.5-.3.6-.6c.3-.7 5.3-6 6.6-7.1 3.6-3 8.9-8.8 8-8.8-.2 0-2.8 2.2-5.4 4.5-1.2 1.1-1.9 1.6-2 1.3-.8-3-3.6-10.8-3.9-10.8-.8 0-.4 2.7 1.2 7.6l1.5 4.7-.6.9c-.8 1.1-.8 1.1-2-3.6-1.4-5.7-2.2-7.2-2.8-5.6-.3.8 0 2 1.6 7l1.3 4.1-.8.9c-1 1.2-1 1.3-1.8-2.2-1.1-4.7-2.1-6.5-2.7-5-.2.5 1.6 7.3 2.2 8.5.4.7.3.8-.1 1.3-.7.8-.8.7-1.9-2.4-.6-1.6-1.2-3.2-1.4-3.7l-.4-.8-.5.9c-.7 1.2-.6 1.4.4 5.1 1.1 3.8 1.1 3.4.3 4.4l-.6.8-.3-.9c-1.6-5.2-1.7-5.4-2.5-4-.6 1-.6 1.5.2 3.9.4 1.3.6 2.2.4 2.3-.1.1-.2.4-.1.6.1.2 0 .5-.3.6-.3.3-.5.1-.8-1-.6-1.7-1.4-3.1-1.8-2.9-.4.3-.3 1.5.4 3.4l.6 1.8-.7.7-.7.7-.6-1.3c-.6-1.2-.6-1.2-1-.7-.5.7-.5 1.6.1 2.6l.4.8-3 3c-4.6 4.6-4.6 4.6-1.8-1.7.7-1.6 2.1-5 3.1-7.6 1-2.6 3-7.6 4.3-11.1 1.4-3.5 3-8 3.7-9.9.6-1.9 2-5.7 3.1-8.4s1.9-5 1.9-5.1c0-.3 2.2-3.8 2.6-4.1.4-.3 1.2-.4 7.1-.8 1.1-.1 2.1-.3 2.2-.4.3-.5-1.4-.8-3.6-.7-1.5.1-2.6 0-3.2-.2-.2-.1-.9-.1-1.4 0m41.1.5c-4.3 4.7-3.7 16.8 1.1 19.9 2 1.3 2.5 1.4 1.1.3-1.4-1.2-2.8-3.9-3.7-7.2-1-3.9-.9-4 .7-.9 2 3.8 2.5 4.4 4.8 5.5 2.7 1.3 2.9 1.3 3.4.3.2-.5 1.2-1.8 2.2-3 2.3-2.7 2.3-3.4.2-3.9-.5-.1-1.4-.7-2.3-1.6-2-2-2.6-3.8-2.3-8 .1-1.3.1-1.2-1.8-1.5-.9-.1-1.9-.3-2.2-.4-.5 0-.8.1-1.2.5m268.3 3.3c-.2 1.1-.5 2-.6 2-.3 0 .2-4.3.5-4.9.5-.9.6.6.1 2.9m-1.9 1c-.2 2-.7 2.9-1.7 2.9-.9 0-.3-3.2.8-4.1 1.2-1 1.1-1 .9 1.2m-135.6-.4c-.5.6-4.5 3.6-4.8 3.6-.6 0 0-.7 2.2-2.2 2.5-1.9 3.2-2.2 2.6-1.4m132.5 2.2v1.9h-.8c-.6 0-.8-.1-.7-.4.1-.2.2-.9.3-1.5.4-2.8 1.2-2.7 1.2 0m-18.5 5.1c.7 1.2 2.2 3.2 3.2 4.6l3.4 4.3c.8 1 2.6 3.1 4.1 4.7 1.4 1.5 3.7 4.1 5 5.6 1.3 1.5 2.8 3.2 3.3 3.6 1.7 1.6 6.5 7.1 5.9 6.8-1.8-1-17.8-17.4-20.2-20.8-1.3-1.9-3-4.1-3.8-5-2.2-2.6-4-6.7-4-9.3V266l.9 2.3c.5 1.4 1.5 3.4 2.2 4.6m-19.4-6.3c-.1.1-.2.6-.2 1.1 0 .9 0 .9-.4.4-.8-1.1-1.2-1.5-1.6-1.5-.8 0-.6.8.5 2.6.6 1 2 3.5 3.1 5.4 1.9 3.6 3.4 5.6 4.2 5.6.6 0 .5-1.1-.3-2.3-1.4-2.1-2.3-4.1-2.3-5.4a4 4 0 0 0-.4-1.8c-.4-.5-.4-.5-.8.7-.2.9-.9-1-1-2.9-.1-1.7-.3-2.3-.8-1.9m35.5.5c0 .4 0 .7-.1.7s-.3-.3-.5-.7c-.4-.6-.4-.7.1-.7.4.1.5.2.5.7m39.3.3c-.2.6 0 .7.7.5.5-.1.5-.3.3-.6-.4-.4-.8-.4-1 .1m-312.6 4.1c-3.3 3.4-6.7 5.1-11.1 5.3-4.1.2-5 .2-5.6 0-.4-.1-.6-.1-.7.2-1 2.7 7.9 2.8 12.1.2.7-.4 1.5-.9 1.7-1 .7-.2 1.6-1.1 3.5-3.4 3.5-4.1 3.6-4.9.1-1.3m163.7.2c-.5.6-.1.9.8.9 1 0 1.8-.4 1.8-.9.1-.6-2.1-.6-2.6 0m1 1.3c-1.4.4-2 1.1-1.5 1.6.8 1 4.5-.7 3.9-1.8-.2-.3-1.1-.2-2.4.2m10.1.1c-2.4.2-3.8.6-3.7 1.1.2.6 7 .2 7.5-.4.7-.9-.1-1.1-3.8-.7m-147.9 2.3c-.8.9-2.3 2.6-3.3 4-1 1.3-3.6 4.6-5.8 7.3-4.1 5.2-7.5 9.9-12.3 16.8-1.5 2.2-4.2 5.9-5.9 8a312.31 312.31 0 0 0-10.9 15.1c-5 7.1-6.7 10.5-4.4 8.5.4-.4 1-.7 1.3-.7.3 0 1.3-.5 2.4-1.1a196.85 196.85 0 0 1 13.2-6.9c.5-.2 2.5-1.3 4.4-2.4 1.9-1.1 3.9-2.2 4.4-2.4 1.4-.6 9.6-5.4 13.5-8 1.8-1.2 3.6-2.2 3.9-2.2.3 0 1.4-.6 2.4-1.3 2.8-2 8.7-6.1 9.4-6.7l.9-.4-.7.2c-1.5.5-5.1 2.5-7.5 4-1.4.9-3.7 2.2-5.1 3-1.4.7-3.6 2-4.9 2.8-1.2.8-3.4 2-4.7 2.7-1.3.7-3.6 1.9-5.1 2.8-2.4 1.4-13 7.1-16.2 8.8-.7.4-1.3.6-1.4.5-.1-.1 3.6-3.4 7.3-6.3 1.6-1.3 3.6-2.9 4.6-3.8.9-.8 2.7-2.3 4-3.2 1.2-.9 3.4-2.6 4.8-3.6s3.5-2.5 4.7-3.3c1.2-.8 3.6-2.5 5.3-3.9 3.7-2.8 5.3-3.9 5.9-3.9.8 0 3.7-2 4.2-2.9.3-.5.7-.9.8-.9.9 0 7.5-9.2 11-15 .7-1.2 1.4-2.2 1.4-2.2.1.1-2.2 8.8-3.4 13.1-1.8 6.2-2.2 8.2-1.4 7.8.4-.3 2.7-8.1 4.7-16.2 1.6-6.3 1.6-7.4.5-7.4-.3 0-.6-.1-.7-.2-.1-.1-1.7-.4-3.5-.5s-4.2-.4-5.3-.5-3.1-.3-4.3-.4c-1.2-.1-3.2-.2-4.4-.3l-2.3-.2-1.5 1.4m211.4 0c-.1.2-.2.7-.2 1 0 .5 0 .5-.6-.2-1.7-2.2-2-.3-.4 2.3.6 1.1 1.6 2.8 2.2 3.9 1.8 3.7 5.3 8.1 5.8 7.5.5-.5 0-1.8-1.6-4.3-1-1.5-1.9-3.3-2.2-4.1-.5-1.6-.8-2.2-1.2-2-.4.2-.8-.9-.8-2.1.2-1.8-.6-3.1-1-2m-66.3.8c0 .8.6 1.1 1.5.9.6-.1 1.8-.3 2.7-.4 2.6-.3 1.9-.7-1.3-.7-1.6.1-2.9.1-2.9.2m-81.2 1c.3.8.4.9 1.7.8 14.7-.5 25.9-.4 42 .5 8.8.5 14.9.6 14.9.4 0-.8-.6-.8-8.4-1a324 324 0 0 1-20.5-1.1c-3.7-.3-9.2-.4-17.7-.4h-12.3l.3.8m72-.1c-.2.8-.8 1.1-2.6 1.1-2 0-3.8 1-2.8 1.6.7.4 5.6-.3 6.1-.9.4-.5.2-2.3-.2-2.5-.2-.1-.4.2-.5.7m58.9.5c-3.6 1-6 2-5.8 2.4.2.5.5.5 2.4-.3.9-.4 2.7-.9 3.9-1.2 1.9-.5 2.2-.6 2-.9-.3-.5-.8-.5-2.5 0m-179.3.7c0 .1-.8 1.2-1.8 2.6-2.9 4.1-2.8 4.3.6.8 2.3-2.4 3.3-3.3 3.8-3.3h.6l-.6.9c-.6 1.1-.7 1.7-.2 1.8.3.1-.1.7-1.2 2.2-.9 1.2-2.6 3.7-3.9 5.6-2.5 3.8-3.9 5.5-4.6 5.5-.3 0-1.8 1-3.3 2.3-1.6 1.3-3.3 2.5-3.8 2.8-.5.3-2.4 1.6-4.1 3-1.8 1.4-4.3 3.3-5.6 4.2s-3.9 2.8-5.7 4.2c-5.3 4-8.4 5.9-10.2 6.2-2.9.5-2.7 0 1.8-6 1.3-1.7 2.8-3.8 3.4-4.7.6-.8 2-2.8 3.2-4.3s3.1-4 4.2-5.5c4.2-5.7 13-15.4 13.5-14.9.1.1-.4.7-1 1.4-3.2 3.7-9.5 12.1-11.6 15.5l-1 1.5.9-1.1c7.7-9.3 17.2-19.8 17.6-19.3.2.2-1.5 2.4-6.2 8.5-3 3.9-4.4 6.1-3.9 6.6 0 0 1-1.1 2.2-2.5 1.2-1.4 4.1-4.7 6.3-7.4 2.3-2.6 4.4-5.1 4.7-5.4.3-.3.8-.6 1.1-.6.6 0 .4.4-2.6 4.3-3 4-4.6 7.3-2 4.1 3.6-4.3 7.9-9 8.4-9.1.3-.1.7-.1.8-.1l.2.2m131.8.4l-.9.1.6.6c.8.8.8.8 1.9-.2l.9-.8h-.8c-.5.1-1.2.2-1.7.3m-165.8.4c-1 2.7 1.2 7 4.2 8.1 1.4.6 2.5-.4 1.1-1a6.8 6.8 0 0 1-3.2-3.5c-1-3.3-1.7-4.5-2.1-3.6m86.2-.1l-3.1.1.3.8.3.8 2.5-.1c6-.1 7.1-.3 7.6-1.1l.5-.8-2.5.1c-1.4 0-3.9.1-5.6.2m128.2 1.1c-4.1 1-5.3 1.6-4.9 2 .3.3.7.2 2.5-.6 1.2-.5 2.9-1.1 3.9-1.2 1.2-.2 1.8-.5 1.8-.7 0-.4.2-.4-3.3.5m-84.4.2c0 1.3 1.4 1.6 6.7 1.6h5l-.2-.6c-.1-.3-.3-.7-.4-.8-.1-.2-11.1-.4-11.1-.2m-43 1.3l-2.9.1.3.7.3.7 3.5-.2c2.8-.1 3.5-.3 3.8-.6.6-.7.4-.9-.9-.8-.7 0-2.5.1-4.1.1m127.9.7c-1.9.5-3.9 1.5-3.7 1.8.3.5 1.6.2 2.3-.4.4-.4 1.4-.9 2.1-1.2 1.7-.6 1.3-.7-.7-.2m-24.1.6c0 .1.1.7.3 1.4l.3 1.3 1.5.3c2 .3 2 .4.3-1.5-1.2-1.4-2.4-2.1-2.4-1.5m-83 .4c-5.1.1-6.4.2-6.5.5-.1.3.3.3 2.4.2 1.4-.1 7-.2 12.5-.2 7.6 0 9.9-.1 9.7-.3-.5-.4-8-.5-18.1-.2m26.5.3c.4.3.8.9.9 1.2.2.6.3.6 3.7.6h3.6l-.2-1c-.1-.5-.2-1.1-.2-1.2 0-.1-1.9-.2-4.2-.2H200l.6.6m-48 .4c-.9.1-.9.2-.6 1 .2.5.4.5 3.4.4 3.7-.1 3.3 0 3.1-.9l-.1-.7H156c-1.4.1-2.9.1-3.4.2m18.4 1.4c-4.4.2-5.4.4-5.4 1.1 0 .1 3.9.2 8.7.2 4.8 0 12 .1 15.9.3 7.3.2 7.9.2 7.4-.7-.3-.5-.7-.5-7.2-.7-3.8-.1-8.7-.2-10.9-.3-2.1-.1-5.9 0-8.5.1m123.4.6c0 .3.6 1.4 1.3 2.3.7 1 1.8 2.7 2.5 3.8 2.9 4.8 5 7.2 5.7 6.7.7-.6.4-1.4-1.5-4-1.3-1.7-1.9-2.8-1.9-3.2 0-1.3-.5-2.3-.9-1.8-.5.7-.9.1-1.2-1.9-.2-.9-.4-1.8-.5-2-.4-.4-.9.1-.8.9l.1.8-.9-1.1c-.9-1.2-1.9-1.5-1.9-.5m-139.7.4c-2 .1-2.3.5-1.3 1.6.5.5 6 .1 6-.4 0-1-.5-1.4-1.7-1.4-.5.1-1.9.2-3 .2m47.5.4c0 .8.4.9 3.7.8 3-.1 3.3-.2 3.3-.6 0-.5-.3-.5-3.5-.5-2.7 0-3.5.1-3.5.3m-59.8.3c-.3.7-7.2 3.9-8.4 3.9-1.7 0-2 .5-4.4 6.4-3.6 9.1-6.5 18.2-9.1 28.6-.4 1.8-1.4 5.2-2.2 7.6-3 9.3-3.7 12.4-2.6 12.7.9.2.6.8 2.4-5.6.8-3.1 2.1-7.6 2.9-10.1.8-2.5 2.1-7.1 2.9-10.1 1.7-6.1 5.5-17.5 7.7-22.9 1.7-4.1 1.4-3.9 7.3-6.4 5.8-2.5 5.3-2.1 4.6-3.4-.7-1.1-.9-1.3-1.1-.7m115.8 1.1c0 .9.2 1 2.7.8 2.5-.2 2.5-.4-.3-1-2.6-.6-2.4-.6-2.4.2m-87.8-.1c-5.4.2-5.9.2-5.9 1.1 0 .5.1.5 1.6.3.9-.1 2.3-.1 3.1 0l1.6.2-2 .4c-1.1.2-2.5.5-3.2.6l-1.2.2.1 1.3c.1 1.5.8 4.4 1.1 4.8.1.1 4.1.1 9.4-.1 5-.2 13-.4 17.8-.5 4.7-.1 8.6-.2 8.6-.3 0-.5-1.7-5.1-2-5.5-.3-.4-.8-.5-2.7-.6-3.1-.1-3.3-.5-.5-.7 2.5-.2 2.8-.3 2.3-.8-.6-.6-15.5-.8-28.1-.4m32.6.8c0 1.5.1 1.5 3.6 1.5 1.9 0 3.3-.1 3.3-.2 0-1.5-.4-1.6-3.7-1.6-2.4 0-3.2.1-3.2.3m-46.5.4c-1.3 0-2.3.1-2.3.2 0 1.3.5 1.5 3.3 1.5 2.6 0 2.8 0 2.8-.5 0-.6-.7-1.4-1.2-1.3-.1 0-1.3.1-2.6.1m-34.8 1.2c4.1.6 4.8 1.4 3.9 4.5-.6 2.2-1.1 2.9-1.7 2.5-.8-.6-3.1-1-5.6-1-2.9 0-3.2-.1-2.6-2 1.4-4.3 1.9-4.6 6-4m18.3 1.9c-5.6 2.4-6 2.7-6.5 3.6-1.1 2-9.1 27.9-10.9 35.4l-2 7.5c-2.8 9.1-2.7 8.9-.8 9.6 2.2.8 12.6-1.8 12.6-3.2 0-1.2-1.2-2.3-2.2-2.2-.6.1-1.6.2-2.2.3-1.5.2-.6-.3 1.3-.7.9-.2 1.5-.5 1.5-.7 0-.4-2-3.9-2.7-4.9-.7-.9-.6-1.6.7-4.4 1.5-3 1.1-3.1 4 .9 2.1 2.9 1.8 2.8 4.7 1.6 2.8-1.2 2.7-1.1 2.1-2.4-.7-1.6-.7-1.7-2.2-1.2-1.7.6-2.4.4-1-.2.6-.2 1.1-.4 1.2-.4 1.2 0-.1-4.4-1.9-6.7-.4-.5-.8-1.1-.8-1.3s-.2-.9-.6-1.5l-.6-1.1.6-1.7c.3-1 .7-1.7.8-1.7.3 0 1.7 1.8 2.4 3.2 1.3 2.5 4.9 8.5 5.2 8.5.5 0 5.8-3 5.8-3.3 0-.4-1-2.6-1.1-2.6-.1 0-.9.3-1.9.7-1 .4-1.9.6-2.1.6-.3-.1 2-1.5 2.4-1.5.1 0 .4-.2.7-.5.6-.6-.9-3.2-1.6-2.9-1.8.7-2.7.4-1.1-.4l1.1-.5-.9-1.3c-.5-.7-2.1-2.6-3.6-4.1-2.3-2.3-2.7-3-2.6-3.5.1-.3.4-1.5.6-2.5.2-1.1.6-1.9.8-1.9.6 0 5.5 5.7 8 9.4.6.8 1.1 1.5 1.2 1.5.2 0 2.9-2.6 4.9-4.7l1.2-1.3-.5-1.1-.5-1.1-.9.7c-3.5 2.6-5.3 2.6-2.7 0 2.7-2.7 2.8-2.8 2.3-3.7-.5-.9-.4-.9-1.6-.1-2.6 1.7-3.1 1.1-1.1-1.2 1.1-1.3 1.3-1.7 1.2-2.2-.6-2-5.4-10.6-5.8-10.6-.3-.1-2.4.8-4.9 1.8m96.3-1.6c0 .5.6 1 2.4 2 3.5 2 5.7 5.1 7.1 10 .6 2.3 1 3.1 1.3 2.7 1-1-3.9-12.2-5.2-12.2-.1 0-.6-.3-1.1-.6-2-1.4-4.5-2.5-4.5-1.9m22.4.4c0 .1.1.9.3 1.7l.3 1.4h2.6c1.4 0 3.2.1 4 .2l1.4.2-1.3-1.7c-.7-.9-1.4-1.8-1.6-1.9-.3-.2-5.7-.1-5.7.1m-54.9.5c0 .7.6.8 3.5.9 3.1.1 3.1.1 3.1-.4-.1-.5-6.6-1-6.6-.5m-86 1.3c-.5 1.3-.8 2.3-.5 2.3.1 0 .7-.1 1.3-.3 1.1-.3 4.5.1 5.1.6.2.2.4-.2.6-1.1.4-1.6.3-1.7-1.7-2.1-2.8-.6-4.4-.4-4.8.6m37.8-.1l.4.8h2.7c1.5 0 2.7-.1 2.7-.1 0-1.2-.6-1.5-3.4-1.5h-2.8l.4.8m75.6 5c-2.7 5.7-5.9 13.7-6.4 16-.2 1.1-.5 8.6-.3 8.6 0 0 1-.7 2-1.6s3-2.4 4.2-3.3c2-1.4 2.5-2 3.9-4.1 1.9-2.9 2-2.9 2.4-1.1.2.8.5 2 .8 2.8l.5 1.4-.9 1.7c-1.3 2.4-3.8 9.6-3.8 11 0 .1.7-.4 1.7-1.1 2.4-2 2.5-1.6.1.8-2 2-2.1 2.2-2.5 3.9-.5 2.3-.6 2.2 1.9.5 1.2-.8 2.9-1.8 3.8-2.2 1.3-.6 1.7-.9 1.9-1.7.2-.5.5-1.3.8-1.8l.5-.9 1.1 2.2c.9 1.9 1 2.3.8 2.9-.3.7-1.6 4.3-1.6 4.5 0 .1.4-.2.9-.5 1.3-.8 1.2-.3-.3 1.1-1 .9-1.4 1.5-1.9 3-.9 2.6-.8 2.8.2 2 2.1-1.6 2.3-1.4.4.4l-2 2-.4 2.5c-.2 1.4-.5 2.9-.6 3.4l-.1.9 2.2-2c1.2-1.1 2.9-2.5 3.7-3.2 1.2-1 1.6-1.6 2.4-3.4 1.1-2.6 1.3-2.7 2.2-.8.9 1.7.9 1.9.2 4.5-2 7.8-2.1 8.9-1 8.2 1.2-.8 1.2-.4 0 .6-1 .9-1.2 1.2-1.5 2.8-.4 2-.4 2 .9 1.1.9-.7.9-.7-.2.5-1.1 1.1-1.2 1.4-1.4 3.2-.4 3.7-.5 3.6 1.9 1.2 1.2-1.2 2.2-2 2.3-1.9s0 .2-.1.3c-.4.3-3.1 3.5-3.8 4.5-.3.4-.6 1.4-.7 2.1l-.2 1.3 2.7-2.8c3.1-3.2 2.9-2.5-.6 2.1-2 2.7-2.3 3.3-1.9 4.4.2.4.4.2 1.2-1.1 1.4-2.1 3.6-4.6 5.9-7 1.2-1.2 2.2-2.5 2.5-3.3.3-.7.7-1.5.9-1.7 1-1.3 1.7-3.8 1.4-4.8-.2-.5-1-4.6-1.9-9-1.9-10.2-6.1-27.8-9.1-38-1.3-4.5-4.2-10.7-5.3-11.4-1.5-1-4.8-3.6-5-4-.1-.2-.3-.4-.5-.4s-.7-.2-1-.5l-.7-.5-2.6 5.7m-23.6-4c-3.1.1-3.3.2-2.7 1.2.2.5 6.7.9 6.7.4 0-.4-.6-1.8-.8-1.7-.2 0-1.6 0-3.2.1m-50.7 1.7c.4 1 .3 1 3.3 1.1l2.4.1-.4-1-.4-1h-5.2l.3.8m103 1c.1.5.2.9.2 1 0 .1 1.3.3 2.9.4 1.6.1 3.2.2 3.6.3.7.2.8.1.7-.7-.1-1-1.1-1.3-5.5-1.7l-2-.2.1.9m-7.5.4c-1.9 1.2-2.3 1.7-2.3 2.7 0 .8.1.9.5.8.6-.2 3.9-1.6 4-1.7.1-.1-.8-2.5-1-2.5 0 0-.6.4-1.2.7m-46.8.2c.2.6 7 1.1 7 .6 0-1-.5-1.2-3.9-1.2h-3.3l.2.6m-47.7.4c0 .8 1.1 1.3 3 1.3 1.1 0 2.2.1 2.4.2.6.2.6-.1.1-.9-.3-.5-5.5-1.1-5.5-.6m25.1.3c-2 .1-6.5.2-10.1.2-6.5 0-6.9.1-5.9 1 .5.4 1 .5 8.1.1 5-.2 10.9-.3 17.5-.1l9.9.2-.2-.8-.2-.8h-7.7c-4.4.1-9.5.1-11.4.2m88.3 1.3c.5 4 1.5 10.3 1.9 11.8.3 1.5 1.8 10.5 1.8 11.2 0 .7.6 0 1-1.3l1.1-2.9.6-1.4-2-8.1c-1.1-4.5-2.1-8.6-2.2-9.3-.2-1.2-.2-1.2-1.3-1.3l-1.1-.1.2 1.4m3.6-.3c.1.4 1.1 4.5 2.3 9 2.4 9.5 2.3 8.8 1.4 11.1-.7 1.7-.7 1.8-.3 2.9.2.6.9 3.3 1.5 5.9.6 2.6 1.6 6.2 2.1 8 .6 1.8 1.3 4.4 1.7 5.8.4 1.5 1.1 3.8 1.6 5.2.5 1.4.9 2.7.8 2.9-.5 1.3 6.5 16.1 7.8 16.5 2.8.9 2.3-3.8-.7-7.8-.4-.5-.6-1-.5-1 .3-.3 2.1 1.9 3.1 3.9 1.2 2.4 1.4 1.9.5-1.3-.6-2.1-1.5-4.1-2.7-5.8-1-1.4-.6-1.5.7-.1 1.3 1.3 2.2 2.8 3 5.1.8 2.2.8 1.4.1-1.4-.6-2.4-1.7-4.9-3.2-7.2-1.2-1.9-1.4-2.6-.3-1.7 1.4 1.3 3.5 5 4.5 7.8l.4 1.1-.2-1.2c-.2-1.8-1.1-4.3-2.4-7.2-1.8-3.8-.6-3.1 1.6.9 1.8 3.2 1.6.3-.3-3.7-1.4-2.9-.8-3.3.8-.6.5.8.9 1.4.9 1.4l-.2-5.4-.3-5.3-2.5-2.5c-2.4-2.4-2.5-2.5-2.9-4.3-.9-4.5-2.4-6.6-6.4-9.2-2.4-1.5-2.4-1.6-4-6.7-.7-2.3-1.5-4.7-1.7-5.3-1.1-2.6 3.7-2.4 9 .3 2.4 1.2 2.4 1.2 1.6-.6-.4-.8-.8-1.9-1-2.4-.7-2.4-6.5-5.7-12.1-7.1-4-.9-4-.9-3.7 0m-68.3.6c.1.4.4.5 3.4.4 3.5-.1 3.5-.1 3.3-.6-.4-.6-6.8-.4-6.7.2m-86.9.5c.8.6.8 1-.7 4.7-.7 1.8-1.7 4.6-2.3 6.2-1.2 3.5-1.3 3.6-2.8 3.7l-1.2.1v-1.1c0-1 .5-2.5 3.1-10.8 1-3 .8-2.9 3-3.2.2 0 .6.1.9.4m140.9-.1c.1.2.3.9.5 1.4l.3 1 3.2-.1 3.2-.1-.2-.7c-.2-.9-.4-1-2.6-1.3-4.4-.7-4.5-.7-4.4-.2m-100.8.3c.2.2.7.4 1.2.4s1.3.1 1.9.3c2.4.6 2.4.6 2 .1-.2-.4-.8-.6-2.5-.8-3-.5-3.1-.5-2.6 0m46.9.9c0 1 6.7 1.1 7.7.2.4-.4 0-.4-3.6-.4-2.3 0-4.1.1-4.1.2m48.1 3.3c2 4.6 4.2 13.8 3.7 15-.9 1.9-2.4.9-3.1-2-.2-1-1-3.6-1.7-5.9-2.1-6.4-2.1-7.8-.3-7.9.9-.1 1.1 0 1.4.8m7.7-.1c-.2.2-.3.5-.2 1.2l.2.9 2 .2c1.1.1 2.5.3 3 .4.5.1.9.2 1 .2.1-.1-.4-2.7-.5-2.8-.3-.2-5.2-.3-5.5-.1m-159.7 4.6c-1.4 2.4-3.3 5.4-4.1 6.7-1.7 2.6-1.9 3.3-3.3 10.8-2 10.9-3.5 26.4-2.3 25.2.1-.1.5-1.8.8-3.7.7-4.3 1.3-6.6 2.6-10.5.6-1.7 1.9-6.2 2.8-10 1.6-6.1 2.8-10.4 5.9-20.1.7-2.3.8-2.7.3-2.7 0 0-1.3 2-2.7 4.3m160.5.3c.2 1.2.2 1.2 3.2 1.4l2.6.2-.1-.8c-.1-.8-1.2-1.3-4.3-1.6l-1.6-.2.2 1m19.9.3c0 .2.3 1.2.7 2.2.4 1 1 2.8 1.3 4.1l.6 2.3 2.4 1.7c4.1 2.8 5.7 5.2 6.6 9.4.5 2.2 4.1 6.5 3.8 4.5-.1-.5-.3-1.7-.4-2.7-.1-1-.6-2.9-.9-4.1-.4-1.2-1.3-4.6-2-7.6-1.4-5.5-2.1-6.8-3.4-6.8-.2 0-1.2-.4-2.1-.9-2.9-1.8-6.6-2.8-6.6-2.1m4 2.6c.1.2.6.7 1.2 1.1.9.7 1.6 2.2 1.6 3.7 0 .7-.7 1-1.3.5-.3-.2-.7-.4-1-.5-.6-.1-1.7-3.8-1.4-4.6.1-.6.6-.6.9-.2m-22.9.4c0 1.3.6 2.2 1.3 2.1.4-.1 1.6 0 2.6.1 2.2.3 2.1.3 1.9-.8-.2-.9-.2-.9-2-1.2-2.2-.4-3.8-.5-3.8-.2m-110.5 1.6c-.6.5-1.9 1.4-2.9 2-1.9 1.1-1.9 1.1-.8 2.6l.5.7.9-.7c2.7-1.9 3.6-3.3 3.3-5 0-.5-.1-.4-1 .4m111.7 2.7c.3 1.1.3 1.1 3.1 1.3 2.6.2 2.6.2 2.4-.4-.2-.8-.7-1-2.6-1.2-.9-.1-1.9-.2-2.4-.3-.7-.2-.7-.2-.5.6m-149.9.1c.9.7.6 2.8-1.1 6.2l-.5 1-1.3-.2c-.7-.1-1.8 0-2.4.1-.9.2-1.1.2-1.7-.4l-.6-.6 1-3c.9-2.8 1-3 1.9-3.4 1.5-.4 3.8-.4 4.7.3m114.8 2.2c-4.7 3.5-6.2 5-5.9 6 .1.5.3.4 2-1.3 1-1 2.5-2.3 3.2-3 1.2-1 2.4-2.6 2.2-2.8 0 0-.7.5-1.5 1.1m-118.6-.6c-.9.4-2.4 4.6-1.6 4.3.2-.1 1-.2 1.8-.3l1.4-.2.6-2.1.6-2.1h-1.1c-.6.1-1.3.3-1.7.4m41.1 1.6l-1.4.8.5.8c.6.9.5.9 1.6 0 .7-.6.9-.9.8-1.6l-.1-.8-1.4.8m113.6.3l.3.9h2.7c2.5 0 2.6 0 2.6-.5-.1-.6-.8-.8-3.8-1.1l-2-.2.2.9m-5.2 1c.3.3.8 1.4 1.2 2.5l.8 2.1-.5.7c-1.1 1.5-4.4 2.8-4.8 1.8-.1-.3-.3-.3-.6-.3-.7.2-1-.4-1.4-3.2-.4-2.6-.3-3.2.5-3 .3.1 1.1-.1 1.8-.5 1.3-.7 2.4-.8 3-.1m-34.2 3.3c-2.9 2.7-2.8 2.4-2 5.3l.3 1 1.3-1.7c1.1-1.4 1.8-2.5 1.8-3 0-.1-.6.4-1.4 1-2.6 2.1-2.3.9.4-1.5 1.5-1.3 2.6-3 2.2-3.4.1-.1-1.1.9-2.6 2.3m40.2-1.8c.1.2.2.7.3 1 .2.7.5.8 3.7 1.1l1.8.2-.2-.9c-.2-1.2-.4-1.3-2.3-1.6-2.6-.4-3.5-.3-3.3.2m-9.2.3c-1.1.5-1.1.6-.4 3.3.2.9.3 1 .7.7.2-.2.9-.6 1.5-.9 1.2-.6 1.3-1 .6-2.7-.5-1-.8-1-2.4-.4m18.5.9c-.8 1.9-.7 2.1 1.1 8 .8 2.5 1.9 6.1 2.4 7.9.5 1.8 1.8 5.6 2.8 8.3 1 2.7 2.3 6.2 2.8 7.7 1.1 3.3 2.6 6.3 3.5 6.9.6.4.6.3-.3-1.5-.5-1.1-1.3-2.8-1.7-4-.4-1.1-1.3-3.4-1.9-5-.6-1.6-1.3-3.6-1.5-4.5-.4-1.8-2.8-9.9-3.6-12.2-.4-1.2-1.9-7.3-2.9-12.2l-.2-.9-.5 1.5m-163.4 2.7c.5.8-.4 1.3-2.8 1.3-2.1 0-2.6-.3-2.1-1 .5-1 4.4-1.1 4.9-.3m155.5.3c.1.3.3 1 .5 1.5l.3.9 2.3.1 2.3.1-.2-.9c-.4-1.8-.3-1.7-2.4-2-2.8-.5-3-.4-2.8.3m-121.2.7c-.5.3-1.7.8-2.5 1.1-.9.3-1.6.6-1.7.6-.1.1 1 2.5 1.2 2.5.3 0 4.9-2.5 5.1-2.8 1-1.1-.6-2.2-2.1-1.4m-35.3 2c.2.6-.3 1-1.7 1.1-.7 0-1.9.2-2.7.3-1.8.2-1.8-.2 0-1.1 1.5-.8 4.2-.9 4.4-.3m150.4.8c.2.5-.3 1.2-.9 1.2-.2 0-1 .3-1.7.7-2 1-3 .7-1.8-.6 1.3-1.4 4.1-2.2 4.4-1.3m-36.1.7c-.7.8-.7 1.5-.3 2.6.3.7.3.6.7-1.2.4-2.4.4-2.4-.4-1.4m47.6-.1c-.1.1-1 .1-2 .1s-1.9 0-1.8.1c0 1 4.5 1.5 4.5.5-.1-.6-.4-1-.7-.7m-126.4 1.4c-1.3.6-2.4 1.1-2.5 1.2-.1.1 1 2.8 1.2 2.8.1 0 1.2-.6 2.4-1.4l2.2-1.4-.2-1c-.3-1.6-.1-1.6-3.1-.2m89 1c-3.6 2.4-4.5 3.3-5 4.8-1 3-.9 3 1.5.7 1.2-1.2 3-2.8 3.9-3.6 1.5-1.3 2.6-3 2.1-3.4-.1 0-1.2.7-2.5 1.5m-124.8-.7c1.4.6 1.5 1.7.5 4.6-1 3-.9 2.9-4.4 3-1.6 0-3.3.1-3.8.1-1.5.2-.9-5.1.8-6.9.8-.9 5.5-1.4 6.9-.8m151.4.4c.7.7.1 1.2-2.1 2.2-3.4 1.5-4.1.1-.8-1.6 2.2-1.1 2.4-1.2 2.9-.6m7.9 1c0 .3.3.5.9.6.5.1 1.4.3 2.1.4 1.2.2 1.9-.4 1-.9-.6-.5-4-.5-4-.1m-163.4.6c-.8.2-1.4.4-1.5.4 0 .1-.4.9-.8 1.9l-.7 1.8.6-.2c.3-.1 1.5-.3 2.6-.4 2.3-.3 2.2-.2 2.8-2.1.7-2 .2-2.2-3-1.4m30.1 1.2c-1.4.4-2.5.9-2.5 1 0 .4 1.9 3.3 2.2 3.3.4 0 4.2-1.6 4.5-1.8.3-.3-1-3.2-1.3-3.2-.3-.1-1.5.2-2.9.7m10.9 1.1l-1.8.9c-.2.1.6 2.5.7 2.5 1 0 2.3-1.3 2.7-2.7.3-.8.4-1.5.3-1.5-.1 0-.9.4-1.9.8m123.2-.4c0 .9.5 1.2 2.5 1.5 2 .3 2.4 0 1.5-1-.4-.5-4-.9-4-.5m-6.7.5c.6.7 2.2 5.2 2.2 6.1 0 2.3-6.7 3.2-7.5 1-1.3-3.4-1.2-5.3.2-6.1 3.9-2 4.3-2.1 5.1-1m-30.7 2.3c-3.3 3.1-4.1 4.2-4.5 5.9-.4 2-.1 2.3 1 1 .4-.6 1.6-1.9 2.6-3 2-2.1 2.3-2.5 2.9-4.6.7-1.8.7-1.7-2 .7m27.4-.5c-1.3.7-1.3.7-.7 3l.4 1.7 1.1-.2c3-.4 2.9-.3 1.9-3.2-.6-2.1-1-2.2-2.7-1.3m-122 1.5c-2.2.8-2.3 1.1-1.5 3l.4 1 1.9-.7c3.1-1.1 2.9-.9 2.4-2.6-.5-1.6-.6-1.7-3.2-.7m133.2.1c.2 1.1 0 1 2.2 1.2 1.8.2 1.9.1 1.9-.3 0-.9-.4-1.2-1.8-1.4-2.3-.6-2.5-.5-2.3.5m1.1 3.6l.3 1 2 .2c2.3.2 2.2.3 1.8-.9-.3-1-.9-1.3-3.3-1.3H274l.3 1m-40.2.5c-.4.4-1.4 1.6-2.2 2.6l-1.5 1.8.4 1.2c.5 1.5.5 1.5 2-.5 1-1.3 1.3-2.1 1.7-3.6.5-2.4.5-2.5-.4-1.5m-91.7 1c-2.3.6-2.7 1-2.1 1.9.6.8 5-.4 4.6-1.3-.1-.2-.2-.5-.2-.7.1-.4-.8-.3-2.3.1m132.9 1.3c.1.2.3 1 .6 1.7l.4 1.4 1.9.2c2.3.2 2.2.3 1.6-1.4-.5-1.4-.5-1.4-1.7-1.6-.6-.1-1.6-.3-2.1-.4-.6-.3-.8-.2-.7.1m-33.7 2.9c-3.3 3.1-3.6 3.4-3.8 5l-.2 1.1 2.9-2.5c2.9-2.4 2.9-2.5 3.6-4.4.4-1.1.6-2 .5-2 0 .1-1.4 1.3-3 2.8m-112 .2c-4.9 1.4-4.8 1.3-3.5 2.4 1.3 1.1 2.2 1.1 5.1-.1 1.3-.5 2.6-1.1 2.9-1.2.5-.2.6-.3.3-1.1-.4-1.3-.3-1.3-4.8 0m15.1-1.1c-2.9 1.1-3.1 1.3-2.8 2 .4.8.4.8 2.2.1 1.3-.5 1.5-.6 1.5-1.3 0-.9-.2-1-.9-.8m-36.7 2.2c-1.4.9-2 2.3-3.3 7.7-.7 2.7-1.6 6.1-2 7.4-.7 2.2-.8 2.6-.5 3.2.3.7.3.6.7-1 .8-3.9 4.9-9.8 8.2-11.5 3-1.6 8.1-2 11.1-.9.6.2 1.2.4 1.3.3.2-.2-5-3.4-6.1-3.8-.6-.2-1.4-.6-1.8-.8-.4-.2-1.7-.5-2.9-.7-1.3-.1-2.6-.3-3-.4-.5 0-1.1.1-1.7.5m124.7.7c-.6.9-.7 1.2-.5 2 .2.9.2.9.4.2.1-.4.4-1.1.6-1.5.7-1.5.4-1.9-.5-.7m44.4-.1c0 .1.2.7.5 1.3l.5 1.2 1.8.1c2.2.1 2.1.2 1.6-.9-.3-.7-.6-1-1.3-1.2-1.1-.4-3.1-.7-3.1-.5m-133.7 1.2c-.3.1-.4.3-.3.5.1.2.2.4.2.5 0 .4.5 0 .8-.6.2-.6.2-.7-.7-.4m96.8 3.7c-1.2 1.4-2.4 2.8-2.6 3.1-.3.5-.9 4.7-.6 4.7.1 0 .4-.4.7-.9.3-.5 1.2-1.6 2.2-2.6 1.6-1.7 1.7-1.8 2.2-4.3.3-1.4.5-2.6.4-2.6 0 0-1 1.2-2.3 2.6m-106.4-2.2c-.1 0-1.2.2-2.2.4l-2 .3 1 .9c1.2 1.1 1.2 1.1 3.7.3 2.3-.7 2.1-.5 1.8-1.4-.3-.6-1.3-.8-2.3-.5m145.2 1.8c0 .8.5 1 2.2 1.1 1.8.1 2 0 1.5-.8-.3-.6-3.7-.8-3.7-.3m-144.8 2.5c-1.3.1-1.6.2-1.4.4.3.4 4 0 4-.4 0-.1-.2-.2-.5-.2-.2.1-1.2.2-2.1.2m147.5 0c-1.3.1-1.7.4-1.1.7.2.1.4.4.5.8.2.6 2.6 1.2 3.2.8.3-.2.3-1.2 0-1.2-.1 0-.3-.3-.4-.7-.1-.4-.3-.6-.5-.6-.2.1-.9.2-1.7.2m-41.7 4.2c-2.4 2.8-3.1 4.5-2.6 5.9l.3.7 1.7-2.3c1.5-2 1.7-2.5 1.9-3.9.2-2.1.1-2.1-1.3-.4m-104.6-1c-.4.1-.4.2-.2.6.4.7 2.5.8 2.3.1-.1-.2-.2-.5-.2-.7.1-.2-1-.2-1.9 0m116.9 5.9c-3.3 3.6-6.4 8-6.4 9.5 0 1.3.3 1.3 1.1 0 .3-.6 1.6-2.2 2.8-3.7 1.8-2.2 2.4-3.1 2.9-4.6.8-2.4.8-2.5-.4-1.2m-12.8 1.1c-.6.9-1.1 1.7-1.1 1.9 0 .6 1.7 3 1.9 2.6.2-.3.5-6.1.4-6.1-.1 0-.6.8-1.2 1.6m10.6 6.2c-1 1.3-3.7 5.2-3.7 5.5 0 .3 1 1.2 1.2 1 1.7-1.8 2.9-3.9 3.2-5.6.5-2.3.5-2.3-.7-.9m-.1 5.4c-.1.3-.1.6 0 .6.3.3.5-.1.4-.6-.1-.5-.2-.5-.4 0m-1.3 1.8c-.2.4.1.8.5.8.2 0 .3-.2.2-.5-.1-.6-.4-.8-.7-.3"/></svg>