<svg xmlns="http://www.w3.org/2000/svg" viewBox="0 0 410 410"><path d="M310.4 35.5c-2.6 1.4-5.8 5.1-7.8 9.2-1.4 2.7-1.5 2.8-4 2.9-5 .1-7.6 2.1-7.9 5.9-.1 1.4-.1 1.4.1.4.4-2.3 2.7-4.1 5.6-4.5l1.5-.2-.7.8c-.8.9-1.7 2.7-1.9 4.1l-.2.9.7-1.2c.8-1.3 1.1-1.3.7 0-1.3 3.8 2 13.6 4.7 13.6.2 0 .7.7 1.1 1.5.4.8.9 1.8 1.2 2.1.3.3.6.8.8 1.1.3.4.3.3-.1-.9-.4-1.1-.4-1.5-.1-1.6.5-.3.2-2.2-.8-5.1-1.2-3.4-1.3-9.6-.2-10.3.1-.1.2.1.1.5-.5 2.3-.4 6.5.2 8.4 1.8 5.4 2.3 6.6 2.7 6.2.4-.4.4-.4 1 2.2.2 1 .6 2.2.8 2.7.8 1.8-.1 1.9-1 .1-1.6-3.2-2.5-4.3-1.8-2.1.5 1.5.5 1.7.1 1.7-.5 0-3.6-3.1-4.4-4.4-.5-.7-1.7-2.3-2.6-3.6-3.7-4.7-5.4-10.1-4-12.8.9-1.6.5-2-.6-.6-1.8 2.3-1.8 6.8.1 10.6 1.8 3.5 5.6 8 6.2 7.1.2-.3 2.4 1.9 3 3.1.3.6-.2.5-.7-.2-.6-.7-1.3-.7-1.1 0 .3 1-1.4 1.3-2.2.4-.3-.4-.4-.4-.2.5.2 1.2-.5 1.1-1.4-.2-.4-.6-.4-.6-.2.3.2 1-.3 1.2-.6.3-.3-1-.7-.2-.6 1 .2 1.3-.1 1.7-.7.9-.4-.5-.5-.4-1.7 1.9-2.7 5-3.8 8.4-4.2 13.5l-.2 2.4 1.3 1.8c.7 1 1.9 2.8 2.6 4.1 1.2 2.1 1.3 2.2 1.4 1.4.1-1.4 2.4-1.3 5 .2.8.5 1.5.8 1.6.7.3-.3-2.2-2.1-6.3-4.5-2.3-1.4-2.2-1.6.3-.7 4 1.5 6.9 3.4 10 6.6l1.4 1.5-.6 2.3c-.6 2.1-.6 2.4-.2 3.8.3 1.3.3 1.8-.1 3.4-.7 3-.3 6.3 1 7.6.9.9 3.5.7 4.7-.3.9-.7 3.3-1.7 4.3-1.7 1.7 0 4.3-2 4.3-3.3 0-2.4-3.8-4.1-5.6-2.5-.8.7-2.4 2.7-2.4 3.1 0 .6-.8.5-1.5-.2-1-1.1-.9-2.1.4-4.2 1.1-1.8 1.9-4.3 1.9-5.8 0-1.9 5.8-6.4 11.9-9.4 4.5-2.2 7.5-2.3 10.7-.4 1.1.6 1 .9-.1.4-1.6-.6-5.7-.6-7.2 0s-6.6 3-6.8 3.1c-.4.4.4.3 1.2-.1 4.6-2.3 7.4-3 9.5-2.2 5.1 2 5.3 2.5 2 4.9-1.9 1.4-4.5 2.2-8.9 2.4-1.3.1-2.6.2-2.8.3-.9.3 1.9.6 4.9.4l3.2-.1-1.2.7c-.8.5-1.8.8-3.1.9-4.2.4-6.1 2.7-4.8 5.7.6 1.4 3.4 3.7 5.3 4.2 2 .6 3.5 2 4 4.1.4 1.3.4 1.3.4.4.1-3.2 2.5-6 7.1-8.3 1.3-.7 3.2-2.6 5-5 .9-1.3.7-1.8-.4-1.1-3 1.9-3.6 1.4-1.3-1.2 1.8-2 1.8-2-.4-1.8l-1.8.1 1.1-1c1.1-1 1.9-2.6 1.6-2.9-.1-.1-.4 0-.6.2-.5.5-2.7 1.6-2.7 1.4 0-.3.8-3.1.9-3.3.8-1.3-5.6-5.6-8.6-5.9-1.1-.1-1.5-.3-1.5-.6-.2-1 3.2-.9 6.8.3 2.1.7 2.3.6.8-.5-3.8-2.8-8.6-2.2-12.5 1.4-2.2 2.1-11.2 7.6-12.4 7.6-.6 0-.5-.8.4-3.7l.8-2.6h2.3c2.8 0 4.8-.9 8.2-3.4 5-3.8 8.4-4.6 12-3 1.4.7 1.9.6 1.1-.3-.9-1-2.7-1.5-5.8-1.5-1.6 0-2.9-.1-2.9-.2 0-.3 2.6-1 3.4-1 .9 0 1.4-.3 1.1-.8-.2-.3-.6-.3-2.4.1-3.9.8-3-.6 1.3-2.2l1.8-.6-2 .1c-1.3.1-2.7.4-3.9.8-2.6 1-3.3.8-1.5-.4l1.4-1-1-.2c-.5-.1-1.3 0-1.6.1-.9.3-1.2.1-.5-.5 2.1-1.6 6-2.8 7.6-2.2.6.2 1.2.3 1.3.2.5-.3 4.4.7 6.1 1.5 4.4 2.2 6.8 3.4 7 3.4.1 0 2.8 1.9 5.8 4.2 7.9 5.9 11.4 7.2 14.8 5.4.9-.5.2-.7-1.2-.3-1.1.3-1.7.3-2.9.1-3.2-.7-4.4-1.4-12.6-8.1a46.9 46.9 0 0 0-8-5.4c-2.8-1.5-2.5-1.7.7-.3 2.6 1.1 5.6 2.8 8.3 4.9 2.7 2 4 2.8 5.1 3.1 1.2.3 1 0-.5-.8-.7-.4-2.3-1.5-3.5-2.6-3-2.4-5.4-4.1-7.7-5.3-1-.5-2.2-1.2-2.6-1.6l-.8-.7 1.5.5c.8.3 2.1.8 2.9 1.2.8.4 1.4.7 1.4.6 0-.2-3.3-1.9-4.4-2.3-.6-.2-1-.4-.9-.4.5-.5 5.6 1.8 8.7 3.8 4.2 2.8 5 2.9 1.2.1-3.7-2.8-6.4-4.1-10.4-5.1-3.9-1-4.1-1.3-1-1.3 5.6 0 12.7 2.7 20.9 7.9 7.2 4.5 14.1 8 14.1 7.1 0-.1-.8-.5-1.7-.9-1.7-.7-7.9-4.3-11.7-6.8-11.1-7.4-19.4-9.9-27.1-8.2-1.6.4-2.1.3-1.6-.1 1.8-1.7 10.9-1.4 16.2.6 1.2.4 2.2.7 2.4.7.4-.1-3.9-1.8-6.4-2.4-2.7-.7-8.2-.5-11.3.3-3 .8-2.4.2 1.6-1.7 1.1-.5 1.8-.9 1.6-.9-.6 0-3.7 1.4-6.6 3.1-1.6.9-3.3 1.8-3.7 2-.4.2-.7.4-.7.6 0 .2-.7.8-1.5 1.3s-2.1 1.5-2.8 2.2l-1.2 1.3-.6-.6c-.5-.5-.7-.5-.8-.2-.3.5-1.2.5-1.4.1-.1-.2-.1 0-.2.4 0 1.2-.9.8-1.1-.5-.1-.6-.4-1.6-.6-2.2-.3-.7-.3-1.2-.2-1.3.1-.1.3-1.2.4-2.5.1-1.4 0-2.2-.1-2-.2.2-.2 0-.1-.5.1-.4.3-.8.4-.9.1 0 .3-.2.3-.4 0-.3 1.6-2.3 1.6-2 0 .1-.3.9-.7 1.9-.8 2-1.1 7.1-.4 7.8.3.3.3.1.3-.9 0-1.6.9-5 1.5-5.7.3-.3.8-1.2 1.3-1.9.4-.8 1.2-1.8 1.8-2.4l1.1-1-.7.9c-3.3 4.2-3.2 6.3.1 2.2 1.8-2.2 3.6-3.6 6.7-5 1.4-.7 2.7-1.4 2.8-1.6.2-.4 3.8-1.5 5-1.5 1 0 2.2-.4 2.2-.7 0-.7-8.1 1-12.6 2.6-2 .7-2.1.8-2.1.3 0-.6 3-2.2 6.4-3.4l2.3-.8 7.9.1c5.1.1 7.9 0 7.9-.2 0-.3-.8-.3-9.5-.9-9.9-.6-19.6 3.8-22.2 10-.3.7-.6 1.2-.7 1.2-.9 0 2-4.6 4.4-7.1.9-.9 1.5-1.7 1.3-1.7-1.8 0-6.7 8.1-7.4 12.3-.4 2.3-.7 2.3-.7-.1 0-2.2.6-4.6 1.5-6.4.8-1.6.8-1.8.1-1-.3.3-.2 0 .3-.7 1.1-1.7 4.1-4.5 6.1-5.7.9-.5 1.5-1 1.4-1.1-.2-.2-3.9 2.4-5.6 3.9-.9.8-1.5 1.2-1.3.9 1.5-2.8 9.3-7.8 13.7-8.7 1.8-.4 2.2-.9.5-.6-3.4.5-5.5 1.5-10.5 4.7-3.9 2.5-4.1 2.5-2.3.8 10.2-10.4 24.7-10 36.6 1 2.9 2.7 4 2.7 1.2 0-6.5-6.2-14.5-10-21-10.1-4.2 0-8.4 1.2-12.8 3.7-3.6 2.1-4.9 3.7-2.1 2.5l1-.4-1.1.9c-.6.5-2.3 2.1-3.8 3.7-1.9 2-2.7 2.6-2.6 2.2.3-.9 1.4-2.6 2.6-3.7.5-.5 1-1 1-1.1 0-.4-1.5.4-2.3 1.1-.8.9-1.6 1.1-1.2.3 1.3-2.4 12.5-9.5 18.5-11.8 3.4-1.3 6.7-1.2 11 .2 1.2.4 1.5.4 1.2.1-.6-.6-5-1.8-7.2-1.9-4.9-.3-20.5 7.6-24.2 12.3-2 2.6-2.4 3-2.3 2.3.5-2.2 2.5-5.5 4.5-7.7 1.1-1.2 1.1-1.2.3-.8-3.2 1.6-6.1 7.2-6.1 11.6 0 3.5.3 5.4.6 4.4.1-.5.2-.2.2 1.1 0 1 .2 2.2.4 2.8.3 1 .3.8.2-2.2-.2-4.1.3-4.7.9-1 .1.8.2.9.4.7.2-.3.3 0 .3 1 0 1.3.1 1.3.2.3.1-1.1.1-1 .5.7.8 4.2.2 8.3-1 5.6-.4-.9-1.1-1-1.3-.1-.1.9-.8.7-1.2-.3-.4-1-.9-1.2-1.1-.5-.2.7-1-1.3-1-2.5 0-.6-.2-1.3-.4-1.5-.8-1.2-2.3-7.9-2.3-10.5 0-4.8 2.3-9.1 6.8-12.4 3.7-2.8 5-3.9 4.7-4.2-1.4-1.4-12.2 9.9-11.4 12 .1.2 0 1.2-.3 2.3-.4 1.9-.4 2.7.3 8.3l.1 1.1-.5-1c-1.3-2.7-.6-11.3 1.2-14.7 3.4-6.3 3.1-5.9 6.9-8.8 3.5-2.7 6.5-4.6 8.2-5.3 1.5-.6 1.6-.6.8-.7-1-.1-2.6.4-3.8 1.2-3.2 2.1-5.9 4-6.6 4.6-1.4 1.3-2.2 1.9-1.8 1.3.2-.3.3-.5.2-.6-.3-.3-4.3 4.2-5.6 6.2-.8 1.2-1.3 1.8-1.3 1.5 0-.4 0-.4-.3-.1-.2.3-.3.3-.3-.2 0-.3.2-.6.3-.6s.6-.4.8-1c2.1-4.4 7-9.6 11.8-12.5 1.4-.8 1.5-1 .9-1-.4 0-1.6.6-2.9 1.5-1.2.8-2.9 2-3.7 2.5s-2.3 1.9-3.3 3c-1.7 1.8-2.2 1.8-1 .1.5-.8.5-1.4-.1-.9-.7.6 1.2-2.9 2.3-4.1.9-1 2.4-1.9 4.5-2.8.7-.3.7-.3-.2-.3.8-.4-.2-.1-.9.3m8.7 5.9c-2.5.9-4.5 1.9-5.3 2.7-.4.3.3.1 1.9-.7 1.4-.7 3.5-1.6 4.7-2 1.2-.4 1.8-.7 1.5-.7-.5 0-1.7.3-2.8.7m-15.3 4.7c-1 3.1-1.8 6.6-1.8 8.3 0 1.2 0 1.3-.3.5-.4-1.1 0-5.2.5-5.8.2-.2.3-.6.2-.7-.1-.2 2-4.9 2.1-4.8.1.1-.2 1.2-.7 2.5m6.8 5.7c-2.3 2.7-3.9 5.9-4.2 8.3-.2 1.4-.1 1.4.7-1.1 1.1-3.1 2.4-5.3 4.2-7.1 1.4-1.4 1.6-1.7 1-1.7-.2.1-1 .8-1.7 1.6m5.3 1.1c-1.5 1.5-3.3 4.1-2.9 4.1.1 0 .6-.6 1.1-1.4s1.7-2.1 2.5-2.9c.8-.8 1.4-1.5 1.3-1.5-.1-.1-1 .7-2 1.7m-16.3.5c0 .8.1 2.2.3 3 .1.8.4 2.2.5 3.2.2 1 .5 2.5.8 3.4.7 2.3.5 2.6-.4.7-1-2.1-1.5-3.9-1.5-5.8 0-.8-.1-1.6-.3-1.7-1-.6-.1 5.6 1.3 8.6 1.4 3 .5 2.1-1.1-1.1-2-3.9-2.3-7.6-.9-10.6.9-1.8 1.3-1.7 1.3.3m-8.4.4c-.8 4.4 1.4 12 4.3 15 .9.9 1 1 .5.3-3-4.1-4.2-8-4.5-14.9l-.1-1.7-.2 1.3m-4 3.7c-3.2 2.5-4.8 9.3-3.3 13.8 1.4 4.1 4.9 9.9 6 9.9.2 0 .2-.1 0-.3-1.3-1.7-2.5-3.3-2.5-3.6 0-.2-.5-1.3-1.1-2.6-1.4-2.9-1.4-3.5 0-1.2 1.3 2.2 3.6 5.1 3.7 4.8.1-.2-.4-.9-1-1.7-3.1-4.1-4.8-9.6-3.9-12.2.2-.6.4-1.6.4-2.1 0-3 .8-2.4 1.8 1.4.8 3 2.1 6.5 2.3 6.2.1-.1-.1-.7-.4-1.4-.8-2-.6-2.1.4-.2.5.9 1.7 2.4 2.6 3.3 1.3 1.3 1.4 1.4.5.3-3.8-4.5-5.7-11.3-4.2-14.9.3-.6-.2-.4-1.3.5m21.5 5.8c-.3 1.6-.2 5.7.3 6.4.4.6.4-.1 0-2.8-.2-1.7-.2-2.4.1-3.6.2-.8.3-1.5.2-1.5-.2-.1-.5.6-.6 1.5m28.9.2c-6.6 1.2-9.7 2.5-12.8 5.5-2.1 2-4.7 6-4.2 6.4.1.1 0 .7-.3 1.4-.6 1.9-.5 1.8.7-.5 1.1-2.1 2.7-4.4 3.2-4.4s.3.7-.6 1.9c-.8 1.2-2.4 4.1-2.4 4.4 0 .1.4-.3.9-1 1.6-2.1 6.4-6.1 7.4-6.1a6 6 0 0 0 2.1-1c5.2-3.1 12.3-3.4 18.5-.8.9.4.2-.4-.9-1-4.3-2.2-10.7-2.3-16.9-.4-.4.1-.3 0 .1-.2 1.4-.8 5-1.8 6.9-2 2.7-.2 2.1-.7-.8-.7h-2.2l1.3-.3c5.2-1.3 11.3.5 19 5.4 1.6 1 4.2 2.7 5.9 3.6 1.7 1 4.1 2.5 5.4 3.2 2.4 1.5 4.3 2.4 4.2 2-.1-.3-3.2-2.4-5.3-3.7-.6-.4-2.7-1.7-4.7-2.9-1.9-1.2-4.6-2.9-6-3.8-7.6-4.6-12.7-6-18.5-5M314 66.3l-.5 2.3.1-2.2c.1-2.2.3-3 .7-2.6.1.1-.1 1.2-.3 2.5m-28.7-1.6c-.3 1.5.6 4.8 1.9 7.6.8 1.6 1.1 1.2.4-.5-.7-1.6-1.4-3.9-1.8-6.2-.2-1.8-.3-1.8-.5-.9m-76.7 1.8c-1.7.8-1.8 1-.4 1.7 1.1.6.7.6-2.3.1l-2.2-.4-1.1.7c-2.2 1.3-2.1 1.5.3 1.3 1.5-.1 2.2-.1 2.2.1 0 .3-.1.4-3.4 1.1-2.9.7-3.8 1-3.8 1.3 0 .5 3.6 1.5 5.5 1.5 2.9.1 8.3 3 10.3 5.6.6.8 1.3.8 2.2.1.8-.7.9-1 .2-1.9-1-1.2-.3-1.4 1-.3.5.4.8.6.8.4 0-.3-1.4-2.2-2-2.7-.5-.4-.6-1.1-.1-1.1.2 0 1.1.8 2 1.8.9 1 1.8 1.7 1.8 1.6.2-.2-1.3-2.3-2.1-3.1-.8-.8-.9-1.1-.2-1.1.3 0 1.4 1 2.5 2.1 1.8 1.9 2.7 2.5 2.7 2 0-.2-1.8-2.4-3.3-4.1-1.7-1.9.3-1.7 2.1.2.4.5.9.8 1.1.8.2 0 .5.2.6.4.2.2.7.5 1.2.7.8.3.8.3.3-.2-.3-.3-1.2-1.2-2-2.1-.9-1-2.1-2.1-3.2-2.7-1-.6-2.4-1.6-3.2-2.3-2.9-2.2-5-2.7-7.5-1.5m100.9.7c0 .7.1 1.6.2 2 .3 1 .3-.8 0-2.3l-.2-1.1v1.4m-82.7 1.1c-.4.1-1 .5-1.4.9-.8.8-.8.8.6 2.3.8.8 2.9.9 3.9.1.9-.7.9-.7 1.8.9s1.3 1.8 1.3.8c-.1-2.5-3.6-5.4-6.2-5m-201.7.6c-1.4.3-1.4.1-.6 4.2 1 5.1 2.8 11.1 5 16.5 1 2.5 1.8 4.7 1.8 4.7 0 2 8.6 15 14 21.2 11.5 13.1 20.7 20.8 32.5 27.2 2 1.1 4.4 2.5 9.4 5.6 2.7 1.6 3.2 2 8.8 4.9 7.7 4.1 18.5 10.1 22.8 12.6 2.1 1.3 4.5 2.7 5.3 3.1.8.5 2.5 1.4 3.7 2 1.2.6 2.4 1.3 2.7 1.5.8.6 6 3.4 7.7 4 2.9 1.1 11.2 5.6 18.3 9.9 2.8 1.7 5.4 3.2 5.8 3.3.4.1 1.2.5 1.7.8.5.3 1 .5 1.1.4.2-.2.3-.1-1.8-1.6-1-.7-2.7-1.9-3.9-2.7-1.2-.8-4.1-2.7-6.4-4.1-2.3-1.4-5.2-3.2-6.4-3.9-1.2-.7-3.6-2-5.5-2.9-1.8-.9-4.5-2.4-6-3.3s-5-2.8-7.9-4.3c-2.9-1.4-5.7-3-6.3-3.4-.6-.4-1.9-1.2-2.8-1.7-.9-.5-3-1.6-4.6-2.6-1.6-.9-4.1-2.3-5.6-3.2-1.5-.8-3.9-2.2-5.5-3.2-1.6-.9-3.3-1.9-3.9-2.1-.6-.2-2.7-1.4-4.9-2.7-2.1-1.2-4.7-2.7-5.7-3.2-4.1-2-14.9-8.2-15.7-9-2.9-2.7.2-4.4 5.5-3.1 5.6 1.4 5.7 1.5 14.5 7.3 14.2 9.4 17.2 11.4 18.9 12.3 1 .5 2.7 1.5 3.6 2.1 1 .6 2.3 1.4 2.9 1.7.6.3 1.8 1.1 2.5 1.6.8.6 2.7 1.8 4.3 2.8 1.6 1 4.5 2.9 6.5 4.2 7.8 5.2 17.8 11.7 17.8 11.5 0-.1-.8-.7-1.8-1.4s-2.3-1.7-3-2.2c-3.4-2.7-15.8-11.9-17.9-13.2-1.4-.8-3.3-2.1-4.2-2.8-.9-.7-3.8-2.5-6.3-4-6.5-3.8-7.7-4.6-11.4-7.1-6.7-4.6-11.9-8-14.5-9.5-6.1-3.5-14.6-11.4-17.9-16.8-2.4-4-3.1-5.4-2.7-5.8.5-.5 4.6-.3 7.6.3 1.4.3 3.1.6 3.8.6 2.1 0 9.6 3 18.8 7.6 2 1 4.6 2.2 5.8 2.7 2 .8 3.5 1.6 7.6 4.2.7.4 2.1 1.2 2.9 1.8.9.5 3.1 2 5 3.2 1.9 1.3 4 2.7 4.9 3.2 3.8 2.4 9 6.3 11 8 3.3 3 6.2 5.6 6.4 5.6.9 0-8.1-9.1-12.3-12.3-4.5-3.5-14.6-10.5-19.8-13.8-1.2-.8-12.2-6.4-19.7-10.2-5.5-2.7-14.8-5.9-18.9-6.4-1.3-.2-3.4-.6-4.7-1.1-1.3-.4-3.4-1-4.6-1.3-2.7-.7-3.5-1.2-8-5.3-5.4-4.9-21.4-23.4-20.7-23.8 1.9-1.2 18.4-.9 23.5.4a151.48 151.48 0 0 1 10.3 2.9c1 .4 3 1 4.4 1.3 2.4.6 5.7 1.8 8.2 3 .7.3 2.5 1 4.1 1.6 3.8 1.4 7.8 3.5 11.6 5.9 1.7 1.1 4.9 2.9 7.1 4.1 8 4.1 8.8 4.8 15.7 11 5.8 5.3 7.7 6.9 14.9 12.7 3.1 2.5 7.4 6.2 9.6 8.2 2.2 2.1 5.3 4.8 6.9 6.2 3.1 2.6 5.3 4.7 8.1 7.9 1 1.1 3.4 3.3 5.5 5 2.1 1.7 5.5 4.8 7.6 6.8 2.1 2 4.1 3.6 4.3 3.6.2 0 1.1.6 2 1.3 1.5 1.3 6.7 5.1 9.6 7.1.8.6 2.9 2.1 4.5 3.4 6.7 5.2 14.4 9.8 15.1 9.1.5-.5-.1-.9-4.1-3.4-4-2.4-6.5-4.2-9-6.4-8-6.9-17.6-14.5-21.4-17-2.6-1.7-3.9-2.9-10.5-9.5-4.1-4.1-8.8-8.7-10.5-10.2-1.7-1.5-4.1-3.7-5.5-4.9-1.3-1.2-3.1-2.7-4-3.5-3.3-2.7-5.7-4.9-10.3-9.3-5.9-5.7-10.2-9.5-12.8-11.3-1.1-.8-3.2-2.4-4.6-3.6-2.6-2.2-4.1-3.2-13.5-9.6-10-6.7-24.8-14-33.1-16.3-1.6-.4-3-.8-3.1-.9-1-.6-11.4-2.9-14.3-3.2-1-.1-3.1-.5-4.6-.8-2.9-.7-7.6-.9-14.5-.7-1.7.1-3.6 0-4.3-.1-.3.5-1.3.5-1.9.6m263 3.3c0 .3 1.4 3.2 1.9 3.9.7 1 1.3 1 .6.1-.3-.4-.8-1.4-1.2-2.2-.6-1.3-1.3-2.2-1.3-1.8m-108 .7c-5.8 1.4-9.8 4-9.5 6.4.1 1.2 1.5 1.3 2.5.1 3.7-4 14.9-4.1 25.7-.1 2.2.8 4.3 1.9 10 5.2 9.2 5.4 5.1 1.8-5.1-4.5-1.1-.7-1.6-1.1-1.3-1.2.9-.6 10.4 6 16.6 11.4 4.9 4.3 5.5 4.2 1-.2-9-8.8-21.3-16.2-27-16.2-.4 0-1.9-.3-3.4-.7-3.2-.8-6.5-.9-9.5-.2m156 2.7c1.2.2 2.6.4 3.1.6.6.2.4.2-.7.1-3.7-.5-8.7.2-10 1.4-.9.9-2.6 1.7-2 1.1.8-.9-.3-.4-3.1 1.5-1.1.7-2 1.3-2.1 1.2-.4-.4 4-3.9 5.9-4.7 2-.8 4.9-1.6 5.7-1.5.5-.1 2 .1 3.2.3m2.7 2.1c1.8.5 3.4 1.3 3.1 1.5-.1.1-1.1-.2-2.3-.6-3.9-1.2-8-1.1-11.5.3-.3.1-.5.1-.5-.1 0-.3 1.7-1 3.3-1.4 1.8-.4 5.8-.2 7.9.3m-109.8.5c-.2.1 0 .3.7.4.6.1 3.5 1 6.5 2 5.2 1.7 9.9 2.9 11.7 2.9.5 0 .8.1.8.2 0 .3-2 .6-3 .4-5-.8-6.5-1.1-9.3-1.9-3.4-1-4.3-1.1-2.3-.3.6.3 2.9 1.3 5.1 2.4 2.2 1.1 5.1 2.4 6.5 2.9 1.4.5 2.3.9 2.1.9-1.2 0-4.6-.9-7.8-2.1-1.9-.7-4.3-1.6-5.2-2-2.3-.9-2.3-.7.2.8 1.1.7 3.1 1.8 4.3 2.5s3.6 1.9 5.4 2.6c3.8 1.5 4 1.8.4.8-2.9-.8-4.6-1.5-11-4.6-2.4-1.2-4.8-2.2-5.2-2.3l-.8-.2.9.6c.5.3 2.3 1.5 4 2.6 5.1 3.4 6.2 4 10.4 6.2 4.6 2.3 4.7 2.6.3 1-3.5-1.2-8.1-3.6-12.9-6.6-3.6-2.3-5.8-3.3-6.4-3.2-.2 0 .5.5 1.6 1.1 1.1.6 3.8 2.3 6 3.9 5.6 4 11.3 7.9 12.4 8.4.5.3 2.8 1.7 5.1 3.2 4.4 2.9 10.8 6.4 13.4 7.2.8.3 1.5.6 1.5.7 0 .8 1.3-.4 4.6-4.4 2.7-3.3 4.6-5.2 6.6-6.9 2-1.6 2.8-2.5 2.5-2.6-.2-.1-1.3-.5-2.5-.9s-2.9-1.1-3.7-1.6c-.9-.5-2.7-1.3-4-1.8s-3.1-1.4-4-1.9l-3.3-1.8c-.9-.5-1.7-1-1.7-1.2 0-.2-.2-.6-.5-1-2.9-3.6 8.9-3.8 19.6-.4 3.3 1.1 3.3 1.1 3.3.7 0-.8-4.5-2.8-9.6-4.4-3-.9-10.4-1.4-13.7-1-4.9.7-16 .4-21.4-.6-5.8-.8-7.2-.9-7.6-.7m-46.7 3.3c-5.6.8-13.6 3.7-15.9 5.7-1.8 1.5-3.3 5.1-3.3 7.7 0 2.8 8.3 12.3 14.4 16.6 6.1 4.3 26.3 14 27.1 13.2.3-.3.2-.5-1.1-1.4-3.5-2.4-8.6-9-9.6-12.3-1.8-6.2.3-11.7 6-15.4 3.2-2.1 2.7-2.5-.6-.5-8.6 5.1-9.8 14.2-3.1 22.6 2.1 2.6 2.1 2.7 0 1.1-5.9-4.5-11.6-13.5-13-20.4-1-4.9 1.6-9 7.4-11.8l2.7-1.3-.8-.5c-1.8-1.2-7 .7-10.1 3.7-4.1 4-4.1 8.9.2 16.7 2.3 4.2 2.3 4.4-.3 1.5-5.8-6.6-7.4-10.4-6-13.6.2-.6.4-1.1.3-1.3-.5-.9 4.2-5.8 7-7.4 2-1.1 1.5-1.1-1.7.1-8.3 2.8-11.8 8-9.8 14.2.9 2.7 2.4 5.7 4 7.7 2.8 3.6 2.9 4 .6 1.6-12.9-13.5-11.3-21 5.4-25.9 3.3-1 3.4-1.1.2-.6m42.8 6.6c.1.1.7.6 1.4 1s1.9 1.3 2.7 2.1c.8.7 3.2 2.5 5.4 3.9 15 9.7 17.8 11.1 5.5 2.7-1.8-1.3-5.5-3.8-8.1-5.6-5.5-3.9-7.6-5.1-6.9-4.1m74.3 4.3c1.5.8 3.3 1.5 3.8 1.7 1.3.4 1.9 1.9 2 4.3v1.4l-1.8-1.3c-4-3-7.7-5-10.3-5.7-1-.3-.9-.6.4-1.2 1.8-.8 2.7-.7 5.9.8m52.5 1.5c-1.8.9-3.6 3.9-2.7 4.7.3.3.5.1 1.4-1.4.6-1 1.4-1.4 3.5-1.4s2.6.5 2.6 2.3c0 1.4.5 1.5.8.2.8-2.8-2.8-5.7-5.6-4.4m-143 1.8c-.6.4-.9.8-.9.9.4.6 7.5 2.1 11 2.3l2.4.2.8-1.3c1-1.6 1-1.6-.6-.9-1.5.7-3.6.5-8-.9-3.3-1.1-3.5-1.1-4.7-.3m149.9 2.6c-.1 1.9-1.2 3.9-3.4 6.5-.7.8-1.7 2.2-2.1 3-.4.8-1.1 1.9-1.4 2.5-1.3 2-1.5 5-.3 4.6.2-.1.5-.2.7-.2.7 0 1.3-1.1 1.3-2.5 0-2 1-3.8 3-5.5 4-3.5 5.8-8.2 3.6-9.6-1.4-.6-1.3-.7-1.4 1.2m-126.9 1c0 .1.7.5 1.6.9 1.5.6 4.6 2.4 4.2 2.4-.1 0-1.8-.5-3.7-1.2-6.8-2.3-6.8-2-.3 1.3 5.9 2.9 13.7 7.7 15.7 9.6.4.4.9.7 1 .7.4 0 4.4 2.9 6.3 4.6 1.9 1.7 2 1.8 2.3 1.1.4-1-8.6-8.5-16.1-13.4-.6-.4-.6-.4.3-.4 1.4.1 7.9 4.3 12.8 8.3 1.8 1.5 4.2 2.9 4.5 2.6.2-.2 0-.4-6.4-5.1-8.2-6-10-7.3-12.7-8.5-3.6-1.6-9.5-3.4-9.5-2.9m97.2 1c-.1.1-.1.5 0 .9s0 1.1-.3 1.6c-.2.5-.4.9-.4.9.3.3 4.5-2.1 4.5-2.6 0-.4-3.4-1.2-3.8-.8m22 1.6c0 .6-.3 1.6-.6 2.3-.7 1.4-.5 1.6.9.7 1.1-.8 1.3-1.7.5-3-.8-1.2-.8-1.2-.8 0m-53.9.9c0 2.6 1 3.6 2.7 2.8.9-.5.9-.4.1-1.6-.4-.5-.7-1.1-.7-1.3 0-.2-.5-.4-1.1-.6l-1.1-.3v1m25.1-.1c-1.3.8-1.5 1-1.1 1.2.7.4 4.1.6 3.6.2-.4-.3-.9-1.5-.8-2.1 0-.4 0-.4-1.7.7m-38.2 2.6c-1.5 1.6-2.1 2.9-5.1 11.3-.5 1.3-.8 3-1 6-.6 6.8-.9 8.1-2.8 13.6-1.6 4.4-3.4 8.2-6 11.9-1.2 1.8-2.1 3.3-2 3.3.9 0 7.5-8.6 8.7-11.4 2.3-5.2 3.6-8.7 4.1-11.1 1.3-6.6 2.4-10.7 3.3-12.8.2-.6.9-2.2 1.4-3.6.5-1.4 1.1-2.8 1.3-3.1.4-.6.4-.8-.2-2.6-.7-2.5-.8-2.6-1.7-1.5m11.8.2c.1.5 0 2.1-.3 3.6-1.1 6.8-1.1 7.3 0 10.8.3 1.1.8 2.7 1.1 3.5.2.8 1.6 3.7 3 6.5 2.6 5.1 4.3 8.9 5.4 12.3 2.1 6.5 3.5 9.1 5.3 9.9 1.2.5 5.1.5 5.1 0 0-.3-.3-.4-.8-.4-1.4 0-5.4-2.6-4.1-2.7 4.1-.1 7.1-1 8-2.3.5-.8.8-6.9.3-7.2-.1-.1-.3-.4-.3-.6 0-.7-.5-.8-3.9-.8-4.1 0-5.7-.9-5.7-3.2 0-.1 1.5-.3 3.4-.4 5.8-.3 11.2-3.3 13.5-7.5l.7-1.3-.8.7a19.6 19.6 0 0 1-5.7 3.3c-3.1.9-4.7 1.2-7.4 1.5-1.5.2-3 .4-3.3.4-.3.1-.6-.1-.8-.5-.2-.3-.6-.9-.9-1.2-.3-.3-.4-.6-.2-.6s.8-.4 1.3-.9c.8-.8 1.2-.9 2.1-.9 1.4 0 3.4-.5 3.8-1 .2-.3.8-.3 2.3-.2l2 .1-1.5-.7c-2.1-1-3.2-1.1-4.6-.4-1 .5-1.3.5-1.7.3-.8-.4-2.3-.4-3.3.1-.9.5-.9.4-2.5-.9-2-1.8-3-7.1-1.9-10.2.3-1 .4-1.4.1-2.8-.2-1.2-.2-2 0-3.2.3-1.9.5-1.8-1.4-.9-2.9 1.4-3.4 1.4-1.9-.1 1.6-1.4 1.4-1.9-.3-1-2.2 1.3-3.2 1.3-3.7 0-.5-1.9-.6-2.1-.4-1.1m52.1 6.5c-.2.2-.5.4-.7.4-.7 0-1.3 1.6-1.3 3.3 0 2.4 1 3.9 2.8 4.4l.9.3-.8-.7c-.9-.7-1.4-1.6-1.4-2.2 0-.2.3 0 .7.4.8.8 1.9 1.3 2.8 1.3.5 0 .4-.1-.4-.6-1.4-.9-2-2.3-1.9-4.8 0-2.2-.1-2.5-.7-1.8m-73.1 4.3c-.4.4-1.8 1.9-3.3 3.3-3.3 3.2-5.4 5.7-7 8.5-.7 1.2-2.2 3.6-3.3 5.3-4 6.2-5.9 9.9-4.9 9.5.3-.1 1.7-.7 3.3-1.3s3.7-1.4 4.9-1.9c2.5-1 2.5-1 4-3.3.7-1 1.9-2.8 2.9-3.9 3.1-3.7 3.3-5.3.2-2-3.3 3.6-3.4 3.7-3.7 3.4-.3-.3.8-2.4 2.7-5.1 1-1.4 3-4.4 3.8-5.8.4-.7-.1-.3-2.8 2.4-2.6 2.6-3.2 3.3-6.1 7.1-1.8 2.4-2.1 2.2-.8-.4 2.8-5.5 3.7-6.9 8.5-13.1 2.2-2.9 3.1-4.4 1.6-2.7m11.9 25.5c-5.8 4.9-11.9 10.9-14.4 14.1-1 1.4-2.8 3.6-3.8 4.9-1.9 2.3-3.4 4.7-3.2 4.7a20 20 0 0 0 2.2-2.7c1.1-1.5 3.1-3.9 4.5-5.3 1.3-1.4 3.1-3.3 3.8-4.2 1.4-1.6 3.5-3.5 3.5-3.1 0 .1-1.1 1.7-2.4 3.4-1.3 1.8-2.4 3.4-2.4 3.7 0 .2-.7 1.3-1.6 2.4-1.8 2.3-4.2 5.8-4 5.8.1 0 .9-1 1.9-2.3 3.7-4.7 8.4-9.1 8.4-7.8 0 .2-1.4 2.1-5.8 7.9-2 2.6-3.5 4.8-3.5 5 0 .6 1.2-.2 2.2-1.5 2.6-3.3 6.9-7.4 7.2-6.9.2.3-.8 1.8-3.2 4.9-2.1 2.7-3.3 4.6-3.3 4.9 0 .8.9.1 2.2-1.7 3.7-4.8 6.7-6.3 3.5-1.8-.8 1.1-1.8 2.6-2.2 3.4l-.8 1.3 1.3-1.5c2.7-3 4.1-4.2 4.1-3.5 0 .1-.9 1.6-1.9 3.3-2.6 4.1-2.6 4.3-1.1 2.9.7-.7 2.1-1.9 3.2-2.8 1-.9 2.9-2.5 4.1-3.6 1.2-1.1 2.6-2.2 3-2.4 4.1-2 6.8-9.6 5.6-15.8-.3-1.6-.6-3.3-.6-3.9 0-.9-1.8-5.7-2.1-5.6.2 0-1.9 1.7-4.4 3.8m-17.6-.4c-.2.2-4 1.7-8.8 3.6-3.4 1.3-5.3 2.7-5.4 3.8 0 1.2-1.9 8.8-2.9 11.9-.4 1.1-.6 2.2-.6 2.3.1.4 3.3-5.9 3.2-6.5-.1-1.1 1.6-5.5 2.5-6.5 1-1.1 6.1-4.4 9.5-6.1 1.7-.8 2.4-1.4 2.7-2 .4-.7.3-1-.2-.5m132.9 6.9c-2.7 2.8-10.3 5.5-16.5 6-3.6.3-10.7 1.6-10.5 1.9.1.1 1 .3 2 .4 2.9.3 1.5.6-2.7.6-4.1 0-4.7.5-.6.6 2.3 0 5.1.4 3.7.5-3.3.2-10.6.9-11.1 1.2-1.7.6-.5.7 5.7.6 6.9-.2 8.1.1 2.6.7-1.7.2-4.7.5-6.8.8l-3.7.5 2.4.2c12 1.2 19.8-.6 30.9-7.2.7-.4 1.3-.7 1.4-.6.4.4-5.2 4.3-10 7-6.8 3.7-15.9 4.8-29.3 3.7-7.8-.7-9.9-.7-15.1-.5-3 .1-5.7.3-6 .5-.3.1-1.6.3-2.9.4-2.7.2-3.8.6-10.8 3-7.4 2.6-8.9 3.5-4.2 2.3 5.1-1.3 17.1-3.2 17.1-2.7 0 .2-2.1.8-7.4 2-8.4 1.9-13.5 3.9-16.7 6.5-1 .8-.3.6 1.2-.3 4.3-2.7 11.9-4.7 22.9-6.1 1.8-.2 4.2-.5 5.2-.7 1-.1 6.6-.4 12.4-.5 12.8-.3 14.4-.5 26.7-3.2 3.9-.9 7.7-2.5 11.2-4.9 3.4-2.3 4.1-3 8.8-10.1 2.3-3.7 2.4-5 .1-2.6m-152.8 8.8c-.3.4-.7 1.1-.9 1.7-.2.5-1.2 2.7-2.2 4.9-3.2 6.4-3.7 8.3-2.4 9.1.9.6 2.8-.8 2.8-2.1 0-.4.1-.9.3-1.1.3-.6 2.2-7.4 2.8-10.2.2-1.1.5-2.2.6-2.5.2-.7-.3-.6-1 .2m81.5.5c-2.9 1.6-11.5 2.8-13.9 2-1.4-.5-5.7-1.1-11.6-1.5-3.8-.3-7.1.8-11.1 3.8-1.1.8-2.9 2.1-4.1 2.8-4.7 3-6.3 4.6-9.5 9.9-2 3.2-2 3.3-1 2.4 3-2.8 9.3-7.3 10.1-7.3.2 0-.6 1.1-1.9 2.3-1.2 1.3-2.8 3.1-3.6 4.1-2 2.6-1.9 2.6-1.5 2.2 1.4-1 2.9-2.2 3.7-2.9 4.9-4.4 15.1-7.7 25.1-8.1 5.9-.3 5.8-.2 11.2-2.4 4.6-1.8 4.6-1.7-.3-1.2-.8.1-1.5.3-1.4.4.1.2-3.6.1-4.4-.2-.2-.1-.3-.3-.2-.5.1-.2 0-.4-.1-.5-.2-.1.8-.2 2.2-.4 5.1-.7 10.3-2.6 12.9-4.7.8-.7.6-.8-.6-.2m-63.4 9.7c-.4.4-.5.5-.2.5.2 0 .6-.2.7-.5.4-.6.3-.6-.5 0m42.6 4.6c-1.8.7-2.2 1-3 2.2-1.3 2-4 7.2-5.1 9.7-1.6 3.8-1.8 4.3-2.1 4.3-.2 0-.2-.2-.1-.6.1-.3.5-1.7.9-3.1.4-1.4 1.1-3.5 1.6-4.6.5-1.1 1.1-2.6 1.4-3.3.3-.7.5-1.3.4-1.4-.6-.6-13.6 7-17.2 10.1-1.3 1.1-5.2 5.1-5.2 5.3 0 .1 2.8.1 6.1.1 7.3 0 8.3.4 2.3.8-5.2.4-9.8 1-10.7 1.5-1.3.6-3.3 4.6-2 4.1 3.3-1.3 18.7-1.6 22.8-.4 1.1.3.9.7 2.1-3.6 3.3-11.8 5.2-16.1 9.1-20.2 2.1-2 1.9-2.1-1.3-.9m-45.8.8c-4.1.2-8 .7-14 1.7-4.9.8-10.5 1.6-17 2.3-2.9.3-5.6.7-6 .9-.4.2-1.8.5-3.1.7-1.3.2-2.7.4-3 .6-.3.1-1.2.2-1.9.3-2.1.1-3.5 1.1-1.5 1.1 3.5 0 9.3 1.8 9.9 3.1.6 1.3-.3 4.7-1.3 4.7-.1 0-.3.2-.3.4 0 .6.7.5 3-.4 1.1-.4 3.1-1 4.4-1.3 1.3-.3 4.1-1.1 6.3-1.9 5-1.7 8.1-2.6 12.7-3.7 3.5-.8 15.2-4.6 16.5-5.3 1-.5.4-3.3-.6-3.2-.1-.2-1.9-.1-4.1 0m75.1 2.3c-2.8.5-8.6 2-12.5 3.3-1.8.6-4 1.2-4.9 1.5-5.1 1.3-6.8 1.9-8 3.2-1.4 1.4-1.4 1.4 2 .4 5.3-1.6 5.1-1-.8 1.9-4 1.9-4.4 2.2-4.8 3.1-.6 1.4-.5 1.4 3.4-.4 4.4-2.1 5.6-2.5 5.6-2.1 0 .5-2 1.8-6.6 4.5-2.3 1.3-4 2.4-3.8 2.4.9 0 4-1.1 5.9-2 1.1-.6 2.1-.9 2.2-.8.6.6-2.6 2.6-6.3 4.2-2.7 1.1-4.4 2.1-2.9 1.8.4-.1 1.4-.2 2.3-.3.9-.1 2.4-.6 3.5-1 1.7-.8 3.1-1.7 10.6-7.4 9.8-7.3 16-9.6 26.6-9.7 2.9 0 5.3-.1 5.3-.1 0-.1-3.7-1.8-4.9-2.3-1.8-.8-8.6-.8-11.9-.2m-66.5 1.8c0 .4-.1.7-.3.8-.1.1-.3.1-.3-.1 0-.1-.3-.4-.7-.5-.9-.4-1.1.1-.4 1.1.9 1.2.6 1.8-1.6 3.4-2.2 1.6-3.6 2.5-5.3 3.9-.7.5-3.5 2.1-6.4 3.5-7.8 3.8-5.9 3.6 2.5-.3 8.3-3.9 13.7-7.1 13.7-8.1 0-.3.1-.5.3-.6.1-.1.3-.7.3-1.4 0-1.3 0-1.3-1.7-2.1 0-.3-.1 0-.1.4m-62.2 1.2c-.3.1-.5.5-.5.8 0 .5.3.7 2.3 1.3 1.4.4 1.4.6-.5 1.8-2.3 1.6-1.7 2.5 1 1.4.8-.3 1.7-.5 2-.5 1.2 0 1.7-1.9.9-3.1-.7-1.1-4.3-2.2-5.2-1.7m132.1 7.9c.1.2 0 .4-.2.6-.2.2-.4.7-.4 1.1 0 .9-.5 2-2.1 4.2-1.5 2.1-1.9 2.3-1 .6.8-1.5 1.2-4.9.7-5.6-1.1-1.6-11 4.2-11 6.5 0 1.6.2 1.6 1.3.2.5-.7 1.5-1.5 2.1-1.9 1.3-.7 1.4-.5.4.5-.7.7-2.3 2.9-2.3 3.2 0 .5 5-4.1 5.5-5.2.3-.6.6-1 .6-.7 0 1-1.2 2.9-3.1 4.8-3.4 3.6-1.7 3.3 2.1-.3.6-.6 1-.8 1-.6 0 .4-1.7 2.7-2.3 3-.6.3-.5.7.2.7 1.9 0 7.7-4.1 9.3-6.5.9-1.4.1 2.7-.7 4.2l-.9 1.4.8-.5c1.8-1.1 3-2.8 3.5-4.8.1-.6.2-.7.3-.3.4 1.7-1.9 5.2-4.2 6.5l-1.2.7 1.2-.2c1.4-.2 2.1-.6 4-2.3 1.7-1.5 1.9-2.8 1.2-5.9-.2-1-.4-2.1-.4-2.4 0-.8-.2-.9-2.7-1.1-1.2-.1-1.8-.1-1.7.1m6.9.7c0 .1.2.9.5 1.8.9 2.8.9 3.4.3 5.3-.7 2.1-2.3 4.1-4.2 5-2.1 1-.9 1.5 1.3.6s5.2-5.2 5.2-7.3c0-.4.1-.9.3-1.2.4-.7 0-1.8-1.4-3.2-.8-.9-2-1.4-2-1m-90.2 6.1c-1 .7-2.4 1.7-3.3 2.1-2.5 1.3-1.9 2 5 6.6 4.9 3.2 10.8 8 11.4 9.1.3.6 1.3 1.2 1.5.9.1-.1-.2-.6-.5-1.2-1-1.5-1.7-3.1-2.5-5.2-1.7-4.7-5.2-10.8-7.1-12.3-.7-.5-2.6-1.6-2.7-1.5 0 .2-.8.8-1.8 1.5m99.2-.4c0 .3.1.6.3.8.6.6.4 4.1-.4 6.3-1.1 3-2.4 4.2-5.6 5.5l-2.4.9-6.4.1c-7.5.1-10.1.5-14.8 2.6-2 .9-2.1 1.1-.8 2 1 .7 1.2.7 1.9.4 4.1-1.7 4.2-1.7 10.4-1.7 3.8 0 6.9.1 8.8.4 6.8.9 10.2.1 13.3-3.1.9-.9 2.4-4.8 2.4-6.3 0-1.3-.2-1.2-.6.3-1.3 5.8-4.1 7.5-12.3 7.6-4.1 0-5.1-.1-4.7-.5.1-.1 1.5-.2 3-.4 6.7-.5 10.1-5.2 8.8-12.4-.3-2.4-.9-3.7-.9-2.5m-193.8.4c-.2.3-.3.6-.3.6l1.2.8c.6.4 1.9 1.6 2.9 2.5 2 1.9 2.7 2.2 6.1 2.2.7 0 2.1.1 3 .3 1.3.2 1.7.2 1.5-.1-.1-.2-.6-.3-1.1-.3-1.9 0-5.2-1.9-6.5-3.7l-.6-.8h.6c.9 0 2.4-.7 2.4-1.2 0-.3-.2-.3-.9-.1-1.4.4-3.3.3-5.8-.3-1.2-.3-2.2-.5-2.3-.5.2 0 0 .3-.2.6m190.4 1.3c0 2.2-1 4-2.7 5-4.2 2.3-3.7 2.1-7.8 2.1-5.4-.1-9.8-.5-12.7-1.3-8.4-2.2-14.1-1.9-18.6.9-2.3 1.4-1.2 2.1 1.3.8 2.8-1.3 7-2.1 9.7-1.6 1.7.3 1.6.7-.3.9-3.1.4-4.3.8-5.6 1.6l-1.3.8.8.3c.7.3 1 .3 2.3-.2.8-.3 2-.6 2.6-.6l1.2-.1-1.7.8c-2.1 1-2.1 1-1.5 1.5.4.3.7.3 1.9-.2 2.5-.9 12.2-2.3 12.2-1.7 0 .1-1.3.5-3 .7-3.9.6-8.2 2.1-8.2 2.8 0 .1.5.6 1.1 1.1l1.1.9 2.1-1.1c3-1.6 5.7-2.1 12.3-2.4 8.9-.4 13.1-2.2 14.9-6.4.7-1.5.9-5.7.4-5.8-.4-.1-.5.2-.5 1.2m-194.4 4c-1.1.3-2.5.5-3 .5s-3.7.5-6.9 1.2c-3.2.6-7.1 1.4-8.7 1.7l-2.8.5-.8 1.7c-1.1 2.4-1 2.6.8 4.3 3.3 3.1 4.5 3 1.6-.2l-1.7-1.8.9-.4c.7-.3 2.6-.4 7.3-.6 3.5-.1 8.6-.3 11.3-.5 4.8-.3 5-.3 8 .4 1.7.4 5 1 7.2 1.5 4.4.9 4.5.9 5.8 3.1l.4.8-1.3-.2c-1.7-.3-13.2-.2-14.6.1-.8.2.4.3 4.9.4 4.5.2 6.4.3 7.6.7.9.3 2.2.6 2.9.8 1 .3 1.7.7 2.9 1.9 1.7 1.6 5.6 3.2 6.8 2.8.3-.1 1.3 0 2.3.1 1.6.2 1.8.2 1.3-.1-.3-.2-.6-.4-.7-.4-1.7 0-6.3-5.2-7.7-8.6-.7-1.8-.7-1.8 3.1-1.5 3 .2 3.3.2 5.7-.5 7.5-2.1 17.6-6.1 17-6.6-.3-.3-7.1 1.3-12.6 2.8-6.8 2-7.4 2.1-11.5 1.3-3.5-.7-3.9-.9-2.1-1.2 6.5-1 9.6-1.6 10.2-2.2.5-.4-1-.3-3.6.2-.7.1-2.1.3-3.2.4-1.1.1-3.4.3-5.1.6-5.9.7-14.5-.5-16.5-2.5-1-1.2-2.1-1.3-5.2-.5m221.7 1.2c.3 1.4 1.3 5.1 2.3 8 3.7 11.4 4.2 18.8 1.8 27.4-.7 2.6-1.4 3.7-1.2 1.8.5-3.7.7-6.3.6-9.7V223l-.4 3.3c-.2 1.8-.5 4.4-.8 5.7s-.5 2.8-.5 3.2c-1.2 8.6-5.3 15.1-11.5 18.5-.7.4-.8.5-.4.4 1.9-.5 3.7-1.6 6.2-3.6 12.3-10.4 14.1-30.3 4.5-50.2-.4-.9-.7-1.4-.6-1.1m-10.2 4.1c0 4.3-1.9 9.3-4.5 11.9-1.4 1.5-1.6 1-.3-1.3 2.2-4.2 3.1-8 2.6-11.3l-.2-1.6-.2 2.5c-1 12.6-13.7 19.4-27.9 15.1-1.7-.5-3.1-.9-3.1-.8-.1.1 2.8 2.8 3 2.8.1 0 1.4.2 2.7.5 1.4.3 3.3.5 4.2.5 1.2 0 1.6.1 1.5.3-.1.2-1.2.3-3.7.1-2-.1-3.6-.1-3.6 0s.4.7 1 1.3l1 1.2h2.4c9 0 17.7-3.2 21.4-7.9 3.3-4.3 5-10.6 3.9-15.4-.1-.3-.1.6-.2 2.1m-167.1.5c-.7.2-1.9.5-2.6.6-2.6.4-8.1 3.7-8.8 5.4-1 2.4 2.4 5.8 5.9 5.9 1.9 0 2.1-1.5.3-1.9-3-.6-2.5-3.8 1-6.1 3-2.1 5.5-2.7 9.6-2.7 4.9.1 6.5.5 7.2 2.1.7 1.5.3 2.5-1.8 5.1-1.3 1.5-.5 1.3 1.2-.3 3.2-3.2 2.3-7-1.9-8.1-2.1-.6-8.3-.6-10.1 0m93 1.4c-5 .7-10.8 2.7-10.8 3.8 0 1.1.6 1.3 2.4.8 3.3-.9 13.8-.5 13.2.5-.1.1-1.3.3-2.7.3-2.9 0-7.4.8-8.1 1.5-.4.4.8.5 2.3.1 3-.6 11.1-.1 17.5 1l1.9.3-1.7.2c-1 .1-3.1.2-4.8.2-1.7 0-3.5.1-4 .3-.5.1-1.8.3-2.8.4-3.2.3-1.6.6 6 1 8.2.5 12.6 1.2 15.9 2.6 1.1.5 1.9.8 1.9.9 0 0-1.5-.1-3.3-.3-3.2-.3-17.2 0-17.2.4 0 .1 1.7.3 3.8.4 7 .3 10.9 1.3 17.9 4.5 2.1.9 2.7 1.4 1.3 1-1.2-.4-8.2-1.3-10-1.3-.9 0-2.5-.1-3.4-.3-1-.2-3.7-.2-6.4-.1l-4.7.2 2.9.3c1.6.2 3.4.5 3.9.7.6.2 2.2.5 3.5.7 13.6 1.4 21.3 4.9 27.7 12.4 1.7 2 1.6 2.1-.8.5-6.2-4.1-14.6-8-19.4-9-1.5-.3-.9 0 2.3 1.2 7.8 2.9 19.1 10.9 23.5 16.6 3.3 4.3 5.9 7.9 7.7 10.4 1.1 1.6 3.2 4.3 4.6 5.9 2.9 3.4 4.4 4.8 2.3 2.2-1.2-1.5-4.3-7.3-6.5-12.3-1.3-2.9-5.4-9.7-6.9-11.3-.7-.7-2.4-3.7-4.3-7.4-1.5-3-4.1-7.2-6.3-10.3-1.8-2.5-9.2-8.7-14.9-12.4-8.2-5.1-16.5-7.6-23.5-6.6m-88.5 2.3c.1.1.5.4.9.5 2.5.6 3.1 2.4 1.3 4.3-.6.7-.3.8.8.2 1.9-1 2.7-3.3 1.5-4.4-.7-.7-4.9-1.2-4.5-.6m68.6 1.4c-.6.2-.6.1.5 1.6 2.8 3.7 3.7 9.1 2.3 13.7-.8 2.7-.6 3.1.5.9 1.7-3.4 2.3-7.1 1.5-9.9-.6-2.1-.2-2.8.7-1.3.9 1.4 1.1 2.5 1.3 6 .2 4.4 1.4 5.1 1.9 1.1.6-7.6-3.6-13.5-8.7-12.1m103.3.5c0 .2.2 1.5.4 2.9.4 2.4.4 12.2 0 16.2-.1.6.1 0 .4-1.3 1.2-5.8 1.2-10.8 0-15.7-.6-2.1-.8-2.7-.8-2.1m-42.7 1.4c-1.6.2-7 1.8-7 2 0 .7 2 1.4 3 1 1.1-.4 5.9-1.3 8.8-1.6 2.2-.2 2.8-.8 1.4-1.2-1.6-.3-4.3-.4-6.2-.2m38.7.9c-.4 5.6-7 17.1-11.1 19.5-.9.5-2.6 1.5-3.8 2.3-2.1 1.3-4.9 2.5-6.5 2.8-.8.2-.9.7-.2 1.3.5.4.6.4 2.7-.2 1.2-.4 2.5-.7 2.9-.7.4 0 1.4-.2 2.4-.5 6.5-2 7.8 3.8 1.9 8.7-4.4 3.7-4.7 4.1-3.2 3.8 4.6-.9 11.4-8.7 13.3-15.1.1-.5.5-1.6.8-2.3.5-1.1 1.4-4.8 1.4-5.4 0-.3-1.1 2.4-1.8 4.3-.9 2.7-2.7 6.6-3.2 6.8-.9.3-.9-.4-.1-2.2 1-2.2 2.3-6.2 2.1-6.4-.1-.1-.7.9-1.5 2.1-2.1 3.5-3.7 4.3-2.1 1 2.6-5.2 6.6-17.6 6.2-19.5-.1-.5-.2-.6-.2-.3m-24 2c-1.5.1-4.5.1-6.7.1-5.1-.1-11.5 1.3-10.5 2.3.6.6 4.7.3 6.6-.4 1.1-.4 2.4-.7 3.3-.7 1.8 0 1.6.3-.8 1-1 .3-1.9.7-2.1.8-.6.4.4.6 1.4.3 1-.3 3.4-.7 8.1-1.2 3-.3 7-1.7 7-2.4.1-.1-2.3 0-6.3.2m-153.9 5.5c0 1.1 4.4 4.7 6.5 5.3.3.1.8.4 1.1.7.3.3 1.7.9 3.1 1.4 3.1 1.1 3.1 1.1 3.4 1.9.1.3.6.8 1 1.1.4.3 1.7 1.1 3 1.9 1.4.9 3.1 1.7 4.4 2.2 1.2.4 2.4.9 2.6 1 .2.2 1.3.5 2.4.7 1.1.2 2.5.6 3.2.8 3.4 1.3 4.1 1.5 5.3 1.6.7.1 1.9.3 2.6.5 1.5.4 5.2.5 6.5.1 1.4-.4 1.1-1-.7-1.2-2.7-.3-7-1.2-8.8-1.9-1-.4-2.1-.7-2.4-.7-.3 0-.6-.1-.7-.3-.1-.2.2-.3.7-.3 5-.1 5.7-.2 6.9-.7 2.1-1 1.7-1.1-3.1-1.1-2.4 0-5.2-.1-6.3-.3-1.1-.1-2.6-.3-3.3-.4-1.5-.2-1.3-.3 1.7-.9 2.2-.4 4.5-1.4 4.5-2 0-.4-.2-.4-1-.3-2.4.5-5.8.6-8.6.4-5.9-.5-6.8-.9-2.5-1.1 4.5-.2 6.2-.8 6.2-2 0-.7.4-.7-4.9-.3-5.5.4-10.5-.2-10.5-1.2 0-.6.7-.7 4.5-.6 3.5.1 4-.1 4-.9 0-.1-2-.2-4.5-.2-7.4 0-11.3-.9-14.7-3.3-1.1-.8-1.6-.7-1.6.1m98.9.1c.3.1.9.1 1.2 0 .3-.1.1-.1-.6-.1-.7-.1-1 0-.6.1m70.5 1.9c-3.4 3.6-8.5 5.5-19.1 7.3l-1.8.3.8 1c1 1.2 1.4 1.2 7.4-.7 7.6-2.3 11.7-4.8 13.4-8.1.4-.8.3-.8-.7.2m-174.2 8.2c-.2.1-.9.6-1.5 1.1-.6.5-1.8 1.3-2.7 1.8-4.5 2.5-10.3 7.6-13.3 11.6-1 1.4-2.2 2.9-2.6 3.4l-.7.9 5.3-.2c16.6-.5 14.9-.1 16.8-3.7 1.5-2.8 3.3-5.5 5.1-7.6 1.3-1.6 1.4-1.8 1-2.1-.5-.5-1.3.1-3.9 3-5 5.5-5.3 3.6-.4-3.1.8-1.1 1.5-2.2 1.6-2.3.1-.3-3.5-3-3.9-2.9-.3-.1-.6 0-.8.1m71.3 5.4c-.2.3.7 1.8 2 3.4 1.5 1.7 1.2 2.3-2.2 3.7-2.1.9-2.8 1.7-1.3 1.4 5.8-1 6.9-1.5 6.9-3.2.1-2.4-4.4-6.8-5.4-5.3m-7.2.5c-2.7.7-3.6 1-4.3 1.7-.7.7-.8 1.7-.1 1.4.3-.1 1-.3 1.7-.4 4.7-.9 7-1.8 6.8-2.6-.1-.7-1.5-.7-4.1-.1m-4 5.5c-.1.2-.3.3-.4.3-.9-.6-.3.7.9 1.9 1.8 1.8 2.7 2.3 3.7 2.1 1.2-.2 1.1-.6-.3-2.2-2-2.3-3.5-3.1-3.9-2.1m-4.6 2.3c-.7.1-2 .2-3.1.1l-1.9-.1.9.8c2.1 1.8 6.7 2.7 7.8 1.6.3-.3-1.8-2.7-2.3-2.7-.1 0-.8.2-1.4.3m-21.2 2.5c-1.6 1.1-4.9 4.3-4.9 4.8 0 .2 1.5.7 3.7 1.3 4.1 1.1 4.1 1.1 4.1.6 0-.6 1.1-2.4 2.2-3.7 1.3-1.6 1.4-1.3-1-2.7-2.7-1.5-2.5-1.4-4.1-.3m-98.2 1.3c-2.5.9-10.6 9-15.3 15.5-.8 1-1.4 2-1.4 2.1 0 .1-.7 1.2-1.6 2.4-1.4 1.9-3.5 5-4.2 6.3-.7 1.3 1.4-1.3 3.5-4.1 5.7-7.8 11.7-13.3 16.8-15.4 1.1-.4 1.7-1.2 1.6-1.8-.1-.4.1-.5.5-.4.3 0 .9.1 1.2.1.8.1 1-1 .3-1.7-.4-.4-.4-.5.4-.6 2-.4 2.1 1.2.2 4.3-.8 1.3-1.8 3.1-2.3 3.9-.5.9-1.6 2.4-2.5 3.5-.9 1-2.5 3-3.6 4.3-3.2 3.9-11.5 12.3-12.7 13-.6.3-1.9.7-2.8.9l-1.7.4 1 .4c2.9 1.2 4.5.7 9.7-3.3 5.8-4.5 18.7-22 19.5-26.5.6-2.6-3.2-4.4-6.6-3.3m143.8 2.2c-2.1.3-4.3.7-4.9.9s-3.6.6-6.5 1.1c-6.1.9-5.8.8-4.6 1.6.5.3 2.3 1.9 4.1 3.6 6.9 6.4 19.9 17.1 23.4 19.4.8.5 3.5 2.3 6 3.9 4.2 2.7 8.4 5.1 10 5.5.4.1-1.3-1.2-3.6-2.9-9.6-7.1-24.7-20.8-26.7-24.4-2.4-4.1.3-6.2 5.1-4.1 1.1.5 9.5 6 16.3 10.8 7.5 5.3 10.9 7.3 19.5 11.4 13.3 6.4 15.8 7.1 25 7.1 3.9 0 3.8-.2-.1-.7-8-1.1-14.4-4.1-27-12.8-1.1-.8-2.8-1.7-3.7-2.2-1.6-.7-3.3-1.9-8-5.6-1.1-.9-2.8-2.1-3.7-2.8-2.5-1.8-5.7-4.5-6.8-5.7-3.8-4.1-7.3-5.2-13.8-4.1m-98 1.2l-2.3.1 2.1.2c1.2.1 4.3.4 6.9.7 2.6.3 6.1.6 7.6.8 2.6.2 4.8.5 11.1 1.4 5.9.9 14.7 2.9 20 4.6 7.5 2.4 8.5 2.7 8.8 2.2.3-.4-4.2-2.1-8.4-3.2-.7-.2-1.3-.4-1.5-.6-.2-.1-.4-.2-.5-.1-.1.1-1-.1-1.9-.3-.9-.3-3.3-.9-5.1-1.4-6.5-1.8-13.8-3.1-20.1-3.4-2.3-.1-5.3-.4-6.5-.6-2.7-.5-7-.6-10.2-.4m-8.7 2.6c-.8.1-1.6.4-1.9.6-.5.5-3.9 7.1-3.8 7.2.1 0 1.6.2 3.4.4 8.3.8 13.4 1.5 23.5 3.1 11.6 1.9 11.5 1.8 21.7 5.1 6.5 2.1 9.3 3.1 13.6 4.8 1.3.5 2.9.9 4.3 1.1l2.2.2.9-1c1.4-1.6 1.5-3 .2-3-2 0-2.8-1.2-2.2-3.1.5-1.4 1.3-2 3.3-2 1 0 2.2-1 2.2-1.8 0-.5-5.5-2.6-7.6-2.9-.5-.1-2.7-.7-4.8-1.3-4.9-1.5-18-4.4-18.3-4-.1.2-.7.2-1.9 0-20.3-3.3-28.5-4.2-34.8-3.4m-26.9.5c-.1.1-.2.6-.2 1.1 0 2.8-1.5 7.1-3.3 9.3-.6.7-1.4 1.8-1.9 2.4-1.1 1.5-4.5 5.5-5.3 6.3-1.6 1.5-6.8 7.9-6.8 8.3 0 .8 7.1-5.9 11.4-10.7 5.6-6.4 6.8-8 8-11.2.4-1 .4-1 .4-.2.1 2.8-2.7 8.5-6.4 13.1-3.8 4.8-6.3 7.6-7.7 8.8-1.4 1.2-1.9 2.2-.9 1.8 2.6-1 10.2-8.6 13.2-13.2 1.6-2.5 2.8-4.6 3.5-6.3l.5-1.2 2.1 3.3c2.1 3.3 2.5 3.8 2.9 3.6.3-.2-.3-1.4-1.5-3.4-.5-.9-1.5-3-2.2-4.7-1.7-4.4-4.8-8.1-5.8-7.1m81.5 1.9c-.3.2-.2.3.4.4 3.1.8 13.7 5.2 15 6.2.1 0-.1 1-.4 2.1-.7 3.2.3 3.3 1.4.2.7-1.8.7-3.1.1-3.6-2.9-2.5-14.9-6.4-16.5-5.3m-9.1 7.4c1 1.2-.1 3.3-1.6 2.9-1.1-.2-1.5-.8-1.3-1.9.3-1.3 2.1-2 2.9-1m6.4 1.6c1.4 1.8-.8 3.9-2.6 2.6-.5-.4-.6-.6-.5-1.3.4-2 1.9-2.7 3.1-1.3m-54.5 0c-.1.1-1.1.3-2.2.4-3.7.5-2.7.7 2.9.6 10.1-.2 22.9 2 38.1 6.5 3 .9 8 2.2 11.4 3 .9.2 3 .7 4.5 1.2s3.4.9 4.2.9l1.4.1-1.3-.6c-1.7-.8-6.4-2.5-8.7-3.1-1-.3-2.9-.8-4.4-1.3-4-1.2-7.6-2.1-11.7-3-2.1-.4-4.7-1.1-5.9-1.5-1.2-.4-3.5-.9-5.1-1.2-1.6-.3-4.3-.8-5.9-1-2-.3-4.8-.6-8.3-.7-2.9-.1-6.1-.2-7-.3-1.1-.1-1.9-.1-2 0m79.8.2s.1.4.2.9.1 1.5-.1 2.7c-.3 1.8-.3 1.9.2 2.4 1.5 1.3 1.3 3.3-.4 3.9-.9.3-1.3.6-1.9 1.8-.9 1.8-1.4 1.5 5.5 3.2 6.1 1.5 6.6 1.5 9.5.5 1.7-.6 2-.6 1.6-.2-1.7 2.1-9.7 3.5-13.3 2.3-3.4-1.1-3.8-.2-.6 1.3 3.9 1.9 8.5 1.3 14.6-1.9 3.5-1.8 3.9-2.5 3.3-4.9-.2-.9-.4-2.2-.4-2.8 0-1.1-.9-3.4-1.8-4.3-.2-.2-.4-.6-.4-.8 0-1.1-4-2.1-8.5-2.1-1.5 0-4.2-.8-5.6-1.6-.6-.4-1.9-.7-1.9-.4M226 266c.7 1.4 0 2.7-1.5 2.7-1.7 0-2.4-2.1-1.1-3.2.9-.6 2.1-.4 2.6.5m11.6 1.8c-.1.1-1.4.2-2.9.3-1.5 0-2.8.1-2.8.2-.4.4.6.9 1.5.9.5 0 1.6.1 2.4.3.8.2 1.9.3 2.6.3.8 0 1.3.2 1.6.5 1 1.1 2.1.4 1.6-1-.4-1.2-3.2-2.2-4-1.5m-79.7 1.8c-1.6.7-5.7 5.8-5.7 7.1 0 .6.1.6 1 .5.6-.1 2.1-.3 3.4-.4 1.3-.2 4.7-.6 7.6-1 2.9-.4 8.6-.9 12.9-1.1 10.7-.5 10.5-.5 5.5-1.7-2.3-.6-5.6-1.3-7.5-1.6-1.8-.3-4.1-.7-5.2-.9-1.6-.3-3.1-.5-9.7-1.1-1-.2-1.8-.1-2.3.2m76.3 4.8c-1.7 3.5-2.3 4-5.1 4.2-1.9.2-7-.1-8.9-.5-1.5-.3-.5.1 1.9.8 2.2.6 5.9 1.2 8.8 1.3 1.7.1 2.6-.8 4.3-4.2 1.5-3 1.7-4.2.8-4.4-.2 0-.7.7-1.8 2.8m-49.4 2c-7 .7-11.2 1-13.1 1-1.2 0-3.8.2-5.7.5-4.8.7-10.5 1.3-11.9 1.3-2.6 0-7.2 1.2-6.7 1.7.1.1 1.2 0 2.4-.1s4.5-.4 7.2-.5c5.6-.3 6.7-.4 11.8-1.1 2-.3 6.9-.7 10.8-.9 3.9-.2 8.3-.5 9.7-.7l5.1-.4 2.5-.2-1.9-.5c-2.1-.4-6.2-.5-10.2-.1m-66.3 3.2c-3.3 2.9-6.4 3.6-9.7 2.4-1.6-.6-2-.3-1.1.7.3.4 1.4 1.9 2.4 3.3s2.4 3.4 3.1 4.5c.8 1.1 2.3 3.7 3.4 5.7 2.1 3.7 3.6 5.7 4.1 5.4.5-.3.3-1.1-1-3-.7-1-2-3.1-2.9-4.6l-1.7-2.8 1.4-.6c3.7-1.5 5.3-3.5 1.8-2.3-2.1.7-4.1.9-4.6.6-.2-.2-.3-.3-.1-.4 2.6-1.1 2.6-2.6 0-1.9-1.1.3-1.2.3-1.7-.3l-.5-.6 2.9-1.4c3.4-1.6 4.5-2.4 5.4-3.9 1.3-2 .7-2.5-1.2-.8m121.1 3.5c0 .4 1.5 1.3 4.7 2.8 2.6 1.3 4.3 2.2 7.2 3.9 1.9 1.1 2.2 1 2.2-.3s-.4-1.5-4.5-2.9c-1.4-.5-3.2-1.2-4.1-1.6-2.7-1.5-5.5-2.4-5.5-1.9m-89.5 1.5c-1.1.2-4.9 4.6-7.6 8.6-1.1 1.7-3.1 4.3-4.3 5.9-3.4 4.2-4.7 6-7.5 10-1.4 2-3.3 4.4-4.2 5.3-1.9 1.9-5.8 5.4-5.4 4.7.8-1.2 2.5-3.2 3.8-4.5.8-.8 1.4-1.6 1.4-1.7s.5-.7 1-1.4c.6-.6 1.5-2 2.2-3.1 1.3-2.1 4.6-7.1 6.1-9.2.5-.7 1.6-2.3 2.4-3.5l1.4-2.1-1.7 1.9c-3.3 3.6-6.1 7.2-8.5 10.9a35.2 35.2 0 0 1-8.4 9.4c-.7.5-2.7 2.1-4.4 3.5-4.3 3.6-5.1 4.3-5.3 4.3-.1 0-.9.9-1.8 1.9-.9 1.1-3 3.4-4.8 5.3s-4.2 4.7-5.5 6.4c-1.3 1.7-2.9 3.6-3.6 4.2-2.2 1.9-3.6 3.3-4.7 4.9-.6.8-2.3 3-3.7 4.9a233.18 233.18 0 0 0-12.9 19.5c-1.3 2.2-2.8 4.6-3.3 5.3-1 1.3-1.7 2.5-3.1 5.1-.4.7-.5 1-.2.6s.9-1.2 1.4-1.9c.5-.7 2.6-3.7 4.6-6.7 2-3 4-5.8 4.5-6.3.4-.4 1.9-2.4 3.4-4.4 10.8-14.9 12.8-16.7 5.2-4.6-2.5 3.9-6.8 10.5-9.5 14.7-2.8 4.1-5.7 8.6-6.5 9.9-1.8 2.9-1.7 2.8-1.5 2.8.1 0 .9-1.2 1.8-2.6 2.4-3.7 8.1-11.6 10-13.9.9-1.1 2.4-3.1 3.3-4.4.9-1.3 2.4-3.2 3.3-4.3.9-1 2.1-2.5 2.7-3.2.6-.7 2.5-3 4.3-5.1 1.8-2.1 4.4-5.2 5.8-6.9 2.6-3.2 3.4-4 7-7.9 1-1.1 2.8-3 3.9-4.3 1.1-1.2 4.4-4.7 7.3-7.7 4.7-4.8 6.7-6.7 12.7-12.2.8-.7 2.8-2.9 4.5-4.8 3.7-4.1 18.2-18.9 21.1-21.5l2-1.8-1.6-.2c-2 0-6 0-7.1.2m21.6 3.3c-9.7 4.9-10 5.2-8.9 7l.6 1-.5 1.3c-1.7 4.4-6.7 5.7-8.3 2l-.5-1-1.6.8c-1.5.8-6.1 5.2-8.4 7.9-.4.5-1.8 1.9-3 3.2a81.1 81.1 0 0 0-4.6 5.1c-2.3 2.7-5 5.4-5 4.9 0-.3 1.2-2 2.7-4 1.3-1.6 2.6-3.7 2.6-4 0-.2-4.2 4.1-6 6.1a80.6 80.6 0 0 0-7 9.5c-4.6 7.3-9.8 14.6-10.5 14.9-.5.2-.3-.6.7-2 1.2-1.8 4-7.1 3.6-6.9-.2.1-1.2 1.5-2.3 3-1.1 1.6-2.4 3.4-2.9 4-.5.6-1.4 1.8-2 2.7-.6.8-1.7 2.3-2.5 3.3s-1.6 2.3-1.9 2.9c-.3.7-1 1.7-1.5 2.2-2.6 2.9 1.3 4.9 7.4 3.7 3.4-.7 1.8.8-2.2 2.1-1.2.4-5.2.5-7 .2-1.7-.3-2.2.2-1.4 1.2 1.1 1.4 11.2.6 14.4-1.1.6-.3 1.5-.7 1.8-.8.4-.1 1.1-.7 1.8-1.7 1.9-2.5 11.5-17.2 11.5-17.5 0-.3 5.3-7.4 8-10.6 2.4-2.8 9.4-10.4 15.6-16.8 4.4-4.5 9.3-10 12.2-13.4 1-1.2 2.9-3.3 4.3-4.7s2.9-3.1 3.3-3.7c.5-.7 1.3-1.5 1.8-2 .8-.6 1.7-1.8 1.4-1.8.2 0-2.4 1.4-5.7 3m33.4-1.7c-.8.8-2.9 8.2-3.4 11.9-.1.9-.4 2-.5 2.5-.3 1-.7 4-1.5 10.8-.8 6.4-.7 25 .1 31.5.3 2.6.8 6.6 1 8.8.7 6.5 1.7 11.6 3.9 19.4.3 1 .9 2.3 1.3 2.9.4.6.8 1.2.8 1.4 0 .2.3.6.6.9.5.6.5.6.4.1-2.2-8.2-3-19.7-2.4-32.9.2-4.5.5-11.8.6-16.3.2-5.8.4-9.2.8-11.9.3-2.1.6-5.2.7-7.1.2-5.4 1-9 3.5-16.2.8-2.4 1.5-4.7 1.5-5.1v-.7l-.6.7c-1.8 1.8-5.8 12.9-6.4 17.8-.2 1.6-.7 5.7-1.2 9-.5 3.4-1.1 8.9-1.3 12.3l-.5 6.1v-8.3c0-4.5.1-9.3.2-10.5.1-1.2.4-4.4.5-7.1.1-2.6.4-5.3.5-5.9.1-.6.3-1.6.3-2.2 0-1.2 1.1-7.5 1.7-10.3.3-1.6.1-2.4-.6-1.6m59.4.8c-.3.1-.7.2-.8.1-1.8-.7-5.4 2.1-5.4 4.1 0 .4-.2 1.7-.5 2.9s-.6 3.7-.8 5.6c-.1 1.9-.5 5.8-.7 8.7-.9 10.6-.4 15.3 1.8 16.4 1.3.7 3.5.4 4.6-.6 1.3-1.3 3.7-10.3 3.7-13.9v-.9l1.2 1c3 2.7 8.3 4.8 9.3 3.7.4-.3.7-.4 2.1-.1 1.8.3 4.2.1 3.4-.3-.2-.1-1.2-.4-2.2-.5-1-.2-2.8-.7-4.1-1.2s-2.5-.9-2.7-.8c-1 .3-6.1-5.4-7-8-.3-.9-.8-2-1-2.4-.8-1.4-1.6-7-1.1-8.5.2-.7.4-.4 1.8 2.9 3.4 8 6.6 11.9 11.2 13.6 1 .4 2.4.9 3 1.2 4.8 2.1 8.5-2.3 6.8-7.9-.8-2.5-1.1-2.2-1.1 1.1.1 4-.7 5-3.4 4.4-.6-.1-1.3-.2-1.4-.1-.6.4-3.8-1.2-5.4-2.6-1.7-1.6-3.7-5.2-5.8-10.4-.6-1.5-1.4-3.2-1.6-3.8-.3-.6-.5-1.1-.4-1.2.2-.2 4.4 1 8.8 2.5 6.5 2.3 8 2.6 7.1 1.5-1.1-1.3-11.6-5.6-15.6-6.4-2.6-.3-3-.4-3.8-.1m-127.9 3.7c-1.8 1.7-6 5.8-9.2 9-5 5-6.3 6.2-8.9 7.9-6.4 4.2-15.5 11.7-15 12.2.3.3 5.2 1.8 5.9 1.8.7 0 2.9-1.5 5.4-3.7 1.1-1 3.3-2.9 5-4.2 4.8-4 6.2-5.6 8.5-9.7.5-1 2.2-3.3 3.7-5.2 1.5-1.9 3.3-4.2 3.9-5.2s1.9-2.7 2.8-3.9c2.2-2.7 1.7-2.5-2.1 1m78.4-2.5c-1.5.9-2.1 2.9-4 13.7-2 11.3-2.2 14.6-1.5 26.9.1 2.3.3 6.9.4 10.1.3 11.2 2.5 22.6 6.2 31.7 1.7 4.2 2.3 4.7 7.2 5.8 1.4.3 4 .9 5.8 1.3 5.2 1.3 6.7.8 7.2-2.3.3-1.8-.5-9.1-1.4-13.3l-.8-3.5-.1 6.8c-.1 3.8-.2 6.9-.3 7-.3.3-1-3.2-1.3-6.1-.1-1.4-.4-3.1-.5-3.7-.1-.7-.3-5.3-.4-10.2-.1-7.6-.6-15.1-1-15.5-.1-.1-.2 1-.3 2.2-.1 1.3-.3 3.5-.5 5-.4 3.2-.4 12.3-.1 17.1.3 3.8.1 6-.5 6-.2 0-.4-.4-.5-1.3-.1-.7-.3-2-.4-3-.9-5.9-1.3-10.4-1.3-14.4 0-7.3.2-20.1.4-20.5.1-.2.3-1.8.4-3.6.2-1.8.4-4.5.6-6 .2-1.5.3-5.5.3-8.8 0-7.3.3-13 1.1-16.8.6-3 .5-4-.4-4-.6 0-1.5 3.7-2.2 9-.3 2-.6 1.7-.6-.5 0-2-.4-3.2-.7-2.2-.1.3-.3.9-.5 1.3s-.4 1-.5 1.3c-.5 1.5-1.3-2.6-1-5.2.2-2-.2-1.9-.7.1-1.4 5.6-2.4 4.9-2.4-1.6 0-3.5 0-3.6-2.7-3.6-1.5.2-2.3.4-3 .8m-27 1.1c-.4.6-.5.6-1 .3-1-.7-1.4-.5-5.3 1.8-2 1.2-2.8 2.4-4.1 6.3l-.7 2.2.8 1.7c.5.9 1.4 2.5 2.1 3.4.7 1 1.5 2.2 1.8 2.9.9 1.9 2.2 1.8 6.8-.2 5.2-2.3 7.7-3.8 7.8-4.6.1-.9.2-.9-1.9.2-2.5 1.3-3.3 1.3-1.8-.1.8-.7 1.2-1.3 1.3-2l.2-1-1.4.7c-2.2 1.1-1.7.2 1.4-2.5.9-.8 1.2-1.1.8-1.1-.3 0-.7 0-.9-.1-.2-.1-.8.1-1.6.7-1.3.9-1.9 1.2-1.9.7 0-.1 1.1-1.4 2.5-2.8 3.1-3.2 2.8-3.9-.4-1.2-.7.6-1.3 1-1.4 1-.1 0-.7.4-1.4.8-1.4 1-1.7.9-1-.4.5-.8.5-.9.1-1.2-.5-.3-.5-1.2-.2-4.3.4-2 .2-2.4-.6-1.2m50.9 3.4c-.1.4 0 1 .1 1.4.2.4.2.9 0 1.7-4.7 18.9 3.6 71.8 13.9 89 .5.9 1.5 2.6 3.3 6.1 2.1 4 2.1 2.3 0-1.9-4.5-9.1-7.4-18.8-9.6-32.4-.4-2.3-.9-5-1.1-6-.6-2.7-1.6-12-1.8-15.9-.1-1.8-.2-4.1-.3-5.1l-.1-1.7.4 2c.2 1.1.6 3.7.8 5.8.2 2.1.5 3.9.5 4.1.1.2.5 2.5.9 5.1 1.7 10 4.1 17.8 7.6 24.2.5 1 2.7 5.4 4.9 9.9 4.7 9.6 7.8 14.5 11.2 17.7l.8.8-1.1-2c-.6-1.1-2-3.3-3-4.8-2.1-3.3-5-8.9-6.6-12.7-1-2.5-2.7-6.4-5.5-12.7-1.9-4.3-4.9-15.2-4.9-17.9 0-.3-.3-2.7-.8-5.3-.4-2.6-.8-5.8-.9-7.1-.1-1.3-.4-3.9-.7-5.6-.3-1.7-.6-4.4-.8-5.9-.3-3-.4-22.5-.1-26.5.2-3.1.1-3.2-4-4.2-3.1-1-2.9-1-3.1-.1m53 2.3l-.6.5 2.4.6c6.3 1.5 7.4 5.1 4.7 15.2-.1.5-.1.6.1.4.8-.7 3-8.6 3.5-12.4.4-2.7.2-3.1-1.7-3.4-.9-.2-2.2-.5-3-.7-2.7-.7-4.7-.8-5.4-.2m-134.1 1.6c-.7.9-.7 1.6.1 2.1 1.1.8 2.8-.3 2.8-1.9 0-1.1-2.1-1.3-2.9-.2m64.9 2.2c3.9 2.7 3.9 8.6-.1 10-2.9 1-6.7-2.2-6.7-5.6 0-4.2 3.6-6.6 6.8-4.4m55.7-.3c-1.5.6-1.9 3.1-.7 4.5 1.8 2.1 4.8-.9 3.3-3.4-.9-1.2-1.5-1.5-2.6-1.1m-59.9 2.1c-1.7.3-2.1 1.8-.8 3.5 1.6 2.3 4.5 1.5 4.5-1.2.1-1.8-1.5-2.7-3.7-2.3m-46 .3c-1 .7-5.4 8.9-5.4 10.1 0 2 10.3 14.4 12.4 15 .5.1.9 0 1.4-.4 1.8-1.4 6.9-3.9 9.8-5 4.1-1.5 5.7-2.6 5.7-4 0-.5-.1-.5-3.3.8-2.8 1.2-3.5 1.1-1.5-.1 2.4-1.5 3.4-2.4 3.4-3.1v-.6l-1 .7c-.9.6-2.8 1.5-3.1 1.5-.5 0 .2-.8 1.9-2.2 2.8-2.3 2.9-3.2.1-1.8-3.8 1.9-4 1.4-.5-1.1 2.3-1.7 2.8-2.2 2-2.5-.4-.2-7.7 2.2-10.9 3.5l-2 .9-.8-1.6c-.5-.9-1.6-2.5-2.4-3.6-.9-1.1-2.3-3-3.2-4.2-1.6-2.5-2-2.7-2.6-2.3m-21.7 7.5c.2.3.5.6.7.6 1.5 0-2 3.9-4.9 5.3-2.2 1.1-3.4.5-3.1-1.4.3-2 .5-2.1 1.6-1.4 2.1 1.4 4.2-.9 2.5-2.8-.8-.8-.3-1.1 1.5-1 .9.1 1.4.2 1.7.7m70.2 6c3.7.9 5.5 5.3 3.2 8.1-2.4 2.9-6.9 2.3-8.8-1.3-.5-1-.5-1 .6-.5 2.6 1.3 5.1-.6 4.4-3.5-.5-1.9-2.2-2.7-4.1-1.7l-.9.4 1-.9c1.2-1.1 2-1.2 4.6-.6m61.2 6.3c-1 2.1-3 4.4-4.7 5.3l-.9.5h1.1c2.9 0 5.7-3.5 5.3-6.5-.1-.8-.1-.7-.8.7m10.7.1c0 1.1 3.2 5.8 5.5 8 2.9 2.9 3.1 2.5.9-1.5-2.5-4.6-2.1-4.5 2.2.6 4.2 4.9 4.2 4.9 5.2 4.7 1-.2 1-.3 0-1.7-1.4-1.8-5-7.4-5.6-8.7l-.6-1.1h-1.6c-.9 0-2.6-.1-3.8-.2s-2.2-.2-2.2-.1m-194.8 1.4c-1 .7-.8.8 2 1.4 1.4.3 3 .8 3.4 1.1 1.4.8 2.1.9 2.8.1.9-.9.6-1.1-3.2-2.1-3.8-1.1-4.2-1.1-5-.5m37.4 2c2.9 1 .6 6.9-2.7 6.9-1.6 0-2.9-1.1-2.6-2.2.1-.6.3-.7 1.1-.7 1.3 0 2.8-1.2 2.8-2.2 0-.9-.5-1.5-1.2-1.5-.5 0-.5-.1-.2-.3.5-.4 1.8-.4 2.8 0m-43.4 2.5c-5.4 4.1-5.4 4.6 0 5.9 2.6.6 2.7.7 2.3 1.3-.3.5-.5.4-3.4-.3-5-1.3-4.8-1.3-5.8-.1-1.3 1.6-.9 2 3.3 2.7 1.6.3 3.5.6 4.2.8 1.6.4 1.9.2 4.1-2.3.9-1 2.8-3.1 4.4-4.7 2.4-2.5 2.7-2.9 2.1-2.8-.4.1-.9-.1-1.3-.4-.4-.3-1.2-.6-2.5-.7-1.1-.1-2.6-.4-3.4-.6-.8-.2-1.5-.4-1.6-.4 0-.2-1.1.6-2.4 1.6m157.2-1.1c-2.7 1.1 9.9 11.7 14.2 11.9 1.9.1 1.5-.7-1.4-2.5-2.7-1.6-5.3-3.7-9-7.3-2.4-2.1-3-2.4-3.8-2.1m-27.8 4.1c3.8 1 4.5 7.3 1.1 9.4-3.1 1.9-7.3 0-7.3-3.4v-.7l.7.6c1.8 1.7 4.9.4 4.9-2.1 0-1.3-.8-2.3-2.2-2.8l-1-.4.8-.4c.8-.5 1.7-.5 3-.2m92.5 6.2c-.4.1-1.4.4-2.3.7-2 .6-2.3.8-2.2 1.7.1.5.2.7.6.6.3 0 .9-.1 1.3-.2.6-.1 1.5.2 3.7 1.3 4.5 2.2 6.6 4 8.1 6.7.3.6 1 1.4 1.5 1.8.5.5 1.1 1.2 1.4 1.6.5 1 .9.6.9-1 0-1.8-.7-3.3-2.2-4.8-.8-.7-2.5-2.5-3.8-4-3.7-4.2-5.1-5.1-7-4.4m-48.3 2.8c-.4.4-.2 2.9.4 8 .2 1.7.3 3.9.2 5.2-.2 3 .9 4.1 2.4 2.3.7-.8.5-5.4-.5-14-.2-1.7-1.6-2.6-2.5-1.5M122.2 340c.1.2.4.4.7.4 1.6 0-.6 5-2.9 6.4-1.6 1.1-3.3.4-3.3-1.4 0-1.7.6-2.4 1.3-1.4 1.4 1.8 4.4-.7 3.1-2.6-.2-.4-.7-.7-1-.7-.9 0-.6-.4.5-.7 1.4-.4 1.4-.4 1.6 0m172.5.8c-.6.9-.4 1.2 2 2.4 1.9 1 3.2 2.8 4.1 5.7.6 2 2.2 6 2.6 6.3.9 1 1.3-3.1.5-5.6-.1-.4-.6-2-1.1-3.5-1-3.1-1.7-4.1-3.9-5.1-2-1-3.7-1.1-4.2-.2m-10.5.7c-.9 1-.3 1.9 1.8 2.5 2.1.6 2.6 1.4 5.5 8.9 2.3 5.9 2.7 6.3 2.5 2.4-.2-4.9-3.1-12.3-5.2-13.3-1.5-.7-4.1-1-4.6-.5m-205.5 2.2c-3.1 3.3-5.9 6.8-6.9 8.8-.5 1-1.7 2.7-2.5 3.8-.8 1.1-2.4 3.1-3.5 4.5s-2.5 3.2-3.1 4c-1.3 1.5-2.1 2.8-5.2 8.6-1.9 3.4-2.9 6.2-1.5 3.8 1.6-2.5 3.5-5.3 4.5-6.7.6-.8 2.3-2.9 3.6-4.7 3.1-4 4.4-5.5 4.5-5.4.2.2-2.9 5.3-5.6 9.5-2.3 3.5-5.9 10.1-5.7 10.3.5.5.8.1 5.9-7.6 4.1-6.2 6.3-9.3 7.6-10.5 1.2-1.2 1-.4-.7 2.6-1.5 2.7-3.8 6.7-6.1 10.6-2.3 4-1.6 3.1 5.7-7.4 1.4-2 3.3-4.6 4.2-5.6 1.5-1.8 5.2-6.3 8.5-10.6 1.8-2.2 5-5.6 6.6-6.8 1.1-.9 1.2-1.7.1-1.7-.3 0-.7-.1-.9-.2-.6-.6-4-1.4-5.8-1.4h-1.9l-1.8 2.1m142.9 4.1c4.1 2.7 4.9 7 1.8 9.4-2.8 2.2-7.8-.8-7.8-4.6v-1l.5.7c1 1.3 3 1.2 3.9-.2 1.2-1.9.6-3.6-1.5-3.9l-1.2-.2.9-.4c1.4-.7 2.2-.6 3.4.2M330.7 359l-1.8.9.4.7c.6 1.1 8 8.2 13.5 13 2.7 2.3 5.9 5.1 7.1 6.2 1.2 1.1 3.4 2.9 4.9 4 1.5 1.1 5.5 4.1 8.8 6.6 3.3 2.5 6.9 5 8 5.7 1.1.6 2.8 1.7 3.7 2.4 1.5 1.1 2 1.2 1.5.5-.3-.5-3.8-3.3-6.5-5.3-1.4-1-3.4-2.7-4.6-3.7-1.2-1-2.8-2.5-3.8-3.3-7.5-6.5-23.5-22.2-27.1-26.5-1.9-2.5-1.7-2.5-4.1-1.2"/></svg>