<?xml version="1.0" encoding="utf-8"?>
<!-- Generator: Adobe Illustrator 22.1.0, SVG Export Plug-In . SVG Version: 6.00 Build 0)  -->
<svg version="1.1" id="svg" xmlns="http://www.w3.org/2000/svg" xmlns:xlink="http://www.w3.org/1999/xlink" x="0px" y="0px"
	 viewBox="0 0 410 410" style="enable-background:new 0 0 410 410;" xml:space="preserve">
<g id="svgg">
	<path id="path0" d="M310.4,35.5c-2.6,1.4-5.8,5.1-7.8,9.2c-1.4,2.7-1.5,2.8-4,2.9c-5,0.1-7.6,2.1-7.9,5.9c-0.1,1.4-0.1,1.4,0.1,0.4
		c0.4-2.3,2.7-4.1,5.6-4.5l1.5-0.2l-0.7,0.8c-0.8,0.9-1.7,2.7-1.9,4.1l-0.2,0.9l0.7-1.2c0.8-1.3,1.1-1.3,0.7,0
		c-1.3,3.8,2,13.6,4.7,13.6c0.2,0,0.7,0.7,1.1,1.5c0.4,0.8,0.9,1.8,1.2,2.1c0.3,0.3,0.6,0.8,0.8,1.1c0.3,0.4,0.3,0.3-0.1-0.9
		c-0.4-1.1-0.4-1.5-0.1-1.6c0.5-0.3,0.2-2.2-0.8-5.1c-1.2-3.4-1.3-9.6-0.2-10.3c0.1-0.1,0.2,0.1,0.1,0.5c-0.5,2.3-0.4,6.5,0.2,8.4
		c1.8,5.4,2.3,6.6,2.7,6.2c0.4-0.4,0.4-0.4,1,2.2c0.2,1,0.6,2.2,0.8,2.7c0.8,1.8-0.1,1.9-1,0.1c-1.6-3.2-2.5-4.3-1.8-2.1
		c0.5,1.5,0.5,1.7,0.1,1.7c-0.5,0-3.6-3.1-4.4-4.4c-0.5-0.7-1.7-2.3-2.6-3.6c-3.7-4.7-5.4-10.1-4-12.8c0.9-1.6,0.5-2-0.6-0.6
		c-1.8,2.3-1.8,6.8,0.1,10.6c1.8,3.5,5.6,8,6.2,7.1c0.2-0.3,2.4,1.9,3,3.1c0.3,0.6-0.2,0.5-0.7-0.2c-0.6-0.7-1.3-0.7-1.1,0
		c0.3,1-1.4,1.3-2.2,0.4c-0.3-0.4-0.4-0.4-0.2,0.5c0.2,1.2-0.5,1.1-1.4-0.2c-0.4-0.6-0.4-0.6-0.2,0.3c0.2,1-0.3,1.2-0.6,0.3
		c-0.3-1-0.7-0.2-0.6,1c0.2,1.3-0.1,1.7-0.7,0.9c-0.4-0.5-0.5-0.4-1.7,1.9c-2.7,5-3.8,8.4-4.2,13.5l-0.2,2.4l1.3,1.8
		c0.7,1,1.9,2.8,2.6,4.1c1.2,2.1,1.3,2.2,1.4,1.4c0.1-1.4,2.4-1.3,5,0.2c0.8,0.5,1.5,0.8,1.6,0.7c0.3-0.3-2.2-2.1-6.3-4.5
		c-2.3-1.4-2.2-1.6,0.3-0.7c4,1.5,6.9,3.4,10,6.6l1.4,1.5l-0.6,2.3c-0.6,2.1-0.6,2.4-0.2,3.8c0.3,1.3,0.3,1.8-0.1,3.4
		c-0.7,3-0.3,6.3,1,7.6c0.9,0.9,3.5,0.7,4.7-0.3c0.9-0.7,3.3-1.7,4.3-1.7c1.7,0,4.3-2,4.3-3.3c0-2.4-3.8-4.1-5.6-2.5
		c-0.8,0.7-2.4,2.7-2.4,3.1c0,0.6-0.8,0.5-1.5-0.2c-1-1.1-0.9-2.1,0.4-4.2c1.1-1.8,1.9-4.3,1.9-5.8c0-1.9,5.8-6.4,11.9-9.4
		c4.5-2.2,7.5-2.3,10.7-0.4c1.1,0.6,1,0.9-0.1,0.4c-1.6-0.6-5.7-0.6-7.2,0c-1.5,0.6-6.6,3-6.8,3.1c-0.4,0.4,0.4,0.3,1.2-0.1
		c4.6-2.3,7.4-3,9.5-2.2c5.1,2,5.3,2.5,2,4.9c-1.9,1.4-4.5,2.2-8.9,2.4c-1.3,0.1-2.6,0.2-2.8,0.3c-0.9,0.3,1.9,0.6,4.9,0.4l3.2-0.1
		l-1.2,0.7c-0.8,0.5-1.8,0.8-3.1,0.9c-4.2,0.4-6.1,2.7-4.8,5.7c0.6,1.4,3.4,3.7,5.3,4.2c2,0.6,3.5,2,4,4.1c0.4,1.3,0.4,1.3,0.4,0.4
		c0.1-3.2,2.5-6,7.1-8.3c1.3-0.7,3.2-2.6,5-5c0.9-1.3,0.7-1.8-0.4-1.1c-3,1.9-3.6,1.4-1.3-1.2c1.8-2,1.8-2-0.4-1.8l-1.8,0.1l1.1-1
		c1.1-1,1.9-2.6,1.6-2.9c-0.1-0.1-0.4,0-0.6,0.2c-0.5,0.5-2.7,1.6-2.7,1.4c0-0.3,0.8-3.1,0.9-3.3c0.8-1.3-5.6-5.6-8.6-5.9
		c-1.1-0.1-1.5-0.3-1.5-0.6c-0.2-1,3.2-0.9,6.8,0.3c2.1,0.7,2.3,0.6,0.8-0.5c-3.8-2.8-8.6-2.2-12.5,1.4c-2.2,2.1-11.2,7.6-12.4,7.6
		c-0.6,0-0.5-0.8,0.4-3.7l0.8-2.6l2.3,0c2.8,0,4.8-0.9,8.2-3.4c5-3.8,8.4-4.6,12-3c1.4,0.7,1.9,0.6,1.1-0.3c-0.9-1-2.7-1.5-5.8-1.5
		c-1.6,0-2.9-0.1-2.9-0.2c0-0.3,2.6-1,3.4-1c0.9,0,1.4-0.3,1.1-0.8c-0.2-0.3-0.6-0.3-2.4,0.1c-3.9,0.8-3-0.6,1.3-2.2l1.8-0.6l-2,0.1
		c-1.3,0.1-2.7,0.4-3.9,0.8c-2.6,1-3.3,0.8-1.5-0.4l1.4-1l-1-0.2c-0.5-0.1-1.3,0-1.6,0.1c-0.9,0.3-1.2,0.1-0.5-0.5
		c2.1-1.6,6-2.8,7.6-2.2c0.6,0.2,1.2,0.3,1.3,0.2c0.5-0.3,4.4,0.7,6.1,1.5c4.4,2.2,6.8,3.4,7,3.4c0.1,0,2.8,1.9,5.8,4.2
		c7.9,5.9,11.4,7.2,14.8,5.4c0.9-0.5,0.2-0.7-1.2-0.3c-1.1,0.3-1.7,0.3-2.9,0.1c-3.2-0.7-4.4-1.4-12.6-8.1c-2.9-2.4-5.1-3.8-8-5.4
		c-2.8-1.5-2.5-1.7,0.7-0.3c2.6,1.1,5.6,2.8,8.3,4.9c2.7,2,4,2.8,5.1,3.1c1.2,0.3,1,0-0.5-0.8c-0.7-0.4-2.3-1.5-3.5-2.6
		c-3-2.4-5.4-4.1-7.7-5.3c-1-0.5-2.2-1.2-2.6-1.6l-0.8-0.7l1.5,0.5c0.8,0.3,2.1,0.8,2.9,1.2c0.8,0.4,1.4,0.7,1.4,0.6
		c0-0.2-3.3-1.9-4.4-2.3c-0.6-0.2-1-0.4-0.9-0.4c0.5-0.5,5.6,1.8,8.7,3.8c4.2,2.8,5,2.9,1.2,0.1c-3.7-2.8-6.4-4.1-10.4-5.1
		c-3.9-1-4.1-1.3-1-1.3c5.6,0,12.7,2.7,20.9,7.9c7.2,4.5,14.1,8,14.1,7.1c0-0.1-0.8-0.5-1.7-0.9c-1.7-0.7-7.9-4.3-11.7-6.8
		c-11.1-7.4-19.4-9.9-27.1-8.2c-1.6,0.4-2.1,0.3-1.6-0.1c1.8-1.7,10.9-1.4,16.2,0.6c1.2,0.4,2.2,0.7,2.4,0.7
		c0.4-0.1-3.9-1.8-6.4-2.4c-2.7-0.7-8.2-0.5-11.3,0.3c-3,0.8-2.4,0.2,1.6-1.7c1.1-0.5,1.8-0.9,1.6-0.9c-0.6,0-3.7,1.4-6.6,3.1
		c-1.6,0.9-3.3,1.8-3.7,2c-0.4,0.2-0.7,0.4-0.7,0.6c0,0.2-0.7,0.8-1.5,1.3c-0.8,0.5-2.1,1.5-2.8,2.2l-1.2,1.3l-0.6-0.6
		c-0.5-0.5-0.7-0.5-0.8-0.2c-0.3,0.5-1.2,0.5-1.4,0.1c-0.1-0.2-0.1,0-0.2,0.4c0,1.2-0.9,0.8-1.1-0.5c-0.1-0.6-0.4-1.6-0.6-2.2
		c-0.3-0.7-0.3-1.2-0.2-1.3c0.1-0.1,0.3-1.2,0.4-2.5c0.1-1.4,0-2.2-0.1-2c-0.2,0.2-0.2,0-0.1-0.5c0.1-0.4,0.3-0.8,0.4-0.9
		c0.1,0,0.3-0.2,0.3-0.4c0-0.3,1.6-2.3,1.6-2c0,0.1-0.3,0.9-0.7,1.9c-0.8,2-1.1,7.1-0.4,7.8c0.3,0.3,0.3,0.1,0.3-0.9
		c0-1.6,0.9-5,1.5-5.7c0.3-0.3,0.8-1.2,1.3-1.9c0.4-0.8,1.2-1.8,1.8-2.4l1.1-1l-0.7,0.9c-3.3,4.2-3.2,6.3,0.1,2.2
		c1.8-2.2,3.6-3.6,6.7-5c1.4-0.7,2.7-1.4,2.8-1.6c0.2-0.4,3.8-1.5,5-1.5c1,0,2.2-0.4,2.2-0.7c0-0.7-8.1,1-12.6,2.6
		c-2,0.7-2.1,0.8-2.1,0.3c0-0.6,3-2.2,6.4-3.4l2.3-0.8l7.9,0.1c5.1,0.1,7.9,0,7.9-0.2c0-0.3-0.8-0.3-9.5-0.9
		c-9.9-0.6-19.6,3.8-22.2,10c-0.3,0.7-0.6,1.2-0.7,1.2c-0.9,0,2-4.6,4.4-7.1c0.9-0.9,1.5-1.7,1.3-1.7c-1.8,0-6.7,8.1-7.4,12.3
		c-0.4,2.3-0.7,2.3-0.7-0.1c0-2.2,0.6-4.6,1.5-6.4c0.8-1.6,0.8-1.8,0.1-1c-0.3,0.3-0.2,0,0.3-0.7c1.1-1.7,4.1-4.5,6.1-5.7
		c0.9-0.5,1.5-1,1.4-1.1c-0.2-0.2-3.9,2.4-5.6,3.9c-0.9,0.8-1.5,1.2-1.3,0.9c1.5-2.8,9.3-7.8,13.7-8.7c1.8-0.4,2.2-0.9,0.5-0.6
		c-3.4,0.5-5.5,1.5-10.5,4.7c-3.9,2.5-4.1,2.5-2.3,0.8c10.2-10.4,24.7-10,36.6,1c2.9,2.7,4,2.7,1.2,0c-6.5-6.2-14.5-10-21-10.1
		c-4.2,0-8.4,1.2-12.8,3.7c-3.6,2.1-4.9,3.7-2.1,2.5l1-0.4l-1.1,0.9c-0.6,0.5-2.3,2.1-3.8,3.7c-1.9,2-2.7,2.6-2.6,2.2
		c0.3-0.9,1.4-2.6,2.6-3.7c0.5-0.5,1-1,1-1.1c0-0.4-1.5,0.4-2.3,1.1c-0.8,0.9-1.6,1.1-1.2,0.3c1.3-2.4,12.5-9.5,18.5-11.8
		c3.4-1.3,6.7-1.2,11,0.2c1.2,0.4,1.5,0.4,1.2,0.1c-0.6-0.6-5-1.8-7.2-1.9c-4.9-0.3-20.5,7.6-24.2,12.3c-2,2.6-2.4,3-2.3,2.3
		c0.5-2.2,2.5-5.5,4.5-7.7c1.1-1.2,1.1-1.2,0.3-0.8c-3.2,1.6-6.1,7.2-6.1,11.6c0,3.5,0.3,5.4,0.6,4.4c0.1-0.5,0.2-0.2,0.2,1.1
		c0,1,0.2,2.2,0.4,2.8c0.3,1,0.3,0.8,0.2-2.2c-0.2-4.1,0.3-4.7,0.9-1c0.1,0.8,0.2,0.9,0.4,0.7c0.2-0.3,0.3,0,0.3,1
		c0,1.3,0.1,1.3,0.2,0.3c0.1-1.1,0.1-1,0.5,0.7c0.8,4.2,0.2,8.3-1,5.6c-0.4-0.9-1.1-1-1.3-0.1c-0.1,0.9-0.8,0.7-1.2-0.3
		c-0.4-1-0.9-1.2-1.1-0.5c-0.2,0.7-1-1.3-1-2.5c0-0.6-0.2-1.3-0.4-1.5c-0.8-1.2-2.3-7.9-2.3-10.5c0-4.8,2.3-9.1,6.8-12.4
		c3.7-2.8,5-3.9,4.7-4.2c-1.4-1.4-12.2,9.9-11.4,12c0.1,0.2,0,1.2-0.3,2.3c-0.4,1.9-0.4,2.7,0.3,8.3l0.1,1.1l-0.5-1
		c-1.3-2.7-0.6-11.3,1.2-14.7c3.4-6.3,3.1-5.9,6.9-8.8c3.5-2.7,6.5-4.6,8.2-5.3c1.5-0.6,1.6-0.6,0.8-0.7c-1-0.1-2.6,0.4-3.8,1.2
		c-3.2,2.1-5.9,4-6.6,4.6c-1.4,1.3-2.2,1.9-1.8,1.3c0.2-0.3,0.3-0.5,0.2-0.6c-0.3-0.3-4.3,4.2-5.6,6.2c-0.8,1.2-1.3,1.8-1.3,1.5
		c0-0.4,0-0.4-0.3-0.1c-0.2,0.3-0.3,0.3-0.3-0.2c0-0.3,0.2-0.6,0.3-0.6s0.6-0.4,0.8-1c2.1-4.4,7-9.6,11.8-12.5c1.4-0.8,1.5-1,0.9-1
		c-0.4,0-1.6,0.6-2.9,1.5c-1.2,0.8-2.9,2-3.7,2.5s-2.3,1.9-3.3,3c-1.7,1.8-2.2,1.8-1,0.1c0.5-0.8,0.5-1.4-0.1-0.9
		c-0.7,0.6,1.2-2.9,2.3-4.1c0.9-1,2.4-1.9,4.5-2.8c0.7-0.3,0.7-0.3-0.2-0.3C312.1,34.8,311.1,35.1,310.4,35.5 M319.1,41.4
		c-2.5,0.9-4.5,1.9-5.3,2.7c-0.4,0.3,0.3,0.1,1.9-0.7c1.4-0.7,3.5-1.6,4.7-2c1.2-0.4,1.8-0.7,1.5-0.7
		C321.4,40.7,320.2,41,319.1,41.4 M303.8,46.1c-1,3.1-1.8,6.6-1.8,8.3c0,1.2,0,1.3-0.3,0.5c-0.4-1.1,0-5.2,0.5-5.8
		c0.2-0.2,0.3-0.6,0.2-0.7c-0.1-0.2,2-4.9,2.1-4.8C304.6,43.7,304.3,44.8,303.8,46.1 M310.6,51.8c-2.3,2.7-3.9,5.9-4.2,8.3
		c-0.2,1.4-0.1,1.4,0.7-1.1c1.1-3.1,2.4-5.3,4.2-7.1c1.4-1.4,1.6-1.7,1-1.7C312.1,50.3,311.3,51,310.6,51.8 M315.9,52.9
		c-1.5,1.5-3.3,4.1-2.9,4.1c0.1,0,0.6-0.6,1.1-1.4s1.7-2.1,2.5-2.9c0.8-0.8,1.4-1.5,1.3-1.5C317.8,51.1,316.9,51.9,315.9,52.9
		 M299.6,53.4c0,0.8,0.1,2.2,0.3,3c0.1,0.8,0.4,2.2,0.5,3.2c0.2,1,0.5,2.5,0.8,3.4c0.7,2.3,0.5,2.6-0.4,0.7c-1-2.1-1.5-3.9-1.5-5.8
		c0-0.8-0.1-1.6-0.3-1.7c-1-0.6-0.1,5.6,1.3,8.6c1.4,3,0.5,2.1-1.1-1.1c-2-3.9-2.3-7.6-0.9-10.6C299.2,51.3,299.6,51.4,299.6,53.4
		 M291.2,53.8c-0.8,4.4,1.4,12,4.3,15c0.9,0.9,1,1,0.5,0.3c-3-4.1-4.2-8-4.5-14.9l-0.1-1.7L291.2,53.8 M287.2,57.5
		c-3.2,2.5-4.8,9.3-3.3,13.8c1.4,4.1,4.9,9.9,6,9.9c0.2,0,0.2-0.1,0-0.3c-1.3-1.7-2.5-3.3-2.5-3.6c0-0.2-0.5-1.3-1.1-2.6
		c-1.4-2.9-1.4-3.5,0-1.2c1.3,2.2,3.6,5.1,3.7,4.8c0.1-0.2-0.4-0.9-1-1.7c-3.1-4.1-4.8-9.6-3.9-12.2c0.2-0.6,0.4-1.6,0.4-2.1
		c0-3,0.8-2.4,1.8,1.4c0.8,3,2.1,6.5,2.3,6.2c0.1-0.1-0.1-0.7-0.4-1.4c-0.8-2-0.6-2.1,0.4-0.2c0.5,0.9,1.7,2.4,2.6,3.3
		c1.3,1.3,1.4,1.4,0.5,0.3c-3.8-4.5-5.7-11.3-4.2-14.9C288.8,56.4,288.3,56.6,287.2,57.5 M308.7,63.3c-0.3,1.6-0.2,5.7,0.3,6.4
		c0.4,0.6,0.4-0.1,0-2.8c-0.2-1.7-0.2-2.4,0.1-3.6c0.2-0.8,0.3-1.5,0.2-1.5C309.1,61.7,308.8,62.4,308.7,63.3 M337.6,63.5
		c-6.6,1.2-9.7,2.5-12.8,5.5c-2.1,2-4.7,6-4.2,6.4c0.1,0.1,0,0.7-0.3,1.4c-0.6,1.9-0.5,1.8,0.7-0.5c1.1-2.1,2.7-4.4,3.2-4.4
		c0.5,0,0.3,0.7-0.6,1.9c-0.8,1.2-2.4,4.1-2.4,4.4c0,0.1,0.4-0.3,0.9-1c1.6-2.1,6.4-6.1,7.4-6.1c0.3,0,1.2-0.4,2.1-1
		c5.2-3.1,12.3-3.4,18.5-0.8c0.9,0.4,0.2-0.4-0.9-1c-4.3-2.2-10.7-2.3-16.9-0.4c-0.4,0.1-0.3,0,0.1-0.2c1.4-0.8,5-1.8,6.9-2
		c2.7-0.2,2.1-0.7-0.8-0.7l-2.2,0l1.3-0.3c5.2-1.3,11.3,0.5,19,5.4c1.6,1,4.2,2.7,5.9,3.6c1.7,1,4.1,2.5,5.4,3.2
		c2.4,1.5,4.3,2.4,4.2,2c-0.1-0.3-3.2-2.4-5.3-3.7c-0.6-0.4-2.7-1.7-4.7-2.9c-1.9-1.2-4.6-2.9-6-3.8
		C348.5,63.9,343.4,62.5,337.6,63.5 M314,66.3l-0.5,2.3l0.1-2.2c0.1-2.2,0.3-3,0.7-2.6C314.4,63.9,314.2,65,314,66.3 M285.3,64.7
		c-0.3,1.5,0.6,4.8,1.9,7.6c0.8,1.6,1.1,1.2,0.4-0.5c-0.7-1.6-1.4-3.9-1.8-6.2C285.6,63.8,285.5,63.8,285.3,64.7 M208.6,66.5
		c-1.7,0.8-1.8,1-0.4,1.7c1.1,0.6,0.7,0.6-2.3,0.1l-2.2-0.4l-1.1,0.7c-2.2,1.3-2.1,1.5,0.3,1.3c1.5-0.1,2.2-0.1,2.2,0.1
		c0,0.3-0.1,0.4-3.4,1.1c-2.9,0.7-3.8,1-3.8,1.3c0,0.5,3.6,1.5,5.5,1.5c2.9,0.1,8.3,3,10.3,5.6c0.6,0.8,1.3,0.8,2.2,0.1
		c0.8-0.7,0.9-1,0.2-1.9c-1-1.2-0.3-1.4,1-0.3c0.5,0.4,0.8,0.6,0.8,0.4c0-0.3-1.4-2.2-2-2.7c-0.5-0.4-0.6-1.1-0.1-1.1
		c0.2,0,1.1,0.8,2,1.8c0.9,1,1.8,1.7,1.8,1.6c0.2-0.2-1.3-2.3-2.1-3.1c-0.8-0.8-0.9-1.1-0.2-1.1c0.3,0,1.4,1,2.5,2.1
		c1.8,1.9,2.7,2.5,2.7,2c0-0.2-1.8-2.4-3.3-4.1c-1.7-1.9,0.3-1.7,2.1,0.2c0.4,0.5,0.9,0.8,1.1,0.8c0.2,0,0.5,0.2,0.6,0.4
		c0.2,0.2,0.7,0.5,1.2,0.7c0.8,0.3,0.8,0.3,0.3-0.2c-0.3-0.3-1.2-1.2-2-2.1c-0.9-1-2.1-2.1-3.2-2.7c-1-0.6-2.4-1.6-3.2-2.3
		C213.2,65.8,211.1,65.3,208.6,66.5 M309.5,67.2c0,0.7,0.1,1.6,0.2,2c0.3,1,0.3-0.8,0-2.3l-0.2-1.1L309.5,67.2 M226.8,68.3
		c-0.4,0.1-1,0.5-1.4,0.9c-0.8,0.8-0.8,0.8,0.6,2.3c0.8,0.8,2.9,0.9,3.9,0.1c0.9-0.7,0.9-0.7,1.8,0.9c0.9,1.6,1.3,1.8,1.3,0.8
		C232.9,70.8,229.4,67.9,226.8,68.3 M25.1,68.9c-1.4,0.3-1.4,0.1-0.6,4.2c1,5.1,2.8,11.1,5,16.5c1,2.5,1.8,4.7,1.8,4.7
		c0,2,8.6,15,14,21.2c11.5,13.1,20.7,20.8,32.5,27.2c2,1.1,4.4,2.5,9.4,5.6c2.7,1.6,3.2,2,8.8,4.9c7.7,4.1,18.5,10.1,22.8,12.6
		c2.1,1.3,4.5,2.7,5.3,3.1c0.8,0.5,2.5,1.4,3.7,2c1.2,0.6,2.4,1.3,2.7,1.5c0.8,0.6,6,3.4,7.7,4c2.9,1.1,11.2,5.6,18.3,9.9
		c2.8,1.7,5.4,3.2,5.8,3.3c0.4,0.1,1.2,0.5,1.7,0.8c0.5,0.3,1,0.5,1.1,0.4c0.2-0.2,0.3-0.1-1.8-1.6c-1-0.7-2.7-1.9-3.9-2.7
		c-1.2-0.8-4.1-2.7-6.4-4.1c-2.3-1.4-5.2-3.2-6.4-3.9c-1.2-0.7-3.6-2-5.5-2.9c-1.8-0.9-4.5-2.4-6-3.3s-5-2.8-7.9-4.3
		c-2.9-1.4-5.7-3-6.3-3.4c-0.6-0.4-1.9-1.2-2.8-1.7c-0.9-0.5-3-1.6-4.6-2.6c-1.6-0.9-4.1-2.3-5.6-3.2c-1.5-0.8-3.9-2.2-5.5-3.2
		c-1.6-0.9-3.3-1.9-3.9-2.1c-0.6-0.2-2.7-1.4-4.9-2.7c-2.1-1.2-4.7-2.7-5.7-3.2c-4.1-2-14.9-8.2-15.7-9c-2.9-2.7,0.2-4.4,5.5-3.1
		c5.6,1.4,5.7,1.5,14.5,7.3c14.2,9.4,17.2,11.4,18.9,12.3c1,0.5,2.7,1.5,3.6,2.1c1,0.6,2.3,1.4,2.9,1.7c0.6,0.3,1.8,1.1,2.5,1.6
		c0.8,0.6,2.7,1.8,4.3,2.8c1.6,1,4.5,2.9,6.5,4.2c7.8,5.2,17.8,11.7,17.8,11.5c0-0.1-0.8-0.7-1.8-1.4c-1-0.7-2.3-1.7-3-2.2
		c-3.4-2.7-15.8-11.9-17.9-13.2c-1.4-0.8-3.3-2.1-4.2-2.8c-0.9-0.7-3.8-2.5-6.3-4c-6.5-3.8-7.7-4.6-11.4-7.1
		c-6.7-4.6-11.9-8-14.5-9.5c-6.1-3.5-14.6-11.4-17.9-16.8c-2.4-4-3.1-5.4-2.7-5.8c0.5-0.5,4.6-0.3,7.6,0.3c1.4,0.3,3.1,0.6,3.8,0.6
		c2.1,0,9.6,3,18.8,7.6c2,1,4.6,2.2,5.8,2.7c2,0.8,3.5,1.6,7.6,4.2c0.7,0.4,2.1,1.2,2.9,1.8c0.9,0.5,3.1,2,5,3.2
		c1.9,1.3,4,2.7,4.9,3.2c3.8,2.4,9,6.3,11,8c3.3,3,6.2,5.6,6.4,5.6c0.9,0-8.1-9.1-12.3-12.3c-4.5-3.5-14.6-10.5-19.8-13.8
		c-1.2-0.8-12.2-6.4-19.7-10.2c-5.5-2.7-14.8-5.9-18.9-6.4c-1.3-0.2-3.4-0.6-4.7-1.1c-1.3-0.4-3.4-1-4.6-1.3c-2.7-0.7-3.5-1.2-8-5.3
		c-5.4-4.9-21.4-23.4-20.7-23.8c1.9-1.2,18.4-0.9,23.5,0.4c1.7,0.4,4.3,1.1,5.7,1.5c1.5,0.4,3.5,1,4.6,1.4c1,0.4,3,1,4.4,1.3
		c2.4,0.6,5.7,1.8,8.2,3c0.7,0.3,2.5,1,4.1,1.6c3.8,1.4,7.8,3.5,11.6,5.9c1.7,1.1,4.9,2.9,7.1,4.1c8,4.1,8.8,4.8,15.7,11
		c5.8,5.3,7.7,6.9,14.9,12.7c3.1,2.5,7.4,6.2,9.6,8.2c2.2,2.1,5.3,4.8,6.9,6.2c3.1,2.6,5.3,4.7,8.1,7.9c1,1.1,3.4,3.3,5.5,5
		c2.1,1.7,5.5,4.8,7.6,6.8c2.1,2,4.1,3.6,4.3,3.6c0.2,0,1.1,0.6,2,1.3c1.5,1.3,6.7,5.1,9.6,7.1c0.8,0.6,2.9,2.1,4.5,3.4
		c6.7,5.2,14.4,9.8,15.1,9.1c0.5-0.5-0.1-0.9-4.1-3.4c-4-2.4-6.5-4.2-9-6.4c-8-6.9-17.6-14.5-21.4-17c-2.6-1.7-3.9-2.9-10.5-9.5
		c-4.1-4.1-8.8-8.7-10.5-10.2c-1.7-1.5-4.1-3.7-5.5-4.9c-1.3-1.2-3.1-2.7-4-3.5c-3.3-2.7-5.7-4.9-10.3-9.3
		c-5.9-5.7-10.2-9.5-12.8-11.3c-1.1-0.8-3.2-2.4-4.6-3.6c-2.6-2.2-4.1-3.2-13.5-9.6c-10-6.7-24.8-14-33.1-16.3
		c-1.6-0.4-3-0.8-3.1-0.9c-1-0.6-11.4-2.9-14.3-3.2c-1-0.1-3.1-0.5-4.6-0.8c-2.9-0.7-7.6-0.9-14.5-0.7c-1.7,0.1-3.6,0-4.3-0.1
		C26.7,68.8,25.7,68.8,25.1,68.9 M288.1,72.2c0,0.3,1.4,3.2,1.9,3.9c0.7,1,1.3,1,0.6,0.1c-0.3-0.4-0.8-1.4-1.2-2.2
		C288.8,72.7,288.1,71.8,288.1,72.2 M180.1,72.9c-5.8,1.4-9.8,4-9.5,6.4c0.1,1.2,1.5,1.3,2.5,0.1c3.7-4,14.9-4.1,25.7-0.1
		c2.2,0.8,4.3,1.9,10,5.2c9.2,5.4,5.1,1.8-5.1-4.5c-1.1-0.7-1.6-1.1-1.3-1.2c0.9-0.6,10.4,6,16.6,11.4c4.9,4.3,5.5,4.2,1-0.2
		c-9-8.8-21.3-16.2-27-16.2c-0.4,0-1.9-0.3-3.4-0.7C186.4,72.3,183.1,72.2,180.1,72.9 M336.1,75.6c1.2,0.2,2.6,0.4,3.1,0.6
		c0.6,0.2,0.4,0.2-0.7,0.1c-3.7-0.5-8.7,0.2-10,1.4c-0.9,0.9-2.6,1.7-2,1.1c0.8-0.9-0.3-0.4-3.1,1.5c-1.1,0.7-2,1.3-2.1,1.2
		c-0.4-0.4,4-3.9,5.9-4.7c2-0.8,4.9-1.6,5.7-1.5C333.4,75.2,334.9,75.4,336.1,75.6 M338.8,77.7c1.8,0.5,3.4,1.3,3.1,1.5
		c-0.1,0.1-1.1-0.2-2.3-0.6c-3.9-1.2-8-1.1-11.5,0.3c-0.3,0.1-0.5,0.1-0.5-0.1c0-0.3,1.7-1,3.3-1.4C332.7,77,336.7,77.2,338.8,77.7
		 M229,78.2c-0.2,0.1,0,0.3,0.7,0.4c0.6,0.1,3.5,1,6.5,2c5.2,1.7,9.9,2.9,11.7,2.9c0.5,0,0.8,0.1,0.8,0.2c0,0.3-2,0.6-3,0.4
		c-5-0.8-6.5-1.1-9.3-1.9c-3.4-1-4.3-1.1-2.3-0.3c0.6,0.3,2.9,1.3,5.1,2.4c2.2,1.1,5.1,2.4,6.5,2.9c1.4,0.5,2.3,0.9,2.1,0.9
		c-1.2,0-4.6-0.9-7.8-2.1c-1.9-0.7-4.3-1.6-5.2-2c-2.3-0.9-2.3-0.7,0.2,0.8c1.1,0.7,3.1,1.8,4.3,2.5s3.6,1.9,5.4,2.6
		c3.8,1.5,4,1.8,0.4,0.8c-2.9-0.8-4.6-1.5-11-4.6c-2.4-1.2-4.8-2.2-5.2-2.3l-0.8-0.2l0.9,0.6c0.5,0.3,2.3,1.5,4,2.6
		c5.1,3.4,6.2,4,10.4,6.2c4.6,2.3,4.7,2.6,0.3,1c-3.5-1.2-8.1-3.6-12.9-6.6c-3.6-2.3-5.8-3.3-6.4-3.2c-0.2,0,0.5,0.5,1.6,1.1
		c1.1,0.6,3.8,2.3,6,3.9c5.6,4,11.3,7.9,12.4,8.4c0.5,0.3,2.8,1.7,5.1,3.2c4.4,2.9,10.8,6.4,13.4,7.2c0.8,0.3,1.5,0.6,1.5,0.7
		c0,0.8,1.3-0.4,4.6-4.4c2.7-3.3,4.6-5.2,6.6-6.9c2-1.6,2.8-2.5,2.5-2.6c-0.2-0.1-1.3-0.5-2.5-0.9c-1.2-0.4-2.9-1.1-3.7-1.6
		c-0.9-0.5-2.7-1.3-4-1.8s-3.1-1.4-4-1.9c-0.9-0.5-2.4-1.3-3.3-1.8c-0.9-0.5-1.7-1-1.7-1.2c0-0.2-0.2-0.6-0.5-1
		c-2.9-3.6,8.9-3.8,19.6-0.4c3.3,1.1,3.3,1.1,3.3,0.7c0-0.8-4.5-2.8-9.6-4.4c-3-0.9-10.4-1.4-13.7-1c-4.9,0.7-16,0.4-21.4-0.6
		C230.8,78.1,229.4,78,229,78.2 M182.3,81.5c-5.6,0.8-13.6,3.7-15.9,5.7c-1.8,1.5-3.3,5.1-3.3,7.7c0,2.8,8.3,12.3,14.4,16.6
		c6.1,4.3,26.3,14,27.1,13.2c0.3-0.3,0.2-0.5-1.1-1.4c-3.5-2.4-8.6-9-9.6-12.3c-1.8-6.2,0.3-11.7,6-15.4c3.2-2.1,2.7-2.5-0.6-0.5
		c-8.6,5.1-9.8,14.2-3.1,22.6c2.1,2.6,2.1,2.7,0,1.1c-5.9-4.5-11.6-13.5-13-20.4c-1-4.9,1.6-9,7.4-11.8l2.7-1.3l-0.8-0.5
		c-1.8-1.2-7,0.7-10.1,3.7c-4.1,4-4.1,8.9,0.2,16.7c2.3,4.2,2.3,4.4-0.3,1.5c-5.8-6.6-7.4-10.4-6-13.6c0.2-0.6,0.4-1.1,0.3-1.3
		c-0.5-0.9,4.2-5.8,7-7.4c2-1.1,1.5-1.1-1.7,0.1c-8.3,2.8-11.8,8-9.8,14.2c0.9,2.7,2.4,5.7,4,7.7c2.8,3.6,2.9,4,0.6,1.6
		c-12.9-13.5-11.3-21,5.4-25.9C185.4,81.1,185.5,81,182.3,81.5 M225.1,88.1c0.1,0.1,0.7,0.6,1.4,1c0.7,0.4,1.9,1.3,2.7,2.1
		c0.8,0.7,3.2,2.5,5.4,3.9c15,9.7,17.8,11.1,5.5,2.7c-1.8-1.3-5.5-3.8-8.1-5.6C226.5,88.3,224.4,87.1,225.1,88.1 M299.4,92.4
		c1.5,0.8,3.3,1.5,3.8,1.7c1.3,0.4,1.9,1.9,2,4.3l0,1.4l-1.8-1.3c-4-3-7.7-5-10.3-5.7c-1-0.3-0.9-0.6,0.4-1.2
		C295.3,90.8,296.2,90.9,299.4,92.4 M351.9,93.9c-1.8,0.9-3.6,3.9-2.7,4.7c0.3,0.3,0.5,0.1,1.4-1.4c0.6-1,1.4-1.4,3.5-1.4
		c2.1,0,2.6,0.5,2.6,2.3c0,1.4,0.5,1.5,0.8,0.2C358.3,95.5,354.7,92.6,351.9,93.9 M208.9,95.7c-0.6,0.4-0.9,0.8-0.9,0.9
		c0.4,0.6,7.5,2.1,11,2.3l2.4,0.2l0.8-1.3c1-1.6,1-1.6-0.6-0.9c-1.5,0.7-3.6,0.5-8-0.9C210.3,94.9,210.1,94.9,208.9,95.7
		 M358.8,98.3c-0.1,1.9-1.2,3.9-3.4,6.5c-0.7,0.8-1.7,2.2-2.1,3c-0.4,0.8-1.1,1.9-1.4,2.5c-1.3,2-1.5,5-0.3,4.6
		c0.2-0.1,0.5-0.2,0.7-0.2c0.7,0,1.3-1.1,1.3-2.5c0-2,1-3.8,3-5.5c4-3.5,5.8-8.2,3.6-9.6C358.8,96.5,358.9,96.4,358.8,98.3
		 M231.9,99.3c0,0.1,0.7,0.5,1.6,0.9c1.5,0.6,4.6,2.4,4.2,2.4c-0.1,0-1.8-0.5-3.7-1.2c-6.8-2.3-6.8-2-0.3,1.3
		c5.9,2.9,13.7,7.7,15.7,9.6c0.4,0.4,0.9,0.7,1,0.7c0.4,0,4.4,2.9,6.3,4.6c1.9,1.7,2,1.8,2.3,1.1c0.4-1-8.6-8.5-16.1-13.4
		c-0.6-0.4-0.6-0.4,0.3-0.4c1.4,0.1,7.9,4.3,12.8,8.3c1.8,1.5,4.2,2.9,4.5,2.6c0.2-0.2,0-0.4-6.4-5.1c-8.2-6-10-7.3-12.7-8.5
		C237.8,100.6,231.9,98.8,231.9,99.3 M329.1,100.3c-0.1,0.1-0.1,0.5,0,0.9c0.1,0.4,0,1.1-0.3,1.6c-0.2,0.5-0.4,0.9-0.4,0.9
		c0.3,0.3,4.5-2.1,4.5-2.6C332.9,100.7,329.5,99.9,329.1,100.3 M351.1,101.9c0,0.6-0.3,1.6-0.6,2.3c-0.7,1.4-0.5,1.6,0.9,0.7
		c1.1-0.8,1.3-1.7,0.5-3C351.1,100.7,351.1,100.7,351.1,101.9 M297.2,102.8c0,2.6,1,3.6,2.7,2.8c0.9-0.5,0.9-0.4,0.1-1.6
		c-0.4-0.5-0.7-1.1-0.7-1.3c0-0.2-0.5-0.4-1.1-0.6l-1.1-0.3V102.8 M322.2,102.7c-1.3,0.8-1.5,1-1.1,1.2c0.7,0.4,4.1,0.6,3.6,0.2
		c-0.4-0.3-0.9-1.5-0.8-2.1C323.9,101.6,323.9,101.6,322.2,102.7 M284,105.3c-1.5,1.6-2.1,2.9-5.1,11.3c-0.5,1.3-0.8,3-1,6
		c-0.6,6.8-0.9,8.1-2.8,13.6c-1.6,4.4-3.4,8.2-6,11.9c-1.2,1.8-2.1,3.3-2,3.3c0.9,0,7.5-8.6,8.7-11.4c2.3-5.2,3.6-8.7,4.1-11.1
		c1.3-6.6,2.4-10.7,3.3-12.8c0.2-0.6,0.9-2.2,1.4-3.6c0.5-1.4,1.1-2.8,1.3-3.1c0.4-0.6,0.4-0.8-0.2-2.6
		C285,104.3,284.9,104.2,284,105.3 M295.8,105.5c0.1,0.5,0,2.1-0.3,3.6c-1.1,6.8-1.1,7.3,0,10.8c0.3,1.1,0.8,2.7,1.1,3.5
		c0.2,0.8,1.6,3.7,3,6.5c2.6,5.1,4.3,8.9,5.4,12.3c2.1,6.5,3.5,9.1,5.3,9.9c1.2,0.5,5.1,0.5,5.1,0c0-0.3-0.3-0.4-0.8-0.4
		c-1.4,0-5.4-2.6-4.1-2.7c4.1-0.1,7.1-1,8-2.3c0.5-0.8,0.8-6.9,0.3-7.2c-0.1-0.1-0.3-0.4-0.3-0.6c0-0.7-0.5-0.8-3.9-0.8
		c-4.1,0-5.7-0.9-5.7-3.2c0-0.1,1.5-0.3,3.4-0.4c5.8-0.3,11.2-3.3,13.5-7.5l0.7-1.3l-0.8,0.7c-1.3,1.2-4.3,2.9-5.7,3.3
		c-3.1,0.9-4.7,1.2-7.4,1.5c-1.5,0.2-3,0.4-3.3,0.4c-0.3,0.1-0.6-0.1-0.8-0.5c-0.2-0.3-0.6-0.9-0.9-1.2c-0.3-0.3-0.4-0.6-0.2-0.6
		s0.8-0.4,1.3-0.9c0.8-0.8,1.2-0.9,2.1-0.9c1.4,0,3.4-0.5,3.8-1c0.2-0.3,0.8-0.3,2.3-0.2l2,0.1l-1.5-0.7c-2.1-1-3.2-1.1-4.6-0.4
		c-1,0.5-1.3,0.5-1.7,0.3c-0.8-0.4-2.3-0.4-3.3,0.1c-0.9,0.5-0.9,0.4-2.5-0.9c-2-1.8-3-7.1-1.9-10.2c0.3-1,0.4-1.4,0.1-2.8
		c-0.2-1.2-0.2-2,0-3.2c0.3-1.9,0.5-1.8-1.4-0.9c-2.9,1.4-3.4,1.4-1.9-0.1c1.6-1.4,1.4-1.9-0.3-1c-2.2,1.3-3.2,1.3-3.7,0
		C295.7,104.7,295.6,104.5,295.8,105.5 M347.9,112c-0.2,0.2-0.5,0.4-0.7,0.4c-0.7,0-1.3,1.6-1.3,3.3c0,2.4,1,3.9,2.8,4.4l0.9,0.3
		l-0.8-0.7c-0.9-0.7-1.4-1.6-1.4-2.2c0-0.2,0.3,0,0.7,0.4c0.8,0.8,1.9,1.3,2.8,1.3c0.5,0,0.4-0.1-0.4-0.6c-1.4-0.9-2-2.3-1.9-4.8
		C348.6,111.6,348.5,111.3,347.9,112 M274.8,116.3c-0.4,0.4-1.8,1.9-3.3,3.3c-3.3,3.2-5.4,5.7-7,8.5c-0.7,1.2-2.2,3.6-3.3,5.3
		c-4,6.2-5.9,9.9-4.9,9.5c0.3-0.1,1.7-0.7,3.3-1.3s3.7-1.4,4.9-1.9c2.5-1,2.5-1,4-3.3c0.7-1,1.9-2.8,2.9-3.9c3.1-3.7,3.3-5.3,0.2-2
		c-3.3,3.6-3.4,3.7-3.7,3.4c-0.3-0.3,0.8-2.4,2.7-5.1c1-1.4,3-4.4,3.8-5.8c0.4-0.7-0.1-0.3-2.8,2.4c-2.6,2.6-3.2,3.3-6.1,7.1
		c-1.8,2.4-2.1,2.2-0.8-0.4c2.8-5.5,3.7-6.9,8.5-13.1C275.4,116.1,276.3,114.6,274.8,116.3 M286.7,141.8
		c-5.8,4.9-11.9,10.9-14.4,14.1c-1,1.4-2.8,3.6-3.8,4.9c-1.9,2.3-3.4,4.7-3.2,4.7c0.1,0,1.1-1.2,2.2-2.7c1.1-1.5,3.1-3.9,4.5-5.3
		c1.3-1.4,3.1-3.3,3.8-4.2c1.4-1.6,3.5-3.5,3.5-3.1c0,0.1-1.1,1.7-2.4,3.4c-1.3,1.8-2.4,3.4-2.4,3.7c0,0.2-0.7,1.3-1.6,2.4
		c-1.8,2.3-4.2,5.8-4,5.8c0.1,0,0.9-1,1.9-2.3c3.7-4.7,8.4-9.1,8.4-7.8c0,0.2-1.4,2.1-5.8,7.9c-2,2.6-3.5,4.8-3.5,5
		c0,0.6,1.2-0.2,2.2-1.5c2.6-3.3,6.9-7.4,7.2-6.9c0.2,0.3-0.8,1.8-3.2,4.9c-2.1,2.7-3.3,4.6-3.3,4.9c0,0.8,0.9,0.1,2.2-1.7
		c3.7-4.8,6.7-6.3,3.5-1.8c-0.8,1.1-1.8,2.6-2.2,3.4l-0.8,1.3l1.3-1.5c2.7-3,4.1-4.2,4.1-3.5c0,0.1-0.9,1.6-1.9,3.3
		c-2.6,4.1-2.6,4.3-1.1,2.9c0.7-0.7,2.1-1.9,3.2-2.8c1-0.9,2.9-2.5,4.1-3.6c1.2-1.1,2.6-2.2,3-2.4c4.1-2,6.8-9.6,5.6-15.8
		c-0.3-1.6-0.6-3.3-0.6-3.9c0-0.9-1.8-5.7-2.1-5.6C291.3,138,289.2,139.7,286.7,141.8 M269.1,141.4c-0.2,0.2-4,1.7-8.8,3.6
		c-3.4,1.3-5.3,2.7-5.4,3.8c0,1.2-1.9,8.8-2.9,11.9c-0.4,1.1-0.6,2.2-0.6,2.3c0.1,0.4,3.3-5.9,3.2-6.5c-0.1-1.1,1.6-5.5,2.5-6.5
		c1-1.1,6.1-4.4,9.5-6.1c1.7-0.8,2.4-1.4,2.7-2C269.7,141.2,269.6,140.9,269.1,141.4 M402,148.3c-2.7,2.8-10.3,5.5-16.5,6
		c-3.6,0.3-10.7,1.6-10.5,1.9c0.1,0.1,1,0.3,2,0.4c2.9,0.3,1.5,0.6-2.7,0.6c-4.1,0-4.7,0.5-0.6,0.6c2.3,0,5.1,0.4,3.7,0.5
		c-3.3,0.2-10.6,0.9-11.1,1.2c-1.7,0.6-0.5,0.7,5.7,0.6c6.9-0.2,8.1,0.1,2.6,0.7c-1.7,0.2-4.7,0.5-6.8,0.8l-3.7,0.5l2.4,0.2
		c12,1.2,19.8-0.6,30.9-7.2c0.7-0.4,1.3-0.7,1.4-0.6c0.4,0.4-5.2,4.3-10,7c-6.8,3.7-15.9,4.8-29.3,3.7c-7.8-0.7-9.9-0.7-15.1-0.5
		c-3,0.1-5.7,0.3-6,0.5c-0.3,0.1-1.6,0.3-2.9,0.4c-2.7,0.2-3.8,0.6-10.8,3c-7.4,2.6-8.9,3.5-4.2,2.3c5.1-1.3,17.1-3.2,17.1-2.7
		c0,0.2-2.1,0.8-7.4,2c-8.4,1.9-13.5,3.9-16.7,6.5c-1,0.8-0.3,0.6,1.2-0.3c4.3-2.7,11.9-4.7,22.9-6.1c1.8-0.2,4.2-0.5,5.2-0.7
		c1-0.1,6.6-0.4,12.4-0.5c12.8-0.3,14.4-0.5,26.7-3.2c3.9-0.9,7.7-2.5,11.2-4.9c3.4-2.3,4.1-3,8.8-10.1
		C404.2,147.2,404.3,145.9,402,148.3 M249.2,157.1c-0.3,0.4-0.7,1.1-0.9,1.7c-0.2,0.5-1.2,2.7-2.2,4.9c-3.2,6.4-3.7,8.3-2.4,9.1
		c0.9,0.6,2.8-0.8,2.8-2.1c0-0.4,0.1-0.9,0.3-1.1c0.3-0.6,2.2-7.4,2.8-10.2c0.2-1.1,0.5-2.2,0.6-2.5
		C250.4,156.2,249.9,156.3,249.2,157.1 M330.7,157.6c-2.9,1.6-11.5,2.8-13.9,2c-1.4-0.5-5.7-1.1-11.6-1.5c-3.8-0.3-7.1,0.8-11.1,3.8
		c-1.1,0.8-2.9,2.1-4.1,2.8c-4.7,3-6.3,4.6-9.5,9.9c-2,3.2-2,3.3-1,2.4c3-2.8,9.3-7.3,10.1-7.3c0.2,0-0.6,1.1-1.9,2.3
		c-1.2,1.3-2.8,3.1-3.6,4.1c-2,2.6-1.9,2.6-1.5,2.2c1.4-1,2.9-2.2,3.7-2.9c4.9-4.4,15.1-7.7,25.1-8.1c5.9-0.3,5.8-0.2,11.2-2.4
		c4.6-1.8,4.6-1.7-0.3-1.2c-0.8,0.1-1.5,0.3-1.4,0.4c0.1,0.2-3.6,0.1-4.4-0.2c-0.2-0.1-0.3-0.3-0.2-0.5c0.1-0.2,0-0.4-0.1-0.5
		c-0.2-0.1,0.8-0.2,2.2-0.4c5.1-0.7,10.3-2.6,12.9-4.7C332.1,157.1,331.9,157,330.7,157.6 M267.3,167.3c-0.4,0.4-0.5,0.5-0.2,0.5
		c0.2,0,0.6-0.2,0.7-0.5C268.2,166.7,268.1,166.7,267.3,167.3 M309.9,171.9c-1.8,0.7-2.2,1-3,2.2c-1.3,2-4,7.2-5.1,9.7
		c-1.6,3.8-1.8,4.3-2.1,4.3c-0.2,0-0.2-0.2-0.1-0.6c0.1-0.3,0.5-1.7,0.9-3.1c0.4-1.4,1.1-3.5,1.6-4.6c0.5-1.1,1.1-2.6,1.4-3.3
		c0.3-0.7,0.5-1.3,0.4-1.4c-0.6-0.6-13.6,7-17.2,10.1c-1.3,1.1-5.2,5.1-5.2,5.3c0,0.1,2.8,0.1,6.1,0.1c7.3,0,8.3,0.4,2.3,0.8
		c-5.2,0.4-9.8,1-10.7,1.5c-1.3,0.6-3.3,4.6-2,4.1c3.3-1.3,18.7-1.6,22.8-0.4c1.1,0.3,0.9,0.7,2.1-3.6c3.3-11.8,5.2-16.1,9.1-20.2
		C313.3,170.8,313.1,170.7,309.9,171.9 M264.1,172.7c-4.1,0.2-8,0.7-14,1.7c-4.9,0.8-10.5,1.6-17,2.3c-2.9,0.3-5.6,0.7-6,0.9
		c-0.4,0.2-1.8,0.5-3.1,0.7c-1.3,0.2-2.7,0.4-3,0.6c-0.3,0.1-1.2,0.2-1.9,0.3c-2.1,0.1-3.5,1.1-1.5,1.1c3.5,0,9.3,1.8,9.9,3.1
		c0.6,1.3-0.3,4.7-1.3,4.7c-0.1,0-0.3,0.2-0.3,0.4c0,0.6,0.7,0.5,3-0.4c1.1-0.4,3.1-1,4.4-1.3c1.3-0.3,4.1-1.1,6.3-1.9
		c5-1.7,8.1-2.6,12.7-3.7c3.5-0.8,15.2-4.6,16.5-5.3c1-0.5,0.4-3.3-0.6-3.2C268.1,172.5,266.3,172.6,264.1,172.7 M339.2,175
		c-2.8,0.5-8.6,2-12.5,3.3c-1.8,0.6-4,1.2-4.9,1.5c-5.1,1.3-6.8,1.9-8,3.2c-1.4,1.4-1.4,1.4,2,0.4c5.3-1.6,5.1-1-0.8,1.9
		c-4,1.9-4.4,2.2-4.8,3.1c-0.6,1.4-0.5,1.4,3.4-0.4c4.4-2.1,5.6-2.5,5.6-2.1c0,0.5-2,1.8-6.6,4.5c-2.3,1.3-4,2.4-3.8,2.4
		c0.9,0,4-1.1,5.9-2c1.1-0.6,2.1-0.9,2.2-0.8c0.6,0.6-2.6,2.6-6.3,4.2c-2.7,1.1-4.4,2.1-2.9,1.8c0.4-0.1,1.4-0.2,2.3-0.3
		c0.9-0.1,2.4-0.6,3.5-1c1.7-0.8,3.1-1.7,10.6-7.4c9.8-7.3,16-9.6,26.6-9.7c2.9,0,5.3-0.1,5.3-0.1c0-0.1-3.7-1.8-4.9-2.3
		C349.3,174.4,342.5,174.4,339.2,175 M272.7,176.8c0,0.4-0.1,0.7-0.3,0.8c-0.1,0.1-0.3,0.1-0.3-0.1c0-0.1-0.3-0.4-0.7-0.5
		c-0.9-0.4-1.1,0.1-0.4,1.1c0.9,1.2,0.6,1.8-1.6,3.4c-2.2,1.6-3.6,2.5-5.3,3.9c-0.7,0.5-3.5,2.1-6.4,3.5c-7.8,3.8-5.9,3.6,2.5-0.3
		c8.3-3.9,13.7-7.1,13.7-8.1c0-0.3,0.1-0.5,0.3-0.6c0.1-0.1,0.3-0.7,0.3-1.4c0-1.3,0-1.3-1.7-2.1
		C272.8,176.1,272.7,176.4,272.7,176.8 M210.5,178c-0.3,0.1-0.5,0.5-0.5,0.8c0,0.5,0.3,0.7,2.3,1.3c1.4,0.4,1.4,0.6-0.5,1.8
		c-2.3,1.6-1.7,2.5,1,1.4c0.8-0.3,1.7-0.5,2-0.5c1.2,0,1.7-1.9,0.9-3.1C215,178.6,211.4,177.5,210.5,178 M342.6,185.9
		c0.1,0.2,0,0.4-0.2,0.6c-0.2,0.2-0.4,0.7-0.4,1.1c0,0.9-0.5,2-2.1,4.2c-1.5,2.1-1.9,2.3-1,0.6c0.8-1.5,1.2-4.9,0.7-5.6
		c-1.1-1.6-11,4.2-11,6.5c0,1.6,0.2,1.6,1.3,0.2c0.5-0.7,1.5-1.5,2.1-1.9c1.3-0.7,1.4-0.5,0.4,0.5c-0.7,0.7-2.3,2.9-2.3,3.2
		c0,0.5,5-4.1,5.5-5.2c0.3-0.6,0.6-1,0.6-0.7c0,1-1.2,2.9-3.1,4.8c-3.4,3.6-1.7,3.3,2.1-0.3c0.6-0.6,1-0.8,1-0.6
		c0,0.4-1.7,2.7-2.3,3c-0.6,0.3-0.5,0.7,0.2,0.7c1.9,0,7.7-4.1,9.3-6.5c0.9-1.4,0.1,2.7-0.7,4.2l-0.9,1.4l0.8-0.5
		c1.8-1.1,3-2.8,3.5-4.8c0.1-0.6,0.2-0.7,0.3-0.3c0.4,1.7-1.9,5.2-4.2,6.5l-1.2,0.7l1.2-0.2c1.4-0.2,2.1-0.6,4-2.3
		c1.7-1.5,1.9-2.8,1.2-5.9c-0.2-1-0.4-2.1-0.4-2.4c0-0.8-0.2-0.9-2.7-1.1C343.1,185.7,342.5,185.7,342.6,185.9 M349.5,186.6
		c0,0.1,0.2,0.9,0.5,1.8c0.9,2.8,0.9,3.4,0.3,5.3c-0.7,2.1-2.3,4.1-4.2,5c-2.1,1-0.9,1.5,1.3,0.6c2.2-0.9,5.2-5.2,5.2-7.3
		c0-0.4,0.1-0.9,0.3-1.2c0.4-0.7,0-1.8-1.4-3.2C350.7,186.7,349.5,186.2,349.5,186.6 M259.3,192.7c-1,0.7-2.4,1.7-3.3,2.1
		c-2.5,1.3-1.9,2,5,6.6c4.9,3.2,10.8,8,11.4,9.1c0.3,0.6,1.3,1.2,1.5,0.9c0.1-0.1-0.2-0.6-0.5-1.2c-1-1.5-1.7-3.1-2.5-5.2
		c-1.7-4.7-5.2-10.8-7.1-12.3c-0.7-0.5-2.6-1.6-2.7-1.5C261.1,191.4,260.3,192,259.3,192.7 M358.5,192.3c0,0.3,0.1,0.6,0.3,0.8
		c0.6,0.6,0.4,4.1-0.4,6.3c-1.1,3-2.4,4.2-5.6,5.5l-2.4,0.9l-6.4,0.1c-7.5,0.1-10.1,0.5-14.8,2.6c-2,0.9-2.1,1.1-0.8,2
		c1,0.7,1.2,0.7,1.9,0.4c4.1-1.7,4.2-1.7,10.4-1.7c3.8,0,6.9,0.1,8.8,0.4c6.8,0.9,10.2,0.1,13.3-3.1c0.9-0.9,2.4-4.8,2.4-6.3
		c0-1.3-0.2-1.2-0.6,0.3c-1.3,5.8-4.1,7.5-12.3,7.6c-4.1,0-5.1-0.1-4.7-0.5c0.1-0.1,1.5-0.2,3-0.4c6.7-0.5,10.1-5.2,8.8-12.4
		C359.1,192.4,358.5,191.1,358.5,192.3 M164.7,192.7c-0.2,0.3-0.3,0.6-0.3,0.6c0,0,0.6,0.4,1.2,0.8c0.6,0.4,1.9,1.6,2.9,2.5
		c2,1.9,2.7,2.2,6.1,2.2c0.7,0,2.1,0.1,3,0.3c1.3,0.2,1.7,0.2,1.5-0.1c-0.1-0.2-0.6-0.3-1.1-0.3c-1.9,0-5.2-1.9-6.5-3.7l-0.6-0.8
		h0.6c0.9,0,2.4-0.7,2.4-1.2c0-0.3-0.2-0.3-0.9-0.1c-1.4,0.4-3.3,0.3-5.8-0.3c-1.2-0.3-2.2-0.5-2.3-0.5
		C165.1,192.1,164.9,192.4,164.7,192.7 M355.1,194c0,2.2-1,4-2.7,5c-4.2,2.3-3.7,2.1-7.8,2.1c-5.4-0.1-9.8-0.5-12.7-1.3
		c-8.4-2.2-14.1-1.9-18.6,0.9c-2.3,1.4-1.2,2.1,1.3,0.8c2.8-1.3,7-2.1,9.7-1.6c1.7,0.3,1.6,0.7-0.3,0.9c-3.1,0.4-4.3,0.8-5.6,1.6
		l-1.3,0.8l0.8,0.3c0.7,0.3,1,0.3,2.3-0.2c0.8-0.3,2-0.6,2.6-0.6l1.2-0.1l-1.7,0.8c-2.1,1-2.1,1-1.5,1.5c0.4,0.3,0.7,0.3,1.9-0.2
		c2.5-0.9,12.2-2.3,12.2-1.7c0,0.1-1.3,0.5-3,0.7c-3.9,0.6-8.2,2.1-8.2,2.8c0,0.1,0.5,0.6,1.1,1.1l1.1,0.9l2.1-1.1
		c3-1.6,5.7-2.1,12.3-2.4c8.9-0.4,13.1-2.2,14.9-6.4c0.7-1.5,0.9-5.7,0.4-5.8C355.2,192.7,355.1,193,355.1,194 M160.7,198
		c-1.1,0.3-2.5,0.5-3,0.5s-3.7,0.5-6.9,1.2c-3.2,0.6-7.1,1.4-8.7,1.7l-2.8,0.5l-0.8,1.7c-1.1,2.4-1,2.6,0.8,4.3
		c3.3,3.1,4.5,3,1.6-0.2l-1.7-1.8l0.9-0.4c0.7-0.3,2.6-0.4,7.3-0.6c3.5-0.1,8.6-0.3,11.3-0.5c4.8-0.3,5-0.3,8,0.4
		c1.7,0.4,5,1,7.2,1.5c4.4,0.9,4.5,0.9,5.8,3.1l0.4,0.8l-1.3-0.2c-1.7-0.3-13.2-0.2-14.6,0.1c-0.8,0.2,0.4,0.3,4.9,0.4
		c4.5,0.2,6.4,0.3,7.6,0.7c0.9,0.3,2.2,0.6,2.9,0.8c1,0.3,1.7,0.7,2.9,1.9c1.7,1.6,5.6,3.2,6.8,2.8c0.3-0.1,1.3,0,2.3,0.1
		c1.6,0.2,1.8,0.2,1.3-0.1c-0.3-0.2-0.6-0.4-0.7-0.4c-1.7,0-6.3-5.2-7.7-8.6c-0.7-1.8-0.7-1.8,3.1-1.5c3,0.2,3.3,0.2,5.7-0.5
		c7.5-2.1,17.6-6.1,17-6.6c-0.3-0.3-7.1,1.3-12.6,2.8c-6.8,2-7.4,2.1-11.5,1.3c-3.5-0.7-3.9-0.9-2.1-1.2c6.5-1,9.6-1.6,10.2-2.2
		c0.5-0.4-1-0.3-3.6,0.2c-0.7,0.1-2.1,0.3-3.2,0.4c-1.1,0.1-3.4,0.3-5.1,0.6c-5.9,0.7-14.5-0.5-16.5-2.5
		C164.9,197.3,163.8,197.2,160.7,198 M382.4,199.2c0.3,1.4,1.3,5.1,2.3,8c3.7,11.4,4.2,18.8,1.8,27.4c-0.7,2.6-1.4,3.7-1.2,1.8
		c0.5-3.7,0.7-6.3,0.6-9.7l0-3.7l-0.4,3.3c-0.2,1.8-0.5,4.4-0.8,5.7s-0.5,2.8-0.5,3.2c-1.2,8.6-5.3,15.1-11.5,18.5
		c-0.7,0.4-0.8,0.5-0.4,0.4c1.9-0.5,3.7-1.6,6.2-3.6c12.3-10.4,14.1-30.3,4.5-50.2C382.6,199.4,382.3,198.9,382.4,199.2
		 M372.2,203.3c0,4.3-1.9,9.3-4.5,11.9c-1.4,1.5-1.6,1-0.3-1.3c2.2-4.2,3.1-8,2.6-11.3l-0.2-1.6l-0.2,2.5
		c-1,12.6-13.7,19.4-27.9,15.1c-1.7-0.5-3.1-0.9-3.1-0.8c-0.1,0.1,2.8,2.8,3,2.8c0.1,0,1.4,0.2,2.7,0.5c1.4,0.3,3.3,0.5,4.2,0.5
		c1.2,0,1.6,0.1,1.5,0.3c-0.1,0.2-1.2,0.3-3.7,0.1c-2-0.1-3.6-0.1-3.6,0c0,0.1,0.4,0.7,1,1.3l1,1.2h2.4c9,0,17.7-3.2,21.4-7.9
		c3.3-4.3,5-10.6,3.9-15.4C372.3,200.9,372.3,201.8,372.2,203.3 M205.1,203.8c-0.7,0.2-1.9,0.5-2.6,0.6c-2.6,0.4-8.1,3.7-8.8,5.4
		c-1,2.4,2.4,5.8,5.9,5.9c1.9,0,2.1-1.5,0.3-1.9c-3-0.6-2.5-3.8,1-6.1c3-2.1,5.5-2.7,9.6-2.7c4.9,0.1,6.5,0.5,7.2,2.1
		c0.7,1.5,0.3,2.5-1.8,5.1c-1.3,1.5-0.5,1.3,1.2-0.3c3.2-3.2,2.3-7-1.9-8.1C213.1,203.2,206.9,203.2,205.1,203.8 M298.1,205.2
		c-5,0.7-10.8,2.7-10.8,3.8c0,1.1,0.6,1.3,2.4,0.8c3.3-0.9,13.8-0.5,13.2,0.5c-0.1,0.1-1.3,0.3-2.7,0.3c-2.9,0-7.4,0.8-8.1,1.5
		c-0.4,0.4,0.8,0.5,2.3,0.1c3-0.6,11.1-0.1,17.5,1l1.9,0.3l-1.7,0.2c-1,0.1-3.1,0.2-4.8,0.2c-1.7,0-3.5,0.1-4,0.3
		c-0.5,0.1-1.8,0.3-2.8,0.4c-3.2,0.3-1.6,0.6,6,1c8.2,0.5,12.6,1.2,15.9,2.6c1.1,0.5,1.9,0.8,1.9,0.9c0,0-1.5-0.1-3.3-0.3
		c-3.2-0.3-17.2,0-17.2,0.4c0,0.1,1.7,0.3,3.8,0.4c7,0.3,10.9,1.3,17.9,4.5c2.1,0.9,2.7,1.4,1.3,1c-1.2-0.4-8.2-1.3-10-1.3
		c-0.9,0-2.5-0.1-3.4-0.3c-1-0.2-3.7-0.2-6.4-0.1l-4.7,0.2l2.9,0.3c1.6,0.2,3.4,0.5,3.9,0.7c0.6,0.2,2.2,0.5,3.5,0.7
		c13.6,1.4,21.3,4.9,27.7,12.4c1.7,2,1.6,2.1-0.8,0.5c-6.2-4.1-14.6-8-19.4-9c-1.5-0.3-0.9,0,2.3,1.2c7.8,2.9,19.1,10.9,23.5,16.6
		c3.3,4.3,5.9,7.9,7.7,10.4c1.1,1.6,3.2,4.3,4.6,5.9c2.9,3.4,4.4,4.8,2.3,2.2c-1.2-1.5-4.3-7.3-6.5-12.3c-1.3-2.9-5.4-9.7-6.9-11.3
		c-0.7-0.7-2.4-3.7-4.3-7.4c-1.5-3-4.1-7.2-6.3-10.3c-1.8-2.5-9.2-8.7-14.9-12.4C313.4,206.7,305.1,204.2,298.1,205.2 M209.6,207.5
		c0.1,0.1,0.5,0.4,0.9,0.5c2.5,0.6,3.1,2.4,1.3,4.3c-0.6,0.7-0.3,0.8,0.8,0.2c1.9-1,2.7-3.3,1.5-4.4
		C213.4,207.4,209.2,206.9,209.6,207.5 M278.2,208.9c-0.6,0.2-0.6,0.1,0.5,1.6c2.8,3.7,3.7,9.1,2.3,13.7c-0.8,2.7-0.6,3.1,0.5,0.9
		c1.7-3.4,2.3-7.1,1.5-9.9c-0.6-2.1-0.2-2.8,0.7-1.3c0.9,1.4,1.1,2.5,1.3,6c0.2,4.4,1.4,5.1,1.9,1.1
		C287.5,213.4,283.3,207.5,278.2,208.9 M381.5,209.4c0,0.2,0.2,1.5,0.4,2.9c0.4,2.4,0.4,12.2,0,16.2c-0.1,0.6,0.1,0,0.4-1.3
		c1.2-5.8,1.2-10.8,0-15.7C381.7,209.4,381.5,208.8,381.5,209.4 M338.8,210.8c-1.6,0.2-7,1.8-7,2c0,0.7,2,1.4,3,1
		c1.1-0.4,5.9-1.3,8.8-1.6c2.2-0.2,2.8-0.8,1.4-1.2C343.4,210.7,340.7,210.6,338.8,210.8 M377.5,211.7c-0.4,5.6-7,17.1-11.1,19.5
		c-0.9,0.5-2.6,1.5-3.8,2.3c-2.1,1.3-4.9,2.5-6.5,2.8c-0.8,0.2-0.9,0.7-0.2,1.3c0.5,0.4,0.6,0.4,2.7-0.2c1.2-0.4,2.5-0.7,2.9-0.7
		c0.4,0,1.4-0.2,2.4-0.5c6.5-2,7.8,3.8,1.9,8.7c-4.4,3.7-4.7,4.1-3.2,3.8c4.6-0.9,11.4-8.7,13.3-15.1c0.1-0.5,0.5-1.6,0.8-2.3
		c0.5-1.1,1.4-4.8,1.4-5.4c0-0.3-1.1,2.4-1.8,4.3c-0.9,2.7-2.7,6.6-3.2,6.8c-0.9,0.3-0.9-0.4-0.1-2.2c1-2.2,2.3-6.2,2.1-6.4
		c-0.1-0.1-0.7,0.9-1.5,2.1c-2.1,3.5-3.7,4.3-2.1,1c2.6-5.2,6.6-17.6,6.2-19.5C377.6,211.5,377.5,211.4,377.5,211.7 M353.5,213.7
		c-1.5,0.1-4.5,0.1-6.7,0.1c-5.1-0.1-11.5,1.3-10.5,2.3c0.6,0.6,4.7,0.3,6.6-0.4c1.1-0.4,2.4-0.7,3.3-0.7c1.8,0,1.6,0.3-0.8,1
		c-1,0.3-1.9,0.7-2.1,0.8c-0.6,0.4,0.4,0.6,1.4,0.3c1-0.3,3.4-0.7,8.1-1.2c3-0.3,7-1.7,7-2.4C359.9,213.4,357.5,213.5,353.5,213.7
		 M199.6,219.2c0,1.1,4.4,4.7,6.5,5.3c0.3,0.1,0.8,0.4,1.1,0.7c0.3,0.3,1.7,0.9,3.1,1.4c3.1,1.1,3.1,1.1,3.4,1.9
		c0.1,0.3,0.6,0.8,1,1.1c0.4,0.3,1.7,1.1,3,1.9c1.4,0.9,3.1,1.7,4.4,2.2c1.2,0.4,2.4,0.9,2.6,1c0.2,0.2,1.3,0.5,2.4,0.7
		c1.1,0.2,2.5,0.6,3.2,0.8c3.4,1.3,4.1,1.5,5.3,1.6c0.7,0.1,1.9,0.3,2.6,0.5c1.5,0.4,5.2,0.5,6.5,0.1c1.4-0.4,1.1-1-0.7-1.2
		c-2.7-0.3-7-1.2-8.8-1.9c-1-0.4-2.1-0.7-2.4-0.7c-0.3,0-0.6-0.1-0.7-0.3c-0.1-0.2,0.2-0.3,0.7-0.3c5-0.1,5.7-0.2,6.9-0.7
		c2.1-1,1.7-1.1-3.1-1.1c-2.4,0-5.2-0.1-6.3-0.3c-1.1-0.1-2.6-0.3-3.3-0.4c-1.5-0.2-1.3-0.3,1.7-0.9c2.2-0.4,4.5-1.4,4.5-2
		c0-0.4-0.2-0.4-1-0.3c-2.4,0.5-5.8,0.6-8.6,0.4c-5.9-0.5-6.8-0.9-2.5-1.1c4.5-0.2,6.2-0.8,6.2-2c0-0.7,0.4-0.7-4.9-0.3
		c-5.5,0.4-10.5-0.2-10.5-1.2c0-0.6,0.7-0.7,4.5-0.6c3.5,0.1,4-0.1,4-0.9c0-0.1-2-0.2-4.5-0.2c-7.4,0-11.3-0.9-14.7-3.3
		C200.1,218.3,199.6,218.4,199.6,219.2 M298.5,219.3c0.3,0.1,0.9,0.1,1.2,0c0.3-0.1,0.1-0.1-0.6-0.1
		C298.4,219.1,298.1,219.2,298.5,219.3 M369,221.2c-3.4,3.6-8.5,5.5-19.1,7.3l-1.8,0.3l0.8,1c1,1.2,1.4,1.2,7.4-0.7
		c7.6-2.3,11.7-4.8,13.4-8.1C370.1,220.2,370,220.2,369,221.2 M194.8,229.4c-0.2,0.1-0.9,0.6-1.5,1.1c-0.6,0.5-1.8,1.3-2.7,1.8
		c-4.5,2.5-10.3,7.6-13.3,11.6c-1,1.4-2.2,2.9-2.6,3.4l-0.7,0.9l5.3-0.2c16.6-0.5,14.9-0.1,16.8-3.7c1.5-2.8,3.3-5.5,5.1-7.6
		c1.3-1.6,1.4-1.8,1-2.1c-0.5-0.5-1.3,0.1-3.9,3c-5,5.5-5.3,3.6-0.4-3.1c0.8-1.1,1.5-2.2,1.6-2.3c0.1-0.3-3.5-3-3.9-2.9
		C195.3,229.2,195,229.3,194.8,229.4 M266.1,234.8c-0.2,0.3,0.7,1.8,2,3.4c1.5,1.7,1.2,2.3-2.2,3.7c-2.1,0.9-2.8,1.7-1.3,1.4
		c5.8-1,6.9-1.5,6.9-3.2C271.6,237.7,267.1,233.3,266.1,234.8 M258.9,235.3c-2.7,0.7-3.6,1-4.3,1.7c-0.7,0.7-0.8,1.7-0.1,1.4
		c0.3-0.1,1-0.3,1.7-0.4c4.7-0.9,7-1.8,6.8-2.6C262.9,234.7,261.5,234.7,258.9,235.3 M254.9,240.8c-0.1,0.2-0.3,0.3-0.4,0.3
		c-0.9-0.6-0.3,0.7,0.9,1.9c1.8,1.8,2.7,2.3,3.7,2.1c1.2-0.2,1.1-0.6-0.3-2.2C256.8,240.6,255.3,239.8,254.9,240.8 M250.3,243.1
		c-0.7,0.1-2,0.2-3.1,0.1l-1.9-0.1l0.9,0.8c2.1,1.8,6.7,2.7,7.8,1.6c0.3-0.3-1.8-2.7-2.3-2.7C251.6,242.8,250.9,243,250.3,243.1
		 M229.1,245.6c-1.6,1.1-4.9,4.3-4.9,4.8c0,0.2,1.5,0.7,3.7,1.3c4.1,1.1,4.1,1.1,4.1,0.6c0-0.6,1.1-2.4,2.2-3.7
		c1.3-1.6,1.4-1.3-1-2.7C230.5,244.4,230.7,244.5,229.1,245.6 M130.9,246.9c-2.5,0.9-10.6,9-15.3,15.5c-0.8,1-1.4,2-1.4,2.1
		c0,0.1-0.7,1.2-1.6,2.4c-1.4,1.9-3.5,5-4.2,6.3c-0.7,1.3,1.4-1.3,3.5-4.1c5.7-7.8,11.7-13.3,16.8-15.4c1.1-0.4,1.7-1.2,1.6-1.8
		c-0.1-0.4,0.1-0.5,0.5-0.4c0.3,0,0.9,0.1,1.2,0.1c0.8,0.1,1-1,0.3-1.7c-0.4-0.4-0.4-0.5,0.4-0.6c2-0.4,2.1,1.2,0.2,4.3
		c-0.8,1.3-1.8,3.1-2.3,3.9c-0.5,0.9-1.6,2.4-2.5,3.5c-0.9,1-2.5,3-3.6,4.3c-3.2,3.9-11.5,12.3-12.7,13c-0.6,0.3-1.9,0.7-2.8,0.9
		l-1.7,0.4l1,0.4c2.9,1.2,4.5,0.7,9.7-3.3c5.8-4.5,18.7-22,19.5-26.5C138.1,247.6,134.3,245.8,130.9,246.9 M274.7,249.1
		c-2.1,0.3-4.3,0.7-4.9,0.9s-3.6,0.6-6.5,1.1c-6.1,0.9-5.8,0.8-4.6,1.6c0.5,0.3,2.3,1.9,4.1,3.6c6.9,6.4,19.9,17.1,23.4,19.4
		c0.8,0.5,3.5,2.3,6,3.9c4.2,2.7,8.4,5.1,10,5.5c0.4,0.1-1.3-1.2-3.6-2.9c-9.6-7.1-24.7-20.8-26.7-24.4c-2.4-4.1,0.3-6.2,5.1-4.1
		c1.1,0.5,9.5,6,16.3,10.8c7.5,5.3,10.9,7.3,19.5,11.4c13.3,6.4,15.8,7.1,25,7.1c3.9,0,3.8-0.2-0.1-0.7c-8-1.1-14.4-4.1-27-12.8
		c-1.1-0.8-2.8-1.7-3.7-2.2c-1.6-0.7-3.3-1.9-8-5.6c-1.1-0.9-2.8-2.1-3.7-2.8c-2.5-1.8-5.7-4.5-6.8-5.7
		C284.7,249.1,281.2,248,274.7,249.1 M176.7,250.3l-2.3,0.1l2.1,0.2c1.2,0.1,4.3,0.4,6.9,0.7c2.6,0.3,6.1,0.6,7.6,0.8
		c2.6,0.2,4.8,0.5,11.1,1.4c5.9,0.9,14.7,2.9,20,4.6c7.5,2.4,8.5,2.7,8.8,2.2c0.3-0.4-4.2-2.1-8.4-3.2c-0.7-0.2-1.3-0.4-1.5-0.6
		c-0.2-0.1-0.4-0.2-0.5-0.1c-0.1,0.1-1-0.1-1.9-0.3c-0.9-0.3-3.3-0.9-5.1-1.4c-6.5-1.8-13.8-3.1-20.1-3.4c-2.3-0.1-5.3-0.4-6.5-0.6
		C184.2,250.2,179.9,250.1,176.7,250.3 M168,252.9c-0.8,0.1-1.6,0.4-1.9,0.6c-0.5,0.5-3.9,7.1-3.8,7.2c0.1,0,1.6,0.2,3.4,0.4
		c8.3,0.8,13.4,1.5,23.5,3.1c11.6,1.9,11.5,1.8,21.7,5.1c6.5,2.1,9.3,3.1,13.6,4.8c1.3,0.5,2.9,0.9,4.3,1.1l2.2,0.2l0.9-1
		c1.4-1.6,1.5-3,0.2-3c-2,0-2.8-1.2-2.2-3.1c0.5-1.4,1.3-2,3.3-2c1,0,2.2-1,2.2-1.8c0-0.5-5.5-2.6-7.6-2.9c-0.5-0.1-2.7-0.7-4.8-1.3
		c-4.9-1.5-18-4.4-18.3-4c-0.1,0.2-0.7,0.2-1.9,0C182.5,253,174.3,252.1,168,252.9 M141.1,253.4c-0.1,0.1-0.2,0.6-0.2,1.1
		c0,2.8-1.5,7.1-3.3,9.3c-0.6,0.7-1.4,1.8-1.9,2.4c-1.1,1.5-4.5,5.5-5.3,6.3c-1.6,1.5-6.8,7.9-6.8,8.3c0,0.8,7.1-5.9,11.4-10.7
		c5.6-6.4,6.8-8,8-11.2c0.4-1,0.4-1,0.4-0.2c0.1,2.8-2.7,8.5-6.4,13.1c-3.8,4.8-6.3,7.6-7.7,8.8c-1.4,1.2-1.9,2.2-0.9,1.8
		c2.6-1,10.2-8.6,13.2-13.2c1.6-2.5,2.8-4.6,3.5-6.3l0.5-1.2l2.1,3.3c2.1,3.3,2.5,3.8,2.9,3.6c0.3-0.2-0.3-1.4-1.5-3.4
		c-0.5-0.9-1.5-3-2.2-4.7C145.2,256.1,142.1,252.4,141.1,253.4 M222.6,255.3c-0.3,0.2-0.2,0.3,0.4,0.4c3.1,0.8,13.7,5.2,15,6.2
		c0.1,0-0.1,1-0.4,2.1c-0.7,3.2,0.3,3.3,1.4,0.2c0.7-1.8,0.7-3.1,0.1-3.6C236.2,258.1,224.2,254.2,222.6,255.3 M213.5,262.7
		c1,1.2-0.1,3.3-1.6,2.9c-1.1-0.2-1.5-0.8-1.3-1.9C210.9,262.4,212.7,261.7,213.5,262.7 M219.9,264.3c1.4,1.8-0.8,3.9-2.6,2.6
		c-0.5-0.4-0.6-0.6-0.5-1.3C217.2,263.6,218.7,262.9,219.9,264.3 M165.4,264.3c-0.1,0.1-1.1,0.3-2.2,0.4c-3.7,0.5-2.7,0.7,2.9,0.6
		c10.1-0.2,22.9,2,38.1,6.5c3,0.9,8,2.2,11.4,3c0.9,0.2,3,0.7,4.5,1.2s3.4,0.9,4.2,0.9l1.4,0.1l-1.3-0.6c-1.7-0.8-6.4-2.5-8.7-3.1
		c-1-0.3-2.9-0.8-4.4-1.3c-4-1.2-7.6-2.1-11.7-3c-2.1-0.4-4.7-1.1-5.9-1.5c-1.2-0.4-3.5-0.9-5.1-1.2c-1.6-0.3-4.3-0.8-5.9-1
		c-2-0.3-4.8-0.6-8.3-0.7c-2.9-0.1-6.1-0.2-7-0.3C166.3,264.2,165.5,264.2,165.4,264.3 M245.2,264.5c0,0,0.1,0.4,0.2,0.9
		c0.1,0.5,0.1,1.5-0.1,2.7c-0.3,1.8-0.3,1.9,0.2,2.4c1.5,1.3,1.3,3.3-0.4,3.9c-0.9,0.3-1.3,0.6-1.9,1.8c-0.9,1.8-1.4,1.5,5.5,3.2
		c6.1,1.5,6.6,1.5,9.5,0.5c1.7-0.6,2-0.6,1.6-0.2c-1.7,2.1-9.7,3.5-13.3,2.3c-3.4-1.1-3.8-0.2-0.6,1.3c3.9,1.9,8.5,1.3,14.6-1.9
		c3.5-1.8,3.9-2.5,3.3-4.9c-0.2-0.9-0.4-2.2-0.4-2.8c0-1.1-0.9-3.4-1.8-4.3c-0.2-0.2-0.4-0.6-0.4-0.8c0-1.1-4-2.1-8.5-2.1
		c-1.5,0-4.2-0.8-5.6-1.6C246.5,264.5,245.2,264.2,245.2,264.5 M226,266c0.7,1.4,0,2.7-1.5,2.7c-1.7,0-2.4-2.1-1.1-3.2
		C224.3,264.9,225.5,265.1,226,266 M237.6,267.8c-0.1,0.1-1.4,0.2-2.9,0.3c-1.5,0-2.8,0.1-2.8,0.2c-0.4,0.4,0.6,0.9,1.5,0.9
		c0.5,0,1.6,0.1,2.4,0.3c0.8,0.2,1.9,0.3,2.6,0.3c0.8,0,1.3,0.2,1.6,0.5c1,1.1,2.1,0.4,1.6-1C241.2,268.1,238.4,267.1,237.6,267.8
		 M157.9,269.6c-1.6,0.7-5.7,5.8-5.7,7.1c0,0.6,0.1,0.6,1,0.5c0.6-0.1,2.1-0.3,3.4-0.4c1.3-0.2,4.7-0.6,7.6-1
		c2.9-0.4,8.6-0.9,12.9-1.1c10.7-0.5,10.5-0.5,5.5-1.7c-2.3-0.6-5.6-1.3-7.5-1.6c-1.8-0.3-4.1-0.7-5.2-0.9c-1.6-0.3-3.1-0.5-9.7-1.1
		C159.2,269.2,158.4,269.3,157.9,269.6 M234.2,274.4c-1.7,3.5-2.3,4-5.1,4.2c-1.9,0.2-7-0.1-8.9-0.5c-1.5-0.3-0.5,0.1,1.9,0.8
		c2.2,0.6,5.9,1.2,8.8,1.3c1.7,0.1,2.6-0.8,4.3-4.2c1.5-3,1.7-4.2,0.8-4.4C235.8,271.6,235.3,272.3,234.2,274.4 M184.8,276.4
		c-7,0.7-11.2,1-13.1,1c-1.2,0-3.8,0.2-5.7,0.5c-4.8,0.7-10.5,1.3-11.9,1.3c-2.6,0-7.2,1.2-6.7,1.7c0.1,0.1,1.2,0,2.4-0.1
		c1.2-0.1,4.5-0.4,7.2-0.5c5.6-0.3,6.7-0.4,11.8-1.1c2-0.3,6.9-0.7,10.8-0.9c3.9-0.2,8.3-0.5,9.7-0.7c1.4-0.1,3.7-0.3,5.1-0.4
		l2.5-0.2l-1.9-0.5C192.9,276.1,188.8,276,184.8,276.4 M118.5,279.6c-3.3,2.9-6.4,3.6-9.7,2.4c-1.6-0.6-2-0.3-1.1,0.7
		c0.3,0.4,1.4,1.9,2.4,3.3c1,1.4,2.4,3.4,3.1,4.5c0.8,1.1,2.3,3.7,3.4,5.7c2.1,3.7,3.6,5.7,4.1,5.4c0.5-0.3,0.3-1.1-1-3
		c-0.7-1-2-3.1-2.9-4.6l-1.7-2.8l1.4-0.6c3.7-1.5,5.3-3.5,1.8-2.3c-2.1,0.7-4.1,0.9-4.6,0.6c-0.2-0.2-0.3-0.3-0.1-0.4
		c2.6-1.1,2.6-2.6,0-1.9c-1.1,0.3-1.2,0.3-1.7-0.3l-0.5-0.6l2.9-1.4c3.4-1.6,4.5-2.4,5.4-3.9C121,278.4,120.4,277.9,118.5,279.6
		 M239.6,283.1c0,0.4,1.5,1.3,4.7,2.8c2.6,1.3,4.3,2.2,7.2,3.9c1.9,1.1,2.2,1,2.2-0.3c0-1.3-0.4-1.5-4.5-2.9
		c-1.4-0.5-3.2-1.2-4.1-1.6C242.4,283.5,239.6,282.6,239.6,283.1 M150.1,284.6c-1.1,0.2-4.9,4.6-7.6,8.6c-1.1,1.7-3.1,4.3-4.3,5.9
		c-3.4,4.2-4.7,6-7.5,10c-1.4,2-3.3,4.4-4.2,5.3c-1.9,1.9-5.8,5.4-5.4,4.7c0.8-1.2,2.5-3.2,3.8-4.5c0.8-0.8,1.4-1.6,1.4-1.7
		s0.5-0.7,1-1.4c0.6-0.6,1.5-2,2.2-3.1c1.3-2.1,4.6-7.1,6.1-9.2c0.5-0.7,1.6-2.3,2.4-3.5l1.4-2.1l-1.7,1.9
		c-3.3,3.6-6.1,7.2-8.5,10.9c-2.4,3.9-5.4,7.1-8.4,9.4c-0.7,0.5-2.7,2.1-4.4,3.5c-4.3,3.6-5.1,4.3-5.3,4.3c-0.1,0-0.9,0.9-1.8,1.9
		c-0.9,1.1-3,3.4-4.8,5.3s-4.2,4.7-5.5,6.4c-1.3,1.7-2.9,3.6-3.6,4.2c-2.2,1.9-3.6,3.3-4.7,4.9c-0.6,0.8-2.3,3-3.7,4.9
		c-2.3,3-5.2,7.3-9.3,13.6c-0.7,1.1-2.3,3.7-3.6,5.9c-1.3,2.2-2.8,4.6-3.3,5.3c-1,1.3-1.7,2.5-3.1,5.1c-0.4,0.7-0.5,1-0.2,0.6
		c0.3-0.4,0.9-1.2,1.4-1.9c0.5-0.7,2.6-3.7,4.6-6.7c2-3,4-5.8,4.5-6.3c0.4-0.4,1.9-2.4,3.4-4.4c10.8-14.9,12.8-16.7,5.2-4.6
		c-2.5,3.9-6.8,10.5-9.5,14.7c-2.8,4.1-5.7,8.6-6.5,9.9c-1.8,2.9-1.7,2.8-1.5,2.8c0.1,0,0.9-1.2,1.8-2.6c2.4-3.7,8.1-11.6,10-13.9
		c0.9-1.1,2.4-3.1,3.3-4.4c0.9-1.3,2.4-3.2,3.3-4.3c0.9-1,2.1-2.5,2.7-3.2c0.6-0.7,2.5-3,4.3-5.1c1.8-2.1,4.4-5.2,5.8-6.9
		c2.6-3.2,3.4-4,7-7.9c1-1.1,2.8-3,3.9-4.3c1.1-1.2,4.4-4.7,7.3-7.7c4.7-4.8,6.7-6.7,12.7-12.2c0.8-0.7,2.8-2.9,4.5-4.8
		c3.7-4.1,18.2-18.9,21.1-21.5l2-1.8l-1.6-0.2C155.2,284.4,151.2,284.4,150.1,284.6 M171.7,287.9c-9.7,4.9-10,5.2-8.9,7l0.6,1
		l-0.5,1.3c-1.7,4.4-6.7,5.7-8.3,2l-0.5-1l-1.6,0.8c-1.5,0.8-6.1,5.2-8.4,7.9c-0.4,0.5-1.8,1.9-3,3.2c-1.2,1.2-3.3,3.5-4.6,5.1
		c-2.3,2.7-5,5.4-5,4.9c0-0.3,1.2-2,2.7-4c1.3-1.6,2.6-3.7,2.6-4c0-0.2-4.2,4.1-6,6.1c-2.1,2.4-5.1,6.4-7,9.5
		c-4.6,7.3-9.8,14.6-10.5,14.9c-0.5,0.2-0.3-0.6,0.7-2c1.2-1.8,4-7.1,3.6-6.9c-0.2,0.1-1.2,1.5-2.3,3c-1.1,1.6-2.4,3.4-2.9,4
		c-0.5,0.6-1.4,1.8-2,2.7c-0.6,0.8-1.7,2.3-2.5,3.3s-1.6,2.3-1.9,2.9c-0.3,0.7-1,1.7-1.5,2.2c-2.6,2.9,1.3,4.9,7.4,3.7
		c3.4-0.7,1.8,0.8-2.2,2.1c-1.2,0.4-5.2,0.5-7,0.2c-1.7-0.3-2.2,0.2-1.4,1.2c1.1,1.4,11.2,0.6,14.4-1.1c0.6-0.3,1.5-0.7,1.8-0.8
		c0.4-0.1,1.1-0.7,1.8-1.7c1.9-2.5,11.5-17.2,11.5-17.5c0-0.3,5.3-7.4,8-10.6c2.4-2.8,9.4-10.4,15.6-16.8c4.4-4.5,9.3-10,12.2-13.4
		c1-1.2,2.9-3.3,4.3-4.7s2.9-3.1,3.3-3.7c0.5-0.7,1.3-1.5,1.8-2c0.8-0.6,1.7-1.8,1.4-1.8C177.6,284.9,175,286.3,171.7,287.9
		 M205.1,286.2c-0.8,0.8-2.9,8.2-3.4,11.9c-0.1,0.9-0.4,2-0.5,2.5c-0.3,1-0.7,4-1.5,10.8c-0.8,6.4-0.7,25,0.1,31.5
		c0.3,2.6,0.8,6.6,1,8.8c0.7,6.5,1.7,11.6,3.9,19.4c0.3,1,0.9,2.3,1.3,2.9c0.4,0.6,0.8,1.2,0.8,1.4c0,0.2,0.3,0.6,0.6,0.9
		c0.5,0.6,0.5,0.6,0.4,0.1c-2.2-8.2-3-19.7-2.4-32.9c0.2-4.5,0.5-11.8,0.6-16.3c0.2-5.8,0.4-9.2,0.8-11.9c0.3-2.1,0.6-5.2,0.7-7.1
		c0.2-5.4,1-9,3.5-16.2c0.8-2.4,1.5-4.7,1.5-5.1v-0.7l-0.6,0.7c-1.8,1.8-5.8,12.9-6.4,17.8c-0.2,1.6-0.7,5.7-1.2,9
		c-0.5,3.4-1.1,8.9-1.3,12.3l-0.5,6.1l0-8.3c0-4.5,0.1-9.3,0.2-10.5c0.1-1.2,0.4-4.4,0.5-7.1c0.1-2.6,0.4-5.3,0.5-5.9
		c0.1-0.6,0.3-1.6,0.3-2.2c0-1.2,1.1-7.5,1.7-10.3C206,286.2,205.8,285.4,205.1,286.2 M264.5,287c-0.3,0.1-0.7,0.2-0.8,0.1
		c-1.8-0.7-5.4,2.1-5.4,4.1c0,0.4-0.2,1.7-0.5,2.9c-0.3,1.2-0.6,3.7-0.8,5.6c-0.1,1.9-0.5,5.8-0.7,8.7c-0.9,10.6-0.4,15.3,1.8,16.4
		c1.3,0.7,3.5,0.4,4.6-0.6c1.3-1.3,3.7-10.3,3.7-13.9v-0.9l1.2,1c3,2.7,8.3,4.8,9.3,3.7c0.4-0.3,0.7-0.4,2.1-0.1
		c1.8,0.3,4.2,0.1,3.4-0.3c-0.2-0.1-1.2-0.4-2.2-0.5c-1-0.2-2.8-0.7-4.1-1.2s-2.5-0.9-2.7-0.8c-1,0.3-6.1-5.4-7-8
		c-0.3-0.9-0.8-2-1-2.4c-0.8-1.4-1.6-7-1.1-8.5c0.2-0.7,0.4-0.4,1.8,2.9c3.4,8,6.6,11.9,11.2,13.6c1,0.4,2.4,0.9,3,1.2
		c4.8,2.1,8.5-2.3,6.8-7.9c-0.8-2.5-1.1-2.2-1.1,1.1c0.1,4-0.7,5-3.4,4.4c-0.6-0.1-1.3-0.2-1.4-0.1c-0.6,0.4-3.8-1.2-5.4-2.6
		c-1.7-1.6-3.7-5.2-5.8-10.4c-0.6-1.5-1.4-3.2-1.6-3.8c-0.3-0.6-0.5-1.1-0.4-1.2c0.2-0.2,4.4,1,8.8,2.5c6.5,2.3,8,2.6,7.1,1.5
		c-1.1-1.3-11.6-5.6-15.6-6.4C265.7,286.8,265.3,286.7,264.5,287 M136.6,290.7c-1.8,1.7-6,5.8-9.2,9c-5,5-6.3,6.2-8.9,7.9
		c-6.4,4.2-15.5,11.7-15,12.2c0.3,0.3,5.2,1.8,5.9,1.8c0.7,0,2.9-1.5,5.4-3.7c1.1-1,3.3-2.9,5-4.2c4.8-4,6.2-5.6,8.5-9.7
		c0.5-1,2.2-3.3,3.7-5.2c1.5-1.9,3.3-4.2,3.9-5.2s1.9-2.7,2.8-3.9C140.9,287,140.4,287.2,136.6,290.7 M215,288.2
		c-1.5,0.9-2.1,2.9-4,13.7c-2,11.3-2.2,14.6-1.5,26.9c0.1,2.3,0.3,6.9,0.4,10.1c0.3,11.2,2.5,22.6,6.2,31.7c1.7,4.2,2.3,4.7,7.2,5.8
		c1.4,0.3,4,0.9,5.8,1.3c5.2,1.3,6.7,0.8,7.2-2.3c0.3-1.8-0.5-9.1-1.4-13.3l-0.8-3.5l-0.1,6.8c-0.1,3.8-0.2,6.9-0.3,7
		c-0.3,0.3-1-3.2-1.3-6.1c-0.1-1.4-0.4-3.1-0.5-3.7c-0.1-0.7-0.3-5.3-0.4-10.2c-0.1-7.6-0.6-15.1-1-15.5c-0.1-0.1-0.2,1-0.3,2.2
		c-0.1,1.3-0.3,3.5-0.5,5c-0.4,3.2-0.4,12.3-0.1,17.1c0.3,3.8,0.1,6-0.5,6c-0.2,0-0.4-0.4-0.5-1.3c-0.1-0.7-0.3-2-0.4-3
		c-0.9-5.9-1.3-10.4-1.3-14.4c0-7.3,0.2-20.1,0.4-20.5c0.1-0.2,0.3-1.8,0.4-3.6c0.2-1.8,0.4-4.5,0.6-6c0.2-1.5,0.3-5.5,0.3-8.8
		c0-7.3,0.3-13,1.1-16.8c0.6-3,0.5-4-0.4-4c-0.6,0-1.5,3.7-2.2,9c-0.3,2-0.6,1.7-0.6-0.5c0-2-0.4-3.2-0.7-2.2
		c-0.1,0.3-0.3,0.9-0.5,1.3c-0.2,0.4-0.4,1-0.5,1.3c-0.5,1.5-1.3-2.6-1-5.2c0.2-2-0.2-1.9-0.7,0.1c-1.4,5.6-2.4,4.9-2.4-1.6
		c0-3.5,0-3.6-2.7-3.6C216.5,287.6,215.7,287.8,215,288.2 M188,289.3c-0.4,0.6-0.5,0.6-1,0.3c-1-0.7-1.4-0.5-5.3,1.8
		c-2,1.2-2.8,2.4-4.1,6.3l-0.7,2.2l0.8,1.7c0.5,0.9,1.4,2.5,2.1,3.4c0.7,1,1.5,2.2,1.8,2.9c0.9,1.9,2.2,1.8,6.8-0.2
		c5.2-2.3,7.7-3.8,7.8-4.6c0.1-0.9,0.2-0.9-1.9,0.2c-2.5,1.3-3.3,1.3-1.8-0.1c0.8-0.7,1.2-1.3,1.3-2l0.2-1l-1.4,0.7
		c-2.2,1.1-1.7,0.2,1.4-2.5c0.9-0.8,1.2-1.1,0.8-1.1c-0.3,0-0.7,0-0.9-0.1c-0.2-0.1-0.8,0.1-1.6,0.7c-1.3,0.9-1.9,1.2-1.9,0.7
		c0-0.1,1.1-1.4,2.5-2.8c3.1-3.2,2.8-3.9-0.4-1.2c-0.7,0.6-1.3,1-1.4,1c-0.1,0-0.7,0.4-1.4,0.8c-1.4,1-1.7,0.9-1-0.4
		c0.5-0.8,0.5-0.9,0.1-1.2c-0.5-0.3-0.5-1.2-0.2-4.3C189,288.5,188.8,288.1,188,289.3 M238.9,292.7c-0.1,0.4,0,1,0.1,1.4
		c0.2,0.4,0.2,0.9,0,1.7c-4.7,18.9,3.6,71.8,13.9,89c0.5,0.9,1.5,2.6,3.3,6.1c2.1,4,2.1,2.3,0-1.9c-4.5-9.1-7.4-18.8-9.6-32.4
		c-0.4-2.3-0.9-5-1.1-6c-0.6-2.7-1.6-12-1.8-15.9c-0.1-1.8-0.2-4.1-0.3-5.1l-0.1-1.7l0.4,2c0.2,1.1,0.6,3.7,0.8,5.8
		c0.2,2.1,0.5,3.9,0.5,4.1c0.1,0.2,0.5,2.5,0.9,5.1c1.7,10,4.1,17.8,7.6,24.2c0.5,1,2.7,5.4,4.9,9.9c4.7,9.6,7.8,14.5,11.2,17.7
		l0.8,0.8l-1.1-2c-0.6-1.1-2-3.3-3-4.8c-2.1-3.3-5-8.9-6.6-12.7c-1-2.5-2.7-6.4-5.5-12.7c-1.9-4.3-4.9-15.2-4.9-17.9
		c0-0.3-0.3-2.7-0.8-5.3c-0.4-2.6-0.8-5.8-0.9-7.1c-0.1-1.3-0.4-3.9-0.7-5.6c-0.3-1.7-0.6-4.4-0.8-5.9c-0.3-3-0.4-22.5-0.1-26.5
		c0.2-3.1,0.1-3.2-4-4.2C238.9,291.8,239.1,291.8,238.9,292.7 M291.9,295l-0.6,0.5l2.4,0.6c6.3,1.5,7.4,5.1,4.7,15.2
		c-0.1,0.5-0.1,0.6,0.1,0.4c0.8-0.7,3-8.6,3.5-12.4c0.4-2.7,0.2-3.1-1.7-3.4c-0.9-0.2-2.2-0.5-3-0.7
		C294.6,294.5,292.6,294.4,291.9,295 M157.8,296.6c-0.7,0.9-0.7,1.6,0.1,2.1c1.1,0.8,2.8-0.3,2.8-1.9
		C160.7,295.7,158.6,295.5,157.8,296.6 M222.7,298.8c3.9,2.7,3.9,8.6-0.1,10c-2.9,1-6.7-2.2-6.7-5.6
		C215.9,299,219.5,296.6,222.7,298.8 M278.4,298.5c-1.5,0.6-1.9,3.1-0.7,4.5c1.8,2.1,4.8-0.9,3.3-3.4
		C280.1,298.4,279.5,298.1,278.4,298.5 M218.5,300.6c-1.7,0.3-2.1,1.8-0.8,3.5c1.6,2.3,4.5,1.5,4.5-1.2
		C222.3,301.1,220.7,300.2,218.5,300.6 M172.5,300.9c-1,0.7-5.4,8.9-5.4,10.1c0,2,10.3,14.4,12.4,15c0.5,0.1,0.9,0,1.4-0.4
		c1.8-1.4,6.9-3.9,9.8-5c4.1-1.5,5.7-2.6,5.7-4c0-0.5-0.1-0.5-3.3,0.8c-2.8,1.2-3.5,1.1-1.5-0.1c2.4-1.5,3.4-2.4,3.4-3.1v-0.6
		l-1,0.7c-0.9,0.6-2.8,1.5-3.1,1.5c-0.5,0,0.2-0.8,1.9-2.2c2.8-2.3,2.9-3.2,0.1-1.8c-3.8,1.9-4,1.4-0.5-1.1c2.3-1.7,2.8-2.2,2-2.5
		c-0.4-0.2-7.7,2.2-10.9,3.5l-2,0.9l-0.8-1.6c-0.5-0.9-1.6-2.5-2.4-3.6c-0.9-1.1-2.3-3-3.2-4.2C173.5,300.7,173.1,300.5,172.5,300.9
		 M150.8,308.4c0.2,0.3,0.5,0.6,0.7,0.6c1.5,0-2,3.9-4.9,5.3c-2.2,1.1-3.4,0.5-3.1-1.4c0.3-2,0.5-2.1,1.6-1.4
		c2.1,1.4,4.2-0.9,2.5-2.8c-0.8-0.8-0.3-1.1,1.5-1C150,307.8,150.5,307.9,150.8,308.4 M221,314.4c3.7,0.9,5.5,5.3,3.2,8.1
		c-2.4,2.9-6.9,2.3-8.8-1.3c-0.5-1-0.5-1,0.6-0.5c2.6,1.3,5.1-0.6,4.4-3.5c-0.5-1.9-2.2-2.7-4.1-1.7l-0.9,0.4l1-0.9
		C217.6,313.9,218.4,313.8,221,314.4 M282.2,320.7c-1,2.1-3,4.4-4.7,5.3l-0.9,0.5l1.1,0c2.9,0,5.7-3.5,5.3-6.5
		C282.9,319.2,282.9,319.3,282.2,320.7 M292.9,320.8c0,1.1,3.2,5.8,5.5,8c2.9,2.9,3.1,2.5,0.9-1.5c-2.5-4.6-2.1-4.5,2.2,0.6
		c4.2,4.9,4.2,4.9,5.2,4.7c1-0.2,1-0.3,0-1.7c-1.4-1.8-5-7.4-5.6-8.7l-0.6-1.1l-1.6,0c-0.9,0-2.6-0.1-3.8-0.2
		S292.9,320.7,292.9,320.8 M98.1,322.2c-1,0.7-0.8,0.8,2,1.4c1.4,0.3,3,0.8,3.4,1.1c1.4,0.8,2.1,0.9,2.8,0.1
		c0.9-0.9,0.6-1.1-3.2-2.1C99.3,321.6,98.9,321.6,98.1,322.2 M135.5,324.2c2.9,1,0.6,6.9-2.7,6.9c-1.6,0-2.9-1.1-2.6-2.2
		c0.1-0.6,0.3-0.7,1.1-0.7c1.3,0,2.8-1.2,2.8-2.2c0-0.9-0.5-1.5-1.2-1.5c-0.5,0-0.5-0.1-0.2-0.3
		C133.2,323.8,134.5,323.8,135.5,324.2 M92.1,326.7c-5.4,4.1-5.4,4.6,0,5.9c2.6,0.6,2.7,0.7,2.3,1.3c-0.3,0.5-0.5,0.4-3.4-0.3
		c-5-1.3-4.8-1.3-5.8-0.1c-1.3,1.6-0.9,2,3.3,2.7c1.6,0.3,3.5,0.6,4.2,0.8c1.6,0.4,1.9,0.2,4.1-2.3c0.9-1,2.8-3.1,4.4-4.7
		c2.4-2.5,2.7-2.9,2.1-2.8c-0.4,0.1-0.9-0.1-1.3-0.4c-0.4-0.3-1.2-0.6-2.5-0.7c-1.1-0.1-2.6-0.4-3.4-0.6c-0.8-0.2-1.5-0.4-1.6-0.4
		C94.5,324.9,93.4,325.7,92.1,326.7 M249.3,325.6c-2.7,1.1,9.9,11.7,14.2,11.9c1.9,0.1,1.5-0.7-1.4-2.5c-2.7-1.6-5.3-3.7-9-7.3
		C250.7,325.6,250.1,325.3,249.3,325.6 M221.5,329.7c3.8,1,4.5,7.3,1.1,9.4c-3.1,1.9-7.3,0-7.3-3.4V335l0.7,0.6
		c1.8,1.7,4.9,0.4,4.9-2.1c0-1.3-0.8-2.3-2.2-2.8l-1-0.4l0.8-0.4C219.3,329.4,220.2,329.4,221.5,329.7 M314,335.9
		c-0.4,0.1-1.4,0.4-2.3,0.7c-2,0.6-2.3,0.8-2.2,1.7c0.1,0.5,0.2,0.7,0.6,0.6c0.3,0,0.9-0.1,1.3-0.2c0.6-0.1,1.5,0.2,3.7,1.3
		c4.5,2.2,6.6,4,8.1,6.7c0.3,0.6,1,1.4,1.5,1.8c0.5,0.5,1.1,1.2,1.4,1.6c0.5,1,0.9,0.6,0.9-1c0-1.8-0.7-3.3-2.2-4.8
		c-0.8-0.7-2.5-2.5-3.8-4C317.3,336.1,315.9,335.2,314,335.9 M265.7,338.7c-0.4,0.4-0.2,2.9,0.4,8c0.2,1.7,0.3,3.9,0.2,5.2
		c-0.2,3,0.9,4.1,2.4,2.3c0.7-0.8,0.5-5.4-0.5-14C268,338.5,266.6,337.6,265.7,338.7 M122.2,340c0.1,0.2,0.4,0.4,0.7,0.4
		c1.6,0-0.6,5-2.9,6.4c-1.6,1.1-3.3,0.4-3.3-1.4c0-1.7,0.6-2.4,1.3-1.4c1.4,1.8,4.4-0.7,3.1-2.6c-0.2-0.4-0.7-0.7-1-0.7
		c-0.9,0-0.6-0.4,0.5-0.7C122,339.6,122,339.6,122.2,340 M294.7,340.8c-0.6,0.9-0.4,1.2,2,2.4c1.9,1,3.2,2.8,4.1,5.7
		c0.6,2,2.2,6,2.6,6.3c0.9,1,1.3-3.1,0.5-5.6c-0.1-0.4-0.6-2-1.1-3.5c-1-3.1-1.7-4.1-3.9-5.1C296.9,340,295.2,339.9,294.7,340.8
		 M284.2,341.5c-0.9,1-0.3,1.9,1.8,2.5c2.1,0.6,2.6,1.4,5.5,8.9c2.3,5.9,2.7,6.3,2.5,2.4c-0.2-4.9-3.1-12.3-5.2-13.3
		C287.3,341.3,284.7,341,284.2,341.5 M78.7,343.7c-3.1,3.3-5.9,6.8-6.9,8.8c-0.5,1-1.7,2.7-2.5,3.8c-0.8,1.1-2.4,3.1-3.5,4.5
		c-1.1,1.4-2.5,3.2-3.1,4c-1.3,1.5-2.1,2.8-5.2,8.6c-1.9,3.4-2.9,6.2-1.5,3.8c1.6-2.5,3.5-5.3,4.5-6.7c0.6-0.8,2.3-2.9,3.6-4.7
		c3.1-4,4.4-5.5,4.5-5.4c0.2,0.2-2.9,5.3-5.6,9.5c-2.3,3.5-5.9,10.1-5.7,10.3c0.5,0.5,0.8,0.1,5.9-7.6c4.1-6.2,6.3-9.3,7.6-10.5
		c1.2-1.2,1-0.4-0.7,2.6c-1.5,2.7-3.8,6.7-6.1,10.6c-2.3,4-1.6,3.1,5.7-7.4c1.4-2,3.3-4.6,4.2-5.6c1.5-1.8,5.2-6.3,8.5-10.6
		c1.8-2.2,5-5.6,6.6-6.8c1.1-0.9,1.2-1.7,0.1-1.7c-0.3,0-0.7-0.1-0.9-0.2c-0.6-0.6-4-1.4-5.8-1.4h-1.9L78.7,343.7 M221.6,347.8
		c4.1,2.7,4.9,7,1.8,9.4c-2.8,2.2-7.8-0.8-7.8-4.6v-1l0.5,0.7c1,1.3,3,1.2,3.9-0.2c1.2-1.9,0.6-3.6-1.5-3.9l-1.2-0.2l0.9-0.4
		C219.6,346.9,220.4,347,221.6,347.8 M330.7,359l-1.8,0.9l0.4,0.7c0.6,1.1,8,8.2,13.5,13c2.7,2.3,5.9,5.1,7.1,6.2
		c1.2,1.1,3.4,2.9,4.9,4c1.5,1.1,5.5,4.1,8.8,6.6c3.3,2.5,6.9,5,8,5.7c1.1,0.6,2.8,1.7,3.7,2.4c1.5,1.1,2,1.2,1.5,0.5
		c-0.3-0.5-3.8-3.3-6.5-5.3c-1.4-1-3.4-2.7-4.6-3.7c-1.2-1-2.8-2.5-3.8-3.3c-7.5-6.5-23.5-22.2-27.1-26.5
		C332.9,357.7,333.1,357.7,330.7,359"/>
</g>
</svg>
