<svg xmlns="http://www.w3.org/2000/svg" viewBox="0 0 500 500"><path fill="#FFF" d="M428.2 183.7l-.2.2.2-.2zM412.9 337.5l-.4-.3c0 .3.2.3.4.3zM444.1 380.8l-.4.8-.4.7.8-1.5z"/><path fill="#FFF" d="M451.7 308.1l.5-5.3.2-1.4.1-1.6.3-3.2.2-3.2.1-1.6v-1.4l.2-5.9.1-5.5.1-5.4.2-4.7.1-2.4.2-2.8c1.3-14.7 2.3-29.4 3-44l.1-3.4v-1.7l.1-2.4v-2.4l-.1-2.1-.2-2-.2-2c-.7-4.9-1.3-8.2-1.3-10.7v-.5-.4V191c-.2.6.1-1 .1-.8V189.5l.2-1 .2-2v-1.1-1a55.4 55.4 0 0 0-.5-5.2 27.5 27.5 0 0 0-10.9-16.8 31 31 0 0 0-10.6-5l-4.7-1.2-3.2 1.3c-10 4-21.9 6.3-32.4 5.5l-2.4-.2-2.3-.4-2.1-.5-1-.3-.5-.2-.8-.2-6.1-2-6.3-1.8c-8.3-2.2-16.7-3.9-25-5.1-8.2-1.3-16.4-2.1-24.4-3a701.8 701.8 0 0 1-28.2-3.3l-4.7-.8-4.5-.9-2.6-.5-3-.5c-3.7-.5-7.2-.7-10.3-1-1.5 0-3-.1-4.3-.3l-2-.3-1-.2h-.4l-1-.3-5.1-1.3c-1.7-.3-3.5-.3-5.2 0-3.4.4-6.7 1.8-9.5 3.8-1.4 1-2.8 2.1-4 3.4l-3.4 3.6-5 5.2c-6.6 6.8-13.5 13.6-20.4 20.5a492 492 0 0 0-32 35.3l-7.5 9.4-1.9 2.4-1.8 2.4-3.6 4.8-3.6 4.8-3.6 5-6.9 9.7c-5 6.7-10 13.1-15.2 18.8-1.3 1.4-4.6 6.1-8.3 10.2l-1.3 1.5-1.4 1.4-1.3 1.3-1.2 1-1.2 1.1-1 .8-1.4 1.2c-.3.3 0 .3.9.2.4 0 1 0 1.5-.2l1-.2 1-.3 2.1-.7 2.2-1 1.8-.9 1.4-.7c4.7-2.7 10.2-7 15.1-11.8 5-4.6 9.4-9.5 12.2-13 5.7-6.8 9.7-12 14-16.8 4.3-4.8 8.4-9.8 14.5-16.4a675.3 675.3 0 0 1 39.1-39.2l20.4-19 5.2-4.8 1.5-1.2c.4-.4 1-.8 1.5-1 1-.7 2.3-1 3.5-1 1.2.1 2.3.9 3.3 1.4H257.4l.8.3 1.7.5 3.3.7.8.1.8.2 1.5.2 3 .4c3.7.6 6.9 1 9.4 1.8 7.7 2 15.7 3.7 23.5 5 15.8 2.5 31.2 3.6 45.3 6.7 6.4 1.4 12.5 3.1 18.5 5.2l4.5 1.5 4.4 1.8 1.1.4.6.2.8.3 3.4 1.1 3.3 1 3.2.6a86.6 86.6 0 0 0 24.3 1c7.8-.6 15.5-2 23.3-4.2h-9.5l.5.3s0 .1 0 0l.4-.5.4-.5.3-.4 1.1-.8c.2-.1.3-.1 0 0h-.5-.3l-.4-.4-.1-.2c0-.1 0-.3-.2 0l-.7.6-.3.4c-.4-.4.5 1-.7-.9v.2l-.1.4-.3 1.2c-.3 1.7-.6 3.4-.7 5-.2 1.5-.3 3.2-.3 4.6-.1 5.9.4 10.4.3 13.6v1.1l-.1 1-.1.9-.2 1.6-1 6.6-1.8 13-3.7 26.3-.4 3.2-.3 3.7-.3 3.7-.1 1.8-.1 1v.8l-.5 13.2c0 4-.3 7.1-.5 10.6l-1 12c-.2 2-.5 4.1-.6 6.2l-.3 6.1-.3 6.2-.1 3v3.1l-.1 12.4.3 12.3.1 3.1v1.3c-.1.3-.2.6-.5.8-.2.3-.5.4-.8.6l-2 1.4-2.4 1.6-2.3 1.8-2 1.7-2.8 2.2-1.3 1-1.1.9-2 1.3c-.3 0-.6.2-.8.4l-.4.2-.3.1-.4.2-13.8 6.5-13.9 6.4-7 3.2-6.8 3.1-15.3 7-15.4 7-15.6 7.3-4 1.9-2 .9-1.8 1-7.8 4-7.7 3.9-3.9 2a80 80 0 0 0-3.8 2l-15.2 8.5-7.5 4.3-7.5 4.6-6 3.7-1 .6-.6-.2-1.3-.5-7.3-2.7-3.8-1.5-3.7-1.4-3.4-1.6-1.6-.8-1.6-.8-1.5-.8-.7-.4-.7-.5-2.8-1.7-7-4.9-7.1-5-3.5-2.4-3.6-2.5-14.5-9.8-15-9.5-3.7-2.4-4-2.2c-2.5-1.4-5.1-3-7.8-4.4l-7.7-4.2-3.3-1.9-3.3-1.8-3.4-2-1.7-1-1.7-1-7.1-4.5-7-4.3-3.8-2.3-4-2.4-2-1.1-2.2-1.2-4.4-2.3c-1.5-.8-3-1.4-4.5-2l-4.4-2-.4-.2h-.1l.3.2c.2 0 0 0 0 0h-.2l-.4-.2-.5-.3-.6-.3-1-.6-4.9-2.8A610.8 610.8 0 0 0 55.4 350a103.7 103.7 0 0 0-9.3-4.1l-1.2-.1-1 .2a15.2 15.2 0 0 0-5.2 1c.5-.2.8 0 1.2.5a8.6 8.6 0 0 1 1 1.2l.3.7a572.3 572.3 0 0 0 13.5 21 108.4 108.4 0 0 0 16.5 16.1l6.4 4.4c2 1.6 4 3 6 4.7 9 7.5 17 16 26.9 24l1.8 1.4 2 1.5 4 2.8 3.6 2.7a4176.2 4176.2 0 0 0 11 7.4 302906.2 302906.2 0 0 0 7.7 5l10.4 6.8 2.7 1.7 2.6 1.8 5.2 3.5 10.4 7 10.6 7.1 5.2 3.5.7.5.9.5 1.7 1 3.5 2.2 6.8 3.5 3.4 1.5 1.7.7 1.7.7 6.4 2.5 6 2.3 1.6.5.3.2.5.2 1.3.5 5.3 2 1.3.6.6.2.8.3 2.8 1.3 5.8 2.4 20.9-12.8 6.1-3.7 3-1.9 3.2-1.8 12.6-7 6.3-3.5 6.4-3.3 15-7.6 15.2-7.3 31.2-14.8L392 417l15.5-7.3 1-.5.5-.2.2-.1.4-.2 3-1.6 1.5-.8 1.3-.8 2.6-1.7 2.2-1.7 2-1.5 3.5-2.8c2.4-1.9 3.4-2.7 6.4-4.5l3.7-2.3a17 17 0 0 0 3.5-2.7c2-2 3.8-4.3 5.3-6.9 2.8-5.1 4.4-11 4.4-17V353l.1-8.9c.3-6 .4-12 1-18l.7-9 1-9zM241 333h-.4.4z"/><path fill="#FFF" d="M286 335l-.2.5.2-.4zM300 301.5h.2-.2z"/><path fill="#FFF" d="M281.9 297.4l-2-.2-2-.1a115.5 115.5 0 0 0-7.5 0l-3.5.3a84.2 84.2 0 0 0-12.7 2.4l-5.9 1.7c-2 .5-3.8 1-5.9 1.3-4 .6-8.4 1-12.8.4-4.7-.6-9.5-1.4-14.5-1.9-2.6-.2-5-.4-7.7-.4h-4l-3.5.3a79.4 79.4 0 0 1-27-1.9l-3-.6-3-.5-1.6-.3h-.8l-.8-.2-3.5-.6a83 83 0 0 1-14-3.3l-3.8-1.4-3.9-1.3c-.6-.2-2.7 0-4.8.5-2 .5-4 1.1-4.7 1.6-.6.4 3.1 3 4 3.7 3.3 2.4 7.7 5.7 10 7.1 4.6 2.7 6.7 4 11.6 6l3.8 1.6 1.9.8 2 .7 4.1 1.5 4.2 1.4c5.5 1.7 11 3.4 16.6 5.4 4.5 1.7 9.2 2.2 13.7 2.4l1.7.1 1.6.1 3 .3c1 0 2 .3 3 .5l3 .7c2.3.6 4.4 1.3 6.7 2.1l3.5 1.2 3.5 1.2 3.7 1 3.7 1c2.6.5 5.2 1 8 1.2l8.8.6 8.4.6 4 .3 3.7.2h3.6l3.4.1h3.2l3 .1h1.5l1.3.2 1.4.2h1l.6.1a94.9 94.9 0 0 0 19.5 1.2l2-.1 1.8-.2 2.8-.5 2.2-.3.9-.1h1l.6.4.4.3 1 .7 3.4 2.4 4.4 3.4 1.3 1 1.4 1 1.5 1 .8.5.8.5 10 6 5.1 3 5.3 3 4.7 2.7 4.7 3c2.5 1.6 5 3.3 7.4 5.2 2.5 1.7 4.7 3.6 7.1 5.3l3.5 2.5 1.8 1.1 1.8 1.2c2.7 1.5 5.4 3.6 8.7 5.1 1.6.8 3.3 1.5 5.2 1.9 1.8.4 3.9.6 6.2.4 2.3-.2 5-2 7.3-3.7-1.9 1.4-2-.8-2-3.5l.3-4.2.2-2.3c-.3-2.2-1-4.3-1.7-6.3l-2.8-5.8-.6-1.5-.7-1.4-1.3-3-1.3-2.8-1.5-2.8a30.7 30.7 0 0 0-7.9-9.7 97.4 97.4 0 0 0-11-7.3l-5-3-4.7-2.6c-6.3-3.6-12.8-7.4-19.3-11.5l-1.4-.9-1.5-1-4-3c-1.5-1.2-3.2-2.4-5.1-3.6l-1.5-1-1.6-1-3.8-1.9a36 36 0 0 0-19-3.5l-2.3.2-2 .3-2.8.5-1 .1-.4.1h-.3l-.6.1V304.7l.3-3.5h-1.1l-1.5-.1h-.7l-.7-.1-1-.1-1.8-.4-2-.4-2-.6-4-.9-2-.4-1-.2-1-.1-3.8-.5zM301 251.2l.1.1v-.1zM293 225.6h.4a1 1 0 0 0-.4 0zM257.5 229.8l-.1-.2v.2z"/><path fill="#FFF" d="M259.3 241.7a37.6 37.6 0 0 0 11 18.5l3.2 3.3a35 35 0 0 1 7.7 11.2l2.3 4 1.2 2a61.2 61.2 0 0 0 4.3 5.4 114.5 114.5 0 0 1 10.3 14.4c1.4 2.4 3.4 4.2 5.3 6.2 1.8 1.9 3.6 4 4.2 6.4l.2 2 .1 1.8c0 .2.2.3.4.5.2 0 .3.2.5.3l.3.1.2.1.6.2a40.5 40.5 0 0 1 .5 0h.3a12.1 12.1 0 0 1 2.4 0l-.5-.1h-.4.3a4 4 0 0 0 1-.4c.2 0 .3-.2.5-.4l.6-.6c1.6-2 2.7-6.1 2.6-7.9 0-3.7-.1-5.4-1.4-8.5-1.3-3.3-2.8-6.3-4-9.5a33 33 0 0 1-2.7-9.9c0-1.4-.4-2.7-1-3.9-.4-1.2-1-2.3-1.6-3.4-1.2-2.3-2.7-4.4-3.2-7-1.5-5.3-1.5-11.1-3.6-16-2.3-5.2-2.2-11.3-4.3-16.9-2-5.5-4.5-11-6.3-17-1-3.5-2-7.1-2.7-10.8a89.7 89.7 0 0 0-4.3-13.6l-2.6-6.7-2.8-6.8c-1.5-4-2.2-8-2.7-11.5s-.8-6.6-2-9l-1-2a7.6 7.6 0 0 0-1.3-2.1l-1-1a33.3 33.3 0 0 0-5.6-3.3c-1.8-.9-5-1.6-7.8-2 2.3.4 1 1.2-1 2.2l-4.9 2.5a13.1 13.1 0 0 0-3.1 3.7l-2.2 4.1c-2.8 5.5-6.2 11.5-5.4 17A68 68 0 0 0 244 192l2.5 6.1 2.3 6.3c2.6 7.2 5.4 14.5 7.4 22.3 1.2 4.6 1.9 9.8 3.1 14.9z"/><g><path fill="#FFF" d="M72 179.6l-.1.5v-.5zM88.9 130.8v0zM83.4 93.2l.4-.3a1 1 0 0 0-.4.3z"/><path fill="#FFF" d="M53.8 110.7a32.3 32.3 0 0 0-7.3 11.8l-.8 2.2-.3 1.2-.3 1-.5 2-.1.5v.4l-.2.6-.4 2.4a215.2 215.2 0 0 0-1.8 14.6l-.4 9.6c-.2 13.1 1 26.2-1.1 38.8l-1.8 9.9-2.1 9.6-2 10.4c-.6 3.4-1.3 6.9-1.6 10.4-.3 3.5-.8 7-1.3 10.5l-.7 5.1-.8 5.2-1.6 10.3-1.4 10.5c-.5 3.3-.7 6.8-.9 10.1l-.3 9.8c-.1 3.3-.3 6.5-.6 9.8 0 .8 0 1.6-.2 2.4a84.7 84.7 0 0 1-1.5 7.3c-.9 3.5-2 6.9-3 10.3-.4 1.6.4 10.6 1 12.5.4.8 3.5-3.9 4.4-5.2a112.8 112.8 0 0 0 11.3-23.5c.8-2.7 1.4-5.5 2.1-9.3a42002 42002 0 0 0 4.5-23.4 137 137 0 0 1 6.5-22.3l.8-2.3a64.9 64.9 0 0 0 2.2-6.7c.8-3.1 1.5-6.2 2-9.3l2.3-9.3 1.2-4.6.7-2.3.8-2.4C65.3 205.4 70 192 72.3 178a197.7 197.7 0 0 1 4.7-21.8l2.7-10.5 1.3-5.2.5-2.6.2-.4v-.3c0-.4.2-.9.5-1.2l.1-.2.4-.2.8-.6 1-.7c1.5-1 3.4-2.1 5-3.3a176 176 0 0 1 17.7-10.6c7.4-3.8 15.4-7.5 23.6-11.8l3.8-2 3.8-2.2 3.8-2.2 3.5-2.3 6.9-4.4 3.2-2 1.6-1 1.5-1 3-1.7 3-1.6 3-1.4 1.5-.7 1.6-.7 3.3-1.3 3.5-1.1 1.7-.6 2-.7 4.9-1.8 14.8-6 13.9-5.8 6.7-2.9 6.5-3c4.3-2 8.6-4.2 12.6-6.5 4.4-2.6 9.5-5.2 14.2-8.4a46.4 46.4 0 0 0 9-8.3 24 24 0 0 0 2.3-3.3c1.2-2.4 1-5.7 0-8.4.8 2.2-2.2 1.9-5.6 1-3.4-.8-7.2-2-7.7-2.1-2.8-.4-5.7-.2-8.6 0l-8.6 1-16.2 1.6a54 54 0 0 0-15.7 3.8 506 506 0 0 0-15.5 6.7c-2.5 1-5 2.3-7.4 3.3l-3.6 1.6-3.4 1.4-3 1.1-1.5.5-2.2.8-4.5 1.5-4.6 1.7c-3 1.1-6.2 2.6-9.3 4l-4.5 2.4-4.4 2.5-3.4 2.1-3.3 2.1-6.2 4-3 2-1.4 1-1.5.9-5.7 3.5c-7.6 4.5-16 8.7-25.1 13.2l-8.3 4.3-4.3 2.2-4.2 2.3-4.3 2.4-3.5 2-2 1.1-1.5.8-.7.4-1 .6a38.6 38.6 0 0 0-6.9 5.7z"/></g><g><path fill="#FFF" d="M321 87l-.1-.1.2.1zM348.3 111.3l-.3.2.3-.2zM377.4 89.9l.2.1-.2-.1z"/><path fill="#FFF" d="M367 78.7c-5-4.6-10.6-8.5-17-11.3-6.7-3-14-5-19.6-9.3l-8.9-6.9a100 100 0 0 0-12-7.8l-1.2-.7-1.4-.8-2.8-1.8-2.7-1.5c-3.6-2-7.1-4-10.6-5.8-3.4-1.7-7-2.5-10.5-3.4l-2.4-.7a23.2 23.2 0 0 1-6.6-3.6c-1.5-1.2-3-2.7-4.9-4a11 11 0 0 0-4.1-.7H259l-.7.2a11.6 11.6 0 0 0-1.9.4c-.2 0 0 .3.4.6a18.3 18.3 0 0 0 1.3 1.3c1 1 1.7 2 2 2.5 2 2.9 4 7 5.3 8.7 1.4 1.7 2.4 3 3.5 4.1a20 20 0 0 0 1.8 1.7l1.3.9 1.4.8c3.7 2.3 7.4 4.3 10.8 6.7 3.3 2.4 6.5 5 8.5 8.4l1.3 1.8 1.5 1.6c1.2 1.3 2.4 2.4 3.7 3.5 1.3 1 2.7 2 4 3.2a35 35 0 0 1 3.6 3.7c2.4 2.8 4.7 6 7 9 2.4 2.9 4.9 5.7 7.8 8.1 6.2 5.2 10.9 12 17.1 17l9.4 7.2a187.5 187.5 0 0 1 19.5 17c4.2 4.2 8.8 8 13.3 11.8l3.5 2.8 3.5 2.8 6.9 5.6c4.1 3.5 7.6 7.5 11.2 11.5a81.2 81.2 0 0 0 10.5 10c2.2 1.5 4.6 3.4 7.5 4.7 2.9 1.3 6.2 2 10.5 1 2.1-.5 4.7-2.5 6.8-4.5-1.7 1.6-1.9-.3-1.6-2.8l.9-5.7c0-4-1.4-7-2.2-10.3l-1.1-5a100 100 0 0 0-2.9-9.6 18 18 0 0 0-2.6-4l-1.7-2-1.7-1.7a102.7 102.7 0 0 0-10-9.3c-2.2-2-4.6-3.9-7-5.8l-3.5-2.8-3.5-3-11.9-9.8-3-2.5-3-2.6-5.8-5.2c-4.6-4.3-9-9.2-13.7-13.7z"/></g><g><path fill="#FFF" d="M112.5 169.3v.2c0-.1.1-.2 0-.2zM112.4 151.3l.2.4-.2-.4zM110.7 116.1h.5-.5z"/><path fill="#FFF" d="M79 122.9l-1.9 2-1.6 2.2-1.4 2.4-1 2.4c-1.4 3.3-2 6.8-2 10.3 0 3.6.8 7.4 2 11.2l1.2 3 1.2 2.7 1.3 2.8.3.7.2.4.1.3.2.4.2.2.3.3H78.8l-.2.5v.1l.1.2.2.4 1.3 3 2.7 6.4a136.7 136.7 0 0 1 5 13.6l2 7a344.2 344.2 0 0 0 6.9 19.2c.9 2.1 1.5 4.2 2.2 6.3l.5 1.6.5 1.9.3 1 .4 1.3.6 1.8 5 13.5c1.5 4.2 3.8 8 6 12 2 3.8 4 7.7 4.9 12 .4 2.2.6 4.5.8 6.6 0 .6.9 1.9 1.8 3l.6.8.6.6c.2 0 .4.3.5.3h.4l1.3.1c.3 0 .3 0 0 0h-.7l.6-.1c.2 0 .3-.2.5-.4l1-1 .5-1.1c1.5-3.2 2.5-8.8 2.4-11.4 0-5.4-.2-8-1.6-13l-4.4-15.4a90.8 90.8 0 0 1-2-11.6l-.1-1.8.1-1.4.1-.2v-.9l.1.3v-.3a33.4 33.4 0 0 0-.3-5.2 57.1 57.1 0 0 0-1.3-6.8l-1.8-6.6a57.7 57.7 0 0 1-2.2-13.4l-.5-6.6-.2-3.2-.1-1.6-.1-1.5-.3-3-.5-3c-.3-2.5-.6-5-.7-7.5v-.2.4-.5l-.1-.9-.2-1.7-.3-1.5v-.8l-.2-.3v.1l.1.2.2-.7c.2-.7.5-1 .5-1.6v-.5c.1-.2.1-.4.3-.4l.7-.5a5.2 5.2 0 0 1 1.6-.4h3.1a288.7 288.7 0 0 1 16.2 1.3c7 1 14 1.8 21.2 2.6l6 .5 6 .4 11.4.4c13.4.5 26.1 4.3 38.9 3.4l5.4-.3a38.5 38.5 0 0 0 9.7-2 17.3 17.3 0 0 0 6-4.5 17 17 0 0 0 3.1-7.6c-.4 2.3-2 .8-3.6-1.4-1.7-2-3.5-4.8-3.8-5.1a25 25 0 0 0-5-3.7l-5.4-2.9c-6.9-4-13.1-9-20.5-10.2a191 191 0 0 0-22.8-2.1l-11-.5-2.6-.1-2.5-.2-5-.5a565.5 565.5 0 0 0-41-3.2l-3.3-.1h-11.3l-5.7.4-5.8.5h-1.5l-.7.1-.5.3-2.1 1.1-4.2 2.3-2 1.1-1.1.6-.3.2-.2.2-.4.5z"/></g><g><path fill="#FFF" d="M375.7 276.8v0zM394.7 253l.2.3-.2-.3zM370.5 226.7v-.2.2zM361.7 235.5a41.2 41.2 0 0 0-8 14.8l-2.4 8.7c-.9 3-2 5.7-3.6 8-3.4 5-7.3 9.5-10 15l-.3.6v.1h-.1c0 .2.6-.7.3-.3l-.2.3-.6 1-.3.4-.1.2-.4.5c0 .2-.3.4-.5.6l-.7.7c-.5.5-1 1-1.6 1.3a74.2 74.2 0 0 1-7.1 5c-5 3-8.1 8.8-13.8 11.6l-2.4 1.1-2.5 1.2a3 3 0 0 0-.8 1 17 17 0 0 0-2 6.1c0 .3 1 .2 2 .1l1.6-.2h1.1c3-.3 7.2-.1 9-.5 3.6-.6 5.3-1 8.3-2.4 3.2-1.6 6.3-3.2 9.6-4.6 3.3-1.5 6.8-2.7 10.9-4a18 18 0 0 0 3-1.3l.8-.5a28.2 28.2 0 0 0 3.1-2.6l1.2-1.3.7-.8c1.9-2.3 3.6-4.6 5.9-6.5 5-4 10.6-7.5 14.5-12.5 2-2.7 4.4-5 6.8-7.4 2.4-2.4 4.7-4.7 6.6-7.5 3.8-5.4 7.1-11.1 11-16.3 2.4-3 4.8-6 7.3-8.8 3.2-3.6 6.1-7.5 9-11.3a186.8 186.8 0 0 1 8.6-11.4c2.7-3.4 6-6.1 9.3-9a61.5 61.5 0 0 0 7.6-8.2l.2-.3.2-.3.1-.3.5-1.4.2-.7v-.8l-.1-1.1-.1-1.5v-4.7c0-2-.7-5.1-1.4-7.9.6 2.3-.7 1.3-2.5 0l-2.8-2.1-1.7-1.1c-3.4-1.4-6.7-.6-10.2 0l-5.1 1.3-4.5 1c-2.8.6-5.4 1.5-7.3 3-4 3.4-7.5 7.2-10.8 11.1l-4.8 6-4.6 6.2c-5.2 6.9-10 14.1-15.5 20.9-3.3 4-7.2 7.7-10.6 11.8z"/></g><g><path fill="#FFF" d="M280 418v.2s.1 0 0-.1zM291.3 400l.4.2-.4-.2zM264 377.3v-.2.2z"/><path fill="#FFF" d="M257.6 384.4a24.7 24.7 0 0 0-4.2 12.3c-.3 4.8.5 10.1-1.3 14-1.8 4.2-4 8.2-5 12.9a38.8 38.8 0 0 1-5.7 13.3 11 11 0 0 0-.6 1.9l-.5 2.5c-.2.8-.5 1.7-.9 2.3l-.7.9-1 .6c-.3.2-.8.2-1.2.3h-1.2c-.2 0-.3.7-.4 1.6 0 .7-.2 1.7-.1 2.3 0 .2.5.7 1.1 1.2a12.9 12.9 0 0 0 9 2.5c1.5-.4 2.7-.7 3.7-1.2l1.5-1 1.5-1.2.8-.8.7-.9 1.5-1.7 1.3-1.8a35.6 35.6 0 0 1 7.6-6.8c4-2.5 4.5-7 7.5-10 3.2-3.4 7.4-6 9.4-10 .5-1 1.2-2 1.9-3l2.3-2.6c1.6-1.8 3.1-3.6 4.2-5.6l3-6.3a63.7 63.7 0 0 1 11.2-16.6l2.9-4.2c1.9-2.9 3.6-5.8 5.8-8.4 1.9-2.5 4.4-4.3 6.9-6.3 2.8-2.5 6-6 7.8-11.1.9-2.7 1.8-6.1 1.6-9.6a11.2 11.2 0 0 0-5.7-9c-1.8-1-5-1.2-7.9-1.2 2.4 0 1 1.1-1 2-1.8 1-4.6 1.6-4.8 1.7-1.5.5-2.5 1-3.6 1.5-1 .4-2 .9-3 1.1-2.2.5-4.6.5-6.6.5s-3.8 0-5 .7l-1 .6-.4.3-.6.5a41 41 0 0 0-5.9 6.4c-2.4 3-4.4 6.2-6.7 9.4l-2.7 4a165.6 165.6 0 0 1-8 12.4c-2.3 3.3-5.1 6.3-7.5 9.6z"/></g><g><path fill="#FFF" d="M208.1 393h0zM192.8 373.9l.3-.2a1 1 0 0 0-.3.2zM161.7 391.3h-.2.2z"/><path fill="#FFF" d="M167.2 400.9a31 31 0 0 0 15.4 11.5l4 1.7a35 35 0 0 1 6.8 4l4.5 4.1 2.4 2 .4.2.3.2a13.2 13.2 0 0 0 1.5.8l.6.2.3.4a13 13 0 0 1 1.1 1.4l.2.3.3.6a6605.1 6605.1 0 0 1 6 11.3c1.3 2.3 3.1 4.1 4.8 5.9 1.6 1.7 3.2 3.6 3.5 5.7.1 1 0 2.2-.4 2.6H219.5c.8-.1 1.4-.3 2.2-.3h2.8a2.7 2.7 0 0 1 .8.2h.2a1 1 0 0 1 .5.3l-.1-.1a1 1 0 0 0-.3-.1h-.2a3.1 3.1 0 0 0-.4-.2h.3c1-.2 2-1.5 2.7-2.8a11 11 0 0 0 1.2-3.5c.2-3.5.2-5.1-.8-8-1.1-3-2.3-5.8-3.2-8.7l-1-4.4c-.2-1.4-.2-3 0-4.3l.2-2.5-.1-.1-.2-.3-.3-.5-.3-.4-.2-.6-.8-2.2-.5-1.5-.9-1.4-1.7-2.8-2.4-2.3-.6-.6-.3-.4-.6-.8c-.7-1-1.2-2.2-1.8-3.4l-1.7-3.4c-1.3-2.2-2.5-4.4-4.2-6.2-1-1-1.7-2-2.5-3l-2.1-3.5a43.2 43.2 0 0 0-4.6-6.7c-3.5-4-7.6-7.7-10.9-12a107 107 0 0 1-5.5-8c-2.2-3.4-5-7-6.9-9.5l-1.5-2-1.5-2.2-1.4-2.2-.7-1.1-.6-1.2c-.7-1.4-1.3-3-1.7-4.5l-1-4.8c-.3-1.6-.6-3.3-1.1-4.8-.5-1.5-1-3-2-4.5-2-3-3.7-7.6-11.8-8.3-2-.2-5.2.6-8 1.4 4.6-1.4-3.4 5.7-3.7 6.2-2 2.7-2.4 5.1-3.5 7.7-1 2.5-2.3 5.1-3.3 7.7-.9 2.5-1.4 5-1 7.3a68.6 68.6 0 0 0 13 26.6l2 2.6 1 1.3.8 1.1 3.5 4.3a173.5 173.5 0 0 1 14.4 20.5z"/></g><g><path fill="#FFF" d="M273.5 109.9v.1s.1 0 0-.1zM276.9 92.7l.4.1h-.4zM242.6 83.8v-.1z"/><path fill="#FFF" d="M240 90.4c-.8 3-.5 6.2 1 9.6 1.6 3.5 4.2 7.1 4 10.4-.3 3.4-1.2 6.7-.5 10.3.7 3.7-.3 6.8-1.4 10.1-.5 1.6-.2 3.3 0 5 .2 1.8.2 3.4-.8 4.8-.5.8-1.3 1.5-1.9 2.2-.3.3 1.3 3 2.1 3.6.4.4 3-.2 3.7-.4 2.2-.6 5.3-1.7 6.3-2.4 2.1-1.5 3-2.2 4.1-4 2-3.7 3.5-7.4 7.6-10.8 3.3-2.7 2.2-6.4 4-9.4 2-3.2 5-6.4 5.5-10 .5-3.7 3.1-7.2 3.5-11 .3-3.8 0-7.6.6-11.4.3-2.1.8-4.3 1.4-6.4 1.6-5.5 1.4-11.1 2.4-16.7.3-2.5 1.6-4.9 2.7-7.3.5-1.3 1-2.5 1.3-3.7.3-1.3.4-2.5.2-4-.5-2.9-.4-6.9-7.7-9.6-1.8-.6-5-1-7.9-1 4.7.2-5.3 2.6-5.8 2.7-2.8 1.1-4.1 2.4-6.1 3.5l-6 3.1c-2 1-3.6 2.1-4.2 3.4a25 25 0 0 0-2.7 8l-1 8.4c-.4 2.4-.6 4.8-.8 7.2l-1 7.2c-.7 2.8-2 5.7-2.6 8.6z"/></g><g><path fill="#FFF" d="M81.7 338h-.1zM95.5 333.6l.1.4v-.4zM85.4 299.7z"/><path fill="#FFF" d="M80.1 300a12 12 0 0 0-6.8 5.1l-3 4.9c-1 1.6-2 3-3.4 3.7-1.5.9-3 1.5-4.3 2.4a14 14 0 0 0-3.9 3.2c-2.1 2.6-5.1 4-8.3 5.8-1.6.8-2.6 2.6-3.6 4.2-.5 1-1 1.8-1.6 2.5a8 8 0 0 1-2 2.2l-3 2c-.3.3-.2 1.3 0 2.3l1 2.5H43a1724 1724 0 0 0 5.8-.4h2.8c2.2-.1 3 0 4.4-.6 2.8-1 5.6-2 9.7-.6 3.4 1.2 5-1.6 7.7-1.5 1.4 0 3 .4 4.5.5 1.5.2 2.9.2 4.1-.3 2.6-1.1 6-.1 9.1-1.5 3-1.3 6.2-3.4 9.8-5l3.2-1.3 3.2-1.3a33 33 0 0 0 7.6-4.4l3.3-2.7 3.3-2.5a6.8 6.8 0 0 1 4.7-1.3h.8c.2.2.4.2.6.2h.2v-.3c0-.2-.2-.6-.2-1.6-.1-1.2 0-3 .4-6.8.3-1.9.5-5.1.6-8-.1 2.4-.5 1.1-1.1-.8l-1.6-4.6a10 10 0 0 0-2.4-3l-2.8-2a70.3 70.3 0 0 0-6.5-3.8c-2.4-1-4.6-1.4-6.6-.9-3.8 1-6.8 2.9-9 4.5l-.6.4-.5.4-1.2 1-2.2 1.6c-2.6 1.8-4.8 3.7-7.8 4.7-1.7.6-4 .5-6.2 1z"/></g></svg>