<svg xmlns="http://www.w3.org/2000/svg" viewBox="0 0 500 500"><path fill="#231F20" d="M433.97 180.9l-.28-.48c.1.23.18.38.28.49zM422.89 337.75l-.15-.33c.04.3.1.36.15.33zM434.63 374.93s-.15.33-.33.66l-.37.67c.36-.63.58-1.03.7-1.33z"/><path fill="#231F20" d="M439.65 306.87l.56-5.43c.1-.88.17-1.88.25-2.86l.23-2.94.23-2.95.11-1.47.05-1.42.18-5.67.3-11.01.3-5.24.15-2.62.28-2.74c1.53-14.7 2.94-29.38 4.22-43.99l.25-2.82.12-1.41c.02-.24.05-.45.06-.72l.03-.84c.03-1.1.12-2.26.08-3.32l-.12-3.16c-.29-4.09-.78-7.7-.85-11l-.04-1.23.05-1.17c.05-.78.03-1.59.18-2.3l.16-1.12.08-.56c.02-.11.01-.15.05-.32l.09-.49c.25-1.3.39-2.63.37-3.99a18.87 18.87 0 0 0-6.63-14.3c-.49-.43-1.01-.8-1.53-1.2-.52-.37-1.06-.69-1.6-1.03-.57-.33-1.02-.55-1.79-.93-.7-.35-1.46-.59-2.19-.88-.72-.3-1.48-.5-2.22-.75l-.56-.18c-.1-.02-.19-.1-.28-.06l-.27.08-1.08.32-3.83 1.14a94.1 94.1 0 0 1-10.53 2.52c-7.12 1.27-14.47 1.88-21.56 1.27l-2.78-.31-2.72-.47c-.87-.22-1.78-.39-2.62-.64l-1.27-.39-.63-.2-.74-.24-5.92-1.94-5.98-1.73c-8-2.18-16.12-3.82-24.22-5.07-16.23-2.5-32.29-3.65-48.04-6.24-1.74-.26-3.46-.56-5.18-.9-1.71-.33-3.44-.6-5.14-1l-5.1-1.1c-1.85-.37-3.79-.8-5.62-.98-3.7-.48-7.3-.62-10.63-.97-3.35-.35-6.5-.9-9.42-1.9a11.86 11.86 0 0 0-4.88-.65c-1.6.12-3.1.52-4.46 1.08a20.02 20.02 0 0 0-6.81 4.78l-9.36 9.85c-6.3 6.49-12.69 12.95-19.17 19.46a671.86 671.86 0 0 0-32.22 34.65l-7.55 9.16-1.9 2.28-1.8 2.37-3.6 4.72-3.63 4.71c-1.16 1.63-2.34 3.25-3.46 4.88l-6.7 9.73c-4.79 6.85-9.61 13.55-14.94 19.7-1.28 1.53-5.02 6.27-9.25 10.37l-1.58 1.53-1.63 1.37c-.54.44-1.04.92-1.57 1.3l-1.52 1.1-1.38 1-1.26.74c-.76.45-1.37.82-1.76 1.08-.36.23.01.15.84-.14l1.54-.56.96-.36c.33-.15.66-.33 1-.5l2.14-1.1c.73-.36 1.38-.87 2.04-1.27l1.8-1.16c.52-.36.94-.71 1.28-.96 4.39-3.22 9.44-8.12 13.89-13.19 4.46-5.06 8.4-10.2 11-13.73 5.27-7.16 8.97-12.5 13.02-17.58 4.18-5.02 8.13-10.26 14.17-17.01 11.9-13.67 24.58-26.38 37.35-38.96l19.2-18.9 9.49-9.52a12.16 12.16 0 0 1 4.3-2.8c.73-.25 1.44-.39 2.08-.4.63 0 1.16.1 1.68.34l3.53 1.19c4.04 1.11 8.06 1.57 11.83 1.98 3.78.4 7.35.77 10.6 1.6a251.27 251.27 0 0 0 23 4.67c15.48 2.45 30.93 3.66 45.57 6.49 7.92 1.52 15.7 3.46 23.28 5.96 1.9.59 3.76 1.31 5.65 1.96l1.4.5 1.63.55 1.7.56 1.7.43a65.8 65.8 0 0 0 13.42 1.8c8.86.3 17.52-.63 26.07-2.46 1.07-.23 2.14-.46 3.2-.74l2.35-.6.43-.12c.16-.06.22.05.33.06l.28.13c.1.04.14.1.5.28a7.29 7.29 0 0 1 3.75 5.13c.05.54.11 1.1.02 1.7 0 .3-.07.6-.14.9l-.32 1.69c-.24 1.31-.54 2.65-.6 3.93-.1 1.29-.24 2.6-.22 3.82-.08 5 .45 9.47.44 13.36v1.45l-.1 1.36-.1 1.37-.2 1.63-.82 6.56-1.66 13.1-3.3 26.2-.4 3.28c-.12 1.1-.18 2.29-.27 3.43-.15 2.29-.36 4.63-.46 6.88l-.43 13.22c-.04 3.8-.4 7.31-.64 10.91-.06.87-.15 1.85-.25 2.82l-.27 2.88-.55 5.78-.54 5.77-.33 5.8c-.2 3.87-.49 7.73-.6 11.6l-.2 11.63-.04 2.9c0 .98.04 1.95.06 2.92l.15 5.82.16 5.81.06 2.63a10.9 10.9 0 0 1-1.11 4.93c-.22.41-.45.73-.64.91-.2.2-.29.26-.43.35-4.62 2.3-8.42 5.36-11.76 8.07l-2.9 2.34c-.96.76-1.86 1.4-2.78 2.11-.9.61-1.8 1.2-2.7 1.77l-1.33.7-.66.37-.35.18-.43.2-13.78 6.5c-9.2 4.3-18.41 8.7-27.58 12.89l-34.8 16.14-17.52 8.22-17.27 8.79c-5.8 2.83-11.38 6.1-17.04 9.23-5.63 3.18-11.36 6.17-16.82 9.66l-14.35 8.8-.12.07-.39-.16-.8-.33-.39-.17-.23-.1-.58-.21-2.3-.88c-1.56-.6-3.08-1.16-4.58-1.7l-4.5-1.66c-5.38-1.96-10.47-4-15.2-6.43l-1.76-.92-.88-.45-.83-.51-3.31-2.03c-2.38-1.6-4.76-3.18-7.14-4.76-9.49-6.43-19.15-12.7-28.8-18.98l-14.83-9.05c-1.25-.74-2.46-1.52-3.73-2.23l-3.84-2.11-7.68-4.2c-2.55-1.4-5.1-2.78-7.66-4.17l-3.6-1.95c-1.2-.65-2.42-1.27-3.6-2-4.77-2.8-9.5-5.8-14.36-8.96l-8.14-5.23c-1.4-.9-2.9-1.8-4.4-2.71-1.52-.9-2.97-1.83-4.6-2.73-3.25-1.77-6.66-3.72-9.77-5.08l-4.42-2.06c-.42-.2-1.17-.67-1.82-1.06L72.37 372a593.72 593.72 0 0 1-16.34-11.15c-5.12-3.6-9.9-6.99-13.64-9.92-1.8-1.41-2.93-2.18-3.65-2.4-.3-.03-.67-.05-.96-.18a1.9 1.9 0 0 0-.9-.06c.12-.02.23.05.33.19.05.06.08.16.14.24.07.07.13.16.18.25.27.41.72 1.2 1.45 2.15 1.41 1.93 3.61 4.55 5.93 7.17a288.9 288.9 0 0 0 10.5 11.2c4.38 4.1 9.11 8.19 14.31 12.06.67.49 1.32.95 2.15 1.45l2.13 1.2 4.17 2.34c1.42.75 2.66 1.64 3.97 2.46 1.3.84 2.59 1.65 3.85 2.5 9.85 6.79 18.62 14.28 28.64 21l1.87 1.27 1.94 1.2 3.92 2.4 7.65 4.6 7.8 4.6 4 2.31 4.02 2.5 8.53 5.24 4.26 2.61c1.42.87 2.81 1.81 4.22 2.71 5.6 3.67 11.24 7.23 16.84 10.94l8.4 5.56 4.2 2.77 2.1 1.39 2.36 1.44c6.33 3.92 13 6.8 19.48 9.26l9.54 3.51 4.59 1.74 1.14.44 2 .83 3.98 1.67 2 .83.25.1.12.06.14-.08.53-.33 1.07-.65 4.26-2.6 4.74-2.9 8.51-5.2 4.26-2.62 2.12-1.3 2.18-1.22 8.75-4.86c5.84-3.22 11.6-6.59 17.63-9.52l15.22-7.74c5.1-2.52 10.3-4.88 15.44-7.33l31.22-14.66 15.65-7.36 15.55-7.39 15.56-7.37.97-.46.49-.23.54-.27 2.34-1.24 1.16-.64 1.06-.69 2.1-1.39c2.62-1.88 5.04-3.85 7.18-5.58 3.01-2.42 5.73-4.48 8.65-5.92a15.8 15.8 0 0 0 3.52-2.39 17.38 17.38 0 0 0 2.6-2.91 22.03 22.03 0 0 0 3-6.16c.64-2.06.98-4.14 1.1-6.24.02-.53.05-1.06.03-1.59l-.02-1.35-.03-2.19-.12-8.79-.06-4.41.13-4.43.26-8.88.07-2.23.16-2.22.3-4.45.62-8.92.93-8.91z"/><path fill="#231F20" d="M241.9 323.31l-.34-.02c.15.02.25.05.34.02zM288.1 325.28l-.13.14c.1-.04.13-.09.13-.14zM299.73 312.6h.25a.76.76 0 0 0-.25 0z"/><path fill="#231F20" d="M280.9 309.4c-.59-.05-1.2-.14-1.78-.17l-1.75-.07-3.5-.11a145.33 145.33 0 0 0-13.32.68l-6.32.62c-2.16.27-4.21.38-6.33.58-2.1.13-4.2.2-6.34.23a93.9 93.9 0 0 1-13.09-.96c-4.68-.69-9.43-1.46-14.25-2.02-2.44-.23-4.85-.53-7.33-.59-1.23-.04-2.49-.1-3.69-.12l-3.56.01c-4.77.05-9.44-.08-14.04-.48-4.63-.35-9.17-1.03-13.7-1.93a101.4 101.4 0 0 0-3.27-.66c-1.1-.19-2.15-.5-3.23-.72-2.12-.44-4.4-1-6.65-1.54-4.51-1.08-9.06-2.15-13.63-3.39-1.23-.31-2.44-.7-3.67-1l-3.73-.89a33.75 33.75 0 0 0-8.89.38c-.55.15 3.06 1.32 4.03 1.64a457.4 457.4 0 0 1 10.39 3.82c4.91 1.73 7.13 2.66 12.18 4.3 1.3.44 2.6.88 3.9 1.3l1.94.66 2 .62c1.35.39 2.68.87 4.03 1.19l4.06 1.04c5.42 1.26 10.87 2.27 16.35 3.35 4.42.84 9 1.18 13.52 1.4 2.32.08 4.4.27 6.57.43 2.16.22 4.32.54 6.45.93 4.65.91 9.27 2.06 14.06 3.12 2.37.53 4.83 1.01 7.27 1.45 2.5.37 4.96.8 7.55.94 11.01.92 21.6.69 31.32.85l3.58.08c1.17.05 2.31.18 3.48.25l1.73.13 1.68.26 3.46.52c1.4.23 2.8.5 4.21.69 1.42.13 2.85.32 4.26.4 1.4.05 2.83.16 4.2.16h2.04c.7 0 1.27.03 2.2-.04l1.5-.1 1.33-.16c.92-.1 1.68-.25 2.47-.38l2.2-.38 1.96-.3c1.14-.1 2.28-.2 2.81-.06l.23.02h.11l.17.05.69.17c.46.16.92.29 1.4.5 2.42.97 5.09 2.8 7.9 4.91 2.82 2.11 5.88 4.64 9.55 6.95 3.25 1.98 6.44 4.01 9.76 5.94 1.66.97 3.28 1.97 4.96 2.92l5.04 2.83c1.5.88 3.05 1.7 4.58 2.54l4.57 2.54c2.8 1.61 5.65 3.16 8.32 4.9 2.76 1.66 5.35 3.49 8.03 5.21l3.9 2.72 1.99 1.34 1.93 1.4c5.6 3.87 12.22 9.85 18.07 12.44a3.6 3.6 0 0 0 3.68-.62c-.74.58-1.62-1.19-2.39-3.23-.38-1.02-.74-2.1-1.02-2.98-.31-.83-.55-1.45-.62-1.59a46.25 46.25 0 0 0-3-4.82c-1.18-1.5-2.43-3-3.6-4.54-.3-.37-.58-.74-.86-1.11l-.89-1.05a2187.12 2187.12 0 0 1-3.51-4.2c-.59-.7-1.23-1.33-1.85-2-1.27-1.3-2.56-2.62-3.97-3.85a64.12 64.12 0 0 0-4.57-3.5 127.2 127.2 0 0 0-10.61-6.36l-10.25-5.5a422.66 422.66 0 0 1-19.96-11.86c-2.35-1.49-4.84-3.46-7.65-5.58-2.82-2.1-5.92-4.37-9.8-6.23a28.6 28.6 0 0 0-6.4-2.24 22.93 22.93 0 0 0-3.94-.5c-1.19.02-2.5.02-3.49.16-2.19.22-3.9.59-5.56.87-.74.11-1.59.28-2.2.34-.32.03-.67.1-.96.12l-.78.03-.23.02H304l-.7-.02-1.4-.03c-.95 0-1.85-.08-2.75-.15-.9-.07-1.81-.13-2.68-.28-.88-.15-1.76-.21-2.64-.42l-2.63-.57-3.41-.67-1.73-.33-.87-.17-.85-.1-3.43-.38zM292.08 254.85l.07.17c-.02-.08-.02-.14-.07-.17zM283.35 228.43l.17.01a.18.18 0 0 0-.17 0zM268.13 226.65l-.07-.15c.02.07.04.12.07.15z"/><path fill="#231F20" d="M270.87 238.12a71.55 71.55 0 0 0 6.09 14.97c.65 1.23 1.4 2.44 2.12 3.64l2.2 3.58a95.8 95.8 0 0 1 4.19 7.26l1.99 3.96 2.13 3.87 1.08 1.92 1.18 1.87c.8 1.23 1.62 2.45 2.48 3.66 1.78 2.38 3.43 4.75 5.03 7.2 1.66 2.43 3.22 4.76 4.78 7.17 2.98 4.62 7 8.59 9.08 13.54.27.65.49 1.32.72 1.98.2.66.36 1.3.56 1.94.06.16.18.43.39.77.18.32.5.76.69 1.1.51.8.8 1.3 1.06 1.54.1.1.34-.16.6-.6.31-.4.36-1.12.44-1.4.36-1.93.02-5.23-.42-6.76-.9-3.14-1.4-4.6-2.92-7.5-1.59-2.98-3.27-5.85-4.89-8.74-1.6-2.9-3.22-5.81-4.36-8.84-1.93-4.94-5.36-9.22-7.35-14.1-2.24-5.24-3.67-10.74-5.88-15.94-2.35-5.56-3.5-11.56-5.46-17.35-1.93-5.72-3.94-11.52-5.7-17.46a641 641 0 0 1-3-10.48c-.63-2.22-1.28-4.44-2-6.63-.75-2.2-1.49-4.39-2.28-6.56l-2.45-6.52a474.5 474.5 0 0 0-2.62-6.52c-3.16-7.72-4.86-15.22-6.84-21.98-.29-.9-.48-1.88-.77-2.89-.1-.5-.22-1-.35-1.52l-.21-.76-.19-.76a16 16 0 0 0-.48-1.52 14.63 14.63 0 0 0-2.12-4.25c-.65-.85-1.91-1.29-3.05-1.44.94.13.33 1.17-.55 2.33-.86 1.14-1.85 2.44-1.97 2.62-.6 1.08-.86 2.24-1.18 3.45-.26 1.2-.4 2.43-.63 3.66-.75 4.72-1.45 9.4-.23 14.15a110.8 110.8 0 0 0 4.86 13.92c.9 2.19 1.75 4.3 2.57 6.42l2.43 6.56a362.74 362.74 0 0 1 7.41 22.9c1.32 4.65 2.43 9.62 3.82 14.54z"/><g><path fill="#231F20" d="M62.4 177.93l-.07.47c.04-.2.09-.34.07-.47zM83.53 122.36l-.03.21c.08-.11.07-.17.03-.2zM88.77 102.91l.36-.22-.36.22z"/><path fill="#231F20" d="M63 118.55a22.1 22.1 0 0 0-4.22 5.93c-.53 1.06-.9 2.05-1.27 3.05-.31.96-.64 1.96-.86 2.87l-.33 1.38c-.12.48-.17.81-.26 1.23l-.46 2.36-.9 4.72a294.4 294.4 0 0 0-2.64 18.77c-1.43 12.82-2.23 25.55-4.51 38.26l-1.96 10.02-2.2 9.88-2.2 10.12c-.7 3.4-1.48 6.76-1.95 10.2-.53 3.46-1.1 6.87-1.69 10.27-.28 1.7-.65 3.38-.87 5.09l-.74 5.1-1.57 10.2c-.5 3.41-.84 6.86-1.28 10.32-.4 3.33-.72 6.69-1 10.02l-.83 9.86a473.1 473.1 0 0 1-.88 9.86c-.09.82-.17 1.64-.28 2.46l-.4 2.46c-.27 1.64-.56 3.27-.89 4.9-.68 3.48-1.46 6.92-2.18 10.4-.35 1.7-.87 10.49-.74 12.24.06.8 1.8-4.12 2.26-5.5a245.6 245.6 0 0 0 4.64-15.08c.92-3.67 1.6-6.36 2.21-9.08.5-2.75.96-5.53 1.51-9.36l3.37-23.44c1.01-7.73 2.73-15.32 4.52-22.92l.54-2.31.59-2.32c.38-1.55.75-3.1 1.1-4.67.7-3.14 1.33-6.3 1.96-9.48 1.48-6.33 2.9-12.6 4.6-18.85a407.3 407.3 0 0 0 9.52-41.23 584.37 584.37 0 0 1 4.22-21.91l2.34-10.8 1.2-5.36.58-2.69c.2-.74.35-1.52.57-2.16.4-1.35.85-2.41 1.33-3.15a8.56 8.56 0 0 1 2.16-2.2c2.16-1.62 5.7-3.6 8.89-5.7 6-3.85 12.14-7.47 18.6-10.8 7.51-3.9 15.36-7.69 23.11-11.92l3.67-2 3.61-2.15 3.6-2.16 3.47-2.2c4.63-2.93 9.12-5.93 13.54-8.57 1.1-.64 2.2-1.33 3.32-1.93l3.33-1.75c1.12-.58 2.29-1.05 3.42-1.59l1.72-.78 1.8-.7 3.57-1.38 3.7-1.26 1.87-.62c.62-.21 1.2-.4 1.94-.67l4.24-1.54 3.57-1.5c1.18-.49 2.39-.97 3.51-1.5 2.28-1.03 4.61-2 6.83-3.06 4.5-2.07 8.93-4.16 13.32-6.28a981.39 981.39 0 0 0 25.94-13.02c4.55-2.41 9.95-5.01 15.06-7.72 2.57-1.29 5.05-2.73 7.35-4.02a54.64 54.64 0 0 0 3.27-2.05c1.03-.65 2-1.31 2.88-2 1.72-1.34 1.96-2.79 1.64-3.89.26.9-2.55 1.3-5.6 1.5-3.03.3-6.28.47-6.71.53-2.55.44-5.17 1.1-7.8 1.84-2.6.8-5.26 1.6-7.83 2.41-5.01 1.53-9.8 2.95-14.58 4.56-2.4.8-4.76 1.66-7.18 2.6-2.42.96-4.88 2.01-7.34 3.2l-15.32 7.41c-2.53 1.19-5.06 2.46-7.57 3.58l-3.76 1.72-3.72 1.58c-1.26.58-2.41.93-3.6 1.37l-1.77.65-2.12.7-4.22 1.42c-1.4.47-2.83 1.07-4.24 1.6-2.83 1.03-5.65 2.37-8.45 3.66l-4.11 2.14c-1.36.73-2.64 1.52-3.96 2.28-1.14.64-2.2 1.31-3.26 1.98l-3.17 2-6.15 3.99c-2.02 1.28-4.07 2.66-6.07 3.87-2.01 1.21-4 2.47-6.03 3.66-8.13 4.77-16.75 8.97-25.57 13.5-2.64 1.4-5.31 2.7-7.98 4.2l-4.03 2.2c-1.35.74-2.67 1.55-4 2.32-2.57 1.5-5.14 3.02-7.71 4.54-1.29.74-2.66 1.52-4.17 2.5-1.49.94-3.2 2.13-4.85 3.8z"/></g><g><path fill="#231F20" d="M327.38 79.62l-.2-.16c.09.08.13.15.2.16zM354.94 103.74l-.16.07c.09 0 .13-.03.16-.07zM370.06 98.25l.18.13a.62.62 0 0 0-.18-.13z"/><path fill="#231F20" d="M359.13 87.86a147.98 147.98 0 0 0-16.04-12.52c-5.8-3.87-11.84-7.34-17.3-11.78a892.8 892.8 0 0 0-8.64-7.03c-1.45-1.16-2.9-2.32-4.38-3.45-1.51-1.1-3.04-2.2-4.6-3.26l-2.32-1.62c-.76-.54-1.5-1.1-2.36-1.64l-2.47-1.63-2.5-1.49c-3.35-1.92-6.73-3.7-10.17-5.3-3.32-1.6-6.75-2.75-10.1-3.95l-1.27-.46-1.17-.44c-.7-.28-1.5-.66-2.26-1.05-1.55-.8-3.1-1.7-4.64-2.67-1.64-1.06-3.25-2.18-5.01-3.22-.44-.25-1.89-.73-3.48-1.07a17.3 17.3 0 0 0-2.42-.33l-.53-.03-.52.02a6 6 0 0 0-.73.07c-.31.06.54.41 1.34.89.8.48 1.59 1.08 1.94 1.33 2.22 1.7 5.09 4.43 6.68 5.69 1.61 1.26 2.78 2.2 4.02 3.1.61.44 1.25.87 1.96 1.33.38.22.75.46 1.19.7l.68.37.68.33c3.87 1.93 7.7 3.72 11.35 5.73 3.63 2 7.17 4.18 10.14 6.87.64.51 1.19 1.09 1.8 1.6.6.54 1.2.98 1.85 1.58 1.3 1.15 2.63 2.24 3.98 3.33 1.35 1.1 2.73 2.13 4.06 3.27a88.2 88.2 0 0 1 3.88 3.48c2.71 2.6 5.34 5.27 8 7.93 2.67 2.65 5.4 5.24 8.28 7.69 6.18 5.17 11.63 11.07 17.79 16.23l9.14 7.58c3.05 2.54 6.1 5.1 9.08 7.71 3.5 3.06 6.91 6.18 10.37 9.3 4.38 3.94 8.86 7.75 13.36 11.54l3.37 2.84 3.44 2.76 6.86 5.56c4.1 3.38 7.93 6.99 11.81 10.55 1.86 1.73 3.7 3.42 5.59 5.09a98.68 98.68 0 0 0 5.8 5.03c2.1 1.75 4.5 3.9 7.07 5.72 2.5 1.87 5.14 3.46 7.86 4.07 1.31.29 2.5-.35 3.34-1.14-1.36 1.3-2.87-5.79-3.08-6.26-1.11-2.76-3-5.15-4.6-7.69-.77-1.22-1.49-2.46-2.22-3.67-.76-1.19-1.5-2.37-2.29-3.55a57.03 57.03 0 0 0-2.48-3.46c-.91-1.12-1.92-2.2-3.03-3.25-2.35-2.25-4.6-4.27-6.91-6.28-2.3-2-4.64-3.98-7-5.92l-7.1-5.8-3.57-2.88-3.5-2.98c-7.94-6.78-16.02-13.35-23.82-20.42-4.68-4.19-9.33-8.71-14.2-13.05z"/></g><g><path fill="#231F20" d="M102.84 170.34l.06.3c-.02-.14 0-.23-.06-.3zM103.28 141.59l-.08.16c.08-.06.09-.12.08-.16zM112.34 127.15l.29-.02c-.14 0-.22 0-.28.02z"/><path fill="#231F20" d="M89.23 129.5c-.69.76-1.4 1.5-2.07 2.28-.65.8-1.27 1.63-1.84 2.5a23.4 23.4 0 0 0-1.39 2.8c-.4.95-.64 2-.88 3.01a19.08 19.08 0 0 0-.3 5.3c.04.86.19 1.55.3 2.3.12.76.29 1.42.46 2.08.7 2.64 1.59 4.81 2.41 6.76.83 1.93 1.58 3.62 2.12 5.08l.22.56.15.5.17.5c.06.17.13.52.2.77l.77 3.28.8 3.27.38 1.62.46 1.62c.63 2.16 1.22 4.31 1.79 6.47.66 2.14 1.27 4.29 1.82 6.46 2.48 9.18 5.33 17.82 8.04 26.44.74 2.17 1.25 4.36 1.83 6.54.3 1.14.58 2.28.86 3.42.36 1.34.75 2.48 1.15 3.61 1.6 4.48 3.3 8.72 4.99 13.07 3.26 8.34 7.8 16.1 10.28 24.56a89.01 89.01 0 0 1 1.63 6.74c.12.54.76 2.1 1.32 3.6.28.74.54 1.47.71 2.01.2.59.27.89.38 1.09.05.08.14.02.26-.14s.3-.43.4-.84c.26-.77.36-1.88.4-2.35.26-3.13-.26-8.14-.77-10.6a82.62 82.62 0 0 0-3.32-12.25l-5.33-15c-.85-2.48-1.68-4.97-2.42-7.47a85.2 85.2 0 0 1-1.02-3.74c-.31-1.24-.6-2.5-.74-3.62-.09-.52-.06-.74-.14-1.3l-.23-1.63a97.4 97.4 0 0 0-1.2-6.58l-.83-3.25c-1.09-4.35-2.44-8.6-3.4-12.82-.52-2.27-1.06-4.57-1.49-6.8-.43-2.26-.94-4.5-1.28-6.74-.82-4.45-1.4-8.9-2.15-13.35-.32-2.39-.59-4.78-.83-7.17l-.14-1.17-.16-1.25a89.6 89.6 0 0 0-.47-2.3l-.54-2.1-.57-1.97c-.76-2.51-1.48-4.74-1.85-6.59-.08-.44-.2-.92-.22-1.28l-.07-.58c-.03-.2 0-.33-.01-.5l-.02-.46.05-.36a1.43 1.43 0 0 1 .17-.76c.07-.13.15-.28.33-.29l.25-.06 1.49-.23c1.12-.18 2.23-.37 3.41-.42 2.34-.16 4.64-.4 7-.47l7.13-.04 8.4.4c2.82.25 5.64.49 8.45.77l21.48 2.42c1.75.21 3.75.39 5.67.57 1.9.13 3.8.26 5.66.36 3.74.17 7.43.3 11.1.42 13.29.42 26.04 1.94 39.1 1.88l5.52.02a114 114 0 0 0 5.83-.1c3.86-.14 7.58-.59 10.49-1.6a3.61 3.61 0 0 0 2.31-2.86c-.18.93-1.92.14-3.76-.92-1.87-.98-3.83-2.22-4.1-2.34a41.26 41.26 0 0 0-5.2-1.72l-5.38-1.35c-6.89-1.8-13.08-3.87-20.43-4.45-7.7-.6-15.35-.86-22.93-1.1-3.79-.13-7.55-.26-11.27-.44-1.87-.08-3.67-.23-5.5-.35-1.78-.17-3.49-.32-5.47-.57a468.72 468.72 0 0 0-39.83-3.3c-4.09-.01-8.2-.26-12.5-.03-2.13.09-4.24.05-6.45.35-1.17.14-1.85.15-4.14.58l-2.9.51c-.94.22-2.06.12-2.6 1.09z"/></g><g><path fill="#231F20" d="M368.07 270.85l-.12.17c.06-.07.12-.1.13-.17zM386.67 246.95l.1.14a.18.18 0 0 0-.1-.14zM379.31 233.36l.1-.16a.41.41 0 0 0-.1.16z"/><path fill="#231F20" d="M371.3 242.8a99.43 99.43 0 0 0-9.24 13.86c-2.77 5.03-5.3 10.16-8.73 14.76-3.67 4.86-7.48 9.52-10.84 14.62-.45.7-.79 1.1-1.16 1.6-.36.47-.9.97-1.36 1.45-1 .97-2.08 1.9-3.23 2.8a120.03 120.03 0 0 1-7.25 5.23c-4.86 3.32-9.04 7.62-14.13 10.9-1.36.91-2.77 1.71-4.15 2.71-.17.12-.46.43-.8.82-.34.4-.73.96-1.1 1.5l-.53.8-.46.85c-.27.52-.46.94-.52 1.16-.09.41 2.28-1 2.93-1.2 2.1-1 5.25-2.12 6.73-2.89 3.04-1.48 4.44-2.14 7.34-3.95 2.99-1.86 5.95-3.7 8.97-5.5 3.02-1.8 6.08-3.51 9.34-5.3.66-.39 1.3-.8 1.95-1.22.64-.46 1.27-.98 1.9-1.5.62-.52 1.27-1.23 1.89-1.87.52-.59.94-1.13 1.4-1.7 1.84-2.27 3.61-4.6 5.6-6.69 4.28-4.53 8.87-8.82 12.72-13.76 2.06-2.61 4.21-5.14 6.37-7.66 2.15-2.52 4.3-5.05 6.27-7.73 3.88-5.27 7.57-10.68 11.53-15.88 2.3-3.03 4.66-6.03 7.06-9a360.9 360.9 0 0 0 8.8-11.42c1.44-1.92 2.85-3.87 4.31-5.76 1.46-1.9 2.93-3.79 4.42-5.66 2.7-3.39 5.64-6.5 8.52-9.68a153.7 153.7 0 0 0 4.24-4.82c.69-.83 1.36-1.66 2.02-2.52.6-.8 1.2-1.62 1.82-2.43a42.78 42.78 0 0 1 3.64-4.24c1.27-1.38 2.64-2.8 3.76-4.74.54-.94.45-2.28.15-3.38.24.92-1.01.74-2.47.47-.72-.12-1.52-.3-2.14-.4-.63-.1-1.12-.17-1.22-.17-2.58.06-5.12 1.23-7.55 2.46a70.21 70.21 0 0 0-6.46 3.88 30.4 30.4 0 0 0-5.44 4.47c-3.5 3.73-6.77 7.63-9.95 11.6a456.52 456.52 0 0 0-9.33 12.09c-5.24 6.9-10.3 13.91-15.63 20.74-3.18 4.08-6.67 8.12-9.99 12.3z"/></g><g><path fill="#231F20" d="M271.58 413.35l-.06.14c.03-.06.08-.09.06-.14zM282.81 394.69l.11.12a.22.22 0 0 0-.11-.12zM273.35 383.24l.05-.13a.23.23 0 0 0-.05.13z"/><path fill="#231F20" d="M267.91 390.7a54.68 54.68 0 0 0-5.38 11.22c-1.35 4.09-2.2 8.38-4.15 12.17-2.01 4.04-4.07 8.01-5.67 12.25a99.44 99.44 0 0 1-5.57 12.24 30.2 30.2 0 0 0-1.26 2.81c-.34.93-.77 1.8-1.15 2.7-.47.84-.87 1.75-1.47 2.5-.29.37-.57.76-.9 1.11-.33.33-.69.65-1.05.94-.38.34-.83.57-1.26.82-.43.24-.83.5-1.29.69-.22.08-.65.68-1.13 1.26a7.9 7.9 0 0 0-1.1 1.5c-.14.28 1.6.4 2.13.38.83.01 1.84-.18 2.86-.38.94-.28 1.88-.6 2.45-.91 1.1-.68 1.99-1.17 2.7-1.81.37-.32.73-.64 1.12-1.02.38-.38.73-.82 1.16-1.34l.64-.81.59-.84c.37-.57.8-1.12 1.14-1.7l2.07-3.39a55.38 55.38 0 0 1 4.48-6.26c2.65-3.25 4.07-7.33 6.38-10.8 2.47-3.76 5.51-7.18 7.61-11.14a52.68 52.68 0 0 1 1.81-3.09c.65-1 1.35-1.98 2.03-2.96a70.62 70.62 0 0 0 3.89-6c1.12-2.08 2.3-4.11 3.46-6.16a164.5 164.5 0 0 1 3.59-6.09c1.48-2.31 3.09-4.56 4.7-6.79 1.02-1.4 2.01-2.83 2.98-4.27l2.97-4.27c1.98-2.86 3.85-5.78 5.98-8.52 1.9-2.5 4.05-4.77 6.14-7.07 2.27-2.49 4.65-5.48 6.13-9.27.8-1.97 1.6-4.48 1.75-7 .1-1.24-.08-2.5-.32-3.64a7.78 7.78 0 0 0-1.56-3.03c-.69-.83-1.98-1.05-3.12-1.04.94-.01.38 1.02-.43 1.97-.77.97-1.98 1.79-2.09 1.9-.68.7-1.15 1.42-1.74 2.1-.56.68-1.01 1.37-1.68 1.94-2.42 2.3-5.3 3.35-7.45 5.65a73.98 73.98 0 0 0-3.6 4.06c-1.2 1.45-2.36 2.93-3.5 4.42-2.3 2.96-4.37 6.1-6.55 9.2l-2.74 3.95-2.62 4.04c-1.73 2.7-3.52 5.37-5.3 8.05-2.1 3.22-4.48 6.42-6.68 9.73z"/></g><g><path fill="#231F20" d="M200.99 399.54l.12.13c-.05-.06-.06-.12-.12-.13zM184.9 380.1l.16-.05a.2.2 0 0 0-.16.05zM170.45 384.5l-.11-.1c.04.06.08.09.11.1z"/><path fill="#231F20" d="M176.57 393.3a68.4 68.4 0 0 0 4.71 5.5c1.71 1.74 3.5 3.4 5.38 4.96 1.9 1.61 4.04 3.05 6.02 4.58 1 .77 1.98 1.54 2.93 2.35 1 .78 1.96 1.6 2.87 2.46 1.66 1.53 3.2 3.16 4.9 4.64l2.58 2.2 1.3 1.07.33.27.15.1.29.18.34.23c.1.09.3.12.3.27l.1.29.2.45a47.14 47.14 0 0 0 1.67 3.83c.59 1.2 1.2 2.31 1.8 3.43 1.2 2.22 2.42 4.36 3.64 6.5 1.26 2.21 2.8 4.2 4.23 6.2 1.42 2.01 2.8 4.07 3.53 6.27.4 1.16.63 2.36.7 3.32 0 .1.07.3.21.55.09.19.26.47.36.58.08.11.12.12.18.15l.06.03.12.05.07.01a1.05 1.05 0 0 1 .42.2l-.02-.02h.01c-.06-.09.15.23.47.26.3.06.7-.28.83-.48.48-.58.77-1.78.83-2.92.09-1.15-.01-2.27-.14-3a25.26 25.26 0 0 0-2.3-6.95c-1.33-2.75-2.75-5.4-4.01-8.06a41.2 41.2 0 0 1-3.06-8.14c-.18-.8-.4-1.56-.58-2.27-.21-.72-.36-1.33-.54-2.07-.33-.82-.67-1.65-.94-2.4-.1-.4-.4-.75-.61-1.12l-.69-1.1-1.72-1.57-1.08-1a38 38 0 0 1-2.06-2.1c-.87-.92-1.66-1.96-2.45-2.98l-2.37-3.05c-1.63-1.97-3.17-4.05-4.94-5.93-.93-1-1.83-2.04-2.7-3.1l-2.5-3.31c-1.65-2.21-3.3-4.41-5.08-6.56-3.55-4.15-7.2-8.29-10.58-12.66-1.98-2.57-3.9-5.17-5.78-7.82-4.95-6.87-9.65-12.55-13.42-19.42a66.28 66.28 0 0 1-2.26-4.71c-.6-1.64-1.22-3.27-1.83-4.9-.61-1.62-1.11-3.31-1.75-4.93-.65-1.62-1.27-3.28-2.03-4.9-1.65-3.4-3.38-8.27-7.25-10.45-.95-.52-2.26-.36-3.35 0 1.79-.59-.57 4.73-.64 5.1-.44 2.17-.17 4.32-.2 6.5-.01 2.1-.11 4.16-.1 6.23.03 2.06.31 4.1.95 6.17 2.83 8.65 7.46 16.63 12.84 24.15l1.73 2.4.87 1.18.85 1.09 3.4 4.33a305.1 305.1 0 0 1 10.72 14.26c1.32 1.87 2.66 3.75 4.09 5.58z"/></g><g><path fill="#231F20" d="M263.95 108.22l-.01.12c.01-.05.04-.08.01-.12zM266.98 91.19l.14.05a.26.26 0 0 0-.14-.05zM253.6 85.44l-.01-.1c-.02.05-.01.08 0 .1z"/><path fill="#231F20" d="M251.9 92.26a32.42 32.42 0 0 0-.52 9.46c.29 3.3 1.07 6.69.58 9.92-.49 3.42-1.2 6.77-1.3 10.26-.1 3.52-.98 6.76-1.8 10.13-.41 1.62-.5 3.31-.63 4.99-.17 1.65-.41 3.3-1.05 4.84-.34.82-.77 1.61-1.15 2.42-.18.4.13 2.74.42 3.27.13.24 1.34-.76 1.67-1.04a21.62 21.62 0 0 0 3.1-3.26 17.77 17.77 0 0 0 2.31-4.35c1.32-3.84 2.39-7.63 4.5-11.3 1.73-2.96 1.61-6.43 2.72-9.56 1.17-3.39 2.79-6.7 3.3-10.23.57-3.75 2.01-7.35 2.53-11.11.51-3.71.69-7.47 1.27-11.17.33-2.16.71-4.3 1.16-6.45 1.06-5.43 1.44-10.95 2.25-16.42.6-4.99 2.7-9.64 2.65-14.8-.07-2.74.11-6.46-2.71-8.87-.7-.58-1.97-.8-3.12-.86 1.88.1-2.25 2.8-2.44 2.99-1.2 1.2-1.79 2.54-2.64 3.8-.84 1.22-1.76 2.34-2.6 3.5a11.4 11.4 0 0 0-1.94 3.67 61.88 61.88 0 0 0-1.62 8.39c-.41 2.81-.76 5.65-1.13 8.5-.33 2.41-.6 4.83-.88 7.25-.33 2.42-.68 4.84-1.1 7.25-.5 2.88-1.27 5.82-1.83 8.78z"/></g><g><path fill="#231F20" d="M78.18 328.9l-.09.04c.04 0 .08 0 .09-.04zM91.97 324.2l.03.15c0-.06 0-.11-.03-.16zM89.63 309.97l.07-.05c-.04 0-.06.02-.07.05z"/><path fill="#231F20" d="M84.18 311.35A24.34 24.34 0 0 0 76.9 315c-1.19.87-2.35 1.9-3.52 2.8a19.7 19.7 0 0 1-3.68 2.46c-2.76 1.36-5.58 2.58-8.02 4.5-2.45 1.88-5.15 3.27-7.88 5.05-1.32.85-2.4 2.1-3.44 3.33-.5.66-1 1.3-1.53 1.9a13.6 13.6 0 0 1-1.62 1.87c-.63.64-1.27 1.3-1.9 2-.34.35-.47 2.8-.26 3.3.1.22 1.48-.55 1.84-.73 1.14-.7 2.93-1.4 3.58-1.84a25.6 25.6 0 0 0 3.37-2.06c2.55-1.86 5.35-3.36 8.77-3.81 2.76-.34 4.9-2.25 7.5-2.93 1.4-.4 2.86-.59 4.26-.9 1.44-.27 2.81-.61 4.15-1.14 2.82-1.16 6.05-1.36 9.08-2.54 2.99-1.15 6.06-2.63 9.21-4.04.92-.4 1.85-.81 2.77-1.25.92-.43 1.87-.83 2.78-1.3 4.69-2.22 8.68-5.48 12.58-8.56a20.53 20.53 0 0 1 4.86-2.78c1.56-.71 2.85-1.03 3.97-1.77.61-.3 1.32-.69 2.05-1.18.7-.64 1.51-1.34 2.25-2.9.36-.74.54-2.04.57-3.18-.03.94-.55.45-1.18-.3-.62-.74-1.38-1.74-1.49-1.83a6.17 6.17 0 0 0-1.96-1.02c-.69-.24-1.41-.46-2.13-.6-.74-.2-1.47-.37-2.19-.55-.75-.18-1.46-.25-2.22-.33a9.19 9.19 0 0 0-4.38.57 32.55 32.55 0 0 0-7.12 4.39c-.94.7-1.8 1.37-2.68 2.08-.87.71-1.79 1.31-2.68 1.97-3.1 2.13-6.18 4.12-9.65 5.53-2.06.86-4.42 1.39-6.77 2.13z"/></g></svg>