<?xml version="1.0" encoding="utf-8"?>
<!-- Generator: Adobe Illustrator 22.1.0, SVG Export Plug-In . SVG Version: 6.00 Build 0)  -->
<svg version="1.1" id="svg" xmlns="http://www.w3.org/2000/svg" xmlns:xlink="http://www.w3.org/1999/xlink" x="0px" y="0px"
	 viewBox="0 0 410 410" style="enable-background:new 0 0 410 410;" xml:space="preserve">
<g id="svgg">
	<path id="path0" d="M70.3,25.4c0,0.1,1.8,1.5,3.8,3c2.1,1.5,5.1,4,6.8,5.5c3,2.6,4.4,3.7,7.5,6c2,1.5,5.8,4.8,6.9,5.9
		c0.5,0.5,1.6,1.4,2.4,1.9c0.8,0.5,1.9,1.3,2.4,1.9c1.1,1.2,1.7,0.9,1-0.5c-1-2.1-7.7-8.2-13.3-12c-1.2-0.9-3.6-2.7-5.3-4
		C77.1,28.6,69.8,24.1,70.3,25.4 M63.3,31.9c0,0.4,1.2,1.4,2.7,2.2c0.9,0.4,3,2,8.1,5.9c4.2,3.2,11.1,9.6,13.8,12.7
		c1.1,1.3,2.8,3.2,3.8,4.3c1,1,2.5,3,3.5,4.3c1.9,2.7,2.5,3.1,3.7,2.2c0.4-0.3,1.7-0.7,3.2-0.9c1.3-0.2,3.2-0.5,4.1-0.7
		c3.3-0.6,4.1-0.4,7.5,1.8c2.6,1.7,3.5,1.6,1.8-0.1c-1.2-1.2-0.6-1.1,1.2,0.3c0.9,0.7,1.7,1.2,1.7,1.2c0.1,0,0.4,0.1,0.8,0.1
		c0.4,0,0.9,0.2,1.3,0.3c1.7,0.5,0.9-1.1-1.3-2.9c-6.7-5.4-6.2-5.1-10.7-5.5c-9-0.8-12.5-1.8-15.6-4.6c-1-0.9-3.3-2.9-5-4.4
		c-1.7-1.5-4.1-3.6-5.3-4.6c-2.4-2.2-5.4-4.3-6.2-4.3c-0.3,0-1.2-0.5-2-1.1c-2.4-1.8-5.6-3.8-8.4-5.3C63.1,31.3,63.3,31.4,63.3,31.9
		 M97.5,42c0,0.6,1.1,1.3,4.7,2.9c4.1,1.8,5,2.5,10.1,8c3.8,4.1,4.2,4.4,7,5.8c2.4,1.2,2.5,0.7,0.1-1.4c-1.1-1-2.3-2.3-2.7-2.9
		c-1-1.4-2.7-4.3-3.6-5.9c-0.9-1.5-2.4-2.7-4.1-3.1c-2.6-0.7-9.6-3-10.1-3.4C98.1,41.6,97.5,41.6,97.5,42 M214.4,52.3
		c-0.4,0.1-1.4,0.4-2.1,0.5c-4.1,0.9-10.1,4.8-13,8.2c-5.2,6.1-6.7,9-9,17.3c-0.5,1.6-1,3.6-1.2,4.4c-0.2,0.8-0.9,2.3-1.5,3.4
		c-0.9,1.7-1,2-0.6,2.1c1.1,0.4,3.2-3.3,4.7-8.3c1.3-4.3,4.8-10.8,7-13.2c2.3-2.3,6.3-4.6,8.2-4.6c3.4,0,10.9,3.7,13.9,6.8
		c4.4,4.6,7,16,5.8,25c-1.6,11.8-1.4,17.5,0.6,20.2c1.5,2,6.5,4.2,8.1,3.6c0.3-0.1-0.2-0.4-1.8-1.1c-3.3-1.2-5.2-2.9-6-4.9
		c-0.6-1.6-0.5-1.6,0.5-0.2c2.5,3.2,6.6,4.9,9.6,4c1.9-0.6,1.7-1-0.5-1c-1.7,0-3.8-0.8-5.2-1.9c-0.7-0.6-3.3-3.8-3.3-4
		c0-0.1-0.3-0.5-0.6-0.9c-0.3-0.4-0.8-1.3-0.9-2l-0.3-1.3l0.8,1.1c3.3,4.3,8.3,6.6,12.2,5.7l1.4-0.3l-2-0.3
		c-3.1-0.5-3.2-0.8-0.3-0.8c2.9,0,3.7-0.5,1.5-0.8c-0.7-0.1-1.7-0.3-2.2-0.5l-0.9-0.3l1.7,0c2.1,0,2.2-0.6,0-0.8
		c-0.8-0.1-1.7-0.3-2-0.5c-0.3-0.2-1-0.3-1.6-0.3c-1.2,0-3.7-1.4-5.4-2.9l-1.2-1.1l1.2,0.6c4.1,2,7.4,2.5,11,1.7
		c2.9-0.7,2.7-0.9-1-0.9c-3.6,0-3.7-0.1-0.7-0.6c2.4-0.4,3.3-0.8,3.3-1.4c0-0.3-0.1-0.3-1,0c-1.1,0.5-5.1,0.6-4.4,0.1
		c0.2-0.1,0.9-0.3,1.6-0.3c0.7,0,1.7-0.2,2.3-0.5c1.4-0.6,1.5-1.2,0.3-1c-4.7,0.9-7.8,0.4-10.8-1.8c-1.8-1.3-1.4-1.7,0.8-0.7
		c1.8,0.8,6.1,1,8.1,0.4c2.6-0.8,3-1.4,0.6-0.9c-2.7,0.5-2.8,0.1-0.2-0.6c1.8-0.5,1.7-1-0.1-0.9l-1.4,0.1l1.4-0.4
		c2.5-0.8,1.8-1.8-0.9-1.4c-2.1,0.3-4.8,0-7.3-0.9l-2-0.7l1.4,0c0.8,0,2.6-0.3,4-0.7c1.4-0.4,3-0.7,3.5-0.7s1.1-0.1,1.3-0.2
		c0.8-0.5,0-0.8-2.1-0.9l-2.1,0l1.3-0.4c0.7-0.2,1.8-0.4,2.4-0.4c0.9,0,1-0.1,0.6-0.3c-0.7-0.4-5.9-0.3-8.2,0.1
		c-2.3,0.4-2.5,0.4-1.6-0.3c1.9-1.4,6.7-2.9,9.4-2.9c0.1,0,0.2-0.2,0.2-0.4c0-0.6-2.8-0.8-4.5-0.3c-0.8,0.2-1.5,0.3-1.5,0.3
		c-0.2-0.2,2.7-1.2,4-1.3c1.3-0.2,1.5-0.3,1.5-0.7c0-0.6-0.9-0.7-3.3-0.2c-0.8,0.2-1.6,0.2-1.7,0.2c-0.2-0.2,3.2-1.2,4.2-1.2
		c1.8,0,1.1-0.4-0.9-0.6c-2.2-0.2-3.8,0.4-6.3,2.3c-1.6,1.2-1.5,0.8,0.4-1.3c1-1.2,1.7-1.6,3.5-2.3c1.2-0.5,2.1-1,2-1.1
		c-0.3-0.3-1.5-0.2-2.9,0.3c-0.7,0.3-1.6,0.6-1.9,0.7c-0.3,0.1-0.1-0.1,0.5-0.5c1.1-0.7,2.1-1.1,3.7-1.3c0.7-0.1,0.9-0.3,0.8-0.6
		c-0.2-0.6-2-0.5-4.1,0.3c-1,0.4-1.9,0.6-1.9,0.5c0-0.3,3.5-1.8,4.5-1.9c0.6-0.1,1.1-0.2,1.1-0.2c0-2.3-2.5-2.3-5.8,0.1
		c-2,1.5-2.2,1.5-1.3,0.1c1.5-2.3,3.7-3.7,5.1-3.1c0.4,0.2,1.1-0.6,0.9-0.9c-0.2-0.2-3,0.2-4,0.6c-0.3,0.1-0.2-0.1,0.3-0.4
		c0.4-0.3,1.4-0.7,2.2-0.9c1.4-0.3,1.7-0.8,0.4-0.8c-0.6,0-0.7,0-0.2-0.3c0.6-0.3,0.4-0.8-0.4-0.8c-1.7,0-3.5,0.9-5,2.4
		c-1.7,1.6-1.7,1.5-0.4-1.1c0.9-1.8,2.5-2.8,4.1-2.5c0.5,0.1,1,0.1,1.1-0.1c0.3-0.4-0.3-0.6-1.6-0.6c-1.5,0-1.5-0.1,0-0.5
		c1.7-0.4,1.2-0.9-0.6-0.6c-0.8,0.1-1.7,0.2-1.9,0.3c-0.3,0.1-0.2,0,0.1-0.2c0.3-0.2,1.1-0.5,1.9-0.6c1.1-0.3,1.3-0.4,0.8-0.5
		c-1.3-0.6-4.7,1.2-6.2,3.2c-1.1,1.6-1.1,1.4-0.2-0.8c1.1-2.5,2.5-3.7,4-3.6c1.1,0.1,1.7,0,1.7-0.3c0-0.3-1.5-0.3-2.8,0
		c-0.6,0.2-1.1,0.2-1.2,0.2c-0.2-0.2,0.8-0.7,2.4-1.1l1.4-0.4l-1.6,0.1c-0.9,0.1-1.9,0.2-2.3,0.3c-0.5,0.1-0.6,0.1-0.4-0.1
		c0.2-0.2,0.9-0.4,1.7-0.6c1.6-0.4,1.8-0.7,0.5-0.7c-1.4,0-3.6,1.2-5.6,3.1c-2.2,2.1-2.6,1.6-0.8-1.3c1.4-2.3,3.8-3.4,5.7-2.5
		c0.5,0.2,1.4-0.5,1.2-0.9c-0.2-0.4-3.4-0.3-4.8,0.1c-0.7,0.2-1.3,0.4-1.4,0.3c-0.2-0.2,2.6-1.2,3.8-1.5c1.4-0.3,1.7-0.5,1-0.7
		c-0.4-0.2-2.5,0.1-4.4,0.6l-0.7,0.2l0.7-0.4c0.4-0.2,1.1-0.5,1.7-0.7c1.9-0.5,1.9-0.5,1.5-0.8c-1.6-1-5,0.4-8.1,3.3
		c-2.5,2.4-2.6,2.4-1.3-0.1c1.8-3.3,2.9-4.3,4.7-4.4c1.6-0.1,2.2-0.4,1.9-0.9c-0.1-0.2-0.6-0.3-1.4-0.1c-0.7,0.1-1.7,0.2-2.2,0.3
		c-0.5,0-1.3,0.1-1.7,0.2c-0.8,0.2-0.8,0.2,0.1-0.3c0.5-0.3,1.6-0.7,2.3-0.9c0.8-0.2,1.3-0.4,1.3-0.5c-0.1-0.1,0.2-0.2,0.5-0.2
		c0.9,0,0.9-0.4-0.2-1C222.6,52.2,215.8,51.9,214.4,52.3 M220.3,53.4l0.8,0.2l-0.7,0c-1.7,0.1-4.3,1.7-6.3,4c-1,1.2-1.2,1.3-0.8,0.6
		c0.3-0.5,0.5-1.1,0.5-1.3C213.7,54.7,217.4,52.7,220.3,53.4 M210.9,55.3c-0.1,0.2-0.4,0.7-0.7,1.1c-0.3,0.4-0.8,1.2-1,1.7
		c-0.3,0.6-0.4,0.7-0.3,0.3c0.1-0.4,0.2-1,0.2-1.4c0-0.5,0.3-1,1-1.4C211,54.9,211.2,54.9,210.9,55.3 M126.9,60.7
		c-3.8,1.7-5.3,12.3-1.8,11.8c0.4-0.1,0.7-0.2,0.6-0.5c-0.3-1.2,1.5-6.6,3.2-9.4C129.8,61.1,128.7,59.9,126.9,60.7 M264.8,61.4
		c-5,1.2-7.3,6.1-7.5,15.6c-0.2,8,0.5,10.1,2.5,8.4c1.5-1.3,6.3-3,7.5-2.7c0.3,0.1,0.8,0.1,1.1,0c0.8-0.3-0.1-0.7-2.1-0.9
		c-2.3-0.2-1.3-0.7,1.1-0.6c1.7,0.1,1.8,0.1,1.4-0.3c-0.5-0.5-2.9-0.6-4.9-0.2c-1.4,0.3-1.3-0.2,0.2-0.6c0.6-0.2,1-0.4,0.9-0.5
		c-0.2-0.3-2.6-0.3-3.5,0l-0.8,0.3l0.7-0.6c0.6-0.6,4.4-2.1,6.2-2.4c1.8-0.4,0.8-1-1.4-0.9c-1.2,0.1-2.1,0-2-0.1
		c0.2-0.4,2.6-1.1,3.5-1.1c0.5,0,0.9-0.1,0.9-0.3c0-0.3-2.7-0.3-3.6,0c-1.3,0.5-1,0,0.3-0.6c0.7-0.3,1.2-0.6,1.2-0.6
		c-0.2-0.2-2.7,0.4-3.5,0.8l-0.8,0.4l0.7-0.7c1-1,2-1.7,3.7-2.4c1.8-0.7,1-0.9-1.2-0.2c-0.7,0.2-1.3,0.3-1.4,0.3
		c-0.2-0.2,1.3-1,2.8-1.5c1.8-0.6,1.4-1-0.5-0.5c-0.6,0.2-1.2,0.2-1.3,0.2c-0.3-0.3,1.3-1,2.4-1.2c1.2-0.1,1.4-0.6,0.3-0.6
		c-0.9,0-4.9,1.7-6,2.6l-1,0.7l0.9-1.1c1.4-1.8,3.4-3.3,5.1-3.9c0.5-0.2,0-0.2-1.3-0.1c-2.3,0.1-2.3-0.2,0-0.9l1.4-0.5l-1.1-0.1
		c-1.2-0.2-2.4,0.2-3.5,0.9c-1.1,0.7-0.9,0.1,0.2-0.8c3.3-2.9,9.4-1.5,11.8,2.5c0.7,1.2,1.4,1.5,1.4,0.7
		C275.6,64.6,268.6,60.4,264.8,61.4 M179.1,62.8c-3.3,5.8-5.7,17.9-4.8,23.8c1,5.8,3.6,12.1,5.7,13.6c0.6,0.4,1.7,1.2,2.3,1.7
		c2.9,2.1,6,2.1,10.3-0.1c3.1-1.5,6.4-5.1,6.4-6.9c0-0.6-0.5-0.5-0.8,0.1c-0.5,1-3.9,4.2-5.2,5c-0.7,0.4-1.6,1-2,1.3
		c-0.4,0.3-1.1,0.7-1.7,0.8c-1.1,0.2-1.1,0.2,0.7-0.9c2-1.2,3.5-2.7,3.3-3.3c-0.2-0.6-0.5-0.5-1.9,0.5c-0.7,0.5-1.4,0.9-1.6,0.9
		c-0.2,0-1.2,0.4-2.2,0.9c-1.5,0.7-2.3,0.9-3.3,0.9c-1.3,0-1.3,0-0.4-0.3c1.2-0.3,3.4-1.4,4.3-2.1l0.7-0.5l-0.8,0.2l-0.8,0.2
		l0.7-0.5c0.4-0.3,0.8-0.5,0.9-0.5s0.2-0.1,0.2-0.2c0-0.1-0.8,0.2-1.8,0.6c-3.1,1.5-4,1.6-1.4,0.1c1.7-0.9,1.6-1-0.1-0.4
		c-1.4,0.5-5.3,0.4-5.8-0.1c-0.2-0.2-0.1-0.3,0.6-0.3c1.2,0,2.7-0.4,3.3-0.9c0.5-0.4,0.5-0.4-0.4-0.2l-0.9,0.2l1.1-0.9
		c1.3-1.1,1.1-1.5-0.5-0.8c-2.2,1-4.3,1-4.6,0.1c-0.1-0.3,0-0.4,0.7-0.2c0.9,0.2,2.3-0.3,2.9-1c0.4-0.5,0.4-0.5-0.2-0.2
		c-1,0.5-1.1,0.3-0.2-0.3c1.3-1,0.6-1.5-1.3-0.8c-1.3,0.4-1.6,0.4-2.2,0.1l-0.7-0.4l1.3-0.2c1.2-0.2,2.6-0.8,2.6-1.2
		c0-0.1-0.4-0.1-0.9,0c-0.6,0.1-0.9,0.1-0.9-0.1c0-0.2,0.2-0.3,0.4-0.3c0.2,0,0.6-0.2,0.9-0.5c1-0.8,0.2-1.5-1.6-1.5
		c-1.8,0-2.4-0.1-2.4-0.6c0-0.2,0.3-0.4,0.8-0.4c1,0,2.7-0.7,2.7-1.1c0-0.2-0.4-0.3-0.9-0.3c-1.2,0-1.5-0.5-0.4-0.7
		c1.2-0.3,1.1-0.7-0.3-0.8c-1.6-0.1-2.4-0.3-2.3-0.6c0.1-0.1,0.4-0.2,0.7-0.1c0.8,0.1,2.1-1.2,1.6-1.5c-0.3-0.2-0.3-0.2,0-0.3
		c0.8-0.3-0.1-0.8-1.1-0.7c-0.7,0.1-1.1,0-1.2-0.3c-0.3-0.7-0.2-0.9,0.5-0.9c1.7,0,2-1.8,0.5-2.4c-1.1-0.5-1-0.9,0.1-0.8
		c0.5,0.1,0.9,0,0.9-0.1c0-0.1-0.1-0.2-0.2-0.2c-0.1,0-0.2-0.4-0.1-0.9c0.1-0.7,0-0.9-0.5-1.1c-0.7-0.2-0.7-0.9-0.1-1.1
		c0.6-0.2,1.1-2.6,0.6-3.2c-0.3-0.4,0.4-4.1,1.4-6.7C180.3,61.1,180.2,60.9,179.1,62.8 M236.5,68.2c7.2,14,9.3,22.4,8.9,35
		c-0.2,5-0.7,7.7-2.1,10.9c-0.5,1.2-0.2,1.7,0.7,1.5c2-0.5,2.9-5.2,2.9-15c0-9.1-0.5-12.2-3.5-19.9c-2-5.3-4.1-9.7-6.6-13.7
		C234,62.5,233.9,63.1,236.5,68.2 M132.3,66c-1.6,1-2.1,2-2.2,4.8c-0.3,6.4,2.4,9.5,3.1,3.5c0.2-1.7,0.6-3.7,1-4.8
		C135.6,65.8,134.9,64.5,132.3,66 M179.8,66.3c-0.6,1.6-1,6.8-0.7,10c0.3,3,0.5,4.3,1.7,8.7c0.9,3.4,3.4,6.4,6.9,8.5
		c3.4,2,9.1,1,11.1-2c0.9-1.3,0.6-1.3-1.3-0.1C192,95,185.8,93,183,86.8c-0.4-1-1-2.2-1.2-2.7c-0.2-0.5-0.4-1-0.4-1.1
		c0-0.2-0.2-0.7-0.5-1.3c-0.7-1.4-1.2-6.7-1-11.8C180,65.8,180,65.7,179.8,66.3 M214.3,68.5c-5.1,3.2-12.8,13.6-12,16.3l0.2,0.7
		l0.7-1.2c0.4-0.7,1.2-2,1.8-3.1c3-5.1,7.3-9.2,11-10.4c2-0.7,2.2-0.9,1.4-1.9C216.2,67.5,215.9,67.5,214.3,68.5 M273.5,70.6
		c0.5,0.6,0.6,0.7,0.1,0.7c-0.4,0-0.3,0.2,0.5,1.1c1.4,1.5,1.2,1.9-0.2,0.5c-0.7-0.6-1.2-1-1.2-0.9c0,0.5,1.5,3.3,2.1,3.9
		c0.3,0.3,0.7,1,0.9,1.5l0.5,0.9l-1.1-1.1c-0.6-0.6-1.1-0.9-0.9-0.7c0.3,0.5-0.5,0.4-0.9-0.1c-0.2-0.2-0.5-0.4-0.6-0.4
		c-0.2,0,0.4,0.7,1.3,1.6c1.8,1.8,1.7,2.1-0.2,0.5c-0.7-0.6-1.3-1.1-1.4-1.1c-0.3,0,0,0.6,0.7,1.3c0.8,0.8,3.5,5.1,3.5,5.5
		c0,0.1-0.3,0-0.6-0.4c-0.7-0.8-1.9-1.6-2.4-1.6c-0.2,0-0.1,0.1,0.3,0.3c0.3,0.2,0.6,0.4,0.6,0.5s-0.3,0.2-0.6,0.1
		c-0.3-0.1-0.9-0.2-1.3-0.3c-0.4-0.1,0.1,0.3,1.1,1.1c2.3,1.5,2.4,2.1,0.2,0.7c-2.6-1.7-2.9-1.2-0.6,0.9c1.4,1.3,3.3,4.1,3.3,4.9
		c0,0.2-0.7-0.2-1.5-0.9c-1-0.8-1.7-1.2-2.3-1.2c-1.1,0-1,0.4,0.2,1.1c0.5,0.3,0.8,0.7,0.7,0.7c-0.2,0.1-0.6-0.1-1-0.4
		c-1.2-0.8-1.1-0.2,0.2,1.2c0.7,0.7,1.4,1.7,1.7,2.1c0.3,0.5,0.7,0.9,1,1c0.4,0.1,0.4,0.3,0.3,0.7c-0.3,0.8-0.3,0.8-1.4-0.1
		c-1.7-1.4-3.3-0.9-1.7,0.6c0.8,0.7,0.7,0.8-0.4,0.3c-0.9-0.4,1,3.3,2,3.9c0.8,0.5,0,0.6-1,0.2c-1.6-0.6-2.1-0.6-1.4,0.1
		c0.5,0.6,0.5,0.6,0,0.4c-0.4-0.2-0.5-0.1-0.4,0.6c0.1,0.4,0,0.8-0.1,0.8c-0.7,0,0.7,2.1,1.6,2.4c0.9,0.3-0.2,2.8-1.2,2.7
		c-1-0.1-1.5,0.3-1,0.8c0.4,0.4,0.4,0.7-0.1,0.7c-0.2,0-0.4,0.1-0.4,0.2c0,0.1,0.2,0.4,0.4,0.6s0.4,0.5,0.4,0.6c0,0.1-0.2,0.1-0.4,0
		c-0.5-0.2-0.5,0.5,0,1c0.8,0.8,0.2,1.9-1,1.8c-0.7-0.1-1,0-1.2,0.4c-0.4,0.7-1.4,4.8-1.4,5.6c0,0.8-0.8,2.4-1.9,4
		c-1.6,2.3-6,2.8-7.7,0.8c-0.4-0.4-0.2-1.3,1.3-7.9c0.6-2.7,0.9-4.5,1-7.3c0.2-4.3-0.3-5.7-0.5-1.7c-0.2,3.4-0.7,4.9-0.6,1.8
		c0.2-5.2-0.7-9.5-2.8-12.9c-0.7-1.1-1.6-2.7-2.1-3.6c-1.1-2.1-4.8-5.7-4.8-4.6c0,0.1,0.6,0.7,1.2,1.4c1.6,1.5,2.8,3.3,2.6,3.8
		c-0.1,0.2,0.4,1.2,1,2.2c0.6,1,1.6,2.7,2.1,3.7l1,1.9l0,4c0,2.9-0.2,4.9-0.6,7.2c-0.3,1.8-0.7,3.9-0.9,4.8
		c-0.3,1.9-1.3,5.5-1.5,5.4c-0.1-0.1,0.1-1.2,0.4-2.6c0.8-3.9,0.9-5.3,0.5-5.5c-0.3-0.1-0.4-0.7-0.3-3.5c0.1-1.9,0-4.1-0.1-5
		c-0.2-1.4-0.3-1.2-0.3,2.2c0,4.3-0.3,6.5-0.6,5.9c-0.1-0.2-0.2,0.6-0.2,2c0,2.5-0.5,5.8-0.8,5.8c-0.1,0-0.1-0.7-0.1-1.6
		c0.1-1,0-1.7-0.2-1.9c-0.2-0.2-0.3-0.1-0.3,0.6c0,1.2-0.7,3.9-1.3,5.1c-0.7,1.3-0.7,0.3-0.1-2.1c0.8-3.1,0.3-22.5-0.6-23.4
		c-0.1-0.1-0.1,4.8-0.1,10.7c0,6.6-0.1,10.9-0.3,11c-0.2,0.1-0.3-0.7-0.3-2.1l-0.1-2.2l-0.6,2.4c-0.3,1.3-0.6,2.9-0.6,3.5
		c0,1.3-0.4,1.7-0.6,0.5c-0.1-0.5-0.1-0.9,0.1-1c0.2-0.1,0.2-0.3,0.1-0.5c-0.1-0.2-0.3-0.2-0.6,0c-0.3,0.2-0.4,0.2-0.4-0.1
		c0-0.5-0.1-0.5-1.1,0c-0.5,0.3-0.9,0.7-1,1.2c-0.1,0.5-0.4,0.9-0.8,1.1c-0.4,0.1-1,0.6-1.4,1c-1.2,1.3-6,2.2-8.9,1.7
		c-4.4-0.8-6.3,2-2.5,3.6c1.8,0.8,4,3,5.6,5.6c2.3,3.7,5,6.2,7.5,7.1c2.2,0.7,2.2,0.7,2.4-5.1c0.2-7.7,1.2-7,2.1,1.5
		c0.4,3.5,1.3,4.7,1.8,2.2c0.1-0.5,0.5-1.5,0.9-2.1c0.4-0.6,1-2,1.2-3.1l0.5-1.9l0.1,1.6c0.1,1.1-0.1,2.2-0.6,3.7
		c-0.6,2-0.8,3.1-0.6,3.1c1,0,6.6-3.4,9.8-5.8c1.4-1.1,3.3-2.5,4.1-3c1.9-1.3,2.2-2.1,2.2-5.6c0-3.4,0.3-4.1,3.4-10.4
		c4.9-9.8,8.2-28.3,6.5-36.5c-0.2-0.9-0.3-2.2-0.3-2.9c0-0.7-0.2-1.8-0.5-2.4s-0.6-1.7-0.7-2.4c-0.2-1.3-0.7-1.5-0.7-0.3v0.7l-1.1-1
		C273.3,69.8,272.5,69.6,273.5,70.6 M139.2,70.7c-2.8,1.7-2.7,10.6,0.1,10.9c1.3,0.1,1.5-0.4,1.6-3.4l0-2.6l1-1
		c1-1.1,1.3-1.9,0.6-2.5c-0.2-0.2-0.4-0.6-0.5-1C141.8,70.1,140.4,69.9,139.2,70.7 M302.3,73.4c0,6.6-6.2,17.6-11.9,21.2
		c-0.6,0.4-1.3,1-1.6,1.4c-0.8,1.3-6.8,3.9-8.9,3.9c-0.9,0-1.6,0.4-1.1,0.6c0.2,0.1,0.6,0.7,0.9,1.3c0.8,1.6,2.3,3.1,3.1,3.1
		c0.6,0,0.6,0-0.2-0.7c-1.2-1-0.8-1.1,0.7-0.1c1.8,1.1,3.7,1.1,2.6,0c-0.4-0.4-0.4-0.4,0.3-0.3c0.8,0.1,0.6-0.1-0.6-0.9
		c-0.3-0.2,0.4,0,1.5,0.4c2.5,0.9,3,0.8,0.8-0.3c-1.7-0.8-2.3-1.3-0.6-0.6c2.7,1.2,2.3,0.1-0.5-1.5c-0.5-0.3-1-0.7-1-0.8
		c0-0.4,1-0.2,1.5,0.3c0.7,0.8,2.9,1.8,3.8,1.8c0.7,0,0.7,0-0.3-0.4c-0.6-0.2-1.1-0.5-1.2-0.6c-0.1-0.1,0-0.1,0.3,0
		c2.9,1.1,4-0.7,1.1-1.8c-0.7-0.3-1.3-0.6-1.5-0.8c-0.4-0.5-0.1-0.5,1.2,0.2c0.6,0.3,1.6,0.6,2.2,0.7l1.1,0.2l-1.2-0.6
		c-1.5-0.7-1.3-1,0.2-0.4c1.9,0.7,2.3-0.3,0.5-1.5c-1.9-1.3-1.4-1.6,1-0.6c1.1,0.4,1.9,0.6,2.2,0.5c0.5-0.2,0.5-0.2-0.5-0.6
		c-1.4-0.5-1.9-1-0.7-0.7c2.7,0.6,3.2-0.4,0.9-1.5c-0.7-0.4-1.4-0.7-1.4-0.7c-0.7-0.5,0.9-0.9,1.9-0.5c1.9,0.7,3.1,0.4,1.6-0.5
		l-0.7-0.4l0.7,0.2c1.1,0.2,1.2-0.6,0.3-1.4c-1.1-1-0.7-1.6,0.9-1.5c1.5,0.2,2.3-1.6,1.2-2.7l-0.6-0.6l1.1-2.2
		c1.2-2.4,1.2-2.6,0.5,1.9c-1.1,8-5.7,15.3-10.9,17.8c-1.4,0.7-2.8,1.3-3.9,1.9c-2.6,1.4-6.8,1.6-9.2,0.4c-1.3-0.6-1.7-0.6-1,0.2
		c2,2.2,7.6,2.2,12.2,0.1c8.1-3.7,13-10.3,14.7-20c1-6,1-8.4-0.4-12.1C302.6,71.7,302.3,71.6,302.3,73.4 M145.3,75.7
		c-0.1,0.3,0.1,0.8,0.8,1.4c1.3,1.4,3.6,4.3,4.1,5.2c0.7,1.2,5.2,1.5,5.4,0.3c0.1-0.5-0.4-0.9-3.2-2.7c-1.8-1.2-4-2.6-4.9-3.3
		C145.5,75.1,145.5,75.1,145.3,75.7 M251.6,77.9c0.9,1.2,2,2.8,2.3,3.4c0.4,0.6,0.7,1.1,0.8,1.1c0.3-0.3-3.3-5.4-4.3-6.3
		C250.1,75.8,250.7,76.7,251.6,77.9 M151.6,84.5c-2,0.2-7.8,1.2-8.8,1.6c-1,0.4-1.1,0.4,2.5-0.3c2.7-0.6,3.7-0.4,1.3,0.2
		c-2.7,0.7-9.5,2.9-9.4,3c0.1,0.1,2-0.4,4.4-0.9c6.7-1.7,12.3-2.1,18.6-1.3c3.7,0.4,3.5,0.1-0.3-0.4c-3.7-0.5-5.1-0.9-3.5-0.9
		c2.6-0.1,11.4,1.6,15,2.8c1.7,0.6,2.2,0.5,1.5-0.1c-0.4-0.4-5.4-2.1-8-2.7C161.9,84.6,155.6,84.2,151.6,84.5 M261.1,85.6
		c-1.9,0.5-2.3,0.9-2.2,2.3c0.3,2.1,0.4,2.2,3.2,1.1c1-0.4,2-0.7,2.3-0.7c0.6,0,0.8-0.5,0.2-0.6c-0.7,0,0.8-0.5,1.7-0.5
		c0.5,0,1.1-0.1,1.1-0.3c0.3-0.4-1.5-0.6-3.1-0.3c-1.8,0.3-2.4-0.1-0.8-0.5C265.4,85.6,263.1,85.1,261.1,85.6 M205.7,86.9
		c-0.1,0.2,0.2,1.1,0.6,2.1c1.3,2.9,1.8,5.6,2.5,13.2c0,0.5,0,3-0.2,5.6c-0.5,9.8,0.4,12.1,4.6,12.1c3-0.1,5-0.8,3.9-1.4
		c-3-1.7-5.6-4.9-5.4-6.7c0.1-0.5,0.1-1.5,0.2-2.2c0-0.9,0.1-1.1,0.2-0.5c0.3,2.6,1.1,2.9,1.2,0.5c0-2.4,0.4-2.9,0.8-1.1
		c1,4.4,4.9,9.3,5.9,7.4c0.3-0.5,0.1-0.7-0.9-1.7c-2.2-2.1-4.4-7.6-5-12.6c-0.4-3.5-0.9-5-2.4-7.7C210.1,91.1,206,86.3,205.7,86.9
		 M165.9,87.7c1.5,0.3,3.2,0.9,3.9,1.2c0.7,0.3,1.6,0.5,2.1,0.5c0.9,0,0.9,0-0.5-0.5c-1.7-0.6-6.8-1.8-7.6-1.8
		C163.4,87,164.4,87.3,165.9,87.7 M219.3,87.3c-2,0.1-3,0.3-3.3,0.6c-0.7,0.6-2.8,1.3-3,0.9c-0.1-0.2-0.3-0.2-0.7,0
		c-0.9,0.5,0.3,0.7,2.1,0.3c0.9-0.2,3.5-0.4,5.7-0.5c3.7-0.1,4.1-0.2,4.1-0.6c0-0.4-1.3-1.1-1.8-1C222.2,87.1,220.8,87.2,219.3,87.3
		 M136.1,88.2c-1.5,0.6-3.5,1.8-3.1,1.8c0.1,0,0.7-0.3,1.3-0.6c0.6-0.3,1.8-0.9,2.6-1.2c0.8-0.3,1.3-0.6,1.1-0.6
		C137.8,87.5,136.9,87.8,136.1,88.2 M300.7,88.1c0.3,0.2,0.2,0.3-0.3,0.3c-0.4,0-0.7-0.1-0.6-0.3C299.9,87.7,300.2,87.7,300.7,88.1
		 M247.1,88.3c0,0.2,3.1,5.1,3.6,5.9c0.4,0.6,0.3-0.5-0.2-1.5C249.4,90.2,247.1,87.3,247.1,88.3 M144.1,88.9
		c-4.8,0.8-8.9,2.3-13.4,4.9c-1.3,0.8-3.2,1.8-4.2,2.3c-4.4,2.3-8.7,6.1-12.2,10.9c-2.9,3.9-2.4,3.6,2.6-1.6
		c2.4-2.5,4.9-4.9,5.6-5.4c1.2-0.8,1.1-0.7-0.8,1.3c-5.8,6.2-9.1,11.3-12.1,19c-1,2.5-3.1,7-4.8,10c-1.7,3.2-0.6,1.6,2.3-3.3
		c1.5-2.6,3.5-6.2,4.4-8c3.1-6.5,7.3-12.3,11.7-16.1c1.2-1,2.2-2,2.2-2.1c0-0.8,7.7-5.2,12.9-7.3c4.3-1.8,11-3.7,15.5-4.4l1.6-0.3
		l-2,0.1c-3.7,0.2-15,2.7-17.1,3.8c-0.4,0.2-1.1,0.5-1.5,0.6c-1.3,0.5,0.1-0.5,2.2-1.5c1.8-0.9,2.6-1.1,8.7-2.8
		C148.9,88.3,148.3,88.2,144.1,88.9 M165.4,89.3c0.6,0.4,2.2,0.8,2.2,0.6c0-0.3-1.6-1-2.2-1h-0.6L165.4,89.3 M219,89.1
		c-1.7,0.2-2.7,0.5-1.7,0.5c0.2,0,0.4,0.1,0.4,0.2c0,0.2-2.2,0.8-3.1,0.8c-0.2,0-0.4,0.1-0.4,0.3c0,0.3,1.6,0.4,2.4,0
		c0.3-0.1,1.3-0.3,2.1-0.4c1.5-0.2,1.4-0.1-0.4,0.6c-0.6,0.2-0.7,0.4-0.5,0.6c0.2,0.2,0,0.4-0.8,0.9c-1.9,1-1.6,1.1,2.9,1.1
		c4.8,0,5.3-0.3,2.3-1.4l-1.7-0.6l2.1,0.2c1.7,0.1,2.1,0.1,2.2-0.3c0.2-0.6,0.1-0.7-1.6-0.9c-2.4-0.3-2.3-1.1,0.1-1.1
		c0.9,0,1.1-0.1,0.8-0.3C223.4,89,221,88.9,219,89.1 M153.5,91.1c-10.5,1-24.2,7.3-29.7,13.8l-0.5,0.6l0.6-0.4
		c6.8-4.6,8.1-5.4,13.3-7.5c3.8-1.6,8.7-3.1,9.8-3.1c0.5,0,1.8-0.3,3-0.7c1.2-0.4,3.4-0.9,5-1.1c2.7-0.4,3.2-0.6,1.9-0.9
		c-0.3-0.1,0.2-0.1,1.2-0.2c2.4,0,6.4,0.6,11,1.9c4.2,1.1,4.3,1.1,4.3,0.8c0-0.9-7.6-2.9-11.9-3.1c-1.3-0.1-3.1-0.2-3.9-0.2
		C156.7,90.9,154.9,90.9,153.5,91.1 M261.3,90.9c-0.8,0.2-1.2,1-1.1,2.2c0.1,1.1,0.7,1.4,3.3,1.2l1.3-0.1l-0.8-0.3
		c-0.8-0.3-0.8-0.3,0.8-0.5c2.8-0.3,2.8-0.6-0.2-1.1c-1.7-0.3-1.2-0.8,0.7-0.6c1.6,0.1,1.7,0.1,1.3-0.3
		C266.2,90.9,262.6,90.6,261.3,90.9 M199.4,91.4c-0.2,0.6,0.4,1.2,0.7,0.7c0.1-0.2,0.2-0.5,0.2-0.6C200.2,91,199.6,90.9,199.4,91.4
		 M155.6,93.7c-3.4,0.2-5.7,0.7-8.6,1.9c-1.2,0.5-3.3,1.3-4.7,1.7c-4.4,1.5-8.4,4.1-12.9,8.5c-2.8,2.7-2.9,2.9-1.1,1.4
		c7-5.8,23.7-12.5,31.1-12.5c4,0,7.2,0.4,8.8,1.2c0.7,0.3,2.2,0.9,3.2,1.1c1,0.3,2.5,0.8,3.3,1.1c0.8,0.3,1.3,0.5,1.2,0.3
		c-0.5-0.5-8.6-3.6-11.1-4.2C161.9,93.6,159.4,93.4,155.6,93.7 M219,95c-0.7,0.3-1,0.8-0.5,0.8c0.1,0,0.2,0.2,0.1,0.5
		c-0.2,0.8,1.2,0.7,1.5-0.1c0.1-0.4,0.4-0.7,0.6-0.7c0.5-0.2,0-0.8-0.5-0.7C219.9,94.8,219.4,94.9,219,95 M206.6,97.7
		c-0.2,1.5-1.1,6.1-2.1,10.2c-1.9,8-1.9,8.2-1.6,13.1c0.2,3.9,0.2,4.8,0,6.1c-0.1,0.9-0.1,1,0.4,1c0.3,0,0.6-0.2,0.6-0.5
		c0-0.3,0.1-0.1,0.2,0.3c0.2,1,0.9,1.2,1.3,0.3c0.2-0.4,0.5-0.7,0.7-0.7c0.4,0,0.4,0.1,0,0.7c-0.6,0.9-0.3,1.7,0.4,1.2
		c0.7-0.6,2.1-1.3,2.5-1.3c0.2,0,0.5-0.2,0.7-0.4c0.2-0.2,0.6-0.4,1-0.4c0.5,0,0.7-0.3,1.1-1.2c0.3-0.6,0.6-1.2,0.8-1.3
		c0.4-0.2,0.4-1.2,0-1.2c-0.2,0-0.7,0.3-1.1,0.6c-1.4,1-1.6,1.1-1.3,0.5c0.8-1.4,0.2-1.8-1.2-0.7l-0.9,0.7l0.2-0.8
		c0.6-2.4,0-2.9-1.1-0.8c-0.9,1.8-1,1.8-0.7,0c0.8-4.4,0.5-5.5-0.7-3.1c-0.8,1.5-0.8,1.3-0.2-1.3c0.8-3.1,0.4-4.2-0.5-1.3
		c-1,3.3-1,1.5,0.1-3.4c0.7-3,0.7-4.2,0.2-2.8c-0.4,1.1-0.3,0.2,0.4-2.8c1.2-5.6,2-13.5,1.3-13.5C207,95,206.8,96.2,206.6,97.7
		 M260.6,96.7c-0.4,2.7,1.1,3.9,4.4,3.6c0.7-0.1,0.6-0.8-0.1-1.1c-0.5-0.2-0.5-0.2,0.3-0.2c1.5,0.1,1.3-0.9-0.2-1.2
		c-1.4-0.3-1.6-0.8-0.2-0.6c1.8,0.3,0.9-0.3-1.2-0.9C260.9,95.6,260.8,95.6,260.6,96.7 M278.7,96.5c-0.1,0.1-0.2,0.6-0.3,1.1
		l-0.2,0.9l1.3,0c0.7,0,1.8-0.2,2.4-0.5l1.1-0.5l-1.7-0.3c-0.9-0.2-1.7-0.4-1.8-0.6C279.3,96.3,278.9,96.3,278.7,96.5 M156.5,96.9
		c-3.4,0.7-11,3.3-11.9,4.2c-1.3,1.2-0.2,1.1,2.4-0.2c2.2-1.1,5.4-2.2,7.9-2.8c2.1-0.5,1.9-0.1-0.2,0.5c-3.7,1-8.8,3.4-12.5,5.9
		c-1.3,0.9-1.1,0.9,1.4-0.1c9-3.6,12.1-4.3,18.2-4.3c6.9,0,10.7,0.4,12.7,1.3c0.9,0.4,2.4,1,3.3,1.4c1,0.4,2.5,1.1,3.3,1.6
		c2.4,1.5,3.6,1.9,3.6,1.4c0-0.3-4.7-3.3-7.9-5c-3.9-2.1-5.2-2.5-11.2-3.2C158.4,96.6,158.1,96.6,156.5,96.9 M201.4,99.7
		c-0.7,0.4-1.9,0.8-2.7,0.8c-2.9,0.3-2.4,1.7,0.5,1.7c2.8,0,4.1-0.7,4.1-2.1C203.3,98.8,203.1,98.7,201.4,99.7 M135.1,99.9
		c-12.3,5.2-19.5,12.8-25.3,26.7c-3.4,8.2-7.9,15.5-13,20.9c-1,1.1-1.4,1.9-0.5,1.1c5.5-5,12.6-16.4,17-27.2
		c0.9-2.2,1.6-2.8,0.9-0.8c-1.8,4.8-2.8,8.3-3.1,9.9c-0.1,1-0.4,2-0.6,2.4c-0.2,0.3-0.3,0.6-0.2,0.7c0.2,0.2,1.8-3.9,3.6-9.5
		c1.7-5.3,3.9-10.3,4.7-11c0.2-0.2,0,0.5-0.4,1.6c-1.7,4-2.7,7.3-1.5,5.1c2.5-4.7,7.1-11.1,8.1-11.3c0.3,0,1.2-0.7,2-1.5
		c1.2-1.2,7.2-5.9,9.3-7.4C137,99.1,136.8,99.2,135.1,99.9 M254.6,99.5c0,0.2,0.1,1.4,0.3,2.7c0.3,1.9,0.3,2.1,0.4,0.9
		c0-0.7-0.1-1.9-0.3-2.7C254.8,99.7,254.6,99.3,254.6,99.5 M219.1,100.1c-2,0.7-2.7,2-0.7,1.4c0.3-0.1,0.6,0,0.8,0.3
		c0.3,0.3,0.5,0.4,1.3,0.1c1.2-0.3,1.6-0.8,0.6-0.8c-0.4,0-0.7-0.1-0.8-0.3c-0.3-0.4,0.9-0.9,2.2-0.8c1.2,0.1,1.6-0.1,0.6-0.4
		C221.9,99.4,220.6,99.5,219.1,100.1 M260.8,101.6c-1,1.6-0.4,3.9,1.3,4.6c1.4,0.6,3.2,0.7,2.4,0.1c-0.5-0.4-0.5-0.4,0.2-0.4
		c1,0,1.2-0.5,0.4-1.2c-0.6-0.5-0.6-0.5,0-0.4c0.8,0.2,1.1-0.3,0.5-0.8C265.2,103.1,261,101.4,260.8,101.6 M150.8,103.2
		c-2,0.6-4.2,1.4-4.9,1.8c-0.7,0.4-2.3,1.1-3.4,1.6c-2.3,1.1-4.1,2.2-5.8,3.7c-1.8,1.7-1.8,2.1,0.1,0.7c1.9-1.4,7.7-4.6,9.6-5.3
		c1.4-0.5,2.3-0.3,1.1,0.2c-1.6,0.6-8.8,4.6-9.6,5.2c-0.7,0.6-0.5,0.5,1.2-0.3c2.5-1.2,9.2-4.1,10.4-4.4c0.5-0.1,2.2-0.7,3.8-1.2
		c5.6-1.8,11.8-2.1,15.7-0.8c2.5,0.9,2.6,0.8,1-0.1c-3.1-2-4.3-2.2-10.2-2.2l-5.3,0L150.8,103.2 M140,103.1
		c-7.9,4.3-13.4,10.7-17.1,20.1c-1.6,4-3.4,7.6-4.6,9.3c-1.2,1.6-3.3,3.9-3.7,3.9c-0.2,0-0.8,0.6-1.3,1.4c-1.5,1.9-1.7,2.3-0.7,1.5
		c0.4-0.4,0.9-0.7,1.1-0.7c0.6,0,2.3-1,3.5-2.1c0.7-0.6,1.4-1.1,1.5-1.1c0.2,0,0.3-0.1,0.3-0.3c0-0.3,2.5-4.1,4-5.8
		c0.4-0.5,1.9-3.2,3.3-6s2.8-5.3,3.1-5.6c0.3-0.3,0.9-1.1,1.3-1.8c0.9-1.7,1.3-2.2,1.6-2.5c0.1-0.1,0.2-0.2,0.1-0.2
		c-0.3,0,0.7-1.4,2.6-3.6l1.3-1.6l-1.8,1.6c-1,0.9-2.3,2.2-2.9,3c-1.8,2.2-1.5,1.3,0.4-1.1c2.2-2.8,5.6-6,8.2-7.9
		C142.4,102,142.3,101.8,140,103.1 M172.4,102.6c0,0.1,0.6,0.5,1.3,1.1c0.7,0.5,2.6,2.1,4.1,3.4c1.5,1.3,3.7,3.1,4.9,3.9
		c1.9,1.3,3.1,1.8,7.4,3.8c2.3,1,3.8,1.4,6.3,1.5l2.5,0.1l-2-0.4c-3.2-0.6-5.3-1.2-7-2.1c-1.9-1-1.8-1.3,0.1-0.6
		c2.2,0.8,5.8,1.4,7.8,1.3l1.8-0.1l0.2-1.1c0.1-0.6,0.3-1.3,0.3-1.7c0.1-0.4,0-0.6-0.3-0.6c-0.2,0-0.5-0.2-0.6-0.4
		c-0.1-0.3-0.8-0.4-3.7-0.4c-3.8,0-6.3-0.3-8.8-1c-2.1-0.6-1.8-0.7,0.8-0.2c1.2,0.2,2.5,0.4,3.1,0.3c0.9,0,0.9,0,0.1-0.1
		c-3.8-0.5-10.6-2.7-13.3-4.2C175,103.8,172.4,102.4,172.4,102.6 M200.4,103.7c-1.2,0.5-2.8,0.9-3.4,0.9c-1.4,0-2.6,0.4-2.4,0.9
		c0.3,1,3.1,1,7,0.2c1.2-0.3,1.4-0.4,1.5-1.1C203.6,102.4,203.6,102.4,200.4,103.7 M133.6,104.9c-3,1.7-4.7,2.8-6.7,4.6
		c-0.6,0.6-1.3,0.9-1.4,0.9c-0.6-0.3-4.9,5.7-6.3,8.7c-2.2,4.9-2,5.2,0.4,0.9c1.9-3.5,5.7-8.9,5.9-8.6c0.1,0.1-0.3,0.8-0.8,1.6
		c-1.4,2.2-4.1,7.9-5.7,12.1c-0.8,2.1-2,4.8-2.7,6.1c-0.7,1.3-1.3,2.4-1.2,2.5c0.3,0.3,3.1-4.6,5.4-9.4c4.2-9,7.8-13.8,14.5-19.2
		c2.3-1.8,2.1-1.7,1.8-1.7C136.6,103.3,135.2,104,133.6,104.9 M220,103.7c-2.2,0.3-2.8,1-1.1,1.3c1.1,0.2,2.6-0.1,2.6-0.5
		c0-0.2,0.4-0.2,0.8-0.2c0.9,0.1,1.3-0.2,0.8-0.6C222.7,103.5,221.5,103.5,220,103.7 M157.5,105.1c-0.2,0.1-1.8,0.7-3.6,1.2
		c-1.8,0.5-3.9,1.4-4.7,1.8c-0.8,0.5-1.8,1-2.2,1.2c-1.7,0.9-9.5,7.7-9.5,8.4c0,0.5,0.6,0.1,2.1-1.3c1.5-1.3,6-4.8,6.9-5.3
		c0.2-0.1-0.3,0.5-1.2,1.3c-1.7,1.6-1.6,1.7,0.4,0.3c1.7-1.2,2.9-1.8,3-1.4c0,0.1,1.1-0.3,2.4-0.9c6.4-3.4,12.4-3.5,20.1-0.4
		c1.1,0.4,2.6,0.9,3.4,1.1c1.7,0.4,4,1.9,6.3,4.3c2.2,2.3,4.8,4.3,5.1,4.1c0.1-0.1,0.5,0,0.7,0.1c0.4,0.2,0.4,0.3-0.2,0.1
		c-1.1-0.3-0.4,0.3,1.4,1.2c2.1,1,4.9,2,6.5,2.3c1.4,0.2,1.3-0.3-0.1-0.5c-1.3-0.2-4.3-1.8-5.5-2.8L188,119l1.7,0.8
		c3.1,1.5,9.2,3.2,8.7,2.4c-0.1-0.2,0.3-0.4,1-0.5l1.1-0.3l-1.4,0.1c-2.6,0.3-13.9-5.1-17.1-8.1c-3.1-3-9.7-6.8-13-7.6
		C165.5,105,158.4,104.6,157.5,105.1 M220.1,106.1c-2.8,0.6-3.1,1.6-0.5,1.4c1.7-0.1,2.9-0.4,2.9-0.6c0-0.3-0.6-1.2-0.7-1.1
		C221.7,105.7,220.9,105.9,220.1,106.1 M252.7,108.7c0,3.2,0.5,4.1,0.5,1.1c0-1.7-0.1-2.7-0.2-2.7
		C252.8,107,252.7,107.7,252.7,108.7 M261.2,109c-1.4,3.7,0.8,5.5,2.5,2.1c0.6-1.2,0.5-1.6-0.4-2.2
		C262.1,108.2,261.5,108.2,261.2,109 M193.6,109.7c-1.7,0.2-1.6,0.2,1.2,0.2c1.7,0,3.2-0.1,3.5-0.2
		C198.7,109.4,196.7,109.4,193.6,109.7 M165.3,110.4c1.9,0.6,1,0.7-2.1,0.4c-1.5-0.2-3-0.3-3.3-0.2c-0.3,0.1-0.6,0-0.7-0.1
		c-0.8-1.3-8.6,1.2-13.3,4.3c-1.8,1.2-1.6,1.2,2.6,0.2c9.1-2.2,17.8-2.1,24.3,0.2c1.1,0.4,2,0.7,2.1,0.7c0.5,0-3.7-2.4-4.9-2.8
		c-1-0.4-1.2-0.5-0.7-0.6c1.4-0.2,3.3,0.8,8.9,4.5c1.7,1.1,3.3,2.1,3.6,2.2c0.7,0.3-3.5-4.3-4.8-5.2c-1.5-1-3.3-1.9-3.6-1.8
		c-0.2,0.2-3-0.6-5.5-1.6c-1-0.4-2.3-0.7-2.9-0.7l-1.1,0L165.3,110.4 M139.5,112.3c-4.3,2.5-8.3,6.5-11.4,11.6
		c-1.6,2.6-1.5,2.9,0.5,1c0.8-0.8,1.9-1.7,2.4-2.1c0.5-0.3,1.6-1.6,2.5-2.8c1.6-2.1,7-7.7,8.6-8.9
		C143.4,110.1,142.8,110.4,139.5,112.3 M155.1,115.8c0.5,0.3,1.1,0.3,0.9,0c-0.1-0.1-0.4-0.3-0.7-0.3
		C154.8,115.5,154.7,115.6,155.1,115.8 M158.4,117.1c1.5,0.8,2.3,1,2.8,0.9c0.4-0.1,1.3-0.3,2.1-0.5l1.5-0.3l-1.4-0.4
		c-0.8-0.2-2.7-0.5-4.3-0.6l-2.8-0.1L158.4,117.1 M145.5,117.8c-9.3,3-14.7,6.6-21,14.2c-1,1.2-2,2.2-2.1,2.3
		c-0.2,0.1-2.1,2.4-4.2,5.2c-4.6,6-4.6,6-6.8,8.3l-1.7,1.8l1.9-2.9c1.8-2.8,2.4-3.5,3.9-4.9c1-0.9,0.8-1.2-0.6-1.1
		c-1.1,0.1-2.6,0.8-7.3,2.9c-1.7,0.8-5.4,3.2-7.2,4.7c-3.4,2.8-6.6,5.5-7.2,6.2c-3.6,3.8-4.7,5-6.6,7.5l-1.1,1.4l0.9,0.7
		c2,1.5,5.7,5.8,8.9,10.4c1.7,2.4,2,2.5,3.3,1.4c0.5-0.4,1.7-1,2.8-1.3c7.3-2.2,7.7-2.5,5.3-5.1c-1.7-1.8-3-2.3-6.8-2.9
		c-3.8-0.6-3.9-0.6-2-1c5.1-1,9.1,0.1,15.6,4.4c4.6,3.1,7.3,4.4,9.6,4.9c0.8,0.2,3.4,1.1,5.7,2.2c5.2,2.2,5.9,2.4,13.9,2.6
		c7.8,0.2,8.3,0.1,20.9-3.9c4.8-1.5,14.3-7,14-8.1c-0.9-3.6-0.8-8.1,0.3-11.7c0.2-0.8-1.3-1.3-3.4-1.1c-1.7,0.2-3,0.6-7.1,2.3
		c-2,0.8-8.4,2.8-12.3,3.7c-2.4,0.6-6.3,0.4-11.2-0.4c-7.3-1.2-11.2-1.8-14.1-2c-6.6-0.4-1.2-1.3,7.7-1.2c7.1,0.1,9.9-0.2,13.3-1.1
		c1.1-0.3,2.4-0.6,2.8-0.8c0.4-0.1,1.4-0.4,2.1-0.6c0.7-0.2,2.5-0.7,3.9-1.1c3.9-1.1,5.6-1.6,7.3-2.4c1.3-0.6,2.2-0.7,4.9-0.9
		c2.5-0.2,3.5-0.4,4.2-0.8c0.7-0.4,1.2-0.5,2.8-0.4l1.9,0.1l0.4-0.9c0.6-1.3,0.6-1.3-1.2-2.3c-2.8-1.6-4.7-3.7-6.6-7.3
		c-2.7-5.3-6-9.7-6.8-9c-0.2,0.2-0.5,0.3-0.8,0.3c-0.3,0-0.2-0.1,0.2-0.5l0.6-0.5l-1.2-1.1c-1.6-1.5-3.7-1.1-8.8,1.3
		c-0.9,0.4-1.4,0.6-1.1,0.3c0.3-0.2,2-1.2,3.8-2.1c3.7-1.8,3.7-1.9,0.3-2.8c-3.9-1-6.2-0.5-9.6,2c-1.8,1.3-2.2,0.9-0.5-0.6
		c2.7-2.3,5.8-3.6,7.8-3.3c1.3,0.2,1.3-0.2-0.1-0.8c-1.6-0.6-2-0.6-5.2,0.9c-5.2,2.3-8.8,3-11,2.1c-0.7-0.3-0.6-0.3,1.3-0.5
		c2.2-0.2,5-1.2,7.9-2.6l1.9-0.9l-1.2-0.2c-2.2-0.4-8.7-0.1-10.7,0.6c-3.6,1.2-3.9,0.4-0.3-1c8.4-3.2,17.4-1.1,25.6,6.1
		c2.7,2.4,7.7,8.1,8.6,9.9c1.7,3.5,4.1,5,8.6,5.9c1.6,0.3,1.6,0.2,0.1-0.5c-3.5-1.8-6.4-4.6-9.4-9.2c-4.7-7-7-9.2-13-12.5
		C153.5,116.3,151.3,116,145.5,117.8 M170,117.3c0,0.3,0.6,0.9,1.2,1.4c1.9,1.5,3.8,3.9,5.3,6.9c0.8,1.5,1.7,3.2,2.1,3.7
		c0.4,0.5,0.8,1.2,0.9,1.5c0.3,1,4.2,4.4,5.9,5.3l1.6,0.8l0.6-0.6c0.3-0.3,0.5-0.6,0.4-0.6c-0.1,0-1-0.5-2.2-1.1
		c-1.1-0.6-2.3-1.3-2.5-1.6c-0.4-0.4-0.1-0.4,1.4,0.4c1,0.5,2.3,1.1,2.9,1.3c1.8,0.6,1.6,0.1-0.4-0.8c-1.1-0.5-2.3-1.3-2.6-1.7
		c-0.6-0.7-0.6-0.7,1.2,0.2c3.3,1.6,3.9,1.7,5.2,0.9c1.3-0.9,1.3-1.1,0.2-1.3c-1.9-0.4-5.4-2.5-7-4.2l-1.6-1.6l1.2,0.8
		c3.8,2.5,9.1,4.5,10.6,3.9l0.8-0.3l-0.8-0.2c-1.6-0.4-3.1-1-2-0.8c3.2,0.5,3.6,0.5,4.8-0.2c0.9-0.5,1.8-0.6,3.7-0.7
		c3.8-0.2,2.4-0.6-2.1-0.6c-4.9,0-8-0.8-11.1-2.6c-0.6-0.4-1.7-1-2.5-1.5c-1.8-1-3.6-2.3-5.5-3.9c-1.4-1.2-4.5-3.1-4.8-2.8
		c-0.1,0.1,0.5,1,1.2,2.1c1.4,2,2,3.2,2.5,4.4c0.4,1,0.1,0.8-0.7-0.6C175.6,119.8,170,115.5,170,117.3 M222.3,122.6
		c-1.9,3.8-5,8.6-5.5,8.6c-0.1,0,0.2-0.6,0.6-1.3c1.2-2,2.7-4.7,2.9-5.3c0.3-0.7,0.1-0.5-2.9,3.1c-1.3,1.6-3.6,4-5.2,5.3
		c-5.1,4.5-9.5,9.9-11.6,14.2c-1.3,2.7-0.8,3.7,0.5,1c1.1-2.2,4.8-7.2,6.6-8.9c1.8-1.7,2.6-2.1,1.1-0.5c-8.1,8.3-11.8,19.5-8.3,25
		c3.4,5.3,3.4,7,0,14.1c-3.7,7.6-3.7,10.8-0.2,15.9c1.2,1.8,2.5,4.8,2.5,5.8c0,0.3,0.1,0.5,0.3,0.5c0.8,0-0.1-3.4-1.5-5.4
		c-3.6-5.3-3.6-8.6,0-16.2c0.8-1.7,1.6-3.6,1.9-4.3s0.5-1.2,0.6-1.2c0.3,0.3-0.6,2.6-2.2,6c-3.1,6.8-3.2,10-0.1,14.7
		c1.6,2.5,1.6,1.7,0-1.4c-2.5-4.8-2.3-6.7,1.3-13.9c1.9-3.7,2.1-4.4,2.1-5.6c0-0.8,0.1-1.5,0.3-1.7c0.2-0.2,0.1-1-0.3-2.4
		c-0.3-1.2-0.5-2.8-0.5-3.6s-0.1-1.8-0.2-2.2c-0.4-1.1-0.6-6.5-0.3-8.3c0.2-1,0.3-1.9,0.2-2.1c-0.2-0.6-1.3,4.5-1.3,6.3
		c0,1-0.1,1.8-0.3,1.9c-0.4,0.3-0.3-5.1,0.1-7.1c1.3-5.7,4.8-11.2,11.6-18.2c5.1-5.3,7.1-8.4,9.4-14.7
		C225.2,117.4,224.6,118,222.3,122.6 M198.8,119.2c-2.6,0.4-2.1,0.8,0.9,0.9c1.8,0,2.3-0.3,1.3-0.8C200.4,119,200,119,198.8,119.2
		 M162.5,119.4c0,0.1,3.5,2.5,4.3,3c0.3,0.2,1,0.3,1.4,0.3c1.1,0,2.7,0.6,4.1,1.5c1.5,0.9,1.6,0.7,0.4-1.1l-1-1.5l-3.9-1.1
		C164.5,119.4,162.5,119,162.5,119.4 M170.9,126.8c0.7,0.9,2.2,3.1,3.4,4.8c2.8,4.1,3,4,0.4-0.3c-0.3-0.5-1-1.8-1.6-2.9
		c-0.7-1.4-1.2-2.1-2-2.6C169.6,124.9,169.6,124.9,170.9,126.8 M225.5,126.6c-0.5,0.7-0.9,7.1-0.6,9.2c0.6,3.1,2.7,7.4,4.7,9.6
		c0.7,0.8,1.7,2.4,1.7,2.8c0,0.6-4.5-4.2-4.8-5.1c-0.4-1.1-0.9-1-0.9,0.1c0.1,1.1,1,3.1,2.3,4.5c0.6,0.7,1,1.3,1,1.3
		c0,0.2-1.5-1-2.4-1.9c-0.9-1-1.4-0.3-0.7,0.9c1.8,3,0,9.4-6.1,21.6c-3,6-4.9,11-5.3,13.9l-0.1,0.9l0.4-0.8c0.4-0.8,0.4-0.8,0.2,0.5
		c-0.1,0.7-0.2,1.9-0.1,2.7c0,0.7,0.1,2.3,0.1,3.6c0,2.7,0.3,2.5,0.8-0.6c0.8-5.7,2.6-10.1,6.8-16.2c1.6-2.4,3.1-5,3.6-6.1
		c0.4-1.1,0.8-1.8,0.9-1.6c0.3,0.8-1.5,6.1-2.3,7c-0.2,0.2-0.3,0.6-0.2,0.8c0.1,0.2,0.1,0.3-0.2,0.1c-0.3-0.2-0.3-0.1-0.2,0.2
		c0.1,0.3,0.1,0.4-0.1,0.3c-0.4-0.2-2.8,3.8-3.7,6.2c-1,2.7-1,2.9,0,1.3c1-1.7,1.2-1.6,0.4,0.1c-2.1,4.2-2.5,8.1-1.3,13.7
		c0.8,3.9,1.1,4.7,1.5,4.7c0.2,0,0.2-0.2,0.2-0.4c-0.1-0.2-0.2-0.9-0.3-1.5c-0.1-0.6-0.3-2.4-0.6-4c-0.3-2.2-0.3-3.4-0.1-5.2
		c0.4-4.1,0.7-4.3,0.6-0.4c-0.1,3.7,0.1,5.8,1,9.1c1,3.8,2.2,5.1,4.8,5.1h1.5l-0.2-2.1c-0.1-1.3-0.1-3.2,0.1-5
		c0.5-4.7,1.7-8.4,1.4-4.3l-0.1,1.9l0.4-1.5c0.6-2,2.6-6.3,4.3-9s1.6-2.8-0.4-0.3c-3,3.7-1.7,0.9,1.5-3.3c2.6-3.4,4-5.5,4-6
		c0-0.8-1.2-0.3-2.2,0.9c-0.6,0.7-1.5,1.6-1.9,2c-0.4,0.4-0.9,1.1-1.1,1.5c-0.2,0.4-1.2,1.7-2.3,3c-3.9,4.6-5.4,7.9-5.5,12.7
		c-0.2,5.7-1.3,5.2-1.2-0.7c0-4.1,1-6.8,4.4-12.1c1.2-1.9,1.3-2.4,0.2-1.3c-1.6,1.5-3.8,5.2-4.7,7.8l-0.9,2.6l0.1-1.7
		c0.2-3.3,2.3-7.2,5.5-10.3c0.9-0.9,1.6-1.8,1.5-1.9c-0.1-0.1,0.3-0.6,0.8-1.1c0.6-0.6,0.8-1,0.6-1.1c-0.8-0.5,3.9-1.9,6.2-1.9
		c1,0,2.3,0.3,3.9,0.8c2.2,0.7,2.8,0.8,5.3,0.8c3.7,0,6.3,0.8,5.5,1.6c-0.2,0.2-0.5,0-0.9-0.4l-0.7-0.7l-1.2,0.6
		c-0.8,0.4-1.6,0.5-2.4,0.4c-1.4-0.1-3.6,0.5-2.7,0.8c0.5,0.1,0.6,0.4,0.6,1.4c0,0.7,0.1,2.4,0.1,3.8c0.1,2.2-0.2,4.4-0.8,7.4
		c-0.2,0.8,0.3,1.3,0.5,0.5c0-0.2,0.5-1.5,0.9-2.9c0.5-1.4,1-3.7,1.3-5.1c0.5-2.7,1-2.8,0.7-0.1c-0.1,1.2-0.1,1.3,0.3,1
		c0.4-0.3,0.3-0.1-0.1,1.8c-1,4.1-4.3,10.5-7.7,14.9c-1.5,1.9-2.7,2.8-1.7,1.3c1.2-1.9,1.8-3,1.5-3.3c-0.2-0.2-0.5,0.1-1,1
		c-1.2,2.2-1.4,2.5-2.9,4.2c-2.1,2.5-1,2,6.6-2.9c3-1.9,6.3-7.6,7.3-12.5c0.1-0.6-0.2-0.1-0.8,1.2c-1.1,2.4-3.2,6.2-3.8,6.8
		c-0.2,0.2-0.1-0.3,0.3-1.1c2.6-5.2,3.6-8.1,4.3-12.5c0.6-3.8,0.6-4,1-4c1.3,0,0.5,9.3-1,13.1c-1.9,4.8-6.9,10.4-11.5,13
		c-0.8,0.5-0.2,0.6,1.1,0.2c2.8-0.8,6.6-4.1,8.9-7.6c3-4.6,3-4.7,4.4-9.8c0.2-0.7,0.2-2.5,0.1-5.1l-0.2-4.1l1-1.5
		c1.1-1.6,0.9-3.1-0.3-3.1c-0.3,0-0.6-0.2-0.8-0.4c-0.8-1-1.9-1.3-5.6-1.4c-3.4-0.1-3.7-0.2-5.4-1c-2.8-1.4-4.6-1.3-7.1,0.5
		c-1.1,0.7-1.9,1.5-1.9,1.7c0,0.2-0.3,0.7-0.8,1.1c-0.4,0.4-1.2,1.4-1.7,2.1c-0.5,0.7-1.4,1.7-2,2.2l-1.1,0.9l0.9-1.6
		c1-1.8,1.2-2.5,0.5-2.2c-0.5,0.2-2.2,2.7-3.7,5.4c-1.4,2.6-1.2,1.9,1-3c1.1-2.4,2-4.6,2-4.7c0-3,8.1-17.9,12.7-23.3
		c1.1-1.3,1.6-2,1.3-2c-0.2,0-1.5,0.1-2.9,0.3c-2.9,0.4-5.1,0-6.3-1l-0.7-0.6l1,0.4c1.3,0.5,3.6,0.5,6.4,0c1.2-0.2,2.6-0.4,3.1-0.3
		c0.7,0.1,0.9,0,0.9-0.3c0-0.8-2.5-1.3-6.4-1.3H234l-1.5-1.4c-1.7-1.6-3.1-4.1-3.9-7.1c-1-3.4-1.7-1.6-0.7,2c0.6,2.3,0.3,2.3-0.4,0
		c-0.8-2.5-1.1-4.5-1.1-7.6C226.3,126.2,226.1,125.8,225.5,126.6 M209.3,130.7c-2.1,2.2-4.1,4.3-4.4,4.6c-0.3,0.4-0.9,1.3-1.4,2
		c-5.8,8.2-7.7,12.9-7.4,18.5c0.2,3.5,0.6,5.7,0.7,3.3c0.1-3.6,1.3-8,3.4-12.1c2.3-4.4,4.4-7.3,9.8-13.6c1.6-1.8,3.1-3.7,3.4-4.1
		l0.6-0.8l-0.9,0.8c-8.3,7.7-14.2,15.7-15.5,21.4c-0.3,1.2-0.9,2.3-0.6,1.2c1.5-6.8,3.9-11,10.1-17.4c4.3-4.5,6.9-7.8,6.2-7.8
		C213.3,126.7,211.5,128.5,209.3,130.7 M173.5,127.7c0.4,0.9,4.9,7.3,5.6,8c1,1,0.8,0.5-1-2.3c-0.6-1-1.4-2.3-1.8-3
		C175.7,129.4,173.2,126.9,173.5,127.7 M198,131c-2.7,1.1-6.9,4.2-6.9,5.2c0,0.1-0.3,0.2-0.8,0.2s-0.9,0.2-1.1,0.4
		c-0.3,0.3-0.2,0.4,0.4,0.4c0.9,0,0.9,0.1-0.1,1.3c-2.1,2.6-4.4,7.2-3.7,7.2c0.7,0,1.5-0.8,4.5-4.4c1.8-2.1,3.6-4.1,4-4.3
		c0.4-0.2,0.8-0.5,0.8-0.7c0-0.3,3.5-2.7,4-2.7c0.4,0,2.1-1.3,2.1-1.6c0-0.9-3.9,0.8-6.5,3c-1.1,0.9-2.1,1.6-2.2,1.6
		c-0.5-0.5,3.6-4.2,5.8-5.3C199.9,130.4,199.8,130.3,198,131 M230.6,132.4c0,2.1,0.3,3.1,0.6,2.2c0.1-0.3,0.5-0.9,1-1.2l0.8-0.6
		l-0.7-0.6C230.5,130.5,230.5,130.5,230.6,132.4 M67.3,132.2c-0.7,0.2-1.5,0.5-1.7,0.8c-0.3,0.2-0.9,0.5-1.3,0.6
		c-1.1,0.2-2.7,2.1-3.9,4.5c-0.9,1.8-1.3,3.4-2.4,9.1c-0.2,1.2-0.7,3-1,4.1c-0.7,2.4-0.8,4.7-0.3,6.7c0.3,1.4,0.3,1.7-0.1,2.9
		c-1.9,5.3,7.1,23.2,11.8,23.2c0.6,0,0.4-0.4-0.5-1.2c-2.6-2.5-4.4-8.8-4.7-16.3c-0.2-4.5-0.5-5.9-1.6-7c-0.5-0.5-1.6-2.8-1.6-3.3
		c0-0.1,0.7-0.6,1.5-1c2.7-1.4,3-1.8,3.9-7.5c1.8-10.6,3.4-13.5,7.3-13.5c3,0,2.3-1-1.3-2C68.7,131.7,68.9,131.7,67.3,132.2
		 M222.4,132.1c-0.1,0.1-0.3,1.4-0.4,2.7c-0.2,2.2-0.4,2.7-1.5,4.6c-0.7,1.2-1.7,2.9-2.2,3.9c-0.5,1-1.5,2.6-2.1,3.6
		c-2.8,4.4-5.3,9.6-6.3,13.5c-1,3.7-1.1,5-0.2,2.3c0.8-2.3,2.1-4.8,1.8-3.5c-0.1,0.4-0.3,1.2-0.5,1.9c-0.5,1.6-0.4,1.6,0.5-0.1
		c0.4-0.8,1.4-2.4,2.2-3.6c1.2-1.9,2.7-4.4,6.8-11.8c1.2-2.2,2.6-6,2.8-7.9c0.3-2.2,0.2-2.5-0.2-0.9c-0.9,3.8-3.6,9.4-6.6,14.1
		c-2.2,3.4-2.1,2.9,0.5-1.9c2.8-5.2,4.1-8.3,4.9-11.6C222.8,133.8,223.1,131,222.4,132.1 M202,133.3c-0.2,0.1-0.5,0.3-0.7,0.5
		c-0.1,0.2-0.9,0.8-1.6,1.3c-0.8,0.6-2.1,1.8-2.9,2.8c-2,2.3-3.4,3.7-5.1,5.1c-4.4,3.7-6.5,6.4-8.1,10.4c-2,4.8-2.2,8.3-0.5,11.1
		c0.8,1.4,1,1.5,0.5,0.2c-0.5-1.3-0.7-4-0.4-5.3l0.3-1.1l0,1.6c0,1.5,0.3,2.9,1.1,4.7c0.5,1.2,0.6,0.7,0.2-0.6
		c-1.4-3.9-0.5-7.2,3.2-12.8c2.8-4.2,8.3-9.6,9.7-9.6c0.3,0,0.8-0.4,1.1-0.9c0.4-0.5,0.9-1.1,1.2-1.5c0.7-0.7,2.2-3,2.2-3.4
		c0-0.2-1.5,1.2-3.3,3c-3.3,3.3-7.3,6.7-7.8,6.7c-0.1,0,1.2-1.5,2.9-3.3c1.8-1.8,4.2-4.3,5.3-5.7c1.2-1.3,2.4-2.7,2.8-3
		C202.7,133.1,202.7,133.1,202,133.3 M218.6,135c-0.4,0.8-1.6,2.3-2.8,3.4c-8.8,8.6-12.1,18.6-9.7,29.3c1.2,5.6,1.1,7.3-1.1,12.9
		c-1.1,2.8-1.2,3.3-1.3,5.7c-0.1,1.9,0,2.4,0.1,1.6c0.6-2.9,1.4-5.5,2.3-7.4c0.7-1.6,1.1-2.8,1.4-5.3c0.5-3.5,1.1-3.1,0.7,0.5
		l-0.1,1.5l0.4-1.1c0.2-0.6,0.4-1.3,0.4-1.7s0.1-0.7,0.3-0.7c0.2-0.1,0.2-0.4,0-0.8c-0.1-0.4-0.3-1.3-0.3-2c0-0.7-0.2-2.4-0.6-3.8
		c-0.4-1.8-0.5-2.9-0.4-4.1c0.3-2.7,1.2-7.4,1.7-9.2c0.3-0.9,0.5-1.7,0.4-1.8c-0.1-0.1-0.2,0.3-0.4,0.9s-0.4,0.9-0.4,0.9
		c-0.1-0.1,0.1-0.6,0.3-1.3c0.6-1.8,0.3-1.5-0.5,0.4c-1,2.5-1.4,4.6-1.7,7.8c-0.2,3.4-0.6,2.9-0.6-0.8c0-6,2.8-12,10.2-21.4
		c1.6-2.1,2.9-4,3-4.2C220,133.3,219.3,133.7,218.6,135 M213.2,134.3c0,0-0.4,0.4-0.9,0.9l-0.9,0.8l0.8-0.9
		C213,134.3,213.2,134.1,213.2,134.3 M260.6,137.5c-0.8,0.8-1.8,1.6-2.3,1.9c-0.6,0.4-0.9,0.7-1,1.5c-0.1,0.5-0.4,1.3-0.7,1.7
		c-0.7,0.9-0.6,1,0.7,0.7c1.8-0.4,3.6-2.8,4.8-6.2C262.6,135.7,262.4,135.8,260.6,137.5 M74.9,137.3c-0.2,0.6,0.1,2.8,0.7,4.6
		c0.8,2.4,1.1,5.7,1,13.2c-0.1,8.8,0.2,9.9,3.9,12.7c1,0.7,1.8,1.5,1.9,1.8c0.1,0.3,1.4,1.6,2.9,2.9c3.4,3.1,4.3,4.1,6.7,7
		c3.5,4.3,7.5,7.7,8.4,7.2c0.4-0.2,0-0.9-1.6-2.5c-0.8-0.8-2.1-2.5-2.8-3.6c-5.8-9.1-8.2-11.9-12.4-14.9c-2.7-1.8-2.9-2.1-3.8-4.5
		c-0.6-1.6-0.6-2-0.5-5.6c0.2-4.9-0.4-8.3-2.4-14.3C75.5,137,75.2,136.4,74.9,137.3 M234,138.1l-0.9,1l1.2,1.1c1.1,1,1.2,1,2.7,0.9
		c1.5-0.1,2.3-0.4,1.5-0.7c-0.2-0.1-1.1-0.8-1.9-1.7c-0.8-0.9-1.6-1.6-1.6-1.5C235,137.2,234.5,137.6,234,138.1 M72,142.4
		c0,2.1-0.1,2.5-0.7,3.5c-2.6,4.4-2.9,5.4-2.4,11.8c0.4,4.8,0.2,5.7-1.2,7.1c-1.1,1.1-1,1.6,0.2,1.6c2.6,0,4.5-5.4,4.5-12.6
		c0-3.3,0.1-3.9,0.7-5.7c0.8-2.4,0.8-5.4,0-7.1C72.3,139.5,72,139.8,72,142.4 M35.5,141c-2.8,0.9-4.9,2.7-5.7,4.8
		c-0.8,2.2-0.7,17.9,0.1,21.7c0.3,1.5,0.8,3.7,1,4.9c0.4,2.2,0.9,3.3,1.6,3.9c0.2,0.2,0.4,0.5,0.4,0.7s0.5,1,1.2,1.8
		c3.5,4.1,5.5,8.1,5.5,11.3c0,0.6,0.2,1,0.5,1.3c0.3,0.2,0.6,0.7,0.8,1c1.8,4,6.4,8.8,11.4,11.8c4.1,2.5,4.5,2.1,1.2-1.2
		c-4.9-4.8-7.4-9.8-7.4-14.6c0-3.2-0.2-3.9-2-6.2c-0.5-0.7-1.2-1.7-1.5-2.4c-1.4-2.7-2.6-4-5.6-5.6c-2.8-1.6-3.8-5.5-4.7-18.1
		c-0.5-7,1.7-11.7,6.4-14c0.8-0.4,1.5-0.8,1.5-0.9C40.1,140.5,37.2,140.4,35.5,141 M260.6,142.7c-1.7,1.8-2.8,2.6-3.1,2.3
		c-0.1-0.1-0.4,0-0.8,0.3c-0.5,0.3-1,0.4-1.8,0.2c-1.4-0.2-1.5,0.1-0.5,0.9c0.9,0.7,2.6,1.1,3.8,0.9c0.9-0.2,1-0.1,0.5,0.3
		c-0.8,0.6-2,0.8-3.4,0.3c-0.7-0.2-1.3-0.3-1.3-0.2c0,0.6,1.2,2.8,1.9,3.8c1.7,2.2,1,5.2-2.3,9.7l-1.4,1.9l0.6,1.1
		c0.3,0.6,0.6,1.6,0.7,2.1l0.2,1l-1.7-1.1c-1.2-0.7-2.3-1.2-3.7-1.5c-2.2-0.5-2.9-0.7-5.1-1.8c-2.5-1.2-3.5-1.4-4.9-0.7
		c-1.8,0.8-5.3,4.5-6.5,6.9l-1,2l1.3-1.4c0.7-0.7,1.9-2.1,2.7-3l1.4-1.6l2.2-0.3c2.4-0.4,2.6-0.3,5.3,1.2c1,0.6,1.6,0.7,4.2,0.9
		c3.5,0.2,4.5,0.7,5.7,3c0.9,1.8,1.4,1.6,2.2-1c0.2-0.6,0.8-1.6,1.4-2.4c1.9-2.5,2.8-6.8,2.5-11.9c-0.2-3.4-0.2-3.1,1.8-8.8
		c0.8-2.2,1.5-5.3,1.2-5.3C262.4,140.9,261.6,141.7,260.6,142.7 M219.3,143.1c-0.4,0.8-0.9,1.5-0.9,1.5s0.3-0.7,0.7-1.6
		c0.5-0.9,0.9-1.6,0.9-1.5S219.8,142.3,219.3,143.1 M247.7,142.7c-1.6,0.6-2,2.6-1.5,7.1c0.5,3.7-0.1,4.1-1,0.7
		c-0.7-2.3-1.6-2.3-3.5-0.2c-2.4,2.7-2.2,4.3,0.7,5.8c0.6,0.3,2.1,1.6,3.4,2.8c3.7,3.6,4,3.6,7,0.7c2.3-2.2,2.9-3.2,2.9-4.8
		c0-2.1-2.3-3.2-2.9-1.4c-0.2,0.6-0.3,0.5-0.4-1c-0.2-2.2-0.9-6.1-1.2-6.9c-0.1-0.4-0.3-1-0.4-1.4
		C250.5,143,248.9,142.3,247.7,142.7 M42.7,143c-0.1,0.1,0.5,1.1,1.2,2.1c2.1,2.8,2.6,4.1,2.9,6.9c0.5,4.5,0.7,5,3.7,7.9
		c1.4,1.4,2.8,2.9,3.1,3.3c0.6,1,0.9,0.9,0.8-0.4c0-0.6,0.1-2.8,0.2-4.7l0.2-3.6l-1-1.3C50.5,148.8,43.2,142.2,42.7,143
		 M222.8,145.7c-1.1,3.8-3.8,8-6.8,10.9c-3.4,3.3-5.4,7.4-5.8,12.1c-0.2,1.8-0.2,3.6-0.1,3.8c0.3,0.8,0.7,0.1,0.7-1.3
		c0-3,2.4-10.4,3.2-9.9c0.1,0.1,0.4-0.1,0.5-0.3c0.4-0.7,0.3-0.1-0.1,0.7c-0.2,0.4-0.4,1-0.4,1.3c0,0.3-0.3,1.3-0.6,2.2
		c-1.3,3.6-1,3.5,0.8-0.1c1.1-2.2,2.9-5.2,4.4-7.3c3.1-4.5,6.1-10.5,5.4-11.1c-0.1-0.1-0.3,0.3-0.4,0.9c-0.6,1.7-1.6,3.9-1.8,3.7
		c-0.1-0.1,0.1-0.8,0.4-1.6c0.6-1.5,1.5-5.5,1.3-5.7C223.4,143.8,223.1,144.6,222.8,145.7 M220.3,147.2c-0.7,1.6-1.5,3.3-1.8,3.8
		l-0.5,1l0.6-0.7c1.1-1.4,3.5-6.5,3.1-6.9C221.6,144.4,221,145.6,220.3,147.2 M213.2,145.7c-1.2,1.9-2.5,4.7-2.2,4.7
		c0.1,0,0.4-0.5,0.7-1.1c0.3-0.6,1-1.8,1.6-2.6c1.4-2.1,1.4-2.1,1-2.1C214,144.6,213.6,145.1,213.2,145.7 M41.3,146.9
		c0.1,0.4,0.4,1.5,0.6,2.4c0.5,1.6,0.5,1.8,0,4.6c-0.7,4.4-0.7,8.2,0.2,10.5c1,2.7,1.4,5.4,1.1,7.6c-0.4,2.6,0.6,3.1,1.3,0.7
		c0.5-1.7,1.3-1,3.2,3c2.3,5,3,8,2.4,11c-0.6,2.9-0.6,3.1-0.3,3.1c0.7,0,1.9-4.3,1.9-6.6c0-2.1-2.9-11.3-4.1-12.8
		c-0.2-0.3-0.7-0.9-1.1-1.5c-0.5-0.6-0.9-1.5-1-2.2c-0.1-0.7-0.4-2-0.6-2.8c-0.5-1.9-0.6-4.3-0.1-7.8c0.5-3.8-0.1-6.3-2-8.7
		C41.8,146,41.1,145.9,41.3,146.9 M192,147.9c-3.6,4-4.6,8.3-3.2,13.7c1.5,5.7,1.7,6.4,1.7,7.8c0,0.9-0.2,1.9-0.7,2.9
		c-0.9,1.9-0.7,2,0.7,0.5c2.4-2.6,2.9-6.3,1.8-11.5c-0.6-2.8-0.5-8.5,0.2-10.4c0.3-1,0.4-1.1,0-0.7c-0.7,0.9-2.1,4.5-2.4,6.2
		c-0.3,2-0.7,2.2-0.7,0.4c0-2.3,1.3-5.8,3.4-9C194,145.8,193.8,145.8,192,147.9 M221.4,156.7c-0.5,0.9-1.3,2.5-1.7,3.6
		c-1.1,3.2-2.9,6.9-3.2,6.8c-0.2-0.1-0.2,0-0.1,0.3c0.1,0.3,0.1,0.4-0.1,0.3c-0.1-0.1-0.7,0.6-1.2,1.5s-1.4,2.3-2,3.1
		c-4.4,5.8-6.2,14-4.3,20.5c0.4,1.5,0.7,2.1,0.8,1.8c0.1-0.4,1.5,3.5,2.3,6.6c0.1,0.3,0.2,0.5,0.3,0.5c0.4,0,0.6,0.8,1,3.6l0.4,2.7
		l-0.1-2.7c-0.1-2.3-0.3-3.2-1.3-6.6c-1.4-4.4-1.4-4.5-0.8-3.8c0.5,0.6,0.6,0.9-0.6-2.4c-0.4-1.3-0.7-2.6-0.8-4.3l-0.1-2.4l0.5,2.5
		c0.5,2.4,1.8,6,2.1,5.8c0.1-0.1-0.1-0.7-0.3-1.3c-0.4-1-0.4-1.9-0.3-5.9c0.2-5.7,0.3-6.4,3.3-12.3c1.1-2.3,2.2-4.5,2.4-4.9l0.3-0.8
		l-0.5,0.7c-0.3,0.4-1,1.4-1.5,2.3c-1.7,2.9-1.3,1.8,1.3-3.2c2.5-4.9,4-8.5,4.8-11.6C222.7,154.7,222.6,154.7,221.4,156.7
		 M265.1,158.1c-0.9,0.9,2,3.1,8.8,6.7c2.2,1.1,5.3,3,6.9,4.1c4.7,3.3,9,6,10.2,6.4l1.1,0.4l-1.1,1.3c-1.3,1.5-1.9,2.9-1.4,3.9
		c0.5,1,1.1,0.7,1.4-0.8c0.5-2.1,3.3-3.6,7.4-3.8c2.4-0.1,3.9-0.5,3.9-0.9c0-0.1,0.3-0.2,0.8-0.2c1.7,0,4.6,2.7,6.1,5.6
		c0.4,0.7,0.9,1.4,1.1,1.6c0.3,0.2,0.7,0.7,0.9,1.2c0.2,0.5,0.6,0.9,0.8,0.9c1.6,0-2.5-8.6-5.1-10.5c-0.5-0.4-1.8-1-2.8-1.4
		c-1.4-0.6-2-0.9-2.4-1.6c-0.3-0.5-0.6-0.8-0.8-0.8c-0.1,0-0.3-0.4-0.4-0.8c-0.1-0.4-0.6-1.3-1.2-1.9l-1-1.1l-5.5-0.2
		c-4.8-0.2-5.9-0.3-8.2-0.9c-6.2-1.7-11.6-3.7-15.9-6C266.1,157.7,265.6,157.5,265.1,158.1 M258.7,169.3c-0.7,1.7-0.6,3.7,0.6,6.4
		c1.8,4.5,0.6,10.3-3.2,15.4c-3.9,5.2-4.5,8.3-2.3,12.7c2.4,4.9,2.2,6.5-1.4,13c-0.9,1.7-1.2,2.7-0.7,2.7c0.2,0,0.5-0.5,0.8-1.1
		c0.3-0.6,1.3-2.4,2.2-4c2.9-4.7,3.1-6.6,1.4-10.9c-1.9-4.5-1.5-6.9,1.7-10.9c4.9-6.1,6.1-12.8,3.6-18.7c-0.4-0.8-0.8-2-0.9-2.7
		s-0.5-1.7-0.8-2.1l-0.5-0.9L258.7,169.3 M209.2,169.7c0,0.7,0.1,1.5,0.2,1.9c0.2,0.5,0.2,0.4,0.2-0.7c0-0.7-0.1-1.6-0.2-1.9
		C209.3,168.6,209.2,168.8,209.2,169.7 M220.7,171.2c-0.3,0.7-0.6,1.2-0.7,1.1c-0.1-0.1,0.1-0.7,0.5-1.4
		C221.2,169.3,221.4,169.5,220.7,171.2 M261.4,170.2c-0.2,0.3,0.5,0.9,3.2,2.4c10.2,5.7,11.1,6.3,14.6,9.9c1.8,1.9,2.4,2.7,2.7,3.7
		c1.2,4,5.2,7.2,7.6,6.1c1.1-0.5,1.1-0.7,0.1-1.7c-0.9-0.9-1.3-2-1.3-3.4c0-0.5-0.2-0.9-0.4-1c-0.2-0.1-0.7-0.8-1.2-1.5
		c-1.3-2.3-4.9-5.6-6.7-6.2c-0.4-0.1-0.9-0.4-1.2-0.7c-0.3-0.3-1.2-0.8-2-1.3c-0.8-0.5-2.4-1.4-3.6-2c-1.3-0.7-2.5-1.2-2.9-1.2
		c-1.5,0-3.7-0.7-5.9-2C262,169.9,261.6,169.8,261.4,170.2 M78.4,170.7c-0.2,0.4,0.1,0.8,0.5,0.6c0.2-0.1,0.5,0.2,0.8,0.7
		c0.2,0.4,0.7,1,1.1,1.2c0.9,0.6,2.1,2.5,1.9,3c-0.1,0.3,0.4,1.2,1.4,2.5c1.7,2.1,2.6,3.9,4,7.3c1.5,3.7,3,5.2,6.7,6.5
		c3.9,1.4,6.9,1.8,9,1.2c1.4-0.4,9,0.5,10.4,1.2c1.2,0.6,1.8,1.5,1.9,3c0.1,1.6,1.2,3,2.8,3.5c0.6,0.2,1.5,1,2.8,2.6
		c1.1,1.3,3,3.3,4.2,4.6c1.3,1.2,3.5,3.7,5,5.5c1.5,1.8,3.2,3.6,3.8,4c1.6,1.2,5.5,8.6,6.4,12.1c0.2,0.7,0.4,1.5,0.5,1.9
		c0.1,0.4,0.3,1.2,0.4,1.9c0.1,1,0,0.7-0.7-1.2c-1.8-5.1-8.1-12.1-9-9.9c-0.1,0.3,0.7,1.2,2.5,3.1c3.8,3.9,4.9,5.5,6.3,9.4
		c1.5,4.2,2.3,3.8,2.3-1.2c0-3.8-0.8-6.8-3.4-13.2c-0.4-1-4.2-5.9-5-6.4c-0.4-0.3-1.5-1.8-2.4-3.3s-2-3.1-2.4-3.6
		c-0.4-0.4-1.4-1.7-2.2-2.8c-8.4-11.9-13.8-15.5-22.8-15.6l-4.3,0l-1.6-1c-0.9-0.5-2.5-1.5-3.7-2.1c-2.4-1.3-5-3.7-7.4-6.9
		c-0.8-1.1-1.8-2.3-2.1-2.7c-0.3-0.4-1.4-1.5-2.3-2.6C81.4,171.1,79,169.7,78.4,170.7 M256.5,174c-0.4,0.9-0.4,1,0.1,2.9
		c1.2,4,1,7.2-0.5,10.2c-1.1,2.1-0.4,3,0.9,1.2c1.8-2.3,2.3-5.4,1.8-9.7C258.3,174,257.4,172.2,256.5,174 M194.7,173.9
		c-1.9,0.7-3.3,1.6-6.3,4.2c-1.4,1.2-3,2.5-3.6,3c-0.6,0.4-2.3,1.8-3.9,3.1c-3.3,2.7-4.2,3.3-6.6,3.8c-1,0.2-2.2,0.5-2.7,0.6
		c-0.5,0.2-1.4,0.3-2.1,0.3c-1.9,0-1.4,1.4,0.7,2c0.4,0.1,0.9,0.5,1.2,0.8c1.2,1.3,7.1,2.7,10.1,2.4c0.9-0.1,2.4-0.2,3.5-0.3
		c3.4-0.2,7.5-1.8,8.2-3.3c0.2-0.4,0.6-1.9,0.8-3.3c0.4-2.4,0.8-3.6,2.7-8.9C198.3,174.1,197.7,172.8,194.7,173.9 M240.4,176.1
		c-1.1,2.9-2.3,4.9-4.5,8c-2.9,4.1-5.7,8.5-5.9,9.5c-0.4,1.4-1,5.3-1.1,6.5c-0.1,3.5,0.3,3.8,0.8,0.4c0.4-3,1.6-6.9,2.7-8.6
		c1.1-1.8,1.2-1.5,0.2,1c-1,2.5-1.8,6.1-1.9,8.4l-0.1,1.7l1.1,0c3.5-0.1,8.2-6,10.6-13.2c1-2.9,0.7-3-0.8-0.4
		c-1.9,3.2-7.1,10.2-8.8,11.9c-1.3,1.3-2.1,1.7-1.1,0.6c0.7-0.9,1.6-2.6,1.2-2.2c-1.2,0.9,0.2-1.8,1.9-3.8c1.5-1.7,1.5-2.5,0.1-1
		l-1.4,1.5l1.2-1.7c1.4-1.9,2.1-3.3,1.2-2c-0.3,0.4-0.9,1.1-1.2,1.5l-0.6,0.7l0.4-0.8c0.2-0.4,1.3-1.9,2.4-3.2
		c2.8-3.3,5.2-8.2,5.6-11.6c0.3-2-0.4-1.4-1.2,1c-0.5,1.6-2.3,4.8-3.5,6.2c-0.3,0.4,0-0.5,0.6-1.9c1.4-3.1,3.5-10.7,3-10.7
		C241.3,173.9,240.9,174.9,240.4,176.1 M222,179.4c-0.3,0.5-0.6,0.9-0.7,0.9c-0.1-0.1,0.1-0.6,0.5-1.1c0.3-0.5,0.6-0.9,0.7-0.9
		C222.5,178.3,222.3,178.8,222,179.4 M158,179c-0.4,0.2-0.4,0.3,0,0.3c0.2,0,0.6-0.1,0.8-0.3c0.4-0.2,0.4-0.3,0-0.3
		C158.6,178.7,158.2,178.9,158,179 M111.1,180.3c0,1.3,11.2,7.5,15.5,8.5c5.2,1.3,12.1,1.2,19-0.3c7.1-1.5,7.8-1.7,9.8-2.5
		c4.7-1.9,2.8-2-3.9-0.3c-1.8,0.4-3.9,0.7-6.5,0.9c-2.1,0.1-5,0.4-6.4,0.5c-2.5,0.3-7,0.2-10.5-0.3c-1-0.1-3.4-0.9-5.5-1.6
		c-3.4-1.3-4.9-2-9.1-4.3C111.7,180.1,111.1,179.9,111.1,180.3 M303.9,183.8c0,0.1-0.2,0.3-0.5,0.3c-0.3,0-0.6,0.2-0.7,0.4
		c-0.1,0.3-0.4,0.3-0.9,0.2c-1.5-0.3-1.2,0.1,3.8,4.7c3.1,2.8,5.6,5.6,6.4,7.2c0.3,0.7,1.1,2,1.6,3c0.5,1,1.1,2.2,1.3,2.8
		c0.5,1.4,2,3.1,3.6,3.8c2.4,1.1,3.3,0.6,1.8-1.1c-2.6-3-2.4-8.8,0.4-11c0.4-0.3,0.7-0.6,0.7-0.7c0-0.5-6.6-4.4-9.9-5.8
		c-3.9-1.7-5.3-2.4-6.2-3.4C304.6,183.5,303.9,183.3,303.9,183.8 M29.5,185.2c-3,1.3-5,3.3-6.6,6.6c-1.7,3.5-1.7,3.9,0.5,8.8
		c0.9,2.1,2,4.6,2.3,5.5c0.7,1.7,3.9,14.3,3.9,15c-0.1,1.8,1.1,3.9,4.8,9.1c2.7,3.6,12.5,8.8,15,7.8c0.6-0.2,0.1-0.9-0.8-1.1
		c-5.6-1-13.2-9.5-13.2-14.8c0-3.5-1.5-5.6-3.8-5.6c-1.5,0-1.7-0.3-0.7-1.3c1.3-1.3,0.4-8.5-1.2-10.4c-0.2-0.2-1-1.6-1.7-3.1
		c-0.8-1.5-1.9-3.2-2.6-3.9c-1.4-1.4-1.3-1.7,0.5-2.1c1.2-0.3,1.4-0.4,2-1.7c0.8-1.7,4.5-6,5.2-6c0.9,0,1.7-1.3,1.2-2
		c-0.2-0.3-0.5-0.8-0.7-1.2C33.1,184.1,31.9,184.2,29.5,185.2 M153.7,189.6c-3.3,1.2-5.2,1.6-9.5,1.9c-6,0.5-11.7,1.8-11.9,2.8
		c-0.1,0.3-0.5,1.5-1,2.6c-1.1,2.9-1.2,2.8,2.8,6.4c4.7,4.2,8,5.8,12.8,6.2c1.2,0.1,2.6,0.4,3.2,0.6c1.4,0.5,10.1,0.8,11.1,0.4
		c1.3-0.5,3.1-5,2.8-6.8c-0.1-0.5,0.1-1.9,0.5-3.2c0.3-1.3,0.5-2.5,0.5-2.8c-0.5-1.5-3.6-5.1-4.6-5.1c-0.2,0-0.3-0.1-0.3-0.3
		c0-0.1-0.3-0.5-0.7-0.7c-0.4-0.2-1.1-1-1.5-1.6C157,188.6,156.7,188.5,153.7,189.6 M342.3,190.7c0,0.6,0.9,2.1,2.2,3.5
		c0.7,0.8,2.6,3.4,4.2,5.7c7.3,11,9.9,16.1,11.3,22.4c1.1,4.8,1.2,4.9,2.5,6.3c1.4,1.5,2.2,1.7,2.4,0.5l0.2-0.8l1,1.3
		c2.2,2.8,3,2.8,1.7,0.1l-0.9-1.8l1.3,1.5c2.5,2.9,4.8,5,2.7,2.5c-1.6-1.9-1.1-1.8,1,0.3c1.4,1.3,2.6,2.4,2.8,2.5
		c0.2,0-0.2-0.4-0.8-0.9c-0.6-0.5-1.8-1.9-2.5-3c-0.8-1.1-1.7-2.4-2-2.9c-0.5-0.7-0.6-1.3-0.7-2.6c-0.1-1.8-1.1-4.1-3.4-7.8
		c-0.6-0.9-1.5-2.5-2.2-3.5c-4.8-8-12.5-17.4-17.1-21c-1.2-1-2.4-1.9-2.6-2.2C343,190.4,342.3,190.3,342.3,190.7 M305.5,193.1
		c0,0.4,0.8,1.8,1.5,2.8c0.6,0.9,4.5,7.9,5.5,9.9c1.8,3.8,9.2,7.4,12.3,5.9c1.3-0.6,0.8-0.9-2.7-1.8c-5.5-1.4-6.6-2.3-9.7-7.8
		c-1.9-3.4-2.4-4.2-4.8-7.2C306.2,193.2,305.5,192.6,305.5,193.1 M39.2,193.6c-0.1,0.1-0.2,0.5-0.2,0.8c0,0.4-0.5,1.2-1.3,2.1
		c-1.9,2.1-1.6,2.6,1.4,1.9c0.8-0.2,0.7-0.3,5.7,3.8c1.3,1.1,2.8,2.4,3.3,2.9l0.9,1l-0.5-0.9c-0.2-0.5-1.9-2.4-3.6-4.2
		c-2.5-2.6-3.3-3.6-4.2-5.4C39.5,193.3,39.5,193.3,39.2,193.6 M35.3,194.7c-2.7,2.8-2.4,8,1,14.7c1.9,3.8,2.2,6.7,0.8,10
		c-0.1,0.4-0.1,0.5,0.3,0.5c0.9,0,2-3.8,2-6.8c0-2.7-0.4-4.3-2.3-9.8c-1.4-4-1.7-6.8-0.8-7.3c0.2-0.1,0.3-0.5,0.4-1
		C36.8,193.8,36.2,193.7,35.3,194.7 M194,194.8c-0.5,0.3-1,0.7-1,0.8c0,0.1-0.2,0.1-0.4,0.1c-0.2-0.1-1.2,0.8-2.3,1.8
		c-1.2,1.2-2.4,2.2-3,2.4c-3.2,1.3-3.3,1.4-3.8,2.7c-1.4,4.1,1.3,5.6,5.6,3c1.3-0.7,1.3-0.7,0.4,0.6c-1,1.4-2.9,2.5-4.9,2.7
		c-2.2,0.3-3.2,1.4-2.7,3.2c0.3,1.2,1.6,1.5,4.9,1.2c3.6-0.4,3.6-0.3,4.7-1.7c0.5-0.7,1.3-1.4,1.7-1.6c1.5-0.8,2.1-2.4,3.6-8.8
		c0.8-3.6,0.8-3.4-0.1-5.4C195.8,194,195.5,193.9,194,194.8 M215.7,196.3c0.1,0.3,0.3,1.1,0.4,1.9s0.4,1.4,0.5,1.3
		c0.2-0.2-0.5-3.6-0.8-3.6C215.7,195.8,215.6,196,215.7,196.3 M212.2,196.5c0.1,0.2,0.3,1.2,0.6,2.1c0.2,0.9,0.6,1.8,0.7,1.9
		c0.3,0.3,0.3,0.3-0.6-2.6c-0.3-1-0.6-1.8-0.7-1.8C212.1,196.1,212.1,196.3,212.2,196.5 M169.5,197.6c-1.2,0.2-2.5,3.8-1.8,4.8
		c0.2,0.4,0.4,0.9,0.3,1.1c-0.3,1.3,0.8,2,4.8,2.6c5.4,0.9,7.4,0.5,8.5-1.9c1.7-3.4,0.8-4.6-3.5-4.8c-1.2-0.1-2.5-0.4-3.5-0.8
		c-0.9-0.4-1.8-0.6-1.9-0.6c-0.1,0.1-0.7,0-1.2-0.3c-0.5-0.2-1-0.4-1-0.4C170.2,197.5,169.9,197.5,169.5,197.6 M323.2,198.4
		c-2.4,1.1-2.7,3.2-0.8,5c1.2,1.1,6,3,7.6,3c1.4,0,4,3.3,5.5,7c2.6,6.4,7,10.3,11.8,10.3c1.7,0,3.9,0.6,5.7,1.6
		c1.5,0.9,2,0.7,1.2-0.5c-0.8-1.3-2.8-2.6-4.8-3.2c-3.5-1-4.5-2.3-8.7-10.1c-1-1.9-2.5-4.2-3.2-5.1l-1.3-1.7l2.5,2.3
		c1.7,1.5,3.2,3.2,4.6,5.3c2.7,3.8,6.2,6.8,8.8,7.4c1.2,0.3,0.9-0.5-0.6-1.4c-3.2-2.1-5.6-4.9-7.5-8.6c-0.9-1.8-2.3-3.5-2.8-3.5
		c-0.2,0-1.5-1.1-2.8-2.3c-2.9-2.7-4.9-3.9-8-4.6c-1.2-0.3-2.7-0.7-3.2-0.9C325.7,197.8,324.5,197.8,323.2,198.4 M107.3,201.2
		c0,0,0.6,0.5,1.3,1.1c0.7,0.6,1.3,1.2,1.3,1.5c0,0.2,0.2,0.7,0.4,1c0.5,0.7,0.3,0.7-1.5,0.1c-5-1.8-9.8-2.6-12.7-2.1
		c-3,0.5-2.5,1.2,1,1.5c1.7,0.1,2.4,0.3,2.1,0.4c-7.1,2.8-6.6,2.7-10.8,3.1c-4.6,0.4-6.2,0.2-9.3-1.3c-1.6-0.8-3.5-2.4-3.5-2.9
		c0-0.1-0.2-0.2-0.4-0.2c-1.5,0,1.7,3.8,4.7,5.7c5.1,3.2,10.7,2.8,20-1.3c0.8-0.4,1.9-0.7,2.3-0.7c0.4,0,1.3-0.2,1.9-0.4
		c2.7-1.1,9.6,2.4,12.1,6.2c4.2,6.3,8.9,8.9,16,9c3.1,0,4.2-0.5,2-0.9c-1-0.2-2.4-0.6-5.1-1.3c-3.5-1-9.5-5.8-12.2-9.7
		C114.3,206,107.3,199.7,107.3,201.2 M199.4,202c0.1,0.2,0.6,0.6,1.3,0.9c2.2,1.1,3.3,3.2,4.1,7.8c0.4,2.8,0.8,1.1,0.4-2.2
		c-0.3-2.9-0.2-3.2,0.4-1.1c0.9,3.1,0.8,3,1,1.9c0.3-1.5-0.8-4.4-2.2-5.7C203,202.3,199.1,201,199.4,202 M210,204.5
		c0,0.5,0.1,0.9,0.2,0.9c0.3,0,0.3-0.5,0-1.2C210.1,203.8,210,203.8,210,204.5 M218.2,206.6c-0.1,1.6-0.1,3,0,3
		c0.4,0.6,0.7-3.4,0.4-4.9C218.4,203.8,218.3,204.1,218.2,206.6 M199.4,204.5c-0.1,0.2,0,0.6,0.3,0.9c0.4,0.4,0.4,0.5,0,0.8
		c-0.5,0.5-0.5,0.7,0.3,1.6c1.8,2.1,3.1,22.7,1.7,27.6c-0.3,1.3-0.4,7.5-0.1,7.7c0.6,0.3,0.8-0.9,1.1-6.4
		c0.6-10.3,0.7-10.9,0.9-10.6c0.1,0.2,0.2,1.8,0.2,3.7s0.1,3.3,0.2,3.3c1.2,0,0-22.3-1.4-26.3C201.9,204.8,199.9,203.3,199.4,204.5
		 M224.6,204.5c-0.7,0.7,0.3,1.7,2.4,2.2c2.9,0.7,3.7,1,3.8,1.3c0.1,0.5-3.6,0.2-4.5-0.3c-0.3-0.2-0.6-0.2-0.7-0.2
		c-0.2,0.2,1.9,1.1,4.2,1.9c3.6,1.3,11.7,0.2,11.7-1.6c0-0.3-0.9-0.2-3.6,0.3c-0.9,0.2-1.9,0.1-2.9-0.1c-1.9-0.4-2.1-1-0.4-1
		c1.5,0,4.5-0.7,5.4-1.2c0.4-0.2,0.5-0.4,0.3-0.3c-0.2,0.1-2.1,0.2-4.1,0.3c-4.2,0.2-4.9-0.2-1.2-0.7c3.2-0.4,3-0.6-0.6-0.5
		c-1.7,0.1-4.4-0.1-6.1-0.3C224.8,204.3,224.8,204.3,224.6,204.5 M134.3,207.3c0,0.7,0.2,1,0.8,1.3c1.4,0.8,5.6,7,8,11.7
		c0.6,1.2,1.2,2.3,1.2,2.4c0,0.1,0.8-0.6,1.7-1.4c0.9-0.8,2.5-2,3.6-2.5c2.3-1.2,2.4-1.4,0.4-1.4c-1.6,0-4.2-0.6-4.5-1.1
		c-0.1-0.2,0-0.2,0.5-0.1c1.3,0.4,5.4,0.2,8.6-0.6c1.8-0.4,4-0.7,5.1-0.8c2.7-0.1,2.8-0.1,2.2-0.4c-0.7-0.4-7.5-0.9-10.2-0.7
		c-4.7,0.3-8.9-1.3-14.3-5.3C134.5,206.2,134.3,206.1,134.3,207.3 M171.3,207.4c-0.1,0.1-1,0.2-2,0.3c-4.5,0.4-3.7,4.1,1,4.1
		c0.4,0,1.3,0.1,2,0.3c0.7,0.2,2.1,0.4,3.1,0.5c1,0.1,2.1,0.3,2.4,0.4c0.4,0.1,0.8,0,1.3-0.5c1.2-1.2,0.8-3.4-0.6-3.4
		c-0.3,0-0.8-0.2-1.1-0.5C176.1,207.7,171.9,206.8,171.3,207.4 M323.7,207.7c0.1,0.1,0.7,0.5,1.4,1c3.1,2.2,5.3,4.7,7.2,8.3
		c1.8,3.4,3.4,5.1,5.6,6.2c2.1,1.1,2.6,1,0.8-0.1c-1.7-1.1-3.6-3.7-5.7-8c-2.4-4.8-3.6-6-7.5-7.2C324,207.5,323.4,207.4,323.7,207.7
		 M362.7,207.8c-0.1,0.2,0.5,1.3,1.4,2.5c3.1,4.3,4.3,7.3,4.3,10.7c0,2.5,2.4,8.9,3.9,10.4c0.5,0.4,1,1.1,1.3,1.5
		c0.3,0.4,0-0.3-0.7-1.5c-1.4-2.8-1.2-3,0.5-0.4c0.8,1.1,1.9,2.6,2.5,3.3c1,1,1,1.1,0.4,0.2c-1.3-1.8-2.3-3.8-3.3-6
		c-1.2-2.9-1.2-3.7,0-1.3c0.5,1,1.2,2.1,1.4,2.4c0.3,0.3,1.1,1.5,1.8,2.6c1.5,2.5,4,5.2,4.7,5.2c0.7,0,0.6-0.3-1.1-2.7
		c-1.5-2.2-3.2-5.4-6.1-11.7C369.8,214.2,363.8,206,362.7,207.8 M222,210.9c-4.4,7.5-5.5,13.1-3.4,17c0.4,0.7,1.3,2.5,2,4
		c2.3,4.6,2.6,3.3,0.5-2c-1.1-2.7-1.4-3.8-1.5-5.5c-0.2-2.7,0.2-2.6,0.9,0.3c0.6,2.4,0.9,3.2,3.9,8.6c2.9,5.4,3.2,8.3,1.4,12.6
		c-2.1,5.1-2.6,6.3-3.5,8.8c-1,2.6-1.7,6.7-1.3,7.6c0.1,0.3,0.4-0.5,0.7-2.1c0.6-2.7,2.4-7,4.8-11.2c3.7-6.4,3.4-11.6-1.1-20.5
		c-1.1-2.3-1.5-6.9-0.8-10.3c0.5-2.5,0.7-2.3,0.6,0.4c-0.1,2.1,0,2.9,0.5,4.2c0.3,0.9,1,2.8,1.5,4.2s1.1,3.1,1.4,3.6
		c2.1,4.1,2.5,9.8,1,14.1c-0.5,1.5-0.5,2.1,0,1.6c0.4-0.4,1.3-2.8,1.9-5.6c0.2-1.1,0.6-2.4,0.9-2.9c0.5-1.2,0.3-4.6-0.6-7.9
		c-0.8-2.9-1.7-7.4-1.6-7.5c0.4-0.4,2.9,7,3.3,9.9c0.3,2.1,0,6.3-0.5,8.2c-0.3,1.2-0.3,1.6,0,1.6c0.1,0,0.4-0.5,0.6-1.1
		c0.2-0.6,0.4-1.6,0.5-2.1c1.3-4.8,0.8-11.3-1.2-16.4c-2-5-2.2-6.9-1.4-9.9l0.3-1.1l0.1,2c0.1,1.9,2,7.4,3.8,10.8
		c1.3,2.5,0.1,13.9-1.9,18.5c-0.5,1.1-1.3,3.1-1.9,4.4c-0.6,1.3-1.6,3.8-2.4,5.4c-1.5,3.3-1.5,3.5-1,3.5c0.2,0,0.9-1.2,1.6-2.9
		c0.7-1.6,2.4-5,3.8-7.6c4.7-8.7,5.7-12.9,5.1-20.5c-0.2-2.1-0.2-2.2,0.2-1.3c0.4,1.2,0.9,4.5,1,6.4c0,2.5,0.5,0.4,0.7-3.3
		c0.2-3.8,0.2-4-1.8-8.6c-0.6-1.4-1.3-3.4-1.6-4.5c-0.3-1.1-0.5-1.7-0.5-1.3c0,0.6,0.1,1.2,1.3,5.3c1.2,4.1,0.4,3.5-1.4-1.2
		c-0.8-2.1-1.3-3.6-1.3-4.6c-0.1-1.1-0.2-1.5-0.5-1.5c-0.9,0-0.4,4.2,1,8.1c2.1,5.8,2.1,6.3-0.1,1.8c-1.9-3.8-2.5-5.7-2.7-8
		c-0.2-1.8-0.2-1.8-1.1-2.1c-1.3-0.4-1.9-0.3-1.9,0c0,0.2-0.3,0.9-0.7,1.7c-0.6,1.2-1.1,3-1.7,6.3c-0.2,0.9-0.2,0.9-0.4-0.5
		c-0.2-1.5,0.2-4.9,0.7-6.8l0.4-1.2l-1.1-0.3c-0.6-0.2-1.7-0.7-2.5-1.1l-1.4-0.8L222,210.9 M74.8,211c0,1.2,0,1.2-2.3,2.7
		c-4.4,2.9-7.7,3.1-12.5,0.8c-1-0.5-2.6-1.2-3.7-1.6c-1-0.4-2.1-0.8-2.4-0.9c-0.6-0.2,1.2,1.5,3.8,3.5c5.5,4.4,13.6,4.4,19.2,0.2
		c1.9-1.4,1.9-1.3-0.1-3.8C75,209.6,74.8,209.5,74.8,211 M239.3,210.8c-1.3,0.5-1.1,2.4,0.7,7.3c1.3,3.5,1.4,3,0.1-1
		c-1.4-4.3-1.2-4.5,0.6-0.8c2.5,5,3.4,11.1,2.2,15.3c-0.8,3-0.6,4.5,0.4,2.5c3-6.3,2.5-13.4-1.4-21.3
		C240.7,210.4,240.7,210.4,239.3,210.8 M194.7,212.6c-0.7,0.4-0.5,0.8,0.4,0.8c0.9,0,0.9,0,1.1,1.3c0.3,2,0.7,20.1,0.9,37.8
		c0.2,18,0.3,22.1,0.8,22.2c0.7,0.2,0.8-1.8,0.7-25.5c0-13.4,0-24.3,0.1-24.3c0.1,0.1,0.2,3,0.2,6.5c0,3.5,0.2,8.4,0.4,10.9
		c0.2,2.5,0.4,5.4,0.4,6.4c0,1,0.1,2.2,0.1,2.6c0,0.4,0.2,0.7,0.3,0.7c0.2,0,0.2-1.3,0.1-4.7c-0.1-2.8-0.1-7.6,0.1-12.2
		c0.4-9.4-0.3-20.4-1.4-21.7C198.2,212.5,195.8,212,194.7,212.6 M165.8,214.7c-5.6,2.6-9.8,11.9-8.2,18.3c1.4,5.3,6.9,12,11.9,14.5
		l2.5,1.2l3.3,0.1c1.8,0.1,3.4,0.2,3.5,0.3s0.4,4,0.6,8.6c0.7,14.4,1.1,14.1,1.2-1c0-4.4,0.1-6.7,0.3-6.6c0.1,0.1,0.3,0.4,0.3,0.7
		c0,0.6,0,0.5,0.3-0.1c0.2-0.4,0.3-0.5,0.4-0.4c0.2,0.5,0.9,10.6,0.9,12.7c0.1,5,0.6-0.2,0.8-8.7c0.6-18.2,0.3-26.7-1-30.8
		c-1.8-5.8-4.5-9.3-7.1-9.3c-0.4,0-0.2,0.2,0.9,0.9c1,0.6,1.8,1.3,2.6,2.6c1.5,2.2,1.4,2.6-0.1,1l-1.2-1.3l0.8,1.8
		c2.4,5.4,3.8,12,3.7,17.7c0,3.8-0.2,3.1-0.9-2.7c-1-8.7-3.7-15.4-7.3-17.8c-1.7-1.2-2-0.6-0.7,1.1c2.9,3.5,5.2,10.1,6.5,18.4
		c0.3,1.8,0.7,9.5,0.4,8.1c-0.1-0.4-0.4-2.2-0.7-4.1c-0.7-4.2-2.7-12.3-3.4-13.7l-0.5-1l0,0.9c0,0.5,0.1,1.4,0.3,1.9
		c0.5,1.9,2.7,15.8,2.6,16.6l-0.1,0.7l-3.1-1.3c-1.7-0.7-3.5-1.5-3.9-1.8c-2.4-1.6-5.8-4.3-6.5-5.3c-1.6-2.2-2.1-2.7-2.4-2.3
		c-0.5,0.8,1.1,3.8,3.1,5.7c2.7,2.5,7.2,5.5,8.3,5.6c0.1,0,0.5,0.2,0.8,0.4c1,0.7-1.9,0.1-4-0.8c-4.5-2-10.3-9.6-11.1-14.4
		c-0.9-5.8,4.6-15.6,8.9-15.6c0.9,0,1-0.2,0.5-0.7C168.4,214.1,167.1,214.1,165.8,214.7 M190.9,215.3c-0.1,0.2,0,0.5,0.2,0.7
		c0.4,0.5,0.2,0.8-0.5,0.4c-0.7-0.4-1.9-0.4-2.4,0c-0.4,0.3,0.5,1.3,1.2,1.3c0.5,0,1.4,1.1,1.8,2.3c0.3,0.9,0.4,3.3,0.6,12.3
		c0.1,6.2,0.3,11.3,0.4,11.4c0.4,0.4,0.6-4.5,0.7-12.1c0-7.6,0.1-8.2,0.8-3.4c0.7,5.1,0.8,8,0.3,12.8c-0.3,3.4-0.4,4.9-0.2,6.7
		c0.1,1.2,0.3,3.4,0.3,4.9c0,1.4,0.1,2.7,0.3,2.7c0.2,0.1,0.3-1,0.3-3.1c0-4.8,0.2-10.4,0.5-15.4c0.1-2.4,0.2-7,0.1-10.3l-0.1-5.9
		l-0.9-1c-0.5-0.6-0.9-1.1-1-1.2c-0.1-0.1,0.1,0,0.4,0.1c0.8,0.4,0.9,0.4,0.9-0.4C194.5,216.3,191.7,214.1,190.9,215.3 M182.7,217
		c-0.5,0.4-0.5,0.4,0.1,0.6c1.7,0.5,3,4.9,3.7,12.6c0.2,2.4,0.6,2.8,1,1.2c0.6-2.8-0.1-9.4-1.3-12.2l-0.4-1l0.8,0.5
		c1.3,0.7,1.9,2.9,2.3,7.4c0.2,2.7,0.9,3,1.2,0.5c0.4-3.1-0.5-7.5-1.7-8.8c-1.2-1.3-3.2-1.4-2.8-0.2c0.1,0.2-0.1,0.2-0.6-0.2
		C183.9,216.7,183.2,216.5,182.7,217 M374.2,219.2c-0.2,0.3,0.6,1.5,2,3.1c0.6,0.7,1.4,2,1.8,2.8c1.4,3.3,1.7,4.2,1.8,5.2
		c0.3,2.7,2.2,7.1,3.7,8.7c0.9,0.9,1.1,0.5,0.4-1.2c-0.6-1.6-1.5-4.9-1.3-5.1c0.2-0.2,1.2,1.7,1.8,3.5c0.6,2,1.1,2.8,2.9,5.4
		c1.5,2.1,1.9,1.9,0.8-0.4c-1.1-2.5-0.9-2.4,1.6,0.9c2.9,3.8,9.9,9.9,10.7,9.2c0.1-0.1-1-1.5-2.4-3.1c-3-3.6-5.3-6.6-6-7.9
		c-0.6-1.3-3.9-5.9-5.3-7.4c-0.6-0.7-1.5-1.9-2-2.7C381.5,225,374.8,218.1,374.2,219.2 M152.2,219.7c-2.4,1-2.1,1.9,0.7,1.9
		c1.1,0,1.9,0.2,2.3,0.4c0.8,0.5,0.8,0.5,1.5-1C157.4,219.5,154.9,218.7,152.2,219.7 M115.7,221.2c-1.4,2-1.7,2.7-1.1,3.7
		c0.5,0.9,0.3,1.4-1.2,3.1c-2.2,2.5-2.4,2.8-2.4,4.2c0,1.1,0.1,1.4,0.7,1.9c0.7,0.5,0.7,0.6,0.5,2.6c-0.2,2,0.1,2.9,0.9,2.9
		c0.3,0,1.2-1.2,1.8-2.7c1.7-3.8,5.6-5.9,13.6-7.5c1-0.2,1.8-0.5,1.8-0.7c0.2-0.6-0.7-1.2-1.5-1c-0.4,0.1-1.7,0.3-2.9,0.4
		c-4.7,0.6-8.6,2-10.8,4.1c-1.2,1.1-1.5,1.2-1.6,0.9c-0.3-0.8,4-4.7,5.2-4.7c0.4,0,4.4-1.7,5.3-2.3c1.8-1.1-0.6-1.2-3.3-0.1
		c-2.8,1.2-1.6-0.3,1.6-2l1.1-0.6l-0.8-0.3c-1.2-0.4-1.6-0.4-3.8,0.7c-1.7,0.8-2.1,0.9-2.3,0.6c-0.4-0.6-0.3-0.9,0.7-2.4
		c1-1.4,1-1.7,0.1-2.1C117,219.6,116.8,219.7,115.7,221.2 M165.5,222.3c-1.5,2.5-1.6,5.5-0.1,5.9c0.6,0.2,1.6,0.5,2.2,0.7
		c0.6,0.2,1.7,0.7,2.3,1.1c1.5,0.9,1.5,0.8,0.1-0.7c-0.6-0.7-1-1.3-1-1.3c0.2-0.2,2.8,2.3,4.1,3.9c1.5,2,1.7,1.8,0.5-0.4
		c-1.4-2.4-3.9-5-5.7-5.9c-0.8-0.4-1.3-0.7-1-0.7c0.3,0,0.7,0.1,1,0.2c0.6,0.3,4,1.6,4,1.5c0,0-0.5-0.4-1.1-0.8
		c-1.2-0.8-1.3-1.2-0.4-1.2c0.4,0,1.3,0.5,2.1,1.2c1.6,1.3,1.7,1.3,0.9-0.1C172,223.1,166.4,220.7,165.5,222.3 M174.1,223.2
		c0.6,1.6,1.2,2.4,1.2,1.7c0-0.6-1.3-3.2-1.6-3.2C173.6,221.7,173.8,222.3,174.1,223.2 M151.6,222.6c-1.5,0.7-1.7,1.5-0.3,1.5
		c0.4,0,1.5,0.2,2.3,0.5c1.7,0.6,1.8,0.5,2.1-0.8c0.2-1.1,0.1-1.2-1.9-1.4C152.9,222.2,152.2,222.3,151.6,222.6 M248.3,223.6
		c-0.3,0.4-0.4,1.3-0.4,3.4c0,3.5,0.4,4.4,2.2,4.8c2.2,0.5,4.6,1.4,6.3,2.3c1,0.5,2.9,1.4,4.4,2c6.6,2.8,12,5.4,14.4,7.1
		c0.9,0.6,2.2,1.4,2.9,1.9c2.1,1.2,9.5,8.9,8.6,8.9c-0.1,0-2.4-0.4-5.1-0.9c-2.7-0.5-6.9-1.2-9.3-1.5c-3.9-0.5-8.7-1.6-12.7-2.9
		c-2.4-0.8-4-1.3-5.5-1.6c-0.7-0.2-2.8-1.1-4.6-1.9l-3.2-1.6l-0.9,0.4c-0.5,0.2-1.2,0.8-1.5,1.3c-0.3,0.5-1.1,1.4-1.8,2.1
		c-2.3,2.5-6.6,9.4-7.7,12.4c-0.7,2-1.3,7.6-0.8,8.2c0.2,0.2,1.2,0.3,3.2,0.3c3.2,0,3.4,0.1,7.8,2.9c2.7,1.7,6.5,3,16,5.2
		c11.7,2.8,14,2.6,25.2-1.7c7.5-2.9,10.1-3.5,12.7-2.8c0.9,0.2,2,0.4,2.6,0.4c1.1,0,4.5,1,4.5,1.3c0,1.6-2,6.4-3.5,8.6
		c-0.3,0.4-0.5,0.8-0.5,1c0,1.5,3.5-2.9,5.6-7c0.5-1,1.4-2.3,1.9-2.9c0.5-0.6,1-1.4,1-1.7c0-0.3,0.1-0.7,0.2-0.8
		c0.8-1,1.1-5.8,0.5-7.4c-0.3-0.6-1.1-1.4-2.7-2.6c-2.3-1.6-2.4-1.8-3.9-4.4c-2.3-4.2-6.5-9.7-10.7-14.2c-3.1-3.3-9.9-6.9-16.7-8.9
		c-2.1-0.6-4.4-1.3-5.1-1.5c-0.7-0.2-1.8-0.5-2.5-0.7c-0.7-0.2-2-0.7-3-1c-1-0.4-2.5-0.9-3.3-1.1c-0.9-0.3-3.1-1.2-4.9-2.2
		c-1.8-0.9-3.5-1.7-3.9-1.7c-0.9,0-2.9-0.8-3.7-1.5C249.4,222.8,248.8,222.8,248.3,223.6 M212.4,229.2c-5,7.6-6.9,15.1-6.9,26.5
		c0,4.6-0.2,4.1,2.8,6.4c1.1,0.8,2,1.7,2,2c0.2,1.2,7.2,4.3,10.6,4.6l1.5,0.2l-1.4-1.3c-3.5-3.1-3.8-7.3-1-16.6
		c2-6.8,1.9-7.1-0.8-1.9c-2.4,4.7-3.1,6.7-3.1,9.5c0,1-0.1,1.4-0.3,1.1c-1-1.6,0-6,2.4-11.2c3-6.3,3.4-8.7,2-11.4
		c-0.9-1.8-0.9-1.8-1.2,1.3c-0.2,1.8-0.5,3-1.1,4.3c-1,2.2-1.1,2.2-0.5-0.2c1.1-4.2,0.6-8.9-1.2-12.2c-0.6-1.1-1.3-2.5-1.5-3
		C214.4,226.1,214.4,226.1,212.4,229.2 M147.5,228.2c-2.1,0.6-0.9,1.8,1.5,1.5c1.1-0.1,2.2,0.2,4.4,1.2c2.1,0.9,3,0.7,3-0.6
		C156.4,229,150.1,227.5,147.5,228.2 M164.2,230.1c0.2,2.2,0.4,2.5,1.7,3.2c1.2,0.6,5.7,3.9,7,5c0.6,0.6,0.8,0.7,0.6,0.3
		c-0.5-0.9-2.9-3.2-4.8-4.6c-2-1.4-1.9-1.9,0.1-0.8c2.2,1.2,5,3.8,6.9,6.4c0.7,1,1.4,0.7,0.8-0.4c-1.9-2.8-6.9-7.9-9.9-9.8
		C164.2,227.9,164,227.9,164.2,230.1 M336.2,229.7c-1.5,2.5,14.5,4.4,18,2.2c1.6-1-1.1-2.2-3.5-1.6c-3.1,0.8-10.5,0.4-13.3-0.6
		C336.5,229.3,336.5,229.3,336.2,229.7 M128.5,232.2c-5,1.1-6.9,1.7-8.5,2.8c-0.7,0.5-1.3,0.8-1.5,0.8c-1.1,0-2.4,2.6-1.8,3.5
		c0.6,1-0.1,9.1-1.5,18.1c-2.9,17.7-3,27.1-0.4,37.7c0.6,2.3,1.2,5,1.3,6c0.1,1,0.5,2.9,0.8,4.4c0.7,3.3,0.6,7.4-0.3,13.6
		c-1.6,10.9,0.5,16.9,6.7,19.1c1.8,0.6,8.4,1.7,9.7,1.6c1.1-0.1,1.6-0.7,0.6-0.8c-0.9,0-5.4-1.7-5.5-2c-0.1-0.2,0.8-0.3,2.5-0.4
		c3.1-0.2,3-0.1,3.6-3.4c0.4-2.4,0.8-3.3,2.4-6.5c3.9-7.8,2.9-11-4.1-13.5c-2.4-0.8-2.3-0.9,1.5-1.3c1.8-0.2,3.7-0.4,4.2-0.5
		c0.6-0.1,1-0.1,1.2,0.2c0.2,0.2,0.9,0.4,1.8,0.4c0.8,0,1.6,0.1,1.9,0.2c0.3,0.1,0.4,0,0.4-0.4c0-0.3-0.2-0.6-0.4-0.6
		c-0.2,0-0.3-0.2-0.2-0.7c0.1-0.4-0.4-2.7-1.1-5.1c-1.6-5.6-1.5-5.8,0.9-15.6c2.3-9,8.9-24.4,13.4-31.4c0.4-0.7,1.4-2.2,2.1-3.4
		c1.3-2.2,3.3-5.1,4.2-6c0.7-0.8,0.6-1.1-1-2.9c-2-2.3-3.4-4.4-4.9-7.5l-1.3-2.6l-1.9-0.6c-3.7-1.1-7.4,0.3-7.4,2.8
		c0,0.4-2.6,4.1-3.7,5.3l-0.7,0.7l-0.8-1.8c-0.4-1-0.9-2.1-1.1-2.5c-0.2-0.4-0.6-1.3-0.8-2.1C137.2,231.5,135.6,230.7,128.5,232.2
		 M240.7,235.4c-0.6,1.9-5,11.1-6.9,14.6c-1.3,2.4-1.6,3.1-1.2,3.1c0.8,0,5-7.3,5.9-10.2c0.3-1.1,1-2.7,1.4-3.5
		c0.8-1.5,1.7-4.7,1.5-5.4C241.4,233.8,241.1,234.4,240.7,235.4 M366.8,238.9c-3.1,1.4-6.3,1.7-10.9,1.2c-3.2-0.4-3.2,0.5-0.1,1.5
		c3.6,1.1,8.6,0.8,13.1-0.6c2.6-0.8,2.6-0.9,0.9-1.8C368.2,238.4,368.1,238.4,366.8,238.9 M185.7,242.6c0,0.1,0,5.2-0.1,11.3
		c0,6.1-0.2,13.5-0.4,16.4c-0.2,3.8-0.3,7.4-0.1,12.4c0.1,3.9,0.3,6.5,0.3,5.7c0.1-1.4,0.9-10.9,1.4-16.9c0.4-4.4,0.2-25.5-0.3-27.4
		C186.2,242.9,185.8,242,185.7,242.6 M103.4,247.5c-3.2,2.3-6.4,8.1-8.5,15c-0.7,2.3-1.5,4.9-1.8,5.8c-0.8,2.8-3,7-4.3,8.5
		c-1.2,1.4-1.4,2.1-0.5,1.6c1.1-0.6,3.7-4.1,5.2-7.1c0.4-0.7,1.6-3.9,2.7-7.1c1.1-3.2,2.6-6.9,3.2-8.3c1.2-2.4,1.7-3.2,4.6-6.6
		C106.2,247,105.8,245.8,103.4,247.5 M380.1,248c-1.5,0.6-2.2,0.7-5.5,0.7c-4.2,0.1-4.8,0.4-2.3,1.3c2.3,0.8,7.1,0.9,9.2,0.2
		c4.4-1.5,4.5-1.6,2.4-2.4C382.2,247.2,382.3,247.2,380.1,248 M109.1,248.5c-1.1,5.5-3.2,12-5.9,18.6c-1.6,3.9-2.2,6.6-3.1,12.5
		c-0.8,6.1-0.7,9.7,0.5,14.5c0.2,0.7,0.4,1.8,0.6,2.3c0.2,0.9,3.3,5.7,5.3,8.5c1.1,1.4,2,3.5,3.2,6.9c1.7,4.9,2.1,4.8,2.3-0.8
		l0.1-3.8l-1.6-7.1c-1.8-7.9-2.2-11.5-2.2-18.2c0-4.8,0.4-8.8,1.7-18.5c0.7-5.2,0.4-15.6-0.4-15.6
		C109.4,247.8,109.2,248.1,109.1,248.5 M232,259.2c-1.6,3.3-2.3,9.2-1.1,9.2c0.5,0,0.6-0.2,0.9-3c0.2-1.4,0.4-3.5,0.6-4.7
		C232.7,258.1,232.7,257.8,232,259.2 M228.9,261.5c-1.1,1.6-1.4,4.1-0.7,5.7c0.8,1.8,1.1,1.3,1.1-1.7c0-1.5,0.2-3.3,0.4-3.9
		C230.2,260.1,229.9,260.1,228.9,261.5 M97.9,261.4c-0.2,0.3-0.5,1.3-0.7,2.1c-1.8,7.7-6.1,16.1-11.2,21.9
		c-5.2,5.8-7.2,9.5-7.3,13.1c0,1.8,0.5,1.9,0.9,0.2c0.3-1.5,2.2-5.4,3.6-7.3c0.8-1.2,7.6-8.3,7.6-8c0,0.2-0.9,1.7-2.9,4.7
		c-1.7,2.6-2.7,4.8-2.7,5.8c0,1,0.7,0.5,1.6-1.2c0.5-1,1.5-2.5,2.2-3.4c2.8-3.7,4.6-6.8,5.3-9.1c0.7-2.1,0.5-0.6-0.2,2.5
		c-1.6,6.3-5.2,12.5-9.8,16.6c-6.9,6.3-10.8,10.9-12.1,14.4c-0.8,2.1-1.3,5.5-0.8,5.7c0.2,0.1-0.1,0.7-1.2,2
		c-6.2,7.3-10.4,17.6-9.5,23.4c0.4,3,0.6,3.4,1,3.4c0.5,0,0.5-2.9,0-3.5c-0.6-0.8,0.4-5.8,1.7-9.1c0.5-1.2,0.6-0.4,0.1,1.1
		c-0.6,1.9-0.4,1.7,0.6-0.6c0.8-1.9,2.7-5.1,2.3-4c-1.5,4.8-2.9,12.3-2.3,12.8c0.5,0.5,0.6,0.2,0.8-2.2c0.2-2.1,0.8-4.5,0.9-4.3
		c0.1,0.1,0,1.2-0.2,2.4c-0.4,3.2-0.2,3.5,0.4,0.6c1.5-7.6,4.6-16.8,6.5-19.1l0.6-0.7l-0.4,1.1c-0.2,0.6-0.7,1.6-1.1,2.3
		c-0.7,1.4-2.1,5-2.3,6.2c-0.1,0.4,0.5-0.5,1.2-2c4.1-8.1,6.1-11.4,8.9-14.3c1.7-1.8,1.6-1.6-0.4,1c-2.1,2.8-2.2,3.2-0.2,1.1
		c1-1,1.6-1.5,1.4-1.1c-0.2,0.4-0.8,1.3-1.2,2c-2.9,5-6,16.1-5,18.1c0.2,0.4,0.4,1.2,0.4,1.7c0,1.9,0.7,1.1,0.9-1
		c0.4-4,2.1-9.8,4.2-13.8c1.2-2.4,5.2-8.2,5.5-7.9c0.1,0.1-0.5,1-1.4,2.1c-2,2.6-3.9,5.9-4.9,8.3c-1.4,3.3-1.2,3.6,0.4,0.7
		c2.5-4.4,5.5-8.6,9.4-12.9c2.4-2.7,3.7-4.6,5.5-8.3c1.6-3.2,2.3-5.4,1.1-3.5c-0.5,0.9-3.5,5.4-3.8,5.7c-0.5,0.6,0.1-0.7,1.1-2.2
		c2.1-3.2,4.4-8.5,4.3-10.1c0-0.3-0.2-0.1-0.4,0.5c-0.5,1.5-1.3,3-3.1,6.1c-2.3,3.7-2.4,3.5-0.2-0.6c1.9-3.6,2.7-5.8,2.7-7.3
		c0-0.7-0.2-0.4-0.9,1.3c-1.5,3.8-4.5,7.5-7.4,9.2c-2.3,1.4-7.5,6.3-12.4,11.6c-3.6,4-3.5,3.9-2.9,1.6c1-3.7,3-6.3,12-15.3
		c5.8-5.7,7.2-7.6,9.5-12.4c2.2-4.6,3.9-12.5,4-19.5c0-1.6,0.2-3.4,0.5-4.3C99.3,262.7,99.1,259.6,97.9,261.4 M224,265.2
		c-0.4,1.1,1.6,3.6,2.9,3.6c0.3,0,0.1-1.4-0.5-2.9C225.8,264.8,224.3,264.3,224,265.2 M236,274.9c-2.6,0.5-3.5,0.7-7.9,2.1
		c-4.8,1.5-6.2,1.8-10.6,1.8c-4,0-4.2,0.1-3.4,1.7c1.7,3.6,8.7,7.4,17.4,9.5c3,0.7,11.8,0.6,14.6-0.2c3.3-0.9,7.1-1,10.5,0
		c6.6,1.8,18.5,0.3,25.5-3.2c3.6-1.8,12.9-9.2,12.4-9.8c-0.6-0.6-6.8,1.5-10.8,3.5c-3.2,1.6-3.6,1.8-6.1,1.9
		c-1.3,0.1-2.8,0.3-3.6,0.6c-1.1,0.4-2.2,0.5-6.8,0.5l-5.5,0l-2.8-1.3c-1.6-0.7-4.4-1.8-6.4-2.5c-4.6-1.5-8.3-2.9-10-3.6
		C240.2,274.8,238.2,274.5,236,274.9 M182.2,280.6c-0.2,6.3-0.8,14.2-1.6,20.5c-0.5,4.3-0.9,6.6-2.1,12.3c-0.7,3.2-0.6,3.4,1.1,3.6
		c4.7,0.6,7.1-1.8,7.8-7.8c0.3-2.7,0.4-13.3,0.2-14.3c-0.1-0.4-0.1-2.9,0.1-5.6c0.2-3.1,0.2-5,0-5.2c-0.1-0.1-0.3-0.2-0.3-0.1
		c0,0.1-0.1,1.7-0.2,3.7c-0.1,2-0.4,5.6-0.5,7.9c-0.2,2.4-0.2,4.7-0.1,5.1c0.5,1.9-0.1,9.3-1,11.2c-1.7,3.9-6.2,3.8-5.1-0.1
		c1.9-6.5,2.3-10.2,2.3-22C182.7,277.2,182.5,272.2,182.2,280.6 M199,280.8c-0.1,0.1-0.1,3.6-0.2,7.7c0,4.1-0.1,10.5-0.2,14.2
		l-0.1,6.7l-0.8,0.4c-0.4,0.2-0.9,0.3-1,0.2c-0.4-0.4-0.9-6.3-1.1-13.1c-0.2-6.9-0.3-8.2-0.7-7.7c-0.2,0.2-0.4,13.6-0.4,18.3
		c0,3,0.1,3-1.2,2.1c-1.9-1.4-2.3-0.7-0.6,1c2.9,3,6.9,2.9,7.7-0.3c1-4.6,1.3-6,1.3-7c0-1.5-0.5-1.4-1,0.2c-0.3,1-0.3,0-0.4-6.2
		C200.4,285.1,199.9,279.4,199,280.8 M204.4,281.3c-0.4,1-0.4,2,0.1,2c0.4,0,1.1-2,0.8-2.4C205.1,280.4,204.8,280.6,204.4,281.3
		 M178.5,281.7c-0.2,0.5-1.1,2.6-1.9,4.7c-0.8,2.1-1.6,4-1.7,4.1c-0.1,0.1-1.3,2.3-2.5,4.8c-2.4,4.7-5.5,9.6-6.3,10
		c-0.3,0.1-1.6,1.8-3,3.6c-4.2,5.7-7,7.8-11.4,8.4c-1.6,0.3-2,0.6-1.5,1.4c1.3,1.9,0.7,6.7-1.3,10.4c-3.1,5.8-4.9,8.3-7.4,10.1
		c-1.2,0.9-0.7,1,1.1,0.2c2.5-1.1,3.4-2,6.4-6.6c2.5-3.8,3.6-5.8,5.3-10c0.5-1.2,1.8-2.5,3.9-3.9c0.6-0.4,1.2-0.8,1.3-0.9
		c0.1-0.1,0.6-0.4,1.1-0.8c2.4-1.7,4.8-5,9.8-13.4c4-6.8,10-22.3,8.9-23C179,280.9,178.7,281.3,178.5,281.7 M204.7,285.2
		c-2.7,2.9-1.6,13.5,1.9,18.5c1.7,2.4,1.8,2,0.2-0.9c-1.6-2.8-2.4-4.8-2.6-6.6l-0.2-1.3l0.6,1.8c0.3,1,1.2,2.7,1.9,3.9
		c1.5,2.3,3.1,5.5,3.4,6.5c0.1,0.4,0.3,0.5,0.3,0.3c0.2-0.4-1-3.5-1.9-5c-1.7-3-2.4-6.3-2.7-12.6
		C205.6,284.7,205.6,284.3,204.7,285.2 M185,290.7c0,0.5,0.1,0.7,0.1,0.5c0.1-0.3,0.1-0.7,0-0.9C185.1,290,185,290.2,185,290.7
		 M207.8,291.7c-0.1,2.9,0.4,3.9,3.1,6.4c4.2,3.9,5.1,6.1,6.4,15.3c1,7.2,2.9,12.2,4.8,13.1c0.9,0.4,1,0.1,0.3-1
		c-1.8-2.8-3.6-8.5-4.8-15.4c-1.1-6.5-0.8-6.3,1,0.6c1.3,5,1.6,4.6,0.8-1.2c-0.8-5.8-2.7-10.5-4.7-12c-1.7-1.2-3.8-3.5-4.5-5
		c-0.4-0.9-0.8-1.5-0.8-1.2c0,0.6,1.7,4.5,2.5,5.5c1.1,1.4,0.4,1.1-1-0.4c-0.7-0.7-1.5-2.1-1.9-3.1
		C208.1,291,207.9,290.7,207.8,291.7 M96.9,293.5c0,0.5,0,1,0.1,1c0.2,0,0.3-1.3,0.1-1.7C97,292.6,96.9,292.8,96.9,293.5
		 M259.1,295.6c0,0.1,0.3,0.2,0.7,0.2c0.4,0,1.2,0.2,1.7,0.4c1.6,0.6,0.2,0.8-3,0.5c-3.5-0.4-3.7-0.3-1.3,0.6
		c1.7,0.6,2.2,0.7,6.2,0.7c3.2,0,4.9,0.1,6.4,0.4c2.7,0.6,2.9,0.4,0.4-0.4c-4.1-1.2-3.3-1.5,1-0.4c3.1,0.8,3.1,0.7,0-0.8l-2.6-1.3
		l-4.8,0C261.2,295.4,259.1,295.5,259.1,295.6 M220.1,296.1c0,0.8,1.2,3.1,2.2,4.5c2.3,2.9,4,3.8,8.9,4.5c5.4,0.8,8.3,2.4,11.5,6.6
		c1.3,1.7,1.7,1.9,1.7,0.9c0-1.7-3.6-6-6.8-8.2c-1.9-1.3-9.3-3.1-8.4-2c0.3,0.4,0.3,0.4-0.1,0.3c-0.3-0.1-0.1,0.1,0.3,0.3
		c1.2,0.7,0.5,0.7-1.3,0.1c-3-1-5.2-2.9-6.8-5.7C220.4,295.8,220.1,295.6,220.1,296.1 M216.9,296.5c0,2.3,5.1,9.7,6.7,9.7
		c0.1,0,1.2,0.6,2.3,1.2c5.1,3,7,4.9,8.9,8.8c0.6,1.3,1.7,3.5,2.4,4.9c1.4,2.9,2.9,4.6,6,7c3.1,2.3,2.9,1.6-0.5-1.6
		c-3.1-3-5.9-6.8-7-9.6c-0.8-2.1-0.7-2.3,0.3-0.4c1,1.8,3.4,5,3.6,4.8c0.2-0.2-2.2-6-3.5-8.6c-0.7-1.5-1.6-2.7-2.8-3.9
		c-1.8-1.8-2.2-2-6.9-4.2c-1.8-0.8-3.3-1.7-4.1-2.4c-1.7-1.6-1.9-1.4-0.3,0.4c0.7,0.8,1.1,1.4,0.9,1.3c-2-1.2-3.7-3.5-4.8-6.2
		C217.4,296.1,216.9,295.6,216.9,296.5 M250.8,297.5c1.6,0.7,5.2,3,4.9,3.3c-0.1,0.1-1.3-0.4-2.8-1.1c-2.5-1.2-4.6-1.8-6.4-1.8
		c-1.5,0-0.7,0.4,1.1,0.6c2.2,0.2,2.7,0.5,2.9,1.5c0.2,1.1,2.4,3,5.6,4.9c3.2,1.9,4.7,2.4,2.5,0.7c-2.1-1.5-1.7-1.6,0.9-0.2
		c1.2,0.7,3.4,1.7,4.7,2.3c1.4,0.6,3.3,1.6,4.1,2.2c0.9,0.6,1.6,1,1.7,0.9c0.2-0.2-1.3-2-2.3-2.7c-0.5-0.4-1.4-1.1-1.9-1.6
		c-4.5-4.2-10.9-8.4-13.8-9.3C249.9,296.6,249,296.8,250.8,297.5 M209.7,299.2c0,0.1,0.3,0.5,0.6,1c0.3,0.5,0.7,1,0.8,1.2
		c0.3,0.6-0.8-0.1-1.4-0.9c-1.2-1.5-1.1-0.6,0.1,1.9c1.2,2.4,2.5,9.6,2.6,13.5c0,4.2,2,9.4,4.6,12.1c1.8,1.9,2,1.1,0.3-1.1
		c-1.1-1.3-2.6-4.6-3.6-7.7c-0.5-1.5-1.6-9.8-1.6-11.6c0-1.5,1,2.7,1.7,6.7c0.1,0.4,0.1-0.8,0.2-2.8c0.1-5.2-1-10-2.7-11.8
		C210.8,299.1,209.7,298.8,209.7,299.2 M261.2,300.4c0,0.2,1.7,1.1,2.6,1.4c0.5,0.2,1.6,0.8,2.5,1.5c2.2,1.6,3,1.8,6.4,2
		c3.3,0.2,3.7,0,1.1-0.4c-2.6-0.4-3.1-0.9-0.7-0.7c2.6,0.2,8.9,0.9,9.7,1.1c0.9,0.2-1.3-0.8-3.5-1.6c-2.9-1-0.7-0.8,2.4,0.3
		c2.7,0.9,5.1,2.1,5.1,2.5c0,0.1,0.2,0.3,0.5,0.4c0.3,0.1-0.2-0.4-1-1.2c-3.3-3.1-9.6-5.3-14.8-5.1c-5.5,0.2-8,0.2-9.1,0
		C261.7,300.4,261.2,300.4,261.2,300.4 M239.6,300.7c0,0.1,1.1,0.5,2.4,1c4.2,1.5,7.2,4,10.5,8.9c2.5,3.6,5.7,6,9.3,7.1
		c2.5,0.8,2.7,0.7,0.8-0.2c-1.8-0.9-4-2.4-4-2.7c0-0.1,0.8,0.2,1.7,0.7s2.9,1.3,4.5,1.8c5.3,1.6,11.6,6.2,13.4,9.8
		c0.6,1.1,1,1.1,1,0c0-2.5-4.8-7.6-9.3-9.7c-1.4-0.7-2.9-1.5-3.3-1.8c-0.4-0.3-1.4-0.9-2.1-1.3c-1.3-0.7-5.9-3.9-7.5-5.3
		c-0.5-0.4-1.6-1.2-2.5-1.7c-0.9-0.5-2.1-1.4-2.7-1.9c-1.6-1.5-1.2-0.7,0.7,1.4c3.1,3.5,2.9,3.5-0.9,0
		C248.2,303.6,239.6,299.3,239.6,300.7 M97.3,303c-0.2,0.2-0.8,1.6-1.3,3.2c-1.5,4.2-2.5,6.2-4.7,9.4c-4.4,6.6-9.1,17.3-9.9,22.5
		c-0.4,2.7,0.2,6.2,1.6,9.2c0.6,1.3,1.1,2.7,1.2,3.1c0.2,1,0.8,1.6,1.2,1.2c0.2-0.2,0-1-0.6-2.7c-2-5.8-2.5-12.7-1-14.9
		c0.2-0.4,0.3-0.3,0.1,0.1c-0.8,2.5-0.3,8.8,0.9,12.9c0.8,2.7,0.9,1.5,0.1-1.7c-1-3.9-0.2-11.3,1.7-16c0.5-1.1,1.4-3.4,2-5
		c0.6-1.6,1.5-3.4,1.9-4c0.4-0.6,1.4-2.2,2.1-3.6s1.7-3.1,2.1-3.8c0.4-0.7,0.7-1.4,0.6-1.6c-0.1-0.2-0.6,0.5-1.3,1.6
		c-1.6,2.7-1.7,2.2-0.1-0.8c2-3.8,3.6-7.6,3.5-8.5C97.6,302.8,97.5,302.7,97.3,303 M220.4,305.4c0,0.4,1.3,2.6,2.4,4.1
		c1.8,2.4,2.9,5.4,4.2,11.3c1.6,6.9,4.5,12.2,7.9,14.1c2,1.1,2.1,0.8,0.3-1c-2.8-2.8-6.9-10.7-8.3-15.9c-0.7-2.8-0.5-3.5,0.3-1.2
		c2.2,6.3,2.7,7.2,2.1,3.4c-1.2-7.2-4.1-13-6.6-13.5c-0.5-0.1-1.2-0.5-1.6-0.9C220.7,305.3,220.4,305.2,220.4,305.4 M99.1,305.9
		c-0.1,0.3-0.4,1-0.5,1.5c-0.7,3-1.7,6.1-2.4,7.7c-2.4,5.6-3.9,13.3-3.9,19.9c0,4,0.9,12,1.5,12.6c0.7,0.8,0.9-1.5,0.9-10.1
		c0-8.9,0.2-9.5,0.6-1.5c0.3,7.6,0.6,5.6,0.5-3.1c-0.2-9.6,0.1-11.8,1.7-15.7c0.6-1.4,1-3,1.1-3.9c0.1-0.8,0.4-2.4,0.8-3.5
		C100.1,307,100,304.1,99.1,305.9 M242.3,306.1c0,0.1,0.5,0.9,1.2,1.7c1.6,1.9,2.4,3.7,2.9,6.1c0.9,4.4,4,7.6,8.5,8.9
		c1.8,0.5,3.6,2.2,4.1,3.7c0.5,1.4,1.2,1.3,1-0.2c-0.4-2.5-2.2-4.7-4.8-5.8c-2.3-1-5.7-4.7-6.2-6.7c-0.6-2.3-1.5-4.2-2.5-5.2
		l-0.8-0.8l0.8,1.6c0.4,0.9,1,2.4,1.3,3.3c0.2,0.9,0.7,2.3,1.1,3l0.7,1.4l-0.7-0.8c-0.4-0.4-0.9-1.3-1.1-1.9
		C245.7,309.8,242.3,304.5,242.3,306.1 M268.9,306.8c0,1.4,2.9,3.5,6.3,4.7c2.1,0.7,2.1,0.6,0.2-0.3c-2.2-1.1-2-1.2,0.9-0.4
		c1.6,0.5,3.5,0.8,6.2,1c5.5,0.4,8.2,1.2,11.5,3.6c1.6,1.1,1.7,0.6,0.2-0.8c-1.5-1.3-4.9-3.1-6.9-3.6c-1.8-0.4-2.3-0.9-0.7-0.6
		c3.8,0.6,6.1,1.6,8.7,3.8c2.1,1.8,2.4,1.9,1.3,0.2c-2.9-4.4-6.7-5.8-16.4-5.9c-6.2-0.1-7.8-0.4-9.6-1.6
		C269.7,306.4,268.9,306.3,268.9,306.8 M249.5,310.4c0,3.7,3.5,8.5,7,9.7c1,0.3,1.8,0.7,1.8,0.8c0,0.2,1.6,1.1,2,1.1
		c0.1,0-0.1-0.3-0.4-0.5l-0.7-0.5l0.7,0.2c4.6,1.2,10.8,5.8,12.7,9.4c1,2,1.1,2,0.8,0.5c-1-5.4-7-10.9-14-12.8
		c-5-1.4-7.5-3.4-8.2-6.7C250.7,309.4,249.5,308.7,249.5,310.4 M264,309.9c-0.9,1.4,8.6,8.2,12.3,8.8c1.5,0.3,2,0.5,3,1.4
		c0.7,0.6,1.6,1.2,2,1.5c0.7,0.3,2.3,1.6,4.6,3.7l0.6,0.6l-0.4-0.8c-0.2-0.4-0.6-1.1-0.9-1.4c-0.9-1.2,0.3-0.3,1.3,1
		c1.8,2.4,2.2,3.5,2.2,6.8l0,2.9l0.6-1.1c2.2-4.2,0.5-8-6.3-14.1c-0.8-0.7-0.8-0.8-0.1-0.3c1.1,0.7,3.7,1.8,5.1,2
		c0.9,0.1,0.8,0-1.1-0.9c-3.9-2-3.7-2.4,0.5-0.8c1.5,0.6,3,1.1,3.4,1.2c3.9,1.1,9.2,6.9,10.3,11.2c0.7,2.6,7,5.3,8.7,3.7
		c0.5-0.5,0.1-0.7-1.1-0.6c-2.5,0.1-4.9-1.8-7.9-6.2c-1.1-1.6-2.6-3.7-3.5-4.6c-0.8-0.9-1.4-1.7-1.2-1.7c0.4,0,3.3,2.9,4.7,4.7
		l0.9,1.1l-0.5-1.4c-1.7-4.3-6.6-8.3-10.8-8.9c-3.3-0.5-6.8-1.5-7.7-2.4c-1.2-1.1-4.6-1.9-5.2-1.2c-0.4,0.5,0,0.8,2.2,1.5
		c1.6,0.5,2.6,1.2,1.3,0.9c-0.7-0.2-0.7,0.5,0.1,1.1c0.5,0.3,0.3,0.3-0.7-0.1c-0.7-0.3-2.3-0.7-3.5-0.9c-3.7-0.8-6.5-2.2-9.1-4.4
		C265.8,310.1,264.3,309.4,264,309.9 M237.2,310.4c0,0.2,0.3,0.8,0.7,1.2c0.5,0.5,0.7,1.1,0.8,1.8c0.3,3.7,4.4,8.6,9.9,11.8l1.1,0.6
		l-0.9-1c-0.5-0.5-1.5-1.4-2.2-1.9c-1.6-1.2-1.5-1.4,0.3-0.5c5.3,2.8,11.6,11,11.6,15.3c0,0.5,0.1,0.9,0.3,0.9c0.6,0,0.1-4-0.8-6.5
		c-1.6-4.4-3.3-6.3-8.7-9.9c-4.4-3-5.1-3.7-7.2-7.6C240,310.8,237.2,308.4,237.2,310.4 M101.5,311.9c-1.3,4.4,0.2,10.6,3.2,12.5
		c1.7,1.1,4.1,3.6,5.7,6c1.6,2.3,1.3,0.3-0.4-3.1c-1.2-2.3-0.8-2.3,0.8,0c0.6,0.9,0.9,1.2,0.9,0.8c0-1.2-1.4-3.4-3.5-5.6
		c-2.6-2.8-3.3-3.7-4.1-5.9c-0.8-1.9-0.9-1.2-0.1,0.8c0.6,1.7,0.7,2.1,0.1,1.4c-0.6-0.8-1.5-3.7-1.9-5.9l-0.3-2L101.5,311.9
		 M296.1,317.1c0,0.1,0.2,0.4,0.4,0.6c0.2,0.2,0.4,0.2,0.4,0.1c0-0.1-0.2-0.4-0.4-0.6C296.3,316.9,296.1,316.9,296.1,317.1
		 M98.2,318.5c-0.8,2.9,0.8,7.2,5,13.1c2.9,4.2,4.5,8.6,4,11.5c-0.2,1,0.1,1.4,0.8,1.4c0.8,0,1-5.3,0.2-8.7
		c-0.3-1.3-0.6-2.7-0.7-3.1c-0.4-1.7,1,1.5,1.6,3.8l0.7,2.5l-0.1-2.3c-0.1-3.4-1.4-5.9-5.2-10c-1.5-1.7-3.1-3.4-3.4-3.9
		s-0.6-0.7-0.6-0.5c0,0.5,1,2.4,2.1,3.9c0.9,1.3,0.5,1.2-0.7-0.1c-1-1.2-2.5-4.3-2.8-6.1C98.7,318.1,98.4,317.6,98.2,318.5
		 M80.7,330.3c-3.6,4.4-4.2,14.2-1.5,23.6c0.9,3,0.9,3.4-0.3,7c-1,3.2-1.2,5.4-0.6,6.3c0.3,0.4,0.4,0.3,0.5-1.5
		c0.1-1.5,0.4-2.7,1.3-4.8c0.6-1.5,1.2-3.3,1.3-3.9c0.1-0.6,0.3-1.2,0.4-1.3c0.5-0.3,0.2,2.3-0.6,4.4c-0.9,2.6-0.9,2.8,0.1,1.6
		c2.1-2.8,2.6-5.9,1.4-8.4c-0.4-0.7-1.4-3-2.2-5l-1.5-3.7l0-3.7c0-3.7,0-3.8,1-6.5C81.5,329.8,81.7,329.1,80.7,330.3 M240.8,331.3
		l-0.7,0.6l0.4,3c0.5,3.5,0.5,5.2,0.1,5.6c-0.5,0.5,0.2,1.4,2.1,2.7c1,0.7,2.4,1.7,3.3,2.2c0.8,0.6,2.4,1.5,3.5,2
		c1.1,0.6,2.5,1.3,3.2,1.7c7.6,4.5,24.4,9.6,29.9,9.1c2.2-0.2,2.5-0.2,5.9,0l2.3,0.1l1.1-1c1.4-1.2,1.4-1.8,0.3-7.1
		c-1.2-5.7-2.6-9.8-3.5-10.4c-0.7-0.4-0.6,0.5,0.2,3.6c0.5,1.8,1.1,4.3,1.3,5.7s0.6,3.1,0.8,4.1c0.5,1.9,0.4,2.6-0.4,2.2
		c-0.3-0.2-0.6-0.7-0.7-1.7c-0.7-5.6-3.1-14.3-3.9-14.3c-0.6,0-0.5,0.9,0.7,6.5c1.5,7.2,1.8,9.5,1.3,9.5c-0.2,0-0.4-0.4-0.5-0.9
		c-1.2-7.8-1.8-10.3-3.4-14.8c-1.4-3.8-1.8-2.2-0.6,2.6c1.7,6.8,2.6,13.1,1.9,13.1c-0.2,0-0.4-0.1-0.4-0.2c0-3.1-3.5-16.6-4.3-16.6
		c-0.4,0-0.3,1.2,0.6,5.4c1.8,9.2,2.1,11,1.7,11.2c-0.6,0.3-2.5-0.1-2.6-0.6c-0.3-1-1-5.8-1.4-9.5c-0.7-6.8-1-8.2-1.7-7.8
		c-0.6,0.3,0,9.1,0.9,14.6c0.2,1.3,0.4,2.4,0.4,2.4c0,0.1-1.6-0.3-1.8-0.5c-0.3-0.3-1-4.6-1.2-7.5c-0.1-1.9-0.4-4.5-0.7-5.7
		c-0.2-1.2-0.5-3.2-0.6-4.4c-0.2-2.5-1-3.3-1-1c0.2,7.2,0.9,16.2,1.3,17.5c0.1,0.3,0,0.4-0.3,0.4c-0.6-0.1-0.7-0.7-1.4-6.9
		c-0.7-5.8-1.6-11-2-10.8c-0.5,0.2,0.1,11.6,0.8,15.7c0.1,0.6,0.1,1-0.1,1c-0.3,0-1.1-0.7-1.1-1c0-1.1-0.6-6.9-1.1-10
		c-1.2-8.1-1.8-3.1-0.9,7.1c0.1,1.5,0.1,2-0.1,1.9c-0.3-0.3-1.2-5.5-1.8-10.9c-0.5-4.4-0.6-4.7-1-4.6c-0.4,0.1-0.3,4.3,0.2,9.1
		c0.2,1.9,0.4,3.8,0.4,4.2c0,1.5-0.9,0.2-1.3-1.9c-0.5-2.9-1.4-8.9-1.5-10.3c-0.3-2.2-0.6-1.4-0.5,1.2c0.3,6.4,0.4,9.3,0.2,9.3
		c-0.6,0-1.1-1.1-1.1-2.4c0-1.9-0.5-6.4-0.8-7.4c-0.7-2.2-1.1-0.3-1,4.3c0.1,3.8,0,4.1-0.7,1.6c-0.6-2.3-1.6-2.3-1,0.1
		c0.2,0.7,0.2,0.7-0.3,0.3c-0.8-0.6-0.8-0.7-1-3.5c-0.4-5.8-1.9-7.6-1.7-2.1c0.2,4.3-0.4,4.3-1.2,0c-0.5-2.6-1.3-3.1-1.3-0.8
		c0,1.7-0.9,1.3-1.4-0.7c-0.3-1.4-0.8-1.8-0.8-0.7v0.7l-0.8-0.8c-0.4-0.4-0.8-1-0.8-1.4c0-0.7-0.4-1-0.9-0.7c-0.3,0.2-1.1,0-3.3-1
		C241.7,330.5,241.7,330.5,240.8,331.3 M71,331.7c-1.8,3.6-2.5,12.1-1.4,16.7c0.7,2.8,0.9,10.7,0.3,12.7c-2,6.8-2.5,10.6-1.6,12.1
		c0.7,1.1,0.9,0.8,0.8-1.1c-0.2-2.4,0.2-4.5,2-9.4c1.4-3.7,2.1-4.6,1.2-1.4c-0.6,2.1-0.4,2,0.6-0.1c2.1-4.6,2.3-6.3,1.2-10.5
		c-0.6-2.4-0.7-2.4-0.6-1c0.1,1.5-0.2,2.6-0.5,1.7c-0.1-0.3-0.1-0.9-0.2-1.4c0-1.2-0.7-5.9-1.2-7.8l-0.3-1.4l-0.2,1.6l-0.2,1.6
		l-0.1-1.7c-0.2-3.1,0-7.6,0.4-9.2C72,330.8,71.8,330.1,71,331.7 M88.4,333.5c-2.2,4.8-2.1,8.2,0.4,17.3c1.1,3.9,1.1,9.5,0,13.1
		c-0.9,2.7-1.1,4.1-0.7,4.1c1.3,0,3.3-6.8,3.3-11.3c0-1.9,0.1-2.3,0.3-1.8c0.3,0.7,0.2,6.3-0.2,7.7c-0.1,0.4,0,0.1,0.3-0.5
		c1.4-4.2,1.1-10.4-0.9-16.5c-0.7-2.2-1.4-4.4-1.6-4.9l-0.3-0.9l-0.1,1.3l-0.1,1.3l-0.3-1.2c-0.4-1.5,0.1-7.1,0.7-8.8
		C90.1,330.6,89.5,331.1,88.4,333.5 M296.4,332.9c0,0.1,0.6,1.7,1.4,3.5c1.4,3.4,2.5,7.4,3.1,11.9c0.2,1.5,0.6,3.1,0.8,3.4
		c0.2,0.4,0.4,0.9,0.4,1.2c0,0.6,0,0.6-2.8-0.1c-1.5-0.4-2-0.4-2,0.1c0,0.4,1.3,0.8,3.9,1.1c1.3,0.1,2.7,0.3,3,0.4
		c1.3,0.3,2.6-5.9,2.2-10c-0.5-4.7-0.8-5.9-1.7-6.5c-1.1-0.7-1.2-0.5-0.6,1.2c0.7,2.3,0.6,2.9-0.1,0.8c-1.6-4.7-3.7-6.1-2.3-1.6
		c1.2,3.7,1.6,5.8,1.7,8.4l0.1,2.7l-0.5-3c-0.6-3.3-1.4-5.8-2.7-8.8C298.8,334.7,296.4,331.7,296.4,332.9 M287.2,334.8
		c-0.3,1.4-0.1,2.7,0.5,2.8c0.6,0.1,0.7-1.7,0-1.9c-0.3-0.1-0.4-0.4-0.2-1c0.1-0.4,0.1-0.8,0-0.8S287.3,334.3,287.2,334.8
		 M101.4,334.9c-0.1,0.1-0.2,0.6-0.2,1c0,0.7,0.1,0.8,0.3,0.3C101.8,335.7,101.7,334.6,101.4,334.9 M99.4,337.3
		c-2.3,3.9-2.5,6.4-0.7,13.6c1.4,6,1.5,11.1,0.2,14.3c-0.8,1.9-0.9,2.4-0.3,2.4c1,0,2.2-4.9,2.3-9.6c0.1-4.4,0.2-5,0.5-2
		c0.4,4.5,0.6,5,0.6,1.4c0-3,0-3.5-0.7-5.2c-1.7-4.6-2.5-7-2.5-7.7c0-0.7,0.1-0.6,0.3,0.4l0.3,1.2l0.1-1.2c0-0.7,0.1-2,0.2-2.9
		l0.2-1.7l0.4,1.5c0.5,2.1,1.9,5.1,3.7,8.2c2,3.5,2.4,5.7,1.7,10.3c0,0.3,0.1,0.6,0.2,0.6c0.9,0.3,1.5-5.6,0.8-8.4
		c-0.2-1-0.4-1.8-0.3-1.8c0.2-0.2,0.9,1.9,1.3,3.7l0.4,1.8l0.2-1.4c0.3-2.5-1-6-4-10.3c-0.8-1.2-1.7-3-2.1-4c-0.8-2.4-1-1.1-0.2,1.5
		c0.6,2.1,0.5,2.3-0.2,0.5c-0.5-1.2-1-3.6-1.2-5.9l-0.1-0.9L99.4,337.3 M71.7,338.1c0,0.7,0.1,1,0.1,0.6c0.1-0.4,0.1-1,0-1.3
		C71.7,337,71.7,337.3,71.7,338.1 M66.7,344.3c-0.1,0.2-0.3,1.3-0.4,2.4c-0.4,2.4-0.7,3.2-2.4,5.7c-2.7,4-3.2,6.4-2.1,9.4
		c0.6,1.5,1,1.6,0.7,0.1c-0.4-2,0.2-3.5,2.5-6.1c1.8-2,2.8-4.3,2.8-6.3l0-1.6l-0.4,1.1l-0.4,1.1l0.1-1.7
		C67.3,346.5,67,343.7,66.7,344.3 M57.5,349.9c-0.8,1.5-1.9,3.2-2.4,3.8c-3.6,4.1-6.4,10.6-4.5,10.6c0.2,0,0.3-0.2,0.4-0.5
		c0.7-2.1,1.9-3.9,4.1-6.3c3.1-3.3,4-5.2,4.2-8.2C59.4,346.7,59.2,346.7,57.5,349.9 M303.6,350.9c0,0.4-0.1,0.7-0.2,0.7
		c-0.1,0-0.2-0.3-0.1-0.7c0.1-0.4,0.2-0.7,0.2-0.7S303.6,350.5,303.6,350.9 M60.2,353.7c-3.8,6.7-8.8,19.6-8.5,21.6
		c1.2,7.5,7.5,14.1,15.1,16c0.6,0.2,1.9,0.4,2.7,0.6c1.6,0.4,2.6,0.3,2.6-0.2c0-0.2-0.4-0.4-0.9-0.5c-0.5-0.1-1.6-0.5-2.6-0.9
		c-1-0.4-2-0.8-2.2-0.9c-0.3-0.1-0.4-0.3-0.4-0.5c0.1-0.2,0.5-1.8,0.9-3.7c0.4-1.8,1-4.1,1.2-5c0.5-1.6,0.4-2.6-0.2-1.8
		c-0.5,0.6-1.9,4.6-2.5,6.7c-0.5,2-1,3.6-1.1,3.3c0-0.1-0.1-0.6-0.1-1.1c-0.1-0.5-0.1-1.1-0.1-1.2c-0.1-0.3,1.6-5.7,2.4-8
		c0.4-1.2,0.5-1.9,0.4-2.6c-0.3-1.4-0.4-1.2-1.6,1.8c-1.2,3.1-1.4,3.1-0.6,0.3c1.2-3.9,2.3-11.6,1.5-10.2
		c-0.3,0.6-3.7,10.9-4.1,12.5c-0.3,1.4-0.9,2-0.7,0.7c0.3-1.7,2.1-8.1,3-10.3c1.9-5.2,3.3-11.1,2.3-10.1c-0.3,0.3-1.4,3.4-2,5.5
		c-0.2,0.7-0.6,1.8-0.9,2.5c-0.8,1.9-2.4,6.5-2.4,7c0,1-0.9,3.3-1.1,3c-0.3-0.3-0.1-1,2.3-7.8c1.4-4,1.4-3.9,0.6-3.9
		c-0.5,0-0.7,0.2-1.1,1l-0.4,1l0.2-1.1c0.3-1.6,0.3-2,0-2.1c-0.2-0.1-0.6,0.7-2.2,4.9c-0.7,1.9-1.2,2.6-1.2,1.8
		c0-0.2,0.5-2.2,1.2-4.5c0.7-2.3,1.2-4.5,1.2-4.8c0-0.9-0.6-0.4-1.1,1c-1.6,4.3-2.4,5.4-1.3,1.9c1.6-5.4,1.7-8,0.3-4.7
		c-0.5,1.2-0.5,1.2-0.6,0.4c0-0.8,0.6-2.6,2.2-6.8C61.3,352,61.3,351.9,60.2,353.7 M65.8,357.7c-0.6,0.8-1.2,2.9-1.3,4.7l-0.1,2
		l1.1-3.3C66.5,358.2,66.6,356.7,65.8,357.7 M109,372c0,3.7-0.1,6.7-0.3,8l-0.3,2.1l-2.7,2.7c-3,3-3.2,3.1-3.5,1.9
		c-0.2-1.1-1.7-4.5-2.2-5c-0.8-0.8-0.7,0.6,0.2,3.5c0.5,1.7,0.9,3.1,0.8,3.3c-0.1,0.1-0.3-0.5-0.6-1.3c-0.8-2.7-2.9-6.5-2.9-5.1
		c0,0.7,2,6.9,2.2,6.9c0.1,0,0.2,0.1,0.1,0.3c-0.4,0.7-0.9,0.1-1.7-2.1c-0.5-1.3-1.3-3.3-1.9-4.5c-0.6-1.1-1.1-2.3-1.2-2.7
		c-0.2-0.7-0.7-0.8-0.7-0.2c0,0.2,0.7,2.4,1.5,4.9c1.7,5.2,1.7,5.1,0.8,5.1c-0.8,0-0.9-0.3-2.2-5.1c-1.5-6-2.5-8-2.5-5.2
		c0,1,1.3,6.9,2,9.2c0.1,0.3,0,0.5-0.2,0.5c-0.8,0-1.1-0.6-1.6-2.7c-0.4-2-2.8-11.5-3.1-12.5c-0.1-0.2-0.2-0.3-0.4-0.1
		c-0.3,0.3,0.3,5.6,1.2,9.2c1,4.1,1.1,5.5,0.6,5.1c-0.6-0.5-2.1-7.2-2.8-11.9c-0.2-1.7-0.6-2.7-0.9-2.4c-0.1,0.1-0.1,1.5,0.1,3.3
		c0.5,4.3,0.4,6.2-0.1,3.3c-0.1-0.6-0.4-1.7-0.6-2.6c-0.2-0.9-0.7-2.7-1-4.1c-0.8-3.3-1.5-5.2-1.7-4.8c-0.1,0.2-0.1,0.7,0,1.2
		c0.1,0.5,0.3,2.5,0.4,4.6c0.3,6.2,1.6,16.7,2.2,17.8c0.2,0.4,0.6,0.5,3.8,0.3c8.3-0.4,13.6-2.9,18.7-9.2c2.9-3.6,3.1-5.1,1.6-12.8
		C109.1,365.2,109,365.3,109,372 M72.9,391.4c-0.2,0.2,0.1,0.6,0.5,0.6c0.2,0,0.4-0.2,0.4-0.4C73.7,391.3,73.2,391.1,72.9,391.4"/>
</g>
</svg>
