<?xml version="1.0" encoding="utf-8"?>
<!-- Generator: Adobe Illustrator 21.0.0, SVG Export Plug-In . SVG Version: 6.00 Build 0)  -->
<svg version="1.1" id="Layer_1" xmlns="http://www.w3.org/2000/svg" xmlns:xlink="http://www.w3.org/1999/xlink" x="0px" y="0px"
	 viewBox="0 0 466 466" style="enable-background:new 0 0 466 466;" xml:space="preserve">
<path d="M348.8,450.7c-13.3,0-25-1.4-35.3-4c-14.1-5-26.6-11-41.9-31.9c-1.4-2-2.8-4-4.1-6.1l-0.9-1.4c-14.1-24.3-17.4-56.4-19-86.4
	l-0.2-8V82.3c0-7.4-0.9-15.1-4.2-22c-2.5-4.2-5.8-4.5-8.4-3.2c-3.3,1.6-7.4,6.8-8.1,17.2c0.9,72.7-1.6,176-2.6,246.6h-77.9V82.3
	c0-7.4-0.9-15.1-4.2-22c-2.6-4.3-6-4.6-8.8-3c-3.5,2-7.7,8.1-7.7,19.8c0.6,79.3-1.5,164.8-2.7,243.7H45.1V82.3
	c0-21.4-8.9-39.7-36.4-39.8l-8.4,0C17.7,22.6,35,14,63,14c18,0,34.9,7.2,46.6,19.3l1.9-1.7l2.2-1.9c16.8-12.9,36-15.7,50.6-15.7
	c18,0,34.9,7.1,46.5,19.3l1.8-1.7l2.2-1.9c16.8-12.9,36-15.7,50.6-15.7c33,0,61.9,23.9,62.6,58.4c0.2,8.8,0.2,19,0.3,30.2
	c0,62.7-2.8,237.7-0.7,250.2l1,5.5c0.5,2.6,1.1,5,1.7,7.4c9.8,37.7,23.9,46.4,49.6,45.8c11.5-1,21.7-5.3,29.6-9.8L392.9,372
	l72.8,2.4l-29,77.6c-0.2-0.9-6.2-11.9-13.7-25.6C416.2,435.3,397.5,450.7,348.8,450.7L348.8,450.7z"/>
</svg>
