<svg xmlns="http://www.w3.org/2000/svg" viewBox="0 0 380 380"><path d="M197.9 58.4c-4.1.6-5.4 1.9-5.4 5.2v1.9l-.6.1c-1.2.2-2.3 1-2.7 2-1.1 2.6-.7 3.5 2.5 5.4.3.2.5 1.2.7 2.9.1.7.2 1.8.3 2.3s.2 1.6.3 2.3c.3 3.5 1.3 7.9 1.9 9.1.3.6.3.5.2-.3-.4-2.6-.9-7.4-.6-7.1 0 0 .5 1.3 1 2.8 1.3 4 1.3 4 .1-2.2-.3-1.4-.7-3.4-.9-4.5s-.5-2.3-.5-2.7c-.3-1.7-.4-2.3-.9-3.3-.7-1.4-1-2.3-.9-3v-.6l.8-.1c1.3-.1 1.5-.9 1.2-4.9-.2-2.4.1-2.9 1.9-2.9h.8v.5c0 .8 0 .8 3.9 4.1.8.7 1.9 1.6 2.3 2 2.2 2 2.6 2.1.9.4-2.5-2.6-4.5-5-4.5-5.4 0-.1.3.1.8.3 3.5 1.9 15.6 14.2 20.9 21.4 2.9 3.9 2.9 4-.4.7-3.7-3.7-7.2-6.9-10.7-9.7-.4-.4-1.2-1-1.8-1.5-2.1-1.7-3.5-2.8-4.9-3.6-3.4-2.2-3.4-2.2-4.1-3.1-.4-.5-.8-1.1-.9-1.3l-.2-.4.1.5c0 .3.2 1 .3 1.5s.4 1.5.6 2.3c.2.7.4 1.4.4 1.5.3.3 2.2 1 3.6 1.3 1.5.3 2.3.9 4.5 2.8 2 1.8 8.7 8.6 10.9 11.1 1.2 1.4 2.7 3 3.3 3.6s1.8 2.1 2.9 3.2c1 1.2 2.5 2.9 3.3 3.9.8.9 1.8 2.1 2.2 2.6s1.1 1.3 1.5 1.8c1 1.2 4.5 5.6 5.1 6.5.3.4.7 1 1 1.4s.7 1 1 1.5c1.1 1.7.6.6-1.6-3.6-2.4-4.6-3.8-7.1-5.2-9.1-.5-.7-1.1-1.7-1.4-2.3-1.3-2.2-6.6-9.8-8.5-12.1-.5-.6-1.2-1.5-1.6-2-4.7-6-13.7-15-19.4-19.4l-1.4-1.1v-2.4h-.8c-.6-.3-1.1-.3-1.3-.3m-61.3 13.8c-2.9.5-4.4 3.4-3.8 7.9.2 1.3.3 1.6.5.8.2-1.1 1.1-4 1.5-4.5 1.1-1.5 2.1 0 1.4 2-.3.9-.1.5.8-1.1 1.2-2.3 2.4-3.6 3.2-3.6.4 0 .4-.1.3-.3-.2-1-2-1.5-3.9-1.2m6.2.5c-1.9.8-2.5 2.4-2.8 7.4-.2 3.1-.1 4.2.2 2.3.6-3.5 2-8.2 2.5-8.2v2.1c0 1.4.1 2.1.2 2.2.1.1.2.1.2-.1 0-1.2 2.3-1.9 4.1-1.4.4.1.7.2.7.2s.1-.2.1-.4c.5-1.3 2.2-3.2 3-3.2.1 0 .2-.1.1-.1 0-.1-.6-.1-1.2-.1-3.6 0-5.5-.2-5.5-.5 0-.6-.5-.7-1.6-.2m13 .9c-3.7.6-5.5 3.2-6 8.4-.1 1.3-.1 1.4.2 1a45.8 45.8 0 0 1 2.1-3c.8-1.6 1.6-2.4 1.6-1.6 0 .2.1.4.1.5h.1c0-.1 2.1-2 3.6-3.3.6-.5.6-.6.2-.6-.1 0-.6-.1-.9-.1l-.7-.2.4-.3c.6-.8.4-1-.7-.8m-26.3.6c-2.2.4-4.1 3-4.3 5.9l-.1.9.3-.8c.9-2.3 2.2-3.6 2.6-2.6.1.4.1 3.1-.1 4-.1.4-.1.9-.1 1.1 0 .3.1.2.1-.2.5-2.7 3.1-7.3 4-6.9.3.1.4-.5.1-.8-.3-.5-1.4-.8-2.5-.6m30.4 2.8c-1.2 1.3-1.8 1.8-1.8 1.7-.1-.4-.3-.2-1.3 1.3-1.2 1.7-1.2 1.9-.1.6 1-1.2 1.4-1.4 1.4-1 0 .5.1.5.7.1.3-.2.9-.7 1.4-1s1.4-.9 2-1.3c.6-.4 1.3-.9 1.4-.9.2-.1-1.3-1.3-1.7-1.2-.2-.2-1 .7-2 1.7m20-.8c-.3.1-.9.2-1.4.3-2.7.6-5.3 1.3-6.8 2-.4.2-1.2.5-1.6.7-.9.3-2.1 1-3.9 2.2-2 1.3-5.3 5.1-7 8.1-.5.9-.6.9-.8.4s-.3-1.2-.1-1.6c.1-.2.1-.3-.1-.3-.4 0-1 .7-1.2 1.3-.3 1.1-.9-.4-.8-2 .1-1.1 0-1.2-.4-.3-.8 1.9 0 4.2 1.4 4.2.8 0 .9.4.7 2-1.1 9-.8 14.8.7 15.4.2.1.6.2.9.2.4.1.5.1.5.4 0 1.5 2.4 3.7 4.9 4.6.8.3 1.4 0 2.6-1l.6-.5-.9.1c-2.1.2-4.1-1-4.8-2.9-.5-1.5-.7-6.8-.3-10.9.4-4.5.5-5.2.6-5.4v-.1c-.1 0-1.1 2-1.1 2.2 0 .1-.2.6-.5 1.3-.6 1.6-1.1 4.2-1.3 6.4-.1 1.7-.1 2.1.1 3.6l.1.4-.5-.2c-.6-.2-.6 0-.4-3.4.7-13.1 5.3-20 15.9-24 2.8-1 4.5-1.6 6-1.8.4-.1.6 0 1.3.5.6.4.7.5.5.2-.1-.2-.4-.6-.6-1-.8-1.3-1-1.4-2.3-1.1m-11.6.3c-2.7.2-5.6 2.1-8 5.1-.4.5-.3.7.1.3.4-.3 4.6-2.5 6.2-3.3 1.6-.8 2.1-1 2.9-1.1.4-.1.9-.2 1.1-.3.2-.1.7-.2 1.2-.2 2.4-.2-1-.7-3.5-.5M123 77.8c-1.9.7-4 4.4-4 7.2 0 2.2 1.9 5.8 3.7 7l.3.2-.2-.4c-.1-.2-.3-.5-.4-.5-.2-.1-1.3-2.3-1.7-3.7-.8-2.3-.5-5.4.6-5.6.3 0 .6.9.4 1.4-.1.4.1 1.5.4 1.7.4.3.4.2.5-.6.3-2.3.9-5.1 1.4-6.1.5-.9.2-1.1-1-.6m57.1 1.3c-5.1.5-9.7 3.2-13.5 8-2.3 2.9-2.5 3.3-.5 1.4.8-.8 1.7-1.5 2-1.7.3-.2.8-.6 1.1-.8 2.5-2.2 5.5-3.6 9.1-4.3 2.5-.5 4.1-.3 4.1.4 0 .3-.6.6-1.4.8-.8.1-.4.2.8.2 1.9-.1 2.6.7.9.9-.7.1-.8.2-.2.6.6.5.9.5 1.9.3 2.9-.5 3.6-.2 6.1 2.8 1.1 1.4.9 1-.4-1-.5-.7-1.4-2-2-2.9-3.4-4.7-4-5.1-8-4.7m-63.2 2.8c-1.5.7-5 3.8-5.5 4.9-1.5 3.5.3 9.2 3.5 11.1l.4.3-.2-.3c-2.2-3.2-3.1-6.6-1.5-5.9.9.4 2.3-.2 3.2-1.4.3-.3.5-.6.5-.6v-1.4c-.2-2.1.2-5.1.8-6.5.1-.5-.6-.5-1.2-.2m58.6 3c-4.5.5-9.5 5.1-10.7 10-.3 1.3-.2 1.3.5-.1.7-1.3 1.5-2.5 1.8-2.6.1 0 0 .2-.2.5-.7 1.2-1.4 6.1-1 6.5.1.1.1 0 .1-.3 0-1.7 1.8-5.7 3.4-7.2 2.1-2.2 6-4.4 9.9-5.7.4-.1.4-.1-.2-.1-.7 0-2.8.5-3.8.9-.4.2-1 .4-1.4.6-.4.2-1 .5-1.3.7-.4.2-.7.4-.7.3-.2-.2 2.1-1.9 4.1-3 .7-.3 1-.7.6-.6-.2 0-.6 0-1.1.1m-35.6 0s.3.5.6 1.1c3.2 5 3.6 5.2 8.1 4.2.5-.1.3-.3-.2-.3-1.4 0-1.6-1.1-.3-1.3.4-.1.2-.1-.7-.1-2.9 0-3-.1-5.8-2.3-1.5-1.2-1.7-1.4-1.7-1.3m9.6 1.2c.2 3 1.6 4.8 3.8 4.8h.7l-.3-.7c-.1-.4-.4-1-.5-1.3-.2-.6-.2-.6-.3-.2-.2 1.8-1 1.1-2.6-2-.5-.9-.9-1.7-.9-1.7.1 0 .1.4.1 1.1m37 .5c.6.9 3 3.7 4 4.9.7.8.7.8 1.3.8 1.1-.1 1.4.1 1.4 1 .1 1 .8 3.1 1.4 4.1.6 1 1.5 2 1.3 1.5-1.2-3.3-1-5.2.4-5.2 0 0 .1.4.1.9.2 2.1 1.2 4.1 2.5 5.1.8.6 1.2.8.9.4-1.5-2-1.9-3-2-5.2 0-.9-.1-1.7-.2-1.7s-.4-.2-.7-.5l-.5-.5-.8.4c-.6.3-.8.4-.8.2 0-1.4-.8-2.1-2.3-2l-1.2.1-.6-.5c-.3-.3-1.2-1.1-2-1.7-.7-.7-1.7-1.5-2.1-1.9l-.8-.7.7.5m-54.1.5c0 .5 2.6 3.1 3.6 3.7.6.3.9.4 2.1.4l1.4.1 1.1-.6c1.4-.7 1.5-.8.6-.8-.8 0-2.4-.5-3.7-1-1.1-.5-1.2-.5-.6 0 .5.4.5.6.2.7-.5.2-2.2-.6-3.7-1.8-.4-.3-.8-.6-.9-.7 0-.1-.1-.1-.1 0m-23.5 3.1c-1.7 1.8-3.4 5.3-3.4 7 0 1.1.5 2.7 1.3 4.3.5.9.6 1 .4.3-.2-1.1-.6-4.2-.6-5 0-2 1-1.6 1.7.6.3 1.3.5 1.8.6 2 .1.3.9-.5 1.3-1.3.4-.6.4-.9-.3-3.7-.5-2-.4-3.4.1-4.6.2-.5-.5-.3-1.1.4m100.3.1c-.4.1-1.4.5-2.3.9-.9.3-2.1.8-2.7 1-2 .7-4.1 1.5-4.7 1.7-.3.1-.6.3-.6.3h.4c.2-.1 1.3-.4 2.3-.6 1-.3 2.2-.6 2.7-.7.4-.1 1.4-.4 2.2-.5.7-.2 1.7-.4 2.1-.5.9-.3 1-.3.7.3-1.4 2.3 1.9 4 3.6 1.9l.4-.5v.6c0 .9-.3 1.5-1.1 2.1-.7.5-7.9 4.1-8.2 4.1-.1 0-.2.1-.2.1 0 .1.1.1 1.3-.3.3-.1 1.1-.4 1.7-.5.6-.2 2-.6 3-.9s2-.6 2.1-.6c.3 0 1.9-1.6 2.4-2.4 1.8-3.3-1.6-6.8-5.1-5.5m-21.5 1.8c-1.4.6-2.1.9-2.6 1.2-.3.2-.9.6-1.3.9-.8.5-2 1.5-2 1.7l.8 1 .8.9.8-.8c1.4-1.3 3.1-2.2 5.4-2.7l1-.2-.5-.6c-1.6-1.9-1.4-1.8-2.4-1.4m-51.9.5c-.2.1-1.4.6-2.7 1.1l-.9.4-3.2-.1c-1.7-.1-3.1-.1-3.1 0 0 0 .4.2.7.3.4.1 1.2.3 1.9.5 1.7.5 2.9.5 3.9.1.6-.2 3.4-2 3.8-2.4.2-.1-.2 0-.4.1m41.2 1.6c-.4.2-1.3.8-2.2 1.6-.5.5-.7.7-.3.5s1.6-.7 1.6-.6c0 0-.2.2-.5.4a5.6 5.6 0 0 0-2.2 6.9c.4.9.5.9 1.4 1 .4 0 .7.1.8.1s-.1-.2-.3-.5c-1-1.3-1.3-3.1-.6-4.2.2-.3.3-.5.2-.6 0 0 0-.1 0 0 0 0 .3-.2.5-.6.8-1.2 2.3-2.3 3.1-2.3.3 0 .3-.1.3-.7.2-.9-.8-1.4-1.8-1m12.8 1.3c-2.3.8-4.7 2-5.3 2.7l-.3.4.9.8.9.8.3-.3c1.7-1.5 3.4-2.5 4.6-2.6.5 0 .6-.1.6-.3 0-.1-.1-.5-.1-1-.2-1-.2-1-1.6-.5m-17.6 1a5.68 5.68 0 0 0-1.4 6.7c.5 1 .5 1.4.1 2.9-.9 2.9-2.1 3.4-4.1 1.6-.8-.6-.8-.6-.3.7l.4 1.2 1.5 1c.8.6 1.8 1.1 2.1 1.3.3.2.9.5 1.3.8.4.3 1.3 1 2.1 1.4.7.5 1.4 1 1.5 1.1.6.5.4 1.8-.8 4.2-.5 1-.9 1.8-.9 1.9s.4-.4.9-1c1.1-1.4.9-1.4 1.9-.2l.9 1 .1-1.5c.3-4-.2-5.3-2.3-6.6-2.5-1.6-3-2.8-2.6-6 .2-1.7.2-1.7.8-1.2.7.5.8.7.7 1.3-.1.3-.1.9-.1 1.6.1 1.3.2 1.5 1.2 2l.3.2-.3-.9a12 12 0 0 1-.1-4.2c.1-.1-.1-.3-.7-.7-.9-.6-2.2-2.1-2.6-2.9-.5-1.2-.1-5 .6-5.8.2-.1 0-.1-.2.1m-43.7.2c-.3.1-.9.2-1.3.3-.9.2-4.1.2-5.9.1-1.6-.1-1.5-.1 1 1 2.8 1.2 3.2 1.3 4.2.9.7-.2 2.4-1.4 3.2-2l.4-.4h-.5c-.3 0-.8.1-1.1.1m52.7 1.5c1.8 1.9 2.4 3.2 1.7 3.4-.5.1-2 .8-2 .9 0 0 .6.1 1.2.1 1.3 0 2 .2 2.6.6.5.4.4.4-.2.5-.8 0-1.6.8-1.6 1.5 0 .3 0 .3.2.1.8-.8 2.8-1 2.1-.2-1.1 1.2-.6 3.2.9 3.7.8.2.8.2 1.7-.1.2-.1.2 0 .2.5 0 1.2-.6 2-1.8 2.4-.7.2-.5.4.3.4.9 0 2.2-.8 2.7-1.8.7-1.3.4-3-1-5-.8-1.2-.9-1.3-4.7-4.8-1.3-1.2-2.4-2.3-2.5-2.4l-.5-.5c-.2-.3.1.1.7.7m8.8.3c-.9.5-3.2 2-3.2 2.2 0 .1.3.5.7.9l.7.8.3-.3c.7-.7 2.8-1.7 3.7-1.7h.3l-.5-.9c-.3-.5-.6-1-.6-1.2 0-.4-.3-.3-1.4.2m-86.6 1.9c-1 1.2-2.2 2.8-2.6 3.6-1 1.8-.2 5.2 1.7 7.1.8.8 1.8 1.6 1.5 1.1-.1-.1-.3-.5-.6-1-.8-1.2-1.4-3.3-1-3.3.3 0 1.1.7 1.3 1.1l.3.5.1-.6c.1-.6.9-2 1.3-2.2.6-.2.4-1.1-.4-1.8-1.3-1.1-1.7-3.6-.7-5.3.3-.5 0-.3-.9.8m19.4.6c-.9.5-2 .9-3.3 1.1-.4.1-.9.2-1.1.2-.3.1-.9.2-1.4.3-.7.1-1.3.4-.9.4 0 0 .6.2 1.4.4 3.7 1.2 5.9.5 6.2-1.8 0-.3.1-.7.2-.9 0-.3-.1-.3-1.1.3m72.7.9c-.5.4-.7.6-.4.9.1.1.2.4.3.7.1.3.4 1.1.6 1.7.2.6.5 1.4.7 1.9s.4.8.4.8c.1 0 .6-.1 1.2-.2l1.1-.2-.2-.7c-.1-.4-.3-1.2-.4-1.7-.1-.5-.3-1.1-.3-1.4-.1-.3-.2-.8-.3-1.2-.2-.9-.2-1-1.3-1-.7 0-.9.1-1.4.4m12.8 2v2l.5.4c1.3 1 1.1 1.7-.4 1.7-.8 0-1.1-.1-3.2-.7-1.1-.3-1.2-.3-.6.1 1.9 1.3 4.3 2.1 5.1 1.7 1.7-.9 1.3-3.7-.5-4l-.4-.1-.2-1.6-.2-1.6-.1 2.1m-9.1-1.7c0 .1.1.7.3 1.4s.4 1.9.5 2.5c.2 1.1.8 2.1 1.2 2.1v-4.6l-.9-.8c-.6-.4-1.1-.7-1.1-.6m-6.7.8c-.6.3-1.9 1.7-1.9 2.1 0 .1.3.6.7 1s1.2 1.3 1.8 2l1.1 1.2.9-.5c.5-.3 1-.5 1-.5.1 0-.7-2-1.5-3.7-.8-1.8-1.1-2.1-2.1-1.6m-15.7.9c.1.2.5.6.9.9.3.3 1.3 1.4 2.1 2.3s2 2.2 2.7 2.8l1.1 1.1-.8-1c-.4-.5-1-1.3-1.2-1.6-.2-.3-.6-.9-1-1.2-.3-.3-1.1-1.3-1.7-2.1l-1.1-1.5h-1.4l.4.3M120 106c-.9.7-1.2.9-2 1l-1.9.4c-.6.1-1.4.3-1.9.3-1.3.2-1.1.3.9.4 4.4.2 5.4-.2 6-2.3.1-.8.2-.8-1.1.2m96.1-.5c1.5 3 1.1 3-2.4.2-.4-.3.1.3 1.1 1.5.4.5 1.1 1.3 1.4 1.7.3.4.9 1.1 1.3 1.6 1.2 1.3 5.9 7.6 7.6 10.1 1.8 2.7 3.1 5.2 2 3.8a83.8 83.8 0 0 0-7.9-7.8c-3.4-2.9-4.1-3.3-2.1-1.4 2.7 2.7 7 7.3 8.8 9.5 3.2 3.8 6.5 8 8.1 10.4.5.7.9 1.3 1 1.2s.1 0 .1 0c0 .1.6 1.1 1.4 2.3 3 4.4 6.1 10 7.9 14.2l.7 1.6c.1-.1-.6-2.3-1-3.1-.2-.4-.5-1.3-.7-1.9-.6-1.6-3.9-8.3-4-8.2-.1 0-.1 0 0-.1s-.2-.6-1.5-3c-.3-.5-1.1-1.9-1.7-3.1-.6-1.2-1.5-2.7-1.9-3.4-.4-.6-1.1-1.8-1.6-2.7-2.4-4.2-4.6-8.1-5.7-9.8-.3-.5-.9-1.5-1.3-2.1-1.1-1.7-2.7-4.3-3.4-5.4-.3-.5-.8-1.2-1-1.6l-1.1-1.7c-.4-.6-1-1.4-1.1-1.6-.3-.5-.9-.8-1.9-1.1-.8-.2-1.2-.3-1.1-.1m-39.1 1.9c-.4 1.2-.3 2 .3 5.2.1.3 1.1 1.3 2 1.8.1 0 0-.4-.2-1-.5-1.4-.7-2.7-.5-3.8l.2-.8-.7-.9c-.9-1-.9-1.1-1.1-.5m-78.3.6c-.7.6-1.4 2.7-1.8 5.1-.2 1.3-.2 1.9-.1 1.9.4-.1.7.1.8.2.1.4 1 1.4 4 4.6.4.4.3.2-.4-.8-.4-.5-1.1-1.7-2.1-3.5-.3-.6-.7-1.6-.4-1.2 1.9 2.8 3.2 3.2 3.2 1 0-.8 0-.9-.6-1.6-1.2-1.4-2-3.7-1.9-5.2-.1-.9-.1-1-.7-.5m92.3 1.1c0 .7-.1 1-.3 1.4l-.3.6.5.4c.3.2.7.6 1 .8l.5.4.3-.6c.2-.3.5-1 .7-1.4l.4-.7-.4-.3c-.3-.2-1.8-1.2-2.2-1.3-.2-.1-.2.3-.2.7m5.9.2c-1.3.4-2.6 1.5-3.3 2.9-.5 1-.6 1 1.1 2.1l1.4 1c0 .1.3-.2.7-.6 1.4-1.6 2.6-2.3 4.1-2.4h.7l-.2-1c-.4-2-.3-1.9-.9-2.1-.9-.3-2.4-.2-3.6.1m-78.4.4c-1.6 2.4-4 3.6-8 4.1-1.7.2-1.6.3.4.5 5.1.5 6.1.2 7.1-2.1.8-1.8 1.1-3.4.5-2.5m91.4-.1c0 .1-.2.4-.4.7l-.4.5-.9-.1c-.8-.1-1.3-.2-3.5-.8-1.5-.4-1.5-.4-.9 0 1.5 1.1 3.6 2 4.8 2 1.1 0 1.9-1 1.7-2.1-.2-.4-.4-.6-.4-.2m-8.9 3.9c-2.1.6-4.4 3-4.4 4.6 0 .4 0 .4-1.3-.4-2.5-1.4-2.6-1.5-2-.6.5.8.5.8-.6.2-1.3-.6-1.3-.5-.1.2.5.3 1.4.9 2 1.3 2.8 1.8 2.6 1.7 2.9 1.3.3-.5-.1-.8 4.8 3.3 4.1 3.4 4.9 4.1 6.1 5.1.7.6 1.3 1.1 1.4 1.1.1 0-1.6-1.6-3.7-3.7s-4.4-4.4-5.1-5.2c-1.7-2-2.2-3-.9-1.9 3.9 3.3 8.4 7.4 15.8 14.4.8.7 2.7 2.5 4.3 4s3.8 3.6 4.9 4.7c1.1 1.1 3.4 3.3 5.1 4.8 1.6 1.5 4.2 4 5.8 5.5 1.5 1.5 3.5 3.3 4.3 4.1s2.5 2.4 3.7 3.5c2.3 2.2 6.7 6.5 10.1 9.6 2.7 2.5.5.2-7.9-8.3-1.9-1.9-5.5-5.6-8-8.2-2.5-2.6-5.3-5.4-6.1-6.2s-3-3.1-4.9-5-4.3-4.5-5.5-5.6c-1.2-1.1-5.2-5.2-8.9-9.1-3.8-3.9-7.6-7.8-8.5-8.7-1.7-1.7-1.7-1.8-1.5-2.6.1-.3.1-.5 0-.7s-1.1-1.7-1.1-1.6c0-.1-.3 0-.7.1m-16.6.2c-.8.3-2.3 1.3-2.3 1.6h.7c.4-.1 1.2-.1 1.8-.2l1.1-.1.2 1.1c.3 1.3.2 1.4-.2 1.1-1.1-.6-3.5 0-4.6 1.2-.5.5-.7 1-.3.7 2-1.6 6.5-1 6.5.9v.7l.6-.3.6-.3v-1.7c0-2.6 0-2.7-.5-3.4-.9-1.2-2.3-1.7-3.6-1.3M96 116.3c0 .1-.1.6-.2 1s-.3 1.4-.4 2.1-.3 1.6-.4 2c-.7 3.8-.2 5.1 3.1 7 2.1 1.3 2.6 1.4 1.5.5-2-1.7-3.5-3.5-3.6-4.4l-.1-.5.6.6c1.9 1.8 2.8.7 2.4-2.8-.1-1.7-2.9-6.9-2.9-5.5m19.4.2c-2.9 1.2-6.7 1.2-9.5.1-1.1-.4-1.1-.4-.4.3 1.2 1.1 3.3 1.8 5.9 2 1.4.1 1.5.2.9.5-.5.3-.5.3.2.6.9.3 1.5.9 1.8 1.5l.2.5.5-.7c.3-.4.6-.9.7-1.2.1-.3.3-.7.3-.8.1-.2.3-1 .5-2.5.2-.9.2-.9-1.1-.3m2 1.3c-.1.6-.2 1.7-.3 2.4-.2 1.5-.2 1.6 0 1.3.8-1.1 1.1-2.4.7-4.1-.1-1.1-.3-1-.4.4m67.3 1.6c0 .1.1.4.1.6.1.4.7 2.2 1.3 4.5.2.7.5 1.9.8 2.9.7 2.5.7 2.3.3 2.3-1.3 0-2.2 4.1-1.2 5.1.2.3.5.5.6.5.3 0 .2.4-.2.5-.8.2-1.4.1-1.8-.3-.4-.4-1.7-2.8-1.7-3.2 0-.1-.1-.4-.2-.6-.1-.2-.3-.8-.5-1.3-.1-.5-.4-1.4-.6-2.1-.2-.7-.4-1.5-.5-1.8l-.1-.5v.7c0 1.4.6 5.2 1.1 6.4.1.3.4.9.6 1.4 1.2 3.2 4 3.8 6.2 1.4 1.2-1.3 1.5-3.3.8-5.3-.2-.7-.6-2-1.1-3.5-1-3.3-1.2-4-1.8-5.9l-.4-1.3-.6-.2c-1.1-.5-1.1-.5-1.1-.3m-.8 2.1c-.3.4-.3.7-.1 1.2.1.2.2.8.4 1.3.1.5.3 1.3.5 1.6.1.4.4 1.4.6 2.3.5 2.1.5 2.1.7 1.6.4-1 .5-1.3.1-1.9-.1-.2-.4-1.1-.6-2-.5-2-1.2-4.4-1.3-4.4-.1-.1-.2.1-.3.3m-6 .3c-.6.5-.7.7-.3 1.2.8 1 .1 2-2.2 2.8-1.4.5-9.1 1.9-10.8 1.9-1 0-.2.3 1.1.3 8.8.6 14.3-1 14.8-4.3.2-1.7-1.3-2.8-2.6-1.9m-3.9.5c-.2 0-.5.3-.7.5-.7.6-1.3.8-2.9 1.1-1.9.3-3.2.5-4.1.6-.4.1-1 .2-1.4.2-1.8.2-2.1.5-1.1 1.2 1 .6 1.7.6 4.4-.3 5.1-1.7 5.3-1.7 7.2-1.6 1.3.1 1.5.1 1.6-.1 0-.7-2.1-1.8-3-1.6m-60.8.6c-.2.1-.7.3-1 .5-1.3.9-4.6 1.2-7.2.6-.4-.1-1.2-.2-1.8-.4-1.7-.3-1.5-.1 1.3 1.3s5.4 1.9 8 1.5c.8-.1 1.5-.2 1.6-.1.2.1.7 1.3.7 1.9.2 1.6.5-.1.5-3.2-.1-1.8-.8-2.6-2.1-2.1m4.1 1c0 .4.1 1.8.2 3 .1 2.4.2 2.5.6.7.4-1.5.1-2.9-.6-4l-.3-.4.1.7m40.4.1c-2 .9-2.7 3.2-1.8 5.9.3.8.3.7.2-.9-.1-3.4 1.5-4.7 4.1-3.4 1.8.9 2.5 2.6 1.7 4.5-.3.9-1.5 2.2-2.1 2.4-.7.2-1 1.7-.7 3.3.2.9.1 1-.4.5-.3-.2-.5-.4-.6-.4s-.1-.6-.1-1.3c0-1.2-.2-1.7-.3-.9-.2 1.1-1 2.6-1.6 3.2-2.1 1.9-2.2 3-.2 4.7.6.5 2.2 1.7 2.4 1.9.2.1-.6-1.1-1.1-1.6-1.7-1.8-1.5-3.4.2-3.4.4 0 2.6 1.2 3.4 1.9.6.5 2.9 2.2 4.4 3.3.6.4 1.5 1.1 2.2 1.7.6.5 1.8 1.5 2.7 2.1 1.7 1.3 2.4 1.8 4.2 3.4 1.5 1.2 1.5 1.2-.1.6-3.3-1.2-6.9-2.9-9.8-4.8-.3-.2-.4-.2-.3-.1.6 1.1 2.1 2.2 5.3 4.2.9.5 3.8 2 6.1 3.1.9.4 2.5 1.2 3.6 1.7s2.2 1 2.4 1c.2.1.7.3 1.2.5s1.2.6 1.7.8c2.1.8 2.6 1.1 2.3 1.1-.1 0-.9-.2-1.6-.5-.7-.3-1.6-.6-2-.6-.4-.1-1.3-.4-2-.7s-2.5-.9-3.9-1.4-3.1-1.1-3.7-1.3c-.6-.2-1.5-.6-1.9-.7-.5-.2-1-.3-1.1-.4-.1-.1 0 .1.3.3 1.5 1.1 8.4 4.3 8.8 4.1.1-.1.1 0 .1 0-.1.1.2.2.5.3.7.2 2.3.6 3.7 1.1 3.2 1 10.3 1.8 18.1 1.9 4 .1 4.8 0 2.5-.3-3-.4-6.2-1.1-9.3-2.2-1.5-.5-3.2-1-3.6-1.1-.4-.1-1.3-.4-1.9-.7s-1.8-.7-2.6-1c-1.9-.7-8.5-4-9.9-4.8-.6-.4-1.4-.8-1.8-1-2.7-1.4-8.3-5.4-11.9-8.6-1.7-1.5-1.9-1.8-1.7-2.5.2-.6.1-1-.4-1.4-1.4-1-1.1-2.1 1.5-4.7l1.3-1.3-.1-.8c.1-4-3.9-7.7-6.4-6.7m-39.6 6.4c.1.4.6 3.7.6 4.1 0 .1.1-.1.3-.4.4-.9.3-2.4-.3-3.2-.5-.9-.7-1-.6-.5m-11.3.6c-2.3.1-2.5.1-1.2.5.5.1 1.2.3 1.6.4.4.1 1.4.3 2.2.5l3.7.9c3.3.8 3.7.8 3.8.3.2-.8-.3-2.2-.9-2.5-.3-.2-5.4-.2-9.2-.1m-15.2 1.1c-4.2.9-8.1 2.6-9.7 4-.7.6-1.4 2.1-1.9 3.7-.2.6-.4 1.4-.5 1.8-.8 2.7-3.5 16.2-3.5 17.7 0 .3.3.6 1.2 1.4l1.2 1.1.1-1 .3-2c.2-1.1.6-3.5 1-5.7.6-3.6 1.6-8.5 2.1-10.4.6-2.2.8-2.8 1-2.9 1-.8.7 3.2-1 13-.4 2.4-.3 2.3.5-.7.6-2.2 1.1-4 1.4-4.9.3-.8.7-2.2 1.6-5.7.5-2 .6-2.2 1.3-2.6.3-.2.6-.4.7-.4s.6-.3 1.2-.7c.6-.4 1.5-.9 2.1-1.2l1-.5-.5-.7-.5-.7.8-1.2c.4-.6.9-1.3 1.1-1.5l.3-.3h-.3c-.4.3-.7.3-1 .4m3.2.9c.3 1.6-1.6 7.4-2.5 7.9-.4.2-1 0-1.6-.7l-.5-.5.1.7c0 .4.2 1.5.3 2.4 1.3 10.2 1.3 10.6 0 14.3-.3 1-.8 2.3-1.1 2.9-.3.7-.7 1.8-1 2.5-.6 1.5-1.4 3.6-2.3 5.7-.3.8-.8 1.9-1.1 2.6s-.6 1.5-.8 1.9c-.2.4-.3.7-.2.8 0 .1.1.1.1 0s.7-1.4 1.6-2.9c1.4-2.5 2.2-3.9 4-7.2.4-.7.9-1.6 1.1-1.9.2-.4.6-1.1.9-1.5.2-.5.5-1 .7-1.2.1-.2.8-1.4 1.5-2.7l1.2-2.4.1-2.5c.1-1.4.1-3.2.1-4.1 0-1.7 0-1.7.8-2.2 3-2.1 5.8-4.5 6.2-5.4.4-.8-.6-2.2-2.5-3.6-1-.7-1.1-.7-.8-.1.1.2.3.8.5 1.2l.3.9-.3.7c-.7 1.5-3.1 4.6-4.2 5.2-2.3 1.4-1.9-2.7.9-8.8l.5-1.2-.8-.6c-.4-.3-.8-.6-.9-.7-.4.1-.4.1-.3.5m24.9 3.8c.2.6 1 3.4 1 3.6 0 .6.3.3.3-.4.1-1.1.1-2-.2-2.5-.2-.6-1.3-1.3-1.1-.7m-7.7.1c-3.7.3-4.1.4-4.1.5 0 .1.1.1.2.1s.6.1 1 .3c.4.1 1.5.4 2.4.6.9.2 1.9.4 2.3.6.3.1 1 .3 1.5.3.5.1 1.3.2 1.8.3 1.6.3 1.9-.2 1.4-1.6-.7-1.4-1.5-1.5-6.5-1.1m4.9 4.5c-.5.1-1.4.2-1.9.2-.5.1-1.4.2-1.9.3-1.2.2-3.8.9-4.1 1.1-.5.4.9.9 4.9 1.7 2.7.5 3.5.6 6.1 1 1.9.3 1.7.3 1.6-.4-.2-1.7-1.1-3.7-1.6-3.9-.4-.2-1.7-.2-3.1 0m6.1 1.9c0 .2 1.6 3.2 1.9 3.6l.3.4v-.4c0-.6-.3-1.6-.7-2.2-.7-.9-1.5-1.7-1.5-1.4m-23.8 1.3l-.7.5-.1 1.7c-.1 1.9-.4 2.9-1.1 3.4-.5.4-.4 3.3 0 3.4.5.2 2-1.8 2.5-3.3.8-2.4.9-6.2.2-6.4-.1.2-.5.4-.8.7m3.6 1.9c-.3 4.5-1.1 7.2-2.8 9l-.5.6.4.4c1.2 1.2 1.8 3.6 1.8 8.3 0 2.5 0 2.8.2 2.5.2-.4 1.2-2.2 1.8-3 .4-.6.4-.5.1-5.4-.1-1.8-.3-5-.4-7.1-.1-2.1-.3-4.5-.3-5.3l-.1-1.5-.2 1.5m17.4 1.4c-.3 0-1.3.1-2.3.2-1.6.1-4.2.6-5 .9-1 .4-.5 2.8.8 3.7.3.2.9.2 6.6.3l6.3.1-.1-.4c-.6-2.4-1.6-4.1-2.4-4.6-.4-.2-2.6-.3-3.9-.2m5.6.6c0 .3 2.1 4.7 2.4 5.1.3.3-.2-2-.6-2.9-.5-1.1-1.8-2.7-1.8-2.2m-6.3 7c-4.7.3-5.6.8-6 3.6-.1 1.1-.1 1.2.2.8.1-.2.6-.6 1.2-1.1 1.3-1 1.5-1 2.9 0 1.5 1.1 1.8 1.1 9 1.1h3l-.1-.7c-.2-1.8.4-1.6 1.9.8.7 1.2.7 1.2.6.6-.4-1.5-1.8-4.3-2.4-4.6-.8-.4-6.2-.7-10.3-.5m-59.3 1.2c-2.3 1.3-9.7 6-10.6 6.9-.4.4-1.4 2.3-2.2 4.1-.2.6-.8 1.9-1.2 2.9s-1 2.4-1.3 3.2-.8 1.9-1.1 2.6c-.3.7-.7 1.7-.9 2.3s-.6 1.7-.9 2.3-.6 1.6-.8 2-.5 1.2-.7 1.8c-.4 1-.8 2.1-1.8 4.6-.3.7-1 2.5-1.5 4-.6 1.5-1.3 3.3-1.5 3.9-1 2.4-2.3 6.2-2.3 6.6 0 1.2.9 5.1 1.3 6 .4.8.5.7.4-.8-.1-2.7.4-5.1 1.9-9.4.3-1 .8-2.3 1.1-3.1.8-2.5 3.2-8.9 4.9-13.5.5-1.4 1.2-3.1 1.4-3.8s.6-1.5.7-1.7c.1-.3.5-1.2.8-2 3.2-8.6 4.4-10.3 9.2-13.5 5.7-3.8 8.4-4.5 9.5-2.7.5.8-1.4 1.9-7.2 4.2-1.1.4-2.4.9-2.8 1.1-.4.2-1.2.5-1.8.7-1.3.4-1.3.4-.6.9.3.2.7.6.9.9l.3.5-.4 1.5c-.7 2.5-.8 2.8-1.7 5.5-2.1 6.2-3.7 10.8-6.4 18.3-1.2 3.2-.8 2.7.7-1 1-2.4 1.4-3.5 2.1-4.9.3-.8.9-2 1.2-2.7 1.1-2.6 2.5-5.6 3.2-7.2.4-.9 1-2.1 1.2-2.6.7-1.6 3.3-6.8 3.9-7.8.8-1.3 2-2 4.9-2.9 6.1-1.8 7.5.8 3.7 7l-1 1.5-.2 2.2c-.3 4-.2 3.6-1.9 6.5-.3.5-1.6 2.6-4.9 7.9-1 1.7-1.2 1.9-2.4 3.7-.5.8-1.1 1.8-1.3 2.1-.2.4-.7 1.2-1.1 1.8-.4.6-1.1 1.8-1.5 2.5-1.3 2.2-1.4 2.2-.7 0 .6-1.9 3.7-9.5 5.5-13.7l1.1-2.5c.3-.7.9-2 1.3-3 .5-1 1-2.2 1.2-2.7s.8-1.9 1.4-3.1c.8-1.8 1.1-2.5.8-2.2 0 .1-8.1 14.2-9.4 16.5-3.2 5.7-3 5.4-2.9 4.5.1-.8.7-2.9 1.7-5.6.3-.8.7-1.9.8-2.3.1-.4.8-2.1 1.4-3.7 1.1-2.8 2-5.2 2.8-7.1.2-.5.6-1.5 1-2.3.3-.8.9-2.3 1.3-3.3s.8-2 .9-2.2c.1-.2.2-.4.1-.4s-.7 1.3-1.6 3.5c-.3.7-.7 1.6-.9 2.1s-.7 1.6-1 2.3c-.8 1.9-1.5 3.7-4.1 9.4-1.2 2.6-2.1 4.8-2.1 4.8l-.7 1.6c-.4.8-1.1 2.5-1.6 3.7-2.3 5.2-5.6 12.4-6 12.9-.2.3-.1-1.9.3-3.4.1-.7.4-1.9.5-2.6.1-.7.3-1.6.5-2 .3-1.3 0-.9-.4.6-.2.8-.5 1.8-.7 2.3s-.5 1.6-.7 2.4c-.2.8-.5 1.8-.7 2.3s-.4 1.2-.5 1.8l-.5 1.5c-.1.3-.3 1-.5 1.6-.3.9-.5 1.4-1.7 3.1L36 216l-.7 2.8c-.4 1.5-.8 3.2-.9 3.7-.2.8-2 7.9-2.9 11.8-.5 2.3-.5 5.8.1 7.4.3.9-.4-.1-.8-1-.7-1.8-.8-3.5-.5-7.1.2-2 .3-3 .8-5.7.6-3.9.6-3.5 2.2-10.7.2-.7.4-1.5.5-1.9.3-.7.2-1-.1-.6-.4.5-1.5 4.4-2.4 7.9-.2.7-.5 1.9-.7 2.7s-.6 2.8-1 4.5-.8 3.6-.9 4.3c-.8 3.6-.8 3.4.4 7.2 1 3.3 1 3.1.5 6.5-.1.7-.3 1.9-.4 2.7s-.3 2.1-.5 2.9c-.1.8-.5 2.9-.8 4.7s-.7 4.1-.9 4.9c-.6 2.9-.5 2.8 3.1-4.5l9.8-19.6c3.5-7 6.3-12.8 6.3-12.8s-.7 1-1.5 2.1c-3.4 5.3-4.4 4.8-1.9-.8 1.7-3.7 2.1-4.2 3.5-4.6 3.3-.8 2.7-.1 6.5-7.8s3.3-6.9 4.6-7.6c2-1.1 3-.8 3.6.9.3 1 1.2.7 2.5-.9 1.9-2.3 2.2-4 .9-5.8-1.7-2.5-1.8-3.5-.8-8 .2-.8.4-1.9.5-2.4.1-.5.2-1.1.3-1.3.2-.7 0-.5-.8.9-.4.8-1 1.8-1.4 2.3-.3.5-1.2 2.1-1.9 3.5-1.6 3-1.6 3.2-.9 4.7.6 1.3.6 1.4-.1 2-1.9 1.7-3.4 1.6-5.1-.4-.4-.5-.4-.5-.4-.2.7 2.7.5 3.7-1 6.8-1.8 3.5-3.3 6.3-4.6 8.1-.3.4-.5.3-1-.4-.2-.3-.4-.5-.4-.5s.1.5.3 1.1c.5 1.8.3 2.4-1 3-1.5.6-2.5.4-3.5-.9l-.4-.5 1.4-.8c.8-.4 1.5-1 1.7-1.1.3-.3 3.6-6.8 3.9-7.7.2-.8 3.4-7.2 3.8-7.5.5-.5.9-.7 1.7-.8 1.5-.2 2.1-.9 3.4-4 1.4-3.4 5.2-11.1 6.1-12.7 1.3-2.1 1.8-1.5 1.1 1.2-.2.7-.3 1.3-.3 1.4 0 0 .1 0 .1-.1s.1-.3.3-.5c.3-.4 2-3.5 2.3-4.3.2-.4.2-1.2.2-4.6v-4.1l.3-.5c1.4-2.3 6.2-4.1 9.3-3.4l1.2.3.7-.7c.4-.4.8-1 .9-1.3l.2-.6-.6-.8c-1-1.4-7.8-7.9-9.5-9.1-.9-.6-5.8-1.8-8.1-2l-1.1-.1-1 1.1m33.1 5.1c-.2.4-.6 1.4-.9 2.2l-.6 1.5.1 1.7c0 .9.2 2.7.3 3.9.3 3.1.4 5.4.6 7.6.1 1 .2 2.4.3 3.1.1.7.2 2 .2 2.8.2 2.3.8 8.4 1.2 10.7.5 3.3.6 3.6 2.6 4.9 1.6 1.1 2 1.4 2.4 1.8.4.4 1.1 1.8 1.4 3 .1.5.3 1.3.5 1.7.5 1.8 2.8 11 2.9 12 .1.6.3.9.2.4 0-.2-.1-.9-.2-1.6-.1-.7-.2-1.8-.3-2.3-.1-.5-.2-1.7-.3-2.7-.1-1-.3-2.5-.5-3.4-.1-.9-.3-2.1-.4-2.8-.4-4-1-5.4-2.8-7.3-1.9-2.1-2-2.2-2.3-4.3a614.31 614.31 0 0 1-2.2-17.5c-.8-6.9-1.1-10.4-1.3-11.5-.1-.5-.2-1.8-.3-2.7-.2-2.1-.2-2.1-.6-1.2m30.9.3c-3.5.2-4.9.5-5.6 1.2-.8.7-1.4 2.9-.8 2.8.4-.1 2.2-.8 2.5-1 .4-.3.7-.2 1.6.1 1.1.4 1.3.7 2.1 2.2.5 1 .8 1.5 1.1 1.6.8.4 7.9.1 9.1-.4.6-.3.6-1.2-.2-2.6-.5-.8-.4-.9.2-.4 1.3 1 2.1 2.1 2.8 3.9.6 1.4.6 1.4.5-.3-.2-2.9-1.4-6-2.7-6.5-1.1-.6-6.1-.9-10.6-.6m-28 7.2c0 .3 0 .7.7 4.9.2 1.1.6 4 .9 6.3s.8 5.4 1 6.7c.2 1.4.5 3.2.6 4 .2 1.6.5 2.4 1.4 3.5.7 1 1.5 1.4 1 .5-.1-.2-.4-.8-.5-1.3s-.3-1.1-.4-1.4c-.5-1.4-1.9-8.5-2.9-13.6-.2-.9-.4-2-.5-2.5-.2-.7-.5-2.9-1.1-5.9-.1-1.2-.2-1.6-.2-1.2m65.1 0c-1.2.4-3.6 4.8-5.2 10-.1.4-.6 1.7-1 3.1-1 3.1-1 3.5 0 .9 1.7-4.1 3.8-8.4 5.1-10.3 1.2-1.7 1.4-2 1.9-2.3.7-.3.8-.3.4 0-.7.7-.7 1.6.1 2.3.4.4 1.4.6 1.5.4.1-.2.5-.2.5.1 0 .1-.2.6-.4 1l-.4.8s.2-.1.4-.4l1-1 .6-.5-.1-1c-.1-2.6-1.9-3.8-4.4-3.1m37.3.2c0 .1.1.1.3.1.8 0 3.6 1 3.6 1.3 0 1.1-11 3.4-12.3 2.6-.6-.4 2.8-2.2 6.7-3.6 1.5-.5 0-.2-2.4.6-1.4.5-3.1 1-3.6 1.1-2 .6-5.7 2.2-6.3 2.7-.7.6.8 2.2 3.5 3.8.3.2.8.5 1.2.7s1 .6 1.3.7l.5.3-.4-.5c-1.7-2.1-2.4-3.2-2.1-3.5.6-.8 6.8-.7 8.4.2.8.4 1.3 1.2 5.2 7.9 3.8 6.5 3.3 5.9 6.4 7.6 3.7 2 3.1 1.3 6.8 7 4.3 6.5 4.3 6.5 5.5 12.2.2 1.2.6 2.1 1.3 3.1l.4.6.7-.1.7-.1-.5-.7c-.4-.6-.6-1-1.1-3.1-.3-1.3-.8-2.9-.9-3.4-.2-.6-.3-1.3-.4-1.6-.1-.6-.4-1.2-1.5-2.9-.2-.3-.7-1-.9-1.4-.3-.4-.8-1.2-1.2-1.8-3.5-4.7-4.9-7.2-4.8-8.7.1-.8.1-.8-.6-.2-1.1.9-3 .1-5.2-2.4-2.5-2.7-5.7-8.4-6.6-11.7-.5-1.7 4.2-2.4 6.1-.9.6.5 6.1 6.3 8 8.4 7.1 8 10.1 11.7 11.3 13.5l.6.9.2 2.5c.1 1.4.2 2.9.3 3.5.2 2.2.6 3.4 2.6 6.5l.7 1.2h1.6l-.3-.3c-.4-.5-1.6-2.3-2.2-3.3-1.1-1.8-1.2-2.4-1.5-6.9l-.2-3-.6-1.2c-.6-1.1-3.6-6.1-4.4-7.5-.2-.3-.5-.9-.7-1.3-.2-.4-.7-1.2-1.2-1.9s-1.6-2.5-2.6-4.1c-2.2-3.6-3.4-5.4-4.2-6.5-.3-.5-.9-1.3-1.3-1.9-1.7-2.5-2.8-3.9-3.3-4.1-1.4-.5-10.6-.8-10.6-.4m-78 .6c-2.6.5-3.4 3.4-1.7 6.2.8 1.3 5.2 8.2 5.3 8.2.1 0-.1-.4-2.1-4.4-2.6-5.1-3.1-6.7-2.5-7.8.1-.2.2-.3.2-.2.1 2.3 3.4 3 3.7.7l.1-.5h1.4l-.3-.4c-1-1.3-2.9-2.1-4.1-1.8m-47.3 1.6l-.6.3-.1 1c-.2 2.5-1.5 5.3-2.8 6.3l-.6.4.1 1.1c.1 1.7.1 1.7.8 1.3 2.3-1.3 4.3-5.3 4.3-8.8 0-2.1 0-2.1-1.1-1.6m-2.4.8c-.5.2-.6.4-.7.8-.1.5-.9 2.4-1.1 2.5-.1.1-.1 2.1 0 2.3.5.8 2.7-3.9 2.7-5.7 0-.3-.3-.2-.9.1m97.7 0c-2.3.9-5.7 6.8-8.1 14.2-.3 1-.2 1.1.2.1 3.3-8.3 7.5-13.6 9.9-12.3l.3.2-.4.1c-1.1.2-1.5 1.3-.7 2.3.5.7 1.3.8 2.1.1s.4 1.3-1 4.5l-.8 1.8-1.7.1c-1.6.1-2.8.4-2.8.7 0 .1.4.1.9 0 1-.1 2.2.2 2.6.6.3.3.1.9-1.2 5.7-.4 1.6-.4 1.9.1.9.9-1.8 2.3-4.9 2.6-5.6.2-.4.6-1.5 1.1-2.5 1.4-3.2 2.1-5.5 2.3-7.2.5-2.9-2.3-4.8-5.4-3.7m-65.3 1.3c0 .7.2 2.2.3 3.3.7 7.2.7 13.8 0 14.9-.4.6 1.1 2.2 2.2 2.5l.3.1-.2-2c-.1-1.1-.4-2.9-.5-4s-.4-3.4-.7-5.2c-.2-1.8-.5-4.1-.7-5.2-.1-1.1-.4-2.8-.5-3.7-.2-2.1-.3-2.4-.2-.7m-28.5-.5s.2.6.5 1.1c1.3 2.6 1.5 4.1.6 4.6-.2.1-.8.7-1.3 1.3-2.2 2.9-3.4 4.1-4.5 4.3-.7.2-.7.2-.5 1.1.5 2.3 2.6 7.1 3.7 8.7.4.6.9.7 2 .4 3.3-1 5-.4 6.4 2 .7 1.2.9 1.4 2 1.4s1.8-.6 2.1-1.6l.2-.6.4.9.4.9-.3.4c-2.2 3.1-3.5 4-5 3.2-.3-.2-.6-.3-.6-.3 0 .1 1.4 1.7 1.8 2.1l.5.4.9-.6c.9-.6 4-3.2 4.8-4l.4-.4-.2-.9c-.4-1.3-2-4.3-2.3-4.3 0 0-.1-.7-.1-1.6v-1.6l-1.5-2.2-5.1-7.6c-.3-.5-.8-1.2-1-1.5l-2-2.9c-1.8-2.2-2.3-2.8-2.3-2.7m50.5.4c-3 1-3 4.8.1 9 .5.6 1.4 1.9 2 2.8 1.9 2.7 1.9 2.6-.5-2.2-2-4-2.3-5-1.8-6.1l.2-.5.2.8c.4 1.7.9 2.2 2.2 2.2 1.1 0 1.7-.5 1.7-1.2s1.8 1.4 6.6 7.7c3 4 4.5 6 6.8 9.2 1 1.4 1 2.6-.2 4.5-.6 1-.4 1.1.4.2 1.9-1.9 2.5-4.6 1-4.8-.2 0-.5-.4-1.1-1.2-.4-.6-1.2-1.7-1.7-2.4-1.4-2-4-5.7-5.1-7.2-.6-.8-1.6-2.3-2.3-3.3-1.3-1.8-2.5-3.5-3.4-4.9-1.3-1.9-3.6-3.1-5.1-2.6m68.1 4.6c-.8.3-.7.1-1.7 2.9-.2.6-.5 1.3-.7 1.8s-.5 1.2-.6 1.7c-.2.5-.6 1.7-1 2.7-1.1 3.1-1 2.7-.8 4.1.2 1.2.5 1.8.5 1.1 0-1.5 1.6-2 3.5-1.1 1.5.7 1.7.7 1.6.2-.1-.4 0-.5.3-.4.2 0 .3 0 .3-.2 0-.1.1-.5.2-.8.1-.3.4-1.3.7-2.1s.5-1.8.7-2.2c.1-.3.1-.6.1-.6s-.2.1-.2.3c-.2.7-1.8 3.8-2.1 4.2-.7.9-.8-.3-.1-2.3.5-1.5.3-1.3-.5.5-.9 1.9-1.1 1.7-.7-.6.3-1.5.4-2 1.4-5 .6-1.8.6-2.4.1-.9-.4.9-.6 1.5-1.8 4.3-.8 1.8-.8 1.9-.9 1.5-.1-.8.8-4 1.4-5.6.1-.3.4-1.1.7-1.8.2-.6.5-1.3.6-1.6.2-.4.1-.4-1-.1m13.5 1.3c.2 1.5 1.4 3.3 4.1 5.9 1.9 1.9 2 2.1 2 3.5v.7l.5-.5.5-.5.3.4c.2.2.6.7.9 1.1.4.4.7.9.9 1.1.1.2.4.5.6.8.7.7 3.9 5 4.8 6.4 1.2 1.8 1.3 2.2 1.4 4.8.1 3.7 0 3.4 2.9 7.4l1.5 2.1.7-.2.7-.2-.5-.7c-.3-.4-.6-.9-.8-1.1-.2-.2-.5-.6-.7-.9l-.8-1.2c-.9-1.3-1-1.9-1.1-3.8-.2-4.2-.4-5.6-.8-6.2-.9-1.4-1.5-2.2-3.5-4.7-1.2-1.5-2.3-2.9-2.5-3.2s-.8-1-1.2-1.5c-.5-.6-1-1.2-1.1-1.4-.2-.2-.7-.7-1.3-1-3.1-1.8-5.8-4.5-7-6.7l-.5-1v.6m-8.5.5c-2.3 3 0 7.5 4 8l.7.1-.2-.6c-.1-.4-.4-.9-.5-1.2l-.2-.6h-.7c-2.1 0-3.4-3.1-1.8-4.2.2-.2.2-.2-.2-1.1-.6-1-.7-1-1.1-.4m-40.2 1.7c-2.9.3-3.6 2.7-.7 2.7.9 0 3.2-.4 3.1-.5 0-.1-.8-.1-1.7-.2-1.8-.1-1.9-.1-1.6-.6.3-.4 2-1 3.3-1.1.5 0 .9-.1.8-.2-.2-.1-2.3-.2-3.2-.1m41.9.9c-.1.7.7 2.1 1.3 2.1.2 0 0-.6-.3-1-.1-.2-.3-.6-.5-.9-.3-.8-.4-.9-.5-.2m-37.9 3.2c-.6 1.8 1.2 2.2 5 1.2 1.9-.5 1.8-.5-.3-.3-2.5.2-4.2-.2-4.3-1-.1-.4-.2-.4-.4.1m-9.4 1.1c-.3.3-.5.6-.5.7 0 .1-.3.1-.6.1-.7 0-.7-.2-.5 2 .2 1.9.3 2.1.4.6 0-.6.1-1.2.2-1.4l.2-.3.5.3c.7.3 2 .5 4.4.5 1.8 0 2.3-.2.8-.3-2.3-.2-4.4-1.5-4-2.6.2-.3-.3-.1-.9.4m-20.2 2c-1.7.2-2.5.9-2.1 1.9.4.9 3.6 1.2 7.3.6.6-.1.6-.1-.5-.2-3-.2-4.1-.5-4.1-1.1s.8-.8 2.7-.9c1.2 0 1-.2-.3-.3-1.9-.1-2.2-.1-3 0m28.6.6c-.4.4-.4 1.2-.1 1.7.4.5 1.3.5 1.7.1 1.1-1.2-.5-2.9-1.6-1.8m3.4-.1c-1.3.8-.6 2.9 1 2.9 1.2 0 1.9-1.1 1.4-2.2a1.7 1.7 0 0 0-2.4-.7m-7 1.7c-1.7.9-2 2-.8 2.6 3 1.5 7.3 1.6 9.8.3l.5-.3-1.7.1c-3.4.2-5.8-.8-6.3-2.6-.3-.5-.6-.6-1.5-.1m45.5 1.5c-.3 1.1 0 10.6.4 11.5.2.5 1.4 2 2.4 3.1l.7.8 1.2.2 1.2.2-.8-1c-1.4-1.7-2.9-4.6-2.2-4.4.2.1 2.1 2.2 3.2 3.5 1.6 2 2.3 2.6 1.1 1-.3-.3-.8-1-1.1-1.5s-.8-1.2-1.1-1.5c-.8-1.1-2.2-4.1-2.3-4.9-.1-.9.1-.9.9.2.4.5.9 1.3 1.3 1.7s1 1.3 1.4 1.9c.4.6 1 1.5 1.4 2s.9 1.2 1.1 1.6c.3.4.5.7.5.7.1 0-.1-.4-.3-.8-.2-.3-1.4-2.2-1.9-3.2-.1-.2-.6-.9-.9-1.5-1.9-3.2-2.5-4-2.7-4.3l-.2-.4.4.3c.7.5 3.1 3.1 4.1 4.5.1.2.8 1 1.4 1.7.6.8 1.3 1.6 1.5 2 .2.3.6.7.7.9.5.5.1 0-.5-.9-.3-.4-.8-1.1-1-1.5s-.7-1-.8-1.2c-.3-.4-2-2.8-3-4.3-2.8-4.4 2.5-.1 6.1 5 .3.4.9 1.2 1.2 1.7.4.5 1 1.5 1.5 2.2 1 1.5 1 1.5.4-.1-.3-.7-.6-1.5-.6-1.8-.4-1.2-3.8-5.8-5.8-7.9-1-1-1.1-1.1-3.1-2-3.1-1.4-4.5-2.4-5.1-3.6-.1-.2-.3-.4-.3-.4-.2.1-.3.3-.4.5m-67.5.7c-.4.3-.5 1-.1 1.5s1.3.5 1.7-.1c.5-1-.7-2.1-1.6-1.4m54.2.1c-.8.1-1 .4-.6 1.1.3.5.3.2-.9 3.4-.8 2-1.3 3.4-1.3 3.5s.4-.6.8-1.5c.9-1.9 2.3-4 2.7-4.2s.4-.1 0 1.3c-.6 2.2-.7 3-.2 2.1.1-.3.3-.6.3-.6 0-.1.7-1.5 1.5-3.3.3-.6.7-.9 1.1-.9.3 0 0-.5-.5-.7-.6-.2-1.9-.3-2.9-.2m-125.4 2c0 1.8.2 2.5.7 2.8.3.2 1 1 1.7 2 1.1 1.7 2.5 4.7 5 9.9 1 2.2 4.1 9.4 5.1 11.9.4 1.1 1 2.4 1.2 3.1.3.6.8 2 1.2 3.1l.7 1.9v9.8c.1 10.2.1 10.9.7 14 .4 2 1.3 5.3 1.7 6.4.2.6.5 1.2.5 1.2 0 .6 2.4 5.4 4 8.1 6.1 10.2 13.1 10.5 13.6.6 0-.7.1-1.5.1-1.8s0-.6-.1-.6-.2.3-.3.6c-1.2 4.1-3.7 6-5.9 4.5-4.4-2.9-7.5-8.7-7.8-14.9-.3-5.5 4-11.6 7.9-11.4h.6l-.5-1.3c-1.4-4-3.8-9.5-4.6-10.5-.2-.2-.9-.8-1.7-1.4-5.2-3.5-5.8-4.3-8.4-11.2-.2-.5-.6-1.6-.9-2.3-.6-1.4-1.7-4.2-2.7-6.6-.3-.8-.7-1.7-.9-2.1-.2-.4-.6-1.5-1-2.4-.6-1.4-1.2-3-2.8-6.6-1.6-3.7-2.3-4.6-5.8-7.4-1.4-1.3-1.3-1.3-1.3.6m102.4-.5c-1.6 1.3-1.6 1.3 0 1.1.7-.1 1.5-.2 1.8-.2h.5l-.5-.9c-.6-1.1-.4-1.1-1.8 0m-27.7-.6c-.4.2-.7.5-.7 1 0 .9.9 1.4 1.6.9 1.1-.8.3-2.3-.9-1.9m7.6.6l-.6.1v1.5c0 1.2-.1 1.9-.5 3.4-.6 2.5-.6 2.5.5.9.5-.8 1.1-1.6 1.3-1.9.2-.3.6-.8.8-1.2l.5-.6 1.3 1.2c1.2 1.1 1.3 1.1.4-.1-.2-.3-.8-1.1-1.3-1.9-1.2-1.7-1.1-1.6-2.4-1.4m22.1 1.8c-10.5 1.8-15.4 9.5-13 20 .9 3.7 4.7 9.7 7 10.9.2.1 0-.2-.5-.8-4.8-5-6.9-12.2-5.5-18.9 1-4.8 4.9-8.3 10.6-9.7 1.5-.4 1.5-.3-.1.3-5.8 2.1-9.2 5.9-9.9 11.2-1 7.7 1.5 13.8 7.3 17.9 4.3 3 10.3 2.5 14.2-1.1 1.1-1.1 1.3-1.4.3-.8-6.2 3.9-11.5 3.6-16.6-1.1-7.9-7.2-4.5-21.9 5.8-24.6 1.5-.4 4.5-.5 5.8-.2l.9.2h-1.4c-6.9.1-13.4 5.6-14 11.9-.2 1.7 0 2.2.3.8 1.1-5.2 5.3-9 10.6-9.8 2-.3 3.8.2 4.8 1.2.4.5.5.4-.3.7-1.5.4-2.1 2.2-1.5 4.5.6 2.4 3.6 3.2 5.6 1.6l.4-.3.1.4c.6 1.8.7 5.3.2 7.1-1.2 4.5-5.3 7.3-10.7 7.3-2.1 0-2.2.1-.5.6 6.3 1.8 11.6-.4 15.3-6.6 1.6-2.7 1.7-7.6.1-11.2-1.4-3.2-4.5-6.2-8-7.6-1.1-.5-.5-.4 1.2.2.8.3 1.5.5 1.5.5s-1.2-.7-2.6-1.6c-1.4-.9-3.1-1.9-3.7-2.2-1.1-1.1-1.7-1.2-3.7-.8m-64.5.3c0 .2.2.9.6 2.6l.9 3.3c.7 2.7.7 2.7.6.5-.1-1.8 0-3.9.2-4.4.1-.2 0-.3-.3-.4-.2-.1-.8-.5-1.2-1-.4-.4-.8-.7-.8-.6m33 .4c-.3.3-.3.9-.1 1.3.4.6 1.3.3 1.5-.4.3-.9-.8-1.5-1.4-.9m-64.9 1c0 .1.8 2.4 1.3 3.8l1.1 2.9c.7 2 2.4 6.4 3.5 9.3.5 1.4 1.1 2.9 1.3 3.5.2.6.7 1.8 1.1 2.7s1 2.4 1.4 3.3c2.1 5.2 1.8 4.9 7.3 7.6 1.3.6 1.4.8 2.9 3.8 1 2.1 3.7 7.8 4.4 9.4.2.6.5 1.1.5 1.1.1.2 0-.4-2.9-8.9l-2.4-7.1-.8-.6c-.5-.3-1.1-.8-1.5-1s-.8-.5-1.1-.7c-.2-.2-.7-.5-1-.7-.7-.4-1.3-1.4-2.3-4.1-.3-.8-.8-1.9-1-2.5-.8-1.9-1.6-4.1-1.6-4.3 0-.1-.2-.6-.4-1.1-.2-.5-.7-1.7-1-2.6-.3-.9-.8-2.1-1-2.6-.2-.6-.7-1.7-1-2.6-1.8-4.7-2.2-5.4-3.3-6.3-1-.9-3.5-2.5-3.5-2.3m189.1 2.5c-2.2 1.3-4 2.5-4.4 3l-.3.3.6.9c1.3 1.9 3.6 4.2 6.7 6.8 1.3 1.1 3.1 2.5 3.2 2.5 0 0-.6-.7-1.4-1.5-3.2-3.3-4.6-5.8-4-6.8.6-.9 5.8-.8 8.7.1 1.7.6 2.5 1.4 13.6 14.8 13.7 16.4 13.4 16.1 13.9 17.9l.3 1.3.1-.9c.2-1.8.6-1.9 3.3-.1 1.6 1 2.3 2 11.4 15.5 5.7 8.5 5.8 8.7 6.9 12.8.2.9.2.9.4-.7.1-1.4.5-2.7.7-3 .6-.8 1.9 1 2.6 3.6l.3 1.2-.1-.9a26 26 0 0 0-.6-3.7c-.2-.8-.9-1.7-10.5-14.7-3.1-4.2-6.1-8.3-6.8-9.2-1.4-1.9-1.6-2.3-1.8-3.8-.2-1.3 0-1-3.9-6.2-9.6-12.8-21-27.2-22.7-28.9-.6-.6-1.9 0-5 2.1-2.1 1.5-2 1.5-5.9 1.5-4.4 0-6-.8-4.6-2.2 1.3-1.2 2.8-1.7 6.6-1.8l2.9-.1-4.3-.5c-2.3-.3-4.3-.5-4.3-.5.2.1-.6.6-1.6 1.2m-173.6-.5c0 .4.1.9.3 1.5.7 1.7 2.3 4.9 3.5 7 .7 1.3 1.3 2.3 1.2 2.3-.1 0-2.7-3.3-3.1-3.9l-1.2-1.9c-.5-.7-1.2-1.9-1.5-2.5-.8-1.5-1-1.2-.4.6 1 3 4.7 9.4 9.3 15.8 1.3 1.8 1.2 1.6.6 2.2-.7.7-1.2 1.8-1.2 2.4 0 .5 0 .5-.3.2-.4-.4-2.4-3-3.6-4.8-2-3-5.6-8.5-6.8-10.5-1.5-2.5-1.7-2.7-1.2-1.1.2.5.6 1.7.9 2.7.6 1.6 4.6 8 9.3 14.7.4.5.8 1.2 1 1.5.4.6.4.6 1.1.6h.8v-.8c0-2.3 2.5-4.8 4.8-4.8.7 0 .5-1.3-.4-2.6-.8-1.1-1.8-2.5-3.6-4.9-.5-.6-1-1.5-1.3-1.8-.9-1.3-3-4.3-5.4-8-2.7-4-2.8-4.1-2.8-3.9m27.8 1c-2.2.5-2 4.1.3 6.4 1.4 1.4 4 1.8 9.7 1.3.9-.1 1.3-.3.5-.3-2.7 0-7.6-2.6-8.5-4.5-.7-1.5-.7-1.5 4.3-1.2 4.9.3 5.2.4 9.2 4 2.7 2.4 2.2 1.7-1.2-1.7-2.7-2.7-2.5-2.6-5.4-3.2-3.3-.7-7.5-1.1-8.9-.8m-48.6 4.8c0 .1.6 1.7 1.6 4.7 3.4 9.4 5.2 15.8 4.5 16.2-.8.5-3.4-3.4-6.6-9.8-.6-1.3-1.2-2.3-1.2-2.3s2.4 5.7 3.8 8.8c.3.6.8 1.8 1.1 2.5.3.8.9 2.1 1.2 2.9.9 2.2 1.3 3.2 1.7 4.4l.3 1-.3 1.4c-.2.8-.6 2.3-.9 3.4-.5 2-.7 2.6-1.7 6.4-1 3.6-1.4 5.3-1.5 5.7v.1c.1-.5 1.2-3.9 1.8-5.7.3-1 .9-2.7 1.3-3.9 2.1-6.6 1.9-6.1 3.1-6.7 1.2-.6 1.4-.5 1.1 1.2-.3 1.8-.3 1.8-2.1 9.3l-1.1 4.5-.9.6c-2.1 1.4-2.7 2.1-2.6 2.8.1.6 2.9 5.8 6.3 12 .3.5.9 1.6 1.4 2.5s2 3.5 3.3 5.7c1.3 2.2 2.7 4.6 3 5.3.4.7 1.1 2 1.6 2.8s1.1 1.8 1.3 2.2c.6 1.1 2.1 3.5 2.1 3.5.1 0-.2-.6-.7-1.6-.7-1.3-6.3-12.7-7.4-15-.5-1-1.5-3.1-2.2-4.7a80.7 80.7 0 0 1-3.9-9.2c-1.2-3.4-1.2-4.6 0-2.3 3 5.9 12.2 23 14.1 25.9.2.3 1 1.6 1.8 3 1.8 2.9 3.3 5.4 3.8 5.8l.3.3.4-.3c1-.8 2.5-4.1 4.1-9.2.2-.7.4-1.4.5-1.6.2-.7-.1-.3-.4.5-1.4 3.8-3.7 6.9-5 6.6-.8-.2-3.1-3.3-5.2-7-.5-.9-1.1-2-1.4-2.4-4-6.8-12.5-24.4-12.6-26 0-.6.1-2.1.4-3.4.1-.6.3-1.7.4-2.5s.3-1.7.3-2c.1-.5.9-4.9 1.2-6.7.1-.4.2-1.2.3-1.6.1-.5.1-.9.1-1.1-.1-.2-.3-.7-.4-1.1-.2-.4-.7-1.8-1.2-3s-1-2.6-1.2-3-.7-1.7-1.1-2.8-1.5-3.7-2.3-5.9c-1.5-3.8-1.7-4.3-2.3-5.9a55 55 0 0 0-2-5.3m197.5.6c-.8.2-.8.3.9 2.3 2.5 3 11 12.4 9.5 10.3-.3-.3-1.4-1.7-2.4-3.1-2.9-3.8-6.1-8-6-8 .4-.4 4.7 4 10 10 2.6 3 3.3 3.8 3 3.4-.1-.1-1.4-1.8-2.9-3.7-5-6.5-4.9-6.2-3.4-5.3 1.6 1 6.1 5.7 10.8 11 2.9 3.3 2.6 2.8-2.1-3.1-8.1-10.3-10.2-12.6-11.7-13.1-1.7-.6-4.9-.9-5.7-.7m-14.4.9c-3.5 1.2-6 2.4-6.5 2.9-.3.4-6.1 10.8-6 10.9l3.1-.9c7.8-2.4 8-2.4 10-.7.7.6.8.6.4 0-.2-.4-.3-1.2-.1-1.2.1 0 .3.2.5.5s.5.6.8.7l.4.3-.4-.8c-.4-.7-.5-1.7-.3-1.9.1 0 .3.3.5.8a12 12 0 0 0 3.4 4.4c.3.2.5.4.4.4s-.8.1-1.6.2c-1.9.2-1.7.3-4.4-1.9-2.4-2-2.2-2-3.7-1.5-1.8.6-7 2.6-7 2.6s.8-.1 1.8-.4c6.7-1.5 6.7-1.5 9.5 1.2l1.7 1.7.6-.1c.3 0 1.1-.3 1.8-.6l1.2-.5 1.5.1c.9.1 1.4 0 1.4 0-.1-.1-.6-.5-1.2-.9-4.9-3.6-6.3-8.8-4.1-14.1.5-1.1.5-1.2-.1-.7l-.4.4-.3-.4c-1.2-1.3-.9-1.2-2.9-.5m-110.4-.1c-1 .4-2.2 1.4-2.7 2.5-.5.9-.5 1.3 0 .7 1-1.2 3-2.2 5.6-2.7.6-.1 1.1-.2 1.2-.3.1 0 0-.1-.2-.2-.7-.4-2.9-.4-3.9 0m28 .5c-.6.3-.7.6-.7 1.2 0 1.7 2.1 1.9 2.5.3.4-1.2-.7-2.1-1.8-1.5m88.1 1.1c-3.5 5.4.8 12.9 7.9 14.1 1.2.2 1.1.3 1.3-1 .1-1.6.1-1.7-1-1.8-2.6-.4-4.6-2.3-5.6-5.1-.4-1.3-.5-3.9-.1-4.8.3-.6-.2-1.7-.6-1.4-.9.8-.8 4.4.1 7.2.4 1.3.3 1.3-.3-.1-.7-1.4-1-2.6-1.2-3.8-.1-.5-.2-1-.3-1.1-.2-.2-.1 2 .2 3.6.3 1.8.3 1.9-.2.9-.9-1.9-.8-4.3.1-6.6.3-.9.3-1-.3-.1m-4.3.1c-.1.4-.3 1.1-.4 1.6-.1.8-.2.9-.5 1-.8.2-4.6.7-4.6.7s.5-.2 1.1-.4c3.5-1.1 4.3-2.3 1-1.6l-1.1.2c-.1-.1 4.2-2.2 4.6-2.2.1 0 .1.2-.1.7m-110.4-.1c-3.1 1-4.5 3.1-4.4 6.8.1 1.9.3 2.6.3 1 .1-4.6 5-8.2 8.8-6.6l.8.4-.4-.4c-1-1.1-3.5-1.7-5.1-1.2m50.7 1.4c-.3.1-.9.3-1.4.6-.5.2-1.1.5-1.5.5-1.1.2-2.2 1-1.2.9.6-.1.7.2.8 1.2v.9l.3-.7c.4-.9.6-1.1 1.6-1.6 1.3-.7 1.5-.6 1.1.5-.1.4-.3 1.1-.3 1.5v.7l.3-.5c1.1-1.8 2.6-2.7 3.2-2 .2.2.2.3.1.6-.6 1.5-.4 2.6.2 1.4.7-1.4 1.4-1.9 2-1.3l.3.3-.4.8c-.3.6-.4 1-.4 1.7l-.1.9.5-.8c.9-1.4 1.5-1.9 2.1-1.7.4.2.5.7 0 1.3-.4.6-.6 1.7-.3 1.9.1.1.1 0 .1-.1 0-.8 2.6-3.8 3.7-4.3.4-.2.6-.4.6-.4-.1-.1-1.4-.1-2 0-.4.1-.6.1-.9-.2-.2-.2-.7-.3-1.1-.3-.6-.1-.8-.1-1.1-.6-.4-.5-1.2-.8-1.8-.8-.1 0-.6-.2-1-.3-.6-.3-.8-.3-1.3-.3-.9.1-1 .1-1.4 0-.1.1-.5.2-.7.2m-49.5.8c-1.6.6-2.9 1.8-3.5 2.9-1.8 3.6.5 8.9 3.8 8.9.5 0 .4-.2-.2-.3-2.4-.5-4.1-5.1-2.8-7.6a4.1 4.1 0 0 1 4.7-2.2l.3.1-.3.4c-.8 1-.7 1.9.3 2.6.8.5 1.6.4 2.1-.3l.3-.5.3.9c.8 2.4 0 4.9-1.9 6.1-.7.5-.8.6-.1.4 2.8-.8 4.3-4 3.6-7.7-.5-3.1-3.8-4.9-6.6-3.7m-87.1 3.3c-.9 1.8-3 6-4.6 9.4-1.6 3.3-3 6.1-3.1 6.2-.1.1-1.6 3.2-3.4 6.9-1.8 3.7-5.4 11.1-8 16.3-2.6 5.3-5.9 12.1-7.4 15.2-2.9 6-2.8 5.8-3 5.1-.2-.8-1.2-3-1.2-3s-.2.4-.3.8c-.1.5-.3 1.3-.4 1.8-.1.6-.4 1.7-.6 2.6l-.9 4c-.5 2.3-.9 3.9-1.5 6.6-.9 4.1-1.5 6.7-1.9 8.1-.2.9-.9 3.9-1.5 6.7-.6 2.8-1.4 6.2-1.7 7.6s-.9 3.6-1.1 4.9c-.9 4.1-1.2 5.2-1.9 8.1-.4 1.5-.9 3.9-1.2 5.1l-1.1 4.7c-.3 1.3-1 4.3-1.6 6.8s-1.3 5.7-1.7 7.2c-.4 1.5-1 4.4-1.5 6.4s-1 4.2-1.2 4.9c-.2.7-.5 2.1-.7 3.1l-1.2 5.2c-.2.9-.4 1.9-.4 2.2 0 .2.3-.4 1.4-3.3.3-.7.9-2.2 1.4-3.4l2-4.7c.6-1.4 1.4-3.2 1.7-4.1.4-.8 1.2-2.8 1.8-4.3s1.4-3.5 1.9-4.5c.4-1 1.2-2.8 1.8-4.2 4-9.6 4.8-11.6 5.9-14.2 2.2-5.1 3.9-9.4 5.1-12.3.7-1.7 1.6-3.8 2-4.8s1.4-3.3 2.2-5.3c1.4-3.4 3.3-7.9 4.7-11.1.4-.9 1.1-2.6 1.6-3.9.5-1.2 1.4-3.3 1.9-4.7.6-1.3 1.4-3.3 1.9-4.5.7-1.8 4.7-11.4 7.3-17.5.5-1.2 1.5-3.5 2.1-5.1.7-1.6 1.5-3.5 1.9-4.3s.9-2.1 1.2-2.8.8-1.9 1.1-2.7.9-2.1 1.2-3c.8-2 2.8-6.8 3.9-9.4.5-1.1 1-2.4 1.3-3 .2-.6.8-2 1.3-3.1s1-2.4 1.2-2.8.5-1.3.8-1.9l.5-1.1-.2-.9c-.1-.5-.4-1.7-.6-2.7-.2-1-.6-2.6-.9-3.5-.8-3.4-.8-3.4-.7.7 0 2 .1 4 .2 4.4.1.8 0 1.8-.5 2.9-.1.3-.3.9-.5 1.3-.4 1.2-3 8.1-3.7 9.7-.2.5-.8 1.8-1.2 2.9-1.6 3.9-3.2 7.8-4.1 9.9-.5 1.1-1.2 2.8-1.6 3.8-.4 1-1.3 3-2 4.6-.7 1.6-1.5 3.3-1.7 3.9-.9 2.1-3.9 8-4.3 8.4l-.3.4.1-.5c.1-.9.9-3.5 1.6-5.5.4-1.1.9-2.5 1.1-3.3.6-1.7 2.1-6 2.5-6.7.1-.3.4-1 .6-1.5.6-1.7 1.2-3.5 1.6-4.3.2-.5.5-1.2.6-1.6.1-.4.4-1.2.7-1.8.2-.6.7-1.7.9-2.4.7-1.8 1.8-4.7 2.3-5.9.2-.5.6-1.6 1-2.4.3-.8.8-2.1 1.1-2.8.6-1.5 1.4-3.4 2.3-5.8.4-.9.6-1.6.6-1.6-.1 0-.3.5-.5 1.1-1.1 2.8-1.4 3.5-2.6 6.1-.7 1.5-1.7 3.8-2.3 5.1l-2.2 4.8c-4.6 10.1-11 22.7-11.4 22.3-.1-.1 1.1-3.6 2-5.9l2.2-5.6c.2-.6.7-1.8 1.1-2.5.3-.8.9-2 1.1-2.7a264.26 264.26 0 0 1 3.8-8.7c.2-.5.7-1.7 1.1-2.5 1-2.1 2.5-5.7 2.9-6.6.2-.4.6-1.4 1-2.3.7-1.6 1.5-3.4 2.1-4.8.2-.4.6-1.4.9-2.1.3-.7.5-1.3.5-1.3-.1 0-.1.1-.1.1 0 .1-.4 1-.9 2.1-1 2.2-2.8 5.9-4.2 9.2-.5 1.2-1.4 3.1-2 4.3s-1.3 2.9-1.7 3.7c-.4.9-1.4 3-2.2 4.7l-3 6.3c-2.4 5-5.1 10.1-5.3 9.9-.2-.2 1.1-3.8 2.8-7.8.6-1.4 1.3-3.1 1.6-3.9.8-1.9 2.8-6.6 3.4-8.1.3-.6.9-2 1.4-3.1s1.1-2.5 1.4-3.1c.3-.6 1-2.3 1.6-3.7s1.5-3.4 2-4.4c.9-1.9 2.3-5 2.9-6.4.8-1.9 1.5-3.4 1.7-3.9.2-.3.2-.5.2-.5-.6.3-1.3 1.8-2.2 3.6m204.9-2.8c-.9 1.7.6 5.3 2.7 6.4 1.8.9 2.2.9 2.2-.3 0-.7 0-.7-.6-.9-1.5-.6-2.6-2.7-2.2-4.1.1-.3 0-.4-.5-.8l-.6-.5-.2.3c-.4.5-.4 1.7 0 3.2 0 .1-.1-.1-.3-.4-.3-.6-.3-.8-.3-1.9 0-1.3 0-1.3-.2-1m-53.8 1.7c-3.8.8-6.8 4.3-6.7 7.7v.4l.2-.5c.2-.5.6-.9.7-.9 0 0 .1.3 0 .8-.1 2.2 1.2 4.8 3.1 5.9.9.5 1.2.5.5 0-4.2-3.1-4-9.3.4-11.5 3.8-1.9 7.4-1 9.1 2.4l.5.9-.1-.6c-.4-3-4.3-5.3-7.7-4.6m32.4.6c-1.9.6-2.2.7-2.6.6-.5-.2-1 0-1.2.5-.6 1.4-2 6.9-1.9 7.4.1.4 1.1 1.2 3.1 2.5l1.5 1 1.2-.6 1.2-.6-1-.1c-1.3-.1-2.8-.8-3.9-1.8l-.7-.7.9-.3c.8-.2.9-.3 1.4-1 .9-1.4.8-1.3.3-1.3-1.2 0-.3-1.2 1.1-1.4.8-.1.9-.7.1-.7-1.1 0-.6-.6 1.1-1.3 1.2-.5 1.1-.8-.2-.4-1.9.6-1.4-.2.7-1.1.5-.2 1-.5 1.1-.5.1-.1.3-.9.3-.9-.3-.1-1.3.3-2.5.7m9.5-.3c1.7.6 2.1 2.7.7 3.6-2.2 1.4-4.5.6-4.5-1.7 0-1.6 2-2.6 3.8-1.9m-133.6.5c-1 .3-1.3.7-1.5 1.8l-.1.7-.6.1c-1.3.2-1.7.7-1.7 2.1 0 2.2 1.2 4.8 3.1 6.9 1.2 1.2 2.1 1.8 1.2.7-.3-.3-1.4-2.7-1.7-3.8-.7-1.9-.5-3.3.3-3.8 1.4-.8 8.8-.2 10.6.9 1.1.7 2.9 3.3 4.3 6.6.6 1.3.8 1.7.7 1.2a92.83 92.83 0 0 0-2.3-6.4c-.7-1.8-1.4-2.8-2.3-3.1-1.4-.5-5.8-1-8.7-1.1-1.7 0-1.9-.2-1.6-1 .2-.5.6-.6 2.5-.5 5.8.4 9.5 1.1 10.1 2 .2.3 1.7-.1 3-.6l1-.4s.9-.4 1.8-.9c1.9-1 1.9-1-.5-.6s-9.4.1-16.8-.9c-.1 0-.5 0-.8.1m133.5.5c.4.8.4 1.6-.2 2.2-.6.6-.5.6.3.3 1.1-.5 1.3-2.1.2-2.8-.6-.3-.6-.3-.3.3m-107.2-.2c-.2.2-.2.9.1 1 .7.3 1.2-.3.7-.9-.3-.3-.6-.4-.8-.1m105.3.3c-.6.6-.2 1.7.5 1.7s1.1-1 .5-1.6c-.3-.4-.6-.4-1-.1m-38.3 1.1c1.4.2 3.1 1.2 2 1.2-.8 0-1.5 1.1-1.4 2.1.2 1 1.5 1.6 2.4 1.1.5-.2.4-.3.5.1.4 1.7-1.1 4.7-2.5 5.2-3.7 1.3-7.3-2.7-6.2-6.7.2-.7 0-.7-.3.1-1.7 3.9 2.1 8.6 6.5 7.8 6-1 5.2-11-.9-10.9H207h1m23.4.8c-1 .3-2 .7-2.1.7h.8c1.4-.1 2 .4 1 .8-1.3.5-7.7 2.8-10.4 3.7l-3.2 1.1.6-.5c.8-.7 3.2-2.1 4.7-2.7 1.9-.8 1.4-.7-1.5.3-3.7 1.3-4.6 1.9-5.2 3.6-.4 1.3-.3 3.8.2 3.7.4-.1 11.2-3.8 11.2-3.8s-1.1.2-2.4.5c-2.5.6-4.9 1-6.1 1h-.8l1-.4c.6-.2 3.6-1.3 6.7-2.4 3.1-1.1 5.7-2.1 5.7-2.1.1-.1 1.3-2.8 1.7-3.7.2-.5.4-.6-1.9.2m-98.9.8c-1.3.6-2.5 1-3.3 1.3-.4.1-.7.2-.8.2s-.1.2.2.8c.2.4.6 1.6.9 2.6 1.2 3.7 2.9 6.8 2.9 5.4 0-.5.6-1.1 1.5-1.6.7-.4.4-.4-.8-.1-1.1.3-1.1.2-.7-.6.3-.6 1.5-1.8 2.2-2 .2-.1.2-.1-.1-.1-.2 0-1.7.4-2.4.7-.4.2-.3-.5.3-1.2.5-.6 1.8-1.6 2.6-2.1.7-.3.1-.2-.8.2-1.2.5-2.2.8-2.3.8-.2-.2 1.2-1.9 2.4-2.9.8-.7.6-.7-.7 0l-1 .5.3-.7c.2-.4.4-.9.6-1.2.3-.5.2-.5-1 0m73.9-.1c-.3.4 0 .9.5.9.3 0 .4-.1.4-.4.1-.6-.5-.9-.9-.5m62 .4c-.7 3.1-.5 7.7.3 8.9 2.8 4.1 18.8 20.5 20.3 21 .3.1 1.6.3 2.9.5 5.6.8 7.2 1.1 8.2 1.8 1.2.8 4.8 4.1 10 9 6 5.7 6 5.7.9.3-1.5-1.6-4.1-4.3-5.7-6-5.3-5.7-5.3-5.6-5.9-7.5-.4-1.4-.4-1.5-.6-.9-.1.3-.2 1-.3 1.5l-.2 1h-.9c-2.1 0-3-1-3.5-3.9-.1-.6-.3-1.2-.3-1.2-.1 0-1.8-1.5-3.9-3.3s-4-3.4-4.2-3.6.8.9 2.3 2.3c5.5 5.4 6 6.9 1.1 3.2-1.6-1.2-1.6-1.2-1.1-.6 2.3 2.5 3.1 4.8 2 5.4-1 .5-17-16.4-18.9-20.2-.8-1.5-.6-1.4 4.8 3.6l1.2 1.1-.9-1c-3-3.4-4.8-5.6-5.2-6.5-.3-.7-.4-.7 2.4 1.6 3 2.5 3 2.5 2.3 1.7-3.6-4.5-7.1-8.5-7.1-8.2m-81.2.4c-.4.1-1.1.8-1.1.9 0 .1.1 0 .3-.1.5-.3 1.3-.3 1.8.2l.4.4-.6.1c-.7.1-1.1.4-1.1.8 0 .2 0 .2.2.1.3-.2 1.1-.2 1.7 0 .5.2.7.5.3.5-.2 0-.8.6-.8.8 0 .1.2 0 .6-.1.5-.2.8-.3 1.8-.2h1.2l-.1-.3c-.1-.5-.5-1-1.1-1.3-.3-.1-.8-.6-1.2-.9-.5-1-1.5-1.2-2.3-.9m83.1.2c0 1 16.3 17.2 22.8 22.6.9.8 2 1.2 5.3 2.2.8.2.8.3 4.4 4 7.1 7.4 12.4 13.4 13.6 15.2.4.6.5.7.2.1-1.6-3.1-9.7-13-15.5-18.9l-1.2-1.2-1.5-.5c-2.2-.7-2.2-.7-2.3-2.8 0-.9-.1-1.9-.2-2.1-.1-.3-5.4-5.6-5.5-5.5 0 0 .3.7.7 1.5 1.2 2.4 1 3-.8 2.5-2.8-.9-7.9-5.1-17.6-14.7-1.2-1.4-2.4-2.5-2.4-2.4m-75.6.3c-.1.6.1 1 .9 1.8.4.4 1 1 1.2 1.4s.6.7 1 .9.7.5.8.7.4.4.6.6l.4.2-.3-.7c-.5-1-.8-2.1-.7-2.9.1-.9-.3-.6-.6.4-.1.5-.2.5-.4.4-.4-.3-1-1.4-1-1.8 0-.5-.3-.6-.7-.2-.3.3-.6.1-.9-.6-.2-.5-.3-.5-.3-.2m35.7.7c-2.1 1.1-12.3 4.7-11.5 4.1.9-.7 7.9-3.4 10.9-4.2 1.3-.3 1.4-.3.6.1m-40 2.8c-4.9.6-6.5 8.1-2.3 11.3.5.4.5.4-.2-.4-4-4.5 0-12 5.6-10.4.8.2.7.1-.1-.2-1-.3-2.1-.4-3-.3m-70 2.1c-.6.8-1.6 2.1-2.2 2.8-1.5 1.9-5.9 7.8-5.9 8-.1.3.5.5 1.4.6l.8.1.9-.9c.5-.5 1.2-1.3 1.5-1.7.4-.4 1-1.2 1.4-1.6.4-.4 1.8-2.2 3.2-3.9 1.4-1.7 2.7-3.2 2.9-3.4l.3-.4-.3-.3c-.5-.4-.4-.4-1.7 1.1-2.4 2.9-5.5 6.4-5.8 6.4-.1 0 .6-1.2 1.6-2.6 1.2-1.7 3.9-5.2 4.1-5.3s0-.2-.6-.3l-.5-.1-1.1 1.5m70.3-1c-.6.2-1.3 1-1.3 1.2 0 .1.1.1.3-.1 1.1-1 3-.9 4.2.4l.4.4h-.3c-1 0-1.7 1.1-1.3 2.2.4 1.1 1.4 1.4 2.4.9 1.1-.6.6 2.9-.7 4.3-1.8 2-5.7 1-6.4-1.6-.2-.8-.4-.7-.2.1.6 3.2 5.2 4.4 7.5 1.9 2.6-2.8 2.6-7.5 0-9-1.5-.8-3.6-1.1-4.6-.7m-90.5.3c-1.5.7-2.3 2.3-1.7 3.2.2.3 3.1 4.2 4 5.4 1.8 2.4 2.2 2.9 2.4 3.1.2.2.2.2 0-.1-4.1-6-5.7-8.7-5.1-9 .6-.4 2.9 2.4 5.8 7 .6 1 1.2 1.9 1.2 1.9.1 0-.3-.7-3-5.9-1-1.9-.9-1.9.4.1 1.4 2.2 3.9 5.9 4 6 .3.3-.9-2-3.8-7.7-2.2-4.6-2.5-4.9-4.2-4m138.3 6.4a271 271 0 0 0-10.2 6.9c-.1.1.6 1.3 1.5 2.7l1.6 2.6 2.4-1.6c1.3-.9 6.3-4.2 11-7.4s8.6-5.8 8.6-5.8-1 .6-2.2 1.4c-9.3 5.9-16.4 10.2-16.5 10-.4-.4 5.6-5 10.7-8.1 2.1-1.3 2.8-1.8 1.5-1.1-3.5 2-11.6 6.7-13.3 7.8-1.5 1-1.6 1-.7.1 2.3-2.1 10.4-7.7 17.4-11.8.4-.2.8-.5.8-.5 0-.1-2.2-2-2.3-2-.1 0-4.7 3.1-10.3 6.8m-81.7-5.3c1 3.5 6.6 8.2 12.3 10.2 1.5.5 1.2.6-.7.2-2.2-.5-4.6-1.5-6.8-2.8-1.5-.9-1.5-.8-.1.4 3.3 2.6 6.5 4.1 9.8 4.5l.8.1-.7.1c-.9.2-2.9-.1-5-.6-1.9-.5-2-.4-1.1.2 1.3.9 3.4 1.5 5.8 1.7h.5l-.3.2c-.2.1-.8.2-1.8.2-1.7.1-1.7.1-.6.7a5 5 0 0 0 2.6.7l1 .1-.8.4c-1.6.8-3.5.4-5.3-1.1-.9-.7-.9-.7 0 1.3 1.2 2.6 1.2 2.7 3.4 2.7 1.9 0 2-.1 3.5-1.5 3.8-3.7 6.4-8.2 7.9-13.7.4-1.6.4-1.8-.1-1.2-5.5 7.3-17 6.3-23.3-2.1-.9-1.2-1.2-1.4-1-.7m-12.9.3c-.5.1-.6.3-.1.3 2.3 0 5.1 2.3 5.4 4.3.2 1.1.2 1.2.3 1 .1-.1.1-.6.1-1 .2-2.8-2.6-5-5.7-4.6m89.3.9c-9.4 3.3-12 3.9-15.4 3.1-.3-.1-.7-.2-.9-.2-.7-.2.3 1.1 1.3 1.6 1.6.8.9.9 9.8-1.9 9.2-2.9 8.3-2.5 7.7-2.9-.6-.4-.3-.5-2.5.3m-43-.1c-.7.9.2 2.1.9 1.4.6-.6.3-1.7-.4-1.7-.1 0-.3.1-.5.3m-67.7 3.5c-3.6 3.7-3.4 3.5-2.5 3.4 1.4-.1 1.6.9 1.2 4.9-.4 3.6-.4 3.6-4 7.8-.6.7-1.1 1.3-1.1 1.4s.1 0 .3-.2l1.6-1.6c1.6-1.5 7.4-7 8.8-8.3 1.3-1.2 1.1-1.2-1.1.4-1 .7-1.9 1.3-2 1.2-.3-.3 1.1-2.1 2.8-3.8l1.2-1.2c-.1 0-1.4.9-2.6 1.7-1 .8-1 .8-.8.2.3-.8 1.8-2.7 2.7-3.5.2-.2.3-.3.2-.3-.2 0-2.1 1.3-2.6 1.7-.2.2-.4.3-.4.3 0-.3.6-1.4 1.1-1.8.5-.6.4-.8-.2-.3-.2.2-.3.2-.3 0s1.3-3 1.6-3.4c.2-.3.2-.3-.3-1.5-.3-.5-.2-.6-3.6 2.9m90.6-2.9c-.4.1-.8.3-.9.4-.7.7-3.1 1.5-4.3 1.5-.5 0-8 2.5-7.7 2.6.1 0 11.2-3.1 12.3-3.5 1.4-.5.3.3-1.5 1-.6.2-2.1.8-3.4 1.3-1.3.5-2.4.9-2.3.9.3 0 8.5-2.4 8.9-2.7.2-.1-.1-1.9-.3-1.9-.1.2-.5.3-.8.4m-72.4.2c-.7.2-.5.3.7.3a6 6 0 0 1 4.5 1.8c.6.7.6.9-.1.5-1.4-.8-4-1-5.6-.4-1.5.6-1.4.7.2.5 1.5-.2 3.4.2 4.3.8.7.5.6.6-.3.4-2.2-.5-4.8.1-5.7 1.3-.6.8-.5.9.6.3 1.2-.6 3.3-.7 4.1-.3l.4.2-1 .1c-1.7.1-3.6 1-4.1 1.9-.4.7-.3.8.3.4.9-.6 1.9-1 2.5-1h.6l-.9.8c-1 .9-1.6 2-1.6 2.6v.4l.7-.7c2.1-2 5-3.1 6.7-2.4l.5.2v-.5c0-.6.2-1 .5-1 .9 0 .6-2.8-.4-4.3-1.1-1.5-4.6-2.6-6.9-1.9m-74.8.9c0 .4-.1 1.8-.2 3.1s-.3 4.6-.5 7.2c-.5 7.3-1 13.8-1.1 15.6-.1.9-.1 2-.1 2.4v.7l.3-.9c.2-.5.4-1.2.6-1.5.7-1.8 1.6-4.2 1.7-4.6.1-.3 0-3.8-.2-11.5-.1-4-.2-8.1-.2-9.2 0-1.2-.1-2-.1-2-.1 0-.2.3-.2.7m86.1.9c0 1.7 1.5 5.1 3.9 8.9 1.7 2.6 2.6 4.6 2.8 5.6.1.4.2 1 .2 1.3l.1.5.2-.4c.1-.2.3-.8.5-1.3.4-1.1.5-.9.6 1.5.1 1.4 0 2-.2 2.7-.1.5-.2.9-.2.9.1.1 1.2-1.8 1.5-2.4.8-1.8.8-1.7.4-3.4l-.3-1.3-1-1c-3.2-3.3-5.8-6.8-7.6-10.3-.5-1-.9-1.5-.9-1.3m62.6 1.3c-.7.7-5 2.6-9.5 4.1-1 .3-1.8.6-1.8.7 0 0 12-3.5 12.4-3.7.1-.1.1-.2-.2-.7-.5-.8-.5-.8-.9-.4m35 3.7c-12.4 7.9-17.5 11-17.8 11-.1 0-.5-.2-.8-.5l-.6-.5.2.7c.4 1.3.3 3.5-.4 7.1-.4 2-.2 1.7.6-1.1.7-2.5 1.4-4.2 1.7-4.7.1-.1 2.2-1.6 4.6-3.3s7.6-5.2 11.3-7.8c9.3-6.1 9.4-6.1 1.2-.9m-113.2-3.1c-3 3.2-3.7 9.3-1.5 15.1.5 1.2.9 1.9.7 1.2-.2-1 1.3-5.3 2.7-7.6.2-.3.3-.5.2-.5-.2-.1-1.5 1.4-2.1 2.5-1.1 2-.2-.9 1-3.2.8-1.5.3-1.1-.9.8-1.1 1.6-1.3 1.7-1 .5.2-.6 1.5-3 1.9-3.5.3-.3.3-.3 0-.3-.4 0-1.2.6-1.9 1.3l-.6.7-.1-.5c-.2-1.5.8-5.1 2-6.7.5-.5.1-.4-.4.2m131.5 9.7v10l3.8 2.6c7.4 5 8.9 6 8.8 5.9-.1-.1-1-.9-2.1-1.8-3.5-3-6.6-6.2-7.1-7.5-.2-.4-.3-.5 1.8 1.2 1.8 1.5 5.8 4.3 9.9 7.1 4.9 3.3 5 3.4.8.2-7.8-5.9-14.4-11.6-14.4-12.3 0-.1.9.5 2 1.4 2.9 2.2 10.9 7.8 10.9 7.6 0 0-1.1-1-2.5-2-5.1-4-10-8.2-10.3-8.9-.1-.1 1.2.6 2.8 1.8l5.4 3.7c1.4.9 2.4 1.6 2.3 1.5s-1.2-.9-2.4-1.9c-5.1-4-9.2-7.8-8.8-8.2 0 0 1.9 1.3 5.9 4.2 1.1.8.7.5-1.2-1.2-4.4-3.6-6.5-6.6-2.7-3.7 1 .7 1.2.9.9.5-1.8-2.1-2.5-2.9-2.3-3.2.6-1.1 2.8-.4 5.9 2 .8.6 1.3.9 1.1.7-.2-.2-2.2-2.4-4.4-4.9-2.2-2.5-4.1-4.6-4.2-4.7.2-.1.1 4.4.1 9.9m-85.3-7.6c.1.2 0 .4-.3.7l-.3.4h.3c1 0 1.2.5.5 1.2-.7.6-.7.9 0 .5 1.1-.5 2.1-.2 1.3.4-.5.4-.9 1.3-.7 1.6 0 .1.3-.1.6-.5.5-.6.8-.7 1.3-.6.3 0 .3.1-.2.6s-.8 1.2-.6 1.8c.1.4.1.4.4-.3.4-.8 1.3-1.7 2.4-2.2l.9-.4h-.6c-.3 0-.7.1-.8.1-.2.1-.3.1-.3-.1-.1-.2-.2-.3-.5-.4-.2 0-.5-.2-.6-.4-.2-.3-.9-.7-1.1-.5-.1 0-.1-.1-.1-.3 0-.4-.2-.8-.6-.9-.2-.1-.3-.2-.3-.5 0-.4-.1-.4-.4-.5-.3 0-.3.1-.3.3m-37 2.8c-7.2 1.6-11.6 12.1-7.7 18.5.6 1 .8 1.1.4.2-.6-1.6-.8-2.1-1-3.4-1.2-8.2 6.4-16.5 13.2-14.5.7.2.7.1.1-.2-1.3-.7-3.5-1-5-.6m-27.9.7c-3 1.5-3.5 1.6-5.5.9-2.6-.8-3.9-.7-4.9.4-1.1 1.1-1.4 2.2-1.1 3.3.2.8.4.9.4.2.1-2.6 4.3-3.9 6-1.8 2.7 3.5-1 7.7-4.6 5.4-.3-.2-.6-.4-.8-.5l-.3-.2.1 1.4c.1 2-.4 3.5-1.7 5.1-.3.4-.5.7-.5.7s2.1.7 2.6.8c.1 0 .7-.5 1.3-1.1 1-.9 6.6-6.2 9.9-9.3l.6-.6.2-2.6c.1-1.5.2-2.7.2-2.7.1-.3-.4-.1-1.9.6m-55 1.2c-.1 1-.2 2.9-.3 4.1-.1 1.2-.3 3.1-.4 4.3-.1 1.2-.6 6.6-1.1 11.9-.5 5.4-.9 10.2-1 10.8s-.4 3.8-.7 7.2l-1.4 15.7c-.2 2.2-.5 5.2-.7 8.1-.3 3-.1 2.6.9-2.5.1-.4.3-1.4.5-2.1s.4-1.7.4-2.1l.7-3.1c.3-1.3.9-4.4 1.4-6.7.5-2.4 1-4.6 1.1-5s.4-1.9.7-3.5a574.8 574.8 0 0 1 2.8-13c.6-3 1-4.5 1.2-5.5.9-3.8.8-4.2 0-1.5-.3 1-.9 2.7-1.3 3.8-.4 1.1-1.2 3.5-1.8 5.4-.6 1.9-1.3 3.7-1.4 4.1l-.3.7V266c0-1.4.1-4.1.2-6 .1-1.9.2-5.2.3-7.3s.2-5.7.3-7.9c.3-8 .3-9.2.2-9.2-.1-.1-.2.8-.3 1.8m66.8.8c-1.1 1-2.6 2.3-3.4 3s-2 1.8-2.8 2.4l-5.5 4.8c-2.3 2-5.9 5.2-8 7.1l-3.9 3.4-.2 1.6c-.3 2-.3 2.2 0 1.7 1.5-3 16.4-17.1 20.1-18.9.3-.1.8-.4 1.2-.7.9-.5 2.2-.8 2.7-.6.3.1.4.1 1-.7.4-.5.8-.8.8-.9.1-.1.1-4 0-4 .1.1-.9.8-2 1.8m59.2-1.3c-2.9.8-4.5 4.5-3.1 7.5.6 1.3.9 1.5.5.4-1.1-3.6 1-7.3 4.6-7.8.6-.1.7-.1.3-.2-.6-.1-1.5-.1-2.3.1m1 1.3c-2.7 1.3-3.7 5.4-1.8 7.8.7.9.9.8.4-.2-2-3.9 1.3-8.7 4.1-6.1l.4.4-.4.1c-.8.1-1.2 1.2-.7 2.1.4.7 1.3.9 1.7.5.3-.3.4-.2.4.5 0 1.6-1 3.1-2.3 3.7l-.7.3h.5c.8 0 1.9-.5 2.8-1.3 3.4-3.3-.1-9.8-4.4-7.8m32.6-.1l-2.1.2-4.2 2.4c-2.3 1.3-4.2 2.4-4.2 2.4s1.9-.8 4.2-1.8l4.2-1.9 1.5-.1c3.7-.3 4-.3 5.9 1.5 1 1 1.1.9.1-1-1-2.1-.8-2.1-5.4-1.7m-74.1.3c-4.7 1-7.6 3.6-8.3 7.6-1 5.5 1.5 9.7 6.1 10.4.8.1.7-.1-.3-.4-4.5-1.5-6.2-7-3.7-12 1.6-3.1 6.2-4.6 9.3-3l.5.2-.5.3c-1.1.6-1.3 2.3-.5 3.3 1 1.2 3.2 1.5 3.9.5.2-.3.2-.3.4.3 1.1 2.9.2 6-2.6 9.2-1.1 1.2-.9 1.3.4.1 4.2-4 5.2-8.9 2.7-13.6-1.3-2.5-4.1-3.6-7.4-2.9m50 1.4c2.2 2.3 2.8 3.5 1.2 2.5l-1-.6c-.1 0 .1.2.3.5 1.7 2.1 2.1 3.3.8 2.6l-.6-.4.6.6c.9 1 .9 1.1.5 2.1-.8 1.6-1.8 2.2-3 1.7-.7-.3-.7-.3-.4.2.8 1.3 1.9 1.9 2.3 1.2 1.2-1.9 3.4-3.7 5.5-4.4l.7-.2-.3-.5c-.2-.2-.3-.5-.3-.6.2-.4-.1-.6-6.1-5l-1.5-1.1 1.3 1.4m-94.3-.8c-.2.3-.2.8-.3 3.5-.1 3.9-.4 4.6-2.4 5.6l-.6.3v1.6l1 .5 1 .5.4-.5c1.7-2.1 2.1-4 1.4-6.9-.4-1.6-.5-3.4-.3-4.3.4-.8.2-.8-.2-.3m39.1.2c-4.9 3.6-6.7 9.5-4.4 14.3 1.6 3.3 4.6 4.9 7.9 4.1l1-.2-1.3-.2c-7-.9-9.9-8.7-5.5-15.1.6-.9 2.2-2.6 2.8-3.1.3-.2.5-.4.4-.4 0 0-.5.3-.9.6m35.1 1.1l-.8 1v1.4c0 1.6.3 4 .6 5 .1.4.3 1 .3 1.4l.2.8-.5.6c-.5.5-.8 1.1-.4.8 1.1-.9 2.4.6 1.4 1.6-.6.6-.7 1-.1.7.5-.3 1-.1 1.4.5l.3.5-.3.4c-.3.4-.5 1.4-.3 1.6.1 0 .2-.1.3-.4.4-.8 1.4-.8 1.6.1.1.3 0 .5-.3.8-.6.7-.4 1.4.2.9.7-.5 2.1-.2 2 .4-.3 1.3-.2 2.2.2 1.5.4-.7 1.3-.9 2.4-.5l.5.2v.8c-.1 1 .1 1.2.4.6.6-1.2 2.4-1.1 2.5.1.1.7.3 1 .4.6.3-.9 2.2-1.5 2.2-.7 0 .2.5.7.7.7l.2-.4c.2-.8 1.7-1.5 1.7-.8 0 .2.1.5.3.7.3.3.3.3.3 0 0-1.1 1.8-1.8 1.9-.9.1.7.5 1 .7.5.1-.4.9-.9 2.3-1.6l1.1-.5.1.6c0 .3.2.7.3.9l.2.3.1-.3c.1-.6.5-1 1.3-1.7.9-.7.9-.7 1-.1 0 .3.2.6.3.8l.3.3v-.4c0-.8 1.5-1.9 2.3-1.6.2.1.4.2.4.5 0 .2.1.5.3.6l.3.3v-.3c0-.7.7-1.4 1.8-1.7 1-.3 1-.2 1.1.3 0 .3.2.6.3.8l.2.3.2-.5c.3-.9 1.1-1.5 2-1.7 1.4-.2 1.4-.3 1.4.7 0 1.1.3 1.6.5.8.3-1 2.1-2 3.1-1.7l.5.1-.2.4c-.3.5-.3 1.8-.1 2 .1.1.2.1.2-.1 0-.7 1.8-2 2.9-2 .6 0 1.2.4.9.5-.4.2-1 1.8-.8 2.2.1.1.2 0 .4-.3.7-1 3.5-1.8 4.3-1.3.3.2.3.2-.1.5-.5.4-.9 1.5-1 2.5l-.1.8.4-.5c1.4-1.8 3-2.6 4.6-2 .6.2.6.4 0 .7-1.2.7-2.7 2.8-2.7 3.8v.4l.8-.7c1.9-1.5 4.1-2.2 5.2-1.7l.4.2-1.1.4c-3 1-6.6 4.6-5.3 5.4.3.2 1.7.8 1.9.8 0 0-.2-.2-.4-.5-.9-1-.4-1.6.7-.8l.6.4-.2-.4c-.1-.2-.3-.5-.4-.6-.6-.9 0-1.1.7-.2l.5.6-.2-.7c-.4-1.5.1-2.2.6-.8.3.8.4.8.3 0-.1-1.2.3-1.7.8-1.2.2.2.2.4.1 1l-.1.7.4-.5c.2-.3.5-.7.6-1 .3-.7.5-.5.4.4-.1.8-.1.9.1.7.6-.5 1-.9 1-1.1 0-.2.1-.3.1-.4.2-.1.3.6.2 1-.1.2-.1.5-.1.5 0 .1.4-.1.9-.4 1.1-.6 1.4-.3.5.5-.6.5-.4.8.3.8.2 0 .5.1.6.2.3.1.4.1 1.1-.2 1.3-.7 2.7.5 2.7 2.2 0 .1.4.9.8 1.7.8 1.4 1.6 3.1 1.6 3.3 0 0-.2-.3-.4-.7-.7-1.3-1.6-2.5-2.3-3-.6-.4-.6-.5-.6-1.1 0-1.1-.5-.9-.7.2-.1.5 0 .5.9 1.5 2 2 3.4 5.4 4.1 9.8.3 1.9.4 1.9.6.1.6-5.1-.4-10.9-2.4-14.2l-.5-.8h-1.1c-1.2 0-1.9-.3-2.6-1-.2-.2-.5-.4-.7-.4-.3 0-.4-.1-.4-.5-.1-.5-.4-.8-.9-.8-.2 0-.3-.1-.4-.6-.2-.7-1.1-1.6-2.1-2.1-.3-.2-.6-.4-.7-.6-.3-1-1.5-1.8-2.7-1.8-.8 0-.8 0-1-.4-.3-.7-1.1-1-2.8-.9-1.3.1-1.5 0-1.9-.2-.7-.4-1.6-.7-2.7-.7-.6 0-1.5-.2-2-.3-3.5-.8-8-.3-15.5 1.6-9.4 2.4-12.7 2.7-16.9 1.6-6.5-1.7-9.2-6.3-9.2-15.3 0-1.5 0-2.9.1-3-.3-.6-.6-.3-1.4.7m2.6-.7c0 .3.1.4.4.6.2.1.4.3.4.3 0 .1.2.3.5.6s.6.7.7.9c.1.2.4.4.5.5.2.1.3.3.4.7.1.7.5 1.5.8 1.8.1.1.1 0-.1-.5-.2-.6-.3-1-.3-2.2v-1.5l-.2.5c-.1.3-.2.6-.2.7 0 .4-.7-.5-1-1.2-.2-.6-.3-.7-.4-.6-.1.2-.2.2-.5-.1-.2-.1-.4-.3-.5-.3s-.3-.1-.4-.3l-.2-.3v.4m-71.1.2c-.8.6-1.1 1.6-.5 1.4 1-.4 2.2.1 2.6 1.1l.2.4.3-.5c.7-1.7-1.2-3.5-2.6-2.4m80.2.7c-.4.4 0 1.3.6 1.3s.8-.7.3-1.2c-.3-.3-.7-.4-.9-.1m31.7 0c-.5.1-1.3.5-4.1 2.1-2.4 1.4-2.8 1.6-2.3 1.4 2.2-.8 2.7-.6 1.4.6l-1 .9 1.3-.8c1.9-1.3 3.6-2 3.6-1.5 0 .1-.6.7-1.2 1.4l-1.2 1.3.8-.5c1.9-1.3 3.9-2.2 5-2.2 1.6 0 3.1 2 3.1 3.9v1l.7-1.2c1.2-1.9 1.2-1.9.5-3.2-1.2-2-2.2-3.3-2.7-3.4-.6 0-3.4 0-3.9.2m-41 3v1.2l.8 1c.4.5 1 1.3 1.3 1.7 3.7 4.9 7.3 9.3 7.5 9.3.1 0 .5.1.9.1.4.1.7.1.6 0-.2-.3-10.7-14.1-10.9-14.4-.1-.1-.2.1-.2 1.1m-50.7 1c-1 .8-2.7 2.2-3.8 3.1-1.1.9-2 1.6-2 1.7 0 0 .5.4 1.1.8 1.9 1.1 3.2 2.7 3.6 4.4.2 1 .7-.5.5-1.7-.1-.8-.1-.9.4-1.3.6-.6 3.2-3 3.5-3.2.2-.1.2-.3-.4-1.9-.3-1-.7-2.1-.7-2.5-.2-1.1-.1-1.2-2.2.6m15.3-.9c-.4.4-.5 1.2 0 1.6.9.8 2.3-.2 1.8-1.3-.4-.7-1.2-.9-1.8-.3m135.1.6c1.6 1.9 5 5.4 13.5 13.7 14.1 13.9 17.6 17.6 16.3 16.8-.4-.2-3.6-2.8-6.4-5.2-3.8-3.2-4.2-3.5-1.3-.9 6.4 5.7 11.5 10.9 11.1 11.3-.1.1-4.9-3.7-10.2-8.1-3.7-3.1-3.6-3 1.2 1.4 4.1 3.8 6.7 6.5 6.5 6.7s-4-2.6-18.1-13.2c-4.8-3.6-5.1-3.8-5.1-3.7l1 .8c10 7.5 27.5 23.2 42.2 37.6 7.8 7.7 21 22.5 41.8 46.7 5.1 5.9 5.6 6.5 5 5.6-.1-.2-1.4-2.3-2.7-4.6-15.1-26.1-22.9-39-27.5-45.8-2.7-3.9-13.8-20.3-18.7-27.6-3.2-4.8-3-4.5-2.9-3.8.1 1-.5 1.2-1.5.5l-.6-.5 1.1 1.6c10.4 15.2 24.1 35.7 23.3 34.8-1.6-1.7-16.6-22.4-19.6-27.2s-13.2-15.1-23.8-24.2c-5.7-4.9-6-5-13.4-6.7-6.4-1.4-5.7-1.1-9.5-4.8-2.2-2-2.7-2.4-1.7-1.2m-68.2 1.7c-.5.3-.9.6-.9.6s.5.7 1.1 1.5c1.3 1.7 1.9 2.9 2.2 3.9l.2.7h.7c1.3.1 4.1-.1 3.3-.3-3.6-.6-4.1-1.7-1.9-3.9.4-.4.7-.7.5-.7-.4.2-2.2.8-2.6.9-.5.2-.4-.5.2-1l.5-.5-.9.4c-1.2.5-1.5.3-.7-.6.5-.5.5-.5-.3-.3-.9.3-1 .2-.5-.8.2-.5.2-.5-.9.1m-38.7 1.5c0 .2.1.9.1 1.4.6 7.7 9.2 16.4 16.6 16.8 2.1.1 9.6-1 13.6-2.1 4.7-1.2 14.1-1.7 15.1-.8.2.2.5.3 1.2.3.8 0 1 0 1.4.4.3.2.7.5 1 .5.3.1.5.2.5.4 0 .4.8 1.2 1.3 1.3.3.1.4.2.5.4 0 .2.2.5.4.8.3.4.3.4.1.8-.4 1-.2 2 .6 2.8.5.4.5.6.3 1.4-.2.6-.8 1.2-.9.9-.1-.2 0-.5.3-1 .4-.5 0-.5-.8 0-.7.5-1 1-.9 1.6.1.5.6 1.2.7 1 0-.1.3-.2.6-.3l.5-.2.4.7c.2.4 1.7 1.9 3.2 3.4 2.5 2.5 2.7 2.7 1.9 2.3-2.5-1.4-4.2-2.6-4.6-3.4-.1-.2-.3-.4-.3-.4-.1.1.9 1.5 1.7 2.3 2.1 2.1 5.5 3.5 9.2 3.9l1.1.1-.4-.3c-6.3-4.5-9.6-8.5-10.1-11.9-.1-.6-.1-.7-.5-.8-1.2-.3-1.3-1.7-.1-2.4.3-.2.3-.2.1-.6-.2-.5-.2-1.8.1-2.2.1-.2.1-.2-.1-.2s-1 .7-1.2 1.1c-.1.3-.6-.2-.9-1-.3-.8-.3-1.4-.1-2 .2-.6-1-.4-1.6.3l-.3.3-.5-.6c-.5-.6-.9-1.7-.8-2.1 0-.1 0-.2-.1-.2-.2 0-.7.8-.7 1.3 0 .2 0 .4-.1.4-.3 0-1-.6-1.5-1.2-.7-.8-.8-.8-.8-.2v.5h-2.3c-4-.1-6.8.3-15.9 1.9-11.5 2.1-13.5 1.8-19-2.8-4.1-3.4-7.8-9.4-7.8-12.8 0-.2-.1-.4-.1-.4-.2.2-.2.4-.1.6m32.6-.1c-1.6.4-3.8 1.9-4.1 2.7-.1.2 0 .2.5-.2 2.7-2.3 7.6-.3 7.6 3.1 0 .5 0 .5.5.5h.5l-.1-1a4.9 4.9 0 0 0-1.1-2.8l-.5-.6.6.3c1 .5 1.6 1.6 1.9 3.2.2.8.5 1.2.5.5.2-3.7-2.9-6.4-6.3-5.7m-112.2.8c-5.3 1.9-5.7 12.6-.7 18.8 1.2 1.5 1.3 1.3.4-.5-1.2-2.2-1.8-4.4-.8-2.7 1.5 2.5 3.1 3.8 5.2 4.2 1 .2 1.1.1.4-.3-3.4-1.8-4.8-4.3-4.9-8.6-.2-6 2-9.9 4.9-8.9 1 .3 1 .3.5-.5-.7-1.3-3.2-2.1-5-1.5m71.3.8c-.4.4-.5 1.1-.5 4.4-.1 3.1-.2 4.3-.4 3.2-.1-.7-.3-4.1-.4-5.4 0-.6-.1-1.1-.1-1.1-.1 0-.1 2.6-.1 7.5v7.5l1-1.2c.5-.7 1-1.3 1.1-1.3s.1-2.1.1-4.7c0-2.5.1-5.6.1-6.8.1-1.8.1-2.2-.1-2.3-.3 0-.4 0-.7.2m16.3.7c0 .1 1.8 3.1 2.6 4.6.3.5.8 1.1 1 1.2.8.5 1.8 1 1.9.9.1-.1-1-1.4-2.1-2.8-.2-.3-1.1-1.3-1.9-2.2-1.3-1.7-1.5-1.9-1.5-1.7M97 251.2c-2.4 1-3.4 6-2.2 10.7 2.3 8.8 10.2 3.7 8.2-5.3-.9-4-3.6-6.5-6-5.4m37.4.3c-.3.6-2.6 2.9-4 4-.6.4-1 .8-1 .9s0 .1 1.1-.6c3-2 4.3-2.8 4.4-2.8.1 0 0-1.8-.2-2-.1 0-.2.2-.3.5m70.7.4c-.6.6-.1 1.8.8 1.8s1.4-1 .8-1.7c-.4-.4-1.2-.5-1.6-.1m-84.1 1.9c-1.3 1-3.3 2.5-4.5 3.4-1.2.9-3.2 2.4-4.5 3.4s-3.6 2.7-5.1 3.9l-2.7 2.1-.3 1.1c-.3 1.1-.5 2.5-.4 2.5l.4-.6c.4-.8 3.8-4.3 5.8-6 .9-.8 2-1.8 2.6-2.3a292 292 0 0 1 10.9-9.1c.2-.1.3-.2.2-.2 0 .1-1.2.9-2.4 1.8m40.1 5.7c-.2 4.1-.6 9.1-.7 11l-.2 3.6-.4.9c-.7 1.5-.7 2 .1 2.9s1.4 1.1 2.2.9l.5-.1-.6-.6c-1.1-1-1.6-2-1.1-2.7.1-.2.2-.5.2-.7 0-.5.5-2.7.7-3.4l.2-.5.3.4c.5.6.5.5.5-1.3-.1-2-.1-1.9-.5-1.4-.3.4-.4.4-.5.3-.2-.3-.2-8.7-.1-13.2.1-2 .1-3.6 0-3.6-.1.1-.3 3.4-.6 7.5m131.7-5.5c1 .6 3.2 2.3 5.6 4.5 3.2 2.9 9 8.8 8.1 8.3-3.1-1.8-13.2-10.7-14.2-12.6-.5-.6-.4-.7.5-.2m6 .2c.9.6 2.5 2.1 2.5 2.4 0 .5-1.5-.5-2.7-1.8-1.2-1.3-1.1-1.5.2-.6m-2.3.7c3.4 2.5 8.1 6.9 7.7 7.3-.4.4-5.9-4.2-8.3-7-1.2-1.5-1.1-1.6.6-.3M171.4 258c-.5.2-.6.5-.1.9.7.6.9 3.8.7 8.1-.1 2.1-.2 1.8-.5-1.2-.4-4.1-.5-4.9-.7-4.9s-1.3 1.3-3.1 3.9c-1.6 2.4-1.9 2.8-1 2 1.2-1.1 2.3-1.3 2.5-.4.4 1.8 1.2 9.8 1.9 20.4.3 4.4-.1 10.4-.9 13.4-1.7 6.1-5.6 2.2-6.1-6l-.1-1.3.5 1.6c1.2 4.1 1.9 5.1 3 4.5 1.3-.7 2.1-2.4 2.4-5.6.4-3.4 0-11.5-.7-16.8-.1-.8-.3-1.9-.4-2.5-.4-3.1-.5-3-.4.6.3 11.7-.1 16.3-1.5 16.3-1.5 0-2.8-3-3-7 0-.9-.1-1.7-.2-1.7s-.5 2.2-.8 4.9c-1.2 8.8 2 20.5 5.4 20 2.2-.3 3.8-5 4.4-12.9.4-5.4.5-7.7.5-17.9v-10.1c0 .3.1 1.1.2 1.9.3 3.6.5 8.4.6 14.3.1 7.9 0 9.8-.8 17.9-.2 1.5.1.8.6-2.1.5-2.7.9-5.6 1.2-10 .2-3 .2-14.5-.1-18.5-.2-3.6-.6-7.4-.8-8.8-.1-.5-.1-1.2-.1-1.5 0-.7-.4-1.3-.9-1.3-.2 0-.5-.1-.6-.2-.3-.3-.5-.3-1.1 0m-50.1 1.2c-.3.2-1.1.8-1.9 1.3-.7.5-1.5 1-1.6 1.1s-.8.6-1.5 1.1-2.3 1.6-3.7 2.6c-3 2.1-7.2 4.9-8.5 5.7-.9.5-1 .6-1.2 1.3s-.3 1.2-.1.9c.1-.1.6-.5 1.2-1 .6-.4 1.4-1 1.7-1.3.5-.4 5.5-4.2 8.2-6.1.3-.2 1.8-1.3 3.3-2.5 1.5-1.1 3.2-2.4 3.7-2.8l.9-.7c.1.1-.2.2-.5.4m47.7.9c-.9.8-5.6 7.4-5.6 7.8 0 .4 5.6-6.4 6.1-7.5.4-.7.2-.9-.5-.3m-15.7.8c-.6 1.5.7 4 2.3 4.3 1.2.3 1.5.2 1.4-.2 0-.2-.2-.8-.3-1.3-.2-1.3-.1-1.1-1.7-2.1-1.4-.9-1.6-1-1.7-.7m-15.1 1c-.4.1-1.2.3-1.7.3l-3.7.7c-1.5.3-3.4.7-4.2.9s-1.4.3-1.4.3.6.7 1.5 1.5c2.1 2 2.6 3.2 1.8 4.2-.3.3-.3.5-.2 1.8.1 1.7.1 1.6.8 1.4.3-.1 1.6-.5 2.8-.9 2.5-.8 2.6-.9.4-.5-1.9.3-2.3.3-2.3 0 0-.5 1.8-1.5 3.8-2.1 1.5-.4 1-.4-1.2-.1-.9.1-1.8.3-2.1.3s-.6.1-.7.2c-.5.3 0-1 .5-1.3.3-.1 4.7-1.1 5.1-1.1.1 0 .3.3.5.7.2.4.5.8.8 1.1l.4.4.4-.4.4-.4-.3-.9c-.4-1.2-.4-2.5 0-3.2.4-.6.5-.7.4-.1-.5 1.6.4 3.6 1.2 2.9l.4-.4-.2-.8c-.3-1.5.2-2.9 1.3-3.2.5-.1.1-.5-1.2-1-1-.5-2.2-.6-3.3-.3m13.2 1.2c-.2 1.6.5 3.1 2.4 4.4.9.7 1.2 1 1 1.6-.3.7-.1.7.5.1.7-.8.9-.6.8.5l-.1.7.6-.6c1.4-1.6 1.6-1.8 1.6-2.4 0-.6-.3-1.2-.5-.8-.6.9-1.3 1-3 .2-1.5-.7-2.9-2.5-2.9-3.8 0-.8-.3-.6-.4.1m24.7.1c.1.1 4.4 3 5.9 4 .4.2 3.1 2.1 4.2 2.8 1.6 1.1 3.9 2.8 3.9 2.9 0 .7-3.6-1-7.9-3.9-.9-.6-1.6-1-1.6-1s.2.2.5.4c1.4.9 7.1 5 8.4 5.9 1.8 1.4 2 1.8.7 1.7-.7 0-.7 0-.5.2.3.3 2.1 1.2 2.5 1.2.3 0 .3 0 .2-.7-.2-1 .3-2.7 1-3.8.2-.3.2-.3-.9-1-6.2-4-8.1-5.1-4.4-2.6 1.8 1.3 2.4 1.7 2.8 2.1l.4.4-.6-.3c-.3-.2-1.9-1.1-3.6-2.1-3-1.7-4.1-2.4-8.4-5-2.3-1.1-2.9-1.5-2.6-1.2m-30.1.2c-.2.1-.1.2.6.4 1.5.5 1.7 1.2.5 1.8-.8.4-.7.4 1.3.4 1.9 0 2-.1.9-.5-.7-.2-.8-.5-.4-.7.2-.1.2-.1-.1-.3-.6-.2-.4-.5.7-1 .2-.3-3-.3-3.5-.1m-2.8 1.2c-.8.8-.2 2.4.9 2.4 1.8 0 1.7-2.4 0-2.6-.5-.1-.6-.1-.9.2m29.9.8c0 .2-.1 0-.1-.4s0-.6.1-.4v.8m40.1-.6c-1.2.8-3.1 1.7-3.8 1.8l-.7.1.4-.4c.2-.2.6-.6.9-.8.8-.6.3-.5-.8.2-1.4.8-1.7.7-.6-.4.7-.7.6-.7-.6-.1-1.4.7-1.4.7-1.2 1.4.8 1.9-.2 3.6-3.1 5.3-1.7 1-1.7 1.1 0 .4.8-.3 1.5-.6 1.7-.7.5-.2.2.4-1 1.7-1.3 1.4-1.4 1.5-.4.8.4-.3 1.8-1.3 3.2-2.2 1.4-.9 2.6-1.7 2.7-1.8.1-.1.7-.3 1.2-.5 1.2-.4 2.2-1 3.9-2.5 2.9-2.5 3-2.7 1.1-1.6-1.7 1-4.7 2-5.1 1.7-.2-.2 2.3-2.3 3-2.6.2-.1.2-.1 0-.1-.1-.2-.5.1-.8.3m-96.7 1.9c-2.3 1.6-2.2 1.6-1.8 2.2 2.3 3 5.3 4.8 7.8 4.6 1-.1 1.6-.3 1.3-.4-.1 0-.7-.2-1.4-.4-1.2-.4-2.4-1.1-3-1.7-.4-.4-.4-.4.6-.1 7.5 2.6 12.5-1 6.4-4.7-1-.6-1.3-.7-1-.2 1.9 2.6-.5 4.3-4.3 3-2.6-.9-3.5-2-2.7-3.2.6-.8.3-.6-1.9.9m4.3-1.1c-1.5.4-1.5 1.8 0 2.4.6.3 4.3.4 4.1.2-.1-.1-.4-.1-.7-.1-2.1 0-3.9-1.3-3-2.2.3-.4.2-.4-.4-.3m192.4 1.6c3.1 2.6 12.8 12.4 14.5 14.5 6.9 9.1 24.7 36.2 30 45.6.6 1.1.4.9-2.4-1.7-6.9-6.5-20.9-21.7-26.5-28.6-2-2.5-3.9-5.3-3.7-5.3 1.3 0 8.6 7.5 21.1 21.6 2.9 3.3 3.1 3.5 2.6 2.7-1.7-2.8-5-6.7-13.8-16.1-4.5-4.8-7-7.6-6.9-7.7s3.9 3.2 8.2 7.3l2.4 2.2s-.6-1.1-1.3-2.3l-1.3-2.2-2.5-2.1c-7.8-6.7-12.5-11.1-11.8-11.1.6 0 5.4 3.9 10.7 8.6.7.7 1.3 1.1 1.2 1-1.2-2.1-2-2.9-4-4.7-6.1-5.2-11.6-10.3-12.1-11.3l-.2-.4.6.4c1.1.8 8.3 6.9 11.3 9.5.5.5.5.4-.6-1.1-.6-.8-1.4-1.5-3.4-3.2-6.4-5.3-10.9-9.5-10-9.5.5 0 4.3 2.9 7.9 6 1.1.9 2.1 1.8 2.2 1.9s-.9-1-2.3-2.5c-6.8-6.9-12-12.7-12-13.1-.3-.2.9.6 2.1 1.6m-113.3-1c-1.3.1-2.3 3.7-1.2 3.9.5.1 1.1.4 1.9.9.4.2.6.3.7.3.1-.1.5-.2.8-.4s.5-.3.4-.3c-.9-.6-1.2-3.2-.5-4.1.5-.4-.1-.5-2.1-.3m4 .3c-.6.4-.9.9-.7 1.2.1.2.1.2.2 0 .3-.6 1-.6 1.5-.1.4.4.4 1 0 1.5s-.3.7.3.3c.7-.4.9-.9.9-1.7 0-1.3-1.1-1.9-2.2-1.2m31.3 0c0 .1.2.2.4.3.4.2.9 1 .8 1.4 0 .3-.1.3-.6-.1-.6-.4-2-1.2-2.1-1.2s.3.3.7.7c.9.8 1.4 1.5 1.4 1.9 0 .2-.3 0-1.4-1-1.5-1.4-2.1-1.8-1.6-1.2 1.7 2.1 2.2 3 2.2 3.8 0 .4 0 .4-.9-.6-1.7-2-3.1-3-1.7-1.4.9 1.1 1.7 2.4 1.7 2.9 0 .6-.1.6-1.5-1.3-1.1-1.4-2-2.2-1.2-1.2.8 1.1 1.3 2.7 1.1 3.1-.2.3-.6-.3-1.7-2.5-.6-1.3-.7-1-.1.7.5 1.4.6 2.5.4 3.3-.1.4.7.4 1.1 0 .4-.4.6-.4.8-.1.3.4.8.2 1.1-.4.2-.6.3-.6.6-.5.7.2.8.2.8-.5.1-.7.2-.9.7-1 .3 0 .4-.1.4-.8 0-.8.1-.9.6-1.1.3-.1.3-.5 0-.7-.3-.2-.1-.7.2-.7.4-.1.4-.4.2-.8-.1-.1-.2-.3-.2-.5-.1-.2-2.2-.9-2.2-.5m-38.8.2c-.5.1-.5.2.1.8l.5.5.2-.7.2-.7h-.3c-.2 0-.5.1-.7.1m-48.9.6c-1.5.1-1.7.2-1.8.5-.3.5-.2.6.2.7.4 0 .4.1-.1.1s-.6.1-1 .6c-.6.8-.6.9 1 .6.8-.1 1.7-.3 2.2-.4.4-.1 1.4-.2 2.2-.4l1.4-.2-.5-.8-.5-.8h-.7c-.4 0-1.5 0-2.4.1m46.5-.1c0 .1 2.5 3.1 2.6 3.1.7-.7-.9-3.2-2-3.2-.3 0-.6.1-.6.1m-51.9 1.5c-.4.6-1 1.3-1.3 1.7l-.5.7.4.4.4.4.6-.9c.3-.5.9-1.4 1.3-2 .7-1 .7-1.1.5-1.2-.4-.3-.6-.1-1.4.9m85.6.4c-.2.6.4 1.1 1 .7.6-.3.8-.6.4-.6-.2 0-.5-.1-.7-.2-.5-.2-.6-.2-.7.1m-115 .7c-.7.7-.7.6.4 2 2.1 2.8 4.5 4.3 6.2 4.1.7-.1.7-.3.1-.3-.5 0-1.9-.7-2.6-1.3l-.6-.5.6.2c1.5.5 1.5.5.4-.5-1.8-1.6-3.5-3.6-3.5-4.1.1-.3-.4-.1-1 .4m39.4.2c-.2.2-.3 1.2-.2 1.6.2.7 1.8 1.4 3.3 1.4 1.2 0 1.3-.1 1.4-1l.1-.8-.8.1c-1 .1-2.1-.3-2.8-1-.6-.5-.8-.6-1-.3m12 .9c.1 1.6.6 2.3 1.7 2.5.6.1 1-.2 1-.6 0-.3-.1-.3-.8-.4-.6-.1-1.2-.9-1.5-1.8-.3-1-.5-.8-.4.3m-17.2-.2c-3.2.4-3.6.5-3.6 1.1 0 0 1.5 0 3.3-.2s3.6-.3 3.9-.3c.6 0 .6 0 .7-.5l.1-.5h-.6c-.5.1-2.1.2-3.8.4m81.4-.1c0 .6.9.6 1.1.1.1-.3.1-.3-.5-.3-.5-.1-.6 0-.6.2m9.4 1c.1.4.2.9.3 1.1s.4.6.5 1c.3.7 1 2.9.7 2.5-.2-.3-.9-1-1-1s.1.3.3.7c.7 1.2 1.6 4.5 1.8 6.8.1 1.2.3 1 .6-.5.5-2 .6-3.8.5-5.7-.1-2.5-.4-3-1.4-3.2-.4-.1-.7-.4-1.4-1.2-1-1.4-1-1.4-.9-.5m-8.6-.3c-.4.3-.4.8.1.9.4.1.6-.3.6-.8-.1-.4-.3-.5-.7-.1m-118.4.1c-.2.1-.3.2-.3.2 0 .1 2.8 2.7 3.9 3.7.5.5-.2-.5-1.9-2.6-1.1-1.5-1.2-1.5-1.7-1.3m26.4 1c-.9.7-4.6 4.4-4.6 4.6 0 .1.4-.2.8-.6 2.5-2.4 4.7-3.6 5.7-3.3l.5.2-1.5 1.6c-1.9 1.9-4.2 4.5-4.2 4.7 0 .1.1.3.2.5l.2.3.5-.6c.8-1 3-3.2 3-3 .1.3-.9 1.9-2.1 3.4-.7.9-.7.9-.1 1 .4.1.5.1.6-.1.1-.1.6-.8 1.3-1.5 1.5-1.8 2.7-3.2 3-3.6.2-.2.5-.6.7-.9.5-.6.4-1-.3-2-1-1.5-2.4-1.7-3.7-.7m26 .6c0 2.5 2.1 3.9 2.8 1.9l.1-.4-.6.1c-.9.1-2-1.2-2-2.5 0-.1-.1-.3-.1-.3-.1 0-.2.5-.2 1.2m67-1c-.4 1-.2 1.8.3 1.8.2 0 .3-.1.2-.8 0-.8-.3-1.4-.5-1m-34.5.6c-.6.3-1.1 1-1.3 1.6-.2.7-.1 1.1.2.7.7-1.4 3.6-1.3 3.6.2 0 .7-.1.8-.6.6-.5-.3-.5-.2-.3.4.4.9.2 1.3-.3.7l-.3-.4.1.5c0 .3.1.7.2.9l.1.5-.5-.4c-.6-.4-.6-.3-.3.6.2.5.7 1.2.9 1.2.1 0 1.4-2 1.7-2.7.3-.7.4-.8 1.1-.8h.6l-.1-.8c-.4-2.4-2.8-3.8-4.8-2.8m-70.7 1.2l-.5.8-1.3.2-1.3.2-.7 1.2c-.7 1.1-.7 1.2-1.6 1.6l-.9.4-.2.7c-.3 1.1-.3 1.2 1 4.1.6 1.5 1.4 3.4 1.8 4.3 2 4.8 2.1 5.2 3.2 6.3 1.1 1.2 3 3 3.2 3 .1 0 .4.2.6.5.3.3.6.5.8.5s.6.5 1.4 2c.6 1.1 1.8 3 2.5 4.2s1.6 2.7 2 3.3c.3.5 1.2 2 2 3.2 1.7 2.8 3.4 5.2 3.8 5.6.4.4.4.4-1.2-2-1.8-2.7-3.3-5.4-5-8.8-.8-1.6-1.6-3.2-1.7-3.5-.5-.9-.4-.9.8.1 2.1 1.8 4.7 2.9 7.1 3 1 0 1.4 0 1.4-.1-.1-.1-.2-.1-.3-.1-3.4 0-10.8-5.4-11.2-8.1-.2-1.6 3-.9 6.8 1.4.7.4-.5-.6-1.5-1.3-2.4-1.6-4.9-2.2-6.4-1.4-.5.3-.8-.5-.3-.9.3-.3-.2-1.5-1-2.8-1.2-1.8-1.2-1.8-.9-.1.3 1.3.3 1.3-1 .7l-1.1-.5-.6-1.4c-1.9-4.4-4.2-10.5-4.1-11.2.1-.4.4.3 1.5 2.7 3 6.9 3.5 8 3.9 8.3.1 0 .2-.5.2-1.1.2-2.4.6-3.6 1.2-3.8.3-.1.3-.1.1-.3-.9-.6-1.6.4-1.9 2.7l-.1.9-.3-.7c-.2-.4-.5-1.2-.7-1.7s-.7-1.7-1.1-2.5-1-2.4-1.5-3.5c-.8-1.9-1-2.5-.7-2.9.4-.4.8.4 1.7 3 .7 2 .8 2 4.6 3.3l1.1.4 1 1.5c.5.8 1.2 1.9 1.5 2.3.7 1.2 2.2 3.4 2.3 3.5.1 0 .6-.1 1.2-.4 1.7-.6 1.6-.7 2.6 1 1.2 1.8 2.1 3.4 3.3 5.4.5.8 1.3 2.2 1.7 2.9 1.1 1.9 3.5 6.2 4 7 .4.8.6.9.3.1s-3.1-6.2-5.1-9.9c-5.4-9.9-5.1-9.3-4-8.6 1.8 1.1 4.8 5.6 8.9 13.4 3.5 6.5 3.9 8.6 2 10.2-2.8 2.3-4.3 4.9-4.1 7.4v1l-.4-.4c-.2-.2-.6-.7-.8-1.1-.5-.8-.8-1-.7-.6.2.5 1.4 2.9 1.8 3.6l.4.6 1.6-.1c2.1-.1 2.9-.3 2.5-.4-2.6-1-3.4-1.8-3.2-3.5.1-1.3 1.6-3.8 2.6-4.3l.5-.3.3.4c.2.2.9 1.5 1.6 2.8.7 1.5 1.2 2.4 1.3 2.2.3-2 .7-3.7.9-3.4.1.2.3 2.3.3 3.4 0 .5.1.9.1 1 .2.1.3-1.2.4-4.3l.1-2.5-.6-1.1c-.7-1.3-2.3-4.1-3.3-6-.4-.7-1.2-2.1-1.8-3.1s-1.4-2.5-1.9-3.3-1.1-1.9-1.4-2.5c-.9-1.7-3.1-5.5-3.8-6.7-.3-.6-1.2-2.1-1.9-3.3-2.9-5.1-2.7-4.8-4.2-5.7-.7-.4-1.5-.9-1.6-1-.2-.1-.7-1-1.2-1.9-1.2-2.2-1-2.1-2.6-1.9-.8.1-.8-.1.5 3 1.4 3.4 1.6 4.1 2.3 6 .6 1.8.5 1.8-1.3-1.1-1.2-2-1.8-3-3.7-6.3-1.2-2.1-1.3-2-.2.4 1 2.3 1.2 2.9 1.1 2.9s-2.8-.9-3.4-1.1-1.8-4.2-1.3-4.2c.3 0 .4.3 1.2 1.9.7 1.5.7 1.6 1.6 1.9l.4.1-.5-1.1c-1.4-3.3-1.5-3.6-.8-4.5.6-.8.6-.8 1.3.5.9 1.4.9 1.5.6.5-.5-1.7-.3-2 .7-.9l.6.6-.1-.7c-.2-.9-.1-.9.5-.1.6.9.7.9.2-.4-.2-.6-.4-1.1-.4-1.1s-.8-.1-1.8-.1h-1.8l.1.5m36.9 1.4c-.1 1.5-.1 1.7.2 2.1.8 1.4 2.7 1.3 3.2-.2.1-.4.1-.4-.2-.3-1.3.4-2.3-.2-2.5-1.4-.3-2.3-.5-2.4-.7-.2m38.4 1.8c.1.3 1.9 2.8 3 4.3 1.4 2 2 2.8 2.6 3.6.3.4 1 1.5 1.7 2.3s1.6 2.2 2.1 2.9c.5.7 2 2.9 3.4 4.8s3.1 4.3 3.8 5.3 1.7 2.5 2.3 3.2c4.1 5.7 4.2 6.2.7 2.7s-9.1-10.4-15.8-19.5c-1.3-1.8-2.7-3.6-3-4s-.9-1.3-1.4-1.9c-1.3-1.8-1.1-1.3.8 2.2l1.7 3.2-1.2-1.1c-.7-.6-1.2-1.1-1.3-1.2 0-.1-.4-.4-.8-.7-.9-.7-.7-.5 1.8 2.3 2.2 2.4 2.2 2.4 2.5 3.9.1.3-.4-.1-2.4-2.1-1.4-1.4-2.5-2.4-2.5-2.4s1.1 1.4 2.5 3c2.3 2.8 2.5 2.9 2.5 3.5v.6l-2.8-2.9c-1.6-1.6-2.8-2.9-2.9-2.9-.1 0 .2.4 2.6 3.4 3 3.7 2.9 3.4 2.6 3.9l-.2.3-3.5-3.6c-1.9-2-3.5-3.5-3.4-3.4.1.2 5.1 6 6.2 7.3l.3.3-.4.3c-.7.6-.9.5-2.2-.7-2.9-2.5-5-5.5-6.6-9.1l-.2-.5.7.5.7.5-.2-.4c-.5-1-.5-2 .1-1.6.5.5.6.4.3-.2-.4-.7-.4-1.6-.1-2.2.4-.8 0-.4-.8.7-.4.6-1.1 1.4-1.4 1.8l-.7.7.3.6c1.2 2.5 5 7.3 8.2 10.4 7.4 7.1 16.2 12.6 28 17.6.2.1-.5-.9-1.9-2.6-.9-1.1-2.6-3.2-4.9-6.3-1.1-1.4-3.1-4-4.3-5.7-2.6-3.4-12.1-16-12.7-16.8-1.7-1.8-4.1-4.9-3.8-4.3m-62.3 29.1c-.3.3-.4 1.3-.1 1.7.3.4 1.3.4 1.7-.1.7-1-.8-2.5-1.6-1.6m4.7 1.5c-.4.3-.4 1.1 0 1.5.8.8 1.9-.2 1.4-1.2-.3-.5-.9-.7-1.4-.3m-4.1 2.3c-.1.4 0 .8.3.9.3 0 .6-.3.5-.8-.1-.4-.7-.5-.8-.1m2.8-.1c-.7.3-.9 1.5-.3 1.9.4.3 1 .2 1.4 0 1.1-.8.2-2.4-1.1-1.9m2.8 1.5c-.4.2-.3 1 .1 1.2 1 .4 1.5-.7.6-1.2-.3-.2-.4-.2-.7 0m-2 3.1c-.2.2-.2.3-.1.6.2.3.6.3.8 0 .6-.5-.2-1.1-.7-.6m11.3 6.8c0 .1-.2.3-.5.5-.6.3-.6.3.2 1.4s2.6 3.8 5 7.4c1.1 1.7 2.1 3.2 2.2 3.3.1.2 1.6 2.3 3.2 4.8 7.3 11.2 8.6 13.2 8.7 13.2.1 0 .2.2-2-3.3-1-1.6-2.4-3.9-3.1-5-.7-1.1-1.8-3-2.5-4.1-.7-1.2-2-3.3-2.9-4.7-1.8-3-2.9-4.7-3.7-6.1-.3-.6-1.2-2-1.9-3.1s-1.5-2.6-1.8-3.2c-.7-1.3-.9-1.5-.9-1.1"/></svg>