<?xml version="1.0" encoding="utf-8"?>
<!-- Generator: Adobe Illustrator 22.1.0, SVG Export Plug-In . SVG Version: 6.00 Build 0)  -->
<svg version="1.1" id="Layer_1" xmlns="http://www.w3.org/2000/svg" xmlns:xlink="http://www.w3.org/1999/xlink" x="0px" y="0px"
	 viewBox="0 0 500 500" style="enable-background:new 0 0 500 500;" xml:space="preserve">
<style type="text/css">
	.st0{fill:#231F20;}
</style>
<g>
	<g>
		<g>
			<g>
				<g>
					<path class="st0" d="M386.9,235.9l-0.2,0.1C386.8,236,386.9,236,386.9,235.9z"/>
					<path class="st0" d="M409.9,210.3L409.9,210.3C409.9,210.3,409.9,210.3,409.9,210.3z"/>
					<path class="st0" d="M407.9,201.7l0.1-0.2C407.9,201.6,407.9,201.7,407.9,201.7z"/>
					<g>
						<path class="st0" d="M401.8,213.3c-3.3,4.9-7.1,9.4-11.4,13.5c-4.3,4.3-9.2,8-14.7,11c-5.8,3.2-12.1,5.5-18.4,7.5
							c-6.4,2-12.9,3-19.6,3.5c-6.4,0.4-12.9,0.7-19.3-0.2c-1.7-0.3-3.4-0.6-5.1-1c-0.4-0.1-1.7-0.2-2.9-0.4c-1.3-0.2-2.5-0.4-3-0.4
							c-0.4,0,2,0.9,2.6,1.1c1.1,0.4,2.5,0.8,3.8,1.2c1.4,0.4,2.7,0.7,3.6,0.9c1.8,0.4,3.2,0.6,4.5,0.8c1.4,0.1,2.8,0.3,4.7,0.4
							c7.9,0.4,15.6-0.1,23.4-1.1c6.3-0.8,12.7-2.9,18.8-5.2c6.5-2.5,13-5.4,18.8-9.6c3.1-2.2,6-4.6,8.9-7.1
							c2.8-2.6,5.4-5.4,7.7-8.5c2.2-3.1,4.2-6.3,5.9-9.7c0.4-0.8,0.8-1.7,1.2-2.6c0.4-0.9,0.8-1.7,1.1-2.6l1-2.6l0.8-2.7
							c0.3-1.1,0.7-2.1,0.9-3.2l0.7-3.2c0.5-2.1,0.8-4.3,1.1-6.5c0.2-1.4,0.3-2.7,0.4-4.1c0.1-1.4,0.2-2.8,0.2-4.1
							c-0.1-2.8,0-5.5-0.4-8.3c-0.2-2.8-0.7-5.5-1.2-8.2c-0.2-1.4-0.6-2.7-0.9-4c-0.3-1.3-0.6-2.7-1.1-4c-0.4-1.2-0.8-2.4-1.2-3.6
							l-0.3-0.9l-0.3-0.9l-0.7-1.7c-0.5-1.1-0.9-2.3-1.4-3.4l-1.6-3.3l-0.8-1.7c-0.3-0.5-0.6-1.1-1-1.6c-0.7-1.1-1.3-2.1-2-3.2
							c-0.3-0.5-0.7-1-1.1-1.5l-1.1-1.5c-0.8-1-1.5-2-2.4-2.9c-3.6-4-9.1-8.9-13.4-10.4c-1-0.4-1.6-0.2-1.8,0.2
							c0.4-0.6,4.2,4,4.4,4.3c0.8,1,1.7,2,2.5,2.9l1.3,1.4c0.4,0.5,0.8,1,1.2,1.5c0.7,1,1.4,2,2.2,3c0.4,0.5,0.7,1,1,1.5l0.9,1.5
							c0.3,0.5,0.6,1,0.9,1.5c0.3,0.5,0.6,1,0.9,1.6c0.6,1.1,1.2,2.2,1.8,3.3c2.6,4.8,4.9,9.7,6.4,14.8l0.6,1.9l0.5,2
							c0.3,1.3,0.7,2.6,1,3.9c0.4,2.7,1,5.3,1.2,8c0.5,4.6,0.4,9.2,0.1,13.8c-0.6,4.6-1.2,9.2-2.7,13.5
							C407.4,203.4,404.9,208.6,401.8,213.3z"/>
					</g>
				</g>
			</g>
		</g>
	</g>
	<g>
		<g>
			<g>
				<g>
					<path class="st0" d="M274.2,89l-1.1,0.8C273.6,89.4,273.9,89.2,274.2,89z"/>
					<path class="st0" d="M444.6,101.6l-0.4-0.2C444.5,101.6,444.6,101.6,444.6,101.6z"/>
					<path class="st0" d="M476.8,131.8l0.4,1.2C477,132.4,476.9,132.1,476.8,131.8z"/>
					<g>
						<path class="st0" d="M424.3,64.6c-16.8-10.1-36-16-55.3-17.6c-19.4-1.6-38.9,1.2-56.8,7.5c-18.5,6.4-35.5,16.3-50.4,28.8
							c-3.7,3.2-7.3,6.4-10.7,10c-1.7,1.7-3.3,3.6-5,5.4c-0.8,0.9-1.6,1.9-2.4,2.8c-0.8,0.9-1.6,1.9-2.3,2.9l-2.2,2.9
							c-0.7,1-1.4,2-2.1,3l-1.1,1.5c-0.3,0.5-0.7,1-1,1.6l-2,3.2l-1.8,3.3l-0.9,1.6l-0.8,1.7c-0.5,1.1-1.1,2.3-1.6,3.4l-1.4,3.5
							c-0.5,1.2-0.9,2.5-1.3,3.8c-0.4,1.3-0.9,2.6-1.2,3.8c-0.7,2.5-1.4,5-2,7.5c-1.2,5-2.2,10.1-3,15.1
							c-1.5,10.2-2.3,20.4-2.1,30.7c0.2,10.4,1.6,20.2,1.8,30c0.3,9.7-0.5,19.2-4,27.7c-1.7,4.3-4.2,8.2-7.1,12
							c-2.9,3.7-6.3,7.2-9.8,10.7c-7.1,6.8-14.4,13.6-21.8,20.2c-14.7,13.3-29.9,26.1-45.6,38.5c-15.2,12-30.6,23.7-46.5,34.7
							c-15.9,11-32.2,21.3-49.3,30.4c-2.2,1.2-4.8,2.5-7.1,4.3c-1.2,0.9-2.4,2-3.4,3.3c-1,1.3-2,2.9-2.4,4.7
							c-0.5,1.8-0.5,3.7-0.2,5.5c0.3,1.8,1,3.3,1.7,4.7c1.5,2.8,3.5,5,5.3,6.9c0.9,1,2.9,2.8,5.4,5c2.6,2.1,5.8,4.5,9.1,6.7
							c6.6,4.3,13.5,7.9,15.7,9c1,0.5-1.6-1.3-4.9-3.7c-3.3-2.3-7.2-5.2-8.9-6.6c-2.7-2.1-5.8-4.7-8.7-7.5c-1.5-1.4-2.9-2.9-4.4-4.5
							c-1.4-1.6-2.8-3.1-4-4.9c-1.2-1.7-2.1-3.6-2.5-5.5c-0.4-1.9-0.1-3.8,0.7-5.4c0.8-1.6,2-2.8,3.2-3.8c1.2-1,2.5-1.7,3.7-2.4
							c4.9-2.5,9.1-4.7,13-6.8c3.9-2.1,7.4-4.1,11-6c3.5-2,7-4.1,10.9-6.4c3.8-2.3,8-4.9,12.7-8c19.6-12.7,38.3-26.2,56.3-40.3
							c18.1-14.1,35.6-28.8,53.1-43.9c3.5-3.1,7-6.2,10.5-9.3c3.5-3.2,7-6.5,10.4-10.1c3.4-3.6,6.5-7.7,9.2-12.1
							c2.6-4.5,4.6-9.5,5.9-14.5c1.3-5,1.9-10.1,2.1-15.1c0.2-5,0-10-0.2-14.8c-0.3-4.8-0.6-9.5-0.9-14.3c-0.3-4.6-0.4-9.2-0.2-13.8
							c0.3-9.9,1.5-19.7,3.5-29.4c1-4.8,2.2-9.6,3.6-14.3c0.3-1.2,0.7-2.4,1.1-3.4c0.4-1.1,0.8-2.2,1.2-3.3c0.9-2.2,1.8-4.4,2.9-6.4
							c1-2.1,2.3-4.2,3.4-6.2c1.3-2,2.6-4,4-5.9c1.4-2,2.9-3.8,4.4-5.7c0.8-0.9,1.6-1.8,2.4-2.7l1.2-1.4l1.3-1.3
							c6.7-7,14.2-13.3,22.3-18.9c8.6-5.9,17.8-10.9,27.5-14.9c9.7-3.9,19.7-6.8,29.9-8.4c5.1-0.8,10.3-1.3,15.4-1.5
							c5.2-0.2,10.3-0.1,15.4,0.4c10.3,0.8,20.4,3,30.1,6.4c9.6,3.3,18.6,7.9,26.9,13.7c8.2,5.8,15.6,12.8,22,20.6
							c12.7,15.8,20.8,35.1,22.7,55.3c1.1,11.7,0.2,23.6-2.9,34.9c-3.1,11.3-8.4,22-15.2,31.6c-8.7,12.2-19.7,22.8-32,31.5
							c-12.3,8.7-26.1,15.3-40.5,19.9c-14.4,4.6-29.6,7-44.7,7.1c-7.6,0.1-15.1-0.4-22.6-1.5c-1.9-0.3-3.8-0.6-5.4-0.9
							c-1.7-0.4-3.4-0.8-5.3-1.4c-3.7-1.1-7.7-2.4-12.3-3.1c-8.2-1.2-16.3-0.6-24,1.2c-7.7,1.8-14.8,4.8-21.5,8.2
							c-13.3,6.9-25,15.7-36.3,24l-4.2,3.1l-4.3,3.1l-8.7,6.2c-5.8,4.2-11.5,8.5-17.2,12.8c-11.4,8.7-22.6,17.9-33.4,27.7
							c-5.7,5.2-11.9,10.9-18,17.1c-6.1,6.2-12.3,12.7-18,19.3c-11.6,13.2-21.7,26.7-28.5,37.8c-3.3,5.4-3.4,7.7-2.5,8.4
							c-0.7-0.6,4.8-6.9,10.9-13.2c6-6.3,12.7-12.4,13.5-13.3c10.4-10.4,21.7-22,33.3-32.2c11.2-9.9,22.4-18.6,33.9-27.1
							c11.5-8.6,23.4-17,36.3-26.3l10.2-7.2c3.5-2.5,6.8-5,10.2-7.4c6.7-4.9,13.3-9.7,20.1-14c6.8-4.3,13.7-8,20.8-10.6
							c7.1-2.6,14.3-3.9,21.4-3.5c0.9,0,1.8,0.2,2.6,0.2c0.4,0,0.8,0.1,1.2,0.2l1.3,0.2c1.7,0.3,3.5,0.8,5.4,1.4
							c1.9,0.5,3.9,1.2,6.1,1.8c1.1,0.3,2.2,0.6,3.3,0.8c0.6,0.1,1.2,0.3,1.8,0.4l1.7,0.3c8.6,1.5,17.4,2.2,26.1,2.3
							c17.5,0.1,35-2.5,51.7-7.9c14.2-4.5,27.8-10.9,40.3-19.2c6.2-4.1,12.2-8.7,17.8-13.7c5.6-5,10.8-10.4,15.6-16.2
							c4.7-5.8,9.1-12.1,12.8-18.7c3.7-6.6,6.8-13.6,9.1-20.9c2.3-7.3,3.8-14.8,4.5-22.4c0.7-7.6,0.7-15.2-0.1-22.8
							c-1.8-18.1-8-36.1-17.9-51.8C454.1,88,440.5,74.3,424.3,64.6z"/>
					</g>
				</g>
			</g>
		</g>
		<g>
			<g>
				<g>
					<path class="st0" d="M439.3,161.8l0.1,0.6C439.4,162.1,439.4,161.9,439.3,161.8z"/>
					<path class="st0" d="M390.8,91.2l0.2,0C390.8,91.1,390.8,91.2,390.8,91.2z"/>
					<path class="st0" d="M370.6,95.6l-0.5-0.1C370.4,95.5,370.5,95.5,370.6,95.6z"/>
					<g>
						<path class="st0" d="M399.2,109.3c5.7,4.4,10.6,9.7,14.9,15.5c4.2,5.8,7.8,12.2,10.5,19c2.9,6.9,4.8,14.3,5.9,21.8
							c1,7.5,1.1,15.3-0.2,22.9c-0.7,4-1.6,8-2.9,11.9l-0.5,1.4l-0.5,1.4l-1.1,2.8l-1.3,2.8c-0.2,0.5-0.4,0.9-0.6,1.4l-0.7,1.3
							c-1.8,3.6-4.1,7-6.4,10.3c-1.3,1.6-2.5,3.2-3.8,4.8c-0.7,0.8-1.3,1.6-2,2.3l-2.1,2.2c-2.9,2.9-6,5.7-9.4,8.1
							c-1.6,1.3-3.4,2.4-5.1,3.5c-0.9,0.6-1.8,1.1-2.6,1.6c-0.9,0.5-1.8,1.1-2.7,1.5l-2.7,1.5c-0.9,0.5-1.9,0.9-2.8,1.3
							c-1.8,0.9-3.8,1.7-5.7,2.5c-3.9,1.5-7.8,2.9-11.8,4c-7.8,2.2-15.7,3.8-23.7,4.7c-8,0.9-16.2,0.8-24.2-0.3
							c-4.3-0.7-8.5-1.5-12.6-2.7c-1-0.2-4.1-0.9-7.2-1.8c-3.1-0.8-6.2-1.8-7.3-2c-0.9-0.2,4.8,2.7,6.4,3.4c5.2,2.6,13.8,5.2,18.4,6
							c1.1,0.2,2.2,0.4,3.3,0.6c1,0.2,2,0.3,2.9,0.5c1.9,0.2,3.6,0.4,5.3,0.6c3.5,0.2,7,0.4,11.8,0.2c5-0.2,10-0.7,14.8-1.5
							c4.9-0.8,9.7-1.8,14.5-3.1c9.5-2.6,18.8-6.3,27.6-11.1c7.2-3.9,13.9-9.1,19.8-15.1c5.8-6.1,10.8-13.1,14.7-20.6
							c8.4-16.2,11.3-35,8.6-53.1c-1.4-9.6-4.1-19.1-8.1-28c-4.1-8.9-9.6-17.2-16.6-24.2c-3.4-3.4-7.2-6.6-11.2-9.4
							c-2-1.4-4.1-2.6-6.2-3.9c-2.2-1.1-4.3-2.3-6.5-3.3c-8.9-4.1-18.5-6.4-28.2-7.1c-11.3-0.9-22.6,0.3-33.4,3
							c-6.8,1.7-13.5,4-19.9,6.8c-1.6,0.7-3.2,1.5-4.8,2.3c-0.8,0.4-1.6,0.8-2.4,1.3c-0.8,0.5-1.6,0.9-2.3,1.4
							c-3,1.9-5.9,3.9-8.7,6.1c-11.1,8.6-20.8,19.2-28,31.5c-6.5,11-11.1,23.1-13.1,35.7c-0.3,1.6-0.4,3.2-0.6,4.7
							c-0.2,1.6-0.4,3.2-0.5,4.8l-0.2,4.8c0,0.8-0.1,1.6,0,2.4l0.1,2.4c0.1,1.6,0.1,3.2,0.3,4.8c0.2,1.6,0.4,3.2,0.6,4.8
							c0.2,1.6,0.5,3.2,0.8,4.8c0.3,1.6,0.6,3.2,1.1,4.7c1.6,6.7,4.4,14.3,8.1,21.1c3.7,6.8,8.2,12.8,12.5,16.6
							c2.1,1.9,3.4,1.8,4.1,1.3c-0.5,0.4-2.6-2.6-4.2-6c-1.7-3.4-2.9-7.1-3.1-7.5c-2.4-5.8-5-12.1-6.6-18.4
							c-1.5-6.1-2.2-11.9-2.6-17.8c0-1.5-0.1-2.9-0.1-4.4c0-1.5,0.1-3,0.1-4.5c0-0.8,0-1.5,0-2.3c0-0.8,0.1-1.5,0.2-2.3
							c0.1-1.5,0.2-3.1,0.3-4.7c1.2-13.4,5-26.4,11.6-37.9c6.5-11.6,15.6-21.8,26.3-30c2.3-1.7,4.6-3.4,7-4.9
							c1.2-0.8,2.4-1.5,3.6-2.1c1.2-0.6,2.5-1.3,3.8-1.9c5.2-2.4,10.6-4.5,16.1-6.1c11-3.2,22.6-4.8,33.8-3.8
							c3.4,0.3,6.7,0.8,10,1.6c1.7,0.3,3.3,0.9,4.9,1.3c0.8,0.3,1.6,0.6,2.4,0.8c0.8,0.3,1.6,0.5,2.4,0.9
							C387.8,101.5,393.8,105,399.2,109.3z"/>
					</g>
				</g>
			</g>
		</g>
	</g>
</g>
</svg>
