<?xml version="1.0" encoding="utf-8"?>
<!-- Generator: Adobe Illustrator 22.1.0, SVG Export Plug-In . SVG Version: 6.00 Build 0)  -->
<svg version="1.1" id="Layer_1" xmlns="http://www.w3.org/2000/svg" xmlns:xlink="http://www.w3.org/1999/xlink" x="0px" y="0px"
	 viewBox="0 0 500 500" style="enable-background:new 0 0 500 500;" xml:space="preserve">
<style type="text/css">
	.st0{fill:#231F20;}
</style>
<g>
	<g>
		<g>
			<g>
				<path class="st0" d="M298.3,363.8l0.5,0.1C298.5,363.8,298.4,363.7,298.3,363.8z"/>
				<path class="st0" d="M231.7,359.4l0.1-0.4C231.7,359.2,231.7,359.3,231.7,359.4z"/>
				<path class="st0" d="M221.6,395.6l-0.3,0.1C221.4,395.7,221.5,395.7,221.6,395.6z"/>
				<g>
					<path class="st0" d="M245.5,395.8c10.7,0.1,21.4-0.2,32.3-0.9c11.2-0.8,22.8-1.9,34.1,0.6c11.9,2.7,23.2,6.7,35,10.1
						c11.9,3.5,22.6,9.1,33.1,15.6c5.1,3.1,10.5,5.7,15.7,8.5c5.3,2.8,10.4,6,14.7,10.1c2.3,2.2,4.4,4.6,6.6,6.9
						c0.5,0.6,2.6,1.7,4.8,2.7c2.2,1,4.5,2,5.4,2.2c0.8,0.1-1-4.7-1.6-6.1c-1.9-4.3-5.4-10.6-7.6-13.4c-4.5-5.6-6.8-8.2-12.4-12.7
						c-11.8-9.4-24.1-17.3-36.2-26.7c-2.5-1.9-5.1-3.5-7.9-5c-2.8-1.4-5.6-2.8-8.6-3.9c-2.9-1.2-5.9-2.4-8.8-3.4
						c-1.5-0.6-2.9-1.1-4.4-1.7c-1.5-0.6-2.9-1.2-4.3-1.8c-12.4-5.5-25.1-11.1-38.7-13.3c-1.8-0.3-3.6-0.6-5.4-0.9
						c-1.8-0.3-3.6-0.7-5.4-1c-3.6-0.6-7.2-1.4-10.9-1.9c-3.6-0.5-7.3-1.1-10.9-1.4c-1.8-0.2-3.7-0.3-5.5-0.4
						c-1.8-0.1-3.7-0.1-5.5-0.1c-14.5,0.1-28.9,1.8-43.3,3.8c-8.4,1.2-16.7,2.5-25,4.2c-10.5,2.1-20.8,5.1-30.8,8.8
						c-10,3.7-19.8,8-29.4,12.5c-8.7,4.1-17.5,7.8-26.1,12.1c-8.6,4.3-16.9,9.2-24.3,15.5c-3.9,3.4-8.6,7.3-12.4,11.9
						c-3.8,4.6-6.7,9.9-7.2,15.5c-0.2,2.7,1.6,5.5,3.6,7.6c-1.6-1.7,1.2-2.7,4.6-3.2c3.3-0.5,7.2-0.4,7.6-0.5
						c5.3-1,9.9-3.3,14.8-4.7c4.8-1.4,9.5-2.3,14.1-3.4c2.3-0.6,4.6-1.1,6.8-1.8c2.2-0.7,4.4-1.5,6.5-2.6c9-4.4,17.7-8.9,26.6-13
						c8.9-4.2,17.9-8.2,27.1-11.5c7.9-2.8,15.9-5.3,24-7.4c8.1-2.1,16.3-3.7,24.6-4.7C224.9,395.6,235.3,395.6,245.5,395.8z"/>
				</g>
			</g>
		</g>
	</g>
	<g>
		<g>
			<g>
				<path class="st0" d="M246.3,218.2l0-0.3C246.3,218,246.2,218.1,246.3,218.2z"/>
				<path class="st0" d="M246.3,255.3l-0.4-0.1C246,255.3,246.2,255.3,246.3,255.3z"/>
				<path class="st0" d="M281,265.6l0,0.2C281,265.7,281,265.6,281,265.6z"/>
				<g>
					<path class="st0" d="M283.4,248.7c0.3-3.8,0-7.7-0.4-11.5c-0.4-3.8-1.3-7.6-2.5-11.3c-0.6-1.9-1.3-3.8-2-5.7
						c-0.7-1.9-1.4-3.7-2.1-5.6c-1.5-3.7-2.6-7.5-3.3-11.3c-1.2-8.1-2.2-16.2-5-23.9c-2.8-7.8-4.2-15.6-5.9-23.6
						c-1.7-7.7-6.7-14.4-8-22.2c-0.3-2.1-0.5-4.2-0.8-6.4c-0.1-1.1-4-5.2-5.2-5.8c-0.6-0.3-1.8,3.4-2,4.4c-1,3.3-2.1,8-2.3,10.3
						c-0.2,4.6-0.4,6.7,0.4,11c1.5,8.9,2.9,17.6,1.5,26.9c-1.1,7.4,1.8,14.4,1.6,21.7c-0.2,7.8-1.8,15.7-1.1,23.3
						c0.8,8.2-1.2,16.3-0.9,24.4c0.1,4,0.3,8,0.4,12c0,4,0,8-0.3,12c-0.2,2.3-0.5,4.7-0.8,7c-0.3,2.3-0.8,4.6-1.2,6.9
						c-2.3,11.6-3.5,23.4-6.5,34.8c-0.3,1.3-0.7,2.6-1.2,3.8c-0.5,1.3-1,2.5-1.5,3.7c-0.5,1.2-1,2.4-1.6,3.7l-1.7,3.6l-1.6,3.6
						c-0.6,1.2-1.1,2.4-1.6,3.6c-0.9,2.5-1.8,4.9-2.4,7.6c-1.2,5.6-3.7,12.7,1.3,20.1c1.2,1.8,4.1,3.4,6.7,4.5
						c-2.2-0.9-0.4-1.9,2-2.8c2.4-0.8,5.5-1.5,5.8-1.7c3.6-1.7,5.9-4.3,8.8-6.6c5.5-4.4,11.9-8.1,14.9-14.1
						c6.2-12.6,9-26.2,11.5-39.9c2.1-11.6,3.3-23.4,4.5-35.2C281.8,263.3,283,256,283.4,248.7z"/>
				</g>
			</g>
		</g>
	</g>
	<g>
		<g>
			<g>
				<path class="st0" d="M120.9,65.2l-0.2,0.1C120.7,65.3,120.8,65.3,120.9,65.2z"/>
				<path class="st0" d="M156.6,63.2l-0.1,0.3C156.6,63.4,156.6,63.3,156.6,63.2z"/>
				<path class="st0" d="M168.5,32.6l0.3,0C168.6,32.5,168.5,32.5,168.5,32.6z"/>
				<g>
					<path class="st0" d="M150,29.7c-8.4-0.3-16.6,1.1-24.2,4c-7.8,3-14.9,7.4-22.4,9.5c-8,2.2-15.9,4.2-23.3,7.5
						c-7.4,3.3-15,5.1-22.4,6.3c-3.6,0.5-7,1.6-10.3,2.3c-3.3,0.7-6.6,0.8-9.2-0.4c-1.4-0.7-2.4-1.7-3.3-2.6
						c-0.2-0.2-1.2-0.3-2.3-0.5c-0.5-0.1-1.2-0.2-1.7-0.3c-0.5-0.1-1-0.2-1.3-0.2c-0.3,0-0.4,0.8-0.5,1.7c0,0.9,0.1,1.9,0.2,2.4
						c0.3,1.4,1,3.3,2.1,4.9c1,1.6,2.4,3,3.4,3.6c2.1,1.4,3.8,2.3,5.5,2.9c1.7,0.6,3.6,1,6,1.2c5.1,0.4,10,0.1,14.8-0.2
						c4.8-0.3,9.6-0.5,14.5-0.3c8,0.4,15.1-3.3,22.5-4.1c8.1-0.9,16.1-0.7,23.6-2.2c8-1.6,16.1-0.7,23.7-1.2
						c7.6-0.5,15.1-0.7,22.4,0.7c4.3,0.8,8.4,2,12.3,3.7l1.9,0.8l1.8,0.8c1.2,0.5,2.3,1.1,3.5,1.6c2.3,1.1,4.5,2.3,6.7,3.6
						c2.2,1.3,4.2,2.7,6.2,4.3c2,1.6,3.9,3.3,5.7,5.2c3.2,3.4,5.6,7.8,7.8,12.2c2.2,4.5,4.4,9.1,7.7,13.6c1.8,2.4,3.8,5.5,6.6,8.2
						c2.8,2.7,6.5,5.2,11.2,5.6c2.3,0.2,4.8-1.4,6.7-3.1c-1.6,1.4-2-0.8-1.7-3.3c0.3-2.5,1.3-5.2,1.3-5.5c0.5-3.8-0.1-7-0.2-10.5
						c-0.1-6.8,0.9-13.8-2.2-20.3c-3.2-6.7-7.5-13.2-12.9-19c-2.7-2.9-5.6-5.7-8.8-8.3c-3.1-2.6-6.5-5-9.9-7.1
						c-5.9-3.7-12.3-6.7-18.7-8.9c-6.3-2.2-12.7-3.9-19.1-5.2C166,31.5,158,30,150,29.7z"/>
				</g>
			</g>
		</g>
	</g>
	<g>
		<g>
			<g>
				<path class="st0" d="M83,153.9l-0.3-0.1C82.8,153.9,82.9,153.9,83,153.9z"/>
				<path class="st0" d="M122.7,172l-0.2,0.3C122.6,172.2,122.7,172.1,122.7,172z"/>
				<path class="st0" d="M139,143.6l0.2,0C139.2,143.6,139.1,143.6,139,143.6z"/>
				<g>
					<path class="st0" d="M125.5,138c-6.1-2.4-12.3-4.4-19.1-5.8c-6.9-1.5-14.5-2.6-20.6-6.5c-6.5-4.1-12.3-9-18.8-13.2
						c-6.6-4.3-11.7-10-16.4-16c-2.2-2.9-5-5.5-7.5-8.2c-2.5-2.7-4.8-5.6-6.1-9c-0.3-0.9-0.6-1.8-0.8-2.7L35.6,74
						c0-0.2-0.3-0.6-0.6-1c-0.2-0.2-0.4-0.4-0.6-0.7c-0.2-0.2-0.4-0.5-0.7-0.7c-1-1-1.9-1.9-2.4-2.2c-0.2-0.1-0.7,0.5-1.2,1.3
						c-0.5,0.8-0.8,1.8-1,2.3c-1,3-1.3,8-0.9,10.3c0.2,1.2,0.4,2.2,0.6,3.1c0.2,0.9,0.4,1.8,0.7,2.6c0.3,0.8,0.6,1.7,0.9,2.5
						c0.4,0.9,0.8,1.8,1.4,2.8c4.7,8.6,10.4,16.2,15.1,25.2c2,3.6,4.8,6.6,7.8,9.3l2.3,2l2.3,2c1.5,1.4,3,2.7,4.4,4.2
						c6.1,6.3,12.2,13.1,20,17.5c4.2,2.3,8.1,5,12.2,7.5l3.1,1.8c1.1,0.6,2.1,1.1,3.2,1.7c2.1,1.1,4.4,2.1,6.6,2.9
						c9,3.3,18.4,5.3,27.8,7.2c5.6,1.1,11.3,2,17.1,2.7c7.3,0.8,14.8,0.5,22.2-0.6c7.4-1.1,14.6-3,21.6-5.3c6.3-2.1,12.7-4,18.8-6.5
						c6.1-2.5,11.9-5.6,16.8-9.8c2.6-2.2,5.5-4.7,7.7-7.7c2.2-2.9,3.5-6.1,3.1-9.9c-0.3-1.8-1.4-4.5-2.6-6.8
						c0.5,0.9,0.3,1.3-0.2,1.4c-0.6,0.1-1.6-0.1-2.8-0.3c-2.4-0.5-5.2-1.2-5.5-1.2c-3.9-0.2-7.2,1-10.6,1.5
						c-6.7,0.9-13.2,0.1-18.5,2.1c-5.6,2.1-10.8,4.2-16.1,5.9c-5.3,1.7-10.6,3.2-16,3.9c-9.3,1.3-18.9,1.2-28.6-1
						C137.2,142.8,131.3,140.4,125.5,138z"/>
				</g>
			</g>
		</g>
	</g>
	<g>
		<g>
			<g>
				<path class="st0" d="M371.1,108.5l0.3-0.1C371.3,108.4,371.2,108.4,371.1,108.5z"/>
				<path class="st0" d="M327.7,120.2l-0.1-0.4C327.7,119.9,327.7,120.1,327.7,120.2z"/>
				<path class="st0" d="M333.5,152.5l-0.2,0.1C333.4,152.6,333.5,152.5,333.5,152.5z"/>
				<g>
					<path class="st0" d="M347.5,148c6.4-2,12.7-4.6,19.1-7.8c6.6-3.3,13.4-7.3,20.9-8.4c7.9-1.1,15.9-1.4,24-2.7
						c8.1-1.3,16.1-0.8,24.3,0c7.8,0.8,16-1.1,23.7,1c2,0.6,4,1.4,6,2.1c1,0.3,6.4-0.7,7.4-1.4c0.3-0.2-0.2-0.9-0.8-1.7
						c-0.7-0.8-1.5-1.6-1.9-2c-2.4-2.3-6.4-5.3-8.6-6.4c-4.4-2.1-6.4-3-11.1-4c-9.7-2-19.2-3.2-28.9-6.4c-7.9-2.5-16.4-0.8-24.5-1.5
						c-8.9-0.7-18-1.8-27-0.2c-2.4,0.4-4.8,0.8-7.2,1.1l-7.3,1c-2.4,0.4-4.9,0.8-7.3,1.3c-1.2,0.3-2.4,0.6-3.6,0.9
						c-1.2,0.3-2.4,0.7-3.6,1.1c-9.3,3.3-18.3,7.9-27.1,13c-1.3,0.7-2.6,1.5-3.8,2.2l-3.7,2.3l-3.7,2.4l-1.9,1.2l-1.8,1.3
						c-6.2,4.3-11.9,9.4-17,15.4c-5.1,5.9-9.5,12.6-13.1,19.7c-0.9,1.6-1.6,3.2-2.5,4.8c-0.8,1.6-1.6,3.2-2.4,4.9
						c-1.5,3.3-2.9,6.6-4.1,10c-2.3,6.8-3.7,14-3.3,21c0.2,3.7,0.5,7.9,1.6,11.7c1.1,3.7,3,6.9,6.3,8.1c0.4,0.2,0.9,0.4,1.4,0.4
						c0.5,0.1,1.1,0.2,1.7,0.4c1.2,0.3,2.6,0.7,3.8,1c-1-0.3-1.2-0.5-0.9-0.9c0.1-0.2,0.4-0.5,0.7-0.8c0.3-0.3,0.7-0.7,1.2-1.1
						c1.7-1.7,4-3.7,4.2-4c2.4-3.2,3.3-6.6,5-9.7c1.6-3,3.6-5.6,5.4-8.2c1.8-2.5,3.4-4.9,4.4-7.4c2-5.3,4-10.2,6.4-15
						c2.5-4.7,5.4-9.2,9-13.5c3.1-3.6,6.6-7,10.5-10.1c1-0.8,1.9-1.6,3-2.3l3.1-2.2c1-0.7,2.2-1.4,3.3-2.1c1.1-0.7,2.2-1.4,3.3-1.9
						C335.4,151.9,341.4,149.9,347.5,148z"/>
				</g>
			</g>
		</g>
	</g>
	<g>
		<g>
			<g>
				<path class="st0" d="M408.1,196.5l0.1-0.2C408.2,196.4,408.1,196.4,408.1,196.5z"/>
				<path class="st0" d="M382.3,218.4l-0.1-0.3C382.2,218.2,382.2,218.3,382.3,218.4z"/>
				<path class="st0" d="M392.2,249.6l-0.2,0.2C392.2,249.7,392.2,249.6,392.2,249.6z"/>
				<g>
					<path class="st0" d="M407.6,241.2c6.5-4.5,12-10.3,16.1-17c4.2-6.9,7-14.5,11.4-20.6c4.7-6.5,9.4-12.9,12.6-20.1
						c3.2-7.2,7.3-13.5,11.6-19.8c2-3,3.5-6.3,5-9.4c1.6-3.1,3.3-6.1,5.9-8c0.7-0.5,1.4-0.9,2.1-1.3c0.7-0.3,1.4-0.6,2-0.9
						c0.3-0.1,0.8-1.1,1.3-1.9c0.1-0.2,0.3-0.5,0.4-0.7c0.1-0.2,0.2-0.4,0.4-0.6c0.2-0.4,0.4-0.8,0.5-1.1c0.1-0.3-0.5-0.7-1.2-1.1
						c-0.4-0.2-0.8-0.4-1.2-0.5c-0.4-0.1-0.7-0.2-1-0.2c-1.4-0.3-3.3-0.3-5.1-0.1c-0.9,0.2-1.8,0.3-2.6,0.6c-0.8,0.2-1.4,0.5-2,0.8
						c-2.1,1-3.6,1.9-4.9,2.9c-1.4,1-2.6,2.1-4.1,3.8c-3.1,3.4-5.8,7-8.7,10.4c-2.9,3.4-5.9,6.6-9.4,9.5
						c-5.7,4.7-8.3,11.5-13.1,16.4c-5.3,5.3-11.3,9.7-16,15c-2.5,2.8-5.4,5.2-8.4,7.5l-2.2,1.7l-2.2,1.6c-0.7,0.5-1.5,1.1-2.2,1.7
						c-0.7,0.6-1.4,1.1-2.1,1.7c-1.4,1.2-2.8,2.3-4.2,3.5c-1.4,1.2-2.8,2.3-4.3,3.4c-1.4,1.1-2.9,2.1-4.4,3.1
						c-1.5,1.1-3,1.9-4.6,2.7c-3.6,1.9-7.4,3.4-11.3,4.6c-4.9,1.4-9.7,2.7-14.7,3.6c-5,0.9-10.1,1.5-15.3,1.4
						c-4.7-0.1-9.4-1.3-14-2.6c-4.7-1.3-9.4-2.7-14.7-3.1c-2.8-0.2-6.2-0.7-9.9-0.4c-3.7,0.3-7.8,1.5-11,4.7c-1.6,1.6-2.1,4.5-2.1,7
						c0-2.1,1.9-0.9,3.4,1c1.6,1.9,2.9,4.4,3.1,4.6c2.3,2.9,5,4.5,7.6,6.7c2.5,2.2,4.8,4.6,7.3,6.7c2.5,2.1,5.2,3.9,8.4,4.9
						c13.3,4,28.3,4.1,43,1.6c6.2-1.1,12.4-2.8,18.3-4.9c6-2.1,11.7-4.7,17.3-7.5c1.6-0.9,3.4-1.7,5-2.6c1.6-0.9,3.3-1.7,4.9-2.6
						C401.2,245.2,404.5,243.3,407.6,241.2z"/>
				</g>
			</g>
		</g>
	</g>
	<g>
		<g>
			<g>
				<path class="st0" d="M352,163.5l0.1-0.1C352,163.4,351.9,163.4,352,163.5z"/>
				<path class="st0" d="M336.5,179.4l-0.2-0.2C336.3,179.2,336.4,179.3,336.5,179.4z"/>
				<path class="st0" d="M355.7,200.4l0,0.1C355.7,200.5,355.7,200.4,355.7,200.4z"/>
				<g>
					<path class="st0" d="M361.7,195.1c2.4-2.5,3.9-5.2,4.9-8.5c1-3.4,1.7-7.4,4.3-9.5c0.6-0.6,1.3-1.1,2-1.5c0.7-0.5,1.4-1,2.1-1.4
						c0.7-0.5,1.4-1,2.1-1.5c0.7-0.5,1.4-1,2.1-1.6c2.8-2.4,6.3-3.3,9.9-3.9c1.7-0.3,3.4-1.2,5-1.9c0.4-0.2,0.8-0.4,1.3-0.5
						c0.4-0.1,0.9-0.3,1.3-0.4c0.9-0.2,1.8-0.3,2.7-0.2c1,0.1,2,0.5,3,0.8c0.5,0.1,2.8-1.8,3.2-2.7c0.2-0.4-1.4-2.1-1.8-2.6
						c-1.5-1.5-3.8-3.5-5-4c-2.4-1-3.5-1.5-5.9-1.6c-2.5,0-4.9,0-7.5,0.1c-2.5,0-5.1,0-8-0.4c-2.3-0.2-4.5,0.3-6.5,1.3
						c-1,0.5-2,0.9-3,1.4c-1,0.5-2,0.9-3.1,1.2c-4.6,1.4-9.8,2.9-13.4,6.2c-3.8,3.5-8.5,6-11.4,9.8c-2.9,3.7-5.1,7.6-7.8,10.9
						c-1.6,1.9-3.2,3.7-4.9,5.3c-4.2,4-7.5,8.3-11.8,11.5c-0.9,0.7-2,1.2-3.1,1.7c-1.1,0.4-2.3,0.8-3.4,1.1
						c-1.1,0.3-2.3,0.6-3.3,1.1c-1.1,0.4-2.1,0.9-3,1.7c-1,0.8-2.3,1.5-3.2,2.9c-1,1.4-1.8,3.3-1.8,6.5c0,1.6,0.7,4.1,1.4,6.2
						c-0.6-1.8,0.5-1.1,1.8,0c1.3,1.1,2.9,2.7,3.1,2.8c2.2,1.6,4.2,1.7,6.3,2.4c2.1,0.7,4.2,1.5,6.4,2c2.1,0.6,4.2,0.7,6,0.1
						c3.9-1.2,7.4-3.3,10.6-5.6c3.2-2.4,6.1-5.1,8.8-7.8c4.7-4.6,8.4-9.8,12.3-14.2C356.8,199.7,359.4,197.5,361.7,195.1z"/>
				</g>
			</g>
		</g>
	</g>
	<g>
		<g>
			<g>
				<path class="st0" d="M133.4,120.4l-0.2,0C133.3,120.4,133.4,120.5,133.4,120.4z"/>
				<path class="st0" d="M156.2,120.1l0,0.3C156.2,120.3,156.2,120.2,156.2,120.1z"/>
				<path class="st0" d="M159.6,91.7l0.1,0C159.7,91.7,159.7,91.7,159.6,91.7z"/>
				<g>
					<path class="st0" d="M150.4,90.9c-4.1,0-8,0.8-11.8,2.6c-1.9,0.9-3.9,2-5.9,2.8c-1,0.4-2,0.8-3,1.1c-1,0.3-2,0.4-2.9,0.5
						c-4.2,0.1-8.1-0.4-12.1-0.2c-4.1,0.3-7.7-1.1-10.9-2.9c-0.7-0.5-1.5-0.8-2.4-1.1l-0.6-0.2l-0.6-0.2L99,92.7
						c-0.4-0.2-0.8-0.3-1.2-0.5c-0.4-0.2-0.7-0.5-1.1-0.7c-0.7-0.5-1.4-1.1-1.7-2c-0.4-0.9-0.7-1.8-1-2.8c-0.1-0.2-0.7-0.6-1.6-0.8
						c-0.8-0.3-1.8-0.5-2.3-0.5c-0.5,0-1.2,2.2-1.3,2.9c-0.3,1-0.5,2.4-0.6,3.6c0,1.2,0,2.4,0.2,3.1c0.2,0.7,0.3,1.4,0.5,1.9
						c0.2,0.5,0.4,1,0.7,1.5c0.2,0.5,0.5,0.9,0.8,1.4c0.3,0.5,0.7,1,1.2,1.5c1,1,2.1,2.1,3.2,3c1.1,0.9,2.3,1.9,3.5,2.8
						c1.2,0.8,2.4,1.8,3.6,2.7c1.2,0.9,2.4,1.9,3.7,3c2,1.6,4.4,2.5,6.8,2.9c2.4,0.5,4.7,0.7,7,1.5c4.9,1.6,9.8,3.6,14.7,3.5
						c5.2-0.1,10.2,1.3,15.2,0.9c4.8-0.4,9.6-1.4,14.2-1.5c2.7-0.1,5.4-0.1,8,0.2c6.7,0.5,13.1,0.1,19,1.1c1.3,0.3,2.6,0.7,3.8,1.2
						c1.1,0.6,2.3,1.2,3.4,1.8c0.5,0.3,1,0.6,1.5,0.9c0.5,0.3,1.1,0.5,1.5,0.8c0.5,0.3,1,0.5,1.5,0.7c0.3,0.1,0.5,0.2,0.8,0.2
						c0.2,0.1,0.5,0.2,0.8,0.2c0.6,0.1,1.2,0.3,1.8,0.4c0.6,0.1,1.3,0.3,2.1,0.3c1.6-0.1,3.4-0.5,6.2-2.1c1.4-0.8,3.2-2.6,4.7-4.3
						c-1.2,1.4-1.2,0.1-1-1.6c0.2-1.8,0.6-4.1,0.6-4.3c0-1.4-0.4-2.5-0.8-3.7c-0.4-1.1-0.9-2.2-1.4-3.3c-0.5-1.1-1-2.2-1.5-3.3
						c-0.5-1.1-1-2.3-1.7-3.3c-1.2-2-2.8-4-4.7-5c-1-0.6-2.1-1.1-3.1-1.6c-1.1-0.4-2.1-0.8-3.2-1.2c-2.2-0.8-4.3-1.2-6.5-1.6
						c-2.1-0.4-4.3-0.6-6.4-0.8c-2.1-0.1-4.2-0.3-6.3-0.4c-7-0.3-13.8,0.2-20.3,0.2C158.3,91.3,154.3,90.9,150.4,90.9z"/>
				</g>
			</g>
		</g>
	</g>
</g>
</svg>
