<?xml version="1.0" encoding="utf-8"?>
<!-- Generator: Adobe Illustrator 22.1.0, SVG Export Plug-In . SVG Version: 6.00 Build 0)  -->
<svg version="1.1" id="Layer_1" xmlns="http://www.w3.org/2000/svg" xmlns:xlink="http://www.w3.org/1999/xlink" x="0px" y="0px"
	 viewBox="0 0 500 500" style="enable-background:new 0 0 500 500;" xml:space="preserve">
<style type="text/css">
	.st0{fill:#231F20;}
</style>
<g>
	<g>
		<g>
			<path class="st0" d="M300.2,370l0.4,0.1C300.4,370.1,300.3,370,300.2,370z"/>
			<path class="st0" d="M236.2,366.2l0.1-0.1C236.2,366.1,236.2,366.2,236.2,366.2z"/>
			<path class="st0" d="M223.9,377.8l-0.4,0.1C223.7,377.9,223.8,377.8,223.9,377.8z"/>
			<g>
				<path class="st0" d="M249.1,376.8c11.4-0.1,22.7,0.3,34,1c11.6,0.7,23.2,1.9,34.8,4.8c12.2,3,24,7,35.8,11.5
					c11.8,4.5,22.9,10,33.8,16.4c5.3,3.1,10.6,6.1,15.7,9.4c5.2,3.2,10.2,6.7,15,10.5c2.5,2.1,5,4.2,7.4,6.4c0.6,0.5,2.5,2,4.5,3.4
					c1.9,1.4,3.9,2.9,4.6,3.3c0.6,0.4-2.4-3.3-3.3-4.3c-2.9-3.3-7.5-8.1-10.1-10.4c-5.2-4.6-7.7-6.7-13.6-10.9
					c-12.1-8.6-24.5-16-37.4-23.2c-10.4-5.9-22.3-10.1-33.7-14.2c-12.3-4.4-24.9-8.4-38-10.6c-13.9-2.3-27.9-4.3-42-4.4
					c-13.9-0.1-27.8,1-41.5,2.9c-8,1.2-16,2.5-23.9,4.3c-20,4.4-39.3,11.6-57.8,20.5c-8.3,4-16.5,8.1-24.4,12.7
					c-7.9,4.5-15.7,9.5-23,15.3c-3.9,3-8.4,6.7-12.5,10.5c-4.1,3.9-7.7,7.9-9.9,11.6c-1.1,1.8-0.8,2.9-0.2,3.5
					c-0.5-0.5,1.7-2.1,4.1-3.6c2.4-1.5,5.1-2.8,5.4-3c4-2.5,8.2-5.5,12.4-8c8.1-5,15.8-8.7,24.3-13.7c17.9-10.6,36.4-19.9,56-26.9
					c8.3-3,16.8-5.5,25.3-7.7c8.6-2.1,17.3-3.8,26-5C227.3,377.4,238.2,376.8,249.1,376.8z"/>
			</g>
		</g>
	</g>
</g>
<g>
	<g>
		<g>
			<path class="st0" d="M261.4,212.1l0-0.3C261.4,211.9,261.4,212,261.4,212.1z"/>
			<path class="st0" d="M261.8,250.6l-0.1-0.1C261.7,250.6,261.8,250.7,261.8,250.6z"/>
			<path class="st0" d="M271.9,259.5l0,0.2C271.9,259.6,271.9,259.6,271.9,259.5z"/>
			<g>
				<path class="st0" d="M273.1,243.2c0.2-3.7,0-7.4-0.1-11c-0.1-3.7-0.5-7.3-0.9-10.9c-0.2-1.9-0.5-3.7-0.8-5.6
					c-0.3-1.8-0.6-3.7-0.9-5.5c-0.7-3.7-1.2-7.4-1.7-11.1c-1-7.9-2.1-15.8-3.9-23.6c-1.9-7.8-3.4-15.4-5.3-23.2
					c-1.9-7.5-4.9-14.7-7-22.1c-0.5-2-1.1-4-1.6-6c-0.3-1-2.6-5.5-3.3-6.4c-0.3-0.4,0.1,2.7,0.2,3.5c0.4,2.8,1,6.9,1.4,9
					c0.9,4.3,1.3,6.2,2.4,10.5c2.3,8.8,4.3,17.5,5.2,26.5c0.8,7.2,2.6,14.6,3.3,22c0.8,7.9,0.8,15.9,1.5,23.8
					c0.7,8.5,0.2,16.9,0.3,25.4c0,4.2-0.1,8.3-0.1,12.5l-0.3,6.2c-0.1,2.1-0.2,4.2-0.4,6.2l-0.7,7.3c-0.3,2.4-0.6,4.8-1,7.2
					c-1.8,12.2-3.8,24.3-6.7,36.2c-2.7,10.8-6.8,20.8-10.1,31.4c-1.8,5.6-4.5,13.1-4.4,18.5c0,1.3,0.8,2.1,1.6,2.4
					c-1.3-0.5,3.9-5.5,4.2-5.9c1.8-2.4,3.3-5.3,4.9-8c3.1-5.2,6.2-9.8,8.4-15.8c4.6-12.6,7.6-25.6,10.1-38.8
					c2.1-11.2,3.5-22.5,4.5-33.9C272.2,257.3,272.9,250.3,273.1,243.2z"/>
			</g>
		</g>
	</g>
</g>
<g>
	<g>
		<g>
			<path class="st0" d="M118.1,56.1l-0.3,0C117.9,56.1,118,56.2,118.1,56.1z"/>
			<path class="st0" d="M154.1,61.7L154.1,61.7C154.1,61.7,154.1,61.7,154.1,61.7z"/>
			<path class="st0" d="M163.6,56.9l0.2,0.1C163.7,56.9,163.6,56.9,163.6,56.9z"/>
			<g>
				<path class="st0" d="M148.6,52.8c-6.8-1.5-13.8-2.4-20.7-2.7c-7.1-0.3-14.2,0-21.3,0.1c-7.6,0.1-15.1,0.4-22.6,1.5
					c-7.5,1.1-14.8,2.2-22.3,3.7c-7.2,1.5-14.1,3.9-21.1,6c-1.9,0.5-3.8,1.1-5.6,1.7c-0.9,0.3-5.3,2.5-6.1,3.1
					c-0.4,0.3,2.4-0.4,3.2-0.6c2.5-0.6,6.4-1.5,8.4-1.9c4-1,5.8-1.4,9.9-2.4c8.4-2.1,16.7-3.7,25.2-4.3c6.9-0.5,14-1.5,21-1.6
					c7.5-0.1,15,0.4,22.5,0.8c8,0.5,15.9,1.8,23.8,3.2c7.8,1.4,15.5,3.1,23,5.5l3.3,1l3.3,1.2c1.1,0.4,2.2,0.8,3.2,1.2l3.2,1.3
					c5.4,2.1,10.8,4.5,16,7c5.2,2.6,10.4,5.2,15.4,8.2c2.3,1.3,4.4,2.8,6.6,4.2c1.1,0.7,2.1,1.5,3.2,2.2c1.1,0.7,2.1,1.5,3.1,2.3
					c4.2,3.1,8.2,6.3,12.3,9.6c4.4,3.5,9.8,8.6,14,11.1c1,0.6,1.8,0.4,2.2,0.1c-0.4,0.3-1.2-1-2-2.5c-0.8-1.5-1.7-3-1.8-3.2
					c-1.5-2.4-3.6-4.6-5.5-6.9c-3.7-4.3-7.1-8.3-11.9-12.1c-10-7.8-21.1-14.1-32.5-19.6c-9.8-4.6-19.8-8.6-30.1-11.9
					c-3.1-1-6.2-1.9-9.4-2.8C155.1,54.4,151.8,53.5,148.6,52.8z"/>
			</g>
		</g>
	</g>
</g>
<g>
	<g>
		<g>
			<path class="st0" d="M96,129l-0.2-0.1C95.9,129,95.9,129,96,129z"/>
			<path class="st0" d="M132.2,140.1L132.2,140.1C132.2,140.2,132.2,140.2,132.2,140.1z"/>
			<path class="st0" d="M141.2,134.5l0.2,0C141.3,134.5,141.2,134.5,141.2,134.5z"/>
			<g>
				<path class="st0" d="M126.6,131.3l-4.9-1.2l-1.2-0.3l-1.2-0.4l-2.4-0.7c-1.6-0.5-3.2-0.9-4.9-1.3l-2.4-0.6l-2.4-0.8l-4.9-1.5
					l-2.5-0.8c-0.8-0.3-1.6-0.6-2.4-0.9c-1.6-0.6-3.2-1.2-4.8-1.9l-2.4-1c-0.8-0.3-1.6-0.8-2.4-1.2c-3.3-1.7-6.6-3.3-9.8-5.3
					l-4.8-2.8c-1.6-1-3.1-2-4.7-3c-3.2-1.9-6.1-4.2-9.1-6.4c-1.5-1.1-2.9-2.3-4.3-3.5c-1.4-1.2-2.9-2.4-4.2-3.7
					c-5.4-4.8-10.8-9.6-15.4-15.2c-1.2-1.5-2.3-3.1-3.5-4.6c-0.3-0.4-1.2-1.4-2.2-2.5c-1-1.1-1.9-2.1-2.2-2.4
					c-0.3-0.3,0.9,2.3,1.3,2.9c1.2,2.3,3.3,5.7,4.5,7.4c1.2,1.7,2.1,2.9,3.1,4.1c1,1.2,2,2.3,3.4,3.9c5.9,6.5,12.3,12.2,18.8,18
					c1.3,1.2,2.7,2.3,4.1,3.4c1.5,1,3,2.1,4.5,3.1c3,2.1,6.1,3.9,9.1,5.9c0.8,0.5,1.6,1.1,2.4,1.6l2.5,1.5l5,2.9
					c0.8,0.5,1.7,0.9,2.6,1.4l2.6,1.3c1.8,0.8,3.5,1.7,5.3,2.5l5.8,2.3l2.9,1.2c1,0.4,1.9,0.8,2.9,1.1l5.9,2c2,0.6,4,1.3,6,1.7
					l6,1.4c2,0.4,4,0.9,6,1.2l6.1,1c1,0.2,2,0.4,3,0.5l3.1,0.3c2.4,0.3,4.8,0.6,7.1,0.8l7.2,0.5c12.1,0.7,24.2-0.2,36.2-2
					c10.8-1.6,21.4-3.4,31.8-7.3c2.7-1,6-2.3,8.9-3.8c3-1.5,5.8-3.2,7.6-5c0.9-0.9,0.9-1.6,0.6-2.1c0.2,0.4-1.3,0.9-3,1.3
					c-1.7,0.4-3.4,0.6-3.6,0.7c-1.4,0.3-2.8,0.7-4.2,1.1c-1.4,0.4-2.9,0.7-4.3,1.1c-1.4,0.3-2.7,0.6-4,0.8c-1.3,0.3-2.6,0.5-4,0.7
					c-1.3,0.2-2.7,0.5-4,0.8c-1.4,0.3-2.7,0.5-4.2,0.9c-12,2.8-24,4.8-36.3,5.4l-3.9,0.2l-2,0.1l-2,0c-2.6,0-5.2,0-7.8,0l-7.8-0.4
					c-1.3,0-2.6-0.2-3.9-0.4l-3.9-0.5c-3.1-0.3-6.2-1-9.4-1.5c-1.6-0.3-3.2-0.6-4.7-0.9C129.7,132.1,128.1,131.7,126.6,131.3z"/>
			</g>
		</g>
	</g>
</g>
<g>
	<g>
		<g>
			<path class="st0" d="M376.2,113.5l0.3-0.1C376.4,113.4,376.3,113.5,376.2,113.5z"/>
			<path class="st0" d="M340.5,132.3l0-0.1C340.5,132.2,340.5,132.3,340.5,132.3z"/>
			<path class="st0" d="M338,142.9l-0.2,0.2C337.9,143,337.9,143,338,142.9z"/>
			<g>
				<path class="st0" d="M351.2,134.1c3-1.9,6.2-3.6,9.2-5.4l2.3-1.4c0.8-0.5,1.5-0.9,2.3-1.3c1.6-0.8,3.2-1.6,4.7-2.5l2.4-1.3
					c0.8-0.4,1.6-0.9,2.4-1.3l5-2.3l2.5-1.1c0.4-0.2,0.8-0.4,1.3-0.6l1.3-0.5c1.7-0.6,3.5-1.2,5.3-1.8l2.8-0.9l2.9-0.7
					c1.9-0.5,3.8-1,5.7-1.5c1.9-0.5,3.9-0.8,5.8-1.2l2.9-0.6l1.4-0.3l1.5-0.2c2-0.3,3.9-0.6,5.9-0.9c1-0.2,1.9-0.3,2.9-0.3l2.9-0.3
					c3.9-0.4,7.8-0.4,11.8-0.5c7.7,0,15.4-0.2,23,1c2,0.3,4,0.7,6,1.1c1,0.2,6,0.7,7,0.7c0.5,0-2.4-1.1-3.2-1.3
					c-2.6-0.9-6.7-2.1-8.8-2.5c-4.3-0.9-6.4-1.2-10.8-1.6c-9.3-0.8-18.4-0.9-27.7-0.6c-0.9,0-1.9,0-2.8,0.1
					c-0.9,0.1-1.9,0.2-2.8,0.3c-1.9,0.2-3.8,0.4-5.7,0.7c-1.9,0.4-3.8,0.7-5.7,1.1c-1.9,0.3-3.8,0.6-5.7,1.1l-6.1,1.3l-1.5,0.3
					c-0.5,0.1-1,0.3-1.5,0.4l-3,0.8c-2,0.6-4,1.1-6,1.7c-2,0.7-3.9,1.4-5.8,2.2c-4.2,1.5-8.2,3.4-12.3,5.2c-1,0.5-2.1,0.8-3,1.4
					l-2.9,1.6c-2,1-3.9,2.1-5.8,3.2c-7.5,4.5-14.6,9.6-21.4,15.2l-2.9,2.5l-1.5,1.2l-1.4,1.3l-2.8,2.6l-2.8,2.7
					c-9.3,9-17.2,19.3-24.1,30.1c-6.2,9.8-12,19.7-16.1,30.7c-1.1,2.9-2.3,6.4-3.2,9.8c-0.9,3.4-1.4,6.8-1.4,9.5
					c0,1.3,0.6,1.8,1.1,2c-0.5-0.1,0.2-1.7,1-3.3c0.8-1.6,1.8-3.2,1.9-3.4c1.4-2.6,2.6-5.6,4-8.4c2.7-5.3,5.6-9.8,8.5-15.4
					c6.1-11.6,12.8-22.7,21-32.9c3.5-4.3,7.1-8.5,11-12.5c3.9-3.9,8-7.7,12.3-11.2C339.7,141.6,345.4,137.7,351.2,134.1z"/>
			</g>
		</g>
	</g>
</g>
<g>
	<g>
		<g>
			<path class="st0" d="M418,184.5l0.2-0.2C418.1,184.4,418,184.4,418,184.5z"/>
			<path class="st0" d="M387.8,206.8l0-0.1C387.8,206.7,387.8,206.8,387.8,206.8z"/>
			<path class="st0" d="M384.3,216.9l-0.2,0.1C384.2,217,384.3,217,384.3,216.9z"/>
			<g>
				<path class="st0" d="M398.2,209c3-2,5.9-4.1,8.8-6.3c1.5-1,2.8-2.3,4.2-3.4c1.4-1.2,2.7-2.3,4-3.5c0.7-0.6,1.4-1.2,2-1.9
					l1.9-1.9l3.9-3.9c0.6-0.7,1.3-1.3,1.9-1.9l1.9-2c1.3-1.3,2.5-2.7,3.8-4c1.4-1.4,2.7-2.8,4-4.3l3.9-4.3c1.3-1.5,2.5-3,3.7-4.5
					c1.2-1.5,2.5-3,3.6-4.6c2.3-3.2,4.6-6.2,6.8-9.4c2.3-3.1,4.4-6.4,6.5-9.6c4-6.4,7.2-13.2,10.7-19.9c0.9-1.8,1.9-3.5,2.8-5.3
					c0.2-0.4,0.8-1.8,1.2-3.3c0.5-1.4,0.9-2.8,1-3.3c0.1-0.4-1.5,2.1-1.9,2.7c-0.7,1.1-1.6,2.6-2.5,3.9c-0.8,1.4-1.7,2.7-2.2,3.6
					c-1,1.8-1.9,3.1-2.7,4.5c-0.8,1.3-1.6,2.7-2.7,4.5c-2.2,3.9-4.6,7.6-7,11.2c-1.3,1.8-2.5,3.6-3.8,5.3c-1.3,1.7-2.7,3.4-4.1,5.1
					c-1.1,1.4-2.3,2.8-3.4,4.1c-1.1,1.4-2.2,2.8-3.4,4.3c-1.2,1.4-2.3,2.8-3.5,4.2c-0.6,0.7-1.2,1.4-1.8,2.1c-0.6,0.7-1.2,1.3-1.8,2
					l-4.1,4.1l-2.1,2l-2.1,1.9l-4.3,3.9l-1.1,1l-1.1,0.9l-2.2,1.9c-1.5,1.4-3.1,2.7-4.7,4.1l-4.9,3.7l-2.5,1.9
					c-0.8,0.6-1.6,1.3-2.5,1.8c-1.7,1.2-3.4,2.3-5.1,3.5c-3.2,2.4-6.7,4.5-10.1,6.7c-3.4,2.3-7,4.1-10.5,6.1
					c-2.1,1.1-4.3,2.1-6.4,3.2c-1.1,0.5-2.1,1-3.2,1.5l-3.3,1.4c-11,4.7-22.3,8.6-34,11.4c-10.5,2.5-21.1,3.4-31.8,4.5
					c-5.7,0.6-13.5,0.9-18.3,2.3c-1.2,0.4-1.6,1-1.6,1.6c0-0.5,1.6-0.2,3.3,0.2c1.7,0.4,3.4,0.9,3.6,0.9c1.4,0.3,2.9,0.4,4.4,0.5
					c1.5,0.1,3.1,0.2,4.6,0.3c2.9,0.2,5.7,0.4,8.5,0.5c1.4,0,2.8,0,4.3,0c1.5,0,3-0.1,4.5-0.3c6.5-0.6,12.9-1.8,19.3-3.2
					c6.3-1.5,12.6-3.2,18.8-5.4c10.6-3.5,20.8-8,30.7-13.1c1.5-0.8,2.9-1.6,4.4-2.4c1.5-0.8,3-1.6,4.5-2.5
					C392.3,212.5,395.2,210.8,398.2,209z"/>
			</g>
		</g>
	</g>
</g>
<g>
	<g>
		<g>
			<path class="st0" d="M359.2,168.3l0.1-0.1C359.3,168.2,359.2,168.2,359.2,168.3z"/>
			<path class="st0" d="M342.4,181.9L342.4,181.9C342.4,181.8,342.4,181.9,342.4,181.9z"/>
			<path class="st0" d="M343.4,190.2L343.4,190.2C343.3,190.3,343.4,190.2,343.4,190.2z"/>
			<g>
				<path class="st0" d="M350.4,184.8c3.1-2.5,6.1-5.1,8.8-8c2.9-2.8,5.6-5.9,8.8-8.5c1.7-1.3,3.4-2.7,5.1-4c1.7-1.3,3.4-2.6,5.1-4
					c1.7-1.4,3.4-2.6,5.2-3.9c0.9-0.6,1.8-1.2,2.7-1.8c0.9-0.6,1.8-1.1,2.8-1.7c0.9-0.5,1.8-1.1,2.6-1.7l1.3-0.9l1.3-0.8
					c1.8-1.1,3.5-2.2,5.4-3.1c1-0.4,2.1-0.8,3.1-1.2c0.5-0.2,2.8-1.8,3.2-2.2c0.2-0.2-1.5,0.1-1.9,0.1c-1.5,0.3-3.8,0.7-5,1.1
					c-2.3,0.8-3.3,1.3-5.5,2.3c-2.3,1.1-4.4,2.4-6.6,3.6c-2.2,1.2-4.4,2.4-6.6,3.6c-3.7,1.8-6.9,4.7-10.3,7
					c-3.7,2.5-7.5,4.9-10.9,7.7c-3.7,3-7.6,5.7-11.2,8.7c-3.6,3-7,6.1-10.6,9.1c-2.1,1.7-4.2,3.4-6.4,5.1c-2.7,2.1-5.4,4.2-8.1,6.3
					c-2.7,2.1-5.4,4.2-8.1,6.2c-2.5,1.9-5.1,3.4-7.6,5c-2.5,1.7-5.2,3.1-7.7,4.9c-0.7,0.5-1.4,1-2.1,1.5c-0.8,0.5-1.5,1-2.3,1.6
					c-1.5,1.1-2.8,2.4-3.6,3.7c-0.4,0.7-0.3,1.3,0,1.8c-0.5-0.8,3.6-1,3.9-1c1.7-0.3,3.3-1,5-1.6c3.1-1.2,6.2-1.9,9.2-3.7
					c6.3-3.8,12.1-8.2,17.9-12.7c2.5-1.9,4.9-3.9,7.3-5.8l7.2-5.9C344.4,189.6,347.4,187.2,350.4,184.8z"/>
			</g>
		</g>
	</g>
</g>
<g>
	<g>
		<g>
			<path class="st0" d="M146.4,100.8l-0.2,0C146.3,100.7,146.3,100.8,146.4,100.8z"/>
			<path class="st0" d="M170.1,104.9L170.1,104.9C170.1,105,170.1,104.9,170.1,104.9z"/>
			<path class="st0" d="M176.4,98.8l0.1,0C176.4,98.8,176.4,98.8,176.4,98.8z"/>
			<g>
				<path class="st0" d="M166.7,96.8c-4.4-0.8-8.8-1.4-13.2-1.7c-4.5-0.4-9.1-0.5-13.6-1.2c-4.8-0.8-9.5-1.7-14.3-2.4
					c-2.4-0.3-4.8-0.8-7.1-1.3c-1.2-0.3-2.3-0.5-3.5-0.8c-1.2-0.3-2.3-0.6-3.5-0.9c-2.3-0.6-4.6-0.9-6.9-1.5c-2.3-0.5-4.6-1-6.8-1.8
					c-1.2-0.4-2.3-0.9-3.5-1.4c-0.6-0.2-3.6-0.8-4.3-0.8c-0.3,0,1.3,1,1.7,1.3c1.4,0.9,3.7,2.2,4.9,2.7c2.5,1.1,3.6,1.5,6.2,2.3
					c2.7,0.9,5.4,1.6,8.1,2.4c2.7,0.8,5.3,1.6,8,2.5c4.3,1.5,9.1,2,13.5,3.1c4.8,1.1,9.6,2.5,14.5,3.3c5.2,0.9,10.3,2.2,15.6,3
					c5.1,0.8,10.3,1.5,15.4,2.4c3,0.5,6,1.1,8.9,1.7c7.5,1.6,15,2.9,22.4,4.6c1.7,0.4,3.3,0.8,5,1.3c1.6,0.5,3.2,1,4.9,1.5
					c1.6,0.5,3.2,1,4.9,1.5c1.6,0.5,3.2,1,4.9,1.4c3.6,0.8,8.1,2.5,11.5,2.1c0.8-0.1,1.3-0.6,1.5-1.2c-0.3,0.9-3.5-2.3-3.7-2.5
					c-0.7-0.6-1.6-1.1-2.4-1.6c-0.8-0.5-1.7-1-2.6-1.4c-1.6-0.9-3.2-1.8-4.8-2.7c-0.8-0.4-1.6-0.8-2.5-1.2c-0.9-0.4-1.7-0.7-2.7-1
					c-2-0.6-3.9-1.2-5.9-1.8c-2-0.6-4-1-5.9-1.5c-4-1-8-1.8-12-2.6c-6.8-1.4-13.6-2.5-20.4-3.8C175,98.5,170.8,97.7,166.7,96.8z"/>
			</g>
		</g>
	</g>
</g>
</svg>
