<svg xmlns="http://www.w3.org/2000/svg" viewBox="0 0 410 410"><path d="M333.5 37.1c-1.1.6-4.9 2.9-8.4 5.3-8.4 5.5-9.3 6.1-13.9 8.7-2.1 1.2-5.9 3.4-8.4 4.9-5.2 3.1-10.4 5.8-12.1 6.3-3.9 1-9.2 4.3-9.5 5.8-.3 1.4 2 .7 9.9-3.1 7.1-3.4 7.7-3.5 3-.6a98.7 98.7 0 0 1-10.8 5.6c-2.1.9-2.7 1.3-2.5 1.5.1.1 6.2-2.1 10.2-3.8 5.8-2.5 2 0-5 3.2-5.1 2.3-5 2.3-4.1 2.5.6.2 6-1.6 8-2.5.5-.3 2.5-1.1 4.4-1.7 5.2-1.9 12-5.7 21.7-12.2 6.5-4.3 21.8-17.1 21.2-17.7-.1-.1-.7.3-1.4.9-4 3.3-13.3 9.9-19.7 14-2 1.3-1 .3 1.2-1.2 4.7-3.2 15.5-11.6 18.6-14.5 1.8-1.7 1.6-1.6-2.7 1.5-2.9 2.1-14 9.3-15.7 10.2-1.4.7.1-.4 4.8-3.7 7.9-5.5 13.9-10.1 13.2-10.1 0-.3-.9.2-2 .7m40.4 17.4c-2.8 5.6-5.6 11-6.2 12.1-1.2 2.1-4.9 8.4-8.2 13.8-1.1 1.8-3.1 4.8-4.5 6.7-1.4 1.8-2.6 3.6-2.8 4-1.3 2.5-8.7 10.7-13.3 14.7-2 1.7-4.8 4.2-6.2 5.5-7.8 7.1-14.7 12.7-21.2 17-4.3 2.9-2.2.9 3.9-3.6 2.5-1.9 5.3-4.1 6.1-4.8s2.7-2.4 4.2-3.6c5.8-4.9 19.6-18 22.1-21 3.5-4.3 10.2-14.1 13.1-19.4 1.1-2.1 2.4-4.3 2.7-4.9 1.3-2.3-.3 0-2.9 4-7.4 11.6-14.9 20.1-29.6 33.7-1 .9-2.9 2.7-4.2 4-1.4 1.3-2.4 2.2-2.3 2 .1-.2 4.3-4.4 9.3-9.3 10.1-9.9 12.8-12.9 17.9-19.8 4.8-6.4 6.3-8.5 6-8.5-.1 0-1 1.1-2 2.4-1.1 1.3-2.2 2.6-2.6 2.8-1.4.7-15.3 15.6-16.3 17.5-.4.7-4.2 4.8-10 10.9-3.6 3.8-8.1 7.7-12 10.5-3.6 2.6-3.6 2.6-2.3 1.3.9-.8 1-1 .4-.6-.8.5-5.4 3.6-6.3 4.2-2 1.4 2.3-2.1 6.7-5.4 5.2-4 10.4-8.6 13.1-11.4l1.2-1.3-1.7 1.3c-1 .7-2.8 2-4.1 2.9-2.4 1.6-4.7 3.5-9.2 7.6-5.7 5.2-13.7 11.7-14 11.4-.1-.1 1.3-1.4 3-2.9 3.8-3.3 7.6-6.9 7.4-6.9-.3 0-4 2.6-6.1 4.4-2.5 2.1-4.3 3.2-9.5 5.7-2.1 1-4.2 2.1-4.5 2.4-3 2.3 1.8 13 5 11.4.4-.2 1.6-.7 2.7-1.1 2.9-1 13-7.1 19.1-11.6 4.8-3.5 8-6 9.6-7.4.9-.8 2.5-2.1 3.6-3 4.6-3.7 20.8-20.3 25.2-25.8 7-8.7 4.6-7-4 2.9-3.5 4.1-11.5 12.1-11.5 11.6 0-.2.1-.4.3-.5.1-.1.2-.3.1-.4-.1-.1.2-.6.6-1 1.7-1.7 6.6-7.1 9.9-11.1 3.7-4.4 5.4-6.2 9.5-10.5 4.2-4.3 7.3-9.3 10.9-17 1.4-3 1.9-4.9.8-2.7-1 1.9-2.8 4.4-3.1 4.4-.4 0-.1-1 1.4-3.6.4-.8 1.4-3 2.2-4.8.8-1.8 2.3-5.2 3.3-7.5 2.3-5 5-11.5 4.9-11.6-.5-.2-2.9 4.3-5.6 9.9m-33.5-6.6c-10.3 8.8-13.3 11.3-11.6 9.3.6-.7-4.1 3.1-7.2 5.8-3.6 3.1-6 5-9 7.1-2.7 1.9-4.6 3.2-13.3 9.4-2.1 1.5-4.3 3-4.9 3.4-.9.5-1.3 1.1-.9 1.1.1 0 4-2.4 8.7-5.2 4.7-2.9 9-5.5 9.5-5.8l.9-.5-.7.6c-.6.5-8.9 6.1-14.7 9.8-2 1.3-2 1.5.1.4 3.2-1.6 18.4-11.7 23.3-15.4 1.8-1.3 5.7-4.4 8.8-6.7 7.8-5.9 7.9-6 11.3-9.1 2.7-2.6 3.8-3.9 3.4-4.3-.1-.1-.7.3-1.3.9s-2.7 2.4-4.7 4-4.4 3.6-5.4 4.4c-1 .9-1.9 1.5-2 1.4-.1-.1.1-.4.5-.7 1-.8 6.7-5.9 9.6-8.6 2.4-2.2 3-3.1 2.3-3.3 0-.1-1.3.8-2.7 2m-91 .7c-2.8.2-6.4 2.1-15 7.7-3.4 2.2-7.4 4.7-8.9 5.5l-2.7 1.4h-9.2c-11.4 0-11.2 0-14.3-4-4.8-6.4-8.1-7.3-12.4-3.4-2.7 2.4-4.8 3.9-7.1 5.1-2.9 1.5-3.6 2-4.3 3-.5.7-.7.8-2.5.9-2.4.2-10.5 1.4-10.7 1.6-.1.1 1.1.1 2.6 0 1.8-.1 2.6-.1 2.2.1-.3.1-.8.3-1.1.3-.3 0-.7.2-.9.4-.6.8.8 1.1 3.1.7 3.6-.6 3.3-.1-.7 1.4-7.4 2.7-15.4 7.1-15.4 8.5 0 .4.1.3 2.7-1.4 4.4-2.9 8.3-4.6 14.7-6.3 3.9-1.1 5.2-1.3 4.6-.7-.3.2-1 .5-1.6.6-5.6.9-17 7-21 11.2-1.3 1.3-.2 1.4 1.3.1 2.5-2.3 10-6.3 14.6-7.8 2.8-.9 2.8-.7.1.7-2.9 1.5-8.2 5.9-7.8 6.4.2.4.6.2 2.7-1.3 1.4-1 2-1.3 2.5-1.2.5.1 1.5-.3 3.5-1.3 5.3-2.8 12-4.5 14.1-3.5 1.3.6 1.2.7-.6 1-5.9.8-14.1 3.9-19.3 7.2-3 1.9-2.2 2.3 1.4.6 2.8-1.4 7.2-3.2 8.1-3.5 1-.3-1.2.9-5.4 3a44.8 44.8 0 0 0-8.4 5.2c-2.4 1.8-2.1 2.5.4.9 3.2-2.1 7.3-4.2 10.1-5.3 4-1.4 2.1.1-2.4 2-2.1.9-3.5 1.9-10.8 7.4-4.7 3.6-4.6 4.4.2 1.2 8-5.4 10.2-6.6 10.8-6.4.3.1 2-.5 4.4-1.6 3.3-1.5 8.2-3.1 8.5-2.7.2.2-1.3 1.2-2.3 1.5-2.6.9-1.8 1.5 1.3 1s5.6-.5 7.7 0c2.3.5 2.3.4-.2-1.2-2.5-1.7-2.5-1.9.2-1.9 1.2 0 2.2-.1 2.3-.2.2-.4-.1-1.1-.6-1.2-.3-.1-.7-.4-1.1-.7-.5-.4-1-.5-3-.5s-2.6-.1-3.4-.6l-.9-.6.9-.2c.6-.2 1.1-.2 1.4 0 .6.4 5.1.4 5.8 0 .3-.2 1.2 0 2.8.5 4 1.3 4.7 1 2.7-1-1.1-1.1-1.1-1.2-.5-1.2h.7l-.7-.8c-.4-.4-1.1-.9-1.5-1.1-1.7-.7-1.2-1.6.8-1.6 2.1 0 2.4-.3 1.1-1.3-1.1-.8-2.6-1.1-6-1.2-4.7-.1-10.4-1.4-10.4-2.3 0-.3.2-.5.6-.5.3 0 1.8-.3 3.3-.7 3.1-.8 4.1-.8 5.3-.2 1.5.8 6.2 2.2 6.6 2 .9-.5 2.6-.6 3.5-.2 1.6.7 10.9 1.6 10.5 1-.1-.1-1.6-1.1-3.3-2.2-3.2-1.9-5.1-3.6-7.1-6.2-1.6-2.1-.9-1.7 1.8.8 8.7 8.2 24.9 9.7 32.4 3.1 1-.9.5-.8-2.5.3-4.6 1.7-4.8 1.7-8.2 1.7-2.9 0-8.2-.6-8.6-.9-.1-.1 2.4-.1 5.4-.1h5.6l2.8-1c1.5-.6 3.6-1.3 4.5-1.6 1.7-.6 2.7-1.1 6.1-3.4 2.5-1.7 3.7-1.5 2.7.4-.7 1.3-.7 1.4 0 1.1.8-.4-1.1 1.8-3.2 3.8-3 2.9-5.8 4.6-9.1 5.7-3.6 1.2-1.1 1.5 3.3.4 3.1-.8 5.3-2 9.4-5.1.3-.3.6-.4.6-.2 0 .1-.1.3-.3.4-.2.1-.2.3-.2.5a7 7 0 0 1-1.3 2.2c-.7 1-1.9 2.6-2.6 3.6-1.7 2.4-6.2 6.7-7.9 7.6-1.1.6-1.4.8-1.1 1.1.3.4.7.3 2-.5.5-.3 1.8-.8 3-1.1 2.6-.8 4.5-2.2 6.8-5.1.3-.3.2-.1-.2.7-.3.7-1.1 1.9-1.7 2.7-.6.8-1.3 1.9-1.6 2.4-.3.5-1.4 2-2.4 3.3-1.1 1.3-2 2.5-2 2.6 0 .1-.6.9-1.3 1.8-2.6 3.1-2.9 4-1.2 3.4 2.6-.9 3.9-2.1 5.4-4.8 1.9-3.5 4.2-6.7 3.1-4.4-.2.5-1 2.4-1.8 4.2-1 2.3-2 4-3.2 5.6-.9 1.2-2 2.7-2.4 3.2-.8 1.2-5.3 3.4-7.8 3.9-2.3.4-2.5.5-2.3.7.1.1.6.1 1.3 0 .6-.1 1.8-.1 2.6-.1 4.9.4 9.4-2.3 13-7.9 1.6-2.5 5.5-7.8 5.6-7.7.4.4-2.6 7.2-4.1 9.2-1.1 1.4-.7 2 .6.9 1.4-1.2 2.6-3.1 5.2-8.1 3.4-6.4 6.7-9.8 10.8-11.1 2.3-.7 2.2-1.2-.2-1.2-4.6 0-8.9 2.3-12.2 6.3-2.5 3-2.7 3.3-2.1 2.1 2.6-5.2 8.3-9.3 13.8-10 1.6-.2 1.8-.4 1.1-1.1-1.7-1.7-7 .1-12.4 4.2-3.4 2.6-3.6 2.2-.5-1 4.4-4.6 9.5-8 13-8.7 3-.6 3.4-1.1 1.6-2.3-2-1.3-6.7-.6-10.2 1.5l-1.3.8.9-1.2c2.7-3.8 7-6.4 10.5-6.4 2.6 0 3.1-.8 1.1-1.9l-1-.6 1.2-.4c.6-.2 1.6-.4 2.2-.4s1.4-.2 1.8-.4c.7-.4.9-.4 1.8 0 .6.2 1.3.4 1.6.4.9 0 5 3.6 6.4 5.6 1.1 1.5 2.5 2.9 2.7 2.6.6-.6-3.3-8-4.2-8-.3 0-1.2-.4-1.9-.9s-2.4-1.2-3.7-1.6c-1.3-.4-3.8-1.3-5.5-2.1-3.1-1.7-4.2-1.9-8.1-1.6m84.9.6c-.5.2-3.4 2.5-6.9 5.7-2.2 1.9-6.6 5.7-7.6 6.4-1.6 1.2-1.9 1.8-.7 1.4 1.4-.4 14.8-11.5 15.5-12.8.4-.8.3-1-.3-.7m8.6 2.2c-.3.2-2.3 1.9-4.4 3.8-3.5 3.2-11.6 10.6-13.8 12.5-.5.4-2.3 2-4 3.5-3 2.6-6.2 5.2-11.2 9-2.1 1.6-3.1 2.5-2.1 1.9 1.2-.7 7.3-4.6 8.5-5.5.8-.6 1.5-1 1.5-.9 0 .3-4.5 3.5-9 6.5-11.2 7.4-14.6 10.1-7.3 5.9 2.8-1.6 4.2-2.6 10.1-6.7 1.6-1.2 4-2.9 5.3-3.7 2.4-1.7 5.5-3.9 5.7-4.1.1-.1 1.5-1.2 3.2-2.5 4.7-3.6 20.8-18.9 19.9-18.9-.1 0-1.8 1.5-3.8 3.3-2.9 2.6-9.8 8.5-12.4 10.6l-.5.4.5-.6c.3-.4 3.3-3.2 6.7-6.3 8.7-8.2 10.2-9.9 7.1-8.2m18.2 6.8c-6.3 9.3-17.6 24.1-20.4 27-1 1-.9.8 1.5-2.1 3.4-4.3 16.7-23.4 17.9-25.7l.4-.8-.6.5c-.7.6-3.4 4.4-9.4 13.3-3.3 4.9-6.4 9.1-7.2 9.8l-1.9 2.1c-1 1.1-1.8 2.1-1.9 2.1s-1 1.2-2 2.4-2.9 3.3-4.1 4.7c-2.6 2.8-2.3 2.5-7.9 7.9-4.3 4.2-4.6 4.6-4 4.8 1.1.4 6.1-3.9 17-14.8 11.7-11.6 15.6-16.2 22.1-25.7 3.1-4.6 3.5-5.7.5-1.6-2.3 3.2-10.3 13.2-10.7 13.4-.5.3.6-1.3 3.7-5.5 7.7-10.3 12.3-17.6 11.1-17.6 0 0-1.9 2.6-4.1 5.8m-113.7-.9c0 .1-.6.6-1.4 1.2s-1.8 1.4-2.3 1.8c-.7.6-.6.4.5-.9 1-1.1 1.6-1.7 2.1-1.7.3 0 .7-.1.8-.3.1-.2.3-.3.3-.1m90.7 6.6c-3.3 2.6-3.9 3.2-3.2 3.2.5 0 4.9-3.4 6.2-4.8 1.9-1.9.4-1.2-3 1.6m-24.2-.9c-1.3.7-2.3 1.3-7.4 4.6-1.3.8-2.9 1.8-3.6 2.3-7.9 4.8-10.3 6.2-12.4 7.7-1.4.9-2.3 1.7-2.1 1.8.2.1.6-.1.9-.3.3-.2 1.6-.9 2.7-1.5 1.2-.6 3.7-2.1 5.6-3.3 1.9-1.2 4.1-2.4 4.8-2.8 2-1 10.5-6.4 12-7.6 1.9-1.7 1.7-2.1-.5-.9m-125 2.9c-.1.1-.6 0-1.3-.2-.9-.2-1.1-.3-.7-.5.6-.2 2.3.4 2 .7m9.7-.7c-.3.2-.7.2-1.1 0-.5-.2-.5-.3.4-.3.8.1 1 .1.7.3m-39.5 1.9c-10 2.6-10.7 2.9-17.6 8.5-2.3 1.9-2.3 1.9 1.5-.4 4.4-2.6 8.9-4.8 13.1-6.2 2.5-.8 6.2-2.4 5.6-2.4-.3 0-1.5.2-2.6.5m178.1.3c-1.4 1-2.6 2.1-2.6 2.4 0 .6 1.1.1 2.6-1.1 2.4-2.1 2.5-3.1 0-1.3M307.5 69c-.3.2-.6.4-.6.5 0 .4.4.3 1.1-.3.7-.6.4-.7-.5-.2m-155.3 3.4c-14.1 6-24.7 14.9-30.2 25.3-1 2-.9 2 .5.1 7.6-10.4 16.5-17.6 28.9-23.6 3.4-1.8 4-3.2.8-1.8m214.3.8c-.2.4-.5.8-.5.8-.1 0 .1-.4.3-.8.2-.4.5-.8.5-.8s-.1.4-.3.8m-43 .2c-.6.4-2.4 1.9-4.1 3.4-1.6 1.5-4.4 3.8-6.2 5.1-1.8 1.3-4.1 3.2-5.2 4.2-3.4 3.1-2.1 2.8 1.8-.3 1.2-1 3.2-2.6 4.5-3.5 1.8-1.4 5.4-4.4 6.1-5.1l2.1-1.9c2.8-2.4 3.3-3.5 1-1.9m9.9.9c-2.3 2-16.4 15.9-16.4 16.3 0 1 14.1-11.8 17.1-15.6 1.7-2.1 1.3-2.5-.7-.7M209.9 74c-3.1.5-4 1-3.4 1.7.5.6 3.3.6 3.9-.1.3-.3 1.2-.8 2-1.1 3.2-1.1 2.3-1.3-2.5-.5m4.6.8c-.9.5-1 .5-.3.4.4-.1 1-.3 1.2-.5.5-.5.4-.5-.9.1m-2.7 1.5c-3.5.1-4.4.4-3.5 1.3.7.7 6.6.1 8.8-.8 1.4-.6 1.3-.7-.5-.6-.9 0-3.1.1-4.8.1m114.5.8c-.7.5-2.6 2.3-4.4 3.8-1.8 1.5-3.7 3.2-4.4 3.8-2.7 2.2-4.2 3.4-5.5 4.3-.8.5-3.3 2.5-5.7 4.3-2.4 1.8-4.6 3.5-5 3.8-1.3 1-5.8 3.9-7.4 4.7-.9.5-1.7 1.1-1.9 1.4-.4.6-2.4 2-3.9 2.8-.7.4-1.2 1-.9 1.3.3.3 8.8-5.2 17.5-11.5 2.1-1.5 4.3-3.1 4.8-3.4l.9-.6-.9.8c-.5.5-2 1.7-3.3 2.7-1.3 1-3.5 2.6-4.8 3.7s-3.4 2.5-4.7 3.4c-1.9 1.4-7.6 5.6-8 6-.4.4 1.4-.4 2.2-1 .6-.4 1.9-1.3 3.1-2 1.1-.7 3-2 4.2-2.9 1.2-.9 2.9-2.2 3.9-2.9 1-.7 2.6-2 3.7-2.9 2.1-1.7 3.9-3 6.9-5.3 3.2-2.4 4.9-3.7 5.2-4 .2-.2.9-.8 1.6-1.3 1.9-1.5 7-6.7 8.1-8.1 1.5-2.1.8-2.6-1.3-.9m-17.9 1.2c-.6.6-1 1.2-.9 1.2.2.2 2.6-1.6 2.6-2 0-.6-.6-.3-1.7.8m-54.9-.3c-2.9.9-5.3 2.8-6.2 4.9-1 2.3-2.9 8.8-3 10.3-.1 1.5-.3 2-1.6 3.8-.8 1.2-1.4 2.3-1.4 2.5 0 .2-.3.7-.6 1.2-1.4 1.8-.1.9 2.1-1.6 2.6-2.9 3.2-4.1 3.8-7.2.9-5 4.6-9 8.7-9.3 1.4-.1 1.7-.2 1.7-.6 0-.7-3-1-4.6-.4-1 .3-1.2.3-1.1 0 .2-.6 2.9-2 4.4-2.3 1.6-.3 1.6-.3 1.4-.9-.4-1-1.5-1.1-3.6-.4M144 79.9c-14.9 9.1-26.2 23.5-30.2 38.2-3.6 13.5-3.2 25.6 1.3 38.3 1.3 3.7 3.2 9.4 3.2 9.7 0 .2.7 1.6 5.4 11.4 1 2 2.5 5.1 3.5 6.9 1 1.8 2 4 2.3 4.8.3.8 1 2.3 1.7 3.3 4.4 7.5 7 18.9 5.8 25.8-.2 1.4 0 2.1.5 1.5 1.3-1.5 1.7-10.7.8-16.2-.3-1.5-.5-3.2-.6-3.6l-.1-.8.4.7c1.8 3.2 2.4 14.3 1.1 19.5-.9 3.6-3.6 10.1-7.9 19.5-3 6.6-4.2 10.2-4.6 14.3-.3 3.3.5 1.9 2.1-3.7 1.2-4 5.6-13.8 7.1-15.9.3-.5 1-1.9 1.5-3.1l1.5-3.6c1.6-3.5 2.6-7 3.3-11.3l.3-2 .4 1.7c.2.9.6 2.5.9 3.5.7 2.4 1.3 6.4 1.3 8.6 0 1 .1 1.8.3 1.8 1 0 .2-12.9-1.2-18.8-1.5-6.2-1.9-7.3-5.5-14.5-3.5-7-4.5-9.5-6.2-16.1-.5-1.9-1.2-4.4-1.5-5.5-2.3-8.6-1.3-25.2 2-32.4.2-.5.3-.6.3-.3-.7 3.1-1.2 5.8-1.1 5.9.1.1.3-.6.4-1.4.5-2.3.6-1.6.1 2.4-.9 8.8.4 27.9 1.9 27 .1-.1.1-1.5 0-3.2-.5-6.6-.1-18.1.8-22.4.3-1.6.4-1.2.2 4.5-.1 4 0 7 .2 8.4.2 1.2.4 3.9.5 6 .3 4.2.8 6.8 2.3 12 1.2 4 1.1 4.2-.3 1.1-.9-2-1.9-3.1-1.9-2.2 0 .6 1.7 5.1 2.4 6.3.9 1.6 2.2 5.2 2.1 5.6-.3.8-4.5-8.5-5.4-12-.7-2.8-.8-2.9-1.2-2.6-1.2.7 1.3 8.9 4.7 15.3a52 52 0 0 1 2.6 5.6c.5 1.3 1.3 3.2 1.8 4.2 2.1 4.1 4 14 3.9 20.4 0 6-.5 8.6-3.4 17.4-2.3 7.1-1.6 6.5 1.5-1.2 3.6-9.1 4.8-19.3 3.2-27.7-.2-.9-.2-1.6-.2-1.7.2-.2.9 3.2 1.3 5.5.1 1 .4 3 .7 4.5 1.1 7.3.4 10.9-4.3 22.9-6 15.5-6.8 22.1-3.8 33.3 1.9 7.1 5.1 14 7.8 16.3 1.3 1.2 1.4 1 .3-.8-2.8-4.3-6.4-13.5-7.4-18.8-.5-2.9-.5-3.3.1-.9 2.3 8.9 8.2 21 11.2 23 .8.5.7.4-.9-2-7.9-11.3-10.7-29.8-6.8-44.4.5-1.9.5-1.2 0 2.2-2 12.7.3 28.7 5.2 36.8.6 1.1.6.9-.3-1.9-3.3-9.7-4.6-20.6-3.4-28.4.2-1.4.5-3.9.6-5.6.3-6.5 1.3-13.5 2.4-16.8.6-1.8.5-.6-.1 5.3-.7 6.4-.6 7.2.5 3 .5-1.8 1.2-4.4 1.5-5.8 1.3-4.8 1.3-8.8.3-19.8-.7-7.2-1.6-14.2-2.3-17.9-.9-4.9-1.1-6.4-1.1-11.7 0-8.8 1.2-18 3.3-24.5.5-1.5.5-.7.1 1.5-1.7 8.7-2.4 17.2-2 25.3.3 5.9.7 8 .6 2.8-.2-7.3 1.6-19.9 4.1-27.3 4.1-12.6 14.6-25.3 25.2-30.6 1.8-.9 7.4-2.3 10.7-2.6 5.6-.5 8.6-1.6 3.5-1.2-1.4.1-3.9.2-5.5.3-5.1.1-10.8 3-19.4 9.8-3.6 2.9-4 2.9-1.2 0 3.7-3.7 7-6.2 12.6-9.4 2.8-1.6 3.2-1.9 2.3-1.7-3.5.6-7.1 2.2-8.4 3.8-1.5 1.7-2.8 2.4-1.4.8 1.8-2.2 4-4 7.2-5.9 2.6-1.6 3.6-2.4 3.3-2.7 0 0-1.5.9-3.3 2.1-9.3 6.2-15.1 12.7-24.3 26.9-1.1 1.6-.3 0 1.6-3.6 4.1-7.6 11.5-16.5 18.8-22.8 1-.9.8-.7-1.1.5-1.3.9-4.1 3.4-6.2 5.4-2.1 2.1-3.9 3.8-4 3.9-.9.8 2.1-3.4 3.7-5.1 1.2-1.3 2-2.5 1.9-2.6-.4-.6-1.3-.1-4.1 2.6-2.9 2.8-3.2 2.8-1-.1 1.9-2.5 6.7-6.8 9.6-8.7 1.8-1.2 1.2-1.4-1.4-.5-4.7 1.6-10.4 6.2-14.3 11.5-1.5 2.1-1.9 2.4-1.1.9a36 36 0 0 1 11.5-11.8c1.2-.7 2.4-1.4 2.6-1.6 1.2-.8 4.1-2 6-2.6 3.1-1 5.9-2.4 5.5-2.8-1.3-1.3-13.8 4.7-19.9 9.6-.5.4-.9.6-.9.4 0-.8 7.5-6.3 11.2-8.3 1.3-.7 2.3-1.4 2.3-1.5-.1-.8 6.5-3.3 8.6-3.3 1.2 0 4.5-.6 5.7-1.1.5-.2 1.2-.1 2.7.3 3.1.8 3.9.5 2.1-.9l-.8-.6.8-.3c.6-.2.8-.5.7-.8-.1-.3.1-.6.4-.8.3-.2.5-.5.4-.8-.1-.3.1-.4.6-.4 1.3.1 5.3 1.1 5.7 1.4.7.6 3.6-.2 3.6-1 0-.1-.8-.3-1.7-.4-1.9-.2-4.2-1.1-5.8-2.3-1.2-.9-1.6-1-3.6-.3-2.1.7-2.4.7-3.8-.7l-1.3-1.2h1a8 8 0 0 0 2.5-.7c1.7-.7 3.1-.6 5.8.7.9.4 1.9.6 3.2.7 1 0 2.7.3 3.8.7 2.7.8 10 .5 12.8-.6l.8-.3-1.2-.2c-.7-.1-2.3-.1-3.7.1-3.4.3-8.9-.3-10-1.1-.1-.1-.7-.3-1.1-.4-.5-.1-.9-.3-1-.4-.3-.5-5.1-2.7-6.3-2.8-1.1-.1-1.6 0-4.1 1.1-1.6.7-3.5 1.4-4.3 1.5-.8.1-1.5.3-1.6.4-.1.1-.7-.2-1.4-.7-1.4-1-2.3-1-3.3-.2-1.2 1-2.8 1.9-3.7 2.1-2.9.7-8.7 4.3-8.7 5.5 0 .2-.6.8-1.3 1.2-3.5 2.2-8.3 6.3-9.5 8.2-.9 1.3-.2 1.1 1.6-.6 3.6-3.4 9.4-7.3 13.5-9.2 4-1.8 4-1.4-.1.8-3.8 2.1-8.8 5.8-8.8 6.5 0 .7 3-.5 5.2-1.9.6-.4 2.3-1.3 3.7-2.1 2.7-1.4 3.4-1.9 3.2-2.1-.2-.2-5.8 2.6-6.4 3-.3.2-.5.3-.5.1 0-.9 5-3.6 8.9-4.7 1.3-.4 2.6-.8 2.8-.9.6-.3 6.2 1.3 6.9 1.9.4.4-1.4.8-4.3 1-4.2.3-5.4.7-12.7 4.2-7 3.3-12.2 7.8-16.3 14.1-5.5 8.4-11.8 26.5-12.2 35.1-.2 4.1 0 4 .7-.2 1.5-9.1 4.5-17.4 9.4-26.8 1.6-3.1 3.1-5.2 1.9-2.6-.4.8-1.1 2.4-1.6 3.5s-1.7 3.9-2.7 6.1c-3.9 9-5.5 15.4-6.2 24-.2 3.3.2 2.9.8-.8 1-5.9 3.1-13.1 4.9-16.7 1-2.1 3.1-5.9 3.8-6.8.8-1.1.8-1.2-1.1 3.6-2.5 6.4-4.7 13-4.7 14.1 0 1.2.6.2 1.5-2.5 2.2-6.6 5.2-13.5 7.5-17 1.2-1.9 2-2.7 1-1-4 6.7-5.2 10.9-1.4 5.1.6-.9 1.2-1.7 1.2-1.7.1 0-3.8 7.6-4.2 8.1-.1.1-.9 2-1.7 4.1-4.7 12.4-7 24.1-6.5 32.7.4 5.7 1 11.5 1.5 13.6.1.6.2 1.2.3 1.3 0 1.3-1.5-4.3-1.9-7.1-.2-1.1-.5-2.8-.8-3.8-.3-1-.7-3.1-.9-4.5-.3-1.5-.7-4.2-1.1-6-2.2-11.5-2.1-10.8-2.1-18.1 0-9.5.9-14.4 5.2-27.2 3.2-9.6 3.2-9.8.4-4.3-4.8 9.4-7.9 20.6-7.9 28.3 0 1.7-.1 2.3-.3 2.2-.4-.3-.1-8.7.4-11.7 2.4-13 8.7-25.7 17.6-35.4 1.4-1.5 1.5-1.9.2-.7-4 3.4-14.7 18.5-14.7 20.8 0 .1-.2.4-.4.7-2.4 3.1 3.7-8.8 6.7-13.2 1-1.4 2.1-3.1 2.5-3.7.4-.7 3.5-3.9 6.8-7.1 3.3-3.3 5.9-6 5.8-6.1-.1-.1-1 .7-2 1.7s-2.7 2.6-3.8 3.4c-8.5 6.8-15.7 18-19.3 30-1.2 4-1.2 2.6 0-2.2 2.3-8.9 7.6-20 11.7-24.3 2.4-2.5 3.7-4.3 3.1-4.3-.2 0-.2-.2 0-.5.7-1.4-1.2-.1-3.5 2.3-5.1 5.4-6.3 7.1-10.6 15.3-.7 1.4-1.6 3.1-2 3.7s-1 1.9-1.3 2.7c-1.5 3.7-.5 0 1.4-5.3 1.5-4.1 4.3-9.1 7.4-13.1 1.5-1.9 2.6-3.5 2.6-3.6 0-.1 1-1.3 2.3-2.6 1.2-1.3 2.3-2.5 2.3-2.7 0-.7-.9 0-3.9 3.1-4.8 4.9-10.1 13.3-13.9 22-.3.8-.7 1.4-.7 1.3-.5-.5 2.1-7.3 4.3-11.3.3-.6 1-1.8 1.4-2.7 3.5-6.4 11.8-15.8 18.4-20.8 4.6-3.4 4-3.4-1.9.1-4.6 2.7-10.6 8.7-14.5 14.1-1.7 2.4-2.5 3.2-1.5 1.4.6-1 2.3-3.3 5.8-7.9 4.4-5.7 13.1-12.1 20.9-15.3 2.8-1.2 2.5-1.2-.9-.1-5.1 1.7-9.8 4.3-13.9 7.7-.9.8-2.2 1.8-2.8 2.4-.7.5-1.7 1.4-2.3 1.9-1.5 1.3-.7.1 1.8-2.4 2.8-2.9 6.7-6 10-7.9 3.3-2 3.3-2.1.2-.6-12.6 6-25.4 22.8-30.3 39.6-.3 1.1-.6 2-.7 1.9-.3-.3 3.2-11.6 4.8-15.2 4.4-10.3 10-19.5 15.2-25.5 7.2-8.2 8-9.4 3.9-5.6-11.1 10.3-20.7 25.5-23.8 37.8-1 3.9-1.4 3.6-.5-.4 3.2-14 13.4-29.6 27.5-42.3 1-.9 1.6-1.4 1.3-1.3-23.4 16.2-37.1 47-34 76.9.2 2 .3 4.3.2 5.1-.2 2.2.9 7.5 2.9 13.5 1.9 5.7 2 6.2.5 2.9-4.4-9.6-6.2-19.6-6.1-34 0-6.9-.1-7.8-.5-4.9-.6 3.7-.8 5.9-.8 8.9 0 2.7.1 4.4.6 11.1.3 4.3-.5-.4-1.5-7.7-.7-5.9-.1-11.6 2.2-20.1 1-3.6 2.8-13 2.6-13.2-.2-.2-2.1 4.6-3.3 8.2-2.9 8.9-3.8 19.3-2.5 27.9.6 4.2.6 4.8 0 2.8-3.5-10.9-1.2-27.7 5.8-41.9 1.7-3.5 3.1-7.7 3.1-9.7 0-.5-1.9 2.6-3.4 5.4-5.5 10.5-7.1 16.4-8.6 30.5-.1 1.3-.2.7-.2-2.5-.1-9.9 2.1-17.4 9.3-31.9 1.6-3.3 3.3-6.6 3.6-7.3l.6-1.3-.7.8c-5.2 6.1-11.2 19.9-13.1 30.5-.7 3.7-.9 4.1-.7 1.2.8-10.4 5.9-23.6 12.8-33.4 3.2-4.6 11.2-12.6 16.9-17 4.9-5.2 5.2-5.7.8-2.9m56.2-1.3c0 .1.9.6 1.9 1.2 1.1.6 2.6 1.6 3.4 2.1l1.5 1h7l2.9-1.4c4.3-2 4.2-2.8-.2-1.8-5.1 1.1-9.2.9-13.6-.4-2.6-.8-2.9-.8-2.9-.7m67.6 1.5c-1.1 1.8-1.5 6-.9 9.3 1.2 6.3.5 8.6-4.2 13.4-5.9 6.1-6.5 12.6-1.4 14.7 1.5.6 1.6.5.9-.6-.4-.6-.7-1.4-.8-1.8-.1-.7 0-.6.6.5 1.2 2 1.7 2.4 1.1.7-.3-.7-.5-1.5-.5-1.7 0-.2.2.1.4.7 1.4 3.7 1.3 3.7 6 2.8 4.1-.7 7.1-2.7 7.5-5 .4-2.1.5-5.5.2-6.8-.4-1.6-1-1.8-1-.3 0 5.7-2.3 10-5.6 10.6l-.9.2-.1-3.7c-.1-3.5 0-3.8.7-5.9 1-2.7 1.1-3.3.5-3.4-1.3-.3-3.3 4.9-3.6 9.5-.3 4.3-1.2 5-2.1 1.8-.4-1.6-.4-1.8.1-4.4.6-2.9.8-3.4 2.6-6.5.6-1.1 1.1-2 1.1-2.2 0-.1.3-.8.7-1.4.8-1.5 1.5-3.5 1.5-4.7V95l-.7 1.3c-.4.7-1.5 2.5-2.5 3.9-2.3 3.4-3.1 4.8-3.7 6.6-.3.8-.5 1.3-.5.9 0-1.2 1.3-4.5 2.7-6.6 2.1-3.2 2.8-4.7 3.1-6.2.4-2.1.4-6.4-.1-8.1-.6-2.1-.8-3.9-.4-4.1.5-.3.4-2.8-.1-2.8-.3 0-.5.1-.6.2m37.6.9c-.6.4-1.9 1.4-2.9 2-2.2 1.5-2.6 1.9-1.9 1.9 1 0 6.5-3.9 6.5-4.6 0-.4-.7-.1-1.7.7m-85.6 2.9c-1.5.6-2.8 1-3.6 1-.6 0-2.4.3-3.9.6-1.8.4-3.8.6-5.7.6-3.4 0-3.6.1-1.7.8 6.4 2.3 15 .7 17.9-3.3l.6-.8h-.6c-.3 0-1.7.5-3 1.1m-31.9-.3c.7.6 1.1.7 1.1.3 0-.1-.4-.4-.9-.5l-.9-.3.7.5m-2.8 2.1c.5.2 1.9.4 1.7.2-.1-.1-.6-.2-1.2-.3-.7-.1-.8 0-.5.1m-11.5 1.4c-1.3.2-2.9 1-2.6 1.2.1.1 1.2-.1 2.5-.3 2.7-.5 6.5-.6 6.5-.2 0 .3-.3.4-3.2.8l-2 .3 1.6.2c.9.1 1.8.2 2.1.1.3-.1 2.3.2 4.4.5 4.9.8 5.1.8 2.6-.8-3.1-1.6-7.8-2.5-11.9-1.8M292.3 89c-5.8 3-8.6 4.8-7.5 4.8.4 0 4.8-2.2 6.4-3.3.8-.5 2.1-1.3 2.9-1.7 1.4-.7 1.8-1.2 1.1-1.1-.3 0-1.6.6-2.9 1.3m-73.2-.1c-4.3.7-9.2 1.1-12.1.9-3.3-.2-2.9.2.7.8 4.2.7 11.5.2 14.3-1 2.9-1.1 1.6-1.4-2.9-.7m22 2.9c-10.2 10.9-16.1 14.7-22.8 14.7-1.8 0-.9.3 2.2.7 4.1.5 8.2-.6 9.1-2.5.2-.4.5-.6.9-.6 1.9 0 6.8-4.8 10.4-10.1 3.3-5 3.4-5.6.2-2.2m-17.2-1.1c-.1.1-1 .4-2 .8-1.7.6-1.8.7-.6.5l1.2-.2-.9.4c-1 .5-2.1.5-2.2.1-.1-.2-.6-.2-1.9 0-1.7.3-5.5.2-7-.1-.6-.1-.7-.1-.4.1.7.5-5.2.1-7.3-.5-3.7-1.1-3.9-1.2-4.2-.9-.4.4 1.3 1.4 4.2 2.7l2.1 1 4-.1c3-.1 4.5-.2 6-.6 3-.8 3-.2 0 1-2.5 1-8 1.8-9.1 1.2-.4-.2-1.7-.4-3.1-.4-2.2 0-2.6-.1-4.2-.9-2.5-1.3-2.9-1.2-6.1 1-1.2.8-1.4.8-4.6-.6-1.9-.9-1.6-1-4.1 1.2a8.17 8.17 0 0 1-5.5 2.3c-1.5 0-3.9 1-4.9 2-.5.5-1.6 1.2-2.5 1.6-1.5.7-2.4 1.3-2.2 1.6.1.1 1-.4 2.1-1.1 2.8-1.6 9.2-3.9 6.9-2.5-1.2.8 4.8-.7 7-1.7l1.8-.8 1.2.5c2.1.8 4.2.5 6.3-.8 1.5-1 1.8-1.1 2.6-.8 2.1.8 3.2 1.3 4.7 1.9 2.2.9 5.6 1.4 7.2 1 1.6-.4 1.8-1 .5-1.2-2.1-.4-1.7-.6 1-.6 2.4 0 3.7-.1 6.6-.8.3-.1.7-.4.8-.7.2-.5.2-.5.3-.1 0 .7.7.6 2.6-.5 1.8-1 3.6-3 3.5-3.8 0-.2.2-.6.5-.9s.4-.5.3-.5c-.3 0-.5.1-.6.2m-42.1 1.2c-4.6.7-9.8 2.6-11.4 4.2-1.7 1.6-1.2 1.6 1.5.1 2.9-1.6 5.6-2.8 6.3-2.6.4.1-.2.5-2 1.3-1.4.7-3.1 1.6-3.7 2-.7.4-2.7 1.7-4.6 2.9-3 1.9-6 4.3-5.7 4.6.1.1.9-.5 1.9-1.3 3.3-2.6 6-4.2 10.2-5.9 2.5-1 2-.5-1.3 1.3-3.2 1.7-6.1 3.6-7 4.4-.3.3.6-.1 2-.8 4.2-2.3 7.7-3.9 10.5-4.8 2.6-.9 3.3-1.2 3.3-1.6 0-.3-.9-.3-3.2.2-3.4.7-3.7.4-.5-.7 1.5-.5 4-1.4 5.5-1.9s2.7-1 2.8-1c1.1-.5-2.8-.7-4.6-.4m-9.3.9c-5 1.4-15.5 8.9-12.3 8.9.5 0 1.7-1.1 1.4-1.3-.3-.2 2-2.4 3.5-3.3.6-.4.4-.1-.7 1-1.7 1.7-1.7 1.6 1.1-.2 1-.7 3.5-2 5.4-3 4-2.1 4.7-2.9 1.6-2.1m79.6 1.9c-.9 1-1.8 4.5-2 7.5-.3 5.6-1.6 8.5-5.1 11.3-1.7 1.3-4.4 3.7-7 6.2-2.5 2.4-2.8 7.6-.6 10 1.2 1.3 1.8 1 1.1-.6-.3-.7-.5-1.6-.5-1.9 0-.3.4.3.8 1.4.9 2.3 1 2.4 2.2 2.6.5.1 1.7.2 2.6.4 3.7.6 9.4-2.5 11.1-6 .7-1.5 1.5-5 1.3-5.8-.2-1-.3-.9-.9 1.5-1.4 5.4-6.6 9.5-10.6 8.2-2.9-1-1.7-4.2 3.5-8.9 3.1-2.8 4.3-4.5 4.9-6.8.7-2.6-.3-3.1-1.1-.5-.7 2.3-1.9 3.7-4.1 4.8-1.6.8-4.1 3.1-5.3 4.9-1.2 1.7-1.5 1.9-.9.4.6-1.3 2.4-3.7 4.2-5.3 3.8-3.5 4.6-4.4 5.5-6.2 1.4-2.8 1.8-4.5 1.7-7.2-.1-1.8-.1-2.2-.3-1.6-1.9 6.9-1.8 6.8-4.3 9.4-2.6 2.8-3.4 3.1-1 .4 2.8-3.2 4.1-6.7 4.5-12.3.1-1.7.4-3.5.6-4 1-2.1.8-3.1-.3-1.9m51 6.7c-1.5 1-3.1 2.2-3.6 2.7-1 1.1-.4.9 1.5-.5.8-.6 2.3-1.6 3.4-2.2 1.9-1.2 2.6-1.9 1.8-1.9-.1.1-1.6.9-3.1 1.9m-121.6-.7c-2.2.5-4.6.8-5.2.6-.6-.2-6.6 2.6-6.6 3.1 0 .1-.9.9-1.9 1.7-2 1.5-6.3 5.7-6.1 5.9.1.1 1-.6 2-1.5 3-2.6 9.7-7.1 9.7-6.5 0 .1-1.4 1.1-3.2 2.3-3.8 2.6-5.8 4.3-5 4.3.5 0 4.6-2.3 5.5-3.1.2-.2 1.4-.8 2.5-1.5 1.2-.6 2.4-1.3 2.7-1.6.3-.3 1-.6 1.5-.8.5-.2 1.3-.6 1.8-.9.5-.3 1.3-.7 1.7-.8 1.1-.2 2.3-.8 2.3-1.2.2-.3-.3-.3-1.7 0m-3.3 5.3c.1.2-2.5 1.6-3.1 1.6-.5 0 .1-.5 1.3-1.2 1.4-.7 1.6-.8 1.8-.4m160.2 1.6c-1.9 3.3-20.9 19.9-25.1 22.1-.9.5-.6.2 2.9-2.6 5.6-4.5 13.2-11.4 18.6-16.8 3.4-3.5 4.6-4.4 3.6-2.7m-132.9 5.8c-1.9 2.3 13.1 2.9 15.1.6l.5-.6-5.2.2c-4.1.1-5.7.1-7.5-.2-2.7-.6-2.5-.6-2.9 0m-22.2 0c.2.1-.2.3-1.2.6-.8.2-2.9.9-4.6 1.7-5.2 2.3-5.8 2.1-.9-.2 3.8-1.9 6-2.5 6.7-2.1m94.2 5.9c-.2.3-.7 1.2-1.1 2.1-.8 2-3.4 3.8-4.1 2.8-.4-.7-3.7-.4-4.3.4-.2.3-.4.3-.5.1-.3-.5-2.5-.3-3.6.2-1 .5-4.3 4-4.3 4.5 0 .8 1 .4 2.4-.9 1.9-1.7 2.3-2 4.1-2.3.8-.1 1.5-.5 1.7-.7.2-.3.4-.3.5-.1.1.2.4.3.8.3s.7.3.9.6c.6 1 5 .2 7-1.4 2.6-2 3.6-6.1 1.5-6.1-.3 0-.8.2-1 .5m-4.9.4c-2.1 1.3-8.4 1.4-10.7.2-1-.5-1.7-.3-1.7.4 0 .3-.3.7-.6 1-.7.6-1.6 2.4-1.9 3.6-.1.5-.4 1.3-.5 1.8-.8 2.1.8 1.3 2.2-1 1.9-3.1 3.5-3.9 6.5-3.1 3.4.9 6.8.1 8.8-2 1.5-1.4 0-2.1-2.1-.9m-3.5-.1c-.4.2-.2.2.5.1.6-.1 1.1-.2 1.2-.3.3-.2-1.2 0-1.7.2m-36.9 3.1c-.3.4-.6 1.3-.7 2l-.2 1.3-1.3.1c-1 .1-1.7.4-3 1.4-1.9 1.4-2.4 1.5-3.5.7-1.5-1-3.1-.3-1.7.8 2.2 1.7 3.4 1.8 5.8.5 2.2-1.2 2.8-1 4.7 1.4 1.9 2.3 2.7 2.9 4.5 3.1 2.6.3 2.5-.9 0-2.2-3-1.6-4.9-5.9-3.5-8.3.7-1.5-.1-2-1.1-.8m-26 .1c.4.4 1.7.6 1.7.3s-.9-.6-1.6-.6c-.2 0-.2.1-.1.3m76.2 6.8c-.4 1 1.2 10.6 2.3 13.6.3.8.5 1.9.6 2.6.1.8.4 1.7.8 2.4 1.4 2.1.8 4.5-2.5 9.5-1.2 1.8-1.3 2.4-1.5 5-.1.9-.1 1.7-.1 1.8 0 .1-.9 1.2-2.1 2.4-2.1 2.3-3.8 5.1-3.9 6.8-.1 1.7.5 1.2 1.8-1.3 1-2 1.7-2.9 3.4-4.6 2.3-2.3 2.8-3.3 2.8-5.8 0-1.3 1.4-4 1.5-3 .1.3.2.6.3.8.1.1.2 1.3.2 2.7 0 2.7 0 2.8-2.5 5.5-1.6 1.7-3 4.3-2.7 5 .2.6.8.4 1.5-.4s4.2-4.3 5.4-5.4c1-.9 1.3-1.8 1.9-4.9.6-3.1 1.1-4.2 2.5-5.5 1.3-1.2 1.3-1.2-.1-1.8-.6-.2-1.4-.8-1.8-1.1l-.6-.7.9.5c.5.2 1.6.6 2.4.7 2.5.4 3.4-.2 1.2-.8-1.2-.3-3.5-1.6-3.2-1.8.1-.1.6.1 1.3.4 1.7.7 3 .9 4.1.6l.9-.3v-1.6c0-1-.2-2-.5-2.7-.5-1.1-.6-1.1-1.1 1l-.3 1.2-1.8-.3c-4.1-.7-7.3-4-8.2-8.5-.7-3.2-1.2-6.3-1.4-8.6 0-3.1-.9-4.8-1.5-3.4m-3.4 1.1c-.1.2 0 .7.3 1 2.2 3.4 1.9 8.7-.9 12.5-.5.6-1 1.6-1.2 2.2-.3.8-.4.9-.4.4 0-.4.5-1.8 1.2-3.2.7-1.4 1.3-3.2 1.3-3.9l.2-1.3-.5.7c-.3.4-1.1 1.4-1.8 2.3-2.3 2.8-2.4 3.3-2.2 8 .3 5.9.3 5.9-.5 7.1-1.3 1.9-2.6 2.3-7.3 2.2-3.8-.1-4.1 0-5.5.6-2.5 1.1-2.5 2 0 1 1.4-.6 1.6-.6 3-.2 2.5.6 7.6.5 9.2-.2 1.3-.6 1.3-.6.9 0-1.1 1.6-3.5 2.4-7.1 2.4-3.4-.1-6.2.5-6.7 1.3-.4.8 0 .9 5.6 1.2 6.1.3 6.6.2 8.9-1.2.9-.6 2.2-1.3 2.7-1.6 2.4-1.2 2.7-4.2.7-9.6-.7-1.9-.5-2.8 1.1-7 2-5.4 2.2-6.9 1.4-10.4-.7-3.5-2-5.6-2.4-4.3m-56.9 1.8c-1.7.7-3 1.1-5.3 1.4-1.7.2-3.5.5-4 .6-2.1.5-4.7.8-10.2 1.1-5.1.2-6.2.4-8.9 1.1-1.7.4-3.6.9-4.3 1.1-6.8 1.4-11.3 4.2-16.5 10.5-1.1 1.3-2.4 2.6-2.9 2.9-.6.3-.9.7-.9 1.1 0 .7-2.8 5.4-4.1 6.9-1.8 2.1-4.6 8.8-5.6 13.4-.4 2-.4 2.5.4 3.4.3.3.7 1.4.9 2.4.2 1 .7 2.5 1 3.4 1.2 3.5 3 17.1 3.5 26 .8 14.6 7.6 26.3 23.6 40.1 1.6 1.4 4.7 4.3 6.9 6.4 6 5.8 11.1 9.5 17.5 12.6 2 1 4.3 2.2 5.2 2.7 2.4 1.4 3.1 1.7 4.1 1.5 2.2-.5 7 3.3 11.1 8.8 2.1 2.9 2.7 3.4 3.2 3.3.6-.1 4.6 5.4 4.6 6.2 0 .1.2.3.4.4 1 .4.3-2.1-1.5-4.6-.6-.9-1.3-2.1-1.5-2.6s-.6-1.5-.9-2.2c-1.7-3.3-2-7.4-.9-12.8.5-2.8.4-5.7-.4-7.8-.7-1.8-1-1.9-1-.4.1 2.1-.4 5.9-.9 8-.4 1.7-.5 2.8-.4 5.5l.1 3.4-.6-1.1c-.3-.6-.6-1.6-.6-2.2 0-.6-.1-1.5-.3-2-.4-1.4-.3-2.7.3-5.9.5-2.6.5-3.1.2-5.5-.4-3-.5-7.6-.1-8.7.4-1.2-.5-.9-1.1.4-.9 1.9-1.2 5.2-.6 7.4.4 1.7.4 1.9-.1 4.7-.6 3.1-.6 5.4-.3 8.6.2 1.9.2 2-.2 1.5-.8-1.1-1.5-3.8-1.5-6.5v-2.6l-.8.8c-.7.8-3.1 1.9-3.4 1.6-.1-.1.2-.3.6-.6 2-1.2 2-2.2.1-2.4-.7-.1-1.7-.4-2.2-.7l-.9-.5h1.3c2 0 3.7-1.2 4.1-2.7.2-.9-.2-1-1.3-.1-.9.7-2.7 1-2.1.3.3-.3.1-.4-1-.3-.7.1-1 0-.7-.1s.7-.3.9-.5c.2-.2.7-.4 1-.5 1.2-.4 3.9-4.6 3.8-6v-.7l-.2.7c-.6 1.9-4 4.1-5.6 3.7-.6-.2-1.3-.2-1.7 0-.3.1-.7.2-.7.1-.1-.1-.4.1-.8.3-1.9 1.2-15.5-6.6-20.2-11.6-.1-.1-.7-.6-1.5-1.2-2.9-2.3-4.1-3.6-8.3-8.4-3.6-4.2-3.8-4.5-.9-2.3 3.5 2.7 5.9 4.3 9.5 6.3 2.2 1.2 5.1 3 6.4 4 3.2 2.4 5.9 4 10.2 6l3.6 1.7 3-.1 3-.1 1.6-1.5 1.6-1.5h-1.1c-.6 0-2.8 0-4.9-.1-3.5 0-4-.1-5-.6-1.5-.8-1.4-.8.8-.3 2 .5 2.3.5 6.5-.2 1.4-.2 2.9-.3 3.4-.3.7.1.9 0 1-.3.2-.6-1.2-1.3-3.7-1.9-1.8-.5-1.8-.5-.9-.6l.9-.2-.9-.3c-.9-.3-.9-.3.5-.2.8.1 1.8.3 2.3.5.5.2 1.2.4 1.7.5l.8.2-.9-.9c-.6-.6-1.9-1.4-3.5-2.1l-2.6-1.1h-10.4l-3.5-1c-16.5-4.9-25.8-12.1-28.2-21.8-.3-1.4-.7-2.7-.8-3.1-.5-1.6 1-2.2 6.3-2.7 1.3-.1 2.9-.4 3.6-.5 13.1-3.1 13.7-3.4 18.4-8.4 1.7-1.9 6.7-8.5 7.1-9.6 1.2-2.8.4 5.8-.9 10.5-2.3 7.8-1.9 10.5 1.9 12.4 1.1.5 2.6 1.6 3.3 2.3 4.1 4.1 10.5.8 9.9-5.1-.1-.9-.3-1.8-.4-1.9-.5-.7-1.4-3.4-1.9-6.3-.3-1.7-.9-4.5-1.2-6.3-.8-3.9-1.5-8.4-1.6-11-.1-2.3-.6-2.5-2.4-1.1-1.2.9-1.4.8-.7-.3.7-1 1.5-1.6 2.4-1.7.7-.1.9-.3 1-1.1.1-.5.2-1.3.3-1.6.2-.7-1-.3-1.9.7-.6.6-1.2.7-1.2.2 0-.2-.3 0-.6.4-1.7 2-2.2 1.7-.7-.4 1.3-1.8 1.7-2.2 2.8-2.6 2.2-.8 3.6-1.6 3.3-1.9-.4-.4-2.6-.3-3.9.2-1.7.6-1.7.4-.1-.9 3.8-2.9 7.1-2.6 7.1.6 0 1.3.5 2.4 1.1 2.4.4 0 .4-2.6 0-4-.4-1.2-1.4-2.1-2.2-1.9-.4.1-.8 0-1.1-.2-1.3-1-4.6-.3-5.8 1.2-.4.5-.7.7-.8.5-.3-.5 1.7-2.7 2.9-3.2 1.3-.6.8-1-.8-.7-.7.1-.9.1-.8-.2.1-.2.5-.3 1-.3s1.4-.2 1.9-.4c1.1-.4 2.1.1 4.9 2.2.8.6 1.2.8 1.4.5.7-.7-3.4-4.3-5.1-4.5-.6-.1-1-.2-1-.4 0-.3-3.1-.3-3.8 0-.3.2-.5.2-.5.1 0-.4 1.8-1.1 3.3-1.3 2.8-.3 3.5-.3 4.2.4.3.3.7.6.9.6.1 0 .6.4 1 .8.4.5 1 .8 1.4.8.8 0 1.2-.5.5-.7-1-.3-1.3-.6-2.3-2-1.5-2.2-1.8-2.2-6.8-2.2-4.8 0-6.7-.5-2.8-.7 1.7-.1 2.4-.3 4.1-1.2l2-1-1.2-.1c-1.5-.1-.9-1 .8-1.3 1.1-.2 1.3-.5.5-.7-.5-.2-1.7.2-3.8 1.1-1.6.7-2.9 1.1-3.6 1.1-1.1 0-.7-.4 1-1.2 1.9-.8 2-1 .4-.8-1.5.2-1.5-.1-.1-.7.6-.3 1.4-.8 1.8-1.2l.6-.7h-1.8c-2.4 0-2.1-.3 1.1-1.2 2.4-.7 2.7-.8 3.5-1.8 1-1.2.9-1.2-.5-.5-1.2.6-2.8.7-4.9.1-2-.5-1.9-.5-3.4.7-2 1.6-2.5 1.2-.7-.5l1.5-1.5 2.5-.1c2.3-.1 4.2-.8 4.2-1.6 0-.1-1.5-.2-3.4-.2-5-.1-8.9-.7-8.9-1.3 0-.1 1.1-.1 2.5 0 3.1.2 6.5-.1 7-.6.2-.2.5-.3.6-.3.6.4 4.2-1.7 3.7-2.1-.3-.3-.6-.3-1-.1-.8.4-2.9.3-3.1-.2-.2-.4-.5-.4-2.9-.1-3.4.4-6.9 0-9.1-1-1.5-.7-.9-.9 3.3-1 4.6-.1 5.7-.4 10.2-2.3 4-1.7 5.5-1.9 9-1 2.6.7 3.9.5 3.9-.4 0-.6-.7-1.1-1.1-.8-.2.2-1.1.4-2.1.5l-1.8.2-1.3-1.2c-1.9-1.7-4.3-2-4.3-.5 0 3.3-11.2 5.1-19.1 3.1-4.9-1.3-9.1-.7-12.6 1.6-1.7 1.1-2.2 1-.5-.2 3.9-2.8 8.4-3.7 15.6-3.1 5.3.5 10.9-.8 15.9-3.5.4-.2 1-.4 1.3-.4 1 0 1.8-.3 1.8-.7 0-.8-2.7-1-3.7-.2-2.3 1.7-5.8 2.5-11.4 2.6-2.2 0-4.4.1-4.9.3-.9.2-.9.2-.4-.2.7-.6 2.4-1 7.5-2 4.7-.9 7.7-1.8 9.3-2.8 1.9-1.2 5-.9 5.9.6.5.8 1.2.8 1.2 0-.5-2-5.7-3.5-9-2.1m78.7 1.2c-.5.4-1 .8-1.2.8-.2 0 .2-.4.7-.8 1.3-1 1.6-1 .5 0m-30.6.1c-.2.3-.8 1.6-1.2 2.9-1.3 3.3-2.1 5.1-2.5 5.1-.5 0-4.9 4.3-5.2 5.1-.4.9 0 2.4.9 3.4.4.5.7.9.7 1.1 0 .5 3.2 1.8 4.3 1.8 4.5 0 6.6-4.3 6.3-12.5-.3-5.1-2-8.9-3.3-6.9m83.4.7c-1.4.5-6.3 5.3-7.1 6.9-.5 1-.6 1.6-1.2 6.2-.7 5.2-2.3 8.9-4.8 11.7-.8.9-1.7 1.9-1.9 2.3-.2.3-.9 1.1-1.4 1.7-1 1.1-1.2 2.1-.2 1.6s6.4-6.1 7.2-7.3c1.4-2.2 1.4-2.3 1.1-1.3-.7 1.7-2.2 4.4-3.2 5.7-1 1.2-1.1 1.7-.5 1.9.6.2 4-4.8 5.5-8 .9-1.8 1.9-5.7 2.5-9.3.5-3.2 1.4-4.4 4.6-6.6 2.7-1.8 3.8-1.8 6.1 0 .8.7 1.3.8 1.8.7.5-.1.7-.1.7.2 0 .6.6.8 1 .3 1.3-1.8-1.1-6-3.8-6.8-1.7-.5-5.1-.4-6.4.1m-99.4 3.7c0 2.8-.9 6.5-1.6 6.5-1.2 0-4.7 6-4.8 8.3-.1 1.6 1 3.1 1.8 2.5.3-.2.6-.2 1.1 0 2.6 1 6.9-.8 8.4-3.6.6-1 .6-7.3.1-8.5-.4-.9-1-.8-.9.1.5 5.5.3 6.6-1.2 8.3-.9 1-3.2 2-3.7 1.5-.9-.8-.2-3 1.5-4.9.8-.9 1.2-1.5 1.3-2.3.2-1.4-.2-1.4-.9.1-.4.9-.9 1.3-1.8 1.8-.8.4-1.4.9-1.7 1.6-.3.5-.5.9-.5.7 0-.5 1-2 1.6-2.3 1.5-.8 3.1-5.9 2.9-9.1-.5-4.2-1.6-4.6-1.6-.7m112.4-2.2c-1.1.6-1.8 1.5-1.5 2.1.5.9 2.3 2 2.9 1.9.6-.2.6-.2.6 2.3 0 2.4.2 3 .9 2.4.3-.3.4-.2.5 0 .1.2.2.8.4 1.2.1.5.4 2 .5 3.4.3 3.8 1.5 3.9 1.9.2.3-2.6.6-1.4.6 2.2 0 3.8.8 4.6 1.7 1.6 1.2-4 .1-9.4-2.2-10.9-.8-.6-.9-.8-1.1-2.3-.3-3.7-2.6-5.4-5.2-4.1m-95.1 3.9v3.5l-1 1.3c-.5.7-1.4 2-1.8 2.9-1 1.7-1.9 2.3-3.6 2.3-.9 0-1 0-.5-.4s.5-.4.1-1.2c-.7-1.3-.6-1.8 1.2-3.7 2.2-2.3 3.4-4.2 4.3-6.7 1.1-2.7 1.3-2.3 1.3 2m-30.3 2.3c-.1.1-.3 1-.6 2-1.1 4.2-2.6 6.2-6.5 8.9-4.2 2.8-5.1 4.1-4.7 7.1.8 6.4 8.7 5.8 12.1-.8 1.1-2.1.3-3.2-.8-1.2-.7 1.3-2.8 3.5-3.6 3.7-.6.2-.6.1.2-1.2 1.5-2.4 1.3-4.7-.2-2.4-.8 1.2-2.9 3.4-3.3 3.4-.8 0 .6-3.4 2.1-5.1 4.1-4.5 5.5-6.8 5.5-9.1 0-.9.2-2.3.4-3.2.3-1.5-.1-3-.6-2.1m85.8 1c-.7.5-1.2 1-1.2 1.1 0 .1-.9 1.1-1.9 2.3-8.6 9.7-10.9 20.3-6.7 30.3 1.6 3.7 4.5 4.9 8.8 3.6 2.7-.8 6.7-4 4.3-3.5-1.5.3-5.9-3.6-7.5-6.9-3.3-6.7-1.1-18.9 4.7-25.6 2.2-2.3 1.9-3.1-.5-1.3m33.9 1c-.1.2.4 1.2 1.1 2.2.7 1 1.2 2.1 1.2 2.4 0 .6 0 .6-.3 0-.5-1-1.9-2.3-2.4-2.3-.6 0-.6.3.2 2.7.9 2.8 1.3 6.1.8 8l-.4 1.5v-1.4c0-2.1-.8-4.3-1.4-4.3-.4 0-.5.1-.4.9.5 2.8.5 3.1-.1 4.9-.8 2.4-1.6 3.7-3.4 5.8-4.1 4.6-5.5 9-4.2 13.6.7 2.6 1.7 2.7 1.7.1 0-3.4 1.5-7.1 3.1-7.8 1.3-.5 7.3-6.7 8-8.1 1.9-4.2 1.7-11.2-.3-15.2-1-1.9-3-3.7-3.2-3m17-.1c-.4.1-.7.7-1 1.4-.4 1.3-.3 1.5.6 1.8 1.2.4 1.9 6.6 1.1 9.9-.7 2.9-.7 3.9-.3 3.9.7 0 1-.4 1.8-2.1l.8-1.7-.2 1.1a7.5 7.5 0 0 1-2.5 4.5c-2 1.6-.9 2.1 1.4.6 3.6-2.4 5-11.4 2.6-17.3-.6-2-2.3-2.8-4.3-2.1m10.2 4.3c-2.3.1-2.4.2-2.4.8 0 .6.1.6 2.1.7 7 .4 12 3.4 15.3 9.3 1.2 2.1.9 2.2-.5.1-3.2-4.9-8.6-7.7-14.7-7.7h-2l.1 1.3.1 1.3 2.4.2c10.1.7 16.3 8.6 13.6 17.3-1.5 4.8-6.4 7.1-10.8 5l-1.5-.7 1.5.1c4.1.4 8.7-3.4 8.8-7.1 0-5-4-8.6-8.2-7.5-2.5.7-4.4 2.7-2.5 2.5 4.3-.4 6.1.3 7.7 2.9 2.9 4.8-4.1 9.9-9 6.5-2.3-1.5-3-1.1-1.3.8.6.7 1.1 1.3 1.1 1.4 0 .3 2.6 2.2 4.4 3.1 4.9 2.5 12.9-.6 14.8-5.8 2.8-7.4-.6-18.6-6.6-22.2-4-2.3-6.1-2.7-12.4-2.3m-202.3 2.2c1.4.2 2.7.6 8.5 2.4 7.7 2.4 12.9 7.6 16.8 16.8.5 1.1 1.9 6 1.9 6.5 0 .1-.8-1.5-1.9-3.5-1.3-2.5-2.3-4.2-3.3-5.3-1.7-1.9-2-1.6-.4.5.6.8 1.3 2 1.6 2.7 2.3 5.2 4.8 11.9 4.8 12.6 0 .9-.5-.1-2-3.5-1.7-3.9-4.6-9.1-5-8.8-.2.1-.2.3 0 .7.9 1.7-.8-.1-3.4-3.5a23.2 23.2 0 0 0-4.8-5c-.4-.3-1.7-1.2-2.9-2-4.7-3.4-11.8-6.3-16.1-6.5-1.4-.1-3.4-.3-4.4-.4-1.4-.2-1.9-.2-2.4 0-.9.6-.8.2.4-1.1l1.1-1.3 2.9-.2c2.5-.2 3.2-.1 4.9.4 2.1.6 3.2.7 3.2.4 0-.3-2.7-1.3-4.4-1.7-.9-.2-2.1-.4-2.8-.5-1.4-.3 5.8-.1 7.7.3m139.4.6c-.9 1.5-.9 6.2 0 9.7 1.6 6 3.9 9.4 7.5 10.5.8.3 1.5.6 1.6.8.7 1.3 2-.5 2.2-3.2.2-1.9-.1-2.3-1.9-2.3-4.4 0-8.9-6.4-9-13 .1-1.6-.1-2.9-.4-2.5m-101.3 1.4c-.6.6-.6.7-.1.4.7-.3 1.3-1.1 1-1.1a3 3 0 0 0-.9.7m25.2 7.2c-2.6 1-5.9 2.7-6.8 3.4-.4.3-.8.6-1 .6-.6-.1-.9.1-2.2 1.2-3.8 3.3-9.4 2.7-10.7-1.2-.2-.5-1-.1-1 .4 0 1 2.8 4.3 3.8 4.5 3.6.7 4 .8 4.8.5.8-.3.8-.3.5.2-3.4 4.8-4.3 6.8-5 11.2-.9 5.2-.6 8.5.6 7.5.3-.2.4-.8.4-1.8 0-10.7 7-20.4 17.8-24.4 1.7-.6 3.4-1.9 3.2-2.5-.2-.5-2.5-.3-4.4.4m2.6 4.2c-3.3 1.1-4.8 2.2-8 5.6-4.8 5.2-8.5 17.4-6.8 22.8.5 1.6 1.1.5 1.3-2.2.6-8.8 4.2-16.1 10.5-21.2 1.6-1.3 3.2-2.6 3.6-3 .4-.4 1.3-.9 2-1 1.4-.4 2.2-.9 2.2-1.5 0-.7-1.8-.5-4.8.5m132.1 0c-.8.6-1.2.7-2.1.6-1.3-.2-1.8 0-1.8.6 0 .7 1.2 1.4 2.4 1.4 2.3 0 5.2-2.5 3.6-3.1-.7-.3-1-.2-2.1.5m-17 0c-.2.4.1.7.4.5.3-.2.3-.9 0-.9-.2 0-.3.2-.4.4m7.7 1c-.5.3-1.3.8-1.6 1.1-.9.6-2.9.9-3.9.4-1-.4-1.2-.2-.8.5.9 1.7 4.2 1.7 6.9.1 1.9-1.1 2.2-1.6 1.6-2.1-.7-.5-1.2-.5-2.2 0m-197.6 3c1.5.7 1.7.7 6.9.8 2.9 0 6 .2 6.7.4 2.7.6 6.7 2.2 9.1 3.6 1.3.8 2.5 1.4 2.7 1.4 1.4 0 5.4 6.5 7.2 11.9 1 2.9.9 3.2-.6 2.9-1.3-.2-2.6.5-4.6 2.8-6.2 6.9-8.5 8.1-19.5 9.8-3.7.6-7.7-.5-11.2-2.9-4.1-2.8-9.5-10.8-9.8-14.6l-.1-1.5.8 1.9c3.2 7.9 11.7 13.7 20.1 13.7 1.5 0 2.3-.1 2.2-.3-.1-.1.1-.3.4-.3.6 0 1.3-.7.9-.9-.1-.1-1.2-.3-2.3-.4-5-.6-9-2.6-12.1-6.1-1.8-2-3.8-4.7-4.3-5.7-2-4.4-3.2-9.4-3.2-12.8v-1.6l1.2 1.2c1.3 1.4 3.1 2.4 3.7 2.1.4-.2.6-.6.2-.6-.3 0-3.3-2.7-3.3-3 0-.1.4 0 .8.3 2.3 1.6 6.4 3.1 6.4 2.3 0-.3-.2-.4-.6-.4-1.1 0-2.1-.9-3.3-3-.7-1.3-.6-1.4.8-.3 2.1 1.5 4.2 2.2 6.8 2.3 1.9.1 2.1-.5.3-1-2-.5-4.2-2-5.7-3.8l-.8-1 1.4 1c.6.7 1.9 1.5 2.8 1.8m93.4 2.3s0 1.4-.1 3c-.1 5.1-3.2 11.5-6.8 14.2-.7.5-2.1 1.6-3.1 2.4-5.2 3.9-6.4 4.5-11.2 5.8-5.1 1.3-5.5 1.5-5.5 2 0 1.2 12.2-1.8 16.1-3.9.5-.3 1.6-.8 2.5-1.1 1.6-.6 4.3-2.8 4.6-3.7.1-.3.6-1.1 1-1.8 3-4.4 4.8-12.8 3.5-15.9-.3-.8-.9-1.4-1-1m66.3 5a7.5 7.5 0 0 1-3.8 4.2c-3.1 1.6-4.7 4.4-5 8.9-.2 3.4-.4 2.9-.6-1.4-.2-3.9-.2-3.9-1-3.7-.5.1-.6.3-.4.9.8 3 .6 4.2-.3 2-.9-2.3-3.6-4.4-4.5-3.6-.5.4 0 1.2 1.1 1.8 1.5.7 2 2 3.4 9.7.3 1.5.9 4.6 1.4 6.8l.9 4-.2 6.8c-.1 3.7-.3 7.6-.4 8.5-.1 1-.3 2.4-.4 3.2-.2 1.3-.2 1.4.3 1.3 1.5-.3 3.5-16.7 2.8-23.2-1.1-9.7.5-18 3.8-20.1 2.5-1.6 4.5-4.4 4.5-6.4-.4-1.1-1.1-.9-1.6.3m-58.8.4c-2 2.3-3.2 6-3.4 10.4l-.1 3.3-2.1 2.3a84.4 84.4 0 0 1-4 4.3c-1 1.1-2.2 2.7-2.7 3.5-.4.8-.9 1.4-1 1.4-.1-.1-.3.5-.5 1.2s-.5 1.9-.7 2.7l-.4 1.5v-1.8c0-3.9 1.4-7.8 3.8-10.1 4.6-4.4 4.6-4.3 5.2-6.1 1.1-3 1.6-5.4 1.9-8.5.2-1.7.4-3.5.4-3.9.1-.7.1-.9-.4-.9s-.9 1.3-1.7 5.7c-.6 3.7-2.3 6.4-5.7 9.9-4.8 4.8-6.7 11.6-5.4 19.9.4 2.6.5 5.9.2 7.3-.2.7-.2.7-.4-.7-.1-.8-.5-2.4-.9-3.5-.4-1.2-.7-2.7-.7-3.7 0-.9-.1-1.7-.3-1.7-.8-.2-.8 3.6 0 6.9.7 3.1.5 5.5-.7 9.1-1.3 3.8-1.2 4.1.6 2.3 4-3.9 5.7-8 5.7-14.3.1-5 .4-6.6 2-10 1.5-3.2 5.8-7.5 8.2-8.2.9-.3 1.1-1.3 1.1-6 0-2.6.1-4.8.3-5.1.1-.3.3-.8.3-1.1 0-.4.6-1.9 1.3-3.4 2.2-3.5 2.1-4.9.1-2.7m-100.9.3c-2 .8-6 3.2-6 3.6 0 1.4 5.7 7.9 8.1 9.1 1.6.8 1.7.7 1.1-1.4-.6-2.3-.6-7.4 0-9.9.2-1 .4-1.9.4-2.1 0-.5-1.5-.2-3.6.7m12.2-.8c-.4.1-.2 7.3.2 9 .3 1.2.6 2.2 1.6 4.7.5 1.3 2.7-6.1 3-10.3.2-2.7.1-2.9-2.1-3.1-.9-.1-1.8-.2-2.1-.3h-.6m165.2 3.7c0 .7.7 1.8 2.1 3.2.7.7 1.5 1.7 1.6 2.2.3 1 .4.7-1.8 6.4-1.4 3.6-1.8 6.1-1.7 11.6v6.1c-.1 5.8 1.9 24.5 3.4 32.7 1.4 7.6 2.5 12.3 3.2 13.9.3.6.8 1.9 1.2 2.9.4 1 1.2 3 1.9 4.4.6 1.4 1.5 3.5 2 4.6.8 1.9 1.4 2.6 1.7 2.1.2-.4-.9-3.7-3-8.4-1.3-3.1-3.2-9.2-3.2-10.7 0-.4-.4-2.9-.9-5.3-.5-2.5-1-5.2-1.1-6l-.1-1.5.3 1.3c.1.7.4 2.1.6 3.1.8 4 3.3 13 4.7 17.3.3 1 1.6 4 2.8 6.7 3.3 7.4 4.6 10.9 5.3 14.7 1.4 7.1 8 21.6 9.2 20.3.4-.4 0-1.7-2.4-7-1.7-3.9-2.8-6.7-2.6-6.8.2-.2 3.9 6.5 5.7 10 3.2 6.4 3.4 7.5 1.3 8.6-1.7.9-2.8 2.1-3 3.4-.4 1.9 1.1 2.7 1.8 1 .5-1.2 1.3-2 2.6-2.5 2.6-1 3.7-4.1 2.2-6.1-.5-.6-.9-1.4-2.6-5.1-1-2.2-2.1-3.7-2.9-3.9-.5-.1-1-.9-2.4-3.8-1-2-2.2-4.3-2.7-5.1s-1.3-2.8-1.8-4.5c-.5-1.6-1.2-3.5-1.6-4.1-.4-.6-1-2.4-1.5-3.9s-1.8-4.9-3-7.4c-3.3-7.1-4.7-11.5-5.8-17.4-.3-1.7-.9-4.2-1.2-5.6-.4-1.4-.6-2.9-.6-3.4s-.3-1.8-.7-2.9-.7-2.7-.8-3.6c-.1-.9-.3-3.4-.4-5.4-.3-4-.7-6.6-1.9-14.1-1.3-8.1-1.1-13.3.9-19.3 2.1-6.4 1.6-9.3-2.1-11-.5-.2-1.1-.7-1.5-1.1-.5-1.1-1.2-1.2-1.2-.6m-17.4 1.1c-.4.5-1 1.7-1.4 2.6-.4.9-.9 2.1-1.1 2.5-.7 1.6-1.2 4.5-1.6 10.2-.2 3.2-.5 5.9-.5 6-.5 1.4-.5-10.7 0-13.6.1-.8.1-1-.2-.9-1.1.4-1.7 6-1.3 14.1.1 3.4.1 6.5 0 7.7-.1 1.1-.4 3.3-.5 4.8-.1 1.5-.5 3.9-.8 5.1-.3 1.3-.6 2.6-.6 2.9 0 .7-2.6 8-3.1 8.5-.2.2-.6.8-.8 1.3-.3.5-.9 1.4-1.4 2-3.1 3.8-8.9 19.6-8.9 24.2 0 .6-.1 1.3-.2 1.5-.4.7.2 1.3 2 1.9 2.6.8 3.3.6 3.4-1 0-1.4 3.7-16.7 4.1-17.1.2-.2.1.2-.4 2.5-.9 3.7-1.3 6.6-1.4 10.2-.1 5.4.7 4.4 1.5-1.7.9-6.8 3.2-15 6-21.8 2.2-5.4 4.2-12.1 5.8-19.1.9-4 1.4-18.3.6-18.3-.4 0-.5.8-.8 5.5-.2 2.6-.4 5.7-.6 7l-.3 2.3-.2-2.1c-.1-1.2-.3-2.3-.4-2.4-.1-.2-.1-1.2 0-2.5.1-1.2.4-4.4.6-7 .4-6.9 1.4-11.4 2.9-14.2 1.2-2.2.9-2.9-.4-1.1m-136.7.3c.4 1.7.3 6.8-.2 8.1-.5 1.5-.5 1.5 1.6.1 1-.7 2.2-1.3 2.7-1.4 1.6-.3 1.6-.7 0-3.2-2-3.4-4.6-5.6-4.1-3.6m26 .5c-.3.3-.2.7 1.1 2l1.2 1.3-.3 1.3c-.4 1.7-.4 2.8 0 3 .1.1.3 1 .3 2 0 5.4 1.1 14.3 2 16.1.8 1.5 1.8 6.4 1.6 7.8-.1.7-.2 1.7-.3 2.2s-.4 1.3-.8 1.8c-.8 1.1-.9 2-.3 2 .4 0 1.5-.9 1.5-1.3 0-.1.3-.7.7-1.2.4-.5.7-1.2.7-1.4 0-.3.2-.8.4-1.2.9-1.7.4-4.8-1.7-9.4-2-4.6-3.8-17.4-2.7-20.1.2-.4.3-1 .3-1.3-.1-1.4-3-4.2-3.7-3.6m52.7 6.6l.1 4.4-.8 1.1c-.4.6-1.6 1.6-2.5 2.2-5.6 3.7-6.9 6.6-6.6 15 .1 2.9.1 5.4 0 5.7-.3.7-1.4-5-1.4-7 0-1.5-.3-1.9-1-1.4-.5.4-.4 2.3.1 6 .2 1 .3 3.7.4 5.8s.1 3.9.1 3.9.6-.9 1.2-1.9c2.4-4 3.1-6.5 3.1-10.9 0-4.2 3.5-9.4 8.9-13.2 2.4-1.7 2.6-2.1 1.8-4.2-1-2.8-2.6-7.8-2.8-8.8-.4-2.2-.7-.9-.6 3.3m68.1-.9c-.1.1 0 .9.1 1.8.4 2.1.3 2.7-1.2 5.9s-1.7 3.3-.7.5c.9-2.9.9-6 0-6.4-.3-.1-.4.2-.4 1.4s-.4 2.7-1.4 6.1c-1.1 3.3-1.5 5.2-1.7 7.1-.5 5.1-.6 8.3-.3 10.6 1.2 9.5 1.3 15.3.2 22.1-.3 2-.2 2.9.4 2.3.3-.3 1.3-5.5 1.6-8.6.3-2.6.2-7.7-.2-12.9l-.1-1.9.4 1.3c1.1 3.6 1.2 10.5.3 17.1-.5 3.5-.6 11.8-.1 12.2.5.5.6 0 .7-2.5.2-4.1.4-6.7.8-8.8l.3-2 .2 2.3c.6 5.7 0 19.3-1 23.2-.9 3.5-4.3 13.1-5.8 16.4-2.2 5-3.5 6.8-7 10.1-5.7 5.5-6.9 6.9-6.9 8.3 0 1.2 1.2.6 3.4-1.8 1.1-1.3 3.1-3 4.2-3.8 1.2-.8 2.9-2.1 3.9-2.8 4-2.9 8.3-10.4 9.2-16.2.2-1.3.6-3.3.9-4.3 2-6.9 2.4-9.5 2.4-17.9 0-10.3-1.4-22.7-3.3-30.6-2.1-8.5-1.9-11.7 1.1-18.6 2.1-4.8 2.3-5.9 1.4-8.2-.8-1.6-1.1-1.9-1.4-1.4m-113.9 4.2c-.1.2-.1 1.4 0 2.7.1 2 .1 2.2-.2 1.4-.6-1.3-1.3-1-1.2.6.1 2.3.9 7 1.3 8.1.2.6.3 1.4.2 1.8-.1.6.2 1.4 1.3 3.6 1.4 2.8 1.4 3 1.4 5.1 0 1.2.1 2.2.2 2.2s.3-.1.4-.1c1.6 0 .9-6.1-1.4-11.7-.7-1.7-1.2-4.1-1.6-7.2-.2-1.5-.2-1.5.8 1.1.5 1.4 1.7 4.2 2.6 6.1 2.6 5.5 3.4 9.4 2.2 11-.3.4-.5.8-.4.9.4.4 1-.2 2.2-2l1.3-1.9-.3-1.7c-.3-1.8-2.2-5.9-4.2-8.9-1.5-2.3-3-6.1-3.4-8.5-.5-2.9-.5-3.1-.8-3.1-.1.1-.3.3-.4.5m-107.6 6.5c-.3 12.1-4.1 24.2-10.5 34.1-.7 1.1-2 3.3-2.9 4.8s-1.9 3.1-2.2 3.5c-.7.8-.7.9 3.1-6.1 3.2-5.9 6.2-12.7 6.2-14.2 0-.3-1.8 2.7-4.3 6.9s-4.7 7.8-7.7 12.4c-4.8 7.3-6.6 11.6-9.5 22.3-2.1 7.8-2.3 15.6-.5 22.1 2.1 7.8 2.7 9.6 3.9 12.1.6 1.2 1.6 3.1 2.4 4.1 2.6 3.8 7.2 12.1 7.2 12.9 0 .1.2.6.5 1.2s.9 2.1 1.4 3.3c1.5 4 1.5 3.1 0-2-.6-2-3.5-7.7-6.2-12.3-2.2-3.6-3.6-6.6-4.5-9.3-1.4-4.2-1.2-4.6.4-.9 1.6 3.8 3.3 6.9 6.2 11.5 2.9 4.6 5.6 9.8 6.4 12.4.6 1.9.9 2.2.7.6-.1-.8-1.4-3.7-3.4-7.7-10.5-21.2-12.8-28.3-12.6-38.9 0-2.1 0-2.1.4 1.3 1 10.2 3.1 17.2 7.1 24.9 3 5.8 6.4 12 6.5 12 .3 0-2-4.9-4.8-9.8-3.1-5.7-3.8-7.4-5.7-15.7-1.9-8.2-1.9-22.7.1-26 .4-.8.4-.2-.2 4.3-.3 2.3-.3 8 0 11.7.1 1.4.2 2.4.2 2.1 0-.2.2-1.4.3-2.7.1-1.2.4-4.2.5-6.7.2-3.5.4-5.1 1.1-7.5 1.5-5.9 2.2-6 1-.2-1.1 5.5-1.2 12.9-.1 19.3 1.3 7.6 1.5 8.2 6.2 18 1.4 2.9 2.8 5.9 3.2 6.8s1.1 2.5 1.7 3.6c.9 1.9 2.3 5.6 3 8.3.3 1 .4 1.1.6.7.5-.9-1.4-7.2-3.3-11-5.8-11.6-10.2-30.6-9.1-39.3.2-1.6.2-1.5.4 2.5.1 2.3.5 5.9.8 7.9l.6 3.6v-6.5c0-9.2.6-13 3.2-21.3 1.9-5.9 1.7-4-.5 4.9-3.1 12.9-1.8 28.3 3.5 41.1 1.7 4.1 2 4.2.5.3-4.9-13-5.8-20.6-3.6-32.1.3-1.8.8-5 .9-6.9.3-3.8 1.1-8.2 1.6-9 .2-.4.3-.3.1.5-.2 1-1 9-.9 9.3 0 .3 1.8-4.9 2.7-8 1.7-5.8 3.3-9.5 6.3-14.6 1.4-2.3 4.6-8.7 5.2-10.2.4-1.1 1-3 .9-3-.2 0-3.8 6.5-6 10.9-2.8 5.5-3.5 6-1.2.8.5-1.2 2.5-5.1 4.3-8.5 4.1-7.9 5.2-10.8 5.4-13.9.1-2.5.2-2.6-1.2 1.9-.6 2.1-1.9 4.6-10 20.7-1.2 2.3-2.6 5.2-3 6.4-.8 1.9-.9 2-.7 1 .2-1.7 1.1-4.1 2.6-7.1 7.1-14.5 9.6-21.8 10-29.3.2-3.5 0-4-.4-1.4-.4 2.4-1.7 6.8-2.9 9.9-3.1 8.1-4.9 12-2.7 5.9 3.2-8.7 4.3-13.9 4.2-19.4v-3.9l-.4 3.4c-.5 4.5-1.3 8.9-2.3 11.9-1.1 3.4-1.2 2.7-.3-2.2.8-4.5 1.2-15.4.7-16.7-.4-.5-.5.7-.6 4.2m133.4-1.6c-11.5 6-14.5 9.3-12.1 13.2 2.2 3.7 2.5 5.4 1.1 8.1-.4.7-.7 1.7-.7 2.2 0 .5-.2 1.5-.4 2.2-.2.8-.4 2.4-.4 4.4 0 3.3-.4 4.7-1.5 5.6-.4.3-.4.2-.4-.4 0-1.3-.4-1.9-.7-1.3-.3.8-.6 6.7-.3 6.1.3-.5 1.4-1.8 3.5-4.5 1.9-2.3 3.3-4.9 3.9-7.4 1.1-4.3 1.7-5.9 2.5-6.9 3.9-4.8 4.6-6.6 3.5-9.3-1.3-3.3-1.1-4.2 1.7-7.1 1-1 1.8-1.9 1.8-2 0-.4-1.5-.5-1.9-.1-.2.2-.9.7-1.5 1.2-.6.4-1.5 1.4-1.9 2.1-.4.7-1 1.7-1.4 2.2-.8 1.2-.8 2.5.1 4.2 1.1 2.2 1 2.5-1.7 7.1-2.1 3.7-2.1 3.6-.4-1.9.9-2.8.6-4.8-.7-6.1-1.2-1.1-1-3.8.4-5.2.9-.9 4.4-3.4 5.2-3.7 1.3-.5 3.6-2.3 3.6-2.9 0-.5-.2-.4-1.3.2m15 11.6c-.1.3.1.9.4 1.4 3.6 5.8 3.9 9.6 1.2 11.4-.6.4-.6.4-.3-.4 1-2.7.4-7.9-1.1-8.1-.6-.1-.6 0-.5.7.8 3.7.9 3.4-.5 6.9-2.4 6.1-4 9.3-7.2 14.4-.5.7-1.4 2.3-2.2 3.4-.7 1.1-1.5 2.3-1.8 2.7l-.5.6.2-.8c.4-1.7.6-4.1.6-5.6v-1.6l-.2 1.4c-.5 3.3-2.4 7.7-4.3 10.3a5.4 5.4 0 0 0-1.4 3.2c-.5 4.5-1.4 4.4-1.5-.2 0-2.8-.5-5.2-1.6-8.2-.7-1.9-.8-1.8-1.1.9-.3 3.5-1.9 7.7-4.5 11.9-.4.7-1.2 2.3-1.7 3.7-.5 1.4-1.2 3.2-1.6 4-3.1 7.3-3.1 21.3 0 25.5.9 1.3 1 0 .3-3.2-1.1-4.4-1.1-5.7-.3-11.5.7-4.6 1.9-10.7 1.6-7.6-1.1 9.4-.6 17.9 1 17.9.2 0 .3-1.8.4-7.4.1-11.2.8-15.4 3.9-21.9 1.2-2.5.6 2.1-.9 7.1-1.7 5.7-1.7 11 0 11 .5 0 1.1-2 1.1-3.6 0-.3.3-1.1.6-1.8s1.1-2.3 1.6-3.7c.9-2.4 4.4-10 6.9-14.9.6-1.2 1.4-2.4 1.7-2.6.3-.2 2.2-2.8 4.2-5.8s4.5-6.4 5.5-7.7c5.6-6.7 7.3-9.4 7.6-12.3.4-2.8-4.8-11.6-5.6-9.5m-67.7 3.3c-.1.1-.8.3-1.6.5s-2.6.6-4 1c-3 .8-9.7 1.6-15.2 1.9-5.3.2-5.2.2-5.2 1.6 0 5.3 5.6 12.6 11.7 15.1 5.1 2.1 16.4 2.7 19.5 1.1.3-.1.8-.3 1.1-.3.3 0 1.4-.4 2.4-.8 2.4-1.1 5.4-1.4 6.6-.5.4.3.9.6 1.1.6.2 0 .7.6 1.3 1.3.6.7 1.2 1.3 1.4 1.3.2 0 .8.5 1.4 1 2.3 2.2 4.4-3.2 2.9-7.5-.4-1-.5-2-.5-2.9.1-1.1 0-1.4-.3-1.4-.8 0-1.2 1.5-1.1 4.3.1 4.6-.1 5.2-1.3 3.1-2.7-4.7-4.9-6.4-8.5-7-10.4-1.6-14.1-5.1-11.8-11.2.5-1.4.5-1.6.1-1.2m-72.4 3.7c-.3.6-1.2 3.8-1.8 6.5-.3 1.1-.8 2.7-1.2 3.5-.4.8-.9 2.1-1.2 2.9a23 23 0 0 1-1.8 3.4c-2.7 4.1-6 11.4-8.3 18.1-.5 1.4-1.2 3.2-1.5 4-3.5 8.1-4.6 16.1-3.3 23.6 1 5.6 4.2 15.7 4.9 15.7.1 0 .3.2.3.4 0 1.2 2.2 6.8 2.7 6.8.3 0 .2-.4-.5-2.8-.2-.7-.9-3.4-1.6-5.9-.7-2.5-1.4-5-1.6-5.6-1.3-3.1-2.3-13.5-1.7-17.8.7-5.3 2.2-12.4 2.6-12 .1.1-.2 2.3-.6 5-1 6.4-1 12.2-.1 12.2.2 0 .3-1.3.3-3.3 0-3.8.5-6.8 2.2-14.1 1.5-6 2.1-7.8 8-20.7 2.2-4.9 5-15.9 5-19.5 0-1-.4-1.1-.8-.4m110.4 4.2c-1.3 1.9-1.9 3.7-2.6 7.7-.2 1.2-.7 1.6-.7.5 0-1.6.6-5.2 1-6.2.5-1.4.4-1.5-.6-.6-1.1 1-1.6 2.8-2.1 7.3-.5 4.9-1 6-1.7 4.1-.2-.6-.7-1.1-1.5-1.6-2-1.2-2.6-4.5-1.5-7.7.6-1.7.5-1.8-.4-.8-2.3 2.6-2.8 5.3-2 9.4.3 1.5.6 3.2.6 3.6l.1.8.6-.9c.3-.5.7-1.4.9-2.1.4-1.6.6-1.6 1.6.1 1.2 2 1.7 3 2.2 5.2.3 1 .5 1.8.5 1.7s.4-1.2.8-2.6c.4-1.4 1.4-4 2.3-5.9 1.6-3.4 2.1-5.2 2.1-7.9 0-1.1.2-1.6.6-2.3 1.5-2 2.1-3.9 1.2-3.9 0 .1-.7 1-1.4 2.1M143 221.2c-.1.2-.3 2.4-.5 4.9-.4 7.1-1.1 9.7-5.6 20.5-2.7 6.4-4.8 13.4-5.1 17.5-.4 4.8 1.5 18 2.6 18 .3 0 .3 0-.3-2.8-2.3-10.3-.8-19.8 5.3-34.2 3.7-8.6 4.7-13.1 4.5-18.9-.3-4-.5-5.6-.9-5m-1.9 3.3c-.2.2-.6 1.7-1 3.4-1.4 6.1-1.9 7.3-6.5 15.2-7.4 12.6-8.2 31.8-1.8 44.6.6 1.1 2.1 3.6 3.3 5.4 2.5 3.7 2.8 4.7.8 2.5-6.5-7.2-10.4-18-10.3-28.4.1-4.6 0-4.8-.4-2.4-1.8 10.5 1.6 24.2 7.6 30.7.8.9 2 2.3 2.5 3.2 2.5 3.7 6.8 7.3 10.3 8.5.8.3 2.1.8 2.9 1.2 2.8 1.3 7 3 7.1 2.9.3-.3-3.8-2.8-8.1-5-4.6-2.3-6.8-3.8-6.5-4.1.3-.3 2.4.7 3.8 1.8a13 13 0 0 0 3.9 1.8c8.4 2.7 18.2 12.2 16.8 16.1-.2.6-.5 1.7-.7 2.4-.7 3.1-5.8 9.5-9.7 12.4-1.1.8-6.1 4-8.6 5.6-2.1 1.3-7.9 4.1-10.1 5-7.1 2.7-13 7.2-14.1 10.7-2.6 8.5 5.5 17.1 14 14.8 1.8-.5 1.5-.7-1.7-.8-8.5-.3-13.5-8.8-8.3-14.3.7-.8 1.5-1.4 1.8-1.4.2 0 1-.3 1.6-.7 5.1-2.9 11-5.2 21.7-8.8 7.9-2.6 11-3.8 10.7-4-.1-.1-12.4 3.8-15.7 5-1.4.5-2.8 1-3.2 1.1-.4.1-2.1.7-3.8 1.4-5.2 1.9-5.1 1.5.1-.7 7-2.9 11.6-4.6 18.1-6.8 8-2.7 9.6-3.4 15.1-7.1 5.6-3.8 7.2-5.9 7.4-9.9.1-3.3-.3-4.4-.7-1.6-.3 2.8-3.5 7.3-6.1 8.7-.7.4-.3-.2.8-1.2 4.2-3.7 5.6-11.8 2.9-16.7-.3-.5-.4-.5-.3-.2.7 2.8.8 6.4.3 8.9-.5 2.3-.7 2.4-.3.1.3-1.9 0-6.1-.7-8.8-.8-3.2-3.8-6.6-7-7.9-1.5-.6-1.5-.7-.8-.1 4.3 3.2 6.9 8.1 6.9 12.9 0 3.2-.5 3.8-.7.7-.4-6.9-3.5-11-11-14.4-2.5-1.1-5.5-2.5-6.7-3-1.2-.6-2.4-1.1-2.8-1.2-1.1-.3-4.3-2-6.3-3.4-2.3-1.6-2.5-1.3-.5.5 1.5 1.4 5.5 3.5 10.4 5.5 11.5 4.7 15.3 9.1 15.3 17.5 0 2.8-2.4 7.2-5.9 10.8-1.5 1.6-2.7 2.8-2.5 2.8.4-.1 4.2-2.8 5.5-3.9 1.3-1 .6 0-1.3 1.7-2.5 2.4-9.3 6.7-10.5 6.7-.2 0-2.1.9-4.3 2-4.2 2.1-4.8 2.4-3.5 1.3 1.1-.9.6-.7-6.1 2.5-5.9 2.8-8.9 4.1-9.2 3.9-.3-.3.6-.8 6.4-3.7 16.4-8.3 25.4-16.8 26.5-25.1.2-1.7.7-1.6.7.1 0 3.6-2 7.6-6.4 12.7-1.5 1.7-1.3 1.7 1.3-.5 1.6-1.4 6.1-6.8 6.6-8.1 1.7-4-.9-10.9-4.9-13.4-.3-.2-2.1-1.3-4-2.6-3.1-2-8.4-4.8-9.1-4.8-.1 0 1.4 1.1 3.4 2.4 3.8 2.5 7.5 5.2 8.2 6 .5.6.2.8-.6.3-.3-.2-2.7-1.7-5.2-3.3-2.5-1.6-5.7-3.6-7.1-4.3-5.1-2.9-6.9-4.4-10.6-8.6-3.8-4.4-6.4-8-7.1-10-.2-.6-1-2.4-1.8-4.1-5.1-11.1-4.4-23.6 2-36.9 1.1-2.4 4.1-7.8 4.1-7.6 0 .3-1 2.8-2.1 5.1-2.1 4.5-4.5 11.3-5.4 15.3-.6 2.8-1.1 11.8-.6 11.8.1 0 .3-1.2.3-2.6.1-6.8 2-13.4 6.3-22.3 4-8.3 4.8-11.2 5.1-17.5.6-4.1.6-4.4.1-3.7m20.8 5.4c2.3 10.2 2.6 15.5 1.4 22-.5 2.8-1.1 3.6-.8 1.1.7-5.3 0-13.5-1.3-15.5-.8-1.2-.8-.6-.5 3.4.4 4.1.4 6-.2 11.1-.6 5.6-.6 5.3-2.4 9.3-1.7 3.8-2.4 5.5-2.7 7.5-.1.8-.5 2.7-.8 4.3-.7 3.5-.7 4.8 0 1.9.6-2.6 1.4-5 2.6-7.7 2.7-6.2 2.8-6.1.5.6-2.1 6.2-2.6 8.2-2.5 11.7.1 4.3.4 4.8.6.9.4-7.4 2.1-12.7 6.7-20.2 3.4-5.7 4.7-11.3 4-18l-.2-2.1-.2 3.3c-.1 1.8-.3 3.8-.5 4.4-.3 1.3-.3 1.6-.4-5.2l-.1-4.7-1.1-3.1c-1.1-3.2-2.3-6-2.1-5m73 10.8c-.1.4-.4 1.2-.6 1.8-.2.6-.7 1.6-1.1 2.2-.7.9-.8 1.1-.4 1.4.7.7 2.2-.1 2.8-1.4l.4-1 .2.8c.1.4.4 2.5.6 4.5.2 2.1.5 4.2.6 4.7.1.5.2 1.5.2 2.1.1 1.3.9 3.9 1.2 4.2 1.5 1 0-12-2-16.8-1.1-2.9-1.5-3.4-1.9-2.5m7 1.2c-.1.4-.4 1.7-.7 2.8-.7 2.8-.9 4.5-.6 4.5.4 0 .8-.6 1-1.6.8-4.2.7 3-.2 8.8-.6 4.2-.7 8.8-.1 8.8.3 0 .4-.3.4-.8 0-1 .7-4.9 1.2-6.6 1.4-5 1.2-12.7-.4-15.9l-.5-.9-.1.9m100.6 6.4c-.1.1-.2.6-.2 1.1 0 .5-.2 1.7-.4 2.6-2.9 12.2-4.9 17.6-8.5 23.1-1.9 2.9-3.1 4-1.7 1.6 3.3-5.6 6.1-13.6 5-14.2-.6-.4-1.4 1-2.8 4.7-.9 2.6-3.8 8-6.2 11.6-3 4.6-6.7 10.8-8.4 14.3-1.4 2.9-3.1 14-2.4 15.6.9 1.9 2.1 1 2.6-2.1.3-1.8.9-4.1 2-8.3 1-3.7 3.4-9.3 4-9.5.2-.1 1-1.1 1.8-2.2.7-1.1 2.5-3.2 3.9-4.7 5.4-5.7 8.3-12.2 11.5-25.9 1.3-4.6 1-8.9-.2-7.7m-171.9.6c-.2 2.9-.2 4.1.2 4.1.3 0 .4-.5.4-2.1 0-1.2-.1-2.1-.3-2.1-.2-.1-.3 0-.3.1m136.2 3.9c-.2.2-.4.7-.4 1 0 .3-.2 1-.4 1.4-1.1 2.3-.8 12.4.5 15.9.4 1.1 3.2 3.5 4.6 4 1.4.5 1.5.4.5-.8-1.1-1.4-2.1-3.2-2.6-4.8-.6-1.9-.3-2 .5-.3 1.7 3.3 4.3 6.4 5.4 6.4 1.2 0 1.1-.3-.4-1.7-2.8-2.6-6.6-10.6-6.5-13.8 0-.7-.1-1.6-.2-2.1-.3-1.2-.1-1.1 1 .5 1.3 2.1 3.9 5 4.4 5 .5 0 1.7.9 1.7 1.3 0 .2.1.3.3.3.6 0 .1-.9-2.4-4.4-1.7-2.4-2.8-4.2-3.1-5.1-.7-1.8-2.3-3.4-2.9-2.8m-11.4 3.1c-.3.3-1 1.2-1.5 1.9-.5.8-1.1 1.6-1.5 1.9-3.9 3.4-6.9 12-6.9 19.3v3.9l-1.1.5c-2.5 1.2-2.8 2.8-2.3 11.2.2 2.4.1 3.5-.2 4.6-.4 1.6-.4 2 .5 2 1.4 0 2.2-2.9 2.5-9.1.3-5.1.3-5.3 1.1-5.8.4-.3.5-.2.7.1.1.2.3.4.5.4s.8.3 1.5.6c1.6.8 3 .9 5 .5 2.6-.5 2.7-.8 1.7-3-2.3-4.8-2.9-6.7-3.2-9.7-.3-2.8.3-2.6 1.3.3.8 2.5 2.2 5.1 2.6 4.9.1-.1.2-.4 0-.7-.8-2.1-.7-2.3.4-1.1.7.8 1.3 1.1 1.8 1.1.9 0 .9.1-.7-3.3-2.1-4.3-2.7-6.9-2.7-11.4v-3.6l1.3-2.6c1.4-3.2 1.1-4.6-.8-2.9m-125.8 4.6c-1.5 6.4-1.8 8.5-2.3 12.5-.2 1.8-.5 4.5-.7 5.8-.4 3-.2 6.7.6 10.2.6 2.9.6 3.7.1 2.5-.9-2.1-1.9-10.3-2-16.1v-2.3l-.3 1.5c-.1.8-.2 2.9-.2 4.6 0 1.7 0 3.1-.1 3.1-.3 0-.6-4.6-.6-9.2 0-5.7-.4-4.4-.6 1.9-.1 3 0 5.3.3 7.7.4 3.8.4 4.3-.1 2.4l-.3-1.3-.2 1.1-.2 1.1-.3-1.3c-.9-4-1.2-6.4-1.2-9.8 0-3.7-.3-4.6-.6-2.4-.7 4.5 1.3 16.2 3.5 20.3 1.6 3.1 7.4 10.6 8.7 11.3 1 .5.9-.5-.1-1.8-4.9-6.7-6.3-19.7-3.6-33.5.7-3.6 1.8-12.9 1.6-12.9-.3-.3-.8 1.9-1.4 4.6m29.4 14.4c-1.6 7.2-6.4 17.1-11.9 24.3-2.7 3.6-2.6 3.5-6.5 7.4l-2.9 3 1.1 1.2c1.4 1.6 2.7 4.2 4.1 7.9.6 1.7 1.4 3.7 1.7 4.5.3.9.6 2.1.6 3.1 0 1.9-.5 1.7 4.8 2.3 7 .9 9.1 1.4 21.8 5 6.2 1.8 5.9 1.7 5.4.5-.9-2.2-1.4-8.5-.5-6.7.4.7 1.3 3.5 1.5 4.6.2 1 1.2 2.9 1.5 2.9.7 0 .4-6.3-.6-11.3-.6-3.1-.6-3.9-.2-3.9 1.1 0 2.5 5.5 3.1 11.7.2 1.7.5 3.4.7 3.9l.4.8-.2-1.1c-.1-.6-.2-3.7-.1-6.9.1-5.6 0-6-.7-9.8-.4-2.2-.8-4-.8-4.1 0-.7 1.4 3.4 1.9 5.6.3 1.5.8 3.4 1 4.2.3 1.1.4 2.2.3 4.1-.3 6.1 1.3 10.9 1.8 5.4.1-1.7.4-2.6 1.1-4.1.5-1.1 1.2-2.6 1.4-3.4 1.2-3.5 1.5-2 .4 1.9-1 3.6-.9 5.8.2 7.3.9 1.2 1.3 1.4 1.3.7 0-1.1.9-3.5 1.4-3.7.3-.1.8-.6 1.1-1.2.3-.6.8-1.1 1.1-1.2.3-.1.8-.6 1.3-1.2s1-1 1.1-1c.5 0 1.8-1.6 2.9-3.7.7-1.2 1.6-3 2.1-3.9.9-1.5.9-1.7 1-4.9l.1-3.3-1.6-4.4c-.9-2.4-1.7-4.4-1.8-4.4-.4 0 .2 3.9.9 5.5 1 2.3.8 4.8-.9 8.8l-.7 1.6v-3.1c0-3.4 0-3.5-2.8-14.2-.8-3.2-1.5-6.2-1.5-6.8 0-1.3-.6-1.1-.8.3-.1 1.6.7 6.7 2 12.1 1.2 4.9 1.2 4.9 1 7.9-.2 2.9-.2 6.6 0 8.4l.1.9-.4-.8c-.6-1.3-1.5-8.2-1.4-9.8.2-2.2-.2-5.9-.7-5.9-.3 0-.4.5-.6 2.1-.1 1.2-.3 3.4-.5 4.9-.3 2.2-.3 3 0 4.4.4 2.1.1 5.7-.7 7.4l-.4 1.3.1-2.1c.2-3.2-.8-7.7-2.1-9-1.2-1.2-1.4-.9-1.7 2.7-.2 2.8-.8 5.4-1.1 5.1-.1-.1-.3-1.3-.5-2.8-.9-6-4.3-14.5-7.4-18.3-.9-1.1-1.9-2.6-2.3-3.3-.8-1.5-2-3.5-3.9-6.3-.7-1-2.3-3.7-3.6-6-2.7-4.8-7.3-11.8-9-13.7l-1.2-1.3-.3 1.9m57.2-.5c0 2.2 5.7 9.3 9.9 12.3 2.3 1.6 4.2 3.6 5.1 5.3.5.9 1.2 2.1 1.6 2.7 1.5 2.2 1.4 2.4-.4.7-1-.9-2.3-2-2.8-2.4-.5-.4-1.7-1.3-2.5-1.9-.9-.6-2-1.6-2.6-2.1-1.2-1-1.5-1.1-1.5-.4 0 .6 4.4 5.4 6.7 7.3 2.4 2 4.9 4.7 6 6.7.5.9 1.6 2.5 2.4 3.6.8 1.1 1.5 2.3 1.7 2.6 1.1 2.2-4.4-3.5-6.7-6.9-1.7-2.5-2.7-3.4-6-5.4-4.6-2.8-8.4-8.2-9.4-13.4-.2-1.1-.6-1.3-.6-.3 0 4.4 3.9 11.3 8.2 14.5 2.4 1.8 3 2.3 4 3.8.5.7 1.6 2 2.6 3.1 2.7 3 4.7 5.3 4.5 5.4-.6.6-4.4-2.4-9.2-7.4-4-4.1-6.5-6.1-7-5.6-.2.2-.1.5.5.9 1.3 1.1 7.4 7.2 8.8 8.9 2.4 2.9 5.9 5.1 10.5 6.5 1.9.6 1.8.6 3.7-1.2l1.1-1-.9-1.2c-1.5-2-3.6-5.6-5.6-9.8-5.2-10.7-9.7-16.5-12.9-16.5-1.2 0-6.2-5.5-7.7-8.5-.8-1.1-1.5-1.3-1.5-.3m60.5-.3c-.2.2-.2.4-.1.4s.4-.2.6-.4c.2-.2.2-.4.1-.4s-.4.2-.6.4m-13.7 1.1c-2.2 1.8-2.6 2.9-2 5.7.9 3.7-3 8.5-6.9 8.5-.8 0-1.2.5-.8 1.1.4.6 4.2-.1 5.5-.9.3-.2.6-.3.6-.2 0 .8 2.5-1.3 2.5-2.1 0-.4.2-.6.6-.6.3 0 .7 0 .8-.1s.6-.7 1-1.5 1.9-2.9 3.5-4.8c1.5-1.8 2.8-3.4 2.8-3.5 0-.7-3.8 1.8-6.3 4.2l-.8.8-.2-1.5c-.2-1.8.1-2.3 1.7-3.3 2.4-1.5 2.4-1.4.9-2.2l-1.4-.7-1.5 1.1m-83.4 6.6c-.9.5-.5 2 1.8 8 1.3 3.3 2.8 7.2 3.3 8.7.6 1.5 1.6 4.3 2.3 6.1 1.6 4.3 2 5.6 2 6.5 0 2.1 2.5 5 3.1 3.5.2-.5-.3-4.7-1.1-9.6-.3-2.1-.9-5.8-1.3-8.4-1.2-8.6-2.7-11.5-7.3-14.2-1.9-1-2.1-1.1-2.8-.6m87.2 8.9c-.1.3-.3 2.1-.4 4.2-.6 7.1-1.6 11.9-3.2 15.1-.6 1.2-1 2.4-1 2.8s-.3 1-.6 1.3c-.9.9-.8 3.2.2 4.7 1.2 1.9 3.4 2.5 6.6 1.8.8-.2 1.9-.4 2.4-.5 1.8-.4 3.9-2.5 3.9-3.9 0-.3-.4-1.6-1-2.9-.5-1.3-1.4-3.8-1.9-5.7-.7-2.6-.9-3-.8-1.9.1.8.3 3.1.4 5.2.1 2 .3 3.8.4 3.8.3.3-.5 1.1-1.8 2-1.7 1.1-1.7 1.1-1.2-.4.5-1.4.9-10.9.5-10.9-.1 0-.5.9-.7 2.1-.9 3.7-3 10-3.7 10.7-.4.4-.3-.2.1-1.9 1.1-4.2 1.7-7 1.8-8.8l.1-1.9-.5 1.8c-.6 2.3-1.4 4.2-1.5 4.1-.1-.1 0-.6.2-1.2.5-1.8 1.9-11.3 2.2-14.6.1-1.8.3-3.7.4-4.3 0-1.2-.6-1.7-.9-.7m-73.1 1.1c-.2.3.3.6.7.4.3-.2.1-.7-.3-.7-.2.1-.3.2-.4.3m-89.2 3.6c0 .2.2.5.4.7.4.3.4.3.3-.3-.1-.6-.7-1-.7-.4m149.6 2.2c-.1.4-.3 1-.3 1.3 0 3.4-2.8 10.5-5.2 13.1-.8.9-1.9 2.1-2.4 2.7-.5.6-1.1 1.1-1.3 1.1-1.4 0-4.6 4.6-4.9 7.1-.2 2.1 1.1 4.1 2.6 4.1.3 0 .5.1.5.3 0 1.1 2.8 1.6 4.8.9l2.4-.7c2.9-.8 4.8-3.8 5-7.9 0-1.3 0-2.2-.1-1.9-1.1 4.1-2.2 5.6-5 7.1-1 .5-1.8 1-1.9 1.1-.2.3-.6.3-.6-.1 0-.2.7-1.1 1.6-2 2.3-2.4 4.3-6.8 3.5-7.6-.2-.2-.6.4-1.3 1.6-.7 1.4-1.7 2.6-3.8 4.7l-2.8 2.8-.3-.7c-.3-.9.2-1.8 1.5-3.1 2.1-1.9 4.8-6 5.2-7.7.1-.4.5-1.4.8-2.1 1.2-2.5 1.1-3.8-.1-1.4-.6 1.1-1.6 2.9-2.3 3.9-2.4 3.5-3.2 4.1-1.2.9 2.5-4 5.4-12.3 5.7-16 .5-2.2.3-2.7-.1-1.5m38.4 11.1c-.4.1-1.4 1-2.4 1.9-2.4 2.3-4.1 2.9-9.3 3.1-3.9.2-3.9.2-3.9.8 0 3.4 11.2 2.6 15.4-1 2.4-2.1 2.9-1.8 1.2.8-1.2 1.9-1.6 2.2-3.9 3.4-3.2 1.6-2.6 2.2 1 1 2.5-.8 3.8-1.7 4.7-3.1a4.7 4.7 0 0 1 3.9-2.1c1.1 0 4 2.5 4.4 3.8.1.4.9.8 1.7.8.5 0 .4-.7-.1-1.1-.2-.2-1.1-1.4-1.9-2.8-3-5-7-7-10.8-5.5m53.1.8c-.7.7-.1 1.5 1.8 2.1 1.7.6 1.8 1.2 3 18.4.3 4.6.9 10.7 1.3 13.6.4 2.7.8 6.5 1.2 12.5.8 11.3 1 12.8 1.6 12.8.6 0 .5-7.1-.4-21.5-.1-2.3-.4-5.8-.5-7.6-.4-5-1-14.3-1.2-18.8-.4-8.5-1.2-10.5-4.5-11.4-.6-.2-1.3-.3-1.5-.4-.3.1-.6.1-.8.3m-121.1 4c-3.9 10.2-4.8 13.2-4.8 17.1 0 3.4.3 3.7 3.8 3.6 4.1-.2 6.7-1.8 7.4-4.7.4-1.6.3-1.6-1.2-.2-1.5 1.4-1.5 1.4-2.4.6-1.4-1.2-1.6-6.7-.4-10.9.7-2.4.7-2.9.2-2.9-.4 0-.6.3-.8 2-.1.6-.4 1.5-.7 2.1-.8 1.7-1.5 3.9-1.5 4.9 0 .7-.1.9-.3.6-.4-.6 0-4.3.7-6.7.3-1.1.7-2.6.8-3.3l.2-1.3-.9 1.7c-1.2 2.3-1.2 1.9 0-.7.9-1.9 1.5-4.1 1.1-4.1-.3 0-.8 1-1.2 2.2m-19.3 6.8c-5.2 6.9-6.9 10.6-6.6 14 .2 1.9 1.1 3.4 2.2 3.4.3 0 .7.3.9.6.5.8 2.8.8 3.6.1.3-.2.9-.4 1.3-.4.8 0 1.4-.4 1.4-.9 0-.1-.3-.2-.6-.2-.5 0-.5 0-.1-.5 1.4-1.6 2.7-9.1 1.8-10.5-.3-.5-.8 0-.8.8 0 1.9-1.7 6.8-2.7 7.9-.9.9-1 .7-.5-.9.3-.8.7-2.9.9-4.5.2-1.6.6-3.5.8-4.3.5-1.7 1.2-5 1.2-5.3 0-.5-.5.5-1.3 2.9-.5 1.3-.9 2.3-1 2.2-.2-.2.3-1.7 1.8-5.5.7-1.8 1.3-3.3 1.2-3.4s-1.7 2.1-3.5 4.5m92.9-2.6c-.6.8-1.1 1.9-1.8 4.6-1.6 5.7-2.3 5.9-4.3 1.1-1-2.5-4.1-3.3-7.9-2.1-2.6.8-6.6 1.2-8.6.8-2.7-.5-3.4.5-.9 1.3 2.6.8 6 1.1 8.2.7 1.7-.3 3.8-.4 4.9-.2.1 0 1 .7 2.5 2 .4.4 1 1.1 1.3 1.7.3.6.7 1.1.8 1.2.1.1.3.4.3.6 0 1.2.8 3.3 1.5 3.6.5.2.7.6.8 1.3.5 2.8 2.1 10.8 2.5 12.2.4 1.3 2.1 4.4 2.1 3.8 0-.1-.2-1.3-.5-2.7-1.8-8.7-2-17.1-.6-24.5.5-2.4.8-4.9.8-5.4l-.1-1-1 1m3.7.1c.4.4 1.3 1 2.1 1.4.8.4 1.8.8 2.1 1 .4.2 1.1.5 1.7.7 1.4.5 5.1 2.4 5.5 2.9.3.3.3.4-.1.2-.7-.3-.6-.1.3.5.6.4.7.4.4 0-.6-.8 0-.5 1.7.7 3 2.1 9.1 8.9 11 12.3l.6 1.1-1.2-1.3c-6.4-7.1-15.4-14.1-18.1-14-.5 0 .8 1.1 2 1.8 4.7 2.5 13.3 13.3 15.3 19.1.8 2.4.7 2.5-.6.1-3.7-7.1-11.7-15.5-18.1-18.9-3-1.6-3.1-.9-.2 1.1 2.2 1.5 3.7 3 4.9 5 .5.7 2.3 3.7 4 6.5 2.7 4.3 5.9 10.3 5.9 10.9 0 .2-1-1.2-2.5-3.8-2.9-4.8-4.9-7.2-8.5-10.5-5.8-5.4-7.8-6.4-3.1-1.6 1.5 1.5 3.1 3.3 3.5 4 .4.7 1.9 2.7 3.1 4.5 1.3 1.8 3 4.4 3.8 5.7l2.9 4.7c2.3 3.7 4.5 9.3 5.9 14.7l.9 3.2c.2.7.5 1.4.6 1.6.1.3.2.3.5-.1.8-1.1.3-5.1-1.1-9.5-.4-1.1-1.1-3.5-1.6-5.3-2.7-9.2-4.1-12.2-10.2-22.1-.9-1.4.7.2 2.2 2.3 3 4.2 5.5 8.4 9.1 15.7.8 1.5 2.6 6.2 3.7 9.2.8 2.3 1.6 6.3 1.7 8.8.1 3 .6 3 .8 0 .4-5.6-.9-13-4-22.6-.8-2.5-1.5-4.7-1.6-4.9-.4-1.3 2.5 2.9 3.8 5.4 1.8 3.5 3.5 9.2 4.1 13.6.2 1.2.5 3.2.8 4.4.3 1.3.5 2.9.5 3.7 0 1.9 1.4 4.4 2.5 4.4 1.4 0 1.4 2.2.1 2.6-3.3 1-3.6 1-9.1 1-5.4 0-5.7 0-7.6-.7-6.5-2.3-8.6-2.5-6-.6 4.7 3.5 13.9 5.4 21.4 4.2 4.8-.7 4.2-.8 4.8.6.5 1.2.5 1.3.2 2.2-.6 1.5-.6 4.2 0 4.2.4 0 .6-.3.8-1.3.2-.7.7-2.2 1.2-3.3 2.4-5.6.6-10-4.5-10.5-1.3-.1-1.9-2.4-2.4-10.2-1.1-14.3-8.3-28.6-18.3-36.4-.7-.5-1.2-1.1-1.2-1.2 0-1-7.2-4.8-11.4-6.1-1.3-.4-2.7-.9-3.1-1.1-.4-.2-1.2-.4-1.7-.5l-.9-.2.7.7M156.2 321c-4 3-16.2 8.4-20.2 8.9-12.3 1.6-27.1 11-30.8 19.5-.3.7-.8 1.8-1 2.4-3.9 8.8-5.6 22.2-3.7 30.8.8 3.7 1 3.9 1.4 1.7 2-11 7.7-23.2 13.9-29.5 3.9-4 14.5-10.8 17.3-11 .9-.1 6.6-2.9 15.2-7.5 5.6-3 8.2-5.8 9.8-10.6 1.6-5 .9-6.8-1.9-4.7m146.1 4.4c0 .7 1.4 2.6 2.5 3.3.5.3 1.5 1.1 2.3 1.7 3.2 2.6 8.7 2.9 17.2 1 .3-.1.8.1 1.1.3.5.4.5.4-.5.4-.6 0-2.1.4-3.3.8-3.5 1.3-4.8 1.6-6.4 1.6-2.6 0-2.8.8-.5 1.5 1.9.6 3.2.5 5.8-.2 4.5-1.3 5.2-1.1 7.3 1.2 2.6 3.1 5 2.6 4.2-.8-1.1-5.3-5.5-9.1-8.9-7.8l-1.8.6c-.6.2-1.7.5-2.3.7-2.5.8-8.8.3-10.5-.9-.5-.4-1.5-1-2.2-1.5-.7-.4-1.6-1.1-2.2-1.6-1.1-.9-1.8-1-1.8-.3m-10.2 3.9c-.6.4-1.9.8-2.9 1.1-2.4.6-3.2 1.4-2 2.1.6.4 3.1-.8 4.8-2.4 1.6-1.6 1.6-1.7.1-.8m-19.3 1c-3.8 4.5-5.3 5.4-9.2 5.7-3.3.3-2.1.9 1.7.9 3.7 0 6-1.6 8-5.6.9-1.8.6-2.3-.5-1m6.8.4c-.4.2-1.2.4-1.8.4-1.5 0-1.9.3-4.6 3-2.6 2.6-4.2 3.7-7.5 4.7-2.6.8-3.2 1.5-1.2 1.2 2-.2 4.3-1.4 7.8-3.8 1.6-1.1 3.4-2.4 3.9-2.7.8-.6 1.3-.7 3.4-.8 1.9-.1 2.5-.2 2.5-.5s.4-.4 2.1-.3c1.8.1 2.1 0 2.2-.4.1-1.1-5-1.8-6.8-.8m-44.2 1.1c-1.5 3-.5 9.2 1.2 7.8.5-.4.5-1.6-.1-3.3-.4-1.3-.3-3.8.3-5.4.5-1.1-.8-.3-1.4.9m-52.1 0c-.4.6-1.4 1.7-2.3 2.5-1.6 1.5-1.6 1.6-1.2 1.9.9.7 2.6 1.4 3.8 1.6 6 .8 12.9 1.6 15.9 1.8 2 .2 4.2.4 4.9.5 2.6.5 8.8 2.5 12 3.7 1.8.7 3.8 1.4 4.3 1.5.7.1 1.7.7 3.2 1.9 2.4 1.9 2.4 1.9 1.3-1.1-1.1-3-5.6-5.7-14.2-8.5-7.4-2.4-8.3-2.7-17.5-4.3-2.5-.4-4.3-.9-5.8-1.6-2.9-1.2-3.6-1.2-4.4.1m107 .5c-2.5 1.3-2.4 1.3-7.1 1.1-2.2-.1-4.6.6-5.5 1.6-.7.8.1 1 1.5.4.9-.4 1.5-.5 4.5-.3l3.4.2 1.9-.9c2.6-1.3 5.2-3.4 3.9-3.3-.1 0-1.3.6-2.6 1.2m-57.4 3.9c-.5 1.2-.5 2.1 0 3.8.2.7.4 1.7.4 2.2 0 1.8 1.2 2.2 1.6.5.1-.4.3-.6.5-.6.5 0 .9-.8.7-1.3-.2-.4-.2-.4-.7 0-.6.6-1.4-2-1.3-4 .1-1.7-.6-2-1.2-.6m20.8.2c-.4.3-1.3 1.2-1.9 2.1-1.3 1.8-2.9 3.3-3.9 3.6-.9.3-1 1-.2 1 .3 0 1.5-.9 2.8-2.1 3-2.9 3.5-3.1 6.2-3 3.5.1 3.8-.2 1-1.2-2.7-1.1-3-1.1-4-.4m-5.6 0c-.2.4.3.9.7.7.2-.1.3-.4.3-.6-.1-.4-.8-.5-1-.1m-90 1.4l-1.2 1.1 1.1-.8c1-.7 1.6-1.3 1.4-1.3-.1-.1-.7.4-1.3 1m91.2.7c-.6.4-1.9 1-2.9 1.2-2.7.7-5.4 2.7-4.9 3.6.4.8 1.5.7 1.8-.3.3-1 1.5-1.8 2.5-1.7.6.1 1.1-.3 2.6-1.5 2.6-2.1 2.9-2.6.9-1.3m7.6 1.1c-.3.5 1 1.1 2.3 1.1 1.4 0 2.5-.6 1.9-1.1-.6-.3-4-.4-4.2 0m76.2.4c-.7 1.8 3.1 12 6.2 16.9 5 7.9 17.7 18.7 21.9 18.7 2.5 0 2.1-.8-1.4-2.6-5.4-2.9-15.8-11.9-18.8-16.3-2.5-3.7-5.3-9.9-6.2-13.9-.7-3-1.3-4-1.7-2.8m14.6.1c0 .3.6 1.2 1.4 2.2.8.9 1.8 2.4 2.3 3.2.5.8 1.3 2.1 1.9 2.8 2.5 3.4 6 9.9 7 13 .6 1.9 1.2 2.6 1.2 1.3 0-4.4-6-15.4-11.4-21-2.1-2.1-2.4-2.3-2.4-1.5m-111.4 5.7c-.2.3-.5 1.6-.7 2.7-.6 4.8-2.4 7.8-4.6 7.8-1.4 0-1.7.6-.9 1.5 3.5 3.5 9.6-5.3 7.8-11.2-.5-1.5-.9-1.8-1.6-.8m-4 1.1c-.6 1.3-.6 2.5-.2 2.5.5 0 1.3-1.4 1.4-2.4.2-1.3-.7-1.3-1.2-.1M147 361.8c1.7.6 2.2 1.2 1.9 1.9-.2.4-.3.4-1-.1-1-.6-4.5-1.4-5.9-1.3-.6 0-.4.1.9.4 2.3.5 3.2.8 4.1 1.7l.7.7-.7.6c-1.3 1.1-2.1 1.4-4.5 1.8-2.6.5-7.7.5-8.8.1-.5-.2-.7-.2-.7.1 0 1.8 9.7 2.4 13.6.9 2.9-1.1 3.2-1.3 4-2.5l.8-1.2-.5-1c-.7-1.4-1.4-1.9-3.1-2.3-2.3-.5-2.6-.5-.8.2"/></svg>