<?xml version="1.0" encoding="utf-8"?>
<!-- Generator: Adobe Illustrator 22.1.0, SVG Export Plug-In . SVG Version: 6.00 Build 0)  -->
<svg version="1.1" id="svg" xmlns="http://www.w3.org/2000/svg" xmlns:xlink="http://www.w3.org/1999/xlink" x="0px" y="0px"
	 viewBox="0 0 410 410" style="enable-background:new 0 0 410 410;" xml:space="preserve">
<g id="svgg">
	<path id="path0" d="M333.5,37.1c-1.1,0.6-4.9,2.9-8.4,5.3c-8.4,5.5-9.3,6.1-13.9,8.7c-2.1,1.2-5.9,3.4-8.4,4.9
		c-5.2,3.1-10.4,5.8-12.1,6.3c-3.9,1-9.2,4.3-9.5,5.8c-0.3,1.4,2,0.7,9.9-3.1c7.1-3.4,7.7-3.5,3-0.6c-2.7,1.7-7.4,4.1-10.8,5.6
		c-2.1,0.9-2.7,1.3-2.5,1.5c0.1,0.1,6.2-2.1,10.2-3.8c5.8-2.5,2,0-5,3.2c-5.1,2.3-5,2.3-4.1,2.5c0.6,0.2,6-1.6,8-2.5
		c0.5-0.3,2.5-1.1,4.4-1.7c5.2-1.9,12-5.7,21.7-12.2c6.5-4.3,21.8-17.1,21.2-17.7c-0.1-0.1-0.7,0.3-1.4,0.9c-4,3.3-13.3,9.9-19.7,14
		c-2,1.3-1,0.3,1.2-1.2c4.7-3.2,15.5-11.6,18.6-14.5c1.8-1.7,1.6-1.6-2.7,1.5c-2.9,2.1-14,9.3-15.7,10.2c-1.4,0.7,0.1-0.4,4.8-3.7
		c7.9-5.5,13.9-10.1,13.2-10.1C335.5,36.1,334.6,36.6,333.5,37.1 M373.9,54.5c-2.8,5.6-5.6,11-6.2,12.1c-1.2,2.1-4.9,8.4-8.2,13.8
		c-1.1,1.8-3.1,4.8-4.5,6.7c-1.4,1.8-2.6,3.6-2.8,4c-1.3,2.5-8.7,10.7-13.3,14.7c-2,1.7-4.8,4.2-6.2,5.5c-7.8,7.1-14.7,12.7-21.2,17
		c-4.3,2.9-2.2,0.9,3.9-3.6c2.5-1.9,5.3-4.1,6.1-4.8s2.7-2.4,4.2-3.6c5.8-4.9,19.6-18,22.1-21c3.5-4.3,10.2-14.1,13.1-19.4
		c1.1-2.1,2.4-4.3,2.7-4.9c1.3-2.3-0.3,0-2.9,4c-7.4,11.6-14.9,20.1-29.6,33.7c-1,0.9-2.9,2.7-4.2,4c-1.4,1.3-2.4,2.2-2.3,2
		c0.1-0.2,4.3-4.4,9.3-9.3c10.1-9.9,12.8-12.9,17.9-19.8c4.8-6.4,6.3-8.5,6-8.5c-0.1,0-1,1.1-2,2.4c-1.1,1.3-2.2,2.6-2.6,2.8
		c-1.4,0.7-15.3,15.6-16.3,17.5c-0.4,0.7-4.2,4.8-10,10.9c-3.6,3.8-8.1,7.7-12,10.5c-3.6,2.6-3.6,2.6-2.3,1.3c0.9-0.8,1-1,0.4-0.6
		c-0.8,0.5-5.4,3.6-6.3,4.2c-2,1.4,2.3-2.1,6.7-5.4c5.2-4,10.4-8.6,13.1-11.4l1.2-1.3l-1.7,1.3c-1,0.7-2.8,2-4.1,2.9
		c-2.4,1.6-4.7,3.5-9.2,7.6c-5.7,5.2-13.7,11.7-14,11.4c-0.1-0.1,1.3-1.4,3-2.9c3.8-3.3,7.6-6.9,7.4-6.9c-0.3,0-4,2.6-6.1,4.4
		c-2.5,2.1-4.3,3.2-9.5,5.7c-2.1,1-4.2,2.1-4.5,2.4c-3,2.3,1.8,13,5,11.4c0.4-0.2,1.6-0.7,2.7-1.1c2.9-1,13-7.1,19.1-11.6
		c4.8-3.5,8-6,9.6-7.4c0.9-0.8,2.5-2.1,3.6-3c4.6-3.7,20.8-20.3,25.2-25.8c7-8.7,4.6-7-4,2.9c-3.5,4.1-11.5,12.1-11.5,11.6
		c0-0.2,0.1-0.4,0.3-0.5c0.1-0.1,0.2-0.3,0.1-0.4c-0.1-0.1,0.2-0.6,0.6-1c1.7-1.7,6.6-7.1,9.9-11.1c3.7-4.4,5.4-6.2,9.5-10.5
		c4.2-4.3,7.3-9.3,10.9-17c1.4-3,1.9-4.9,0.8-2.7c-1,1.9-2.8,4.4-3.1,4.4c-0.4,0-0.1-1,1.4-3.6c0.4-0.8,1.4-3,2.2-4.8
		c0.8-1.8,2.3-5.2,3.3-7.5c2.3-5,5-11.5,4.9-11.6C379,44.4,376.6,48.9,373.9,54.5 M340.4,47.9c-10.3,8.8-13.3,11.3-11.6,9.3
		c0.6-0.7-4.1,3.1-7.2,5.8c-3.6,3.1-6,5-9,7.1c-2.7,1.9-4.6,3.2-13.3,9.4c-2.1,1.5-4.3,3-4.9,3.4c-0.9,0.5-1.3,1.1-0.9,1.1
		c0.1,0,4-2.4,8.7-5.2c4.7-2.9,9-5.5,9.5-5.8l0.9-0.5l-0.7,0.6c-0.6,0.5-8.9,6.1-14.7,9.8c-2,1.3-2,1.5,0.1,0.4
		c3.2-1.6,18.4-11.7,23.3-15.4c1.8-1.3,5.7-4.4,8.8-6.7c7.8-5.9,7.9-6,11.3-9.1c2.7-2.6,3.8-3.9,3.4-4.3c-0.1-0.1-0.7,0.3-1.3,0.9
		s-2.7,2.4-4.7,4c-2,1.6-4.4,3.6-5.4,4.4c-1,0.9-1.9,1.5-2,1.4c-0.1-0.1,0.1-0.4,0.5-0.7c1-0.8,6.7-5.9,9.6-8.6
		c2.4-2.2,3-3.1,2.3-3.3C343.1,45.8,341.8,46.7,340.4,47.9 M249.4,48.6c-2.8,0.2-6.4,2.1-15,7.7c-3.4,2.2-7.4,4.7-8.9,5.5l-2.7,1.4
		l-9.2,0c-11.4,0-11.2,0-14.3-4c-4.8-6.4-8.1-7.3-12.4-3.4c-2.7,2.4-4.8,3.9-7.1,5.1c-2.9,1.5-3.6,2-4.3,3c-0.5,0.7-0.7,0.8-2.5,0.9
		c-2.4,0.2-10.5,1.4-10.7,1.6c-0.1,0.1,1.1,0.1,2.6,0c1.8-0.1,2.6-0.1,2.2,0.1c-0.3,0.1-0.8,0.3-1.1,0.3c-0.3,0-0.7,0.2-0.9,0.4
		c-0.6,0.8,0.8,1.1,3.1,0.7c3.6-0.6,3.3-0.1-0.7,1.4c-7.4,2.7-15.4,7.1-15.4,8.5c0,0.4,0.1,0.3,2.7-1.4c4.4-2.9,8.3-4.6,14.7-6.3
		c3.9-1.1,5.2-1.3,4.6-0.7c-0.3,0.2-1,0.5-1.6,0.6c-5.6,0.9-17,7-21,11.2c-1.3,1.3-0.2,1.4,1.3,0.1c2.5-2.3,10-6.3,14.6-7.8
		c2.8-0.9,2.8-0.7,0.1,0.7c-2.9,1.5-8.2,5.9-7.8,6.4c0.2,0.4,0.6,0.2,2.7-1.3c1.4-1,2-1.3,2.5-1.2c0.5,0.1,1.5-0.3,3.5-1.3
		c5.3-2.8,12-4.5,14.1-3.5c1.3,0.6,1.2,0.7-0.6,1c-5.9,0.8-14.1,3.9-19.3,7.2c-3,1.9-2.2,2.3,1.4,0.6c2.8-1.4,7.2-3.2,8.1-3.5
		c1-0.3-1.2,0.9-5.4,3c-3.4,1.7-4.6,2.4-8.4,5.2c-2.4,1.8-2.1,2.5,0.4,0.9c3.2-2.1,7.3-4.2,10.1-5.3c4-1.4,2.1,0.1-2.4,2
		c-2.1,0.9-3.5,1.9-10.8,7.4c-4.7,3.6-4.6,4.4,0.2,1.2c8-5.4,10.2-6.6,10.8-6.4c0.3,0.1,2-0.5,4.4-1.6c3.3-1.5,8.2-3.1,8.5-2.7
		c0.2,0.2-1.3,1.2-2.3,1.5c-2.6,0.9-1.8,1.5,1.3,1c3.1-0.5,5.6-0.5,7.7,0c2.3,0.5,2.3,0.4-0.2-1.2c-2.5-1.7-2.5-1.9,0.2-1.9
		c1.2,0,2.2-0.1,2.3-0.2c0.2-0.4-0.1-1.1-0.6-1.2c-0.3-0.1-0.7-0.4-1.1-0.7c-0.5-0.4-1-0.5-3-0.5c-2,0-2.6-0.1-3.4-0.6l-0.9-0.6
		l0.9-0.2c0.6-0.2,1.1-0.2,1.4,0c0.6,0.4,5.1,0.4,5.8,0c0.3-0.2,1.2,0,2.8,0.5c4,1.3,4.7,1,2.7-1c-1.1-1.1-1.1-1.2-0.5-1.2h0.7
		l-0.7-0.8c-0.4-0.4-1.1-0.9-1.5-1.1c-1.7-0.7-1.2-1.6,0.8-1.6c2.1,0,2.4-0.3,1.1-1.3c-1.1-0.8-2.6-1.1-6-1.2
		c-4.7-0.1-10.4-1.4-10.4-2.3c0-0.3,0.2-0.5,0.6-0.5c0.3,0,1.8-0.3,3.3-0.7c3.1-0.8,4.1-0.8,5.3-0.2c1.5,0.8,6.2,2.2,6.6,2
		c0.9-0.5,2.6-0.6,3.5-0.2c1.6,0.7,10.9,1.6,10.5,1c-0.1-0.1-1.6-1.1-3.3-2.2c-3.2-1.9-5.1-3.6-7.1-6.2c-1.6-2.1-0.9-1.7,1.8,0.8
		c8.7,8.2,24.9,9.7,32.4,3.1c1-0.9,0.5-0.8-2.5,0.3c-4.6,1.7-4.8,1.7-8.2,1.7c-2.9,0-8.2-0.6-8.6-0.9c-0.1-0.1,2.4-0.1,5.4-0.1
		l5.6,0l2.8-1c1.5-0.6,3.6-1.3,4.5-1.6c1.7-0.6,2.7-1.1,6.1-3.4c2.5-1.7,3.7-1.5,2.7,0.4c-0.7,1.3-0.7,1.4,0,1.1
		c0.8-0.4-1.1,1.8-3.2,3.8c-3,2.9-5.8,4.6-9.1,5.7c-3.6,1.2-1.1,1.5,3.3,0.4c3.1-0.8,5.3-2,9.4-5.1c0.3-0.3,0.6-0.4,0.6-0.2
		c0,0.1-0.1,0.3-0.3,0.4c-0.2,0.1-0.2,0.3-0.2,0.5c0,0.2-0.5,1.2-1.3,2.2c-0.7,1-1.9,2.6-2.6,3.6c-1.7,2.4-6.2,6.7-7.9,7.6
		c-1.1,0.6-1.4,0.8-1.1,1.1c0.3,0.4,0.7,0.3,2-0.5c0.5-0.3,1.8-0.8,3-1.1c2.6-0.8,4.5-2.2,6.8-5.1c0.3-0.3,0.2-0.1-0.2,0.7
		c-0.3,0.7-1.1,1.9-1.7,2.7c-0.6,0.8-1.3,1.9-1.6,2.4c-0.3,0.5-1.4,2-2.4,3.3c-1.1,1.3-2,2.5-2,2.6c0,0.1-0.6,0.9-1.3,1.8
		c-2.6,3.1-2.9,4-1.2,3.4c2.6-0.9,3.9-2.1,5.4-4.8c1.9-3.5,4.2-6.7,3.1-4.4c-0.2,0.5-1,2.4-1.8,4.2c-1,2.3-2,4-3.2,5.6
		c-0.9,1.2-2,2.7-2.4,3.2c-0.8,1.2-5.3,3.4-7.8,3.9c-2.3,0.4-2.5,0.5-2.3,0.7c0.1,0.1,0.6,0.1,1.3,0c0.6-0.1,1.8-0.1,2.6-0.1
		c4.9,0.4,9.4-2.3,13-7.9c1.6-2.5,5.5-7.8,5.6-7.7c0.4,0.4-2.6,7.2-4.1,9.2c-1.1,1.4-0.7,2,0.6,0.9c1.4-1.2,2.6-3.1,5.2-8.1
		c3.4-6.4,6.7-9.8,10.8-11.1c2.3-0.7,2.2-1.2-0.2-1.2c-4.6,0-8.9,2.3-12.2,6.3c-2.5,3-2.7,3.3-2.1,2.1c2.6-5.2,8.3-9.3,13.8-10
		c1.6-0.2,1.8-0.4,1.1-1.1c-1.7-1.7-7,0.1-12.4,4.2c-3.4,2.6-3.6,2.2-0.5-1c4.4-4.6,9.5-8,13-8.7c3-0.6,3.4-1.1,1.6-2.3
		c-2-1.3-6.7-0.6-10.2,1.5l-1.3,0.8l0.9-1.2c2.7-3.8,7-6.4,10.5-6.4c2.6,0,3.1-0.8,1.1-1.9l-1-0.6l1.2-0.4c0.6-0.2,1.6-0.4,2.2-0.4
		s1.4-0.2,1.8-0.4c0.7-0.4,0.9-0.4,1.8,0c0.6,0.2,1.3,0.4,1.6,0.4c0.9,0,5,3.6,6.4,5.6c1.1,1.5,2.5,2.9,2.7,2.6c0.6-0.6-3.3-8-4.2-8
		c-0.3,0-1.2-0.4-1.9-0.9c-0.7-0.5-2.4-1.2-3.7-1.6c-1.3-0.4-3.8-1.3-5.5-2.1C254.4,48.5,253.3,48.3,249.4,48.6 M334.3,49.2
		c-0.5,0.2-3.4,2.5-6.9,5.7c-2.2,1.9-6.6,5.7-7.6,6.4c-1.6,1.2-1.9,1.8-0.7,1.4c1.4-0.4,14.8-11.5,15.5-12.8
		C335,49.1,334.9,48.9,334.3,49.2 M342.9,51.4c-0.3,0.2-2.3,1.9-4.4,3.8c-3.5,3.2-11.6,10.6-13.8,12.5c-0.5,0.4-2.3,2-4,3.5
		c-3,2.6-6.2,5.2-11.2,9c-2.1,1.6-3.1,2.5-2.1,1.9c1.2-0.7,7.3-4.6,8.5-5.5c0.8-0.6,1.5-1,1.5-0.9c0,0.3-4.5,3.5-9,6.5
		c-11.2,7.4-14.6,10.1-7.3,5.9c2.8-1.6,4.2-2.6,10.1-6.7c1.6-1.2,4-2.9,5.3-3.7c2.4-1.7,5.5-3.9,5.7-4.1c0.1-0.1,1.5-1.2,3.2-2.5
		c4.7-3.6,20.8-18.9,19.9-18.9c-0.1,0-1.8,1.5-3.8,3.3c-2.9,2.6-9.8,8.5-12.4,10.6l-0.5,0.4l0.5-0.6c0.3-0.4,3.3-3.2,6.7-6.3
		C344.5,51.4,346,49.7,342.9,51.4 M361.1,58.2c-6.3,9.3-17.6,24.1-20.4,27c-1,1-0.9,0.8,1.5-2.1c3.4-4.3,16.7-23.4,17.9-25.7
		l0.4-0.8l-0.6,0.5c-0.7,0.6-3.4,4.4-9.4,13.3c-3.3,4.9-6.4,9.1-7.2,9.8c-0.1,0.1-0.9,1-1.9,2.1s-1.8,2.1-1.9,2.1s-1,1.2-2,2.4
		c-1,1.2-2.9,3.3-4.1,4.7c-2.6,2.8-2.3,2.5-7.9,7.9c-4.3,4.2-4.6,4.6-4,4.8c1.1,0.4,6.1-3.9,17-14.8c11.7-11.6,15.6-16.2,22.1-25.7
		c3.1-4.6,3.5-5.7,0.5-1.6c-2.3,3.2-10.3,13.2-10.7,13.4c-0.5,0.3,0.6-1.3,3.7-5.5c7.7-10.3,12.3-17.6,11.1-17.6
		C365.2,52.4,363.3,55,361.1,58.2 M247.4,57.3c0,0.1-0.6,0.6-1.4,1.2s-1.8,1.4-2.3,1.8c-0.7,0.6-0.6,0.4,0.5-0.9
		c1-1.1,1.6-1.7,2.1-1.7c0.3,0,0.7-0.1,0.8-0.3C247.2,57.2,247.4,57.1,247.4,57.3 M338.1,63.9c-3.3,2.6-3.9,3.2-3.2,3.2
		c0.5,0,4.9-3.4,6.2-4.8C343,60.4,341.5,61.1,338.1,63.9 M313.9,63c-1.3,0.7-2.3,1.3-7.4,4.6c-1.3,0.8-2.9,1.8-3.6,2.3
		c-7.9,4.8-10.3,6.2-12.4,7.7c-1.4,0.9-2.3,1.7-2.1,1.8c0.2,0.1,0.6-0.1,0.9-0.3c0.3-0.2,1.6-0.9,2.7-1.5c1.2-0.6,3.7-2.1,5.6-3.3
		c1.9-1.2,4.1-2.4,4.8-2.8c2-1,10.5-6.4,12-7.6C316.3,62.2,316.1,61.8,313.9,63 M188.9,65.9c-0.1,0.1-0.6,0-1.3-0.2
		c-0.9-0.2-1.1-0.3-0.7-0.5C187.5,65,189.2,65.6,188.9,65.9 M198.6,65.2c-0.3,0.2-0.7,0.2-1.1,0c-0.5-0.2-0.5-0.3,0.4-0.3
		C198.7,65,198.9,65,198.6,65.2 M159.1,67.1c-10,2.6-10.7,2.9-17.6,8.5c-2.3,1.9-2.3,1.9,1.5-0.4c4.4-2.6,8.9-4.8,13.1-6.2
		c2.5-0.8,6.2-2.4,5.6-2.4C161.4,66.6,160.2,66.8,159.1,67.1 M337.2,67.4c-1.4,1-2.6,2.1-2.6,2.4c0,0.6,1.1,0.1,2.6-1.1
		C339.6,66.6,339.7,65.6,337.2,67.4 M307.5,69c-0.3,0.2-0.6,0.4-0.6,0.5c0,0.4,0.4,0.3,1.1-0.3C308.7,68.6,308.4,68.5,307.5,69
		 M152.2,72.4c-14.1,6-24.7,14.9-30.2,25.3c-1,2-0.9,2,0.5,0.1c7.6-10.4,16.5-17.6,28.9-23.6C154.8,72.4,155.4,71,152.2,72.4
		 M366.5,73.2c-0.2,0.4-0.5,0.8-0.5,0.8c-0.1,0,0.1-0.4,0.3-0.8c0.2-0.4,0.5-0.8,0.5-0.8S366.7,72.8,366.5,73.2 M323.5,73.4
		c-0.6,0.4-2.4,1.9-4.1,3.4c-1.6,1.5-4.4,3.8-6.2,5.1c-1.8,1.3-4.1,3.2-5.2,4.2c-3.4,3.1-2.1,2.8,1.8-0.3c1.2-1,3.2-2.6,4.5-3.5
		c1.8-1.4,5.4-4.4,6.1-5.1c0.1-0.1,1-0.9,2.1-1.9C325.3,72.9,325.8,71.8,323.5,73.4 M333.4,74.3c-2.3,2-16.4,15.9-16.4,16.3
		c0,1,14.1-11.8,17.1-15.6C335.8,72.9,335.4,72.5,333.4,74.3 M209.9,74c-3.1,0.5-4,1-3.4,1.7c0.5,0.6,3.3,0.6,3.9-0.1
		c0.3-0.3,1.2-0.8,2-1.1C215.6,73.4,214.7,73.2,209.9,74 M214.5,74.8c-0.9,0.5-1,0.5-0.3,0.4c0.4-0.1,1-0.3,1.2-0.5
		C215.9,74.2,215.8,74.2,214.5,74.8 M211.8,76.3c-3.5,0.1-4.4,0.4-3.5,1.3c0.7,0.7,6.6,0.1,8.8-0.8c1.4-0.6,1.3-0.7-0.5-0.6
		C215.7,76.2,213.5,76.3,211.8,76.3 M326.3,77.1c-0.7,0.5-2.6,2.3-4.4,3.8c-1.8,1.5-3.7,3.2-4.4,3.8c-2.7,2.2-4.2,3.4-5.5,4.3
		c-0.8,0.5-3.3,2.5-5.7,4.3c-2.4,1.8-4.6,3.5-5,3.8c-1.3,1-5.8,3.9-7.4,4.7c-0.9,0.5-1.7,1.1-1.9,1.4c-0.4,0.6-2.4,2-3.9,2.8
		c-0.7,0.4-1.2,1-0.9,1.3c0.3,0.3,8.8-5.2,17.5-11.5c2.1-1.5,4.3-3.1,4.8-3.4l0.9-0.6l-0.9,0.8c-0.5,0.5-2,1.7-3.3,2.7
		c-1.3,1-3.5,2.6-4.8,3.7s-3.4,2.5-4.7,3.4c-1.9,1.4-7.6,5.6-8,6c-0.4,0.4,1.4-0.4,2.2-1c0.6-0.4,1.9-1.3,3.1-2c1.1-0.7,3-2,4.2-2.9
		c1.2-0.9,2.9-2.2,3.9-2.9c1-0.7,2.6-2,3.7-2.9c2.1-1.7,3.9-3,6.9-5.3c3.2-2.4,4.9-3.7,5.2-4c0.2-0.2,0.9-0.8,1.6-1.3
		c1.9-1.5,7-6.7,8.1-8.1C329.1,75.9,328.4,75.4,326.3,77.1 M308.4,78.3c-0.6,0.6-1,1.2-0.9,1.2c0.2,0.2,2.6-1.6,2.6-2
		C310.1,76.9,309.5,77.2,308.4,78.3 M253.5,78c-2.9,0.9-5.3,2.8-6.2,4.9c-1,2.3-2.9,8.8-3,10.3c-0.1,1.5-0.3,2-1.6,3.8
		c-0.8,1.2-1.4,2.3-1.4,2.5c0,0.2-0.3,0.7-0.6,1.2c-1.4,1.8-0.1,0.9,2.1-1.6c2.6-2.9,3.2-4.1,3.8-7.2c0.9-5,4.6-9,8.7-9.3
		c1.4-0.1,1.7-0.2,1.7-0.6c0-0.7-3-1-4.6-0.4c-1,0.3-1.2,0.3-1.1,0c0.2-0.6,2.9-2,4.4-2.3c1.6-0.3,1.6-0.3,1.4-0.9
		C256.7,77.4,255.6,77.3,253.5,78 M144,79.9c-14.9,9.1-26.2,23.5-30.2,38.2c-3.6,13.5-3.2,25.6,1.3,38.3c1.3,3.7,3.2,9.4,3.2,9.7
		c0,0.2,0.7,1.6,5.4,11.4c1,2,2.5,5.1,3.5,6.9c1,1.8,2,4,2.3,4.8c0.3,0.8,1,2.3,1.7,3.3c4.4,7.5,7,18.9,5.8,25.8
		c-0.2,1.4,0,2.1,0.5,1.5c1.3-1.5,1.7-10.7,0.8-16.2c-0.3-1.5-0.5-3.2-0.6-3.6l-0.1-0.8l0.4,0.7c1.8,3.2,2.4,14.3,1.1,19.5
		c-0.9,3.6-3.6,10.1-7.9,19.5c-3,6.6-4.2,10.2-4.6,14.3c-0.3,3.3,0.5,1.9,2.1-3.7c1.2-4,5.6-13.8,7.1-15.9c0.3-0.5,1-1.9,1.5-3.1
		c0.5-1.2,1.2-2.9,1.5-3.6c1.6-3.5,2.6-7,3.3-11.3l0.3-2l0.4,1.7c0.2,0.9,0.6,2.5,0.9,3.5c0.7,2.4,1.3,6.4,1.3,8.6
		c0,1,0.1,1.8,0.3,1.8c1,0,0.2-12.9-1.2-18.8c-1.5-6.2-1.9-7.3-5.5-14.5c-3.5-7-4.5-9.5-6.2-16.1c-0.5-1.9-1.2-4.4-1.5-5.5
		c-2.3-8.6-1.3-25.2,2-32.4c0.2-0.5,0.3-0.6,0.3-0.3c-0.7,3.1-1.2,5.8-1.1,5.9c0.1,0.1,0.3-0.6,0.4-1.4c0.5-2.3,0.6-1.6,0.1,2.4
		c-0.9,8.8,0.4,27.9,1.9,27c0.1-0.1,0.1-1.5,0-3.2c-0.5-6.6-0.1-18.1,0.8-22.4c0.3-1.6,0.4-1.2,0.2,4.5c-0.1,4,0,7,0.2,8.4
		c0.2,1.2,0.4,3.9,0.5,6c0.3,4.2,0.8,6.8,2.3,12c1.2,4,1.1,4.2-0.3,1.1c-0.9-2-1.9-3.1-1.9-2.2c0,0.6,1.7,5.1,2.4,6.3
		c0.9,1.6,2.2,5.2,2.1,5.6c-0.3,0.8-4.5-8.5-5.4-12c-0.7-2.8-0.8-2.9-1.2-2.6c-1.2,0.7,1.3,8.9,4.7,15.3c1,1.8,2.1,4.3,2.6,5.6
		c0.5,1.3,1.3,3.2,1.8,4.2c2.1,4.1,4,14,3.9,20.4c0,6-0.5,8.6-3.4,17.4c-2.3,7.1-1.6,6.5,1.5-1.2c3.6-9.1,4.8-19.3,3.2-27.7
		c-0.2-0.9-0.2-1.6-0.2-1.7c0.2-0.2,0.9,3.2,1.3,5.5c0.1,1,0.4,3,0.7,4.5c1.1,7.3,0.4,10.9-4.3,22.9c-6,15.5-6.8,22.1-3.8,33.3
		c1.9,7.1,5.1,14,7.8,16.3c1.3,1.2,1.4,1,0.3-0.8c-2.8-4.3-6.4-13.5-7.4-18.8c-0.5-2.9-0.5-3.3,0.1-0.9c2.3,8.9,8.2,21,11.2,23
		c0.8,0.5,0.7,0.4-0.9-2c-7.9-11.3-10.7-29.8-6.8-44.4c0.5-1.9,0.5-1.2,0,2.2c-2,12.7,0.3,28.7,5.2,36.8c0.6,1.1,0.6,0.9-0.3-1.9
		c-3.3-9.7-4.6-20.6-3.4-28.4c0.2-1.4,0.5-3.9,0.6-5.6c0.3-6.5,1.3-13.5,2.4-16.8c0.6-1.8,0.5-0.6-0.1,5.3c-0.7,6.4-0.6,7.2,0.5,3
		c0.5-1.8,1.2-4.4,1.5-5.8c1.3-4.8,1.3-8.8,0.3-19.8c-0.7-7.2-1.6-14.2-2.3-17.9c-0.9-4.9-1.1-6.4-1.1-11.7c0-8.8,1.2-18,3.3-24.5
		c0.5-1.5,0.5-0.7,0.1,1.5c-1.7,8.7-2.4,17.2-2,25.3c0.3,5.9,0.7,8,0.6,2.8c-0.2-7.3,1.6-19.9,4.1-27.3
		c4.1-12.6,14.6-25.3,25.2-30.6c1.8-0.9,7.4-2.3,10.7-2.6c5.6-0.5,8.6-1.6,3.5-1.2c-1.4,0.1-3.9,0.2-5.5,0.3
		c-5.1,0.1-10.8,3-19.4,9.8c-3.6,2.9-4,2.9-1.2,0c3.7-3.7,7-6.2,12.6-9.4c2.8-1.6,3.2-1.9,2.3-1.7c-3.5,0.6-7.1,2.2-8.4,3.8
		c-1.5,1.7-2.8,2.4-1.4,0.8c1.8-2.2,4-4,7.2-5.9c2.6-1.6,3.6-2.4,3.3-2.7c0,0-1.5,0.9-3.3,2.1c-9.3,6.2-15.1,12.7-24.3,26.9
		c-1.1,1.6-0.3,0,1.6-3.6c4.1-7.6,11.5-16.5,18.8-22.8c1-0.9,0.8-0.7-1.1,0.5c-1.3,0.9-4.1,3.4-6.2,5.4c-2.1,2.1-3.9,3.8-4,3.9
		c-0.9,0.8,2.1-3.4,3.7-5.1c1.2-1.3,2-2.5,1.9-2.6c-0.4-0.6-1.3-0.1-4.1,2.6c-2.9,2.8-3.2,2.8-1-0.1c1.9-2.5,6.7-6.8,9.6-8.7
		c1.8-1.2,1.2-1.4-1.4-0.5c-4.7,1.6-10.4,6.2-14.3,11.5c-1.5,2.1-1.9,2.4-1.1,0.9c2.5-4.4,7.1-9.1,11.5-11.8
		c1.2-0.7,2.4-1.4,2.6-1.6c1.2-0.8,4.1-2,6-2.6c3.1-1,5.9-2.4,5.5-2.8c-1.3-1.3-13.8,4.7-19.9,9.6c-0.5,0.4-0.9,0.6-0.9,0.4
		c0-0.8,7.5-6.3,11.2-8.3c1.3-0.7,2.3-1.4,2.3-1.5c-0.1-0.8,6.5-3.3,8.6-3.3c1.2,0,4.5-0.6,5.7-1.1c0.5-0.2,1.2-0.1,2.7,0.3
		c3.1,0.8,3.9,0.5,2.1-0.9l-0.8-0.6l0.8-0.3c0.6-0.2,0.8-0.5,0.7-0.8c-0.1-0.3,0.1-0.6,0.4-0.8c0.3-0.2,0.5-0.5,0.4-0.8
		c-0.1-0.3,0.1-0.4,0.6-0.4c1.3,0.1,5.3,1.1,5.7,1.4c0.7,0.6,3.6-0.2,3.6-1c0-0.1-0.8-0.3-1.7-0.4c-1.9-0.2-4.2-1.1-5.8-2.3
		c-1.2-0.9-1.6-1-3.6-0.3c-2.1,0.7-2.4,0.7-3.8-0.7l-1.3-1.2h1c0.5,0,1.6-0.3,2.5-0.7c1.7-0.7,3.1-0.6,5.8,0.7
		c0.9,0.4,1.9,0.6,3.2,0.7c1,0,2.7,0.3,3.8,0.7c2.7,0.8,10,0.5,12.8-0.6l0.8-0.3l-1.2-0.2c-0.7-0.1-2.3-0.1-3.7,0.1
		c-3.4,0.3-8.9-0.3-10-1.1c-0.1-0.1-0.7-0.3-1.1-0.4c-0.5-0.1-0.9-0.3-1-0.4c-0.3-0.5-5.1-2.7-6.3-2.8c-1.1-0.1-1.6,0-4.1,1.1
		c-1.6,0.7-3.5,1.4-4.3,1.5c-0.8,0.1-1.5,0.3-1.6,0.4c-0.1,0.1-0.7-0.2-1.4-0.7c-1.4-1-2.3-1-3.3-0.2c-1.2,1-2.8,1.9-3.7,2.1
		c-2.9,0.7-8.7,4.3-8.7,5.5c0,0.2-0.6,0.8-1.3,1.2c-3.5,2.2-8.3,6.3-9.5,8.2c-0.9,1.3-0.2,1.1,1.6-0.6c3.6-3.4,9.4-7.3,13.5-9.2
		c4-1.8,4-1.4-0.1,0.8c-3.8,2.1-8.8,5.8-8.8,6.5c0,0.7,3-0.5,5.2-1.9c0.6-0.4,2.3-1.3,3.7-2.1c2.7-1.4,3.4-1.9,3.2-2.1
		c-0.2-0.2-5.8,2.6-6.4,3c-0.3,0.2-0.5,0.3-0.5,0.1c0-0.9,5-3.6,8.9-4.7c1.3-0.4,2.6-0.8,2.8-0.9c0.6-0.3,6.2,1.3,6.9,1.9
		c0.4,0.4-1.4,0.8-4.3,1c-4.2,0.3-5.4,0.7-12.7,4.2c-7,3.3-12.2,7.8-16.3,14.1c-5.5,8.4-11.8,26.5-12.2,35.1c-0.2,4.1,0,4,0.7-0.2
		c1.5-9.1,4.5-17.4,9.4-26.8c1.6-3.1,3.1-5.2,1.9-2.6c-0.4,0.8-1.1,2.4-1.6,3.5c-0.5,1.1-1.7,3.9-2.7,6.1c-3.9,9-5.5,15.4-6.2,24
		c-0.2,3.3,0.2,2.9,0.8-0.8c1-5.9,3.1-13.1,4.9-16.7c1-2.1,3.1-5.9,3.8-6.8c0.8-1.1,0.8-1.2-1.1,3.6c-2.5,6.4-4.7,13-4.7,14.1
		c0,1.2,0.6,0.2,1.5-2.5c2.2-6.6,5.2-13.5,7.5-17c1.2-1.9,2-2.7,1-1c-4,6.7-5.2,10.9-1.4,5.1c0.6-0.9,1.2-1.7,1.2-1.7
		c0.1,0-3.8,7.6-4.2,8.1c-0.1,0.1-0.9,2-1.7,4.1c-4.7,12.4-7,24.1-6.5,32.7c0.4,5.7,1,11.5,1.5,13.6c0.1,0.6,0.2,1.2,0.3,1.3
		c0,1.3-1.5-4.3-1.9-7.1c-0.2-1.1-0.5-2.8-0.8-3.8c-0.3-1-0.7-3.1-0.9-4.5c-0.3-1.5-0.7-4.2-1.1-6c-2.2-11.5-2.1-10.8-2.1-18.1
		c0-9.5,0.9-14.4,5.2-27.2c3.2-9.6,3.2-9.8,0.4-4.3c-4.8,9.4-7.9,20.6-7.9,28.3c0,1.7-0.1,2.3-0.3,2.2c-0.4-0.3-0.1-8.7,0.4-11.7
		c2.4-13,8.7-25.7,17.6-35.4c1.4-1.5,1.5-1.9,0.2-0.7c-4,3.4-14.7,18.5-14.7,20.8c0,0.1-0.2,0.4-0.4,0.7c-2.4,3.1,3.7-8.8,6.7-13.2
		c1-1.4,2.1-3.1,2.5-3.7c0.4-0.7,3.5-3.9,6.8-7.1c3.3-3.3,5.9-6,5.8-6.1c-0.1-0.1-1,0.7-2,1.7c-1,1-2.7,2.6-3.8,3.4
		c-8.5,6.8-15.7,18-19.3,30c-1.2,4-1.2,2.6,0-2.2c2.3-8.9,7.6-20,11.7-24.3c2.4-2.5,3.7-4.3,3.1-4.3c-0.2,0-0.2-0.2,0-0.5
		c0.7-1.4-1.2-0.1-3.5,2.3c-5.1,5.4-6.3,7.1-10.6,15.3c-0.7,1.4-1.6,3.1-2,3.7s-1,1.9-1.3,2.7c-1.5,3.7-0.5,0,1.4-5.3
		c1.5-4.1,4.3-9.1,7.4-13.1c1.5-1.9,2.6-3.5,2.6-3.6c0-0.1,1-1.3,2.3-2.6c1.2-1.3,2.3-2.5,2.3-2.7c0-0.7-0.9,0-3.9,3.1
		c-4.8,4.9-10.1,13.3-13.9,22c-0.3,0.8-0.7,1.4-0.7,1.3c-0.5-0.5,2.1-7.3,4.3-11.3c0.3-0.6,1-1.8,1.4-2.7
		c3.5-6.4,11.8-15.8,18.4-20.8c4.6-3.4,4-3.4-1.9,0.1c-4.6,2.7-10.6,8.7-14.5,14.1c-1.7,2.4-2.5,3.2-1.5,1.4c0.6-1,2.3-3.3,5.8-7.9
		c4.4-5.7,13.1-12.1,20.9-15.3c2.8-1.2,2.5-1.2-0.9-0.1c-5.1,1.7-9.8,4.3-13.9,7.7c-0.9,0.8-2.2,1.8-2.8,2.4
		c-0.7,0.5-1.7,1.4-2.3,1.9c-1.5,1.3-0.7,0.1,1.8-2.4c2.8-2.9,6.7-6,10-7.9c3.3-2,3.3-2.1,0.2-0.6c-12.6,6-25.4,22.8-30.3,39.6
		c-0.3,1.1-0.6,2-0.7,1.9c-0.3-0.3,3.2-11.6,4.8-15.2c4.4-10.3,10-19.5,15.2-25.5c7.2-8.2,8-9.4,3.9-5.6
		c-11.1,10.3-20.7,25.5-23.8,37.8c-1,3.9-1.4,3.6-0.5-0.4c3.2-14,13.4-29.6,27.5-42.3c1-0.9,1.6-1.4,1.3-1.3
		c-23.4,16.2-37.1,47-34,76.9c0.2,2,0.3,4.3,0.2,5.1c-0.2,2.2,0.9,7.5,2.9,13.5c1.9,5.7,2,6.2,0.5,2.9c-4.4-9.6-6.2-19.6-6.1-34
		c0-6.9-0.1-7.8-0.5-4.9c-0.6,3.7-0.8,5.9-0.8,8.9c0,2.7,0.1,4.4,0.6,11.1c0.3,4.3-0.5-0.4-1.5-7.7c-0.7-5.9-0.1-11.6,2.2-20.1
		c1-3.6,2.8-13,2.6-13.2c-0.2-0.2-2.1,4.6-3.3,8.2c-2.9,8.9-3.8,19.3-2.5,27.9c0.6,4.2,0.6,4.8,0,2.8c-3.5-10.9-1.2-27.7,5.8-41.9
		c1.7-3.5,3.1-7.7,3.1-9.7c0-0.5-1.9,2.6-3.4,5.4c-5.5,10.5-7.1,16.4-8.6,30.5c-0.1,1.3-0.2,0.7-0.2-2.5c-0.1-9.9,2.1-17.4,9.3-31.9
		c1.6-3.3,3.3-6.6,3.6-7.3l0.6-1.3l-0.7,0.8c-5.2,6.1-11.2,19.9-13.1,30.5c-0.7,3.7-0.9,4.1-0.7,1.2c0.8-10.4,5.9-23.6,12.8-33.4
		c3.2-4.6,11.2-12.6,16.9-17C148.1,77.6,148.4,77.1,144,79.9 M200.2,78.6c0,0.1,0.9,0.6,1.9,1.2c1.1,0.6,2.6,1.6,3.4,2.1l1.5,1h3.5
		h3.5l2.9-1.4c4.3-2,4.2-2.8-0.2-1.8c-5.1,1.1-9.2,0.9-13.6-0.4C200.5,78.5,200.2,78.5,200.2,78.6 M267.8,80.1
		c-1.1,1.8-1.5,6-0.9,9.3c1.2,6.3,0.5,8.6-4.2,13.4c-5.9,6.1-6.5,12.6-1.4,14.7c1.5,0.6,1.6,0.5,0.9-0.6c-0.4-0.6-0.7-1.4-0.8-1.8
		c-0.1-0.7,0-0.6,0.6,0.5c1.2,2,1.7,2.4,1.1,0.7c-0.3-0.7-0.5-1.5-0.5-1.7c0-0.2,0.2,0.1,0.4,0.7c1.4,3.7,1.3,3.7,6,2.8
		c4.1-0.7,7.1-2.7,7.5-5c0.4-2.1,0.5-5.5,0.2-6.8c-0.4-1.6-1-1.8-1-0.3c0,5.7-2.3,10-5.6,10.6l-0.9,0.2l-0.1-3.7
		c-0.1-3.5,0-3.8,0.7-5.9c1-2.7,1.1-3.3,0.5-3.4c-1.3-0.3-3.3,4.9-3.6,9.5c-0.3,4.3-1.2,5-2.1,1.8c-0.4-1.6-0.4-1.8,0.1-4.4
		c0.6-2.9,0.8-3.4,2.6-6.5c0.6-1.1,1.1-2,1.1-2.2c0-0.1,0.3-0.8,0.7-1.4c0.8-1.5,1.5-3.5,1.5-4.7l0-0.9l-0.7,1.3
		c-0.4,0.7-1.5,2.5-2.5,3.9c-2.3,3.4-3.1,4.8-3.7,6.6c-0.3,0.8-0.5,1.3-0.5,0.9c0-1.2,1.3-4.5,2.7-6.6c2.1-3.2,2.8-4.7,3.1-6.2
		c0.4-2.1,0.4-6.4-0.1-8.1c-0.6-2.1-0.8-3.9-0.4-4.1c0.5-0.3,0.4-2.8-0.1-2.8C268.1,79.9,267.9,80,267.8,80.1 M305.4,81
		c-0.6,0.4-1.9,1.4-2.9,2c-2.2,1.5-2.6,1.9-1.9,1.9c1,0,6.5-3.9,6.5-4.6C307.1,79.9,306.4,80.2,305.4,81 M219.8,83.9
		c-1.5,0.6-2.8,1-3.6,1c-0.6,0-2.4,0.3-3.9,0.6c-1.8,0.4-3.8,0.6-5.7,0.6c-3.4,0-3.6,0.1-1.7,0.8c6.4,2.3,15,0.7,17.9-3.3l0.6-0.8
		l-0.6,0C222.5,82.8,221.1,83.3,219.8,83.9 M187.9,83.6c0.7,0.6,1.1,0.7,1.1,0.3c0-0.1-0.4-0.4-0.9-0.5l-0.9-0.3L187.9,83.6
		 M185.1,85.7c0.5,0.2,1.9,0.4,1.7,0.2c-0.1-0.1-0.6-0.2-1.2-0.3C184.9,85.5,184.8,85.6,185.1,85.7 M173.6,87.1
		c-1.3,0.2-2.9,1-2.6,1.2c0.1,0.1,1.2-0.1,2.5-0.3c2.7-0.5,6.5-0.6,6.5-0.2c0,0.3-0.3,0.4-3.2,0.8l-2,0.3l1.6,0.2
		c0.9,0.1,1.8,0.2,2.1,0.1c0.3-0.1,2.3,0.2,4.4,0.5c4.9,0.8,5.1,0.8,2.6-0.8C182.4,87.3,177.7,86.4,173.6,87.1 M292.3,89
		c-5.8,3-8.6,4.8-7.5,4.8c0.4,0,4.8-2.2,6.4-3.3c0.8-0.5,2.1-1.3,2.9-1.7c1.4-0.7,1.8-1.2,1.1-1.1C294.9,87.7,293.6,88.3,292.3,89
		 M219.1,88.9c-4.3,0.7-9.2,1.1-12.1,0.9c-3.3-0.2-2.9,0.2,0.7,0.8c4.2,0.7,11.5,0.2,14.3-1C224.9,88.5,223.6,88.2,219.1,88.9
		 M241.1,91.8c-10.2,10.9-16.1,14.7-22.8,14.7c-1.8,0-0.9,0.3,2.2,0.7c4.1,0.5,8.2-0.6,9.1-2.5c0.2-0.4,0.5-0.6,0.9-0.6
		c1.9,0,6.8-4.8,10.4-10.1C244.2,89,244.3,88.4,241.1,91.8 M223.9,90.7c-0.1,0.1-1,0.4-2,0.8c-1.7,0.6-1.8,0.7-0.6,0.5l1.2-0.2
		l-0.9,0.4c-1,0.5-2.1,0.5-2.2,0.1c-0.1-0.2-0.6-0.2-1.9,0c-1.7,0.3-5.5,0.2-7-0.1c-0.6-0.1-0.7-0.1-0.4,0.1
		c0.7,0.5-5.2,0.1-7.3-0.5c-3.7-1.1-3.9-1.2-4.2-0.9c-0.4,0.4,1.3,1.4,4.2,2.7l2.1,1l4-0.1c3-0.1,4.5-0.2,6-0.6c3-0.8,3-0.2,0,1
		c-2.5,1-8,1.8-9.1,1.2c-0.4-0.2-1.7-0.4-3.1-0.4c-2.2,0-2.6-0.1-4.2-0.9c-2.5-1.3-2.9-1.2-6.1,1c-1.2,0.8-1.4,0.8-4.6-0.6
		c-1.9-0.9-1.6-1-4.1,1.2c-1.6,1.5-3.6,2.3-5.5,2.3c-1.5,0-3.9,1-4.9,2c-0.5,0.5-1.6,1.2-2.5,1.6c-1.5,0.7-2.4,1.3-2.2,1.6
		c0.1,0.1,1-0.4,2.1-1.1c2.8-1.6,9.2-3.9,6.9-2.5c-1.2,0.8,4.8-0.7,7-1.7l1.8-0.8l1.2,0.5c2.1,0.8,4.2,0.5,6.3-0.8
		c1.5-1,1.8-1.1,2.6-0.8c2.1,0.8,3.2,1.3,4.7,1.9c2.2,0.9,5.6,1.4,7.2,1c1.6-0.4,1.8-1,0.5-1.2c-2.1-0.4-1.7-0.6,1-0.6
		c2.4,0,3.7-0.1,6.6-0.8c0.3-0.1,0.7-0.4,0.8-0.7c0.2-0.5,0.2-0.5,0.3-0.1c0,0.7,0.7,0.6,2.6-0.5c1.8-1,3.6-3,3.5-3.8
		c0-0.2,0.2-0.6,0.5-0.9s0.4-0.5,0.3-0.5C224.2,90.5,224,90.6,223.9,90.7 M181.8,91.9c-4.6,0.7-9.8,2.6-11.4,4.2
		c-1.7,1.6-1.2,1.6,1.5,0.1c2.9-1.6,5.6-2.8,6.3-2.6c0.4,0.1-0.2,0.5-2,1.3c-1.4,0.7-3.1,1.6-3.7,2c-0.7,0.4-2.7,1.7-4.6,2.9
		c-3,1.9-6,4.3-5.7,4.6c0.1,0.1,0.9-0.5,1.9-1.3c3.3-2.6,6-4.2,10.2-5.9c2.5-1,2-0.5-1.3,1.3c-3.2,1.7-6.1,3.6-7,4.4
		c-0.3,0.3,0.6-0.1,2-0.8c4.2-2.3,7.7-3.9,10.5-4.8c2.6-0.9,3.3-1.2,3.3-1.6c0-0.3-0.9-0.3-3.2,0.2c-3.4,0.7-3.7,0.4-0.5-0.7
		c1.5-0.5,4-1.4,5.5-1.9c1.5-0.5,2.7-1,2.8-1C187.5,91.8,183.6,91.6,181.8,91.9 M172.5,92.8c-5,1.4-15.5,8.9-12.3,8.9
		c0.5,0,1.7-1.1,1.4-1.3c-0.3-0.2,2-2.4,3.5-3.3c0.6-0.4,0.4-0.1-0.7,1c-1.7,1.7-1.7,1.6,1.1-0.2c1-0.7,3.5-2,5.4-3
		C174.9,92.8,175.6,92,172.5,92.8 M252.1,94.7c-0.9,1-1.8,4.5-2,7.5c-0.3,5.6-1.6,8.5-5.1,11.3c-1.7,1.3-4.4,3.7-7,6.2
		c-2.5,2.4-2.8,7.6-0.6,10c1.2,1.3,1.8,1,1.1-0.6c-0.3-0.7-0.5-1.6-0.5-1.9c0-0.3,0.4,0.3,0.8,1.4c0.9,2.3,1,2.4,2.2,2.6
		c0.5,0.1,1.7,0.2,2.6,0.4c3.7,0.6,9.4-2.5,11.1-6c0.7-1.5,1.5-5,1.3-5.8c-0.2-1-0.3-0.9-0.9,1.5c-1.4,5.4-6.6,9.5-10.6,8.2
		c-2.9-1-1.7-4.2,3.5-8.9c3.1-2.8,4.3-4.5,4.9-6.8c0.7-2.6-0.3-3.1-1.1-0.5c-0.7,2.3-1.9,3.7-4.1,4.8c-1.6,0.8-4.1,3.1-5.3,4.9
		c-1.2,1.7-1.5,1.9-0.9,0.4c0.6-1.3,2.4-3.7,4.2-5.3c3.8-3.5,4.6-4.4,5.5-6.2c1.4-2.8,1.8-4.5,1.7-7.2c-0.1-1.8-0.1-2.2-0.3-1.6
		c-1.9,6.9-1.8,6.8-4.3,9.4c-2.6,2.8-3.4,3.1-1,0.4c2.8-3.2,4.1-6.7,4.5-12.3c0.1-1.7,0.4-3.5,0.6-4
		C253.4,94.5,253.2,93.5,252.1,94.7 M303.1,101.4c-1.5,1-3.1,2.2-3.6,2.7c-1,1.1-0.4,0.9,1.5-0.5c0.8-0.6,2.3-1.6,3.4-2.2
		c1.9-1.2,2.6-1.9,1.8-1.9C306.1,99.6,304.6,100.4,303.1,101.4 M181.5,100.7c-2.2,0.5-4.6,0.8-5.2,0.6c-0.6-0.2-6.6,2.6-6.6,3.1
		c0,0.1-0.9,0.9-1.9,1.7c-2,1.5-6.3,5.7-6.1,5.9c0.1,0.1,1-0.6,2-1.5c3-2.6,9.7-7.1,9.7-6.5c0,0.1-1.4,1.1-3.2,2.3
		c-3.8,2.6-5.8,4.3-5,4.3c0.5,0,4.6-2.3,5.5-3.1c0.2-0.2,1.4-0.8,2.5-1.5c1.2-0.6,2.4-1.3,2.7-1.6c0.3-0.3,1-0.6,1.5-0.8
		c0.5-0.2,1.3-0.6,1.8-0.9c0.5-0.3,1.3-0.7,1.7-0.8c1.1-0.2,2.3-0.8,2.3-1.2C183.4,100.4,182.9,100.4,181.5,100.7 M178.2,106
		c0.1,0.2-2.5,1.6-3.1,1.6c-0.5,0,0.1-0.5,1.3-1.2C177.8,105.7,178,105.6,178.2,106 M338.4,107.6c-1.9,3.3-20.9,19.9-25.1,22.1
		c-0.9,0.5-0.6,0.2,2.9-2.6c5.6-4.5,13.2-11.4,18.6-16.8C338.2,106.8,339.4,105.9,338.4,107.6 M205.5,113.4
		c-1.9,2.3,13.1,2.9,15.1,0.6l0.5-0.6l-5.2,0.2c-4.1,0.1-5.7,0.1-7.5-0.2C205.7,112.8,205.9,112.8,205.5,113.4 M183.3,113.4
		c0.2,0.1-0.2,0.3-1.2,0.6c-0.8,0.2-2.9,0.9-4.6,1.7c-5.2,2.3-5.8,2.1-0.9-0.2C180.4,113.6,182.6,113,183.3,113.4 M277.5,119.3
		c-0.2,0.3-0.7,1.2-1.1,2.1c-0.8,2-3.4,3.8-4.1,2.8c-0.4-0.7-3.7-0.4-4.3,0.4c-0.2,0.3-0.4,0.3-0.5,0.1c-0.3-0.5-2.5-0.3-3.6,0.2
		c-1,0.5-4.3,4-4.3,4.5c0,0.8,1,0.4,2.4-0.9c1.9-1.7,2.3-2,4.1-2.3c0.8-0.1,1.5-0.5,1.7-0.7c0.2-0.3,0.4-0.3,0.5-0.1
		c0.1,0.2,0.4,0.3,0.8,0.3s0.7,0.3,0.9,0.6c0.6,1,5,0.2,7-1.4c2.6-2,3.6-6.1,1.5-6.1C278.2,118.8,277.7,119,277.5,119.3
		 M272.6,119.7c-2.1,1.3-8.4,1.4-10.7,0.2c-1-0.5-1.7-0.3-1.7,0.4c0,0.3-0.3,0.7-0.6,1c-0.7,0.6-1.6,2.4-1.9,3.6
		c-0.1,0.5-0.4,1.3-0.5,1.8c-0.8,2.1,0.8,1.3,2.2-1c1.9-3.1,3.5-3.9,6.5-3.1c3.4,0.9,6.8,0.1,8.8-2
		C276.2,119.2,274.7,118.5,272.6,119.7 M269.1,119.6c-0.4,0.2-0.2,0.2,0.5,0.1c0.6-0.1,1.1-0.2,1.2-0.3
		C271.1,119.2,269.6,119.4,269.1,119.6 M232.2,122.7c-0.3,0.4-0.6,1.3-0.7,2l-0.2,1.3l-1.3,0.1c-1,0.1-1.7,0.4-3,1.4
		c-1.9,1.4-2.4,1.5-3.5,0.7c-1.5-1-3.1-0.3-1.7,0.8c2.2,1.7,3.4,1.8,5.8,0.5c2.2-1.2,2.8-1,4.7,1.4c1.9,2.3,2.7,2.9,4.5,3.1
		c2.6,0.3,2.5-0.9,0-2.2c-3-1.6-4.9-5.9-3.5-8.3C234,122,233.2,121.5,232.2,122.7 M206.2,122.8c0.4,0.4,1.7,0.6,1.7,0.3
		c0-0.3-0.9-0.6-1.6-0.6C206.1,122.5,206.1,122.6,206.2,122.8 M282.4,129.6c-0.4,1,1.2,10.6,2.3,13.6c0.3,0.8,0.5,1.9,0.6,2.6
		c0.1,0.8,0.4,1.7,0.8,2.4c1.4,2.1,0.8,4.5-2.5,9.5c-1.2,1.8-1.3,2.4-1.5,5c-0.1,0.9-0.1,1.7-0.1,1.8c0,0.1-0.9,1.2-2.1,2.4
		c-2.1,2.3-3.8,5.1-3.9,6.8c-0.1,1.7,0.5,1.2,1.8-1.3c1-2,1.7-2.9,3.4-4.6c2.3-2.3,2.8-3.3,2.8-5.8c0-1.3,1.4-4,1.5-3
		c0.1,0.3,0.2,0.6,0.3,0.8c0.1,0.1,0.2,1.3,0.2,2.7c0,2.7,0,2.8-2.5,5.5c-1.6,1.7-3,4.3-2.7,5c0.2,0.6,0.8,0.4,1.5-0.4
		c0.7-0.8,4.2-4.3,5.4-5.4c1-0.9,1.3-1.8,1.9-4.9c0.6-3.1,1.1-4.2,2.5-5.5c1.3-1.2,1.3-1.2-0.1-1.8c-0.6-0.2-1.4-0.8-1.8-1.1
		l-0.6-0.7l0.9,0.5c0.5,0.2,1.6,0.6,2.4,0.7c2.5,0.4,3.4-0.2,1.2-0.8c-1.2-0.3-3.5-1.6-3.2-1.8c0.1-0.1,0.6,0.1,1.3,0.4
		c1.7,0.7,3,0.9,4.1,0.6l0.9-0.3l0-1.6c0-1-0.2-2-0.5-2.7c-0.5-1.1-0.6-1.1-1.1,1l-0.3,1.2l-1.8-0.3c-4.1-0.7-7.3-4-8.2-8.5
		c-0.7-3.2-1.2-6.3-1.4-8.6C283.9,129.9,283,128.2,282.4,129.6 M279,130.7c-0.1,0.2,0,0.7,0.3,1c2.2,3.4,1.9,8.7-0.9,12.5
		c-0.5,0.6-1,1.6-1.2,2.2c-0.3,0.8-0.4,0.9-0.4,0.4c0-0.4,0.5-1.8,1.2-3.2c0.7-1.4,1.3-3.2,1.3-3.9l0.2-1.3l-0.5,0.7
		c-0.3,0.4-1.1,1.4-1.8,2.3c-2.3,2.8-2.4,3.3-2.2,8c0.3,5.9,0.3,5.9-0.5,7.1c-1.3,1.9-2.6,2.3-7.3,2.2c-3.8-0.1-4.1,0-5.5,0.6
		c-2.5,1.1-2.5,2,0,1c1.4-0.6,1.6-0.6,3-0.2c2.5,0.6,7.6,0.5,9.2-0.2c1.3-0.6,1.3-0.6,0.9,0c-1.1,1.6-3.5,2.4-7.1,2.4
		c-3.4-0.1-6.2,0.5-6.7,1.3c-0.4,0.8,0,0.9,5.6,1.2c6.1,0.3,6.6,0.2,8.9-1.2c0.9-0.6,2.2-1.3,2.7-1.6c2.4-1.2,2.7-4.2,0.7-9.6
		c-0.7-1.9-0.5-2.8,1.1-7c2-5.4,2.2-6.9,1.4-10.4C280.7,131.5,279.4,129.4,279,130.7 M222.1,132.5c-1.7,0.7-3,1.1-5.3,1.4
		c-1.7,0.2-3.5,0.5-4,0.6c-2.1,0.5-4.7,0.8-10.2,1.1c-5.1,0.2-6.2,0.4-8.9,1.1c-1.7,0.4-3.6,0.9-4.3,1.1
		c-6.8,1.4-11.3,4.2-16.5,10.5c-1.1,1.3-2.4,2.6-2.9,2.9c-0.6,0.3-0.9,0.7-0.9,1.1c0,0.7-2.8,5.4-4.1,6.9c-1.8,2.1-4.6,8.8-5.6,13.4
		c-0.4,2-0.4,2.5,0.4,3.4c0.3,0.3,0.7,1.4,0.9,2.4c0.2,1,0.7,2.5,1,3.4c1.2,3.5,3,17.1,3.5,26c0.8,14.6,7.6,26.3,23.6,40.1
		c1.6,1.4,4.7,4.3,6.9,6.4c6,5.8,11.1,9.5,17.5,12.6c2,1,4.3,2.2,5.2,2.7c2.4,1.4,3.1,1.7,4.1,1.5c2.2-0.5,7,3.3,11.1,8.8
		c2.1,2.9,2.7,3.4,3.2,3.3c0.6-0.1,4.6,5.4,4.6,6.2c0,0.1,0.2,0.3,0.4,0.4c1,0.4,0.3-2.1-1.5-4.6c-0.6-0.9-1.3-2.1-1.5-2.6
		s-0.6-1.5-0.9-2.2c-1.7-3.3-2-7.4-0.9-12.8c0.5-2.8,0.4-5.7-0.4-7.8c-0.7-1.8-1-1.9-1-0.4c0.1,2.1-0.4,5.9-0.9,8
		c-0.4,1.7-0.5,2.8-0.4,5.5l0.1,3.4l-0.6-1.1c-0.3-0.6-0.6-1.6-0.6-2.2c0-0.6-0.1-1.5-0.3-2c-0.4-1.4-0.3-2.7,0.3-5.9
		c0.5-2.6,0.5-3.1,0.2-5.5c-0.4-3-0.5-7.6-0.1-8.7c0.4-1.2-0.5-0.9-1.1,0.4c-0.9,1.9-1.2,5.2-0.6,7.4c0.4,1.7,0.4,1.9-0.1,4.7
		c-0.6,3.1-0.6,5.4-0.3,8.6c0.2,1.9,0.2,2-0.2,1.5c-0.8-1.1-1.5-3.8-1.5-6.5l0-2.6l-0.8,0.8c-0.7,0.8-3.1,1.9-3.4,1.6
		c-0.1-0.1,0.2-0.3,0.6-0.6c2-1.2,2-2.2,0.1-2.4c-0.7-0.1-1.7-0.4-2.2-0.7l-0.9-0.5l1.3,0c2,0,3.7-1.2,4.1-2.7
		c0.2-0.9-0.2-1-1.3-0.1c-0.9,0.7-2.7,1-2.1,0.3c0.3-0.3,0.1-0.4-1-0.3c-0.7,0.1-1,0-0.7-0.1s0.7-0.3,0.9-0.5c0.2-0.2,0.7-0.4,1-0.5
		c1.2-0.4,3.9-4.6,3.8-6l0-0.7l-0.2,0.7c-0.6,1.9-4,4.1-5.6,3.7c-0.6-0.2-1.3-0.2-1.7,0c-0.3,0.1-0.7,0.2-0.7,0.1
		c-0.1-0.1-0.4,0.1-0.8,0.3c-1.9,1.2-15.5-6.6-20.2-11.6c-0.1-0.1-0.7-0.6-1.5-1.2c-2.9-2.3-4.1-3.6-8.3-8.4
		c-3.6-4.2-3.8-4.5-0.9-2.3c3.5,2.7,5.9,4.3,9.5,6.3c2.2,1.2,5.1,3,6.4,4c3.2,2.4,5.9,4,10.2,6l3.6,1.7l3-0.1l3-0.1l1.6-1.5l1.6-1.5
		l-1.1,0c-0.6,0-2.8,0-4.9-0.1c-3.5,0-4-0.1-5-0.6c-1.5-0.8-1.4-0.8,0.8-0.3c2,0.5,2.3,0.5,6.5-0.2c1.4-0.2,2.9-0.3,3.4-0.3
		c0.7,0.1,0.9,0,1-0.3c0.2-0.6-1.2-1.3-3.7-1.9c-1.8-0.5-1.8-0.5-0.9-0.6l0.9-0.2l-0.9-0.3c-0.9-0.3-0.9-0.3,0.5-0.2
		c0.8,0.1,1.8,0.3,2.3,0.5c0.5,0.2,1.2,0.4,1.7,0.5l0.8,0.2l-0.9-0.9c-0.6-0.6-1.9-1.4-3.5-2.1l-2.6-1.1h-5.2h-5.2l-3.5-1
		c-16.5-4.9-25.8-12.1-28.2-21.8c-0.3-1.4-0.7-2.7-0.8-3.1c-0.5-1.6,1-2.2,6.3-2.7c1.3-0.1,2.9-0.4,3.6-0.5
		c13.1-3.1,13.7-3.4,18.4-8.4c1.7-1.9,6.7-8.5,7.1-9.6c1.2-2.8,0.4,5.8-0.9,10.5c-2.3,7.8-1.9,10.5,1.9,12.4
		c1.1,0.5,2.6,1.6,3.3,2.3c4.1,4.1,10.5,0.8,9.9-5.1c-0.1-0.9-0.3-1.8-0.4-1.9c-0.5-0.7-1.4-3.4-1.9-6.3c-0.3-1.7-0.9-4.5-1.2-6.3
		c-0.8-3.9-1.5-8.4-1.6-11c-0.1-2.3-0.6-2.5-2.4-1.1c-1.2,0.9-1.4,0.8-0.7-0.3c0.7-1,1.5-1.6,2.4-1.7c0.7-0.1,0.9-0.3,1-1.1
		c0.1-0.5,0.2-1.3,0.3-1.6c0.2-0.7-1-0.3-1.9,0.7c-0.6,0.6-1.2,0.7-1.2,0.2c0-0.2-0.3,0-0.6,0.4c-1.7,2-2.2,1.7-0.7-0.4
		c1.3-1.8,1.7-2.2,2.8-2.6c2.2-0.8,3.6-1.6,3.3-1.9c-0.4-0.4-2.6-0.3-3.9,0.2c-1.7,0.6-1.7,0.4-0.1-0.9c3.8-2.9,7.1-2.6,7.1,0.6
		c0,1.3,0.5,2.4,1.1,2.4c0.4,0,0.4-2.6,0-4c-0.4-1.2-1.4-2.1-2.2-1.9c-0.4,0.1-0.8,0-1.1-0.2c-1.3-1-4.6-0.3-5.8,1.2
		c-0.4,0.5-0.7,0.7-0.8,0.5c-0.3-0.5,1.7-2.7,2.9-3.2c1.3-0.6,0.8-1-0.8-0.7c-0.7,0.1-0.9,0.1-0.8-0.2c0.1-0.2,0.5-0.3,1-0.3
		c0.5,0,1.4-0.2,1.9-0.4c1.1-0.4,2.1,0.1,4.9,2.2c0.8,0.6,1.2,0.8,1.4,0.5c0.7-0.7-3.4-4.3-5.1-4.5c-0.6-0.1-1-0.2-1-0.4
		c0-0.3-3.1-0.3-3.8,0c-0.3,0.2-0.5,0.2-0.5,0.1c0-0.4,1.8-1.1,3.3-1.3c2.8-0.3,3.5-0.3,4.2,0.4c0.3,0.3,0.7,0.6,0.9,0.6
		c0.1,0,0.6,0.4,1,0.8c0.4,0.5,1,0.8,1.4,0.8c0.8,0,1.2-0.5,0.5-0.7c-1-0.3-1.3-0.6-2.3-2c-1.5-2.2-1.8-2.2-6.8-2.2
		c-4.8,0-6.7-0.5-2.8-0.7c1.7-0.1,2.4-0.3,4.1-1.2l2-1l-1.2-0.1c-1.5-0.1-0.9-1,0.8-1.3c1.1-0.2,1.3-0.5,0.5-0.7
		c-0.5-0.2-1.7,0.2-3.8,1.1c-1.6,0.7-2.9,1.1-3.6,1.1c-1.1,0-0.7-0.4,1-1.2c1.9-0.8,2-1,0.4-0.8c-1.5,0.2-1.5-0.1-0.1-0.7
		c0.6-0.3,1.4-0.8,1.8-1.2l0.6-0.7h-1.8c-2.4,0-2.1-0.3,1.1-1.2c2.4-0.7,2.7-0.8,3.5-1.8c1-1.2,0.9-1.2-0.5-0.5
		c-1.2,0.6-2.8,0.7-4.9,0.1c-2-0.5-1.9-0.5-3.4,0.7c-2,1.6-2.5,1.2-0.7-0.5l1.5-1.5l2.5-0.1c2.3-0.1,4.2-0.8,4.2-1.6
		c0-0.1-1.5-0.2-3.4-0.2c-5-0.1-8.9-0.7-8.9-1.3c0-0.1,1.1-0.1,2.5,0c3.1,0.2,6.5-0.1,7-0.6c0.2-0.2,0.5-0.3,0.6-0.3
		c0.6,0.4,4.2-1.7,3.7-2.1c-0.3-0.3-0.6-0.3-1-0.1c-0.8,0.4-2.9,0.3-3.1-0.2c-0.2-0.4-0.5-0.4-2.9-0.1c-3.4,0.4-6.9,0-9.1-1
		c-1.5-0.7-0.9-0.9,3.3-1c4.6-0.1,5.7-0.4,10.2-2.3c4-1.7,5.5-1.9,9-1c2.6,0.7,3.9,0.5,3.9-0.4c0-0.6-0.7-1.1-1.1-0.8
		c-0.2,0.2-1.1,0.4-2.1,0.5l-1.8,0.2l-1.3-1.2c-1.9-1.7-4.3-2-4.3-0.5c0,3.3-11.2,5.1-19.1,3.1c-4.9-1.3-9.1-0.7-12.6,1.6
		c-1.7,1.1-2.2,1-0.5-0.2c3.9-2.8,8.4-3.7,15.6-3.1c5.3,0.5,10.9-0.8,15.9-3.5c0.4-0.2,1-0.4,1.3-0.4c1,0,1.8-0.3,1.8-0.7
		c0-0.8-2.7-1-3.7-0.2c-2.3,1.7-5.8,2.5-11.4,2.6c-2.2,0-4.4,0.1-4.9,0.3c-0.9,0.2-0.9,0.2-0.4-0.2c0.7-0.6,2.4-1,7.5-2
		c4.7-0.9,7.7-1.8,9.3-2.8c1.9-1.2,5-0.9,5.9,0.6c0.5,0.8,1.2,0.8,1.2,0C230.6,132.6,225.4,131.1,222.1,132.5 M300.8,133.7
		c-0.5,0.4-1,0.8-1.2,0.8c-0.2,0,0.2-0.4,0.7-0.8C301.6,132.7,301.9,132.7,300.8,133.7 M270.2,133.8c-0.2,0.3-0.8,1.6-1.2,2.9
		c-1.3,3.3-2.1,5.1-2.5,5.1c-0.5,0-4.9,4.3-5.2,5.1c-0.4,0.9,0,2.4,0.9,3.4c0.4,0.5,0.7,0.9,0.7,1.1c0,0.5,3.2,1.8,4.3,1.8
		c4.5,0,6.6-4.3,6.3-12.5C273.2,135.6,271.5,131.8,270.2,133.8 M353.6,134.5c-1.4,0.5-6.3,5.3-7.1,6.9c-0.5,1-0.6,1.6-1.2,6.2
		c-0.7,5.2-2.3,8.9-4.8,11.7c-0.8,0.9-1.7,1.9-1.9,2.3c-0.2,0.3-0.9,1.1-1.4,1.7c-1,1.1-1.2,2.1-0.2,1.6c1-0.5,6.4-6.1,7.2-7.3
		c1.4-2.2,1.4-2.3,1.1-1.3c-0.7,1.7-2.2,4.4-3.2,5.7c-1,1.2-1.1,1.7-0.5,1.9c0.6,0.2,4-4.8,5.5-8c0.9-1.8,1.9-5.7,2.5-9.3
		c0.5-3.2,1.4-4.4,4.6-6.6c2.7-1.8,3.8-1.8,6.1,0c0.8,0.7,1.3,0.8,1.8,0.7c0.5-0.1,0.7-0.1,0.7,0.2c0,0.6,0.6,0.8,1,0.3
		c1.3-1.8-1.1-6-3.8-6.8C358.3,133.9,354.9,134,353.6,134.5 M254.2,138.2c0,2.8-0.9,6.5-1.6,6.5c-1.2,0-4.7,6-4.8,8.3
		c-0.1,1.6,1,3.1,1.8,2.5c0.3-0.2,0.6-0.2,1.1,0c2.6,1,6.9-0.8,8.4-3.6c0.6-1,0.6-7.3,0.1-8.5c-0.4-0.9-1-0.8-0.9,0.1
		c0.5,5.5,0.3,6.6-1.2,8.3c-0.9,1-3.2,2-3.7,1.5c-0.9-0.8-0.2-3,1.5-4.9c0.8-0.9,1.2-1.5,1.3-2.3c0.2-1.4-0.2-1.4-0.9,0.1
		c-0.4,0.9-0.9,1.3-1.8,1.8c-0.8,0.4-1.4,0.9-1.7,1.6c-0.3,0.5-0.5,0.9-0.5,0.7c0-0.5,1-2,1.6-2.3c1.5-0.8,3.1-5.9,2.9-9.1
		C255.3,134.7,254.2,134.3,254.2,138.2 M366.6,136c-1.1,0.6-1.8,1.5-1.5,2.1c0.5,0.9,2.3,2,2.9,1.9c0.6-0.2,0.6-0.2,0.6,2.3
		c0,2.4,0.2,3,0.9,2.4c0.3-0.3,0.4-0.2,0.5,0c0.1,0.2,0.2,0.8,0.4,1.2c0.1,0.5,0.4,2,0.5,3.4c0.3,3.8,1.5,3.9,1.9,0.2
		c0.3-2.6,0.6-1.4,0.6,2.2c0,3.8,0.8,4.6,1.7,1.6c1.2-4,0.1-9.4-2.2-10.9c-0.8-0.6-0.9-0.8-1.1-2.3
		C371.5,136.4,369.2,134.7,366.6,136 M271.5,139.9v3.5l-1,1.3c-0.5,0.7-1.4,2-1.8,2.9c-1,1.7-1.9,2.3-3.6,2.3c-0.9,0-1,0-0.5-0.4
		c0.5-0.4,0.5-0.4,0.1-1.2c-0.7-1.3-0.6-1.8,1.2-3.7c2.2-2.3,3.4-4.2,4.3-6.7C271.3,135.2,271.5,135.6,271.5,139.9 M241.2,142.2
		c-0.1,0.1-0.3,1-0.6,2c-1.1,4.2-2.6,6.2-6.5,8.9c-4.2,2.8-5.1,4.1-4.7,7.1c0.8,6.4,8.7,5.8,12.1-0.8c1.1-2.1,0.3-3.2-0.8-1.2
		c-0.7,1.3-2.8,3.5-3.6,3.7c-0.6,0.2-0.6,0.1,0.2-1.2c1.5-2.4,1.3-4.7-0.2-2.4c-0.8,1.2-2.9,3.4-3.3,3.4c-0.8,0,0.6-3.4,2.1-5.1
		c4.1-4.5,5.5-6.8,5.5-9.1c0-0.9,0.2-2.3,0.4-3.2C242.1,142.8,241.7,141.3,241.2,142.2 M327,143.2c-0.7,0.5-1.2,1-1.2,1.1
		c0,0.1-0.9,1.1-1.9,2.3c-8.6,9.7-10.9,20.3-6.7,30.3c1.6,3.7,4.5,4.9,8.8,3.6c2.7-0.8,6.7-4,4.3-3.5c-1.5,0.3-5.9-3.6-7.5-6.9
		c-3.3-6.7-1.1-18.9,4.7-25.6C329.7,142.2,329.4,141.4,327,143.2 M360.9,144.2c-0.1,0.2,0.4,1.2,1.1,2.2c0.7,1,1.2,2.1,1.2,2.4
		c0,0.6,0,0.6-0.3,0c-0.5-1-1.9-2.3-2.4-2.3c-0.6,0-0.6,0.3,0.2,2.7c0.9,2.8,1.3,6.1,0.8,8l-0.4,1.5l0-1.4c0-2.1-0.8-4.3-1.4-4.3
		c-0.4,0-0.5,0.1-0.4,0.9c0.5,2.8,0.5,3.1-0.1,4.9c-0.8,2.4-1.6,3.7-3.4,5.8c-4.1,4.6-5.5,9-4.2,13.6c0.7,2.6,1.7,2.7,1.7,0.1
		c0-3.4,1.5-7.1,3.1-7.8c1.3-0.5,7.3-6.7,8-8.1c1.9-4.2,1.7-11.2-0.3-15.2C363.1,145.3,361.1,143.5,360.9,144.2 M377.9,144.1
		c-0.4,0.1-0.7,0.7-1,1.4c-0.4,1.3-0.3,1.5,0.6,1.8c1.2,0.4,1.9,6.6,1.1,9.9c-0.7,2.9-0.7,3.9-0.3,3.9c0.7,0,1-0.4,1.8-2.1l0.8-1.7
		l-0.2,1.1c-0.3,1.8-1.2,3.4-2.5,4.5c-2,1.6-0.9,2.1,1.4,0.6c3.6-2.4,5-11.4,2.6-17.3C381.6,144.2,379.9,143.4,377.9,144.1
		 M388.1,148.4c-2.3,0.1-2.4,0.2-2.4,0.8c0,0.6,0.1,0.6,2.1,0.7c7,0.4,12,3.4,15.3,9.3c1.2,2.1,0.9,2.2-0.5,0.1
		c-3.2-4.9-8.6-7.7-14.7-7.7h-2l0.1,1.3l0.1,1.3l2.4,0.2c10.1,0.7,16.3,8.6,13.6,17.3c-1.5,4.8-6.4,7.1-10.8,5l-1.5-0.7l1.5,0.1
		c4.1,0.4,8.7-3.4,8.8-7.1c0-5-4-8.6-8.2-7.5c-2.5,0.7-4.4,2.7-2.5,2.5c4.3-0.4,6.1,0.3,7.7,2.9c2.9,4.8-4.1,9.9-9,6.5
		c-2.3-1.5-3-1.1-1.3,0.8c0.6,0.7,1.1,1.3,1.1,1.4c0,0.3,2.6,2.2,4.4,3.1c4.9,2.5,12.9-0.6,14.8-5.8c2.8-7.4-0.6-18.6-6.6-22.2
		C396.5,148.4,394.4,148,388.1,148.4 M185.8,150.6c1.4,0.2,2.7,0.6,8.5,2.4c7.7,2.4,12.9,7.6,16.8,16.8c0.5,1.1,1.9,6,1.9,6.5
		c0,0.1-0.8-1.5-1.9-3.5c-1.3-2.5-2.3-4.2-3.3-5.3c-1.7-1.9-2-1.6-0.4,0.5c0.6,0.8,1.3,2,1.6,2.7c2.3,5.2,4.8,11.9,4.8,12.6
		c0,0.9-0.5-0.1-2-3.5c-1.7-3.9-4.6-9.1-5-8.8c-0.2,0.1-0.2,0.3,0,0.7c0.9,1.7-0.8-0.1-3.4-3.5c-1.6-2.2-3.6-4.2-4.8-5
		c-0.4-0.3-1.7-1.2-2.9-2c-4.7-3.4-11.8-6.3-16.1-6.5c-1.4-0.1-3.4-0.3-4.4-0.4c-1.4-0.2-1.9-0.2-2.4,0c-0.9,0.6-0.8,0.2,0.4-1.1
		l1.1-1.3l2.9-0.2c2.5-0.2,3.2-0.1,4.9,0.4c2.1,0.6,3.2,0.7,3.2,0.4c0-0.3-2.7-1.3-4.4-1.7c-0.9-0.2-2.1-0.4-2.8-0.5
		C176.7,150,183.9,150.2,185.8,150.6 M325.2,151.2c-0.9,1.5-0.9,6.2,0,9.7c1.6,6,3.9,9.4,7.5,10.5c0.8,0.3,1.5,0.6,1.6,0.8
		c0.7,1.3,2-0.5,2.2-3.2c0.2-1.9-0.1-2.3-1.9-2.3c-4.4,0-8.9-6.4-9-13C325.7,152.1,325.5,150.8,325.2,151.2 M223.9,152.6
		c-0.6,0.6-0.6,0.7-0.1,0.4c0.7-0.3,1.3-1.1,1-1.1C224.7,151.9,224.3,152.2,223.9,152.6 M249.1,159.8c-2.6,1-5.9,2.7-6.8,3.4
		c-0.4,0.3-0.8,0.6-1,0.6c-0.6-0.1-0.9,0.1-2.2,1.2c-3.8,3.3-9.4,2.7-10.7-1.2c-0.2-0.5-1-0.1-1,0.4c0,1,2.8,4.3,3.8,4.5
		c3.6,0.7,4,0.8,4.8,0.5c0.8-0.3,0.8-0.3,0.5,0.2c-3.4,4.8-4.3,6.8-5,11.2c-0.9,5.2-0.6,8.5,0.6,7.5c0.3-0.2,0.4-0.8,0.4-1.8
		c0-10.7,7-20.4,17.8-24.4c1.7-0.6,3.4-1.9,3.2-2.5C253.3,158.9,251,159.1,249.1,159.8 M251.7,164c-3.3,1.1-4.8,2.2-8,5.6
		c-4.8,5.2-8.5,17.4-6.8,22.8c0.5,1.6,1.1,0.5,1.3-2.2c0.6-8.8,4.2-16.1,10.5-21.2c1.6-1.3,3.2-2.6,3.6-3c0.4-0.4,1.3-0.9,2-1
		c1.4-0.4,2.2-0.9,2.2-1.5C256.5,162.8,254.7,163,251.7,164 M383.8,164c-0.8,0.6-1.2,0.7-2.1,0.6c-1.3-0.2-1.8,0-1.8,0.6
		c0,0.7,1.2,1.4,2.4,1.4c2.3,0,5.2-2.5,3.6-3.1C385.2,163.2,384.9,163.3,383.8,164 M366.8,164c-0.2,0.4,0.1,0.7,0.4,0.5
		c0.3-0.2,0.3-0.9,0-0.9C367,163.6,366.9,163.8,366.8,164 M374.5,165c-0.5,0.3-1.3,0.8-1.6,1.1c-0.9,0.6-2.9,0.9-3.9,0.4
		c-1-0.4-1.2-0.2-0.8,0.5c0.9,1.7,4.2,1.7,6.9,0.1c1.9-1.1,2.2-1.6,1.6-2.1C376,164.5,375.5,164.5,374.5,165 M176.9,168
		c1.5,0.7,1.7,0.7,6.9,0.8c2.9,0,6,0.2,6.7,0.4c2.7,0.6,6.7,2.2,9.1,3.6c1.3,0.8,2.5,1.4,2.7,1.4c1.4,0,5.4,6.5,7.2,11.9
		c1,2.9,0.9,3.2-0.6,2.9c-1.3-0.2-2.6,0.5-4.6,2.8c-6.2,6.9-8.5,8.1-19.5,9.8c-3.7,0.6-7.7-0.5-11.2-2.9c-4.1-2.8-9.5-10.8-9.8-14.6
		l-0.1-1.5l0.8,1.9c3.2,7.9,11.7,13.7,20.1,13.7c1.5,0,2.3-0.1,2.2-0.3c-0.1-0.1,0.1-0.3,0.4-0.3c0.6,0,1.3-0.7,0.9-0.9
		c-0.1-0.1-1.2-0.3-2.3-0.4c-5-0.6-9-2.6-12.1-6.1c-1.8-2-3.8-4.7-4.3-5.7c-2-4.4-3.2-9.4-3.2-12.8l0-1.6l1.2,1.2
		c1.3,1.4,3.1,2.4,3.7,2.1c0.4-0.2,0.6-0.6,0.2-0.6c-0.3,0-3.3-2.7-3.3-3c0-0.1,0.4,0,0.8,0.3c2.3,1.6,6.4,3.1,6.4,2.3
		c0-0.3-0.2-0.4-0.6-0.4c-1.1,0-2.1-0.9-3.3-3c-0.7-1.3-0.6-1.4,0.8-0.3c2.1,1.5,4.2,2.2,6.8,2.3c1.9,0.1,2.1-0.5,0.3-1
		c-2-0.5-4.2-2-5.7-3.8l-0.8-1l1.4,1C174.7,166.9,176,167.7,176.9,168 M270.3,170.3c0,0,0,1.4-0.1,3c-0.1,5.1-3.2,11.5-6.8,14.2
		c-0.7,0.5-2.1,1.6-3.1,2.4c-5.2,3.9-6.4,4.5-11.2,5.8c-5.1,1.3-5.5,1.5-5.5,2c0,1.2,12.2-1.8,16.1-3.9c0.5-0.3,1.6-0.8,2.5-1.1
		c1.6-0.6,4.3-2.8,4.6-3.7c0.1-0.3,0.6-1.1,1-1.8c3-4.4,4.8-12.8,3.5-15.9C271,170.5,270.4,169.9,270.3,170.3 M336.6,175.3
		c-0.9,2.1-1.9,3.2-3.8,4.2c-3.1,1.6-4.7,4.4-5,8.9c-0.2,3.4-0.4,2.9-0.6-1.4c-0.2-3.9-0.2-3.9-1-3.7c-0.5,0.1-0.6,0.3-0.4,0.9
		c0.8,3,0.6,4.2-0.3,2c-0.9-2.3-3.6-4.4-4.5-3.6c-0.5,0.4,0,1.2,1.1,1.8c1.5,0.7,2,2,3.4,9.7c0.3,1.5,0.9,4.6,1.4,6.8l0.9,4
		l-0.2,6.8c-0.1,3.7-0.3,7.6-0.4,8.5c-0.1,1-0.3,2.4-0.4,3.2c-0.2,1.3-0.2,1.4,0.3,1.3c1.5-0.3,3.5-16.7,2.8-23.2
		c-1.1-9.7,0.5-18,3.8-20.1c2.5-1.6,4.5-4.4,4.5-6.4C337.8,173.9,337.1,174.1,336.6,175.3 M277.8,175.7c-2,2.3-3.2,6-3.4,10.4
		l-0.1,3.3l-2.1,2.3c-1.1,1.3-2.9,3.2-4,4.3c-1,1.1-2.2,2.7-2.7,3.5c-0.4,0.8-0.9,1.4-1,1.4c-0.1-0.1-0.3,0.5-0.5,1.2
		c-0.2,0.7-0.5,1.9-0.7,2.7l-0.4,1.5l0-1.8c0-3.9,1.4-7.8,3.8-10.1c4.6-4.4,4.6-4.3,5.2-6.1c1.1-3,1.6-5.4,1.9-8.5
		c0.2-1.7,0.4-3.5,0.4-3.9c0.1-0.7,0.1-0.9-0.4-0.9c-0.5,0-0.9,1.3-1.7,5.7c-0.6,3.7-2.3,6.4-5.7,9.9c-4.8,4.8-6.7,11.6-5.4,19.9
		c0.4,2.6,0.5,5.9,0.2,7.3c-0.2,0.7-0.2,0.7-0.4-0.7c-0.1-0.8-0.5-2.4-0.9-3.5c-0.4-1.2-0.7-2.7-0.7-3.7c0-0.9-0.1-1.7-0.3-1.7
		c-0.8-0.2-0.8,3.6,0,6.9c0.7,3.1,0.5,5.5-0.7,9.1c-1.3,3.8-1.2,4.1,0.6,2.3c4-3.9,5.7-8,5.7-14.3c0.1-5,0.4-6.6,2-10
		c1.5-3.2,5.8-7.5,8.2-8.2c0.9-0.3,1.1-1.3,1.1-6c0-2.6,0.1-4.8,0.3-5.1c0.1-0.3,0.3-0.8,0.3-1.1c0-0.4,0.6-1.9,1.3-3.4
		C279.9,174.9,279.8,173.5,277.8,175.7 M176.9,176c-2,0.8-6,3.2-6,3.6c0,1.4,5.7,7.9,8.1,9.1c1.6,0.8,1.7,0.7,1.1-1.4
		c-0.6-2.3-0.6-7.4,0-9.9c0.2-1,0.4-1.9,0.4-2.1C180.5,174.8,179,175.1,176.9,176 M189.1,175.2c-0.4,0.1-0.2,7.3,0.2,9
		c0.3,1.2,0.6,2.2,1.6,4.7c0.5,1.3,2.7-6.1,3-10.3c0.2-2.7,0.1-2.9-2.1-3.1c-0.9-0.1-1.8-0.2-2.1-0.3
		C189.6,175.2,189.3,175.2,189.1,175.2 M354.3,178.9c0,0.7,0.7,1.8,2.1,3.2c0.7,0.7,1.5,1.7,1.6,2.2c0.3,1,0.4,0.7-1.8,6.4
		c-1.4,3.6-1.8,6.1-1.7,11.6c0,2.1,0,4.9,0,6.1c-0.1,5.8,1.9,24.5,3.4,32.7c1.4,7.6,2.5,12.3,3.2,13.9c0.3,0.6,0.8,1.9,1.2,2.9
		c0.4,1,1.2,3,1.9,4.4c0.6,1.4,1.5,3.5,2,4.6c0.8,1.9,1.4,2.6,1.7,2.1c0.2-0.4-0.9-3.7-3-8.4c-1.3-3.1-3.2-9.2-3.2-10.7
		c0-0.4-0.4-2.9-0.9-5.3c-0.5-2.5-1-5.2-1.1-6l-0.1-1.5l0.3,1.3c0.1,0.7,0.4,2.1,0.6,3.1c0.8,4,3.3,13,4.7,17.3c0.3,1,1.6,4,2.8,6.7
		c3.3,7.4,4.6,10.9,5.3,14.7c1.4,7.1,8,21.6,9.2,20.3c0.4-0.4,0-1.7-2.4-7c-1.7-3.9-2.8-6.7-2.6-6.8c0.2-0.2,3.9,6.5,5.7,10
		c3.2,6.4,3.4,7.5,1.3,8.6c-1.7,0.9-2.8,2.1-3,3.4c-0.4,1.9,1.1,2.7,1.8,1c0.5-1.2,1.3-2,2.6-2.5c2.6-1,3.7-4.1,2.2-6.1
		c-0.5-0.6-0.9-1.4-2.6-5.1c-1-2.2-2.1-3.7-2.9-3.9c-0.5-0.1-1-0.9-2.4-3.8c-1-2-2.2-4.3-2.7-5.1s-1.3-2.8-1.8-4.5
		c-0.5-1.6-1.2-3.5-1.6-4.1c-0.4-0.6-1-2.4-1.5-3.9c-0.5-1.5-1.8-4.9-3-7.4c-3.3-7.1-4.7-11.5-5.8-17.4c-0.3-1.7-0.9-4.2-1.2-5.6
		c-0.4-1.4-0.6-2.9-0.6-3.4s-0.3-1.8-0.7-2.9s-0.7-2.7-0.8-3.6c-0.1-0.9-0.3-3.4-0.4-5.4c-0.3-4-0.7-6.6-1.9-14.1
		c-1.3-8.1-1.1-13.3,0.9-19.3c2.1-6.4,1.6-9.3-2.1-11c-0.5-0.2-1.1-0.7-1.5-1.1C355,178.4,354.3,178.3,354.3,178.9 M336.9,180
		c-0.4,0.5-1,1.7-1.4,2.6c-0.4,0.9-0.9,2.1-1.1,2.5c-0.7,1.6-1.2,4.5-1.6,10.2c-0.2,3.2-0.5,5.9-0.5,6c-0.5,1.4-0.5-10.7,0-13.6
		c0.1-0.8,0.1-1-0.2-0.9c-1.1,0.4-1.7,6-1.3,14.1c0.1,3.4,0.1,6.5,0,7.7c-0.1,1.1-0.4,3.3-0.5,4.8c-0.1,1.5-0.5,3.9-0.8,5.1
		c-0.3,1.3-0.6,2.6-0.6,2.9c0,0.7-2.6,8-3.1,8.5c-0.2,0.2-0.6,0.8-0.8,1.3c-0.3,0.5-0.9,1.4-1.4,2c-3.1,3.8-8.9,19.6-8.9,24.2
		c0,0.6-0.1,1.3-0.2,1.5c-0.4,0.7,0.2,1.3,2,1.9c2.6,0.8,3.3,0.6,3.4-1c0-1.4,3.7-16.7,4.1-17.1c0.2-0.2,0.1,0.2-0.4,2.5
		c-0.9,3.7-1.3,6.6-1.4,10.2c-0.1,5.4,0.7,4.4,1.5-1.7c0.9-6.8,3.2-15,6-21.8c2.2-5.4,4.2-12.1,5.8-19.1c0.9-4,1.4-18.3,0.6-18.3
		c-0.4,0-0.5,0.8-0.8,5.5c-0.2,2.6-0.4,5.7-0.6,7l-0.3,2.3l-0.2-2.1c-0.1-1.2-0.3-2.3-0.4-2.4c-0.1-0.2-0.1-1.2,0-2.5
		c0.1-1.2,0.4-4.4,0.6-7c0.4-6.9,1.4-11.4,2.9-14.2C338.5,178.9,338.2,178.2,336.9,180 M200.2,180.3c0.4,1.7,0.3,6.8-0.2,8.1
		c-0.5,1.5-0.5,1.5,1.6,0.1c1-0.7,2.2-1.3,2.7-1.4c1.6-0.3,1.6-0.7,0-3.2C202.3,180.5,199.7,178.3,200.2,180.3 M226.2,180.8
		c-0.3,0.3-0.2,0.7,1.1,2l1.2,1.3l-0.3,1.3c-0.4,1.7-0.4,2.8,0,3c0.1,0.1,0.3,1,0.3,2c0,5.4,1.1,14.3,2,16.1
		c0.8,1.5,1.8,6.4,1.6,7.8c-0.1,0.7-0.2,1.7-0.3,2.2s-0.4,1.3-0.8,1.8c-0.8,1.1-0.9,2-0.3,2c0.4,0,1.5-0.9,1.5-1.3
		c0-0.1,0.3-0.7,0.7-1.2c0.4-0.5,0.7-1.2,0.7-1.4c0-0.3,0.2-0.8,0.4-1.2c0.9-1.7,0.4-4.8-1.7-9.4c-2-4.6-3.8-17.4-2.7-20.1
		c0.2-0.4,0.3-1,0.3-1.3C229.8,183,226.9,180.2,226.2,180.8 M278.9,187.4l0.1,4.4l-0.8,1.1c-0.4,0.6-1.6,1.6-2.5,2.2
		c-5.6,3.7-6.9,6.6-6.6,15c0.1,2.9,0.1,5.4,0,5.7c-0.3,0.7-1.4-5-1.4-7c0-1.5-0.3-1.9-1-1.4c-0.5,0.4-0.4,2.3,0.1,6
		c0.2,1,0.3,3.7,0.4,5.8s0.1,3.9,0.1,3.9c0,0,0.6-0.9,1.2-1.9c2.4-4,3.1-6.5,3.1-10.9c0-4.2,3.5-9.4,8.9-13.2
		c2.4-1.7,2.6-2.1,1.8-4.2c-1-2.8-2.6-7.8-2.8-8.8C279.1,181.9,278.8,183.2,278.9,187.4 M347,186.5c-0.1,0.1,0,0.9,0.1,1.8
		c0.4,2.1,0.3,2.7-1.2,5.9c-1.5,3.2-1.7,3.3-0.7,0.5c0.9-2.9,0.9-6,0-6.4c-0.3-0.1-0.4,0.2-0.4,1.4c0,1.2-0.4,2.7-1.4,6.1
		c-1.1,3.3-1.5,5.2-1.7,7.1c-0.5,5.1-0.6,8.3-0.3,10.6c1.2,9.5,1.3,15.3,0.2,22.1c-0.3,2-0.2,2.9,0.4,2.3c0.3-0.3,1.3-5.5,1.6-8.6
		c0.3-2.6,0.2-7.7-0.2-12.9l-0.1-1.9l0.4,1.3c1.1,3.6,1.2,10.5,0.3,17.1c-0.5,3.5-0.6,11.8-0.1,12.2c0.5,0.5,0.6,0,0.7-2.5
		c0.2-4.1,0.4-6.7,0.8-8.8l0.3-2l0.2,2.3c0.6,5.7,0,19.3-1,23.2c-0.9,3.5-4.3,13.1-5.8,16.4c-2.2,5-3.5,6.8-7,10.1
		c-5.7,5.5-6.9,6.9-6.9,8.3c0,1.2,1.2,0.6,3.4-1.8c1.1-1.3,3.1-3,4.2-3.8c1.2-0.8,2.9-2.1,3.9-2.8c4-2.9,8.3-10.4,9.2-16.2
		c0.2-1.3,0.6-3.3,0.9-4.3c2-6.9,2.4-9.5,2.4-17.9c0-10.3-1.4-22.7-3.3-30.6c-2.1-8.5-1.9-11.7,1.1-18.6c2.1-4.8,2.3-5.9,1.4-8.2
		C347.6,186.3,347.3,186,347,186.5 M233.1,190.7c-0.1,0.2-0.1,1.4,0,2.7c0.1,2,0.1,2.2-0.2,1.4c-0.6-1.3-1.3-1-1.2,0.6
		c0.1,2.3,0.9,7,1.3,8.1c0.2,0.6,0.3,1.4,0.2,1.8c-0.1,0.6,0.2,1.4,1.3,3.6c1.4,2.8,1.4,3,1.4,5.1c0,1.2,0.1,2.2,0.2,2.2
		c0.1,0,0.3-0.1,0.4-0.1c1.6,0,0.9-6.1-1.4-11.7c-0.7-1.7-1.2-4.1-1.6-7.2c-0.2-1.5-0.2-1.5,0.8,1.1c0.5,1.4,1.7,4.2,2.6,6.1
		c2.6,5.5,3.4,9.4,2.2,11c-0.3,0.4-0.5,0.8-0.4,0.9c0.4,0.4,1-0.2,2.2-2l1.3-1.9l-0.3-1.7c-0.3-1.8-2.2-5.9-4.2-8.9
		c-1.5-2.3-3-6.1-3.4-8.5c-0.5-2.9-0.5-3.1-0.8-3.1C233.4,190.3,233.2,190.5,233.1,190.7 M125.5,197.2c-0.3,12.1-4.1,24.2-10.5,34.1
		c-0.7,1.1-2,3.3-2.9,4.8s-1.9,3.1-2.2,3.5c-0.7,0.8-0.7,0.9,3.1-6.1c3.2-5.9,6.2-12.7,6.2-14.2c0-0.3-1.8,2.7-4.3,6.9
		c-2.5,4.2-4.7,7.8-7.7,12.4c-4.8,7.3-6.6,11.6-9.5,22.3c-2.1,7.8-2.3,15.6-0.5,22.1c2.1,7.8,2.7,9.6,3.9,12.1
		c0.6,1.2,1.6,3.1,2.4,4.1c2.6,3.8,7.2,12.1,7.2,12.9c0,0.1,0.2,0.6,0.5,1.2c0.3,0.6,0.9,2.1,1.4,3.3c1.5,4,1.5,3.1,0-2
		c-0.6-2-3.5-7.7-6.2-12.3c-2.2-3.6-3.6-6.6-4.5-9.3c-1.4-4.2-1.2-4.6,0.4-0.9c1.6,3.8,3.3,6.9,6.2,11.5c2.9,4.6,5.6,9.8,6.4,12.4
		c0.6,1.9,0.9,2.2,0.7,0.6c-0.1-0.8-1.4-3.7-3.4-7.7c-10.5-21.2-12.8-28.3-12.6-38.9c0-2.1,0-2.1,0.4,1.3c1,10.2,3.1,17.2,7.1,24.9
		c3,5.8,6.4,12,6.5,12c0.3,0-2-4.9-4.8-9.8c-3.1-5.7-3.8-7.4-5.7-15.7c-1.9-8.2-1.9-22.7,0.1-26c0.4-0.8,0.4-0.2-0.2,4.3
		c-0.3,2.3-0.3,8,0,11.7c0.1,1.4,0.2,2.4,0.2,2.1c0-0.2,0.2-1.4,0.3-2.7c0.1-1.2,0.4-4.2,0.5-6.7c0.2-3.5,0.4-5.1,1.1-7.5
		c1.5-5.9,2.2-6,1-0.2c-1.1,5.5-1.2,12.9-0.1,19.3c1.3,7.6,1.5,8.2,6.2,18c1.4,2.9,2.8,5.9,3.2,6.8s1.1,2.5,1.7,3.6
		c0.9,1.9,2.3,5.6,3,8.3c0.3,1,0.4,1.1,0.6,0.7c0.5-0.9-1.4-7.2-3.3-11c-5.8-11.6-10.2-30.6-9.1-39.3c0.2-1.6,0.2-1.5,0.4,2.5
		c0.1,2.3,0.5,5.9,0.8,7.9l0.6,3.6l0-6.5c0-9.2,0.6-13,3.2-21.3c1.9-5.9,1.7-4-0.5,4.9c-3.1,12.9-1.8,28.3,3.5,41.1
		c1.7,4.1,2,4.2,0.5,0.3c-4.9-13-5.8-20.6-3.6-32.1c0.3-1.8,0.8-5,0.9-6.9c0.3-3.8,1.1-8.2,1.6-9c0.2-0.4,0.3-0.3,0.1,0.5
		c-0.2,1-1,9-0.9,9.3c0,0.3,1.8-4.9,2.7-8c1.7-5.8,3.3-9.5,6.3-14.6c1.4-2.3,4.6-8.7,5.2-10.2c0.4-1.1,1-3,0.9-3
		c-0.2,0-3.8,6.5-6,10.9c-2.8,5.5-3.5,6-1.2,0.8c0.5-1.2,2.5-5.1,4.3-8.5c4.1-7.9,5.2-10.8,5.4-13.9c0.1-2.5,0.2-2.6-1.2,1.9
		c-0.6,2.1-1.9,4.6-10,20.7c-1.2,2.3-2.6,5.2-3,6.4c-0.8,1.9-0.9,2-0.7,1c0.2-1.7,1.1-4.1,2.6-7.1c7.1-14.5,9.6-21.8,10-29.3
		c0.2-3.5,0-4-0.4-1.4c-0.4,2.4-1.7,6.8-2.9,9.9c-3.1,8.1-4.9,12-2.7,5.9c3.2-8.7,4.3-13.9,4.2-19.4l0-3.9l-0.4,3.4
		c-0.5,4.5-1.3,8.9-2.3,11.9c-1.1,3.4-1.2,2.7-0.3-2.2c0.8-4.5,1.2-15.4,0.7-16.7C125.7,192.5,125.6,193.7,125.5,197.2 M258.9,195.6
		c-11.5,6-14.5,9.3-12.1,13.2c2.2,3.7,2.5,5.4,1.1,8.1c-0.4,0.7-0.7,1.7-0.7,2.2c0,0.5-0.2,1.5-0.4,2.2c-0.2,0.8-0.4,2.4-0.4,4.4
		c0,3.3-0.4,4.7-1.5,5.6c-0.4,0.3-0.4,0.2-0.4-0.4c0-1.3-0.4-1.9-0.7-1.3c-0.3,0.8-0.6,6.7-0.3,6.1c0.3-0.5,1.4-1.8,3.5-4.5
		c1.9-2.3,3.3-4.9,3.9-7.4c1.1-4.3,1.7-5.9,2.5-6.9c3.9-4.8,4.6-6.6,3.5-9.3c-1.3-3.3-1.1-4.2,1.7-7.1c1-1,1.8-1.9,1.8-2
		c0-0.4-1.5-0.5-1.9-0.1c-0.2,0.2-0.9,0.7-1.5,1.2c-0.6,0.4-1.5,1.4-1.9,2.1c-0.4,0.7-1,1.7-1.4,2.2c-0.8,1.2-0.8,2.5,0.1,4.2
		c1.1,2.2,1,2.5-1.7,7.1c-2.1,3.7-2.1,3.6-0.4-1.9c0.9-2.8,0.6-4.8-0.7-6.1c-1.2-1.1-1-3.8,0.4-5.2c0.9-0.9,4.4-3.4,5.2-3.7
		c1.3-0.5,3.6-2.3,3.6-2.9C260.2,194.9,260,195,258.9,195.6 M273.9,207.2c-0.1,0.3,0.1,0.9,0.4,1.4c3.6,5.8,3.9,9.6,1.2,11.4
		c-0.6,0.4-0.6,0.4-0.3-0.4c1-2.7,0.4-7.9-1.1-8.1c-0.6-0.1-0.6,0-0.5,0.7c0.8,3.7,0.9,3.4-0.5,6.9c-2.4,6.1-4,9.3-7.2,14.4
		c-0.5,0.7-1.4,2.3-2.2,3.4c-0.7,1.1-1.5,2.3-1.8,2.7l-0.5,0.6l0.2-0.8c0.4-1.7,0.6-4.1,0.6-5.6l0-1.6l-0.2,1.4
		c-0.5,3.3-2.4,7.7-4.3,10.3c-1,1.3-1.2,1.8-1.4,3.2c-0.5,4.5-1.4,4.4-1.5-0.2c0-2.8-0.5-5.2-1.6-8.2c-0.7-1.9-0.8-1.8-1.1,0.9
		c-0.3,3.5-1.9,7.7-4.5,11.9c-0.4,0.7-1.2,2.3-1.7,3.7c-0.5,1.4-1.2,3.2-1.6,4c-3.1,7.3-3.1,21.3,0,25.5c0.9,1.3,1,0,0.3-3.2
		c-1.1-4.4-1.1-5.7-0.3-11.5c0.7-4.6,1.9-10.7,1.6-7.6c-1.1,9.4-0.6,17.9,1,17.9c0.2,0,0.3-1.8,0.4-7.4c0.1-11.2,0.8-15.4,3.9-21.9
		c1.2-2.5,0.6,2.1-0.9,7.1c-1.7,5.7-1.7,11,0,11c0.5,0,1.1-2,1.1-3.6c0-0.3,0.3-1.1,0.6-1.8c0.3-0.7,1.1-2.3,1.6-3.7
		c0.9-2.4,4.4-10,6.9-14.9c0.6-1.2,1.4-2.4,1.7-2.6c0.3-0.2,2.2-2.8,4.2-5.8c2-3,4.5-6.4,5.5-7.7c5.6-6.7,7.3-9.4,7.6-12.3
		C279.9,213.9,274.7,205.1,273.9,207.2 M206.2,210.5c-0.1,0.1-0.8,0.3-1.6,0.5s-2.6,0.6-4,1c-3,0.8-9.7,1.6-15.2,1.9
		c-5.3,0.2-5.2,0.2-5.2,1.6c0,5.3,5.6,12.6,11.7,15.1c5.1,2.1,16.4,2.7,19.5,1.1c0.3-0.1,0.8-0.3,1.1-0.3c0.3,0,1.4-0.4,2.4-0.8
		c2.4-1.1,5.4-1.4,6.6-0.5c0.4,0.3,0.9,0.6,1.1,0.6c0.2,0,0.7,0.6,1.3,1.3c0.6,0.7,1.2,1.3,1.4,1.3c0.2,0,0.8,0.5,1.4,1
		c2.3,2.2,4.4-3.2,2.9-7.5c-0.4-1-0.5-2-0.5-2.9c0.1-1.1,0-1.4-0.3-1.4c-0.8,0-1.2,1.5-1.1,4.3c0.1,4.6-0.1,5.2-1.3,3.1
		c-2.7-4.7-4.9-6.4-8.5-7c-10.4-1.6-14.1-5.1-11.8-11.2C206.6,210.3,206.6,210.1,206.2,210.5 M133.8,214.2c-0.3,0.6-1.2,3.8-1.8,6.5
		c-0.3,1.1-0.8,2.7-1.2,3.5c-0.4,0.8-0.9,2.1-1.2,2.9c-0.3,0.8-1.1,2.3-1.8,3.4c-2.7,4.1-6,11.4-8.3,18.1c-0.5,1.4-1.2,3.2-1.5,4
		c-3.5,8.1-4.6,16.1-3.3,23.6c1,5.6,4.2,15.7,4.9,15.7c0.1,0,0.3,0.2,0.3,0.4c0,1.2,2.2,6.8,2.7,6.8c0.3,0,0.2-0.4-0.5-2.8
		c-0.2-0.7-0.9-3.4-1.6-5.9c-0.7-2.5-1.4-5-1.6-5.6c-1.3-3.1-2.3-13.5-1.7-17.8c0.7-5.3,2.2-12.4,2.6-12c0.1,0.1-0.2,2.3-0.6,5
		c-1,6.4-1,12.2-0.1,12.2c0.2,0,0.3-1.3,0.3-3.3c0-3.8,0.5-6.8,2.2-14.1c1.5-6,2.1-7.8,8-20.7c2.2-4.9,5-15.9,5-19.5
		C134.6,213.6,134.2,213.5,133.8,214.2 M244.2,218.4c-1.3,1.9-1.9,3.7-2.6,7.7c-0.2,1.2-0.7,1.6-0.7,0.5c0-1.6,0.6-5.2,1-6.2
		c0.5-1.4,0.4-1.5-0.6-0.6c-1.1,1-1.6,2.8-2.1,7.3c-0.5,4.9-1,6-1.7,4.1c-0.2-0.6-0.7-1.1-1.5-1.6c-2-1.2-2.6-4.5-1.5-7.7
		c0.6-1.7,0.5-1.8-0.4-0.8c-2.3,2.6-2.8,5.3-2,9.4c0.3,1.5,0.6,3.2,0.6,3.6l0.1,0.8l0.6-0.9c0.3-0.5,0.7-1.4,0.9-2.1
		c0.4-1.6,0.6-1.6,1.6,0.1c1.2,2,1.7,3,2.2,5.2c0.3,1,0.5,1.8,0.5,1.7s0.4-1.2,0.8-2.6c0.4-1.4,1.4-4,2.3-5.9
		c1.6-3.4,2.1-5.2,2.1-7.9c0-1.1,0.2-1.6,0.6-2.3c1.5-2,2.1-3.9,1.2-3.9C245.6,216.4,244.9,217.3,244.2,218.4 M143,221.2
		c-0.1,0.2-0.3,2.4-0.5,4.9c-0.4,7.1-1.1,9.7-5.6,20.5c-2.7,6.4-4.8,13.4-5.1,17.5c-0.4,4.8,1.5,18,2.6,18c0.3,0,0.3,0-0.3-2.8
		c-2.3-10.3-0.8-19.8,5.3-34.2c3.7-8.6,4.7-13.1,4.5-18.9C143.6,222.2,143.4,220.6,143,221.2 M141.1,224.5c-0.2,0.2-0.6,1.7-1,3.4
		c-1.4,6.1-1.9,7.3-6.5,15.2c-7.4,12.6-8.2,31.8-1.8,44.6c0.6,1.1,2.1,3.6,3.3,5.4c2.5,3.7,2.8,4.7,0.8,2.5
		c-6.5-7.2-10.4-18-10.3-28.4c0.1-4.6,0-4.8-0.4-2.4c-1.8,10.5,1.6,24.2,7.6,30.7c0.8,0.9,2,2.3,2.5,3.2c2.5,3.7,6.8,7.3,10.3,8.5
		c0.8,0.3,2.1,0.8,2.9,1.2c2.8,1.3,7,3,7.1,2.9c0.3-0.3-3.8-2.8-8.1-5c-4.6-2.3-6.8-3.8-6.5-4.1c0.3-0.3,2.4,0.7,3.8,1.8
		c0.8,0.6,2.2,1.3,3.9,1.8c8.4,2.7,18.2,12.2,16.8,16.1c-0.2,0.6-0.5,1.7-0.7,2.4c-0.7,3.1-5.8,9.5-9.7,12.4c-1.1,0.8-6.1,4-8.6,5.6
		c-2.1,1.3-7.9,4.1-10.1,5c-7.1,2.7-13,7.2-14.1,10.7c-2.6,8.5,5.5,17.1,14,14.8c1.8-0.5,1.5-0.7-1.7-0.8
		c-8.5-0.3-13.5-8.8-8.3-14.3c0.7-0.8,1.5-1.4,1.8-1.4c0.2,0,1-0.3,1.6-0.7c5.1-2.9,11-5.2,21.7-8.8c7.9-2.6,11-3.8,10.7-4
		c-0.1-0.1-12.4,3.8-15.7,5c-1.4,0.5-2.8,1-3.2,1.1c-0.4,0.1-2.1,0.7-3.8,1.4c-5.2,1.9-5.1,1.5,0.1-0.7c7-2.9,11.6-4.6,18.1-6.8
		c8-2.7,9.6-3.4,15.1-7.1c5.6-3.8,7.2-5.9,7.4-9.9c0.1-3.3-0.3-4.4-0.7-1.6c-0.3,2.8-3.5,7.3-6.1,8.7c-0.7,0.4-0.3-0.2,0.8-1.2
		c4.2-3.7,5.6-11.8,2.9-16.7c-0.3-0.5-0.4-0.5-0.3-0.2c0.7,2.8,0.8,6.4,0.3,8.9c-0.5,2.3-0.7,2.4-0.3,0.1c0.3-1.9,0-6.1-0.7-8.8
		c-0.8-3.2-3.8-6.6-7-7.9c-1.5-0.6-1.5-0.7-0.8-0.1c4.3,3.2,6.9,8.1,6.9,12.9c0,3.2-0.5,3.8-0.7,0.7c-0.4-6.9-3.5-11-11-14.4
		c-2.5-1.1-5.5-2.5-6.7-3c-1.2-0.6-2.4-1.1-2.8-1.2c-1.1-0.3-4.3-2-6.3-3.4c-2.3-1.6-2.5-1.3-0.5,0.5c1.5,1.4,5.5,3.5,10.4,5.5
		c11.5,4.7,15.3,9.1,15.3,17.5c0,2.8-2.4,7.2-5.9,10.8c-1.5,1.6-2.7,2.8-2.5,2.8c0.4-0.1,4.2-2.8,5.5-3.9c1.3-1,0.6,0-1.3,1.7
		c-2.5,2.4-9.3,6.7-10.5,6.7c-0.2,0-2.1,0.9-4.3,2c-4.2,2.1-4.8,2.4-3.5,1.3c1.1-0.9,0.6-0.7-6.1,2.5c-5.9,2.8-8.9,4.1-9.2,3.9
		c-0.3-0.3,0.6-0.8,6.4-3.7c16.4-8.3,25.4-16.8,26.5-25.1c0.2-1.7,0.7-1.6,0.7,0.1c0,3.6-2,7.6-6.4,12.7c-1.5,1.7-1.3,1.7,1.3-0.5
		c1.6-1.4,6.1-6.8,6.6-8.1c1.7-4-0.9-10.9-4.9-13.4c-0.3-0.2-2.1-1.3-4-2.6c-3.1-2-8.4-4.8-9.1-4.8c-0.1,0,1.4,1.1,3.4,2.4
		c3.8,2.5,7.5,5.2,8.2,6c0.5,0.6,0.2,0.8-0.6,0.3c-0.3-0.2-2.7-1.7-5.2-3.3c-2.5-1.6-5.7-3.6-7.1-4.3c-5.1-2.9-6.9-4.4-10.6-8.6
		c-3.8-4.4-6.4-8-7.1-10c-0.2-0.6-1-2.4-1.8-4.1c-5.1-11.1-4.4-23.6,2-36.9c1.1-2.4,4.1-7.8,4.1-7.6c0,0.3-1,2.8-2.1,5.1
		c-2.1,4.5-4.5,11.3-5.4,15.3c-0.6,2.8-1.1,11.8-0.6,11.8c0.1,0,0.3-1.2,0.3-2.6c0.1-6.8,2-13.4,6.3-22.3c4-8.3,4.8-11.2,5.1-17.5
		C141.6,224.1,141.6,223.8,141.1,224.5 M161.9,229.9c2.3,10.2,2.6,15.5,1.4,22c-0.5,2.8-1.1,3.6-0.8,1.1c0.7-5.3,0-13.5-1.3-15.5
		c-0.8-1.2-0.8-0.6-0.5,3.4c0.4,4.1,0.4,6-0.2,11.1c-0.6,5.6-0.6,5.3-2.4,9.3c-1.7,3.8-2.4,5.5-2.7,7.5c-0.1,0.8-0.5,2.7-0.8,4.3
		c-0.7,3.5-0.7,4.8,0,1.9c0.6-2.6,1.4-5,2.6-7.7c2.7-6.2,2.8-6.1,0.5,0.6c-2.1,6.2-2.6,8.2-2.5,11.7c0.1,4.3,0.4,4.8,0.6,0.9
		c0.4-7.4,2.1-12.7,6.7-20.2c3.4-5.7,4.7-11.3,4-18l-0.2-2.1l-0.2,3.3c-0.1,1.8-0.3,3.8-0.5,4.4c-0.3,1.3-0.3,1.6-0.4-5.2l-0.1-4.7
		l-1.1-3.1C162.9,231.7,161.7,228.9,161.9,229.9 M234.9,240.7c-0.1,0.4-0.4,1.2-0.6,1.8c-0.2,0.6-0.7,1.6-1.1,2.2
		c-0.7,0.9-0.8,1.1-0.4,1.4c0.7,0.7,2.2-0.1,2.8-1.4l0.4-1l0.2,0.8c0.1,0.4,0.4,2.5,0.6,4.5c0.2,2.1,0.5,4.2,0.6,4.7
		c0.1,0.5,0.2,1.5,0.2,2.1c0.1,1.3,0.9,3.9,1.2,4.2c1.5,1,0-12-2-16.8C235.7,240.3,235.3,239.8,234.9,240.7 M241.9,241.9
		c-0.1,0.4-0.4,1.7-0.7,2.8c-0.7,2.8-0.9,4.5-0.6,4.5c0.4,0,0.8-0.6,1-1.6c0.8-4.2,0.7,3-0.2,8.8c-0.6,4.2-0.7,8.8-0.1,8.8
		c0.3,0,0.4-0.3,0.4-0.8c0-1,0.7-4.9,1.2-6.6c1.4-5,1.2-12.7-0.4-15.9l-0.5-0.9L241.9,241.9 M342.5,248.3c-0.1,0.1-0.2,0.6-0.2,1.1
		c0,0.5-0.2,1.7-0.4,2.6c-2.9,12.2-4.9,17.6-8.5,23.1c-1.9,2.9-3.1,4-1.7,1.6c3.3-5.6,6.1-13.6,5-14.2c-0.6-0.4-1.4,1-2.8,4.7
		c-0.9,2.6-3.8,8-6.2,11.6c-3,4.6-6.7,10.8-8.4,14.3c-1.4,2.9-3.1,14-2.4,15.6c0.9,1.9,2.1,1,2.6-2.1c0.3-1.8,0.9-4.1,2-8.3
		c1-3.7,3.4-9.3,4-9.5c0.2-0.1,1-1.1,1.8-2.2c0.7-1.1,2.5-3.2,3.9-4.7c5.4-5.7,8.3-12.2,11.5-25.9
		C344,251.4,343.7,247.1,342.5,248.3 M170.6,248.9c-0.2,2.9-0.2,4.1,0.2,4.1c0.3,0,0.4-0.5,0.4-2.1c0-1.2-0.1-2.1-0.3-2.1
		C170.7,248.7,170.6,248.8,170.6,248.9 M306.8,252.8c-0.2,0.2-0.4,0.7-0.4,1c0,0.3-0.2,1-0.4,1.4c-1.1,2.3-0.8,12.4,0.5,15.9
		c0.4,1.1,3.2,3.5,4.6,4c1.4,0.5,1.5,0.4,0.5-0.8c-1.1-1.4-2.1-3.2-2.6-4.8c-0.6-1.9-0.3-2,0.5-0.3c1.7,3.3,4.3,6.4,5.4,6.4
		c1.2,0,1.1-0.3-0.4-1.7c-2.8-2.6-6.6-10.6-6.5-13.8c0-0.7-0.1-1.6-0.2-2.1c-0.3-1.2-0.1-1.1,1,0.5c1.3,2.1,3.9,5,4.4,5
		c0.5,0,1.7,0.9,1.7,1.3c0,0.2,0.1,0.3,0.3,0.3c0.6,0,0.1-0.9-2.4-4.4c-1.7-2.4-2.8-4.2-3.1-5.1C309,253.8,307.4,252.2,306.8,252.8
		 M295.4,255.9c-0.3,0.3-1,1.2-1.5,1.9c-0.5,0.8-1.1,1.6-1.5,1.9c-3.9,3.4-6.9,12-6.9,19.3l0,3.9l-1.1,0.5
		c-2.5,1.2-2.8,2.8-2.3,11.2c0.2,2.4,0.1,3.5-0.2,4.6c-0.4,1.6-0.4,2,0.5,2c1.4,0,2.2-2.9,2.5-9.1c0.3-5.1,0.3-5.3,1.1-5.8
		c0.4-0.3,0.5-0.2,0.7,0.1c0.1,0.2,0.3,0.4,0.5,0.4c0.2,0,0.8,0.3,1.5,0.6c1.6,0.8,3,0.9,5,0.5c2.6-0.5,2.7-0.8,1.7-3
		c-2.3-4.8-2.9-6.7-3.2-9.7c-0.3-2.8,0.3-2.6,1.3,0.3c0.8,2.5,2.2,5.1,2.6,4.9c0.1-0.1,0.2-0.4,0-0.7c-0.8-2.1-0.7-2.3,0.4-1.1
		c0.7,0.8,1.3,1.1,1.8,1.1c0.9,0,0.9,0.1-0.7-3.3c-2.1-4.3-2.7-6.9-2.7-11.4v-3.6l1.3-2.6C297.6,255.6,297.3,254.2,295.4,255.9
		 M169.6,260.5c-1.5,6.4-1.8,8.5-2.3,12.5c-0.2,1.8-0.5,4.5-0.7,5.8c-0.4,3-0.2,6.7,0.6,10.2c0.6,2.9,0.6,3.7,0.1,2.5
		c-0.9-2.1-1.9-10.3-2-16.1l0-2.3l-0.3,1.5c-0.1,0.8-0.2,2.9-0.2,4.6c0,1.7,0,3.1-0.1,3.1c-0.3,0-0.6-4.6-0.6-9.2
		c0-5.7-0.4-4.4-0.6,1.9c-0.1,3,0,5.3,0.3,7.7c0.4,3.8,0.4,4.3-0.1,2.4l-0.3-1.3l-0.2,1.1l-0.2,1.1l-0.3-1.3c-0.9-4-1.2-6.4-1.2-9.8
		c0-3.7-0.3-4.6-0.6-2.4c-0.7,4.5,1.3,16.2,3.5,20.3c1.6,3.1,7.4,10.6,8.7,11.3c1,0.5,0.9-0.5-0.1-1.8c-4.9-6.7-6.3-19.7-3.6-33.5
		c0.7-3.6,1.8-12.9,1.6-12.9C170.7,255.6,170.2,257.8,169.6,260.5 M199,274.9c-1.6,7.2-6.4,17.1-11.9,24.3c-2.7,3.6-2.6,3.5-6.5,7.4
		l-2.9,3l1.1,1.2c1.4,1.6,2.7,4.2,4.1,7.9c0.6,1.7,1.4,3.7,1.7,4.5c0.3,0.9,0.6,2.1,0.6,3.1c0,1.9-0.5,1.7,4.8,2.3
		c7,0.9,9.1,1.4,21.8,5c6.2,1.8,5.9,1.7,5.4,0.5c-0.9-2.2-1.4-8.5-0.5-6.7c0.4,0.7,1.3,3.5,1.5,4.6c0.2,1,1.2,2.9,1.5,2.9
		c0.7,0,0.4-6.3-0.6-11.3c-0.6-3.1-0.6-3.9-0.2-3.9c1.1,0,2.5,5.5,3.1,11.7c0.2,1.7,0.5,3.4,0.7,3.9l0.4,0.8l-0.2-1.1
		c-0.1-0.6-0.2-3.7-0.1-6.9c0.1-5.6,0-6-0.7-9.8c-0.4-2.2-0.8-4-0.8-4.1c0-0.7,1.4,3.4,1.9,5.6c0.3,1.5,0.8,3.4,1,4.2
		c0.3,1.1,0.4,2.2,0.3,4.1c-0.3,6.1,1.3,10.9,1.8,5.4c0.1-1.7,0.4-2.6,1.1-4.1c0.5-1.1,1.2-2.6,1.4-3.4c1.2-3.5,1.5-2,0.4,1.9
		c-1,3.6-0.9,5.8,0.2,7.3c0.9,1.2,1.3,1.4,1.3,0.7c0-1.1,0.9-3.5,1.4-3.7c0.3-0.1,0.8-0.6,1.1-1.2c0.3-0.6,0.8-1.1,1.1-1.2
		c0.3-0.1,0.8-0.6,1.3-1.2c0.5-0.6,1-1,1.1-1c0.5,0,1.8-1.6,2.9-3.7c0.7-1.2,1.6-3,2.1-3.9c0.9-1.5,0.9-1.7,1-4.9l0.1-3.3l-1.6-4.4
		c-0.9-2.4-1.7-4.4-1.8-4.4c-0.4,0,0.2,3.9,0.9,5.5c1,2.3,0.8,4.8-0.9,8.8l-0.7,1.6l0-3.1c0-3.4,0-3.5-2.8-14.2
		c-0.8-3.2-1.5-6.2-1.5-6.8c0-1.3-0.6-1.1-0.8,0.3c-0.1,1.6,0.7,6.7,2,12.1c1.2,4.9,1.2,4.9,1,7.9c-0.2,2.9-0.2,6.6,0,8.4l0.1,0.9
		l-0.4-0.8c-0.6-1.3-1.5-8.2-1.4-9.8c0.2-2.2-0.2-5.9-0.7-5.9c-0.3,0-0.4,0.5-0.6,2.1c-0.1,1.2-0.3,3.4-0.5,4.9
		c-0.3,2.2-0.3,3,0,4.4c0.4,2.1,0.1,5.7-0.7,7.4L232,328l0.1-2.1c0.2-3.2-0.8-7.7-2.1-9c-1.2-1.2-1.4-0.9-1.7,2.7
		c-0.2,2.8-0.8,5.4-1.1,5.1c-0.1-0.1-0.3-1.3-0.5-2.8c-0.9-6-4.3-14.5-7.4-18.3c-0.9-1.1-1.9-2.6-2.3-3.3c-0.8-1.5-2-3.5-3.9-6.3
		c-0.7-1-2.3-3.7-3.6-6c-2.7-4.8-7.3-11.8-9-13.7l-1.2-1.3L199,274.9 M256.2,274.4c0,2.2,5.7,9.3,9.9,12.3c2.3,1.6,4.2,3.6,5.1,5.3
		c0.5,0.9,1.2,2.1,1.6,2.7c1.5,2.2,1.4,2.4-0.4,0.7c-1-0.9-2.3-2-2.8-2.4c-0.5-0.4-1.7-1.3-2.5-1.9c-0.9-0.6-2-1.6-2.6-2.1
		c-1.2-1-1.5-1.1-1.5-0.4c0,0.6,4.4,5.4,6.7,7.3c2.4,2,4.9,4.7,6,6.7c0.5,0.9,1.6,2.5,2.4,3.6c0.8,1.1,1.5,2.3,1.7,2.6
		c1.1,2.2-4.4-3.5-6.7-6.9c-1.7-2.5-2.7-3.4-6-5.4c-4.6-2.8-8.4-8.2-9.4-13.4c-0.2-1.1-0.6-1.3-0.6-0.3c0,4.4,3.9,11.3,8.2,14.5
		c2.4,1.8,3,2.3,4,3.8c0.5,0.7,1.6,2,2.6,3.1c2.7,3,4.7,5.3,4.5,5.4c-0.6,0.6-4.4-2.4-9.2-7.4c-4-4.1-6.5-6.1-7-5.6
		c-0.2,0.2-0.1,0.5,0.5,0.9c1.3,1.1,7.4,7.2,8.8,8.9c2.4,2.9,5.9,5.1,10.5,6.5c1.9,0.6,1.8,0.6,3.7-1.2l1.1-1l-0.9-1.2
		c-1.5-2-3.6-5.6-5.6-9.8c-5.2-10.7-9.7-16.5-12.9-16.5c-1.2,0-6.2-5.5-7.7-8.5C256.9,273.6,256.2,273.4,256.2,274.4 M316.7,274.1
		c-0.2,0.2-0.2,0.4-0.1,0.4c0.1,0,0.4-0.2,0.6-0.4c0.2-0.2,0.2-0.4,0.1-0.4C317.2,273.7,316.9,273.9,316.7,274.1 M303,275.2
		c-2.2,1.8-2.6,2.9-2,5.7c0.9,3.7-3,8.5-6.9,8.5c-0.8,0-1.2,0.5-0.8,1.1c0.4,0.6,4.2-0.1,5.5-0.9c0.3-0.2,0.6-0.3,0.6-0.2
		c0,0.8,2.5-1.3,2.5-2.1c0-0.4,0.2-0.6,0.6-0.6c0.3,0,0.7,0,0.8-0.1s0.6-0.7,1-1.5c0.4-0.8,1.9-2.9,3.5-4.8c1.5-1.8,2.8-3.4,2.8-3.5
		c0-0.7-3.8,1.8-6.3,4.2l-0.8,0.8l-0.2-1.5c-0.2-1.8,0.1-2.3,1.7-3.3c2.4-1.5,2.4-1.4,0.9-2.2l-1.4-0.7L303,275.2 M219.6,281.8
		c-0.9,0.5-0.5,2,1.8,8c1.3,3.3,2.8,7.2,3.3,8.7c0.6,1.5,1.6,4.3,2.3,6.1c1.6,4.3,2,5.6,2,6.5c0,2.1,2.5,5,3.1,3.5
		c0.2-0.5-0.3-4.7-1.1-9.6c-0.3-2.1-0.9-5.8-1.3-8.4c-1.2-8.6-2.7-11.5-7.3-14.2C220.5,281.4,220.3,281.3,219.6,281.8 M306.8,290.7
		c-0.1,0.3-0.3,2.1-0.4,4.2c-0.6,7.1-1.6,11.9-3.2,15.1c-0.6,1.2-1,2.4-1,2.8s-0.3,1-0.6,1.3c-0.9,0.9-0.8,3.2,0.2,4.7
		c1.2,1.9,3.4,2.5,6.6,1.8c0.8-0.2,1.9-0.4,2.4-0.5c1.8-0.4,3.9-2.5,3.9-3.9c0-0.3-0.4-1.6-1-2.9c-0.5-1.3-1.4-3.8-1.9-5.7
		c-0.7-2.6-0.9-3-0.8-1.9c0.1,0.8,0.3,3.1,0.4,5.2c0.1,2,0.3,3.8,0.4,3.8c0.3,0.3-0.5,1.1-1.8,2c-1.7,1.1-1.7,1.1-1.2-0.4
		c0.5-1.4,0.9-10.9,0.5-10.9c-0.1,0-0.5,0.9-0.7,2.1c-0.9,3.7-3,10-3.7,10.7c-0.4,0.4-0.3-0.2,0.1-1.9c1.1-4.2,1.7-7,1.8-8.8
		l0.1-1.9l-0.5,1.8c-0.6,2.3-1.4,4.2-1.5,4.1c-0.1-0.1,0-0.6,0.2-1.2c0.5-1.8,1.9-11.3,2.2-14.6c0.1-1.8,0.3-3.7,0.4-4.3
		C307.7,290.2,307.1,289.7,306.8,290.7 M233.7,291.8c-0.2,0.3,0.3,0.6,0.7,0.4c0.3-0.2,0.1-0.7-0.3-0.7
		C233.9,291.6,233.8,291.7,233.7,291.8 M144.5,295.4c0,0.2,0.2,0.5,0.4,0.7c0.4,0.3,0.4,0.3,0.3-0.3
		C145.1,295.2,144.5,294.8,144.5,295.4 M294.1,297.6c-0.1,0.4-0.3,1-0.3,1.3c0,3.4-2.8,10.5-5.2,13.1c-0.8,0.9-1.9,2.1-2.4,2.7
		c-0.5,0.6-1.1,1.1-1.3,1.1c-1.4,0-4.6,4.6-4.9,7.1c-0.2,2.1,1.1,4.1,2.6,4.1c0.3,0,0.5,0.1,0.5,0.3c0,1.1,2.8,1.6,4.8,0.9
		c0.7-0.2,1.7-0.5,2.4-0.7c2.9-0.8,4.8-3.8,5-7.9c0-1.3,0-2.2-0.1-1.9c-1.1,4.1-2.2,5.6-5,7.1c-1,0.5-1.8,1-1.9,1.1
		c-0.2,0.3-0.6,0.3-0.6-0.1c0-0.2,0.7-1.1,1.6-2c2.3-2.4,4.3-6.8,3.5-7.6c-0.2-0.2-0.6,0.4-1.3,1.6c-0.7,1.4-1.7,2.6-3.8,4.7
		l-2.8,2.8l-0.3-0.7c-0.3-0.9,0.2-1.8,1.5-3.1c2.1-1.9,4.8-6,5.2-7.7c0.1-0.4,0.5-1.4,0.8-2.1c1.2-2.5,1.1-3.8-0.1-1.4
		c-0.6,1.1-1.6,2.9-2.3,3.9c-2.4,3.5-3.2,4.1-1.2,0.9c2.5-4,5.4-12.3,5.7-16C294.7,296.9,294.5,296.4,294.1,297.6 M332.5,308.7
		c-0.4,0.1-1.4,1-2.4,1.9c-2.4,2.3-4.1,2.9-9.3,3.1c-3.9,0.2-3.9,0.2-3.9,0.8c0,3.4,11.2,2.6,15.4-1c2.4-2.1,2.9-1.8,1.2,0.8
		c-1.2,1.9-1.6,2.2-3.9,3.4c-3.2,1.6-2.6,2.2,1,1c2.5-0.8,3.8-1.7,4.7-3.1c0.8-1.3,2.4-2.1,3.9-2.1c1.1,0,4,2.5,4.4,3.8
		c0.1,0.4,0.9,0.8,1.7,0.8c0.5,0,0.4-0.7-0.1-1.1c-0.2-0.2-1.1-1.4-1.9-2.8C340.3,309.2,336.3,307.2,332.5,308.7 M385.6,309.5
		c-0.7,0.7-0.1,1.5,1.8,2.1c1.7,0.6,1.8,1.2,3,18.4c0.3,4.6,0.9,10.7,1.3,13.6c0.4,2.7,0.8,6.5,1.2,12.5c0.8,11.3,1,12.8,1.6,12.8
		c0.6,0,0.5-7.1-0.4-21.5c-0.1-2.3-0.4-5.8-0.5-7.6c-0.4-5-1-14.3-1.2-18.8c-0.4-8.5-1.2-10.5-4.5-11.4c-0.6-0.2-1.3-0.3-1.5-0.4
		C386.1,309.3,385.8,309.3,385.6,309.5 M264.5,313.5c-3.9,10.2-4.8,13.2-4.8,17.1c0,3.4,0.3,3.7,3.8,3.6c4.1-0.2,6.7-1.8,7.4-4.7
		c0.4-1.6,0.3-1.6-1.2-0.2c-1.5,1.4-1.5,1.4-2.4,0.6c-1.4-1.2-1.6-6.7-0.4-10.9c0.7-2.4,0.7-2.9,0.2-2.9c-0.4,0-0.6,0.3-0.8,2
		c-0.1,0.6-0.4,1.5-0.7,2.1c-0.8,1.7-1.5,3.9-1.5,4.9c0,0.7-0.1,0.9-0.3,0.6c-0.4-0.6,0-4.3,0.7-6.7c0.3-1.1,0.7-2.6,0.8-3.3
		l0.2-1.3l-0.9,1.7c-1.2,2.3-1.2,1.9,0-0.7c0.9-1.9,1.5-4.1,1.1-4.1C265.4,311.3,264.9,312.3,264.5,313.5 M245.2,320.3
		c-5.2,6.9-6.9,10.6-6.6,14c0.2,1.9,1.1,3.4,2.2,3.4c0.3,0,0.7,0.3,0.9,0.6c0.5,0.8,2.8,0.8,3.6,0.1c0.3-0.2,0.9-0.4,1.3-0.4
		c0.8,0,1.4-0.4,1.4-0.9c0-0.1-0.3-0.2-0.6-0.2c-0.5,0-0.5,0-0.1-0.5c1.4-1.6,2.7-9.1,1.8-10.5c-0.3-0.5-0.8,0-0.8,0.8
		c0,1.9-1.7,6.8-2.7,7.9c-0.9,0.9-1,0.7-0.5-0.9c0.3-0.8,0.7-2.9,0.9-4.5c0.2-1.6,0.6-3.5,0.8-4.3c0.5-1.7,1.2-5,1.2-5.3
		c0-0.5-0.5,0.5-1.3,2.9c-0.5,1.3-0.9,2.3-1,2.2c-0.2-0.2,0.3-1.7,1.8-5.5c0.7-1.8,1.3-3.3,1.2-3.4S247,317.9,245.2,320.3
		 M338.1,317.7c-0.6,0.8-1.1,1.9-1.8,4.6c-1.6,5.7-2.3,5.9-4.3,1.1c-1-2.5-4.1-3.3-7.9-2.1c-2.6,0.8-6.6,1.2-8.6,0.8
		c-2.7-0.5-3.4,0.5-0.9,1.3c2.6,0.8,6,1.1,8.2,0.7c1.7-0.3,3.8-0.4,4.9-0.2c0.1,0,1,0.7,2.5,2c0.4,0.4,1,1.1,1.3,1.7
		c0.3,0.6,0.7,1.1,0.8,1.2c0.1,0.1,0.3,0.4,0.3,0.6c0,1.2,0.8,3.3,1.5,3.6c0.5,0.2,0.7,0.6,0.8,1.3c0.5,2.8,2.1,10.8,2.5,12.2
		c0.4,1.3,2.1,4.4,2.1,3.8c0-0.1-0.2-1.3-0.5-2.7c-1.8-8.7-2-17.1-0.6-24.5c0.5-2.4,0.8-4.9,0.8-5.4l-0.1-1L338.1,317.7
		 M341.8,317.8c0.4,0.4,1.3,1,2.1,1.4c0.8,0.4,1.8,0.8,2.1,1c0.4,0.2,1.1,0.5,1.7,0.7c1.4,0.5,5.1,2.4,5.5,2.9
		c0.3,0.3,0.3,0.4-0.1,0.2c-0.7-0.3-0.6-0.1,0.3,0.5c0.6,0.4,0.7,0.4,0.4,0c-0.6-0.8,0-0.5,1.7,0.7c3,2.1,9.1,8.9,11,12.3l0.6,1.1
		l-1.2-1.3c-6.4-7.1-15.4-14.1-18.1-14c-0.5,0,0.8,1.1,2,1.8c4.7,2.5,13.3,13.3,15.3,19.1c0.8,2.4,0.7,2.5-0.6,0.1
		c-3.7-7.1-11.7-15.5-18.1-18.9c-3-1.6-3.1-0.9-0.2,1.1c2.2,1.5,3.7,3,4.9,5c0.5,0.7,2.3,3.7,4,6.5c2.7,4.3,5.9,10.3,5.9,10.9
		c0,0.2-1-1.2-2.5-3.8c-2.9-4.8-4.9-7.2-8.5-10.5c-5.8-5.4-7.8-6.4-3.1-1.6c1.5,1.5,3.1,3.3,3.5,4c0.4,0.7,1.9,2.7,3.1,4.5
		c1.3,1.8,3,4.4,3.8,5.7s2.1,3.4,2.9,4.7c2.3,3.7,4.5,9.3,5.9,14.7c0.3,1.1,0.7,2.5,0.9,3.2c0.2,0.7,0.5,1.4,0.6,1.6
		c0.1,0.3,0.2,0.3,0.5-0.1c0.8-1.1,0.3-5.1-1.1-9.5c-0.4-1.1-1.1-3.5-1.6-5.3c-2.7-9.2-4.1-12.2-10.2-22.1c-0.9-1.4,0.7,0.2,2.2,2.3
		c3,4.2,5.5,8.4,9.1,15.7c0.8,1.5,2.6,6.2,3.7,9.2c0.8,2.3,1.6,6.3,1.7,8.8c0.1,3,0.6,3,0.8,0c0.4-5.6-0.9-13-4-22.6
		c-0.8-2.5-1.5-4.7-1.6-4.9c-0.4-1.3,2.5,2.9,3.8,5.4c1.8,3.5,3.5,9.2,4.1,13.6c0.2,1.2,0.5,3.2,0.8,4.4c0.3,1.3,0.5,2.9,0.5,3.7
		c0,1.9,1.4,4.4,2.5,4.4c1.4,0,1.4,2.2,0.1,2.6c-3.3,1-3.6,1-9.1,1c-5.4,0-5.7,0-7.6-0.7c-6.5-2.3-8.6-2.5-6-0.6
		c4.7,3.5,13.9,5.4,21.4,4.2c4.8-0.7,4.2-0.8,4.8,0.6c0.5,1.2,0.5,1.3,0.2,2.2c-0.6,1.5-0.6,4.2,0,4.2c0.4,0,0.6-0.3,0.8-1.3
		c0.2-0.7,0.7-2.2,1.2-3.3c2.4-5.6,0.6-10-4.5-10.5c-1.3-0.1-1.9-2.4-2.4-10.2c-1.1-14.3-8.3-28.6-18.3-36.4
		c-0.7-0.5-1.2-1.1-1.2-1.2c0-1-7.2-4.8-11.4-6.1c-1.3-0.4-2.7-0.9-3.1-1.1c-0.4-0.2-1.2-0.4-1.7-0.5l-0.9-0.2L341.8,317.8
		 M156.2,321c-4,3-16.2,8.4-20.2,8.9c-12.3,1.6-27.1,11-30.8,19.5c-0.3,0.7-0.8,1.8-1,2.4c-3.9,8.8-5.6,22.2-3.7,30.8
		c0.8,3.7,1,3.9,1.4,1.7c2-11,7.7-23.2,13.9-29.5c3.9-4,14.5-10.8,17.3-11c0.9-0.1,6.6-2.9,15.2-7.5c5.6-3,8.2-5.8,9.8-10.6
		C159.7,320.7,159,318.9,156.2,321 M302.3,325.4c0,0.7,1.4,2.6,2.5,3.3c0.5,0.3,1.5,1.1,2.3,1.7c3.2,2.6,8.7,2.9,17.2,1
		c0.3-0.1,0.8,0.1,1.1,0.3c0.5,0.4,0.5,0.4-0.5,0.4c-0.6,0-2.1,0.4-3.3,0.8c-3.5,1.3-4.8,1.6-6.4,1.6c-2.6,0-2.8,0.8-0.5,1.5
		c1.9,0.6,3.2,0.5,5.8-0.2c4.5-1.3,5.2-1.1,7.3,1.2c2.6,3.1,5,2.6,4.2-0.8c-1.1-5.3-5.5-9.1-8.9-7.8c-0.3,0.1-1.2,0.4-1.8,0.6
		s-1.7,0.5-2.3,0.7c-2.5,0.8-8.8,0.3-10.5-0.9c-0.5-0.4-1.5-1-2.2-1.5c-0.7-0.4-1.6-1.1-2.2-1.6C303,324.8,302.3,324.7,302.3,325.4
		 M292.1,329.3c-0.6,0.4-1.9,0.8-2.9,1.1c-2.4,0.6-3.2,1.4-2,2.1c0.6,0.4,3.1-0.8,4.8-2.4C293.6,328.5,293.6,328.4,292.1,329.3
		 M272.8,330.3c-3.8,4.5-5.3,5.4-9.2,5.7c-3.3,0.3-2.1,0.9,1.7,0.9c3.7,0,6-1.6,8-5.6C274.2,329.5,273.9,329,272.8,330.3
		 M279.6,330.7c-0.4,0.2-1.2,0.4-1.8,0.4c-1.5,0-1.9,0.3-4.6,3c-2.6,2.6-4.2,3.7-7.5,4.7c-2.6,0.8-3.2,1.5-1.2,1.2
		c2-0.2,4.3-1.4,7.8-3.8c1.6-1.1,3.4-2.4,3.9-2.7c0.8-0.6,1.3-0.7,3.4-0.8c1.9-0.1,2.5-0.2,2.5-0.5c0-0.3,0.4-0.4,2.1-0.3
		c1.8,0.1,2.1,0,2.2-0.4C286.5,330.4,281.4,329.7,279.6,330.7 M235.4,331.8c-1.5,3-0.5,9.2,1.2,7.8c0.5-0.4,0.5-1.6-0.1-3.3
		c-0.4-1.3-0.3-3.8,0.3-5.4C237.3,329.8,236,330.6,235.4,331.8 M183.3,331.8c-0.4,0.6-1.4,1.7-2.3,2.5c-1.6,1.5-1.6,1.6-1.2,1.9
		c0.9,0.7,2.6,1.4,3.8,1.6c6,0.8,12.9,1.6,15.9,1.8c2,0.2,4.2,0.4,4.9,0.5c2.6,0.5,8.8,2.5,12,3.7c1.8,0.7,3.8,1.4,4.3,1.5
		c0.7,0.1,1.7,0.7,3.2,1.9c2.4,1.9,2.4,1.9,1.3-1.1c-1.1-3-5.6-5.7-14.2-8.5c-7.4-2.4-8.3-2.7-17.5-4.3c-2.5-0.4-4.3-0.9-5.8-1.6
		C184.8,330.5,184.1,330.5,183.3,331.8 M290.3,332.3c-2.5,1.3-2.4,1.3-7.1,1.1c-2.2-0.1-4.6,0.6-5.5,1.6c-0.7,0.8,0.1,1,1.5,0.4
		c0.9-0.4,1.5-0.5,4.5-0.3l3.4,0.2l1.9-0.9c2.6-1.3,5.2-3.4,3.9-3.3C292.8,331.1,291.6,331.7,290.3,332.3 M232.9,336.2
		c-0.5,1.2-0.5,2.1,0,3.8c0.2,0.7,0.4,1.7,0.4,2.2c0,1.8,1.2,2.2,1.6,0.5c0.1-0.4,0.3-0.6,0.5-0.6c0.5,0,0.9-0.8,0.7-1.3
		c-0.2-0.4-0.2-0.4-0.7,0c-0.6,0.6-1.4-2-1.3-4C234.2,335.1,233.5,334.8,232.9,336.2 M253.7,336.4c-0.4,0.3-1.3,1.2-1.9,2.1
		c-1.3,1.8-2.9,3.3-3.9,3.6c-0.9,0.3-1,1-0.2,1c0.3,0,1.5-0.9,2.8-2.1c3-2.9,3.5-3.1,6.2-3c3.5,0.1,3.8-0.2,1-1.2
		C255,335.7,254.7,335.7,253.7,336.4 M248.1,336.4c-0.2,0.4,0.3,0.9,0.7,0.7c0.2-0.1,0.3-0.4,0.3-0.6
		C249,336.1,248.3,336,248.1,336.4 M158.1,337.8l-1.2,1.1l1.1-0.8c1-0.7,1.6-1.3,1.4-1.3C159.3,336.7,158.7,337.2,158.1,337.8
		 M249.3,338.5c-0.6,0.4-1.9,1-2.9,1.2c-2.7,0.7-5.4,2.7-4.9,3.6c0.4,0.8,1.5,0.7,1.8-0.3c0.3-1,1.5-1.8,2.5-1.7
		c0.6,0.1,1.1-0.3,2.6-1.5C251,337.7,251.3,337.2,249.3,338.5 M256.9,339.6c-0.3,0.5,1,1.1,2.3,1.1c1.4,0,2.5-0.6,1.9-1.1
		C260.5,339.3,257.1,339.2,256.9,339.6 M333.1,340c-0.7,1.8,3.1,12,6.2,16.9c5,7.9,17.7,18.7,21.9,18.7c2.5,0,2.1-0.8-1.4-2.6
		c-5.4-2.9-15.8-11.9-18.8-16.3c-2.5-3.7-5.3-9.9-6.2-13.9C334.1,339.8,333.5,338.8,333.1,340 M347.7,340.1c0,0.3,0.6,1.2,1.4,2.2
		c0.8,0.9,1.8,2.4,2.3,3.2c0.5,0.8,1.3,2.1,1.9,2.8c2.5,3.4,6,9.9,7,13c0.6,1.9,1.2,2.6,1.2,1.3c0-4.4-6-15.4-11.4-21
		C348,339.5,347.7,339.3,347.7,340.1 M236.3,345.8c-0.2,0.3-0.5,1.6-0.7,2.7c-0.6,4.8-2.4,7.8-4.6,7.8c-1.4,0-1.7,0.6-0.9,1.5
		c3.5,3.5,9.6-5.3,7.8-11.2C237.4,345.1,237,344.8,236.3,345.8 M232.3,346.9c-0.6,1.3-0.6,2.5-0.2,2.5c0.5,0,1.3-1.4,1.4-2.4
		C233.7,345.7,232.8,345.7,232.3,346.9 M147,361.8c1.7,0.6,2.2,1.2,1.9,1.9c-0.2,0.4-0.3,0.4-1-0.1c-1-0.6-4.5-1.4-5.9-1.3
		c-0.6,0-0.4,0.1,0.9,0.4c2.3,0.5,3.2,0.8,4.1,1.7l0.7,0.7l-0.7,0.6c-1.3,1.1-2.1,1.4-4.5,1.8c-2.6,0.5-7.7,0.5-8.8,0.1
		c-0.5-0.2-0.7-0.2-0.7,0.1c0,1.8,9.7,2.4,13.6,0.9c2.9-1.1,3.2-1.3,4-2.5l0.8-1.2l-0.5-1c-0.7-1.4-1.4-1.9-3.1-2.3
		C145.5,361.1,145.2,361.1,147,361.8"/>
</g>
</svg>
