<?xml version="1.0" encoding="utf-8"?>
<!-- Generator: Adobe Illustrator 21.0.0, SVG Export Plug-In . SVG Version: 6.00 Build 0)  -->
<svg version="1.1" id="Layer_1" xmlns="http://www.w3.org/2000/svg" xmlns:xlink="http://www.w3.org/1999/xlink" x="0px" y="0px"
	 viewBox="0 0 30 30" style="enable-background:new 0 0 30 30;" xml:space="preserve">
<path d="M24,21.2c-1.1,0-2.2,0.5-2.9,1.2l-10.7-6.2c0.1-0.3,0.1-0.7,0.1-1s-0.1-0.7-0.1-1l10.6-6.2c0.8,0.8,1.9,1.2,3.1,1.2
	c2.5,0,4.5-2,4.5-4.5s-2-4.5-4.5-4.5s-4.5,2-4.5,4.5c0,0.4,0.1,0.7,0.1,1L9.1,11.8C8.2,11,7.2,10.6,6,10.6c-2.5,0-4.5,2-4.5,4.5
	s2,4.5,4.5,4.5c1.2,0,2.2-0.5,3.1-1.2l10.7,6.2c-0.1,0.3-0.1,0.6-0.1,1c0,2.4,2,4.4,4.4,4.4s4.4-2,4.4-4.4S26.4,21.2,24,21.2z"/>
</svg>
