<?xml version="1.0" encoding="utf-8"?>
<!-- Generator: Adobe Illustrator 22.1.0, SVG Export Plug-In . SVG Version: 6.00 Build 0)  -->
<svg version="1.1" id="svg" xmlns="http://www.w3.org/2000/svg" xmlns:xlink="http://www.w3.org/1999/xlink" x="0px" y="0px"
	 viewBox="0 0 410 410" style="enable-background:new 0 0 410 410;" xml:space="preserve">
<g id="svgg">
	<path id="path0" d="M289.5,22.7c-4.7,1-8.9,4.5-10.4,8.8c-0.8,2.3-0.6,2.7,1.9,3.9c4.2,1.9,7,5.6,7,8.9c0,1.5-0.2,2-1.7,3.6
		c-2.2,2.5-2,4.1,0.7,4.1c3.6,0,6-3.1,5.7-7.2c-0.3-4.6-0.3-5-0.1-5.7c1-3.7,5.6-3.5,9.4,0.4c5.8,5.8,8.2,14.4,6.4,22.5
		c-0.8,3.6-0.1,5.4,2.3,5.4c6.1,0,7.4-14.9,2.4-26.2C307.7,29.1,297.4,21,289.5,22.7 M191.9,50.5c-6,1.7-9.1,7.4-8.1,15.1
		c0.8,5.8,2.4,13.8,3.4,16.7c2.4,6.7,7.9,11.7,16.9,15.3c2.4,1,2.8,1,1.2,0.1c-8.8-5.3-16.4-15.7-18.4-25
		c-1.1-5.3-0.2-14.7,1.6-16.5c0.9-0.9,2.8-0.8,6.2,0.3c7,2.3,11.3,6.3,15.8,14.5c1.8,3.3,2.6,4.5,4.3,6.4c3.8,4.3,4.2,5.3,3.4,8.4
		c-0.6,2.5-1.9,5.4-5,10.8c-3.1,5.5-3.2,6.2-1.1,10.4c1.9,3.8,5.8,5.2,8.1,2.9c1.4-1.4,1.3-2.9-0.6-6.4c-1.6-2.8-2-5-1.6-7.2
		c0.3-1.2,0.4-1.3,2.2-0.5c4,1.6,4.3,1.6,5.8,1.6c6.7,0,7.6-12.2,1.8-24.2c-2.7-5.6-4.7-7.2-12.5-9.8c-6.8-2.3-8-3-11.8-7.4
		C199.2,50.6,196.2,49.2,191.9,50.5 M248.6,65c-4.8,0.8-9.4,3.4-12.8,7.4l-1,1.2l0.5,0.2c0.3,0.1,1,0.6,1.6,1l1.1,0.8l1.5-0.9
		c2.8-1.7,6-2.2,8.3-1.4l0.9,0.3l-0.5,0.8c-0.3,0.4-1.7,1.9-3,3.3l-2.5,2.5l0.7,0.7c4.2,4.4,4,6.9-1.1,12.6
		c-1.5,1.7-2.2,2.7-3.1,4.2c-0.6,1.1-1.6,2.6-2.1,3.3c-1.1,1.5-1.1,1.6-0.7,1.8c1.6,0.5,4.5,3.2,5.4,5.1c1,1.9,1.1,2.7,1.2,7.9
		c0.2,7.6,1.3,9.6,8.2,16.4c14.4,13.9,29,15.7,49.9,6.1c8.8-4,12.6-4.1,16.7-0.3c2.3,2.2,2.9,2.4,7,2.8c3.4,0.3,4.1,0.5,5.8,1.7
		c2.5,1.7,4-2.1,1.6-3.9c-0.4-0.3-1.8-0.9-3.2-1.3c-8.2-2.8-11.6-6.1-9.5-9.1c2.4-3.5,8.1-3.4,12.9,0.1c3.2,2.4,5.3,5.3,9.5,13.2
		c3.7,6.9,6.4,9.7,12,12.4c3.7,1.8,5,2.8,6,4.8c0.7,1.5,1.1,1.8,2.4,2.1c1.3,0.3,1.4,0.3,1-0.7c-0.5-1.3-0.5-1.3,0.2-1.7
		c0.9-0.5,0.9-0.5-0.4-1.5c-1.5-1.3-3-3.8-2.6-4.3c0.2-0.2,1.6,0.4,2.4,1.1c1,0.7,1.1,0.7,1.3,0.2c0.3-0.9,1.5-1.8,2.3-1.8h0.4
		l-0.3-0.8c-0.9-2.4-0.1-3.4,3.2-3.6c2-0.1,2.7,0,4,0.8c1.1,0.7,1.3,0.6,1.3-0.9c0-2-1.5-4.3-3-4.7c-2.5-0.6-5.6-0.4-8.2,0.5
		c-0.8,0.3-1.5,0.5-1.6,0.4c-1.6-1,6-2.4,9.3-1.8l0.7,0.1l-0.6-0.8l-0.6-0.8l-2.2,0c-1.9,0-3.5,0.2-6.1,0.6
		c-0.6,0.1-1.1-0.2-0.8-0.5c0.2-0.2,4-0.8,6-0.8c1.3-0.1,2.3-0.1,2.3-0.2s-0.1-0.3-0.3-0.5l-0.3-0.4l-3.1,0.1
		c-2.3,0.1-3.1,0.1-3.2-0.1c-0.3-0.4,0.3-0.6,2.9-0.7c1.4-0.1,2.7-0.1,2.7-0.1c0.1,0-0.6-1-1.4-2.3c-0.8-1.3-2-3.2-2.6-4.3
		c-3.3-6.1-5.2-8.2-10.7-12.6c-1.3-1.1-2.9-2.5-3.6-3.1c-1.3-1.4-1.4-1.4,2,0.5c2.3,1.3,2.3,1.3,2.6,0.3c0.9-3.3-0.6-6.2-3.9-8.1
		c-1.4-0.8-2-1.4-2.7-3c-0.9-2.1-1.4-2.4-4.7-2.6c-2.8-0.1-3.5-0.4-5.3-2.1c-1.8-1.6-2.9-2.3-8-4.8c-5.1-2.5-7.3-3.8-12.5-7.7
		c-4.2-3.1-5.2-3.5-10.2-4.2c-3.4-0.5-5.4-1.2-7.5-2.6c-1.1-0.8-3-2.6-3-3c0-0.5,0.5-0.3,1.1,0.3c2,2.4,5.3,3.8,10,4.5
		c2.1,0.3,3.7,0.6,4.5,0.9c0.4,0.2,0.4-0.1-0.1-0.6c-0.3-0.4-0.6-0.5-2-0.7c-6-1-9.6-3-9.6-5.3c0-0.8,0.6-0.5,1,0.5
		c0.7,1.7,2.7,2.8,6.7,3.6c3.2,0.7,3.2,0.7,3.1,0.3c-0.1-0.2-0.3-1-0.6-2c-1.4-4.7-2.6-5.4-11.6-7.2c-2.7-0.5-5.2-1.3-11.1-3.5
		c-10.8-4-13.6-4.5-22.7-3.7c-4,0.4-7.4,0.3-10.5-0.2C253.6,64.9,250,64.8,248.6,65 M292.7,99.1c4.9,1.3,9,4.6,11.3,9.3
		c1,2,1.2,2.9,0.6,2.9c-0.2,0-0.4-0.2-0.6-0.8c-1-3.1-8.3-6.7-14.3-7.1c-1.4-0.1-1.7-0.2-1.7-0.4c0-0.3,0.1-0.3,1.3-0.3
		c3.7,0,8,1.4,11.4,3.6c0.8,0.5,1.6,1,1.7,1.1c0.4,0.2-0.3-0.8-1.4-2.1c-5.4-6.5-14.5-7.7-22-3.1c-0.8,0.5-1.3,0.2-0.7-0.4
		C280.6,99.4,288.3,98,292.7,99.1 M305.1,101c4.8,2.8,7.4,9.1,6.5,15.5c-0.6,4.5-3.7,12.1-4.4,10.9c0-0.1,0.3-1,0.8-2.1
		c4.9-10.4,3.5-19.9-3.6-23.8c-0.6-0.3-1-0.7-1-0.8C303.5,100.2,304,100.3,305.1,101 M232,104.9c-0.3,0.1-1.2,0.1-2,0.1
		c-1.6-0.1-2,0.1-2,0.9c0,0.6,0.5,1,2.2,1.4c4.7,1.2,6,3.3,2.1,3.2c-3.4-0.1-4.9,2.7-3.4,6.4c3.3,8.1,6.7,10.7,14.5,10.9
		c1.8,0.1,2.9,0,2.9-0.1c0-0.5-4.7-2.4-7-2.9c-1.1-0.2-2.1-0.9-1.5-1.1c0.8-0.3,1.1-0.4,1.5-1c1-1.3,0.7-2.8-0.4-2.4
		c-2.5,1.1-5.7-0.5-7.3-3.6c-0.6-1.2-0.3-2.2,0.7-2.2c0.6,0,1,0.5,1.8,1.9c2,3.8,6.7,2.8,6.7-1.3C240.6,110.2,235.3,104,232,104.9
		 M289.9,106c5.2,1.1,11.9,4.9,13.4,7.6c0.4,0.7,0.5,0.7,0.7,0.2c0.4-1.3,0.6,2.1,0.2,4c-1.4,7.4-7.4,13-18,16.9
		c-11.9,4.3-14.9,4.6-19.3,1.8c-1.4-0.9-2.1-1.2-3.2-1.5c-3.9-1-4.8-1.5-8-4.7c-3-3-3.1-3.3-3.5-7.4c-0.3-3.3,2.4-5.7,8.7-7.6
		c5.8-1.7,7.9-3.2,8.5-6c0.1-0.4,0.2-0.5,0.4-0.5c0.4,0.1,0.4,0.7,0,1.6c-1.1,2.6-2.6,3.5-8.5,5.5c-5.8,1.9-8.1,3.6-8.4,6.2
		l-0.1,0.8l0.4-0.5c2-2.6,4-2.7,8.8-0.6c3.7,1.6,4.9,1.8,10.2,1.1c6.9-0.8,9.2-0.1,15.3,4.6c3,2.3,3.3,2.3,7.6-0.6
		c2.8-1.9,5.5-4.9,5.5-6c0-0.9-0.9-1.9-3.4-3.8c-6.1-4.6-10.1-6.4-15-6.6c-1.9-0.1-2.1-0.1-2.1-0.4c0-1.2,6.5,0,10.3,1.8
		c3.5,1.7,8.9,5.6,10.3,7.5l0.5,0.6l0.3-0.7c1.4-3.5-7.6-10.1-14.8-10.9c-1.5-0.2-1.8-0.2-1.8-0.5c0-0.3,0.2-0.3,1.1-0.3
		c5.6,0,13.2,4.4,15.8,9l0.5,0.9l0.3-0.7c0.9-2,0.8-1.8,0.4-2.6c-2.1-3.5-10-7.6-15.4-7.9c-1.9-0.1-2.4-0.3-1.9-0.8
		C285.6,105.4,288,105.6,289.9,106 M312.7,106.7c2.1,4.1,2.4,10,0.9,15.1c-0.2,0.7-0.5,1.3-0.6,1.3c-0.5,0.2-0.5-0.2-0.1-1.5
		c1.4-4.5,1.1-10-0.7-14.2C311.6,106.1,312,105.4,312.7,106.7 M280.6,112.5c6.1,0.7,12.5,3.4,16.3,7c1.2,1.2,2.4,3,2.1,3.4
		c-0.2,0.4-0.6,0.1-1-0.7c-2-4.3-11.9-9-19.5-9.1c-1.8,0-2.3-0.2-2.1-0.6C276.6,112.3,278.3,112.3,280.6,112.5 M280.7,115.6
		c5.2,0.7,11.1,2.7,13.9,4.7c1.5,1,2.8,3.1,2.3,3.6c-0.2,0.2-0.7,0-0.7-0.3c0-3.3-10.4-7.2-19.6-7.5c-3.3-0.1-3.7-0.2-3.1-0.8
		C273.6,115.1,278.5,115.3,280.7,115.6 M279.5,117.8c7.9,0.9,15.9,4.9,15.9,8.1c0,0.5-0.7,0.3-0.9-0.3c-1.9-4.3-12.4-7.9-21.1-7.1
		c-3.3,0.3-3.8,0.3-3.8,0C269.6,117.8,275.7,117.4,279.5,117.8 M280.8,120.5c3.8,0.8,6.5,2.2,8.7,4.5c1.7,1.8,2.6,3.6,1.8,3.5
		c-0.1,0-0.5-0.5-0.8-1c-3.4-6-12.7-8.2-23.7-5.7c-2.2,0.5-2.3,0.5-2.3,0.1c0-0.4,0.3-0.5,2.9-1c1.5-0.3,2.4-0.4,5.1-0.7
		C274,119.9,279.3,120.2,280.8,120.5 M225.9,130.8c-0.2,0.2-0.3,0.4-0.2,0.9c0.4,2.4,0.3,3.1-0.2,4c-0.9,1.6-0.3,3.3,1.1,3.3
		c0.7,0,0.1,0.7-0.9,1.1c-2,0.7-3.7-1.5-2.6-3.4l0.3-0.5l-0.8-0.8c-0.4-0.5-0.9-1-0.9-1.3c-0.1-0.4-0.1-0.4-0.9-0.3
		c-3.1,0.5-6.8,3.2-8.3,6.2c-1.2,2.4-0.8,2.8,2.7,3.1c2.6,0.2,3,0.3,4.5,1.4c1,0.8,1.8,1,2.5,0.9c0.7-0.1,0.2,0.8-0.7,1.2
		c-0.5,0.2-0.6,0.2-1.7-0.3c-1.9-0.8-3.3-0.6-4.2,0.7l-0.3,0.4l1,1.1c0.6,0.6,1.5,1.4,2.3,1.9c1.7,1,2.1,1.5,3,4.2
		c0.4,1.2,0.9,2.3,1,2.3c0.7,0.2,0.9-2.1,0.4-4.5c-0.8-3.6,0-4.8,1.1-1.6c1,2.8,2.7,3.6,3.7,1.6c0.3-0.7,0.4-1,0.4-4V145l0.8,0.6
		c2.1,1.6,4.2-0.6,5.5-5.5c0.7-2.9-0.2-7.7-1.6-8.6C231.9,130.9,226.3,130.4,225.9,130.8 M309,137.6c-1.2,0.3-2.5,0.9-3.5,1.8
		c-1,0.9-0.9,0.9,0.6,0.2c1.4-0.6,3.3-1.2,5-1.4c1.4-0.2,1.5-0.3,0.7-0.5C311,137.4,310.1,137.3,309,137.6 M255.6,138.7
		c-0.3,0.9-0.3,1,0.3,0.8c0.4-0.1,0.4-0.2,0.3-0.7C256.1,137.9,255.9,137.9,255.6,138.7 M310,139.2c-0.8,0.2-2.1,0.5-2.8,0.8
		l-1.4,0.6l0.7,0.3c0.9,0.4,0.9,0.4,2.8-0.3c0.9-0.4,2.3-0.8,3.1-1c0.8-0.2,1.5-0.5,1.5-0.5C313.8,138.7,311.4,138.9,310,139.2
		 M313.5,139.9c-2.4,0.6-5,1.6-4.8,1.8c0.9,0.7,1.5,0.6,2.9,0c0.7-0.4,1.8-0.8,2.4-1c1-0.4,1-0.4,0.8-0.7c-0.2-0.2-0.3-0.3-0.3-0.3
		C314.4,139.7,314,139.8,313.5,139.9 M255.7,140.4c-0.5,0.2-0.5,0.2-0.5,1v0.9l1-0.3c1.3-0.3,1.3-0.3,0.8-1.2
		C256.6,140.1,256.6,140.1,255.7,140.4 M314.2,141.4c-0.6,0.2-1.5,0.6-2.1,0.9l-1,0.5l1.1,0.4l1.1,0.4l1.6-0.7
		c0.9-0.4,1.7-0.8,2-0.9l0.4-0.2l-0.7-0.4C315.8,140.9,315.6,140.9,314.2,141.4 M256.8,142.6c-1.6,0.4-1.7,0.5-1.4,1.7
		c0,0.2,3.3-0.4,3.5-0.6c0,0-0.2-0.3-0.6-0.7l-0.6-0.6L256.8,142.6 M316.2,143.2c-2,0.8-2,0.9-0.8,1.4c1.4,0.6,1.3,0.6,2.3-0.1
		c0.4-0.3,1.1-0.7,1.5-0.9c0.9-0.4,0.9-0.5,0-0.8C318.1,142.4,318,142.4,316.2,143.2 M320,144c-1.1,0.5-2.4,1.3-2.2,1.5
		c0.1,0.1,0.7,0.4,1.5,0.7l1.4,0.6l0.8-0.5c0.4-0.3,1.2-0.7,1.8-1c0.5-0.2,0.9-0.5,0.9-0.5c-0.1-0.1-2.9-1.1-3.1-1.1
		C320.9,143.7,320.4,143.8,320,144 M258.9,144.4c-3.6,0.8-3.4,0.7-3.7,1.3c-0.4,0.9-1.5,1.3-3.7,1.5c-2.9,0.3-6.7,1.4-6.7,1.9
		c0,0.1,2.6,2.5,5.7,5.3c12.4,11.3,11.3,10.4,14.6,12.4c5.2,3.2,7.2,5.2,10.4,10.1c3.9,6.1,10.1,9.6,17.2,9.6c2,0-1.1,1.8-3.2,1.9
		c-1.4,0-1.4,0.1,0,1.7c3.8,4.4,9.5,7.6,20.3,11.2c5.5,1.9,9.4,2.9,9.4,2.4c0,0-0.2-0.7-0.4-1.4c-1.5-4.6,2.1-8.6,7.5-8.1l1.3,0.1
		l1.1-0.9c1.3-1,1.3-1.1,0.1-1.8c-3.3-2-9.1-1-13.4,2.3c-1.5,1.1-1.6,1.2-1.8,0.8c-0.3-0.8,4.1-3.5,7-4.3l1-0.3l-1.2-0.2
		c-1.7-0.2-3.5,0.3-6.6,2c-1.1,0.6-1.4,0.7-1.5,0.5c-0.4-0.4,1.7-1.6,4.3-2.6l1-0.4l-1.1-0.3c-1.4-0.4-1.9-0.3-4.2,0.9
		c-1.1,0.5-2,0.9-2.1,0.9c-0.5-0.3,0.6-1.2,2.7-2.1l1.1-0.5l-0.6-0.3c-0.8-0.3-1.6-0.1-3.6,0.9c-0.8,0.4-1.3,0.6-1.4,0.5
		c-0.3-0.3,0.1-0.7,1.5-1.4c1.8-0.8,1.7-0.8,0.7-1.2c-0.9-0.4-1.6-0.3-3.6,0.7c-1.2,0.6-1.8,0.6-1.8,0.2c0-0.3,1.1-0.8,2.4-1.3
		l1.3-0.5l-1-0.7l-1-0.7l-0.9,0.3c-0.5,0.2-1.3,0.5-1.7,0.8c-1,0.6-1.2,0.6-1.2,0.2c0-0.4,1.3-1.2,2.4-1.5c0.8-0.2,0.8-0.3-0.1-1.1
		l-0.7-0.7l-1.1,0.4c-0.6,0.2-1.5,0.6-2,0.9c-1.1,0.7-1.4,0.7-1.4,0.2c0-0.5,1.2-1.1,3.8-2.1c0.3-0.1,0.3-0.1,0-0.2
		c-0.5-0.1-1.7,0.2-2.8,0.8c-1,0.5-1.4,0.5-1.4,0.1c0-0.3,1.8-1.2,3-1.5c0.5-0.1,0.8-0.3,0.8-0.3c0-0.2-1.5-1-3.4-1.7
		c-3.1-1.1-4.6-2-4.6-2.6c0-0.5,0.5-0.4,1.1,0.2c0.8,0.7,1.8,1.2,3.9,1.9c1,0.3,1.9,0.7,2,0.8c0.3,0.2,0.3,0.2,0.1-0.5
		c-0.2-0.5-0.3-0.5-1.1-0.6c-1.8-0.2-4.4-1.5-4.4-2.1c0-0.4,0-0.4,1.7,0.4c1.6,0.8,3.1,1.2,3.1,0.7c0-1.2-1.7-2.8-3.3-3.2
		c-1-0.2-1.4-0.4-1.9-0.9l-0.7-0.6l0.9,0.3c0.5,0.2,1.4,0.4,1.9,0.4c0.6,0,1.4,0.1,1.8,0.2c0.7,0.1,0.8,0,1.1-0.6
		c0.5-0.8,0.4-1.1-1-2.5c-1.4-1.4-2.1-1.6-3.4-0.7l-0.7,0.5l-0.1-0.5c0-0.3,0.1-0.8,0.5-1.4c0.8-1.4,0.6-2.1-1-3.6
		c-1.6-1.5-2.6-1.4-3.2,0.3c-0.5,1.3-0.4,1.7,0.3,2.5l0.6,0.7l-0.7-0.2c-2.4-0.9-2.9-1.9-2.1-4.2c0.5-1.6,0.5-1.9-0.7-3.2
		c-1.9-2.1-3.1-1.2-2.8,2l0.1,1.2l-0.5-0.1c-2.1-0.5-2.6-2-1.2-4c0.3-0.4,0.4-0.8,0.4-0.9c-0.3-0.6-0.9-1-1.9-1.3
		c-0.6-0.2-1.5-0.6-1.9-0.8c-2.1-1.2-3.5,0.7-2.1,2.7c0.4,0.6,0.4,0.6-0.7,0.2c-1.9-0.7-2.4-2.6-1-3.8l0.4-0.4l-0.7-0.7
		c-1.3-1.3-3.8-2.5-4.7-2.3c-1,0.2-1.1,1.8-0.3,2.8c0.5,0.6,0.2,0.5-0.7-0.1c-1.1-0.8-1.5-1.8-0.8-2.6c0.3-0.4,0.3-0.4,0.1-0.4
		c-0.1,0-1-0.4-1.9-0.9l-1.6-0.9l-1.2,0.6c-0.7,0.4-1.8,1.1-2.6,1.9c-1,0.9-1.4,1.2-1.5,1c-0.4-0.4,1.6-2.4,3.5-3.5l1-0.5l-0.9-0.6
		l-0.9-0.6l-1,0.5c-0.9,0.5-2.6,2-3.5,3c-0.4,0.5-0.9,0.5-0.9,0c0-0.4,2.3-2.7,3.5-3.4l1.1-0.7l-0.4-0.3c-1.2-0.9-1.1-0.9-2.7-0.1
		c-1.1,0.5-1.7,1-2.6,1.8c-1,1-1.6,1.3-1.6,0.8c0-0.7,2.8-3,4.2-3.6c0.7-0.3,0.7-0.3,0.1-0.8c-0.9-0.6-3.4,0.4-5.3,2.2
		c-0.6,0.6-1.2,1-1.3,1c-0.9-0.3,2.1-3,4.3-3.8l1-0.4l-0.5-0.5C259.8,144.3,259.6,144.3,258.9,144.4 M324,145.7
		c-1,0.4-2.5,1.3-2.4,1.3c0,0,0.7,0.3,1.5,0.6l1.4,0.6l0.6-0.5c0.4-0.3,1.2-0.8,1.9-1.2l1.2-0.6l-1.1-0.3
		C325.7,145.2,325.1,145.3,324,145.7 M328,147c-1.3,0.6-2.7,1.5-2.5,1.7c0.1,0.1,3,1.4,6.6,2.9c15.5,6.7,18.8,9.6,20.1,17.7
		c0.4,2.3,0.9,3.1,1.2,1.9c0.1-0.4,0.4-1,0.7-1.3c1.8-2.5,8.6-1.7,9.1,1c0.1,0.7,0.2,0.6,1-1.1c0.4-0.9,0.9-1.8,1.2-2.2
		c1.6-2,4.3-1.5,4.3,0.8l0,0.6l0.4-0.5c0.6-0.7,0.8-1.6,0.6-3.1c-0.3-2.5,0.3-4,2.1-4.9c0.8-0.4,0.9-0.6,0.9-0.8
		c-0.4-1.8-0.5-2.3-0.4-2.8c0.1-0.7,0.8-1.5,1.4-1.6l0.5-0.1l0.1-1.8c0.1-1.9,0-2.5-0.6-3.5l-0.4-0.6l-0.8,0.4
		c-1.1,0.6-1.1,0.6-0.6,1.3c0.7,0.9,1.1,1.9,1.2,2.7l0.1,0.8h-0.7c-0.7,0-0.7,0-0.8,0.7c-0.1,1.1-0.5,1.5-1.2,1.4l-0.6-0.1l0.5,0.8
		c0.8,1.4,0.8,1.7,0,1.6c-0.8-0.1-2.8,1.7-2.6,2.3c0.2,0.8-0.5,1.4-1.8,1.6c-0.4,0.1-1.2,0.3-1.9,0.6c-2.5,1.1-5.5-0.1-11.3-4.4
		c-5.2-3.8-14.8-9.1-21.3-11.6C329.5,146.4,329.4,146.4,328,147 M298.3,148.5c0.7,1.3,2.8,2.4,6.9,3.7c8.9,2.7,11,5.2,12.7,14.4
		c0.9,5.3,1.6,7.4,3,9.3l0.6,0.9l-1-0.7c-3.3-2.3-4.7-4.7-6.2-10.8c-1.9-7.4-3-8.5-11.1-11.2c-8.1-2.8-13.3-3.8-18.2-3.8l-2.1,0
		l0.5,0.4c0.3,0.2,1.3,0.8,2.3,1.4c2.3,1.2,3.3,1.9,4.1,2.6c0.6,0.6,0.6,0.6,2.7,0.7c3.1,0.2,3.4,0.2,5.1,1
		c7.6,3.3,11.4,8.6,11.7,16.4c0.2,3.6,0.4,4.1,2.1,5.7c5.4,5,15.1,6.1,17.9,2c0.6-0.9,0.6-1-0.2-1.4c-3.7-1.6-6.3-8.4-7-17.6
		c-0.2-3.5-1.1-5.5-3.2-7.6c-2.3-2.3-4-2.9-13.4-4.3c-3.6-0.6-6.7-1.1-7-1.1C298.2,148.1,298.2,148.2,298.3,148.5 M200.7,149.9
		c-8.4,0.7-12.5,1.1-12.5,1.2c0,0.1,0.2,0.5,0.4,0.8c0.6,0.9,1.4,2.7,1.3,2.8c-0.1,0.1-2.2-1.2-3.5-2.3c-0.7-0.6-1.4-1.2-1.6-1.2
		c-1-0.3-2.9,1-3.1,2.2c-0.4,2,5.1,8.3,16.4,18.8c7.5,6.9,10.3,9.9,13.3,13.7c1.6,2,1.6,2,0.7,2c-1.3,0-6-2.7-9.7-5.7
		c-4-3.2-6.9-6.2-14.1-14.5c-7.9-9.1-8.5-9.7-9.6-9.4c-2.4,0.5-9.7,4.4-10.2,5.4c-0.1,0.2-0.3,0.8-0.4,1.4
		c-1.7,8.4,2.1,11.1,29.6,20.9c0.7,0.2,0.9,0.5,0.6,0.8c-0.4,0.3-18.7-6.7-22.3-8.5c-7.5-3.8-9.8-7.1-8.7-12.7l0.2-1.1l-0.6,0.6
		c-2.7,2.6-2.1,7.4,1.4,11.2c2.6,2.7,4.8,3.9,12.2,6.3c6.8,2.3,12,4.2,21.9,8.3c5.2,2.1,7.1,3.4,9.9,6.2c2.8,2.9,3.2,3,6.8,2.6
		c2-0.3,2.8,1.2,2.3,4.2c-0.5,3-0.4,3.2,1.3,2.9c2.8-0.6,5.8-2.1,7.2-3.7c1.4-1.5,1.1-2.9-0.8-4.4c-0.8-0.6-0.8-0.6-0.6-1.2
		c0.8-3-0.3-4.9-3.2-5.9c-3.7-1.3-4.8-2.3-5.9-5.5c-1.1-3.2-1.4-13.5-0.7-23.3c0.4-5,0-6.5-1.9-8.4
		C213.5,150.9,207.9,149.4,200.7,149.9 M291.3,156c0.2,0.2,0.2,0.2,0.4,0c0.2-0.2,0.1-0.2-0.2-0.2S291.1,155.9,291.3,156
		 M293.4,156.2c-1.2,0.2-1.4,0.4-0.9,0.9l0.4,0.4l1.1-0.6c0.6-0.3,1.1-0.6,1.2-0.6C295.3,156.1,294,156.1,293.4,156.2 M272.2,156.9
		c0.7,1.2,2,2,3.5,2.3c1.2,0.3,1.4,0.9,0.2,0.8c-1.6-0.1-3.7-1.5-4.4-2.9C270.9,156.2,271.6,156,272.2,156.9 M294.6,157.4
		c-1.1,0.5-1.1,0.5-0.4,1l0.6,0.4l0.7-0.4c0.4-0.2,1-0.5,1.3-0.6l0.7-0.2l-0.7-0.3C296,156.9,295.6,156.9,294.6,157.4 M270.3,158
		c0.7,1.1,1.9,2.2,3.1,2.8c1.5,0.7,1.2,1.4-0.3,0.7c-1.7-0.8-4.1-3.3-3.8-4C269.4,157,269.8,157.2,270.3,158 M197.3,158
		c0,0.1-0.3,0.6-0.9,1.1l-0.9,0.9l0.6,0.5l0.6,0.5l1.5-1.4c1.4-1.4,1.9-1.6,1.9-1c0,0.3-1.6,1.9-2.5,2.6l-0.5,0.3l1.4,1.5l1.4,1.5
		l0.5-0.3c0.3-0.2,1.1-0.8,1.8-1.5c1.2-1.2,1.8-1.4,1.8-0.8c0,0.3-1.6,1.8-2.7,2.6c-1,0.7-0.9,0.6-0.1,1.4c0.8,0.7,0.5,0.8,2.9-1.1
		c1.7-1.4,2.3-1.7,2.4-1.2c0,0.1-0.8,0.9-1.9,1.8c-1.1,0.9-2,1.7-2,1.7c0,0.1,2.5,2.5,4.4,4.2l0.8,0.7l1.5-1.6
		c1.1-1.2,1.6-1.6,1.8-1.5c0.5,0.2,0.3,0.4-1.2,2c-1.5,1.6-1.5,1.6-1.2,1.9c0.8,0.9,1.7,0.6,3-0.9c0.6-0.7,1.2-0.9,1.2-0.4
		c0,0.3-0.9,1.3-1.7,1.9c-0.5,0.3-0.9,0.6-0.9,0.7c-0.1,0,0.9,0.9,1.2,1.1c0.1,0.1,0.5-0.1,0.8-0.3c0.3-0.2,0.7-0.4,0.8-0.3
		c0.3,0.1,0.2,0.5-0.2,0.8c-0.3,0.2-0.4,0.4-0.4,0.6c0.2,1.1-1.4,0-6.6-4.7c-4.2-3.8-12.1-12.2-12.1-12.8c0-0.4,0.5-0.4,0.9,0
		c0.4,0.5,0.7,0.5,1.6-0.5C196.7,157.7,197.2,157.6,197.3,158 M297.8,158.4c-2,0.4-2.4,0.8-1.6,1.4l0.5,0.4l1.1-0.5
		c0.6-0.3,1.4-0.6,1.6-0.6c0.3-0.1,0.5-0.2,0.5-0.2c0-0.1-1-0.7-1.1-0.7C298.8,158.2,298.3,158.3,297.8,158.4 M299.9,159.7
		c-1.6,0.4-2.6,1-2.3,1.4c0.9,1,1.1,1,2.4,0.4c0.7-0.3,1.5-0.6,1.8-0.7l0.6-0.1l-0.7-0.6C301.1,159.5,301,159.4,299.9,159.7
		 M202.5,160.1c0.1,0.2-3.3,2.9-3.7,2.9c-0.7,0-0.2-0.6,1.4-1.9C201.8,159.9,202.3,159.7,202.5,160.1 M280.3,161.8
		c0.7,0.9,1.9,1.5,3,1.8c1.3,0.3,1.5,1,0.2,0.8c-1.7-0.2-4.4-2.1-4.4-3C279.2,161,279.7,161.1,280.3,161.8 M301.7,161.6
		c-2.3,0.7-2.5,0.9-1.8,1.8l0.5,0.6l0.9-0.4c0.5-0.2,1.4-0.5,2-0.7l1.1-0.3l-0.4-0.5C303.2,161.2,303,161.2,301.7,161.6 M278.8,163
		c0.8,0.9,1.7,1.4,3,1.7c1,0.3,1.1,0.3,0.8,0.7c-0.5,0.8-5-1.8-5-2.9C277.5,162.1,278.1,162.3,278.8,163 M302.9,163.7
		c-2,0.7-2,0.6-1.4,1.3l0.3,0.4l1-0.4c0.6-0.2,1.4-0.4,1.9-0.5l0.9-0.1l-0.3-0.6C304.9,163.2,304.6,163.2,302.9,163.7 M207.9,165.2
		c0.3,0.4-3.3,3.3-3.8,3.1c-0.3-0.2-0.2-0.7,0.3-0.9c0.5-0.2,2.2-1.5,2.6-2C207.4,165,207.8,164.9,207.9,165.2 M223.9,165.7
		c-0.3,0.4-0.9,2.3-0.9,2.7c0,0.2,1.1-0.7,2.4-1.8c0.1-0.1-0.2-0.4-0.5-0.7l-0.6-0.6L223.9,165.7 M303.5,165.6
		c-0.5,0.2-0.9,0.4-1,0.4c-0.2,0.2,0.6,1,1,1c0.2,0,1-0.1,1.8-0.1l1.4-0.1l-0.2-0.7l-0.2-0.7l-0.9,0
		C304.8,165.3,304,165.5,303.5,165.6 M287.9,166.9c0.4,0.8,1.7,2.1,2.1,2.1c0.2,0,0.2,0.5-0.1,0.6c-0.8,0.3-3.4-2.5-3-3.4
		C287.1,165.8,287.4,166,287.9,166.9 M210.7,167.1c0,0.3-0.1,0.4-2.6,2.1c-1.1,0.7-2,1.3-2.1,1.2c-0.3-0.2-0.1-0.7,0.4-1
		c0.3-0.2,1.3-0.8,2.1-1.4C210.1,166.8,210.7,166.6,210.7,167.1 M225.2,167.8c-1.7,1.3-2.4,2.3-2.4,3.1c0,1.4,0.1,1.4,1.3-0.3
		c0.6-0.9,1.4-1.9,1.7-2.3C226.8,167.2,226.4,166.9,225.2,167.8 M285.9,167.9c0.4,0.9,1.3,1.8,2.4,2.3c1.4,0.6,1.3,1.3,0,0.8
		c-1.3-0.5-2.7-1.7-3.1-3C284.8,167.2,285.6,167,285.9,167.9 M129.8,167.6c-2.6,0.1-1.6,2.2,1.1,2.2c0.6,0,0.8,0.1,0.9,0.2
		c0.3,0.7-1.8,0.7-3,0l-0.7-0.4v0.5c0,0.3,0.2,0.7,0.4,1c1.2,1.6,1.9,5.2,1,5.2c-0.3,0-0.3-0.1-0.4-1.1c-0.3-3.2-1.5-3.2-3.8,0.1
		c-2.3,3.4-0.4,7.2,3.1,6.1c0.3-0.1,0.4,0,0.6,0.9c1.6,5.7,4.2,7.5,11.5,8.1c4,0.3,4.6,0.4,7.9,1.6c3.7,1.3,5.5,1.4,10.1,0.3
		c6.5-1.4,10-3.3,8.9-4.6c-0.2-0.2-0.2-0.3,0-0.4c0.2-0.1-0.1-0.2-0.8-0.2c-1.4,0-1.6-0.2-5.1-6.9c-1.9-3.5-3-5.5-3.1-5.4
		c-0.2,0.3-0.2,1.5,0.1,3.4c0.5,2.9,0.2,3.9-1.8,6.6c-1.5,2-1.9,3-1.9,4.4c0,1.3-0.2,1.3-0.8-0.1c-0.6-1.5-0.2-3.7,0.8-4.7
		c0.3-0.3,0.2-0.8-0.2-0.8c-0.3,0-1.5,1.3-1.9,2c-0.4,0.8-0.9,1.1-0.9,0.4c0-0.6,0.9-2,1.6-2.6l0.6-0.5l-0.4-0.4
		c-0.4-0.4-0.8-0.2-1.3,0.8c-0.3,0.6-0.7,0.7-0.8,0.3c-0.1-0.3,0.3-0.9,0.9-1.6c0.5-0.5,0.5-0.5-0.2-2.1c-0.2-0.6-0.8-2.5-1.2-4.3
		c-0.7-3-1.6-5.3-2.1-5.7c-0.3-0.2-0.2-0.5-1.1,6c-0.8,6.2-0.8,6-2.2,7.3c-1.5,1.4-1.6,2.4-0.3,3.9c0.6,0.7,0.3,0.8-0.7,0.3
		c-1.6-0.8-2.3-2.6-1.5-4.2c0.4-0.8,0.5-1.9,0.1-1.5c-0.3,0.3-0.9,1.5-1.2,2.4c-0.2,0.6-0.8,0.9-0.8,0.4c0-0.6,0.7-2.1,1.3-3
		c0.6-0.8,0.7-1.7,0.2-1.7c-0.3,0-0.9,1.1-1.1,1.9c-0.2,0.6-0.3,0.7-0.5,0.7c-0.6-0.1-0.2-1.5,0.9-2.9c0.4-0.5,0.4-1,0.1-1.5
		c-0.1-0.2-0.2-0.2-0.4,0c-0.6,0.6-1-0.1-0.5-0.7l0.4-0.4l-1.7-3.8c-0.9-2.1-1.8-3.8-1.8-3.8c-0.1,0,0,0.8,0.2,1.8
		c0.7,4.5,0.6,7.1-0.7,10.8c-1,2.9-1.1,4.2-0.3,5.5l0.5,0.8l-0.7-0.4c-1.5-0.9-2-2.9-1.4-5.4c0.3-1.1,0.3-2.4,0.1-2.4
		c-0.3,0-1,1.4-1.3,2.7c-0.2,0.8-0.4,1.2-0.5,1.2c-0.7,0-0.1-2.4,0.8-3.9l0.6-1l-0.5-0.7l-0.5-0.7l-0.4,0.7c-0.2,0.4-0.6,1-0.7,1.4
		c-0.3,0.7-0.7,0.9-0.8,0.4c-0.1-0.3,0.4-1.6,1.1-2.5c0.5-0.7,0.5-0.8,0.3-1.5c-0.1-0.4-0.3-2-0.4-3.6c-0.3-4-0.8-5.2-1.9-5.1
		C131.1,167.6,130.4,167.6,129.8,167.6 M304,167.8c-0.3,0.1-0.3,0.1,0,0.6c0.2,0.4,0.4,0.5,0.6,0.4c0.2,0,0.8-0.2,1.4-0.3
		c0.8-0.1,1-0.2,1-0.5C306.9,167.7,304.7,167.6,304,167.8 M225.6,169.9c-1.7,2.3-2.6,3.9-2.5,4.5c0.1,0.4,0.1,0.4,0.6-0.4
		c0.7-1.2,1.8-2.8,3-4.1c1-1.1,1-1.1,0.7-1.5C227,168,227,168,225.6,169.9 M113.8,169c-0.9,0.2-2.5,0.4-3.6,0.5
		c-2.6,0.2-3.5,1.3-2.8,3.2c0.9,2.4,0.6,3.3-0.9,2c-1.4-1.3-2.2-1.4-3.8-0.6c-2.7,1.4-2.9,2.7-0.6,4c2.4,1.4,4,3.3,3.6,4.3
		c-0.3,0.9-1.5,0.6-2.5-0.7c-0.7-0.9-1.5-1.4-3.2-1.9c-4.4-1.3-4.4-3.7,0.1-6.1c2.5-1.3,3.8-2.6,3.8-3.7c0-0.4-0.1-0.4-0.6-0.1
		c-0.8,0.5-2.3,0.5-5-0.1c-3.7-0.8-4.4-0.7-6.8,0.7c-1.5,0.9-1.5,0.9-0.6,1.4c0.9,0.5,2.4,0.6,3.1,0.3c0.6-0.3,1.1-0.1,0.7,0.4
		c-0.6,0.9-3.3,0.8-4.6-0.2l-0.7-0.6l-1.8,1.1c-2.7,1.7-2.7,2.9-0.1,3.7c1.2,0.4,1.8,0.7,2.1,1.3c0.4,0.7,1.6,4,1.4,3.9
		c-4-1.5-7.1-3.4-7.8-4.9c-0.7-1.4-0.5-2,0.9-3.9c1.1-1.4-1.8-2.4-3.9-1.4c-2.5,1.2-3.1,3-2.3,6.9c0.5,2.3,0.5,2.2-0.3,1.7
		c-0.5-0.4-0.6-0.4-0.7-0.1c-0.2,0.5,0.1,2.4,0.5,3.3c0.3,0.6,0.4,0.9,0.2,1.1c-0.7,0.7-1.4-1.2-1.4-3.7c0-2.4-0.2-2.7-0.8-1.3
		c-0.7,1.5-0.7,4.2,0,5.6c0.7,1.5,0.2,2-0.5,0.6c-1.2-2.4-1-5.2,0.6-7.8c1.4-2.3,0.9-3.2-1.9-3.2c-1.6,0-1.8,2-0.2,2.2
		c0.5,0.1,0.7,0.5,0.3,0.7c-0.4,0.2-1.1-0.1-1.5-0.5l-0.4-0.4l-0.6,1.1c-0.4,0.8-1.1,1.7-2.1,2.8c-3.4,3.6-4.1,7-2.2,11
		c0.4,0.8,0.7,1.8,0.8,2.3c0.1,0.7,0.3,0.9,1.3,1.8c1.6,1.5,1.5,2.1-0.1,0.9c-0.9-0.7-1.2-1.1-3.7-4.7c-0.6-0.9-0.9-1.8-1.1-3.6
		c-0.2-2.2-0.9-3.2-2.1-3.2c-0.9,0-0.2,1.9,0.9,2.8c0.6,0.4,0.8,1.1,0.3,1.1c-0.3,0-1.5-1.1-1.9-1.7l-0.3-0.5l-0.3,0.9
		c-0.4,1.2-0.5,1.5-1.6,3l-0.9,1.3l0.1,1.1c0,0.7,0.3,1.6,0.7,2.6c0.6,1.5,0.8,3,0.5,3c-0.9,0-2-2.7-2-4.9c0-2.6-1.8-3.9-3.6-2.6
		c-2.4,1.8-3,5.2-2.1,11.4c0.2,1.2-0.5,0.9-0.8-0.3c-0.2-1.1-0.3-5.7-0.1-6.8c0.1-0.4,0.1-0.7,0-0.6c-0.8,0.5-1.4,9.8-0.7,12.1
		c0.5,1.6,0.5,1.9,0.2,2c-0.3,0.1-0.6-0.6-1-2c-0.4-1.5-0.4-5.9,0.1-9c0.1-0.5,0.1-0.5-0.3,0.2c-0.3,0.7-0.4,1.4-0.8,5.8
		c-0.2,2.2,0,5.1,0.7,7.5c0.3,1,0.5,1.9,0.5,2.1c0.1,0.4-0.5,0.4-0.7,0c-0.3-0.5-1-3.5-1.1-4.6c-0.1-1.2-0.3-1.3-0.5-0.1
		c-0.1,1-1,2.9-2.1,4.8c-2.6,4.4-3,6.6-1.8,9.9c0.6,1.5,0.6,1.9,0.2,1.9c-0.7,0-1.6-3.2-1.6-5.9c0-2.3,0-2.3-0.9-2
		c-0.6,0.2-2,0.2-2.3,0c-0.4-0.3-0.3-1,0.1-1c0.2,0,0.3,0.1,0.3,0.2c0,0.3,1.5,0.1,2.5-0.2c0.9-0.3,0.6-0.5-0.3-0.2
		c-1.5,0.4-4.1-0.5-3.4-1.2c0.2-0.2,0.3-0.2,0.8,0.1c1.4,1,3.8,0.4,3.8-0.9c0-1.9-3-3.7-4.9-2.9c-1,0.4-1.8,3.7-2,8.9
		c-0.2,4-0.2,4.7-0.8,11.2c-0.6,6.6-0.3,8.2,2.2,10.9c0.8,0.9,1,1.4,0.5,1.4c-0.3,0-1.9-1.7-2.3-2.5c-0.6-1.1-0.7-0.7-0.1,0.5
		c0.6,1.2,1.6,2.5,2.6,3.1c0.6,0.4,0.8,0.8,0.3,0.9c-0.6,0.2-2.6-1.8-3.5-3.5c-0.3-0.6-0.8-1.4-1.1-1.7c-0.9-1.1-1.1-2-0.8-5.2
		c0.2-3,0.3-2.9-0.9-3.1c-2-0.3-5.7,1.6-5.1,2.7c0.5,0.9,1.2,1.3,2.3,1.3c1.2,0,1.4,0.1,1.1,0.5c-0.6,0.7-2.2,0.4-3.3-0.5l-0.7-0.6
		l-0.2,0.6c-0.4,1.6-0.2,2.9,1.2,5.7c0.5,1,0.9,2.1,1,2.9c0.9,4.8,2.1,7.1,4.8,9.8c1.2,1.2,1.5,1.6,0.8,1.6c-0.4,0-2.7-2.3-3.6-3.7
		c-1-1.5-1-1.5-0.8-0.4c0.5,2.6,2.6,5.1,5.2,6.4c0.3,0.2,0.6,0.4,0.6,0.6c0,1.2-3.7-1.4-5.1-3.5l-0.6-1l-0.1,0.6
		c-0.1,0.5-0.2,0.4-1-1.6c-1.1-2.5-1.1-2.5-3.1-2.3c-1.8,0.2-1.9,0.2-1.4,1.1c0.7,1.2,1.2,1.4,2,0.5c0.5-0.5,0.8-0.5,0.8,0
		c0,0.4-0.9,1.2-1.5,1.2c-0.3,0-0.5,0-0.5,0c0,0,0.1,0.4,0.3,0.9c0.1,0.5,0.3,2,0.4,3.6c0.3,4.8,0.6,5.3,3,5.3
		c1.9,0,2.2,0.1,5.6,1.8c3.3,1.7,3.7,1.9,7.1,2c5.3,0.2,7.6-0.7,8.8-3.4c0.9-2,3.2-10,2.9-9.9c-0.1,0-1,0.8-2.1,1.8
		c-4.2,3.7-5.3,4.5-6.5,4.5c-0.7,0-1.5-0.5-1.5-1c0-0.2-0.3-0.2-1.2-0.1c-1.6,0.1-2.4,0-2.4-0.4c0-0.3,0.1-0.3,1.6-0.3
		c2.1,0,3-0.2,3.5-0.8c0.5-0.6,0.5-0.7-0.5-0.4c-1.6,0.4-3.3,0.6-3.5,0.4c-0.3-0.4,0.1-0.6,1.1-0.7c1.9-0.2,4.2-1,4.2-1.4
		c0-0.1-0.7-0.1-1.6-0.1c-1.5,0.1-1.6,0.1-1.6-0.3c0-0.3,0.2-0.3,1.4-0.4c2-0.2,2.5-0.3,2.9-1c0.4-0.6,1.6-1.6,3.5-2.6
		c3.3-2,8.3-10.7,7.2-12.7c-0.8-1.5-2.6-1.1-3.5,0.8c-1.6,3.2-6,5.7-7.5,4.3c-0.2-0.2-0.4-0.5-0.4-0.5c0-0.1-0.4-0.2-0.9-0.2
		c-1.5-0.2-3.5-1.1-3.5-1.7c0-0.3,0.7-0.3,1,0c0.7,0.9,4,1.3,4.8,0.6l0.4-0.4l-1.5-0.1c-1.5-0.1-3.1-0.5-3.3-0.8
		c-0.3-0.4,0.3-0.5,1.2-0.3c2.3,0.6,4.2,0.6,5.1-0.2l0.5-0.5l-1,0c-1.5,0-3-0.5-3.1-0.9c-0.1-0.4,0-0.4,1.1-0.1
		c1.8,0.5,3.6,0.5,4.3-0.2c0.8-0.7,0.8-0.7-0.3-0.8c-1.1-0.1-3.3-1.2-3.4-1.7c-0.1-0.5,0.4-0.5,1.1,0c2.1,1.5,3.8,1.4,5.3-0.1
		c1.5-1.5,1.5-1.4-0.2-1.3c-2,0.1-3.1-0.4-3.7-1.5c-0.3-0.7-0.4-0.7,1.4-0.2c4.5,1.2,6.3,0.3,8.7-4.6c0.8-1.6,2-3.7,2.7-4.7
		c2-3,2.1-3.4,1-4c-1.1-0.6-2-0.1-3.3,2c-1.9,3-5.8,3.9-8.5,2.1c-1.1-0.7-1.9-2.3-1.2-2.2c0.1,0,0.4,0.3,0.6,0.6
		c0.8,1.2,2,1.8,3.5,1.8c1.7,0,1.8-0.1,0.8-0.6c-0.5-0.2-1.1-0.5-1.2-0.6c-0.2-0.1-0.7-0.5-1.2-0.7c-1.1-0.6-1.8-1.5-1.9-2.6
		c-0.2-1.2,0.6-1.1,0.8,0.1c0.1,0.6,0.3,0.9,0.8,1.4l0.7,0.7l0.2-0.5c0.4-1.2,1.1-1.5,4.5-2.2c6.8-1.2,11-4.1,12.7-8.7
		c0.5-1.5,0.5-2.2,0-1.8c-3.1,2-11.9-1.3-13.3-5c-0.4-1-0.1-3.1,0.4-3.1c0.3,0,0.5,0.5,0.3,0.8c-1.2,2.2,2.7,5.8,7.5,6.8l0.6,0.1
		l-0.5-0.7c-0.4-0.6-0.6-0.7-1.5-0.8c-2.2-0.4-5.2-2.6-4.1-3c0.2-0.1,0.5,0.1,0.9,0.6c0.8,0.8,1.9,1.4,3.1,1.6l0.8,0.2l0.1-1.1
		c0.1-1.4,0.1-1.4,1.1-0.4c3.2,3.1,8.3,2,12.8-2.9l1-1l-1.7,0c-2.4,0-3.9-0.4-4.8-1.5c-0.5-0.6-1-1.5-0.9-1.7
		c0.2-0.3,0.6-0.1,0.9,0.5c0.6,1.1,1.7,1.8,3.2,2l0.9,0.1l-0.8-0.6c-0.4-0.3-1.1-0.9-1.6-1.3c-1.4-1.1-2.9-4-2.2-4.4
		c0.3-0.2,0.5,0.1,0.9,1.2c0.2,0.6,0.5,1.2,0.9,1.7l0.7,0.7l0-0.5c0-0.8,0.4-1.8,0.8-2.3c0.4-0.4,0.5-0.6,0.5-1.7
		c0.1-1.3,0.4-2.2,0.7-2.2c0.3,0,0.4,0.5,0.2,0.8c-0.3,0.6-0.4,2.1-0.1,2.5c0.1,0.2,0.3,0.6,0.3,0.8c0,1,1.2,2.3,2.4,2.5
		c2.7,0.4,4.3-0.1,6.3-1.9c0.7-0.6,1.5-1.2,1.7-1.3c0.7-0.2,0.4-0.3-0.9-0.6c-3.7-0.7-4-2.6-0.8-4.6c1.2-0.8,1.3-0.7,0.7,0.2
		c-0.8,1.3-0.4,2.1,1.6,3c1.2,0.6,2.1,0.6,2.9,0c0.4-0.3,1-0.7,1.5-1c0.4-0.3,1-0.6,1.2-0.6c0.3,0,0.2-0.1-0.3-0.4
		c-1.2-0.7-1.4-1.1-0.9-2.1c0.7-1.4,2.1-2.3,3.7-2.6l0.7-0.1l-0.4,0.6c-1.7,2.3-1.1,3.8,1.5,3.6c2.8-0.2,4-1.1,4.1-3
		c0.1-1.1,0.1-1.2,0.5-1c0.3,0.1,0.3,1.4,0,2.3c-0.1,0.3-0.2,0.6-0.2,0.6s0.7-0.2,1.5-0.5c1.4-0.5,1.6-0.5,3.2-0.5
		c5.3,0.2,5.5,0.1,6.5-1.5c0.3-0.5,0.7-1.2,0.9-1.4c0.6-0.9,0.9-1,0.8-0.3c-0.3,2.9,2.9,5,5.6,3.7c1.5-0.7,4.1-3.5,4.1-4.4
		c0-0.5-0.7-1.1-1.3-1.1c-3.2,0-4.2-3.8-1.9-7.2c0.3-0.5,0.9-1.4,1.3-1.9c0.9-1.3,1-2.6,0.2-3.4c-1.2-1.3-3.2,0.2-2.2,1.6
		c0.2,0.4,0.1,0.9-0.2,0.8c-0.1,0-0.4-0.4-0.6-0.8l-0.3-0.7l-1.8,1.9c-1,1-2,2.1-2.2,2.4c-0.5,0.6-0.8,0.7-0.8,0.2
		c0-1.5-1.5,1.5-1.6,3.3c-0.1,1.2-0.1,1.3-0.4,1.3c-1,0-0.2-3.4,1.2-5.4l0.4-0.6l-0.5,0.6c-0.7,0.8-1.5,2.4-1.6,3.4
		c-0.1,0.8-0.4,1.1-0.7,0.8c-0.3-0.3,0.1-1.9,0.8-3.2c0.6-1.3,1.4-2.1,3.6-3.7C119.9,169.3,118.6,168.1,113.8,169 M305.3,169.3
		c-0.6,0.2-0.6,0.3,0.4,1.6c1.3,1.6,1.4,1.5,1.5-0.9l0-0.9l-0.7,0C306.1,169.2,305.6,169.3,305.3,169.3 M227.1,170.7
		c-3.1,3.2-4.1,5.9-3.3,8.3c0,0.1,0.5-0.5,1-1.5c1-2,2-3.6,3.5-5.5l1-1.3l-0.4-0.6C228.2,169.4,228.4,169.3,227.1,170.7 M367.2,170
		c-1.4,1.2-2.3,3.1-2.8,5.8c-0.6,3.2-1.5,5.5-3,7.8c-1.2,1.7-1.2,2.3-0.2,2.4c2.3,0.2,5.6-4.2,7-9.3
		C369.9,170.8,369.4,168,367.2,170 M356.3,170.7c-2.1,0.5-3.2,2.2-4,6.1c-0.5,2.4-0.7,3-2.2,6.4c-1.5,3.5-1.5,3.8-0.5,4.8
		c1.6,1.5,2.9,1.1,6.5-1.8c4.1-3.3,6.6-7.4,6.4-10.3C362.2,172.6,359.1,170,356.3,170.7 M229.1,172.1c-1.5,1.9-3.2,4.6-4.3,7
		c-0.7,1.5-0.7,1.4-0.4,2.3l0.2,0.6l0.7-1.3c1.2-2.1,2.8-3.9,3.5-3.9c0.5,0,0.3,0.4-0.5,1.2c-2,1.9-3.4,4.8-3,5.9
		c0.4,0.9,0.4,0.9,1.1-0.5c0.7-1.3,3.1-4,3.5-4c0.6,0,0.3,0.5-0.7,1.5c-1.1,1.1-2.1,2.5-2.8,3.8c-0.4,0.8-0.3,1.1,0.9,1.7
		c0.8,0.4,0.8,0.4,1.3-0.6c0.5-1.1,1.9-2.7,2.4-2.7c0.5,0,0.4,0.3-0.3,1.1c-0.7,0.7-1.4,1.9-1.6,2.5c-0.1,0.3,0,0.4,0.7,0.6l0.8,0.3
		l0.6-0.7c0.7-0.7,1.5-1.2,1.8-1.1c0.4,0.2,0.3,0.4-0.5,0.9c-1.1,0.7-1.2,1-0.7,1.8l0.4,0.7l0.8-0.6c0.8-0.5,1.3-0.6,1.3-0.1
		c0,0.1-0.2,0.3-0.5,0.5c-1.1,0.6-1.3,1.1-1.3,2.6l0.1,1.4l1-0.8c1.1-0.9,1.2-1,1.4-0.6c0.1,0.2-0.3,0.6-1.1,1.4
		c-1.3,1.3-1.4,1.5-0.6,3.3l0.4,0.9l1-1c0.6-0.6,1.1-1,1.3-0.9c0.5,0.1,0.4,0.5-0.2,1c-1.5,1-1.7,1.7-0.7,3l0.3,0.4l1.1-0.9
		c1.5-1.3,3.1-2.3,3.4-2.2c0.5,0.2,0.2,0.5-0.9,1.3c-0.6,0.4-1.6,1.2-2.1,1.7l-1,0.9l0.3,0.9c0.4,1.2,0.3,1.1,0.8,0.7
		c0.5-0.4,1.5-1,1.8-1c0.4,0,0.2,0.7-0.3,0.9c-0.7,0.4-1.7,1.5-1.9,2.2c-0.1,0.3-0.3,1.2-0.5,1.9c-0.4,1.5-0.4,1.6,0.4,0.6
		c1.3-1.6,3.9-3.8,4.2-3.5c0.2,0.2,0,0.5-2.2,2.6c-3.2,3.1-3.4,3.4-3.1,5.3c0.2,1.9,0.3,1.9,1,0.6c1.4-2.8,5.2-6.5,5.2-5
		c0,0.1-0.4,0.5-0.8,0.8c-2.8,2.1-5,5.9-4.3,7.5c0.2,0.6,0.6,0.7,0.6,0.2c0-1,2.6-4.4,3.3-4.1c0.4,0.2,0.3,0.4-0.7,1.3
		c-0.9,0.9-1.5,1.9-1.9,3.1c-0.1,0.4-0.3,0.7-0.4,0.8c-0.3,0.2,0.9,1.9,2.2,3.1c1.8,1.8,3.2,2.4,6.4,2.6l1.1,0.1l-0.1-1.3
		c-0.1-1.5,0.2-2.6,0.7-2.6c0.3,0,0.3,0,0.1,1.5c-0.2,0.8-0.1,1.1,0,1.7l0.2,0.7l1.2,0c1.3,0,2.1-0.5,4.2-2.3l0.9-0.8l0.9,0.4
		c1.4,0.7,2.9,0.5,3.4-0.5c0.7-1.2,0.3-6.9-0.4-7.8c-0.9-1-1.9,0.1-1.9,2.2c0,1.1,0,1.2-0.4,1.1c-0.7-0.1-0.6-2.1,0.2-3.7
		c0.1-0.2-0.9-0.1-2.4,0.2c-0.9,0.2-1.4,0.9-1.4,2.2c0,0.5-0.4,0.9-0.7,0.6c-0.2-0.2,0.1-1.9,0.4-2.7c0.1-0.3-1.4-2.2-5-6.2
		c-5.4-6-6.6-8.2-9.1-16.6c-1.8-5.9-2.7-8.2-5-12c-0.9-1.5-2.7-4.1-3.1-4.6C229.8,171.4,229.4,171.7,229.1,172.1 M105.9,172.6
		l-0.5,0.4l0.6,0.4c0.4,0.2,0.7,0.5,0.8,0.5c0.2,0.1-0.3-1.5-0.5-1.7C106.4,172.2,106.2,172.4,105.9,172.6 M330.7,186.2
		c-0.9,0.6-3.3,1.8-3.6,1.8c-0.4,0-0.2,0.3,0.7,0.9c0.9,0.7,1.2,0.7,2.7,0.1c2.7-1.1,2.8-1.3,1.6-2.7l-0.6-0.7L330.7,186.2
		 M332.5,188.8c-0.6,0.4-1.5,0.8-2.1,1l-1.1,0.4l0.7,0.7l0.7,0.7l1.4-0.7c1.5-0.7,2.7-1.6,2.5-1.9c0-0.1-0.3-0.3-0.5-0.5l-0.5-0.3
		L332.5,188.8 M334.4,190.3c-0.4,0.3-1.3,0.9-2,1.2c-1.2,0.6-1.2,0.8-0.3,1c0.6,0.2,1.4-0.3,2.2-1.3c0.4-0.5,1-1,1.2-1
		c0.3-0.1,0.4-0.2,0.2-0.3C335.5,189.6,335.3,189.6,334.4,190.3 M338.9,190.8c-3,1.4-3.4,2.9-1.2,4.1c0.9,0.4,0.9,0.8,0.4,2.1
		c-0.7,1.9-0.6,2,1.5,0.6l1.3-0.9l0-1c0-0.7,0.1-1.2,0.5-1.9l0.5-0.9l0.1,0.9c0.3,1.9,1.3,3.3,1.8,2.7c1.2-1.5,0.7-4.9-0.9-6
		C341.8,189.6,341.1,189.7,338.9,190.8 M103.9,194.2c-3,0.3-3.3,0.5-9.7,8.8c-10.7,13.8-12,16.1-12,21.4c0,1.9,0.1,1.9,0.9,0.4
		c3.2-5.9,9.3-14.7,16.7-23.9c2.1-2.7,4.9-5.6,6.2-6.3c0.3-0.2,0.1-0.6-0.4-0.5C105.4,194,104.6,194.1,103.9,194.2 M332.7,195.5
		c-0.2,0.1-0.8,0.3-1.3,0.6c-1,0.5-2.4,0.6-4.6,0.3c-2.4-0.3-4.7,2.2-4.2,4.6c0.4,1.9,1.7,2.8,4.5,3.2c2.3,0.3,4.2-0.2,7.7-2.2
		l0.8-0.4l-0.6-0.1c-1.7-0.3-2.5-1.9-1.6-3.4l0.4-0.6l0.1,0.9c0.2,2.6,2.1,2.5,2.1-0.1C336,195.6,335,194.8,332.7,195.5
		 M127.2,196.8c-7.5,2.1-18.7,14.8-25.8,29c-8.5,17-9.5,30.7-2.9,40.7c4.2,6.4,11.8,9.8,15.6,7.1l0.4-0.3l0.6,1.1
		c3.4,6,10.1,7.9,20.6,5.9l2.8-0.5l1-1c0.6-0.5,1.4-1.2,2-1.5c0.9-0.6,0.9-0.6,0.6-0.9c-0.6-0.5-3,0.2-4.2,1.4l-0.5,0.4l0.7,0.6
		c0.4,0.3,0.6,0.6,0.5,0.6c-0.5,0-11.5-1.5-12.6-1.8c-5.4-1.1-7.1-3.4-10.1-13.3c-2.3-7.8-1.8-15.5,1.6-24.4
		c2.4-6.1,4.1-9.2,11.2-20c2.8-4.2,5.1-7.9,6.1-9.8c1.7-3.2,3-5.2,4.2-6.5l0.7-0.8l0.5,0.4c0.7,0.6,1,0.4,1.3-0.7
		c0.3-1.1,0.3-4.2-0.1-4.6c-0.7-0.9-3.3,1-5.4,3.9c-8.1,11-13.1,18.8-18,27.9c-8,15-8.9,19.8-6.2,33.7c0.8,4.1,1.6,7.1,2.3,8.6
		c0.4,0.9,0.4,1,0.1,0.8c-14.4-7.7-14-7.2-15.2-19.7c-0.6-6.9-0.7-6.7,0.9-7.2c1.5-0.5,1.6-0.6,1.5-3.1c-0.1-4.2,0.7-6.3,5.8-15
		c9.2-15.6,16.9-24.8,23.2-27.8c2.7-1.3,3.4-2.1,2.6-2.8C132,196.5,129.2,196.3,127.2,196.8 M179.7,196.9c-0.6,0.5-1.1,1.5-1.6,2.9
		c-0.3,1-0.3,1.1,0.2,0.9c0.6-0.3,2.3-0.4,3.7-0.2c1.5,0.2,1.4,0.3,1.2-1C182.8,197.2,181,195.9,179.7,196.9 M110.9,197.2
		c-3.2,0.5-4.6,1.5-6.4,4.4c-1.5,2.4-3.2,4.9-7,10c-7.4,9.9-9.9,14.5-11.2,20.7c-0.8,4.1-0.5,9.1,0.6,9.1c0.1,0,0.5-0.9,0.9-1.9
		c3.6-9.8,9.2-20.1,15.1-27.9c1-1.3,2.4-3.3,3.2-4.5c2.7-4.2,5.2-6.8,8.8-8.7c1.3-0.7,1.4-1,0.6-1.2
		C114.7,197,111.9,197,110.9,197.2 M171.9,197.9c-0.9,0.4-3.2,3.7-2.3,3.4c0.7-0.3,2.9-0.7,3.9-0.8c1.2-0.1,1.3-0.2,0.8-1
		C173.7,198.1,172.8,197.5,171.9,197.9 M161.4,199c-1.9,1.4-3.8,4.5-6,10.1c-0.6,1.6-1.7,4.3-2.4,6c-1.7,4.1-1.7,4-1.1,3.9
		c0.8-0.2,2.9-0.4,3.1-0.4c0.1,0,0.5-1.2,1-2.9c1.8-6.5,3.2-10.1,5.4-12.9c0.7-0.9,0.7-0.9,0.9,0.8c0.3,2,0.4,2.1,1,1.4
		c0.7-0.7,0.8-1.5,0.7-3.7C163.9,198.4,163.1,197.8,161.4,199 M148.5,201.3c-3.4,0.9-4.2,2.3-8.5,13.6c-1.5,3.9-2.7,7.2-2.8,7.3
		c-0.1,0.2,0.1,0.3,1.7,0.2c1.3-0.1,2,0,2.7,0.2c0.6,0.2,0.9,0.2,0.9,0.1c1.5-4.1,2.5-7,4.7-12.6l1.5-3.9l0.8,0.8
		c0.9,0.9,1.1,0.9,1.4,0c0.3-0.8,0.7-5,0.6-5.3C151.5,201,150.1,200.8,148.5,201.3 M171.7,201.4c-0.6,0.1-1.5,0.4-1.9,0.6l-0.9,0.4
		l-0.6,1.9c-0.7,2.3-0.7,2.2,0.6,1.6c1.3-0.6,2.2-0.8,3.9-1.1l1.3-0.2l0.3-1c0.2-0.5,0.3-1.3,0.4-1.8l0.1-0.8l-1.1,0
		C173.2,201.2,172.3,201.3,171.7,201.4 M178.4,201.5c-0.8,0.4-1,0.6-1.1,1.8c-0.1,0.5-0.1,1-0.2,1.1c-0.1,0.3,0,0.3,0.7,0
		c1.1-0.5,2.6-0.7,3.9-0.6l1.2,0.1l0.2-0.8c0.3-1.5,0.3-1.6-0.6-1.7C180.9,201.1,179.1,201.2,178.4,201.5 M211,202.6
		c-2.3,0.4-3,0.7-13.8,6.3c-27.9,14.4-36.7,20.4-45,30.3c-1.8,2.1-1.8,2.1-1,1.9c1.3-0.3,2.4,0.4,3.3,2.4c0.6,1.2,0.6,1.2,1.2,0
		c2.5-4.9,7.7-9.1,19-15.3c13.1-7.2,23.2-8,22.8-1.8l-0.1,1h0.6c1,0,1.6-0.3,5.8-3.5c5.1-3.8,8.5-6.1,12-8.5c1.5-1,3.6-2.5,4.6-3.3
		c1-0.8,2.2-1.7,2.8-2l1-0.6l-0.5-0.2c-0.3-0.1-1.4-0.3-2.6-0.4c-3.3-0.3-4.1-0.9-4.9-3.3C215.6,203.4,213.5,202.2,211,202.6
		 M179.9,204.5c-1,0.2-2.6,0.8-2.9,1c-0.2,0.2-0.5,3.1-0.3,3.1c0.1,0,0.6-0.3,1.3-0.6c0.7-0.3,1.8-0.7,2.6-0.9l1.4-0.4l0.3-1.1
		c0.2-0.6,0.3-1.1,0.3-1.1C182.5,204.4,180.6,204.4,179.9,204.5 M172.3,205.7c-1.4,0.3-3.1,0.9-4.1,1.5c-0.8,0.5-0.9,0.7-1.2,2.8
		l-0.1,0.7l1.3-0.6c0.7-0.4,1.9-0.8,2.7-1c0.8-0.2,1.6-0.4,1.8-0.5c0.3-0.1,1.2-2.1,1.2-2.9C173.8,205.5,173.7,205.5,172.3,205.7
		 M57,208.2c1,1.4,2.8,2.2,5.4,2.5c1.3,0.2,1.8,0.4,1.4,0.8c-0.3,0.3-3.9-0.4-5.3-1.1c-1.4-0.7-3-2.4-2.6-2.9
		C56.1,207.2,56.4,207.4,57,208.2 M179.9,208.1c-0.7,0.3-1.8,0.7-2.3,1l-0.9,0.5l0.1,0.8c0.1,1.2,0.1,1.2,2.4,0c2-1,2.1-1.1,2.2-1.6
		c0.1-0.3,0.1-0.7,0.2-0.9C181.7,207.6,181.5,207.6,179.9,208.1 M171,209.7c-1.3,0.4-3.8,1.5-4.2,2c-0.2,0.2-0.6,2.7-0.6,3.7
		c0,0.1,0.3-0.1,0.7-0.5c1.3-1.2,4.2-2.9,4.9-2.9c0.3,0,0.4-0.2,0.7-1.5C172.9,209.1,172.9,209.2,171,209.7 M170.1,213.5
		c-2.9,1.6-4.1,2.9-4.1,4.6c0,1.3-0.2,1.3,2-0.3c1-0.8,2.1-1.6,2.6-1.9c0.8-0.6,0.9-0.8,1.2-2.4
		C171.9,212.6,171.8,212.7,170.1,213.5 M152.4,219.6l-1.3,0.3l-0.4,1.1l-0.4,1.1l0.5-0.1c0.3-0.1,1.2-0.1,2.1-0.1h1.5l0.2-0.9
		c0.1-0.5,0.2-1,0.3-1.3C155.1,219.2,154.5,219.2,152.4,219.6 M215.2,221c0,0.1,0.4,0.6,1,1.1c2.3,2.2,4.7,2.5,8.7,1.1
		c0.9-0.3,1.7-0.5,1.7-0.5c0.8,0.8-3.6,2.2-6.4,2c-1.9-0.1-3-0.6-4.7-2.3c-1.6-1.5-1.7-1.6-3.2-0.8c-2.4,1.2-4.9,4.5-7,9.2
		c-1.4,3.2-2.3,5.3-2.2,5.3c0,0,0.6-0.5,1.2-1c1.1-1,4.8-3.9,5.4-4.2c0.2-0.1,0.9-0.6,1.6-1c2.1-1.3,2.3-1.1,1.3,1.1
		c-1.9,4.3-11.6,14.3-22,22.5c-1.4,1.1-2.8,2.3-3.2,2.6l-0.7,0.6l0.7,0c1.3-0.1,0.9,0.6-0.4,0.7c-0.9,0.1-1.2,0.2-1.7,0.6l-0.6,0.5
		l0.9,0.2c1.1,0.2,1.6,0.5,1.4,0.9c-0.1,0.2-0.2,0.2-1.2-0.1c-1.6-0.4-1.7-0.4-2.4,0.3c-0.8,0.7-0.8,0.7-0.2,0.7
		c1.1,0,2.3,0.6,1.9,1c-0.1,0.1-0.4,0.1-1.1-0.1c-1.1-0.4-2.1-0.3-2.6,0c-0.5,0.4-0.5,0.5,0.2,0.5c1.4,0,3.7,1,5.4,2.2
		c1.2,0.9,1,0.9,2.3,0c3.6-2.8,6.1-4.9,12.3-10.7c6.6-6.2,6.6-6.1,8.5-7.8c3.8-3.3,6.9-7.2,11.3-14.3c1.8-2.9,2.1-2.2,0.9,2.4
		c-0.5,1.9-1.3,4.4-2.2,6.3l-0.3,0.6l0.5-0.1c2.8-0.7,7.3-8.6,8.7-15.1c0.6-3.1-0.5-4.8-2.4-3.6c-2.1,1.4-4.6,1.5-7.1,0.2
		c-1-0.5-1.9-0.8-2.7-0.9C215.3,220.8,215.2,220.8,215.2,221 M222.6,221.5c-2.3,0.1-2.5,0.2-0.8,0.5c0.6,0.1,1.2,0.1,1.9,0
		c1-0.2,2.2-0.7,1.5-0.6C225.1,221.4,223.9,221.4,222.6,221.5 M151,222.7c-1,0.2-1,0.2-1.3,1.2c-0.2,0.5-0.3,1-0.4,1.1
		c-0.1,0.2,0,0.2,0.3,0.1c0.2-0.1,1.2-0.2,2.2-0.3l1.8-0.2l0.2-0.8c0.1-0.5,0.2-0.9,0.1-1C154,222.5,152.2,222.4,151,222.7
		 M137.8,223.2c-0.9,0.2-1.1,0.3-1.4,1.2l-0.2,0.7l1.9,0c1.1,0,2.3,0.1,2.7,0.1l0.8,0.1l0.3-0.9c0.2-0.5,0.2-0.9,0.1-1
		C141.6,223.1,139.2,222.9,137.8,223.2 M236.6,223.7c-0.9,0.3-1.5,0.7-2,1.3l-0.5,0.5l1.1,0c2,0,4.8,0.8,4.8,1.4
		c0,0.3-0.3,0.3-2.1-0.3c-0.6-0.2-1.9-0.4-2.8-0.5l-1.6-0.1l-0.5,0.6c-0.7,0.8-0.7,0.9,0.4,0.7c1.6-0.2,5.4,0.6,5.4,1.1
		c0,0.4-0.5,0.5-1.4,0.1c-2.3-0.8-5.4-0.5-6.2,0.6c-0.7,1-0.7,1,0.5,0.8c2.3-0.2,5.8,0.8,5.3,1.5c-0.1,0.2-0.4,0.1-1.3-0.2
		c-1.1-0.4-4.3-0.6-5.4-0.3c-0.3,0.1-1.5,1.4-1.5,1.7c0,0,0.7,0.1,1.6,0.1c2.9,0,5.8,0.8,5.6,1.5c-0.1,0.2-0.2,0.2-1.3-0.1
		c-1.7-0.6-3.7-0.8-5.2-0.7l-1.3,0.1l-0.7,1l-0.7,1h1.5c2.6,0,5.7,0.7,5.7,1.4c0,0.4-0.1,0.4-2.3-0.2c-0.9-0.2-2.1-0.4-3.3-0.5
		l-2-0.1l-0.8,1.1c-0.7,1-0.7,1.1-0.4,1c2.6-0.7,6.9-0.4,6.5,0.5c-0.1,0.2-0.2,0.2-0.8,0.1c-0.4-0.1-1.6-0.1-2.7-0.1
		c-3,0-4.1,0.4-5,1.9l-0.3,0.5l0.5-0.2c1.9-0.6,5.4-0.5,5.4,0.1c0,0.3-0.2,0.3-2.3,0.3c-2.6,0-4.3,0.5-4.7,1.2
		c-0.1,0.2-0.4,0.6-0.5,0.8l-0.3,0.4l1.1-0.2c1.2-0.3,2.4-0.3,2.6-0.2c0.3,0.3-0.2,0.6-1.7,0.8c-2.2,0.4-2.4,0.5-3.1,1.4
		c-0.7,1-0.7,1,1,0.5c1.7-0.5,2-0.5,2-0.1c0,0.2-0.2,0.4-0.7,0.5c-0.4,0.1-1.2,0.3-1.7,0.5s-1.2,0.3-1.4,0.3c-0.3,0-0.5,0.2-1,0.9
		c-0.7,1.1-0.7,1.1,0.3,0.8c0.5-0.2,0.8-0.2,0.9-0.1c0.3,0.3-0.1,0.7-1.2,1c-1.3,0.4-1.3,0.4-2.5,2.6l-0.6,1l0.8-0.5
		c0.4-0.3,0.9-0.4,0.9-0.3c0.3,0.2,0.2,0.6-0.5,1c-1.6,1-2.4,1.9-3.5,4.2c-2.5,5.1-4.4,10.2-5.3,14.6c-0.4,2.2-0.4,2.2,0.2,1.7
		c0.8-0.7,2-0.4,3.4,0.7l0.5,0.4l0.1-1.9c0.4-7.9,11.5-25.2,18.2-28.4c2.1-1,4.6-0.3,5,1.5c0.3,1.3,1.4-0.1,3.5-4.4
		c2-4.3,4.2-8.6,5.5-11c0.5-0.9,1.3-2.6,1.8-3.7c0.5-1.1,1.1-2.3,1.3-2.6c0.6-1,0.5-1-2.1,0.1c-2.3,0.9-3.3,0.8-4.6-0.5
		C239.4,223.5,237.8,223.2,236.6,223.7 M359.3,223.9c-1.3,0.8-1.7,4.1-0.8,6.9c0.3,1.2,0.3,1.6-0.2,1.4c-0.4-0.2-0.8-1.9-0.9-4.1
		l-0.1-2l-0.7-0.6c-1.2-1.1-4.5-1.9-5.3-1.3c-0.3,0.2-0.2,0.3,0.7,0.8c1.9,1.2,4.3,4.6,3.2,4.6c-0.2,0-0.5-0.3-0.8-0.9
		c-0.5-1.1-2.1-2.7-3.1-3.3l-0.7-0.4l-0.3,0.4c-1.2,1.8-2.4,2.8-5.1,4.3c-3.8,2.1-5.8,3.7-8.1,6.6c-0.7,0.9-1.7,2-2.2,2.5l-0.8,0.8
		l0.7,0c1.2,0,1,0.6-0.3,0.8c-2.5,0.3-3.8,2.6-2.3,4l0.4,0.4l-0.8,0.3c-2.3,0.9-2.7,2.3-1.7,5.9c0.7,2.3,1.2,6.9,1.2,10.5
		c0,3.2,0.2,4.1,1,5.2c0.9,1.3,2.6,2,3.8,1.7c0.5-0.1,0.5-0.1,0.7,0.5c0.6,1.9,4.8,4.2,6.3,3.5c0.4-0.2,0.5-0.4,0.9-2l0.4-1.8
		l0.4,0.4c1.5,1.6,3.4,1.2,6-1.4c3.7-3.7,5.7-7.4,6.1-11c0.1-0.8,0.1-1-0.1-1c-0.4,0-2.5,1.3-4.7,2.7c-1.8,1.3-3.5,2.3-4,2.3
		c-0.1,0-0.3,0.1-0.6,0.2l-0.4,0.2l0.5,0.6c0.5,0.7,0.9,1.7,0.8,1.9c-0.2,0.3-0.6,0.1-0.8-0.5c-0.3-0.8-1.2-1.7-1.7-1.7
		c-0.3,0-0.3,0,0,0.2c1.3,0.7,2.5,3.3,1.5,3.1c-0.3,0-0.4-0.2-0.5-0.7c-0.3-1.2-1.9-2.3-3-2.1c-1,0.3-2.4,2.1-2,2.8
		c0.2,0.3-0.2,0.2-0.7-0.3c-0.3-0.3-0.6-0.7-0.7-1.3c-0.3-1.2-1.2-1.5-2.4-0.9c-0.3,0.1-0.7,0.2-0.8,0.2c-0.8-0.3,0.6-1.2,1.9-1.2
		l1,0l-0.1-0.5c-0.1-0.3-0.3-1.3-0.6-2.3c-0.6-2.3-0.6-4,0.1-5.5c0.4-0.8,0.5-1.5,0.1-1.5c-0.2,0-1.1,2.2-1.4,3.2
		c-0.2,1.1-0.1,3.5,0.3,4.6c0.3,0.9,0.2,1.4-0.3,1c-1.2-1-1.1-5.6,0.1-8.1l0.6-1.1l-0.5-0.3c-0.7-0.3-0.7-0.3-1.3,1.2
		c-0.6,1.6-0.9,2.9-0.9,4.4c0,0.9-0.1,1.1-0.2,1.1c-0.9,0-0.5-3.9,0.6-6.3c0.3-0.6,0.5-1.1,0.5-1.1c0-0.2-1.1-0.2-1.3-0.1
		c-0.4,0.4-0.9,2-1,3.1c0,1.1-0.2,1.4-0.6,1c-0.3-0.4-0.1-2.4,0.4-3.5c0.2-0.5,0.4-1.1,0.4-1.2c0-0.9,3.6,0.3,5.1,1.7l0.4,0.3
		l0.4-0.5c0.8-0.9,0.5-2-0.8-2.6l-0.7-0.3l1.2,0c4.5,0,3.8-4.3-0.8-4.9c-1.1-0.1-1.2-0.2-1.1-0.5c0.2-0.6,2.5-0.1,3.9,0.7
		c0.6,0.4,0.8,0.5,0.9,0.2c0.2-0.4,0.1-0.5-1-1c-1.5-0.8-1.9-1.5-0.8-1.3c0.4,0.1,0.5,0,0.9-0.8c1.1-2.2,5-5.2,5-3.9
		c0,0.1-0.4,0.5-1,0.8c-1.2,0.7-2.7,2.2-3.3,3.4l-0.5,1l0.6,0.4l0.6,0.4l0.9-0.5c2.6-1.7,6-3,7.3-3.1c1.9,0,2.3-0.9,1.7-3.5
		c-0.3-1.4-0.3-1.6,0-1.6c0.7,0,1.1,3.4,0.6,4.7c-0.2,0.4-0.4,0.8-0.4,0.8c0,0,0.2,0.1,0.5,0.2c1.6,0.6,2.8-0.1,2.9-1.6
		c0.1-0.6,0.1-0.8,0.2-0.7c0.1,0.1,0.1,0,0.1-0.4c-0.4-3-0.1-3.4,0.9-1.1c1.1,2.3,2.8,4.7,3.4,4.7c0.1,0-0.2-0.3-0.5-0.7
		c-1-1.3-1.5-3-0.9-3c0.2,0,0.4,0.2,0.5,0.7c0.6,1.9,1.7,3,3.4,3.2c3.6,0.5,5.6,2.2,5.8,5.1c0.1,1.9,0.2,2,1.4,1.9
		c1.4-0.1,2.6-1,3.6-2.6c0.7-1.2,0.9-1.3,1.3-0.7c0.2,0.3-2.1,4.2-3.2,5.3c-0.3,0.3-0.5,0.6-0.4,0.6c0,0-0.1,0.5-0.4,1
		c-1.1,2.4,0.1,4,1.9,2.6c0.2-0.2,0.5-0.3,0.6-0.3c0.1,0,0.5-0.2,0.9-0.5c0.8-0.6,1.4-0.5,0.9,0.2c-0.9,1.2-1.2,2.7-0.8,4.2
		c0.4,1.6,0.2,3.1-0.7,6.3c-1.2,4.2-1.1,5.6,0.4,6.2c0.4,0.1,0.5,0.2,0.3,0.3c-1.2,0.4-1.5,2.1-0.9,4.3c0.9,3.2,0.6,9-0.6,10.7
		c-1.5,2.2-1.6,2.4-1.6,3.1c0,1,0.5,1.6,1.2,1.3c0.7-0.2,1.9-0.1,2,0.2c0,0.2-0.1,0.3-0.9,0.4c-2.2,0.2-2.9,1-2.6,3
		c0.7,5-0.4,9.6-3.3,13.6c-1.1,1.6-1.2,1.7-0.1,1.2c1.1-0.5,3-0.5,3-0.1c0,0.3-0.1,0.3-1.2,0.4c-1.3,0.1-2.9,0.8-2.9,1.2
		c0,0.1,0.3,0.5,0.6,0.9c0.8,1,0.8,1.2-0.8,1.5c-2.3,0.5-2.6,1.1-2.4,4.7c0.2,3.8-0.3,5.8-2.6,10.2c-1.7,3.3-1.9,3.6-3.4,4.3
		c-0.7,0.3-1.1,0.6-0.9,0.5c2.1-0.5,3.1-0.5,3.1,0c0,0.3-0.2,0.4-1.2,0.5c-2.6,0.3-3.2,0.8-2.6,2.2l0.3,0.7l-0.8,0
		c-1.9,0-3,1.3-3.5,4.1c-0.4,2.2-0.6,2.6-1.6,3.8c-0.4,0.5-1.4,1.6-2.1,2.5c-1.8,2.2-2.7,3.2-4.5,4.7c-1.7,1.4-2.5,2.3-2.1,2.4
		c0.1,0,0.6,0.2,1.1,0.4c1.2,0.4,3.9,1.7,4.2,2c0.6,0.7-0.2,0.6-1.7-0.1c-2.5-1.3-4-1.7-4.2-1.2c-0.2,0.6-0.1,0.9,0.7,1.2
		c2.4,0.9,5.3,3.1,4.1,3.1c-0.1,0-0.9-0.4-1.6-0.9c-5.1-3.4-7.2-2.8-8.8,2.7c-2,6.6-6.5,11.7-12.5,14.3c-2.6,1.1-3.2,2.3-2.6,4.8
		c0.3,1.2,0.4,1.2-0.9,0.5c-2.8-1.4-4.3-0.8-6,2.4c-3.1,5.7-7,9.6-13,12.9c-2.9,1.6-3.4,2-2.1,1.7c2.2-0.4,6.2,0.6,5.4,1.4
		c-0.1,0.1-0.7,0-1.4-0.3c-2.2-0.7-5.8-0.3-6.3,0.7c-0.2,0.3-0.1,0.4,1.2,0.8c4.2,1.2,12.8,7.2,12.8,8.9c0,0.2,1.3,0.7,1.8,0.7
		c1.5,0-2-4.9-4.5-6.3c-1-0.6-1.1-0.7-0.8-1c0.9-0.9,4.9,3.2,6,6c0.5,1.2,0.5,1.2,1.8,0.3c1-0.7,1.4-1.1,1.4-1.6
		c0-0.2,0.2-0.7,0.4-1.2l0.4-0.9l-0.8-1c-0.9-1.1-1.2-1.3-1.9-1c-1.1,0.4-2.6,0.1-3.4-0.7c-2-2.2-0.8-5.6,2.9-7.8
		c0.8-0.5,1-0.7,0.8-0.8c-0.4-0.3-1.5-0.7-2.6-0.9c-0.8-0.1-1.1-0.3-1.1-0.5c-0.1-0.7,2.4-0.2,4.1,0.7c0.9,0.5,0.9,0.5,1.7,0.2
		c1.2-0.4,2.4-0.6,3.3-0.6c0.9,0,0.9-0.1-0.1-1c-1-0.8-2.5-1.6-3.7-2c-0.6-0.2-0.9-0.4-1-0.6c-0.2-1.2,3.9,0.7,5.8,2.6l0.8,0.8
		l1.4,0.1c1.8,0.2,1.7,0.2,0.9-0.9c-1.5-2-3.8-3.9-5.3-4.5c-1-0.4-1.3-0.7-0.8-0.8c1.2-0.5,4.7,2.2,7.1,5.4l0.9,1.2l1.4,0.4
		c0.8,0.2,1.6,0.3,1.8,0.2c0.2-0.1,0.5-0.1,0.8-0.1c1,0,1.2-1.5,0.5-2.5c-0.5-0.6-1.9-1.6-4.6-3.2c-2.1-1.3-2.5-1.7-2-1.9
		c0.3-0.1,6,3.4,6.7,4.1c0.8,0.8,1.1,1.5,1,2.5c-0.1,1,0.2,1,1.4,0.4c1.5-0.8,1.9-2.7,1-4.6c-0.3-0.5-0.5-1-0.5-1c0,0,0.2,0,0.4,0.1
		c1.2,0.4,2.6,0,3.5-1.1c1.5-1.7-0.3-4.5-4.3-6.9c-1-0.6-1.8-1.2-1.8-1.3c0-0.5,0.4-0.4,1.4,0.2c1.2,0.7,1.1,0.7,1.1,0.3
		c0-1.2,1.3-3.2,3-4.6c1.9-1.6,2.3-1,0.4,0.7c-1.6,1.5-2.2,2.3-2.5,3.6l-0.3,1l0.4,0.3l0.4,0.3l0.4-0.9c1-2.5,4.1-5.6,4.7-4.7
		c0.1,0.1-0.1,0.3-0.3,0.5c-1.9,1.5-3,2.9-3.8,4.7l-0.4,0.8l0.5,0.4c0.6,0.5,0.7,0.5,0.7,0c0-1.7,3.8-7.1,5-7.1
		c0.6,0,0.3,0.5-1.1,1.9c-2.8,2.8-4,5.7-3,7.2l0.3,0.5l0-0.6c0-1.5,1.7-3.4,8.2-9.4c5.3-4.8,5.4-5.6,0.7-7.9
		c-1.1-0.6-1.6-0.9-1.6-1.1c0.2-0.9,4.6,1.6,5.3,3l0.4,0.7l0.3-0.8c0.4-1,0.6-3.1,0.2-4.1l-0.2-0.7l0.8,0.3c1,0.3,2,0,3-1
		c1.2-1.2,0.6-2.6-1.5-4c-1.1-0.7-1.4-1.1-1-1.3c0.1-0.1,0.4,0.1,0.8,0.3c0.7,0.4,0.7,0.5,1.6-1.8c1.7-4.3,5.6-11.2,6.3-11.2
		c0.5,0,0.5,0.3-0.4,1.6c-2,3.1-4.3,7.5-5.6,10.9l-0.5,1.4l0.4,0.4l0.4,0.4l0.5-1.6c0.8-2.7,3.2-7,4-7.3c0.7-0.3,0.6,0.3-0.3,1.6
		c-1.2,1.8-2.3,4-2.9,6.1c-0.3,0.9-0.6,1.7-0.7,1.8c-0.1,0,0,0.3,0.2,0.6l0.3,0.6l0.7-1.3c0.8-1.5,1.5-3.2,3-7.2
		c1.6-4.3,2.1-5.2,3.6-6.6c1.6-1.5,1.7-2.1,0.5-3.3c-0.8-0.8-2.8-1.8-3.8-2c-0.7-0.1-1-0.4-0.6-0.8c0.8-0.8,5.2,1.9,5.8,3.5l0.2,0.6
		l0.3-0.4c0.6-1,0.3-3.6-0.4-3.6c-0.1,0,0.1-0.1,0.5-0.2c3.5-0.7,1.9-3.5-2.4-4.2c-1.4-0.2-1.9-0.8-0.7-0.8c2.1,0,5.6,1.7,5.6,2.8
		c0,0.1,0.1,0.2,0.2,0.2c0.4,0,1-1.9,1.4-4c0.8-4.4,1.9-7.1,4-9.9c1.1-1.5,1.1-1.5,1.1-2.5c0-2.7-1.3-3.6-6-4.2
		c-1-0.1-1.2-0.8-0.3-0.7c3.8,0,7,1.8,7,3.9c0,0.6,0.3,0.6,0.6-0.1c0.3-0.9,0.3-2.4,0-3.3c-0.4-1.1-3.2-2.3-5.3-2.3
		c-0.7,0-1.1-0.3-0.9-0.6c0.3-0.4,3.2,0.1,5.1,0.9c1.1,0.5,2.5,0.4,3.5-0.3c1.4-1-0.6-3.1-3.8-4c-1.4-0.4-1.6-0.5-1.3-0.8
		c0.2-0.3,2,0.1,3.7,1c1,0.5,1.3,0.6,1.4,0.4c0.2-0.5-1-1.3-2.4-1.6c-1.1-0.2-1.1-0.6-0.2-0.7c0.5,0,0.9,0.1,1.8,0.5l1.1,0.6l1.2-5
		c1.5-6.2,1.5-6.1,2.6-6.8c1.9-1.2,0-2.9-3.8-3.5c-1.2-0.2-1.6-0.3-1.4-0.7c0.5-0.8,5,0.6,6.2,1.9l0.6,0.7l-0.1-1
		c-0.1-0.7-0.2-1-0.5-1.4l-0.4-0.4l0.7-0.6c1-0.9,1.1-1.5,0.6-3.8c-0.9-4.2,0-11.7,1.5-13.1c1.5-1.4-0.6-3-3.8-2.9
		c-2,0.1-2.4,0-2.1-0.5c0.3-0.3,3.2-0.5,4.2-0.3c1.1,0.2,2,0.8,2.3,1.5l0.3,0.6l0-0.6c0-0.8-0.4-1.7-0.9-2.2l-0.4-0.4l0.5-0.3
		c1.7-1,1.5-2.8-0.6-6.5c-0.8-1.3-0.9-1.7-1.1-4.7c-0.3-4.2-0.7-5.6-2.6-8.7c-1.1-1.8-1.3-2.7-1-4.6c0.3-1.7,0.2-1.8-0.7-0.9
		c-1,0.9-1.7,2-2.3,3.3c-0.5,1.1-0.9,1.4-1,0.7c-0.1-1.1,1.8-3.9,3.5-5.3l0.6-0.5l-0.2-0.6c-0.4-0.9-0.9-1.2-1.7-1.2
		c-0.5,0-0.7-0.1-0.7-0.2c0.9-2.3,0.5-4.9-0.7-4.9c-0.5,0-2.2,2-2.7,3.1c-0.4,0.9-1,1.3-1,0.6c0-0.5,1-2.3,1.8-3.2l0.7-0.8l-0.7-0.1
		c-0.4-0.1-1-0.4-1.7-0.9c-0.6-0.4-1.3-1-1.7-1.3c-1.5-1.1-7.3-3.7-9.3-4.2c-1-0.2-2-0.5-2.2-0.6c-0.6-0.3-1,2.9-0.6,4.8
		c0,0.2,0,0.3-0.3,0.4c-0.7,0.1-0.9-3.1-0.3-5c0.3-0.8-0.3-2.4-0.9-2.4c-0.7,0-1.8,3.5-1.5,5.1c0.2,0.9,0.1,1-0.3,1
		c-1.2,0-0.3-4.9,1.1-6.5C361.7,223.5,360.3,223.2,359.3,223.9 M150.6,225.7c-1.6,0.3-1.5,0.2-1.9,1.7c-0.5,1.7-0.6,1.6,1.1,1.3
		c0.7-0.1,1.7-0.2,2.2-0.2c0.8,0,0.9,0,1-0.5c0.1-0.3,0.2-0.7,0.2-1c0.1-0.3,0.2-0.8,0.2-1l0.1-0.5l-1,0
		C151.9,225.5,151,225.6,150.6,225.7 M137.6,225.7c-0.1,0-0.5,0.1-0.9,0.2c-0.7,0.1-0.8,0.1-1,0.9c-0.3,0.9-0.4,0.9,1,0.7
		c1.1-0.2,2-0.1,3.6,0.1c0.7,0.1,0.7,0.1,1-1.1C141.4,226.1,138.4,225.4,137.6,225.7 M136.4,228.2c-0.1,0-0.4,0.1-0.8,0.2
		c-0.6,0.1-0.6,0.1-1,1.3c-0.4,1.4-0.4,1.4,0.5,1.1c0.4-0.1,1.5-0.2,2.7-0.1l2,0.1l0.3-1.1c0.2-0.6,0.3-1.2,0.2-1.2
		C140.3,228.3,136.7,228.1,136.4,228.2 M188.3,229.1c-5,1.1-6.5,2.1-9.4,5.9c-2.5,3.3-4.4,5-9.9,8.9c-1.4,1-3.3,2.4-4.2,3
		c-1.8,1.3-3.8,2.4-4.8,2.6l-0.6,0.1l1,0.2c2.7,0.6,4.9-0.1,11.5-3.5c7.9-4.2,11.5-6.6,16-10.9C193.2,230.1,193.4,227.9,188.3,229.1
		 M150.8,229.3c-0.6,0.1-1.5,0.2-1.9,0.3l-0.8,0.2l-0.2,0.9c-0.1,0.5-0.2,1-0.3,1.2c-0.2,0.5,2.2,0.1,3.7-0.7
		c1.1-0.5,1.1-0.6,1.3-1.4C152.7,229.1,152.8,229.1,150.8,229.3 M211.4,230.5c-0.4,0.3-0.5,0.4-0.3,0.6c0.3,0.4,0.6,0.3,0.8-0.3
		C212.1,230.1,212,230.1,211.4,230.5 M209.4,231.9c-0.5,0.4-0.5,0.4-0.2,0.5c0.2,0.1,0.5,0.2,0.8,0.3c0.7,0.4,1.2-0.4,0.6-0.9
		C210.1,231.4,210,231.4,209.4,231.9 M221.5,232.3c-0.1,0.2-0.1,0.4,0,0.5c0.2,0.1,0.4-0.3,0.3-0.6C221.7,232,221.7,232,221.5,232.3
		 M207.7,233.3c-0.5,0.1-1.2,0.9-0.8,0.9c0.2,0,0.6,0.3,1,0.7c0.8,0.8,0.6,0.8,1.7-0.6C210.3,233.3,209.5,232.9,207.7,233.3
		 M220.4,234.1c-0.4,0.5-0.3,0.7,0.3,0.5c0.6-0.1,0.6-0.1,0.7-0.5C221.5,233.6,220.7,233.6,220.4,234.1 M205.1,235.3
		c-0.8,0.7-0.8,0.8-0.1,1c0.3,0.1,0.8,0.4,1.1,0.7l0.7,0.6l0.5-0.7C208.5,235.4,206.6,234.1,205.1,235.3 M220,235.6
		c-0.6,0.3-1.2,0.7-1.2,0.9c0,0.1,0.4,0.1,0.9,0c0.9-0.1,1.3-0.4,1.3-1.1C221,235.3,220.6,235.4,220,235.6 M350.5,236.6
		c0,0.2-0.4,0.5-1.3,0.9c-1,0.5-1.6,1-3,2.3c-1.5,1.5-2.1,1.9-2.1,1.4c0-0.1,0.4-0.7,0.9-1.3C346.8,237.8,350.5,235.6,350.5,236.6
		 M203.3,237l-0.5,0.5l0.6,0.3c0.3,0.2,0.8,0.5,1.2,0.8l0.6,0.6l0.5-0.6l0.5-0.6l-0.5-0.5c-0.3-0.3-0.8-0.6-1.1-0.6
		c-0.3-0.1-0.6-0.2-0.7-0.3C203.8,236.6,203.5,236.7,203.3,237 M135.8,237.6c-3.1,3.8-2.7,12.4,1,19.2c4.6,8.5,11.7,15.4,29.2,28.2
		c18.6,13.6,26.4,22.1,30.8,33.7l0.7,1.8l-0.1-1.7c-0.4-6.8-4.3-14.5-10.9-21.1c-4-4-6-5.6-21.8-17.1
		c-14.2-10.3-14.6-10.6-17.5-13.6c-5.7-5.7-7.4-10.6-6.2-17.2c0.9-4.6,0.7-5.8-1.7-8.5c-0.9-1.1-1.4-1.7-1.8-2.7
		C136.7,236.7,136.6,236.7,135.8,237.6 M367.6,237.6c2.1,0.7,5,2.7,4.7,3.2c-0.2,0.3-0.4,0.2-1.4-0.6c-2-1.6-4.3-2.4-6.9-2.4
		c-1.4,0-1.6,0-1.6-0.3C362.3,236.8,365.5,236.9,367.6,237.6 M218.9,237.5c-0.4,0.2-0.7,0.3-0.8,0.3c-0.1,0-0.4,0.2-0.6,0.5
		l-0.4,0.5l0.4-0.1c0.2-0.1,0.8-0.2,1.4-0.2c0.9-0.1,1-0.1,1.2-0.6C220.4,237.1,220,236.9,218.9,237.5 M201.8,238.6
		c-0.4,0.6-0.3,0.6,0.3,1c0.3,0.2,0.8,0.5,1,0.8l0.4,0.5l0.5-0.5l0.5-0.5l-0.4-0.5c-0.3-0.4-1.5-1.1-1.9-1.1
		C202.1,238.2,201.9,238.4,201.8,238.6 M191.2,239.1c-0.2,0.4-0.9,1.4-1.4,2.1c-1,1.2-1,1.3-0.7,1.6l0.3,0.4l0.3-0.6
		c0.3-0.7,1.5-2.2,2.1-2.9c0.5-0.5,0.5-0.5,0.2-1C191.6,238.2,191.7,238.2,191.2,239.1 M368.2,239.2c1.9,0.9,3.5,2.5,3,3
		c-0.1,0.1-0.4-0.1-1.1-0.8c-1.6-1.7-3.7-2.5-5.9-2.2c-1,0.1-1,0.1-1-0.2C363.2,238.2,366.4,238.3,368.2,239.2 M218.4,239.3
		c-1,0.2-2.4,1-2.9,1.7c-0.5,0.7-0.5,0.7,0.6,0.2c0.5-0.2,1.4-0.5,1.9-0.5c0.9-0.1,1-0.2,1.3-0.7
		C219.7,239.1,219.7,239.1,218.4,239.3 M191.7,240.8c-0.4,0.5-0.9,1.3-1.3,1.9l-0.6,1l0.5,0.6c0.7,0.7,0.5,0.8,3-2.6
		c0.2-0.3-0.5-1.7-0.8-1.7C192.5,240,192.1,240.4,191.7,240.8 M200.5,240.6l-0.4,0.6l0.5,0.3c0.3,0.1,0.6,0.5,0.7,0.7l0.2,0.4
		l0.7-0.7l0.7-0.7l-0.6-0.6C201.4,239.9,201,239.8,200.5,240.6 M199.2,242.6l-0.5,0.8l0.5,0.6c0.6,0.7,0.5,0.7,1.3-0.1l0.6-0.7
		l-0.3-0.4C200,241.8,199.8,241.8,199.2,242.6 M192.8,243.7c-1.2,1.6-1.2,1.8-0.3,1.7c1-0.1,1.4-0.6,1.5-2
		C194.1,242.2,193.9,242.2,192.8,243.7 M197.7,244.5c-0.7,0.9,0,1.9,0.8,1.1l0.5-0.5l-0.3-0.5C198.2,243.9,198.2,243.9,197.7,244.5
		 M196,246.6c-1.1,1.3-0.7,2,0.5,0.8c0.8-0.8,0.8-0.8,0.6-1.2C196.7,245.7,196.7,245.7,196,246.6 M145.2,246.5
		c-3.1,1.6-2.6,6.1,0.7,7l0.7,0.2l-0.6,0.4c-2.3,1.7-1.5,3.4,2.1,4.6c5.6,1.8,10.5,4.4,15.3,7.9c4.1,3,5.8,3.9,9.2,4.8
		c3.4,0.9,4.2,1.4,6.7,4.3c7.3,8.4,13.4,18,18.4,28.9c2,4.3,2.6,5.4,3.8,7c2.4,3,5.8,4.3,8.9,3.4c0.8-0.3,0.8-0.3-0.5-1.1
		c-4.3-2.8-7.1-7.4-11.1-17.6c-5.1-13.1-7.4-15.9-20.9-25.1c-9.5-6.5-15.1-11.2-21.2-18.2c-1.8-2-5.1-6.1-5.2-6.5
		c-0.1-0.3-0.4-0.3-0.6,0.1c-0.2,0.2-0.3,0.2-0.9-0.1C148.7,245.8,146.5,245.8,145.2,246.5 M194.2,248.5c-0.7,0.8-0.4,1.2,0.3,0.6
		c0.4-0.3,0.4-0.4,0.2-0.7C194.6,248.2,194.6,248.2,194.2,248.5 M385.2,250.7c0.4,3.7,0.9,6.8,1.9,10.3c0.6,2.2,0.6,3.1,0,2.3
		c-0.8-1.1-3.1-13.1-2.6-13.8C384.8,249,385.1,249.5,385.2,250.7 M192.2,250.7c-0.5,0.5-0.8,0.9-0.7,0.9c0.3,0,1.8-1.4,1.7-1.6
		C193.1,249.9,192.7,250.2,192.2,250.7 M175.3,251.4c-1.9,1.3-1.9,1.2-1.6,1.9l0.2,0.5l1-0.6c0.5-0.4,1.4-0.8,1.9-1l0.9-0.4
		l-0.3-0.7C177,250.2,177.2,250.1,175.3,251.4 M230.8,250.6c-0.4,0.2-2.9,2.3-3.6,3.2c-1.6,1.9-1.9,2.7-2.4,5.8
		c-0.5,3.4-1.2,5.2-4.6,11.9c-1.9,3.9-2.8,5.3-3.5,5.7c-0.7,0.4,0.9,0,1.8-0.4c3-1.6,9.8-12,12.1-18.4
		C232.8,252.7,232.8,249.9,230.8,250.6 M383.4,253.5c0.1,2.6,0.6,5,1.4,7.2c1,2.7,0.7,3.6-0.4,1.1c-1.6-3.8-2.4-11.2-1.2-10.5
		C383.2,251.3,383.3,252.3,383.4,253.5 M176.4,253.2c-2.2,1.1-2.6,1.7-1.8,2.6c0,0,0.4-0.2,0.9-0.5c0.5-0.3,1.3-0.7,1.9-1l1.1-0.5
		l-0.3-0.7C177.9,252.4,178,252.4,176.4,253.2 M382.5,255.3c0.3,2.6,0.6,4.9,1.1,6.4c0.4,1.5,0.3,2.2-0.2,1.6
		c-0.7-0.7-2-8.8-1.4-9.3C382.2,253.6,382.4,254.1,382.5,255.3 M177.1,255.3c-0.7,0.4-1.5,0.8-1.7,1l-0.4,0.3l0.4,0.8
		c0.2,0.5,0.7,1.1,0.9,1.5l0.5,0.7l0.7-0.6c0.4-0.3,1.1-0.8,1.6-1.1c0.5-0.3,0.9-0.6,0.9-0.6c0-0.3-1.2-2.7-1.4-2.7
		C178.5,254.7,177.8,255,177.1,255.3 M129.4,256.5c-0.1,0.4-0.1,0.8-0.2,1c-0.1,0.2,0.1,0.3,0.6,0.4c0.3,0.1,0.8,0.1,1.1,0.2
		c0.5,0.1,0.5,0.1-0.4-1.1C129.5,255.6,129.6,255.7,129.4,256.5 M178.9,259.1c-1.6,1.1-1.6,1.2-0.5,1.8c2.4,1.5,3.9-0.3,2.2-2.4
		l-0.3-0.4L178.9,259.1 M128.9,259.3c-0.2,1.3-0.2,1.3,1,1.5c0.6,0.1,1.8,0.4,2.7,0.7c2.2,0.8,2.4,0.5,0.9-1
		c-1.2-1.2-1.9-1.7-3.5-1.8l-1-0.1L128.9,259.3 M128.7,262.5l0.1,1.1l2,0.1c1.1,0.1,2.2,0.2,2.5,0.2c0.4,0.1,0.5,0.1,0.5-0.2
		c0-0.2,0-0.5,0.1-0.7c0.1-0.4-2.5-1.3-4.2-1.5l-0.9-0.1L128.7,262.5 M179.8,262.7c-0.3,0.2-0.3,0.2,1.2,0.6
		c1.7,0.4,3.7,1.4,4.5,2.3c0.7,0.8,0.7,0.8,1.3,0.3l0.5-0.4l-0.9-0.7C184.6,263.1,180.9,262,179.8,262.7 M178.1,264.2l-0.7,0.7
		l0.8,0c1.7,0,3.5,0.7,5.1,1.9c1.1,0.8,1.1,0.8,1.7,0.3c1.1-0.9-0.9-2.3-4.4-3.2c-0.9-0.2-1.6-0.4-1.7-0.4
		C178.9,263.5,178.5,263.8,178.1,264.2 M129.2,264.4c-0.3,0.1-0.4,0.1-0.1,1c0.3,1.3,0.3,1.3,1.9,0.8c0.7-0.2,1.7-0.5,2-0.5
		c0.8-0.1,0.8-0.2,0.7-0.7C133.5,264.6,130.7,264.2,129.2,264.4 M56.4,265.6c-2.8,0.9-3.4,3.4-1.8,7.5c1,2.6,1.1,3.2,0.7,4.8
		c-0.4,1.9-0.2,2.5,1.3,3.2l0.7,0.3l0.1-3.4c0.1-4,0.4-5.5,0.9-5.6c0.4-0.1,0.4-0.1,0.1,1.6c-0.4,2.1-0.5,4.1-0.3,6l0.1,1.8l0.7,0.3
		c0.8,0.4,0.8,0.5,0.6-1.3c-0.3-2.7,0-7.1,0.6-8.6c0.1-0.3,0.7-0.4,0.7-0.2c0,0.1-0.2,0.9-0.3,1.8c-0.7,3.2-0.5,8.8,0.3,9.2l0.5,0.2
		l0.1-3.2c0.1-4.3,0.8-7.4,1.6-7c0.2,0.1,0.2,0.3-0.1,1.4c-0.7,2.4-1,5.9-0.8,8.3c0.1,0.9,0.1,0.9,0.9,1.3l0.8,0.4l-0.1-2.5
		c-0.1-3.6,0.5-7.5,1.2-7.4c0.4,0.1,0.4,0-0.1,2.2c-0.4,1.8-0.5,5.7-0.3,7.3c0.1,0.7,0.2,0.8,1,1.2c1,0.5,1,0.7,0.7-1.5
		c-0.4-3,0.4-8.2,1.4-8.2c0.4,0,0.4,0.3-0.2,2.1c-1.1,3.5-0.4,9,1.1,9c0,0,0-1,0-2.2c-0.1-3.6,1-8.3,1.8-7.5
		c0.2,0.2,0.1,0.5-0.2,1.5c-0.9,2.6-1.2,6.5-0.7,8.3c0.1,0.3,0.7,0.7,1,0.7c0,0,0.1-0.9,0.2-2c0.2-3.5,1.6-7.9,2.3-7.2
		c0.1,0.1,0,0.7-0.4,1.8c-0.9,2.4-1.2,4.4-1.1,7.1c0,0.7,0.9,1.5,1.7,1.5c0,0,0.1-1.1,0.1-2.4c0-2.6,0.2-3.8,1.1-5.9
		c0.5-1.2,0.6-1.4,0.9-1c0.1,0.2,0.1,0.5-0.2,1.2c-0.9,2-1.4,5.5-1.1,7.6l0.1,0.9l1.1,0.5c1.5,0.8,1.5,0.8,1.4-1.6
		c-0.1-3.2,0.8-7.9,1.6-7.9c0.4,0,0.4,0.2-0.1,1.7c-0.8,2.3-1.1,5.8-0.7,8c0.1,0.7,0.9,1.5,1.5,1.5c0,0,0-0.5-0.1-1.1
		c-0.3-3,1.1-8.5,2.2-8.5c0.4,0,0.4,0.4-0.2,1.5c-0.9,1.8-1.2,3.3-1.2,5.7c0,2.8,0,2.8,1.4,3.5c1.4,0.6,1.3,0.7,1.1-0.9
		c-0.4-3.1,1-8.7,1.9-7.8c0.1,0.1,0,0.6-0.3,1.3c-0.8,2.3-1.1,5-0.7,7.3l0.2,1l1.1,0.5c1.5,0.7,1.4,0.8,1.3-1.4
		c-0.2-3.2,0.5-7.3,1.2-7.3c0.4,0,0.4,0-0.1,2.2c-0.4,1.7-0.5,5.1-0.2,6.8c0.1,0.7,0.9,1.4,1.7,1.4c0,0,0-0.4,0-1
		c-0.2-2,0.7-7.4,1.3-8c0.5-0.5,0.6,0.1,0.3,1.3c-0.7,2.3-1.1,7.3-0.7,8c0.1,0.2,1.7,1,1.9,1c0,0,0-1.1,0-2.4c0-3.5,0.7-6.9,1.3-6.9
		c0.4,0,0.4,0-0.1,2.1c-0.3,1.1-0.4,2.4-0.5,4.5l-0.1,2.9l1,0.5c1.6,0.8,1.8,0.8,1.7,0.3c-0.6-2.2,0.4-9.2,1.2-9.2
		c0.5,0,0.5,0.1,0.1,1.2c-0.7,2.4-1,6.9-0.5,8.6c0.1,0.3,1.3,1,1.6,1c0,0,0-1,0-2.2c0-3.6,1.1-7.6,1.9-7.1c0.2,0.1,0.1,0.4-0.3,1.7
		c-0.8,2.4-1.1,5.6-0.8,7.5c0.1,0.5,1.6,1.5,2.3,1.5c0,0,0.1-0.7,0.1-1.6c0-2.5,1-7.1,1.6-7.3c0.5-0.2,0.5,0.2,0.1,1.4
		c-0.7,1.9-1,3.8-1,5.9l0,2l1.1,0.5c1.5,0.6,1.4,0.7,1.4-0.9c0-2.3,1.3-7.3,2-7.8c0.4-0.3,0.6,0.3,0.4,0.9c-1.1,2.5-1.7,5.2-1.7,7.5
		l0,1l1,0.5c1.3,0.6,1.2,0.7,0.8-1.1c-0.5-2.6,0.7-7.4,1.9-7.4c0.4,0,0.4,0.3-0.2,1.4c-1.1,2.2-1.4,5-0.7,7.2
		c0.3,0.9,0.2,0.8,2.2,1.7c0.1,0.1,0.2-0.1,0-0.6c-0.6-2.6,0.6-7.8,1.7-7.8c0.5,0,0.5,0.2,0.1,0.8c-1.2,2-1.8,7.1-0.8,7.5
		c0.1,0,0.2,0.2,0.2,0.4c0,0.3,0.2,0.5,0.9,0.8c0.8,0.4,0.9,0.4,0.8,0.2c-0.8-1.9,0.5-9.1,1.5-8.8c0.4,0.1,0.3,0.5-0.2,1.8
		c-1.3,3.1-1.1,7.4,0.3,8.3c0.9,0.5,0.9,0.6,0.7-0.5c-0.3-2.4,1.1-7.4,2.1-7.4c0.5,0,0.4,0.5-0.1,1.3c-1.1,1.7-1.6,4.6-1.2,6.8
		c0.2,1.1,0.5,1.5,1.7,2.5l0.6,0.5l-0.1-2c-0.1-3,0.7-6.3,1.4-6.4c0.4-0.1,0.4-0.1-0.1,1.5c-1,3.2-0.9,7.2,0.1,8.1
		c0.4,0.4,2.1,1.2,2.3,1.1c0,0-0.1-0.6-0.2-1.3c-0.6-3.2,0.3-9.4,1.3-8.4c0.1,0.1,0,0.6-0.2,1.2c-0.8,2.5-0.8,6-0.1,8.1
		c0.2,0.6,0.3,0.7,1.3,0.9c1,0.3,1,0.3,0.9,0c-0.6-1.4,0.1-7.4,0.8-7.4c0.4,0,0.4,0.3,0.1,1.9c-0.8,3.8-0.1,6.8,1.6,6.8
		c0,0,0.1-0.5,0.1-1.1c0.1-2.1,1.5-4.3,3.2-5.3c1.1-0.7,1.5-0.1,0.4,0.6c-1.8,1.2-2.8,3-3,5c-0.2,2,0.2,2.3,0.9,0.8
		c0.8-1.6,2.5-3,3.4-2.8c0.6,0.1,0.5,0.5-0.3,0.8c-2.3,1-3.5,3.7-2.7,5.9c0.1,0.4,0.3,0.8,0.2,1.1c-0.1,2.5,4,3.1,6.7,1
		c0.4-0.3,0.6-0.4,0.6-0.3c0,0.4-0.5,1.6-0.9,2.2c-1.2,1.8,0.1,2.9,4.2,3.2c6.4,0.6,10.2-1.4,10-5c-0.2-2.7-1.8-4.1-7.1-5.9
		c-3.7-1.3-4.8-2.1-4.4-3.6c0.1-0.4-0.2-0.5,2.7,0.9c3.3,1.6,8.9,3.6,6.4,2.3c-1.2-0.6-1.5-1.5-1.5-4.8v-2.8l-0.8,0.3
		c-1,0.4-3.9,0.5-4.3,0.1c-0.6-0.5-0.2-0.6,1.8-0.6c2.1,0,3.5-0.4,3.5-1.1c0-0.3,0-0.3-0.6-0.1c-1,0.5-2.6,0.4-3.7-0.2
		c-1.4-0.8-1.1-1.4,0.4-0.7c1.9,1,4,0.3,3.9-1.2c-0.3-4.3-1.7-5.3-6-4.4l-2.3,0.5l-0.2,0.8c-0.2,0.6-0.2,1.1,0,1.7
		c0.2,1,0,1.4-0.5,0.9c-0.3-0.3-0.4-2.2-0.2-2.9l0.2-0.5l-1.6-0.1c-3.8-0.3-6.5-1.1-12.9-4.2c-1.8-0.9-14.7-6.8-28.7-13.2
		c-23.8-10.9-25.6-11.7-27.9-13.2C60.8,265.8,58.4,264.9,56.4,265.6 M177.7,265.6c0,0.1,2.3,1.9,3.6,2.7l1,0.7l0.6-0.4
		c0.9-0.6,0.7-0.9-1.1-2C180.6,265.9,177.7,265.2,177.7,265.6 M133.1,266.4c-0.5,0.1-3.2,0.9-3.2,1c-0.1,0.1,0.5,1.3,0.6,1.3
		c0.1,0,0.7-0.2,1.4-0.5s1.3-0.5,1.4-0.5c0.1,0,0.4-0.1,0.8-0.2l0.6-0.2l-0.3-0.5C134.2,266.3,133.9,266.3,133.1,266.4 M133.8,268.3
		c-0.9,0.2-2.7,0.9-3,1.1c-0.1,0.1,0.8,1.6,1,1.6c0.1,0,0.5-0.2,1-0.4c0.5-0.2,1.3-0.6,1.9-0.8c0.6-0.2,1-0.4,1-0.5
		c-0.1-0.2-0.7-1.2-0.8-1.2C135,268,134.4,268.2,133.8,268.3 M24.8,268.7c-3.4,1.1-4.7,3.3-3.4,5.5c0.3,0.5,0.2,1-0.2,0.9
		c-0.3-0.1-1-1.5-1.1-2.4l-0.1-0.8l-0.5,0.7c-0.6,0.8-0.4,2.2,0.4,3.8c0.6,1.1,0.6,1.3,0.2,1.3c-0.4,0-1.1-1.1-1.4-2.4
		c-0.1-0.5-0.3-1-0.3-1c0,0-0.4,0.3-0.7,0.8l-0.7,0.9l0.1,1.5c0.1,0.8,0.4,2.3,0.6,3.3c0.3,1,0.6,2.3,0.7,3c0.1,0.8,0.5,2,1.3,3.6
		c0.6,1.3,1,2.5,1,2.5c-0.3,0.4-0.6,0-1.3-1.4l-0.7-1.5l-0.1,1.3c-0.2,2.3,0.6,6.2,2.1,10.4c1,2.9,1,3,0.6,3c-0.5,0-2.1-4.3-2.7-7.5
		c-0.3-1.5-0.4-1.2-0.6,1.2c-0.2,2.7,0.7,5.4,3.1,9.5c0.9,1.5,0.9,2.1,0.2,1.7c-0.4-0.3-1.9-3-2.7-5c-0.4-0.9-0.7-1.7-0.8-1.7
		c-0.1,0.1,0.3,3.9,0.6,5c1.8,7.2,10.9,16.3,18,18c5.2,1.3,8.5,0,12.5-4.8c3.5-4.2,3.6-4.4,2.9-5.8c-1.3-2.5-3.2-2.7-6.8-0.5
		c-3.1,1.8-4.9,2.3-6.9,1.7c-0.7-0.2-1.7-0.5-2.3-0.6c-4.9-1.3-8.7-6-10.1-12.8c-1.4-6.4-1.1-12.2,0.8-16.3c0.4-0.8,0.7-1.9,0.8-2.4
		c0.3-1.8,0.8-3.3,2-5.7c1.7-3.6,1.5-5.6-0.5-6.6C28,268.6,25.6,268.4,24.8,268.7 M33,269.9c-0.5,0.5-0.7,0.9-0.8,1.5
		c-0.3,1.2-0.3,1.1,0.4,3.8l0.6,2.3l0.5-1.1c0.5-1.4,2.1-3.8,2.3-3.7c0.4,0.1,0.3,0.6-0.4,1.6c-1.7,2.5-2.4,5.3-2.2,8.5l0.1,1.6
		l0.2-1.3c0.6-3.6,2.8-8.6,3.7-8.2c0.4,0.1,0.3,0.2-0.5,1.6c-1.6,2.6-2.4,5.4-2.5,8.6c-0.1,2.6,0.2,3.8,0.3,1.5
		c0.3-3.2,2.1-8.1,3.1-8.2c0.5-0.1,0.5,0-0.5,1.9c-2.1,4.2-2.5,8.8-1.2,12l0.6,1.3l0.2-2c0.3-2.7,0.4-3.4,0.7-3.5
		c0.5-0.2,0.5,0.2,0.3,1.7c-0.4,2.7-0.3,5.6,0.4,6.8c0.5,0.8,2.5,3.9,2.6,3.9c0,0,0-1.1,0-2.5c0-3.5,0.6-6.1,1.3-5.5
		c0.2,0.2,0.2,0.3-0.1,1.2c-1.1,3.5-0.7,7.7,0.8,9.2l0.8,0.8l0-2.9c0-3.5,0.5-5.8,1.2-5.9c0.3,0,0.4,0,0.3,0.3
		c-0.6,2.2-0.8,3.5-0.8,5.9c0,3.5,0,3.4,1.7,4.7c2.2,1.6,2,1.7,1.9-0.8c-0.1-2.8,0.2-4.9,0.7-4.9c0.4,0,0.4-0.1,0.1,2.5
		c-0.2,1.5,0,4.3,0.2,5c0.1,0.2,2.7,1.7,3,1.7c0,0,0.1-0.9,0.1-2c0-1.8,0.1-2,0.3-2s0.3,0.2,0.4,2c0.1,2.5-0.1,2.3,3,3.5
		c0.2,0.1,0.2-0.3,0.3-1.2c0.2-2.5,0.9-2.5,0.8,0l-0.1,1.6l0.6,0.3c0.4,0.1,1.4,0.6,2.3,1.1l1.7,0.8l0-0.9c0.1-1.6,0.7-1.4,0.8,0.3
		c0,0.7,0.1,1.2,0.2,1.3c1,0.8,2.3,1.5,2.3,1.2c0-0.5,0.6-1.4,0.9-1.4c0.5,0,0.5,0.3,0.1,0.9c-0.6,1-0.5,1.3,1,2.6
		c1.6,1.4,3.5,3.3,7.6,7.7c2.8,3,5,5.1,6.9,6.5l0.9,0.7l0.8-0.6c1.5-1.1,4.4-2.1,4.9-1.6c0.3,0.3,0,0.5-1.1,0.7
		c-1.9,0.4-4,1.6-3.6,2.1c0.1,0.2,0.4,0.1,1-0.3c2.3-1.3,7.2-1.7,7.2-0.6c0,0.4,0.1,0.4-1.9,0.1c-1.7-0.2-5.1,0.7-5.1,1.3
		c0,0.5,0.9,0.6,1.7,0.3c2-0.8,6.3-0.2,6.4,0.9c0.1,0.5-0.2,0.5-1.1,0.1c-1.1-0.5-2.6-0.7-3.8-0.5l-1.1,0.2l-2,1.9
		c-1.6,1.6-4.2,4.9-4.2,5.4c0,0,0.4,0.1,1,0.1c1.7,0,2.2,0.4,6.3,4.8c3.1,3.3,4.9,3.4,7.9,0.1c2.1-2.3,3.4-3,2.9-1.5
		c-0.7,2-0.3,5.2,0.8,5.2c0.8,0,0.9-0.1,0.6-0.8c-0.8-1.9,0.1-5.8,1.5-6c0.5-0.1,0.5,0.4,0.1,0.9c-1.6,1.7-1.5,5.7,0.1,5.5
		c0.8-0.1,0.9-0.2,0.6-0.8c-0.5-1.6,0.2-4.6,1.2-5.2c0.6-0.4,0.6,0.2,0,1.2c-0.8,1.3-0.9,2.7-0.4,4.1l0.2,0.4l1.2-0.4
		c4.3-1.5,7-5.6,5.5-8.4c-0.3-0.7-1-1-2.5-1.3c-4.1-0.8-7.3-4.1-7.6-8l-0.1-1l3.2,3.3c2.1,2.2,3.2,3.2,3.3,3.1
		c0.3-0.3,1.9-2.6,1.8-2.7c0,0-0.3,0-0.7,0.1c-0.9,0.2-1.9,0.2-2,0c-0.2-0.3,0.2-0.5,1.2-0.6c1.7-0.2,2.1-0.4,2.4-1.1
		c0.4-0.8,0.3-0.8-0.5-0.4c-1.5,0.8-4.1,0.9-4.1,0.1c0-0.3,0.1-0.3,1.3-0.3c5.4,0.2,5.9-5.9,0.7-9.4c-2.8-1.9-7-2.4-10.1-1.2
		c-1.9,0.7-2,0.7-2,0.3c0-0.6,2.4-1.4,4.9-1.6c1.2-0.1,1.1-0.2-0.2-0.4c-1.5-0.2-4.6,0.1-6.6,0.6c-2,0.5-2.1,0.5-2.1,0.1
		c0-0.4,1.8-1,4.3-1.4c0.9-0.1,1.7-0.3,1.7-0.3c0,0-0.6-0.3-1.5-0.6c-2-0.7-4.6-0.5-7.2,0.6c-0.6,0.3-0.8,0.2-0.8-0.3
		c0-0.3,1.8-1,3.8-1.3l1.1-0.2l-1-0.4c-1-0.4-2.3-0.4-6.1,0.1c-0.9,0.1-1.2-0.5-0.3-0.7c0.5-0.1,3.3-0.4,3.8-0.4
		c0.2,0-0.7-0.6-2-1.3c-13-7.1-28-20.7-41.6-37.7c-3.5-4.4-6.7-6.7-9.5-6.8l-1.2-0.1L33,269.9 M135,270.5c-2.5,1-2.9,1.2-2.4,1.8
		l0.3,0.4l1.4-0.7c0.8-0.4,1.7-0.8,2-0.9c0.7-0.1,0.7-0.2,0.3-0.7C136.4,269.9,136.5,269.9,135,270.5 M136,272
		c-0.5,0.2-1.3,0.5-1.8,0.8l-0.9,0.5l0.3,0.5c0.5,0.7,0.6,0.7,1.4,0.2c0.9-0.5,2.5-1.2,3.1-1.2c0.4,0,0.4-0.1,0-0.7
		C137.7,271.6,137.3,271.5,136,272 M137.3,273.8c-1.2,0.4-2.5,1.1-2.5,1.4c0,0.5,0.4,0.6,1,0.1c0.9-0.7,1.5-1,2.7-1.2
		c0.9-0.2,1.1-0.2,0.9-0.4C139.2,273.4,138.5,273.5,137.3,273.8 M137.7,275.1c-0.4,0.1-1,0.5-1.3,0.8l-0.6,0.6l0.5,0.5l0.5,0.5
		l0.5-0.5c0.7-0.6,1.9-1.2,2.9-1.4c0.7-0.2,0.8-0.2,0.5-0.5C140.4,274.8,138.6,274.8,137.7,275.1 M254.1,275.4
		c-2.4,0.2-5.7,0.7-11.3,2c-11.2,2.4-21.2,3.2-29.8,2.1c-1.1-0.1-2.1-0.3-2.2-0.3c-0.1,0-0.1,0.2-0.1,0.4c0.1,0.3,0,0.4-0.7,0.7
		c-2.8,1-4,4.9-1.9,6.5c1.2,1,2.2-0.2,2.4-2.9c0.1-1.6,0.2-1.7,0.5-1.6c0.5,0.2,0.3,3-0.4,4.2l-0.5,1l0.7-0.1
		c1.1-0.1,1.9-2.1,1.9-4.7c0-1.2,0-1.3,0.3-1.3c0.7,0,0.6,2.1-0.1,4.6c-1.2,3.9,0.2,4.7,4.5,2.5c4.6-2.4,8.3-3.6,13.6-4.6
		c5.1-1,6.4-1.4,9-3.1c2.6-1.7,3.8-1.9,9.2-1.5c9.1,0.7,17.5,2.4,27,5.6c5.8,2,7.9,2.3,10.3,1.7c1.9-0.5,3.7-1.9,4.4-3.3
		c0.4-0.9,0.4-0.9-0.9-0.5c-4.2,1-9.1,0-18.1-3.6c-6.7-2.8-9.3-3.5-13.2-3.8C256.6,275.2,256.7,275.2,254.1,275.4 M386.9,276.7
		c0,0.1-0.2,0.7-0.3,1.3c-0.3,1.1-0.4,5.1-0.2,6.8c0.1,0.6,0,0.7-0.2,0.7c-1,0-0.9-6.9,0.1-8.8C386.4,276.3,386.9,276.3,386.9,276.7
		 M142.1,277.8c-1,0.5-2.6,1.8-2.6,2.1c0,0.2,2,1.7,2.1,1.5c0,0,0.3-0.4,0.5-0.9c0.3-0.5,0.8-1.2,1.2-1.7l0.7-0.8l-0.5-0.4
		c-0.3-0.2-0.5-0.4-0.5-0.4C142.9,277.3,142.5,277.5,142.1,277.8 M384.7,277.8c0,0.1-0.2,0.8-0.4,1.5c-0.4,1.4-0.4,3.8,0,4.9
		c0.1,0.4-0.4,0.6-0.7,0.2c-0.7-1.2-0.1-6.9,0.7-6.9C384.5,277.7,384.7,277.7,384.7,277.8 M143.9,279.4c-0.8,0.8-1.5,2-1.5,2.4
		c0,0.2,0.5,0.4,1.5,0.8l0.6,0.2l0.5-1c0.3-0.5,0.8-1.3,1.2-1.7l0.6-0.7l-0.5-0.1c-0.3-0.1-0.7-0.2-1.1-0.4l-0.6-0.3L143.9,279.4
		 M148.1,279.4c-0.7,0.4-1,0.7-1.9,2c-1.1,1.6-1.1,1.6,0.5,1.8c1.4,0.2,1.4,0.2,1.7-0.8c0.3-1,0.7-1.9,1.3-2.6
		c0.3-0.3,0.5-0.6,0.5-0.7C150.2,279.1,148.6,279.2,148.1,279.4 M150.3,280.3c-0.6,0.7-1.2,2-1.4,2.8c-0.2,0.8,1.7,0.2,2.4-0.7
		C152.4,280.8,151.5,278.9,150.3,280.3 M195.7,283.5c0,0.6,0.3,1.5,0.3,1.1c0-0.1,0.2-0.5,0.5-0.8l0.5-0.6l-0.5-0.1
		c-0.3-0.1-0.6-0.1-0.7-0.2C195.7,282.9,195.7,283,195.7,283.5 M197.2,284.2c-0.9,0.9-1,1.6-0.4,2.5c0.5,0.8,0.7,0.9,0.7,0.5
		c0-0.4,0.9-2.2,1.4-2.8c0.4-0.5,0.4-0.5,0.1-0.5c-0.2,0-0.6,0-0.8-0.1C197.8,283.6,197.6,283.7,197.2,284.2 M199.7,284.8
		c-1.7,1.9-2,3.4-0.7,4.7l0.9,1l0.1-0.9c0.3-1.7,0.9-3,2.3-4.4l0.8-0.8l-0.5-0.2C201.4,283.7,200.4,283.9,199.7,284.8 M26.7,285.2
		c-2.8,7.2-0.6,19.1,4.5,24c1.4,1.4,4.7,3.3,5.1,3c0.2-0.2-0.6-1.2-1.3-1.6c-5.3-2.7-9.8-15.8-8-23.3c0.2-0.7,0.3-1.6,0.2-2.1
		l-0.1-0.9L26.7,285.2 M295.3,285.2c-0.4,0.3-1.3,0.9-1.9,1.3c-3.2,2.1-3.4,3.2-1.2,5.8l0.8,1l0.5-0.8c0.6-0.9,1.6-1.5,2.4-1.5
		c1.2,0,4.4-1.9,4.4-2.5c0-0.2-0.3-0.8-0.8-1.3C297.4,284.5,296.7,284.2,295.3,285.2 M202.8,285.7c-1.4,1.5-2.6,4.6-1.9,5.4
		c1.1,1.4,5.6,3.4,9.2,4.2c8,1.8,16.6,1.3,33.2-1.7c13.4-2.4,15.8-2.7,23.3-2.7c8.3,0,12.8,0.8,18.4,3.2c2,0.9,2,0.8,0.4-0.5
		c-6.7-5.2-15.9-6.8-28.8-4.9c-1.6,0.2-8.3,1.4-15,2.7c-17.5,3.2-18.8,3.4-22.7,3.1c-5.6-0.5-9.2-2.3-11.9-6.2
		c-1.3-1.9-2.7-3.4-3.1-3.4C203.7,284.8,203.2,285.2,202.8,285.7 M27.3,290.2c-0.5,6,3.2,16.1,6.9,19c1,0.8,1.1,0.8,1.2-0.2
		c0.1-0.8,0.1-0.9-0.7-1.7c-2.7-3-4.6-7.2-5.3-11.3c-0.1-0.8-0.5-2.1-0.8-2.8c-0.3-0.7-0.7-2-0.9-2.8l-0.4-1.5L27.3,290.2
		 M302.2,291.3c-1.7,0.5-1.8,0.8-0.6,1.6c1.5,1,4.2,4.5,3.9,4.9c0,0.1-0.8-0.4-1.6-0.9c-6.5-4.3-10.1-3.4-5.6,1.4l0.9,1l-0.7-0.4
		c-2.2-1.1-4.7-1.5-5.3-0.9c-0.3,0.3-0.3,0.5-0.2,1.5c0.1,0.6,0.1,1.7,0.2,2.4l0,1.3l1.1,1.2c1.2,1.2,2.1,3,2.5,4.5l0.2,0.9l0.2-0.6
		c0.3-0.8,0.8-1.1,2-1.2l1-0.1l-0.9-1.5c-0.9-1.5-0.9-1.5-0.4-1.3c0.8,0.5,1.9,1.8,2.5,3c0.4,0.7,0.6,1,0.7,0.9
		c0.6-0.6,1.6,0,2.1,1.4c0.5,1.3,1,1.8,2.5,2.6c2.1,1.1,2.5,1.8,1.4,2.6c-0.8,0.6-0.8,1.1,0,2.3c0.5,0.8,0.6,1.2,0.7,2.4
		c0.2,1.9,0.8,2.9,1.7,2.9c0.3,0,0.3,0,0.6-1.4c0.4-1.8,1.7-2.7,3-2c0.2,0.1,0.2,0-0.1-0.7c-0.6-1.2-0.8-2.4-0.6-3.7
		c0.3-1.9,0.1-2.2-2.4-4.4c-1.3-1.1-1.8-1.8-1.7-2.5c0.1-1,1.8-0.1,3.6,2c0.5,0.6,1.6,1.8,2.5,2.7c1.7,1.8,1.7,1.8,1.3,3.6
		c-0.8,3.3,0.7,8.3,2.6,8.3c0.5,0,0.5,0,0.5-0.8c0-1.5,1.1-3,2.6-3.4c0.8-0.2,0.9-0.4,0.4-1.1c-0.4-0.5-0.4-0.5-0.1-1.6
		c0.7-2.6,0-4.4-2.7-6.6c-2.1-1.7-2.5-2.4-3.1-4.4c-0.2-0.5-0.5-1.4-0.7-1.8c-0.5-0.9-0.5-0.9,1,0.3c0.4,0.4,1.2,0.9,1.7,1.1
		c1.2,0.6,1.4,0.9,2.7,3.1c2.1,3.5,2.5,4.7,3,7.3c0.6,3.6,1,4.2,1.8,2.8c0.9-1.5,1.5-2,2.4-1.9l0.8,0.1l0-1.1c0-0.9-0.1-1.3-0.7-2.5
		c-0.4-0.8-1-2.6-1.5-4c-1.5-5-1.7-5.3-4-7.1c-2.3-1.8-3.9-3.2-5.5-5.1c-1.7-2.1-1.8-2.1-4-2.7c-1.2-0.3-2.5-0.9-4.8-2
		C305.3,291.3,303.7,290.9,302.2,291.3 M30.4,297.2c0.5,2.9,3,7.9,5,9.6l0.4,0.4l0.3-0.4c0.4-0.5,0.5-0.5-0.4-1.8
		c-0.8-1.3-1.6-3.3-1.6-4.3c0-0.5-0.1-0.7-1.3-1.7c-0.7-0.6-1.3-1.2-1.3-1.2s-0.3-0.4-0.6-0.8l-0.6-0.7L30.4,297.2 M34.9,301.2
		c0.3,1.4,1.5,3.9,2,4.1c0.3,0.1,0.3-1.5,0-2.2c-0.3-0.8-1-1.7-1.6-2.1l-0.5-0.3L34.9,301.2 M298.6,310.1c-0.6,0.6-0.5,1.9,0.3,3
		c0.7,1.1,1.1,2,1.4,3.9c0.6,3.2,0.6,3.2,1.5,0c0.8-3,0.7-4.3-0.4-6.2C300.6,309.6,299.3,309.3,298.6,310.1 M18.1,319.2
		c-2.2,0.4-1.8,1.2,1.4,3.3c4.1,2.6,12.1,5.2,13,4.2c0.3-0.4,0.3-0.4-2.4-0.9c-5-1-5.8-1.4-8.9-4.5c-1.3-1.2-2.3-2.2-2.3-2.2
		C18.8,319,18.5,319.1,18.1,319.2 M329.3,320.1c-1.4,0.4-1.2,1.3,0.5,3.1c1.2,1.3,1.7,2.2,1.6,3.5c-0.1,1.2,0.1,1.1,0.4-0.4
		c0.3-1.4,0.4-2.7,0.1-3.4c-0.1-0.3-0.2-0.9-0.3-1.4C331.3,320.2,330.5,319.8,329.3,320.1 M375.6,321c0,0.1-0.2,0.9-0.6,1.6
		c-1.4,2.9-2.8,7.8-2.8,9.4c0,0.9-0.6,1.1-0.8,0.3C370.9,330.5,375,319.5,375.6,321 M16.3,321.4c0,1,3.9,3.9,6.2,4.8
		c1,0.4,1.4,0.5,1.4,0.8c0.1,0.6-1.6,0.1-3.8-1c-1.2-0.6-1.1-0.6-1.1,0c0,0.5,0.9,1.1,2.5,1.7c0.5,0.1,0.6,0.3,0.6,0.5
		c0,0.4-0.8,0.3-2.1-0.3c-1.2-0.6-1.2-0.6-1.6,0.7l-0.4,1.2l1.6,0.8c2.5,1.2,4.5,1.7,8,2c0.8,0.1,1,0,1.5-0.3l0.6-0.4l-1.6-0.1
		c-2.9-0.2-5.8-1-5.8-1.5c0-0.4,0.2-0.4,2,0.1c1.6,0.4,3.9,0.8,5.3,0.8c0.9,0,1.1-0.2,1.9-2.4c0.5-1.3,0.5-1.2-0.1-1.2
		c-3.4,0-10.2-2.7-13.9-5.5C16.4,321.1,16.3,321.1,16.3,321.4 M322.3,321.5c-1.4,1.1-1.2,2.3,0.7,4.1c1.8,1.8,2.6,3.4,2.5,4.7
		c-0.1,1-0.1,1,0.6,0.2c1.6-1.8,1.5-2.8-0.5-6.6C324.2,321.3,323.3,320.7,322.3,321.5 M313.2,321.6c-0.6,0.4-0.5,1.4,0.3,2.4
		c0.8,1,1.1,1.8,1.1,2.8c0,1,0.2,0.9,0.6-0.3C316.3,323.7,314.8,320.4,313.2,321.6 M372.8,321.7c0.1,0.2,0,0.6-0.4,1.6
		c-0.7,1.6-1.4,4.2-1.7,5.9c-0.2,1-0.3,1.2-0.5,1.2c-0.7,0,0.5-5.4,2-8.4C372.4,321.4,372.5,321.4,372.8,321.7 M204.3,322
		c-0.7,0.3-1.3,1.2-1.7,2.7c-0.1,0.5-0.3,1-0.4,1.2c-0.1,0.3,0,0.3,0.9,0.3c1.3,0,1.6,0.1,2.7,1.2c1,1,3.1,2.1,4,2.2
		c1.3,0.1,2.3-5.1,1.1-5.7C208.5,322.6,205.1,321.7,204.3,322 M371,322.8c0,0.1-0.2,0.7-0.5,1.3c-0.7,1.4-1.6,3.7-1.8,4.8
		c-0.3,1.4-1.2,1.9-0.9,0.5C368.3,326.3,371,320.9,371,322.8 M197.5,329.1c-0.2,0.2-0.8,0.7-1.3,1.2c-0.5,0.5-1.2,1-1.5,1.1
		c-0.5,0.2-0.6,0.4-0.6,0.6c0,1.4-1,3.8-2.3,5.5c-0.5,0.7-0.7,1.1-0.5,1c0.9-0.5,1.7-0.1,2.5,1c0.6,0.8,0.6,0.8,1.5-1.2
		c0.6-1.2,0.7-1.3,0.7-0.9c0,1-0.5,2.8-1.1,3.8c-0.7,1.1-0.7,1.1-0.3,1.1c0.9,0,0.9,1.2,0.2,2.4c-0.9,1.4-1,1.8-0.9,3.9
		c0.1,2.6,0.1,2.7-1.7,2.3c-0.6-0.2-1,0.2-1.6,1.5c-0.4,0.8-0.7,1.2-1.6,1.9c-2,1.6-2.2,3.7-0.3,2.8c2-0.9,3.6-0.4,3.8,1.1l0.1,0.5
		l0.4-0.7c0.6-1.1,1.6-2,3-2.8c1.5-0.8,1.7-1.2,2-3.4c0.2-2.1,0.6-3.2,1.1-3.7c1.2-1.2,1.4,1.1,0.3,5.3c-0.4,1.5-0.7,3-0.8,3.4
		c-0.1,0.9-0.6,1.5-1.4,1.7c-1,0.3-2.2,1-3.2,1.7c-2.8,2.1-4.4,6.7-1.8,5.2c1.3-0.8,3.5-0.5,4.4,0.5c0.3,0.4,0.6,0.3,0.9-0.4
		c0.2-0.6,0.4-0.7,1.3-1c2.7-1,3.7-2.6,4-6.1c0.2-2.4,0.5-3.2,1.5-4.5c0.5-0.6,1.1-1.5,1.4-2l0.6-0.9l-0.1,1
		c-0.1,0.5-0.1,1.9-0.1,2.9l0,1.9l-1.3,2.5c-1.8,3.5-2.2,4.2-4.2,6c-1.6,1.5-2.6,2.8-2.4,3c0,0,0.8,0.1,1.7,0.1
		c1.7,0,2.4,0.4,2.4,1.2c0,1,1.7-0.3,3-2.3c0.5-0.8,1.7-2.4,2.6-3.5c3.1-3.8,3.3-4.2,3.5-7.4c0.1-2.5,0.6-5.1,1.3-7.3
		c0.6-2.1,0.6-2.6-0.1-4.7c-0.5-1.4-0.7-2.3-0.9-4.7c-0.6-5-1.3-6.9-3.2-7.8c-0.7-0.4-0.8-0.3-0.9,1.3c-0.1,1.7-0.6,3.4-1.3,4.9
		l-0.5,1l-0.1-2.8c-0.2-4.8-0.9-6.7-2.3-6.7c-0.8,0-1.4,1.1-1.9,3.4l-0.3,1.3l-0.3-1.4C199.8,329.6,198.8,328.3,197.5,329.1
		 M144.2,329.8c-1.8,4.8-5.1,5.8-8,2.4c-1.3-1.6-1.6-1.5-3.3,1l-0.9,1.3l0,2.8c0,2.9,0,3.1,1.2,6.8c2.8,9,2.8,14.5,0.3,27
		c-1.7,8.5-4.2,16.1-8.3,25.6l-0.3,0.6l0.6-0.1c6-1,7.4-2.6,12.6-14.8c0.5-1.2,1.3-2.9,1.7-3.8c0.4-0.9,1-2.2,1.4-2.9
		c1.2-2.5,2.8-7.4,2.6-7.7c-0.5-0.7-1.7,0.1-2.1,1.4c-0.2,0.8-0.4,1-0.7,0.8c-0.2-0.1-0.1-0.7,0.5-2.9c1.3-4.9,2.6-12,3-16
		c0.2-2.2,0.7-2.7,1.1-1c1.3,6.2,0.7,13.4-1.8,21c-0.4,1.1-0.7,2.4-0.8,2.9c-0.3,2.9-3.9,13.5-5.9,17.7c-1,2.2-1,2.2,0,1.7
		c2.1-1.1,2.3-1.4,7.5-13.1c7.5-16.7,8.6-27.7,4-39.1c-0.6-1.6-0.6-1.8,0.1-1.1l0.5,0.5l-0.1-0.6c-0.2-0.9-1.4-3.2-2.3-4.5
		c-0.9-1.2-1.1-1.6-0.6-1.7c0.7-0.1,3.1,4,3.7,6.3c0.3,1.1,0.8,1.8,1,1.6c0.2-0.2-0.4-2.6-0.8-3.8c-0.2-0.6-0.5-1.3-0.6-1.5
		c-0.2-0.5,0-0.9,0.4-0.7c0.5,0.3,1.8,4.1,1.9,5.4c0,0.3,0.1,0.8,0.1,1.1l0.1,0.5l0.5-0.9c1.4-2.6,0.5-5.4-2.4-8.2
		c-1.3-1.3-4.7-4.1-5.5-4.5C144.6,329,144.4,329.3,144.2,329.8 M142.6,330.5c-1.9,1.5-3.9,1.8-5.4,1c-0.7-0.4-0.9-0.5-0.7-0.2
		c0.9,1.1,1.1,1.4,1.6,1.8c1.5,1.1,3.6,0.1,4.9-2.3c0.2-0.4,0.3-0.7,0.3-0.7C143.3,330,143,330.2,142.6,330.5 M17.7,330.7
		c-0.9,2.5-0.1,6.3,1.2,5.7c0.7-0.4,1.2-0.3,1.2,0.1c0,0.2-0.1,0.3-0.2,0.3c-0.7,0-1,0.3-0.7,0.7l0.3,0.4l0.7-0.5
		c1.2-0.9,1.7-0.4,0.6,0.5c-0.7,0.6-0.8,0.8-0.5,1.2c0.2,0.3,0.3,0.2,1.1-0.5c1.2-1.1,1.6-1.3,1.8-1c0.1,0.2-0.2,0.5-1.2,1.5
		c-1.2,1.1-1.3,1.2-1.2,1.7c0.1,0.3,0.2,0.9,0.3,1.5l0.1,1l0.9-1.6c1.1-2.1,2-3.1,4.4-4.9c2.9-2.1,2.8-3.3-0.1-3.6
		c-2.6-0.3-5.3-1.1-7.5-2.1C18.2,330.8,17.8,330.6,17.7,330.7 M130.9,336.7c-0.5,1.2,0,4.1,1.4,7.7c0.5,1.4,1,2.4,1,2.4
		c0.1-0.1-0.1-0.6-1.2-4.3c-0.5-1.8-0.8-3.5-1-5.7l0-0.6L130.9,336.7 M129.6,339.5c-0.7,1.4,0.1,5,1.6,7.6l0.9,1.5l0.3-0.5
		c0.3-0.6,0.2-1.1-1.1-4.3c-0.5-1.1-1-2.7-1.1-3.6l-0.3-1.5L129.6,339.5 M190.7,340.1c-0.6,0.2-1.2,1-1.8,2.3
		c-0.5,1.1-0.9,1.6-2.2,2.9c-1.5,1.5-1.9,2.1-1.4,1.9c0.1-0.1,1.1-0.4,2.2-0.7c3-0.9,4.4-2,5.1-4.1
		C193,341.2,191.9,339.7,190.7,340.1 M361.6,341.7c0.1,0.2,0,0.6-0.6,1.5c-1.1,2-3.1,6.1-4,8.3c-1.1,2.8-1.1,2.8-1.4,2.8
		c-0.8,0,1.9-6.7,4.6-11.4C361.2,341.5,361.3,341.3,361.6,341.7 M128.4,342.2c-0.3,1.5,0.5,5.3,1.7,7.8c0.9,1.9,0.9,1.9,1.3,0.5
		l0.3-1l-0.8-1.4c-1.1-1.8-1.6-3.2-2-4.9C128.6,341.5,128.6,341.5,128.4,342.2 M73.9,342.8c-0.9,0.3-3.1,3.9-4.2,6.7
		c-0.2,0.5-0.6,1.7-1,2.7c-7.6,21.3-15.8,33.6-26.3,39.7c-1.3,0.8-1.3,0.7,0.3,1.4c3,1.2,5.7,1.6,7.4,0.9c0.6-0.3,1.2-0.5,1.1-0.5
		c0,0-0.7-0.2-1.5-0.3c-2-0.3-3.7-0.9-3.9-1.2c-0.2-0.5,0.2-0.5,1.2-0.2c6.7,2.3,12.3,0.5,20.6-6.5c4.3-3.6,6.3-6.4,10.6-15
		c1.5-3,2.8-5.6,3-5.7c0.4-0.5,0.4-0.5-0.9-1.4c-1.3-0.9-2.4-2.3-2.6-3.2c-0.2-1.2,0.4-1.4,0.7-0.2c0.3,1.1,2.7,3.4,3.4,3.4
		c0.1,0,1-1.3,0.9-1.4c0,0-0.5-0.3-1-0.6c-2.2-1.2-4.7-4.3-3.6-4.3c0.1,0,0.4,0.3,0.7,0.7c0.8,1.1,2.1,2.3,3.3,3l1,0.6l0.3-0.4
		c0.4-0.5,0.4-0.5-0.6-1.2c-1.7-1.1-3.9-4.2-3.9-5.2c0-0.3,1,0.3,2.8,1.6c4.7,3.5,7.4,1.9,6.7-4c-0.1-0.9-0.1-1.7,0-2.1l0.2-0.7
		l-1-0.7c-1.6-1-4-0.9-6.2,0.3c-0.7,0.4-0.8,0.4-0.9,0.2c-0.3-0.5,1.2-1.4,3.3-1.8c1.6-0.3,1.3-0.5-0.8-0.5c-2.5,0-4.3,0.5-5,1.3
		c-0.5,0.6-0.9,0.7-0.9,0.2c0-1.1,2-2,4.9-2.1l1.8-0.1l-0.7-0.5c-1.1-0.7-3.5-0.5-5.4,0.5c-0.9,0.4-1.3,0.4-1.3,0
		c0-0.5,3-1.6,4.2-1.6c0.7,0,0.6-0.2-0.8-1.1l-1.3-0.9l-2.1,0C75.2,342.7,74.1,342.7,73.9,342.8 M71.3,343.4
		c-0.7,0.3-1.4,1.1-2.5,3.5c-1,2-2.3,6.1-1.9,6.1c0.4,0,1.4-1.7,2.3-4.1c0.7-1.8,1.5-3.4,2.4-4.6C72.4,343.1,72.3,343,71.3,343.4
		 M358.6,343.5c0.1,0.1-0.3,0.7-0.7,1.3c-1.1,1.5-2,3.2-2.4,5c-0.5,1.7-0.9,2-0.8,0.6C354.7,347.9,357.9,342.4,358.6,343.5
		 M127,345.1l-0.5,1.1l0.6,1.7c0.9,2.5,2.8,6.2,3.3,6.2s0.3-1.5-0.2-2.3c-1.1-1.8-1.7-3.6-2.2-6l-0.4-1.8L127,345.1 M68,344.8
		c-1.6,0.8-2.9,3.1-3.3,6.1c-0.3,2.4-0.3,2.5,0.5,2.4l0.7-0.1l0.3-1.3c0.5-2.4,1.5-4.8,2.6-6.9C69.4,344,69.4,344,68,344.8
		 M64.2,347c-1,0.7-1.1,0.9-1.4,3.7c-0.3,2.3,0,3.5,0.6,3.2c0.3-0.2,0.3-0.4,0.4-2c0.1-1.8,0.4-3.3,1.1-4.8
		C65.4,346.2,65.3,346.2,64.2,347 M124.6,349.9c-4.6,9.5-5.4,17.2-3.9,36.2c0.2,2.7,0.5,6.3,0.6,8.1c0.1,1.8,0.3,3.3,0.3,3.3
		c0.3,0,2-2,2.8-3.2c2.1-3.3,2.9-6.6,3.2-13.1l0.2-3.7l-0.4-0.3c-1.7-1.1-3.2-3.8-2.1-3.8c0.2,0,0.4,0.2,0.5,0.7
		c0.2,0.7,1.5,2.3,1.8,2.3c0.1,0,0.2-0.9,0.2-1.9v-1.9l-0.6-0.1c-0.6-0.1-2.7-1.9-2.8-2.5c-0.3-0.8,0.3-0.7,1.4,0.5
		c0.9,1,1.9,1.6,2.1,1.3c0,0,0.1-0.9,0.1-1.9l0.1-1.9l-0.7-0.4c-1.3-0.8-2.8-2.7-2.6-3.3c0.2-0.4,0.4-0.3,1,0.7
		c0.6,0.9,1.9,2.2,2.3,2.2c0.1,0,0.2-0.6,0.2-1.3l0.1-1.3l-1.1-1.1c-1.5-1.5-2.4-3.5-1.7-3.5c0.2,0,0.4,0.3,0.7,1
		c0.5,1.1,2,2.7,2.1,2.3c0.5-0.9,0.3-2-0.4-2.8c-0.7-0.8-2.3-3.7-2.3-4.2c0-0.8,0.6-0.2,1.4,1.4c0.4,0.9,1,1.9,1.3,2.2l0.5,0.6
		l0.2-0.8c0.2-0.8,0.2-0.8-0.7-2.1c-1.1-1.7-2.4-4.4-2.2-4.6c0.3-0.4,0.6-0.1,1.1,0.9c0.6,1.4,2,3.8,2.1,3.6c0,0,0.2-0.6,0.3-1.2
		l0.2-1.1l-0.8-1c-0.9-1.2-2.1-3.6-2.8-5.5c-0.3-0.7-0.5-1.3-0.6-1.4C125.9,347.4,125.3,348.4,124.6,349.9 M61.7,348.9
		c-0.6,0.6-0.9,4.8-0.6,6.4l0.1,0.5l0.6-0.6l0.6-0.6l-0.2-0.8c-0.2-0.8-0.2-3.4,0.1-4.8C62.4,348.4,62.2,348.4,61.7,348.9 M58.2,352
		c-8.1,8-15.5,20.5-20.8,35.4c-1.2,3.3-1.2,3.2-0.1,3c3.2-0.4,5.1-2.7,8.7-10.3c2-4.2,2.1-4.4,1.9-5c-0.5-2-0.4-4.5,0.2-4.5
		c0.3,0,0.3,0.1,0.3,1.8c-0.1,2.4,0.1,2.5,1,0.7l0.7-1.5l-0.2-0.9c-0.3-1.2-0.3-4,0-4.2c0.4-0.3,0.6,0.2,0.5,1.6
		c-0.1,2.4,0.1,2.6,0.8,1.3c0.6-1.1,0.6-1.1,0.4-2.4c-0.2-1.5-0.1-3.8,0.1-4c0.4-0.4,0.6,0,0.6,2.1c0,2.3,0,2.3,1.2,0.2l0.8-1.3
		l-0.2-1c-0.3-1.4-0.2-3,0.2-3.1c0.2,0,0.3,0.2,0.4,1.6l0.2,1.6l0.7-0.9l0.7-0.9l0.1-2.3c0.1-2.6,0.2-2.9,0.7-2.9
		c0.3,0,0.3,0.1,0.2,0.5c-0.2,1-0.3,3.5-0.2,3.5c0.6,0,0.9-0.9,0.9-2.7c0-2.1,0.2-2.7,0.7-2.8c0.3,0,0.4,0,0.3,0.3
		c-0.2,0.7-0.3,3.1-0.1,3.1c0.1,0,0.4-0.3,0.8-0.8l0.6-0.8l0-3.2c0-1.8,0-3.2-0.1-3.2C60.3,350,59.3,350.9,58.2,352 M145.1,353.1
		c-0.2,1-0.1,1.4,0.1,1.4c0.3,0,0.3-0.9,0.1-1.7C145.2,352.5,145.2,352.5,145.1,353.1 M15.7,353.8l0,1.1l0.4-0.8
		c0.7-1.3,0.7-1.5,0.1-1.5h-0.5L15.7,353.8 M145,355.5c-0.4,0.5-0.7,1.9-0.3,1.7c0.1-0.1,0.4-0.1,0.6-0.1c0.3,0,0.3-0.1,0.3-0.9
		C145.7,355.2,145.5,355,145,355.5 M144.5,358.2c-0.1,0.1-0.2,0.5-0.3,0.8l-0.1,0.6l0.7-0.1c0.6-0.1,1.1-0.8,0.7-1.4
		C145.4,357.9,144.7,358,144.5,358.2 M189,358.8c-0.3,0.1-0.8,1.1-1,2c-0.1,0.5-0.5,1-1.1,1.6l-0.9,0.9l0.7-0.1
		c2.5-0.4,4.9-3.1,3.8-4.3C190.2,358.7,189.5,358.6,189,358.8 M144.3,360.6c-0.8,0.7-0.8,1,0.2,1.1l0.8,0l0.1-0.6
		C145.5,360.1,145.1,359.9,144.3,360.6 M143.5,362.5c0,0.2,0,0.5-0.1,0.6c-0.1,0.2,0,0.2,0.3,0.1c0.2-0.1,0.7-0.2,0.9-0.2
		c0.4,0,0.5-0.1,0.5-0.3c0-0.3-0.1-0.3-0.6-0.3c-0.3,0-0.7,0-0.8-0.1C143.6,362.2,143.5,362.2,143.5,362.5 M143.4,364.3
		c-0.7,0.8-0.7,1,0.3,0.9c0.8-0.1,0.9-0.1,1-0.5c0.1-0.2,0.1-0.5,0.2-0.7C145.1,363.6,143.9,363.8,143.4,364.3 M143.2,366
		c-1,0.5-0.9,0.9,0.2,0.9c0.8,0,0.9,0,1-0.4C144.5,365.8,144.1,365.6,143.2,366 M193.1,366.5c-0.5,0.4-0.7,0.9-1,2.5
		c-0.5,2.6-1.9,5-3,5c-0.1,0-0.3,0.1-0.3,0.1c0,0.3,2.6,0.4,3.1,0.1c1-0.5,3.8-5.1,4.1-6.7C196.3,366.3,194.2,365.6,193.1,366.5
		 M198.8,371c-0.4,0.3-0.6,0.8-0.8,2c-0.3,1.9-1.2,3.2-2.4,3.7c-0.9,0.4-0.4,0.4,0.6,0c2.1-0.8,4.7-3.1,4.7-4.2
		C201,371.6,199.5,370.5,198.8,371 M39.6,393.6c-0.5,0.3-1,0.6-1,0.7c0,0.3,5.3,2.5,6.1,2.4c0.3,0,2.9-1.3,2.7-1.3
		c-1.6-0.1-4.9-1.2-6.2-1.9l-0.7-0.4L39.6,393.6 M137.1,394.2l-1.3,0.6l-0.4,1.1c-0.6,1.8-0.3,1.9,1.6,0.3c0.5-0.4,1.7-2.5,1.5-2.6
		C138.4,393.6,137.8,393.8,137.1,394.2 M36.6,395.4c-0.5,0.4-1,0.7-1.1,0.7c-0.1,0.1,2.6,1.4,3.7,1.7c2,0.6,2.5,0.6,3.7,0l1.1-0.5
		l-1.7-0.6c-1-0.3-2.4-0.9-3.1-1.3C37.4,394.5,37.8,394.5,36.6,395.4 M131,396.1c-1.1,0.7-3,1.3-5,1.7c-0.8,0.1-1.5,0.3-1.5,0.3
		c-0.2,0.2-1.2,2.7-1.2,2.7c0.1,0.1,2-0.3,3.1-0.7c2.2-0.8,4.5-2.5,5.2-3.8C132.1,395.4,132.1,395.4,131,396.1 M33.7,397.7
		c-1.2,1.2-1.2,1.2,0.4,1.8c1.9,0.7,4,0.7,5.2,0.1c1.2-0.6,1.2-0.6,0.1-0.9c-1-0.3-3.1-1.1-4-1.6C34.7,396.6,34.9,396.5,33.7,397.7
		 M135.7,397.9l-1,0.6v0.9c0,0.9,0.3,1.3,0.7,0.9c0.1-0.1,1.5-3.1,1.4-3C136.8,397.4,136.3,397.6,135.7,397.9 M129.3,399.5
		c-1.3,0.8-3.2,1.6-5,1.9l-1.4,0.3l-0.3,0.7c-0.4,0.9-0.5,0.9,1.2,0.5c2.5-0.6,4.9-2,6.3-3.6c0.2-0.3,0.4-0.5,0.4-0.5
		C130.3,398.9,129.8,399.2,129.3,399.5 M300.5,399.8c1.7,1.3,2.9,2.3,4.1,3.7c1.1,1.3,1.1,1.3,2.4,1.7c0.7,0.2,2,0.6,2.8,0.9
		c1.9,0.7,1.9,0.6,0.6-0.6c-2-1.9-6.6-4.9-9.1-5.9C299.4,398.8,299.3,398.8,300.5,399.8 M298.2,399.9l0.1,0.6l-0.4-0.2
		c-0.6-0.3-1.8-0.5-1.9-0.3c-0.1,0.1,0.4,0.4,1,0.8s1.7,1.3,2.5,2c1.4,1.3,1.4,1.4,2.2,1.4c0.4,0,1.2,0.1,1.7,0.2
		c0.5,0.1,0.9,0.1,1,0.1c0.2-0.2-3.2-3.3-4.5-4.2C298.3,399.2,298.1,399.1,298.2,399.9 M31.6,400.1c-0.6,0.8-0.6,0.8,0.3,1.3
		c0.9,0.5,1.3,0.5,3,0c1.4-0.4,1.8-0.8,0.9-0.8c-0.3,0-1.1-0.2-1.9-0.5s-1.5-0.5-1.7-0.6C32.2,399.5,31.9,399.7,31.6,400.1
		 M320.5,399.6c0.5,1,0.9,1.4,1.2,1.1c0.4-0.4,0.4-0.8,0-1.1C321.3,399.5,320.4,399.4,320.5,399.6 M318.8,400.2
		c-0.4,0.2-0.8,0.4-0.8,0.4c0,0,0.3,0.5,0.8,1.1l0.9,1l0.5-0.6l0.5-0.6l-0.3-0.6C319.9,399.9,319.7,399.8,318.8,400.2 M293.9,400.5
		c-0.2,0.1-0.6,0.5-1,0.9l-0.7,0.7l1.5,0.7c0.8,0.4,1.8,0.9,2.1,1.1c0.6,0.4,1.1,0.5,3.2,0.1l0.6-0.1l-0.6-0.7
		c-0.8-0.8-2.4-2-3.5-2.5C294.4,400.3,294.4,400.3,293.9,400.5 M30.4,401.8c-0.4,0.4-0.2,0.6,0.5,0.4l0.6-0.1l-0.4-0.3
		C30.7,401.5,30.7,401.5,30.4,401.8 M291.3,403.3c-0.3,0.5-0.2,0.6,0.8,1c0.5,0.2,1.1,0.3,1.9,0.2l1.2-0.1l-1.6-0.8
		C291.9,402.7,291.6,402.7,291.3,403.3"/>
</g>
</svg>
