<svg id="Layer_1" xmlns="http://www.w3.org/2000/svg" viewBox="0 0 500 500"><style>.st0{fill:#ffffff}.st1{fill:none;stroke:#000;stroke-width:2;stroke-linecap:round;stroke-linejoin:round;stroke-miterlimit:10}</style><path class="st0" d="M265.1 84.3l-.1-.3c.1.1.1.2.1.3zM298.6 93.4l-.1.2c0-.1 0-.1.1-.2zM307.6 73.4c0-.1 0-.1 0 0z"/><path class="st0" d="M296.3 70.7c-2.6-.5-5.2-.8-7.8-.9-1.3-.1-2.6-.1-3.9-.1h-.1l-.1.1c0 .1-.1.1-.1.2l-.4.4c-.3.3-.8.6-1.3.8l-.5.2h-.3c-.2 0-.4-.1-.6-.2-.4-.2-.8-.5-1-.9-.2-.2-.3-.5-.4-.7l-.1-.2V69l-.2-1c-.8-5.7-1.2-11.3-2.5-16.9l-.3-1.1-.1-.3v-.1l-.1-.3-.3-1.2c-.2-.8-.3-1.6-.4-2.4.6-.4 1.2-.7 1.9-1.1.7-.4 1.4-.7 2-1.1 4.9-2.7 8.7-7 13.8-9.2 1.4-.6 2.8-1 4.2-1.6.7-.3 3.1-3.3 3.4-4.1.1-.4-2.4-.5-3.1-.5-2.3 0-5.7.1-7.3.5-3.2.7-4.7 1.1-7.6 2.5-2.7 1.2-5.3 2.5-8 3.7l-1 .4-1.3.6-2.8 1.3c-1.9.9-4 1.7-6.2 2.6l-.3 3c-.2 1.9-.3 3.9-.2 6 0 1 .1 1.9.1 2.9 0 .7.1 1.4.1 2 .2 2.7.6 5.4.4 8.1-.1 2.9-.4 5.9-.6 8.8v1.6c0 .6 0 1.3.1 1.9.1 1.3.2 2.6.4 3.9.4 2.6.8 5.2 1.3 7.8l.4 2.1v.4h.1l.5.1 1 .2 4 .8c2.7.6 5.4 1.1 8.2 1.7l1.1.2.5.1.3.1 1.1.3 2.3.5c1.5.3 3 .6 4.6.8 3 .4 6.1.7 9.1 1l4.6.5 1.1.1 2 .3 4.2.6 8.9 1.4c1.8-3 3.6-6.1 5.5-9.1l2.8-4.7 1.7-2.9c1.1-2 2.2-3.9 3.3-5.9l3.3-5.9 2.8-5 3.1-5.4c.6-1 1.2-2.1 1.8-3.1-2-2.8-3.9-5.6-5.9-8.5l-1.5-2.2-.7-1.1-.4-.6c-.1-.2-.1-.2-.2-.3l-1.4-2.4c-1.9-3.2-4-6.3-6.6-9.1-3-3.2-6.7-7.7-12.5-7.9-1.4 0-3.1.9-4.5 2 2.2-1.7.5 5.6.5 6.1 0 2.7.8 4.9 1.3 7.4.9 4.7.9 9.5 3.2 13.5.5 1 1.1 1.9 1.7 2.8l.9 1.4v.2c0 .2-.1.3 0 .4l-.3.3c-1.2 2.2-2.4 4.3-3.7 6.5-1.6 2.8-3.1 5.6-4.7 8.4l-.6 1.1-.1.1-.1.2c0 .1-.1.2-.1.3-.1 0-.2-.1-.3-.1 0 0-.1 0-.1-.1h-.1-.4c-1.2-.3-2.4-.5-3.6-.8-2-.8-4.4-1.4-6.9-1.8zM250.1 332.3s0-.1 0 0zM236.9 332.7v-.4.4zM231.5 364.2h-.1.1zM239.5 366c3.7.3 7.6-.7 11.3-3 3.6-2.4 6.3-5.9 9.5-7 3.4-1.1 6.8-1.8 9.9-3.9 3-2.1 6.3-2.8 9.7-3.6 3.3-.8 5.5-4.4 9.1-4.5.9 0 2 .1 3 .1.5 0 1.9-2.7 1.9-3.6 0-.5-2-1.9-2.5-2.3-1.8-1.2-4.3-2.9-5.4-3.3-2.2-.8-3.2-1.1-5.1-1-3.9.3-7.7.8-12.1-1-3.5-1.4-6.1.9-9.2.6-3.4-.4-6.9-1.7-9.7-1.1-.8.2-1.5.2-2.2.2-.8 0-1.4-.2-2.1-.3-1.4-.3-2.8-.6-4.2-.4-2.8.3-5.9.9-9.1.6-1.9-.2-3.8-.5-5.7-1-2.4-.6-5-1-7.6-1.2-2.6-.3-5.3-.5-7.9-.9-4.7-.8-8.9-4.7-13.8-4.2-2.6.3-6 0-9 6.4-.7 1.6-1.3 4.4-1.6 7 .6-4.2 2.2 4.9 2.3 5.3.9 2.6 2.1 3.9 3.1 5.7 2 3.6 3.7 8.2 6.2 9.5 5.3 2.8 10.8 3 16.3 3.7 4.7.6 9.6.8 14.9 1.6 3 .4 6.4 1.3 10 1.6zM292 169.3v-.2c0 .1-.1.2 0 .2zM266.8 193.9l-.1-.4c0 .2.1.3.1.4zM268.1 230.8l-.4.1c.3 0 .4-.1.4-.1z"/><path class="st0" d="M293.1 221.8c5.3-3.1 10.4-7 14.7-11.8 2.1-2.4 4.1-4.9 5.8-7.7.9-1.3 1.7-2.8 2.4-4.2.8-1.4 1.4-3 2.1-4.5 2.5-6.3 3.9-13.3 3.9-20.4 0-3.6-.3-7.2-1.1-10.8l-.3-1.3-.2-.7-.1-.5-.5-1.9c-.3-1.3-.7-2.6-1-4-.7-2.9-1.5-6-2.6-9.2-1.2-3.2-2.8-6.6-5.2-9.8l-.9-1.2c-.3-.4-.5-.5-.7-.8l-1.3-1.5-2.8-3.1c-1.9-2-4.1-4.1-6.4-6-4.7-3.8-9.9-7.5-15.3-10.4l-2-1.1-2.2-1-2.2-1-2.2-.8c-.7-.3-1.5-.6-2.2-.8l-2.2-.7c-1.5-.5-3-.8-4.5-1.1-5.8-1.2-11.7-.9-17.3-.1-5.6.8-11 1.9-16.5 2.5-1.5.2-3 .2-4.5.4-1.5.1-3 .3-4.5.6-.4.1-1 .4-1.9.8-.8.5-1.8 1.1-2.7 1.8-1.9 1.3-3.6 3-4 3.7-.4.7 4.4 1.2 5.7 1.5 1 .1 2.2.3 3.4.5l3.6.6c2.4.4 4.6.7 6 .9 2.9.2 5 .5 7.1.6 1 .1 2.1.2 3.2.2 1.1.1 2.3.1 3.7.1 11.4.4 22.5 3.2 28.8 11.2 2.6 3.2 5.2 5.7 8.1 8.9 1.4 1.6 2.9 3.3 4.4 5.1.7.9 1.4 1.9 2.1 2.9l.5.7.1.2v.1l.1.2c.1.2.2.5.3.8.8 2.4 1 6.4 1 11l.1 3.7v.5l-.1.4c-.1.3-.1.6-.1.8-.2 1.1-.5 2.4-.8 3.8-.3 1.5-1 3-2 4.6-.9 1.5-2.1 2.9-3.5 4.4-2.7 2.8-5.8 5.3-9.1 7.8-3.2 2.5-6.8 4.9-10.8 6.9-2 1-4 1.9-6.2 2.6-2.1.8-4.3 1.4-6.5 1.8-5.1 1-10 1.2-14.4.4-1.4-.2-2.7-.6-4-.9-.6-.2-1.3-.4-1.9-.6l-1.8-.6c-2.3-.9-4.5-2.1-6.7-3.6-4.2-3-8.1-7.6-11-13.2-1.3-2.5-2.2-5.3-2.9-8.1a25.3 25.3 0 0 1-.1-8.3l.1-.8c0-.3.1-.5.2-.8l.3-1.6c.1-.5.3-1 .4-1.5.1-.5.3-1 .4-1.5.1-.5.2-1 .4-1.5.1-.5.3-1 .4-1.5.2-.5.3-1 .4-1.5.6-2.2 1.6-4.6 2.5-7.4.2-.7.4-1.4.6-2.2.2-.7.3-1.5.4-2.4.3-1.6.4-3.7.3-5.8-.1-2.2-1.4-5.2-3-7.6 1.2 2-1 2-3.9 1.7-1.5-.1-3.1-.2-4.3-.3h-2.5c-.6.1-1.2.2-1.8.4-.6.2-1.2.4-1.7.6-1.1.5-2.2 1-3.3 1.7-1 .7-2 1.4-3.1 2.1-.5.4-1 .7-1.5 1.1l-1.5 1.2c-3.9 3.1-7.7 6.5-10.7 10.8-3 4.2-5.4 9.3-6 15.1-.6 6-.2 12.2 1.2 18.2.4 1.5.8 3 1.2 4.4l1.3 3.8 1.5 3.8 1.7 3.7c2.4 4.9 5.5 9.8 9.1 14.3 3.6 4.5 7.9 8.8 12.9 12.5 4.2 3.1 8.9 5.8 13.8 7.8 2.5 1 5 1.8 7.5 2.6 2.5.7 5.1 1.2 7.6 1.6 10.1 1.5 19.9.7 29-.9 5.4-1 10.8-2.3 16.2-4.1 5.5-2.1 10.9-4.4 16-7.3z"/><g><path class="st0" d="M379.7 248.2v-.4c0 .2-.1.3 0 .4zM353.3 275.4v-.4c-.2.1-.1.3 0 .4zM362.6 312.3l-.3.3c.2-.1.2-.2.3-.3z"/><path class="st0" d="M378.3 304.9l1.5-.3 1.8-.3c.3 0 .6-.1 1-.1h1l2-.1c1.4.1 2.8.1 4.1.1 2.7 0 5.4-.2 7.9-.3l7.4-.4 1.5-4.4 1.5-4.6c.9-3 1.9-5.9 2.5-9.1.6-3.2 1-6.4 1.1-9.7.1-1.7.1-3.3.1-4.9v-2.3l-.1-1.1c-.2-2.7-.3-5.9-.5-9.4-.1-1.8-.2-3.6-.4-5.5 0-.5-.1-.9-.1-1.3l-.2-1.3-.3-2.5-1.5-10.3-.2-1.3-.2-1.6c-.2-1.2-.3-2.5-.6-3.7-.4-2.5-.9-4.9-1.4-7.2-.6-2.5-1.1-5-2.1-7.2-.3-.5-.4-1.1-.8-1.6l-.9-1.5c-.3-.5-.6-.9-1-1.4-.4-.5-.9-.8-1.4-1.1-1.9-1.2-4.1-2.2-6.5-2.9-2.4-.7-4.9-1.3-7.4-1.6-2.5-.4-5.1-.6-7.6-.5-1.3 0-2.6.2-3.9.3-1.2.2-2.7.4-3.6.6l-9.3 1.8c-1.6.3-3.1.6-4.6.8-1.6.2-3.2.4-5 .5-3.3.4-6.6.7-9.9 1.1-2.7.2-6 .1-9.6.2-1.8.1-3.8.1-5.9.4-2.4.3-4.9.8-7.2 1.7-2.2.8-4.2 1.9-6 3.3-.9.7-1.8 1.5-2.6 2.3l-1.2 1.2-.6.6-.5.5c-1.1 1.4-2 2.6-2.7 3.5l-.9 1.1-.9.9c-2.3 1.9-4.7 3.7-6.8 4.7-.3.1-.5.2-.8.3l-1.1.4c-.7.3-1.5.5-2.2.7-1.5.4-3.1.8-4.7 1.1-3.3.6-6.7.9-10.1 1.3-1.6.2-9.4 4.4-10.8 5.8-.6.6 4.8 1.7 6.3 2 4.9.9 12.3 1.8 16 1.6 3.8-.2 6.5-.3 9.3-.8.3-.1.7-.1 1.1-.2l1.2-.3c.8-.2 1.6-.5 2.4-.7 1.6-.6 3.2-1.3 5-2.3 1.1-.6 2.1-1.1 3.1-1.7 1.9-1.1 3.8-2.7 5.2-4.1l2-1.9c.6-.6 1.2-1.2 1.7-1.5a10.51 10.51 0 0 1 6.4-2.7h1.7c.7 0 1.4 0 2.2.1 1.5.1 3.1.3 4.8.5 1.7.2 3.5.5 5.5.7l3.2.3 2.6.3c1.5.2 3 .3 4.4.5 1.5.1 2.9.2 4.5.2s3.3 0 5-.1c1.7-.1 3.4-.2 5-.4l2.5-.2 2.6-.3 2.4-.3c.7-.1.8-.1 1.2-.1 1.2-.1 2.5.1 3.5.6l1.5.9c.2.2.4.3.6.5l.3.3c.1.1.1.3.1.5-.1 1.4-.3 2.6-.6 3.5-.1.5-.3.9-.4 1.3v.7l-.1 1.1-.1 2.2c-.2 2.9-.4 5.9-.5 9 0 .7-.1 1.1-.1 1.8 0 .6-.1 1.2-.2 1.8-.2 1.2-.4 2.6-.6 4l-.8 4.5c-.3 1.4-.6 3.9-.7 3.5-.2.5-.4.8-.7 1.1-.1.1-.2.3-.3.4-.1.1-.2.3-.4.2-.4-.1-.6-.1-.9-.1-.1 0-.2.1-.3.1l-.1.1c.1 0-.3.1-.5.1l-.8.2c-2.2.5-4 .9-6.5 1.7-4.6 1.4-9.7 3.5-14 6.3-2.2 1.4-4.1 2.8-5.9 4.2-1.7 1.4-3.3 2.7-4.7 4l-4 3.5-2.2 2c-.8.7-1.6 1.4-2.3 2.1-3.6 3.4-7.3 7.1-10.6 11.4-3.3 4.3-6.2 9-8.6 14-3 6.3-4.7 12.9-5.8 19.1-.3 1.6-.5 3.1-.7 4.6-.2 1.5-.3 2.9-.5 4.4-.2 2.9-.4 5.9-.5 8.8-.4 11.6.5 23 1.6 34.1 1.1 10 1.7 19.8 2.7 29.4 1 9.6 2.3 19.4 5.5 29.1.8 2.6 1.7 5.4 2.8 8.3 1.1 2.9 2.2 5.4 3.3 7.4 1.1 2.1 2.2 3.7 3.4 5 1.2 1.3 2.6 2.3 4.2 3.7a18 18 0 0 0 3.2 1.9c1.3.6 2.7 1.2 4.1 1.7-2.2-.8-.4-2.1 1.7-4.6 2.1-2.4 4.2-5.9 4.4-6.4 1-2.7 1.4-5.7 1.5-8.5.1-2.9.1-5.7.3-8.3.9-10.3 3.7-19.6 2.8-29.8-1.9-21.7-5.7-42.1-4.9-61.7.1-2.1.2-4.1.4-6.2l.3-3 .3-2.8c.5-3.7 1.2-7 2.3-9.9 1.1-2.9 2.3-5.6 4.2-8.1 1.8-2.5 4.1-5 6.9-7.5.8-.7 1.7-1.5 2.6-2.2 1.1-.9 2.3-1.8 3.4-2.7 2.2-1.7 4.2-3.2 5.8-4.2 1.6-1 2.8-1.5 4-1.9.7-.2 1.3-.4 2.1-.6l.6-.1.6-.1.6-.1 1.1-.6z"/></g><g><path class="st0" d="M122.8 311.6h-1c.5 0 .8.1 1 0zM167.4 344.6h-.4.4zM204.9 356.8l.1.6c0-.3 0-.5-.1-.6z"/><path class="st0" d="M197 316.8c-1.8-4.5-3.9-9-6.9-13.5-2.9-4.5-6.4-8.7-10.6-12.5a52.48 52.48 0 0 0-14.9-9.5c-1.4-.6-2.9-1.1-4.3-1.6l-2.2-.6c-.2-.1-.4-.1-.4-.1h-.2l-.5-.1c-.6-.1-.6 0-.8.1h-.1l-.5-.2-.5-.2-.8-.3c-.3-.1-.5-.2-.8-.3l-1.2-.3-1.2-.3-.5-.1-.4-.1c-.6-.1-1.2-.1-1.7-.2h-1.6l-.8.1-.5.1c-.3 0-.5.1-.8.1-5.4 1-10.9 1.9-16.3 2.9l-1 .2-.5.1c-.1 0-.2.1-.2.1l-.9.3c-.6.2-1.3.4-1.9.6l-1 .3c-.4.1-.7.2-1 .3l-1.8.5c-.5.1-1 .3-1.6.4h-.4c-.1-.1-.2-.1-.2-.2-.1-.2-.2-.4-.2-.6-.4-.8-.7-1.6-.8-2.6-.2-.8-.3-1.7-.4-2.6 0-.4-.1-.9-.1-1.3V273.6c0-3.8.3-7.7.6-11.8.3-4.1.7-8.3 1.1-12.6l.2-3.3.1-1.7v-1.1c0-1-.1-2-.2-3.1s-.2-2.3.2-3.3c.4-1.1 1.3-1.7 2.4-2.1 1-.4 2.1-.4 3.2-.6l3.7-.3c4.3-.4 8.6-.8 12.9-1.1 4.2-.4 8.4-.7 12.5-1 2-.1 4-.3 6-.5l6.1-.6c2.1-.2 4.3-.6 6.6-1l1.7-.3.4-.1h.2l.4-.1c.6-.2 1.1-.4 1.7-.6 1.1-.4 2.4-.7 3.6-.5 1.2.2 2.1 1.2 2.9 2.1l1.2 1.4.8.9c.4.4.8.9 1.3 1.3 1.7 1.7 3.5 3.3 5.3 4.9 2 1.7 4 3.2 6.1 4.7 2.2 1.5 4.4 2.8 6.8 4 1.2.6 5 1.5 8.9 1.7 2 .1 3.9.1 5.5-.1s2.9-.4 3.5-.6c.6-.2-1-1-2.7-1.9-1.8-.9-3.8-2-4.7-2.5-2.8-1.6-6.2-3.9-9-6.3s-5.1-4.8-6.7-6.4c-1.6-1.6-2.8-3.1-3.9-4.5-.6-.7-1-1.4-1.5-2l-.3-.5-.2-.3-.2-.3-.9-1.3c-1.2-1.7-2.4-3.6-4.1-5.2-.8-.8-1.8-1.6-3-2.1-1.2-.6-2.5-.8-4-.9-3-.2-6 .5-9.1.9-2.3.2-4.5.3-6.9.3-4.9 0-9.8.1-14.7.1-5 .1-9.9.2-14.7.1-2.4 0-4.8-.1-7.2-.2l-1.8-.1-.9-.1h-1.1c-1.8 0-3.7-.2-5.6-.2-1.5 0-3.1 0-4.6.1-1.5.1-3 .3-4.4.7-2.8.7-5.5 1.9-7.8 3.9s-3.8 4.6-4.7 7.3c-1 2.7-1.4 5.8-1.6 9.1l-.3 4.9-.2 1.9-.1 1.4c-.2 1.9-.4 3.9-.7 5.9-.5 4-1.1 8-1.8 12.2-.5 3.2-1.1 6.6-1.4 10l-.3 2.6c0 .4-.1 1.1-.1 1.7l-.1 2c-.1 1.3 0 2.6 0 3.9v2l.1 2 .1 2c.1.7.1 1.3.2 1.9.2 1.3.3 2.6.5 3.9.2 1.3.3 2.7.7 3.8l.5 1.8.3.9c.1.3.2.5.4.8l.8 1.6c.3.5.5 1.1.8 1.5.6.9 1 1.8 1.7 2.7.2.2.4.5.5.7l.5.5 1 1 2.2 2.3H114c4.1 0 8.2-.1 12.3-.2l3.9-.1h16.9l-.1-4.2v-4.8-1.7-1.7l.1-1.5c0-.4 0-.8.1-1.2v-.1c-.2.5-.4 1.1-.7 1.7-11.3 24.4-3.1 6.8-5.7 12.2h-.1l.2.1.4.2.7.4c.5.2 1 .5 1.4.7l.7.3.6.2c.8.3 1.5.6 2.2.8.2.1.5.2.7.3 1.8 1 3.7 2.4 5.6 4.4 1.9 1.9 3.7 4.4 5.3 7 1.7 2.7 3.2 5.8 4.6 9.4 1.5 3.7 2.8 7.5 3.9 11.2 1.1 3.7 1.9 7.4 2.3 11 .3 1.8.4 3.6.5 5.4 0 1.8 0 3.5-.1 5.4-.1 2.2-.4 4.6-.7 7.1l-1 7.8a424.37 424.37 0 0 1-5.6 33.1c-.6 2.9-1.2 5.7-1.9 8.5-.6 2.7-1.5 5.9-2.3 9.6-.2.9-.4 1.9-.6 2.9l-.3 1.9-.3 2.2c-.2 1.5-.2 2.9-.4 4.4 0 1.4-.1 2.9 0 4.3a38.74 38.74 0 0 0 4.3 16.1c2.6 4.8 6.5 9 11.2 11.8 4.8 2.8 9.9 4.1 15.9 4l8.6-.1c12-.1 23.8.6 35.6 1.4 5.9.4 11.8.8 17.9 1 6 .2 12.2.2 18.4-.1 6.6-.4 14.5-.7 22-2.1 7.5-1.4 14.7-3.7 19.9-7.8 2.6-2 3.1-5.3 2.9-8.1.2 2.3-3.5 1.3-7.3-.4-3.8-1.7-7.7-4-8.3-4.3-6.3-2.5-13.2-3.4-19.7-5.2-12.7-3.5-23.8-8.5-37.5-9.6-8.3-.7-16.7-1.1-25.1-1.2-4.2-.1-8.4-.1-12.6-.1H194.1c-.1 0 0 0 0 0h.1c-.1 0-.3 0-.4-.1l-.3-.3c-.1-.1-.1-.3-.1-.4V443l.1-.5c.4-2.1 1-4.6 1.8-7.6.4-1.5.8-3.1 1.1-4.7.4-1.6.7-3.2 1-4.8 1.3-6.4 2.4-12.7 3.3-19 .9-6.2 1.6-12.4 2.4-18.5l1.1-9.1c.4-3.1.8-6.5 1-10.1.1-1.1.1-2.2.2-3.3.1-1.1.1-2.3.1-3.4 0-2.3 0-4.5-.2-6.8-.2-4.5-.8-9-1.5-13.3-.8-4.4-1.7-8.6-2.9-12.8-.6-2.1-1.2-4.1-1.9-6.1l-1-3c-.2-1-.6-2.1-1-3.2z"/></g><g><path class="st0" d="M407.1 185.2l-.3.3.3-.3zM427.1 149.9h.2-.2zM404.8 150.1l-.1-.2c0 .1.1.2.1.2z"/><path class="st0" d="M406.3 157.5c-.1 0 0 0 .2.2l-.1.1-.8.8c-.5.6-1.1 1.1-1.6 1.7-1 1.2-2 2.3-3 3.6-1 1.3-2 2.5-3 3.8l-1.5 1.9-.4.5c-.1.1-.1.1-.1.2v.1c0 .1-.1.3-.1.4-.1.3-.2.6-.4.9-.2.3-.3.7-.6.9-.3 0-.5.1-.9.1-.5 0-.9-.1-1.4-.2l-.8-.2-1.2-.3-2.4-.6-4.8-1.2c-3.2-.8-6.5-1.5-9.8-2-3.3-.5-6.6-1.2-9.8-2.1-1.6-.4-3.2-.9-4.8-1.4l-1.2-.4-.6-.2-.3-.1-1.2-.4-1.2-.3-.7-.1c-.1 0-.1-.1-.2-.2l-.1-.3c-.3-.8-.7-1.5-1.1-2.4-.1-.2-.2-.4-.3-.7l-.4-1.2c-.3-.8-.5-1.6-.7-2.4-.5-1.6-.8-3.2-1-4.8-.2-1.8-.3-3.5-.5-5.3-.1-.9-2.4-4.8-3.2-5.4-.4-.3-1.1 2.5-1.3 3.3-.6 2.5-1.3 6.4-1.4 8.3-.1 3.9-.1 5.6.5 9.4.5 2.5.9 5 1.3 7.5l.2 1 .1.5v.2c0 .1 0 .2.1.2l1.7.6 3.6 1.3 1.9.7.9.4c.3.1.7.3.9.3l2.7 1.2c1.8.8 3.6 1.7 5.4 2.7 5.8 3.2 12.5 4 18.6 6.4 1.7.7 3.3 1.4 5 2.1l2.5 1.1.3.1.5.2.9.3 1.9.7 1.9.7c.3.2.7.1 1 .2l1 .1 1.1.1h1c-.2-1.1-.1-.3-.1-.6l2-.4c1.4-.1 2.7-1 3.9-1.9l1.8-1.4 1.7-1.4c2.9-2.4 5.9-4.6 8.9-6.7l2.3-1.6 1.1-.8.6-.5 1-.8c2.7-2.2 5.4-4.4 8-6.7l1.9-1.7c.3-.3.7-.5.9-.8l-.4-1.2-1.8-4.9-3.4-9.1c-1.3-3.4-2.6-6.8-3.8-10.2-.7-2-1.4-4-2-6l-2.3-7.1c-.9-2.7-1.8-5.5-2.7-8.2l-6.1-2.1-5.3-1.8-6.5-2.1c-4.4-1.4-8.7-2.8-13.1-4.3-1.8-.7-3.6-1.3-5.4-2-2.1-.8-4.1-1.6-6.2-2.3l-8.7 5.4-1.1.7-.6.3-1.2.7-2.4 1.4c-3.2 1.8-6.2 3.8-9.1 6.2-4 3.3-9.6 7.4-10.6 13.6-.2 1.5.6 3.3 1.6 4.7-1.6-2.3 6.4-.8 6.9-.8 3-.1 5.7-1 8.5-1.6 5.4-1.1 10.8-1.3 15.6-3.9l2.4-1.3 1.2-.7.5-.3h.1c.2 0 .3.1.5.1l.3.3 2.4.9 2.7.9c3.7 1.2 7.3 2.4 11 3.6l5.2 1.7h.3l.1.2v.2l.2.5.7 2.1c1 2.8 1.9 5.5 2.8 8.3.9 2.7 1.7 5.6 2.5 8.4l.6 2.1c.2.5.1.3.1.4.3-.1.3-.1.2-.1z"/></g><g><path class="st0" d="M216.1 53.6l.1.2c0-.1 0-.2-.1-.2zM195.4 23.9l.1-.3c0 .1-.1.2-.1.3zM190.8 47.4l-.2.1c.2 0 .2-.1.2-.1z"/><path class="st0" d="M191.8 48.1c0 .1 0-.1.2-.1h.4l.1.2c.6 1.3 1.2 2.5 1.9 3.8 2.9 5.2 6.3 10.2 8.2 15.8.5 1.5.9 3 1.4 4.4l.7 2.2.2.6.1.4.2.5c.5 1.3 1 2.6 1.9 4.2.1.2.2.3.3.5-1 .7-2.4 1.3-3.9 1.8l-1.1.4-1.8.6c-1.4.4-2.8.9-4.2 1.3-5.8 1.7-10.9 5.3-16.9 6.5-1.6.3-3.2.5-4.8.8-.8.1-4.1 2.6-4.7 3.4-.2.4 2.4 1 3.1 1.1a35.48 35.48 0 0 0 16.4-.1c3.5-.8 7-1.7 10.5-2.4 1.8-.4 3.5-.7 5.3-.9 1.3-.2 2.5-.5 3.8-.7 1.4-.2 2.8-.5 4.2-.7 3.5-.6 7.1-1.5 10.6-2.6-.7-2.8-1.6-5.6-2.4-8.5-.8-2.8-1.6-5.7-2.2-8.6l-.2-.9-.1-.6-.2-1.2-.3-2.4-.6-4.7c-.5-3.2-1-6.3-2-9.3-1-3.2-1.7-6.5-2.4-9.9l-.3-1.3-.6-2.3-1.2-4.6c-.8-3.1-1.7-6.2-2.6-9.2l-1.9-5.9-14.9 5-7 2.3c-1.3.4-2.6.9-4 1.3-3.7 1.1-7.5 2.2-11.2 3.2-1.5.4-3.1.8-4.6 1.3-1.7.5-2.5.7-5.9 1.8-5.6 1.8-11.3 3.6-16.9 5.3 1.4 6.3 2.9 12.6 4.2 18.8l.3 1.5.2.8.3 1.6c.2 1.1.3 2.2.5 3.3.2 2.2.5 4.4.7 6.6.5 4.4 1.1 8.7 2.4 13 1.4 4.5 2.9 10.7 8.2 13.6 1.3.7 3.2.6 4.9.2-2.8.6 1.9-5.7 2-6.2 1.1-2.6 1.3-5.2 1.9-7.8 1.1-5 3.1-9.7 2.6-14.7-.4-4.5-1.1-8.8-1.9-13.2l-.3-1.6-.1-.4v-.1-.2c0-.1-.1-.2-.1-.3.1 0 .1-.1.2-.1s.2-.1.3-.1l6.2-2c4.2-1.4 8.4-2.7 12.6-3.9 1.3-.4 2.6-.7 3.8-1l.2-.1h.1l.1.1c.2.1.2.3.1.4z"/></g><g><path class="st0" d="M127.9 163zM107.5 167.6v-.2.2zM106.3 189.6l-.2.1c.1 0 .2-.1.2-.1z"/><path class="st0" d="M118.4 187.7c2.7-.6 5.4-1.3 8-2.2 1.3-.4 2.6-.9 3.9-1.5l.2-.1c.1 0 .1-.1.3-.1l.9-.3 1.8-.6 3.6-1.3c2.4-.9 4.7-1.7 6.8-2.6l2.8-1.5 1.4-.7.7-.3.3-.2c.1-.1.2-.1.2-.2 1.1-1.2 2.1-2.2 3.1-3 .5-.4 1-.8 1.6-1.2l.8-.6c.1-.1.4-.2.4-.4l-.3-.6c-1.7-3.1-3.3-6.2-4.9-9.3l-.2-.3c0-.1-.1-.2-.2-.3l-.6-.7-1.2-1.3-2.4-2.6c-1.6-1.7-3.3-3.4-4.9-5l-1.2-1.2-.3-.3-.2-.2-.4-.4-1.6-1.6c-1-1.1-2.1-2.2-3-3.3-2-2.2-3.8-4.6-5.8-6.9-3.7-4.6-8.8-7.8-12.1-12.7-.9-1.3-1.6-2.7-2.4-4-.4-.7-3.9-2.7-4.9-2.9-.4-.1 0 2.6.1 3.3.4 2.4 1.3 5.8 2 7.4 1.4 3.2 2 4.6 4 7.4 4 5.7 8.1 11.2 11.2 17.7.6 1.3 1.4 2.5 2.2 3.7l.6.9.3.4.1.2c.2.2.3.5.5.7.7.9 1.6 1.8 1.8 2.6.1.4.1.8 0 1.1 0 .1-.1.3-.2.4 0 .1-.1.1-.1.1s0 .1-.3.1c-1.6-.1-2.6-.3-3.1-.1-.6.2-1.5.1-2-.1h-.1l-.6-.1-1.2.2-2.4.4c-1.6.3-3.2.6-4.8 1.1-3.1.8-6.2 1.8-9.3 2.7l-4.6 1.3-2.3.6-1.7.4c-.6.1-1.3.2-1.7.1-.3-.1-.6-.1-.9 0h-.2-.1v-.1l.1-.3.1-.6c.1-.4.2-.9.4-1.3.1-.1.2-.3.3-.4l.6-1.3.7-1.4c.9-1.9 1.9-3.8 2.9-5.7 1.9-3.8 3.8-7.6 4.9-11.8 1.2-4.4 3.3-10.3.4-15.5-.7-1.3-2.4-2.2-4-2.8 2.6 1-4.6 3.7-5 3.9-2.3 1.5-3.9 3.5-5.7 5.3-3.6 3.4-7.8 6.2-10.1 10.4a122.67 122.67 0 0 0-4.8 10.3l-.4.9-.3.7-.3.9-1.3 3.4c-1.7 4.5-3.5 9.2-4.9 13.6l-.5 1.7c-.2.5-.4 1.1-.3 1.6l-.1 1.4V184c.1 1.6.1 3.2.2 4.8l.1 3.5v1.9l.2 1.8 7.2-.3c1.2-.1 2.5-.1 3.9-.2l2-.1 1-.1c.3 0 .7-.1 1.1-.2 6-1.2 12-2.6 18.1-4l1.6-.4.9-.2c.6-.1 1.3-.2 1.9-.4 1.3-.2 2.6-.5 3.9-.7 2.6-.7 5.2-1.2 7.8-1.7z"/></g></svg>
