<?xml version="1.0" encoding="utf-8"?>
<!-- Generator: Adobe Illustrator 22.1.0, SVG Export Plug-In . SVG Version: 6.00 Build 0)  -->
<svg version="1.1" id="Layer_1" xmlns="http://www.w3.org/2000/svg" xmlns:xlink="http://www.w3.org/1999/xlink" x="0px" y="0px"
	 viewBox="0 0 500 500" style="enable-background:new 0 0 500 500;" xml:space="preserve">
<style type="text/css">
	.st0{fill:#231F20;}
	.st1{fill:none;stroke:#000000;stroke-width:2;stroke-linecap:round;stroke-linejoin:round;stroke-miterlimit:10;}
</style>
<g>
	<g>
		<g>
			<g>
				<path class="st0" d="M268.7,80.7l-0.1-0.3C268.7,80.5,268.7,80.6,268.7,80.7z"/>
				<path class="st0" d="M299.2,89.1l-0.1,0.1C299.2,89.2,299.2,89.1,299.2,89.1z"/>
				<path class="st0" d="M306.9,78.1l0.2,0C307,78.1,307,78.1,306.9,78.1z"/>
				<g>
					<path class="st0" d="M295.5,75.8c-5.2-0.9-10.4-1.4-15.6-1.5c0,0-0.1,0-0.1,0l0,0l-0.1,0l-0.1,0.1c-0.1,0-0.2,0.1-0.3,0.1
						c-0.2,0.1-0.5,0.2-0.8,0.3c-0.2-0.1-0.3-0.2-0.5-0.4c-0.1-0.1-0.2-0.2-0.3-0.3l-0.1-0.2c0,0-0.1-0.1-0.1-0.2l-0.1-0.3
						c-0.2-0.8-0.5-1.7-0.6-2.3c-0.2-0.9-0.3-1.8-0.4-2.7c-0.7-5.7-1.1-11.4-2.1-17c-0.3-1.5-0.5-3-0.7-4.5l-0.2-1.3l-0.1-1.2
						c0.6-0.4,1.2-0.7,1.8-1.1c1.1-0.6,2.2-1.3,3.4-1.9c4.8-2.8,9-6.5,14-8.9c1.3-0.7,2.7-1.3,4-1.9c0.7-0.3,3.4-2.8,3.8-3.5
						c0.2-0.3-2.1,0.1-2.7,0.2c-2,0.4-5.1,1.2-6.5,1.7c-3,1.1-4.4,1.6-7.2,3.1c-2.6,1.4-5.2,2.7-7.8,4c-3.2,1.6-6.4,3.2-9.6,4.8
						c0,1,0,2.1,0,3.1c0,1,0,2,0,3l0,1.1l0,1c0,1.3,0.2,2.7,0.3,4c0.2,2.7,0.5,5.4,0.6,8.1l0,8.7l0,2.3c0.1,1,0.1,1.8,0.2,2.6
						l0.1,0.6l0.1,0.8l0.3,1.9l0.7,3.9c0.1,0.8,0.3,1.6,0.4,2.4c2.6,0.4,5.1,0.8,7.7,1.3l1,0.2l0.5,0.1l1.1,0.2l2.1,0.4
						c2.8,0.6,5.6,1.1,8.5,1.5c6.1,0.8,12.2,1.5,18.2,2.4l8.7,1.4l2.7-4.6l1.4-2.3l0.9-1.5c2.4-3.9,4.6-7.8,6.8-11.7l3.3-5.9
						l4.5-7.9c0.6-1,1.2-2.1,1.8-3.1c-1-1.4-2.1-2.8-3.1-4.2l-1.5-2.1l-0.4-0.5l-0.2-0.3l-0.4-0.6c-1-1.5-2.1-3.1-3.1-4.6
						c-2.1-3.1-4.2-6.1-6.7-9c-2.8-3.3-6.5-7.9-10.7-9.2c-1-0.3-2.1,0.1-2.8,0.7c1.3-1,1.6,4.8,1.6,5.2c0.5,2.2,1.6,4.3,2.5,6.5
						c1.6,4.1,2.7,8.2,5.2,12c1.2,1.8,2.4,3.6,3.7,5.4l0.9,1.3c0.2,0.3,0.2,0.2,0.2,0.3l0,0.1c0,0.1,0,0.1,0,0.2
						c-0.1,0.1-0.1,0.1-0.1,0.2l-1.6,2.8c-1.3,2.2-2.6,4.5-3.8,6.8l-4.7,8.4l-2.4,4.2l-0.2,0.4l-0.2,0l-0.1,0l0,0l0,0l-0.3-0.1
						C305.4,77.7,300.5,76.7,295.5,75.8z"/>
				</g>
			</g>
		</g>
	</g>
	<g>
		<g>
			<g>
				<path class="st0" d="M251.7,341.2l0.1,0C251.8,341.2,251.8,341.2,251.7,341.2z"/>
				<path class="st0" d="M236.5,342.1l0-0.1C236.5,342,236.5,342,236.5,342.1z"/>
				<path class="st0" d="M232.3,353.8l-0.1,0C232.2,353.8,232.3,353.8,232.3,353.8z"/>
				<g>
					<path class="st0" d="M239.5,354.7c3.3,0.1,6.7-0.3,9.9-1.5c3.3-1.2,6.2-2.9,9.3-3.7c3.3-0.9,6.6-1.7,9.7-3.1
						c3.2-1.4,6.3-2.2,9.6-3.2c3.2-0.9,5.9-2.9,9.1-3.7c0.9-0.2,1.7-0.3,2.6-0.5c0.4-0.1,2.2-1.6,2.4-2.1c0.1-0.2-1.4-0.5-1.8-0.5
						c-1.3-0.2-3.3-0.4-4.2-0.4c-1.9,0.1-2.8,0.2-4.6,0.6c-3.8,0.9-7.4,1.8-11.3,1.9c-3.2,0-6.1,1.5-9.2,1.8c-3.3,0.4-6.7,0.4-9.9,1
						c-1.7,0.3-3.4,0.4-5,0.4c-1.7,0-3.3-0.1-5,0c-3.3,0.2-6.7,0.3-10.1,0c-2-0.2-4-0.5-6-0.8c-5.1-0.9-10.4-1.3-15.6-2.1
						c-4.7-0.7-9.2-2.6-14-2.8c-2.5-0.1-6-0.5-8.4,1.8c-0.6,0.5-0.9,1.6-1,2.6c0.2-1.6,2.5,2.1,2.7,2.3c1.1,1.1,2.4,1.7,3.6,2.5
						c2.3,1.6,4.3,3.5,6.9,4.2c5.4,1.5,10.9,2,16.5,2.8c4.7,0.6,9.5,1.1,14.4,1.7C233.2,354.1,236.3,354.6,239.5,354.7z"/>
				</g>
			</g>
		</g>
	</g>
	<g>
		<g>
			<path class="st1" d="M253.5,344.8"/>
		</g>
	</g>
	<g>
		<g>
			<g>
				<path class="st0" d="M308.7,172.3l0.1-0.3C308.7,172.1,308.7,172.2,308.7,172.3z"/>
				<path class="st0" d="M273.7,208.7l0-0.2C273.7,208.6,273.7,208.6,273.7,208.7z"/>
				<path class="st0" d="M266.7,226.1l-0.4,0.1C266.6,226.2,266.7,226.1,266.7,226.1z"/>
				<g>
					<path class="st0" d="M290.9,216.4c5.1-3.1,9.9-6.7,14.1-11c4.2-4.3,7.8-9.2,10.6-14.7c2.8-5.6,4.7-11.7,5.3-18.1
						c0.3-3.2,0.2-6.4-0.3-9.6l-0.2-1.2c-0.1-0.4-0.1-0.8-0.2-1.1l-0.4-2.1c-0.3-1.4-0.6-2.8-0.9-4.2c-0.6-3-1.4-6.1-2.5-9.2
						c-1.1-3.1-2.6-6.2-4.6-9l-0.8-1l-0.7-0.9l-1.4-1.7c-1-1.1-1.9-2.3-2.9-3.4c-2-2.3-4.1-4.5-6.4-6.6c-4.6-4.3-9.7-8.1-15.1-11
						l-2.1-1.1c-0.7-0.3-1.4-0.7-2.2-1l-2.2-1l-2.2-0.8c-0.7-0.3-1.5-0.6-2.2-0.8l-2.3-0.6c-1.5-0.5-3.1-0.8-4.6-1.1
						c-6-1.2-12-1.2-17.9-0.8c-5.9,0.4-11.7,1.4-17.6,2.4c-1.6,0.3-3.1,0.5-4.7,0.8c-1.5,0.3-3.1,0.6-4.6,1c-0.4,0.1-1.1,0.4-2,0.7
						c-0.9,0.4-2,0.9-3,1.4c-2.1,1-4.1,2.3-4.8,2.7c-0.5,0.4,4-0.4,5.3-0.6c1-0.2,2.2-0.3,3.4-0.5c1.2-0.2,2.5-0.3,3.7-0.5
						c2.5-0.3,4.8-0.5,6.4-0.7c3.2-0.4,5.6-0.5,7.9-0.7c1.2-0.1,2.4-0.1,3.6-0.2c1.3-0.1,2.7-0.1,4.3-0.2c6.7-0.2,13.3,0.3,19.6,1.9
						c3.1,0.7,6.1,1.9,9,3.1c0.7,0.3,1.4,0.7,2.1,1.1c0.7,0.4,1.4,0.7,2,1.2c1.3,0.8,2.7,1.7,3.9,2.7c4,3.1,7.8,6.5,11.5,10.5
						c1.8,2,3.6,4,5.3,6.1c0.9,1.1,1.7,2.1,2.6,3.2c0.9,1.2,1.4,1.9,2,3c2.3,4.3,3.4,9.7,4.1,15.3l0.5,4.3c0.1,0.4,0.1,0.6,0.1,0.9
						l0.1,0.9c0,0.6,0.1,1.2,0,1.8c-0.1,2.4-0.4,4.8-1,7.3c-0.6,2.6-1.7,5.2-3,7.6c-0.6,1.2-1.4,2.4-2.1,3.6
						c-0.8,1.2-1.7,2.3-2.5,3.4c-3.6,4.4-7.8,8.3-12.5,11.8c-9.1,6.9-20.2,11.8-31.7,14.2c-6.7,1.3-13.5,1.8-20,0.9
						c-8.2-1-15.8-4-22.3-8.8c-6.5-4.8-11.8-11.5-15.8-19.1c-1.8-3.4-3.2-7-4.4-10.7c-1-3.5-1.7-7-1.9-10.5c-0.1-0.9,0-1.8,0-2.7
						l0-1.3c0-0.4,0.1-0.9,0.1-1.3c0.1-0.9,0.1-1.8,0.2-2.6l0.4-2.6c0.1-0.9,0.3-1.7,0.5-2.6c0.2-0.9,0.3-1.7,0.6-2.6l0.7-2.6
						c0.3-0.8,0.6-1.7,0.9-2.5c1.3-3.6,3.4-7.5,5.8-11.2c0.6-0.9,1.2-1.9,1.8-2.7c0.6-0.9,1.3-1.7,1.8-2.6c1.3-1.6,2.3-3.4,3.4-4.9
						c0.9-1.5,0.7-3,0.1-3.9c0.5,0.8-1.7,1.7-4.2,2.6c-1.2,0.5-2.5,1-3.5,1.4c-1,0.4-1.7,0.8-1.9,0.9c-0.5,0.3-1,0.6-1.5,0.9
						l-0.7,0.5l-0.7,0.6c-0.9,0.7-1.8,1.5-2.7,2.4c-0.8,0.9-1.7,1.8-2.5,2.7c-0.4,0.4-0.8,0.9-1.2,1.4c-0.4,0.5-0.8,1-1.2,1.4
						c-2.9,3.7-5.6,7.6-7.5,12c-1.9,4.3-3.4,9.1-3.6,14.5c-0.3,5.6,0.3,11.2,1.7,16.7c0.4,1.3,0.8,2.7,1.2,4l1.4,3.7l1.5,3.7
						l1.7,3.6c4.8,9.6,11.6,18.5,20.7,25.3c7.7,5.7,17,9.6,26.4,11c9.4,1.4,18.8,0.8,27.7-0.9c5.3-1.1,10.6-2.5,15.9-4.4
						C280.8,221.7,286,219.3,290.9,216.4z"/>
				</g>
			</g>
		</g>
	</g>
	<g>
		<g>
			<g>
				<path class="st0" d="M389.4,248.6l0-0.4C389.4,248.4,389.4,248.5,389.4,248.6z"/>
				<path class="st0" d="M358.3,284l0.1-0.2C358.3,283.9,358.3,284,358.3,284z"/>
				<path class="st0" d="M355.4,303.8l-0.3,0.3C355.3,304,355.3,303.9,355.4,303.8z"/>
				<g>
					<path class="st0" d="M375.7,293.1c2.6-0.6,5.1-1,7.2-1.1c0.5,0,1.1-0.1,1.6-0.1l0.2,0l0.5,0l1.1,0l2.1,0.1c1.4,0,2.8,0,4.1-0.1
						l4.1-0.2l1.5-4.3c0.5-1.4,1-2.9,1.4-4.4c0.4-1.5,0.7-3.1,0.9-4.6c0.1-1,0.2-1.8,0.3-2.7c0.2-1.8,0.2-3.5,0.3-5.2l0-2.3l0.1-2.2
						c0.2-3.1,0.3-6.2,0.5-9.3c0.1-1.6,0.1-3.3,0.1-5c0-1.7-0.1-3.2-0.1-4.8c-0.3-6.4-0.8-12.9-1.9-19.5c-0.1-0.9-0.3-1.7-0.5-2.6
						l-0.3-1.3l-0.1-0.3l-0.1-0.5l-0.2-0.9c-0.2-0.6-0.3-1.3-0.5-1.9l-0.6-1.8c-0.2-0.6-0.5-1.1-0.9-1.6c-0.4-0.5-0.9-0.9-1.4-1.2
						c-1-0.6-2.3-1-3.6-1.3l-1.9-0.5l-1.3-0.3c-1.7-0.4-3.6-0.8-5.5-1c-1.9-0.2-3.8-0.2-5.7-0.1c-1.9,0.1-3.7,0.4-5.3,0.7
						c-1.7,0.3-3.2,0.5-4.8,0.7l-4.9,0.7c-3.2,0.4-6.4,0.6-9.8,0.9c-1.7,0.1-3.4,0.3-5,0.4l-2.5,0.2l-1.2,0.1l-1.1,0.1
						c-3,0.2-6.3,0.1-9.8,0.3c-3.5,0.1-7.1,0.4-11,1.8c-1.9,0.7-3.7,1.7-5.2,3c-1.5,1.2-2.8,2.6-3.9,3.9c-1.1,1.3-2.1,2.5-3,3.6
						c-0.5,0.5-0.9,1-1.4,1.4c-0.2,0.2-0.5,0.4-0.7,0.6c-0.2,0.2-0.6,0.4-0.9,0.7c-2.5,1.8-5.1,3.5-7.7,4.5c-0.3,0.1-0.6,0.2-1,0.4
						l-1.1,0.4c-0.7,0.2-1.5,0.5-2.2,0.7c-1.5,0.4-3,0.9-4.6,1.2c-3.3,0.8-6.6,1.4-10,2.1c-1.6,0.3-9.7,3.2-11.2,4
						c-0.7,0.4,4.4,0.1,5.8,0c4.6-0.3,11.6-1,15.2-1.6c3.6-0.6,6.2-1.2,8.9-1.9c1.3-0.3,2.8-0.8,4.2-1.4c1.4-0.6,2.9-1.4,4.6-2.4
						c0.9-0.5,1.7-1,2.5-1.5c0.4-0.2,0.8-0.5,1.3-0.9c0.5-0.3,0.9-0.7,1.3-1c1.6-1.4,3-2.9,4.2-4.2c1.3-1.4,2.5-2.6,3.8-3.5
						c1.3-1,2.7-1.6,4.2-2c3.2-0.8,6.8-0.8,10.5-0.7c1.9,0.1,3.8,0.2,5.8,0.2c1,0,2,0,3.1,0l2.8,0c3,0,6.1-0.1,9.2-0.1
						c3.2,0,6.5-0.3,9.7-0.6l2.4-0.2l2.5-0.3c1.6-0.2,3.2-0.5,4.6-0.6c1.4-0.2,2.8-0.2,4.1-0.2c1.3,0.1,2.6,0.2,3.9,0.5
						c0.7,0.2,1.4,0.3,2.2,0.5l1.1,0.3l0.3,0.1l0.1,0l0.1,0l0.2,0.1l0.8,0.3c0.1,0.1,0.2,0.1,0.3,0.2c0.1,0.1,0.1,0.2,0.2,0.4
						l0.1,0.8l0,0.4l0.1,1.1c0.2,1.5,0.4,3.1,0.5,4.7c0.5,6.3,0.3,12.7,0,19.2c-0.2,5.1-1.4,10.5-2.1,16.6l-0.5,4.2
						c-0.2,1.3-0.3,2.6-0.5,3.8l-0.2,0.9c0,0.2,0,0.2-0.1,0.2l0,0.1l-0.1,0.3c-0.1,0.2-0.1,0.3-0.2,0.4l-0.6-0.1l-0.1,0
						c0,0-0.1,0,0,0l-0.4,0l-0.7,0c-1,0-1.9,0.1-2.8,0.1c-2.1,0.2-4.1,0.5-6.1,0.9c-1.9,0.4-3.7,0.8-5.7,1.4
						c-3.9,1.1-7.9,2.8-11.5,5c-3.6,2.2-6.6,4.7-9.4,7.1l-4.1,3.5l-2.1,1.8c-0.7,0.6-1.4,1.2-2.1,1.9c-3.3,3-6.5,6.4-9.3,10.1
						c-2.8,3.7-5.3,7.8-7.2,12.1c-2.5,5.4-3.9,11.1-4.9,16.7c-0.3,1.4-0.4,2.8-0.6,4.2c-0.2,1.4-0.3,2.7-0.4,4.1
						c-0.2,2.7-0.4,5.5-0.5,8.2c-0.4,10.9,0.3,21.8,1.5,32.5c1.1,9.7,2.2,19.1,3.6,28.5c1.4,9.4,3.1,18.8,5.8,28.2
						c0.7,2.5,1.5,5.2,2.4,8c0.9,2.8,1.9,5.5,2.7,7.9c0.9,2.5,1.6,4.8,2.2,6.9c0.6,2.1,1.1,4,1.5,5.8c0.2,0.9,0.5,1.5,1,2
						c0.4,0.5,1,0.8,1.5,1c-0.4-0.2-0.4-0.8,0-1.7c0.3-0.9,0.9-2.1,1.3-3.5c1-2.7,1.5-5.9,1.6-6.3c0.4-5.1-0.9-10.6-1.5-15.7
						c-1.3-9.9-1.3-18.8-2.9-29.1c-3.2-21.7-6.9-43-6.1-64.1c0.1-2.2,0.2-4.5,0.4-6.7l0.3-3.3c0.1-1.1,0.3-2.2,0.4-3.2
						c0.6-4.3,1.5-8.4,2.9-12.2c1.4-3.8,3.2-7.4,5.6-10.7c2.4-3.3,5.2-6.4,8.4-9.3c0.9-0.9,2-1.7,3-2.6c1.1-0.9,2.2-1.8,3.3-2.7
						c2.2-1.8,4.3-3.5,6.4-4.9c2-1.4,4-2.5,6.1-3.4c1.1-0.4,2.1-0.8,3.3-1.1c0.6-0.2,1.1-0.3,1.7-0.5l0.9-0.2L375.7,293.1z"/>
				</g>
			</g>
		</g>
	</g>
	<g>
		<g>
			<path class="st1" d="M395.6,236.5"/>
		</g>
	</g>
	<g>
		<g>
			<g>
				<path class="st0" d="M124.4,301.8l-0.6,0C124.1,301.8,124.3,301.8,124.4,301.8z"/>
				<path class="st0" d="M177.1,342.1l-0.2-0.1C177,342.1,177,342.1,177.1,342.1z"/>
				<path class="st0" d="M193.8,357.5l0.1,0.5C193.9,357.8,193.9,357.6,193.8,357.5z"/>
				<g>
					<path class="st0" d="M185.8,321.4c-3.1-7.9-7.8-15.8-14.6-22.1c-1.7-1.6-3.5-3-5.4-4.3c-1.9-1.3-4-2.5-6.2-3.5
						c-1.1-0.5-2.2-0.9-3.3-1.3l-1.7-0.5c-0.3-0.1-0.5-0.1-0.7-0.2l-0.6-0.2l-1.1-0.3c-0.1,0-0.4-0.2-0.7-0.3l-0.6-0.2
						c-0.2-0.1-0.4-0.2-0.6-0.3c-0.8-0.3-1.7-0.5-2.6-0.5c-0.9,0-1.9,0-2.5,0.1c-6.1,0.5-12.1,1-18.2,1.6c-3,0.2-6.1,0.4-9.1,0.6
						l-2.4,0.1l-1.2,0.1l-0.3,0l-0.2,0l-0.1,0l-0.2,0c-0.6,0.1-1.1,0.2-1.8,0.3c-0.2,0-0.4,0.1-0.5,0c-0.1-0.1-0.2-0.3-0.2-0.5
						c-0.1-0.3-0.2-0.7-0.3-1c-0.1-0.3-0.2-0.7-0.3-1.1c-0.2-0.7-0.3-1.7-0.4-2.5c-1.2-7.8-0.7-16,0-24.3c0.8-8.3,1.9-16.8,2-25.6
						c0-1,0-2,0.1-2.7c0.1-0.6,0.2-1.1,0.4-1.6c0.5-1,1.4-1.6,2.5-1.9c1.5-0.4,3.4-0.5,5.5-0.7l6.4-0.5c4.2-0.3,8.5-0.7,12.7-1.2
						c4.2-0.4,8.4-0.8,12.6-1.2c4.1-0.3,8.2-0.7,12.3-1c2.1-0.2,4.2-0.4,6.3-0.7c1.1-0.2,2.1-0.3,3.2-0.6c1.1-0.2,2.2-0.5,3.1-0.7
						c0.9-0.2,1.9-0.4,2.5-0.5c0.6-0.1,1.2-0.1,1.8,0.1c0.6,0.1,1.1,0.5,1.6,0.9c0.4,0.3,1,1,1.7,1.8c2.8,3.4,6,6.5,9.4,9.2
						c1.8,1.5,3.8,2.8,5.8,4c2,1.2,4.1,2.3,6.3,3.3c1.1,0.5,4.5,1.5,7.9,2c1.7,0.3,3.5,0.4,4.9,0.4c1.5,0,2.6,0,3.2-0.1
						c0.5,0-0.9-0.5-2.6-0.9c-1.7-0.4-3.8-1.1-4.6-1.5c-2.8-1-6.3-2.6-9.4-4.4c-3.1-1.8-5.7-3.9-7.5-5.3c-3.5-2.9-5.8-5.4-7.9-8
						c-0.5-0.7-1-1.3-1.5-2c-0.5-0.7-1.1-1.4-1.9-2.3c-0.8-0.8-1.8-1.6-3-2.1c-1.2-0.5-2.6-0.7-4.1-0.7c-1.5,0.1-2.8,0.3-4,0.5
						c-1.2,0.2-2.3,0.4-3.5,0.6c-2.3,0.3-4.7,0.5-7.1,0.6c-4.8,0.2-9.8,0.4-14.6,0.7c-4.9,0.3-9.7,0.6-14.6,0.9
						c-4.8,0.3-9.6,0.4-14.5,0.4c-1,0-2,0-3,0c-1,0-2.2,0.1-3.4,0.2c-0.6,0.1-1.2,0.2-1.9,0.3c-0.6,0.1-1.4,0.3-2.2,0.6
						c-1.5,0.5-2.9,1.3-4,2.4c-1.2,1.1-2.1,2.4-2.7,3.8c-0.3,0.7-0.6,1.5-0.8,2.3c-0.1,0.4-0.2,0.8-0.2,1.2c-0.1,0.3-0.1,0.7-0.1,1
						c-0.2,1.3-0.2,2.4-0.2,3.4l-0.2,2.9c-0.5,7.8-1.7,15.8-2.7,23.9c-0.7,5.8-1.3,11.7-1.2,17.9c0.1,3.1,0.3,6.2,0.8,9.3l0.3,1.7
						l0.4,1.8c0.3,1.2,0.5,2.5,0.8,3.7c0.4,1.1,0.9,2,1.5,2.8l0.5,0.7c0.2,0.2,0.4,0.5,0.5,0.6l1.1,1.1c2.5,0,5.1-0.1,7.8-0.2
						l1.8-0.1l1,0l2.1,0c3,0,5.9,0,8.9,0c4.7-0.1,9.3-0.2,14-0.2l3.5,0l1.6,0l0.2,0l0.1,0l0.1,0c0.1,0,0.1,0.1,0.3,0.2
						c0.3,0.2,1.2,0.5,1.8,0.8c0.7,0.3,1.3,0.5,1.9,0.7l1.3,0.5c6.7,2.8,12.3,8.6,16.4,15.5c2.1,3.4,3.8,7.2,5.3,11.2
						c1.5,4.1,2.9,8.2,4,12.3c2.2,8.3,3.3,16.7,2.7,25c-0.3,5-1,10.2-1.7,15.5c-0.7,5.3-1.4,10.5-2.2,15.7c-1,6.6-2.1,13-3.4,19.4
						c-0.7,3.2-1.4,6.4-2.2,9.5c-0.8,3.2-1.7,6.6-2.4,10.3c-0.6,3.7-1.1,7.7-0.6,11.9c0.1,1.1,0.3,2.1,0.5,3.2l0.4,1.6
						c0.1,0.5,0.3,1.2,0.5,1.7c0.8,2.3,1.9,4.4,3.5,6.4c1.5,2,3.4,3.7,5.8,5.1c2.3,1.4,5.2,2.3,8,2.3l1.1,0l0.7,0l1.3,0l2.5,0l5-0.1
						c12.1-0.1,24,0,35.9,0.3c11.9,0.3,23.9,0.7,36.2,0.5c6.5-0.1,14.2-0.4,21.6-1.1c7.4-0.7,14.5-1.9,19.9-3.7
						c2.6-0.9,3.3-2.2,3.2-3.4c0.1,0.9-3.5,0.7-7.3,0.1c-3.7-0.6-7.6-1.4-8.1-1.4c-6.3-0.8-13.2-1.1-19.7-1.7
						c-12.7-1.3-24-3.4-37.6-3.9c-7.1-0.3-14.2-0.4-21.4-0.4c-7.1,0-14.2,0.1-21.3,0.2l-10.7,0.1l-0.7,0c-0.1,0-0.1,0-0.2,0
						c-0.1,0-0.2,0-0.3,0c-0.2,0-0.4-0.1-0.6-0.2c-0.4-0.2-1-0.6-1.5-1.2c-0.5-0.6-1-1.4-1.4-2.3c-0.3-0.7-0.6-2-0.7-3.2
						c-0.3-2.4,0-5.3,0.5-8.3c0.5-2.6,1.2-5.4,1.9-8.3c0.8-3,1.5-6.1,2.1-9.1c1.3-6.1,2.3-12.2,3.2-18.3c0.9-6.1,1.7-12.1,2.4-18.2
						l1.1-9c0.4-3.1,0.7-6.2,0.9-9.4c0.5-7.9-0.1-16-1.6-23.8c-0.7-3.9-1.7-7.8-2.8-11.6c-0.6-1.9-1.2-3.8-1.8-5.6l-1-2.8
						C186.5,323.3,186.2,322.4,185.8,321.4z"/>
				</g>
			</g>
		</g>
	</g>
	<g>
		<g>
			<path class="st1" d="M106.9,239.4"/>
		</g>
	</g>
	<g>
		<g>
			<path class="st1" d="M363,116.3"/>
		</g>
	</g>
	<g>
		<g>
			<path class="st1" d="M340.3,145.6"/>
		</g>
	</g>
	<g>
		<g>
			<g>
				<path class="st0" d="M404.8,181.7l-0.2,0.2C404.7,181.8,404.7,181.7,404.8,181.7z"/>
				<path class="st0" d="M423,151.4l0.1,0C423.1,151.3,423,151.3,423,151.4z"/>
				<path class="st0" d="M409.3,148.6l-0.1-0.2C409.3,148.5,409.3,148.5,409.3,148.6z"/>
				<g>
					<path class="st0" d="M412.4,159.2C412.4,159.2,412.4,159.2,412.4,159.2C412.4,159.2,412.4,159.2,412.4,159.2L412.4,159.2
						L412.4,159.2l-0.2,0.2l-1.7,1.6c-2.3,2.1-4.5,4.3-6.6,6.5c-2.2,2.3-4.3,4.6-6.5,6.9l-0.4,0.4l-0.2,0.2
						c-0.1,0.1-0.2,0.2-0.1,0.2c-0.1,0.1-0.2,0.2-0.2,0.4c-0.2,0.2-0.4,0.6-0.6,0.7c-0.1,0-0.3,0-0.4,0l-0.7-0.1l-0.4-0.1l-0.5-0.1
						l-1.2-0.3c-6.5-1.7-12.9-3.5-19.5-4.8c-6.6-1.3-13-3.2-19.4-5.1c-0.4-0.1-0.8-0.2-1.2-0.3l-0.6-0.1c-0.1,0-0.1-0.1-0.2-0.2
						l-0.1-0.3l-0.4-1.2l-0.1-0.4l-0.2-0.6l-0.4-1.2c-1-3.1-1.9-6.3-2.5-9.5c-0.3-1.7-0.6-3.5-0.8-5.2c-0.1-0.9-1.9-4.9-2.4-5.6
						c-0.2-0.3-0.4,2.3-0.4,3.1c-0.1,2.4-0.1,6.1,0,7.9c0.3,3.7,0.5,5.5,1.3,9.2c0.2,1,0.4,1.9,0.6,2.9c0.3,1.2,0.5,2.4,0.8,3.6
						l0.2,0.9l0.1,0.5l0.1,0.2c0,0.1,0,0.2,0.1,0.2l1.8,0.6l3.6,1.2c3.7,1.3,7.4,2.6,11,4.2c5.9,2.5,12.5,3.7,18.6,5.8l10,3.5
						c0.3,0.1,1.1,0.4,1.7,0.5c0.6,0.2,1.2,0.4,1.9,0.6l1.1,0.1l0.5,0l0.3,0l0.1,0l0.1,0l0,0c-0.1-0.6,0-0.2-0.1-0.3l0,0l0,0
						c0.7-0.1,1.3-0.3,2-0.5c0.7-0.3,1.3-0.8,1.9-1.3l1.6-1.2c0.7-0.5,1.4-1.1,2.1-1.6c2.9-2.4,5.8-4.6,8.7-6.9l4.4-3.4l2.2-1.7
						l3.9-3.3l1.9-1.7c0.3-0.3,0.7-0.5,0.9-0.8l-0.4-1.2l-1.7-4.8l-0.8-2.3l-0.5-1.3l-1-2.6c-1.3-3.4-2.5-6.8-3.7-10.3
						c-1.4-4-2.7-8.1-4-12.1l-0.4-1.1l-0.7-2l-1.4-4.1l-9.3-3.1l-6.5-2.2c-4.4-1.4-8.7-2.9-13.1-4.3c-1.1-0.4-2.2-0.8-3.3-1.2
						c-2.1-0.7-4.1-1.5-6.2-2.2l-4.3,2.8l-1.1,0.7l-0.6,0.4l-1.2,0.7l-4.6,2.9c-3.1,1.9-6.1,4-9.1,6.2c-4.1,3.1-9.8,7.2-11.9,11.8
						c-0.5,1.1-0.1,2.2,0.4,3c-0.9-1.3,5.6-1.8,6.1-1.9c2.6-0.7,5.1-1.9,7.6-2.9c4.9-1.9,9.6-3.1,14.2-5.9c1.5-0.9,3.1-1.9,4.6-2.8
						l1.1-0.7l0.3-0.2c0.1,0,0.2-0.2,0.2-0.1l0.1,0l0.2,0l0.2,0.1l0,0l0,0l0.1,0.1l0.7,0.2l1.4,0.5l5.5,1.9c3.7,1.2,7.3,2.4,11,3.7
						l5.4,1.8l2.2,0.7l0.2,0l0.1,0.1l0,0.1l0.3,1l1.5,4.1l2.8,8.3c0.9,2.7,1.8,5.5,2.7,8.3c0.4,1.4,0.9,2.8,1.3,4.2l0.3,1.1
						L412.4,159.2L412.4,159.2L412.4,159.2L412.4,159.2L412.4,159.2C412.5,159.2,412.5,159.2,412.4,159.2z"/>
				</g>
			</g>
		</g>
	</g>
	<g>
		<g>
			<g>
				<path class="st0" d="M212.1,54.8l0.1,0.2C212.1,54.9,212.1,54.8,212.1,54.8z"/>
				<path class="st0" d="M192.5,29.3l0.1-0.2C192.5,29.2,192.5,29.3,192.5,29.3z"/>
				<path class="st0" d="M189.4,42.8l-0.2,0.1C189.3,42.8,189.4,42.8,189.4,42.8z"/>
				<g>
					<path class="st0" d="M195.3,41.5L195.3,41.5C195.3,41.6,195.3,41.6,195.3,41.5c0.1,0.1-0.1-0.6,0.6,1.3
						c0.9,2.6,1.9,5.2,3.1,7.8c2.3,5.4,5,10.6,6.8,16.2c0.9,3,1.8,5.9,2.7,8.9l0.7,2.2l0.4,1.1l0.1,0.2l0,0.1l0.1,0.2
						c0.3,0.7,0.5,1.3,0.9,2.1c0.1,0.2,0.1,0.3,0.2,0.5c-0.6,0.3-1.2,0.6-1.9,0.9l-1.1,0.4l-2.1,0.7c-2.8,0.9-5.6,1.8-8.4,2.7
						c-5.8,1.8-11.1,4.7-17,6.2c-1.6,0.4-3.1,0.7-4.7,1.1c-0.8,0.2-4.3,2.1-4.9,2.7c-0.3,0.3,2.2,0.3,2.9,0.3c2.2,0,5.6-0.2,7.3-0.5
						c3.4-0.5,5-0.8,8.4-1.7c7-1.9,13.7-3.9,20.8-5.1c3.2-0.7,6.7-1.7,10.1-2.8c-0.8-2.8-1.6-5.7-2.5-8.5l-0.6-1.9l-0.4-1.3
						c-0.2-0.9-0.5-1.8-0.6-2.7c-1.3-6.2-2.4-12.5-4.2-18.5c-1-3.2-1.8-6.5-2.6-9.8l-1.2-4.9l-0.3-1.2l-0.6-2.1l-1.4-4.6l-1.8-6
						l-13.7,4.5c-2.6,0.9-5.3,1.7-7.9,2.6c-3.7,1.1-7.5,2.2-11.2,3.3c-3.1,0.9-6.1,1.8-9.2,2.7l-14.3,4.5l3.4,15.4
						c1.9,8.7,2.5,17.4,4.8,26c1.2,4.6,2.7,10.8,6.1,14.1c0.8,0.8,2,0.9,2.9,0.7c-1.6,0.3,0.6-5.4,0.6-5.8c0.4-2.4,0.3-5,0.4-7.5
						c0.2-4.8,0.9-9.2,0.2-14.1c-0.6-4.4-1.4-8.8-2.3-13.1l-1.4-6.5l-0.1-0.5l0-0.2l0.2-0.1l10.9-3.5c4.2-1.3,8.4-2.7,12.6-3.9
						c2.5-0.8,5.1-1.5,7.7-2.2l1-0.3l0.5-0.1c0,0,0,0,0,0C195.3,41.4,195.3,41.4,195.3,41.5C195.4,41.5,195.4,41.5,195.3,41.5z"/>
				</g>
			</g>
		</g>
	</g>
	<g>
		<g>
			<g>
				<path class="st0" d="M135.5,165.5L135.5,165.5C135.6,165.5,135.5,165.5,135.5,165.5z"/>
				<path class="st0" d="M108.5,171.8l0-0.1C108.5,171.7,108.5,171.8,108.5,171.8z"/>
				<path class="st0" d="M105.2,184.9L105,185C105.1,185,105.1,184.9,105.2,184.9z"/>
				<g>
					<path class="st0" d="M117.2,182.6c5.4-1.2,10.7-2.8,15.8-4.7l4-1.5l6.3-2c1.1-0.3,2.2-0.6,3.2-1c1-0.4,1.7-0.8,2.3-1.3
						c0.6-0.5,1.2-0.9,1.8-1.2l0.9-0.6c0.1-0.1,0.4-0.2,0.5-0.4l-0.3-0.6c-0.8-1.6-1.6-3.1-2.4-4.7l-0.3-0.6
						c-0.1-0.2-0.4-0.4-0.6-0.7l-1.2-1.3l-2.3-2.7l-2.2-2.4l-1.5-1.7c-1-1.1-2.1-2.2-3.1-3.2c-4.3-4.3-8.1-8.8-11.9-13.5
						c-3.7-4.5-8.3-8.2-11.8-12.9c-0.9-1.3-1.8-2.5-2.7-3.8c-0.4-0.6-3.5-3.1-4.3-3.4c-0.3-0.2,0.5,2.1,0.8,2.7c0.8,2,2.2,5,3.1,6.4
						c1.7,2.9,2.5,4.2,4.6,6.9c4.3,5.5,8.5,10.8,12.2,16.8c1.5,2.4,3.3,4.6,5.2,6.8c0.9,1.1,1.9,2.2,2.8,3.3l0.7,0.8l0.3,0.4
						l0.1,0.2c0.2,0.2,0.3,0.5,0.4,0.7c0.3,0.5,0.4,0.9,0.6,1.2c0.1,0.2,0.1,0.3,0.1,0.5l0,0.2c0,0.1,0.1,0.1-0.1,0.1
						c-0.6,0-1.1,0-1.5,0c-0.4,0-0.6,0-1.2,0.2c-0.3,0.1-0.6,0.1-0.8,0.2l-2.3,0.5l-4.8,0.9c-3.2,0.6-6.4,1.2-9.6,2
						c-6.3,1.6-12.4,3.4-18.7,4.9l-5.5,1.3l-2.7,0.6l-0.3,0.1l-0.2,0l0,0l-0.1,0l-0.2,0c-0.4,0-0.7,0.1-1.1,0.1c0,0-0.1,0-0.1,0
						l0-0.2l0.1-0.3l0.2-0.6l0.1-0.3l0.2-0.4l0.4-1.1l1.7-4.6c3.1-8,7.2-15.4,9.8-23.6c1.4-4.4,3.5-10.2,2.4-14.7
						c-0.3-1.1-1.2-1.7-2.1-2.1c1.5,0.6-3.4,4.1-3.6,4.4c-1.7,1.7-2.9,3.9-4.3,5.8c-2.8,3.8-5.7,7-7.8,11.3c-2.1,4.6-4,9.2-5.8,13.9
						l-1.3,3.5l-1.4,3.8c-0.8,2.3-1.7,4.6-2.5,6.9c-0.4,1.1-0.8,2.3-1.1,3.4l-0.2,0.8l-0.1,0.4c0,0.1,0,0.2,0,0.3l0,1.3l0.1,3.4
						l0.1,1.6c0,0.6,0.1,1.2,0.1,1.7l3.9-0.2c0.7,0,1.3,0,2-0.1l2.2-0.3l2.2-0.3c0.4,0,0.8-0.1,1.2-0.2l1.2-0.3l4.8-1.1l10.8-2.5
						C106.8,184.7,112.1,183.7,117.2,182.6z"/>
				</g>
			</g>
		</g>
	</g>
</g>
</svg>
