<?xml version="1.0" encoding="utf-8"?>
<!-- Generator: Adobe Illustrator 22.1.0, SVG Export Plug-In . SVG Version: 6.00 Build 0)  -->
<svg version="1.1" id="svg" xmlns="http://www.w3.org/2000/svg" xmlns:xlink="http://www.w3.org/1999/xlink" x="0px" y="0px"
	 viewBox="0 0 410 410" style="enable-background:new 0 0 410 410;" xml:space="preserve">
<g id="svgg">
	<path id="path0" d="M236.8,86.9c-2.1,0.3-4.2,1.2-5.7,2.5l-0.7,0.6l0.1-0.5l0.1-0.5l-0.5,0.2c-0.3,0.1-1.6,0.5-3,0.7
		c-3.5,0.7-5.6,1.7-6.3,2.9c-0.4,0.6-0.4,1.1-0.1,1.1c0.4,0,3.5-0.5,6.8-1.2c3.7-0.7,7.6-1.2,8.3-1.1c1.2,0.3,1.2,2.7,0,5.5
		c-0.4,0.9-0.6,2.3-0.3,2.5c0.2,0.1,2-2.2,4.4-5.6l1.6-2.3l-1.2,0l-1.2,0l0.3-0.6c0.1-0.3,0.7-1.3,1.3-2.3s1.1-1.7,1-1.7
		C241.2,86.8,238.4,86.7,236.8,86.9 M273.3,89.8c-2,3.1-5.4,5.4-10.6,7.2c-5.9,2-9.9,5.3-12.9,10.3c-0.6,1.1-1.4,2.2-1.7,2.5
		c-1,1.1,0.5,0.2,1.7-1l0.7-0.7l-0.4,1.1c-0.5,1.1-0.7,2.9-0.5,3.9c0.1,0.6,0.4,0.8,0.4,0.4c0-1.1,1.5-4.9,2.4-6.1
		c0.9-1.2,2.4-2.2,2.1-1.5c-0.3,1,0.2,1,0.7,0c0.9-1.9,2.6-3.3,4.9-4.2c1.4-0.6,1.5-0.5,0.5,0.3c-1.3,1-2.2,2-2.2,2.4
		c0.1,0.6,0.6,0.4,2-0.8c1.7-1.6,6.6-4.1,5.4-2.8c-0.4,0.4-0.8,1.5-0.8,2v0.5l0.6-0.6c1.8-1.7,10.3-6.2,12.9-6.8
		c5.2-1.2,9.9-0.6,16.6,2.2c1.3,0.5,2.5,1,2.6,0.9c2-0.8-7.2-4.2-12.7-4.6L283,94l1-0.3c4-1.2,11.1-1.3,13.8-0.1
		c4.1,1.7,10.4,5.8,13.3,8.6c1.6,1.6,1.8,1.7,2.1,1.2c0.5-0.8-4.3-4.8-9.3-7.8c-2.7-1.5-2.7-1.6,0-0.6c1.1,0.4,3.7,1.3,5.7,1.8
		l3.7,1.1l0.9,0.9c2.3,2.3,4,5.2,5,8.5c0.2,0.8,0.3,1,0.7,1c1.2,0-0.9-5.3-3.3-8.3c-1.1-1.4-1.1-1.4,1.9,0.1
		c3.7,1.9,6.5,3.7,9.4,6.1c1.7,1.4,1.7,1.3,0-0.7c-9.9-11.3-17.7-14.4-38.5-15.1c-9-0.3-11.2-0.1-14.3,1.2l-0.7,0.3l0.1-1.4
		C274.3,88.6,274.1,88.5,273.3,89.8 M229.1,95.2c-1.8,0.4-3.8,1-5.1,1.7c-1.2,0.6-1.3,0.6-1.4-0.5c-0.1-1.1-0.1-1.1-1.3-0.8
		c-2,0.5-4.3,2.2-5.3,3.7l-0.3,0.4l-1.5-1.1l-1.5-1.1l-0.4,0.6c-0.9,1.4-0.9,2.8-0.2,8.1c1.4,11.3,2.3,21.8,2.6,31.6
		c0.2,6.1,1.5,14.8,2.6,16.6c0.2,0.3,0.3,1.6-0.6-15.2c-1-19.5-1-20.5-0.8-23.7c0.4-6.4,1.6-10.3,2.8-9.2c0.3,0.3,0.3,0.4,0,1.3
		c-1.4,5.7-1,20.3,0.6,20.3c0.5,0,0.6-0.4,0.3-1.6c-0.1-0.6-0.4-2-0.5-2.9c-0.6-3.9-0.2-15,0.6-14.7c0.1,0,0.4,0,0.6-0.1
		c0.3-0.2,0.4-0.2,0.3,0.1c-0.6,1.9-0.8,11.6-0.3,12.1c0.7,0.7,0.7,0.3,0.7-4.5c0-4.4,0.2-6.7,0.7-8.2c0.1-0.3,2.8-1.9,3.1-1.7
		c0.1,0.1,0.3,0.6,0.5,1.2c1,3.1,3.1,1.9,5.7-3.3c0.8-1.5,0.7-1.6-0.8-0.9c-1.1,0.4,1.2-4.7,3.1-7.1l1.1-1.3l-1.9,0
		C231.4,94.9,230,95,229.1,95.2 M253.9,98.6c-4.9,1.3-13.2,10.5-14.1,15.6c-0.1,0.8-0.3,1.7-0.4,1.9l-0.1,0.4l-0.2-0.5
		c-0.1-0.3-0.2-0.7-0.2-0.9c0-0.6-0.3-0.5-0.8,0.4c-1.1,1.6-1.5,3-1.9,6.6c-0.3,2.6-0.5,3.6-1.3,6c-0.4,1.1-0.7,2.4-0.8,3.5
		l-0.2,1.7l-0.5-0.5c-0.7-0.6-1.1-1.6-1.1-2.5c0-1-0.2-0.9-0.6,0.4c-0.5,1.6-0.6,2.1-0.7,3.8l-0.1,1.5l-1-0.8
		c-1.3-1.1-1.3-1.1-0.5,0.6c0.6,1.1,0.9,2.3,1.6,5c1,3.9,1.6,5.7,2.4,6.9c0.3,0.4,0.5,0.8,0.5,0.9c0,0.1-1.1,0-1.5-0.2
		c-0.2-0.1-0.3,0-0.3,0.5c0,1,0.3,1.5,2.2,3.3c2.4,2.3,2.4,2.3,0.5,4.4c-0.7,0.8-1.4,1.6-1.4,1.7c0,0.1,1.3,0.1,3,0.2
		c1.7,0,4.2,0.1,5.5,0.3c2.8,0.3,2.7,0.3,1.8-0.3c-3.2-2.2-6.4-8.4-8-15.2c-0.7-2.9-0.7-5.6,0-4.3c0.4,0.7,1.6,1.4,2.3,1.2l0.4-0.1
		l-0.1-1.8c-0.1-1.5-0.5-3.9-0.9-5.2c-0.1-0.4-0.1-0.4,0.4-0.1c0.5,0.3,1.4,0.3,1.4,0.1c0-0.1-0.1-0.6-0.3-1.1
		c-0.5-1.5-0.7-3.3-0.6-5.2c0.1-1.8,0.6-3.9,0.6-2.8c0,0.6,0.5,1.6,0.7,1.4c0.1-0.1,0.3-0.7,0.5-1.3c0.6-1.9,1.5-3.7,2.2-4.9
		c1.2-1.8,1.2-1.8,1.1,0c-0.2,3.3,0.7,4.9,2.3,4.2c0.2-0.1,0.2,0.1,0.2,1.1c-0.1,2,0.2,2.8,1.8,4.4c0.7,0.8,1.4,1.4,1.4,1.3
		c0,0,0.1-0.5,0.2-1.1c0.2-1.2,1.1-3,1.8-4l0.4-0.6l0,1.9l0,1.9l0.3-0.4c0.5-0.6,1.2-2,2.3-4.8c1-2.6,2.1-4.5,3-5.4l0.5-0.5
		l-0.3,0.8c-0.6,1.8,0.1,1.8,2-0.2c1.9-2,3.4-2.9,6.5-4c1.1-0.4,1.2-0.4,1-0.1c-2.7,3.7-4.1,6.6-5.1,10.5c-0.4,1.7-0.4,1.8,0.4,1
		c0.6-0.7,1.9-1.5,2.1-1.4c0.3,0.3-0.8,1.8-2.3,3.2c-2.3,2.2-3.3,3.9-2.8,4.8c0.1,0.2,0.2,0.2,0.3-0.2c0.5-2.6,12.5-8.4,19.5-9.5
		c1.9-0.3,7.4-0.3,8.7,0l0.6,0.1l-1.3,0.8c-6.2,3.8-11.2,10-13.5,16.4c-0.5,1.5-0.6,1.5,1.7,0.1c6.5-3.9,13.4-6.4,18.7-6.6
		c1.9-0.1,2-0.1-1.2,0.8c-5.6,1.6-15.3,6.3-15.3,7.5c0,0.7,0.4,0.5,2.1-0.5c5.4-3.4,12.3-6.1,18.6-7.2c1.3-0.3,3.3-0.1,3.3,0.2
		c0,0.1-4.8,3.3-10.6,7.2c-10.9,7.2-12.1,8.1-13,9.5c-0.7,1-0.9,2-0.4,1.8c1.7-0.7,4.4-0.9,6.2-0.5c1.7,0.4,4.7,2.1,4.3,2.4
		c0,0-2.4,1.3-5.2,2.9c-11.7,6.5-14.2,8.2-15.9,10.8c-0.8,1.2-0.8,1.2,1.4,0.1c3.7-2.1,7.9-4,11.9-5.5c4.1-1.5,5.3-2.3,11.1-7
		c3.1-2.5,3-2.4,2.6-3.2c-1-1.9-3.1-3.8-4.5-4.4l-0.8-0.3l0.9-0.3c3.8-1.2,7-3.9,12.9-10.8c3.5-4.2,6.9-7.6,9-9.1
		c1.4-1,4.9-2.8,5.4-2.8c0.1,0,0.2-0.1,0.3-0.1c0-0.1-0.3-0.1-0.7,0c-0.9,0.2-1.7,0.1-4.5-0.5c-1.8-0.4-2.4-0.4-4.4-0.4
		c-1.6,0-2.2,0-1.8-0.1c7.9-2.1,12.7-5.3,14.9-9.9c0.6-1.3,0.6-1.8,0-1.7c-0.3,0-0.6,0.4-1.1,1.5c-2.3,4.5-6.7,7.1-16,9.6
		c-4.4,1.2-7.1,2-9.3,3.1c-1.1,0.5-2.6,1.2-3.5,1.5c-0.9,0.4-2.1,0.9-2.7,1.1c-0.6,0.3-1,0.4-0.8,0.2c0.7-0.5,2.4-1.9,4.4-3.7
		c4.7-4.2,11.7-7.8,16.8-8.6c2.8-0.4,2.8-0.5,2.9-0.9c0.2-1.3-6.5,0.3-11.2,2.7l-1.7,0.8l-2.5,0c-3.1,0-4.3-0.3-7.2-1.5
		c-2.3-1-3.9-1.5-4.8-1.5c-0.4,0-0.3-0.1,0.4-0.2c1.3-0.4,5.4-0.3,8.5,0.1c6.6,0.9,9.4,0.6,13.7-1.5c3.9-1.9,8.7-6.5,7-6.7
		c-0.2,0-0.6,0.3-1.2,1.1c-3.6,4.5-10.2,7.2-15.9,6.7l-1.3-0.1l1.4-0.3c0.8-0.2,2.1-0.4,3-0.6c3.5-0.6,5.6-1.7,7.4-3.9
		c0.7-0.8,0.7-1,0.3-1.2c-0.3-0.2-0.5-0.1-1.2,0.8c-1,1.1-2.6,2.2-3.4,2.4c-0.3,0.1-1,0.3-1.7,0.5c-1.2,0.3-3.9,0.4-5.7,0.2
		l-0.8-0.1l1.2-0.4c2.6-0.9,6.5-3.5,6.4-4.2c-0.1-0.6-0.6-0.5-1.8,0.5c-3.2,2.7-6.4,3.6-11.6,3.4c-3.2-0.1-3.4-0.3-0.3-0.4
		c2.2,0,2.8-0.3,2.4-0.9c-0.2-0.2-0.5-0.2-2.6-0.1c-6.7,0.4-13.6,3-17.1,6.4l-1.1,1l0.7-1.1c0.9-1.4,1.9-2.8,3.3-4.3
		c1.2-1.3,1.2-1.4-0.4-0.8c-1.4,0.5-1.3,0.4,1.3-1.6c2.3-1.8,3.5-2.9,3.9-3.8l0.3-0.7h-0.7c-1.1,0-1-0.1,0.4-1.1
		c1.5-1,2.6-1.3,6-1.6c1.8-0.2,1.9-0.2,1.9-0.6c0-0.7-4-0.4-7.3,0.6c-0.8,0.2-2.2,0.6-3.2,0.7c-2.2,0.4-4.1,1-5.4,1.7
		c-0.6,0.3-1,0.5-1,0.4c0-0.3,1.5-1.6,2.6-2.3c0.8-0.5,1.2-0.9,1.2-1c0-0.8-1.1-0.4-2.7,0.9c-0.5,0.4-1.3,1-1.8,1.4
		c-0.5,0.4-1.6,1.5-2.4,2.4c-1,1.2-1.8,1.9-2.7,2.5c-0.7,0.5-1.7,1.1-2.1,1.5c-0.4,0.3-0.8,0.6-0.8,0.5c0-0.6,2.2-5.2,2.9-6.2
		c0.5-0.7,0.9-1.3,0.8-1.3c-0.3-0.3-3.6,1.7-4.3,2.6c-0.2,0.3-0.6,0.7-1,1l-0.6,0.5l0.2-0.7c0.1-0.4,0.3-0.9,0.4-1.3
		c0.3-0.8,0.3-0.8-0.7-0.3c-1.3,0.7-2.7,2.6-3.8,5.3c-0.6,1.4-0.6,1.4-1.2,0.4c-0.6-1-0.7-1-0.7,0c0,1.2-1,4.1-1.7,5
		c0,0,0-0.5,0-1.2c0-1.1,0-1.2-0.4-1.2c-0.4-0.1-0.5,0.1-0.6,1.8c-0.1,1.3-0.6,3-1.3,4.3l-0.5,1l-0.2-0.6c-0.7-1.8-1.2-4.8-1.2-7.8
		c0-1.8,0.1-1.8-1.3-0.6l-0.7,0.5l0.6-1.9c0.7-2.2,1-2.7,3-5.2c0.8-1,1.9-2.6,2.6-3.6c1.7-2.8,2.9-3.9,4.6-4.5l0.7-0.3l-0.7,0
		C255.1,98.4,254.4,98.5,253.9,98.6 M329.3,113.2c0,0.1-0.1,0.8-0.1,1.6c-0.1,2.1-1.1,3.9-3.7,6.6c-1.1,1.2-1.3,1.6-0.8,1.8
		c0.6,0.2,3.6-3.1,4.6-5.2c0.8-1.6,1.2-3.9,0.9-4.8C330,113,329.4,113,329.3,113.2 M326.7,114.2c-0.1,0.1-0.3,0.7-0.4,1.3
		c-0.6,2.4-2.5,5.1-4.3,6.3c-1,0.7-0.7,1.6,0.3,1c2.2-1.4,4.5-4.7,5.1-7.4C327.6,114.4,327.2,113.6,326.7,114.2 M343.3,125.6
		c-2.3,0.3-5.1,1.2-7.1,2.3l-0.9,0.5l0.1-0.6c0.3-1.8-0.4-2-2.7-0.8c-1,0.5-2.9,1.3-4.2,1.9c-3.6,1.4-6,2.4-6,2.6
		c0,0.1,0.7,0.6,1.5,1.2c0.8,0.6,1.8,1.3,2.3,1.7s0.9,0.7,0.9,0.7s-0.2,0.9-0.6,1.9c-0.4,1-0.7,1.9-0.7,2c0,0.5,7.8,1.9,12.6,2.3
		c1.8,0.1,1.8,0.2,0.9-1.2c-0.8-1.3-0.9-1.2,0.9-0.9c2.6,0.4,6.6,0.6,11.8,0.4c8.8-0.3,12.8-0.1,17.6,1c8,1.8,11.1,0.3,12.8-6.1
		c0.5-1.8,0.5-1.7-0.6-1.5c-1,0.2-3.9,0.2-5,0.1l-0.8-0.1l0.6-1.2c0.7-1.4,1.1-2.9,0.9-4.2c-0.1-1.2,0.1-1.2-2.6-0.5
		c-3.8,1-9.4,1.4-12,0.9c-0.9-0.2-1.1-0.2-1.3,0.1c-0.9,0.9,3.4,1.4,8.3,0.9c2.2-0.2,2.2-0.2,2.2,1.1c0,1.8-1.3,3.4-3.3,3.9
		c-0.7,0.2-12.1,0.1-13.3-0.1c-2.4-0.4-5.6-1.8-8.2-3.4l-1-0.7l0.8-0.1c2.4-0.4,4.7-0.1,8,0.9c3.2,1,5.8,1,5.8,0.1
		c0-0.5-0.2-0.6-1.3-0.4c-1,0.2-0.8,0.2-5.5-1.1c-2.5-0.7-5.3-0.8-7.6-0.4c-2.5,0.4-2.1-0.2,0.5-0.8c1.5-0.4,4.3-0.4,5.8,0
		c1.2,0.3,1.5,0.2,1.4-0.3c-0.2-0.9-5.2-1.3-7.8-0.6c-0.7,0.2-0.7,0,0-0.6c0.3-0.3,0.5-0.5,0.5-0.6
		C347,125.3,344.8,125.4,343.3,125.6 M275.3,127.8c-7.2,2.1-14.3,7.9-14.3,11.6c0,1.9,0.7,1.8,3.9-0.8c2.7-2.2,3-2.1,2,0.6
		c-1,2.8-1.5,4.7-1.5,6.5c0,2,0.1,2,0.9,0.1c2.2-5.6,6.1-12.3,9.8-16.8C277.6,127.1,277.6,127.1,275.3,127.8 M139.8,128.7
		c-0.9,0.2-2.6,0.8-2.6,1c0,0.1,0.3,0.2,0.6,0.2c0.9,0.1,2.5,1,3.1,1.6l0.5,0.5l-0.4,0.1c-0.2,0-1.1,0.2-1.9,0.3
		c-4.7,0.6-9.9,3.8-12.6,7.9c-0.8,1.1-0.8,1.1,1,0.3c0.8-0.4,2.1-0.9,3-1.2l1.5-0.6l-0.1,0.6c-0.3,1.6-1.7,3.5-3.2,4.5l-0.7,0.5
		l0.7,0.5c1,0.8,2.1,1.3,3.3,1.5l1,0.2l-0.4,0.7c-0.2,0.4-0.9,1.3-1.6,2c-1.3,1.4-1.4,1.6-0.4,0.8c1.9-1.6,3.9-2.1,7.2-2.1
		c2.7,0,4.1-0.3,5.9-1c1.4-0.6,1.4-0.7,0.1-0.7c-0.9,0.1-1.4,0-3.2-0.6c-1.2-0.4-2.4-0.7-2.7-0.7l-0.5,0l0.5-0.4
		c0.5-0.5,2.2-1,4-1.3l1.2-0.2l-1.7-0.2c-2.2-0.3-3.4-0.2-5.7,0c-2.2,0.3-2.3,0.3-1.3-0.3c3.4-2.1,7-3.2,10.8-3.2
		c1.3,0,1.4,0,1.4-0.4c0-1.9-8.4,0-12.7,2.8l-0.4,0.3l0.3-0.6c0.8-1.9,3.6-4.4,5.1-4.4c1.3,0-0.4-0.9-2-1l-1.1-0.1l1.2-0.5
		c3.9-1.8,8.5-1.6,12.3,0.3c3.2,1.7,3.8,2,4.4,2.1l0.6,0.1l-0.6-0.8c-0.3-0.4-0.9-1.2-1.4-1.7l-0.9-0.9l0.9,0.4
		c3.7,1.9,5.5,4.5,4.7,6.9c-0.3,0.9-0.2,1,0.4,0.4c0.7-0.6,1.3-1.6,1.6-2.7c0.1-0.4,0.5-1.3,0.9-1.8c1-1.5,1.4-2.6,1.5-4.5
		c0.1-2.3-0.3-3-2.5-3.6c-0.5-0.1-1.2-0.4-1.6-0.6l-0.6-0.3l0.6,0.7c0.6,0.7,1.3,2,1.3,2.4c0,0.7-3.8,0.1-8.2-1.4
		C145,128.7,142,128.2,139.8,128.7 M244,132.1c-0.3,5.7-0.4,6.1-0.6,6.3c-0.4,0.4-1.1-0.1-1.4-1c-0.3-0.9-0.3,1.2,0.1,2.4
		c0.9,3.2,3,5.2,5.3,5.2h1l-0.1-2.7c-0.1-1.7,0-3.4,0.1-4.5c0.2-2.1,0.2-2.1-1.1-3.5c-0.5-0.5-1.4-1.6-1.9-2.4
		c-0.6-0.8-1.1-1.6-1.1-1.6C244.1,130.2,244,131.1,244,132.1 M315.9,130.4c-2,0.6-3.6,2.2-5,5.1c-1,1.9-3.5,5.9-3.8,6.1
		c-0.1,0.1-0.4-0.1-0.7-0.3c-1-0.7-1.4,0-2.7,3.9c-1,3.1-1.1,3.2-2.3,3.1c-0.4-0.1-0.9-0.1-1.2,0l-0.4,0.1l0,2.2
		c0,1.2-0.1,2.9-0.3,3.9c-0.5,3.4-0.2,3.7,3.3,2.4c1.4-0.5,1.4-0.5,1.4-0.2c-0.1,0.6,0.6,1.2,3.1,2.3c1.3,0.6,2.7,1.3,3.1,1.5
		c1,0.6,1,0.5,1.1-0.6c0.1-0.5,0.2-1.3,0.4-1.8l0.3-0.8l0.3,0.9c0.3,1,1.1,2.7,1.4,2.7c0.1,0,0.1-1.1,0.1-2.5c0-5,0.3-5.6,4-8
		c3.1-2,4.5-3.7,3.6-4.1c-0.2-0.1-0.6,0.2-1.3,1c-1.1,1.2-3.9,3.1-6,4.1c-1,0.5-1.5,0.8-2.3,1.8c-1.2,1.4-1.8,1.7-2.7,1.6l-0.6-0.1
		l-0.1-0.9c-0.1-1.3,2-3.3,3.8-3.8c0.7-0.2,0.8-1.1,0.1-1.1c-0.3,0-2.3,1-2.9,1.5c-0.5,0.4-0.8,0.5-1.6,0.6c-0.6,0.1-1.4,0.3-2,0.5
		c-2.7,1.2,0.2-1.6,3.3-3.3c3.2-1.7,4.7-3.2,5.8-5.8c0.7-1.5,0.8-1.7,1.2-1.7h0.4l-0.5,0.9c-0.3,0.5-0.5,1.2-0.6,1.6l-0.1,0.7
		l0.7-0.5c0.7-0.5,2.3-1.2,2.8-1.2c0.2,0-0.1,0.2-0.5,0.4c-2.1,1.1-4.5,4.7-3.1,4.7c0.2,0,0.5-0.4,0.9-1c1.8-3.1,5-4.4,7.9-3.2
		c2.5,1,4.1,0.9,5.2-0.4c0.7-0.8,0.6-1-0.5-1c-1.8,0-4.6-1-5.9-2l-0.5-0.4l0.4-1c0.3-0.7,0.4-1.3,0.4-2.1l0-1.1l-1.7,0.1
		c-2.5,0.2-3-0.3-2.1-1.6c0.2-0.3,0.3-0.7,0.3-0.9v-0.4l-1.5,0.1c-0.8,0-1.5,0-1.5,0c0-0.1,0.1-0.5,0.3-1.1
		C317.5,130,317.4,130,315.9,130.4 M162.7,132c0.4,1.2,1,2.2,1.9,3.3c0.4,0.5,0.7,0.9,0.7,1c0,0.2-1.4,1.4-2.2,1.9l-0.7,0.5l0.9,0.8
		c0.5,0.4,0.8,0.9,0.8,0.9c-0.1,0.1-1.4,0.9-2.9,1.8c-3.7,2.2-3.7,2.5-1.3,3.7c1.5,0.8,2,1.2,4,3.6c3,3.6,6.5,5.2,8.9,4.2
		c0.7-0.3,1.1-0.8,0.7-0.8c-1.1,0-6.3-2.1-6.5-2.7c-0.3-1,0.7-2.3,2.2-3c1.1-0.5,1.1-0.5-1.5-1.1c-2.4-0.6-3.3-1.2-3.3-2
		c0,0,0.4-0.5,0.9-1.1c1.4-1.6,1.9-3.5,1.5-5.4l-0.1-0.6h0.7c2,0,8.5,4.6,9.9,7c0.7,1.2,0.7,1.1,0.8-1l0-1.9l1.3,2.4
		c2.2,4.1,3.5,6.1,6.2,9.2c1,1.2,1.9,2.5,3.1,4.5c3.9,6.6,5.2,5.4,3.1-2.8c-0.6-2.3-0.8-4.5-0.5-5.7c0.4-1.5,0.1-1.1-0.8,1.4
		l-0.9,2.4l-1.1-1c-3.8-3.4-5.7-6-7.4-10.3c-2-4.8-3.3-6.8-5.2-7.7c-0.9-0.4-0.9-0.4-0.7,0.4c0.1,0.4,0.2,1.2,0.3,1.9l0.1,1.2
		l-1.6-1.1c-3-2-8.5-4.4-11-4.8l-0.7-0.1L162.7,132 M383.9,137c-0.7,1.5-2.6,3.4-4.4,4.6c-2.8,1.7-2.8,1.7-0.9,6.5
		c1.2,3.1,1.2,3.1,1.9,8c1.1,7.6,2.7,11.7,4.8,12.7c0.7,0.4,0.8,0.2,0.8-1.8l0-1.5l0.6,0.2c1.4,0.4,3.3-0.2,5.4-1.7l0.9-0.7
		l-0.4-0.7c-0.5-0.8-0.5-1.8-0.2-2.7c0.5-1.1,0.3-1.6-1.2-3.6c-1.5-2-2.4-4.1-2.5-6.4c-0.1-1.4-0.3-1.9-0.8-1.7
		c-0.6,0.2,0,4.3,1,6.1c0.2,0.3,0.3,0.6,0.2,0.6c-0.2,0-1.4-2.6-1.8-3.7c-0.3-0.9-0.4-1.7-0.5-3.6c-0.1-2.3-0.1-2.4-0.5-2.5
		c-0.5-0.1-0.6,0.6-0.5,3.1c0.1,3.1,1.4,6.2,3.5,8.8l0.8,1l-0.5-0.1c-1.7-0.4-2.8-1.6-3.8-4.4c-0.3-0.8-1.1-2.7-1.9-4.3
		c-2.4-5.1-2.6-6.9-0.7-10c0.8-1.4,1.1-2.2,0.9-2.7C384.3,136.3,384.1,136.5,383.9,137 M314.3,141.6c0,1.3-2.5,4.1-5,5.5
		c-2.4,1.3-3.5,2.1-4.3,3c-0.8,0.9-0.9,0.8-0.3-0.5c0.7-1.4,2.1-2.8,4.2-4.2c1-0.7,2.2-1.5,2.7-1.9
		C313.1,142.1,314.3,141.3,314.3,141.6 M152,142.5c-1.7,0.8-2.7,1-5.5,1c-2.8,0-3.4,0.1-3.4,0.7c0.1,0.4,5.1,0.5,6.7,0.1
		c2.1-0.5,4.1-1.5,3.8-2C153.6,141.9,153.2,142,152,142.5 M116.7,142.4c-3.9,0.4-5.2,0.6-7.2,1.4c-1.1,0.4-2.2,0.7-2.4,0.7
		c-0.7,0,0,0.3,1.2,0.5l1.2,0.2l-1.3,0.9c-2.6,1.7-5.2,2.7-8.6,3.6c-5,1.2-7.5,2.5-8.5,4.5l-0.2,0.5l0.7,0.2
		c0.7,0.2,2.1,0.9,2.1,1.1c0,0-0.2,0.4-0.5,0.8c-0.5,0.8-1,2.1-1,2.9v0.5l0.7-0.3c0.5-0.2,1.3-0.4,2.7-0.5c1.1-0.1,2.8-0.3,3.7-0.6
		c2-0.5,2-0.6,0.4,1c-1.5,1.5-2.5,2.3-3.8,2.8c-0.5,0.2-0.9,0.4-0.8,0.4c0.5,0,4.8-1.1,6.1-1.5c0.8-0.3,1.9-0.7,2.5-0.9
		c0.6-0.2,2.4-0.6,4-0.9c5-0.9,9.2-2.6,12.9-5.1c2.5-1.7,1.9-2-1.1-0.6c-4.3,1.9-7.8,2.8-11.4,2.8c-3.8,0-4.9-0.3-2.1-0.6
		c4.1-0.4,10-2.3,10-3.2c0-0.6-0.3-0.6-2.1,0.2c-4.4,1.9-10.6,2.8-13.2,1.9c-0.6-0.2-1.4-0.4-1.7-0.5l-0.7-0.1l1.1-0.5
		c1.9-0.9,2.4-1,7.3-1c4.9,0,5.7-0.1,7.3-1c1-0.5,1-0.7,0.1-1.1c-1.5-0.6-2.6-0.9-4.5-1l-1.8-0.1l1.7-0.6c6.5-2.2,9-2.2,11.6,0
		c0.4,0.3,0.7,0.6,0.8,0.6c0.2,0,0.1-1.6-0.2-2.3l-0.3-0.7l0.6,0.5c2.5,2.3,3.2,2.9,4,3.3l0.9,0.5l-0.1-0.6c-0.2-0.9-1.7-6-2-6.6
		C123.5,142.3,121.5,141.9,116.7,142.4 M153.4,143.4c-0.6,0.4-3.1,1.2-4.5,1.4c-1.5,0.2-1.9,0.4-1.4,0.9c0.8,0.8,7-1.2,7-2.2
		C154.5,143.2,153.8,143.1,153.4,143.4 M278.2,154.6c-1.4,0.2-2.7,0.9-4.8,2.3c-3.1,2.1-5.6,2.9-8.1,2.7l-0.9-0.1l0.5,0.7
		c0.7,1.1,0.9,1.8,0.9,3.1c0,0.4-0.1,0.4-2,0.4c-1.1,0-2.2,0-2.5,0.1l-0.5,0.1l0.5,0.3c0.6,0.3,1.5,1.6,1.9,2.9l0.3,0.8l1.5-1.3
		c1.8-1.6,2.8-2.3,3.5-2.3h0.5l-0.5-0.8c-0.6-1-0.4-1.2,1-1.2c1.3,0,2-0.4,4.1-2.3c2-1.9,4.1-3.4,6.1-4.5c0.8-0.4,1.4-0.8,1.4-0.8
		C280.9,154.5,278.8,154.5,278.2,154.6 M173,155.4c-0.1,0.4,0.2,0.9,1.2,1.5c1.9,1.1,7.9,0.2,6.4-0.9c-0.2-0.1-0.5-0.1-1.5,0.1
		c-2.2,0.6-4.3,0.4-5.2-0.6C173.6,154.9,173.1,154.9,173,155.4 M175.5,157.8c-0.4,0.9,3.8,2.4,6.6,2.4c1.8,0,2.2-0.2,2.2-0.6v-0.4
		l-2.2,0c-2.4,0-3.5-0.3-5.1-1.2C176.1,157.4,175.6,157.4,175.5,157.8 M294,159.6c-6.6,3.3-7.8,8.2-3.7,14.9c1.5,2.5,2.2,4,2.8,6.2
		c1,3.9,2.8,6.2,5.6,7.5c0.8,0.4,0.8,0.4,0.3-1.1c-0.6-1.7-1-3.8-1-5.4v-1.4l0.4,0.7c2.9,4.3,8.3,6.7,13.1,5.8
		c1.4-0.3,1.4-0.2-0.4-2.3c-1.2-1.3-1.5-1.8-1.2-1.7c1.9,0.6,2.7,0.7,4.4,0.8c1,0,1.8-0.1,1.8-0.2c0-0.4-0.7-2-1.2-2.7
		c-0.6-0.9-0.6-0.9,0.6-1.2c1.1-0.3,3.1-1.2,3.7-1.7l0.4-0.3l-3.6-1c-3.3-0.9-3.7-1.1-4.4-1.6c-2.6-2.2-9.4-3.6-9.4-1.9
		c0,0.4,0.1,0.4,0.8,0.4c3.3-0.1,7.2,1.2,8.7,2.9c0.3,0.3,0.8,1.7,0.7,1.7c-0.1,0-1.2,0.1-2.6,0.2c-5.9,0.4-9.1-0.5-11.9-3.3
		c-1.1-1.1-1.1-1.2,0.2-0.5c2.5,1.5,7.2,2.4,7.2,1.4c0-0.4-0.1-0.4-1.6-0.6c-1.8-0.3-3.7-0.8-4.9-1.5c-2.8-1.6-3-2.7-0.4-2.3
		c0.9,0.1,3,0.4,4.7,0.5c5.5,0.4,7.7,1.1,9.7,2.9c0.8,0.7,1.3,0.8,1.4,0.2c0.1-0.7-2.5-2.4-4.5-3.1c-1.2-0.4-3.5-0.7-6-0.9
		c-6.6-0.5-7.1-1-1.1-1.1c6.4,0,11.3,1.7,13,4.5c0.6,0.9,1.6,0.8,1.1-0.1c-1.3-2.6-5.3-4.6-9.6-5c-1.4-0.1-1.4-0.3,0.1-0.5
		c2-0.3,2.6-0.4,3.6-0.2c1.1,0.1,1.1,0.1,0.6-0.4c-1.2-1.1-2.1-1.3-6.2-1.3c-5.5,0-8.2-0.6-9.5-1.8c-0.4-0.4-0.5-0.5-0.3-0.5
		c1.4,0.5,2.9,0.4,6-0.1c2-0.3,3.6-0.2,5.8,0.6c0.2,0.1-0.1-0.2-0.7-0.5c-0.6-0.4-1.6-1-2.3-1.5c-2.1-1.5-3.1-1.8-6.3-1.8
		c-1.4,0-2.6-0.1-2.6-0.1c0-0.2,0.5-1.2,0.9-1.7C296.5,158.3,296.3,158.4,294,159.6 M217.1,159.9c-0.7,0.2-2.1,0.4-3.1,0.5
		c-2.2,0.2-3.4,0.8-4.6,2.1c-0.5,0.5-0.9,0.8-0.9,0.8c0-0.4,0.7-2.3,0.9-2.5c0.7-0.6,0.1-0.4-1.6,0.4c-4.5,2.3-11.9,6.3-11.8,6.5
		c0,0,0.7-0.1,1.4-0.4c1.8-0.6,3.1-0.7,4.3-0.3c1.7,0.5,2.5,0.4,4.8-0.6c4.5-1.8,5.1-1.9,3.8-0.8c-2.6,2.2-4.1,4.2-3.9,4.8
		c0.2,0.5,0.8,0.3,1-0.3c0.9-1.8,3.2-3.8,5.1-4.4c0.3-0.1,0.1,0.1-0.4,0.5c-1.9,1.4-3.6,3.6-3.3,4.1c0.3,0.5,0.7,0.4,1.1-0.3
		c1.3-2.2,4.9-4.7,6.5-4.7l0.5,0l-0.7,0.3c-1.1,0.5-3.5,2.1-3.5,2.4c0,0.7,0.5,0.7,1.6-0.1c2.3-1.5,4.5-2.4,5.7-2.3l0.7,0.1
		l-0.7,0.5c-1.2,0.7-2.8,2.7-2.3,2.7c0.6,0,5.1-2.9,7.1-4.5c1.2-1,1.2-1,0.9,0.2c-0.4,2.1-1.9,4.2-3.7,5.4c-0.8,0.5-0.9,0.7-0.5,0.6
		c2.1-0.5,3.6-0.5,5.5,0l1,0.3l-0.7,0.2c-1,0.3-1.6,0.6-2.4,1.4c-1.3,1.3-1.2,1.4,0.9,0.8c1.7-0.5,1.7-0.5,0.8,0.6
		c-1.8,2.1-2.5,4.3-1.5,4.3c0.1,0,0.3-0.2,0.4-0.5c0.8-2.2,2-3.6,3.7-4.5l0.7-0.4l-1,1.1c-1.3,1.4-2.1,2.8-1.7,3.2
		c0.4,0.4,0.7,0.3,1-0.4c1.7-3.3,5.6-5.7,9.4-5.6c0.6,0,1,0.1,0.8,0.1c-3.4,0.8-6.8,3-8.7,5.7l-0.4,0.5l1.5,0.7
		c0.8,0.4,3.4,1.6,5.7,2.7l4.1,2l-0.5,0.2c-0.3,0.1-1.3,0.3-2.3,0.4c-3.4,0.3-4.4,0.8-3.7,2c0.6,1,1.1,1.1,4,1.2l2.6,0.1l-0.6,0.4
		c-1.6,0.9-6.5,2.6-7.1,2.4c-0.1,0-0.4-0.4-0.6-0.9c-0.4-0.8-0.9-1.1-1.2-0.7c-0.2,0.3,0.1,1.1,0.9,2.3c0.8,1.1,0.8,1.4,0,0.6
		c-0.7-0.7-1.5-0.6-1.1,0.3c0.1,0.4,2.2,1.9,3.1,2.2c0.4,0.2,1.3,0.6,1.9,0.9c1.4,0.8,0.9,0.7-1.3-0.2c-1.9-0.7-2.2-0.8-2.2-0.2
		c-0.1,1.1,6,2.6,8.5,2.1l1.1-0.2l-0.5,0.7c-3.1,3.9-9.2,5.5-12.7,3.3c-1-0.6-0.4,0.7,0.8,1.7l0.5,0.5l-0.4,0
		c-0.6,0-2.3-0.3-3.2-0.6c-1.1-0.4-2.3-2-2.7-3.8c-0.2-0.9-0.6-1.3-1-1.1c-0.3,0.2-0.1,1.3,0.4,2.5c0.4,1.1,0.3,1.2-0.3,0.4
		c-0.6-0.7-1.2-1.9-1.6-3.3c-0.4-1.3-0.7-1.6-1.1-1.2c-0.3,0.3,0,1.7,0.8,3.2c0.3,0.5,0.5,1.3,0.6,1.6c0.4,2.7,3.1,4.5,7,4.5
		c1.3,0,1.5,0,1.3,0.2c-0.4,0.5-2.2,1.3-2.9,1.3c-1.6,0,0.1,0.6,2.7,1c3.2,0.5,6.5,0,10.8-1.5c1.5-0.5,5-1.7,7.9-2.7s5.6-2,6.1-2.2
		l0.8-0.4l-1.1-0.1c-2.8-0.3-1.5-1.5,3.4-3.1c2.4-0.8,4.3-1.7,5.3-2.5l0.6-0.5l-1.4,0.1c-2,0.1-3.8-0.5-3.3-1
		c0.1-0.1,0.5-0.1,1.2,0.1c2,0.5,4.3,0.1,5.2-0.8c0.6-0.7,0.6-0.8-0.2-0.6c-1.1,0.3-4-0.6-3.3-1c0.1-0.1-0.1-0.3-0.6-0.5
		c-1.7-0.8-3.6-3.5-2.4-3.5c0.2,0,0.4,0.2,0.5,0.5c1,2.1,3,3.1,4.4,2.2c1.7-1.1,5.3-5.6,4.5-5.6c0,0-0.5,0.1-1,0.3
		c-1.8,0.6-4.1,0.6-4.3-0.1c0-0.2,0.1-0.3,1.4-0.3c1.6,0,3.1-0.4,4-1.1c0.6-0.5,0.8-1.1,0.3-0.8c-1.4,0.7-5.2-2.1-4.4-3.3
		c0.2-0.3,0.6-0.2,0.8,0.3c0.3,0.7,1,1.5,1.3,1.5c0.3,0,0.3,0,0-0.7c-0.4-0.9-0.4-1.7-0.1-1.9c0.3-0.1,0.6,0.5,0.6,1.1
		c0,1.6,2.2,1.6,4.1,0c0.8-0.7,0.9-1,0.4-1c-0.9,0-1.5-0.5-2.4-1.9c-1.1-1.8-2-2.5-4.8-3.9c-1.2-0.6-3.1-1.6-4.2-2.2
		c-7.9-4.4-10.9-5.2-15.7-4c-1.5,0.4-1.5,0.4-1.5,0c0-0.5,1.8-1,4-1.1c4.4-0.2-2.5-1.3-8.6-1.3c-4,0-4.7,0-4.4-0.2
		c0.6-0.4,2-1,2.9-1.2c0.9-0.2,1.3-0.5,0.7-0.5c-0.2,0-0.9-0.1-1.7-0.2c-4.5-0.5-14.3-0.6-16.7-0.1c-0.7,0.1,0.6-0.9,1.5-1.2
		l0.8-0.2l-1.2,0C219,159.6,217.9,159.7,217.1,159.9 M178.1,160.5c-0.7,1.3,7.9,3.2,9.4,2.1c0.8-0.6,0.2-0.8-1.9-0.8
		c-2.3,0-4.1-0.3-5.9-1.2C178.3,160.1,178.3,160.1,178.1,160.5 M85.2,160.7c-0.9,0.2-1.9,0.8-2.9,1.7c-0.5,0.5-1.5,1.3-2.2,1.9
		c-1.8,1.5-4.8,5.4-3.8,5c2.7-1,3.2-1.1,3-0.4c-0.2,0.6-0.4,0.7-2.8,2.8c-5.3,4.5-7.2,7.6-6.7,11c0.1,0.9,0.2,0.9,1,0.4
		c0.7-0.5,2.5-1,3.2-0.9c0.7,0.1,0.8,0.7,0.4,1.7c-0.1,0.3-0.2,0.6-0.2,0.7c0.1,0.1,2.6-2.1,3.2-2.9c0.8-1,0.9-1,0.9,0.4
		c0,1.1-0.5,2.5-1.1,2.9c-0.2,0.1-0.3,0.3-0.3,0.4c0,0.3,0.5-0.2,1.6-1.8c1.5-2.1,2.3-3,4.2-4.5c2.5-2,4.4-4,3.8-4
		c-0.4,0-8.3,2.1-9.1,2.4l-0.7,0.3l0.4-0.3c1.1-0.9,3.6-2,5.9-2.4c0.7-0.1,1-0.6,0.6-0.9c-0.5-0.5-4.7,0.9-6.7,2.3l-1.4,0.9l1.3-1.5
		c3.7-4.4,6.1-5.6,8.7-4.6c0.3,0.1,0.3,0.1-0.1-0.3c-0.5-0.6-1.8-1.5-2.4-1.7c-0.8-0.2-0.7-0.3,0.3-1c2.4-1.5,6-1.8,8.4-0.6l0.6,0.3
		v-0.4c0-1.2-2.2-2.6-4.4-2.9l-1-0.1l0.9-0.3c0.5-0.2,1.4-0.3,2-0.3c1.2,0,1.2,0,0-1.3C88.8,161,86.8,160.3,85.2,160.7 M397.8,163.6
		c-3.1,2.2-6.8,3.7-9.2,3.7c-0.6,0-0.7,0.1-0.8,0.4c-0.5,2,4,2.6,7,0.9c1-0.5,1.1-0.5,0.5,0.3c-0.9,1.3-2.1,1.7-5.1,1.7
		c-1.2,0-2.2,0-2.1,0.1c2,1.7,5.3,2.1,10.9,1.6c1.6-0.2,3.4-0.3,3.9-0.2c1.1,0,1.1-0.1,0.5-1.2c-0.4-0.7-0.8-1-1.5-1.4l-0.5-0.3
		l0.8,0.1c0.4,0.1,1.2,0.2,1.6,0.4c1.4,0.6,2,0.1,1.8-1.4c-0.4-2.9-4.2-4.3-7.8-3c-0.3,0.1-0.1-0.7,0.5-1.8
		C398.7,163.1,398.6,163.1,397.8,163.6 M285.4,167c-1.2,0.8-4.2,3.7-5.6,5.4c-0.5,0.6-1.1,1.3-1.3,1.5c-2.9,2.6-3.6,3.5-6,7.6
		c-0.7,1.2-1.7,2.7-2.1,3.3c-2.4,3-2.3,3.8,0.6,5c2.6,1,4,2,5.1,3.5c2.4,3.2,6.4,2,5-1.5c-1-2.5-0.3-6.5,1.4-8.8
		c0.3-0.4,0.4-0.6,0.3-0.8c-0.9-1.4-3.2,3.4-3.2,6.6l0,0.8l-0.4-0.8c-0.9-1.7,0.3-5.6,2.4-8.2c0.4-0.5,0.6-0.9,0.6-1
		c-0.4-1.1-2.6,1.6-3.6,4.4l-0.4,1.2l0.1-1.8c0.2-3.2,3.2-6.5,6.5-7c1-0.2,2.1,1.6,3.3,5.7c0.3,1.1,0.9,2.6,1.2,3.4
		c0.8,1.9,0.5,3.1-1.4,5.1c-0.9,1-1,1.2-0.7,1.5c0.3,0.3,1.3-0.4,2-1.4c0.7-0.9,0.7-0.6,0,0.8c-0.5,1-1.3,1.8-2.3,2.3
		c-0.8,0.4-1.1,0.9-0.5,1.1c1.3,0.5,3.7-2.3,4.5-5.1l0.3-1l0.4,0.4c0.4,0.4,0.4,0.5,0.1,1.4c-0.7,3-3.2,5.2-6.2,5.3
		c-0.8,0-1.2,0.2-1.2,0.6c0,0.7,2.3,0.6,4.1-0.3c1.9-0.9,3.8-3.1,4.1-5c0.1-0.6,0.2-0.6,0.9,0.1l0.6,0.6l-1.3,1.5
		c-1.5,1.8-1.5,1.5-0.7,2.2c1,0.8,0.3,1.3-2.8,1.9c-2,0.4-3.6,1.2-3.2,1.6c0.2,0.2,1.5,0.4,1.5,0.3c0-0.5,4.5,1.7,6.2,3.1
		c0.6,0.5,0.8,0.3,0.8-0.8c0-0.9-0.5-2-1.2-2.6c-0.4-0.4-0.5-0.4-0.2-0.5c2-0.7,5.5-2.6,5.7-3c0-0.1-0.6-0.2-1.5-0.3
		c-0.9-0.1-1.9-0.2-2.3-0.3l-0.7-0.2l0.5-0.7c0.4-0.6,2.3-2,3.1-2.3c0.4-0.2,0.3-0.4-0.3-0.6c-1-0.3-3.5-2.1-4.5-3.2
		c-1.9-2.1-2.8-3.7-3.7-6.9c-0.2-0.8-0.9-2.5-1.5-3.8c-1.5-3.3-1.9-5.7-1.4-9.6C286.6,166.2,286.7,166.2,285.4,167 M197.9,168.2
		c-2.2,0.6-2.9,2.8-1.3,3.8c1,0.6,1.4,0.4,0.6-0.3c-1.2-1.1-0.9-2.3,0.7-2.8c0.7-0.2,1.2-0.1,0.8,0.2c-1,0.6,0.8,1.9,2.4,1.7
		c0.4,0,0.7,0,0.7,0.1c0,0.4-0.7,1.5-1.2,1.9l-0.5,0.4l0.5,0c1.7,0,3-1.5,2.5-3C202.8,168.5,200.2,167.6,197.9,168.2 M91.7,168.4
		c-0.1,0.1-0.4,0.7-0.6,1.3c-0.4,0.8-0.8,1.3-1.9,2.3c-1.4,1.3-1.7,1.8-0.9,1.8c0.8,0,4-3.5,4-4.5c0-0.1,0.1-0.2,0.2-0.2
		s0.2-0.2,0.1-0.5C92.5,168.2,92,168,91.7,168.4 M190.7,169.9c-1.9,0.5-4.2,2.6-4.9,4.4c-0.1,0.4-0.4-0.3-0.4-0.9
		c0-0.8-0.2-0.8-0.8,0c-1.5,1.8-1.9,3.6-1,4.5c2.2,2.3,8.5,4.7,8.3,3.2c0-0.3-0.3-0.4-1.5-0.7c-1.8-0.5-5.2-2.1-4.9-2.3
		c0.1-0.1,4.1,0.9,5,1.3c1.8,0.9,3.6,1.2,6.9,1.2l3,0V180v-0.4l-3-0.1c-3.9-0.2-5.1-0.4-1.9-0.5c2.6,0,3.5-0.2,4.2-0.8l0.5-0.4
		l-0.7,0c-1.6,0-7.3-2.2-8.4-3.2c-0.8-0.8-0.9-2.3-0.2-4C191.3,169.7,191.3,169.7,190.7,169.9 M194.5,170.1
		c-1.6,1.7-0.4,3.7,2.6,4.4c2.6,0.7,4.6,0.5,5.7-0.5c0.7-0.6,1.2-1.8,0.9-2.1c-0.1-0.1-0.2-0.1-0.2,0.1c0,1.1-3.1,2.2-4.9,1.8
		c-2.9-0.7-4.1-1.8-3.4-3.4C195.6,169.8,195,169.6,194.5,170.1 M214.3,171.9c-1.4,0.5-2.1,1.4-2.1,2.5c0,1,0.2,1.2,0.5,0.3
		c0.4-1.3,1.5-2.3,2.6-2.3h0.4l-0.4,0.4c-1.5,1.5,0.9,4.2,2.8,3.2l0.5-0.2l-0.3,0.6c-0.4,0.7-1.3,1.6-1.9,1.8
		c-0.7,0.2-0.5,0.4,0.6,0.5c3.2,0.3,4.6-1.5,3.4-4.1C219.2,172.2,216.7,171.1,214.3,171.9 M210.4,174.4c-1.7,1.8,0.3,6.2,3.1,7.1
		c5.2,1.6,10.1-1.4,8.7-5.4c-0.4-1.1-0.7-1.2-0.7,0c0,2.4-1.6,3.8-4.3,3.8c-3.6,0-6.2-2.1-6.2-4.9
		C211.1,173.9,210.9,173.8,210.4,174.4 M283.8,174.7l0.5,0.5l-1,0.3c-1.1,0.3-2.6,1.2-3.6,2.2l-0.7,0.6l0.3-0.8
		c0.4-1.2,2.2-3,3.3-3.2c0.3-0.1,0.5-0.1,0.6-0.1C283.2,174.2,283.4,174.4,283.8,174.7 M162.7,175.2c0,0.1,0.8,0.6,1.7,1.3
		c4.9,3.5,5.8,6,4.6,12.1c-0.3,1.4-0.5,3-0.6,3.6l-0.1,1.1l0.7-0.7c1.2-1.3,1.9-3,2-4.8c0.1-1.8,0.4-2.6,1.2-2.9
		c0.9-0.5,2.6-1.6,2.6-1.8c0-0.1-0.4-0.3-0.9-0.5c-1.4-0.5-1.8-1.1-1.7-2.4c0.2-2.7,0.1-3.5-0.2-4c-0.6-0.7-0.7-0.7-1.1,0.6
		c-0.4,1.3-0.7,1.6-1,1.1c-0.5-0.9-3-2.8-3.2-2.5c0,0,0.1,0.3,0.2,0.6c0.1,0.3,0.3,0.5,0.3,0.6s-0.5-0.2-1.2-0.5
		C164.9,175.4,162.7,174.9,162.7,175.2 M129.4,175.7c-1.3,0.2-2.9,1.4-2.3,1.6c0.1,0,0.8,0.2,1.4,0.4c2.3,0.7,2.3,0.8-1.1,1
		c-4.7,0.3-7,0.9-9.9,2.7c-1.9,1.2-2.4,1.4-3.6,1.8l-0.9,0.3l0.6,0.3c1.7,0.7,4.1,1,5.7,0.6l0.6-0.1l-0.1,0.5
		c-0.2,0.7-0.7,1.7-1.2,2.3l-0.5,0.6l1.9,0.2c2.3,0.2,2.5,0.3,3,1.5c1.5,3.2,1,7.6-1.4,11.5c-0.7,1.2-0.7,1.3,0.7,0.3
		c3.1-2.1,6.8-6.5,8.4-9.9c0.8-1.8,1-1.6-1.7-1.7l-2.3-0.1l0.7-1.1c0.4-0.6,1.2-1.6,1.9-2.3c0.7-0.7,1.2-1.3,1.2-1.3
		c-0.2-0.2-2.2-0.4-3.4-0.3c-1.5,0.1-1.5,0.1-1-0.7c1.4-2.3,6.9-3.5,16.7-3.7c5.5-0.1,5.9-0.2,6.7-1l0.3-0.4l-0.7,0.1
		c-1,0.2-3.1-0.2-5.6-1C138.9,176.1,132.2,175.2,129.4,175.7 M160.7,176.4c0,0.1,0.2,0.5,0.3,0.8c0.4,0.8,0.4,0.8-0.3,0.6
		c-0.7-0.2-1.8-0.3-2.3-0.1c-0.2,0.1,0,0.3,1,0.8c2,1,2,1,0.2,2.1c-0.7,0.4-1.5,1.3-1.5,1.7c0,0.1,0.5-0.1,1-0.4
		c1.4-0.7,3.3-0.9,3.7-0.3c0.4,0.5-0.1,3.1-0.7,4.1c-0.2,0.3-0.3,0.5-0.3,0.5c0,0,0.3-0.2,0.5-0.6c0.7-1,2.3-2.2,3-2.2
		c0.4,0-0.1,1.2-0.9,2.3c-0.9,1.2-0.7,1.3,0.3,0.1c2-2.4,1.9-3.4-0.3-5.2c-1.1-0.9-1.7-1.7-1.9-2.5
		C162.5,177.1,160.7,175.6,160.7,176.4 M156.5,177.5c-2.1,1.8-3.1,2.3-4.6,2.6c-0.7,0.1-1.6,0.4-2.1,0.5c-1.2,0.4-3.7,2.3-2.5,2
		c1.1-0.3,2.8-0.3,2.5,0c-0.5,0.7-1.9,1.7-3.6,2.6c-2.2,1.1-3.3,2-4.5,3.6c-0.5,0.7-1.1,1.4-1.3,1.6c-0.5,0.4-0.3,0.4,1.4-0.5
		c2.5-1.2,2.6-1,1.2,1.5c-1.3,2.3-2.3,5.9-2.3,8.5l0,1.2l0.3-0.4c0.2-0.2,0.9-1.3,1.6-2.3c2.1-3.1,2.5-3.5,3.7-4.2
		c1.4-0.9,2.9-1.7,2.8-1.4c-0.1,0.1-0.5,0.7-1,1.4c-2,2.8-3.2,5.8-3.4,8.4c-0.1,1.8,0,1.9,1,0.7c1.2-1.3,2-2.5,3.8-6
		c0.9-1.7,2-3.6,2.4-4.2l0.7-1l0.1,0.7c0.2,2.1-1.9,7.3-4.2,10.9c-1.1,1.7-1.1,1.8-0.2,1.6c1.1-0.3,2.1-1,3.5-2.6
		c2.2-2.5,3.5-3.8,3.8-3.9c0.6-0.3-1.6,3.7-3.8,6.8c-1.4,2-1.3,2,0.9,0c6.5-5.9,12.4-13.9,14-18.9c0.4-1.3,0.5-2,0.1-1.5
		c-0.5,0.8-8.6,11.4-8.7,11.3c-0.1-0.1,0.3-4.1,0.4-4.7c0.2-0.7-0.2-0.4-1.5,1.6l-1.3,1.9l-0.1-4.6c-0.1-2.5-0.1-4.6-0.1-4.7
		c0,0-0.2,0.1-0.4,0.4l-0.4,0.5l0-0.5l0-0.5l-1.5,0.8c-2.2,1.1-4.9,3-6.7,4.7c-0.9,0.8-0.9,0.8-0.7,0.3c0.5-1.6,4.1-6.1,8.2-10.2
		c1.5-1.5,2.8-2.9,3.1-3.4c0.3-0.5,0.6-1,0.8-1.2C158.4,176,157.8,176.4,156.5,177.5 M183.5,180.8c-0.4,0.1-0.7,0.2-0.8,0.1
		c-0.1,0-0.1,0-0.1,0.1c0,0.3,0.8,0.9,1.1,0.9c0.5,0,2.1,0.5,2.4,0.7c0.4,0.4-0.2,0.6-1,0.3c-1.7-0.6-4-0.5-6.1,0.4l-0.6,0.3
		l0.3,0.3c0.3,0.3,0.4,0.3,1.7,0.1c1.7-0.3,2.1-0.3,2.2,0c0.1,0.4-0.2,0.5-1.4,0.7c-3.1,0.3-5.6,2.7-9.1,8.9
		c-1.6,2.8-2.2,3.6-3.7,5.1c-2.1,2-2.1,2.4-0.2,2.4c1,0,3-1.9,3.4-3.2c0.1-0.5,0.7-0.4,0.7,0.1s-0.6,1.5-1.7,2.6
		c-0.8,0.8-0.9,1-1,1.8c-0.1,0.5-0.5,1.9-0.9,3.1c-1.7,4.8-1.7,4.8-2.1,12.3c-0.2,4.2-0.4,5.6-0.8,6.5c-0.4,0.8-0.3,0.8,0.6,0.2
		c1.9-1.4,2.5-2.5,2.8-5.5c0.1-1.1,0.3-1.4,0.7-1.2c0.2,0.2,0,2.1-0.4,4.1c-0.4,1.6-0.3,2.8,0.3,6.1l0.1,0.5l0.4-0.3
		c0.2-0.2,0.6-0.3,0.7-0.3c0.3,0,0.3-0.1,0.1-0.6c-0.2-0.7-0.2-3.7,0-4.5c0.2-0.8,0.8-0.7,0.7,0.2c-0.2,1.3-0.1,3.8,0.2,4.6l0.2,0.8
		l0.2-1.2c0.3-1.9,0.7-2.9,1.1-2.9c0.4,0,0.4,0-0.1,1.8c-0.4,1.7-0.3,3.1,0.3,3.4c0.6,0.3,2.4,0.4,2.9,0.2c0.9-0.3,1.2-3.7,0.7-6.4
		c-0.2-0.8-0.2-1.5-0.2-1.6c0.2-0.3,0.6-0.2,0.7,0.3c0.1,0.3,0.1,0.6,0.2,0.7c0.2,0.7,0.4,3.3,0.3,4.4c-0.1,0.7-0.1,1.3-0.1,1.3
		c0.2,0,0.4-1.2,0.7-2.9c0.2-1.3,0.4-2.3,0.7-2.8l0.4-0.8l0.1,0.6c0.1,0.3,0.3,1,0.4,1.6l0.3,1l0.2-1c0.7-3.3,1.3-9.4,0.9-9.4
		c-0.6,0-3.1,2.4-4.3,4.2l-0.6,0.9l0.1-0.7c0.1-0.4,0.5-1.9,1-3.4c1.2-3.5,1.2-4.1,0.1-3.5c-0.2,0.1-0.3,0.1-0.3,0.1
		c0-0.4,1.2-2.5,2.4-4.2c1.9-2.9,2-3.1,1.1-2.3c-1.4,1.2-3.5,2.5-3.7,2.4c-0.5-0.2-0.3-0.4,1-1.3c2.6-1.9,4.5-3.7,6.6-6.6
		c0.4-0.5,1.1-1.4,1.6-1.9c0.9-1,0.9-1,0.4-0.9c-1.1,0.3-3.6,1.7-4.7,2.7l-1.1,1l0.3-0.6c0.8-2,3.1-5.1,5.7-7.8
		c1.4-1.5,1.2-1.4-1.3,0.2c-2.2,1.5-3.7,2.9-4.2,4.1c-0.3,0.8-0.9,1.1-0.9,0.4c0-1.4,2.4-3.8,5.7-5.9l1.3-0.8l-0.8-0.4
		c-1.1-0.5-2.7-0.5-3.8,0c-0.9,0.4-1.2,0.4-1.2-0.1c0-0.3,1.6-1,3.1-1.2c1.9-0.3,5.6-1.8,6.2-2.4c1.2-1.5,0.1-2.5-5-4.5
		C184.2,180.4,184.4,180.4,183.5,180.8 M60.1,182.6c-0.3,0.3-0.1,0.9,0.4,1.5c0.3,0.3,0.5,0.6,0.4,0.6c-1.4,0-3.4,0.7-4.9,1.7
		c-1.4,0.9-2.7,1.4-3.8,1.4c-0.9,0-0.9,0.2,0.1,0.9l0.8,0.5l-1,0.4c-1.1,0.4-2.2,0.5-3.2,0.2c-2.1-0.6-0.8,2.1,1.4,2.9
		c1.1,0.4,1.2,0.5,0.3,1c-0.6,0.4-1.1,0.5-2.1,0.6l-1.3,0.1l0.8,0.4c0.7,0.3,1.1,0.4,2.4,0.4h1.5l-0.5,0.8c-0.6,1-1.2,1.4-2,1.6
		l-0.6,0.1l0.8,0.1c2,0.3,5.4-0.8,6-1.9c0.4-0.9-0.6-2.6-1.9-3.3l-0.6-0.3l1.1-1.1c2.1-2.1,4.4-2.7,6.6-1.5c1.2,0.6,1.3,0.5,0.5-0.4
		c-0.6-0.7-1.2-1.1-2.2-1.2l-0.7-0.1l0.7-0.3c1.9-1,4-1.2,7.7-0.8c1.4,0.1,3.1,0.3,3.7,0.3l1.2,0l-0.8-0.8c-1.6-1.5-3.7-2.1-5.5-1.6
		c-0.7,0.2-0.7,0.1,0.3-0.5c0.8-0.5,0.8-0.6-1.8-0.7c-1.9-0.1-2.2-0.2-3-0.6C60.6,182.7,60.1,182.6,60.1,182.6 M225.3,182.7
		c-0.5,0.2-0.9,0.8-0.9,1.3c0,0.3,0,0.3,0.4-0.1c0.4-0.5,1-0.8,1.5-0.8h0.4l-0.3,0.4c-0.6,0.8-0.2,2,0.8,2.1l0.5,0.1l-0.4,0.3
		c-0.2,0.2-0.7,0.3-1,0.3c-0.7,0-0.7,0.2,0.1,0.5c2,1,3.4-0.7,2.3-2.8C227.9,182.9,226.3,182.2,225.3,182.7 M223.5,183
		c-0.5,0.3-0.9,1.6-0.8,2.5c0.3,3.2,6.2,4.3,6.7,1.2c0.2-0.9-0.1-1.3-0.3-0.6c-0.8,1.8-3,1.8-4.6,0.1c-0.8-0.9-1-1.7-0.5-3
		C224.1,182.8,224,182.8,223.5,183 M323.6,183.2c-0.3,0.1-1.6,0.2-2.9,0.3c-2.7,0.2-3.2,0.3-5.2,1c-1.8,0.7-1.8,0.6-1.1,1.1
		c0.8,0.6,0.8,0.6-0.6,1.9c-1.7,1.7-3.8,2.6-5.9,2.6l-0.7,0l0.8,0.5c1.2,0.8,1.7,1.9,1.9,4c0.1,0.9,0.2,2.3,0.3,3.1
		c0.2,1.9,2.4,8.6,2.8,8.3c0,0,0-0.7-0.2-1.5c-0.4-2.1,0-5.2,0.7-5.2c0.4,0,1.8,4.2,2.9,8.9c1.1,4.4,2,6.8,3.2,8.2
		c0.4,0.5,0.4,0.5,0.3,0.1c-0.3-1.7-0.2-4.7,0.3-4.7c1.4,0,4.8,3.3,5.2,5c0.2,0.7,0.4,0.5,0.8-0.6c0.4-1.2,0.3-3.2-0.2-4.7
		c-0.5-1.5-0.1-1.4,1.7,0.5c1.9,1.9,3.3,2.7,5.4,2.8l1.3,0.1l-0.4-0.6c-0.2-0.4-0.5-0.8-0.6-1c-0.2-0.4-1.1-2.5-1.1-2.7
		c0-0.1,0.6,0,1.4,0.3c4.4,1.3,4.7,0.6,1.6-4c-1.1-1.7-4.1-7.4-3.9-7.4c0.1,0,0.6,0.3,1.1,0.8c0.6,0.4,1.1,0.9,1.3,1
		c0.2,0.1,0.2,0.1,0.1-0.1c-0.3-0.6-5-6.5-5.1-6.5c-0.7,0,0.3,3.2,1.9,6.2c1.9,3.6,2.3,6.6,0.9,7.1c-1.2,0.5-7.5-1-8.3-2
		c-0.5-0.6-0.7,2-0.2,3.9c0.1,0.6,0.2,1.1,0.2,1.1c-0.2,0.2-3.2-5.3-4-7.3c-0.4-1.1-0.7-0.6-1.4,2.6c-0.1,0.7-0.2,0.4-0.5-2.9
		c-0.3-3.8-0.1-6.7,0.6-7.2c0.3-0.2,2.1,4,2.4,5.3c0.2,1,1.1,3.1,1.3,3.1c0,0,0-0.6,0-1.3c-0.1-1.5,0.2-3,0.9-4.3
		c0.6-1.1,0.7-1,1.1,0.4c0.7,2.7,2,4.3,4,4.8c1.6,0.4,1.8,0.2,0.6-1c-1-1-1.9-2.8-3.7-6.6l-0.5-1.1l0.4,0.1c0.2,0.1,0.8,0.3,1.2,0.5
		c0.4,0.2,0.8,0.4,0.8,0.4c0,0-1.6-1.5-3.6-3.2c-1.9-1.6-2.1-2.3-0.9-3.8c0.4-0.6,0.3-0.9-0.6-1.5c-0.8-0.6-2-1.6-2-1.8
		c0-0.1,0.4-0.2,0.9-0.2c1.6-0.2,3.5-1.4,4.2-2.7C324.7,183,324.5,182.9,323.6,183.2 M199.8,183.8c0,0.3,0.3,0.7,0.7,1.1
		c0.7,0.7,1,1.4,0.6,1.7c-0.2,0.2-0.2,0.1-0.4-0.1c-0.1-0.2-0.5-0.6-0.8-1l-0.6-0.7l-1,0.3c-1.4,0.4-2.1,1.1-3,3.1
		c-2.3,4.6-4.8,8.7-6.8,11c-2.3,2.7-3,4-3.7,7.1c-0.7,3-0.7,3.4,0,1.9c1-2.2,2.6-4.6,3.2-4.6c0.5,0,0.4,0.5-0.3,1.4
		c-0.9,1-1.8,2.6-2.4,4.1c-0.5,1.3-0.4,1.3,0.6-0.1c0.9-1.4,2.6-3.3,3-3.3c0.5,0,0.4,0.5-0.4,1.3c-1.4,1.5-2.1,2.4-2.4,3.7
		c-0.2,0.7-0.8,2.3-1.3,3.5c-1.1,2.8-1.5,4.6-1.7,7.2c-0.2,5,1.9,11.3,4,11.7c1,0.2,1-0.1,0.2-1.8c-1.2-2.4-1.8-5.1-1.1-5.1
		c0.2,0,0.4,0.2,0.5,1c0.2,1.3,1.1,3.5,1.5,4.2l0.3,0.5l-0.1-3.7c-0.1-4.5,0-5.9,0.5-5.9c0.3,0,0.3,0.1,0.3,2.5
		c-0.1,4,0.3,5.6,1.3,6.6l0.5,0.5l1.4-1.3c2.2-2.1,4-5.2,5.3-9c0.6-1.8,0.7-4.4,0.3-7.6c-0.1-1-0.3-2-0.3-2.2c0-0.2,0.1-0.3,0.3-0.4
		c0.4-0.1,0.6,1.1,0.9,4.1c0.2,2.1,0.2,2.2,0.7,0.6c0.6-2.1,0.7-3.3,0.8-6.5c0.1-2.8,0.1-3,0.4-3c0.3,0,0.3,0.1,0.4,3.3
		c0.1,1.9,0.2,3.9,0.2,4.5l0.1,1.1l0.7-1.2c1.6-2.7,2.4-5.6,2.8-9.9c0.3-4.2,0.7-5.7,1.9-7.2c0.8-1,1.1-1.1,1.4-0.5
		c0.4,0.6,0.4,0.6,0.9-0.1c1.1-1.8,1.1-3.5,0-7.4c-1-3.7-1.5-4.6-2.8-5.3c-0.6-0.3-0.6-0.3-0.6,0.4c0,0.4-0.1,1-0.3,1.4
		c-0.3,1,0.4,3.8,0.7,3c0.1-0.3,0.3-0.4,0.5-0.4c0.4,0.1,0.3,0.4-0.3,1.8c-0.7,1.6-0.9,1.4-1.3-1.3c-0.5-2.8-2.4-4.9-4.8-5.3
		C199.8,183.3,199.7,183.3,199.8,183.8 M100.2,185.1c0.2,0.7,0.9,1.6,1.6,2.1c0.4,0.2,0.7,0.5,0.7,0.5c0,0.2-6.7,2.7-12.2,4.4
		c-2.5,0.8-4,1.6-4.9,2.6c-0.7,0.8-1,1.3-0.5,1.1c0.6-0.2,2.9-0.5,4-0.4l1.1,0.1l-1.3,0.7c-3.2,1.8-5.1,3.9-5.5,6.2
		c-0.1,0.6-0.1,0.6,0.3,0.5c3.7-1,4.6-0.7,3.5,1c-1,1.5-0.8,1.4,1.2-0.6c1-1,2-1.9,2.1-1.9c0.4,0,0.9,1.4,0.9,2.6c0,0.7,0,1.2,0,1.2
		c0-0.3,5.6-1.7,5.6-1.4c0.3,1.2-0.1,2.9-1,3.9c-0.6,0.7-0.6,0.7-0.2,0.6c0.5-0.1,2.3-0.4,3.1-0.5c0.7-0.1,0.7,0.1,0,1.6
		c-1,2.1-2.8,3.8-5.1,4.7c-0.9,0.4-1,0.4-0.4,0.3c2.8-0.4,4.8-1.5,6.6-3.6l0.6-0.8l0.1,0.8c0.1,0.4,0.1,1.2,0,1.8
		c-0.1,0.9-0.2,1.5-0.8,3.2c-0.1,0.2,0.2,0,0.7-0.5c1.4-1.5,2.9-5.2,2.9-7.1l0-0.6l0.3,0.4c0.5,0.6,1,1.7,1,2.2
		c0,0.7,0.2,0.6,0.9-0.4c1.8-2.8,8-9.3,8.9-9.3c0.4,0-0.3,2.4-0.8,3c-0.2,0.2-0.2,0.4-0.2,0.4c0.2,0.2,4.4-4.2,5.2-5.3
		c1.9-2.7,2.5-5.3,1.5-7.2c-0.6-1.1-0.6-1.1-1.8,0.2c-3.3,3.6-8.4,6-13.5,6.3l-1.4,0.1l0.7-0.4c0.7-0.4,1.8-1.3,2.1-1.8
		c0.2-0.4,0.2-0.4-5,0.3c-2.4,0.4-4.4,0.6-4.4,0.6c0,0,0.8-0.7,1.7-1.5c3.7-3,9.8-5.9,14.6-6.9c2.8-0.6,3.4-1,2.6-1.8
		c-1.5-1.4-4.7-1.9-8.5-1.3c-2.8,0.4-5.3,0.2-6.4-0.5C100.2,184.6,100.1,184.6,100.2,185.1 M267.7,195.7c-2.1,0.3-3.4,1.1-5.2,3
		c-3.1,3.3-4.9,6-4.8,7.4c0.1,1.4,1,1.1,3.8-1.6c1.4-1.3,1.8-1.6,2.6-1.8c1.3-0.4,1.8-0.9,2.1-1.8c0.3-1,1.3-2,2.6-2.6
		c1-0.5,1.9-0.7,5.1-1.2c1.5-0.2,1.5-0.4,0.2-0.7C271.5,195.6,269.3,195.4,267.7,195.7 M278.9,199.7c-2,0.3-4.4,1.3-5.9,2.6
		c-0.4,0.3-0.6,0.5-0.6,0.3c0-0.4,0.6-1.6,1.1-2.2c0.7-0.8,0.7-0.8-0.6-0.8c-2,0.1-3,0.9-4,3c-0.8,1.6-1.2,1.9-4.2,2.4
		c-4.3,0.8-5.3,1.7-5.9,5.3c-0.2,1-0.4,2-0.4,2.2c-0.1,0.4-0.1,0.4,0.7-0.1c2.5-1.7,3.8-1.8,3.1-0.2c-1.2,2.8-0.6,7,1.6,11.2
		c0.5,1,1.4,2.6,1.9,3.6c1.7,3.3,2.4,6.1,2,8.3c-0.1,0.6-0.2,1.1-0.1,1.1c0.2,0.2,2.2-1.5,2.8-2.4c0.9-1.2,0.7-1.2,1.6,0.1
		c2,3,6.6,6.8,10.3,8.6c1.7,0.8,4.1,1.7,4.4,1.6c0.4-0.1-2-4.4-3.4-5.9c-1.2-1.3-0.5-0.9,4.3,2.7c2.3,1.8,5.3,2.9,6.8,2.6l0.5-0.1
		l-0.1-1.8l-0.1-1.8l1,0.9c1.2,1.1,1.3,1.1,1.7,0.1c1.8-4.2,0.9-8.4-2.8-12.8c-0.5-0.6-0.8-1.1-0.8-1.1c0.2-0.2,1.3,0.2,2,0.8
		c0.8,0.7,1,0.7,0.9-0.3c-0.4-2-6.5-4.8-8.1-3.7c-0.6,0.4-0.6,0.4,1.1,1.8c4.6,3.8,7,8,6.6,11.9l-0.1,1.1l-0.6-0.6
		c-1.5-1.5-4.1-0.9-4.1,0.9v0.5l-1.1-0.6c-4.2-2.3-5-3-8.2-7.3c-3.2-4.1-3.7-4.9-3.8-5.7l-0.1-0.7l1.2,0.8c0.6,0.5,1.9,1.2,2.7,1.5
		c0.8,0.4,2.3,1.1,3.3,1.5c1.7,0.8,4,2.2,5.8,3.5l0.7,0.6l-0.1-0.7c-0.4-2.1-2-3.9-5.7-6.4c-2.8-1.9-4.4-3.4-5-4.7
		c-0.5-1-0.5-1,0.1-0.8c0.9,0.4,2.6,0.1,3.5-0.5l0.5-0.3l-1.2-0.4c-2.4-0.9-4.5-2-4-2.2c0.5-0.2,5.5-0.3,7.1-0.1l1.2,0.1l-1-0.9
		c-2.3-2.2-5.6-3.2-9.4-3c-6.4,0.4-8,0-8.6-1.8c-0.4-1.3-1.1,0.2-1.5,3.1l-0.1,1l-0.2-0.8c-0.8-3.1,0.3-5.2,2.4-4.8
		c1.4,0.3,1.7,0.1,2.4-1.5c1-2.1,3-3.5,5.6-4.1c0.7-0.1,1.4-0.3,1.5-0.3c0.3-0.1-2,2.2-3.4,3.3l-0.7,0.6l0.7,0
		c7.3,0.1,8.8,0.6,12.9,4.2c1.3,1.2,3.4,2.4,4,2.4c0.1,0,0-0.1-0.4-0.3c-0.9-0.4-2.1-1.5-3.5-3.1c-0.9-1.1-2.5-3.4-2.4-3.4
		c0,0,0.5,0.2,1.1,0.3c1,0.3,2.9,0.5,2.9,0.2c0-1-1.8-2.5-4.2-3.4c-2.7-1-2.9-1.2-1.1-1.1c1.2,0.1,1.6,0.1,2.5,0.6
		c1.1,0.6,1.2,0.5,0.5-0.7C286.4,201,282.5,199.2,278.9,199.7 M211.8,201.1c-0.5,1.2,5.1,3.2,8.4,3c1.2-0.1,1.3-0.1,1.3-0.5l0-0.4
		l-2-0.1c-2.4-0.1-3.9-0.5-5.9-1.5C212.2,200.8,211.9,200.7,211.8,201.1 M209.4,201.4c-0.7,0.3,0.3,1.7,1.8,2.4
		c3.6,1.8,13,4,13.5,3.2c0.3-0.5-0.1-0.8-1.3-0.9c-4.7-0.4-12-2.8-13.1-4.2C209.8,201.3,209.8,201.3,209.4,201.4 M137.6,202.6
		c-1.6,0.3-1.5,0.7,0.2,0.7l1.1,0l-0.8,0.5c-0.4,0.3-1.3,0.9-1.8,1.5s-1.5,1.3-2.1,1.8c-1.8,1.4-5.6,7.1-4.7,7.1
		c0.1,0,0.2-0.1,0.2-0.1c0-0.3,1.5-1.8,2.3-2.2c0.5-0.3,0.8-0.4,0.8-0.4c0,0.7-3.5,6.9-4.6,8.1c-1.8,2-2.8,4.1-2.6,5.5
		c0.1,0.3,0.1,0.3,0.5-0.4c0.5-0.8,1.4-1.6,1.6-1.4c0.1,0.1-0.2,4-0.5,5.8c-0.3,1.8-0.3,3.4,0,4.1l0.3,0.6l0.7-1.1
		c1.2-2,1.3-2,1.2-0.8c-0.1,1.1,0.3,3.3,0.7,3.8c0.2,0.3,0.3,0.2,0.8-0.8c0.3-0.6,0.8-1.3,1-1.6l0.5-0.6l-0.1,1.5
		c-0.1,1.4-0.1,1.5,0.3,1.5c0.3,0,0.3,0.1,0.2,0.5c-0.1,0.5-0.1,0.5,0.9-0.4l1-1l0.2,0.6c0.1,0.3,0.2,1.2,0.2,1.9
		c0,1.3,0,1.3,0.4,1.2c1.5-0.5,3.6-1.9,5.1-3.5l1.1-1.2l-0.3,1.1c-0.7,2.5-1.2,4.4-1.1,4.5c0.2,0.2,1.9-1.7,2.5-2.8
		c1.4-2.5,3.3-7.5,4-10.9c0.9-4.2,2.1-6.1,2.1-3.3l0,1.3l0.2-0.7c0.1-0.4,0.5-1.4,0.8-2.3c0.6-1.5,0.6-1.9,0.8-4
		c0.1-1.3,0.2-2.9,0.3-3.6c0.1-0.7,0.1-1.7,0.1-2.4c-0.3-2.7-0.8-1.9-3.5,4.8c-3.4,8.6-5.8,13-9,16.6c-1.2,1.4-1.2,1.4-0.6-1
		c1.1-4.3,2.9-7.9,6.6-13.3c1.5-2.3,1.7-2.5,1.4-2.7c-0.5-0.4-0.7-0.2-2.7,2.8c-2.9,4.3-4.3,7.1-5.5,10.6c-0.7,1.9-0.7,1.7-0.2-0.6
		c0.5-2.1,1.2-4.1,2.4-6.9c0.5-1.2,0.9-2.3,0.9-2.3c-0.2-0.2-4.5,5.9-6.7,9.5c-1.2,1.9-1.2,2-1.1,1.3c0.6-4.2,2.5-9.4,4.9-13.3
		c1.3-2.2,1.2-2.2-0.5-0.4c-1.8,1.9-3.1,3.8-4.9,7.4c-1.6,3.1-1.6,3.1-0.6-0.9c1-4.1,0.9-4.8-0.3-3.9c-1.5,1.1,0.4-1.7,2.2-3.1
		c1-0.8,1.2-1.1,1.9-2.4c1.2-2.5,4.3-7,6-8.8c0.6-0.7,0.6-0.8-0.2-1.2C141,202.6,138.5,202.4,137.6,202.6 M72.2,203
		c-0.4,0.1-1,0.3-1.4,0.5l-0.7,0.3l1.2,0.4c1.2,0.4,2.9,1.3,3.5,2c0.3,0.3,0.3,0.3-0.7,0.3c-5.1,0-10.8,2.3-15.5,6.3
		c-2.9,2.4-4.1,3-7.1,3.2c-0.9,0.1-1.4,0.2-1.3,0.3c0.1,0.4,1.6,1.2,2.9,1.5l1.3,0.4l-2.9,1.5c-5.9,3-8.2,5.2-8.4,8.2l-0.1,0.9
		l1.7-1.6l1.7-1.6l-0.1,1c-0.3,1.9-1,4.3-1.9,5.8c-0.7,1.2,2.3,2.2,4.8,1.5c0.6-0.2,0.6-0.2,0.5,0.2c-0.2,0.8-1.1,2.8-1.3,2.9
		c-0.4,0.3,0,0.3,0.8,0.1c0.5-0.1,1.5-0.2,2.1-0.2l1.2,0l-1,0.9c-1,0.9-2.1,1.4-3.1,1.4c-0.7,0-0.3,0.4,0.7,0.8
		c1.2,0.4,2.7,0.3,4.3-0.4c0.7-0.3,2.8-0.9,4.7-1.4c9-2.4,13.4-5.8,14.8-11.5c0.3-1.2,0.4-1.3-1.7,0.7c-2.7,2.6-6.9,5.9-9.5,7.4
		c-0.1,0.1,0.2-0.3,0.8-0.9c1.6-1.6,3.7-5,3.7-6c0-0.1-0.7,0.1-1.6,0.4c-2.8,1-10.8,3.7-11.1,3.7c-1.1,0,0.7-6.1,2.6-8.8
		c1.8-2.7,6.5-6.1,8.4-6.1c0.5,0-0.7,2.5-1.9,3.9l-0.7,0.8l0.4,0.1c0.9,0.2,6.1-0.1,7.8-0.4c4.8-1,9.5-3.4,12.5-6.3l1.2-1.1
		l-1.7,0.1c-4.3,0.3-9.3,2.1-11.9,4.5c-0.8,0.7-0.1-0.8,1-2.3c0.9-1.2,5.3-4.1,7.2-4.7L79,211l-0.6-0.1c-2.2-0.4-6.3,0.2-8.7,1.3
		c-1.3,0.6-1,0.3,1-1.1c4-2.7,7.3-3.2,11.7-1.8l2.1,0.7l2.7,0c2.9,0,3-0.1,1.3-0.8c-0.5-0.2-0.6-0.3-0.3-0.4c0.4-0.1,2.1-1.7,2-1.9
		c0,0-0.3,0-0.6,0.1c-1.4,0.6-4,0.1-7.2-1.3c-1.2-0.5-2.9-1.3-3.8-1.7C76,203,74,202.7,72.2,203 M210.4,204.9
		c-1.2,0.5,1.4,1.7,5.3,2.5c1.4,0.3,1.5,0.3,1.7,0c0.3-0.5,0.1-0.7-1.6-1c-1.1-0.2-3.7-1-5-1.5C210.8,204.9,210.5,204.9,210.4,204.9
		 M142.9,205.3c-1.5,0.5-5,6-5,7.9c0,0.1,0.6-0.4,1.3-1.1c2-2,4.3-3.6,5-3.6c0.2,0-0.1,2.6-0.4,3.7c-0.5,1.7-0.4,1.6,0.7-0.7
		c0.6-1.1,1.3-2.3,1.6-2.7l0.5-0.6l0.3,0.3c0.6,0.6,0.8,2.5,0.4,3.7c-0.1,0.3-0.1,0.3,0.2-0.1c0.5-0.6,1-2.4,1-3.3
		c0-1-0.2-1.1-2-1.9c-0.8-0.3-1.6-0.8-2-1C144,205.4,143.3,205.2,142.9,205.3 M239.7,208.9c-2.6,0.7-5.1,3.2-3.8,3.8
		c0.2,0.1,3.1,0.5,6.3,0.8c7.4,0.8,6.6,0.5,9.5,4.3c2.1,2.8,2.3,3,2.3,2.4c0-0.2,0.2-0.7,0.3-1.1c1-2.2,0.3-3.9-2.8-7.2
		c-1.8-1.9-2.8-2.5-4.9-2.9C245,208.6,240.8,208.6,239.7,208.9 M231.8,214.3c-0.6,0.1-1.8,0.5-2.7,0.8c-0.9,0.3-2.7,0.9-3.9,1.3
		c-3.1,1-5.7,2.3-5.7,2.8c0,0.6,0.4,0.6,1.9-0.2c2.3-1.2,6.2-2.5,4.2-1.5c-0.6,0.3-0.8,0.6-0.8,0.8c0,0.5,0.6,0.5,1.3,0.1
		c0.8-0.5,2.5-1.1,4-1.5c1.8-0.5,2.6-0.4,1,0.1c-2.3,0.7-6.2,3-6.2,3.6c0,0.4,0.5,0.7,0.7,0.5c3.1-2.3,5.9-3.5,9-3.7
		c1.6-0.1,2.9,0.1,2.9,0.5c0,0.3-2.5,1.8-3.9,2.3c-0.9,0.3-0.4,0.4,1,0.1c0.9-0.2,2-0.6,3.4-1.3c3.3-1.7,3.7-1.7,6.1-0.1
		c4.6,2.9,5.3,5.9,2.7,11.1c-0.6,1.2-0.6,1.2-0.6-0.7c0-2.4-1.1-5.2-2.4-6.1c-0.8-0.6-1.1,0.3-0.3,1.2c2.4,2.8,2.3,8.2-0.2,10.2
		l-0.6,0.4l0.5-1c0.9-2,1.2-3.8,0.6-5c-0.3-0.6-0.3-0.6-1.2,1.1c-0.7,1.4-2.2,3.9-2.4,3.9c0,0,0-0.3,0.2-0.7
		c0.4-1.1,0.3-1.5-0.2-1.5c-0.3,0-0.4,0.1-0.7,0.9c-0.9,2.9-2.5,5.1-5.1,7.3c-2,1.7-3.3,3-4,3.9c-0.3,0.5-0.3,0.4,0.1-1.3
		c1.1-4,1.1-9.9,0-7.4c-0.6,1.5-0.7,1.6-0.5,0.7c0.4-2.8-0.2-5.8-1.2-5.8c-0.6,0-0.6,0.3-0.2,1.2c1.2,2.5,0.3,7.5-3.1,17.3
		c-1.1,3.1-1.1,2.9-0.4,2.9c2.2,0,5.9-1.7,7.9-3.6c0.7-0.7,1.4-1.2,1.5-1.2c0.5,0.3,0.8,2.6,0.4,3.7c-0.2,0.5,1.3-1,2.5-2.5
		c1.6-2,3.1-5,3.7-7.7l0.3-1.2l0.4,1c0.2,0.5,0.4,1.5,0.5,2.1l0.1,1.1l1.5-1.7c1.6-1.9,3.6-4.4,4.5-5.9c0.3-0.5,0.7-1,0.7-1
		c0.3,0-0.3,5.5-0.8,7.5c-0.4,1.6-0.3,1.6,0.9,0.2c3-3.6,4.4-8.3,4.7-15c0.3-7.5-1.7-9.5-12.2-12.4C237,214,234.3,213.7,231.8,214.3
		 M332,217.5c0,0.1,0.5,0.7,1.2,1.5c1.2,1.4,1.7,2,2.2,2.8l0.3,0.5l-0.7-0.3c-1.5-0.7-2.5-0.4-1.7,0.6c0.9,1.2,1.4,2.9,1.1,4.2
		l-0.2,0.7l-1-2c-0.8-1.6-1.1-2.2-2-3c-0.6-0.6-1.1-1.2-1.1-1.3c0-0.9-0.9-0.3-2,1.4l-0.4,0.6l0.1-0.8c0.1-1.2,0.9-2.7,1.8-3.7
		c0.9-0.9,0.9-1,0.4-0.7c-0.2,0.1-0.9,0.4-1.5,0.6c-2,0.6-3.1,1.5-4,3.4l-0.5,0.9l0-0.7c0-0.9-0.3-1.7-0.9-2.2
		c-0.6-0.5-0.8-0.5-0.7,0.2c0.4,2.1,0.4,7.9,0,10.4c-0.7,4.3-0.5,5.6,1.5,10.7c1.1,2.7,1.3,3.4,1.6,5.9c0.2,1.5,0.6,3.2,0.8,3.2
		c0.1,0,0.3-0.4,0.5-0.8c1.7-3.6,4-2.5,4,1.9c0,1.4,0,1.5,1.1,1c0.9-0.4,1.4-1.1,1.9-2.7l0.4-1.3l0.2,0.7c0.1,0.4,0.2,1.1,0.2,1.7
		c0,1.4,0.3,1.3,2.2-1.2l0.9-1.2l-0.1-1.3c0-0.7-0.1-1.4-0.2-1.6c-0.1-0.3,0-0.2,0.5,0.1c0.8,0.6,1.7,0.9,2.6,0.9c1,0,1,0,0.2-1.5
		c-1.5-2.7-3.7-8.8-3.3-8.8c0.2,0,1.7,1.2,1.7,1.3c0,0.5,0.3,0,0.5-0.8c0.6-2.7-0.5-6.3-2.9-10.4c-0.4-0.7-0.8-1.3-0.8-1.4
		c0,0,0.5-0.1,1.1-0.1c1.2,0,1.2,0,0.9-1.3c-0.4-1.6-3.2-5.1-4.7-5.8C332.8,217.3,332,217.3,332,217.5 M211,222.6
		c-8,1.8-15.7,7.5-19.8,14.7c-0.8,1.5-0.8,1.5-0.1,1.1c0.7-0.4,2.1-0.5,2.9-0.2l0.6,0.2l-0.8,1.3c-1.7,2.8-2.5,5.6-2.6,9.1
		c-0.1,1.3-0.1,2.4,0,2.4c0,0,0.7-0.3,1.5-0.7c2.8-1.4,5.7-2.1,9-2.1c2.5,0,2.7,0.1,1.8,0.7c-0.8,0.6-1.5,1.6-1.9,2.7
		c-0.4,1.2-0.4,1.3,0.3,1c0.7-0.3,3.7-0.8,5.6-1c2.4-0.2,3,0.8,3,4.8c0,1.4,0.1,2.5,0.1,2.5c0.5,0,2.5-2.4,3.2-3.8l0.7-1.5l0.7,1.9
		c0.6,1.8,0.7,2,0.7,4.3l0.1,2.5l0.9-0.9c2-1.9,2.6-4.1,3.6-11.9c0.7-5.7,0.7-5.7,0.9-4.8c0.1,0.7,1,2.4,1.3,2.4
		c0.1,0,0.2-0.5,0.2-1c0.1-1,0.4-2.3,1.6-6.7c1.8-6.4-1.2-14.9-4.9-14c-0.7,0.2-1,0.6-0.9,1.3c0.6,3.7-0.7,10.4-1.6,8.7
		c-0.6-1.1-3-3-3.2-2.5c0,0.1-0.2,0.8-0.4,1.6c-1.6,5.9-6.8,9.1-13.7,8.5c-1.9-0.2-3.1,0.1-4.1,0.9l-0.8,0.6l0.1-0.8
		c0.4-2.7,1.6-4.4,4.5-6.4c0.9-0.6,1.9-1.4,2.3-1.8c1.8-1.9,0.6-3.6-2.1-3.1l-0.9,0.2l1-1.4c2.7-3.5,6.5-5.8,10.2-6.2l1.1-0.1
		l-2.2,2.2c-1.2,1.2-2.5,2.4-2.8,2.7l-0.7,0.5l0.6-0.1c3.2-0.5,3.7-0.5,3.3,0.1c-0.1,0.2-0.6,1.1-0.9,2.1c-1.1,2.7-1.9,4.2-3,5.2
		l-0.9,0.9l0.7-0.4c1.8-1,4.5-4,7.1-7.9c0.7-1.1,1.4-2,1.6-2.1c0.6-0.2,2.2,1.1,3.1,2.6c0.4,0.6,0.4,0.7,0.3,0.3
		c-0.1-0.3-0.1-1.8-0.1-3.4C217.3,222.7,215.8,221.5,211,222.6 M32.3,230.8c-1.1,0.1-1.1,0.1,0.7,1.6l1.5,1.3l-0.5,0.3
		c-2.4,1.5-6.2,2.4-10.2,2.3c-4.1,0-6.3,0.7-7.8,2.5l-0.4,0.5l2.4,0.1c2.1,0.1,2.8,0.2,4.2,0.6c0.2,0.1,0,0.2-0.8,0.5
		c-1.8,0.6-3.3,1.4-5.1,2.8c-2.2,1.7-3.3,2.3-4.8,2.4l-1.2,0.1l1.4,1.4c0.8,0.8,1.9,1.9,2.6,2.5l1.2,1l-0.7,0.3
		c-0.5,0.2-1,0.3-2.2,0.2l-1.6-0.1l0.1,0.5c0.6,3.1,5.1,3.7,14.4,1.8c3.1-0.6,4.5-1.4,6.4-3.4l0.7-0.8l-0.1,0.6
		c-0.2,1.1-1.1,3.3-1.9,4.7c-1,1.8-1,1.8,1.9,0.2c3.3-1.8,4.5-2.7,7.2-5.2c2.5-2.4,3.1-2.9,4.7-3.7c0.6-0.3,1.3-0.8,1.6-1
		c0.3-0.3,0.6-0.4,0.6-0.3c0,0.4-1,3.3-1.5,4.2c-0.7,1.3-0.6,1.4,0.3,0.5c2-1.9,2.7-4.8,1.8-6.8c-0.5-1-0.4-1-1.5-0.2
		c-1.2,0.9-2.2,1.4-5.3,2.6c-1.4,0.5-3.1,1.2-3.7,1.6l-1.1,0.6l0.9-1c0.5-0.5,0.8-1,0.7-1c-0.2-0.1-3.6,1.1-5.8,2
		c-2,0.8-2.1,0.8-0.4-0.7c1.5-1.4,2.7-2.1,4.2-2.8c1.9-0.7,1.8-0.6,0.9-1.1c-0.6-0.3-1.3-0.4-2.2-0.5l-1.4-0.1l0.8-0.5
		c1.6-1,2.8-1.3,6.6-1.9c4.4-0.7,4.4-0.7,3.9-2.7C42.3,232,39,230.2,32.3,230.8 M125.4,236.2c-2.3,1.5-4.4,3.9-5.6,6.4
		c-0.8,1.7-0.9,2.1-0.4,1.7c0.6-0.4,1.5-0.8,2.1-0.9l0.6-0.1l-0.8,1.1c-2.3,3.1-3,5.4-3.2,11.5c-0.2,5.5-0.7,8-2.7,11.9
		c-0.5,1,1.1,0.1,2.6-1.4c0.4-0.4,0.8-0.8,0.9-0.8c0.2,0,0.7,1.9,0.6,2.6c0,0.4,0,0.7,0,0.7c0,0,0.7-0.5,1.6-1
		c0.9-0.6,2-1.2,2.5-1.5l1-0.5l-0.1,0.8c-0.1,1.1-0.1,1.1,1.2-0.2c3.3-3.1,6-7.6,7.3-11.7c0.3-0.9,0.6-1.6,0.6-1.6
		c0.3,0,0,3.1-0.5,4.3c-0.5,1.5-0.5,1.6,0.2,0.5c1.1-2,1.5-3.8,1.8-9.8c0.2-3.7,0.5-4.8,1.2-4.4c0.3,0.2,0.8,1.4,0.9,2.3l0.1,0.8
		l0.4-0.8c1.5-3.2-1-7.2-4.3-7.2c-0.8,0-0.9,0.1-2.5,2.5c-0.7,1-1.4,1.9-1.5,2c-0.3,0.2-0.1-3.5,0.3-4.4c0.1-0.4,0.2-0.7,0.1-0.7
		c-0.4,0-2.2,0.8-3.1,1.4l-1.1,0.7l0.4-0.7c0.2-0.4,0.7-1.1,1-1.7c0.4-0.5,0.6-1,0.6-1c-0.1-0.1-1.9,0.8-2.7,1.4
		c-1.1,0.8-0.8,0.3,0.7-1.3C127.1,235.5,127,235.2,125.4,236.2 M278.2,244.7c0,0.8,0.2,1.1,3.1,4l2.8,2.8l-0.7,0.6
		c-0.4,0.3-0.9,0.9-1.2,1.3l-0.5,0.6l0.7,0.8c0.6,0.7,1.8,2.8,1.8,3.3c0,0.7,0.3,0.2,0.5-0.8c0.3-2.2,1.1-5,1.8-6.6
		c1.2-2.7,1-3.1-1.7-3.7c-2.3-0.5-4.4-1.2-5.5-1.7c-0.7-0.4-0.9-0.5-0.8-0.9c0-0.1-0.1-0.1-0.1-0.1
		C278.3,244.2,278.2,244.4,278.2,244.7 M297.9,244.7c-0.3,0.2-1.1,0.6-1.7,0.9c-1.9,0.7-2.6,1.1-3.5,2c-2.9,3.1-2.9,8.5,0.1,14
		l0.6,1.1l-1.1-1.1c-0.7-0.7-1.8-2.1-2.8-3.6c-0.9-1.4-1.7-2.5-1.7-2.6c-0.1-0.2-0.9,0.8-1.2,1.4c-1,2.5,0.8,5.6,7.5,12.5
		c4.1,4.3,4,4.2,5.5,8.5c1.2,3.4,2.9,6.6,3,5.3c0-1.2,0.2-1.2,0.7-0.2c0.9,1.9,3.5,4.9,5,5.7l0.7,0.4v-0.5c0-0.3-0.3-1.4-0.7-2.6
		c-0.4-1.3-0.7-2.4-0.7-2.9v-0.8l0.8,0.8c1.9,1.8,3.6,1.9,3.8,0.3c0.1-0.9-0.3-3.8-0.8-5.1c-0.4-1.2-0.5-1.1,0.7-0.9
		c1.2,0.2,2.3,0.6,3.1,1.3c0.6,0.5,0.6,0.5,0.8,0.2c0.2-0.3,1-2.5,1.4-3.6c0.1-0.3,0.3-0.2,1.2,0.7c1.2,1.1,3.6,3,3.9,3
		c0.1,0,0-0.3-0.3-0.8c-0.2-0.4-0.7-1.6-0.9-2.6c-0.5-1.7-2-5.4-3.1-7.3c-0.2-0.4-0.7-1.4-0.9-2.1c-1.2-3.4-5.1-9.7-6-9.7
		c-0.5,0-0.7,0.5-0.3,0.9c4,5.1,5.6,8.4,5.6,12l0,1l-0.4-0.9c-1.2-2.8-3-5.8-3.4-5.6c-0.1,0.1-0.3,0.1-0.3,0.1c-0.2,0,0,0.8,0.4,1.4
		c1,1.4,2.7,4.9,2.7,5.4c0,0.2-1.3-0.1-2.3-0.5c-1.2-0.5-2.3-1.2-3.4-2.2c-0.9-0.9-1.4-1-1.4-0.2c0,0.8,2.9,3,4.6,3.4
		c1.1,0.3,0.7,0.5-0.8,0.4c-2.3-0.2-5.2-1.8-6.2-3.5c-0.3-0.6-0.5-0.7-0.8-0.7c-0.8,0.1,0.2,2.1,1.5,3c0.3,0.2,0.7,0.7,0.9,1
		c0.5,0.8,1.1,1.6,1.9,2.2c1.1,0.9,0.4,0.6-1.2-0.5c-5-3.4-8.9-8.2-10.9-13.1c-0.4-1-0.4-1,1.3,0c1.4,0.9,2.3,2.1,3,4.3
		c0.3,1,0.7,1.2,1.1,0.7c0.3-0.3,0.3-0.3,0.6,0.5c0.2,0.7,0.4,0.8,0.7,0.8c0.5-0.1,0.5-0.5-0.1-2.1c-1.6-4.4-3.5-7-7-9.6
		c-1.2-0.9-1.8-1.6-1.8-2.1c0-0.3,5.5-0.2,6.3,0.1c1.6,0.6,3.6,2.7,4.6,4.8c0.3,0.6,0.5,0.9,0.7,0.8c1.9-0.4-2.2-5.4-5.9-7.3
		c-1.5-0.7-1.3-0.8,0.4-0.1c2,0.8,3.9,1.8,4.5,2.3c0.6,0.5,1,0.4,1.1-0.2c0.1-0.4-2.1-1.7-5-2.9l-2.5-1.1l0.5-0.4
		c0.3-0.2,0.8-0.5,1.1-0.7l0.7-0.3l1.3,0.7c1.7,0.9,3.6,2.4,5,3.8c1.2,1.3,1.4,1.4,1.7,0.9c0.2-0.5-1.7-2.6-3.9-4.2
		c-0.4-0.3-0.7-0.6-0.6-0.6c0.4,0,0.1-0.3-0.5-0.5c-1.5-0.4-3.8-1.9-4.9-3C299,244.2,298.6,244.2,297.9,244.7 M125.4,246.1
		c0,0.1-0.4,0.6-0.8,1.2c-0.7,1.1-1.1,2.1-1.4,4.2l-0.1,0.8l1.2-0.1l1.2-0.1l-0.7,2.1c-3.3,9.2-3.2,9.1-3.2,4.9
		c0-1.9,0.1-2.3,0.5-3.4c0.3-0.7,0.4-1.3,0.4-1.3c-0.1-0.1-1,0.4-1.5,0.9l-0.5,0.4l0.1-1.7c0.2-3.1,1.5-5.7,3.7-7.2
		C125.3,246,125.5,245.9,125.4,246.1 M187.2,252.4c-0.5,0.7-0.8,2-0.8,3.6c0,3-0.9,6.3-3,10.4c-3.3,6.6-7.6,12.1-9.4,12.2l-0.5,0
		l0.7,0.3c0.5,0.2,1,0.3,1.8,0.3c0.6,0,1.1,0,1.1,0c0,0-0.5,1-1.2,2.2c-1.2,2.3-2,3.4-4.4,6c-0.7,0.8-1.3,1.5-1.2,1.5
		c0,0,1,0.2,2.1,0.4l2.1,0.3l0.3,1.8c0.1,1,0.3,1.8,0.3,1.9c0.1,0.2,5.3-2.7,6.7-3.8l0.8-0.6v1c0,2.7,5.6,15.8,6.3,14.7
		c0.9-1.5,0.5-4.5-1.3-8.6c-1.6-3.8-1.7-4.4-1.7-8.9v-3.8l0.8-1.1c0.4-0.6,0.8-1.2,0.8-1.2c0,0,0.1,1.1,0.2,2.5
		c0.5,6.7,2,10.5,4.4,11.7c1.3,0.6,1.3,0.5,0.6-1.7c-1.4-4.3-2.1-8-1.9-10.8c0.1-1.6,0.4-2.9,0.4-2.1c0.1,3.5,2.8,6.4,5.8,6.4
		c2.2,0,2.1-0.1-0.4-4.4c-1.6-2.8-2.3-4.3-2.7-5.9c-0.4-1.5-0.5-2.9-0.1-1.5c0.3,1.1,0.7,1.9,1.5,2.8c0.7,0.8,2.2,1.8,2,1.4
		c-1-2.5-1.2-6.5-0.5-8.5c1.3-3.8,6.7-8.7,9.6-8.8c0.7,0,0.7,0,0.2-0.2c-1-0.3-4.2,0.2-6.1,0.9c-1.2,0.5-1.2,0.4-0.7-1.3
		c0.4-1.3,1.1-2.5,2-3.5l0.7-0.8h-0.7c-1.8,0-6.2,1.2-8.1,2.2c-0.6,0.3-1,0.4-0.8,0.3c0.1-0.1,1-1.3,1.9-2.6
		c1.3-1.7,1.7-2.3,1.5-2.4c-0.4-0.3-2.2-0.3-2.7-0.1c-0.8,0.3-4.4,2.7-5,3.3l-0.5,0.5l-0.3-0.9c-0.5-1.6-0.5-3.5,0-5.4
		C188,251.6,187.6,251.7,187.2,252.4 M336.8,252.1c-8.3,1.9-9.7,5.2-4.9,11.5c1.6,2.2,2.1,2.8,2.6,4.1c0.4,1.1,0.5,1,0.7-1l0.2-1.5
		l0.7,1.6c3,6.7,6.2,9.7,12,11.2c2.6,0.7,3.8,1.1,4.6,1.9c0.7,0.6,0.9,0.4,0.6-1.1c-0.3-1.6-1.3-3.3-2.7-4.1l-0.8-0.5l0.8,0.1
		c0.9,0.1,3.3,0.7,3.8,0.8c0.7,0.3,0.2-1.3-0.6-2c-0.8-0.8-1.9-1.1-4.2-1.2c-1.2-0.1-2.6-0.3-3-0.4c-2.9-0.8-7-5.2-9.2-9.8
		c-1.2-2.6-1.6-2.7-2.8-1c-0.9,1.3-1.1,1.1-0.9-1.2c0.2-4.1,2.1-5.5,5.5-4c2.6,1.1,4.7,1.4,6,0.9l0.5-0.2l-0.9-0.1
		c-1.7-0.2-2.6-0.7-4.2-2.2C339,252.1,338.2,251.8,336.8,252.1 M297.7,263.1c1.8,3.3,4.2,6.2,7.2,8.9c1.1,1,1,0.9-0.6-0.3
		c-4.7-3.5-8.4-8.9-8.8-12.6c-0.1-0.8-0.1-0.8,0.7,1.1C296.8,261.2,297.4,262.5,297.7,263.1 M316.8,282.8c-1.9,1.6-2.5,4.4-2.8,11.5
		c-0.1,3.1-0.3,5.8-0.3,6c-0.2,0.5,1.1-0.6,1.6-1.4c0.3-0.5,0.3-0.4,0.4,2.5c0.2,5.4,1.1,9.7,3,14.7l0.7,1.7l0.6-0.6
		c0.3-0.3,0.8-1,1.1-1.6l0.5-1.1l0.2,0.8c0.3,1.3,2.4,3.5,2.9,3.2c0.2-0.1,0.5-2.7,0.4-3.5l-0.1-0.7l0.7,0.6
		c1.5,1.3,4.9,2.6,6.8,2.6c0.5,0,0.5,0-0.3-0.8c-1.3-1.3-3.1-4.5-2.7-4.8c0,0,0.5,0.3,1,0.7c3.1,2.5,4-0.7,1.9-6.4
		c-0.3-0.7-0.6-2-0.8-2.9c-0.4-1.8-1.2-4.5-1.6-4.8c-0.6-0.6-0.9,0.2-0.5,1.2c1.6,3.9,1.8,7.5,0.5,8.6c-0.5,0.4-1.3,0.5-1.1,0
		c1-2.4,0.7-6.8-0.5-7c-0.6-0.1-0.6,0.3-0.2,1.4c0.6,1.7,0.3,5.2-0.4,5.2c-0.8,0-2.8-3.5-3.6-6.4c-0.4-1.5-0.5-1.6-1-1.4
		c-0.4,0.2-0.4,0.5,0.3,2.7c0.6,1.7,0.6,1.7-0.1,0.6c-0.8-1.3-1.4-3.7-1.5-6.4l-0.1-2.2H321h-0.4l0,2.2c0,1.3,0.1,2.6,0.3,3.3
		c0.2,0.9,0.2,1.3,0.1,1.8c-0.2,1-0.2,2.9,0.1,4.2c0.4,1.8,0.3,2-0.3,0.7c-1.8-3.4-2.4-11.6-1.2-16.9c0.6-2.6,0.7-2.7,1.8-1.4
		c0.8,1,1,1,0.9,0.3c-0.1-0.3-0.1-0.9-0.2-1.2l-0.1-0.6l0.3,0.4c1,1.2,2.9,6.1,3.3,8.1c0.1,0.7,0.4,1.1,0.8,1
		c0.9-0.4-1.4-7.2-3.3-9.8l-0.7-0.9l0.5,0.3c1.4,0.8,3.5,3.3,4.2,5.1c0.5,1.3,1.1,1.7,1.4,1.1c0.1-0.4-1.1-2.9-2.1-4.2
		c-0.5-0.7-0.7-1.1-0.6-1c0.2,0.1,0.6,0.2,1,0.2l0.7,0.1l-0.3-0.5c-0.7-1.3-2.1-2.1-5-3.1c-1.1-0.4-2.4-0.9-2.9-1.2
		C318.3,282.1,317.6,282.1,316.8,282.8 M171.9,293.8c0,0.1-0.2,0.4-0.5,0.7c-0.3,0.3-0.6,0.9-0.7,1.4c-0.5,2-1.5,3.4-4.8,6.8
		c-2.7,2.8-3.3,3.5-4.1,5.2c-0.6,1.3-0.6,1.6,0,1.2c2.1-1.5,2.3-1.2,0.9,0.8c-3.7,5.6-5.9,12.7-5.2,17.3c0.1,1,0.3,2,0.3,2.3
		c0,1,0.2,0.6,0.3-0.5c0.1-1.3,0.4-2.7,1-3.9c0.5-1.1,0.6-1.1,0.4,0.4c-0.2,1.9,0.3,6.4,0.8,7.4c0.5,0.9,0.5,0.9,1.5-0.7
		c1-1.7,2.6-3.2,3.9-3.8c1.2-0.6,1.1-0.6,0.8,0.3c-0.4,1.2-0.3,1.9,0.1,1.8c1.8-0.5,4.1-2.1,5.4-3.8l0.5-0.6l-0.5,1.4
		c-0.9,2.5-2.4,5.1-4.4,7.4c-1.1,1.3-1.1,1.5,0.5,1.4c3.6-0.3,7.2-4.9,9.7-12.7l0.7-2.2l0.8,1.3c0.5,0.7,0.9,1.3,0.9,1.3
		c0.4-0.4,2.4-15.2,2.4-17.9c0-2.9-0.6-5.2-1.7-6.2c-0.4-0.4-0.3-0.5-1,1.5c-1.1,3.4-2.7,7.2-4.3,10.1l-0.9,1.7l-0.2-1.2
		c-0.2-1.2-0.9-2.8-1.2-2.8c-0.1,0-0.1,0.1,0,0.3c0.6,1.1-0.6,7.8-1.9,10.4c-0.6,1.2-2.1,2.8-3.9,4.2l-0.9,0.7l-0.2-0.7
		c-0.6-2.1-0.5-4.9,0.3-7.5c0.7-2,0.5-1.9-0.5,0.2c-1.1,2.3-2.1,5.4-2.6,7.8c-0.4,2.2-0.5,2.3-0.8,0.8c-1.1-6-0.5-9.2,3.1-16.3
		c1.7-3.4,1.8-3.7,1.2-3.7c-0.3,0-0.3-0.1,0.2-0.8c0.3-0.4,0.8-1.2,1-1.6c0.9-1.6,2.3-2.6,4.1-3.1c1-0.3,1-0.2-0.1,1.5
		c-2.7,4.3-3.9,7.7-3.9,10.8c0,1.7,0,1.7,1.1-0.9c1.4-3.5,3.1-6,5-7.3l0.8-0.5l0.2,0.9c0.1,0.5,0.2,1.2,0.1,1.4
		c-0.2,1.3,0.5,0,1.1-2.1c0.5-1.8,0.7-6.3,0.3-6.8c0,0-0.5,0-1.1,0.2c-2,0.5-2,0.5-1.6-1.2c0.1-0.5-0.3-0.5-0.9-0.1
		c-0.3,0.2-0.4,0.2-0.5-0.1C172.6,294.1,171.9,292.9,171.9,293.8 M330.1,319.2c-0.6,0.1-1.7,0.6-2.6,1c-0.9,0.4-2.3,0.9-3,1.1
		c-1.6,0.4-1.5,0.3-1.7,2.2c-0.2,1.9,0.5,8.9,1.1,10.9c0.4,1.3,0.6,1.3,1.7,0.7c1.2-0.7,1.1-0.7,1.7,0.6c1.4,3.5,4.6,7.5,7.9,9.9
		c1.6,1.2,1.5,1.2,1.6-0.1c0-0.6,0.1-1.3,0.1-1.5l0.1-0.5l0.4,0.6c1.8,2.8,6.5,4.9,9.8,4.2c0.7-0.1,0.7-0.2-0.1-0.7
		c-1.3-0.7-3.5-3.2-3.5-3.9c0-0.1,2.2-1.2,2.9-1.4c0.3-0.1,0.3-0.2-0.3-0.7c-1.1-1.2-2-3.2-2-4.7v-0.7l0.6,0.4
		c0.8,0.6,0.9,0.5,0.7-0.3c-0.4-1.7-1.8-3.5-3.4-4.3c-1-0.5-1.5-1.2-1.7-2.2c-0.1-0.6-0.2-0.7-0.5-0.7c-0.8,0-0.6,1.5,0.4,2.8
		c0.5,0.7,0.6,0.9,0.6,2c0,1,0.2,1.5,0.6,2.4l0.5,1.1h-0.6c-0.3,0-0.7-0.1-0.9-0.2c-0.7-0.4-1.2,1.5-0.8,3.1c0.2,1,0.2,1.1-0.2,0.5
		c-0.8-1.3-1.1-2.6-1.2-4.8c0-2.1,0-2.2-0.4-2.2c-0.6-0.1-0.9,2.7-0.5,4.7c0.1,0.6,0.1,0.7-0.1,0.3c-1-1.6-1.2-4.2-0.6-7.3
		c0.6-3.5,0.2-6.3-0.9-6.5c-0.5-0.1-0.6,0.4-0.2,1c1,1.6,0.7,4.7-0.6,6.5c-0.4,0.6-0.9,1.6-1.1,2.3l-0.4,1.3l-0.1-2.3
		c-0.2-4.8-0.5-6.8-1.4-8.5c-0.7-1.4-0.8-1.3-2.1,1.4c-0.6,1.3-1.3,2.5-1.5,2.6c-1.1,0.6-2-3.4-1.1-4.5c0.4-0.4,0.4-0.5,0.4-0.1
		c0,1.3,0.7,1.5,1.1,0.4c0.6-1.7,2.8-4.1,4.2-4.5c2.2-0.5,4.7,1.4,5.8,4.4c0.3,0.8,1.2,1,1.2,0.2c0-0.3-1-2.3-1.4-2.9l-0.4-0.5
		l0.5,0.2c0.7,0.2,2.2,0.2,2.1,0c-0.2-0.3-4.2-2.5-5-2.8C334.3,319,331.4,318.9,330.1,319.2 M152.8,334.8c-3.2,1-3,0.9-4.8,2.7
		c-0.9,0.9-2.2,2.1-2.8,2.5c-1.7,1.2-3.1,2.5-2.1,2.2c0.6-0.2,2.5-0.6,3.7-0.7l1.3-0.1l-0.5,0.4c-0.3,0.2-1.5,0.9-2.6,1.5
		c-2.7,1.4-3.5,2.2-4.7,4.8c-0.5,1-0.9,1.8-0.9,1.9c0,0,0.4-0.1,0.8-0.2c1.8-0.7,1.9-0.6,1,0.6c-0.7,1-1.5,3.1-1.8,5.1
		c-0.1,0.8-0.4,1.9-0.6,2.4s-0.3,1-0.3,1s0.4-0.3,0.9-0.7c0.8-0.7,2.7-1.8,3.1-1.8c0.1,0,0.6-0.3,1.1-0.6l0.9-0.6l-0.1,0.7
		c-0.3,1.3-1.3,3-2.2,3.8l-0.8,0.8l1,0.3c1.6,0.5,5.6,0.4,7.8-0.2c5.3-1.4,9.4-4.9,11.5-9.9l0.5-1.2l0.2,0.5
		c0.1,0.2,0.3,1.1,0.3,1.9c0.1,1.7,0.2,1.7,1,0c1.3-2.5,1.6-3.8,1.6-7c0-3.1,0.1-3.2,1-2.4c1.3,1.1,0.2-2.6-1.4-4.1
		c-2.8-2.9-4.6-2.7-8,0.7c-2.9,2.9-3.6,4.3-3.6,7.2c0,3.5-2.1,6.8-5.2,8.3c-1.7,0.9-1.8,0.8-1.2-0.2c1.2-2.1,4-7.8,3.7-7.8
		c0,0-0.5,0.3-1,0.6c-1.7,1.1-3.1,1.7-5.7,2.5c-0.1,0-0.1-0.1,0-0.6c0.6-1.8,2.3-3.5,5.6-5.9c4.5-3.2,5.3-5,2.3-5
		c-1,0-1,0.1,1.4-1.4C157.4,334.4,157.2,333.5,152.8,334.8"/>
</g>
</svg>
