<svg xmlns="http://www.w3.org/2000/svg" viewBox="0 0 400 400"><path d="M168.7 11.2c.3 2.4-.2 5.9-.9 6.8-.1.1-.3.6-.4 1-.1.4-.8 1.9-1.5 3.3-1.5 3-2.1 4.6-2.3 5.9-.1.5-.2 1.3-.3 1.8-.2.8-.2.9 1 3.3 1.7 3.6 2.6 6.4 1.3 4.1-1.1-2-4.6-5.8-4.9-5.4-.1.1-.1 1-.1 2.1 0 3-.6 7.2-1.6 11-.5 1.8-.9 3.8-1 4.4s-.2 1.4-.3 1.8c-.3 1.1-.2 1.2 2 2.2l2 .9-.8.4c-1 .5-1.2 1.1-.6 1.8l.4.4-.6.6c-.7.8-.7.9-.2 1.6l.4.6-.5.4c-.3.2-1 .6-1.7.8-1.8.6-2 1.1-1.9 4.4.2 4.4 3.3 12.5 5.7 15 .4.5.5.2.1-.5-2.1-3.8-3.8-9.6-3.8-12.8 0-2.3.3-4.2.6-4.2.1 0 .7-.5 1.3-1 .6-.6 1.4-1.1 1.7-1.2.6-.1.6-.3.2-1-.3-.5-.3-.5 0-.4.3.1.3.1.1-.3-.3-.5-.3-.6.1-.6.9 0 .7-1.2-.4-2-.2-.2.3-.8.5-.6.1.1.2 0 .1-.1 0-.1.2-.4.4-.6l.5-.4-.5-.7c-.3-.4-.7-.8-.9-.9-.3-.1-1-.7-1.6-1.3l-1.1-1 .3-1.3c.2-.7.6-2.3 1-3.6.4-1.3.9-3 1.1-3.8.2-.8.5-1.7.7-2 .3-.6.6-1.9.8-3.2.1-.4.2-.7.2-.7.2 0 1.2 1 1.2 1.2 0 .1.3.5.6.8.3.4.6.8.7 1.1.1.2.3.4.4.4.4 0 .3-1.8-.3-6l-.5-3.1.7-2.1c1-3.1 2.8-7.9 2.9-8 .1-.1.1 1.8.1 4.2 0 3.8 0 4.7.4 6.7.3 1.7.4 2.4.2 2.7-.5.9.1 1.3 2.4 2.2.9.3 2 .8 2.3 1.1l.6.4-1.6.1c-.9.1-1.7.2-1.7.3-.2.3 0 2.1.3 3 .2.4.4 1.2.6 1.7.4 1.2.5 1.2 1.5 1 1.2-.3 1.3-.2.3.5-1 .6-1 .5 0 2.5l.9 2c.3.9.7 1.1 2.1.9 1.8-.3 1.8-.3 1.4.3-.7.9-.4 1.4.5.8 1.3-.9 1.9-.7.8.2-.3.3-.5.5-.5.6 0 .3 1.3.8 1.7.6.2-.1.1.1-.2.4-3 2.7-2.9 2.4-.7 4.7 1.5 1.6 2.7 3 3.5 4.2.2.3.3.3.8 0 .7-.4 2.4-.9 2.5-.7.1.1-.4.5-1.1 1-1.4 1.1-1.3.9-.7 2.6.7 1.7.6 1.7 2 1.4 2.5-.5 4.5-1.7 7.4-4.6 3.8-3.7 9.4-6.5 11.2-5.5.9.5 1.4.3 1.2-.5-.3-1.5-4-8.2-5.4-9.7-.2-.3-.8-1-1.3-1.6-1.6-2-3-3.3-4.2-3.9-.6-.3-1.9-1.1-2.9-1.8-1.8-1.2-3-2-6.8-3.9-2.4-1.2-2.6-1.4-3.8-2.9-1.2-1.5-2.5-3-3.6-4.2-.5-.6-1.3-1.6-1.7-2.2-.4-.6-1.4-2.1-2.3-3.3-2.3-3.2-3.6-5.3-4.4-7.3-.4-1-1-2.4-1.4-3.2l-.7-1.5v1.4m135.1-.8c.2.6 1.9 6.1 2.4 7.9.3 1.1.7 2.6.9 3.4.7 2.9 3.2 13.4 3.6 14.6 1.1 3.6 1.5 4.8 1.8 5.5.2.4.4 1 .5 1.5.2 1.2.3 1.2.9-.1.7-1.5.6-2.5-.6-6.8-.1-.4-.6-2.1-1.1-3.7-.5-1.7-1-3.2-1.1-3.4-.3-.5-.8-2.4-1.3-5.1-.8-3.9-3.2-11.9-3.9-13.4-.3-.7-2.3-1-2.1-.4m6.9.3c0 .1.1.4.2.7.2.4 1.1 3.7 1.9 6.6.1.2 0 .3-.1.2l-.7-.7-.5-.5.1 1.1c.1 1.1 1.4 5.5 1.8 6.2.4.7 1 .5 1-.2v-.6l.3.7c.1.4.6 1.7 1 2.9.6 2 1.2 3.4 1.6 4.3.3.6 1 .5 1-.1 0-.8-.9-4.1-2.4-9.1-.4-1.2-.9-3.1-1.1-4.2-.4-1.8-1.8-7.1-2-7.3-.2-.1-2.1-.2-2.1 0m-1.8 5.1c-.4.4.3 4.2 1.9 9.4l1.1 4.2c.2.9.6 2.3.9 3.2 1.6 4.6 1.7 5 2.1 5.1.5 0 .4-1.1-.8-5.8-.2-.9-.5-2.6-.7-3.9-.2-1.2-.4-2.6-.6-3-.2-.4-.5-1.8-.8-3.1-1.1-5.6-1.4-6.3-2.4-6.3-.3 0-.6.1-.7.2M118 30.3c-1.5 1.9-1.7 2.2-3.3 3.8-.9.9-2 1.9-2.6 2.2l-1 .6-.8 2.6-.8 2.6.8 1.5c1.1 2.1 2.3 2.2 2.2.3-.1-.8 0-.9 1.1-2.1 2.6-2.8 4-4.8 5.1-6.9.4-.8.7-1.3.7-1.2 0 .5 2.5 2.7 3.1 2.7.4 0 .6-.1.6-.4 0-.6-3.6-6.7-4-6.7-.2 0-.6.5-1.1 1m4.6 8.6c-2 1.1-4.2 2.8-4.2 3.2 0 .2-3.7 2.8-6 4.2-.5.3-1.7 1.1-2.7 1.7-1.1.7-2 1.1-2.3 1.1-.3 0-1.1.1-1.7.3-.6.2-1.7.3-2.5.4-2.8.3-4.4 1.5-4.4 3.3 0 .2 0 .6-.1.9-.3 1.2 1.2 1.6 1.6.4.5-1.2 2.4-2.2 4.3-2.3 1.2-.1 1.9-.3 2.3-.8.1-.1.8-.5 1.6-.7.8-.3 1.8-.8 2.4-1.2.5-.4 1.5-.9 2.1-1.3.6-.4 2.2-1.4 3.5-2.2 2.2-1.4 2.3-1.5 1.5-.7-.5.5-1.8 1.5-3 2.3-2.7 1.9-3 2.7-.6 1.7 1.1-.4 1.5-.7 3.9-2.5 4.4-3.4 7.6-5.2 8.4-4.7 1.3.8 2-1.2.9-2.4a4.22 4.22 0 0 0-5-.7m196.8.3c.1.3.2 1 .4 1.5s.3 1.6.4 2.4l.1 1.4-1.1 1.3c-2.5 3.1-6.7 6.3-8.5 6.5-1.5.2-9.3 2.5-12.8 3.8-7.1 2.7-11.3 3.5-15.2 2.7-10-1.9-16.2-2-18.5-.2-.3.2-.6.4-.7.4-.7 0-6.1 4.7-6.9 5.9-.1.2-.7.7-1.3 1.2-1.1.9-1.4 1.5-.9 1.5.3 0 .5.6.5 1.7s.3 2.1.8 2.6c.6.6 1.3 1.8 1.8 3.1.3.6.6 1.3.7 1.4.1.2.2 1.1.2 2.2 0 3.1.2 3.2 5.5 2.8 2.8-.2 7.2.4 7.1.9-.1.4.4.7.6.4.1-.1.6-.3 1.2-.4.6-.1 1.8-.5 2.7-.8 2.1-.7 4.4-.9 7.5-.6 2.6.3 2.6.3 3.6-1.2 1-1.3 1-1.4 0-2-.6-.4-2.2-2.1-1.8-2.1 0 0 .9.3 1.9.6 2.2.7 2.2.7 2.8.1.3-.3 1.2-1 1.9-1.6 3.1-2.4 3.1-2.4 1.7-4l-1-1.2h2.2c2.4.1 3.7-.1 3.9-.7.1-.3-.4-1.2-.7-1.2-.1 0-.6-.3-1.1-.6-.5-.3-.8-.6-.6-.5 2.8.9 4.3 1.1 4.7.7.1-.1 1.7-1.7 3.6-3.5 3.4-3.4 3.7-3.5 8.2-6.5 4.5-3 6.7-5.7 9.1-11.5.6-1.3.1-3.9-1.1-6-.4-1.1-1.1-1.4-.9-.5m-188.5 3.9c-.5 1.2-.2 3.4.5 4.7.8 1.4 2.6 3.8 3.2 4.1.2.1.5.6.6 1 .4 1.3 1 2.6 1.2 2.6.1 0 .2.1.2.2 0 .3.6.7.9.7.3 0 .1-1.1-.3-1.7-.1-.2-.4-1-.6-1.8-.4-2-.9-3.1-2.1-4.3-1.3-1.4-2.4-3.5-2.6-4.9-.2-1.2-.7-1.5-1-.6m-6.9 4.2c-1.2.5-3.1 1.4-7.3 3.5-4.3 2.1-8.4 3.7-11.8 4.5-2.4.6-3.5 1-3.5 1.3 0 .3 2.6.2 4.1-.1 3.1-.8 5.5-1.5 7.3-2.1 1.2-.4 2-.7 2-.6-.1.2-4.8 2.5-5 2.5-.3 0-2.5 1-2.5 1.2 0 .4.5.3 3-.5 1.5-.5 2.8-.9 2.9-.9.2 0 3.1-1.3 6.6-3.1.9-.5 1.3-.6 1-.3-.8.6-1.9 1.8-1.9 2 0 .5 1.6.1 2.1-.5.4-.5 3.3-2 3.6-1.9.1 0-.1.3-.5.7-1 .9-1 1.2.1 1.1 1-.1 2.1-.8 2.5-1.7.2-.4.4-.6.7-.6.4 0 .4 0 .2-.3-.4-.5.1-.7 1-.4.9.4 1.1.6 1.5 2.2 1.2 4.6 4.9 10.7 5.6 9.5.1-.2-.4-1.4-.7-1.6-.4-.3-2.7-6.4-2.9-7.9-.6-3.1-1-3.7-2.7-3.6-1.2.1-1.2.1-1.8-1.2-.7-1.8-1.4-2-3.6-1.2m1 2.6c0 .2-.3.4-.6.5l-.6.2.6-.5c.6-.6.6-.6.6-.2m194.2 4c-1 3.2-1.7 4.7-2.1 4.7-.1 0-1.3 1.1-2.7 2.4-2.4 2.4-4 3.8-5.9 5.3-1.7 1.3-2.1 1.8-2 2.2.2.5.4.4 1.6-.6 1.8-1.4 2.5-1.9 3.6-2.5.5-.3 1-.6 1-.7 0-.1.9-.7 1.9-1.5 4.6-3.3 5.2-4.5 6-11.6.1-1.4-.5-.2-1.4 2.3m5.7 1c-.8 2.3-.9 3.2-.5 4.4.5 1.4 1.1 3.5 1.3 4.6.3 2.1 3.4 10.7 5 14.2.8 1.7 1 2 1.4 2 .8 0 .3-2.3-1.8-8.3-1-2.9-2.2-7-3.7-12.6-.3-1.2-.7-2.3-.8-2.4s-.4-.7-.6-1.2c0-.7-.2-.9-.3-.7m-206.1 1.2c-.3.1-.9.7-1.4 1.3-1 1.3-4.1 2.9-8 4.1-2.6.8-6 1.4-6.2 1.2-.1-.1-1.4-.1-2.9-.2l-2.8-.1-1.6 1.1c-3.5 2.4-3.8 3.5-2.2 7.4.4 1 .7 1.9.7 2.1 0 .4.3.5.5.2.4-.7 2.3-1.6 3.2-1.5 1.2 0 1.3-.1.6-.7-1.5-1.4-1-2.2 1.5-2.6 2.1-.3 2.8-1.4.8-1.4-1.2 0-3.1-.2-3-.4 0-.1 1-.2 2.2-.3 2.5-.1 4.5-.6 5-1.2l.4-.4-1.7.1c-2.8.2-3.4-.1-.9-.4 1.2-.1 2.7-.4 3.5-.5.7-.1 1.3-.2 1.2-.1-.2.3.2.2.5-.1.4-.4 3.5-1.7 4-1.7.2 0-.2.3-1 .7-3.1 1.6-4.1 2.6-1.9 1.8.7-.2 1.3-.4 1.5-.4s.7-.2 1.2-.5c.9-.5 2-1.1 2.9-1.5.4-.2 2.8-1.4 4.5-2.3 1.3-.7 1-.3-.5.7-2.4 1.6-2 2.5.5 1.2 1.6-.8 2.5-.9 2.5-.2 0 1 1.1.4 1.5-.9.1-.3.4-.8.7-1.2.6-.8.7-1.8.3-2.3-.4-.6-4.6-1.4-5.6-1m-21.1.1c-2.8.9-3.2 1.4-3.2 3.8 0 1.9.1 2.4.5 2.4.5 0 1.4-.7 1.6-1.1.3-1.2 2-2.1 4.5-2.4 2.6-.3 1.3-.9-1.5-.8-1.2.1-1.3 0-.9-.2.3-.2.4-.3.1-.4-.2-.1-.2-.2.2-.6.6-.8-.2-1.1-1.3-.7m40.1.4c-.1.1-.1 1 0 2 .1 1.7.1 2-.3 2.6-.5.8-.5 1.8-.1 2 .7.3 2.6-3.1 2.6-4.5 0-1.1-1.6-2.7-2.2-2.1m66.9 3c-3.5 1-6.6 4-6.9 7l-.1.7.4-.5c1-1.2 1.3-1.5 2.3-1.9 3.7-1.7 9.6.3 11.4 4 .5 1 1.5 1.3 1.2.4-.4-1.6-1.7-3.7-2.9-4.9-.7-.7-1.2-1.3-1.2-1.3.5 0 2.7 1.5 3.4 2.3 1.4 1.5 2 1.3 1.1-.4-.6-1.3-1.3-2.1-2.2-2.6-1-.7-.8-.8.4-.3.8.3 1.7 1.1 4.1 3.6 2.5 2.5 3.3 3.3 4.2 3.7 1.4.7 3.2 1.1 3.9 1 .5-.1.5-.1-.1.3-.3.2-.7.4-.9.4-.2 0-.3.1-.3.2s.3.2.6.2c.8 0 .7.3 0 .5-2.3.5-2.8.9-1.2 1.2 1 .1 1.3.4.7.6-1.1.4-1.2.4-.4.8.9.4 1.7.4 3 .1.8-.2 1.3-.2 2.1 0 1.4.3 2 0 1.3-.7-.2-.2-.5-.4-.6-.4-.1 0-.3-.1-.3-.2s.2-.2.5-.2c1.1 0 .1-1.3-1-1.4-.9-.1.8-.3 2.2-.4 1.4 0 1.7.1 3.2.7 2.1.9 3.4 1 5 .5l1.2-.4-.9.9c-.9.9-1.3 1.1-2.6 1.4-.6.1-.8.3-.8.6-.1.8 2.3.8 4 .1.8-.3.7-.1-.5 1-1.5 1.3-.1 1.7 1.9.5l1.2-.8-.4.9c-.4 1-1 2-1.4 2.3-.1.1-.3.4-.4.6-.3 1 1.6.2 2.8-1.3l.4-.5-.4 1.3c-.3 1-.6 1.4-1.3 2.1-1.2 1.1-1.2 1.5-.1 1.3 1.8-.3 4.2-3.5 4.9-6.6.4-1.7 2.9-3.6 5-3.9.8-.1 1.6-.3 1.8-.4.4-.2 1.2.1 2.1 1 1.1 1 1.3.8.4-.6-.8-1.2-1.8-2.2-2.7-2.6-.4-.2-.8-.4-.8-.5 0-.1.1-.1.2 0s.5.2.8.2c.3.1.8.2 1 .3.6.3.6.2.2-.3-.2-.2-.9-.7-1.5-1-1.6-.8-1.2-1 1.4-.4l.6.1-.6-.4c-1.9-1.3-3.6-1.5-7-.6-.4.1-1.5.4-2.4.6-.9.2-1.8.5-2 .6-.4.2-1.3.5-3.9 1.1-1.5.4-6 .7-6.2.4-.3-.4-1.7-.7-3.1-.7-2.4 0-6.4-1.5-8.6-3.2-.6-.5-2-1.5-3-2.2l-2.6-1.9c-2.1-1.9-6.9-2.8-9.6-2m118.1.6l-.4.6 1 2.8c1.1 3.2 1.1 3.3 1.7 3.3.6 0 .5-.8-1.1-5.9-.5-1.6-.6-1.7-1.2-.8M125.5 60c-.5.3-.4.7.2.9a2 2 0 0 1 1.6 2.3c-.2 1 1.5 6.2 2.3 7.3.4.5 2.4 2.8 2.9 3.3.2.2.2.3-.2.3-1 .1-.1 1.5 2.3 3.6 1.2 1 2.3.7 2.3-.6 0-.3.1-1.2.2-2 .3-2.2-.3-3.2-2.8-3.9-2.9-.9-5-3.9-5.7-8.2-.4-2.7-1.6-3.9-3.1-3m-6.4 3.2c-.7.2-1.5.6-1.8.7-.3.1-1.4 1-2.3 2-1.8 1.8-2.6 2.4-6.6 4.6-4.2 2.3-5.4 2.7-9.5 2.9-.9 0-1.9.5-3.2 1.6-.1.1-.7.5-1.3 1-1.7 1.2-2.1 3.1-.9 4.3.4.5.7 1 .9 1.9.4 1.9 1.7 3 3.3 2.7 1.9-.2 1.9-.3 1.2-1.1-1.6-1.6-1.2-3.1 1-4 .6-.2 1.6-.8 2.4-1.4.8-.6 1.7-1.2 2.1-1.4 1.2-.7 2.7-2.6 2-2.6-.1 0-.6.3-1.1.6-.5.3-1 .6-1.1.6-.1 0-.4.2-.7.5-.7.6-1.1.8-3 1.5-2.1.8-1.5.3 2.9-2.2.8-.4 1.8-1.1 2.4-1.4.6-.4 2.1-1.2 3.4-1.8 2.8-1.4 2.8-1.2.4 1-2 1.8-2.4 2.3-1.6 2.3.5 0 3.2-1.6 3.6-2.2.1-.1.3-.2.5-.3.8-.4 2.1-1.6 3.2-2.9.6-.7 1.2-1.4 1.4-1.5 1.3-.9 1.4-.8.2.3-.7.7-1.6 1.6-1.9 2-1.3 1.4-.4 2.1 1.1.8.4-.4.8-.6.8-.5s-.1.2-.2.3c-.7.3-3.7 3.2-3.7 3.6 0 .3.1.4.3.4.2-.1.4-.1.6-.1.1 0 .4-.1.5-.3.1-.1.9-.6 1.6-1s1.5-.9 1.7-1c.2-.2.5-.3.7-.3s.5-.1.5-.3c.1-.1.4-.3.7-.4.4-.1.6-.2.6-.5 0-.2.3-.9.6-1.5s.6-1.4.7-1.8c.1-.6 1.5-1.6 1.5-1.1 0 .1.2.5.5.8.5.6.5 1.5.1 1.8-.8.5.1 2.4 1.1 2.4.5 0 5.9 5.5 7.3 7.3.8 1.1 1.7 1.7 1.7 1 0-.5-.8-2-1.5-2.9-.6-.7-1.6-2.2-2.9-4.3-1.1-1.8-2.2-4.2-2.2-5 0-1.3-1-2.3-2.4-2.3-.4 0-.8-.7-1.2-1.9-.6-1.3-2.2-1.7-4.4-.9m200.7.7c-.8.9-.8 1.2-.1 3.7.2.7.6 2.1.8 3.1.4 1.8 1.9 6.2 3.5 10.7.7 1.9.8 2.1 1.3 2.1l.5.1v-1.3c0-2.1-1-5.9-2.7-10.7-.4-1.1-.8-2.6-1-3.3-.2-1.4-1.4-5.3-1.6-5.3.1.1-.3.4-.7.9m-180.7-.3c-.4.2-.1.6.9 1.5.5.4 1 .9 1 1 0 .2.1.3.2.3.6 0 .6 1.7.1 2.8-.8 1.6-1.3 4.6-.8 5.4.3.5.8.1 1.1-.8.3-1 .6-1.3.7-.9.1.2-.1.7-.4 1.2-.3.5-.5 1.1-.5 1.2s-.1.3-.3.3c-.2 0-.4.2-.5.5-.2.6-.4.4-.8-.8-.1-.5-.3-.7-.6-.7-1.3 0-.6 3.7.8 4 1.3.3 2.2 4 1 4-.1 0-.2.1-.2.3 0 .2-.1.3-.3.4-.6.2-.4 1 .3 1 2.9 0 4.4-3 3.1-6.1-1-2.1-1-2.7-.4-3.6 2.4-3.5 2-6.4-1.2-9.5-1.8-1.5-2.5-1.9-3.2-1.5m-2.7 1.3c.1.3 0 .5-.1.5-.3 0-.2.6.1.9.6.6.6 1.8-.1 2.9-1.4 2.4.6 3 2.1.6 1.3-2 1.3-2.8.1-4-.5-.5-1-.9-1.2-.9-.1 0-.3-.1-.3-.2s-.2-.2-.4-.2-.3 0-.2.4m64.8 1.7c-1.2.6-1.9 1.4-2.4 2.7l-.3.9.5.5.5.5.3-.6c.8-1.4 2.3-1.8 2.7-.8.4 1.1 1.7 1.2 4 .4 1.1-.4 1.2-.4 1.8-.1 1.3.8 2.1 1.5 2.3 2.3.3 1 .6.9.6-.1-.1-4.4-6.1-7.7-10-5.7m-5.5.8c-.3.5-.3.6 0 .6.2 0 .5-.8.3-.9 0-.1-.2 0-.3.3m114.2.9c-2.6.2-4.2 1.2-2.6 1.7.3.1.5.3.6.6.1.3.3.5.5.6.7.2.8 2.3.2 3.1-.1.1-.3.7-.5 1.4-.2.6-.4 1.6-.6 2-.4 1.5-1.1 1.9-2.8 1.8-.3 0-.5.1-.6.3-.1.3-.2.3-.7.3-.3-.1-.6 0-.6.1 0 .2-.1.2-.4 0-1.1-.6-1.6.1-.7 1 .3.3.5.6.5.8 0 .2.1.5.3.8.3.4.3.8.2 2.1-.1 2.1-.2 2.4-.9 2.4-1.6 0-2.6.9-1.2 1.1.3 0 .6.1.7.2.6.5 2 .4 2.2-.1.1-.3.4-.9.7-1.3 4.1-5.7 3.9-5.1 2-6l-1.5-.7 1.3.1c1.2.1 1.9-.1 1.9-.6 0-.1.3-.5.6-.9 1.3-1.9 4.6-8.8 5-10.4l.1-.5h-1c-.5 0-1.8.1-2.7.1M189 69.9c-4.8 1.2-8.8 3.9-10.5 7.2-2.5 5-3 9.5-1.3 13.1 1.2 2.6 3.2 2.1 2-.4-.4-1-.4-3.8 0-5.4.2-.6.4-1.6.6-2.1.7-2.9 4.8-5.2 8.2-4.8 3.3.4 4.1.7 6.9 2.4 1.7 1 2.3 1.2 2.3.7 0-.4-.8-1.7-1.2-1.9-.2-.1-.9-.6-1.6-1.1-.7-.5-1.6-1.1-2-1.4-1.1-.6-.3-.6 2.2.1 2.3.6 2.4.6 2.4 0 0-.5-.3-.7-2.3-1.9-.5-.3-1.4-.7-2.1-.9l-1.2-.4 1.2.1c1.8.2 4.6 1.2 5.9 2.3.3.3 1.2.9 2 1.4.8.5 1.5 1 1.6 1.1.1.1.4.2.9.3.8.1.9-.3.1-1.2-.2-.2-.5-.6-.7-.9-2.6-3.8-2.3-3.6-5.6-5.3l-2-1H192c-1.4-.1-2.8-.1-3 0m135.6.8c0 1.3 1.7 7.9 2.3 8.8.2.3.4.4.8.4 1-.1.9-.5-1.3-7-.8-2.3-1-2.7-1.4-2.7-.3-.1-.4.1-.4.5m-107.5 4.1c-3.3 1.5-3.3 7.3 0 6.8.9-.1 1.2-.5.5-.5-.2 0-.7-.2-1-.5-1.1-1-.6-2.7.7-2.5 1.1.2 2-.3 2.2-1.3.2-1.1.7-1.2 1.4-.4.6.6.8.6.8 0 0-1.6-2.7-2.5-4.6-1.6m30.1 1.4c-.6.7-1.3 1.6-1.5 2-.4.8-1.2 2.1-1.6 2.6-1.2 1.5-.3 3.8 1.8 4.3.3.1.6.3.8.4.8.7 3.3.3 4.4-.7.4-.3.7-.6.8-.6.2 0 .2-.7 0-.9-.1-.1-.5.1-.8.3-.4.2-.8.3-1.1.2-.2-.1-.7-.2-1.1-.2-1.5 0-2.6-.9-1.4-1.1 1.5-.3 2.2-2.2 1.3-4.1-.1-.3-.4-.6-.6-.6-.5-.2-.5-.3.1-1.4 1-1.8.4-1.9-1.1-.2m-15.3 1.1c-1.3.5-1.7 2.9-.7 4 .6.6 1.5 1 1.7.6.1-.1 0-.3-.1-.3-.5-.2-.2-.6.5-.8.6-.2.9-.4 1.1-1 .3-.6.4-.7.7-.5.5.3.6.2.6-.3 0-1.3-2.2-2.3-3.8-1.7m-3 .2c0 .4-2.5 1.4-3.4 1.4h-1l.4.4c.3.3.8.5 1.7.5 1.1.1 1.2.2 1.3.5.2 1.2 1.2 1.1 1.1-.2-.1-.8.1-1.6.4-2.5.1-.2 0-.3-.2-.3s-.3.1-.3.2m-42.8 1.4c-5.6.9-7.1 9.7-2.2 13.6 3 2.4 4.9 3.1 9.7 3.8 2.8.4 4.1-.2 1.8-.7-5.8-1.4-8-3.1-9.2-7.3-.4-1.4-.3-2 .2-2 .8 0 1.9-.6 2.3-1.4.7-1.2.5-2-.7-3.4l-.5-.5.8-.4c.5-.2 1.2-.4 1.7-.4 1.3 0 1.3-.5.1-1-1.1-.3-2.7-.5-4-.3m37.6 1.8c-.5.2-.8 1-.5 1.5.3.5.3.6-.1.5-1-.4-1.6.4-.8 1.1.3.3.4.4.1.4-.2 0-.3-.1-.4-.2-.1-.4-1.7-.5-1.7-.1 0 2 3.9 3.4 6 2.3 2.1-1.2 2.3-1.8.5-1.9h-1l.9-.4c1.1-.5 1-.4.9-.9-.1-.2-.3-.4-.4-.4-.2 0-.2-.1.1-.3.9-.6-.2-1.7-1.1-1.2-.1.1-.6-.1-1.1-.3-.5-.2-.9-.4-.9-.4-.1.1-.3.2-.5.3m-12.7.4c-1.3.6-2.5 2.8-2.3 4 .2.9.7.8 1.5-.2.7-1.1 1.6-1.7 2.4-1.8 1.5-.1 2.1-.7 1.6-1.5-.5-1-1.8-1.2-3.2-.5m-83.9 0c0 .1.2.3.5.4 2.1.8 3.3 4.4 2.3 7.3-.7 1.9-.2 1.3 1.7-2.3.5-.9 1.1-2 1.4-2.4.6-.9.7-.8-.3-1.4-1.7-1-5.6-2.1-5.6-1.6m9.6.3c-.3.4-.4.9-.4 1.6 0 1.5-.4 2.9-1.6 5-1.1 2.1-1.1 2.2-.1 1.6 4-2.3 6.3-5.8 4.9-7.6-.5-.7-.9-.6-1.1.4-.1.3-.2.6-.3.6-.2 0-.2-.5 0-.7.3-.3 0-1.3-.4-1.2-.2 0-.4 0-.5-.1 0-.1-.2.1-.5.4m195.4-.1c-.5.1-1.1.3-1.4.6-.3.2-.7.4-.8.4-.2 0-.5.2-.8.4-.3.2-.6.4-.7.4-.2 0-.3.1-1.2 1.6-.3.5-1.1 1.3-1.8 1.8s-2 1.6-2.9 2.4c-.9.8-1.7 1.5-1.8 1.5s-.5.1-.8.3c-2.7 1.2-5.2 1.9-7.1 1.9h-2l-.6 1c-.7 1.2-1.7 4.8-1.5 5.4.1.3.4.9.8 1.5s.7 1.2.7 1.4c0 1.1 2.9 2.7 3.4 1.9.1-.1.5-.2.9-.2 1.1 0 1.6-.8.8-1.2-.2-.1-.5-.3-.8-.4-1.5-.7-1.8-1.2-1.8-2.9 0-1.9.1-2.1 1.7-2.3 1.2-.2 3.1-.6 3.9-1 .3-.1 1.1-.4 1.7-.6 1.7-.6 5.3-2.2 6.5-3 1.2-.8 1.7-2.1.9-2.1-.2 0-.4.1-.4.2s-.9.6-2 1.2c-2.5 1.2-5 1.9-2.8.8.5-.2 1.5-.9 2.4-1.5.9-.6 2-1.4 2.5-1.7 1.3-.8 2.9-2.3 3.3-3.2.5-1.1 4.3-2 5.7-1.4 1.4.6 1.9-.2 1.4-2-.4-1.4-2.5-1.8-5.4-1.2m-208.7 2c-.3.5-.5 1-.6 1s-.8 1.4-1.7 3c-1.9 3.4-2.1 4-1.4 6 .8 2.6-.6 10-2.8 14.8-.4.8-.8 1.9-1 2.3-.3.8-.8 1.7-2 3.9-.9 1.6 0 2.3 1 .7.7-1.2 5.5-8.3 6.4-9.6 2.2-3.2 2.3-3.4 1.8-5.4-.3-1.2-.5-2.4-.9-5 0-.3-.2-1.3-.3-2.2-.2-1.1-.2-1.8 0-2.1.1-.2.4-1.1.7-2 .3-.9.8-2.4 1.2-3.5.9-2.5.7-4-.4-1.9m90.4.4c-4.5 1.4-5 7.1-.7 8l.7.1-.5-.6c-.7-.7-1-1.5-.8-2.4.1-.9.2-.9.7-.7 1.3.7 3-.3 3-1.9 0-1.2 2.1-.2 2.7 1.3.4 1.1.7 1.1.7 0-.1-2.7-2.9-4.7-5.8-3.8m43.5.4c-1.2.3-2.5.8-6.2 2.4-1 .4-2.6 1.1-3.7 1.5-1.9.7-2.2.8-6.9 1.2-3.4.3-.4 1.4 3.7 1.4h2.3l-.9.8c-1 .9-3.5 2.2-5.3 2.7-1.8.5-1.5 1.4.3 1.1 1.1-.2 3.6-1 5.6-1.8 1-.4 1.9-.7 2-.6.3.1-1 1.5-2 2.2-2.7 1.9-3.2 2.5-1.9 2.4 1.4-.1 3.2-1.2 5.5-3.2 6.3-5.8 12.1-7.4 15.3-4.1.9.9 1.3.9 1.3 0 0-2.2-3.5-4-6.4-3.4-1.3.3-3.7.5-3.7.4 0-1.3 7.4-1.4 8.7-.2 1.2 1.1 1.7.3.7-1.2-1.3-1.6-4.9-2.3-8.4-1.6m-148.4 1.3v1.4c.1 1.7-1.6 7.2-2.3 7.4-.3.1-2.3-2-2.5-2.6-.1-.2-.3-.4-.6-.5-.3-.1-.5-.3-.5-.5 0-.3-.7-.6-.9-.4-.2.2.5 2.6 1.1 3.5.3.5 1 1.6 1.5 2.5 1.1 1.8.7 1.8 3.2.4 1.1-.6 2.8-1.5 3.8-2 .9-.5 1.7-1 1.7-1.2 0-.4-4-8.4-4.4-8.8 0 0 0 .3-.1.8m227.7.4c-2.8.7-4.8 2.4-4.8 4.1 0 .1-.3 1.2-.7 2.4-.7 2.3-.8 3.2-.5 3.4.3.2 1.2-.3 1.2-.6 0-.1.2-.7.5-1.2s.8-1.6 1.1-2.4c.9-2.2 1.5-2.5 5.5-2.8 1-.1 2.4-.2 3.2-.3l1.4-.1-1.4-1.4c-.8-.8-1.5-1.4-1.6-1.4-1-.1-2.6 0-3.9.3m-108.2.4c-2.4 1.1-3.4 3.6-2.4 5.7.5 1 2 2.2 2.8 2.2.6 0 .7-.3.3-.5-.5-.3-1.1-1.5-1.1-2.2v-.7h1c1.3 0 2.1-.8 2.1-2 0-.6.1-.8.3-.8.6 0 1.6.6 2.1 1.2.6.8 1 .6.8-.4-.4-2.4-3.4-3.7-5.9-2.5m69.3 1.5c0 .2.1.4.2.6 1.1 1.1-.4 4.7-3.4 8.4-.8 1-2.1 2.6-2.8 3.7-1.2 1.8-3.5 4.2-6.5 6.9-1.3 1.2-7.5 4.4-8.9 4.6-.4.1-1.2.3-1.6.6-.4.3-1 .5-1.1.5-.5 0-.4.9.1 1 2 .5 6.4-.6 11.3-2.8l2-.9c.2-.1 1.5-1.6 3-3.4s2.8-3.5 3-3.7c.7-.8 3.5-4 5.6-6.7 1.4-1.7 2.7-3 3.7-3.7 1.1-.8 1.1-1 .3-1.3-.9-.4-1.8-1.1-2.5-2-.3-.4-.7-.9-.9-1.1-.1-.2-.3-.5-.4-.7-.2-.5-1.1-.6-1.1 0m-38.9 1.8c-2.6.5-3 .7-4.4 1.6-1.7 1.1-2.2 1.6-3.8 3.6-.6.8-1.6 1.8-2.1 2.2-.7.5-.9.9-.7.9.5.1 2.4-.8 3.3-1.6.5-.4 1.2-.9 1.6-1.1.4-.2 1.3-.7 1.9-1.1 4.5-2.9 7.4-3.1 9.7-.7.8.9 1.3 1.8 1.3 2.5 0 .5.5.7.8.3.2-.5-.1-3.4-.4-4.1-1.3-1.9-4.4-3.1-7.2-2.5m-131.5 1.2c-1.8.5-2.4.6-3.5.9-1.4.3-2.3 1.4-1.4 1.8.1 0 .5 1.4.9 3 1 4.1 1.2 4.4 2.8 3.8.3-.1 1-.2 1.4-.3l.9-.1-.9.5c-.5.3-1.4.6-2 .8-1.4.4-1.6.8-.8 1.6 1 1 .1 6.2-2.1 11.6-.2.5-.4 1-.4 1.1s-.2.7-.5 1.2c-2.4 5.4-3.1 10.6-3.4 26.2-.2 9.2.1 12.2.8 11.6.2-.2.3-.6.2-2-.1-1 0-3.6.1-5.9.1-2.3.3-5.4.3-6.9.4-10.1 1.4-15.6 4.8-25 2.1-5.7 7.4-14.8 9.3-15.7 1.1-.5.9-1-2-5.4-.7-1-1.3-2.1-1.5-2.4-.2-.7-1.2-.8-3-.4m210.2.5c-2 .6-2.1.8-3.8 6.3-.6 1.9-.5 2.3.1 2.3s1-.5 2.1-2.6c1-1.8 1-1.7.5.4-.4 1.8-.4 1.8.1 2 .7.2 1.4-.6 2.3-2.4 1.3-2.6 3-3.2 4.7-1.6.7.7 2 1.4 2.4 1.3.3-.1.6.1 1.1.8.8 1 6 5.5 8.9 7.7 1.1.8 2.8 2.2 3.9 3.2 1.1.9 2.1 1.7 2.3 1.7.7 0 .3-.7-.9-1.7-.7-.5-1.8-1.7-2.6-2.5-.8-.9-2.5-2.7-3.9-4.2s-3.7-3.9-5-5.5c-3.4-3.8-4.6-4.7-7.1-5.1-2.6-.4-3.8-.4-5.1-.1m-131.6 1c-3 1-5.8 3-6.3 4.7-1.3 4.2 1.2 11 4.8 13.1 1.7 1 2.4.5 1.4-1-1.9-2.8-2.5-5.9-1.5-7.9l.3-.7.6.7c.3.4 1 .9 1.4 1.1.4.2 1.4.6 2.2.9 3.2 1.4 5.7 3.6 7 6.3 1.1 2.4 1.4 1.9.5-1-.7-2.3-1.2-3.1-3.2-5.7-1-1.2-1.9-2.4-2-2.6-.1-.2-.5-.7-1-1-.4-.4-.7-.8-.7-.9s-.1-.3-.3-.4c-.4-.2-.4-.5.1-.5.8 0 3.9 2 5.6 3.6.9.8 1 .5.3-.9s-2.2-3.1-3.6-4c-1.5-1.1-1.2-1.1 1.4-.1.8.3 1.2.6 1.6 1.1.3.4.6.7.6.7.1 0 .5.4 1 .9 1 1 1.2 1 1.4.5.2-.6-4.4-5.4-6-6.4-1.5-.9-3.9-1.1-5.6-.5m50.6 1.5c-2.1.7-2.6 1-5.3 3.1-.3.2-1 .9-1.6 1.5-.6.6-1.1 1-1.2 1-.8 0-.7 4.6.1 5.3.7.6 9.3.3 10.5-.3.9-.5.3-.8-1.8-.9-1.8-.1-5.1-.5-5.6-.8-.1-.1.3-.3.9-.5 2-.7 3-3 2-4.4-.3-.4-.2-.4 0-.7.9-.8 3.1-2.4 3.9-2.7 2.1-1 .6-1.5-1.9-.6m-79.2.1c-2.5.7-3.3 1.3-4.6 3.6-3.2 5.3-3.6 7-3.6 13.2v4.7l.7 2.7c.4 1.5 1.2 3.8 1.8 5.3.6 1.4 1.1 3.1 1.2 3.6.2 1.5.4 2.1 2.2 5.7 1.1 2.2 2 4.6 2.9 7.1 2.1 6.3 3.2 9.4 3.8 10.9.3.8.9 2.1 1.2 2.9.9 2.3 1.6 3.4 2.1 3.5.2 0 .4.1.4.2s.5.3 1.2.5c.6.2 1.2.4 1.2.5 0 .2 1.2.7 1.6.7.8 0-.2-1.8-1.2-2.1-.2-.1-.5-.4-.6-.8-.1-.4-.3-.9-.5-1-.9-1.1-2.9-8.2-3.6-12.8-.2-1.3-.6-3.1-.8-4-.7-2.6-1.5-7.7-2.1-12.8-.2-1.8-.6-4.9-.8-6.7-.5-4.2-.6-9.5-.1-11.8.6-2.8.4-4.2-.4-2.7-1.7 3.4-2.6 10.2-2.1 16.4l.2 2.7s-.4-1.5-.8-3.5c-1.2-5.7-.8-13.8.8-16.9.2-.3.3-.7.3-.8 0-.1.3-.8.6-1.4.6-1.1.8-2.1.4-2.1s-1.2.5-1.2.7c0 .1-.3.5-.6.8-1.2 1.1-2.8 4.9-3.4 8.1-.2.8-.3 1.6-.4 1.8-.1.2-.1.6-.1 1 0 .7 0 .7-.2.2-.2-.5-.1-2.8.1-4.6.2-1.6.7-3.9.9-4.1.1-.1.2-.3.2-.5 0-.6 2.3-3.8 3.7-5.1 1.5-1.5 1.3-1.6-.6-.5-.5.3-1.1.6-1.2.6-.1 0-.7.5-1.4 1.2-1.4 1.4-1.6 1.4-.8.2.8-1.3 3.1-3.2 4.3-3.9 1.5-.9 1.2-1.2-.7-.7m-65.7 4.5c-2 3.9-3.6 6.2-5.4 7.7l-1.2 1.1.1-.8c.1-.4.2-1.8.3-3 .1-1.2.3-2.7.4-3.3.2-1 .1-1.4-.1-1.2-.2.3-2.9 10-3 11-.1 1.2.6 3.3 2.5 7.6.3.7 1.1 2.9 1.6 4.8.6 1.9 1.6 4.9 2.3 6.7 1.7 4.6 5.8 16.5 6.3 18.3.1.3.5 1.5.9 2.6.7 2 1.2 3.9 1.8 6.1.6 2.3.7 2.8.9 3 .1.1 0-.8-.2-2.1-.2-1.2-.5-3.5-.7-5.1-.4-3.8-.5-4.2-.7-5-.2-.6-1.1-5.6-1.5-7.6-.1-.4-.2-1.1-.3-1.7-1.5-7.5-1.9-10.5-2.1-15-.2-4.3-.3-4.9-1.4-8.2-1-3.1-1.5-5.1-1.7-6.3-.3-1.7-.8-1.9-2-1-.3.2-.6.4-.7.4-.1 0-.6.4-1.1.8-.5.4-.9.8-1 .8h-.3c-.1 0-.3.1-.4.3-.1.1-.3.2-.4.2s.4-.4 1.1-.9c.7-.5 1.3-1 1.5-1.1.6-.7 3.4-2.8 3.8-2.9.4-.1.5-.2.7-.9 2.6-10.4 2.6-10.3 0-5.3m-14.8-1.9c-.3.5-.5.9-.5 1.1 0 .3-1.1 2-2.4 3.7-.6.8-1.1 1.5-1.1 1.5 0 .2-1.9 2.6-3.1 3.9l-2.5 2.9c-.7.9-1.5 1.9-1.8 2.2-2.7 3-8 10.9-9.4 13.9-1.3 2.8-1.6 4.4-2 10.6-.1 1.7-.5 3.7-.7 3.9-.1.1-.2.3-.2.5s-.2.7-.4 1.1c-.2.4-.4.9-.4 1 0 .1-.1.3-.3.4-.2.1-.6 1.1-.9 2.1-.3 1-1 2.7-1.5 3.6-1 2-1.2 3.7-.5 4.9.9 1.7 4.7 4.9 5.7 4.8.6-.1.8-.9.3-1.1-.2-.1-.3-.2-.3-.3 0-.1-.6-.8-1.3-1.6-.7-.8-1.4-1.7-1.6-2-.2-.7-.2-.7.7 0 2.7 1.8 5.1 3.1 5.8 3.1.8 0 4.2-2.9 5.2-4.6.3-.5.8-1 1.1-1.1.5-.2 1.1-1 1.1-1.4 0-.4-3.3 1-4.7 2.1-1.5 1-.7-.3 1.4-2.4.8-.9 1.4-1.6 1.3-1.6-1.3-.4-1.9-.1-3.8 1.8-.8.8-1.3 1-.8.4.1-.1.3-.6.4-1.1.1-.5.3-1 .4-1.2.1-.2.1-.4.1-.5 0-.1.1-.5.2-1 .1-.4.3-1.9.5-3.2.2-1.4.4-2.5.5-2.6.2-.2.2-.1.1.6-.2 1.2.5 1.2 1.6 0l1-.8-.1.8c-.1.6 0 .9.3 1.3.2.3.4.6.4.8 0 1 1.2-.6 2.5-3.2 1.6-3.3 2.8-5.1 6-9.5 5.3-7.1 6.7-9.3 6.7-10.5 0-.7-.3-.6-.7.1-.2.3-.6.9-1 1.3l-.6.8s-.8 1-1.9 2c-2.6 2.7-5.6 6.2-6.8 8-1.1 1.6-2.9 3.7-3.3 3.8-.1 0-.4.3-.7.6-.6.6-.7.3-.2-.4.2-.3.8-1.3 1.3-2.3.5-1 1.1-2 1.3-2.2.2-.2.7-1 1.1-1.8s1.1-1.9 1.5-2.5c.9-1.3 1.2-2.3.7-2.3-.7 0-1.2.5-2 1.7-.5.7-1.2 1.7-1.6 2.1-1 1-3.1 3.7-4 5.1-.4.6-.8 1.1-.8 1-.2-.2 3.5-7 4-7.6.3-.3 1.1-1.4 1.8-2.4s1.3-1.8 1.4-1.8c.2 0 .8-1.3.8-1.7 0-.8-4.4 3.1-6.4 5.7-.3.4-.8 1-1 1.3-.7.9-2.3 3.2-2.9 4.2-.3.5-.6.9-.7.9-.4 0 1.1-3.7 2.2-5.5.4-.6 1-1.6 1.4-2.2.4-.6 1.4-1.9 2.3-2.9 1.8-1.9 4.5-5.1 5.8-6.6.4-.5.9-1.1 1.1-1.4.8-1 2.2-2.9 3-4.2.4-.8 1.3-2.2 2-3.3.7-1 1.2-1.9 1.2-2 0-.3-.5.3-2 2.6-.9 1.4-2.2 3.1-2.9 3.9-.7.7-1.4 1.5-1.7 1.8-.9 1-.6.2.3-1 1-1.3 2.4-3.5 2.4-3.8 0-.1-.5.6-1.2 1.6-.9 1.3-1.7 2.2-2.8 3.1-.9.7-2.3 2.2-3.2 3.2-1.9 2.1-2.3 2.4-1.3.9.4-.6 1-1.6 1.4-2.2.8-1.3 3.6-5.4 5.2-7.6.5-.8 1.2-1.7 1.5-2.1.3-.4.9-1.4 1.3-2.1 2.2-3.5 3.8-8.2 2.6-8.2-.3.2-.6.5-.9 1.1m131-.7c-.1.1.1.2.3.2s.4-.1.3-.2c-.1-.1-.2-.2-.3-.2s-.2.1-.3.2m-68.2.3c-1.8.1-4.9.8-6.2 1.4-6 2.7-9 4.8-14.9 10.5-3.1 3.1-4.1 4.2-6.2 7.2-.3.4-1.7 2-3 3.5l-2.4 2.7-.5 1.8c-.8 2.9-1.2 4.7-1.2 5 0 .4.4.2 5.4-2.2 6.1-3 7.7-3.7 10.8-4.7 6-1.9 7.2-2.2 9.5-2 1.9.2 1.9.3-.3.8-4.9 1-8.2 2.5-8.2 3.9 0 .7.4.7 2.9.1 3.8-.8 5.1-1 8.1-1 2.9 0 5.5.4 6.6 1 .2.1 1 .3 1.8.4 1.4.2 4.1 1 4.5 1.4.2.2 1.2.3 1.3.1.2-.2-1.3-3.6-1.9-4.2-.7-.8-2.8-2-4.2-2.5l-1.1-.4 1.1-.1c.7 0 1.6.1 2.4.3 1.6.5 1.5.5 1.2-.7-.3-1.2-1.4-2.2-2.4-2.2-.1 0-.8-.3-1.6-.7-.9-.5-2.1-.8-3.4-1.1l-2-.4h1.7c1.2 0 2.1.1 3.2.5 3.9 1.1 4 1.1 3.8.1l-.2-.8c-.4-.3-1.9-1.3-2.4-1.4-1.2-.5-.1-.6 1.9-.2l.6.1-.1-1.9c0-1.1.1-2.8.2-3.8.3-2.2.3-2.2-1.6-2.8-1.3-.4-.8-.8 1-.6 1.1.1 1.1.1 1.2-.4.1-.3.2-1.1.4-1.7.4-1.6.1-1.7-2.9-1.8-.6 0-1.3-.1-1.5-.1-.6-.1 3.2-.8 4.5-.8 1.2 0 1.9-1.3 1.1-2 0-.3-3.8-.5-7-.3m170 .7c-.1.1-.4.6-.6 1-.2.4-.8 1.1-1.2 1.5-.5.4-1.3 1.1-1.8 1.5-1.7 1.4-3.1 2.5-5 3.6-4.8 2.9-5.7 4.1-4.9 7.3.9 3.8 2.6 3.8 2.8 0l.1-1.9.9-.4c4-1.7 11.1-9.8 10.8-12.2-.1-.6-.8-.8-1.1-.4m-110.9 1.7c-.2.3 2.2 2.3 3.2 2.8 1.4.6 3.2 1.1 4.2 1.2 1.1 0 1.2.1.4.2-.3 0-.7.2-1 .3-.3.1-1.5.2-2.6.2-2.3 0-2.4 0-2.1.7.3.7 1.5 1.1 3.3 1.3 2 .1 1.9.2-1.3 1.1-.1 0-.2.2-.2.4 0 .9 2.4 1.1 4.1.4.9-.4.5.7-.4 1.4-1.1.8-1.1 1-.1.9.5-.1 1.1-.2 1.3-.2.3 0 .7-.2 1-.3.3-.1.5-.2.5-.1s.7-.2 1.5-.7c2.1-1.1 3-1.4 3.1-1.3.1.1.3 0 .5-.1 4.9-2.6 8.7 2.2 4.9 6.1-1 1-1 1.1-.7 1.1 1.6 0 4.2-3.4 4.8-6.4.3-1.3-.5-4.3-1.2-4.3-.1 0-.3-.2-.5-.4-.4-.5-1.3-.9-2.1-1.1-.3-.1-.6-.2-.6-.3 0-.2-1.7-.9-2.4-1.1-.7-.1-5.7-.2-6.8 0-2.6.3-4.2.3-5.1.1-.5-.1-1.3-.3-1.7-.4-.6-.1-1.9-.7-3.6-1.5-.1 0-.4-.1-.4 0m126.8 0c-.2.1-.5.2-.7.3-.2.1-1 .3-1.9.4-2.4.4-2.7.9-2.7 3.7 0 2.6 1.1 3 1.8.8.3-1 .4-1.1.6-.9.6.7 7.9 4.8 8.5 4.8.5 0 1.6.6 1.6.8 0 .1.3.3.8.5.4.2 1.2.8 1.8 1.2 1 .9 3.3 2.4 6 4.2 1.5 1 4.9 4.4 5.8 5.8.7 1.1.8 3.6.2 6.7-.4 2-.5 3.6-.6 8.4-.1 3.3-.2 7.1-.4 8.4-.5 5.4-.5 11.6-.1 11.5.3-.1.4-.3.5-.9.1-.5.2-1.4.3-2 .1-.6.2-1.4.2-1.9 0-.4.2-2.2.5-3.8.3-1.7.6-3.8.7-4.8.1-.9.3-2.8.5-4.2.2-1.3.3-3.4.4-4.5.1-1.1.4-3.2.7-4.7.8-3.4 1.1-8.2.7-9.2-.4-.9-2.4-3-3.5-3.5-.5-.2-1-.6-1.3-.8-.2-.2-1.3-1-2.5-1.8-3.6-2.5-6.8-5-8.3-6.4-.5-.5-1.8-1.1-2.4-1.1-.6 0-4.6-3.8-5.4-5.2-.3-.4-.6-.8-.6-.9-.1-.1-.2-.3-.4-.6-.1-.5-.2-.5-.8-.3m-77.5 1.7c0 .2-.1.3-.3.3-.2 0-.3.3-.4 1.2-.1 1.8-.2 1.9-4.7 3.6-.7.3-2.3.6-3.4.8-1.2.2-2.4.4-2.8.5s-2.2.4-4.1.6c-3.7.5-3.8.5-3.6.9.1.1 0 .3-.1.4-.2.1 1.6.1 5.1.2 2.9 0 10.4-.4 11.7-.6 1.4-.2 3.4-.7 3.5-.9.5-.5.6.8.2 1.9-.7 2.2-.3 3 .7 1.1.3-.6.7-1.3.9-1.6 1-1.4 1.2-3.3.5-4.8-.6-1.2-3.2-4.1-3.2-3.6m-27 .7c0 .1.2.3.5.3.4 0 .5 0 .3-.2-.3-.4-.8-.4-.8-.1m91.5.3c-.2.3-.7 1-1.1 1.6-.5.9-1 1.6-1.7 2.5-.1.1-.2.3-.2.3s-2.1 2.2-4.7 4.7c-5.9 5.8-6.1 6.2-4.5 9.3 1 2 1.2 2.1 2.2 2.2h.9l.1-.9c0-.5 0-.9-.1-1.1-.3-.3-.3-.6.2-1.1.2-.2.4-.7.5-1.1.3-1.4 1.9-3.4 3.8-4.6 1.7-1.1 5-4.5 5.7-6a13 13 0 0 1 1.7-2.5c.3-.2.2-1.3-.1-1.3-.5 0-1.1.4-1.1.7 0 .3-1.1 1.4-1.6 1.7-.3.2.3-2.5.6-2.7.1-.1.2-.6.3-1.2.1-1.2-.2-1.4-.9-.5m-144 2.6a28.6 28.6 0 0 0-3.3 5.7c-.1.4-.4.9-.5 1.3-.1.3-.3.9-.4 1.3-.1.4-.3.7-.4.6-.2 0-.6 1.5-.6 2.5 0 .6 0 .6-.2.1s-.1-4.5.1-5.4c.1-.2.2-.9.2-1.5.1-.6.3-1.8.6-2.6.7-2.3.7-2.8.5-2.9-.9-.6-3.1 4.6-3.5 8.6-.5 3.8 0 12.6.7 14 .1.3.5 1.7.7 3.1.2 1.4.7 4.1 1.1 5.9.4 1.8.7 3.5.8 3.9 0 .4.2 1 .4 1.4.2.4.3.9.3 1.2 0 .2.1.7.3.9.3.5.2-1.9-.1-3.6-.1-.4-.2-1.3-.3-1.9s-.2-1.3-.2-1.5c-.5-2.6-.7-4.5-.5-4.6.1 0 .2.6.4 1.4.1.8.5 2.8.8 4.3.3 1.6.6 3 .6 3.3 0 .2.1.5.2.6.2.2 0-2.9-.4-5.9-.3-2.6-.6-7.4-.6-14.4 0-2.5.6-6.9 1.2-8 .1-.2.2-.6.3-1 .1-.6.9-2.3 2.9-6 1.2-2.8.8-3.3-1.1-.8m8.3-.4c-.2.1-.5.1-.5.1-.1 0-.1 0-.1.1s-.1.2-.2.2-.6.2-1 .4c-.5.2-1.2.5-1.8.7-2.5.8-5.4 3.8-5.4 5.5 0 .1-.2.7-.4 1.2-.5 1.1-.4.9-.9 3.5-.4 2.1-.6 5.5-.4 6.3l.1.5.1-.5c.1-.3.2-1 .3-1.7.4-2.4 1.6-5.7 3-8.2 1.2-2.2 2.1-3 5.2-4.5 2.8-1.4 2.9-1.5 3-2.8 0-.9-.2-1.1-1-.8m141.6 4.2c-.5.8-1.3 2-1.7 2.7-1.2 2-1.6 2.6-2.8 3.9-1.2 1.4-1.4 1.7-2.7 3.2-.4.5-1 1.2-1.2 1.5-.2.3-1 1.1-1.7 1.8s-1.4 1.5-1.5 1.8c-.1.2-.6.9-1 1.5-1.4 2.1.4 7.6 2.5 7.6 1.2 0 1.3-.3.8-3l-.2-1.1.8-.9a75.95 75.95 0 0 0 4.3-4.9c.3-.5.7-1 .8-1.1.1-.1.6-.8 1-1.5s1.6-2.4 2.7-3.8c1.5-2 2-2.8 2-3.4.2-1.5-.8-.9-2.3 1.2l-.7.9s.3-.8.8-1.8 1-2.2 1.1-2.8c.1-.5.3-1.2.4-1.4 1-2.2 0-2.5-1.4-.4m5.4 2.7c.3 5.5 2.6 7.4 8.7 7.2 3.2-.1 3.1-.1-1.2.9-3.6.8-4.9.7-6.5-.8-1.5-1.3-2.7-1.1-3.2.5-.3.8-1.1 2.9-1.8 4.3-.6 1.3-1.9 3-3.1 3.9-4.1 3.3-3 4.2 1.7 1.3 1.4-.9 3.9-3.8 4.9-5.5l.9-1.8.6.4c1.7 1 5.5 1.4 7.8.8 2.5-.7 3.9-1 5-1.2 1.3-.2 1.7-.6 1.5-1.3-.1-.4 0-.6.4-.9 1.1-.8-1-3.6-2.8-3.6-.2 0-.6-.2-1-.5s-1-.5-1.4-.6c-.4-.1-1-.2-1.4-.4-.4-.2-1.2-.4-1.7-.5-.6-.1-1.7-.5-2.6-.9-.8-.4-1.6-.7-1.7-.7-.1 0-.7-.7-1.2-1.6-.8-1.2-1.1-1.6-1.5-1.6h-.5l.1 2.6m-150.1-1.5c-.8.4-1.6 1-1.9 1.5-.3.4-.7.8-.8.8s-.3.2-.4.4c-.1.2-.4.7-.7 1.1-1.5 2.3-1.5 5.6 0 6 .2.1.8.4 1.2.7 1.5 1 2.2 1.2 2.3.6.1-.3.1-.2.3.2.6 1.2 3.3 2.1 3.3 1.1 0-.3.1-.5.2-.5.1.1.2.3.2.6 0 .5.5 1 1.1 1.2.4.1.5.1.3-.7-.2-1 .2-1.1.4-.1.2.9.5 1.1 2.8 2.1 2.5 1 2.8 1 2.7.2-.1-.5 0-.6.1-.3.1.2.2.4.2.6 0 .6.4.8 2.3 1.5 2.1.7 2.2.7 2.2 0 0-.4.1-.3.3.2.2.6 1.2 1 1.7.8.1 0 .3.1.5.3 1 .9 6.1 1.9 8.8 1.7 3.5-.3 6.7-.7 9.7-1.4 4.9-1.1 6.1-1.4 10.3-2.6 1.1-.3 2.3-.6 2.7-.6.4 0 1.1-.2 1.5-.4s1.2-.5 1.7-.6c1-.2 1.9-.7 2-1.2.1-.3-1.8-.2-2.6.1-.3.1-.3.1-.1-.4.4-1.1-.1-3.8-.8-3.8-.3 0-.4.1-.4.8 0 .9-.6 2.3-1.4 3.2-.3.4-.6.7-.6.8 0 .1-1.6.6-2.1.6-.1 0-.1-.5 0-1.1.1-1 .1-1.2-.2-1.3-.5-.2-.7-.1-1.1.7-.2.5-.6 1-.8 1.3-.2.3-.4.6-.4.8 0 .2-.1.4-.4.4-.4 0-.4 0-.4-2.2.1-2.2.1-2.2-.3-2.2-.2 0-.4.1-.4.3 0 .5-1 2.4-1.7 3.3-.4.5-.8 1-.9 1.2-.2.3-2.2.8-2.4.6 0 0 0-.5.1-1.1.6-2.4-.5-3.4-1.5-1.4-.3.7-.8 1.5-1.1 1.9-.3.4-.6.8-.6.9 0 .2-.3.3-.7.4-.4.1-1 .2-1.3.2l-.5.1v-1.3c.1-3.2-.8-2.9-2.3.6-.5 1.2-.6.9-.6-1.4 0-2.4-.3-3.4-1.1-3.4-.5 0-.6.2-.8 1.4-.1.8-.2.9-.6.9-.7 0-3.7-1.3-4.8-2-1.1-.8-1.4-.9-1.6-.4-.1.2-.2.3-.3.3-.1 0-.1-.2 0-.6.3-.9-.2-1.4-.9-.9-.3.2-.5.4-.5.5 0 .1-.1.2-.3.3-.2.1-.2-.1.1-.8l.4-.9-.7-.7c-.4-.4-.8-.7-.9-.6-.3.1-2.5 2.5-2.8 3-.1.2-.3.3-.3.3-.1-.1 1.3-2.9 1.9-3.8.3-.4.2-.5-.8-1.3l-1.1-.8-.7.7c-1.6 1.5-1.7 1.5-.6-.2.7-1 .7-.9-.5-1.6-1.6-.9-2.4-.5-4 2-.3.5-.7 1-.8 1.1-.1.1-.3.4-.3.5 0 .1 0 .2-.1.1-.2-.2.9-2.7 1.7-3.8.6-.9.7-1.1.5-1.3-.5-.3-.8-.2-1.8.8-1.1 1.1-1.2.9-.2-.5l.7-1-.5-.4c-.8-.7-1.7-.1-3.3 2-.4.5-.7.9-.8.9-.3 0 1.1-2.9 1.7-3.5.6-.6.6-.8-.2-1.3-1.1-.7-2.7.2-4.2 2.5-.3.5-.7.9-.8.9-.1 0-.2.1-.1.1.1.3-.4 1.5-.6 1.4-.1-.1-.1-.3 0-.5l.2-.4c.3-1.3 1.5-3.6 2.2-4.1 1.4-1-.2-1-1.9-.1m42.8 2.7c-.3.3-1 1.3-.9 1.4.1.1.9-.6 1.1-1.1.3-.5.2-.6-.2-.3m9.2 1c0 .2.5.8 1.1 1.4.6.6 1.3 1.4 1.6 1.8.3.4.6.8.7.9 2.6 2.7 3.6 6.5 2.4 9.1-.3.5-.5 1-.5 1.1-.3 1-2.7 5.9-3.3 6.8-.3.3-.5.7-.5.7 0 .2-3.9 6.2-8.1 12.5-2.2 3.3-4 6.1-4 6.2 0 .6.5.2 4.1-3.7.9-1 1.8-1.9 1.9-2 .1-.1.8-1.1 1.5-2.2.9-1.3 1.4-2 1.6-2 .4 0 1.3-1 2.4-2.5.4-.6 1.3-1.9 2.2-2.9 6.7-8.6 8.4-11.8 8.4-16.1 0-1.8-.8-4.3-1.5-4.5-.5-.2-.5 0-.1 1.7.5 1.9.5 2.3 0 3.7l-.3 1.1-.1-1.4c-.3-2.8-1.9-5-5.7-7.7-.3-.2-.9-.7-1.2-1-1.1-1.1-2.6-1.6-2.6-1m22.8 1.3c-.1.7.2 2.8.5 3.1.7.9 1.1 4.4.8 6.1-.1.6-.3 1.5-.3 1.9-.2 1.2-1.8 3.8-4.1 6.2-1.2 1.2-2.6 2.8-3.2 3.6-.6.8-1.7 2-2.5 2.9-2.7 2.9-3.2 3.5-3.2 4.2 0 .8 1 0 5.4-4.3 2.6-2.5 5.5-5.3 6.5-6.1 1-.8 2.1-1.7 2.3-1.9 2.3-1.9 3.5-3.8 3.5-5.6 0-1.1-.5-2.5-1.1-2.7-.2-.1-.3-.4-.4-.7-.3-1.4-3.4-7.3-3.8-7.3-.2 0-.4.2-.4.6m28.7 6.1l-1.7.2c-.9.1-3.3.2-5.3.3-2 .1-4.6.2-5.7.2h-2.1v.5c0 .8.6 1 4.1 1.5 2.9.3 6.4 1 7.2 1.5.4.2 1.8.7 3.1 1.1 1.8.5 2.5.9 2.8 1.2.2.3 1.4 1.1 2.6 1.9 1.4 1 2.5 1.8 2.9 2.4.6.8 2.9 4.6 2.9 4.8 0 .3 3.3 6.7 3.8 7.5.9 1.3 1.6 2.8 1.8 4.3.4 1.9 1.6 4.2 4.3 7.6.6.7 1 1.5 1.1 2 .3 1.5 1.8 4.1 3 5.1.6.5 1.2 1 1.3 1.2.1.1 1.4.9 2.8 1.7 1.4.8 2.9 1.8 3.5 2.1 1 .6 2.2 1.2 4.2 1.8 6.2 2 10.1 5.6 12.4 11.6.5 1.4.9 1.7 1.3 1.1.6-.9-.2-4.6-1.8-7.8-1.5-3-1.9-3.6-4.4-6.1-2.5-2.5-3.5-3.3-6.1-4.6-1.2-.5-2.7-1.5-3.3-2-.1-.1-1.2-.8-2.4-1.5s-2.9-2-3.8-2.7c-.9-.7-2.2-1.8-3-2.4-3.2-2.4-5.7-7.7-6-12.9-.4-6.4-1.3-9.5-4.1-13.2-1-1.3-4.7-5-5.5-5.4-.2-.1-.4-.3-.6-.4-1.6-1.5-8.4-3.4-9.3-2.6m-207.2.4c-.1.2-.2.4-.1.4.1.1.7-.3.7-.5 0-.3-.3-.2-.6.1m99.9 1.2c.4 2 .9 3.1 2.4 4.8 1.6 1.8 1.8 2 1.3.7-.5-1.2-1.2-3.3-1.1-3.4.1-.1.2.3.4.7.5 1.3 1.1 1.1 1.5-.3l.3-1.1-.6-.5a14 14 0 0 0-3.9-1.6c-.3 0-.4.1-.3.7m7.4 2.7c-.9.3.7 7.6 1.7 7.6.5 0 .5-.1.4-1.9 0-.7 0-1.8.1-2.4l.1-1.2.2.8c.3 1.1.8 1.1 1.3 0 .6-1.2.5-1.5-.8-2.1-1.3-.8-2.4-1.1-3-.8m149.5 2c.2 1.9 1.1 6.4 2.2 10.8.5 2.1 1.1 4.5 1.3 5.4 1 4.6 1.6 6.7 3 11.1.9 2.7 1.6 4.9 1.5 4.9-.1.1-.2-.1-.2-.4-.5-1.9-3-7.2-3-6.3 0 .4.7 3.2 1.1 4.7.3 1.1.9 3.2 1.2 4.7.3 1.5.8 3.3 1 3.9.5 1.8 2.2 9.7 2 9.8 0 0-.2-.4-.3-1-.1-.6-.6-2.3-1.1-3.7-.5-1.4-1.1-3.3-1.3-4.2-.3-.9-.7-2.3-1-3.1-.3-.8-.7-2.2-1-3.1-.5-1.8-2.5-8.1-3.5-11.4-.8-2.3-1.7-5.8-1.6-5.9 0 0 .3.7.7 1.5.6 1.5.9 2.4 1.7 5.6.7 2.4.9 2.9 1.2 2.9.2 0 .3-.2.2-1-.3-2.6-1.7-9.5-2.5-12.3-.2-.6-.7-2.6-1.2-4.5-1.5-5.7-2.6-7.6-3.5-5.6l-.3.6-.3-1c-.2-.6-.4-1-.4-1-.3 0-2.4 3.2-2.3 3.5.1.4 2.1 7.2 2.9 9.9a177 177 0 0 0 3 9.9 213 213 0 0 1 2.1 6.1c.6 1.8 2.1 6.3 3.4 10.1 1.3 3.8 2.6 8.1 3 9.7.8 3 2.6 8.7 3.2 9.9.2.4.4 1 .5 1.3.1.3.3 1 .6 1.6.9 1.9 1.7 3.8 2.2 5.2 1.3 3.7 1.8 5.2 1.9 6 .2 1 .7 2 1 2 .2 0 .2-.2.1-.7-.1-.4-.2-1.3-.3-2-.4-2.4-2.3-8.5-3.7-11.4-.2-.4-.5-1.3-.6-1.9-.1-.6-.3-1.2-.4-1.4-.2-.3-.7-2.6-1.2-5-.1-.7-.4-2.1-.7-3-.5-2.1-.5-2.6 0-1l.8 2.3c.3.6.8 2.1 1.2 3.3 1.1 3.3 2.1 5.4 2.7 6.1l.6.6v-.8c0-.9-1.2-5.2-2.7-9.2-1.2-3.1-1.6-4.8-2.5-9-.4-2-1.1-4.5-1.4-5.5-.5-1.5-1-3.4-1.3-5-.2-.9.5.9 1.5 4.1 1.1 3.6 3.4 10.3 4.4 13 .4 1 .9 2.6 1.1 3.6 2.3 8.8 5.9 20.7 7.7 25.1.8 2.1 1.4 3.6 2 6 .2.9.6 2.1.8 2.6.2.6.6 1.8.8 2.9.6 2.7 1.6 6.2 1.9 7 .2.5 1.8 5.9 2.6 8.9.2.8 1.5 5.7 1.9 7.4.3 1.4 1.1 3.6 2.7 7.7 2 5.4 3 7 4.1 6.8.3-.1.6 0 .6.1.1.1.1 0 .1-.3s-.1-.7-.2-1c-.1-.2-.4-1.5-.7-2.8-.3-1.3-1.1-4.1-1.8-6.1s-1.4-4.4-1.6-5.3c-.2-.9-.5-2.4-.8-3.5-.3-1-.5-2-.6-2.2s-.5-1.6-.9-3-1-3.3-1.2-4.2c-.2-.9-.8-2.6-1.1-3.8-.4-1.2-.9-3.1-1.1-4.2-.2-1.1-.7-2.9-1.1-4.1-.4-1.2-1-3.4-1.5-5s-1.2-3.8-1.7-4.9c-1.4-3.5-4.5-12.9-6.3-19.5-1.6-5.8-2.8-9.3-5.8-17.6l-1.4-4c-1.9-5.5-3.7-10.5-4.4-12.3-.4-1-1.2-3.9-1.9-6.4-1.2-4.7-1.5-5.9-3.4-11.9-.6-1.8-1.1-3.5-1.2-3.8-.2-.9-1-2.7-1.1-2.7-.1 0-.1-.1-.1-.3s-.1-.3-.3-.3c-.1-.3-.2-.1 0 1m-101.5-.8l-.8.2c-2.8.4-3.3.7-3 1.4.5 1.2.9 3.9.8 5.4-.1 2 .1 1.8 1.2-1.1.7-1.9.9-2.1 1-1.6.1.7 1.1-1.1 1.5-2.7.1-.5.3-1.1.3-1.3.2-.4-.7-.6-1-.3m113.5.7c-.3.3-.7.4-2.1.4-4.2 0-4.5 2-.3 2.3 1.6.1 1.6.2 1.4 2.6-.2 2.5-.5 10.5-.4 11 0 .2.3.3.5.3.5 0 1-1.6 1.6-4.7.2-.9.3-1.7.4-1.7.2-.2.5 3.9.4 6-.1 2.4-.1 2.7.4 2.4.4-.2 1.4-3.7 1.6-5.3.1-.8.3-2.1.4-2.8.6-4.1.1-7.4-1.2-7.8-.3-.1-.4-.3-.4-1.1 0-1.7-1.3-2.6-2.3-1.6m-93.9.7c-.4.5-1.5 2-2.4 3.2-.9 1.2-2.3 3-3.1 3.8-.8.8-2 2.4-2.6 3.4-1.2 1.7-5.5 7.2-7.1 9.2-.4.5-1.6 2-2.5 3.3-1 1.3-2.1 2.8-2.5 3.3-.4.5-1.4 1.8-2.1 2.9-.8 1.1-1.9 2.7-2.6 3.4-.7.8-1.8 2.2-2.6 3.2-1.6 2.1-2.1 2.5-3.7 2.7-.9.1-3.8.7-4.7 1-.5.2-.9.6-.9 1.2s.1.6 2.4.3c.9-.1 2.3-.3 3.2-.4 2.9-.4 4.2-1.6 7.9-7.1 2-3.1 4-5.7 6.3-8.4 1.3-1.5 4.9-6.5 5.9-8.1 2.3-3.6 3.9-6 6.3-8.8.6-.7 1.6-2.1 2.2-3 .7-1 1.8-2.5 2.5-3.5s1.3-1.9 1.3-2c-.1-.6-.5-.5-1.2.4m-39.9 2.1c-1.5.3-1.7.4-1.9 1.4-.5 3.5-1.2 7.5-1.5 8-.2.4-.3 1.2 0 1.2.2 0 2.1-2.6 3-4 .5-.7.9-2 1.6-4.5.3-1.2.7-.3.6 1.4-.1 2.1.1 1.9 1.3-1.1.8-2.1.9-2.3.4-2.4-.2-.1-2.7-.1-3.5 0m-81.3.5c-.4.1-.6.3-.6.5 0 .5.4.6 4.8 1.7 6.2 1.5 8.3 2.5 10.9 4.8.9.8 2.4 2.1 3.5 2.8 4.9 3.7 7.1 10.9 5.4 17.6-1.8 7.3-1.7 15.9.2 20.3 1.8 4.2 6.1 7.4 11.4 8.7 1.6.4 2.4.4 7.1.5 4.8 0 5.5.1 6.9.5.9.2 2.4.5 3.5.5 3.8.2 6.4 1.8 9.8 6 .8 1 1.7 2 2 2.4.3.3.7.9.9 1.3s.5.9.7 1.1c.2.2 1.1 1.2 1.9 2.2 5.5 6.4 11.8 10.1 17.4 10.2 5.1 0 7.3-.2 14.9-1.8.6-.1 1.9-.7 3-1.2 1.1-.6 2.5-1.3 3.2-1.6 1.9-.8 4.9-4 3.9-4-.1 0-.5.2-.9.5s-1.4.8-2.4 1.1c-.9.3-1.8.6-2 .7-.2.1-.4 0-.5-.4-.2-.5-.5-.7-2.1-1.3-3-1.2-4.5-2.7-7.9-8.1-2.4-3.8-3.8-5.5-5.6-7.1-.7-.6-1.7-1.4-2.1-1.8-3.6-3.1-6-4.2-9.3-4.4-3.8-.2-5.6-.4-8.6-1.2-5-1.3-6.4-2.1-9.5-4.9-1.6-1.5-1.6-1.5-4.1-1.7-1.6-.1-3.5-1-5.3-2.4-1.9-1.5-5-4.3-5.5-5-1.1-1.5-1.9-2.1-3.2-2.5-2.8-.9-5.3-3-6.5-5.6-.3-.6-.7-1.1-.9-1.2-.2-.1-.5-.6-.7-1.4-.2-.7-.5-1.6-.7-2-.2-.4-.4-.8-.4-1 0-.2-.1-.5-.3-.7-.3-.4-.6-1.3-.9-2.6-.3-1.3-.7-1.8-1.4-1.8s-.7.1-.3 2.6c.4 2.6.1 6.3-.5 7.8-.1.3-.2.2-.1-.6.5-6.3 0-10-1.9-14.2-1.5-3.2-2.9-4.9-5.3-6.6-.7-.5-2.3-1.6-3.5-2.5-2.3-1.6-4.1-2.4-8.1-3.4-2.3-.6-9.1-1.1-10.3-.8m-39.5 2c0 .1-.2.6-.3 1.1-.3 1.2-1 2.9-1.9 4.3-2.2 3.7-4.9 6.5-11.6 12-1.7 1.4-1.8 1.5-1.8 2.1l.1.6h1.2c.7 0 1.6-.2 2.1-.4s1-.4 1.1-.4.9-.3 1.6-.6c.8-.3 1.8-.6 2.4-.7 3.3-.5 7.8-5.1 8.9-9.3l.4-1.6-.4-1.6c-.6-2.2-.6-2.2-1.2 0-.3 1-.7 1.9-.8 2-.1.1-.2.2-.1.4.1.1 0 .3-.1.4-.2.1-.2 0-.1-.4.7-2.7 1.1-9.7.5-7.9m-10.6.9c-.3.3-1 1.1-1.5 1.8s-1.3 1.6-1.6 2c-1 1.2-1.7 2.7-2.4 4.7-.9 2.8-.7 2.9.9.5.8-1.1 1.5-2.1 1.6-2.2.5-.5 2.5-3.5 3.2-4.8 1.1-2.1 1-3.3-.2-2m97.2 0c-.2.2-.4.6-.6.9-1.4 1.8-3 4.7-2.8 5.2.1.2 1.3 1.1 2 1.3.1 0 .3.2.5.3 1 1 1.7 0 1.9-2.3.2-2.8-.4-3-1.1-.3-.2.8-.4 1.1-.5.9-.2-.2-.1-.3.1-.7.4-.6 1.3-3.8 1.3-4.5 0-.3.1-.6.2-.6.1-.1.2-.2.2-.4-.2-.3-.9-.2-1.2.2m-93.1 4.2c-1 1-1.6 1.8-1.6 2 0 .2-1 1.3-2.4 2.5-.6.5-1.3 1.2-1.4 1.6-.2.3-.9 1.1-1.6 1.8-1.9 1.7-2.6 2.4-2.6 2.8 0 .4 0 .4 2.8-1 3.6-1.9 4.5-2.7 6.9-7.3 1.6-3.4 1.6-4.2-.1-2.4m153.1.4c-.4.6-.8 1.2-.9 1.4-.1.3-2.4 3.8-4.5 7-3.5 5.2-12.7 12.5-13.5 10.7-1.4-3-13.1-4.3-18.2-2-1.7.8-4 1.5-4.2 1.2-.1-.1-.7-.2-1.4-.3-1.3-.1-2.8-.9-4.3-2.1-3.6-2.8-6.2-3.9-10.5-4.6-4.4-.7-5.8-1.7-6.5-4.8-.2-.9-.4-1.3-.3-.8.1.4.1 1 .2 1.1.1.2 0 .3-.4.3h-.5l.1 1.1c.4 3.6 4.5 6.7 8.9 7 5.2.3 8.9 1.8 12.4 5 1.6 1.5 4.3 3 6.2 3.7 1.8.6 7.1-.5 11.1-2.1 2.5-1 4.5-1.3 5.6-.8 4.6 1.9 8.7-.4 13.4-7.6.8-1.2 2.1-3.1 2.8-4.2 1.5-2.1 5.7-10.3 5.4-10.3-.1 0-.5.5-.9 1.1m-50.5-.2c-.1.2-.4.6-.5.8-.1.2-.6 1.1-.9 1.9l-1.4 2.8c-.8 1.6-.8 1.6-.1 2 2.2 1.1 4.2 1.3 3.6.3-.1-.1-.1-1.2-.1-2.4 0-2 0-2.2-.3-2.3-.3-.1-.3-.1 0-1.1.8-2.2.6-3.4-.3-2m15.2 2.2c-.1.1-.4.6-.6 1.1-.2.5-.6 1.3-.8 1.7-.3.4-.5.8-.5 1 0 .1-.1.4-.3.7-.4.5-2.3 5-2.3 5.3 0 .5 3.3 1.1 4.6.9l.8-.2v-1.4c0-1.3-.2-3.2-.4-4.1-.1-.2-.2-.3-.5-.3-.3.1-.4 0-.4-.2 0-.3.6-3.4.9-4.3.3-.3 0-.5-.5-.2m-9.9 1.1c-.2.1-.6 1-1.1 1.9-.4.9-1 2.2-1.4 2.9-.4.7-.6 1.3-.6 1.3.8.7 4.1 1.2 4.4.7.1-.1.2-.9.2-1.8v-1.7c.1-.4-.1-.6-.4-.6-.2 0-.4 0-.4.1 0 0-.2.5-.4 1.1l-.4 1.1.1-.9c.2-1.5.5-3.2.6-3.8.3-.6 0-.7-.6-.3m-17.3.9c0 1.3.6 2.7 1.3 3.2 2.9 1.8 6 3.2 9.5 4.3 1.6.5 3.6 1.2 4.5 1.5 1.6.6 2.2.8 6.2 1.4 1.3.2 2.6.4 2.9.5.3.1.4 0 .4-.2s-.1-.3-.2-.4c-.1 0-.6-.2-.9-.3-.9-.3-4.8-1.5-6-1.8-.5-.1-2.3-.9-3.9-1.6-1.6-.7-3.3-1.5-3.6-1.6-1.5-.5-6.3-3.1-6.9-3.6-.1-.1-.3-.2-.4-.2s-.5-.3-1-.8c-1.2-1-1.9-1.2-1.9-.4m45.3-.4c-.3.2-1.1 2-1.8 3.9-.3.8-.6 1.6-.6 1.7-1 1.3-1.7 5.4-1 5.8 1.2.7 1.8-.3 2.7-4.7.3-1.7.7-3.6.9-4.3.5-2.1.5-2.8-.2-2.4m-92.4 1.6c-3.4.2-8.9 1-12.6 1.9-1.6.4-3.1.7-3.4.8-.2.1-.5.2-.5.4-.2.6-.6 5.5-.5 5.6.1.1 2.6-.8 5.7-2 1.1-.4 3.1-1 4.6-1.3 1.5-.3 2.8-.6 2.9-.6a119 119 0 0 1 7.4-1.3c1.1-.1 2.1-.2 2.1-.3.1 0 .9-.1 1.8-.2s1.7-.2 1.8-.2c.5-.3 5-.6 8.4-.6 7.2.1 3.9-.9-4.5-1.4-1.7-.1-2.9 0-4.3.2-1.9.3-6.6.8-9.4 1-.8.1-1.5.1-1.6.2-.1 0-.4.1-.7.2-.8.1-2.9.5-3.9.6-.4.1-.9.1-1 .2-.1 0-.3 0-.3-.1-.1-.1.3-.2.7-.4 2.7-.8 5.6-1.4 8.6-1.9 1-.2 1.9-.3 2.2-.4.2 0 .9-.1 1.6-.2 3.5-.3.7-.5-5.1-.2m73.8 4.2c0 .3-.1.1-.1-.4s0-.8.1-.5v.9m18.8.9c-.3.8-.3 3.6 0 3.8 1.3.8 1.9-1.3.9-3.6-.4-.7-.7-.8-.9-.2m-78.6 3.2c-.4.5-.9 1.4-1.1 2-.4 1-.9 1.9-2.7 5.1-1.1 1.9-3.8 7.7-4.4 9.2-.5 1.3-.8 1.7-2 3-.8.8-2.3 2.7-3.3 4.1-1.1 1.4-2.1 2.8-2.3 3.1-.2.3-.8 1.1-1.4 1.8-1.3 1.6-1.3 2-.2 1.9 1.6-.1 4.3-.3 6.4-.5l2-.2 1.4-1.4c.7-.8 2.1-2 3-2.7.9-.7 2.1-1.8 2.5-2.5.5-.6.9-1.2 1-1.3.2-.2 1.9-3.2 2.3-4.1.2-.5.5-1.8.7-2.9.2-1.1.4-2.8.6-3.8.2-1 .4-2.7.5-3.8.1-1.1.3-2.2.3-2.4l.1-.4-.3.4c-.3.3-1.1 1.9-2.5 5.1-.2.3-.6 1.3-1 2.2-.8 1.8-1 2.2-1.3 2.9-.4.7-.6.8-.3.2.1-.3.2-.6.1-.7-.1-.2.5-2.8 1.1-5 .2-.8 1-2.8 1.6-4.5 1.1-2.7 1.9-5 1.9-5.4-.1-.8-2.1-.2-2.7.6m-47.1.6c-1.1.7-2.8 1.7-3.8 2.2l-6.6 3.3c-4.9 2.4-8 3.9-9.1 4.1-.3.1-1.2.3-2 .6-3.6 1.2-6.8.8-7.8-.9-.9-1.6-1.4-.5-.7 1.5 1.1 2.8 2.1 3.3 6.7 3.1 4.5-.1 6.5-.7 14.1-3.8 1.7-.7 3.2-1.3 3.5-1.4.9-.2 9.8-4.7 9.8-4.9 0-.5-1.7-5.2-1.9-5.2-.2.1-1.1.7-2.2 1.4m80.2 1.5c0 .1.3.8.6 1.4.3.7.7 1.7.9 2.3s.5 1.6.8 2.2.7 1.6.9 2.3a8.4 8.4 0 0 0 3.9 5.1c2.7 1.7 2.8 1.7 5.5 1.8 2.7.1 2.6.2 1.4-1.3-.4-.5-1.1-1.4-1.5-2.1-.9-1.4-1.8-2.2-3-2.9-1.2-.7-1.7-1.2-3.5-3.5-.3-.4-.9-1.2-1.4-1.9-.5-.6-1-1.3-1.1-1.4-.1-.1-.3-.3-.3-.4 0-.2-1-1.3-1.6-1.6-.6-.3-1.6-.4-1.6 0m78.5 1.3c0 1.1.5 2.5 1.3 3.7.4.6.9 1.5 1.2 2.1.3.5.8 1.7 1.3 2.5.5.9 1.3 2.3 1.8 3.3.5.9 1.1 2 1.4 2.4.3.4 1.4 2.5 2.5 4.7 1.9 3.7 3.3 6.5 4.3 8.2.2.4.7 1.3 1.1 2 .4.7.8 1.4.9 1.6.1.1 1.1 2.1 2.3 4.3 1.2 2.3 2.6 4.9 3.2 6 1 1.7 4 7.6 4.5 8.9.6 1.4 1.7 4.1 1.8 4.3.1.3-5.2-5.1-5.9-6-.3-.4-.7-.8-.8-1s-.6-.8-1.1-1.4c-.4-.6-1.1-1.5-1.6-2.1l-3-3.8c-1.2-1.6-4.7-6.5-4.8-6.8 0-.1-1.7-2.7-3.8-5.7-5.9-8.8-7.7-11.9-9.2-15.9-.8-2.2-2.2-4.5-2.6-4.5-1.3 0 .8 11.2 2.9 15.4.3.7 1.2 2.7 1.9 4.5.7 1.8 2.4 5.4 3.8 8.1 1.9 3.8 2.3 4.8 1.9 4.4a26.25 26.25 0 0 1-6.2-7.7 30 30 0 0 1-1.3-2.6c-.5-1.1-1.5-3-2.2-4.2-.7-1.2-1.5-2.6-1.7-3-.2-.4-.7-1.6-1.1-2.6-.3-1-.8-2.1-1-2.4-.6-.8-.9-1.8-1.3-3.5-.3-1.5-1-4-1.5-5.3-.1-.4-.4-.5-.7-.5h-.4v4.7c0 6.6.3 9.7 1.4 13.3.4 1.3.3 1.2-.6-.4-.4-.7-1-1.9-1.4-2.6-.4-.7-1-1.9-1.3-2.6-.3-.8-.7-1.5-.8-1.6-.1-.1-.3-.3-.3-.4 0-.4-.4-.2-.6.3-.1.3-.3.5-.4.5-.3 0-.1 5.8.3 7.9.9 4.7 2.6 8.8 4.7 11 .2.3 1 1.3 1.6 2.2 2.2 3.3 7.4 8.3 11.9 11.7 1.1.8 2.4 1.9 2.8 2.3 2.7 2.5 11.3 6.9 15.3 7.8 1.5.3 5 2.3 8.5 4.6 1.6 1.1 3.3 2.2 3.7 2.4 2.4 1.2 6.1 4.6 8.1 7.4.7 1 1.5 2 1.7 2.3.3.3.6.9.8 1.2 1.3 2.3.7-.8-.8-3.6-.4-.8-.9-1.9-1-2.4-.2-.6-1-2.3-1.8-3.8s-1.4-2.8-1.4-2.9c0-.5 1.3.7 2.1 2 .3.4.9 1.3 1.3 1.9s1 1.5 1.2 2.1c.5 1.1 1.8 3.4 2 3.4.3 0-1.4-7.4-2.6-10.8-.6-2 1.7 2.2 3.1 5.5 1 2.3 1.2 2.6 1.1 1.6-.1-.4-.2-1.7-.3-2.7-.1-1.1-.3-2.6-.5-3.3-.2-.8-.5-2.3-.7-3.5-.6-3.5-1.5-6.8-2.9-11.1-1.3-4-1.9-5.5-3.2-8.2-.4-.8-.7-1.5-.7-1.5 0-.3-2.7-5.4-3.3-6.3-1.6-2.3-2.4-.6-1.2 2.7 1.4 3.9 3.5 12.2 3.3 12.4 0 0-.9-2.2-1.9-5-1-2.8-2.1-5.8-2.6-6.6-1.1-2.1-3-6.6-3.7-8.5-1.5-4-2.9-6.7-6.2-11.8-.3-.5-1.1-1.7-1.8-2.8-5.2-8.3-4.8-7.8-6.4-9.4-.7-.8-1.8-2-2.5-2.8-3.4-4.1-5.4-3.1-2.6 1.2.5.7 1.2 2.1 1.5 2.9.3.9.7 1.8.9 2.1.9 2.1 2.1 5 2 5.1-.1.1-1-1.2-2.8-3.4-1-1.3-1.8-2.3-4.9-5.9-1-1.1-2.2-2.6-2.7-3.3-2.1-2.7-2.6-3.3-3.2-3.3 0-.2-.1-.1-.1.6m27.3.9c-.3.3-.1 1.5.4 2.2.3.4.7 1 .9 1.2.2.3 1.4 1.7 2.7 3.1 1.3 1.4 2.8 3.2 3.4 3.9.6.7 1.9 2.3 3 3.6 1.1 1.2 2.2 2.6 2.5 3.1.3.5 1.3 1.7 2.2 2.7 2.4 2.9 4.9 6.4 10.2 14.6.4.6.8 1.2.9 1.3a202.85 202.85 0 0 0 4.3 6.1c.1.1.4.6.8 1.2s.8 1.2.9 1.3c.3.4 2.8 4.2 2.8 4.3 0 .1.4.9 1 1.8 1.8 3.1 2.7 4.8 3.7 7.3 1.8 4.3 5.4 11.5 5.5 10.7 0-.2-.1-.4-.2-.5-.1-.1-.3-.5-.4-.9-.1-.4-.4-1-.6-1.5-.2-.4-.6-1.4-1-2.2-.3-.8-.9-2.3-1.2-3.4-.3-1.1-.8-2.6-1.1-3.4-1-3-1.3-4.1-2-7.1-.8-3.2-1.5-5.4-2.8-8.2-.4-.9-1.3-2.9-2-4.5-2.1-4.8-4.9-9.9-7.2-13-1.5-2-5.2-5.8-6.9-7.1-.6-.4-1.3-1.2-1.7-1.7-1.8-2.4-9.8-9.8-12.7-11.8-.8-.5-1.7-1.1-2.1-1.4-.4-.3-1-.7-1.3-1-.6-.6-1.7-1-2-.7m-98.2 2.7c0 .3.2.6.6.9 2.2 1.6 4.1 3.9 5.5 6.6 1.7 3.2 5.1 6.1 7.5 6.5.4.1 1.4.3 2.2.6 2.6.8 7.4 0 10.1-1.8.4-.3.8-.5.9-.5.4 0 2.7-1.7 4-2.8 1.5-1.4 1.7-1.5 2.3-1.9 1.3-.7 1.4-1.5.1-1.3-.5.1-.9.2-.9.3-.1.2-1.9 1-2 1-.1 0-.7.4-1.3.9-.7.5-1.8 1.1-2.5 1.4-.7.3-1.3.6-1.4.7-.2.4-4.3.4-5.3.1-.4-.2-1.2-.4-1.7-.5-.8-.2-2.2-.8-4.5-2-.4-.2-1.2-.9-1.9-1.6-1.7-1.8-2.7-2.1-2.3-.7.2.8 0 .6-1.2-.7-1-1.1-2-2.1-2.6-2.4-.3-.2-1.3-.9-2.2-1.7-1.8-1.7-3.4-2.1-3.4-1.1M95.7 181.2c-2.4.3-6.1 1.8-7.1 3-.4.5-.6 1.2-1 3.8-.4 2.4-1.2 5.9-1.5 6.9-.9 2.4-4.3 6.8-6.3 8.3-.5.4-.9.8-.9 1.1-.3 6.3.3 10.5 1.6 11.2.7.4.8.3.8-2.2 0-6.2.7-8.1 3.4-8.8.5-.1 1.7-.5 2.6-.9 1.6-.7 2.7-1.1 3.6-1.3.4-.1.5-.3.6-.9.1-.4.2-.8.3-.8.1 0 .4-.4.7-.9 1-1.5 3.8-2.5 5.1-1.7.7.4 2.5 2.2 2.9 2.8.8 1.6 2.6 3 6.4 4.9 4.1 2.1 5.9 2.7 11.3 3.2 2.3.2 2.8.3 5.2.9 2.1.5 3.7.8 5.9 1 .8.1 2.2.3 3.1.5 1 .2 2.4.4 3.1.5 1.5.1 4.3.7 6.4 1.3 1.7.5 1.7.4-.1-.5-.8-.4-1.7-.8-2-1-.8-.6-6.8-3.5-7.1-3.5-.2 0-1.4-.4-2.8-.9s-3-1-3.6-1.1c-2.6-.5-2.8-.5-1.1-.5 1.4 0 1.7.1 2.9.7 1.3.6 1.5.7 3.1.6 2.2-.1 3.5.3 9.3 2.8 1.2.5 2.6 1 3 1.2 1.4.4 3.3 1.3 6.9 3 1.1.5 2.3 1.1 2.5 1.1l.5.2-.4-.3c-3.4-2.7-5.5-4.3-7.4-5.2-1.2-.6-2.2-1.2-2.3-1.3-.1-.1-1.4-.7-2.8-1.4s-2.8-1.5-3.1-1.7c-.3-.2-1.2-.9-1.9-1.4-.8-.5-1.5-1.2-1.7-1.5-.4-.7-1.4-1.5-2.6-2.2-1.1-.6-1.1-.6 1.6-.2 2 .3 3.3.4 8.9.4 6.5 0 7.5.1 10.7.8.5.1 1.8.3 2.8.5 1.9.3 4.5.8 6.6 1.4 1.3.3 3 .4 3.6.1.3-.2.4-.2.5 0 .1.3 2.4.3 2.4.1 0-.1-.6-.5-1.4-.9-2.4-1.4-3.9-2.2-5.2-3.1-.7-.5-1.6-.9-2-1.1-.8-.3-1-.6-.3-.6 1 0 3.9 1.1 8.8 3.2.8.4.8.4 1.1-1.1l.2-.9-.9-.9a24.2 24.2 0 0 0-5.7-3.6c-1.2-.6-1.2-.8.1-.5 2 .4 4.4 1.4 5.9 2.4.5.3.9.5.9.5.2-.2-2.4-2.6-3.7-3.5-.7-.5-1.7-1.2-2.1-1.6l-.8-.7.8.3c1.5.5 4.4 2.1 5.5 2.9.6.4 1.1.8 1.1.7.2-.2-1.9-2.5-3.3-3.6-.8-.6-1.5-1.2-1.6-1.3-.8-.7 2.4.6 3.4 1.4 1.2.9 1.2.9.2-.4-.9-1.1-1.2-1.4-3.4-2.5-3.7-1.9-5.6-2.5-9.1-3.2-3.7-.7-20.5-.6-26.9.1-3.8.4-10.1.4-11.2 0-.5-.2-1.6-.4-2.5-.5-.9-.1-2.4-.4-3.4-.6s-3-.5-4.6-.7c-5.2-.6-8.8-1.3-8.8-1.8 0-.6-1.5-.8-3.7-.5m241.1 5.9c-.5.4-1.8 1.2-2.8 1.8-2 1.2-2.1 1.5-1.1 2.9.8 1.1 1.8 1.4 4.3 1.6 1.3.1 2.3.2 2.6.4.2.1.9.3 1.4.3 1.5 0 2.5.6 2.5 1.4 0 3.2 2.1 10.7 3 10.9.6.1.7-.1.7-2.8 0-2.5.3-4.9 1.1-9.3.3-1.5.5-2.8.4-2.8-1.8-1.3-5-3-7.1-3.7-.8-.3-1.8-.7-2.4-.9-1.4-.7-1.5-.7-2.6.2m-159.7 2.1c-.1.1-.1.3-.1.4s-.1.4-.3.6c-.2.2-.3.5-.3.9 0 .3-.2 1.2-.5 1.9-1.9 5-2 5.8-1.9 12.8.1 5.4 0 5 1.3 10.4 1 4.5 2.3 6.8 5.9 11 1 1.2 2.2 2.6 2.6 3.2 1 1.5 1.6 2.1 2.9 2.9l2.7 1.8c.9.6 1.7 1.2 1.7 1.2s.1.2.2.2 1.3.7 2.6 1.5c1.7 1 3.2 1.7 4.8 2.3 1.3.5 2.9 1.1 3.5 1.3 1.1.5 2.8 1 6.6 1.8 8.9 1.9 14.9 2.1 23.2.8.9-.2 2.4-.4 3.2-.5 2.3-.4 8.8-1.6 9.5-1.8.3-.1 1.4-.2 2.3-.3 6.6-.3 17-6.8 22.6-14.1 1.7-2.2 1.7-2.4 0-1-2.8 2.3-8.6 5.5-14.4 8.1-3.6 1.6-9.7 3.5-11.5 3.5h-1l.9-.6c.5-.3 2.3-1.2 4-2 4.2-1.9 6.3-3 11.3-6.2 2.6-1.7 6.3-4.6 6.3-4.9 0-.4-.7 0-3.5 1.6-7.7 4.5-10 5.3-16.9 6-1.1.1-3.3.3-5 .5-1.7.2-3.7.4-4.5.6-2.7.5-5 .6-4.1.1.3-.1 2.9-.9 3.7-1.1.2 0 1.2-.3 2.3-.6 2-.5 6-1.4 7.5-1.6 1.1-.2 5.5-1.2 6.2-1.5 1.9-.7 8.3-5.1 8.3-5.6s-2-.5-2.8-.1c-3.3 1.7-5.5 2.6-10.6 4.1-3.7 1.1-5.5 1.2-11.8.7-1.4-.1-3.2-.1-4.1-.1-1.7.1-1.8.1-.5-.4 2.1-.8 2.7-.9 6.7-1.2 1-.1 1.8-.2 2-.3.1-.1.9-.3 1.9-.5 2.1-.4 2.8-.7 5-2.1 1-.6 2-1.3 2.2-1.4l.5-.3-.7-.2c-.5-.1-1.5-.1-3.1.1-5.9.8-6.9.8-11.4.2-3.8-.5-6.7-1.4-10.4-3-2.5-1.1-3.4-1.5-5.2-2.6-2.4-1.4-2.5-1.5-4-3.9a75 75 0 0 0-2.4-3.6c-.7-1-1.7-2.5-2.2-3.2-.5-.8-1.3-2-1.8-2.7-.5-.8-1.4-2.3-2-3.5-1.6-3-2.4-3.9-4.8-5.1-1.7-.9-2.5-1.1-6.7-2.2-1.6-.4-5-.5-6.3-.2-.4.1-1.2.1-2.1-.1-.8-.1-2-.3-2.6-.3-.9 0-1.4-.1-2-.5-.5-.3-1.1-.5-1.3-.5-.3 0-.5-.1-.5-.4-.1-.4-.8-.6-1.1-.3m186.4 2.2c0 2.2 1.7 9 3.7 14.6.7 1.9 1.6 4.7 2 6.1 1.6 5.6 3 9 3.5 8.5.1-.1-.4-2.7-1-4.7-.3-1-.6-2.1-.7-2.4-.7-2.7-1.4-5-2.5-8.3-.7-2.1-1.7-5.5-2.2-7.6-1.7-6.6-1.9-7-2.6-7.1-.2-.1-.2.1-.2.9m-14.1 7.1c0 1 .5 2.4 1.7 4.9 1.6 3.2 2 4.4 2.9 7.7.4 1.4 1.2 4 1.9 5.7 1.3 3.3 3 8.1 3.2 9.1.1.6-.9-1.3-1.2-2.1-.2-.6-2.1-4.7-3.7-8.1a97.1 97.1 0 0 1-3.6-8.4c-.4-1.4-.7-2-1.3-2-.9 0-.7.9.9 6.4.2.7.5 1.6.7 1.9.3.6 2.6 6.9 3.5 9.5.7 1.9 1.9 5 2.6 6.4.5 1 1.4 4.8 1.7 7.2.5 3.2.6 4.2 1.1 6.3.2.8.4 1.8.5 2.2l.1.7-.4-.6c-.2-.3-.4-.8-.5-1.1-.1-.3-.5-1.1-.9-1.8-.7-1.3-1.8-4.3-2.1-6.3-.2-1.2-3.2-9.4-3.9-10.9-.3-.7-.4-.7-1.1-.7-.9.1-1.2 1.1-.4 1.3.5.1 1 1.3 1.4 2.9.1.6.5 2.1.9 3.2.9 2.8 1.4 5.3 1.9 9.7.7 5.5 1.4 8.1 3.2 12.8l1.3 3.2 1.1.4c.6.2 1.4.7 1.8 1 4 3.1 4.7 3.6 4.3 2.8-.5-.9-.6-4.2-.6-14.1 0-9.7-.2-15.9-.7-18-.1-.3-.2-.8-.2-1.3-.5-3.4-2.4-8.4-4.1-10.7-.4-.5-.7-1-.7-1 0-.1-.8-1.9-1.2-2.9-.5-1.1-2-3.7-2.8-4.9-1.3-2-3-4.9-3.5-6.1-.5-1.2-.9-1.8-1.8-3.1-.3-.5-.7-1-.8-1.2-.5-.5-1.2-.7-1.2 0m-44.1 11c0 .3 0 .3-.2.1-.1-.2-.2-.6-.2-.9 0-.7.3 0 .4.8M103 211.3c.4.5 1.1 1.1 1.5 1.4.4.3 1.4 1.3 2.3 2.2.9.9 2.7 2.5 3.9 3.5 3.5 2.9 7.1 6.5 6.5 6.5a3 3 0 0 1-.9-.7 3 3 0 0 0-.9-.7c-.1 0-.3-.1-.5-.3-.2-.3-1.1-.9-4.3-2.9-2.8-1.7-3.8-2.5-5.1-3.5-2.5-2.1-3.6-2.8-3.3-2.2.5 1 5.3 6 7.4 7.7a53.28 53.28 0 0 1 10.4 10.8c.9 1.1 1.7 2.2 1.8 2.4.2.6 2.1 3.4 3.1 4.7 1.7 2.2 3.6 5.2 5.3 8.7 1 1.9 2.3 4.3 3 5.4.7 1 1.5 2.4 1.9 3 .3.6 1.3 2.2 2.2 3.6.9 1.4 1.9 3 2.2 3.6.3.6.6 1 .6.9.1-.4-1.7-5.3-2.4-6.5-.2-.4-.7-1.3-1.1-2.1s-.8-1.7-.9-2.1c-.2-.3-.6-1.4-1-2.4s-.8-2.2-1.1-2.6c-.2-.4-.4-.9-.4-1.2 0-.2-.1-.4-.2-.5-.2-.2-.4-.9-.2-.9.1 0 .2.2.3.3.1.2.2.4.3.4.1.1.4.6.8 1.2s.8 1.2.9 1.4c.2.2.4.5.5.7 1 1.8 2.3 4.1 2.9 5.3 1.3 2.4 1.4 2.2.5-.8-.2-.7-.7-2.7-1.2-4.4-.4-1.7-1-3.5-1.2-4.1-.5-1.2-1.5-4.7-1.4-4.8 0 0 .4.4.7 1 .4.6 1 1.5 1.5 2 1 1.2 1.2 1.5 1.3 2.5.2 1.4 3 8.5 3.9 10.1.2.4 1.4 2.6 2.6 4.9 4.5 8.9 5.1 9.9 6.7 11.3.7.6.6.3-.6-1.8-.5-.8-.9-1.7-1-1.9-.1-.2-.7-1.2-1.3-2.3-2.3-3.8-5.5-10.8-5.6-12 0-.1-.1-.2-.2-.2s-.1-.1-.1-.3c.1-.2 0-.3-.1-.4-.1-.1-.2-.4-.2-.6 0-.4.1-.3.4.5.7 1.9 2.5 5.2 4.7 8.6.4.6.9 1.4 1.2 1.9.9 1.4.8.8-.2-1.5-.5-1.2-1.2-2.8-1.4-3.6-.3-.8-.9-2.3-1.3-3.4s-.9-2.6-1.2-3.3c-.2-.8-.6-1.7-.8-2.1-.3-.7-.8-2.5-3.3-12.5-.6-2.3-1.3-4.8-1.6-5.6-.3-.8-.7-2.1-.8-2.8-1-6-3.1-9.6-6.7-11.5-.8-.4-1.7-.9-2.1-1.1-.4-.2-1.7-.8-2.8-1.3-1.1-.5-2.3-1-2.6-1.2-.3-.1-1.1-.4-1.8-.6-.6-.2-1.9-.7-2.7-1.1-2-1-2.4-.8-.4.2.9.5 1.9 1.1 2.3 1.4.4.3 1.6 1 2.6 1.7 1 .6 1.9 1.2 2 1.2.1.1.4.4.8.6.8.6 2.1 1.7 1.9 1.7-.1 0-.5-.2-1-.4-6.2-3-8.2-4-8.9-4.2l-.8-.3.5.4c.3.2 1.2.8 2 1.2 5.1 2.6 9 6.3 11.1 10.5l.4.9-.6-.7c-4.7-5.4-6.3-6.7-9.4-7.8-3.1-1.1-3.2-1.1-3.2-.5 0 .3.1.5.2.5s.2 0 .1.1-7.3-3.5-9.3-4.8c-1.4-.9-2.6-1.8-4.6-3.6-1.3-1.2-1.8-1.5-2-1.5a2 2 0 0 1-.8-.3c-.4.2-.4.3.3 1m-15.3 6.2c0 .1.6 1.2 1.3 2.3 1.7 2.8 1.8 3.1 3.4 6l2.2 3.9c.5.8.9 1.5.9 1.5 0 .1.2.3.4.6.8 1 6 8.5 7.6 11.2.5.8 1.1 1.7 1.4 2.1.3.4.9 1.5 1.4 2.3.5.9 1 1.8 1.2 2 .2.3.8 1.3 1.3 2.4.9 1.7 1.8 3.1 2.2 3.5 1 .8 7.6 10.5 9.4 13.9.6 1.1 1.6 2.8 2.3 3.8 1.1 1.8 2.1 3.5 2.5 4.8.3.9 1.9 3.3 2.2 3.3.2 0 .5.6 1.2 2.5.4 1.3 1.2 2.6 1.2 2.2 0-.1-.1-.7-.2-1.3-.1-.6-.4-2.5-.6-4.2-.2-1.7-.5-3.6-.7-4.1-.2-.5-.4-1.8-.5-2.8-.1-1-.3-2.4-.5-3.1-.2-1-.2-1.4-.1-1.8.7-1.8-.3-3.9-5.5-11.3-1.3-1.9-1.4-1.9-3.8-5.8-3-4.7-4.8-7.1-6-8.5-1.1-1.2-2.9-3.6-4.1-5.4-3.2-4.9-8.8-11.5-8-9.5.2.6 3.5 6.2 4.5 7.8.6.9 1.6 2.6 2.2 3.8.7 1.2 1.5 2.8 2 3.4.8 1.3 1.6 2.4 2.8 4.4.8 1.3 3.7 7 3.6 7 0 0-.7-.9-1.4-1.9-1.3-1.8-2.2-3.1-5.9-8.2-1-1.3-2.2-3-2.7-3.9-.5-.8-1.5-2.4-2.3-3.5-.8-1.1-2.3-3.5-3.5-5.2-2.3-3.5-6.1-8.7-7.6-10.2-.5-.5-1.2-1.3-1.5-1.8-1.3-1.3-2.3-2.5-2.3-2.2m-13.6 4.2c-1.4.4-12 3.7-13.1 4.1-.6.2-1.7.5-2.2.7-2.9.8-3.2 1.2-3.1 3.3 0 .6 0 1.5-.1 2l-.1.9-1.4.1c-2.5.1-4.1 2.3-4.5 5.9-.1.6-.2 1.8-.4 2.5s-.3 1.7-.3 2.2c0 1.4-.8 3.7-4.1 11.7-.4 1-1.1 2.7-1.6 3.8-.4 1.1-.9 2.2-1.1 2.5-.7 1.6-2 4.6-2 4.7 0 .9-1.6 3.2-4 5.6-2.4 2.5-2.6 2.7-2.8 3.6-.1 1 0 2.3.3 2.3.1 0 .2.1.2.2 0 .2.8 1.1 2.1 2.4.5.5 1.2.9 1.5.9 1.3 0 6.1 11 7.8 18.1.9 3.8 1.1 5.3 1.1 10.9v5.2l.6.7c.8 1 1.7 1.5 2.9 1.5.7 0 1 .1 1.4.5.9.9 7.8 1 11.5.1 1.7-.4 3.4-.7 5.6-1 1.6-.2 4.3-.2 5.5 0 .6.1 1.4.1 2.2 0 1.2-.2 1.2-.2 1.2.3 0 .3.1.8.3 1.1.8 1.8 2.7 2 5.1.5.3-.2.7-.4.9-.5a13 13 0 0 0 2.7-1.5c.2-.2 1.8-1.3 3.6-2.4 5.2-3.5 7.3-6.1 7.8-9.9.1-.9.4-2.3.7-3.1.9-3 .9-4.4-.2-4.4-.7 0-1.5 1.4-1.5 2.4 0 2.5-7.6 9-10.8 9.4-1.6.2-2.3.8-2.3 2.2v.9l-.6-.6c-1.5-1.6-2.5-.9-4.4 2.8-.9 1.8-1.3 2.4-1.3 2.1-.1-.5-1.6-1-3.8-1.2-.9-.1-2.4-.3-3.4-.4-1.7-.2-6.4-.3-10.4-.2-1 0-2-.1-3.2-.4-.9-.2-2-.4-2.4-.4-.6 0-.7-.1-.8-.5-.1-.3-.3-.7-.5-.9-.8-.8-2.3-4.9-2.9-8-.3-1.6-1.7-6.3-2.2-7.5-.2-.5-.4-1.4-.4-1.9 0-.9-1.8-4.9-3.2-7-.4-.5-.7-1.2-.8-1.5-.1-.3-1-1.6-2-3-2.7-3.7-3.4-4.8-3.1-5.3.1-.2.4-.9.6-1.4 1.7-4.5 2.6-6.4 4.9-10.1 1.3-2.2 2-3.2 2-2.8 0 2.7-.8 7.5-1.5 9.5-1.1 3-1.9 4.9-2.1 5.1-.1.1-.2.6-.2 1.1v.8l1.4.7c.8.4 1.7.7 2.1.8.7.1.7.1 2.2 3.1.8 1.6 1.7 3.2 1.9 3.5.7 1 2.2 5.6 2.8 8.8.1.7.5 2.1.7 3 .4 1.4.4 2.2.4 4.3 0 3 .2 3.9 1.5 4.7 1.9 1.2 6.4 1.4 9.2.3.8-.3 1.5-.6 1.6-.6.2 0 4.3-2 4.8-2.4.8-.6 4.9-2.2 6.3-2.4.7-.1 1.6-.4 1.9-.5 1.6-.6 4.6-1.1 5.1-.8 3.6 1.9 8.7-2.6 7.2-6.3-1-2.5-2.4-2.8-2.7-.6-.3 2.1-.6 2.3-2.3 2.3-1.5 0-2.7.4-2.9.8-.1.1-.4.3-.8.4-.8.1-3.8 1.4-4.8 2-.4.2-1.1.5-1.6.6-4 1-5.8 1.4-6.4 1.7-.4.2-1.2.4-1.9.5-.7.1-1.8.4-2.4.7-1.1.4-1.3.5-2 .2-1.5-.5-3.8-2.2-3.8-2.9 0-.1-.4-1.2-1-2.4s-1-2.2-1-2.3c0-.7-4.3-8.8-5.9-11-.4-.6-.9-1.4-1-1.8-.2-.4-.7-1.3-1.3-2.2-.5-.8-1-1.6-1-1.7 0-.1-.2-.7-.5-1.4-.8-1.8-.8-4.1.2-7.1 1.1-3.7 1.5-5 2.2-8.4.8-3.6.8-3.7 1-2.4.8 6.1.8 9.3.2 11.2-1 2.9-.6 3.8 1.9 4.6 2.9 1 6.3 8.2 6.6 14 .2 4.3 0 3.9 3 4l2 .1v-.8c0-.4-.2-1.1-.3-1.4-.2-.3-.3-.9-.3-1.3 0-2.5-3.8-10.1-6.5-13-.4-.4-.5-.7-.4-.8.2-.1.1-.4-.2-1-.6-1.3-1-5-.8-7.8l.1-2.2.2 1.3c.6 3.5 1.5 5.7 2.4 5.7.4 0 .5-.1.5-.7 0-.4.1-1 .1-1.3 0-.3 0-.9.1-1.3v-.8l.4.5c2.2 2.8 4.1 6.1 5.4 9.2.3.7.7 1.7 1 2.2.6 1.3.8 2.1 1.1 3.6.4 2.1.4 2.3.7 2.3.2 0 .3.1.3.2s.3.2.8.2c2 0 4.4-8 3.7-12.4-.1-.6-.2-1.6-.3-2.1-.1-1.3-.6-2.6-1.9-5-1.3-2.4-1.5-3.2-1.7-7.4-.2-2.9-.2-2.5 1.1-9.6 1-5.2 1-6.7 0-6.7-.2 0-1.3 2.6-1.6 3.9-1 3.4-1 3.5-1.1 2.8 0-1.3.4-3.4 1-5.3.3-1.1.6-2 .5-2-.4-.4-1.6-1.1-1.9-1-1 .2-2.7 5-3.5 9.7-.1.7-.2.8-.3.5-.2-.4-.2-6.6 0-6.9.3-.5-.2-5.4-.5-5.3-.4.2-1.5 3-1.7 4.3-.1.5-.2 1-.2 1.2 0 .2-.1.9-.2 1.6-.3 2.4-.7 4.3-.7 2.7v-4.8c0-10.1 1-11.8 8.3-14.5a38 38 0 0 0 4.4-1.8c.7-.4 1.8-.9 2.5-1.2 1.2-.5 5.2-2.6 7.2-3.8 3.1-1.8 2.2-2.9-1.3-1.7-.5.2-1.1.3-1.4.3-.3 0-1.3.3-2.3.6-3.3 1.2-4.6 1.5-6 1.7-.8.1-1.7.3-2.1.4-.3.1-.5.1-.4 0 1.8-1.5 2.7-2.1 4.3-3.2 1.6-1.1 2.3-1.6 2-1.5-.5-.3-.8-.2-1.1-.1m141.2 6.8c1.7 1.8 2.5 4.6 1.9 6.8-1.1 4.5-8.7 6.8-11.3 3.5-.7-.9-1.6-2.7-1.7-3.3-.1-.3-.2-.8-.2-1.1-.1-.4 0-.5.1-.5s.2.1.1.3c-.2.6 2.2 3.4 3.5 4 2.1 1 3.2.7 5.1-1.4 2.6-2.8 3-5.6 1.4-8.5-.7-1.3-.2-1.2 1.1.2m-4.9.4c0 .5 0 1.6.1 2.4l.2 1.4-.7.8c-1.2 1.4-1.6 1.8-1.7 2.2-.2.5-.6.2-1-.9-.9-2.1 0-5.7 1.5-5.9.4-.1.9-.3 1.1-.5.5-.7.6-.6.5.5m132.4 1.1c0 .1.3.6.7 1.1.7 1.1 2.2 4.1 2.9 5.8.6 1.5 2.3 6.9 2.8 8.8.1.3.1.7.4 3.8.4 4.2-.7 6.4-2.7 5.4-.7-.4-1.1-.2-1.1.4 0 2 2.6 1.3 5.6-1.6 1.6-1.5 2-3.8 1.2-5.9-1.8-4.6-2.5-6.9-3-9.1-1.3-5.6-1.8-6.4-5.2-8.2-1.5-.6-1.6-.7-1.6-.5m-19.1 2.2c-4.2 1.2-9.5 5.1-20.8 15.4-1.8 1.7-4.3 3.8-5.5 4.8-2.4 1.9-7 6.4-7.7 7.4-.2.4-.9 1.1-1.4 1.6-.5.5-1.3 1.4-1.7 2-.4.6-2.2 2.3-4 3.9-1.8 1.6-4.2 3.9-5.4 5-1.8 1.8-2.7 2.5-6 4.7-2.1 1.4-4.9 3.3-6.2 4.3-2.2 1.7-3.6 2.6-3.8 2.4 0 0 .6-.5 1.4-1.1 2.6-1.7 4.1-3.3 4.1-4.2 0-.2.4-.6.8-.9 1.4-1 6-5.5 11.3-10.8 8.3-8.4 12.6-12.6 15.8-15.2.9-.7 3-2.7 7.2-6.8 1.9-1.8 4-3.8 4.6-4.4 1.4-1.2 1.5-1.6.6-1.6-.8 0-1.6.5-3 1.9-.5.5-1.4 1.3-2 1.7-.6.4-1.6 1.3-2.3 1.9-1.5 1.2-3 2.2-2.7 1.7.2-.3 2.3-3 3.2-4 .3-.3 1.1-1.4 1.9-2.5l1.4-1.9 2.1-.8c1.1-.4 2.3-.8 2.6-.8 1 0 1.4-1.1.7-1.7-1.2-.9-7.6 1-8.3 2.4-.1.3-.3.5-.4.5-.2 0-14.9 14.7-16.1 16.1-.9 1.1-3.8 4.4-4.3 4.9l-1.7 1.5c-2.1 1.8-3.2 3-6.5 6.8a32.9 32.9 0 0 1-4.6 4.5c-1.1.9-2.9 2.5-4 3.4-1.1 1-2.7 2.3-3.7 3-6.3 4.4-6.3 4.4-6.4 5.4-.1.6-1.3 3.2-1.5 3.2-.1 0-.2-.1-.4-.3-.7-.8-3.6 1.3-5.5 4-.7 1.1-1.6 3.5-2.1 5.8-.2.9-.5 2.2-.8 2.9-.5 1.5-.9 3.2-1.4 6.3-.2 1.3-.6 2.9-.9 3.5-.3.6-.7 1.9-.9 2.7-1.5 5.7-3.6 10.9-4.4 11.4-.3.2-.9.6-1.3.9-.4.4-1 .7-1.5.9-1.4.4-4.8 3.3-5 4.3-.1.7.2 4.2.6 5.4.6 2.2-.1 5.4-1.8 7.9-.6.8-3.2 2.9-4.8 3.8-.6.3-1.7 1-2.5 1.5s-1.6 1-1.9 1c-.5.2-1.3.6-3.1 1.6-.6.3-1.1.6-1.2.6-.4 0-3.1 2.7-3.9 4-2 3-1.8 6 .6 8.4.5.5 1 1.2 1.2 1.7.4 1 2.3 3.2 3.6 4.1.8.6 4.5 4.6 5.7 6.1.3.4.7 1 .9 1.2.5.6 2.9 4 3.4 4.8.2.4.6 1 1 1.4s.7.9.9 1.3c.5 1.1 1.9 1.1 1.9-.1 0-1.1-1.3-3.9-3.2-6.6-.5-.8-1-1.7-1.2-1.9-.1-.3-.7-1.2-1.2-2.1-.6-.9-1.4-2.2-1.9-3-.5-.8-1.4-2.1-2-3l-1.1-1.5 1-.1c4.2-.4 5.3-3.1 1.2-3.1-2.2 0-3.4-1.1-3.2-2.8.2-2 1.7-3.7 5.3-6 4.1-2.6 6.4-5.5 7.1-9 .1-.7.6-2.5 1-4s.9-3.2 1-3.7c.1-.5.6-1.5 1-2.1.4-.6.7-1.3.7-1.4 0-.2.3-1 .6-1.8s.7-1.8.7-2.2c.1-.9 1.4-2.5 2.5-3.2 1.4-.9 2.9-3.6 4.6-8.5.4-1.1 1-2.5 1.4-3.2l1.7-3c4-7.6 4.9-8.9 3.8-5.8-.4 1.2-.9 3-1.2 4a14 14 0 0 1-1.7 3.9c-3.3 6-4.2 8.1-4.6 11.2-.5 4.4-1.2 6.3-3.2 9-2 2.6-2.3 3.4-2 4.8 1.5 6.2 1.1 12.8-1.4 21-.2.5-.3 1.1-.3 1.2s-.2.6-.5.9c-3 4.1-4.2 10.1-1.9 9.8 1-.1 3.3-.8 5.4-1.5 1.2-.4 2.2-.6 3.1-.6 3.9-.1 5.6-4.5 3.5-9.3-.9-2-2.9-8.8-3.2-10.4-.1-.5-.3-1.6-.5-2.3-.5-2-.4-3.9.2-5.5.3-.7.7-1.9 1-2.6l.5-1.3 1.1-.1c1.9-.1 2-.3 1.9-4.8 0-4 .4-7.4 1-9 .2-.4.6-1.9 1-3.2s.9-2.9 1.2-3.5c.3-.6.6-1.3.7-1.6.1-.3.4-1.1.8-2 .4-.8 1.2-2.7 1.8-4.3 1.2-2.8 2.1-4.8 2.1-4.5 0 .1-.1 1-.3 2-.2 1-.5 3.8-.7 6.3-.2 2.5-.4 4.7-.5 5-.1.3-.2 1.6-.3 2.9-.2 2.9-.8 5.3-2.2 8.1-.5 1.1-1 2.1-1 2.2 0 .1-.4.7-.9 1.2-1.5 1.7-1.4 3.7.4 12 .7 3 1.5 8.4 2.1 13.3.2 1.3.4 4.2.4 6.3l.1 3.9.9 1.3c1.2 1.7 2 2.2 3.6 2.1.6-.1 1.6 0 2.2.2 2.5.6 9.1-2.2 9.1-3.9 0-.2-.1-.2-.5-.1s-.5.1-.6-.1c-.1-.2-.3-.3-.5-.3-.8 0-2.9-1.4-4.6-3.1-3.4-3.4-4.6-5.9-6-12.8-1-4.8-1-5.4-.4-8.3.3-1.5 1.4-3.8 2.3-5 .9-1.1.7-4-.3-4.7-.7-.5-.8-8.4-.1-12.6.3-1.9.7-4.6.9-6.1.6-4 2.3-11.5 2.6-11.2.1.1.2 1 .4 2.1.3 2.9 1 6.4 2.4 11.8l1.2 4.8-.1 5.1c-.1 2.8-.1 5.5-.1 6s.2 1.4.4 2c1 2.6 1 2.6 3.8 2.9 1 .1 2.6.4 3.6.6 2.8.6 3.6.5 6.4-.7 2.3-1 2.3-.7.1.8-2.2 1.5-4.2 2.2-5.6 2.1h-3.8l.8.8c1.1 1.1 2.6 1.8 5.9 2.7 7.1 1.9 10.2 3.9 12.6 8.2 1.4 2.4 3.9 4.5 5.4 4.5 2.3 0 7.1-5.5 7.3-8.3.1-1.5.1-1.5-1.1-.6-2.3 1.9-6.1 2.2-9 .8-3.6-1.8-7-9.1-6.5-14.2 0-.1.4.1.9.3.5.3 1.4.5 1.9.6 1.5.2 2 .5 4.2 2.9l2.1 2.1 1.1-.1c1.5-.1 1.6-.4.4-1.6-1-1-1.4-1.6-2.5-3.7-.4-.8-1.2-1.9-1.7-2.3-.5-.4-.9-.9-.9-1 0-.1-.2-.6-.4-1s-.6-1.6-.8-2.6c-.3-1.2-.7-2.5-1.5-4.1-1.3-2.6-1.7-3.5-2-4.7-.1-.4-.4-1.1-.6-1.4-.2-.3-.4-.7-.4-.9 0-.5-1.5-3.6-1.9-3.9-.4-.4-1.5-2.3-1.9-3.6l-1.3-3.1c-1.5-3.1-1.6-4-.7-5.2.1-.1.3-.7.5-1.2s.4-1.1.5-1.2c1-1.1-.8-6-2.5-6.8-.3-.2-1-.5-1.6-.8-.5-.3-1.2-.5-1.5-.5h.4l.8.6c2.9 2.1 3 5.1.4 8.7-1.8 2.6-1.6 4.3 1.2 8.8.8 1.3 1.5 2.5 1.7 2.7.1.2.7.9 1.3 1.6 1.2 1.3 1.9 2.8 1.9 3.7 0 .3.2 1 .4 1.6 1 2.4 1.1 5.5.2 7.3-.2.4-.9 1.3-1.6 2.1-.7.7-1.3 1.5-1.3 1.6 0 .3-4.2 1-4.9.8-.3-.1-1-.6-1.6-1.2-1.2-1.2-1.3-1.4-1.9-5-.4-2.7-.6-3.3-1.1-3.3-.2 0-.3-.2-.3-1 0-.6-.1-1.6-.3-2.2-.2-.6-.4-2.1-.5-3.2-.1-1.1-.3-2.6-.5-3.2-.5-2-1.4-9-1.7-13.5-.3-3.8-.6-7.2-.7-7.8-.2-.6 6.2-5.5 9.5-7.3 1-.6 4.9-3.3 5.3-3.7.1-.1.5-.5 1.1-.9.5-.4 1-.8 1.1-.9.8-.8.8-.6 0 .4-1.1 1.3-1.3 1.5-4.7 4.8-3.1 3-4.3 4.6-3.3 4.6.8 0 4.3-2.4 6.5-4.5.6-.5 1.6-1.4 2.2-1.8 1.4-1 3.9-2.8 6.2-4.5.9-.7 2.4-1.8 3.3-2.5.9-.7 1.8-1.4 2-1.6.2-.2 1-.8 1.9-1.4 2.3-1.5 8.2-6 9.3-7 .5-.5 1.8-1.4 2.8-2.1 1-.7 2.2-1.6 2.7-2.1.5-.4 2.1-1.4 3.8-2.3 1.7-.9 4-2.2 5.1-2.9 1.1-.7 2.6-1.6 3.3-2 .7-.4 1.7-1 2.1-1.3 1.3-1 8.1-4.3 8.8-4.3.1 0 .2-.3.2-.6v-.6l-1.2.1c-1.4.1-1.5.2-9.5 4-3.4 1.6-5.4 2.4-7.6 3.2-.9.3-2.5.9-3.4 1.3-.9.4-1.7.7-1.8.6-.1-.1 7.3-4.9 10.9-7 1-.6 2.5-1.6 3.3-2.1.8-.6 2-1.4 2.6-1.8.6-.4 1.3-.9 1.5-1.1.3-.3 2.3-1.2 3.4-1.6.4-.1.9-.3 1-.4.1-.1.4-.2.7-.3 1.2-.3.7-1.2-.5-1-3.1.3-4.4.6-5.1.9-1.4.6-2.6 1.2-4.1 1.8-.8.3-3 1.4-5 2.5-2 1-4.1 2.1-4.6 2.4-.5.3-1.5.7-2.1 1-2.1 1 8.7-9.2 11.9-11.3 2.7-1.8 5.7-2.6 6.8-1.9 1.1.7 2.2-.6 1.2-1.5-1-1.1-5-1.4-7.4-.7m-240.9 2.1c-.7.2-1.5.6-1.9.7-.8.4-4.1 1.5-5.1 1.6-.4.1-2.2.4-3.9.7-1.7.3-3.2.5-3.2.5-.1-.1-.5-.2-.9-.2-.4-.1-1-.2-1.3-.4-1.1-.6-1.9.2-1 .9.2.1.4.6.6 1 .9 2.2 4.4 3.1 7.1 1.9.8-.4 1.8-.8 2.3-1s1.5-.8 2.2-1.3c.8-.5 2-1.3 2.7-1.7s1.6-.9 1.9-1.1c.3-.2 1.1-.6 1.8-1 1.5-.8 1.5-.8 1.2-1-.4-.2-1.1-.1-2.5.4m59.9 1.8c-.2.2-.1.8.1 1 .1.1.6.6 1 1.2a20 20 0 0 0 6.7 5.9c3.2 1.7 4.1 2.2 4.8 2.8.7.5 3.6 2.2 4.6 2.7 4.6 2.1 10.5 4.3 12.1 4.5l4.1.7c4.2.8 5.4.9 9 .5 3.9-.4 3.6-.4 3.2-1.1-.2-.5-.4-.6-.7-.5-1.6.5-5.5.4-7.5-.3-.7-.2-1.7-.4-2.4-.4s-1.6-.1-1.9-.3c-.4-.2-.8-.3-1-.3-.3 0-3.3-1.4-3.2-1.5 0 0 .6.1 1.2.3 3.2 1.1 13.8.8 14.6-.4.1-.2-.1-3.1-.2-3.2-.1-.1-3 .1-5.4.5-1.4.2-4.8-.1-10.3-1.1-1.4-.3-3.5-.6-4.5-.7-1.4-.2-2.5-.4-4-1-1.2-.4-3.2-1.2-4.6-1.6-1.4-.5-3.4-1.3-4.5-1.8s-2-1-2.1-1-.5-.3-1-.6-1.4-.8-2.1-1.1c-1.4-.6-3.2-1.7-3.7-2.3-.7-.9-1-1.1-1.5-1.1-.4 0-.7.1-.8.2m45.6 2.5c0 1 .9 4 1.8 5.9.9 2 2.6 6.8 3.2 8.9.2.9.6 1.9.8 2.3.7 1.6 1.6 5.6 2.1 9 .2 1.4.3 1.6.6 1.6.4 0 .5-4.5.1-6.4a95 95 0 0 1-.6-3.4c-.2-1.3-.5-2.9-.6-3.5l-.2-1.1s.2.2.5.7.6.8.7.8c.2.1 1.3 2.2 2.1 4.1 1.7 4.1 5 14 6.2 18.2.6 2.1 1.3 4.6 1.5 5.6.3 1 .9 3 1.3 4.6.4 1.6.8 3 .9 3.2.1.2.2.3.4.3.5 0 .1-5-.7-7.8-.2-.7-.4-1.8-.5-2.3-.3-2.2-1.7-8.8-2.4-11.5-.9-3.2-.9-3.2-.4-3.2.4 0 1.8 1.4 1.8 1.8 0 .1.2.6.5 1.2 1.2 2.7 1.5 3.4 2.1 5.9.4 1.5 1.1 4.1 1.6 5.7 1.3 3.9 1.9 6.1 2 7 .1 1 .5 1.9.7 1.9.1 0 .2.2.3.4.1.4.2.4 1.3.3 1.3-.2 1.6 0 2.3 1.4.7 1.4.5 2.8-.5 2.8-1.8 0-1.8 1-.1 5.3.8 1.9 1.5 3.9 1.7 4.4.2.5.8 2 1.3 3.3.5 1.3 1.2 3.3 1.6 4.6 2 6.1 2.8 1.6 1-5.8-.2-.7-.4-1.6-.4-2-.2-1-.1-7.3.1-8.2l.1-.8.5.7c.3.4.8 1.2 1.1 1.9.7 1.4 1.3 1.7 1.6.8.5-1.3-.5-10.4-1.3-12.6-.4-1-1.2-1.4-1.2-.6 0 .6-.6.3-.9-.5-1.7-4-2.2-9.8-.8-9.8.9 0 2 2.6 2.2 5.2.1 1.2 1.1 1.3 1.1.1 0-5.2.7-10.8 1.7-13.6.4-1.2.4-1.1 1.2 1 .8 2 1 3.2 1.2 6.9.3 4.5.5 5.5 1.2 5.1.3-.2.6-1.4.6-2.2 0-1.1 1.1-.8 1.5.4.9 3.2 1.3 7.4 1 12.5l-.2 2.8h.5c.5 0 .5-.1.5-.8 0-.4.3-1.8.7-3.2.4-1.3.8-2.8.9-3.2.1-.4.5-2 .9-3.5 1.6-6.3 2-8.9 1.4-9.6-.7-.7-2.4 0-2.4 1.1 0 .2-.2-.3-.5-1.1-.9-3-.9-6.5 0-6.9.3-.1.7-.9 1.2-1.9 1.2-2.6 2.2-1.2 2.4 3.2.1 2.8.2 3.3.8 3.3.5 0 .8-.6.8-1.5 0-.7.1-1.1 1-4 .2-.6.6-2.2 1-3.5.6-2.5 1.5-4.6 1.7-4.3.4.5.7 2.2.8 5.3.2 5.1 1.6 4 1.8-1.3 0-.6.1-1.6.2-2.2.5-3.3-.2-5.3-2.3-5.9-1.5-.4-3 .3-3 1.3 0 .2-.3 1-.8 1.8-.5 1-.8 2-1 3l-.6 1-.6-.6c-1-.9-2.8-1.3-3.8-.8-.3.2-.4.1-.5-.6-.5-3.4-.6-3.9-1.1-3.8-.4.1-1.1 2.5-1.3 4.2-.1.6-.2 1.1-.3 1.1-.3.2-.8-5.3-.7-6.9.2-2.4-.5-3.9-1.1-2.3-.8 2-1.2 4.3-1.5 7.5-.2 2.1-.8 3.6-1.3 3.4-.2-.1-.5-.1-.7-.1-.4 0-.4-.2-.4-3.5 0-3.8-.2-4.4-.7-2.6-.2.6-.5 1.6-.8 2.2-.3.6-.6 1.3-.6 1.6-.1.3-.2-.7-.3-2.4-.1-1.6-.2-3.9-.3-5l-.1-2.1-1.1-.1c-.6-.1-1.7-.1-2.5-.1h-1.4l.1 2.7c.1 1.5.3 3.5.4 4.5.2 1 .3 2.2.3 2.7 0 .4.3 2.5.7 4.5 1 5.4 1 5.7.4 5.9-.7.3-.9.3-.9-.1 0-.6-.9-2.4-1.3-2.5-.3-.1-.4-.3-.4-.6 0-.9-.3-1.5-.9-1.5-.9 0-1 .3-1 5v4.3l-.5-1.7c-.3-.9-.6-2.4-.8-3.2-.7-3.4-1.1-4.6-1.6-4.6-.3 0-.5.1-.5.2 0 1.6.5 5.8 1 7.8.3 1.4.5 2.7.5 2.7-.1.1-.1 0-.1-.1s-.3-.7-.7-1.4c-.4-.6-.7-1.4-.8-1.8-.1-.4-.2-.8-.3-.9s-.3-1.1-.6-2.1c-.5-2.3-.8-3.2-1.6-4.8-.3-.6-1-2.1-1.5-3.3s-1.2-2.8-1.6-3.5c-.4-.7-.7-1.4-.7-1.5 0-.1-.2-.6-.5-1.1-.3-.5-.5-1.1-.5-1.2 0-.6-1.1-2-1.5-2-.5 0-.6.4-.2 2.4.2.8.3 1.8.4 2.2.1.5.3 1.4.5 2 .5 1.7.4 1.6-1.1-.5-1.6-2.3-2.3-3.6-3.7-6.9-2.9-6.6-4.5-8.8-4.8-6.7l-.1.6-.7-1.2c-.7-1.2-1.5-2-3.3-3.2-.5-.3-1.1-.7-1.3-1-.2-.5-.4-.4-.4.4m11.5 6.2c1.6 2.9 2.2 3.6 3 3.4.5-.2.6-.6.4-1.8l-.1-1.1-1.8-.7c-1-.4-1.9-.7-1.9-.7-.2-.1.1.3.4.9m7.1 1.9c.2.3.8 1.7 1.4 2.9.6 1.3 1.2 2.6 1.2 2.9.1.4.2.7.3.8s.3.6.5 1.2c.2.5.6 1.4.9 1.8.3.5.6.9.6 1 0 .1.2.2.4.2.4 0 .4-2.7 0-5.2-.3-1.5-.2-1.9.2-.8.1.4.5 1.3.9 2 1.1 2.1 2.5 5.7 3 7.4.5 1.7.9 2.3 1.5 2.1.4-.2.3-1.2-.4-4.1-.3-1.1-.5-2.4-.5-2.9s-.2-2.2-.4-3.7c-.4-2.5-.4-3.6-.1-2.4.1.4.3.5.6.5.6 0 .7-2.7.1-2.7-.8 0-2.2-.2-4.9-.7-1.6-.3-3.1-.5-3.4-.6-.3-.1-.8-.2-1-.3-1-.2-1.2-.1-.9.6m-4.4 2.5c0 .4.3.8.5.8s.3-.2.3-.5c0-.4-.1-.5-.4-.5-.2 0-.4.1-.4.2m23.2-.1c-.2.2-.2 2.6 0 2.7.3.2.6-.4.7-1.6.1-1-.2-1.5-.7-1.1m117.2.2c-.1.2-.4.9-.5 1.7-.6 3.4-1.1 5-2.3 6.5-.3.4-.9 1.3-1.4 2-.4.6-2 2.4-3.5 3.9-2.9 2.9-3 2.9-6.9 4.5-3.6 1.5-7.6 3.6-9.6 5.1-1 .7-1.7 1.1-3.3 1.6-1.2.4-2.7.9-3.4 1.2s-1.3.6-1.3.6-1 .4-2.1.9-2.8 1.2-3.9 1.6c-2.2.8-10.3 4.8-13.4 6.5-1.2.7-2.8 1.5-3.5 1.9-.8.4-1.9 1.1-2.6 1.6-.6.5-1.7 1.3-2.3 1.7-.9.6-1.1.9-1.1 1.3 0 .7.8.7 1.6.1.3-.2 1.2-.8 2-1.2.8-.4 1.6-1 1.9-1.2.3-.3.6-.5.7-.5.1 0 1.2-.5 2.4-1.2s2.9-1.5 3.8-1.8c.9-.4 2.3-1 3.1-1.4 3.1-1.5 6.8-3 7.7-3 .6 0 3.5-.7 4.5-1.2 2.9-1.2 5.9-2.3 8.3-2.9 1.5-.4 3-.9 3.3-1 .3-.1 1.2-.4 2-.6.8-.2 2.4-.9 3.7-1.4 1.2-.6 2.3-1.1 2.3-1.1s1.1-.5 2.3-1.2c9.7-5.3 14.7-12.2 13.7-19-.2-1.2-.4-2.2-.5-2.3-.1-.1-.2-.4-.2-.6.1-1-.9-1.7-1.5-1.1M77 255.6c.9 1.7 1.1 2.4 2 6.6.7 3.3.9 7.6.3 8.2-.3.3-.3.7.2.7.2 0 .4-.1.4-.2s.2-.2.5-.3c.3-.1.5-.2.5-.3 0-.6.5-.9 1-.5 2.1 1.4 4 1.4 4.8 0 1.4-2.1-2.3-9-6.4-12-.7-.5-1.6-1.2-2-1.5-.8-.6-1.4-.9-1.3-.7m283.4 7.5c-2.2.9-3.7 8.8-2.1 10.9.7.9 2.1 1.8 3 1.9 2.4.4 4.5 1.6 4.8 2.7.1.3.3.6.5.6.4.1.4.2-1.2 3.1-.6 1.1-1.2 2.6-2.3 5.7-.4 1.2-1 2.6-1.3 3.2-.3.6-.6 1.5-.6 2l-.1 1 .9-1.6c.5-.9 1.3-2.2 1.7-2.9.4-.8.9-1.6 1.1-1.9l1.2-1.9c.5-.8 1.1-1.6 1.3-1.8.8-1 1.8-2.1 3-3.3 1.8-1.9 1.8-2 1.6-5.3-.2-2.7-.2-2.7-.8-3.3-1.5-1.4-5.5-5.4-6.5-6.5-1.8-2.3-3.1-3.1-4.2-2.6m-10.8 1.7c-.7.6-1.9 1.6-2.7 2.1-1.3 1-1.6 1.4-1.1 1.6.4.2 1 1.6 1.4 3.2.2.8.4 1.7.5 2 .2.5 0 5.1-.3 7.2l-.1.9.4-.6c.7-1.1 2.5-5.9 2.7-7.1.1-.4.2-1.2.3-1.8.3-2 .7-8.6.4-8.6-.2 0-.8.5-1.5 1.1m-197.1 4.1c0 .6.2 1.2.5 1.7.3.4.6 1.2.8 1.7.2.5.6 1.3 1 1.9.4.6 1.1 2 1.7 3.2 1.1 2.2 2.8 5 3 5.2.1.1.2.3.4.6.1.3.6 1.1 1.1 1.9.5.8.9 1.5.9 1.7 0 .2.1.4.2.4.2.1 1.4-2.9 1.4-3.4s-3.1-6.6-4.1-8.1c-.6-.9-1.1-1.7-1.2-1.8a10 10 0 0 0-1-1.4c-.4-.6-1-1.3-1.2-1.6-.7-1-2.8-2.9-3.1-2.9-.3 0-.4.2-.4.9m191.5 2.9c-4.1 2.3-8 4.8-9.2 5.9-1.8 1.6-4.3 6.2-4.9 8.8-1.1 4.6-1 3.7-1 13 0 8.4 0 8.7-.4 10.4-.5 2.1-1 5-1.8 9.8-.7 4.3-1.9 7.6-3.4 9.3-.2.3-.7.8-1 1.3s-.8 1.2-1.2 1.7c-.8 1.1-.8 1.6 0 1.6 1.2.1 4.9-3.5 6.4-6.2.6-1.2.2 1.4-.5 2.9-1 2.1-5 5.1-7.3 5.4-1.6.2-1.7.3-1.8.8-.2.9 1.3 2.7 3.6 4.5 1 .7 1 .8-.9 1.7-.9.4-1.9 1-2.3 1.3-.5.3-.8.4-.8.2 0-.1-.2.2-.4.8-.5 1.4-1.3 1.8-1.7.7-.1-.2-.3-.8-.5-1.3-.3-.8-.3-.9 0-1.9 1.3-4.3 1.5-5.6.7-5.6-.5 0-1.8 1.5-1.8 2.2 0 .1-.1.2-.2.2s-.2.1-.2.2c0 .6-1.3 2.8-1.9 3.3-10.4 7.6-13.8 15.8-8.6 20.7 2.5 2.4 5.5 3.7 8.8 3.8 1.1 0 2.8.2 3.8.5 1 .2 2.4.5 3.1.5.8.1 1.9.2 2.4.4.6.1 1.9.4 2.9.6 5.8 1 8.3 3.1 8.1 6.7-.2 4.1 1.9 8.5 4.8 10 2.1 1 7.3 2 7.7 1.4.2-.3.1-.4-1.4-.7-5-1.1-7.1-6.2-4.8-11.9 1.9-4.8-1.4-12.2-6.2-13.8-2.8-.9-3.4.2-1.3 2.3 1.3 1.3 1.9 2.2 2.4 3.6.4 1.1.3 1.1-.8 0-1-1-2.3-1.4-2.3-.8 0 .1.1.2.2.2s.7.2 1.2.5l1 .5-.9-.1c-.5-.1-1-.1-1.2-.1-4.2.4-9.7-1.3-12.5-3.8l-1-.9v-2c0-3.2 2.3-6 6.8-8.4 2-1 6.3-.4 10.4 1.4 1 .5 2.3 1 2.8 1.2 3 1 5.1 3 8.5 8 2.8 4.2 6.9 9.5 8.5 11.1 1.5 1.4 2.1 1.6 5.2 1.6 2.4 0 2.5-.1 1.4-.8-.9-.6-3.9-3.5-4.6-4.5-.9-1.2-.5-1.2 1.4.1 2.7 1.9 3.9 2.3 7.8 2.9 3.2.5 3.6.3 1.8-.6-1.2-.6-2-1.3-4.1-3.3-2.4-2.4-3.3-3.3-2.2-2.6 1.2.8 2 1.3 4 2.1 4.8 2 6.2 2.5 7.8 2.7.9.1 2.1.3 2.6.4 2.6.4 4.1.5 5.3.1 1.7-.5 1.5-.7-1.7-1.5-5.1-1.2-9.9-3.2-12.9-5.5-.8-.6-1-1-.3-.6 2.2 1.2 5.8 2.4 4.5 1.5-.3-.2-.5-.4-.5-.6 0-.1-.4-.6-.9-1.1-1.1-1.2-1-1.2.8.1 2.6 1.8 6.9 3.3 10.8 3.8.5.1 1.7.4 2.5.7 1.8.7 1.9.6 1.1-.5-.8-1.2-.7-1.2-5.2-2.2-2.6-.6-2.6-.6-4.4-2.8-3.5-4.2-6.6-6.8-9.4-8-.5-.2-1.7-.8-2.7-1.2-1-.5-2.2-1-2.6-1.1-.4-.1-1.4-.6-2.2-1-.8-.4-2-.9-2.7-1.1-.7-.2-2-.6-3-1-1-.3-1.7-.6-1.7-.6 0 .5 2.6 5.2 3.4 6.2 2.9 3.4 2.8 3.7-.2.8-3.4-3.3-5.4-5.9-6.9-9.1l-.8-1.6.1 1.5c.1 1.9 1.1 5.8 1.9 7.4.3.7.7 1.7.9 2.2.2.5.6 1.5.9 2.2.4.8.6 1.4.6 1.5-.1.1-.1 0-.2-.2 0-.1-.3-.5-.5-.8s-.7-1-1-1.5c-.3-.5-.8-1.4-1.2-1.8-.9-1.1-2.4-4.5-3.7-7.7-.5-1.4-1.1-2.8-1.4-3.1-.2-.3-.5-.8-.5-1.2-.1-.3-.2-1.6-.4-2.7s-.3-3-.4-4.2v-2.1l1-2c.5-1.1 2.6-5.2 4.6-9.2 2-4 3.7-7.3 3.7-7.4 0-.2 1.3-2.9 3.4-7.3 1.2-2.4 1.3-3.2.6-3.2-.5 0-.8.4-2.2 2.7-.2.3-.8 1.3-1.4 2.1-.6.8-1.3 2-1.6 2.7-.3.7-1.1 1.8-1.7 2.6a119 119 0 0 0-6.6 9.1c-.4.7-.8 1.1-1.1 1.2-.6.1-.6.2.5-1.6.5-.9 1.4-2.3 1.8-3.1.5-.8 1.8-3.2 3.1-5.3 1.9-3.3 3.8-7 8.2-16.1.6-1.3 1.4-3.1 1.7-4 .3-.9.7-1.9.8-2.2.4-.7.9-2.5.7-2.6 0 0-.3.4-.5 1-.5 1.3-4 8.1-4.8 9.4-1.1 1.8-1.8 2.8-1.8 2.6 0-.5 2.2-7.2 2.7-8.2.4-.8 1.4-3.8 1.1-3.4-.1.2-.7 1.2-1.4 2.1-.6 1-1.5 2.4-1.9 3.3s-1.6 2.7-2.6 4.2-2.7 4.2-3.7 6c-1.9 3.2-2.6 4.3-1.6 2.2.3-.5 1.3-2.6 2.2-4.6l3.1-6.2c.7-1.4 1.6-3.2 1.9-4.1.3-.9.9-2.3 1.3-3.2.9-2 1.3-3.3 1.4-5.4.1-.9.3-2.2.4-3 .3-1.6.4-3 .1-2.7-.2.2-2 4.7-2 5 0 .1-.1.5-.3.8-.1.3-.4 1-.6 1.5-.5 1.3-.8 2-1.9 4-.5 1-1.3 2.5-1.8 3.4-.5.9-1.1 2.1-1.5 2.7-.3.5-.8 1.4-1 1.9-.8 1.8-2.4 4.5-2.5 4.4-.1-.1.3-1.5 1.3-4.3.2-.5.6-1.8.9-2.7.3-1 .7-2.2.9-2.7 1.3-3.4 1.4-4.7.7-5.3-.4-.3-.4-.5-.4-1.7v-2.1l-.1-.8-.9 1.4c-.5.8-.9 1.5-.9 1.5s-.3.6-.6 1.3c-.3.7-.8 1.9-1 2.6-.2.8-.5 1.5-.6 1.6-.1.1-.3.8-.5 1.4-.3 1.1-.5 1.7-.5 1.3 0-.8.6-4.4.9-5.2.2-.5.4-1.3.5-1.8.2-1.2 1.8-5.1 2.9-7.3.8-1.6.9-1.8.7-2.8l-.1-1-.6.4c-.8.5-3.4 3.7-3.9 4.7-.4.7-1.6 2.6-2.1 3.2-.2.2 1.1-3.9 1.6-4.9.7-1.5 1.8-3.2 3.5-5.3.9-1.1 1.6-2.1 1.7-2.3.1-.5.6-1.5.9-1.7.2-.1.3-.9 0-.9.2-.1-.1.1-.5.2m-266 1.3c-1.8.8-2.9 3-3.7 6.8-.1.4-.4 1.3-.7 2.1-.3.8-.7 1.9-.8 2.5l-.3 1.2.7-.8c.4-.4 1.2-1.5 1.8-2.2.6-.8 1.5-1.9 2-2.4s.9-1 .9-1.1c0-.2 2-1.7 3.2-2.4 2.5-1.5 5.8-1.3 5.8.3 0 2.5-2.3 4.9-5.3 5.5-.5.1-.5.2-.6 1.1-.4 2.8-1.7 7.2-3.1 10.7-.9 2.1-.7 2.3.4.4.5-.9.7-1.1 1.2-1.7.1-.1.4-.5.6-.9.2-.4.4-.7.5-.8.3-.2 1.4-1.9 1.4-2.1 0-.1.4-1 .9-1.9.5-.9 1-2.2 1.2-2.8.3-.9.4-1.1.9-1.2 1.1-.2 4.3-4 4.9-5.6.5-1.4.1-2.7-1-3.9l-1-1h-4.3c-4.4-.2-4.6-.2-5.6.2m66.7 3.4c-.1.1-2.6.3-4.4.3h-1.2l-1.7 1.7c-2 2-3.6 4.4-5.2 7.6-1.8 3.8-2 4.1-3.6 8.4-.5 1.3-1.3 3.2-1.7 4.3-.4 1.1-1.1 2.9-1.5 4-.4 1.1-.9 2.5-1.1 3-.7 1.7-2.7 5.7-3.8 7.5-.6 1-1.4 2.4-1.8 3.1-.6 1.3-1.2 1.8-3.1 3.1l-.9.6.4-.8c.2-.4.6-1.3.8-1.9.2-.6.6-1.3.7-1.5.1-.2.7-1.4 1.3-2.8.6-1.4 1.1-2.7 1.3-2.8.1-.2.3-.4.3-.5 0-.1.3-.5.6-1s1-1.8 1.5-2.9c.5-1.1 1.1-2.3 1.4-2.8 1-1.4 2.9-5.9 4-9.4.8-2.4 1.2-5 .8-6.2-.2-.8-1-.7-1.3.2-.1.4-.4 1-.5 1.4-.2.4-.5 1.2-.7 1.9-.2.7-.7 1.7-1 2.3l-.6 1.1v-3.5c0-2.8-.1-3.8-.4-5.2-.4-1.9-.5-5.4-.2-6.1.7-1.3-2.6.1-3.9 1.7l-.5.6v6.6c0 5.1-.1 7.2-.3 9.2-.2 1.4-.3 2.9-.3 3.4 0 4.1-2.6 12-4.9 14.9-.5.6-1.1 1.4-1.3 1.8-.6.9-4.9 5.4-5.6 5.8-.3.2-1.4.4-2.9.5-7.9.7-11.2 1.7-15.3 4.8-.6.5-1.6 1.1-2.2 1.5-4.5 2.5-4.8 2.7-8.1 6-2.7 2.8-4.1 3.9-5.8 4.8-.2.1-.4.3-.5.5-.1.4.4.2 3.3-1.2 1.3-.6 2.8-1.3 3.3-1.5.5-.2 1.5-.7 2.3-1.2.8-.4 1.5-.8 1.5-.8.1 0 2.2-1.3 4.2-2.6 1.9-1.2 2.8-1.7 2.6-1.3-.1.1-.2.3-.2.5s-1.7 1.5-1.7 1.3c0-.1-.1 0-.3.2s-.8.6-1.3 1c-.6.4-1.4 1-1.9 1.4-.5.4-2.5 2-4.6 3.5-2.1 1.5-3.7 2.8-3.7 2.9.1.1 2-1 5.3-3 4.2-2.5 8.1-4.2 10.9-4.7.3-.1 1.3-.2 2.1-.4 2.3-.4 2.4-.5-2.2 1.5-2.9 1.2-5 2.4-7.7 4.6-.5.4-.3.5.6.2 1.9-.6 3.8-1.1 4.8-1.2.6-.1 1.1-.2 1.2-.2l2.4-.2 2.5-.2c.5-.3 7.4-.4 10.3-.2 4.5.4 7.1.2 9.9-.8.8-.3 1.6-.5 1.9-.5.8 0 2.2-1.5 3-3.1 1.7-3.5 2.4-4 5.4-3.8 2.2.1 2.4.1 2.9-1 .3-.6.3-.7 0-1.6-1.2-3.2-.2-6.6 3-10.8.9-1.2 0-1.6-1.2-.4-.4.4-1 1.1-1.4 1.5-.3.5-1 1.2-1.4 1.6a3 3 0 0 0-.7.9c0 .5-3.7 4.7-4.7 5.4-1.1.8-10.8 5.7-11.9 6-.3.1.9-.8 2.6-1.9 1.7-1.1 3.4-2.3 3.8-2.7.4-.3.8-.6 1-.6.8 0 6.3-5.4 6.2-6-.1-1-.9-.8-2.3.6-.7.7-1.8 1.5-2.4 1.8s-1.6.8-2 1.1c-.5.3-1.4.7-2 .9-.6.2-1.4.6-1.9.7-.9.4-.8.3.6-.8 1.8-1.5 3.2-2.9 4.1-4.2 1.7-2.4 3.3-4.5 5-6.5.5-.6 1.2-1.6 1.5-2.2.3-.6.9-1.5 1.3-2 .7-.8 3.4-4.4 4.7-6.2.3-.5 1.2-1.7 1.9-2.7.7-1 1.8-2.8 2.5-3.9 1.2-1.9 3.2-5.1 3.5-5.3.1-.1 3-3.8 3.8-5 .3-.5 1.3-1.6 2.2-2.6.9-.9 1.6-1.9 1.6-2.1 0-.5 1.2-1.6 2.3-2.1 1.8-.8 1.1-1.5-1.4-1.5a5 5 0 0 0-2.3.4c-1.2.6-1.2.5.1-.7 1.6-1.5 2.1-1.7 3.8-1.8 1.8-.1 1.8-.1.8-.9-1.8-.5-3.9-1.3-4.3-.8M83.2 278c-.7.9-.7 1.2-.2 1 .4-.2 1.4-1.4 1.4-1.6 0-.5-.7-.1-1.2.6m8.5.3a9 9 0 0 0 .1 2.2c.2 1.7.1 2.7-.5 3.7-.2.3-.3.7-.3.9 0 .4-1.4 2.5-1.8 2.9-1.8 1.5-.8 4.5 1.5 4.5 2.1 0 4.1-3.2 4.1-6.4 0-3.5-1.4-8.2-2.4-8.2-.5-.2-.6 0-.7.4m240.5.6c-.4.4-.6.8-.5.8.1 0 .3-.3.5-.6.5-.6.5-.8 0-.2m-176.5 5c0 .3.2 1 .5 1.7.9 2.3 1.2 4.3.9 5.8-.6 3.6-3.6 8.8-7.2 12.7a95.6 95.6 0 0 0-6.2 7.2c-.7 1-1.6 2.2-2.1 2.8-5.3 6.9-5.2 6.7-6.3 9-.5 1-1.1 2.1-1.4 2.4-1 1.4-1.9 3.6-1.9 4.8 0 .9 0 1.2-.3 1.6-.5.7-.5.8.1.7.5-.1.7-.4 1.8-2.5.7-1.3 1.7-2.9 2.1-3.5a49 49 0 0 0 1.4-1.8c1.6-2.5 9.9-11.8 10.8-12.2.6-.2 2.3-1.9 4-3.9.8-.9 2.5-2.8 3.9-4.2 2.7-2.6 3.2-3.4 3.6-5.2.1-.6.5-1.9.8-2.9 1-3.3.7-6.1-1.1-10-1.1-2.5-3.4-4.1-3.4-2.5m210.8 6.7c-.9 1.3-1.7 3.7-2.6 7.7-.2.8-.5 1.7-.6 1.9-.2.3-.5 1.1-.7 1.8-.8 3-3.5 8.9-5.6 12.1-1.2 1.8-3.9 6.7-3.9 6.9 0 .1-.7 1.3-1.5 2.7-5.5 9.2-7.1 12.8-7 15.1l.1 1 1.6-3.1c.9-1.7 1.8-3.6 2-4.1.2-.6.8-1.5 1.3-2.1s1.3-1.6 1.8-2.4c.5-.7 1.5-1.9 2-2.6.6-.7 1.5-1.8 2-2.4.5-.6 1.3-1.6 1.9-2.1.6-.6 1.3-1.4 1.6-1.8.5-.7 2.3-2.8 4.1-4.9 4.8-5.6 6.9-13.3 5.6-20.6-.3-1.6-.5-3.1-.6-3.5-.2-1.2-.5-1.1-1.5.4m-3.5 2.8c-.2.3-.3.7-.2.7.1.1.2-.2.4-.5s.3-.7.2-.7c0-.1-.2.1-.4.5M34.6 333.5c0 .4 0 .8-.1 1-.1.3.4.8 3.8 4l1.5 1.4h1.5c.9 0 1.9.1 2.4.2 4.2.9 4.8.9 4.7.1-.1-.4-.8-.8-3-1.8-1.6-.7-6.7-3.3-8.6-4.4-2.4-1.4-2.2-1.4-2.2-.5m26.3 1.6c-.4.2-.8.2-.9.2-.7-.4-1.9.2-3.6 1.8-1.7 1.6-4.2 3.4-4.8 3.4-.4 0-1.3.9-1.3 1.4 0 .2-.2.4-.3.5-.7.2-3.1.5-4.5.5-2.2 0-3.6 1.1-4.9 3.6-2.5 5.1 0 13 4.7 14.8.3.1.2-.1-.2-1-1.5-2.9-1.6-7.4-.4-10.4.2-.5.2-.5 2.5-.6 3.8-.2 6.8-1.4 11.3-4.8 2.2-1.7 4.3-4.1 4.3-5 0-.4 1-.3 3.1.4 2.8.9 4.8.8 4.7-.2-.1-.6-.2-.7-2.5-1.8-.8-.4-2.3-1.2-3.4-1.9-2.2-1.3-2.6-1.4-3.8-.9m73.1 1.6c0 .3.2 1.1.4 1.8 2 6.2 1.6 8.1-2.3 12.1-2 2-3.3 3.9-3.3 4.8 0 .3-.2.7-.3.8-.4.3-2.4 1.2-2.7 1.2-.4 0-2.1 1.2-2.1 1.5 0 .3 2.5.4 2.8.1.1-.1.8-.3 1.5-.4 9.8-1.8 13.7-9.9 9.3-19.2-1.3-2.5-3.3-4.2-3.3-2.7m131.2 9.2c-.2 1.8.4 4.2 1.2 5.5.4.7 2.6 5 3.8 7.6.6 1.4.6 3.3 0 5.3-.1.4-.1.4.5.4.6-.1.7-.2 1.4-1.6l.8-1.6v-2.6c0-3.3-.2-3.7-3.2-6.9-2.2-2.3-3.4-4.3-3.7-6.2-.2-1.2-.7-1.2-.8.1m25.8 1.9c.7.2 2.5.4 2.1.2-.2-.1-.8-.2-1.5-.3-.6 0-.9 0-.6.1m-16.9 14.1c-2.6 4.3 1 9.6 9.5 13.9 4.8 2.4 7.7 7.4 6 10.5-.8 1.5-.5 1.9.8 1.1 2.3-1.4 3.1-6 1.6-9.1-1.4-2.9-2.5-4-5.8-5.1-1.1-.4-3-1.2-4.3-1.8-1.3-.6-2.6-1.2-3-1.4-2.2-.9-4.1-3.7-4-6 .1-2.1-.3-2.9-.8-2.1m9.9.4c0 .2.7 1.9 1.1 2.6.5.9.5 1.9.2 3.9-.4 2.2-.4 2.1.6 2.3 1 .1 1 0 1.2-2.4.1-1.4.1-1.7.3-1.4.4.5.7 2.6.6 3.6-.1.9-.1.9.6 1.4 1.1.6 3.2 2.4 3.5 3 .2.3.4.5.6.5.4 0 .4-.4-.5-3.2-.3-1.1-.6-2.1-.7-2.3-.1-.4-1.3-2.7-1.4-2.8-.1-.1-.4-.6-.8-1.2-1.1-1.9-5.3-5-5.3-4m113.9 2.8c-.7.2-1.4.5-1.7.6-.2.1-1 .4-1.8.6-.8.3-2 .8-2.8 1.1-.8.3-1.9.8-2.3 1-.6.2-1 .6-1.2.9l-.4.6.5.2c.4.2.6.2.7 0 .2-.2.3-.2.6 0s.8.2 2 0c2.7-.4 2.9-.5 4.1-1.7l2.4-2.4c1.5-1.4 1.5-1.4-.1-.9m-6.1 6.3c-.8.3-2.6.7-3.9 1-1.3.3-2.5.6-2.6.7-.1.1-.4.2-.7.2-.7 0-2.5.7-2.8 1.1-.8 1.1.1 1.4 4.1 1.4 3.8 0 3.9 0 6.2-2.1 2.9-2.6 2.7-2.4 2.2-2.6-.6-.2-.9-.2-2.5.3m-151.9.7c-.5.4-.8.5-2.3.5-.9 0-1.9.1-2.2.2-.3.1-1 .2-1.5.2-.9 0-.9 0-1.1.7-.3 1.9 1.1 3.3 3 2.9.5-.1.6-.1.7.5.1.4.4.8 1 1.2a7 7 0 0 1 1.6 1.4c1 1.1 2.6 2.2 4.5 3.2a76.19 76.19 0 0 1 8.2 5c1.5.9 3 2 4.3 3.5 2 2.1 3.8 1.8 2.3-.3-.8-1.2-5.8-6.3-7.7-7.8-.9-.7-2.1-1.7-2.7-2.2-.5-.5-1.6-1.3-2.3-1.9-1.2-1-1.8-1.6-3.3-3.4-.3-.4-.8-.9-1-1.1-.2-.2-.5-.3-.5-.4 0 0 .2-.3.5-.6 1.1-1.3-.1-2.7-1.5-1.6m155.8.5c-1.5.9-1.5.9-1.3 2.4.2 1.8 0 2.2-1.7 4.1-2 2.1-1.7 2.6.7 1.2 2.5-1.4 3.8-3.3 3.8-6 .1-2.4 0-2.6-1.5-1.7m-137.4 0c-.8.8 1.2 2.3 3.5 2.7.9.2 3.8 1.5 4.7 2.1.3.2 1.2.8 1.9 1.1 2.1 1.2 7.2 5.4 9.4 7.8 4.8 5.3 4.6 4.8-1.9-4.9-3.4-5-7.6-7.6-14-8.4-1.5-.2-2.9-.4-3.1-.5-.2 0-.4 0-.5.1m25.7 4.6s.5.4 1.1.8c1.3.9 1.4.8.2-.1-.9-.7-1.3-.9-1.3-.7m85 .1c-3.6.3-5.8 1.2-6.4 2.5-.9 2 .1 3 5 4.8 5 1.8 6.1 2 7.3 1.2.4-.3 1.8-1.1 2.9-1.8s2.1-1.3 2.1-1.3l-2.7-1.4c-1.1-.3-1.5-1-.5-.8.3.1 1 .2 1.4.2 1.2.2 2.3.5 3.4 1l1 .5 1.8-.4c2.3-.6 2.3-.8.3-1.2-.9-.2-2.1-.5-2.8-.7-1.3-.4-1.4-.4-2.7-.6-.5-.1-1.6-.3-2.3-.5-1.6-.4-5.3-1.4-5.8-1.5-.3-.1-1.1 0-2 0m18.6 2.4c.1 2.4-.4 3.6-2.5 5.5-1.4 1.3-1.6 1.4-3.1 2.2-1.9 1 .6 1.6 3 .7 4.5-1.6 7.1-10.1 3-10.1h-.5l.1 1.7m-116.9 2.1c.6.5 1.1 1 1.3 1 .3 0-.4-.8-1.4-1.4l-.9-.6 1 1m70.1-.8c0 .4.4 1.2.6 1.2.4 0 .1-1.3-.3-1.3-.1 0-.3 0-.3.1m14.2 3.4c-.1.1 0 .7.1 1.3.1.6.3 1.6.4 2.1.3 2.2 2 5.4 3.4 6.4 1.3 1 5 2.7 6.2 2.9 2.1.4 8.4-1.9 10.6-3.9 1-.9 4-7.2 3.3-6.8-.1 0-.7.3-1.4.7-.7.3-1.3.6-1.5.6-.2 0-.8.5-1.3 1-1 1-3.2 2.7-4.8 3.8-2.3 1.6-6.3 1.3-9.8-.6-2.3-1.3-3.5-3.1-4-6.2-.2-1.5-.8-2.1-1.2-1.3"/></svg>