<svg id="Layer_1" xmlns="http://www.w3.org/2000/svg" viewBox="0 0 16.2 2.8"><style>.st0{fill:#fff}.st1{fill:#ebd89b}.st2{fill:none;stroke:#ebd89b;stroke-width:0;stroke-linecap:round;stroke-linejoin:round}</style><path class="st0" d="M7.2 1.9c.1 0 .2-.1.2 0l.1-.1h.2-.3c-.1.1-.4.1-.5.2.1-.1.2 0 .3-.1zM7.9 1.9h-.1l-.1.1.2-.1z"/><path class="st1" d="M8.7 2c-.1 0 .1 0 0 0 0 0 .2.1.3.1h.1C9 2 8.7 2 8.5 1.9c0 0 .1 0 .2.1-.1 0 0 0 0 0z"/><path class="st0" d="M8.9 2s-.2 0 0 0zM8.7 1.9c-.1-.1.1 0 0 0 0 0 .1 0 0 0z"/><path class="st1" d="M9.4 2.1H9h.4zM9.4 2.2s-.1-.1 0 0h.3-.1s.3 0 .2.1c.2 0-.1-.1.1-.1-.1 0-.3-.1-.5 0h.1-.4c.1 0 .2-.1.3 0zM10 2.3h.4-.2c0-.1-.2-.1-.2 0 .1-.1 0-.1 0 0zM10.6 2.3c0-.1 0 0-.2 0h.2zM10.6 2.1h.2-.4-.2c.2 0 .4.1.4 0zM10.4 2.1h.1-.1zM11 2.3h-.2zM10.7 2.2c.2 0-.1 0 0 0h-.2.2zM11.1 2.3h.2-.2zM11.5 2.3h.5s.1-.1-.1-.1h-.2c0 .1-.2.1-.2.1-.1 0-.2-.1-.2 0h.2zM11.5 2.2h-.1.1c0-.1-.1-.1 0 0-.1 0-.2-.1-.2 0H11h.5z"/><path class="st1" d="M12 2.2c.3 0 .5.1.7 0 .2-.1.4 0 .7-.1h-.1c0-.1.1 0 .2 0h-.3c-.1 0-.1 0-.1.1H13c-.2.1-.3 0-.5.1h.1-.6v-.1h-.1l-.2.1c.1-.1.3-.1.3-.1zM11.8 2.1h-.2c0 .1.1.1.2 0 0 .1 0 .1 0 0z"/><path class="st0" d="M12.8 2.1h.1c-.1 0-.2.1-.1 0zM13.2 2.1h-.1.1z"/><path class="st1" d="M13.5 2h-.1.1z"/><path class="st0" d="M14.1 2c-.1 0-.1 0 0 0 0 0 .1 0 0 0 0 0 .1-.1 0 0z"/><path class="st1" d="M14.7 1.9c-.1 0-.1 0 0 0-.1 0-.1 0 0 0zM12.5 2.3zM12.5 2.3zM13.8 2.1zM8.3 1.9zM8.3 1.9c.1 0 .1.1.3.1-.1 0-.2 0-.3-.1-.1 0 .2 0 0 0zM10.2 2.2z"/><path class="st0" d="M2.1 1.9H2zM2.1 1.9h.2s-.1.1-.2 0c-.1 0-.3 0-.4-.1-.2 0-.3-.1-.4-.2-.1 0-.1 0-.1-.1 0 0 .2.1.5.2.2.2.4.2.4.2z"/><path class="st0" d="M2.2 1.9c.1 0 .2.1.3.1-.1 0-.2 0-.3-.1z"/><path class="st2" d="M2.6 1.9h.2c0 .1-.1.1-.2 0z"/><path class="st1" d="M2.8 1.9zM2.8 1.9zM2.8 1.9c.1 0 .1 0 0 0H3c-.1-.1-.1 0-.2 0H3.1c-.1.1-.1 0-.3 0z"/><path class="st2" d="M3.2 1.9h-.1.1z"/><path class="st1" d="M3.4 2s-.1 0 0 0h-.1c.1 0 0-.1.1 0zM3.3 2s-.1 0 0 0c-.1 0 0 0 0 0z"/><path class="st2" d="M1.9 1.8z"/><path class="st1" d="M3.7 2c0 .1 0 .1 0 0zM.1.4C.1.6.1.8.3 1l.1.1c0-.1 0 0 0 0 .1.1.2.1.3.2.3.2.5.3.4.2H1h.1c.1.1.2.2.3.2 0 0-.2-.1-.5-.2 0-.1-.1-.2-.2-.2l-.1-.1s.1 0 .2.1l.4.2c.3.2.7.3.7.3.2 0 .3 0 .5.1h-.3c.3 0 .3.1.5.1 0 0-.1-.1.1 0 0 0-.2 0 0 0 .2.1.2 0 .4 0H3c.1 0 .2 0 .3.1H3c.1 0 .3.1.3.1h.2c.1 0 0 0 0-.1 0 0 .2.1.3 0 0-.1-.2 0-.3-.1h.2c.1 0-.3 0-.2-.1.1 0 .3.1.4 0-.3.2-.5.2-.5.1h.4c.1 0 0 0 0 0 .2.1.6 0 .9.1h.5-.1H5c.1.1-.3-.1-.4 0h-.2C4.2 2 4.1 2 4.1 2h-.4 1.6-.1.3c-.1 0-.1 0 0 0h1c.1-.1.1 0 .2 0-.1 0 0 0 0 .1.2 0 0-.1 0-.1H7h-.1c.2 0 .4-.1.6-.1h.4l.1-.3h.5c.2 0 .4.1.5.1h-.1-.1l.2.2h-.1c.2 0 .4 0 .5.1h-.2.1c.2 0 0-.1.3 0h.3-.1.6c.1 0-.2 0-.2.1h.1c-.3.1-.3 0-.5 0h-.2c-.1-.1-.3 0-.5-.1.2 0-.1-.1-.1-.1-.1 0-.3 0-.4-.1-.1 0 .1 0 0 0H8.3h-.1H7.9h-.1c-.1 0-.3.1-.3.1-.1 0-.2.1-.4.1h.2c.2 0 .5-.1.7-.2l-.1.1c.1 0 .1-.1.2-.1 0 0-.1 0 0 0s0 .1.1.1H8h-.1-.1c.1.1 0 .1 0 .1-.2 0-.3.1-.4.1-.3 0-.5.1-.8.1-.1 0-.5.1-1 .1h-.9-.1c-.3-.1-.7 0-1.1-.1h-.1c-.1-.1-.3 0-.5-.1h-.4.1-.1-.1-.1c.1 0-.1-.1-.4-.2-.3-.1-.5-.1-.8-.3-.1 0-.2 0-.3-.1l-.1-.1c-.1 0 0 0 .1.1.1 0 0 0 0 0-.2-.1-.4-.3-.5-.4C.2 1 .2.8.1.7V.4zM16.1 1c-.1 0 0 0 0 0 0-.1.1-.2 0-.1l-.3.3-.3.3c-.2.2-.5.3-.7.4-.1 0-.1 0-.3.1-.1 0-.3.1-.4.1-.2.1-.3 0-.4.1.1 0-.1 0 0 0h-.3c-.2 0-.5.1-.5.1H12.6c-.1 0 0 0 0 0h-.3.3c.5-.1.9 0 1.3-.1.1-.1.1-.2.2-.2h-.2c-.1 0-.1 0-.1.1h-.1-.1-.1c.1 0 .2-.1.1-.1.2-.1 0 .1.2.1h.2l.9-.3c.3-.1.6-.3.8-.6.1 0 .2-.1.2-.2s0-.1.1-.2c0 0 0-.1.1-.1 0-.1-.1.1 0 0V.6.5s.1 0 .1.1c0 0 0 .2-.1.4z"/></svg>