<?xml version="1.0" encoding="utf-8"?>
<!-- Generator: Adobe Illustrator 19.2.1, SVG Export Plug-In . SVG Version: 6.00 Build 0)  -->
<svg version="1.1" id="Layer_1" xmlns="http://www.w3.org/2000/svg" xmlns:xlink="http://www.w3.org/1999/xlink" x="0px" y="0px"
	 viewBox="0 0 16.2 2.8" style="enable-background:new 0 0 16.2 2.8;" xml:space="preserve">
<style type="text/css">
	.st0{fill:#FFFFFF;}
	.st1{fill:#EBD89B;}
	.st2{fill:none;stroke:#EBD89B;stroke-width:0;stroke-linecap:round;stroke-linejoin:round;}
</style>
<g>
	<path class="st0" d="M7.2,1.9c0.1,0,0.2-0.1,0.2,0c0,0,0,0,0.1-0.1c0,0,0.1,0,0.2,0c-0.1,0-0.1,0-0.3,0C7.3,1.9,7,1.9,6.9,2
		C7,1.9,7.1,2,7.2,1.9z"/>
	<path class="st0" d="M7.9,1.9L7.9,1.9c0,0,0,0-0.1,0C7.7,2,7.7,2,7.7,2C7.7,2,7.9,1.9,7.9,1.9z"/>
	<path class="st1" d="M8.7,2C8.6,2,8.8,2,8.7,2C8.7,2,8.9,2.1,9,2.1l0.1,0C9,2,8.7,2,8.5,1.9C8.5,1.9,8.6,1.9,8.7,2
		C8.6,2,8.7,2,8.7,2z"/>
	<path class="st0" d="M8.9,2L8.9,2C8.9,2,8.7,2,8.9,2z"/>
	<path class="st0" d="M8.7,1.9C8.6,1.8,8.8,1.9,8.7,1.9C8.7,1.9,8.8,1.9,8.7,1.9z"/>
	<path class="st1" d="M9.4,2.1c0,0-0.1,0-0.2,0c-0.1,0-0.2,0-0.2,0s0,0,0.1,0c0,0,0.1,0,0.1,0s0.1,0,0.1,0C9.4,2.1,9.4,2.1,9.4,2.1z
		"/>
	<path class="st1" d="M9.4,2.2C9.4,2.2,9.3,2.1,9.4,2.2c0.1,0,0.2,0,0.3,0l-0.1,0c0,0,0.3,0,0.2,0.1c0.2,0-0.1-0.1,0.1-0.1
		C9.8,2.2,9.6,2.1,9.4,2.2c0,0,0.1,0,0.1,0c-0.1,0-0.3,0-0.4,0C9.2,2.2,9.3,2.1,9.4,2.2z"/>
	<path class="st1" d="M10,2.3c0.1,0,0.3,0,0.4,0c-0.1,0-0.2,0-0.2,0C10.2,2.2,10,2.2,10,2.3C10.1,2.2,10,2.2,10,2.3z"/>
	<path class="st1" d="M10.6,2.3L10.6,2.3L10.6,2.3L10.6,2.3c0-0.1,0,0-0.2,0C10.5,2.3,10.5,2.3,10.6,2.3z"/>
	<path class="st1" d="M10.6,2.1c0.1,0,0.1,0,0.2,0c-0.1,0-0.3,0-0.4,0l0,0c0,0-0.1,0-0.2,0C10.4,2.1,10.6,2.2,10.6,2.1z"/>
	<path class="st1" d="M10.4,2.1l0.1,0L10.4,2.1z"/>
	<polygon class="st1" points="11,2.3 10.8,2.3 10.8,2.3 	"/>
	<path class="st1" d="M10.7,2.2C10.9,2.2,10.6,2.2,10.7,2.2c0.1,0-0.2,0-0.2,0C10.6,2.2,10.7,2.2,10.7,2.2z"/>
	<path class="st1" d="M11.1,2.3l0.2,0L11.1,2.3z"/>
	<path class="st1" d="M11.5,2.3L11.5,2.3c0.2,0,0.4,0,0.5,0c0,0,0.1-0.1-0.1-0.1c0,0-0.1,0-0.1,0c-0.1,0,0,0-0.1,0
		C11.7,2.3,11.5,2.3,11.5,2.3C11.5,2.3,11.5,2.3,11.5,2.3c-0.1,0-0.2-0.1-0.2,0C11.3,2.3,11.4,2.3,11.5,2.3z"/>
	<path class="st1" d="M11.5,2.2l-0.1,0C11.4,2.2,11.5,2.2,11.5,2.2C11.5,2.1,11.4,2.1,11.5,2.2c-0.1,0-0.2-0.1-0.2,0
		c-0.2,0-0.1,0-0.2,0l-0.1,0C11.2,2.2,11.3,2.2,11.5,2.2z"/>
	<path class="st1" d="M12,2.2L12,2.2L12,2.2c0.3,0,0.5,0.1,0.7,0c0.2-0.1,0.4,0,0.7-0.1c0.1,0-0.1,0-0.1,0c0-0.1,0.1,0,0.2,0
		c0,0-0.2,0-0.3,0c-0.1,0-0.1,0-0.1,0.1c0,0-0.1,0-0.1,0c-0.2,0.1-0.3,0-0.5,0.1c-0.1,0,0.1,0,0.1,0l-0.1,0l0,0c-0.1,0-0.4,0-0.5,0
		C12,2.2,12,2.2,12,2.2l-0.1,0l-0.2,0.1C11.8,2.2,12,2.2,12,2.2z"/>
	<path class="st1" d="M11.8,2.1c-0.2,0,0,0-0.2,0C11.6,2.2,11.7,2.2,11.8,2.1C11.8,2.2,11.8,2.2,11.8,2.1L11.8,2.1z"/>
	<path class="st0" d="M12.8,2.1C12.8,2.1,12.8,2.1,12.8,2.1c0.1,0,0.1,0,0.1,0C12.8,2.1,12.7,2.2,12.8,2.1z"/>
	<polygon class="st0" points="13.2,2.1 13.1,2.1 13.2,2.1 	"/>
	<path class="st1" d="M13.5,2c0.1,0,0,0-0.1,0C13.5,2,13.5,2,13.5,2z"/>
	<path class="st0" d="M14.1,2C14,2,14,2,14.1,2C14.1,2,14.2,2,14.1,2C14.1,2,14.2,1.9,14.1,2z"/>
	<path class="st1" d="M14.7,1.9C14.6,1.9,14.6,1.9,14.7,1.9C14.6,1.9,14.6,1.9,14.7,1.9z"/>
	<path class="st1" d="M12.5,2.3C12.5,2.3,12.5,2.3,12.5,2.3C12.5,2.3,12.5,2.3,12.5,2.3z"/>
	<path class="st1" d="M12.5,2.3C12.5,2.3,12.5,2.3,12.5,2.3C12.5,2.3,12.5,2.3,12.5,2.3z"/>
	<path class="st1" d="M13.8,2.1C13.8,2.1,13.8,2.1,13.8,2.1C13.8,2.1,13.8,2.1,13.8,2.1L13.8,2.1z"/>
	<path class="st1" d="M8.3,1.9C8.3,1.9,8.3,1.9,8.3,1.9C8.3,1.9,8.3,1.9,8.3,1.9C8.3,1.9,8.3,1.9,8.3,1.9z"/>
	<path class="st1" d="M8.3,1.9C8.4,1.9,8.4,2,8.6,2C8.5,2,8.4,2,8.3,1.9C8.2,1.9,8.5,1.9,8.3,1.9z"/>
	<path class="st1" d="M10.2,2.2C10.2,2.2,10.2,2.2,10.2,2.2C10.2,2.2,10.2,2.2,10.2,2.2z"/>
	<polygon class="st0" points="2.1,1.9 2.1,1.9 2,1.9 	"/>
	<path class="st0" d="M2.1,1.9c0,0,0.1,0,0.1,0c0.1,0,0.1,0,0.1,0S2.2,2,2.1,1.9C2,1.9,1.8,1.9,1.7,1.8C1.5,1.8,1.4,1.7,1.3,1.6
		c-0.1,0-0.1,0-0.1-0.1c0,0,0,0,0,0l0,0c0,0,0.2,0.1,0.5,0.2C1.9,1.9,2.1,1.9,2.1,1.9z"/>
	<path class="st0" d="M2.2,1.9C2.3,1.9,2.4,2,2.5,2C2.4,2,2.3,2,2.2,1.9L2.2,1.9z"/>
	<path class="st2" d="M2.6,1.9c0.1,0,0.1,0,0.2,0C2.8,2,2.7,2,2.6,1.9z"/>
	<path class="st1" d="M2.8,1.9C2.8,1.9,2.8,1.9,2.8,1.9C2.8,1.9,2.8,1.9,2.8,1.9L2.8,1.9z"/>
	<path class="st1" d="M2.8,1.9L2.8,1.9C2.8,1.9,2.8,1.9,2.8,1.9z"/>
	<path class="st1" d="M2.8,1.9C2.9,1.9,2.9,1.9,2.8,1.9L2.8,1.9c0.1,0,0.2,0,0.2,0C2.9,1.8,2.9,1.9,2.8,1.9c0.1,0,0.1,0,0.2,0
		c0,0,0.1,0,0.1,0C3,2,3,1.9,2.8,1.9z"/>
	<path class="st2" d="M3.2,1.9l-0.1,0C3.1,1.9,3.2,1.9,3.2,1.9z"/>
	<path class="st1" d="M3.4,2C3.4,2,3.3,2,3.4,2C3.3,2,3.3,2,3.3,2C3.4,2,3.3,1.9,3.4,2z"/>
	<path class="st1" d="M3.3,2C3.3,2,3.2,2,3.3,2C3.2,2,3.3,2,3.3,2z"/>
	<path class="st2" d="M1.9,1.8C1.9,1.8,1.9,1.8,1.9,1.8L1.9,1.8z"/>
	<path class="st1" d="M3.7,2L3.7,2C3.7,2.1,3.7,2.1,3.7,2L3.7,2z"/>
	<path class="st1" d="M0.1,0.4c0,0.2,0,0.4,0.2,0.6c0,0,0.1,0.1,0.1,0.1c0-0.1,0,0,0,0c0.1,0.1,0.2,0.1,0.3,0.2
		C1,1.5,1.2,1.6,1.1,1.5L1,1.5l0.1,0c0.1,0.1,0.2,0.2,0.3,0.2c0,0-0.2-0.1-0.5-0.2C0.9,1.4,0.8,1.3,0.7,1.3C0.6,1.2,0.6,1.2,0.6,1.2
		c0,0,0.1,0,0.2,0.1C0.8,1.3,1,1.4,1.2,1.5c0.3,0.2,0.7,0.3,0.7,0.3l0,0c0.2,0,0.3,0,0.5,0.1l0,0c-0.1,0-0.1,0-0.3,0
		C2.4,1.9,2.4,2,2.6,2c0,0-0.1-0.1,0.1,0C2.7,2,2.5,2,2.7,2c0.2,0.1,0.2,0,0.4,0L3,2c0.1,0,0.2,0,0.3,0.1c-0.1,0-0.3,0-0.3,0
		c0.1,0,0.3,0.1,0.3,0.1l0,0c0.1,0,0.1,0,0.2,0c0.1,0,0,0,0-0.1c0,0,0.2,0.1,0.3,0c0-0.1-0.2,0-0.3-0.1c0,0,0,0,0.1,0
		c0,0,0.1,0,0.1,0c0.1,0-0.3,0-0.2-0.1c0.1,0,0.3,0.1,0.4,0C3.6,2.1,3.4,2.1,3.4,2c0.1,0,0.1,0,0.3,0l0.1,0c0.1,0,0,0,0,0
		c0.2,0.1,0.6,0,0.9,0.1c0.2,0,0,0,0.1,0c0.1,0,0.3,0,0.4,0c0,0,0.1,0,0.1,0c0,0-0.1,0-0.1,0c-0.1,0-0.1,0-0.1,0c0,0,0,0-0.1,0
		c0.1,0.1-0.3-0.1-0.4,0l0,0c0,0-0.1,0-0.2,0C4.2,2,4.1,2,4.1,2l0,0c0,0-0.3,0-0.4,0C3.8,2,4,2,3.9,2C4,2,4.2,2,4.5,2l0,0
		C4.7,2,5,2,5.3,2l-0.1,0c0.1,0,0.2,0,0.3,0c-0.1,0-0.1,0,0,0c0.2,0,0.4,0,0.6,0c0,0,0,0,0,0l0.2,0c0.1,0,0.1,0,0.2,0
		c0,0,0.1,0,0.1,0c0,0,0,0-0.1,0c0.1-0.1,0.1,0,0.2,0c-0.1,0,0,0,0,0.1c0.2,0,0-0.1,0-0.1c0.2,0,0.2,0,0.4,0c0,0-0.1,0-0.2,0
		c0.1,0,0.1,0,0.1,0l-0.1,0c0.2,0,0.4-0.1,0.6-0.1l0,0c0,0,0,0,0.1,0c0,0,0.1,0,0.1,0l0,0c0,0,0.1,0,0.1,0c0,0,0,0,0,0c0,0,0,0,0,0
		c0,0,0,0,0,0l0,0l0,0l0,0l0,0l0.1,0l0,0l0,0L8,1.6l0,0l0,0l0,0c0,0,0,0,0.1,0c0,0,0.1,0,0.1,0c0,0,0,0,0.1,0c0,0,0,0,0,0
		c0,0,0,0,0,0c0,0,0.1,0,0.1,0c0.1,0,0.1,0,0.2,0c0,0-0.1,0-0.2,0c0,0-0.1,0-0.1,0c0,0,0,0,0,0c0,0,0,0,0,0c0,0,0,0,0,0
		c0,0,0.1,0,0.1,0c0,0,0,0,0.1,0c0,0,0.1,0,0.1,0c0,0,0,0-0.1,0c0.2,0,0.4,0.1,0.5,0.1c0,0,0,0-0.1,0c0,0-0.1,0-0.1,0
		C8.9,1.8,9,1.9,9,1.9l-0.1,0c0.2,0,0.4,0,0.5,0.1c0,0-0.2,0-0.2,0l0.1,0C9.5,2,9.3,1.9,9.6,2l0,0C9.7,2,10,2,9.9,2L9.8,2l0,0
		c0,0,0.1,0,0.2,0c0.1,0,0.2,0,0.2,0c0,0,0.1,0,0.1,0l0.1,0c0.1,0-0.2,0-0.2,0.1c0,0,0.1,0,0.1,0C10,2.2,10,2.1,9.8,2.1l-0.1,0l0,0
		c-0.1,0-0.1,0-0.1,0C9.5,2,9.3,2.1,9.1,2C9.3,2,9,1.9,9,1.9c-0.1,0-0.3,0-0.4-0.1c-0.1,0,0.1,0,0,0c-0.1,0-0.1,0-0.1,0
		c-0.1,0-0.1,0-0.2,0c0,0-0.1,0-0.1,0c0,0-0.1,0-0.1,0c-0.1,0-0.1,0-0.2,0c0,0-0.1,0-0.1,0l0,0c-0.1,0-0.3,0.1-0.3,0.1c0,0,0,0,0,0
		C7.4,1.9,7.3,2,7.1,2c0,0,0.1,0,0.2,0l0,0C7.5,2,7.8,1.9,8,1.8L7.9,1.9C8,1.9,8,1.8,8.1,1.8c0,0,0,0,0,0c0.1,0,0,0,0,0
		c0,0-0.1,0,0,0c0.1,0,0,0.1,0.1,0.1c-0.1,0-0.1,0-0.2,0c0,0,0,0-0.1,0c0,0-0.1,0-0.1,0C7.9,2,7.8,2,7.8,2C7.6,2,7.5,2.1,7.4,2.1
		C7.1,2.1,6.9,2.2,6.6,2.2c0,0,0,0,0,0c-0.1,0-0.5,0.1-1,0.1c-0.4,0-0.8,0-0.9,0c0,0,0.1,0-0.1,0c0,0,0,0,0,0
		c-0.3-0.1-0.7,0-1.1-0.1c0,0-0.1,0-0.1,0c-0.1-0.1-0.3,0-0.5-0.1l0,0c0,0-0.1,0-0.2,0c-0.1,0-0.2,0-0.2,0c0,0,0,0,0.1,0
		c-0.1,0-0.1,0-0.1,0c0,0,0,0-0.1,0c0,0-0.1,0-0.1,0C2.4,2.1,2.2,2,1.9,1.9C1.6,1.8,1.4,1.8,1.1,1.6c-0.1,0-0.2,0-0.3-0.1
		c0,0,0,0,0,0c0,0,0,0,0,0c-0.1-0.1,0,0-0.1-0.1c-0.1,0,0,0,0.1,0.1c0.1,0,0,0,0,0C0.6,1.4,0.4,1.2,0.3,1.1C0.2,1,0.2,0.8,0.1,0.7
		C0.1,0.6,0.1,0.5,0.1,0.4z"/>
	<path class="st1" d="M16.1,1C16,1,16.1,1,16.1,1c0-0.1,0.1-0.2,0-0.1C16,1,15.9,1.1,15.8,1.2c-0.1,0.1-0.2,0.2-0.3,0.3
		c-0.2,0.2-0.5,0.3-0.7,0.4c-0.1,0-0.1,0-0.3,0.1c0,0,0,0,0,0c-0.1,0-0.3,0.1-0.4,0.1c0,0,0,0,0,0c-0.2,0.1-0.3,0-0.4,0.1
		c0.1,0-0.1,0,0,0c-0.2,0-0.2,0-0.3,0c0,0,0,0,0,0c-0.2,0-0.5,0.1-0.5,0.1l-0.1,0c-0.1,0-0.1,0-0.2,0c-0.1,0,0,0,0,0
		c0,0-0.2,0-0.3,0c0,0,0.2,0,0.3,0c0,0,0,0,0,0c0.5-0.1,0.9,0,1.3-0.1C14,2.1,14,2,14.1,2c0,0-0.1,0-0.2,0c-0.1,0-0.1,0-0.1,0.1
		c0,0,0,0-0.1,0c0,0-0.1,0-0.1,0c0,0-0.1,0-0.1,0c0.1,0,0.2-0.1,0.1-0.1c0.2-0.1,0,0.1,0.2,0.1l0,0c0,0,0.1,0,0.2,0l0,0
		c0.3-0.1,0.6-0.2,0.9-0.3c0.3-0.1,0.6-0.3,0.8-0.6c0.1,0,0.2-0.1,0.2-0.2c0-0.1,0-0.1,0.1-0.2c0,0,0-0.1,0.1-0.1c0-0.1-0.1,0.1,0,0
		c0-0.1,0-0.1,0-0.1c0,0,0,0,0-0.1c0,0,0.1,0,0.1,0.1C16.2,0.6,16.2,0.8,16.1,1z"/>
</g>
</svg>
