<?xml version="1.0" encoding="utf-8"?>
<!-- Generator: Adobe Illustrator 22.1.0, SVG Export Plug-In . SVG Version: 6.00 Build 0)  -->
<svg version="1.1" id="Layer_1" xmlns="http://www.w3.org/2000/svg" xmlns:xlink="http://www.w3.org/1999/xlink" x="0px" y="0px"
	 viewBox="0 0 500 500" style="enable-background:new 0 0 500 500;" xml:space="preserve">
<style type="text/css">
	.st0{fill:#231F20;}
</style>
<g>
	<g>
		<g>
			<path class="st0" d="M362.1,297.7l1.4-1.1C362.8,297,362.4,297.3,362.1,297.7z"/>
			<path class="st0" d="M349.5,416.6l0.5,0.1C349.5,416.6,349.4,416.6,349.5,416.6z"/>
			<path class="st0" d="M295.2,402.4l-1.3-0.8C294.5,402,294.9,402.2,295.2,402.4z"/>
			<g>
				<path class="st0" d="M389,452.2l8.3,3.8l1.4,0.6c0.7,0.3,1.4,0.7,2.1,1l4.3,2.1l8.6,4.2c1.4,0.7,3,1.6,4.1,1.7
					c1.2,0.3,2,0.3,2.8,0.4c0.7,0,1.4,0,1.9-0.2c0.6-0.1,1-0.3,1.6-0.4l8.1-2.2l-3.2-9.6c-1.2-3.3-2.9-7-4.9-10.7
					c-1-1.9-2.1-3.8-3.2-5.7l-2.7-4.7l-1.6-2.7c-0.5-0.9-1-1.7-1.5-2.8c-4.1-7.8-8.2-15.6-12.2-23.4c-4.1-7.8-8.2-15.5-12.3-23.3
					c-4.1-7.8-8.3-15.4-12.1-23c-5.2-10.5-9.9-21.2-12.7-32.3c-0.3-1.4-0.7-2.8-1-4.2l-0.4-2.1l-0.4-2.1c-0.1-0.7-0.3-1.4-0.4-2.1
					l-0.1-0.8c0-0.1,0-0.2,0-0.3c0-0.4,0.1-0.8,0.3-1.1c0.4-0.7,3.5-3.1,5.6-5l3.5-3l3.4-3c18.4-16.1,35.6-33.4,52.7-51.1
					c14-14.5,27.7-29.1,41.5-43.4c0.1-0.1,0.5-0.4,0.8-0.7l1.1-0.9l2.2-1.9c0.8-0.7,1.5-1.4,2.3-2.1c0.4-0.4,0.8-0.8,1.3-1.4
					c0.1-0.2,0.2-0.3,0.4-0.5l0.2-0.3l0.3-0.5c0-0.1,0.1-0.2,0.2-0.3c0.1-0.1,0.1-0.3,0.2-0.4l0.1-0.2c0-0.1,0.1-0.3,0.1-0.4
					c0.1-0.3,0.1-0.6,0.1-0.9c0-0.5,0-1.2-0.2-1.7c-0.1-0.5-0.5-1.3-1.1-1.8c-0.3-0.3-0.6-0.5-0.9-0.7c-0.2-0.1-0.4-0.2-0.6-0.3
					c-0.4-0.2-0.8-0.3-1.3-0.4l-0.4-0.1l-0.5,0c-27.8,0.2-55.6,0.5-83.5,0.9c-13,0.2-25.8,0-38.7-0.2c-6.4-0.1-12.9-0.2-19.3-0.3
					l-9.7,0l-1.8,0c-0.4,0-0.9,0-1.3,0c-0.4,0-0.8-0.3-1-0.7c-0.2-0.4-0.4-0.8-0.6-1.1c-2.8-5.6-5.5-11.2-8.3-16.7
					c-2.8-5.8-5.7-11.5-8.5-17.3c-5.7-11.6-11.4-23.2-17.2-34.9c-3.6-7.3-7.3-14.6-11.1-21.9L268,88.2c-1-1.9-1.8-3.5-2.7-5.3
					c-0.8-1.8-1.6-3.6-2.4-5.5L258.4,66c-0.8-1.9-1.6-3.8-2.5-5.7c-0.5-1-0.9-1.9-1.4-2.9l-1.4-2.7l-3.5-7l-2-3.8
					c-0.7-1.3-1.3-2.5-2-3.4c-0.4-0.5-0.7-0.9-1-1.2l-0.5-0.5c-0.2-0.2-0.3-0.3-0.5-0.4c-0.7-0.5-1.2-1.1-1.9-1.6
					c0,0-0.1-0.1-0.2-0.1c0,0.2,0-0.3,0-0.2l0,0l0,0l0,0.1l-0.2,0.2l-0.4,0.4l-0.9,0.9c-0.3,0.3-0.6,0.6-1,0.9
					c-0.3,0.3-0.7,0.5-1.1,0.8c-1.3,2.9-2.6,5.8-3.9,8.5l-3.5,7.3l-2.8,6l-1.4,3c-0.5,1.1-0.9,2.1-1.3,3.2
					c-1.6,4.2-2.9,8.4-4.3,12.6c-1.4,4.1-2.7,8.2-4.5,12c-5.6,12.2-11.3,24.2-16.9,36.4c-2.7,6-15.4,36.6-17.6,42.7
					c-1,2.8,7.7-14.6,10.1-19.5c7.9-15.9,19.9-40.3,26-52.9c0.6-1.3,1.2-2.6,1.8-3.8c0.6-1.2,1.2-2.5,1.7-3.7
					c1.1-2.5,1.9-4.8,2.8-7.1c1.6-4.6,3.1-8.8,4.6-13c0.8-2.1,1.6-4,2.6-6c0.9-2,1.9-4,3-6.1c1.7-3.4,3.5-7.1,5.5-11.1
					c0.5-0.9,1.1-2.1,1.7-3.6l0.1-0.3c0,0,0,0,0-0.1c0,0,0,0,0.1,0c0,0,0.1,0.1,0.1,0.1c0.1,0.2,0.2,0.4,0.3,0.6
					c0.2,0.4,0.4,0.8,0.6,1.2c0.4,0.8,0.8,1.7,1.3,2.5c1.3,2.6,2.5,5.2,3.8,7.8c0.8,1.7,1.7,3.4,2.4,5c0.8,1.6,1.5,3.3,2.2,5
					c2.8,6.8,5.1,13.9,8.4,20.8c3.3,6.7,6.7,13.3,10,19.9c3.3,6.6,6.5,13.3,9.8,19.9c6.4,13.3,12.8,26.6,19.1,39.9
					c3.2,6.7,6.3,13.4,9.5,20l2.4,5l0.8,1.7c0.3,0.6,0.6,1.2,0.9,1.8c0.7,1.1,1.4,2.2,2.7,2.9c1.2,0.6,2.5,0.8,3.8,0.8l3.7,0.1
					l5.5,0.1c11.9,0.4,23.9,0.8,36,1.2c6.1,0.2,12.2,0.3,18.3,0.3c6.2,0.1,12.3,0,18.4,0c24.5-0.1,49.1-0.3,73.2-0.2l-0.1-4.5
					c0-0.1,0-0.2,0.1-0.3c0,0,0-0.1,0,0c0,0-0.1,0-0.1,0c0,0-0.1,0-0.1,0c-0.1,0-0.2-0.1-0.4-0.1c-0.4-0.1-0.7-0.3-1.2-0.6
					c-0.2-0.1-0.5-0.3-0.7-0.4c-0.2-0.2-0.6-0.4-0.8-0.5l-0.5-0.4l-0.3-0.2c-0.1-0.1,0,0,0,0l0,0l-0.1,0.1l-0.3,0.3
					c-0.2,0.2-0.5,0.5-0.8,0.7c-0.6,0.5-1.2,1.1-1.8,1.6l-2,1.7l-1,0.9c-0.3,0.3-0.7,0.6-1.3,1.2c-34.8,35-67.8,70.9-106.2,101.3
					c-0.8,0.6-1.6,1.4-2.5,2.3c-1,1.1-1.9,2.4-2.6,3.8c-0.7,1.4-1.1,2.9-1.2,4.4c-0.1,0.8-0.1,1.5-0.1,2.3c0,0.4,0,0.7,0.1,1
					l0.1,0.8c0.1,1,0.3,1.8,0.4,2.7c0.1,0.9,0.3,1.8,0.4,2.7c0.3,1.8,0.6,3.5,1.1,5.3c0.8,3.5,1.7,6.9,2.8,10.4
					c1.1,3.4,2.2,6.8,3.5,10c2.5,6.6,5.4,13,8.4,19.2c3,6.2,6.2,12.3,9.2,18.4c6.1,12.1,12.3,24.2,18.4,36.4l4.6,9.1l2.3,4.5
					c0.8,1.6,1.7,3.2,2.6,4.7l1.3,2.4c0.2,0.3,0.4,0.7,0.5,1l0.1,0.3c0,0,0.1,0.1,0,0.1c-0.1,0-0.1,0-0.2,0c-0.4-0.1-0.7-0.3-1-0.5
					l-1.2-0.5c-6.3-2.8-12.6-5.7-18.8-8.6c-12.5-5.8-24.9-11.8-37.2-18.1c-24.5-12.6-48.3-26.3-71.1-41.8
					c-6.7-4.5-13.6-9.1-20.7-13.4c-1.8-1.1-3.6-2.1-5.4-3.2c-0.9-0.5-1.8-1-2.7-1.5l-1.4-0.8l-0.5-0.3l-0.6-0.3
					c-0.4-0.2-0.8-0.4-1.3-0.6c-1.7-0.7-3.6-1-5.4-0.9c-1.8,0.1-3.6,0.7-5.3,1.5c-0.4,0.2-0.8,0.4-1.2,0.7l-0.8,0.5l-1.3,0.8
					l-2.6,1.6c-13.9,8.4-27.7,16.8-41.6,25.2c-18.7,11.3-37.4,22.7-56.1,34l-14,8.5c-4.7,2.8-9.3,5.7-14,8.5L88,442.6l-0.5,0.3
					l-0.2,0.2l-0.4,0.3c-0.3,0.2-0.6,0.4-0.9,0.6c-0.1,0.1-0.3,0.2-0.4,0.2c-0.1,0-0.2,0.1-0.2,0.1l-0.1,0c0,0,0-0.1,0-0.1
					c0.1-0.3,0.2-0.6,0.3-0.9l0.6-1.9l4.6-13.5l2.3-6.8l1.2-3.4c0.4-1.1,0.7-2.1,1.2-3.2c3.2-8.6,7-17.3,10.8-26.1
					c1.9-4.4,3.8-8.8,5.6-13.3c0.9-2.2,1.8-4.5,2.7-6.8c0.4-1.1,0.9-2.3,1.3-3.5l1.2-3.4c2.7-7.8,5.3-15.5,8-23.2
					c1.3-3.7,2.7-7.4,4.2-11.3c0.7-1.9,1.4-3.9,2.1-5.9c0.3-1,0.7-2,1-3.1l0.5-1.6l0.1-0.4l0.2-0.6l0.4-1.3c0.3-0.8,0.4-1.8,0.6-2.7
					c0.1-0.5,0.2-0.9,0.3-1.4c0-0.4,0-0.9,0-1.3c-0.2-1.8-0.9-3.4-2.1-4.9l-5.2-5.8l-8.1-9.1c-5.4-6.1-10.7-12.1-16.1-18.2
					c-10.7-12.1-21.5-24.3-32.3-36.4c-5.4-6.1-10.8-12.1-16.3-18.2c-3.7-4.2-7.5-8.3-11.3-12.5c0,0-0.1-0.1,0-0.1
					c9-0.3,18.9-0.7,29-1.1c11-0.4,22.4-0.9,33.6-1.4c22.3-1.1,43.9-2.5,60.3-4.5c8-1,10.4-2.3,10.4-3.5c0,1.9-43.4-0.8-46.5-0.9
					c-19-0.6-40-0.4-60.1-0.6c-9.5-0.1-18.7-0.2-27.9-0.3c-1.8,0-3.5,0-5.3,0l-5.5-0.2c-3.8-0.2-6.3,0.6-8,1.4
					c-0.9,0.4-1.7,0.7-2.3,1.3c0,0-0.1,0.1-0.1,0.2c0,0.1,0,0.1,0,0.1l0.2,0.4l0.4,0.8l0.7,1.6c1,2.1,1.9,4.2,2.8,6.3
					c2.2,2.7,4.5,5.4,6.7,8.1c1.9,2.3,3.8,4.6,5.7,6.9c3.1,3.7,6.3,7.5,9.5,11.3c6.5,7.6,13.1,15.3,20.2,23.3
					c13.8,15.6,27.6,31.2,41.4,46.7l10.4,11.6l0.1,0.2l0,0l0,0c0,0,0.1,0.1,0.1,0.1c0,0.1,0,0.1,0,0.3l-0.2,0.8l-0.5,1.7
					c-0.4,1.2-0.8,2.3-1.2,3.5c-1.6,4.7-3.6,9.5-5.3,14.6l-5,14.8l-2.5,7.4l-1.3,3.7l-1.2,3.5c-1.7,4.7-3.6,9.4-5.6,14.1
					c-4,9.5-8.3,19-12.2,28.9c-1,2.5-1.9,5-2.8,7.6l-1.3,3.8l-1.3,3.7c-1.7,4.9-3.4,9.9-5,14.8L69,446.1l-1.2,3.6
					c-0.5,1.2-1,2.5-1.5,3.8c-0.5,1.3-1,2.5-1.3,3.7c-0.3,1.1-0.3,2.1-0.3,2.9c0.1,1.7,0.4,2.7,0.8,3.4c0.3,0.8,0.7,1.4,1.2,1.9
					c0.1,0.1,0.2,0.3,0.4,0.4c0.1,0.1,0.2,0.2,0.3,0.3c0.2,0.1,0.3,0.2,0.4,0.3c0.3,0.2,0.5,0.3,0.8,0.5c0.3,0.1,0.5,0.3,0.7,0.3
					c0.5,0.2,1,0.3,1.5,0.5c0.6,0,1.1,0.1,1.7,0.1l2.2-0.3c0.4-0.1,0.8-0.2,1.3-0.3l0.6-0.2l0.7-0.3c1.9-0.6,4.1-1.9,6.4-3.4
					c1.8-1.2,3.6-2.5,5.5-3.8l2.8-2c0.9-0.7,1.8-1.3,2.9-1.9l6-3.5l11.9-7l23.5-14.3l47-28.7l47-28.7l5.9-3.6l2.9-1.7
					c0.3-0.1,0.2-0.1,0.2-0.1c0,0,0,0,0.1,0c0,0,0.1,0,0.1,0c0.1,0,0.2,0,0.2,0c0,0,0,0,0.1,0.1l1.4,0.8c1.9,1,3.9,2.2,5.8,3.3
					c7.7,4.5,15.2,9.6,22.8,14.7c18.3,12.4,37.8,24.2,57.7,35.1C347.7,432.5,368.2,442.6,389,452.2z"/>
			</g>
		</g>
	</g>
</g>
</svg>
