<?xml version="1.0" encoding="utf-8"?>
<!-- Generator: Adobe Illustrator 22.1.0, SVG Export Plug-In . SVG Version: 6.00 Build 0)  -->
<svg version="1.1" id="Layer_1" xmlns="http://www.w3.org/2000/svg" xmlns:xlink="http://www.w3.org/1999/xlink" x="0px" y="0px"
	 viewBox="0 0 500 500" style="enable-background:new 0 0 500 500;" xml:space="preserve">
<style type="text/css">
	.st0{fill:#231F20;}
</style>
<g>
	<g>
		<g>
			<g>
				<path class="st0" d="M313.3,248.9l1.6-1.4C314.2,248,313.7,248.4,313.3,248.9z"/>
				<path class="st0" d="M319.6,326.7l0.5-0.2C319.8,326.5,319.7,326.6,319.6,326.7z"/>
				<path class="st0" d="M269.9,339.2l-1-0.5C269.4,339,269.7,339.1,269.9,339.2z"/>
				<g>
					<path class="st0" d="M335,375.1l6.1,2.8c1.9,0.9,3.8,1.7,5.7,2.6c0,0,0,0,0,0c0.5,0.3,1.3,0.8,2.4,1.4c1.2,0.6,2.5,1.4,5,2.4
						c1.4,0.5,2.9,1,5.5,1.4c0.7,0.1,1.3,0.1,2,0.2c0.9,0,1.8,0,2.7-0.1c0.5,0,0.9-0.1,1.4-0.1c0.5-0.1,1.1-0.2,1.7-0.3
						c1.2-0.3,2.3-0.6,3.4-1l17.5-6.8l-5.8-17.9c-1.7-5.2-3.8-9-5.6-12.3c-1.8-3.2-3.5-5.9-4.7-7.9c-3-5.4-5.9-10.7-8.9-16.1
						c-3-5.4-6.1-10.9-9.2-16.3l-2.3-4l-2.3-4c-1.5-2.6-3-5.1-4.4-7.6c-1.9-3.3-3.6-6.5-5.1-9.7c-0.8-1.6-1.5-3.2-2.1-4.8l-0.9-2.4
						l-0.2-0.6c0-0.1-0.1-0.1-0.1-0.1c-0.1-0.1-0.1-0.2-0.2-0.3c-0.3-0.4-0.5-0.9-0.7-1.4c-0.2-0.5-0.5-1.1-0.3-1.6
						c0.2-0.5,0.5-0.9,0.9-1.4l0.5-0.7l0.1-0.1c0,0,0,0,0,0c0,0-0.1,0-0.1,0l0,0l0.1-0.1l0.6-0.6l1.2-1.1
						c12.5-12,23.9-24.5,35.6-36.8c5.7-6,11.3-11.9,16.9-17.9c2.8-2.9,5.6-5.9,8.4-8.8l2.1-2.2c0.9-0.9,0.5-0.6,1.4-1.4
						c0.8-0.7,1.6-1.4,2.6-2.3c0.5-0.5,1-0.9,1.7-1.6c0.4-0.4,0.7-0.8,1.4-1.7l0.3-0.4l0.1-0.2l0.2-0.3c0.1-0.2,0.3-0.4,0.4-0.7
						c0.2-0.3,0.4-0.8,0.6-1.3l0.1-0.3l0.2-0.5c0.2-0.5,0.3-1,0.4-1.5c0-0.3,0.1-0.5,0.1-0.8l0-0.4l0-0.5c0-1.1-0.1-2.3-0.4-3.4
						c-0.1-0.6-0.3-1.1-0.5-1.6c-0.2-0.5-0.6-1.2-1-1.8c-0.8-1.2-1.9-2.3-3-3.1c-0.3-0.2-0.5-0.3-0.6-0.4l-0.5-0.3
						c-0.4-0.2-0.7-0.4-1.1-0.5c-0.8-0.3-1.6-0.6-2.4-0.7l-1.1-0.2l-1.1,0c-19,0.2-38.1,0.6-57.2,1.4c-8.7,0.4-17.5,0.4-26.3,0.4
						c-4.2,0-8.4,0-12.6-0.1l-3.5,0c-0.6,0-1.2,0-1.8,0c-0.3,0-0.6-0.2-0.7-0.4c-0.2-0.2-0.3-0.5-0.4-0.8c-1.3-2.6-2.5-5.1-3.8-7.7
						c-1.9-4-3.9-7.9-5.8-11.9c-3.9-8-7.7-15.9-11.6-24c-1.4-2.9-2.9-5.8-4.4-8.7l-2.2-4.3l-2.6-4.8l-1.7-3.2l-1.6-3.3l-1.6-3.3
						l-1.5-3.3c-1-2.2-2-4.3-3-6.3l-2.9-5.9c-0.9-1.9-1.9-3.8-2.9-5.3c-0.5-0.8-1-1.5-1.6-2.2l-0.8-0.8l-0.9-0.7
						c-2.3-1.7-4.2-3.5-5.9-5.2l-1.3-1.3c-0.5-0.4-0.8-0.9-1.4-1.3l0,0c0,0.2,0-1.6,0-0.9l0,0l0,0l-0.1,0.1l-0.1,0.2l-0.3,0.3
						l-0.6,0.7l-1.3,1.4c-0.5,0.5-0.9,1-1.4,1.6c-0.2,0.3-0.5,0.5-0.7,0.7c-0.2,0.2-0.5,0.4-0.8,0.6c-1,0.8-2.2,1.5-3.3,2.3
						c-1.2,2.7-2.5,5.4-3.6,8.1l-3.2,7.6c-1.1,2.5-2.1,5.1-3.2,7.8c-1.1,2.7-2.1,5.6-3.3,8.5c-0.6,1.5-1.3,3-2,4.5l-1,2.1l-0.8,1.5
						l-3.1,6.1c-2.1,4.1-4.1,8.2-6.2,12.2c-2,4-9.2,25.6-10.1,30.1c-0.4,2,7.2-9.2,9.2-12.3c3.4-5.1,7.6-11.7,11.5-18
						c1.9-3.2,3.8-6.3,5.6-9.1c0.8-1.4,1.7-2.8,2.4-4c0.7-1.2,1.4-2.3,1.9-3.4c1.3-2.3,2.5-4.2,3.4-6.1c0.9-1.9,1.6-3.6,2.3-5.2
						c0.7-1.6,1.4-3.1,2.1-4.6c0.7-1.5,1.6-2.8,2.4-4.3c0.9-1.5,1.9-3.2,3-5c0.5-0.9,1.1-1.9,1.6-3l0.2-0.4c0-0.1,0.1-0.1,0.1-0.2
						c0.1,0.1,0.1,0.1,0.2,0.2c0.2,0.3,0.3,0.7,0.5,1c0.3,0.7,0.6,1.4,1,2.1c0.8,1.8,1.6,3.7,2.5,5.5c0.8,1.8,1.6,3.6,2.3,5.4
						c1.4,3.6,2.5,7.2,3.9,10.5c1.7,3.7,3.5,7.4,5.2,11.2c2.1,4.6,4.2,9.2,6.3,13.8c4.2,9.2,8.2,18.4,12.2,27.8l3,7l0.7,1.8l0.4,1
						l0.6,1.3l2.3,5.1l0.6,1.3c0.2,0.4,0.5,0.8,0.7,1.1l1.4,2.2l1.4,2.3c0.2,0.4,0.5,0.7,0.8,1c0.3,0.3,0.6,0.6,1,0.8
						c0.8,0.5,1.5,0.7,2.4,0.9l2.5,0.6c0.8,0.3,1.7,0.3,2.7,0.4l2.8,0.3c1.5,0.1,3.1,0.2,4.6,0.3l2.2,0.1l1.5,0.1
						c2,0.2,4.1,0.3,6.1,0.5c4.1,0.3,8.2,0.5,12.4,0.7c4.2,0.2,8.4,0.3,12.7,0.4c2.1,0,4.3,0,6.4,0.1l6.3,0
						c16.8,0,33.6-0.2,50.1,0.3l-0.1-12.3c0-0.1,0-0.1,0.1-0.2c0,0,0,0,0,0c0,0-0.2,0-0.4-0.1c-0.3-0.1-0.5-0.2-0.8-0.4
						c-0.3-0.2-0.6-0.4-1-0.7c-1.8-1.3-4.3-3.4-7.1-6.1L390,179l0,0l0,0c0,0,0,0,0,0l-0.1,0.1l-0.9,0.7l-1.2,0.9l-0.7,0.5l-1,0.9
						l-5.4,5.2l-9.8,9.4c-6.5,6.2-13,12.4-19.5,18.4c-6.5,6-13,12-19.5,17.7l-4.9,4.3l-4.9,4.2l-5.5,4.6l-4.6,4l-2.3,2l-1.1,1
						c-0.3,0.4-0.6,0.7-0.9,1.1c-1.2,1.6-2.3,3.2-3,5.2c-0.8,1.9-1.2,3.9-1.4,5.9c-0.1,1,0,2,0,3.1c0,1,0,2,0.2,3.1l0.5,3.1
						c0.1,1.1,0.4,2.1,0.6,3.1c0.2,1,0.4,2.1,0.7,3.1l0.7,2.7c0.4,1.4,0.8,2.7,1.2,4c0.8,2.7,1.7,5.3,2.7,7.8
						c1.9,5.1,4,9.8,6.2,14.4c1.1,2.3,2.2,4.5,3.2,6.7l3.1,6.4c4.1,8.6,8.3,17.1,12.5,25.7l3.2,6.4l0.4,0.8l0.5,0.9l1,1.9l1.9,3.4
						c1.2,2.1,2.3,3.9,3.1,5.5c0.4,0.8,0.7,1.5,1,2.1c0.3,0.6,0.5,1.1,0.6,1.5l16.5-6.8c-0.1-0.2-0.1-0.3-0.1-0.7c0-0.2,0-0.3,0-0.6
						c0-0.3,0-0.5,0.1-0.8c0.1-0.9,0.5-2.1,1-3.6c0.3-0.6,0.6-1.6,1-2.4l1.4-3c0.3-0.6,0.5-1.1,0.8-1.7l0.4-0.8l0.6-1.2l0.2-0.5l0,0
						l0,0l0,0l-0.4-0.2l-1.8-1.1c-1.1-0.6-2.2-1.2-3.3-1.7l-12.2-5.3c-4-1.8-7.9-3.5-11.8-5.3c-7.8-3.6-15.6-7.3-23.2-11.2
						c-7.6-3.9-15.2-8-22.5-12.3c-3.7-2.1-7.3-4.3-10.9-6.6c-3.6-2.3-7.1-4.6-10.8-7l-7.1-4.7l-3.7-2.4l-2-1.2l-3.2-1.9
						c-1.1-0.6-2.2-1.3-3.3-1.9c-1.1-0.6-2.2-1.2-3.3-1.7l-1.7-0.8l-1.7-0.6c-1.1-0.4-2.3-0.7-3.4-0.9c-2.3-0.4-4.8-0.3-7.1,0.2
						c-2.2,0.5-4.5,1.3-6.7,2.5c-10.8,6.4-21.6,12.8-32.4,19.3c-11.4,6.8-22.8,13.6-34.2,20.5l-17,10.3c-2.8,1.7-5.7,3.4-8.5,5.1
						l-8.6,5.1c-0.7,0.4-1.4,0.9-2,1.3l-1.4,1l-2.1,1.5c-1.2,0.9-2.3,1.6-2.8,2c-0.1,0.1-0.1,0.1-0.1,0.1c0.1,0.1-0.4-0.5,0.7,1.4
						c0.7,1.2,1.3,2.4,1.8,3.7l0.4,0.9l0.4,0.7c0.2,0.5,0.4,1,0.6,1.5c0.2,0.5,0.4,1.1,0.5,1.5c0.2,0.4,0.3,0.8,0.4,1.2
						c0.1,0.4,0.2,0.8,0.3,1.3c0.1,0.4,0.2,0.6,0.2,0.9c0,0.2,0,0.3,0,0.5l0,0.2l0,0.1l0,0.1l0,0c0-0.5,0,4.1,0,2.2l0,0
						c0,0.1,0-0.1,0.3-0.1c0.1,0,0.1,0,0.2,0c0.1,0,0.2,0,0.2,0c0.2,0,0.3,0,0.5,0.1c1.6,0.2,4.1,0.9,7.5,2c2.8,0.9,9.9,3.5,7.9,2.7
						l0.1-0.3l0.4-1c0.3-0.8,0.7-1.7,1.3-3.4l5.4-16.1l2.7-8l0.6-1.8c0.2-0.6,0.4-1.2,0.6-1.7c0.4-1.2,0.9-2.4,1.4-3.6
						c2-4.9,4.2-10,6.5-15.3c1.1-2.7,2.3-5.4,3.4-8.2c0.6-1.4,1.1-2.9,1.7-4.4c0.5-1.5,1.1-3.2,1.6-4.4c1.2-3.3,2.3-6.7,3.5-10
						l1.8-5l0.8-2.3l0.9-2.3l1-2.6c0.6-1.5,1.2-3.1,1.7-4.6c0.6-1.6,1.1-3.1,1.5-4.7c0.2-0.8,0.5-1.6,0.7-2.3
						c0.2-0.8,0.4-1.6,0.5-2.3c0.2-1.5,0.4-3.1,0.3-4.5l0-1.1c0-0.3-0.1-0.7-0.1-1.1c-0.1-0.8-0.3-1.5-0.5-2.2
						c-0.8-2.7-2.3-5.5-4.5-8l-5.7-6.6l-1.2-1.4l-0.7-0.9l-1.5-1.8l-5.9-7l-11.9-14.1c-3.8-4.5-7.6-9-11.4-13.4
						c0-0.2,0.1-0.2,0.2-0.3c0.1,0,0.1,0,0.1,0c-0.1,0-0.3-0.1-0.4-0.3c-0.2-0.2-0.2-0.3,0-0.6c0.1-0.1,0.2-0.3,0.4-0.5l5.4-0.5
						c1.9-0.2,3.8-0.4,5.7-0.5c15.3-1.5,30-3.9,41.1-8c5.4-2,7-5.3,7-8.1c0.1,4.7-29.8-4.2-31.9-4.6c-6.5-1.2-13.4-2-20.4-2.7
						c-1.7-0.2-3.5-0.3-5.2-0.5l-2.7-0.2l-3.5-0.2c-4.9-0.3-9.8-0.6-14.6-0.9c-3.6-0.2-7.2-0.5-10.8-0.7c-4.2-0.5-6.3,0.1-9.2,0.4
						c-2.7,0.4-5.4,0.8-8.1,1.3l-2,0.4c-0.3,0.1-0.7,0.1-1,0.2l-0.8,0.2c-1,0.3-1.9,0.5-2.7,0.8c-0.4,0.1-0.8,0.3-1.2,0.5
						c-0.2,0.1-0.4,0.2-0.6,0.3c-0.1,0.1-0.2,0.1-0.3,0.2c0,0.1,0,0.2,0,0.3c0.1,0.8,0.1,1.6,0.1,2.5c0,1.6,0,3.3-0.1,5
						c0,0.8-0.1,1.7-0.2,2.5c0.8,1.3,1.6,2.6,2.3,4c1.6,2.8,3.3,5.5,4.9,8.3c0.7,1.2,1.5,2.5,2.2,3.7c0.2,0.3,0.3,0.6,0.6,1l0.8,1
						l1.6,1.9c2.2,2.6,4.3,5.3,6.5,8c2.3,2.7,4.6,5.5,6.9,8.3c0.6,0.7,1.2,1.4,1.8,2.1l0.4,0.5l0.2,0.3l0.5,0.6
						c0.6,0.8,1.3,1.6,1.9,2.3c5.4,6.5,10.8,12.9,16.2,19.2c2.7,3.2,5.5,6.3,8.2,9.5l4.1,4.7l0.5,0.6l0.1,0.1l0,0l0,0l0.1,0.1
						l0.1,0.2c0.1,0.1,0.2,0.2,0.2,0.4c-0.1,0.2-0.1,0.3-0.2,0.4l-0.1,0.2l0,0l0,0l0,0l-0.1,0.2l-0.6,1.6c-0.8,2.2-1.8,4.9-2.5,6.9
						l-4.5,13c-0.8,2.3-1.3,3.9-2.1,5.8c-0.7,1.9-1.5,3.8-2.4,5.8c-1.7,4-3.5,8.2-5.3,12.5c-1.8,4.3-3.7,8.8-5.5,13.8
						c-3,8.8-6,17.6-9,26.4l-0.3,0.9l-0.9,2.2c-0.2,0.5-0.4,1-0.7,2.1c-0.2,0.6-0.4,1.1-0.7,2.8l-0.1,0.8l-0.1,0.4l-0.1,0.6
						c0,0.5-0.1,1.1-0.1,1.6l0,0.5l0,0.8c0,0.5,0.1,1.1,0.2,1.6l0.1,0.8l0.2,0.8c0.1,0.3,0.1,0.6,0.2,0.9c0.3,1.2,0.8,2.4,1.3,3.5
						c0.1,0.3,0.3,0.5,0.4,0.8l0.4,0.7c0.2,0.3,0.3,0.5,0.5,0.8c0.7,1,1.5,2,2.4,2.8c0.9,0.9,1.9,1.7,2.9,2.3c1,0.7,2,1.2,3.2,1.7
						c2.3,1,4.9,1.5,7.2,1.5l0.3,0l0.5,0c1.2,0,2.6-0.2,3.7-0.4c0.8-0.2,1.6-0.4,2.3-0.6c0.9-0.3,1.2-0.4,1.8-0.6l0.8-0.3
						c0.2-0.1,0.5-0.2,0.7-0.3c1.6-0.7,2.8-1.4,3.8-2c0.5-0.3,1-0.6,1.4-0.9l1.2-0.8c1.6-1.1,2.9-2,4-2.9l1.4-1l0.4-0.3l7.9-4.7
						c2.6-1.6,5.3-3.1,7.9-4.7l15.7-9.6l31.3-19.2l29.3-18c0.2-0.1,0.3-0.3,0.6-0.3c0.2,0,0.4,0.2,0.6,0.3l1.3,0.8
						c1.2,0.7,2.4,1.5,3.6,2.3c2.4,1.6,4.9,3.3,7.4,5c3.1,2.1,6.4,4.3,9.7,6.5c3.3,2.1,6.7,4.3,10,6.4c6.8,4.2,13.6,8.2,20.6,12.2
						C306.4,361.1,320.7,368.4,335,375.1z"/>
				</g>
			</g>
		</g>
	</g>
	<g>
		<g>
			<g>
				<path class="st0" d="M209.1,456.4l-1.4-0.1C208.3,456.4,208.7,456.5,209.1,456.4z"/>
				<path class="st0" d="M407.2,414.5l-0.1,0.6C407.4,414.7,407.3,414.6,407.2,414.5z"/>
				<path class="st0" d="M405.2,361l0.4-0.9C405.4,360.5,405.3,360.8,405.2,361z"/>
				<g>
					<path class="st0" d="M355.4,404.5c-7.1,3.1-14.7,5.7-22.4,8c-3.9,1-7.8,2.2-11.9,3l-6,1.4L309,418c-16.4,3.1-33.3,5-50.4,6.3
						c-17.7,1.3-35.4,2.2-52.9,1.5c-2.2,0-4.4-0.2-6.6-0.4l-6.6-0.5l-6.5-0.7c-1.1-0.1-2.2-0.2-3.3-0.4l-3.2-0.5
						c-8.6-1.3-17.1-3.3-25.2-6.1c-8.6-2.9-16.8-6.7-24.3-11.3l-2.8-1.7l-2.7-1.9c-1.8-1.2-3.4-2.6-5.1-3.9
						c-0.9-0.6-1.6-1.4-2.4-2.1l-2.4-2.2l-5.1-5c-6.6-6.7-12.9-13.5-18.4-20.7c-5.5-7.2-10.1-14.7-14-22.9
						c-3.9-8.2-6.8-17.1-9.4-26.2c-1.3-4.5-2.4-9.2-3.5-13.8c-1-4.6-2-9.2-2.7-13.8c-3-18.5-4.1-37.4-2.8-56.3
						c1.3-18.2,3.9-36.1,9.7-53.1c0.3-1.1,0.7-2.1,1.1-3.2l1.2-3.2l1.2-3.2c0.2-0.5,0.4-1.1,0.6-1.6l0.7-1.5l2.8-6.2
						c0.2-0.5,0.5-1,0.7-1.5l0.8-1.5l1.6-3c2.1-4,4.6-7.8,7.1-11.6c1.3-1.9,2.7-3.7,4-5.5c0.7-0.9,1.3-1.8,2.1-2.7l2.2-2.6
						c6.3-7.4,13.2-14.1,20.5-20.4c0.9-0.8,2.6-2.4,4.7-4.5c1.1-1.1,2.3-2.1,3.5-3.3c0.6-0.6,1.2-1.2,1.9-1.8c0.7-0.6,1.3-1.2,2-1.8
						c0.7-0.6,1.3-1.2,2-1.8c0.7-0.6,1.3-1.1,2-1.7c1.3-1.1,2.5-2.2,3.7-3.1c2.3-1.9,4.1-3.3,4.9-4.1c0.4-0.4-0.1-0.3-1.2-0.1
						c-1.1,0.3-2.7,0.8-4.4,1.5c-0.9,0.4-1.8,0.7-2.7,1.1c-0.9,0.4-1.8,0.9-2.7,1.3c-1.7,0.8-3.2,1.6-4.1,2.1
						c-2.9,1.5-6.2,3.5-9.6,5.6c-1.7,1.1-3.3,2.2-5,3.4c-1.7,1.2-3.3,2.4-5,3.6c-0.8,0.6-1.6,1.2-2.4,1.8c-0.8,0.6-1.6,1.3-2.3,1.9
						c-1.5,1.3-3,2.5-4.4,3.7c-2.7,2.5-5.2,4.7-7,6.7c-1.9,2-3.6,3.9-5.2,5.6c-1.6,1.8-3,3.6-4.4,5.3c-0.7,0.8-1.4,1.7-2.1,2.5
						c-0.7,0.8-1.3,1.7-1.9,2.5c-1.2,1.7-2.4,3.3-3.6,4.9c-0.6,0.8-1.2,1.7-1.7,2.5c-0.5,0.9-1.1,1.7-1.7,2.6
						c-1.1,1.8-2.3,3.6-3.4,5.5c-1.1,2-2.2,4-3.3,6.2c-0.6,1.1-1.2,2.2-1.8,3.4c-0.5,1.2-1.1,2.5-1.7,3.7
						c-4.8,10.6-8.6,21.7-11.2,33.1c-2.6,11.3-4.2,22.8-5.2,34.2c-0.9,11.5-1.1,23-0.7,34.5c0.4,11.5,1.3,23,2.9,34.6
						c0.6,4.7,1.4,9.3,2.3,13.9c0.5,2.3,1,4.6,1.5,7c0.6,2.3,1.1,4.7,1.8,7c2.5,9.4,5.9,18.9,10.6,28.1c4.6,9.2,10.3,17.8,16.5,25.6
						c6.2,7.8,12.8,14.9,19.3,21.8l1.3,1.4c0.4,0.5,1,1,1.5,1.5l3,3c1,1,2.1,1.9,3.2,2.8c1.1,0.9,2.1,1.9,3.2,2.7l3.3,2.6
						c0.6,0.4,1.1,0.9,1.7,1.3l1.7,1.2l3.5,2.4c1.1,0.8,2.4,1.5,3.5,2.2c9.5,5.7,19.5,10.2,29.7,13.8l3.8,1.3
						c1.3,0.4,2.6,0.9,3.8,1.2l7.7,2.2c5.2,1.2,10.3,2.6,15.5,3.5c5.2,1.1,10.4,1.8,15.6,2.5c2.6,0.4,5.2,0.6,7.8,0.9l3.9,0.4l2,0.2
						l1.9,0.1c5.5,0.3,11.1,0.8,16.6,0.9l8.3,0.3l8.2,0.2c2.7,0,5.5,0.1,8.2,0.2l8.2,0l4.1,0l2.1,0l2.1-0.1l8.3-0.3l4.1-0.1l4.2-0.3
						l8.3-0.6c2.8-0.2,5.6-0.6,8.4-0.9c2.8-0.3,5.6-0.6,8.4-1l8.4-1.3c2.8-0.5,5.6-1.1,8.4-1.7c2.8-0.5,5.6-1.2,8.4-2
						c2.8-0.7,5.6-1.4,8.4-2.3c11-3.3,21.9-7.5,32.3-13.1c10.4-5.6,20.4-12.6,29.2-20.9c8.8-8.2,16.6-17.6,22.8-27.6
						c6.3-10,11.3-20.6,15.4-31.2c4.8-12.4,8.4-24.9,11.5-37.3c1.5-6.2,2.9-12.4,4.2-18.6c0.7-3.1,1.3-6.3,1.9-9.4
						c0.6-3.2,1.1-6.4,1.6-9.6c2.5-16.3,3.3-33.4,1.9-50.2c-0.7-8.4-1.9-16.8-3.6-25c-0.9-4.1-1.8-8.1-2.8-12.1c-0.5-2-1.1-4-1.6-6
						l-0.8-3c-0.3-1-0.7-2-1-3.1c-5.1-16.4-12.8-32-22.4-46.2c-1.2-1.8-2.5-3.5-3.7-5.2c-1.3-1.7-2.5-3.5-3.8-5.1l-4-5
						c-1.3-1.7-2.8-3.2-4.2-4.8c-2.8-3.2-5.8-6.2-8.7-9.2c-3-2.9-6.1-5.9-9.2-8.6c-5.7-5-11.6-9.8-17.6-14.3c-3-2.2-5.9-4.3-9-6.5
						c-3.1-2.1-6.2-4.2-9.4-6.2c-12.8-8.1-26.4-14.8-40.6-20.1c-14.3-5.2-29.2-8.9-44.5-10.7l-5.8-0.6l-2.9-0.3
						c-1-0.1-1.9-0.1-2.9-0.1l-5.8-0.2c-1.9,0-3.9-0.2-5.8,0c-3.9,0.1-7.7,0.3-11.6,0.5c-3.9,0.4-7.7,0.8-11.6,1.3
						c-16.3,2.4-35.3,7.3-52,15.5c-8.4,4-16.2,8.7-22.9,13.8c-6.8,5.1-12.4,10.6-16.7,16c-4.1,5.3-3.5,9.1-1.8,11.3
						c-1.5-1.8,6-6.2,14.2-9.3c2.1-0.8,4.2-1.5,6.2-2.1c2-0.6,4-1.1,5.6-1.6c3.4-0.9,5.9-1.4,6.5-1.6c1.7-0.6,3.5-1,5.2-1.6
						c0.9-0.3,1.8-0.5,2.6-0.8c0.9-0.3,1.8-0.5,2.7-0.8c1.8-0.5,3.6-1.1,5.4-1.6c1.8-0.5,3.6-1,5.4-1.4c7.3-1.8,14.6-3.5,21.9-4.2
						c14.1-1.6,27.4-1.2,40.5,0.4c13.1,1.6,26,4.4,39.6,8c14.3,3.9,28.1,9.4,41,16.5l4.8,2.7c1.6,0.9,3.2,1.9,4.7,2.8
						c3.1,2,6.2,3.9,9.3,6.1c6.4,4.4,12.2,8.8,17.8,13.6c5.6,4.8,10.9,9.9,15.9,15.2c2.4,2.7,4.9,5.4,7.1,8.3
						c2.3,2.8,4.4,5.8,6.5,8.7c8.2,11.9,14.6,24.8,18.8,38.5c0.5,1.4,0.9,3,1.4,4.5c0.4,1.6,0.9,3.1,1.3,4.7l1.2,4.7l1,4.7
						c1.3,6.2,2.4,12.4,3.1,18.6c1.3,12.4,1.4,24.9,0.1,37.6c-0.6,6.3-1.5,12.7-2.7,19.1c-0.5,3.2-1.3,6.5-1.9,9.8
						c-0.6,3.3-1.4,6.5-2.1,9.8c-3,13-6.6,25.5-11.2,37.2c-2.8,7-6,13.7-9.8,19.9c-3.7,6.3-8,12-12.9,17.2
						c-4.9,5.2-10.3,9.9-16.1,13.9C368.6,398,362.2,401.5,355.4,404.5z"/>
				</g>
			</g>
		</g>
	</g>
</g>
</svg>
