<?xml version="1.0" encoding="utf-8"?>
<!-- Generator: Adobe Illustrator 22.1.0, SVG Export Plug-In . SVG Version: 6.00 Build 0)  -->
<svg version="1.1" id="Layer_1" xmlns="http://www.w3.org/2000/svg" xmlns:xlink="http://www.w3.org/1999/xlink" x="0px" y="0px"
	 viewBox="0 0 500 500" style="enable-background:new 0 0 500 500;" xml:space="preserve">
<style type="text/css">
	.st0{fill:#231F20;}
</style>
<g>
	<g>
		<g>
			<path class="st0" d="M325.4,281l0.9-0.8C325.9,280.6,325.7,280.8,325.4,281z"/>
			<path class="st0" d="M319,362.2l0.4,0C319.1,362.1,319,362.1,319,362.2z"/>
			<path class="st0" d="M279.7,356.3l-0.9-0.5C279.2,356,279.5,356.2,279.7,356.3z"/>
			<g>
				<path class="st0" d="M344.1,390.7c4.1,1.9,8.3,3.8,12.3,5.6c-0.1-0.1,0.4,0.2,1,0.6c0.6,0.4,1.3,0.8,2.1,1.3
					c0.8,0.5,1.8,1,3.2,1.5c0.4,0.1,0.7,0.3,1.2,0.4l0.7,0.2c0.2,0.1,0.6,0.1,0.9,0.1c0.3,0,0.6,0.1,1,0.1c0.4,0,0.8,0,1.2,0
					l0.6-0.1c0.2,0,0.5-0.1,0.7-0.2c0.5-0.1,1-0.3,1.5-0.4l7-2.6l-2.3-7.2c-1.2-3.9-2.9-7.1-4.6-10c-1.6-2.9-3.3-5.6-4.7-8.1
					c-2.9-5.5-5.8-11-8.7-16.4c-2.9-5.5-5.9-11-8.8-16.5c-1.5-2.7-3-5.5-4.4-8.2c-1.5-2.7-2.9-5.3-4.3-8c-3.6-7.1-6.8-14.3-8.8-21.6
					c-0.2-0.9-0.5-1.8-0.7-2.8c-0.2-0.9-0.4-1.8-0.6-2.8l-0.1-0.3l0-0.1l-0.1-0.2c0-0.1-0.1-0.3-0.1-0.4c0-0.3,0-0.5,0.2-0.8
					c0.1-0.1,0.2-0.2,0.2-0.3l0.1-0.2l0.1-0.1l0,0l0.1-0.1l2.4-2c1.6-1.4,3.2-2.7,4.8-4.1c12.6-11.2,24.3-23.2,36-35.3
					c9.5-9.9,18.9-19.8,28.3-29.7l0.1-0.1l0.3-0.3l0.7-0.6l1.6-1.4c0.5-0.5,1.1-1,1.6-1.5c0.3-0.3,0.6-0.6,1-1.1
					c0.1-0.1,0.2-0.2,0.3-0.4l0.2-0.3l0.2-0.4c0,0,0.1-0.2,0.2-0.3c0.1-0.1,0.1-0.3,0.2-0.4l0.1-0.2c0-0.1,0.1-0.3,0.1-0.4
					c0.1-0.3,0.1-0.6,0.1-0.8c0,0,0-0.2,0-0.4c0-0.1,0-0.3,0-0.4c0-0.3-0.1-0.6-0.2-0.9c-0.1-0.3-0.2-0.5-0.4-0.9
					c-0.2-0.3-0.4-0.7-0.7-0.9c-0.3-0.3-0.6-0.5-0.9-0.7c-0.2-0.1-0.4-0.2-0.6-0.3c-0.4-0.2-0.8-0.3-1.2-0.4l-0.4-0.1l-0.4,0
					c-19.1,0.2-38.1,0.4-57.2,0.8c-8.8,0.2-17.7,0.1-26.5-0.1c-4.4-0.1-8.8-0.1-13.3-0.2l-6.3,0c-0.6,0-1.2,0-1.8,0
					c-0.3,0-0.6-0.2-0.7-0.4c-0.2-0.2-0.3-0.5-0.4-0.8c-1.8-3.6-3.6-7.2-5.4-10.8c-1.9-3.9-3.9-7.9-5.8-11.9
					c-3.9-7.9-7.8-15.9-11.7-23.9c-2.5-5.2-5.1-10.3-7.8-15.4l-4-7.6l-0.9-1.8c-0.3-0.6-0.6-1.2-0.9-1.8c-0.6-1.2-1.1-2.5-1.6-3.8
					c-1.1-2.6-2.1-5.3-3.3-8l-0.9-2l-0.5-1.1l-0.6-1.3l-2.8-5.5c-0.9-1.8-1.8-3.7-2.8-5.2l-0.4-0.5l-0.4-0.4
					c-0.3-0.2-0.5-0.4-0.8-0.6c-0.5-0.4-0.9-0.8-1.4-1.2l-1.3-1.2c-0.1-0.1-0.2-0.2-0.3-0.3c0,0-0.1,0-0.1-0.1l0,0
					c0,0.3,0-0.4,0-0.4l0,0l0,0l-0.1,0.1l-0.6,0.6c-0.4,0.4-0.8,0.9-1.2,1.3c-0.5,0.3-1,0.7-1.5,1c-1.7,3.8-3.4,7.5-5.2,11.1
					l-1.3,2.7l-0.9,2c-0.3,0.7-0.6,1.3-0.9,2.1c-0.3,0.7-0.6,1.4-0.8,2.1c-1,2.8-1.9,5.5-2.8,8.2c-0.9,2.7-1.8,5.3-2.9,7.7
					c-3.9,8.3-7.8,16.5-11.7,24.8c-1.9,4.1-10.3,25.2-11.7,29.4c-0.6,1.9,5.6-9.9,7.3-13.1c5.7-10.8,14.2-27.3,18.4-35.9
					c0.8-1.7,1.7-3.3,2.4-4.9c0.7-1.6,1.3-3.2,1.9-4.7c1.1-3,2.1-5.8,3.1-8.5c0.5-1.3,1.1-2.7,1.6-3.9c0.3-0.7,0.6-1.3,0.9-2
					c0.3-0.6,0.6-1.2,0.9-1.8c1-2,2.1-4.2,3.3-6.5c0.4-0.8,0.9-1.8,1.4-2.9c0.1-0.1,0.1-0.3,0.2-0.4l0.1-0.2l0.1-0.1
					c0,0,0-0.1,0.1,0c0.2,0.3,0.4,0.6,0.6,1c0.3,0.7,0.7,1.4,1,2.1c0.8,1.7,1.6,3.5,2.5,5.2l1.2,2.5l0.3,0.7l0.4,0.9l0.7,1.7
					c1.9,4.7,3.5,9.5,5.7,14.3c2.3,4.6,4.5,9.1,6.8,13.7c2.2,4.6,4.4,9.1,6.6,13.6c4.4,9.1,8.7,18.2,12.9,27.4
					c2.1,4.6,4.3,9.2,6.4,13.8l1.9,4c0.4,0.9,0.8,1.7,1.3,2.4c0.5,0.7,1,1.4,1.8,1.9c0.8,0.4,1.6,0.6,2.6,0.6l2.8,0.2
					c0.5,0,1,0.1,1.4,0.1l0.9,0l1.9,0.1c8.1,0.3,16.3,0.7,24.6,1c4.2,0.1,8.4,0.2,12.6,0.3c4.2,0,8.4,0,12.6,0
					c16.8-0.1,33.6-0.2,50.1,0l-0.1-4.7c0-0.1,0-0.1,0.1-0.2c0,0,0,0,0,0c0,0-0.2,0-0.4-0.1c-0.3-0.1-0.5-0.2-0.8-0.4
					c-0.3-0.2-0.6-0.4-1-0.7c-0.3-0.2-0.5-0.4-0.7-0.6c-0.3-0.2-0.6-0.4-0.9-0.7l-0.2-0.2c-0.1,0,0,0,0,0c0,0,0,0,0,0l0,0l-0.1,0.1
					l-0.5,0.5c-0.4,0.3-0.8,0.7-1.2,1.1l-1.3,1.1l-0.7,0.6l-0.4,0.4c-0.2,0.2-0.4,0.3-0.5,0.5c-12,12-23.6,24-35.6,35.7
					c-6,5.8-12,11.5-18.2,17.1c-3.1,2.8-6.2,5.5-9.4,8.2l-4.8,4l-5.2,4.2c-1.6,1.4-3.1,3-3.9,5c-0.9,1.9-1.1,4.1-0.9,6.2
					c0.1,0.5,0.1,1.1,0.2,1.6l0.2,1c0.1,0.6,0.2,1.3,0.3,1.9c0.2,1.3,0.5,2.5,0.8,3.8c1.1,5,2.7,9.9,4.5,14.6
					c1.8,4.7,3.9,9.2,6,13.6c1.1,2.2,2.2,4.4,3.2,6.5l3.2,6.4c4.3,8.5,8.6,17,12.8,25.5l3.2,6.4c0.5,1,1.1,2.2,1.8,3.3l1.8,3.2
					c2.4,4.1,4.6,8,5.7,11.3l6.3-3.6c-0.1-0.2-0.1-0.3-0.1-0.7c0-0.2,0-0.3,0-0.6c0-0.3,0-0.5,0.1-0.8l0.1-0.3l0.1-0.4
					c0.1-0.3,0.1-0.5,0.2-0.8c0.2-0.4,0.4-1.2,0.6-1.9c0,0,0,0,0,0c0,0-0.1,0-0.1-0.1c-0.2-0.1-0.6-0.3-1.1-0.6l-1.5-0.9
					c-0.6-0.4-1.3-0.8-2.4-1.3c-32.4-14.1-63.9-29.6-92.9-49.3c-4.6-3.1-9.3-6.2-14.2-9.2c-1.2-0.7-2.5-1.5-3.7-2.2l-0.9-0.5
					l-1.2-0.7c-1.1-0.6-2.3-1.2-3.4-1.5c-2.4-0.8-5-0.6-7.2,0.4c-1.2,0.5-2.3,1.1-3.3,1.8l-1.8,1.1c-9.5,5.7-19,11.5-28.5,17.2
					c-12.4,7.5-24.8,15-37.2,22.5l-18.6,11.3l-6.1,3.6c-0.4,0.2-0.8,0.5-1.2,0.8c-0.2,0.1-0.4,0.3-0.6,0.4c-0.1,0-0.1,0-0.2,0.1
					c-0.1,0-0.1,0-0.1-0.1c0-0.1,0.1-0.2,0.1-0.3c0.2-0.4,0.3-0.9,0.4-1.3l4-11.8c2.2-6,4.8-12.1,7.5-18.3c1.3-3.1,2.7-6.2,4-9.5
					c0.7-1.6,1.3-3.2,1.9-4.9c0.3-0.8,0.6-1.7,0.9-2.5l0.9-2.5c1.8-5.2,3.6-10.4,5.3-15.5c0.9-2.5,1.8-4.9,2.8-7.5
					c0.5-1.3,1-2.6,1.5-4c0.5-1.5,0.8-2.3,1.7-5.2l0.5-1.8c0.1-0.6,0.1-1.2,0.2-1.8c0.1-0.6,0-1.1-0.1-1.7c-0.1-0.6-0.3-1.2-0.5-1.7
					c-0.4-1.1-1.2-2.1-2-3l-2.3-2.6l-5.4-6.1c-3.6-4.1-7.1-8.2-10.7-12.2c-7.2-8.1-14.3-16.3-21.5-24.4
					c-5.5-6.2-11.1-12.4-16.6-18.7c0,0-0.1,0-0.1-0.1c0,0,0,0,0.1-0.1l0,0l0,0l0.5,0c0.9,0,1.8-0.1,2.7-0.1
					c3.6-0.1,7.3-0.3,11.1-0.4c7.6-0.3,15.3-0.7,23-1.1c15.3-0.9,30-2.1,41.3-3.9c5.5-0.9,7.1-2.2,7.1-3.4c0,1.9-29.7-1.2-31.8-1.3
					c-13-0.7-27.4-0.8-41.1-1.2c-3.5-0.1-6.9-0.2-10.3-0.3c-0.8,0-1.7-0.1-2.5-0.1c-1.2,0-2.5,0-3.7,0c-2.6,0-5.1,0-7.9-0.2
					c-1.4-0.1-2.8,0-3.9,0.1c-1.1,0.2-2.1,0.4-2.8,0.7c-0.8,0.2-1.4,0.5-2.1,0.8c-0.6,0.3-1.2,0.5-1.7,0.9c0,0-0.1,0.1-0.1,0.1
					c0,0.1,0,0,0,0.1l0.1,0.3l0.3,0.6l0.5,1.1l1,2.3c0.7,1.5,1.3,3.1,1.9,4.7c1.5,1.9,3,3.8,4.6,5.8c0.8,1,1.7,2,2.6,3l1.1,1.3
					l0.7,0.9c2,2.4,3.9,4.8,6,7.2c4,4.9,8.2,9.8,12.6,14.9c9.5,10.9,19.1,21.8,28.7,32.6l3.6,4.1l1.8,2l0.4,0.4l0,0l0.1,0.1
					c0,0,0.1,0.1,0.1,0.2l-0.1,0.2l0,0.1l-0.4,1.1l-0.8,2.4c-1.2,3.2-2.5,6.7-3.7,10.3l-3.5,10.2c-1.2,3.4-2.3,6.9-3.5,10
					c-1.2,3.2-2.6,6.5-3.9,9.7c-2.8,6.6-5.8,13.2-8.5,20.2c-0.3,0.9-0.7,1.8-1,2.7l-0.9,2.7l-1.8,5.1c-1.9,5.6-3.8,11.3-5.8,16.9
					c-0.5,1.6-1.3,3.4-2,5.2c-0.7,1.8-0.9,3.2-0.8,4.3l0.1,0.8c0,0.1,0,0.3,0,0.4l0.1,0.3l0.3,1.2c0.1,0.2,0.1,0.4,0.2,0.6
					c0.1,0.2,0.2,0.3,0.2,0.4c0.1,0.3,0.2,0.6,0.4,0.8c0.3,0.4,0.5,0.8,0.8,1.1c0.2,0.2,0.3,0.3,0.7,0.7c0.4,0.3,0.7,0.4,1,0.6
					c1.2,0.6,2.3,0.9,3.9,0.8c1-0.1,2.1-0.2,3.5-0.6l0.7-0.2c0.2-0.1,0.5-0.2,0.8-0.3c0.5-0.2,1.1-0.5,1.7-0.8
					c1.2-0.7,2.6-1.5,4-2.5c1.4-1,2.8-2,4.1-3c0.7-0.5,1.3-0.9,2-1.3l2-1.2l10-5.9l16.1-9.8l32.2-19.7l32.2-19.7l4-2.5l0.9-0.6
					c0,0,0.1-0.1,0.1-0.1c0.1,0,0.2,0,0.3,0.1l1.7,0.9l1.9,1.1c5.2,3.1,10.3,6.5,15.5,10c12.6,8.5,26,16.7,39.6,24.2
					C315.7,377.1,329.8,384.1,344.1,390.7z"/>
			</g>
		</g>
	</g>
</g>
<g>
	<g>
		<g>
			<path class="st0" d="M210,459.3l-1.4-0.1C209.2,459.2,209.6,459.3,210,459.3z"/>
			<path class="st0" d="M400.5,419.6l-0.2,0.4C400.6,419.7,400.6,419.6,400.5,419.6z"/>
			<path class="st0" d="M414.9,378.9l0.5-1C415.2,378.4,415,378.7,414.9,378.9z"/>
			<g>
				<path class="st0" d="M360.4,428.1c-7.7,3.4-15.9,6.2-24.1,8.6c-4.2,1-8.3,2.3-12.6,3.1l-6.4,1.4l-6.4,1.1
					c-17.1,2.9-34.6,4.4-52.1,5.1c-18,0.7-36,0.8-54-0.6c-2.2-0.1-4.5-0.4-6.7-0.6l-6.7-0.7l-6.7-1c-1.1-0.2-2.2-0.3-3.3-0.5
					l-3.3-0.6c-8.9-1.6-17.6-3.9-26.1-6.8c-9-3.1-17.7-7.1-25.6-12l-3-1.9l-2.9-2c-1.9-1.3-3.7-2.8-5.5-4.3
					c-0.9-0.7-1.8-1.5-2.6-2.3l-2.6-2.4l-5.1-5.1c-6.7-6.9-13.2-13.9-18.9-21.5c-5.6-7.6-10.4-15.7-14.3-24.4
					c-3.9-8.7-6.8-17.9-9.2-27.2c-1.2-4.6-2.4-9.4-3.4-14c-1-4.7-2-9.4-2.7-14.1c-3.1-18.9-4.2-38.2-3.1-57.5
					c1.2-18.7,4.3-37.1,10.6-54.6c0.3-1.1,0.8-2.2,1.2-3.3l1.3-3.2l1.3-3.2c0.2-0.5,0.4-1.1,0.7-1.6l0.8-1.6l3-6.3
					c0.3-0.5,0.5-1.1,0.8-1.6l0.8-1.5l1.7-3.1c2.2-4.1,4.8-8,7.3-11.9c1.3-1.9,2.7-3.8,4.1-5.7c0.7-0.9,1.4-1.9,2.1-2.8l2.2-2.7
					c6.3-7.8,13.1-14.9,20.5-21.5c0.9-0.8,2.7-2.5,5-4.5c1.1-1,2.4-2.1,3.7-3.3c0.7-0.6,1.3-1.2,2-1.8c0.7-0.6,1.4-1.2,2.1-1.7
					c0.7-0.6,1.4-1.2,2.1-1.7c0.7-0.6,1.4-1.1,2.1-1.6c1.4-1.1,2.7-2.1,4-3c2.5-1.8,4.5-3.1,5.5-3.8c0.4-0.3,0-0.1-1,0.3
					c-1,0.5-2.6,1.2-4.2,2.1c-0.8,0.5-1.7,1-2.6,1.4c-0.9,0.5-1.7,1-2.5,1.5c-1.6,1-3,1.9-3.9,2.5c-2.8,1.8-5.8,4-9,6.4
					c-1.6,1.2-3.1,2.5-4.7,3.8c-1.6,1.3-3.1,2.7-4.7,4c-0.8,0.7-1.5,1.3-2.3,2c-0.7,0.7-1.4,1.4-2.2,2.1c-1.4,1.4-2.8,2.7-4.1,3.9
					c-2.5,2.6-4.8,5-6.5,7c-1.7,2.1-3.4,4-4.9,5.8c-1.5,1.9-2.8,3.7-4.1,5.4c-0.7,0.9-1.3,1.7-1.9,2.5c-0.6,0.8-1.2,1.7-1.7,2.5
					c-1.1,1.7-2.3,3.3-3.4,5c-0.6,0.8-1.1,1.7-1.6,2.6c-0.5,0.9-1,1.7-1.6,2.6c-1,1.8-2.1,3.6-3.2,5.5c-1,2-2,4-3.1,6.2
					c-0.5,1.1-1.2,2.2-1.7,3.4c-0.5,1.2-1,2.4-1.6,3.7c-4.6,10.5-8.2,21.4-10.6,32.6c-2.4,11.1-3.8,22.4-4.5,33.7
					c-0.7,11.3-0.6,22.6,0.1,33.9c0.7,11.3,2,22.6,4,33.8c1.7,9.1,3.6,18.1,6.2,27.2c2.6,9.1,5.9,18.2,10.3,26.8
					c4.3,8.7,9.8,16.8,15.8,24.3c6,7.5,12.5,14.4,19,21c1.7,1.8,3.7,3.6,5.6,5.4c1,0.9,2,1.7,3,2.5c1,0.8,2,1.7,3,2.5l3.2,2.3
					c0.5,0.4,1,0.8,1.6,1.2l1.6,1.1l3.3,2.1c1.1,0.7,2.2,1.3,3.4,2c9,5.2,18.6,9.2,28.3,12.5c2.5,0.8,4.9,1.6,7.4,2.3l7.4,2
					c5,1.1,10,2.3,15,3.1c5,1,10.1,1.6,15.1,2.3c2.5,0.4,5.1,0.5,7.6,0.8c2.5,0.2,5.1,0.5,7.6,0.7c5.4,0.3,10.8,0.7,16.2,0.9
					l8.1,0.3l8.1,0.1c2.7,0,5.4,0.1,8.1,0.1l8.1-0.1l4-0.1l2,0l2-0.1l8.1-0.4l4-0.2l4-0.3l8.1-0.7c2.7-0.3,5.4-0.6,8.1-0.9
					c2.7-0.3,5.4-0.6,8.1-1.1l8.1-1.3c2.7-0.5,5.4-1.1,8-1.6c2.7-0.5,5.3-1.2,8-1.9c2.7-0.7,5.3-1.3,8-2.2
					c10.4-3.1,20.7-7,30.5-12.2c9.8-5.2,19-11.6,27.1-19.1c8.2-7.5,15.4-16.1,21.2-25.5c5.9-9.3,10.6-19.3,14.6-29.4
					c4.6-11.8,8.1-23.9,11.1-36c1.5-6.1,2.8-12.1,4.1-18.2c1.3-6.1,2.4-12.3,3.3-18.5c2.3-15.7,3-31.9,1.7-47.9
					c-0.7-8-1.8-15.9-3.5-23.8c-0.8-3.9-1.7-7.8-2.7-11.6c-0.5-1.9-1-3.8-1.5-5.7l-0.8-2.9c-0.3-1-0.6-1.9-0.9-2.9
					c-4.8-15.4-12-30.1-20.9-43.5c-1.1-1.7-2.3-3.3-3.5-4.9c-1.2-1.6-2.3-3.3-3.6-4.8l-3.8-4.7c-1.2-1.6-2.6-3-3.9-4.5
					c-2.6-3.1-5.5-5.9-8.2-8.8c-2.9-2.8-5.8-5.6-8.8-8.2c-5.4-4.8-11-9.3-16.8-13.5c-2.9-2.1-5.8-4.1-8.7-6.1c-3-2-6-4-9-5.8
					c-12.2-7.5-25.3-13.6-38.8-18.4c-27.1-9.5-56.6-13-85.7-9.1c-15.4,2.1-33.3,6.5-49.3,13.7c-8,3.5-15.6,7.6-22.4,12
					c-6.8,4.3-12.6,8.9-17.4,13.3c-4.6,4.3-5.2,6.5-4.5,7.4c-0.6-0.7,6.2-5.6,13.8-9.6c1.9-1,3.8-2,5.7-2.9c1.8-0.9,3.6-1.7,5.2-2.4
					c3.1-1.4,5.5-2.3,6-2.5c1.6-0.8,3.3-1.4,5-2.1c0.8-0.4,1.7-0.7,2.5-1.1c0.9-0.3,1.7-0.7,2.6-1c1.7-0.7,3.5-1.4,5.2-2
					c1.8-0.6,3.6-1.2,5.4-1.9c7.2-2.4,14.6-4.5,21.9-5.9c14.2-2.8,27.8-3.7,41.6-3.2c13.7,0.5,27.5,2.5,42.1,5.9
					c15.2,3.8,30,9.4,43.9,16.7c6.9,3.7,13.6,7.7,20.1,12.2c6.6,4.5,12.9,9.2,18.8,14.2c6,5.1,11.6,10.5,16.9,16.2
					c2.6,2.9,5.2,5.8,7.6,8.9c2.5,3,4.7,6.2,7,9.3c8.9,12.8,15.7,26.9,20.3,41.7c4,12.9,6.8,26.1,8.3,39.3c1.4,13.3,1.4,26.6,0,40
					c-0.7,6.7-1.6,13.4-2.9,20c-1.2,6.7-2.7,13.4-4.2,20.1c-3,13.3-6.8,26.4-11.7,38.8c-3,7.4-6.4,14.7-10.4,21.6
					c-4,6.9-8.8,13.3-14.1,19.2c-5.4,5.9-11.4,11.2-17.9,15.8C374.9,420.8,367.8,424.7,360.4,428.1z"/>
			</g>
		</g>
	</g>
</g>
</svg>
