<svg id="Layer_2" xmlns="http://www.w3.org/2000/svg" viewBox="0 0 500 500"><style>.st0{fill:#ffffff}.st1{fill:none;stroke:#000;stroke-width:2;stroke-linecap:round;stroke-linejoin:round;stroke-miterlimit:10}</style><path class="st0" d="M234.4 60.9l-.1.2c.1 0 .2-.1.1-.2zM264.4 57.3l-.1.4c.1-.2.1-.3.1-.4zM274.8 21.4h.6c-.3-.1-.4-.1-.6 0z"/><path class="st0" d="M252.1 21.1c-4.4.1-9 .3-13.7.9l-.9.1-.5.1-.9.1-3.4.3c-2.3.2-4.4.6-6.6 1-2.1.5-4 1.3-5.8 2.3-1.8 1-3.5 2.3-5 3.7-1.5 1.5-2.8 3.2-3.8 5.1l-2.7 5.9-.6 1.5-.5 1.5-1 3c-.2.5-.3 1-.5 1.5l-.2 1.2-.4 2.2c-1 5.9-1.5 11.6-2.1 17.2-1.3 11.8-.6 23.7 3.5 34.5.5 1.3 1.1 2.7 1.6 4 .6 1.3 1.1 2.6 1.6 4 1.1 2.6 2.2 5.1 3.3 7.6 2.2 5 4.6 9.8 6.9 14.5 2.3 4.6 5.3 8.5 8.2 12.5 2.9 4 5.7 8.2 7.8 12.9 1.1 2.5 2.1 5.1 3.2 7.7.3.6 1.8 2.1 3.6 3.4 1.7 1.3 3.6 2.5 4.4 2.8.7.2.2-4.4.1-5.6-.4-4.1-1-10-1.7-12.8-1.4-5.6-2-8.2-4.3-13.5-2.4-5.5-4.9-10.8-7-16.1-2.1-5.3-3.7-10.8-4.2-16.3-.4-4.5-1.4-8.4-2.3-12.4-.9-4-1.6-8.2-1.1-12.2.9-8.8 4.7-16.7 7.4-23.2.2-.5.5-1 .9-1.3.2-.1.4-.3.7-.3.3 0 .5 0 .8.1.3.1.5.2.7.3l.3.1.1.1h1c2.7.1 5.5.1 8.3-.1 5.6-.3 11.3-.8 17.2-1.6l4.4-.6 1.7-.2c.4 0 .9-.1 1.3-.1h.8c.2 0 .5 0 .7.1.8.2 1.4.8 1.5 1.7.1.3.1.5.1.8v.1c0 .2.1.4.1.6 0 .2 0 .4.1.6v.7c.1.4 0 1 0 1.5s-.1 1.2-.1 1.8c-.2 2.5-.9 5.5-1.7 8.7l-.7 2.4c-.2.8-.5 1.6-.8 2.5-.5 1.6-1.1 3.3-1.7 5-.6 1.7-1.3 3.4-2 5.1l-2.5 5.9c-3 7.3-6.3 13.6-9.6 19.9-3.2 6.3-6.3 12.3-8.5 18.8-1.2 3.4-2.7 7.3-3.6 11.3a32.25 32.25 0 0 0-.7 6.2c.1 2.2.4 4.3 1.2 6.6.8 2.2 3.3 4.3 5.7 5.9-2-1.3.1-2.3 2.9-3.2 2.8-.9 6.1-1.7 6.5-1.8 4.3-2 7.3-5.2 10.8-8.1 6.7-5.5 14-10.3 18.1-17.8 4.3-7.8 7.6-15.8 10.6-23.1l2.3-5.4c.9-2.2 1.8-4.2 2.7-6.5.8-2.2 1.7-4.4 2.4-6.8.4-1.2.8-2.3 1.1-3.5l1.1-3.6c1.5-5.6 2.8-11.6 3-18.7 0-3.6-.1-7.4-.9-11.3l-.3-1.5-.4-1.8a72.12 72.12 0 0 0-3.8-9.7c-2-4.2-4.9-7.8-8.4-10.8-3.5-2.9-7.7-5.1-12.1-6.4a45.9 45.9 0 0 0-12.4-1.9c-2.4-.1-3.7 0-5.3 0l-2.2.1-1.5.1c-3.9-.3-8-.4-12.3-.3zM90.5 430.2c0-.1 0-.1 0 0zM66 406l.4-.2c-.2 0-.3.1-.4.2zM28.9 413.2l-.3-.5c0 .2.1.4.3.5z"/><path class="st0" d="M43.2 436.9l2.7 3.3 1.4 1.6 1.3 1.4c1.8 1.9 3.8 3.9 6 5.9 2.3 2 4.8 4 7.8 5.9 2.9 1.9 6.4 3.7 10.2 5 2.3.8 4.7 1.4 7.3 1.7 1.3.2 2.6.3 3.9.3 1.3 0 2.6 0 3.9-.1 1.6-.1 3.2-.3 4.7-.7 1.5-.3 3.1-.8 4.4-1.2a37.27 37.27 0 0 0 9.2-4.7c.6-.4 1.2-.8 1.7-1.2.6-.4 1.1-.8 1.6-1.2l1.5-1.2 1.4-1.2 1.3-1.2c.9-.8 1.6-1.6 2.5-2.4 2.3-2.3 4.4-4.7 6.3-7 1-1.2 1.9-2.3 2.8-3.5.9-1.2 1.8-2.4 2.6-3.6 3.3-4.8 6.2-9.6 8.6-14.8 4.8-10.3 10.2-19.5 15.6-29.1 5.3-9.3 7.3-20 12.9-29.2 1.5-2.5 3.2-4.8 4.7-7.3.4-.6.8-2.8 1-5 .2-2.2.3-4.5.1-5.3-.2-.7-3.9 2.2-4.9 3-3.3 2.7-8 6.8-10 9.1-4 4.6-5.8 6.8-9 11.9-6.5 10.6-12.8 21-21.7 30-1.8 1.8-3.4 3.7-4.8 5.7-1.5 2-2.8 4-4.1 6.1-2.7 4.1-5.3 8.2-8.6 11.6-3.5 3.6-7.4 6.7-10.7 8.6-.4.2-.8.4-1.1.6-.4.2-.7.3-1 .5-.3.1-.6.2-.8.3-.2.1-.5.1-.7.2-1.2.3-2.3.5-2.8.6h-.6c-.1-.1-.2-.1-.4-.1-.1-.1-.2-.1-.4-.2s-.3-.2-.5-.3c-.2-.1-.4-.3-.5-.4-.8-.6-1.8-1.4-2.9-2.6-2.3-2.3-5-5.7-8.5-9.6l-2.7-2.9c-.9-.9-1.7-1.9-2.5-2.8-1.7-1.9-3.3-3.9-4.9-5.9-.8-1-1.5-2-2.3-3.1l-1.1-1.6-.5-.8s-.1 0-.1-.1c-.3-.4-.6-.8-.8-1.2-.1-.2-.3-.5-.2-.8.1-.3.3-.5.5-.7l.7-.5.2-.2.1-.1.1-.1.2-.2 1.8-2.2 3.8-4.7c.5-.7 1.1-1.3 1.6-1.8.5-.6.9-1 1.5-1.5 2-2 4.3-4 7-5.9 5.4-3.8 12-7.1 19.3-9.9 3.3-1.2 6.9-2.3 10.4-3.1 3.5-.9 7.1-1.6 10.5-2.2 7-1.3 13.7-2.4 20.3-4.3 3.7-1 7.8-2 11.6-3.4 3.8-1.5 7.2-3.5 10.2-7.1 1.5-1.7 2.2-4.9 2.5-7.8-.2 2.3-2.1.9-4.3-1-2.2-2-4.8-4.4-5.1-4.6-4.2-2.6-9-3.2-13.6-4.4-8.8-2.3-17.7-5.4-26.9-3.9-4.8.8-9.5 1.9-14.1 3.1-4.6 1.3-9 2.7-13.5 4.4-9.1 3.4-18.6 7.7-27.9 14.1-4 2.7-7.9 5.9-11.5 9.5-.9.9-1.8 1.9-2.7 2.8-.9 1-1.7 2-2.5 2.9-1.5 1.9-2.8 3.7-4 5.3l-1.6 2.3-.8 1c-.3.4-.3.5-1 1.3-.5.7-1.1 1.4-1.7 2.1l-1.9 2.1c-.7.7-1.2 1.4-1.8 2.1-.6.7-1 1.5-1.5 2.2a23.23 23.23 0 0 0-3.6 9.2c-.3 1.7-.4 3.4-.3 5.1.1 1.7.3 3.3.8 4.9l.9 3c.4 1 .9 2 1.3 3s1 2 1.5 3 1 2 1.6 3l1.6 3 .9 1.5.5.9c.7 1.2 1.3 2.3 2 3.5 2.2 4.5 5.2 9 8.6 13.3zM447.4 393.8s-.1 0 0 0zM432.8 417.5l-.2-.3c0 .2.1.3.2.3zM450.4 450l-.2.3c.1-.1.1-.2.2-.3z"/><path class="st0" d="M467.9 433.1c3.6-4.3 6.7-9.1 9.3-14.2.3-.6.6-1.3.9-1.9l.4-1 .8-1.6c1.1-2.2 1.8-4.3 2.7-6.5 1.6-4.3 2-8.8 1.4-13.1-.1-.8-.2-1.5-.4-2.3-.9-4.2-3-8-5.6-11.3-1.3-1.7-2.8-3.2-4.3-4.6l-2.2-2.2-1.9-1.6c-5.1-4-10.2-6.9-15.1-9.8-2.7-1.6-5.4-3-8-4.3l-4-1.8c-1.3-.6-2.6-1.2-4-1.7-2.7-1-5.4-2.1-8.2-2.8-1.4-.4-2.8-.8-4.1-1.2l-4.2-.9c-11.3-2.1-21.8-4.5-32.7-6.5-10.5-1.9-21.2-.1-31.3-2.5-2.7-.6-5.4-1.5-8-2.2-1.3-.3-8.3 1-9.7 1.8-.7.4 3 3.2 4 4 3.4 2.5 8.6 5.7 11.4 6.9 5.6 2.3 8.3 3.4 14.1 4.6 6 1.3 12 2.5 17.7 4.2 2.9.8 5.7 1.8 8.5 2.8 2.8 1.1 5.5 2.3 8.2 3.8 1.1.6 2.2 1.1 3.3 1.6 1.1.5 2.2 1 3.3 1.4 2.2.8 4.4 1.6 6.7 2.3l1.7.5 1.6.6 3.3 1.2c2.1.9 4.2 1.9 6.2 3.1l3.1 2.1 3 2.1c1.9 1.4 3.6 2.9 5.1 4.4 1.5 1.5 2.9 2.9 4.1 4.3l1.7 2c.1.2.3.3.4.5l.4.4.3.3c.5.5.8 1.2.6 1.8-.2.8-1 1.3-1.5 1.6h-.1l-.1.1-.2.3c-.2.4-.5.7-.7 1.1l-1.5 2.1c-1 1.4-2 2.8-2.9 4.3-2.7 4.1-5.7 8.1-8.9 12.1a92 92 0 0 1-5.1 5.8c-.9 1-1.8 1.9-2.7 2.8-.9.9-1.9 1.9-2.8 2.7l-.2.2-.1.1c-.1.1-.1.1-.2.1-.1.1-.2.2-.4.3-.3.1-.5.3-.8.3-.5 0-1-.1-1.4-.4-.1-.1-.3-.2-.4-.3l-.5-.3c-.3-.1-.6-.3-.8-.4-1.1-.6-2.3-1.3-3.5-2.2-2.4-1.7-5-3.8-7.7-6.2-5.4-5-10.5-10.4-15.1-16.5-4.1-5.5-7.1-11.8-10-18.2-2.9-6.4-5.8-12.9-9.8-19.2-4.2-6.6-9.3-16.3-19.1-19-2.4-.7-5.5.3-8.1 1.6 4.2-2.1-.5 10.3-.6 11-.7 4.7.2 9.2.4 13.7.4 8.8-.4 17.6 3.1 26 3.7 8.7 8.6 17.1 14.4 25 5.8 7.9 12.6 15.4 20 22.3 4.8 4.5 10.5 9.1 17.6 12.9.9.5 1.8.9 2.7 1.4.5.2.9.4 1.4.7l1.6.7c2.6 1.1 5.2 2 7.9 2.6 5.4 1.3 10.9 1.4 16.2.1 3.4-.8 6.6-2.2 9.6-4 1.5-.9 3-1.9 4.4-3 .7-.5 1.4-1.1 2.1-1.7l1.7-1.5c3.7-3.3 7.4-6.6 11.2-10.2 3.2-3.5 6.9-7.3 10.4-11.5z"/><g><path class="st0" d="M267.5 308l.2-.2c-.1.1-.2.1-.2.2zM227.9 306.6l.2-.2c-.1 0-.2.1-.2.2zM200.9 320.6l-.3-.3.3.3z"/><path class="st0" d="M225.3 337.9c12.7 4.7 26.7 4.6 38.9 0 12.6-4.8 22.8-13.8 30.4-24.2 1-1.4 2-2.8 2.8-4.2.5-.7.9-1.4 1.3-2.2a63.4 63.4 0 0 0 6-15c1-4 1.6-8 1.9-11.8.3-3.8.1-7.4-.5-10.5-.3-1.5-.6-3.1-1-4.5-.4-1.5-.9-2.9-1.5-4.2-.6-1.3-1.4-2.6-2.2-3.8-.4-.6-.9-1.2-1.6-1.7-.3-.3-.7-.5-1-.7-.1-.1-.2-.1-.3-.1l-.1.1-.2.2c-.5.6-.8 1.3-.7 2.1.1.4.2.9.4 1.4.2.5.2.9.2 1.3 0 1.6-.4 3.1-2.7 3-1.9 0-5.5-.8-10.1-2.4l-1.1 1.2-.6.6-.3.3-.1.1c0 .1-.1.3-.1.5l-1 4.3-.5 2.1-.2 1.1v.1h-.4c-.3-.1-.8-.3-1.3-.6-1-.6-2.1-1.6-2.9-2.9-.4-.6-.8-1.3-1.2-2-.2-.4-.3-.6-.4-.9l-.3-.9c-.3-1.3-.3-2.6 0-3.8.2-.7.5-1.3.9-1.8.6-.8 1.4-1.4 2.1-1.9.3-.2.8-1.2 1.7-2.2.4-.5.9-1 1.3-1.5l1.1-1.1c.2-.2-.6-.6-1.6-.9-1-.3-2.2-.4-2.8-.3-1.5 0-3.4.3-5.2 1.1-1.8.8-3.4 2.1-4.5 3.3-.6 1-1 1.7-1.3 2.3-1.4 3.1-1.7 5.9-1.5 8.6l.3 2.1c.1.4.1.7.2 1.1l.3 1.1c.4 1.4 1 2.9 2 4.5 1.2 2 2.6 4 4.6 5.7 1 .8 2.1 1.6 3.3 2.3.6.3 1.3.6 2 .9l1 .3.5.1c1.5.2 3 0 4-.6 1.1-.6 1.7-1.6 2.1-2.4.2-.4.3-.9.3-1.3s-.2-.8-.2-1.1c0-.3.1-.5.2-.6h.1c.1.1.1.3.2.5.1.4.1.8.1 1.3-.4 4.3-.8 6.6-1 8.8-.1 1.1-.3 2.1-.6 3.2s-.7 2.1-1.3 3c-.7 1-1.4 1.8-2.2 2.5l-.2.2-.3.3c-.2.2-.3.4-.5.6-.4.4-.7.8-1.1 1.2-.4.4-.7.8-1.1 1.2l-1.2 1.1c-1.6 1.4-3.2 2.6-4.9 3.7-1.7 1.1-3.5 2.2-5.3 3.2-3.9 2.1-8.5 3.1-13 3.3-4.6.2-9.1-.4-13.5-1.2-4.3-.8-8.5-2.3-12.2-4.4-3.7-2.2-7-5-9.4-8.5-.3-.5-.7-1-1-1.5l-.9-1.6c-.1-.3-.3-.5-.4-.8l-.4-.9-.6-1.8-.6-1.8-.3-.9c-.1-.3-.1-.6-.2-.9l-.4-1.8c-.1-.6-.2-1.3-.2-1.9-.3-3.2-.4-6.4-.1-9.7.4-3.3 1.1-6.5 2.1-9.6.3-.8.5-1.6.9-2.3l1-2.2 1.2-2.1c.4-.7.9-1.3 1.3-2 .2-.3.5-.8.6-.9l.7-.8 1.6-1.9c1.2-1.2 2.4-2.4 3.7-3.5 2.4-2 5-3.5 7.6-4.6 2.7-1.1 5.3-1.7 7.9-2.1 2.6-.2 5.1-.4 7.6 0 2.5.1 5.1.6 7.6 1.1 2.7.5 5.9 1.8 9.2 3 3.4 1.2 7 2.4 11.2 2.6 2 .1 4.3-1.2 6.1-2.6-1.5 1.2-2-1.1-2.5-3.8-.5-2.7-1.2-6-1.3-6.3-1.9-4.4-5.5-8-9.3-11.5-3.7-3.3-7.7-6.5-12.5-8.7-2.4-1.1-4.9-2.1-7.6-2.6-.7-.2-1.3-.3-2-.4-.7-.1-1.4-.3-2.1-.3-1.4-.1-2.9-.1-4.4-.1-6.2.3-12.4 1.7-18 4-5.7 2.3-10.8 5.5-15.4 9.2-2.3 1.9-4.5 3.8-6.5 5.9-2 2.2-4 4.3-6 7.2-3.5 5-6.3 10.5-8.3 16.1a69 69 0 0 0-3.5 30.3c1.2 10.3 4.8 20.5 10.9 29.3 3.5 5.3 8 10.1 13.1 14.1 2.6 2 5.3 3.8 8.1 5.5 3.1 1.4 6.1 2.7 9.1 3.9z"/></g><g><path class="st0" d="M214.1 371.5l-.6-.2c.3.1.4.2.6.2zM304.7 359.2v.4c.1-.2 0-.3 0-.4zM298.8 326.9l.2-.3c-.1.1-.1.2-.2.3z"/><path class="st0" d="M275.8 342c-1.5.7-3 1.3-4.5 2-1.4.5-2.8 1-4.1 1.6-.7.3-1.4.4-2.1.7l-2.1.7-1.1.3-1.1.2-2.2.5c-5.9 1.3-12.1 2-18.4 2.1-6.5.1-13.3-.5-20-2.2a57.6 57.6 0 0 1-18.9-8.6c-6.1-4.3-11.4-9.6-15.9-15.4-4.5-5.9-8.3-12.3-11.4-19.2-6.3-13.9-7.2-29.7-3.7-44.4 1.7-7.1 3.7-14.2 6.9-20.8 3.2-6.7 7.7-12.9 13.2-18.1 3-2.7 6.3-5.2 9.5-7.5.8-.6 2.8-2.8 4.9-4.9 2.1-2.2 4.2-4.2 4.8-5 .3-.4-1-.3-2.6.1-1.6.3-3.5 1-4.4 1.3-2.7 1-6.1 2.5-9.2 4.1-1.6.8-3.1 1.7-4.4 2.5-1.4.8-2.5 1.6-3.4 2.3-1.9 1.4-3.4 2.7-4.9 3.9-1.4 1.3-2.7 2.4-3.9 3.7-1.2 1.3-2.4 2.5-3.6 4-.6.7-1.3 1.5-1.9 2.4-.6.9-1.3 1.8-2 2.8-2.8 4.2-5.4 8.6-7.3 13.3-1.1 2.3-1.9 4.7-2.8 7.1-.5 1.2-.8 2.4-1.2 3.6l-1.1 3.6c-2.6 9.8-3.7 20-3.7 30.5 0 8.5 2.1 17.2 5.4 25.3 3.3 8.2 7.9 15.8 12.9 23 5.4 7.8 12 14.9 19.5 20.9 7.5 6 16.1 10.8 25.3 13.9 9.8 3.3 20 5.5 30.6 6 10.5.5 21.4-.8 31.6-4.5l3.8-1.4c1.2-.5 2.3-1 3.5-1.5 2.3-1 4.5-2.2 6.7-3.4 4.4-2.4 8.8-5.2 13-8.3a95.6 95.6 0 0 0 26.4-30.3c.4-.7.7-1.3 1-1.9l1-1.8c.7-1.2 1.3-2.5 2-3.8 2.6-5.1 5-10.4 7-15.9 2.6-7 4.4-14.4 5.3-22 .9-7.6.9-15.5-.2-23.2-.2-1.9-.6-3.9-1-5.8-.5-1.9-.9-3.8-1.4-5.7-1.1-3.8-2.4-7.4-3.9-11l-1.2-2.7-1.3-2.6c-.8-1.8-1.8-3.3-2.7-5l-1.4-2.5-1.5-2.4c-1.1-1.6-2-3.2-3.2-4.7-3.9-5.6-8.3-10.8-13.1-15.6-4.8-4.8-10-9.3-15.6-13.2-2.8-2-5.8-3.8-9-5.5l-2.4-1.2c-.8-.4-1.7-.8-2.6-1.2-.8-.4-1.9-.7-2.8-1.1l-.7-.3-.9-.3-1.8-.5c-6.2-1.6-12.6-2.8-19.1-3.5-6.9-.7-15.1-1.1-23.1-.2-4 .5-7.9 1.2-11.6 2.5-3.7 1.3-7.1 3-10 5.3a7.28 7.28 0 0 0-2.2 2.9c-.2.4-.3.7-.3 1-.3 1.3.1 2.5.6 3.5-.2-.4-.1-.8.3-1.1.4-.3 1.1-.7 1.8-.8.4-.1.8-.1 1.3-.2h1.4c.5 0 1 .1 1.5.1l1.5.3c4 .8 7.8 2.6 8.3 2.7 6.1 1.8 12.6 2.8 18.7 4.8 5.9 1.9 11.2 4.4 16.4 6.8 2.6 1.2 5.2 2.5 7.9 3.6.2.1.3.2.5.3l.6.4c.5.3 1 .6 1.4.9 1.1.6 2.2 1.3 3.3 2 2.4 1.4 4.8 3.1 7.1 4.8 2.3 1.8 4.6 3.6 6.7 5.5 4.3 3.9 8.2 8.2 11.6 12.8.8 1.2 1.7 2.3 2.5 3.5l1.2 1.8.6.9.5.9 2.1 3.8c.6 1.3 1.3 2.5 1.8 3.8 1.2 2.5 2.1 5.1 2.8 7.8.8 2.6 1.3 5.3 1.7 8 1.3 9.3.4 19-2.5 28.6-1.4 4.8-3.3 9.6-5.5 14.3-1.1 2.4-2.4 4.7-3.7 7.1a54.4 54.4 0 0 1-3.9 6.2c-3.3 4.7-7.2 8.8-11.9 12.2-5 4.2-10.3 7.1-16 9.7z"/></g><g><path class="st0" d="M211.5 377.9h-.3.3zM255.6 380.3l-.1.2c.1 0 .1-.1.1-.2zM264 358.8h.2-.2z"/><path class="st0" d="M247.2 358.1c-7.6-.4-15.6-.5-23.7.2-8.4.7-16.9 2.2-25.6 2.6-2.2.1-4.5.2-6.7.4-2.2.1-4.5.3-6.8.5s-4.6.5-7 1l-3 .6c-1 .2-1.9.4-3 .5-2.1.4-4.5.6-7.2 1.2s-5.4 1.6-7.7 2.9c-2.3 1.3-4.4 2.7-6.3 4.2-.9.7-1.8 1.5-2.7 2.2-.9.8-1.8 1.5-2.7 2.3-3.4 3.1-6.1 6.6-8.7 10.3-2.6 3.6-5 7.3-7.8 10.7-1.5 1.8-3.1 3.6-4.5 5.5-.8.9-2.6 6.6-2.6 7.8 0 .6 2.9-1.6 3.7-2.2 2.6-2 6.4-5.1 8.2-6.7 3.5-3.4 5.2-4.9 8.5-8.4 3.4-3.7 6.9-7.1 10.7-10 1-.7 1.9-1.5 2.9-2.1 1-.7 2-1.3 3-1.8 2-1.1 4-1.8 5.8-2 1.5-.2 2.7-.2 4.4-.3a72.64 72.64 0 0 0 9.6-.7l1.5-.2 1.4-.2c1.9-.2 3.9-.3 5.8-.3l6.5.3 3.3.2 3.2.3c4.2.4 8.5.8 12.9 1 9.3.3 18.7 2.4 28.6 2.7 4.9.1 9.8.1 14.8-.1s10-.7 14.8-1.1c5.6-.5 11.2-1 16.5-1.3 3.4-.2 6.7-.4 10.1-.5 3.4-.1 6.8-.3 10.2-.4 1.7-.1 3.4-.2 5.1-.2 1.6 0 3.2-.1 4.7 0 2.9.1 5.3.4 7.4 1.1 4 1.3 7.8 4.6 11.9 8.5 2.1 2 4.2 4.1 6.4 6.2 2.2 2.1 4.4 4.1 6.7 6 5 4.1 11 10.2 18 11.3 1.7.3 3.4-.7 4.7-1.9-1.1.9-1.7-.9-2.1-3.1-.4-2.2-.7-4.7-.7-5-1-3.5-3-6.6-4.7-9.8-3.2-6.3-5.8-12.6-10.9-17.8a72.2 72.2 0 0 0-9.1-8c-3.4-2.6-7.5-5-12.1-6.7-2.3-.9-4.9-1.5-7.3-1.9a64.07 64.07 0 0 0-13.1-.7c-1.9 0-3.8.1-5.7.2l-9.6.4-4.8.2-4.9.4c-6.4.6-12.6 1.3-18.7 1.7-3.6.3-7.2.3-10.8.3-3.6.1-7.2-.1-10.8-.3z"/></g><g><path class="st0" d="M154.2 302.3l-.2.5c.1-.2.2-.4.2-.5zM175.5 247.8l.2.2-.2-.2zM161.4 227.6l.1-.4c0 .2 0 .3-.1.4z"/><path class="st0" d="M150.4 249.9a136.96 136.96 0 0 0-5.5 16c-1.5 5.1-3 10.3-4.3 15.5-.7 2.7-1.3 5.4-2 8.1l-1 4.1-.5 2-.4 1.7c-1.2 4.3-3.6 8.8-6.8 12.7-3.5 4.2-7.6 8.1-11.9 11.8-4.3 3.8-8.8 7.4-13.3 11.2-9.1 7.6-18.9 13.8-29 20.5-4.9 3.2-9.4 6.9-13.9 10.6-4.5 3.8-9 7.6-13.7 11.3-1.3 1-2.5 2-3.8 3-1.2 1.1-2.5 2.1-3.7 3.2-.6.6-2.1 2.5-3.3 4.7-.3.5-.6 1.1-.9 1.6-.3.5-.5 1.1-.7 1.5-.4 1-.7 1.7-.8 2.1-.1.4.8-.2 1.9-1 .5-.4 1.1-.8 1.6-1.2.5-.4 1-.7 1.3-.9 3.6-2.6 9.1-5.9 11.8-7.6 2.7-1.8 4.8-3 6.8-4.3 1-.7 2-1.3 3.1-2s2.3-1.5 3.6-2.5c11.3-7.7 22.8-14.6 35.2-20.7 10.1-5 19.1-12.6 28.5-19.7 5.1-3.8 10.1-7.9 14.8-12.9 2.3-2.4 4.5-5.2 6.5-8.2.5-.8.9-1.6 1.4-2.3.4-.8.9-1.6 1.3-2.4.8-1.7 1.6-3.6 2.1-4.9 2.3-6.1 4.9-12.1 7.4-18.1 1.3-3 2.5-6.1 3.7-9.1 1.2-3.1 2.3-6.2 3.3-9.1 1-2.9 2-5.6 3.1-8.4 1.1-2.8 2.3-5.7 3.5-8.6 1.2-2.9 2.5-5.8 3.8-8.7l.5-1.1.5-1 .9-2c.6-1.3 1.4-2.6 2-4 3.3-6.2 7.2-12.2 11.4-18.3 5.2-7.7 10.5-15.6 15.5-24.2 2.5-4.3 4.8-8.8 7-13.6l1.5-3.7 1.3-3.6c.9-2.4 1.6-4.8 2.4-7.2 2.7-8.7 5.2-17.3 6.9-26.1 1.7-8.8 2.8-17.7 2.6-26.6-.1-4.8-.3-10.3-1.1-15.7-.4-2.7-1-5.3-1.8-7.6-.8-2.4-1.8-4.6-3.1-6.4-1.2-1.8-3.2-2.2-4.9-2 1.4-.1.9 2.5-.1 5.1-1 2.7-2.3 5.4-2.4 5.8-.7 2.2-1.2 4.5-1.6 6.8-.5 2.3-.9 4.7-1.4 6.9-2.2 8.8-5.4 16.3-7 25.1-1.7 9.3-3.8 18.3-6.4 27-.3 1.1-.7 2.2-1.1 3.3-.4 1.1-.7 2.2-1.1 3.2l-1.2 3.2c-.2.6-.4 1-.6 1.5l-.6 1.5c-1.7 3.9-3.8 8-6.2 12-4.1 6.9-8.6 13.9-13.2 21.1-4.6 7.2-9.3 14.5-13.6 22.5-.6 1.2-1.3 2.4-1.9 3.6-.6 1.2-1.3 2.5-1.9 3.7-1.1 2.3-2.3 4.7-3.5 7-2.4 4.9-4.8 9.7-7 14.8z"/></g><g><path class="st0" d="M309 203.3l-.2-.3c.1.2.1.3.2.3zM331.2 249.3h-.3c.1.1.2.1.3 0zM354.9 252l.1.3c0-.2 0-.2-.1-.3z"/><path class="st0" d="M347.5 231.1c-1.9-4.6-4-9.1-6.3-13.4-2.4-4.6-5.1-9-8.1-13.1-6.1-8.5-13.1-15.9-18.8-24.3-3-4.4-6-8.8-9.1-13.2l-1.1-1.6c-.4-.5-.8-1.1-1.1-1.6l-1-1.4-.9-1.5c-1.2-2-2.3-4-3.3-6.2s-1.8-4.5-2.5-6.8-1.1-4.8-1.4-7.2c-.7-4.9-.8-9.9-.5-15 .2-4.9.3-9.8.6-14.8s1-9.9 2.5-14.7c.8-2.6 1.8-5 2.8-7.5.2-.6.5-2.6.7-4.6.2-2 .4-4 .3-4.7-.1-.7-2.7 2.6-3.3 3.6-2.3 3.1-5.3 8-6.4 10.7-2.3 5.5-3.3 8.1-4.6 14.1-1.3 6.2-2.2 12.3-2.7 18.6-.6 6.3-.8 12.6-.7 19.2.1 5.4 1.4 10.9 3.5 16.2 1.1 2.7 2.4 5.2 3.8 7.8l1.1 1.9 1.1 1.7c.7 1.1 1.3 2.1 1.9 3.2 5.4 9.4 10.1 19 15.6 28 2.9 4.8 5.4 9.8 7.7 14.8l3.3 7.5c1.1 2.6 2.2 5.2 3.4 7.8 4.7 10.2 9.4 20.2 13.2 30.7 2.2 6.1 4.2 12.3 5.9 18.6l1.7 6c.3.9.6 2.1.9 3.2.3 1.1.7 2.1 1 3.2 1.4 4.2 2.9 8.2 4.6 12.3.8 2.1 1.7 4.1 2.7 6.2l.8 1.6c.3.6.6 1.2.8 1.7.6 1 1.1 2.1 1.7 3.1 2.3 4.1 5 8.2 8.3 12 5.8 6.9 12.6 12.7 19.1 17.3 6.2 4.5 12.7 8.8 19.6 12.3 7.3 3.7 16.7 8.8 24.7 8.4 2-.1 3.4-1.5 4.3-3-1.4 2.4-6-7.2-6.5-7.7-2.5-3.4-5.9-6.2-9-9.2-5.8-5.9-10.5-11.8-17.2-16.7-1.8-1.3-3.5-2.5-5.2-3.8-1.6-1.2-3.2-2.4-4.7-3.6-3-2.4-5.6-4.8-7.9-7.4-2.3-2.7-4.3-5.6-6.2-8.9-.5-.8-.9-1.7-1.4-2.5l-.3-.6-.3-.6-.6-1.2c-.8-1.7-1.6-3.6-2.4-5.6-1.3-3.3-2.6-6.7-3.8-10.1-.6-1.7-1.2-3.4-1.7-5l-1.7-5.4c-2.3-7.3-4.8-14.6-7.3-21.9-2.8-9-6-18.1-9.6-26.9z"/></g></svg>
