<svg xmlns="http://www.w3.org/2000/svg" viewBox="0 0 500 500"><path d="M339.27 358.23l-.62.57c.28-.25.48-.4.62-.57zM379.8 249.5l.17.23c-.07-.22-.13-.25-.17-.22zM361.5 228.67l-.21-.6a5 5 0 0 0 .2.6z"/><path d="M365.1 271.87a135.84 135.84 0 0 1-6.5 28.67l-1.22 3.5-.6 1.76-.72 1.71-2.85 6.88-3.23 6.74-.8 1.7-.9 1.64-1.78 3.3-1.83 3.4c-.62 1.1-1.28 2.12-1.91 3.2l-.97 1.58-1.06 1.53c-.72 1-1.36 2.07-2.14 3.03-2.94 4-6.35 7.63-10.03 11.02a74.83 74.83 0 0 1-12.1 9.04 83.63 83.63 0 0 1-13.84 6.79 125.12 125.12 0 0 1-15.83 4.82l-4.06.9-4.13.77-4.13.76-4.15.61a221.9 221.9 0 0 1-33.44 2.4 158.65 158.65 0 0 1-65-14.32l-7.39-3.46-7.25-3.7-3.44-2.02c-1.13-.7-2.34-1.28-3.4-2.09l-3.27-2.29-1.64-1.14-1.55-1.28c-8.37-6.66-15.6-14.86-21.7-23.9-.83-1.19-1.57-2.46-2.36-3.68l-1.16-1.85-.58-.92-.3-.46-.22-.44-.9-1.75-.46-.87-.34-.91-.7-1.82c-.23-.6-.32-1.25-.5-1.88-.07-.3-.2-.76-.4-1.33-.15-.58-.25-1.3-.43-2.08l-.27-1.24-.13-1.35c-.08-.93-.25-1.9-.2-2.9v-1.48c0-.49-.01-.98.06-1.45l.25-2.72c.28-1.66.53-3 .6-3.69.07-.61-.64.95-1.5 2.98-.37 1.03-.68 2.2-1 3.23-.17.52-.24 1.02-.32 1.45l-.2 1.1-.25 1.46c-.05.5-.07 1.01-.1 1.54-.05 1.06-.17 2.18-.05 3.32.1 1.13.08 2.33.36 3.48.25 1.15.37 2.37.8 3.48l.54 1.7.28.84.36.8c.5 1.03.95 2.08 1.46 3.02 1.05 1.86 2.01 3.52 2.81 4.86 1.62 2.7 3.18 4.96 4.55 7.1 1.45 2.08 2.85 3.95 4.24 5.85 1.44 1.85 3 3.64 4.66 5.62.84 1 1.82 1.93 2.82 2.98 1.02 1.01 2.03 2.16 3.25 3.26 2.55 2.23 5 4.58 7.78 6.53l2.02 1.52c.68.51 1.34 1.04 2.07 1.47l4.29 2.7c1.41.95 2.9 1.7 4.35 2.5l4.37 2.39c1.48.76 2.98 1.47 4.47 2.2 1.5.72 2.96 1.5 4.5 2.16 12.08 5.5 24.72 9.78 37.81 12.9 10.6 2.5 21.8 3.63 32.98 3.69 11.2.06 22.4-.93 33.3-2.39 11.7-1.52 23.75-3.9 35.2-8.35 11.43-4.46 22.39-10.98 31.46-19.78 4.8-4.68 9.11-9.84 12.87-15.35l1.41-2.07 1.27-2.06 2.52-4.12c1.74-2.71 3.21-5.6 4.76-8.45 6.05-11.43 10.9-23.7 13.6-36.6a124.2 124.2 0 0 0 2-38.8 138.53 138.53 0 0 0-9.6-37.44c-1.29-3.54-2.99-6.87-4.56-10.27l-1.2-2.54c-.42-.83-.88-1.64-1.32-2.46l-2.68-4.9c-.45-.82-.88-1.64-1.36-2.46l-1.53-2.5c-.5-.84-1.06-1.63-1.61-2.43-.56-.8-1.1-1.61-1.67-2.39-1.18-1.53-2.3-3.1-3.56-4.56-.62-.74-1.23-1.49-1.86-2.2l-1.93-2.14a117.83 117.83 0 0 0-10.44-9.97c-3.67-3.07-7.5-5.93-11.43-8.6a160.53 160.53 0 0 0-12.17-7.37c-4.17-2.25-8.44-4.3-12.77-6.2a170.8 170.8 0 0 0-13.26-5.03c-4.5-1.48-9.07-2.74-13.7-3.82-9.25-2.1-18.76-3.4-28.43-3.43a87.9 87.9 0 0 0-13.12.79c-2.17.33-4.37.56-6.52.97l-6.37 1.42c-8.39 2.17-16.34 5.18-23.95 8.4l-5.65 2.43-5.55 2.46-5.47 2.39-2.84 1.26-2.92 1.32a120.9 120.9 0 0 0-22.27 13.36c-7.4 5.62-15.57 13.2-21.68 21.95a79.84 79.84 0 0 0-7.7 13.28l-1.35 3.3c-.43 1.08-.86 2.13-1.16 3.2a110.8 110.8 0 0 0-.9 3.1c-.3.99-.54 1.97-.7 2.93-.68 3.73.14 5.2 1.22 5.6-.44-.16-.1-1.34.68-3.03.39-.84.87-1.82 1.45-2.83a115.6 115.6 0 0 1 3.04-4.7l1.13-1.49 2.07-2.65c1.29-1.56 2.32-2.63 2.52-2.9 2.6-3.3 5.5-6.59 8.5-9.8.75-.8 1.55-1.56 2.33-2.34.8-.76 1.53-1.58 2.38-2.29 1.66-1.45 3.24-2.95 4.98-4.24a110.66 110.66 0 0 1 20.58-12.57l5.45-2.5c1.87-.75 3.7-1.59 5.61-2.34l5.88-2.33c2.06-.83 4.2-1.7 6.28-2.6 8.8-3.82 17.27-7.63 25.8-10.37 8.53-2.76 17.02-4.45 25.78-4.58 8.77-.15 17.7.83 26.49 2.8 8.8 1.93 17.44 4.82 25.79 8.42 14.13 6.22 27.46 14.5 38.42 24.98 2.7 2.65 5.27 5.4 7.64 8.28a81.84 81.84 0 0 1 6.34 9.08l2.81 5.11c.92 1.71 1.94 3.38 2.7 5.16 1.63 3.51 3.4 6.97 4.7 10.6l1.25 3.22.63 1.62c.2.55.35 1.1.52 1.66l2.06 6.65c1.06 4.51 2.22 9.04 2.77 13.68a112.5 112.5 0 0 1 .58 27.96zM85.75 258.23l-.16.02c.07 0 .12.02.16-.02zM110.13 256.97l-.05.16a.2.2 0 0 0 .05-.16z"/><path d="M114.98 242.7l.15-.02a.3.3 0 0 0-.15.03z"/><path d="M104.61 242.4c-4.65.1-9.25.8-13.76 1.89-4.63 1.2-9.15 2.9-13.87 3.44-4.97.64-9.94 1.03-14.85 2.07-4.94 1.06-9.81 1.45-14.81 1.82-4.82.36-9.5 2.06-14.34 2-1.29-.02-2.58-.13-3.87-.18-.64-.02-3.73 1.14-4.31 1.6-.27.2 1.67.97 2.21 1.17 1.77.65 4.47 1.47 5.85 1.68 2.78.42 4.09.62 6.9.55 5.8-.13 11.45-.41 17.26.3 4.7.56 9.46-.62 14.15-.58 2.53.03 5.08.13 7.62.2 2.53.08 5.05.08 7.57-.16 5.36-.57 10.73.02 16.06-.46 2.63-.24 5.24-.37 7.86-.58 2.62-.16 5.25-.41 7.87-.4 3.05.02 6.11.1 9.16.23l5.86.2 5.92.1c3.94.05 7.88.06 11.82.19 7.13.22 14.02 1.85 21.2 1.49 3.8-.2 8.93-.2 12.17-3.12.79-.72 1.05-2 1.08-3.15-.05 1.88-4.14-2.12-4.43-2.3-1.81-1.16-3.82-1.68-5.74-2.48-3.7-1.54-7-3.55-10.95-4.06-8.29-1.08-16.53-1.03-24.85-1.2-3.55-.06-7.04-.12-10.64-.11-3.63.02-7.25.03-10.88-.04-4.32-.03-8.79-.13-13.26-.1z"/><g><path d="M254.51 410.58l.03.17c0-.08.02-.13-.03-.17zM251.5 386.5l.17.03a.2.2 0 0 0-.17-.03zM236.86 383.27l-.04-.14c0 .07.02.11.04.14z"/><path d="M237.54 393.26c.5 4.45 1.46 8.81 2.85 13.04 1.44 4.36 3.24 8.64 3.87 13.16.63 4.79.97 9.54 1.74 14.29.82 4.79.73 9.48.53 14.27-.08 1.15-.08 2.3-.04 3.46l.08 1.74.03 1.73c.02 1.16.03 2.31-.02 3.47-.06 1.15-.24 2.3-.49 3.42-.28 1.2-.62 2.4-1 3.57-.19.57.18 3.7.48 4.38.14.3 1.36-1.3 1.68-1.77 1.07-1.49 2.55-3.87 3-5.16.5-1.29.85-2.25 1.15-3.22.3-.98.48-1.97.7-3.35.5-2.84.74-5.66 1.16-8.49.3-2.82.76-5.64 1.31-8.51.98-4.66-.05-9.47.09-14.14.08-5.06.5-10.18-.2-15.17-.7-5.32-.62-10.7-1.45-15.94-.84-5.18-1.85-10.24-2.54-15.42-.43-3.06-.8-6.13-1.12-9.2-.2-1.95-.44-3.88-.7-5.82-.28-1.93-.63-3.83-.96-5.74-.67-3.82-1.37-7.63-1.97-11.46-1.12-6.88-.85-13.84-2.53-20.61-.9-3.6-1.84-8.5-5.32-11.06-.84-.62-2.16-.64-3.3-.46 1.86-.3-1.3 4.35-1.44 4.68-.79 1.95-.93 3.98-1.36 5.97-.83 3.85-2.18 7.43-1.93 11.31.25 4.08.78 8.1 1.43 12.09.6 3.98 1.31 7.94 1.98 11.93l.86 5.08.78 5.06a370.9 370.9 0 0 1 1.45 10.14c.25 2.04.42 4.19.6 6.32s.37 4.28.6 6.41z"/></g><g><path d="M405.9 236.37h.2c-.09-.02-.14-.04-.2 0zM377.26 235.83l.06-.15a.18.18 0 0 0-.06.15zM371.47 250.02l-.17.03c.08 0 .13-.01.17-.03z"/><path d="M382.94 250.58c5.19.12 10.43-.1 15.67-.84 2.7-.37 5.4-.87 8.11-1.29 2.7-.4 5.43-.77 8.19-.86 5.83-.17 11.67-.3 17.5-1.25l2.17-.32 2.07-.24c1.37-.14 2.75-.3 4.13-.3 1.37-.01 2.75-.05 4.13 0l4.14.24c5.3.46 10.8.1 15.94 1.85 1.35.5 2.66 1.09 3.99 1.63.63.3 4.26.58 5.07.43.37-.07-1.32-1.62-1.81-2.05-.8-.67-1.82-1.56-2.86-2.26a29.28 29.28 0 0 0-2.78-1.71c-1.44-.78-2.55-1.2-3.67-1.64-1.13-.4-2.27-.85-3.89-1.17-6.68-1.56-13.33-2.19-20.2-3.23-2.78-.37-5.7-.28-8.3-.13-2.67.16-5.35.39-8.01.18l-4.3-.32-4.33-.45c-2.88-.26-5.77-.5-8.69-.52-6.2 0-12.44-.97-18.74-.94-3.13.05-6.25.13-9.39.25l-9.4.39c-3.6.13-7.21.2-10.82.22-9.12.04-18.2.74-27.3 1-8.22.24-16.27-.94-24.52-.1-4.37.43-10.28.76-13.82 3.9-.86.75-1.07 2.06-1.02 3.2-.08-1.87 4.9 1.85 5.25 2.02 2.16 1.03 4.51 1.42 6.77 2.1 4.37 1.3 8.3 3.08 12.88 3.34 9.61.54 19.1-.04 28.69-.41 8.15-.31 16.29-.83 24.44-1.02 2.46-.08 4.85.02 7.3.07 2.44.03 4.93.17 7.42.23z"/></g><g><path d="M215.02 96.59l-.03-.19c0 .09-.02.14.03.19zM217.66 123.76l-.16-.04c.06.05.12.05.16.04zM232.27 127.89l.04.16a.33.33 0 0 0-.04-.16z"/><path d="M231.75 116.76a80.68 80.68 0 0 0-2.62-14.77c-1.4-4.98-3.16-9.9-3.78-15.06-.66-5.46-1.09-10.89-2.14-16.3-1.05-5.44-1.44-10.8-1.84-16.31-.39-5.33-2.07-10.49-2.1-15.84 0-1.42.09-2.85.11-4.28.02-.7-1.19-4.11-1.65-4.75-.22-.3-.95 1.85-1.14 2.45a45.97 45.97 0 0 0-1.6 6.43 41.72 41.72 0 0 0-.47 7.57c.15 6.37.46 12.56-.25 18.94-.57 5.16.62 10.42.6 15.6 0 5.6-.41 11.23.19 16.82.68 5.95.49 11.97 1.23 17.91l2.37 17.56c.44 3.43.82 6.86 1.14 10.3.4 4.35.98 8.68 1.57 13l.9 6.47c.28 2.14.53 4.25.76 6.38.85 7.75.23 15.24 1.72 23.21.78 4.17 1.57 9.85 4.96 12.92.82.75 2.14.82 3.27.65-1.86.27 1.46-4.86 1.6-5.2.86-2.15 1.07-4.4 1.57-6.6.96-4.26 2.45-8.04 2.36-12.43-.1-4.64-.47-9.25-.96-13.84a441.6 441.6 0 0 0-1.69-13.63c-.98-7.68-2.17-15.32-3.05-23-.28-2.3-.43-4.66-.57-7.04-.15-2.38-.3-4.77-.49-7.16z"/></g><g><path d="M239.72 251.1l-.01-.01s-.03.02 0 0zM238.9 253.62l-.12-.08.13.08zM249.2 263.4l-.05.08c.03-.03.04-.06.04-.08z"/><path d="M252.87 258.55c.34-.75.66-1.48.88-2.32.2-.85.4-1.7.43-2.55.12-1.7-.18-3.37-.8-4.85a12.64 12.64 0 0 0-2.74-3.89c-1.11-1.06-2.29-1.91-3.4-2.77-2.33-1.8-5.33-2.94-8.3-2.52-1.48.22-2.78.47-4.03.82-1.26.36-2.52.79-3.72 1.45a7.62 7.62 0 0 0-2.69 2.83c-.67 1.1-1.18 2.2-1.9 3.2a17.02 17.02 0 0 0-1.2 1.64c-.22.31.3 2.04.65 2.36.16.15 1.26-.5 1.54-.64.46-.27 1.05-.56 1.57-.8.5-.26.97-.46 1.22-.6.49-.31.88-.47 1.2-.65.3-.2.63-.35.95-.63.73-.52 1.48-.9 2.29-1.04.8-.14 1.66-.02 2.42.51.62.44.95.5 1.31.55.35.05.75.08.96.44.23.38.27.86.23 1.24-.02.39-.14.67-.03.82.11.18-.06.46-.25.62-.2.18-.41.25-.39.38l-.02.3-.2.47c-.07.54-.23 1.2-.75 1.71-.4.38-.92.7-1.53.89-1.47.5-3.2 1.18-4.74.97a1.9 1.9 0 0 1-1.36-1.1c-.22-.47-.14-.73-.43-.66-.32 0-.51.06-3.6.04-.76 0-2.05.18-3.18.4.93-.17.5.22-.14.78-.66.56-1.44 1.33-1.51 1.43-.79 1.1-.78 2.2-.87 3.44-.03.6-.04 1.23-.02 1.88.05.63.11 1.31.28 1.94.31 1.26.93 2.5 1.95 3.32a14.13 14.13 0 0 0 7.12 3c2.47.34 4.87.11 7.2-.37a23.12 23.12 0 0 0 10.83-5.79c1.84-1.7 3.7-3.84 4.84-6.46l-.23.54.16-.33z"/></g></svg>