<svg xmlns="http://www.w3.org/2000/svg" viewBox="0 0 500 500"><path d="M345.78 365.42l-.68.64c.32-.27.57-.41.68-.64zM389.8 248.58l.4.22c-.14-.23-.28-.25-.4-.22zM350.85 231.8l-.23-.54c.08.27.15.43.23.55z"/><path d="M353.07 270.67a151.45 151.45 0 0 1-5.59 25.87l-1 3.24-.5 1.62-.6 1.6a346 346 0 0 0-2.34 6.48 337.4 337.4 0 0 0-2.68 6.45l-.65 1.63-.74 1.6-1.48 3.22-1.51 3.34c-.5 1.07-.98 1.98-1.47 2.99-.25.49-.48 1-.74 1.48l-.81 1.43c-.56.93-1.04 1.95-1.66 2.85a66.04 66.04 0 0 1-8.1 10.6 59.74 59.74 0 0 1-10.47 8.94 63.6 63.6 0 0 1-12.63 6.7 114.33 114.33 0 0 1-14.88 4.66l-3.85.87-4 .77-4 .76-4.01.63a264.99 264.99 0 0 1-32.3 2.98c-21.84.72-43.03-4.24-62.8-13.43-2.37-1.16-4.78-2.23-7.16-3.34-2.34-1.19-4.76-2.32-7.09-3.46l-3.25-1.8c-1.08-.6-2.23-1.11-3.25-1.84l-3.14-2.04-1.59-1.03-1.5-1.15a83.33 83.33 0 0 1-20.91-22.78c-.78-1.18-1.46-2.45-2.17-3.68l-1.05-1.86-.52-.93-.26-.47-.15-.37-.63-1.48-.32-.73-.21-.75c-.14-.5-.3-1-.45-1.49s-.17-1-.27-1.5c-.05-.25-.16-.6-.34-1.04-.15-.44-.27-1-.48-1.61l-.33-.97-.22-1.09c-.15-.75-.41-1.53-.46-2.37l-.16-1.25c-.07-.42-.14-.84-.13-1.25a60.6 60.6 0 0 0-.12-2.41c.04-1.51.06-2.77-.03-3.43-.08-.6-1.13.66-2.38 2.44-.57.89-1.07 1.92-1.57 2.87-.27.47-.42.92-.57 1.32l-.37 1.02-.49 1.36c-.13.47-.22.96-.34 1.47-.22 1.01-.5 2.1-.55 3.22-.07 1.12-.26 2.32-.14 3.49.09 1.18.05 2.44.33 3.6l.34 1.79.18.89.28.85c.37 1.11.73 2.25 1.14 3.28a112.1 112.1 0 0 0 2.36 5.19c1.43 2.86 2.82 5.27 4.06 7.55 1.32 2.22 2.61 4.22 3.92 6.24 1.36 1.97 2.86 3.88 4.49 5.98.82 1.05 1.8 2.05 2.78 3.16 1.02 1.08 2.03 2.28 3.26 3.44 2.57 2.37 5.05 4.85 7.88 6.94l2.06 1.64c.7.54 1.37 1.1 2.12 1.57l4.39 2.92c1.47 1.02 2.93 1.8 4.4 2.67l4.4 2.56c1.5.82 3 1.59 4.5 2.39 1.52.77 2.99 1.63 4.53 2.34 12.2 6.03 24.98 11.01 38.36 15.2 10.83 3.35 22.5 4.67 34.1 4.76 11.62.1 23.17-.99 34.48-2.13 3.06-.3 6.1-.7 9.17-1.05 3.1-.43 6.28-.88 9.42-1.5 6.3-1.21 12.64-2.8 18.9-5a103.23 103.23 0 0 0 18.31-8.52 88.07 88.07 0 0 0 16.47-12.56c5.3-5.19 10.1-10.85 14.32-16.87l1.58-2.26 1.37-2.15 2.73-4.29c1.88-2.8 3.5-5.83 5.2-8.81 6.64-11.98 12.1-25.07 14.95-39.04a132.86 132.86 0 0 0 1.78-42.05c-1.61-13.99-5.4-27.52-10.55-40.2-1.38-3.78-3.17-7.31-4.83-10.92l-1.26-2.7c-.45-.88-.93-1.74-1.4-2.6l-2.8-5.2c-.47-.88-.91-1.73-1.42-2.62l-1.71-2.8c-.56-.96-1.17-1.85-1.78-2.74-.61-.9-1.2-1.8-1.84-2.67-1.29-1.71-2.54-3.47-3.9-5.09-.68-.81-1.34-1.65-2.03-2.45l-2.09-2.36a123.45 123.45 0 0 0-11.27-10.93 149.03 149.03 0 0 0-12.28-9.3 165.44 165.44 0 0 0-13.02-7.89c-4.44-2.4-9-4.57-13.62-6.57a179.84 179.84 0 0 0-14.14-5.32c-4.8-1.56-9.69-2.9-14.64-4.04a143.74 143.74 0 0 0-30.76-3.69c-2.39-.05-4.81.06-7.23.12-2.43.17-4.87.27-7.3.63-2.4.32-4.87.56-7.25.97l-7.06 1.43a192.09 192.09 0 0 0-25.82 8.3l-5.85 2.35-5.62 2.32-5.39 2.2-1.36.58-1.58.68-3.16 1.39a115.9 115.9 0 0 0-24.15 14.6c-1.98 1.62-4.08 3.25-6.12 5.14-1.02.93-2.08 1.83-3.1 2.83l-3.04 3.05c-1.04 1.01-2 2.13-2.96 3.23-.96 1.12-1.96 2.2-2.86 3.38-1.81 2.36-3.62 4.7-5.16 7.23a66.96 66.96 0 0 0-7.34 15.32c-.38 1.29-.73 2.57-1.04 3.82s-.58 2.48-.73 3.72c-.17 1.23-.3 2.43-.37 3.6a23.1 23.1 0 0 0-.04 3.44c.24 4.36 2.89 6.51 5.58 7.5-1.1-.4-.9-1.67.04-3.35.48-.84 1.11-1.78 1.9-2.74a51.44 51.44 0 0 1 4.17-4.28 118.2 118.2 0 0 1 4.4-3.54c1.77-1.29 3.14-2.12 3.4-2.36 3.28-2.82 6.61-5.66 9.92-8.43.83-.7 1.72-1.34 2.56-2 .87-.65 1.67-1.35 2.58-1.94 1.78-1.21 3.48-2.46 5.34-3.48 7.06-4.1 14.29-6.73 21.54-9l5.48-1.62c1.87-.49 3.68-1.05 5.55-1.57a118.94 118.94 0 0 0 4.22-1.21l1.63-.53a129.9 129.9 0 0 0 6.53-2.34c9.01-3.55 17.23-6.95 24.99-9.27l2.88-.8c.95-.25 1.92-.6 2.86-.75l2.8-.6 1.4-.3c.48-.11.94-.21 1.4-.25l5.53-.73 2.78-.2 2.85-.08c7.65-.08 15.7.77 23.7 2.57 8.03 1.74 16.01 4.38 23.7 7.7 13.03 5.71 25.35 13.33 35.14 22.61a90.36 90.36 0 0 1 6.73 7.23 69.5 69.5 0 0 1 5.4 7.7l2.62 4.76c.85 1.6 1.8 3.16 2.5 4.8 1.49 3.25 3.14 6.46 4.29 9.79l1.13 2.97.57 1.48c.16.5.3 1.01.45 1.52l1.79 6.07c.88 4.1 1.87 8.22 2.27 12.38 1 8.31 1.1 16.68.1 24.97zM86.56 267.9l-.17.03c.08 0 .13.06.17-.04zM110.46 267l-.03.4c.04-.14.04-.27.03-.4z"/><path d="M114.75 231.6l.16-.05c-.08 0-.12.02-.16.06z"/><path d="M104.06 230.34a29.53 29.53 0 0 0-14 3.47c-4.6 2.48-9 6.1-13.74 6.84-4.98.85-10 1.1-14.84 2.94-4.85 1.85-9.77 2.05-14.77 2.21-4.83.16-9.31 3.6-14.2 2.8-1.3-.22-2.63-.67-3.93-.97-.64-.15-3.6 2.3-4.13 3.36-.24.48 1.81 2.66 2.39 3.23 1.87 1.87 4.72 4.29 6.14 5 2.89 1.43 4.25 2.08 7.1 2.35 5.87.56 11.6.73 17.6 3.4 4.87 2.16 9.5-.05 14.24.76 2.56.43 5.15 1.08 7.7 1.6 2.54.52 5.06.86 7.54.59 5.3-.65 10.62 1.18 15.83.54 2.57-.32 5.08-.62 7.63-.97 2.54-.31 5.11-.69 7.65-.66 2.95.02 5.91.18 8.86.5a113.46 113.46 0 0 0 11.7.45c3.95-.02 7.9-.1 11.84.07 7.13.34 13.99 4.19 21.2 3.05 3.8-.6 8.95-.75 12.28-8.17.8-1.81 1.1-5.05 1.17-7.91-.1 4.7-4.08-5.17-4.37-5.63-1.78-2.8-3.77-4.05-5.66-5.98-3.66-3.75-6.9-8.65-10.83-9.82-8.24-2.43-16.48-2.04-24.79-2.2-1.76-.04-3.53-.05-5.3-.04l-2.65.02h-1.32l-1.4.04c-3.76.08-7.5.12-11.26-.04-4.47-.12-9.06-.7-13.68-.83z"/><g><path d="M264.14 409.4l.04.16c0-.07.06-.13-.04-.17zM261.45 385.16h.4a1.12 1.12 0 0 0-.4 0zM225.85 384.7l-.07-.15c0 .07.03.11.07.14z"/><path d="M225.58 394.91c.34 4.48 1.8 8.76 4.4 12.77 2.68 4.14 6.39 8.1 7.2 12.53.83 4.67 1.03 9.31 2.58 13.87 1.62 4.62 1.32 9.2.92 13.81-.13 1.1-.06 2.22.11 3.34l.59 3.36c.18 1.13.34 2.26.35 3.38 0 1.11-.2 2.2-.64 3.27-.47 1.14-1.15 2.23-1.77 3.3-.3.53 1.37 3.74 2.27 4.5.4.36 3-.95 3.7-1.35 2.27-1.25 5.33-3.41 6.29-4.66 1-1.24 1.72-2.18 2.3-3.14.59-.97.97-1.97 1.37-3.36.85-2.88 1.37-5.75 2.24-8.64a42.08 42.08 0 0 1 3.35-8.76c2.57-4.87.51-9.78 1.4-14.63.88-5.24 2.68-10.66 1.9-15.72-.8-5.4.5-11-.5-16.21-1-5.18-2.5-10.06-3.18-15.22-.44-3.11-.73-6.25-.87-9.4-.1-2-.3-3.98-.55-5.95-.26-1.97-.63-3.87-1-5.8-.73-3.85-1.54-7.69-2.08-11.57-.51-3.46-.15-7.01.03-10.55.19-3.53.18-7.05-1.03-10.33-1.3-3.5-2.38-8.32-10.3-10.14-1.92-.44-5.16-.14-7.99.32 4.64-.76-4.32 4.84-4.72 5.21-2.42 2.23-3.28 4.39-4.82 6.57-3 4.23-7.2 8.35-7.6 12.33-.41 4.18-.14 8.23.42 12.23.53 3.96 1.3 7.85 1.97 11.8.27 1.67.6 3.35.9 5.01l.86 4.95c.56 3.3 1.1 6.6 1.42 9.93.2 2.02.23 4.26.26 6.44.03 2.16.06 4.36.22 6.51z"/></g><g><path d="M406 226.66l.2-.01c-.1-.02-.15-.08-.2.01zM377.19 225.8l.05-.4a.89.89 0 0 0-.05.4zM371.76 261.12l-.16.05c.08.02.13-.01.16-.05z"/><path d="M382.89 262.66a37.76 37.76 0 0 0 15.56-2.42c2.7-1 5.45-2.3 8.2-3.38 2.73-1.07 5.52-1.97 8.32-2.16 5.93-.38 11.96-.37 17.91-2.14a47.2 47.2 0 0 1 4.14-.98c1.3-.22 2.6-.42 3.9-.43 1.3-.03 2.6-.04 3.9.03l3.9.38c2.47.37 5.02-.11 7.58-.22.64-.04 1.29-.07 1.93-.09.64 0 1.27.07 1.9.14 1.26.19 2.5.42 3.65 1.07 1.22.68 2.36 1.57 3.52 2.32.53.4 4.36-.61 5.36-1.34.46-.33-.68-3.19-1.05-3.97a31.8 31.8 0 0 0-2.25-4.1 18.6 18.6 0 0 0-2.43-3.06 23.73 23.73 0 0 0-3.5-2.79 15.12 15.12 0 0 0-3.89-1.83c-6.82-2.29-13.66-3.38-20.97-6.4a16.29 16.29 0 0 0-5.63-1.08 23.5 23.5 0 0 0-2.91-.01c-1.3.05-2.58.15-3.87.18-1.28.03-2.6-.1-3.9-.36-1.4-.3-2.8-.65-4.19-1.02-1.4-.38-2.83-.8-4.23-1.16-1.41-.37-2.8-.67-4.23-.9a24.53 24.53 0 0 0-4.3-.36c-6.1.07-12.35-2.13-18.73-1.93-3.19.13-6.36.38-9.58.65-1.62.15-3.25.3-4.87.4l-2.43.14c-.78.05-1.55.1-2.32.12-3.62.13-7.23.12-10.86-.05-9.15-.4-18.23.81-27.34.96-8.25.13-16.41-3.27-24.65-1.67-4.36.85-10.28 1.33-13.62 8.96-.81 1.86-.94 5.1-.82 7.97-.2-4.7 5.05 4.89 5.41 5.33 2.23 2.69 4.61 3.8 6.92 5.6 4.45 3.5 8.5 8.2 13.1 9.1 9.64 1.9 19.1.97 28.66.6 8.13-.3 16.24-1.14 24.39-1.16l1.83.02c.6.02 1.17.07 1.76.1l3.52.3c2.34.2 4.79.5 7.2.64z"/></g><g><path d="M205.36 97.54l-.04-.19c0 .09-.06.15.04.2zM207.69 124.88l-.4-.01c.14.03.27.02.4 0zM243.3 126.62l.07.15c0-.07-.03-.12-.07-.15z"/><path d="M243.76 115.44a33.53 33.53 0 0 0-4.18-14.51c-2.65-4.82-6.33-9.56-7.15-14.7-.87-5.42-1.16-10.86-3-16.2-1.85-5.35-2.04-10.72-2.23-16.28-.19-5.35-3.63-10.34-2.92-15.77.2-1.45.63-2.92.9-4.38.15-.71-2.35-4-3.42-4.57-.48-.27-2.63 2.03-3.19 2.66-1.84 2.08-4.22 5.22-4.91 6.78-1.4 3.15-2.01 4.62-2.27 7.74-.55 6.44-.68 12.66-3.36 19.22-2.17 5.32.04 10.48-.72 15.74-.82 5.69-2.63 11.46-1.95 17.05.76 5.97-.66 12.14.25 18.1.45 2.94 1.05 5.86 1.6 8.78a161.5 161.5 0 0 1 1.46 8.8c.44 3.46.73 6.94.88 10.43.18 4.42.77 8.78 1.43 13.13l1 6.52c.3 2.11.56 4.18.76 6.28.36 3.79-.17 7.63-.51 11.44-.17 1.94-.3 3.71-.23 5.8.08 2.02.33 4.03.9 6.02 1.19 4.2 2.15 10.02 10 12.49 1.9.6 5.15.38 7.98-.04-4.65.67 4.47-5.3 4.89-5.68 2.5-2.37 3.43-4.7 5.06-7.02 1.57-2.24 3.46-4.4 5.02-6.52a23.55 23.55 0 0 0 2.01-3.17 8.9 8.9 0 0 0 1.06-3.28c.57-4.8.44-9.52.02-14.21-.21-2.35-.5-4.69-.79-7.02l-.92-6.68c-.97-7.6-2.47-15.13-3.16-22.76a68.74 68.74 0 0 1-.22-7.02c0-2.38.02-4.78-.1-7.17z"/></g><g><path d="M240.1 250.76zM235.28 251.52zM257.66 270.58l-.06.14c.06-.04.07-.1.06-.14z"/><path d="M263.84 263.6a16.9 16.9 0 0 0 1.2-3.06 18.66 18.66 0 0 0 .56-3.66 19.44 19.44 0 0 0-.3-4.13 18.42 18.42 0 0 0-1.36-4.29 22.18 22.18 0 0 0-5.9-7.53c-2.37-1.96-4.71-3.23-6.65-4.57a19.8 19.8 0 0 0-6.24-2.96c-2.09-.54-4.2-.62-6.17 0-1.96.63-3.72 1.07-5.5 1.58a31.28 31.28 0 0 0-5.37 1.97c-1.7.88-2.83 2.64-3.56 4.36-.4.84-.7 1.7-1.1 2.45a7.3 7.3 0 0 1-1.42 2.08c-.33.33-.72.65-1.12.99-.36.33-.74.67-1.07 1.04-.17.18.08.97.6 1.7a5.8 5.8 0 0 0 1.61 1.71c.43.2 2.95-.36 3.6-.42a31.1 31.1 0 0 1 3.45-.38c1.09-.06 2.04-.02 2.5-.03.93-.05 1.6.04 2.12.09.5.03.92.09 1.27.06a2.92 2.92 0 0 1 2.86 1.7 5.16 5.16 0 0 1 .52 1.38l.03.13c.03.14.01.2.02.01a4.85 4.85 0 0 1 1.1-2.54l.25-.26.21-.17a.59.59 0 0 1 .11-.08c.05-.03-.01 0 0 0-.07.03-.63.23-1.63.19-.3 0-.59-.02-.86-.07-.3-.04-.72-.08-1.05-.17a6.37 6.37 0 0 1-.52-.13l-.65-.16a9.64 9.64 0 0 1-1.24-.42c-.82-.27-1.66-.6-2.41-1l3.76 2.62c-.06-.03-.13-.05-.4-.23-.2-.14-.58-.43-.87-.74-.49-.5-.97-1.16-1.27-1.72-.4-.73-.52-1.25-.49-1.13a9.44 9.44 0 0 1-.74 4.85 4.44 4.44 0 0 1-.92 1.4c-.02.03.02-.01.03-.01l.06-.04.4-.23c.12-.04.16-.1.31-.1.18.03.35.07.5.12.32.36.55-.4.78-.7l.02-.03h-.16l-.4.06-.85.12a105.76 105.76 0 0 0-6.19 1.34c2.29-.57 1.15.13-.6 1-.88.45-1.91.85-2.72 1.29-.8.43-1.41.81-1.5.88-2.29 1.85-2.83 3.5-3.65 5.69a27.37 27.37 0 0 0-1.01 3.45c-.24 1.2-.4 2.5-.39 3.73.03 1.23.2 2.49.58 3.56.38 1.1.95 2.1 1.72 2.84a19.85 19.85 0 0 0 11.04 5.33c3.8.58 7.39.18 10.86-.54a30.9 30.9 0 0 0 8.49-3.24 42.31 42.31 0 0 0 7.92-5.7c1.47-1.34 3.01-2.76 4.43-4.47a25.75 25.75 0 0 0 3.73-5.74l-.58 1.34.22-.41z"/></g></svg>