<?xml version="1.0" encoding="utf-8"?>
<!-- Generator: Adobe Illustrator 16.0.0, SVG Export Plug-In . SVG Version: 6.00 Build 0)  -->
<!DOCTYPE svg PUBLIC "-//W3C//DTD SVG 1.1//EN" "http://www.w3.org/Graphics/SVG/1.1/DTD/svg11.dtd">
<svg version="1.1" id="Layer_1" xmlns="http://www.w3.org/2000/svg" xmlns:xlink="http://www.w3.org/1999/xlink" x="0px" y="0px"
	 width="500px" height="500px" viewBox="0 0 500 500" enable-background="new 0 0 500 500" xml:space="preserve">
<g>
	<g>
		<g>
			<g>
				<path d="M339.266,358.228l-0.618,0.576C338.932,358.551,339.131,358.402,339.266,358.228z"/>
				<path d="M379.797,249.508l0.177,0.221C379.902,249.513,379.845,249.48,379.797,249.508z"/>
				<path d="M361.499,228.67l-0.214-0.604C361.373,228.359,361.44,228.538,361.499,228.67z"/>
				<g>
					<path d="M365.092,271.874c-1.074,9.72-3.322,19.317-6.493,28.669l-1.22,3.501l-0.604,1.753l-0.716,1.717
						c-0.95,2.296-1.899,4.589-2.849,6.88c-1.078,2.248-2.155,4.494-3.231,6.737l-0.8,1.69l-0.893,1.647l-1.785,3.296l-1.829,3.404
						c-0.619,1.11-1.279,2.125-1.915,3.198c-0.325,0.526-0.632,1.067-0.97,1.586l-1.054,1.525c-0.721,1.002-1.359,2.077-2.146,3.03
						c-2.935,3.999-6.347,7.634-10.022,11.025c-3.675,3.399-7.755,6.406-12.112,9.041c-4.358,2.629-8.966,4.962-13.837,6.786
						c-5.142,1.966-10.439,3.549-15.824,4.826l-4.058,0.895l-4.129,0.767l-4.131,0.762l-4.151,0.613
						c-11.068,1.633-22.23,2.454-33.439,2.402c-22.563-0.101-44.42-5.019-64.996-14.319c-2.466-1.155-4.93-2.309-7.393-3.462
						l-7.258-3.711l-3.438-2.015c-1.133-0.691-2.336-1.276-3.397-2.086l-3.276-2.288l-1.639-1.146l-1.548-1.273
						c-8.366-6.665-15.596-14.865-21.691-23.91c-0.842-1.184-1.582-2.45-2.37-3.672l-1.161-1.849l-0.579-0.923l-0.289-0.462
						l-0.227-0.44l-0.909-1.746l-0.455-0.869l-0.34-0.915l-0.693-1.819c-0.233-0.604-0.326-1.253-0.501-1.874
						c-0.077-0.308-0.213-0.766-0.397-1.336c-0.156-0.578-0.257-1.293-0.435-2.077c-0.085-0.395-0.175-0.809-0.268-1.237
						c-0.042-0.438-0.085-0.893-0.13-1.356c-0.081-0.93-0.253-1.902-0.196-2.894c0-0.496,0-0.991-0.001-1.481
						c-0.005-0.492-0.019-0.981,0.052-1.458c0.089-0.962,0.175-1.882,0.252-2.717c0.275-1.663,0.532-3.006,0.6-3.684
						c0.07-0.616-0.637,0.941-1.494,2.978c-0.379,1.025-0.682,2.188-1.002,3.228c-0.177,0.52-0.245,1.018-0.326,1.454
						c-0.078,0.438-0.145,0.814-0.195,1.098c-0.082,0.47-0.167,0.955-0.253,1.454c-0.051,0.5-0.066,1.017-0.101,1.547
						c-0.054,1.059-0.174,2.181-0.046,3.313c0.094,1.134,0.076,2.331,0.358,3.481c0.249,1.154,0.365,2.375,0.794,3.486
						c0.184,0.568,0.367,1.135,0.548,1.695l0.275,0.841c0.122,0.266,0.243,0.529,0.364,0.791c0.496,1.039,0.951,2.086,1.454,3.034
						c1.051,1.853,2.015,3.52,2.813,4.858c1.624,2.705,3.181,4.96,4.55,7.098c1.453,2.078,2.849,3.952,4.236,5.848
						c1.447,1.85,2.996,3.638,4.663,5.626c0.842,0.986,1.825,1.926,2.817,2.971c1.02,1.019,2.038,2.162,3.254,3.263
						c2.555,2.229,5.003,4.578,7.777,6.528l2.026,1.527c0.676,0.508,1.338,1.036,2.069,1.464l4.287,2.708
						c1.415,0.948,2.893,1.688,4.349,2.494l4.377,2.388c1.476,0.762,2.979,1.468,4.466,2.206c1.5,0.713,2.963,1.505,4.491,2.154
						c12.093,5.496,24.729,9.783,37.82,12.911c10.596,2.498,21.791,3.622,32.981,3.677c11.201,0.064,22.395-0.924,33.288-2.382
						c11.716-1.523,23.756-3.912,35.207-8.356c11.434-4.455,22.392-10.98,31.458-19.774c4.803-4.679,9.116-9.845,12.871-15.358
						l1.417-2.064l1.264-2.062l2.521-4.124c1.745-2.709,3.215-5.597,4.757-8.442c6.053-11.43,10.896-23.707,13.603-36.61
						c2.684-12.701,3.379-25.876,1.994-38.792c-1.36-12.927-4.765-25.539-9.593-37.445c-1.285-3.539-2.989-6.868-4.56-10.264
						l-1.194-2.539c-0.425-0.831-0.887-1.64-1.328-2.46l-2.679-4.909c-0.452-0.819-0.88-1.634-1.354-2.457l-1.539-2.492
						c-0.5-0.842-1.057-1.637-1.608-2.436c-0.557-0.795-1.09-1.611-1.667-2.387c-1.177-1.532-2.31-3.108-3.565-4.563
						c-0.619-0.735-1.222-1.489-1.856-2.209l-1.929-2.132c-3.288-3.548-6.776-6.875-10.437-9.964
						c-3.675-3.071-7.496-5.933-11.43-8.607c-3.952-2.647-8.022-5.089-12.177-7.367c-4.166-2.254-8.435-4.302-12.768-6.196
						c-4.345-1.869-8.775-3.531-13.263-5.034c-4.496-1.479-9.067-2.74-13.689-3.823c-9.259-2.095-18.763-3.407-28.437-3.426
						c-4.362-0.017-8.772,0.146-13.124,0.786c-2.17,0.328-4.367,0.563-6.511,0.972c-2.127,0.473-4.252,0.944-6.376,1.416
						c-8.389,2.17-16.343,5.184-23.948,8.398l-5.651,2.439l-5.55,2.454l-5.474,2.389l-2.836,1.264l-2.917,1.324
						c-7.747,3.625-15.28,8.009-22.27,13.354c-7.395,5.623-15.576,13.2-21.679,21.956c-3.14,4.295-5.656,8.898-7.706,13.279
						c-0.459,1.12-0.911,2.221-1.352,3.298c-0.429,1.08-0.851,2.13-1.155,3.198c-0.327,1.058-0.63,2.09-0.908,3.092
						c-0.288,0.999-0.529,1.975-0.687,2.94c-0.682,3.728,0.137,5.202,1.21,5.6c-0.44-0.164-0.094-1.342,0.681-3.029
						c0.393-0.841,0.869-1.817,1.449-2.835c0.615-1.004,1.295-2.065,1.992-3.124c0.351-0.525,0.703-1.054,1.051-1.577
						c0.382-0.502,0.76-0.999,1.129-1.484c0.745-0.953,1.451-1.857,2.074-2.655c1.285-1.559,2.316-2.623,2.52-2.902
						c2.598-3.302,5.503-6.582,8.49-9.802c0.754-0.799,1.563-1.555,2.338-2.335c0.796-0.762,1.532-1.577,2.377-2.287
						c1.659-1.447,3.242-2.946,4.983-4.236c6.579-5.166,13.43-9.121,20.581-12.577c1.806-0.827,3.618-1.657,5.446-2.494
						c1.869-0.758,3.706-1.59,5.614-2.341c1.933-0.767,3.89-1.542,5.879-2.331c2.063-0.832,4.192-1.697,6.279-2.604
						c8.804-3.818,17.274-7.623,25.798-10.371c8.538-2.758,17.023-4.45,25.784-4.581c8.769-0.147,17.707,0.833,26.489,2.812
						c8.795,1.927,17.441,4.815,25.79,8.415c14.131,6.213,27.462,14.505,38.422,24.982c2.706,2.641,5.273,5.394,7.641,8.278
						c2.328,2.912,4.455,5.927,6.339,9.076l2.811,5.111c0.919,1.711,1.935,3.382,2.704,5.157c1.619,3.514,3.402,6.969,4.691,10.6
						c0.418,1.073,0.837,2.149,1.257,3.227l0.63,1.618c0.188,0.546,0.346,1.103,0.52,1.654c0.682,2.209,1.365,4.427,2.052,6.651
						c1.06,4.516,2.224,9.044,2.776,13.681C365.825,253.133,366.106,262.555,365.092,271.874z"/>
				</g>
			</g>
		</g>
	</g>
	<g>
		<g>
			<g>
				<path d="M85.753,258.225l-0.168,0.021C85.662,258.245,85.713,258.266,85.753,258.225z"/>
				<path d="M110.125,256.969l-0.042,0.158C110.125,257.073,110.131,257.018,110.125,256.969z"/>
				<path d="M114.977,242.705l0.15-0.025C115.055,242.677,115.011,242.688,114.977,242.705z"/>
				<g>
					<path d="M104.614,242.402c-4.65,0.099-9.253,0.795-13.767,1.886c-4.631,1.204-9.146,2.908-13.866,3.441
						c-4.976,0.639-9.939,1.03-14.854,2.072c-4.936,1.055-9.809,1.45-14.809,1.824c-4.821,0.358-9.489,2.054-14.334,1.987
						c-1.293-0.015-2.586-0.123-3.879-0.17c-0.635-0.024-3.724,1.135-4.308,1.593c-0.266,0.21,1.674,0.975,2.214,1.173
						c1.768,0.652,4.471,1.475,5.848,1.683c2.784,0.415,4.088,0.616,6.897,0.55c5.801-0.133,11.453-0.413,17.266,0.295
						c4.705,0.566,9.457-0.619,14.143-0.571c2.538,0.025,5.085,0.125,7.62,0.193c2.532,0.08,5.058,0.086,7.573-0.154
						c5.363-0.572,10.73,0.018,16.061-0.465c2.629-0.234,5.239-0.369,7.861-0.577c2.618-0.164,5.248-0.412,7.867-0.396
						c3.057,0.017,6.115,0.091,9.167,0.224l5.859,0.203l5.914,0.104c3.942,0.043,7.883,0.058,11.823,0.181
						c7.125,0.223,14.023,1.852,21.2,1.488c3.799-0.193,8.933-0.188,12.172-3.118c0.787-0.713,1.05-2.006,1.074-3.15
						c-0.042,1.878-4.133-2.118-4.431-2.307c-1.809-1.146-3.818-1.67-5.731-2.467c-3.705-1.545-7.005-3.55-10.959-4.066
						c-8.284-1.079-16.529-1.026-24.849-1.198c-3.55-0.064-7.039-0.117-10.64-0.111c-3.625,0.021-7.246,0.03-10.872-0.042
						C113.55,242.481,109.085,242.379,104.614,242.402z"/>
				</g>
			</g>
		</g>
	</g>
	<g>
		<g>
			<g>
				<path d="M254.514,410.579l0.029,0.167C254.538,410.67,254.557,410.618,254.514,410.579z"/>
				<path d="M251.504,386.503l0.162,0.025C251.608,386.491,251.553,386.491,251.504,386.503z"/>
				<path d="M236.863,383.273l-0.039-0.143C236.828,383.201,236.843,383.243,236.863,383.273z"/>
				<g>
					<path d="M237.545,393.262c0.5,4.443,1.458,8.808,2.841,13.039c1.44,4.364,3.244,8.64,3.872,13.163
						c0.628,4.786,0.975,9.536,1.738,14.285c0.826,4.788,0.73,9.478,0.53,14.271c-0.079,1.153-0.075,2.307-0.035,3.463l0.081,1.735
						l0.033,1.732c0.02,1.156,0.029,2.313-0.02,3.468c-0.068,1.151-0.242,2.293-0.493,3.424c-0.281,1.206-0.623,2.392-1.009,3.567
						c-0.178,0.574,0.192,3.707,0.492,4.376c0.137,0.305,1.351-1.304,1.677-1.764c1.072-1.487,2.547-3.869,2.997-5.157
						c0.494-1.294,0.852-2.25,1.156-3.225c0.296-0.975,0.479-1.971,0.704-3.346c0.497-2.843,0.732-5.667,1.148-8.49
						c0.302-2.821,0.764-5.648,1.313-8.515c0.978-4.659-0.05-9.464,0.088-14.142c0.087-5.06,0.501-10.178-0.189-15.171
						c-0.71-5.319-0.624-10.698-1.462-15.938c-0.841-5.18-1.85-10.236-2.533-15.415c-0.433-3.061-0.807-6.129-1.123-9.205
						c-0.2-1.943-0.44-3.881-0.705-5.814c-0.271-1.93-0.625-3.83-0.954-5.743c-0.672-3.819-1.373-7.632-1.967-11.464
						c-1.121-6.873-0.858-13.838-2.537-20.611c-0.891-3.591-1.833-8.486-5.313-11.054c-0.847-0.624-2.167-0.643-3.297-0.459
						c1.854-0.302-1.316,4.349-1.446,4.674c-0.79,1.949-0.931,3.979-1.358,5.971c-0.829,3.854-2.184,7.435-1.937,11.317
						c0.255,4.077,0.786,8.09,1.429,12.085c0.609,3.98,1.317,7.938,1.981,11.927l0.866,5.079l0.78,5.062
						c0.518,3.374,1.022,6.752,1.447,10.142c0.25,2.037,0.417,4.188,0.596,6.319C237.123,388.979,237.307,391.128,237.545,393.262z"
						/>
				</g>
			</g>
		</g>
	</g>
	<g>
		<g>
			<g>
				<path d="M405.907,236.367l0.195-0.006C406.015,236.355,405.958,236.33,405.907,236.367z"/>
				<path d="M377.261,235.834l0.057-0.158C377.264,235.729,377.255,235.784,377.261,235.834z"/>
				<path d="M371.471,250.023l-0.166,0.023C371.385,250.05,371.434,250.04,371.471,250.023z"/>
				<g>
					<path d="M382.945,250.583c5.181,0.122,10.423-0.1,15.669-0.841c2.688-0.369,5.396-0.875,8.107-1.292
						c2.702-0.398,5.432-0.773,8.188-0.861c5.829-0.17,11.67-0.292,17.497-1.253c0.727-0.104,1.45-0.208,2.171-0.312
						c0.691-0.082,1.381-0.163,2.068-0.245c1.378-0.138,2.756-0.296,4.131-0.293c1.376-0.019,2.755-0.057,4.133-0.014
						c1.375,0.081,2.755,0.162,4.146,0.244c5.303,0.469,10.796,0.098,15.935,1.854c1.353,0.506,2.665,1.086,3.987,1.625
						c0.632,0.298,4.259,0.588,5.07,0.431c0.369-0.071-1.318-1.621-1.809-2.045c-0.797-0.676-1.814-1.565-2.854-2.266
						c-1.039-0.705-2.063-1.344-2.78-1.71c-1.445-0.774-2.554-1.2-3.674-1.637c-1.127-0.403-2.266-0.853-3.888-1.17
						c-6.681-1.561-13.334-2.187-20.209-3.233c-2.775-0.361-5.693-0.272-8.29-0.125c-2.671,0.156-5.348,0.389-8.013,0.183
						l-4.309-0.327l-4.323-0.445c-2.874-0.262-5.77-0.506-8.688-0.519c-6.199-0.01-12.437-0.974-18.744-0.94
						c-3.128,0.045-6.247,0.125-9.385,0.25c-3.132,0.128-6.265,0.256-9.4,0.384c-3.605,0.135-7.215,0.209-10.822,0.226
						c-9.118,0.042-18.195,0.736-27.291,1.002c-8.226,0.239-16.282-0.94-24.529-0.112c-4.365,0.439-10.283,0.766-13.819,3.899
						c-0.858,0.763-1.075,2.069-1.025,3.214c-0.078-1.877,4.902,1.846,5.258,2.016c2.159,1.026,4.509,1.419,6.765,2.091
						c4.368,1.302,8.3,3.089,12.885,3.349c9.608,0.54,19.096-0.046,28.685-0.412c8.15-0.31,16.288-0.828,24.442-1.021
						c2.464-0.083,4.847,0.021,7.304,0.07C377.968,250.385,380.463,250.523,382.945,250.583z"/>
				</g>
			</g>
		</g>
	</g>
	<g>
		<g>
			<g>
				<path d="M215.016,96.588l-0.026-0.187C214.992,96.486,214.973,96.544,215.016,96.588z"/>
				<path d="M217.664,123.757l-0.162-0.036C217.56,123.766,217.615,123.768,217.664,123.757z"/>
				<path d="M232.271,127.888l0.038,0.159C232.306,127.969,232.291,127.922,232.271,127.888z"/>
				<g>
					<path d="M231.75,116.757c-0.417-4.985-1.28-9.922-2.617-14.764c-1.395-4.981-3.163-9.909-3.783-15.064
						c-0.662-5.457-1.09-10.887-2.138-16.298c-1.051-5.441-1.438-10.792-1.842-16.314c-0.386-5.323-2.074-10.484-2.1-15.833
						c-0.005-1.428,0.085-2.856,0.113-4.286c0.015-0.703-1.189-4.112-1.656-4.752c-0.213-0.291-0.949,1.856-1.14,2.451
						c-0.627,1.953-1.411,4.926-1.6,6.436c-0.383,3.057-0.546,4.479-0.47,7.565c0.153,6.375,0.466,12.564-0.244,18.944
						c-0.576,5.163,0.614,10.417,0.604,15.594c-0.006,5.607-0.42,11.238,0.179,16.824c0.684,5.947,0.49,11.966,1.231,17.912
						c0.792,5.854,1.583,11.699,2.377,17.557c0.438,3.428,0.817,6.864,1.138,10.305c0.406,4.349,0.974,8.674,1.569,12.992
						l0.896,6.476c0.278,2.136,0.53,4.252,0.764,6.383c0.846,7.742,0.231,15.232,1.719,23.206c0.778,4.165,1.569,9.85,4.959,12.922
						c0.825,0.746,2.14,0.817,3.273,0.651c-1.86,0.263,1.458-4.859,1.6-5.204c0.856-2.148,1.068-4.409,1.566-6.6
						c0.965-4.26,2.453-8.037,2.365-12.428c-0.095-4.644-0.471-9.248-0.96-13.839c-0.245-2.295-0.517-4.59-0.798-6.881
						c-0.296-2.248-0.593-4.499-0.891-6.754c-0.986-7.673-2.179-15.316-3.051-23.006c-0.28-2.293-0.429-4.652-0.572-7.031
						C232.094,121.543,231.948,119.147,231.75,116.757z"/>
				</g>
			</g>
		</g>
	</g>
	<g>
		<g>
			<g>
				<path d="M239.719,251.098l-0.013-0.008C239.704,251.098,239.682,251.113,239.719,251.098z"/>
				<path d="M238.909,253.622l-0.133-0.085C238.819,253.569,238.866,253.598,238.909,253.622z"/>
				<path d="M249.192,263.396l-0.043,0.085C249.181,263.45,249.191,263.423,249.192,263.396z"/>
				<g>
					<path d="M252.867,258.553c0.344-0.757,0.66-1.487,0.88-2.326c0.205-0.843,0.407-1.689,0.429-2.542
						c0.128-1.701-0.173-3.376-0.789-4.855c-0.674-1.52-1.652-2.817-2.747-3.888c-1.114-1.066-2.288-1.912-3.396-2.773
						c-2.333-1.802-5.33-2.939-8.295-2.518c-1.492,0.222-2.793,0.465-4.043,0.817c-1.256,0.36-2.513,0.792-3.715,1.455
						c-1.147,0.659-2.041,1.707-2.689,2.822c-0.674,1.106-1.179,2.211-1.902,3.211c-0.194,0.269-0.408,0.532-0.625,0.801
						c-0.193,0.271-0.387,0.548-0.568,0.837c-0.231,0.308,0.299,2.039,0.644,2.359c0.156,0.145,1.256-0.503,1.542-0.644
						c0.458-0.265,1.048-0.561,1.564-0.807c0.5-0.256,0.971-0.448,1.224-0.594c0.489-0.31,0.877-0.47,1.202-0.652
						c0.305-0.195,0.624-0.351,0.949-0.626c0.727-0.516,1.477-0.898,2.283-1.038c0.796-0.143,1.661-0.021,2.422,0.509
						c0.628,0.435,0.958,0.491,1.316,0.548c0.352,0.052,0.752,0.08,0.962,0.437c0.224,0.381,0.266,0.863,0.228,1.245
						c-0.027,0.385-0.139,0.668-0.033,0.822c0.112,0.179-0.055,0.455-0.252,0.621c-0.198,0.18-0.408,0.249-0.387,0.371
						c-0.01,0.088-0.018,0.193-0.02,0.302l-0.201,0.472c-0.067,0.543-0.229,1.193-0.75,1.715c-0.392,0.376-0.923,0.688-1.528,0.882
						c-1.469,0.504-3.204,1.182-4.738,0.972c-0.679-0.104-1.166-0.658-1.364-1.104c-0.223-0.462-0.144-0.729-0.433-0.653
						c-0.319,0.005-0.508,0.056-3.602,0.042c-0.753,0.003-2.048,0.18-3.171,0.403c0.923-0.176,0.5,0.209-0.148,0.778
						c-0.66,0.558-1.438,1.323-1.51,1.423c-0.784,1.112-0.772,2.199-0.866,3.444c-0.029,0.599-0.044,1.231-0.022,1.883
						c0.048,0.627,0.113,1.306,0.277,1.936c0.317,1.264,0.939,2.506,1.955,3.32c2.128,1.764,4.674,2.649,7.122,2.992
						c2.469,0.351,4.866,0.118,7.189-0.359c3.951-0.854,7.62-2.815,10.841-5.793c1.835-1.708,3.698-3.844,4.84-6.461
						c-0.074,0.175-0.149,0.351-0.229,0.537C252.763,258.771,252.814,258.662,252.867,258.553z"/>
				</g>
			</g>
		</g>
	</g>
</g>
</svg>
