<svg xmlns="http://www.w3.org/2000/svg" viewBox="0 0 500 500"><g id="Layer_2"><path d="M307.8 61.9l.8-.1-.8.1zm-96.4 44.9l-.1-.5.1.5zm16.9 36.5l-.1.4.1-.4zM249.6 123.4a365.3 365.3 0 0 1 42.2-23.3l5.7-2.6 5.7-2.4c1.9-.8 3.8-1.4 5.8-2.1l2.9-.9 2.9-.8c7.5-1.9 16-2.5 24.5-1.6a143.6 143.6 0 0 1 50.8 16.4l2.8 1.7 1.4.9 1.3.9 1.6 1.1 1.4 1.3 2.6 2.9a9.5 9.5 0 0 1 1.7 3.5 4 4 0 0 1-.1 1.9c-.3.6-.7 1.1-1.2 1.6-1 .9-2.1 1.5-3.2 2.3l-1.6 1.1-1.7 1.1-6.1 4c-15.8 10.2-30.4 22.6-47.1 32.3-4.5 2.6-9 5-13.6 7.9a43.6 43.6 0 0 0-12.4 15.5l-.6 2-.1 1v1c0 .5.1.6.2.2l.3-.8.2-.6.3-.5a9.5 9.5 0 0 1 3-3.5c2.2-1.7 4.5-2.7 5.6-3.2 6.6-3.2 16.5-6.7 21.4-9 9.8-4.5 14.5-6.6 24-12.1l29.5-17 3.7-2.2 1.9-1.1 2.5-1.5 5-3.2 2.4-1.7 2.3-1.8c1.5-1.2 2.8-2.4 4-3.9 1.1-1.4 2.1-3.1 2.7-4.9.5-1.9.6-3.8.4-5.6-.1-1.9-.6-3.7-1.1-5.5a44.2 44.2 0 0 0-11.3-17l-3.7-3.3-3.2-2.5-3.3-2.3-3.4-2.1c-9-5.5-18.5-9.4-27.8-13.1a165.4 165.4 0 0 0-31.5-9.1c-2.7-.6-5.5-.8-8.3-1.2l-4.2-.4a59 59 0 0 0-4.3-.2c-2.9 0-5.8-.1-8.7.2l-4.4.4-4.2.6a232 232 0 0 0-34.3 8.6 164.7 164.7 0 0 0-39.1 19l-3.6 2.5-3.6 2.6-3.5 2.7-3.5 2.8-3.4 3-.9.8-.9.9-1.8 1.8a68.3 68.3 0 0 0-12.1 16.8c-3.1 6-5.3 12.1-7 17.8-2 6.6-3.4 12.7-5 18.2s-3.3 10.4-5.5 14.8l-.5 1.1-.5 1-1.1 2-.6 1-.7 1.1-1.4 2.3-2.8 4.5-2.9 4.4-3 4.3-3.1 4.3-3.3 4.2-3.4 4.1a217 217 0 0 1-14.8 15.6 207.7 207.7 0 0 1-32.8 25.8c-5.6 3.6-11.4 7-17.2 10.4-11.7 6.8-23.6 13.6-35.2 21.7-6.1 4.3-13.5 9.2-20.2 14.9a57.5 57.5 0 0 0-15.6 18.7c-1.5 3.3-.4 6.5 1.3 8.8-1.4-1.9 2.8-3.3 7.4-4.2 4.6-.9 9.7-1.2 10.3-1.3 7.5-1.7 14.8-5 22.2-7.4 14.3-4.8 28.1-7.6 42-15.3a326 326 0 0 0 42.4-27.9 264.8 264.8 0 0 0 38.2-36.1c5-5.7 9.6-11.8 14-18.1l3.2-4.8 3.1-4.9 2.9-5 1.4-2.5 1.5-2.9c3.9-7.7 6.6-15.7 8.7-23 2.1-7.4 3.6-14.1 5.5-19.8l.8-2.5.9-2.3.9-2.2 1-2 .5-1 .6-.9 1.1-1.8 1.2-1.6.6-.8.7-.7 1.4-1.5 1.5-1.4.8-.7.4-.4.5-.4 2.1-1.7 1-.8 1.1-.8 2.2-1.6 4.3-3zm198.2 140l.3-.6-.3.6zm-46.5 88.8h-.4.4zm32.3 28.6l-.7.5.7-.5zM422.5 326.3l-.1-.2v-.1l.8-.5 1.7-1.1a172 172 0 0 0 26.5-20.9 101 101 0 0 0 11.8-14.2l2.5-3.9 1.2-2 1.1-2c.8-1.3 1.5-2.7 2.1-4l1-2 .5-1 .5-1.2a76.6 76.6 0 0 0 5.4-18.2l.4-2.2.3-2.2.6-4.5.4-4.5.2-2.2.1-2.2.2-3.9v-3.9c0-2.6-.2-5.2-.4-7.8l-.4-3.9-.5-3.9-.7-3.9-.4-1.9-.5-1.9-1-3.9-1.3-3.8-.6-1.9-.9-2.1-1.1-2.7-1.2-2.5-2.8-4.6-.7-1.2a2 2 0 0 0-.4-.6l-.4-.5-1.7-1.9-1.7-1.9a15.8 15.8 0 0 0-6-4.1 14 14 0 0 0-7.9-.2c-2.5.7-4.9 1.9-7.4 3.4-1.8 1.1-3.6 2.5-5.3 3.7l-4.5 3.2-6.9 5-14 9.7-28.4 19c-4.6 3.1-9.2 6.2-13.6 9.5l-3.4 2.5-1.7 1.2-1.7 1.3-1.8 1.5c-.6.5-1.4.8-2.2.8l-2.3-.1h-.9l-1.2-.1c-.8-.1-1.7 0-2.4-.4a5.5 5.5 0 0 1-1.5-1.9l-1.5-2.4-2.7-3.8-5.5-6.9-5.6-6.9-2.5-3.4-2.6-3.5c-.9-1.2-3.8-4-5-5.7-.6-.9-.9-1.2-1-1.8l-.1-1 .1-.9c0-.2-.2-.2-.6 0-.5.2-1 .6-1.5 1.1l-.7.9-.3.5-.2.5c-.2.7-.3 1.5-.2 2 0 1.6.6 3.6 1.6 5.7.9 2.1 2.2 4.2 3.4 6.3 2.4 4.2 5 8.1 6.8 10.6a178.6 178.6 0 0 1 7.3 11.2l.4.7.4.8 1.9 3.7c.7 1.3 1.4 2.6 2.6 3.6.6.5 1.3 1 2 1.3l2.4.7 2.6.5 1.4.2a47.8 47.8 0 0 0 7.8 1c1 0 2.1-.2 3-.6 1-.4 1.9-.9 2.7-1.4l2.6-1.8.6-.4.5-.3 1-.6 4.2-2.6 16.7-10.3a598.4 598.4 0 0 1 34-19.5c5.7-3 11.3-6.4 16.8-9.9l1-.7.5-.3.8-.5 1.7-1.1c.5-.4 1.1-.7 1.7-.9.6-.2 1.3-.3 1.9 0 .8.4 1.3 1.2 1.7 1.9l.7 1.1.6 1.2.5 1.2.1.5v.1l.1.3.2.6.7 2.6c.2.9.5 1.7.6 2.6a86.2 86.2 0 0 1-3.3 44.6l-.6 1.7-.7 1.5-.7 1.5-.3.8-.4.7-.7 1.4-.4.7-.5.8-2 3.2a75 75 0 0 1-22.8 22c-4.7 3.1-9.8 6.1-15 9.2l-4.7 2.7c-2.5 1.5-5 3-7.2 4.9a25 25 0 0 0-8.9 13.5c-1.1 4.1-.9 8.4.3 12.5a35.1 35.1 0 0 0 4.1 9l1.7 2.9 2.4 3.8 2 3.1 1 1.5.2.3.1.1.3.4 1.5 1.8.7 1v.3l-.2.2-.5.2c-.8.2-1.6.3-2.5.2h-.9l-2-.2-10.3-1-21-2.6c-17.8-2.4-35.9-4.7-54.3-6.2-9.2-.7-18.4-1.3-27.8-1.6-4.7-.1-9.4-.2-14.2-.1l-7.2.2-3.6.2-1.8.1-1.9.2a200.7 200.7 0 0 0-51.8 11 254 254 0 0 0-45.9 21.6c-7.6 4.5-16.4 9.8-24.4 15.4a97 97 0 0 0-20.3 17.4c-2.4 3-2.1 6-1.1 8.2-.9-1.8 3.8-3 9-3.7 5.1-.8 10.7-1.3 11.4-1.5 8.5-1.9 17.1-5.6 25.6-8.5 16.5-5.6 31.6-9.3 47.7-15.5 2.1-.9 4.2-1.6 6.3-2.3 2.1-.7 4.2-1.6 6.3-2.2l6.3-2 6.3-1.7 3.1-.9 3.1-.7 3.1-.7 3.1-.6 6.2-1 3.1-.4 3.1-.3c4.1-.5 8.5-.6 12.9-.7a426.5 426.5 0 0 1 40.9 1.7c15.8 1.4 31.7 3.2 47.8 5 8.1.9 16.2 1.9 24.4 2.7l12.5 1.2 3.7.3 5.9.3c3.9.1 7.8.2 11.5.1 4.5-.2 8.9-.7 12.7-1.8 1.9-.5 3.6-1.2 5.3-1.9l1.2-.6 1.1-.6 2.1-1.4c1.1-.6 1.8-1.4 2.7-2.3a22 22 0 0 0 2.2-2.9l.8-1.6.5-1.4.7-2.7c.3-1.9.4-4.1-.2-6.7-.5-2.6-1.8-5.6-3.6-8.6-1.8-3.1-3.8-6.1-5.8-9.2l-6-9.4-1.2-1.9-.7-1.2-1.4-2.3-1.4-2.3-.4-.6.7-.7c-.1 0 0 .1 0 0z"/></g><g id="Layer_4"><path d="M277.9 208.4h.2c-.1-.1-.2-.1-.2 0zm-16.9 6.5l-.1-.2.1.2zm9.4 19.2zM274.6 232.5c1.7-.8 3-1.9 4.3-3.6l.5-.7.3-.3.2-.3.4-1.2c.3-.7.9-1.4 1.5-1.4s1.2.2 1.7.5l.8.5.4.2.2.1.1.1s.1.1.1 0l-.1-.6-.1-.3-.1-.1s-.1-.1 0-.1l.8.8.2.2.3.4.6.9 1.1 1.8c1.5 2.3 4.5 3.4 5.5 6l.7 2.2c.1.4 2.2 1 2.9.9.3 0 .8-1.7.9-2.2.4-1.5.8-3.6.8-4.5-.1-1.8-.2-2.7-.8-4.1l-2-4.5-.8-2.4-.1-.6-.2-.7-.3-.9-.1-.5-.1-.2v-.1s0-.1-.1 0l-3.8 2.2-1 .6-.5.3.1.1.3.4.6.8.2.2.1.1a785 785 0 0 0 5.6-4.6l-.5-.6c-1.3-1.7-2.8-3.1-4.4-4.6a14.2 14.2 0 0 0-13.4-4L271 210a21 21 0 0 0-5.5 1.9c-3.3 1.9-6 4.3-8.7 6.3l-4.8 3.4c-4 2.8-6.9 6.3-10.1 9-2.9 2.5-6.9 2.9-9 5.3-.6.6-1.3 1.3-1.7 2.3-.5 1-.7 2.4-.4 4.8.2 1.1.9 3 1.6 4.5-.6-1.3.2-.8 1.2 0a42 42 0 0 0 2.5 1.9c1.7 1 3.1 1 4.8 1.3 3.1.6 6.6 1.7 9 .6 5-2.2 8.4-5.9 11.7-9 2.8-2.6 5.3-5.2 8.1-7 1.4-1.4 3.3-2.1 4.9-2.8z"/><path d="M296.2 232.5h.2-.2zm-16.9 6.5l-.1-.2.1.2zm9.4 19.2c0 .1 0 .1 0 0zm4.3-1.5c1.7-.8 3-1.9 4.3-3.6l.5-.7.3-.3.2-.3.4-1.2c.3-.7.9-1.4 1.5-1.4s1.2.2 1.7.5l.8.5.4.2.2.1.1.1s.1.1.1 0l-.1-.6-.1-.3-.1-.1s-.1-.1 0-.1l.8.8.2.2.3.4.6.9 1.1 1.8c1.5 2.3 4.5 3.4 5.5 6l.7 2.2c.1.4 2.2 1 2.9.9.3 0 .8-1.7.9-2.2.4-1.5.8-3.6.8-4.5-.1-1.8-.2-2.7-.8-4.1l-2-4.5-.8-2.4-.1-.6-.2-.7-.3-.9-.1-.5-.1-.2v-.1s0-.1-.1 0l-3.8 2.2-1 .6-.5.3.1.1.3.4.6.8.2.2.1.1a785 785 0 0 0 5.6-4.6l-.5-.6c-1.3-1.7-2.8-3.1-4.4-4.6a14.2 14.2 0 0 0-13.4-4l-6.4 1.3a21 21 0 0 0-5.5 1.9c-3.3 1.9-6 4.3-8.7 6.3l-4.8 3.4c-4 2.8-6.9 6.3-10.1 9-2.9 2.5-6.9 2.9-9 5.3-.6.6-1.3 1.3-1.7 2.3-.5 1-.7 2.4-.4 4.8.2 1.1.9 3 1.6 4.5-.6-1.3.2-.8 1.2 0a42 42 0 0 0 2.5 1.9c1.7 1 3.1 1 4.8 1.3 3.1.6 6.6 1.7 9 .6 5-2.2 8.4-5.9 11.7-9 2.8-2.6 5.3-5.2 8.1-7 1.3-1.4 3.2-2.1 4.9-2.8z"/><path d="M313.7 258.5h.2-.2zm-16.9 6.5l-.1-.2.1.2zm9.4 19.2c0 .1 0 .1 0 0zm4.3-1.5c1.7-.8 3-1.9 4.3-3.6l.5-.7.3-.3.2-.3.4-1.2c.3-.7.9-1.4 1.5-1.4s1.2.2 1.7.5l.8.5.4.2.2.1.1.1s.1.1.1 0l-.1-.6-.1-.3-.1-.1s-.1-.1 0-.1l.8.8.2.2.3.4.6.9 1.1 1.8c1.5 2.3 4.5 3.4 5.5 6l.7 2.2c.1.4 2.2 1 2.9.9.3 0 .8-1.7.9-2.2.4-1.5.8-3.6.8-4.5-.1-1.8-.2-2.7-.8-4.1l-2-4.5-.8-2.4-.1-.6-.2-.7-.3-.9-.1-.5-.1-.2v-.1s0-.1-.1 0l-3.8 2.2-1 .6-.5.3.1.1.3.4.6.8.2.2.1.1a785 785 0 0 0 5.6-4.6l-.5-.6c-1.3-1.7-2.8-3.1-4.4-4.6a14.2 14.2 0 0 0-13.4-4l-6.4 1.3a21 21 0 0 0-5.5 1.9c-3.3 1.9-6 4.3-8.7 6.3l-4.8 3.4c-4 2.8-6.9 6.3-10.1 9-2.9 2.5-6.9 2.9-9 5.3-.6.6-1.3 1.3-1.7 2.3-.5 1-.7 2.4-.4 4.8.2 1.1.9 3 1.6 4.5-.6-1.3.2-.8 1.2 0a42 42 0 0 0 2.5 1.9c1.7 1 3.1 1 4.8 1.3 3.1.6 6.6 1.7 9 .6 5-2.2 8.4-5.9 11.7-9 2.8-2.6 5.3-5.2 8.1-7 1.3-1.4 3.2-2.1 4.9-2.8z"/></g></svg>
