<?xml version="1.0" encoding="utf-8"?>
<!-- Generator: Adobe Illustrator 22.1.0, SVG Export Plug-In . SVG Version: 6.00 Build 0)  -->
<svg version="1.1" xmlns="http://www.w3.org/2000/svg" xmlns:xlink="http://www.w3.org/1999/xlink" x="0px" y="0px"
	 viewBox="0 0 500 500" style="enable-background:new 0 0 500 500;" xml:space="preserve">
<style type="text/css">
	.st0{fill:#231F20;}
</style>
<g id="Layer_2">
	<g>
		<g>
			<g>
				<path class="st0" d="M309.2,71.5l0.7-0.1C309.6,71.4,309.4,71.4,309.2,71.5z"/>
				<path class="st0" d="M218.4,114l0-0.3C218.4,114,218.4,114,218.4,114z"/>
				<path class="st0" d="M218.2,138.7l-0.2,0.5C218.1,138.9,218.1,138.8,218.2,138.7z"/>
				<g>
					<path class="st0" d="M242.8,113.4c7.1-4.8,14.6-9,22.2-12.9c7.7-3.9,15.6-7.4,23.6-10.4c2.1-0.8,4.1-1.5,6.2-2.2
						c2.1-0.7,4.2-1.3,6.3-2c2.1-0.6,4.2-1.1,6.3-1.7l3.2-0.7c1.1-0.2,2.1-0.5,3.2-0.6c8.5-1.3,17.4-1.4,26.3-0.3
						c9.4,1.2,18.7,3.4,27.7,6.4c9,3,17.7,6.9,25.6,11.8c1,0.7,1.9,1.3,2.9,2l1.5,1l1.4,1.1l2.7,2.2c0.8,0.7,1.6,1.5,2.4,2.3
						c1.5,1.6,3,3.4,4.2,5.2c0.6,0.9,1.2,1.8,1.6,2.7c0.2,0.4,0.5,0.9,0.6,1.3c0.1,0.2,0.2,0.6,0.3,0.9c0.1,0.6,0.1,1.3-0.1,1.9
						c-0.3,0.6-0.7,1.1-1.1,1.6c-0.2,0.2-0.6,0.6-1,0.9c-0.4,0.3-0.9,0.6-1.3,1c-1.1,0.7-2.1,1.5-3,2.2c-3.9,2.8-7.9,5.6-12,8.3
						c-15.8,10.5-31.4,21.4-47.5,31.6c-4.3,2.7-8.7,5.4-12.9,8.4c-1,0.7-4,3.2-6.9,6c-1.4,1.4-2.8,2.9-3.8,4.4
						c-0.5,0.8-1,1.6-1.3,2.3c-0.3,0.8-0.5,1.7-0.5,2.4c0,0.3,0,0.3,0.1,0.1c0.1-0.2,0.1-0.7,0.4-1.1c0.4-0.9,1.1-1.9,1.9-2.7
						c1.6-1.6,3.6-3,4.4-3.6c5.7-4,14.7-8.9,19.3-11.6c9.3-5.4,13.7-7.8,23.1-13.6c9.7-6,19.3-11.8,28.8-17.9l7.1-4.6l7-4.7
						c0.6-0.4,1.3-0.8,1.9-1.3c0.3-0.2,0.7-0.5,1-0.8c0.3-0.3,0.7-0.6,1.1-1c1.4-1.4,2.7-3.1,3.1-5.1c0.5-2,0.3-4.1-0.3-6.1
						l-0.2-0.8c-0.1-0.2-0.1-0.4-0.2-0.6l-0.5-1.2c-0.3-0.8-0.7-1.5-1.1-2.2c-1.2-2.3-2.6-4.4-4.2-6.3c-0.8-1-1.6-1.9-2.5-2.9
						c-0.9-0.9-1.8-1.9-2.8-2.7c-1.9-1.6-3.7-3.3-5.8-4.7c-1-0.7-2-1.5-3-2.1l-3.1-1.9c-8.4-5.1-17.4-8.9-26.4-12.1
						c-9.8-3.4-19.8-6-30.1-7.4c-2.6-0.4-5.2-0.6-7.8-0.9c-1.3-0.1-2.6-0.1-3.9-0.2c-1.3,0-2.6-0.1-4-0.1c-2.7,0.1-5.3,0-8,0.3
						c-1.3,0.1-2.7,0.2-4,0.4l-3.9,0.6c-5.5,0.9-11,2.1-16.4,3.6c-5.4,1.4-10.6,3.1-15.8,5c-10.4,3.8-20.5,8.3-30,14
						c-2.3,1.4-4.7,2.8-7,4.4c-1.1,0.8-2.3,1.5-3.4,2.3l-3.4,2.4c-1.1,0.8-2.2,1.7-3.3,2.5c-1.1,0.9-2.2,1.7-3.2,2.6l-3.2,2.7
						c-0.5,0.4-1.1,1-1.6,1.5l-1.6,1.6c-4.2,4.2-7.8,9.1-10.5,14.3c-2.7,5.2-4.7,10.6-6.3,15.9c-1.9,6.2-3.3,12.2-4.9,18
						c-1.6,5.8-3.4,11.3-5.8,16.4l-0.5,1.2c-0.2,0.4-0.4,0.8-0.6,1.2l-1.2,2.4c-0.4,0.8-0.9,1.6-1.3,2.4l-1.4,2.4
						c-0.9,1.6-1.9,3.2-2.9,4.8c-1,1.6-2,3.2-3.1,4.7c-1.1,1.5-2.1,3.1-3.2,4.6l-3.3,4.5l-3.5,4.4c-1.2,1.5-2.4,2.9-3.6,4.3
						c-4.9,5.7-10.1,11.1-15.6,16.3c-5.5,5.2-11.2,10.1-17.2,14.9c-5.4,4.3-10.9,8.3-16.5,12.2c-5.6,3.9-11.4,7.6-17.2,11.3
						c-11.6,7.3-23.4,14.4-35.2,22.2c-6.2,4.1-13.7,8.9-20.6,13.9c-6.9,5-13.3,10.3-17.6,15.2c-2.1,2.4-2.1,4-1.4,4.9
						c-0.5-0.8,3.1-2.8,7.1-4.5c3.9-1.8,8.2-3.4,8.7-3.6c6.6-3.1,13.5-7,20.3-10.4c13.2-6.7,25.4-11.9,38.8-20.1
						c14.1-8.6,27.8-17.8,40.9-28.1c13.1-10.3,25.5-21.8,36.6-34.6c4.8-5.4,9.2-11.2,13.3-17.2c1-1.5,2.1-3,3-4.5l2.9-4.6
						c1-1.5,1.8-3.1,2.8-4.7l1.4-2.4l1.3-2.5c3.5-6.8,6-13.9,7.9-20.9c2-7,3.5-13.8,5.5-20c0.3-0.9,0.6-1.8,0.9-2.8
						c0.3-0.9,0.6-1.9,1-2.7l1.1-2.6c0.4-0.9,0.8-1.7,1.2-2.5l0.6-1.3c0.2-0.4,0.5-0.8,0.7-1.2l1.4-2.4c0.5-0.8,1.1-1.5,1.6-2.2
						l0.8-1.1c0.3-0.4,0.6-0.7,0.9-1l1.8-2.1c0.6-0.7,1.3-1.3,2-1.9l1-1c0.3-0.3,0.7-0.6,1.1-1l2.3-1.9l1.2-1l1.2-0.9l2.4-1.8
						C239.4,115.7,241.1,114.6,242.8,113.4z"/>
				</g>
			</g>
		</g>
	</g>
	<g>
		<g>
			<g>
				<path class="st0" d="M455,267.8l0.4-0.6C455.2,267.4,455.1,267.6,455,267.8z"/>
				<path class="st0" d="M414.2,356l-0.2-0.1C414.1,356,414.2,356,414.2,356z"/>
				<path class="st0" d="M421.1,375.3c-0.4,0.1-0.8,0.2-1.3,0.2C420.5,375.4,420.8,375.3,421.1,375.3z"/>
				<g>
					<path class="st0" d="M412.6,330.3l-1-1.7c-0.3-0.5-0.6-1-0.8-1.4c-0.5-0.9-0.9-1.7-1.1-2.4c-0.2-0.7-0.3-1.2-0.3-1.4
						c0-0.3,0-0.4,0.2-0.6c0.2-0.6,1.5-1.8,3.4-3c0.5-0.3,1-0.6,1.5-1l1.7-1l3.3-2.1c8.9-5.6,17.9-11.6,25.9-19.1
						c4.1-3.8,8-8,11.4-12.5c0.9-1.1,1.7-2.3,2.5-3.4l1.2-1.7l1.1-1.8c0.8-1.2,1.5-2.4,2.2-3.6c0.7-1.2,1.4-2.4,2-3.8
						c2.7-5.3,4.3-10.8,5.5-16.3l0.4-2.1c0.2-0.7,0.3-1.4,0.4-2.1l0.6-4.2c0.2-1.4,0.3-2.8,0.4-4.2l0.2-2.1l0.1-2.1
						c0.5-9.9-0.2-19.9-2.5-29.6c-0.3-1.2-0.6-2.4-0.9-3.6l-1.2-3.6c-0.2-0.6-0.4-1.2-0.6-1.8l-0.7-1.8c-0.5-1.2-0.9-2.4-1.5-3.5
						l-1.8-3.4c-0.2-0.3-0.3-0.6-0.5-0.8l-0.5-0.8l-1.1-1.6l-1.1-1.6c-0.2-0.3-0.4-0.5-0.6-0.8c-0.2-0.3-0.4-0.5-0.8-0.9
						c-1.2-1.4-2.7-2.5-4.5-3.1c-1.3-0.4-2.8-0.5-4.2-0.3c-0.7,0.1-1.4,0.3-2.1,0.5c-0.3,0.1-0.7,0.2-1,0.4
						c-0.2,0.1-0.3,0.1-0.5,0.2l-0.4,0.2c-1,0.5-1.9,1.1-2.8,1.7l-2.3,1.6c-18.8,13.3-37.3,25.7-56.4,38.5
						c-4.6,3.1-9.2,6.2-13.7,9.4l-3.4,2.4l-3.4,2.4l-1.7,1.3c-0.5,0.4-1.1,0.8-1.5,1.1c-0.7,0.5-1.4,0.7-2.3,0.7
						c-1,0-2.4-0.2-3.7-0.4l-2.1-0.3c-0.7-0.1-1.5-0.2-2.2-0.2l-0.9-0.1c-0.2,0-0.4,0-0.6-0.1c-0.4-0.1-0.8-0.2-1.1-0.4
						c-0.3-0.2-0.6-0.5-0.8-0.9c-0.1-0.2-0.2-0.3-0.3-0.5l-0.4-0.8c-2.9-5.2-6.5-9.6-10.2-13.9c-1.9-2.2-3.9-4.5-5.8-6.7
						c-0.9-1.1-1.9-2.2-2.8-3.3l-2.7-3.4c-0.9-1.2-3.9-4.2-5.4-7.4c-0.7-1.6-0.9-3.1-0.7-4.4c0.1-0.7,0.3-1.2,0.5-1.8
						c0.2-0.5,0.4-0.9,0.5-1.2c0.1-0.3-0.1-0.1-0.5,0.3c-0.4,0.4-0.9,1.1-1.3,2c-0.2,0.4-0.4,0.9-0.5,1.4c0,0.2-0.1,0.5-0.2,0.7
						c0,0.2,0,0.5-0.1,0.7c0,1,0.1,1.8,0.2,2.4c0.4,1.8,1.3,3.7,2.5,5.7c1.2,1.9,2.7,3.9,4,5.8c2.8,3.9,5.7,7.4,7.7,9.8
						c4,4.8,6.7,8.4,9.1,12.3c0.3,0.5,0.6,1,0.8,1.5c0.3,0.5,0.5,1,0.8,1.5c0.5,1,1.3,2.5,2.4,3.6c1.1,1.1,2.9,1.5,4.5,1.6
						c1.5,0.1,2.7,0.3,4.4,0.6c0.8,0.1,1.7,0.3,2.5,0.4c0.9,0.1,1.7,0.2,2.8,0.2c1,0,2.1-0.2,3.1-0.6c0.5-0.2,0.9-0.5,1.4-0.7
						c0.4-0.3,0.8-0.5,1.1-0.8c1.4-1,2.6-1.9,4-2.8l4.1-2.7c5.5-3.6,10.9-7.2,16.4-10.7c10.9-7.1,21.9-14.1,33-21
						c5.4-3.3,10.8-6.8,16.1-10.4c2.7-1.8,5.4-3.6,8.1-5.4c0.7-0.5,1.3-0.9,1.9-1.2c0.3-0.2,0.6-0.3,0.8-0.5
						c0.2-0.1,0.6-0.3,0.7-0.3c0.6-0.3,1.3-0.4,1.9-0.2c0.4,0.1,0.8,0.4,1.1,0.8c0.1,0.1,0.1,0.1,0.3,0.3l0.4,0.5
						c0.3,0.4,0.5,0.8,0.8,1.2l1.6,2.5l1.4,2.7l0.7,1.3l0.6,1.4l1.1,2.8c0.3,1,0.6,2,0.9,2.9c0.3,1,0.6,1.9,0.8,2.9
						c2.6,10.7,3,22,1.7,32.9c-0.6,5.5-1.8,10.9-3.4,16l-0.6,1.9c-0.2,0.6-0.5,1.2-0.7,1.8c-0.5,1.2-0.9,2.5-1.6,3.6l-0.9,1.7
						c-0.3,0.6-0.6,1.1-1,1.7c-0.7,1.2-1.4,2.4-2.2,3.5c-6.3,9.8-14.9,17.9-24.7,24.6c-4.9,3.4-10.1,6.6-15.3,9.8l-4,2.4
						c-1.3,0.8-2.7,1.6-4.2,2.6c-1.5,1-3.1,2.2-4.7,3.8c-1.5,1.6-3.1,3.9-3.7,6.6c-0.5,1.9-0.6,3.9-0.3,5.7c0.2,1.8,0.7,3.3,1.3,4.7
						c1.1,2.8,2.7,5,3.8,6.9c2.4,3.9,4.9,7.7,7.4,11.5l7.6,11.4l1.7,2.5c0.1,0.2,0.2,0.3,0.3,0.5c0,0,0,0.1,0,0.1c0,0-0.1,0-0.1,0.1
						c-0.1,0.1-0.1,0.1-0.2,0.1c-0.2,0.1-0.5,0.2-0.7,0.2l-0.2,0l-0.4,0.1c-0.7,0.1-1.4,0.2-2.1,0.2c-2.9,0.2-5.9,0.2-9,0.1
						c-6.9-0.2-13.9-0.8-21-1.5c-7-0.7-14.1-1.6-21.2-2.5c-17.9-2.3-35.9-4.5-54-6c-9.1-0.8-18.2-1.4-27.3-1.6
						c-9.2-0.3-18.4-0.3-27.7,0.5c-17,1.4-33.4,5.4-48.9,11.3c-15.5,5.9-30.2,13.3-44.6,21.4c-7.6,4.3-16.4,9.5-24.8,14.6
						c-8.4,5.1-16.3,10.2-22.2,14.5c-2.9,2.1-3.3,3.6-2.9,4.5c-0.3-0.7,4.1-2.5,8.8-4.1c4.7-1.7,9.6-3.4,10.2-3.6
						c7.8-3.2,16.1-7.4,24.1-11.2c15.5-7.3,29.6-13.3,46-20.3c2.1-1,4.3-1.8,6.5-2.6c2.2-0.8,4.3-1.8,6.5-2.5l6.5-2.3
						c2.2-0.7,4.4-1.3,6.6-2c1.1-0.3,2.2-0.7,3.3-1l3.3-0.8l3.3-0.8c1.1-0.3,2.2-0.6,3.3-0.7l6.7-1.1c1.1-0.2,2.2-0.3,3.4-0.4
						l3.4-0.3c4.5-0.6,9.1-0.7,13.7-0.8c4.6-0.1,9.3-0.1,13.9,0.1c9.3,0.3,18.7,0.9,28.1,1.7c16,1.4,32,3.3,48.1,5.2
						c8.1,0.9,16.1,1.9,24.3,2.7c8.1,0.8,16.3,1.6,24.8,1.8c3.2,0.1,6.4,0.1,9.8-0.1c0.8,0,1.7-0.1,2.6-0.2l0.9-0.1
						c0.4,0,0.8-0.1,1.1-0.2l2.2-0.4c0.8-0.1,1.4-0.4,2.1-0.6c0.7-0.2,1.4-0.5,2-0.7c0.3-0.1,0.7-0.3,1-0.4l0.9-0.5
						c0.6-0.3,1.1-0.7,1.7-1.1c0.1-0.1,0.3-0.2,0.5-0.3l0.3-0.3c0.2-0.2,0.5-0.5,0.7-0.7c0.3-0.5,0.7-1,0.9-1.5
						c0.3-0.6,0.4-1.2,0.5-1.8c0.1-0.3,0.1-0.6,0.1-0.9c0-0.3,0-0.6,0-0.9c0-0.3-0.1-0.6-0.1-1l-0.2-1c-0.3-0.7-0.5-1.4-0.9-2.1
						c-0.7-1.4-1.6-2.8-2.4-4.2c-2-3.2-4.1-6.4-6.1-9.6C419.8,341.9,416.2,336.1,412.6,330.3z"/>
				</g>
			</g>
		</g>
	</g>
</g>
<g id="Layer_4">
	<g>
		<g>
			<g>
				<path class="st0" d="M278.1,213.3l0.1,0C278.2,213.2,278.1,213.2,278.1,213.3z"/>
				<path class="st0" d="M263.7,219.1l0-0.1C263.7,219.1,263.7,219.1,263.7,219.1z"/>
				<path class="st0" d="M267.2,229.5L267.2,229.5C267.1,229.6,267.2,229.5,267.2,229.5z"/>
				<g>
					<path class="st0" d="M271.7,227.2c2-1,3.8-2.1,5.6-3.3c1.8-1.2,4.2-2.8,5.7-2.7c0.7,0,1.1,0.2,1.7,0.6c0.3,0.2,0.6,0.5,1,0.8
						c0.2,0.2,0.3,0.3,0.4,0.3l0.3,0.3l0.2,0.2l0.1,0.1c0,0,0.1,0.1,0.1,0c-0.1-0.1-0.1-0.3-0.2-0.5l-0.1-0.2l-0.1-0.1
						c0,0-0.1-0.1,0-0.1l0.1,0.1l0.2,0.2l0.3,0.4l0.6,0.8c0.8,1.1,1.6,2.2,2.4,3.4c1.5,2.2,3.9,3.9,5.2,6.3c0.4,0.6,0.6,1.3,1,2
						c0.2,0.3,1.8,1.4,2.2,1.5c0.2,0,0.1-1.2,0.1-1.6c-0.1-1.1-0.3-2.8-0.6-3.5c-0.5-1.5-0.8-2.2-1.6-3.6c-1.7-2.8-3.4-5.5-4.5-8.6
						c-0.1-0.2-0.1-0.4-0.2-0.5l-0.1-0.3c0-0.1-0.1-0.2-0.2-0.3l0,0l0,0c0,0,0,0,0,0l-0.1,0.1l-1.1,0.7l-1.1,0.8l-0.5,0.4l0,0
						l0.2,0.2l0.4,0.4l0.7,0.9l0,0.1l0,0l0,0l0,0l0,0c0,0,0.2-0.1,0.1,0l0,0l0,0l0.2-0.2c0.2-0.2,0.3-0.3,0.5-0.5
						c0.5-0.5,0.9-0.9,1.8-1.8c-0.3-0.4-0.6-0.7-0.9-1.1c-0.3-0.3-0.6-0.7-0.9-1c-0.5-0.5-1-1.1-1.6-1.6c-0.8-0.7-1.7-1.4-2.7-1.9
						c-1.1-0.5-2.2-0.8-3.2-1c-2.1-0.3-4-0.2-5.5,0.2c-3.4,0.8-6.9,1.5-10,3.1c-3,1.6-5.6,3.6-8.1,5.5l-4.4,3.3
						c-3.7,2.8-6.7,6.1-10,8.9c-2.9,2.6-6.4,4-9.1,6.4c-1.5,1.3-3.5,2.5-4,5.2c-0.1,0.7,0.2,1.6,0.5,2.4c-0.3-0.6,0.4-0.5,1.2-0.3
						c0.8,0.3,1.7,0.6,1.8,0.6c1.3,0.2,2.5-0.1,3.8-0.2c2.4-0.2,4.9-0.3,7-1.5c4.3-2.6,7.7-6,11.1-9.1c2.9-2.6,5.6-5.2,8.6-7.3
						C267.8,229.2,269.8,228.2,271.7,227.2z"/>
				</g>
			</g>
		</g>
	</g>
	<g>
		<g>
			<g>
				<path class="st0" d="M296.4,237.4l0.1,0C296.5,237.4,296.5,237.4,296.4,237.4z"/>
				<path class="st0" d="M282,243.3l0-0.1C282,243.2,282,243.3,282,243.3z"/>
				<path class="st0" d="M285.5,253.7L285.5,253.7C285.5,253.7,285.5,253.7,285.5,253.7z"/>
				<g>
					<path class="st0" d="M290,251.4c2-1,3.8-2.1,5.6-3.3c1.8-1.2,4.2-2.8,5.7-2.7c0.7,0,1.1,0.2,1.7,0.6c0.3,0.2,0.6,0.5,1,0.8
						c0.2,0.2,0.3,0.3,0.4,0.3l0.3,0.3l0.2,0.2l0.1,0.1c0,0,0.1,0.1,0.1,0c-0.1-0.1-0.1-0.3-0.2-0.5l-0.1-0.2l-0.1-0.1
						c0,0-0.1-0.1,0-0.1l0.1,0.1l0.2,0.2l0.3,0.4l0.6,0.8c0.8,1.1,1.6,2.2,2.4,3.4c1.5,2.2,3.9,3.9,5.2,6.3c0.4,0.6,0.6,1.3,1,2
						c0.2,0.3,1.8,1.4,2.2,1.5c0.2,0,0.1-1.2,0.1-1.6c-0.1-1.1-0.3-2.8-0.6-3.5c-0.5-1.5-0.8-2.2-1.6-3.6c-1.7-2.8-3.4-5.5-4.5-8.6
						c-0.1-0.2-0.1-0.4-0.2-0.5l-0.1-0.3c0-0.1-0.1-0.2-0.2-0.3l0,0l0,0c0,0,0,0,0,0l-0.1,0.1l-1.1,0.7l-1.1,0.8l-0.5,0.4l0,0
						l0.2,0.2l0.4,0.4l0.7,0.9l0,0.1l0,0l0,0l0,0l0,0c0,0,0.2-0.1,0.1,0l0,0l0,0l0.2-0.2c0.2-0.2,0.3-0.3,0.5-0.5
						c0.5-0.5,0.9-0.9,1.8-1.8c-0.3-0.4-0.6-0.7-0.9-1.1c-0.3-0.3-0.6-0.7-0.9-1c-0.5-0.5-1-1.1-1.6-1.6c-0.8-0.7-1.7-1.4-2.7-1.9
						c-1.1-0.5-2.2-0.8-3.2-1c-2.1-0.3-4-0.2-5.5,0.2c-3.4,0.8-6.9,1.5-10,3.1c-3,1.6-5.6,3.6-8.1,5.5l-4.4,3.3
						c-3.7,2.8-6.7,6.1-10,8.9c-2.9,2.6-6.4,4-9.1,6.4c-1.5,1.3-3.5,2.5-4,5.2c-0.1,0.7,0.2,1.6,0.5,2.4c-0.3-0.6,0.4-0.5,1.2-0.3
						c0.8,0.3,1.7,0.6,1.8,0.6c1.3,0.2,2.5-0.1,3.8-0.2c2.4-0.2,4.9-0.3,7-1.5c4.3-2.6,7.7-6,11.1-9.1c2.9-2.6,5.6-5.2,8.6-7.3
						C286.2,253.4,288.1,252.4,290,251.4z"/>
				</g>
			</g>
		</g>
	</g>
	<g>
		<g>
			<g>
				<path class="st0" d="M313.9,263.4l0.1,0C314,263.4,314,263.4,313.9,263.4z"/>
				<path class="st0" d="M299.5,269.3l0-0.1C299.5,269.2,299.5,269.3,299.5,269.3z"/>
				<path class="st0" d="M303,279.7L303,279.7C303,279.7,303,279.7,303,279.7z"/>
				<g>
					<path class="st0" d="M307.5,277.4c2-1,3.8-2.1,5.6-3.3c1.8-1.2,4.2-2.8,5.7-2.7c0.7,0,1.1,0.2,1.7,0.6c0.3,0.2,0.6,0.5,1,0.8
						c0.2,0.2,0.3,0.3,0.4,0.3l0.3,0.3l0.2,0.2l0.1,0.1c0,0,0.1,0.1,0.1,0c-0.1-0.1-0.1-0.3-0.2-0.5l-0.1-0.2l-0.1-0.1
						c0,0-0.1-0.1,0-0.1l0.1,0.1l0.2,0.2l0.3,0.4l0.6,0.8c0.8,1.1,1.6,2.2,2.4,3.4c1.5,2.2,3.9,3.9,5.2,6.3c0.4,0.6,0.6,1.3,1,2
						c0.2,0.3,1.8,1.4,2.2,1.5c0.2,0,0.1-1.2,0.1-1.6c-0.1-1.1-0.3-2.8-0.6-3.5c-0.5-1.5-0.8-2.2-1.6-3.6c-1.7-2.8-3.4-5.5-4.5-8.6
						c-0.1-0.2-0.1-0.4-0.2-0.5l-0.1-0.3c0-0.1-0.1-0.2-0.2-0.3l0,0l0,0c0,0,0,0,0,0l-0.1,0.1l-1.1,0.7l-1.1,0.8l-0.5,0.4l0,0
						l0.2,0.2l0.4,0.4l0.7,0.9l0,0.1l0,0l0,0l0,0l0,0c0,0,0.2-0.1,0.1,0l0,0l0,0l0.2-0.2c0.2-0.2,0.3-0.3,0.5-0.5
						c0.5-0.5,0.9-0.9,1.8-1.8c-0.3-0.4-0.6-0.7-0.9-1.1c-0.3-0.3-0.6-0.7-0.9-1c-0.5-0.5-1-1.1-1.6-1.6c-0.8-0.7-1.7-1.4-2.7-1.9
						c-1.1-0.5-2.2-0.8-3.2-1c-2.1-0.3-4-0.2-5.5,0.2c-3.4,0.8-6.9,1.5-10,3.1c-3,1.6-5.6,3.6-8.1,5.5l-4.4,3.3
						c-3.7,2.8-6.7,6.1-10,8.9c-2.9,2.6-6.4,4-9.1,6.4c-1.5,1.3-3.5,2.5-4,5.2c-0.1,0.7,0.2,1.6,0.5,2.4c-0.3-0.6,0.4-0.5,1.2-0.3
						c0.8,0.3,1.7,0.6,1.8,0.6c1.3,0.2,2.5-0.1,3.8-0.2c2.4-0.2,4.9-0.3,7-1.5c4.3-2.6,7.7-6,11.1-9.1c2.9-2.6,5.6-5.2,8.6-7.3
						C303.7,279.4,305.6,278.4,307.5,277.4z"/>
				</g>
			</g>
		</g>
	</g>
</g>
</svg>
