<svg xmlns="http://www.w3.org/2000/svg" viewBox="0 0 500 500"><style>.st0{fill:#231f20}</style><g id="Layer_2"><path class="st0" d="M309.2 71.5l.7-.1c-.3 0-.5 0-.7.1zM218.4 114v-.3.3zM218.2 138.7l-.2.5c.1-.3.1-.4.2-.5z"/><path class="st0" d="M242.8 113.4c7.1-4.8 14.6-9 22.2-12.9 7.7-3.9 15.6-7.4 23.6-10.4 2.1-.8 4.1-1.5 6.2-2.2 2.1-.7 4.2-1.3 6.3-2 2.1-.6 4.2-1.1 6.3-1.7l3.2-.7c1.1-.2 2.1-.5 3.2-.6 8.5-1.3 17.4-1.4 26.3-.3 9.4 1.2 18.7 3.4 27.7 6.4 9 3 17.7 6.9 25.6 11.8l2.9 2 1.5 1 1.4 1.1 2.7 2.2a41.55 41.55 0 0 1 6.6 7.5c.6.9 1.2 1.8 1.6 2.7.2.4.5.9.6 1.3.1.2.2.6.3.9.1.6.1 1.3-.1 1.9-.3.6-.7 1.1-1.1 1.6-.2.2-.6.6-1 .9-.4.3-.9.6-1.3 1-1.1.7-2.1 1.5-3 2.2-3.9 2.8-7.9 5.6-12 8.3-15.8 10.5-31.4 21.4-47.5 31.6-4.3 2.7-8.7 5.4-12.9 8.4-1 .7-4 3.2-6.9 6-1.4 1.4-2.8 2.9-3.8 4.4-.5.8-1 1.6-1.3 2.3-.3.8-.5 1.7-.5 2.4 0 .3 0 .3.1.1.1-.2.1-.7.4-1.1.4-.9 1.1-1.9 1.9-2.7 1.6-1.6 3.6-3 4.4-3.6 5.7-4 14.7-8.9 19.3-11.6 9.3-5.4 13.7-7.8 23.1-13.6 9.7-6 19.3-11.8 28.8-17.9l7.1-4.6 7-4.7c.6-.4 1.3-.8 1.9-1.3a7 7 0 0 0 1-.8c.3-.3.7-.6 1.1-1 1.4-1.4 2.7-3.1 3.1-5.1.5-2 .3-4.1-.3-6.1l-.2-.8c-.1-.2-.1-.4-.2-.6l-.5-1.2c-.3-.8-.7-1.5-1.1-2.2-1.2-2.3-2.6-4.4-4.2-6.3-.8-1-1.6-1.9-2.5-2.9-.9-.9-1.8-1.9-2.8-2.7-1.9-1.6-3.7-3.3-5.8-4.7-1-.7-2-1.5-3-2.1l-3.1-1.9c-8.4-5.1-17.4-8.9-26.4-12.1-9.8-3.4-19.8-6-30.1-7.4-2.6-.4-5.2-.6-7.8-.9-1.3-.1-2.6-.1-3.9-.2-1.3 0-2.6-.1-4-.1-2.7.1-5.3 0-8 .3-1.3.1-2.7.2-4 .4l-3.9.6c-5.5.9-11 2.1-16.4 3.6-5.4 1.4-10.6 3.1-15.8 5-10.4 3.8-20.5 8.3-30 14-2.3 1.4-4.7 2.8-7 4.4-1.1.8-2.3 1.5-3.4 2.3l-3.4 2.4c-1.1.8-2.2 1.7-3.3 2.5-1.1.9-2.2 1.7-3.2 2.6l-3.2 2.7c-.5.4-1.1 1-1.6 1.5l-1.6 1.6a58.6 58.6 0 0 0-10.5 14.3 92.2 92.2 0 0 0-6.3 15.9c-1.9 6.2-3.3 12.2-4.9 18-1.6 5.8-3.4 11.3-5.8 16.4l-.5 1.2-.6 1.2-1.2 2.4c-.4.8-.9 1.6-1.3 2.4l-1.4 2.4c-.9 1.6-1.9 3.2-2.9 4.8-1 1.6-2 3.2-3.1 4.7s-2.1 3.1-3.2 4.6l-3.3 4.5-3.5 4.4c-1.2 1.5-2.4 2.9-3.6 4.3-4.9 5.7-10.1 11.1-15.6 16.3-5.5 5.2-11.2 10.1-17.2 14.9-5.4 4.3-10.9 8.3-16.5 12.2-5.6 3.9-11.4 7.6-17.2 11.3-11.6 7.3-23.4 14.4-35.2 22.2-6.2 4.1-13.7 8.9-20.6 13.9-6.9 5-13.3 10.3-17.6 15.2-2.1 2.4-2.1 4-1.4 4.9-.5-.8 3.1-2.8 7.1-4.5 3.9-1.8 8.2-3.4 8.7-3.6 6.6-3.1 13.5-7 20.3-10.4 13.2-6.7 25.4-11.9 38.8-20.1 14.1-8.6 27.8-17.8 40.9-28.1 13.1-10.3 25.5-21.8 36.6-34.6 4.8-5.4 9.2-11.2 13.3-17.2 1-1.5 2.1-3 3-4.5l2.9-4.6c1-1.5 1.8-3.1 2.8-4.7l1.4-2.4 1.3-2.5c3.5-6.8 6-13.9 7.9-20.9 2-7 3.5-13.8 5.5-20 .3-.9.6-1.8.9-2.8.3-.9.6-1.9 1-2.7l1.1-2.6c.4-.9.8-1.7 1.2-2.5l.6-1.3c.2-.4.5-.8.7-1.2l1.4-2.4c.5-.8 1.1-1.5 1.6-2.2l.8-1.1c.3-.4.6-.7.9-1l1.8-2.1c.6-.7 1.3-1.3 2-1.9l1-1c.3-.3.7-.6 1.1-1l2.3-1.9 1.2-1 1.2-.9 2.4-1.8c1-1.5 2.7-2.6 4.4-3.8z"/><g><path class="st0" d="M455 267.8l.4-.6c-.2.2-.3.4-.4.6zM414.2 356l-.2-.1c.1.1.2.1.2.1zM421.1 375.3c-.4.1-.8.2-1.3.2.7-.1 1-.2 1.3-.2z"/><path class="st0" d="M412.6 330.3l-1-1.7c-.3-.5-.6-1-.8-1.4-.5-.9-.9-1.7-1.1-2.4-.2-.7-.3-1.2-.3-1.4 0-.3 0-.4.2-.6.2-.6 1.5-1.8 3.4-3 .5-.3 1-.6 1.5-1l1.7-1 3.3-2.1c8.9-5.6 17.9-11.6 25.9-19.1 4.1-3.8 8-8 11.4-12.5.9-1.1 1.7-2.3 2.5-3.4l1.2-1.7 1.1-1.8c.8-1.2 1.5-2.4 2.2-3.6.7-1.2 1.4-2.4 2-3.8 2.7-5.3 4.3-10.8 5.5-16.3l.4-2.1c.2-.7.3-1.4.4-2.1l.6-4.2c.2-1.4.3-2.8.4-4.2l.2-2.1.1-2.1c.5-9.9-.2-19.9-2.5-29.6l-.9-3.6-1.2-3.6-.6-1.8-.7-1.8c-.5-1.2-.9-2.4-1.5-3.5l-1.8-3.4c-.2-.3-.3-.6-.5-.8l-.5-.8-1.1-1.6-1.1-1.6c-.2-.3-.4-.5-.6-.8-.2-.3-.4-.5-.8-.9-1.2-1.4-2.7-2.5-4.5-3.1-1.3-.4-2.8-.5-4.2-.3-.7.1-1.4.3-2.1.5-.3.1-.7.2-1 .4-.2.1-.3.1-.5.2l-.4.2c-1 .5-1.9 1.1-2.8 1.7l-2.3 1.6c-18.8 13.3-37.3 25.7-56.4 38.5-4.6 3.1-9.2 6.2-13.7 9.4l-3.4 2.4-3.4 2.4-1.7 1.3c-.5.4-1.1.8-1.5 1.1-.7.5-1.4.7-2.3.7-1 0-2.4-.2-3.7-.4l-2.1-.3c-.7-.1-1.5-.2-2.2-.2l-.9-.1c-.2 0-.4 0-.6-.1-.4-.1-.8-.2-1.1-.4-.3-.2-.6-.5-.8-.9-.1-.2-.2-.3-.3-.5l-.4-.8c-2.9-5.2-6.5-9.6-10.2-13.9l-5.8-6.7c-.9-1.1-1.9-2.2-2.8-3.3l-2.7-3.4c-.9-1.2-3.9-4.2-5.4-7.4-.7-1.6-.9-3.1-.7-4.4.1-.7.3-1.2.5-1.8.2-.5.4-.9.5-1.2.1-.3-.1-.1-.5.3s-.9 1.1-1.3 2c-.2.4-.4.9-.5 1.4 0 .2-.1.5-.2.7 0 .2 0 .5-.1.7 0 1 .1 1.8.2 2.4.4 1.8 1.3 3.7 2.5 5.7 1.2 1.9 2.7 3.9 4 5.8 2.8 3.9 5.7 7.4 7.7 9.8 4 4.8 6.7 8.4 9.1 12.3.3.5.6 1 .8 1.5.3.5.5 1 .8 1.5.5 1 1.3 2.5 2.4 3.6 1.1 1.1 2.9 1.5 4.5 1.6 1.5.1 2.7.3 4.4.6.8.1 1.7.3 2.5.4.9.1 1.7.2 2.8.2 1 0 2.1-.2 3.1-.6.5-.2.9-.5 1.4-.7.4-.3.8-.5 1.1-.8 1.4-1 2.6-1.9 4-2.8l4.1-2.7c5.5-3.6 10.9-7.2 16.4-10.7 10.9-7.1 21.9-14.1 33-21 5.4-3.3 10.8-6.8 16.1-10.4l8.1-5.4c.7-.5 1.3-.9 1.9-1.2.3-.2.6-.3.8-.5.2-.1.6-.3.7-.3.6-.3 1.3-.4 1.9-.2.4.1.8.4 1.1.8l.3.3.4.5c.3.4.5.8.8 1.2l1.6 2.5 1.4 2.7.7 1.3.6 1.4 1.1 2.8c.3 1 .6 2 .9 2.9.3 1 .6 1.9.8 2.9 2.6 10.7 3 22 1.7 32.9-.6 5.5-1.8 10.9-3.4 16l-.6 1.9c-.2.6-.5 1.2-.7 1.8-.5 1.2-.9 2.5-1.6 3.6l-.9 1.7c-.3.6-.6 1.1-1 1.7-.7 1.2-1.4 2.4-2.2 3.5-6.3 9.8-14.9 17.9-24.7 24.6-4.9 3.4-10.1 6.6-15.3 9.8l-4 2.4c-1.3.8-2.7 1.6-4.2 2.6s-3.1 2.2-4.7 3.8a14.64 14.64 0 0 0-4 12.3c.2 1.8.7 3.3 1.3 4.7 1.1 2.8 2.7 5 3.8 6.9 2.4 3.9 4.9 7.7 7.4 11.5l7.6 11.4 1.7 2.5c.1.2.2.3.3.5v.1s-.1 0-.1.1c-.1.1-.1.1-.2.1-.2.1-.5.2-.7.2h-.2l-.4.1c-.7.1-1.4.2-2.1.2-2.9.2-5.9.2-9 .1-6.9-.2-13.9-.8-21-1.5-7-.7-14.1-1.6-21.2-2.5-17.9-2.3-35.9-4.5-54-6-9.1-.8-18.2-1.4-27.3-1.6-9.2-.3-18.4-.3-27.7.5-17 1.4-33.4 5.4-48.9 11.3s-30.2 13.3-44.6 21.4c-7.6 4.3-16.4 9.5-24.8 14.6a334.5 334.5 0 0 0-22.2 14.5c-2.9 2.1-3.3 3.6-2.9 4.5-.3-.7 4.1-2.5 8.8-4.1 4.7-1.7 9.6-3.4 10.2-3.6 7.8-3.2 16.1-7.4 24.1-11.2 15.5-7.3 29.6-13.3 46-20.3 2.1-1 4.3-1.8 6.5-2.6s4.3-1.8 6.5-2.5l6.5-2.3c2.2-.7 4.4-1.3 6.6-2 1.1-.3 2.2-.7 3.3-1l3.3-.8 3.3-.8c1.1-.3 2.2-.6 3.3-.7l6.7-1.1c1.1-.2 2.2-.3 3.4-.4l3.4-.3c4.5-.6 9.1-.7 13.7-.8 4.6-.1 9.3-.1 13.9.1 9.3.3 18.7.9 28.1 1.7 16 1.4 32 3.3 48.1 5.2 8.1.9 16.1 1.9 24.3 2.7 8.1.8 16.3 1.6 24.8 1.8 3.2.1 6.4.1 9.8-.1.8 0 1.7-.1 2.6-.2l.9-.1c.4 0 .8-.1 1.1-.2l2.2-.4c.8-.1 1.4-.4 2.1-.6.7-.2 1.4-.5 2-.7.3-.1.7-.3 1-.4l.9-.5c.6-.3 1.1-.7 1.7-1.1.1-.1.3-.2.5-.3l.3-.3.7-.7c.3-.5.7-1 .9-1.5.3-.6.4-1.2.5-1.8.1-.3.1-.6.1-.9v-.9c0-.3-.1-.6-.1-1l-.2-1c-.3-.7-.5-1.4-.9-2.1-.7-1.4-1.6-2.8-2.4-4.2-2-3.2-4.1-6.4-6.1-9.6-3.9-5.3-7.5-11.1-11.1-16.9z"/></g></g><g id="Layer_4"><path class="st0" d="M278.1 213.3h.1c0-.1-.1-.1-.1 0zM263.7 219.1v-.1.1zM267.2 229.5c-.1.1 0 0 0 0zM271.7 227.2c2-1 3.8-2.1 5.6-3.3 1.8-1.2 4.2-2.8 5.7-2.7.7 0 1.1.2 1.7.6.3.2.6.5 1 .8.2.2.3.3.4.3l.3.3.2.2.1.1s.1.1.1 0c-.1-.1-.1-.3-.2-.5l-.1-.2-.1-.1s-.1-.1 0-.1l.1.1.2.2.3.4.6.8c.8 1.1 1.6 2.2 2.4 3.4 1.5 2.2 3.9 3.9 5.2 6.3.4.6.6 1.3 1 2 .2.3 1.8 1.4 2.2 1.5.2 0 .1-1.2.1-1.6-.1-1.1-.3-2.8-.6-3.5-.5-1.5-.8-2.2-1.6-3.6-1.7-2.8-3.4-5.5-4.5-8.6-.1-.2-.1-.4-.2-.5l-.1-.3c0-.1-.1-.2-.2-.3l-.1.1-1.1.7-1.1.8-.5.4.2.2.4.4.7.9v.1s.2-.1.1 0l.2-.2.5-.5 1.8-1.8c-.3-.4-.6-.7-.9-1.1-.3-.3-.6-.7-.9-1-.5-.5-1-1.1-1.6-1.6-.8-.7-1.7-1.4-2.7-1.9-1.1-.5-2.2-.8-3.2-1-2.1-.3-4-.2-5.5.2-3.4.8-6.9 1.5-10 3.1-3 1.6-5.6 3.6-8.1 5.5l-4.4 3.3c-3.7 2.8-6.7 6.1-10 8.9-2.9 2.6-6.4 4-9.1 6.4-1.5 1.3-3.5 2.5-4 5.2-.1.7.2 1.6.5 2.4-.3-.6.4-.5 1.2-.3.8.3 1.7.6 1.8.6 1.3.2 2.5-.1 3.8-.2 2.4-.2 4.9-.3 7-1.5 4.3-2.6 7.7-6 11.1-9.1 2.9-2.6 5.6-5.2 8.6-7.3 1.8-1.4 3.8-2.4 5.7-3.4z"/><g><path class="st0" d="M296.4 237.4h0zM282 243.3v-.1.1zM285.5 253.7zM290 251.4c2-1 3.8-2.1 5.6-3.3 1.8-1.2 4.2-2.8 5.7-2.7.7 0 1.1.2 1.7.6.3.2.6.5 1 .8.2.2.3.3.4.3l.3.3.2.2.1.1s.1.1.1 0c-.1-.1-.1-.3-.2-.5l-.1-.2-.1-.1s-.1-.1 0-.1l.1.1.2.2.3.4.6.8c.8 1.1 1.6 2.2 2.4 3.4 1.5 2.2 3.9 3.9 5.2 6.3.4.6.6 1.3 1 2 .2.3 1.8 1.4 2.2 1.5.2 0 .1-1.2.1-1.6-.1-1.1-.3-2.8-.6-3.5-.5-1.5-.8-2.2-1.6-3.6-1.7-2.8-3.4-5.5-4.5-8.6-.1-.2-.1-.4-.2-.5l-.1-.3c0-.1-.1-.2-.2-.3l-.1.1-1.1.7-1.1.8-.5.4.2.2.4.4.7.9v.1s.2-.1.1 0l.2-.2.5-.5 1.8-1.8c-.3-.4-.6-.7-.9-1.1-.3-.3-.6-.7-.9-1-.5-.5-1-1.1-1.6-1.6-.8-.7-1.7-1.4-2.7-1.9-1.1-.5-2.2-.8-3.2-1-2.1-.3-4-.2-5.5.2-3.4.8-6.9 1.5-10 3.1-3 1.6-5.6 3.6-8.1 5.5l-4.4 3.3c-3.7 2.8-6.7 6.1-10 8.9-2.9 2.6-6.4 4-9.1 6.4-1.5 1.3-3.5 2.5-4 5.2-.1.7.2 1.6.5 2.4-.3-.6.4-.5 1.2-.3.8.3 1.7.6 1.8.6 1.3.2 2.5-.1 3.8-.2 2.4-.2 4.9-.3 7-1.5 4.3-2.6 7.7-6 11.1-9.1 2.9-2.6 5.6-5.2 8.6-7.3 1.9-1.4 3.8-2.4 5.7-3.4z"/></g><g><path class="st0" d="M313.9 263.4h0zM299.5 269.3v-.1.1zM303 279.7zM307.5 277.4c2-1 3.8-2.1 5.6-3.3 1.8-1.2 4.2-2.8 5.7-2.7.7 0 1.1.2 1.7.6.3.2.6.5 1 .8.2.2.3.3.4.3l.3.3.2.2.1.1s.1.1.1 0c-.1-.1-.1-.3-.2-.5l-.1-.2-.1-.1s-.1-.1 0-.1l.1.1.2.2.3.4.6.8c.8 1.1 1.6 2.2 2.4 3.4 1.5 2.2 3.9 3.9 5.2 6.3.4.6.6 1.3 1 2 .2.3 1.8 1.4 2.2 1.5.2 0 .1-1.2.1-1.6-.1-1.1-.3-2.8-.6-3.5-.5-1.5-.8-2.2-1.6-3.6-1.7-2.8-3.4-5.5-4.5-8.6-.1-.2-.1-.4-.2-.5l-.1-.3c0-.1-.1-.2-.2-.3l-.1.1-1.1.7-1.1.8-.5.4.2.2.4.4.7.9v.1s.2-.1.1 0l.2-.2.5-.5 1.8-1.8c-.3-.4-.6-.7-.9-1.1-.3-.3-.6-.7-.9-1-.5-.5-1-1.1-1.6-1.6-.8-.7-1.7-1.4-2.7-1.9-1.1-.5-2.2-.8-3.2-1-2.1-.3-4-.2-5.5.2-3.4.8-6.9 1.5-10 3.1-3 1.6-5.6 3.6-8.1 5.5l-4.4 3.3c-3.7 2.8-6.7 6.1-10 8.9-2.9 2.6-6.4 4-9.1 6.4-1.5 1.3-3.5 2.5-4 5.2-.1.7.2 1.6.5 2.4-.3-.6.4-.5 1.2-.3.8.3 1.7.6 1.8.6 1.3.2 2.5-.1 3.8-.2 2.4-.2 4.9-.3 7-1.5 4.3-2.6 7.7-6 11.1-9.1 2.9-2.6 5.6-5.2 8.6-7.3 1.9-1.4 3.8-2.4 5.7-3.4z"/></g></g></svg>