<svg xmlns="http://www.w3.org/2000/svg" viewBox="0 0 410 410"><path d="M203 49.5c-2.2.6-9.1 3.2-11.3 4.2-.9.4-3.4 1.5-5.5 2.4-9.7 4.1-17.2 9.2-24.1 16.3-4.2 4.3-4.5 4.7-8.2 10.9l-2.6 4.4.3 1.4c.6 2.8 1.8 4.8 5 8.1 2.7 2.8 3 3 3 2.4 0-.5-.6-1.3-2.3-3.1-3.8-4.1-5.4-8.8-3.4-10.1 1.7-1.1 7-.6 13.7 1.3 2.9.8 3.5 1.1 5 2.5.9.8 6.7 5.1 12.3 9.2 1.1.8 3.1 2.5 4.4 3.8 5 4.9 14.1 10.4 17.1 10.4 1.3 0 .2-.8-5.2-4-5.6-3.2-9.2-5.9-11.8-8.8-1.1-1.2-2.9-2.9-4-3.9-8.6-7.3-11.8-20.9-6.9-29.1 1.8-2.9 2.9-3.9 8.1-7.2 7-4.4 8.3-4.9 13.9-5.4 7.4-.6 14.6 4.9 19.3 14.7.8 1.8 1.8 3.6 2.2 4 .4.5.7 1 .7 1.2 0 .2.4 1.1.8 1.9s1 2 1.2 2.6c1.3 3.9 1.7 4.2 1 .8-1.9-8.7-6.6-17.1-14.2-25.5-6-6.5-5.5-6.2-8.5-5.4m17.4 31.7c0 .7 1.8 4.1 3.5 6.7 1.6 2.4 14.6 15.3 15 14.9.5-.5-4-6.8-6.3-8.7-5-4.2-8.3-7.7-10.8-11.5-1.3-2-1.4-2.2-1.4-1.4m-9.9.8c2.9 5.6 6.7 9.8 11.1 12.4 8.2 4.8 8.9 5.2 12.4 8.7 2.6 2.6 3.6 3.7 4.3 5.1.6 1.3 1.1 1.9 1.5 2 .3.1 1.5.8 2.6 1.5l2 1.3-2.2-2.7c-1.2-1.5-2.6-3.4-3.2-4.3-2.5-3.6-10.1-9.4-16.3-12.5-3.3-1.6-6-4.1-9.1-8.1-1.9-2.7-3.7-4.6-3.1-3.4m-8.8 2.7c0 .6 1.4 3.6 2.7 5.9 3 5.1 7.7 9.2 16.6 14.6 1.6 1 4.3 2.6 5.9 3.6 3.7 2.3 5.1 3 10 5.1 5.1 2.1 9.1 5.2 12.1 9 1.5 2 1.5 2.4 0 1-1.8-1.6-4.6-2.9-8.9-4.1-2.7-.7-4.3-1.5-6-3.2-1.6-1.5-2.4-1.4-1.1.1 1.4 1.6 3.1 2.9 6.1 4.3 6.5 3.2 9.8 5.4 11.6 7.5l1.1 1.3-1.9-.8c-1-.4-2.3-1-2.8-1.3-.5-.3-1.9-.8-3.1-1.1-1.2-.3-2.7-.8-3.3-1.1-.6-.3-2.7-1-4.7-1.7s-4.3-1.6-5.3-2c-2.1-.9-3.7-1.3-3.5-.7.3.9 7.4 4.2 15.9 7.4 2.6 1 4 1.8 7.6 4.6 1.2.9 2.4 1.7 2.8 1.8 1.9.5 3.7 5.4 2.8 7.7-1 2.5-5 4.9-8.6 5.1-4.6.3-3.3.9 2 .9 5.7 0 6.9-.6 9.1-5 2.8-5.5-.4-15.2-7.3-22-1-1-2.6-2.6-3.5-3.6-2.1-2.3-5-4.1-13.3-8.1-12.9-6.3-23.6-12.8-26.6-16-.7-.8-2.4-3.2-3.8-5.5-2.4-3.9-2.6-4.2-2.6-3.7m-34.6 10.8c.1.9.5 2.7 1 4.1.5 1.4.8 2.5.7 2.6-.2.2-2.5-2.3-3.1-3.5-.8-1.6-.9-1.6-.7.4.2 2-.3 2.1-1 .1l-.4-1.3-.2 2.9c-.4 5.5.2 7.3 3.4 10.7.9.9 1.6 2 1.7 2.3.1.3.2 1.1.4 1.7l.2 1.1 1.8.1c1 0 2 0 2.3-.2.4-.2.7-.1 1.3.4 1.2 1 4.8 3 5.5 3 7.4 0 8.8-13.8 1.8-18.4-1.5-1-1.5-1-1.1.3.5 1.6.1 1.7-.7.2l-.8-1.5-.1 1c-.1 1.4-.4 1.3-1.3-.7-1.1-2.1-2.7-4.1-4.1-4.8-1.4-.7-1.5-.6-.5 1.4.9 1.9 1 1.9.4 1.9-.5 0-1.8-1.6-2.7-3.3-1.3-2.7-1.6-2.2-.6 1 1 3.3-.6 2.2-1.9-1.2-.7-2.3-1.5-2.4-1.3-.3m15.8 10.5l1 .6h-2.3c-2.1 0-2.4 0-4.4 1-1.7.8-2.4 1-3.6 1-2.7-.1-3.7-1.2-1.3-1.5.7-.1 1.9-.4 2.6-.7 2.5-1.3 6.2-1.4 8-.4m7 2.7c-.1.2-.4 2-.7 3.9-.3 1.9-1.1 5.4-1.6 7.9-1.9 8-1.5 12.8 1.7 16.9.9 1.2.7 0-.4-2.2-1.4-2.8-1.6-5.8-.6-9.9.7-3.1.9-2.8 1.1 1.7.3 5.1.5 4.7.7-1.4.3-7.9.7-9.7 1.3-6.4.3 1.4.2 2-.1 3.8-1.4 6.8 0 13.9 3.9 19.4 1 1.4.8.6-.4-1.7-2-3.7-2.9-7.3-2.8-11.1.1-3.3.7-5.5.7-2.6 0 2.2.6 6.6.8 6.4.1-.1.1-1.1 0-2.2-.4-3.6-.3-6 .5-9.1.3-1.2.6 1.5.4 4-.1 2.5.5 7.4 1.2 9.4.6 1.8.6 1.4.1-1.2-.4-1.8-.4-2.8-.2-4.4.3-3.2.3-6.6-.1-9.6-.2-1.6-.3-3.7-.2-5.2.1-2.8 0-3.3-1-3.1-.6.2-.7.3-1 2.8-.2 1.5-.4 2.6-.5 2.6-.3 0-.6-2.6-.6-5-.3-2-1.8-5.1-2.2-3.7m-7.4.8c1.2.4 3.1 1.4 3.7 1.8.2.2-3.6 3.9-4.6 4.4-1.8 1-5.9 1.3-4.7.4.4-.3.4-.4-.2-1.9-.4-.9-.7-1.8-.7-2 0-.2-.5-.8-1.1-1.2-2-1.3-2-1.3 5.5-1.9.4-.1 1.3.1 2.1.4m-3 1.3c.5.3.9 1.6.9 2.7v1l.7-.6c1.7-1.6 1.7-2.5.2-2.8-.5-.1-1.2-.2-1.5-.3-.4-.2-.5-.2-.3 0m130.5 1.6c-4.2 1.3-8 4.1-8 5.9 0 .7 0 .7 1-.4.8-.9 1.6-1.4 3.5-2.2 3.9-1.7 4.1-1.3.4 1.3-1.3.9-3 2.2-3.7 3l-1.3 1.3.3 1.7c.4 1.8 1.1 3 1.6 2.5.2-.2.2-.6 0-1.2-1.2-4.3 5.1-7.4 10-4.9 3.3 1.7 9.5 10.5 12.3 17.6 1.4 3.5 2.3 2 1.1-1.9-.1-.4-.4-1.4-.5-2.2-.5-2.8-6-12.9-8.1-15-6.2-6.5-6-6.3-8.6-5.5m-113.3 3.4c-.6 2.7-.2 6.2.9 9.3 1.3 3.7 1.4 3.7.5-.1-.9-3.9-1-6.2-.6-8.3.2-.9.3-1.7.2-1.8-.3-.3-.8.1-1 .9m3.2 1c-.4 1.1.2 6.3 1.4 11.3.7 2.9 1.3 5.8 1.4 6.5.1.7.3 1.4.4 1.4.5.3-.1-4.4-1.1-9-.8-3.5-1.1-5.4-1.2-7.6-.1-2.6-.4-3.6-.9-2.6m3 1.5c-.6 1.6.1 7 1.1 9.6l.3.7v-.7c0-.4-.2-1.8-.4-3.1s-.5-3.4-.6-4.8c-.1-1.7-.2-2.2-.4-1.7m-33.7.3c-.1.2-.3.7-.4 1.1-.1.4-.7 2.1-1.4 3.8-1 2.6-1.2 3.3-1.2 4.9v1.9l1.2.9c.7.5 1.7 1.3 2.3 1.8s2.1 1.6 3.4 2.4c1.2.8 2.9 1.9 3.6 2.5.7.5 1.9 1.3 2.7 1.7.7.4 1.8.9 2.3 1.2l.9.5-.8-.6c-.4-.3-1.6-1.3-2.7-2.2-1.1-.9-2.6-2.2-3.5-2.8-2.8-2.1-4.3-5.1-3.5-6.8.7-1.5 1.5-1.7 5.7-1.6l3.7.1.7-.8c.6-.6 1.6-2.9 1.6-3.6 0-.1-.7-.3-1.6-.3-1.5-.2-5.8-1.8-8-3.2-1.8-1-4.4-1.5-5-.9m128.8 2.3c-1.4 1.4-1.8 2-1.8 2.6 0 1 .2.9 1.6-.8.7-.8 1.6-1.8 2.2-2.2 1-.7 1.2-1.2.4-1.4-.4 0-1.3.6-2.4 1.8m-84.3-.7s.2.8.5 1.8c.3.9.6 2.5.7 3.6.1 1.1.3 1.7.4 1.5.4-.7-.7-6.3-1.4-6.7-.1-.2-.2-.2-.2-.2m109.6.2c0 .1.6.4 1.2.5.7.2 1.7.6 2.3 1.1.6.4 1.7 1.1 2.5 1.4 2.1 1.1 4.1 3.1 6.3 6.3 2.1 3.1 2.7 3.6 3.4 2.8.8-.8-3.2-6.3-6.2-8.6-3.4-2.5-9.5-4.8-9.5-3.5m-116 2c-.5 2.4-.5 4.6-.2 7.7.6 4.9 1 5.6.8 1.5-.2-5.4-.5-9.4-.6-9.2m90.4 3.1c-2.6 2.6-2.6 2.9.8 6.8 3.1 3.7 3.6 3.9 2.8 1.4-.9-2.9-1.2-3.7-2-4.3-1-.8-1.1-.7 1.2-1.4 2.1-.7 2.1-.6.9-2.4a7 7 0 0 1-.9-1.7c-.1-.7-1.2 0-2.8 1.6m57.7-.4c-4.8 1.6-9.7 4.7-15.6 9.9-6.6 5.8-9.5 7.1-15.9 7.3-5.1.1-6.1-.2-9.8-2.8-3.9-2.8-6.2-5.9-6.1-8.3.1-1.5 0-1.7-.5-1.7-2.3 0-1.1 5.5 1.8 8.5 4.7 4.8 7.4 6 13.7 6 8 0 11.4-1.6 19.4-9 3.9-3.6 10.2-7.5 14.1-8.6 3.6-1.1 9.3-1.1 12.2-.1 1.8.6 2.4.5 1.4-.3-1.5-1.4-11.4-2-14.7-.9m-93.8 1.8c-1.1.4-.8.7 2.7 2.8 1.8 1 4.2 2.6 5.4 3.5 1.2.9 2.4 1.8 2.7 2 .5.4.5.4.3-.5-.9-4.6-3.5-7.1-7.7-7.6-.7-.1-1.6-.2-2-.3-.3-.1-1-.1-1.4.1m-.6 3.1c-.3.5.5 1.3 5.2 5.7 6.2 5.7 8 7.5 10.5 10.7 3.1 3.9 3.6 3.9 4.3-.1.2-1.1-.8-2.2-5.4-5.7-5.4-4-7.3-5.5-8.5-6.4-.7-.5-2.2-1.7-3.5-2.7-1.5-1-2.5-1.6-2.6-1.5m109 2.8c-2.2 3.7 2.7 8.7 6.8 7 1.6-.7 1.1-1.9-.9-2.1-2.4-.3-4.1-2.1-4.1-4.1 0-.7-.7-1.6-1.2-1.6 0-.1-.3.3-.6.8m6.7 0c-.1.2.2.9.7 1.4.5.6.8 1.2.8 1.5 0 .6.5.8.9.4.6-.5.5-2.3-.3-3.1-.6-.6-1.8-.8-2.1-.2m-12.9 3.9c-3 .8-7.8.9-11.3.4-5.5-.8-6.5-.8-6.5-.3s1.3 1.1 3.1 1.4c.7.1 2.3.4 3.6.6 6.6 1.1 16-.3 14.4-2.2-.5-.5-.8-.5-3.3.1m19.2 1c-.5.2-.8.7-.9 1.1-.1.5-.3.8-.7.8-.5.1-.6.2-.5 2.9.1 3.3 0 3.2 2.4 3 2.4-.2 2.5-.3 1.3-2.7l-1-1.8.7-.8c.8-1 2.1-1.1 3.6-.3.7.4 1 .4 1.3.2.2-.2-.1-.5-1.4-1.1-3.5-1.6-4-1.7-4.8-1.3m-209.9 2.1c-.1.4-1.2 2.8-2.5 5.3-4.3 8.6-4.1 12.8.7 16 2.4 1.6 9.1 1.4 13.9-.4 6.5-2.4 16.6-3.7 22.1-2.7 2.2.4 7.5 0 5.8-.5-8.6-2.3-16.1-2.3-21.8-.2-10 3.8-17 2.5-19.8-3.5-1.2-2.6-1-8.6.3-9.7.4-.3 1-2.2 1.3-4.1.4-1 .2-1.2 0-.2m217.9 2.8c0 .3 2.5 2 6.1 4.1 1.4.8 2.8 1.7 3.1 2l.6.5-.5 2c-1.1 4.4-.8 4.7 1.1 1l.9-1.8.8 2c.7 1.6 1.8 5.1 3.5 11.1l.3.9v-.8c.1-1.8-3-14.4-3.8-15.3-.1-.2-.6-.3-.9-.3s-1.4-.5-2.3-1c-3.5-2.3-8.9-4.9-8.9-4.4m-214 2.5c.5 5.1 7.1 10 12.4 9.2l1.7-.3h-1.8c-1.3 0-2.1-.2-2.9-.7-6.5-3.4-7.9-4.8-8.6-8.4-.3-2.3-1-2.2-.8.2m-3.2.6c-.6 1.4-.5 3.9.1 5.8 1.5 4.2 2.7 5.1 7.4 5.2l2.9.1-1.9-.3a8.4 8.4 0 0 1-3.8-1.6c-4.1-2.8-4.8-4.5-3.9-9.2.3-1.3-.3-1.3-.8 0m141.1-.4c-.1.2-.2 1.1-.3 2.1l-.1 1.8.9.4c1.1.4 5.3.2 6.3-.3 1.2-.6.6-1.4-1.2-1.7-.5-.1-1.8-.7-3-1.4-2.4-1.4-2.4-1.3-2.6-.9m-29.2.5c-.3.2-1 1.3-1.7 2.6-2.5 4.6-3.6 6.3-4.9 7.7-2.7 2.8-.4 2.6 2.6-.2 3.5-3.2 5.3-4.5 6.6-4.5h1.1l-3 3.2c-1.7 1.8-3.3 3.4-3.7 3.7-.4.3-.6.6-.5.7.3.3 3.1-1.4 4.8-2.9 2-1.8 3.1-2.4 4.8-2.7l1.2-.2 2.1 2.2c7.5 7.8 7.8 19.6.9 30.4-1.9 2.9-3.2 5.4-3.2 6.1 0 .6.6.2 1.5-.9.4-.6 1.9-2.6 3.2-4.4 4.7-6.4 6.3-10.1 7.3-17.6.9-6.5-2.8-13.5-10.2-19-3.9-2.9-7.9-4.8-8.9-4.2m-48.4 2.8c.2 2.1 0 2.7-2.5 5.2-4.7 4.7-11.4 6.6-22.4 6.3-5.6-.1-4.1.3 4.5 1.2 14 1.4 25.2-5.3 21.4-12.8-.9-1.7-1.2-1.7-1 .1m147.3-1.3c-2.3.1-2.2.1-1.8 3.4.2 1.6.4 4.2.4 5.8v2.9l1 1.1c.6.6 1.5 1.7 2.1 2.5 1.9 2.4 4.5 5 6.5 6.5 1.1.8 4.6 4.1 7.8 7.4 3.2 3.2 5.8 5.8 5.9 5.8.2-.2-5.6-6.5-10.8-11.9-5.1-5.2-7.4-7.8-8.2-9.2l-.6-1.1 4.5.1 4.5.1 3.2 5.1c2.9 4.6 4.4 6.8 3.7 5.2-2.1-4.2-6.4-12.1-7.2-12.8-.9-1-1.2-1.4-5.6-7.7-2.1-3-2.5-3.4-3-3.3-.3 0-1.4.1-2.4.1m-56.4 2.5c-.1.2-.2 4.4-.3 9.3-.1 4.9-.2 11.1-.3 13.7-.2 5.9-.1 6.6.9 6.6s1 .3 1.1-8.8c.2-13.6-.5-23.2-1.4-20.8m-13.5 1.5c-.1.1-.1.9-.2 1.8 0 .8-.5 4.9-1.1 8.9-2.4 16.3-2.4 15.9 3.3 17.4 4.8 1.2 5.5 1.1 4.4-1-1.4-2.7-1.9-10.9-1.1-19 .3-3.2.5-6.2.5-6.7l-.1-.9-2-.2c-1.1-.1-2.4-.2-2.8-.4-.4-.1-.8 0-.9.1M245 163.2c-7.3 2-14.7 10.1-16.8 18.3-1.2 4.6-3.9 9.8-7 13.2-2.3 2.6-2.6 3.1-1.3 2.4 2.1-1.2 4.3-4.5 8.3-12.7 6.1-12.3 10.8-17 19.6-20.1 2.7-.9 2.7-1.1.1-1.3-.9-.1-2.1 0-2.9.2m-71.3 3.6c-1.1.9-2.8 2.2-3.9 3-2.8 2-2.5 2.9 1 3.4 2.9.4 15.4.2 16.6-.3.5-.2 2.1-.6 3.5-.9 2.7-.5 6.9-1.6 7.3-2 .1-.1-1.7-.3-4-.4-10.8-.4-14.6-1.3-15.6-3.7-.7-1.3-2.5-1-4.9.9m70.7 1c-5.8 2.9-10.7 8.8-14.2 17.1-1.4 3.4-7.4 11.5-9.6 12.9-2 1.3-2 1.7.1 1.5 3.2-.3 8.7-4 11.7-8.1 1-1.3 2.5-3.3 3.3-4.4 2-2.7 7.5-8.3 10.1-10.3 1.2-.9 2.2-1.9 2.3-2.2.6-2.1.4-6.5-.3-7.5l-.5-.6-2.9 1.6m-33.9 3.1c3 2.9 8.3 9 10.9 12.5.9 1.3 1.5 1.8 2 1.8 2.9.3-2.5-6.8-10.3-13.7-3.5-3-5.6-3.5-2.6-.6m-39.1 5.6c-.5.6-2.1 4.1-3.5 7.4-1.2 3.1-3.8 7.7-7.5 13.6-7.9 12.6-12.6 26.2-11.6 33.9.3 2.3.5 2.4 2.7 2 1-.2 3.2-.5 4.8-.7 5.2-.5 4.7-.1 5.9-4.2 2.7-9.6 8.1-19.1 19.5-34.9 4-5.5 6.3-10.3 5.7-12-1.1-3.5-3.4-4.6-10.4-5.1-2.8-.2-5.2-.4-5.2-.4-.1.1-.3.2-.4.4m79.6 2.3c-1 .3-4 1.8-5.5 2.9-1.8 1.2-8.3 8.2-10.8 11.5-2.4 3.2-7.4 8.3-9 9l-2.5 1.1c-1.4.6-1.7 1.4-.5 1.4 2.4 0 9.9-6.3 14.8-12.3 7-8.6 8.8-10.1 14.5-12.2 1.6-.6 1.8-.9.8-1.3-.8-.4-.8-.4-1.8-.1m59.1 0c-3 2 2.5 13.4 8.2 17.2.7.5 1.7 1.2 2.4 1.6.9.7 1.2.7 1.6.5.3-.2.8-.3 1.3-.3 1.1 0 1.4-.5 1.4-1.9 0-2.5 1.8-8.2 3.3-10.6 1-1.5 1.7.5 1.9 6 .2 3.9.4 4.3 1.4 2.6.9-1.4.8-7.6 0-9-1.3-2.1-2.3-2.6-4.8-2.6-5.9 0-13.1-1.4-14.7-2.9-.8-.6-1.6-.9-2-.6m-64 7.7c-2.4 1.8-3.4 2.9-5.7 5.7-3.2 4-8.4 9.2-10.7 10.6a9.3 9.3 0 0 0-1.9 1.4c0 .1-.6.4-1.4.7-3.3 1.1-1.7 2.4 4 3.1 2.7.3 5.7-.3 8.2-1.8 3.2-1.8 7.7-9 8.1-12.8.1-1 .4-2.9.6-4.2.2-1.3.4-2.7.4-3.1l-.1-.8-1.5 1.2M206.4 198c-.1.1-1.4.4-2.8.7-5.6 1-8.3 3-11.4 8.5-5.4 9.2-12.3 19.9-15.5 24.1-.7.9-1.5 2.1-1.8 2.5l-.5.9.8.9c1.1 1.1 1.3 1.1 2.3-.4.5-.7 1.5-2 2.3-2.9 2.7-3.2 6.7-8.9 10.4-14.7.8-1.3 2.5-4 3.8-5.9 1.2-1.9 2.8-4.4 3.5-5.6 2.8-4.7 7.6-7.6 13.4-8.1l2.3-.2H210c-1.9 0-3.5.1-3.6.2m92.1 4.1c0 .7.7 1.4 2.4 2.3 2.1 1.2 5.4 4.6 6.6 6.7 1.5 2.7 3.1 4.6 4.4 5.3l1.2.6 1.5-.5c2.1-.7 7.2-4.6 9-6.9.9-1.1.6-1-1.1.4-5.5 4.7-12.1 2.5-14.4-4.7-.8-2.5-1.5-2.4-1.2.2l.1 1.4-2-1.7c-1.2-1-2.6-1.9-3.5-2.3-.8-.3-1.6-.6-1.7-.8-.6-.2-1.3-.3-1.3 0m-94.3 1c-1.4.7-1.6 1-.7 1.3.4.2 1.1.6 1.5 1 .7.7.7.7 2 .3.7-.2 1.9-.6 2.7-.7l1.5-.3-.8-.6c-1.7-1.4-4.4-1.8-6.2-1m89.1 5c.1 6.2.1 6.2-1.9 3.1-1.7-2.7-1.7-2.7-1.5-1.3.6 3.7-1.2 5.9-5.4 6.7-1.2.2-2.3.5-2.4.6-.5.5.5.6 2.3.3 6.3-1.1 13.1 7.2 12.6 15.5-.1 2.1-.1 2.6.2 2.6.3 0 2.1-2.1 2.3-2.8.2-.5.4-.1.6 1 .2 1.5-2 5.4-2.7 4.9-.2-.2-1.2-.9-2-1.7-2.1-1.8-7.1-5.7-7.2-5.7-.5 0 .2 1.2 2.1 3.1 2.8 3 3.1 3.4 4.5 6.6 1.3 3.2 1.7 3.6 2.4 3.1.3-.2.8-.3 1.2-.3.7 0 3.1-2.4 4.3-4.3.3-.5.8-1.1 1-1.3.6-.5.1-2.2-2.5-7.4-3.8-7.5-6.9-18.1-7.7-25.9-.2-1.7-.3-1-.2 3.2m-80.7-1c-.8.1-2.2.4-3.1.6-.9.2-2 .5-2.6.6-1.5.3-1.3.8 1.2 3.5 2.2 2.4 2.2 2.4 3.3 2.2 2.7-.5 12-2.6 12.2-2.8.1-.1-.2-.7-.8-1.3-1.9-2.1-6.5-3.3-10.2-2.8m10.4.1c0 .1.3.5.7.9 2.5 2.8 3.2 8.1 2.4 18.6-.2 2.8-.4 5.4-.5 5.9-.1 1 2.4 2.3 7.5 4.1 3.8 1.3 3.6 1.3 4.7-.3 2.4-3.6 2.5-6.4.4-11.6-1.8-4.4-2.5-6.9-2.9-10.6l-.3-2.7-2.1-.3c-1.2-.2-2.8-.6-3.6-1-.8-.4-2-.9-2.7-1.1-.7-.2-1.7-.8-2.3-1.2-.7-.5-1.3-.8-1.3-.7m-7 8l-.8.4.6 2.3c.7 3.1.6 2.9 4.4 2.6 3.8-.3 3.4 0 3.3-2.6-.1-2.2-.1-2.2-1-2.6-1.3-.6-5.3-.6-6.5-.1m-2 7.5c-.3.4-.3.7 0 2 .2.8.4 2 .5 2.7.3 2.1 3 2.8 6.7 1.8.8-.2 1.8-.4 2.2-.4 1.3 0 1.6-.7 1.5-3.5l-.1-2.5-4.1-.1c-2.3 0-4.6-.1-5.2-.3-.9-.1-1.2-.1-1.5.3m3.7 9.4c-.6.2-1.6 2-1.6 2.9 0 1.2 1.3 2.2 5.2 4.2 1.9.9 4.7 2.4 6.3 3.2 2.6 1.4 5.3 2.5 7.3 2.9l.8.2-.6-.6c-.3-.3-.6-.8-.7-1.1-.1-.3-.3-.5-.6-.5-1 0-.3-.5 1.1-.8 1.7-.4 5.6-.1 11 .8 4.4.8 5.3.5 1.5-.4-8.6-2.1-17.9-5.6-25.7-9.7-2.4-1.2-3-1.4-4-1.1m-61.3 3c-9.4.7-11.6 1.8-11.4 5.5.2 3.1.2 3.1 6.6 1.3 4.6-1.3 7-1.6 10.6-1.2 1.6.2 2.9.3 3 .2.5-.5-1.1-.9-6-1.5-2.5-.3-5.4-.1-7.5.6-.5.2-.9.2-1 .1-.3-.3 1.5-1 3.6-1.5 1.1-.3 2.4-.6 2.9-.8s1.3-.2 1.8-.1c1.3.2 4.5-.2 4.5-.5 0-.1-1.2-.3-2.7-.4-2.6-.2-3.3-.5-2-.8.4-.1 2.8-.1 5.3 0 4.4.1 4.5.1 3.6-.3-.7-.3-1.8-.5-3.6-.5-1.4 0-3-.1-3.5-.1-.7-.1-2.5-.1-4.2 0m54.5 6.7c-1.4 1.5-2.8 3.6-3.6 5.3-.3.7-.2.7 2.7 2.7 7.3 4.8 8 5.2 14.5 7.3 4.7 1.5 6.5 1.6 4.7.2-1.2-.9-2.3-2.7-1.9-3.1.5-.7 2.1-.5 8.1.9 6.7 1.6 6.8 1.6 8.8 1.7.9.1 2.6.4 3.8.8 1.2.4 2.3.6 2.4.6.3-.3-9-3.9-10.1-3.9-.7 0-5.3-1.5-7.2-2.4-.7-.3-2.5-1-3.9-1.5s-3.3-1.4-4.3-2.1c-1-.6-2.8-1.8-4.1-2.7-1.3-.8-3.5-2.4-4.9-3.5-3.1-2.3-3.1-2.3-5-.3m92.5 1c-2.8 2.8-6.6 5.9-8.4 6.9-1.1.6-4.3 2.4-7.1 4.1-2.9 1.6-5.7 3.2-6.3 3.4-1.1.4-1.5.9-.9.9.7 0 6.6-2.8 12.3-5.7 6.7-3.5 8.9-4.4 10.8-4.4 1.5 0 3 .6 3.2 1.4.2.8.9.6 1.3-.4.2-.5.6-1.2.9-1.6.4-.6.4-.8.1-1.2-.2-.3-.5-.8-.6-1.1-.8-1.8-2.5-3.5-3.7-3.5-.2-.1-.9.5-1.6 1.2m-148.3.3c-6.1.4-10.8 1.5-11.3 2.8-.8 2.1-.3 6.9.9 8.2l.6.8 2.2-1c6.7-2.8 14.9-3.7 20.4-2.2.4.1.6.1.6-.1s-.3-.4-.7-.5c-.4-.1-1-.3-1.3-.4-3-1.4-10.4-1.5-15.3-.2-2.3.6-2.6.5-1.5-.6.8-.8 2.5-1.3 7.5-2.1 1.9-.3 6 0 9.6.7 2.3.5 2.6.4 1.3-.4-1.8-1.1-6.7-2.2-9.8-2.2-3.6 0-3.8-.5-.5-1.1 4-.8 8.7-.5 11.6.7 2.5 1 2.5 1 1.6.2-2.1-2-8.3-3-15.9-2.6m154.6 6.9v2.2c.1 3.5-.8 6.1-3 8.5-1.3 1.5-1.5 1.9-.7 1.9.9 0 4.4-3.6 6.3-6.5 1.8-2.6 1.8-2.6 1.9-1.8.1 1.5.5 1.4.8-.2.5-2.4.4-2.8-1.1-3-.7-.1-1.8-.4-2.5-.7-1.3-.7-1.7-.7-1.7-.4m-103.2 3.1c-4.8 6.6-7 14.9-5.8 21.7l.3 1.7 1.4-.7c2.8-1.4 12.5-7.9 16.3-11l1.8-1.5-1.3-.6c-1.7-.9-2.2-1.4-4.4-4.3-2.1-2.9-5-5.8-6.2-6.5l-.8-.4-1.3 1.6m-55.5 2.6c-4.9 1.4-4.8 1.3-4.3 4.9 1.4 10.2 1.5 12.6.9 24.4l-.2 3.3 1.2-.2c1-.2 2.6-.3 5-.4.7 0 .6-1-.1-1.9a5.84 5.84 0 0 1-.7-6c.7-1.6.7-2 0-2.8-.8-1-.5-4.1.5-5.9.2-.3.1-.8-.3-1.6-.8-1.7-.7-4.4.1-5.7.7-1 .7-1 .3-2.2-.5-1.5-.5-2.1 0-3.5.9-2.1-.1-3.1-2.4-2.4m163.8 1.4c-.2.2-.4 1-.4 1.7-.2 2.1-.3 2.3-2.3 5.2-2.2 3.2-2.6 3.9-1.9 3.9.9 0 4.8-4.9 6.3-7.8 1-2.4-.3-4.7-1.7-3m-158.6 1.2c-1.2.4-1.8 2-1.2 3.2.5.9 1.1.6 1.1-.5s.2-1.5.9-1.7c.5-.2.6-.9.1-1.1-.2 0-.6 0-.9.1m100.3.8c-.2.4.1.5 2.9 1.2 1.4.4 3.1.9 3.8 1.2l1.3.5v2.2c0 1.8-.1 2.4-.6 3.2-.6 1-.5 1-3.3.4-5.7-1.3-5.9-.3-.3 1.3 3.3.9 3.9.9 4.7-.2 1.1-1.4 1.7-6.1 1-7.8-.4-1.1-8.9-2.9-9.5-2m-97.9 1.5c-.1.2-.1.4-.1.5 1.8 1.5 3.7 2.2 3.7 1.4 0-.9-3.3-2.6-3.6-1.9m158.4 1c-.5.6-.5 1.2-.3 3.3l.2 2.1-1.6 2.9c-2.3 4.1-5 8.1-6.5 9.3-1.3 1.1-1.5 1.5-.7 1.5 1 0 7.5-6.9 9.9-10.5.5-.8 1.1-1.7 1.3-1.9.3-.4.3-.3.3.6 0 2.5 1.6 5.4 3.2 5.9.6.2.6.1.5-.6-.5-2.5-.7-3.7-.8-5.3 0-1.1-.2-1.9-.5-2.2-.2-.3-.7-.9-1-1.5-.3-.5-1-1.2-1.5-1.6s-1.1-1-1.3-1.5c-.5-.9-.8-1.1-1.2-.5m-150.8.8c-4.7 1.4-8.5 2.9-8.5 3.4 0 .3 1 .1 4-.8 1.2-.4 3.5-1 4.9-1.3 3.1-.7 4.1-1.3 3.6-1.8-.4-.5-.4-.5-4 .5m56.9 1.5c-1.1.7-4.1 2.9-6.6 4.9-7.7 5.8-15.8 10.9-17.5 10.9-.8 0-1.6 1.5-1.4 2.6.5 3.6 1.6 7.3 2.4 7.6.9.5 1.1.5 1 .1-.1-.9.1-1.3.8-1.6 2.5-1.1 12.3-7.1 15.1-9.3.9-.7 1-.9.8-1.8-.5-3.2 1.9-7.9 6.6-12.9 1.8-2.2 1.4-2.3-1.2-.5m34.9-.6c-.6.7.2 1.2 2 1.2 1.5.1 1.6 0 1.7-.5.1-1-3-1.6-3.7-.7m12.8.7c.3.2 1.4.9 2.6 1.5 3.4 1.9 6.3 5.1 7 7.8.2.7.4 1.3.5 1.3.1 0 .2.3.2.6 0 2.4 4.4 2.6 9.1.4 2.1-1 2.1-.8 1-2.5-2.4-3.7-5-5.2-12.2-7.4-1.1-.3-3.1-.9-4.5-1.4-2.7-.7-4.5-.9-3.7-.3m-116.4.8c-1.1 1.1-.7 4.1.6 4.1.3 0 .4-.2.2-1.1-.3-1.5-.2-2 .3-2.6.9-1-.1-1.4-1.1-.4m11.3.8c0 .5 1.7 2.1 2.2 2.1.7 0 .5-.8-.4-1.6-.9-.9-1.8-1.1-1.8-.5M242 267c-2.7.9-4 2.5-4 4.7 0 2.5 1.1 3.5 1.3 1.2.2-1.8.4-2 1.3-1.1 1.7 1.8 4.1.1 3.6-2.6-.2-1.1.2-1 1.6.3 1.3 1.3.8.2-.7-1.3-1.4-1.3-2-1.6-3.1-1.2m-84.1.9c-.2.3.4.9 1.8 1.9 1.4.9 2.1 1.1 2.1.4-.1-.7-3.6-2.8-3.9-2.3m5.8 3.2c-4 1.1-6.3 1.9-6.3 2.4 0 .2.2.3.6.2.3-.1 1.4-.3 2.3-.5 1-.2 3.1-.7 4.8-1.1 3.2-.7 4.2-1.2 3.9-1.7-.2-.5-1.3-.4-5.3.7m-9.7 1.8c-.7.9-.7 2.3 0 3 .8.8 1.1.4.9-.8-.1-.8-.1-1.2.2-1.7.9-1.3-.1-1.8-1.1-.5m11.2 1c0 .5 1.9 2.3 2.5 2.3.7 0 .5-.5-.6-1.6s-1.9-1.4-1.9-.7m-8 2.1c0 .2.6.7 1.4 1.2.8.5 1.6 1 1.8 1.3.5.6 1.1.5 1.1-.1s-1.3-1.7-2.7-2.3c-1.3-.5-1.6-.6-1.6-.1m174.6.8c-3.2.7-2.8 1.4.8 1.1 3.1-.2 6.6.2 8 .9 2.8 1.4 6.6 7 8.7 12.8.3 1 .7 1.7.8 1.6.1-.1.5.1.8.5 1.7 1.6.8-1.7-1.8-7.1-2.3-4.6-5.2-8.2-7.8-9.4-1.6-.7-7-1-9.5-.4m-97 8c-4.8 9.1-4.5 8.2-2.3 8.9 1 .3 1.9.7 2.1.7.5.2 6.4-16.5 5.9-16.8 0 0-.4-.2-.9-.3l-.8-.3-4 7.8m-72.2-5.7c-4.6 1.5-5.1 1.8-4.8 2.1.5.5 10.7-2.5 10.7-3.1 0-.8-1.3-.6-5.9 1m-7.8.8c-1 1.1-1 3.2 0 4.1.8.7 1.2.2.8-1.1-.2-.8-.2-1.2.1-2 .7-1.4.1-2.1-.9-1m9.2 1.1c-.3.4 1.3 1.9 2.1 1.9.4 0 .1-.9-.6-1.5-.8-.7-1.3-.9-1.5-.4m56 1c-.9.5-2.4 1.4-3.3 2.1-2 1.3-8.9 5.3-11.5 6.5-2.8 1.4-2.6 1-2.5 6.3.1 3.2 0 5.5-.2 7.4-.2 1.5-.3 2.8-.3 2.9 0 .1-.1.8-.4 1.5-.2.7-.4 1.5-.4 1.8s0 .6-.1.8c-.3.5-.2.5 3.2-.6 1.7-.5 3.5-1.3 4.2-1.7l1.2-.7.5-3.6c1-7.5 4.3-14.6 10.2-21.9 1.5-1.9 1.4-2-.6-.8m-62.9 1.1c-.2.3.5.9 2 1.7l1.2.7-1.6.7-1.7.8 1.1.1c1.2.1 7.3-1.8 8-2.6.9-.9-.3-.9-2.9-.1-2.4.8-2.4.8-2.8.3-.6-.9-3-2.1-3.3-1.6m182.8 2.7c-.5.9-.3 1.5 1.4 5.8.9 2.3 2.1 5.1 2.5 6.2 6.2 15.3 8.7 24.9 6.9 26.9-.6.7-.6.7.6 1 .7.2 1 .1 1.7-.6 1.5-1.5.9-4.3-3.9-17.1-.7-1.8-1.6-4.5-2.1-5.9-1.1-3.1-3.8-9.6-4.1-9.9-.6-.4-2.5-5.6-2.3-6.3.1-.8-.3-.9-.7-.1M163 287.2c0 .4 1.4 1.5 1.9 1.5s.3-.8-.4-1.3c-.8-.6-1.5-.7-1.5-.2m-14.3 2.7c-2.6.4-3.1 1.2-3 4.7.1 1.6.3 1.7 1.8 1 3.4-1.7 9.3-2.2 13.7-1 2.2.6 3 .3 2.4-.8-.2-.3-.2-.8-.1-1 .1-.6-.6-1.1-3.3-2.1-2.3-1-8.3-1.4-11.5-.8m71 2.7c-1.1.2-1.3.8-1.2 3.4.1 2.5.4 3.4.7 2.2.1-.4.5-1.2.9-1.8l.7-1.1 2.4.1c2.8.1 7.2 1.3 12.9 3.4 4.2 1.6 4.5 1.6 3.1.4-1.1-1-3.2-1.9-5.4-2.3-.8-.1-1.5-.5-1.8-.8-.4-.5-2.4-1.3-7.1-3-2.1-.6-3.6-.8-5.2-.5m115.9 1.8c-.8.9-2.9 5.5-4.7 9.9-1.1 2.8-2.6 6.4-3.4 8-.8 1.6-2 4.4-2.7 6.2-2.1 5.2-3.7 7.8-9.3 15.4-3 4-7 7.6-11.8 10.6-1.2.7-1.6 1.2-.9 1.2.2 0 .5-.1.6-.3.1-.1 1.1-.7 2.1-1.2 8.7-4.5 16.2-13.1 20.4-23.3.7-1.7 2.1-4.9 3.1-7.1 1-2.2 2.3-5.4 3-7.1 3.2-8.3 4.5-11.2 5-11.2.4 0 0 1.5-2.5 8.8-2.3 6.9-3.4 9.7-5.2 13.9-1.1 2.4-1 2.6.1.7 3.4-6 8.9-7 8.9-1.7 0 .5-.2 1.8-.5 2.9-.9 3.2-.5 3.3 1.1.1a10 10 0 0 1 1.5-2.4c.2-.1.4-.5.4-.8s.2-1.1.4-1.8c2-5.6 2-6.8.4-11.9-2.8-7.7-4.6-10.6-6-8.9m-142.4.2c-.9.4-1.9 2.5-1.7 3.4.4 1.9 2.8 2.7 4 1.3 1.9-2.3.2-5.9-2.3-4.7m-43 2.5c-6.4 1.4-8 5.8-4.4 11.9 1.6 2.7 1.7 3.8.7 7-1.1 3.5-1 6.8.1 4.5 1.1-2.4 3.4-4.1 3.4-2.6 0 .3.3 1 .7 1.6.4.6 1 2.1 1.4 3.5.9 2.9 1.7 3.4 1.7 1.2 0-1.6.7-3.1 2-4.3 1.2-1.2 1.7-.8 2.7 1.9 1.3 3.4 1.8 3.8 2.3 1.8.2-.7.7-1.9 1.2-2.6.5-.7.9-1.4.9-1.7 0-.3.1-.3.5 0 .3.2.7.5 1.1.6.3.1.9.6 1.4 1.1.4.5.9.9 1 .9.5 0-.1-13-.7-14.8-1.2-3.4-4.2-7.4-6.8-9.2-1.5-1-6.6-1.4-9.2-.8M225 300c-.9.9-3.7 7.1-3.4 7.4.3.2 4.6 0 4.7-.2.1-.1.8-1.1 1.6-2.3 1.7-2.4 2.1-2.6 4.5-1.9 2.5.7 1.8-.8-.9-1.8-.9-.3-2.4-.9-3.2-1.2-1.8-.8-2.6-.8-3.3 0m-31.6 3c-.3.3-.3.5 0 .8.3.4 0 9.4-.4 11.4l-.2.7 1.4-.7 1.4-.7.1-1.4c.1-1.9-.5-9.9-.8-10.3-.3-.3-1.1-.3-1.5.2m27.6 6.3c-1.2.1-3 .4-4 .8-2 .7-1.8.5-2.9 3.9-.3.8.2.8 3.5-.2 3-1 3.8-.9 6.9.2 8.3 3 9.2 3.2 4 .6-6.9-3.5-4.5-4.3 3.5-1.2 5.1 2 10.6 4 10.7 3.8.4-.4-8.6-4.8-13.3-6.5-4-1.4-5.3-1.7-8.4-1.4m-51.4 3.8c-.1.3-.2 1.8-.3 3.3l-.2 2.6.9 1c.9 1 .9 1 1 4 .1 3.7 1.9 7.9 3.3 7.9.4 0 .3-1.8-.2-2.9-.3-.8-.5-1.9-.5-4.9-.1-4.7-.3-5.9-1.4-7.8-.5-.8-.8-1.6-.8-1.8 0-.4-1.1-2.1-1.4-2.1-.2 0-.3.3-.4.7m32.6.9c-1.6.3-3.3 1-6.3 2.8-1.3.8-2.5 1.5-2.7 1.5-.6 0-8.2 4.7-8.7 5.4-.9 1.2.1 4.2 1.1 3.4.2-.2.3-.6.3-1 0-.9.6-1.4 4.4-3.5 1.5-.8 3.9-2.2 5.4-3 1.5-.8 4.2-2.2 5.9-3.1 5.2-2.5 5.3-3.3.6-2.5m16.3.8c-.1.2-.6 1.4-1.1 2.7-.5 1.2-1 2.4-1.1 2.5-.4.5-5.5 14.2-5.8 15.5-.2.8-.5 1.8-.7 2.4-1 2.3-1.3 8.5-.6 14.1.6 5 1.9 3.5 2.6-3 .4-3.1 1.7-8.7 2.3-10 .2-.5.6-1.4.8-2.2.9-3.1 7.4-18.7 8.5-20.3.6-.9.4-1.4-.8-1.8-1.2-.5-3.8-.4-4.1.1m124.9 8.2c0 1.4.1 1.5 2.1 3.8 3.4 3.9 4 6.3 2.5 10.5-.4 1-.6 2-.5 2.1.1.1-.6 1.2-1.4 2.4-.8 1.2-1.4 2.2-1.4 2.3.5.5 3.1-3.1 4.8-6.5.5-1 1.3-2.4 1.6-2.9 1.8-2.6.7-5.7-2.6-7.9-1.1-.7-2.5-1.8-3-2.4-.5-.6-1.2-1.5-1.6-1.9l-.7-.8.2 1.3m-138.8-.4c-.7.1-2 .3-2.9.3-1.1.1-2.3.3-3.3.8-11.2 4.8-11.6 5.2-11.1 9.5.3 2.8 1.1 3.9 1.1 1.7 0-1.4.9-2.6 2.8-3.6 2.3-1.2 9.7-3.7 10.8-3.8.5 0 1.3-.1 1.8-.2l.8-.2h-.8c-.4 0-1.3-.2-1.8-.3-.8-.2-1.3-.2-2.4.2-2.1.7-2 .3.3-1 .7-.4 1.6-.9 2-1.2.8-.6 5.4-1.7 7.1-1.7.6 0 .8-.1.7-.3-.2-.4-3.4-.5-5.1-.2m-62.7 2.5c-.5.1-.8.9-.8 2.3 0 .8-.1 1-.6 1.1-1.1.3-3.1 2.8-3 3.7.1.6 0 .8-.4.7-.9-.2-1.9 3.8-1.3 5 .3.5.3.5 1-.2 1.7-1.7 1.9-2.5.7-2.5-.3 0-.6-.1-.6-.3 0-.4 1.2-.8 1.8-.6.4.1.8-.1 1.7-1.2.6-.7 1.7-1.9 2.4-2.5.7-.7 1.4-1.6 1.5-2.1.4-1.3.6-3.1.3-3.3-.3 0-2.2-.2-2.7-.1m123.4 2.4c-2.7 1.5-2.3 2.7 2 6.2 1.7 1.4 4.7 3.9 6.7 5.6 4.5 3.9 9.8 7.5 13.2 9.1 4.3 2 3.9 1.4-1.9-3-4.6-3.5-10.2-8.9-12.7-12.3-5-6.7-5.1-6.9-7.3-5.6m-102.1.1c-.1.3 0 .9.4 1.4 2.1 3.3 2.2 5.1.4 8.7-2 4.1-2.4 6.5-1.2 7.6.6.6.7.5 1.2-1.3.2-.8.5-1.7.6-2 .2-.5.2-.5-.4 0-.3.3-.7.4-.8.3-.3-.3.5-1.5 1.3-1.9.6-.2 1.2-1 2.2-2.6 2.9-4.8 3-5.2 1-7.1-.7-.7-1.7-1.9-2.2-2.6-1-1.2-2.2-1.5-2.5-.5m-11.9 1c0 .3-.4 1.3-.9 2.3-.7 1.5-.9 1.9-.7 2.5.4 1 .3 1.1-.3 1-1.2-.3-3.5 3.5-3.5 5.9 0 1-.2 1.5-.8 2.2-1 1.3-1.3 3.5-.6 4.2.5.5.5.5 1.2-.8.8-1.6.9-1.9.2-1.9s-.9-.3-.5-.9c.2-.4.5-.5 1.2-.4.9.1 3.6-3.3 4-5.3.1-.3.4-.9.7-1.3.6-.9 1.2-5.4.9-7-.1-1-.9-1.3-.9-.5m6.5.4c-1.1 1.5-1.5 7.7-.5 8.1.6.2.4.8-.5 1.5-1.8 1.4-3.4 5.8-2.6 7.1.3.6-.1 1.4-.7 1.4-1.6 0-1.6 4 0 5.1.3.2 1.3-3.5 1-3.8-.1-.1-.4 0-.6.2-.4.3-.5.3-.5-.2 0-.6.4-1 1.2-1.1.3-.1.8-.8 1.4-2.2.5-1.2 1.6-3.3 2.4-4.7l1.5-2.6-.3-3c-.7-6.2-.9-7-1.8-5.8m34.6 4.1c-2.2 1.8-2.3 3.5-1 9.4a69 69 0 0 1 1.2 7.1c.6 4.9 2.9 13.6 4.3 16.4l.9 1.7.3-.8c.2-.4.5-2.2.6-4 .2-1.8.4-4.3.6-5.6.1-1.3.3-3.6.3-5.1 0-1.5.1-5.6.3-9.3.3-6.3.2-7.7-.4-7.1-.2.2-.7 4.9-1 9-1 18.5-1.8 19.9-2.4 4.8-.3-7-1-16-1.3-16.7-.4-.7-1.4-.6-2.4.2m159.4 3.3c0 .1-.1 1.5-.1 3.1 0 2.5-.2 3.2-.7 4.7-1.8 4.5-1.8 4.5-1.3 4.3 2.6-1.4 5.2-8.9 3.8-10.9-.6-.9-1.6-1.6-1.7-1.2m2.2 9c0 .1.2.8.5 1.6.4 1.1.5 1.8.4 3.1-.2 1.7.1 2.4.7 1.6.7-.9.7-3.7-.1-5.2-.7-1.1-1.5-1.7-1.5-1.1m-40.3 7.9c-1.7 1.4-3.7 3-4.5 3.7-2.7 2.4-12.8 6-12.1 4.3.1-.3 0-.4-.4-.4-.5 0-.5-.1-.1-1.5.4-1.7.3-2.5-.4-2.4-.5 0-2 4.7-2 6.4 0 1.9 2.6 2.7 5.7 1.7 4.3-1.4 16.3-8.4 15.6-9.1-.3-.3-1.3.2-3.4 1.6-3.4 2.3-3.5 2.2-.5-.7 2.3-2.3 5.6-6.1 5.3-6.1-.1 0-1.5 1.2-3.2 2.5m-124.4 2.4c-2.5 5-3.4 6.6-5.5 9.6-4 5.7-4.1 6.5-.5 10.5.9 1 1.6 2 1.6 2.2 0 .2.2.3.3.2.6-.2.5-1.3-.1-2.3-.4-.5-.8-1.3-1.1-1.6l-.4-.7 4.5.2c4 .2 5.5.1 11-.5 1.3-.1 1.8 0 3.6.6 1.2.4 2.7.9 3.4 1 .7.1 1.6.3 1.9.4.3.1.6.2.6.1 0-.2-1.6-.9-5.3-2.2-2.1-.8-4.5-1.8-5.3-2.3-.8-.5-1.7-1-2-1.1-1.1-.3-4.3-7.8-5.5-13l-.6-2.3-.6 1.2m133.1 7.6c-1.8.4-6 1.9-8.8 3.1-6 2.5-11.2 3.4-11.4 1.9-.1-1-.8-1.1-1.2-.2-.7 1.4-.1 3 1.3 3.6 2.4 1 10.4-1.4 13-3.9.5-.5 2.5-1.6 4.5-2.5 4.3-2 5.1-2.6 2.6-2M306 373.9c-.6 1.5.1 2.4 2.7 3.5 2.3 1.1 3.9 1.4 5 1.2 1.3-.2 1.1-.5-1.2-1.2-2.4-.8-4.3-2.4-4.3-3.6-.1-.9-1.8-.9-2.2.1m-102.5 2.2c.1.1 1 .5 2 .8 3.9 1.4 6.4 3 9.2 6l1.6 1.7 3.8.3c4.6.3 9.9-.5 10.1-1.6.1-.6-.4-.7-2.6-.5-5.9.7-9.8.1-12.7-2-2-1.4-6.7-3.8-8.7-4.4-1.9-.5-3.2-.7-2.7-.3"/></svg>