<?xml version="1.0" encoding="utf-8"?>
<!-- Generator: Adobe Illustrator 22.1.0, SVG Export Plug-In . SVG Version: 6.00 Build 0)  -->
<svg version="1.1" id="svg" xmlns="http://www.w3.org/2000/svg" xmlns:xlink="http://www.w3.org/1999/xlink" x="0px" y="0px"
	 viewBox="0 0 410 410" style="enable-background:new 0 0 410 410;" xml:space="preserve">
<g id="svgg">
	<path id="path0" d="M203,49.5c-2.2,0.6-9.1,3.2-11.3,4.2c-0.9,0.4-3.4,1.5-5.5,2.4c-9.7,4.1-17.2,9.2-24.1,16.3
		c-4.2,4.3-4.5,4.7-8.2,10.9l-2.6,4.4l0.3,1.4c0.6,2.8,1.8,4.8,5,8.1c2.7,2.8,3,3,3,2.4c0-0.5-0.6-1.3-2.3-3.1
		c-3.8-4.1-5.4-8.8-3.4-10.1c1.7-1.1,7-0.6,13.7,1.3c2.9,0.8,3.5,1.1,5,2.5c0.9,0.8,6.7,5.1,12.3,9.2c1.1,0.8,3.1,2.5,4.4,3.8
		c5,4.9,14.1,10.4,17.1,10.4c1.3,0,0.2-0.8-5.2-4c-5.6-3.2-9.2-5.9-11.8-8.8c-1.1-1.2-2.9-2.9-4-3.9c-8.6-7.3-11.8-20.9-6.9-29.1
		c1.8-2.9,2.9-3.9,8.1-7.2c7-4.4,8.3-4.9,13.9-5.4c7.4-0.6,14.6,4.9,19.3,14.7c0.8,1.8,1.8,3.6,2.2,4c0.4,0.5,0.7,1,0.7,1.2
		c0,0.2,0.4,1.1,0.8,1.9s1,2,1.2,2.6c1.3,3.9,1.7,4.2,1,0.8c-1.9-8.7-6.6-17.1-14.2-25.5C205.5,48.4,206,48.7,203,49.5 M220.4,81.2
		c0,0.7,1.8,4.1,3.5,6.7c1.6,2.4,14.6,15.3,15,14.9c0.5-0.5-4-6.8-6.3-8.7c-5-4.2-8.3-7.7-10.8-11.5
		C220.5,80.6,220.4,80.4,220.4,81.2 M210.5,82c2.9,5.6,6.7,9.8,11.1,12.4c8.2,4.8,8.9,5.2,12.4,8.7c2.6,2.6,3.6,3.7,4.3,5.1
		c0.6,1.3,1.1,1.9,1.5,2c0.3,0.1,1.5,0.8,2.6,1.5l2,1.3l-2.2-2.7c-1.2-1.5-2.6-3.4-3.2-4.3c-2.5-3.6-10.1-9.4-16.3-12.5
		c-3.3-1.6-6-4.1-9.1-8.1C211.7,82.7,209.9,80.8,210.5,82 M201.7,84.7c0,0.6,1.4,3.6,2.7,5.9c3,5.1,7.7,9.2,16.6,14.6
		c1.6,1,4.3,2.6,5.9,3.6c3.7,2.3,5.1,3,10,5.1c5.1,2.1,9.1,5.2,12.1,9c1.5,2,1.5,2.4,0,1c-1.8-1.6-4.6-2.9-8.9-4.1
		c-2.7-0.7-4.3-1.5-6-3.2c-1.6-1.5-2.4-1.4-1.1,0.1c1.4,1.6,3.1,2.9,6.1,4.3c6.5,3.2,9.8,5.4,11.6,7.5l1.1,1.3l-1.9-0.8
		c-1-0.4-2.3-1-2.8-1.3c-0.5-0.3-1.9-0.8-3.1-1.1c-1.2-0.3-2.7-0.8-3.3-1.1c-0.6-0.3-2.7-1-4.7-1.7c-2-0.7-4.3-1.6-5.3-2
		c-2.1-0.9-3.7-1.3-3.5-0.7c0.3,0.9,7.4,4.2,15.9,7.4c2.6,1,4,1.8,7.6,4.6c1.2,0.9,2.4,1.7,2.8,1.8c1.9,0.5,3.7,5.4,2.8,7.7
		c-1,2.5-5,4.9-8.6,5.1c-4.6,0.3-3.3,0.9,2,0.9c5.7,0,6.9-0.6,9.1-5c2.8-5.5-0.4-15.2-7.3-22c-1-1-2.6-2.6-3.5-3.6
		c-2.1-2.3-5-4.1-13.3-8.1c-12.9-6.3-23.6-12.8-26.6-16c-0.7-0.8-2.4-3.2-3.8-5.5C201.9,84.5,201.7,84.2,201.7,84.7 M167.1,95.5
		c0.1,0.9,0.5,2.7,1,4.1c0.5,1.4,0.8,2.5,0.7,2.6c-0.2,0.2-2.5-2.3-3.1-3.5c-0.8-1.6-0.9-1.6-0.7,0.4c0.2,2-0.3,2.1-1,0.1l-0.4-1.3
		l-0.2,2.9c-0.4,5.5,0.2,7.3,3.4,10.7c0.9,0.9,1.6,2,1.7,2.3c0.1,0.3,0.2,1.1,0.4,1.7l0.2,1.1l1.8,0.1c1,0,2,0,2.3-0.2
		c0.4-0.2,0.7-0.1,1.3,0.4c1.2,1,4.8,3,5.5,3c7.4,0,8.8-13.8,1.8-18.4c-1.5-1-1.5-1-1.1,0.3c0.5,1.6,0.1,1.7-0.7,0.2l-0.8-1.5
		l-0.1,1c-0.1,1.4-0.4,1.3-1.3-0.7c-1.1-2.1-2.7-4.1-4.1-4.8c-1.4-0.7-1.5-0.6-0.5,1.4c0.9,1.9,1,1.9,0.4,1.9
		c-0.5,0-1.8-1.6-2.7-3.3c-1.3-2.7-1.6-2.2-0.6,1c1,3.3-0.6,2.2-1.9-1.2C167.7,93.5,166.9,93.4,167.1,95.5 M182.9,106l1,0.6l-2.3,0
		c-2.1,0-2.4,0-4.4,1c-1.7,0.8-2.4,1-3.6,1c-2.7-0.1-3.7-1.2-1.3-1.5c0.7-0.1,1.9-0.4,2.6-0.7C177.4,105.1,181.1,105,182.9,106
		 M189.9,108.7c-0.1,0.2-0.4,2-0.7,3.9c-0.3,1.9-1.1,5.4-1.6,7.9c-1.9,8-1.5,12.8,1.7,16.9c0.9,1.2,0.7,0-0.4-2.2
		c-1.4-2.8-1.6-5.8-0.6-9.9c0.7-3.1,0.9-2.8,1.1,1.7c0.3,5.1,0.5,4.7,0.7-1.4c0.3-7.9,0.7-9.7,1.3-6.4c0.3,1.4,0.2,2-0.1,3.8
		c-1.4,6.8,0,13.9,3.9,19.4c1,1.4,0.8,0.6-0.4-1.7c-2-3.7-2.9-7.3-2.8-11.1c0.1-3.3,0.7-5.5,0.7-2.6c0,2.2,0.6,6.6,0.8,6.4
		c0.1-0.1,0.1-1.1,0-2.2c-0.4-3.6-0.3-6,0.5-9.1c0.3-1.2,0.6,1.5,0.4,4c-0.1,2.5,0.5,7.4,1.2,9.4c0.6,1.8,0.6,1.4,0.1-1.2
		c-0.4-1.8-0.4-2.8-0.2-4.4c0.3-3.2,0.3-6.6-0.1-9.6c-0.2-1.6-0.3-3.7-0.2-5.2c0.1-2.8,0-3.3-1-3.1c-0.6,0.2-0.7,0.3-1,2.8
		c-0.2,1.5-0.4,2.6-0.5,2.6c-0.3,0-0.6-2.6-0.6-5C191.8,110.4,190.3,107.3,189.9,108.7 M182.5,109.5c1.2,0.4,3.1,1.4,3.7,1.8
		c0.2,0.2-3.6,3.9-4.6,4.4c-1.8,1-5.9,1.3-4.7,0.4c0.4-0.3,0.4-0.4-0.2-1.9c-0.4-0.9-0.7-1.8-0.7-2c0-0.2-0.5-0.8-1.1-1.2
		c-2-1.3-2-1.3,5.5-1.9C180.8,109,181.7,109.2,182.5,109.5 M179.5,110.8c0.5,0.3,0.9,1.6,0.9,2.7v1l0.7-0.6c1.7-1.6,1.7-2.5,0.2-2.8
		c-0.5-0.1-1.2-0.2-1.5-0.3C179.4,110.6,179.3,110.6,179.5,110.8 M310,112.4c-4.2,1.3-8,4.1-8,5.9c0,0.7,0,0.7,1-0.4
		c0.8-0.9,1.6-1.4,3.5-2.2c3.9-1.7,4.1-1.3,0.4,1.3c-1.3,0.9-3,2.2-3.7,3l-1.3,1.3l0.3,1.7c0.4,1.8,1.1,3,1.6,2.5
		c0.2-0.2,0.2-0.6,0-1.2c-1.2-4.3,5.1-7.4,10-4.9c3.3,1.7,9.5,10.5,12.3,17.6c1.4,3.5,2.3,2,1.1-1.9c-0.1-0.4-0.4-1.4-0.5-2.2
		c-0.5-2.8-6-12.9-8.1-15C312.4,111.4,312.6,111.6,310,112.4 M196.7,115.8c-0.6,2.7-0.2,6.2,0.9,9.3c1.3,3.7,1.4,3.7,0.5-0.1
		c-0.9-3.9-1-6.2-0.6-8.3c0.2-0.9,0.3-1.7,0.2-1.8C197.4,114.6,196.9,115,196.7,115.8 M199.9,116.8c-0.4,1.1,0.2,6.3,1.4,11.3
		c0.7,2.9,1.3,5.8,1.4,6.5c0.1,0.7,0.3,1.4,0.4,1.4c0.5,0.3-0.1-4.4-1.1-9c-0.8-3.5-1.1-5.4-1.2-7.6
		C200.7,116.8,200.4,115.8,199.9,116.8 M202.9,118.3c-0.6,1.6,0.1,7,1.1,9.6l0.3,0.7l0-0.7c0-0.4-0.2-1.8-0.4-3.1
		c-0.2-1.3-0.5-3.4-0.6-4.8C203.2,118.3,203.1,117.8,202.9,118.3 M169.2,118.6c-0.1,0.2-0.3,0.7-0.4,1.1c-0.1,0.4-0.7,2.1-1.4,3.8
		c-1,2.6-1.2,3.3-1.2,4.9v1.9l1.2,0.9c0.7,0.5,1.7,1.3,2.3,1.8s2.1,1.6,3.4,2.4c1.2,0.8,2.9,1.9,3.6,2.5c0.7,0.5,1.9,1.3,2.7,1.7
		c0.7,0.4,1.8,0.9,2.3,1.2l0.9,0.5l-0.8-0.6c-0.4-0.3-1.6-1.3-2.7-2.2c-1.1-0.9-2.6-2.2-3.5-2.8c-2.8-2.1-4.3-5.1-3.5-6.8
		c0.7-1.5,1.5-1.7,5.7-1.6l3.7,0.1l0.7-0.8c0.6-0.6,1.6-2.9,1.6-3.6c0-0.1-0.7-0.3-1.6-0.3c-1.5-0.2-5.8-1.8-8-3.2
		C172.4,118.5,169.8,118,169.2,118.6 M298,120.9c-1.4,1.4-1.8,2-1.8,2.6c0,1,0.2,0.9,1.6-0.8c0.7-0.8,1.6-1.8,2.2-2.2
		c1-0.7,1.2-1.2,0.4-1.4C300,119.1,299.1,119.7,298,120.9 M213.7,120.2c0,0,0.2,0.8,0.5,1.8c0.3,0.9,0.6,2.5,0.7,3.6
		c0.1,1.1,0.3,1.7,0.4,1.5c0.4-0.7-0.7-6.3-1.4-6.7C213.8,120.2,213.7,120.2,213.7,120.2 M323.3,120.4c0,0.1,0.6,0.4,1.2,0.5
		c0.7,0.2,1.7,0.6,2.3,1.1c0.6,0.4,1.7,1.1,2.5,1.4c2.1,1.1,4.1,3.1,6.3,6.3c2.1,3.1,2.7,3.6,3.4,2.8c0.8-0.8-3.2-6.3-6.2-8.6
		C329.4,121.4,323.3,119.1,323.3,120.4 M207.3,122.4c-0.5,2.4-0.5,4.6-0.2,7.7c0.6,4.9,1,5.6,0.8,1.5
		C207.7,126.2,207.4,122.2,207.3,122.4 M297.7,125.5c-2.6,2.6-2.6,2.9,0.8,6.8c3.1,3.7,3.6,3.9,2.8,1.4c-0.9-2.9-1.2-3.7-2-4.3
		c-1-0.8-1.1-0.7,1.2-1.4c2.1-0.7,2.1-0.6,0.9-2.4c-0.5-0.8-0.9-1.5-0.9-1.7C300.4,123.2,299.3,123.9,297.7,125.5 M355.4,125.1
		c-4.8,1.6-9.7,4.7-15.6,9.9c-6.6,5.8-9.5,7.1-15.9,7.3c-5.1,0.1-6.1-0.2-9.8-2.8c-3.9-2.8-6.2-5.9-6.1-8.3c0.1-1.5,0-1.7-0.5-1.7
		c-2.3,0-1.1,5.5,1.8,8.5c4.7,4.8,7.4,6,13.7,6c8,0,11.4-1.6,19.4-9c3.9-3.6,10.2-7.5,14.1-8.6c3.6-1.1,9.3-1.1,12.2-0.1
		c1.8,0.6,2.4,0.5,1.4-0.3C368.6,124.6,358.7,124,355.4,125.1 M261.6,126.9c-1.1,0.4-0.8,0.7,2.7,2.8c1.8,1,4.2,2.6,5.4,3.5
		c1.2,0.9,2.4,1.8,2.7,2c0.5,0.4,0.5,0.4,0.3-0.5c-0.9-4.6-3.5-7.1-7.7-7.6c-0.7-0.1-1.6-0.2-2-0.3
		C262.7,126.7,262,126.7,261.6,126.9 M261,130c-0.3,0.5,0.5,1.3,5.2,5.7c6.2,5.7,8,7.5,10.5,10.7c3.1,3.9,3.6,3.9,4.3-0.1
		c0.2-1.1-0.8-2.2-5.4-5.7c-5.4-4-7.3-5.5-8.5-6.4c-0.7-0.5-2.2-1.7-3.5-2.7C262.1,130.5,261.1,129.9,261,130 M370,132.8
		c-2.2,3.7,2.7,8.7,6.8,7c1.6-0.7,1.1-1.9-0.9-2.1c-2.4-0.3-4.1-2.1-4.1-4.1c0-0.7-0.7-1.6-1.2-1.6
		C370.6,131.9,370.3,132.3,370,132.8 M376.7,132.8c-0.1,0.2,0.2,0.9,0.7,1.4c0.5,0.6,0.8,1.2,0.8,1.5c0,0.6,0.5,0.8,0.9,0.4
		c0.6-0.5,0.5-2.3-0.3-3.1C378.2,132.4,377,132.2,376.7,132.8 M363.8,136.7c-3,0.8-7.8,0.9-11.3,0.4c-5.5-0.8-6.5-0.8-6.5-0.3
		c0,0.5,1.3,1.1,3.1,1.4c0.7,0.1,2.3,0.4,3.6,0.6c6.6,1.1,16-0.3,14.4-2.2C366.6,136.1,366.3,136.1,363.8,136.7 M383,137.7
		c-0.5,0.2-0.8,0.7-0.9,1.1c-0.1,0.5-0.3,0.8-0.7,0.8c-0.5,0.1-0.6,0.2-0.5,2.9c0.1,3.3,0,3.2,2.4,3c2.4-0.2,2.5-0.3,1.3-2.7l-1-1.8
		l0.7-0.8c0.8-1,2.1-1.1,3.6-0.3c0.7,0.4,1,0.4,1.3,0.2c0.2-0.2-0.1-0.5-1.4-1.1C384.3,137.4,383.8,137.3,383,137.7 M173.1,139.8
		c-0.1,0.4-1.2,2.8-2.5,5.3c-4.3,8.6-4.1,12.8,0.7,16c2.4,1.6,9.1,1.4,13.9-0.4c6.5-2.4,16.6-3.7,22.1-2.7c2.2,0.4,7.5,0,5.8-0.5
		c-8.6-2.3-16.1-2.3-21.8-0.2c-10,3.8-17,2.5-19.8-3.5c-1.2-2.6-1-8.6,0.3-9.7c0.4-0.3,1-2.2,1.3-4.1
		C173.5,139,173.3,138.8,173.1,139.8 M391,142.6c0,0.3,2.5,2,6.1,4.1c1.4,0.8,2.8,1.7,3.1,2l0.6,0.5l-0.5,2c-1.1,4.4-0.8,4.7,1.1,1
		l0.9-1.8l0.8,2c0.7,1.6,1.8,5.1,3.5,11.1l0.3,0.9l0-0.8c0.1-1.8-3-14.4-3.8-15.3c-0.1-0.2-0.6-0.3-0.9-0.3s-1.4-0.5-2.3-1
		C396.4,144.7,391,142.1,391,142.6 M177,145.1c0.5,5.1,7.1,10,12.4,9.2l1.7-0.3l-1.8,0c-1.3,0-2.1-0.2-2.9-0.7
		c-6.5-3.4-7.9-4.8-8.6-8.4C177.5,142.6,176.8,142.7,177,145.1 M173.8,145.7c-0.6,1.4-0.5,3.9,0.1,5.8c1.5,4.2,2.7,5.1,7.4,5.2
		l2.9,0.1l-1.9-0.3c-1.6-0.3-2.3-0.6-3.8-1.6c-4.1-2.8-4.8-4.5-3.9-9.2C174.9,144.4,174.3,144.4,173.8,145.7 M314.9,145.3
		c-0.1,0.2-0.2,1.1-0.3,2.1l-0.1,1.8l0.9,0.4c1.1,0.4,5.3,0.2,6.3-0.3c1.2-0.6,0.6-1.4-1.2-1.7c-0.5-0.1-1.8-0.7-3-1.4
		C315.1,144.8,315.1,144.9,314.9,145.3 M285.7,145.8c-0.3,0.2-1,1.3-1.7,2.6c-2.5,4.6-3.6,6.3-4.9,7.7c-2.7,2.8-0.4,2.6,2.6-0.2
		c3.5-3.2,5.3-4.5,6.6-4.5h1.1l-3,3.2c-1.7,1.8-3.3,3.4-3.7,3.7c-0.4,0.3-0.6,0.6-0.5,0.7c0.3,0.3,3.1-1.4,4.8-2.9
		c2-1.8,3.1-2.4,4.8-2.7l1.2-0.2l2.1,2.2c7.5,7.8,7.8,19.6,0.9,30.4c-1.9,2.9-3.2,5.4-3.2,6.1c0,0.6,0.6,0.2,1.5-0.9
		c0.4-0.6,1.9-2.6,3.2-4.4c4.7-6.4,6.3-10.1,7.3-17.6c0.9-6.5-2.8-13.5-10.2-19C290.7,147.1,286.7,145.2,285.7,145.8 M237.3,148.6
		c0.2,2.1,0,2.7-2.5,5.2c-4.7,4.7-11.4,6.6-22.4,6.3c-5.6-0.1-4.1,0.3,4.5,1.2c14,1.4,25.2-5.3,21.4-12.8
		C237.4,146.8,237.1,146.8,237.3,148.6 M384.6,147.3c-2.3,0.1-2.2,0.1-1.8,3.4c0.2,1.6,0.4,4.2,0.4,5.8v2.9l1,1.1
		c0.6,0.6,1.5,1.7,2.1,2.5c1.9,2.4,4.5,5,6.5,6.5c1.1,0.8,4.6,4.1,7.8,7.4c3.2,3.2,5.8,5.8,5.9,5.8c0.2-0.2-5.6-6.5-10.8-11.9
		c-5.1-5.2-7.4-7.8-8.2-9.2l-0.6-1.1l4.5,0.1l4.5,0.1l3.2,5.1c2.9,4.6,4.4,6.8,3.7,5.2c-2.1-4.2-6.4-12.1-7.2-12.8
		c-0.9-1-1.2-1.4-5.6-7.7c-2.1-3-2.5-3.4-3-3.3C386.7,147.2,385.6,147.3,384.6,147.3 M328.2,149.8c-0.1,0.2-0.2,4.4-0.3,9.3
		c-0.1,4.9-0.2,11.1-0.3,13.7c-0.2,5.9-0.1,6.6,0.9,6.6c1,0,1,0.3,1.1-8.8C329.8,157,329.1,147.4,328.2,149.8 M314.7,151.3
		c-0.1,0.1-0.1,0.9-0.2,1.8c0,0.8-0.5,4.9-1.1,8.9c-2.4,16.3-2.4,15.9,3.3,17.4c4.8,1.2,5.5,1.1,4.4-1c-1.4-2.7-1.9-10.9-1.1-19
		c0.3-3.2,0.5-6.2,0.5-6.7l-0.1-0.9l-2-0.2c-1.1-0.1-2.4-0.2-2.8-0.4C315.2,151.1,314.8,151.2,314.7,151.3 M245,163.2
		c-7.3,2-14.7,10.1-16.8,18.3c-1.2,4.6-3.9,9.8-7,13.2c-2.3,2.6-2.6,3.1-1.3,2.4c2.1-1.2,4.3-4.5,8.3-12.7
		c6.1-12.3,10.8-17,19.6-20.1c2.7-0.9,2.7-1.1,0.1-1.3C247,162.9,245.8,163,245,163.2 M173.7,166.8c-1.1,0.9-2.8,2.2-3.9,3
		c-2.8,2-2.5,2.9,1,3.4c2.9,0.4,15.4,0.2,16.6-0.3c0.5-0.2,2.1-0.6,3.5-0.9c2.7-0.5,6.9-1.6,7.3-2c0.1-0.1-1.7-0.3-4-0.4
		c-10.8-0.4-14.6-1.3-15.6-3.7C177.9,164.6,176.1,164.9,173.7,166.8 M244.4,167.8c-5.8,2.9-10.7,8.8-14.2,17.1
		c-1.4,3.4-7.4,11.5-9.6,12.9c-2,1.3-2,1.7,0.1,1.5c3.2-0.3,8.7-4,11.7-8.1c1-1.3,2.5-3.3,3.3-4.4c2-2.7,7.5-8.3,10.1-10.3
		c1.2-0.9,2.2-1.9,2.3-2.2c0.6-2.1,0.4-6.5-0.3-7.5l-0.5-0.6L244.4,167.8 M210.5,170.9c3,2.9,8.3,9,10.9,12.5c0.9,1.3,1.5,1.8,2,1.8
		c2.9,0.3-2.5-6.8-10.3-13.7C209.6,168.5,207.5,168,210.5,170.9 M171.4,176.5c-0.5,0.6-2.1,4.1-3.5,7.4c-1.2,3.1-3.8,7.7-7.5,13.6
		c-7.9,12.6-12.6,26.2-11.6,33.9c0.3,2.3,0.5,2.4,2.7,2c1-0.2,3.2-0.5,4.8-0.7c5.2-0.5,4.7-0.1,5.9-4.2c2.7-9.6,8.1-19.1,19.5-34.9
		c4-5.5,6.3-10.3,5.7-12c-1.1-3.5-3.4-4.6-10.4-5.1c-2.8-0.2-5.2-0.4-5.2-0.4C171.7,176.2,171.5,176.3,171.4,176.5 M251,178.8
		c-1,0.3-4,1.8-5.5,2.9c-1.8,1.2-8.3,8.2-10.8,11.5c-2.4,3.2-7.4,8.3-9,9c-0.7,0.3-1.8,0.8-2.5,1.1c-1.4,0.6-1.7,1.4-0.5,1.4
		c2.4,0,9.9-6.3,14.8-12.3c7-8.6,8.8-10.1,14.5-12.2c1.6-0.6,1.8-0.9,0.8-1.3C252,178.5,252,178.5,251,178.8 M310.1,178.8
		c-3,2,2.5,13.4,8.2,17.2c0.7,0.5,1.7,1.2,2.4,1.6c0.9,0.7,1.2,0.7,1.6,0.5c0.3-0.2,0.8-0.3,1.3-0.3c1.1,0,1.4-0.5,1.4-1.9
		c0-2.5,1.8-8.2,3.3-10.6c1-1.5,1.7,0.5,1.9,6c0.2,3.9,0.4,4.3,1.4,2.6c0.9-1.4,0.8-7.6,0-9c-1.3-2.1-2.3-2.6-4.8-2.6
		c-5.9,0-13.1-1.4-14.7-2.9C311.3,178.8,310.5,178.5,310.1,178.8 M246.1,186.5c-2.4,1.8-3.4,2.9-5.7,5.7c-3.2,4-8.4,9.2-10.7,10.6
		c-1.1,0.7-1.9,1.3-1.9,1.4c0,0.1-0.6,0.4-1.4,0.7c-3.3,1.1-1.7,2.4,4,3.1c2.7,0.3,5.7-0.3,8.2-1.8c3.2-1.8,7.7-9,8.1-12.8
		c0.1-1,0.4-2.9,0.6-4.2c0.2-1.3,0.4-2.7,0.4-3.1l-0.1-0.8L246.1,186.5 M206.4,198c-0.1,0.1-1.4,0.4-2.8,0.7c-5.6,1-8.3,3-11.4,8.5
		c-5.4,9.2-12.3,19.9-15.5,24.1c-0.7,0.9-1.5,2.1-1.8,2.5l-0.5,0.9l0.8,0.9c1.1,1.1,1.3,1.1,2.3-0.4c0.5-0.7,1.5-2,2.3-2.9
		c2.7-3.2,6.7-8.9,10.4-14.7c0.8-1.3,2.5-4,3.8-5.9c1.2-1.9,2.8-4.4,3.5-5.6c2.8-4.7,7.6-7.6,13.4-8.1l2.3-0.2l-3.2,0
		C208.1,197.8,206.5,197.9,206.4,198 M298.5,202.1c0,0.7,0.7,1.4,2.4,2.3c2.1,1.2,5.4,4.6,6.6,6.7c1.5,2.7,3.1,4.6,4.4,5.3l1.2,0.6
		l1.5-0.5c2.1-0.7,7.2-4.6,9-6.9c0.9-1.1,0.6-1-1.1,0.4c-5.5,4.7-12.1,2.5-14.4-4.7c-0.8-2.5-1.5-2.4-1.2,0.2l0.1,1.4l-2-1.7
		c-1.2-1-2.6-1.9-3.5-2.3c-0.8-0.3-1.6-0.6-1.7-0.8C299.2,201.9,298.5,201.8,298.5,202.1 M204.2,203.1c-1.4,0.7-1.6,1-0.7,1.3
		c0.4,0.2,1.1,0.6,1.5,1c0.7,0.7,0.7,0.7,2,0.3c0.7-0.2,1.9-0.6,2.7-0.7l1.5-0.3l-0.8-0.6C208.7,202.7,206,202.3,204.2,203.1
		 M293.3,208.1c0.1,6.2,0.1,6.2-1.9,3.1c-1.7-2.7-1.7-2.7-1.5-1.3c0.6,3.7-1.2,5.9-5.4,6.7c-1.2,0.2-2.3,0.5-2.4,0.6
		c-0.5,0.5,0.5,0.6,2.3,0.3c6.3-1.1,13.1,7.2,12.6,15.5c-0.1,2.1-0.1,2.6,0.2,2.6c0.3,0,2.1-2.1,2.3-2.8c0.2-0.5,0.4-0.1,0.6,1
		c0.2,1.5-2,5.4-2.7,4.9c-0.2-0.2-1.2-0.9-2-1.7c-2.1-1.8-7.1-5.7-7.2-5.7c-0.5,0,0.2,1.2,2.1,3.1c2.8,3,3.1,3.4,4.5,6.6
		c1.3,3.2,1.7,3.6,2.4,3.1c0.3-0.2,0.8-0.3,1.2-0.3c0.7,0,3.1-2.4,4.3-4.3c0.3-0.5,0.8-1.1,1-1.3c0.6-0.5,0.1-2.2-2.5-7.4
		c-3.8-7.5-6.9-18.1-7.7-25.9C293.3,203.2,293.2,203.9,293.3,208.1 M212.6,207.1c-0.8,0.1-2.2,0.4-3.1,0.6c-0.9,0.2-2,0.5-2.6,0.6
		c-1.5,0.3-1.3,0.8,1.2,3.5c2.2,2.4,2.2,2.4,3.3,2.2c2.7-0.5,12-2.6,12.2-2.8c0.1-0.1-0.2-0.7-0.8-1.3
		C220.9,207.8,216.3,206.6,212.6,207.1 M223,207.2c0,0.1,0.3,0.5,0.7,0.9c2.5,2.8,3.2,8.1,2.4,18.6c-0.2,2.8-0.4,5.4-0.5,5.9
		c-0.1,1,2.4,2.3,7.5,4.1c3.8,1.3,3.6,1.3,4.7-0.3c2.4-3.6,2.5-6.4,0.4-11.6c-1.8-4.4-2.5-6.9-2.9-10.6l-0.3-2.7l-2.1-0.3
		c-1.2-0.2-2.8-0.6-3.6-1c-0.8-0.4-2-0.9-2.7-1.1c-0.7-0.2-1.7-0.8-2.3-1.2C223.6,207.4,223,207.1,223,207.2 M216,215.2l-0.8,0.4
		l0.6,2.3c0.7,3.1,0.6,2.9,4.4,2.6c3.8-0.3,3.4,0,3.3-2.6c-0.1-2.2-0.1-2.2-1-2.6C221.2,214.7,217.2,214.7,216,215.2 M214,222.7
		c-0.3,0.4-0.3,0.7,0,2c0.2,0.8,0.4,2,0.5,2.7c0.3,2.1,3,2.8,6.7,1.8c0.8-0.2,1.8-0.4,2.2-0.4c1.3,0,1.6-0.7,1.5-3.5l-0.1-2.5
		l-4.1-0.1c-2.3,0-4.6-0.1-5.2-0.3C214.6,222.3,214.3,222.3,214,222.7 M217.7,232.1c-0.6,0.2-1.6,2-1.6,2.9c0,1.2,1.3,2.2,5.2,4.2
		c1.9,0.9,4.7,2.4,6.3,3.2c2.6,1.4,5.3,2.5,7.3,2.9l0.8,0.2l-0.6-0.6c-0.3-0.3-0.6-0.8-0.7-1.1c-0.1-0.3-0.3-0.5-0.6-0.5
		c-1,0-0.3-0.5,1.1-0.8c1.7-0.4,5.6-0.1,11,0.8c4.4,0.8,5.3,0.5,1.5-0.4c-8.6-2.1-17.9-5.6-25.7-9.7
		C219.3,232,218.7,231.8,217.7,232.1 M156.4,235.1c-9.4,0.7-11.6,1.8-11.4,5.5c0.2,3.1,0.2,3.1,6.6,1.3c4.6-1.3,7-1.6,10.6-1.2
		c1.6,0.2,2.9,0.3,3,0.2c0.5-0.5-1.1-0.9-6-1.5c-2.5-0.3-5.4-0.1-7.5,0.6c-0.5,0.2-0.9,0.2-1,0.1c-0.3-0.3,1.5-1,3.6-1.5
		c1.1-0.3,2.4-0.6,2.9-0.8s1.3-0.2,1.8-0.1c1.3,0.2,4.5-0.2,4.5-0.5c0-0.1-1.2-0.3-2.7-0.4c-2.6-0.2-3.3-0.5-2-0.8
		c0.4-0.1,2.8-0.1,5.3,0c4.4,0.1,4.5,0.1,3.6-0.3c-0.7-0.3-1.8-0.5-3.6-0.5c-1.4,0-3-0.1-3.5-0.1C159.9,235,158.1,235,156.4,235.1
		 M210.9,241.8c-1.4,1.5-2.8,3.6-3.6,5.3c-0.3,0.7-0.2,0.7,2.7,2.7c7.3,4.8,8,5.2,14.5,7.3c4.7,1.5,6.5,1.6,4.7,0.2
		c-1.2-0.9-2.3-2.7-1.9-3.1c0.5-0.7,2.1-0.5,8.1,0.9c6.7,1.6,6.8,1.6,8.8,1.7c0.9,0.1,2.6,0.4,3.8,0.8c1.2,0.4,2.3,0.6,2.4,0.6
		c0.3-0.3-9-3.9-10.1-3.9c-0.7,0-5.3-1.5-7.2-2.4c-0.7-0.3-2.5-1-3.9-1.5c-1.4-0.5-3.3-1.4-4.3-2.1c-1-0.6-2.8-1.8-4.1-2.7
		c-1.3-0.8-3.5-2.4-4.9-3.5C212.8,239.8,212.8,239.8,210.9,241.8 M303.4,242.8c-2.8,2.8-6.6,5.9-8.4,6.9c-1.1,0.6-4.3,2.4-7.1,4.1
		c-2.9,1.6-5.7,3.2-6.3,3.4c-1.1,0.4-1.5,0.9-0.9,0.9c0.7,0,6.6-2.8,12.3-5.7c6.7-3.5,8.9-4.4,10.8-4.4c1.5,0,3,0.6,3.2,1.4
		c0.2,0.8,0.9,0.6,1.3-0.4c0.2-0.5,0.6-1.2,0.9-1.6c0.4-0.6,0.4-0.8,0.1-1.2c-0.2-0.3-0.5-0.8-0.6-1.1c-0.8-1.8-2.5-3.5-3.7-3.5
		C304.8,241.5,304.1,242.1,303.4,242.8 M155.1,243.1c-6.1,0.4-10.8,1.5-11.3,2.8c-0.8,2.1-0.3,6.9,0.9,8.2l0.6,0.8l2.2-1
		c6.7-2.8,14.9-3.7,20.4-2.2c0.4,0.1,0.6,0.1,0.6-0.1c0-0.2-0.3-0.4-0.7-0.5c-0.4-0.1-1-0.3-1.3-0.4c-3-1.4-10.4-1.5-15.3-0.2
		c-2.3,0.6-2.6,0.5-1.5-0.6c0.8-0.8,2.5-1.3,7.5-2.1c1.9-0.3,6,0,9.6,0.7c2.3,0.5,2.6,0.4,1.3-0.4c-1.8-1.1-6.7-2.2-9.8-2.2
		c-3.6,0-3.8-0.5-0.5-1.1c4-0.8,8.7-0.5,11.6,0.7c2.5,1,2.5,1,1.6,0.2C168.9,243.7,162.7,242.7,155.1,243.1 M309.7,250
		c0,0.1,0,1.1,0,2.2c0.1,3.5-0.8,6.1-3,8.5c-1.3,1.5-1.5,1.9-0.7,1.9c0.9,0,4.4-3.6,6.3-6.5c1.8-2.6,1.8-2.6,1.9-1.8
		c0.1,1.5,0.5,1.4,0.8-0.2c0.5-2.4,0.4-2.8-1.1-3c-0.7-0.1-1.8-0.4-2.5-0.7C310.1,249.7,309.7,249.7,309.7,250 M206.5,253.1
		c-4.8,6.6-7,14.9-5.8,21.7l0.3,1.7l1.4-0.7c2.8-1.4,12.5-7.9,16.3-11l1.8-1.5l-1.3-0.6c-1.7-0.9-2.2-1.4-4.4-4.3
		c-2.1-2.9-5-5.8-6.2-6.5l-0.8-0.4L206.5,253.1 M151,255.7c-4.9,1.4-4.8,1.3-4.3,4.9c1.4,10.2,1.5,12.6,0.9,24.4l-0.2,3.3l1.2-0.2
		c1-0.2,2.6-0.3,5-0.4c0.7,0,0.6-1-0.1-1.9c-1.3-1.6-1.6-3.9-0.7-6c0.7-1.6,0.7-2,0-2.8c-0.8-1-0.5-4.1,0.5-5.9
		c0.2-0.3,0.1-0.8-0.3-1.6c-0.8-1.7-0.7-4.4,0.1-5.7c0.7-1,0.7-1,0.3-2.2c-0.5-1.5-0.5-2.1,0-3.5C154.3,256,153.3,255,151,255.7
		 M314.8,257.1c-0.2,0.2-0.4,1-0.4,1.7c-0.2,2.1-0.3,2.3-2.3,5.2c-2.2,3.2-2.6,3.9-1.9,3.9c0.9,0,4.8-4.9,6.3-7.8
		C317.5,257.7,316.2,255.4,314.8,257.1 M156.2,258.3c-1.2,0.4-1.8,2-1.2,3.2c0.5,0.9,1.1,0.6,1.1-0.5c0-1.1,0.2-1.5,0.9-1.7
		c0.5-0.2,0.6-0.9,0.1-1.1C156.9,258.2,156.5,258.2,156.2,258.3 M256.5,259.1c-0.2,0.4,0.1,0.5,2.9,1.2c1.4,0.4,3.1,0.9,3.8,1.2
		l1.3,0.5l0,2.2c0,1.8-0.1,2.4-0.6,3.2c-0.6,1-0.5,1-3.3,0.4c-5.7-1.3-5.9-0.3-0.3,1.3c3.3,0.9,3.9,0.9,4.7-0.2
		c1.1-1.4,1.7-6.1,1-7.8C265.6,260,257.1,258.2,256.5,259.1 M158.6,260.6c-0.1,0.2-0.1,0.4-0.1,0.5c1.8,1.5,3.7,2.2,3.7,1.4
		C162.2,261.6,158.9,259.9,158.6,260.6 M317,261.6c-0.5,0.6-0.5,1.2-0.3,3.3l0.2,2.1l-1.6,2.9c-2.3,4.1-5,8.1-6.5,9.3
		c-1.3,1.1-1.5,1.5-0.7,1.5c1,0,7.5-6.9,9.9-10.5c0.5-0.8,1.1-1.7,1.3-1.9c0.3-0.4,0.3-0.3,0.3,0.6c0,2.5,1.6,5.4,3.2,5.9
		c0.6,0.2,0.6,0.1,0.5-0.6c-0.5-2.5-0.7-3.7-0.8-5.3c0-1.1-0.2-1.9-0.5-2.2c-0.2-0.3-0.7-0.9-1-1.5c-0.3-0.5-1-1.2-1.5-1.6
		s-1.1-1-1.3-1.5C317.7,261.2,317.4,261,317,261.6 M166.2,262.4c-4.7,1.4-8.5,2.9-8.5,3.4c0,0.3,1,0.1,4-0.8c1.2-0.4,3.5-1,4.9-1.3
		c3.1-0.7,4.1-1.3,3.6-1.8C169.8,261.4,169.8,261.4,166.2,262.4 M223.1,263.9c-1.1,0.7-4.1,2.9-6.6,4.9
		c-7.7,5.8-15.8,10.9-17.5,10.9c-0.8,0-1.6,1.5-1.4,2.6c0.5,3.6,1.6,7.3,2.4,7.6c0.9,0.5,1.1,0.5,1,0.1c-0.1-0.9,0.1-1.3,0.8-1.6
		c2.5-1.1,12.3-7.1,15.1-9.3c0.9-0.7,1-0.9,0.8-1.8c-0.5-3.2,1.9-7.9,6.6-12.9C226.1,262.2,225.7,262.1,223.1,263.9 M258,263.3
		c-0.6,0.7,0.2,1.2,2,1.2c1.5,0.1,1.6,0,1.7-0.5C261.8,263,258.7,262.4,258,263.3 M270.8,264c0.3,0.2,1.4,0.9,2.6,1.5
		c3.4,1.9,6.3,5.1,7,7.8c0.2,0.7,0.4,1.3,0.5,1.3c0.1,0,0.2,0.3,0.2,0.6c0,2.4,4.4,2.6,9.1,0.4c2.1-1,2.1-0.8,1-2.5
		c-2.4-3.7-5-5.2-12.2-7.4c-1.1-0.3-3.1-0.9-4.5-1.4C271.8,263.6,270,263.4,270.8,264 M154.4,264.8c-1.1,1.1-0.7,4.1,0.6,4.1
		c0.3,0,0.4-0.2,0.2-1.1c-0.3-1.5-0.2-2,0.3-2.6C156.4,264.2,155.4,263.8,154.4,264.8 M165.7,265.6c0,0.5,1.7,2.1,2.2,2.1
		c0.7,0,0.5-0.8-0.4-1.6C166.6,265.2,165.7,265,165.7,265.6 M242,267c-2.7,0.9-4,2.5-4,4.7c0,2.5,1.1,3.5,1.3,1.2
		c0.2-1.8,0.4-2,1.3-1.1c1.7,1.8,4.1,0.1,3.6-2.6c-0.2-1.1,0.2-1,1.6,0.3c1.3,1.3,0.8,0.2-0.7-1.3C243.7,266.9,243.1,266.6,242,267
		 M157.9,267.9c-0.2,0.3,0.4,0.9,1.8,1.9c1.4,0.9,2.1,1.1,2.1,0.4C161.7,269.5,158.2,267.4,157.9,267.9 M163.7,271.1
		c-4,1.1-6.3,1.9-6.3,2.4c0,0.2,0.2,0.3,0.6,0.2c0.3-0.1,1.4-0.3,2.3-0.5c1-0.2,3.1-0.7,4.8-1.1c3.2-0.7,4.2-1.2,3.9-1.7
		C168.8,269.9,167.7,270,163.7,271.1 M154,272.9c-0.7,0.9-0.7,2.3,0,3c0.8,0.8,1.1,0.4,0.9-0.8c-0.1-0.8-0.1-1.2,0.2-1.7
		C156,272.1,155,271.6,154,272.9 M165.2,273.9c0,0.5,1.9,2.3,2.5,2.3c0.7,0,0.5-0.5-0.6-1.6C166,273.5,165.2,273.2,165.2,273.9
		 M157.2,276c0,0.2,0.6,0.7,1.4,1.2c0.8,0.5,1.6,1,1.8,1.3c0.5,0.6,1.1,0.5,1.1-0.1c0-0.6-1.3-1.7-2.7-2.3
		C157.5,275.6,157.2,275.5,157.2,276 M331.8,276.8c-3.2,0.7-2.8,1.4,0.8,1.1c3.1-0.2,6.6,0.2,8,0.9c2.8,1.4,6.6,7,8.7,12.8
		c0.3,1,0.7,1.7,0.8,1.6c0.1-0.1,0.5,0.1,0.8,0.5c1.7,1.6,0.8-1.7-1.8-7.1c-2.3-4.6-5.2-8.2-7.8-9.4
		C339.7,276.5,334.3,276.2,331.8,276.8 M234.8,284.8c-4.8,9.1-4.5,8.2-2.3,8.9c1,0.3,1.9,0.7,2.1,0.7c0.5,0.2,6.4-16.5,5.9-16.8
		c0,0-0.4-0.2-0.9-0.3l-0.8-0.3L234.8,284.8 M162.6,279.1c-4.6,1.5-5.1,1.8-4.8,2.1c0.5,0.5,10.7-2.5,10.7-3.1
		C168.5,277.3,167.2,277.5,162.6,279.1 M154.8,279.9c-1,1.1-1,3.2,0,4.1c0.8,0.7,1.2,0.2,0.8-1.1c-0.2-0.8-0.2-1.2,0.1-2
		C156.4,279.5,155.8,278.8,154.8,279.9 M164,281c-0.3,0.4,1.3,1.9,2.1,1.9c0.4,0,0.1-0.9-0.6-1.5C164.7,280.7,164.2,280.5,164,281
		 M220,282c-0.9,0.5-2.4,1.4-3.3,2.1c-2,1.3-8.9,5.3-11.5,6.5c-2.8,1.4-2.6,1-2.5,6.3c0.1,3.2,0,5.5-0.2,7.4
		c-0.2,1.5-0.3,2.8-0.3,2.9c0,0.1-0.1,0.8-0.4,1.5c-0.2,0.7-0.4,1.5-0.4,1.8s0,0.6-0.1,0.8c-0.3,0.5-0.2,0.5,3.2-0.6
		c1.7-0.5,3.5-1.3,4.2-1.7l1.2-0.7l0.5-3.6c1-7.5,4.3-14.6,10.2-21.9C222.1,280.9,222,280.8,220,282 M157.1,283.1
		c-0.2,0.3,0.5,0.9,2,1.7l1.2,0.7l-1.6,0.7L157,287l1.1,0.1c1.2,0.1,7.3-1.8,8-2.6c0.9-0.9-0.3-0.9-2.9-0.1
		c-2.4,0.8-2.4,0.8-2.8,0.3C159.8,283.8,157.4,282.6,157.1,283.1 M339.9,285.8c-0.5,0.9-0.3,1.5,1.4,5.8c0.9,2.3,2.1,5.1,2.5,6.2
		c6.2,15.3,8.7,24.9,6.9,26.9c-0.6,0.7-0.6,0.7,0.6,1c0.7,0.2,1,0.1,1.7-0.6c1.5-1.5,0.9-4.3-3.9-17.1c-0.7-1.8-1.6-4.5-2.1-5.9
		c-1.1-3.1-3.8-9.6-4.1-9.9c-0.6-0.4-2.5-5.6-2.3-6.3C340.7,285.1,340.3,285,339.9,285.8 M163,287.2c0,0.4,1.4,1.5,1.9,1.5
		c0.5,0,0.3-0.8-0.4-1.3C163.7,286.8,163,286.7,163,287.2 M148.7,289.9c-2.6,0.4-3.1,1.2-3,4.7c0.1,1.6,0.3,1.7,1.8,1
		c3.4-1.7,9.3-2.2,13.7-1c2.2,0.6,3,0.3,2.4-0.8c-0.2-0.3-0.2-0.8-0.1-1c0.1-0.6-0.6-1.1-3.3-2.1
		C157.9,289.7,151.9,289.3,148.7,289.9 M219.7,292.6c-1.1,0.2-1.3,0.8-1.2,3.4c0.1,2.5,0.4,3.4,0.7,2.2c0.1-0.4,0.5-1.2,0.9-1.8
		l0.7-1.1l2.4,0.1c2.8,0.1,7.2,1.3,12.9,3.4c4.2,1.6,4.5,1.6,3.1,0.4c-1.1-1-3.2-1.9-5.4-2.3c-0.8-0.1-1.5-0.5-1.8-0.8
		c-0.4-0.5-2.4-1.3-7.1-3C222.8,292.5,221.3,292.3,219.7,292.6 M335.6,294.4c-0.8,0.9-2.9,5.5-4.7,9.9c-1.1,2.8-2.6,6.4-3.4,8
		c-0.8,1.6-2,4.4-2.7,6.2c-2.1,5.2-3.7,7.8-9.3,15.4c-3,4-7,7.6-11.8,10.6c-1.2,0.7-1.6,1.2-0.9,1.2c0.2,0,0.5-0.1,0.6-0.3
		c0.1-0.1,1.1-0.7,2.1-1.2c8.7-4.5,16.2-13.1,20.4-23.3c0.7-1.7,2.1-4.9,3.1-7.1c1-2.2,2.3-5.4,3-7.1c3.2-8.3,4.5-11.2,5-11.2
		c0.4,0,0,1.5-2.5,8.8c-2.3,6.9-3.4,9.7-5.2,13.9c-1.1,2.4-1,2.6,0.1,0.7c3.4-6,8.9-7,8.9-1.7c0,0.5-0.2,1.8-0.5,2.9
		c-0.9,3.2-0.5,3.3,1.1,0.1c0.6-1.2,1.3-2.3,1.5-2.4c0.2-0.1,0.4-0.5,0.4-0.8s0.2-1.1,0.4-1.8c2-5.6,2-6.8,0.4-11.9
		C338.8,295.6,337,292.7,335.6,294.4 M193.2,294.6c-0.9,0.4-1.9,2.5-1.7,3.4c0.4,1.9,2.8,2.7,4,1.3
		C197.4,297,195.7,293.4,193.2,294.6 M150.2,297.1c-6.4,1.4-8,5.8-4.4,11.9c1.6,2.7,1.7,3.8,0.7,7c-1.1,3.5-1,6.8,0.1,4.5
		c1.1-2.4,3.4-4.1,3.4-2.6c0,0.3,0.3,1,0.7,1.6c0.4,0.6,1,2.1,1.4,3.5c0.9,2.9,1.7,3.4,1.7,1.2c0-1.6,0.7-3.1,2-4.3
		c1.2-1.2,1.7-0.8,2.7,1.9c1.3,3.4,1.8,3.8,2.3,1.8c0.2-0.7,0.7-1.9,1.2-2.6c0.5-0.7,0.9-1.4,0.9-1.7c0-0.3,0.1-0.3,0.5,0
		c0.3,0.2,0.7,0.5,1.1,0.6c0.3,0.1,0.9,0.6,1.4,1.1c0.4,0.5,0.9,0.9,1,0.9c0.5,0-0.1-13-0.7-14.8c-1.2-3.4-4.2-7.4-6.8-9.2
		C157.9,296.9,152.8,296.5,150.2,297.1 M225,300c-0.9,0.9-3.7,7.1-3.4,7.4c0.3,0.2,4.6,0,4.7-0.2c0.1-0.1,0.8-1.1,1.6-2.3
		c1.7-2.4,2.1-2.6,4.5-1.9c2.5,0.7,1.8-0.8-0.9-1.8c-0.9-0.3-2.4-0.9-3.2-1.2C226.5,299.2,225.7,299.2,225,300 M193.4,303
		c-0.3,0.3-0.3,0.5,0,0.8c0.3,0.4,0,9.4-0.4,11.4l-0.2,0.7l1.4-0.7l1.4-0.7l0.1-1.4c0.1-1.9-0.5-9.9-0.8-10.3
		C194.6,302.5,193.8,302.5,193.4,303 M221,309.3c-1.2,0.1-3,0.4-4,0.8c-2,0.7-1.8,0.5-2.9,3.9c-0.3,0.8,0.2,0.8,3.5-0.2
		c3-1,3.8-0.9,6.9,0.2c8.3,3,9.2,3.2,4,0.6c-6.9-3.5-4.5-4.3,3.5-1.2c5.1,2,10.6,4,10.7,3.8c0.4-0.4-8.6-4.8-13.3-6.5
		C225.4,309.3,224.1,309,221,309.3 M169.6,313.1c-0.1,0.3-0.2,1.8-0.3,3.3l-0.2,2.6l0.9,1c0.9,1,0.9,1,1,4c0.1,3.7,1.9,7.9,3.3,7.9
		c0.4,0,0.3-1.8-0.2-2.9c-0.3-0.8-0.5-1.9-0.5-4.9c-0.1-4.7-0.3-5.9-1.4-7.8c-0.5-0.8-0.8-1.6-0.8-1.8c0-0.4-1.1-2.1-1.4-2.1
		C169.8,312.4,169.7,312.7,169.6,313.1 M202.2,314c-1.6,0.3-3.3,1-6.3,2.8c-1.3,0.8-2.5,1.5-2.7,1.5c-0.6,0-8.2,4.7-8.7,5.4
		c-0.9,1.2,0.1,4.2,1.1,3.4c0.2-0.2,0.3-0.6,0.3-1c0-0.9,0.6-1.4,4.4-3.5c1.5-0.8,3.9-2.2,5.4-3c1.5-0.8,4.2-2.2,5.9-3.1
		C206.8,314,206.9,313.2,202.2,314 M218.5,314.8c-0.1,0.2-0.6,1.4-1.1,2.7c-0.5,1.2-1,2.4-1.1,2.5c-0.4,0.5-5.5,14.2-5.8,15.5
		c-0.2,0.8-0.5,1.8-0.7,2.4c-1,2.3-1.3,8.5-0.6,14.1c0.6,5,1.9,3.5,2.6-3c0.4-3.1,1.7-8.7,2.3-10c0.2-0.5,0.6-1.4,0.8-2.2
		c0.9-3.1,7.4-18.7,8.5-20.3c0.6-0.9,0.4-1.4-0.8-1.8C221.4,314.2,218.8,314.3,218.5,314.8 M343.4,323c0,1.4,0.1,1.5,2.1,3.8
		c3.4,3.9,4,6.3,2.5,10.5c-0.4,1-0.6,2-0.5,2.1c0.1,0.1-0.6,1.2-1.4,2.4c-0.8,1.2-1.4,2.2-1.4,2.3c0.5,0.5,3.1-3.1,4.8-6.5
		c0.5-1,1.3-2.4,1.6-2.9c1.8-2.6,0.7-5.7-2.6-7.9c-1.1-0.7-2.5-1.8-3-2.4c-0.5-0.6-1.2-1.5-1.6-1.9l-0.7-0.8L343.4,323 M204.6,322.6
		c-0.7,0.1-2,0.3-2.9,0.3c-1.1,0.1-2.3,0.3-3.3,0.8c-11.2,4.8-11.6,5.2-11.1,9.5c0.3,2.8,1.1,3.9,1.1,1.7c0-1.4,0.9-2.6,2.8-3.6
		c2.3-1.2,9.7-3.7,10.8-3.8c0.5,0,1.3-0.1,1.8-0.2l0.8-0.2l-0.8,0c-0.4,0-1.3-0.2-1.8-0.3c-0.8-0.2-1.3-0.2-2.4,0.2
		c-2.1,0.7-2,0.3,0.3-1c0.7-0.4,1.6-0.9,2-1.2c0.8-0.6,5.4-1.7,7.1-1.7c0.6,0,0.8-0.1,0.7-0.3C209.5,322.4,206.3,322.3,204.6,322.6
		 M141.9,325.1c-0.5,0.1-0.8,0.9-0.8,2.3c0,0.8-0.1,1-0.6,1.1c-1.1,0.3-3.1,2.8-3,3.7c0.1,0.6,0,0.8-0.4,0.7c-0.9-0.2-1.9,3.8-1.3,5
		c0.3,0.5,0.3,0.5,1-0.2c1.7-1.7,1.9-2.5,0.7-2.5c-0.3,0-0.6-0.1-0.6-0.3c0-0.4,1.2-0.8,1.8-0.6c0.4,0.1,0.8-0.1,1.7-1.2
		c0.6-0.7,1.7-1.9,2.4-2.5c0.7-0.7,1.4-1.6,1.5-2.1c0.4-1.3,0.6-3.1,0.3-3.3C144.3,325.2,142.4,325,141.9,325.1 M265.3,327.5
		c-2.7,1.5-2.3,2.7,2,6.2c1.7,1.4,4.7,3.9,6.7,5.6c4.5,3.9,9.8,7.5,13.2,9.1c4.3,2,3.9,1.4-1.9-3c-4.6-3.5-10.2-8.9-12.7-12.3
		C267.6,326.4,267.5,326.2,265.3,327.5 M163.2,327.6c-0.1,0.3,0,0.9,0.4,1.4c2.1,3.3,2.2,5.1,0.4,8.7c-2,4.1-2.4,6.5-1.2,7.6
		c0.6,0.6,0.7,0.5,1.2-1.3c0.2-0.8,0.5-1.7,0.6-2c0.2-0.5,0.2-0.5-0.4,0c-0.3,0.3-0.7,0.4-0.8,0.3c-0.3-0.3,0.5-1.5,1.3-1.9
		c0.6-0.2,1.2-1,2.2-2.6c2.9-4.8,3-5.2,1-7.1c-0.7-0.7-1.7-1.9-2.2-2.6C164.7,326.9,163.5,326.6,163.2,327.6 M151.3,328.6
		c0,0.3-0.4,1.3-0.9,2.3c-0.7,1.5-0.9,1.9-0.7,2.5c0.4,1,0.3,1.1-0.3,1c-1.2-0.3-3.5,3.5-3.5,5.9c0,1-0.2,1.5-0.8,2.2
		c-1,1.3-1.3,3.5-0.6,4.2c0.5,0.5,0.5,0.5,1.2-0.8c0.8-1.6,0.9-1.9,0.2-1.9c-0.7,0-0.9-0.3-0.5-0.9c0.2-0.4,0.5-0.5,1.2-0.4
		c0.9,0.1,3.6-3.3,4-5.3c0.1-0.3,0.4-0.9,0.7-1.3c0.6-0.9,1.2-5.4,0.9-7C152.1,328.1,151.3,327.8,151.3,328.6 M157.8,329
		c-1.1,1.5-1.5,7.7-0.5,8.1c0.6,0.2,0.4,0.8-0.5,1.5c-1.8,1.4-3.4,5.8-2.6,7.1c0.3,0.6-0.1,1.4-0.7,1.4c-1.6,0-1.6,4,0,5.1
		c0.3,0.2,1.3-3.5,1-3.8c-0.1-0.1-0.4,0-0.6,0.2c-0.4,0.3-0.5,0.3-0.5-0.2c0-0.6,0.4-1,1.2-1.1c0.3-0.1,0.8-0.8,1.4-2.2
		c0.5-1.2,1.6-3.3,2.4-4.7l1.5-2.6l-0.3-3C158.9,328.6,158.7,327.8,157.8,329 M192.4,333.1c-2.2,1.8-2.3,3.5-1,9.4
		c0.4,1.5,0.9,4.7,1.2,7.1c0.6,4.9,2.9,13.6,4.3,16.4l0.9,1.7l0.3-0.8c0.2-0.4,0.5-2.2,0.6-4c0.2-1.8,0.4-4.3,0.6-5.6
		c0.1-1.3,0.3-3.6,0.3-5.1c0-1.5,0.1-5.6,0.3-9.3c0.3-6.3,0.2-7.7-0.4-7.1c-0.2,0.2-0.7,4.9-1,9c-1,18.5-1.8,19.9-2.4,4.8
		c-0.3-7-1-16-1.3-16.7C194.4,332.2,193.4,332.3,192.4,333.1 M351.8,336.4c0,0.1-0.1,1.5-0.1,3.1c0,2.5-0.2,3.2-0.7,4.7
		c-1.8,4.5-1.8,4.5-1.3,4.3c2.6-1.4,5.2-8.9,3.8-10.9C352.9,336.7,351.9,336,351.8,336.4 M354,345.4c0,0.1,0.2,0.8,0.5,1.6
		c0.4,1.1,0.5,1.8,0.4,3.1c-0.2,1.7,0.1,2.4,0.7,1.6c0.7-0.9,0.7-3.7-0.1-5.2C354.8,345.4,354,344.8,354,345.4 M313.7,353.3
		c-1.7,1.4-3.7,3-4.5,3.7c-2.7,2.4-12.8,6-12.1,4.3c0.1-0.3,0-0.4-0.4-0.4c-0.5,0-0.5-0.1-0.1-1.5c0.4-1.7,0.3-2.5-0.4-2.4
		c-0.5,0-2,4.7-2,6.4c0,1.9,2.6,2.7,5.7,1.7c4.3-1.4,16.3-8.4,15.6-9.1c-0.3-0.3-1.3,0.2-3.4,1.6c-3.4,2.3-3.5,2.2-0.5-0.7
		c2.3-2.3,5.6-6.1,5.3-6.1C316.8,350.8,315.4,352,313.7,353.3 M189.3,355.7c-2.5,5-3.4,6.6-5.5,9.6c-4,5.7-4.1,6.5-0.5,10.5
		c0.9,1,1.6,2,1.6,2.2c0,0.2,0.2,0.3,0.3,0.2c0.6-0.2,0.5-1.3-0.1-2.3c-0.4-0.5-0.8-1.3-1.1-1.6l-0.4-0.7l4.5,0.2
		c4,0.2,5.5,0.1,11-0.5c1.3-0.1,1.8,0,3.6,0.6c1.2,0.4,2.7,0.9,3.4,1c0.7,0.1,1.6,0.3,1.9,0.4c0.3,0.1,0.6,0.2,0.6,0.1
		c0-0.2-1.6-0.9-5.3-2.2c-2.1-0.8-4.5-1.8-5.3-2.3c-0.8-0.5-1.7-1-2-1.1c-1.1-0.3-4.3-7.8-5.5-13l-0.6-2.3L189.3,355.7 M322.4,363.3
		c-1.8,0.4-6,1.9-8.8,3.1c-6,2.5-11.2,3.4-11.4,1.9c-0.1-1-0.8-1.1-1.2-0.2c-0.7,1.4-0.1,3,1.3,3.6c2.4,1,10.4-1.4,13-3.9
		c0.5-0.5,2.5-1.6,4.5-2.5C324.1,363.3,324.9,362.7,322.4,363.3 M306,373.9c-0.6,1.5,0.1,2.4,2.7,3.5c2.3,1.1,3.9,1.4,5,1.2
		c1.3-0.2,1.1-0.5-1.2-1.2c-2.4-0.8-4.3-2.4-4.3-3.6C308.1,372.9,306.4,372.9,306,373.9 M203.5,376.1c0.1,0.1,1,0.5,2,0.8
		c3.9,1.4,6.4,3,9.2,6l1.6,1.7l3.8,0.3c4.6,0.3,9.9-0.5,10.1-1.6c0.1-0.6-0.4-0.7-2.6-0.5c-5.9,0.7-9.8,0.1-12.7-2
		c-2-1.4-6.7-3.8-8.7-4.4C204.3,375.9,203,375.7,203.5,376.1"/>
</g>
</svg>
