<?xml version="1.0" encoding="utf-8"?>
<!-- Generator: Adobe Illustrator 23.0.1, SVG Export Plug-In . SVG Version: 6.00 Build 0)  -->
<svg version="1.1" id="Layer_1" xmlns="http://www.w3.org/2000/svg" xmlns:xlink="http://www.w3.org/1999/xlink" x="0px" y="0px"
	 viewBox="0 0 500 500" style="enable-background:new 0 0 500 500;" xml:space="preserve">
<style type="text/css">
	.st0{fill:#FFFFFF;}
</style>
<g>
	<g>
		<g>
			<g>
				<g>
					<path class="st0" d="M170,132.6l0.2-0.2C170.1,132.5,170,132.6,170,132.6z"/>
					<path class="st0" d="M140.6,162.7l-0.1-0.1C140.5,162.6,140.6,162.7,140.6,162.7z"/>
					<path class="st0" d="M145.9,176.4l-0.1,0.2C145.9,176.5,145.9,176.4,145.9,176.4z"/>
					<g>
						<path class="st0" d="M155.4,164c2.3-2.8,4.6-5.5,7-8.3c1.1-1.3,2.2-2.7,3.4-4l1.7-2c0.6-0.7,1.2-1.3,1.8-1.9
							c2.4-2.7,5-5.2,7.7-7.6c2.8-2.4,5.8-4.6,9-6.7c3.4-2.2,7-4.5,10.4-7.1c1.7-1.3,3.3-2.7,4.9-4.2c1.5-1.5,3.1-3,4.4-4.7
							c2.8-3.3,5.2-6.7,7.5-10.3c2.3-3.5,4.3-7.2,6.2-11.1c1.8-3.7,3-7.7,3.9-11.6c1-4,1.7-7.9,2.6-11.9c0.5-2.1,1-4.2,1.3-6.4
							c0.2-1.1-0.1-6.5-0.4-7.5c-0.1-0.5-1.1,2.6-1.4,3.4c-0.9,2.7-2.3,6.9-3,9c-0.3,1.1-0.6,2-0.9,2.8c-0.3,0.8-0.5,1.6-0.8,2.4
							c-0.5,1.6-1,3.1-1.7,5.3c-2.8,8.8-6.9,17-12.9,23.7c-0.6,0.7-1.2,1.4-1.8,2c-0.6,0.7-1.2,1.3-1.8,2c-1.2,1.4-2.5,2.7-3.7,4
							c-2.6,2.6-5.3,5-8.4,7c-3.3,2.1-6.9,4-10.6,5.9c-3.7,2-7.4,4.1-11,6.7c-1.9,1.3-3.7,2.8-5.6,4.2c-1.8,1.5-3.7,2.9-5.4,4.6
							l-2.6,2.4l-2.4,2.5c-1.7,1.7-3.1,3.3-4.6,5.1c-5.8,6.9-11.2,14.4-15.5,22.7c-2.5,4.8-4.7,10-6.2,15.5
							c-0.9,3.5-1.5,7.1-1.6,10.7l-0.1,2.7c0,0.9,0.1,1.8,0.2,2.7l0.2,2.7c0.1,0.9,0.3,1.8,0.4,2.7c1.3,7.2,4.4,14,8.3,19.9
							c1.8,2.7,3.7,5.3,5.7,7.6c2,2.4,4.1,4.7,6.4,6.8c2.2,2.2,4.6,4.2,7.1,6c2.5,1.9,5.1,3.5,7.8,5c2.9,1.6,6.3,3.4,9.8,4.6
							c3.5,1.3,7,2.1,10,1.9c1.5-0.1,2.2-1,2.6-1.9c-0.3,0.8-1.8-0.2-3.2-1.5c-1.4-1.3-2.7-2.8-2.9-3c-2.3-2.1-5.1-3.9-7.5-5.9
							c-4.7-4-8.2-8.2-12.7-12.2c-4.7-4.2-9-8.8-12.4-13.7c-1.7-2.5-3.1-5.1-4.3-7.7c-1.2-2.7-2-5.5-2.5-8.3
							c-0.8-4.8-0.8-9.8,0.2-14.8c1-5,2.9-9.9,5.4-14.5C146.9,174.6,151,169.2,155.4,164z"/>
					</g>
				</g>
			</g>
		</g>
		<g>
			<g>
				<g>
					<path class="st0" d="M215.5,131.3l0.1-0.2C215.5,131.2,215.5,131.2,215.5,131.3z"/>
					<path class="st0" d="M193,151l0-0.1C193,150.9,193,150.9,193,151z"/>
					<path class="st0" d="M195,164.5l-0.1,0.1C195,164.6,195,164.5,195,164.5z"/>
					<g>
						<path class="st0" d="M205.6,157.2c4.8-3.6,9.3-7.7,13-12.5c2-2.4,3.7-5.1,5.4-7.7c1.7-2.6,3.3-5.4,4.9-8.1
							c1.7-2.9,3.3-5.9,4.5-9c0.6-1.6,1.2-3.2,1.6-4.8c0.2-0.8,0.4-1.6,0.6-2.4l0.4-2.5c0.2-0.8,0.2-1.7,0.3-2.5
							c0.1-0.8,0.2-1.6,0.3-2.5c0.1-1.6,0.3-3.3,0.4-4.9c0.2-3.3,0.2-6.5,0.1-9.8c-0.4-6.4-2.5-12.4-3.8-18.5
							c-0.4-1.6-0.7-3.3-1.1-4.9c-0.1-0.4-0.6-1.5-1.3-2.6c-0.6-1.1-1.3-2.1-1.6-2.4c-0.3-0.3-0.2,2.3-0.1,2.9
							c0.1,2.3,0.3,5.7,0.5,7.4c0.4,3.4,0.5,5,1.1,8.5c0.5,3.5,0.8,7.1,0.8,10.5c0,3.5-0.4,6.9-1.3,10.3c-0.4,1.3-0.6,2.7-1,4.1
							c-0.2,0.7-0.3,1.4-0.4,2l-0.5,2c-0.3,1.4-0.8,2.7-1.2,4c-0.5,1.3-1,2.6-1.6,3.8c-2.7,5.3-6.7,9.7-10.5,14.3
							c-4.1,4.9-9.4,8.8-14.4,12.9c-5,4.1-10.4,8.2-15.9,12.6c-3.2,2.6-6.4,5.4-9.4,8.6c-7.6,8.3-12.2,19.3-12.3,30.9
							c-0.1,5.2,0.5,10.5,2.2,15.5c1.8,5,4.6,9.7,8.5,13.4c2,1.9,4.6,4,7.3,5.5c2.8,1.5,5.7,2.4,8.2,2.1c1.2-0.1,2-1,2.3-1.9
							c-0.3,0.7-1.4-0.2-2.4-1.4c-1-1.2-1.7-2.7-1.8-2.8c-1.5-2-3.2-3.7-4.5-5.7c-2.5-3.9-3.6-7.8-5.1-11.5c-1.6-4-2.4-8.2-2.5-12.4
							c0-2.1,0.2-4.3,0.6-6.4c0.5-2.1,1.1-4.3,1.9-6.3c1.4-3.5,3.4-6.8,5.8-9.8c0.6-0.7,1.2-1.4,1.9-2.2c0.7-0.7,1.4-1.4,2.1-2.1
							c1.5-1.4,3.1-2.8,4.7-4.1C196.4,163.6,201,160.6,205.6,157.2z"/>
					</g>
				</g>
			</g>
		</g>
		<g>
			<g>
				<g>
					<path class="st0" d="M282.4,132.2l-0.2-0.2C282.3,132.2,282.4,132.2,282.4,132.2z"/>
					<path class="st0" d="M307.1,154.9l-0.1,0C307,155,307.1,155,307.1,154.9z"/>
					<path class="st0" d="M320.7,151.9l0.2,0.1C320.8,152,320.8,152,320.7,151.9z"/>
					<g>
						<path class="st0" d="M311,141.3c-4.6-4.5-9.6-8.4-14.7-12c-5.2-3.6-10.6-7-15.2-11.3c-4.8-4.6-9.3-9.5-13.5-14.5
							c-4.2-5-7-10.8-8.3-17c-0.7-3-1.1-5.9-1.4-9.2c-0.3-3.2-0.3-6.4,0.2-9.5c0.3-1.6,0.8-3.2,1.3-4.7c0.1-0.4,0.3-1.5,0.5-2.7
							c0.2-1.2,0.5-2.2,0.5-2.7c0-0.2-0.4,0.1-0.9,0.5c-0.5,0.4-1,1-1.2,1.3c-1.5,1.8-3.1,5.2-3.7,7c-1,3.7-1.4,5.5-1.5,9.4
							c-0.1,4-0.1,8.1,0.7,12.2c0.7,4.1,1.9,8,3.4,12c1.2,3.2,3,6.1,5.1,8.9c2,2.8,4.3,5.3,6.3,7.9c4.5,5.6,9.1,11.1,14.4,15.8
							c5.6,5,10.8,10.3,16.2,15.1c5.3,4.8,10.6,9.5,15.1,14.9c2.6,3.1,5,6.4,7,9.8c2.6,4.3,4.9,8.7,6.5,13.3
							c1.6,4.5,2.6,9.2,2.4,13.6c-0.2,4-1.7,7.4-3.9,10.6c-2.2,3.2-5.1,5.9-8.3,8.7c-1.7,1.4-3.9,3-6.1,4.6
							c-2.2,1.6-4.3,3.3-5.7,5.3c-0.7,1-0.6,2.1-0.2,3c-0.3-0.7,1.2-0.9,2.8-0.8c1.6,0,3.4,0.1,3.6,0.1c2.7-0.3,5.4-1.3,8.1-2.2
							c2.6-0.9,5.1-1.9,7.6-3.3c2.4-1.4,4.8-3.1,6.8-5.6c2.1-2.5,3.9-5.4,5.3-8.6c1.3-3.2,2.2-6.7,2.4-10.1c0.5-6.9-0.9-13.4-3-19.3
							c-3.6-10.1-9.6-18.9-16.1-26.7C319.6,150.2,315.4,145.6,311,141.3z"/>
					</g>
				</g>
			</g>
		</g>
		<g>
			<g>
				<g>
					<path class="st0" d="M324.4,138l-0.2-0.2C324.3,137.9,324.3,138,324.4,138z"/>
					<path class="st0" d="M351.1,170.3l-0.2,0C351,170.4,351.1,170.4,351.1,170.3z"/>
					<path class="st0" d="M366,173.5l0.1,0.2C366.1,173.6,366,173.5,366,173.5z"/>
					<g>
						<path class="st0" d="M357.3,156.3c-4.7-7.3-10.5-13.8-17-19.3c-6.7-5.6-13.9-10.1-21-15.1c-3.7-2.6-7.6-5.1-11.5-7.4
							c-3.8-2.2-7.6-4.4-11.4-6.6c-7.6-4.4-14-9.9-18.4-17c-2.2-3.4-4.3-7-6.2-10.8c-0.9-1.9-1.8-3.8-2.7-5.8c-0.9-2-1.7-4-2.4-6
							c-0.8-2.2-1.4-4.3-2.1-6.5c-0.2-0.5-0.9-2-1.6-3.5c-0.7-1.5-1.5-3-1.8-3.5c-0.3-0.4-0.1,2.9,0,3.9c0.3,3.1,1.2,7.8,1.8,10.1
							c1.4,4.8,2,6.9,3.7,11.6c1.9,4.9,4.1,9.7,6.8,14.2c2.7,4.6,6.2,8.8,9.9,12.6c3,3.2,6.6,5.8,10.3,8.1c3.6,2.4,7.4,4.5,10.8,6.8
							c7.3,5,13.9,10.8,20.6,16.5c7.2,6.1,13,13.2,18.5,20.6c5.3,7.3,10.1,15.1,13.2,23.6c1.9,4.9,3.3,10,4.2,15.2
							c0.6,3.3,1,6.5,1.3,9.8c0.2,1.6,0.2,3.3,0.3,5c0,0.8,0.1,1.7,0.1,2.3c0,0.3,0,0.7-0.1,1c0,0.4,0,0.7-0.1,1.1
							c-0.3,3-1,6.2-2,9.2c-0.9,3-2.2,6-3.6,8.9c-2.7,5.1-6.3,9.6-10.4,13.5c-1.1,0.9-2.1,1.9-3.2,2.8c-1.1,0.9-2.2,1.8-3.4,2.6
							l-1.7,1.3l-1.8,1.2l-0.9,0.6l-0.9,0.6c-0.6,0.4-1.2,0.8-1.8,1.1c-2.5,1.6-5.7,3.1-8.8,4.3c-1.5,0.6-3.1,1.2-4.5,1.8
							c-1.4,0.6-2.8,1.2-4,1.8c-1.2,0.6-1.6,1.6-1.7,2.6c0.1-0.8,1.7-0.2,3.6,0.3c1,0.3,2,0.5,2.8,0.7c0.8,0.2,1.4,0.3,1.6,0.3
							c3.5,0.4,7.2-0.4,10.8-1.3c6.9-1.7,13.3-4.1,19.3-8.8c6.3-5.2,11.6-11.6,15.4-18.8c1.9-3.6,3.5-7.4,4.8-11.3
							c1.3-3.9,2.2-7.9,2.7-12.2c0.1-0.4,0.1-0.9,0.1-1.4c0-0.5,0.1-0.9,0.1-1.5c0-0.5,0-1.1,0-1.5l-0.1-1.3c-0.1-1.7-0.1-3.4-0.3-5
							l-0.5-5l-0.8-5c-1.2-6.6-3.1-13.1-5.4-19.4C365.3,170.9,361.8,163.3,357.3,156.3z"/>
					</g>
				</g>
			</g>
		</g>
		<g>
			<g>
				<g>
					<path class="st0" d="M194,290.1l0,0.2C194,290.2,194,290.2,194,290.1z"/>
					<path class="st0" d="M193.9,261.4l0.1,0.1C194,261.4,193.9,261.4,193.9,261.4z"/>
					<path class="st0" d="M183.3,252.8l0-0.2C183.3,252.7,183.3,252.8,183.3,252.8z"/>
					<g>
						<path class="st0" d="M180.8,265.9c-0.6,6-0.1,12.1,1.1,17.7c1.2,5.8,3,11.1,3.3,16.7c0.3,5.8-0.3,11.5-1.1,17.3
							c-0.8,5.8-2.8,11.3-5.5,16.6c-1.3,2.5-2.4,5.1-3.7,7.7c-1.3,2.5-2.8,5-4.7,7.2c-1,1.2-2.1,2.3-3.2,3.4
							c-0.5,0.6-2.4,3.9-2.6,4.7c-0.1,0.4,2-0.8,2.5-1.2c1.9-1.1,4.6-3.1,5.8-4.3c2.4-2.4,3.6-3.5,5.6-6.4
							c4.1-5.9,7.4-12.2,10.7-18.8c1.4-2.7,2.1-5.6,2.8-8.6c0.3-1.5,0.5-3,0.8-4.5c0.2-1.5,0.4-3,0.7-4.5c1-6.5,1.4-13.2,0.7-19.5
							c-0.7-6.7-0.6-13-0.5-19.1c0.1-6,0.8-12.1,2.4-18l0.7-2.6l0.9-2.7c0.6-1.8,1.2-3.6,1.8-5.3c1.6-4.3,3.2-8.5,5.3-12
							c2.1-3.5,4.6-6.4,7.8-8.2c2.9-1.7,6.5-2.3,10.7-3c2.1-0.4,4.4-0.7,6.9-1.5c2.5-0.8,5.3-1.9,7.9-4.1c2.7-2.2,5.2-5.9,6-9.6
							c0.8-3.7,0.2-7.1-1.2-9.2c-0.7-1.1-1.8-1.2-2.8-1.1c0.8-0.1,0.5,1.3-0.1,2.7c-0.6,1.4-1.7,2.6-1.8,2.8c-1.2,2-2.4,3.9-4.1,5
							c-1.6,1.1-3.2,1.4-5,1.6c-1.7,0.2-3.6,0.2-5.8,0.6c-2.3,0.4-4.9,0.8-7.7,1.4c-2.7,0.7-5.7,1.6-8.5,3.2
							c-2.8,1.5-5.4,3.5-7.6,5.7c-2.2,2.3-4,4.7-5.5,7.3c-2.6,4.3-4.3,8.8-5.8,13.1c-0.7,2.2-1.4,4.3-2,6.4l-1,3.1l-0.9,3.3
							C182.6,254.5,181.3,260.2,180.8,265.9z"/>
					</g>
				</g>
			</g>
		</g>
		<g>
			<g>
				<g>
					<path class="st0" d="M241.3,290.7l0-0.2C241.3,290.6,241.2,290.6,241.3,290.7z"/>
					<path class="st0" d="M235.7,319.5l-0.1-0.1C235.6,319.5,235.7,319.5,235.7,319.5z"/>
					<path class="st0" d="M245.4,329.2l0,0.2C245.4,329.3,245.4,329.2,245.4,329.2z"/>
					<g>
						<path class="st0" d="M249.4,316.8c0.4-1.4,0.7-2.8,1-4.2c0.3-1.4,0.6-2.9,0.9-4.4l0.1-0.3l0-0.2l0.1-0.6
							c0.1-0.4,0.1-0.8,0.2-1.2c0.1-0.8,0.2-1.5,0.2-2.3c0.1-1.5,0.2-3,0.2-4.5c0-6.2-0.9-12.3-1.8-18.6c-0.5-3.3-1.2-6.6-2.4-9.9
							c-0.3-0.8-0.7-1.6-1-2.4c-0.3-0.8-0.7-1.6-1.2-2.4c-0.9-1.6-2.1-3.1-3.7-4.5c-0.8-0.7-1.7-1.3-2.6-1.8
							c-0.9-0.5-1.8-0.8-2.7-1.1c-1.8-0.6-3.7-0.9-5.4-1c-1.7-0.1-3.4-0.1-4.9-0.1c-0.8,0-1.5,0-2.2,0c-0.3,0-0.8,0-1,0
							c-0.2,0-0.4,0-0.6-0.1c-0.7-0.1-1.6-0.1-2.2-0.7c-0.5-0.6-0.7-1.4-0.9-2.2c0-0.1-0.1-0.5-0.1-0.9l-0.1-1.1
							c-0.1-0.7-0.1-1.5-0.2-2.2c-0.1-1.5-0.2-3-0.2-4.6c0-1.6,0-3.3,0-4.9c0-0.4-0.3-1.6-0.7-2.8c-0.4-1.2-0.8-2.3-1-2.7
							c-0.2-0.3-0.7,2.1-0.8,2.8c-0.4,2.2-1,5.5-1.2,7.2c-0.3,3.4-0.5,5-0.5,8.5c0,0.2,0,0.5,0,0.7l0,0.8c0,0.6,0.1,1.1,0.2,1.7
							c0.2,1.1,0.5,2.2,1.1,3.2c0.6,1,1.6,1.6,2.6,2c1.1,0.4,2.2,0.6,3.4,0.8c1.3,0.2,2.1,0.2,3.1,0.3c0.9,0.1,1.8,0.1,2.7,0.2
							c1.7,0.1,3.3,0.4,4.7,0.9c1.1,0.4,2.1,0.8,3,1.4c0.8,0.5,1.4,1,2.1,1.8c0.6,0.8,1.3,1.8,1.8,2.9c0.3,0.6,0.5,1.2,0.7,1.8
							l0.3,0.9c0.1,0.3,0.2,0.6,0.2,0.9c0.7,2.7,0.8,5.6,0.9,8.4c0.1,2.9-0.1,5.8-0.2,8.7c-0.1,3.1-0.6,6.3-1.2,9.4
							c-0.2,0.8-0.3,1.5-0.5,2.3l-0.3,1.1l-0.3,1.2c-0.4,1.6-0.8,3.1-1.2,4.7c-1.5,6.4-2.8,12.9-4.9,18.7c-1.2,3.4-2.7,6.5-4.6,9.2
							c-1.2,1.7-2.5,3.2-4,4.7c-1.5,1.4-3.2,2.8-4.9,4.1c-1.8,1.2-3.6,2.4-5.5,3.3c-2,1-4,1.8-6.1,2.5c-3.8,1.3-7.8,1.8-11.8,2.1
							c-4,0.3-8,0.3-12.2,0.5c-4.4,0.2-10.3-0.3-14.4,1.6c-1,0.5-1.5,1.5-1.7,2.4c0.2-0.8,1.3-0.1,2.5,0.7c1.2,0.8,2.5,1.9,2.7,2
							c2.2,1.2,4.7,1.8,7.1,2.6c4.7,1.5,9.1,3.1,14.5,2.9c11.1-0.3,22.4-3.7,32.1-10.6c2-1.5,4-3,5.8-4.8c0.9-0.9,1.8-1.9,2.7-2.8
							c0.4-0.5,0.8-1,1.2-1.5c0.4-0.5,0.8-1,1.2-1.6c1.5-2.1,2.8-4.4,3.9-6.6c1.1-2.2,2-4.5,2.9-6.7
							C246.3,327.4,247.9,322.1,249.4,316.8z"/>
					</g>
				</g>
			</g>
		</g>
		<g>
			<g>
				<g>
					<path class="st0" d="M264.8,334.5l-0.3-0.5C264.6,334.3,264.7,334.4,264.8,334.5z"/>
					<path class="st0" d="M329.5,370.4l-0.2,0.1C329.5,370.5,329.6,370.4,329.5,370.4z"/>
					<path class="st0" d="M336.2,356.3L336.2,356.3C336.2,356.3,336.2,356.3,336.2,356.3z"/>
					<g>
						<path class="st0" d="M316.3,356.9c-5.9-1.2-11.7-3.1-17.1-5.5c-5.4-2.5-10.3-5.7-14.7-9.6l-0.9-0.7l-0.8-0.8l-1.7-1.6
							c-1-1.1-2.1-2.2-3.1-3.4c-2-2.4-3.8-4.9-5.5-7.6c-1.6-2.7-3.1-5.5-4.3-8.5c-1.2-3-2.2-6-2.8-9.1c-1.4-6.6-1.2-13.4-0.4-20.3
							c0.4-3.5,0.9-7,1.4-10.5l0.8-5.3c0.3-1.7,0.6-3.3,1-4.8c0.2-0.8,0.5-1.6,0.9-2.3c0.2-0.4,0.4-0.7,0.6-1
							c0.1-0.2,0.2-0.3,0.3-0.5c0.1-0.2,0.2-0.3,0.3-0.4c0.8-0.9,1.7-1.4,3.4-1.7c1.6-0.3,3.6-0.2,6-0.5c0.6-0.1,1.2-0.2,1.9-0.3
							c0.7-0.2,1.5-0.4,2.1-0.7l1-0.5c0.3-0.2,0.6-0.4,0.9-0.6c0.6-0.4,1.1-1,1.7-1.5c1.5-1.7,2-4,2.1-6.2c0-0.9,0-1.8,0-2.6l0-1.1
							l0-1.1l0-1.6l-0.1-1.7c-0.1-1.1-0.2-2.2-0.3-3.4l-0.4-3.3l-0.2-1.7l-0.1-0.8l-0.1-0.4c0-0.1,0-0.3-0.1-0.4l-0.2-0.3
							c-2.4,0.9-5,1.8-7.5,2.6l-1.9,0.6c-0.3,0.1-0.6,0.2-0.9,0.3l-0.8,0.2c-0.8,0.2-1.6,0.4-2.4,0.6c-3.2,0.7-6.6,1.2-9.9,1.6
							c-3.4,0.4-6.8,0.6-10.2,0.7c-3.4,0.1-6.8,0.1-10.2-0.1c-3.6-0.3-7.1-0.8-10.6-1.7c-0.8-0.2-3.4-0.6-5.9-1.2
							c-2.5-0.6-4.9-1.5-5.7-1.8c-0.4-0.1,0.4,0.6,1.6,1.4c1.1,0.8,2.6,1.7,3.3,2c2.1,1.1,5.1,2.3,8,3.1c2.9,0.8,5.8,1.4,7.7,1.7
							c4,0.5,6.9,0.7,9.8,0.8c2.9,0.1,5.9,0.1,10,0c4-0.2,8-0.5,11.9-1.1c1-0.1,2-0.3,3-0.5l2.3-0.5c1.3-0.3,2.5-0.6,3.6-1l0.2-0.1
							l0.1,0c0,0,0,0.1,0,0.1l0,0.4l0.1,0.8l0.1,1.6c0,1,0,2,0,3c0,0.7,0,1.6,0,2.4c0,0.8,0,1.5-0.1,2.1c-0.1,0.6-0.1,0.9-0.3,1.4
							c-0.2,0.4-0.4,0.8-0.7,1.1c-0.5,0.5-1.1,0.7-1.8,0.9c-0.5,0.1-1.6,0.2-2.7,0.2c-1.5,0-3.3-0.1-5.4,0.1c-1,0.1-2.2,0.4-3.3,0.8
							c-0.6,0.2-1.1,0.5-1.7,0.8c-0.6,0.3-1.1,0.7-1.6,1.1c-0.5,0.4-0.9,0.9-1.4,1.3c-0.4,0.4-0.7,0.8-1,1.3
							c-0.6,0.9-1.2,1.8-1.7,2.8c-1,1.9-1.5,3.9-1.9,5.8c-0.2,0.9-0.4,1.8-0.5,2.7l-0.4,2.6c-0.3,1.7-0.6,3.4-0.9,5.1
							c-0.6,3.4-1.1,6.9-1.6,10.4c-0.5,3.8-0.9,7.6-0.9,11.6c0,4,0.4,8,1.2,11.9c0.8,3.9,1.9,7.7,3.3,11.4c1.4,3.7,3.2,7.3,5.2,10.7
							c2.2,3.6,4.7,7.1,7.4,10.3c2.7,3.3,5.9,6.2,9.2,9l2.6,2c0.8,0.7,1.8,1.2,2.7,1.8c1.8,1.2,3.7,2.3,5.6,3.3
							c3.8,2,7.8,3.6,11.8,4.8c3.2,1,6.4,1.8,9.7,2.3c3.3,0.6,6.7,0.9,10.1,1c1.7,0,3.5,0,5.3-0.2c1.8-0.1,3.6-0.4,5.5-0.9
							c1.9-0.5,3.8-1.1,5.8-2.2c0.5-0.3,1-0.5,1.5-0.9l0.9-0.6c0.3-0.2,0.5-0.5,0.8-0.7c0.5-0.5,1-1,1.4-1.5
							c0.5-0.5,0.8-1.1,1.2-1.7c0.7-1.2,1.2-2.5,1.4-3.9c0.2-1.4,0.1-2.8-0.2-4.2c-0.2-0.7-0.4-1.4-0.7-2c-0.1-0.3-0.3-0.7-0.4-1
							c-0.1-0.3-0.2-0.5-0.4-0.7c-0.5-0.9-0.9-1.7-1.4-2.4l-3.7-5.7c-1.1-1.8-2.2-3.6-3.1-5.5c-1.9-3.7-3.4-7.5-4.5-11.6
							c-1.6-5.3-2.8-10.6-3.8-16c-1-5.4-1.6-10.8-2.1-16.5c-0.5-5.6-1.1-11.5-2-17.4c-0.9-5.9-2.2-11.7-3.9-17.4
							c-1.6-5.2-3.1-10-4.6-15c-1.6-5-3.3-10-5.6-15c-0.6-1.3-1.2-2.5-1.9-3.8l-1-1.9l-1.2-1.9c-0.4-0.6-0.8-1.2-1.3-1.8
							c-0.5-0.6-0.9-1.2-1.4-1.8c-1-1.2-2-2.4-3.2-3.4c-4.5-4.5-11.3-7.4-17.2-8.1c-3.2-0.5-6.4-0.6-9.5-0.8c-3-0.1-5.8-0.3-7.7-0.7
							c-0.9-0.3-1.7-0.5-2.2-0.8c-0.3-0.1-0.6-0.4-0.9-0.6c-0.3-0.2-0.6-0.5-0.8-0.8c-1-1.2-1.8-3.1-2.3-5c-0.5-1.9-1.4-2.7-2.4-2.9
							c0.8,0.1-0.2,2.8-0.4,5.8c-0.1,1.5-0.1,3.1,0.2,4.4c0.3,1.3,0.7,2.2,0.8,2.4c0.4,0.6,0.7,1.3,1.2,1.8l0.8,0.8
							c0.3,0.3,0.6,0.5,0.9,0.7c1.2,1,2.7,1.6,4.1,2.2c2.9,1,5.9,1.5,8.7,2c5.4,1,10.1,2.1,13.6,4.5c0.9,0.5,1.7,1.3,2.6,1.9
							c0.8,0.8,1.6,1.4,2.3,2.3c0.7,0.8,1.4,1.7,2.1,2.6c0.6,1,1.3,1.9,2,3c0.7,1.1,1.3,2.3,1.9,3.5c0.6,1.2,1.2,2.4,1.7,3.7
							c1.1,2.5,2.1,5.2,3.1,8c1,2.7,1.9,5.5,2.8,8.3l1.4,4.3l1.3,4.1c1.6,5.5,2.9,11,3.9,16.7c0.9,5.6,1.4,11.4,2,17.5
							c0.5,5.1,1.1,10.4,1.9,15.7c0.9,5.3,2.1,10.5,3.6,15.7l1.1,3.8c0.4,1.3,0.8,2.6,1.3,3.9c1,2.6,2,5.2,3.3,7.7
							c1.2,2.5,2.6,4.9,4,7.3c1.4,2.3,2.9,4.5,4.1,6.4c0.3,0.5,0.6,1.1,0.8,1.5c0.2,0.3,0,0.1,0.1,0.2l0,0.1c0,0.1,0,0.2-0.1,0.2
							c-0.1,0-0.1,0.1-0.2,0.1c-0.4,0.2-1,0.5-1.7,0.8c-1.4,0.5-3.3,0.8-5.3,0.9C324.9,358.2,320.6,357.8,316.3,356.9z"/>
					</g>
				</g>
			</g>
		</g>
	</g>
	<g>
		<g>
			<g>
				<path class="st0" d="M130.6,133.3l1-1C131.1,132.7,130.8,133,130.6,133.3z"/>
				<path class="st0" d="M44.2,280.4l-0.3-0.2C44.1,280.5,44.2,280.5,44.2,280.4z"/>
				<path class="st0" d="M79.3,305.6l0.9,0.8C79.7,306,79.5,305.8,79.3,305.6z"/>
				<g>
					<path class="st0" d="M24.1,250c5.7-5.7,11.4-11.4,17.1-17.1c6.6-6.6,13.1-13.2,19.6-19.8c13.1-13.2,26-26.4,38.9-39.5
						c26.5-27.1,52.7-54.2,79.8-81.4c23.5-23.6,46.9-47.1,70.4-70.6c4.2,4.1,8.4,8.3,12.6,12.4c29.1,28.7,57.1,56.9,86,85.9
						c27.9,28,56,55.3,83.7,83.3c7.4,7.5,14.7,14.9,22.1,22.4c3.6,3.7,22.3,21.8,26,25.2c1.7,1.6-8.8-9.6-11.7-12.6
						c-9.5-10.1-24.2-25.6-31.9-33.5c-15.5-16-22.7-23.4-38.8-39.6c-33.2-33.5-65.5-66.1-98-99.4c-7.8-8.1-15.9-16.2-24-24.4
						c-8.7-8.7-17.4-17.5-26.2-26.2c-6.1,6.1-12.2,12.2-18.2,18.2c-5.5,5.5-11,10.9-16.5,16.3c-29.4,29-58.9,57.8-88.2,87.2
						c-31.2,31.3-62.7,62.1-93.9,93.4c-6.6,6.6-13.2,13.2-19.7,19.8c25.9,25.8,51.8,51.7,77.8,77.5c18,18,36,36,53.9,54
						c35,35,69.9,69.9,104.8,104.9l36.2-36.3c41.1-41,81.5-80.4,122.6-121.8c21.7-21.9,51.3-51.5,68.5-70.9c4.2-4.7,5.1-6.5,4.7-7
						c0.6,0.7-24.8,23.3-26.6,25c-10.9,10.2-22.8,21.6-34.1,32.5c-22,21-42,39.6-65,62.3c-18.3,18.1-36.5,36.1-54.6,54.2
						c-17.2,17.2-34.4,34.4-51.7,51.7c-10.6-10.6-21.2-21.2-31.9-31.9c-40.8-40.8-81.6-81.5-122.4-122.3
						C72.4,298.5,48.2,274.2,24.1,250L24.1,250z"/>
				</g>
			</g>
		</g>
	</g>
</g>
</svg>
