<svg xmlns="http://www.w3.org/2000/svg" viewBox="0 0 410 410"><path d="M306.5 13c-2.7 1.1-4.4 2-6.9 3.4-1 .6-3 1.6-4.3 2.3a53.4 53.4 0 0 0-8.6 5.5c-1.1.9-2.1 1.6-2.3 1.7-.5.3 1.1-2.8 2.6-5.1.8-1.2.8-1.3.6-1.6-.5-.5-3 3.4-4.6 7.5-.2.5-2.5 2.4-3 2.5 0 0 .1-.8.4-1.8.6-2.3.6-3.1.1-3-.3 0-.4.3-.6 1.5-.7 3.3-1.1 4.2-2.2 5.1-2.1 1.6-4.6 4.9-3.9 4.9l2-.2c4.3-.4 6.8.8 9.7 4.6.7 1 .9 1.1 1 .8.3-.5 1.3-4.2 1.7-6.4 1.4-6.8 4.3-10 12.6-14.2 2-1 4-2.1 4.6-2.4 1.3-.8 1.9-.8 2.7 0 .8.8.8.9-1 5.5-2.4 6.2-2.8 6.8-5.5 8.1-.8.4-2 1-2.7 1.3-3.4 1.6-4.2 3.9-1.8 5.5 2.2 1.5 2.1 2.2-.7 4-2.9 1.9-2.8 1.7-1.6 1.6 2-.2 5.2-1.6 6.6-3 .8-.7.6-1.1-1.5-3.4-1.1-1.2-2-2.2-2-2.3 0-.4 3.8-2.4 7.1-3.7l1.8-.7.1-1.1c.1-1.4.7-2.7 2.1-5.5 3.7-7.1 1.6-10-6.1-8.4-.6.1 2.3-1.3 4.5-2.3 2.1-.9 2.2-1 2.1-1.4-.4-.4-.5-.4-3 .7m-15.3 11.2c0 .2-.2.4-.4.5-1.3.5-3.3 3.1-4 5.1-.8 2.2-1.3 3.1-2.4 3.9-.9.6-1.6.2-1-.5.1-.1-.1-.2-.9-.1-.9.1-1.2 0-1.8-.3-1.4-.7-1-1.5.4-.8 1.3.6 4.4-.3 4.4-1.3 0-.2-.1-.2-.5 0-1.4.6-3.4.5-3.3-.1 0-.3.2-.4 1.4-.5 1.4-.1 2.8-.6 3-1.2.1-.3 0-.3-.5-.1-1.2.4-2.1.2-2-.4 0-.2.3-.3 1-.4 1.3-.2 2.1-.5 2.5-1 1.5-2.2 4.1-4 4.1-2.8M237.9 34c-2.4.4-5 1.5-5 2.2 0 .6.8 1.6 1.7 2 .8.4 1.1.8.6 1-.7.3-2.5-1-2.9-2.1-.3-.6-.3-.6-1 .1-1.3 1.4.7 3 5.8 4.7 1.5.5 1.9.7 1.9.9 0 1.3-7.7-1.9-8.6-3.6-.4-.7-.4-.7-1.1.1l-.6.7.7.6c2.7 2.4 7.8 4.2 12.5 4.5 2.1.1 2.1.1 2.1.5v.4h-1.8c-4.5-.1-10.7-2.2-13.3-4.5l-.9-.8-.5.4c-.6.5-.5.7.9 2 2.9 2.8 5.7 4.2 7.9 4.2.8 0 1.2.4.9.8-.2.2-.4.2-1.2.2-2.9-.3-5.7-2-8.6-5l-1.1-1.2-.7.4c-.4.2-.7.5-.7.6 0 .7 2.8 3 4.5 3.7.3.1.5.3.5.5 0 1.4-4.4-1.4-5.7-3.6-.1-.2-.3-.2-1.6.7-2.2 1.5-2.9 2.2-3.8 3.4-1 1.5-1 1.7-.1 1.3 2-.7 3.8 0 5.4 2.1 1.7 2.2 2.7 2.6 7.4 2.9 10.4.5 12.3 5 5.2 12.3-2.2 2.3-2.9 3.2-4.4 5.4-2.8 4.2-4.5 5.8-8.2 7.9-6.5 3.6-7.8 6.1-5.8 11.5l.5 1.5.1-1.9c.3-4.1.6-6.5 1-6.5.5 0 .5.4.2 2.7-.2 1.3-.3 3.5-.4 4.9l-.1 2.6.7 1.4c.4.8.8 1.8 1 2.2.3.8.3.6.3-4.8 0-5.1 0-5.6.3-5.9.6-.6.7-.1.6 5.5 0 9.1.2 11 1.7 14.7l.4 1-.1-6c-.1-6.3 0-7.3.5-7.3.3 0 .3.2.4 6.7.1 8.8.2 9.1 1.1 11.4l.8 1.8.1-5.2c.1-5.3.2-5.6.7-5.5.1 0 .2 2.5.3 6.9l.1 6.8.6 1.5c.7 1.8.8 1.8.8.1 0-2 .6-7.5 1.1-9.5.1-.3.2-.4.5-.3.5.1.5.1 0 3.4-1.2 8.3-.8 14.9 1 17 1.1 1.2 2.4 1.6 6.5 1.6h2.6l.1-1.2c.1-.6.1-2.3.1-3.7v-2.5c.1 0 1.5 3.3 2.6 6.1 1.6 4.3 3.4 7.4 5.6 9.5l.9.9-.6-1.3c-1.5-3.2-2.2-6.8-1.4-6.6.3 0 .4.2.7 1.5 1 4.6 2.7 7.7 5.1 8.9.8.4 1.5.8 1.6.8s-.2-.4-.5-.9c-1.1-1.7-2.4-5.1-2.2-5.7.2-.5.8-.3.9.5.8 3.3 2.9 6.6 4.3 6.9 1 .2 1 .2.4-.6a7.1 7.1 0 0 1-1.2-3.1c0-.7.8-.6.9.2.5 2.5 2 4 4 4h1.5v-.8c-.1-1.3-.5-2.3-1.3-3.2-.9-1-.8-1 .7-.4 2.6.9 4.6 2.2 6.8 4.3 13.7 13.4 25.9 16.5 41.1 10.4 10.3-4.1 19-8.8 20.7-11 2.3-3.1 1.9-8-1-9.9-.8-.5-.8-.6-.7 1.4.2 5.4-2.8 8-10.7 9.5-8.6 1.6-12.3 1.4-16.8-.8-2.6-1.3-3-1.4-6.2-1.4-7.4 0-11.4-1.9-14.3-6.7-1.9-3.2-2.9-4-5.1-4.4-1.8-.4-6.5-.6-9.4-.5l-2.7.1 1-.4c4.3-1.8 7.2-6.1 7.3-10.8 0-1.5.1-2.3.4-3.2.6-2 .2-1.9-3 .3-5.4 3.7-8.7 3.7-14.4.1-7-4.5-9.3-7.2-10.8-12.5-.6-2-.5-2.1.4-.8.4.6 1.2 1.4 1.7 1.8.6.5 1.1 1 1.4 1.6.5.9 4.1 4.6 7.3 7.5.8.7 1.3.8 1.3.3 0-.1-1.7-1.8-3.7-3.8-3.8-3.7-4.4-4.3-3.6-4.1.2.1.9.2 1.6.2l1.2.1 2.5 2.3c5 4.7 8.9 7.6 10.1 7.4.7-.1.4-.5-.9-1.2-2.3-1.2-4.6-3.1-8.7-6.9l-1.8-1.7 1.3-.3 1.3-.3 1.6 1.5c6.1 5.5 9.6 8.1 10.6 7.7.6-.2.2-.6-1.1-1.2-1.7-.8-3.7-2.4-8.5-6.8-1.9-1.7-1.9-1.6-.2-2.1 1.3-.4 1.3-.4 1.5-.1 2.6 3.7 10.6 9.2 11.7 8.1.3-.3 0-.7-.8-.9-1.9-.5-5.9-3.2-8.5-5.8-2-2-2-2.1-.9-2.5l.8-.3.5.6c1.9 2.2 5.1 4.6 8.1 6 2.3 1 2.3 1.1 2.5.8.3-.3.2-.4-2.6-1.8-2.8-1.4-4-2.2-6.3-4.4l-1.5-1.5 1.3-.4c1.6-.6 1.4-.6 2.5.6 2.1 2.5 6.6 5.4 6.8 4.3 0-.3-.2-.5-1.2-1-1.7-.9-3-1.8-4.4-3.4-1.4-1.5-1.4-1.4 0-1.9l1.2-.4 1.4 1.4c1.5 1.5 3.4 2.9 3.8 2.8.3-.1.3-.8.1-.8-.3 0-2.3-1.6-3.3-2.7l-1-1.1 1.1-.4c1.4-.5 1.5-.5 2.1 0 1.4 1 2.7 1.4 2.7.7 0-.2-.2-.4-.7-.5-.8-.3-1.8-1-1.4-1 .2 0 .9-.2 1.5-.5 1-.4 1.3-.5 1.6-.3.5.3.8.1.8-.4 0-.3.1-.5.6-.9 1.2-1.1 1.8-3.2 1.1-4.2-1-1.5-4.4-1.4-10.8.4-7.1 2-15.5.9-17.1-2.2-1.3-2.6-3.5 1.4-2.2 4.1 1.6 3.3 7.5 4.3 13.2 2.2 1.3-.5 1.3-.3-.2.9-4.5 3.6-11 2.8-14.2-1.7-1.7-2.3-2.1-4.3-1.7-7.9.2-1.8-.3-2.3-1.4-1.3-.5.5-.6.5-1.1.3-.3-.1-1.2-.3-2.1-.4-4.6-.5-6.9-4.7-5-9.2.4-.9.7-1.4.9-1.5.5-.1.5.4-.1 1.8-.7 1.7-.8 3.7-.3 4.5.5 1 .5.9 1.3.7.9-.3.9-.4.6-1-.7-1.4-.2-4.2 1.2-5.8.7-.8 1.2-.1.5.8-1 1.4-1.4 3.3-.9 4.6.3.8 0 .8 2.6-.2 8.2-3.1 12.3-3.4 20.9-1.4 4.7 1 8.3 1.6 10.7 1.6 1.6 0 5.7-5 5.7-7 0-.4.4-.8.7-.7.9.4-1.1 4.5-3.2 6.8l-.9 1h1.5c2.5 0 4.4-2.3 5.2-6.2.2-1.2.3-1.4.6-1.4 1.1 0-.2 4.3-2 6.5l-.8.9.6-.1c3.3-.5 4.4-1.8 4.9-5.8.2-1.3.2-1.5.5-1.5.8 0 .4 2.9-.6 5-.6 1.2-.6 1.2.7.5 1.3-.8 1.9-1.3 2.1-2 .3-.9.4-3.4.2-4.2-.2-.8-.1-1.1.4-1 .4.1.6.8.6 2.7 0 1.9.1 1.9 1-.1 1.2-2.5.6-5.8-1.4-8.1l-.9-1-.2.9c-1.1 4.2-6.5 4.9-18.5 2.3-14.2-3.1-21.2-2.6-27.2 1.7-1 .8-1.5.8-1.5.2 0-.7 4.5-3.1 7.1-3.8 5.5-1.6 10.9-1.4 21.1.9 7 1.5 7.5 1.6 10.6 1.6 5 0 7.6-1.2 7.6-3.6 0-.9-.1-1.1-2-3.1-.7-.7-2.5-2.9-4.1-4.7-3.4-4-4.2-4.7-5.4-4.2-1.3.5-1.2 1.7.4 5 1.9 4 1.9 4.3.2 3.8-2.2-.6-2.7-1-2.8-1.9-.1-.5-.3-1.5-.6-2.3-1.7-4.7-1.2-7 1.5-7.7 2.4-.6 4.7.9 7.8 5.2 2.6 3.7 4.7 5.5 9.1 8 2.1 1.2 2.3 1.2 2.2.6-.9-4.3-2.2-7-4.6-9.9-1.9-2.3-2.3-3-2.4-4-.4-4.7 3.7-.5 15.3 15.8 1.5 2.1 2.1 2.8 3.1 3.6 1.7 1.4 2.8 2.4 3.3 3.1.3.4.5.5.5.4 0-.1.2-.5.5-.8l.5-.5v-2.9c0-1.6-.1-3.2-.1-3.6 0-.6 0-.7.3-.7.5-.1.8 1.6.8 4.5v2.1l.9-.4c.9-.4.9-.4 1-1.3.3-2.7-.5-5.9-2.1-8.3-.8-1.1-.4-2 .5-1 1.4 1.8 2.5 5.2 2.5 7.9v1.7l.5-.4c4.1-2.9-.6-11.3-9.3-16.2-4.4-2.5-31.1-15.3-34.9-16.7-3-1.1-8.5-2.6-8.8-2.3-.1.1 1.7.9 2 .9.4 0 .6.5.3.8-.4.4-2.2-.3-3.7-1.5-.7-.5-2.2-.9-3.4-.9-.1 0 1 .7 2.3 1.5 1.8 1.1 2.4 1.5 2.4 1.8 0 .6-.6.4-3.8-1.6-3.9-2.4-6.2-3.2-3.2-1.1.7.5 1.1.9 1.1 1.1-.1.5-.6.4-1.9-.5-2.9-2-4.5-2.5-9.8-3.4-2-.9-6.4-1-7.8-.8m-35 9.3c0 .2 1.2 1.8 2.7 3.7l2.7 3.4s-1.3-.3-2.8-.8c-2.8-.8-3.2-.8-2.4-.3.7.5 2.9 2.6 3.2 3.2.3.5.4.5.5.3.3-.5.8-1.1 1.1-1.1.4 0 .4.5.1 1-.6.8-.6 1.4-.1 2.3l.5.8.2-.6c.4-1.2.9-2 1.2-2 .5 0 .6.3.1 1.2-.8 1.4-.9 2.5-.3 3.4.9 1.3 1 1.3 1.1.1.1-1.2.8-3 1.2-3 .6 0 .6.4.1 1.3-.6 1.3-.7 3.5 0 4l.4.3.1-1.4c.1-1.5.3-2.2.7-2.4.5-.2.6.2.3 1.2-.5 1.6-.3 2.9.3 3.1.4.2.5.6.1.8-1.1.7-4.2-2.1-6.5-5.9-3.1-5.1-4.5-6.4-9.7-8.4-6.2-2.4-12.5-2.7-15.2-.7-2.1 1.5-1.8 3 1.4 5.8 4.7 4.2 7 7.5 9.7 13.9 2.8 6.6 5.3 8.5 10.3 7.4.5-.1 1-.2 1.2-.3.2-.1.7-.3 1.2-.5l.9-.3v-1.1c0-.8.1-1.2.4-1.6.4-.6.5-.9.1-1.1-.6-.2-1.4 1.4-1.4 2.8V73l-.6-.1-.6-.1v-1.7c0-1.6 0-1.7.6-2.9.6-1.1.6-1.3.4-1.5-.7-.7-1.8 1.9-1.8 4.5v1.9h-.8c-2 0-1.6-5.2.5-7.8.6-.7.6-1.2.2-1.2-1.5 0-3.2 5-2.7 7.8.2 1.1.3 1-.8.6l-.9-.4-.2-1.2c-.5-3 .1-5.7 1.7-8.1.8-1.2.9-1.5.6-1.7-1.1-.7-3.2 4.7-3.2 8v2l-.6-.7c-2.7-3.1-2.5-6.7.8-10.2.6-.6 1-1.2 1-1.3-.6-1-3.3 2.3-4.1 5.1l-.4 1.4-.5-1.1c-.8-1.6-.3-3.3 1.4-5.5.7-.9.8-1 .5-1.2-.5-.5-2 1.4-2.7 3.3-.4 1.1-.4 1.1-1.1.1-.9-1.3-.8-1.9.5-3.6.3-.5.3-.8-.2-.8-.4 0-1.3 1.2-1.4 1.9-.1.7-.1.7-.7 0-.5-.6-.5-1.1-.1-1.8.3-.5.2-.9-.3-.9-.2 0-.4.2-.6.6l-.3.6-.4-.4c-.4-.3-.4-.5-.3-1.2.1-.9-.3-1.1-.8-.5-.2.3-.2.3-.7-.1-.3-.3-.4-.5-.3-.6.6-.3 0-1.2-.5-.9-.2.1-.6-.1-1.7-1.1-.8-.7-1.8-1.6-2.3-2.1l-.9-.7 1.2-.1c.7-.1 2-.2 2.9-.4 8.9-1.4 12.7.5 19.5 9.4 4.5 6 6 7.1 9.5 7.3 5.6.4 2.1 8.2-5 11.2-1 .4-1 .4-.3 1.8l.3.8 1.3-.5c3.3-1.2 7.2-5.3 8.6-9.3.5-1.4 1.2-1.7 1.1-.6-.1 2.9-5.5 9.2-9.1 10.6l-1.4.5.4.3c1.1.7 2.2.7 4.1-.3 6.2-3 9.2-8.5 9.2-16.4 0-6.9-1.6-9.4-7.5-11.4l-2-.7-1.1-2.2c-.6-1.2-1.4-3-1.7-3.9-.5-1.4-.7-1.7-.9-1.7-.7 0 .2 2.8 1.8 6.1.4.8.7 1.5.6 1.5-.2 0-1-.2-2.8-.7-.5-.1-1-.7-3.8-4.1-3.2-3.5-4-4.2-4-3.3M29.5 60c-.9 1-.8 1.9.5 4.7 1.4 2.9.9 3.5-1.3 1.6-1.2-1-1.1-.9-1.2-.4-.1.2-.6 1-1.3 1.7-1.9 2.1-1.8 2.6.6 5 1.8 1.7 3.7 3.1 6.5 4.6 2.6 1.3 4.9 3.3 3.8 3.3-.9 0-5.1-1.8-8-3.4-3.9-2.2-5.2-1.2-5.5 3.9-.1 2.2-.1 2.2 2 3.1l1.7.7H26c-2.2.2-2.3.3-2.3 1.4 0 1.5.5 2.1 3.2 3.6 2.1 1.2 3.9 2.4 7 4.6 5.1 3.7 6.9 4.5 14.8 6.8 9.2 2.7 11.8 4.1 15 7.8 1.7 2 4.5 3.9 7.8 5.2 6.1 2.4 8.2 1 11.5-7.5 1.8-4.6 3.3-6.8 5.9-8.9l.4-.3-.4-.2c-1.2-.6-3.7 2.6-7.1 9.1-2.6 5-5.2 8.2-5.6 7.1-.1-.2.3-.6.9-1.3 1.4-1.6 2.5-3.4 4.5-7.2 2.1-4.1 3-5.5 4.8-7.2l1.3-1.3-.5-.2c-1.2-.6-3 1.1-6.1 5.8-2.6 3.9-3.9 5.5-4.4 5.3-.5-.2-.3-.5.7-1.8.6-.7 1.7-2.2 2.5-3.5 2-3 3.4-4.8 4.5-5.8s1.1-.9.4-1.2c-1.3-.5-5.3 3.3-6.8 6.6-.3.7-.5.9-.8.9-1.5 0 2.3-5.5 5.3-7.6.8-.6.8-.6-.3-1l-1-.4-.7.4c-.4.2-1 .9-1.3 1.4-.5.7-.8 1-.9.9-.6-.2 0-1.5 1.2-2.6.7-.6.7-.6-.6-1.2-.6-.3-1.4-.8-1.8-1.1l-.8-.7-.7.3c-3 1.1-6.5 1.2-9.7.1-1.7-.6-3.8-1.7-3.9-2.2-.1-.4.4-.5.9-.2 3.7 2.4 8.5 2.9 12.4 1.4l.4-.2-.3-.7c-.2-.4-.3-.8-.3-.9 0-.1-.2-.1-.8 0-1.1.2-2.5.1-2.7-.1-.4-.4 0-.7 1-.7 1.7 0 2.1-.1 1.9-.6-.5-1.9-1.4-3-4.5-5.2-4.3-3-5.8-3.3-10.9-1.8-1.5.4-.4 3.2 1.2 3.2.3 0 .4.3.3.6-.5 1.3-3.1-1-3.1-2.7v-.7h-1.2c-.7 0-1.4-.1-1.7-.2-1.6-.6 1.1 3.8 3 5 1.1.7 1.4 1.2.8 1.4-1.2.4-4.5-3.5-5.1-6-.2-.9-.3-1-1.1-1.4-1.2-.7-2.8-1.9-5.3-4.1-1.2-1-3.4-2.8-4.8-3.8-4.2-3.1-7.1-6.2-9.3-9.8-1.4-2.1-2.3-2.5-3.3-1.4m277 16.4c-.3.8-.1 2.1.8 4.2.8 2 1.2 4.2.8 4.2-.9 0-2.5-2.6-2.9-4.6-1-4.8-4.6-3.8-4.6 1.3 0 3.3 1.1 5.3 2.9 5.3h.6l-.8.7c-.4.4-2 1.7-3.6 2.9-6.8 5.4-8.1 7.8-8.6 15.5-.5 7.5.5 9.6 4 8.1 4.4-1.9 8.5-1.4 13.3 1.4 7.1 4.2 12.9 3.1 18.1-3.7 2.3-3 2.5-7.1.4-8.4-.9-.6-.9-.6-.4.6 1 1.9.6 3.1-1.4 5.1-4.1 3.9-9.1 5-16.1 3.7-4.7-.9-6.1-1.1-8.4-1.1-2.3 0-4.5.4-5.6.9-1.2.6-1.3.5-.5-.6 2.1-3.1 3.4-3.2 13-1.8 11.2 1.7 16.6.1 17.4-5.2.3-1.8-.7-2.6-1.3-1-2.1 5.8-6.6 7.2-14 4.2-1.8-.7-2.8-1-4.7-1.3-6.6-1.1-9.8-3.6-9.8-7.3 0-4.4 6.2-9.5 10.5-8.7 1.4.3.9.8-1.8 2.5-3.6 2.1-4.8 3.7-4.8 5.9 0 2.1 1.3 3.2 3.6 3.2 1.2 0 2.7.2 3.3.4.2.1.2-.1-.2-.7-.9-1.4-.8-2.7.2-3.3.6-.3 5.8-.3 7 .1 2.8.8 3.1 2.4 1.6 6.7-.9 2.6-.9 2.7 1.1 2.1 6.9-2.2 11.3-12.4 7.4-17-1.7-1.9-5.2-2.2-7.9-.6-1 .6-1.4.6-1.5.2-.1-.5 2.7-2 3.8-2 .2 0 .3-.1.2-.3-.1-.1-.1-.3-.1-.3 0-.5-2.8.2-3.9 1-.8.6-1.4.6-1.4.1s2.2-1.7 3.3-1.9c1-.2 1.1-.2.7-.5-.5-.4-2.4.1-4.5 1.1-1.4.7-1.7.8-1.9.6-.4-.4 1-1.4 3.1-2.2l.6-.2h-.7c-1.2 0-1.4-.4-1.3-2 .2-2.5-.1-3.9-1.3-5.7-1.2-1.8-3.3-2.7-3.7-1.6M64.9 81c.5.5 0 .8-.9.6-.8-.2-1.2-.1-1.2.3 0 .2.8.6 3.7 1.8 3.8 1.6 4.3 1.7 4.5 1.3.1-.3.8-.3.9 0 .4 1.1-1.4 1.3-3.5.5-6.5-2.7-6.6-2.7-6.6-3.6 0-1.2 2.2-1.8 3.1-.9m170.8 2.4c0 1.8.3 2.5 1.2 3.3.5.5.6.6.4.8-.8.9-2.3-1.3-2.5-3.5-.1-1.7 0-2.3.5-2.2.3.1.4.1.4 1.6m-29-1.2c-1.1 1.1-2.5 5.3-3.5 10.3-1.1 5.5-1.4 6.4-3.7 13.6-4.2 12.5-5.5 19.7-7.9 43.6-1.2 11.6-1.2 11.1.2 11.7.7.3.5 1.8-.4 3.2-.6.9-.1 1.5.6.7.5-.6 1.1-2.1 1.1-2.6 0-.8.2-.8 1.3-.1.7.5 1 .8 1.1 1 .1 1.5-.4 2.7-1.6 3.9-.5.5-.8.9-.7 1 .6 1 2.8-1.7 3.1-3.6.1-.9.1-.9 1-.1.4.4 1 .9 1.5 1.3l.8.6-.1 1c-.1 1.3-.7 2.7-1.6 3.5-.4.4-.7.8-.6 1 .3 1.4 2.7-1.6 3.1-3.9l.2-1 1.4.9 1.4.9-.1.8c-.3 1.9-.8 3.3-1.7 4.2-.6.6-.6 1.1-.1 1.1.9 0 2.5-3.1 2.5-4.9 0-.9.2-.8 2.6 1.1 1.2.9 1.2 1.1.8 2.6-.4 1.3-.8 2.1-1.7 3-.8.8-.9 1.3-.3 1.3.8 0 2.5-2.7 2.9-4.9l.1-.5 1 .8c.6.4 1.4 1 1.7 1.3.9.6.7 2.3-.5 3.9-.4.5-.4.9-.1 1 .5.2 1.7-1.9 1.9-3.3 0-.4.1-.7.1-.7s.5.2 1.1.5c.6.3 1.5.6 2.1.8 1.4.4 1.5 1.4.2 4.1-.5 1.2-.5 1.6.1 1.4.5-.2 1.6-3.1 1.6-4.4 0-.7 0-.7 2.4-.2l1.9.3-.3 1.2c-.2.6-.6 1.8-.9 2.5-.6 1.3-.6 1.8-.1 1.8.3 0 1.3-2 1.8-3.8.5-1.7.3-1.6 1.6-1.3 2.6.6 3.2.9 3.2 1.6 0 1.2-.6 2.7-1.8 4.3-.3.4-.2.7.3.7.7 0 2.3-3.3 2.3-4.7 0-.3.1-.5.1-.5.5 0 3.4 1.9 3.4 2.2 0 .1-.1 1-.3 1.9-.4 2.1-.4 2.5-.1 2.6.4.1.5-.1.8-2 .2-1 .3-1.7.4-1.7.3 0 2.2 2.4 2.1 2.7-.3 1-.3 2.3.1 2.3.3 0 .4-.2.6-.6.2-.5.2-.6.4-.3.8 1.6 1.7 4.6 1.7 6v.8l.1-.7c.8-3.6.2-12.5-1-15.9-.5-1.4-.6-1.2-.7 2.1-.1 2.4-.2 2.9-.4 3.1-.6.5-.7 0-.5-4l.2-3.8-.4-.7c-.2-.4-.8-1.2-1.3-1.8l-1-1.2v2.9c0 2.9 0 2.9-.4 2.8-.4-.1-.4-.1-.4-3.3v-3.3l-2.1-2.1-2.1-2.1v3.9c0 4 0 4.2-.5 3.9-.4-.3-.6-2.6-.5-6l.1-2.7-1.3-1.5c-.7-.8-1.5-1.9-1.9-2.3-.3-.4-.6-.8-.7-.8-.2 0-.3 3.4-.3 7.3 0 4-.1 4.4-.8 3.8-.3-.2-.2-7.9.1-11l.1-1.3-1.3-2c-.7-1.1-1.6-2.5-1.9-3.1-.5-.9-.6-1-.7-.8-.1.4-.5 9.6-.5 14.3 0 3 0 3.2-.4 3.2s-.5-12-.1-16.8l.2-2.5-1.4-2.9c-.8-1.6-1.4-2.7-1.4-2.6 0 .2-.1 1.9-.3 3.9-.3 5-.6 11-.6 14.7 0 3.3-.1 3.9-.8 3.3-.4-.4 0-12.9.7-21.4l.2-2.7-.8-2.1-1.3-3.5-.5-1.4-.1.8c-1.1 6.7-1.7 14.8-1.9 22.5-.1 5-.2 5.4-.8 4.8-.7-.7.4-17.7 1.8-26.8l.5-3.3-.7-3c-.6-2.6-1.2-5.4-1.7-8.5l-.1-.8-.1 1.2c-.9 9.5-1.5 19.9-2 36.7 0 1.1-.1 1.2-.5 1.2h-.4v-3.1c.2-10.8.9-23.7 2.1-36.2.3-3.3.3-4.1.2-6.2-.1-1.3-.2-3.3-.3-4.4l-.1-2-.5 2.2c-2.5 12-4.4 28.5-4.8 41-.1 3.9-.3 4.6-.9 4-.2-.2-.2-.8-.1-4.7.6-14.9 2.4-29 5.2-42.4.8-3.7.9-4.3 1-7.2.1-2.7.2-3.7.8-6.7 1.4-7.4 1.9-12.2 1.2-13.5-.5-.7-1.3-.8-1.7-.4m27.2 3.9c.1 1.5.6 2.3 1.9 3.2.4.3.2.8-.2.8-1.4 0-3.3-4.1-2.4-5.1.4-.3.6.1.7 1.1m28 2.3c-1.8.4-2.4 2.3-1.2 3.6 1.6 1.8 4.8-.1 4.1-2.5-.2-1-1.3-1.4-2.9-1.1M113.3 93c-1.2.5-1.8.9-3.6 2.6-.9.8-1.9 1.7-2.4 1.9l-.8.4.8.8c1.2 1.1 1.6 1.8 1.3 2.2-.2.2-.4.1-1.6-1.1-1-1-1.4-1.4-1.8-1.4-.6 0-.6.2 0 .5s2.2 2.2 2.2 2.5c-.1.6-.6.3-1.6-.7-1.6-1.7-2-1.9-4.7-1.5-4.7.6-5.1 1.1-5.2 8.9l-.1 5h.6c1.6 0 4.6 2.5 3.8 3.2-.2.2-.4 0-1.2-.8-1.7-1.7-3.3-2.1-3.6-.9-.3.8-1.2 1.8-3.1 3.2-4.5 3.3-7.4 8.2-5.9 9.7 1.4 1.4 7.4-1.8 10-5.2l.7-1-.1.7c-.5 3.2-1.8 5-5 6.6-1.5.8-1.4.9.5.8 2.7-.2 7.4-2.9 9-5.2 1.6-2.4 2.9-5.3 3.2-7.5.3-2.1 1.6-9.7 1.7-10.4.1-.3.2-.4 1.2-.5 1.4-.1 1.5-.4 1.1-1.5-.2-.6-.2-.8 0-1 .4-.5 1.1.5 1.1 1.7 0 .7-.1.6 1.5.2.7-.2.8-.9.4-2.4-.3-.9-.2-1.4.2-1.4.3 0 .7.9 1 2.3.1.7.3 1 .4 1 .1 0 .5-.2.9-.3 1.1-.3 1.3-1.9.4-3.9-.3-.6-.1-1 .3-1 .3 0 .9 1.8 1 3l.2 1.1c.3 0 2.1-1 2.1-1.2 0-.5-.5-1.9-1.1-2.8-.6-.9-.6-1-.3-1.3.5-.5 1.7 1.2 2.1 3l.2.8.8-.5.8-.5-.1-.9c-.1-1-.6-2.1-1-2.4-.3-.3-.4-.8 0-.9.6-.2 1.5 1.1 1.9 2.7l.2.9.6-.8c1.1-1.4 1.2-2.5.4-3.8-1.6-2.4-6.7-4-9.4-2.9m213.2.5c-.1.1-.1.7-.1 1.3 0 1.5-.4 3.4-.9 4.7-.6 1.4-.3 1.3 1.9-.2 2.5-1.9 2.9-2.5 2.3-3.5-.6-1-2.8-2.6-3.2-2.3m-195.2 2.1c-.4.3-1.8 1.5-3.1 2.8-3.4 3.3-5.7 5-8.4 6.4-.9.5-.9.6.1.8 1.7.5 4.3 2.3 3.9 2.8-.3.4-.4.3-1.3-.4-1.6-1.3-4.4-2.2-5.2-1.8-.3.2-.3.2.4.4 2.4.6 5.3 3 4.6 3.7-.2.2-.4.2-1.3-.7-2.1-2-4.8-2.8-6.8-2-2.1.8-2.1.9-1.6 3.7.8 3.8.7 4-.5 6.1-1.2 2.1-1.2 2.3.6 3.1l.8.4-.8.1c-2.2.3-6.2 3.4-8.2 6.2-1 1.5-3.8 6.9-3.7 7.1.4.4 3.7 0 6-.7 7-2.2 7.2-2.3 9-6.4 1-2.3 1.2-2.3 1.2-.2 0 1.7-.5 3.6-1.5 5l-.7 1 .5.3c4 2.5 7.1-1.4 10.7-13.6.7-2.4.7-4.6-.1-6.5-.2-.4-.2-.6 0-.7.6-.6 1.3 1 1.5 3 .1 1.6.2 1.6.8 1.1.7-.6.9-1.6.9-4.8 0-2.6.1-3 .6-2.5.2.2.3.7.3 3.1 0 3.2-.1 3 1.3 1.8l.8-.7.1-2.8c.1-2.4.1-2.8.4-2.9.6-.3.7.2.6 2.7l-.1 2.3 1.2-.9 1.2-.9-.1-2.8c-.1-2.5-.1-2.9.2-3.1.6-.5.8 0 .8 2.8 0 1.5 0 2.6.1 2.6l1-.4.9-.4.1-1.3c.1-.7 0-2.1-.1-3-.2-1.8-.2-2 .3-2 .4 0 .6 1 .6 3.9v2.3h2v-1.4c0-.8-.1-2.6-.1-4.1-.2-4 .1-3.6-5.2-7-3.5-2.2-3.7-2.2-4.7-1.5m154.8 2.9c-8.2 8.8-9.2 22.8-2.3 33l1 1.5h1.4c1.7 0 3-.4 4.3-1.1.8-.4 1-.5 1.2-.3.7.7-2.2 2.1-4.8 2.3l-1.2.1.4.5c.9 1.2 5.2.3 7.8-1.5.9-.6 1.3-.7 1.3-.1 0 .9-3.8 2.7-6.5 3l-1.2.1 1 .9c1.2 1 1.5 1 3.4.6 2.4-.5 4.3-1.5 4.9-2.5.5-.9 1.4-.7.9.2-.8 1.4-2.9 2.6-5.9 3.2l-1.1.2 1.1.6c5.6 3.2 11.9.4 11.9-5.4 0-3.5-1.9-5.8-7.2-8.8-5.8-3.3-7.5-4.9-8.9-8.5-2-5.2-2.3-14.5-.5-18.8.3-.6.3-.6-1 .8M89.2 99c-2.3 1.7-3.5 3.6-5.6 8.8-1.4 3.5-2.2 5-3.5 6.4-1.2 1.3-1.1 1.4.8.5 2.1-1 2.8-2 3.6-5.3.8-3.5 1.7-5.4 4.2-8.7.7-.9 1.3-1.7 1.5-2 .4-.6.1-.5-1 .3m245 1.7c-1.7.6-1.7.5-1.2 3.5.5 3.7.4 6.4-.5 10.1-.3 1.2-.3 1.6-.2 1.8.2.2.1.3-.3.7-.6.6-.7.9-.2 1.1.6.2.4.9-.3.9-.4 0-.6.1-.8.5l-.3.5.5.2c.9.3.7.8-.3.9-.6 0-.9.1-1.2.4l-.4.4 1.2.4c1.9.6 3.8 2.3 4.8 4.2.5.9.4.9 1.2.4.9-.7.5-2-.9-3.3-.7-.6-.7-1.1-.1-1.1.4 0 1.7 1.5 2.1 2.3.4.9.7.9 1.3 0 .5-.7.2-1.4-.7-2.3-.6-.6-.7-1.1-.1-1.1.2 0 1.5 1.2 1.6 1.5.2.5.3.4.7-.4l.3-.7-.6-.5c-.6-.5-.6-.6-.4-.8.3-.3.7-.3 1 0 .4.4.6-.5.5-3.5 0-3.7-.6-6.4-2-10-.4-1-.8-2.1-.8-2.5-.4-2.1-1.7-.6-1.7 1.8 0 1.2.1 1.5 1.2 2.7 1 1.1 1 1.2-.1 3.5-1 2-1.1 2.1-1.1.4 0-1.2-.4-2.4-1.1-3.5-.5-.7-.6-1.1-.7-2.1-.1-.6-.3-1.7-.5-2.5-.4-1.4-.3-1.9.3-2.3.3-.2.3-.1.3.3 0 1.2.6 1.4 1 .3.4-.9.9-1.5 1.3-1.5.1 0-.1-.2-.5-.5-1-.7-.9-.7-2.3-.2m-96.8.1c.2.2.1.4-.1 1.1-.1.5-.3 1.2-.3 1.7 0 .9-.3 1.2-.7.7-.3-.3-.3-.3-.1-1.7.3-1.6.7-2.3 1.2-1.8m2.2 2.4c-.2 1.4-.1 2.7.3 3.8.4 1.1.3 1.5-.3 1.3-1.2-.5-1.4-6.1-.2-6.1.4.1.4.1.2 1m2.5.9c.4 3.9 1.5 6.5 3.7 9.2.9 1.1 1 1.6.4 1.6-.8 0-3.4-3.9-4.1-6.2-.7-2.1-1.2-5.1-.8-5.4.4-.5.7-.2.8.8m2.9 2.1c.8 3.4 2.3 6.2 4.8 8.8 1.3 1.4 1.5 1.6 1.2 1.8-1.4 1.4-8-9.7-7.1-12 .4-.7.8-.2 1.1 1.4m-104.4 8.7c0 .1-.5.9-1.1 1.7-2.4 3.6-3.9 9.5-2.6 11 1.9 2.4-.1 2.4-2.1 0l-.5-.6.1-1.9c.2-3.6.7-5.7 1.9-7.5.7-1.1.7-1 0-1-3.1 0-6.5 5-7.3 10.7-.3 2.3-.4 5.2-.2 6.7.4 3.4 1.1 4.1 5.1 5.4 1.7.6 1.8.7.9 1-.9.4-1.5.3-3.8-.2-4-.9-5.7-.1-7.4 3.4-.8 1.6-.7 1.6-1.1.9-1.7-3.3-6.9-5.8-13.4-6.5-7.7-.8-10-.3-13 2.7-1.1 1.1-1.6 1.3-1.6.6 0-.3 1.6-1.9 2.7-2.7l.9-.7-.7-.1c-.4-.1-.9-.3-1.1-.5-.7-.7-3-.5-6.9.5-3.8 1-7 1.2-8.8.4-2.8-1.1-5.4-5.6-6.1-10.3l-.2-1.6-.8 1.1c-1.7 2.4-1.9 3.4-1.1 6.6 1.3 4.9 3.9 9.7 7.3 13.3 2.5 2.6 4.3 2.5 8.7-.3 5.7-3.7 7.3-3.8 7.3-.5 0 .3.1.2.6-.6 3.7-5.7 13.8-6.3 22.1-1.4 1.9 1.1 3.8 2.7 3.7 3-.1.5-.6.4-1.6-.4-8.6-7-21.5-6.5-24.2.8-1.1 2.8 1.8 8.1 6.4 12.1 2.9 2.5 4.6 2.7 11.4 1.8 4.9-.6 6-1.2 7.9-3.9.6-.8 1-1 1.2-.6.2.4-.4 1.2-1.6 2.4-.6.6-1.1 1.2-1 1.2.5 0 2.4-1.7 3.3-2.9.2-.3.4-.4.6-.3.5.2.3.6-.6 1.8-.5.6-.8 1.1-.7 1.1 3.3 0 5.3-1.2 8.5-5.2 2.6-3.2 2.9-3.4 7-6 2.5-1.5 4.5-3.6 5.5-5.9.7-1.5.6-2-1.2-3.7-2.7-2.7-3.2-5.3-2-10.8 1-4.5 1-7.1.1-12-.3-1.9-.5-2.7-.5-2.1m160.3.4c-.7.7-.6 2.2.1 5.6 1 4.5 2.1 6.1 4 5.5.8-.3.9-.5.9-2.8 0-2.2.3-3.9 1-5.4l.3-.7-1.3-.1c-1.4-.1-2.5-.6-3.1-1.4-.6-.9-1.4-1.2-1.9-.7m-156.1 0s.4.6.9 1.3c.5.7.9 1.3.9 1.3l.1.1c.2 0 .6-1 .5-1.1-.3-.1-2.4-1.6-2.4-1.6m26.4.3c-.3.2-1.3.9-2.3 1.7-5.6 4.3-11.7 5.3-16.7 2.7-1.3-.7-1.2-.7-2.2.7-1.3 1.8-2.4 4.2-2.4 5.1 0 0 .2-.2.4-.6.9-1.3 2.1-2.7 2.4-2.7.6 0 .5.5-.2 1.4-2.3 2.7-3.8 6.2-3.7 8.3l.1 1.1.4-1.1c1-2.6 3.2-6.5 3.7-6.5.6 0 .5.5-.4 1.8-1.6 2.5-3.3 6.7-3.3 8 0 .7.4 1.5.6 1.1 1.4-3.6 3.4-7.4 4-7.4.7 0 .6.5-.3 1.8-1.3 2-3.2 6.2-3.2 7.2 0 .6.6 1.4.8 1.1.9-2.6 3.8-6.8 4.5-6.5.5.2.3.6-.6 1.7-2.1 2.6-3.6 5.8-3 6.6l.3.4.9-1.4c1.2-1.8 2.6-3.4 3-3.3.5.2.3.7-.4 1.4-.4.4-1.2 1.4-1.8 2.4l-1.1 1.7v1.2c0 2.3-1.3 4.1-4.9 7-4 3.3-5 5-3.8 6.8.6.9.6.9 1.1-.3 1.2-2.7 3.7-6.3 6.3-8.9 1.9-1.9 4.7-4.1 5.1-4 .7.1.4.6-1.2 1.7-3.9 2.9-7.6 7.5-9.6 12l-.5 1.2.8.8c.8.8.8.8.9.4.4-1 1.5-3.3 2-4 1.6-2.5 3.5-5.1 3.8-5 .6.1.3.7-1.3 3.1-3.9 5.9-4.2 6.8-2.8 8.4.9 1 1.1 1.1 1.1.3 0-2.5 4.9-11.1 5.4-9.6.1.2-.4 1-1.3 2.3-3.2 4.9-4.1 8.4-2.5 9.5 1.1.7 1 .8 1.1-.8.1-3.4 2.9-9.5 4-8.6.3.3.3.4-.6 1.7a11.4 11.4 0 0 0-2.4 7l-.1 1.8h.9c1.9 0 2.7-1.1 2.5-3.5-.1-2.1.1-3 1.4-4.4.6-.6 1.2-1.5 1.5-2.2 1-2.3 4.5-6.9 5.1-6.9.6 0 .4.5-.6 1.7-1.1 1.3-2.7 3.7-3.2 4.6l-.3.6 1.2-.7c.7-.4 1.5-.8 1.7-1 .4-.2.6-.5.8-1 1.2-3.1 4.3-7.9 4.9-7.6.5.2.4.5-.9 2.1-1.1 1.5-3.1 5-3 5.3 0 .1 1-.4 2.1-1l2-1.2 1.7-2.6c2.2-3.3 2.4-3.6 2.8-3.5.5.2.3.6-.9 2.3-1.1 1.6-2.1 3-2 3 1 0 3-1.2 3.8-2.4 1.2-1.6 2.8-4.8 3.2-6.3.3-1 .6-1.4.9-1.2.6.4-1.1 4.7-2.9 7.3-.4.5-.6 1-.5 1 .1 0 .7-.1 1.3-.3.6-.1 1.3-.2 1.6-.2 1 .1 2.1-3.3 3-8.9.8-5 2-9.8 2.9-12.1l.4-.9h-.5c-.9 0-2.7 3.4-3.3 6.4-.2.7-.3 1.5-.4 1.7-.1.3-.2.4-.4.3-.9-.1.4-4.9 2-7.6l.5-.8h-1.2c-1.6 0-2.7 1.1-3.7 3.7-.5 1.3-.6 1.4-1 1.1-.5-.5.7-3.1 1.9-4.3l.4-.5h-2l-.7.9c-.4.5-.9 1.1-1.1 1.4-.4.6-.7.7-1 .3-.2-.2.3-1.1 1.3-2.1l.4-.5h-1.1c-1.6 0-2.9 1-3.5 2.5-.1.3-.7.4-.9.1-.2-.3.4-1.3 1.1-2.1.4-.4.6-.8.6-.8-.1-.1.6-.4 3.8-1.6 2.4-1 3-2 2.4-4.2-.5-1.9-.6-1.9-3.3-1-2.3.8-2.3.9-.5-1.1 1.7-1.8 1.9-2.2 1-2.7-.7-.2-1.7-.2-2.3.2m152.1 1.4c-.3.2-.9.6-1.5.8-1.6.6-1.6.7-1.6 2.3 0 .8 0 1.8-.1 2.4-.3 2.1 2.8 2.1 3.8-.1 1.5-3 1-6.7-.6-5.4m-175.5 1.3c-.6 1.4-.3 1.9.4.6.5-.8.5-.9.2-1.1-.3-.2-.3-.1-.6.5m-52-.2c2.5 2.1-1.3 6.4-7.2 8.3-2.1.7-2.2-.2-.1-.9 4.4-1.5 6.9-3.7 7-5.8 0-.9 0-.9-.6-1-.6-.1-.8-.5-.5-.8 0-.2 1 0 1.4.2m53.5.7c-.4.5-1.2 2.4-1.2 2.7 0 .3.1.2.6-.5.3-.5.7-1.1 1-1.5.4-.5.4-.7.2-.8-.3-.2-.4-.1-.6.1M82.6 121c-2.1 5-1.4 11.9 1.3 13.5l.6.3-.5-.7c-2.2-2.8-2.2-8.4-.1-13.4.1-.2 0-.3-.4-.3-.6 0-.7.1-.9.6m-2-.2c-2.4.9-2.6 1.2-2.5 4.4.1 6.9 2.4 10.8 6.6 11 1.1 0 1.1 0 .6-.1-2.3-.7-3.1-1.3-3.8-2.9-1.4-2.9-1.4-7.2.1-12.3.1-.4-.1-.4-1-.1m247.1 2c-.2.2 0 .3.8.6 1.9.7 3.5 2.1 4.6 4.1l.5.9.5-.4.5-.4-.5-1c-1.4-2.7-5.3-5-6.4-3.8M76.1 124c-1.2 1.4-1.2 3.3 0 6.8 2.2 6.6 5.2 8 12.5 6.2 3.2-.8 5.1-1.2 6.4-1.2.8 0 1 0 1.1-.4.1-.2.4-.7.7-1l.5-.6h-.6c-1 0-2.6.5-2.9.8-.6.8-7.1 2.6-9.3 2.5-4.6-.2-7.3-4.7-7.3-12.3-.1-2-.1-2-1.1-.8m249.9.1c-.3.2-.3.3.4.8.4.3.8.5.9.4.5-.9 2.5 1 3.9 3.7l.5.9.5-.4c.3-.2.5-.4.6-.5.2-.2-.9-2-2-3.1-1.6-1.5-4-2.4-4.8-1.8m-210.7 1.4c-.1 2-2 4.5-4.5 5.8-2.4 1.2-7.1 2.6-7.6 2.2-.4-.4-.1-.6 1.2-.9 3.6-.8 6.4-1.9 8-3.3.9-.8 2-2.7 2-3.4 0-.6.3-1.2.6-1.1.3-.1.4 0 .3.7m208.4-.2l-.5.2.6.3c.3.2 1 .7 1.5 1.1l.9.8.3-.8.3-.8-.5-.4c-1.2-.7-1.8-.8-2.6-.4m-154.8.2c.2.2.1.4-.8 1.2-.5.5-1.1 1.2-1.3 1.5-.3.6-.8.6-.8 0 .1-1.2 2.4-3.4 2.9-2.7m152.8.8c-.3.3-.3.4.9 1.1.6.4 1.5 1 1.9 1.5.8.9 1.2.9 1.2 0 0-1-3.4-3.2-4-2.6m-138 .8c-.9 1.6-2.2 6.9-3 12.1-.7 4.3-1.2 6.3-2 8-.3.7-.6 1.3-.6 1.3 0 .3 1.4 0 1.6-.4 1.5-2.2 2.4-5.2 3.1-11.2.6-5.2 1.2-7.6 2.2-9.7l.5-1h-.7c-.6.1-.7.1-1.1.9m2.2.5c-1.1 2.3-1.6 4.3-2.3 9.7-.6 4.7-1.1 7-2 9.1-.5 1.2-.5 1.2.1.5 3-3.5 3.9-6 4.2-12.6.3-5.2.6-6.5 1.7-7.5.5-.4.5-.4.1-.5-.9-.2-1.1-.1-1.8 1.3m135.3.6c0 .5.1.6.7.9.4.2 1.1.7 1.6 1.2.6.6.9.8 1.1.7.4-.4-1.2-2.3-2.7-3l-.7-.4v.6m6.4 2.1c-.7 3.1-2.6 6-5.4 8-1.6 1.1-1.8 1.4-1.8 2 0 1.9 4.9 2.5 6.6.7 2-2 2.6-7.6 1.1-10.9l-.3-.7-.2.9m-5.4.7c.8 1.4.9 1.5 1.3 1.2.3-.3 0-1-1-1.7-.9-.6-.9-.5-.3.5m-8.2-.3c-2.7 1.2-6.8 11.5-5.2 13.3.9 1 4.5 1.4 6 .6 1.4-.7 1.5-1.5.2-4.6-1.3-3.1-1.4-4.3-.7-7.8.3-1.9.3-1.8-.3-1.5m-204.8 8.1c4.6.5 8.9 2.4 12.1 5.5 1.4 1.4 1.5 1.5 1.2 1.7-.3.3-.3.2-1.5-.8-3.1-2.9-6.7-4.6-10.9-5.4-4.3-.7-10.3.3-12.2 2.1-.6.5-1.1.6-1.1 0 .2-1.9 7.2-3.7 12.4-3.1m-34.3 8.8c-.8 1-1 1.5-1.6 3.5-.3 1-.6 2-.6 2.2-.1.2.1.1.4-.3.3-.3.9-1.1 1.5-1.7l1-1.1-.1-1.7-.1-1.7-.5.8m222.4.8c.7.2 2.3.7 3.4 1.1 4.6 1.7 6.1 1.8 10.8.8 4.6-1 9.5-1 9.5-.1 0 .4-.1.4-1.3.7-2 .4-3.6 1.1-5.1 2.1-1.4.9-1.8 1-1.8.4 0-.4 1.9-1.7 3.6-2.4 1.6-.7 1.6-.7.2-.6-.6.1-1.2.2-1.3.3-.1.1-.5.3-.9.4-1.3.4-2.6 1.1-5.8 3.3-2.8 1.9-3.1 2.1-3.3 1.8-.2-.3-.2-.3 0-.6.4-.4 6.2-4.3 6.4-4.3.1 0 .2 0 .1-.1-.2-.2-2.2.3-2.3.5-.1.1-.2.2-.4.2-.1 0-1.3.6-2.7 1.3-2.6 1.3-5 2.3-5.4 2.2-.6-.2-.2-.7 1.1-1.2.7-.3 2.1-.9 3.1-1.4l1.8-.9-1-.1c-.8-.1-1.1-.1-1.7.2-1.5.7-7.4 2.6-7.6 2.4-.4-.4.1-.7 3-1.7 4.1-1.4 4-1.3 2.6-1.8-1-.3-1.2-.4-1.3-.2-.1.1-.5.3-.9.3l-2.6.7c-2.9.9-6.5 1.4-6.8 1-.3-.4.1-.7.8-.7.3 0 1.3-.1 2.2-.3 1.3-.2 2.3-.5 6-1.6.3-.1.1-.2-1.1-.6-2.1-.6-2.4-.7-2.4-.5 0 .1-.5.2-1.5.2-1.8 0-4.2.3-6.2.8-1.5.4-1.9.3-1.7-.2.2-.4 3.2-1.2 5.6-1.4.9-.1 1.4-.2 1.5-.3 0-.1 1.8-.1 3.4.3m-222.4 4.1c-1.9 2.1-2.9 3.5-3.6 5.3-.3.9-1.6 3.7-2.9 6.4-1.3 2.6-3.2 6.7-4.1 8.9-1 2.3-2.6 6.1-3.7 8.4-5.7 12.6-8 18.6-10.1 26.5-2.7 10-3.3 15.6-2.2 20.1.3 1.5.4 1.4.6-1.2.2-2.9.3-3.1.7-3 .3 0 .4.1.3.7-.2 4-.2 7.9-.1 7.9s.2-.3.2-.8c0-1.2.6-5.6 1.1-8.1.2-1.2.4-2.2.4-2.2 0-.2.7 0 .8.2 0 .1-.1 1.2-.3 2.4-.5 2.6-.9 5.6-1.1 8.6l-.2 2.3.7 1.7.7 1.7v-1.5c0-5.1 1.7-17.1 2.4-17.9.7-.7.8.1.2 2.6-1.9 9.3-2.2 16.6-1 26.8.4 3.5.9 7.5 1.1 8.8.3 3 .2 2.7 1.1 2.1 1.8-1.2 4.3-1.7 4.3-.9 0 .3-.1.4-1.4.6-.9.2-2.3.9-2.9 1.5l-.5.6.2 1 .2 1 .8-.7c1.8-1.6 6.3-2.8 6.2-1.6 0 .3-.2.4-1.4.6-2.5.4-5.1 1.9-5.1 3 0 2.9 3.8 7.5 7.7 9.5 5.9 3 8.9 2.5 14.9-2.7.4-.3.4-.4.3-1.4-.2-2.7-3.1-6-7.4-8.2-.9-.4-1.1-.9-.6-1 .5-.2 3.5 1.5 5.2 3 2.1 1.9 3.3 3.7 3.7 5.6l.2 1.1c.1.1 1.4-.5 1.4-.7.3-1.7-2-5.6-4.5-7.5-1.3-1-1.4-1.2-1.1-1.5.3-.4 1 .1 2.9 2 2.2 2.2 3.3 4.1 3.5 6.3.1.9.1.9 1.3.5.6-.2-.3-3.6-1.5-5.3-.8-1.2-.9-1.5-.5-1.7.8-.3 2.7 3.5 3 5.9l.1.9 1-.1c4.6-.5 18.2-3.3 26.8-5.4 20.6-5.2 32.5-11.9 37.8-21.3.6-1 .6-1.4.1-.9-.2.2-.2.1-.1-.3.5-2.4.5-3.2.5-6.4 0-4.9-.5-7.5-1.2-6.8-.2.2-.1.5.1 1.7.4 1.9.4 7.9.1 9.7-.6 3.1-.4 2.9-1.7 3.6-2 1.3-1.8 1.4-1.4-.8.8-3.9.5-10.1-.5-9.1-.2.2-.2.4-.1 1.1.5 2.2.2 6.7-.6 9.6l-.3 1-1.5.8c-.8.4-1.5.7-1.5.7s.1-.8.3-1.6c.7-3.6.8-5.5.1-5.9-.5-.3-.7.1-.5 1 .2.9-.1 3.3-.8 6l-.3 1.2-1.6.7c-1.9.9-1.8.9-1.6-.8.3-2.1.2-3.4-.3-3.4-.4-.1-.4 0-.4 1.1 0 1.6-.4 4.2-.7 4.4-.1.1-.9.4-1.7.6l-1.4.5.2-1c.3-1.4.2-2.5-.2-2.5-.3 0-.3.1-.4 1.1-.1 1.1-.4 2.3-.6 2.6-.1.1-1.2.5-2.5.9l-2.3.6-.1-.9c-.1-1.4-.8-1.3-.8.1 0 .8-.1 1-.4 1-2.9.7-8.7 1.5-18 2.6-7.4.8-8.5.9-6.6.5 5.9-1.3 11.5-5 13.3-8.7 1.6-3.2 1.2-6.2-1.1-10.7-.5-1-1-1.9-1-2-.1-.2 2.7 1.3 4.3 2.4 2.4 1.6 4.9 3.8 7.1 6.3.7.8.7.9 1.1-1 1.3-6.5-.8-13.9-6.6-23.7-.8-1.4-1.5-2.5-1.4-2.5 0 0 .9.4 1.9.9 3.9 2 8.2 5.2 13.3 10.2 1.8 1.7 1.8 1.7.7-.8-2.2-5-5.5-10.1-9.3-14.5l-1.5-1.8.5-.1c4.6-.9 11 5.6 16.5 16.8l1.7 3.5.4-1.2c.3-.9.4-1.8.5-3.6.2-4.7-.4-7-4.4-16.6-1.4-3.4-2.3-6.3-2.1-6.4.1 0 .7.3 1.4.6 3.1 1.7 5.7 4.4 7.4 7.7 1.1 2 1.8 2.2 3.1.5.3-.4 2.2-2.3 4.1-4.2 4.5-4.4 5.4-5.8 5.4-8.2 0-2.4-2-4.8-4.1-4.8-1.4 0 2.9-1.5 7.6-2.6 7.7-1.8 9.3-3.2 14-11.8 6-11 9.7-16.7 11.3-17.9l.6-.4-.9-.4c-.8-.4-1.2-.4-3.8-.5l-2.9-.1-.1.5c-.4 1.9-1.3 3.7-2 3.9-.5.1-.5-.4-.1-1.1.9-1.4 1.3-3.3.7-3.4-.2-.1-.5-.1-.7-.2-.2-.1-.3.1-.5.6-1 3-5.2 7.6-6.2 6.7-.4-.3-.3-.4.9-1.3 2.6-1.7 5.4-5.9 4.4-6.7-.4-.3-.4-.2-.8.8-.8 2.1-6.2 5.8-7.1 4.9-.3-.3-.1-.6 1.1-1.1 4.2-1.7 6.5-4.9 4.8-6.7-1.4-1.6-1.9-1.5-7.8 2.6-6.4 4.5-6.8 5-6.4 7.2.2 1.3.2 1.3-1.3 3.1-1.4 1.7-2.4 3.7-3.7 7.7-1.4 4.1-1.3 3.7-.5 3.4.9-.4 1.3-.3 1.3.1 0 .3-.3.5-1.2.8-1.1.4-1.2.5-1.5 1.3l-.4.8.4-.1c.7-.2 2.9-1 4.4-1.6 1.4-.6 1.9-.7 1.9-.2 0 .4-2.3 1.4-5.2 2.4-3.4 1.1-3.4 1.5 0 .7 4.6-1.1 7.2-2.2 8.9-3.8.5-.4 1-.5 1.1 0 .2 1.2-4.2 3.2-9.9 4.6-3.2.8-3.6.9-4.7 1.7-2.1 1.4-5.6 2.5-13 3.9-13.7 2.7-18 4.2-25.2 8.9-8.4 5.5-12.6 10.8-16.8 20.9-2.2 5.2-3.4 7.6-5.4 10.6-2.1 3.1-3.2 5.3-3.9 7.8-1.2 4.1-3.1 7.8-5.8 11.2-1.6 1.9-1.8 2-1.2.7.8-2.1 1.5-5 2.5-9.5 1.4-6.6 2.4-10.1 3.8-12.8 2.2-4.4 9.5-16.9 14.3-24.5 1.4-2.2 1.7-2.8 1.7-3.8v-.8l-1.5 2.6c-1.7 2.9-2.7 4.6-7.3 11.6-8.2 12.8-11.1 19.2-12 27.2-.2 1.9-.2 1.9-.6 1.9-1.1 0 .3-7.1 2.3-12.4 1.9-4.9 4.2-9.1 10.6-18.7 6.5-9.9 9-14.3 8.1-14.2-.4 0-6.8 9.3-9.3 13.5-3.1 5.1-6.5 11.7-8.4 16.3-.8 1.8-1 2.1-1.4 1.7-.2-.2 0-.7 1.2-3.3 4.4-9.8 9.6-18.7 16-27.2 1.3-1.7 1.7-2.4 1.6-2.6-.5-1-9.4 11.5-13.4 18.9-.5.9-1.1 1.2-1.1.5 0-1.5 6.9-12 11.8-18 1-1.2 1.9-2.3 2.1-2.5.3-.4.3-.5-.1-2.6-.2-1.2-.5-2.6-.6-3l-.1-.8-.4 1c-.3.7-.5 1-.8 1-.6 0-.6-.3.2-2 .8-1.6.8-1.7.6-2.5l-.1-.9-.7 1c-.9 1.3-2 3.5-2.3 4.7-.3.9-.8 1.2-1 .6-.2-.6 1.6-4.5 3-6.4.9-1.1.9-1.3.9-2.1 0-.5-.1-.8-.1-.8-2.2 2.5-4.9 7.7-5.7 10.9-.1.5-.3.7-.5.7-1.5 0 1.8-7.4 5.3-11.9.9-1.2 1.1-1.5 1.2-2.2l.1-.6-.8.8c-3.4 3.7-6.5 9-8.5 14.8-.7 2.2-1.4 2.8-1.3 1.4.2-3.7 5.6-13.2 10.1-17.9.8-.9 1.6-1.9 2.1-2.8 1-1.8 2.3-3.7 4-5.6 2.5-2.8 2.5-2.8 2.1-2.6-.5.3-1.1.2-2.1-.1l-.9-.3-1 .8c-1.6 1.4-3 3-4.5 5.2-.9 1.3-1.5 2-1.7 2-1.2 0 2.2-5 5.2-7.6l1.1-1-.7-.4-.7-.4-.8.7c-1.1.9-2.8 2.7-3.8 4-.8 1-1.3 1.3-1.4.7-.1-.4 1.4-2.2 3.3-4.2l1.8-1.8-.5-.4c-.3-.2-.8-.5-1-.7l-.5-.3-1 1c-3.9 3.8-7.3 9.4-9.1 14.6-.7 2.1-.9 2.4-1.3 1.9-.1-.2 0-.7.5-2.1 1.9-5.7 4.9-10.5 9.2-14.9l1-1-.6-.3c-4-1.9-7.5 2.7-12.1 16.2-3.1 9.1-4.9 13-6.2 13-.4 0-.9-.5-.9-.8 0-.4-.9-1.2-1.4-1.2-.5 0-.8-.4-.7-.8.1-.3 1-.2 1.8.2l.4.2.2-1c.2-1.2 0-1.6-.9-2.1-.4-.2-.6-.4-.6-.7 0-.5.4-.5 1.3 0 .7.5.8.4 1.1-.9.2-1.1-.3-2.2-1.4-2.8-.4-.2-.6-.4-.6-.6 0-.8 1-.4 2.1.7.3.4.6.7.7.6.1-.2.8-2.3.8-2.6 0-.5-.9-1.7-1.7-2.1-.7-.4-.9-.9-.4-1.1.4-.1 1.7.7 2.2 1.4l.4.6.3-.8c.5-1.3 0-2.4-1.3-3.2-1-.6-1.2-.5-1.8 1-1.2 2.9-1.9 2.9-2.3.1-.7-5 .4-9.2 3.7-13.8 2.2-3 2.7-4.6 2-6.2l-.4-.8-.7.4c-1.3.7-2.4 2.1-4.2 4.9-.7 1.1-1.4.8-.8-.3 1-2 2.9-4.3 4.2-5.2l.8-.5-.6-.5c-1.1-.9-1-1-2.7 1.7-4.6 7.2-8 14.1-10.8 21.8-.7 1.9-1 2.7-1.2 2.7-.6.1-.6-.3.1-2.3 3-8.3 6.5-15.5 11.3-22.9l1.6-2.5-.4-.5-.4-.5-1.1 1.2m12.9 2.4c-.4.2-1.9 1.6-1.9 1.9 0 .1.3.1.6.1.7 0 2.2.6 2.5 1.1.3.4.5.3.7-.3.6-2-.3-3.4-1.9-2.8m-2.4 3c-.2.1-.7.9-.7 1.1 0 .1.2.2.5.2.6.1 1.9 1.1 2.4 1.7l.3.4.5-.9c.7-1 .7-1.2.1-1.7-.8-.8-2.5-1.2-3.1-.8m226.1 1.3c-.6.2-1.1.5-1.9 1.3-.6.6-1.6 1.3-2.3 1.7a60 60 0 0 0-4.6 3.3c-7.1 5.3-7.9 5.6-28.3 10.5-15.2 3.7-16.8 4.1-20.2 5.8-5.6 2.8-10.2 7.9-12.4 13.7-1.9 4.9-7.3 6.8-9.2 3.1-.1-.3-.4-.7-.6-.9-.2-.2-.4-.8-.6-1.4-1.1-4.2-3.1-5.6-13.8-9.5-13.4-4.8-17-7.1-22.6-13.7-1.6-2-5.4-6.8-5.5-7.1-.3-1-3.2 2.6-4.7 5.9-1.9 4.1-2 6.7-.2 12.9.7 2.6.8 2.9.6 3.2-.5.6-1 1.9-1.1 3.3l-.1 1.4.7.6c1.5 1.3 8.3 3.3 12.5 3.7 1.2.1 1.7.5 1.2.9-.8.7-11.2-1.9-13.6-3.4l-.9-.6-.1.7c0 .4 0 .8.1.9.7.5 6.6 2.2 9.5 2.7 1.4.2 1.9.7 1.2 1-.5.2-5.3-.9-8.2-1.9l-2.9-1-.3.9c-.1.5-.3.9-.3 1 0 .3 1.9 1 3 1.2.9.1 1.1.2 1.1.5 0 .7-3.1.3-4.2-.5-.3-.2-.4-.2-1 .9-.8 1.4-.8 1.4.8 1.4 1 0 1.2.1 1.3.3.1.5-.7.7-2.1.6l-1.2-.1-.8 1c-.9 1.3-3.4 3.7-5.1 5.2-1.3 1.1-1.3 1.2-1 1.3 1 .2.5 1-.6 1-1 0-1.4.2-3.2 1.6-1.9 1.5-1.9 1.5-.2 1.2 1.5-.3 1.8-.2 1.7.3 0 .3-.3.4-1.5.6-3.1.6-3.3.7-5.1 2.4-1.9 1.9-1.9 1.8-.3 1.3 1.8-.6 4.6-.9 4.9-.5.5.5 0 .7-1.7.8-2.7.2-5.6 1.3-6.3 2.4-.5.8-1.3 2.4-1.2 2.4.1 0 .3-.2.6-.4 2.6-2 12.8-3.5 11.3-1.7-.2.2-.6.3-1.9.3-5.3 0-9.8 1.8-10.8 4.3-1.5 3.8.4 15.2 2.7 16.4l.5.2.1-1.7c.1-.9.1-3.7.2-6.1.1-5.6 0-5.4 2.9-6.4 7.4-2.7 13-3 25.6-1.4 9.3 1.1 15.8.3 20.4-2.6 3.3-2.1 7.9-5.7 10.8-8.4l1.9-1.8v1.1c0 2.1-1.5 4.3-4.4 6.4-1.2.9-1.6 1.5-1.6 2.2 0 .8.2.9 1.6.5 4.9-1.1 10.9 1.1 16.9 6.1l1.2 1 .3-.5c.4-.7.5-1.2.6-5 .3-10 3.1-10.4 4.8-.7 1.2 6.9.9 6.5 10.1 11.4 2.4 1.3 7.1 3.8 10.4 5.5 17.1 9.1 19.8 9.7 42.3 10.7 1.3.1 2.5.2 2.6.3.9.5-.4 2.7-2.7 4.5l-.6.5 1.7-.1c4.1-.2 5.4-.7 6.7-2.7 1.1-1.7 1.1-1.8.3-1.3-1.4.8-3.1 1.1-3.1.5 0-.2.2-.4.9-.6 2.6-.8 3.7-1.7 4.2-3.5l.3-.9-.9.8c-1 .9-2.6 1.8-3 1.6-.5-.2-.3-.6.8-1.1 1.3-.6 2.5-1.8 3.1-3 1.3-2.6-.4-8.7-4.4-16.3-.8-1.5-1.8-3.4-2.1-4.2-.9-1.9-3.8-4.1-8.4-6.3-3.9-1.9-6.8-2.6-12.2-3.3-1.5-.2-1.6-.9-.2-.9 5.2 0 13.1 2.8 18.3 6.6.7.5 1.3.8 1.2.7 0-.1-.2-.8-.4-1.5l-.3-1.3-1.3-.8c-3.5-2.1-10.1-4.4-12.5-4.4-.6 0-.9-.4-.6-.8.7-.7 7.9 1.4 12.3 3.7 1.3.7 2 1 2 .8-.1-.2-.1-.8-.1-1.4v-1.1l-1.3-.5c-2.1-.8-3.8-1.3-6.1-1.9-2.1-.5-2.8-.9-2-1.2.5-.2 4.9 1 7.7 2 .9.3 1.6.6 1.6.6s.1-.5.1-1.1c0-1.3.3-1.1-3.1-1.7-2.4-.4-3-.6-2.6-1.1.2-.2.6-.2 2.9.2 3.1.5 2.8.6 3-1.1l.1-1.4-.6.1c-1.4.3-3.3.2-3.3-.2 0-.3.2-.3 1.3-.5 2.9-.3 3.2-.6 3-3-.1-1.8-.4-1.9-4-1.1-2.3.5-4 .7-7.7 1-2.7.2-2.8.2-5.7 1.2-10.4 3.4-16.3 3.1-23.1-1.1-2.8-1.7-5.2-2.6-6.3-2.3-.5.1-.9-.3-.6-.7.8-.9 3.5 0 7.7 2.4 5.5 3.3 10.7 3.8 17.9 2 4.5-1.2 4.5-1.1-1-1-5.9.1-7.1 0-10.1-1.1-1.2-.4-2.8-.9-3.5-1.1l-1.3-.4 3.1-.1c23.9-.9 33.8-2.5 44.6-7.1 1.3-.5 2.9-1.1 3.6-1.3 6.7-1.8 9.5-4.1 10.3-8 1-5.2-4.3-6.7-11.8-3.5-1.2.5-2.7 1.1-3.5 1.4-2.1.6-4.3 1.8-8.2 4.1-8.1 4.9-9.5 5.2-27.3 4.8-14.1-.3-19.6.1-25.8 2.2-4.3 1.4-7.6 4-8.1 6.2-.1.7-.3.6-.5-.3-1.2-4.6.8-8.3 5.5-10.6 5.9-2.9 12.1-3.8 25.8-3.5 11.6.2 10.6.5 24.8-7.6 12.2-6.9 12.4-7 17.2-8.3 4.5-1.2 4.5-1.3 1.2-5.8-4.9-6.6-7.8-8.7-10.7-7.8m-228.2 2c-1 1.8-1 1.6.1 1.8.5.1 1.3.4 1.8.7.4.3.8.5.8.5s.3-.5.7-1.1l.6-1-.4-.6c-.4-.6-1.4-1.2-2.3-1.6-.4-.1-.5-.1-1.3 1.3m236.2-.3c-.7.4 1 1.9 3 2.5 2.2.7 2.5.9 2.8 1.8.5 1.8 4.8 6.7 8.4 9.3 3.4 2.6 3.9 4 2.2 6.7-2 3.2-1.4 5.6 2.1 8 .5.4 1.5 1.1 2.1 1.6 1.6 1.3 3.5 2.3 4.8 2.8 1.6.5 1.6.5.4.9-1.7.5-5.4.5-7.2-.1-.9-.3-1.3-.4-1.5-.2-.8.8 1.7 1.5 5.3 1.5h2.7l1.7-.6c1-.4 2.2-.7 2.7-.8 1.2-.3 2.3-.6 2.5-.8.5-.4.3 0-.3.8-2.4 3.1-7.7 4.7-12.1 3.7-.8-.2-.9-.2-1.2 0-1.2 1.2 5.5 1.4 8.8.3 5.2-1.8 8.8-7.5 7.8-12.8-.4-2.3-.5-2.4-1-1.1l-.5 1 .3.8c.3.9.4 2.3.1 2.6-.3.3-.8-.1-.7-.6.1-.4-.2-2-.4-2-.7 0-1.4 1.2-1.4 2.2 0 1.4-.4 2.8-.9 2.9-.5.1-.6-.3-.3-1.2.2-.5.3-1.2.3-1.6v-.7l-.8.3c-.5.1-.8.3-.8.4 0 .8-1.6 3.1-2.2 3.1-.6 0-.5-.5.1-1.2.6-.6 1.1-1.5 1.1-1.8 0-.6-1.6-.3-2.4.5-.5.5-.9.8-1.2.8-.7 0-.6-.4.1-1.1.6-.5.7-.7.6-1.1-.1-.6.1-.7.8-.5 3.1.9 6.2-.7 7.4-3.8.5-1.3.4-1.3 3 0 2 1 2.4 1.3 3.6 2.4l1.3 1.3-.2.6c-.2.8-.6 1.4-1.2 1.8-.5.3-.6.7-.3.9.4.2 1.6-.7 2-1.6l.4-.8.5.9.5.9-.3.7c-.2.4-.8 1.2-1.4 1.8-.9 1-1 1.1-.8 1.3.4.4 1.9-.9 2.7-2.4l.3-.5.3.7c.7 1.7.2 2.9-2.3 4.7-.5.3-.5.4-.2.7.4.4 1.8-.5 2.7-1.7.3-.4.6-.7.6-.8.1 0 .5 2.1.5 2.7 0 .6-1.2 2.3-2.7 3.8-1.3 1.3-1.5 1.8-.8 1.8.4 0 2.3-1.8 3.1-2.9l.5-.8.1.8c.3 1.9-1.6 4.5-4.8 6.7-1.1.7-1.2.8-.9 1.1.4.4 3.4-1.7 4.8-3.5 1-1.2 1.2-1.2.5.1-1.2 2.3-4.3 5.7-6.3 7-.9.6-1.2 1.1-.7 1.3.7.3 4.8-3.3 6.4-5.6l.9-1.2v.9c0 2.2-4 7.1-7.7 9.5-1 .7-1.6 1.2-1.6 1.3.3 1.4 5.5-2.8 8.2-6.6 1-1.4 1-1.4.7.7l-.2 1.4-1.4 1.7c-3.5 4.3-7.4 7.3-10.8 8.1-.6.1-.8.3-.8.5 0 .5.3.5 1.5.2 3.2-1 6.3-3.2 9.3-6.6.8-1 1.5-1.7 1.6-1.7.1.1-.3 1.4-.6 1.6-.1.2-.2.4-.1.5.9 1.4-4 5.9-9.3 8.6-8.1 4.2-18.4 5.3-23.8 2.6-1.1-.5-2.2-1-2.5-1.1-.5-.1-.6-.2-1.2-1.4-.8-1.7-.8-1.7.7-1 3.6 1.6 9.9 2.2 9.9 1 0-.1-.7-.2-2.4-.3-3.3-.1-5.6-.7-8.1-1.9-1.2-.6-1.2-.6-1.6-1.7-.2-.6-.3-1-.3-1s.4.2.9.4c2.4 1.2 6.8 1.9 6.8 1 0-.3-.2-.3-1.5-.5-2.2-.2-5.8-1.5-6.5-2.3-.2-.2-.8-2.5-.7-2.5 0 0 .5.3 1.1.7 1.1.7 3.4 1.6 3.8 1.5.6-.2.2-.7-.9-1-2.1-.6-4.5-2.6-4.5-3.7 0-.3 0-.7-.1-1l-.1-.6.7.5c.9.7 2 1.3 2.4 1.2.6-.1.3-.5-.6-1.1-1.4-.8-2.5-2.1-2.5-2.8 0-.7 0-.7.7-.3 1.1.6 1.3-.3.1-.9-.7-.4-.9-2.1-.3-2.6.2-.2.3-.3.2-.6-.1-.2-.1-1-.1-1.8.2-5.7-8 .1-9.4 6.7-1.4 6.6.8 11.3 10 22 9.1 10.6 10.2 13.6 9.1 25.9-1.8 20.1 3.6 39.9 16.3 60.2.8 1.3 1.9 3.2 2.3 4.3 1.8 4.2 3.6 7.4 6.1 11.2 3.5 5.3 4.5 8.3 4.7 15 .2 5 .4 6 1.1 5 .9-1.2 1.2-2.4 1.6-6 .5-4.8 1.8-7.3 4.5-8.7.6-.3 1.3-.8 1.6-1.1 1.9-1.8 2.3 5.8.6 10.9-.9 2.6-3.6 7.6-5.2 9.5-3 3.6-3.6 4.1-5 3.7-1-.3-1.1-.3-1.1.1s.8.8 1.5.8c1.4 0 2.8-1.2 5.2-4.1 1-1.3 1.1-1.3.5.2-.3.6-.6 1.6-.8 2.1-.6 1.9-3.9 4.8-5.6 5-1.3.1-1.4.7-.1.8 1.1.1 2.1-.4 3.6-1.8l1.1-1-.4 1.4-.4 1.4-1.2.9c-2.1 1.5-4.2 3.9-3.7 4.3.2.2.5-.1 1.9-1.5.9-.9 1.9-1.8 2.2-2l.6-.4-.1.6c-.9 5-1.3 8.4-1.5 12.1l-.1 1.9 1.1.4c5.1 1.8 8.3-.7 10.9-8.2 1.4-4.1 2.4-5 4-3.4.9 1 1.2 1.9 1.6 6.4.7 7.8 2 11.1 5 13.5 4.3 3.4 9 2.8 10.6-1.3 5.1-13.2 4.8-21-1.2-31.3-1.3-2.2-1.3-2.2-2.9-1.4-2.7 1.4-5.4 5.1-7.5 10.3-.6 1.5-.7 1.7-1.1 1.5-.3-.1-.3-.5.4-2.1 2.4-5.9 5.4-9.7 8.6-10.9l.9-.4-.4-.7c-.4-.9-.7-.9-2-.3-3.1 1.5-6.6 5.2-8.4 8.9-.6 1.1-.8 1.3-1.1.9-.4-.5 1.5-3.8 3.5-6 1.8-2.1 4.8-4.3 6.5-4.8.7-.2.9-.3.8-.5-.1-.1-.3-.9-.6-1.7-.6-1.7-.6-1.7-2.1-.9-1 .5-4.2 3.7-5.3 5.3-.8 1.3-1.3 1.6-1.5 1-.5-1.3 6.1-7.7 7.9-7.7.2 0 .2-.2.1-.8-.1-.4-.1-.9-.1-1.1 0-.5-1.5 0-3 1-.5.3-1-.2-.5-.7.4-.5 2.1-1.3 2.9-1.4.6-.1.7-.2.7-.7 0-.3.1-.6.2-.7.2-.1 2.2 1.5 3.3 2.6.7.6 2.9 3.8 3.4 4.9 1 2.1 2.4-2.2 2.7-8.4.3-5.5.4-5.2-2.8-8.9-.9-1-1.9-2.4-2.3-2.9-.4-.6-.7-1.1-.7-1.1s-.2.1-.3.3c-.7 1-1 1.3-1.3 1-.4-.3-.4-.4.4-1.4l.7-.9-.3-.6-.4-1.1-.2-.5-1 1.1c-1 1.1-1.3 1.3-1.6.9-.2-.2 0-.4.6-1 .4-.4 1-1.1 1.3-1.5l.5-.7-.1-2-.1-2-.8 1.5c-1.1 2-2.6 4.1-2.9 4.1-.5-.1-.3-.6.8-2.2.6-.9 1.5-2.5 2-3.5l.9-1.8.1-2.2.1-2.2-.3.5c-.2.3-1 1.6-1.8 2.9-1.9 3.2-4.4 6.9-4.8 7-.7.1-.7-.3 0-1.2 2.1-2.9 5.4-8.2 6.6-10.7.4-.8.9-3.2.7-3.4 0 0-.3.5-.6 1.1-2.6 5.3-9.3 14.6-10 14-.4-.3-.3-.4 1.5-2.7 3.1-3.9 6.2-8.7 8.4-13.1 1.1-2.2 1.5-3.8 1.5-5.7 0-.1-.6.9-1.4 2.1-3.6 6-8.3 12.4-12.8 17.2-1.6 1.7-1.7 1.8-2 1.3-.1-.3.1-.6 1.2-1.8 4.6-5.1 9.4-11.5 12.8-17.3 2.2-3.7 2.2-3.7 2.5-5.7.2-1.1.3-2.1.4-2.4.1-.3-.4.5-1.1 1.7-4.2 7.9-12.8 18.9-13.4 17.3-.1-.2.6-1 2-2.5 7.6-8.4 14.7-21.1 14.6-26.3 0-.1-.7 1-1.5 2.6-2.7 5.3-7.6 12.3-8.4 12-.5-.1-.2-.8 1.2-2.5 5.2-6.5 9.1-14.2 9.4-18.3l.1-1.1-1.5 2.7c-3.2 6-4.7 8.1-5 7.2 0-.1.6-1.3 1.4-2.6 3.9-6.5 5.4-9.6 5.3-11.5V277l-.5 1.2c-1.3 3.2-2.6 5.6-2.9 5.6-.6 0-.5-.5.5-2.6.6-1.2 1.5-3.2 2-4.5l.9-2.3-.2-2.6c-.4-6.5-1.2-11.4-3-18.6-4.5-17.8-8.8-25.8-14-25.8h-1.5s.4-.7.8-1.6c3.3-6.3 3.5-14.6.7-23.3-4.9-14.8-17-24.6-41.2-33.4-6.3-2.3-8.5-3.2-11.7-4.6-1.2-.6-2.4-1-2.5-1-.1 0-1.4-.6-2.8-1.2-1.4-.7-2.5-1.2-2.6-1.2 0-.4-.1-.3-.3-.2m-12.1 2.8c-3 5.5-9.3 9-21.4 12-1.9.5-5 1.3-7 1.8-4.2 1.2-6.9 1.7-9.4 2-10.3 1-18.2 4.6-23.5 10.7-1.8 2.1-2 2.1-.6.2 4.8-6.8 8.4-8.6 25.3-12.7 24.4-5.8 25.3-6.1 32.5-11.7 2.5-1.9 4.2-3.1 4.4-3.1.1 0 0 .4-.3.8m-225.5.6c-.2.2-.4.6-.6 1l-.3.6h1c1 0 1.1 0 1.7.6l.7.6.5-.9c.6-1.1.6-1 0-1.5-1.1-.9-2.5-1-3-.4m248.9 4.7c9.4 5.6 10.7 8 7.1 13-1.2 1.7-1.7 2.9-1.5 3.9.1.8 0 .8-.4 0-.8-1.5-.6-2.4 1-4.9 1.5-2.3.7-4.4-2.7-7.1-2.4-1.9-4-3.4-5.6-5.2-2.1-2.4-2.1-2.4-1.2-1.7.5.3 2 1.2 3.3 2m-249.6-2.3c-.4 0-.6.2-.8.5-.4.7-.3.8.4.9.7.1 2.1.8 2.3 1.1.2.3.3.2.6-.4.4-.9-.7-2.3-1.8-2.2-.1 0-.4.1-.7.1m-1.9 3.1c-.4 1-.5 1 .5 1.2.5.1 1.2.5 1.6.8l.7.5.4-.9c.4-1.1.4-1.1 0-1.6-1.3-1-2.7-1.1-3.2 0m-.7 2.1c-.2.2-.6 1.2-.6 1.4 0 .1.1.1.3.1.5 0 1.6.7 2.1 1.3l.5.7.4-.9c.5-1.2-.1-2.2-1.5-2.5-.3-.1-.6-.1-.8-.2s-.4 0-.4.1m264.2 2.8c1.6 1.4 1.6 5.7 0 7.5-.8.9-1 .2-.4-1.1 1-2 .7-5.1-.5-5.8-.5-.3-.6-.7-.4-.9.2-.2.9 0 1.3.3m-2.2 0c1.4.9 1.8 4.5.6 5-.5.2-.8-.3-.5-.9.5-1 .2-2.6-.6-3.3-.8-.7-.4-1.4.5-.8m-155.2 5.8c.2.2.4 1 .5 1.7.1.7.7 2.6 1.2 4.3l1 3-.6-.3c-.3-.2-.7-.4-.8-.6-.5-.6-2.3-7.3-2.5-8.9l-.1-1.1.4.7c.4.5.7 1 .9 1.2m3.7 4.9c.1.8.4 2.1.7 3 .5 1.7.4 2-.3 1.5-.3-.2-1.7-4.2-2.3-6.2l-.4-1.5 1 .9 1 .9.3 1.4m141-1.5c3.9 1.1 2.5 7.1-2.2 9.5-.8.4-1.2.6-1 .4 2.1-1.5 2.9-2.5 3.2-4 .5-2.4-.9-5.2-2.9-5.6-.4-.1-.5-.2-.3-.3.3-.2 2.4-.2 3.2 0M191 185.4c.9.5 1 .7 1.3 1.7.2.6.6 1.7.9 2.4.3.8.5 1.3.3 1.3-.1 0-.7-.1-1.3-.3l-1.1-.3-.3-.9c-.6-1.7-1.2-4.6-1-4.5.2 0 .6.3 1.2.6m136.3-.2c2.5 1.3 2.7 4.7.4 6.7-1 .9-2.7 2-2.2 1.4 2.5-2.9.8-7.9-2.7-7.9-.6 0-.3-.3.5-.4.4-.1.9-.1 1-.2.4-.2 2.4.1 3 .4m30.8.2c-.1.1-.1.2 0 .3 0 .1 0 .3-.2.5-.5.6-.1 1.3.6 1.1.6-.2.6-1.9 0-2-.1-.1-.3 0-.4.1m-163.3 2.1c.8.4 1.5.8 1.6 1 0 .1.3.9.6 1.8s.5 1.6.5 1.6c-.2.2-2.5-.8-2.7-1.1-.2-.5-1.6-3.8-1.6-3.9-.1-.2.1-.2 1.6.6m4 1.8c1 .4 1.1.5 1.2 1 .1.3.4 1.1.7 1.7l.5 1.2c-1.1 0-2.5-.8-2.9-1.7-.6-1.4-1-2.8-.8-2.7.1 0 .7.3 1.3.5m4 1.6l1.6.6.3.9c.2.5.4 1.2.6 1.6.4.8.5.8-1.3.3l-1.5-.5-.8-1.5c-.7-1.4-.9-2.1-.6-2 0 0 .8.3 1.7.6m4.5 1.5c1.4.4 1.7.6 1.9 1 .1.3.5.9.9 1.5l.6 1c0 .1-2.2-.4-3.4-.8-.6-.2-1.4-1.3-1.9-2.9 0-.4-.1-.4 1.9.2m7.4 3.2c.5 1 .5 1.1-1.1.9-1.2-.2-1.4-.2-1.8-.7-.6-.7-1.5-2-1.5-2.2 0-.1.9.2 2 .6l2 .7.4.7m3.8.7c.9.4.8.4-.8.4h-1.4l-.3-.5c-.7-1.1-.3-1 2.5.1m14.7 6.3c1.3.5 1.6.5 3.6.5s2.2 0 2.2.3c0 1-4.4.7-7-.4-1.2-.5-1.5-1.6-.4-1.1.1.2.9.4 1.6.7m-4 .7c1.1 1.7 6.4 3 10.4 2.5 2.6-.3 2.9-.3 2.9.1 0 1.4-8.9 1-11.9-.5-1.1-.6-2.3-1.7-2.3-2.2-.1-.5.5-.4.9.1m29.7.5c.3.2 1.3 1.1 2.2 1.9 3.9 3.6 8.2 5.7 13.2 6.4 1.3.2 1.3.2 1.3.6 0 .5-.7.5-3.2 0-4.5-1-8.4-3.1-12-6.4-1-.9-2-1.8-2.4-1.9-.6-.3-.8-.7-.5-1 .2-.2.7 0 1.4.4m-3.2 1.2c1.4.7 1.8 1 4.3 3.5 5.1 5 7.9 6.3 16 7.7 3.4.6 3.3.6 3.3.9 0 .5-.2.5-2.9.1-8.8-1.5-11.9-2.9-17.3-8.2-3-2.9-4.3-3.7-6.2-3.9-1-.1-1.4-.3-1.3-.8.4-.5 2.3-.2 4.1.7m-27 2c3.3 1.9 7.7 2.9 11.5 2.4 2.7-.3 2.7-.3 2.8.1.2 1.2-7.2 1.2-10.9 0-2.7-.9-5.6-2.5-5.6-3.1 0-.4.3-.5.8-.2.3.1.9.5 1.4.8m132.2 15.9c-.8 1.6-2.5 3.9-3.8 5.3l-1.4 1.4-2.2.7c-3.7 1.2-7.3 1.7-13.2 1.9l-2.7.1-1.6-.7c-.9-.4-1.7-.7-1.7-.7h3c8.5 0 17.5-3.2 23-8.1 1-.9 1.1-.9.6.1m-132.4.1c2.4.6 5.6 3.3 4.5 3.7-.2.1-.6-.3-1.3-.8-1.7-1.6-4-2.4-6-2.2-.9.1-1.3 0-1.3-.5s2.6-.6 4.1-.2m-7.4 2.2c-1 .1-.9.4.3.5 5.5.5 8.6 1.8 12.4 5 1.5 1.2 2.2 1.6 2.9 1.6.7 0 .7-.2-.6-1.2-5.1-4.4-10.6-6.5-15-5.9m132.3 6.3c-3 2.5-6.8 3.2-11.6 2-1.7-.4-1.7-.6-.1-.6 2.9 0 7.9-.7 10.5-1.4 1.8-.5 1.8-.5 1.2 0m-149.6.9c-16 1.3-32.2 7.4-50.2 18.9-10.2 6.5-14.3 14.3-15.2 28.9-.3 5.4-.4 23.8-.1 26.1 1.2 9.2 4.6 15 8.9 15.4l1.1.1-.1-.6c-.3-1.8-.8-5.8-.9-7.7l-.1-2.1.5-.5c.4-.4.6-.5 1.1-.4 1.3.3 1.5.6 2.7 4.3 2.5 7.5 5.7 13.9 9.1 18.6 1.8 2.5 2.1 2.8 1.3 1.2-4-7.6-8.7-21.7-7.2-21.5.3 0 .4.3 1.1 2.7 2 7.9 5.5 16.4 9.3 22.4.7 1.1 1.9 2.3 3.7 3.6.9.7 1 .7.6.2-3.6-5.5-8-15.8-7.1-16.7.4-.4.6-.1 1.2 1.9 2.2 7.5 6.8 15.6 9.7 17.3.8.4 1.4.8 1.5.8.1 0-.3-.8-.9-1.9-2.1-4-4.8-11.1-4.4-11.5.4-.4.7.1 1.3 1.8 1.9 6 5.1 12.3 6.7 13.1l.8.5-.7-1.5c-1.2-2.6-2-6.6-1.4-6.8.4-.2.6.1.8 1.7.4 2.3 1.7 5.8 2.6 7.1.2.3 3.3 1.9 3.4 1.8.1-.1-1-3.6-1.4-4.8-.4-.9-.3-1.2.3-1.1.3.1 1.1 2 1.9 4.9l.5 1.7 1.6.7c1.9.8 1.7.9 1.4-.4-.3-1.3-.5-4.2-.3-4.3.5-.3.6.1.8 1.8.4 3.2.6 3.9 1.6 4.3 1.6.7 1.6.7 1.1-.4-.7-1.4-1-3-.7-3.3.3-.3.8-.1.8.3 0 .6.8 2.8 1.4 3.7.5.8.6.9 2 1.3 1.7.6 1.7.6 1.4-.9-.4-2.4.4-2.4.9 0 .3 1.6.4 1.7.8 1.8.9.3 4.3 1.1 4.4 1.1.1 0 0-.4-.2-.9-.5-1.5-.4-2.7.3-2.6.3.1.3.3.4 1.3.2 2.1.7 2.5 3.3 3 1 .2 1.9.3 2.1.4.3.1.4 0 .5-.3.1-.6 1.1-1.6 1.5-1.6.6 0 .6.5 0 1-1.1 1-.4 1.3 2.8 1.3h1.2l1.3-1.3c1.3-1.3 1.8-1.6 2-1.1.1.2-.1.5-.6 1l-1.2 1.2-.4.5 3-.1 3-.1.7-.8c.4-.4.9-1.2 1.2-1.7.5-1 .9-1.2 1.1-.7.1.3-.3 1.2-1 2.2-.6.9-.6.9 0 .8.3 0 1.2-.2 2.1-.3 2.1-.3 1.9-.1 3.8-2.6 1.6-2.2 1.9-2.4 2.2-1.9.2.2-.1.6-1.2 2.1-.8 1-1.4 1.9-1.4 1.9.1.1 5-1 5.5-1.2 1.3-.6 4.1-3.5 5.5-5.6.6-1 1.1-1.2 1.2-.6.1.4-1.4 2.5-2.9 4.1-.8.8-1.3 1.5-1.2 1.5.4 0 5.8-1.7 6.2-2 2.3-1.5 4.8-4.9 5.9-7.9.5-1.4.6-1.5 1-1.3.9.3-1.4 5.1-3.6 7.4-.5.5-.8 1-.8 1 .4 0 3.9-1.6 3.9-1.7 0-.1.6-.7 1.4-1.4 3.3-2.9 6.2-6.9 7.8-10.5.4-.9.6-1.2.8-1.2 1.5 0-2.4 6.6-6.3 10.6l-1.7 1.7 2.5-1.3 2.5-1.3 2.6-3.5c4.3-5.8 6.2-8.8 7.8-12.5.7-1.7 1-2.2 1.3-2.2 1.4 0-2.4 7.2-7.5 14.1-2.1 2.8-2.1 2.7-1.2 2.2 6.5-4.1 11.2-10.7 15.9-22.5 3.5-8.8 5.2-11.5 9.6-16.1 3.1-3.2 9.1-8.4 9.6-8.3.7.1.3.7-1.8 2.5-9.7 8.2-12.2 11.5-16.4 22.2-2.7 6.8-5.3 11.6-8 15.1-.5.6-.8 1.1-.8 1.1.2.2 4.8-4.8 5.8-6.3 2.5-3.7 3-3.8 4.6-1.2 3.8 5.9 9.7 7 17.3 3.5 3-1.4 6.8-3.8 7.5-4.8 1.6-2.1 2-3 2.3-5 .2-1.2.3-1.5.8-1.3.5.2.1 2.9-.7 4.4-.2.5-.4.8-.3.8.1 0 2.2-1.5 2.3-1.7.3-.5 1.2-3 1.5-4.4.4-1.5.7-2 1.1-1.4.2.3-.4 2.7-1.1 4.6 0 .1.3-.1.8-.4 1.7-1.3 3-4.7 3.7-9.4.1-.8.2-.9.5-.9.7 0 .4 3.1-.7 6.2l-.6 1.7.9-1c4.4-4.8 5.8-12.6 3.5-20.1-.3-.9-.2-1.2.4-1.1.6.1 1.4 3.7 1.5 6.8.2 3.5.4 1.4.4-3.7 0-7.5-.8-11.7-3.2-17.4l-1-2.3-.2.7c-.6 2.4-5.5 6-11.3 8.5-1.9.8-1.9.8-1.2-.2 1.4-2 4.9-6.4 6.1-7.7 1.8-2 3.3-4.1 4-5.8.2-.4 0-.3-.7.5-3.7 4.2-7.2 7.5-9.5 8.9-1.2.8-1.5 0-.3-.9 4.8-3.3 10.4-9.5 11.8-13 .6-1.4.5-1.4-.7.1-2.3 2.9-9.1 8.8-9.9 8.5-.5-.2-.2-.7.8-1.4 4.3-3.1 8.1-6.9 9.9-9.8.4-.7.5-3.4.1-2.8-1.4 2.2-8.2 9.4-8.9 9.4-.8 0-.4-.6 2.8-3.8 4.3-4.3 6.1-6.8 6.1-8.2v-.6l-1 1.4c-2 2.7-6.7 7-7.4 6.7-.5-.2-.2-.7.8-1.4 2.2-1.5 5.4-5 7-7.5.5-.8.6-1.1.7-2.5.1-.9.2-1.9.3-2.2.6-1.4-1.4.5-3.7 3.6-4.9 6.4-13.2 10-19.3 8.4-1.1-.3-1.1-.3-.8.4.5 1 .8 2.4.5 2.7-.3.3-.7 0-.8-.8-.3-1.7-1.2-2.9-2.6-3.8-.6-.3-1.3-.7-1.5-.9l-.5-.3.7 1.5c1.1 2.3 1.9 4.8 1.7 5.1-.4.5-.7.1-1.2-1.4-.7-2-2.7-6.1-3.4-6.8-.9-.9-3.7-3.4-3.6-3.2 0 .1.4.8.8 1.5 2.1 4.1 4.3 11.1 3.5 11.4-.4.2-.6-.1-.9-1.5-1.5-6.6-4.5-12.6-8.4-16.4a80.84 80.84 0 0 0-24.6-16.2c-.9-.3-2-1-3-1.8-4.5-3.4-11.6-6.8-17.5-8.6-3-.9-3.7-.8-5.5.8-.7.6-.7.6-1 .3-.4-.4-.2-.7 1.1-1.6l1-.7-.7-.1c-1.6-.2-4.3 1.6-5.9 4-.7 1-1.2 1.2-1.3.6-.1-.7 2.3-3.4 3.9-4.4.9-.5.8-.6-.4-.8-1.8-.2-2.7.6-6.9 6-2.7 3.4-3.3 4.1-3.3 3.2 0-.6 5.1-7.1 6.7-8.6l.9-.9-.5-.1c-.3-.1-.7-.1-.9-.1-.5 0-2.4 1.5-3.6 2.9-.6.7-1 1-1.2.9-.5-.2-.3-.7 1.3-2.3l1.6-1.6h-1.6c-1.8 0-2.6.3-3.4 1.2-.4.5-.9.4-.9 0 0-.1.2-.5.4-.7l.4-.5h-1.8c-.8.2-2.3.3-3.3.4m42.7 1.4c1.9 3.2 4.5 4.9 10.4 7 4.6 1.6 6.2 2.3 10.2 4.8 7.3 4.5 13.6 6.9 21.9 8.1 2.4.4 7.5.7 8.6.6 5-.5 5.2-.6 1.2-.9-14.3-.9-17.9-1.7-26.5-6-7.2-3.6-24.4-12.8-25.8-13.8l-.4-.3.4.5m107.7 11.3c1.3.5 2.9 2 3.7 3.4.4.8.1 1.3-2.1 3.7-1.7 1.8-3.1 3.6-2.9 3.8 0 0 .7-.4 1.5-1 4-3 8.6-4.5 14.1-4.5 3.4 0 4.9.2 3.5.5-5.4 1-10.5 6.5-14.7 15.8-.9 2-.9 2.1-.3 1.2 2.7-4 7.4-6.2 15.6-7.2 4.9-.6 5-.6 2.7 0-9.7 2.8-15.8 8.2-17.3 15.5-.3 1.6-.3 1.6.5.6 1.8-2.2 5.9-4.3 8-4.1.9.1 1.5 2 2 7 .1 1.4.4 3.7.7 5.1 1.7 11 .2 18.5-4.8 23.8-4.7 4.9-11.8 5.8-16.5 2.3-.4-.3-.8-.5-.8-.4 0 .3 1.8 6.1 2.2 7.2.6 1.6.2.9-1.5-2.5-2-4.1-5-11.4-5-12.2 0 0 .6.5 1.4 1.2 2.5 2.4 6.3 4.8 6.9 4.4.4-.3.3-.4-1-1.1-4.2-2.3-7.7-5.8-8.5-8.3l-.4-1.4 1.3 1.4c2.7 2.9 7.3 5.8 7.3 4.6 0-.2-.3-.5-.9-.8-3.9-1.9-8.1-6.3-8.7-9-.2-.7-.3-1.4-.4-1.6 0-.1.3.3.8 1 1.4 2 4.4 4.8 5.1 4.8.6 0 .3-.7-.8-1.5-2.7-2.1-5.5-6.2-5.8-8.6l-.1-.7.4.5c.8 1.1 3.1 3.2 3.4 3.2.6 0 .4-.6-.5-1.3-1.9-1.6-3.7-4.4-4-6.2-.3-2.1-.3-2.2.7-.8 1.1 1.6 1.3 1.8 1.7 1.8.5 0 .3-.5-.6-1.8-1.1-1.4-2-3.2-2.3-4.5-.6-2.4-.2-15.8.5-21.6.9-7.2 10.1-14 15.9-11.7m-42.9 13.5c-1.6.3-4.7.6-5.6.5-.8-.1-1 0-2.7.8-1 .5-2.2 1-2.5 1.2l-.7.3.5.2c2.4.8 8.1.1 10.2-1.2.4-.3 2.2-2.1 1.9-2-.1 0-.6.1-1.1.2m-14.5 4.2c-1.9 1-1.9 1-.9 1.4 1.6.7 2.9.9 5.6.8l2.5-.1 1.1-.6c2.1-1.2 3.2-2 2.5-1.9-2.8.5-5.2.5-7.4 0-.6-.1-1.3-.3-1.5-.3-.3 0-1.1.3-1.9.7m-3 2.1c-.7 1.3 1 2.8 3.1 2.8.7 0 2.7-.6 4-1.2l.8-.4-1.7-.1c-2-.1-3.3-.4-4.8-1.1-1.2-.6-1.1-.6-1.4 0m-93.6 14.5c.1.1.1.6-.1 1.6-1.5 6.4-1.8 12.3-.8 14.6 1.4 3.1 1.3 6.6-.3 10.7-.3.8-.5 1.5-.5 1.5.1 0-.2.4-.5.7-3 3.3-3.9 7.4-3.2 14.5.3 2.7.2 3-.2 3s-.5-.6-.7-3.1c-.4-5.1 0-8.9 1.3-11.8l.6-1.4h-.5c-1.6 0-2.7 4-2.7 9.8 0 4.1 0 4.1-.3 4.1-1.4-.2-.7-9.7.9-12.9.7-1.3.7-1.4.4-1.6-.4-.3-1 1-1.5 2.9-.4 1.7-.4 1.7-.7 1.7-.2 0-.3-.1-.4-.2-.1-.9.4-2.7 1.1-4.3l.6-1.2-.3-1c-.3-1.2-.2-1.3.4-.7 1 .9 2.8.5 3.4-.7.4-.7.3-1-.2-.9-2.3.4-4.4-2.8-3.3-5.2.8-2 3.2-2.5 4.4-.9l.4.5-.1-2.2c-.1-1.2-.2-2.6-.3-3.2-.5-3.2-.3-8.5.3-8.6.4-.1.4-.1.4 1.3 0 .7.1.4.4-1.4 1-5 1.4-6.3 2-5.6m-4.3 11.8c0 .4.1 1.2.2 1.7.3 1 .2 1.2-.2 1.2-.6 0-1.2-3.2-.7-3.7.4-.3.8.1.7.8m95.9 12.1c.1.2-.5.9-1.6 2-9.5 9.8-14 18.7-12.2 23.7.3.9 0 1.5-.5 1-1.3-1.3-1-5.9.6-9.5 2.4-5.7 13-19 13.7-17.2m.9 2.6c.1.2-.6 1-2 2.5-9.7 9.9-13 19.3-8.5 24.1.5.5.7.9.7 1.1-.2.5-.7.3-1.5-.6-4.7-5.3-1.4-15.1 8.6-25.3 1.9-1.9 2.4-2.3 2.7-1.8m26.6 11c.6 2.5-.6 4.7-5.4 9.5-8.5 8.5-14.8 12.2-25.7 15.1-8.3 2.2-10.2 3-20 8.2-10.6 5.7-19.7 9.2-30.2 11.7-34.3 8.1-63.1-1.7-93.7-31.9-5.4-5.3-6.5-6.8-7.1-9.9-.3-1.5-.2-1.4-.9-.9-4.2 3.3-.4 14.7 10.4 31.5.7 1-.4-.2-5.6-6.4-3.1-3.7-5.8-6.7-5.8-6.7-.6.4-1.3 4.6-1 6.8.5 4.6 2.2 8.1 9 18.6 4.8 7.5 5.6 8.9 11.2 20.2 5.6 11.6 6.3 12.7 7.7 13.6 2.8 1.8 6.7 1.7 7.8-.2.3-.6-2.8-4.7-7.8-10.6-2.7-3.2-4.3-5.3-5.4-7.4-1.3-2.4-1.3-2.6 0-1.4 1.5 1.4 3.2 2.6 6.8 5.1 4.2 2.8 5.9 4.1 7.9 6 1.7 1.6 1.7 1.6 2.7 1.7 3.6.4 3.9-1.1 1.4-5.7-2-3.7-4.3-6.1-11.2-11.8-4.4-3.7-6.1-5.3-7.2-6.8-2.3-3.2-1.7-4.8.8-2.3 1.3 1.3 3.1 2.4 5.7 3.5 5.2 2.2 6.3 3 10 6.9 3.7 3.9 6.9 6.3 13.7 10.4 8 4.8 11.6 8.7 13.3 14.7l.4 1.4h4.2l-.1-1.6c-.3-3.9-2.2-9.1-5.5-14.6-1.5-2.6-1.7-3.2-1-4.1 1.3-1.6 3.6-.4 6.6 3.4 3.5 4.4 5.6 10.8 5 15.5l-.2 1.4h5.4l1.4-1.1c5.9-4.6 5.6-9-1.3-14.9-3.2-2.8-4-4.2-3.1-5.6 1.5-2.4 8.1 1.1 10.6 5.5.1.3.2.3.6.1 1.1-.6 1.4-2.2.8-4.7-.5-2.5-.3-3.6.8-4.5 1.5-1.1 2.3-.4 3.3 2.6 1.6 4.9 2.2 8.6 2.5 14.8.2 4.9 1.3 6.8 3.7 6.8 2.4 0 7.9-6.3 10.9-12.4 2.1-4.4 3.1-5.5 5.4-6.2 2.9-.8 4.9 2 3.7 5.1-.6 1.7-6.3 7.7-11.1 11.7-1.1.9-2.2 1.9-2.5 2.2l-.2.8h10l1.5-.9c4.9-2.9 6.3-4.5 8.4-9.3 2-4.7 3.5-6.3 4.6-5 1 1.3.4 3.4-2.4 8-1.6 2.7-2.1 3.8-2.3 5.5-.3 1.8-.4 1.7 3.4 1.7h3.2l.8-.8c1.7-1.7 2.1-2.8 4.4-10.1.9-2.9 2.3-7.2 3.1-9.5.8-2.3 1.9-6 2.6-8.2 1.2-4.2 2.1-6.8 2.8-8.4l.4-1c-.3-.3-6.8 2.8-12.3 5.9-4.1 2.4-9.9 5.3-10.8 5.6-.5.1 2.3-2.8 4.6-4.7 5.1-4.4 10.1-7.3 17.3-10.2 2.3-.9 2.7-1.2 5-2.7 4.5-3 12.6-6.3 19-7.7 6.5-1.4 8.8-2.3 11.2-4.1 3-2.3 6.1-8.3 6.4-12.4l.1-1.4-1.3 1.1c-4.2 3.6-9.9 6.7-15.3 8.5-1.9.6-4.5 1.2-4.2.9 0 0 1.1-.6 2.2-1.3 10-5.6 15.9-9.8 18-13 2.3-3.5 1.7-8.3-1.3-10.1-1-.5-1-.5-.8.5m38.1 27c-.8 2.5-2.2 6.4-4.6 12.6-4.1 10.6-5.6 15.2-6.8 20.8-.4 2.1-1.3 7-1.3 7.5 0 .2.5-.6 1.1-1.7 1.3-2.4 3.1-5.3 6-9.4l2.1-3.1 1.1-4.2c2.3-9.1 3.2-14.6 3-18.5-.1-1.5-.1-3.3-.1-4v-1.2c-.1 0-.3.5-.5 1.2m-45.9 7.9c-.9.3-1.8.6-2 .7-1.2.8-3.5 4.3-4.2 6.6-.3.9-.8 1.2-1 .6-.2-.5 1.4-4 2.4-5.4.8-1.1.8-1.1-1-.2-1.1.5-1.8 1.1-2 1.4-.9 1.3-2.1 4.7-2.7 8.1-.1.4-.4.5-.7.1-.4-.4.6-4.2 1.6-6.6l.3-.8-.5.3c-2.1 1.3-4.1 6.7-4.1 11.3 0 .9-.3 1.3-.8.9-.5-.5.3-5.4 1.2-8.2l.5-1.4-.6.5c-1.4 1.1-1.5 1.4-2.9 5.4-2.1 6.2-2.6 10-2 13.2.4 2.1.4 2.6 0 2.6-.9.2-1.5-5.2-.9-8.7.4-2.1 1-4.4 1.8-7 .8-2.6.8-2.6 0-1.6-2 2.4-4.1 9.7-4.9 16.8-.3 2.6-.5 8.8-.4 8.8.4 0 7.4-4.2 10.7-6.5 4.5-3.1 7.1-3.7 7.6-1.9.2.6.2.7-.4 6.8-.6 6.5 2.2 8.9 10.4 8.7 5.4-.2 11.7-2.9 11.7-5 0-4.5-2.9-13.2-6.2-18.7-1-1.6-1.9-3.2-2.2-3.6-.4-.7-.4-.7-1.2-.6-3.7.4-6.5 5.1-7 11.5-.1 2.1-.3 2.4-.8 2.2-.3-.1-.3-.3-.2-1.9.4-6.9 3.4-12 7.5-12.6l.7-.1-.3-.5c-.3-.6-1.2-.7-2.7-.2-3.8 1.1-6.3 4.5-6.8 9.1-.2 1.5-.3 1.9-.8 1.7-.7-.3.1-4.3 1.2-6.6 1.3-2.7 4.3-4.9 7-5.4 1.3-.2 1.3-.2.9-.9-.4-.6-.5-.6-2.3-.2-3.1.8-5.9 3-7.4 6-.4.8-.7 1.2-.9 1.2-.5 0-.5-.5.2-1.8 1.7-3.2 5.1-5.8 8.7-6.5l1-.2-.3-.6c-.4-.9-.4-.9-1.9-.4-2.6.8-4.7 2.2-6.7 4.2-.9 1-1.2 1.1-1.4 1-1-.9 4.1-4.8 7.8-6.1.7-.2 1.4-.5 1.4-.5.1-.1-.6-1.7-.8-1.7-.6-.2-3.5 1.8-4.9 3.3-1.4 1.6-2.1 1.2-.8-.5 1-1.2 2.8-2.6 4.2-3.3.7-.3 1.2-.6 1.2-.7l-.2-.8-.2-.7-1.2.6c-.6.3-1.6 1-2.1 1.5-1 .9-1.3 1.1-1.5.6-.2-.4 2-2.4 3.4-3l1.2-.6-.1-.8c-.1-.5-.1-1.3-.1-1.8v-1l-.5.3c-1 .6-3.1 2.5-4.1 3.8-.9 1.2-1.4 1.5-1.7 1.1-.3-.4 2.6-3.7 4.6-5.2 1.3-.7 1.2-.7-.8-.1m-176.9 11c-1 .5-1.2 1-1.2 3v1.7l-.9 2c-4.7 10.6-7 19.9-7 28.4v2h3l.2-.5c.1-.3.7-1.9 1.3-3.5 2.8-7.8 5.1-9.2 9-5.4l1.2 1.2v-5.8c0-6 .2-8.2.9-12.8.5-3 .1-4.1-.5-1.5-.9 3.8-1.2 7.1-1.2 13.4 0 4.5 0 4.9-.3 5-1.5.6-.7-14.2 1-20.3l.4-1.3-.7-2c-.9-3.4-2.8-4.8-5.2-3.6m155.1 6.1c-2.4 3.2-2.9 5.9-3.1 16.1l-.1 5.3.6-.3.6-.3.1-2.1c.4-9.2 1.1-13.7 2.7-18.6.4-1.1.6-2 .6-2s-.6.9-1.4 1.9m-147.5 4.3c-.7 3-1.2 11.7-1 16.6l.2 3.2.5.5c.7.6.7.7.5-1.7-.3-4.3-.2-11 .4-15.5.2-1.9-.3-4.4-.6-3.1m143.5 1.8c-.9 1.5-1 1.9-1.4 6.1-.4 3.6-.5 10.4-.3 10.4.1 0 .5-.2.9-.3l.7-.3v-4.4c0-4.6.2-8.3.7-11 .3-2.1.3-2.1-.6-.5m-142 1.4c-.3.9-.5 5.7-.5 9.5 0 6.8.3 9.3 1.2 9.3 0 0 .1-2.1.1-4.8 0-3.1.1-6 .3-8.2l.3-3.4-.7-1.4c-.4-.8-.6-1.2-.7-1m139 4.2c-1.2 2.6-1.5 4.3-1.5 9.1 0 3.3-.1 3.2 1 2.7l.8-.4.1-4.7c.1-2.6.2-5.5.3-6.4.2-2.2.2-2.3-.7-.3m-136.8.4c-.2.6-.5 6.9-.4 10.8l.1 4.2.7.4.7.4v-4c0-3 .1-4.7.3-6.4l.3-2.3-.7-1.6c-.6-1-1-1.6-1-1.5m2.2 5.7c-.3 2-.5 6.4-.3 8.4l.1 2.2.9.5.9.5.1-3.9.1-3.9-.7-2.2c-1-2.6-1-2.5-1.1-1.6m131.6 2.4c-.4 1.6-.8 4.7-.8 4.8.1.1 1.1-.5 1.2-.7 0-.1.1-1.5 0-3v-2.8l-.4 1.7m-129.3 6.8v2.6l.7.3c.9.4.8.5.8-.7 0-1-1.1-4.8-1.4-4.8 0 0-.1 1.2-.1 2.6"/></svg>