<?xml version="1.0" encoding="utf-8"?>
<!-- Generator: Adobe Illustrator 22.1.0, SVG Export Plug-In . SVG Version: 6.00 Build 0)  -->
<svg version="1.1" id="svg" xmlns="http://www.w3.org/2000/svg" xmlns:xlink="http://www.w3.org/1999/xlink" x="0px" y="0px"
	 viewBox="0 0 410 410" style="enable-background:new 0 0 410 410;" xml:space="preserve">
<g id="svgg">
	<path id="path0" d="M306.5,13c-2.7,1.1-4.4,2-6.9,3.4c-1,0.6-3,1.6-4.3,2.3c-2.8,1.4-5.6,3.2-8.6,5.5c-1.1,0.9-2.1,1.6-2.3,1.7
		c-0.5,0.3,1.1-2.8,2.6-5.1c0.8-1.2,0.8-1.3,0.6-1.6c-0.5-0.5-3,3.4-4.6,7.5c-0.2,0.5-2.5,2.4-3,2.5c0,0,0.1-0.8,0.4-1.8
		c0.6-2.3,0.6-3.1,0.1-3c-0.3,0-0.4,0.3-0.6,1.5c-0.7,3.3-1.1,4.2-2.2,5.1c-2.1,1.6-4.6,4.9-3.9,4.9c0.1,0,1-0.1,2-0.2
		c4.3-0.4,6.8,0.8,9.7,4.6c0.7,1,0.9,1.1,1,0.8c0.3-0.5,1.3-4.2,1.7-6.4c1.4-6.8,4.3-10,12.6-14.2c2-1,4-2.1,4.6-2.4
		c1.3-0.8,1.9-0.8,2.7,0c0.8,0.8,0.8,0.9-1,5.5c-2.4,6.2-2.8,6.8-5.5,8.1c-0.8,0.4-2,1-2.7,1.3c-3.4,1.6-4.2,3.9-1.8,5.5
		c2.2,1.5,2.1,2.2-0.7,4c-2.9,1.9-2.8,1.7-1.6,1.6c2-0.2,5.2-1.6,6.6-3c0.8-0.7,0.6-1.1-1.5-3.4c-1.1-1.2-2-2.2-2-2.3
		c0-0.4,3.8-2.4,7.1-3.7l1.8-0.7l0.1-1.1c0.1-1.4,0.7-2.7,2.1-5.5c3.7-7.1,1.6-10-6.1-8.4c-0.6,0.1,2.3-1.3,4.5-2.3
		c2.1-0.9,2.2-1,2.1-1.4C309.1,11.9,309,11.9,306.5,13 M291.2,24.2c0,0.2-0.2,0.4-0.4,0.5c-1.3,0.5-3.3,3.1-4,5.1
		c-0.8,2.2-1.3,3.1-2.4,3.9c-0.9,0.6-1.6,0.2-1-0.5c0.1-0.1-0.1-0.2-0.9-0.1c-0.9,0.1-1.2,0-1.8-0.3c-1.4-0.7-1-1.5,0.4-0.8
		c1.3,0.6,4.4-0.3,4.4-1.3c0-0.2-0.1-0.2-0.5,0c-1.4,0.6-3.4,0.5-3.3-0.1c0-0.3,0.2-0.4,1.4-0.5c1.4-0.1,2.8-0.6,3-1.2
		c0.1-0.3,0-0.3-0.5-0.1c-1.2,0.4-2.1,0.2-2-0.4c0-0.2,0.3-0.3,1-0.4c1.3-0.2,2.1-0.5,2.5-1C288.6,24.8,291.2,23,291.2,24.2
		 M237.9,34c-2.4,0.4-5,1.5-5,2.2c0,0.6,0.8,1.6,1.7,2c0.8,0.4,1.1,0.8,0.6,1c-0.7,0.3-2.5-1-2.9-2.1c-0.3-0.6-0.3-0.6-1,0.1
		c-1.3,1.4,0.7,3,5.8,4.7c1.5,0.5,1.9,0.7,1.9,0.9c0,1.3-7.7-1.9-8.6-3.6c-0.4-0.7-0.4-0.7-1.1,0.1l-0.6,0.7l0.7,0.6
		c2.7,2.4,7.8,4.2,12.5,4.5c2.1,0.1,2.1,0.1,2.1,0.5V46l-1.8,0c-4.5-0.1-10.7-2.2-13.3-4.5l-0.9-0.8l-0.5,0.4
		c-0.6,0.5-0.5,0.7,0.9,2c2.9,2.8,5.7,4.2,7.9,4.2c0.8,0,1.2,0.4,0.9,0.8c-0.2,0.2-0.4,0.2-1.2,0.2c-2.9-0.3-5.7-2-8.6-5l-1.1-1.2
		l-0.7,0.4c-0.4,0.2-0.7,0.5-0.7,0.6c0,0.7,2.8,3,4.5,3.7c0.3,0.1,0.5,0.3,0.5,0.5c0,1.4-4.4-1.4-5.7-3.6c-0.1-0.2-0.3-0.2-1.6,0.7
		c-2.2,1.5-2.9,2.2-3.8,3.4c-1,1.5-1,1.7-0.1,1.3c2-0.7,3.8,0,5.4,2.1c1.7,2.2,2.7,2.6,7.4,2.9c10.4,0.5,12.3,5,5.2,12.3
		c-2.2,2.3-2.9,3.2-4.4,5.4c-2.8,4.2-4.5,5.8-8.2,7.9c-6.5,3.6-7.8,6.1-5.8,11.5l0.5,1.5l0.1-1.9c0.3-4.1,0.6-6.5,1-6.5
		c0.5,0,0.5,0.4,0.2,2.7c-0.2,1.3-0.3,3.5-0.4,4.9l-0.1,2.6l0.7,1.4c0.4,0.8,0.8,1.8,1,2.2c0.3,0.8,0.3,0.6,0.3-4.8
		c0-5.1,0-5.6,0.3-5.9c0.6-0.6,0.7-0.1,0.6,5.5c0,9.1,0.2,11,1.7,14.7l0.4,1l-0.1-6c-0.1-6.3,0-7.3,0.5-7.3c0.3,0,0.3,0.2,0.4,6.7
		c0.1,8.8,0.2,9.1,1.1,11.4l0.8,1.8l0.1-5.2c0.1-5.3,0.2-5.6,0.7-5.5c0.1,0,0.2,2.5,0.3,6.9l0.1,6.8l0.6,1.5
		c0.7,1.8,0.8,1.8,0.8,0.1c0-2,0.6-7.5,1.1-9.5c0.1-0.3,0.2-0.4,0.5-0.3c0.5,0.1,0.5,0.1,0,3.4c-1.2,8.3-0.8,14.9,1,17
		c1.1,1.2,2.4,1.6,6.5,1.6l2.6,0l0.1-1.2c0.1-0.6,0.1-2.3,0.1-3.7c0-1.4,0-2.5,0-2.5c0.1,0,1.5,3.3,2.6,6.1c1.6,4.3,3.4,7.4,5.6,9.5
		l0.9,0.9l-0.6-1.3c-1.5-3.2-2.2-6.8-1.4-6.6c0.3,0,0.4,0.2,0.7,1.5c1,4.6,2.7,7.7,5.1,8.9c0.8,0.4,1.5,0.8,1.6,0.8
		s-0.2-0.4-0.5-0.9c-1.1-1.7-2.4-5.1-2.2-5.7c0.2-0.5,0.8-0.3,0.9,0.5c0.8,3.3,2.9,6.6,4.3,6.9c1,0.2,1,0.2,0.4-0.6
		c-0.6-0.8-1.2-2.4-1.2-3.1c0-0.7,0.8-0.6,0.9,0.2c0.5,2.5,2,4,4,4h1.5l0-0.8c-0.1-1.3-0.5-2.3-1.3-3.2c-0.9-1-0.8-1,0.7-0.4
		c2.6,0.9,4.6,2.2,6.8,4.3c13.7,13.4,25.9,16.5,41.1,10.4c10.3-4.1,19-8.8,20.7-11c2.3-3.1,1.9-8-1-9.9c-0.8-0.5-0.8-0.6-0.7,1.4
		c0.2,5.4-2.8,8-10.7,9.5c-8.6,1.6-12.3,1.4-16.8-0.8c-2.6-1.3-3-1.4-6.2-1.4c-7.4,0-11.4-1.9-14.3-6.7c-1.9-3.2-2.9-4-5.1-4.4
		c-1.8-0.4-6.5-0.6-9.4-0.5l-2.7,0.1l1-0.4c4.3-1.8,7.2-6.1,7.3-10.8c0-1.5,0.1-2.3,0.4-3.2c0.6-2,0.2-1.9-3,0.3
		c-5.4,3.7-8.7,3.7-14.4,0.1c-7-4.5-9.3-7.2-10.8-12.5c-0.6-2-0.5-2.1,0.4-0.8c0.4,0.6,1.2,1.4,1.7,1.8c0.6,0.5,1.1,1,1.4,1.6
		c0.5,0.9,4.1,4.6,7.3,7.5c0.8,0.7,1.3,0.8,1.3,0.3c0-0.1-1.7-1.8-3.7-3.8c-3.8-3.7-4.4-4.3-3.6-4.1c0.2,0.1,0.9,0.2,1.6,0.2
		l1.2,0.1l2.5,2.3c5,4.7,8.9,7.6,10.1,7.4c0.7-0.1,0.4-0.5-0.9-1.2c-2.3-1.2-4.6-3.1-8.7-6.9l-1.8-1.7l1.3-0.3l1.3-0.3l1.6,1.5
		c6.1,5.5,9.6,8.1,10.6,7.7c0.6-0.2,0.2-0.6-1.1-1.2c-1.7-0.8-3.7-2.4-8.5-6.8c-1.9-1.7-1.9-1.6-0.2-2.1c1.3-0.4,1.3-0.4,1.5-0.1
		c2.6,3.7,10.6,9.2,11.7,8.1c0.3-0.3,0-0.7-0.8-0.9c-1.9-0.5-5.9-3.2-8.5-5.8c-2-2-2-2.1-0.9-2.5l0.8-0.3l0.5,0.6
		c1.9,2.2,5.1,4.6,8.1,6c2.3,1,2.3,1.1,2.5,0.8c0.3-0.3,0.2-0.4-2.6-1.8c-2.8-1.4-4-2.2-6.3-4.4l-1.5-1.5l1.3-0.4
		c1.6-0.6,1.4-0.6,2.5,0.6c2.1,2.5,6.6,5.4,6.8,4.3c0-0.3-0.2-0.5-1.2-1c-1.7-0.9-3-1.8-4.4-3.4c-1.4-1.5-1.4-1.4,0-1.9l1.2-0.4
		l1.4,1.4c1.5,1.5,3.4,2.9,3.8,2.8c0.3-0.1,0.3-0.8,0.1-0.8c-0.3,0-2.3-1.6-3.3-2.7l-1-1.1l1.1-0.4c1.4-0.5,1.5-0.5,2.1,0
		c1.4,1,2.7,1.4,2.7,0.7c0-0.2-0.2-0.4-0.7-0.5c-0.8-0.3-1.8-1-1.4-1c0.2,0,0.9-0.2,1.5-0.5c1-0.4,1.3-0.5,1.6-0.3
		c0.5,0.3,0.8,0.1,0.8-0.4c0-0.3,0.1-0.5,0.6-0.9c1.2-1.1,1.8-3.2,1.1-4.2c-1-1.5-4.4-1.4-10.8,0.4c-7.1,2-15.5,0.9-17.1-2.2
		c-1.3-2.6-3.5,1.4-2.2,4.1c1.6,3.3,7.5,4.3,13.2,2.2c1.3-0.5,1.3-0.3-0.2,0.9c-4.5,3.6-11,2.8-14.2-1.7c-1.7-2.3-2.1-4.3-1.7-7.9
		c0.2-1.8-0.3-2.3-1.4-1.3c-0.5,0.5-0.6,0.5-1.1,0.3c-0.3-0.1-1.2-0.3-2.1-0.4c-4.6-0.5-6.9-4.7-5-9.2c0.4-0.9,0.7-1.4,0.9-1.5
		c0.5-0.1,0.5,0.4-0.1,1.8c-0.7,1.7-0.8,3.7-0.3,4.5c0.5,1,0.5,0.9,1.3,0.7c0.9-0.3,0.9-0.4,0.6-1c-0.7-1.4-0.2-4.2,1.2-5.8
		c0.7-0.8,1.2-0.1,0.5,0.8c-1,1.4-1.4,3.3-0.9,4.6c0.3,0.8,0,0.8,2.6-0.2c8.2-3.1,12.3-3.4,20.9-1.4c4.7,1,8.3,1.6,10.7,1.6
		c1.6,0,5.7-5,5.7-7c0-0.4,0.4-0.8,0.7-0.7c0.9,0.4-1.1,4.5-3.2,6.8l-0.9,1h1.5c2.5,0,4.4-2.3,5.2-6.2c0.2-1.2,0.3-1.4,0.6-1.4
		c1.1,0-0.2,4.3-2,6.5l-0.8,0.9l0.6-0.1c3.3-0.5,4.4-1.8,4.9-5.8c0.2-1.3,0.2-1.5,0.5-1.5c0.8,0,0.4,2.9-0.6,5
		c-0.6,1.2-0.6,1.2,0.7,0.5c1.3-0.8,1.9-1.3,2.1-2c0.3-0.9,0.4-3.4,0.2-4.2c-0.2-0.8-0.1-1.1,0.4-1c0.4,0.1,0.6,0.8,0.6,2.7
		c0,1.9,0.1,1.9,1-0.1c1.2-2.5,0.6-5.8-1.4-8.1l-0.9-1l-0.2,0.9c-1.1,4.2-6.5,4.9-18.5,2.3c-14.2-3.1-21.2-2.6-27.2,1.7
		c-1,0.8-1.5,0.8-1.5,0.2c0-0.7,4.5-3.1,7.1-3.8c5.5-1.6,10.9-1.4,21.1,0.9c7,1.5,7.5,1.6,10.6,1.6c5,0,7.6-1.2,7.6-3.6
		c0-0.9-0.1-1.1-2-3.1c-0.7-0.7-2.5-2.9-4.1-4.7c-3.4-4-4.2-4.7-5.4-4.2c-1.3,0.5-1.2,1.7,0.4,5c1.9,4,1.9,4.3,0.2,3.8
		c-2.2-0.6-2.7-1-2.8-1.9c-0.1-0.5-0.3-1.5-0.6-2.3c-1.7-4.7-1.2-7,1.5-7.7c2.4-0.6,4.7,0.9,7.8,5.2c2.6,3.7,4.7,5.5,9.1,8
		c2.1,1.2,2.3,1.2,2.2,0.6c-0.9-4.3-2.2-7-4.6-9.9c-1.9-2.3-2.3-3-2.4-4c-0.4-4.7,3.7-0.5,15.3,15.8c1.5,2.1,2.1,2.8,3.1,3.6
		c1.7,1.4,2.8,2.4,3.3,3.1c0.3,0.4,0.5,0.5,0.5,0.4c0-0.1,0.2-0.5,0.5-0.8l0.5-0.5l0-2.9c0-1.6-0.1-3.2-0.1-3.6c0-0.6,0-0.7,0.3-0.7
		c0.5-0.1,0.8,1.6,0.8,4.5l0,2.1l0.9-0.4c0.9-0.4,0.9-0.4,1-1.3c0.3-2.7-0.5-5.9-2.1-8.3c-0.8-1.1-0.4-2,0.5-1
		c1.4,1.8,2.5,5.2,2.5,7.9v1.7l0.5-0.4c4.1-2.9-0.6-11.3-9.3-16.2c-4.4-2.5-31.1-15.3-34.9-16.7c-3-1.1-8.5-2.6-8.8-2.3
		c-0.1,0.1,1.7,0.9,2,0.9c0.4,0,0.6,0.5,0.3,0.8c-0.4,0.4-2.2-0.3-3.7-1.5c-0.7-0.5-2.2-0.9-3.4-0.9c-0.1,0,1,0.7,2.3,1.5
		c1.8,1.1,2.4,1.5,2.4,1.8c0,0.6-0.6,0.4-3.8-1.6c-3.9-2.4-6.2-3.2-3.2-1.1c0.7,0.5,1.1,0.9,1.1,1.1c-0.1,0.5-0.6,0.4-1.9-0.5
		c-2.9-2-4.5-2.5-9.8-3.4C243.7,33.9,239.3,33.8,237.9,34 M202.9,43.3c0,0.2,1.2,1.8,2.7,3.7c1.5,1.9,2.7,3.4,2.7,3.4
		s-1.3-0.3-2.8-0.8c-2.8-0.8-3.2-0.8-2.4-0.3c0.7,0.5,2.9,2.6,3.2,3.2c0.3,0.5,0.4,0.5,0.5,0.3c0.3-0.5,0.8-1.1,1.1-1.1
		c0.4,0,0.4,0.5,0.1,1c-0.6,0.8-0.6,1.4-0.1,2.3l0.5,0.8l0.2-0.6c0.4-1.2,0.9-2,1.2-2c0.5,0,0.6,0.3,0.1,1.2
		c-0.8,1.4-0.9,2.5-0.3,3.4c0.9,1.3,1,1.3,1.1,0.1c0.1-1.2,0.8-3,1.2-3c0.6,0,0.6,0.4,0.1,1.3c-0.6,1.3-0.7,3.5,0,4l0.4,0.3l0.1-1.4
		c0.1-1.5,0.3-2.2,0.7-2.4c0.5-0.2,0.6,0.2,0.3,1.2c-0.5,1.6-0.3,2.9,0.3,3.1c0.4,0.2,0.5,0.6,0.1,0.8c-1.1,0.7-4.2-2.1-6.5-5.9
		c-3.1-5.1-4.5-6.4-9.7-8.4c-6.2-2.4-12.5-2.7-15.2-0.7c-2.1,1.5-1.8,3,1.4,5.8c4.7,4.2,7,7.5,9.7,13.9c2.8,6.6,5.3,8.5,10.3,7.4
		c0.5-0.1,1-0.2,1.2-0.3c0.2-0.1,0.7-0.3,1.2-0.5l0.9-0.3l0-1.1c0-0.8,0.1-1.2,0.4-1.6c0.4-0.6,0.5-0.9,0.1-1.1
		c-0.6-0.2-1.4,1.4-1.4,2.8V73l-0.6-0.1l-0.6-0.1v-1.7c0-1.6,0-1.7,0.6-2.9c0.6-1.1,0.6-1.3,0.4-1.5c-0.7-0.7-1.8,1.9-1.8,4.5l0,1.9
		l-0.8,0c-2,0-1.6-5.2,0.5-7.8c0.6-0.7,0.6-1.2,0.2-1.2c-1.5,0-3.2,5-2.7,7.8c0.2,1.1,0.3,1-0.8,0.6l-0.9-0.4l-0.2-1.2
		c-0.5-3,0.1-5.7,1.7-8.1c0.8-1.2,0.9-1.5,0.6-1.7c-1.1-0.7-3.2,4.7-3.2,8l0,2l-0.6-0.7c-2.7-3.1-2.5-6.7,0.8-10.2
		c0.6-0.6,1-1.2,1-1.3c-0.6-1-3.3,2.3-4.1,5.1l-0.4,1.4l-0.5-1.1c-0.8-1.6-0.3-3.3,1.4-5.5c0.7-0.9,0.8-1,0.5-1.2
		c-0.5-0.5-2,1.4-2.7,3.3c-0.4,1.1-0.4,1.1-1.1,0.1c-0.9-1.3-0.8-1.9,0.5-3.6c0.3-0.5,0.3-0.8-0.2-0.8c-0.4,0-1.3,1.2-1.4,1.9
		c-0.1,0.7-0.1,0.7-0.7,0c-0.5-0.6-0.5-1.1-0.1-1.8c0.3-0.5,0.2-0.9-0.3-0.9c-0.2,0-0.4,0.2-0.6,0.6l-0.3,0.6l-0.4-0.4
		c-0.4-0.3-0.4-0.5-0.3-1.2c0.1-0.9-0.3-1.1-0.8-0.5c-0.2,0.3-0.2,0.3-0.7-0.1c-0.3-0.3-0.4-0.5-0.3-0.6c0.6-0.3,0-1.2-0.5-0.9
		c-0.2,0.1-0.6-0.1-1.7-1.1c-0.8-0.7-1.8-1.6-2.3-2.1l-0.9-0.7l1.2-0.1c0.7-0.1,2-0.2,2.9-0.4c8.9-1.4,12.7,0.5,19.5,9.4
		c4.5,6,6,7.1,9.5,7.3c5.6,0.4,2.1,8.2-5,11.2c-1,0.4-1,0.4-0.3,1.8l0.3,0.8l1.3-0.5c3.3-1.2,7.2-5.3,8.6-9.3
		c0.5-1.4,1.2-1.7,1.1-0.6c-0.1,2.9-5.5,9.2-9.1,10.6l-1.4,0.5l0.4,0.3c1.1,0.7,2.2,0.7,4.1-0.3c6.2-3,9.2-8.5,9.2-16.4
		c0-6.9-1.6-9.4-7.5-11.4l-2-0.7l-1.1-2.2c-0.6-1.2-1.4-3-1.7-3.9c-0.5-1.4-0.7-1.7-0.9-1.7c-0.7,0,0.2,2.8,1.8,6.1
		c0.4,0.8,0.7,1.5,0.6,1.5c-0.2,0-1-0.2-2.8-0.7c-0.5-0.1-1-0.7-3.8-4.1C203.7,43.1,202.9,42.4,202.9,43.3 M29.5,60
		c-0.9,1-0.8,1.9,0.5,4.7c1.4,2.9,0.9,3.5-1.3,1.6c-1.2-1-1.1-0.9-1.2-0.4c-0.1,0.2-0.6,1-1.3,1.7c-1.9,2.1-1.8,2.6,0.6,5
		c1.8,1.7,3.7,3.1,6.5,4.6c2.6,1.3,4.9,3.3,3.8,3.3c-0.9,0-5.1-1.8-8-3.4c-3.9-2.2-5.2-1.2-5.5,3.9c-0.1,2.2-0.1,2.2,2,3.1l1.7,0.7
		L26,84.8c-2.2,0.2-2.3,0.3-2.3,1.4c0,1.5,0.5,2.1,3.2,3.6c2.1,1.2,3.9,2.4,7,4.6c5.1,3.7,6.9,4.5,14.8,6.8c9.2,2.7,11.8,4.1,15,7.8
		c1.7,2,4.5,3.9,7.8,5.2c6.1,2.4,8.2,1,11.5-7.5c1.8-4.6,3.3-6.8,5.9-8.9l0.4-0.3l-0.4-0.2c-1.2-0.6-3.7,2.6-7.1,9.1
		c-2.6,5-5.2,8.2-5.6,7.1c-0.1-0.2,0.3-0.6,0.9-1.3c1.4-1.6,2.5-3.4,4.5-7.2c2.1-4.1,3-5.5,4.8-7.2l1.3-1.3l-0.5-0.2
		c-1.2-0.6-3,1.1-6.1,5.8c-2.6,3.9-3.9,5.5-4.4,5.3c-0.5-0.2-0.3-0.5,0.7-1.8c0.6-0.7,1.7-2.2,2.5-3.5c2-3,3.4-4.8,4.5-5.8
		c1.1-1,1.1-0.9,0.4-1.2c-1.3-0.5-5.3,3.3-6.8,6.6c-0.3,0.7-0.5,0.9-0.8,0.9c-1.5,0,2.3-5.5,5.3-7.6c0.8-0.6,0.8-0.6-0.3-1l-1-0.4
		l-0.7,0.4c-0.4,0.2-1,0.9-1.3,1.4c-0.5,0.7-0.8,1-0.9,0.9c-0.6-0.2,0-1.5,1.2-2.6c0.7-0.6,0.7-0.6-0.6-1.2
		c-0.6-0.3-1.4-0.8-1.8-1.1l-0.8-0.7l-0.7,0.3c-3,1.1-6.5,1.2-9.7,0.1c-1.7-0.6-3.8-1.7-3.9-2.2c-0.1-0.4,0.4-0.5,0.9-0.2
		c3.7,2.4,8.5,2.9,12.4,1.4l0.4-0.2l-0.3-0.7c-0.2-0.4-0.3-0.8-0.3-0.9c0-0.1-0.2-0.1-0.8,0c-1.1,0.2-2.5,0.1-2.7-0.1
		c-0.4-0.4,0-0.7,1-0.7c1.7,0,2.1-0.1,1.9-0.6c-0.5-1.9-1.4-3-4.5-5.2c-4.3-3-5.8-3.3-10.9-1.8c-1.5,0.4-0.4,3.2,1.2,3.2
		c0.3,0,0.4,0.3,0.3,0.6c-0.5,1.3-3.1-1-3.1-2.7v-0.7h-1.2c-0.7,0-1.4-0.1-1.7-0.2c-1.6-0.6,1.1,3.8,3,5c1.1,0.7,1.4,1.2,0.8,1.4
		c-1.2,0.4-4.5-3.5-5.1-6c-0.2-0.9-0.3-1-1.1-1.4c-1.2-0.7-2.8-1.9-5.3-4.1c-1.2-1-3.4-2.8-4.8-3.8c-4.2-3.1-7.1-6.2-9.3-9.8
		C31.4,59.3,30.5,58.9,29.5,60 M306.5,76.4c-0.3,0.8-0.1,2.1,0.8,4.2c0.8,2,1.2,4.2,0.8,4.2c-0.9,0-2.5-2.6-2.9-4.6
		c-1-4.8-4.6-3.8-4.6,1.3c0,3.3,1.1,5.3,2.9,5.3l0.6,0l-0.8,0.7c-0.4,0.4-2,1.7-3.6,2.9c-6.8,5.4-8.1,7.8-8.6,15.5
		c-0.5,7.5,0.5,9.6,4,8.1c4.4-1.9,8.5-1.4,13.3,1.4c7.1,4.2,12.9,3.1,18.1-3.7c2.3-3,2.5-7.1,0.4-8.4c-0.9-0.6-0.9-0.6-0.4,0.6
		c1,1.9,0.6,3.1-1.4,5.1c-4.1,3.9-9.1,5-16.1,3.7c-4.7-0.9-6.1-1.1-8.4-1.1c-2.3,0-4.5,0.4-5.6,0.9c-1.2,0.6-1.3,0.5-0.5-0.6
		c2.1-3.1,3.4-3.2,13-1.8c11.2,1.7,16.6,0.1,17.4-5.2c0.3-1.8-0.7-2.6-1.3-1c-2.1,5.8-6.6,7.2-14,4.2c-1.8-0.7-2.8-1-4.7-1.3
		c-6.6-1.1-9.8-3.6-9.8-7.3c0-4.4,6.2-9.5,10.5-8.7c1.4,0.3,0.9,0.8-1.8,2.5c-3.6,2.1-4.8,3.7-4.8,5.9c0,2.1,1.3,3.2,3.6,3.2
		c1.2,0,2.7,0.2,3.3,0.4c0.2,0.1,0.2-0.1-0.2-0.7c-0.9-1.4-0.8-2.7,0.2-3.3c0.6-0.3,5.8-0.3,7,0.1c2.8,0.8,3.1,2.4,1.6,6.7
		c-0.9,2.6-0.9,2.7,1.1,2.1c6.9-2.2,11.3-12.4,7.4-17c-1.7-1.9-5.2-2.2-7.9-0.6c-1,0.6-1.4,0.6-1.5,0.2c-0.1-0.5,2.7-2,3.8-2
		c0.2,0,0.3-0.1,0.2-0.3c-0.1-0.1-0.1-0.3-0.1-0.3c0-0.5-2.8,0.2-3.9,1c-0.8,0.6-1.4,0.6-1.4,0.1c0-0.5,2.2-1.7,3.3-1.9
		c1-0.2,1.1-0.2,0.7-0.5c-0.5-0.4-2.4,0.1-4.5,1.1c-1.4,0.7-1.7,0.8-1.9,0.6c-0.4-0.4,1-1.4,3.1-2.2l0.6-0.2l-0.7,0
		c-1.2,0-1.4-0.4-1.3-2c0.2-2.5-0.1-3.9-1.3-5.7C309,76.2,306.9,75.3,306.5,76.4 M64.9,81c0.5,0.5,0,0.8-0.9,0.6
		c-0.8-0.2-1.2-0.1-1.2,0.3c0,0.2,0.8,0.6,3.7,1.8c3.8,1.6,4.3,1.7,4.5,1.3c0.1-0.3,0.8-0.3,0.9,0c0.4,1.1-1.4,1.3-3.5,0.5
		c-6.5-2.7-6.6-2.7-6.6-3.6C61.8,80.7,64,80.1,64.9,81 M235.7,83.4c0,1.8,0.3,2.5,1.2,3.3c0.5,0.5,0.6,0.6,0.4,0.8
		c-0.8,0.9-2.3-1.3-2.5-3.5c-0.1-1.7,0-2.3,0.5-2.2C235.6,81.9,235.7,81.9,235.7,83.4 M206.7,82.2c-1.1,1.1-2.5,5.3-3.5,10.3
		c-1.1,5.5-1.4,6.4-3.7,13.6c-4.2,12.5-5.5,19.7-7.9,43.6c-1.2,11.6-1.2,11.1,0.2,11.7c0.7,0.3,0.5,1.8-0.4,3.2
		c-0.6,0.9-0.1,1.5,0.6,0.7c0.5-0.6,1.1-2.1,1.1-2.6c0-0.8,0.2-0.8,1.3-0.1c0.7,0.5,1,0.8,1.1,1c0.1,1.5-0.4,2.7-1.6,3.9
		c-0.5,0.5-0.8,0.9-0.7,1c0.6,1,2.8-1.7,3.1-3.6c0.1-0.9,0.1-0.9,1-0.1c0.4,0.4,1,0.9,1.5,1.3l0.8,0.6l-0.1,1
		c-0.1,1.3-0.7,2.7-1.6,3.5c-0.4,0.4-0.7,0.8-0.6,1c0.3,1.4,2.7-1.6,3.1-3.9l0.2-1l1.4,0.9l1.4,0.9l-0.1,0.8
		c-0.3,1.9-0.8,3.3-1.7,4.2c-0.6,0.6-0.6,1.1-0.1,1.1c0.9,0,2.5-3.1,2.5-4.9c0-0.9,0.2-0.8,2.6,1.1c1.2,0.9,1.2,1.1,0.8,2.6
		c-0.4,1.3-0.8,2.1-1.7,3c-0.8,0.8-0.9,1.3-0.3,1.3c0.8,0,2.5-2.7,2.9-4.9l0.1-0.5l1,0.8c0.6,0.4,1.4,1,1.7,1.3
		c0.9,0.6,0.7,2.3-0.5,3.9c-0.4,0.5-0.4,0.9-0.1,1c0.5,0.2,1.7-1.9,1.9-3.3c0-0.4,0.1-0.7,0.1-0.7s0.5,0.2,1.1,0.5
		c0.6,0.3,1.5,0.6,2.1,0.8c1.4,0.4,1.5,1.4,0.2,4.1c-0.5,1.2-0.5,1.6,0.1,1.4c0.5-0.2,1.6-3.1,1.6-4.4c0-0.7,0-0.7,2.4-0.2l1.9,0.3
		l-0.3,1.2c-0.2,0.6-0.6,1.8-0.9,2.5c-0.6,1.3-0.6,1.8-0.1,1.8c0.3,0,1.3-2,1.8-3.8c0.5-1.7,0.3-1.6,1.6-1.3
		c2.6,0.6,3.2,0.9,3.2,1.6c0,1.2-0.6,2.7-1.8,4.3c-0.3,0.4-0.2,0.7,0.3,0.7c0.7,0,2.3-3.3,2.3-4.7c0-0.3,0.1-0.5,0.1-0.5
		c0.5,0,3.4,1.9,3.4,2.2c0,0.1-0.1,1-0.3,1.9c-0.4,2.1-0.4,2.5-0.1,2.6c0.4,0.1,0.5-0.1,0.8-2c0.2-1,0.3-1.7,0.4-1.7
		c0.3,0,2.2,2.4,2.1,2.7c-0.3,1-0.3,2.3,0.1,2.3c0.3,0,0.4-0.2,0.6-0.6c0.2-0.5,0.2-0.6,0.4-0.3c0.8,1.6,1.7,4.6,1.7,6l0,0.8
		l0.1-0.7c0.8-3.6,0.2-12.5-1-15.9c-0.5-1.4-0.6-1.2-0.7,2.1c-0.1,2.4-0.2,2.9-0.4,3.1c-0.6,0.5-0.7,0-0.5-4l0.2-3.8l-0.4-0.7
		c-0.2-0.4-0.8-1.2-1.3-1.8l-1-1.2l0,2.9c0,2.9,0,2.9-0.4,2.8c-0.4-0.1-0.4-0.1-0.4-3.3l0-3.3l-2.1-2.1l-2.1-2.1l0,3.9
		c0,4,0,4.2-0.5,3.9c-0.4-0.3-0.6-2.6-0.5-6l0.1-2.7l-1.3-1.5c-0.7-0.8-1.5-1.9-1.9-2.3c-0.3-0.4-0.6-0.8-0.7-0.8
		c-0.2,0-0.3,3.4-0.3,7.3c0,4-0.1,4.4-0.8,3.8c-0.3-0.2-0.2-7.9,0.1-11l0.1-1.3l-1.3-2c-0.7-1.1-1.6-2.5-1.9-3.1
		c-0.5-0.9-0.6-1-0.7-0.8c-0.1,0.4-0.5,9.6-0.5,14.3c0,3,0,3.2-0.4,3.2c-0.4,0-0.5-12-0.1-16.8l0.2-2.5l-1.4-2.9
		c-0.8-1.6-1.4-2.7-1.4-2.6c0,0.2-0.1,1.9-0.3,3.9c-0.3,5-0.6,11-0.6,14.7c0,3.3-0.1,3.9-0.8,3.3c-0.4-0.4,0-12.9,0.7-21.4l0.2-2.7
		l-0.8-2.1c-0.4-1.1-1-2.7-1.3-3.5l-0.5-1.4l-0.1,0.8c-1.1,6.7-1.7,14.8-1.9,22.5c-0.1,5-0.2,5.4-0.8,4.8
		c-0.7-0.7,0.4-17.7,1.8-26.8l0.5-3.3l-0.7-3c-0.6-2.6-1.2-5.4-1.7-8.5l-0.1-0.8l-0.1,1.2c-0.9,9.5-1.5,19.9-2,36.7
		c0,1.1-0.1,1.2-0.5,1.2h-0.4l0-3.1c0.2-10.8,0.9-23.7,2.1-36.2c0.3-3.3,0.3-4.1,0.2-6.2c-0.1-1.3-0.2-3.3-0.3-4.4l-0.1-2l-0.5,2.2
		c-2.5,12-4.4,28.5-4.8,41c-0.1,3.9-0.3,4.6-0.9,4c-0.2-0.2-0.2-0.8-0.1-4.7c0.6-14.9,2.4-29,5.2-42.4c0.8-3.7,0.9-4.3,1-7.2
		c0.1-2.7,0.2-3.7,0.8-6.7c1.4-7.4,1.9-12.2,1.2-13.5C207.9,81.9,207.1,81.8,206.7,82.2 M233.9,86.1c0.1,1.5,0.6,2.3,1.9,3.2
		c0.4,0.3,0.2,0.8-0.2,0.8c-1.4,0-3.3-4.1-2.4-5.1C233.6,84.7,233.8,85.1,233.9,86.1 M261.9,88.4c-1.8,0.4-2.4,2.3-1.2,3.6
		c1.6,1.8,4.8-0.1,4.1-2.5C264.6,88.5,263.5,88.1,261.9,88.4 M113.3,93c-1.2,0.5-1.8,0.9-3.6,2.6c-0.9,0.8-1.9,1.7-2.4,1.9l-0.8,0.4
		l0.8,0.8c1.2,1.1,1.6,1.8,1.3,2.2c-0.2,0.2-0.4,0.1-1.6-1.1c-1-1-1.4-1.4-1.8-1.4c-0.6,0-0.6,0.2,0,0.5c0.6,0.3,2.2,2.2,2.2,2.5
		c-0.1,0.6-0.6,0.3-1.6-0.7c-1.6-1.7-2-1.9-4.7-1.5c-4.7,0.6-5.1,1.1-5.2,8.9l-0.1,5l0.6,0c1.6,0,4.6,2.5,3.8,3.2
		c-0.2,0.2-0.4,0-1.2-0.8c-1.7-1.7-3.3-2.1-3.6-0.9c-0.3,0.8-1.2,1.8-3.1,3.2c-4.5,3.3-7.4,8.2-5.9,9.7c1.4,1.4,7.4-1.8,10-5.2
		l0.7-1L97,122c-0.5,3.2-1.8,5-5,6.6c-1.5,0.8-1.4,0.9,0.5,0.8c2.7-0.2,7.4-2.9,9-5.2c1.6-2.4,2.9-5.3,3.2-7.5
		c0.3-2.1,1.6-9.7,1.7-10.4c0.1-0.3,0.2-0.4,1.2-0.5c1.4-0.1,1.5-0.4,1.1-1.5c-0.2-0.6-0.2-0.8,0-1c0.4-0.5,1.1,0.5,1.1,1.7
		c0,0.7-0.1,0.6,1.5,0.2c0.7-0.2,0.8-0.9,0.4-2.4c-0.3-0.9-0.2-1.4,0.2-1.4c0.3,0,0.7,0.9,1,2.3c0.1,0.7,0.3,1,0.4,1
		c0.1,0,0.5-0.2,0.9-0.3c1.1-0.3,1.3-1.9,0.4-3.9c-0.3-0.6-0.1-1,0.3-1c0.3,0,0.9,1.8,1,3c0.1,0.6,0.2,1.1,0.2,1.1
		c0.3,0,2.1-1,2.1-1.2c0-0.5-0.5-1.9-1.1-2.8c-0.6-0.9-0.6-1-0.3-1.3c0.5-0.5,1.7,1.2,2.1,3l0.2,0.8l0.8-0.5l0.8-0.5l-0.1-0.9
		c-0.1-1-0.6-2.1-1-2.4c-0.3-0.3-0.4-0.8,0-0.9c0.6-0.2,1.5,1.1,1.9,2.7l0.2,0.9l0.6-0.8c1.1-1.4,1.2-2.5,0.4-3.8
		C121.1,93.5,116,91.9,113.3,93 M326.5,93.5c-0.1,0.1-0.1,0.7-0.1,1.3c0,1.5-0.4,3.4-0.9,4.7c-0.6,1.4-0.3,1.3,1.9-0.2
		c2.5-1.9,2.9-2.5,2.3-3.5C329.1,94.8,326.9,93.2,326.5,93.5 M131.3,95.6c-0.4,0.3-1.8,1.5-3.1,2.8c-3.4,3.3-5.7,5-8.4,6.4
		c-0.9,0.5-0.9,0.6,0.1,0.8c1.7,0.5,4.3,2.3,3.9,2.8c-0.3,0.4-0.4,0.3-1.3-0.4c-1.6-1.3-4.4-2.2-5.2-1.8c-0.3,0.2-0.3,0.2,0.4,0.4
		c2.4,0.6,5.3,3,4.6,3.7c-0.2,0.2-0.4,0.2-1.3-0.7c-2.1-2-4.8-2.8-6.8-2c-2.1,0.8-2.1,0.9-1.6,3.7c0.8,3.8,0.7,4-0.5,6.1
		c-1.2,2.1-1.2,2.3,0.6,3.1l0.8,0.4l-0.8,0.1c-2.2,0.3-6.2,3.4-8.2,6.2c-1,1.5-3.8,6.9-3.7,7.1c0.4,0.4,3.7,0,6-0.7
		c7-2.2,7.2-2.3,9-6.4c1-2.3,1.2-2.3,1.2-0.2c0,1.7-0.5,3.6-1.5,5l-0.7,1l0.5,0.3c4,2.5,7.1-1.4,10.7-13.6c0.7-2.4,0.7-4.6-0.1-6.5
		c-0.2-0.4-0.2-0.6,0-0.7c0.6-0.6,1.3,1,1.5,3c0.1,1.6,0.2,1.6,0.8,1.1c0.7-0.6,0.9-1.6,0.9-4.8c0-2.6,0.1-3,0.6-2.5
		c0.2,0.2,0.3,0.7,0.3,3.1c0,3.2-0.1,3,1.3,1.8l0.8-0.7l0.1-2.8c0.1-2.4,0.1-2.8,0.4-2.9c0.6-0.3,0.7,0.2,0.6,2.7l-0.1,2.3l1.2-0.9
		l1.2-0.9l-0.1-2.8c-0.1-2.5-0.1-2.9,0.2-3.1c0.6-0.5,0.8,0,0.8,2.8c0,1.5,0,2.6,0.1,2.6c0,0,0.5-0.2,1-0.4l0.9-0.4l0.1-1.3
		c0.1-0.7,0-2.1-0.1-3c-0.2-1.8-0.2-2,0.3-2c0.4,0,0.6,1,0.6,3.9v2.3h1h1l0-1.4c0-0.8-0.1-2.6-0.1-4.1c-0.2-4,0.1-3.6-5.2-7
		C132.5,94.9,132.3,94.9,131.3,95.6 M286.1,98.5c-8.2,8.8-9.2,22.8-2.3,33l1,1.5l1.4,0c1.7,0,3-0.4,4.3-1.1c0.8-0.4,1-0.5,1.2-0.3
		c0.7,0.7-2.2,2.1-4.8,2.3l-1.2,0.1l0.4,0.5c0.9,1.2,5.2,0.3,7.8-1.5c0.9-0.6,1.3-0.7,1.3-0.1c0,0.9-3.8,2.7-6.5,3l-1.2,0.1l1,0.9
		c1.2,1,1.5,1,3.4,0.6c2.4-0.5,4.3-1.5,4.9-2.5c0.5-0.9,1.4-0.7,0.9,0.2c-0.8,1.4-2.9,2.6-5.9,3.2l-1.1,0.2l1.1,0.6
		c5.6,3.2,11.9,0.4,11.9-5.4c0-3.5-1.9-5.8-7.2-8.8c-5.8-3.3-7.5-4.9-8.9-8.5c-2-5.2-2.3-14.5-0.5-18.8
		C287.4,97.1,287.4,97.1,286.1,98.5 M89.2,99c-2.3,1.7-3.5,3.6-5.6,8.8c-1.4,3.5-2.2,5-3.5,6.4c-1.2,1.3-1.1,1.4,0.8,0.5
		c2.1-1,2.8-2,3.6-5.3c0.8-3.5,1.7-5.4,4.2-8.7c0.7-0.9,1.3-1.7,1.5-2C90.6,98.1,90.3,98.2,89.2,99 M334.2,100.7
		c-1.7,0.6-1.7,0.5-1.2,3.5c0.5,3.7,0.4,6.4-0.5,10.1c-0.3,1.2-0.3,1.6-0.2,1.8c0.2,0.2,0.1,0.3-0.3,0.7c-0.6,0.6-0.7,0.9-0.2,1.1
		c0.6,0.2,0.4,0.9-0.3,0.9c-0.4,0-0.6,0.1-0.8,0.5l-0.3,0.5l0.5,0.2c0.9,0.3,0.7,0.8-0.3,0.9c-0.6,0-0.9,0.1-1.2,0.4l-0.4,0.4
		l1.2,0.4c1.9,0.6,3.8,2.3,4.8,4.2c0.5,0.9,0.4,0.9,1.2,0.4c0.9-0.7,0.5-2-0.9-3.3c-0.7-0.6-0.7-1.1-0.1-1.1c0.4,0,1.7,1.5,2.1,2.3
		c0.4,0.9,0.7,0.9,1.3,0c0.5-0.7,0.2-1.4-0.7-2.3c-0.6-0.6-0.7-1.1-0.1-1.1c0.2,0,1.5,1.2,1.6,1.5c0.2,0.5,0.3,0.4,0.7-0.4l0.3-0.7
		l-0.6-0.5c-0.6-0.5-0.6-0.6-0.4-0.8c0.3-0.3,0.7-0.3,1,0c0.4,0.4,0.6-0.5,0.5-3.5c0-3.7-0.6-6.4-2-10c-0.4-1-0.8-2.1-0.8-2.5
		c-0.4-2.1-1.7-0.6-1.7,1.8c0,1.2,0.1,1.5,1.2,2.7c1,1.1,1,1.2-0.1,3.5c-1,2-1.1,2.1-1.1,0.4c0-1.2-0.4-2.4-1.1-3.5
		c-0.5-0.7-0.6-1.1-0.7-2.1c-0.1-0.6-0.3-1.7-0.5-2.5c-0.4-1.4-0.3-1.9,0.3-2.3c0.3-0.2,0.3-0.1,0.3,0.3c0,1.2,0.6,1.4,1,0.3
		c0.4-0.9,0.9-1.5,1.3-1.5c0.1,0-0.1-0.2-0.5-0.5C335.5,100.2,335.6,100.2,334.2,100.7 M237.4,100.8c0.2,0.2,0.1,0.4-0.1,1.1
		c-0.1,0.5-0.3,1.2-0.3,1.7c0,0.9-0.3,1.2-0.7,0.7c-0.3-0.3-0.3-0.3-0.1-1.7C236.5,101,236.9,100.3,237.4,100.8 M239.6,103.2
		c-0.2,1.4-0.1,2.7,0.3,3.8c0.4,1.1,0.3,1.5-0.3,1.3c-1.2-0.5-1.4-6.1-0.2-6.1C239.8,102.3,239.8,102.3,239.6,103.2 M242.1,104.1
		c0.4,3.9,1.5,6.5,3.7,9.2c0.9,1.1,1,1.6,0.4,1.6c-0.8,0-3.4-3.9-4.1-6.2c-0.7-2.1-1.2-5.1-0.8-5.4
		C241.7,102.8,242,103.1,242.1,104.1 M245,106.2c0.8,3.4,2.3,6.2,4.8,8.8c1.3,1.4,1.5,1.6,1.2,1.8c-1.4,1.4-8-9.7-7.1-12
		C244.3,104.1,244.7,104.6,245,106.2 M140.6,114.9c0,0.1-0.5,0.9-1.1,1.7c-2.4,3.6-3.9,9.5-2.6,11c1.9,2.4-0.1,2.4-2.1,0l-0.5-0.6
		l0.1-1.9c0.2-3.6,0.7-5.7,1.9-7.5c0.7-1.1,0.7-1,0-1c-3.1,0-6.5,5-7.3,10.7c-0.3,2.3-0.4,5.2-0.2,6.7c0.4,3.4,1.1,4.1,5.1,5.4
		c1.7,0.6,1.8,0.7,0.9,1c-0.9,0.4-1.5,0.3-3.8-0.2c-4-0.9-5.7-0.1-7.4,3.4c-0.8,1.6-0.7,1.6-1.1,0.9c-1.7-3.3-6.9-5.8-13.4-6.5
		c-7.7-0.8-10-0.3-13,2.7c-1.1,1.1-1.6,1.3-1.6,0.6c0-0.3,1.6-1.9,2.7-2.7l0.9-0.7l-0.7-0.1c-0.4-0.1-0.9-0.3-1.1-0.5
		c-0.7-0.7-3-0.5-6.9,0.5c-3.8,1-7,1.2-8.8,0.4c-2.8-1.1-5.4-5.6-6.1-10.3l-0.2-1.6l-0.8,1.1c-1.7,2.4-1.9,3.4-1.1,6.6
		c1.3,4.9,3.9,9.7,7.3,13.3c2.5,2.6,4.3,2.5,8.7-0.3c5.7-3.7,7.3-3.8,7.3-0.5c0,0.3,0.1,0.2,0.6-0.6c3.7-5.7,13.8-6.3,22.1-1.4
		c1.9,1.1,3.8,2.7,3.7,3c-0.1,0.5-0.6,0.4-1.6-0.4c-8.6-7-21.5-6.5-24.2,0.8c-1.1,2.8,1.8,8.1,6.4,12.1c2.9,2.5,4.6,2.7,11.4,1.8
		c4.9-0.6,6-1.2,7.9-3.9c0.6-0.8,1-1,1.2-0.6c0.2,0.4-0.4,1.2-1.6,2.4c-0.6,0.6-1.1,1.2-1,1.2c0.5,0,2.4-1.7,3.3-2.9
		c0.2-0.3,0.4-0.4,0.6-0.3c0.5,0.2,0.3,0.6-0.6,1.8c-0.5,0.6-0.8,1.1-0.7,1.1c3.3,0,5.3-1.2,8.5-5.2c2.6-3.2,2.9-3.4,7-6
		c2.5-1.5,4.5-3.6,5.5-5.9c0.7-1.5,0.6-2-1.2-3.7c-2.7-2.7-3.2-5.3-2-10.8c1-4.5,1-7.1,0.1-12C140.8,115.1,140.6,114.3,140.6,114.9
		 M300.9,115.3c-0.7,0.7-0.6,2.2,0.1,5.6c1,4.5,2.1,6.1,4,5.5c0.8-0.3,0.9-0.5,0.9-2.8c0-2.2,0.3-3.9,1-5.4l0.3-0.7l-1.3-0.1
		c-1.4-0.1-2.5-0.6-3.1-1.4C302.2,115.1,301.4,114.8,300.9,115.3 M144.8,115.3c0,0,0.4,0.6,0.9,1.3c0.5,0.7,0.9,1.3,0.9,1.3
		s0.1,0.1,0.1,0.1c0.2,0,0.6-1,0.5-1.1C146.9,116.8,144.8,115.3,144.8,115.3 M171.2,115.6c-0.3,0.2-1.3,0.9-2.3,1.7
		c-5.6,4.3-11.7,5.3-16.7,2.7c-1.3-0.7-1.2-0.7-2.2,0.7c-1.3,1.8-2.4,4.2-2.4,5.1c0,0,0.2-0.2,0.4-0.6c0.9-1.3,2.1-2.7,2.4-2.7
		c0.6,0,0.5,0.5-0.2,1.4c-2.3,2.7-3.8,6.2-3.7,8.3l0.1,1.1l0.4-1.1c1-2.6,3.2-6.5,3.7-6.5c0.6,0,0.5,0.5-0.4,1.8
		c-1.6,2.5-3.3,6.7-3.3,8c0,0.7,0.4,1.5,0.6,1.1c1.4-3.6,3.4-7.4,4-7.4c0.7,0,0.6,0.5-0.3,1.8c-1.3,2-3.2,6.2-3.2,7.2
		c0,0.6,0.6,1.4,0.8,1.1c0.9-2.6,3.8-6.8,4.5-6.5c0.5,0.2,0.3,0.6-0.6,1.7c-2.1,2.6-3.6,5.8-3,6.6l0.3,0.4l0.9-1.4
		c1.2-1.8,2.6-3.4,3-3.3c0.5,0.2,0.3,0.7-0.4,1.4c-0.4,0.4-1.2,1.4-1.8,2.4l-1.1,1.7v1.2c0,2.3-1.3,4.1-4.9,7c-4,3.3-5,5-3.8,6.8
		c0.6,0.9,0.6,0.9,1.1-0.3c1.2-2.7,3.7-6.3,6.3-8.9c1.9-1.9,4.7-4.1,5.1-4c0.7,0.1,0.4,0.6-1.2,1.7c-3.9,2.9-7.6,7.5-9.6,12
		l-0.5,1.2l0.8,0.8c0.8,0.8,0.8,0.8,0.9,0.4c0.4-1,1.5-3.3,2-4c1.6-2.5,3.5-5.1,3.8-5c0.6,0.1,0.3,0.7-1.3,3.1
		c-3.9,5.9-4.2,6.8-2.8,8.4c0.9,1,1.1,1.1,1.1,0.3c0-2.5,4.9-11.1,5.4-9.6c0.1,0.2-0.4,1-1.3,2.3c-3.2,4.9-4.1,8.4-2.5,9.5
		c1.1,0.7,1,0.8,1.1-0.8c0.1-3.4,2.9-9.5,4-8.6c0.3,0.3,0.3,0.4-0.6,1.7c-1.6,2.2-2.3,4.1-2.4,7l-0.1,1.8h0.9c1.9,0,2.7-1.1,2.5-3.5
		c-0.1-2.1,0.1-3,1.4-4.4c0.6-0.6,1.2-1.5,1.5-2.2c1-2.3,4.5-6.9,5.1-6.9c0.6,0,0.4,0.5-0.6,1.7c-1.1,1.3-2.7,3.7-3.2,4.6l-0.3,0.6
		l1.2-0.7c0.7-0.4,1.5-0.8,1.7-1c0.4-0.2,0.6-0.5,0.8-1c1.2-3.1,4.3-7.9,4.9-7.6c0.5,0.2,0.4,0.5-0.9,2.1c-1.1,1.5-3.1,5-3,5.3
		c0,0.1,1-0.4,2.1-1l2-1.2l1.7-2.6c2.2-3.3,2.4-3.6,2.8-3.5c0.5,0.2,0.3,0.6-0.9,2.3c-1.1,1.6-2.1,3-2,3c1,0,3-1.2,3.8-2.4
		c1.2-1.6,2.8-4.8,3.2-6.3c0.3-1,0.6-1.4,0.9-1.2c0.6,0.4-1.1,4.7-2.9,7.3c-0.4,0.5-0.6,1-0.5,1c0.1,0,0.7-0.1,1.3-0.3
		c0.6-0.1,1.3-0.2,1.6-0.2c1,0.1,2.1-3.3,3-8.9c0.8-5,2-9.8,2.9-12.1l0.4-0.9h-0.5c-0.9,0-2.7,3.4-3.3,6.4c-0.2,0.7-0.3,1.5-0.4,1.7
		c-0.1,0.3-0.2,0.4-0.4,0.3c-0.9-0.1,0.4-4.9,2-7.6l0.5-0.8h-1.2c-1.6,0-2.7,1.1-3.7,3.7c-0.5,1.3-0.6,1.4-1,1.1
		c-0.5-0.5,0.7-3.1,1.9-4.3l0.4-0.5h-1.2H175l-0.7,0.9c-0.4,0.5-0.9,1.1-1.1,1.4c-0.4,0.6-0.7,0.7-1,0.3c-0.2-0.2,0.3-1.1,1.3-2.1
		l0.4-0.5h-1.1c-1.6,0-2.9,1-3.5,2.5c-0.1,0.3-0.7,0.4-0.9,0.1c-0.2-0.3,0.4-1.3,1.1-2.1c0.4-0.4,0.6-0.8,0.6-0.8
		c-0.1-0.1,0.6-0.4,3.8-1.6c2.4-1,3-2,2.4-4.2c-0.5-1.9-0.6-1.9-3.3-1c-2.3,0.8-2.3,0.9-0.5-1.1c1.7-1.8,1.9-2.2,1-2.7
		C172.8,115.2,171.8,115.2,171.2,115.6 M323.3,117c-0.3,0.2-0.9,0.6-1.5,0.8c-1.6,0.6-1.6,0.7-1.6,2.3c0,0.8,0,1.8-0.1,2.4
		c-0.3,2.1,2.8,2.1,3.8-0.1C325.4,119.4,324.9,115.7,323.3,117 M147.8,118.3c-0.6,1.4-0.3,1.9,0.4,0.6c0.5-0.8,0.5-0.9,0.2-1.1
		C148.1,117.6,148.1,117.7,147.8,118.3 M95.8,118.1c2.5,2.1-1.3,6.4-7.2,8.3c-2.1,0.7-2.2-0.2-0.1-0.9c4.4-1.5,6.9-3.7,7-5.8
		c0-0.9,0-0.9-0.6-1c-0.6-0.1-0.8-0.5-0.5-0.8C94.4,117.7,95.4,117.9,95.8,118.1 M149.3,118.8c-0.4,0.5-1.2,2.4-1.2,2.7
		c0,0.3,0.1,0.2,0.6-0.5c0.3-0.5,0.7-1.1,1-1.5c0.4-0.5,0.4-0.7,0.2-0.8C149.6,118.5,149.5,118.6,149.3,118.8 M82.6,121
		c-2.1,5-1.4,11.9,1.3,13.5l0.6,0.3l-0.5-0.7c-2.2-2.8-2.2-8.4-0.1-13.4c0.1-0.2,0-0.3-0.4-0.3C82.9,120.4,82.8,120.5,82.6,121
		 M80.6,120.8c-2.4,0.9-2.6,1.2-2.5,4.4c0.1,6.9,2.4,10.8,6.6,11c1.1,0,1.1,0,0.6-0.1c-2.3-0.7-3.1-1.3-3.8-2.9
		c-1.4-2.9-1.4-7.2,0.1-12.3C81.7,120.5,81.5,120.5,80.6,120.8 M327.7,122.8c-0.2,0.2,0,0.3,0.8,0.6c1.9,0.7,3.5,2.1,4.6,4.1
		l0.5,0.9l0.5-0.4l0.5-0.4l-0.5-1C332.7,123.9,328.8,121.6,327.7,122.8 M76.1,124c-1.2,1.4-1.2,3.3,0,6.8c2.2,6.6,5.2,8,12.5,6.2
		c3.2-0.8,5.1-1.2,6.4-1.2c0.8,0,1,0,1.1-0.4c0.1-0.2,0.4-0.7,0.7-1l0.5-0.6h-0.6c-1,0-2.6,0.5-2.9,0.8c-0.6,0.8-7.1,2.6-9.3,2.5
		c-4.6-0.2-7.3-4.7-7.3-12.3C77.1,122.8,77.1,122.8,76.1,124 M326,124.1c-0.3,0.2-0.3,0.3,0.4,0.8c0.4,0.3,0.8,0.5,0.9,0.4
		c0.5-0.9,2.5,1,3.9,3.7l0.5,0.9l0.5-0.4c0.3-0.2,0.5-0.4,0.6-0.5c0.2-0.2-0.9-2-2-3.1C329.2,124.4,326.8,123.5,326,124.1
		 M115.3,125.5c-0.1,2-2,4.5-4.5,5.8c-2.4,1.2-7.1,2.6-7.6,2.2c-0.4-0.4-0.1-0.6,1.2-0.9c3.6-0.8,6.4-1.9,8-3.3c0.9-0.8,2-2.7,2-3.4
		c0-0.6,0.3-1.2,0.6-1.1C115.3,124.7,115.4,124.8,115.3,125.5 M323.7,125.3l-0.5,0.2l0.6,0.3c0.3,0.2,1,0.7,1.5,1.1l0.9,0.8l0.3-0.8
		l0.3-0.8l-0.5-0.4C325.1,125,324.5,124.9,323.7,125.3 M168.9,125.5c0.2,0.2,0.1,0.4-0.8,1.2c-0.5,0.5-1.1,1.2-1.3,1.5
		c-0.3,0.6-0.8,0.6-0.8,0C166.1,127,168.4,124.8,168.9,125.5 M321.7,126.3c-0.3,0.3-0.3,0.4,0.9,1.1c0.6,0.4,1.5,1,1.9,1.5
		c0.8,0.9,1.2,0.9,1.2,0C325.7,127.9,322.3,125.7,321.7,126.3 M183.7,127.1c-0.9,1.6-2.2,6.9-3,12.1c-0.7,4.3-1.2,6.3-2,8
		c-0.3,0.7-0.6,1.3-0.6,1.3c0,0.3,1.4,0,1.6-0.4c1.5-2.2,2.4-5.2,3.1-11.2c0.6-5.2,1.2-7.6,2.2-9.7l0.5-1h-0.7
		C184.2,126.3,184.1,126.3,183.7,127.1 M185.9,127.6c-1.1,2.3-1.6,4.3-2.3,9.7c-0.6,4.7-1.1,7-2,9.1c-0.5,1.2-0.5,1.2,0.1,0.5
		c3-3.5,3.9-6,4.2-12.6c0.3-5.2,0.6-6.5,1.7-7.5c0.5-0.4,0.5-0.4,0.1-0.5C186.8,126.1,186.6,126.2,185.9,127.6 M321.2,128.2
		c0,0.5,0.1,0.6,0.7,0.9c0.4,0.2,1.1,0.7,1.6,1.2c0.6,0.6,0.9,0.8,1.1,0.7c0.4-0.4-1.2-2.3-2.7-3l-0.7-0.4V128.2 M327.6,130.3
		c-0.7,3.1-2.6,6-5.4,8c-1.6,1.1-1.8,1.4-1.8,2c0,1.9,4.9,2.5,6.6,0.7c2-2,2.6-7.6,1.1-10.9l-0.3-0.7L327.6,130.3 M322.2,131
		c0.8,1.4,0.9,1.5,1.3,1.2c0.3-0.3,0-1-1-1.7C321.6,129.9,321.6,130,322.2,131 M314,130.7c-2.7,1.2-6.8,11.5-5.2,13.3
		c0.9,1,4.5,1.4,6,0.6c1.4-0.7,1.5-1.5,0.2-4.6c-1.3-3.1-1.4-4.3-0.7-7.8C314.6,130.3,314.6,130.4,314,130.7 M109.2,138.8
		c4.6,0.5,8.9,2.4,12.1,5.5c1.4,1.4,1.5,1.5,1.2,1.7c-0.3,0.3-0.3,0.2-1.5-0.8c-3.1-2.9-6.7-4.6-10.9-5.4
		c-4.3-0.7-10.3,0.3-12.2,2.1c-0.6,0.5-1.1,0.6-1.1,0C97,140,104,138.2,109.2,138.8 M74.9,147.6c-0.8,1-1,1.5-1.6,3.5
		c-0.3,1-0.6,2-0.6,2.2c-0.1,0.2,0.1,0.1,0.4-0.3c0.3-0.3,0.9-1.1,1.5-1.7l1-1.1l-0.1-1.7l-0.1-1.7L74.9,147.6 M297.3,148.4
		c0.7,0.2,2.3,0.7,3.4,1.1c4.6,1.7,6.1,1.8,10.8,0.8c4.6-1,9.5-1,9.5-0.1c0,0.4-0.1,0.4-1.3,0.7c-2,0.4-3.6,1.1-5.1,2.1
		c-1.4,0.9-1.8,1-1.8,0.4c0-0.4,1.9-1.7,3.6-2.4c1.6-0.7,1.6-0.7,0.2-0.6c-0.6,0.1-1.2,0.2-1.3,0.3c-0.1,0.1-0.5,0.3-0.9,0.4
		c-1.3,0.4-2.6,1.1-5.8,3.3c-2.8,1.9-3.1,2.1-3.3,1.8c-0.2-0.3-0.2-0.3,0-0.6c0.4-0.4,6.2-4.3,6.4-4.3c0.1,0,0.2,0,0.1-0.1
		c-0.2-0.2-2.2,0.3-2.3,0.5c-0.1,0.1-0.2,0.2-0.4,0.2c-0.1,0-1.3,0.6-2.7,1.3c-2.6,1.3-5,2.3-5.4,2.2c-0.6-0.2-0.2-0.7,1.1-1.2
		c0.7-0.3,2.1-0.9,3.1-1.4l1.8-0.9l-1-0.1c-0.8-0.1-1.1-0.1-1.7,0.2c-1.5,0.7-7.4,2.6-7.6,2.4c-0.4-0.4,0.1-0.7,3-1.7
		c4.1-1.4,4-1.3,2.6-1.8c-1-0.3-1.2-0.4-1.3-0.2c-0.1,0.1-0.5,0.3-0.9,0.3c-0.4,0.1-1.5,0.4-2.6,0.7c-2.9,0.9-6.5,1.4-6.8,1
		c-0.3-0.4,0.1-0.7,0.8-0.7c0.3,0,1.3-0.1,2.2-0.3c1.3-0.2,2.3-0.5,6-1.6c0.3-0.1,0.1-0.2-1.1-0.6c-2.1-0.6-2.4-0.7-2.4-0.5
		c0,0.1-0.5,0.2-1.5,0.2c-1.8,0-4.2,0.3-6.2,0.8c-1.5,0.4-1.9,0.3-1.7-0.2c0.2-0.4,3.2-1.2,5.6-1.4c0.9-0.1,1.4-0.2,1.5-0.3
		C293.9,148,295.7,148,297.3,148.4 M74.9,152.5c-1.9,2.1-2.9,3.5-3.6,5.3c-0.3,0.9-1.6,3.7-2.9,6.4c-1.3,2.6-3.2,6.7-4.1,8.9
		c-1,2.3-2.6,6.1-3.7,8.4c-5.7,12.6-8,18.6-10.1,26.5c-2.7,10-3.3,15.6-2.2,20.1c0.3,1.5,0.4,1.4,0.6-1.2c0.2-2.9,0.3-3.1,0.7-3
		c0.3,0,0.4,0.1,0.3,0.7c-0.2,4-0.2,7.9-0.1,7.9c0.1,0,0.2-0.3,0.2-0.8c0-1.2,0.6-5.6,1.1-8.1c0.2-1.2,0.4-2.2,0.4-2.2
		c0-0.2,0.7,0,0.8,0.2c0,0.1-0.1,1.2-0.3,2.4c-0.5,2.6-0.9,5.6-1.1,8.6l-0.2,2.3l0.7,1.7l0.7,1.7l0-1.5c0-5.1,1.7-17.1,2.4-17.9
		c0.7-0.7,0.8,0.1,0.2,2.6c-1.9,9.3-2.2,16.6-1,26.8c0.4,3.5,0.9,7.5,1.1,8.8c0.3,3,0.2,2.7,1.1,2.1c1.8-1.2,4.3-1.7,4.3-0.9
		c0,0.3-0.1,0.4-1.4,0.6c-0.9,0.2-2.3,0.9-2.9,1.5l-0.5,0.6l0.2,1l0.2,1l0.8-0.7c1.8-1.6,6.3-2.8,6.2-1.6c0,0.3-0.2,0.4-1.4,0.6
		c-2.5,0.4-5.1,1.9-5.1,3c0,2.9,3.8,7.5,7.7,9.5c5.9,3,8.9,2.5,14.9-2.7c0.4-0.3,0.4-0.4,0.3-1.4c-0.2-2.7-3.1-6-7.4-8.2
		c-0.9-0.4-1.1-0.9-0.6-1c0.5-0.2,3.5,1.5,5.2,3c2.1,1.9,3.3,3.7,3.7,5.6c0.1,0.6,0.2,1.1,0.2,1.1c0.1,0.1,1.4-0.5,1.4-0.7
		c0.3-1.7-2-5.6-4.5-7.5c-1.3-1-1.4-1.2-1.1-1.5c0.3-0.4,1,0.1,2.9,2c2.2,2.2,3.3,4.1,3.5,6.3c0.1,0.9,0.1,0.9,1.3,0.5
		c0.6-0.2-0.3-3.6-1.5-5.3c-0.8-1.2-0.9-1.5-0.5-1.7c0.8-0.3,2.7,3.5,3,5.9l0.1,0.9l1-0.1c4.6-0.5,18.2-3.3,26.8-5.4
		c20.6-5.2,32.5-11.9,37.8-21.3c0.6-1,0.6-1.4,0.1-0.9c-0.2,0.2-0.2,0.1-0.1-0.3c0.5-2.4,0.5-3.2,0.5-6.4c0-4.9-0.5-7.5-1.2-6.8
		c-0.2,0.2-0.1,0.5,0.1,1.7c0.4,1.9,0.4,7.9,0.1,9.7c-0.6,3.1-0.4,2.9-1.7,3.6c-2,1.3-1.8,1.4-1.4-0.8c0.8-3.9,0.5-10.1-0.5-9.1
		c-0.2,0.2-0.2,0.4-0.1,1.1c0.5,2.2,0.2,6.7-0.6,9.6l-0.3,1l-1.5,0.8c-0.8,0.4-1.5,0.7-1.5,0.7c0,0,0.1-0.8,0.3-1.6
		c0.7-3.6,0.8-5.5,0.1-5.9c-0.5-0.3-0.7,0.1-0.5,1c0.2,0.9-0.1,3.3-0.8,6l-0.3,1.2l-1.6,0.7c-1.9,0.9-1.8,0.9-1.6-0.8
		c0.3-2.1,0.2-3.4-0.3-3.4c-0.4-0.1-0.4,0-0.4,1.1c0,1.6-0.4,4.2-0.7,4.4c-0.1,0.1-0.9,0.4-1.7,0.6l-1.4,0.5l0.2-1
		c0.3-1.4,0.2-2.5-0.2-2.5c-0.3,0-0.3,0.1-0.4,1.1c-0.1,1.1-0.4,2.3-0.6,2.6c-0.1,0.1-1.2,0.5-2.5,0.9l-2.3,0.6l-0.1-0.9
		c-0.1-1.4-0.8-1.3-0.8,0.1c0,0.8-0.1,1-0.4,1c-2.9,0.7-8.7,1.5-18,2.6c-7.4,0.8-8.5,0.9-6.6,0.5c5.9-1.3,11.5-5,13.3-8.7
		c1.6-3.2,1.2-6.2-1.1-10.7c-0.5-1-1-1.9-1-2c-0.1-0.2,2.7,1.3,4.3,2.4c2.4,1.6,4.9,3.8,7.1,6.3c0.7,0.8,0.7,0.9,1.1-1
		c1.3-6.5-0.8-13.9-6.6-23.7c-0.8-1.4-1.5-2.5-1.4-2.5c0,0,0.9,0.4,1.9,0.9c3.9,2,8.2,5.2,13.3,10.2c1.8,1.7,1.8,1.7,0.7-0.8
		c-2.2-5-5.5-10.1-9.3-14.5l-1.5-1.8l0.5-0.1c4.6-0.9,11,5.6,16.5,16.8l1.7,3.5l0.4-1.2c0.3-0.9,0.4-1.8,0.5-3.6
		c0.2-4.7-0.4-7-4.4-16.6c-1.4-3.4-2.3-6.3-2.1-6.4c0.1,0,0.7,0.3,1.4,0.6c3.1,1.7,5.7,4.4,7.4,7.7c1.1,2,1.8,2.2,3.1,0.5
		c0.3-0.4,2.2-2.3,4.1-4.2c4.5-4.4,5.4-5.8,5.4-8.2c0-2.4-2-4.8-4.1-4.8c-1.4,0,2.9-1.5,7.6-2.6c7.7-1.8,9.3-3.2,14-11.8
		c6-11,9.7-16.7,11.3-17.9l0.6-0.4l-0.9-0.4c-0.8-0.4-1.2-0.4-3.8-0.5l-2.9-0.1l-0.1,0.5c-0.4,1.9-1.3,3.7-2,3.9
		c-0.5,0.1-0.5-0.4-0.1-1.1c0.9-1.4,1.3-3.3,0.7-3.4c-0.2-0.1-0.5-0.1-0.7-0.2c-0.2-0.1-0.3,0.1-0.5,0.6c-1,3-5.2,7.6-6.2,6.7
		c-0.4-0.3-0.3-0.4,0.9-1.3c2.6-1.7,5.4-5.9,4.4-6.7c-0.4-0.3-0.4-0.2-0.8,0.8c-0.8,2.1-6.2,5.8-7.1,4.9c-0.3-0.3-0.1-0.6,1.1-1.1
		c4.2-1.7,6.5-4.9,4.8-6.7c-1.4-1.6-1.9-1.5-7.8,2.6c-6.4,4.5-6.8,5-6.4,7.2c0.2,1.3,0.2,1.3-1.3,3.1c-1.4,1.7-2.4,3.7-3.7,7.7
		c-1.4,4.1-1.3,3.7-0.5,3.4c0.9-0.4,1.3-0.3,1.3,0.1c0,0.3-0.3,0.5-1.2,0.8c-1.1,0.4-1.2,0.5-1.5,1.3l-0.4,0.8l0.4-0.1
		c0.7-0.2,2.9-1,4.4-1.6c1.4-0.6,1.9-0.7,1.9-0.2c0,0.4-2.3,1.4-5.2,2.4c-3.4,1.1-3.4,1.5,0,0.7c4.6-1.1,7.2-2.2,8.9-3.8
		c0.5-0.4,1-0.5,1.1,0c0.2,1.2-4.2,3.2-9.9,4.6c-3.2,0.8-3.6,0.9-4.7,1.7c-2.1,1.4-5.6,2.5-13,3.9c-13.7,2.7-18,4.2-25.2,8.9
		c-8.4,5.5-12.6,10.8-16.8,20.9c-2.2,5.2-3.4,7.6-5.4,10.6c-2.1,3.1-3.2,5.3-3.9,7.8c-1.2,4.1-3.1,7.8-5.8,11.2
		c-1.6,1.9-1.8,2-1.2,0.7c0.8-2.1,1.5-5,2.5-9.5c1.4-6.6,2.4-10.1,3.8-12.8c2.2-4.4,9.5-16.9,14.3-24.5c1.4-2.2,1.7-2.8,1.7-3.8
		l0-0.8l-1.5,2.6c-1.7,2.9-2.7,4.6-7.3,11.6C82.7,226.6,79.8,233,78.9,241c-0.2,1.9-0.2,1.9-0.6,1.9c-1.1,0,0.3-7.1,2.3-12.4
		c1.9-4.9,4.2-9.1,10.6-18.7c6.5-9.9,9-14.3,8.1-14.2c-0.4,0-6.8,9.3-9.3,13.5c-3.1,5.1-6.5,11.7-8.4,16.3c-0.8,1.8-1,2.1-1.4,1.7
		c-0.2-0.2,0-0.7,1.2-3.3c4.4-9.8,9.6-18.7,16-27.2c1.3-1.7,1.7-2.4,1.6-2.6c-0.5-1-9.4,11.5-13.4,18.9c-0.5,0.9-1.1,1.2-1.1,0.5
		c0-1.5,6.9-12,11.8-18c1-1.2,1.9-2.3,2.1-2.5c0.3-0.4,0.3-0.5-0.1-2.6c-0.2-1.2-0.5-2.6-0.6-3l-0.1-0.8l-0.4,1
		c-0.3,0.7-0.5,1-0.8,1c-0.6,0-0.6-0.3,0.2-2c0.8-1.6,0.8-1.7,0.6-2.5l-0.1-0.9l-0.7,1c-0.9,1.3-2,3.5-2.3,4.7
		c-0.3,0.9-0.8,1.2-1,0.6c-0.2-0.6,1.6-4.5,3-6.4c0.9-1.1,0.9-1.3,0.9-2.1c0-0.5-0.1-0.8-0.1-0.8c-2.2,2.5-4.9,7.7-5.7,10.9
		c-0.1,0.5-0.3,0.7-0.5,0.7c-1.5,0,1.8-7.4,5.3-11.9c0.9-1.2,1.1-1.5,1.2-2.2l0.1-0.6l-0.8,0.8c-3.4,3.7-6.5,9-8.5,14.8
		c-0.7,2.2-1.4,2.8-1.3,1.4c0.2-3.7,5.6-13.2,10.1-17.9c0.8-0.9,1.6-1.9,2.1-2.8c1-1.8,2.3-3.7,4-5.6c2.5-2.8,2.5-2.8,2.1-2.6
		c-0.5,0.3-1.1,0.2-2.1-0.1l-0.9-0.3l-1,0.8c-1.6,1.4-3,3-4.5,5.2c-0.9,1.3-1.5,2-1.7,2c-1.2,0,2.2-5,5.2-7.6l1.1-1l-0.7-0.4
		l-0.7-0.4l-0.8,0.7c-1.1,0.9-2.8,2.7-3.8,4c-0.8,1-1.3,1.3-1.4,0.7c-0.1-0.4,1.4-2.2,3.3-4.2l1.8-1.8l-0.5-0.4
		c-0.3-0.2-0.8-0.5-1-0.7l-0.5-0.3l-1,1c-3.9,3.8-7.3,9.4-9.1,14.6c-0.7,2.1-0.9,2.4-1.3,1.9c-0.1-0.2,0-0.7,0.5-2.1
		c1.9-5.7,4.9-10.5,9.2-14.9l1-1l-0.6-0.3c-4-1.9-7.5,2.7-12.1,16.2c-3.1,9.1-4.9,13-6.2,13c-0.4,0-0.9-0.5-0.9-0.8
		c0-0.4-0.9-1.2-1.4-1.2c-0.5,0-0.8-0.4-0.7-0.8c0.1-0.3,1-0.2,1.8,0.2l0.4,0.2l0.2-1c0.2-1.2,0-1.6-0.9-2.1
		c-0.4-0.2-0.6-0.4-0.6-0.7c0-0.5,0.4-0.5,1.3,0c0.7,0.5,0.8,0.4,1.1-0.9c0.2-1.1-0.3-2.2-1.4-2.8c-0.4-0.2-0.6-0.4-0.6-0.6
		c0-0.8,1-0.4,2.1,0.7c0.3,0.4,0.6,0.7,0.7,0.6c0.1-0.2,0.8-2.3,0.8-2.6c0-0.5-0.9-1.7-1.7-2.1c-0.7-0.4-0.9-0.9-0.4-1.1
		c0.4-0.1,1.7,0.7,2.2,1.4l0.4,0.6l0.3-0.8c0.5-1.3,0-2.4-1.3-3.2c-1-0.6-1.2-0.5-1.8,1c-1.2,2.9-1.9,2.9-2.3,0.1
		c-0.7-5,0.4-9.2,3.7-13.8c2.2-3,2.7-4.6,2-6.2l-0.4-0.8l-0.7,0.4c-1.3,0.7-2.4,2.1-4.2,4.9c-0.7,1.1-1.4,0.8-0.8-0.3
		c1-2,2.9-4.3,4.2-5.2l0.8-0.5l-0.6-0.5c-1.1-0.9-1-1-2.7,1.7c-4.6,7.2-8,14.1-10.8,21.8c-0.7,1.9-1,2.7-1.2,2.7
		c-0.6,0.1-0.6-0.3,0.1-2.3c3-8.3,6.5-15.5,11.3-22.9l1.6-2.5l-0.4-0.5l-0.4-0.5L74.9,152.5 M87.8,154.9c-0.4,0.2-1.9,1.6-1.9,1.9
		c0,0.1,0.3,0.1,0.6,0.1c0.7,0,2.2,0.6,2.5,1.1c0.3,0.4,0.5,0.3,0.7-0.3C90.3,155.7,89.4,154.3,87.8,154.9 M85.4,157.9
		c-0.2,0.1-0.7,0.9-0.7,1.1c0,0.1,0.2,0.2,0.5,0.2c0.6,0.1,1.9,1.1,2.4,1.7l0.3,0.4l0.5-0.9c0.7-1,0.7-1.2,0.1-1.7
		C87.7,157.9,86,157.5,85.4,157.9 M311.5,159.2c-0.6,0.2-1.1,0.5-1.9,1.3c-0.6,0.6-1.6,1.3-2.3,1.7c-0.7,0.4-2.8,1.9-4.6,3.3
		c-7.1,5.3-7.9,5.6-28.3,10.5c-15.2,3.7-16.8,4.1-20.2,5.8c-5.6,2.8-10.2,7.9-12.4,13.7c-1.9,4.9-7.3,6.8-9.2,3.1
		c-0.1-0.3-0.4-0.7-0.6-0.9c-0.2-0.2-0.4-0.8-0.6-1.4c-1.1-4.2-3.1-5.6-13.8-9.5c-13.4-4.8-17-7.1-22.6-13.7c-1.6-2-5.4-6.8-5.5-7.1
		c-0.3-1-3.2,2.6-4.7,5.9c-1.9,4.1-2,6.7-0.2,12.9c0.7,2.6,0.8,2.9,0.6,3.2c-0.5,0.6-1,1.9-1.1,3.3l-0.1,1.4l0.7,0.6
		c1.5,1.3,8.3,3.3,12.5,3.7c1.2,0.1,1.7,0.5,1.2,0.9c-0.8,0.7-11.2-1.9-13.6-3.4l-0.9-0.6l-0.1,0.7c0,0.4,0,0.8,0.1,0.9
		c0.7,0.5,6.6,2.2,9.5,2.7c1.4,0.2,1.9,0.7,1.2,1c-0.5,0.2-5.3-0.9-8.2-1.9l-2.9-1l-0.3,0.9c-0.1,0.5-0.3,0.9-0.3,1
		c0,0.3,1.9,1,3,1.2c0.9,0.1,1.1,0.2,1.1,0.5c0,0.7-3.1,0.3-4.2-0.5c-0.3-0.2-0.4-0.2-1,0.9c-0.8,1.4-0.8,1.4,0.8,1.4
		c1,0,1.2,0.1,1.3,0.3c0.1,0.5-0.7,0.7-2.1,0.6l-1.2-0.1l-0.8,1c-0.9,1.3-3.4,3.7-5.1,5.2c-1.3,1.1-1.3,1.2-1,1.3c1,0.2,0.5,1-0.6,1
		c-1,0-1.4,0.2-3.2,1.6c-1.9,1.5-1.9,1.5-0.2,1.2c1.5-0.3,1.8-0.2,1.7,0.3c0,0.3-0.3,0.4-1.5,0.6c-3.1,0.6-3.3,0.7-5.1,2.4
		c-1.9,1.9-1.9,1.8-0.3,1.3c1.8-0.6,4.6-0.9,4.9-0.5c0.5,0.5,0,0.7-1.7,0.8c-2.7,0.2-5.6,1.3-6.3,2.4c-0.5,0.8-1.3,2.4-1.2,2.4
		c0.1,0,0.3-0.2,0.6-0.4c2.6-2,12.8-3.5,11.3-1.7c-0.2,0.2-0.6,0.3-1.9,0.3c-5.3,0-9.8,1.8-10.8,4.3c-1.5,3.8,0.4,15.2,2.7,16.4
		l0.5,0.2l0.1-1.7c0.1-0.9,0.1-3.7,0.2-6.1c0.1-5.6,0-5.4,2.9-6.4c7.4-2.7,13-3,25.6-1.4c9.3,1.1,15.8,0.3,20.4-2.6
		c3.3-2.1,7.9-5.7,10.8-8.4l1.9-1.8v1.1c0,2.1-1.5,4.3-4.4,6.4c-1.2,0.9-1.6,1.5-1.6,2.2c0,0.8,0.2,0.9,1.6,0.5
		c4.9-1.1,10.9,1.1,16.9,6.1l1.2,1l0.3-0.5c0.4-0.7,0.5-1.2,0.6-5c0.3-10,3.1-10.4,4.8-0.7c1.2,6.9,0.9,6.5,10.1,11.4
		c2.4,1.3,7.1,3.8,10.4,5.5c17.1,9.1,19.8,9.7,42.3,10.7c1.3,0.1,2.5,0.2,2.6,0.3c0.9,0.5-0.4,2.7-2.7,4.5l-0.6,0.5l1.7-0.1
		c4.1-0.2,5.4-0.7,6.7-2.7c1.1-1.7,1.1-1.8,0.3-1.3c-1.4,0.8-3.1,1.1-3.1,0.5c0-0.2,0.2-0.4,0.9-0.6c2.6-0.8,3.7-1.7,4.2-3.5
		l0.3-0.9l-0.9,0.8c-1,0.9-2.6,1.8-3,1.6c-0.5-0.2-0.3-0.6,0.8-1.1c1.3-0.6,2.5-1.8,3.1-3c1.3-2.6-0.4-8.7-4.4-16.3
		c-0.8-1.5-1.8-3.4-2.1-4.2c-0.9-1.9-3.8-4.1-8.4-6.3c-3.9-1.9-6.8-2.6-12.2-3.3c-1.5-0.2-1.6-0.9-0.2-0.9c5.2,0,13.1,2.8,18.3,6.6
		c0.7,0.5,1.3,0.8,1.2,0.7c0-0.1-0.2-0.8-0.4-1.5l-0.3-1.3l-1.3-0.8c-3.5-2.1-10.1-4.4-12.5-4.4c-0.6,0-0.9-0.4-0.6-0.8
		c0.7-0.7,7.9,1.4,12.3,3.7c1.3,0.7,2,1,2,0.8c-0.1-0.2-0.1-0.8-0.1-1.4v-1.1l-1.3-0.5c-2.1-0.8-3.8-1.3-6.1-1.9
		c-2.1-0.5-2.8-0.9-2-1.2c0.5-0.2,4.9,1,7.7,2c0.9,0.3,1.6,0.6,1.6,0.6s0.1-0.5,0.1-1.1c0-1.3,0.3-1.1-3.1-1.7
		c-2.4-0.4-3-0.6-2.6-1.1c0.2-0.2,0.6-0.2,2.9,0.2c3.1,0.5,2.8,0.6,3-1.1l0.1-1.4l-0.6,0.1c-1.4,0.3-3.3,0.2-3.3-0.2
		c0-0.3,0.2-0.3,1.3-0.5c2.9-0.3,3.2-0.6,3-3c-0.1-1.8-0.4-1.9-4-1.1c-2.3,0.5-4,0.7-7.7,1c-2.7,0.2-2.8,0.2-5.7,1.2
		c-10.4,3.4-16.3,3.1-23.1-1.1c-2.8-1.7-5.2-2.6-6.3-2.3c-0.5,0.1-0.9-0.3-0.6-0.7c0.8-0.9,3.5,0,7.7,2.4c5.5,3.3,10.7,3.8,17.9,2
		c4.5-1.2,4.5-1.1-1-1c-5.9,0.1-7.1,0-10.1-1.1c-1.2-0.4-2.8-0.9-3.5-1.1l-1.3-0.4l3.1-0.1c23.9-0.9,33.8-2.5,44.6-7.1
		c1.3-0.5,2.9-1.1,3.6-1.3c6.7-1.8,9.5-4.1,10.3-8c1-5.2-4.3-6.7-11.8-3.5c-1.2,0.5-2.7,1.1-3.5,1.4c-2.1,0.6-4.3,1.8-8.2,4.1
		c-8.1,4.9-9.5,5.2-27.3,4.8c-14.1-0.3-19.6,0.1-25.8,2.2c-4.3,1.4-7.6,4-8.1,6.2c-0.1,0.7-0.3,0.6-0.5-0.3
		c-1.2-4.6,0.8-8.3,5.5-10.6c5.9-2.9,12.1-3.8,25.8-3.5c11.6,0.2,10.6,0.5,24.8-7.6c12.2-6.9,12.4-7,17.2-8.3
		c4.5-1.2,4.5-1.3,1.2-5.8C317.3,160.4,314.4,158.3,311.5,159.2 M83.3,161.2c-1,1.8-1,1.6,0.1,1.8c0.5,0.1,1.3,0.4,1.8,0.7
		c0.4,0.3,0.8,0.5,0.8,0.5c0,0,0.3-0.5,0.7-1.1l0.6-1l-0.4-0.6c-0.4-0.6-1.4-1.2-2.3-1.6C84.2,159.8,84.1,159.8,83.3,161.2
		 M319.5,160.9c-0.7,0.4,1,1.9,3,2.5c2.2,0.7,2.5,0.9,2.8,1.8c0.5,1.8,4.8,6.7,8.4,9.3c3.4,2.6,3.9,4,2.2,6.7c-2,3.2-1.4,5.6,2.1,8
		c0.5,0.4,1.5,1.1,2.1,1.6c1.6,1.3,3.5,2.3,4.8,2.8c1.6,0.5,1.6,0.5,0.4,0.9c-1.7,0.5-5.4,0.5-7.2-0.1c-0.9-0.3-1.3-0.4-1.5-0.2
		c-0.8,0.8,1.7,1.5,5.3,1.5l2.7,0l1.7-0.6c1-0.4,2.2-0.7,2.7-0.8c1.2-0.3,2.3-0.6,2.5-0.8c0.5-0.4,0.3,0-0.3,0.8
		c-2.4,3.1-7.7,4.7-12.1,3.7c-0.8-0.2-0.9-0.2-1.2,0c-1.2,1.2,5.5,1.4,8.8,0.3c5.2-1.8,8.8-7.5,7.8-12.8c-0.4-2.3-0.5-2.4-1-1.1
		l-0.5,1l0.3,0.8c0.3,0.9,0.4,2.3,0.1,2.6c-0.3,0.3-0.8-0.1-0.7-0.6c0.1-0.4-0.2-2-0.4-2c-0.7,0-1.4,1.2-1.4,2.2
		c0,1.4-0.4,2.8-0.9,2.9c-0.5,0.1-0.6-0.3-0.3-1.2c0.2-0.5,0.3-1.2,0.3-1.6v-0.7l-0.8,0.3c-0.5,0.1-0.8,0.3-0.8,0.4
		c0,0.8-1.6,3.1-2.2,3.1c-0.6,0-0.5-0.5,0.1-1.2c0.6-0.6,1.1-1.5,1.1-1.8c0-0.6-1.6-0.3-2.4,0.5c-0.5,0.5-0.9,0.8-1.2,0.8
		c-0.7,0-0.6-0.4,0.1-1.1c0.6-0.5,0.7-0.7,0.6-1.1c-0.1-0.6,0.1-0.7,0.8-0.5c3.1,0.9,6.2-0.7,7.4-3.8c0.5-1.3,0.4-1.3,3,0
		c2,1,2.4,1.3,3.6,2.4l1.3,1.3l-0.2,0.6c-0.2,0.8-0.6,1.4-1.2,1.8c-0.5,0.3-0.6,0.7-0.3,0.9c0.4,0.2,1.6-0.7,2-1.6l0.4-0.8l0.5,0.9
		l0.5,0.9l-0.3,0.7c-0.2,0.4-0.8,1.2-1.4,1.8c-0.9,1-1,1.1-0.8,1.3c0.4,0.4,1.9-0.9,2.7-2.4l0.3-0.5l0.3,0.7
		c0.7,1.7,0.2,2.9-2.3,4.7c-0.5,0.3-0.5,0.4-0.2,0.7c0.4,0.4,1.8-0.5,2.7-1.7c0.3-0.4,0.6-0.7,0.6-0.8c0.1,0,0.5,2.1,0.5,2.7
		c0,0.6-1.2,2.3-2.7,3.8c-1.3,1.3-1.5,1.8-0.8,1.8c0.4,0,2.3-1.8,3.1-2.9l0.5-0.8l0.1,0.8c0.3,1.9-1.6,4.5-4.8,6.7
		c-1.1,0.7-1.2,0.8-0.9,1.1c0.4,0.4,3.4-1.7,4.8-3.5c1-1.2,1.2-1.2,0.5,0.1c-1.2,2.3-4.3,5.7-6.3,7c-0.9,0.6-1.2,1.1-0.7,1.3
		c0.7,0.3,4.8-3.3,6.4-5.6l0.9-1.2v0.9c0,2.2-4,7.1-7.7,9.5c-1,0.7-1.6,1.2-1.6,1.3c0.3,1.4,5.5-2.8,8.2-6.6c1-1.4,1-1.4,0.7,0.7
		l-0.2,1.4l-1.4,1.7c-3.5,4.3-7.4,7.3-10.8,8.1c-0.6,0.1-0.8,0.3-0.8,0.5c0,0.5,0.3,0.5,1.5,0.2c3.2-1,6.3-3.2,9.3-6.6
		c0.8-1,1.5-1.7,1.6-1.7c0.1,0.1-0.3,1.4-0.6,1.6c-0.1,0.2-0.2,0.4-0.1,0.5c0.9,1.4-4,5.9-9.3,8.6c-8.1,4.2-18.4,5.3-23.8,2.6
		c-1.1-0.5-2.2-1-2.5-1.1c-0.5-0.1-0.6-0.2-1.2-1.4c-0.8-1.7-0.8-1.7,0.7-1c3.6,1.6,9.9,2.2,9.9,1c0-0.1-0.7-0.2-2.4-0.3
		c-3.3-0.1-5.6-0.7-8.1-1.9c-1.2-0.6-1.2-0.6-1.6-1.7c-0.2-0.6-0.3-1-0.3-1s0.4,0.2,0.9,0.4c2.4,1.2,6.8,1.9,6.8,1
		c0-0.3-0.2-0.3-1.5-0.5c-2.2-0.2-5.8-1.5-6.5-2.3c-0.2-0.2-0.8-2.5-0.7-2.5c0,0,0.5,0.3,1.1,0.7c1.1,0.7,3.4,1.6,3.8,1.5
		c0.6-0.2,0.2-0.7-0.9-1c-2.1-0.6-4.5-2.6-4.5-3.7c0-0.3,0-0.7-0.1-1l-0.1-0.6l0.7,0.5c0.9,0.7,2,1.3,2.4,1.2
		c0.6-0.1,0.3-0.5-0.6-1.1c-1.4-0.8-2.5-2.1-2.5-2.8c0-0.7,0-0.7,0.7-0.3c1.1,0.6,1.3-0.3,0.1-0.9c-0.7-0.4-0.9-2.1-0.3-2.6
		c0.2-0.2,0.3-0.3,0.2-0.6c-0.1-0.2-0.1-1-0.1-1.8c0.2-5.7-8,0.1-9.4,6.7c-1.4,6.6,0.8,11.3,10,22c9.1,10.6,10.2,13.6,9.1,25.9
		c-1.8,20.1,3.6,39.9,16.3,60.2c0.8,1.3,1.9,3.2,2.3,4.3c1.8,4.2,3.6,7.4,6.1,11.2c3.5,5.3,4.5,8.3,4.7,15c0.2,5,0.4,6,1.1,5
		c0.9-1.2,1.2-2.4,1.6-6c0.5-4.8,1.8-7.3,4.5-8.7c0.6-0.3,1.3-0.8,1.6-1.1c1.9-1.8,2.3,5.8,0.6,10.9c-0.9,2.6-3.6,7.6-5.2,9.5
		c-3,3.6-3.6,4.1-5,3.7c-1-0.3-1.1-0.3-1.1,0.1c0,0.4,0.8,0.8,1.5,0.8c1.4,0,2.8-1.2,5.2-4.1c1-1.3,1.1-1.3,0.5,0.2
		c-0.3,0.6-0.6,1.6-0.8,2.1c-0.6,1.9-3.9,4.8-5.6,5c-1.3,0.1-1.4,0.7-0.1,0.8c1.1,0.1,2.1-0.4,3.6-1.8l1.1-1l-0.4,1.4l-0.4,1.4
		l-1.2,0.9c-2.1,1.5-4.2,3.9-3.7,4.3c0.2,0.2,0.5-0.1,1.9-1.5c0.9-0.9,1.9-1.8,2.2-2l0.6-0.4l-0.1,0.6c-0.9,5-1.3,8.4-1.5,12.1
		l-0.1,1.9l1.1,0.4c5.1,1.8,8.3-0.7,10.9-8.2c1.4-4.1,2.4-5,4-3.4c0.9,1,1.2,1.9,1.6,6.4c0.7,7.8,2,11.1,5,13.5
		c4.3,3.4,9,2.8,10.6-1.3c5.1-13.2,4.8-21-1.2-31.3c-1.3-2.2-1.3-2.2-2.9-1.4c-2.7,1.4-5.4,5.1-7.5,10.3c-0.6,1.5-0.7,1.7-1.1,1.5
		c-0.3-0.1-0.3-0.5,0.4-2.1c2.4-5.9,5.4-9.7,8.6-10.9l0.9-0.4l-0.4-0.7c-0.4-0.9-0.7-0.9-2-0.3c-3.1,1.5-6.6,5.2-8.4,8.9
		c-0.6,1.1-0.8,1.3-1.1,0.9c-0.4-0.5,1.5-3.8,3.5-6c1.8-2.1,4.8-4.3,6.5-4.8c0.7-0.2,0.9-0.3,0.8-0.5c-0.1-0.1-0.3-0.9-0.6-1.7
		c-0.6-1.7-0.6-1.7-2.1-0.9c-1,0.5-4.2,3.7-5.3,5.3c-0.8,1.3-1.3,1.6-1.5,1c-0.5-1.3,6.1-7.7,7.9-7.7c0.2,0,0.2-0.2,0.1-0.8
		c-0.1-0.4-0.1-0.9-0.1-1.1c0-0.5-1.5,0-3,1c-0.5,0.3-1-0.2-0.5-0.7c0.4-0.5,2.1-1.3,2.9-1.4c0.6-0.1,0.7-0.2,0.7-0.7
		c0-0.3,0.1-0.6,0.2-0.7c0.2-0.1,2.2,1.5,3.3,2.6c0.7,0.6,2.9,3.8,3.4,4.9c1,2.1,2.4-2.2,2.7-8.4c0.3-5.5,0.4-5.2-2.8-8.9
		c-0.9-1-1.9-2.4-2.3-2.9c-0.4-0.6-0.7-1.1-0.7-1.1c0,0-0.2,0.1-0.3,0.3c-0.7,1-1,1.3-1.3,1c-0.4-0.3-0.4-0.4,0.4-1.4l0.7-0.9
		l-0.3-0.6c-0.1-0.3-0.3-0.8-0.4-1.1l-0.2-0.5l-1,1.1c-1,1.1-1.3,1.3-1.6,0.9c-0.2-0.2,0-0.4,0.6-1c0.4-0.4,1-1.1,1.3-1.5l0.5-0.7
		l-0.1-2l-0.1-2l-0.8,1.5c-1.1,2-2.6,4.1-2.9,4.1c-0.5-0.1-0.3-0.6,0.8-2.2c0.6-0.9,1.5-2.5,2-3.5l0.9-1.8l0.1-2.2l0.1-2.2l-0.3,0.5
		c-0.2,0.3-1,1.6-1.8,2.9c-1.9,3.2-4.4,6.9-4.8,7c-0.7,0.1-0.7-0.3,0-1.2c2.1-2.9,5.4-8.2,6.6-10.7c0.4-0.8,0.9-3.2,0.7-3.4
		c0,0-0.3,0.5-0.6,1.1c-2.6,5.3-9.3,14.6-10,14c-0.4-0.3-0.3-0.4,1.5-2.7c3.1-3.9,6.2-8.7,8.4-13.1c1.1-2.2,1.5-3.8,1.5-5.7
		c0-0.1-0.6,0.9-1.4,2.1c-3.6,6-8.3,12.4-12.8,17.2c-1.6,1.7-1.7,1.8-2,1.3c-0.1-0.3,0.1-0.6,1.2-1.8c4.6-5.1,9.4-11.5,12.8-17.3
		c2.2-3.7,2.2-3.7,2.5-5.7c0.2-1.1,0.3-2.1,0.4-2.4c0.1-0.3-0.4,0.5-1.1,1.7c-4.2,7.9-12.8,18.9-13.4,17.3c-0.1-0.2,0.6-1,2-2.5
		c7.6-8.4,14.7-21.1,14.6-26.3c0-0.1-0.7,1-1.5,2.6c-2.7,5.3-7.6,12.3-8.4,12c-0.5-0.1-0.2-0.8,1.2-2.5c5.2-6.5,9.1-14.2,9.4-18.3
		l0.1-1.1l-1.5,2.7c-3.2,6-4.7,8.1-5,7.2c0-0.1,0.6-1.3,1.4-2.6c3.9-6.5,5.4-9.6,5.3-11.5l0-1.4l-0.5,1.2c-1.3,3.2-2.6,5.6-2.9,5.6
		c-0.6,0-0.5-0.5,0.5-2.6c0.6-1.2,1.5-3.2,2-4.5l0.9-2.3l-0.2-2.6c-0.4-6.5-1.2-11.4-3-18.6c-4.5-17.8-8.8-25.8-14-25.8
		c-0.8,0-1.5,0-1.5,0c0,0,0.4-0.7,0.8-1.6c3.3-6.3,3.5-14.6,0.7-23.3c-4.9-14.8-17-24.6-41.2-33.4c-6.3-2.3-8.5-3.2-11.7-4.6
		c-1.2-0.6-2.4-1-2.5-1c-0.1,0-1.4-0.6-2.8-1.2c-1.4-0.7-2.5-1.2-2.6-1.2C319.8,160.7,319.7,160.8,319.5,160.9 M307.4,163.7
		c-3,5.5-9.3,9-21.4,12c-1.9,0.5-5,1.3-7,1.8c-4.2,1.2-6.9,1.7-9.4,2c-10.3,1-18.2,4.6-23.5,10.7c-1.8,2.1-2,2.1-0.6,0.2
		c4.8-6.8,8.4-8.6,25.3-12.7c24.4-5.8,25.3-6.1,32.5-11.7c2.5-1.9,4.2-3.1,4.4-3.1C307.8,162.9,307.7,163.3,307.4,163.7 M81.9,164.3
		c-0.2,0.2-0.4,0.6-0.6,1l-0.3,0.6l1,0c1,0,1.1,0,1.7,0.6l0.7,0.6l0.5-0.9c0.6-1.1,0.6-1,0-1.5C83.8,163.8,82.4,163.7,81.9,164.3
		 M330.8,169c9.4,5.6,10.7,8,7.1,13c-1.2,1.7-1.7,2.9-1.5,3.9c0.1,0.8,0,0.8-0.4,0c-0.8-1.5-0.6-2.4,1-4.9c1.5-2.3,0.7-4.4-2.7-7.1
		c-2.4-1.9-4-3.4-5.6-5.2c-2.1-2.4-2.1-2.4-1.2-1.7C328,167.3,329.5,168.2,330.8,169 M81.2,166.7c-0.4,0-0.6,0.2-0.8,0.5
		c-0.4,0.7-0.3,0.8,0.4,0.9c0.7,0.1,2.1,0.8,2.3,1.1c0.2,0.3,0.3,0.2,0.6-0.4c0.4-0.9-0.7-2.3-1.8-2.2
		C81.8,166.6,81.5,166.7,81.2,166.7 M79.3,169.8c-0.4,1-0.5,1,0.5,1.2c0.5,0.1,1.2,0.5,1.6,0.8l0.7,0.5l0.4-0.9
		c0.4-1.1,0.4-1.1,0-1.6C81.2,168.8,79.8,168.7,79.3,169.8 M78.6,171.9c-0.2,0.2-0.6,1.2-0.6,1.4c0,0.1,0.1,0.1,0.3,0.1
		c0.5,0,1.6,0.7,2.1,1.3l0.5,0.7l0.4-0.9c0.5-1.2-0.1-2.2-1.5-2.5c-0.3-0.1-0.6-0.1-0.8-0.2S78.6,171.8,78.6,171.9 M342.8,174.7
		c1.6,1.4,1.6,5.7,0,7.5c-0.8,0.9-1,0.2-0.4-1.1c1-2,0.7-5.1-0.5-5.8c-0.5-0.3-0.6-0.7-0.4-0.9C341.7,174.2,342.4,174.4,342.8,174.7
		 M340.6,174.7c1.4,0.9,1.8,4.5,0.6,5c-0.5,0.2-0.8-0.3-0.5-0.9c0.5-1,0.2-2.6-0.6-3.3C339.3,174.8,339.7,174.1,340.6,174.7
		 M185.4,180.5c0.2,0.2,0.4,1,0.5,1.7c0.1,0.7,0.7,2.6,1.2,4.3l1,3l-0.6-0.3c-0.3-0.2-0.7-0.4-0.8-0.6c-0.5-0.6-2.3-7.3-2.5-8.9
		l-0.1-1.1l0.4,0.7C184.9,179.8,185.2,180.3,185.4,180.5 M189.1,185.4c0.1,0.8,0.4,2.1,0.7,3c0.5,1.7,0.4,2-0.3,1.5
		c-0.3-0.2-1.7-4.2-2.3-6.2l-0.4-1.5l1,0.9l1,0.9L189.1,185.4 M330.1,183.9c3.9,1.1,2.5,7.1-2.2,9.5c-0.8,0.4-1.2,0.6-1,0.4
		c2.1-1.5,2.9-2.5,3.2-4c0.5-2.4-0.9-5.2-2.9-5.6c-0.4-0.1-0.5-0.2-0.3-0.3C327.2,183.7,329.3,183.7,330.1,183.9 M191,185.4
		c0.9,0.5,1,0.7,1.3,1.7c0.2,0.6,0.6,1.7,0.9,2.4c0.3,0.8,0.5,1.3,0.3,1.3c-0.1,0-0.7-0.1-1.3-0.3l-1.1-0.3l-0.3-0.9
		c-0.6-1.7-1.2-4.6-1-4.5C190,184.8,190.4,185.1,191,185.4 M327.3,185.2c2.5,1.3,2.7,4.7,0.4,6.7c-1,0.9-2.7,2-2.2,1.4
		c2.5-2.9,0.8-7.9-2.7-7.9c-0.6,0-0.3-0.3,0.5-0.4c0.4-0.1,0.9-0.1,1-0.2C324.7,184.6,326.7,184.9,327.3,185.2 M358.1,185.4
		c-0.1,0.1-0.1,0.2,0,0.3c0,0.1,0,0.3-0.2,0.5c-0.5,0.6-0.1,1.3,0.6,1.1c0.6-0.2,0.6-1.9,0-2C358.4,185.2,358.2,185.3,358.1,185.4
		 M194.8,187.5c0.8,0.4,1.5,0.8,1.6,1c0,0.1,0.3,0.9,0.6,1.8c0.3,0.9,0.5,1.6,0.5,1.6c-0.2,0.2-2.5-0.8-2.7-1.1
		c-0.2-0.5-1.6-3.8-1.6-3.9C193.1,186.7,193.3,186.7,194.8,187.5 M198.8,189.3c1,0.4,1.1,0.5,1.2,1c0.1,0.3,0.4,1.1,0.7,1.7
		c0.3,0.7,0.5,1.2,0.5,1.2c-1.1,0-2.5-0.8-2.9-1.7c-0.6-1.4-1-2.8-0.8-2.7C197.6,188.8,198.2,189.1,198.8,189.3 M202.8,190.9
		l1.6,0.6l0.3,0.9c0.2,0.5,0.4,1.2,0.6,1.6c0.4,0.8,0.5,0.8-1.3,0.3l-1.5-0.5l-0.8-1.5c-0.7-1.4-0.9-2.1-0.6-2
		C201.1,190.3,201.9,190.6,202.8,190.9 M207.3,192.4c1.4,0.4,1.7,0.6,1.9,1c0.1,0.3,0.5,0.9,0.9,1.5c0.3,0.5,0.6,1,0.6,1
		c0,0.1-2.2-0.4-3.4-0.8c-0.6-0.2-1.4-1.3-1.9-2.9C205.4,191.8,205.3,191.8,207.3,192.4 M214.7,195.6c0.5,1,0.5,1.1-1.1,0.9
		c-1.2-0.2-1.4-0.2-1.8-0.7c-0.6-0.7-1.5-2-1.5-2.2c0-0.1,0.9,0.2,2,0.6l2,0.7L214.7,195.6 M218.5,196.3c0.9,0.4,0.8,0.4-0.8,0.4
		h-1.4l-0.3-0.5C215.3,195.1,215.7,195.2,218.5,196.3 M233.2,202.6c1.3,0.5,1.6,0.5,3.6,0.5c2,0,2.2,0,2.2,0.3c0,1-4.4,0.7-7-0.4
		c-1.2-0.5-1.5-1.6-0.4-1.1C231.7,202.1,232.5,202.3,233.2,202.6 M229.2,203.3c1.1,1.7,6.4,3,10.4,2.5c2.6-0.3,2.9-0.3,2.9,0.1
		c0,1.4-8.9,1-11.9-0.5c-1.1-0.6-2.3-1.7-2.3-2.2C228.2,202.7,228.8,202.8,229.2,203.3 M258.9,203.8c0.3,0.2,1.3,1.1,2.2,1.9
		c3.9,3.6,8.2,5.7,13.2,6.4c1.3,0.2,1.3,0.2,1.3,0.6c0,0.5-0.7,0.5-3.2,0c-4.5-1-8.4-3.1-12-6.4c-1-0.9-2-1.8-2.4-1.9
		c-0.6-0.3-0.8-0.7-0.5-1C257.7,203.2,258.2,203.4,258.9,203.8 M255.7,205c1.4,0.7,1.8,1,4.3,3.5c5.1,5,7.9,6.3,16,7.7
		c3.4,0.6,3.3,0.6,3.3,0.9c0,0.5-0.2,0.5-2.9,0.1c-8.8-1.5-11.9-2.9-17.3-8.2c-3-2.9-4.3-3.7-6.2-3.9c-1-0.1-1.4-0.3-1.3-0.8
		C252,203.8,253.9,204.1,255.7,205 M228.7,207c3.3,1.9,7.7,2.9,11.5,2.4c2.7-0.3,2.7-0.3,2.8,0.1c0.2,1.2-7.2,1.2-10.9,0
		c-2.7-0.9-5.6-2.5-5.6-3.1c0-0.4,0.3-0.5,0.8-0.2C227.6,206.3,228.2,206.7,228.7,207 M360.9,222.9c-0.8,1.6-2.5,3.9-3.8,5.3
		l-1.4,1.4l-2.2,0.7c-3.7,1.2-7.3,1.7-13.2,1.9l-2.7,0.1l-1.6-0.7c-0.9-0.4-1.7-0.7-1.7-0.7c0,0,1.3,0,3,0c8.5,0,17.5-3.2,23-8.1
		C361.3,221.9,361.4,221.9,360.9,222.9 M228.5,223c2.4,0.6,5.6,3.3,4.5,3.7c-0.2,0.1-0.6-0.3-1.3-0.8c-1.7-1.6-4-2.4-6-2.2
		c-0.9,0.1-1.3,0-1.3-0.5C224.4,222.7,227,222.6,228.5,223 M221.1,225.2c-1,0.1-0.9,0.4,0.3,0.5c5.5,0.5,8.6,1.8,12.4,5
		c1.5,1.2,2.2,1.6,2.9,1.6c0.7,0,0.7-0.2-0.6-1.2C231,226.7,225.5,224.6,221.1,225.2 M353.4,231.5c-3,2.5-6.8,3.2-11.6,2
		c-1.7-0.4-1.7-0.6-0.1-0.6c2.9,0,7.9-0.7,10.5-1.4C354,231,354,231,353.4,231.5 M203.8,232.4c-16,1.3-32.2,7.4-50.2,18.9
		c-10.2,6.5-14.3,14.3-15.2,28.9c-0.3,5.4-0.4,23.8-0.1,26.1c1.2,9.2,4.6,15,8.9,15.4l1.1,0.1l-0.1-0.6c-0.3-1.8-0.8-5.8-0.9-7.7
		l-0.1-2.1l0.5-0.5c0.4-0.4,0.6-0.5,1.1-0.4c1.3,0.3,1.5,0.6,2.7,4.3c2.5,7.5,5.7,13.9,9.1,18.6c1.8,2.5,2.1,2.8,1.3,1.2
		c-4-7.6-8.7-21.7-7.2-21.5c0.3,0,0.4,0.3,1.1,2.7c2,7.9,5.5,16.4,9.3,22.4c0.7,1.1,1.9,2.3,3.7,3.6c0.9,0.7,1,0.7,0.6,0.2
		c-3.6-5.5-8-15.8-7.1-16.7c0.4-0.4,0.6-0.1,1.2,1.9c2.2,7.5,6.8,15.6,9.7,17.3c0.8,0.4,1.4,0.8,1.5,0.8c0.1,0-0.3-0.8-0.9-1.9
		c-2.1-4-4.8-11.1-4.4-11.5c0.4-0.4,0.7,0.1,1.3,1.8c1.9,6,5.1,12.3,6.7,13.1l0.8,0.5l-0.7-1.5c-1.2-2.6-2-6.6-1.4-6.8
		c0.4-0.2,0.6,0.1,0.8,1.7c0.4,2.3,1.7,5.8,2.6,7.1c0.2,0.3,3.3,1.9,3.4,1.8c0.1-0.1-1-3.6-1.4-4.8c-0.4-0.9-0.3-1.2,0.3-1.1
		c0.3,0.1,1.1,2,1.9,4.9l0.5,1.7l1.6,0.7c1.9,0.8,1.7,0.9,1.4-0.4c-0.3-1.3-0.5-4.2-0.3-4.3c0.5-0.3,0.6,0.1,0.8,1.8
		c0.4,3.2,0.6,3.9,1.6,4.3c1.6,0.7,1.6,0.7,1.1-0.4c-0.7-1.4-1-3-0.7-3.3c0.3-0.3,0.8-0.1,0.8,0.3c0,0.6,0.8,2.8,1.4,3.7
		c0.5,0.8,0.6,0.9,2,1.3c1.7,0.6,1.7,0.6,1.4-0.9c-0.4-2.4,0.4-2.4,0.9,0c0.3,1.6,0.4,1.7,0.8,1.8c0.9,0.3,4.3,1.1,4.4,1.1
		c0.1,0,0-0.4-0.2-0.9c-0.5-1.5-0.4-2.7,0.3-2.6c0.3,0.1,0.3,0.3,0.4,1.3c0.2,2.1,0.7,2.5,3.3,3c1,0.2,1.9,0.3,2.1,0.4
		c0.3,0.1,0.4,0,0.5-0.3c0.1-0.6,1.1-1.6,1.5-1.6c0.6,0,0.6,0.5,0,1c-1.1,1-0.4,1.3,2.8,1.3l1.2,0l1.3-1.3c1.3-1.3,1.8-1.6,2-1.1
		c0.1,0.2-0.1,0.5-0.6,1c-0.4,0.4-0.9,0.9-1.2,1.2l-0.4,0.5l3-0.1l3-0.1l0.7-0.8c0.4-0.4,0.9-1.2,1.2-1.7c0.5-1,0.9-1.2,1.1-0.7
		c0.1,0.3-0.3,1.2-1,2.2c-0.6,0.9-0.6,0.9,0,0.8c0.3,0,1.2-0.2,2.1-0.3c2.1-0.3,1.9-0.1,3.8-2.6c1.6-2.2,1.9-2.4,2.2-1.9
		c0.2,0.2-0.1,0.6-1.2,2.1c-0.8,1-1.4,1.9-1.4,1.9c0.1,0.1,5-1,5.5-1.2c1.3-0.6,4.1-3.5,5.5-5.6c0.6-1,1.1-1.2,1.2-0.6
		c0.1,0.4-1.4,2.5-2.9,4.1c-0.8,0.8-1.3,1.5-1.2,1.5c0.4,0,5.8-1.7,6.2-2c2.3-1.5,4.8-4.9,5.9-7.9c0.5-1.4,0.6-1.5,1-1.3
		c0.9,0.3-1.4,5.1-3.6,7.4c-0.5,0.5-0.8,1-0.8,1c0.4,0,3.9-1.6,3.9-1.7c0-0.1,0.6-0.7,1.4-1.4c3.3-2.9,6.2-6.9,7.8-10.5
		c0.4-0.9,0.6-1.2,0.8-1.2c1.5,0-2.4,6.6-6.3,10.6l-1.7,1.7l2.5-1.3l2.5-1.3l2.6-3.5c4.3-5.8,6.2-8.8,7.8-12.5
		c0.7-1.7,1-2.2,1.3-2.2c1.4,0-2.4,7.2-7.5,14.1c-2.1,2.8-2.1,2.7-1.2,2.2c6.5-4.1,11.2-10.7,15.9-22.5c3.5-8.8,5.2-11.5,9.6-16.1
		c3.1-3.2,9.1-8.4,9.6-8.3c0.7,0.1,0.3,0.7-1.8,2.5c-9.7,8.2-12.2,11.5-16.4,22.2c-2.7,6.8-5.3,11.6-8,15.1
		c-0.5,0.6-0.8,1.1-0.8,1.1c0.2,0.2,4.8-4.8,5.8-6.3c2.5-3.7,3-3.8,4.6-1.2c3.8,5.9,9.7,7,17.3,3.5c3-1.4,6.8-3.8,7.5-4.8
		c1.6-2.1,2-3,2.3-5c0.2-1.2,0.3-1.5,0.8-1.3c0.5,0.2,0.1,2.9-0.7,4.4c-0.2,0.5-0.4,0.8-0.3,0.8c0.1,0,2.2-1.5,2.3-1.7
		c0.3-0.5,1.2-3,1.5-4.4c0.4-1.5,0.7-2,1.1-1.4c0.2,0.3-0.4,2.7-1.1,4.6c0,0.1,0.3-0.1,0.8-0.4c1.7-1.3,3-4.7,3.7-9.4
		c0.1-0.8,0.2-0.9,0.5-0.9c0.7,0,0.4,3.1-0.7,6.2l-0.6,1.7l0.9-1c4.4-4.8,5.8-12.6,3.5-20.1c-0.3-0.9-0.2-1.2,0.4-1.1
		c0.6,0.1,1.4,3.7,1.5,6.8c0.2,3.5,0.4,1.4,0.4-3.7c0-7.5-0.8-11.7-3.2-17.4l-1-2.3l-0.2,0.7c-0.6,2.4-5.5,6-11.3,8.5
		c-1.9,0.8-1.9,0.8-1.2-0.2c1.4-2,4.9-6.4,6.1-7.7c1.8-2,3.3-4.1,4-5.8c0.2-0.4,0-0.3-0.7,0.5c-3.7,4.2-7.2,7.5-9.5,8.9
		c-1.2,0.8-1.5,0-0.3-0.9c4.8-3.3,10.4-9.5,11.8-13c0.6-1.4,0.5-1.4-0.7,0.1c-2.3,2.9-9.1,8.8-9.9,8.5c-0.5-0.2-0.2-0.7,0.8-1.4
		c4.3-3.1,8.1-6.9,9.9-9.8c0.4-0.7,0.5-3.4,0.1-2.8c-1.4,2.2-8.2,9.4-8.9,9.4c-0.8,0-0.4-0.6,2.8-3.8c4.3-4.3,6.1-6.8,6.1-8.2v-0.6
		l-1,1.4c-2,2.7-6.7,7-7.4,6.7c-0.5-0.2-0.2-0.7,0.8-1.4c2.2-1.5,5.4-5,7-7.5c0.5-0.8,0.6-1.1,0.7-2.5c0.1-0.9,0.2-1.9,0.3-2.2
		c0.6-1.4-1.4,0.5-3.7,3.6c-4.9,6.4-13.2,10-19.3,8.4c-1.1-0.3-1.1-0.3-0.8,0.4c0.5,1,0.8,2.4,0.5,2.7c-0.3,0.3-0.7,0-0.8-0.8
		c-0.3-1.7-1.2-2.9-2.6-3.8c-0.6-0.3-1.3-0.7-1.5-0.9l-0.5-0.3l0.7,1.5c1.1,2.3,1.9,4.8,1.7,5.1c-0.4,0.5-0.7,0.1-1.2-1.4
		c-0.7-2-2.7-6.1-3.4-6.8c-0.9-0.9-3.7-3.4-3.6-3.2c0,0.1,0.4,0.8,0.8,1.5c2.1,4.1,4.3,11.1,3.5,11.4c-0.4,0.2-0.6-0.1-0.9-1.5
		c-1.5-6.6-4.5-12.6-8.4-16.4c-6.8-6.7-16.1-12.7-24.6-16.2c-0.9-0.3-2-1-3-1.8c-4.5-3.4-11.6-6.8-17.5-8.6c-3-0.9-3.7-0.8-5.5,0.8
		c-0.7,0.6-0.7,0.6-1,0.3c-0.4-0.4-0.2-0.7,1.1-1.6l1-0.7l-0.7-0.1c-1.6-0.2-4.3,1.6-5.9,4c-0.7,1-1.2,1.2-1.3,0.6
		c-0.1-0.7,2.3-3.4,3.9-4.4c0.9-0.5,0.8-0.6-0.4-0.8c-1.8-0.2-2.7,0.6-6.9,6c-2.7,3.4-3.3,4.1-3.3,3.2c0-0.6,5.1-7.1,6.7-8.6
		l0.9-0.9l-0.5-0.1c-0.3-0.1-0.7-0.1-0.9-0.1c-0.5,0-2.4,1.5-3.6,2.9c-0.6,0.7-1,1-1.2,0.9c-0.5-0.2-0.3-0.7,1.3-2.3l1.6-1.6h-1.6
		c-1.8,0-2.6,0.3-3.4,1.2c-0.4,0.5-0.9,0.4-0.9,0c0-0.1,0.2-0.5,0.4-0.7l0.4-0.5l-1.8,0C206.3,232.2,204.8,232.3,203.8,232.4
		 M246.5,233.8c1.9,3.2,4.5,4.9,10.4,7c4.6,1.6,6.2,2.3,10.2,4.8c7.3,4.5,13.6,6.9,21.9,8.1c2.4,0.4,7.5,0.7,8.6,0.6
		c5-0.5,5.2-0.6,1.2-0.9c-14.3-0.9-17.9-1.7-26.5-6c-7.2-3.6-24.4-12.8-25.8-13.8l-0.4-0.3L246.5,233.8 M354.2,245.1
		c1.3,0.5,2.9,2,3.7,3.4c0.4,0.8,0.1,1.3-2.1,3.7c-1.7,1.8-3.1,3.6-2.9,3.8c0,0,0.7-0.4,1.5-1c4-3,8.6-4.5,14.1-4.5
		c3.4,0,4.9,0.2,3.5,0.5c-5.4,1-10.5,6.5-14.7,15.8c-0.9,2-0.9,2.1-0.3,1.2c2.7-4,7.4-6.2,15.6-7.2c4.9-0.6,5-0.6,2.7,0
		c-9.7,2.8-15.8,8.2-17.3,15.5c-0.3,1.6-0.3,1.6,0.5,0.6c1.8-2.2,5.9-4.3,8-4.1c0.9,0.1,1.5,2,2,7c0.1,1.4,0.4,3.7,0.7,5.1
		c1.7,11,0.2,18.5-4.8,23.8c-4.7,4.9-11.8,5.8-16.5,2.3c-0.4-0.3-0.8-0.5-0.8-0.4c0,0.3,1.8,6.1,2.2,7.2c0.6,1.6,0.2,0.9-1.5-2.5
		c-2-4.1-5-11.4-5-12.2c0,0,0.6,0.5,1.4,1.2c2.5,2.4,6.3,4.8,6.9,4.4c0.4-0.3,0.3-0.4-1-1.1c-4.2-2.3-7.7-5.8-8.5-8.3l-0.4-1.4
		l1.3,1.4c2.7,2.9,7.3,5.8,7.3,4.6c0-0.2-0.3-0.5-0.9-0.8c-3.9-1.9-8.1-6.3-8.7-9c-0.2-0.7-0.3-1.4-0.4-1.6c0-0.1,0.3,0.3,0.8,1
		c1.4,2,4.4,4.8,5.1,4.8c0.6,0,0.3-0.7-0.8-1.5c-2.7-2.1-5.5-6.2-5.8-8.6l-0.1-0.7l0.4,0.5c0.8,1.1,3.1,3.2,3.4,3.2
		c0.6,0,0.4-0.6-0.5-1.3c-1.9-1.6-3.7-4.4-4-6.2c-0.3-2.1-0.3-2.2,0.7-0.8c1.1,1.6,1.3,1.8,1.7,1.8c0.5,0,0.3-0.5-0.6-1.8
		c-1.1-1.4-2-3.2-2.3-4.5c-0.6-2.4-0.2-15.8,0.5-21.6C339.2,249.6,348.4,242.8,354.2,245.1 M311.3,258.6c-1.6,0.3-4.7,0.6-5.6,0.5
		c-0.8-0.1-1,0-2.7,0.8c-1,0.5-2.2,1-2.5,1.2l-0.7,0.3l0.5,0.2c2.4,0.8,8.1,0.1,10.2-1.2c0.4-0.3,2.2-2.1,1.9-2
		C312.3,258.4,311.8,258.5,311.3,258.6 M296.8,262.8c-1.9,1-1.9,1-0.9,1.4c1.6,0.7,2.9,0.9,5.6,0.8l2.5-0.1l1.1-0.6
		c2.1-1.2,3.2-2,2.5-1.9c-2.8,0.5-5.2,0.5-7.4,0c-0.6-0.1-1.3-0.3-1.5-0.3C298.4,262.1,297.6,262.4,296.8,262.8 M293.8,264.9
		c-0.7,1.3,1,2.8,3.1,2.8c0.7,0,2.7-0.6,4-1.2l0.8-0.4L300,266c-2-0.1-3.3-0.4-4.8-1.1C294,264.3,294.1,264.3,293.8,264.9
		 M200.2,279.4c0.1,0.1,0.1,0.6-0.1,1.6c-1.5,6.4-1.8,12.3-0.8,14.6c1.4,3.1,1.3,6.6-0.3,10.7c-0.3,0.8-0.5,1.5-0.5,1.5
		c0.1,0-0.2,0.4-0.5,0.7c-3,3.3-3.9,7.4-3.2,14.5c0.3,2.7,0.2,3-0.2,3c-0.4,0-0.5-0.6-0.7-3.1c-0.4-5.1,0-8.9,1.3-11.8l0.6-1.4h-0.5
		c-1.6,0-2.7,4-2.7,9.8c0,4.1,0,4.1-0.3,4.1c-1.4-0.2-0.7-9.7,0.9-12.9c0.7-1.3,0.7-1.4,0.4-1.6c-0.4-0.3-1,1-1.5,2.9
		c-0.4,1.7-0.4,1.7-0.7,1.7c-0.2,0-0.3-0.1-0.4-0.2c-0.1-0.9,0.4-2.7,1.1-4.3l0.6-1.2l-0.3-1c-0.3-1.2-0.2-1.3,0.4-0.7
		c1,0.9,2.8,0.5,3.4-0.7c0.4-0.7,0.3-1-0.2-0.9c-2.3,0.4-4.4-2.8-3.3-5.2c0.8-2,3.2-2.5,4.4-0.9l0.4,0.5l-0.1-2.2
		c-0.1-1.2-0.2-2.6-0.3-3.2c-0.5-3.2-0.3-8.5,0.3-8.6c0.4-0.1,0.4-0.1,0.4,1.3c0,0.7,0.1,0.4,0.4-1.4
		C199.2,280,199.6,278.7,200.2,279.4 M195.9,291.2c0,0.4,0.1,1.2,0.2,1.7c0.3,1,0.2,1.2-0.2,1.2c-0.6,0-1.2-3.2-0.7-3.7
		C195.6,290.1,196,290.5,195.9,291.2 M291.8,303.3c0.1,0.2-0.5,0.9-1.6,2c-9.5,9.8-14,18.7-12.2,23.7c0.3,0.9,0,1.5-0.5,1
		c-1.3-1.3-1-5.9,0.6-9.5C280.5,314.8,291.1,301.5,291.8,303.3 M292.7,305.9c0.1,0.2-0.6,1-2,2.5c-9.7,9.9-13,19.3-8.5,24.1
		c0.5,0.5,0.7,0.9,0.7,1.1c-0.2,0.5-0.7,0.3-1.5-0.6c-4.7-5.3-1.4-15.1,8.6-25.3C291.9,305.8,292.4,305.4,292.7,305.9 M319.3,316.9
		c0.6,2.5-0.6,4.7-5.4,9.5c-8.5,8.5-14.8,12.2-25.7,15.1c-8.3,2.2-10.2,3-20,8.2c-10.6,5.7-19.7,9.2-30.2,11.7
		c-34.3,8.1-63.1-1.7-93.7-31.9c-5.4-5.3-6.5-6.8-7.1-9.9c-0.3-1.5-0.2-1.4-0.9-0.9c-4.2,3.3-0.4,14.7,10.4,31.5
		c0.7,1-0.4-0.2-5.6-6.4c-3.1-3.7-5.8-6.7-5.8-6.7c-0.6,0.4-1.3,4.6-1,6.8c0.5,4.6,2.2,8.1,9,18.6c4.8,7.5,5.6,8.9,11.2,20.2
		c5.6,11.6,6.3,12.7,7.7,13.6c2.8,1.8,6.7,1.7,7.8-0.2c0.3-0.6-2.8-4.7-7.8-10.6c-2.7-3.2-4.3-5.3-5.4-7.4c-1.3-2.4-1.3-2.6,0-1.4
		c1.5,1.4,3.2,2.6,6.8,5.1c4.2,2.8,5.9,4.1,7.9,6c1.7,1.6,1.7,1.6,2.7,1.7c3.6,0.4,3.9-1.1,1.4-5.7c-2-3.7-4.3-6.1-11.2-11.8
		c-4.4-3.7-6.1-5.3-7.2-6.8c-2.3-3.2-1.7-4.8,0.8-2.3c1.3,1.3,3.1,2.4,5.7,3.5c5.2,2.2,6.3,3,10,6.9c3.7,3.9,6.9,6.3,13.7,10.4
		c8,4.8,11.6,8.7,13.3,14.7l0.4,1.4l2.1,0l2.1,0l-0.1-1.6c-0.3-3.9-2.2-9.1-5.5-14.6c-1.5-2.6-1.7-3.2-1-4.1
		c1.3-1.6,3.6-0.4,6.6,3.4c3.5,4.4,5.6,10.8,5,15.5l-0.2,1.4h2.7h2.7l1.4-1.1c5.9-4.6,5.6-9-1.3-14.9c-3.2-2.8-4-4.2-3.1-5.6
		c1.5-2.4,8.1,1.1,10.6,5.5c0.1,0.3,0.2,0.3,0.6,0.1c1.1-0.6,1.4-2.2,0.8-4.7c-0.5-2.5-0.3-3.6,0.8-4.5c1.5-1.1,2.3-0.4,3.3,2.6
		c1.6,4.9,2.2,8.6,2.5,14.8c0.2,4.9,1.3,6.8,3.7,6.8c2.4,0,7.9-6.3,10.9-12.4c2.1-4.4,3.1-5.5,5.4-6.2c2.9-0.8,4.9,2,3.7,5.1
		c-0.6,1.7-6.3,7.7-11.1,11.7c-1.1,0.9-2.2,1.9-2.5,2.2L241,400h5h5l1.5-0.9c4.9-2.9,6.3-4.5,8.4-9.3c2-4.7,3.5-6.3,4.6-5
		c1,1.3,0.4,3.4-2.4,8c-1.6,2.7-2.1,3.8-2.3,5.5c-0.3,1.8-0.4,1.7,3.4,1.7h3.2l0.8-0.8c1.7-1.7,2.1-2.8,4.4-10.1
		c0.9-2.9,2.3-7.2,3.1-9.5c0.8-2.3,1.9-6,2.6-8.2c1.2-4.2,2.1-6.8,2.8-8.4c0.2-0.5,0.4-1,0.4-1c-0.3-0.3-6.8,2.8-12.3,5.9
		c-4.1,2.4-9.9,5.3-10.8,5.6c-0.5,0.1,2.3-2.8,4.6-4.7c5.1-4.4,10.1-7.3,17.3-10.2c2.3-0.9,2.7-1.2,5-2.7c4.5-3,12.6-6.3,19-7.7
		c6.5-1.4,8.8-2.3,11.2-4.1c3-2.3,6.1-8.3,6.4-12.4l0.1-1.4l-1.3,1.1c-4.2,3.6-9.9,6.7-15.3,8.5c-1.9,0.6-4.5,1.2-4.2,0.9
		c0,0,1.1-0.6,2.2-1.3c10-5.6,15.9-9.8,18-13c2.3-3.5,1.7-8.3-1.3-10.1C319.1,315.9,319.1,315.9,319.3,316.9 M357.4,343.9
		c-0.8,2.5-2.2,6.4-4.6,12.6c-4.1,10.6-5.6,15.2-6.8,20.8c-0.4,2.1-1.3,7-1.3,7.5c0,0.2,0.5-0.6,1.1-1.7c1.3-2.4,3.1-5.3,6-9.4
		l2.1-3.1l1.1-4.2c2.3-9.1,3.2-14.6,3-18.5c-0.1-1.5-0.1-3.3-0.1-4c0-0.7,0-1.2,0-1.2C357.8,342.7,357.6,343.2,357.4,343.9
		 M311.5,351.8c-0.9,0.3-1.8,0.6-2,0.7c-1.2,0.8-3.5,4.3-4.2,6.6c-0.3,0.9-0.8,1.2-1,0.6c-0.2-0.5,1.4-4,2.4-5.4
		c0.8-1.1,0.8-1.1-1-0.2c-1.1,0.5-1.8,1.1-2,1.4c-0.9,1.3-2.1,4.7-2.7,8.1c-0.1,0.4-0.4,0.5-0.7,0.1c-0.4-0.4,0.6-4.2,1.6-6.6
		l0.3-0.8l-0.5,0.3c-2.1,1.3-4.1,6.7-4.1,11.3c0,0.9-0.3,1.3-0.8,0.9c-0.5-0.5,0.3-5.4,1.2-8.2l0.5-1.4l-0.6,0.5
		c-1.4,1.1-1.5,1.4-2.9,5.4c-2.1,6.2-2.6,10-2,13.2c0.4,2.1,0.4,2.6,0,2.6c-0.9,0.2-1.5-5.2-0.9-8.7c0.4-2.1,1-4.4,1.8-7
		c0.8-2.6,0.8-2.6,0-1.6c-2,2.4-4.1,9.7-4.9,16.8c-0.3,2.6-0.5,8.8-0.4,8.8c0.4,0,7.4-4.2,10.7-6.5c4.5-3.1,7.1-3.7,7.6-1.9
		c0.2,0.6,0.2,0.7-0.4,6.8c-0.6,6.5,2.2,8.9,10.4,8.7c5.4-0.2,11.7-2.9,11.7-5c0-4.5-2.9-13.2-6.2-18.7c-1-1.6-1.9-3.2-2.2-3.6
		c-0.4-0.7-0.4-0.7-1.2-0.6c-3.7,0.4-6.5,5.1-7,11.5c-0.1,2.1-0.3,2.4-0.8,2.2c-0.3-0.1-0.3-0.3-0.2-1.9c0.4-6.9,3.4-12,7.5-12.6
		l0.7-0.1l-0.3-0.5c-0.3-0.6-1.2-0.7-2.7-0.2c-3.8,1.1-6.3,4.5-6.8,9.1c-0.2,1.5-0.3,1.9-0.8,1.7c-0.7-0.3,0.1-4.3,1.2-6.6
		c1.3-2.7,4.3-4.9,7-5.4c1.3-0.2,1.3-0.2,0.9-0.9c-0.4-0.6-0.5-0.6-2.3-0.2c-3.1,0.8-5.9,3-7.4,6c-0.4,0.8-0.7,1.2-0.9,1.2
		c-0.5,0-0.5-0.5,0.2-1.8c1.7-3.2,5.1-5.8,8.7-6.5l1-0.2l-0.3-0.6c-0.4-0.9-0.4-0.9-1.9-0.4c-2.6,0.8-4.7,2.2-6.7,4.2
		c-0.9,1-1.2,1.1-1.4,1c-1-0.9,4.1-4.8,7.8-6.1c0.7-0.2,1.4-0.5,1.4-0.5c0.1-0.1-0.6-1.7-0.8-1.7c-0.6-0.2-3.5,1.8-4.9,3.3
		c-1.4,1.6-2.1,1.2-0.8-0.5c1-1.2,2.8-2.6,4.2-3.3c0.7-0.3,1.2-0.6,1.2-0.7c0,0-0.1-0.4-0.2-0.8l-0.2-0.7l-1.2,0.6
		c-0.6,0.3-1.6,1-2.1,1.5c-1,0.9-1.3,1.1-1.5,0.6c-0.2-0.4,2-2.4,3.4-3l1.2-0.6l-0.1-0.8c-0.1-0.5-0.1-1.3-0.1-1.8l0-1l-0.5,0.3
		c-1,0.6-3.1,2.5-4.1,3.8c-0.9,1.2-1.4,1.5-1.7,1.1c-0.3-0.4,2.6-3.7,4.6-5.2C313.6,351.2,313.5,351.2,311.5,351.8 M134.6,362.8
		c-1,0.5-1.2,1-1.2,3l0,1.7l-0.9,2c-4.7,10.6-7,19.9-7,28.4v2h1.5h1.5l0.2-0.5c0.1-0.3,0.7-1.9,1.3-3.5c2.8-7.8,5.1-9.2,9-5.4
		l1.2,1.2l0-5.8c0-6,0.2-8.2,0.9-12.8c0.5-3,0.1-4.1-0.5-1.5c-0.9,3.8-1.2,7.1-1.2,13.4c0,4.5,0,4.9-0.3,5c-1.5,0.6-0.7-14.2,1-20.3
		l0.4-1.3l-0.7-2C138.9,363,137,361.6,134.6,362.8 M289.7,368.9c-2.4,3.2-2.9,5.9-3.1,16.1l-0.1,5.3l0.6-0.3l0.6-0.3l0.1-2.1
		c0.4-9.2,1.1-13.7,2.7-18.6c0.4-1.1,0.6-2,0.6-2C291.1,367,290.5,367.9,289.7,368.9 M142.2,373.2c-0.7,3-1.2,11.7-1,16.6l0.2,3.2
		l0.5,0.5c0.7,0.6,0.7,0.7,0.5-1.7c-0.3-4.3-0.2-11,0.4-15.5C143,374.4,142.5,371.9,142.2,373.2 M285.7,375c-0.9,1.5-1,1.9-1.4,6.1
		c-0.4,3.6-0.5,10.4-0.3,10.4c0.1,0,0.5-0.2,0.9-0.3l0.7-0.3l0-4.4c0-4.6,0.2-8.3,0.7-11C286.6,373.4,286.6,373.4,285.7,375
		 M143.7,376.4c-0.3,0.9-0.5,5.7-0.5,9.5c0,6.8,0.3,9.3,1.2,9.3c0,0,0.1-2.1,0.1-4.8c0-3.1,0.1-6,0.3-8.2l0.3-3.4l-0.7-1.4
		C144,376.6,143.8,376.2,143.7,376.4 M282.7,380.6c-1.2,2.6-1.5,4.3-1.5,9.1c0,3.3-0.1,3.2,1,2.7l0.8-0.4l0.1-4.7
		c0.1-2.6,0.2-5.5,0.3-6.4C283.6,378.7,283.6,378.6,282.7,380.6 M145.9,381c-0.2,0.6-0.5,6.9-0.4,10.8l0.1,4.2l0.7,0.4l0.7,0.4v-4
		c0-3,0.1-4.7,0.3-6.4l0.3-2.3l-0.7-1.6C146.3,381.5,145.9,380.9,145.9,381 M148.1,386.7c-0.3,2-0.5,6.4-0.3,8.4l0.1,2.2l0.9,0.5
		l0.9,0.5l0.1-3.9l0.1-3.9l-0.7-2.2C148.2,385.7,148.2,385.8,148.1,386.7 M279.7,389.1c-0.4,1.6-0.8,4.7-0.8,4.8
		c0.1,0.1,1.1-0.5,1.2-0.7c0-0.1,0.1-1.5,0-3l0-2.8L279.7,389.1 M150.4,395.9v2.6l0.7,0.3c0.9,0.4,0.8,0.5,0.8-0.7
		c0-1-1.1-4.8-1.4-4.8C150.5,393.3,150.4,394.5,150.4,395.9"/>
</g>
</svg>
