<svg xmlns="http://www.w3.org/2000/svg" viewBox="0 0 500 500"><path d="M178.6 426.31l-.58-.21c.25.11.4.24.58.21zM272.95 447.46l-.15.49c.23-.24.23-.38.15-.49zM274.45 407.06l.45-.3c-.23.11-.36.2-.45.3z"/><path d="M262.02 419.57a33.05 33.05 0 0 0-7.23-3.53 41.3 41.3 0 0 0-5.62-1.47c-1.55-.3-2.66-.46-3.41-.59l-.87-.14-.17-.02v.02c0 .02-.03 0-.08-.01l-.13-.05-1.3-.46-2.78-.96a301.9 301.9 0 0 0-16.89-5.24 377.54 377.54 0 0 0-11.56-3.4c-4-1.1-8-2.12-12.04-3.15-4.08-1.04-8.15-2.06-12.21-3.15a224.98 224.98 0 0 1-24.06-7.62l-24.85-9.9a626.97 626.97 0 0 0-18.76-7.06l-3.07-1.07c-.77-.28-1.58-.52-2.32-.86a22.57 22.57 0 0 1-7.98-5.41 26.41 26.41 0 0 1-3.06-3.94 35.1 35.1 0 0 1-2.43-4.66c-2.86-6.72-3.76-14.37-4.2-23.1-.22-4.18-.58-8.6-1.24-13.16l-.99-6.35-.49-3.02-.37-3.08-.36-3.09c-.1-1.03-.18-2.1-.27-3.14-.16-2.1-.31-4.2-.38-6.36-.08-2.16-.1-4.21-.14-6.55-.02-1.14-.02-2.28 0-3.42v-.86l-.03-.9-.06-1.81-.08-3.9-.26-3.74-.04-.8-.02-.72c-.02-.48 0-.88.02-1.23.02-.36.09-.64.11-.95.09-.3.1-.6.21-.9.05-.13.05-.34.07-.77.07-1.03.1-2.49.07-4.13-.08-.87-.18-1.8-.3-2.72-.12-.93-.2-1.86-.46-2.79a26.34 26.34 0 0 0-3-7.9c-.36-.54-.64 1.35-.92 3.5-.09 1.07-.38 2.25-.6 3.26-.23 1.02-.39 1.88-.54 2.4l-1.1 3.45c-.44 1.18-1 2.4-1.5 3.65-1.18 2.1-1.7 4.75-1.9 7.2-.21 2.48-.3 4.58-.5 6.2-.22 2.4-.35 4.41-.67 6.36-.27 1.94-.47 3.65-.69 5.49a122.35 122.35 0 0 0-.8 12.4c0 2.65-.05 5.28.04 7.95.1 2.62.22 5.24.33 7.85.24 4.9.17 9.9.2 15.16.05 5.24.2 10.7.93 16.42a68.61 68.61 0 0 0 4.34 17.5 39.63 39.63 0 0 0 3.68 7.04 40.55 40.55 0 0 0 5.3 6.38c4 3.97 8.9 7 13.92 9.16 7.82 3.3 15.73 6.45 23.22 10.23 16.2 8.19 31.97 17.25 48.85 24.1a300.26 300.26 0 0 1 13.39 5.83c4.45 2.05 8.88 4.15 13.31 6.25 2.19 1.08 4.5 2.05 6.8 3.05l6.9 2.94c2.32.96 4.63 1.91 6.96 2.83l3.5 1.36.52.2.27.1.39.12c.54.18 1.08.36 1.64.51 1.1.31 2.23.56 3.14.74 1.88.36 3.25.53 4.11.67l.9.14.17.02c-.13.47.32-1.2.68-2.13l.14-.39.08-.25.18-.5c.12-.34.25-.67.4-1l.1-.24.08-.17.12-.3.3-.6.21-.42.19-.31c.02-.05.1-.12.08-.15l-.08-.12a1.53 1.53 0 0 1-.12-.24l-.05-.13c0-.02.08.1.12.15l.28.4.14.19.07.1c4.58-4.05-6.25 5.52-5.05 4.62l.38.34a18.61 18.61 0 0 0 9.62 4.46l.42.06.34.04.48.04a22.83 22.83 0 0 0 3.46-.03 21.03 21.03 0 0 0 3.6-.64l.83-.25.82-.28.5-.19a18.96 18.96 0 0 0 5.36-3.22l.29-.25.01-.01c.91 1.55-7.86-13.58-4.15-7.17v-.01l-.02-.01-.03-.02-.06-.05a1.7 1.7 0 0 1-.13-.12 15.85 15.85 0 0 1 2.06 3.57c.24.5.5 1.05.72 1.58.23.56.4 1.03.64 1.67.27.66.18.41.2.45h.03c.01-.02 0-.03.05-.04l.33-.13c.6-.22 1.83-.55 3.66-1.13 2.2-.7 4.35-1.6 6.38-2.7l12.2-6.75c3.99-2.18 8-4.34 12.04-6.46l7.43-3.86c2.47-1.28 4.98-2.58 7.37-3.74 4.85-2.38 9.68-4.78 14.58-7.06 3.14-1.37 6.27-2.76 9.39-4.17 3.13-1.4 6.2-2.88 9.4-4.22 6.35-2.72 12.56-5.6 19.01-8.28l9.6-4.1 4.94-2.1 2.36-1 2.23-.92a59.04 59.04 0 0 1 7.74-2.64c.57-.11 1.15-.3 1.69-.38l1.72-.29c3.1-.42 6.53-1.27 9.98-2.86a32.37 32.37 0 0 0 8.72-5.87c2.55-2.4 4.5-5.04 5.98-7.52a48.96 48.96 0 0 0 3.45-7.02l.61-1.6.55-1.54c.2-.57.29-.9.43-1.32l.38-1.22 3.13-9.78c.96-3.2 1.8-6.3 2.7-9.45l1.29-4.67 1.2-4.5c.79-2.97 1.53-6.08 2.3-8.83l1.11-4.27.52-2.14.53-2.27c.41-1.82.8-3.65 1.18-5.49.18-.91.39-1.84.52-2.75l.36-2.74.37-2.96c.13-1.02.26-2.04.32-3.01l.45-6.07c.1-1.97.15-3.92.18-5.9l.02-1.49v-2.15c-.01-.79-.03-1.57-.06-2.35-.03-.79-.14-1.44-.22-2.16l-.28-2.1c-.1-.66-.24-1.24-.38-1.86l-.41-1.8c-.15-.54-.31-1.05-.47-1.56l-.5-1.52-.5-1.29-.52-1.26-.51-1.05-.55-1.03a22 22 0 0 0-1.6-2.47c-.34-.48-.77-.97-1.15-1.47-.2-.33-.4-.28-.62-.4l-.36-.06c-.13-.02-.28-.04-.3-.02l-.32.03-.65.03a13.14 13.14 0 0 1-2.56-.16c-.09-.03-.24-.03-.28-.07l-.14-.1-.29-.23-1.05-.8-.13-.1-.06-.05-.03-.03 4.87 2.1v-.02l-.05-.15-.1-.3c-.03-.15-.12-.09-.2-.08h-.02l-.41-.14-.85-.3-1.65-.63-1.6-.66-.77-.34-.2-.08h-.07l-.13-.01a4.33 4.33 0 0 1-2.3-.85c-.13-.1-.1-.15-.17-.22l-.42-.8-.06-.09-.02-.05-.01-.02-.32-.2v.01a.2.2 0 0 1 .03.05l.02.05.05.17c.02.06.03.12.03.19l.04.38c.06.52.07 1.03.06 1.51l-.02.36v.03l.04 4.65v-.01l.01-.02.01-.03.04-.13c.04-.1.02-.18.1-.27l.46-.28.2-.15c.06-.05.1-.1.27-.17.53-.25.94-.53 1.3-.85.57-.39 1-.83 1.29-1.24.57-.82.71-1.62.65-2.13a1.32 1.32 0 0 0-.63-1.02c.12.08.16.28.07.6-.1.33-.35.82-.81 1.26-1.13 1.06-2.67 1.2-2.9 1.29l-.07.03h-.01c-.01-.68 0 1.54-.02-1.53v-.1l.01-.15a11.34 11.34 0 0 0-.07-1.8c-.02-.13-.02-.14-.01-.16v-.07l-.03-.14c-.07-.26-.06-.25-.1-.31l-.01-.01.32.19.04.08.07.14.16.28c.1.2.2.4.32.6.26.25.7.5 1.12.66.43.16.9.26 1.4.27 0-.03.28.1.2.07l-.02.02-.04.03c-.03.03-.05.03-.1.09l-.15.26-.04.06-.02.03a37 37 0 0 1 .08-.27v.01l-.02.02-.07.13-.17.27-.18.27c-.04.05-.06.04-.1.06l-.13.06c-.04.02-.1.03-.14.13l-.33.48-.34.6-.69 1.29a91.65 91.65 0 0 0-4.02 8.6c-.96 3.43-1.52 6.87-2.5 9.75l-1.68 4.7c-.6 1.67-1.2 3.38-1.87 4.98-.66 1.54-1.33 3.06-2 4.55-.65 1.5-1.45 2.85-2.16 4.24-1.38 2.8-3.1 5.32-4.57 7.87-.36.58-.79 1.41-1.19 2.17l-1.2 2.34c-.78 1.57-1.54 3.17-2.27 4.81a73.58 73.58 0 0 0-3.65 10.02l-3 10.6-1.4 5.2c-.46 1.7-.99 3.26-1.47 4.9l-1.43 4.86-.35 1.22-.1.3-.06.2-.14.4-.27.7c-.09.24-.17.4-.25.58-.08.2-.15.31-.22.44-.06.14-.12.21-.16.28-.05.1-.08.1-.1.12v.02c-.01 0-.03 0 .1.07l.22.14c.3.18.6.39.9.6 2.25 1.6 2.83 2.59 2.66 2.34-.17-.24-1.02-1.77-1.69-4.7l-.02-.13c.01 0 0 0 0 0H393l-.03.01c-.03 0 .05 0-.07.02l-.24.03-.97.16c-1.29.22-2.64.4-3.86.7a84.58 84.58 0 0 0-13.54 4.21l-2.86 1.16-2.68 1.12-5.07 2.13-10.42 4.37a689.17 689.17 0 0 0-35.41 16.05l-4.42 2.12-4.37 2.26-8.74 4.51-17.04 8.8c-3.93 2-7.91 3.98-11.96 5.96l-12.03 5.84-.1-.05c-.02 0-.02-.02 0-.04l-.6.14c-.64.15-1.39.31-2.6.64-.51.13-1.27.36-1.92.55l-1.15.4c-.39.13-.77.26-1.23.45l-1.32.55c-.46.2-.95.45-1.43.68a29.47 29.47 0 0 0-8.73 6.66l-.63.73-.16.18-.08.1-.02.02c-13.68-10.88 18.61 14.85 15.28 12.2l-.05-.03-.39-.2-.2-.11a1.55 1.55 0 0 1-.3-.8v-.28l-.09-.2-.14-.43-.12-.51-.02-.14.01.05.02.12.01.25v.13l.01.24c.03.35-.04.69-.06 1.05a2.34 2.34 0 0 1-.2.81l-.03.2a.63.63 0 0 1-.15.24l-.04.04-.02.01-.01.01 12.93-14.95-.11-.1-.46-.42-.11-.1-.06-.05-.15-.12-.92-.74c-.63-.5-1.28-.96-1.93-1.4zM95.85 60.62l.44-.17c-.2.06-.36.04-.44.17zM59.54 118.81l-.42-.07c.16.12.3.11.42.07zM95.6 114.97l.13.08c-.03-.06-.08-.07-.13-.08z"/><path d="M95.33 107.34a30.78 30.78 0 0 1 4.62-11.39c1.56-2.5 3.79-5.05 6.8-7.14 3-2.07 6.82-3.62 11.08-4.11 2.25-.27 4.59-.4 7-.49 1.18-.03 2.46-.1 3.6-.07l3.48.04 3.5-.02 3.51.16c2.35.1 4.73.02 7.14.18 1.21.05 2.42.11 3.63.2 1.2.1 2.4.18 3.6.41 2.38.4 4.75.87 7.11 1.41 4.76 1.26 9.46 2.72 14 4.51 2.23.8 4.42 1.56 6.68 2.2 1.14.3 2.22.68 3.35 1 1.1.35 2.25.66 3.35 1.04l3.26 1.2c.54.21 1.08.42 1.62.65l1.54.77a47.8 47.8 0 0 1 3.02 1.68 28.5 28.5 0 0 1 2.74 2.1c.93.8 1.8 1.6 2.74 2.57.49.48.82.88 1.23 1.32.4.43.66.8 1 1.2.17.18.48.37 1.01.56.26.1.45.17.73.25l.76.22c.56.13.96.27 1.48.4.4.16.83.31 1.13.37.28.05.78-.47 1.23-1.36.38-.84.58-2.03.52-2.54.06-1.7-.68-4.06-1.8-6.16-1.1-2.1-2.3-4-3.28-5.12-.97-1.14-1.84-2.13-2.65-3.04-.8-.92-1.64-1.63-2.45-2.39a48.34 48.34 0 0 0-2.65-2.2 52.88 52.88 0 0 0-3.37-2.21l-2.01-1.24c-.68-.39-1.36-.75-2.05-1.13-1.37-.73-2.73-1.5-4.1-2.22-2.78-1.37-5.54-2.78-8.33-4.07-2.78-1.39-5.58-2.62-8.35-4.05-2.8-1.32-5.51-2.83-8.4-4.3a40.5 40.5 0 0 0-3.56-1.66c-1.21-.49-2.43-.98-3.71-1.29a98.45 98.45 0 0 0-7.77-1.7c-2.66-.36-5.34-.61-8-.96l-2-.27-2-.17c-1.35-.14-2.68-.3-4.02-.5-1.43-.21-2.93-.49-4.32-.67l-4.22-.55a99.1 99.1 0 0 0-8.93-.68c-6.14-.17-12.94.52-19.58 3.02a83.92 83.92 0 0 0-10.45 4.8c-3.4 1.9-6.76 4.1-9.9 6.73-.81.6-1.54 1.35-2.29 2.07-.74.72-1.48 1.45-2.21 2.2a68.04 68.04 0 0 0-4 4.92c-.58.9-1.16 1.81-1.72 2.73-.55.93-1.13 1.83-1.57 2.84-.9 1.98-1.86 3.95-2.43 6.1a46.63 46.63 0 0 0-.48 25.9 52.38 52.38 0 0 0 12.36 21.78l1.2 1.3.61.64.75.68c1 .9 2.04 1.79 3.08 2.65 1.06.77 2.15 1.52 3.24 2.26l.82.54.82.46 1.65.92a64.21 64.21 0 0 0 12.62 5c1.27.39 2.41.65 3.63.96 1.2.3 2.28.51 3.43.76 1.12.24 2.44.44 3.65.65 1.24.22 2.48.35 3.72.5 4.97.54 9.94.63 14.8.37 9.72-.56 18.87-2.44 27.49-4.48 3.9-.92 7.71-1.72 11.47-2.45l2.8-.54 2.7-.48 5.4-.94c7.18-1.29 14.32-2.75 21.23-5.44 7.3-2.86 17.38-6.07 21.58-15.11 1.43-2.4.87-5.66-.08-8.36.4 1.11-.1 1.57-1.04 1.61a4.4 4.4 0 0 1-1.63-.26c-.6-.2-1.25-.46-1.92-.76-2.68-1.2-5.62-3.01-5.98-3.15-4.42-1.59-8.77-1.57-13.13-2.26-8.46-1.34-16.49-4.03-24.69-2.75-4.29.67-8.53 1.5-12.72 2.46l-11.75 2.8c-7.56 1.8-14.68 3.24-21.46 3.55-2.88.1-5.69.07-8.45-.1l-2.05-.19c-.69-.07-1.36-.18-2.04-.27l-1.04-.14-1.15-.2-1.16-.2-1.04-.2c-2.8-.56-5-1.22-6.44-1.88-.3-.19-.6-.35-.92-.5-.25-.16-.44-.33-.68-.46-.23-.14-.3-.34-.5-.46l-.14-.1-.2-.26-.42-.5a10.73 10.73 0 0 1-2.43-4.93c-.3-1.61-.16-3.1.15-4.57zM436.06 257.84l-.54-.01c.24.02.4.1.54 0zM490.07 219.49l.36.22a.42.42 0 0 0-.36-.22zM455.47 208.4l-.08-.17c0 .09.03.13.08.17z"/><path d="M453.14 214.55c-.07.18-.33.32-.43.53-.03.12-.21.2-.3.33-.1.11-.17.24-.28.38-.14.13-.28.26-.4.42-.14.14-.22.32-.43.47-.18.16-.35.33-.52.52l-.25.28-.33.28c-.45.37-.8.8-1.38 1.21-.53.42-.99.9-1.64 1.33-.62.44-1.14.95-1.87 1.41l-1.99 1.44-3.58 2.65a17.02 17.02 0 0 1-3.13 1.84c-2.1.92-5.3.81-8.89-.9-.93-.42-1.9-.92-2.87-1.43l-3.09-1.68c-1.41-.73-2.82-1.45-4.25-2.13-1.5-.59-3-1.15-4.5-1.69a41.6 41.6 0 0 0-18.31-1.51l-4.24.67c-1.46.23-2.5.48-4.48.81-3.54.64-6.9 1.72-10.02 3.3-6.2 3.14-11.58 8.21-14.18 14.84-.22.63-.48 1.25-.63 1.9-.16.65-.3 1.3-.42 1.96-.14 1.33-.3 2.66-.18 4 0 1.33.35 2.64.6 3.94.38 1.31.76 2.6 1.17 3.89l.23.72c.07.22.16.53.2.61.08.26.2.52.26.78.14.52.32 1.04.45 1.57.1.54.23 1.07.32 1.62.06.54.14 1.1.17 1.65.13 2.21-.2 4.51-1.13 6.7-.81 1.91-2.02 3.7-3.22 5.54a7.3 7.3 0 0 0-.44 2.34 35.36 35.36 0 0 0-.21 2.73c-.02.17 0 .26-.04.5l-.1.6c-.07.38-.12.73-.16 1.06.03.35-.02.65-.01.93 0 .55.05.98.12 1.25.14.53 1.6-.8 3.09-1.84l.63-.43.53-.3a39.06 39.06 0 0 0 5.97-4.4 22.94 22.94 0 0 0 3.88-4.39 29.4 29.4 0 0 0 3.22-6.58 23.79 23.79 0 0 0 1.21-7.52c.04-.96-.02-1.92-.06-2.89-.02-.48-.05-.96-.11-1.43l-.04-.35-.02-.24-.03-.47c-.14-1.7-.47-3.29-.08-4.86a8.15 8.15 0 0 1 2.3-4.06 9.14 9.14 0 0 1 8.24-2.39 1215.25 1215.25 0 0 0 2.55.6l.18.04.35.02h.73c1.92.06 3.8 0 5.52.08 3.49.1 6.65.57 9.2 2.22.68.46 1.36.86 1.97 1.46l.92.82.23.2.3.25.79.63a78.53 78.53 0 0 0 6.87 5.09 41.2 41.2 0 0 0 9.19 4.56 35.03 35.03 0 0 0 11.68 1.93c4.28-.02 8.2-.6 11.77-1.31 1.84-.34 3.46-.78 5.16-1.2 1.62-.46 3.15-.85 4.8-1.42 1.64-.58 3.26-1.08 4.93-1.85l2.49-1.1a91.8 91.8 0 0 0 2.5-1.33c1.66-.86 3.33-2.06 4.95-3.2.82-.58 1.62-1.3 2.4-1.97.8-.68 1.57-1.37 2.3-2.2.74-.77 1.46-1.57 2.17-2.37.68-.86 1.34-1.75 1.98-2.64a26 26 0 0 0 1.8-2.8c.55-.97 1.15-1.92 1.6-2.94 2-4.05 3.16-8.34 3.84-12.52.12-1.03.22-2.05.31-3.08l.13-1.53.01-1.48v-2.95l-.2-2.8a75 75 0 0 0-1.73-10.5c-1.73-7.32-4.1-13.9-6.3-20.03-1.4-3.84-2.9-7.47-4.31-10.85-1.4-3.37-2.74-6.58-3.86-9.62-1.1-3.04-2.01-5.95-2.65-8.76-.24-1.4-.58-2.8-.68-4.16l-.11-1.03-.06-.51-.03-.59-.1-2.36c-.16-5.72 1.25-11.47 2.87-17.07 1.65-5.61 3.52-11.12 4.71-17.03.63-3.15 1.67-6.75 2.04-10.57.41-3.8.1-7.85-1.94-12.06-1.01-2.06-3.69-3.96-6.23-5.29 2.08 1.1.1 2.24-2.56 3.25-2.6 1.03-5.85 1.98-6.19 2.17-3.96 2.2-6.67 5.54-9.75 8.64-6 5.97-12.68 11.69-15.38 20.17a88.33 88.33 0 0 0-4.04 27.87c.01 1.2.09 2.41.14 3.62l.09 1.82c.04.62.12 1.3.18 1.96.15 1.31.26 2.65.47 3.94l.68 3.86c1.03 5.06 2.47 9.86 4.03 14.35 1.34 3.79 2.81 7.34 4.27 10.7l4.23 9.48c.7 1.54 1.27 2.94 1.9 4.4.54 1.4 1.16 2.85 1.61 4.19a56.13 56.13 0 0 1 2.29 7.83c.57 2.71.5 5.12.13 6.7-.42 1.61-1 2.18-1.49 2.76zM390.93 95.38l-.24-.06c.1.05.14.13.24.06zM404.52 110l-.34-.2c.1.1.22.16.34.2z"/><path d="M427.14 138.48l-.28.36c.16-.15.24-.26.28-.36z"/><path d="M442.64 107.97c.48-4.55 0-9.16-1.44-13.46-.39-1.06-.75-2.13-1.27-3.14-.47-1.03-.99-2.03-1.6-2.99-.29-.48-.58-.97-.9-1.43l-1.01-1.36c-.35-.43-.65-.93-1.05-1.3l-1.2-1.16a356.12 356.12 0 0 0-4.75-4.48l-.6-.55c-.18-.18-.4-.4-.55-.48l-.94-.65-1.9-1.28a54.69 54.69 0 0 0-7.98-4.38c-1.41-.65-2.92-1.14-4.37-1.67l-2.2-.75c-.72-.25-1.48-.4-2.22-.6l-4.44-1.08-4.44-.73c-.73-.11-1.46-.25-2.18-.34l-2.2-.22-4.3-.46c-1.42-.08-2.84-.18-4.24-.31-.7-.06-1.42-.16-2.08-.2l-1.91-.13-8.06-.73c-1.34-.17-2.7-.15-4.04-.21l-4.05-.12-4.05-.06c-1.34.01-2.7.14-4.05.23-2.71.22-5.41.47-8.1.88-2.7.56-5.37 1.02-8.03 1.4-2.65.34-5.33.81-8 1.26-5.36.92-10.74 2-16.15 3.54-5.22 1.5-10.05 4.18-14.6 7.13-4.57 2.96-8.86 6.17-13.52 8.97-2.5 1.5-5.07 2.94-7.5 4.63-.57.44-1.87 2.25-2.84 4.27a45.5 45.5 0 0 0-1.04 2.21l-.15.34-.03.09v.01c.1-.14-.98 1.21-.52.64v.03l-.02.04-.04.16c0 .02.02-.01-.02.04l-.1.16-.17.31a9.31 9.31 0 0 0-.59 1.29l-.1.3-.04.15-.12.6-.05.3-.02.2c-.05.58 0 .88.04 1.1l.08.23c.03.04.07.03.1.05l.03.01 1.34.25.5.1.18.02.34.06c.44.08.83.17 1.18.25l.22.06a16.88 16.88 0 0 0-1.78-.37l-.23-.04-.96-.18c-.06-.02.02 0 .02-.01.14.02.32-.07.54-.38l.17-.24.22-.38.6-1.06c.2-.38.44-.74.71-1.07l.1-.13c.03-.03.03-.01.04-.02l.05-.02.12-.04.05-.02h.02l.32-.4h.04l.12-.04.24-.06.93-.25 1.4-.4c1.94-.65 4.42-1.33 6.63-2.02a88.85 88.85 0 0 0 5.64-1.7c2.62-1.03 4.6-1.6 6.45-2.3.95-.33 1.88-.68 2.87-1.1 1-.4 2.08-.82 3.3-1.36a70.08 70.08 0 0 1 15.64-4.6c5.32-.88 10.78-1 16.25-.1.55.08 1.1.16 1.64.21a38.77 38.77 0 0 0 5 .42c1.1.02 2.2 0 3.3-.04l1.65-.09 1.67.02 6.66-.03c.56.02 1.1 0 1.66.05l1.66.18c1.1.14 2.2.31 3.29.52 4.7.78 9.32 2.44 13.9 3.66 1.06.34 1.92.72 2.9 1.04l1.4.48 1.34.57c.88.38 1.82.64 2.68 1.02.85.38 1.72.73 2.61 1.02 3.7 1.47 6.84 3.88 9.62 6.64.67.73 1.34 1.45 2.02 2.15l.13.13c.04.04.02.04.04.06l.04.1.1.2.18.36c.15.26.17.37.23.52.06.14.09.3.18.43.15.28.23.6.27.95l.03.28c0 .05.02.07 0 .16l-.07.36c-.12.65-.33 1.22-.51 1.83-.83 2.3-2.3 4.46-4.89 6.46a28.62 28.62 0 0 1-5.44 3.17c-.5.25-1.06.46-1.6.69a16 16 0 0 1-1.67.6l-1.7.57-.85.29-.87.21a89.3 89.3 0 0 1-18.68 2.85c-1.68.03-3.33.16-5.07.1l-2.58-.03-2.57-.16a84.4 84.4 0 0 1-10.24-1.17c-6.13-1.09-11.81-3.68-17.28-6.38-5.48-2.68-10.75-5.86-16.49-8.14l-2.66-1.18a66.77 66.77 0 0 0-7.08-2.85c-.73-.24-1.46-.46-2.19-.66-.74-.2-1.43-.4-2.27-.55-.81-.16-1.62-.3-2.42-.41l-1.2-.15a38.96 38.96 0 0 0-4.52-.24l-.72.02-.36.02h-.18l-.1.04-.82.27a20.85 20.85 0 0 0-2.37 1.01l-.05.03c.35-1.77-3.07 15.45-1.63 8.16v.21l-.03.31c-.03.21-.07.42-.12.62-.14.67-.33.98-.28.91v.02l.08-.14.18-.24.12-.12.25-.3a6.52 6.52 0 0 1 .81-.76l.57-.53c.38-.34.76-.65 1.12-.94l.54-.4.59-.43.36-.28-.05.03-.1.05-.19.11c-.52.31-1.11.64-1.78.9-1.3.57-2.63 1.32-3.82 2.12.96-.68 1.52-.32 1.56.17 0 .09-.02.24-.07.37-.06.09-.13.3-.23.4-.09.16-.18.35-.24.54-.08.22-.08.44-.05.71 0 .28.15.52.28.81.33.32.48.6.72.9.44.58.86 1.16 1.22 1.68s.7.96.91 1.32c.21.37.34.62.4.7 2.51 3.43 5.17 5.98 7.51 9.38.59.84 1.12 1.67 1.69 2.53l1.73 2.64 1.94 2.7a68.9 68.9 0 0 0 2.04 2.57c1.41 1.66 2.86 3.36 4.54 4.78a34.34 34.34 0 0 0 5.48 3.9 95.57 95.57 0 0 0 27.3 9.46c2.38.54 4.8.8 7.2 1.14 1.2.15 2.4.35 3.61.44l3.63.27 3.64.25c1.21.05 2.43.07 3.64.1 2.41.1 4.92 0 7.4-.04a97.51 97.51 0 0 0 25.98-4.28c2.16-.7 4.33-1.36 6.44-2.26l3.18-1.27c1.06-.45 2.1-.95 3.15-1.43 4.19-2 8.47-4.44 12.65-7.6a64.27 64.27 0 0 0 7.36-6.43 53.1 53.1 0 0 0 6.52-8.19l.73-1.12.66-1.17c.44-.78.88-1.56 1.3-2.36.74-1.6 1.55-3.23 2.13-4.9.3-.8.63-1.7.94-2.68.3-1.06.59-2.12.85-3.2l.37-1.6.26-1.63.52-3.26zM21.5 176.91l.04-.37c-.04.16-.12.26-.04.37zM18.83 231.66l-.41-.08c.15.12.29.12.4.08zM54.17 228.53l.05-.01c0-.02-.02-.01-.05 0z"/><path d="M55.2 220.14c.08-1.25.14-2.5.19-3.75.04-1.23.08-2.57.05-3.67-.04-2.31-.15-4.62-.33-6.93a91.9 91.9 0 0 0-.7-6.45c-.14-1.06-.33-2.14-.5-3.18a77.27 77.27 0 0 0-1.04-6.04l-.32-1.57-.23-1.64c-.33-2.2-.6-4.4-.8-6.63a90.14 90.14 0 0 1-.17-3.5l-.02-1.9.02-2.04.03-2.15v-2.3c0-1.53-.07-3.08-.1-4.57l-.14-2.27c-.04-.77-.08-1.52-.17-2.2l-.46-4.18c-.13-1.4-.41-2.75-.62-4.13-.23-1.36-.43-2.74-.75-4.07a81.18 81.18 0 0 0-4.84-15.5c-2.2-4.9-4.07-9.72-5.87-14.49l-.33-.9-.26-.8-.49-1.57-.95-3.17c-.53-2.14-.86-4.33-1.3-6.5-.2-2.15-.67-4.23-1.1-6.34a103.2 103.2 0 0 0-.55-3.2c-.18-1.08-.47-2.15-.53-3.25-.52-4.35-.66-8.87.64-13.21a65.25 65.25 0 0 1 1.9-5.12l.73-1.73c.2-.47.18-1.83.05-3.42l-.05.05.02-.2.03-.43a8.33 8.33 0 0 0-.05-1.19c-.01-.08-.03-.09-.05-.14-.02-.03-.03-.08-.06-.07l-1.53-.35-.86-.19-.7-.17-1.15-.33a8.08 8.08 0 0 1-.8-.28c-.21-.08-.37-.13-.54-.21l-.25-.13-.17-.08c-.1-.06-.21-.12-.31-.2a.95.95 0 0 1-.17-.12l-.08-.08-.03-.02a.35.35 0 0 1-.05-.07l.05.1c.06.13.05.17.08.33a4.3 4.3 0 0 1 .04 1.12c-.01.22-.06.35-.08.61-.05.46-.13.84-.21 1.12-.15.42.03.06.18-.86.05-.54.16-.87.12-1.43 0-.2 0-.36-.05-.57-.03-.16-.04-.23-.1-.35-.1-.22.04.36 2.02 1.01l.19.06.08.03h-.01l-.06-.03-.11.02c-.08 0-.16.06-.23.1-.15.1-.28.22-.38.34l-.4.54-.24.33c-.08.11-.18.31-.23.31a68.82 68.82 0 0 0-4.03 4.64c-.66.81-1.2 1.63-1.68 2.38-.47.76-.87 1.46-1.16 2.05-.63 1.32-1.24 2.46-1.66 3.56a44 44 0 0 0-2.04 6.38c-.2 1.16-.38 2.44-.55 3.93-.46 3.06-.44 6.15-.56 9.26l-.03 1.16.05 1.16.09 2.33.08 2.34c.03.78.03 1.57.13 2.34.16 1.55.31 3.11.44 4.69.08.79.11 1.59.21 2.37l.34 2.36c.21 1.58.41 3.18.58 4.81.17 1.54.28 2.9.37 4.37.14 2.34.46 4.58.96 6.78.42 2.2 1.08 4.36 1.6 6.49 1.2 4.27 2.2 8.5 2.35 12.72-.05 2.28-.03 4.55-.3 6.76a33.42 33.42 0 0 1-.9 5.91c-.17.81-.46 1.59-.67 2.36l-.42 1.37-.45 1.59-.46 1.75-.45 1.95c-.3 1.27-.53 2.7-.74 4.06-.23 1.47-.41 2.94-.67 4.4-.11.73-.26 1.44-.36 2.2l-.31 2.3-.69 4.58c-.24 1.54-.5 3.1-.63 4.5-.31 2.87-.65 5.85-.86 8.64-.19 2.7-.3 5.41-.27 8.12-.02 2.47 0 4.94.03 7.42l.01.99v1.61c-.02 1.09.05 2.14.13 3.18.06 1.06.19 2.07.33 3.08.12 1.02.31 1.98.5 2.95.17.99.4 1.89.63 2.82.1.46.22.92.35 1.36l.5 1.76c.37 1.27.79 2.37 1.17 3.56.38 1.17.9 2.27 1.34 3.41a32.35 32.35 0 0 0 8.46 11.54c4.26 3.66 9.52 6.01 15.08 7.17 2.81.58 5.63.86 8.6.97l1.94.04 1.73-.03 1.74-.05c.57-.02 1.1-.08 1.65-.12a84 84 0 0 0 14.11-2.56l11.13-2.74 11.52-2.89c3.78-.9 7.48-1.7 11.25-2.47l2.55-.48 1.27-.2.64-.11c.21-.03.49-.08.46-.06.38.04.77.1.9.28.37.32.53.8.47 1.25-.05.44-.3.72-.48.91-.18.2-.17.1.19-.01l.08-.02c.33-.04.63-.07 1.63.5l.1.05c.02.02.04.01.05.02h.03v.1l.07.88a30.63 30.63 0 0 0 .94 5.4c.69 2.45 1.7 4.98 3.51 7.92a6.14 6.14 0 0 0 3.8 2.16c1.5.28 3.1.23 4.53.07-.6.06-1.01-.04-1.29-.28-.25-.25-.34-.66-.25-1.15.1-.5.34-1.07.72-1.72a9.2 9.2 0 0 1 1.4-1.73c2.14-2.13 5.1-3.75 5.36-4.02.85-.76 1.61-1.54 2.33-2.35l.52-.62.55-.78c.36-.54.71-1.1 1.07-1.69 1.42-2.32 2.83-4.92 4.37-7.7a73.97 73.97 0 0 0 3.71-7.5c.88-2.23 1.6-4.46 2.02-6.61.4-2.17.61-4.22.24-6.37-.18-1.07-.5-2.16-.98-3.2a14.54 14.54 0 0 0-1.71-2.82 16.5 16.5 0 0 0-2.72-2.74l-.5-.38a21.87 21.87 0 0 0-4.82-2.44c-1.64-.83-3.83-.6-5.88-.7l-1.56-.02c-.52-.01-1.08.03-1.5-.12l-2.73-.62-2.75-.6-2.87-.26-2.88-.25c-.97-.04-1.96.06-2.94.08l-2.95.14c-.5 0-.97.09-1.44.17l-1.43.23-2.85.48-1.39.23-.79.15-3.17.62c-4.23.85-8.46 1.76-12.65 2.7l-12.18 2.94-5.18 1.25c-1.56.38-3.94.97-5.57 1.42-3.57.97-6.45 1.77-8.7 2.17-1.12.21-2.06.32-2.87.37l-.33.02H55.52c.01 0 .02.02-.02.02h-.19c-.24-.02-.48-.12-.6-.33-.16-.27 0-.67.2-.88a15.37 15.37 0 0 1-.1-3.09l.05-.58.1-.52.24-3.4z"/><g><path d="M278.1 199.21l.05-.03c-.03 0-.05-.07-.06.03zM250.34 177.38l.15-.38a.49.49 0 0 0-.16.38zM246.69 221.4v0z"/><path d="M247.06 223.37c-.04.17-.03-.06.32-.3l.15-.1c.1.06-.19-.29-.07-.21l.9.86.91.85 1.09.9 1.1.88c.37.28.73.56 1.2.86.88.59 1.77 1.15 2.68 1.67.95.53 2.05 1.03 3.09 1.48 1.02.47 2.19.83 3.35 1.15 1.17.3 2.32.62 3.5.73 1.23.14 2.44.23 3.64.27 1.14-.04 2.27-.14 3.39-.27l.83-.1.4-.06.11-.01.05-.01h.02c-.6.02-.17 0-.3 0h.01l.09-.03.7-.24.7-.24.5-.23.5-.23c.17-.07.52-.15.77-.23.57-.16 1.04-.3 1.76-.48 1.26-.34 2.8-.74 4.43-1.25.9-.3 1.72-.58 2.62-.94.96-.4 1.89-.83 2.8-1.28.97-.55 1.91-1.12 2.82-1.72l.17-.11.75-.48h.01l.02-.02.03-.04.13-.13.25-.26.5-.52.52-.52a46.07 46.07 0 0 0 2.39-2.29c.35-.38.8-.82 1.04-1.15l1.6-2.14c.54-.71.95-1.5 1.41-2.24a28.02 28.02 0 0 0 3.5-9.96c.48-3.3.4-6.5-.07-9.53a31.54 31.54 0 0 0-3.85-10.57c-.4-.64-.83-1.28-1.25-1.9-.41-.62-.93-1.22-1.42-1.8l-.75-.88c-.23-.24-.37-.36-.57-.55-5.89-5.51-10.09-11.95-13.98-18.66-.91-1.62-2-3.14-3.15-4.61-1.1-1.5-2.25-2.96-3.4-4.44a34.29 34.29 0 0 1-3.08-4.63 18.38 18.38 0 0 1-2.11-5.1c-.45-1.94-.73-3.92-1.03-5.86-.1-.94-3.73-4.71-5.02-5.34-.59-.28-1.86 3.17-2.17 4.17-.5 1.6-1.07 3.64-1.42 5.58a28.22 28.22 0 0 0-.24 8.18 32.97 32.97 0 0 0 2.01 8.28c3.54 9.13 8.13 17.38 11.04 27.06a24.34 24.34 0 0 0 2.43 5.48c.5.85 1.03 1.69 1.58 2.5l.85 1.23.21.3c.08.11.06.1.1.17l.15.25c.24.3.4.73.63 1.09.16.42.38.81.48 1.26.16.43.17.9.24 1.33-.03.44-.01.88-.17 1.27-.27.85-.7 1.55-1.22 1.78-.1.1-.27.09-.36.12l-.15.03-.17-.05c-.04 0-.13-.05-.1-.03l.23.13a2.23 2.23 0 0 1 .37.25h.02l.02-.1a1.77 1.77 0 0 1 .36-.75l.07-.08c.04-.03-.11 0-.16 0l-.89.06-.88.07-.22.02h-.16c-3.47-4.1 4.7 5.6 3.86 4.6l-.02-.03a3.64 3.64 0 0 1-.35-.72l-.03-.11-.07-.17a10.04 10.04 0 0 1-.57-1.78l-.06-.3-.03-.14-.07-.28a21.83 21.83 0 0 1-.5-2.28l-.1-.57c0-.09.02-.03.02-.05l-.1-.01-.52.03-.44.03h-.62l-1.7-.03-1.88-.05-.41-.01h-.23c-.07 1.4.14-3.14-.15 3.13v.06l.02.1c.03.22.04.47.03.72-.05 2.1-.67 1.7 1.06-.8.52-.82 1.1-1.53 1.76-2.21l.65-.79.01-.05.02-.08-.07-.2-.05-.11-.02-.06-.02-.02-.13-.2-.58-.82-.4-.68-.83-1.37c-2.17-3.64-4.42-7.36-6.98-10.2a27.46 27.46 0 0 0-7.86-6.22 24.14 24.14 0 0 0-4.14-1.67c-1.4-.46-3.03-.7-4.75-.77-1.73-.07-3.36.19-4.64.54-.65.16-1.27.4-1.9.61a29.38 29.38 0 0 0-10.31 6.59c-.8.87-1.62 1.7-2.4 2.6-.8.9-1.58 1.83-2.39 2.7-.8.85-1.59 1.77-2.43 2.58l-1.26 1.22c-.41.41-.82.8-1.36 1.26-.33.29-.3.25-.4.33l-.24.18a4.8 4.8 0 0 1-.47.34c-.29.17-.6.43-.86.55a5.83 5.83 0 0 1-1.6.69c-.07.03 0-.02.05-.05l.13-.08c.1-.05.2-.08.3-.1l-.82.22c-.08-.02-.12.12-.16.25l-.12.36-.13.37-.06.18c1.13 2.93-2.53-6.54 2.53 6.57v.03l.02.05.03.08c.06.22.12.45.16.68l.1.65c.07.32.07.8.09 1 0 .12 0 .25-.02.4l-.01.23-.05.27.01-.04.04-.09c.06-.14.1-.21.26-.46l.21-.3.3-.38.38-.42c.14-.16.28-.27.44-.43.17-.18.35-.34.54-.49l.28-.22.32-.27c.22-.17.44-.33.67-.48.23-.16.5-.36.75-.52.5-.3 1.07-.67 1.66-1 .56-.27 1.23-.67 1.85-.94.32-.13.66-.31 1-.45l.44-.2v.01a8.25 8.25 0 0 1-.43-1.4 13.1 13.1 0 0 1-.26-2.14l-.01-.29.22-1.31c.09-.46.09-.9.23-1.37l.39-1.42c.12-.46.24-.94.45-1.44 1.32-3.75 4.26-7.49 7.54-11.9 1.57-2.04 3.5-4.99 4.8-6.84 1.4-2.1 2.56-4.26 3.79-6.76.6-1.3 1.3-2.7 1.96-4.2.7-1.55 1.39-3.2 1.86-4.94a20.66 20.66 0 0 0 .74-5.57c-.03-1.98-.41-4.03-1.29-6.13-.85-2.05-3.4-4.1-5.82-5.62 3.96 2.52-7.95 3.02-8.58 3.15-3.92 1-6.73 3.1-10.02 4.74-3.18 1.68-6.58 3.01-9.71 4.8-1.56.9-3.06 1.9-4.46 3.01a25.21 25.21 0 0 0-3.62 3.56 76.91 76.91 0 0 0-8.9 14.2 62.79 62.79 0 0 0-5.83 19.78c-.18 1.6-.26 3.33-.25 4.74a49.12 49.12 0 0 0 1.7 12.53c.67 2.46 1.6 5.09 3.17 8.02.82 1.5 1.8 3.05 3.1 4.68a25.89 25.89 0 0 0 12.84 8.74 25.89 25.89 0 0 0 15.4-.28l1.03-.34.41-.15.62-.23 1.24-.5 1.22-.51.59-.27.43-.22 1.72-.9c1.14-.61 2.1-1.24 3.14-1.89 1.9-1.28 3.67-2.6 5.2-3.9l.59-.5.14-.12c.04-.03 0 0 0 0l-.05.04.02-.02.12-.09c.08-.06.15-.1.23-.13.18-.08.36.05.46.34.12.32.07.8.02.95z"/></g><g><path d="M391.1 291.58l.04-.12c-.03.05-.08.07-.05.13zM382.72 307.72l-.2-.13c.06.06.13.1.2.13zM400.11 320.25l-.02.1c.03-.04.03-.07.02-.1z"/><path d="M404.26 314.07a24.34 24.34 0 0 0 2.96-9.56c.15-1.7.14-3.49.27-5.24.13-1.74.47-3.46 1.15-4.98 1.49-3.24 3.34-6.29 4.4-9.88a29.76 29.76 0 0 1 2.1-5.1c.84-1.61 1.77-3.2 2.7-4.85a14 14 0 0 0 1.08-2.5c.28-.87.5-1.78.72-2.67.46-1.8 1-3.52 2-5.1.55-.83 1.23-1.6 1.83-2.43.07-.1.1-.35.11-.67l-.01-.53V260.44c-.05.12.32-1.05.16-.56v-.02l-.04-.14-.07-.28-.17-.57-.04-.14-.05-.21-.1-.4c-.13-.51-.28-.9-.41-1.1-.12-.17-.59.24-1.08.67-.49.49-1.03.73-1.25.88l-.29.17-.14.1-.07.04-.04.03-.02.01h-.01l-.05.16-.67.34-1.33.7c-.85.48-1.6.95-2.02 1.3-.84.72-1.43 1.24-1.97 1.79-.56.54-1.04 1.12-1.6 1.95l-1.73 2.56a56.1 56.1 0 0 1-1.88 2.47 23.41 23.41 0 0 1-4.6 4.44 12.2 12.2 0 0 0-3.27 3.97c-.86 1.48-1.62 3.03-2.78 4.36-1.25 1.43-2.63 2.78-3.9 4.27a20.42 20.42 0 0 0-3.3 4.75c-1.82 3.81-4.63 6.7-6.23 10.32-1.57 3.56-2.82 7.22-4.55 10.75-.5 1.08-1.03 2.15-1.57 3.2l-.42.8-.1.2-.07.13-.07.11-.3.4c-.6.82-.53.94-.84 1.3-.3.31-.74.19-1.09-.05a.79.79 0 0 1-.22-.23l-.04-.08-.02-.02-.12-.06-.25-.12-1-.49a24.34 24.34 0 0 1-3.13-1.77l-.25-.18c-.08-.06-.16-.12-.17-.15-.06-.08 0-.12 0-.17.03-.09.06-.16.09-.2.04-.08.09-.08-.1.04-.09.06-.17.1-.31.13l-.26.05-.09.01c-.02 0-.02.02-.05-.01l-.1-.14-.43-.55a14.5 14.5 0 0 0-1.94-2.16c-.27-.26-.51-.44-.88-.75a10.24 10.24 0 0 0-1.57-1.03c-.18-.1-.34-.12-.52-.18-.7-.17-1.38-.3-2.15-.25-1.47.08-3.05 1.3-4.31 2.48.52-.5.81-.44.96-.1.07.17.1.4.1.69a7.57 7.57 0 0 1-1.05 2.93c-.32.51-.64.9-.68.96-.5.89-.85 1.64-1.13 2.47-.15.36-.23.9-.3 1.44-.08.54-.14 1.1-.19 1.67-.2 2.2-.14 4.63.7 6.9a11.05 11.05 0 0 0 4.67 5.75c.6.37 1.27.73 1.74.98l.7.37.63.32 1.22.57 1.08.48 1.82.8 3.86 1.86c2.69 1.2 5.29 1.78 7.82 1.79.31 0 .63 0 .95-.02l.95-.1c.63-.04 1.25-.25 1.88-.4l1.92-.51c.61-.23 1.19-.6 1.78-.88a15 15 0 0 0 5-4.18 19.6 19.6 0 0 0 1.88-2.87l1.32-3.14 1.32-3.13.67-1.56.43-.95c.5-1.1 1.03-2.2 1.58-3.27 1.43-2.68 3.3-5.34 4.84-8.11z"/></g><g><path d="M341.02 328.86l.01-.02c-.01 0-.03-.03 0 .02zM337.87 329.29l.06-.25-.06.25zM329.01 349.5l-.12-.02c.05.03.09.03.12.01z"/><path d="M336.94 351.54l.72.02.73-.06a32.56 32.56 0 0 0 2.9-.42 12.08 12.08 0 0 0 3.46-1.37c.7-.42 1.36-.85 2-1.4.7-.59 1.32-1.2 1.92-1.85.65-.72 1.26-1.44 1.82-2.14l1.57-2.12c.47-.71 1-1.33 1.52-1.94a19.1 19.1 0 0 0 3.34-5.35c.15-.38.24-.76.35-1.15.1-.38.18-.77.25-1.15.05-.38.06-.75.07-1.13.03-3 .47-5.4.78-7.9.17-.87-.21-1.57-.37-2.27-.05-.18-.11-.38-.13-.54 0-.16 0-.32.02-.48.02-.16.06-.31.12-.45.07-.14.21-.24.35-.33.23-.13.5-.22.74-.3l-1.24 1.43.56-.13c.3-.08.54-1.95.36-2.59-.08-.29-1.6-.87-2-1.02-.82-.3-1.83-.6-2.65-.83l-.07.08a6.18 6.18 0 0 0-3.06 1.48 5 5 0 0 0-1.14 1.55c-.3.7-.64 1.44-.86 2.15l-.35 1.07c-.12.35-.25.77-.37 1a8.84 8.84 0 0 1-.91 1.52c-.4.46-.84.9-1.4 1.29-.46.29-.76.58-.96.88-.2.3-.35.55-.44.85-.21.52-.36 1.01-.86 1.13-.26.09-.61.07-.88.08-.31-.03-.6-.08-.84-.14-.54-.14-.86-.28-1.04-.17a.55.55 0 0 1-.16.06h-.33c-.13-.01-.23-.02-.37-.05l-.45-.1c-.27-.04-.62-.13-.95-.16-.15-.06-.21-.09-.27-.04-.12.1-.28.28-.49.43-.2.15-.45.25-.62.15-.2-.1-.3-.38-.28-.67.02-.19 0-.31-.03-.42a.7.7 0 0 0-.06-.15l-.05-.08-.02-.03-.06-.11a44.33 44.33 0 0 1-1.7-4.49c-.49-1.54-.6-3.39-1.09-5.51-.5-2.1-1.42-4.61-3.8-6.88l-7.07-6.7-6.09 3.6-.35.23c-1.38.97-3.38 1.9-3.05 6.59.08 1.14.67 3 1.29 4.6-1-2.63 2.76 2.2 2.98 2.41 1.33 1.28 2.4 1.64 3.58 2.4.8.52 1.6 1.12 2.4 1.69l-7.81-1.84c-.23.33-.47.63-.7.9l-.34.36-.31.39-.51.6c-.13.21-.22.4-.26.54-.23.97 0 2.2.45 3.7s1.1 3.24 1.9 5.32l.38.97.45 1.01c.3.68.66 1.32.99 1.98.31.67.74 1.26 1.11 1.88a21.81 21.81 0 0 0 7.59 7.36 19.34 19.34 0 0 0 10.09 2.76z"/></g><g><path d="M304.3 334.24l-.1-.12.1.12zM304.3 334.1l-.02.05a.24.24 0 0 0 .02-.04zM292.68 346.5l-.09-.04c.03.04.06.05.09.04z"/><path d="M302.25 351.75a15.27 15.27 0 0 0 4.18-.37l-5.88.01c1.07.26 2.23.15 3.48-.33l4.1.22c.82-.26 1.6-.6 2.31-.98.66-.38 1.24-.82 1.8-1.27.52-.45.89-.9 1.3-1.38l.27-.35.22-.34.4-.67c.28-.45.45-.86.61-1.26.68-1.62.94-2.9 1.45-3.87 1.08-2.05 1.97-3.66 1.97-5.42-.01-.42.03-.8.1-1.13.13-.47.36-1.03.57-1.52.41-1 .88-1.96 1.28-2.95.2-.47.26-.98.24-1.5 0-.52-.06-1.03-.15-1.54-.14-1.02-.3-1.97.17-2.89.23-.5.6-.98.87-1.5.14-.27-1.18-1.55-1.78-1.75-.28-.09-1.68.65-2.05.82-1.2.63-2.87 1.4-3.39 1.78-1.1.75-1.55 1.06-2.03 1.79-.24.37-.47.74-.73 1.07a5.27 5.27 0 0 1-1.97 1.69c-.21.1-.44.18-.68.25-.26.06-.52.1-.8.11-.24.01-.42.04-.58.08-.06 0-.18.1-.27.18a4.84 4.84 0 0 0-1.04 1.31c-.4.7-.64 1.37-1.27 1.74-.67.39-1.45.63-2 .65-.15.03-.27 0-.38-.02-.1 0-.2-.02-.24-.07 0 0-.07-.05 0 0l.4.38.73.65c.21.2.42.4.63.63.2.22.4.46.55.6 1.3 1.47 1.6 2.53 1.6 2.64l2.88-6.7c-.87-.53-1.73-1.09-2.7-1.23l-.37-.05-3.02 8.61a.65.65 0 0 1-.04-.19c0-.06.02-.05.01-.25 0-.15.02-.29.06-.42.01-.08.04-.1.06-.22l.08-.33c.12-.45.3-.76.57-1.4.26-.56.56-.96.97-1.7.2-.32.4-.64.63-.94l.35-.45.39-.56.41-.56.21-.27.03-.03c-.01.01-.01.03-.03.03a.8.8 0 0 1-.34-.23 7.04 7.04 0 0 1-1.13-1.69 15.88 15.88 0 0 0-2.45-3.23l-1.7-1.74-.84-.87c-.27-.3-.54-.6-.79-.84-.89-.92-1.47-2.27-2.03-3.45-.38-1.02-.82-1.93-1.81-2.34-.88-.4-1.7-1.08-5.77 1.12-.99.53-2.57 1.68-3.91 2.75 1.1-.87.71-.17.05.81l-1.65 2.38c-.85 1.55-.91 2.57-1.27 3.88l-.56 1.97c-.2.63-.38 1.27-.52 1.88-.29 1.22-.41 2.33-.1 3.08.16.39.36.77.54 1.1a7.8 7.8 0 0 0 1.55 2.26c.45.45.69.8 1.04 1.16l1.02 1.06.44.45.46.53 1.23 1.41c.92 1.04 1.9 2.17 3.16 3.54.73.8 1.6 1.81 2.95 2.94.38.3.73.58 1.16.87.5.33 1.03.64 1.57.93.61.3 1.45.64 2.2.88a16.32 16.32 0 0 0 3.02.56z"/></g><g><path d="M261.17 326.1l.06.06c-.02-.03 0-.07-.06-.06zM236.45 315.69l-.14-.2c.01.1.07.16.14.2zM252.45 329.92v.07c.02-.03.01-.05 0-.07z"/><path d="M247.3 322.52c0 .01 0 .2-.1.55l-.1.28c-.05.08-.09.15-.15.31-.11.27-.25.52-.42.74l-7.87 2.53c.2.32.43.63.66.94l-1.8-7.02c-.03 2.5.42 4.82 1.17 6.77a17.53 17.53 0 0 0 2.88 4.94 27.44 27.44 0 0 0 5.36 4.74l2.62 1.86 1.22.92.59.48.29.24.38.35c2.13 1.94 4.25 3.72 6.84 4.66 2.54.97 5.36 1.1 7.96.4 2.6-.67 5-1.62 7.16-3a22.3 22.3 0 0 0 5.69-5.25c.4-.5.74-1.04 1.02-1.56.27-.5.51-1 .7-1.52l.27-.79.13-.38.07-.3.3-1.18c.37-1.53.9-2.97 1.97-3.86.3-.2.6-.43.9-.57.32-.13.63-.25.9-.38.14-.06.2-.46.23-1.04.04-.47.08-1.08.05-1.43-.02-.15-.35-.43-.78-.66a6.39 6.39 0 0 0-1.2-.5 9.27 9.27 0 0 0-2.72-.08c-.47.07-.94.16-1.35.27-.4.12-.73.26-.99.39-2.05 1.1-2.95 1.79-4.22 3.52-.33.45-.65.9-.95 1.35l-.45.68-.4.51a7.83 7.83 0 0 1-1.67 1.65c-1.11.79-2.46 1.18-3.75.7a5.43 5.43 0 0 0-2.35-.4c-.66 0-1.4-.07-1.82-.75a3.45 3.45 0 0 1-.43-1.17c-.04-.2-.06-.4-.08-.58v-.24c.02-.07.05-.12-.07-.32-.65-1.3-1.23-2.52-1.95-3.48a5.05 5.05 0 0 1-1.03-2.8c-.02-.2 0-.35.03-.5 0-.15.06-.24.09-.33 0-.11.1-.1.1-.15-.01-.01.02-.01 0 0l-.27.01c-.18 0-.37 0-.57-.02l-.73-6.23c-.15-.24-.3-.48-.47-.72l-.16-.24-1.69-2.44-1.77-1a14.07 14.07 0 0 0-5.57-1.93 13.27 13.27 0 0 0-11 3.91c-.9.9-1.57 1.77-2.07 2.5a27.39 27.39 0 0 0-2.18 3.93c-.54 1.15-.97 2.2-1.4 3.17-.5 1.16-.97 2.25-1.41 3.21l-.15.32-.05.06-.1.1c-.06.06-.13.12-.2.16l-.03.02c-.34.22-.6.44-.97.53-.17.05-.37.09-.55.09.09 0-.58-.02-.48-.05h-.02c0 .02 0-.02-.02.03l-.15.53-.17.52c-.05.18-.12.37-.13.47a9.72 9.72 0 0 1-1.04 2.83c-.1.21-.1.3-.18.45a4.09 4.09 0 0 1-.54.9c-.07.08-.2.21-.18.22-.07.14-.22.3-.37.4.1-.08.16-.1.24-.14a3.3 3.3 0 0 1 1.15-.42c.85-.29 1.7-.46 2.56-.52l.2-.02.34-.06.7-.1c.47-.07.93-.13 1.4-.18l.7-.06h.04l.03.01c.02.04.05-.04.07-.1l.07-.19c.05-.07.1-.32.15-.56.1-.38.2-1.09.3-1.7l.1-1.13a19.63 19.63 0 0 0-.79-7.08 17.77 17.77 0 0 0-2.15-4.45 17.93 17.93 0 0 0-4.86-5.12l-.97-.64c-.36-.22-.73-.43-1.1-.61-.16-.08-.4-.22-.51-.23l-.34-.03a7.14 7.14 0 0 0-.7 0l-.18.01H221.94v.01l-.37-.3h-.03l-.1-.03a11.01 11.01 0 0 0-2.22-.37c-.52-.02-1.02 0-1.5.06a8.37 8.37 0 0 0-2.15.4c-.11.05-.27.1-.28.17a10.02 10.02 0 0 0-.65 1.61c-.25.82-.44 1.71-.58 2.56.12-.7.33-.83.58-.62.03.04.18.13.32.25s.28.25.4.4c.3.3.4.67.52 1.05.45 1.52-.2 3.14-.14 3.33.01.54-.07 1-.11 1.41l-.07.58-.02.61c-.02.77-.05 1.53-.2 2.29-.1.45-.22.88-.36 1.3-.17.43-.35.83-.53 1.2A4.78 4.78 0 0 1 213 328c-.71.56-1.25.7-1.49 1.26a6.8 6.8 0 0 0-.4 1.42l-.03.23-.05.3-.08.63-.05.78-.04.86.04 1.17.04.59.1.75c.09.52.19 1.05.3 1.57a17.88 17.88 0 0 0 1.06 2.88 17.76 17.76 0 0 0 1.94 3 19.36 19.36 0 0 0 2.5 2.36 21.95 21.95 0 0 0 2.45 1.5c.32.17.49.23.72.33l.68.28 1.38.5c.46.14.75.2 1.13.29l1.1.24c.36.08.74.15 1 .18l.9.1 1.09.11c.74.08 1.44.06 2.17.1.72 0 1.44.06 2.15 0l2.13-.14a19.78 19.78 0 0 0 9.06-3.38c.99-.8 2-1.6 2.8-2.6.42-.47.8-1 1.24-1.45.38-.5.74-1.04 1.1-1.57.57-.95 1.06-1.95 1.54-2.97l.67-1.55.55-1.33c.47-1.14.9-2.14 1.32-3.02a7.65 7.65 0 0 1 1.53-2.33l.09-.03-.24-.15-.5-.37a29.6 29.6 0 0 1-1-.77c-.57-.41-1.14-.9-1.64-1.36-.44-.36-.9-.86-1.26-1.23a6.33 6.33 0 0 1-.49-.55l-.22-.29-.18-.22a4.03 4.03 0 0 1-.32-.49l-.22-.36c-.13-.32-.19-.38-.23-.6l-.03-.1v-.05z"/></g><g><path d="M196.8 311.79l.1.12c-.03-.07-.04-.15-.1-.13zM176.79 309.46l-.04-.26c-.01.1 0 .19.04.26zM184.11 333.48l.01.04-.01-.04z"/><path d="M184.64 334.45c.02.12-.02 0 .05-.4a6.15 6.15 0 0 1 .63-1.72 3.9 3.9 0 0 1 1.5-1.65c.58-.3 1.22-.22 1.58.25.15.2.3.4.45.63l.22.32.5.8a37.16 37.16 0 0 0 1.12 1.6c.04.05.08.1.1.1l.05.03h.02c.01 0-.03 0 .04-.02l.22-.06 4.23 4.51c.42.05.84.09 1.26.11l3.46.2.53-.34.44-.28c1.58-1.04 3.8-2.19 5.75-4.27.24-.25.47-.53.69-.8l.32-.42.27-.37.19-.28.28-.42.46-.74c.55-.94 1-1.86 1.39-2.7.37-.8.56-1.59.69-2.3.05-.33.12-.75.12-.97 0-.23 0-.45.02-.68.05-.84.55-1.94 1.43-2.25.45-.16.96-.08 1.16.1.02.02.01-.03-.03-.14a6.91 6.91 0 0 1-.31-.94c-.15-.64-.1-.79-.1-.82-.03.15.05-.41-.04-.81a2.34 2.34 0 0 0-.47-1c-.42-.54-1.23-1-2.1-1.2a5.25 5.25 0 0 0-2.24-.05c-1.05.26-1.8.56-2.48.95-.67.4-1.27.9-1.97 1.75-.35.45-.68.91-.97 1.4l-.77 1.34c-.47.8-.92 1.53-1.4 2.12-.92 1.2-2.2 1.9-2.87 1.06-.6-.48-1.08-.4-2.2-.03l4.55-.17-1.18-.36 4.93 4.89c-.34-1.13-.72-1.99-1.05-2.74-.32-.76-.61-1.41-.8-2.02l-.16-.58-.04-.23v-.1l-.06-.19-.6-1.9-1.3-4.03c-.24-.69-.46-1.4-.73-2.08-.28-.65-.57-1.3-.88-1.93a16.92 16.92 0 0 0-2.07-3.37c-.4-.59-.82-.95-1.23-1.37-.4-.42-.81-.85-1.21-1.3l-2.83-1.73a4.18 4.18 0 0 0-1.72-.62 15.1 15.1 0 0 0-1.95-.22 17.64 17.64 0 0 0-3.96.16 17.14 17.14 0 0 0-7 3.06 26.33 26.33 0 0 0-5.5 5.58c-.69.9-1.34 1.92-1.93 2.98-.3.54-.6 1.06-.94 1.55-.17.23-.35.5-.5.68l-.24.3-.09.06c-.25.24-.3.21-.42.24-.4.06-.64.19-.96.3-.3.12-.7.18-1.01.05-.16-.05-.21-.31-.12-.6.14-.42.45-.79.68-.95.11-.08.2-.12.23-.13h-.01c-.02-.02-.02.1-.08-.1l-.17-.45c-.38-.97-.66-1.88-1.42-2.82a8 8 0 0 0-1.55-1.41c-.33-.05-.71-.1-1.14-.2-.22.03-.45-.26-.7-.41l-.8-.6c-1.1-.76-3.11-.74-4.84-.6.72-.07.93.11.79.42-.14.32-.62.75-1.2 1.06-1.18.54-2.62 1.4-2.76 1.5-1.58 1.26-2.15 2.7-3.09 4.14-.44.7-.93 1.4-1.4 2.1-.25.35-.48.7-.7 1.08-.2.48-.39 1-.55 1.51a11.78 11.78 0 0 0-.25 6.63c.37 1.33.86 2.64 1.47 3.86.63 1.21 1.33 2.35 2.05 3.54 1.37.86 2.86 1.74 4.26 2.52 1.44.78 3.14 1.14 4.82 1.48 3.37.66 6.92.86 10.4.35 3.52-.5 6.92-1.87 9.82-3.93a26.08 26.08 0 0 0 4.8-4.41l.48-.57.07-.1a.26.26 0 0 1 .1-.07c.16-.09.45.39.47.64z"/></g><g><path d="M134.32 319.08l.08.07c-.03-.04-.02-.1-.08-.07zM124.15 305.92l.21-.12a.61.61 0 0 0-.2.12zM104.61 314.81l-.09-.08c.03.05.06.07.1.08z"/><path d="M108.68 322.16c.58.86 1.01 1.37 1.56 2a26.52 26.52 0 0 0 6.04 5c.84.52 1.76 1.03 2.65 1.5l2.82 1.46c.99.5 1.87 1 2.87 1.52.25.15.46.25.74.43l.8.52.88.48c.19.1.38.2.56.32l1.36.84 2 1.23h1.74a13.33 13.33 0 0 0 3.19-.38c.64-.2 1.33-.46 1.95-.78a10.3 10.3 0 0 0 3-2.5c.31-.4.65-.86.81-1.15.2-.32.44-.73.54-.97l.2-.41.1-.2.05-.11.23-.53.01-.04.34-1.11.08-.28.1-.44.21-.94.17-.95.04-.23v-.14l.02-.28a19.75 19.75 0 0 0 .02-2c.01-.28.07-.49.1-.74.15-.54.41-1.16.83-1.94l.66-1.25.37-.68.38-.81c.59-1.16.94-2.4 1.31-3.64l.13-.61a11.55 11.55 0 0 0 .19-2.41c0-.08-.02-.22-.04-.25l-.04-.07-.02-.02h-.01l-.13-.04a7 7 0 0 1-.49-.18c-1.38-.6-1.99-1.01-2.3-1.35a.73.73 0 0 1-.15-.2v.03l.01.02.05.14c.03.1.02.15.03.28.04.19.05.37.03.55 0 .18-.05.32-.06.64a4.99 4.99 0 0 1-.25 1.2l-.02.04v.02l-.4-.13.04.02.08.02c.22.06.43.12.63.2l.12.04-.02.02a.16.16 0 0 1-.05.01h-.04l.1.12c.09.1.17.19.24.3.34.53 1.1 1.5 1.75 2.29.33.4 3.15.85 3.91.61.33-.11-.12-2.11-.2-2.64-.16-.88-.39-1.93-.62-2.87a12.5 12.5 0 0 0-.74-2.28c-.24-.53-.56-.98-.85-1.4-.2-.23-.41-.44-.63-.65l-.58-.5-.46-.38-.06-.05-.03-.02-.02-.01-.24-.08-.22-.1-.49-.16a4.77 4.77 0 0 0-3.91.48c-.3.18-.57.39-.84.61a9.1 9.1 0 0 0-.64.68c-.2.23-.33.44-.49.67a11 11 0 0 0-1.09 2.33c-.24.68-.42 1.31-.59 1.86l-.25.76c-.08.16-.15.33-.24.49-.19.3-.41.56-.6.83-.23.26-.5.43-.78.69-.26.23-.69.58-1.04.84-.38.3-.86.7-1.32 1.04-.4.34-.8.78-1.15 1.2-.36.43-.7 1.09-1 1.65-.35.62-.5 1.16-.71 1.75l-.28.86-.17.66-.24.98-.04.18c-.02.08.03.06-.1.32-.17.4-.35.79-.55 1.17v.02l-.01.01.22-.52-.01.02-.02.02-.05.04-.1.09c-.04.05-.03-.02-.05-.03.53.3 1.05.65 1.56 1 2.03 1.3 2.45 2.15 2.4 2.06a.93.93 0 0 1-.1-.28l-.1-.32a3 3 0 0 1-.07-.39l-.02-.4a8.01 8.01 0 0 1-.05-2.03l4.58-1-1.31-1.5-.17-.19-.08-.09-.01-.04-.04-.16-.07-.2a9.28 9.28 0 0 0-.51-.78c-.13-.19-.27-.4-.42-.59-.3-.38-.62-.72-.99-1.12-2.25-2.27-3.57-6.02-6.25-9.12l-1.83-2.09-1.7-1.9-.84-.96-.8-1.08a48.56 48.56 0 0 1-1.54-2.2c-1.17-1.71-2.15-3.7-3.1-5.61a121.62 121.62 0 0 0-3.92-7.27c-1.36-2.44-2.76-4.85-4-7.39-2.24-4.6-2.46-10.04-5.55-14.43-.4-.58-.82-1.22-1.3-1.85-.6-.87-1.55-2.18-2.77-3.26-.3-.27-.62-.55-.94-.77-.32-.22-.64-.41-.96-.6a9.18 9.18 0 0 0-2.06-.8 7.39 7.39 0 0 0-4.33.24c-1.4.54-2.55 2.18-3.4 3.69.35-.62.65-.67.9-.4.12.15.22.36.3.62.07.29.12.61.14.95.11 1.38-.4 2.99-.43 3.15a29.1 29.1 0 0 1-.94 4.7c-.74 3.43-2.25 6.86-1.53 9.76 1.5 6.02 4.62 11.35 7.57 16.86 2.58 4.7 5.46 9.23 8.36 14.03.89 1.44 1.66 2.94 2.54 4.48.95 1.55 1.91 3.12 2.95 4.63z"/></g><g><path d="M152.58 268.3v0zM154.2 268.75l-.2.43.2-.44zM168.28 240.53h.06c-.02-.03-.04-.02-.06 0z"/><path d="M164.47 236.98c-.7-.3-1.44-.52-2.19-.64-.75-.13-1.5-.1-2.25-.07a9.75 9.75 0 0 0-4.25 1.6c-.33.23-.67.44-.98.72l-.9.88c-.6.6-1.08 1.27-1.6 1.9l-.63.98a7.5 7.5 0 0 0-.56.92c-.33.58-.64 1.1-.95 1.51l-.51.63-.64.7-.65.7-.75.88c-.25.3-.5.58-.75.91l-.78 1.15c-.25.4-.5.78-.74 1.22-.23.49-.46.99-.68 1.5-.21.51-.44.99-.65 1.46a34.7 34.7 0 0 1-1.23 2.82c-.25.35-.5.7-.77 1.03l-.8 1c-.28.3-.58.57-.88.85l-.34.3-.28.23-.6.42c-.37.27-.67.63-.96 1.01l-.81 1.23c-.55.82-1.2 1.55-2.15 1.67-.5.07-1.05-.05-1.5-.1-.12-.02-.23.35-.35.82-.05.42-.14.96-.14 1.28-.03.3.92 1.46 1.28 1.74.52.44 1.22.91 1.92 1.26.68.34 1.36.58 1.77.64 1.64.22 2.44.24 3.77-.29 1.37-.56 2.66-1.22 4.02-1.85l1.05-.46c.16-.07.38-.18.5-.2l.38-.03c.5-.02.97.04 1.46.24.77.32 1.08.17 1.35-.15.27-.3.5-.77.8-.63.3.15.55.6.7 1.02.16.4.27.8.42.56.16-.26.35.14.44.63.1.47.1 1 .28.84.18-.15.45-.4.63-.5.18-.11.27-.1.27.1 0 .25-.07.63-.2 1.05-.17.53-.13.7-.04.9.09.18.23.4.22.67 0 .06-.03.13-.1.2l-.04.05c-.02.02-.04 0-.04.13l-.04.6c-.07.8-.18 1.63-.28 2.42l-.08.57.05 1.17c.04.8.1 1.6.19 2.4.03.19.01.4.1.58l.27.54a28.14 28.14 0 0 0 1.2 2.1l.34.5.17.26.11.13c1.2 1.31 2.45 3.28 7.09 2.37a18.57 18.57 0 0 0 4.39-1.9c-2.47 1.36 1.75-3.13 1.92-3.38 1.06-1.53 1.25-2.68 1.82-4 .27-.64.6-1.28.91-1.93.14-.37.4-.51.6-.73.22-.2.44-.39.66-.56.84-.66 1.7-1.08 2-1.28.19.09.2-.64.24-1.12a17.83 17.83 0 0 0-.06-2.98c-.11-.9-.24-1.82-.38-2.73l-.45-2.72-.36-2.82-.35-2.8c-.1-.96-.11-2.03-.17-3.04.1-3.75-.96-6.24-1.8-8.65a90.75 90.75 0 0 1-1.6-2.55c-.06-.1-.12-.23-.19-.32l-.17-.2-.35-.41a28.1 28.1 0 0 1-.68-.86l-.4-.54-.35-.48a9.91 9.91 0 0 0-3.92-3.07z"/></g><g><path d="M191.62 277.02v.03s.02.05 0-.03zM192.38 275.8v0zM194.84 242.74l.1-.02c-.05-.01-.08 0-.1.02z"/><path d="M188.62 241.65c-.48.05-.9.17-1.33.33-.36.17-.7.4-.95.68-.52.59-.82 1.42-1.08 2.66-.5 2.5-1.18 7.32-2.74 10.73l-.28.58c-.39.9-.76 1.96-1.14 2.94-.2.47-.32 1.08-.45 1.66l-.38 1.76-.33 1.66-.15.83c-.06.26-.08.58-.2.75l-.59 1.2-.27.62-.14.36c-.64 1.92-2.14 2.93-3.79 3.75-.4.17-.7.47-1.03.77-.34.31-.56.65-1.13 1.08-.67.5-1.28 1.05-1.92 1.53-.6.54-1.2 1.05-1.89 1.5l-.55.35-.15.09c-.05.03-.15.12-.17.1l-.19.06-.38.1c-.12.01-.2-.02-.28-.02-.04 0-.04.07 0 .2.05.1.16.22.25.4.26.46.35.51.43.68.08.15.13.29.15.36.04.1.2.5.44.85s.61.7.78.78c1.05.85 3.28.82 3.96.8 1.47-.08 2.04-.03 3.1-.17l.43-.05c.52-.05 1.29-.32 1.97-.5l2.1-.63c1.43-.43 2.94-.84 4.7-1.17a5.56 5.56 0 0 0 2.83-1.5l.37-.35.29-.29c.3-.3.54-.73.98-.75.37 0 .73.13 1.01.3.44.27.7.67.74.34.04-.3.15-.11.26.2.1.28.2.68.24.38.03-.27.06-.86.26-1.14.17-.3.4-.56.61-.52.25.03.44.39.44.94.02.67.08.82.2.97.1.14.22.27.23.6 0 .31-.44 1.1-.84 1.5-.4.43-.74.56-.37.47.1-.02.18-.02.33-.03.02-.04.1.1.16.21a6.03 6.03 0 0 0 .77.99l.34.3.19.15.1.07.05.04h.01l.01.01.1.41.01.03.07.13a11.94 11.94 0 0 0 1.88 2.8c.2.2.35.27.54.39.67.4 1.54.88 1.95.66.26-.04.52-.1.8-.16.12-.04.29-.05.4-.13l.3-.27c.83-.7 2.45-1.82 3.82-2.85-.56.42-.74.47-.69.29.03-.1.1-.25.22-.45.07-.23.18-.5.3-.8.26-.55.58-1.25.92-1.7.31-.48.7-.73.75-.77l.25-.16.13-.06.06-.03-.09.03-.09.01h-.02l-.01.01.37-.02.03-.03.11-.1.2-.22c.27-.29.5-.57.71-.84l.61-.84c.2-.28.42-.51.62-.92.84-1.42 1.8-3.08 2.54-4.92.37-.92.69-1.88.9-2.85.22-.96.34-1.96.28-2.82a66.4 66.4 0 0 0-1.73-10.9c-.12-.42-.19-.92-.34-1.26l-.46-1c-.31-.71-.65-1.27-.99-1.83-.33-.6-.68-1.08-1.03-1.58-.34-.54-.72-.94-1.08-1.37a14.85 14.85 0 0 0-4.25-3.34l-1.25-.59c-.45-.18-.9-.39-1.42-.55a22.94 22.94 0 0 0-3.33-.82c-.7-.14-1.39-.24-2.1-.4-.7-.19-1.4-.35-2.13-.5-1.37-.29-3.1-.28-3.87-.19z"/></g><g><path d="M223.27 263.38zM222.02 262.4l.04-.03-.04.03zM238.26 257.4l.07.08c-.02-.05-.04-.08-.07-.09z"/><path d="M230.67 246.96a13.83 13.83 0 0 0-6.12-1.44l-.68.01h-.07l-.13.03-.27.04-.54.1-4.69 1.17h-.01a19.15 19.15 0 0 0-4.17 4.17 16.25 16.25 0 0 0-3 7.18c-.03.3-.08.68-.08.91l.1.4c.05.3.11.5.13.84.02.67-.02 1.33-.1 1.82-.42 2.24-.97 3.95-.73 5.58.26 1.63-.63 2.85-1.62 3.74-.47.44-.6 1.15-.9 1.84-.27.69-.71 1.33-1.5 1.38-.42.03-.9-.1-1.33-.16-.18-.04-.47 1.51-.47 2.15 0 .3 1.11 1.38 1.45 1.63 1.03.89 2.74 1.8 3.52 1.91 1.54.24 2.33.25 3.56-.34 2.59-1.3 4.64-3.15 7.78-4.93a5.63 5.63 0 0 0 2.37-3.1c.43-1.13.68-2.21 1.3-3.08.68-.93 1.47-1.76 2.13-2.42.17-.2.3-.27.44-.4l.19-.16.22-.31.2-.33.1-.17.03-.05v-.01l-4.31-1.5h-.01l-.04-.02-.16-.06c.03.01.32.18.81.67.5.49 1.18 1.27 2.17 2.72l.4.58.05.08.08.06c.08.02.16.04.28.03.23 0 .55-.06.92-.2l-4.21 1.05c.33.02.66.01.99-.03h.02l-.38-8V260.13l.02-.06c0 .02-.06.18-.23.4a8.25 8.25 0 0 1-2.3 2.02 22.66 22.66 0 0 1-3.41 1.78l-.3.13h.04c.06.04.16.2.22.44.15.57.22 1.44.15 2.38-.15 2.4.46 5.16.3 8.03-.08 1.5-.7 3.08-1.04 5.17a12.83 12.83 0 0 0 .41 5.9c.22.68.53 1.33.9 1.95.8 1.3 1.86 2.77 3.45 3.54 1.57.78 3.64.84 6.23-.47 1.26-.64 2.86-2.15 4.19-3.5-1.08 1.12-1 .37-.52-.57.22-.46.58-1 .82-1.37.2-.34.38-.6.4-.64.55-1.09.63-1.77 1.28-2.64a9 9 0 0 1 3.35-2.53c.23-.1.44-.12.63-.2.38-.12.67-.27.81-.43.6-.74.83-2.1.94-3.66a25 25 0 0 0 .05-2.74l-.1-2.87a48.06 48.06 0 0 0-.52-5.12 77.51 77.51 0 0 0-1.1-5.87c-.32-1.35-.63-2.86-1.5-4.88-.44-1-1.03-2.14-2.06-3.45-1.01-1.27-2.56-2.78-4.83-3.91z"/></g><g><path d="M348.02 259.13l.02.02s.04 0-.02-.02zM335.73 251.2h-.23c.08.02.16.02.23 0zM356.95 249.84l.04.03c0-.02-.02-.03-.04-.03z"/><path d="M337.42 239.56c-.47.3-.9.63-1.31 1l-.32.29-.61.54-1.19 1.11c-1.54 1.5-2.9 3.1-3.96 4.68-.55.81-1.02 1.62-1.44 2.4.34 1.14.78 2.28 1.13 3.33.73 2.13 1.31 4 1.47 5.8.17 2.22.21 3 .34 4.29.07.6.15 1.2.27 1.8.1.57.25 1.15.45 1.73.82 2.33.64 4.63.45 6.98-.05.55.05 1.23.14 1.5l.19.48.15.52c.18.66.17 1.59-.57 2.23-.37.34-.9.61-1.37.92-.12.08-.03.54.09 1.08s.3 1.14.49 1.42c.16.26 1.8.3 2.24.29.73-.01 1.58-.1 2.37-.23a7.4 7.4 0 0 0 1.85-.56 8.59 8.59 0 0 0 1.77-1.2c.47-.42.83-.9 1.22-1.69.37-.81.69-1.66.9-2.54.26-.95.38-1.55.61-2.27.44-1.39 1.03-2.78 2.01-4.2 1.58-2.3.56-4.76 1.23-6.98.18-.61.4-1.23.63-1.84l.09-.23c.03-.07.06-.06.09-.1l.18-.13c.11-.09.23-.16.34-.23.44-.28.77-.4.72-.67a.3.3 0 0 1 .02-.18c.08-.03.17-.04.26-.05.2-.02.41 0 .6.02l.5.09h.18l.02-.02.1-.07.38-.31c.6-.53 1.2-1.09 1.77-1.65l-16.86-7.7c.25 1.3.5 2.63.8 3.87l.51 1.77c.16.6.31 1.2.49 1.72l.8 2.74c.27.84.52 1.71.74 2.54a30.33 30.33 0 0 0 1.6 4.35l.8 1.83c.15.3.24.57.35.84l.16.4.28.77.4 1.01c.26.3.34.65.52.98.15.32.3.67.46.98l.52.9.48.87.4.77c.24.46.46.92.67 1.4l1.2 2.78c.4.93.85 1.8 1.4 2.61a8.6 8.6 0 0 0 2 2.2c1.6 1.26 4.04 3.52 8.55 1.46 1.06-.52 2.4-1.94 3.49-3.26-.9 1.09-.85.11-.5-1.12.36-1.23 1.04-2.69 1.08-2.83.56-1.79.46-2.95.7-4.33.26-1.37.7-2.8 1.01-4.08.32-1.3.52-2.47.24-3.31a20.26 20.26 0 0 0-1.47-3.44l-.21-.38a2.42 2.42 0 0 1-.17-.32l-.14-.26c-.06-.1-.02-.08-.05-.12-.04-.06-.02-.08-.03-.1l-.03-.04-.57-1.58-.72-1.8c-1.43-3.54-2.98-6.23-3.42-8.44-.1-.3-.08-.54-.09-.8v-.74c.05-.47.18-.83.2-1.23l.7-20.53-19.93 11.74-.84.53z"/></g><g><path d="M306.86 256.22l.44.05-.44-.05zM306.54 263.12l-.18.23.18-.23zM325.4 244.58l.02.2c.01-.12 0-.18-.03-.2z"/><path d="M317.53 241.08c-4.54-.2-9.51.23-13.87 1.33l-2.88.35a18.12 18.12 0 0 0-2.58 1.36c-.64.44-1.27.92-1.83 1.44l-.42.4-.43.47c-.29.33-.56.66-.8 1-.53.7-.9 1.4-1.22 2.14-.16.37-.3.74-.43 1.11-.13.38-.17.65-.24.99-.07.32-.12.64-.17.96a5.2 5.2 0 0 0-.07.87c0 .5.02 1 .06 1.5.05.42.13.77.2 1.15l.12.54.14.44.28.83c.2.45.38.96.55 1.3l.24.56a9.4 9.4 0 0 1 .47 1.35l.13.61.06.38c.03.25.04.5.04.75l-.09 1.25-.05 1.37c-.02.9.1 1.95.25 2.9.23 1.64.51 3.38.56 5.05.06.84.2 1.71.28 2.58l.13 1.3.03.34.02.16V278.28c0 .2.04.41.1.62.06.2.08.4.16.6.17.4.27.8.4 1.24.07.22.1.44.1.65l-.01.65c-.12.4-.27.81-.63 1.1-.41.28-.88.48-1.36.63-.12.03 0 .48 0 .96.05.49.12 1.1.24 1.42.08.31 1.6.76 2.09.8.76.16 1.62.13 2.49.02.89-.09 1.6-.4 2.04-.64a6.8 6.8 0 0 0 3.24-3.72 20.6 20.6 0 0 0 1.05-6.23l.02-.4.01-.21.03-.14.12-.54a13.3 13.3 0 0 1 .71-2.08c.17-.34.41-.7.65-1.02.39-.55.61-1.07.73-1.59a9.3 9.3 0 0 0 .31-1.67c.08-1.09.22-2.39.74-3.54l.07-.15.04-.08.01-.04.01-.02.03-.15c.78-2.12 1-4.93 1.18-6.43.1-.76.17-1.48.27-1.79.02-.08.03-.2.06-.2l.04-.03v-.01h-.85l-.38.01-.29.02-.59.02c-.4 0-.79-.01-1.19-.04-.93-.1-1.26-.06-1.78-.15-.96-.2-1.24-.2-1.73-.45-.13-.05-.18-.06-.29-.13-.02-.01-.12-.1-.1-.07l.05.04a.1.1 0 0 1 .02.03v.01l.09.1c.1.13.2.26.25.4l.04.1.1.2a4.2 4.2 0 0 1 .4 1.25l-1.36 5.47c.64.34 1.02.8 1.58.7.32-.05.68-.15 1.07-.26.11-.02.2-.05.24-.08l.09-.04c.02 0 .02.02.03.02l.1.14c.03.09.12.2.2.33a.9.9 0 0 1 .14.41c.11.33.2.76.26 1.26a84.15 84.15 0 0 0 1.98 9.55c.44 1.5.93 3.07 1.65 4.75.3.74.66 1.51.99 2.28l.4.95.34.86c.48 1.2 1.01 2.5 1.73 3.85a18 18 0 0 0 2.98 4.15 15.65 15.65 0 0 0 5.5 3.7c.66.27 1.4.51 2.15.73.78.21 1.64.37 2.49.48.88.1 1.8.1 2.68.05.9-.1 1.78-.26 2.61-.5l-2.57-.04c1.28-.5 2.58-1.49 3.75-3.54.59-1.03.98-2.94 1.2-4.64-.37 2.79-1.97-3.34-2.1-3.63a9.03 9.03 0 0 0-1.05-1.74h-.65c-.23-.36-.4-.65-.53-.97a3.4 3.4 0 0 1-.2-1 7.85 7.85 0 0 1 .87-3.38c.46-1.01.9-1.8.82-2.37a8.88 8.88 0 0 0-.58-2.04c-.15-.4-.32-.78-.54-1.25-.14-.29-.11-.31-.15-.4-.02-.1-.06-.15-.09-.27-.12-.36-.3-.87-.5-1.52-.19-.7-.4-1.54-.6-2.6-.33-1.8-.77-4.18-1.6-6.95-.2-.67-.47-1.44-.71-2.15-.3-.76-.58-1.5-.93-2.27l-.61-1.26-.17-.34-.09-.17v-.21l-.03-.88-.05-1.76c0-.63.04-1.35.06-2.03.09-2.23.25-5.07.42-7.27l-2.01-.22c-.59-.07-1.04-.13-1.92-.18l-2.25-.15-2.21-.12z"/></g><g><path d="M286.38 260.34v.04c.01-.01.05 0 0-.04zM276.78 259.2l-.22.1.22-.1zM297.58 254.93l.06.09c0-.05-.03-.08-.06-.09z"/><path d="M294.17 245.56a14.66 14.66 0 0 0-8.42-5.22c-.79-.16-1.6-.24-2.4-.27-.85-.04-1.5.04-2.24.13-.36.05-.71.11-1.06.18l-.07.01-1.34.33h-.02l-.05.04-.1.05c-.25.14-.5.3-.74.46l-.76.36a17.4 17.4 0 0 0-3.23 2.05c-.2.17-.3.3-.46.46a19.43 19.43 0 0 0-1.58 1.89c-.2.3-.36.61-.52.92-.32.62-.7 1.32-.85 1.9-.19.58-.34 1.17-.48 1.75-.12.56-.14 1.06-.2 1.58l-.08.77v.7l-.03 1.36c.02.41.02.82.02 1.23-.03.81-.02 1.52-.17 2.24-.47 2.9-.95 5.6-.52 7.86l.07.39c.02.13.04.23.03.46l-.02 1.15a21.18 21.18 0 0 1-.82 5.4c-.28 1.03-.1 2.1-.03 3.12.06.97 0 2-.65 2.42-.34.19-.78.25-1 .1 0-.01-.04.03.13.16.19.15.4.37.59.63l.14.2.06.07a1.21 1.21 0 0 1 .22.4 3.46 3.46 0 0 0 1.26 1.54c.28.15.62.3 1 .4.4.1.78.1 1.19.1.83 0 1.51-.25 1.95-.44 1.57-.9 2.31-1.5 3.06-2.9 1.56-2.9 2.36-5.87 4.7-8.33.24-.25.43-.48.6-.71.16-.23.29-.47.39-.63a2.87 2.87 0 0 0 .29-.78c.1-.36.18-.72.23-1.02.25-1.28.34-2.4.89-3.37 1.16-2.1 3.04-3.7 3.31-4.41.03-.06.08-.17.12-.19l.02.02.01.01-.09-.05c-.34-.22-.68-.46-1-.71a7.56 7.56 0 0 1-1.42-1.13l-.16-.17-.1-.1a2.88 2.88 0 0 1-.57-.62c-.1-.25-.23-.18-.35-.2a1.1 1.1 0 0 1-.37-.13l-.09-.06c0-.01-.1-.05-.02-.05l.26-.02.5-.05.26-.02h.02c.77 1.44-1.04-1.97-.85-1.62l-.01-.03-.02-.06-.02-.12c-.02-.16 0-.37 0-.37-.01-.05.02-.17 0-.07l-.1.23c-.23.48-1.1 1.48-2.68 2.53-.87.64-1.73 1.06-2.92 1.71l-.42.21-.08.04c.01-.03.03-.02.04 0l.09.06c.28.28.67 1.12.87 2.07.25 1.13.38 2.48.41 3.9.05 1.82.28 3.65.71 5.97l.2.95a18.23 18.23 0 0 0 1.15 3.84l.65 1.58c.19.46.35.89.52 1.34 1.19 3.24.24 6.92 1.64 9.16.21.34.44.76.73 1.12.26.33.63.66 1.23.96l8.12 8.63a7.93 7.93 0 0 0 2.99-3.04c.6-.99 1.14-2.87 1.5-4.54-.6 2.75-1.35-3.42-1.44-3.72-.1-.35-.22-.67-.35-.97l1.6 1.7c.91-.95 1.4-1.98 2.08-3.04.81-1.23 1.8-2.6 2.52-3.87.37-.64.68-1.3.9-1.93.21-.62.32-1.22.3-1.8a22.93 22.93 0 0 0-1.43-6.57c-.34-.95-.79-2.05-1.08-2.74l-.05-.08-.02-.09-.1-.5-.84-4.95-1.07-6.02c-.25-1.33-.46-2.78-.9-4.5-.24-.89-.52-1.81-.99-2.9l-.37-.82a16.7 16.7 0 0 0-1.82-2.9z"/></g><g><path d="M251.98 281.14v.04s.02.08 0-.04zM253.45 280.4l-.07.6.07-.6zM259.7 243.28l.06-.03c-.02-.01-.04 0-.06.03z"/><path d="M254.6 242.6c-.59 0-1.22.08-1.83.2-.62.11-1.19.43-1.77.72a8.51 8.51 0 0 0-2.94 3.39 32.3 32.3 0 0 0-2.08 5.05c-.56 1.73-1.04 3.35-1.62 4.53l-.96 1.84c-.32.68-.63 1.28-.94 2.05a23.3 23.3 0 0 0-1.5 5.4c-.32 2.2-.8 4.14-1.28 5.93-.22.9-.54 1.75-.91 2.58l-.28.62-.13.31-.2.27-.75 1.09c-.78 1.15-.91 2.22-1.1 3.1-.16.85-.44 1.53-.84 1.34-.1-.08-.2-.13-.27-.29l-.05-.09.03.06a.94.94 0 0 1-.06-.15l-.01-.07c0 .1.02.27.01.48-.03.39-.23.85-.3 1.17-.03.14.03.55.17.98a5.54 5.54 0 0 0 1.13 1.92c.27.28.57.52.91.74.67.4 1.44.61 1.9.6a5.62 5.62 0 0 0 4.1-1.64c.62-.6 1.15-1.19 1.66-1.73.26-.27.5-.53.75-.77.24-.24.52-.51.7-.61.42-.27.88-.46 1.34-.58.45-.12.83-.2 1.3-.1.74.17.97-.06 1.13-.47.15-.38.23-.94.54-.84.33.1.7.57 1 1 .3.43.5.84.57.55.09-.32.3.04.47.5.18.45.29 1 .4.7.11-.28.24-.85.49-1.22.14-.24.15-.25.22-.3.05-.02.1 0 .13.11.08.25.12.7.1 1.26v.07c-.03.65.07.8.17.94.11.14.24.3.24.62s-.44 1.07-.84 1.45c-.2.2-.37.33-.46.38-.04.04-.08 0-.05.07.06.15.12.3.2.45l.13.24a34.65 34.65 0 0 0 1.16 2.13 21.96 21.96 0 0 0 1.7 2.24 19.14 19.14 0 0 0 2.04 1.77 11.37 11.37 0 0 0 2 .94l.35.1a6.45 6.45 0 0 0 2.8-.17l1.9.9c.44-.4.9-.89 1.35-1.5.7-.93 1.42-2.74 1.97-4.37-.53 1.58-.76.07-.86-1.5l-.21-.1c.16-1.1.5-2.15.51-2.27.28-1.8.36-2.82 1.15-3.64.21-.2.44-.38.68-.52.24-.14.5-.34.76-.47.13-.07.27-.13.4-.18.07 0 .12-.1.17-.19l.16-.25.6-1.02c.7-1.7 1.22-3.82 1.2-5.78-.06-2.05-.22-4.1-.45-6.14a71.7 71.7 0 0 0-1.27-5.25c-.49-1.64-1.03-3.1-1.57-4.61a60591.95 60591.95 0 0 1-3.27-9.1l-1.69-4.5c-1.81.14-2.81.14-4.02.04-.75-.07-1.5-.23-2.29-.35-.06-.02-.27-.02-.44-.02l-.53-.01-1.07-.02-1.85-.01z"/></g></svg>