<?xml version="1.0" encoding="utf-8"?>
<!-- Generator: Adobe Illustrator 22.1.0, SVG Export Plug-In . SVG Version: 6.00 Build 0)  -->
<svg version="1.1" id="svg" xmlns="http://www.w3.org/2000/svg" xmlns:xlink="http://www.w3.org/1999/xlink" x="0px" y="0px"
	 viewBox="0 0 395 395" style="enable-background:new 0 0 395 395;" xml:space="preserve">
<g id="svgg">
	<path id="path0" d="M164.9,23.8c-0.5,0.2-0.1,0.8,1.9,3.2c0.9,1.1,1.8,2.2,2.1,2.6c0.8,1.1,3.9,8.1,4.6,10.4
		c1.5,5.3,1.4,12.3-0.3,15.7c-0.7,1.5-0.8,1.5-0.3,1.5c1.2,0,2.9-4.5,3.5-9.1c0.2-2,0.4-2.6,0.4-1.8c0,1.1,0.1,1.3,0.6,1.4
		c0.8,0.2,0.6,5.5-0.2,8.1c-1,3-0.4,3.7,0.6,0.8c1.8-5,2.6-13.2,1.6-16.9c-0.5-2-0.3-2.2,0.5-0.5c2.6,5.2,3.6,13.7,2.2,19
		c-0.7,2.7-0.3,3.5,0.8,1.7c2.4-4.1,1.8-16.1-1-22l-0.4-0.8l0.7,0.8c2.3,2.7,5.2,8.6,5.4,11.3c0.1,1.3,0.3,1.9,0.5,1.9
		c0.6,0,0.7-0.5,0.4-2.9c-0.3-2.2-0.6-3.3-2.3-7.9c-0.8-2.1-2.5-5-4.1-6.9c-1.5-1.8-1.3-1.8,1,0c1.1,0.9,2.9,2.2,4,3
		c3.3,2.4,5.7,6.2,7.5,12c1.4,4.5,2,4.4,1.2-0.4c-1-6.3-6-12.9-13.5-18.1C176.4,26,167.2,22.7,164.9,23.8 M364.1,45.4
		c-1.6,0.2-2,0.6-5,4.9c-0.7,1.1-2.1,2.3-4.8,4.4l-0.8,0.6l0.9-0.2c1.6-0.3,3.8-1.6,6.5-4c2.8-2.5,3.1-2.6,1.5-0.5
		c-1.3,1.7-1.2,1.7,0.6,0.5l1.4-1l0.7,0.7c0.6,0.5,0.7,0.8,0.4,1c-0.4,0.4-0.4,1.2-0.1,1.4c0.2,0.1,2.5-1.7,4.9-3.9
		c1.1-1,1.1-1.9,0.2-2.4c-0.4-0.2-0.7-0.1-1.3,0.5c-0.9,0.9-1.2,0.7-0.6-0.4c1-1.9-0.5-2.2-2.1-0.5c-1.1,1.2-1.2,1.1-0.6-0.9
		c0.1-0.3,0-0.5-0.2-0.4C365.7,45.3,364.9,45.4,364.1,45.4 M353.4,51.9c-0.4,0.2-2.5,0.3-4.9,0.3c-7,0-9.9,2.1-9.8,7.1
		c0,1.7-0.1,2.4-0.7,3.9c-1.3,3.2-2.5,7.1-2.4,7.4c0.2,0.4,0.7,0,1.2-1.3c0.3-0.7,1-2.1,1.7-3.2c0.7-1.1,1.2-2.1,1.2-2.2
		c0-0.1,0.2-0.4,0.5-0.5c1.3-0.7-0.1,3.2-2.3,6.6c-1.8,2.7-2.5,4.5-2.5,6.2c0,1.2,0.7,0.7,1.1-0.8c0.2-0.6,1.1-2,2-3.2
		c3.7-4.8,4.6-6.8,4.6-9.7c0-0.8,0.2-2,0.5-2.8c0.5-1.3,0.5-1.4,0.1-2c-0.4-0.7-0.4-0.7,1-1.2c0.8-0.3,1.3-0.3,2.4,0
		c1.2,0.3,1.5,0.3,2.3-0.1c0.9-0.5,0.9-0.9,0-1c-2.4-0.1-2.3-0.7,0.1-1c2.7-0.4,4.3-1,5.3-2.1l0.6-0.7l-0.8,0
		C354.4,51.6,353.7,51.8,353.4,51.9 M363.9,53c-0.7,0.4-1.2,1.9-1.2,3.5c0,5.8-7.8,10.5-13.4,8.1c-3.7-1.6-2.9,0,1.2,2.2
		c2.2,1.2,8.5-0.1,9.2-1.9c0.1-0.3,0.9-1,1.7-1.7c2.8-2.3,3.9-4.5,3.9-7.9C365.4,52.9,365,52.3,363.9,53 M148.2,54.4
		c-3.6,1.3-7.6,4.1-7.6,5.3c0,0.2,0.6,1.4,1.3,2.6c2,3.5,5.1,9.2,8.1,15.4c2.5,4.9,4.2,7.8,4.6,7.5c0.1-0.1-0.5-1.5-1.3-3.1
		c-0.8-1.7-2.6-5.4-4-8.4c-4.9-10.3-5.4-13.2-2.8-15.7c1.4-1.4,2.9-1.5,4-0.5c0.9,0.9,6.8,9.6,8.3,12.4c0.9,1.6,1.8,2.4,1.8,1.6
		c0-1.2-7.5-16.6-8.3-17.2C151.4,53.6,150.3,53.6,148.2,54.4 M164.5,54c-2.2,0.2-5.8,1.8-5.8,2.6c0,0.2,2.3,4,4.7,7.8
		c1.2,1.9,3.5,5.6,5.2,8.4c4.4,7.2,4.2,7,8.2,6c6.3-1.6,21.5-9.1,18.9-9.4c-0.2,0-1.6,0-3.1,0c-13.6,0.2-25.5-6.4-22.7-12.6
		c0.9-2,0.9-2.3,0.3-2.5C169,53.9,166.9,53.8,164.5,54 M360.2,56.1c-0.3,0.3-0.7,0.5-0.9,0.5c-0.6,0-2.2,1-2.2,1.4
		c0,0.3,0.9,0.2,2-0.2c0.5-0.2,0.5-0.1-0.1,0.7c-0.7,0.9-1.8,1.6-3.4,2.2c-1.2,0.4-2.4,1.5-2.4,2.1c0,0.6,0.2,0.6,1.4,0
		c0.6-0.3,1.6-0.7,2.4-0.8c2.5-0.6,4.5-2.4,4.9-4.5C362.1,55.9,361.1,55.1,360.2,56.1 M147.2,58.1c-1.8,0.9-2.4,3.9-1.1,5.5
		c1.2,1.4,2.5,1.1,1.9-0.4c-0.5-1.1-0.3-1.8,0.7-3.1C149.8,58.5,148.9,57.2,147.2,58.1 M353.7,59.1c-1.3,0.3-1.8,0.9-0.6,0.7
		c1.2-0.2,2.1-0.6,2.1-0.8C355.2,58.8,354.8,58.8,353.7,59.1 M305.5,60c-1.2,0.6-4.7,4.4-4,4.4c0.1,0,0.7-0.5,1.4-1
		c2.9-2.3,4.2-2.1,3,0.4c-0.8,1.8-1.3,2.5-2,2.5c-0.3,0-0.6,0.4-0.9,1.1c-0.5,1.2-1.4,1.5-1.5,0.5c-0.1-0.8-1-0.9-1.5-0.3
		c-1.7,2.3,3.9,10.8,9.8,14.7c2.9,1.9,4,3.2,5.6,6.6c1.1,2.4,1.6,2.8,1.8,1.3c0.3-2.2-2.8-7.1-6.2-9.7c-2.6-2.1-3.3-2.8-5.1-5.5
		c-0.8-1.2-1.8-2.6-2.3-3.1l-0.8-0.9l0.7-0.1c1.2-0.2,2.7,1.1,3.8,3.5c1.5,3,5.9,7.2,5.9,5.6c0-0.2-0.4-0.7-0.8-1.1
		c-1.2-1.1-2.5-3.2-3.2-5.2c-0.8-2.4-1.4-3.3-2.8-4.3l-1.2-0.8l0.5-0.7l0.5-0.7l1.3,0.6c0.7,0.3,1.9,0.7,2.7,0.8
		c1.3,0.2,1.5,0.3,2.5,1.5c1.2,1.4,1.6,1.3,0.8-0.1c-0.7-1.4-1.7-2.4-3.3-3c-1.9-0.8-3.8-3.3-2.6-3.3c0.7,0,3.3,1.8,5.2,3.6
		c2.6,2.4,2.9,2.7,5.1,2.9c2,0.2,2.9-0.3,1.8-1.2c-0.4-0.3-0.8-0.5-1.1-0.5c-0.2,0-0.8-0.4-1.3-0.8c-0.5-0.4-1.1-0.8-1.3-0.8
		c-0.2,0-1.4-1.1-2.6-2.4c-1.3-1.4-2.7-2.6-3.4-2.9c-0.6-0.3-1.4-0.8-1.6-1.1C308.1,59.5,306.7,59.4,305.5,60 M324.9,63
		c-1.4,0.3-2.2,1-2.2,1.8c0,0.4-0.1,0.7-0.2,0.7c-0.3,0-1,1.9-1.3,3.7c-0.4,1.9-0.5,4.8-0.2,4.8c0.1,0,0.2-0.4,0.2-0.8
		c0-0.7,1-2.1,1.3-1.8c0.1,0.1-0.2,0.8-0.5,1.6c-0.4,1.2-0.5,1.7-0.3,2.4c0.3,1.2,0.9,1,1.4-0.5c0.3-0.7,0.7-1.7,0.9-2.2
		c0.2-0.5,0.4-1.1,0.4-1.5c0-1.4,0.3-1.5,3.4-0.2c0.8,0.3,1.7,0.2,1.7-0.2c0-0.2-1.5-1.1-3.4-2c-0.7-0.3-1-1.2-0.8-1.9
		c0.1-0.3,0.5-0.4,1.8-0.3c1.9,0.1,2.3-0.4,1.1-1.2l-0.7-0.5l1.1,0.2c0.6,0.1,1.3,0.2,1.6,0.2c0.3,0,0.6,0.3,0.7,0.8
		c0.4,1.4,1.4,2,1.7,1.1c0.1-0.4,0-0.8-0.7-2.2C331.1,63.5,327.3,62.4,324.9,63 M138.8,65c-2.2,1.2-4.1,2.8-5.1,4.3
		c-1,1.6-1,1.7,0.9,2.1c3.1,0.6,4.3,3,4.3,8.7c0,6.6-3.7,14.2-8.3,17.3c-1.8,1.2-1.3,1.5,1.3,0.9c0.8-0.2,1.8-0.4,2.3-0.4
		c4.8-0.5,18.9-6.9,19.1-8.7c0.1-0.7-2.4-5.9-4.7-9.9c-3.3-5.8-5.2-9.3-7-13C140.5,63.9,140.7,64,138.8,65 M149.9,65.6
		c-1.8,1.2-2,3.6-0.5,5.2c1.3,1.4,2.5,1,1.7-0.5c-0.5-1.1-0.2-2.6,0.9-3.6C153.5,65.1,151.8,64.3,149.9,65.6 M203,66
		c-2.2,0.7-2.7,1.8-0.6,1.5l1.2-0.2l-0.4,0.8c-1.2,2.3-4,4.9-7.4,6.8c-1.4,0.8-3.7,2.1-5.2,3c-3.1,1.9-13.8,7.4-14.3,7.4
		c-0.2,0-0.6,0.2-0.9,0.4c-1.3,1,3.1-0.1,7.2-1.9c5.4-2.3,14.3-6.9,16-8.3c0.6-0.5,1.3-1,1.6-1.2c0.3-0.2,1.3-1,2.3-1.8l1.7-1.5
		l0.8,0.9c0.9,1.1,1.5,1.2,1.5,0.2c0-0.6,0.1-0.5,1.4,1.1c1.9,2.5,2.5,2.3,1.1-0.4c-0.4-0.8-0.6-1.3-0.4-1.1
		c0.7,0.6,2.5,4.8,2.6,5.9l0.2,1.3l-2.3,1.6c-2.3,1.6-4.4,3.4-4.4,3.9c0,0.5,0.5,0.2,2.1-1.1c0.9-0.7,1.7-1.4,1.9-1.5
		c4.8-2,5.5-3.5,3.4-7c-0.6-0.9-1-1.8-1-1.9c0-0.5-2.8-5-3.5-5.7C206.2,66,204.5,65.5,203,66 M350.2,68.4c0,0.1-0.3,0.4-0.8,0.5
		c-1.2,0.4-2,1.8-3.4,5.8c-1.9,5.4-1.2,5.6,1.4,0.5c0.8-1.6,1.9-3.4,2.3-3.8c0.4-0.4,0.8-1.1,0.8-1.4c0-0.3,0.2-0.8,0.4-0.9
		c0.2-0.2,0.4-0.5,0.3-0.6C350.9,68.1,350.2,68,350.2,68.4 M119.6,70c-0.5,0.5-0.5,0.6,0,0.8c0.6,0.3,0.6,0.9-0.1,1.8
		c-0.3,0.4-0.5,1-0.5,1.3c0,0.8-1.2,2-2,2c-1,0-1.5,0.8-1.5,2.5c0,2.1-0.5,2.3-4,2c-2.8-0.2-0.1,5.6,4.3,9.4c4.3,3.8,6,4.8,6.5,4
		c0.1-0.1-0.6-0.8-1.5-1.6c-2.5-2-5.7-5.4-6.4-7c-0.8-1.6-0.8-1.6-0.1-1.7c0.4-0.1,0.6-0.3,0.7-0.7c0.2-1.2,1.9-1,5.2,0.6
		c2.5,1.2,3.1,0.6,1.1-1c-2.1-1.6-2.8-2.7-2.2-3.7c0.3-0.5,0.3-0.5,1.1,0.1c3,2.2,10.1,4.6,10.1,3.4c0-0.1-0.4-0.4-1-0.7
		c-4.5-1.9-8.6-5.1-8.1-6.2l0.3-0.7l1.4,0.9c3.2,2.1,7.8,3.7,9.7,3.6c1.2-0.1,1.5-0.6,0.5-1c-0.4-0.2-0.6-0.4-0.5-0.6
		c0.1-0.2,0-0.3-0.4-0.2c-0.6,0.2-3.6-0.8-3.4-1.1c0.1-0.1,0.8,0.1,1.6,0.3c2.2,0.6,3.1,0.6,3.3-0.3c0.2-0.6,0.3-0.7,1.2-0.5
		c0.8,0.1,1,0.1,1.1-0.2c0.1-1.5-0.6-2.1-2.4-2.1c-1,0-2.3-0.3-3.8-0.8c-1.2-0.4-3.2-1.1-4.5-1.5c-1.2-0.4-2.4-0.9-2.7-1
		c-0.4-0.4-1.8-1-2.1-1C120.2,69.5,119.9,69.7,119.6,70 M353.4,73.1c-0.3,0.3-0.3,0.5,0,0.8c0.6,0.8-0.6,2.2-1.8,2.1
		c-1.4-0.1-2.2,0.4-2.1,1.1c0.1,0.5,0.2,0.6,2.4,1.1l0.7,0.2l-1.4,2.8c-1.6,3.2-2.5,5.8-2.6,7.4c-0.1,1.5,0.5,1.4,1.2-0.3
		c0.9-2.5,1.9-4.3,3.4-6.4c1.8-2.6,2.4-3.6,2.4-4.4c0-0.3,0.2-0.9,0.4-1.4C356.8,74.5,354.5,71.7,353.4,73.1 M153.9,75.7
		c-1.3,2.2-0.2,5.3,2,5.3c0.9,0,1-0.5,0.3-1.4c-0.8-1-0.8-1.8,0-3.3c0.8-1.3,0.7-1.5-0.7-1.5C154.6,74.8,154.4,74.9,153.9,75.7
		 M200.8,76.2c-1.2,1.7-0.7,3.7,1,3.7c0.7,0,0.8-0.3,1.2-2.4C203.3,75.1,202.1,74.4,200.8,76.2 M122.6,76.6
		c-0.2,0.3,0.3,0.7,1.1,0.9c0.8,0.2,0.8-0.2-0.1-0.8C122.9,76.3,122.8,76.3,122.6,76.6 M194,79.5c-1.2,0.8-1.6,3.5-0.7,4.1
		c0.6,0.3,1.9,0.4,1.9,0.1c0-0.1,0.1-0.4,0.1-0.7C196,79.6,195.5,78.5,194,79.5 M239,80.5c-0.1,0.1-1.5,0.3-3.2,0.4
		c-5.8,0.5-11.9,2.9-16.3,6.4c-4.4,3.5-3.7,4.6,1,1.6c1.9-1.2,6.1-3.3,7.9-3.8l0.6-0.2l-0.5,0.6c-0.3,0.3-1,0.8-1.6,1.1
		c-1.9,1-1.2,1.2,3.6,1.1c4.7-0.1,5,0,2.1,0.9c-3.7,1.2-4.1,2-0.8,2c1.1,0,3.3,0.2,4.9,0.4c6.8,1,7.5,0.8,2.7-0.7
		c-3.5-1.1-3.5-1.2-0.1-2.1c3.6-0.9,3.8-1.1,2.8-2.1c-0.4-0.4-0.9-0.5-2.8-0.5c-3.5,0-3.5-0.6,0-1.1c1.2-0.2,2.6-0.4,3.2-0.5
		c0.6-0.1,1.5-0.1,2,0c0.5,0.1,1.6,0.3,2.4,0.5c0.8,0.2,2.5,0.4,3.7,0.4c3.8,0.3,3.9,0.3,1.5,1.2c-1.2,0.4-2.3,1-2.6,1.2
		c-0.2,0.2-0.8,0.5-1.3,0.6c-2.9,0.6-1.2,1.4,2.1,0.9c10.8-1.4,10.9-4.2,0.3-7C247.7,81,239.3,80.1,239,80.5 M157.8,83.1
		c-0.9,1-1,1.4-1,3.5c0,1.2,0.9,1.9,2.4,1.9c1.3,0,1.4-0.1,0.5-0.9c-1.1-1-1-2,0.3-3.2c0.9-0.9,0.9-1,0.7-1.6
		C160.1,81.6,159,81.8,157.8,83.1 M308.3,82.9c0,0.3,0.2,1,0.5,1.5c0.3,0.5,0.5,1,0.5,1.1c0,0.1,0.3,0.7,0.7,1.3
		c1.2,1.7,1.8,3.2,1.4,3.5c-0.6,0.4-1,1.9-0.7,2.7c0.2,0.7-1.6,3.2-3,4c-0.2,0.1-0.8,0.7-1.3,1.3c-0.8,0.9-1.3,1.1-2.9,1.5
		c-2.1,0.5-4.9,1.7-5.2,2.1c-0.1,0.2-0.7,0.3-1.4,0.3c-3,0-5.5,3.1-4.4,5.6c0.3,0.7,0.6,1.7,0.7,2.3c0.3,2-1.6,12.9-2.2,12.9
		c-0.5,0-6.2,5.8-6.2,6.3c0,1.1,0.6,1.2,1.5,0.3c1.1-1,1.6-1,1,0.1c-0.5,1-0.5,1,0.2,1c0.8,0,1-0.3,2.7-3.1c0.7-1.2,1.5-2.3,1.8-2.6
		c0.5-0.5,0.6-0.9,0.2-1.1c-0.6-0.4-0.2-0.7,0.7-0.6c1,0.1,1.3,1.1,0.6,2.4c-0.4,0.7,0,0.8,0.8,0.3c1.7-1.1,2.5-3.1,3-7
		c0.2-1.5,0.5-3.6,0.7-4.5c0.7-3.3-0.2-3.1-1.3,0.2l-0.7,2.3l0-1.4c0-0.8,0.2-2.3,0.4-3.3c0.3-1.3,0.3-2,0.2-2.3
		c-0.7-1.2,1.1-4.6,3.6-6.7c1.8-1.5,1.9-1.4,0.4,0.4c-1.7,2.1-1.7,2.6,0.1,1c0.6-0.5,1.5-1.1,1.9-1.4c0.9-0.5,0.9-0.3-0.7,1.6
		c-1.3,1.7-2.5,4-2.7,5.4c-0.3,1.6-0.1,1.5,1.7-1.3c1.9-3,7-7.9,8.7-8.5c0.6-0.2,1.5-0.8,2.1-1.4c0.6-0.6,1-0.9,1-0.8
		c0,0.6-2.7,3.7-4.9,5.6c-2.5,2.1-3.3,3.1-2.9,3.4c0.1,0.1,0.4-0.1,0.8-0.5c0.3-0.4,1.9-1.5,3.5-2.5c6.7-4,7.5-6.9,4.3-15.6
		C312.2,85.3,308.3,80.8,308.3,82.9 M196.3,86.7c-2.9,1.4-5.8,2.9-6.7,3.3c-2.5,1.2-8.6,4.5-9.1,4.9c-0.6,0.6,0.5,0.5,1.9-0.2
		c0.7-0.3,1.5-0.7,1.8-0.8c0.4-0.1,2-0.8,3.7-1.6c1.7-0.8,4.4-2,6-2.7c4.6-2,9.1-4.6,8.8-5.2C202.5,83.8,201.2,84.3,196.3,86.7
		 M347.1,85.4c-0.9,1.7-1,2.8-0.7,6.3c0.3,3.2,0,4.5-0.9,5.1c-0.5,0.3-0.5,0.3-0.5-2.6c0-2-0.1-3-0.3-3.2c-0.5-0.5-0.6-0.3-0.9,2.2
		c-0.6,4.7-1.1,5.5-4.3,6.5c-1.2,0.4-2.2,0.6-2.3,0.6c-0.2-0.2,0.4-5.1,0.6-6c0.1-0.5,0.1-0.6-0.3-0.6c-0.6,0-1.7,2.1-1.7,3.1
		c0,1.4-0.9,3.4-2.1,4.6c-0.7,0.8-1.2,1.5-1.1,1.7c0.1,0.3-0.1,0.4-0.6,0.6c-0.4,0.1-0.8,0.3-0.8,0.6c0,0.6,1.4,0.5,2.2-0.1
		c0.3-0.3,0.9-0.6,1.2-0.7c0.3-0.1,0.9-0.6,1.3-1l0.7-0.8l2.7,0.1c2.8,0.2,4.2-0.1,4.2-0.8c0-0.2,0.3-0.4,0.8-0.4
		c3.7,0,5.9-6.7,3.7-11.4c-0.2-0.4-0.2-1.5-0.1-2.9C348.1,83.8,348,83.7,347.1,85.4 M181.6,85.6c-1.4,0.8-1.7,1.6-0.9,3.5
		c0.5,1.1,1.9,1.3,1.8,0.2c-0.2-1.4,0.2-2.7,0.9-2.9c0.5-0.1,0.7-0.3,0.6-0.8C183.9,84.8,183.1,84.8,181.6,85.6 M206.9,85.4
		c-0.1,0.1,0.2,1,0.7,1.9c0.6,1.3,0.9,2.5,1.2,4.7c0.2,1.6,0.4,3.3,0.5,3.8c0.3,1.8-0.6-1.2-1.2-3.7c-0.9-4-2-5.9-3.1-5
		c-0.5,0.5-0.5,1.1,0.2,3c0.4,0.9,0.9,2.7,1.2,3.9c1.1,4.7,4,10.7,5.3,11.1c0.6,0.2,0.3-0.6-0.7-2c-0.6-0.8-1.1-1.5-1.1-1.7
		s0.5,0.4,1.2,1.3c0.6,0.9,2.3,2.7,3.8,4.1c2.7,2.6,3.7,3.9,4.5,5.8c0.5,1.1,0.8,1.4,1.1,0.9c0.3-0.5-1.9-4.6-3.3-6.2
		c-1.2-1.3-3.8-5.5-5.4-8.7c-0.3-0.7-0.5-1.5-0.5-1.8C211.9,93.8,207.9,83.6,206.9,85.4 M170.2,87.1c-0.2,0.1-0.6,0.3-0.9,0.4
		c-0.7,0.2-0.6,0.7,0.1,0.7c1.3-0.1,1.6,0.1,3.5,3.1c2.1,3.1,2.4,3.5,2.7,3.2c0.2-0.2-2.1-4.6-3.3-6.6
		C171.8,86.8,171.1,86.5,170.2,87.1 M200.7,89.2c-0.1,0.1-0.1,0.7,0.1,1.3c0.1,0.6,0.3,2.1,0.4,3.4c0.7,9.7,6.9,20.5,17.1,29.5
		c1.9,1.7,4.2,3.7,5,4.6c0.8,0.8,1.5,1.4,1.5,1.4c0-0.5-3-4.1-5.3-6.4c-3-3-3.2-3.4-0.9-1.6c2.7,2.1,5.9,5.6,7.6,8.6
		c1.2,2,1.2,1.5,0-0.9c-1.3-2.6-3.1-4.9-4.9-6.4c-5.1-4.1-6.2-5.2-5.4-5.2c0.1,0,1.5,0.9,3.2,2c1.6,1.1,2.9,1.8,2.9,1.6
		c-0.2-0.5-3.7-3.6-6.1-5.5c-4.6-3.5-8-7.4-9.3-10.5c-0.6-1.4-0.3-1.2,0.8,0.5c1.1,1.6,2.6,3.1,5.5,5.3c1.1,0.8,2.9,2.5,4,3.9
		c1.1,1.3,2.2,2.4,2.3,2.4c1.1,0-1.8-3.8-5.2-6.9c-4.2-3.9-7.3-7.5-8.2-9.7c-0.6-1.4-1.5-5-1.5-5.9c0-1.2,0.4-0.4,0.8,1.5
		c0.4,2.1,1.5,4.5,2.8,6l0.9,1.1l-0.9-1.9c-1-2-2.5-7.6-2.5-9.2c0-1.5-0.5-2.1-1.5-1.6c-0.4,0.2-0.9,0.3-1,0.3
		c-0.1,0-0.2,1.1-0.1,2.8c0.2,3.5,0.1,3.5-0.4,0C202,90.3,201.3,88.3,200.7,89.2 M259.8,89.3c-0.8,0.8-6.8,2.9-10.1,3.6
		c-1.9,0.4-3.3,0.8-3.2,1c0.1,0.1,0.3,0.2,0.4,0.2c0.1,0,2.1-0.3,4.4-0.6c2.3-0.3,4.9-0.8,5.8-1.1c3.3-1.1,4.8-0.5,1.6,0.7
		c-5.5,2-6.3,2.5-3.7,2.2c1.5-0.2,1,0-6.2,2.2c-6.6,2-19.7,4-25.9,4c-1.5,0-2.4,0.3-2,0.7c0.6,0.6,17.5,0.1,21-0.6
		c5.2-1,7.9-1.7,9.5-2.4c0.4-0.2,2.4-0.9,4.3-1.5c4.7-1.5,10.3-4.5,10.3-5.5c0-0.2,0.2-0.5,0.4-0.6c0.3-0.2,0.4-0.4,0.3-0.7
		c-0.1-0.3-0.2-0.6-0.2-0.6c0-0.5-0.7-0.8-2-0.9c-0.8-0.1-2.1-0.2-2.8-0.3C260.5,88.9,260.1,89,259.8,89.3 M162.9,89.9
		c-0.3,0.3-1,0.6-1.5,0.8c-2.9,1.2-2.5,4,1.2,9c0.7,0.9,1.9,1.2,1.6,0.4c-1.4-3.6-1.2-8.5,0.5-9.9C165.7,89.4,164.1,89.1,162.9,89.9
		 M166.1,90.8c-2.5,2-1.4,6.7,1.5,6.7c0.9,0,1-0.7,0.2-1.8c-0.6-0.8-0.4-1.5,0.6-3.2c0.5-0.9,0.6-1.2,0.3-1.6
		C168.2,90.2,166.9,90.2,166.1,90.8 M153.4,93.7c-3.7,2.1-9.5,4.4-17.2,6.8c-3.8,1.2-9.9,1.8-10.7,1.1c-0.5-0.5-0.3-1.6,0.5-2.3
		c0.5-0.4,0.5-0.5,0.2-0.9c-1.6-1.9-6.1,3.4-5.3,6.3c0.3,0.9,1.1,3.9,1.8,6.7c1.7,6.5,1.7,6.5,6.1,5.7c1.3-0.2,4-0.7,6.2-1.1
		c2.1-0.4,5.2-1.1,6.8-1.6c1.6-0.5,4-1.2,5.3-1.6c3.9-1.2,13.9-6.2,13.3-6.7c-0.1-0.1-2,0.8-4.3,1.9c-4.4,2.1-6.7,3-11,4.1
		c-1.4,0.4-3.2,0.9-4.1,1.2c-5.6,1.9-12.8,1.6-15.1-0.7c-1-1-1.9-3.5-1.3-3.8c0.1-0.1,0.3-0.4,0.4-0.7c0.1-0.4,0.2-0.2,0.6,0.8
		c1,2.6,1.3,2.7,1.1,0.1c-0.1-2.1-0.1-2.2,0.2-1.3c0.8,2,1.6,1.4,1.4-0.9c-0.1-1.1-0.1-2,0.1-2c2.7-0.1,11.3-2.6,16-4.6
		c11-4.7,12.4-5.5,12.8-7.2C157.2,91.8,156.6,91.9,153.4,93.7 M322.6,95c-0.1,0.1-0.2,1.2-0.2,2.4c0,1.6-0.1,2.3-0.4,2.4
		c-0.2,0.1-0.8,1-1.4,1.9c-1.3,2.2-2.7,2.9-6,3.2c-2.4,0.2-3.4,0.6-5.3,2.1c-2.1,1.7-1.5,2.1,1.3,0.7c2.2-1,3-1.2,2.8-0.6
		c-0.1,0.3,0,0.3,0.7,0.1c0.5-0.1,2.4-0.2,4.3-0.2c3.9,0.1,5-0.2,6.9-1.9c2.5-2.2,4.6-8.2,3.3-9.4c-0.4-0.4-0.4-0.4-1,1.6
		c-0.4,1.4-2.6,4.7-3.6,5.5c-1.8,1.3-1.9,1.2-0.8-1c1.3-2.7,1.5-4.3,0.7-6C323.5,94.9,323,94.5,322.6,95 M197.4,97
		c0.7,2.5,0.6,6.4-0.1,7.3c-0.2,0.3-0.7,0.9-1.1,1.3c-1.2,1.5-3.1,2.3-5.8,2.4c-1.3,0.1-2.4,0.2-2.4,0.4c0,0.3,3.6,0.8,4.9,0.7
		c1.4-0.1,1.3,0.1,0,0.6c-1,0.3-5,0.2-6.5-0.2c-1.3-0.4,0,0.7,1.6,1.3c6,2.3,13.1-4.3,12.1-11.2l-0.2-1.5l-0.2,1.9l-0.2,1.9
		l-0.3-2.1c-0.4-2.4-1.2-4.7-1.8-4.7C197,95.1,197,95.4,197.4,97 M188.6,96.1c-3.7,2.4-6,7.4-4.5,9.6l0.6,0.9l2.4,0.1
		c3.3,0.1,5.6-0.3,6.7-1.2C198.7,101.9,193.6,92.8,188.6,96.1 M317.3,96.3c-1.3,2-1.4,2.1-1,1.8c0.4-0.3,1.7-2.5,1.5-2.5
		C317.8,95.6,317.5,95.9,317.3,96.3 M259.7,101.7c-2.1,1.1-2.1,1.1-5.2,1.1c-3.2,0-4.6,0.3-6,1.2c-0.9,0.6-0.8,0.6,1.1,0.9
		c0.9,0.1,2,0.3,2.5,0.4l0.9,0.2l-1.1,0.2c-0.6,0.1-1.9,0.2-3,0.2c-2.4,0-2.3,0.4,0.1,0.7c0.9,0.1,2.4,0.4,3.1,0.6
		c2.1,0.6,2.9,0.5,4.2-0.4c0.7-0.4,2-1.2,3-1.8c1-0.5,2-1.1,2.2-1.3c0.4-0.4,0.7-0.4,1.5-0.1c0.4,0.1-0.1,0.5-2,1.6
		c-4.7,2.7-6.4,4.2-8.5,8.1c-1.7,3.1-4.6,6.7-7.5,9.4c-2.8,2.6-3.2,3.2-2.6,3.8c0.5,0.5,1,0.2,2.7-1.1c1.4-1.1,1.4-0.8,0,0.8
		c-1.4,1.6-1.3,1.7,0.4,0.5c3.7-2.5,5.8-4.9,9.7-10.5c4.9-7.2,9.6-10.8,13.8-10.8l1.3,0l-1.8,0.6c-3.9,1.4-6.6,3.4-9.5,7.2
		c-1.8,2.4-1.1,2.1,1.6-0.7c2.8-2.9,4.8-4,8-4.6c1.1-0.2,2.6-0.6,3.5-0.9c0.9-0.3,2.3-0.6,3.3-0.7l1.7-0.2l-2.6-1.7
		C268.8,100.8,263.5,99.8,259.7,101.7 M146,101.3c-3.2,1.9-4.1,3.9-2.5,6c0.6,0.9,1,1.1,1.6,1.1h0.8l-0.2-2.2
		c-0.2-3.5,1.5-5.1,2-1.9c0.2,1.3,0.9,1.4,1,0.2C149.1,102.3,147.5,100.4,146,101.3 M201.3,102c-0.1,0.2-0.3,1.1-0.4,1.9
		c-0.6,3.3-3.4,6.1-7.7,7.8c-0.9,0.4-0.9,0.4,1.2,0.2c2.2-0.1,1.9,0.2-0.5,0.8L193,113l0.8,0.5c3,1.9,9.6,0.4,10.1-2.3
		c0.3-1.5,0-2-0.5-0.9c-0.6,1.5-2,2.4-3.7,2.5l-1.4,0.1l1.7-0.6c2.1-0.8,3.2-2.2,3.4-4.5l0.1-1.4l-0.8,1.5c-0.8,1.4-1.4,2.1-0.9,1.1
		c0.7-1.7,0.9-2.7,0.5-2.7c-0.2,0-0.4,0.2-0.4,0.4c0,0.2-0.3,0.7-0.6,1.1l-0.6,0.7l0.5-1.6c0.7-2,1-4.8,0.5-5.1
		C201.5,101.8,201.3,101.9,201.3,102 M177.9,102.3c-1.5,0.9,2.3,7.1,6.7,10.9c2.6,2.3,3,1.6,0.6-1.1c-3-3.3-6.2-8.2-6.2-9.4
		C179,102.2,178.4,102,177.9,102.3 M174.9,103.2c-1.1,1.1,4.8,10,7.6,11.4c1.3,0.7,1.1,0-0.3-1.7c-1.8-2-3.3-4.4-4.9-7.5
		C176.1,103.2,175.5,102.6,174.9,103.2 M170.6,103.9c-0.3,0.7,4.7,15.2,5.6,16.2c0.5,0.6,2.6,1.1,3.6,0.9c0.9-0.2,1,0-0.6-1.7
		c-1.2-1.3-1.9-2.4-4.7-8.5C171.1,103.7,170.9,103.3,170.6,103.9 M131.1,105.5c-2.3,1.3-2.6,3.9-0.7,5.3c1.3,1,1.6,0.7,1.4-1.2
		c-0.2-2.5,0.5-3.6,1.6-2.3c0.7,0.7,0.9,0.7,0.9-0.2C134.4,105.6,132.6,104.7,131.1,105.5 M169.4,108.1c0,0.3,0.6,2,1.2,3.9
		c2.2,6.1,2.5,7.2,2.6,9.2c0.2,3,0.1,2.9,5.3,3.1c6,0.2,6.1-0.2,0.4-1.7c-3.5-0.9-3.5-0.9-5.2-6.2
		C171.6,110.3,169.4,105.8,169.4,108.1 M341.8,108.3c-0.9,1.4-1.2,4.8-1.3,16.1c-0.1,5.3-0.1,6.2-0.7,8c-0.6,2-1.1,2.5-0.6,0.7
		c0.5-1.7,0.5-9.2,0-9.2c-0.2,0-0.7,3.2-0.9,6c-0.1,0.9-0.5,2.6-0.9,3.9c-0.8,2.3-1.2,3-3.5,6.6c-0.7,1.1-1.3,2.1-1.3,2.3
		s-0.3,0.5-0.7,0.8c-0.8,0.6-0.8,0.5,0.1-2.1c0.9-2.3,1-2.8,0.4-2.8c-0.3,0-0.8,0.6-2.3,3.3c-1.2,2.2-2,5-1.8,6.7
		c0.2,1.7-1.2,4.4-2.2,4.4c-0.6,0-2.4-1.3-2.7-2c-0.4-0.9-2-2-3.4-2.4c-1.3-0.4-2.4-1.1-5.2-3.7c-1.8-1.7-6.3-4.7-6.9-4.7
		c-0.7,0-0.3,0.6,1.5,1.8c3.3,2.3,4,3.3,1.5,2c-3.8-1.9-8.5-2.8-8.5-1.5c0,0.4,0.2,0.6,1.1,0.7c1.6,0.3,3.7,1.1,5.6,2.3l1.7,1
		l-0.2,1.2c-0.6,3.6-0.3,5.6,1.3,8.8c1.4,2.9,1.5,3.1,1.4,5.1c-0.1,5.4,0,16.1,0.2,16.5c0.4,0.7,0.5,0.1,0.8-5.8
		c0.2-3,0.4-6.3,0.6-7.3c0.4-2.5,0.2-5.5-0.5-7.5c-0.7-1.9-0.7-1.9-0.2-1.4c0.9,0.9,1.3,0.4,1.2-1.8c0-0.9,0.1-2.1,0.4-2.8
		c0.2-0.6,0.3-1.3,0.3-1.4c-0.3-0.4,0.2-0.3,1.9,0.6c0.9,0.4,1.8,0.8,2,0.8c0.2,0,0.9,0.4,1.3,0.9c0.7,0.7,1.1,0.9,1.8,0.9
		c0.6,0,1.2,0.3,2.1,1.1c1.8,1.5,2.2,1.4,4.5-1.3l1.8-2.3l-0.2-1.6c-0.1-1.4-0.1-1.7,0.5-2.7c0.4-0.6,0.9-1.5,1.1-2.1
		c0.2-0.5,0.7-1.1,0.9-1.1c0.3-0.1,0.9-0.6,1.3-1.2c0.4-0.6,1.5-1.8,2.4-2.7c1.3-1.3,2-2.4,3.3-5l1.6-3.3v-4c0-2.2-0.1-5.3-0.3-6.8
		c-0.2-2.3-0.1-3.8,0.2-7.4C343.1,107.6,342.9,106.5,341.8,108.3 M236.9,108.2c-0.2,0.2-0.8,1.6-1.3,3.1c-1,2.7-4.4,9.2-6,11.4
		c-0.9,1.3-0.9,1.6-0.3,2.4c0.9,1.2,2.4-0.7,4.9-6.2C237,112.5,238.7,106,236.9,108.2 M230.2,108.8c-0.6,0.7-1.1,0.9-1,0.5
		c0.2-1.1-0.7-1.2-1.9-0.1c-0.7,0.7-0.9,0.8-1.1,0.4c-0.3-0.6-0.7-0.5-0.7,0.2c0,1.2,0.3,2.3,0.7,2.3c0.3,0,0.3,0.2,0.2,0.6
		c-0.3,1-0.5,3.7-0.2,3.7c0.1,0,0.6-0.5,1.1-1.2c1.6-2.3,1.8-1,0.2,2.3c-0.8,1.9-0.8,2.5,0,1.7c0.6-0.5,1-0.6,1.2-0.1
		c0.3,1.3,4.3-5.5,4.8-8.1c0.1-0.7,0.3-1.5,0.4-1.9c0.2-0.9-0.6-1-1.3-0.2c-0.6,0.7-1.1,0.7-1.1,0
		C231.4,108.1,230.9,108,230.2,108.8 M160.1,109c-2.2,1.2-2.9,4.3-1.3,5.7c2.1,1.8,8.1-0.7,8.1-3.4C167,109.4,162.3,107.8,160.1,109
		 M304.2,109.3c-0.2,0.6-0.2,0.9,0.1,0.9c0.4,0,0.6-0.9,0.3-1.1C304.5,109,304.3,109.1,304.2,109.3 M273,109.5
		c-0.4,0.3-0.2,0.5,2.1,2c1.4,0.9,2.5,1.7,2.5,1.8c0,0.2-3-0.2-4-0.6c-0.5-0.2-1.1-0.4-1.4-0.4c-0.3,0-1-0.2-1.6-0.5
		c-0.6-0.3-1.3-0.5-1.5-0.5c-0.4,0,3.2,3.5,5.7,5.5c2.1,1.7,1.8,1.7-2.1-0.3c-5.8-2.9-7.8-3.6-9.7-3.2c-1.8,0.4-1.1,1.4,1,1.4
		c1.1,0,4,1.2,7.3,2.9c2.9,1.6,5.8,2.6,8.4,3c1,0.2,2.7,0.5,3.7,0.7c2,0.5,2,0.5,2.2-0.5c0.2-0.6,0.1-0.8-0.8-1.2
		c-0.6-0.3-1.2-0.6-1.4-0.8c-0.2-0.2-1.3-0.7-2.4-1.2c-1.1-0.5-2.3-1.1-2.7-1.4l-0.7-0.5l0.9,0.2c1.2,0.2,2.5,0.6,3.8,1.1
		c0.5,0.2,1.5,0.4,2.3,0.5s1.5,0.1,1.8,0.2c0.7,0.1,0.9-0.8,0.1-1c-0.3-0.1-1-0.6-1.4-1c-0.5-0.5-1.4-1.2-2-1.7
		c-1.6-1.3-1.1-1.3,0.7-0.1c4.5,3.1,5.7,2.5,1.6-0.8c-5.2-4.2-4.5-3.8-7.4-3.9c-2.6-0.1-3,0-2.3,0.7c0.2,0.2-0.1,0.1-0.7-0.2
		C273.6,109.1,273.6,109.1,273,109.5 M322.9,111.5c-0.5,1-1.1,2.4-1.4,3.1c-0.3,0.7-0.9,2.3-1.2,3.6c-0.7,2.7-1.8,4.1-3.2,4.1
		c-0.5,0-1.2,0.2-1.6,0.5c-1.9,1.3-1.7,2.8,0.4,1.8c1.9-0.9,2.4-0.2,1.2,1.4c-1.4,1.9-0.1,2,1.7,0.1c2.3-2.4,6.9-16.4,5.4-16.4
		C323.9,109.7,323.4,110.4,322.9,111.5 M204.8,113.5c-0.8,1.7-3.6,2.5-6.9,1.9c-2.3-0.4-4.4-0.5-3.8-0.1c0.2,0.1,1.2,0.4,2.1,0.5
		c4.4,0.8,8.7,5,9.5,9.1c0.4,2.1,0.7,2.6,0.7,1.2c0-2.4-1-5.2-2.5-7.2c-1-1.3-1-1.3-0.2-0.7c1.3,0.9,2.5,2.4,3.1,3.8
		c0.6,1.5,1.1,1.7,0.9,0.4c-0.3-1.7-1.3-3.2-2.7-4.4c-0.8-0.7-1.4-1.3-1.3-1.4c0.2-0.2,2.4,1.2,3.3,2.2c1.1,1.2,1.5,1.2,1,0.2
		c-0.5-1-2.2-2.4-3.4-2.7l-1-0.3l1.1-0.5c0.7-0.3,1.6-0.5,2.3-0.4c1.1,0.1,1.1,0.1,0.6-0.4c-0.3-0.3-0.8-0.5-1.2-0.5
		c-0.4,0-0.6-0.2-0.6-0.6C205.8,112.9,205.2,112.8,204.8,113.5 M301.7,113.6c-1.1,0.8-2.5,4.1-2.9,7.2c-0.1,0.8-0.5,2.1-0.9,3
		c-0.8,1.7-0.8,1.8,0.4,1.4c1-0.4,1.5-1.5,2.5-5.8c0.5-2.1,1.1-4.3,1.4-4.9C302.9,113,302.8,112.8,301.7,113.6 M326.4,113.7
		c-0.1,3.5-1.3,8.7-2.3,9.6c-0.4,0.4-0.4,0.4-0.2-0.3c0.5-1.3,1.1-6.7,0.8-7c-0.3-0.3-1.1,1.4-1.9,4.1c-0.3,1.1-0.8,2.5-1.1,3.1
		c-0.3,0.6-0.5,1.2-0.5,1.3c0,0.2-0.5,1.1-1.1,2.1c-0.8,1.4-1.1,2.2-1.2,3.2c0,0.7-0.3,2.1-0.6,2.9c-0.7,1.9-1,5.2-0.6,5.2
		c0.2,0,0.3,0.2,0.3,0.5c0,0.3,0.2,0.5,0.4,0.5c0.3,0,0.4,0.3,0.4,1.1c0,1.2,0.3,1.5,0.8,0.9c0.2-0.3,0.4-1.4,0.4-3.1
		c0.1-3.5,2.1-8.9,4.5-11.8l0.6-0.8l-0.6,2.8c-0.3,1.5-0.9,4-1.3,5.4c-0.5,1.8-0.7,2.9-0.5,3.5c0.2,1,0.6,1.3,0.7,0.3
		c0-0.3,0.3-1.3,0.7-2.2c1.3-3.1,2.5-6.5,2.9-8.7c0.4-2.2,0.6-12,0.3-12.9C327.1,113,326.4,113.1,326.4,113.7 M153,113.7
		c-0.1,0.2,0.3,1.3,0.8,2.5c2.8,6.3,2.9,7.5,0.2,2.2c-1.8-3.5-2.5-4.2-1.4-1.2c0.9,2.2,0.6,2.2-0.6-0.1c-1.2-2.4-1.6-2.7-0.7-0.7
		c0.8,2,1.6,4.3,1.5,4.4c-0.1,0.1-0.7-1.2-1.4-2.7c-0.7-1.6-1.5-2.8-1.7-2.8c-0.2,0-0.5-0.2-0.8-0.5c-0.4-0.4-0.4-0.4-0.2,0.1
		c0.6,1.6,1.7,5.6,1.7,6c0,0.2-0.6-0.9-1.2-2.6c-1.6-4-2.7-5-1.4-1.2c0.7,2.1,0.6,2.1-0.4,0.1c-1.1-2.2-2.5-2.3-1.5-0.1
		c0.9,1.9,0.9,2.4,0,0.8c-0.8-1.4-1.3-1.9-1.3-1.3c0,0.2,0.6,1.7,1.2,3.4c2.5,6.3,3.3,13.1,2.3,19.4c-0.6,3.5-1.1,7.4-1.5,10.8
		c-0.2,2-0.7,4.9-1,6.5c-0.6,3-0.6,4,0,2c0.2-0.6,0.6-1.7,0.9-2.5c0.9-1.8,2.2-7.3,2.8-11.5c0.3-1.9,0.5-3,0.5-2.3
		c0.1,2.3-0.8,7.3-2.4,13.3c-1.6,6.3-2.5,11-2.3,11.6c0.1,0.2,0.2,0,0.3-0.5s0.6-2,1-3.5c0.4-1.5,1.2-4,1.6-5.6
		c0.7-2.7,0.7-2.8,0.6-1.3c-0.3,4.1,1.7-3.4,2.5-9.4c0.7-5.1,0.8-5.8,0.7-3.3c-0.3,3.6-0.3,9.7-0.1,9.4c0.3-0.3,1-6.2,1.4-12
		c0.3-4.8,0.2-8.7-0.6-14.1c-0.6-4.4-0.5-4.8,0.3-1.3c1.6,6.9,1.7,14.1,0.5,24.1c-0.1,1.2-0.3,3.2-0.4,4.4c-0.1,1.2-0.3,3.3-0.6,4.7
		c-0.5,2.4-0.5,3.2,0,3.2c0.5,0,1.4-5.5,1.8-10.4c0.1-1.8,0.4-4.5,0.5-6c0.1-1.5,0.3-4.6,0.3-7.1c0-3.5,0.1-4.1,0.3-2.8
		c0.1,0.9,0.2,7.7,0.3,15.1c0,15,0.2,17.3,1.6,20.2c0.7,1.4,1.7,2.5,1.2,1.2c-0.2-0.5-1.1-6.2-1.4-8.6c-0.1-0.9-0.1-6.6,0-12.5
		c0.2-8.5,0.3-10.4,0.4-8.7c0.1,1.2,0.2,3.9,0.1,6.1c-0.2,4.7,0,5,0.4,0.7c0.2-1.7,0.4-4,0.5-5.1c0.1-1.1,0.2-2.9,0.2-4.1
		c0-1.2,0.1-2,0.2-1.9s0.2,6.2,0.2,13.6v13.4l0.7,3.1c0.8,3.4,1.9,6,3,7.4c0.9,1.1,1.1,1,0.4-0.3c-1-1.7-2.2-5.7-3-9.9
		c-0.3-1.5-0.1-6,0.5-13.6c0.4-5,0.4-11.2,0-15.2l-0.1-1.3l0.4,1.3c0.2,0.7,0.4,1.7,0.4,2.1c0,0.4,0.1,0.8,0.2,0.9
		c0.1,0.1,0.2,0.4,0.1,0.7c-0.1,0.4,0,0.5,0.1,0.4c0.4-0.2,0.6,1.3,0.6,4c0,2.7,0.4,3.5,0.7,1.3c0.1-0.9,0.1-1.8,0-2.1
		c-0.1-0.3-0.2-2.1-0.3-4c-0.2-4.8-1.9-12.4-3.8-16.6c-0.7-1.6-1-1.8-0.7-0.7l0.1,0.7l-0.3-0.7C155.4,117,153.3,113.3,153,113.7
		 M165.1,115.5c-2.3,1.3-4.9,1.4-7.1,0.2c-2.1-1.1-2.9-0.7-1.8,0.9c2.3,3.2,11.8,2.3,13.7-1.3c0.5-0.9,0.1-0.9-0.8,0
		c-0.5,0.4-1.3,1-1.8,1.3c-0.5,0.3-1.3,0.6-1.7,0.8c-0.4,0.2-0.8,0.3-0.9,0.1c-0.1-0.1,0-0.3,0.1-0.3c0.4,0,3-2.1,3-2.4
		C167.8,114.3,166.8,114.6,165.1,115.5 M260,117.8c0,0.2,0.3,0.6,0.6,0.9c0.3,0.3,1.1,1.2,1.8,2.1c1.4,1.8,1.1,1.9-1.6,0.3
		c-0.9-0.5-1.6-0.9-1.7-0.9s-0.5-0.2-0.8-0.5c-2.1-1.5-2.4-0.9-0.5,1c2.5,2.6,4.3,3.5,7.7,3.8c2.6,0.2,6,1.1,7,1.7
		c0.6,0.4,1.4,0.5,1.6,0.2c0.1-0.1-0.3-0.5-0.8-0.9c-0.5-0.3-1-0.8-1.1-1.1c-0.2-0.7-1.1-1.2-3.9-2.2l-2.5-0.9l1.9-0.1
		c2.8-0.1,3.3,0,4.7,0.9c0.7,0.4,2.3,1.1,3.4,1.6c3.6,1.3,5.3,0.8,1.9-0.5c-0.9-0.4-2.7-1.3-3.9-2.1c-2.2-1.4-3.8-1.9-6.2-1.9
		c-0.7,0-1.7-0.1-2.2-0.3c-0.5-0.2-1.5-0.3-2.1-0.4c-0.7,0-1.6-0.3-2.2-0.5C260.2,117.5,260,117.5,260,117.8 M168,118.2
		c-0.4,0.1-0.8,0.3-1.1,0.5c-0.7,0.6-3.5,1.5-4.9,1.6c-1.3,0.1-1.4,0.2-1.3,0.9c0,0.1,0.5,0.4,1,0.7l1,0.4l-0.9-0.1
		c-1.2-0.2-0.9,0.3,0.6,1c1.1,0.5,0.4,0.6-1,0.1c-0.7-0.3-0.6,0.4,0.3,1.8c0.4,0.6,0.8,1.4,0.8,1.6c0,1.9,4.4,1.6,5.7-0.3
		c0.6-0.9,0.5-1.1-0.4-0.5c-1,0.7-2.6,0.9-3.8,0.5c-1.5-0.5-1.5-0.9-0.1-0.7c2.4,0.4,4-0.8,5.4-4c0.7-1.7,0.9-2.6,0.2-1.3
		c-0.6,1.1-1.9,2.4-3,3.1l-0.9,0.5l1-1.1c1.4-1.6,2.9-4.9,2.1-4.8C168.8,118.1,168.4,118.1,168,118.2 M193.8,118.3
		c-0.1,0.2,0.1,0.5,0.4,0.9c0.3,0.3,0.7,0.9,0.8,1.3c0.3,0.9,1.1,1,1.1,0.1C196,119.3,194.3,117.5,193.8,118.3 M120.7,119.4
		c-1.5,1.1-2.2,1.9-2.1,2.3c0.2,0.5,0.5,0.5,1.2-0.2c1.6-1.6,1.3,5.6-0.6,12.7c-0.5,1.8-1.1,4-1.3,4.9c-0.5,1.8-0.4,2.4,0.2,2.4
		c1.2,0,5.5-15.4,5.5-19.8C123.6,119.3,122.2,118.2,120.7,119.4 M191.8,119.6c0,0.2,0.3,0.7,0.6,1.1c0.4,0.5,0.8,1.3,0.9,1.8
		c0.3,1.2,1.4,1.5,1.4,0.4c0-0.9-1.2-2.9-1.9-3.3C192.2,119.3,191.8,119.3,191.8,119.6 M138.1,120.6c-0.1,0.1-0.8,1.5-1.5,2.9
		c-1.2,2.4-1.5,2.8-3.3,4.2c-3.6,2.9-4.7,3.1-1.6,0.2c2.1-2,3.3-3.7,3.3-4.9c0-0.7-0.5-0.8-0.7-0.2c-0.1,0.2-0.3,0.4-0.5,0.4
		s-0.6,0.4-0.9,0.9c-0.7,1.1-3.3,2.9-4,2.7c-0.4-0.1-0.5,0.2-0.8,2.7c-0.2,1.6-0.4,3.2-0.5,3.7l-0.2,0.8l1-0.9
		c0.6-0.5,1.7-1.2,2.5-1.5c2.8-1.2,5.2-4.3,7-8.9C138.6,121.1,138.7,119.6,138.1,120.6 M190.1,120.6c-0.1,0.1,0.1,0.4,0.3,0.6
		c0.2,0.2,0.7,0.9,0.9,1.5c0.5,1.2,1.4,1.6,1.7,0.8C193.4,122.4,190.6,119.7,190.1,120.6 M188.3,122.6c0,0.2,0.2,0.5,0.4,0.7
		c0.2,0.2,0.4,0.6,0.5,0.9c0.1,0.4,0.3,0.6,0.6,0.6c0.8,0,0.8-0.5-0.1-1.6C188.7,122.2,188.3,122,188.3,122.6 M304.6,123
		c-1.1,1.1-0.8,1.8,1.2,2.4c1.8,0.6,4.6,2.9,5.6,4.7c0.2,0.4,0.4,0.5,0.6,0.2c0.5-0.5-0.8-3-2.3-4.5c-1.1-1.1-1.2-1.2-0.5-0.9
		c2,0.8,2.5,1.4,4.5,5.4c1.7,3.3,2.5,3.2,1.4-0.3c-1.5-4.9-3.8-7.3-7-7.3c-0.8,0-1.8,0-2.2-0.1C305.3,122.5,305,122.6,304.6,123
		 M116.3,123.7c-1.9,0.4-3,0.9-6.4,2.9c-1.2,0.8-2.9,1.7-3.6,2.1c-2,1.1-4.8,3.3-7.1,5.5l-2,1.9l-1,3.1c-1.8,5.6-1.4,11.4,1.3,18.4
		c1.4,3.8,1.6,4,3,3.4c0.6-0.3,3.6-3.7,3.6-4.1c0-0.5-0.9,0-1.8,1c-2.5,2.9-3.4,1.5-3.4-5.7c0-4.9,0.1-5.9,1.6-10.6
		c0.9-2.8,1.3-2.5,0.6,0.4c-1.3,5.5-0.7,6.6,2.1,3.7c1.9-2,2.4-2.2,1.5-0.7c-0.9,1.5-1.4,2.6-1.6,4.1c-0.3,2.1,0.5,1.5,2.8-1.9
		c2.5-3.7,3.2-4.4,1.4-1.4c-1.3,2.2-1.7,3.5-1,3.5c0.5,0,1.3-1,2-2.3c0.3-0.6,1.2-2.1,1.9-3.2c5.1-7.8,3.1-10.4-3.2-4.1
		c-4,4.1-2.4,0.7,1.9-3.9c2.9-3.1,2.8-2.9,2-3.4c-0.8-0.5-1.2-0.3-3.2,1.3c-2,1.6-1.1,0.3,1.5-2.3c5.8-5.8,9.4-5.2,6.5,1
		c-1.3,2.7,0.1,3,1.5,0.3c1.7-3.3,3-9.1,2-9.1c-0.2,0-0.6,0-0.8-0.1C118.2,123.4,117.2,123.5,116.3,123.7 M187,124
		c0,1.3,0.8,2.6,1.5,2.6c0.9,0,0.9-0.8-0.1-1.8c-0.4-0.5-0.8-1-0.8-1.1c0-0.1-0.1-0.3-0.3-0.3C187.1,123.3,187,123.6,187,124
		 M201.8,123.7c1.5,3.8,1.9,6.6,1.4,10.4c-0.4,3,0.3,3.6,0.9,0.9c0.7-3,0.5-6.2-0.5-8.4C202.8,124.8,201.2,122.3,201.8,123.7
		 M255.1,124.6c-1.2,0.2-2.3,0.7-2.3,1.1c0,0.3,0.5,0.3,2.2,0c2.2-0.4,4.9,0.5,2.8,0.9c-2.6,0.5-7.5,2.7-9.3,4.2
		c-2.4,2-2.9,2.9-0.8,1.5c3.6-2.4,9.8-1.8,22.7,2.3c4.4,1.4,11.8,3,12.2,2.7c0.4-0.4-0.4-0.7-1.9-1c-3.9-0.6-6.9-1.5-10.8-3.3
		c-2.8-1.3-4.8-2.1-7.7-3.1c-3.6-1.2-3.6-1.2-0.9-1.7c2.3-0.4,2.5-0.4,3.3,0c2.3,1.1,9.1,2.3,8.6,1.5c-0.1-0.1-0.5-0.3-0.9-0.3
		c-0.8,0-6.2-2.3-7.4-3.1c-0.5-0.3-1.1-0.6-1.3-0.6c-0.3,0-1.4-0.2-2.4-0.5C258.9,124.6,256.6,124.4,255.1,124.6 M172.7,125.1
		c-0.1,0.1-0.7,1.2-1.2,2.4c-2.3,4.8-1.9,7.6,1.5,11.8c1.4,1.7,1.5,1.4,0.3-1.1c-1.7-3.6-1.6-5.8,0.1-7c0.4-0.2,0.6-0.6,0.5-0.7
		c-0.2-0.3,0.4-1,0.7-1c0.1,0,0.2,0.2,0.2,0.4c0,0.5,1.3,2,1.8,2c0.6,0,0.8-0.8,0.3-1.3c-0.3-0.3-0.4-0.7-0.2-1.2
		c0.2-0.7,0.2-0.7,0.9,0.7c0.6,1.2,0.9,1.5,1.4,1.5c0.9,0,1-0.6,0.3-1.4c-0.7-0.6-0.8-1.4-0.4-1.7c0.1-0.1,0.5,0.4,0.8,1
		c0.8,1.7,2,2,1.7,0.4c-0.1-0.4,0-1.1,0.1-1.5l0.3-0.8l0.4,1.1c0.4,1.2,1.1,1.6,1.6,1.1c0.3-0.3,0.2-0.6-0.6-1.8
		c-0.5-0.8-0.9-1.6-0.9-1.8c0-0.5-0.5-0.6-1.3-0.4c-0.8,0.2-2.6,0.2-3.4-0.1c-0.4-0.1-0.7-0.1-0.8,0.1c-0.1,0.1-0.5,0.3-1,0.4
		s-1.2,0.3-1.7,0.6l-0.9,0.5l0.2-1.2C173.7,125,173.3,124.5,172.7,125.1 M183.6,125.3c-0.4,1,1.6,4,2.4,3.7c0.6-0.2,0.5-1.2-0.1-1.2
		c-0.6,0-1.2-0.8-1.5-1.9C184.2,125,183.8,124.7,183.6,125.3 M302.3,126.2c-0.8,0.9-0.5,1.1,1,1.1c0.8,0,1.7,0.1,2,0.3
		c0.8,0.4,1.4,0.1,1-0.5C305.8,125.9,303.2,125.3,302.3,126.2 M169.5,127.4c-0.6,0.7-3,2.3-3.7,2.5c-0.6,0.2-1.3,1.1-1,1.5
		c0.1,0.2,0.3,0.2,0.5,0.1c0.3-0.1,0.3,0.1,0,1.1c-0.6,2-0.4,4.3,0.6,5.5c0.4,0.5,0.4,0.5,0.6-0.1c0.2-0.7,0.2-0.6,2.1,4.3
		c1.3,3.6,1.6,0.9,0.3-2.9c-0.9-2.5-1-3.9-0.8-5.9l0.2-1.6l0.2,2.3c0.1,1.8,0.4,2.8,1.2,4.9c0.9,2.3,1.3,3.4,1.8,6.5
		c0.2,1.1,0.6,0.6,0.7-0.9c0.2-2-0.2-3.6-1.6-6.2c-2.2-4-2.5-6.8-1.2-9.8C170.3,126.9,170.3,126.5,169.5,127.4 M189.6,127.8
		c-0.1,0.1,0.2,1,0.6,1.9c0.9,2.2,1.8,2.5,3.2,1.2c1.2-1.1,0.9-1.7-0.6-1.5c-1.1,0.1-1.2,0.1-1.7-0.8
		C190.5,127.7,189.9,127.4,189.6,127.8 M180,132.5c-0.9,1.1,0.8,4,2.3,3.8c1.8-0.3,2.7-1.8,1-1.8c-1,0-2.6-1.1-2.6-1.7
		C180.8,132.2,180.4,132.1,180,132.5 M176.8,132.9c-0.3,0.5,0,3.9,0.4,4.6c0.2,0.3,1.5,0.3,2.1-0.1c0.5-0.4,0.3-1.5-0.3-1.5
		c-0.4,0-0.9-1.1-0.9-2.1C178.2,132.7,177.3,132.1,176.8,132.9 M198.5,133.9c-1.5,1-1.8,2.7-0.8,5.3c0.3,0.9,0.6,1.8,0.7,2
		c0.2,0.7,0.6-0.8,0.4-1.7c-0.4-1.7,0.2-3.7,1.3-4.9C201,133.6,199.7,133,198.5,133.9 M209.1,134.1c0,0.1,0.9,1.1,2,2.3
		c1.8,2,4.4,5.4,4.8,6.3c0.1,0.2-0.1,0-0.5-0.4c-1.7-2-6.5-7-6.7-7.1c-0.9-0.1,0.5,3,2.2,4.9c3.7,4.3,5.9,7.6,6.9,10.6
		c0.4,1.2,0.8,2.3,1,2.5c1.4,1.8,2.8,22.4,1.9,28.5c-0.6,4.6-0.5,4.9,0.4,0.7c0.4-1.9,0.6-4,0.7-7.8l0.2-5.2l0.4,3
		c0.3,2.3,0.3,3.5,0.1,4.9c-0.3,2.1-0.8,7-1,9.2c-0.1,2-1.1,7.3-2.1,11.5c-1,4-1.6,8.9-1.2,9.3c0.3,0.3,0.8-0.9,0.8-1.7
		c0-0.8,0.9-4.9,1.7-7.4c2.8-9.4,4.2-22.3,3.4-31.9c-0.2-1.9-0.5-5.6-0.7-8.2c-0.7-8.3-3.9-15.6-9.7-21.8c-1.9-2-2.2-1.7-0.5,0.3
		c2,2.4,2.8,4.1,0.9,1.9C211.7,135.9,209.1,133.6,209.1,134.1 M264.6,134.5c0.5,1,8,5.1,9.4,5.1c0.3,0,2.1,0.5,4.1,1.1l3.7,1.1
		l7.5-0.2c4.1-0.1,7.9-0.2,8.4-0.3c0.9-0.2,0.9-0.2,0.5,0.3c-0.4,0.4-0.3,0.5,0.2,0.9c1.4,1,3,2.9,3,3.7c0,0.3,0.3,0.8,0.7,1.1
		c0.7,0.5,1,2.1,1.1,5c0,0.2,0.2,0.3,0.4,0.3c0.3,0,0.4,0.2,0.3,0.6c-1.5,5.3-2,10.3-1.5,14.8c0.2,1.7,0.3,4.6,0.3,6.4
		c0,1.8,0,3.3,0.1,3.4c0.6,0.6,0.8-0.8,1-8c0.2-8.1,0.5-10.1,1.9-14.6c1-3.2,1-5.2,0.2-7.4c-0.3-0.8-0.6-1.8-0.6-2.2
		c0-1.1-0.5-0.9-0.8,0.3c-0.2,1-0.3,1.1-0.5,0.6c-1.8-3-3.1-4.6-4.1-5.1l-1.1-0.6l1.7-0.2c3.1-0.3,3.2-1.1,0.1-1
		c-1.1,0-3.9,0.1-6.3,0.2c-9.1,0.4-16.9-0.8-23.2-3.7C266.3,134.1,264,133.5,264.6,134.5 M226.2,139.4c0,1.5,9.6,5.8,13.3,5.8
		c1.6,0,1.7,0,0.7,0.2c-2.7,0.5-10.3-1.9-14.7-4.7c-0.6-0.4-1.1-0.6-1.1-0.5c0,0.6,4.1,4,6.8,5.5c3.1,1.8,2.2,1.9-2.4,0.4
		c-3.5-1.2-3.4-1.2-3,0.1c0.3,1.1,1.6,2,4.6,3.4c1,0.5,2.6,1.2,3.6,1.7c2.2,1,4.6,1.2,5.8,0.3c1.4-1,1.2-1.3-0.8-1.1
		c-1.9,0.2-1.9,0.2-1.5-0.7c0.6-1.2,1.5-1.8,3.2-2.3c1.2-0.4,2-0.8,2.6-1.4c0.4-0.4,1.1-1.1,1.5-1.5c1.2-1.1,0.8-2-0.6-1.3
		c-2.4,1.2-9.9-0.4-15.1-3.2C226.6,139,226.2,138.9,226.2,139.4 M201.5,140c-0.1,0.2,0.1,0.8,0.3,1.3c0.5,1,0.6,2.7,0.3,4.6
		c-0.3,1.9,0.3,1.5,1.1-0.7c0.7-2,0.7-3.6-0.2-4.7C202.4,139.6,201.7,139.4,201.5,140 M271.2,140.8c-0.1,0.1-0.2,1.5-0.2,3.2
		c0,1.6-0.2,4.2-0.4,5.6c-0.8,5.6-0.8,10.2,0,10.2c0.4,0,0.5-0.6,0.8-3.2C272.6,144.6,272.5,139.5,271.2,140.8 M124.6,141.4
		c0,0.4,0.2,0.6,0.7,0.6c0.8,0,1.7,0.4,1.7,0.8c0,0.1-0.6,0.2-1.3,0.2c-1.5-0.1-1.5,0-1.8,0.9c-0.2,0.7-0.1,0.7,0.7,0.7
		c1.9,0,2.4,0.7,0.7,0.9c-1.6,0.2-2.2,0.6-2.2,1.2c0,0.3,0.2,0.4,0.8,0.2c0.4-0.1,1.2,0,1.8,0.2l1,0.4l-1.1,0.2
		c-1.8,0.3-2.9,1-3,1.7c-0.1,1.2,0.2,1.4,1.4,0.9c2.1-0.9,6-0.3,8.6,1.2c0.7,0.4,2.8,1.7,4.7,2.9c1.9,1.2,3.7,2.2,3.9,2.1
		c0.2-0.1,0.5,0,0.6,0.1c0.1,0.1,0.2-0.8,0.2-2.2V152l-4.5-3.5c-2.4-1.9-4.4-3.5-4.4-3.6c0.2-0.2,4,1.9,6.4,3.7
		c2.4,1.7,3.2,2.1,2.7,1.4c-0.4-0.7-4.9-4-8.7-6.4l-4.1-2.6l-2.6-0.1C124.7,140.9,124.6,140.9,124.6,141.4 M188.4,141.5
		c-1.5,0.7-1.7,1.4-1.2,2.7c0.8,2.1,1.5,2.4,1.3,0.5l-0.2-1.3l1.2-0.7C191.6,141.5,190.6,140.4,188.4,141.5 M274.3,141.7
		c-0.6,1-2,15.7-1.9,19.6c0.2,4.6,0.4,5.1,2,5.4c1.5,0.3,1.7,0.1,1.5-1.8c-0.2-2.2,0.2-6.5,0.8-8.2c0.3-0.8,0.8-2.6,1.1-4
		c0.3-1.4,0.9-3.7,1.4-5c1.1-3.5,1-4.6-0.3-4.6c-0.1,0-0.5,1-0.9,2.3c-0.6,2-1.5,3.6-1.1,2c0.7-2.7,0.8-4.7,0.5-4.9
		c-0.6-0.2-0.7,0-1.4,2.8c-0.3,1.4-0.8,2.8-1,3.2c-0.2,0.4-0.3,0.5-0.2,0.2c0.1-0.3,0.3-1.8,0.4-3.5c0.2-1.6,0.4-3.1,0.4-3.2
		s0-0.2-0.1-0.2c-0.1,0-0.4-0.1-0.7-0.2C274.7,141.5,274.4,141.6,274.3,141.7 M173.6,142.8c0.6,1.6,0.6,3.2,0.1,3.4
		c-0.3,0.1-0.6,0.3-0.6,0.5c0,0.9,0.6,2.9,1.1,3.3c0.3,0.2,0.7,0.8,0.9,1.2c1.4,2.7,3.9,4.7,6.1,4.8c1.5,0.1,1.5,0.2,0.3-1.9
		c-1.1-1.9-1.1-2.5-0.5-3.8c0.6-1.2,0.3-1.7-1-1.9c-1.3-0.1-2-0.7-2.3-1.7c-0.4-1.3-0.8-0.8-0.8,0.8c0,1.1-0.1,1.6-0.5,1.8
		c-0.5,0.3-0.5,0.1-0.9-2.1c-0.3-2.2-1.1-4.1-1.9-4.8C173.4,142.2,173.4,142.3,173.6,142.8 M200,142.4c-0.2,0.2,0,2.6,0.2,3.8
		c0.2,0.8,0.9,0.8,1.2-0.1C202.1,144.3,200.9,141.5,200,142.4 M196,142.7c-1.2,0.4-2.7,1.3-2.7,1.6c0,0.3,1,2.2,1.3,2.5
		c0.1,0.1,0.4,0.5,0.6,0.9c0.3,0.4,0.6,0.7,0.9,0.7c0.6,0,0.5-1.3-0.3-2.3c-0.7-0.9-0.4-1.4,0.5-1.4c0.3,0,1,1.6,1,2.4
		c0,0.8,0.6,1.5,1.1,1.3c0.5-0.3,0.3-2.7-0.4-3.7c-0.4-0.5-0.7-1.2-0.7-1.4C197.2,142.6,196.7,142.5,196,142.7 M207.6,143.3
		c-0.1,0.2,0.1,1.5,0.5,3.1c0.9,3.5,0.7,3.7-0.4,0.7c-1.4-3.7-1.4-1.4,0,3c1.5,4.7,1.2,5-0.8,0.9c-1-2.1-1.3-2.3-1.3-0.8
		c0,0.7,0.4,1.6,1.2,3.1c1.6,2.8,3.3,6.2,3.3,6.6c0,0.2-1.1-1.4-2.4-3.6c-3-4.8-3.9-5.1-1.5-0.4c1.9,3.6,1.8,3.7-0.4,0.5
		c-0.9-1.3-1.6-2.3-1.6-2c0,0.4,2.1,4.3,3.3,6.1c1.9,2.8,3.1,8.2,3.7,16.7c0.4,5.5,0.8,3.1,0.6-3.5c-0.1-2.4,0-3.5,0.1-2.7
		c0.1,0.7,0.3,3.4,0.4,5.9c0.2,5.7,0.6,5.1,0.9-1.6c0.5-9.2-0.2-14.5-4.1-29.3C208.7,143.3,208.1,142.5,207.6,143.3 M181.7,144.5
		c-1.5,0.6-1.5,3.1,0,4.6c0.5,0.5,1.8,0.1,1.8-0.6c0-0.3-0.1-0.4-0.2-0.2c-0.2,0.5-0.5,0.4-0.7-0.3c-0.1-0.3-0.2-0.8-0.3-1
		c-0.1-0.3,0.1-0.6,0.6-0.9C184.8,145.2,183.7,143.7,181.7,144.5 M249.4,146c-3.3,4.6-4,10.8-1.9,17.5c1.1,3.6,1.2,5.6,0.5,9.5
		c-0.6,3.4-0.7,4.6-0.3,4.9c0.4,0.3,0.9-0.6,1.1-2.2c0.1-0.9,0.7-2.6,1.2-3.9c1.3-3.1,1.2-4-0.2-8.6c-2.2-7-2.3-10.3-0.6-15.1
		C250.3,145.2,250.3,144.7,249.4,146 M211.5,146.1c0,0.3,0.2,1.2,0.4,1.9c0.7,2.5,1.8,10.7,2,15.7c0.8,16.3,0.6,19.6-1.1,26.4
		c-2,7.9-3.9,20.3-3.5,22.7c0.4,1.9,0.6,1.7,0.6-0.5c0-3.7,0.8-8.5,2.7-15.3c0.5-2,0.6-1,0,1.2c-1.1,4.6-2,11.3-1.9,14.9
		c0.1,2.7,0.1,2.6,0.7-3.3c0.4-3.9,1.3-8.5,2.2-11.5c1.5-5,2.7-12.1,3.1-17.3c0.3-4.5,0.6-4.2,0.5,0.5c-0.1,4.8-1,12.5-2.2,17.9
		c-0.8,3.7-1.2,12.5-0.7,12.8c0.4,0.2,0.5-0.5,0.7-3.8c0.1-2.7,0.3-3.9,2.3-12.7c1.1-4.9,1.4-10.7,1.3-19.7
		c-0.1-3.7-0.2-9.2-0.2-12.4c-0.1-4.7-0.2-5.9-0.5-6.5c-0.2-0.4-0.5-1.4-0.6-2.1c-0.1-0.7-0.3-1.3-0.5-1.4c-0.2-0.1-0.2,0.2-0.1,0.7
		c0.5,3.2,0.7,6.9,0.5,11l-0.2,4.5l-0.2-4.3c-0.3-9.3-1.7-16.9-3.2-18.8l-0.6-0.7l0.2,0.7c2.1,8.7,3,13.8,1.4,7.5
		C212.9,147.9,211.5,144.2,211.5,146.1 M191.3,147.2c-0.3,0.7,1,2.8,1.7,2.8c1,0,0.7-1.2-0.5-2.6
		C191.8,146.7,191.5,146.6,191.3,147.2 M313.7,148.1c0.5,0.4,1.1,0.9,1.3,1c0.4,0.2,0.4,0.4-0.4,1.6c-0.8,1.2-0.9,1.5-0.8,3.1
		c0,1.2,0,1.6-0.2,1.2c-0.1-0.3-0.4-0.7-0.6-0.8c-0.7-0.4-1-2.1-0.8-4.5C312.4,147.1,312.5,147,313.7,148.1 M188.8,148.7
		c0,0.9,1.1,2.7,1.8,2.8c0.9,0.1,0.9-0.5,0.1-2C189.9,148.1,188.8,147.6,188.8,148.7 M186.4,149.3c-0.4,0.5,0,2,1,3.1
		c1.3,1.5,2.2,0.7,1.1-1c-0.4-0.6-0.8-1.4-0.8-1.8C187.4,148.9,187,148.7,186.4,149.3 M169.8,149.8c-0.5,1.2,0,7.7,0.7,11.4
		c0.1,0.4-0.1,0-0.4-0.7c-0.5-1.4-1.4-6.5-1.4-8.3c0-1.4-0.5-1-0.7,0.7c-0.9,6.9,2.1,14.9,10,26.9c1.8,2.8,3.9,6,4.6,7.1
		c2.3,3.6,2.4,3.6,1.1-0.1c-0.9-2.6-0.9-2.7-0.4-1.9c1.6,2.8,2.9,7.2,4,13.2c0.8,4.5,1.5,6.7,3.1,9.9c1.8,3.6,3.4,5,1.9,1.6
		c-1.2-2.6-2.1-6-2.4-8.8c-0.8-7.7-2.3-13.8-4.4-18.5c-1.3-2.9-0.5-1.8,1.3,1.8c3,6.1,5.2,13.5,5.7,19.1c0.3,3.7,0.9,3,0.9-1
		c0-6.9-4.8-21.3-10-29.8c-2.1-3.4-3.9-8.2-4.8-13.1c-0.1-0.3-0.3-0.6-0.4-0.5c-0.5,0.2-0.3,1.7,0.6,5.4c0.4,1.7,0.7,3.2,0.7,3.3
		c-0.2,0.2-2.3-5.9-3.4-10.1c-0.4-1.5-0.9-1.1-0.8,0.8c0.1,2.6,3.6,13.4,5.2,16c0.3,0.5,0.9,1.9,1.3,3.2c0.8,2.5,0.9,3.4,0.1,1.2
		c-0.3-0.7-0.8-1.9-1.3-2.6c-3.2-5.6-6.3-13.7-7.3-18.9c-0.5-2.7-1.1-3.3-1-1.1c0.1,1.7,0.6,5.5,1.1,7.4c0.6,2.4,0.2,2.1-0.7-0.7
		c-1.1-3.4-2.2-8.4-2.4-11C170.1,150.1,170,149.5,169.8,149.8 M183.8,150.2c-0.5,0.9,1.6,5.1,2.5,5.1c0.5,0,0.4-0.6-0.1-1.9
		c-0.3-0.6-0.7-1.7-1.1-2.4C184.6,149.6,184.2,149.4,183.8,150.2 M181.7,150.8c-0.7,1.3,1.3,5.6,2.7,5.6c0.7,0,0.7-0.3-0.4-2.2
		c-0.5-0.9-1-2.2-1.1-2.8C182.6,150.2,182.1,149.9,181.7,150.8 M125.4,153.5c-0.9,0.9-0.2,6.7,1.4,10.4c1.2,3,2.1,3.1,1.1,0.1
		c-1-3-1.2-4.1-1.4-7.5C126.3,153.4,126.1,152.8,125.4,153.5 M129,154.5c-1.7,1.9-1.1,6.7,1.6,12.8c0.5,1.2,1.2,3,1.5,3.8
		c1.1,3.1,0.8,0.7-0.3-3.1c-1.7-5.6-2-7.3-2.3-10.4c-0.2-2.2,0.2-3.3,0.5-1.7c0.1,0.5,0.2,0.8,0.3,0.7c0.2-0.2-0.5-2.6-0.7-2.6
		C129.5,154,129.3,154.2,129,154.5 M229.4,154.6c0,0.4,1.8,2.2,3.1,3.1c1.9,1.3,0.7,1.5-1.8,0.3c-1.8-0.8-2.4-1-2.4-0.5
		c0,0.7,0.6,1.3,1.9,1.7c0.7,0.2,1.3,0.6,1.3,0.7c0,0.3,0.8,0.7,2.4,1.2c0.8,0.2,1.7,0.5,2,0.6c0.5,0.2,0.6,0.1,0.6-0.8
		c0-1.3,0.9-2.2,2.5-2.6c2.3-0.6,1.3-1.6-1.6-1.6c-2.1,0-4-0.5-6.3-1.6C229.4,154.2,229.4,154.1,229.4,154.6 M309,154.6
		c-0.4,0.3-0.4,0.5-0.1,1.4c0.2,0.6,0.4,1.8,0.4,2.6c0,0.9,0.2,2.5,0.3,3.6c0.2,1.1,0.3,2.9,0.3,4c0,2.1,0.4,2.5,0.9,1
		c0.3-1.1,0.3-9.5-0.1-10.9C310.3,154.7,309.7,154.1,309,154.6 M197.6,156.2c0,0.1,0.3,0.9,0.8,1.7c0.4,0.8,1.1,2.5,1.6,3.8
		c0.4,1.2,1.3,3.6,1.9,5.3c3,8.3,4.3,12.8,5.1,18.7c0.7,5,1.1,1.4,0.5-5c-0.3-3.8-2.6-12-4.3-15.3
		C201.6,162.2,197.6,155.6,197.6,156.2 M121.9,157.9c0,0.2,0.5,1.3,1.1,2.6c1.1,2.3,2.6,7.1,2.3,7.3c-0.1,0.1-0.2,0.1-0.8-1.7
		c-0.6-1.8-2.6-6-2.9-6c-0.3,0,0,1.2,0.8,2.9c1.4,3.2,2.7,7.6,3,10.3c0.2,1.5,0.4,3.2,0.5,3.9c0.1,0.7,0.2,1.3,0,1.3
		c-0.3,0-2.4-5.4-2.7-7.2c-0.7-4-0.9-4.8-1-3.7c-0.1,1,0.2,3.2,1,7.5c0.3,1.4,0.6,3.1,0.6,3.7l0.2,1.2l-0.5-1.2
		c-0.7-1.6-1.5-4.8-1.9-7.6c-0.2-1.3-0.3-2.4-0.4-2.5c-0.1-0.1-0.2,2.7-0.1,4.9c0.1,3-0.3,0.7-0.7-3.8c-0.2-2.6-0.5-4.8-0.5-4.9
		c-0.3-0.3,0.2,10.3,0.6,12.2c0.2,1.1,0.4,2.1,0.4,2.2c0,0.1-0.5-1.1-1.1-2.6c-1.3-3.4-1.9-6.6-2-9.8c0-2.7-0.2-2.9-0.9-0.7
		c-1.3,3.4,1.3,13.6,5.2,20.4c2.6,4.5,6.9,10.1,7.8,10.1c0.3,0,0.3-0.2-0.3-0.7c-0.6-0.7-1.7-2.3-3.1-4.7c-0.6-1-0.5-0.9,1.3,0.8
		c1.1,1,1.8,1.6,1.7,1.3c-0.1-0.3,0.4,0,1.3,0.8c1.7,1.6,3.1,2.6,3.5,2.5c0.2-0.1-0.3-0.6-1.1-1.2c-1.2-1-3.1-3.3-4.8-5.9
		c-0.3-0.5,0.7,0.4,2.3,1.9c2.6,2.6,3.6,3.3,3.6,2.7c0-0.1-0.6-0.9-1.4-1.9c-2.7-3-3.7-5.3-4.5-9.7c-0.2-0.9,1.2,1.2,2.9,4.5
		c0.6,1.2,3.3,4.3,3.3,3.9c0-0.2-0.4-0.9-0.8-1.6c-1.2-1.9-1.8-3.7-1.8-5.2c0-1.7,0.4-1.5,0.9,0.6c0.7,2.6,1.2,3.5,3.1,5.4
		c1.1,1.1,1.9,2.1,2.1,2.6c0.4,1.7,1.1,0.6,0.8-1.2c-0.1-0.6-0.7-1.5-1.8-2.6c-1.4-1.6-1.7-2-2.4-4.2c-0.5-1.5-1.1-2.9-1.6-3.5
		c-0.4-0.5-1-1.5-1.2-2.2c-0.2-0.7-0.7-1.8-1-2.6c-0.3-0.7-0.7-1.7-0.8-2.1c-0.3-1.4-1.3-3.9-1.5-3.9c-0.5,0-0.5,0.6-0.1,1.9
		c0.4,1.6,1.1,6.3,0.9,6.5c-0.1,0.1-0.4-0.8-0.7-2s-0.8-3.2-1.2-4.5c-0.4-1.3-0.9-3.6-1.3-5.1c-0.4-1.6-1.1-3.7-1.9-5.4
		c-0.7-1.5-1.3-2.8-1.3-2.9C122.7,158.5,121.9,157.6,121.9,157.9 M132.7,158.4c-0.9,1.4-0.8,4.9,0.3,8.9c0.5,2,1.4,5.4,1.9,7.6
		c1.6,7,1.8,7.7,2.3,9.1c0.3,0.8,0.6,1.4,0.8,1.4c0.3,0,0.3-0.1-0.7-3.7c-0.4-1.4-0.8-4-0.9-5.8c-0.2-1.8-0.5-4.3-0.9-5.7
		c-0.5-2-0.5-2.6-0.3-3.6c0.2-0.6,0.3-2.1,0.3-3.3c0-1.2,0.2-2.6,0.4-3.2c0.4-1.1,0.4-1.1-0.3-1.6c-1-0.8-1.2-0.4-1.4,2.3
		c-0.2,3.3-0.6,3.1-0.6-0.3C133.6,157.6,133.5,157.2,132.7,158.4 M203,157.9c0,0.1,0.5,1.1,1.2,2.3c1.7,3.1,3.5,7.4,4.6,10.4
		c1,2.9,1.3,2.4,0.4-0.8c-1-3.9-2.3-6.9-4.4-10.3C203.8,158,203,157.2,203,157.9 M109.5,159.1c-0.2,0.2-1,1.9-1.9,3.8
		c-2.2,4.7-6.8,10.8-8,10.6c-1.1-0.2-2.8-8.6-2-10.1c0.4-0.7,0.3-0.8-0.3-0.8c-1.4,0-1.6,9.9-0.3,11.6c0.1,0.1,0.3,0.8,0.3,1.5
		c1.2,10.5,2.8,11.8,6.7,5.6c1.1-1.8,1.8-3.1,4.4-8.7c1.2-2.6,3.2-9.1,3.4-11.1l0.2-1.7l-1.1,3.1c-1.5,4.4-3.2,8.3-3.8,8.9
		c-0.3,0.3-0.5,0.7-0.5,0.8c0,0.4-3,4.7-3.9,5.7c-1.5,1.5-2.4,1.7-3.3,0.6c-0.9-1.1-1.1-2.9-0.2-2.6c0.3,0.1,0.8,0.2,1.1,0.3
		c1.1,0.3,4.6-4,6.7-8.5C108.7,164.4,110.5,157.8,109.5,159.1 M196.8,159.7c0,0.1,0.5,1.4,1.2,2.9c1.1,2.5,2.8,9.1,2.5,9.4
		c-0.1,0.1-0.5-1-0.8-2.5c-0.8-2.8-1.9-5.7-2.3-5.7c-0.5,0-0.5,0.7,0.1,2.6c0.4,1.1,1.1,3.7,1.6,5.7c0.5,2,1.2,4,1.5,4.4
		c0.7,1.2,1.3,3.4,1.5,5.9c0.2,2.7,0,2.9-0.4,0.3c-0.2-1-0.4-1.9-0.5-1.9s-0.4-0.9-0.7-1.9c-1.2-4.6-3.9-11.1-5.6-13.4
		c-1-1.4-0.6,0.6,0.9,4.2c0.9,2.1,1.8,4.4,2,5.2c0.2,0.7,0.8,2.4,1.3,3.7c1.5,3.8,0.9,3.1-1.2-1.4c-1.1-2.3-2.7-5.3-3.6-6.6
		c-1.8-2.7-2.5-3.9-3.4-6.2c-0.6-1.7-1-1.6-0.5,0.1c0.2,0.6,1.4,3,2.7,5.4c3,5.7,5.9,12.2,6.2,13.8c0.1,0.8,0.1,0.8-0.4-0.4
		c-0.3-0.7-1.2-2.4-1.9-3.8c-0.7-1.4-1.3-2.6-1.3-2.9c0-0.2-1.3-2.3-2.9-4.7c-1.6-2.4-3.5-5.3-4.2-6.6c-0.7-1.2-1.3-2.2-1.4-2.1
		c-0.2,0.2,0.5,2,1.2,3.2c1.8,2.9,7.5,14,8.2,16.3c1,3.1,1.3,4.9,0.4,2.2c-1-2.7-1.1-2.8-0.7-0.2c0.6,4,0.9,12.2,0.5,14.7
		c-1.3,7.3-1,14.2,0.7,19.1c0.6,1.8,1.2,3.4,1.4,3.4c0.1,0.1,0.6,0.7,0.9,1.5c1.1,2.2,4.6,6.4,5.1,6c0.1-0.1-0.3-0.7-0.8-1.3
		c-2.4-2.8-5.2-9.7-5.6-13.7l-0.2-1.6l0.4,1.3l0.4,1.3l-0.1-2.3l-0.1-2.3l0.8,2.9c0.8,2.9,2.7,7.7,2.9,7.1c0.1-0.2-0.3-1.4-0.7-2.8
		c-1.2-3.6-1.4-5.3-1.2-10.3c0.2-5.8,0.5-6.1,0.7-0.9c0.3,5.7,0.5,6.4,0.7,1.8c0.1-2.1,0.3-5.4,0.5-7.3c1-12.8,0.6-27.3-1.1-32.5
		C200.8,166.8,196.8,158.8,196.8,159.7 M277.8,161c-0.1,0.7-0.1,1.4,0,1.6c0.2,0.5-0.3,4.6-0.7,5.3c-0.2,0.4-0.6,0.5-1.8,0.5
		c-2.3,0-4.2,2.5-2.4,3.1c0.3,0.1,0.8,0.4,1.1,0.6c1.3,0.9,3.9,1.2,4.8,0.6c0.9-0.7,0.9-4.4-0.2-10.9
		C278.1,159.6,278,159.5,277.8,161 M180.2,161.8c0.2,1.8,1.7,5.5,3.7,9.2c5.2,9.5,8.2,16.1,8.9,19.4c1,4.5,1.4,2.6,0.7-2.7
		c-1-6.7-1.7-8.9-6.3-17.8c-3.3-6.5-4.2-7-1.7-0.8c0.8,2,1.4,3.6,1.4,3.7c-0.1,0.1-3-5.8-3.3-7c-0.2-0.6-0.6-1.5-0.9-2.1
		c-0.3-0.6-0.7-1.5-0.9-2.1l-0.3-1.1l0.1,1.1c0.1,0.6,0.5,2.1,0.9,3.3c1,3,0.9,3-0.5-0.1c-0.6-1.4-1.3-2.9-1.5-3.4l-0.4-0.9
		L180.2,161.8 M228.9,161.8c0.1,0.4,0.6,0.9,1.5,1.4c2.8,1.6,2.9,2.6,0.3,1.9c-0.8-0.2-1.5-0.3-1.6-0.3c-0.2,0.2,1.1,1.4,2,1.8
		c0.5,0.2,0.9,0.6,0.9,0.8c0,0.2,0.3,0.8,0.6,1.4c0.7,1.4-0.1,2.5-3.1,4.3c-0.3,0.2-0.4,0.4-0.3,0.5c0.1,0.1,1.8-0.7,3.8-1.7
		c2.2-1.1,3.9-1.8,4.1-1.7c0.9,0.3,1.4-0.6,1.2-2.4c-0.3-2.8-1.5-4.9-2.8-4.9c-0.2,0-1.5-0.4-2.9-0.8
		C229.6,161,228.8,161,228.9,161.8 M269.5,163c-0.4,1.1,0.1,4,0.7,3.8c0.3-0.1,0.6-2.6,0.3-3.6C270.4,162.4,269.8,162.3,269.5,163
		 M205,164.1c0.1,0.5,0.4,1.8,0.8,2.9c3.5,11.2,3.9,20.1,1.6,30.9c-0.6,2.5-0.7,4.1-0.8,8.5l-0.2,5.5l-0.4-6
		c-0.2-3.6-0.3-6.6-0.1-7.3l0.2-1.3l0.2,1.2c0.1,0.9,0.2,0.7,0.2-1.2c0-1.6,0-2.3-0.2-2c-0.2,0.3-0.3-0.7-0.3-3
		c0-2.6-0.2-4.3-0.8-7.6c-0.9-4.6-1.2-5.6-1-2.7c0.1,1,0.2,4.2,0.2,7.1s0.1,5.3,0.3,5.5c0.1,0.2,0.1,2.3,0,4.7
		c-0.6,9.8,0.8,21.9,3.4,28.6c1.2,3.3,2,3.5,1,0.3c-0.7-2.3-2-8.1-2-8.9c0-0.3,0.2,0.2,0.4,0.9c0.2,0.8,0.4,1.5,0.5,1.6
		c0.3,0.2,0-5.7-0.4-7.8c-0.1-0.9-0.3-2.6-0.2-3.9l0-2.3l0.2,2c0.3,2.5,0.5,2.7,0.5,0.5c0-2.2,0.5-7.3,0.9-8.6
		c0.2-0.6,0.4-1.8,0.6-2.8c0.2-1,0.6-2.6,0.9-3.6c1.8-6,0.6-17-2.9-26.4C206.5,166.1,204.8,162.8,205,164.1 M148.8,165.8
		c-0.1,0.2-0.1,1.4,0,2.7c0.1,1.4,0,3.1-0.2,4.4l-0.4,2.1l-0.3-2c-0.3-1.9-0.7-2.7-1-2.4c-0.1,0.1-0.2,1.6-0.3,3.4
		c-0.1,1.8-0.2,4.3-0.4,5.5l-0.3,2.3l-0.2-2.2c-0.2-2.4-0.6-3.3-0.9-2.1c-0.8,3.2,0.6,11.8,2.5,15.6c1,1.9,1.9,2.9,1.2,1.2
		c-1.8-4.2-2.1-7.1-1-10.3c0.7-2.2,2.1-8.2,2.5-11.2C150.4,169.3,149.5,163.7,148.8,165.8 M245.2,166c-0.2,0.3-0.5,4.1-0.8,9.8
		l-0.2,3.3l1.3,2.7c1.4,2.7,3.3,5.8,4.4,7.1c0.3,0.4,1.6,2.2,2.9,4.2c2.3,3.5,3.1,4.3,5.7,5.9c2.2,1.4,4.1,2.1,7.6,3
		c2.1,0.6,3.6,1.1,4.1,1.5c0.4,0.3,1.9,1.2,3.3,2c1.4,0.7,3,1.7,3.5,2.2c4.5,4.1,8,5.8,13.2,6.5c7.8,0.9,8.6,0.9,7.8,0.1
		c-0.3-0.3-1.1-0.5-2.5-0.6c-1.1-0.1-2.4-0.3-2.9-0.4s-1.4-0.4-2.1-0.6c-3.7-1-6.9-2.5-6.5-3c0.5-0.7-0.2-1.5-1.8-2.1
		c-0.8-0.3-1.8-1-2.3-1.5c-2.2-2.5-5.4-4-12.4-5.8c-4.5-1.1-7.9-2.8-8.6-4.2c-0.2-0.3,0.4-0.2,2.1,0.7c1.3,0.6,2.5,1.2,2.7,1.2
		c0.7,0,0.3-0.4-0.9-1.1c-2.1-1.1-11.1-10.3-12.7-13c-0.3-0.6-1.1-1.8-1.7-2.7c-1.4-2.1-1.7-3.2-1.8-7.8
		C246.4,168.1,245.8,165,245.2,166 M192.8,167.2c0,0.3,1.1,2,1.2,2c0.1,0-0.1-0.4-0.5-1C192.9,167,192.8,166.9,192.8,167.2
		 M268.9,169.9c-0.7,0.7-1.3,8.1-1,11.5c0.2,2.3,2.5,3.9,4,2.9c0.9-0.6,0.8-0.9-0.3-1.2c-1.8-0.6-2-1.7-1.6-8.9
		c0.2-2.5,0.2-2.9,0.7-3c0.7-0.2,0.6-0.9,0-1.1c-0.3-0.1-0.5-0.3-0.5-0.5C270.2,169,269.6,169.1,268.9,169.9 M114.6,171
		c-0.8,1.5,0.7,6.9,2.6,9.3c0.9,1.2,0.9,1-0.4-4.1c-0.7-2.6-1.2-4.9-1.2-5.2C115.5,170.2,115,170.2,114.6,171 M236.6,170.9
		c-0.4,0.4-0.4,1.3,0,1.7c0.3,0.3,0,5.5-0.3,5.3c-0.1-0.1-0.3-0.6-0.4-1.3c-0.8-5.4-1.6-5.3-1.5,0.1c0.1,4.8-0.2,5.7-0.7,1.9
		c-0.4-3-0.9-4.5-1.4-4.5c-0.2,0-0.3,0.2-0.3,0.5c0.2,1.1,0,5.4-0.3,6.9c-0.4,1.9-0.9,1.9-0.8,0c0.1-1.7-0.4-1.9-0.6-0.2
		c-0.1,0.7-0.3,1.2-0.4,1.2c-0.1,0-0.4,0.4-0.5,0.9c-0.2,0.5-0.4,0.9-0.5,0.8c-0.3-0.2-0.8,1.3-0.8,2.4c0,1.1-0.2,1.2,2.6-0.6
		c8.3-5.2,8.9-6,8.1-10.9C238.1,171.3,237.5,170,236.6,170.9 M280.5,171.6c-0.2,0.3,0.2,2.3,0.5,2.6c0.3,0.3,1-0.2,1.1-0.8
		C282.4,172.2,281,170.7,280.5,171.6 M216.8,174.7c-0.1,1.8-0.3,3.6-0.6,4.2c-0.2,0.6-0.4,0.8-0.3,0.4c0.1-0.4,0.3-2.3,0.4-4.2
		C216.7,170.7,217,170.5,216.8,174.7 M153.5,172.9c-0.1,0.3-0.4,1-0.7,1.6c-1,2-0.8,2.9,1.6,7.5c3.8,7.2,7,11.4,9.9,12.9
		c2.2,1.2,9.2,2.2,9.9,1.4c1.6-2,1.8-10,0.4-14.4c-0.6-1.8-1.1-1.3-0.7,0.8c0.6,2.9,0.3,7.8-0.7,11.5c-0.5,1.7-0.7,1.4-1.1-1.5
		c-0.5-3.9-1.9-9.1-2.5-9.1c-0.1,0-0.2,0.6-0.1,1.4c0.1,0.8,0.3,2.7,0.4,4.2c0.1,1.5,0.3,3.2,0.4,3.7l0.2,0.9l-0.8-0.7
		c-1.1-1-2.7-4.2-3.6-7c-0.4-1.3-0.9-3-1.2-3.8l-0.5-1.4l-3.3-0.8c-3.1-0.8-5.7-1.9-5.7-2.5c0-0.2,0.3-0.2,0.9-0.1
		c0.7,0.2,0.8,0.1,0.5-0.2c-0.5-0.6-0.1-0.8,1.5-0.6c1.4,0.1,1.4,0.1,0.3-0.1c-1.9-0.4-3.9-1.6-3.9-2.4
		C154.8,172.7,153.8,171.7,153.5,172.9 M277.8,174.3c-0.1,0.2-0.2,1.6-0.4,3.1c-0.4,3.6-0.6,4-1.6,4c-1,0-1.2,0.9-0.2,1.2
		c2.6,0.7,4-1.5,4.1-6.2l0-2.3l-0.9-0.1C278.2,174,277.9,174.1,277.8,174.3 M161.9,182.2c0.9,0.6,1.1,0.9,1.1,2.2
		c0,1.4,0.8,4.3,1.9,6.9c1.9,4.5-0.7,1.7-3.1-3.3c-2.4-5-2.5-5.6-1.2-6.1C161.2,181.7,161.2,181.7,161.9,182.2 M150.4,188.4
		c0,1,1.4,5.5,1.8,6.1c0.6,0.8,0.7,2.1,0.3,2.1c-0.2,0-0.5,0.5-0.8,1.1c-0.3,0.7-1.8,2.5-4.3,5c-8,8.1-11.8,13.6-14.1,20
		c-0.4,1.2-0.7,2.1-0.7,2c0.3-0.3,2-2.9,2-3.1c0-0.7,5.9-9.5,6.9-10.3c0.2-0.2-0.1,0.4-0.8,1.3c-1.4,1.9-3.5,5.4-3.5,5.9
		c0,0.7,0.7,0.1,1.6-1.3c1.7-2.7,7.2-9,13.8-15.9c0.5-0.5,0.9-1,0.9-1.1s0.4-0.6,0.9-1.1c1.5-1.5,1.1-3.3-1.3-6.5
		c-0.7-0.9-1.6-2.3-2-3.2C150.8,188.8,150.4,188.2,150.4,188.4 M229.1,190.4c-1.3,0.7-3.2,6.2-2.6,7.7c0.2,0.4,0.3,1.2,0.3,1.8
		c0,1.3,0.5,2.9,0.9,3c0.2,0.1,0.3-1.1,0.3-3.6c0-3.6,0-3.7,1-6.1C230.5,189.6,230.5,189.6,229.1,190.4 M259.5,191
		c0,1.4,6.2,5.6,10.4,7.1c4,1.4,6.7,2.6,8.8,3.8c3,1.8,4.8,2.4,9.8,3.4c1.8,0.4,3.6,0.8,3.9,0.9c0.6,0.3,1.5,0.3,1.7,0
		c0.4-0.7-1.6-1.9-4.6-2.9c-1.7-0.5-3.7-1.2-4.4-1.4l-1.3-0.5l1.1,0.1c0.6,0.1,2.3,0.2,3.8,0.4c3.1,0.3,3.9,0.6,6,2.6
		c2.4,2.3,3.4,1.5,1.3-1c-2.1-2.5-4.6-3.6-10-4.3c-1.6-0.2-3.6-0.6-4.4-0.9c-0.8-0.3-2.7-0.7-4.1-1c-3.5-0.6-8.8-1.9-10.6-2.5
		c-0.8-0.3-1.6-0.5-1.8-0.5c-0.4,0-1.9-0.9-3.6-2.3C259.8,190.9,259.5,190.7,259.5,191 M343.9,191.2c-0.3,0.3-0.2,0.6,0.2,0.6
		c0.2,0,0.4-0.1,0.4-0.3C344.6,191.3,344.2,191,343.9,191.2 M142.9,192.5c-0.8,1.8-3.4,3.9-4.8,3.9c-0.2,0-0.4,0.2-0.4,0.4
		c0,0.8,3,0.1,5.8-1.2c1.9-0.9,2.1-1.2,1.5-2.3c-0.2-0.4-0.4-1-0.4-1.2C144.6,191.2,143.3,191.5,142.9,192.5 M228.6,198.8
		c0,2.7,1.9,7.7,4,10.9c0.4,0.6,0.7,1.1,0.5,1.1c-0.4,0-3-2.8-3.2-3.6c-0.3-0.8-1.1-0.9-1.1-0.2c0,1.5,2.6,4.9,4.4,5.9
		c0.4,0.2,1.9,1.2,3.2,2.2c2.4,1.8,2.5,2.1,0.8,2.2c-0.7,0-1.1,0.7-0.6,1.1c0.2,0.2,1.9,0.3,4,0.4c2,0.1,4.2,0.1,4.9,0.2l1.2,0.1
		l0.3,1.5c0.4,2.2,0.5,2.4,1.2,2.3c1.2-0.2,1.1-3.6-0.2-4.8c-1-0.9-3.1-1.8-4-1.8c-0.6,0.1-1.3-0.2-2.4-0.9c-0.8-0.5-2.2-1.4-3-1.9
		c-3.9-2.6-8.7-10.2-9.3-14.8C229,196.7,228.6,196.9,228.6,198.8 M165.4,198.1c0,0.1,0.2,0.6,0.4,1.1c1.2,2.8,1.3,3.4,1.3,6.8l0,3.4
		l-1.1,2.2c-0.6,1.2-1.2,2.7-1.3,3.4l-0.2,1.1l1,0l1,0l0.8-2.3c0.4-1.3,1-2.9,1.3-3.7l0.5-1.3l0.1,2.1c0,1.2,0.1,2.8,0,3.5
		c0,1.1,0,1.4,0.3,1.4c0.6,0,0.9-1.1,1.3-4.3c0.5-3.9,0.7-3.9,0.7,0l0,3.2l0.5-1.2c0.9-1.9,1.4-9.4,0.7-10.1
		c-0.1-0.1-0.2-0.8-0.2-1.6c0-0.8-0.1-1.6-0.2-1.8c-0.2-0.6-1.2-0.5-1.2,0.1c0,0.4-0.1,0.4-0.8-0.3c-1.4-1.4-1.6-1.1-0.7,0.8
		c0.7,1.4,0.8,2.1,0.4,2.7c-0.2,0.3-0.3,0.2-0.3-0.4c-0.1-2.1-1.3-3.7-1.3-1.7l0,1.2l-0.7-1.6C167.1,199,165.4,197.2,165.4,198.1
		 M181,198.2c-0.3,0.3-0.2,1.4,0.5,3.5c0.9,3,1.4,5.7,1.6,8.8c0.3,4.5,0.7,3.3,0.6-1.6C183.5,204,181.9,197.3,181,198.2
		 M176.9,199.1c-1,0.3-1,0.3-0.5,2.8c0.5,2.2,0.6,5.3,0.4,9.5c-0.1,3.4,0.4,4.3,1,1.8c1.1-4.4,1.2-14.6,0.1-14.5
		C177.9,198.8,177.4,199,176.9,199.1 M174.3,199.5c-0.5,0.1-0.6,0.2-0.3,0.9c0.1,0.5,0.2,1.7,0.2,2.8c0,1.9,0.3,2.6,0.9,2
		c0.4-0.4,0.4-5.3,0-5.6C175,199.5,174.6,199.5,174.3,199.5 M137.3,200.4c-1.3,0.3-1.6,0.5-1.2,1.3c0.5,0.9,1.1,1.1,0.9,0.2
		c-0.2-0.9,0.5-1,1.3-0.1c0.7,0.8,0.7,0.9-0.2,2.8c-1.4,2.8-1.2,4.1,0.3,1.6c1-1.8,1.1-2.1,1.3-3.9l0.2-1.7l0.6,0.9
		c0.6,0.8,0.6,0.9,0.2,2c-2,5.5-2,5.7,0.4,1.8C143.4,201.4,141.9,199.5,137.3,200.4 M179.6,206.5c0,5,0,5.7-0.5,7.5
		c-0.3,1.1-0.7,2.3-0.8,2.6c-0.5,1.7,1.1,0.5,1.7-1.3l0.6-1.7l-0.1,1.8c-0.1,1.9,0.3,2.3,0.7,0.8c0.8-2.8,0.4-9.9-0.7-13.9
		C179.7,199.9,179.6,200.8,179.6,206.5 M133,201.5c-0.1,0.1-0.9,0.6-1.8,1.1c-2.5,1.3-3.6,3-5.4,7.7c-0.5,1.3-1.4,3.5-2.1,5.1
		c-0.7,1.5-1.5,3.7-1.9,4.8c-1.1,3.4-2.2,4.9-3.7,5.2c-0.5,0.1-1.7,0.6-2.7,1.1c-1,0.5-2.4,1.1-3.1,1.2c-1.7,0.3-2.2,0.7-2.6,2.1
		c-0.5,1.6-0.4,1.6,1.4,1.1c0.9-0.3,2.6-0.7,3.6-0.9c1.2-0.3,2.4-0.8,3.2-1.2c1.5-1,1.7-0.9,0.6,0.4c-0.8,0.9-2,1.6-6.2,3.5
		c-1.1,0.5-2.4,1.3-2.9,1.7c-0.5,0.5-1.4,0.9-2,1c-0.6,0.1-1.4,0.4-1.8,0.6c-0.8,0.4-0.8,0.6-1.1,2.6l-0.2,1.1l1.4-0.9
		c1.8-1.2,2-1.2,1.3,0c-0.9,1.5,0,1.5,1.5-0.1c0.7-0.7,1.8-1.6,2.5-1.9c1.9-0.9,4.6-2,4.7-1.8c0.2,0.2-2.6,2.3-5,3.7
		c-1.3,0.7-3.9,2.6-5.8,4c-1.9,1.5-3.9,2.9-4.4,3.2c-1.8,1-2.1,2.3-0.9,5.6c0.4,1.1,0.7,2.8,0.8,3.9c0.2,2.1,0.4,2.5,1.1,1.8
		c0.4-0.4,0.4-1.1,0.5-4.8c0-5.3,0-5.3,3.6-7.5c0.2-0.1,1.1-0.8,1.9-1.4c1.4-1,3.9-2.4,4.1-2.2c0.1,0.1-0.7,0.8-1.7,1.6
		c-2.4,2-3,2.6-3,2.9c0,0.5,0.7,0.3,1.5-0.4c3.3-2.7,7.7-4.9,10-4.9c3.2,0,6.8,3.8,7.6,7.8c0.3,1.6,0.7,1.1,0.7-1
		c0-1.5-0.1-2.2-0.5-2.7c-1-1.5-2.2-3.6-2.2-3.9c0-0.7-1.6-2.8-2.7-3.4c-1.6-0.9-0.6-1.1,1.1-0.2c1,0.5,1.4,0.9,1.9,1.9
		c0.6,1.3,1.4,1.7,1.4,0.8c0-0.9-0.7-2.6-1.7-3.9c-1.1-1.4-1.1-1.8,0.1-1c0.4,0.3,0.9,0.6,1.2,0.7c0.3,0.1,0.5,0.6,0.6,1.4
		c0.4,2.9,0.7,4.1,1.1,4.1c0.4,0,0.4-4.4-0.1-8.7l-0.2-1.9l1.4-2c0.8-1.1,2.1-3,2.9-4.1c2.2-3,4.1-7.5,3.4-8.2
		c-0.2-0.2-0.4,0-0.8,0.9c-1.1,2.6-6,9.3-6.4,8.9c-0.1-0.1,1.2-2.4,4-6.6c1.8-2.9,3.9-6.8,3.7-7c-0.1-0.1-0.5,0.5-1,1.2
		c-1,1.7-1.2,1.6-0.7-0.4c0.6-2.3,0.3-2.4-0.8-0.1c-0.5,1.1-1.2,2.4-1.5,2.7l-0.5,0.7l0.2-0.8c0.2-1.2-0.2-1-1.3,0.8
		c-1.6,2.4-1.4,2,0.6-2.1c2.1-4.2,2.9-6.4,3.2-9.2c0.3-2.7,0-2.6-1.3,0.8c-1.1,2.8-3.9,8.4-4.9,9.5c-0.3,0.3,0-0.5,0.6-1.9
		c1.3-3.2,1.9-5.1,1.6-5.4c-0.4-0.4,1.5-3.6,3.3-5.4c0.9-0.9,1.5-1.6,1.3-1.6C133.3,201.2,133.1,201.3,133,201.5 M151.9,203.7
		c-1,2.3-3,4.7-8.8,10.7c-5.8,5.9-7.8,8.8-9.1,12.7c-0.2,0.5-0.7,2-1.1,3.2c-1.1,3.1-1.2,8.3-0.1,8.3c0.3,0,0.4-0.5,0.4-2.3
		c0-4,2.4-10.3,5.2-14c2-2.5,4-4.9,4.3-5.3c4.9-5,10.4-12.4,10.4-14.1C153.1,201.8,152.6,202.2,151.9,203.7 M305.6,207.4
		c-1,0.3-2.2,0.7-2.7,0.9c-1.4,0.6-7.5,1-11.4,0.8c-3-0.1-3.3-0.1-2.7,0.2c2,1.2,8.7,1.5,13.2,0.7c3.7-0.7,9.6-1,8.8-0.5
		c-0.3,0.2-2.5,0.7-4.9,1.1c-6,1-6.1,1.1-4.7,1.7c0.9,0.4,1.7,0.4,6.5,0.3c3-0.1,7.3-0.2,9.6-0.2l4.2,0l1.7,0.9
		c3.1,1.8,5.8,3.6,7.6,5.3c2.4,2.3,2.2,2.5-0.3,0.4c-2.5-2.1-5.6-3.7-8.6-4.4c-3.4-0.8-4-0.7-1.5,0.3c8,3.3,14.5,10,16.7,17.4
		c0.4,1.2,1,7.5,1.1,9.9c0,3,0.3,4.9,0.6,3.7c3-12.9,0.1-25.1-7.4-30.4c-5.7-4.1-11.4-6.6-14.9-6.6c-1.5,0-2-0.1-2.7-0.7
		C311.7,206.7,308.9,206.4,305.6,207.4 M174.1,208.9c-0.1,0.8-0.2,2.3-0.3,3.3c-0.1,1-0.2,2.3-0.3,2.7c-0.2,1.2,0.4,1.1,0.9-0.2
		c0.6-1.5,0.8-6.2,0.3-6.9C174.3,207.5,174.2,207.6,174.1,208.9 M128,209.5c-0.2,0.5-0.7,1.6-1.2,2.5c-1.1,2.1-0.8,0.8,0.4-1.5
		C128.1,208.6,128.6,208,128,209.5 M303,214.2c-0.9,0.6,4.7,2.4,10.4,3.3c9.3,1.5,13.5,4,16.1,9.4c0.4,0.8,0.9,1.7,1.2,1.9
		c0.9,0.8,1.8,4.3,2.3,8.4c0.4,3.5,1.4,2.8,1.5-0.9l0-2.3l0.4,2c0.5,2.3,0.3,13.8-0.1,15c-0.4,1.1-1,7.4-0.9,10.9
		c0,5.1,2.7,11.8,4.5,11.4c0.4-0.1,0.3-0.2-0.3-1.2c-0.6-0.9-1.7-3.9-1.7-4.9c0-0.2,0.4,0.3,1,1.1c1.5,2.3,9.6,9.5,10.5,9.5
		c0.2,0,1.6,0.5,3.3,1.2c4.4,1.8,7.9,2.2,9.3,1.1c0.5-0.4,0.3-0.4-1.4-0.4c-3.4,0-7.9-2-12.7-5.4c-4-2.9-7.5-8.2-8.9-13.5l-0.8-2.8
		l0.3-4.6c1.1-16,0.1-22-4.6-28.3c-4.9-6.5-10.3-9.3-20.2-10.3c-1.4-0.1-3.1-0.4-3.7-0.5C306.7,214.1,303.4,213.9,303,214.2
		 M222.7,214.8c0,0.2,0.4,0.9,0.8,1.7c1.3,2.3,2.1,7.5,1.6,10.5l-0.2,1.5l-0.1-1.3c-0.1-1.8-0.3-2.9-0.7-2.9c-0.3,0-0.6,6.3-0.3,6.6
		c0.3,0.2,0,0.8-0.5,0.8c-0.2,0-0.6,0.5-0.9,1.2c-0.3,0.7-1.4,2-2.3,3c-1,1-1.7,1.9-1.7,2c0,0.3,0.6,0.2,1.4-0.4
		c0.7-0.5,0.8-0.5,0.6-0.1c-0.5,0.9-2.6,2.9-3.7,3.4c-0.8,0.4-0.9,0.6-0.6,0.7c2,0.4,7.3-4.9,9.3-9.3c1.8-3.9,2.3-9.4,1.2-12.8
		C226.1,217.5,222.7,213.6,222.7,214.8 M190.5,217.1c-3.4,4.1-4.5,10.6-2.5,15.1c0.4,1,1.3,1.4,1.1,0.5c-1.5-5-0.6-11,2.3-14.1
		c1-1.1,1.1-1.3,0.8-1.9C191.7,215.9,191.4,216,190.5,217.1 M382.2,217.4c-0.9,0.9-1.7,3.5-1.7,5.8c0,2.3,0.6,3.8,4.3,10.5
		c3.4,6.2,0.1,9.9-9.9,11.2c-2.1,0.3-6.9,1.7-7.5,2.2c-0.2,0.2-0.7,0.3-1.2,0.4c-3,0.3-4.6,2.7-4.6,6.6c0,4,1.1,5.7,5.9,9.8
		c2.9,2.4,5.7,5.6,5.7,6.6c0,0.4,0.2,1.3,0.4,1.9c0.4,1.3,0.2,2.6-0.5,2.7c-0.2,0-0.7,0.1-1.1,0.1c-2.8,0.2-3.5,0.6-3.7,2
		c-0.2,1.2-1.2,2.6-2.1,2.7c-0.3,0-0.6,0.3-0.6,0.5c0,0.6,1.8,0.7,2.7,0.1l0.7-0.5l-0.3,0.8c-0.5,1.2-0.9,1.5-2.4,1.8
		c-3.6,0.6-3.7,0.6-10.7-0.8c-1.2-0.2-2.4-0.5-2.8-0.6c-1.4-0.3-0.4,0.6,1.3,1.2c2.3,0.8,0.9,0.8-1.6,0c-3.6-1.1-4.8-2-9.9-6.8
		c-3.7-3.4-1.7-0.6,2.2,3.2c3.2,3.1,6.3,5.2,7.8,5.2c0.3,0,0.9,0.2,1.5,0.5s1.4,0.5,1.8,0.5c0.4,0,2.3,0.8,4.2,1.8
		c3.2,1.6,3.6,1.8,5.3,1.8c1,0,2.1,0.2,2.4,0.4c3.5,1.9,10.4-1.3,14.4-6.6c0.3-0.5,0.8-0.8,1-0.8c0.3,0,1.4-0.8,3.9-3
		c0.4-0.4,1.4-0.8,2.1-1c1.3-0.3,1.8-0.8,1.4-1.3c-0.1-0.2-0.3-0.2-0.7,0.1c-0.4,0.3-0.6,0.3-1.1,0s-0.6-0.3-0.9,0
		c-0.5,0.4-3,1.3-3.6,1.3c-2.1,0-4-2.4-3.3-4.3c0.5-1.3,0.6-2.8,0.2-3c-0.1,0-0.5-0.6-1-1.2c-1.3-2-2.2-1.6-1,0.5
		c0.6,1.1,0.7,1.4,0.4,1.8c-1,1.4-1,2.7-0.1,5.8c0.6,2.2-1,5-3.9,6.7c-1.3,0.8-1.9,1.6-0.9,1.3c1.2-0.4,3.8-1.8,4.7-2.6
		c1.3-1.2,1.2-0.1-0.2,1.6c-2.4,3-8.3,4.7-11.2,3.2c-0.4-0.2-1.4-0.4-2.3-0.5c-1.6-0.1-3.2-0.8-5.6-2.3c-1.5-0.9-1.5-1,0.6-0.3
		c4.8,1.6,10.2-0.4,10.2-3.9c0-1,1.1-2.7,1.9-3c2.1-0.8,2.6-1.1,2.8-1.9c1.1-3.2-1.7-9-7.1-14.6c-3.8-4-3.5-9.1,0.8-11.5
		c0.8-0.4,1.6-1,1.8-1.2c0.6-0.7,2.7-1.5,5.5-2c1.5-0.3,2.9-0.6,3.2-0.7c0.3-0.1,0.5-0.1,0.4,0c-0.1,0.1-1.5,0.7-3,1.2
		c-1.9,0.7-3.2,1.3-3.7,1.9c-1,1-0.4,1.2,0.9,0.3c0.8-0.6,2.7-1.2,4.8-1.6c4.3-0.9,8.1-5.4,8.1-9.7c0-2.4-1.3-5.5-4.7-10.7
		c-1.2-1.9-1.5-4.9-0.6-6.8C383.5,217,383.6,216.1,382.2,217.4 M153.7,217.6c-2.5,1.8-6.1,16.5-4.4,18.1c0.7,0.7,0.8,0.6,0.9-2.4
		c0.2-5.1,1-5.7,1-0.8c0,3.8,0.2,4.6,0.8,3.5c0.1-0.3,0.3-1.1,0.4-2c0.7-6.3,3.4-14,5.4-14.8c1.7-0.7,1.4-1.5-0.5-1.4
		c-0.6,0-1.4-0.1-1.8-0.3C154.5,217.1,154.4,217.1,153.7,217.6 M191.6,220.1c-2.7,4.1-2.6,9.5,0.3,15.4c1.5,3,3.7,5.7,4.7,5.7
		c0.2,0,0.7,0.2,1.1,0.4c1.5,0.8,1.6,0.4,0.1-0.5c-2.9-2-5.9-7.4-6.1-11c-0.1-1.8-0.1-1.9,0.2-0.9c0.6,2.7,4.3,8.3,6.3,9.5
		c1.5,0.8,1.3,0.3-0.6-1.7c-3.9-4.2-5.5-10.3-3.7-14.2c0.9-2.1,0.4-3-0.9-1.4c-0.8,1.1-0.9,0.8-0.1-0.6c0.5-1.1,0.5-2.4,0-2.4
		C193,218.3,192.3,219.1,191.6,220.1 M171.2,219.4c-0.7,0.5-1.3,1.1-1.4,1.5c-0.1,0.5-0.3,0.6-1.1,0.6c-1.8-0.1-2.3,1.4-0.6,1.8
		l0.9,0.2l-1.1,3.4c-1.4,4.2-2,7.8-1.6,8.3c0.7,0.8,1.4,0.1,1.9-2c0.2-1.1,0.7-2.7,1-3.5c0.3-0.9,0.4-1.8,0.4-2.3
		c-0.3-1.6,1.6-3,2.3-1.8c0.4,0.8,0.3,1.2-0.3,2.1c-0.6,0.7-2.2,6.4-2,7c0.4,1.1,3.2-1.9,3.2-3.5c0-0.2,2.9-7,3.6-8.7
		C177.7,219.2,174.4,217.3,171.2,219.4 M161.8,219.1c-1.4,0.6-5.6,13.5-5.1,15.6c0.4,1.5,2.3,1.6,2.3,0.2c0-0.5,0.2-2.1,0.4-3.6
		c0.3-2,0.3-2.9,0.1-3.1c-0.7-0.7,0.2-3.1,1.2-3.1c1.2,0,1.9,2.1,0.9,3.1c-0.4,0.5-0.7,1.3-0.9,3.4c-0.6,4.2-0.5,4.5,0.4,4.5
		c0.4,0,0.8-0.1,0.8-0.3c0-0.1,0.3-0.5,0.6-0.9c0.5-0.5,0.7-1.2,0.9-3.3c0.6-4.8,2.4-9.8,3.7-10.3c1.8-0.7-0.5-2.4-3.1-2.4
		C163.1,218.8,162.1,218.9,161.8,219.1 M181.1,219.3c-1.6,0.2-1.8,0.3-3.1,1.4c-1.3,1.3-1.5,2.2-0.3,2.1c0.3,0,0.4,0.1,0.3,0.4
		c-0.1,0.2-0.3,1.1-0.5,1.9c-1.9,6.7-1.9,9.1,0.2,9.1c0.9,0,1.6-5.1,1-6.9c-0.5-1.5,0.8-3.2,1.7-2.2c0.8,0.8,0.8,1.7,0,2.5
		c-1,1.1-1.1,6.3-0.1,6.1c0.3-0.1,0.7-0.2,0.9-0.2s0.4-0.5,0.5-1c0.6-3.7,1.4-6.7,2.5-9.2c1.4-3.3,1.2-4.4-0.9-4.2
		C183,219.1,182.1,219.2,181.1,219.3 M157.9,220.1c-0.8,0.8,0,1.9,1.1,1.5c0.9-0.3,1-1.4,0.2-1.8
		C158.6,219.5,158.5,219.5,157.9,220.1 M232.6,221c0,0.4,0.2,1.6,0.4,2.8c0.2,1.2,0.4,2.7,0.4,3.4c0,1.2,0,1.3,0.5,0.9
		c1.7-1.5,3.5,0.7,2,2.3c-0.3,0.4-0.7,1.4-1,3.2c-0.2,1.4-0.7,3.4-1,4.2c-0.6,1.8-0.5,2.1,1.1,2.1c3.4,0,5.2-16.7,2.1-18.8
		C235.8,220.3,232.6,220.2,232.6,221 M241.4,222.3c-0.9,0.3-0.9,0.9-0.3,2.9c0.7,2.2,0.4,10.9-0.5,14.6c-0.4,1.6-0.3,2.4,0.2,1.6
		c0.4-0.6,1.3-4.8,1.6-7.3c0.3-2.4,0.7-3.4,1.2-2.8c0.7,0.7-0.1,9.6-1,10.6c-0.4,0.5,0,0.8,0.5,0.4c2.9-1.8,4-15.9,1.4-19.3
		C244.1,222.3,242.4,221.9,241.4,222.3 M85.5,222.5c-3.2,0.4-13.1,4.6-16.2,6.8c-0.7,0.5-1.9,1.3-2.6,1.6c-10.1,5.5-29,25.2-32.7,34
		c-0.5,1.2-1.4,3-1.9,3.9c-1.5,2.7-2.2,4.3-3.7,8.6c-1.6,4.4-2.6,8-3.9,14c-0.7,2.9-1.4,6.2-1.7,7.2c-0.4,1.5-0.4,3.4-0.5,10l0,8.1
		l1.1,5.7c1.5,7.7,2.3,10.3,3.8,13.5c2.3,4.7,2.7,4.8,1.7,0.4c-0.8-3.6-1.1-8-0.8-13.2c0.9-17.5,2.3-26.8,4.9-33.9
		c1.1-3,1.2-3,0.7,0.1c-0.4,2.2-0.6,8.4-0.3,8.1c0.1-0.1,0.3-1.4,0.5-2.9c0.5-3.2,1.5-7.6,1.7-6.9c0.1,0.3-0.1,1.6-0.3,3.1
		c-0.5,3.4-0.5,4.4,0.1,1.9c1.5-6.3,2.3-8.2,1.2-2.6c-1.6,7.9-2.2,17.9-1.1,16.7c0.1-0.1,0.3-2,0.4-4.2c0.2-2.7,0.5-5,0.9-6.6
		c0.7-2.7,1.1-3.5,0.8-1.6c-0.2,1.1,0,3.6,0.3,3.4c0,0,0.3-1.2,0.5-2.6c0.5-2.7,2.2-8.5,3.1-10.3c0.3-0.6,0.5-0.8,0.4-0.6
		c-0.1,0.3-0.6,1.9-1.1,3.7c-1.3,4.4-2.4,12.4-1.7,12.1c0.4-0.1,0.9-1.7,1.5-4.3c0.2-1.1,0.7-2.9,1.1-4c0.4-1.1,0.9-3.1,1.3-4.5
		c0.6-2.4,2-5.7,2-4.8c0,0.2-0.2,1.3-0.4,2.4c-0.9,4.2-0.9,24.3,0,24.3c0.5,0,0.7-0.6,0.5-2.1c-0.2-2.1,0.6-10.7,1.5-16.3
		c1-6,2.4-9.6,7.4-19.7c4.7-9.4,6.6-12.3,13.1-19.1c2-2.1,2.4-2.7,2-2.8c-1.2-0.2-3.7,2-8.8,7.9c-8,9.2-12.6,14.4-12.7,14.3
		c-0.1,0,0.7-1.2,1.6-2.5c1.6-2.3,2-3.6,0.6-2c-1.6,1.9,1.1-2.4,3.3-5.2c1.7-2.1,1.5-2-1.4,0.9c-1.6,1.6-2.6,2.5-2.3,2
		c1.3-1.9,4.9-6.4,7.2-8.9l2.5-2.7l-2.9,2.7c-3.9,3.7-9.2,9.4-11.3,12.4c-1,1.4-1.1,0.9-0.1-0.8c1.5-2.6,5.4-8.3,7.3-10.6
		c3.7-4.6,5.2-6.4,6-7.5c1.3-1.7,6.8-7.3,8-8.1c0.6-0.4,2.4-1.7,4.1-3c1.7-1.3,3.1-2.4,3.3-2.4c0.1,0,1-0.7,2-1.6
		c1.8-1.8,2-1.8,1.2-0.3c-1.6,3.1-3.4,14.6-3,18.5c0.3,2.3,0.4,2.2,0.8-0.6c1.2-8.7,6.8-21.6,11.7-26.9
		C88.4,222.7,88.3,222.2,85.5,222.5 M387.4,223c-1.6,1.8-2.3,5.1-1.4,6.3c3.5,5.1,3.8,10.1,0.9,13.8c-0.9,1.2-0.7,1.5,0.5,0.7
		c3.6-2.6,3.8-9,0.5-14.3c-1-1.6-1.1-3.5-0.2-5.1C388.4,223,388.2,222.1,387.4,223 M199,224.2c0,1.8,3,7,4.8,8.6
		c1.7,1.5,1.7,0.6,0-1.4c-0.7-0.8-2.1-2.8-3.1-4.4C199.8,225.3,199,224.1,199,224.2 M249.4,225.4c-0.3,0.1-0.6,0.2-0.6,0.3
		c-0.2,1-0.1,1.8,0.4,3.2c0.5,1.5,0.6,2.3,0.6,5.5c0,4,0.2,4.1,0.6,0.3c0.1-1.3,0.3-2.4,0.4-2.5c0.7-0.7,1,2.8,0.4,5.9
		c-0.2,0.9-0.3,2-0.4,2.5l-0.1,0.9l0.5-1c1.4-2.6,1.9-4.8,1.9-8.9C253.1,225.9,252.5,224.8,249.4,225.4 M195.4,225.6
		c-0.8,0.8,0.1,5.6,1.5,7.7c2.4,3.8,4.4,5,8.3,5.3c4,0.3,4.6-0.6,1.2-1.7c-4.2-1.3-6.9-3.5-7.8-6.5c-0.6-1.9-1-2-1.2-0.3l-0.1,1.3
		l-0.6-1.8c-0.3-1-0.6-2.4-0.6-3C196,225.5,195.8,225.2,195.4,225.6 M255.1,228.6c-0.4,0.9-0.2,2.7,0.4,3.4c0.9,1.2,1.4,3.1,1.5,6.5
		c0.2,4.8,1.1,5.1,1.8,0.7c0.5-3.4,0.5-6.9-0.1-8.2C257.9,229,255.6,227.5,255.1,228.6 M259.8,229.9c0,0.5,0.7,2.5,1.2,3.7
		c0.3,0.7,0.7,2.1,0.8,3c0.3,3,1.1,1.8,1.2-1.9c0.1-2,0-2.4-0.5-3C261.7,230.6,259.8,229.3,259.8,229.9 M140.6,233.8
		c-0.2,0.3-0.2,0.4,0.1,0.7c0.5,0.4,1.1,0,0.8-0.7C141.4,233.4,141,233.3,140.6,233.8 M186.2,237.9c0,0.3,0.2,0.8,0.4,1.2l0.4,0.7
		l0-0.8c0-0.5-0.2-1-0.4-1.2C186.2,237.5,186.2,237.5,186.2,237.9 M159.8,240.9c-2.7,1.3-3.8,2.6-6.2,7.5c-2.7,5.4-3.1,6.8-9.3,30.1
		c-0.9,3.4-1.7,5.7-3.5,10.1c-0.4,1.1-1.1,3-1.4,4.1c-1,3.5-1.1,3.9-2.1,5.5c-1.7,2.8-5.3,6.8-6.2,7.1c-0.3,0.1-1.1,0.4-1.6,0.7
		c-0.6,0.3-1,0.4-1,0.3c0-1.6-4-1.9-6.8-0.5c-4.2,2-0.3,9.8,5,9.8c0.6,0,0.6,0.1,0-1.2c-0.3-0.6-0.5-1.4-0.5-1.9l0-0.8l0.5,1
		c0.3,0.5,1,1.3,1.6,1.7l1.1,0.8l1.4-0.8c1.7-0.9,1.6-0.8,0.9-1.7c-0.5-0.7-1.1-2.3-1.1-2.9c0-0.2,0.6,0.3,1.4,1.1
		c1.7,1.8,1.5,1.8,3.3,0.1l1.5-1.4l-1.3-1.3c-1.8-1.8-0.6-1.9,1.6-0.2l0.8,0.6l0.9-1c1.8-2.2,1.8-2.7,0-3.8c-2.1-1.3-1-1.6,1.3-0.5
		c0.7,0.4,1.3,0.7,1.3,0.7c0.2,0,2-3.2,2-3.5c0-0.2-0.7-0.8-1.6-1.4c-0.9-0.6-1.6-1.1-1.6-1.3c0-0.4,2.4-0.2,3.4,0.2
		c1.3,0.5,1.4,0.5,2.5-1.6l0.9-1.7l-0.5-0.6c-0.6-0.7-2-1.3-2.9-1.3c-0.7,0-0.9-0.4-0.4-0.6c0.4-0.2,1.9-0.3,3.2-0.1l1.2,0.2
		l0.5-1.8c0.6-2.1,0.5-2.3-1.9-2.8c-2.3-0.5-1.8-1.1,1.1-1.2l1.9-0.1l0.6-2.1c0.7-2.6,0.7-2.7-2.1-2.6c-1.2,0-2.1-0.1-2.1-0.2
		c0-0.3,2.6-1.3,3.9-1.5c1.1-0.2,1.2-0.2,1.5-1.1c0.6-2.3,0.6-2.3-1.5-2.4c-1.1,0-1.9-0.2-1.9-0.3c0-0.3,2-1.2,3.3-1.5
		c1.1-0.2,1.4-0.5,1.6-2.2c0.2-1.3,0-1.5-1.8-1.5c-1,0-1.3-0.1-1.2-0.4c0.1-0.6,1.8-1.4,2.8-1.4c0.9,0,0.9,0,1.5-2.7
		c0.2-0.9-0.5-1.3-2.2-1.3c-0.6,0-1.1-0.1-1.2-0.2c-0.4-0.7,1.1-1.4,2.9-1.4h1.1l0.3-1.5c0.4-1.8,0.2-2-1.5-2
		c-0.6,0-1.1-0.1-1.1-0.3c0-0.5,1.2-1.1,2.3-1.1h1.1l0.4-1.8c0.2-1,0.5-2.1,0.6-2.4c0.1-0.5,0-0.6-0.9-0.8c-0.6-0.1-1.1-0.3-1.1-0.4
		c0-0.4,1.3-0.8,2-0.6c0.5,0.1,0.7,0,1.2-1.5c0.3-0.9,0.7-1.9,0.8-2.1c0.1-0.4-1.2-0.3-2.2,0.1c-0.4,0.2-0.5,0.1-0.4-0.2
		c0.2-0.6,1.8-1.6,2.5-1.6c0.5,0,0.7-0.3,1.3-1.9c0.6-1.6,1.6-4.1,2.2-5.5C162,240,161.7,240,159.8,240.9 M166.5,241.2
		c-0.3,0.6-0.6,1.2-0.6,1.4c0,0.8-1.3,1.9-1.9,1.6c-2.4-1.1-1.2,2.4,1.4,4.2c0.6,0.4,1.3,0.7,1.6,0.7c1.1,0,3.4-3,4.1-5.3
		c0.2-0.8-1-0.6-1.7,0.2c-1.3,1.5-1.4,1.4-1.2-1C168.4,240,167.6,239.1,166.5,241.2 M179,241.9c0,0.6-0.1,1.5-0.2,2.1l-0.2,1.1
		l-0.2-1.2c-0.1-0.7-0.2-1.5-0.2-1.9c-0.1-0.9-1-0.9-1.5,0c-2.4,4.9-1.2,23.3,2.5,39.9c0.7,3,1.1,5.7,1.1,5.9
		c-0.4,1.5,2.3,12.6,4.7,19.6c0.4,1,1.8,5.2,3.2,9.2c4.2,12.3,5.9,15.9,11.2,25.1c2.9,5,2.9,5,2.7,3.8c-0.3-1.2,0-1.1,0.9,0.6
		c0.5,0.8,0.9,1.5,1.1,1.5c0.4,0,0.4-0.1-0.9-2.9c-0.6-1.4-2.3-5.4-3.6-9s-3.5-8.9-4.7-11.9c-3.3-8.1-4.4-11.2-5.9-15.8
		c-0.7-2.3-1.6-4.9-2-5.7c-1.2-2.8-2-5.6-2.6-8.7c-0.3-1.6-1-4.5-1.6-6.5s-1.4-5.5-1.9-7.9c-0.4-2.4-1.1-5.4-1.3-6.7
		c-0.3-1.2-0.8-4.4-1.2-7.1c-0.4-2.6-0.9-6.4-1.2-8.3c-0.6-3.6-0.7-6.2-0.4-8c0.2-1.3,0.5-0.5,0.6,1.6c0,0.7,0.3,3,0.7,4.9
		c1.1,6.1,1.4,8,1.9,10.9c0.2,1.5,0.7,3.8,0.9,5.1c0.3,1.2,0.9,4.2,1.4,6.7c0.5,2.4,1.4,6,2,7.9c0.6,1.9,1.3,4.8,1.6,6.4
		c0.8,3.8,1.2,5.3,2.4,8.4c0.6,1.4,1.6,4.5,2.4,6.8c0.8,2.3,2.7,7.4,4.2,11.2c1.5,3.8,3.9,9.8,5.3,13.3c4,10.3,5.2,13.2,5.7,13.2
		c0.4,0,0.3-0.4-1.5-4.4c-2-4.5-3-7.3-4.1-11.8c-0.4-1.8-1.3-4.8-1.9-6.7c-1.2-3.8-1.6-5.9-1.1-5.9c0.6,0,2.7,5,5.1,12.1
		c1.2,3.6,1.3,2.9,0.1-1.3c-1-3.5-1.4-5.2-1.1-4.9c0.3,0.3,3.2,6.9,4.6,10.5c2.6,6.8,2.7,7.1,3.2,5.9c0.2-0.5-0.1-1.3-1.8-4.9
		c-2.2-4.6-4.8-11.6-7.6-21.1c-0.5-1.5-0.5-1.6-1.3-1.5c-2.6,0.4-2.8,0.3-3.8-1.7c-1.1-2.2-1-2.4,1.2-3c1.9-0.6,2-0.6,1.6-2
		c-0.3-1.1-0.4-1.1-1.3-0.9c-3.8,0.7-4.7,0.1-1.3-1c1.2-0.4,1.9-0.7,1.9-1c0-0.3,0.1-0.3,0.2-0.1c0.1,0.2,0.5,0.4,0.9,0.6
		c1.3,0.5,2.3,3.6,1.5,4.5c-0.2,0.2-0.1,0.7,0.4,2c0.4,0.9,0.9,2.5,1.3,3.5c0.9,2.8,2.1,5.6,4.9,11.5c1.4,2.9,2.8,6,3.2,6.8
		c0.6,1.3,0.8,1.5,1,1.1c0.5-0.8,0-2.7-1.6-6.4c-0.9-2.1-2-5.3-2.6-7.2c-1.8-6.3-2-6.9-3.5-12.3c-0.8-2.9-1.9-7.1-2.6-9.3
		c-0.6-2.2-1.3-4.9-1.6-6c-0.3-1.1-0.6-2.3-0.8-2.7c-0.1-0.4-0.4-1.2-0.6-1.9c-0.2-0.7-0.6-1.9-0.8-2.7c-1.3-3.8-2.8-10.8-4.3-19.2
		c-0.3-1.8-0.9-4.3-1.2-5.5c-0.3-1.2-1.1-3.8-1.6-5.9c-1.5-5.8-2.9-10.1-3.5-10.2c-0.4-0.1-0.4,0-0.3,0.7c0.3,1.3-0.3,1-0.8-0.6
		c-0.3-0.8-0.8-1.6-1.1-1.8l-0.6-0.4l0.2,1.8c0.2,2.2-0.2,2.1-1-0.1c-0.6-1.6-1-1.5-1,0.1c0,0.7-0.1,1.1-0.3,1
		c-0.1-0.1-0.3-0.4-0.3-0.6c0-1.2-0.6-2.5-1.1-2.5C179.1,240.9,179,241.1,179,241.9 M145.4,241.8c-1.2,0.4-2.1,1.3-2.3,2.3
		c-0.1,0.4-0.8,1.6-1.5,2.6c-2.1,2.9-5.3,9.6-7,14.5c-2,5.9-2.8,10.6-3.5,20c-0.4,5.6-0.9,7.8-2.5,13c-1,3.1-1.3,5.4-0.8,5.4
		c1.7,0,5.3-5.2,6.7-9.6l0.8-2.5l-0.1,2.1c-0.1,1.2-0.4,2.9-0.8,4c-0.8,2.2-0.4,2.1,1.3-0.4c0.8-1.1,1.2-2.2,1.9-5
		c1.2-4.8,3.5-12.1,6.7-21.2c3.5-10.2,6.1-19,4.6-15.9c-2,4.3-5.2,11.4-5.7,12.9c-0.4,1-0.7,1.8-0.8,1.7c-0.3-0.3,0.8-3.6,2.7-8.3
		c2.8-7,3.2-8.9,2.5-10.3c-0.2-0.4-0.4-0.9-0.4-1.1c0-0.8-1.3-1.5-2.4-1.3c-1.3,0.2-1.3,0,0-0.7c0.7-0.4,1.6-0.6,2.8-0.6
		c1.7,0,1.7,0,1.6-0.6C148.6,241.4,147.4,241.1,145.4,241.8 M250.8,245.9c-0.5,0.4-0.5,0.4,0.5,0.3c0.6-0.1,1.3-0.2,1.6-0.2l0.5,0
		l-0.5-0.2C252.1,245.4,251.4,245.4,250.8,245.9 M171.8,247.4c-0.4,1-0.9,2.3-1.1,3c-0.2,0.7-0.7,1.7-1.2,2.3l-0.9,1.1l0.6,0.8
		c1.3,1.9,2.6,2.5,3.8,1.9c0.5-0.3,0.5-0.4,0.4-5.1C173,245.3,172.9,245,171.8,247.4 M194.6,248.3c-0.4,1,0.1,5.1,1.2,10.1
		c0.3,1.3,1.1,5,1.7,8.3c3.5,17.8,3.9,19.2,6.3,24.1c3.2,6.4,7.3,9.9,17.5,14.6c3.6,1.6,3.2,1.6,3.2,0.8c0-1-2.2-2.7-5.6-4.5
		c-1.5-0.7-6.3-4.2-10.2-7.3c-2.1-1.7-5-11-7.8-25.1c-0.9-4.5-3.1-13.5-4-16.5l-0.4-1.3l0.1,2.4c0.3,4.2-0.9,0.9-1.4-3.9
		C195.2,248.1,194.9,247.5,194.6,248.3 M186,249c0.2,0.3,0.6,1.3,0.8,2.3l0.5,1.7l-0.7,1.3c-0.4,0.7-1.6,2.5-2.6,4l-1.8,2.7l0.4,1.6
		c0.2,0.9,0.4,1.7,0.4,1.7c0,0.5,4-0.4,4.6-1c0.5-0.4-0.2-3-0.9-3.8c-1.3-1.3-0.6-1.7,1-0.7c1,0.6,1.1,0.9,1.4,3.4
		c0.3,2.2,0.2,2.3-2.4,3c-3.8,1-4.6,0.8-5.2-1.6c-0.8-2.8-0.6-3.2,2.1-7.2l2.5-3.6l-0.6-1.6c-0.6-1.8-0.4-1.7-3.4-1.3
		c-2.1,0.2-2.2,2.2-0.3,3.3c1.5,0.9,0.9,1.7-0.7,1.1c-1.1-0.5-1.5-1.2-1.7-3.1l-0.2-1.7l1.4-0.4C183.6,248.2,185.5,248.2,186,249
		 M204,249.6c-0.1,0.1,0.1,1.3,0.5,2.6c0.3,1.4,0.9,3.8,1.2,5.5c0.6,3.1,0.9,4.3,2,8.3c3.6,11.9,5.9,16.5,10.6,21.1
		c5,4.8,6.2,3.5,3.8-4c-1.3-4.1-1.3-4.1-2.2-3.6c-0.9,0.6-1,1.1-0.6,3.1c0.4,1.8,0.3,2.1-0.2,2.1c-0.4,0-1.7-3.4-1.7-4.5
		c0-0.7,1.8-2.8,2.7-3.1c0.3-0.1,0.3-0.7-0.4-3.8l-0.8-3.7l-1.6,0.1c-2.1,0.1-2.2,0.2-1.3,2.5c0.7,1.9,0.7,2.6,0.1,2.6
		c-0.1,0-0.8-1.1-1.5-2.4c-1.7-3.4-1.5-4,2.3-4.8c1.6-0.3,1.6,0.1,0.1-4.8c-0.5-1.7-1-3.2-1-3.4c-0.1-0.2-0.7-0.3-2.1-0.3
		c-2.3,0-2.3-0.1-1.5,2.7c1.2,4.2,0.4,4.2-1.3,0.1c-1.7-4.3-1.5-4.8,2-5.1c1.5-0.1,1.9-0.3,1.8-0.6c-0.1-0.2-0.2-0.7-0.3-1
		c-0.1-0.5-0.2-0.6-0.5-0.3c-0.3,0.2-0.5,0-1-1c-0.8-1.7-1.3-1.8-1.1-0.3l0.1,1.1l-0.5-1.1c-0.3-0.6-0.5-1.2-0.5-1.4
		c0-0.4-1-1.3-1.2-1.1c-0.1,0.1,0,0.7,0.1,1.3c0.4,1.5,0.2,1.6-0.3,0.2l-0.4-1.1l0.1,1.6l0.1,1.6l-0.5-1.1c-0.3-0.6-0.6-1.6-0.7-2.1
		c-0.1-0.5-0.4-1.1-0.6-1.4c-0.6-0.6-0.9,1.1-0.6,3.1c0.6,3.2,0.1,2.8-1.1-1.1C205.1,249.6,204.6,249,204,249.6 M108.3,250.5
		c-0.3,0.4-0.9,1.6-1.4,2.6c-0.4,1-1.3,2.3-1.8,3c-1.7,2.1-4.1,6.1-5.7,9.2c-1.3,2.6-2.2,4.2-3.8,6.7c-1.8,2.8-3.3,5.6-3.3,6.2
		c0,1.2,1.1,0.8,2.2-0.7c5.7-8.4,10.6-16.4,11.5-18.7c0.7-1.8,1.6-3.6,3.1-6c1.3-2.2,1.5-3,0.5-3C109.1,249.7,108.7,250,108.3,250.5
		 M236,250.6c0,0.7,0.6,4.6,1.5,9.1c0.4,1.9,0.8,4.7,1.1,6.2c0.8,4.8,2.4,10.6,3.8,13.8c1.9,4.2,4.1,9.8,5.6,14.4
		c1.9,5.7,3.3,9.2,6.9,17.2c1.8,3.9,3.3,7.5,3.5,8.1c1.6,5.3,4.3,11.7,5,12c0.6,0.2,0.4-0.5-0.9-3.8c-0.7-1.7-1.6-4.4-2.2-6
		c-0.5-1.6-2.3-6.4-3.8-10.7c-1.6-4.3-2.9-7.9-2.9-8c0-0.4-1.9-4.9-2.9-7c-1.5-3-3.1-7.7-4.3-12.6c-0.6-2.4-1.3-5.5-1.7-7
		c-1-3.9-1.7-7.5-2.3-12.1c-1-7-1.8-10.9-2.5-12.2c-0.6-1.1-1-1.3-2-1.2c-0.2,0-0.6-0.1-0.8-0.4C236.6,249.8,236,249.9,236,250.6
		 M253.9,251.6c0,0.5,0.6,2.7,1.3,4.9c0.7,2.2,1.3,4.4,1.3,4.7c0,1.1,1.7,5.7,3.8,10.5c6.7,15,7.5,16.4,13.9,22.8
		c1.7,1.8,2.5,1.1,1-0.9c-0.4-0.6-1.4-2-2.1-3c-1.7-2.4-6.9-11.1-7.6-12.8c-0.3-0.7-1.2-2.6-1.9-4.2c-0.7-1.6-2.1-5-3.1-7.7
		c-1-2.7-2.2-5.7-2.7-6.8c-1-2.2-2.2-5.7-2.2-6.4c0-0.3-0.2-0.7-0.4-0.9s-0.4-0.5-0.4-0.7c0-0.2-0.2-0.4-0.4-0.4
		C254,250.8,253.9,251.1,253.9,251.6 M261.9,251.3c0,0.4,1.2,2.4,2.4,4.1c0.6,0.9,0.7,1.2,0.3,0.8c-0.4-0.4-0.1,0.4,1.1,3.1
		c1,2,2.8,6.3,4.2,9.6c1.3,3.3,3.4,8.5,4.6,11.5c1.2,3,2.4,6.2,2.7,7c0.5,1.5,1.6,2.6,2.2,2.2c0.1-0.1,0.4,0.8,0.7,2
		c0.3,1.2,0.5,2.1,0.5,2.1c0,0,0-2.7-0.1-5.8l-0.2-5.7l-1.2-3.6c-0.7-2-1.9-5.1-2.8-6.9c-0.9-1.8-2.1-4.4-2.6-5.7
		c-1.3-3-2.5-5.2-3.9-7.1c-0.6-0.8-1.2-1.7-1.4-1.9C267.8,255.8,261.9,250.8,261.9,251.3 M162.8,252.9c-1.3,0.1-1.4,0.2-1.9,1.1
		c-1.4,2.8,0.4,4.1,3.1,2.2c2.4-1.6,2.8-3.7,0.7-3.5C164.4,252.7,163.5,252.8,162.8,252.9 M373.1,255.8c-3.7,1.4-4.1,4.2-1.1,7.9
		c1.4,1.7,2.1,1.2,1-0.9c-1.4-2.7,0-4.5,2.4-3c2.2,1.4,2.8,0.8,0.9-0.9c-1.4-1.3-1.4-1.4-0.6-1.4c1.4,0,3.1,2.1,3.1,4
		c0,2.6,2.1,4.8,4.6,4.8c1.6,0,3.1-3.1,2-4c-0.3-0.2-0.4-0.1-0.8,0.8c-0.2,0.6-0.6,1.1-0.9,1.2c-0.6,0.2-2.7-0.9-2.9-1.5
		c-0.2-0.8-0.3-4.7-0.1-5.1c0.1-0.2,0.2-0.4,0.1-0.4c-0.1,0-0.9-0.5-1.8-0.9C377.2,255.3,374.9,255.1,373.1,255.8 M249.6,255.8
		c-0.8,0.8,1.5,3.6,3,3.6c0.8,0,1.1-0.8,0.7-1.6C252.4,256.4,250.2,255.2,249.6,255.8 M245.3,256.9c-1.9,1.5-2.3,4-0.7,4
		c0.4,0,2.3-2.1,2.6-3C247.8,256.5,246.6,255.9,245.3,256.9 M242.3,257.4c0.2,1,0.4,1.1,0.4,0.3c0-0.4-0.1-0.8-0.3-0.9
		C242.2,256.7,242.2,256.9,242.3,257.4 M107.6,261.9c-0.7,1-2.8,4-4.6,6.7c-1.8,2.7-3.5,5.2-3.7,5.6c-2,3-2.1,5.8-0.1,3.4
		c0.4-0.5,1.2-1.4,1.9-2.1c1-1.1,8.3-15,8-15.4C108.9,260.1,108.3,260.9,107.6,261.9 M165.8,262.7c-1.2,2.1-2,2.6-4.2,2.6
		c-3.2,0-2.3,2,2.5,5.6c2.4,1.8,6.2,0.4,7.5-2.7c0.2-0.5,0.6-1.1,0.9-1.3c0.7-0.5,1.4-1.9,1.2-2.4c-0.4-1-2.5-0.3-5,1.7
		c-1.9,1.5-1.8,1.6-1.8-1.4C167,261.4,166.7,261,165.8,262.7 M253.3,262.5c-0.2,0.3-0.7,1-1.1,1.6c-1.3,2-1.5,2-3.7,0.3
		c-2.2-1.7-2.4-0.8-0.3,1.4c3.8,4,4.9,3.9,5.4-0.3c0.1-1.3,0.3-2.6,0.4-2.9C254.3,261.9,253.9,261.8,253.3,262.5 M74.3,265.2
		c-1.2,4.1-1.4,9.4-0.5,14.9c1,5.9,0.6,11.2-1.3,16.9c-1.1,3.4,0.7,1.5,2.5-2.6c1.6-3.5,3.1-6.1,3.3-5.4c0.4,1.9-1.7,8-5,14.7
		c-3.8,7.6-3.7,8.8,0.1,1.9c2.6-4.6,3.6-6.3,4.1-6.3c0.5,0,0.2,0.5-2.7,6.5c-2.9,5.7-2.7,5.3-2,5.3c0.7,0,1.5-1.1,3.2-4.4
		c1.3-2.5,4.3-7.1,5.9-9.2c0.4-0.5,1.6-2.6,2.6-4.5c3.1-5.8,5.5-7.8,8.5-6.9c1.4,0.4,1.9,0,1.3-0.9c-0.2-0.3-0.3-0.8-0.2-1.1
		c0.3-2.2-6.9-4.7-9-3c-1,0.8-1,1,0,1.9l0.8,0.7l-1.3,2c-1.5,2.3-1.4,2.3-3,1.5c-4.1-2-7.4-11.7-6.9-20.4
		C74.9,263.5,74.9,263.3,74.3,265.2 M187.8,269.1c0.2,0.9,0.2,1.3,0,1.5c-0.4,0.4-1-0.4-1.2-1.7C186.3,266.8,187.2,267,187.8,269.1
		 M185.8,269.3c0.5,1.9,0.5,2.6-0.1,2.5c-0.5-0.1-1.3-2.9-1-3.6C185,267.5,185.5,268,185.8,269.3 M254,271c-0.4,0.4-0.3,0.5,1,1.7
		c2,1.8,3.4,2,3.4,0.5C258.4,271.9,254.9,270.1,254,271 M121.3,273.1c-0.5,5.5-2.7,10.7-6,14.9c-2.9,3.6-4.8,5.3-7.5,6.6
		c-1.8,0.9-1.6,1.3,0.8,1.1c2.6-0.2,3.9-0.9,6.7-3.7c7.2-7,9.8-13.6,7.2-17.9c-0.2-0.3-0.4-1-0.5-1.5
		C121.7,271,121.4,271.2,121.3,273.1 M173.2,273.5c0,2.7-0.7,3.5-2.9,3.4c-1.3-0.1-1.7,0.2-1.7,1.3c0,0.4,5.8,4.3,6.5,4.3
		c0.9,0,1.3-1.1,0.8-2c-0.2-0.4-0.7-2.5-1-4.6c-0.3-2.1-0.7-4-0.9-4.2C173.5,270.9,173.2,271.4,173.2,273.5 M250.4,271.8
		c-0.2,0.3-0.4,0.6-0.4,0.7c0,0.1-0.3,0.7-0.7,1.3c-0.9,1.4-0.6,2.4,0.6,2.3c0.6-0.1,0.8-0.3,1.1-1.4
		C251.6,271.9,251.4,270.7,250.4,271.8 M191.2,273.6c0.8,2.7,0.3,3.2-4.4,4.8c-1.8,0.6-2,0.4-2.7-2.1c-0.5-1.9-0.4-2.5,0.5-2.5
		c0.2,0,1.3-0.3,2.4-0.6C189.8,272.2,190.8,272.3,191.2,273.6 M189.4,273.7c-0.2,0.1-1.3,0.4-2.4,0.7l-2,0.5l0.2,0.9
		c0.3,1.6,0.5,1.7,3.2,0.6c1.8-0.7,1.9-0.8,1.8-1.7C190.1,273.7,189.9,273.4,189.4,273.7 M257.3,276.2c-0.4,0.5-1.1,1.3-1.5,1.7
		c-0.8,1-1.3,1.1-3.2,0.4c-2.6-0.9-3.3,0.1-1,1.5c3.8,2.4,4.9,2.1,6.2-1.7c0.3-1,0.8-1.9,1-2.1c0.4-0.2,0.4-0.3,0-0.5
		C258.4,275.2,258.2,275.3,257.3,276.2 M159.2,277.5c-3.2,0.3-3.1,0.2-3.5,2.7c-0.5,3.1,0.3,3.6,2.5,1.6c0.8-0.7,2.1-1.6,2.9-2.1
		C165.6,277.4,165.3,277,159.2,277.5 M191.4,279.5c0.1,0.3,0.3,0.8,0.5,1.2c0.5,0.9,0.5,1.8,0,2.4c-0.5,0.7-0.9,0.3-0.9-1
		c0.1-1.7-0.2-1.9-2.2-1.1c-0.9,0.4-1.7,0.7-1.8,0.7c-0.7,0.6,0.7,2,3.4,3.3c1.6,0.8,2.9,1.6,3,1.8c0.3,0.8-0.7,0.8-1.9,0
		c-0.7-0.4-2.1-1.1-3.1-1.6c-3.7-1.7-3.5-4.3,0.4-5.6C191.3,279,191.2,279,191.4,279.5 M258.7,283.8c-0.3,0.4,0,0.9,0.6,0.9
		c0.1,0,1.1,0.8,2.3,1.8c3.2,2.9,4.3,3.3,4.7,1.8c0.2-0.8-0.6-1.4-4.2-3.4C258.8,283.1,259.1,283.2,258.7,283.8 M166.6,286.6
		c-0.3,0.6-0.9,1.6-1.4,2.2l-0.9,1l-1.6-0.2c-2-0.2-2.9-0.5-3.8-1.4c-1.3-1.3-1.7-0.2-0.6,1.4c6.2,8.4,8,9.4,11.1,6.3
		c0.8-0.8,2-1.9,2.8-2.4c1.3-0.9,2.5-2.4,2.5-3.3c0-0.4-0.1-0.4-0.6,0c-0.3,0.2-1.6,0.8-2.9,1.4c-1.2,0.5-2.6,1.2-3,1.4
		c-1,0.6-1.1,0.5-0.7-1.9C168.1,286.7,167.6,284.3,166.6,286.6 M254.1,287.2c-0.7,1-1.7,2.3-2.3,3c-1.3,1.5-1.1,2.4,0.6,2.3
		c1.5,0,1.7-0.2,2.4-2.8c0.4-1.4,0.9-2.9,1.1-3.4C256.6,284.7,255.4,285.2,254.1,287.2 M380.9,286.4c-1.3,1.4-2.7,4-2.9,5.7
		c-0.2,1.6-0.4,1.6-1,0.2c-0.3-0.8-0.6-1.1-0.9-1c-0.6,0.1-0.8,1.8-0.4,2.6c0.3,0.5-2,1.4-2.7,1c-0.4-0.3-2.4,0.4-3,1.1l-0.6,0.6
		l-1-0.9c-1.4-1.2-2.8-1.6-3.7-1.1c-0.6,0.4-0.7,0.4-1.3-0.3c-0.8-0.9-1.9-1.4-2.8-1.4c-1.1,0-0.9,0.9,0.5,1.7c1.1,0.7,2,2,2,2.9
		c0,0.2,0.1,0.5,0.3,0.6c0.1,0.1,0.2,0.3,0.1,0.5c-0.2,0.6,0.3,0.7,0.8,0.2c0.3-0.3,0.4-0.7,0.3-1.6c-0.5-3.5,3.2-1.5,4.1,2.3
		c0.6,2.3,1.3,2.6,1.3,0.6c0-1.8,0.6-2.8,1.9-3.2c0.5-0.2,1.2-0.5,1.6-0.7c1-0.6,2.7-0.3,5.9,1.2c0.2,0.1,1,1.1,1.7,2.1l1.3,1.9
		l0,2.7c0,1.5-0.1,4.3-0.2,6.2c-0.2,3.8,0.2,5.5,1.5,6.3c0.9,0.5,1.1,0,0.5-0.9c-0.9-1.2-0.9-2.7-0.2-6.5c1.2-6.5,0.7-9.6-1.8-12.8
		c-0.7-0.9-1.2-1.7-1.2-1.9c0.1-0.2-0.2-0.7-0.5-1.1c-1.2-1.6-1-3.7,0.7-6.2C382.5,285.5,382.3,285,380.9,286.4 M189.8,287.8
		c0.1,0.1,0,0.6-0.2,1.1c-0.6,1.4-0.1,2.7,0.8,2.5c0.4-0.1,1.3-0.3,2.1-0.4l1.3-0.2l-0.1-0.9c-0.4-3.5,0.8-3,1.5,0.6
		c0.2,1.1-0.2,1.4-2.9,1.8c-3.3,0.6-3.7,0.3-4-2.2C188,288.9,189.2,287,189.8,287.8 M311.5,288.9c0,0.1,0.1,0.3,0.3,0.3
		c1,0,5.4,5.1,6.7,7.9c1,2,1.1,2.9,0.2,1.2c-0.4-0.8-1.1-1.8-1.5-2.3l-0.7-0.8l0.6,1.6c0.8,2,1.3,4.1,1.9,7.3c0.8,4.5,0.4,4-1.4-2.2
		c-1.4-4.6-2.1-6.1-3.3-7.4c-1.4-1.5-1.7-0.8-0.3,1c1,1.3,1.8,3.5,3.1,8.2c0.9,3.4,1.6,5.4,2.4,6.9c0.3,0.5,0.6,1.3,0.6,1.8
		c0.1,0.4,0.2,1,0.3,1.2c0.1,0.4-0.1,0.5-1.2,0.5c-1.3,0.1-1.4,0.1-1.4-0.5c0-2.1-3.4-2.9-4.2-1c-0.3,0.7,0.2,0.8,1.3,0.2
		c2-1.2,2.7,0.1,1.9,3.3c-0.6,2.2-0.4,3.3,0.7,3.3c0.5,0,0.5-0.6,0.1-1c-0.6-0.6,0.9-3.3,1.9-3.3c2.3,0,4.6,3.3,2.9,4.3
		c-0.8,0.4-0.7,1.3,0.2,1.3c0.5,0,1.1-0.4,2-1.4l1.3-1.4l-0.1-1.8c-0.1-1.5-0.2-1.9-0.7-2.3c-1.3-1.1-3-6.3-2.3-6.9
		c1.5-1.1,3.4,0.9,2.7,2.9c-0.4,1,0.2,2.6,1.2,3.2c1,0.6,1.5,0.3,1-0.5c-1.2-2.3,1.2-4.2,2.7-2.2c0.3,0.4,0.8,0.8,1,0.8
		c0.8,0,1.1,2.6,0.4,3.2c-0.4,0.4-0.3,0.8,0.3,0.8c1.7,0,2.6-2.9,1.5-4.7c-0.5-0.9-0.5-0.9,0-1.2c0.9-0.5,1.1-0.3,1.9,1.4l0.8,1.6
		l-0.3,2.6c-0.4,3.6,0.3,4.8,1.4,2.5c0.8-1.7,2-1.9,3.5-0.6c1.2,1.1,3,3.8,3.2,4.9c0.3,1.4,0.6,1.1,0.5-0.4
		c-0.2-1.4,0.3-5.6,0.6-5.9c0.1-0.1,1,0.7,2,1.9c2.8,3.4,6.5,5.8,8.3,5.3c1.1-0.3,2.6-1.6,2.6-2.2c0-0.9,0.3-1.2,1.5-1.5
		c0.6-0.2,1.2-0.5,1.4-0.7c0.2-0.2,0.9-0.7,1.7-1.2c2.8-1.6,3.9-3.5,3.9-6.5c0-1.3,0.1-2.1,0.4-2.5l0.4-0.6l1.7,0.5
		c1,0.3,2.1,0.5,2.4,0.4c0.8-0.1,1.2-0.8,0.4-0.8c-0.3,0-1.4-0.4-2.4-1c-3.2-1.6-5.1-0.8-5.2,2.1c-0.1,2.3-1.5,4.5-3.9,6.1
		c-0.6,0.4-0.6,0.5-0.2,0.5c0.6,0,2.1-0.9,3.2-1.8c1.1-1,0.9-0.1-0.3,1.2c-3.5,3.8-10.9,1.9-12.2-3.2c-1.2-4.6-5.2-10.3-7.2-10.3
		c-0.7,0-0.5,0.6,0.7,1.6c1.4,1.3,3,4.1,3.8,7.1c1.7,6,3.9,8.6,7,8.6c0.9,0,0.9,0.6,0.1,2.1c0,0-0.6-0.2-1.4-0.5
		c-1.8-0.8-3.2-2.7-6.6-9.2c-3.7-7.1-8.3-12.9-11.7-14.7c-2-1.1-1.7-0.1,0.5,1.7c3.9,3.2,5,4.4,6.6,7.8c0.6,1.2,0.6,1.3,0.1,0.7
		c-4.8-5.7-7.7-8.3-10.5-9.7c-2.7-1.3-2.9-0.7-0.4,0.9c4.2,2.8,8.4,7.5,9.8,11.2c0.2,0.7,1,2.1,1.6,3.1c1.1,1.9,1.1,1.9,0.6,2.4
		c-0.6,0.6-2.9-0.2-2.9-1c0-1.6-3.6-8.3-5.7-10.6c-2-2.2-3.6-3.4-4-3c-0.5,0.4-0.1,1.2,1.1,1.9c0.5,0.3,1.3,1.2,1.9,2
		c0.8,1.2,0.8,1.4,0.4,1c-0.3-0.3-1.2-1-2-1.5c-2.7-1.8-7.7-6.9-8.6-8.6c-0.9-1.8-1.6-2.1-1.4-0.5c0.3,2.4,2.8,5.6,8.6,10.9
		c1.6,1.5,2.3,2.5,1.8,2.6c-0.2,0.1-0.6,0.3-0.8,0.6c-0.4,0.4-0.5,0.4-1.2,0c-0.4-0.3-0.6-0.5-0.5-0.6c0.8-0.8-1.1-1.2-2.6-0.5
		c-1.3,0.7-1.3,0.7-1.6-0.5c-0.3-1.2-0.8-1.4-2.9-1.3l-1.3,0.1l-0.2-1.5c-0.3-2.7-1-5.5-1.7-6.9
		C319.2,294.3,311.5,287.2,311.5,288.9 M358,292.7c-1.8,0.7-2.4,4-1.3,7.1c0.8,2.2,0.8,4,0,4.6c-0.3,0.2-0.4,0.1-0.5-0.9
		c-0.1-0.7-0.4-1.5-0.7-1.8c-0.3-0.4-0.5-0.8-0.5-1.1c0-1.3-1.8-4-3.5-5c-1.6-1-1.7-0.6-0.2,1.1c1.8,2,2.2,2.9,2,5.2
		c-0.3,3.4,3,8.4,5.5,8c1.5-0.2,1.1,0.2-0.6,0.7c-2.5,0.7-3.5,0.3-3.8-1.4c-0.3-1.6-0.8-2-1.2-1c-1.1,2.8,1.1,5.5,4.5,5.5
		c2.8,0,4.4-2.2,4.7-6.4c0.1-1.2,0.4-2.6,0.8-3.4c0.9-2.1,0.7-2.4-1.3-1.5c-0.9,0.4-0.9,0.5-1.2,2.8c-0.3,2.5-0.7,3.1-1.8,3.1
		c-1.3,0-1.5-1-0.5-3.1c0.9-1.9,1-3.9,0.1-5.8c-1-2.3-0.7-5,0.6-5.8C360.4,293,359.4,292.1,358,292.7 M196.7,297
		c0.9,3,0.8,3.3-1.3,4.1c-2.7,1-3.1,0.9-3.9-1.3c-1.4-3.9-1.3-4.2,1.9-4.9c0.9-0.2,1.8-0.5,1.8-0.5C195.6,294,196,294.8,196.7,297
		 M193.3,296.2c-1.7,0.8-1.7,1-1.3,3c0.3,1.4,0.3,1.4,1.9,0.9c2.2-0.7,2.2-0.6,1.7-2.6C195,295.2,195.1,295.3,193.3,296.2
		 M131.1,299.6c-0.6,0.4-0.9,0.8-0.7,0.8c0.2,0,0.7-0.4,1.2-0.8C132.7,298.6,132.5,298.6,131.1,299.6 M166.8,300.8
		c-0.7,1.1-1.9,3-2.7,4.3c-1.5,2.4-1.9,2.7-1.9,1.6c0-0.9-0.5-3.5-1-5.4l-0.4-1.5l-0.3,1.2c-1,3.8-3.1,5-5.3,2.9
		c-1.4-1.2-1.5-1.3-1.5-0.4c0,0.5,0.3,0.8,1,1.3c0.6,0.4,1.7,1.5,2.5,2.5c2.3,2.8,4.6,4.9,5.4,4.9c1.4,0,4.2-4.7,6.1-10.2
		C169.9,298.2,168.9,297.5,166.8,300.8 M151.8,300.6c-0.2,0.1-1,1.7-1.8,3.5c-1.2,2.7-1.5,3.2-1.6,2.6c-0.1-0.4-0.3-1-0.4-1.4
		l-0.3-0.7l-1,1.5c-1.5,2.3-0.9,6.8,0.8,6.5c1.4-0.2,4.5-7.6,4-9.6c-0.1-0.3,0.1-0.8,0.3-1.2C152.4,301.1,152.4,300.3,151.8,300.6
		 M170.7,301.4c-0.4,0.9-0.4,1.5,0.2,2.1c0.3,0.3,0.9,1.1,1.4,1.9c3.8,5.6,7.3,9,7.9,7.5c0.4-1-0.7-3.6-1.2-2.9
		c-0.1,0.2-1.1-0.9-2.6-3.1C172,300.7,171.4,300,170.7,301.4 M282.8,302.4c-0.2,0.5,0.2,1.3,1.3,2.7c2.3,2.9,3.6,5.3,3.6,6.7
		c0,3.9,6.9,17.2,11.3,21.9c1.3,1.3,1.2,1.4-0.9,0.3c-2.8-1.4-3.3-2-7.1-8.1c-2.1-3.5-4.5-7.9-5.2-10.1c-0.8-2.3-2.5-5.3-3-5.3
		c-0.5,0-0.6-0.4,1.1,4.7c0.9,2.8,1.4,4.7,1.3,5.1c-0.1,0.4,0.2,1.3,1.1,2.9c0.7,1.3,1.9,3.6,2.7,5.1c0.8,1.5,2.1,3.9,2.9,5.1
		c1.5,2.5,1.7,2.8,1,2.5c-0.6-0.2-1,0.8-0.8,2.3c0.3,2.1-0.9,0.6-4.9-6.4c-2.9-5-6.3-10.3-8.9-13.9c-3.8-5.2-2.5-1.3,2,5.8
		c0.4,0.7,1.1,1.9,1.6,2.7s1.5,2.7,2.3,4.1c0.8,1.4,1.9,3.6,2.4,4.9c0.5,1.3,1.6,3.7,2.4,5.3c1.8,3.7,2.1,5.9,1.2,7.5
		c-0.7,1.1-0.7,1.1-1.7-1.5c-0.9-2.4-2.9-6.6-3.3-6.8c-0.4-0.2-0.4-0.3,0.2,2.2c0.6,2.6,1,5.9,1.2,10.1c0.2,5,0.6,5.8,3,6.5
		c1.7,0.6,7.4,3.3,8.9,4.4c2.5,1.7,8.1,4.9,8.2,4.8c0.3-0.3-6.7-6.4-9.8-8.5c-3.2-2.2-6.4-5.4-6.4-6.4c0-0.6,0.7-0.4,1.3,0.3
		c1.6,2.1,3.9,3.4,4.2,2.5c0.3-0.8,1.7-0.2,5.5,2.2c1.1,0.7,3.1,1.8,4.4,2.4c1.3,0.6,3.2,1.5,4.2,2c2.6,1.3,2.5,1.1-1.3-1.7
		c-4.6-3.5-5.4-4.3-4.3-4.3c0.8,0,5.4,2.7,11.2,6.7c1,0.7,2.4,1.6,3.1,2c2,1.3-2.4-2.7-5.1-4.5c-1.2-0.8-3.2-2.2-4.4-3
		c-2.7-1.8-7-5.2-7-5.4c0-0.1,0.7-0.4,1.5-0.7c0.9-0.3,1.7-0.7,1.9-1.1c0.2-0.4,0.9-1.1,1.4-1.7c0.5-0.6,1.1-1.4,1.2-1.7
		c0.9-1.7,3,0.1,3,2.5c0,1.2,0.6,1.6,4.5,3.8c1,0.5,2.3,1.6,3.1,2.3c1.6,1.7,6.8,5.9,6.2,5c-0.2-0.3-2-2.3-3.8-4.4
		c-6.2-6.8-3.9-5.1,5.4,3.8c3.6,3.5,2.7,2.2-2.1-3.1c-0.9-1-2-2.4-2.5-3.1s-1.4-1.9-2-2.6c-1-1.1-3.1-4.6-3.1-5.1
		c0-0.7,0.8,0.2,4.4,4.4c3.6,4.4,5,5.8,5.5,5.8c0.5,0,0.2-0.5-1.2-2.7c-1.6-2.5-4-6.6-6-10.4l-1.4-2.6l1,0.8c1.2,1,2.3,2.4,4.9,6.4
		c2.3,3.6,2.4,3.6,1.2,0.2c-1.1-3.1-1.1-3.7,0-0.9c2.4,6.3,9.2,15.9,11.2,15.9c0.7,0,0.5-0.2-1.6-2.5c-3.3-3.5-3.3-3.5-5.8-9.3
		c-1.2-2.8-2.1-5.5-1.7-5c0.5,0.5,6.2,8.2,7.3,9.7c1.8,2.6,4.1,5.1,4.7,5.3c1,0.3,1.1-0.3,0.3-1.4c-0.4-0.6-2.1-3.2-3.7-5.8
		c-10.3-17.3-12.4-19.4-19.4-19.8c-1.6-0.1-3-0.3-3.2-0.5c-1.5-1.2-4.2-2.3-8.1-3.3c-7.2-1.8-9.5-4-12.5-12.5
		c-2.3-6.3-4.7-10.8-7.9-14.3c-0.7-0.7-1.2-1.4-1.2-1.6C283.8,301.8,283,302,282.8,302.4 M196.4,308.5c-1.3,0.3-1.3,0.4-0.7,1.6
		c0.5,0.8,1.1,1,2.4,0.5c0.9-0.3,1-0.4,0.5-1.5C198.4,308.1,198.2,308,196.4,308.5 M153,314.5c-0.1,0.1,0,1.1,0.2,2.1
		c0.2,1,0.5,3,0.7,4.4c0.2,1.4,0.4,3.3,0.6,4.3c0.2,1.2,0.2,2.6,0.1,4.1c-0.2,1.8-0.2,2.1-0.3,1.2c-0.1-1.9-0.9-4.7-2.1-7.7
		c-1.1-2.7-2-5.8-2-6.8c0-0.8-0.7,0-1.2,1.3c-0.6,1.6-0.4,3.5,0.8,7.3c1,3.2,1.6,8.6,1.3,10.8c-0.3,1.7,1.3,0.5,2.5-2l0.7-1.5
		l-0.2,1.2c-0.1,0.6-0.5,1.9-0.8,2.8c-0.4,0.9-0.6,1.8-0.6,2s-0.8,1-1.8,1.8c-1,0.8-3.8,3-6.3,5c-2.5,2-5.1,3.9-5.7,4.4
		c-3.4,2.3-6.8,6.8-10.8,14.5c-2.2,4.2-1.3,4.4,1.4,0.4c1-1.6,2.6-3.8,3.6-4.9c2.9-3.3,7.2-7.3,5.8-5.3c-0.7,1-3.4,5.3-3.4,5.5
		c0,0.1-0.6,1.3-1.3,2.8c-1.3,2.7-1.6,4.1-0.8,4.1c0.2,0,0.6-0.4,0.9-0.9c3.8-6.7,9.5-13.8,13.9-17.2c7.6-6,9-8.1,10.9-16.5
		c0.9-4.1,0.8-7.1-0.3-11.8c-0.7-2.7-1.9-3.1-1.6-0.5c0.1,0.8,0.1,2.1,0,3l-0.2,1.6l-0.8-2.9c-0.5-1.6-0.9-3.4-1-4
		C154.5,314.9,153.5,313.6,153,314.5 M61.4,316.8c0.1,0.1,0.8,0.5,1.6,0.9c2.3,1.2,2.1,1.8-0.4,1.5c-1.7-0.2-2-0.1-1.9,0.2
		c0.2,0.5,4.5,2.6,5,2.5c0.2-0.1,0.8,0,1.3,0.1c2.2,0.6,2.4-2.2,0.2-3.6C65.6,317.4,60.7,316,61.4,316.8 M60.2,322.3
		c-0.1,0.1,0.2,0.6,0.7,1c1,0.9,0.7,1.4-0.6,0.9c-1.5-0.5-2.8-0.2-1.9,0.4c0.2,0.1,0.1,0.4-0.1,0.7c-0.2,0.3-0.5,1.2-0.6,2.1
		c-0.1,0.8-0.6,2.8-1.1,4.5c-0.5,1.7-1.1,4.3-1.5,5.9c-0.4,1.5-1,4.1-1.4,5.6c-2.2,8-2.4,9.2-1.7,9c0.3-0.1,0.7-0.8,1.2-2.2
		c0.4-1.2,1.1-2.8,1.4-3.6c0.4-0.8,1.4-3.3,2.2-5.6c0.9-2.3,1.9-4.8,2.3-5.6c2.2-4.6,2.9-6.9,2.5-8.2c-0.5-1.4,0-1.6,1.6-0.4
		c2.7,2,4.3,1.6,3.1-0.8C65.2,323.9,60.8,321.2,60.2,322.3 M162,324.7c-0.2,0.4-0.2,1.1,0,2.1c1.4,8.8-1.4,15.9-8.4,21.2
		c-3.4,2.6-6.8,5.8-7.6,7.4l-0.6,1.1l1.4-1.4c5.3-5,14.4-10.4,18.7-11.1c1.6-0.3,1.6-0.3,4.7,1.1c3.1,1.4,3.9,1.6,4.9,1.1
		c1.7-0.9,2-6.7,0.4-7.1c-0.4-0.1-0.7-0.4-0.7-0.7c0-0.3-0.3-1.8-0.7-3.2c-0.4-1.5-0.8-3.2-0.9-3.9c-0.3-1.7-1.7-2.4-2.4-1.2
		c-0.3,0.4-0.2,3.2,0.1,5.1c1,6-2.9,4.1-5.2-2.5c-0.5-1.4-1.1-3.7-1.3-5.2C163.7,324.3,162.7,323.1,162,324.7 M85.1,324.6
		c0,0.1,0.2,0.4,0.4,0.6c0.7,0.6,3.6,4.4,3.6,4.8c0,0.2,0.2,0.9,0.5,1.7c3.1,8.2,0.6,24.3-5.4,34.6c-0.8,1.4-1.5,2.7-1.5,2.8
		c0,0.3-1.1,1.2-1.7,1.4c-0.5,0.2-0.6,0.6-0.3,0.8c0.1,0.1,0.6-0.1,1-0.3c5.5-2.9,10.1-11.7,12-22.5c0.9-5,0-13.4-1.8-17.3
		c-0.2-0.5-0.6-1.3-0.8-1.9C90.2,327.1,85.1,323.1,85.1,324.6"/>
</g>
</svg>
