<svg xmlns="http://www.w3.org/2000/svg" viewBox="0 0 500 500"><path fill="#FFF" d="M182.38 417.38l-.57-.23c.25.11.41.2.57.23zM269.13 438.18l-.18.24c.2-.14.22-.2.18-.24zM279.71 416.83l.46-.26c-.23.11-.36.2-.46.26z"/><path fill="#FFF" d="M253.09 428.41c-.01 0 .02 0-.05-.04l-.47-.22c-.2-.1-.38-.15-.57-.23a29.8 29.8 0 0 0-5.15-1.47c-1.21-.24-2.26-.39-3.16-.55-.9-.15-1.68-.3-2.24-.45-.16-.03-.27-.07-.4-.11-.12-.04-.22-.06-.5-.17l-1.4-.52-2.83-1.04-5.66-2.05a799.07 799.07 0 0 0-11.35-3.97l-11.35-4.16-11.72-4.14-11.8-4.12a555 555 0 0 1-23.53-8.81l-24.75-10.1-12.39-4.98-6.21-2.44-3.08-1.2c-.92-.4-1.86-.75-2.73-1.21a30.36 30.36 0 0 1-9.45-7.12 34.26 34.26 0 0 1-3.57-4.8 43.43 43.43 0 0 1-2.76-5.42c-3.2-7.6-4.25-16.01-4.8-24.86-.29-4.27-.57-8.63-1.1-13.03l-.76-6.4-.38-3.15-.25-3.17a219.57 219.57 0 0 1-.66-12.8l-.13-6.5c-.05-2.21-.04-4.4-.24-6.68l-.22-3.63c-.12-1.23-.3-2.43-.44-3.54-.28-2.22-.48-4.24-.2-5.88l.05-.37.05-.58.18-2.06.09-1.22c.04-.42.06-.86.03-1.32l-.12-2.8c0-.47-.06-.94-.15-1.4a2068 2068 0 0 1-.23-1.38c-.18-.89-.25-1.75-.52-2.5-.47-1.5-.86-2.66-1.09-3.22-.2-.51-.14 1.07-.02 2.98.1.94.02 2-.01 2.93-.05.93-.05 1.73-.11 2.21l-.38 2.51c-.07.44-.1.88-.22 1.32l-.33 1.34c-.43 1.84-1 3.57-1.1 5.45-.13 1.86 0 3.7.13 5.35.15 1.66.2 3.12.2 4.32.05 2.42.15 4.49.02 6.44l-.2 5.53c-.14 3.61-.2 7.27-.15 12.3.1 2.62.12 5.22.29 7.82l.57 7.74c.42 5 .54 10.07.8 15.2.25 5.15.65 10.37 1.62 15.63a59.78 59.78 0 0 0 4.9 15.57 40.22 40.22 0 0 0 3.53 5.94c1.4 1.86 2.93 3.7 4.7 5.3a40.58 40.58 0 0 0 11.98 7.7c7.84 3.27 15.73 6.49 23.36 9.92 16.53 7.43 32.87 15.21 49.72 22.14 8.95 3.66 17.88 7.63 26.78 11.54 2.2 1 4.5 1.9 6.77 2.81l6.84 2.74 6.85 2.69 3.44 1.32.43.17.51.18c.41.13.84.28 1.24.38.8.23 1.56.4 2.3.55 1.77.34 3.27.53 4.48.76.6.11 1.11.23 1.56.35.2.07.44.12.6.19l.25.1c.05 0 .09.02.12.04l.05.03c.02 0 .03 0 .12.07l.86.57.9.62c.6.5 1.2.67 1.82.94l.45.2.4.09.83.2c.52.13 1.22.13 1.87.1.65-.03 1.3-.14 1.92-.3.61-.14 1.1-.4 1.63-.63.14-.06.26-.1.4-.18l.43-.26.85-.54c.54-.46 1.09-.97 1.6-1.49l.3-.25.08-.06.09-.06c.04-.04.14-.07.22-.12.13-.08.35-.17.54-.26.45-.18.97-.37 1.66-.57 1.32-.4 3.13-.83 5.24-1.63.56-.24 1.08-.43 1.66-.73l.84-.43.54-.3 2.17-1.15 4.33-2.33 17.37-9.23c4.93-2.57 9.9-5.22 14.83-7.7 4.92-2.47 9.82-4.98 14.78-7.39l9.5-4.37c3.16-1.45 6.3-2.97 9.52-4.33 6.42-2.77 12.75-5.67 19.24-8.34l9.7-4.08 4.89-2.05c1.6-.68 3.21-1.35 4.77-1.98a70.29 70.29 0 0 1 9.1-3.05c.74-.16 1.49-.38 2.22-.5l2.25-.37c2.29-.32 4.7-.94 7.03-2.01a21.48 21.48 0 0 0 5.84-3.96 23.76 23.76 0 0 0 4.12-5.26 36.1 36.1 0 0 0 2.56-5.4c.33-.88.63-1.75.9-2.6.28-.86.46-1.6.7-2.39l2.66-9.4c.82-3.11 1.53-6.2 2.3-9.3.76-3.13 1.46-6.16 2.16-9.2.71-3.05 1.37-6.15 2.14-9.09.74-3 1.45-5.92 2.17-9.02l1.11-4.98c.18-.84.39-1.67.52-2.5l.38-2.52c.24-1.77.6-3.65.77-5.52l.6-5.76.44-5.8.1-1.46.02-.37v-.46l.03-.9.03-1.82c0-.6-.07-1.15-.1-1.73-.33-4.59-1.32-8.42-2.1-11.63-.2-.81-.4-1.6-.56-2.31-.17-.74-.38-1.48-.5-2.13l-.22-1-.12-.5c-.04-.17-.07-.16-.1-.26a5.7 5.7 0 0 1-.41-1l-.33-1.08c-.12-.35-.17-.7-.21-.86a3.09 3.09 0 0 0-.27-.63c-.06-.02 0-.22 0-.32.01-.12 0-.22-.02-.3a.56.56 0 0 0-.27-.35c.12.04.02.3-.12.57-.02.1-.11.16-.24.18-.3-.05-.62.37-.84.85a11.83 11.83 0 0 0-1.06 2.82l-.28 1.35a81.85 81.85 0 0 0-1.22 8.46c-.14 3.32-.08 6.75-.53 10-.14.82-.24 1.58-.4 2.43l-.53 2.58c-.36 1.71-.69 3.44-1.09 5.1a134.35 134.35 0 0 1-5.5 18.16c-2.15 6.08-4.4 12.59-5.98 19.47l-2.59 10.78-1.26 5.34c-.44 1.76-.95 3.46-1.41 5.19l-1.41 5.17c-.46 1.83-.93 3.2-1.47 4.54a15.57 15.57 0 0 1-1.75 3.25 7.27 7.27 0 0 1-1.94 1.89c-.7.45-1.55.8-2.64 1.03-.68.16-3.39.53-5.38.97-4.2.89-8.13 2.24-11.77 3.67-1.82.72-3.6 1.45-5.31 2.18l-5.12 2.13-10.34 4.33a737.04 737.04 0 0 0-34.96 15.7l-4.35 2.05-4.28 2.2-8.57 4.4-4.28 2.2-4.2 2.2-8.43 4.4-17.19 8.81-4.36 2.22-2.19 1.11-.55.28-.24.1c-.1.07-.35.14-.52.22-.87.31-2.21.63-4.1 1.13-.9.24-1.98.58-3.1 1-.59.25-1.16.48-1.78.8-.3.16-.6.29-.92.48l-.46.28-.19.1.1-.04c-.04 0-.05-.02-.05-.05zM98.99 69.8l.37-.13c-.17.05-.29.07-.37.14zM69.33 116.58l-.18-.08c.08.1.14.1.18.08zM86.28 120.99l.15.18c-.06-.1-.12-.14-.15-.18z"/><path fill="#FFF" d="M83.33 105.93c.9-6.87 4.7-13.41 10.51-18.52a36.37 36.37 0 0 1 10.45-6.64 43.62 43.62 0 0 1 13-3.16c2.44-.23 4.92-.34 7.43-.4 1.24-.02 2.53-.07 3.75-.02l3.7.1 3.72.08c1.23.07 2.47.2 3.7.3 2.48.22 4.97.29 7.46.66l3.74.48c1.24.17 2.49.32 3.71.61 2.45.52 4.9 1.04 7.33 1.62 4.87 1.3 9.71 2.7 14.47 4.45 2.32.78 4.59 1.65 6.9 2.43 1.16.38 2.27.86 3.4 1.28 1.13.44 2.28.84 3.4 1.32l3.32 1.48 1.65.76 1.6.86c1.06.57 2.11 1.17 3.16 1.77 1.02.65 2 1.35 2.99 2.06a61.01 61.01 0 0 1 5.9 4.79c.23.2.64.53 1.22.94.3.2.54.44.85.67.33.23.6.5.87.76.62.5 1.03 1.1 1.5 1.57.33.52.65.94.84 1.15.18.18.2-.49.15-1.42-.12-.89-.42-2-.66-2.45-.6-1.54-1.88-3.4-3.36-5a41.46 41.46 0 0 0-4.06-3.97L203 92.05c-.88-.76-1.78-1.31-2.64-1.93-.88-.6-1.77-1.2-2.75-1.84-1-.61-2.13-1.2-3.42-1.92l-2-1.09c-.68-.35-1.37-.66-2.05-1-1.36-.64-2.72-1.32-4.1-1.93-2.76-1.18-5.5-2.4-8.3-3.46-2.78-1.14-5.6-2.1-8.4-3.2-2.82-.98-5.6-2.1-8.49-3.05-1.16-.41-2.33-.8-3.52-1.16-1.2-.35-2.38-.74-3.62-.97-2.46-.52-4.95-.99-7.45-1.43-2.52-.34-5.07-.58-7.6-.88l-1.89-.22-1.9-.11c-1.27-.08-2.53-.18-3.8-.28-1.35-.11-2.73-.28-4.07-.34l-4.05-.19c-2.72-.1-5.48-.12-8.28 0a55.2 55.2 0 0 0-17.05 3.2 53.13 53.13 0 0 0-16.68 9.84c-.65.5-1.2 1.13-1.8 1.73l-1.73 1.8a67.67 67.67 0 0 0-3.1 4L73 89.8c-.43.73-.9 1.45-1.22 2.24-.69 1.57-1.47 3.1-1.9 4.78a36.66 36.66 0 0 0-.64 20.17 40.43 40.43 0 0 0 9.68 17.33l.98 1.06.49.52.57.51 2.33 2 2.5 1.72c.42.3.85.55 1.29.78l1.3.7a50.12 50.12 0 0 0 10.5 3.99 91.31 91.31 0 0 0 12.98 2.42c4.42.47 8.86.57 13.24.36 8.77-.45 17.26-2.08 25.45-4.07l21.58-5.36a278.42 278.42 0 0 0 21.14-5.88c7.43-2.46 17.57-5.54 23.03-10.26 1.48-1.27 1.54-2.67 1.16-3.75.3.88-2.03 1.2-4.35 1.03-2.36-.1-4.86-.44-5.19-.44-3.94 0-8.09.72-12.13 1.11-7.83.77-15.03.86-23.03 2.75-4.2 1-8.35 2.06-12.5 3.16-4.1 1.11-8.11 2.22-12.12 3.2-8 2-15.93 3.54-23.81 3.89-3.34.13-6.66.07-9.96-.19l-2.46-.24c-.81-.1-1.62-.24-2.44-.35-.8-.1-1.65-.26-2.5-.42a50.9 50.9 0 0 1-2.49-.5 41.41 41.41 0 0 1-8.83-2.74l-1.83-.97c-.56-.36-1.08-.75-1.64-1.1-.54-.37-.96-.84-1.47-1.24l-.36-.3-.36-.4-.73-.82a23.99 23.99 0 0 1-5.11-8.73 22.42 22.42 0 0 1-.82-9.83zM436.47 248.14l-.42-.01c.19.01.3.05.42.01zM480.2 217.65l.14.14c-.03-.12-.08-.14-.13-.14zM466.5 207.12l-.06-.23c.01.11.04.18.06.23z"/><path fill="#FFF" d="M463.36 221c-3.13 5.02-9.63 8.99-16.9 12.17-1.83.85-3.6 1.45-5.39 2-1.77.49-3.52.77-5.32.83-3.55.1-7.42-.98-11.3-2.94-2.05-1-4.05-2.18-6.2-3.38-1.2-.62-2.42-1.26-3.64-1.86l-3.82-1.48a40.7 40.7 0 0 0-15.93-1.8c-1.32.1-2.6.28-3.89.4-1.28.14-2.53.37-3.79.54l-.94.14-1.04.21c-.7.15-1.4.29-2.06.5-1.37.39-2.7.9-3.97 1.49a25.33 25.33 0 0 0-7.04 4.8 20.1 20.1 0 0 0-4.92 7.5 15.83 15.83 0 0 0-.53 9c.4 1.65.69 2.44 1.02 3.5.25 1.02.54 2.05.7 3.1.8 4.17.6 8.56-.69 12.75a44.81 44.81 0 0 1-2.7 6.5c-.17.4-.51 1.45-.88 2.68l-1.17 3.8c-.15.52-.26 1-.33 1.37-.06.38-.03.52-.03.7 0 .14.15.04.36-.21.2-.25.6-.87 1-1.4.67-.76 1.34-1.5 1.63-1.88a50.59 50.59 0 0 0 3.45-4.77A32.36 32.36 0 0 0 373.6 264c.42-2.02.65-4.12.56-7.01-.01-.75-.07-1.5-.15-2.23l-.11-1.12-.18-1.1a23.7 23.7 0 0 0-.4-2.2c-.16-.7-.36-1.52-.43-2.02a10.3 10.3 0 0 1 .85-6.53c2.01-4 6.38-6.9 10.9-7.57.46-.05.9-.15 1.36-.2.45-.02.9-.06 1.35-.11 1.07-.05 2.15-.12 3.23-.2 2.14-.1 4.27-.24 6.35-.16 4.17.07 8.23.72 11.8 2.36.96.47 1.94.87 2.82 1.49.93.6 1.72 1.03 2.85 1.81 2.1 1.43 4.3 2.83 6.65 4.16a40.12 40.12 0 0 0 7.82 3.45c2.85.9 5.98 1.41 9.07 1.4 3.3 0 6.45-.5 9.41-1.17 1.51-.31 2.9-.75 4.35-1.14 1.39-.46 2.76-.86 4.14-1.4 1.38-.55 2.77-1.03 4.14-1.72l2.06-.97 2.02-1.15c1.36-.72 2.64-1.7 3.94-2.6.64-.48 1.25-1.04 1.87-1.56.62-.53 1.23-1.07 1.79-1.7l1.67-1.8a96.9 96.9 0 0 0 1.52-1.97c.51-.65.95-1.37 1.37-2.1.42-.72.9-1.41 1.23-2.18 1.53-3 2.44-6.24 3.03-9.44.94-6.43.22-12.58-1.1-18.24-1.53-6.48-3.77-12.55-6.05-18.37-2.9-7.35-6.1-14.19-8.52-20.98a84.93 84.93 0 0 1-2.93-10.15 61.74 61.74 0 0 1-1.18-10.31c-.24-6.46.63-12.88 1.88-19.18a284.34 284.34 0 0 1 4.68-18.9c.91-3.38 2.21-7.27 3.3-11.13 1.14-3.85 2-7.69 2.05-11.02 0-1.63-.95-2.65-1.96-3.18.83.44-.51 1.99-2.14 3.52-1.57 1.56-3.42 3.13-3.63 3.36-2.44 2.85-4.44 6.36-6.4 9.74-3.86 6.5-7.6 12.57-9.55 20.52-2.04 8.3-2.99 16.92-2.84 25.62.02 1.09.1 2.18.14 3.27l.09 1.63c.03.55.1 1.13.16 1.69.14 1.13.22 2.27.4 3.38l.58 3.34c.9 4.4 2.14 8.66 3.57 12.75 2.45 6.95 5.44 13.37 8.11 19.57 1.34 3.1 2.61 6.16 3.7 9.2 1.12 3.04 2 6.09 2.7 9.08.8 3.49 1.07 6.98.74 10.15a18.72 18.72 0 0 1-2.92 8.32zM394.38 86.31l-.3-.1c.14.06.21.11.3.1zM413.63 114.21l-.11-.14c.02.1.06.13.11.14zM419.1 130.82l-.24.28c.13-.12.2-.2.24-.28z"/><path fill="#FFF" d="M430.44 108.6c.5-3.13.45-6.87-.74-10.42-.32-.89-.6-1.78-1.05-2.6l-.64-1.25c-.23-.41-.5-.78-.75-1.17-.25-.38-.5-.77-.78-1.13l-.87-1.03-.44-.51c-.15-.17-.3-.35-.4-.44l-.71-.67-2.85-2.64c-.94-.88-2.04-1.62-3.05-2.42-2.01-1.63-4.29-2.92-6.5-4.24-1.14-.67-2.37-1.18-3.56-1.76l-1.79-.84c-.6-.27-1.23-.47-1.84-.7l-3.7-1.34-3.76-1.02c-.63-.17-1.25-.35-1.88-.5l-1.9-.36c-1.26-.24-2.52-.52-3.78-.74l-3.8-.51c-.63-.09-1.27-.2-1.89-.27l-1.83-.17-7.75-.81c-1.28-.18-2.59-.18-3.88-.25l-3.89-.16-3.88-.14c-1.3-.02-2.6.07-3.9.1-2.6.12-5.19.22-7.78.44-5.2.76-10.32 1.1-15.44 2.01-5.11.86-10.2 1.97-15.28 3.53a69.6 69.6 0 0 0-14 6.21 171.68 171.68 0 0 0-12.84 8.3 91.64 91.64 0 0 0-6.58 4.9c-.5.45-1.9 1.94-3.06 3.62l-.88 1.22-.95 1.39c-.17.25-.44.84-.48 1.06-.05.2-.12.46-.12.6-.05.34-.04.56-.04.74.01.34.05.43.1.47.03.04.12.07.27-.06.17-.16.27-.57.76-1.55.1-.19.2-.37.33-.54.11-.14.12-.11.19-.18l.04-.03.14-.16v-.01l.03-.01.09-.06.18-.11.69-.44 1.05-.68c1.47-1.03 3.43-2.2 5.23-3.34l4.77-2.8c2.34-1.46 4.15-2.36 5.9-3.34.9-.46 1.8-.93 2.76-1.46l3.28-1.66a77.2 77.2 0 0 1 32.52-8.17l1.7-.06 1.74-.01a102.8 102.8 0 0 0 6.93-.3l1.74-.13 1.75-.01 7-.07c.58 0 1.16-.03 1.75 0l1.74.14c1.15.09 2.3.2 3.45.31 4.98.39 9.87 1.51 14.77 2.33a86.28 86.28 0 0 1 13.32 4.02 46.12 46.12 0 0 1 12.36 7.63l2.7 2.46c.86.86 1.67 1.79 2.52 2.66.4.42.95.96 1.05 1.17.1.14.23.27.32.4.08.15.16.29.25.42.1.13.16.27.22.41l.2.42c.07.3.25.56.29.9.2.58.21 1.32.25 2.08l-.05.6c-.02.22 0 .38-.06.68l-.25 1.64a28.74 28.74 0 0 1-1.85 6.15 26.06 26.06 0 0 1-8.13 10.04c-4.21 3.23-9.54 5.63-14.98 7.34a83.53 83.53 0 0 1-21.6 3.53c-1.88.02-3.74.13-5.63.04l-2.83-.06-2.82-.19c-3.77-.19-7.51-.71-11.23-1.3-6.74-1.13-13.15-3.3-19.38-5.78-6.25-2.44-12.24-5.55-18.4-8.5l-2.64-1.33-2.96-1.48c-1.07-.49-2.16-.99-3.3-1.46-1.2-.44-2.33-.91-3.59-1.27l-1.89-.5-.93-.22-1.07-.18c-.72-.12-1.42-.2-2.11-.29-.33-.03-.72-.08-1-.08l-.77.04a36.07 36.07 0 0 0-2.24.2h-.05c.06.02-.62-.07-.33-.03v.03c0 .03.02-.02 0 .12-.03.2-.07.42-.12.62-.14.67-.32.98-.28.91v.02l.08-.14c.06-.09.12-.17.19-.24l.11-.12c.13-.15.04-.06.04-.07l-.12.08c-.4.11-1.09.04-1.7.11-.63.08-1.2.32-1.68.64.39-.28.78.14 1.09.72.32.58.48 1.22 1.18 1.84.15.18.38.27.59.42l.77.44 1.35.8c.83.47 1.38.92 1.51 1.01a73.8 73.8 0 0 1 9.5 6.4 227.2 227.2 0 0 1 4.3 3.67l2.22 1.85c.75.6 1.52 1.17 2.29 1.75 1.56 1.13 3.1 2.34 4.82 3.35 1.71 1.01 3.5 2 5.42 2.92 8.1 3.68 16.69 6.3 25.47 7.9 2.18.48 4.4.7 6.61 1.02 1.11.13 2.21.32 3.33.4l3.34.25 3.34.25c1.12.05 2.24.06 3.35.1 2.23.09 4.5 0 6.76-.03a88.33 88.33 0 0 0 23.13-3.68c1.89-.6 3.8-1.16 5.63-1.94l2.78-1.1c.92-.38 1.82-.82 2.73-1.23 3.62-1.73 7.2-3.8 10.58-6.38a49.12 49.12 0 0 0 5.81-5.2 40.67 40.67 0 0 0 4.95-6.44 40.58 40.58 0 0 0 5.6-15.3zM31.07 178.47l.05-.36c-.03.16-.07.26-.05.35zM28.75 230.11l-.18-.09c.07.1.13.1.18.09zM44.93 236.01l.1.13a.34.34 0 0 0-.1-.13z"/><path fill="#FFF" d="M43.14 219.59c.1-2.36.22-4.79.23-7.1 0-2.3-.02-4.6-.08-6.89-.05-2.3-.07-4.46-.16-6.7L43 195.6l-.02-3.22-.05-3.33-.04-1.67.04-1.7c.05-2.27.16-4.54.3-6.81.18-2.3.42-4.6.65-7.13.05-.64.12-1.26.16-1.91l.1-1.98c.06-1.31.03-2.65.03-3.95-.08-1.35-.08-2.75-.23-4.04l-.39-3.92c-.1-1.31-.36-2.59-.54-3.88-.2-1.29-.37-2.59-.65-3.85a107.63 107.63 0 0 0-4.05-14.95c-1.76-4.86-3.46-9.61-5.2-14.32-.47-1.2-.77-2.29-1.14-3.43l-1.07-3.4c-.6-2.3-1.03-4.66-1.56-7-.27-2.3-.7-4.58-1.03-6.87l-.35-3.47c-.1-1.15-.3-2.3-.29-3.47-.2-4.66-.06-9.37.91-14 .27-1.22.56-2.44.85-3.66.26-1.22.71-2.4 1.05-3.61.09-.3.19-.91.28-1.68l.32-2.9c.03-.6.03-.87-.02-.95v-.01c-.05-.03-.16-.06-.23-.08a3.9 3.9 0 0 1-.44-.2l-.33-.16c-.1-.05-.19-.1-.27-.17a1.21 1.21 0 0 1-.28-.22c-.02 0-.08-.1-.06-.08l.05.1c.04.1.05.17.06.26.09.33.05.5.07.93V65c-.01.03 0 0-.01 0v-.02c0-.03.03-.03.05-.04a.73.73 0 0 0 .1-.06c.06-.04.05-.13-.04-.27-.07-.08-.07-.12-.11-.21 0 .04 0-.23-.05-.42-.03-.16-.04-.23-.1-.35-.01-.08-.08-.07.23.18.1.06-.03 0-.05.03-.05.03-.1.05-.15.12-.21.22-.39.62-.5.86-.37.93-.81 1.76-1.24 2.7l-1.32 2.9-.63 1.44c-.19.48-.34.95-.5 1.4-.3.88-.57 1.7-.76 2.35-.37 1.35-.76 2.5-1 3.6a132.63 132.63 0 0 0-1.16 6.3c-.1 1.14-.18 2.37-.27 3.81-.27 2.98-.1 5.94-.06 8.9l.03 1.11.1 1.1.23 2.22.2 2.2c.08.74.13 1.49.28 2.21l.75 4.39c.13.73.22 1.47.39 2.2l.52 2.16 1.02 4.38 1.02 4.17c2.1 8.96 5.44 17.86 6.49 26.84.19 2.42.47 4.84.46 7.25.08 2.42.08 4.78-.15 6.93-.06 1.1-.27 2.17-.42 3.24-.23 1.13-.43 2.2-.7 3.45l-.77 3.74c-.25 1.27-.46 2.6-.66 3.9-.24 1.4-.4 2.8-.62 4.18-.23 1.39-.38 2.81-.53 4.24l-.48 4.28c-.16 1.42-.35 2.86-.4 4.24-.18 2.78-.37 5.6-.49 8.35-.1 2.72-.17 5.43-.18 8.15l-.16 7.8-.03 2.25a38.22 38.22 0 0 0 .65 7.3 56.19 56.19 0 0 0 2.43 8.86 22.17 22.17 0 0 0 6.32 9.58 20.4 20.4 0 0 0 5.94 3.56c2.07.82 4.1 1.3 6.05 1.6 1.95.3 3.8.4 5.61.45l1.35.01 1.4-.04a29.1 29.1 0 0 0 2.76-.19c4.59-.44 8.78-1.49 12.62-2.47l2.81-.7 2.79-.68 5.77-1.4 11.55-2.78c3.82-.88 7.63-1.7 11.45-2.51 1.54-.33 3.08-.63 4.62-.93l2.3-.43c.76-.14 1.6-.31 2.12-.32l1.79-.16 1.8.06c.3.02.6 0 .9.04l.9.13c.58.1 1.18.13 1.75.28l1.69.44 1.32.31c.61.13 1.3.3 1.86.36l1.67.14.1.01h.01v.01l.02.01v.02c.02.03.03.05.03.08 0 .1-.09.15-.05.13h.03l.02.01v.1l-.02.15-.1.55c-.58 3.55-1.54 7.94-2.06 12.37a45.23 45.23 0 0 0-.34 6.64 22 22 0 0 0 1.09 6.52 5.83 5.83 0 0 0 .76 1.5c.3.45.66.6.98.77.69.27 1.34.21 1.9.05-.45.12-.9-.36-.89-1.48 0-1.05.4-2.18.89-3.25 1-2.15 2.44-4.12 2.57-4.41 1.77-3.38 3.15-7.18 4.75-10.8l2.22-4.98.27-.63c.1-.23.18-.35.29-.7.2-.6.42-1.18.62-1.88.44-1.34.77-2.73.98-4.15.39-3.02-.14-6.15-2.22-8.57a9.32 9.32 0 0 0-6.08-3.12l-1.3-.07c-.45-.02-.86-.09-1.38 0l-1.48.17-.75.09c-.17.01-.18-.01-.28-.01-.3-.04-.72-.02-.86-.13-.27-.09-.2-.06-1.02-.26l-1.9-.44c-.65-.13-1.28-.31-1.92-.39l-1.93-.21-1.93-.19h-1.94l-1.95.03c-.64.03-1.3.13-1.94.2l-1.94.25c-.35.04-.6.1-.86.14l-.77.16-6.2 1.28-12.39 2.67-12.19 2.9-5.19 1.24c-1.66.4-3.65.88-5.33 1.33-3.5.92-6.72 1.79-9.72 2.3a33.56 33.56 0 0 1-8.62.35 14.2 14.2 0 0 1-3.43-.73 6.22 6.22 0 0 1-2.13-1.25 6.7 6.7 0 0 1-1.6-2.57 42.66 42.66 0 0 1-1.43-5.07 30.38 30.38 0 0 1-.65-5.12l-.01-1.22.06-1.2.17-3.32z"/><g><path fill="#FFF" d="M278.92 208.88l.2-.03c-.1 0-.15-.02-.2.03zM249.44 187.39l.14-.15c-.12.04-.15.1-.14.15zM248.17 204.05v0z"/><path fill="#FFF" d="M248.69 204.49l.25.41.67 1.04 1.47 2.3c1 1.56 2.18 3.28 3.56 5a29.4 29.4 0 0 0 5.23 5.18 18.92 18.92 0 0 0 10.24 3.8c.74 0 1.47-.04 2.2-.08l.54-.03c.17-.02.41-.03.47-.05l.6-.1.58-.11.68-.1c1.8-.26 3.98-.45 6.43-1.04.64-.17 1.25-.32 1.88-.53.65-.25 1.3-.5 1.93-.77.65-.34 1.28-.7 1.9-1.05.55-.38 1.03-.77 1.54-1.16l.75-.58.7-.67c.45-.46.93-.88 1.34-1.37l1.2-1.51c.4-.5.7-1.07 1.04-1.6a20.59 20.59 0 0 0 2.65-7.38c.38-2.52.35-5.01 0-7.43-.38-2.4-1.1-4.72-2.1-6.91l-.8-1.62c-.3-.52-.63-1.04-.95-1.55-.3-.52-.7-1-1.06-1.48l-.56-.72-.5-.59a142.65 142.65 0 0 1-13.96-19.3 93.22 93.22 0 0 0-3.12-4.84l-3.09-4.84c-1.07-1.6-1.96-3.29-2.85-4.98-.88-1.7-1.76-3.4-2.35-5.23-.66-1.93-1.3-3.85-1.86-5.8-.25-.96-2.74-5.4-3.45-6.21-.33-.38-.23 2.72-.19 3.6.08 1.41.18 3.23.41 4.95a55.13 55.13 0 0 0 1.63 7.31 67 67 0 0 0 2.97 7.64c4.06 8.62 8.94 16.49 13.35 24.86.88 1.71 1.9 3.35 3 4.94.54.8 1.1 1.6 1.66 2.38.56.78 1.2 1.64 1.55 2.17a15.69 15.69 0 0 1 2 4.02c.29.7.41 1.46.6 2.18.08.74.21 1.48.18 2.2 0 1.57-.22 3.1-.73 4.38a9.72 9.72 0 0 1-1.98 3.23c-.23.2-.44.39-.64.6-.21.19-.49.32-.7.5-.21.2-.5.32-.76.45-.25.12-.55.37-.7.36-.65.25-1.7.45-3.36.53-.45.02-.88.05-1.42.04h-1.6l-.87-.01h-.95l-.48.01h-.24l-.11-.01a5.54 5.54 0 0 0-.38-.05 4.37 4.37 0 0 1-2.5-1.07c-.84-.65-1.81-1.84-2.82-3.28-1.01-1.45-2.06-3.16-3.25-5-.6-.94-1.2-1.87-1.88-2.87l-.25-.36c-.1-.14-.13-.21-.31-.45l-.91-1.21c-.6-.82-1.2-1.64-1.88-2.34-2.6-3.05-5.66-5.02-9.28-5.13-3.71-.06-6.62 1.8-9.2 4.87-.65.74-1.29 1.49-1.92 2.25l-1.24 1.45c-.68.8-1.36 1.56-2.04 2.3-3.17 3.45-6.6 6.52-9.89 8.1-.25.11-.5.25-.76.36l-.73.27c-.32.14-.29.1-.4.13l-.2.05a.95.95 0 0 1-.61-.11 1.16 1.16 0 0 1-.43-.47c-.02-.01-.14-.25-.24-.44-.09-.21-.2-.41-.28-.66-.2-.46-.36-.99-.51-1.54a22 22 0 0 1-.72-7.02c0-.2.08-.58.13-.9l.17-.99c.12-.66.19-1.32.34-1.98l.53-1.98c.17-.66.33-1.32.6-1.98 1.6-4.79 4.35-9.34 7.28-14.1l4.39-7.25c1.42-2.33 2.7-4.7 4.14-7.17l2.35-4.2c.84-1.48 1.69-3.04 2.45-4.61 1.5-3.13 2.7-6.48 2.83-9.45.06-1.45-.83-2.47-1.8-3.08 1.58 1.01-5.36 4.63-5.77 4.93-2.53 1.9-4.72 4.38-7.05 6.62-2.22 2.22-4.52 4.2-6.65 6.42a67.7 67.7 0 0 0-4.59 5.43c-.47.64-.9 1.28-1.32 1.95-1.78 2.8-3.57 5.79-5.26 8.9a72.1 72.1 0 0 0-4.51 10.08c-.69 1.76-1.17 3.66-1.66 5.55-.28.92-.42 1.91-.59 2.89l-.48 2.93c-.27 2.42-.22 4.5-.04 6.61.2 2.1.54 4.18 1.12 6.31.5 1.83 1.16 3.67 2.2 5.63a19.86 19.86 0 0 0 2.33 3.4 14.56 14.56 0 0 0 6.75 4.5c1.31.37 2.67.56 4.04.57 1.35-.02 2.77-.2 4.04-.57.65-.18 1.3-.37 1.93-.59.35-.11.5-.2.75-.29l.69-.29a36.51 36.51 0 0 0 9.1-5.77 79.22 79.22 0 0 0 6.94-6.65l1.86-2.02c.56-.6 1.46-1.62 1.26-1.36.1-.05.16-.06.23-.04.14.08.12.32.08.34z"/></g><g><path fill="#FFF" d="M395.42 293.78l.05-.12c-.03.05-.06.07-.05.12zM387.25 309.89l-.09-.08c.02.04.06.06.1.08zM395.1 317.85l-.03.1a.2.2 0 0 0 .03-.1z"/><path fill="#FFF" d="M398.8 311.46a47.2 47.2 0 0 0 3.69-9.22c.44-1.6.82-3.25 1.26-4.88a26.88 26.88 0 0 1 1.76-4.75c1.6-3.22 3.4-6.3 4.79-9.7a64.7 64.7 0 0 1 2.33-4.93l2.6-4.83c.42-.79.78-1.6 1.13-2.42.32-.84.6-1.7.9-2.54.6-1.69 1.24-3.35 2.05-4.96.45-.85.96-1.67 1.43-2.51.1-.17.17-.57.28-1.18.07-.58.11-1.28.06-1.78-.07-.47-.17-.8-.24-.96-.12-.24-.94 1.1-1.3 1.52-.1.16-.23.34-.4.56-.96.9-2.12 2.09-2.64 2.8a53.4 53.4 0 0 0-1.44 2.02c-.43.6-.83 1.23-1.32 2.1-.5.92-1.01 1.82-1.51 2.71-.53.89-1.08 1.76-1.64 2.62a37.53 37.53 0 0 1-3.72 4.97c-2.26 2.56-3.52 5.86-5.48 8.68-1.07 1.52-2.2 3-3.27 4.56a34.94 34.94 0 0 0-2.92 4.83c-1.79 3.67-4.06 6.88-5.73 10.45-1.64 3.52-3.13 7.08-4.85 10.6-.98 2.11-2.04 4.13-3.02 6.37a100.3 100.3 0 0 0-1.68 3.86l-.17.36-.07.12a.89.89 0 0 1-.18.22.64.64 0 0 1-.56.11c-.17-.05.06.06-.64-.25l-.83-.4-1-.5a38.1 38.1 0 0 0-2.15-1l-2.02-.84a62.1 62.1 0 0 1-3.4-1.48 14.9 14.9 0 0 1-2.24-1.3c-.53-.4-.8-.65-1.1-.9a.86.86 0 0 1-.23-.25l-.14-.15-.16-.28c-.23-.36-.6-1.14-1.02-1.87-.25-.42-.5-.83-.8-1.24-.34-.46-.63-.83-1.05-1.26a6.75 6.75 0 0 0-3.03-1.85c-1.19-.27-1.9.45-2.34 1.17.18-.3.44-.2.7.1.12.16.26.36.34.6.07.24.12.5.15.77.1 1.07-.3 2.08-.31 2.21a22.86 22.86 0 0 0-.15 4.57 11.06 11.06 0 0 0 5.74 9.25c1.69.92 3.27 1.52 4.67 2.04 1.39.52 2.59.96 3.49 1.41.53.27 1.17.6 2 1 .44.2.77.37 1.38.6.71.29 1.43.52 2.13.68a10.63 10.63 0 0 0 5.3.02l1.04-.27c.35-.08.65-.3.97-.45.31-.16.65-.3.93-.52 2.07-1.24 3.61-3.39 4.6-5.57.37-.8.63-1.52.87-2.17l.67-1.67c.47-1.11.85-2.2 1.4-3.34l1.6-3.38c1.38-2.72 3.02-5.47 4.5-8.28z"/></g><g><path fill="#FFF" d="M343.47 333.06l.04-.03c-.02 0-.04 0-.04.03zM335.57 334.52l.01-.12a.4.4 0 0 0-.01.12zM331.74 344.57l-.12-.03.12.03z"/><path fill="#FFF" d="M338.1 345.46c2.31-.1 4.75-.73 6.98-2.12 2.3-1.44 4.2-3.6 5.96-5.57a13.42 13.42 0 0 0 3.55-7.17c.32-2.53.66-4.78.85-7.12.13-.95-.05-1.82-.01-2.68 0-.22-.02-.45 0-.66a9.28 9.28 0 0 1 .32-1.2c.07-.19.17-.28.28-.4.25-.24.46-.46.82-.51.04-.01.07-.08.1-.18.03-.1.05-.22.18-.45.2-.4.36-.85.37-1.05.01-.18-1.06-.22-1.35-.23-.5.01-1-.03-1.6.06-.32.01-.52.14-.71.26-.2.12-.36.24-.5.35l-.69.65c-.2.2-.33.4-.48.6-.26.42-.56.85-.77 1.49-.2.65-.45 1.33-.58 1.99-.13.64-.28 1.37-.42 1.95-.15.56-.3 1.13-.51 1.68-.24.53-.5 1.06-.81 1.56-.29.38-.48.77-.63 1.18-.16.4-.32.76-.43 1.16a5.25 5.25 0 0 1-1.06 2c-.26.3-.6.49-.88.72l-.94.5c-.64.27-1.21.51-1.83.84-1.32.74-3.18.58-5.04.87-.45.09-.93.17-1.42.22-.46.06-1.08.15-1.32.17-.64.06-.85.04-1-.04-.16-.05-.6-.5-.98-1.24-1-1.86-2.23-4.84-3.33-8.18-.26-.77-.46-1.57-.68-2.4-.05-.31-.35-1.1-.59-1.77l-.37-1.04-.45-1-.46-1c-.17-.34-.37-.62-.56-.93-.38-.6-.77-1.23-1.2-1.77-.44-.57-.87-1.11-1.34-1.67l-.7-.81-.18-.2c-.06-.07-.16.03-.24.04l-.49.19c-1.38.54-3 1.12-4.5 1.93-1.48.8-2.81 1.83-3.4 3.2-.28.67-.04 1.62.26 2.42-.26-.65.42-.49 1.04-.11.64.36 1.15.98 1.2 1.03.76.6 1.35.77 1.76 1.22.36.48.63.9.44 1.91-.1.82-.33 1.36-.4 1.59-.06.24-.13.38-.17.48-.04-.05.04.2.1.39l.17.55.37 1.17a112.5 112.5 0 0 0 1.85 5.19c.62 1.6 1.38 3.28 2.52 5.06.26.44.6.9.95 1.34.31.44.73.9 1.14 1.35.38.44.95.9 1.43 1.32.57.42 1.14.86 1.8 1.2a13.58 13.58 0 0 0 3.68 1.35c.42.1.78.13 1.17.2.4.06.75.07 1.1.1l.99.04c.54 0 1.1 0 1.64-.02z"/></g><g><path fill="#FFF" d="M306.19 334.97v-.01s-.01-.02 0 0zM303.89 334.83l.06-.1-.06.1zM296.34 342.33l-.06-.04a.1.1 0 0 0 .06.04z"/><path fill="#FFF" d="M302.56 345.72c.7.06 1.62-.04 2.39-.2H302a15.32 15.32 0 0 0 5 .37l.39-.04.19-.03.2-.09c.27-.11.54-.24.8-.38a9.02 9.02 0 0 0 2.96-2.83c.76-1.11 1.31-2.22 1.96-3.3a17.7 17.7 0 0 0 2.15-4.87c.09-.4.2-.77.33-1.1.16-.42.36-.9.55-1.32.37-.87.75-1.73 1.06-2.62.61-1.75.04-3.61.56-5.3.12-.45.32-.9.46-1.38.08-.24-.59-1.4-.89-1.6-.14-.09-.84.58-1.02.76-.6.6-1.45 1.4-1.72 1.81-.6.82-.83 1.19-1.15 2-.63 1.66-1.36 3.3-2.91 4.23a2.63 2.63 0 0 0-.82.77c-.25.34-.46.71-.64 1.05-.37.7-.67 1.39-1.16 1.9-.27.3-.55.54-.82.78l-.42.33-.2.15c-.05.03-.08.01-.11.02-.3.03-.5.02-.61.14-.14.14-.32.08-.54-.1-.3-.2-.5-.4-.75-.42h-.1l-1.74 3.42a.65.65 0 0 1-.03-.19c0-.06.02-.05 0-.25.01-.15.03-.29.07-.42.01-.08.04-.1.06-.22l.08-.33c.12-.45.3-.76.56-1.4l.2-.39v.02c.01.02-.02 0-.05 0-.2-.04-.65-.34-1.07-.77a13.27 13.27 0 0 1-1.58-1.99c-.33-.48-.68-.98-1.07-1.49-.39-.5-.88-1.11-1.38-1.62l-2.98-3.15c-.87-.86-1.58-1.93-2.27-2.91a7.98 7.98 0 0 0-2.17-2.37c-.85-.66-1.81-1.63-4.2-.92-.58.17-1.4.72-2.07 1.25 1.1-.89-.3 1.96-.31 2.15-.23 1-.04 1.75 0 2.64l.01 1.32c.02.42.03.84.06 1.25.07.81.23 1.57.62 2.17a16.55 16.55 0 0 0 1.24 1.67c.4.5.84.96 1.28 1.41.49.45.82.89 1.23 1.31l1.2 1.29c.35.38.64.7 1 1.16l1.16 1.38c.82.97 1.69 1.98 2.73 3.07.6.65 1.31 1.39 2.27 2.16l.8.58c.34.2.68.4 1.03.58.39.2.9.38 1.35.53a10.47 10.47 0 0 0 1.77.33z"/></g><g><path fill="#FFF" d="M257.24 328.95l.06.08c-.02-.04-.02-.08-.06-.08zM243.33 316.22l.01-.16a.22.22 0 0 0-.01.16zM245.85 331.2V331.22z"/><path fill="#FFF" d="M246.16 331.73c0 .18 0-.48.64-.46.05 0 .1.01.14 0l.06-.02.24.3c.31.41.65.78.98 1.15a32.1 32.1 0 0 0 2.07 2.08c1.4 1.3 2.8 2.49 4.15 3.75.7.68 1.43 1.32 2.18 1.95.43.34.94.71 1.41 1.05.53.3 1.07.62 1.62.88a11.4 11.4 0 0 0 7.05.68c.55-.1 1.06-.24 1.57-.4.25-.07.5-.13.76-.22l.82-.31c.55-.2 1.1-.42 1.57-.72.48-.28 1.02-.52 1.44-.86a18.36 18.36 0 0 0 4.52-4.44 18.52 18.52 0 0 0 2.43-5.06 12.76 12.76 0 0 1 2.28-4.16c.28-.3.56-.6.87-.84l.9-.7c.14-.11.43-.54.7-1.06.3-.42.61-.91.69-1.15.09-.22-1.2-.21-1.62-.16a9.38 9.38 0 0 0-3.91 1.75 13.52 13.52 0 0 0-3.36 3.84c-.28.46-.55.91-.81 1.37l-.4.68-.37.6c-.23.4-.5.78-.78 1.15-.27.37-.56.72-.88 1.04-1.22 1.32-2.73 2.32-4.23 2.56-.6.15-1.1.13-1.65.26-.33.02-.66.08-.98.12l-.9.08c-1.17.05-2.12-.13-2.87-.75-.2-.17-.4-.33-.59-.57l-.27-.31-.38-.45c-.52-.62-1-1.27-1.49-1.91-.95-1.3-1.83-2.6-2.7-3.83-.47-.65-.88-1.33-1.18-2.02l-.23-.5c-.1-.21-.2-.41-.26-.65l-.37-1.38-.2-.7-.1-.83-.17-1.72-.05-.43-.13-.3-.29-.57-.56-1.15-.5-.93-.25-.47c-.08-.15-.16-.16-.25-.24l-.5-.4c-.19-.13-.24-.2-.36-.3l-.16-.14c-.05-.04-.09-.08-.24-.15l-.74-.38a7.24 7.24 0 0 0-3.9-.59c-1.33.18-2.42.65-3.44 1.34a12.1 12.1 0 0 0-2.87 2.8 25.1 25.1 0 0 0-2.46 4.14c-.44.9-.84 1.82-1.25 2.76l-.98 2.31c-.43.98-.87 1.96-1.29 2.7-.27.49-.47.78-.65.94-.16.28-.33.31-.43.47-.23.12-.56.3-1.35.42-.74.13-2.02.08-3.16.03l-.6-.06-.26-.03-.07-.01a.83.83 0 0 1-.29-.1c-.16-.1-.19-.33-.1-.5.04-.09.1-.16.16-.22.06-.32.13-.93.18-1.65.11-1.43.12-3.15-.2-4.97-.21-.91-.41-1.81-.82-2.76-.18-.49-.38-.88-.58-1.27-.21-.4-.42-.8-.66-1.13a17.56 17.56 0 0 0-4.4-4.91l-.75-.51c-.11-.07-.26-.17-.35-.21l-.28-.1a9.13 9.13 0 0 0-.55-.18 6.1 6.1 0 0 0-2.89-.7c-.37 0-.76.01-1.1.07-.15.03-.34.06-.41.13a2.95 2.95 0 0 0-.51.77c-.19.4-.3.84-.37 1.26.05-.34.25-.4.52-.27.11.05.4.23.6.4.22.17.37.4.51.63.57.93.54 2.02.6 2.15.14.37.21.73.31 1.05l.3.98a10.43 10.43 0 0 1 .56 5.52c-.2.93-.47 1.77-.56 2.77l-.16 1.82-.04.59-.04.66c-.02.16 0 .61 0 .94l.03 1.06a10.92 10.92 0 0 0 1.55 4.91c.19.29.37.58.59.85.48.48.93 1.03 1.52 1.4l.85.6c.28.2.61.32.92.48.32.15.64.3.96.43.33.14.69.2 1.03.3l1.03.27c.35.1.7.2.95.22l1.63.2.41.04.33.02.64.03c.43.02.83.05 1.32.04h1.42l1.58-.14c.42-.02.97-.16 1.45-.25.5-.11.97-.2 1.51-.41.53-.2 1.05-.4 1.56-.62.5-.28 1.01-.58 1.5-.9.52-.3.93-.68 1.36-1.07.4-.38.87-.78 1.18-1.2.63-.81 1.32-1.7 1.74-2.52.83-1.56 1.31-2.8 1.83-4.03l.37-.9.05-.12a.64.64 0 0 1 .07-.1c.12-.17.31.09.29.28z"/></g><g><path fill="#FFF" d="M195.87 319.4l.05.1c-.02-.05-.01-.09-.05-.1zM176.3 316.24l-.07-.11c0 .06.03.09.06.11zM183.13 324.9l-.04.1a.19.19 0 0 0 .04-.1z"/><path fill="#FFF" d="M185.33 323c.22-.1.5-.2.49-.23v-.02l.1-.03.5-.1 1.22-.2.55-.1.08-.03c3.86 2.03-5.25-2.77-4.3-2.28v.01l.02.02.03.03.07.07.27.26c.36.35.74.69 1.12 1.02.35.34.38.22.5.25.05.01.09-.01.23.18l.36.41 1.44 1.67a25.8 25.8 0 0 1 2.6 3.6l1.72 3.02c.29.54.64 1.06.9 1.73l.81 2.03c.84.43 1.53.82 2.03 1.18.16.08.17.2.42.24l.7.13.7.13c.22.04.43-.05.65-.08.97-.21 1.94-.7 2.85-1.19.92-.49 1.78-1.05 2.56-1.72a14.28 14.28 0 0 0 3.62-5.32l.3-.76.2-.57.32-1.08.26-1.03.1-.43.11-.38a5.92 5.92 0 0 1 2.05-2.92 4.3 4.3 0 0 1 1.53-.65c.11-.03.32-.3.52-.54.2-.26.45-.48.56-.63.05-.06-.04-.29-.24-.5-.2-.22-.5-.39-.65-.45a3.9 3.9 0 0 0-1.88-.24c-.7.06-1.38.27-1.79.47a8.45 8.45 0 0 0-3.51 2.97c-.3.4-.56.84-.8 1.33l-.61 1.26c-.37.77-.8 1.71-1.07 2.08-.61.93-1.38 1.67-2.27 1.6-.63-.04-1.1.01-1.6.17-.63.06-.68-.63-.91-1.15a3.63 3.63 0 0 1-.2-.85l-.1-.56-.07-.5v-.07l-.05-.13-.1-.27-.18-.54a33.2 33.2 0 0 0-1.77-4.26c-.18-.34-.35-.7-.52-1.05l-.6-1.31c-.13-.34-.37-.6-.56-.9l-.21-.33-.16-.24-.62-1-.31-.5-.08-.13v-.01h-.01l-3.97-2.1h-.07l-.1-.01-.4-.03a31.23 31.23 0 0 0-2.77-.05 13.65 13.65 0 0 0-1.88.22c-.4.1-.75.18-1.07.3a14.2 14.2 0 0 0-6.3 4.33c-.8.95-1.5 2-2.1 3.19a19.4 19.4 0 0 1-.97 1.87 12.17 12.17 0 0 1-2.73 3.29 7.94 7.94 0 0 1-3.74 1.74c-1.44.27-3.34.17-5.34-.29l-.33-.08-.1-.03a.22.22 0 0 1-.09-.08c-.13-.1.13-.02.26-.01.02-.08.03-.17.06-.24 0-.02.02-.03.03-.04l-.07-.25-.18-.58c-.4-1.44-.6-3-1.16-4.93-.29-1.06-.54-2.2-.98-3.32a9.08 9.08 0 0 0-.85-1.66c-.19-.4-.37-.2-.59-.49-.2-.3-.45-.61-.74-.95-.57-.82-1.61-.79-2.48-.67.77-.15.46.86-.15 1.46-.6.6-1.28 1.37-1.35 1.46-.75 1.2-.97 2.53-1.35 3.84-.36 1.28-.8 2.47-1.07 3.8a9.44 9.44 0 0 0 0 4.24c.2.8.47 1.6.74 2.31l.23.56.12.29.2.4a20 20 0 0 0 .88 1.6l.5.77.26.39c.1.12.12.28.31.35l1.88 1.14c.62.35 1.1.63 1.67.91l.9.23.8.2c2.87.65 6.1 1.07 9.72.52a17.38 17.38 0 0 0 8.6-3.96 26.89 26.89 0 0 0 5.35-6.49c.41-.65.8-1.32 1.18-1.97l.26-.45.1-.12.25-.28c.37-.38.9-.72 1.3-.9z"/></g><g><path fill="#FFF" d="M130.82 322.44l.09.08c-.04-.04-.05-.08-.09-.08zM120.08 308.85l.12-.04a.16.16 0 0 0-.12.04zM109.23 311.73l-.07-.08a.2.2 0 0 0 .07.08z"/><path fill="#FFF" d="M113.41 318.41c.54.77 1.02 1.34 1.55 1.98a42.56 42.56 0 0 0 5.35 5.41c.69.59 1.43 1.15 2.15 1.71.77.56 1.5 1.11 2.28 1.66.8.54 1.53 1.1 2.36 1.63l1.27.9 1.24.76 1.33.87.96.62.91-.01c.34 0 .68-.02 1.01-.04.36-.03.78-.12 1.16-.2a8 8 0 0 0 1.26-.5c.38-.23.81-.49 1.1-.77 1.3-1.18 1.74-2.22 2.15-3.07a18.18 18.18 0 0 0 1.24-5.2l.18-1.12c.09-.35.2-.67.3-1 .28-.7.64-1.44 1.08-2.24.43-.81.92-1.67 1.36-2.69.1-.25.23-.48.32-.75l.27-.85.12-.39.07-.33c.09-.44.1-.9.14-1.42.05-.5.1-1.1.41-1.55.32-.46.88-.57 1.36-.45.5.1.97.42 1.38.82.42.46.8.94 1.13 1.34.04.05.15.1.3.14l.94.39c.69.27 1.45.48 1.72.49.25 0-.54-1.38-.73-1.76l-.55-1a15.59 15.59 0 0 0-2.08-2.98c-.42-.47-.83-.8-1.2-1.14-.41-.27-.77-.56-1.18-.73-.4-.18-.82-.36-1.3-.43-.46-.1-1-.08-1.57.09-.6.18-1.08.59-1.45 1.03-.37.44-.67.93-.9 1.47-.51 1.04-.82 2.28-1.14 3.63-.06.33-.18.68-.29 1.03l-.08.27-.07.15-.12.26c-.15.36-.47.74-.69 1.1-.52.73-1.19 1.5-1.92 2.33-.3.36-.6.77-.87 1.17-.27.4-.51.94-.75 1.42-.26.5-.38.98-.55 1.49l-.22.74-.15.65c-.22.91-.38 1.57-.59 2.18l-.33.75c-.07.13-.16.25-.24.38l-.2.22c-.05.05-.07.01-.09.02 0 .01-.03-.01.01.02l.24.24a2.44 2.44 0 0 1 .48.46l.1.13.02.02.07.11a.93.93 0 0 1-.1-.28l-.1-.32a3 3 0 0 1-.07-.39l-.02-.4c-.04-.32-.04-.19-.05-.23a.31.31 0 0 0-.05-.05l2.24.74-1.45-1.3c-.2-.19-.6-.5-.55-.51-.07-.12-.27-.33-.46-.54-.37-.39-.74-.78-1.12-1.21l-1.17-1.25c-2.48-2.58-4.33-6.03-6.9-9.12l-.96-1.14-.85-1.06-1.72-2.13-.86-1.06-.8-1.15a105.1 105.1 0 0 1-1.56-2.33c-1.23-1.8-2.27-3.78-3.33-5.71-1.35-2.44-2.66-4.96-4.07-7.39-1.35-2.49-2.73-4.96-4-7.5-2.31-4.61-3.54-9.6-6.26-14.11l-1.16-1.92a14.48 14.48 0 0 0-1.99-2.63 9.49 9.49 0 0 0-3-2.13 5.9 5.9 0 0 0-3.33-.43c-.98.21-1.45 1.09-1.7 1.9.18-.65 1.03-.03 1.5.92.27.44.4 1 .49 1.38.07.41.08.72.1.77.35 1.44.63 2.6.72 4.04.25 2.93.04 5.73 1.05 8.47 2.1 5.72 5.03 11.06 7.94 16.5 2.53 4.6 5.23 9.12 8.08 13.68l2.56 4.2c.94 1.41 1.9 2.84 2.9 4.23z"/></g><g><path fill="#FFF" d="M155.7 255.6l-.01.02s.02.01 0-.02zM157.41 255.61l-.1.13.1-.13zM167.45 248.87l.05.09c-.01-.05-.03-.08-.05-.1z"/><path fill="#FFF" d="M163.35 243.08a8.56 8.56 0 0 0-2.4-.85c-.84-.19-1.71-.11-2.57-.08-.42.02-.85.14-1.27.21-.42.1-.84.14-1.25.35-.81.34-1.61.66-2.33 1.2a14.2 14.2 0 0 0-3.7 3.94l-.63 1.18-.31.57c-.1.2-.16.4-.24.6-.15.41-.3.8-.47 1.2l-.35 1.05-.39 1.08-.29.64c-.17.44-.39.86-.62 1.29-.2.43-.45.86-.7 1.3-.22.45-.46.9-.7 1.35-.92 1.88-2.43 3.34-4.07 4.65-1.56 1.25-2.69 3.2-4.61 3.9-.5.2-1.04.26-1.53.37-.12.02-.37.29-.63.61-.23.28-.48.62-.55.8-.08.17.8.61 1.1.72a8.9 8.9 0 0 0 1.57.35c.55.06 1.1.09 1.43.04 1.35-.2 2-.36 3.18-.99 2.44-1.34 4.57-2.94 7.2-4.35 2.13-1.19 3.23-3.48 4.76-5.42.43-.52.82-1.1 1.24-1.67l.3-.43c.1-.14.13-.15.2-.23l.33-.37c.05-.05.1-.13.14-.16l.1-.05.18-.1a.7.7 0 0 0 .28-.2c.15-.2.42-.18.6-.06.2.1.28.28.43.24.16-.05.37-.07.5.02.13.09.19.25.19.46 0 .12-.01.25-.04.36v-.02h-.01v.13l.02.58.02 1.16c.09 3.92 1 7.6 1.6 11.15.27 1.63.27 3.22.32 4.8l.03 1.17.02.3v.15l.05.3.16 1.2c.04.2.02.42.11.6l.29.53.58 1.06.18.32.16.26.34.5c1.01 1.41 2.2 3.41 4.87 3.6.65.03 1.56-.34 2.31-.76-1.23.68.42-2.39.47-2.58.33-1.13.2-2.1.27-3.14.08-1 .24-2.04.33-2.99.18-.25.34-.43.52-.57l.24-.17c.01-.02.03 0 .04-.06l.02-.17v-.36c.01-3.96-.91-7.58-1.45-11.1-.25-1.52-.44-2.97-.63-4.43l-.09-1.08-.04-.54-.02-.27-.02-.49-.25-4.62-.06-1.37c-.05-.44-.16-.81-.27-1.2-.23-.74-.5-1.46-.88-2.12a8.5 8.5 0 0 0-3.3-3.29z"/></g><g><path fill="#FFF" d="M192.78 264.37l-.02.1c.02-.05.04-.07.02-.1zM191.19 258.5l-.02.1.02-.1zM194.74 248.31h.07c-.04-.01-.06 0-.07 0z"/><path fill="#FFF" d="M184.74 251.36l-.28.45c-.09.15-.17.28-.29.52-.22.44-.42.89-.6 1.34-.15.44-.28.88-.4 1.33-.1.44-.15.83-.21 1.25-.18 1.62-.02 2.9.21 3.9l.2.72.19.63c.1.42.22.85.3 1.3.12.86.12 1.8-.2 2.63-.65 1.79-1.73 3.37-2.77 5.11a11.95 11.95 0 0 1-4.5 4.08c-1.05.58-1.86 1.35-2.98 2.05-.54.38-1.11.69-1.6 1.14-.51.41-.93.86-1.32 1.15a6.97 6.97 0 0 1-1.38.88c-.21.2-.37 1-.43 1.39 0 .08.15.23.38.35.22.13.53.25.66.24.88.21 2.36-.25 2.95-.52 1.2-.56 1.6-.68 2.52-.94-.04.02.05-.02.09-.02 2.74-.88 5.19-2.19 8.06-3.41 2.36-1.02 3.72-3.37 5.36-5.3 1.8-2.11 3.65-4.61 4.17-7.61.15-.79.29-1.58.4-2.33l.18-1.03.17-.88c.22-1.1.5-1.67.59-1.96a.5.5 0 0 0 .03-.11v-.07l.07-.14.14-.28h-.01l-.44-.31-1.21-.91a5.04 5.04 0 0 1-1.25-1l-.15-.19-.05-.04a.72.72 0 0 1-.17-.24c-.05-.09.02.03.02.05l.04.13v.13l.04.19.04.25c.04.34.04.68 0 1.02l-.03.25-.02.7c-.02.46-.05 1.03-.09 1.4v-.01l3.15.28c.25.03.45.23.48.47.02.07 0 .12.15.44.12.24.23.53.33.84l.18.45.16.51c.1.34.22.68.32 1.07.4 1.47.79 3.23 1.13 5.1.55 3.22-.06 6.32 1.12 9.86.16.49.32 1.03.52 1.58.1.27.22.55.34.82.14.32.33.81.51 1.19l.33.53.09.13c.12 0 .09.07.14.1l.2.24c.13.16.26.3.4.44.15.14.31.25.47.37.6.45 1.44.7 2.1.72.53-.22 1.37-.73 2.06-1.25-.58.41-.44-.03-.45-.9.08-.78.5-1.53.57-1.63l.18-.46.22-.44c.14-.34.27-.58.38-.94.1-.34.2-.68.34-1.02.72-1.93 1.84-3.58 1.8-5.4-.02-2-.25-3.96-.57-5.9-.16-1-.33-1.8-.54-2.82a62.34 62.34 0 0 0-1.13-4.53c-.16-.49-.3-.96-.52-1.47-.2-.51-.38-1-.64-1.52l-.4-.78c-.13-.25-.31-.6-.49-.9-.42-.65-.89-1.3-1.37-1.92l-.83-.82c-.27-.29-.54-.57-.87-.77a10.96 10.96 0 0 0-4.3-1.82c-.45-.1-.98-.2-1.3-.24l-.82-.14c-.21-.04-.48-.08-.63-.12l-.46-.12-.49-.11-.24-.06-.38-.06-.41-.05-.2-.03h-.1l-.2-.01h-.75l-.38.03a7.16 7.16 0 0 0-4.85 2.68l-.21.26-.12.17-.45.67z"/></g><g><path fill="#FFF" d="M222.19 266.9v.02s.02.01 0-.02zM223.67 266.75l-.08.18.08-.18zM231.28 255.84l.06.06c-.02-.04-.04-.06-.06-.06z"/><path fill="#FFF" d="M226.87 251.94a6 6 0 0 0-2.1-.33c-.73.02-1.44.04-2.07.18-.65.13-1.32.42-1.94.85-.63.42-1.23.87-1.78 1.38a11.12 11.12 0 0 0-3.06 4.6c-.12.35-.26.65-.37 1.02-.21.72-.45 1.4-.64 2.13-.25.74-.43 1.53-.64 2.28l-.3 1.15-.22.94c-.21.92-.4 1.85-.5 2.71a8.27 8.27 0 0 1-2.26 4.48c-.54.6-.95 1.32-1.45 1.98-.5.67-1.11 1.28-1.92 1.56-.43.15-.9.22-1.34.3-.2.05-.94 1.08-1.05 1.44-.06.17.85.57 1.11.65a6.08 6.08 0 0 0 5.66-.54c2.18-1.4 3.91-3.24 6-5.15a7 7 0 0 0 1.74-2.85c.37-1.03.63-2.03 1.07-2.91.65-.82 1.29-.57 1.41-.93.1-.22.36-.16.53-.02.19.14.27.3.4.24.27-.18.63-.19.72.18.06.2.05.46-.01.68l-.05.19v.08l.02.46.14 2.17c.09 1.48.15 2.95.1 4.47-.05 1.47-.37 2.96-.5 4.72-.06.87-.07 1.83.1 2.91a9.93 9.93 0 0 0 3.13 5.87c.77.7 1.73 1.29 2.68 1.59 1.92.61 3.53.2 4.49-.83.47-.52.61-1.49.65-2.34-.02.7-.52.3-.92-.34-.42-.63-.63-1.5-.65-1.57-.4-.98-.61-1.57-.41-2.2.44-1.23 1.79-1.95 1.95-3.09.2-1.2.34-2.71.4-4.32.07-1.7.03-3.52-.05-5.32-.09-1.65-.11-2.6-.56-5.83a25.5 25.5 0 0 0-2.1-7.34c-1.25-2.48-2.84-4.4-5.41-5.3z"/></g><g><path fill="#FFF" d="M343.1 256.78v.02s.03 0 0-.02zM342.52 257.42l-.07.18.07-.18zM350.72 245.3l.04.15c-.01-.08-.02-.12-.04-.14z"/><path fill="#FFF" d="M347.21 239.68a134.9 134.9 0 0 0-9.57 7.8l-.37.33-.29.28-.56.54-1.06 1.08c-.7.74-1.36 1.46-1.97 2.16.16 1.05.41 2.1.6 3.07l.5 2.67c.14.56.23 1.13.28 1.7.16 2.39.22 4.82.6 7.16.42 2.37.34 4.7.26 7.08v.86l.06.79.06.64v.68a5 5 0 0 1-.85 2.78c-.32.45-.73.86-1.11 1.28-.17.2-.35 1.76-.27 2.17.05.19 1.1-.17 1.4-.28a9.97 9.97 0 0 0 2.76-1.6c.5-.5.9-.89 1.2-1.34.33-.43.58-.92.86-1.63.26-.74.5-1.5.61-2.31.09-.43.13-.78.17-1.11l.15-1.04c.21-1.38.5-2.76.99-4.16.77-2.26.27-4.66.56-6.9.16-1.22.4-2.44.6-3.67l.12-.92c.04-.27.06-.73.1-.69.06-.13.1-.24.08-.37v-.19l.21-.08c.14-.04.28-.06.4-.07a2.38 2.38 0 0 1-1.2 1.12l-.17.08.03.03a1 1 0 0 1 .26.47c.04.12.07.26.09.38l.01.1v.04l.01.03.05.14.38 1.17c.62 1.86 1.43 3.7 2.06 5.24l.49 1.15.49 1.33.24.66.12.34v.01l-.04-.12.02.05.04.08.06.17.15.33c.19.44.4.87.62 1.3.2.34.32.51.47.78l.78 1.32c.24.4.48.8.7 1.21.46.84.9 1.62 1.37 2.41.45.8.95 1.56 1.49 2.3.53.74 1.14 1.44 1.84 2.07 1.4 1.33 3.48 3.34 6.31 2.8.67-.12 1.38-.8 1.93-1.46-.45.55-.6-.11-.62-.9-.02-.8.12-1.7.11-1.8-.03-1.2-.41-2.14-.61-3.16-.18-1.02-.24-2.06-.37-3.02-.12-.98-.3-1.9-.74-2.7-.88-1.66-1.97-3.3-2.77-4.63l-.3-.49-.07-.11.02.01a.1.1 0 0 1 .03.05v.02l-.22.1c-.65.26-1.32.5-2 .72l-1.02.31-.51.14-.26.07 3.94-1.4v-.03l-.07-.18-.25-.7-.5-1.42-.63-1.58c-.37-.94-.7-1.7-1.05-2.5l-.99-2.29c-.16-.37-.32-.75-.45-1.1l-.1-.27-.14-.36-.4-1.18c-.13-.4-.28-.76-.39-1.2l-.24-1.34-.47-2.71c-.15-.75-.24-1.65-.33-2.56-.1-.91-.18-1.83-.27-2.75l-.5-5.4-.58.4-.66.47-1.7 1.25z"/></g><g><path fill="#FFF" d="M306.4 258.49v.02s.03 0 0-.02zM313.9 258.2l-.03.12a.18.18 0 0 0 .02-.12zM319.47 254.85h0z"/><path fill="#FFF" d="M311.13 247.11c-.65-.03-1.3-.04-1.96-.02l-.98.03-.24.01-.13.01-.23.04-.89.14c-1.18.2-2.34.4-3.46.63l-1.66.34-.8.18c-.12.03-.27.04-.38.1l-.31.26a6.82 6.82 0 0 0-2.08 2.5 7.38 7.38 0 0 0-.73 3.1c-.05.53.02 1.1.04 1.62.09.56.13 1.09.26 1.64l.6 3.02c.1.62.18 1.21.18 1.66.02.26 0 .43 0 .63l-.11 1.07c-.08.74-.14 1.48-.19 2.23a28 28 0 0 0 .05 2.31c.03 1.54.24 3.12.27 4.67.05.77.2 1.56.28 2.35.09.75.2 1.69.24 2.17.03.28.07.55.13.82.04.28.05.55.1.82.1.56.11 1.1.13 1.66.03.29 0 .57-.04.84l-.13.83c-.19.52-.37 1.06-.72 1.5-.39.47-.8.9-1.27 1.26-.13.08-.2.55-.4.97-.18.44-.34.94-.34 1.16-.02.22 1.12.06 1.47-.02 1.07-.2 2.62-1 3.22-1.63a7.86 7.86 0 0 0 2.28-3.7c.45-1.8.66-3.7.51-5.56a32.62 32.62 0 0 1 .18-3.5c.07-.38.2-.76.3-1.14.2-.6.3-1.2.35-1.8.09-.6.18-1.23.22-1.85.07-1.23.25-2.55.59-3.8l.14-.5c.06-.2.12-.52.17-.79.12-.57.15-1.03.22-1.56.03-.45.07-.97.08-1.39l.01-.65c0-.2 0-.46.03-.45.17-.4.28-.6.3-.9 0-.33.49-.4.8-.2l.38.2.07.03h.02l.15.01.3.02c.38.01.78.02 1.17.01 1.55-.02 3.04-.06 4.65-.14l-5.17-5.29v.5l.01.25v.4c0 .43-.02 1.23.06 1.92a9.9 9.9 0 0 0 1.35 3.9l.54.9.22.4a11.15 11.15 0 0 1 1.02 2.72c.42 1.7.75 3.74 1.21 6.06a37.64 37.64 0 0 0 2.23 7.66c.24.61.55 1.22.83 1.83l.75 1.57c.5 1.03 1.05 2.1 1.71 3.18a16.95 16.95 0 0 0 2.5 3.2 12.63 12.63 0 0 0 7.08 3.62c.57.08 1.18.1 1.76.1l.45-.03.22-.02c.06-.01.17-.02.15-.03l.13-.13c.06-.05.05-.08.08-.13l.45-.1a5.53 5.53 0 0 0 2.64-1.4c.51-.49.78-1.43.9-2.28-.2 1.4-2.18-1.83-2.34-1.99a6.84 6.84 0 0 0-.73-.65c-.12-.1-.3-.2-.45-.29-.17-.08-.33-.13-.5-.2l-.25-.09-.16-.09c-.1-.05-.2-.13-.28-.2-.19-.17-.35-.28-.5-.48a5.68 5.68 0 0 1-.96-2.34c-.2-.8-.36-1.56-.77-2.28-.43-.75-.88-1.58-1.35-2.46l-.74-1.39c-.15-.27-.2-.41-.28-.6-.08-.17-.18-.33-.25-.52a20.9 20.9 0 0 1-.85-2.44c-.25-.93-.48-1.93-.68-3.06-.35-1.9-.74-4.09-1.43-6.46-.15-.58-.38-1.2-.58-1.8-.24-.61-.46-1.23-.75-1.84-.3-.61-.56-1.23-.92-1.83l-.52-.9-.16-.29c-.06-.12 0-.12.02-.18.02-.04.04.05.08-.27l.03-.18.03-.32.06-.68.5-5.63-6.4-.4-2.83-.18z"/></g><g><path fill="#FFF" d="M280.96 261.96v.02s.02.01 0-.02zM282.54 261.96l-.08.15.08-.15zM291.12 253.15l.06.1c-.02-.06-.04-.09-.06-.1z"/><path fill="#FFF" d="M286.71 247.06a7.09 7.09 0 0 0-4.81-.88 8.53 8.53 0 0 0-4.42 2.25c-.3.32-.62.58-.88.95l-.75 1.1c-.24.37-.43.82-.64 1.21l-.3.61-.25.67-.47 1.3-.38 1.36c-.13.44-.24.89-.34 1.35l-.35 1.32c-.2.97-.45 1.9-.61 2.86l-.1.6-.08.5-.14.95a28.81 28.81 0 0 0-.25 3.67c0 .3 0 .52-.03.88l-.09 1.03a41.91 41.91 0 0 1-.8 5.43c-.25 1.1-.27 2.23-.4 3.32-.12 1.06-.33 2.14-.93 2.88-.32.38-.7.69-1.02.85-.08.08-.13.3-.17.6-.05.29-.13.57-.13.77 0 .09.16.22.4.34.22.1.56.22.69.2.9.13 2.38-.53 2.94-1.06a7.66 7.66 0 0 0 2.14-3.01c1.17-2.83 1.74-5.7 3.1-8.33a10.27 10.27 0 0 0 1.04-3.3c.22-1.21.35-2.35.72-3.41.46-1.48.75-1.42 1.03-1.66.28-.2.49-.24.57-.48.1-.27.34-.3.54-.18.22.12.35.34.5.32.27-.03.58.09.69.55.03.13.04.27.04.4v.16l.03.26.1 1.1c.17 1.88.4 3.76.77 5.88.1.55.2 1.09.36 1.74a16.17 16.17 0 0 0 .7 2.16c.39.92.76 1.83 1.1 2.72 1.25 3.25 1.42 6.69 2.59 9.51.17.45.37.96.59 1.45.19.47.44.96.8 1.41l3.48 4.42.58-.1c.9-.16 1.78-.53 2.6-1.28.48-.45.8-1.38 1-2.22-.31 1.38-1.7-1.93-1.81-2.1-.14-.19-.28-.37-.44-.54l.8.85c.38-.83.56-1.74.8-2.65.6-2.14 1.47-4.34 1.07-6.41a35.27 35.27 0 0 0-1.8-6.16l-1.14-2.85-.14-.33-.01-.03-.07-.26c-.07-.27-.15-.72-.23-1.14l-.8-5.08-.21-1.36-.33-1.89c-.3-1.66-.66-3.3-1.11-4.86a20.44 20.44 0 0 0-2.1-5.08 9.67 9.67 0 0 0-3.24-3.28z"/></g><g><path fill="#FFF" d="M252.88 264.51l-.02.07c.01-.03.04-.04.02-.07zM254.43 263.04l-.04.2.04-.2zM259.9 251.06l.06.08c-.02-.05-.04-.07-.06-.07z"/><path fill="#FFF" d="M254.08 248.74l-.54.05c-.17 0-.38.15-.57.23-.4.18-.79.38-1.18.58-.4.18-.76.5-1.12.81l-1.08.93c-.68.7-1.38 1.36-1.97 2.17-.59.84-1.17 1.62-1.59 2.58-.22.48-.46.93-.64 1.41l-.49 1.47c-.16.47-.3.95-.4 1.43l-.07.35-.04.25-.07.5a32.02 32.02 0 0 1-.55 3.73c-.6 2.48-1.15 4.7-1.43 6.93a14.15 14.15 0 0 1-.58 2.44c-.2.56-.33 1.03-.43 1.3-.09.23-.21.43-.35.62-.34.46-.74 1.07-1.06 1.57-.66 1.04-1.01 2.1-1.42 3.02-.39.9-.9 1.73-1.53 1.93-.36.1-.73.14-1.08.09-.08 0-.26.2-.5.42-.23.21-.54.44-.65.6-.12.14.55.84.81 1 .2.13.42.26.67.39.26.1.53.18.82.26.56.11 1.16.11 1.52 0a5.8 5.8 0 0 0 3.17-1.98c1.39-1.6 2.34-3.25 3.63-4.38.38-.45.8-.9 1.11-1.44.2-.3.3-.47.45-.66.14-.22.26-.34.38-.45.14-.1.35-.4.51-.67a9.32 9.32 0 0 0 1.13-2.56c.38-1.18.63-2.32 1.1-3.37 1-2.24 2.23-4.24 2.94-5.96.08-.25.32-.4.52-.41.2-.04.34.04.44-.1.1-.15.22-.42.45-.53.14-.11.14 0 .2.04.05.06.09.14.13.25.08.23.13.53.12.76v.13l.02.09.1.31.43 1.27c.27.83.68 1.73.83 2.45.2.78.45 1.49.63 2.33.16.85.33 1.71.47 2.57.25 1.7.2 3.37.37 5.3l.12 1.41a17.3 17.3 0 0 0 .54 2.78l.3.9.19.46.26.54c.2.37.37.75.64 1.15a8.32 8.32 0 0 0 3 2.99c.36.2.75.42 1.1.51l.54.14c.23.08.46.14.68.2.88.31 1.8.04 2.54-.28.54-.4.94-1.29 1.22-2.1-.11.33-.25.37-.4.23a2.8 2.8 0 0 1-.55-.81 3.19 3.19 0 0 1-.27-1.16l-.02-.65c-.22-1.13-.54-1.97-.42-2.75.14-.76.61-1.38.94-2.12.17-.4.32-.82.42-1.24.1-.47.13-.96.12-1.4a49.57 49.57 0 0 0-1.87-12.07c-.23-1.01-.58-1.76-.88-2.61l-1.08-2.87-.84-2.31-.42-1.16c-.14-.38-.34-.55-.5-.83l-2.02-3.12c-.8-1.26-1.59-2.58-2.41-3.94-.06-.25-.32-.15-.51-.15l-.61.02-1.23.05c-.89.03-1.49.09-2.19.14z"/></g></svg>