<svg xmlns="http://www.w3.org/2000/svg" viewBox="0 0 400 393.4"><path d="M231.8 81.8c-.6.6 0 .8.7.3l.5-.4h-.5c-.4-.1-.7 0-.7.1M161 103.6c-.3.4-1.4.5-4.2.6-3.9.1-6.8 1.3-10.4 4.6-4.4 3.9-7.8 9.3-8.1 12.9-.1.6-.3 1.7-.5 2.4-.9 3.4-1.3 5.9-1.5 10.7-.1 1.2-.2 2.6-.3 3.2-.2 1.3-1.2 4.1-1.1 2.9.3-2.6.4-3.5 0-3.5-.2 0-.3.1-.3.2 0 .2-1.5 2-2.4 2.9-.9.9-4.9 2.8-6 2.9-.5 0-1.1.2-1.2.3-.2.1-.5.2-.8.1-.5-.1-.7.1-2 1.4-.8.8-1.3 1.2-1.1.9 2-3.1 2.1-3.2 2.8-3.2.8 0 3.2-.8 3.3-1.1 0-.1-.2-.7-.5-1.4-.6-1.1-.6-1.3-.5-2.9.1-2-.2-2.3-.7-.7-.5 2-.8 2.9-1 3.1-.1.1-.1-.1 0-.5.3-1.1.1-1.1-1.1 0-.6.5-1.4 1.1-1.7 1.3-.4.2-.9.6-1.3 1-2 2.2-3.8 2.9-5 2.1-.4-.3-.5-.3-1.6.9l-1.2 1.2.8-1.2c.4-.6.9-1.4 1-1.6.2-.5.4-.6 1.3 0l.6.4 1.3-.4c2.2-.7 3.3-2.1 2.3-2.9-1-.7.1-4.5 1.3-4.5.1 0 .3-.1.3-.3 0-.8-3.8 2.3-4.9 4-.3.5-.3.5 0-.3.5-1.2 1.2-2.2 2.4-3.2 1.4-1.2 1-1.3-.8-.2-1.7.9-4.1 3.4-5.4 5.4-.8 1.3-1 1.1-.6-.6.4-1.5.3-3.5-.2-3.8-.5-.3-.6-.2-1.3 1.6-.3.8-.8 1.9-1.2 2.3-.3.5-1 1.5-1.5 2.4-.5.9-1 1.7-1.1 1.8-.2.3.4-1.9 1-3 .5-1-.4-2.1-2.2-2.8-1.5-.6-1.9-.3-1 .7 2.9 3.1-1 10.6-4.4 8.4-.4-.3-.4-.3-.5.2 0 .7-1.3 4-1.5 4-.1 0-.1-.2 0-.3.3-.5.8-2.9.9-4.2.2-2.1.3-2.2.9-1.3.8 1.1 1.1 1.1 2.6.4 1.5-.8 1.6-1.2.5-2.3a8.2 8.2 0 0 1-1.8-4.7c0-1.3-.6-1.5-.6-.2 0 .5 0 1.1-.1 1.3 0 .3-.1 1.1-.1 1.8 0 1.1-.1 1.2-.2.7-.2-.6-.3-3.9-.1-4.2.1-.1 0-.2 0-.2-.3 0-.6.7-.8 1.9-.1.6-.4 1.8-.6 2.5l-.5 2.1c-.2.7-.2.7-.2.2 0-.9-.7-2-1.7-2.8-2.5-2-3.6-3.4-4.4-5.5-.1-.2-.3-.4-.4-.3-.2.1.6 2.5 1 2.9.1.1.5.9 1 1.8s1 2 1.3 2.4l.5.9-.8-.9c-1.3-1.4-3.5-5.2-3.4-5.7 0-.1 0-.1-.2-.1-.4 0 .1 1.4 1.7 4.6 1.9 3.8 2 4.2 1.8 7.6l-.1 2.3-.1-1.6c-.1-1.7-.7-3.2-1.6-3.9-1.7-1.4-3.3-1.9-3.3-1 0 .3.1.5.5.6 1.1.3 1.7 3.7 1 5.7-.4 1.2-.9 2.2-1.1 2.2-.1 0-.9.7-1.8 1.6s-2.3 2.1-3.2 2.8c-4.9 3.5-6.1 8.6-4 16.7.5 2 .5 2.2-.2 2.2-1 0-3.4 2.5-3.8 3.9-.4 1.7-.1 5.6.7 7.7.3.9.4 1.4.3 1.7-.5 1.2-.7 2.2-.7 3.4 0 2.2 3 7.5 4.2 7.5.4 0 1.1.8.7.9-.1.1-.4.3-.7.5-.4.4-.5.4-1.6-1.5-1.3-2.2-2-.9-1 1.7s3.1 3.9 5.8 3.8c1-.1 1.1-.3.3-1.1-.3-.3-.6-.7-.6-.8 0-.1.2 0 .5.4 1 1.1 2.7 1.4 3.5.5 1.3-1.4 2.7-2.4 3.3-2.4.9 0 2.8-1 4.2-2.1.3-.3.7-.4.9-.3.5.1 2.3-.9 3.5-2.1 1.7-1.7 2.2-2.5 3.4-6.3 1.1-3.4 1.1-3.5 2.2-4.5 1.3-1.2 7.2-4.5 6.5-3.6-.7.9-1.7 1.6-2.4 1.7-.7.1-1.1.7-.5.7.4 0 .2.5-.3 1-.7.6-1.9 3-2.3 4.3-2.2 7.9-3.6 9.8-7.6 9.9-1.8 0-4.8 2-4.8 3.1 0 .4 1.6 2.1 2 2.1.3 0 1 1 1 1.5.1 3.9 4.3 3.3 7.3-1 1.2-1.7 2-3.2 2.1-3.9 0-.3.1-.7.2-.8.1-.1.3-.9.6-1.7.2-.8.5-1.7.6-1.9.1-.2.2-.6.2-.8 0-.2.1-.5.2-.7.1-.2.4-1.1.7-2.1.6-1.9 1-1.8.6.1-.1.5-.3 1.9-.5 3.2-.7 4.4-.9 5.2-2.7 7.9-.6.9-1.5 2.2-1.9 2.9-1.1 1.8-2.2 2.3-5.1 2.5-1 .1-1.2.2-2.2 1.7-.4.5-.6.7-1.2.8-.4.1-.9.3-1 .4-.2.3-2.7 1.6-3.7 1.9-.4.1-.5.8-.2 1.2.4.6 3.6.8 5.4.3.6-.2 1.6-.3 2.2-.3 7.5 0 19.5-9.3 22-16.9 1.5-4.4 1.1-8.8-.8-10.7-.6-.6-1.9-1.2-2.2-1-.1.1-.2-.1-.3-.3-.2-.5-1.6-1-2.9-1h-1.2l1-.2c.6-.1 1.2-.2 1.3-.3.3-.1 1.5 0 3 .3.7.1.7.1 1.1-.5.6-1.1 3.7-2.9 5.4-3.2 2.8-.5 6.1-4.5 7.1-8.4.1-.6.4-1.2.5-1.4.1-.2.3-.8.5-1.4.3-1.2 1-3 1.3-3.2.1-.1.2-.3.2-.4 0-.2.9-1.2 2-2.4 1.1-1.1 2.1-2.4 2.3-2.8 1.5-3.3 1.7-3.5 1.1-1.1-.8 3.6-.8 4.1-.5 5.8.2.9.4 2.3.4 3.2.1.9.2 2 .2 2.5.1 1.1 0 1.1-.2 0-.3-1.9-1-4-1.5-4.6-.4-.4-1.4-.6-1.6-.2-.1.1-.2.2-.3.1-.2-.1-1.5 1.8-1.8 2.7-.1.4-.3.7-.4.7s-.2.2-.2.4.1.4.3.4c1.1 0 2.3 1.1 3.6 3.4.4.7.8 1.4.9 1.4.2.1.9 2.4 1.4 4.1.1.5.4 1.2.5 1.5.5.9.6 1.7.8 3 .1.8.2 1.8.2 2.2.4 4.2.5 16.3.2 20.5-.2 1.9-.3 4.3-.3 5.4 0 2.6-.6 7-.8 6.8-.2-.2-.9-.3-.9-.1 0 .2-2.4 1.3-3.5 1.6-1.3.4-1 1.9.3 1.9.1 0 .6.2 1 .4 1.4.7 2.8 0 2.8-1.3 0-.2.1-.7.3-1.1.3-.8.3 1.1-.1 2.7-.7 2.8-.7 4.5-.1 4.5.4 0 .4.1.1 1-.1.3-.3 1-.4 1.4-.2 1.1-.6 1.7-1.7 2.4-1.5.9-1.3 1.5.4.9 1.7-.6 2.7-1.9 3.5-4.6.2-.6.6-1.6.9-2.3.3-.7.5-1.4.5-1.6 0-.2.1-.3.2-.2.1.1.2.1.1-.1-.1-.1 0-1 .3-2 .2-1 .5-2.5.7-3.3.2-.8.4-1.7.6-2 .5-.9 1-2.2 1.2-3.1.1-.5.3-1 .4-1.2 1.4-3 3.7-8.5 3.7-9.1 0-.2.1-.3.2-.4.1-.1.2-.3.2-.5s.3-1.2.6-2.1c.3-.9.7-2.4.8-3.3.1-.9.3-1.7.4-1.7.1-.1.1-.4.1-.9 0-.4 0-1.4.1-2.2.1-4.6-.8-10.2-1.7-10.2-.2 0-.3.1-.2.7.3 1.4.5 3.3.4 3.4l-.2 2.1c-.1 1.9-.4 4.4-.6 4.7 0 .1-.1.7-.2 1.5s-.2 1.6-.3 1.9c-.1.3-.4 1.2-.6 2.1-.2.9-.8 2.5-1.2 3.6-.4 1.1-.9 2.7-1 3.5-.2.8-.5 1.9-.7 2.3-.4.9-.4 1-1.4 3.7-.3 1-.7 1.9-.8 2.1-.1.2-.3.9-.5 1.6-.2.6-.4 1.4-.5 1.7-.1.3-.3 1.1-.5 2-.6 2.8-1.2 4.8-1.7 6-.2.4-.4.9-.5 1.1s-.1-.2 0-.8c.1-1.2.6-3.7.9-4.1.1-.2.4-2 .6-4.1.6-5.7 1.1-9.4 1.3-9.5.1-.1.2-.8.2-1.7.1-5.7 1.1-12.1 2.6-17.9.8-3.1 1.9-12.2 1.9-15.3 0-3.6-.8-6.4-2.5-8.8-.3-.5-.6-.9-.6-1 0-.3-1.5-2.2-2-2.6l-.5-.3 1-1.5c.6-1 1.2-1.6 1.6-1.8 2.3-1.1 4-4.5 3.4-7-.4-1.8-1.1-2.6-3.3-3.6-1.7-.8-3.3-2.1-3.6-3.1-.5-1.3-1.2-4.7-1.3-5.7 0-.6-.2-1.3-.3-1.6-.5-1.3-.8-4.5-.7-7.8.1-4 .4-6.4 1.5-10.4.3-1.1 1-3 1.5-4.1.3-.6.6-1.3.8-1.7.1-.3 1-1.7 1.8-3.1.9-1.4 1.6-2.7 1.6-2.8 0-.4 1-1.2 2.7-2.1.7-.4 1.6-.9 1.9-1.2.7-.5 1.7-1 2.7-1.4 1.1-.4.7 0-.5.4-1.3.5-2.8 1.5-2.6 1.7.1.1.3.1.5 0 .4-.3 4.9-2.6 5.5-2.8l.5-.2-.3.7c-.3.6-.6 1.1-3.3 4.7-2.1 2.9-2.7 4.4-2.7 7.2 0 3.2.3 3.4 2.7 1.6.9-.6 1.7-1.2 1.7-1.2.1 0 .4-.2.8-.5 1.4-.8 1.5-.8 1.3.1l-.1.9 1.3-.1c.7 0 1.5-.2 1.7-.3.2-.1.7-.3 1.1-.3.4-.1.8-.2.9-.2.1 0 .2.7.3 1.6.1 1.6.4 2.7 1.2 4.7 1.8 4.6 1.6 5.4-1.9 8.3-.9.7-1.2 1.1-1.5 1.9-.3.9-.8 1.5-3.4 4.1-1.7 1.7-3.1 3.2-3.1 3.4 0 .4.5.4.8 0 .1-.2.4-.2.5-.2.1.1.5-.2.8-.5.3-.3 1.1-.9 1.8-1.3s1.8-1 2.4-1.5c.6-.4 1.5-.9 1.9-1.1 1-.5 1.3-.9 1.2-1.6 0-.5.1-.7.8-1.3 1.3-1 2.8-1.8 3.2-1.8.6 0 .8-.7.9-2.7l.1-1.9-.8.4-.8.4.3-.6c.2-.3.5-.7.7-.9.5-.4.4-1.1-.6-3.8l-.6-1.6-.7.1-.7.1.5-.4c.6-.5.6-.7.2-2.2-.2-.6-.3-2.1-.3-3.2v-2l-.6-.1c-.4 0-1.4.4-3.5 1.4-1.6.8-2.8 1.3-2.7 1.2.1-.2.2-.4.1-.4-.1-.1-.2 0-.3.2-.1.2-.2-.1-.1-.9.2-2.2.2-2.1-.3-2.2-.8-.1-3.9 2.5-5.7 4.7-.7.9-.8.9-.7.4.1-.3.2-1 .2-1.5.3-1.9 1.9-4.4 4.3-7.1 2.7-2.8 3.8-4.7 3.7-6.2.5-.7.2-1-.1-.5m-3.7 1.8c-.2.1-.5.2-.7.3-.3.2-.3.2 0-.1.1-.2.5-.3.7-.3.4 0 .4 0 0 .1m144.8 9.2c-.2.2-.2.3.2.3.2 0 .4-.1.4-.3 0-.2-.1-.3-.2-.3 0 0-.2.1-.4.3m-158.5 13.7c-.2.5-.2 2.4 0 2.4.1 0 .2-.5.2-1.4.1-1.4.1-1.7-.2-1m-71.5 5.4c-1.7.5-3.4 1.5-4.3 2.6-1 1.1-1.5 4.9-1.3 8.6l.2 2.5 1 .9 1 .9-.6.1c-1.1.2-1.3 1.2-.6 2.6.2.5.3.8.2 1.6-.4 2.4-.3 2.5 2.8 2.8l2 .2-.8.9c-1.3 1.4-1.3 2 .1 2.6.8.3.4 1.5-1.4 3.7l-1 1.3.3 1.7c.6 3.3 3.3 7.4 4.8 7.4.3 0 1.1.2 1.7.5.6.3 1.2.5 1.3.5.1 0 .5.1.9.3 1.2.6 2 0 .9-.7-1.1-.6-2-1.4-2.4-2.4-.2-.5-.6-1.1-.7-1.5-.4-.7-1.9-2.1-2.6-2.4-.8-.4-1.2-.8-1.7-2.3l-.4-1.2.9-1.2c1.3-1.7 2.6-3.3 3-3.6.6-.5.4-.8-.7-.9-.7-.1-1.1-.2-1.4-.5l-.4-.4 1-.9c.5-.5 1.2-1 1.5-1.2.7-.5.7-.8-.2-.9-.4-.1-1.4-.2-2.2-.4s-1.9-.3-2.4-.3c-1.1 0-1.3-.2-.7-.8.5-.6.5-.7-.1-1.5-.7-1-.6-1.3.4-1.4.5-.1 1.3-.2 1.8-.2 1.1-.2 1.1-.3.1-1-2-1.5-4.2-4-3.7-4.4.1-.1.1-.9.1-2 0-1.2 0-1.9.2-2 .1-.1.2-.2.2-.3 0-.1-.1-.1-.2-.1-.4.2.6-2.8 1.2-3.6.8-1.2 3.6-1.8 4.1-1 .1.2.2.2.2 0 .1-.2.2-.2.5.1.2.2.5.3.6.3.1 0 .6.4 1.1 1 1.2 1.3 2 1.3 1.2 0-.3-.4-.3-.4.1-.2.8.5 1.8 2.9 3.4 8.5 1 3.5 1.3 4.2 2 5.3 1.2 1.8 2.3 2.5 4.4 2.7.7.1 1.3.2 1.3.3 0 .3.8.2 1.2-.2.6-.6.7-1.8.2-2.8-.2-.5-.4-1.1-.5-1.3-.1-.9-1-.7-1.1.3 0 .4-.2.8-.3.9-.2.1-.3.2-.3.4 0 .4-.5.8-.7.5-.3-.4-.1-2.1.2-2.6.4-.5.3-1.1-.1-1.1s-1.3.5-1.3.7c0 .1-.3.7-.6 1.3l-.5 1.1-.6-1c-.3-.6-1.2-3-2.1-5.4-2.5-7.4-3.3-8.7-6.7-10.9-1.5-.9-2.1-.9-3.5-.5m224.2 1.8c-1 .7-4.3 3.7-5.8 5.4l-1.1 1.2.1-1.2c.1-1.4.7-3.1 1.3-3.7.4-.4.4-.5.1-.3-.8.3-2.8 2.6-3.6 4.1-.2.4-.4.6-.4.4 0-.6.8-2.4 1.4-3.1.6-.8.7-1.1 0-.8-1.4.7-3.4 3.9-4 6l-.3 1-.7-1.6c-.9-2.1-1.5-3.1-2-3.1s-.5.1.2 2.8c.7 2.8.7 3 .2 5-.9 3.4-.4 6.7 1.3 8.2l.6.6-.3 1.2c-.6 2-.5 5.5.2 7.3.9 2.3 1.1 2.3 1-.1l-.1-2.1.3 1.6c.2.9.5 1.8.7 2.1l.4.6-.1-.7c-.1-.4-.1-.8-.2-.9-.3-.8.9-1.7 1.7-1.2 1.5.8 1.7 3.6.6 7.3-.6 2.2-.7 2.2-.4 2.2.1 0 .2-.2.3-.3 1.2-4 1.9-4.8 1.1-1.2-.2 1-.4 1.8-.3 1.9.2.2.7-.4.6-.7-.3-.7.6-1.8 1-1.3.2.4.5.2.5-.4 0-1.8.4 0 .5 2.3.2 3.2 0 3.7-1.1 4.9-.9.9-1.1 1.6-.6 1.6.3 0 1.8-1.8 2.5-2.9l.4-.7-.1.6c-.2.9-.6 1.8-1.1 2.5-.5.7-.3.7 1.2 0s1.4-.6 1.2-3.3c-.1-1.3-.2-2.5-.2-2.8 0-.4 0-.5.6-.4 3.4.2 9.1-.9 8.4-1.7-.1-.1-.5-.2-.8-.2-1.2 0-1.6-.4-1.7-1.5l-.1-1-1.4 1.3c-1.8 1.6-2.5 1.9-1.5.6 1.2-1.5 2.7-4.7 2.5-5.4 0-.1-.4.3-.7 1-.4.7-.9 1.4-1.2 1.7l-.6.5.4-.6c.8-1.2 1.4-3.3.8-2.9-.1.1-.5.3-.8.4l-.5.2.5-1.3a9.4 9.4 0 0 1 2.1-3.4c.7-.7-.6-.6-2.3.3l-.8.4.5-.5c.5-.6 2.3-1.5 2.9-1.5.2 0 .4-.1.3-.3-.1-.3-.9-.2-3.2.2-.6.1-1.1.1-1.2.1-.2-.1-.9.9-1.5 2-.2.4-.5 1-.7 1.2-.3.4-.3.4.7.3l1-.1-1 .7c-.6.4-1.2 1-1.5 1.3-.8 1.1-1.2.4-.5-1 .2-.5.7-1.5 1-2.4.7-1.7 1.1-2.5 1.7-3.2.5-.6.5-.9-.1-.5-.7.4-.6 0 .1-.8.6-.7.7-1.3.8-4.1.1-1.8-.2-1.7-.9.5-.5 1.6-1.4 3.5-1.6 3.3 0 0 0-.4.2-.8a28 28 0 0 0 1.1-5.9c0-1.6-.4-1.8-.7-.4-.1.6-.4 1.4-.5 1.8-.3.7-.3.7-.2.1.4-2.1.2-6.2-.3-6.2-.1 0-.4.9-.6 2-.4 1.8-.5 1.9-.6 1.2-.1-.7.2-3 .5-4.4.2-.7 0-.7-.7.1l-.6.6.4-.8c1.1-1.9 2.3-2.8 2-1.5-.1.4 0 .8.2 1.2.3.6.4.6.4.3.1-.7.3-.7.3-.1 0 1 .4.8.9-.4.3-.6.6-1.2.7-1.2.2 0 .2.1 0 .4-.4.7-.7 2.1-.6 2.2.1.1.5-.3 1-.9.5-.5 1.2-1.3 1.7-1.6.5-.3.8-.5.6-.3-.4.4-.3.7.1.3.2-.2.3-.4.3-.5-.1-.1 0-.2.1-.3.1-.1.2.1.2.3 0 1.6.2 1.6 2.7.1 1.8-1.1 3.8-2.3 4.2-2.5.2-.1-1.1 1.9-1.7 2.6-.8 1-.4 1.3.5.3.3-.3 1-.9 1.6-1.3.7-.5 1.4-1.4 2.2-2.5.7-1 1.5-2.1 1.8-2.5.9-1.1.7-1-2.3.7-5.7 3.3-6.8 3.5-2.2.4 1.6-1.1.8-.9-1.8.4a51.4 51.4 0 0 1-9.1 3.5l-.8.2.1-.7c.1-.4.3-1 .5-1.5l.4-.8v.6c0 2 1.3 1.3 1.7-1 .1-.4.3-1.2.5-1.8.9-1.8.6-2-.9-1m-223.8 1c0 .1.5.4.7.4.3 0 0-.4-.3-.4-.3-.1-.4-.1-.4 0m-1.5.6c-.5.3-1.5 1.2-1.5 1.4 0 .3.4.2.8-.2 1.1-1 2.1-.4 3.7 2 1.2 1.8 1.5 2.5 2 4.5.2.6.5 1.6.6 2.1.2.5.4 1.6.5 2.5l.1 1.7.9.2c1.2.3 1.2.4.1.7-1 .3-1 .2-.7 1.8.2 1.1.2 1.1.8 1 .3-.1 1.1-.2 1.7-.2l1.1-.1-.5.6c-.3.3-.8 1-1.1 1.4-.7.9-.8 1.1-.2 2.7.6 1.9.9 2.3 1.5 2.3.2 0 .2-.1.2-.3-.1-.2.3-.5 1.2-1.1.7-.4 1.7-1.1 2.2-1.5.5-.4 1.1-.7 1.3-.8.8-.3.5-1.3-.5-1.8-.4-.2-.8-.5-.9-.8-.1-.3-.7-1.1-1.2-1.9-1.3-1.8-1.9-2.9-2.5-4.4-1.4-3.9-2.9-7.1-3.9-8.3-.5-.5-1.1-1.4-1.5-1.9-1.2-1.5-3.1-2.2-4.2-1.6m95.5 1.8c-.7.1-1.4.2-1.6.3-.5.3-3.2 1-3.7 1-.9 0-2.3.6-2.4 1.1-.1.4 0 .4.7.3.4-.1 1.4-.2 2.1-.3a22 22 0 0 1 1.6-.2c.6-.2 3-.6 3.2-.5.1.1.2.6.2 1.6-.1 1.7-.1 1.8-1.8 2.7-1.2.6-1.4.8-1.6 1.3-.2.4-.2.4 1.1 0 2.2-.8 2.5-.8 3.4-.8l.9.1v-3.2c-.1-3.8-.1-3.7-2.1-3.4m105.2 1.1c-3.7 1.2-7.5 5.8-6.1 7.4.1.2 1.8-.4 2.1-.8.2-.2.5-.4.6-.4.1 0 .3-.2.3-.4 0-.5.6-2.2.8-2.3.1-.1.1.2.1.8-.2 1.8.8 2.9 1.1 1.2.4-1.8 2.3-4.7 3.4-4.9.5-.1.7-.5.1-.5s-1.8.7-3.5 1.9c-2 1.5-1.9 1.1.2-.8 2-1.5 2-1.5.9-1.2m-8.3 2.5c-.5 1-4.5 5.5-4.7 5.3 0 0 .7-1.1 1.6-2.2 1.8-2.3 2.6-3.6 2.3-3.6-.1 0-.6.5-1 1.1-.5.7-1.4 1.4-2.3 2l-1.5 1-.5-.5c-.5-.6-.2-.8.4-.2.2.2.4.3.5.2.2-.2-.5-1.5-.8-1.5-.1 0-.3-.3-.4-.7-.5-1.1-2.6-1-3.6.2-.2.2-.3.2-.8-.2-1.3-1.1-5.4.5-5.9 2.4-.1.5-.7.7-.7.3 0-.3-.7-.6-1.3-.4-.4.1-.8.1-1.1-.1-.8-.4-2-.1-2.8.6-.4.4-.7.5-.8.4-.7-1.2-4-.3-5.6 1.4-3.3 3.6-6.5 10.7-8.2 18.2-.1.7-.4 1.7-.6 2.4-.3 1-.6 3-1 5.4-.1.4 0 .7.1.7.2 0 .2.2-.4 3-.4 1.9-.5 8.6-.2 9.1.5.8.8.1 1.1-2.7.1-1.1.6-3.5 1-5.5.4-1.9.9-4.3 1-5.2.6-4 1.4-7.8 1.7-7.6 0 0-.1 1.2-.3 2.7-.4 3.1-.4 2.9-.2 2.9.1 0 .4-.7.6-1.5.4-1.3 2.8-7.1 2.8-6.7 0 .5-1.8 8.1-2.1 8.8-.5 1.1-1.6 4.7-1.6 5.2 0 .2-.1.3-.2.3s-.2.2-.3.5c-.1.3-.3 1.5-.5 2.7-.2 1.2-.5 3.3-.6 4.8-.2 2.8-.3 3.2-.6 2.7-.1-.2-.2-.1-.1.2.1.3.2 1.1.3 1.9.7 4.5 3.3 10.8 4.5 11 .6.1.5-.4-.2-2.4-.9-2.3-1.7-5.7-1.8-7.3-.1-.8-.1-1.1 0-.9.9 4.4 2.1 7.6 2.6 6.9.4-.5.3-1-.3-4.2-.3-1.6-.6-4.1-.7-5.9-.1-1.7-.2-3.6-.3-4.2-.2-1.8.4 1.8.8 5.1.6 4.8 1.1 6.1 3.7 10.1.5.9 1.3 2.1 1.7 2.7.4.6.8 1.1.8 1.1.1 0 .4.3.8.6 1.7 1.5 1.8.8.2-2.1-1.2-2.1-1.2-2.1-1.5-6.3-.1-1.8-.2-2-.9-1.6-2 1.1-3.6-4.7-2.2-7.5.2-.4.5-1.1.6-1.5.1-.4.4-.9.6-1.2l.4-.5-.1 1.1c-.3 3.3-.4 4.5-.1 4.8.3.4 1 0 1-.5 0-.4 0-.4.6.1 1.6 1.3 1.9 1.7 2.4 3.8.6 2.3.8 2.7 2.1 4.6 1.1 1.6 2.2 2.7 2.9 2.9.3.1.4.1.3 0-.4-.3-2.6-5-3.3-7.1-.4-1.1-.9-2.4-1.1-2.8-.7-1.4-2.5-8.2-2.3-8.5 0 0 .4 1 .9 2.4 1.6 4.8 2.8 8 3.4 8.7.3.4.3.4-.1-.9-.7-2.2-1.4-4.5-2.8-9.9-.7-2.7-1.5-5.8-1.8-6.8-.9-3.2-1-13.5-.3-17.5.2-1.3.7-2.6.5-1.5-.4 2.9-.6 8-.2 7.7 0 0 .2-.8.3-1.7.2-1.8.9-4.2 1.8-6.5.7-1.8.9-1.9.5-.3-1.6 6.3-2 12.3-1 16.1.1.3.1 1.5.2 2.8.1 3.1.6 5.3 2.8 12.1.5 1.5 1.1 3.1 1.4 3.6.6 1.1 1.9 4.1 2.4 5.8 1.2 3.5 2.3 2.9 1.4-.9-.2-.7-.7-2.8-1.1-4.7-.4-1.9-1.5-5.6-2.3-8.2-2.1-6.7-2.2-7.3-2.2-7.7 0-.2.4.8.9 2.1.9 2.6 1.4 3.1.8.8-.2-.8-.6-3.3-.8-6.4-.3-3.4-.6-5.2-.8-5.6-.2-.3-.3-.7-.3-.9 0-.2-.1-.4-.3-.5-.5-.4 0-6.3.7-9 .4-1.4 1.1-3.5.9-2.3-.1.3-.3 2.1-.6 4-.6 4.2-.5 5.5.2 2.1s2.3-7.8 3.3-8.9c.7-.7.7-.7.4.2-1.3 3.5-2.3 10-2.3 15.5 0 5.8.8 11.5 1.6 11.8.5.2.5-.2.3-5.4-.1-2.8-.2-6.2-.1-7.4.1-1.2.2-3.4.2-4.8.1-1.4.2-3.2.4-4l.3-1.5-.1 1.3c-.3 3.3-.4 5.9-.2 6 .2.1.2-.1.6-3.4.3-2.5 1.3-6.3 1.9-7.4.2-.4.3-.5.3-.3-.3.9-.3 1.1-.1 1.1.3 0 .7-1.4.4-1.6-.3-.2.7-2.2 1.1-2.4.5-.2.7.1.2.3-.4.2-.4.6 0 .6.3 0 .2.1-.1.7-1.1 2.1-2.3 7.5-2.8 12.2-1 8.8-1.1 10.4-1.1 12.4 0 2.9 0 3 .2 3 .1 0 .2-.5.2-1 0-.6.2-1.9.3-3 .2-1.1.4-3.4.6-5.3.4-4 .7-5.5.6-2.8-.2 3.4-.5 7.1-.8 8.9-.4 2.8-.6 4.8-.3 4.8.2 0 .3-.5.5-2.4.1-1.4 1.1-7.5 1.2-7.9.1-.4 1-5.9 1.4-8.8.3-2.7 1.4-6.6 2.3-8.3.8-1.6.8-1.5 0 .8-1 3-.9 3.2.6.8 1.1-1.8 2.3-3.2 3.1-3.6.8-.4.7-.2-.1.3-2.3 1.3-4.1 8.6-2.9 11.5.2.5.2.8.1.9-.1.1-.2.5-.2 1 0 .4-.1.7-.2.7-.1-.1-.2 0-.2.1s-.1.5-.1.9c-.1.3-.1.6 0 .6.3 0 .1 1.6-.2 2.1-.1.2-.4.4-.5.4-.1 0-.2.1-.1.2s0 .2-.1.3c-.3.2-.2.7.1 1.2.3.4.3.4 1.8-.5 2.5-1.3 3.9-1.1 4.3.8.2.9.7 1 .9.1.3-1.5-.1-3.3-.9-3.9-.6-.4-.4-.7.2-.3 1.4.7 2 2.2 1.6 4.2-.2 1.3-.2 1.4.2 1.9.6.7.5.8-1.2.2-1.2-.4-4.2-1.1-4.7-1.1-.8 0 0 .8 1.6 1.6 2.8 1.3 2.8 1.3 2.4 1.2-1.5-.3-3.8-.3-3.8 0s1.1.9 2.2 1.2c.5.1.6 1.3.1 1.5-.3.1-.1.5.7 1.4l.8.8-.7-.3c-.4-.2-1.3-.4-2-.6-.7-.2-1.8-.6-2.4-.9-1.2-.6-1.6-.7-1.6-.3 0 .5 1.4 1.6 2.5 2.1 1.2.5 1.1.8-.2.6-1.5-.2-2.3-.6-3.6-2-1.8-1.8-2.6-1.6-1.4.4 1.8 3.2 5 4.2 10.1 3.3 2.9-.5 2.8-.9-.4-.9-2 0-1.9-.1.4-.5.7-.1.7-.2.6-.6l-.1-.5.5.5c.6.5.6.4.2-.4-.4-.7-.4-2.3 0-2.5.2-.1 1.1.4 2.8 1.4.7.5.5-.1-.4-1.1-1-1.1-1.1-1.3-.5-1 .6.3 2.8 2.8 2.8 3.2 0 .5.8 1.7 1.7 2.8.6.6.8 1 .7 1-.1.1-.2.2-.2.4s-.2.3-.6.3c-.8 0-1.3-.7-1.6-2-.3-1.1-.5-1.3-.5-.5 0 1.5 1 4 2.2 5.6 1.7 2.2 1.6 2.6-.2.8-.9-1-1.9-2.1-2.1-2.5-.2-.4-.5-.7-.6-.7-.3 0-.2 1.4.1 2 .2.3.3.7.3.9 0 .4.6 1.2 2.1 2.9.6.7 1.3 1.6 1.6 2.1l.6.9-.6-.5c-2-1.8-4.7-2-5.4-.5-.9 1.9-.9 1.9-1.4 1.6-.4-.2-.4-.3-.2-.5.3-.4 1.3-2.8 1.3-3.2 0-.4-.1-.4-.6.1-.6.5-1.5.7-2.9.4-.6-.1-1.2-.2-1.3-.1-.3.3.2.9.7 1 1.1.2 2.3 1.8 2 2.7-.4 1.1-2.5 2-3.1 1.2-1.1-1.3-1.6-5.3-1-6.5.3-.5 0-.6-.3-.2-.5.6-1 5.6-.7 6.6.1.3.1.4-.1.3-.1-.1-.4-.6-.5-1.2-.4-1.2-.5-1.3-.9-.5-.2.4-.2.8 0 1.4.2.7.2.8-.1.7-.2-.1-.5-.2-.8-.2l-.5-.1.4.5c.2.3.3.6.3.6-.2.2-1.8-1.2-2.1-1.8-.4-.9-.8-.8-.8.2 0 2.9 3.2 5.6 5.5 4.6.4-.2 1-.4 1.4-.5 1-.3 2.7-1.4 2.7-1.8 0-.2-.3-.4-.8-.5l-.8-.2h.6c2.1-.1 4.7 2.8 5.1 5.6.2 1.5.5.7.5-1.5 0-1.1 0-2.1-.1-2.2-.3-.5-.4-1-.1-.6.2.3.7 1.5 1 2.4.2.8.4 0 .3-1.3-.1-1.5-.5-2.9-1.2-4.1l-.4-.6.6.2c2.4.6 4.4 2.1 5.6 4.3.1.2.2.2.3.1.2-.2-.9-2.3-1.9-3.7-.7-1-.7-1-.2-.7.7.4 2.3 2.1 2.7 2.9.3.7.6.9.6.4 0-.3-.6-5.4-.7-6.1-.1-.3.1-.1.3.5.5 1.3 1 4.2.9 4.5-.2.3.2.2.5-.1.3-.3 0-2.5-.6-5-.3-1-.5-2.1-.5-2.3 0-.6-.9-2.3-1.6-3.1l-.6-.7.7.1c1.1.2 4.8-.5 4.8-.9 0-.1-.5-.1-1.1 0-1.1.1-3-.1-3.6-.4-.2-.1.4-.2 1.3-.2 2.8 0 4.6-.8 2.4-1-2.2-.2-2.4-.7-.2-.6 2.2.1 2.6-.2.7-.5-2-.4-5.6-2.6-5.1-3.1.1-.1.3.1.6.4.7.6.6.4-.2-.9-.6-1-1.7-3.1-1.6-3.4 0-.1.4.5.8 1.3 1 1.8 2.4 3.8 2.7 3.9.2.1 0-.4-.4-1-.8-1.3-2.1-4-2.2-4.7-.1-.3.4.6 1.1 2 1.8 3.4 2.1 3.4.9-.2-.6-1.7-1.5-5.5-1.3-5.6 0 0 .3.8.5 1.9.6 2.4 1 2.9.6.6-.1-.6-.2-1.8-.1-2.9l.1-1.9.2 1.2c.3 2.1.8 5.1.9 5.3.1.1.4 1.1.6 2.3.6 2.5.9 3.1 1.7 3.1.7 0 .6 0 .4-.7-.2-.5-.2-.5.1-.2.2.2.3.4.3.5 0 .3 3.4-.8 4.1-1.3 0 0-.2-.4-.6-.8-.6-.6-2.9-4.7-2.9-5.1 0-.1.6.8 1.3 1.9 1.9 2.9 3.5 4.2 3.7 2.9 0-.3-.3-.8-.9-1.6-.5-.7-1.4-2.1-2-3.2s-1.3-2.5-1.7-3c-.8-1.2-1.5-2.7-2.1-4.5-.3-.9-.6-1.3-.8-1.4-.4-.2-.5.4-.2 5.2.1 1.7-.8-2-1-4-.1-1.2-.7-2.2-.7-1.1 0 .2-.1.3-.2.4-.4.2.4-7.4.8-8.4.9-1.9.9-6.7.1-5.7-.4.5-1.7 4.1-2.5 7.3l-.3 1 .1-1c.2-1.7 1-5.6 1.4-6.5.2-.5.4-.9.3-1-.1-.1-1.2.3-1.3.5-.1.1-.2 0-.4-.1-.3-.3-.2-.3 0-.2.2.1.3 0 .3-.1s-.4-.2-.8-.2c-.8 0-1 .4-.2.4.2 0-.2.2-.9.5l-1.2.5.1 2.4c.2 3.7-.8 6.9-2.6 8.5-1.2 1-.9 2.4.5 2.6 1 .2 2.4.9 1.9 1.1-.2 0-.3.2-.3.3s.2.2.4.1c.7-.2.6.2-.7 1.7-.7.8-1.3 1.6-1.3 1.7 0 .5 1.3 3.3 2.1 4.7 1.4 2.2 1.5 2.4 1 2.2-.2-.1-.5-.4-.6-.6-.3-.5-.7-.5-.7.1 0 .7.7 2.7 1.2 3.4l.7 1.1.3.7-.6-.4c-.3-.2-1-.8-1.5-1.4-.5-.6-1-1-1.1-1-.3 0-1.1-1.4-1.6-3l-.4-1 .6.7c.3.4.9 1.1 1.2 1.7.9 1.4 1.3 1.4.6 0-.2-.3-.3-.7-.2-.7.5-.7-1.5-3.8-3.1-4.9l-.9-.6.5-.7c.5-.7 2-2 2.1-1.9.1.1.9-.6.9-.8 0-.1-.6-.3-1.3-.5-1.9-.5-3.5-1.3-2.7-1.3.3 0 .9.1 1.3.2s1.1.2 1.6.3c1.5.2.8-.4-.9-.7-.8-.1-1.9-.5-2.7-.9-.7-.4-1.4-.6-1.5-.6-.3.1-1.8-.7-2.4-1.3l-.4-.5.8-.7c.5-.4.9-.7 1-.7.1 0 .4 0 .6-.1.3-.1.3 0-.1.5-1.1 1.2-.5 1.3.7.2 3.4-3.3 3.9-3.3 1.6-.2-2.1 2.8-.3 3.1 2.1.5 1.3-1.4 1.5-2 1.8-5.2.3-3.3.3-3.3-.3-2.2-.6 1-.6 1-.3-.4.3-1.5.3-1.5-.6-.1-.7 1.1-3 3.5-2.8 3 0-.1.7-1.1 1.4-2.2 1.3-1.9 2.3-4 2.3-4.7 0-.2.3-.9.7-1.5.7-1.2 1.1-3.1.7-3.1-.1 0-.3.2-.3.4-.3 1.1-3.7 5.4-3.9 5.2 0 0 .4-.7.9-1.4.6-.7 1.4-2.3 2-3.4 1-2.2 1.3-3.2.3-1.3m-38 .1c-.3.1-1.5 1.3-2.8 2.6l-2.3 2.4 1.1-1.6c1.4-2.1 1.4-2.2 0-1.9-1.6.4-6.4 1.2-7.6 1.3-.5 0-1.5.2-2.2.3-1.5.2-8.4.6-12.6.7-3 .1-5.8.4-7.3.9-1.9.7-5.4 2.5-7 3.8-1 .7-2.6 1.9-3.6 2.6-1 .7-2.2 1.6-2.6 2.1-.4.5-.9 1.1-1.1 1.2-.3.3-.4.9-.1 1 .2.1 1.8-1 2.1-1.4.1-.2.2-.2.3 0 .1.2.3.1.8-.4.9-.8 1.9-1.2 3.1-1.2 1 0 3.1-.8 4-1.5.2-.2.1 0-.2.5-.9 1.2-2.2 2.3-3.3 2.9-1.9.9-4.5 4.1-3.9 4.7.9 1.1 2.4 1.3 3.6.5.6-.4 1-.6 1.5-.5l.6.1-1.2 1.8c-.8 1.2-1.3 1.7-1.4 1.6-.7-.7-1.5 0-1.5 1.4 0 .8-.1.9-.5 1-.3.1-.5.2-.5.3 0 .1-.4.6-.9 1.2-.8.9-.9 1.1-.8 1.7.2 1 .1 1 1.4.1l1.1-.8.1.7c.3 1.6 0 2-2.1 2.5-.7.2-.7 1.1 0 1.3.4.1.5.3.6.8.1.9.5 1.4 1.7 2.2 1.9 1.2 3.9 3.6 4.1 4.8 1 6.9.4 9.4-3.6 13.8-6.7 7.5-7.7 10.1-6.2 16 .7 2.9.8 2.6-.3 4.8-1.2 2.5-1.4 5-.3 6.7.7 1.2 1.3 3.4 1.1 3.8-.7 1.4-6.8 2.3-10.2 1.5-2.4-.5-4.6 0-3.6.9.4.4 4.4 2 6.1 2.4 4.7 1.3 4.3 1.2 6.9 1.1 1.3-.1 2.5-.1 2.6-.1.4 0 2.5.4 5.3 1 3.7.8 5.9.9 6.6.2 1.6-1.6 3.7-5.6 4.9-9.2 2-6 2.5-7.6 3-9.6 1.6-5.5 4.8-9.1 10.9-12.4 1.2-.6 3.8-2.5 4.7-3.3.5-.4 1-1.4 1.7-3 .6-1.3 1.4-3.1 1.9-4.1 1.1-2.2 1.1-2.3-.1-4.1-2-3.1-3.2-7.2-3.1-10.7l.1-2.4.8-1.2c.4-.7 1.4-1.8 2.1-2.5 1.1-1.1 1.3-1.4 1.3-2 0-.4.1-.7.2-.7.4 0-.1 1.9-.7 2.5-1.4 1.5-2.6 3.6-2.6 4.4 0 .8.4.5 1.1-.8.4-.6 1.3-1.8 2.2-2.7 2.7-2.7 2.6-5.6-.3-5.2-1.3.2-1.7.1-3.1-.3-3.6-1.1-4.6-1.2-6.9-.6-.9.2-2.1.5-2.8.6l-1.2.3-.1 1.1-.1 1.1-.3-1.7c-.3-1.7-.3-5.4-.1-6.2.2-.9.5-.3.5 1-.1 1.5-.1 1.5 1.7 1.7 1.1.1 2.2 0 6.5-.9.9-.2 2.2-.4 3-.4 4-.5 7-1.4 7.5-2.5.3-.6-.3-2.7-.9-3.4-1.5-1.7 5.3-13.1 7.8-13.1.8 0 1.6.3 1.8.7.1.2-.2.2-.9.2-1.8 0-1.4.5.8 1.1.6.1 1 .3 1 .4 0 .1.2.2.4.2.4 0 .4-.1.3-.5-.1-.3-.2-.7-.2-1 0-.2-.5-1-1.1-1.6l-1-1.2h-2.7c-1.3 0-2.7.1-3 .2m81.9.5c-1.1.8-2.6 1.5-3.1 1.5-.6 0-1.4.5-1.4.7 0 .1-.3.4-.6.7-.7.5-2.7 3.1-3.2 4-.5.9-.1.8.9-.4.5-.7 1.3-1.4 1.7-1.7l.7-.5-.5.7c-.3.4-.7 1-1 1.4-1 1.3-1 1.8 0 .9s2.6-2.1 3.7-2.8c.7-.4.7-.4-.4.9-.6.7-1.4 1.8-1.8 2.4-.8 1.4-1.1 1.7-2.4 2.1-2.1.7-1.5.9 2.4 1 1.9 0 3.6.1 3.9.2l.5.1-.5.4c-.5.4-.7.4-2.2.3-1.5-.1-3.3 0-4.9.4-1.4.3-.1 1 2 1 .8 0 1.8.1 2.4.3.6.2 1.9.4 2.9.5 2.2.3 3.9 1.3 5.8 3.3 1.4 1.5 1.4 1.4.1-.6-.8-1.2-1.3-1.8-2.1-2.4-.6-.4-1.1-.8-1.1-.8 0-.2 2.1.7 2.7 1.2.9.7 1 .5.3-.4-.4-.6-1-1-2.2-1.6l-1.6-.8.9-.1c.5-.1 1.2 0 1.8.2 1 .3 1.2.3 1-.2-.2-.4-1.1-.8-2.8-1.1l-1.4-.2.8-.2c.4-.1 1.2-.1 1.8-.1 1.6.2 1.2-.2-1-.9a9.4 9.4 0 0 0-4-.7c-1.4 0-1.9-.1-1.9-.2.4-.7 4.3-5.3 5.8-6.9 2.2-2.4 2-2.4-1.4-.4-1.5.9-2.9 1.7-3.2 1.9-.7.4 1.5-1.6 2.7-2.4 1.4-1.2 1.4-1.7-.1-.7m-18.9 1.3c-.3.6-.5 1.2-.5 1.3 0 .1-.4 1.4-1 2.7-1 2.5-1.2 2.3-.5-.4.3-1.1.3-1.3 0-1-.3.2-1.6 2.2-1.7 2.7l-.2.4c-.2-.2 1-3 1.7-3.7l.6-.6c-.1.1-.2 0-.4-.1-.2-.2-.3-.2-.3 0 0 .1-.3.4-.6.5l-.6.3.7-.6c.4-.3.8-.5.9-.5.1 0 .5-.2.8-.4.4-.4.5-.5.2-.4-.4.1-.4.1 0-.2.2-.2.5-.3.6-.3.1 0 .3-.2.5-.5.4-.9.3-.3-.2.8m11.5-.2c-2.6 1.4-4.3 2.6-4.5 3.1-.1.6 0 1.1.4 1.1.1 0 .2.1.2.2 0 1.3.3 1.2.9-.2.9-2 1.3-2.1.8-.3-.7 2.4-.4 2.6.6.4.6-1.4 2.8-4.4 3.3-4.6.1-.1.3-.2.4-.4.2-.3-.5-.2-2.1.7m-19.4 1.2c-.5.1-1.9.5-3.2.7l-2.3.4-.4.9c-.6 1.3-1 3-1.2 4.4-.1 1-.1.8-.1-.8.1-1.1.2-2.5.4-3 .3-1 .3-1.2-.2-.8-1.6 1.3-2.2 9.3-1 12.9.8 2.5 2.6 6.4 3.4 7.6.4.6 1.2 1.7 1.6 2.5 1.5 2.5 2.8 3.7 3.9 3.7.5 0 .4-.2-.7-1.4-.6-.6-1.4-1.7-1.9-2.3l-.9-1.2 1.2 1.3c2.4 2.6 3.7 3.2 4.9 2.2l-.7-.9c-1.7-1.8-1.9-2.4-.3-.9.9.8 1.7 1.5 1.8 1.5.6 0 .4-.5-.6-1.6-2-2.4-3.5-4.5-4.4-6.5-1.3-2.7-1.2-2.7.3-.2 1.7 2.9 4.6 6.5 4.3 5.4-.1-.5-.5-.9-1.6-2.1-1.6-1.8-2.5-6.3-1.7-9.5.2-1 .2-1.3 0-2.1-.4-1.5-.5-1.7-.5-3.6 0-1.4.1-1.9.4-2.6.2-.5.5-1.4.5-2.1 0-.7.2-1.4.2-1.6.2-.7 0-.7-1.2-.3m-162.3.9c-.3.5-.9 1.2-1.3 1.4-.7.4-.9 1.2-.4 1.2.2 0 .3.1.3.2 0 .4-.4 1.4-.6 1.4-.1 0-.2.2-.2.4 0 .6-.3.6-.6 0-.7-1.8-5.4-2.3-7.3-.9-.2.2-.5.3-.6.3-.3 0-3.2 1.5-4 2l-.6.4.6-.7c.3-.4 1.3-1.1 2-1.5 1.4-.9 3.8-3.1 4-3.8.1-.3.1-.3.6 0 .5.4 1.8.5 2.1.2.2-.2.3-.1.6 0 .3.2.5.2.7.1.2-.1.8-.1 1.3-.1 1.3.2 2.4-.2 3.2-1 .8-.8.8-.7.2.4m45.5.5c0 .2.3.4.7.6.6.3.7.3.5.8-.4 1.1 0 2 .8 2.2.9.1 1.1.4.6.8-.2.2-.6.6-.8.9-.2.3-.4.6-.5.6s-.2.2-.2.4-.1.4-.1.4c-1.1-.2-4 1.4-4 2.2 0 .6.4.6 1.3.2 2.5-1.3 6.1 0 6.3 2.3.2 2.4-.5 3.7-2.3 3.9-1.2.1-1.3.5-.4.9 1.3.7 4-.3 4.8-1.7.6-1 .8-2.8.4-3.2-.2-.2-.3-.6-.4-.8-.3-1.2-2.6-3.5-3.5-3.5-.8 0-.1-1.6 1-2.2 1.1-.5.7-2.7-.5-2.8h-.6c-.2 0-.3-.2-.3-.4-.1-1-.1-1.3-.4-1.5-.4-.5-2.4-.5-2.4-.1m63.4 1.5c-.6.5-3 4.3-3.6 5.8-.8 2-.8 2.1 0 4.1 1.1 2.7 1.1 2.5-.4 3.4-.8.5-2 1-3.4 1.3-2.7.7-3.5 1.1-3.5 1.8l.8-.2a10 10 0 0 1 2.3-.5c2.4-.3 5.9-1.5 6.8-2.3.5-.5.3-1.4-.5-2.3-1.9-2.2-1.6-4.6 1.3-8.8 1.2-1.8 1.4-3.2.2-2.3m35.2.4c-.6 1.6-2.1 3.3-4.1 4.6-.4.3-1.3.9-1.9 1.3-2.5 1.7-.6-.5 2.9-3.4 1.4-1.2 2.6-2.3 2.8-2.5.4-.6.5-.6.3 0m45.8 0c-1.6.3-3 1.5-3 2.4 0 0 .3-.1.7-.2.4-.1 1.2-.3 1.7-.4.9-.1 3.4-1.5 3.4-1.9 0-.2-1.5-.2-2.8.1m-179.1.8c-.1.2-.3.7-.6.9-2 2.2-2.8 7.4-1.8 11.2.3 1 .3 3.5 0 3.6-.1 0-.4.5-.6 1-.4 1-1.3 2.3-1.5 2.1-.1-.1.1-.3.3-.6.4-.6.5-3.1.2-5.8-.1-.6 0-1.1.1-1.1s.1-.1.1-.2-.2-.2-.3-.2c-.3.1-.7-1.5-.7-2.9a7 7 0 0 1 1.5-4.3c.4-.4.7-1 .7-1.2 0-.3 2.4-2.9 2.7-2.9-.1-.1-.1.1-.1.4m44.8 2c-.2.5-.2.5.3.5.3 0 .4-.1.3-.3-.1-.5-.5-.6-.6-.2m-54.5 1.4c-.2.4-.6.8-.7.9-.1.1-.5.8-.9 1.5-.4.8-.7 1.3-.9 1.2-.1 0-.2.1-.2.2s.1.3.2.3.2.1.2.3c0 .4.6 1 1 1 .6 0 1.8 1 2.2 1.8.7 1.4 1.4.7 1-1-.5-1.9-.1-3.8 1.1-5.2l.5-.6-.2.6c-.1.3-.2.7-.3.8-.3.5-.3 6.3 0 8 .2 1 .2 2 .2 2.1-.2.5-1.4 3.4-1.6 3.8-.1.2-.5.9-.9 1.7-1.3 2.4-3.9 4.3-6.1 4.5-1 .1-1.8 0-4.4-.8l-1.1-.3-.6.6c-.7.8-.7.8.1 1.6 1.4 1.4 2 1.7 4.3 2.2 1.3.3 3.5-.7 5.3-2.5 2.2-2.1 3.5-3.1 4.4-3.4 3.4-1 4.2-1.3 5.1-2.1.5-.4 1.3-1.1 1.8-1.4 1.2-.9 2.8-3.1 4-5.4 1.3-2.6.5.2-1.3 4.5-.4 1-1.2 2.5-1.8 3.2s-1.3 1.8-1.6 2.3c-.8 1.2-.9 1.3-1.8.5-1.3-1.2-2.6-1.3-5-.5-1.2.4-3.6 3-4.5 4.9-1.1 2.1-.9 2-1.5 1.5-.5-.5-1.1-.5-1.6-.1-1 .7-3.1 0-5.9-1.9-1.6-1.1-4.2-1.7-5.3-1.1-.7.4-.3 1.4.5 1.4.3 0 .4.1.4.3 0 .2.2.5.5.7l.5.4-.4.1c-.2.1-1.2.9-2.1 1.8-2 2-4.1 3.8-4.1 3.6 0-.3 2-3.1 2.8-3.9.2-.1.5-.5.8-.7.7-.6.6-1.3-.1-1.4-.3 0-1.1-.1-1.8-.2s-1.4-.2-1.5-.1c-.1.1-.5.1-.8.2-.7.1-3 1.1-3.5 1.6-1.8 1.7-2.8 4.6-3.2 10.4-.4 4.9-1.6 7.3-3.8 7.7-1.1.2-1.9 1.8-1.5 2.8.1.3.2.5.2.6 0 .1-.5-.2-1-.5l-.2-1.5-.1-1.4-.6-.1c-.6-.1-1.4.7-1.4 1.3 0 .5-.5-.4-1-1.7-.5-1.4-.5-2.6-.2-3.4l.2-.6.5 1c.8 1.6 2.9 3.2 4.2 3.2 1 0 1.6-1.7.8-2.2-.6-.4-.5-1.2.6-3.1 1.4-2.5 2.1-5 1.9-6.9-.1-1 1.1-5 1.8-5.7.2-.3.8-1 1.2-1.7s1.5-2 2.3-3l1.5-1.9-.1-1.5c-.3-4-.2-8.7.2-6.7.8 4.3 1.8 6.9 3.2 8.1 1.5 1.4 4.3 1.7 5.1.6.3-.4.6-.5 1.1-.6.5 0 .9-.2 1.1-.5.2-.2.6-.7 1-1 .4-.3 1.3-1.6 2.1-2.8a59 59 0 0 1 2.1-3c.6-.8 2.3-4 3.4-6.1.7-1.3 1.4-3.9 1.7-5.9.1-.8.3-1.5.4-1.6.1-.1.2 0 .1.3-.5 2.6-.4 2.6 1.5.7 1-1.8 1.1-1.9.5-.8m115.9 3.9c-1.2 4.1-1.5 12.7-.7 15.8.1.3 0 .3-.1.2-.2-.1-.2.1-.1.9.5 3.7-1.4 11.9-2.2 9.5-.9-2.6-1-5.1-.3-6 .6-.7.7-.7 1 .5.1.5.3.8.5.8.4-.1.4-1.6.1-2.3-.2-.4-.4-1.7-.5-3.5-.1-1.6-.3-3-.3-3-.4-.7 1-9.1 2.1-12.1.3-.9.6-1.7.6-1.7 0-.1.1 0 .1 0-.1.1-.1.5-.2.9m-70.5.2c0 .2.1.8.2 1.4l.1 1-1.1 1c-1.1.9-1.1.9-1.4.6-1.1-1.2-3.8-1.8-4.9-1.1-.7.4-.6.8.1.6 1.6-.4 2.3-.1 4.8 2.3 2.9 2.7 4.2 8.8 3 13.6-.6 2.6-4.1 5.6-5.9 5.2-1.1-.2-2.1-.6-2.8-1.1-.8-.5-1-.3-.6.5 1.7 3.4 7.4 4.4 9.4 1.6 1.9-2.5 2.3-3.4 2.5-4.6.3-3.2.4-5.3.2-6.9-.2-1.7-2.6-7.2-3.5-8.2l-.5-.5.5-.5c.3-.3.6-.5.8-.5 1.1 0 2-2 1.2-2.7-.1-.1-.3-.5-.4-.8-.5-.9-1.8-1.7-1.7-.9m137.8.9c-1.7.3-1 .8 1.3.8 2.8 0 2.7.4-.4.8-2.2.3-2.2.3-.8 1.3 1.1.8 1.9 2 3.1 4.7.3.8.7 1.5.9 1.6.2.1.1.3-.1.7-.4.7-.8 1.4-1 1.8-.1.2-.5.4-1 .5-1 .2-1.1.8-.1.9.7.1 1.5-.2 2.8-1.1.5-.3.8-.4.7-.3-.2.4.9-.1 1.3-.6.2-.2.5-.4.6-.4s.6 0 1.1-.1c.5 0 1.2-.2 1.5-.4.3-.2.7-.4.9-.4.8-.3 0-.5-1.3-.4-1 .1-1.5 0-1.5-.1s.2-.2.4-.2c.8 0 .3-.3-1.1-.7-1.7-.5-2.4-1.1-3.2-2.5l-.6-1.1.8.8c1.1 1 2.2 1.6 3.4 1.7 1.2.1 1.4-.4.3-.6-.4-.1-1.1-.6-1.9-1.3-.8-.7-1.6-1.2-2.1-1.4-.8-.2-2.2-1.4-1.9-1.7.8-.8 4.7 0 6.5 1.5 1.9 1.5 1.4.7-1-1.6-2-2-4.6-2.8-7.6-2.2m-9.4 1.1c-.6.7-.8.9-.8.7 0-.1 1.2-1.5 1.3-1.5.1 0-.1.4-.5.8m-199.7.7c-.4.7-1 1.6-1.2 2-.5.7-.8 1-2.6 3-2.6 2.9-3.6 6.1-3.3 10.4.3 3.4.3 3.3 0 4.6-.1.5-.3 1.5-.4 2.3-.1 1.3-.2 1.2-.1-1.1.1-3.1-.1-4.8-.8-6.7-1.5-4.6.6-8.7 7.6-14.8 1.6-1.3 1.7-1.3.8.3m22.6 2.7c-1 2.2-2.3 4.2-3.4 5.5-1.5 1.6-3 3.7-2.9 3.9 0 .1.5.5 1 .8 3.7 2.4 9.5-2.4 8.2-6.7-1.4-4.5-2.1-5.4-2.9-3.5m81.3.3l-.1 1.4 1.3-.2c.7-.1 2-.2 2.8-.2h1.5l.1 1.5c.1 1.1 0 1.5-.2 1.4-.4-.2-3.3-.1-4.5.2l-1.1.2-.1 1.5c-.2 2.7-.3 1.9-.3-2.6 0-4.4 0-4.7.5-4.7.2.1.2.5.1 1.5m104.5-1.1c.1.2.4.3.7.3.4 0 .4 0 0-.3-.6-.4-1.1-.4-.7 0m-122.3.4c-.5.1-.6.7-.2.7.4 0 .8-.4.8-.6 0-.2-.1-.2-.6-.1m120.7.4c-.3.1-.3.7 0 .7.6 0 .7.7.1 1-.3.2-.6.4-.6.6 0 .1.3 0 .7-.2.4-.2.9-.4 1.1-.4.4 0 .4 0 .1.1-.6.2-2.1 2.4-2.1 3.2 0 .4.6.1 1-.5.8-1.3 1.9-1.4 2.2-.2.4 1.5.8.6.8-1.5.2-2-1.6-3.4-3.3-2.8m-106.8 1.2c0 1.2.1 1.3 1.1 1.1l.9-.1-.1 1.4c-.1.9-.2 1.5-.4 1.7-.2.1-.3.4-.2.7 0 .3 0 .5-.1.6-.5.2-2.1-5.4-1.8-6.2.1-.6.6.1.6.8m-33 .9c-.2.3-.6.6-.8.6-.2 0-1.3.3-2.4.6-1.1.3-2.5.7-3.2.8-1.3.3-2.9 1.5-2.9 2.3 0 .2-.2.7-.5 1.1-.5.8-.7 1.8-.2 1.8.2 0 .4-.3.6-.7.2-.4.4-.7.5-.7.1 0 .5-.2.9-.5s1-.5 1.6-.6c1-.1 1.2 0 .6.6-.8.9-.5 4.3.7 5.8 1.5 2.1 4.6 3.3 6.4 2.5l.6-.3h-1c-2.2 0-4.6-2.7-4.9-5.3-.3-2.7-.2-3.5.2-3.5 1.8 0 3.4-.9 4.6-2.7l.6-.9-.3-.7c-.3-1-.6-1-1.1-.2m30.1 1.1c.8.3 1 .5 1 .9 0 .3.2.9.3 1.3l.3.7-.9.2c-.6.1-1.1.5-1.6.9-.8.8-1.3 1-3.2 1.2-2.6.2-2.6.3-2.6 1 0 .8-.3 1-.6.4-.3-.7-.5-6.2-.2-5.7.1.2.2.8.2 1.2 0 .5.1.8.1.8.3 0 1.9-1.1 2.7-2 1.8-1.6 2.5-1.7 4.5-.9m-52.5 3.7c-.2.2-.1.5.3.5.2 0 .4-.1.4-.3 0-.4-.4-.5-.7-.2m99.4 1c0 .4 0 .5.1.3v-.7c-.1-.1-.1 0-.1.4m140.5-.4c-1.5.2-5.8 4.4-6.9 6.8-.5 1.1-1.2 2.4-2 4-.3.6-1.1 1.5-1.7 2.1l-1.2 1.1 1.3-1.8c1.6-2.1 2.1-3 2.1-3.8 0-.8-.5-.8-.8-.1-.2.3-.9.9-1.9 1.5-.9.5-2.1 1.2-2.5 1.6-3.5 2.6-8 3.4-9.8 1.7-.6-.5-1.8-.9-3.4-1.1-.6-.1-1.3-.3-1.6-.5-.8-.6-2.6-.2-4.4 1-1.5 1-4.1 2.4-4.5 2.4-.1 0-1 .4-2 .8-2.2 1-1.9 1-7.2-.1-9.4-1.9-11.5-2.5-13-3.6-4.1-3.2-5.4-3.6-9.8-3.5-4.4.2-5.3.1-7.3-.6-2.2-.7-2.1-.7-2-.2.1.3-.1.7-.8 1.4l-.9 1 .3-.9c.2-.5.3-1.1.3-1.3 0-.3.1-.5.4-.6l.4-.2h2.3c2.9.2 5.7 0 5.7-.4 0-.2-.1-.3-.1-.3-.1 0-.4-.2-.7-.5l-.6-.5.4-.6c.5-.7.6-1.1.1-.9-.2.1-1.3.2-2.5.2-2.9.1-5.5.3-5.4.5 0 .1.7.3 1.5.5s1.4.5 1.4.6c0 .2-2.2 0-3.5-.4-2.5-.7-2.8-.6-1.9.6.8 1.1.6 1.3-.3.5-.9-.8-1-.7-.5.4.8 1.6.5 3.9-.6 5.2-.5.6-.7 2.3-.3 3.8.3 1.5.6 1.6 1.2.4.6-1.3 2.6-3.3 3.7-3.8 1.3-.6 1.3-.5.3.3-2.7 2.3-4 6.3-2.9 9.1 1.4 3.3.4 9.9-1.8 11.6-.5.4-1.3 1.1-1.8 1.6s-1.2 1-1.6 1.3c-1.3.9-2 3.2-1.3 4.2.2.2.5 1.2.8 2.3.6 2.3 1.1 3.2 2.1 4.1 1 .9 1.3 1.9 1.4 5.5.1 2 .2 2.7.5 3.4.5.9.5.9-.2 3.7-.1.5-.7 1.8-1.3 2.9-1.2 2.3-1.5 3.5-1.4 4.2.2.6.3.6.7-.1.2-.4.7-.7 1.2-1 1.3-.5 1.4-.5.5.2-2 1.4-1.4 5.7.9 7 1 .6 1 .6.5-.9-.6-1.6-.7-3.2-.1-2.8.3.2.3.2.4 0 0-.1.2-.2.3-.2.1 0 .3-.2.4-.4.2-.7 1.9-.4 4.5.9.5.3 1 .4 1.1.4.2-.2-1.7-2-2.7-2.7l-.9-.6.7.1c1.7.3 2.8 1.1 5.6 3.6 2.3 2.1 2.2 2.1 3 .6 1.7-3.3 1.1-5.9-2-9.2-3.4-3.6-3.6-5.2-2-14.1.7-4.3 1.2-5.4 2.3-6 .4-.2 1.4-1 2.3-1.8.9-.8 1.9-1.7 2.2-2s1.2-1 1.7-1.5c.6-.5 1.2-.9 1.4-.9.2 0 .7-.3 1.2-.7.5-.4 1.2-.9 1.7-1.2s1.6-1 2.6-1.6c2-1.3 5-2.8 7.1-3.5.9-.3 2.2-.7 3-1 1.8-.6 6.5-.9 9.4-.5.9.1 3 .3 4.7.3 5.4.2 2.4 1.1-3.6 1.1-4.1 0-4.6.2-.9.4 1.2.1 2.6.2 3.1.3.6.1 1.8.2 2.8.2 1.9 0 1.9.2 0 .6-2.2.4-1.8.6 1.8.9 3.9.3 9.1-2.1 15.8-7.1 2.9-2.2 5.1-3.8 7.4-5.2 2.1-1.3 1.6-2.1-.6-.8-1.4.8-2.9 1.6-3.8 1.8-.7.2.2-.7 1.9-2 3.3-2.5 5.1-4.5 5-5.6-.1-.9 0-1 .3-.5s.3.7.1 1.5c-.3 1 .2 3 .9 4.1.2.3.6.9.9 1.3.9 1.4 1.2 4.6.5 6.2-.3.6-.4 1.1-.3 1.5.1.6-.1.7-1.5 1.1-5 1.3-8.8 8.1-6.6 11.8.5.9.6.9 3.3-1.9 3.3-3.3 5.3-4.1 6.8-2.7.4.4.9.7 1 .7.1 0 .5.3.9.7.4.4.8.6.9.6.2-.1.2-.1-.1 1-.3 1.1-.5 4.6-.2 4.6.1 0 .6-.1 1.2-.3 3.5-1.2 3.9-5.6.8-9.6-1-1.3-1.5-2.1-.9-1.6.2.2.5.3.7.3.3 0 1.2.9 2.1 2l.4.5-.4-1.1c-.6-1.8-1.2-2.8-2.2-3.8-1.1-1-.8-1.2.4-.4.8.6 1.7 1.9 2 3.2.1.4.3.8.4.9.1.1.2.4.3.8.1.8.4.9 1.1.3 1.3-1 1-3.9-.7-7.4-.5-.9-.9-2.1-.9-2.5-.3-2.2-.5-6.6-.4-8.8.2-4.1 0-5.7-.5-4.2-.1.3-.4 1-.6 1.4l-.4.8.1-1.1c0-.6.3-1.8.6-2.6 1.5-5-.6-9-4.4-8.4m-67.7.6c-1.2.5-1.1 1.2.1 1.9.7.4 1.6 1.4 1.6 1.8 0 .1-.4.1-.8.1-.7 0-.8 0-.7.4.1.3 0 .4-.2.4-.4 0-.4.4 0 .5 1.7.5 3.3 1.3 4.3 2 2.9 2.1 3.6 2.5 2.6 1.2-.3-.4-.7-1-.9-1.3-.1-.3-.5-.9-.8-1.2l-.5-.6.5-.4c.5-.4.5-.4 1.2 0 1 .5 2.4.8 2.3.5-.2-.5-2.5-2.1-3.6-2.5l-1.2-.4h1.4c1.3 0 1.5.1 2.4.8 1.3.9 1.5.8.3-.4-1.3-1.4-2.4-1.9-4.8-2.1-.9-.1-1.2-.3-.4-.3.8 0 .6-.3-.5-.6-1-.3-1.2-.3-2.3.2m-72.7 2.5c0 .7.1 1.3.2 1.3.2.1.2-.4 0-1.7l-.2-.9v1.3m17.8.9c0 .4.1.5.4.5.3 0 .4-.1.4-.5s-.1-.5-.4-.5c-.3 0-.4.2-.4.5m11.9 1.9c.3.6 0 .4-.4-.3-.3-.4-.3-.6-.1-.4.2.2.4.5.5.7m-165.9-.3c-.1.1-.1.2-.1.3 0 .2.7.2.9 0 .1-.2-.6-.4-.8-.3m2.8.1c.1.4.5.4.5.1 0-.2-.1-.3-.3-.3s-.2.1-.2.2m182.6.3a6.6 6.6 0 0 1-2.4 3.8c-1.5 1-1.9 1.5-2.5 2.7-.8 1.5-.9 1.5-.8.1.1-1.2 0-1.6-.5-.9-.4.7-.2-.2.3-1.3.7-1.4.9-3.3.4-3.3-.2 0-.4.3-.5.6-.4 1.1-1.3 2.7-2.8 4.8-2.1 2.8-2.2 3.1-2.1 4.2.2 1.4 1.6 4.1 3.3 6 1 1.2 1.2 1.8 1 4.3-.2 3.3 1.3 5.7 3.3 5.2.9-.2.8-.8-.2-1.1-1-.3-1.1-.4-1.5-2.1-.6-3.1 1.4-6.4 2.2-3.5.4 1.6.9 1.8.9.4 0-2.3-1-5.7-2-6.6-.9-.8-1.2-1.8-.5-1.8 1.2 0 2.8 1.4 3.1 2.9.2 1 .8 1.3.8.5 0-.2-.1-1-.3-1.6-.2-.6-.3-1.4-.3-1.6 0-.3-.4-1-1-1.8-1.4-2-1.3-2.8.6-4.8 1.8-1.9 2.8-4.1 2-4.8-.3-.3-.5-.3-.5-.3m90.9 5.7c2 .8 2.2 1.5 2.5 9.4.1 2.2.2 4 .3 4.2.1.2.1.2-.3 0-.2-.1-.8-.2-1.3-.3-1 0-1.2-.2-.2-.4 1.6-.3 1.1-8.8-.7-10.8-.3-.3-.5-.7-.5-.9s-.3-.6-.7-1c-.4-.4-.9-.9-1.1-1.3l-.4-.6.8.6c.3.4 1.1.9 1.6 1.1m-295 1c.1 2.1-.2 5.8-.6 6.3-.7 1-.6-6.1.1-8 .2-.7.3-.4.5 1.7m50.1-1.3c-.1.4-.5 1-1.1 1.7-1.2 1.2-1.2 1.6.3 3.1.6.6 1.2 1.4 1.4 1.7l.4.6.2-.7c.1-.6 0-2.8-.3-4.6-.5-2.3-.7-2.8-.9-1.8m128 1.8c0 .3.1.5.2.4.1-.1.2-.2.2-.4 0-.1-.1-.3-.2-.4-.1-.1-.2.1-.2.4m-156.2 1.2c-.1.4-.5.7-1.4 1.1-.7.4-1.7.9-2.2 1.2l-1 .6 1-1c1.2-1.3 2.4-2 3.7-2.4 0 0 0 .2-.1.5m174.9.8c-.1.7 0 1.3.4 2.5.6 1.8.5 2-.1 1.2-.9-1-1.2-2.4-.7-3.5.4-1.4.6-1.4.4-.2m-62.9-.1c-.1.2.6 1.8 1 2.2 1.9 2 1.9 3.3-.3 7-.8 1.3-2.2 4.4-2.4 5.3-.1.3-.4.7-1 1-.5.3-1.2.8-1.7 1.2-.5.4-1.3 1.1-1.9 1.4-1 .6-1.6 1.3-1.3 1.5.2.2 1.7-.5 2.6-1.1.5-.3 1.7-1 2.7-1.5 1.9-1 2.7-1.9 2.7-2.9 0-.2.9-2.1 2-4.2s2-4.1 2-4.4c0-.6-1.5-2.9-2.6-4.1-.3-.4-.7-.9-.9-1.1-.4-.6-.7-.7-.9-.3m174.5.5c-.2.1-.6.4-.9.7-.3.3-1 .7-1.5.9-.5.2-.9.5-.9.7 0 .2-.1.3-.3.3-.1 0-.4.1-.5.3-.1.2-.3.2-.4.2-.1-.1-.2.1-.2.3 0 .5.3.6 2.9.5 1.2 0 2.2 0 2.2.1s.2.2.4.3c1.2.4 1.7 2.6 1.5 6-.1 1.9-.2 2.1-.6 2.3-1.4.8-5.9 8.1-5.9 9.5 0 .4.5.3.8-.2.1-.2 1-1.4 1.9-2.6 1.6-2.1 2-2.5 4.1-4.3 1.7-1.4 2.5-3.7 3-8 .3-3.2.1-3.9-2.2-5.1a7 7 0 0 1-1.7-1.3c-.9-.7-1.1-.8-1.7-.6m-32.9.6c.3.1-.1.3-1.5 1.1-2.6 1.3-2.9 1.8-.9 1.6.8-.1 1.6-.2 1.8-.3.7-.2-1.2 1-2.3 1.5-.7.3-1.5.5-2.1.5-1.2 0-2.7.4-3.1.8-.1.1-.3.2-.4.2-.1 0 .3-.5.9-1 .6-.6 1.5-1.6 2.1-2.3 1.5-1.8 3.9-2.7 5.5-2.1m-253.5 1.5c-.7.6-1.7 1.6-2.2 2.3-1.5 1.9-2.7 2.9-2.3 2.2.9-2.2 4.2-5.4 5.7-5.6 0 0-.5.5-1.2 1.1m21 .9c-1.4 1.6-1.4 1.7-.7 2.8.3.4.7 1.7 1 2.8.7 2.7 1.2 2.7 1.7.2.2-1.1.3-6.7.1-6.9-.4-.5-.9-.3-2.1 1.1m183.5.2c.1.1 0 .2-.2.3-.5.2-1.6 1.3-2.1 2.4-.3.5-.9 1.5-1.4 2-1.6 2-2.6 4.5-3.6 9l-.5 2-.1-1.1c-.1-1.2.3-2.9 1.8-7.5.5-1.7 1.1-3.8 1.2-4.6.2-1.7.6-2.2 1.9-2.6.7-.2 2.8-.2 3 .1m-80.8 1.1c0 .2-.1 0-.1-.3 0-.4 0-.5.1-.3v.6m100.7.6c2.8.6 5.5.7 7.1.3l1.2-.3.5.6c.3.3.9.8 1.3 1.1.4.3.8.6.9.7.1.1.3.2.5.4.7.4-.8.1-2.4-.6-1.4-.5-1.6-.6-4.2-.5-2 0-3.4-.1-5.2-.4-1.3-.2-2.8-.4-3.3-.4s-1-.1-1.1-.2c-.1-.1-.7-.4-1.4-.7l-1.2-.5 2.6.1c1.9 0 3.4.1 4.7.4m-213.4 2c.1.1.2.4.2.7 0 .6-1 .6-1.1 0-.2-.8.4-1.2.9-.7m-23.3 3.7c-1 4.8-2 6.5-3.7 6.5H88l.6-.3c.9-.4 2.4-2.8 2.4-3.7 0-.1.3-.9.6-1.7.3-.8.6-1.7.7-2.1.1-.4.2-.6.2-.4.1 0 0 .8-.2 1.7m24.7-.8c.1.2 0 .4-.1.5-.4.1-.7-.1-.7-.5 0-.5.7-.5.8 0m103.8.3c-.6.5-.8 1.3-1.1 4.4l-.1 1.9-1 1.4c-1 1.4-2.3 2.4-5 3.9-9.1 5.1-11.5 7.8-15.6 17.5-1.5 3.5-2 4.4-3.5 6.9-.4.6-.8 1.7-1 2.4-.5 1.8-.9 2.3-1.9 2.5-.4.1-1.2.3-1.6.5-1 .5-1.7.4-5.6-.5-3-.7-3.6-.8-3.8-.2-.1.5 1.4 2 2.4 2.5.9.4 3.4 2.9 2.7 2.7-.2-.1-1.4-.6-2.6-1.3-1.2-.6-2.3-1.2-2.4-1.2s-.4-.1-.5-.3c-.9-1-4.1-2.1-8.5-2.7-.4-.1-1.3-.3-2-.5-1.5-.5-1.8-.5-1.8-.1s3.6 4.1 4.7 4.7c.9.5 4.9 1.9 5.1 1.7.1-.1-1.1-1.2-2.3-2.2l-.8-.6.8.1c2.1.3 5.3 2.5 6.6 4.6.4.6.6.7 1.7.9.7.1 1.9.5 2.7.7 1.9.6 4 1 4.1.7 0-.1.2-.1.4-.1.7.2 0-1.1-1.1-1.9-1.2-.9-.9-1.3.7-.7 1.1.4 2.8 1.6 5 3.6 1.3 1.1 2 1.7 2.9 2 1.5.5 1.6.5.7-.3-.4-.4-1.2-1.3-1.7-2.1-1.7-2.4-3.2-3.5-5.7-4.2-1.9-.5-4.9-3.1-4.5-3.8.1-.2 2.7 1.1 3.9 2.1 1.3 1 2.1 1.3 3.4 1.3 1.2 0 2.4.8 4 2.4 1.3 1.4 1.6 1.5 3.7 1.2 2.8-.3 3.9-.3 4.4.1.2.2 1.1.7 2 1.2l1.5.8 1-1.1c3-3.3 8.1-3 10.8.7 1.5 2 1.7 2.1 2.4 1.7.7-.5.5-6.9-.2-7-.3-.1-.3.1-.3 1.8 0 2.3-.2 3.2-.5 2.8-.2-.2-.2-1-.1-2.7.1-2.4.1-4.4-.1-4.6-.2-.2-.1-.7.1-.5.1.1.1.2.1.3-.1.1 0 .2.1.1.3-.2-.2-1.5-1.1-2.3-.5-.5-.6-.6-.5-.2.4.8.1.5-.4-.3-.2-.4-.5-.8-.6-.8-.7 0-.8-.6-.2-1.2 1-.8.4-.7-.7.1-2.8 2.2-3.4 2.6-3.5 2.5-.2-.2 1.8-2.1 4.6-4.3 3.2-2.5 3.3-2.6 3.8-2.2.4.3.6.2-1.9 2-1.4 1-1.8 1.5-1.3 1.7.7.4 4 8.9 4.4 11.2.1.9.8 1.5 1.4 1.5.6 0 4-1.2 4.7-1.7.2-.2.4-.3.4-.2 0 .8-1.6 4-2.1 4.1-1.6.4-2.9.8-3.5 1.2-.7.4-3 1.2-3.7 1.2-3.7 0-5.6 2.3-3.3 3.9 1 .7 1.2.7 1.2.2 0-.4 1.2-2.5 1.3-2.3.1.1 0 .2-.1.4-.1.1-.3.8-.5 1.4l-.3 1.1h1l-.6.3c-.3.1-.9.3-1.3.3-1.3 0-1.8 1.1-.8 1.7.4.2.5.4.5.7-.2.6.5 1.3 1.2 1.3s1.2-.4 1.9-1.7c.5-.9.5-.6.1.6-.3.9-.3 1 .8.9 1.1-.1 1.4-.3 1.9-1.7l.5-1.1-.1 1c-.1.9-.1 1 .2.9.2-.1.5-.1.6-.1 1 .3 2.1-1.4 2.5-3.9l.2-1 .1 1c.1.6.1 1.3 0 1.7l-.1.7.7-.2c2.1-.5 2.5-1.7 2.1-5.9l-.1-1.5.4 1.2c.2.6.5 1.8.6 2.5.1.7.2 1.4.3 1.4.1.1 1.8-1.3 2.1-1.7.2-.4-.1-3.5-.4-4.6-.1-.4-.2-.7-.1-.9.1-.3 1.1 2.9 1.1 3.6 0 .6.3.8.5.3.1-.2.3-.4.5-.5 1.2-.4 1.2-4.3 0-8.3-.1-.2.1.1.4.6.3.5.7 1.7.9 2.6.2.9.5 1.6.6 1.6.6 0 1.5-3.9 1.3-5.7l-.1-1.2.4.9c.2.5.4 1 .4 1.1 0 .4.3.3 1-.4s.8-1.5.3-2.7c-.1-.3-.1-.3.1-.2.1.1.3.5.4.9.3 1 .7 1.1 1.4.3.8-.9.8-1.6-.2-2.1-.8-.4-2.9-.6-2.7-.2.2.3-1.1.2-2.1-.2l-1-.4 2.7-.1c1.6 0 2.8 0 2.9.1.6.6 3.9 0 5.1-1 .5-.4 1.8-1.3 2.9-2l2-1.3-2 1.9c-1.1 1-3 2.9-4.3 4.2-1.2 1.2-2.5 2.4-2.8 2.6-.9.6-2 2.2-2.5 3.6-.2.7-.9 2.3-1.6 3.5-1.4 2.6-1.3 2.3-.6 2.5 1.5.4 4.7-1.3 5.8-3.1.5-.8.6-1.2.7-3.2.2-3 .3-3 .3.3v2.7l.5-.2c.3-.1.7-.2 1.1-.3.6-.1 1.5-1 2.5-2.3.5-.6.5-.8.5-3.5 0-2.3.1-3 .3-3.5.2-.4.3-.5.2-.3-.3 1-.3 3 0 3.9.2.5.3 1.2.3 1.5v.6l.7-.4c1.7-.9 2.6-2.3 2.8-4.6.1-1 .2-2.2.3-2.7l.1-.9.2.8c.1.4.2 1.5.2 2.3 0 1.2.1 1.5.3 1.3.1-.1.5-.2.7-.3 1.5-.4 2.7-2.9 2.7-5.6v-.9l.2.7c.1.4.2 1.1.1 1.7-.1 1.3-.1 1.2 1.1.1 1-.9 2-3.2 2-4.7 0-.4.1-.4.2.3.1.4.1 1.1.1 1.4-.1.9 0 .9.7.1 1.5-1.8 1.5-3.8 0-4.9-1.6-1.2-8-.5-11.5 1.3-.4.2-.9.4-1 .4-.1 0-.5.2-.9.5-.3.3-.8.5-1 .6-.6.2-.4-.4.3-.9.3-.3.9-.8 1.3-1.1.4-.3.7-.6.8-.6s.8-.5 1.5-1.2 1.6-1.3 1.9-1.5l.6-.3-.6-.3c-.6-.3-1.3-.2-4.2.5-.8.2-1.8.4-2.1.4h-.7l.7-.7c1.4-1.4 4.6-2.9 6.2-3l1.5-.1-.5-.6c-.8-.8-3.6-.8-6.1 0-3.2 1.1-3.9 1-2.1-.3 2.1-1.6-1.5-.9-4.6.9-.5.3-2.2.8-2.2.7 0-.5 4.3-4 5.7-4.5 1.3-.5 1.3-.6.1-.9-1.4-.3-3 0-6.5 1.2-3 1.1-4.6 1.1-7.5.3-1.4-.4-1.3-.6.3-.6 1.8 0 3.6-.4 4.2-.8.3-.2.8-.5 1.3-.7.4-.2 1.6-.9 2.6-1.4 1.7-.9 3.5-1.6 4.4-1.6.7 0 .9-.3.5-.7l-.3-.4-2.3.4c-4.5.8-7.5.4-11.6-1.4-4.8-2.1-9.2-6.9-9.2-10 0-.2-.2-.9-.4-1.5s-.5-1.8-.7-2.7c-.8-2.8-1.1-3.1-2.4-2.1m37.3.3c-.2.4-.3.6-.1 1.1.1.4.1.7.1.8-.1.1 0 .7.1 1.3.3 1.3.2 2-.2 1.1-.3-.7-.6-.9-.6-.3 0 .3-.1.6-.2.7-.2.2-.1.3 0 .6.4.7.1.7-.6.1-1-1-1.4-1.1-3-.9-1.2.1-2.2.7-1.2.7.6 0 3.1 1.6 3.3 2.2.1.3.4.8.7 1.1.9 1.1 1.3 3.2.8 4.4-.4.9-.4 1 .1.6.9-.8 2.1-5.2 2.2-7.7v-1l.3 1c.1.5.3 1.4.3 1.8 0 .7.1.8.4.8.7-.1.4-5.1-.4-7.9-.5-1-1.5-1.2-2-.5m-123.8.4c-.2.3.3 1 2 2.8.8.9 1.8 2 2.2 2.6 1.5 2.1 3.6 1.4 2.9-.9-.4-1.5-1-2.1-3.1-2.8-1.9-.7-2.6-1-3.5-1.6-.3-.2-.4-.3-.5-.1m114.3.1c-.1.2-.2.6-.1 1 .1.6.1.7-.4.7-.4 0-.5.1-.5.5 0 1-.6 3.3-.8 3.1-.1-.1-.5-.2-.9-.2s-.6-.1-.6-.2v-.3c0-.3-.6-1.3-1-1.4-1.4-.7-.8 2.2.7 3.5.9.8.8.8-.2.7-1-.2-2.9-1.9-3.9-3.6-.4-.6-.8-1.2-.9-1.2-.9 0 .9 3.5 2.8 5.4 1.3 1.3 1.2 1.5-.1.4-.5-.4-4-5.6-4.5-6.6-.3-.6-1-.8-1-.2 0 .7 3.1 6.4 4.4 8.2 1.3 1.7.1 1.1-2.5-1.2-1-.9-2-1.7-2.1-1.7-.8 0 .3 1.8 2.4 3.7l1.5 1.4-.6.3c-1.1.6-1.4.8-1.4 1.3s.6.6 1.3.2c.2-.1 1.3-.5 2.3-.8 2.3-.6 2.9-.9 3.2-1.5.1-.2.3-.4.5-.4.4 0 .8-.8.5-1.3-.2-.3-.1-.5.2-.7.6-.4.8-.3.8.5 0 .6.1.7.5.9 1.2.4 2.2 3.3 2.2 6.1 0 2.1 3.2 5.2 5.6 5.5 1.6.2 1.6 0 .1-1.9-.9-1.1-1.8-2.5-2.4-3.7-.5-1.1-1.2-2.4-1.5-2.8a78 78 0 0 1-1.7-3.3c-.6-1.3-1.2-2.5-1.3-2.6-.1-.1 0-.2.2-.4 1.3-.7 2.1-2.5 1.3-3-.4-.3-1-2.2-1-3.1.3-1.3-.6-1.9-1.1-1.3m118.3.4c-1 .3-3.3 1.2-8.7 3.7-3.8 1.7-4.6 1.9-7.6 1.7-2.6-.2-4.3-.4-4.9-.7-.3-.1-.3-.1-.2.3.2.7 1.3 1.4 2.4 1.6.6.1 1.4.3 1.9.5 1.5.6 4.9.5 6.3-.2.6-.3 1.2-.5 1.4-.5 1.9 0 5.6-1.9 8.2-4.2a11 11 0 0 1 1.8-1.4c.4-.3.8-.6.8-.8-.1-.4-.1-.4-1.4 0m-252.1.5c0 .5-.3.7-.7.6-.5-.2-.3-1 .2-1 .4 0 .5.1.5.4m132.1 1.3c0 .5.5.4.6-.1 0-.2-.1-.3-.2-.3-.3 0-.4.2-.4.4m83.4 1.1c0 .2.1.3.2.3 1.6 0 4.9 4 5.8 7.1.7 2.5 2.4 6.8 2.9 7.7 1.4 2 4.8 4.4 6.5 4.4.7 0 .9.1 2.3 1.5 1.8 1.8 1.8 1.8 1.5 4.8-.3 3.1.1 4.1 1.6 4.8 1.1.5 1.2.5.3.9-.5.2-.7.5-1 1.3-.8 2.6-1.5 3.3-4.4 4.7-2.6 1.2-3.7 2.3-4.1 3.7-.1.4-.3 1-.5 1.3-.4.7-1.1 4.2-1.1 5.4 0 1.1.5 2.1 1.3 2.4.3.1.5.4.6.6.2.7 4 .3 5.3-.4 1.1-.7 1-.2-.2.7-.8.7-.8 1.2.1 1.2 1.2 0 2.5-1.7 3-4.1.1-.5.4-1.2.7-1.6.3-.4.7-1.7 1.1-3 .6-2.3 1.4-4.4 2.2-5.7.6-1 1.5-3 1.5-3.3 0-1.9-3.6 4.2-5.5 9.5-.8 2.1-1.5 3.4-2.4 4.1-1.1 1-1 1-1.1-.8 0-.7 1.1-3.6 2-5 .4-.7.9-1.6 1-2.1.2-.5.6-1.4.9-2 .4-.6 1.1-1.9 1.6-2.9s1-2 1.1-2.1c.1-.1.2-.3.2-.5-.1-.5 0-.8.7-1.5.4-.5.9-.8 1.1-.8 1.3 0 1.2-1.1-.1-1.4-1.9-.6-2.4-1.2-2.9-3.6-.8-4-2.3-7.9-3.7-9.8-.9-1.2-1.2-.9-.6.4.7 1.3 1.1 2.5.5 1.5-.9-1.6-2.2-3.6-3.1-4.8-.5-.7-1.4-1.9-2-2.7-1.8-2.7-2-2.2-.4 1 .6 1.3-.3.2-1.3-1.6-2.1-3.5-2.9-4.4-2.1-2.3.8 2.2.7 2.4-.3.5-1.3-2.6-2.7-4.5-4.3-6.1-1.4-1.3-2.4-1.9-1.3-.7 1.1 1.2 2.8 3.8 2.6 4 0 0-.5-.5-1.1-1.2-2-2.3-5.1-4.7-5.1-3.8M114.6 201c0 .5-.6.7-.8.4-.2-.4 0-.8.4-.8.3 0 .4.1.4.4m-29.4 2.3c-.3.3-.4.4-1 .1l-.7-.3.6-.1c.4 0 .7-.2.8-.5.2-.4.2-.4.5 0 .2.4.2.5-.2.8m-7.5.1c-.1.2-.1.5-.1.6 0 .2-.1.5-.3.6-1.2 1.3-.2 5.9 1.6 7.7.7.7.9.6.9-.8 0-.8.1-1.5.4-2 .5-1.1.5-1.9-.1-2.6-.5-.5-1.2-2-1.4-3.1-.3-.6-.8-.9-1-.4m61.8.8c-.3 1 1.3 3.4 2 2.9.4-.2.5-1.9.2-2.5-.4-.8-2-1.2-2.2-.4m206.2.4c-.8.2.4 2.8 2.2 4.7.7.7 1.2 1.4 1.3 1.8.2.9.7 1 .5.2l-.1-.7.9.4c.5.2 1.3.5 1.8.6l.9.1-.4.6c-.6.8-.6 2.5 0 3.7.6 1.1.7 1.2.7.1 0-1 1.1-3.3 1.8-3.8 1.6-1.1 4.4-1.6 7.4-1.4 1.2.1.6-.4-1.2-1-1.9-.6-2.7-.8-6.3-1.3-1.5-.2-2.5-.5-3.7-1.1l-1.8-.8c-.1 0-.3-.2-.5-.3-.5-.5-1.1-.9-1.3-.9-.1 0-.5-.2-.8-.6-.4-.3-.7-.6-.8-.5-.2.1-.5.2-.6.2m27.2.4c-.3.2-1 .7-1.5 1.2s-.9.8-.8.7c.1-.1.1-.2 0-.2-.2 0-.5.6-.4.8 0 .1-.1.2-.3.3-.3.1-1.6 1.6-1.6 1.9 0 .1.1 0 .3 0 .2-.1.1.1-.3.7-.3.5-1 1.6-1.6 2.6-.6.9-1.7 2.7-2.5 4-1.1 1.7-1.5 2.5-1.5 2.9 0 .9.1.9 2-1.3.9-1.1 2-2.1 2.3-2.4l.6-.4-.6.8c-.3.4-.9 1.3-1.3 1.9-.4.6-.8 1.2-1 1.3-.5.4-.4.7.1.4.3-.2.6-.2 1 0 1.1.4 4.7-2.5 7.1-5.8.5-.7.9-1.2 1-1.2.1 0-.7 1.6-1.3 2.5-.8 1.2-.5 1 1.7-.8 2.6-2.2 2.6-2.2 2.8-3.8.1-1 .3-1.5.7-1.9.7-.7.8-1.9.3-2.5l-.4-.5-1.5 1.6c-1.5 1.6-1.6 1.5-.1-.7.5-.7.8-1.4.8-1.4l-.8-.4-.7-.3-1.3 1.2c-.7.6-1.6 1.4-1.9 1.8l-.5.6.5-1c.3-.6.8-1.4 1.2-1.8.9-1.2.8-1.4-.5-.8m-246.4.7c-.2.3-.3 1.1-.3 1.7 0 .6-.1 1.1-.2 1.1-.3 0-.2.4.3 1.1 2.4 3.2 2.4 6.6-.1 9.1-1.1 1.1-1.7 2-2 2.8-.1.4-.7 1.4-1.2 2.3-.5.9-1 2.1-1.2 2.5-.1.5-.3 1.1-.4 1.4-.4 1.2 1.8 4.1 2.8 3.8.6-.2 1.5-1.1 1.5-1.5 0-.5 1.1-2.4 2.2-3.6.5-.6 1.3-1.2 2.8-2 5.2-2.7 7.2-6.7 5.1-10.1-1.4-2.2-2.3-4.6-2.5-6.5 0-.4-.2-.5-.5-.5s-.4-.1-.3-.4c.1-.6-.6-.6-.9 0-.3.7-.3 1 .2 3.3.7 3.4.6 4.7-.4 6.1-.5.7-.9 1.2-.9 1.2-.1 0 .2-.7.4-.9.8-1.1-.1-4.9-2-7.8-.6-1-.7-1.3-.7-1.9.2-1.4-1.2-2.3-1.7-1.2m-37.2 1.2c-.7.5-1.6 1.1-1.9 1.4-.6.5-.5.5-3.5-.1-1.4-.3-2-.1-3.1 1.1l-.8.9.1 1.6c.2 2.3.6 2.6 4.1 3 .6.1 1.2.3 1.7.6l.7.5-.7.3c-.4.2-1.3.3-2.3.3-1.6 0-1.6 0-1.6.5 0 1.2 2.6 2.7 4.1 2.4.3-.1.8-.2 1.1-.2.3-.1-.2.2-1.1.6-2.1.9-2.4.9-4.2 0-2.1-1-2.5-.8-1.6.7 1.9 3.2 5.5 4.1 7.8 1.9 1.1-1 1.6-3.1.9-3.4-.6-.2.2-.7 1.5-.9 3.6-.5 7.5-4.1 6.5-6.1l-.4-.6s-.5 0-.9-.1c-1.1-.1-2.2.7-2 1.5.1.4.1.5-.1.5-.1 0-1 .4-1.8 1-2.1 1.3-2.9 1.2-2.5-.2.1-.6 1.3-1.9 1.7-1.9.6 0 3.8-2.5 4-3.2.4-2.5-3.1-3.8-5.7-2.1m46.8.5c-.5.5.8 1.7 2.2 2.1.2.1.4.2.4.4-.1.2.8.7 1.2.7.9 0 1.9-1.8 1.2-2.2-.1-.1-.2-.3-.2-.6 0-.5-.2-.6-.5-.3s-2.4.2-3.8-.1c-.3-.1-.5-.1-.5 0m241.7 2.8c-.1.3-.1.6 0 .7.2.2.3-.1.3-.7l-.1-.6-.2.6m-239.9.8c-1.5.5-1.9 1.2-.9 1.7 1.6.9 2.3 2.7 3.2 8.3.3 1.9.4 2.1.7 2.1.5 0 .6-.9.6-5.6 0-5.2-.2-6.1-1-6.3-.3-.1-.6-.2-.7-.4-.2-.1-.8-.1-1.9.2m163.3 1.4c-.1.7-.5 1.7-.8 2.3-.3.6-.6 1.6-.7 2.2-.1.6-.3 1.5-.4 1.9a27 27 0 0 0-.4 3.1c-.3 2.6-.4 2.7-.8.3-.7-5-.4-7.1 1.4-8.6.9-.7 1.2-1.2 1.5-2 .4-1.1.5-.8.2.8M346 211c.3.5 1 1.2 1 .9 0-.1-.3-.4-.6-.8-.4-.3-.5-.3-.4-.1m37.8.5c-.3.2-.8.8-1.2 1.4-.4.6-1.1 1.3-1.4 1.5-.4.2-.9.7-1.2 1.1-.6.7-2 .9-2.8.2-.7-.5-3.1.7-4.3 2.2-1.1 1.3-1 1.4.3.5 1.6-1.1 1.6-.8 0 .7-1.8 1.8-2.5 3.5-1.6 3.5.3 0 .5-.3.8-1 .3-.6.5-1 .7-1 .2 0 .7-.1 1.2-.3.8-.3.9-.3 1.6 0 .4.2 1.2.4 1.7.5 2.8.5 4.2 2.2 3.5 4.1-.5 1.3.3 1.3 1.1-.1.8-1.3.5-3.7-.9-5.7-.2-.3-.2-.5-.1-.5.2 0 .8.6 1.4 1.5.6.9.6.5.1-1.5s-.5-2.4 0-1.6l.4.7.4-2.4c.2-1.3.6-2.8.8-3.3.8-1 .6-1.2-.5-.5m-121.4.2c-.1.1 0 .5.1.9l.2.8.1-.8c.1-.7-.1-1.3-.4-.9m-7.5.4c0 .5.5.4.6-.1 0-.2-.1-.3-.2-.3-.3 0-.4.2-.4.4m-47 4.5s-.1 0-.1-.2-.2-.7-.5-1.2c-.4-.8-.4-.9-.1-1.2.3-.3.3-.2.5 1.1.2.8.2 1.4.2 1.5m53.7-1.5c0 .1.2.3.3.3.1 0 .2 0 .2-.2 0-.1-.2-.3-.3-.3-.2-.1-.3 0-.2.2m-49.6.9c.1.1-.6.7-1.5 1.4-1.9 1.5-1.8 1.4-1.5 2.1.2.3.2.6.2.7-.1.2-.4-.2-.5-.7 0-.5-.3-.4-1.1.1-.3.3-.8.6-1.1.7l-.5.2.4-.6c1.3-1.5 5.3-4.4 5.6-3.9m-104.3 2.9c-.1.2-.1.5-.1.7 0 .2-.1.4-.3.5-.3.2-.2 4.4.2 6.7.1.6.1.7-.1.1-.1-.3-.3-1.4-.4-2.4-.4-3.8-.6-4.5-1.1-4.5-.9 0-1.3.2-1.3.7l-.1.5v-.5c0-.5-1.6-1-2-.6-.1.1.3 2.7.5 3.5.1.3 0 .5-.1.5s-.2-.2-.2-.3c0-.3-1-3.5-1.1-3.7l-1.2.2c-.6.2-1.6.4-2.1.4-.5.1-1.4.2-2 .3l-1 .2.7 1.8c.4 1 .9 2.3 1.2 3 .3.7.5 1.3.5 1.5-.1.2 0 .2.2.1s.2-.1.1.1c-.1.1 0 .5.2.8.2.3.7 1.1 1 1.7.3.6.8 1.5 1.1 2 .7 1.2.3.9-.9-.7a7.7 7.7 0 0 0-1.3-1.5c-.1-.1-.8-1.1-1.6-2.3-.7-1.2-1.4-2.4-1.6-2.6-.1-.2-.3-.5-.3-.6 0-.3-.4-.8-.6-.8-.2 0 .1 1.3.7 2.4.3.6.4.9.2 1-.1 0 .1.6.6 1.2 1.1 1.7 1.2 1.8.4 1.1-.8-.9-2.8-4.4-3.6-6.4 0-.1-1.1.4-1.1.6 0 .1.1.4.2.7.3.8.1.8-.3 0-.3-.6-.4-.7-.8-.6-.3.1-1 .1-1.6.1-1.1 0-2.5.6-2.5 1 0 .1.3.9.7 1.7.4.8.7 1.5.7 1.6 0 .2 1.9 3 3.5 5 3.7 4.8 5.1 6.2 10.9 11.2.9.8 2.3 2 3.1 2.7 2.1 1.8 3.3 1.8 1.9 0l-.6-.8.9.8c.9.9 1.4 1 2.6.8.9-.2.9-.3-.2-1.4-1.4-1.5-5.4-6.8-6-8.1-.2-.4 1.4 1.2 3.6 3.7.9 1 1.8 1.8 1.9 1.7.1-.1.3 0 .3.1.1.1 0-.2 0-.7-.1-.6-.3-1.2-.6-1.6-.4-.5-.5-.9-.5-1.6 0-.8 0-1-.4-1.2-.5-.2-.7-.7-.7-1.3 0-.2.1 0 .3.3.2.4.5.7 1 .9.7.3.7.3.6 1.1-.2 1.4.5 2.1 1.4 1.2.5-.5.5-.5.2-1.5-.4-1.3-.2-1.2.4.1 1.3 3 1.1.1-.4-4.5-1.1-3.3-2-9-2.2-13.1l-.2-2.8c-.1-.7-.5-.6-.7-.2m108.7.1c0 .2-.6.6-2.5 1.6-3.1 1.6-2.9 1.4-2.3 1.9l.5.5-.7.6c-.8.7-1 .7-1 .2 0-1.1-.3-1.2-1.8-.5-3.2 1.3-1.1-.3 3.4-2.7 1.3-.7 2.7-1.4 3.1-1.7.7-.4 1.2-.4 1.3.1m42.6.8c0 .1.5.7 1.1 1.3l1.1 1h1.4c1.4 0 3.4.5 3.9 1 .1.1.6.2 1 .3 1.1.2 3.7 1.1 4 1.4.3.2 0 .3-1.6.2-2.2-.1-2.7 0-2.7.5 0 .3.3.4 1.6.7.9.2 2.3.5 3.1.8 1.7.6 1.8.6 2.3.1 1-1 0-3.1-1.8-3.6-.3-.1-1.1-.6-1.8-1.2-1.9-1.6-3-2-5.1-2.1-1-.1-2-.2-2.3-.3-.6-.5-4.2-.4-4.2-.1m-108.8.6c0 .3.1.5.3.5.2 0 .3 0 .3-.1s0-.2.1-.4 0-.3-.3-.4c-.2 0-.3.1-.4.4m204.9.6c0 .5.9 1.6 1.7 2.3.4.3.8.7.8.9 0 .1.1.3.3.4.2.1.4.8.6 1.8l.3 1.7-.6.6c-.7.6-1.9 2.8-1.9 3.4 0 .8.7.4 1.6-1 .5-.8 1-1.4 1.2-1.4.1 0 .5-.1.8-.2.8-.2.9-.8.5-3.3-.4-2.6-.5-2.8-2.3-3.7-.8-.4-1.6-.9-1.9-1.2-.7-.7-1.1-.7-1.1-.3m19.1.4c-.3.2-.5.4-.5.5 0 .2-2.3 2.3-3.5 3.3-.6.5-1.2 1.1-1.4 1.5-.6 1.1-2.8 3.7-4.2 5-.7.6-1.3 1.3-1.3 1.4 0 .1-.1.4-.3.6-.5.5-.2.6.5.2.6-.3 3.9-1.7 4.1-1.7.2 0-.8.7-1.8 1.2-1.9 1.1-.8.9 2.7-.6 1.4-.6 3.2-1.2 4-1.4.8-.2 2-.7 2.8-1.2.8-.4 1.6-.8 1.9-.9.8-.2 2.9-1.8 2.9-2.3 0-.2.1-.7.3-1.1.4-.9.2-.9-2.1.6-2 1.3-3.4 2.1-4.3 2.3-.5.2 3.1-3.1 4.2-3.7.4-.2 1-.6 1.5-.9.6-.3.8-.6.8-.9v-.4l-1.2.6-1.2.6.9-.9c.5-.5.9-.9.9-1 0-.2-1.3-.7-2.5-.9-2.4-.2-2.7-.2-3.2.1m-157.8 1.1c0 .1-.5.6-1.2 1.1-1.4 1-1.4 1.1-.4 1.7.8.5 2.3 2.2 4 4.8l1.1 1.5-1.1.9c-1.3 1.1-1.2 1.1-2 .2-.4-.4-1.5-1.5-2.4-2.5-1-1-2-2.2-2.3-2.7-.7-1.1-.5-1.1-1.9 0-.6.5-1.2.9-1.3.9-.3 0 2-2.1 3-2.9.6-.4 1.7-1.3 2.5-2 1.5-1.2 2-1.5 2-1m58.8 1.7c0 .3.8 1.1.8.8 0-.2-.1-.5-.3-.6-.4-.4-.5-.5-.5-.2m110 3.7c0 .5-.2 1.5-.3 2-.4 1.3-.3 1.9.6 3.3.7 1.1 1.3 2.9 1.3 4 0 .6 1.1 2 1.3 1.8.2-.2-.4-3.3-.8-4.6l-.5-1.3.8.8c.5.4.9.8.9.8.1 0 .4-1.8.4-2.7 0-.7-1.2-2.6-2-3.3-.6-.5-.9-.8-1.4-1.5l-.4-.5v1.2m-277 .9c.1.4.1.5-.1.3-.1-.2-.2-.5-.2-.7 0-.5.1-.3.3.4m271.4.9c-.1.3-.1.5 0 .6.1.1.1.3 0 .5s-.2.8-.2 1.4c0 .6-.1 1.4-.3 1.7-2.1 3.7-2.8 6.7-2.2 8.9.3 1.1.4 1.1 1 .1.3-.4.5-.6.4-.3-.5 1.7-.5 2.1-.4 2.4.2.5.6.2 1.5-.8.5-.6 1.3-1.4 1.9-1.9.8-.7.9-.8.4-.2-.4.4-.6.8-.5.9.1.1.7-.5 1.4-1.2 1.8-2 3.3-1.1 2.1 1.3-.8 1.6-.2 1.7 1.3 0 1.6-1.7 1.3-3.6-.6-4.6-2.8-1.4-3.2-2.2-3.3-5.7 0-1.5-.2-3-.5-3.3-.3-.3-1.8-.2-2 .2m-245.1 2.5c-.7.3-1.5.8-1.7 1.1l-.4.5.2-.5c.3-.8.3-.9-.2-.9-.2 0-.9-.1-1.4-.2-1.1-.2-1.1-.2-1.9 1.3-.6 1.1-.6 1-.1-.3.5-1.2-.3-1-.9.2-.3.6-.8 2.6-1.3 5.1-.4 1.8-1.9 4.2-3 4.6-.7.3-.5.6.3.9 1.1.3 1.4.3 2.9-.3l1.3-.6-.8.7-.8.7.9-.3c.5-.2 1.1-.4 1.5-.6.3-.1 1.1-.4 1.7-.5 1.3-.3 2.2-.8 4.4-2.7.9-.8 2.1-1.9 2.7-2.4.6-.5 1.3-1.3 1.7-1.8.3-.5.6-.8.7-.8.1.1.1 0 0-.2s0-.4.1-.6c.3-.4.5-1.5.3-1.5-.1 0-.4.2-.6.5l-.4.5.4-.8c.2-.4.4-.9.3-1-.2-.5-.8-.3-1.2.4-.2.4-.5.7-.6.7s-.3.1-.3.2-.3.5-.6.8c-.6.6-.6.6.2-.8 1.1-2.1 1.1-2.1-.5-2.1-1.4.2-1.9.3-2.9.7m36.1 2.7c0 .2 1.4.5 1.5.3.2-.2-.4-.5-1-.5-.2.1-.5.1-.5.2m99 .9c-1.3.2-1.7.3-1.9.7-.2.2-1.1 1.2-2.2 2.1-1 .9-3.3 3.1-5.1 4.9-3.3 3.4-7.1 6.4-9.2 7.4-.6.3-1.5.8-2.1 1.2-1.4.9-3.1 1.7-5.6 2.7-1.2.5-3.5 1.5-5.2 2.3a65 65 0 0 1-6.1 2.5c-3.5 1.2-5.6 2-7.2 2.8-.6.3-1.7.7-2.4 1-.9.3-1.3.5-1.5.9-.3.8-2.7.9-5.8.4-1-.2-2.2-.3-2.7-.4-.9-.1-2.3-.5-2.9-1-.3-.2-2.4-1.1-2.6-1.1-.8 0 3.4 2.1 5.3 2.6.6.2 1.8.6 2.6 1s1.9.8 2.5 1c1 .3 1.1.4.5.4-.6.1-.1.5 3 2.2 1.8 1-1.5.1-4.1-1.1-.7-.3-2.5-1-4-1.5-2.2-.8-5.9-2.2-7.1-2.7-.1-.1-.2 0-.2.1 0 .2 2.5 1.4 3.5 1.7.9.3 2.8 1.3 4.1 2.2.7.5 1.8 1.2 2.5 1.6 1.2.6 4.7 3.3 5.2 3.8.4.5-4.3-1.6-6.4-2.8-1.4-.8-1.7-.7-.5.2 2.4 1.7 3.9 3.8 3.6 4.8-.1.4-.2.9-.3 1.2-.1.4-.1.3-.3-.4-.5-2-2.6-4.3-4.9-5.5-.8-.4-2.1-1.2-2.7-1.6-1.5-1-1.8-1-.6 0 .7.6 3.3 3.5 4.1 4.7.4.6-3.9-3-8.6-7-1.2-1.1-2.6-2.2-3-2.5-.4-.3-.9-.9-1.1-1.3-.7-1.3-2-2.8-3-3.3-.5-.3-1.3-.8-1.8-1.2-1.1-1-4.7-3.3-6.2-4-.7-.3-.1.4 1 1.1 1.2.8 5.7 4.2 6.9 5.2.7.6.5.6-.5-.1-.3-.2-1.2-.8-2-1.2s-2.1-1.2-2.9-1.8c-2.7-1.9-3.7-2.5-4.2-2.6-.7-.2.2.6 2.4 2.2 3.9 2.8 4.9 3.6 6.7 5.7.8.9 1.4 1.4 1.5 1.3.4-.2.8.1 2.4 1.7.8.8 2.5 2.2 4 3.2 2.5 1.6 5.1 3.8 6.4 5.2.6.6.6.6-.5-.1-.6-.4-1.9-1.2-2.9-1.8-1-.6-2.5-1.5-3.3-2.1-1.8-1.3-2-1.3-2-1.1 0 .1.5.6 1.1 1 .6.5 1.7 1.4 2.4 2 .7.7 1.7 1.5 2.2 1.8 2.2 1.5 4.7 4.2 5.9 6.4.6 1.1 1.5 2.5 1.9 3 .4.5 1.4 2.1 2.1 3.4 1.9 3.2 6.2 8 9.5 10.4 2.9 2.2-.3.7-3.8-1.7-2.9-2-2.9-1.7.3 1.1 1.4 1.2 2.5 2.3 2.5 2.4 0 .1-2-1.2-2.9-1.9-.4-.3-1-.7-1.5-1-.4-.3-1-.7-1.3-1-.6-.6-.7-.6-.7-.3 0 .1.6.8 1.4 1.5 2.9 2.7 3.1 3 3 3.6-.1.5 0 .6 1.1 1.5 1.5 1.2 3 2.4 2.8 2.4-1 0-6.7-3.7-8.7-5.6-.9-.9-1.7-1.5-1.6-1.3.1.5 1.9 2.6 2.8 3.2.4.3.8.7 1 .9.2.2.8.7 1.5 1.2.9.6 1.3 1 1.4 1.5.1.5.4.8 2.6 1.8 1.3.7 2.3 1.2 2.2 1.2-.6 0-2.8-.7-4.1-1.3-.8-.4-1.7-.7-1.8-.7-1.1 0-7.3-5-7.3-5.9 0-.1-.7-1.2-1.5-2.4-1.4-2-2-3.2-3.7-7.1-.4-.9-1-2.2-1.3-2.9-.3-.7-.6-1.4-.6-1.5 0-.1-.3-.9-.7-1.7-.9-1.9-.4-1.4.6.5.4.8 1 1.9 1.4 2.4.8 1.3 2.7 4.7 3 5.6a13 13 0 0 0 1.5 2.7c.2.2.4.5.4.6s.1.2.2.2-.3-.9-.9-2.1c-.6-1.1-1.1-2.2-1.1-2.3 0-.1-.3-.8-.6-1.5s-.8-1.9-1-2.6c-1.4-4-7-11.1-10.3-13.1-1.7-1-3.4-2.3-4-2.9-.2-.2-.4-.4-.5-.4s-.8-.4-1.6-.9-1.5-.9-1.6-.9c-.2 0-1.7-1-4.1-2.9-3-2.3-5.7-4.2-7.2-5.2-2.6-1.6-5-3.2-4.9-3.4 0-.2-2.5-1.5-2.8-1.4-.3.1-2.2-.6-3.4-1.2-2-1-3.2-1.2-5.9-1.2H163l1.3-.4c.7-.2 1.6-.4 2.1-.4s.8-.1.8-.2c0-.2-1-.4-2.5-.4-1 0-1.2-.1-1-.2 1-1 6.4.2 10.3 2.3 3.5 1.8 5.3 2.8 6.4 3.6 1.7 1.1 2.4 1.5 2.4 1.2 0-.1-.2-.4-.5-.5-.3-.1-1.2-.8-1.9-1.4-1.5-1.3-3.9-2.9-5.1-3.5-.5-.2-.8-.5-.7-.5.2-.2 3.7 1.6 5.2 2.6 3.9 2.6 4.4 3 4.9 3.5.3.3 1 .9 1.7 1.4.6.5 1.9 1.6 2.8 2.4.9.8 1.9 1.8 2.3 2 .4.3.8.7.9 1 .2.6 2.4 2.5 4 3.5.4.2.7.5.6.6-.1.1 0 .1.1.1.3 0 2.2 1.3 3.2 2.2.4.4 1.3 1.1 1.9 1.5.6.4 1.8 1.4 2.7 2.3.9.8 1.9 1.6 2.2 1.8.5.3 2.1 1.8 3.5 3.5 1.2 1.4 1 .7-.2-1.1-1.3-1.9-5.1-5.9-7.7-8.1-2.2-1.9-4.8-5-5.7-6.6-1.4-2.7-3.9-4.6-10.2-7.9-4.3-2.2-7.2-3.8-7.2-4 0-.1 1.5.5 3.9 1.6 2.3 1.1 2.1 1 2.1.5 0-.4-2.1-2.2-3.8-3.2-.6-.3-1.3-.8-1.6-1-.3-.2-1-.5-1.6-.6-1.4-.4-1.9-.9-2.4-2.4-.1-.4 0-.3.5.3 1.5 1.7 3.4 2.5 2.6 1.1-.6-1.1-.3-1.3.4-.2.7 1 1.4 1.5 2.9 1.7.7.1.7.1.5-.3-.4-.8-.2-.9.3-.3.5.6 3.1 2.5 3.3 2.3l-.2-.8c-.2-.4-.3-.8-.2-.8.1-.1.2.1.2.3.4 1 1.3 2 2 2.2 1 .3 1.1.2.5-.9-.3-.5-.5-1.1-.5-1.4 0-.4.1-.3.5.5.8 1.7 2.2 2.8 3.7 2.8 0 0-.1-.6-.4-1.3-.2-.7-.5-1.5-.6-1.8-.1-.4-.4-.7-1.4-1.1-.7-.4-1.8-1.1-2.5-1.6-1.8-1.4-3.4-2.1-4.9-2.3-.8-.1-1.9-.3-2.5-.5-.6-.2-1.6-.4-2.2-.6-1.4-.4-4.6-.4-6.1 0-.6.2-1.7.4-2.4.6-2.3.6-5.3 2.3-4.9 2.8 0 .1-.7.4-1.6.6-8 2.4-8.9 2.8-9.7 5-.2.5-.3.6-.7.6-.6 0-1.6.5-2.2 1.1-.7.7-.7.7.3.4.5-.1 1.8-.3 3-.4l2.1-.1-1.4.4c-5.9 1.7-6.2 1.8-6 2.6.1.4 0 .5-.4.6-.4.1-.5.2-.3.4.3.4.1.5-.8.5-.6 0-.9.2-1.6.7-.9.8-1.2 1.2-.6 1 .5-.2 3.2-.7 3.8-.7.3 0-.3.4-1.5 1-1.1.5-2.1 1-2.2 1-.6 0-1.8.7-2.1 1.2-.4.9-.4.9.5.7.5-.1 1.1-.2 1.3-.3l.5-.1-.5.3c-.3.2-.9.4-1.4.6-1 .3-2 1.5-1.9 2.3.1.5.6.5 2.5.2 5.2-1 6.1-1 11 .1 4.1.9 4.8 1.1 8 2.9 1.1.6 2.2 1.1 2.5 1.1.4 0 .7.1.8.4.1.2.5.4.8.5.4.1.6.3.7.7.1.4.4.7 1 1.1 2.6 1.5 6.5 6.5 6.5 8.2 0 .4.6.5 1.4.1 1.3-.6 2.9 1.4 4.5 5.9.3.9 1.2 1.6 1.2.9 0-2.1-3.2-8.5-4.8-9.7-.9-.7-2.4-2.9-1.7-2.5.9.5 3 2.1 4.1 3.1.6.5 1.2 1.1 1.5 1.2 1.8.8 5.2 6.4 4.5 7.5-.1.1.1.9.3 1.7.5 1.9.7 3.6 1.1 6.8.4 3.1.7 4.2 1.4 4.2.3 0 .5 0 .5-.1l-.2-2c-.1-1.2-.1-1.9 0-2 .1-.1.2-.7.3-1.5.1-1.7.3-1.9.7-1 .5 1 2.6 9.8 2.9 11.9.1 1 .3 2.2.5 2.7s.5 2.4.8 4.1c.5 3.2.9 4.2 1.5 4.2.4 0 .4-.1.2-1.8-.3-3.8-.4-6.5-.2-6.7.1-.1.1-1.9.1-3.9l-.1-3.7.5 1.1c.7 1.5 1.2 3.3 2.1 7.5.1.6.4 1.4.6 1.8.2.4.6 1.5.8 2.6.7 3.1.8 3.7 1.2 3.7.7 0 .6-1.7-.2-6-.5-2.3-.8-6.1-.8-7.2l.1-.8 1.3 1.3c.7.7 1.5 1.3 1.7 1.3.3 0 .4.2.5.8.1.4.2.8.3.9.1.1.3.9.4 2 .1 1 .3 2 .4 2.2.2.4 1.1 4.4 1.3 5.8.2 1.3.4 1.8.8 1.8.3 0 .3-.2.2-1-.3-2.7-.4-3.7-.2-3.6.1.1.6-.1 1.1-.3.8-.4.9-.4.9-.1 0 .2.2.7.4 1.1.2.4.5 1.4.7 2.2 1.6 8.2 2 9.6 2.9 9.6.7 0 .9-.5.7-2.7-.3-3.5.2-7.8.9-8.1.5-.2.7-.9.3-.9-.7 0-.8-.3-.2-.9l.6-.6.8.7c.4.4.9.8 1.1.8.2.1.5.5.7 1.2.6 2.1.7 2.2 1.3 2.2.5 0 .6-.1.8-.8.4-1.7.4-1.7.8-.9.5.9 1.8 4.3 2.2 5.6.2.6.9 2.1 1.5 3.4.6 1.3 1.3 2.9 1.5 3.5.5 1.5 1.6 1.9 1.3.4-.3-2-.3-8.9.1-9 .2-.1.5-.1.8-.2.3-.1.5 0 .8.5.2.4.6.8.9.9.3.1.5.4.5.5 0 .2.3.9.6 1.6.3.7.9 2.3 1.4 3.5.8 2.2 1.5 3.6 2 3.6.2 0 .3.1.3.2s.1.5.3.9c.4 1 1 .5.6-.6-.2-.6-.2-.8.1-1.1.4-.5.6-1.8.4-2.7-.2-.7-.1-.8.5-1.4l.6-.6.2.8c.6 2.1 1.8 3.5 2 2.2l.1-.4.1.4c.1.2.3.4.5.4.4 0 .5-.5.6-3.1 0-2.5.4-6.1.6-6.1.3 0 .7-.5 1.3-1.8.5-1.2 1.5-2.1 2.1-2.1.2 0 1.8 1.2 3.5 2.6.4.4.9.7 1 .7.1 0 .2.2.3.4.7 2.1 2 1.1 2.2-1.5.1-1.6.1-1.6.9-2.2.4-.3.8-.8.9-1 .2-.4 2.4-1.1 2.7-.8.1.1.4 1.3.6 2.8.6 3.1.7 3.2 1 3.2.2 0 .3.3.4.7.3 1.8 1.2 1.7 1.4-.2.2-2.3.4-3.4.4-3.1.2.5.8.3 1-.4.3-1 .3-1.1-.4-.5-.7.7-.8.3-.2-.8.4-.9 3.4-3.5 5.4-4.8.8-.5 1.5-1 1.6-1.2.1-.2.9-.5 1.6-.7.8-.2 1.7-.5 2-.7.4-.2 1-.3 1.5-.3.9 0 7.1-1.6 7.5-2 .1-.1.3-.2.5-.2.5 0 4.2-1.4 7-2.7 4.6-2.1 6.7-2.6 10.5-2.8 1.8-.1 4-.3 4.8-.5s2.4-.3 3.4-.4c1.9 0 2-.1 3-.7 3.7-2.3 5-2.7 7.2-2.1.9.3 1.1.4 1.4 1.2.3.8 1 1.4 1.3 1.2.1-.1-.2-1.7-.9-6.3l-.2-1.2h-.8c-2.7 0-6.2.4-8.7 1.1-7.4 2-14.9 4.3-16.8 5.3-2.7 1.4-5.2 2.3-7.8 3-2 .5-2 .5 0-.3 1-.4 3.1-1.3 4.7-2.1 6.1-3 8.8-4 14-5.5 2.1-.6 4.7-1.3 5.8-1.6 3-.9 3.9-1 6.6-1.1 2.4-.1 2.5-.1 2.4-.5-.1-.2-.1-.7-.1-.9v-.5s-.7-.1-1.5-.3c-1.6-.3-6.2.1-10.6.9-1.1.2-2.3.4-2.5.5l-.5.1.5-.2c1.3-.6 5.3-1.4 10.5-2.1 1.3-.2 1.5-.2 1.7.1.2.3.3.3.8.1.3-.1.8-.2 1.1-.1.5.1.5.1.4-.3-.1-.4 0-.5.8-.9l.9-.5.3.8c.4 1.1.7 2 .8 2.9.1.7.2.7.7.7.8-.2 2.8 1.7 2.3 2.1-.6.4-.3.5 2 .6l2.2.1v-1.4c0-2.2-1.3-3.4-3.6-3.1-.5.1-1.3 0-1.6-.1-.8-.2-.6-.2 1.7-.2 2 0 2.2-.1 2-.8-.1-.6-1.1-.9-2.5-.9-1.2 0-5.5-1.4-4.7-1.5.5-.1 3.4.7 4.2 1.1 1.2.6 1.3-.3.4-2.2-.5-1.1-1.3-1.5-2.7-1.4-.3 0-1.2-.3-2.1-.6l-1.5-.6.9.1c.5.1 1.4.3 2 .5.6.2 1.1.3 1.1.3 0-.4-1.5-2.5-1.9-2.7-.8-.4-3.9-1.4-4.1-1.3-.4.4.2 2 .7 2.1.6.2.8.5.3.5-.4 0-.3.4.3 1.2.3.4.6.7.5.7l-1.3.2-1.2.1-.2-.8c-.3-1-.4-1.1-3.5-1.3-5.2-.4-5.3-.4-10.7 0l-1.3.1 1.6-.4c.9-.2 2.5-.5 3.7-.6 1.2-.1 2.2-.3 2.2-.3.1-.1-.9-.2-1.2-.1-.1 0-1.6.1-3.2.1-4.8.1-6.5.4-17.2 2.8-1.9.4-4.6 1-6.2 1.4-1.5.3-2.8.6-2.9.6-.7-.1 15.1-3.8 18.9-4.5 3.4-.6 15.9-1 16.5-.5.2.2.2.2 0 .1s-.3 0-.3.1c0 .2 2.7.5 2.9.3.1-.1 0-.2-.1-.4s-.2-.7-.2-1.2l.1-.9-2.1-.2c-7.3-.8-14.8-1-19.6-.4-1.9.2-4.3.5-5.2.6-3.5.4-11.9 1.5-14.8 1.9-1.3.2-.9-.1.6-.4.7-.2 1.8-.4 2.4-.6.6-.2 1.9-.4 2.7-.6.9-.2 2.3-.5 3.1-.7 1.6-.4 8.2-1.5 12.3-2.1 1.9-.3 3.7-.3 8.7-.3h6.4l-.3-.5c-.7-1.1-.8-1.2-2.4-1.5-3.4-.7-8.6-1.2-12.6-1.3h-2.1l2.6-.2c3-.2 8.3.1 11.2.6 1.9.3 2.1.3 1.7-.4-.2-.5-.2-.5.5-.5.4 0 .9 0 1-.1.2-.1.5.3.8.8.6.9 1.6 1.4 2.8 1.4.4 0 .3-.3-.3-.5-.9-.3 1-.3 2.3 0 .9.2 1 .2 1 0-.1-.4-.3-.5-2.4-1.1-2.6-.8-2.2-1.1.5-.4 3.4.9-1.3-1.7-5.5-2.9-1.4-.4-2.8-.5-1.7-.1.2.1.7.5 1.2.9l.9.8H304l-1.3-1.2-1.3-1.2-3.3-.5c-1.8-.3-4-.7-4.9-.8-4.3-.9-12.2 0-18.5 1.9-1.1.3-2 .6-2.1.5-.1-.1.1-.2.4-.2.2-.1.9-.4 1.4-.7 1.1-.7 6.7-2.2 9.9-2.6 1.1-.2 2.7-.4 3.5-.5 2.7-.4 6.1-.5 7.3-.4 1.4.2 1.3.2 1.1-.6-.3-.9-.1-.9.4 0s.5.9 3.2 1.3c1.9.3 6.3 1.4 8.5 2.1.7.3.8.3.7 0-.1-.2-1-.6-2.1-1-7.5-2.7-9.4-3.3-10.6-3.5-.3 0-1.3-.3-2.3-.5-5.6-1.2-16.6-1.6-21.1-.7-4.9.9-9.6 2.9-14.9 6.5-3.5 2.3-6.3 3.9-9 5.2-1.9.9-2.3.9-.8 0 2.7-1.6 3.5-2.1 4.2-2.7.4-.3 1.6-1.1 2.5-1.8 1-.7 2.1-1.5 2.5-1.8 1.5-1.1 3.9-2.5 5.7-3.4 1-.5 1.8-.9 1.8-1 0-.3-1.4.3-3.5 1.4-8.1 4.1-13.1 6.4-14.6 6.8-.4.1-2 .6-3.5 1-2.6.8-6 1.5-9.4 1.8-2.7.3-3.1-.2-.6-.6.4-.1 1.1-.2 1.5-.3.4-.1 1.6-.4 2.6-.7 5.2-1.2 9.3-2.8 18.7-7.6 5.1-2.5 7.2-3.5 8.4-3.7 4.1-.7 6.6-1 7.6-.9.8.1 2.1 0 3.6-.3 3.1-.5 10.1-.5 13.6-.1 4.3.6 14.1 2.7 15.3 3.3.8.4.7 0-.1-.7-1.7-1.5-2.9-1.8-8.2-2.4-4.5-.5-8.2-1.1-10.4-1.7l-1.8-.4 1.6.1c.9 0 2.4.2 3.4.3 1 .1 2.9.2 4.1.3 1.2.1 3.1.2 4.2.4 2 .3 2.2.3 2-.1-.5-.8-5.5-1.8-11.1-2.2-1.8-.1-3.5-.3-3.9-.4l-.7-.2h.8c.4 0 2.2.1 3.9.3 5 .4 5.6.4 2.4-.3-7.3-1.5-9.6-2.2-4.5-1.4 2.9.5 9.5 1.7 9.9 1.9.2.1.3 0 .3-.1 0-.3-1.8-1.2-3.3-1.6-.7-.2-1.9-.6-2.5-.8-2.8-1-8.1-1.9-11.6-2h-1.3l.9-.2c.5-.1 3-.2 5.6-.3 2.6 0 4.7-.1 4.8-.1.1 0-.4-.2-.9-.5-1-.5-1.2-.5-7.2-.6-11.8-.2-15.8 1.1-31.8 9.6-2.9 1.6-3.6 1.9-4.6 2.1-.4.1-1.4.5-2.2.9-.8.4-1.5.7-1.7.7-.2 0-.9.3-1.8.7-1.6.7-2.8 1.1-2.5.7.1-.1.9-.5 1.7-.8.8-.3 1.8-.8 2.2-1.1.4-.3 1.3-.7 1.9-.9.7-.3 1.4-.7 1.7-.8s1-.7 1.8-1.1 1.7-1 2.1-1.3c.4-.3 1.2-.8 1.9-1.2.7-.3 1.4-.8 1.7-1.1.7-.6 3.5-2.2 5.4-3.2.9-.4 2.6-1.3 3.9-1.9 6-3 12.1-4.3 19.6-4.2 3.8.1 3.9 0 3.2-.9l-.3-.5-3.5.1c-3.8.1-3.4-.1.7-.3 2.5-.1 2.9-.3 2.1-.7-.5-.3-8-.1-10.2.2-1.7.2-6.2.9-7 1.1-.3.1-.2 0 .3-.2s1.1-.4 1.3-.5c1.9-.8 8.5-2.1 12.1-2.3 2.3-.1 2.3-.1 1.5-.9-1.6-1.6-7-1.1-12.6 1.1-1.6.6-1.3.4.7-.6 3.2-1.6 5.4-2.2 8.2-2.2h2.3l-1.4-1.3c-1.7-1.5-1.6-1.5-5-.8-4.9 1-9.5 4-17.2 11-1 .9-1.9 1.7-2.1 1.7-.1 0-.2.1-.2.3 0 .2 0 .2-.1.1s-.4 0-.7.2c-.6.4 5.4-5.5 6.8-6.7 2.6-2.1 3.9-3.1 5.2-3.9 2.4-1.5 7.1-3.3 8.9-3.5 1.5-.2 1.3-.4-.6-.5-2.1-.2-4.4.1-6.2.7-.8.3-1.4.4-1.4.4 0-.8 3.5-2.1 6.4-2.4 2.5-.3 2.9-.7.5-.5l-1.5.1 1.1-.3c.7-.2 1-.4.8-.5-.1-.1-.2-.2-.1-.4.1-.1 0-.2-.1-.1s-.4 0-.7-.2c-.4-.3-.6-.3-2.7.6-3.3 1.3-4.6 2.3-8.3 5.8l-1.9 1.9 1.3-1.5c3.2-3.9 6.5-6.6 9-7.4.4-.1.7-.3.7-.5v-.2c1.6-.1.9 0-.1.1M130 238.1c-.7 1.2-2.4 3.1-3.5 3.9-.3.2 0-.2.8-1.2.8-.9 1.8-2.2 2.3-2.9 1.1-1.5 1.3-1.5.4.2m167.2 2.3c.7 1.2.4 1.4-.4.3-.8-1.2-.9.3-.1 1.7.4.8.9 1.2 1.9 1.9.7.5 1.8 1.4 2.5 2 3.1 3 9.3 6.3 12.8 6.9 1.3.2 1-.1-1.5-1.5s-4-2.6-2-1.4c1.3.7 3.9 1.8 4 1.6 0 0-.3-.3-.7-.6-2.6-1.9-5.6-4.7-6.2-5.8-1-1.6-3-4.1-3.5-4.3-.2-.1-1.1-.3-1.9-.5-.8-.2-1.7-.5-2-.6-.8-.4-.9-.1-.1.5 1.5 1.2 1.2 1.4-.5.3-.9-.6-1.9-1.2-2.4-1.4l-.8-.3.9 1.2m85.3 1.9c-.5.4-1.1.7-1.3.7-.2 0-.4.1-.4.2s-.4.8-.8 1.6c-.5.8-1.3 2.6-2 4-1.8 4.2-2.2 4.9-2.6 5.5-.2.3-.4.7-.4.9 0 1.2 2.1-1.2 3.6-4.2 1.1-2.1 3-5.3 4.2-6.9 1.9-2.5 1.7-3.3-.3-1.8m-167.8 2.4c-2.1.5-2.9 2.9-1.4 4.1 1 .8 2.6 2.1 3.3 2.8 1.1 1 2.3.9 2.9-.2.4-.9.4-.9-.9-1.8l-1.2-.8 1.2.1c1.1.1 1.2.1 1.1-.2-.1-.2-.1-.5-.1-.8 0-.8-.5-1.1-1.8-1-.6 0-1.2 0-1.3-.1-.1-.1.2-.1.7-.1.8 0 1.3-.4.8-.6-.1 0-.5-.4-.9-.7-.7-.7-1.4-.9-2.4-.7m-9.2 3.5c-1.6.4-3.2 3.5-2.4 5 .2.4.2.8.1 1.7-.4 3.4 4.2 6.5 7.2 4.8 1-.6.8-1.7-.2-1.7-.2 0-.1-.1.1-.3.3-.2.3-.4.2-.8-.1-.4 0-.3.7.6 2.9 4.2 5.5 5.6 7.2 3.9 2.7-2.7-3.5-13.6-6.9-12.1-.4.2-1 .3-1.3.3-1.1 0-1.4 1.4-.9 3.8.2.6.2 1.2.2 1.2-.1.1-1.5-2.8-1.5-3.1 0-.2-.2-.5-.4-.9-.3-.4-.3-.7-.2-.9.3-.5-.7-1.8-1.2-1.7 0 .1-.3.2-.7.2m-12.6 4.2c.4 1.3 1.5 3.1 1.9 3.2.9.2 1.9.2 1.9.1 0-1.6-.6-2.4-2.3-3.1-1.6-.8-1.7-.8-1.5-.2m32.1.9c-.2.7-.4 1.4-.4 1.7 0 .3-.1.5-.2.4-.4-.1-.2-1.7.3-2.5.7-1 .7-1 .3.4m115.3 1.8c-1.2 1.5-2.6 3.2-3.1 3.8-1.4 1.5-1.1 2.1.6 1 .5-.4 1.6-1.1 2.4-1.7 3.4-2.4 6.5-5 6.2-5.4-.1-.1-.5.2-1 .6-1 .8-1.3.8-.7 0 .8-1-.1-.8-1.1.2-.5.5-1.1 1-1.4 1.2-.5.4-.5.3.5-1.1.4-.5.6-1 .5-1.1-.3-.6-.9-.1-2.9 2.5m-143.2-1.2c0 1 .8 1.9 1.4 1.8 1.6-.3 1.7-.8.4-1.4-1.4-.6-1.8-.7-1.8-.4m86.5 3.1h-.9c-.2 0 0-.1.4-.1.6 0 .8 0 .5.1m-113.2 1.6c4.7 1.7 5.9 2.2 7.7 3.5 1.7 1.1 2.9 2.3 2.9 2.7 0 .1 1 1 2.1 2 3.2 2.8 2.7 2.5-3-1.3-1.8-1.2-3.9-2.5-4.6-2.8-1-.5-2.8-1.8-2.5-1.8 0 0 .7.2 1.4.5 2.9 1.1 2 0-1-1.2-.7-.3-2.1-.9-3.1-1.3-1.2-.5-2.2-.8-3.2-.9l-1.5-.2h1.3c1.2 0 1.8.2 3.5.8m-68.4.6c.2 1 .6 1.9 1.2 2.5 1.2 1.3 1.2 1.7.1.8-.6-.5-1.4-1-1.8-1-.4-.1-1.1-.4-1.5-.6-1.4-.8-1.3-.5.2 1.1.8.8 1.5 1.7 1.7 1.9l.2.4-.5-.4c-.3-.2-.6-.4-.6-.3-.1.1.1.2.3.4.3.3.3.3-.4 0-.5-.2-.8-.4-.8-.6 0-.2-.4-.6-.9-.8-.5-.2-1.1-.6-1.5-.8-.4-.2-1.5-.7-2.5-1.1-1-.4-2.1-1-2.5-1.3-1.2-.9-.7.2.9 2 .4.4.9 1 1.2 1.3.3.3 1 .8 1.6 1.2.8.5 1 .7.9.8-.4.4-2.1-.4-3.4-1.5-.6-.5-1.4-1.1-1.7-1.2-.3-.1-.8-.4-1-.7-1.6-1.8-3.7-2.1-2.3-.3.3.4.5.8.5.9 0 .1.4.5.9.7.5.3 1 .6 1.1.8.1.2.3.3.5.3s.2-.1.1-.2.2.1.6.5a10 10 0 0 0 2.4 1.5c1.9.9 2.6 1.5 3.2 2.5.2.4.5.7.6.7.3 0 .4-.6.1-.9-.2-.2-.4-.6-.5-.9l-.2-.5 1.2.7c.7.4 1.5.9 2 1.3 1 .8 1.1.6.4-.7-1-1.7-.8-1.8 1-.3 1.8 1.6 2.3 1.4 1.5-.4-.7-1.6-.4-2.2.5-1 .9 1.2 3.1 3.3 3.6 3.4.4.1.3 0-.3-.6-.4-.4-.8-1-1-1.4l-.3-.6.8.7c1.8 1.7 3.7 2.4 2.2.8-.4-.5-.8-.9-.8-1 0-.2 2.6 2.5 3.5 3.6 1.2 1.5 1.7 1 1.1-1.1-.2-.8.6-.6 1.1.3.2.4.7 1.1 1.1 1.5.4.4.7.9.7 1 0 .1.1.2.3.3 1 .4.8-.8-.5-3.5 0-.1.6.4 1.4 1.1s1.5 1.3 1.5 1.4c0 .3 1.7 1 2.3 1 .8 0 .8 0-.5-1.3-.6-.6-1.2-1.4-1.4-1.7-.2-.4-.2-.5 0-.3.8 1 4.9 1.7 5.3.9.1-.2 0-.3-.9-.4-.5-.1-2.4-1.7-2.2-1.8.1-.1.6.1 1.2.4 1.5.7 1.8.7 1.2-.2-.1-.2-.4-.8-.6-1.4-.6-1.7-1.2-2.7-1.8-3-.8-.4-.9-.3-.8.4.1.4.1.7 0 .7-.3 0-1.4-1-1.4-1.3 0-.5-.6-.8-.8-.5-.3.4-.2 1 .2 1.9.4.7.4.7 0 .3-.5-.6-1.2-.6-1.2-.1 0 .2.1.4.2.5.1.1.2.2.2.3s-.2 0-.4-.2-.7-.5-1.1-.5c-.7-.1-.9-.8-1.1-2.9-.1-1.3-.3-1.7-.8-1.3-.3.2-.4.6-1.1 2.9-.5 1.7-.9 1.6-1.9-.3-.6-1.3-1.3-1.5-1.3-.5 0 1.1-1.3-.5-1.8-2.2-.4-1.6-1.4-.6-1.4 1.5v.6l-.5-.5c-.3-.3-.8-.6-1.1-.8a7 7 0 0 1-2.7-2.7c-.8-1.1-1.1-1.3-1-.2m99.8-.2c0 .2.5.4.8.4.1 0 0-.1-.2-.3-.4-.3-.6-.4-.6-.1m-128.4.8c-.3.1-.7.3-1 .4-.3.1-1.1.9-2.2 2.1a9.8 9.8 0 0 1-1.9 1.9c-.1 0-1.1.9-2.2 2a41 41 0 0 1-8.9 6.5c-1.4.8-3.1 1.8-3.7 2.2-2.3 1.6-4.9 2.9-7.3 3.8-3.6 1.3-4 1.8-4.4 4.7-.8 5.4-2.7 9.7-5.3 12.4-1 1-.9 1.1.3.8 1-.2 1.8-.9 2.5-2.1.3-.5-.3.9-.9 2-.4.8-.6.9-2.8 1.6-3.7 1.2-4.7 2.5-4.7 6.6 0 1.6.1 2.4.4 3.2.6 1.7.3 3.3-.9 4.7-2.2 2.5-3.4 4.4-3 4.8.1.1-.1.6-.5 1.3-.7 1.1-.8 1.7-.5 1.9.1.1.1.2 0 .5-.3.5-.3.6.2.6.8 0 1 .3.3.6-.4.2-.7.5-.8.7-.1.2-.2.4-.3.4-.3 0-.2.9.1 1 .2.1.7.1 1.3 0 .9-.1 1-.1 1.8.7.9.9.9.9 2.7.5.8-.2-.1.7-1 1-1 .3-.9.5.1.4 1.1-.1 3-1.3 3.9-2.5.7-.9.8-.7.3.5-.4.9-1.1 1.6-2.2 2.4-1.1.8-1 .8.7.4 2.1-.5 3.2-1.9 4.1-4.9l.3-1.2-.6-1.3c-.5-1-1-1.6-1.7-2-.3-.2 1.3-6.1 2-7.5.2-.5.2-.6 0-.6-.3 0-1 1.2-1.7 3-.6 1.6-.7 1.5-.3-.3.4-1.7 1.3-3.5 2.3-4.4 2.7-2.4 3.9-5.9 3.3-9.9-.2-1.7-.2-1.8.9-3.5 1-1.5 1.7-2 3.7-2.7 4.6-1.5 7-4.1 7.4-7.8.1-1.3.3-1.3.6.1.2 1.1.3 1.2.7.5 2.5-4.1 10-7 17.9-6.8 3.9.1 7.7.6 8.4 1.2l.5.4-.2-.7c-.2-.7 0-1.7.5-3.1.6-1.7-.2-3.3-2.7-5.5l-1-.9.9.3c1.1.4 2.8 1.9 3.6 3.1.5.8.6 2.3.3 4.6-.1 1.2.8 3.2 1.7 3.8.3.2.6.5.6.6 0 .2.7.6 1.4.9 1 .4 1.4.7 1.5 1.1.2.4.5.7 1.7 1.2 1.9.8 2.2 1.1 2.2 2.2 0 1.5-.2 2.1-.9 2.2-1.8.4-4.3 3-5 5.3-.8 2.7-.1 4.4 1.4 3.3 1.2-.9 4.7-1.3 5.9-.8.4.2.4.2 0-.3-.4-.4-2.2-1.2-2.9-1.2-.2 0-.4-.1-.3-.1.3-.3 2.8 0 3.7.5 1.1.6 1.1.6 1.6-1 .4-1.4.4-2.1-.2-2.9-.5-.7-.4-1 .1-.5.2.2.2.2.1-.2-.1-.5-1.6-2-1.9-2-.1 0 .1-.3.4-.6.6-.6.6-.6.6-2.7 0-2.9 0-2.9-1.8-2.9-1.1 0-1.6-.1-2.4-.5-1-.5-2.3-1.5-1.5-1.2 2.2.9 2.7.9 2.3 0-.8-1.9.6-4.1 3.3-5.2l1-.4.4.4c.5.6.8 2.2.6 4-.1 1.7-.1 2 .4 2 .4 0 .6-.7.6-1.8 0-.3.2-1.3.4-2.1.9-3.4-.2-5.4-3.4-5.9-.4-.1-1.5-.3-2.5-.6-.9-.3-1.9-.5-2.1-.5-.4 0-1.9-1.4-2.8-2.5-.3-.3-.7-.7-1-.8-1.4-.6-1.5-1-.2-1.2 1.9-.2 2.2-1 .8-2.8-.8-1-.8-1.3 0-.8.6.4.7.4.5-.5-.1-.5-.2-.7-.4-.7-4.2 0-4.4 3.8-.2 7.8 1.6 1.5 1.6 1.6.9 1.3-.4-.2-1.2-.5-1.7-.7-5.5-2.2-9.7-6.3-8.4-8.3.2-.3 1.2-.7 1.4-.5.1.1.8.2 1.6.3.8.1 1.6.2 1.8.3.2.1.3.1.3 0 .7-1.2-7.6-3.7-8.9-3.1m93.1 1.1c.3.1 1.3.8 2.4 1.6 1.1.8 2.4 1.7 2.9 2 .8.5 2.4 1.6 5.1 3.7.4.3.4.3-.1.1-.4-.2-4.5-3-5.4-3.6-.1-.1-.3-.2-.5-.2-.5-.1-2.4-1.3-2.6-1.7-.2-.4-1.9-1.5-2.8-1.8l-.6-.2h.5c.4-.1.8 0 1.1.1m-45.1.8c-.5.1-.4.3.4 1.3.4.5 1 1.3 1.2 1.8.5 1 .6 1.2 1.3 1 1.1-.3 0-2.9-1.6-3.8-.8-.5-.8-.5-1.3-.3m-32.7.7c.1.2.2 1.1.4 2.1.5 2.7.9 3.4 2.3 3.6 1.4.2 1-1.5-1.1-4.2-1.1-1.6-1.9-2.3-1.6-1.5m73.7.4c1.2.3 2.6 1.1 2.6 1.4 0 .5-.3.7-.6.4-.4-.4-2.3-1.5-3.2-1.8-1.1-.4-.1-.4 1.2 0m-83.2 1c.1.2.2.3.3.3s.2-.1.2-.3c0-.2-.1-.3-.3-.3-.2 0-.2.1-.2.3m80.6 1.1c1.4.3 2.9 1 2.9 1.3 0 .1-.1.6-.2 1l-.2.9-.7-.3c-.8-.4-3.6-.8-5.1-.8-.6 0-1.3-.2-1.8-.4-.4-.2-1.3-.5-1.9-.7l-1.2-.4 1.3-.2c.7-.1 1.5-.3 1.9-.4.8-.3 3.3-.3 5 0m7.1.1c.4.3.4.4.1 1l-.3.6-.6-.5c-.8-.8-.1-1.8.8-1.1m-74.9.2c0 .4 2.1 4.2 2.6 4.7 1 1 2.3.6 2.3-.6 0-.8-2.1-3.3-2.9-3.3-.2 0-.7-.2-1.1-.5-.5-.3-.9-.4-.9-.3m87.3 1.8c3.8 1.9 11.2 7.7 12.9 10 .2.3-.3-.1-1.1-.8-.8-.8-1.6-1.4-1.7-1.4-.1 0-.2-.1-.1-.2s0-.2-.1-.1c-.3.1-.8-.3-4.5-3.5l-2.3-1.9s-.9-.5-1.9-1.1c-1-.6-2.5-1.4-3.3-1.9-.8-.4-1.5-.8-1.5-.9-.1 0 1.6.8 3.6 1.8m-11.1.1c-.8.7-.9.6-.4-.3.4-.7.5-.7.7-.5.3.2.2.3-.3.8m5.9 2c-.2.2-1.8-1.1-2.8-2.1-.9-.9-.8-.9.9.5 1.2.8 2 1.5 1.9 1.6m-9.8-2c.4.5-.2 1.8-.9 1.5-.4-.1-.4-.3 0-1.2.3-.7.5-.8.9-.3m7.3 2.5c1.2 1.1 2.4 2.3 2.8 2.5.4.2.9.6 1.1.9.2.2.9.7 1.6 1 .6.3 1.4.8 1.8 1l.6.5-.3 1-.3 1-1.8-.9c-1.4-.7-2-1.1-2.6-1.9-1.2-1.4-3-3.3-4.6-5.1l-1.4-1.5.5-.3c.3-.2.5-.3.5-.3 0 .1.9 1 2.1 2.1m-5.5-.6c.7.8.7.8.2.6-.3-.1-.8-.2-1.1-.2h-.6l.3-.6c.5-.8.3-.8 1.2.2m9.5 1c.3.2.6.2.6.1s-.1-.2-.2-.2-.2 0-.1-.1c.3-.3 4.7 2.3 8.4 5 .4.3.4.3.3 0-.2-.6.3-1 1.1-.9 1.4.3 8 7.4 11.2 12.2 1.2 1.7 1.7 2.1 1 .8-.2-.4-.7-1.6-1.1-2.7-.6-1.7-2.6-5-3.5-5.9-.6-.6-.2-.6.6 0 1.9 1.5 5 5.6 7.8 10.4 4.6 8 7.6 11.9 11.6 15.2 2.7 2.2 2.8 2.3 2.7 2.9-.2.7.5 1.3 3.9 3.1 2.3 1.3 2 1.3-1.3.2-1.5-.5-3-.9-3.3-1-1.5-.3-7.8-5.8-9.4-8.2-.5-.8-1.6-2.4-2.4-3.7-1-1.5-2.3-3.2-3.7-4.6-1.2-1.2-2.6-2.9-3.1-3.6-3.1-4.4-6.6-8.8-8.8-10.8-1.5-1.5-1.4-1.1.3 1 1.2 1.5 3.1 4.1 4.1 5.9.3.5 1.1 1.6 1.8 2.5 1.4 1.8 2.5 3.4 4.2 6 1.2 1.9.9 1.8-.5-.2-.9-1.3-2.3-3-4.7-5.8-.7-.8-1.6-2-2.2-2.9-.5-.8-1.2-1.6-1.4-1.9-.2-.2-.7-.8-1-1.3-1.9-2.7-5.6-6.3-7.6-7.4-2.2-1.3-2.6-1.6-2.7-2 0-.3-.4-.6-.9-.9-1.5-.8-2.9-1.8-2.9-2 0-.1.1-.1.3.1.2.3.6.6.9.7m-31-.1c-.1.1.1.2.3.3.6.1.6.1.2-.2-.2-.2-.4-.2-.5-.1m-3.3.5c-2 .5-4.2 1.2-6.3 2.2-1.1.5-2.3 1-2.6 1.1-.3.1-.7.3-.8.4-.2.3-.2.3.1.2 1.8-.7 6.4-1.5 7.4-1.3l.6.1-.6.1c-3.2.8-5.2 1.7-3.7 1.7 1.9 0 3.6 1.6 3.6 3.4 0 .5-4.4 2.8-7.5 3.9-1.8.7-3.4 1.4-2.6 1.2 2.7-.6 6.5-.9 5.4-.4-.4.2-1.4.5-2.2.7-1.8.5-1.9.6-.4.8 2.2.3 3.5 1.3 3.1 2.6-.3 1.1-4.1 3.3-7.2 4.3-2.3.7-2.3 1-.1 1 2 0 3.8.6 3.9 1.2 0 .3-2.1 1.5-3.8 2-1.8.6-1.9.6-1.9 1.1 0 .6.1.6 2.5.1 2.3-.5 2.7-.5 2.3-.1-2.3 2.2-3.5 2.9-6.7 3.9-1.3.4-2.4.8-2.5.9-.4.4.1.3 1.9-.1 1-.3 2.6-.6 3.5-.8.9-.2 1.9-.4 2.2-.6.8-.4.9-.3 0 .3-.8.6-3.9 2.2-4.8 2.4-1.1.3-.5.6 1.6.8l1.2.1-1 1.1c-1.2 1.3-2.1 3.1-3.1 6.1-.9 2.8-.8 3.3.3 1.2.7-1.4 2.2-3.8 2.4-3.8.1 0-1.2 3.5-2.1 5.4-.2.4-.4 1-.5 1.3-.2.9.3.5.7-.5.4-1.1 1.5-2.8 2.5-3.8.4-.4 1.1-1.5 1.6-2.5 1.1-2.1 1.1-2.1.6-.2-.2.8-.7 2.3-1 3.3-.3 1-.8 2.4-1.1 3.1-.7 1.6-.6 2 .2.8.3-.5 1-1.3 1.5-1.8s1.1-1.2 1.3-1.6l.4-.6-.4 1c-.2.6-.8 1.8-1.4 2.7-.5.9-1 1.7-1 1.8 0 .2 1-.3 2.6-1.3.8-.5 1.8-1 2.2-1.1.4-.1.8-.4 1-.7.2-.3.3-.5.3-.4 0 .3-1.2 3.6-1.6 4.5-.6 1.2-.6 1.6-.1 1 .2-.2 1.1-.9 2-1.4l1.6-1-2 1.9c-2 1.8-2.4 2.6-1 1.5 1.3-1 7.8-4.1 7.2-3.5-.7.7-.1 3.6 1.1 5.1.8 1 1.1 1 .5-.1-.2-.3-.4-1.2-.4-1.8l-.1-1.2.4 1.2c.4 1.5 1.1 2.8 1.3 2.5.1-.1 0-.4-.1-.7-.2-.5.1-2.6.3-2.6.1 0 .1.2 0 .5-.1.6.1 2.1.3 2.1.1 0 .3-.3.6-.7s.5-.7.7-.7c.2 0 .3-.1.3-.2 0-.3 2.4-2 2.9-2 1.3-.1 1 2-.6 3.7-.9 1-1 1.2-.7 1.2.5.1 1.7-.8 2.8-2 .5-.5.9-.9.9-.8 0 .2-.6 1.4-.9 1.7-1.4 1.6 4.3-1.3 8.3-4.3 1.3-1 2-1.7 2.2-2.4.1-.2.2 0 .3.5.5 1.4-.1 3.4-1.3 4.7-.4.4-.6.8-.6.9.3.3 2.7-2 3.2-3.1l.3-.6-.1.7c-.1.4-.2 1-.4 1.3l-.3.6.6-.4c.7-.5 2.1-2.4 3.5-4.7 1.2-1.9 1.3-2 1.4-1.2.3 1.2 3.2 4.5 3.6 4.3.1-.1.1-.2-.1-.4-.4-.5-1.4-2.7-1.6-3.5l-.1-.7.4.8c1 1.7 2.3 3.1 3.3 3.5.7.2.5-.2-.3-.6l-.8-.4.1-1.9c.1-2.6 1.5-4.9 2.9-4.6 1 .2 1 3.2.1 4.9-.8 1.6-.8 1.5-.2 1.5 1.4 0 2.8-2.9 2.5-5.4-.1-.7-.2-1.3-.3-1.4s-.2-.3-.2-.5c0-.5-.4-.6-1.8-.6-1.2 0-2.7.6-2.7 1.1 0 .1-.1.3-.3.5-.4.4-.4 0 .4-1.4.8-1.5.8-1.7.3-1.7-.4 0-1.2.9-1.7 2-.4.9-.4.6 0-.7.2-.7.6-1.3 1.2-1.9 1.3-1.3 1.1-1.7-.5-1.1-.9.4-2.7 2.4-3.3 3.8-.2.4-.5.7-.6.7-.4 0-.9.6-2.2 2.8-.6 1.1-1.2 2-1.2 2s-.3-.3-.7-.6c-1.7-1.9-4.9-1.8-7.2.4-.5.5-1 1-1 1.2 0 .3.7.4.8.1.3-.7 2.9-1.6 3.2-1.1.2.3-1.5 1.7-3.7 3.2-2.3 1.6-2.1 1.5-2.1.5.1-2.5-3.3-3.7-5.9-2.1l-.9.5.9-1.6c.6-1.1 1.4-2 2.4-3 2.2-2.1 3.8-4.5 3.1-4.5-.1 0-.3.2-.5.4s-.4.3-.5.3c-.1-.1-.1 0-.1.1.2.3-3.1 2.9-4.4 3.4-.8.3-1.6.4-3 .5-1.5 0-2.2.2-3 .5-1.3.5-1.8.5-.7 0 .6-.3.8-.5.6-.6-.2-.1-.2-.2 0-.2.6 0 2.7-1.1 3.4-1.8.9-.9 1-1.5.2-.9-1 .7-2.7 1.2-4 1.2-.7 0-1-.1-.8-.1.2 0 .6-.2.8-.3.2-.1.7-.2 1.1-.3 1.6-.3 2.9-1.8 4.4-5.1.5-1.1 1.1-2.4 1.5-3 .7-1.2.7-1.4.2-1.4-.8 0-2.9 1.7-2.9 2.4 0 .1-.3.6-.6 1.1-.3.5-.9 1.6-1.3 2.7-.7 1.8-1.2 2.5-2 2.8-.2.1-.6.3-.7.4-.2.2-.3.2-.3.1 0-.2-.1-.2-.4 0-.7.4-.6.2.1-.5.6-.6 2.6-4.2 2.6-4.6 0-.1-.2 0-.4.1s-.5.2-.5.2c-.1 0-.6.3-1.2.7s-1.1.7-1.1.5c0-.1-.2 0-.4.2-1 .9 1.1-1.1 3-2.8 1.8-1.6 3.5-3.5 3.5-4 0-.1-.4.2-.8.6-1 .9-1.6 1.4-2.6 2l-.8.5 1-1.2c.6-.6 1.5-1.7 2.1-2.4 1.1-1.4 3.1-3 4.9-3.9 1.2-.6 1.4-1 .7-1.4-.5-.3-.6-.3 2.3-1.4.7-.3 1.2-.6 1.2-.7 0-.2-2.4-.2-3.4 0-1.1.3-.4-.3.8-.6 1-.3 1.1-.7.1-.8-2.2-.1-2.1-.2.7-1.6 3-1.4 3.4-1.8 3.6-2.8.2-1.3-.7-1.6-2.6-1.1-.5.2-.6.1-.4-.1.2-.3 1.9-.8 4.1-1.4 2.3-.5 7.5-2.8 5.6-2.4-5.7 1.1-6.3.9-1.2-.6 1.7-.5 1.4-.7-.8-.6-1 .1-1.9.1-1.8 0 .3-.3 5.6-1.5 6.7-1.5.8 0 1.1-.1 1.1-.2-.2-.6-5-.7-8-.2-3.1.5-2.9.5-2.4.2.5-.4 4.3-1.8 4.8-1.8s.5-.4 0-.5c-.2-.1-.9-.3-1.5-.6-.6-.2-2.7-.9-4.6-1.4l-3.4-1-.5.6c-.7.8-2.2 1.5-3.4 1.7-1 .1-1 .1-.5-.2.7-.3 2.3-1.7 2.3-1.9 0-.2-3.5-1.4-4-1.4-.2 0-.4-.1-.4-.3-.2-.8-.4-.8-1.4-.6m-75.9 1.4c-1.3.7-3.1 1.6-4 2-1.5.8-7.1 4.5-8.2 5.5-1.1.9-1.4 1.1-.6.3 1.7-1.6 5-4.3 6.4-5 .8-.4 1.8-1.1 2.3-1.5 1.1-.8 2.6-1.5 4.5-2.1 2.4-.8 2.2-.5-.4.8m37.3-.6c0 .1.1.7.3 1.3.4 1.9.4 2-.4.8-.9-1.6-1.2-1.8-1.5-1.5-.3.4-.1 1.4.5 2.2.6.9.6 1.8.2 3.2-.5 1.7-.1 1.6 1.4-.4.5-.6 1-1.4 1.2-1.9l.4-.8.3.5c.6 1 .6 2-.1 3.3-1 1.9-.3 2.2 1.3.5 1.5-1.5 1.9-2.8 1.3-4.3-.6-1.5-1.5-2.8-2.1-3.1-.6-.3-.6-.4.1 1.2.8 1.7.6 1.8-.4.5-.5-.6-.9-1.1-1-1.1-.1 0-.4-.2-.7-.4-.4-.1-.8-.2-.8 0m91.9 1.7c.1-.1.2.1.2.3 0 .7-.4.6-1.1-.1l-.7-.7.8.3c.2.2.7.3.8.2m2.2 2.1c-.7.8-1.1.7-.9-.2.2-1.1.2-1.1.9-.8l.7.3-.7.7m-87-.8c-.2.2-.6 1-.9 1.7-.3.8-.9 1.8-1.3 2.3-1.5 1.8-.4 2.1 1.9.4.7-.5 1.4-2.9 1.4-4.4 0-.5-.6-.4-1.1 0m2 .1c-.1.1-.1.3-.1.5s-.1.9-.3 1.4c-.4 1.4-.2 1.8 1.4 3.2.7.6 1.5 1.2 1.7 1.4.2.2.5.3.7.2.1-.1.3-.1.4-.1.2 0 .1-.8-.2-.9-1.2-.7-3.1-3.9-3.1-5.2 0-.5-.2-.7-.5-.5m1.6.6c.5 2.3.7 2.4 2.3 3.2 1.4.7 1.5.8 1.6 1.4.1.7.5.9.5.3.2-1.9-1-3.6-3.4-4.9l-1.1-.6.1.6m85.4.4c0 .1-1.2 1.8-1.6 2.3-.1.1-.2 0-.4-.2-.2-.3-.1-.5.6-1.3.8-.8 1.4-1.2 1.4-.8m-17.9 1.7c0 .9-.2 1.2-.6 1.1-.5-.1-.5-.4-.1-1.3.3-.8.7-.7.7.2m20.5.7l1.3 1.4v1.2c0 1 .1 1.2.3 1.1.2-.1.3 0 .3.1s.2.2.6.1c1-.2 1.8.6 2.2 2.2.1.3.6 1.3 1.3 2.3.9 1.4 1.3 2.2 1.7 3.6.3 1 .7 2.2.9 2.5l.4.7-.6.9c-.6.9-1.1.9-1.1-.1 0-.2-.5-2-.7-2.3-.2-.3-1 .3-1 .6.1.2.1.4 0 .4-1 0-1.7-2.1-1.1-3.3l.4-.8s-.2-.1-.5-.1-.5.1-.4.3c0 .2-.2.4-.5.5-1 .3-2.4-1.1-3.3-3.5-.8-2.1-2.1-4.8-2.8-5.8l-.6-1 .7-.9c.4-.5.7-.9.8-1 0 0 .6.5 1.3 1.3.7.7 1.3 1.3 1.4 1.2.2-.2-.1-.6-1.4-1.8-.7-.6-1.1-1.1-1-1.1-.1 0 .6.6 1.4 1.3m17.8.2c-.3.4-.5.2-.5-.5v-.7l.3.5c.2.3.3.6.2.7m92.1-1c-1.5.1-1.5.1-.8.9.4.6.6.6 1.9.8.8.1 1.8.2 2.3.3 1.1.2 1.1.2.7-.8-.3-.7-1.8-1.5-2.6-1.3-.1 0-.8.1-1.5.1m-127.7 2v.5l-.9-.3c-.9-.3-1.1-.7-.8-1.5.2-.4 1.7.7 1.7 1.3m-17.8-.8c-.6.1-1.4.4-2.1.9-.7.4-1.6 1-2 1.2-.4.2-.8.5-.9.5-.5.4.4.3 1.2 0 .6-.3 2-.7 3.3-1 3.4-.8 4.3-1.2 3.7-1.5-.4-.2-2.2-.2-3.2-.1m54.9 1.4c0 .1-.3.6-.6 1.1l-.6 1-.4-.9-.4-.9.8-.6c.7-.5 1.2-.4 1.2.3m-35.1.4c.7.7.6.9-.3.5-.4-.2-.6-.5-.6-.7.1-.6.3-.5.9.2m-33.3.1c0 .2-2.7 1.8-4.3 2.6-2 .9-2.2 1.1-1.3 1.2.8.1 1.1.6.9 1.8-.2 1.8-2.6 3.4-6 4.2-1.4.3-1.4.3.2-.6 3.4-1.9 5-3.8 3.7-4.4-.3-.1-.5-.3-.5-.4 0-.3-1.2-1.4-1.6-1.5-.2 0 .1-.2.7-.2 1.3-.2 4.4-1.1 6.4-1.9 1-.6 1.8-.9 1.8-.8 0-.1 0-.1 0 0m16.1.5c-.3.1-1.5.4-2.8.6-2.8.5-5 1.4-6.5 3-1.4 1.3-1.3 1.9 0 .8 1.1-.9 1.9-1.1 3.8-1.3 2.4-.2 3.8-.8 5.3-2 1.4-1.3 1.5-1.6.2-1.1m33.8-.1c-.3.1-.3.9 0 1.2.2.2.3.1.2-.6v-.8c0 .1-.1.1-.2.2m20.4.7c.2.2.1.2-.6 0-.3-.1-.5-.3-.4-.4.1-.2.7 0 1 .4m-.9.3c.4.2 2.2 1.4 3.7 2.6.3.2.5.5.4.6s0 .2.2.3c.2.1.3.2.3.3 0 .5 1.2 1.9 2.7 3.2 1.7 1.5 2.3 2.2 1.5 2.1-1.2-.2-.3.4 1.2.9.9.3 2.3.7 2.9 1 .7.3 1.4.5 1.6.5.2 0 .6.4 1 1.1.4.6 1.1 1.6 1.7 2.3l1.1 1.2-.9-.1c-.5-.1-1.4-.2-2-.2-.6-.1-1.4-.3-1.8-.5-.4-.2-1.7-.7-2.9-1.2-4.3-1.6-7.2-3.3-7.2-4.3 0-.1-.2-.2-.3-.3-1.1 0-6.1-4.6-6.1-5.6v-.7l1 .9c.5.5 1.1.9 1.3.9.4 0 .6-.4.3-.6-.1-.1-.2-.4-.2-.7 0-.3-.3-.8-.6-1.3l-.5-.8.5-.8c.3-.5.5-.8.5-.8.1-.2.4-.1.6 0m-141.8.8c-.4.2-1.7 1.4-2.9 2.7-2.3 2.4-2.2 2.3-3.9 2.5v.4c.1.6 1.8 1.3 2.3 1 .2-.1.5-.3.8-.4.2-.1.6-.4.7-.6.1-.2.8-1.3 1.4-2.3.6-1 1.4-2.1 1.7-2.4 1.1-1.1 1.1-1.6-.1-.9m76.8 1.7c-1 1.6-4 4.2-5 4.2-.1 0-.4.1-.5.3-.2.3-.2.3.3.2.3-.1.6 0 .8.1.4.3 3.6.1 3.6-.3 0-.1-.1-.3-.3-.4-.3-.2-.2-.3.2-.9.3-.4.5-.8.5-1 0-.1.4-.9.9-1.7 1-1.6 1-1.8.6-1.8-.2 0-.7.6-1.1 1.3m61.1-.4c0 .5-.1.4-.6-.5-.2-.3-.2-.3.2-.1.2 0 .4.3.4.6m51 .1c-.2.1-.5.2-.7.2-.2 0-.1-.1.1-.2s.5-.2.7-.2c.2 0 .2.1-.1.2m-78.3 2.8c2.5 3.2 4.2 5.4 5 6.6.4.7 1.5 2.2 2.3 3.4l2.4 3.3c.5.7 1.2 1.7 1.6 2.2 1.1 1.5 1.1 1.7.1.5-.5-.6-1.8-2-2.8-3-2.8-2.9-3.9-4.3-5.1-6-.6-.9-1.6-2.3-2.4-3.1-.7-.9-1.5-1.9-1.6-2.2-.2-.4-.9-1.3-1.5-2-.6-.8-1.1-1.4-1.1-1.5.1-.1 1.2.9 1.7 1.7.2.4.5.6.6.6.3 0 .1-.6-.6-1.6-1-1.6-.1-.8 1.4 1.1m-142.1-.7c-.9 2.2-2.4 3.7-3.7 3.7-.3 0-1.1.3-1.7.6-2.2 1.1.1-1.1 2.4-2.3 1.2-.7 2.4-1.8 2.9-2.6.6-1 .6-.6.1.6m199.8-1.2c.3.2-.5.8-1.1.8-.2 0-.6.1-.9.3-.5.3-.5.2-.8-.2-.4-.6 2-1.4 2.8-.9m-151.7.8c0 .8.5 2.9 1.1 5.2.4 1.3.8 4.5.8 5.9 0 1.7-1.8 4.4-3.1 4.8-.6.2-.5.7.1.7.7 0 2.6-1.4 3.4-2.4 2.2-3.1 2.3-5.6.3-9.8-.5-1-1-2.3-1.2-3-.5-1.9-.6-2.1-1.1-2.1-.2 0-.3.1-.3.7m148 1.1l.4.9-1.2.6c-1.5.7-1.6.7-2.7 0l-.9-.6.7-.2c.7-.2.6-.2-.2-.1-.5.1-1.1 0-1.4-.2l-.5-.3.5-.1c.3-.1 1.3-.3 2.2-.5 2.6-.5 2.6-.5 3.1.5m-83.5.1c-2.9.9-3.5 1.3-4.1 2.7-1 2.2-1.1 5-.1 5.6.5.3.6 0 .4-.8-.4-1.4 1.6-4.4 3.7-5.4.6-.3 1.3-.7 1.5-.9s.7-.5 1-.7c.6-.3 1-.8.8-1-.3-.3-1.3-.2-3.2.5m73.1.1l2.2.1.1 1.6.1 1.6-.7-.3c-1.8-.7-3.8-2-5.6-3.7 0 0 .4.1.9.2.4.3 1.8.4 3 .5m5.7 2.1l.7.5-.9.2c-.5.1-1.1.3-1.4.3l-.5.1-.1-1.3-.1-1.3.8.5c.5.2 1.2.7 1.5 1m78.6-.7c0 .1-.3.4-.7.6l-.7.4-.4-.5-.4-.6c0-.3 2.2-.2 2.2.1m-256.9 0c-.1.1-.2.5-.2.9-.4 2.1-1.6 3.5-3.7 4.2-1.2.4-1.7.7-1.4.9.1.1.9 0 1.8-.2 3-.5 4.5-2.1 4.2-4.7-.1-1.1-.4-1.6-.7-1.1m88.7.5c0 .1.1.2.3.2.2 0 .3-.1.3-.2s-.1-.2-.3-.2c-.2 0-.3.1-.3.2m-78.2.2c-.3.4.1 1.1.8 1.6l.7.5-.1 1.8c-.1 2.6-.6 3.5-3 5.1-.6.4-1.4.8-1.9.9-.4.1-.9.3-1.1.3-.8.2.2.9 1.3.9 2.6 0 5.7-2.1 6.4-4.4.8-2.6.1-5.1-1.6-6-.5-.3-1.1-.6-1.2-.7-.1-.3-.2-.3-.3 0m-5.7.2c-.1.1-.1.5 0 .9.4 2.3-2.9 5.9-5.4 5.9-.7 0-.7.3-.2.6 1.6.9 4.8-.5 6-2.6.9-1.5.5-6.3-.4-4.8m28.8.9c-.3.2-.1.6.3.6.2 0 .3-.2.3-.4 0-.4-.1-.4-.6-.2m161.6.6c-.1.5.1.5.5.2.2-.2.2-.2 0 .1-.1.2-.8.7-1.5 1.1l-1.2.8-1.3-.4-1.3-.4.7-.1c.9-.2 2.5-.9 3.1-1.4.7-.5 1.1-.5 1 .1m-103.1 1c-1 1.6-1.1 4.3-.2 6.2 1 2.2 1.3 2.1.7-.3-.4-1.6-.3-3.5.1-3.4.1 0 .2-.4.2-.9s.2-1.1.3-1.3c.4-.7.4-1.4-.1-1.4-.2-.1-.5.3-1 1.1m-10 .1c0 .6-5 3.4-7.3 3.9-2.5.7-2.7.3-.3-.7.9-.3 1.9-.8 2.3-1.1.8-.5 3.7-1.8 4.6-2 .3-.1.6-.2.7-.1-.1-.1 0-.1 0 0m108.8 1.7l.8.2-.6.3c-.6.2-.7.2-2.1-.5-.8-.4-1.6-.7-1.8-.7-.2 0-.1-.1.2-.2.4 0 .7.1 3.5.9m-202.6-.5c-.1.2-.3.8-.4 1.3-.1.5-.4 1.3-.6 1.8-.2.5-.7 1.6-1.2 2.6-1 2.4-1.2 2.6-2.1 2.9-1.9.6-2.4 1-2.7 2.1-.2.6-.6 1.8-1.1 2.6-1.4 2.9-1.4 3.5 0 4.1 2 .8 3.8 9.4 2.7 12.7-1.2 3.3-.1 7 2.3 7.8.7.2 2.2 1.8 2.2 2.2 0 .3.8 2 .8 1.7 0-.3 1.7-2.2 2-2.2.1 0-.1.6-.5 1.4-1.1 2.2-1.6 4.9-1.1 6.1.3.7.8.7.8-.1 0-.8.5-2.1 1.1-2.7 2.4-2.5 2.7-3.6 1.4-6.1-1.1-2.1-1.9-2.7-3.6-2.7-1.6 0-1.7-.2-.7-1.2 1.2-1.2.8-4.5-.6-4.7-.4-.1-.4-.2-.4-.7.1-.7-.3-3-.6-3.8-.3-.9-.8-.7-.8.4 0 1 0 .9-.9-4.2-.2-1.3-.4-1.9-.7-2.1-.4-.3-.3-.9.2-2.2.1-.3.3-1.4.3-2.4l.1-1.9.3 1c.3 1.2.3 2.9.1 3.9-.2.7-.1 1.5.2 1.5.1 0 .2-.3.3-.6.1-.3.2-1.1.3-1.6.1-.5.2-1.6.3-2.3.2-3 .3-4.9.5-5.1.1-.1.3-.8.6-1.6.2-.8.6-1.9.9-2.5.5-1 1.5-4.8 1.5-5.4-.1-.4-.6-.4-.9 0m101.1.3c-1.5 1.4-2.2 3.2-2.4 6.4-.1 1.9-.2 2.5-.5 2.9-1.3 1.8-2 3.3-1.5 2.9.1-.1.2 0 .3.1.2.7 2.1-3.3 2.9-6.3.5-1.9.7-1.6.4.6-.3 1.7-.3 2.3 0 2 .1-.1.3-1.1.5-2.1.3-1.8.6-2.7 1.3-4.5.6-1.4.7-1.7.7-2.2-.1-.6-.8-.6-1.7.2m57.2.6c.1.1 0 .1-.2-.1s-.3-.6-.3-.8c0-.3 0-.3.2.1.1.3.2.6.3.8m40.1.1c2.7 1.1 2.6 1.1 1.5 1.5-4 1.8-4.9 2-4.7 1.5.1-.2.3-1.1.6-2.1.5-1.9.3-1.8 2.6-.9m-3.7.5c-.2.5-.5 1.4-.6 2l-.3 1-1 .1-1 .1-1.4-1.6c-2.3-2.7-2.5-2.4 1.3-2.4h3.3l-.3.8m-15-.4c.3.3.9.5 1.1.3 0-.1-.2-.2-.6-.4-.6-.1-.7-.1-.5.1m58.4.2c0 .2-.5.4-1.5.6-1.4.3-1.4.3-1.3-.1.1-.2.5-.4 1.1-.5.9-.1 1.4-.2 1.6-.3.1.1.1.2.1.3m-76.1 3l-.7.6-.6-.8-.6-.8.6-.9.6-.9.7 1 .7 1-.7.8m71.4-1.9c-.2.4-.6.8-.8.8-.2 0-.7.1-1.1.3l-.8.3-.1-.7c-.1-.9-.3-.8 1.5-1.1.9-.2 1.6-.3 1.6-.3.1-.1-.1.3-.3.7m-229.9 1c-.3.6-.7 1.4-1 1.7-1.4 2-3.5 7.4-3.1 7.8 0 .1.3-.3.6-.9.3-.5.7-1.2.9-1.4l.4-.5-.4.9c-1.2 2.9-1 3.9.2 1.4.4-.8 1.1-2 1.5-2.7 1.9-3.3 2.4-4.2 2.7-5.4.5-1.6.2-1.6-1 .2-1.5 2.3-1.7 2.2-.5-.4.9-2 .9-1.9.5-1.9-.1 0-.4.3-.8 1.2m267.4-.8c.1.3.2.3.8.3.9-.1 1.1-.2.7-.4-.5-.4-1.5-.3-1.5.1m-42 .5c0 .2.1.6.1.8.1.4-.2.5-2.4 1.4-1.4.5-2.6 1.1-2.7 1.2-.1.1-.3.3-.4.3-.2 0-1.1-2.5-.9-2.6.1 0 1.4-.3 2.9-.7 1.6-.3 2.9-.7 2.9-.7.3-.3.5-.1.5.3m-32.5 0l-.6.3.6-.1c.3-.1.7-.2.9-.3.5-.3-.2-.2-.9.1m-105.5 2c-1.1 1-2.8 1.9-4.6 2.5-1.3.4-1.4.7-.3 1.2 1.7.7 1.5 2-.5 4-2.2 2.1-3.1 2.5-1.7.6 1-1.3 1.7-2.5 1.7-3 0-.8-.8-2-1.5-2.3l-.7-.3.7-.2c.4-.1 1.4-.5 2.3-.8 1.6-.5 4.2-1.7 5-2.3.8-.6.6-.3-.4.6m-79.9-.4c-.2.2-1.4 1.7-1.8 2.3-.2.3-.2.2-.1-.5.2-1.4-.4-1.3-1 .2-1.2 2.7-1.6 5.4-1 6.3.8 1.1 1 .8 1.7-1.8.7-2.5 1.1-3.5 2.2-5 .7-1.2.7-2 0-1.5m210.7 1.8c.3 1 .5 2 .5 2.1.1.3-.5.5-.7.3-.1-.2-2.7-3.1-3.1-3.4-.2-.2 1.5-.8 2.6-.9.1 0 .4.8.7 1.9m-57.4-1.1c.3.3.4.5.2.5s-.2.2-.1.5c.1.4.1.5-.3.4-.2-.1-.6-.1-.8-.2-.9-.1-1-.3-.3-1 .7-.8.7-.8 1.3-.2m63.9.1c-.8.8-4.4 2.4-4.6 2.1-.1-.2.3-.5 2-1.4 2.4-1.1 3.4-1.4 2.6-.7m48-.1c-1 .4-.9.6.5.8 1.3.2 6.2 1.8 6 2 0 0-.4 0-.8-.1-1-.3-2.1-.3-1.9 0 .1.1.3.2.4.2.2 0 .9.4 1.5.8 1 .7 3.9 1.8 5.7 2.3 1.8.5-3.5-4.8-5.6-5.6-1.5-.6-4.7-.8-5.8-.4m-59.4.1c0 .1.7 1.1 1.7 2.2 1.9 2.4 2 2-1 3.5-2.2 1.1-2.4 1.1-6.2.3-1.2-.3-2.7-.6-3.3-.7-1.1-.2-1.1-.3-1-.7.1-.4 0-.5-.3-.5s-.4.1-.3.2c.1.2 0 .2-.4.1s-.5-.1-.5.2c0 .2-.1.3-.3.2-.2-.1-1.4-.2-2.7-.2-2-.1-2.3-.1-1.9-.4.3-.1.9-.5 1.5-.9 1.5-1 4.5-1.1 8.7-.4.7.1.7.1.6-.3l-.2-.4s-.5-.3-.9-.7l-.8-.7.8-.4c.8-.5 6.5-.8 6.5-.4m-177.1.2c-.3.1-3.3 1.8-4.3 2.6-1.1.7-2.3 2.1-2.3 2.6 0 .3-.4.8-1.2 1.5-2.2 2-3 3.8-1.7 4.1.9.2 10.6-5.1 12.2-6.7 1.1-1.2 1.1-1.4-.1-.6-1.3.8-3.9 2.2-3.9 2.1 0-.2 3.9-3.2 4.7-3.7 1-.5 1-1 .1-1.4-.9-.4-1-.4-2.6.3-1.5.7-1.7.7-.6-.2.9-.6.8-1-.3-.6m-23.4 2.5c.1 1-.1 3.2-.6 5-.5 1.9 0 2.7 1.1 1.9 1.5-1.2 1-7.8-.5-7.8 0 0-.1.4 0 .9m150.3 0s-.2 0-.5-.2c-.3-.1-.5-.3-.5-.4 0-.1.2 0 .5.2s.5.4.5.4m108.2.3c0 .2.2.6.5.9.3.4.7 1 1 1.4.3.4.7 1 .9 1.2.7.8 3.5 6.3 3.7 7.2.6 2.5 1 3.6 1.3 3.6.4 0 .3-3.5-.2-5.2-.4-1.4-.1-1.2 2 1.1.9 1 2.3 2.4 3 3.2.8.8 1.7 1.9 2.1 2.5.4.6.7 1 .7.9 0-.2-.4-1-2.6-4.5-2-3.3-3.1-5.4-2.7-5 .7.7 2.8 3.5 3.4 4.4.3.5.9 1.4 1.3 2 .4.5 1.1 1.6 1.5 2.3.7 1.2 1.1 1.6 1.1 1.1s-4.2-8.2-5.4-9.9c-1.8-2.6-3.6-4.1-7.5-6.3-1-.6-1.5-.6-.8 0 .4.3 2.7 3.3 3 3.9.2.3-.1.2-.9-.5-.6-.6-1.9-1.6-2.8-2.4-2.3-2-2.6-2.2-2.6-1.9m-62 .1c-.1 0-.4.1-.7.2-.8.2-.7.6.1.4 1.1-.2 1.3-.3 1.2-.5-.1-.2-.3-.2-.6-.1m-6.2.5c0 .2.1.4.2.4s.2-.2.2-.4-.1-.4-.2-.4-.2.1-.2.4m-.9 0c0 .1.2.3.3.3.1 0 .2 0 .2-.2 0-.1-.2-.3-.3-.3-.2-.1-.2 0-.2.2m-81.6 1.3c-.8.3-1 1.2-.2 1.2 1.1 0 2.6 1.2 2.8 2.1.3 1.5.9.4.9-1.7-.1-1.5-1.8-2.3-3.5-1.6m-6.8.6c-2.8.6-3.9 1.5-5.2 4-.4.9-.8 3.3-.7 4 .1.5.8.5.8 0 0-.2.1-.4.2-.4.3 0 1.8-2.2 1.5-2.3-.1 0-.4.1-.7.4l-.5.5.3-.6c.9-1.8 2.3-3.3 3.9-4.1 3.5-1.8 3.6-2.1.4-1.5m11.6.7c0 .2.1.3.2.3s.2-.1.2-.3c0-.2-.1-.3-.2-.3s-.2.1-.2.3m-22.8.9c-1.1.8-2.7 2.8-3.8 4.5-.9 1.4-2.6 2.8-3.9 3.1-.7.2-.8.4-.4.6 1.1.6 6.3-1.9 8.9-4.3.9-.9 2-1.4 2.8-1.4.4 0 .5-.1.5-.4 0-.6-2.9-.4-4.2.4-.2.1-.5.2-.5.2-.1 0 .4-.9.9-1.4 1.7-1.8 1.6-2.7-.3-1.3m92.3.1c.8.6 1.2 1.3 1.2 2.2 0 .4.5.8.7.6.3-.3.3-2.3 0-2.8-.2-.3-.3-.5-.2-.5 2.7.1 6.1.5 8.1 1 2.9.8 3.3.9 2.9.9-.6 0-3.9 1.4-4.5 1.9-.3.2-.9.5-1.3.6-.4.1-1.8.4-3 .8-2.3.7-3.7 1-8.2 1.7-3.4.5-3.2.5-3.8-.5l-.5-.9 2-.4c1.1-.2 2.1-.4 2.3-.4 1.2 0 .2-.4-3.2-1.4l-.9-.3.8-1.4c.9-1.4 1.9-1.9 2.7-1.3.3.2 2-.1 2.2-.4.3-.3 1.9 0 2.7.6m-14.2.1c.1 0 .2-.1.1-.2s.1-.2.5-.2c.6 0 .7.7.3 1.1-.1.1-1.6-.7-1.8-1-.1-.2 0-.2.3 0 .2.2.5.3.6.3m5.3-.1c0 .1-.2.5-.5.9s-.5.9-.5 1c0 .1-.3.1-.7 0-.7-.2-.8-.4-.5-1.3.2-.7 2.2-1.1 2.2-.6m-93.8.3c0 .2.1.3.3.3s.3-.1.2-.2c-.1-.3-.5-.4-.5-.1m-107.5.7c-.3.4-1.1 1.2-1.7 1.8-.8.8-1.4 1.5-2 2.7-1 2-2.1 4-2 3.4.1-.2.3-1.2.6-2.1 1-3.5 1.5-4.3 3.6-5.5 1-.6 1.9-1 1.9-1 .1 0-.1.3-.4.7m150.6-.1c-.2.3-.7.8-1.1 1.2-.7.9-1.8 1.2-2.3.6-.6-.6-2.5-1.4-3.4-1.4-1.6.1-4.3.9-4.3 1.3 0 .5.4.5 1.5 0 2.8-1.4 5.9.9 4.3 3.3-1.4 2.1.4 1.6 3.2-.8 1.6-1.4 3.5-4.7 2.7-4.7-.1.1-.3.3-.6.5m48.7-.1c0 .1.2.2.5.2s.5-.1.5-.2-.2-.2-.5-.2-.5.1-.5.2m-185.2.8c.1.6.1.8-.2.8-.4 0-.5.3-.6 2-.1 1.5 0 2.3.4 2.3.1 0 .4.2.5.5.1.3.3.5.5.5s.5.5.7 1c.2.6.8 1.8 1.2 2.7 1.2 2.6 1.6 4.3 1.1 5.3-1.6 3.5 4.1 7.8 7.1 5.4 1.2-.9.9-1.7-.3-1.1-.6.3-.7.3-2.1-.4-1.9-.9-2-1.2-1.8-3.4.2-2.6 0-3.6-1.1-6.1-.5-1.2-1.1-1.3-.9-.1.4 2.6.3 2.6 0 1.2-.2-.8-.7-2.2-1-3.1-.5-1.3-.6-2.2-.7-3.9l-.1-2.2-1.1-1.1c-1.5-1.3-1.8-1.4-1.6-.3m250.4.1c-2.9.6-6 1.8-7.5 2.8-.4.3-1.2.6-1.6.8-1 .3-1 .2-.1 1.3 1.1 1.5 2.4 3.3 2.6 3.7.3.5.2.5-2.9-2.3-1.9-1.7-2.2-1.9-3-1.7-.7.1-.7 0-.2 1.2.8 1.9.8 2-.4.7-1.6-1.6-3-1.8-1.8-.2.7 1 .6 1-.6.3-1.3-.8-1-.8-4.3 0-1.5.4-2.9.8-3.1.8-.6.1-.6.2 1.3 2.1 1.9 1.9 1.6 1.9-1.3.1-2.6-1.7-1.5-.1 1.5 2 .9.6 2 1.6 2.5 2.1.5.6 1 .9 1 .8 0-.1.2-.6.3-1 .3-.9.8-1.3 1.6-1.3.6 0 2.6.9 2.4 1.1-.1.1 1.8 1.4 2.1 1.4.1 0 .6.3 1.2.7 1.7 1.1 1.4.2-.9-2.8-1.7-2.3-.6-2 1.7.4 1.4 1.4 1.5 1.7 3.2 5.4.4.8.7 1.4.8 1.3.1-.1.1-.2 0-.2-.2-.1-.2-.3-.6-2.4-.1-.9-.4-2.2-.7-2.8s-.4-1.2-.4-1.2c.1-.1 2.7 3.8 2.7 4.1 0 .1.5 1.5 1.1 3 .6 1.5 1.2 3.1 1.3 3.5.1.5.2.8.3.8.3 0 0-5.9-.3-7.2-.4-1.3-.4-1.5 0-1.2.4.3.4.2 0-.8-.3-.9-.2-1.4.1-.6 1.4 3.5 2 4.6 3.4 5.9 1.3 1.3 1.6 1.3 1 0-.5-1-.7-1.9-1-4.2-.1-.9-.3-2-.5-2.3-.2-.6-.2-.6 0-.4.4.3 1 2 1.5 3.9.3 1.4.6 2 1.6 3.5 1.2 1.7 1.8 2.4 1.2 1.3-.4-.8-.9-3-1.2-5.4-.3-2.6-.9-4.5-1.5-4.8-.2-.1-.3-.3-.3-.3.7-.7 2.5 2.2 2.9 4.7.6 3.6 1.9 7 3.2 8.7 1.2 1.4 1.2 1.7-.2 1.5-2.2-.3-3.5-1-4.6-2.8-.5-.8-1.2-1.1-1.2-.5 0 1.7 2.9 5.1 5 5.9.9.4 1.6.8 2.6 1.8.8.8 1.5 1.4 1.7 1.4.1 0 .4.2.6.3.2.2.4.3.5.3.3 0 1.1.7 1.1 1 0 .1.1.2.2.2s.7.6 1.3 1.4c.6.8 1.6 1.9 2.2 2.5 1.3 1.2 1.3 1 .1-1.3-.9-1.8-.8-1.8.3-.1.9 1.3 1.4 1.7 1.1.8-.1-.2-.4-1.1-.6-1.8-.4-1.3-1.4-3.4-2.4-5.1l-.5-.8.7.5c.4.3 1.1 1.1 1.6 1.7 1.1 1.5 1.5 1.7.9.4-.3-.5-.5-1-.5-1.1a6 6 0 0 0-.5-1.4c-.1-.1-.1-.2 0-.2s1.8 2.8 2.3 3.8c1 2.1.8 1.1-.7-3.4-.3-.8-.5-1.5-.4-1.5.2-.2 2.8 5.1 4.4 8.9 1.1 2.8 1.5 3.5 1.9 3.5.1 0 .1-.2-.1-.5-.3-.5-.3-.5.7.2.6.4 1.6 1.1 2.3 1.5s1.6.9 2 1.2c.9.6.7-.1-.2-.7-.7-.4-5.1-4-5.1-4.1 0-.1 1.6.8 3.2 1.9 2.5 1.6 3.3 2.2 4.5 3.2 2.5 2 .9.3-2.1-2.4-3.9-3.3-6.6-6.2-6.3-6.6.4-.4.4-.4 2.1 1.1 1.5 1.3 7.1 5.3 7.5 5.3.2 0-1.7-2.1-3.8-4.4-1-1.1-1.7-1.8-1.4-1.6 1.2.8 3.6 3 5.8 5.4 1.4 1.4 2.5 2.5 2.6 2.5.1-.1-1.4-2-3.7-4.3-1.1-1.2-2.5-2.8-3.1-3.6-.5-.8-1.2-1.6-1.3-1.8-.2-.2-.8-1.2-1.3-2.3-.6-1.1-1.3-2.6-1.7-3.3-.4-.8-.7-1.3-.5-1.2.3.3 2.7 3.5 3.5 4.7 1.5 2.2 8.5 9.2 8.5 8.5 0-.2-1.6-2.1-3.6-4.4-.7-.8-1.4-1.8-1.6-2-.2-.5-1.4-2.3-2.9-4.5-.6-.9-1.6-3.1-1.5-3.1 0 0 .4.5.8 1.1.4.6 1.1 1.5 1.5 1.9.4.4 1.4 1.7 2.2 2.8 1.3 1.8 1.9 2.3 1.9 1.9 0-.1-.4-.8-1-1.5-.5-.8-1.1-1.7-1.4-2.1-.2-.4-.5-.7-.6-.7s-.2-.1-.1-.2-.1-.7-.4-1.4c-.2-.7-.5-1.9-.6-2.6-.1-1.5-1.1-4.3-1.8-5.4-.3-.4-.7-1.2-.9-1.7l-.4-.9-.1.9c-.1.5-.1 1.2 0 1.6.2.8.2 1.2 0 1.2-.1 0-.3-.3-1.9-3.1-.4-.8-1-1.7-1.2-2.1-.2-.3-.6-1-.9-1.5-.5-1.1-.7-1.1-.4 0 .1.4.2 1.5.3 2.3l.1 1.6-.5-1.6c-.3-.9-.8-2.6-1.3-3.7-.4-1.1-.9-2.7-1.2-3.5-.5-1.6-1.6-3.4-2.8-4.5-.8-.7-1.3-.8-.7-.1.3.3 1.6 3.2 2.3 4.9.3.8-.3.1-1.3-1.4-.5-.7-1-1.5-1.2-1.6-.1-.1-.2-.3-.1-.4.1-.1 0-.1-.1-.1s-.2.1-.1.3c.1.2.4 1.4.7 2.8s.7 2.7.8 3c.1.3.2.7.2.9 0 .4-.7-.8-1.2-2.1-.2-.5-.8-2.1-1.4-3.7-1.2-3.2-1.8-4.1-2.9-4.7-1-.6-1.1-.4-.3.5 1.7 1.8 1.5 2.2-.2.7-1.3-1.1-4.3-2.9-4.5-2.7-.1.1.5.7 1.2 1.4 1.2 1.3 3.1 3.7 3.1 4 0 .1-.9-.7-1.9-1.7-4.6-4.4-6.5-5.3-9.4-4.7m-61.1.1c0 .2 1.2.4 1.3.3 0 0 0-.2-.1-.3-.1-.2-1.2-.2-1.2 0m-192 .9c0 .1 0 .9-.1 1.7 0 .8-.2 2-.4 2.7-.6 2-.1 4.4 1.4 7.8.9 1.9 1.2 3.1 1 4.2-.1.7-.1.9.2.9 1.3 0 1-5.4-.6-11.4-.1-.4-.2-1.5-.1-2.4 0-1.5 0-1.8-.4-2.6-.2-.5-.4-.8-.3-.8.2 0-.4-.4-.6-.4 0 0-.1.1-.1.3m8.3 1.3c.2 1.6.7 3 1.5 4.5.4.8 1 2.2 1.3 3.1.6 1.9 1 2.4 1.7 2.4.3 0 .5.1.5.4.2 1.1.6.4.6-.8-.1-2.2-1-4.2-2.8-6.3-1.2-1.3-2.1-3-2.1-3.9 0-.5-.1-.6-.4-.6-.4.2-.4.3-.3 1.2m9.5.7c-1.2.2-.8.8.6.9 1.1.1 1.3.2 2.3 1.2 1.4 1.4 2.5 1.4 2.5 0 .1-1.4-2.6-2.4-5.4-2.1m171.6 1.4l.4.8H238c-1.9 0-2.4-.1-2.6-.8l-.2-.6 1.4-.1c.8 0 1.5-.1 1.6-.1.1.1.4.4.6.8m-5.2-.2c.1.5-.1.5-1.8.1s-1.7-.5.1-.5c1.5 0 1.7.1 1.7.4m-147 1.3c-2.4 2.6-5.3 4.5-8 5-.4.1-.5.2-.5.5s.1.4.5.3c.3-.1.9-.2 1.4-.2 4.2-.6 5.8-1.7 7.5-5.4 1-1.9.7-1.9-.9-.2m-10-.6c-.5.2-1 .4-1.2.6-.2.1-.4.3-.5.3s-.2.2-.3.4c-.1.3.1.4 1.6.4 1.9 0 3.1.5 3.5 1.5.5 1.1 2.1 1 3.7-.4.6-.5.4-1.1-.4-1.1-.2 0-.4-.1-.4-.2 0-1-4.5-2-6-1.5m256.5 2.2c.2 1 .8 2.5 2 4.3.7 1.2 1.3 2.4 1.2 2.5 0 0-.7-.6-1.4-1.5-1.6-1.9-1.6-1.9-1.7-1-.2 1-.1 1.1 1.5 2.4 2.8 2.2 3.2 2.5 3.7 3.3 1 1.5 1.5 1.8.9.6-.2-.4-.4-1-.5-1.4-.1-.4-.4-1.2-.6-1.9-1.1-2.8.1-.6 1.8 3.2.8 1.9 1.3 2.2.6.4-.3-.7-.9-2.4-1.3-3.6-1.5-4.7-3.6-7.7-5.4-7.9l-.9-.1.1.7m-9.5.4c.2.4.6 1.4 1 2.3.3.8.8 1.7.9 1.9.2.2.4.6.4.8.5 1.8 2.4 5.1 2.4 4.2 0-.8-1.3-4.9-1.8-5.6-.3-.5-.6-1-.6-1.1 0-.3-2.2-3.1-2.5-3.2-.1 0-.1.1.2.7m-57.1.9c-.4.3-1 1.6-.8 1.8.1.1 2.1-1.7 2.1-1.9 0-.3-.9-.2-1.3.1m-59.3 1.4c0 .2-.1 0-.1-.3 0-.4 0-.5.1-.3v.6m65.8 1.7c0 3.5.5 5.7 1.9 8.4 1.4 2.8 1.5 3 .8 2.2-1.9-2.3-4.2-6.8-5.1-9.8-.2-.9-.5-1.6-.6-1.6-.2 0-.4 2.8-.3 3.9l.1 1.1-.3-.6c-.2-.3-.4-1.3-.5-2.1-.2-1.7-.3-1.8-.5-1.6-.2.2-.6 3.3-.6 5v1l-.2-.9c-.1-.5-.2-1.6-.2-2.6 0-1.9 0-1.9-.9-1.1-1.7 1.6-.9 5.6 2.5 12.4 2.4 4.8 2.6 4.9 1.2.7-1.1-3.2-1.1-4.3.1-1.8.5 1 1 2.2 1.1 2.6.5 1.4 1.3 3.1 1.6 3.4.3.3.3.3.2-.1-1.5-3.7-3.3-11.1-2.8-11.5.1-.1 1.1 3.5 1.4 4.9.1.3.3.6.3.3 0-.1-.1-.9-.3-1.8-.2-.9-.3-1.7-.3-1.8 0-.1.4.5.8 1.2 2 3.1 6.3 7.6 10.5 10.8 1.8 1.4 1.9 1 0-.7-1.7-1.6-3.8-3.9-4.4-4.9-.3-.5-.1-.4 1 .6.7.7 2.1 1.8 3 2.5.9.7 1.6 1.3 1.6 1.4 0 .1.1.1.2 0 .2-.2.2-.3 0-.6-.3-.6-.4-1-.6-3.5-.1-1.6-.3-2.5-.6-3l-.4-.8.9.8a11 11 0 0 0 1.8 1.4c.5.3 1.1.9 1.4 1.3.3.4 1.2 1.2 2.1 1.8 2.5 1.7 5.6 5.4 6.5 7.8.4 1.1.9-.8.6-2.6-.3-2.4-1.5-5-2.3-5-.2 0-.2 1.1 0 1.3.1.1.2.3.2.5s-.3 0-.9-.7c-.5-.5-1.3-1.2-1.8-1.5-.5-.3-1.6-1.3-2.6-2.2-1-.9-2-1.8-2.3-2-.3-.2-1.1-1.1-1.7-1.9-1-1.4-4-4.4-4.4-4.4-.2 0 .6 1.4 1.7 3 1.4 1.9 1.1 1.8-.7-.4-1.9-2.3-4.1-5.2-4.6-6.2s-.6-1-.4-.1c.3 1.2 1.6 4.1 2.6 5.6 1.4 2.2 1.7 2.9.8 1.9-3.3-3.6-5.8-7.8-6.2-10.5-.1-1.2-.4-1.1-.4.5m-117.3-.2c-.7.4-1.2.8-1.4 1.4-.2.4-1 1.4-1.8 2.1-1.9 1.9-1.5 2.3.7.8 3.3-2.3 5.5-6 2.5-4.3m14 0c0 1.8-3.7 6.1-6.4 7.5-2.5 1.3-2.3 1.6.4.5 2.8-1.1 3.4-.8 1 .6-1.9 1.1-1.9 1.1-.9 1.5 1.6.7-.1 2.5-2.5 2.5-2.1 0-2.9.6-1.8 1.4.7.5.7.5.8 1.9l.2 1.5c.1.1 0 .4-.2.7-.2.3-.4.7-.4.8 0 .3-2.1 1.8-2.4 1.8-.1 0-2.4 1-4.9 2.3-4.7 2.4-5.4 2.9-4.1 3.1.5.1.5.1.2.4-.3.3-.4.2-1.5-.6-1.3-1-2-1.3-2.5-1.2-.2 0-.5 0-.7-.1-.4-.2-1 .2-2.7 1.8a9.29 9.29 0 0 1-3.5 2.3c-1.5.6-2.1.7-1.9.2.7-1.9.4-2.6-1.4-3.5-3.3-1.6-7.8.5-8.1 3.7-.1 1.2-5.5 3.5-7.5 3.3-.8-.1-2.8.5-3 .8 0 .1.3.2.7.1.5 0 1.1.1 1.6.3.5.2.9.4 1.1.4s.9.4 1.7.9c1.9 1.1 1.9 1.1 3.4-.5 1.3-1.5 2.8-2.4 4.3-2.6.4-.1 1-.2 1.2-.3.2-.1-.2.2-.8.7-2.3 1.5-3.6 3-3.6 4.1 0 .7.6.6 1.5-.3.9-.9 4.7-3.1 5.3-3.1.2 0 .7-.1 1-.3.3-.2 1.1-.5 1.6-.7l1-.3-.1 1.3c-.1 1.6.3 3.6.7 3.5.2-.1 1-.2 2-.4 1.9-.4 3.6-.7 3.7-.8.1 0 0-.4-.2-.9-.6-1.4-.4-2.9.6-4.2 1.3-1.6 1.6-2.1 1.6-2.4 0-.5.3-.6.9-.2.3.2.7.3 1 .2.3-.1.8.1 1.3.3 1.3.7 2.5.3 7-1.9 1.7-.9 1.8-.8.6.2-1.1 1-.9 1 1 .2 1.7-.8 6.9-5.6 6.9-6.5 0-.3-.4-.2-1.7.8-.9.6-2.4 1.5-2.7 1.5-.1 0 .2-.3.6-.6.8-.6 3.6-3.3 3.6-3.4 0-.2 2.3-2.4 2.6-2.5.4-.2-.1-.6-1.1-1-.8-.3-.9-.3-.3-.3.3 0 .9-.2 1.4-.4.4-.2 1.6-.6 2.7-1 3.5-1.1 4.6-2.2 2.5-2.4-1.2-.1-2.7-.9-2.1-1.1.2 0 .4-.2.5-.4.1-.1.4-.3.5-.3.4 0 1.8-.8 2.8-1.5.9-.7 1.1-1.3.4-1.1-1 .2-2.6.3-3.4.1l-.8-.2.6-.1c1.2-.3 3.4-1 3.4-1l-.9-.9c-.9-.9-1.4-2.3-1.2-3.6.1-.6.1-.7-.3-.7-.1-.1-.3 0-.3.1m-97.9.2c-1.5.6-3.2 2.2-2.8 2.6.1.1.5-.1.9-.4 1.5-1.1 4.5-.6 5.6.8 1.8 2.3 3.5 1.1 1.9-1.3a4.99 4.99 0 0 0-5.6-1.7m13.6 1.5c-.1 0-.6.5-1.1 1-1.4 1.5-5.9 3.4-8.1 3.4-1 0-1.3 1.3-.5 2.1 1.1 1 4.6-.6 7.8-3.6 1.9-1.8 2.8-3.2 1.9-2.9m257.2.8c0 .2.1.5.2.7.1.2.2.3.2.1 0-.2-.1-.5-.2-.7-.1-.2-.2-.3-.2-.1m-12.3.6c0 .4.3 1.4 1.8 5.5.8 2.3.9 2 .4-1.7-.4-3.2-.6-3.8-1.2-3.8-.3 0-.5-.1-.6-.2-.2-.4-.4-.2-.4.2m-48.8.4c.5 1.7 3.1 5.7 4.1 6.2.4.2.4.2.3-.2-.1-.3-.2-.9-.3-1.4-.2-.8-.5-1.2-1.6-2.4-.7-.8-1.5-1.7-1.7-2-.4-.7-.9-.8-.8-.2m52 2.2c0 1.4-.2 3.2-.3 4-.2.9-.2 1.7-.1 2.2.1.5.2 1.2.2 1.7 0 .9.5 2.5.8 2.5.5 0 1-1.9.8-2.9-.1-.6-.2-1.9-.2-2.8V327l.4 1.8c.5 2.3 1.3 4.4 2.4 6.2 1.4 2.3 3 5.5 3.5 7.1.5 1.5.8 2.1 1.1 1.9.1-.1-.2-1.1-.7-2.4-.8-2.2-2.5-7.3-2.4-7.4l2 4.2c1.1 2.4 2 4.3 2 4.3.5 0-1.9-7.3-3-9.1-.5-.8-1.4-2.5-1.9-3.7-1.8-4.1-2.8-7.7-1.2-4.3.8 1.7 1.1 1.9 1.1.8 0-1.1-.7-2.1-2.3-3.6-2.3-1.8-2.2-1.8-2.2 1.3m-47-2.1c0 .2.1.3.3.2.5-.1.6-.6.1-.6-.2.1-.4.2-.4.4m3.5 1.8c0 .1.2.3.4.5.6.5 1.1 2 1.4 3.6.3 1.8 1.4 4.2 2.1 4.6.3.2 1 .7 1.5 1 .5.4 1.6 1.1 2.3 1.5 1.8 1 1.2 1.1-1.1.3-1.5-.5-1.8-.7-2.4-1.5-1.7-2.2-2.4-1.4-.7.8.8 1 .8 1.1 5.4 3.4 1.7.9 3.6 2.1 5.1 3.2.8.6 2.3 3.3 2.3 4.1 0 .3.1.3.2.2.6-.6-.6-4.4-1.9-5.9-1.1-1.2-1.9-2.4-1.7-2.4.1 0 0-.2-.2-.4-.4-.4-.4-.4.1-.2.2.1.9.8 1.4 1.4.6.7 1.6 1.8 2.4 2.4.8.7 2 1.9 2.8 2.7.8.8 1.4 1.6 1.5 1.6.1.1.5.6 1 1.3 1 1.3 1.2 1.2.5-.3-.8-1.6-1.8-2.9-3.7-4.6-6.7-6.2-8.2-7.8-9.8-11-1.6-3.1-2.6-2.8-1.2.3l.6 1.3-.6-.6c-.3-.3-.8-1-1.1-1.4-.8-1.3-1.3-1-.7.5.4.9.4 1-.2.5-.3-.2-.7-.9-.9-1.5-1.1-2.6-1.4-3.1-2.7-4.4-1.5-1-2.1-1.5-2.1-1m53.1.8c.7 3.9 7.9 11 11.1 11 .8 0 1.4-.4.6-.4-.6 0-1.7-.5-2.8-1.2-1.2-.8-1.2-.8 0-.4 1.2.5 3.5.8 3.8.6.1-.1-.1-.2-.4-.3-4.1-.9-9.1-4.6-11.3-8.3-.8-1.4-1.2-1.7-1-1m-56.5.5c-.6 1.6 1.1 5.4 3.4 7.6 2 1.8 3 2.3 1.9.9-.3-.4-.9-1.4-1.4-2.4-.5-1-1.1-2.1-1.4-2.6-.7-1-1.5-3.1-1.3-3.3.1-.1 0-.1-.2 0s-.3 0-.3-.2c0-.4-.6-.4-.7 0m-218 .3c-2 .5-2.1.6-2.1.9 0 .4.7.6 2.7.6.9 0 1.7.1 2.2.3.4.2.9.3 1.1.2.2-.1.8.1 1.3.3.9.4 2.5.5 3 .2s.1-.7-.9-.8c-.7-.1-1.1-.3-1.6-.8-1.2-1.1-3.6-1.4-5.7-.9m244 3.6c1 1.4 2.4 2.9 3.2 3.3.7.4.8.2.1-1.1-.5-1.1-1.2-4-1-4.1 0 0 .2.5.4 1.3s.5 1.8.7 2.4c.6 1.6 1.3 3.6 1.2 3.6-.2 0-1.7-.8-2.5-1.3-.4-.3-.8-.5-.8-.4-.1.1 1.2 2.6 2.2 4.4l.8 1.4-.7-.7c-1.1-1.1-2.8-3.4-3.3-4.6-.3-.6-.6-1.4-.8-1.7-.3-.6-.7-1.8-1.2-3.1-.2-.5-.2-1.2-.2-1.9l.1-1.1.4 1.3c.5.6 1 1.7 1.4 2.3m-285.7-3.1c-.4.1-.5.2-.5.6 0 1.3.6 5.2 1.1 6.7.3.9.5 1.9.5 2.2 0 1 1.5 4.2 2.3 4.7.9.7.9.6.6-1.4-.1-1-.2-2.9-.1-4.4.1-2.5.1-2.7-.3-3.1l-.4-.4v5.1c0 .8-.1 1.4-.2 1.4-.4 0-1.2-5.8-1-7 .6-3.1-.1-4.7-2-4.4m291.9 3.7c.4.4 1.1 1.1 1.4 1.6.9 1.1 2.4 2.1 4.1 3.1 2.8 1.4 3.4 2.6.9 1.8-1-.4-1.1-.4-1 0 .4.9.8 3 .7 2.9-.1-.1-.5-.6-.9-1.3-.4-.7-1-1.5-1.3-2-1.6-2-2.2-2.6-2.7-3-.6-.4-2-2.4-2.8-4.1l-.5-1.2.6.8c.5.2 1.1.9 1.5 1.4m-40.2-.3c.5.7 1.8 2.2 2.9 3.3 1.6 1.8 1.9 2.2 2 2.9.1.5.2 1 .4 1.2.1.2-.2-.2-.8-.8a51.6 51.6 0 0 1-5.1-7c-.9-1.6-.9-1.5.6.4m-224.2-.4c-.1.1.2.5.6.8 1.2 1 1.9 5.2 1.1 6.9-.2.4-.2.6 0 .6.1 0 .2.2.1.4-.3.8.7.2 1.5-.9 1.1-1.5 1-3.7-.4-5.9-1-1.4-2.5-2.5-2.9-1.9m122.7 1.2c0 .1-.2.4-.4.6-.2.2-.4.5-.4.7 0 .2-.1.3-.2.3-.6 0-2.5 4.3-2.5 5.6 0 .8.4 1.8.9 2.4.2.3.3.7.2 2-.1 1.1-.1 1.7.1 1.8.1.1.2.3.2.4 0 .2.4.8.8 1.4l.8 1.1-.4.7c-.4.7-2.3 2.4-4.2 3.8-1.2.9-1.5 1.3-.7 1.4 1.9.1 5.9-2.1 7.7-4.2 1.4-1.7 1.4-2.4.1-3.2-2.8-1.6-3-2.9-.7-3.8 1.6-.6 1.7-.8.2-.7-.7.1-1.3 0-1.5-.1-.3-.2-.3-.2.1-.2.7 0 2-.4 2-.6 0-.1-.5-.3-1.1-.4-1.3-.3-1.6-.6-1.9-1.9-.4-1.5.8-2.7 2.2-2.3.8.2.7-.1-.2-1.1-1.4-1.5 0-.7 1.7.9l1.3 1.1c.2-.2-.4-1.2-1.1-2-.4-.4-1-1.4-1.5-2.1-.7-1.5-1.5-2.2-1.5-1.6m129.3.8c0 .1 1.6 1.3 1.7 1.2 0 0-.3-.4-.8-.7-.5-.3-.9-.5-.9-.5m-22.1 2c.1.2.3 1 .5 1.8.4 1.4 1 2.8 1.5 3.4.2.2.3.4.3.6.1.7 2.7 4.3 3.1 4.3.2 0 0-.2-1-1.5-.3-.3-.8-1.1-1.3-1.7l-.8-1.1.9.9c.9.9 3 2.1 4.3 2.4.9.2.6-.5-.8-1.7a7.88 7.88 0 0 1-2.5-3.6c-.1-.4-.3-.7-.7-.9-.3-.2-1.3-1-2.2-1.8-.8-.8-1.4-1.3-1.3-1.1m31.7.1c.5.4.8.5.8.2s-.3-.5-.8-.6h-.5l.5.4m27 .6c0 .1.4.3.9.6 1.1.5 1.1.4.1-.2-.8-.6-1-.7-1-.4m-41.8.2c0 .1.2.2.4.2s.4-.1.4-.2-.2-.2-.4-.2c-.3 0-.4.1-.4.2m4.3.2c0 .4.5.8.7.6.2-.2-.2-.7-.5-.9-.1.1-.2.2-.2.3m-2.3.4c.4 1.4 4.1 5.1 6.3 6.4.9.5 2 1.3 2.5 1.8s1.6 1.3 2.4 2c.8.6 1.8 1.7 2.3 2.4 1.8 2.5 3.1 4.2 3.2 4 .1-.2-.3-.9-1.2-2.3-.4-.5-1.2-2.2-2-3.8-1.1-2.5-1.4-3-2.5-4-1.3-1.2-3.4-2.9-3.8-2.9-.1 0-.6-.3-1.1-.6-1.6-1-1.8-.7-.3.4.6.4 1.3 1 1.7 1.3l.7.6-1.2-.6c-1.8-1-2.6-1.6-4.8-3.5-2.1-1.7-2.4-1.9-2.2-1.2m45-.3c0 .4 1.7 1.7 3.3 2.5 1 .5 2.1 1.1 2.4 1.3.3.2 1.1.5 1.8.7 1 .2 3.7 1.5 3.7 1.7 0 0-.5.1-1.2.1-2.6.1-2.7.9-.1 1.3.5.1.7.2.6.4-.1.2 0 .2.4.1 1.1-.4 3.5.3 5 1.4 1.1.9.7.2-.7-1.2-1.6-1.5-2.2-2-5.2-4.3-2.3-1.7-3.2-2.1-4.7-2.3-1.3-.2-2.9-.7-4-1.4-.9-.4-1.3-.5-1.3-.3m-3.1.3c0 .2.2.6.5 1.1.9 1.5 1.8 3.3 2.2 4.5.5 1.5.5 1.7 0 .7-.2-.4-.5-.9-.7-1-.2-.2-.6-.8-1.1-1.4-1.1-1.6-1.3-1.4-.4.4 1.1 2.1 1.1 3.2.1 3.4l-.7.1v1.2c0 .7-.1 1.5-.3 1.9l-.3.7.6-.3c1.7-.7 3.8.2 2.6 1.1-.3.2-.5.8-.8 2-.6 2.8-.5 3.1.5 1 .5-1 .9-1.8 1-1.8s0 .2-.1.4c-.4.7-1 3.1-.8 3.3.1.1.2 0 .2-.1 0-.7 1.2-1.6 2.2-1.6h1l.1-2c.2-5.6.1-6.8-.5-8.1-.3-.7-.6-1.4-.5-1.5.1-.3-.2-.8-.6-.8-.2 0-.2.1-.1.4.5 1.2 1.3 5.9.9 5.6-.1-.1-.5-1.1-.9-2.3-.9-3.2-4.1-8.3-4.1-6.9m-180.8 4.5c-3.3 3.8-3.8 6-1.3 6 .4 0 1 .2 1.4.5 1.3.8 1.5.7 1.1-.5-.4-1.4-.3-4.6 0-6.2.4-1.6.4-1.6-1.2.2m185.9-1.4c0 .1.2.6.5 1.1.3.6.6 1.7.8 2.9.2 1.1.4 2.2.5 2.6.1.4.2 1.6.2 2.7 0 2.4.2 2.5.8.5 1.1-4 .6-6.2-1.8-8.9-.6-.6-1-.9-1-.9m-53.5.9c0 .1.1.2.3.3.4.3 1.2 1.7.9 1.7-.1 0-.3-.1-.3-.2-.1-.2-.5-.3-.5 0 0 .1.4.4 1 .7 1.4.8 2 2 2 4.1 0 1.4 0 1.5.4 1.5.9-.1 1.4-4.1.7-5.2-.4-.6-4.5-3.2-4.5-2.9m-244.6 1.3c0 2.1 1.1 3.2 4.4 4.6.6.3 1.5.6 2 .8 3.5 1.5 5.4 1.9 5.7 1.2.2-.6-.4-1.1-2-1.8-1.2-.6-3.3-2.5-4.3-4-.7-1-1.2-1.3-1.2-.7 0 .5 1.2 2.3 2.4 3.5.5.6.9 1 .9 1-.7 0-4-2.3-5.7-4-2.3-2.2-2.2-2.1-2.2-.6m247.8-.3c.1.2.2.3.4.3s.2-.1.2-.3c-.1-.2-.2-.3-.4-.3s-.2.1-.2.3m-178.2 2.9c-.3.2-.6.4-.6.5s-.5.8-1.2 1.5c-.8.8-1.2 1.5-1.3 1.9-.2 1.3-3.1 2.4-5.5 2.2-.8-.1-2.5 0-3.8.1l-2.5.2-.8-.7c-1.8-1.4-2-.7-.4 1.2 1.7 1.9.9 1.5-1.1-.6l-1.8-1.9-1.5.1c-3.4.3-7.6 2.6-4.6 2.6.8 0 1.1.1 1.5.5.7.7.6.8-.5.5-2.1-.6-3.2-.3-4.3.9-.7.8-.6.9.5.4 2.3-1.1 5.3 1 6 4.2.3 1.2.3 3.4 0 3.6-.2.1-1 1.6-1.2 2.2-.1.4-.1.4.3.3 1.4-.4 3-2.3 3.2-3.7.2-1.3.8-1.2.8.2 0 1.2.9.2 1.3-1.7.7-2.8 1.2-3.7 2.5-4.1.5-.2 1.5-.5 2.4-.8.9-.3 1.5-.6 1.4-.8-.1-.3 4.1-1.4 5.9-1.6 1.7-.1 3.4-.7 4.1-1.4.2-.3 1.4-1 2.6-1.6 1.2-.6 2.4-1.3 2.6-1.5s.5-.4.7-.4c.4 0 1.6-.8 1.6-1.1-.1-1-4.8-1.8-6.3-1.2m232.2 3.3c-.1 2.4-.6 4-2.1 7.3l-.7 1.6c.9 0 4.8-3 5.6-4.2.8-1.4 1.2-3.8.7-5.4-.6-2-1.2-2.1-1.1-.2 0 1.1-.1 1.7-.5 1.6-.1 0-.2.1-.2.2s.1.2.2.2c.3 0 .2 1-.1 1.1-.1 0-.2.2-.2.3 0 .1.1.1.2.1.3-.2.2 0-.1.8-.4 1-.5.8-.6-1.9-.1-3-.2-3.8-.7-3.8-.3.1-.4.3-.4 2.3m6.1-1c0 .2.1.3.3.3.3 0 .3-.4-.1-.5-.1-.1-.2 0-.2.2m-201.7.4c-.4.1-1.1.4-1.6.8-1.1.7-3 1.6-4.2 1.9-1.4.4-1.1.6.6.5 1.7-.1 1.7 0 .8 1.1-.3.3-.3.3.1.5.2.1.6.3 1 .4.5.2 1 .3 2.2.2 1.7-.1 1.8.4.1.8-.5.1-.8.5-.4.5.3 0 1.7 1.4 2 2 .3.6.5.7 1.6.3 1.4-.4 1.6-2.5.5-4.6-.6-1.1-.5-2 .1-2 .3 0 .5-.1.6-.2.2-.3 1-.2 1.9 0 .6.2.8.2.9 0 .5-.8-1.4-1.7-3.6-1.7-.7 0-1.3-.1-1.3-.2.2-.4-.5-.5-1.3-.3m203 .6c0 .2 1.9 2.6 3 3.7.6.7 1.5 1.7 2 2.3s1 1.4 1.2 1.8c1.1 1.5 1.2.8.4-1.8-.7-2.2-1-2.5-3.2-3.9-.8-.5-1.8-1.2-2.2-1.5-.8-.7-1.2-.8-1.2-.6m-.7 2.1c.1.5.5 1.4.9 2 .4.6 1.1 2 1.6 3 1.3 2.7 5 7.2 5.8 7.2.2 0 .4.1.6.3.6.6 3.1.9 6.4.6 2.5-.2 4.2.6 5.3 2.5.4.8.6.2.2-.6-.2-.4-.5-1.2-.7-1.7-.9-2.9-2.6-3.7-5.7-2.7-2.7.9-5.3.5-6.5-1-.7-.8-.6-1 .2-.5 1.9 1.3 1.5.4-1-2-1.4-1.4-3.1-3.2-3.7-4-.7-.9-1.4-1.7-1.6-2s-.7-.8-1-1.2c-.8-1-1.1-1-.8.1m-1.7.9c.1.6.2 2.2.3 3.6.3 3.4.7 5.6 1.4 7.5.3.8.8.7 1.4-.4l.5-.9-.3-1.5c-.2-.8-.6-2.2-.9-3.1-.3-.8-.9-2.6-1.3-3.9-.8-2.8-1.4-3.4-1.1-1.3m-193.9-.2c-.5.5 1.9 5.1 3 5.8 1.4.9 1.8.6 1-.8-.3-.5-.5-1.3-.6-1.7 0-.5-.2-.9-.6-1.3-.7-.8-2.7-2.2-2.8-2m170 .5c1.1 1.2 4 3.7 4.1 3.5.1-.3-.2-.6-2.4-2.4-1.9-1.5-2.4-1.9-1.7-1.1m22 3.4a36.9 36.9 0 0 1-5.3 7c-1.7 1.8-1.7 1.9-.2 1.4.8-.2 1.1-.2 1.6-.1.4.1.7.1.8.1.4-.4 1.9-3.6 2.2-4.5.2-.6.4-1 .4-1 .1.1-.8 4.1-1.1 4.9-.3.7-.1.9.5.5s1-1.6 1.6-6.1c.2-1.6.5-3.2.5-3.4.4-1-.1-.5-1 1.2m-262.5.3c-.6.2-1.6.8-2.3 1.3-.7.5-1.4.8-1.5.8-1.1 0-5.7 5.8-6.4 8.1-.2.5-.4 1.1-.4 1.3-.1.2-.1 1-.1 1.9 0 2 .3 2.2 1.2.4.6-1.3 1.9-2.9 2.4-2.9.1 0 .4-.2.7-.4 1.2-1.1 4.2-2.3 5.7-2.1 1.6.2 5.5-.6 5.1-1-.1-.1-.7-.1-1.3 0-.6.1-2 .1-2.9 0-1.9-.1-2-.1 1.6-.7 2.6-.5 3.2-.6 2.1-.7h-.8l.9-.3c1.7-.5 1.2-1.3-.6-1.1-1.6.3-1.7.1-.2-.3l1.2-.4-.1-.9c-.2-1.3-.3-1.3-2-.6-.8.4-1.6.7-1.8.7-.5.2.9-.9 1.9-1.4l1-.6c.3-.2-1.6-1.8-2-1.6-.3.1-.8.3-1.4.5m15.7-.1c-1.3.7-2.8 2.3-2.9 3.3-.1.4-.2.9-.4.9-.1.1-.3.3-.4.6-.3.7-.5 2.4-.3 2.3.1 0 .7-.3 1.3-.6 2.9-1.5 6.7-.5 7.4 1.8.4 1.4.3 4.1-.2 4.6-.3.4-.1.9.3.9.8 0 2.1-1.1 3.1-2.6.6-.9.6-.8.2.6-.2.5-.5 1.2-.8 1.5-.3.3-.4.5-.3.6.3.2 1.8-.7 2.4-1.4l.6-.7-.1.7c-.2 1.2 1.5-.1 1.7-1.3 0-.2.1-.6.2-.8 0-.2.1-.1.1.3 0 1-.3 1.7-1 2.5-.5.5-.6.6-.3.6.5 0 1.7-1.4 2.4-2.6l.5-1-.1.9c-.1.5-.3 1.1-.4 1.4-.4.8-.3.8.6.2 1-.7 1.3-4.4.5-5.5-.3-.3-.2-.3.1-.1.5.4 1.1 1.7 1.2 3 .2 1.4.3 1.5.7.5.7-1.8.1-4.2-1.3-5.5l-1.3-1.3-1.6-1.6c-.6-.6-1-1.1-1-1.2 0-.9-9.2-1.8-10.9-1m248.1 1c-.3.3-.1.7.3.7.3 0 .4-.1.4-.4 0-.5-.4-.6-.7-.3m-4.6 1c-.4.3-1.1 1-1.6 1.5-.5.6-1.3 1.1-1.9 1.4-1.5.7-2.2 1.4-2.2 2.2 0 .4-.1.9-.3 1.2-.4.7-.1.7.9 0 2.1-1.4 4.5-4 6.1-6.6.3-.5-.3-.3-1 .3m-187.7 0c0 .1-.1.2-.3.2s-.3.1-.2.1c.2.2 1.1-.1 1.1-.3 0-.1-.1-.2-.3-.2-.2 0-.3.1-.3.2m-3.6.7c-6.6 2.1-9.9 8.5-6.3 12.3l.8.8-.3-.7-.3-.7 1.1 1.1c1 1 2.4 1.8 2.7 1.5 0 0-.4-.6-1.1-1.3-1.3-1.4-1.8-2.5-1.7-4.3 0-.6.1-.8.1-.5.2 1.7.7 2.6 1.8 3.8 1.6 1.7 4.2 3 2.7 1.4s-2.1-4.6-1.4-7l.3-1v1.4c0 2.4.8 4.3 2.2 5.8l1.1 1.2 1-.1 1-.1 1 1.5c1.2 1.9 2.2 3.8 2.2 4.1 0 .1.3 1 .7 1.8.4.9.7 1.9.7 2.2 0 .7.3.9.5.4.1-.2.1-.5.1-.8 0-.3.1-.5.2-.5.4 0 1.9-6.2 2.1-8.3.1-1.7-.2-2.7-1.5-4.5-.5-.7-1.1-1.6-1.4-2.1-.6-.9-1.1-1.5-1.4-1.5-.3 0-.2.6.1 1 .1.2.7 1.2 1.3 2.3l1 2v2.1c0 1.2-.1 3.3-.3 4.8-.2 1.4-.3 3-.2 3.4.1.7.1.7-.1.3-.3-.7-.5-2-1.1-7-.8-6.2-1.7-9.5-3-10.8-.3-.3-1.3-.2-1.3 0 0 .1-.1 1.1-.3 2.3-.2 1.2-.3 2.6-.4 3.1 0 .5-.1 1.1-.1 1.3-.1.9-.6-2.4-.6-4.3 0-2.7.2-3.5 1-4.2 1.5-1.4-.6-3-2.9-2.2m-23.3.1c-4.9 1-11 9.6-9.2 13 .4.7 1.2 1.4 1 .8-.4-.9-.4-1 0-.5.7 1 1.8 2.1 2 2.1.3 0 .3-.3 0-.5s-.9-1.6-1-2c0-.2.2.1.4.5.5.9 1.8 2.3 2.4 2.5.7.2.8-.2.6-1.6-.3-1.5-.2-2.3.4-3.6.4-.8.4-.8.2-.1-.3 1.6.2 4.9.9 6.1.2.3.3.7.3.9 0 .2.2 1 .5 1.9.3.8.8 2.6 1.1 3.9.8 3.5 1.2 3.3 1.8-.8.1-.9.5-3.3.9-5.2.6-3.4.9-6.3.5-6.6-.1-.1-.2.4-.3 1.1-.1 1.2-1 5-1.1 4.4 0-.2.1-1.6.3-3.2.4-3.8.2-5.3-.6-6.1l-.6-.6.9.3c1.7.6 2.2 1.4 3.3 4.5 1.3 3.5 2.8 3.3 2.8-.4 0-.8 0-1.1.2-.8.2.4.3 1.8.1 2.7l-.2.7 1-.5c1.9-1 1.9-4.3-.1-6.3-.6-.6-.4-.6.4 0s1.6 1.5 1.9 2.1c.3.7.7.7.5.1-.4-1.5-1-2.6-1.9-3.6-1.1-1.1-1-1.3.5-.5 1.4.6 1.1.1-.4-.7-.6-.4-1.5-.9-1.9-1.2-.4-.3-.8-.5-.8-.5s-.2-.3-.3-.6c-.7-1.4-4.1-2.2-6.5-1.7m27 .1c-.1.1.6.4 3 .9 4.1 1 7.3 5.6 6.4 8.9-.2.7.1.7.9-.1 3-2.7.3-7.3-5.2-8.9-2.9-.8-4.8-1.1-5.1-.8m-57 3.8c-3.2 1-6.4 7.2-6.1 12 .1 1.6.3 1.8.6.9.9-2.2 4.1-4.5 8.6-6.1.6-.2.9-.5 1-.8.2-.6.1-1.3 0-1.3-.3 0-2.3.7-3 1.1l-.7.3.7-.6c.4-.3 1.2-.9 1.9-1.2 1.7-.8 1.5-1.8-.3-1.3-.5.1-.5.1.1-.3.3-.2.7-.5.7-.6.2-.2-.2-1.2-.5-1.2-.1 0-.6.2-1.1.5-.5.3-.9.5-.9.4 0 0 .4-.3.9-.6 1.1-.6 1.2-.8.4-1.2-.5-.2-1.4-.3-2.3 0m-2.3.9c-.2.1-.2.2-.1.3.1.1.3 0 .5-.2.3-.3.1-.4-.4-.1m256.7.5c-.4.2-.9.5-1.2.7-.3.2-.7.4-.8.4-.1 0-.6.4-1.1.9-.5.5-1.2 1-1.7 1.2-1.6.6-.5 1.8 1.5 1.6.5 0 1.1.1 1.6.3l.8.4.7-.8c.4-.4.7-.9.7-1 0-1.1 1.5-2.6 2.4-2.3.5.2.5-.1-.2-.8-.8-.8-1.7-1-2.7-.6m-22.6.3c-1.4.6-4.3 3.1-4.3 3.8 0 .4 0 .4-1.6-.3l-1.4-.6c-.1 0-.4-.3-.7-.6-1.6-1.6-7.5-.4-7.9 1.6 0 .2-.1.7-.2 1-.1.3-.2.8-.2 1.1-.1.4-.1.5.2.4.2-.1.7 0 1.2.2 1 .3 2.5.4 3.3.1 1-.4.4.3-.7.8-1.7.8-2.6.8-3.8-.1-2.6-1.9-6.4-2.6-8-1.5-.1.1-.6.2-1 .4-.9.3-1.5.9-1.4 1.3.1.2-.1.4-.5.6-1.3.6-2.1 2.3-1 2.3.4 0 .3.3-.2.6-1.5.8-5.2 6.2-5.5 8-.1.4-.3 1.2-.6 1.8-.3.6-.5 1.3-.5 1.6 0 .8.5.4 1.1-1 .6-1.3 3.4-5 5.1-6.6.9-.9.9-.9.2-.1-1.4 1.5-3.1 4.5-3.1 5.3 0 .6.4.6 1.6.1.5-.2 1.4-.6 2.1-.9.7-.3 1.7-.8 2.3-1.3.6-.5 1.7-1 2.4-1.3 1.4-.5 1.6-.7 1.6-1.6 0-.8.1-.8-1.9 0-2.7 1-3 1.1-3 1 0-.2 2.8-2.2 3.2-2.2.7 0-1.5-2.5-2.6-3l-.7-.3h.7c.7 0 2.2.8 3.3 1.8.7.6.7.2.1-1.1-.6-1.4-1.3-2.3-2.1-2.8l-.6-.3.5-.1c.6-.1 1.6.8 2.7 2.5 1.4 2.1 2 6.3 1.1 7.1-.8.6-.6.8.5.8 1.7 0 1.9-.5 2.2-4.2l.2-2.1.5 1c.5 1 .7 3.8.3 4.7-.2.7.4.6 1.1-.2 1-1 1.4-3.1.8-4.6-.3-.7-.3-.7.1-.4.5.5 1.1 2.3 1 3.4-.1.5 0 .9 0 .9.3 0 1-2 1-3 0-1.4.4-.8.5.7 0 1.6.7 1 .7-.7 0-.5-.1-.8-.4-.9-.3-.1-.4-.3-.3-.6.1-.3-.5-1.4-1.6-2.9-.1-.2.4.2 1.1.8l1.3 1.1 1.3-.4c.7-.2 1.5-.5 1.8-.5.3-.1.7-.5 1-1.1.6-.9.6-1.4.1-1-.4.3-2.9 1.1-3.1 1-.1 0 .3-.4 1-.7.7-.4 1.9-1.1 2.7-1.6s1.5-.9 1.5-.9c.1 0 1-.8 2.2-1.7 2.1-1.8 3.8-2.6 5.1-2.6 2.1 0 3-.7 1.6-1.3-.5-.2-1.1-.5-1.4-.6-.6-.3-1.4-.3-2-.1m9.8 1.1c-.2.1-1.1.6-1.9 1.1-1.5.9-2.2 1.7-1 1.4.3-.1.9 0 1.4.2 1.4.5 1.7.4 2.9-.8 1.1-1.1 1.1-1.1 2.1-1 1.1.1 1.1-.1 0-.7-1.1-.4-3-.6-3.5-.2m16.8 1.2c.1.2.1.4.1.5 0 .1.1.1.2.1.3-.2.2-.9-.1-.9-.3 0-.3.1-.2.3m2.3.6c-1.7.3-3 .8-3.6 1.5-.1.2-1 .8-1.9 1.4-3 2-4.8 5.2-3.9 7 .5 1 2.2 2.6 3.2 2.8.8.2 1 0 .4-.4-1.1-.8-1.5-2.8-.9-4.2.3-.6.3-.6.3.5 0 2.5 2.7 4.5 5.9 4.6.5 0-.4-.6-1.4-1-.6-.2-1.4-.7-1.8-1.1l-.7-.7 1.4.7c.7.4 1.9.8 2.5 1 .6.2 1.3.3 1.5.4.3.1.1-.1-.4-.6-.8-.8-1.5-2.1-1.5-2.8 0-.5.3-.5.5.2.1.3.9 1.1 1.8 1.7 2.2 1.7 3.5 3.1 4.2 4.5.3.6.9 1.8 1.4 2.5.4.8.8 1.5.8 1.7 0 .2.1.4.2.5.5.3-.3-3.6-1.7-7.9-.3-.8-.4-1.4-.4-1.4.2 0 1.5 2.7 2 4 .7 2.2.9 2.4.8.8-.3-3.5-.8-5.4-2.1-8.2-.5-1-.9-2-1-2.2-.1-.3-.4-.8-.6-1.1l-.5-.7.5.1c1.1.3 2.3 1.6 3.2 3.4.4.8.6.4.6-1.1 0-1.7-1.9-4.4-3.4-4.7-1-.2-5.1-.2-5.8 0-.5.1-.4.1.3-.3.5-.3 1.3-.6 1.9-.7 1.1-.2 1.4-.6.5-.6-.3.1-1.3.3-2.3.4m-271.9 0c-1.2.1-1 .4.1.4.5 0 1-.1 1-.2 0-.2-.2-.2-1.1-.2m234.9.7c.6.4 1.4.8 1.7 1 .5.3.4.3-1 .4-1.8.2-2.3 0-2.7-1-.2-.4-.4-.7-.5-.8-.1-.1-.2-.2-.2-.3 0-.4 1.6 0 2.7.7m11.2-.5c-.4.2-1 .3-1.5.3-.7 0-1.1.2-2.8 1.4-6.3 4.7-8.2 9.9-4.5 11.8.3.2.4.1.4-.3 0-.2.3-1.2.5-2.1.3-.9.4-1.3.4-.9-.5 3.3-.6 7.4-.1 9.6.4 1.9 1.2 3.2 1.2 2.2 0-.2.3-.9.7-1.6.4-.7.8-1.6.9-2 .3-.9 1.8-3.2 3.4-5.2 2-2.4 3.3-4.8 2.8-4.8-.2 0-2.9 2.2-3.9 3.1-.9.8-1.9 2.3-2.9 4.1-.8 1.5-.9 1.4-.2-.9.6-2.1 2.4-5.6 3.3-6.5.8-.8 2.1-2.5 2.1-2.7 0-.6-3.1-.5-4 .1l-.7.5.4-.5c2-2.8 6.3-2 7 1.3.1.3.2.7.3.7.7.4-.2 3.4-1.4 4.4-.1.1-.2.2-.2.4-.1.3 1.3-.2 2-.7.5-.4.5 0-.1.5-1.4 1.3.4.5 2.1-.9 1.1-.9 1-.4-.3.9-.9 1-.9 1.1-.3 1.1.7 0 1.2-.5 2.2-2 .9-1.5 1-1.9.7-2.8-.3-.8-.1-.6.4.3.5.9.5 2.1.1 3-.8 1.5.4.9 1.3-.7.8-1.3.7-1.8-.2-3.3-.5-.7-1.1-1.8-1.5-2.5-.9-1.7-2.9-3.6-4.5-4.4-.7-.4-1.4-.8-1.5-.9-.6-.4-.8-.4-1.6 0m43.8-.1c-3.4.6-5 1.6-6.3 4.3-1.1 2.2-1.3 3.7-.5 4.9.7 1.1.9 1 .8-.2-.2-1.5.8-3.5 2-4.1.3-.2.2 0-.2.5-1.5 1.7-1.4 3.9.3 5.4.7.6 1.1.6.7-.2-.1-.2-.2-.7-.2-1.1v-.7l.2.6c.2.8 1.5 2 2.2 2.2.8.2.8.2.5-.9-.2-.8-.2-1.1.1-2l.3-1.1.1 1.4c.2 1.8.7 2.6 1.9 3.2 1.3.6 2.4 1.5 3.4 2.9.5.7 1.2 1.6 1.6 2.1.4.5.9 1 1 1.3.6.8.7.2.5-2-.4-3.7-1.5-6.4-3.9-9.4-.9-1.1-1.4-2-1.2-2 .6 0 2.7 1.8 4.1 3.7.3.4.4.4.8.2.9-.6.6-1.5-1.3-3.7-1-1.2-.3-.8 1.2.6 1.1 1 .9.1-.3-1.7l-.6-.9.5.5c.6.5 1.4 1.9 1.6 2.7.2.9.7 1 .7.1 0-.4-.1-.8-.2-.8s-.3-.5-.4-1c-.9-3.1-5.5-5.5-9.4-4.8"/></svg>