<?xml version="1.0" encoding="utf-8"?>
<!-- Generator: Adobe Illustrator 22.1.0, SVG Export Plug-In . SVG Version: 6.00 Build 0)  -->
<svg version="1.1" id="svg" xmlns="http://www.w3.org/2000/svg" xmlns:xlink="http://www.w3.org/1999/xlink" x="0px" y="0px"
	 viewBox="0 0 410 410" style="enable-background:new 0 0 410 410;" xml:space="preserve">
<g id="svgg">
	<path id="path0" d="M170.9,23.1c-1.1,0.1-7.6,1.3-9.3,1.7c-1.7,0.4-6.7,3-8.8,4.6c-4.6,3.5-5.8,4.9-10.7,12.3
		c-4.3,6.5-3.9,6.4,1.9-0.4c3.7-4.3,8.6-9.3,10.2-10.4l1.3-0.9l-1.6,1.6c-2.1,2.1-6.1,6.5-5.9,6.5c0.1,0,1.3-1,2.6-2.2
		c4.7-4.3,9.3-7,14.4-8.6c3.2-1,3.2-0.7-0.1,0.5c-5.4,2-9,4.4-15.3,10.2c-5.2,4.8-4.2,4.3,2.2-1c1.9-1.6,6.9-4.9,9-6
		c2.4-1.2,10.2-3.2,10.7-2.7c0.1,0.1-0.2,0.2-2.7,0.7c-7.5,1.4-16.2,7-24.1,15.3c-1.6,1.7-1.4,1.6,3-2.2
		c12.4-10.6,21.9-13.5,34.5-10.6c5.2,1.2,16.2,9.6,19.6,15.1c1.1,1.7,2,2.1,1.6,0.7c-0.2-0.8-3.7-5.6-6.4-8.6
		c-4.7-5.5-11.8-10.2-18.2-12.4c-1-0.3-1.7-0.7-1.6-0.7c0.9-0.3,8.3,2.4,11.1,4.1c1.9,1.2,2,1.2,1-0.1c-0.6-0.7-1.8-1.6-3.9-2.7
		c-1.7-0.9-3.5-1.9-4-2.3C179.1,23.1,175.5,22.6,170.9,23.1 M183,34.7c2.1,1.3,5.1,3.4,6.3,4.4c1.4,1.2,16.7,16.1,16.4,16.1
		c-0.5,0-5-4.1-10.4-9.3c-6-5.8-11.8-10.4-13.1-10.4c-0.4,0-0.4,0,2.9,2.1c4.3,2.8,8.8,7.5,15.3,15.7c1.3,1.7,3,3.5,3.6,4
		c1.9,1.5,5.2,3.7,6.8,4.4c1.8,0.8,1.7,1-0.2,0.4c-2-0.6-3.8-1.5-6-3.2c-1.9-1.4-2.7-2.2-6.5-6.6c-1.2-1.4-3.1-3.3-4.1-4.2
		c-1.1-0.9-3.3-3-4.9-4.5c-5.5-5.2-12-7.9-18.9-7.8c-9,0.1-13.2,1.1-17.7,4.2c-2.7,1.8-3,2.3-0.7,1.2c5.8-2.9,12.6-4.1,19.5-3.4
		c4.5,0.4,6.8,1.1,2.9,0.9c-14.2-0.9-25.5,3.1-33,11.6c-0.8,0.9-1.6,1.7-1.9,1.8c-0.7,0.2-8.5,6.9-8.2,7c0.7,0.2,5.6-2.9,10.2-6.5
		c6.3-4.9,12.7-8.2,17.4-8.8c1.1-0.1,0.9,0-1.2,0.6c-3.5,1.1-8,3.4-11.3,5.9c-3.7,2.7-3.9,3.1-0.6,1c7.5-4.7,14.1-6.8,20.6-6.5
		c7.1,0.3,7.9,1.3,0.9,1.2c-8.6-0.1-12.6,1.4-26.3,10c-2.7,1.7-2.7,1.5,0-0.4c1.3-0.9,2.3-1.7,2.3-1.7c0-0.2-3.8,2.4-5.4,3.7
		c-1.6,1.3-2.3,1.3-0.8,0.1c0.7-0.6-0.4,0-2.6,1.4c-2,1.3-4.5,2.6-5.6,3.1c-2.4,1-2.5,1.1-0.8,0.9c4.9-0.6,8-2,15.9-7.1
		c3.7-2.4,7.1-4.2,7.3-3.9c0.1,0.1-0.5,0.5-1.2,0.8c-1.9,1-3.6,2.1-7.8,5.2c-7.1,5.3-12,7-19.8,6.9c-8.3-0.1-9.5,0.2-4.4,0.9
		c1.8,0.2,5,0.9,7.1,1.5c3.6,1,7.2,1.7,9.3,2c0.8,0.1,0.8,0.1-0.3,0.1c-2,0.1-5.7-0.5-10.1-1.5c-6.1-1.4-7.5-1.1-2.4,0.4
		c11.2,3.3,11.4,3.4,18,3.2c3.6-0.1,5.3-0.3,6.7-0.7c1-0.3,3.4-0.8,5.2-1.2c1.8-0.4,5.1-1.2,7.3-1.7c4.2-1.1,7.9-1.6,11.8-1.6
		c3.2,0,1.6-0.4-2-0.5c-3.1,0-7.8,0.7-14.2,2.4c-5,1.3-7.6,1.5-4,0.3c1.3-0.4,3.7-1.4,5.5-2.2c6.1-2.9,11.6-4.1,15-3.3
		c0.5,0.1,0.9,0.1,0.9,0c0-0.5-2.9-0.9-5.9-0.9l-3.1,0l1.4-0.4c0.8-0.2,1.5-0.5,1.5-0.6c0.7-1,6-0.6,9.5,0.7c1.8,0.7,2.4,1,4.3,2.2
		c0.6,0.4,0.5,0.2-0.4-0.8c-1.2-1.3-3.9-2.8-4.9-2.9c-0.3,0-1.2-0.2-1.9-0.5l-1.3-0.5l1.7,0.1c3.3,0.2,4.9,1,7.4,3.4l1.4,1.4
		l-0.6-1.2c-3.2-5.9-10.7-6.1-21.5-0.7c-5.5,2.7-7.2,3.4-10.7,4.3c-1.5,0.4-3.3,0.9-3.9,1.2c-1.3,0.6-9.1,0.7-10.3,0.1
		c-0.5-0.3,0.2-0.3,3.5-0.2c6.2,0.2,10.9-1,17.6-4.5c3.6-1.9,3.7-2.1,0.2-0.9c-2.2,0.8-7.6,2.3-8.3,2.3c-0.1,0,0.6-0.5,1.6-1.2
		c1-0.6,2.4-1.6,3.1-2.2c2.1-1.7,7.3-4.1,12.3-5.5c8.3-2.4,10.7-2.4,15.6,0.4c0.9,0.5,1.5,0.7,1.4,0.6c-0.4-0.6-4.1-2.6-6.2-3.3
		c-2.6-0.9-2.2-1,0.7-0.2c8.5,2.3,11.8,6.7,11.4,15.3c-0.3,6.3,1.4,11.6,5.1,16.1c1.6,2,1,1.8-0.9-0.3c-0.9-1-1.3-1.3-0.9-0.7
		c3.2,4.9,9,8.2,13.8,7.9c2.3-0.1,3,0.1,1.2,0.4c-5.6,0.9-11.5-1.9-16.2-7.8l-0.7-0.9l0.7,1.4c0.4,0.8,1.2,1.9,1.7,2.5
		c0.5,0.6,0.7,0.9,0.4,0.7s-0.6-0.5-0.7-0.7c-0.1-0.1-0.3-0.2-0.3-0.1c-0.3,0.3,4,4.1,5.7,5.1c2.2,1.3,4.5,1.7,8.7,1.5l3.2-0.2
		l-1,0.5c-2.5,1.3-6.9,1.2-11.3-0.2c-0.7-0.2-1.1-0.3-1-0.1c0.4,0.7-1.2-0.5-2.5-1.8c-1.5-1.5-1.8-1.5-0.9,0
		c1.5,2.6,6.1,4.6,10.7,4.7c2,0.1,0.2,0.5-2.2,0.5c-2.8,0-5.6-1.3-8.3-4c-1.9-1.9-2.2-2-1.8-0.7c0.9,2.6,6.2,6.4,9.6,6.8
		c3.9,0.4,6.6-0.9,12.4-6c6.2-5.5,7.5-6.4,10.9-8.1c6.8-3.4,13.2-4,23.1-2.3c16.8,2.9,22.6,2.5,28.8-1.9c9.6-6.8,13.5-8.5,19.9-8.5
		c4,0,4.2-0.2,0.6-0.7c-4.1-0.6-8.7,0.6-14,3.6c-7.8,4.3-13.8,6.6-17,6.6c-0.6,0-2,0.1-3.3,0.2c-1.2,0.1-3.7,0.3-5.5,0.2
		c-1.8,0-2.7-0.1-2-0.1c10.9-0.9,18.6-3.2,26.9-7.8c7.8-4.3,15.7-5,21.8-1.9c2,1,1.9,1,1.9,0.2c0-0.5,0.1-0.6,0.4-0.5
		c1.5,0.6-0.7-1.6-3.7-3.5c-1-0.7-1.8-1.2-1.8-1.3c0-0.3,2.7,1,4.4,2.2c1.7,1.2,1.9,0.9,0.3-0.6c-2.6-2.4-7.6-4.2-13.3-4.7
		c-3.1-0.3-3.3-0.3-2.3-0.5c1.6-0.3,5-0.1,7.3,0.4c2.2,0.5,2.4,0.4,0.9-0.4c-4-2-8.8-2.6-12.5-1.6c-4.5,1.2-8.3,2.4-10.3,3.2
		c-5.1,2-15.2,3.7-18.9,3.1l-1.3-0.2l1.1-0.2c4.9-0.9,6.9-1.4,8.1-1.8l1.5-0.5l-1.9-0.2c-7-0.7-17.6,0.1-22.9,1.7
		c-3.6,1-13.6,4.4-16.7,5.7l-3.1,1.2l-5,0.2c-6.5,0.2-8.9-0.5-13.4-3.8c-0.9-0.7-1.6-1.1-1.5-0.9c0.3,0.6,2.3,2.2,3.9,3.4
		c0.9,0.6,1.5,1.1,1.4,1.1c-0.2,0-2.4-1.2-3.6-2.1c-0.6-0.4-0.6-0.4,0.1,0.4c1.7,1.9,5.6,4,7.4,4.1c0.5,0,1.2,0.1,1.5,0.3
		c0.5,0.2,0.1,0.2-1.2,0.1c-3.3-0.2-8-3.2-10.8-7c-1.6-2.1-1.7-2.2-1.4-1.6c0.4,1,1.5,2.6,2.7,3.9c1.4,1.5,1.2,1.8-0.2,0.4
		c-1.2-1.2-1.5-1.2-0.8,0.2c2,3.7,8.2,6.5,12.8,5.8c3.9-0.6,12.5-3.2,19.4-5.9c7.7-3,18.5-4.5,24.3-3.3c2.7,0.6,8.4,0.4,13.6-0.5
		c5.7-1,5.8-1,5.2-0.7c-0.5,0.2-2.4,0.6-8.8,1.9c-2.6,0.5-3.9,0.6-12.4,0.7c-7,0.1-9.9,0.2-10.9,0.5c-1.4,0.4-1.3,0.4,2.1,0.2
		c2.1-0.1,6,0.1,9.3,0.3c3.2,0.2,6.4,0.4,7.2,0.3c3.6-0.4,13.3-2.1,16.7-2.9c5.8-1.5,7.4-1.7,11.5-1.7c3.8,0,8.5,0.7,9.7,1.4
		c0.4,0.3,0.4,0.3-0.2,0.1c-4.5-1.1-10.1-0.2-17,2.8c-11.7,5-19.1,6.4-31.9,5.7c-7.1-0.4-11.1,0.2-6.1,0.9
		c9.1,1.2,17.6,1.3,22.4,0.3c3.1-0.7,3.5-0.5,0.9,0.3c-6.1,1.9-7.9,2-19.9,1.1c-15.2-1.1-22.2,0.1-27.4,4.9c-4.7,4.4-9.9,8.2-6,4.5
		c1.7-1.7,1.6-1.9-0.9-1.1c-4.6,1.4-11.6,0.8-15.3-1.4c-2.7-1.6-6.1-6.7-6.9-10.2c-0.1-0.6,0.1-0.4,0.7,0.8
		c4.6,8.3,15.3,10.8,24,5.5c2.4-1.4,2.2-1.5-1-0.2c-8.3,3.2-16.4,1.6-19.7-4.1c-0.4-0.8-0.4-0.8,0-0.1c2.6,3.6,7.7,5.7,12.6,5.1
		l2.1-0.3l-1.7,0c-5.5-0.1-8.5-1.1-10.7-3.3c-1.8-1.9-2.6-3.3-0.9-1.6c3.5,3.5,4.7,3.9,11.5,3.9c3.4,0,5.2-0.1,5.6-0.3
		c0.7-0.4,0.6-0.4-3.7-0.1c-10.6,0.9-14.2-2.8-15.5-16.1c-1.5-15-8.4-22-23.9-24.4c-5.3-0.8-12.7,1-19.4,4.7l-2.1,1.2l1.1-1
		c4.6-4.1,7.5-5.4,13.7-6.1c5.8-0.7,11.3-0.6,13.4,0.1c6.5,2.3,12.6,6.7,15.1,11c1.8,3.1,3.8,7.2,3.9,7.7c0,2,4.6,7.7,8.2,10.1
		c5.5,3.8,13.4,3.7,25-0.2c4.5-1.5,4.5-1.7,0-0.6c-1.9,0.4-4.4,0.9-5.6,1.1c-1.2,0.2-2.7,0.4-3.4,0.6c-4.4,1-14.1-1.9-16.5-4.8
		c-0.2-0.2,0.2-0.1,0.8,0.4c1.2,0.8,3.3,2,3.6,2c0.1,0-0.8-0.8-1.9-1.8c-2.8-2.3-4.2-4-5.8-6.9c-1.2-2.1-4.3-6.7-6-9
		c-0.9-1.1-1.6-2.1-1.6-2.3c0-0.5,4.9,5,6.3,7.1c0.8,1.2,1.9,2.9,2.5,3.7c1.7,2.6,6.4,6,9.6,6.9c4,1.2,16.1,1.3,22.1,0.2
		c4.5-0.8,7.2-1.1,11.5-1c4,0,6-0.2,4.8-0.6c-2.5-0.8-11-1-14.7-0.2c-9.2,1.9-17.6,2-22.8,0.1c-1-0.4-1.5-0.6-1.2-0.5
		c0.4,0.1,1.4,0.3,2.4,0.5c1.9,0.4,9.9,0.5,12.4,0.2c1.5-0.2,1.5-0.3-2.8-0.8c-3.2-0.4-6.3-1.4-9.2-2.8c-2.4-1.1-3.4-1.8-1.8-1.2
		c3.3,1.3,6,2.1,7.9,2.5c3.3,0.6,3.9,0.4,1.5-0.5c-5.1-2-8.4-3.9-11.2-6.4c-0.7-0.6-2.1-1.9-3.2-2.8c-1.1-0.9-3.8-3.6-6.1-5.9
		c-2.3-2.3-4.7-4.7-5.5-5.2c-1.8-1.4-6.2-4.4-7.3-5C185.2,35.3,182.3,34.3,183,34.7 M199.6,35.9c8.9,13.6,9.7,14.6,15.4,18.3
		c5.5,3.6,8.4,4.3,15.4,4c11.1-0.5,11.1-0.5,19.1,2.8c4.7,2,7.9,2.7,12.1,2.9c3.4,0.1,3.7-0.1,0.8-0.7c-8.7-1.8-9.3-1.9-12.9-3.7
		c-1.7-0.8-4-1.8-5.1-2.3l-2-0.8l-8.1-0.2C224,56,221.7,55.6,216.4,53c-4.3-2.1-5.2-3-11.1-11.4c-1.7-2.5-6.1-7.3-6.5-7.3
		C198.7,34.4,199,35.1,199.6,35.9 M139.1,48.1c-0.2,0.2-0.8,0.6-1.3,0.9c-0.5,0.3-1.6,1-2.4,1.6c-0.8,0.6-1.6,1.1-1.8,1.1
		c-0.2,0-1,0.5-1.8,1c-2.7,2-10.9,4.9-14.7,5.2c-0.6,0-2.3,0.2-3.8,0.4c-3.9,0.4-23.6,0.3-21-0.1c1-0.2,2.8-0.3,4.1-0.3
		c3.5,0,14.1-1.1,14.1-1.4c0-0.1-17.1,0.1-17.8,0.2c-0.5,0.1-1.8,0.3-2.9,0.4c-11.7,1.3-19.2,10.3-14.3,17.1c2,2.8,2.8,3.5,5.3,4.7
		c2.3,1.1,3.3,1.4,9.5,2.8c3,0.7,5.3,1.9,7,3.6c1.3,1.4,1.9,1.3,0.9-0.1c-0.9-1.4-2.9-2.8-5.9-4.4c-8.3-4.3-10.2-9.9-4-11.9
		c1.2-0.4,2.4-0.8,2.6-1c0.6-0.4,0.1-0.6-0.7-0.3c-0.4,0.2-1.2,0.4-1.7,0.4c-5.4,0.9-7.2,4-4.8,8.3l0.9,1.6L83.6,77
		c-5.6-4.3-2.9-9.5,6.1-11.7c4.4-1.1,4.4-1,1.1-0.9c-5.1,0.3-8.4,1.3-10.6,3.4c-0.6,0.6-1.2,1-1.2,0.9c0-0.1,0.6-0.7,1.3-1.4
		c3.6-3.5,9.9-4.7,19.6-3.7c6.7,0.7,18.1-0.1,19.2-1.4c0.2-0.2,0.1-0.3-0.3-0.1c-2.4,0.7-10.1,1.1-14,0.7l-1.7-0.2l1.2-0.2
		c0.7-0.1,3.1-0.3,5.5-0.5c6.7-0.5,10.3-1.1,14-2.7c2.1-0.9,0.9-0.8-1.8,0.1c-4.2,1.5-4.8,1.6-19.6,1.6C87,61.2,85,61.5,80.7,63.9
		c-0.7,0.4-1,0.5-0.7,0.2c3.5-2.9,7-3.5,23.5-3.9c13-0.3,16.8-1,25.2-4.7c4.3-1.9,12.6-7.8,11-7.8C139.6,47.7,139.3,47.9,139.1,48.1
		 M176.3,50.3c8.3,2.2,11.5,5.7,12,13.5l0.1,1.9l-0.6-2.4c-2-7.6-4.9-10.4-11.7-11.8c-8-1.7-15.9,0.3-26.3,6.5
		c-2.7,1.6-9.9,5.3-10,5.1c-0.1-0.1,1.1-0.8,2.6-1.7c1.5-0.9,4.5-2.7,6.7-4.2c7.2-4.8,10.8-6.2,17.9-7.1
		C172.4,49.5,173.3,49.5,176.3,50.3 M159.5,54.8c-3.3,1.3-4.8,2.2-9.4,5.7c-4.6,3.5-13.4,7.2-15.4,6.5c-0.5-0.2,0.1-0.4,3.8-1.3
		c0.6-0.2,1.3-0.4,1.5-0.6c0.2-0.2,1.2-0.7,2.2-1.1c2.8-1.1,6.6-3.4,9.2-5.4c2.5-2,3.9-2.8,6.7-3.7C160.6,54,161.7,53.9,159.5,54.8
		 M298.5,64.8c0.2,0.2,0.9,0.4,1.7,0.5c1.6,0.2,2.8,0.6,3,1.1c0.1,0.2,1.1,0.9,2.2,1.7c1.1,0.8,2.7,2,3.4,2.7
		c1.4,1.3,1.4,1.3,2.7,1.1c2.9-0.4-0.1-4.5-4.5-6.2c-3.3-1.2-3.9-1.3-1.6,0c1.8,1,4.8,3.1,4.8,3.3c0,0.1-1.5-0.7-3.3-1.6
		c-3-1.5-4.8-2.1-7.9-2.7C298.4,64.5,298.3,64.5,298.5,64.8 M284.1,68.3c-1.9,0.3-3.1,0.6-9.6,3c-2.6,1-6.1,2.2-7.7,2.7
		c-3.2,1-3,1.1,1.1,0.5c3.2-0.5,6.9-1.6,13.2-4c2.6-1,5.3-1.9,6.1-2.1l1.5-0.4l-1.5,0C286.3,68,284.9,68.1,284.1,68.3 M158.7,68.9
		c-3.1,0.8-12.9,3.1-14.7,3.3c-4.3,0.7-10.7,0.1-17.4-1.7c-2.8-0.7-5.2-1.3-5.3-1.2c-0.2,0.2,6.3,3.1,10,4.5l3.6,1.4l5.2,0
		c4.9,0,5.4,0,8-0.7c3-0.8,10.4-3.2,11.3-3.7c1-0.5-0.1-0.5-1.8,0c-5.4,1.8-8.7,2.1-4.1,0.4C162.3,68.2,163.4,67.7,158.7,68.9
		 M119.7,69.7c0,0.2,1.5,0.9,1.9,0.9c0.2,0,0.3-0.1,0.2-0.1C121.5,70.3,119.7,69.6,119.7,69.7 M325.5,70.5c0,0.1,0.9,0.3,1.9,0.4
		c3,0.5,5,1.2,6.9,2.4c2.1,1.4,1.9,1.6-0.3,0.4c-2.3-1.3-5.1-2-8.6-2.3c-1.6-0.1-3.1-0.3-3.4-0.4c-0.5-0.2-1.3,0.5-1.3,1.1
		c0,0.4,0.4,0.6,3.2,1.5c5.1,1.6,9.6,6.5,9.7,10.5c0,3.7,0.7,3.9,0.9,0.3c0.4-6.2-1.2-8.9-6.8-11.5c-1.8-0.8-1.4-0.8,1.3-0.1
		c5.4,1.5,7.4,3.7,8.9,9.9c0.7,3,1.6,5,3,6.6c1.1,1.3,1.9,1.6,1,0.4c-1-1.4-2.2-4-2.3-5.2c-0.2-1.1-0.1-1.1,0.9,0.8
		c2.6,4.9,6,8.9,3.7,4.4c-1.9-3.8-2.8-6.1-3-7.6c-0.1-1.1-0.1-1.2,0.2-0.4c2.7,6.7,5.3,10.7,10.2,15.5c6,5.9,6.6,6.9,6.5,11.7
		c0,3.1-0.5,5.1-1.5,6.6c-1,1.4-1.1,1.2-0.5-1.2c0.9-3.7,0.5-8.9-1.1-11.6c-0.4-0.7-6.1-6.5-6.4-6.5c-0.4,0,0.2,0.8,1.5,2.3
		c4.2,4.6,5.8,9.6,4.3,14.3c-0.5,1.7-0.6,1.2-0.6-2.4c0-2.9-0.1-3.6-0.6-4.6c-0.3-0.7-0.5-0.9-0.5-0.5c1,4.9,0.4,8.2-3,17
		c-2.1,5.4-2.6,9.4-1.6,12.4c0.3,1,0.4,0.9,0.4-1.9c0-3.4,0.7-5.7,3.2-11.1c1.8-3.8,2.1-4,0.6-0.3c-1.5,3.8-2.5,8.2-2.4,11.2
		c0,1.5,0.4-0.1,0.6-2.5c0.2-2.8,3.5-9.4,6.1-12.1c1.4-1.5,2.5-4.8,3.1-9.4l0.2-1.9l0,2.4c0,1.4-0.1,3-0.4,3.9c-0.7,2.6,0,2.7,1,0.1
		c0.6-1.5,0.7-1.6,0.5-0.7c-0.2,1.5-1.6,4.2-2.9,5.7c-1,1.1-2.2,2.9-4.2,6c-1.1,1.8-0.1,0.8,2.1-1.9c1.3-1.6,2.4-2.9,2.4-2.9
		c0.3,0-0.3,1-2.7,4.2c-2.4,3.2-3.6,5.4-3.6,6.1c0,0.1,0.3-0.3,0.7-1c0.4-0.7,1.3-1.9,1.9-2.8c4.1-5.4,4.9-6.5,5.6-7.9
		c0.5-0.9,1.1-2.2,1.3-3c0.3-0.8,0.5-1.2,0.5-1c0.1,1.6-1.6,4.6-5.7,10.5c-3.1,4.5-4.5,7.4-4.4,9.6c0,0.9,0.1,0.8,0.9-1.5
		c1.1-3.3,5-9.8,6.7-11.2c0.6-0.5,0.6-0.5-1.8,3c-1,1.5-2,3.1-2.2,3.6l-0.5,0.9l0.6-0.8c2-2.7,4.1-5.2,5.3-6.5
		c1.3-1.4,1.3-1.3,0.1,0.4c-0.2,0.3-0.4,0.7-0.3,0.7c0.3,0.3,3.9-3.9,4.6-5.1c0.4-0.7,0.7-1.1,0.7-0.9c0,0.9-1.7,3.3-4.6,6.3
		c-2.9,3.1-4.7,5.2-3.9,4.8c0.3-0.2,0.3-0.1,0,0.3c-2.5,3.1-1.9,10.2,1.6,18.4c2.8,6.6,3.4,9.7,2,10.8c-0.2,0.2-0.6,1-0.8,1.8
		c-1.1,3.9-3.2,6.1-7.6,7.9c-1,0.4-2.1,0.9-2.5,1.2c-3.6,2-7.6,4-7.6,3.9c0-0.1,1-0.8,2.2-1.7c3.4-2.5,5.6-4.7,7.5-7.7
		c2.9-4.5,3.2-5.2,3.2-8c0-3.3-0.5-5.2-0.5-2.2c0,3.5-1.1,6.4-3.4,9.9c-1.2,1.8-1.5,1.8-0.4-0.1c1.2-2,2.4-4.6,2.6-5.8l0.2-1.1
		l-0.4,0.9c-1.6,4.3-7,10.2-12.7,14.1c-2.8,1.9-3.4,2.6-5,5.7c-1.7,3.3-2.2,5.3-0.7,2.6c0.8-1.4,4.5-6.2,4.9-6.2
		c0.1,0-0.1,0.3-1.7,2.6c-1.6,2.2-3.1,5.3-3.4,6.7c-0.1,0.7,0.1,0.3,0.9-1.3c1-2,3.9-5.6,4.2-5.3c0.1,0.1-0.1,0.4-0.4,0.7
		c-0.3,0.4-0.4,0.5-0.1,0.3c0.9-0.5,3.1-2.2,4.7-3.4c1.9-1.5,6-3.7,8.7-4.6c1-0.4,2.3-0.9,2.8-1.2c1.1-0.6,1.3-0.7,0.9-0.1
		c-0.4,0.5-2.4,1.6-3.6,2c-1.5,0.5-0.9,0.6,1,0.1c1.7-0.4,2.2-0.6,4-1.7c1.5-0.8,1.2-0.5-0.5,0.7c-1.9,1.3-1.5,1.4,0.9,0.1
		c2.3-1.2,3.8-2.5,4.3-3.5c0.2-0.4,0.6-1.1,0.8-1.4c2-3,3.1-9.4,2-12c-0.4-0.9-1.1-2.6-1.5-3.7c-0.4-1.1-1.1-2.5-1.5-3.1
		c-1-1.5-3-5.5-3.4-6.8c-0.2-0.5-0.4-1.1-0.6-1.1c-0.4-0.2,1.2,4.1,2.2,6.1c1,1.9,2,5.1,1.7,5.4c-0.1,0.1-0.2-0.1-0.3-0.5
		c-0.1-0.3-1-2.2-2-4.2c-2.7-5.5-3.7-11.9-2.2-15c0.7-1.3,0.7-1.7,0.3-1.4c-1.1,0.7,0.2-0.7,2.4-2.7c3.9-3.4,5.5-5.6,6.7-9.2
		l0.5-1.5l-0.1,1.2c-0.2,1.2-1.5,4.5-2.5,6l-0.6,0.8l0.9-0.8c2.1-1.9,3.7-5.8,3.8-8.6c0-1.5,0.1-1.6,0.3-1.1
		c1.2,2.9-1.6,8.8-5.7,12.1c-2.2,1.7-3,2.7-1.3,1.5c0.4-0.3,1.2-0.7,1.7-1c2.1-1,4.9-4.9,5.6-7.6c0.2-0.8,0.5-1.8,0.7-2.3
		c0.3-0.6,0.4-1.4,0.3-3.5c-0.3-5.6-4-10.3-11.9-14.8c-1.9-1.1-1.8-0.8,0.5,0.9c2.6,2,3.8,3.3,1.5,1.8c-1.5-1-5.1-3.2-5.1-3.1
		c0,0.1,0.8,0.7,1.8,1.5c2,1.5,3.2,2.7,1.6,1.7c-0.5-0.3-1.6-1.1-2.5-1.6c-0.9-0.5-2.7-1.8-4-2.8c-1.3-1-2.6-2-2.8-2.1
		c-1.3-0.9,2.3,2.5,3.9,3.7c2.2,1.7,2.5,2.1,0.7,1l-1.3-0.7l1.2,1.1c0.7,0.6,1.9,1.8,2.7,2.6c0.8,0.8,1.5,1.5,1.5,1.5
		c0,0.2-5.8-4.6-8.8-7.2c-4.6-4-8-9.3-8-12.2c0-4.2-3.5-9.3-7.2-10.5c-1.1-0.4-1.4-0.2-0.3,0.2c0.4,0.2,1.1,0.7,1.5,1.1l0.8,0.8
		l-1.5-0.8C333.7,71.6,325.5,69.8,325.5,70.5 M124.1,72.4c0.6,0.4,1.8,1.4,2.7,2.2c8.5,8.1,17,10.9,24.9,8.3
		c0.8-0.3,2.7-0.8,4.2-1.2c2.4-0.7,3.9-1.4,2-1.1c-0.4,0.1-1.9,0.2-3.3,0.3c-1.4,0.1-3.5,0.3-4.6,0.5c-2.2,0.4-5.4,0.5-7.4,0.1
		c-0.9-0.2-0.4-0.2,1.9-0.2c1.9,0,3.7-0.2,4.7-0.4c4.8-1.2,16.9-1.6,21.7-0.6c4.6,0.9,8.4,3.6,11.3,8c1.1,1.7,1.4,1.9,0.8,0.5
		c-1.7-4.2-6.6-8.1-12.7-10.1c-1.2-0.4-1.3-0.5-0.8-0.6c1.1-0.1,5.1,1.4,7.1,2.7c2.4,1.6,2.5,1.6,2.5,1.4c0-0.3-4.2-3.5-5.3-3.9
		c-5.1-2.2-10.5-2.2-18-0.1c-6,1.7-9.1,2-13.1,1.5c-2.2-0.3-6.7-1.6-6.4-1.8c0.1-0.1,1,0.1,2.1,0.4c2.8,0.8,8.5,1,11.2,0.4
		c2.8-0.6,10.7-3.3,9.4-3.2c-1.5,0.2,1.3-0.8,4.3-1.4c2.3-0.5,10-0.7,11.9-0.3c0.8,0.2,0.6,0.1-0.7-0.6l-1.6-0.8l-4.5,0.1
		c-4.9,0.1-6.6,0.4-11.4,1.9c-1.6,0.5-4.4,1.2-6.2,1.5c-1.8,0.3-3.5,0.6-3.9,0.6c-0.4,0.1-0.7,0-0.7-0.1c0-0.1,0.3-0.3,0.6-0.3
		s-1.6-0.1-4.2-0.1c-5.6,0-7.8-0.4-11.9-1.9c-2.6-1-7-2.4-7.4-2.4C123.1,71.7,123.5,72,124.1,72.4 M266,72.2
		c-1.9,0.6-6.9,0.8-16,0.8c-10.3,0-11.4,0-15.4,1.3c-3.2,1-2.5,1.1,1.2,0.2c3.8-0.9,7.1-1,11.5-0.3c6.1,1,13.5,0.3,18.4-1.5
		C267.4,72.1,267.6,71.8,266,72.2 M103.1,72.7c-4.6,0.6-6.4,1.8-6.4,4.2c0,1.5,0.6,3.1,1.2,3.1c0.3,0,0.4-0.1,0.1-0.5
		c-1.2-2.2,0.3-3.9,3.9-4.7c2.5-0.5,3-0.2,1.5,0.7c-1.6,1-2.3,2.9-1.7,4.3c0.2,0.5,0.2,0.4,0.3-0.3c0-1.5,0.5-2,2.7-2.8
		c2.5-0.9,7.2-1,8.3-0.3c0.4,0.2,1.2,0.6,1.9,0.8c2.6,0.7,5.5,3.6,9.4,9.5c0.7,1,2.2,2.8,3.3,4c1.1,1.2,1.9,1.9,1.6,1.6
		c-1.5-1.9-1.3-2,0.6-0.3c3,2.8,3.2,2.6,0.6-0.4c-2.2-2.5-3-3.7-3.7-4.8c-0.1-0.2,1.4,1.2,3.4,3.2c5.5,5.6,7.7,6.3,20,6.7
		c3.7,0.1,7.2,0.3,7.6,0.4c0.4,0.1,1.5,0.3,2.4,0.4c2,0.4,2.9,0.8,4.4,2.3c1.2,1.2,1.9,1.2,1.3,0.1c-1.5-2.9-7.2-4.8-13.9-4.8
		c-1.5,0-7.1-0.7-8.5-1.1c-0.7-0.2-0.3-0.2,1.5-0.1c7.7,0.4,12.1,0.4,12.1,0.2c0-0.4-0.6-0.6-5.7-1c-12.7-1.1-17.3-2.5-21.8-6.8
		c-0.9-0.9-2.6-2.4-3.8-3.4c-1.2-1-3.1-2.7-4.3-3.8l-2.1-2l2.3,1.1c1.2,0.6,2.7,1.5,3.3,1.9s1.2,0.9,1.3,1c0.1,0.1,0.7,0.6,1.2,1
		c3.6,3.1,4,2.5,0.5-0.8C121.2,75,111.4,71.6,103.1,72.7 M289,73.8c-4.8,1.6-6.2,2.5-9.3,5.7c-7.3,7.7-10.5,10.8-12.1,11.6
		c-2.1,1.1-0.8,0.7,1.6-0.4c3.3-1.6,5-3,9.3-7.4c5.6-5.7,9-8,13.7-9.6c0.8-0.3,1.4-0.5,1.4-0.6C293.5,72.8,290.9,73.2,289,73.8
		 M293,74.2c-6.3,2.8-8.5,4.4-13.6,9.6c-5.7,5.8-8.9,8.3-11.9,9.1c-4.5,1.3-6.9,1.7-10,1.8c-2.5,0-2.9,0.1-1.9,0.2
		c3.7,0.7,9,0,13.7-1.6c3.5-1.2,3-0.6-0.7,0.9c-3.9,1.6-9.8,2.8-12.3,2.4c-1.6-0.2-3.8-0.3-3.6-0.2c3.2,3.2,17.3,0.3,24.8-5.1
		c1.5-1.1,5.3-4.2,5.7-4.7c1.3-1.6,8.5-5.7,13.2-7.6c3.5-1.4,4.3-1.9,2.7-1.6c-2.2,0.4-5.4,1.6-8.5,3.1c-3.7,1.8-3.2,1.1,0.9-1.3
		c1.3-0.8,2.3-1.4,2.2-1.4c-1.2,0-6.2,2.7-9.9,5.4c-3.1,2.2-3.5,2.1-0.9-0.2c4.2-3.9,10.7-6.9,15.8-7.4c3-0.3,2.9-0.7-0.1-0.5
		c-2.8,0.2-5.1,0.7-7.6,1.7c-1.1,0.4-1.3,0.5-0.9,0.1c1.2-1,4.1-2.1,6.6-2.5c2.9-0.5,2.9-0.7-0.1-1C295.2,73.3,294.8,73.4,293,74.2
		 M312.6,73.9c-1,0.7-0.5,2,0.9,2.6c2.6,1,7.9,6,9.5,9c1.8,3.4,3.7,10.1,3.8,13.4l0.1,1.5l0.2-1.6c0.5-3.5-0.4-8.8-1.8-11.7
		c-0.4-0.7-0.6-1.3-0.5-1.4c0.1-0.1,0.6,0.9,1.2,2.2c2,4.2,2.5,10,1.4,15.9c-0.9,5-0.9,6.4-0.1,3.6c3.1-10.4,2.2-17.6-2.9-25.2
		l-1.2-1.8l1,0.8c1.5,1.2,3.7,5,4.8,8.3c1.3,3.9,1,15.2-0.5,17.5c-0.2,0.3-0.8,2.5-1.3,4.9c-0.5,2.4-1.7,6.5-2.6,9.1
		c-2.4,7.2-2.6,10.5-0.8,14.9c0.7,1.7,4,5.9,4,5.1c0-0.1-0.2-0.4-0.4-0.6c-0.7-0.6-1.9-3.2-2.4-5.2c-0.2-1-0.5-2-0.6-2.2
		s0-0.3,0.1-0.3c0.1,0,0.4,0.6,0.6,1.4c1.2,3.9,3.6,6.9,6.6,8.5l1.4,0.8l-1.6-1.8c-2.4-2.7-4.3-5.8-4.9-7.8
		c-0.6-2.2-0.9-4.5-0.6-4.7c0.1-0.1,0.3,0.5,0.4,1.2c0.3,3.3,2.3,6.7,6.4,11c1.4,1.5,2.8,3.3,3.2,4.1c0.6,1.1,0.7,1.3,0.7,0.8
		c0-1-1.8-4.4-3.4-6.2c-1.4-1.6-3-3.8-3-4.1c0-0.8,6.7,6.3,7.8,8.2c0.2,0.3,0.3,0.4,0.4,0.4c0.3-0.3-0.8-2.5-2.5-5.1
		c-1.8-2.7-1.1-2.3,1,0.6c3.8,5.2,4.1,10.1,1.1,16c-0.6,1.2-1.2,2.6-1.3,3.1c-0.1,0.4-0.4,0.9-0.6,1.1c-1.1,0.8-2.1,8.2-1.2,8.8
		c0.2,0.1,0.2-0.2,0.1-1.1c-0.4-2.9,0.7-6,3.8-11c3.5-5.8,3.9-10.7,1.2-15.7c-1.1-2-0.8-2,0.5,0c2.8,4.4,2.9,10.4,0,14.9
		c-1.2,1.9-3.7,6.9-3.7,7.3c0,0.1,0.6-0.8,1.3-2.1c4-7.1,5-9.9,5.1-13.1l0-1.6l0.2,1.2c0.3,2-0.2,4.6-1.3,7.4
		c-0.6,1.4-1.2,2.8-1.3,3c-0.3,0.6,1.2-0.9,1.7-1.6c0.9-1.7,1.8-6.4,1.7-9.4c-0.1-4.6-0.9-5.8-7.4-11.7c-1.4-1.3-4.4-5.1-5.9-7.6
		c-2.1-3.4-3.3-9.7-2.8-14.1c0.2-1.8,0.2-1.7,0.4,2.3c0.2,4.3,0.8,6.8,2.3,9.7c0.7,1.4,0.7,1.3-0.1-2.3c-1.3-6.1-1.3-8-0.3-18
		c1.1-10,1.1-12.9,0-17c-0.2-0.8-0.4-1.9-0.4-2.3l0-0.7l0.3,0.7c1.5,3.6,2,9.2,1.4,15.1c-0.5,5.1-0.4,5.9,0.2,1.5
		c0.8-5.5,0.8-6.1,0.2-10c-0.6-4.1-0.6-4.8,0.1-2c1,4.2,1.2,8,0.6,11.9c-0.7,4.2-0.2,3.8,1.1-0.9c1-3.6,0.8-7.8-0.4-11.6
		c-0.4-1.3-1-3.2-1.2-4.3c-1.1-4.8-5.9-10.3-10-11.3C318.2,73.5,313.6,73.2,312.6,73.9 M311.4,79c0,0.2,0.6,1.1,1.4,1.9
		c1.5,1.8,2.7,4.1,4,8.1c1.2,3.5,2.6,5.8,5,8.3c2.9,3.1,2.5,2.3-1.7-3.8c-3.1-4.4-0.5-2.2,3.2,2.8c0.4,0.6,0.8,0.9,0.9,0.7
		c0.1-0.2-0.6-1.2-1.6-2.3c-1.9-2.3-3.1-4.4-4.1-7.1c-1-2.8-2.4-5.4-3.8-6.9C313.1,79,311.4,78.1,311.4,79 M304.1,79.7
		c-2.1,0.8-4.5,2.5-6.6,4.4c-1.7,1.6-4.6,3.9-6.9,5.5l-0.7,0.5l0.7-0.3c1.2-0.4,2.6-1.2,6.6-3.6c5-3,5.6-3.1,1.8-0.3
		c-3.5,2.5-5.4,3.6-8.4,4.6c-3.4,1.1-9.1,4.5-8.5,5.1c0.2,0.2,4.6-1.2,6.1-1.9c0.8-0.4,2.7-1.2,4.3-1.9c3.2-1.4,7.5-3.7,9.5-5.2
		c1.8-1.4,4.6-4,4.6-4.3c0-0.1,0.2-0.7,0.4-1.2C307.9,79.4,306.5,78.7,304.1,79.7 M298.1,80.5c-2.7,0.9-7.3,3.7-11.5,7.2
		c-4,3.3-5.4,4.3-3.5,2.4c0.8-0.8,2-1.9,2.7-2.4c1.2-1,1.3-1.7,0.1-1c-0.7,0.4-3.2,2.4-8.8,6.8c-1.5,1.2-2.9,2.2-3.1,2.2
		s-1.5,0.5-2.9,1.2c-6,2.8-13.2,3.9-19.1,2.9c-1.5-0.2-1.2,0.4,0.4,0.9c2.5,0.8,7,0.7,12.1-0.1l0.8-0.1l-0.8,0.4
		c-2.6,1.2-11,1.5-14.1,0.5c-2.6-0.8-3.6-1.4-7-3.8c-4-2.8-3.7-2.7-3.9-2.5c-0.1,0.1,0.5,0.9,1.4,1.8c3.8,3.9,7.2,5.9,10.9,6.5
		c2.3,0.3,2.2,0.8,0,0.8c-3.9,0-8.4-2.6-14.5-8.4c-2.6-2.4-5-3.6-7.3-3.6c-1,0-1,0.1,0.6,0.4c2.7,0.6,3.7,1.3,8.2,5.7
		c2.5,2.4,4.9,4.6,5.9,5.2c0.9,0.6,1.6,1.1,1.6,1.1c-0.2,0.2-3.1-1.4-4.8-2.8c-1-0.8-2.2-1.7-2.5-2l-0.7-0.5l0.7,0.9
		c4.6,6.6,9.7,7.9,19.9,5.2c1.5-0.4,3.6-0.9,4.7-1.1c3.9-0.7,10.7-4.6,16.2-9.2c1-0.9,3.5-2.7,5.4-4.2c1.9-1.4,4.1-3.1,4.7-3.6
		c0.6-0.5,3-2.1,5.3-3.5C299.2,81,300.4,79.8,298.1,80.5 M273.9,82.7c-0.9,0.7-2,1.7-2.6,2c-0.6,0.4-0.9,0.8-0.8,0.9
		c0.4,0.2-3.6,2.6-5.9,3.5c-4,1.6-9.6,2.5-14.2,2.3c-2.1-0.1-2.7-0.1-2,0.1c4.1,1.1,14.5,0.2,18.3-1.6c2.1-1,9.9-8.5,8.9-8.5
		C275.5,81.3,274.8,81.9,273.9,82.7 M105.3,82.8c3.7,4.2,1.7,8.4-5.4,11.5c-2.8,1.2-5.8,2.9-5.6,3.1c0.6,0.6,9.8-3.9,11.7-5.7
		c1.3-1.3,1.5-1.4,1.3-0.8c-0.3,1-2,2.5-4.9,4.2c-2.7,1.6-2,1.7,1.2,0.1c4.5-2.2,5.8-4.6,4.8-8.6c-0.3-1.1-2.6-4.2-3.2-4.3
		C105,82.4,105.1,82.6,105.3,82.8 M308.7,84c-1.8,3.8-10,9.5-16.5,11.5c-1.8,0.5-1.9,0.6-1.3,0.9c2.5,1,3.5,1.6,4,2.6
		c0.3,0.6,0.8,1.4,0.9,1.7c1.4,2.5-2.5,7.9-5.7,7.9c-1.8,0-2.2,2.1-0.9,4.6c0.8,1.6,1.5,2.2,1.2,1.1c-0.5-2-0.2-3.1,0.7-2.4
		c1.8,1.3,3.9,0.3,4.2-2c0.6-4.1,4.6-7.8,9.7-8.8c1.5-0.3,3.4-0.7,4.3-1c2.1-0.6,4.9-0.5,8.4,0.2c3.5,0.7,4,0.4,1.4-1
		c-3.1-1.6-4-2.9-5.1-8c-0.9-4-1.4-5.2-3.1-7.3C309.5,82.3,309.5,82.3,308.7,84 M241.1,84c11.1,4.2,15.6,4.6,23,2.2
		c4.8-1.6,5.3-1.9,1.5-1.1c-5,1.1-13.5,0.9-19.1-0.6c-2.5-0.7-4.3-1-5.7-1l-1.1,0L241.1,84 M335.8,85.7c-0.1,1.1-0.1,2.3-0.1,2.6
		c0.5,2.2,1.1,4.6,1.7,6.5c0.6,1.8,0.6,2.4,0.5,4c-0.4,4.4-1,8.3-1.5,9.2c-0.9,1.7-1.8,5.2-0.9,3.7c2.1-3.8,3.4-8.1,3.6-12l0.2-2.8
		l0.4,1.6c0.5,2.4,0.2,5.9-0.8,9c-0.4,1.4-0.8,2.5-0.7,2.6c0.5,0.5,2.8-6.3,2.8-8.4c0.1-2.7,0.3-3,1-1.4c1.3,3,0.4,9.1-1.8,12.8
		c-0.7,1.2-1.6,3.2-2,4.5c-0.4,1.3-0.9,2.9-1.2,3.6c-1.3,3.4-1.3,8.5-0.1,11c0.4,0.7,0.6,1,0.5,0.7c-1.1-4.3-0.8-7.7,1.1-12.5
		c1-2.4,4.1-8.3,4.3-8.1c0.1,0.1-0.3,0.9-0.8,1.8c-1.2,2.2-2.9,6.5-2.8,7c0.1,0.2,0.3-0.1,0.5-0.7c0.7-2.1,2.5-5.4,4-7.2
		c0.4-0.4,0.9-1.4,1.3-2.1c0.3-0.7,0.6-1,0.5-0.7c-0.2,0.8-0.8,2.1-2.6,5.5l-1.3,2.4l1-1.1c3.3-3.7,5.2-8,5.2-12.3
		c0-2,0-2.1,0.3-0.9c0.1,0.7,0.2,2.1,0.1,3.2c-0.2,2.8,0.5,1,0.8-2.1c0.5-5.2-1.5-8.9-6.5-12.6c-2.3-1.7-2.4-1.5-0.2,0.7
		c0.9,1,2.1,2.5,2.5,3.4c1.1,2.1,1.1,2.6,0,0.6c-1.1-2-1.4-2.3-4.1-4.8c-2.6-2.4-2.4-1.8,0.6,1.8c1.6,2,1.4,2.1-0.4,0.2
		c-1.9-2-3.4-4.9-4.1-8.1c-0.3-1.4-0.6-2.5-0.6-2.6C336,83.7,335.9,84.6,335.8,85.7 M92.4,84.4c-0.1,0.1,0.1,0.5,0.3,0.9
		c3.6,5.2,0.3,9.4-9.5,11.8c-1.7,0.4-3.8,1.1-4.7,1.4c-3.3,1.3-7.8,2-17,2.7c-7.2,0.5-8.9,0.7-7.9,0.9c0.4,0.1,1.6,0.1,2.5,0
		c1-0.1,2.9-0.2,4.4-0.2c4,0,9.9-0.5,12.4-1.1c14.2-3.1,17.1-4.2,20.6-7.4c1.6-1.5,1.8-1.6,1.4-0.9c-1.9,3.3-7.6,6.1-16.2,7.9
		c-3.6,0.8-4.9,1.2-3.6,1.2c0.7,0,7.3-1.3,9.4-1.9c0.6-0.2,1.4-0.3,1.7-0.4c1.4-0.3,3.4-1,4-1.4c0.4-0.3,1.7-1,3-1.7
		c5.2-2.8,5.8-7.9,1.2-10.8C92.8,84.2,92.7,84.1,92.4,84.4 M135.1,86.5c4.1,2,8.1,2.8,14.2,3c5.5,0.2,14.2,1.6,17.5,2.7
		c3.2,1.2,6.3,3.2,6.3,4.2c0,0.3,0.1,1,0.3,1.7c0.3,1,0.3,1.3,0,1.7c-0.2,0.3-0.3,0.7-0.3,0.9c0,0.2-0.3,0.9-0.6,1.6
		c-1,2.3,0.2,1.6,1.4-0.8c1.3-2.5,0.7-4.8-2-7.6l-1.6-1.7l1.2,0.8c3,2,4.4,4.4,4.2,7.4c-0.1,1.1,0,2,0.1,2c0.4,0,0.7-2.4,0.4-3.4
		c-0.1-0.5-0.3-1.4-0.4-1.8c-0.2-1.7-2-3.8-4-4.9c-0.4-0.2-1.2-0.6-1.7-1c-2.8-1.7-10.2-2.8-21.9-3.3c-6.2-0.3-9.3-0.7-12.5-1.9
		C132.8,85.4,132.6,85.4,135.1,86.5 M210.5,86.1c-1.2,0.3-3.7,0.6-5.5,0.7c-4.6,0.3-4.6,0.7,0,1.1c2.3,0.2,2.6,0.1,4.8-0.7
		C213.9,85.6,214.2,85.3,210.5,86.1 M89.7,87.5c-3,2.4-3.3,2.5-7.2,2.4c-3.7-0.1-5.5-0.4-7.1-1.2c-4.1-2.1-13.4-2.2-15.9-0.2
		c-0.6,0.5-0.2,0.5,1,0c2.8-1.1,9-0.4,14.1,1.5c6.4,2.4,12.1,2,15.3-1.1C92.2,86.8,92,85.6,89.7,87.5 M91.7,87.7
		c-0.1,3.3-2.4,5-8.1,6c-1.4,0.2-3.6,0.6-4.8,0.9c-1.5,0.3-4.8,0.5-10,0.6c-6.8,0.2-15.4,1.1-16,1.7C52.5,97.2,74,97,76.6,96.6
		c12.8-1.7,17.7-4.4,16.1-9C92.2,86.1,91.8,86.2,91.7,87.7 M264.6,92.2c-0.3,0.1-0.4,0.2-0.1,0.2c0.2,0,0.6-0.1,0.9-0.2
		c0.3-0.1,0.4-0.2,0.1-0.2C265.3,92,264.9,92.1,264.6,92.2 M50.8,92.8c-2.6,0.4-8.5,3.9-12.1,7.2c-1.3,1.1-5.2,10-5.2,11.6
		c0,0.5,1.1-1.4,2.1-3.8c2.2-5,4.6-8.3,6.8-9.4c0.6-0.3,0.8-0.4,0.5-0.2c-2.4,1.5-5,5.3-6.9,9.8c-0.6,1.4-1.5,3.3-2,4.3
		c-0.5,1-1.5,2.6-2,3.6l-1,1.9l0.8-0.8c1-0.9,1.9-2.5,2.7-4.5c3-7.9,5.7-11.5,10.5-13.7c6.7-3.1,11.1-3.9,23.4-4.2
		c5.9-0.1,9.1-0.4,9.1-0.9c0-0.1-1.2-0.1-2.6,0c-1.4,0.1-4.2,0-6.1-0.1c-1.9-0.1-3.7-0.3-4-0.3c-0.3,0-3.2-0.2-6.5-0.4
		c-3.3-0.2-6.1-0.4-6.1-0.3C52.1,92.6,51.5,92.7,50.8,92.8 M119.1,94.4c-1.8,0.6-3.9,1.8-3.9,2.2c0,0.4,0.7,0.2,3.1-0.7
		c3.5-1.4,6.2-0.7,9.9,2.4c3.1,2.6,5.2,2.8,2.5,0.3C125.7,93.9,123.3,93,119.1,94.4 M283.4,98c-5.8,3.4-7.1,7.2-4.2,12.6
		c2.8,5.4,3.2,8,3,19.2c-0.3,12.2,0.3,13,9,13.5c3.6,0.2,3.9,0,2.9-2.1c-1.2-2.6-2.4-3.2-8.2-4.1L285,137v-2.1
		c0-1.7,0.1-2.5,0.7-3.7c1.2-2.8,0.7-7.5-1-9.3c-2.2-2.4-0.2-9.9,3.6-13.5c2-1.8,2.1-2.4,0.9-2.5c-2.5-0.2-4.6-1.5-4.6-2.8
		c0-0.5,0-0.5,0.7,0.1c1.2,1.1,1.8,1.3,3.8,1.3l2,0l-1.4-0.5c-2.1-0.8-3.8-3.5-3.8-6C285.8,96.8,285.5,96.8,283.4,98 M287.1,97.8
		c-1.3,2.4,2.2,5.7,5.2,4.8c2.1-0.6,2.1-0.7,0.3-2.3C290.2,98,287.7,96.8,287.1,97.8 M121.4,98.4c-2.4,0.3-4.3,1.5-8.2,5.1
		c-2.5,2.3-4.1,3.6-5.7,4.5c-2.6,1.5-2.6,1.5-1.2,1.3c1.5-0.1,5.8-2.3,7.5-3.9c3.6-3.2,8-4.1,11.2-2.4c2.2,1.2,5.6,3.5,7.3,5
		c4.8,4.1,9.2,4.2,18.3,0.5c0.4-0.2,1.3-0.3,1.8-0.2c1.1,0.1,1.4-0.3,0.5-0.7c-0.8-0.4-2-0.3-4.1,0.4c-6.3,2.1-12,2.1-13.9-0.1
		l-0.5-0.6l1.4,0c0.8,0,1.7-0.1,2-0.2c0.6-0.2,0.8-0.9,0.3-0.9c-3.2-0.1-4.5-0.5-9.1-3.3c-3.4-2-5.4-2.8-7.2-2.9l-1.1,0l1.2-0.3
		c1.6-0.3,4.1,0.3,6.1,1.5c3.1,1.9,6.2,3.1,7.9,3.1c2.9,0,7.4-1.4,7.7-2.4c0.3-0.8,0-0.9-1-0.2c-1.2,0.9-3.5,1.5-6.1,1.7
		c-2.6,0.2-2.7-0.1-0.1-0.5c2.2-0.4,4.7-1.3,5.2-1.9c0.5-0.6-0.9-0.4-3.1,0.4c-3.6,1.3-6.4,1-9.6-1.1C126,98.5,124.4,98,121.4,98.4
		 M67.9,98.6l1.5,0.2l-1.6,0.1c-0.9,0-2.9,0.1-4.5,0C50.2,98.6,41.7,102,37.9,109c-0.9,1.7-1.1,2.7-0.5,2.7c0.1,0,0.3-0.4,0.4-0.8
		c0.4-1.9,4-6,6.6-7.6c3.1-1.8,8.3-2.8,16.4-3c11-0.3,17.2-1.6,8.9-1.8C67.8,98.5,67.1,98.5,67.9,98.6 M162.1,102.4
		c0,0.2,0.4,0.7,0.8,1.3c1,1.3,1.5,3.3,1.2,5.7c-0.2,2.3,0.3,3.5,2.3,5.6c3.3,3.4,10.6,3.4,19.4-0.1c4.6-1.8,7.1-2.4,11.1-2.6
		c3.5-0.2,3.7-0.2,3.1-0.6c-2-1.2-7.8-0.4-15.2,1.9c-6.2,2-11.9,2.7-14,1.7c-0.8-0.3-0.7-0.4,1.3-0.5c1.5-0.1,4.1-0.7,8.7-2
		c3.6-1,7-2,7.5-2.2s1-0.4,1-0.5c0-0.5-1.7-0.3-6,0.8c-7.7,1.9-11,2.4-13,2.2c-2.3-0.3-2.6-0.5-0.7-0.5c1.4,0,4.2-0.7,4.2-1
		c0-0.1-0.8-0.1-1.9-0.1c-4.4,0.2-6.4-1-6.4-3.8c0-1.7-0.5-3.2-1.4-4.1C163.4,102.7,162.1,102,162.1,102.4 M66.1,102.9
		c-5.5,0.7-12.4,4.3-12.4,6.4c0,0.8,0.4,0.6,1.1-0.3c1.9-2.6,7.2-4.9,12.5-5.5c4.2-0.4,5.5-0.9,2.4-0.9
		C68.7,102.7,67,102.8,66.1,102.9 M309.3,103.3c-1.5,0.7-1.6,1.2-0.4,1.7c0.4,0.2,1.2,0.8,1.9,1.5c2.9,2.7,5.9,2.8,8.5,0.3
		c1.3-1.2,1.1-1.6-0.8-2.5c-1.4-0.6-6.2-1.7-7.6-1.6C310.8,102.7,310.1,102.9,309.3,103.3 M55.7,104.6c-3.2,1.2-5.7,5-4.7,7
		c0.6,1.2,1,1.1,0.8-0.1c-0.3-2.3,1.6-4.7,4.8-6.2C59.3,104,58.6,103.4,55.7,104.6 M307.1,106.5c0,0.1,0.3,0.5,0.7,0.9
		c0.4,0.4,1.2,1.3,1.7,2c1.5,1.8,2.8,2.4,5.4,2.4c2,0,2.1,0,1.6,0.4c-0.4,0.3-1.3,0.4-3.1,0.4c-3.2,0-3.7-0.3-6.7-3.4
		c-2.2-2.3-3.7-3.1-3-1.6c0.1,0.3,0.3,2.1,0.4,4.1c0.3,6,2.9,8.3,9.4,8.3c4.2,0,9.1-6.8,9.1-12.7c0-1.2-0.2-1.2-1.2-0.2
		c-2.7,2.9-7.6,3.4-10.9,1.2C308.7,107.2,307.1,106.3,307.1,106.5 M228.9,107.9c-6.2,2.9-10.9,9.6-12.1,17.3
		c-0.2,1.3-0.5,2.1-0.9,2.5c-4.2,4.4-11.1,8-17.8,9.2c-7.1,1.3-13.2,1.5-18.3,0.5c-2.6-0.5-3.1-0.8-8.4-5.6c-4-3.5-6.4-4.9-9-5.2
		c-0.8-0.1-2-0.4-2.5-0.7c-1.3-0.6-6.2-1.1-8.6-0.9c-0.9,0.1-2.5,0.3-3.6,0.4c-4.6,0.5-10.2-0.4-14.2-2.4
		c-5.9-2.9-14.8-4.1-21.6-2.9c-0.8,0.1-2.4,0.3-3.5,0.4c-1.1,0.1-2.1,0.1-2.1,0.1c-0.1,0,0.8,0.4,1.9,0.9c2.1,0.9,7.6,4.7,8.8,6.1
		c0.4,0.5,0.7,0.7,0.7,0.6c0-0.5-1.5-2.9-2.6-4.2c-1.2-1.4-1.3-1.7-0.6-1.5c0.3,0.1,0.5,0,0.4-0.1c-0.9-1.5,15.7,2.4,17.3,4l0.6,0.6
		h-0.7c-0.4,0-2.2-0.2-4.1-0.5c-1.8-0.3-4.1-0.5-5-0.5l-1.6,0.1l-0.1,1c-0.1,1.3,2.2,4.8,4,6c6.9,4.6,19,5.1,21.7,0.7
		c0.5-0.7,0.9,0,0.7,1.2c-0.5,2.8,8.4,1.3,12.7-2.1c0.9-0.7,1.2-0.5,0.7,0.7c-2.5,5.9,3.1,11.6,11.8,12.1c3.3,0.2,3.2,0.3-0.9,2.2
		c-5,2.3-5.9,3.6-6.4,9.5c-0.5,5.7-1,8.3-2.4,10.5c-0.6,1-0.6,1.7,0.5,6c0.8,3.1,3.7-0.7,5.1-6.8c1.2-5.1,2.5-7.9,4.4-9.7
		c1-0.9,1-0.8,0.3,0.4c-0.9,1.5-1.6,4.2-2,7.8c-0.2,1.9-0.6,4.2-0.8,5c-0.5,2-0.5,2,0.2,1.4c1.3-1.1,2.9-3.7,4.1-6.6
		c2.9-7,4.7-8.9,11.7-12.9c3.9-2.2,7.2-4.5,7.7-5.2c0.5-0.8,0.7-0.6,0.4,0.5c-0.9,3.3-3,6.2-6.1,8.4c-3.8,2.7-6.1,7.3-7.6,14.8
		c-1.4,7.1-2.6,9.4-6.3,11.3c-2,1.1-5.7,1.2-6.5,0.3c-0.5-0.6-1.6-0.5-1.3,0.2c0.4,0.7,1.7,1.3,4.5,2.3c3.1,1,4,0.9,8.6-1.8
		c4.7-2.7,7.7-8.2,8.1-14.6c0.5-8.6,3-12.7,10.6-17.4c4.2-2.6,5.3-4.2,6.3-9.2c0.3-1.5,4.5-4.2,9-5.7c7-2.3,12.5-7.7,11.6-11.4
		c-0.3-1.4-2.2-3.8-3-3.8c-0.4,0-0.3-1.9,0.2-3.5c0.9-3,2.5-5.6,5.1-8.2c1.3-1.4,2.4-2.5,2.3-2.5
		C230.5,107.2,229.7,107.5,228.9,107.9 M331,111.7c-0.2,1.1-0.2,3.2,0.1,3.8c0.1,0.3,0.2-0.4,0.2-2.1
		C331.4,110.8,331.3,110.4,331,111.7 M53.1,112.5c1.1,2.2,0.2,3.4-3.6,4.6c-1.9,0.6-2.5,1-3.3,2.2c-0.6,1-0.1,0.9,0.7-0.1
		c0.7-0.8,2.2-1.5,3.2-1.6c3.3-0.1,5.3-3.1,3.5-5l-0.9-1L53.1,112.5 M286.1,116.3c-1.3,1.4-1.7,3.1-1.1,4.2c0.4,0.8,0.8,0.6,0.8-0.4
		c0-1.6,0.7-2.2,2.9-2.1c1.8,0,1.9,0,1.9-0.6C290.6,116.1,287.1,115.3,286.1,116.3 M296.2,117.8c-1,0.3-1,0.8-0.1,0.8
		c1.1,0,2.7,1,4.7,2.8c2.6,2.3,3.3,1,1.1-2.1C301,117.9,298.3,117.2,296.2,117.8 M27.5,119.4c-0.4,0.2-0.4,0.3-0.2,0.4
		c0.2,0.1,0.5,0,0.8-0.2C28.6,119.2,28.4,119.1,27.5,119.4 M288.5,120.7c-1.2,0.2-1.4,1-1.2,4.7c0.2,3.8,0.4,4,1,0.9
		c0.3-1.2,0.7-2.4,0.9-2.7c0.6-0.7,3.9-0.6,6.8,0.3l2.4,0.7l0.1,1.7c0,0.9-0.1,2.4-0.2,3.1c-0.6,2.7,1,1.9,2.6-1.3
		c0.4-0.8,0.8-1.5,0.8-1.6c0-0.1,0.5,0.2,1.1,0.6c2.8,1.9,3.4,1,0.8-1.4c-4-3.6-5.8-4.5-10.4-4.8c-1.8-0.1-3.5-0.3-3.7-0.4
		S288.8,120.6,288.5,120.7 M289.6,126.7c-0.4,0.5-1.4,4.2-1.3,4.5c0.2,0.3,1.5,0.3,2.1,0.1c0.7-0.3,0.5-4.4-0.3-4.7
		C290,126.5,289.7,126.6,289.6,126.7 M295.1,127.8c-1.3,2.1-1.2,4.2,0.1,4.2c1.4,0,1.8-1.4,1.1-3.9
		C296,126.7,295.8,126.6,295.1,127.8 M301.8,130.9c-2.1,1.6-3.8,2.4-5.6,2.5c-2.4,0.1-7.9-0.6-8.4-1c-1.1-1-1.7-0.3-1.1,1.4
		c0.6,1.7,1.3,1.9,3.1,1.3c1.6-0.5,2.3-0.4,3.7,0.7c1.1,0.9,2.1,1,3.4,0.4c0.8-0.4,6.6-5.5,6.8-6
		C304.1,129.5,303.1,129.9,301.8,130.9 M354.4,135.8c0,2.4,0.5,5.4,1.4,7.7c0.9,2.1,0.8,2.5-0.2,0.9c-0.7-1.1-0.9-1-0.7,0.5
		c0.1,0.7,1.7,3.5,2.7,4.5c0.8,0.9,1.4,2.9,1.7,5.6l0.2,1.6l0.3-1.1c0.8-2.6-0.1-6.8-2.4-11.2c-0.8-1.6-1.5-3-1.5-3.1
		c0-0.1-0.3-0.8-0.6-1.4c-0.4-0.8-0.6-2-0.8-3.5l-0.2-2.3L354.4,135.8 M353.3,137.8c0,0.4,0.1,1,0.2,1.3c0.3,0.9,0.3-0.1,0-1.2
		C353.3,137.3,353.3,137.3,353.3,137.8 M307,144.9c-0.6,0.5-1.3,1.5-1.7,2.2c-0.7,1.7-2.8,8.3-3.3,10.3l-0.3,1.6l-0.6-1.8
		c-0.5-1.4-0.6-2.6-0.7-5.4c-0.1-4.1-0.1-4-1.4-3.6c-0.6,0.2-1.3,0.4-1.8,0.5c-0.7,0.1-0.7,0.2-0.6,1.3c0.1,0.6,0.1,2.3-0.1,3.8
		l-0.2,2.7l-1.4-3.5c-0.8-1.9-1.5-3.8-1.6-4.2c-0.2-0.9-0.4-1-1.9-1.1c-0.7,0-1.7-0.2-2.3-0.4c-1.6-0.4-2.3-0.4-2.3,0.2
		c0,1.6-2.1,4.9-3.6,5.8c-1.3,0.8-1.4,1.3-0.1,1.4c1.1,0.1,2.9-0.9,3.8-2.2l0.6-0.9l1,2c4,8,11.3,14.9,17.4,16.4
		c5,1.2,5.6,0.1,2.4-4c-2.3-2.9-2.9-8.3-1.5-14.3c0.3-1.4,1.2-5.2,1.7-7C308.6,143.8,308.2,143.8,307,144.9 M150.7,145
		c-1.7,0.4-3.2,1.1-4.3,1.9c-0.7,0.5-2.2,1.4-3.3,2c-3.8,1.9-4.2,3-2.6,7.5c0.6,1.7,1.4,4.1,1.9,5.3c1.2,3.6,2.5,5.8,4.9,8
		c1.1,1.1,1.3,1.4,1.8,3.3c1.9,7.5,5.1,11.3,9.5,11.3c1.4,0,1.5-0.3,0.3-1.1c-2.7-1.7-4.7-5.2-4.9-8.7c-0.2-3.1-1.8-5.4-4.1-5.9
		c-0.7-0.2-1.5-1-1.5-1.6c0-0.9,3,0.1,5.5,1.8c1.1,0.8,2,1,2,0.6c0-0.4-1-1.6-3.2-3.9c-7.8-8.1-8.2-15.6-1.1-19.8
		C152.8,144.8,152.6,144.5,150.7,145 M255.2,145.1c-0.9,0.1-3.1,0.7-4.9,1.2c-1.8,0.5-4.6,1.3-6.1,1.6c-1.5,0.4-2.6,0.8-2.5,0.9
		c0.1,0.1,0.3,0.4,0.5,0.7c0.2,0.3,1,0.7,2.2,1.1c3.5,1.1,4.9,2.5,13.1,12.5c1.2,1.5,2.3,2.8,2.4,2.9c0.1,0.1,1.6,2,3.3,4.2
		c5.8,7.7,9.7,10.6,17.7,13.3c8.2,2.7,19,2.9,25.5,0.3c2.3-0.9,8.7,0.8,12.1,3.3c2.1,1.5,3.1,1.7,5.7,0.9c2.6-0.8,2.8-1.1,2.7-4.9
		c0-3.5-0.3-4.2-2.2-6c-2.7-2.5-4.6-3-7.6-1.7c-2,0.8-2.9,0.9-4,0.6c-1-0.3-0.7-0.6,0.8-0.8c3.4-0.4,5.9-6.4,3.6-8.7
		c-1.4-1.4-2.6-0.7-2.3,1.5c0.4,3.2-4.9,5.6-9.2,4.1c-7.2-2.5-13.2-6-18.7-11c-6.4-5.9-9-7.6-12.4-8.4c-1.5-0.4-2.3-0.8-3.9-2
		C263.7,145.3,260.7,144.2,255.2,145.1 M351.7,146.5c0,0.1,0.4,0.8,0.9,1.5c1,1.5,1.4,2.8,1.7,5.4l0.2,1.6l0-2
		c0-2.3-0.4-4.1-1.5-5.6C352.5,146.6,351.7,146,351.7,146.5 M234,149.4c-1,0.2-2.1,0.6-2.5,0.9c-0.9,0.6-1,1.6-0.2,1.5
		c2-0.3,2.5-0.1,6.3,1.7c7.5,3.7,14.3,9.2,17.2,13.9c2.1,3.4,3.3,4.9,6,7.5c2.5,2.5,2.4,2.6-0.5,0.4c-1.9-1.4-4.4-3.9-7.2-7.1
		c-2.2-2.5-2.7-2.9-2.7-2.2c0,0.6,3.4,5.4,5.3,7.5c3.2,3.5,9.1,7.7,15.1,10.6c4.4,2.2,8.9,4.5,8.3,4.4c-0.3-0.1-1.7-0.3-3.1-0.6
		c-5.5-0.9-14-5.6-18.2-9.9c-2.9-3.1-7.5-8.5-8-9.6c-5-11.2-20-18.6-26-12.9c-0.7,0.7-0.4,1,1.4,1.2c0.8,0.1,2.2,0.4,3,0.6
		c0.8,0.2,2.4,0.6,3.6,0.8c5.3,1,8.9,3.3,12.9,8.4c5.7,7.1,13,15,15.6,16.8c0.7,0.5,1.9,1.3,2.5,1.8c2.4,1.8,6.1,3.4,11,4.7
		c5.4,1.5,8.9,2.1,20.5,3.7c2.6,0.4,5.9,0.8,7.4,1.1c6.4,0.9,17.9,1.2,23.5,0.5c2.4-0.3,5.1-3.2,5.1-5.5v-0.7l-0.7,0.8
		c-1.6,1.9-4.3,2.9-7.6,2.9c-1.1,0-3,0.1-4.1,0.3c-1.4,0.2-2.1,0.2-2.3,0c-0.2-0.2-2.7-0.6-5.7-1c-2.9-0.4-6.6-0.9-8.1-1.2
		c-1.5-0.3-4.3-0.7-6.1-0.9c-9.6-1.2-13.2-2.3-22.8-7.1c-3.9-1.9-11.5-9.6-15.3-15.2c-4.3-6.5-15.6-16.8-19.6-17.8
		C236.1,149.1,235.9,149.1,234,149.4 M160.7,156.7c-0.1,0.1-0.2,0.4-0.2,0.7c0,0.4,0.1,0.5,0.3,0.3c0.2-0.2,0.3-0.5,0.2-0.7
		C160.9,156.7,160.8,156.6,160.7,156.7 M276.6,157.3c1.9,0.9,4.5,2.8,7.6,5.6c8.5,7.7,13,10.7,16.1,10.7c2.3,0,2.4,0,1,0.6
		c-1.2,0.5-2.1,0.5-4.4,0c-4-0.9-5.9-2.4-17-12.6c-2-1.8-4.1-3.6-4.6-4C273.5,156.3,274.2,156.1,276.6,157.3 M218,158.4
		c-0.6,0.1-1,0.3-1,0.5s0.4,0.3,1,0.5c2.5,0.9,6.5,3.6,7.8,5.4c1.1,1.5,1,2-0.1,0.8c-1.2-1.3-2.8-2.3-2.4-1.5
		c2.8,6.8,3.5,11,2.5,15.6c-1.7,8.6-4.5,15.2-9.2,22.2c-2.7,4.1-2.8,4.2-0.7,2.2c5.4-5.3,11.9-17.8,13-25.3c0.5-3.3,0.8-3.3,0.8,0.3
		c0,12.1-2.8,18.3-12.2,27.4c-2.4,2.3-3.2,3.4-2.6,3.4c0.1,0,1.4-0.9,2.9-1.9c7.8-5.6,12.7-13.1,15.2-23.5
		C236.2,172,226.9,156.1,218,158.4 M232,161.8c5.3,7.8,6,21.2,1.7,30c-1.2,2.4-1.2,2.5-0.7,2.5c0.8,0,3.3-4.5,4.3-7.7l0.6-2l0,1.6
		c0,2.9-1.3,6.5-3.5,9.4c-2.2,2.9-1.4,3.1,1.1,0.3c3.2-3.6,4.9-8.3,4.9-14c0-1.8,0-3.2,0.1-3.2c0.2,0.3,2,6.2,2.3,7.6
		c0.5,2.5,0.2,5.2-0.8,7.3c-0.5,1-0.8,1.8-0.8,1.9c0,0,1.3,0.1,2.9,0.1c7.8,0,18.4,9.4,22,19.6c2.3,6.5,8.2,12.8,13.8,14.6
		c5.3,1.7,18.9,1.3,23.3-0.7c4-1.8,11.5-4.1,14.8-4.5c2.7-0.4,1.5,0.4-5.3,3.3c-2,0.9-3.8,1.7-4.1,1.9c-1,0.6,2.1,0.4,3.8-0.2
		c2.6-0.9,6.8-1.9,8.2-1.9c1.9,0,1.1,0.5-3.4,2c-2.3,0.8-2.1,1.7,0.4,1.3c1-0.2,1-0.2,1,0.6c0,1,1.8,2,5,2.6
		c2.6,0.5,3.2,0.3,5.4-1.7c0.7-0.7,1.3-1.2,1.3-1.1c0,0.7-1.5,4.4-2,5.1c-1.5,2-0.6,2.2,1.8,0.3c2.4-1.8,3.7-3.3,5.1-5.4
		c1.3-2.1,1.4-2.1,0.5-0.1c-1.9,4.2-3.5,6.1-12.1,13.4c-5.7,4.9-7.1,6.2-6.9,6.5c0.1,0.1,1-0.6,2-1.5c1.9-1.7,2.7-2.3,5-3.6
		c11.7-6.5,16-10.4,18.5-16.8c3.4-8.4,1.1-20-5.3-27.6l-0.5-0.6l-1.5,0.7c-2.3,1.1-2.9,1-1.5-0.5c1.8-1.8,1.9-4,0.2-5.9l-0.8-1
		l-0.5,0.8c-0.3,0.5-0.9,1-1.4,1.2c-0.5,0.2-1.1,0.7-1.4,1c-0.8,0.8-3.3,1.3-4.6,1c-0.6-0.1-3.5-0.3-6.6-0.4
		c-10.3-0.3-15.8-0.7-19-1.3c-1.1-0.2-3.1-0.6-4.4-0.8c-1.3-0.2-4-0.6-6-0.9c-9.6-1.5-15.4-3.3-23.6-7.4l-5.3-2.6l-3.9-3.6
		c-2.1-2-4.9-4.9-6.2-6.4c-3.1-3.8-5.6-6.4-6.2-6.4c-0.7,0-0.6,0.3,0.4,1.6c2.7,3.6,5.2,7.2,5,7.2c-0.5,0-4.3-3.8-6.1-6.1
		c-3.8-4.8-10.5-11-11.9-11C231.2,160.5,231.6,161.1,232,161.8 M205.4,161.4c-0.5,0.4-0.5,0.4,0.3,0.7c6.2,2.5,7.9,6.9,6,15.5
		c-2.2,10.2-7.5,17.6-15.8,22.1c-2.4,1.3-2.5,1.3-8.3,2.6c-2.3,0.5-4.5,1-4.9,1.2c-0.8,0.3-8,1.6-9.2,1.6c-3,0-11.2,3.5-13.1,5.6
		c-0.3,0.3-0.7,0.6-0.8,0.6s-0.5,0.2-0.7,0.4c-0.2,0.2,0.8-0.1,2.1-0.8c2.2-1.1,7.3-3.2,9.1-3.7c0.8-0.3,0.8,0-0.1,0.5
		c-0.4,0.2-2.8,1.4-5.3,2.7c-6.2,3.1-6.5,3.5-5.3,4.9c0,0,0.7-0.3,1.5-0.8c2-1.3,5.1-2.8,9-4.5c4.7-2,5.5-2.2,13.3-4.3
		c3.9-1,7.3-1.9,7.6-2c0.3-0.1-0.3,0.3-1.3,0.8c-1,0.5-4,1.5-6.5,2.3c-7.1,2.1-15.2,5.5-20.7,8.8c-2.2,1.3-2.2,1.2-1.2,2.4
		c1.5,1.8,2.3,1.6,7.4-1.7c3.4-2.2,6.2-3.3,13.1-5.4c5.1-1.5,8.6-3.1,14.5-6.5c4.5-2.6,5.1-3.1,9.8-7.9l3.8-3.9l1.8-3.7
		c5.6-11.4,5.8-20.2,0.6-25.3C210.4,161.8,206.4,160.6,205.4,161.4 M138.9,164.7c-0.2,0.4-0.9,1.6-1.6,2.7c-0.7,1.1-1.3,2.1-1.3,2.2
		c0,0.1-0.6,1.3-1.4,2.6l-1.4,2.4l0.1,2.8c0.2,3.7,3.3,12.6,4,11.4c0-0.1,0.3-0.6,0.6-1.1c0.9-1.7,2-2.4,3.9-2.4l1.7,0l-0.1-1.8
		c-0.1-3-1.5-7.3-3.1-9.4c-0.9-1.2-2.1-3.6-2-3.9c0.1-0.2,0.3,0.1,0.5,0.6c0.2,0.5,0.6,1.1,0.9,1.3c0.5,0.4,0.5,0.4,0-0.4l-0.5-0.8
		l0.8,0.8c1.5,1.7,3.3,2.5,3.6,1.6c0.1-0.2-0.8-2.2-2-4.4c-1.2-2.3-2.1-4.3-2.1-4.5C139.7,163.7,139.2,163.9,138.9,164.7
		 M218.4,164.8c-0.1,0.1,0.1,0.7,0.4,1.2c1.8,2.9,2.2,6.9,1.3,11c-1.6,6.5-2.8,11.1-3.3,12.2c-1.1,2.3-2,2.9-1.2,0.7
		c0.5-1.3,1.5-5.7,2.2-8.9c0.6-3,0.6-10.6-0.1-10c-0.1,0.1-0.3,1.9-0.7,4c-1.3,9-2.5,12.9-6.1,19.1c-2.4,4.1-5.4,7.5-9.7,10.9
		c-1.4,1.1-3,2.4-3.5,2.9c-1.3,1.2-5.8,3.2-10.5,4.8c-8.3,2.6-9.9,3.3-12.6,5.5c-1.4,1.1-1.7,1.8-0.4,0.8c2.5-1.8,7.1-3.6,10.5-4.2
		c14.6-2.5,28.9-12.8,33.5-24.1c4.1-9.9,5-16.7,3.3-22.2C220.7,166.1,219,163.9,218.4,164.8 M204.7,166.8c-0.2,0.1-1.1,0.4-2,0.8
		c-1.1,0.4-2.2,0.6-3.3,0.6c-1.5,0-2.3,0.3-2.3,0.8c0,0.2,3.8,2.6,4.2,2.6c0.2,0,0.9,0.4,1.6,0.9c3.3,2.2,4.1,2,4.1-1.3
		C206.9,167.4,206.3,166.3,204.7,166.8 M337.3,168.9c0,0.4,0.1,0.6,0.2,0.5c0.1-0.1,0.2-0.4,0.1-0.7
		C337.4,168,337.3,168.1,337.3,168.9 M194.9,174.8c0,0.3,2.5,1.5,3.3,1.5c0.2,0,1.3,0.6,2.6,1.3c1.2,0.7,2.3,1.3,2.3,1.3
		c0,0,0.8,0.5,1.8,1.1l1.7,1.1l0.4-1.1c0.5-1.5,0.4-1.5-3.8-3.4C198.7,174.6,194.9,173.7,194.9,174.8 M257,188.6
		c3.1,2.2,12.7,12.2,11.7,12.2c-0.1,0-1.4-1.1-2.9-2.4c-1.5-1.3-3.4-2.9-4.2-3.5c-1.7-1.3-9.6-8.9-9.9-9.6
		C251.4,184.8,253.3,185.9,257,188.6 M150.8,185.8c-0.1,0.1-0.2,1.8-0.2,3.9v3.7l1.7,3.4c2,3.9,2,4.6,0.4,4.6c-1.5,0-1.5,0.4,0,1.9
		l1.4,1.4l-0.1,2c-0.2,3.1,0.1,3.4,1.9,1.6c3.6-3.7,3.5-7-0.1-12.4c-2.1-3.1-3.6-6.4-4.3-9.2C151.3,185.8,151,185.5,150.8,185.8
		 M140.4,188.3c-2.3,1.8,3.7,8.5,9.4,10.4c2.4,0.8,2.4,0.7-0.1-1.8c-2.6-2.7-3.9-4.6-4.7-6.8C144.1,187.7,142.1,186.9,140.4,188.3
		 M186.3,190.2c-0.7,3.4-3.6,7.1-6.5,8.1c-4,1.4-3.1,1.8,1.7,0.6c5.3-1.3,7.5-3,9.4-6.6l0.8-1.6l-0.6-0.4c-1-0.7-1.5-0.5-1.9,0.7
		c-0.2,0.6-0.7,1.5-1.1,1.9l-0.6,0.8l0.6-2.2c0.6-2.2,0.6-2.2,0-2.6C187,188.1,186.7,188.4,186.3,190.2 M256.4,195.2
		c2.2,1.3,8.6,7.6,9.7,9.6c1.8,3.2,1.1,2.8-3.3-1.8c-2.4-2.5-5.5-5.7-7-7.2c-1.5-1.5-2.4-2.5-2-2.2
		C254.2,193.8,255.3,194.6,256.4,195.2 M297.8,199.8c2,0.2,5,0.4,6.8,0.4c1.8,0,4.5,0.2,6.1,0.4c3.5,0.5,11.6,1.2,14,1.2
		c1.6,0,1.7,0.1,0.9,0.3c-0.5,0.2-4.5,0.3-12.3,0.3c-12.6,0-16-0.3-20.6-2.2C289.3,199,289.7,199,297.8,199.8 M242.6,202.6
		c-3.9,1-10,3.7-13.9,6.3c-9.9,6.4-25.7,22-25.6,25.4c0,0.4,0,0.4,0.4-0.1c7.6-10.1,17.9-18.4,31.1-25c5-2.5,6.8-3.2,8.2-3.5
		c5.7-0.9,13.5,1.6,17.6,5.5c2.1,2,2.6,2.2,2.3,0.7c-0.1-0.8-0.6-1.4-2.2-2.9c-3.7-3.5-5.5-4.6-9.9-6.1
		C249.2,202.5,243.9,202.3,242.6,202.6 M149.4,204.5c-1.1,1.2-1.4,5.9-0.5,8.9c1,3.3,3.7,6.5,6.6,8.1c3,1.6,3.4,1.1,1.1-1.4
		c-3.5-3.6-5.1-8.7-4.2-12.9C153,204.7,150.9,202.8,149.4,204.5 M307.9,206.3c5.3,0.1,15,1.2,15.9,1.7c1.4,0.8-14.7,0.9-19.3,0.1
		c-5.6-1-8.2-2.4-3.7-2C301.7,206.1,304.9,206.2,307.9,206.3 M142.2,214.5c-2.6,1.9-3.5,3-4.6,5.3c-8.7,17.9-10.3,20.3-16.3,24.8
		c-3.2,2.3,1.3,0.4,5.3-2.2c6-4.1,9.6-8.3,12.1-14.4c1.8-4.3,2.8-6.1,4.7-8.2c0.8-0.9,1.4-1.7,1.3-1.8c-0.5-0.5-5.2,5.2-7.3,8.9
		c-3.9,6.8-4.2,7.2-2.3,2.5c2.1-5,4.7-9.2,7.4-11.9c1.4-1.4,1.7-1.8,1.7-2.6C144.2,213.3,143.9,213.3,142.2,214.5 M215.2,215
		c-9.4,5.7-16.5,12.1-19.1,17.3c-0.3,0.7-1.5,2.8-2.7,4.7s-2.5,4.2-2.9,5.2c-1.1,2.2-2.9,4.1-5.5,5.7c-3.6,2.3-3.8,2.4-12.4,4.3
		c-6.4,1.4-12.4,4.4-12.8,6.3c-0.1,0.7,0.5,0.6,1.6-0.5c2-1.8,8.3-4,15-5.2c5.7-1,8-2,10.7-4.6c2.4-2.3,2.2-1.5-0.3,1
		c-1.7,1.7-2.5,2.3-4.3,3.2c-2.4,1.2-2.3,1.3,0.5,0.7c3.2-0.7,5.5-2.4,8.1-5.7c1.7-2.2,1.9-2.4,4.4-7.2c0.8-1.5,1.7-3.2,2.1-3.8
		c0.4-0.6,0.6-1.1,0.6-1.2c0-1.2,8.6-12.2,12.4-15.9c0.9-0.9,2.7-2.4,4.1-3.4c2.2-1.6,2.7-2.1,2.4-2.1
		C217.1,213.8,216.3,214.4,215.2,215 M318.7,214.4c0.6,1-9.2,1.7-12.2,0.9c-3.9-1-3.7-1.1,4.4-1.1
		C316.2,214.1,318.6,214.2,318.7,214.4 M205.1,215.7c-8.1,4.2-15.1,11.6-17.8,18.7c-2.3,6.2-6.2,10.8-12,14.3
		c-2.1,1.2-1.7,1.5,0.9,0.7c6.4-1.9,9.8-5.7,13-14.6c2.7-7.5,8.9-14.5,16.5-18.8c0.9-0.5,1.7-1,1.7-1.1
		C207.4,214.7,206.6,215,205.1,215.7 M241.3,216.1c3.7,3.8,5.5,14.1,3.4,20.1c-1,3-5.3,10.4-5.3,9.1c0-0.1,0.7-1.6,1.5-3.3
		c3.9-8.1,3.9-16.9,0-21c-1.1-1.2-1.9-0.9-0.9,0.4c0.8,1.1,1.6,3.7,1.9,6.7c0.4,3.8,0.2,4-0.8,0.9c-1.9-6-7-11.5-9.9-10.8
		c-0.8,0.2-0.5,0.5,1.1,1.6c1.7,1.1,4.1,4.2,5.3,6.6c2.7,5.5,2.1,16.5-1.2,21.2c-4.1,6-4.2,6.3-0.2,3.8c6.8-4.2,10.8-10.9,11.6-19.5
		c0.6-6.1,0.3-8.4-1.6-11.6c-1.5-2.5-1.7-2.8-3.5-4.3C240.5,214.6,239.7,214.5,241.3,216.1 M313.3,218.6l10.5,0.2l-3.6,1.2
		c-2,0.6-4.4,1.5-5.5,2c-3.7,1.5-9.3,3.6-9.5,3.5c-0.3-0.3,4-3,6.5-4.1c1.7-0.7,1.9-0.7-3.8-1.3c-4.2-0.5-5.8-0.8-9.1-1.8
		c-1.3-0.4-0.2-0.5,1.8-0.2C302,218.3,306.7,218.5,313.3,218.6 M189.9,219c-1.2,1.3-2.7,4-4.3,7.7c-3.4,7.7-3.8,8.6-6,11.2
		c-3.2,3.9-5.4,5.7-10.7,8.7c-3.7,2.1-3.9,2-0.4-0.5c6.2-4.5,7.7-6.5,10.4-14.2c1.6-4.7,2.8-7,4.4-8.8c1.7-1.9,2-2.6,0.7-1.5
		c-2.8,2.2-5.2,5.6-7.8,11.2c-1.1,2.3-2.2,4.5-2.5,4.9c-1.2,1.8-4.2,5.1-5.1,5.7c-0.6,0.3-1.8,1.1-2.8,1.6
		c-2.9,1.7-10.8,9.1-15.1,14.1c-3.8,4.4-7.4,7.1-10.9,8c-2.5,0.7-2.7,0.8-2.1,1.3c0.9,0.7,4.5,0.1,7.7-1.1l1.1-0.4l-0.5,0.6
		c-1.9,2.1-5.9,3.4-9.3,3c-2.8-0.3-3.4-0.1-2.5,0.8c1.2,1.2,6.8,1.6,9.5,0.7c3.6-1.2,5.8-3.3,8.9-8.6c3.1-5.3,9.2-10.5,17.2-15
		c7.5-4.1,13.3-10.9,16.1-19.1c0.5-1.5,1.8-4.5,2.8-6.6C190.6,218.8,190.9,217.9,189.9,219 M176.5,221.8c-3.3,2.2-5.4,4.6-7.8,9.3
		c-2.1,4.1-5.2,8.2-7.5,9.7c-0.7,0.5-1.9,1.4-2.7,2.1c-2.5,2.2-3.2,2.3-1.3,0.2c1.6-1.8,3-4.4,4.1-7.3c1.2-3.6,1.7-4.5,2.8-6.2
		c0.5-0.8,0.9-1.5,0.8-1.6c-0.3-0.3-2.4,2-4.1,4.7c-6.2,9.5-12.4,14.8-20,16.9c-1.6,0.5-2.7,0.9-8.8,3.8c-4.3,2-11.6,7.5-11.6,8.7
		c0,0.4,3.1-1.5,6.4-3.9c1.2-0.9,5.8-3.2,6-3c0.1,0.1-1,0.9-2.4,1.9c-2.7,1.9-7,5.8-10.1,9.1c-1.1,1.2-3.3,3.1-4.9,4.3
		c-1.6,1.2-2.7,2.2-2.5,2.2c0.5,0.2,5.1-2.2,6.8-3.6c3.6-2.8,8.1-6.7,10.6-9.3c2.8-2.8,4.4-4.1,7.9-6c2.3-1.2,3-1.3,1.2-0.1
		c-4.7,3-7.5,5.8-12.7,12.3c-3.4,4.3-8,7.1-13.2,8.2c-1.2,0.3-0.3,0.7,1.5,0.7c4.6,0,9.8-3.1,13.3-7.9c2-2.7,2.2-2.8,0.9-0.4
		c-1.7,3.2-5.3,7.1-7.8,8.3c-1.1,0.5-1.1,0.9-0.1,0.7c1.9-0.5,5.6-2.8,7.2-4.6c1-1.1,4.3-5.2,5.5-6.8c0.4-0.6,1.5-1.8,2.4-2.8
		s2-2.2,2.4-2.7c2-2.7,7.6-6.3,13.1-8.5c3.7-1.4,11.6-7.6,14-10.7c1.4-1.9,2.9-4.5,4.7-8.2c2-4.1,4.1-7.2,6-8.9
		c0.9-0.8,1.5-1.5,1.5-1.5C178.2,220.8,177.4,221.3,176.5,221.8 M248.7,222.4c0,0.1,0.2,0.7,0.4,1.3c1.8,5.1,1.5,10.4-1,17.9
		c-2.5,7.6-4,9.3-10.8,12.7c-7.8,3.9-13.1,5.7-26.2,9.1c-1.1,0.3-2.2,0.6-2.5,0.8c-0.3,0.2-2.8,1.2-5.6,2.3
		c-5.4,2.1-11.8,5.5-13,6.8c-0.1,0.1-1.4,1.2-2.9,2.4c-3.6,2.9-9.6,8.7-9.6,9.4c0,0.4,0.4,0.2,1.9-1.1c1.1-0.9,2.7-2.1,3.7-2.7
		c1-0.6,3.3-2.3,5.2-3.8c5.3-3.9,9-6,14.9-8.5c4.4-1.8,2.9-0.7-2.8,2.1c-3.5,1.7-6.1,3.4-8,5.1c-1,0.8-2.9,2.4-4.4,3.5
		c-2.8,2.2-4.1,3.3-3.8,3.6c0.2,0.2,0.2,0.2,7.1-4.7c3.6-2.6,7.2-4.5,11.7-6.4c2.1-0.9,4.8-2,5.9-2.5c2.1-1,5.8-2.2,6-2
		c0.1,0.1-0.8,0.5-1.8,0.9c-6.3,2.5-12.3,5.4-15.9,7.9c-4.7,3.2-4.3,3.2,1.9,0.1c4.4-2.2,7.4-3.5,11.1-4.8c2.8-1,7-2.4,9.3-3.3
		c2.3-0.8,6-2.1,8.1-2.8c4-1.4,4.6-1.6,10-4.5c6.4-3.3,11.9-8.1,13.9-12.1c1.4-2.6-0.2,3.8-2,8.2c-2.1,5.2-5.6,10-11.3,15.6
		c-8.5,8.4-0.1,2.9,9.5-6.2c9.1-8.6,14.5-20.4,11.9-25.9c-0.4-0.8-0.7-1.6-0.7-1.6s-0.2-0.6-0.4-1.2l-0.4-1l-0.3,3.6
		c-0.3,3.5-1,6.7-1.5,7.5c-0.2,0.3-0.2,0-0.1-0.8c1-8.3,0.1-14.7-2.1-16.6c-0.4-0.4-0.4-0.3-0.3,1.1c0.2,1.7-0.1,5.3-0.4,4.8
		c-0.1-0.2-0.2-1-0.2-1.7c0-2.8-2.4-10.2-3.9-12C249,222.6,248.7,222.3,248.7,222.4 M149.7,224.7c-0.1,0.3-0.2,1-0.3,1.7
		c-0.3,2.3-2.9,6.8-5.8,10.2c-1.8,2.1-9.1,6.8-13.5,8.7c-1.3,0.6-3.2,1.4-4.4,2c-2.2,1.1-4.6,1.7-15.3,3.9c-1.3,0.3-3.9,0.6-5.6,0.8
		c-3.3,0.3-7.1,1.3-13.7,3.8c-1.1,0.4-2.9,1-4.1,1.3c-5.3,1.4-12.6,6.4-14.9,10.4c-3.3,5.4-2.8,12.1,1.2,18
		c5.8,8.5,11.9,9.6,13.8,2.3c0.3-1.2,0.9-3,1.4-4c1-2.1,1-2.1,0.1-1.5c-0.4,0.3-1.2,1.3-1.9,2.4c-1.5,2.3-1.7,2.3-1.7-0.4
		c0-10.3,8.9-22.3,18.4-24.7c2.3-0.6,2.6-1.2,0.6-1.2c-2.4,0-7.4,2.4-9.9,4.6c-0.5,0.5-1.6,1.4-2.5,2c-2.2,1.6-3.6,3.7-5.9,8.4
		c-1.1,2.2-2,3.8-2,3.6c0-0.8,0.9-3.7,1.9-6c1.3-2.9,1.2-3-0.3-0.9c-1.5,2-2.2,3.4-3.3,6.5L81,279l0.2-2c0.3-3.9,3.3-10.8,5.6-12.9
		c2.3-2.1,9.1-5.5,12.2-6.2c0.5-0.1,2.2-0.4,3.7-0.7c5.9-1.1,16.5-3.4,16.2-3.6c-0.2-0.2-14.3,2-18.2,2.8
		c-8.4,1.7-13.6,4.5-20.9,11.2c-1.3,1.2-2.4,2.2-2.4,2.1c0-0.5,3.4-4.4,5.1-5.8c7.1-6.2,14.6-9,29.6-11.2c7.5-1.1,20.3-4.1,23.3-5.4
		c1-0.5,3.1-1.3,4.6-2c2.8-1.2,6.8-3.6,7.4-4.4c0.2-0.3,1.3-1.6,2.6-2.9c2.8-3,4.1-4.8,4.8-6.7c0.3-0.8,0.8-1.6,1.1-1.9
		c0.6-0.4,0.6-0.5-0.7-1.6c-1.6-1.4-1.4-1.4-2.5,0.7c-3.3,6.7-9.9,13.2-15.7,15.4c-1.1,0.4-1,0.4,1.5-1.2
		c5.3-3.4,10.1-9.2,12.7-15.2l0.9-2.2l-0.6-0.6C150.7,224.1,149.9,224.1,149.7,224.7 M307.1,239.6c-0.4,0.2-1.5,0.7-2.5,1.1
		c-2.4,0.9-5,2.4-9.6,5.4c-6.6,4.3-14,11.7-20.2,20.2c-1.5,2.1-4.6,6.2-6.9,9.1c-2.3,3-4.7,6.2-5.4,7.2c-0.7,1-2.2,3.1-3.3,4.7
		c-1.1,1.6-2.5,3.7-3.1,4.6c-3,5-12.4,15.7-19.7,22.6c-3.8,3.6-4.7,4.3-2.8,2c5.4-6.3,12-16.9,17.7-28.3c4.8-9.5,5.8-11.2,9.6-16.8
		c3.5-5,4.1-5.9,4.9-7.5c2.1-4.1,15.3-15.1,25.5-21.1c1.8-1.1,2.5-1.6,2-1.6c-0.4,0-9.7,5-11.3,6.2c-9.2,6.2-18.7,15.4-24.9,24.1
		c-2.6,3.7-2.8,3.8-1.7,1.3c3.4-7.5,15.1-20.2,25.7-27.8c2.2-1.6,2.2-1.7,0.1-1.1c-11.9,3.6-32.6,28.4-36.3,43.4
		c-0.9,3.7-11.2,20.3-17.1,27.7c-3.5,4.3-9.2,10.8-10.9,12.5c-6.9,6.5-11.5,10.5-14.4,12.6c-3.2,2.4-5.5,4.7-11.1,11.1
		c-3,3.4-8.3,11.5-7.9,12c0.2,0.2,0.5-0.2,2.1-2.8c3-4.8,8-9.7,14.9-14.6c8.7-6.1,16.6-12.6,19.8-16.1c1.9-2.1,3.6-3.5,3.6-3.2
		c0,0.1-0.8,1.1-1.7,2.2c-0.9,1.1-1.7,2.1-1.6,2.2c0.1,0.2-0.6,1.2-1.5,2.2c-0.9,1-1.6,2-1.6,2.1c0,0.3-0.2,0.4,3.1-1.6
		c2.9-1.8,8.3-4.5,8.5-4.3c0.1,0.1-0.9,0.7-2.1,1.4c-7.3,4.1-15,10.5-20.9,17.5l-1.5,1.7l2.1-2c10.7-10.1,21.6-16.4,36.7-21.3
		c4.9-1.6,11-4.5,13.9-6.6c1.1-0.8,5.1-3.9,5.9-4.6c0.6-0.6-0.2-0.5-1.8,0.2c-6,2.5-16.4,6.2-16.7,5.9c0,0,1.6-0.9,3.6-1.9
		c9.9-4.9,19.9-13,27.2-21.9c3.3-4.1,2-3-12.1,9.2c-7,6-8.1,6.8-18.2,11.4c-2.1,1-4.3,2-4.9,2.3c-0.6,0.3-1.1,0.5-1.2,0.5
		c-0.3,0,5-3.4,6.3-4c3.7-1.8,12.8-8.7,12.8-9.7c0-0.6-0.6-0.4-2.6,1c-2.9,2.1-5.5,3.7-8.7,5.4c-4.3,2.3-4.1,1.8,0.9-1.7
		c2.3-1.6,7.1-5.8,11.6-10c2.1-1.9,4.8-4.4,6-5.5c3.3-2.9,7.7-7.4,10.9-11.1c1.5-1.8,3.9-4.3,5.2-5.7c4.4-4.6,8.5-9.9,10.8-14
		c1.1-2.1,0.6-1.6-2.5,2.5c-1.4,1.8-3.9,4.7-5.6,6.5c-1.7,1.8-3.1,3.3-3.1,3.5c-0.1,0.4-5.4,5-5.7,5c-0.1,0,0.5-0.8,1.4-1.8
		c1.6-1.7,7.2-8.5,9.5-11.5c1.9-2.5,5.7-8.5,6.4-9.9c0.3-0.8,1.2-2.1,2-3.1c1.5-1.8,1.6-2.2,0.9-2.2c-0.6,0-3.3,3-5.5,6.2
		c-0.9,1.3-2.3,3.1-3.1,4c-0.7,0.8-3,3.6-5,6.1c-7.5,9.5-14.1,16.8-17.3,19.2l-1.1,0.8l1-1c0.5-0.6,1.9-2,3-3.2
		c3.1-3.3,10.8-13,14.8-18.7c1.5-2.2,7.3-9.5,8.5-10.7c1.4-1.5,0.6-1.3-1.9,0.5c-3.2,2.3-6.4,4.9-9.5,8c-1.4,1.4-2.6,2.5-2.6,2.4
		c0-0.1,1.9-2.8,3.9-5.4c5.5-7.3,13.2-14.3,20.9-19.2c4.2-2.6,6.6-4.3,6.6-4.5C308.5,239.1,307.9,239.2,307.1,239.6 M131,240.9
		l-0.8,0.7l0.9-0.6c0.5-0.3,0.9-0.6,0.9-0.7C131.9,240.2,131.8,240.2,131,240.9 M323.6,252.3c-1.1,0.7-1.3,0.9-1.3,1.8
		c0,0.6-0.2,2-0.4,3.1c-0.6,3.4-1.4,9.1-1.6,11.7c-0.1,1.3-0.4,3.8-0.7,5.6c-1.8,11.8-1.3,27.4,1.1,32.9c0.5,1.2,1.3,1.6,1,0.5
		c-0.9-3.2-0.7-19,0.2-25.8c0.2-1.4,0.7-4.8,1.1-7.5c0.4-2.7,1-7.2,1.4-9.9c0.4-2.7,0.8-5.2,0.9-5.5c0.3-0.7,0.2-7.7-0.2-7.8
		C325,251.5,324.3,251.8,323.6,252.3 M327.3,258.7c-0.1,0.8-0.5,2.8-1,4.5c-0.8,3.3-0.9,4.5-0.5,6.7c1,5.4,1.6,10.6,2,18
		c0.7,14.9,1.9,25,2.4,21.2c0.4-2.8,3.6-14.7,4.2-15.3c0.2-0.2,0.2,0,0.1,0.4c-0.1,0.4-0.2,1.1-0.3,1.7c-0.1,0.6-0.7,3.7-1.4,6.8
		c-1.1,5.2-1.9,11.6-1.6,11.9c0.8,0.8,7.1-21.6,7.1-25.3c0-0.5,0.1-1,0.3-1c0.2,0,0.3,1.1,0.3,2.9c0,1.6,0.2,3.8,0.4,4.9
		c0.6,3,0.6,9.1-0.1,14c-0.6,4.5-0.7,4.9-2.6,11.1c-0.7,2.4-1.6,5.4-1.9,6.7c-0.3,1.2-1.1,3.4-1.8,4.8c-2.3,4.8-4.4,12.6-3.6,13.4
		c0.4,0.4,0.7,0,1.4-2.2c1.1-3.7,2.6-7,8.6-19.1c8.4-16.8,9.6-20.8,7.8-27.6c-0.3-1.2-0.7-2-3-5.9c-1-1.8-2.5-3.7-3.8-5.1
		c-1-1.1-1.1-1.3-1.1-2.5c0-2.7-1.6-7.3-4.5-13.1c-0.7-1.4-1.7-3.5-2.2-4.6c-1-2.4-4.3-8.3-4.7-8.5
		C327.6,257.3,327.4,257.8,327.3,258.7 M308.8,260.7c-3.7,6.5-6.2,15.3-6.6,23.5c-0.4,7-0.8,11.2-1.2,13.6
		c-1.3,6.3-3.7,15.4-5.2,19.7c-1.3,3.6-1.3,4.7,0,3.1c1.5-1.9,5.7-10.2,7-13.9c0.8-2.4,0.3,7.7-0.9,15.6
		c-1.7,11.9-3.4,15.3-13.7,27.4c-6.3,7.4-10,10.8-17.5,16c-3.6,2.5-5.9,4.2-6.7,4.9c-0.4,0.4,1.4-0.5,3.1-1.6
		c0.8-0.5,3.3-1.9,5.5-3.1c11.3-6.3,22.5-16.5,29.2-26.5c2.8-4.1,5.9-13.7,6.2-18.9c0.6-11.8,0.4-18.4-0.8-21.4
		c-0.4-0.9-0.7-1.9-0.7-2.1c0-0.2-0.2-0.9-0.4-1.6c-0.9-2.5,0.4-23.1,1.9-29.3c0.4-1.5,0.6-2.9,0.5-3c-0.1-0.1,0.3-1.4,0.9-2.8
		C310.9,257.2,310.8,257.2,308.8,260.7 M116.2,258.6c-12.3,3.3-26.1,13.6-28.8,21.4c-0.6,1.8-0.5,2,0.4,0.5c2-3.3,4.8-4.8,9.2-5.1
		c6.1-0.4,10.2-2,13.6-5.1l1.2-1.2l-1.4,0.7c-2.5,1.2-6.5,2.7-6.5,2.4c0-0.1,1.1-0.6,2.3-1.3c3.9-1.9,8.5-5.3,9.9-7.2
		c0.2-0.3-1,0.4-2.7,1.4c-4.1,2.5-7.5,4.2-9.9,4.7c-4.7,1-5.5,1.3-7.5,2.3c-1.9,1-2.1,1-1.5,0.4c1.1-1.2,3-2.2,5.8-3.1
		c5.5-1.7,9.9-3.9,13.5-6.5c2.9-2.1,1.7-1.7-5.2,1.7c-4.7,2.3-6.2,2.8-3.4,1c0.9-0.5,2.6-1.7,4-2.6s3.7-2.2,5.3-2.9
		C118.7,258.1,119.1,257.8,116.2,258.6 M240.1,264.7c-1.8,1.4-3.8,2.8-9.4,6.4c-1.3,0.9-3.5,2.2-4.8,2.9c-1.3,0.7-2.5,1.4-2.6,1.5
		c-0.5,0.4-6.1,3.1-8.4,4.1c-6.1,2.6-9.5,3.6-20.1,5.7c-8.9,1.8-11.7,2.5-17.7,4.2c-2.3,0.7-4.5,1.3-4.9,1.4
		c-22.2,5.5-32.5,12.5-41.6,28.3c-1,1.7-2.3,3.7-2.9,4.4s-1.7,2-2.3,2.9c-1.9,2.5-3.7,4.4-4.8,5.1c-0.6,0.4-1,0.7-0.9,0.8
		c0.2,0.2-1.4,1.9-4.4,4.7c-3.1,2.9-7.8,5.8-11.3,7.1c-1.8,0.6-1,0.6,4.3,0c5.9-0.7,10.4-2.5,15-6.1c2.7-2.1,2.8-2.6,0.2-1.1
		c-1.1,0.6-2.7,1.4-3.6,1.7l-1.6,0.6l0.6-0.8c0.4-0.5,1.5-1.6,2.5-2.5c2.3-2.1,4.4-4.5,5.8-6.6c2.6-3.9,17.9-20.5,20.4-22.3l1.2-0.8
		l-1.4,1.7c-1.7,2.1-4.7,6.3-5.9,8.3c-0.5,0.8-1.5,2.4-2.3,3.5c-0.8,1.1-2.2,3.2-3.1,4.6c-1.5,2.3-2.7,3.9-5.7,7.5l-0.8,1l0.7-0.3
		c2.7-1,7.2-5.1,12.7-11.6c4.8-5.6,6-6.8,13.1-12.8c9.8-8.3,27.6-17,37.2-18.2c6.5-0.8,11.2-1.8,14-3.1c2.3-1,2-1.1-1.2-0.4
		c-1.5,0.4-4.8,0.9-7.3,1.2c-2.6,0.3-6.1,0.8-7.8,1.1c-1.7,0.3-3.4,0.5-3.7,0.5l-0.6,0l0.7-0.3c1.5-0.6,5-1.4,10.2-2.2
		c13.5-2.3,19-4.5,33.8-13.4c4.4-2.7,8.8-6.3,10.7-9C242.6,262.8,242.3,262.9,240.1,264.7 M239.8,284.3
		c-5.7,6.1-12.8,12.3-17.7,15.5c-2.8,1.8-7.8,4.6-8.6,4.8l-0.7,0.2l0.7-0.5c0.4-0.3,1.4-1,2.3-1.6c6.5-4.3,8.6-5.9,12.7-9.8
		c2.7-2.6,3.3-3.5,1.1-1.7c-2,1.6-3.3,2.5-8.5,5.3c-13.1,7.3-18,9.5-13.6,6.3c1-0.8,2.9-1.9,4.1-2.7c11.3-6.4,14-8.1,16.5-10.5
		l1.5-1.4l-2.4,1.4c-2.7,1.6-10.5,5.6-10.7,5.4c-0.1-0.1,1.5-1.1,3.4-2.2c3.3-2,10.5-7.3,10.3-7.5c-0.2-0.2-2.7,1.2-6.7,3.6
		c-1.8,1-4.8,2.7-6.7,3.7c-11.7,5.9-14.3,7.8-28.3,20.6c-4.6,4.2-6.5,6.2-9.3,9.7c-1.2,1.5-2.6,3.3-3.1,3.9
		c-0.5,0.6-2.2,2.7-3.7,4.6c-1.5,1.9-3.6,4.5-4.7,5.7c-1,1.3-2.7,3.5-3.7,4.9c-4.9,6.8-7.3,9.7-12.1,14.7c-3.4,3.5-4,4.1-8.3,7.9
		c-1.2,1.1-5.4,5.1-9.2,8.9c-6.9,6.9-8.7,8.4-10.7,9.5c-1.5,0.8-8.1,3.9-10.6,5c-1.1,0.5-3.6,1.7-5.6,2.7s-4.2,2.1-5,2.4
		c-1.4,0.6-1.9,1.4-0.8,1.4c1.2,0,3.9-0.8,7.2-2.1c1.8-0.7,4.1-1.6,5.2-1.9c1-0.3,3.3-1.2,5-1.9c1.7-0.7,3.3-1.3,3.5-1.3
		c1.4,0,7.4-3.8,9.5-6c1.9-2,12.5-11.5,16.1-14.6c2.1-1.8,3.2-3.1,9.7-11.9c6.5-8.8,10.5-13.8,19.1-24.5c4.4-5.5,7.2-7.9,17-15.4
		c4.1-3.1,9.6-6.6,7.8-4.9c-0.4,0.3-0.9,0.9-1.2,1.3c-0.3,0.4-1.7,1.7-3.2,2.9c-9.4,7.7-14.5,13-20.7,21.3c-3.2,4.2-3.8,5.3-2.3,3.9
		c0.5-0.4,3.3-3.1,6.3-5.8c3-2.8,6.2-5.7,7.1-6.5c0.9-0.8,2.1-1.9,2.7-2.4c2.1-1.9,11.9-9,16.7-12.2c5.1-3.4,7.7-5.3,10-7.3
		c2-1.8,6.7-5.2,13.2-9.7c2.3-1.6,4-3.3,8-8.3C243.8,280.6,244.3,279.6,239.8,284.3 M200.3,292.7c-11.6,2.6-21.1,6.8-28.7,12.8
		c-5.4,4.2-17.1,16.8-20.8,22.2c-6.4,9.3-15.1,17.6-23.7,22.4c-7.1,4-9.2,4.8-14.9,5.8c-2.1,0.4-4.3,0.8-4.9,1
		c-0.6,0.2-2.1,0.5-3.3,0.8c-1.2,0.3-3.4,0.8-4.8,1.1c-7.4,2-11.2,2.5-22.3,3c-2.1,0.1-3.8,0.2-3.9,0.3c-0.7,0.6,3.6,1,10.1,1
		c4.9,0,5.6-0.1,17.7-1.8c6.3-0.9,6.2-0.6-0.2,1.2c-6.1,1.7-12.3,2.9-16.3,3.1c-3.2,0.2-3.4,0.4-0.7,0.9c4.1,0.7,11.8-0.2,18.9-2
		c1.4-0.4,2.9-0.8,3.3-0.9c2.2-0.6,9.4-2.8,14.3-4.3c12.3-4,29.4-13.2,35.4-19c3.9-3.8,1.5-2.9-9.4,3.6c-5.9,3.5-12.4,6.5-12.9,6.1
		c-0.3-0.3,0.8-1.1,4.1-3.1c1.8-1.1,4.4-2.8,5.9-3.8c1.5-1,3.2-2.3,3.8-2.7c1.2-0.8,3.3-3.2,6.2-7.1c0.9-1.2,2.6-3.2,3.7-4.3
		c1.1-1.1,3.1-3.3,4.5-4.9c3.8-4.5,9.9-10.8,12.1-12.6c1.1-0.9,2-1.6,2.1-1.7c0.4-0.4,5.3-4.1,6.6-5c2.7-1.7,5.9-3.9,5.9-4
		c0-1.6-14.9,7.6-19.4,12c-3.9,3.8-3.6,2.7,0.4-1.5c6.4-6.6,16.3-11.9,31.4-16.7c1.9-0.6,3.5-1.2,3.5-1.3
		C204.2,292.6,201.8,292.4,200.3,292.7 M348.9,297.7c-0.4,0.4-0.3,1,0.3,1.7c2.7,3.2-0.8,16.7-7.3,28.1c-2.2,3.8-4.8,9.2-5.6,11.5
		c-0.9,2.5-1.9,6.5-1.9,7.2c0,0.4-0.2,1.3-0.5,2.1c-2.1,5.7-2.5,11.5-1.7,21c0.5,5.8,0.4,9.7-0.4,12.9c-0.3,1.2-0.8,3.4-1.1,4.9
		c-0.3,1.5-0.7,3.4-1,4.3c-0.9,3.4,0.6,2.1,1.6-1.4c0.4-1.2,1.2-4.2,1.9-6.8l1.3-4.7l0-10.7c0-11.8,0-12.1,1.9-19.1
		c2.8-10.5,3.9-13.6,7.3-19.5c9.1-15.8,11.7-23.6,9.8-29.9C352.9,297.6,350,296.6,348.9,297.7 M285.3,302.7
		c-0.5,0.6-0.9,1.3-0.9,1.6c0,1-2.7,6-5.5,10c-1.6,2.4-6.5,7.4-9,9.3c-3.9,2.9-6.8,5.3-6.8,5.6c0,1.1,7.5-3.5,11.7-7.2
		c3.4-3,3.4-3,2.4-1.6c-3.6,4.7-7.8,8.7-13.3,12.6c-8.5,6-16,12.2-16,13.3c0,0.1,0.8-0.3,1.7-1c4.5-3.3,9.3-6.4,13.5-8.9
		c9-5.3,12.6-8.6,17.5-16.5c3.9-6.3,6.2-13.2,5.7-17.5l-0.1-0.7L285.3,302.7 M356.2,307.1c-0.8,5.8-4.2,13.6-7.9,18.2
		c-0.6,0.7-3.3,6-3.3,6.5c0,0.7,0.5,0.5,1-0.3c0.2-0.4,1.1-1.9,1.9-3.4c0.8-1.5,2.6-4.1,4-5.9c7-8.6,8.4-13,5.6-16.7
		C356.6,304.5,356.6,304.5,356.2,307.1 M171.1,313.9c-0.9,0.9-1.5,1.5-1.2,1.4c0.5-0.3,3.3-3,3.1-3
		C172.9,312.2,172.1,313,171.1,313.9 M264.7,316.9c-1.6,1.3-1.8,1.6-1.2,1.2c0.6-0.3,2.7-2.2,2.5-2.2
		C265.9,316,265.3,316.4,264.7,316.9 M356.5,319.8c-0.2,0.2-0.3,0.4-0.3,0.6c0,0.2-0.4,0.7-0.8,1.2c-2.9,3.3-4.3,5.6-4.3,7.1
		c0,0.8,0.7,1.2,1.4,0.7c0.3-0.2,0.6-0.2,0.8-0.1c0.2,0.1,1,0.5,1.9,0.9c8.1,3.2,11.4,7.7,11.3,15.2c-0.1,4,0.1,4.8,1.7,7.5
		c0.7,1.2,1.9,3.1,2.5,4.3l1.2,2l0.1,3.5c0.1,4.5,0.8,5.8,3.7,7c2.2,1,3.5,0.8,1.8-0.2c-1.4-0.9-2.5-2.4-2.8-3.7
		c-0.1-0.5-0.3-0.9-0.5-0.9c-1,0-1.1-0.5-0.2-1.4c2-2.1,0.8-7.4-3-12.9c-0.9-1.3-0.8-3.2,0.3-6.3c1.4-4.2,3.3-5,8.6-3.7
		c3.7,0.9,9.5,1,14.1,0.2c2-0.3,2.9,0,6.2,2.4c4.3,3,7,4.4,7.6,3.8c0.2-0.3-0.1-0.7-1.4-1.8c-0.9-0.8-2.8-2.5-4.1-3.7
		c-3.6-3.3-5.5-4.1-9.2-3.9c-5.1,0.3-6.2,0.3-7.2-0.1c-1.4-0.6-0.4-0.8,4-1c2-0.1,3.8-0.2,4.1-0.3c0.7-0.2-3.1-1.8-6.2-2.7
		c-3.6-0.9-4.1-2.1-0.6-1.2c2.4,0.6,2.7,0.5,1.8-0.6c-1.6-2-4.6-2.5-10.4-2.1c-2.5,0.2-4.3,0.2-6.5-0.1c-6.5-0.7-7-0.9-10.3-4.9
		C357.4,319.2,357.2,319.1,356.5,319.8 M238.5,330.1c-15.9,5.4-26.3,13.8-37.8,30.6c-1.7,2.5-4.6,6.4-6.5,8.8
		c-7.3,9.1-7.6,10.1-1.2,4.1c3.6-3.4,6.5-6.6,10.2-11.2c5.7-7.2,13.3-15.2,16.9-17.9c1-0.8,3.5-2.7,5.6-4.3
		c3.8-2.9,8.2-5.9,13.1-8.9C242.8,328.7,242.8,328.6,238.5,330.1 M305.3,338.1c-0.2,0.1-1.1,2.3-2.1,4.9s-2,5.1-2.3,5.6
		c-0.6,0.9-10.8,11.2-18.5,18.7c-3.6,3.5-7.8,8.8-7.4,9.3c0.1,0.1,1.8-1.5,3.8-3.4c2-1.9,5-4.5,6.5-5.7c1.5-1.2,4-3.4,5.6-4.9
		c4.2-4,4.5-4.3,4.7-4.1c0.3,0.3-5.6,7.3-9.4,11c-5.3,5.2-9.1,9.3-10.3,11c-0.8,1.2-0.6,1,1.8-1.2c1.5-1.4,5.2-4.6,8.2-7.1
		c7-5.7,10.2-9,13.2-13.6c3.8-5.7,4.5-7.2,5.7-12.2c0.4-1.5,0.9-3.4,1.2-4.1C307,339.7,306.6,337.3,305.3,338.1 M394.3,344.8
		c-0.7,0.4-0.1,1.7,1.4,3.1c4.8,4.4,10,6.1,5.6,1.8c-1-0.9-2.3-2.5-3-3.4C397.2,344.5,395.7,343.9,394.3,344.8 M252.6,351.9
		c-2.5,2-5.8,4.5-7.3,5.5c-1.5,1-4.5,3.1-6.5,4.6c-2.1,1.5-5.2,3.6-6.9,4.8c-1.7,1.1-4.9,3.4-6.9,4.9c-3.8,2.8-7.2,5.3-12.4,8.9
		c-2.6,1.8-3,2.4-2,2.4c0.2,0,2.7-1.4,5.5-3c2.8-1.7,6.1-3.6,7.4-4.3c3.4-1.9,6.6-4.1,11.5-7.9c2.4-1.9,5.7-4.3,7.4-5.5
		c6.1-4.3,7.9-5.9,12.2-10.5C258.7,347.2,258.3,347.3,252.6,351.9 M91.1,350c-1.4,0.2-3.2,0.4-4,0.5c-0.8,0.1-1.9,0.2-2.4,0.3
		c-4.4,0.6-16,1.2-23.5,1.4c-8.4,0.1-10.7,0.3-14,0.9c-0.7,0.1-2.4,0.4-3.6,0.6c-6.7,1.1-10.1,2.4-14.8,5.4c-4.6,3-5.3,3.7-4.3,4.6
		c0.6,0.5,2.8-0.3,5.7-1.9c3.4-2,8.8-3.7,11.3-3.7c1,0,3.7-0.4,7.5-1.1c1.1-0.2,4.7-0.2,10.8-0.1c9.9,0.2,17.5-0.2,26.3-1.3
		c8.2-1,7.3-1.2-1.8-0.5c-4,0.3-17.1,0-21.4-0.5c-2.8-0.3-0.5-0.7,7.2-1c12-0.6,29.8-2.9,31-4C101.5,349.4,93.4,349.7,91.1,350
		 M236.6,369.1c-6.4,6.3-17.3,14-32.7,22.8c-6.5,3.7-11.6,6.9-11.4,7.2c0.2,0.2,7-2.2,10.3-3.7c13.9-6.2,22.1-11.9,29.6-20.6
		c3.1-3.6,7.1-8,7.3-8.1c0.3-0.1,0.8-1.1,0.6-1.1C240.2,365.6,238.5,367.2,236.6,369.1"/>
</g>
</svg>
