<svg xmlns="http://www.w3.org/2000/svg" viewBox="0 0 410 410"><path d="M170.9 23.1c-1.1.1-7.6 1.3-9.3 1.7-1.7.4-6.7 3-8.8 4.6-4.6 3.5-5.8 4.9-10.7 12.3-4.3 6.5-3.9 6.4 1.9-.4 3.7-4.3 8.6-9.3 10.2-10.4l1.3-.9-1.6 1.6c-2.1 2.1-6.1 6.5-5.9 6.5.1 0 1.3-1 2.6-2.2 4.7-4.3 9.3-7 14.4-8.6 3.2-1 3.2-.7-.1.5-5.4 2-9 4.4-15.3 10.2-5.2 4.8-4.2 4.3 2.2-1 1.9-1.6 6.9-4.9 9-6 2.4-1.2 10.2-3.2 10.7-2.7.1.1-.2.2-2.7.7-7.5 1.4-16.2 7-24.1 15.3-1.6 1.7-1.4 1.6 3-2.2 12.4-10.6 21.9-13.5 34.5-10.6 5.2 1.2 16.2 9.6 19.6 15.1 1.1 1.7 2 2.1 1.6.7-.2-.8-3.7-5.6-6.4-8.6a44.56 44.56 0 0 0-18.2-12.4c-1-.3-1.7-.7-1.6-.7.9-.3 8.3 2.4 11.1 4.1 1.9 1.2 2 1.2 1-.1-.6-.7-1.8-1.6-3.9-2.7-1.7-.9-3.5-1.9-4-2.3-2.3-1.5-5.9-2-10.5-1.5M183 34.7c2.1 1.3 5.1 3.4 6.3 4.4 1.4 1.2 16.7 16.1 16.4 16.1-.5 0-5-4.1-10.4-9.3-6-5.8-11.8-10.4-13.1-10.4-.4 0-.4 0 2.9 2.1 4.3 2.8 8.8 7.5 15.3 15.7a33 33 0 0 0 3.6 4c1.9 1.5 5.2 3.7 6.8 4.4 1.8.8 1.7 1-.2.4-2-.6-3.8-1.5-6-3.2-1.9-1.4-2.7-2.2-6.5-6.6-1.2-1.4-3.1-3.3-4.1-4.2-1.1-.9-3.3-3-4.9-4.5-5.5-5.2-12-7.9-18.9-7.8-9 .1-13.2 1.1-17.7 4.2-2.7 1.8-3 2.3-.7 1.2 5.8-2.9 12.6-4.1 19.5-3.4 4.5.4 6.8 1.1 2.9.9-14.2-.9-25.5 3.1-33 11.6-.8.9-1.6 1.7-1.9 1.8-.7.2-8.5 6.9-8.2 7 .7.2 5.6-2.9 10.2-6.5 6.3-4.9 12.7-8.2 17.4-8.8 1.1-.1.9 0-1.2.6-3.5 1.1-8 3.4-11.3 5.9-3.7 2.7-3.9 3.1-.6 1 7.5-4.7 14.1-6.8 20.6-6.5 7.1.3 7.9 1.3.9 1.2-8.6-.1-12.6 1.4-26.3 10-2.7 1.7-2.7 1.5 0-.4 1.3-.9 2.3-1.7 2.3-1.7 0-.2-3.8 2.4-5.4 3.7-1.6 1.3-2.3 1.3-.8.1.7-.6-.4 0-2.6 1.4-2 1.3-4.5 2.6-5.6 3.1-2.4 1-2.5 1.1-.8.9 4.9-.6 8-2 15.9-7.1 3.7-2.4 7.1-4.2 7.3-3.9.1.1-.5.5-1.2.8-1.9 1-3.6 2.1-7.8 5.2-7.1 5.3-12 7-19.8 6.9-8.3-.1-9.5.2-4.4.9 1.8.2 5 .9 7.1 1.5 3.6 1 7.2 1.7 9.3 2 .8.1.8.1-.3.1-2 .1-5.7-.5-10.1-1.5-6.1-1.4-7.5-1.1-2.4.4 11.2 3.3 11.4 3.4 18 3.2 3.6-.1 5.3-.3 6.7-.7 1-.3 3.4-.8 5.2-1.2 1.8-.4 5.1-1.2 7.3-1.7 4.2-1.1 7.9-1.6 11.8-1.6 3.2 0 1.6-.4-2-.5-3.1 0-7.8.7-14.2 2.4-5 1.3-7.6 1.5-4 .3 1.3-.4 3.7-1.4 5.5-2.2 6.1-2.9 11.6-4.1 15-3.3.5.1.9.1.9 0 0-.5-2.9-.9-5.9-.9h-3.1l1.4-.4c.8-.2 1.5-.5 1.5-.6.7-1 6-.6 9.5.7 1.8.7 2.4 1 4.3 2.2.6.4.5.2-.4-.8-1.2-1.3-3.9-2.8-4.9-2.9-.3 0-1.2-.2-1.9-.5l-1.3-.5 1.7.1c3.3.2 4.9 1 7.4 3.4l1.4 1.4-.6-1.2c-3.2-5.9-10.7-6.1-21.5-.7-5.5 2.7-7.2 3.4-10.7 4.3-1.5.4-3.3.9-3.9 1.2-1.3.6-9.1.7-10.3.1-.5-.3.2-.3 3.5-.2 6.2.2 10.9-1 17.6-4.5 3.6-1.9 3.7-2.1.2-.9-2.2.8-7.6 2.3-8.3 2.3-.1 0 .6-.5 1.6-1.2 1-.6 2.4-1.6 3.1-2.2 2.1-1.7 7.3-4.1 12.3-5.5 8.3-2.4 10.7-2.4 15.6.4.9.5 1.5.7 1.4.6-.4-.6-4.1-2.6-6.2-3.3-2.6-.9-2.2-1 .7-.2 8.5 2.3 11.8 6.7 11.4 15.3-.3 6.3 1.4 11.6 5.1 16.1 1.6 2 1 1.8-.9-.3-.9-1-1.3-1.3-.9-.7 3.2 4.9 9 8.2 13.8 7.9 2.3-.1 3 .1 1.2.4-5.6.9-11.5-1.9-16.2-7.8l-.7-.9.7 1.4c.4.8 1.2 1.9 1.7 2.5.5.6.7.9.4.7s-.6-.5-.7-.7c-.1-.1-.3-.2-.3-.1-.3.3 4 4.1 5.7 5.1 2.2 1.3 4.5 1.7 8.7 1.5l3.2-.2-1 .5c-2.5 1.3-6.9 1.2-11.3-.2-.7-.2-1.1-.3-1-.1.4.7-1.2-.5-2.5-1.8-1.5-1.5-1.8-1.5-.9 0 1.5 2.6 6.1 4.6 10.7 4.7 2 .1.2.5-2.2.5-2.8 0-5.6-1.3-8.3-4-1.9-1.9-2.2-2-1.8-.7.9 2.6 6.2 6.4 9.6 6.8 3.9.4 6.6-.9 12.4-6 6.2-5.5 7.5-6.4 10.9-8.1 6.8-3.4 13.2-4 23.1-2.3 16.8 2.9 22.6 2.5 28.8-1.9 9.6-6.8 13.5-8.5 19.9-8.5 4 0 4.2-.2.6-.7-4.1-.6-8.7.6-14 3.6-7.8 4.3-13.8 6.6-17 6.6-.6 0-2 .1-3.3.2-1.2.1-3.7.3-5.5.2-1.8 0-2.7-.1-2-.1 10.9-.9 18.6-3.2 26.9-7.8 7.8-4.3 15.7-5 21.8-1.9 2 1 1.9 1 1.9.2 0-.5.1-.6.4-.5 1.5.6-.7-1.6-3.7-3.5-1-.7-1.8-1.2-1.8-1.3 0-.3 2.7 1 4.4 2.2 1.7 1.2 1.9.9.3-.6-2.6-2.4-7.6-4.2-13.3-4.7-3.1-.3-3.3-.3-2.3-.5 1.6-.3 5-.1 7.3.4 2.2.5 2.4.4.9-.4-4-2-8.8-2.6-12.5-1.6-4.5 1.2-8.3 2.4-10.3 3.2-5.1 2-15.2 3.7-18.9 3.1l-1.3-.2 1.1-.2c4.9-.9 6.9-1.4 8.1-1.8l1.5-.5-1.9-.2c-7-.7-17.6.1-22.9 1.7-3.6 1-13.6 4.4-16.7 5.7l-3.1 1.2-5 .2c-6.5.2-8.9-.5-13.4-3.8-.9-.7-1.6-1.1-1.5-.9.3.6 2.3 2.2 3.9 3.4.9.6 1.5 1.1 1.4 1.1-.2 0-2.4-1.2-3.6-2.1-.6-.4-.6-.4.1.4 1.7 1.9 5.6 4 7.4 4.1.5 0 1.2.1 1.5.3.5.2.1.2-1.2.1-3.3-.2-8-3.2-10.8-7-1.6-2.1-1.7-2.2-1.4-1.6.4 1 1.5 2.6 2.7 3.9 1.4 1.5 1.2 1.8-.2.4-1.2-1.2-1.5-1.2-.8.2 2 3.7 8.2 6.5 12.8 5.8 3.9-.6 12.5-3.2 19.4-5.9 7.7-3 18.5-4.5 24.3-3.3 2.7.6 8.4.4 13.6-.5 5.7-1 5.8-1 5.2-.7-.5.2-2.4.6-8.8 1.9-2.6.5-3.9.6-12.4.7-7 .1-9.9.2-10.9.5-1.4.4-1.3.4 2.1.2 2.1-.1 6 .1 9.3.3 3.2.2 6.4.4 7.2.3 3.6-.4 13.3-2.1 16.7-2.9 5.8-1.5 7.4-1.7 11.5-1.7 3.8 0 8.5.7 9.7 1.4.4.3.4.3-.2.1-4.5-1.1-10.1-.2-17 2.8-11.7 5-19.1 6.4-31.9 5.7-7.1-.4-11.1.2-6.1.9 9.1 1.2 17.6 1.3 22.4.3 3.1-.7 3.5-.5.9.3-6.1 1.9-7.9 2-19.9 1.1-15.2-1.1-22.2.1-27.4 4.9-4.7 4.4-9.9 8.2-6 4.5 1.7-1.7 1.6-1.9-.9-1.1-4.6 1.4-11.6.8-15.3-1.4-2.7-1.6-6.1-6.7-6.9-10.2-.1-.6.1-.4.7.8 4.6 8.3 15.3 10.8 24 5.5 2.4-1.4 2.2-1.5-1-.2-8.3 3.2-16.4 1.6-19.7-4.1-.4-.8-.4-.8 0-.1 2.6 3.6 7.7 5.7 12.6 5.1l2.1-.3h-1.7c-5.5-.1-8.5-1.1-10.7-3.3-1.8-1.9-2.6-3.3-.9-1.6 3.5 3.5 4.7 3.9 11.5 3.9 3.4 0 5.2-.1 5.6-.3.7-.4.6-.4-3.7-.1-10.6.9-14.2-2.8-15.5-16.1-1.5-15-8.4-22-23.9-24.4-5.3-.8-12.7 1-19.4 4.7l-2.1 1.2 1.1-1c4.6-4.1 7.5-5.4 13.7-6.1 5.8-.7 11.3-.6 13.4.1 6.5 2.3 12.6 6.7 15.1 11 1.8 3.1 3.8 7.2 3.9 7.7 0 2 4.6 7.7 8.2 10.1 5.5 3.8 13.4 3.7 25-.2 4.5-1.5 4.5-1.7 0-.6-1.9.4-4.4.9-5.6 1.1-1.2.2-2.7.4-3.4.6-4.4 1-14.1-1.9-16.5-4.8-.2-.2.2-.1.8.4 1.2.8 3.3 2 3.6 2 .1 0-.8-.8-1.9-1.8-2.8-2.3-4.2-4-5.8-6.9-1.2-2.1-4.3-6.7-6-9-.9-1.1-1.6-2.1-1.6-2.3 0-.5 4.9 5 6.3 7.1.8 1.2 1.9 2.9 2.5 3.7 1.7 2.6 6.4 6 9.6 6.9 4 1.2 16.1 1.3 22.1.2 4.5-.8 7.2-1.1 11.5-1 4 0 6-.2 4.8-.6-2.5-.8-11-1-14.7-.2-9.2 1.9-17.6 2-22.8.1-1-.4-1.5-.6-1.2-.5.4.1 1.4.3 2.4.5 1.9.4 9.9.5 12.4.2 1.5-.2 1.5-.3-2.8-.8-3.2-.4-6.3-1.4-9.2-2.8-2.4-1.1-3.4-1.8-1.8-1.2 3.3 1.3 6 2.1 7.9 2.5 3.3.6 3.9.4 1.5-.5-5.1-2-8.4-3.9-11.2-6.4-.7-.6-2.1-1.9-3.2-2.8-1.1-.9-3.8-3.6-6.1-5.9-2.3-2.3-4.7-4.7-5.5-5.2-1.8-1.4-6.2-4.4-7.3-5-1.6-.9-4.5-1.9-3.8-1.5m16.6 1.2c8.9 13.6 9.7 14.6 15.4 18.3 5.5 3.6 8.4 4.3 15.4 4 11.1-.5 11.1-.5 19.1 2.8 4.7 2 7.9 2.7 12.1 2.9 3.4.1 3.7-.1.8-.7-8.7-1.8-9.3-1.9-12.9-3.7-1.7-.8-4-1.8-5.1-2.3l-2-.8-8.1-.2c-10.3-.2-12.6-.6-17.9-3.2-4.3-2.1-5.2-3-11.1-11.4-1.7-2.5-6.1-7.3-6.5-7.3-.1.1.2.8.8 1.6m-60.5 12.2c-.2.2-.8.6-1.3.9-.5.3-1.6 1-2.4 1.6-.8.6-1.6 1.1-1.8 1.1-.2 0-1 .5-1.8 1-2.7 2-10.9 4.9-14.7 5.2-.6 0-2.3.2-3.8.4-3.9.4-23.6.3-21-.1 1-.2 2.8-.3 4.1-.3 3.5 0 14.1-1.1 14.1-1.4 0-.1-17.1.1-17.8.2-.5.1-1.8.3-2.9.4-11.7 1.3-19.2 10.3-14.3 17.1 2 2.8 2.8 3.5 5.3 4.7 2.3 1.1 3.3 1.4 9.5 2.8 3 .7 5.3 1.9 7 3.6 1.3 1.4 1.9 1.3.9-.1-.9-1.4-2.9-2.8-5.9-4.4-8.3-4.3-10.2-9.9-4-11.9 1.2-.4 2.4-.8 2.6-1 .6-.4.1-.6-.7-.3-.4.2-1.2.4-1.7.4-5.4.9-7.2 4-4.8 8.3l.9 1.6-1-.9c-5.6-4.3-2.9-9.5 6.1-11.7 4.4-1.1 4.4-1 1.1-.9-5.1.3-8.4 1.3-10.6 3.4-.6.6-1.2 1-1.2.9 0-.1.6-.7 1.3-1.4 3.6-3.5 9.9-4.7 19.6-3.7 6.7.7 18.1-.1 19.2-1.4.2-.2.1-.3-.3-.1-2.4.7-10.1 1.1-14 .7l-1.7-.2 1.2-.2c.7-.1 3.1-.3 5.5-.5 6.7-.5 10.3-1.1 14-2.7 2.1-.9.9-.8-1.8.1-4.2 1.5-4.8 1.6-19.6 1.6-15.4.3-17.4.6-21.7 3-.7.4-1 .5-.7.2 3.5-2.9 7-3.5 23.5-3.9 13-.3 16.8-1 25.2-4.7 4.3-1.9 12.6-7.8 11-7.8-.1 0-.4.2-.6.4m37.2 2.2c8.3 2.2 11.5 5.7 12 13.5l.1 1.9-.6-2.4c-2-7.6-4.9-10.4-11.7-11.8-8-1.7-15.9.3-26.3 6.5-2.7 1.6-9.9 5.3-10 5.1-.1-.1 1.1-.8 2.6-1.7 1.5-.9 4.5-2.7 6.7-4.2 7.2-4.8 10.8-6.2 17.9-7.1 5.4-.6 6.3-.6 9.3.2m-16.8 4.5c-3.3 1.3-4.8 2.2-9.4 5.7-4.6 3.5-13.4 7.2-15.4 6.5-.5-.2.1-.4 3.8-1.3.6-.2 1.3-.4 1.5-.6.2-.2 1.2-.7 2.2-1.1 2.8-1.1 6.6-3.4 9.2-5.4 2.5-2 3.9-2.8 6.7-3.7 2.5-.9 3.6-1 1.4-.1m139 10c.2.2.9.4 1.7.5 1.6.2 2.8.6 3 1.1.1.2 1.1.9 2.2 1.7 1.1.8 2.7 2 3.4 2.7 1.4 1.3 1.4 1.3 2.7 1.1 2.9-.4-.1-4.5-4.5-6.2-3.3-1.2-3.9-1.3-1.6 0 1.8 1 4.8 3.1 4.8 3.3 0 .1-1.5-.7-3.3-1.6-3-1.5-4.8-2.1-7.9-2.7-.6-.2-.7-.2-.5.1m-14.4 3.5c-1.9.3-3.1.6-9.6 3-2.6 1-6.1 2.2-7.7 2.7-3.2 1-3 1.1 1.1.5 3.2-.5 6.9-1.6 13.2-4 2.6-1 5.3-1.9 6.1-2.1l1.5-.4h-1.5c-.9 0-2.3.1-3.1.3m-125.4.6c-3.1.8-12.9 3.1-14.7 3.3-4.3.7-10.7.1-17.4-1.7-2.8-.7-5.2-1.3-5.3-1.2-.2.2 6.3 3.1 10 4.5l3.6 1.4h5.2c4.9 0 5.4 0 8-.7 3-.8 10.4-3.2 11.3-3.7 1-.5-.1-.5-1.8 0-5.4 1.8-8.7 2.1-4.1.4 8.8-3 9.9-3.5 5.2-2.3m-39 .8c0 .2 1.5.9 1.9.9.2 0 .3-.1.2-.1-.3-.2-2.1-.9-2.1-.8m205.8.8c0 .1.9.3 1.9.4 3 .5 5 1.2 6.9 2.4 2.1 1.4 1.9 1.6-.3.4-2.3-1.3-5.1-2-8.6-2.3-1.6-.1-3.1-.3-3.4-.4-.5-.2-1.3.5-1.3 1.1 0 .4.4.6 3.2 1.5 5.1 1.6 9.6 6.5 9.7 10.5 0 3.7.7 3.9.9.3.4-6.2-1.2-8.9-6.8-11.5-1.8-.8-1.4-.8 1.3-.1 5.4 1.5 7.4 3.7 8.9 9.9.7 3 1.6 5 3 6.6 1.1 1.3 1.9 1.6 1 .4-1-1.4-2.2-4-2.3-5.2-.2-1.1-.1-1.1.9.8 2.6 4.9 6 8.9 3.7 4.4-1.9-3.8-2.8-6.1-3-7.6-.1-1.1-.1-1.2.2-.4 2.7 6.7 5.3 10.7 10.2 15.5 6 5.9 6.6 6.9 6.5 11.7 0 3.1-.5 5.1-1.5 6.6-1 1.4-1.1 1.2-.5-1.2.9-3.7.5-8.9-1.1-11.6-.4-.7-6.1-6.5-6.4-6.5-.4 0 .2.8 1.5 2.3 4.2 4.6 5.8 9.6 4.3 14.3-.5 1.7-.6 1.2-.6-2.4 0-2.9-.1-3.6-.6-4.6-.3-.7-.5-.9-.5-.5 1 4.9.4 8.2-3 17-2.1 5.4-2.6 9.4-1.6 12.4.3 1 .4.9.4-1.9 0-3.4.7-5.7 3.2-11.1 1.8-3.8 2.1-4 .6-.3-1.5 3.8-2.5 8.2-2.4 11.2 0 1.5.4-.1.6-2.5.2-2.8 3.5-9.4 6.1-12.1 1.4-1.5 2.5-4.8 3.1-9.4l.2-1.9v2.4c0 1.4-.1 3-.4 3.9-.7 2.6 0 2.7 1 .1.6-1.5.7-1.6.5-.7-.2 1.5-1.6 4.2-2.9 5.7-1 1.1-2.2 2.9-4.2 6-1.1 1.8-.1.8 2.1-1.9 1.3-1.6 2.4-2.9 2.4-2.9.3 0-.3 1-2.7 4.2-2.4 3.2-3.6 5.4-3.6 6.1 0 .1.3-.3.7-1 .4-.7 1.3-1.9 1.9-2.8 4.1-5.4 4.9-6.5 5.6-7.9.5-.9 1.1-2.2 1.3-3 .3-.8.5-1.2.5-1 .1 1.6-1.6 4.6-5.7 10.5-3.1 4.5-4.5 7.4-4.4 9.6 0 .9.1.8.9-1.5 1.1-3.3 5-9.8 6.7-11.2.6-.5.6-.5-1.8 3-1 1.5-2 3.1-2.2 3.6l-.5.9.6-.8c2-2.7 4.1-5.2 5.3-6.5 1.3-1.4 1.3-1.3.1.4-.2.3-.4.7-.3.7.3.3 3.9-3.9 4.6-5.1.4-.7.7-1.1.7-.9 0 .9-1.7 3.3-4.6 6.3-2.9 3.1-4.7 5.2-3.9 4.8.3-.2.3-.1 0 .3-2.5 3.1-1.9 10.2 1.6 18.4 2.8 6.6 3.4 9.7 2 10.8-.2.2-.6 1-.8 1.8-1.1 3.9-3.2 6.1-7.6 7.9-1 .4-2.1.9-2.5 1.2-3.6 2-7.6 4-7.6 3.9 0-.1 1-.8 2.2-1.7 3.4-2.5 5.6-4.7 7.5-7.7 2.9-4.5 3.2-5.2 3.2-8 0-3.3-.5-5.2-.5-2.2 0 3.5-1.1 6.4-3.4 9.9-1.2 1.8-1.5 1.8-.4-.1 1.2-2 2.4-4.6 2.6-5.8l.2-1.1-.4.9c-1.6 4.3-7 10.2-12.7 14.1-2.8 1.9-3.4 2.6-5 5.7-1.7 3.3-2.2 5.3-.7 2.6.8-1.4 4.5-6.2 4.9-6.2.1 0-.1.3-1.7 2.6-1.6 2.2-3.1 5.3-3.4 6.7-.1.7.1.3.9-1.3 1-2 3.9-5.6 4.2-5.3.1.1-.1.4-.4.7-.3.4-.4.5-.1.3.9-.5 3.1-2.2 4.7-3.4 1.9-1.5 6-3.7 8.7-4.6 1-.4 2.3-.9 2.8-1.2 1.1-.6 1.3-.7.9-.1-.4.5-2.4 1.6-3.6 2-1.5.5-.9.6 1 .1 1.7-.4 2.2-.6 4-1.7 1.5-.8 1.2-.5-.5.7-1.9 1.3-1.5 1.4.9.1 2.3-1.2 3.8-2.5 4.3-3.5.2-.4.6-1.1.8-1.4 2-3 3.1-9.4 2-12-.4-.9-1.1-2.6-1.5-3.7-.4-1.1-1.1-2.5-1.5-3.1-1-1.5-3-5.5-3.4-6.8-.2-.5-.4-1.1-.6-1.1-.4-.2 1.2 4.1 2.2 6.1 1 1.9 2 5.1 1.7 5.4-.1.1-.2-.1-.3-.5-.1-.3-1-2.2-2-4.2-2.7-5.5-3.7-11.9-2.2-15 .7-1.3.7-1.7.3-1.4-1.1.7.2-.7 2.4-2.7 3.9-3.4 5.5-5.6 6.7-9.2l.5-1.5-.1 1.2c-.2 1.2-1.5 4.5-2.5 6l-.6.8.9-.8c2.1-1.9 3.7-5.8 3.8-8.6 0-1.5.1-1.6.3-1.1 1.2 2.9-1.6 8.8-5.7 12.1-2.2 1.7-3 2.7-1.3 1.5.4-.3 1.2-.7 1.7-1 2.1-1 4.9-4.9 5.6-7.6.2-.8.5-1.8.7-2.3.3-.6.4-1.4.3-3.5-.3-5.6-4-10.3-11.9-14.8-1.9-1.1-1.8-.8.5.9 2.6 2 3.8 3.3 1.5 1.8-1.5-1-5.1-3.2-5.1-3.1 0 .1.8.7 1.8 1.5 2 1.5 3.2 2.7 1.6 1.7-.5-.3-1.6-1.1-2.5-1.6-.9-.5-2.7-1.8-4-2.8-1.3-1-2.6-2-2.8-2.1-1.3-.9 2.3 2.5 3.9 3.7 2.2 1.7 2.5 2.1.7 1l-1.3-.7 1.2 1.1c.7.6 1.9 1.8 2.7 2.6l1.5 1.5c0 .2-5.8-4.6-8.8-7.2-4.6-4-8-9.3-8-12.2 0-4.2-3.5-9.3-7.2-10.5-1.1-.4-1.4-.2-.3.2.4.2 1.1.7 1.5 1.1l.8.8-1.5-.8c-1.7-.6-9.9-2.4-9.9-1.7m-201.4 1.9c.6.4 1.8 1.4 2.7 2.2 8.5 8.1 17 10.9 24.9 8.3.8-.3 2.7-.8 4.2-1.2 2.4-.7 3.9-1.4 2-1.1-.4.1-1.9.2-3.3.3-1.4.1-3.5.3-4.6.5-2.2.4-5.4.5-7.4.1-.9-.2-.4-.2 1.9-.2 1.9 0 3.7-.2 4.7-.4 4.8-1.2 16.9-1.6 21.7-.6 4.6.9 8.4 3.6 11.3 8 1.1 1.7 1.4 1.9.8.5-1.7-4.2-6.6-8.1-12.7-10.1-1.2-.4-1.3-.5-.8-.6 1.1-.1 5.1 1.4 7.1 2.7 2.4 1.6 2.5 1.6 2.5 1.4 0-.3-4.2-3.5-5.3-3.9-5.1-2.2-10.5-2.2-18-.1-6 1.7-9.1 2-13.1 1.5-2.2-.3-6.7-1.6-6.4-1.8.1-.1 1 .1 2.1.4 2.8.8 8.5 1 11.2.4 2.8-.6 10.7-3.3 9.4-3.2-1.5.2 1.3-.8 4.3-1.4 2.3-.5 10-.7 11.9-.3.8.2.6.1-.7-.6l-1.6-.8-4.5.1c-4.9.1-6.6.4-11.4 1.9-1.6.5-4.4 1.2-6.2 1.5-1.8.3-3.5.6-3.9.6-.4.1-.7 0-.7-.1s.3-.3.6-.3-1.6-.1-4.2-.1c-5.6 0-7.8-.4-11.9-1.9-2.6-1-7-2.4-7.4-2.4-.2 0 .2.3.8.7m141.9-.2c-1.9.6-6.9.8-16 .8-10.3 0-11.4 0-15.4 1.3-3.2 1-2.5 1.1 1.2.2 3.8-.9 7.1-1 11.5-.3 6.1 1 13.5.3 18.4-1.5 1.7-.6 1.9-.9.3-.5m-162.9.5c-4.6.6-6.4 1.8-6.4 4.2 0 1.5.6 3.1 1.2 3.1.3 0 .4-.1.1-.5-1.2-2.2.3-3.9 3.9-4.7 2.5-.5 3-.2 1.5.7-1.6 1-2.3 2.9-1.7 4.3.2.5.2.4.3-.3 0-1.5.5-2 2.7-2.8 2.5-.9 7.2-1 8.3-.3.4.2 1.2.6 1.9.8 2.6.7 5.5 3.6 9.4 9.5.7 1 2.2 2.8 3.3 4 1.1 1.2 1.9 1.9 1.6 1.6-1.5-1.9-1.3-2 .6-.3 3 2.8 3.2 2.6.6-.4-2.2-2.5-3-3.7-3.7-4.8-.1-.2 1.4 1.2 3.4 3.2 5.5 5.6 7.7 6.3 20 6.7 3.7.1 7.2.3 7.6.4.4.1 1.5.3 2.4.4 2 .4 2.9.8 4.4 2.3 1.2 1.2 1.9 1.2 1.3.1-1.5-2.9-7.2-4.8-13.9-4.8-1.5 0-7.1-.7-8.5-1.1-.7-.2-.3-.2 1.5-.1 7.7.4 12.1.4 12.1.2 0-.4-.6-.6-5.7-1-12.7-1.1-17.3-2.5-21.8-6.8-.9-.9-2.6-2.4-3.8-3.4-1.2-1-3.1-2.7-4.3-3.8l-2.1-2 2.3 1.1c1.2.6 2.7 1.5 3.3 1.9s1.2.9 1.3 1c.1.1.7.6 1.2 1 3.6 3.1 4 2.5.5-.8-6.7-6.3-16.5-9.7-24.8-8.6M289 73.8c-4.8 1.6-6.2 2.5-9.3 5.7-7.3 7.7-10.5 10.8-12.1 11.6-2.1 1.1-.8.7 1.6-.4 3.3-1.6 5-3 9.3-7.4 5.6-5.7 9-8 13.7-9.6.8-.3 1.4-.5 1.4-.6-.1-.3-2.7.1-4.6.7m4 .4c-6.3 2.8-8.5 4.4-13.6 9.6-5.7 5.8-8.9 8.3-11.9 9.1-4.5 1.3-6.9 1.7-10 1.8-2.5 0-2.9.1-1.9.2 3.7.7 9 0 13.7-1.6 3.5-1.2 3-.6-.7.9-3.9 1.6-9.8 2.8-12.3 2.4-1.6-.2-3.8-.3-3.6-.2 3.2 3.2 17.3.3 24.8-5.1 1.5-1.1 5.3-4.2 5.7-4.7 1.3-1.6 8.5-5.7 13.2-7.6 3.5-1.4 4.3-1.9 2.7-1.6-2.2.4-5.4 1.6-8.5 3.1-3.7 1.8-3.2 1.1.9-1.3 1.3-.8 2.3-1.4 2.2-1.4-1.2 0-6.2 2.7-9.9 5.4-3.1 2.2-3.5 2.1-.9-.2 4.2-3.9 10.7-6.9 15.8-7.4 3-.3 2.9-.7-.1-.5-2.8.2-5.1.7-7.6 1.7-1.1.4-1.3.5-.9.1 1.2-1 4.1-2.1 6.6-2.5 2.9-.5 2.9-.7-.1-1-1.4-.1-1.8 0-3.6.8m19.6-.3c-1 .7-.5 2 .9 2.6 2.6 1 7.9 6 9.5 9 1.8 3.4 3.7 10.1 3.8 13.4l.1 1.5.2-1.6c.5-3.5-.4-8.8-1.8-11.7-.4-.7-.6-1.3-.5-1.4.1-.1.6.9 1.2 2.2 2 4.2 2.5 10 1.4 15.9-.9 5-.9 6.4-.1 3.6 3.1-10.4 2.2-17.6-2.9-25.2l-1.2-1.8 1 .8c1.5 1.2 3.7 5 4.8 8.3 1.3 3.9 1 15.2-.5 17.5-.2.3-.8 2.5-1.3 4.9-.5 2.4-1.7 6.5-2.6 9.1-2.4 7.2-2.6 10.5-.8 14.9.7 1.7 4 5.9 4 5.1 0-.1-.2-.4-.4-.6-.7-.6-1.9-3.2-2.4-5.2-.2-1-.5-2-.6-2.2s0-.3.1-.3.4.6.6 1.4c1.2 3.9 3.6 6.9 6.6 8.5l1.4.8-1.6-1.8c-2.4-2.7-4.3-5.8-4.9-7.8-.6-2.2-.9-4.5-.6-4.7.1-.1.3.5.4 1.2.3 3.3 2.3 6.7 6.4 11 1.4 1.5 2.8 3.3 3.2 4.1.6 1.1.7 1.3.7.8 0-1-1.8-4.4-3.4-6.2-1.4-1.6-3-3.8-3-4.1 0-.8 6.7 6.3 7.8 8.2.2.3.3.4.4.4.3-.3-.8-2.5-2.5-5.1-1.8-2.7-1.1-2.3 1 .6 3.8 5.2 4.1 10.1 1.1 16-.6 1.2-1.2 2.6-1.3 3.1-.1.4-.4.9-.6 1.1-1.1.8-2.1 8.2-1.2 8.8.2.1.2-.2.1-1.1-.4-2.9.7-6 3.8-11 3.5-5.8 3.9-10.7 1.2-15.7-1.1-2-.8-2 .5 0 2.8 4.4 2.9 10.4 0 14.9-1.2 1.9-3.7 6.9-3.7 7.3 0 .1.6-.8 1.3-2.1 4-7.1 5-9.9 5.1-13.1v-1.6l.2 1.2c.3 2-.2 4.6-1.3 7.4-.6 1.4-1.2 2.8-1.3 3-.3.6 1.2-.9 1.7-1.6.9-1.7 1.8-6.4 1.7-9.4-.1-4.6-.9-5.8-7.4-11.7a46.8 46.8 0 0 1-5.9-7.6c-2.1-3.4-3.3-9.7-2.8-14.1.2-1.8.2-1.7.4 2.3.2 4.3.8 6.8 2.3 9.7.7 1.4.7 1.3-.1-2.3-1.3-6.1-1.3-8-.3-18 1.1-10 1.1-12.9 0-17-.2-.8-.4-1.9-.4-2.3v-.7l.3.7c1.5 3.6 2 9.2 1.4 15.1-.5 5.1-.4 5.9.2 1.5.8-5.5.8-6.1.2-10-.6-4.1-.6-4.8.1-2 1 4.2 1.2 8 .6 11.9-.7 4.2-.2 3.8 1.1-.9 1-3.6.8-7.8-.4-11.6-.4-1.3-1-3.2-1.2-4.3-1.1-4.8-5.9-10.3-10-11.3-4.2-1.1-8.8-1.4-9.8-.7m-1.2 5.1c0 .2.6 1.1 1.4 1.9 1.5 1.8 2.7 4.1 4 8.1 1.2 3.5 2.6 5.8 5 8.3 2.9 3.1 2.5 2.3-1.7-3.8-3.1-4.4-.5-2.2 3.2 2.8.4.6.8.9.9.7.1-.2-.6-1.2-1.6-2.3-1.9-2.3-3.1-4.4-4.1-7.1-1-2.8-2.4-5.4-3.8-6.9-1.6-1.7-3.3-2.6-3.3-1.7m-7.3.7c-2.1.8-4.5 2.5-6.6 4.4-1.7 1.6-4.6 3.9-6.9 5.5l-.7.5.7-.3c1.2-.4 2.6-1.2 6.6-3.6 5-3 5.6-3.1 1.8-.3-3.5 2.5-5.4 3.6-8.4 4.6-3.4 1.1-9.1 4.5-8.5 5.1.2.2 4.6-1.2 6.1-1.9.8-.4 2.7-1.2 4.3-1.9 3.2-1.4 7.5-3.7 9.5-5.2 1.8-1.4 4.6-4 4.6-4.3 0-.1.2-.7.4-1.2.9-1.7-.5-2.4-2.9-1.4m-6 .8c-2.7.9-7.3 3.7-11.5 7.2-4 3.3-5.4 4.3-3.5 2.4.8-.8 2-1.9 2.7-2.4 1.2-1 1.3-1.7.1-1-.7.4-3.2 2.4-8.8 6.8-1.5 1.2-2.9 2.2-3.1 2.2s-1.5.5-2.9 1.2c-6 2.8-13.2 3.9-19.1 2.9-1.5-.2-1.2.4.4.9 2.5.8 7 .7 12.1-.1l.8-.1-.8.4c-2.6 1.2-11 1.5-14.1.5-2.6-.8-3.6-1.4-7-3.8-4-2.8-3.7-2.7-3.9-2.5-.1.1.5.9 1.4 1.8 3.8 3.9 7.2 5.9 10.9 6.5 2.3.3 2.2.8 0 .8-3.9 0-8.4-2.6-14.5-8.4-2.6-2.4-5-3.6-7.3-3.6-1 0-1 .1.6.4 2.7.6 3.7 1.3 8.2 5.7 2.5 2.4 4.9 4.6 5.9 5.2.9.6 1.6 1.1 1.6 1.1-.2.2-3.1-1.4-4.8-2.8-1-.8-2.2-1.7-2.5-2l-.7-.5.7.9c4.6 6.6 9.7 7.9 19.9 5.2 1.5-.4 3.6-.9 4.7-1.1 3.9-.7 10.7-4.6 16.2-9.2 1-.9 3.5-2.7 5.4-4.2 1.9-1.4 4.1-3.1 4.7-3.6.6-.5 3-2.1 5.3-3.5 4-2.8 5.2-4 2.9-3.3m-24.2 2.2c-.9.7-2 1.7-2.6 2-.6.4-.9.8-.8.9.4.2-3.6 2.6-5.9 3.5-4 1.6-9.6 2.5-14.2 2.3-2.1-.1-2.7-.1-2 .1 4.1 1.1 14.5.2 18.3-1.6 2.1-1 9.9-8.5 8.9-8.5-.1-.1-.8.5-1.7 1.3m-168.6.1c3.7 4.2 1.7 8.4-5.4 11.5-2.8 1.2-5.8 2.9-5.6 3.1.6.6 9.8-3.9 11.7-5.7 1.3-1.3 1.5-1.4 1.3-.8-.3 1-2 2.5-4.9 4.2-2.7 1.6-2 1.7 1.2.1 4.5-2.2 5.8-4.6 4.8-8.6-.3-1.1-2.6-4.2-3.2-4.3-.2.1-.1.3.1.5M308.7 84c-1.8 3.8-10 9.5-16.5 11.5-1.8.5-1.9.6-1.3.9 2.5 1 3.5 1.6 4 2.6.3.6.8 1.4.9 1.7 1.4 2.5-2.5 7.9-5.7 7.9-1.8 0-2.2 2.1-.9 4.6.8 1.6 1.5 2.2 1.2 1.1-.5-2-.2-3.1.7-2.4 1.8 1.3 3.9.3 4.2-2 .6-4.1 4.6-7.8 9.7-8.8 1.5-.3 3.4-.7 4.3-1 2.1-.6 4.9-.5 8.4.2s4 .4 1.4-1c-3.1-1.6-4-2.9-5.1-8-.9-4-1.4-5.2-3.1-7.3-1.4-1.7-1.4-1.7-2.2 0m-67.6 0c11.1 4.2 15.6 4.6 23 2.2 4.8-1.6 5.3-1.9 1.5-1.1-5 1.1-13.5.9-19.1-.6-2.5-.7-4.3-1-5.7-1h-1.1l1.4.5m94.7 1.7c-.1 1.1-.1 2.3-.1 2.6.5 2.2 1.1 4.6 1.7 6.5.6 1.8.6 2.4.5 4-.4 4.4-1 8.3-1.5 9.2-.9 1.7-1.8 5.2-.9 3.7 2.1-3.8 3.4-8.1 3.6-12l.2-2.8.4 1.6c.5 2.4.2 5.9-.8 9-.4 1.4-.8 2.5-.7 2.6.5.5 2.8-6.3 2.8-8.4.1-2.7.3-3 1-1.4 1.3 3 .4 9.1-1.8 12.8-.7 1.2-1.6 3.2-2 4.5-.4 1.3-.9 2.9-1.2 3.6-1.3 3.4-1.3 8.5-.1 11 .4.7.6 1 .5.7-1.1-4.3-.8-7.7 1.1-12.5 1-2.4 4.1-8.3 4.3-8.1.1.1-.3.9-.8 1.8-1.2 2.2-2.9 6.5-2.8 7 .1.2.3-.1.5-.7.7-2.1 2.5-5.4 4-7.2.4-.4.9-1.4 1.3-2.1.3-.7.6-1 .5-.7-.2.8-.8 2.1-2.6 5.5l-1.3 2.4 1-1.1c3.3-3.7 5.2-8 5.2-12.3 0-2 0-2.1.3-.9.1.7.2 2.1.1 3.2-.2 2.8.5 1 .8-2.1.5-5.2-1.5-8.9-6.5-12.6-2.3-1.7-2.4-1.5-.2.7.9 1 2.1 2.5 2.5 3.4 1.1 2.1 1.1 2.6 0 .6s-1.4-2.3-4.1-4.8c-2.6-2.4-2.4-1.8.6 1.8 1.6 2 1.4 2.1-.4.2-1.9-2-3.4-4.9-4.1-8.1-.3-1.4-.6-2.5-.6-2.6-.2 0-.3.9-.4 2M92.4 84.4c-.1.1.1.5.3.9 3.6 5.2.3 9.4-9.5 11.8-1.7.4-3.8 1.1-4.7 1.4-3.3 1.3-7.8 2-17 2.7-7.2.5-8.9.7-7.9.9.4.1 1.6.1 2.5 0 1-.1 2.9-.2 4.4-.2 4 0 9.9-.5 12.4-1.1 14.2-3.1 17.1-4.2 20.6-7.4 1.6-1.5 1.8-1.6 1.4-.9-1.9 3.3-7.6 6.1-16.2 7.9-3.6.8-4.9 1.2-3.6 1.2.7 0 7.3-1.3 9.4-1.9.6-.2 1.4-.3 1.7-.4 1.4-.3 3.4-1 4-1.4.4-.3 1.7-1 3-1.7 5.2-2.8 5.8-7.9 1.2-10.8-1.6-1.2-1.7-1.3-2-1m42.7 2.1c4.1 2 8.1 2.8 14.2 3 5.5.2 14.2 1.6 17.5 2.7 3.2 1.2 6.3 3.2 6.3 4.2 0 .3.1 1 .3 1.7.3 1 .3 1.3 0 1.7-.2.3-.3.7-.3.9 0 .2-.3.9-.6 1.6-1 2.3.2 1.6 1.4-.8 1.3-2.5.7-4.8-2-7.6l-1.6-1.7 1.2.8c3 2 4.4 4.4 4.2 7.4-.1 1.1 0 2 .1 2 .4 0 .7-2.4.4-3.4-.1-.5-.3-1.4-.4-1.8-.2-1.7-2-3.8-4-4.9-.4-.2-1.2-.6-1.7-1-2.8-1.7-10.2-2.8-21.9-3.3-6.2-.3-9.3-.7-12.5-1.9-2.9-.7-3.1-.7-.6.4m75.4-.4c-1.2.3-3.7.6-5.5.7-4.6.3-4.6.7 0 1.1 2.3.2 2.6.1 4.8-.7 4.1-1.6 4.4-1.9.7-1.1M89.7 87.5c-3 2.4-3.3 2.5-7.2 2.4-3.7-.1-5.5-.4-7.1-1.2-4.1-2.1-13.4-2.2-15.9-.2-.6.5-.2.5 1 0 2.8-1.1 9-.4 14.1 1.5 6.4 2.4 12.1 2 15.3-1.1 2.3-2.1 2.1-3.3-.2-1.4m2 .2c-.1 3.3-2.4 5-8.1 6-1.4.2-3.6.6-4.8.9-1.5.3-4.8.5-10 .6-6.8.2-15.4 1.1-16 1.7-.3.3 21.2.1 23.8-.3 12.8-1.7 17.7-4.4 16.1-9-.5-1.5-.9-1.4-1 .1m172.9 4.5c-.3.1-.4.2-.1.2.2 0 .6-.1.9-.2.3-.1.4-.2.1-.2-.2 0-.6.1-.9.2m-213.8.6c-2.6.4-8.5 3.9-12.1 7.2-1.3 1.1-5.2 10-5.2 11.6 0 .5 1.1-1.4 2.1-3.8 2.2-5 4.6-8.3 6.8-9.4.6-.3.8-.4.5-.2-2.4 1.5-5 5.3-6.9 9.8-.6 1.4-1.5 3.3-2 4.3s-1.5 2.6-2 3.6l-1 1.9.8-.8c1-.9 1.9-2.5 2.7-4.5 3-7.9 5.7-11.5 10.5-13.7 6.7-3.1 11.1-3.9 23.4-4.2 5.9-.1 9.1-.4 9.1-.9 0-.1-1.2-.1-2.6 0-1.4.1-4.2 0-6.1-.1-1.9-.1-3.7-.3-4-.3-.3 0-3.2-.2-6.5-.4s-6.1-.4-6.1-.3c-.1 0-.7.1-1.4.2m68.3 1.6c-1.8.6-3.9 1.8-3.9 2.2 0 .4.7.2 3.1-.7 3.5-1.4 6.2-.7 9.9 2.4 3.1 2.6 5.2 2.8 2.5.3-5-4.7-7.4-5.6-11.6-4.2M283.4 98c-5.8 3.4-7.1 7.2-4.2 12.6 2.8 5.4 3.2 8 3 19.2-.3 12.2.3 13 9 13.5 3.6.2 3.9 0 2.9-2.1-1.2-2.6-2.4-3.2-8.2-4.1l-.9-.1v-2.1c0-1.7.1-2.5.7-3.7 1.2-2.8.7-7.5-1-9.3-2.2-2.4-.2-9.9 3.6-13.5 2-1.8 2.1-2.4.9-2.5-2.5-.2-4.6-1.5-4.6-2.8 0-.5 0-.5.7.1 1.2 1.1 1.8 1.3 3.8 1.3h2l-1.4-.5c-2.1-.8-3.8-3.5-3.8-6-.1-1.2-.4-1.2-2.5 0m3.7-.2c-1.3 2.4 2.2 5.7 5.2 4.8 2.1-.6 2.1-.7.3-2.3-2.4-2.3-4.9-3.5-5.5-2.5m-165.7.6c-2.4.3-4.3 1.5-8.2 5.1-2.5 2.3-4.1 3.6-5.7 4.5-2.6 1.5-2.6 1.5-1.2 1.3 1.5-.1 5.8-2.3 7.5-3.9 3.6-3.2 8-4.1 11.2-2.4 2.2 1.2 5.6 3.5 7.3 5 4.8 4.1 9.2 4.2 18.3.5.4-.2 1.3-.3 1.8-.2 1.1.1 1.4-.3.5-.7-.8-.4-2-.3-4.1.4-6.3 2.1-12 2.1-13.9-.1l-.5-.6h1.4c.8 0 1.7-.1 2-.2.6-.2.8-.9.3-.9-3.2-.1-4.5-.5-9.1-3.3-3.4-2-5.4-2.8-7.2-2.9h-1.1l1.2-.3c1.6-.3 4.1.3 6.1 1.5 3.1 1.9 6.2 3.1 7.9 3.1 2.9 0 7.4-1.4 7.7-2.4.3-.8 0-.9-1-.2-1.2.9-3.5 1.5-6.1 1.7-2.6.2-2.7-.1-.1-.5 2.2-.4 4.7-1.3 5.2-1.9.5-.6-.9-.4-3.1.4-3.6 1.3-6.4 1-9.6-1.1-2.9-1.8-4.5-2.3-7.5-1.9m-53.5.2l1.5.2-1.6.1c-.9 0-2.9.1-4.5 0-13.1-.3-21.6 3.1-25.4 10.1-.9 1.7-1.1 2.7-.5 2.7.1 0 .3-.4.4-.8.4-1.9 4-6 6.6-7.6 3.1-1.8 8.3-2.8 16.4-3 11-.3 17.2-1.6 8.9-1.8-1.9 0-2.6 0-1.8.1m94.2 3.8c0 .2.4.7.8 1.3 1 1.3 1.5 3.3 1.2 5.7-.2 2.3.3 3.5 2.3 5.6 3.3 3.4 10.6 3.4 19.4-.1 4.6-1.8 7.1-2.4 11.1-2.6 3.5-.2 3.7-.2 3.1-.6-2-1.2-7.8-.4-15.2 1.9-6.2 2-11.9 2.7-14 1.7-.8-.3-.7-.4 1.3-.5 1.5-.1 4.1-.7 8.7-2 3.6-1 7-2 7.5-2.2s1-.4 1-.5c0-.5-1.7-.3-6 .8-7.7 1.9-11 2.4-13 2.2-2.3-.3-2.6-.5-.7-.5 1.4 0 4.2-.7 4.2-1 0-.1-.8-.1-1.9-.1-4.4.2-6.4-1-6.4-3.8 0-1.7-.5-3.2-1.4-4.1-.7-.9-2-1.6-2-1.2m-96 .5c-5.5.7-12.4 4.3-12.4 6.4 0 .8.4.6 1.1-.3 1.9-2.6 7.2-4.9 12.5-5.5 4.2-.4 5.5-.9 2.4-.9-1 .1-2.7.2-3.6.3m243.2.4c-1.5.7-1.6 1.2-.4 1.7.4.2 1.2.8 1.9 1.5 2.9 2.7 5.9 2.8 8.5.3 1.3-1.2 1.1-1.6-.8-2.5-1.4-.6-6.2-1.7-7.6-1.6-.1 0-.8.2-1.6.6m-253.6 1.3c-3.2 1.2-5.7 5-4.7 7 .6 1.2 1 1.1.8-.1-.3-2.3 1.6-4.7 4.8-6.2 2.7-1.3 2-1.9-.9-.7m251.4 1.9c0 .1.3.5.7.9.4.4 1.2 1.3 1.7 2 1.5 1.8 2.8 2.4 5.4 2.4 2 0 2.1 0 1.6.4-.4.3-1.3.4-3.1.4-3.2 0-3.7-.3-6.7-3.4-2.2-2.3-3.7-3.1-3-1.6.1.3.3 2.1.4 4.1.3 6 2.9 8.3 9.4 8.3 4.2 0 9.1-6.8 9.1-12.7 0-1.2-.2-1.2-1.2-.2-2.7 2.9-7.6 3.4-10.9 1.2-1.8-1.1-3.4-2-3.4-1.8m-78.2 1.4c-6.2 2.9-10.9 9.6-12.1 17.3-.2 1.3-.5 2.1-.9 2.5-4.2 4.4-11.1 8-17.8 9.2-7.1 1.3-13.2 1.5-18.3.5-2.6-.5-3.1-.8-8.4-5.6-4-3.5-6.4-4.9-9-5.2-.8-.1-2-.4-2.5-.7-1.3-.6-6.2-1.1-8.6-.9-.9.1-2.5.3-3.6.4-4.6.5-10.2-.4-14.2-2.4-5.9-2.9-14.8-4.1-21.6-2.9-.8.1-2.4.3-3.5.4-1.1.1-2.1.1-2.1.1-.1 0 .8.4 1.9.9 2.1.9 7.6 4.7 8.8 6.1.4.5.7.7.7.6 0-.5-1.5-2.9-2.6-4.2-1.2-1.4-1.3-1.7-.6-1.5.3.1.5 0 .4-.1-.9-1.5 15.7 2.4 17.3 4l.6.6h-.7c-.4 0-2.2-.2-4.1-.5-1.8-.3-4.1-.5-5-.5l-1.6.1-.1 1c-.1 1.3 2.2 4.8 4 6 6.9 4.6 19 5.1 21.7.7.5-.7.9 0 .7 1.2-.5 2.8 8.4 1.3 12.7-2.1.9-.7 1.2-.5.7.7-2.5 5.9 3.1 11.6 11.8 12.1 3.3.2 3.2.3-.9 2.2-5 2.3-5.9 3.6-6.4 9.5-.5 5.7-1 8.3-2.4 10.5-.6 1-.6 1.7.5 6 .8 3.1 3.7-.7 5.1-6.8 1.2-5.1 2.5-7.9 4.4-9.7 1-.9 1-.8.3.4-.9 1.5-1.6 4.2-2 7.8-.2 1.9-.6 4.2-.8 5-.5 2-.5 2 .2 1.4 1.3-1.1 2.9-3.7 4.1-6.6 2.9-7 4.7-8.9 11.7-12.9 3.9-2.2 7.2-4.5 7.7-5.2.5-.8.7-.6.4.5-.9 3.3-3 6.2-6.1 8.4-3.8 2.7-6.1 7.3-7.6 14.8-1.4 7.1-2.6 9.4-6.3 11.3-2 1.1-5.7 1.2-6.5.3-.5-.6-1.6-.5-1.3.2.4.7 1.7 1.3 4.5 2.3 3.1 1 4 .9 8.6-1.8 4.7-2.7 7.7-8.2 8.1-14.6.5-8.6 3-12.7 10.6-17.4 4.2-2.6 5.3-4.2 6.3-9.2.3-1.5 4.5-4.2 9-5.7 7-2.3 12.5-7.7 11.6-11.4-.3-1.4-2.2-3.8-3-3.8-.4 0-.3-1.9.2-3.5.9-3 2.5-5.6 5.1-8.2 1.3-1.4 2.4-2.5 2.3-2.5.2.2-.6.5-1.4.9m102.1 3.8c-.2 1.1-.2 3.2.1 3.8.1.3.2-.4.2-2.1.1-2.6 0-3-.3-1.7m-277.9.8c1.1 2.2.2 3.4-3.6 4.6-1.9.6-2.5 1-3.3 2.2-.6 1-.1.9.7-.1.7-.8 2.2-1.5 3.2-1.6 3.3-.1 5.3-3.1 3.5-5l-.9-1 .4.9m233 3.8c-1.3 1.4-1.7 3.1-1.1 4.2.4.8.8.6.8-.4 0-1.6.7-2.2 2.9-2.1 1.8 0 1.9 0 1.9-.6 0-1.3-3.5-2.1-4.5-1.1m10.1 1.5c-1 .3-1 .8-.1.8 1.1 0 2.7 1 4.7 2.8 2.6 2.3 3.3 1 1.1-2.1-.9-1.4-3.6-2.1-5.7-1.5m-268.7 1.6c-.4.2-.4.3-.2.4.2.1.5 0 .8-.2.5-.4.3-.5-.6-.2m261 1.3c-1.2.2-1.4 1-1.2 4.7.2 3.8.4 4 1 .9.3-1.2.7-2.4.9-2.7.6-.7 3.9-.6 6.8.3l2.4.7.1 1.7c0 .9-.1 2.4-.2 3.1-.6 2.7 1 1.9 2.6-1.3.4-.8.8-1.5.8-1.6 0-.1.5.2 1.1.6 2.8 1.9 3.4 1 .8-1.4-4-3.6-5.8-4.5-10.4-4.8-1.8-.1-3.5-.3-3.7-.4s-.7.1-1 .2m1.1 6c-.4.5-1.4 4.2-1.3 4.5.2.3 1.5.3 2.1.1.7-.3.5-4.4-.3-4.7-.1-.1-.4 0-.5.1m5.5 1.1c-1.3 2.1-1.2 4.2.1 4.2 1.4 0 1.8-1.4 1.1-3.9-.3-1.4-.5-1.5-1.2-.3m6.7 3.1c-2.1 1.6-3.8 2.4-5.6 2.5-2.4.1-7.9-.6-8.4-1-1.1-1-1.7-.3-1.1 1.4.6 1.7 1.3 1.9 3.1 1.3 1.6-.5 2.3-.4 3.7.7 1.1.9 2.1 1 3.4.4.8-.4 6.6-5.5 6.8-6 .4-.7-.6-.3-1.9.7m52.6 4.9c0 2.4.5 5.4 1.4 7.7.9 2.1.8 2.5-.2.9-.7-1.1-.9-1-.7.5.1.7 1.7 3.5 2.7 4.5.8.9 1.4 2.9 1.7 5.6l.2 1.6.3-1.1c.8-2.6-.1-6.8-2.4-11.2-.8-1.6-1.5-3-1.5-3.1 0-.1-.3-.8-.6-1.4-.4-.8-.6-2-.8-3.5l-.2-2.3.1 1.8m-1.1 2c0 .4.1 1 .2 1.3.3.9.3-.1 0-1.2-.2-.6-.2-.6-.2-.1m-46.3 7.1c-.6.5-1.3 1.5-1.7 2.2-.7 1.7-2.8 8.3-3.3 10.3l-.3 1.6-.6-1.8c-.5-1.4-.6-2.6-.7-5.4-.1-4.1-.1-4-1.4-3.6-.6.2-1.3.4-1.8.5-.7.1-.7.2-.6 1.3.1.6.1 2.3-.1 3.8l-.2 2.7-1.4-3.5c-.8-1.9-1.5-3.8-1.6-4.2-.2-.9-.4-1-1.9-1.1-.7 0-1.7-.2-2.3-.4-1.6-.4-2.3-.4-2.3.2 0 1.6-2.1 4.9-3.6 5.8-1.3.8-1.4 1.3-.1 1.4 1.1.1 2.9-.9 3.8-2.2l.6-.9 1 2c4 8 11.3 14.9 17.4 16.4 5 1.2 5.6.1 2.4-4-2.3-2.9-2.9-8.3-1.5-14.3.3-1.4 1.2-5.2 1.7-7 .1-.9-.3-.9-1.5.2m-156.3.1c-1.7.4-3.2 1.1-4.3 1.9-.7.5-2.2 1.4-3.3 2-3.8 1.9-4.2 3-2.6 7.5.6 1.7 1.4 4.1 1.9 5.3 1.2 3.6 2.5 5.8 4.9 8 1.1 1.1 1.3 1.4 1.8 3.3 1.9 7.5 5.1 11.3 9.5 11.3 1.4 0 1.5-.3.3-1.1-2.7-1.7-4.7-5.2-4.9-8.7-.2-3.1-1.8-5.4-4.1-5.9-.7-.2-1.5-1-1.5-1.6 0-.9 3 .1 5.5 1.8 1.1.8 2 1 2 .6s-1-1.6-3.2-3.9c-7.8-8.1-8.2-15.6-1.1-19.8 1.2-.9 1-1.2-.9-.7m104.5.1c-.9.1-3.1.7-4.9 1.2-1.8.5-4.6 1.3-6.1 1.6-1.5.4-2.6.8-2.5.9.1.1.3.4.5.7.2.3 1 .7 2.2 1.1 3.5 1.1 4.9 2.5 13.1 12.5 1.2 1.5 2.3 2.8 2.4 2.9.1.1 1.6 2 3.3 4.2 5.8 7.7 9.7 10.6 17.7 13.3 8.2 2.7 19 2.9 25.5.3 2.3-.9 8.7.8 12.1 3.3 2.1 1.5 3.1 1.7 5.7.9 2.6-.8 2.8-1.1 2.7-4.9 0-3.5-.3-4.2-2.2-6-2.7-2.5-4.6-3-7.6-1.7-2 .8-2.9.9-4 .6-1-.3-.7-.6.8-.8 3.4-.4 5.9-6.4 3.6-8.7-1.4-1.4-2.6-.7-2.3 1.5.4 3.2-4.9 5.6-9.2 4.1-7.2-2.5-13.2-6-18.7-11-6.4-5.9-9-7.6-12.4-8.4-1.5-.4-2.3-.8-3.9-2-7.3-5.4-10.3-6.5-15.8-5.6m96.5 1.4c0 .1.4.8.9 1.5 1 1.5 1.4 2.8 1.7 5.4l.2 1.6v-2c0-2.3-.4-4.1-1.5-5.6-.5-.8-1.3-1.4-1.3-.9M234 149.4c-1 .2-2.1.6-2.5.9-.9.6-1 1.6-.2 1.5 2-.3 2.5-.1 6.3 1.7 7.5 3.7 14.3 9.2 17.2 13.9 2.1 3.4 3.3 4.9 6 7.5 2.5 2.5 2.4 2.6-.5.4-1.9-1.4-4.4-3.9-7.2-7.1-2.2-2.5-2.7-2.9-2.7-2.2 0 .6 3.4 5.4 5.3 7.5 3.2 3.5 9.1 7.7 15.1 10.6 4.4 2.2 8.9 4.5 8.3 4.4-.3-.1-1.7-.3-3.1-.6-5.5-.9-14-5.6-18.2-9.9-2.9-3.1-7.5-8.5-8-9.6-5-11.2-20-18.6-26-12.9-.7.7-.4 1 1.4 1.2.8.1 2.2.4 3 .6.8.2 2.4.6 3.6.8 5.3 1 8.9 3.3 12.9 8.4 5.7 7.1 13 15 15.6 16.8.7.5 1.9 1.3 2.5 1.8 2.4 1.8 6.1 3.4 11 4.7 5.4 1.5 8.9 2.1 20.5 3.7 2.6.4 5.9.8 7.4 1.1 6.4.9 17.9 1.2 23.5.5 2.4-.3 5.1-3.2 5.1-5.5v-.7l-.7.8c-1.6 1.9-4.3 2.9-7.6 2.9-1.1 0-3 .1-4.1.3-1.4.2-2.1.2-2.3 0-.2-.2-2.7-.6-5.7-1-2.9-.4-6.6-.9-8.1-1.2-1.5-.3-4.3-.7-6.1-.9-9.6-1.2-13.2-2.3-22.8-7.1-3.9-1.9-11.5-9.6-15.3-15.2-4.3-6.5-15.6-16.8-19.6-17.8-1.9-.6-2.1-.6-4-.3m-73.3 7.3c-.1.1-.2.4-.2.7 0 .4.1.5.3.3.2-.2.3-.5.2-.7-.1-.3-.2-.4-.3-.3m115.9.6c1.9.9 4.5 2.8 7.6 5.6 8.5 7.7 13 10.7 16.1 10.7 2.3 0 2.4 0 1 .6-1.2.5-2.1.5-4.4 0-4-.9-5.9-2.4-17-12.6-2-1.8-4.1-3.6-4.6-4-1.8-1.3-1.1-1.5 1.3-.3m-58.6 1.1c-.6.1-1 .3-1 .5s.4.3 1 .5c2.5.9 6.5 3.6 7.8 5.4 1.1 1.5 1 2-.1.8-1.2-1.3-2.8-2.3-2.4-1.5 2.8 6.8 3.5 11 2.5 15.6-1.7 8.6-4.5 15.2-9.2 22.2-2.7 4.1-2.8 4.2-.7 2.2 5.4-5.3 11.9-17.8 13-25.3.5-3.3.8-3.3.8.3 0 12.1-2.8 18.3-12.2 27.4-2.4 2.3-3.2 3.4-2.6 3.4.1 0 1.4-.9 2.9-1.9 7.8-5.6 12.7-13.1 15.2-23.5 3.2-12.5-6.1-28.4-15-26.1m14 3.4c5.3 7.8 6 21.2 1.7 30-1.2 2.4-1.2 2.5-.7 2.5.8 0 3.3-4.5 4.3-7.7l.6-2v1.6c0 2.9-1.3 6.5-3.5 9.4-2.2 2.9-1.4 3.1 1.1.3 3.2-3.6 4.9-8.3 4.9-14 0-1.8 0-3.2.1-3.2.2.3 2 6.2 2.3 7.6a12 12 0 0 1-.8 7.3c-.5 1-.8 1.8-.8 1.9 0 0 1.3.1 2.9.1 7.8 0 18.4 9.4 22 19.6 2.3 6.5 8.2 12.8 13.8 14.6 5.3 1.7 18.9 1.3 23.3-.7 4-1.8 11.5-4.1 14.8-4.5 2.7-.4 1.5.4-5.3 3.3-2 .9-3.8 1.7-4.1 1.9-1 .6 2.1.4 3.8-.2 2.6-.9 6.8-1.9 8.2-1.9 1.9 0 1.1.5-3.4 2-2.3.8-2.1 1.7.4 1.3 1-.2 1-.2 1 .6 0 1 1.8 2 5 2.6 2.6.5 3.2.3 5.4-1.7.7-.7 1.3-1.2 1.3-1.1 0 .7-1.5 4.4-2 5.1-1.5 2-.6 2.2 1.8.3 2.4-1.8 3.7-3.3 5.1-5.4 1.3-2.1 1.4-2.1.5-.1-1.9 4.2-3.5 6.1-12.1 13.4-5.7 4.9-7.1 6.2-6.9 6.5.1.1 1-.6 2-1.5 1.9-1.7 2.7-2.3 5-3.6 11.7-6.5 16-10.4 18.5-16.8 3.4-8.4 1.1-20-5.3-27.6l-.5-.6-1.5.7c-2.3 1.1-2.9 1-1.5-.5 1.8-1.8 1.9-4 .2-5.9l-.8-1-.5.8c-.3.5-.9 1-1.4 1.2-.5.2-1.1.7-1.4 1-.8.8-3.3 1.3-4.6 1-.6-.1-3.5-.3-6.6-.4-10.3-.3-15.8-.7-19-1.3-1.1-.2-3.1-.6-4.4-.8l-6-.9c-9.6-1.5-15.4-3.3-23.6-7.4L260 185l-3.9-3.6c-2.1-2-4.9-4.9-6.2-6.4-3.1-3.8-5.6-6.4-6.2-6.4-.7 0-.6.3.4 1.6 2.7 3.6 5.2 7.2 5 7.2-.5 0-4.3-3.8-6.1-6.1-3.8-4.8-10.5-11-11.9-11 .1.2.5.8.9 1.5m-26.6-.4c-.5.4-.5.4.3.7 6.2 2.5 7.9 6.9 6 15.5-2.2 10.2-7.5 17.6-15.8 22.1-2.4 1.3-2.5 1.3-8.3 2.6-2.3.5-4.5 1-4.9 1.2-.8.3-8 1.6-9.2 1.6-3 0-11.2 3.5-13.1 5.6-.3.3-.7.6-.8.6s-.5.2-.7.4c-.2.2.8-.1 2.1-.8 2.2-1.1 7.3-3.2 9.1-3.7.8-.3.8 0-.1.5-.4.2-2.8 1.4-5.3 2.7-6.2 3.1-6.5 3.5-5.3 4.9 0 0 .7-.3 1.5-.8 2-1.3 5.1-2.8 9-4.5 4.7-2 5.5-2.2 13.3-4.3 3.9-1 7.3-1.9 7.6-2 .3-.1-.3.3-1.3.8s-4 1.5-6.5 2.3c-7.1 2.1-15.2 5.5-20.7 8.8-2.2 1.3-2.2 1.2-1.2 2.4 1.5 1.8 2.3 1.6 7.4-1.7 3.4-2.2 6.2-3.3 13.1-5.4 5.1-1.5 8.6-3.1 14.5-6.5 4.5-2.6 5.1-3.1 9.8-7.9l3.8-3.9 1.8-3.7c5.6-11.4 5.8-20.2.6-25.3-1.7-1.8-5.7-3-6.7-2.2m-66.5 3.3c-.2.4-.9 1.6-1.6 2.7-.7 1.1-1.3 2.1-1.3 2.2 0 .1-.6 1.3-1.4 2.6l-1.4 2.4.1 2.8c.2 3.7 3.3 12.6 4 11.4 0-.1.3-.6.6-1.1.9-1.7 2-2.4 3.9-2.4h1.7l-.1-1.8c-.1-3-1.5-7.3-3.1-9.4-.9-1.2-2.1-3.6-2-3.9.1-.2.3.1.5.6s.6 1.1.9 1.3c.5.4.5.4 0-.4l-.5-.8.8.8c1.5 1.7 3.3 2.5 3.6 1.6.1-.2-.8-2.2-2-4.4-1.2-2.3-2.1-4.3-2.1-4.5.2-.7-.3-.5-.6.3m79.5.1c-.1.1.1.7.4 1.2 1.8 2.9 2.2 6.9 1.3 11-1.6 6.5-2.8 11.1-3.3 12.2-1.1 2.3-2 2.9-1.2.7.5-1.3 1.5-5.7 2.2-8.9.6-3 .6-10.6-.1-10-.1.1-.3 1.9-.7 4-1.3 9-2.5 12.9-6.1 19.1-2.4 4.1-5.4 7.5-9.7 10.9-1.4 1.1-3 2.4-3.5 2.9-1.3 1.2-5.8 3.2-10.5 4.8-8.3 2.6-9.9 3.3-12.6 5.5-1.4 1.1-1.7 1.8-.4.8 2.5-1.8 7.1-3.6 10.5-4.2 14.6-2.5 28.9-12.8 33.5-24.1 4.1-9.9 5-16.7 3.3-22.2-.8-2.4-2.5-4.6-3.1-3.7m-13.7 2c-.2.1-1.1.4-2 .8-1.1.4-2.2.6-3.3.6-1.5 0-2.3.3-2.3.8 0 .2 3.8 2.6 4.2 2.6.2 0 .9.4 1.6.9 3.3 2.2 4.1 2 4.1-1.3-.1-3.8-.7-4.9-2.3-4.4m132.6 2.1c0 .4.1.6.2.5.1-.1.2-.4.1-.7-.2-.7-.3-.6-.3.2m-142.4 5.9c0 .3 2.5 1.5 3.3 1.5.2 0 1.3.6 2.6 1.3 1.2.7 2.3 1.3 2.3 1.3l1.8 1.1 1.7 1.1.4-1.1c.5-1.5.4-1.5-3.8-3.4-4.5-2-8.3-2.9-8.3-1.8m62.1 13.8c3.1 2.2 12.7 12.2 11.7 12.2-.1 0-1.4-1.1-2.9-2.4-1.5-1.3-3.4-2.9-4.2-3.5-1.7-1.3-9.6-8.9-9.9-9.6-.3-.5 1.6.6 5.3 3.3m-106.2-2.8c-.1.1-.2 1.8-.2 3.9v3.7l1.7 3.4c2 3.9 2 4.6.4 4.6-1.5 0-1.5.4 0 1.9l1.4 1.4-.1 2c-.2 3.1.1 3.4 1.9 1.6 3.6-3.7 3.5-7-.1-12.4-2.1-3.1-3.6-6.4-4.3-9.2-.2-.9-.5-1.2-.7-.9m-10.4 2.5c-2.3 1.8 3.7 8.5 9.4 10.4 2.4.8 2.4.7-.1-1.8-2.6-2.7-3.9-4.6-4.7-6.8-.9-2.4-2.9-3.2-4.6-1.8m45.9 1.9c-.7 3.4-3.6 7.1-6.5 8.1-4 1.4-3.1 1.8 1.7.6 5.3-1.3 7.5-3 9.4-6.6l.8-1.6-.6-.4c-1-.7-1.5-.5-1.9.7-.2.6-.7 1.5-1.1 1.9l-.6.8.6-2.2c.6-2.2.6-2.2 0-2.6-1.1-.8-1.4-.5-1.8 1.3m70.1 5c2.2 1.3 8.6 7.6 9.7 9.6 1.8 3.2 1.1 2.8-3.3-1.8-2.4-2.5-5.5-5.7-7-7.2s-2.4-2.5-2-2.2c.4.2 1.5 1 2.6 1.6m41.4 4.6c2 .2 5 .4 6.8.4 1.8 0 4.5.2 6.1.4 3.5.5 11.6 1.2 14 1.2 1.6 0 1.7.1.9.3-.5.2-4.5.3-12.3.3-12.6 0-16-.3-20.6-2.2-3.4-1.2-3-1.2 5.1-.4m-55.2 2.8c-3.9 1-10 3.7-13.9 6.3-9.9 6.4-25.7 22-25.6 25.4 0 .4 0 .4.4-.1 7.6-10.1 17.9-18.4 31.1-25 5-2.5 6.8-3.2 8.2-3.5 5.7-.9 13.5 1.6 17.6 5.5 2.1 2 2.6 2.2 2.3.7-.1-.8-.6-1.4-2.2-2.9-3.7-3.5-5.5-4.6-9.9-6.1-1.4-.4-6.7-.6-8-.3m-93.2 1.9c-1.1 1.2-1.4 5.9-.5 8.9 1 3.3 3.7 6.5 6.6 8.1 3 1.6 3.4 1.1 1.1-1.4-3.5-3.6-5.1-8.7-4.2-12.9.6-2.5-1.5-4.4-3-2.7m158.5 1.8c5.3.1 15 1.2 15.9 1.7 1.4.8-14.7.9-19.3.1-5.6-1-8.2-2.4-3.7-2 .9 0 4.1.1 7.1.2m-165.7 8.2c-2.6 1.9-3.5 3-4.6 5.3-8.7 17.9-10.3 20.3-16.3 24.8-3.2 2.3 1.3.4 5.3-2.2 6-4.1 9.6-8.3 12.1-14.4 1.8-4.3 2.8-6.1 4.7-8.2.8-.9 1.4-1.7 1.3-1.8-.5-.5-5.2 5.2-7.3 8.9-3.9 6.8-4.2 7.2-2.3 2.5 2.1-5 4.7-9.2 7.4-11.9 1.4-1.4 1.7-1.8 1.7-2.6 0-1.6-.3-1.6-2-.4m73 .5c-9.4 5.7-16.5 12.1-19.1 17.3-.3.7-1.5 2.8-2.7 4.7s-2.5 4.2-2.9 5.2c-1.1 2.2-2.9 4.1-5.5 5.7-3.6 2.3-3.8 2.4-12.4 4.3-6.4 1.4-12.4 4.4-12.8 6.3-.1.7.5.6 1.6-.5 2-1.8 8.3-4 15-5.2 5.7-1 8-2 10.7-4.6 2.4-2.3 2.2-1.5-.3 1-1.7 1.7-2.5 2.3-4.3 3.2-2.4 1.2-2.3 1.3.5.7 3.2-.7 5.5-2.4 8.1-5.7 1.7-2.2 1.9-2.4 4.4-7.2.8-1.5 1.7-3.2 2.1-3.8.4-.6.6-1.1.6-1.2 0-1.2 8.6-12.2 12.4-15.9.9-.9 2.7-2.4 4.1-3.4 2.2-1.6 2.7-2.1 2.4-2.1 0 0-.8.6-1.9 1.2m103.5-.6c.6 1-9.2 1.7-12.2.9-3.9-1-3.7-1.1 4.4-1.1 5.3-.1 7.7 0 7.8.2m-113.6 1.3c-8.1 4.2-15.1 11.6-17.8 18.7-2.3 6.2-6.2 10.8-12 14.3-2.1 1.2-1.7 1.5.9.7 6.4-1.9 9.8-5.7 13-14.6 2.7-7.5 8.9-14.5 16.5-18.8.9-.5 1.7-1 1.7-1.1 0-.2-.8.1-2.3.8m36.2.4c3.7 3.8 5.5 14.1 3.4 20.1-1 3-5.3 10.4-5.3 9.1 0-.1.7-1.6 1.5-3.3 3.9-8.1 3.9-16.9 0-21-1.1-1.2-1.9-.9-.9.4.8 1.1 1.6 3.7 1.9 6.7.4 3.8.2 4-.8.9-1.9-6-7-11.5-9.9-10.8-.8.2-.5.5 1.1 1.6 1.7 1.1 4.1 4.2 5.3 6.6 2.7 5.5 2.1 16.5-1.2 21.2-4.1 6-4.2 6.3-.2 3.8 6.8-4.2 10.8-10.9 11.6-19.5.6-6.1.3-8.4-1.6-11.6-1.5-2.5-1.7-2.8-3.5-4.3-2.2-1.4-3-1.5-1.4.1m72 2.5l10.5.2-3.6 1.2c-2 .6-4.4 1.5-5.5 2-3.7 1.5-9.3 3.6-9.5 3.5-.3-.3 4-3 6.5-4.1 1.7-.7 1.9-.7-3.8-1.3-4.2-.5-5.8-.8-9.1-1.8-1.3-.4-.2-.5 1.8-.2 1.4.2 6.1.4 12.7.5m-123.4.4c-1.2 1.3-2.7 4-4.3 7.7-3.4 7.7-3.8 8.6-6 11.2-3.2 3.9-5.4 5.7-10.7 8.7-3.7 2.1-3.9 2-.4-.5 6.2-4.5 7.7-6.5 10.4-14.2 1.6-4.7 2.8-7 4.4-8.8 1.7-1.9 2-2.6.7-1.5-2.8 2.2-5.2 5.6-7.8 11.2-1.1 2.3-2.2 4.5-2.5 4.9-1.2 1.8-4.2 5.1-5.1 5.7-.6.3-1.8 1.1-2.8 1.6-2.9 1.7-10.8 9.1-15.1 14.1-3.8 4.4-7.4 7.1-10.9 8-2.5.7-2.7.8-2.1 1.3.9.7 4.5.1 7.7-1.1l1.1-.4-.5.6c-1.9 2.1-5.9 3.4-9.3 3-2.8-.3-3.4-.1-2.5.8 1.2 1.2 6.8 1.6 9.5.7 3.6-1.2 5.8-3.3 8.9-8.6 3.1-5.3 9.2-10.5 17.2-15 7.5-4.1 13.3-10.9 16.1-19.1.5-1.5 1.8-4.5 2.8-6.6 1.9-3.9 2.2-4.8 1.2-3.7m-13.4 2.8c-3.3 2.2-5.4 4.6-7.8 9.3-2.1 4.1-5.2 8.2-7.5 9.7-.7.5-1.9 1.4-2.7 2.1-2.5 2.2-3.2 2.3-1.3.2 1.6-1.8 3-4.4 4.1-7.3 1.2-3.6 1.7-4.5 2.8-6.2.5-.8.9-1.5.8-1.6-.3-.3-2.4 2-4.1 4.7-6.2 9.5-12.4 14.8-20 16.9-1.6.5-2.7.9-8.8 3.8-4.3 2-11.6 7.5-11.6 8.7 0 .4 3.1-1.5 6.4-3.9 1.2-.9 5.8-3.2 6-3 .1.1-1 .9-2.4 1.9-2.7 1.9-7 5.8-10.1 9.1-1.1 1.2-3.3 3.1-4.9 4.3-1.6 1.2-2.7 2.2-2.5 2.2.5.2 5.1-2.2 6.8-3.6 3.6-2.8 8.1-6.7 10.6-9.3 2.8-2.8 4.4-4.1 7.9-6 2.3-1.2 3-1.3 1.2-.1-4.7 3-7.5 5.8-12.7 12.3-3.4 4.3-8 7.1-13.2 8.2-1.2.3-.3.7 1.5.7 4.6 0 9.8-3.1 13.3-7.9 2-2.7 2.2-2.8.9-.4-1.7 3.2-5.3 7.1-7.8 8.3-1.1.5-1.1.9-.1.7 1.9-.5 5.6-2.8 7.2-4.6 1-1.1 4.3-5.2 5.5-6.8.4-.6 1.5-1.8 2.4-2.8s2-2.2 2.4-2.7c2-2.7 7.6-6.3 13.1-8.5 3.7-1.4 11.6-7.6 14-10.7 1.4-1.9 2.9-4.5 4.7-8.2 2-4.1 4.1-7.2 6-8.9.9-.8 1.5-1.5 1.5-1.5.1-.1-.7.4-1.6.9m72.2.6c0 .1.2.7.4 1.3 1.8 5.1 1.5 10.4-1 17.9-2.5 7.6-4 9.3-10.8 12.7-7.8 3.9-13.1 5.7-26.2 9.1-1.1.3-2.2.6-2.5.8-.3.2-2.8 1.2-5.6 2.3-5.4 2.1-11.8 5.5-13 6.8-.1.1-1.4 1.2-2.9 2.4-3.6 2.9-9.6 8.7-9.6 9.4 0 .4.4.2 1.9-1.1 1.1-.9 2.7-2.1 3.7-2.7 1-.6 3.3-2.3 5.2-3.8 5.3-3.9 9-6 14.9-8.5 4.4-1.8 2.9-.7-2.8 2.1-3.5 1.7-6.1 3.4-8 5.1-1 .8-2.9 2.4-4.4 3.5-2.8 2.2-4.1 3.3-3.8 3.6.2.2.2.2 7.1-4.7 3.6-2.6 7.2-4.5 11.7-6.4 2.1-.9 4.8-2 5.9-2.5 2.1-1 5.8-2.2 6-2 .1.1-.8.5-1.8.9-6.3 2.5-12.3 5.4-15.9 7.9-4.7 3.2-4.3 3.2 1.9.1 4.4-2.2 7.4-3.5 11.1-4.8 2.8-1 7-2.4 9.3-3.3 2.3-.8 6-2.1 8.1-2.8 4-1.4 4.6-1.6 10-4.5 6.4-3.3 11.9-8.1 13.9-12.1 1.4-2.6-.2 3.8-2 8.2-2.1 5.2-5.6 10-11.3 15.6-8.5 8.4-.1 2.9 9.5-6.2 9.1-8.6 14.5-20.4 11.9-25.9-.4-.8-.7-1.6-.7-1.6l-.4-1.2-.4-1-.3 3.6c-.3 3.5-1 6.7-1.5 7.5-.2.3-.2 0-.1-.8 1-8.3.1-14.7-2.1-16.6-.4-.4-.4-.3-.3 1.1.2 1.7-.1 5.3-.4 4.8-.1-.2-.2-1-.2-1.7 0-2.8-2.4-10.2-3.9-12-.3-.3-.6-.6-.6-.5m-99 2.3c-.1.3-.2 1-.3 1.7-.3 2.3-2.9 6.8-5.8 10.2-1.8 2.1-9.1 6.8-13.5 8.7-1.3.6-3.2 1.4-4.4 2-2.2 1.1-4.6 1.7-15.3 3.9-1.3.3-3.9.6-5.6.8-3.3.3-7.1 1.3-13.7 3.8-1.1.4-2.9 1-4.1 1.3-5.3 1.4-12.6 6.4-14.9 10.4-3.3 5.4-2.8 12.1 1.2 18 5.8 8.5 11.9 9.6 13.8 2.3.3-1.2.9-3 1.4-4 1-2.1 1-2.1.1-1.5-.4.3-1.2 1.3-1.9 2.4-1.5 2.3-1.7 2.3-1.7-.4 0-10.3 8.9-22.3 18.4-24.7 2.3-.6 2.6-1.2.6-1.2-2.4 0-7.4 2.4-9.9 4.6-.5.5-1.6 1.4-2.5 2-2.2 1.6-3.6 3.7-5.9 8.4-1.1 2.2-2 3.8-2 3.6 0-.8.9-3.7 1.9-6 1.3-2.9 1.2-3-.3-.9-1.5 2-2.2 3.4-3.3 6.5l-1 2.4.2-2c.3-3.9 3.3-10.8 5.6-12.9 2.3-2.1 9.1-5.5 12.2-6.2.5-.1 2.2-.4 3.7-.7 5.9-1.1 16.5-3.4 16.2-3.6-.2-.2-14.3 2-18.2 2.8-8.4 1.7-13.6 4.5-20.9 11.2a22.6 22.6 0 0 1-2.4 2.1c0-.5 3.4-4.4 5.1-5.8 7.1-6.2 14.6-9 29.6-11.2 7.5-1.1 20.3-4.1 23.3-5.4 1-.5 3.1-1.3 4.6-2 2.8-1.2 6.8-3.6 7.4-4.4.2-.3 1.3-1.6 2.6-2.9 2.8-3 4.1-4.8 4.8-6.7.3-.8.8-1.6 1.1-1.9.6-.4.6-.5-.7-1.6-1.6-1.4-1.4-1.4-2.5.7-3.3 6.7-9.9 13.2-15.7 15.4-1.1.4-1 .4 1.5-1.2 5.3-3.4 10.1-9.2 12.7-15.2l.9-2.2-.6-.6c-.8-.6-1.6-.6-1.8 0m157.4 14.9c-.4.2-1.5.7-2.5 1.1-2.4.9-5 2.4-9.6 5.4-6.6 4.3-14 11.7-20.2 20.2-1.5 2.1-4.6 6.2-6.9 9.1-2.3 3-4.7 6.2-5.4 7.2-.7 1-2.2 3.1-3.3 4.7-1.1 1.6-2.5 3.7-3.1 4.6-3 5-12.4 15.7-19.7 22.6-3.8 3.6-4.7 4.3-2.8 2 5.4-6.3 12-16.9 17.7-28.3 4.8-9.5 5.8-11.2 9.6-16.8 3.5-5 4.1-5.9 4.9-7.5 2.1-4.1 15.3-15.1 25.5-21.1 1.8-1.1 2.5-1.6 2-1.6-.4 0-9.7 5-11.3 6.2-9.2 6.2-18.7 15.4-24.9 24.1-2.6 3.7-2.8 3.8-1.7 1.3 3.4-7.5 15.1-20.2 25.7-27.8 2.2-1.6 2.2-1.7.1-1.1-11.9 3.6-32.6 28.4-36.3 43.4-.9 3.7-11.2 20.3-17.1 27.7-3.5 4.3-9.2 10.8-10.9 12.5-6.9 6.5-11.5 10.5-14.4 12.6-3.2 2.4-5.5 4.7-11.1 11.1-3 3.4-8.3 11.5-7.9 12 .2.2.5-.2 2.1-2.8 3-4.8 8-9.7 14.9-14.6 8.7-6.1 16.6-12.6 19.8-16.1 1.9-2.1 3.6-3.5 3.6-3.2 0 .1-.8 1.1-1.7 2.2-.9 1.1-1.7 2.1-1.6 2.2.1.2-.6 1.2-1.5 2.2-.9 1-1.6 2-1.6 2.1 0 .3-.2.4 3.1-1.6 2.9-1.8 8.3-4.5 8.5-4.3.1.1-.9.7-2.1 1.4-7.3 4.1-15 10.5-20.9 17.5l-1.5 1.7 2.1-2c10.7-10.1 21.6-16.4 36.7-21.3 4.9-1.6 11-4.5 13.9-6.6 1.1-.8 5.1-3.9 5.9-4.6.6-.6-.2-.5-1.8.2-6 2.5-16.4 6.2-16.7 5.9 0 0 1.6-.9 3.6-1.9 9.9-4.9 19.9-13 27.2-21.9 3.3-4.1 2-3-12.1 9.2-7 6-8.1 6.8-18.2 11.4-2.1 1-4.3 2-4.9 2.3-.6.3-1.1.5-1.2.5-.3 0 5-3.4 6.3-4 3.7-1.8 12.8-8.7 12.8-9.7 0-.6-.6-.4-2.6 1-2.9 2.1-5.5 3.7-8.7 5.4-4.3 2.3-4.1 1.8.9-1.7 2.3-1.6 7.1-5.8 11.6-10 2.1-1.9 4.8-4.4 6-5.5 3.3-2.9 7.7-7.4 10.9-11.1 1.5-1.8 3.9-4.3 5.2-5.7 4.4-4.6 8.5-9.9 10.8-14 1.1-2.1.6-1.6-2.5 2.5-1.4 1.8-3.9 4.7-5.6 6.5-1.7 1.8-3.1 3.3-3.1 3.5-.1.4-5.4 5-5.7 5-.1 0 .5-.8 1.4-1.8 1.6-1.7 7.2-8.5 9.5-11.5 1.9-2.5 5.7-8.5 6.4-9.9.3-.8 1.2-2.1 2-3.1 1.5-1.8 1.6-2.2.9-2.2-.6 0-3.3 3-5.5 6.2-.9 1.3-2.3 3.1-3.1 4-.7.8-3 3.6-5 6.1-7.5 9.5-14.1 16.8-17.3 19.2l-1.1.8 1-1c.5-.6 1.9-2 3-3.2 3.1-3.3 10.8-13 14.8-18.7 1.5-2.2 7.3-9.5 8.5-10.7 1.4-1.5.6-1.3-1.9.5a76.1 76.1 0 0 0-9.5 8c-1.4 1.4-2.6 2.5-2.6 2.4 0-.1 1.9-2.8 3.9-5.4 5.5-7.3 13.2-14.3 20.9-19.2 4.2-2.6 6.6-4.3 6.6-4.5.2-.2-.4-.1-1.2.3M131 240.9l-.8.7.9-.6c.5-.3.9-.6.9-.7-.1-.1-.2-.1-1 .6m192.6 11.4c-1.1.7-1.3.9-1.3 1.8 0 .6-.2 2-.4 3.1-.6 3.4-1.4 9.1-1.6 11.7-.1 1.3-.4 3.8-.7 5.6-1.8 11.8-1.3 27.4 1.1 32.9.5 1.2 1.3 1.6 1 .5-.9-3.2-.7-19 .2-25.8l1.1-7.5c.4-2.7 1-7.2 1.4-9.9.4-2.7.8-5.2.9-5.5.3-.7.2-7.7-.2-7.8-.1.1-.8.4-1.5.9m3.7 6.4c-.1.8-.5 2.8-1 4.5-.8 3.3-.9 4.5-.5 6.7 1 5.4 1.6 10.6 2 18 .7 14.9 1.9 25 2.4 21.2.4-2.8 3.6-14.7 4.2-15.3.2-.2.2 0 .1.4s-.2 1.1-.3 1.7c-.1.6-.7 3.7-1.4 6.8-1.1 5.2-1.9 11.6-1.6 11.9.8.8 7.1-21.6 7.1-25.3 0-.5.1-1 .3-1 .2 0 .3 1.1.3 2.9 0 1.6.2 3.8.4 4.9.6 3 .6 9.1-.1 14-.6 4.5-.7 4.9-2.6 11.1-.7 2.4-1.6 5.4-1.9 6.7-.3 1.2-1.1 3.4-1.8 4.8-2.3 4.8-4.4 12.6-3.6 13.4.4.4.7 0 1.4-2.2 1.1-3.7 2.6-7 8.6-19.1 8.4-16.8 9.6-20.8 7.8-27.6-.3-1.2-.7-2-3-5.9-1-1.8-2.5-3.7-3.8-5.1-1-1.1-1.1-1.3-1.1-2.5 0-2.7-1.6-7.3-4.5-13.1-.7-1.4-1.7-3.5-2.2-4.6-1-2.4-4.3-8.3-4.7-8.5-.2-.2-.4.3-.5 1.2m-18.5 2c-3.7 6.5-6.2 15.3-6.6 23.5-.4 7-.8 11.2-1.2 13.6-1.3 6.3-3.7 15.4-5.2 19.7-1.3 3.6-1.3 4.7 0 3.1 1.5-1.9 5.7-10.2 7-13.9.8-2.4.3 7.7-.9 15.6-1.7 11.9-3.4 15.3-13.7 27.4-6.3 7.4-10 10.8-17.5 16-3.6 2.5-5.9 4.2-6.7 4.9-.4.4 1.4-.5 3.1-1.6.8-.5 3.3-1.9 5.5-3.1 11.3-6.3 22.5-16.5 29.2-26.5 2.8-4.1 5.9-13.7 6.2-18.9.6-11.8.4-18.4-.8-21.4-.4-.9-.7-1.9-.7-2.1 0-.2-.2-.9-.4-1.6-.9-2.5.4-23.1 1.9-29.3.4-1.5.6-2.9.5-3-.1-.1.3-1.4.9-2.8 1.5-3.1 1.4-3.1-.6.4m-192.6-2.1c-12.3 3.3-26.1 13.6-28.8 21.4-.6 1.8-.5 2 .4.5 2-3.3 4.8-4.8 9.2-5.1 6.1-.4 10.2-2 13.6-5.1l1.2-1.2-1.4.7c-2.5 1.2-6.5 2.7-6.5 2.4 0-.1 1.1-.6 2.3-1.3 3.9-1.9 8.5-5.3 9.9-7.2.2-.3-1 .4-2.7 1.4-4.1 2.5-7.5 4.2-9.9 4.7-4.7 1-5.5 1.3-7.5 2.3-1.9 1-2.1 1-1.5.4 1.1-1.2 3-2.2 5.8-3.1 5.5-1.7 9.9-3.9 13.5-6.5 2.9-2.1 1.7-1.7-5.2 1.7-4.7 2.3-6.2 2.8-3.4 1 .9-.5 2.6-1.7 4-2.6s3.7-2.2 5.3-2.9c4.2-2 4.6-2.3 1.7-1.5m123.9 6.1c-1.8 1.4-3.8 2.8-9.4 6.4-1.3.9-3.5 2.2-4.8 2.9-1.3.7-2.5 1.4-2.6 1.5-.5.4-6.1 3.1-8.4 4.1-6.1 2.6-9.5 3.6-20.1 5.7-8.9 1.8-11.7 2.5-17.7 4.2-2.3.7-4.5 1.3-4.9 1.4-22.2 5.5-32.5 12.5-41.6 28.3-1 1.7-2.3 3.7-2.9 4.4s-1.7 2-2.3 2.9c-1.9 2.5-3.7 4.4-4.8 5.1-.6.4-1 .7-.9.8.2.2-1.4 1.9-4.4 4.7-3.1 2.9-7.8 5.8-11.3 7.1-1.8.6-1 .6 4.3 0 5.9-.7 10.4-2.5 15-6.1 2.7-2.1 2.8-2.6.2-1.1-1.1.6-2.7 1.4-3.6 1.7l-1.6.6.6-.8c.4-.5 1.5-1.6 2.5-2.5 2.3-2.1 4.4-4.5 5.8-6.6 2.6-3.9 17.9-20.5 20.4-22.3l1.2-.8-1.4 1.7c-1.7 2.1-4.7 6.3-5.9 8.3-.5.8-1.5 2.4-2.3 3.5-.8 1.1-2.2 3.2-3.1 4.6a70.9 70.9 0 0 1-5.7 7.5l-.8 1 .7-.3c2.7-1 7.2-5.1 12.7-11.6 4.8-5.6 6-6.8 13.1-12.8 9.8-8.3 27.6-17 37.2-18.2 6.5-.8 11.2-1.8 14-3.1 2.3-1 2-1.1-1.2-.4-1.5.4-4.8.9-7.3 1.2-2.6.3-6.1.8-7.8 1.1-1.7.3-3.4.5-3.7.5h-.6l.7-.3c1.5-.6 5-1.4 10.2-2.2 13.5-2.3 19-4.5 33.8-13.4 4.4-2.7 8.8-6.3 10.7-9 .5-1.6.2-1.5-2 .3m-.3 19.6c-5.7 6.1-12.8 12.3-17.7 15.5-2.8 1.8-7.8 4.6-8.6 4.8l-.7.2.7-.5c.4-.3 1.4-1 2.3-1.6 6.5-4.3 8.6-5.9 12.7-9.8 2.7-2.6 3.3-3.5 1.1-1.7-2 1.6-3.3 2.5-8.5 5.3-13.1 7.3-18 9.5-13.6 6.3 1-.8 2.9-1.9 4.1-2.7 11.3-6.4 14-8.1 16.5-10.5l1.5-1.4-2.4 1.4c-2.7 1.6-10.5 5.6-10.7 5.4-.1-.1 1.5-1.1 3.4-2.2 3.3-2 10.5-7.3 10.3-7.5-.2-.2-2.7 1.2-6.7 3.6-1.8 1-4.8 2.7-6.7 3.7-11.7 5.9-14.3 7.8-28.3 20.6-4.6 4.2-6.5 6.2-9.3 9.7-1.2 1.5-2.6 3.3-3.1 3.9-.5.6-2.2 2.7-3.7 4.6-1.5 1.9-3.6 4.5-4.7 5.7-1 1.3-2.7 3.5-3.7 4.9-4.9 6.8-7.3 9.7-12.1 14.7-3.4 3.5-4 4.1-8.3 7.9-1.2 1.1-5.4 5.1-9.2 8.9-6.9 6.9-8.7 8.4-10.7 9.5-1.5.8-8.1 3.9-10.6 5-1.1.5-3.6 1.7-5.6 2.7s-4.2 2.1-5 2.4c-1.4.6-1.9 1.4-.8 1.4 1.2 0 3.9-.8 7.2-2.1 1.8-.7 4.1-1.6 5.2-1.9 1-.3 3.3-1.2 5-1.9 1.7-.7 3.3-1.3 3.5-1.3 1.4 0 7.4-3.8 9.5-6 1.9-2 12.5-11.5 16.1-14.6 2.1-1.8 3.2-3.1 9.7-11.9 6.5-8.8 10.5-13.8 19.1-24.5 4.4-5.5 7.2-7.9 17-15.4 4.1-3.1 9.6-6.6 7.8-4.9-.4.3-.9.9-1.2 1.3-.3.4-1.7 1.7-3.2 2.9-9.4 7.7-14.5 13-20.7 21.3-3.2 4.2-3.8 5.3-2.3 3.9.5-.4 3.3-3.1 6.3-5.8 3-2.8 6.2-5.7 7.1-6.5.9-.8 2.1-1.9 2.7-2.4 2.1-1.9 11.9-9 16.7-12.2 5.1-3.4 7.7-5.3 10-7.3 2-1.8 6.7-5.2 13.2-9.7 2.3-1.6 4-3.3 8-8.3 5.4-6.6 5.9-7.6 1.4-2.9m-39.5 8.4c-11.6 2.6-21.1 6.8-28.7 12.8-5.4 4.2-17.1 16.8-20.8 22.2-6.4 9.3-15.1 17.6-23.7 22.4-7.1 4-9.2 4.8-14.9 5.8-2.1.4-4.3.8-4.9 1-.6.2-2.1.5-3.3.8-1.2.3-3.4.8-4.8 1.1-7.4 2-11.2 2.5-22.3 3-2.1.1-3.8.2-3.9.3-.7.6 3.6 1 10.1 1 4.9 0 5.6-.1 17.7-1.8 6.3-.9 6.2-.6-.2 1.2-6.1 1.7-12.3 2.9-16.3 3.1-3.2.2-3.4.4-.7.9 4.1.7 11.8-.2 18.9-2 1.4-.4 2.9-.8 3.3-.9 2.2-.6 9.4-2.8 14.3-4.3 12.3-4 29.4-13.2 35.4-19 3.9-3.8 1.5-2.9-9.4 3.6-5.9 3.5-12.4 6.5-12.9 6.1-.3-.3.8-1.1 4.1-3.1 1.8-1.1 4.4-2.8 5.9-3.8s3.2-2.3 3.8-2.7c1.2-.8 3.3-3.2 6.2-7.1.9-1.2 2.6-3.2 3.7-4.3 1.1-1.1 3.1-3.3 4.5-4.9 3.8-4.5 9.9-10.8 12.1-12.6 1.1-.9 2-1.6 2.1-1.7.4-.4 5.3-4.1 6.6-5 2.7-1.7 5.9-3.9 5.9-4 0-1.6-14.9 7.6-19.4 12-3.9 3.8-3.6 2.7.4-1.5 6.4-6.6 16.3-11.9 31.4-16.7 1.9-.6 3.5-1.2 3.5-1.3.2-.7-2.2-.9-3.7-.6m148.6 5c-.4.4-.3 1 .3 1.7 2.7 3.2-.8 16.7-7.3 28.1-2.2 3.8-4.8 9.2-5.6 11.5-.9 2.5-1.9 6.5-1.9 7.2 0 .4-.2 1.3-.5 2.1-2.1 5.7-2.5 11.5-1.7 21 .5 5.8.4 9.7-.4 12.9-.3 1.2-.8 3.4-1.1 4.9-.3 1.5-.7 3.4-1 4.3-.9 3.4.6 2.1 1.6-1.4.4-1.2 1.2-4.2 1.9-6.8l1.3-4.7v-10.7c0-11.8 0-12.1 1.9-19.1 2.8-10.5 3.9-13.6 7.3-19.5 9.1-15.8 11.7-23.6 9.8-29.9-.6-1.7-3.5-2.7-4.6-1.6m-63.6 5c-.5.6-.9 1.3-.9 1.6 0 1-2.7 6-5.5 10-1.6 2.4-6.5 7.4-9 9.3-3.9 2.9-6.8 5.3-6.8 5.6 0 1.1 7.5-3.5 11.7-7.2 3.4-3 3.4-3 2.4-1.6-3.6 4.7-7.8 8.7-13.3 12.6-8.5 6-16 12.2-16 13.3 0 .1.8-.3 1.7-1 4.5-3.3 9.3-6.4 13.5-8.9 9-5.3 12.6-8.6 17.5-16.5 3.9-6.3 6.2-13.2 5.7-17.5l-.1-.7-.9 1m70.9 4.4c-.8 5.8-4.2 13.6-7.9 18.2-.6.7-3.3 6-3.3 6.5 0 .7.5.5 1-.3.2-.4 1.1-1.9 1.9-3.4.8-1.5 2.6-4.1 4-5.9 7-8.6 8.4-13 5.6-16.7-.9-1-.9-1-1.3 1.6m-185.1 6.8c-.9.9-1.5 1.5-1.2 1.4.5-.3 3.3-3 3.1-3-.1-.1-.9.7-1.9 1.6m93.6 3c-1.6 1.3-1.8 1.6-1.2 1.2.6-.3 2.7-2.2 2.5-2.2-.1.1-.7.5-1.3 1m91.8 2.9c-.2.2-.3.4-.3.6 0 .2-.4.7-.8 1.2-2.9 3.3-4.3 5.6-4.3 7.1 0 .8.7 1.2 1.4.7.3-.2.6-.2.8-.1.2.1 1 .5 1.9.9 8.1 3.2 11.4 7.7 11.3 15.2-.1 4 .1 4.8 1.7 7.5.7 1.2 1.9 3.1 2.5 4.3l1.2 2 .1 3.5c.1 4.5.8 5.8 3.7 7 2.2 1 3.5.8 1.8-.2a6.6 6.6 0 0 1-2.8-3.7c-.1-.5-.3-.9-.5-.9-1 0-1.1-.5-.2-1.4 2-2.1.8-7.4-3-12.9-.9-1.3-.8-3.2.3-6.3 1.4-4.2 3.3-5 8.6-3.7 3.7.9 9.5 1 14.1.2 2-.3 2.9 0 6.2 2.4 4.3 3 7 4.4 7.6 3.8.2-.3-.1-.7-1.4-1.8-.9-.8-2.8-2.5-4.1-3.7-3.6-3.3-5.5-4.1-9.2-3.9-5.1.3-6.2.3-7.2-.1-1.4-.6-.4-.8 4-1 2-.1 3.8-.2 4.1-.3.7-.2-3.1-1.8-6.2-2.7-3.6-.9-4.1-2.1-.6-1.2 2.4.6 2.7.5 1.8-.6-1.6-2-4.6-2.5-10.4-2.1-2.5.2-4.3.2-6.5-.1-6.5-.7-7-.9-10.3-4.9-4.4-5.4-4.6-5.5-5.3-4.8m-118 10.3c-15.9 5.4-26.3 13.8-37.8 30.6-1.7 2.5-4.6 6.4-6.5 8.8-7.3 9.1-7.6 10.1-1.2 4.1 3.6-3.4 6.5-6.6 10.2-11.2 5.7-7.2 13.3-15.2 16.9-17.9 1-.8 3.5-2.7 5.6-4.3 3.8-2.9 8.2-5.9 13.1-8.9 4-2.6 4-2.7-.3-1.2m66.8 8c-.2.1-1.1 2.3-2.1 4.9s-2 5.1-2.3 5.6c-.6.9-10.8 11.2-18.5 18.7-3.6 3.5-7.8 8.8-7.4 9.3.1.1 1.8-1.5 3.8-3.4 2-1.9 5-4.5 6.5-5.7 1.5-1.2 4-3.4 5.6-4.9 4.2-4 4.5-4.3 4.7-4.1.3.3-5.6 7.3-9.4 11-5.3 5.2-9.1 9.3-10.3 11-.8 1.2-.6 1 1.8-1.2 1.5-1.4 5.2-4.6 8.2-7.1 7-5.7 10.2-9 13.2-13.6 3.8-5.7 4.5-7.2 5.7-12.2.4-1.5.9-3.4 1.2-4.1 1-2.6.6-5-.7-4.2m89 6.7c-.7.4-.1 1.7 1.4 3.1 4.8 4.4 10 6.1 5.6 1.8-1-.9-2.3-2.5-3-3.4-1.1-1.8-2.6-2.4-4-1.5m-141.7 7.1c-2.5 2-5.8 4.5-7.3 5.5s-4.5 3.1-6.5 4.6c-2.1 1.5-5.2 3.6-6.9 4.8-1.7 1.1-4.9 3.4-6.9 4.9-3.8 2.8-7.2 5.3-12.4 8.9-2.6 1.8-3 2.4-2 2.4.2 0 2.7-1.4 5.5-3 2.8-1.7 6.1-3.6 7.4-4.3 3.4-1.9 6.6-4.1 11.5-7.9 2.4-1.9 5.7-4.3 7.4-5.5 6.1-4.3 7.9-5.9 12.2-10.5 4.1-4.6 3.7-4.5-2 .1M91.1 350c-1.4.2-3.2.4-4 .5-.8.1-1.9.2-2.4.3-4.4.6-16 1.2-23.5 1.4-8.4.1-10.7.3-14 .9-.7.1-2.4.4-3.6.6-6.7 1.1-10.1 2.4-14.8 5.4-4.6 3-5.3 3.7-4.3 4.6.6.5 2.8-.3 5.7-1.9 3.4-2 8.8-3.7 11.3-3.7 1 0 3.7-.4 7.5-1.1 1.1-.2 4.7-.2 10.8-.1 9.9.2 17.5-.2 26.3-1.3 8.2-1 7.3-1.2-1.8-.5-4 .3-17.1 0-21.4-.5-2.8-.3-.5-.7 7.2-1 12-.6 29.8-2.9 31-4 .4-.2-7.7.1-10 .4m145.5 19.1c-6.4 6.3-17.3 14-32.7 22.8-6.5 3.7-11.6 6.9-11.4 7.2.2.2 7-2.2 10.3-3.7 13.9-6.2 22.1-11.9 29.6-20.6 3.1-3.6 7.1-8 7.3-8.1.3-.1.8-1.1.6-1.1-.1 0-1.8 1.6-3.7 3.5"/></svg>