<svg xmlns="http://www.w3.org/2000/svg" viewBox="0 0 430 430"><path d="M202.6 50c-.6.4-1.4 1.1-1.7 1.5-1 1.2-.6 2 .4.9 1.4-1.6 4.4-2.1 6.5-1.2 1.9.8 1.8 1.1-.5 1.3-2.2.2-3.2.5-4.7 1.8-1.9 1.7-1 2.2 1.9 1.1 2.7-1.1 2.8-1.1 6.2.7 2 1 3.4 1.6 4.5 1.7.9.1 2.7.5 4.1.8 1.4.3 3.5.7 4.7.8 2.6.2 9.1 1.4 12.9 2.3 3.1.8 5.3 1 5.3.7 0-.3-5.8-2.5-14.5-5.4-1.3-.4-3-1.1-3.9-1.6-.9-.4-2.5-1.2-3.6-1.6-1.1-.4-3.3-1.5-4.9-2.3-3.4-1.7-4.3-2-8.5-2.2l-3.2-.2-1 .9m-93.2-.2c-.5.2-1.5.3-2.1.3-1.3 0-3.8.9-3.7 1.4.1.2 1 .4 2 .6 2.8.5 5.3 1.9 5.3 3 0 .6-.6.7-2.1.1-3.5-1.2-12.1-1.1-16.6.3-6.9 2.2-8.4 2.8-13 6-7 4.8-11.1 14.3-8.3 19.1a15 15 0 0 0 8.3 6.2c1.3.4 2.6.3 1.5-.1-2.4-.9-6.4-3.9-7.2-5.5-1.5-2.9-.5-10.4 1.6-12.3.5-.5.6-.7-.4 3.7-1.6 7.6 5.2 13.7 15.3 13.7 5.1 0 8.7-1.1 4.1-1.3-1.9-.1-2.6-.2-8.9-2.6-4.7-1.7-5.7-3-5.6-7.1 0-5.6 2.1-9.1 7.5-12.8 5.8-3.9 9-4.7 14.6-3.5 1.4.3 3 .5 3.5.5 2.9 0 4.7 2.3 4.7 6.2 0 2.6 0 2.6-1.8 1.3-1.6-1.2-3.2-2-4.9-2.5-8-2.1-13.6-.7-17.4 4.3-1.9 2.5-1.2 3.1 1 .8 5.3-5.3 14.2-5.1 20.2.4 2.6 2.3 3 2.4 4.8.6 7.6-7.3 5.8-23.3-2.4-20.8m125.4 5.6c0 .1.1.3.3.3s2 .8 4.2 1.7 5 2.1 6.3 2.6c3.5 1.3 5.5 2.2 8.5 4.2 1.5.9 3.1 1.9 3.7 2.1 1.8.7 5.3 3 15.6 9.8 5.6 3.7 10.8 7.1 11.5 7.5.7.4 3.5 2.4 6.1 4.4 2.7 2 5.7 4.2 6.7 4.9 1 .7 2.8 2.1 4 3.1 1.2 1 2.9 2.5 3.9 3.2 1.7 1.4 8.7 7.8 12.5 11.4 1.9 1.8 7.4 7.9 9.9 11.1.6.8 2.4 2.8 4 4.4 5.2 5.5 9.8 10.6 12.4 13.9.6.7 1.3 1.6 1.6 1.9s1 1.2 1.6 2c1.1 1.4 4.5 5.4 7.7 8.8.9 1 2.2 2.4 2.8 3.3.7.8 1.7 2.1 2.3 2.9 1.4 1.6 2 2.8 3.1 6.1 1.2 3.6 1.3 4 .8 5.2-.8 2 .1 2.3 1.7.7 2.2-2.3 5.2-2.5 9.1-.9 2.3 1 2.7.9 1.4-.3-4-3.4-4.3-3.7-4.1-4.4.2-.8.2-.7-5.3-5.4-3.4-2.8-4.3-3.8-9.8-10.2-1.4-1.7-4.1-4.6-5.9-6.4-1.8-1.8-4.4-4.8-5.9-6.5-1.4-1.8-3.9-4.6-5.4-6.3-6.8-7.4-9.7-10.7-11.5-13-1.1-1.3-2.7-3.4-3.6-4.5-3.6-4.5-4.7-5.7-9.3-10.5-2.6-2.7-5.5-5.8-6.4-6.8s-2.4-2.5-3.4-3.2c-2.7-2.1-6.3-4.9-7.4-5.8-5-4.4-9.5-7.6-19.1-13.2-1.3-.8-3.4-2-4.7-2.8-5.5-3.4-7-4.2-8.6-4.9-2.8-1.1-5.3-2.2-7.8-3.5-2.3-1.1-4.8-2.1-7.4-2.9-.7-.2-1.9-.7-2.8-1.1s-1.9-.7-2.4-.7-1.4-.2-2.2-.4c-1.1-.3-8.2-2-8.6-2-.1-.1-.1 0-.1.2m-110.2 1.3c-.4.1-.9.3-1.2.5-.5.3-.8.3-1.7.1-1.7-.4-2.7.3-1.6 1 1.3.8 1.8 5 .8 6.3-.6.7-.7 1.6-.3 1.9 1 .6 3.2-2.5 3.6-5.1.2-1.3.5-1.4 1-.5.4.8 0 3.1-.8 4.6-.3.6-1.1 2.1-1.7 3.4-1.6 3-1.6 4.2 0 4.2 1.7 0 6.3-8 6.5-11.1.1-2.9-1.8-5.7-3.6-5.4-.2-.1-.6 0-1 .1m72.7 2.7c-1.1.8-3.9 1.1-7.3.7-6.3-.7-10.8 1-10.8 4.1 0 .7.4.9.7.4.7-1.2 4.5-2.1 9.8-2.4 5.9-.3 8.1-.7 9.1-1.6 1.6-1.2.1-2.5-1.5-1.2m63.3 1c-1.1.7 3.2 3.3 9.2 5.7 1.3.5 4.1 1.8 6.1 2.8 2 1 4.7 2.3 6 2.9 1.2.6 2.7 1.4 3.2 1.8 1 .8 2.6 1.8 9.2 5.5 3.8 2.1 4.5 2.5 9.6 5.7a70.1 70.1 0 0 1 13.7 11.6c1.4 1.6 2.7 3.1 2.9 3.3.2.2.9.9 1.4 1.6 2.5 3.2 1.6 2.5-4.4-3.4-4.9-4.9-7.5-7-12.6-10.7-1.8-1.3-2.5-1.6-2.5-1.2 0 .1.8.8 1.7 1.5.9.7 2.1 1.7 2.7 2.3.6.5 1.7 1.5 2.4 2.1 3.4 2.7 12 11.8 14.6 15.3 2.1 2.9 3 4.2 6 8 2.5 3.3 8.8 9.8 9.1 9.4.1-.2-.2-.8-.7-1.3-.5-.6-1.7-2.1-2.6-3.4-.9-1.3-2.3-3.2-3-4.1-.7-.9-1.5-2.1-1.7-2.6-.2-.5-.8-1.5-1.3-2.3-1.2-1.8-1.4-2.3-1.1-2 .3.3 4.3 5.6 4.9 6.4.2.3 1 1.3 1.7 2.2.7.9 2.1 2.6 3 3.8.9 1.2 3 3.7 4.7 5.5 1.6 1.8 3.7 4.1 4.5 5.1 3.3 3.7 11.7 12.5 14.2 14.8 2.8 2.6 1.7.9-1.7-2.6-3.6-3.7-10.2-11-13.7-15.2-1.1-1.3-2.8-3.3-3.7-4.3-.9-1-2-2.3-2.4-2.8-.7-1 5.9 5.7 8.7 8.8.9 1 3.1 3.4 4.9 5.5 3.9 4.4 11.3 11.7 13.3 13.2.8.6 2.2 1.8 3.1 2.6.9.8 1.8 1.4 1.8 1.3.2-.2-1.2-1.7-4.3-4.4-4.4-3.8-10.6-9.9-12.4-12.4-1-1.3-4.2-5.1-7.1-8.5-2.9-3.4-6-7.1-6.8-8.3-2.8-3.9-8.1-10-11.6-13.4-4.9-4.7-7.3-7.5-5.8-6.6 4.2 2.5 5.8 3.7 8.7 6.8 4.2 4.4 4.9 5.2 6.6 7.6 5.9 8.3 15.1 18.7 16.1 18.3.5-.2.5-.2-4.5-6-1.4-1.7-3.4-4.2-4.4-5.6-1-1.4-2.4-3.4-3.3-4.5-.8-1.1-1.6-2.2-1.7-2.4-.5-.9 3.8 3.5 5.9 5.9 1.2 1.4 3 3.4 4 4.5s3 3.3 4.4 4.9c1.4 1.6 4.7 5.1 7.5 7.7 9.3 9 11.1 11.1 15.8 19.3 1.5 2.5 1.9 3 2.3 2.9.4-.1-3.7-8.3-5.2-10.4-2.9-4.1-5.5-7.1-11.4-12.8-3.5-3.5-7.4-7.5-8.6-9-1.2-1.5-3.3-3.9-4.7-5.5-2.4-2.8-2.5-2.8-.9-1.5 1.6 1.4 3.7 3.6 7.8 8.3 5.8 6.7 13.9 14.3 13.9 13.1 0-.4-6.5-7.7-8.3-9.3-1.8-1.6-5.7-6.5-5.2-6.5.3 0 12.7 12.2 14.6 14.4 4.5 5.1 11.8 16.3 14.2 21.8.9 2 2.7 5.9 3.6 7.7 1.4 2.7.5 2-1-.8-.7-1.2-1.6-2.8-2-3.5-.4-.7-.8-1.4-.8-1.5-.1-.1-.2-.2-.3-.1-.1.1.6 1.8 1.6 3.7 1 1.9 1.8 3.7 1.8 3.9 0 .3.2.7.3 1.1.2.3.8 1.4 1.4 2.3 3.1 5.3 3.9 8.8 4 16.3l.1 6.1-.5-2.9c-.3-1.6-.6-4.6-.7-6.6-.2-3.8-.3-4.1-1-3.8-.6.2-.6 7.6 0 11.6.7 5 .5 4.9-1-.9-.2-.9-.8-3.7-1.2-6.3-1-6-1.1-6.4-2.3-7.6-2.8-2.8-6.2-4.4-11.7-5.7-1.9-.4-3.7-.9-3.9-1-.7-.3-.9.4-.3 1.2 2.1 2.8 3 7.7 2.4 13.1-.4 3.8-.8 10-.9 15.3-.4 11.1-.6 15.9-1.2 21.1-.3 2.3-.9 11.8-1.2 16.7-.1 1.2-.3 3.9-.4 5.9s-.3 7-.4 11.1l-.1 7.5-1.1 3.4c-.6 1.9-1.4 4.4-1.7 5.6-.4 1.2-1.2 3.5-1.8 5.2-.6 1.7-1.5 4.1-1.9 5.5-1.1 3.4-1.8 5.3-3.4 8.1-.8 1.4-2.3 4.6-3.4 7.1-3.3 7.7-5.9 13.1-7.3 15.4-.7 1.2-1.6 2.9-2 3.7-.3.8-1.2 2.4-1.9 3.7-.7 1.2-1.8 3.3-2.5 4.7-.6 1.3-1.6 3-2.1 3.7-1 1.3-1.1 1.8-.6 1.8.4 0 4.7-6.3 6-8.8 1.6-3 3.7-6.6 4.4-7.7.4-.7 1.1-1.7 1.5-2.4.8-1.2 4.9-9.5 7.6-15.1.8-1.7 1.8-3.7 2.3-4.5.9-1.4 1.9-3.9 3.8-8.7.4-1 .9-2.2 1-2.7.2-.4.6-1.6.9-2.5 1.2-3.4 1.9-5 2.8-6.5 3.9-6.5 4-7.1 3.4-20.2-.2-5.7-.3-8.3-.1-9.5.3-1.7 1-10.3 1.2-15.8.2-4.4.6-8.7 1-10.7.2-.8.4-6.5.5-12.7.1-6.2.3-12.3.5-13.7l.2-2.5.4 1.5c1.6 5.4 1.9 46 .5 61.4-.3 3.6-.3 3.8.1 3.3.8-.8 1.5-7.5 1.8-17.2.1-5.1.4-10.7.7-12.4.4-3 .8-6.8 1.6-15.9.9-9.5.3-24.8-1-28-.6-1.4-.5-1.6.2-.7 2.1 2.5 5.4 9 6.4 12.5.2.9 1.1 3.9 1.9 6.7 3 10.3 2.9 10 2.7 13.5-.4 7.4-.5 10-.3 11.9.2 2.1.7 2.7.7.9 0-2.7 1.3-10.4 1.3-8.3 0 .5 0 .5.3 0 .2-.4.2 0 .1 1.2-.2 3.2-1.5 28.8-1.5 30.4 0 1.1.7.5.7-.6.1-3.6 1-10.4 1.7-13 .3-1 .6-3 .8-4.4.2-1.4.4-3.5.5-4.7.1-1.2.4-3.1.5-4.3.3-2.9.6-3.9 2.4-10 1.5-4.9 1.6-5.4 1.8-9.2.8-12.4 1.2-16 2-16.3 1.5-.6-.7-5.4-4.4-9.7-1.7-2-1.7-1.3.1 2.5l1.6 3.2v3.2c0 2-.2 3.9-.5 5-.2 1-.6 3.4-.7 5.3-.3 3.7-.6 6-1.6 10.6-.7 3.4-.9 3.2-.5-.5.2-1.5.4-4.9.5-7.5s.3-5.8.4-7.1c.3-4.2-.5-3.1-1.6 2.1-.4 1.9-.7 3-.8 2.8-.5-.8-.3-12.6.2-14.5.6-2.4.5-4.1-.6-5.3-2.1-2.6-3.2-4.1-5.3-7.6-1.3-2.1-2.3-3.9-2.3-4 0-.6-4.7-9.8-6.9-13.6-1-1.7-.9-1.6 2.5 2.4 2.4 2.8 4.3 4.9 5.6 6.2 2.8 2.7-5-7.9-9.8-13.4a48.8 48.8 0 0 1-3-3.6l-.5-.8.8.6c2.9 2.1 12.5 13.9 16.8 20.7.7 1.1 1.5 2.2 1.7 2.5.3.3.7 1 1 1.5.3.5.6 1 .6 1.1.1.1.6 1 1.1 2.1.5 1.1 1.3 2.5 1.8 3.2.5.6 1.6 2.3 2.5 3.7 1.5 2.4 2.1 3 2.1 2.2 0-.7-1.1-4.8-1.5-5.6l-.4-.9.6.5c.6.6 1.5 2.3 1.7 3.6.9 4.6 1.6 14.3 1.3 17.4-.1 1.6.3 7.5 1.1 15.5.2 2 .4 5.5.4 7.6 0 5.4.4 12.1.9 14.3.2 1 .6 3.5.8 5.5 1.3 10.5 2 13.9 2.9 13.9.5 0 .5-1.2 0-3.8-.2-1.1-.5-2.9-.5-4.2a306 306 0 0 0-1.1-10.6c-.3-2.7-.4-5.6-.4-12.1.1-8.9-.3-20.4-1-30.3-.2-3.2-.5-7.7-.6-10-.1-2.7-.3-4.5-.5-4.9-.6-1-6.7-7.3-8.5-8.5-1-.7-2.2-2-3.4-3.7-1-1.4-2.9-3.6-4.2-5-1.3-1.4-3.5-3.8-4.8-5.4-1.4-1.6-3.3-3.8-4.3-4.8s-2.7-3-4-4.4-3.4-3.5-4.8-4.6c-4.1-3.4-12.5-11.8-11.4-11.4.2.1 1.5 1.2 2.9 2.4 1.4 1.3 3.6 3.1 4.8 4.1 4.3 3.6 8.4 6.9 9.4 7.7 4.9 3.7 12.3 10 14.3 12.2 1 1.1 3 3 4.4 4.3 7.3 6.8 9.9 9.6 10.9 11.6.7 1.4.5 1.3-.5-.2-1.1-1.8-7.9-8.1-8.2-7.7-.2.2 1.4 2.3 3.8 5.2 5.9 7 8.6 13.7 10.5 25.4.5 2.9 1.1 6.2 1.4 7.5.8 3.3 1.7 10.7 2.1 15.7.2 2.4.5 6.2.8 8.4.8 6.2 1.1 10.9.9 14-.2 3 0 3.7.8 3.4.5-.2.5-14.6-.1-17.6-.5-2.9-.9-8.7-1-14.5-.1-6.7-.7-14.5-1.6-20-.6-3.4-.6-4.8-.6-10.3 0-9.5-.6-12.6-2.7-12.8-1-.1-5.9-3.5-8.9-6.2-1-.9-2.6-2.2-3.5-2.9-.9-.7-2.4-2-3.5-2.9-2.3-2-5.8-4.9-7.1-5.7-1-.7-4.5-3.6-7.6-6.3-1-.9-2.3-2-2.9-2.4-.6-.4-2.8-2.2-4.9-4-2.1-1.8-4.9-4-6-4.8-1.2-.9-3.3-2.5-4.7-3.5-1.4-1.1-3.9-2.8-5.5-3.9s-4.3-3.2-5.9-4.7c-2.9-2.7-5.9-5.2-13.8-11.3-2.1-1.6-5.2-4.1-6.8-5.5-3.2-2.7-4.3-3.5-12-8.6-4.7-3.1-6.6-4.4-14.3-9.1-11-6.8-12-7.4-20.2-11.5-11-5.6-17.7-8.7-23.1-10.6a32 32 0 0 1-4.4-1.9c.1-1.5-.8-1.8-1-1.7m-45.7 1.1c-.4.1-1.1.6-1.5.9-1 1-3.5 1-5.6.1-2.1-.9-3-.3-1.4 1 2.5 2 6.6 2.5 9 1.2 1-.5 2.3-1 3.3-1.1 2.2-.3 3.5-1.8 1.6-1.8-.3 0-.5-.1-.5-.3 0-.3-3.8-.3-4.9 0m-82 2.5c-.5.5-.4.7.9.8 6.1.7 8.9 7.3 6.7 15.4-1.3 4.9 1.4 3.2 3.2-2 1.7-5-.4-11.2-4.6-13.8-.9-.5-3.7-.7-4-.2-.1.2-.3.1-.6-.1-.4-.5-1.1-.6-1.6-.1m60.3 2.7c-7.4.7-8 1.3-6.4 5.9 1 2.7.9 5.4-.2 8.2-.4 1 1.8-.1 2.8-1.5 1.3-1.6 1.7-3 1.4-4.8-.5-3.1.4-4.2 4.4-5.7 1.3-.5 3-2.6 1.9-2.5 0 .1-1.8.3-3.9.4m-59.5 5.1c0 4.1-2.2 13.1-4 16.4-.1.3-.3.6-.3.9 0 .6-.7 2.6-1.8 5.1-.5 1.2-1 2.7-1.1 3.5-.1.7-.4 2.3-.7 3.6-2 9.2-2.1 11.1-1.2 19.9.7 6.3 1.2 8.9 1.8 8.9.1 0 .2-.3.2-.6 0-1-.5-7.1-.8-10.5-.4-4.4.5-9.9 3.1-19 .4-1.2.8-2.9 1.1-3.7.2-.8 1.1-2.7 1.9-4.3 6.1-11.7 6.5-13 5.8-18.6-.3-2-.5-1.7-.9 1-.4 3.3-1.3 5.9-3.5 10.5-2.4 5-2.5 4.8-.7-.7 2-6.1 2.5-9.4 2-12.8-.3-2.1-.9-1.8-.9.4m45.3 2.5c0 .1.2.4.4.6 2.1 1.7 2.4 5.9.6 9.4l-1.2 2.3.1 2.9c.1 3 .4 3.9 1.3 5.1 1.5 1.9 2.4 3.3 2.1 3.1-.2-.1-.3-.1-.3.1s.6.6 1.3.9c1.5.8.7 1-.9.3-4.5-2.2-7.1-9.5-5.2-14.9 1.6-4.6-.1-5.3-1.8-.7-3.9 10.3.4 18.6 10.6 20.6 2.2.4 2.1.8-.3.8-1.5 0-2.5-.2-4.2-.8l-3.9-1.3c-6.9-2.2-8.8-3.6-9.9-7.3-.8-2.8-.3-8.7 1-11.6.6-1.5.4-1.8-.5-.6-4.7 5.7-4.2 13.4 1.3 18.7 2.6 2.5 6.1 4.3 8.4 4.3.5 0 2.1.2 3.5.5 7.8 1.5 12 .9 16-2 .4-.3 1.8-1.1 2.9-1.7 4.8-2.5 9.3-8.4 9.7-12.8.2-2.2-.2-2.1-.8.2-1.5 5.7-8.7 10.5-14 9.4-4.1-.9-8.5-2.9-10-4.5-2.1-2.3-3.6-7.9-2.6-10 1.7-3.6 1.6-6.7-.2-9.2-.9-1.4-3.4-2.6-3.4-1.8M127.8 81c0 2.5-2.2 9.4-3.2 10-.3.2-.3.1-.2-.4 1.5-5.4 2-8.3 1.4-7.7-.1.1-.4 1.2-.8 2.6-.7 2.5-2.2 5.5-3.3 6.5l-.6.5.2-.8c.1-.4.3-1.1.4-1.4.3-.9.3-7.8-.1-8.9-.5-1.6-.7-1.4-.7 1.7 0 3.4-.6 6.1-1.9 8.7-.7 1.5-1.7 2.6-1.3 1.6.5-1.2 1.3-4.1 1.3-4.5 0-.9-.5-.5-.7.5-.3 1.8-1.1 3-3.6 5.9-.8.9-1.4 1.8-1.4 1.9.1.3-1.2 1.8-1.3 1.6-.1-.1 0-.5.2-.9s.4-1 .5-1.3c.1-.3.5-1.6.9-2.8.8-2.2 1-4.6.6-6.1-.2-.9-.6-.4-.6.8 0 1.2-1.1 5.4-1.5 5.8-.2.2-.2-.3-.2-1.1 0-.7.1-1.3.2-1.3s.2-.2.2-.4c0-.8-.5-.4-.8.7-.5 1.7-1.9 4.4-2.6 5l-.6.6.7-1.6c1.5-3.4 2.3-9.2 1.3-9.2-.3 0-.4.4-.3 1.8l.1 1.8-2 2.6c-1.6 2.2-4.2 5.4-4.8 6-.7.7-3.4 4-4.5 5.6-.8 1.1-2.2 3-3.2 4.1-2.6 3.1-5.6 7.3-8.6 11.8-1.4 2.2-3.8 5.8-5.3 8-3.3 4.8-9.5 16.8-11 21-.2.6-1.3 3.5-2.4 6.3-2.7 7-4.5 12.8-5.3 16.8-1.4 6.9-2.5 14.5-2.2 14.9.4.4 1-.4 1.4-1.6.6-2 1.3-4.9 1.4-5.7.1-.4.3-1.3.6-1.9.3-.6.6-1.5.7-2 .1-.5.4-1.5.7-2.3.3-.7.8-2.5 1.2-4 .8-3.2 2-6.3 3.2-8.7.5-1 .9-1.8.9-1.9-.2-.4 3.9-9.9 5.4-12.6 2.1-3.8 2.3-4.1 3-5.2.3-.5 1.1-1.8 1.6-2.8.6-1 1.8-2.8 2.7-4.1 2-2.8 4.2-6.2 8.3-12.5 3.1-4.9 4.5-6.7 7.5-9.8 2.2-2.3 5.3-4.7 6.2-5 .5-.1 1.5-.9 2.6-2.1 1.3-1.3 2.6-2.4 4.3-3.4 1.8-1 2.7-1.7 3.2-2.5 1.3-2 2.8-3.2 3.7-3 4.3.6 10-9.4 9.2-16.2-.4-1.2-.8-.9-.8.6m-9 6.7c0 .3.1.5.3.5.1 0 .3-.2.3-.5s-.1-.5-.3-.5c-.2-.1-.3.2-.3.5m17 2.4a40 40 0 0 0-3.1 13.3c-.2 1.8-.5 5.2-.7 7.6-.2 2.3-.4 6.1-.4 8.3 0 2.2-.1 5-.3 6.1-.5 3.9-.3 28.1.2 30 .1.5.6 2 .9 3.2.4 1.2 1.5 5.3 2.4 9.1 1 3.7 1.8 7.1 1.9 7.4.3 1 .8.7 1.7-.9.5-.8 1.4-2.2 2-3.1 1.4-1.9 1.4-1.5.4-4.9-1.9-6.3-2.9-11.5-3.7-19.1-.2-1.5-.5-4-.8-5.4-1.1-5.6-1.9-21.2-1.9-35.5 0-9 .2-11.1 1.8-15.4 1.1-3.2.8-3.6-.4-.7m-20.4 1.8c-.2.7-.2 1.3-.1 1.3.2 0 .8-1.5.8-2.2 0-.9-.4-.4-.7.9m100.2 27.3c-.3.3-.3.7.1 2.1.7 2.9 1.1 7.1 1 11.3l-.1 4-1.3 3.9c-3.2 9.7-10.9 15.7-22 17.3-1.2.2-2.6.4-3.2.6-.6.2-3 .7-5.3 1.2l-6.8 1.5c-1.4.4-3.7.9-5 1.2-7.3 1.7-11.1 3.1-15.2 5.8-1.2.8-2.4 1.4-2.7 1.4-2.2 0-7.6 4.7-10 8.8-5.8 9.8-8.4 17.8-8.5 26 0 2.8.1 4.5.3 4.6.3.1 1.5-6.9 1.5-8.4 0-1.2 3.7-11.8 5-14.4.9-1.8.9-.3-.1 3-2.7 9.4-3.8 17.4-3 22.2.7 4.3.9 3.8 1-3.6.1-6.8.3-8 1.7-13.3.7-2.8 1.7-6 1.7-5.5 0 .1-.3 2.1-.8 4.4-.9 4.5-.9 4.8-.6 4.8.1 0 .4-.7.6-1.5.2-.8.9-3.3 1.5-5.4.6-2.1 1.4-4.6 1.6-5.6.8-2.7.7-1 0 2.2-1.8 7.7-2.2 24.7-.6 29.1l.4 1.1v-.9c0-.5-.2-2.2-.4-3.7-.2-1.6-.4-4.7-.4-7.1 0-4.8-.1-5.2.8 4.2.5 5.3.7 4.3.8-4 .2-8 .6-11.7 1.8-16.9l.5-2.3-.1 1.9c-.1 1-.3 3.7-.5 5.9-.6 6.3-.4 20 .3 20.7.1.1.1-3.7.1-8.4-.1-6.6 0-9.5.3-12.7.5-4.3.9-5.9.6-2.3-.5 6.3-.5 6.8-.2 6.8s.6-1.2.6-2.6c0-.5.2-2 .5-3.4l.5-2.4-.2 3.9c-.3 6.5-.2 14.5.1 14.6.2.1.3-1.1.4-4.4 0-2.5.2-6.1.4-8.1l.3-3.6v5.8c0 7.5.3 13.9.6 13.7.1-.1.2-2.6.3-5.7 0-3 .1-6.2.2-7l.2-1.5v1.5c.1 2.4.8 9.3 1.3 11.2.6 2.6 1.7 6.1 2 6.1.3 0 .3.2-.6-5.1-.9-5.2-1.5-10.2-1.3-10.7.1-.2.1 0 .2.3 0 1.4 1.4 7.7 1.7 7.7.3 0 .1-2.2-.6-6-1.4-7.7-.5-5.2 2.2 5.6 1.7 7.2 3 11.1 3.6 10.9.8-.3-1.6-11.7-3.3-15.9-2-4.8-1.8-15.9.5-21 2-4.4 2.5-5.4 2.8-5.6.2-.1.2-.2 0-.2-1.1 0 5.7-4.8 9.3-6.4 2.2-1 5.9-2.1 11.8-3.5 4.1-1 14.9-4.5 17.2-5.7 2.4-1.2 4.1-2.4 6.6-4.6.8-.7 2.1-1.7 2.9-2.3 4.9-3.3 7.7-9.1 8.4-17.4.4-5.1.3-6.7-.5-10.3-.4-1.8-1-4.1-1.2-5.1-.2-2.2-1.1-3.5-1.7-2.8m105.3 3.1c0 .3.4 1.1.8 1.8 4.4 6.9 7.5 14.9 8.4 21.4 1.9 14.5-1.7 21.5-13.8 26.9-5.5 2.5-5.4 2.6 1.3 1.5 7.3-1.2 12.7-4.5 14.8-9l1.1-2.2-.2-2.6c-.1-1.4-.2-3.5-.3-4.7l-.1-2.1.5 1.5c.3.8.8 2.2 1.2 3 .8 1.8 2.8 8.5 3.1 10.3.2 1.3.9 1.8 1.2.9.8-2.1-3.3-19.9-5.7-24.7-.4-.8-1.1-2.7-1.5-4.1-1.9-6.7-10.8-21.5-10.8-17.9m-42.5 27.3c-9.6 2.5-5.1 8.7 6.3 8.7 3 0 3.7-.1 3.7-.7 0-.2-.6-.4-1.7-.5-3.6-.4-7.5-1.9-8.3-3.2-1.7-2.8 16-1.9 22 1.2 2.9 1.5 3.4 5.2.9 6.5-1.6.8-5.1 1.8-6.3 1.8-.7 0-2.9.2-4.9.4-4.1.4-8.9.5-11.8.1-8.3-1.1-11.7-1.2-23.7-.8-16.4.5-20.3.9-24.7 2.1-1.5.4-3.2.8-3.8.9-3.3.5-4.8 3.5-3.1 5.9 1.7 2.4 5.6 5.3 8.1 6.1.7.2 2 .7 2.9 1.1 3.2 1.3 15.4 2.9 15.4 2 0-.3.1-.3-2.7-.9-4.4-1-11.4-3.2-13.4-4.1-3.6-1.7-6.8-5.1-5.7-6 .2-.2.6-.6.8-1 .6-.9 1.6-1.5 3.1-1.7.6-.1 1.3-.3 1.5-.5.2-.2 1.7-.5 4-.8 2-.2 5.1-.6 6.7-.8 1.7-.2 3.2-.3 3.3-.2.1.1 2.8.2 5.9.4 8 .3 10 .5 11.6.8.8.1 6.3.3 12.1.2h10.7l4.7-.9c8.1-1.6 15.5-4 16.3-5.3 1.1-1.8-.6-7.1-2.3-7.1-.2 0-.7-.2-1.1-.5-.4-.3-1-.6-1.4-.7-.4-.1-2-.7-3.6-1.3-2.8-1.1-3.1-1.1-6.1-1.1-1.8 0-5.7-.1-8.7-.2-4-.2-5.8-.1-6.7.1m104.1 5.9c0 .6 1.6 3.1 1.9 3.1.2 0-.6-1.7-1.6-3.1-.3-.4-.3-.4-.3 0m-48.1 12.3c-2.5 2.5-.9 7.8 3.6 11.8 2.7 2.4 3.5 3 8.1 5.9 2.4 1.5 8.7 6.1 10.7 7.9 1.1 1 1.1 1 1.1.3 0-1.7-6.9-8.1-14-12.9-7.9-5.3-10.3-8.9-8.6-12.4.8-1.5.3-1.8-.9-.6m-214.7 1.7c-.1.1 0 .8.3 1.5 1.3 4.2.2 13.2-2 16.5-2 2.9-6.9 5.4-14 7.1-3.2.8-4.9 1.4-7.7 2.7-1.9.9-4.3 1.9-5.3 2.3-2.8 1-4.8 2-6.3 3-.7.6-2.1 1.5-3.1 2-7.7 4.2-11.6 13.3-8.2 19.3 3.2 5.6 8.1 11.7 11.3 13.7 1.9 1.2 2.5.9.9-.4-3.5-2.9-6.6-6.4-7.9-9.1-.5-1-.6-1.4-.4-1.1 3 4.2 8.9 10.1 8.9 8.8 0-.1-.9-1.1-2-2.2-1.7-1.8-4.2-4.9-4.2-5.4 0-.1.3.2.7.7 1.3 1.6 4.5 4.8 4.8 4.8.4 0 .4-1.2 0-1.6-.3-.4-3.2-3.9-3.6-4.4-6.4-8.9-2.1-18.4 11.3-24.8 4-1.9 4.7-2.2 7-2.7 2.6-.6 3.7-1.1 6.7-2.8 1.3-.8 3.5-1.9 5-2.6 5.7-2.7 8.8-5.8 9.3-9.3.1-.4.2-1.4.4-2.2 1.1-5.2-.5-16.1-1.9-13.8m210.9 2.2c-.7.3-1.2 1.5-1.2 2.9 0 1-2.1 1.9-2.6 1.1-.1-.2-1.6 0-4.2.5-2.2.4-5 .8-6.3.9-1.2.1-3.9.5-6 .8-5.4.9-12.7 1.9-17.6 2.4-8 .8-16.5 1.7-18.4 2.1-2 .4-10.4.9-16.4 1.1-8.2.2-12.7 4-14.9 12.8-2.2 8.9-6.8 22.5-9.2 27.5-1.3 2.6-1.3 2.3-.1-1.4.6-1.8 1.1-3.4 1.1-3.7 0-.3.2-.8.4-1.3.7-1.3-.1-.9-2.2 1.2-1.1 1.1-2 2.2-2 2.5 0 1.9-1.2 4.5-2.6 5.5-1.3 1-3.5 1.9-4.3 1.9-1.1 0-1.3.4-1.6 2.7-.6 4.5-1.4 5.8-4.7 7.5-2.1 1.1-2.1 1.1-2.8 2.8-1.2 3.1-3.6 4.8-5.9 4-.9-.3-.9-.3-1.3.3-1.8 2.8-5 4.5-6.7 3.4-.5-.3-.6-.2-1.1.3l-.5.6.9 1c1.6 1.8 1.9 2 3.4 1.6 1.4-.4 6.4-1.9 11.9-3.6 7.8-2.5 10.1-3 11.2-2.8.6.1 2 .4 3.2.5 8.2 1.1 11.2 2.6 22.1 11 2.5 1.9 6.6 6.3 13.3 14.2 1.1 1.3 2.8 3.3 3.8 4.4 1 1.1 3.8 4.7 6.3 7.9 2.5 3.3 5 6.3 5.6 6.8l1 .9-1.6.4c-2.3.6-6.7 3.9-6.7 4.9 0 .1-.2.4-.5.7-.7.8-6.6 9.6-8.4 12.7-.8 1.3-.9 1.6-.6 2.2.4.9.6.9 3.1-1.5 3.7-3.5 7.5-7 9-8.1.7-.6 2.8-2.2 4.5-3.6 1.8-1.5 3.4-2.6 3.7-2.6 1.3 0 2.8-1 3.1-2 .7-2.8.8-2.7-1.6-5.2-2.1-2.3-4.2-5.9-5.4-9.4-.2-.6-1-2.4-1.8-4.1-4.4-9.8-6.5-17.7-7.2-27.7-.7-9.9-2.3-13.1-8.7-18.2-.6-.5-2.5-2-4.1-3.5-1.7-1.4-3.9-3.1-4.9-3.8-3.4-2.2-4.9-4.4-5.1-7.7-.1-1-.2-1.8-.3-1.8-.6 0-.6 5.2 0 6.8.9 2.3 1.8 3.6 3.1 4.7 2.6 2.1 3.5 3 3.4 3.1-.1.1-2.3-1.1-3.3-1.8-.3-.3-.8-.4-1-.3-.5.2-4.2-2.4-5-3.4-.3-.4-.8-1.1-1.2-1.5-.6-.7-1-3.1-1.4-7.6-.9-10.1 10.2-23 21.8-25.3.8-.2 3.3-.8 5.5-1.5 2.2-.6 4.1-1.2 4.3-1.2.2 0-1.9.9-4.6 2-2.7 1.1-4.8 2.1-4.7 2.3.1.1-.4.5-1 .7-1.6.7-6.1 3.8-6.1 4.2 0 .6.9.4 2.7-.6 2.3-1.2 6.6-2.7 9-3.1 1.1-.2 3.6-.8 5.7-1.5s5.1-1.6 6.7-2c3.6-1 9.1-2.7 12.2-3.7 2.1-.7 4.9-1.4 11.5-2.6 3.5-.7 8.5-1.3 13.1-1.6 3.3-.2 9.1-1 10.6-1.5.3-.1.7.2 1.1.7 2.6 3.4 7.4 6.3 8.6 5 .3-.3.5-.2-1.6-1.5-4.2-2.5-6.4-5.9-6.1-9.2.1-1.5-.2-2.1-1.4-1.6m35.8 3.2c-.7 1.2-.4 7.7.7 14.2 2 11.9 2.3 17.7 2.3 36.5 0 14.7 0 14.2-1.3 23.8-.3 2-.4 3.6-.2 3.7.3.2.3.2.8-3 .2-1.6.7-4.3 1-6 .8-4.4 1-6.5 1.3-11.7.3-5.3.4-6.6.8-12 .7-8.8-.3-22-2.5-32.1-.4-2-.6-3.6-.6-6.6v-3.9l.7-.7c1.1-1 1-1.6-.5-2.4-1.1-.6-2.1-.5-2.5.2m-124.7 10.8c0 .2.1.4.3.3.5-.2.6-.7.1-.7-.2 0-.4.2-.4.4m61.3 1.1c-.5.1-1.8.6-2.8 1-1 .5-3.4 1.5-5.2 2.2-6.6 2.8-8.2 3.7-14 8-9.7 7.3-12.5 15.8-7.1 21.5 1.9 2.1.4 1.3-2.2-1-1.9-1.8-3-7.9-2-11.7.3-1.3-.2-1.1-1 .4-2.7 5.3-.1 12.2 6.1 16.1l.8.5-.8-.2c-.4-.1-1.4-.5-2.1-.8-1.2-.6-1.4-.6-1.7-.2-.6.6-.1 1 2.3 2.4s1.9 1.5-1.2.2c-2.3-1-4.2-2.5-5.1-4.2-1.1-1.8-1.1 0 0 2.1.4.7 1.4 1.8 2.5 2.8 1.9 1.7 2.4 2.3.9 1.3-.6-.5-.9-.5-1.3-.3-.5.3-.8 1.1-.3 1.1.3 0 1.6 1 1.2 1.1-.9 0-6.7-5.4-7.4-6.8-.2-.3-.4-.6-.5-.6s-.2-.1-.1-.3c.1-.1 0-.3-.1-.3-.4 0-.4 0 .1 1.2.6 1.6 3.4 5.4 4.9 6.5 4 3 7.3 7.7 8.4 11.7.3 1.3.5 1.3 1.4 0 1.4-2 4.7-4.4 6.9-5 .7-.2 2.1-.6 3-1 .9-.4 2.5-.9 3.5-1.1 1-.2 2.5-.7 3.3-1.1 2.3-1 9.1-.3 15.9 1.6 6.9 2 6.1 2 12.5.5 2.1-.5 4.4-1 5.1-1.1 1.7-.3 3.4-1.2 5.9-3.3 1.2-1 3-2.4 4-3 1-.6 3-2 4.5-3 2.5-1.6 3.3-2.4 2.9-2.8-.2-.2-1.5.4-7.5 3.4-9 4.4-15 5.9-17 4.3-.4-.3-1-.6-1.3-.6-.7 0-5.2-2-6.2-2.7-.5-.4-1.8-1.2-2.9-1.8-2-1.1-2.9-1.7-8-5-4.9-3.1-10.9-5.8-15.2-6.8-3.8-.9-8.4.3-8.2 2 0 .3 0 1.2-.1 2-.1.9-.1 1.8.1 2.2l.3.7-.8-.5c-3.1-1.8-4.4-7-2.6-10.4 1.5-2.9 4.7-6.5 7.3-8.3.6-.4 2-1.5 3.2-2.5 2.1-1.7 9.1-5.9 10.5-6.3.8-.2 3.6-1.6 4.5-2.2.8-.5 2.3-1.1 3.9-1.6 2.3-.1 1.3-.7-1.2-.3m57.4 8c0 .6.6 1.6.9 1.6.5 0 .5-.5-.1-1.3-.6-.5-.8-.7-.8-.3m-58.2.6c0 .1.2.3.4.3s.4-.1.4-.3c0-.1-.2-.3-.4-.3s-.4.1-.4.3m1.4.2c0 .1.6.4 1.4.7 3.7 1.3 7.2 4.7 7.6 7.3.4 2.8-2.8 5.8-7.1 6.7-1.1.2-7 1.1-7.4 1.1-.5 0 .1.6.9.8.6.2 2.2.9 3.8 1.6 4 1.9 5.2 1.7 10.3-1.7 8.9-5.9 8.1-10.5-2.8-14.7-3.5-1.4-6.7-2.2-6.7-1.8m-175.7 8.6c-.9.1-2.4.5-3.2.9-.8.3-2 .8-2.6 1-1.2.4-4.8 2.3-6.4 3.5-.6.4-1.9 1.2-3 1.7s-2 1.1-2.1 1.3c-.1.4 1 3.4 1.8 4.6.3.5.4.9.3 1-.1.1 0 .2.2.2s.3.1.2.3c-.3.4.9 1.3 1.9 1.5 2.9.5 8 2.4 10.1 3.6 1.2.7 2.4 1.4 2.8 1.5.6.2 1.5.8 3.6 2.4 1.2 1 1.3.9.8-.8-1.2-3.8-1-6.5.6-9.4.7-1.3.8-1.8.7-2.3-.5-1.2-1.3-6.2-1.5-8.7l-.2-2.5h-1.1c-.8 0-2 .1-2.9.2M234 207c-1.8 1.8-3 3.9-3 5.2 0 .4-.1.8-.3.9-.7.4-.3 3.8.4 4 2.2.6 4.4-2.5 4.6-6.2 0-1.2.3-2.7.5-3.3 1-2.8.3-3.1-2.2-.6m-25.8.7c-4.8.5-6.3 1.1-10.8 4-3.1 2-5.8 3.5-7.8 4.2-1.8.7-1.8.8-.8 2.1.4.5 1.3 1.9 1.9 2.9 1.4 2.4 1.2 2.3 4.6 1.8 3.9-.7 6.8-.4 10.4.8 1.5.5 2.9 1 3.2 1.1.3.1.5-.1.7-.7.3-.9 1.3-2.5 3.8-6 1.9-2.7 3.5-6.1 3.6-7.9.2-1.7.4-1.6-3.1-2.2-2.4-.4-2.8-.4-5.7-.1m-121.1 2.5c-3.9 4-5.8 11.7-3.6 15.2.7 1.1 3.2 4.3 3.5 4.4.3.1.5-1.6.5-3.3 0-1.3 0-1.4-1.2-2.1-2.3-1.4-3.2-6.3-1.5-8.7.4-.6 1.1-1.8 1.5-2.7.4-.8 1.2-2 1.8-2.7 1.6-1.8.8-1.9-1-.1m64.7.3c0 .5.1.9.3.9s.3-.4.3-.9-.1-.9-.3-.9-.3.3-.3.9m12.3-.8c0 .1.5 2.1 1.1 4.5 1.7 6.8 1 9.3-3.1 10.9-.6.2-1.1.5-1.1.7 0 1.8-13.5 2.7-19 1.2-4.7-1.2-4.9-.9-.6 1.2 2.7 1.3 2.4 1.2 7.7 1.9 8.5 1 12.3.3 18.1-3.5 4-2.6 4.8-4 3.6-6.5l-.5-1.1 1.3 1.4c1.5 1.6 1.5 1.8.7 3.4-2.4 4.8-12.8 9.4-21.4 9.4-1.5 0-2.9.1-3.1.3-.3.2.9.3 3.6.3 7.4 0 11.5-.7 15.9-2.7 2.8-1.2 3-1.2.6.2-9.5 5.3-21.1 6.2-29.6 2.4-.5-.2-.9-.4-1-.4-.1 0-.5-.3-.8-.6-1.1-1-1-.2.3 2.3.7 1.4 1.6 3.6 2 5 .4 1.4 1 3.2 1.4 4.1.7 1.9.6 6.8-.4 11.4-.7 3.6-.9 12.9-.2 13.3.3.2.4 0 .5-.9 1.4-20.8 6.3-28.5 18.6-28.9 11.2-.4 18.9 4 24.1 13.7.5.9.2.7-.6-.4-2.7-4-7.7-8.1-12-9.7-6.5-2.4-18.4-2.3-17.5.1.1.3.8.4 4 .4 6.1 0 12.5 1.6 15.3 3.9 11.1 9 13.9 17.5 9.7 28.9-.5 1.2-1.1 3-1.5 3.9-.9 2.3-1.7 3.8-5.1 8.8-2.8 4.1-6.3 7.1-8.7 7.5-1.6.2-1.6.1.1-.9 2.4-1.6 6.5-6.7 7.2-9.1.5-1.8-.4-1.6-1.3.3-1.5 3.1-5 5.4-8.2 5.5h-2.1l-2.3-1.6c-2.2-1.6-2.6-2.1-5.6-6.2-1.5-2.1-5.4-9.9-6.7-13.3-1-2.8-1.6-9.7-1.1-13.2.2-1.3.3-2.4.2-2.5-.3-.3-.7.2-1 1.4-.2.7-.6 1.8-.9 2.5-1.1 2.6-.4 12.7 1.2 17.1l.6 1.6c.1 2 6.4 11.5 10.3 15.6 4 4.2 4.1 7.1.5 11.2-.4.5-.9 1.1-1.1 1.5-.7 1.1-1 .2-1.2-3.6-.3-5.2-.6-5.8-4.8-10.2-11.4-11.9-15.2-23.5-11.6-35.5 1.7-5.8-.9-17.5-4.6-20.3-1.3-1-1.4-.7-.4.8 3.2 4.7 4.5 13.1 2.6 17.7-.6 1.4-2.3 1.9-3.8 1-.9-.5-1.4-.3-.8.4.8.9 1.8 3.7 2.1 5.9.2 1.2.3 2.6.4 3.1.8 5.7 2.4 11.8 4.2 15.9.5 1.2 1.2 4.2 2.2 9.6.2.9-.3 5.5-.7 6.6-.4 1.1-1.8 1.5-2 .6-.1-.5-.5-1.3-1.2-2.4-1.1-1.8-2.1-1-1.4 1 .1.4.4 1.9.7 3.5.8 5.6 2.6 7.9 7 9.2 1 .3 2.2.7 2.6 1 1.7.9.5-.3-1.5-1.6-2.4-1.5-3.5-2.4-4.2-3.8-.6-1.2-.7-2.3-.1-2.3.2 0 .4-.1.5-.3.2-.5.8 0 1.6 1.1.6.9 7.5 4.8 8.6 4.8.6 0 0-.6-1.2-1.4-5.9-3.8-7.3-8.2-3.3-10.3l1.2-.6 1 .7c1.2.9 1.4 1.4 2.7 5 2.5 7.3 4 10.2 6.5 12.6 1.8 1.7 1.5 1.9-1.2.6-2.1-1-4.1-1.2-4.3-.4-.1.3.3.6 1.2.9.7.3 2 .8 3 1.2.9.4 2.8 1.2 4.1 1.7 1.3.5 3.3 1.5 4.3 2.1 2.3 1.4 2.2 1.4 1.7-1-.6-3-1.3-8.6-1.2-9.1.2-.5 4 1.4 7.2 3.6 3 2 3.1 2 1.3-3.4-.9-2.8-1.3-4.4-1.4-6.1l-.2-2.3h1.2c1.6 0 3.9.8 7.5 2.6 3.2 1.6 3.6 1.6 3-.2-.7-1.8-2.2-6.9-2.4-8-.3-1.8 3.6-1.4 6.1.6 1.8 1.4 1.9 1.2 1.6-3.7-.4-7.3-.1-11.8.8-11.8.6 0 2.3.8 3.9 2 1.4 1 1.4.9 1.6-2.3.7-10.4-1.1-17.8-6.4-27-1.5-2.5-1.2-2.5 1.3.1 3.2 3.4 4.6 5.4 5.9 8.4.6 1.5 1.4 3.4 1.9 4.4.4 1 1.4 3.4 2.1 5.4l1.4 3.7-.1 5.1c0 2.8 0 5.3.1 5.4.1.2.4 1.4.7 2.7.3 1.3.7 2.8.9 3.5.2.6.4 1.2.4 1.3 0 .1-1-.9-2.2-2.1-3.2-3.2-9.3-6.1-6.8-3.2 2.4 2.7 1.8 11.4-.9 14.1-1 1-3.2.7-4.7-.7l-.8-.7.2.9c.8 3.8.3 10.6-.9 11.6-2 1.8-5.7.5-7.3-2.6-.3-.6-.4.1-.4 5.7 0 3.5-.1 6.7-.2 6.9-.5 1.2-7.3-3.8-8.9-6.5-.5-.9-1-1-.8-.2.7 2.7 1.5 6.8 1.6 8.5l.1 2-1.2-.8c-.7-.5-2.1-1-3.1-1.3s-2.4-.7-3-1c-4.9-2.2-5.7-2.7-6.9-3.9-2-2.1-2.3-1.7-.6.8 1.1 1.7 2.5 2.9 4.3 3.9 4.3 2.3 6 3.6 9.3 7.1 2.9 3.1 3.5 3.6 3.5 3 0-.2-3.8-5.4-4.9-6.7-.5-.6-.5-.6 0-.4 1 .6 3.9 3.7 5.9 6.6 1.1 1.6 2.3 3 2.5 3.2.8.5.9-.1.1-1.1-.8-1.2-2.5-5.6-2.7-7.3l-.2-1.2.7.8c.4.4 1 1.2 1.4 1.7 1.6 2 2.8 3.5 3 3.5.2 0-1.9-4.5-3.1-6.5l-.7-1.1 1.2 1.3c.8.9 1.9 2.7 3.3 5.5 1.1 2.3 2.1 4.2 2.2 4.2.1 0 .2-1.4.3-3.1.2-3.9 1.1-6.7 4.7-13.9 2.7-5.4 3.2-6.8 3.4-9.9.2-2.7.5-2.8 1.8-1 .6.8 1.8 2.3 2.8 3.3 1 1 2.1 2.4 2.5 2.9 1 1.3 1.2.8.6-1.3-1.5-5.4-2.3-14.2-1.3-15.8.3-.4.3 0 .2 1.9-.2 2.9 0 3 1.3.9.9-1.5 1.1-1.6 2.3-1.7 2.2-.3 2.2-.4 0-1.5-2.7-1.3-2.9-1.7-1-1.5 1.5.2 7.4 2.8 8.2 3.7.4.4 1.2.7 1.2.4 0-.1-.8-1.7-1.7-3.5-2.2-4.3-4.1-9.9-4.3-12.6-.2-2.1 0-1.8.7 1.1.3 1.3 1 2 .8.8-.1-.8.7-.9 2-.3 1.5.7 1.5.5-.3-1.7-1.9-2.3-1-1.9 1.3.6 5.9 6.6 6.7 7.1 4.2 2.1a23 23 0 0 0-2.3-3.9c-2.3-2.7-5.7-9.6-5.9-12-.2-1.6.1-1.2 1.4 1.7 1.3 2.9 2.1 3.6 1.6 1.4-1.3-5.7-.6-6.5 6-6.6 1.6 0 2.9-.1 2.9-.2 0-.3-1.3-1.3-3.2-2.3-1.8-1-3.4-2.2-10.9-7.8-2-1.5-5-4.7-6.8-7.3-.9-1.2-1.9-2.6-2.2-3.1-1.4-1.9-2.2-5.6-2.3-9.9-.1-8.8-5.4-16.5-15.1-22.3-1.5-.9-3.8-2.2-5-3-3.5-2.5-6.1-3.7-6.1-3.1m60.3 2.4c-2.2 4.9-2.7 11.4-.9 13 2.8 2.6 7-2.4 4.3-5.1-1.4-1.3-2.6-6.8-1.9-8.5.4-.9.4-1.2-.2-1.2-.3 0-.7.5-1.3 1.8m172.6 4.6c-.3.3-.3-.1-.2-2.9l.1-2.8.1 2.8c.1 1.5.1 2.8 0 2.9m-259.8-2.8c0 .5.2 1.5.4 2.2l.3 1.3V216c0-.8-.1-1.4-.2-1.4s-.1-.4-.1-.8c.1-.5 0-.8-.2-.8-.1 0-.2.4-.2.9m-31.5 2.1c-1.4 6.5-1.3 8.6.1 14.6 1.6 6.7 4.3 11 8.1 12.9 1.4.7 1.3.4-.6-1.6-3.7-3.9-7.6-13.9-7.6-19.3 0-3.1.4-3.8.6-1.2.4 6.1 4.7 15.7 9.6 21.4.9 1.1 1.6 2 1.5 2.1-.3.3-2.3.4-3.1.1-2.1-.7-.4 1.3 2 2.3 5.4 2.4 7.9-6.9 3.9-14.6-.5-1-1.3-1.5-1-.6.7 2.1.7 7.3.1 6.1-.2-.3-1-1.5-1.9-2.8-1.5-2.1-4.1-6.3-4.1-6.5 0-.1-.7-1.2-1.5-2.5-2.2-3.5-3-5.8-1.2-3 1.3 1.9 4 4.6 4.5 4.6.7 0 .7-.1-.8-2-.7-.9-1.5-2-1.7-2.5-.2-.4-1.4-2.3-2.6-4.3-1.2-1.9-2.4-4-2.7-4.6-.7-1.8-.9-1.6-1.6 1.4m48-2.1c0 .4.1.6.3.5.1-.1.3-.4.3-.7s-.1-.5-.3-.5c-.2.1-.3.4-.3.7m-51.9 6.4c-1 1.1-4.6 6.9-4.9 7.9-1 3.4-.5 6.5.6 3.9.6-1.5 2-3.4 3.8-5.2l1.4-1.5.1-2.9c.1-3 0-3.4-1-2.2m114.6 1.1c-4 3.6-4.3 13-.5 14.6 2.8 1.2 5-2.7 2.8-4.9-2-2-2.6-6.5-1.2-8.9 1-1.9.5-2.2-1.1-.8M71 223.5c-.1 2.1 3 8.8 5.2 11.5.9 1 2.2 2.7 3.1 3.7 2.3 2.8 9 8.8 10.8 9.5.4.2 1 .5 1.3.8.9.8 1 .4.3-1.2-.4-.8-.9-1.9-1.1-2.6-.4-.9-.9-1.4-2.8-2.7-2.1-1.4-4.2-2.9-6.8-5-3.6-2.8-7-7.5-9-12.4-.8-1.9-.9-2.1-1-1.6m19.6 5.7c.7 8.1 4.1 15.3 9.5 19.8 1.7 1.5 1.5 1.5-.9.3-1.3-.6-3.6-3.1-5-5.4-1.1-1.9-1.5-1.5-.5.6 1.7 3.9 5.5 7 8.4 7 2.6 0 2.4-6-.4-10.4-1.3-2.1-2.4-2.6-1.6-.8.5 1.2.3 1.2-1.3 0-2.4-1.8-2-.8 1.1 2.7 2.9 3.3 2.1 3.4-1.2.2-3.5-3.5-7.3-11.5-7.3-15.4 0-.3-.2-.5-.4-.5-.4.1-.5.4-.4 1.9m42.3 1.7c.1.2.3.4.5.5.2.1.3 0 .2-.2-.1-.2-.3-.4-.5-.5-.1-.1-.2 0-.2.2m77.1 3c-1.8 3.6-1.3 10 .7 10.5 2.1.5 3.8-2.9 1.9-3.6-1.2-.4-1.8-3.6-1.4-6.6.2-1.9-.4-2-1.2-.3m197.8.5c0 2 .9 9.7 1.5 12.2.3 1.7.9 4.6 1.3 6.5.4 1.9.8 4 .9 4.6.8 3.5 1.5 10.2 1 9.7-.1-.1-2.8-9-3.2-10.8-.6-2.5-.9-1.7-.8 1.9.2 6-1 9.3-5.6 15.5-1 1.4-2.1 2.9-2.5 3.3-.3.4-2 2.3-3.8 4.1-1.8 1.8-4.3 4.6-5.6 6.1-1.3 1.5-4.7 5-7.4 7.6-2.7 2.6-6.1 6-7.6 7.4-1.4 1.4-5.1 5.2-8.1 8.3-3.1 3.1-7.2 7.6-9.2 9.9-2 2.3-3.8 4.4-3.9 4.5-.2.1-1.4 1.6-2.8 3.2s-3.2 3.6-3.9 4.4c-1.6 1.7-4.3 5.5-4.3 6.2 0 .9.7.5 1.8-1.1 1-1.3 15.4-16.2 19-19.6 3.9-3.6 10.7-10.4 12.2-12.1 1.6-1.8 2.9-3.1 8-7.7 2-1.8 3.4-2.9 2.7-2-1.6 1.9 3.8-2.8 10.3-9 2.2-2.2 4.2-3.9 4.3-3.9s1.2-1.1 2.3-2.4c5-5.9 8.6-7.3 11.5-4.5 1.6 1.6 2.4 6.5 1.6 10.2l-.2 1.1-.2-.8c-.1-.4-.2-1.5-.2-2.3-.1-4-1.2-6.5-3.1-6.8-1.3-.2-1.7.2-1.1.9 2.2 2.4 3.7 11.5 3.1 18-1 10.4 1.8 4 3.2-7.2 1.5-12.2 1.1-14.9-5.5-35.6-2.7-8.4-3.7-12.3-4.8-18.1-.4-2.2-.9-3.1-.9-1.7m-285 1c0 .2.2 1 .4 1.9.8 3.2 0 9.7-1.3 10.3-.1 0-.2.2-.2.4 0 1.6-2.5 2.9-4.1 2.1-1.5-.7-1.8-.6-.7.4 2 1.8 3.9 1.9 5.7.3 1.3-1.2 1.8-1 1.3.5-.3 1-1 1.9-2.3 2.7l-.8.6 2 2.3c2.8 3.3 2.9 3.5 4.8 6.3 2.1 3.2 2.3 2.9.8-1.3a35.7 35.7 0 0 1-2.6-10.6c-.2-2.1-.5-4.1-.7-4.4-.1-.4-.2-1.4-.2-2.3 0-3.2-1.3-9.5-1.9-9.5-.1 0-.2.2-.2.3m4.4-.1c-2.9 5.1 1.9 19 6.2 18.1 3.3-.7 2.9-9.1-.7-11.8-1.5-1.2-1.8-.7-.5.9.6.8 1 1.6 1.1 2.5.1.7.2 1.5.2 1.8 0 .3-.1.6-.2.6-1.7 0-5.1-6.5-5.4-10.5-.1-1.6-.4-2.1-.7-1.6m77.3 4.4c-2.2 2.6-3.2 6.7-1.9 7.9 1.5 1.4 3.9 0 3-1.9-.8-1.7-.8-3.3 0-5.1 1-2.3.5-2.7-1.1-.9m-6.4 3c-2 1.7-2 1.4-1.1 3.5.8 2 1.4 1.6 1.5-.9 0-.5.3-1.3.7-1.8 1.2-1.6.5-2.2-1.1-.8M94 256.1c0 .3 2.1 4.2 3.3 5.9 2.4 3.6 5.2 4.5 5.1 1.6 0-1.9-.9-3-3.8-4.5-1.3-.7-2.6-1.5-3-1.8-1.2-1.1-1.6-1.4-1.6-1.2m16.4 2.7c-.3.5 1 5.3 2 7.4 1.3 2.6 5.2 6.1 7.7 6.9 4.6 1.5 6-2.8 2.4-7.8-1.8-2.5-2.6-2.8-1.8-.7.9 2.6.2 3.3-2.5 2.4-1.4-.5-4.7-3.1-6-4.8-.7-.8-.5-.8 1.4.5 1.3.9 3.3 2 3.7 2 .6 0 .2-.4-1.3-1.5-.9-.6-2.4-1.9-3.3-2.9-1.7-1.7-2-1.9-2.3-1.5m256.3 1.8c-.3.5-.4 2.8-.2 2.9.1.1.3-.4.4-1 .2-1.3.1-2.3-.2-1.9M122.2 262c0 .1.2.4.5.7.9 1 3.2 5.8 3.5 7.5.5 2.4-.4 4.6-1.8 4.7-1.3 0-1.5.4-.5.9 1.6.8 3 .6 4.1-.5l.9-.9-.2-2.1c-.3-3.9-2.4-8-4.9-9.6-1.1-.9-1.6-1.1-1.6-.7m-25.9 5c-.5 2.8 1.3 9.3 4.7 16.5 2.6 5.5 2.8 5.9 8.2 11.3 4.8 4.9 5.7 5.6 10.6 8.6 1.8 1.1 4 2.6 5.1 3.5 1 .8 2.1 1.7 2.4 1.8.3.2 1.5 1.5 2.6 2.9 3.6 4.5 6.3 6.6 10.5 8.4 2 .8 1.9.5-.4-1.8-1.2-1.1-2.9-3.2-3.9-4.5-2-2.7-2.3-2.9-4.5-4.1-1.8-1-1.8-1.2-.1-.7 1.9.6 4.8 2.6 7.6 5.3 3.3 3.2 7.2 5.8 10.5 7 4.2 1.6 6.9 1.5 4.2-.2-2-1.2-4.1-4.3-5.1-7.5-.1-.3-.3-.5-.6-.5-.8 0-.1 4 1.1 6.1l.7 1.2-1-.8c-1.9-1.4-5.8-4.7-8.8-7.5-2.1-1.9-3.6-3-4.8-3.6-1-.5-2.3-1.3-3-1.7-.7-.5-2.1-1.4-3.2-2a56.86 56.86 0 0 1-6.7-4.4c-1.6-1.1-4.7-3.8-7.8-6.7-3.5-3.3-3.6-1.9-.3 1.9l.7.8-.7-.5c-1.1-.9-4.4-4.4-5.6-6.1-.6-.9-1.5-2.1-2-2.8-.9-1.3-4.4-7.6-7.4-13.5-.3-.6-.9-2.4-1.3-4-.8-3-1.4-3.9-1.7-2.4m204.6 6.1c-5.2 2.2-7 4.2-7.9 8.7-.7 3.3-.2 5.1.6 2 1.1-4.6 5.3-8.3 9.3-8.3 3.4 0 4.9.8 6.8 3.9l1 1.6-1.3-1.3c-1.6-1.6-2.9-2.3-4.6-2.3-2.6 0-3.4.6-1.2.9 4.1.5 7.5 5.6 8.4 12.6.2 1.5.4 2.9.5 3.3.1.4.1.6-.2.6-.5 0-2.8 2-3.3 2.9-1.1 2.1 0 2.9 1.5 1.2 1.7-1.9 4.4-2.4 5.4-.8 1 1.5 3.4.3 3.4-1.7 0-1-.4-1.9-1.1-2.5-.4-.3-.6-1.3-1-4.3-.9-6.1-2.1-10.4-3.4-11.7-.2-.2-.3-.5-.3-.6 0-.1-.6-.8-1.3-1.5-2.8-2.8-8.1-4.1-11.3-2.7m122.3 1.3c-.1.3-.2 1.9-.4 3.6-.3 2.8-1.3 11.9-1.9 16.8-.2 1.3-.5 3.1-.8 3.9-.5 1.5-1.5 6.4-2.2 10.8-1.1 6.8-4.4 17-5.7 17.5-.3.1-.6.4-.7.6-.6 1.4-1.1-2.2-.9-6.8.1-2.5 0-4.7-.1-4.9-.6-.6-.9.4-1.6 5.2-.4 2.8-.9 6.6-1.2 8.5-.3 1.9-.7 4.7-1 6.1-1.3 8.4-4.4 19.7-7.1 25.8-.4.8-.6 1.5-.5 1.5.2 0-2.7 5.5-4.3 8-.7 1.1-1.2 2.1-1.2 2.2 0 1.9 7.5-10.6 12.1-20.2 2.3-4.9 4.5-9.6 4.5-9.9 0-.1 1-2.3 2.2-5 2.5-5.5 2.7-6.2 3.5-9 .6-2.3.5-2 2.5-8.9.8-2.9 1.7-6.3 1.9-7.5 2.1-11.4 2.2-11.9 2.8-17.5 1-8.9 1.5-21.3.9-21.5-.6.1-.7.3-.8.7M132.1 278c0 .1.1.3.3.4.9.6 3.2 5.7 3.3 7.3 0 1.2-.7 2.4-1.9 2.9-1.1.5-1.1.8.2.8 3.4 0 4.5-3.1 2.6-7.1-1.2-2.1-4.5-5.4-4.5-4.3m-9.1.3c0 2.1 3.7 6.6 7 8.3 3.6 1.9 5.4-.3 3.4-4.1-1.9-3.5-2.9-3.6-2.3-.2.3 1.4-3.3-.2-5.9-2.6-1.9-1.7-2.2-1.9-2.2-1.4m-11.2.9c-6.9 2.5 5.5 19.4 17.6 24.2 3.7 1.5 4.4.7 1-1.1-4.4-2.3-7.3-4.5-11.6-9-7-7.2-8.9-11.3-6-13.1.5-.3 1.2-.5 1.6-.4.6.1.9-.2.5-.4-.6-.4-2.2-.5-3.1-.2m186.6 1.2c-3.8 1.8-5 8.9-2.1 12.2 1.1 1.3 1.4 1 .6-.8-2.9-6 2.8-12.3 7.9-8.8 1.4 1 1.8 1.1 1.8.4-.1-2.4-5.4-4.4-8.2-3m110.9 6.4c-.3.3-.2.6.2.6.2 0 .4-.2.4-.4.1-.4-.3-.5-.6-.2m-315.9 9.3c-3.3 3.3-8.4 7.6-10.9 9.2-.5.3-1.1.4-2.1.3-1.3-.1-1.4-.1-2.2.7-1.3 1.3-.8 2.4.7 1.6.4-.2.7-.3.7-.2 1.1 1.7 1.2 5.3.1 5.3-.1 0-.2.2-.2.5 0 1.1.8.7 2.5-1.5 1.3-1.7 2.3-2.7 5.3-5.9l1.8-1.9-.7 1.3c-.7 1.4-1.4 3.3-1.7 4.3-.1.4 0 .8.3 1.1.3.3.7 1.3 1.1 2.2 1 2.8 1.3 2.5 3.8-3.6.6-1.6 1.4-3.3 1.7-3.9.3-.5.8-1.6 1.1-2.3.3-.7 1.2-2.6 1.9-4 1.3-2.8 1.6-4.2 1.1-6.5-.1-.9.1-1-4.3 3.3m6.7.7c-.9 1.3-2.2 4.1-3 6.8-.4 1.3-.9 2.5-1.1 2.6-.2.1-.2.2-.1.2.2 0-.8 2.4-1.7 4.4-.1.3-.5 1.3-.8 2.2-1.2 3.8-3 6.7-4.8 8-1.9 1.4-2.7 2.2-2.7 2.6.1.3.2.3 1-.2 1.7-1.2 4.1-1.2 7 .1.4.2.2-1.2-.2-2.1-.2-.5-.6-.9-.8-1-.5-.2-.5-.3.9-3.3.7-1.5 1.5-3.1 1.6-3.7.3-.8 1.3-3 4.1-8.2.8-1.4 2.4-3.3 3-3.5 1.1-.3.7-1.3-.5-1.4-1.1-.1-1.3-.6-.7-2 .8-1.9-.2-3-1.2-1.5m7.5 3.9c-.1.3 0 2.1.3 4.1.2 2 .5 4.8.5 6.3s.2 3.3.4 4.1c.5 1.8.3 2.6-.7 3.3-1.5 1.1-.7 2.1 1.3 1.6.8-.2 1.1-.2 1.5.1 1.6 1.4 2.3-.4 1.1-2.8-1.2-2.5-1.4-3.3-2.1-7.8-1.6-9.6-1.7-10.3-2.3-8.9m209.6.2c-.5.2-.4 1 .1 1.8.8 1.2-1.5 1.1-6.2-.2-2.3-.6-2.8-.6-2.8-.1s2.2 1.9 3.2 2.1c.4.1 1.2.2 1.8.3 1.3.2.8.7-.8.7-.9 0-1.2.2-2.3 1.2-.7.7-1.7 1.5-2.2 1.9s-1.4 1.2-2 1.9l-3.5 4c-1.4 1.5-2.9 3.3-3.4 4-.5.7-1.5 1.9-2.2 2.7-.7.7-1.5 1.7-1.8 2.1-.3.4-.6.7-.8.7-.2 0-.5.2-.8.5-.6.7-1.1.7-1.3-.1-.3-1-.2-1.3.2-1.3.9 0 4.7-4.2 4.7-5.2 0-.8-.6-.5-2.4 1.3-2 1.9-2.8 2.2-4 1.7-1.6-.7-1.6-.1-.4 4.5.8 2.9 1.1 7.1.6 8.1-.2.4-.1.5.4.5.9 0 1.3-.5 1.9-2.3 2-6.2 4.9-11.1 8.5-14.1.7-.6 2.6-2.3 4.2-3.9 4.3-4.2 7.3-6.3 9.9-6.9 3.8-1 5-3 3-5.2-.6-.8-.9-1-1.6-.7M78 309.4c-.2.1-.3.3-.3.5 0 1.1-4.4 3.3-6.7 3.3-5.2 0-8 2.7-4.4 4.2.4.2 1 .7 1.2 1.1.9 1.7 2.2.4 1.2-1.3-.7-1.3-.2-1.8 2.5-1.9 3.3-.2 6.6-2.7 7.1-5.3.2-.7.1-.8-.6-.6m270.2 4.3c-.6.8-1.9 3.2-2.9 5.3-2.1 4.2-5.9 10.6-7.7 12.9-2.6 3.5-8.3 9.8-9.1 10.1-1.2.4-5.7 3.8-5 3.8.1 0 .1.1-.1.3-.7.7 0 3 1 3.3.2.1.5.3.6.5.1.3 2.3 1.5 3.5 1.9.9.3 1.6 2.5 1.7 5 .1 3 .8 3.9 1.8 2.3 1.7-2.8.8-8.3-2-11.7-.8-1-.5-2.3.7-3.2.8-.7.9-.7.9-.3 0 .3.1.6.3.8.4.4 1 2.1 1.2 3.1.3 1.8.4 2 .9 2 1.1 0 1.4-3.4.4-5.3-.5-1-.4-1.5.9-3.4.5-.8 1.1-2 1.4-2.8.3-.8.7-1.6.9-1.8 1.6-1.9 8.7-14.7 8.7-15.7 0-.1.4-.7.8-1.3 1.5-1.9 3.6-6.4 2.6-5.8-.2.1-.2 0 0-.4.9-1.7-.3-1.4-1.5.4m-286.1 3.5c-.4.4-.2 1.1.6 1.5 1.6.9 2 2.9.8 4.1-1 .9-1.1 1.3-2.3 5.8-1.1 4.2-1 3.9-.6 3.9.2 0 .6-.8 1.1-2.3 1.1-3.5 1.4-4.1 2.8-5.3 2.3-1.9 2.7-3.3 1.5-5.3-.9-1.7-3.2-3.1-3.9-2.4m194.1 0c-.1.1-.7.4-1.3.5-2.2.5-6.2 5.6-6.5 8.2-.1.7.1 2.2.3 3.5.4 1.9.4 2.4.1 3.4-.4 1.5-.2 2 .7 1.2.8-.8 1.2-2.1 1.2-3.7 0-.7.1-1.7.2-2.3.2-.6.4-1.6.6-2.3.2-.7.7-2 1.3-2.9 1-1.6 1.5-2 1.2-1.1-.1.3.1 1.4.5 2.5.7 2.4.6 5-.4 8.1-.8 2.5-.9 4.8-.3 8.7.4 2.9.4 3.3-1.3 7-.6 1.4-.3 1.5.8.2 1.6-1.7 5.5-1.8 7.9-.2 2.1 1.4 1.9.7-.4-1.9-4.2-4.5-4.3-8.6-.4-13.6 2.3-2.9 2-5.7-1-8.2-2.1-1.7-2.6-2.8-2.4-4.5.1-.7.2-1.6.2-2 .1-.7-.6-1.2-1-.6m3.2 1.3c-1.9 1.4-1.3 3.3 1.8 5.4 2.4 1.6 3.1 2.5 3.3 3.9.3 2.6.9 3.2 1.6 1.5.5-1.1.4-2.8-.3-4.1l-.4-.8 1 .5c1 .5 4.2 1.4 6.1 1.8 1.4.3 1-.3-.8-.9-2.9-1-3.2-1.2-5-2.4-2.9-1.9-2.7-2 1.1-.2 3.4 1.6 10.2 2.2 14.2 1.3 1.7-.4.7-.7-1.6-.6-4.9.3-10.1-1.1-15.5-4.3-2.8-1.6-4.4-1.9-5.5-1.1m25.4 1.8c-.7.7-.5 1.9.2 2.2 1.4.5 3 3.1 4 6.5.8 2.6.9 1.7.3-2.3-.8-5.3-2.8-8.1-4.5-6.4m-223.1.8l-.6 1c0 .1-.5 1.2-1.2 2.6-2.3 4.9-3.1 8.4-3.5 14.5-.1 1.2-.2 3-.3 4-.1 1.4-.2 1.9-.6 2.1-1 .6-1.7 1.6-1.7 2.4 0 1.1.2 1.1 1.7 0 .7-.5 1.8-1.1 2.6-1.4 1.7-.6 1.8-.9.9-2.5-1.4-2.3-.5-13.6 1.5-17.3.4-.7 2-6.2 1.9-6.4 0 .2-.3.5-.7 1m48.1.3c-.8.4-1.9 2-1.9 2.6 0 .5.7.7.9.2.4-.7 2-.3 2.7.7 1 1.3 2.4 2.8 3.3 3.4.5.4.6.5.3.8-.7.7-.4 1.6.4 1.4 3.2-.8 4.5-.6 4.8.7.4 1.8 1.4 1.1 1.4-.9 0-1.7-.6-2.4-2.6-2.6-2.9-.4-4.4-1.6-5.8-4.5-.4-.8-.9-1.6-1.2-1.7-.8-.5-1.7-.5-2.3-.1m-20.1 2.8c-3.5.7-4.2 2.2-4.7 10-.2 3 .3 4 .9 1.7.4-1.6 1.6-6.5 1.7-7.4.2-1.1 1.1-1.7 3.3-2.4.5-.2.6-.1.6.6 0 1.2 1 1 1.9-.4 1.2-1.8-.3-2.7-3.7-2.1m153.2 3.2c-3.2 1.4-4.4 7.7-2.7 13.1 1.2 3.5 1 8.3-.3 10.6-1.4 2.4-.6 2.9 1.7 1 .8-.7 1.8-1.2 2.1-1.2.8 0 1.4-.3 1.4-.7 0-.5-.8-.9-1.7-.9-.6 0-.7-.1-.6-.7.7-3.5.8-5.1.3-8-.8-5.9.2-11.6 2.4-12.8 1.5-.9-.9-1.2-2.6-.4m-154.7 1.7c-2.1 9.8-2.6 17.2-1.4 19.6 1.2 2.3.7 3.5-1.4 3.5-1 0-1.1.5-.1.8 1.6.6 5.4-.3 5.5-1.3.1-1-.1-1.5-.7-2.2a8.66 8.66 0 0 1-1.9-5c-.2-2.2.5-12.9.9-14.4.4-1.4.3-1.9-.2-1.9-.3 0-.5.3-.7.9m127.4 1.5c-6.7 2-8.7 12-4.2 20.7 1.5 2.8 2.7 3.5 1.7.9-1.3-3.3-1.5-6.3-.9-9.9l.3-1.7.5 1.2c1.3 3.3 4.2 6.9 8.3 10.4 5.6 4.7 6.4 5.8 5.3 7.4-1.1 1.7-8.8-5.7-11.6-11.3-.8-1.6-1.5-2.2-1.5-1.3 0 2.3 5.4 10.1 9.5 13.6l1.6 1.4-1.6-.9c-2.9-1.6-4.7-3.1-6-5.3-.8-1.2-1.6-1.7-1.6-.9 0 .4 1.8 3.3 3.2 5l1 1.2-1.2-1c-.7-.5-1.3-1-1.4-1-1.2 0 2.8 4 4.8 4.7 1.1.4 1.3.5 1.2 1.1-.3 1.8 1.4 3.5 4.1 4.1 3.1.6 5.9 1.6 8.5 3.1 2.7 1.5 3.3 1.7 3.3 1.2 0-.7-4-3.4-6.9-4.6l-1.9-.8.9-.4c1.3-.6 2.8-2 3.1-3l.3-.9 1 1.3c1.4 1.8 4.8 4.6 9.1 7.4 3.6 2.4 5.5 3.4 14.4 8 4.1 2.1 6.6 3.5 6.3 3.5-1.5 0-11.2-4.3-13.9-6.2-1.3-.9-4.5-2.6-4.9-2.6-.9 0-.2.8 1.6 1.8 1.1.6 2.8 1.8 3.9 2.6 2.1 1.6 5.1 3.2 11.3 6.3 4.2 2.1 6.1 3.6 5.7 4.6-.5 1.4-.5 2.3.1 2.2 2.2-.3 2.5-6.9.5-8.9-.4-.4-3.6-2.2-7-3.9-18.1-9-25.6-14.1-28-18.7-.7-1.4-2.5-3.2-3-3-.3.1-.4-.2-.6-1.7-.4-4.2-2.6-6.9-7.3-9.2-1.2-.6-2.7-1.4-3.1-1.7-.5-.4-.9-.5-.9-.4 0 .3 2.5 2.6 5.3 4.8 1.2 1 2.2 1.9 2.2 2.1 0 .2-.3.1-.9-.4-.5-.5-2.1-1.7-3.7-2.7-7.1-4.7-8.9-9.3-5.1-13.3 2.7-2.8 9.7-2.1 12.3 1.3l.7.9-1-.7c-2.1-1.4-5.1-2-7.2-1.4-1.8.5-1.4.9 1.1 1 4 .2 6.9 1.8 8.8 4.9 1.4 2.3 1.9 1.1.8-2.1-2-5.7-6.3-8.5-13.8-8.8-1.6-.2-3.2-.1-3.5 0m54.7.9c-2.9.8-4.7 1.8-6.1 3.5-2.3 2.9-2.7 4.6-.5 2.1 2.9-3.2 6.4-4.4 12.4-4.5 4.9 0 5-.1 4.4-.4-1.5-1-7.6-1.4-10.2-.7m-171.2 2.2c-7.3 3.5-6.6 16.4 1.1 18.8 1 .3 1.6 0 .8-.4-2.2-1.3-4.8-4.2-5.3-5.8-.5-1.6-.6-4.6-.2-5.8.2-.6.4-1.2.4-1.4.4-2.2 4.2-5 6.9-5.2 1.4-.1 2.1-.5 1-.7-2.3-.3-3.1-.2-4.7.5m17.3 1.5c-.8.9-1.8 2.4-2.6 3.9l-1.2 2.5.2-1.9c.1-1 .2-2 .2-2.3 0-.5-1.2-.9-2.1-.7-1.3.3-1.6 1.2-1.2 3.8.5 3.7-.6 5.9-3.6 7.2-3.8 1.6-8.7-2.2-8.7-6.9 0-1.6-.6-1.4-1.1.5-.6 2.1-.4 3.1.7 5.1 5 8.6 15.7 6.3 19.6-4.2.3-.8 1.1-2 2.5-3.3 2.3-2.4 2.5-3.1 1.2-4.4-1.2-1.2-2.2-1-3.9.7m101.4 3.6c-.9.3.3 5.4 1.3 5.4.4 0 .3-.2-.2-1.1-.2-.5-.5-1.6-.6-2.6-.2-1.3-.3-1.8-.5-1.7m-147.5 8.6c-.2.4.1.8.6.8 4.3.1 7.1 7.5 4.1 10.7-2.9 3-9.8 2.7-9.4-.4.1-.8.8-.9 1.3-.1.3.6 1.5 1.2 2.3 1.2.5 0 .4-.6-.2-1.2-.3-.3-.7-.9-.8-1.4-.7-2-3.9-1.8-4.9.3-1 2.2-2.2 7.9-1.9 9.1.5 1.8 5.2 4.4 7.9 4.4 2.2 0 2.5-.7.3-.9-1.5-.2-4.6-1.5-5.2-2.3-.2-.2-.2-.3-.1-.3 4.8 2.6 9.5 2.2 12.9-.9 2-1.9 1.8-2.6-.2-.9-4.4 3.9-12.3 2.5-13.4-2.3l-.2-.8.6.9c2.4 3.6 11.2 2.5 14.2-1.7.4-.6.8-1.2.7-1.2s.1-.4.3-.9c1-2 .2-6.9-1.6-9.3-1-1.4-6.7-3.7-7.3-2.8m-12.9 1c-.8.3-1.9 1.5-2.1 2.4-.5 1.4-.3 1.7 2.5 3.4.7.5 1.6 2.1 2 3.7.1.5.3 1 .5 1.2.7.8.8.3.7-3.2-.2-4-.6-5.1-2.1-5.4-1.4-.3-.5-1.2 1.1-1.2 1 0 1.1-.7.2-.9-.9-.2-2.2-.2-2.8 0m200.2.8c-1.3.3-3 1.3-3.3 1.9-.5 1-.3 1.9.4 1.9 3.2 0 5.2 4.2 9.1 18.9 1.9 7.3 3.1 9.4 6.4 10.9 2.5 1.2 3.3 2 4 3.9 1 2.6 1.6 2.5 1.2-.3-.3-1.9-.8-2.9-5.4-11.7-.4-.7-1.2-2.6-1.8-4.2-1.2-3.2-1.8-3.5-1.1-.6 1 4.5 1.3 5.5 2.5 8l1.3 2.7-1.2-1.3c-1.8-2-4-8.1-5.8-16-.5-2-1.1-3.8-2-5.7-1.5-3.1-1.8-4.9-.9-5.8.3-.2.5-.4.6-.3.4.3 2.6.4 2.6.1-.1-1.5-4.1-3-6.6-2.4m61.7 3.4c-1.1.7-.8 1.7.5 1.7h1.1l-1.8 1.2c-6.6 4.5-9.2 9.6-9.2 17.8 0 5.8.9 8.2 4.5 12.9 4.4 5.6 6.7 6.6 13.9 6 6.6-.5 9-2 11.4-7 1.2-2.4 1.2-2.6.4-1.9-.3.3-1.2 1.1-2.1 1.9-1.4 1.3-3.5 2.5-4.3 2.5-.2 0-.5.2-.7.4-1 1.2-8.2-1.1-10.2-3.3-3.2-3.3-3.9-6.2-2.5-10.2 1.3-3.7 1.2-4.7-.3-2.7-2.5 3.5-3.2 9.9-1.4 12.1.2.3.1.2-.4-.2-3-2.7-3.3-10.2-.7-14.8 3.9-6.8 8.9-9.1 9.3-4.3.1 1.2-2 6.2-2.6 6.2-.3 0-1.4 2.6-1.3 2.9.2.5 5.6-5 6.1-6.3 1.7-4-.7-12.2-4.3-14.5-1.3-.9-4.3-1.1-5.4-.4m-75.4.2c-1.8.6-4.1 2.4-4.1 3.2 0 .2.5.9 1.2 1.5 1.7 1.7 2.1 3.8 1.4 7.5-.1.7 1.2 2 2.1 2 .3 0 2-9 2-10.8v-.9l-1.7.2-1.7.2.5-.6c.7-.8 2.1-1.2 3.3-1 1.2.2 1.7-.1 1.6-.9 0-.7-2.7-1-4.6-.4m-153.5.6c-.4.2-1.1.7-1.5 1.1-1.1 1.2-3.5 1.4-3.5.3 0-.3-.8-.8-.9-.6-.8.9-.8 2.4-.2 3.6.4.8 4.6 4.2 4.8 3.9.3-.3-.4-1.3-2.2-3.1-2.4-2.4-2.4-2.4.4-1.2 3 1.3 2.9 1.3 3.6 2.2.3.5.8 1.2 1.1 1.7.3.5 1 1.6 1.4 2.5.5.9 1.3 2.3 1.9 3.1.6.8 1 1.5.9 1.5-.2 0 2.2 3.4 3.5 4.9.6.7 1.2 1.4 1.2 1.5 0 .3 1.4 1 2 1 .2 0 .9-.4 1.5-.9s1.4-1 1.8-1.1c.7-.2.9-.9.3-1.4-.3-.2-.7-.2-1.6 0-2.2.6-3-.1-6.8-5.8-3.4-5.1-4.6-7.9-4.7-11.1-.2-2.7-.8-3.1-3-2.1m141.5 6.5c.8 1.6.1 4-1.2 4-.3 0-.6.1-.6.3-.8 1.3-5.6 1.9-5.8.7-.1-.5 0-.7.6-.8 2.9-.6 5.9-3 5.9-4.8 0-.7.5-.4 1.1.6m-114.2 6.2c0 .2.3.6.8.9 5.5 4 4 17.7-1.8 17.7-4.9 0-8.1-3.8-6.9-8.2.3-.9.4-1.8.3-2-.6-.9-5.2.2-6.1 1.6-1.8 2.6-2.5 5.9-1.9 9.1.4 2.2 1.3 2.9.9.7-.1-.8 0-1.7.3-2.7l.5-1.5.5 1.5c.5 1.5 3.1 4.8 3.5 4.4.1-.1-.3-.9-.8-1.7-1.7-2.8-2.2-5.8-1.2-7 .8-.9 1.3-.6 1.9 1.4 1.9 5.7 7.4 8.5 11.8 5.9 1.5-.9 1.6-.9.9-.2-2.4 2.5-6.5 3-9.3.9-1.9-1.4-2.3-.8-.5.7 9.5 8.1 19.3-8.5 11.2-19.1-1.5-2.1-4.1-3.5-4.1-2.4m65.1 1.8c-6.4 1.4-11.6 7.3-11.4 13.1 0 1.1 0 2.3-.1 2.7-.1.4-.1 1.4.1 2.2.2.8.4 1.8.4 2.2.4 2.2 2.9 6.1 5.5 8.6 1.7 1.6 5.6 3.8 5.9 3.5.1-.1.1-.2.1-.3-4.2-2.7-5.5-3.8-7.5-7-1.7-2.6-3-7.9-2.6-10.2l.2-1.3.2 1.7c.5 4.8 2.7 8.3 7.3 12.1 1.6 1.3 1.2.4-.4-1.1-2.6-2.3-5.1-6.7-5.1-8.7v-.6l.3.7c.2.4.5 1.2.8 1.9.8 2 2.7 4.6 4.2 5.9 1.5 1.3 4.2 3.2 4.6 3.2.5 0 .1-.5-1.2-1.4-6.9-4.8-9.1-12.9-5.6-20.3 2.6-5.4 8.3-6.7 12.8-3 2 1.7 1.9.1-.2-1.8-2.5-2.2-4.9-2.9-8.3-2.1m124.5 1.3c-1 1.9-1 10 0 13.7 1.1 4.1 4.9 9.1 9.6 12.8 5.2 4.1 15.1 4.9 19 1.4 5.9-5.2 7.4-7.6 7.8-12.8.2-2-.2-2.8-.6-1.1-2.1 10-11.9 15.3-21.8 11.7-2.2-.8-3-1.3-6.5-4-1.3-1-3.9-4.2-3.9-4.7 0-.1-.3-.7-.7-1.3-1.9-2.9-2.9-9.9-2.1-15.4.1-.7-.4-1-.8-.3m-212.3.7c0 .1.3.8.6 1.5.5 1.2.6 1.9.6 4.8 0 4.4.9 5.4 3.3 3.9 1.1-.8 1.1-.9-.2-3-.6-1-1.7-2.9-2.4-4.4-1.1-2.2-1.9-3.3-1.9-2.8m120.7 5.7c.1.4.7 1.3 1.4 1.9 1.8 1.8 2.3 3 2.2 5-.1 1.8.1 2 1 .8.4-.5.5-1.1.6-2.3 0-1 .1-1.5.3-1.4.1.1 1.7 1 3.4 2.1 5 3.1 13.1 6.1 12.7 4.6-.1-.5-3.3-2-5-2.4-.7-.2-1.3-.4-1.3-.5 0-.2 1.5-.1 3.7.5.8.2 1.9.4 2.4.5 1.8.3 3.7 2.3 3.7 3.9 0 .5.5.3.9-.3.6-.9.5-3-.2-4.1-.8-1.4-2-1.7-5.4-1.8-5.5-.1-11.1-2.1-16.5-5.8-1.1-.7-1.9-1.1-2.8-1.2l-1.2-.1.1.6m-5.2.2c-3.3.8-4.8 2.3-5.3 5.3-.3 1.9-.9 3.5-1.7 4.6-.6.8 0 .9.8.1.4-.4 1-1.5 1.4-2.4.9-2.6 1.8-4.1 2.6-4.7 1.1-.8 1.2-.7.4.5-.4.6-1.1 2.2-1.7 3.8-1.2 3.1-2 4.4-4 6.3-1.5 1.5-1.6 1.7-.7 1.7 1.2 0 5.1-3.8 6.4-6.2.3-.5 1.3-1.9 2.2-3.1.9-1.1 1.8-2.3 1.9-2.6.3-.8 1.3-.4 1.7.6.6 1.6.4 3.6-.6 6-.4.9 1 .4 1.7-.6 3.1-4.9 0-10.5-5.1-9.3m-36.9 4.1c0 .4-.1.8-.3.8-.2 0-.2-.2 0-1s.4-.7.3.2m5.7 5.3c0 .3.2 1 .5 1.6.3.6.4 1.2.4 1.3-.1.1 0 .2.1.2s.4.3.6.7c.9 2 4.6 4.8 7.6 5.6 2.1.6 4.9.2 8.2-1.1.4-.1.4 0 .2 1.2-.2 1.5-1.6 4.2-2.3 4.4-1 .3-4.7.7-6.3.7-1.9 0-2.2.3-.8.7 2.5.9 9.5.1 9.5-1.1 0-.1.3-.6.8-1.1 2.8-3.2 1.9-8.4-1.7-10.1-1.6-.8-3.4-1-3.4-.5 0 .1.2.3.5.3.6 0 2.5 1.3 2.5 1.7 0 .5-3.2 1.4-4.8 1.3-2-.1-6.5-2.3-8.3-4.1-.7-.7-1.4-1.2-1.4-1.1-.3.5 2.8 4 4.7 5.3 1.1.7 1.2 1.1.2.6-2.3-1.3-5.2-4.1-5.9-5.9-.7-1.2-.9-1.3-.9-.6m49.1 2.8c.1.2.6.6 1.2.9 1.5.8 2.7 1.7 4.1 3 1.9 1.8 3.8 2 5.8.7 1-.6.8-.8-.9-1-.8-.1-2.2-.5-2.9-.8-.8-.4-1.5-.7-1.5-.7-.1 0-1.3-.5-2.7-1.2-2.8-1.3-3.3-1.4-3.1-.9"/></svg>