<svg xmlns="http://www.w3.org/2000/svg" viewBox="0 0 410 410"><path d="M189.7 13.2c-5.5.7-9.4 3.5-15.1 10.5-5.2 6.4-6.9 8.1-17.5 16.8-11.1 9.1-11.5 9.5-15.3 16.2-1.6 2.8-1.9 3.5-2.1 4.5-.2.9-.1.9.5-.2 1.5-2.6 4.3-4.8 10.3-7.8 12.6-6.4 18.4-11.2 24.8-20.6 3.2-4.7 4.9-6.6 7.4-8.3 7.7-5.2 18-4.7 23.1 1.2.5.6 2.1 2.6 3.5 4.4 6.7 8.7 8.8 10.5 17.8 15.3 5.8 3.1 8.1 4.6 10.9 7.3l1.4 1.3-.8-1.2c-2.7-4.1-18.4-20.7-24-25.5-1.6-1.3-3.6-3.1-4.5-3.9-.9-.8-2.7-2.4-4-3.7-5.2-5-10.6-7.1-16.4-6.3m99.7 8.8c.1 1.2 0 3.9-.1 5.9-.2 3.5-.3 4.9-1 12.4-.2 2.7-.3 5.3-.3 14.7v11.5l1.2-.1 1.2-.1-.1 23.3-.1 23.3.4.1c.9.2 3 .4 3.1.4l.2-23.4c.1-21.2.1-23.3.4-23.3.1 0 .7.1 1.1.2l.9.1v-3c0-4.8.1-4.9 4-4.5 2.8.3 2.7.4 1.3-.9-3.2-2.9-10.5-17.2-8.7-17.2.2 0 .4.4.9 1.9.6 1.8 2.7 6.2 3.1 6.7.2.2.5.2 1.5.1 1.3-.2 3.2 0 3.8.3l.4.2-1.3-1.7c-4.2-5-5.9-8.2-7.4-13.8-1.3-4.9-4.2-14.9-4.4-15.1-.1-.2-.1.8-.1 2m-98.4-.3c-6.3 1.2-9.9 3.9-15 11.4-6.3 9.2-12.9 14.8-24.7 20.5-8.9 4.4-12.6 8.3-11.4 12.3.7 2.5 2.5 1.9 4.4-1.5 1.6-2.8 3.9-4.8 9.5-8 6.9-3.9 12.8-8.4 17.3-13 1.9-1.9 2.7-2.9 7.8-9.3 4.9-6.2 8.9-8.9 14.2-9.6 5.5-.7 8.3 1 12.7 7.7 5.4 8.2 9.7 11.9 20.4 17.8 3.7 2 4.3 2.5 5.8 4 3.5 3.7 5.1 8.7 4.9 14.7l-.1 2.6 1.3-.1c1.6-.1 1.6-.2 2-1.6 2-6.6 2.1-10.6.4-13.1-2.4-3.5-6.6-6.7-13.6-10.4-9.2-4.8-11.5-6.8-19-16.7-3.8-5-5.7-6.4-9.4-7.4-1.6-.5-5.6-.6-7.5-.3m3.6 16.6c-.2.2-.3.2-.4.1-.1-.4-.4 0-.4.6 0 1 .6 1 4.1.6 1.4-.2 2.4 0 3.7.6 1.2.5 1.2.4.3-.6-1.2-1.3-4.1-1.9-6.1-1.3-.4.1-.7.1-.8 0 0-.2-.2-.2-.4 0m-10.9-.1c-.1 0-.7.1-1.2.2-.9.1-1.1.2-2 1.1-1.3 1.2-1.2 1.3.2.7 1.2-.5 2.6-.6 5.3-.3 1.6.2 2.2.1 2.3-.5.1-.5-.2-1.3-.3-.9-.1.3-.1.3-.4-.1-.2-.3-.3-.3-.5-.2-.1.2-.3.2-.9 0-.7 0-1.9-.1-2.5 0m0 4c-1 .8-.4 2.4.9 2.4.9 0 1.3-.5 1.3-1.4 0-.7-.6-1.3-1.3-1.3-.3-.1-.7.1-.9.3m12.4 0c-.9.8-.3 2.4.8 2.4.5 0 1.3-.4 1.4-.8.5-1.4-1-2.6-2.2-1.6m-5.7 3.4c-.1 0-1 .5-2 .9-2.1 1-3.2 1.1-5.3.4-5.5-1.7-7 2.9-2.4 7.5 1.5 1.6 1.5 1.7-.1 1.2-1.1-.3-1.1-.3-.9.1.1.2.4 1.2.6 2.2.4 2.2.4 2.2 2.2 3.8 6.2 5.5 8 5.9 13.1 2.3 5.3-3.7 5.2-3.6 5.7-6 .7-3.4.4-4.2-1.2-3.3-2.1 1.1-2.1 1 .4-1.4 2.8-2.9 3.5-4.3 2.7-6-.7-1.5-1.8-1.7-3.9-.8-1.7.8-2.2.8-3.9 0-2.6-1.2-4 .5-2.3 2.8.5.7.8 1.2.8 1.5v.5l-.5-.6c-.3-.3-.8-.7-1.1-.8-.8-.2-.9-.4-.7-2.6l.1-1.9h-.4c-.5.1-.8.1-.9.2m19.2 3.7c0 1.9 1.2 4 5.3 9.7 3.8 5.1 3.9 5.3 1.9 4.4-1.4-.7-2.7-1.9-4.7-4.5-2.1-2.6-2.7-2.9-2.7-1.1 0 .9.4 1.7 1.8 3.5 1.7 2.3 3 4.5 4.6 7.7 1.7 3.5 2.4 4.4 5.3 6.9 2.2 1.9 10.6 10.2 10.5 10.3-.1.1-1.7-.7-3.5-1.9-1-.6-2.1-1.3-2.5-1.5-.4-.2-1.3-.6-2.1-1-1.6-.8-3.1-1.9-5.6-4.1-.9-.8-2.1-1.9-2.7-2.3-1.7-1.3-5-5.4-5.9-7.4l-.5-1 .1 1c.7 6.8 8.9 15.4 23.4 24.6 15.2 9.6 22.5 15.7 28.4 23.4 4.3 5.7 7.1 12.1 6.4 14.7-.2.8-.7 1.7-1 1.7-.2 0-2.1-2.8-3.8-5.9-3-5.3-5.6-8.8-7.8-10.7-.7-.6-1.6-1.4-2-1.9l-.8-.9.5 1.4c1.4 4.1 1.5 9.6.2 12.9-.2.6-.2.6-.2-.8 0-4.4-1-8.9-2.6-12.8-.9-2.1-1-2.2-.8-.5.2 1.7-.1 4.2-.7 6.1-.5 1.6-.9 2.4-.7 1.5.3-1.7-.6-6.1-2.3-10.7-1.1-2.9-1.5-3.8-.8-1.4 2.8 8.7 1.4 19.2-3.6 27.1-1.1 1.8-1.1 1.7-.4-.8 2.2-7.8 2.6-14.2 1.1-18.7-.1-.5-.3-.9-.4-.9-.1-.1-.1 1.4-.1 3.3 0 3.8-.3 5.4-1.3 8.6-.6 1.9-1.6 4.1-1.5 3.3 1-5.7-.3-16.2-2.5-20.4-.5-1-1.1-2.2-1.3-2.7l-.4-1 .1 2.2c.1 2.7-.2 4.9-1.1 7.5-.7 2.2-.8 2.2-.5.1.8-6.2-3.3-19.4-7.7-25l-.7-1-.1.5c0 .3.1 1 .3 1.5 2.1 5.9 2.6 8.5 3.1 16.6.5 8.2.6 9.6 1.5 13 .3 1.2.6 2.6.6 3.1 0 1.8.7 3.3 1.3 2.6.5-.7.9-1.6 2.1-5 1.5-4.4 1.4-4.2 1.9-2.8.6 1.5 1.1 3.9 1.3 6.7.5 6.2 0 9.2-2.2 13.5-1 2.1-1.6 3.7-1.3 3.7.3 0 3.9-5.9 4.9-8.1 1.1-2.4-.5 4.6-1.8 7.8-1.5 3.7.9 4.4 2.7.8 1.1-2.1 5.9-8.3 6.2-8 .1.1-1.4 8.1-2.1 10.9-.3 1.4-.6 2.7-.7 3-.1.4.6.8 1 .7.6-.2 3.5-9.7 4.9-16 .5-2.3 1.3-6.5 1.7-9.2l.1-.8.4 1.6c1.5 6.3.6 16.4-2.2 23.1-.2.4-.1.3 2.7-1.5 2.5-1.7 2.5-1.7 3.3-4.9.7-2.8 1.1-5.1 1.2-8l.1-2.2.4 1c.2.5.8 1.8 1.3 2.9.5 1 1.2 2.7 1.5 3.6 1 2.9 1.1 3.1 1.5 1.6 1.4-5 .7-12.9-1.4-17.3l-.3-.7.3.4c1.2 1.4 3.1 6.2 4.2 10.2.9 3.5.7 3.6 4.6-1.3 3.7-4.7 3.7-4.8 3.4-9.4l-.1-1.7.8.7.8.7v-.9c.1-2.7-1.8-6.4-5.4-10.1l-1-1.1 1.4.7c3.2 1.6 6.5 3.9 8.8 6.1 1.5 1.5 1.8 1.6.8.4-.4-.5-1.2-1.7-1.9-2.7-2.3-3.7-3.1-4.5-8.1-8.8-5.7-4.9-8.3-6.9-15.2-11.5-3.7-2.4-4.5-3.1-7.3-5.6-2.9-2.6-4.1-3.4-6.7-4.8-4.6-2.3-7.3-4.8-11.2-10.3-.8-1.2-1.6-2.3-1.7-2.5-.2-.2.1-.2.8.3.6.4 2.2 1.3 3.7 2 5.8 3.1 8.8 5.5 12 9.8.5.7 1.1 1.4 1.2 1.5.3.2 0-1.8-.4-2.9-.4-1-.4-1 .7-.2 2.4 1.9 5 5.1 6.4 8.1l.7 1.5.2-.5c.6-1.5.7-3.8.1-5.5-.1-.4-.1-.4.7.1 2.5 1.5 4.8 4.2 7.8 8.7 1.5 2.4 3.9 5.1 4.4 5.1.4 0-.3-5.1-1.1-7.4-2.6-8-8.3-13.4-17.9-16.8-7.6-2.7-8.7-3.3-13.2-7.2-2.7-2.4-4-3.3-7.2-5.2-5.6-3.3-6.7-4.4-10.9-10.9-1.9-2.9-2.8-4.1-2.8-3.7m-40.1 5.6c-3.1 3.2-4.8 5-12 13.5-7.6 8.9-9 10.3-17.7 17.3-2.1 1.7-4.7 3.9-5.8 4.9-2.9 2.6-2.9 2.6-7.8 5.9-5 3.3-8.7 6.1-11 8.1-.8.7-2.6 2.2-3.8 3.3-4.2 3.6-5.2 4.7-7.6 8.4-.7 1.1-1.5 2.3-1.9 2.7-1 1.2-.6 1 .9-.5 2.3-2.2 5.6-4.5 8.6-6 2.2-1.1 2.2-1 .2 1-5.6 5.9-10.7 17-11.6 25.4-.1.6.1.2.3-1 1.4-6.4 4.1-11.5 8.5-16.5 1.4-1.5 1.6-1.6 1-.4-7.3 14.4-7.4 35.1-.2 49.2 1.5 2.9 6.3 10.2 5.9 8.9-.1-.4-3.5-10.1-3.7-10.7-.6-1.6 4.3 7.1 7.6 13.4 2.9 5.8 6.7 11.3 7.2 10.8 0 0-1.3-3.1-3.1-6.8-1.7-3.7-3.1-6.8-3.1-6.8.1-.1 10.1 14.4 12.9 18.9 5 7.8 7 12.9 7.3 18.3.1 2.5.1 2.5 1.3 1.6 4.2-2.7 4.6-9.5 1.4-19.3-2.6-8-4.6-11.2-12.4-20-5-5.6-6.4-7.5-8.1-11-.6-1.1-1.6-3-2.2-4a26.9 26.9 0 0 1-3.1-6.9c-3.6-12.9-2.7-24.1 2.6-32.1 1.4-2.1 1.6-2.2.7-.3-3 6.8-3.9 15.8-2.2 21.7l.2.7.1-1.4c.3-3.1 1.2-6.5 2.3-9 .8-1.7.8-1.7.5-.4-.6 2.7-1 10.3-.8 13.6.4 4.5 1.1 7.1 3.3 12.6 2.5 6.1 2.6 6.4 5 8.6 3.5 3.4 4.6 4.5 4.9 5.2.2.4.3.6.3.4 0-.5-1.7-4.3-4.6-10-4.5-8.8-5.8-12.8-5.7-17.3 0-.9 0-.9.2.3.7 5.3 2.8 9.7 8.8 17.8 7.8 10.6 10.2 16.8 11 28.7.1 1 .2-8.2.2-12 0-2.7-.1-3.3-.9-7.9-1.2-7.2-1.9-8.8-5.5-13.8-8.3-11.2-11.3-20.8-10.2-32 .2-1.6 1-5.5 1-4.9.6 7.8 5.5 25.1 8.4 29.5 1.3 1.9 1.3 1.9.5-.3-1.8-4.7-3.2-11-3.7-15.9-.1-1.1 0-1 .6 1.4s2.8 9.2 3.9 11.9c.6 1.6 1.3 2.8 2 3.4l.5.5-.1-1.7-.1-1.7.5 1.2c.8 1.9 2.7 7.5 3.3 9.5.6 2.1.7 2.2.5.5-.2-1.4 0-3.6.5-6.6 1.8-10.1 1.7-12.8-.2-19.5-1.6-5.7-2-8.4-1.7-10.9l.1-1.2.1 1.4c.3 3.1 1.2 6.3 2.5 8.8.6 1.2 1 1.8 1 1.4 0-.2-.8-4.6-1.3-7.2-.4-2.2-.6-6-.3-6.5.1-.1.4.5.7 1.5.8 2.6 2.8 6.3 2.2 4.2-.3-1.2.1-5 .8-7.5.6-2 .7-3.1 1.9-15 1.2-12.5 3.1-15 14.1-18.8 6.5-2.3 7.8-3.2 8-5.9.1-1.4.2-1.4-1.5-.1-1.9 1.4-3.8 2.5-9 5.4-7.2 4-9.6 5.8-11.6 8.6-3.3 4.7-6.3 15.7-5.7 20.9.2 2.1.2 2.1-.5-.1-.9-2.6-1.2-4.8-1.1-7.5l.1-2.2-.4 1c-.2.5-.8 1.8-1.3 2.7-2.2 4.2-3.5 14.8-2.5 20.4.1.8-.9-1.5-1.5-3.3-1.1-3.2-1.3-4.8-1.3-8.6 0-3.6-.1-3.9-.5-2.4-1.4 4.7-1 10.9 1.2 18.7.7 2.5.7 2.6-.4.8-5-8-6.3-18.4-3.6-27.1.8-2.4.3-1.6-.8 1.4-1.7 4.6-2.6 9-2.3 10.7.2.9-.2.1-.7-1.5-.6-1.9-.9-4.5-.7-6.2.2-1.6 0-1.5-.8.6a32.8 32.8 0 0 0-2.6 11.8l-.1 2.5-.3-1c-1.1-3.7-1-8.5.4-12.5.6-1.7.6-1.7-1.4.3-9 8.9-13.9 20.8-14 33.5v4s-.2-.8-.5-1.9c-2.4-10.3-.8-20.4 4.5-29.8 6.2-10.9 16.7-19.6 39.4-33 10.4-6.1 14.1-9.5 16.4-15 .5-1.2 1-3.9.7-3.4-4.7 6.2-7 7.9-14.3 10.1a85.2 85.2 0 0 0-6.9 2.4c-.8.4-.4.1 2-1.5 8.4-5.6 13.6-10.7 17-16.5.8-1.3.7-1.3-.8.1-1.3 1.2-3.3 2.6-4.9 3.4l-1.1.5 1.4-1.6c4-4.5 7.3-9.5 8-12.3.2-.9.4-1.6.4-1.6.3 0-.8 1.2-2.3 2.6m20.7.6c.5.2.8.1 1.3 0 .8-.3 1-.2 2.5.9.6.4 1.2.8 1.3.8.2 0 .2.1-.1.3-.5.4-.8.4-1.6.1-.3-.1-.8-.3-1.1-.3-.4-.1-.4-.1-.3-.3.3-.4 0-.3-.5.1-.4.3-.6.3-1.6.2-.9-.1-1.3 0-1.8.2-.8.3-1.3.3-1.6 0-.1-.2-.1-.3 0-.3s.6-.3 1.1-.7c1.4-1.3 1.5-1.3 2.4-1m.4 3c.7.3.8.3 1.4.1.7-.2.8-.2 1.6 0 1.2.4 1.3.5.4.9-2.1 1.1-4.7 1-6-.2l-.4-.4 1-.4c1.3-.4 1.1-.4 2 0m-41.4 10.7c-2.3 2.1-6.6 4.5-10 5.6-1.8.6-2.7.8-7.1 1.6-4.5.9-7.1 1.8-8.7 3.2l-.6.5 1.7-.4c3.2-.8 11.5-1.8 11.9-1.5.1.1-1.4 1-2.5 1.4-1.5.5-3.4.8-6.9 1.1-9.5.8-16.4 4.6-21.5 11.8-1 1.4-1.1 1.4 1.2.5 3-1.2 10.1-3 10.4-2.7l-1.1.9c-2.8 1.9-6.2 5.9-7.8 9.2-1 2.1-2.2 6.2-1.9 6.2.1 0 .5-.5.9-1.1 3.2-4.3 7.7-9 10.4-10.8 1-.6 2.3-1.5 2.9-1.9.6-.4 2.1-1.7 3.4-2.8 1.2-1.1 2.6-2.3 3-2.5 1.2-.7.8-.6-1.2.2-1 .4-2.7 1.1-3.8 1.5-1.1.4-2.1.8-2.1.8h-.1c0-.7 6.9-3.9 10.3-4.8 2.1-.6-1.8-.2-5.6.5-1.3.2-3.3.7-4.5 1-2.3.6-2.4.5-.5-.7 2-1.2 4.3-1.8 9.2-2.3 9-.9 11.3-2.3 17.4-10.2 1.3-1.6 2.8-3.5 3.4-4.1 1.2-1.3 1.2-1.5-.2-.2m45.2 16.6c-.6.1-3.8.2-7.2.2-7.4 0-7.3 0-12.1 2.4-4.1 2-3.9 2-7.8 3.1-6.2 1.8-9 3.9-8.7 6.8.2 2.5 2.5 3.3 4.2 1.4 1.8-2.1 2.3-2.5 3.4-2.8 2.5-.7 7.1-.8 11.8-.1 6.5.9 17.8 1.8 19.5 1.6 4.2-.5 6.9-5.4 4.9-9-1.6-2.9-4.4-4.1-8-3.6m3.7 1.3c5.4 2.7 3.5 10.8-2.5 10.8-6.6 0-7.9-9.1-1.6-11.2 1.1-.4 2.8-.2 4.1.4m-3.6.4c-3.5.9-4.9 5.2-2.6 7.9 3.1 3.5 8.8 1.1 8.4-3.5-.2-3-3-5.1-5.8-4.4m11.8 6.8c-.8.4-1 .8-1.5 2.1-1 3-4.6 4.3-13.3 4.7-4 .2-4.7.4-4.5 1.3.4 2.1 9 1.5 13.4-.9 1.3-.7 1.6-.6 1.2.3-.3.6-3.9 2.5-6.3 3.3-4.4 1.5-8.2.9-11.1-1.7-1.7-1.6-2.4-1.7-2.4-.4 0 1.5 1 2.9 3.1 4.5 1.5 1.1 2.3 2.7 1.6 3.1-1.8 1-8-5.3-9.5-9.6-1-2.8-2.4-3.7-4.2-2.6-2.5 1.4-2.2 6.9.6 9 2.2 1.7 2.2 3.1-.2 3.9-5.8 2.2-8.8 10.9-5.8 16.8 1.7 3.3 3.6 4.8 7.6 5.9 1.7.5 2.5.8 3.9 1.7 2 1.2 2.3 1.3 3.4 1.6 1 .2 1.1.6.3.8-1.4.4-1.4 1 .1 2 2.8 1.7 4.7 6.3 4.1 9.7-.2.9-.3.8-.7-.7-.5-1.9-.8-2.1-1.8-1.2-1.1 1-1.4.3-.5-1.1 1.1-1.6.7-2.8-1.8-5.3-1.8-1.9-2-2-2-1.4 0 .6-.8 1.3-1.6 1.4-1.5.2-2.4-.5-3.8-3-1.3-2.4-2.6-3.7-3.8-3.7-1 0-1 .2-.1 4.2 1.3 5.4 1.5 5.7 4.6 8.9l2.2 2.3-.1 1c-.4 4-1.1 7-1.6 7-.3 0-.3-.1-.2-1.3.5-4.1.1-6-1.2-6.8-.4-.2-1.3-1.1-2.1-1.8-1-1-1.4-1.2-1.2-.9.4 1.1.1 4.2-.6 7.4-.9 4.2-.9 4 .4 5.2.6.6 1.3 1.4 1.5 1.8.5 1 .7 1 1.7-.4.9-1.2 2.1-2.5 2.3-2.3 0 0 .2.6.3 1.2.8 3.6 3.3 4 3.9.5.1-.9.3-1.7.3-1.7s.1.7.2 1.7c.1 2.1.3 2.2 2 2l1-.1.1-1.2c.1-.7.2-1.6.2-2l.1-.8.4 1.5c.2.9.5 1.8.6 2.1l.2.6h1.4c1.6 0 1.5.1 1.7-1.9.2-2.3.3-2.3.7-.2.4 2.3.3 2.2 2.1 2.2h.8l.1-1.5.1-1.5.3 1.5c.4 2 .4 1.9 1.5 1.7l.9-.2-.1-1.1c-.1-1.4.3-2.6 1.1-3.5.8-.9.9-.9 1 1.6.1 2 .3 3.1.7 3.1.1 0 .2-.1.2-.2s.7-.6 1.4-1.1c2.1-1.4 2.4-2.1 1.9-5.6-.1-.9-.1-2.2 0-4.1.1-2.4.1-2.8-.1-2.7-.1 0-.6.2-1.1.3-1.3.3-3.9 2-4 2.7-.1.2-.3 1.5-.6 2.8l-.5 2.4-.1-1.3c-.2-1.5 0-4.5.3-5.2.3-.7.5-1 3-2.7 3.6-2.6 4.2-3.4 5.5-7.4 1.1-3.2.9-4.4-.4-4.4-1.5 0-2.8.9-5 3.4-2.8 3.3-4.7 4-6.4 2.4-2.3-2.2-.6-4.8 3.3-5.4 4.4-.7 10.5-4.8 12-8 2.6-5.5-.6-12.7-6.4-14.6-1.7-.5-2-1.1-1.1-1.8.9-.6 2-.3 4.5 1.2.5.3 1 .6 1.3.6l.4.1-.1-1.8c-.1-2.1.3-3.2 1.5-4.2 1.2-1.1 1.4-.8 1.8 1.9.1 1.1.5 3.4.7 5.1.7 4.8 1 7.1 1.2 11.7.3 7.3.6 9 2.3 14.8 4.6 15.1 6.5 24.3 7.6 36.6 1.2 13.3.8 12.3 16.7 39.6 16.4 28.2 16.8 28.7 21.6 33 3.5 3.1 4.5 2.9 5.9-1.7 6.4-20 9.2-32.7 10.3-46.9.5-6.5-1.2-66.6-2.1-70.9-.3-1.6-1.9-3.7-2.4-3.1 0 0-.7 1.2-1.4 2.6-7 12.6-13.5 19.6-22 24-4.4 2.2-4.5 2.7-5.7 20.8-.3 5.2-.7 9.3-.7 9.1-.1-.2-.2-4.7-.4-10-.5-16.7-.1-14.9-4.3-19.1-4.4-4.4-4.6-4.6-10.2-19-6.5-16.6-7-18.8-5.4-25.2 1-4.2 1-5.5-.2-7.7-1.7-3.2-1.9-3.6-2-5l-.1-1.4-2.9-1.1c-5.1-2.6-8-3.1-9.5-2.3m-42.7 6.8c-3.1.5-3.6.7-4.1 1.7-.3.7-6.6 36.6-7.8 44.7-1.8 12.2-1.8 18.5.2 40.4.3 3.3.4 5.2.4 10 0 6.4 0 6.7-1.2 16.7-1.4 11.2-1.6 15.4-1.3 22.1.5 13.1 2.7 26 8.3 48.4.5 2.2 1.1 4.8 1.3 5.8 1.4 7.6 3.6 9 5.7 3.6 2.7-7 4.6-14.7 6.1-24.5.4-3 .7-4.1 1.7-8.9 1.5-7.2 1.4-10.5-.3-20.5-1.7-9.8-2-12.2-2.3-16.9-.3-7.1-.6-9.9-1.8-20.2-2-16.4-2.1-18.2-2.3-33.8-.1-8.2-.2-11.4-.4-12.9-.4-3.4-.7-6.8-1-11.5-.4-6.3-.5-8.2-1.1-11.9-1.7-11.2-.9-16.5 3.5-22.7 3-4.1 3.6-8.2 1.5-9.6-.9-.6-1.6-.6-5.1 0m118.2 15.4c-.8.4-1.5 1.6-2 3.1-.9 3-1.1 3.7-2.4 6.2-1.6 3.1-1.7 3.6-1.6 6.6l.1 1.9.3-.7c.6-1.5 3.6-2.7 6.3-2.7 1.1 0 1.1-.1 0-.9-.5-.3-.9-.7-.9-.9-.2-.6 1.6-2.1 3.4-2.7 1.2-.4 1.2-.6.2-.8-2.4-.4-3-1.4-1.9-2.9l.5-.7-.4-.3c-1.5-1-1.9-1.8-.6-1.3 3.6 1.3 11.5.5 12.2-1.3.6-1.4-.6-2.3-2.8-2.2-3.4.3-5.4.2-7.2-.4-1.9-.5-2.3-.5-3.2 0m14.8 3.7c-.3.1-1.2.6-1.9 1-2.1 1.4-2.7 1.5-5.2 1.2-3.2-.4-5.2.9-3.5 2.2 1.1.8 12.9-.2 14.3-1.2 1.8-1.2-1.3-4-3.7-3.2m-2.2 4.8c-1.3.3-3 .8-4 1.3l-.7.3.7.3c.4.2.6.3.3.2-2.6-.6-4.9.1-4.4 1.3.2.4.1.4-.4.3-.9-.1-1.8.5-1.8 1.3-.1.5 0 .5 1.8 1.4 1 .5 2.3 1.2 2.9 1.7l1 .8h3.1c3.4 0 3.6 0 3.6-.9 0-.5-.4-1-1.3-1.7-.4-.3-.4-.3.9-.3 2.7 0 3.3-2.1 1-3.3-.8-.4-.8-.4.5-.4 1.4 0 2.2-1.5 1.2-2.2-.6-.3-2.9-.4-4.4-.1m-2.7 13.2l-1.5.1v50.3c0 54.7-.2 143.8-.4 161.3l-.1 11h-1.4c-2.5 0-2.3-1.6-2.2 16.9v15.1l.4.4c.4.4.5.4 1.6.4h1.2v.7c0 .9.4 1.4 1.1 1.7 1.2.4 2.4-.4 2.4-1.7v-.7h1.3c1.8 0 2.2-.3 2.2-1.7 0-.6.1-.9.2-.9s.2-.7.1-2.1c0-2 0-2.1.3-2.1s.3.1.4.9c0 .5.1 1.5.1 2.1l.1 1.2 1-.1c7.7-.8 13.2-1.7 19.3-3.5 40.9-11.7 70.1-49.4 70.9-91.2l.1-4.2-.3 1.1c-.2.6-.7 2.4-1.2 3.9-11.7 39.1-46.4 69.8-86.9 76.6-1.5.3-2.5.4-2.6.3-.4-.4.1-.6 2.7-1.1 28.9-4.9 56.4-23 73-48.3 6.9-10.4 11.3-20.5 14.7-33.6l.6-2.2-.2-2.6c-.2-3.4-.4-3.9-.6-2.6-8.9 43.6-44.2 75.6-87.3 79.2-1.2.1-2.6.2-3 .3l-.7.1v2.2c0 1.2.1 3.4.2 4.8.5 8 .4 10.2-.2 9.2-.2-.3-.6-10.8-.7-14.4 0-4.1 0-4.1-1.9-4.1h-1.3l.1-10.8c.4-36.5.6-212 .2-211.9h-1.7m-121.8 25.6l.4 1.8c1.4 5.8 1.7 10 2.1 26.7.3 11.3.6 13.6 3.3 25.4 3.5 14.7 3.8 22.5 2 42.2-2.2 23.3-3.5 28.2-10.4 37.5-.9 1.2-2.1 2.9-2.7 3.8-1.7 2.6-3 3.7-4 3.2-1-.4-2.8-4.8-5.4-12.8-1.1-3.4-2.3-6.9-2.7-7.9l-.7-1.7-.4.4c-.6.8-.7 1.4-.1 4.2 1.1 5.3.9 10.2-.5 10.3-1.5.1-1.7-.4-1.8-5.4-.1-4.9-.3-6.3-1.9-14.2-1.9-9.3-2.2-12.2-1.9-17.5.1-2.1.1-7.2.1-14.5-.1-13-.1-15 .9-22.7.6-4.5 1-9.2.9-9.2-.4 0-2.3 4.8-3.7 9.3-.7 2.1-1.5 4.6-1.9 5.5-4.6 11.5-6.1 25.9-4.1 40.7.6 4.2.8 9.6.4 11.2l-.2.7-.7-2c-3.4-9.5-5.2-19.8-5.2-30v-4l-.5.5c-.9.9-1.8 2.6-3 6.2-1.3 3.8-1 3.2-7 15s-8 25.3-6.4 42.2c.2 2.5.5 6.3.6 8.5.2 5.3.4 5.9 3.3 7.2 2.8 1.3 3.2 1.5 3.7 2l.6.6c.1 0 0-1.6-.2-3.5-.6-7.7-.6-15.9.1-20.7.5-3.6 2.5-10.8 2.3-8.4-1.4 17.9-.9 23 3.2 32.7 3.9 9.2 13.8 10.4 38.5 4.8 3.9-.9 3.7-.6 3.9-6.6.5-12.8 2.2-24.5 5.1-36.9.7-3.1.7-3.1 1.1.9.3 3.3.1 9.9-.4 16.2-1.3 15.1-.6 25.9 2 29.4 1.3 1.8 1.8 1.9 10 1.5 27.3-1.4 43.2-6.5 54-17.4 3.7-3.8 3.8-3.9 2.8-7.6-1.2-4.5-1.7-8.2-2.8-17.5-1-9.5-1.6-12.9-2.8-17.7-.3-1.2-1.1-4.5-1.6-7.2-2.1-9.6-2.9-11.4-6.3-15.2-2.6-2.8-3.6-4.2-4.1-6-.4-1.5-.3-.4.6 4.6 2.8 16 3.4 25.8 2 35.1-.8 5.4-.8 5.4-1-.8-.2-8.9-.7-13.6-3.6-30.7-2.1-12.4-2.1-12.4-2.7-20.7-.9-13.8-2.8-21.7-6.2-25.8-.5-.6-1-1.2-1.1-1.2-.1 0-.2 6-.2 13.5-.1 17.3-.4 20.5-2.8 27.2l-.5 1.5-.1-8.6c-.1-4.7-.1-15.3-.1-23.6-.1-26.4-.4-30.3-3.3-38.3-.4-1.2-1-2.8-1.3-3.5-.3-.9-.6-2.1-.7-3.3-.5-4.3-.6-4.8-.9-5.5-.5-1-1.8-2.3-2.4-2.3-.2 0-.9 1.9-1.1 2.8l-.2 1-.5-.8c-.3-.5-.6-1.2-.8-1.6-.3-1-.4-1.1-.9-.6-1.2 1.1-1.4 3.1-.6 7.2.8 4.4.8 9.5-.1 13.6l-.3 1.4-.1-2.2c-.2-3.8-.6-5.5-2.7-11.6-1-2.9-1.6-5.5-1.6-7 0-2.4-1.2-2.9-2.1-1-.8 1.6-1 2.6-1.2 5.3-.1 2.5-.3 3.2-.8 3.2-.3 0-.3.2-.2-3.4 0-4.2-.6-5.3-3.1-5.4-2.6-.1-3.9 1.9-3.9 6.2 0 2.2.1 3.1.9 8.2.3 1.7 2.9 12.8 3.2 13 .1.1.1-.1 0-.3-.9-3.9-1.7-16.4-1.1-19.2.4-1.8.7-2.2.7-.8 0 2.6.3 7.5.7 10.3 1 8.6.8 16.8-.5 25.3-.5 3.1-.4 3.4-2-8.9-1.5-11.6-1.5-11.9-3.1-17.8-2.2-8.4-2.4-10.8-1.3-13.5 1.4-3.2.7-5-1.5-4-2.6 1.2-3.5 4.6-2.9 10.4.3 2.7.3 4.8.1 5-.4.4-.8.2-.9-.4-.4-1.4-.4-1.9-.4-6.3-.1-5.7-.4-7.3-2.1-8.6-.9-.3-3.2-1.4-3.2-1.1m-10 58.5c3.3 1.6 6.1 6.5 7.1 12.7 1.1 6.2.7 13.2-1.2 25.9-1.6 10.9-2 15.5-1.4 21.2.1 1.7.3 3.4.3 3.9.3 3.2-.9 7.7-2.2 8-1 .3-1.6-1.2-1.9-4.7-.1-1.2-1.9-15-4.1-30.7-4.5-32.8-4.4-31.4-3.2-33.8 1.6-2.8 4-3.8 6.6-2.5m-1.7 6.6c-3 .9-3 4.7-.2 10.3 1.2 2.4 2.3 1.4 2.4-2.6.1-3.3.5-3.7.6-.7.1 1.9.1 2.2.3 2.2.4 0 .8-1 .8-1.8 0-.3.1-1.2.3-1.9.9-3.7-1.2-6.4-4.2-5.5m44.6 111.9l-2 .1-.1.6c-.1.6-.7 3-1.4 5.1-.3 1.1-.3 4.8 0 8 .3 3.1.3 5.5 0 7.7-.3 1.9.2 6.2 1 8.3 1.1 3 3.6 2.7 3.1-.4-.4-2.6 0-4.5.5-2.3.8 4.1 1.5 4.2 4.3.6 3.3-4.4 3.4-5.7 1.1-13.1-1.8-5.7-1.8-6-1-7.3.9-1.4.8-2.6-.2-4.5-.6-1.1-.8-1.6-.8-2.1v-.7h-1.2c-.8-.1-2.2 0-3.3 0m-19.3 1c.8 2.6.8 4.4-.1 6.5-.8 1.9-.8 2.4.1 4 .8 1.6.9 1.2-1 7.4-2.3 7.3-2.2 8.7 1.1 13 2.7 3.6 3.4 3.6 4.3-.6.1-.6.3-1 .4-1 .2 0 .2 2.7 0 3.9-.3 1.6 1.1 2.4 2.3 1.2 1.3-1.3 2.3-6.8 1.9-9.7-.4-2.3-.3-4.5.1-8.6.5-5 .3-6.6-1.2-11.3-.3-.9-.6-2.1-.7-2.6-.2-1.7-.5-1.9-4.2-2.3-3.4-.2-3.2-.2-3 .1"/></svg>