<?xml version="1.0" encoding="utf-8"?>
<!-- Generator: Adobe Illustrator 22.1.0, SVG Export Plug-In . SVG Version: 6.00 Build 0)  -->
<svg version="1.1" id="svg" xmlns="http://www.w3.org/2000/svg" xmlns:xlink="http://www.w3.org/1999/xlink" x="0px" y="0px"
	 viewBox="0 0 410 410" style="enable-background:new 0 0 410 410;" xml:space="preserve">
<g id="svgg">
	<path id="path0" d="M189.7,13.2c-5.5,0.7-9.4,3.5-15.1,10.5c-5.2,6.4-6.9,8.1-17.5,16.8c-11.1,9.1-11.5,9.5-15.3,16.2
		c-1.6,2.8-1.9,3.5-2.1,4.5c-0.2,0.9-0.1,0.9,0.5-0.2c1.5-2.6,4.3-4.8,10.3-7.8c12.6-6.4,18.4-11.2,24.8-20.6
		c3.2-4.7,4.9-6.6,7.4-8.3c7.7-5.2,18-4.7,23.1,1.2c0.5,0.6,2.1,2.6,3.5,4.4c6.7,8.7,8.8,10.5,17.8,15.3c5.8,3.1,8.1,4.6,10.9,7.3
		l1.4,1.3l-0.8-1.2c-2.7-4.1-18.4-20.7-24-25.5c-1.6-1.3-3.6-3.1-4.5-3.9c-0.9-0.8-2.7-2.4-4-3.7C200.9,14.5,195.5,12.4,189.7,13.2
		 M289.4,22c0.1,1.2,0,3.9-0.1,5.9c-0.2,3.5-0.3,4.9-1,12.4c-0.2,2.7-0.3,5.3-0.3,14.7l0,11.5l1.2-0.1l1.2-0.1l-0.1,23.3l-0.1,23.3
		l0.4,0.1c0.9,0.2,3,0.4,3.1,0.4c0,0,0.1-10.6,0.2-23.4c0.1-21.2,0.1-23.3,0.4-23.3c0.1,0,0.7,0.1,1.1,0.2l0.9,0.1l0-3
		c0-4.8,0.1-4.9,4-4.5c2.8,0.3,2.7,0.4,1.3-0.9c-3.2-2.9-10.5-17.2-8.7-17.2c0.2,0,0.4,0.4,0.9,1.9c0.6,1.8,2.7,6.2,3.1,6.7
		c0.2,0.2,0.5,0.2,1.5,0.1c1.3-0.2,3.2,0,3.8,0.3c0.2,0.1,0.4,0.2,0.4,0.2s-0.6-0.8-1.3-1.7c-4.2-5-5.9-8.2-7.4-13.8
		c-1.3-4.9-4.2-14.9-4.4-15.1C289.4,19.8,289.4,20.8,289.4,22 M191,21.7c-6.3,1.2-9.9,3.9-15,11.4c-6.3,9.2-12.9,14.8-24.7,20.5
		c-8.9,4.4-12.6,8.3-11.4,12.3c0.7,2.5,2.5,1.9,4.4-1.5c1.6-2.8,3.9-4.8,9.5-8c6.9-3.9,12.8-8.4,17.3-13c1.9-1.9,2.7-2.9,7.8-9.3
		c4.9-6.2,8.9-8.9,14.2-9.6c5.5-0.7,8.3,1,12.7,7.7c5.4,8.2,9.7,11.9,20.4,17.8c3.7,2,4.3,2.5,5.8,4c3.5,3.7,5.1,8.7,4.9,14.7
		l-0.1,2.6l1.3-0.1c1.6-0.1,1.6-0.2,2-1.6c2-6.6,2.1-10.6,0.4-13.1c-2.4-3.5-6.6-6.7-13.6-10.4c-9.2-4.8-11.5-6.8-19-16.7
		c-3.8-5-5.7-6.4-9.4-7.4C196.9,21.5,192.9,21.4,191,21.7 M194.6,38.3c-0.2,0.2-0.3,0.2-0.4,0.1c-0.1-0.4-0.4,0-0.4,0.6
		c0,1,0.6,1,4.1,0.6c1.4-0.2,2.4,0,3.7,0.6c1.2,0.5,1.2,0.4,0.3-0.6c-1.2-1.3-4.1-1.9-6.1-1.3c-0.4,0.1-0.7,0.1-0.8,0
		C195,38.1,194.8,38.1,194.6,38.3 M183.7,38.2c-0.1,0-0.7,0.1-1.2,0.2c-0.9,0.1-1.1,0.2-2,1.1c-1.3,1.2-1.2,1.3,0.2,0.7
		c1.2-0.5,2.6-0.6,5.3-0.3c1.6,0.2,2.2,0.1,2.3-0.5c0.1-0.5-0.2-1.3-0.3-0.9c-0.1,0.3-0.1,0.3-0.4-0.1c-0.2-0.3-0.3-0.3-0.5-0.2
		c-0.1,0.2-0.3,0.2-0.9,0C185.5,38.2,184.3,38.1,183.7,38.2 M183.7,42.2c-1,0.8-0.4,2.4,0.9,2.4c0.9,0,1.3-0.5,1.3-1.4
		c0-0.7-0.6-1.3-1.3-1.3C184.3,41.8,183.9,42,183.7,42.2 M196.1,42.2c-0.9,0.8-0.3,2.4,0.8,2.4c0.5,0,1.3-0.4,1.4-0.8
		C198.8,42.4,197.3,41.2,196.1,42.2 M190.4,45.6c-0.1,0-1,0.5-2,0.9c-2.1,1-3.2,1.1-5.3,0.4c-5.5-1.7-7,2.9-2.4,7.5
		c1.5,1.6,1.5,1.7-0.1,1.2c-1.1-0.3-1.1-0.3-0.9,0.1c0.1,0.2,0.4,1.2,0.6,2.2c0.4,2.2,0.4,2.2,2.2,3.8c6.2,5.5,8,5.9,13.1,2.3
		c5.3-3.7,5.2-3.6,5.7-6c0.7-3.4,0.4-4.2-1.2-3.3c-2.1,1.1-2.1,1,0.4-1.4c2.8-2.9,3.5-4.3,2.7-6c-0.7-1.5-1.8-1.7-3.9-0.8
		c-1.7,0.8-2.2,0.8-3.9,0c-2.6-1.2-4,0.5-2.3,2.8c0.5,0.7,0.8,1.2,0.8,1.5v0.5l-0.5-0.6c-0.3-0.3-0.8-0.7-1.1-0.8
		c-0.8-0.2-0.9-0.4-0.7-2.6l0.1-1.9l-0.4,0C190.8,45.5,190.5,45.5,190.4,45.6 M209.6,49.3c0,1.9,1.2,4,5.3,9.7
		c3.8,5.1,3.9,5.3,1.9,4.4c-1.4-0.7-2.7-1.9-4.7-4.5c-2.1-2.6-2.7-2.9-2.7-1.1c0,0.9,0.4,1.7,1.8,3.5c1.7,2.3,3,4.5,4.6,7.7
		c1.7,3.5,2.4,4.4,5.3,6.9c2.2,1.9,10.6,10.2,10.5,10.3c-0.1,0.1-1.7-0.7-3.5-1.9c-1-0.6-2.1-1.3-2.5-1.5c-0.4-0.2-1.3-0.6-2.1-1
		c-1.6-0.8-3.1-1.9-5.6-4.1c-0.9-0.8-2.1-1.9-2.7-2.3c-1.7-1.3-5-5.4-5.9-7.4l-0.5-1l0.1,1c0.7,6.8,8.9,15.4,23.4,24.6
		c15.2,9.6,22.5,15.7,28.4,23.4c4.3,5.7,7.1,12.1,6.4,14.7c-0.2,0.8-0.7,1.7-1,1.7c-0.2,0-2.1-2.8-3.8-5.9c-3-5.3-5.6-8.8-7.8-10.7
		c-0.7-0.6-1.6-1.4-2-1.9l-0.8-0.9l0.5,1.4c1.4,4.1,1.5,9.6,0.2,12.9c-0.2,0.6-0.2,0.6-0.2-0.8c0-4.4-1-8.9-2.6-12.8
		c-0.9-2.1-1-2.2-0.8-0.5c0.2,1.7-0.1,4.2-0.7,6.1c-0.5,1.6-0.9,2.4-0.7,1.5c0.3-1.7-0.6-6.1-2.3-10.7c-1.1-2.9-1.5-3.8-0.8-1.4
		c2.8,8.7,1.4,19.2-3.6,27.1c-1.1,1.8-1.1,1.7-0.4-0.8c2.2-7.8,2.6-14.2,1.1-18.7c-0.1-0.5-0.3-0.9-0.4-0.9
		c-0.1-0.1-0.1,1.4-0.1,3.3c0,3.8-0.3,5.4-1.3,8.6c-0.6,1.9-1.6,4.1-1.5,3.3c1-5.7-0.3-16.2-2.5-20.4c-0.5-1-1.1-2.2-1.3-2.7l-0.4-1
		l0.1,2.2c0.1,2.7-0.2,4.9-1.1,7.5c-0.7,2.2-0.8,2.2-0.5,0.1c0.8-6.2-3.3-19.4-7.7-25l-0.7-1l-0.1,0.5c0,0.3,0.1,1,0.3,1.5
		c2.1,5.9,2.6,8.5,3.1,16.6c0.5,8.2,0.6,9.6,1.5,13c0.3,1.2,0.6,2.6,0.6,3.1c0,1.8,0.7,3.3,1.3,2.6c0.5-0.7,0.9-1.6,2.1-5
		c1.5-4.4,1.4-4.2,1.9-2.8c0.6,1.5,1.1,3.9,1.3,6.7c0.5,6.2,0,9.2-2.2,13.5c-1,2.1-1.6,3.7-1.3,3.7c0.3,0,3.9-5.9,4.9-8.1
		c1.1-2.4-0.5,4.6-1.8,7.8c-1.5,3.7,0.9,4.4,2.7,0.8c1.1-2.1,5.9-8.3,6.2-8c0.1,0.1-1.4,8.1-2.1,10.9c-0.3,1.4-0.6,2.7-0.7,3
		c-0.1,0.4,0.6,0.8,1,0.7c0.6-0.2,3.5-9.7,4.9-16c0.5-2.3,1.3-6.5,1.7-9.2l0.1-0.8l0.4,1.6c1.5,6.3,0.6,16.4-2.2,23.1
		c-0.2,0.4-0.1,0.3,2.7-1.5c2.5-1.7,2.5-1.7,3.3-4.9c0.7-2.8,1.1-5.1,1.2-8l0.1-2.2l0.4,1c0.2,0.5,0.8,1.8,1.3,2.9
		c0.5,1,1.2,2.7,1.5,3.6c1,2.9,1.1,3.1,1.5,1.6c1.4-5,0.7-12.9-1.4-17.3l-0.3-0.7l0.3,0.4c1.2,1.4,3.1,6.2,4.2,10.2
		c0.9,3.5,0.7,3.6,4.6-1.3c3.7-4.7,3.7-4.8,3.4-9.4l-0.1-1.7l0.8,0.7l0.8,0.7l0-0.9c0.1-2.7-1.8-6.4-5.4-10.1l-1-1.1l1.4,0.7
		c3.2,1.6,6.5,3.9,8.8,6.1c1.5,1.5,1.8,1.6,0.8,0.4c-0.4-0.5-1.2-1.7-1.9-2.7c-2.3-3.7-3.1-4.5-8.1-8.8c-5.7-4.9-8.3-6.9-15.2-11.5
		c-3.7-2.4-4.5-3.1-7.3-5.6c-2.9-2.6-4.1-3.4-6.7-4.8c-4.6-2.3-7.3-4.8-11.2-10.3c-0.8-1.2-1.6-2.3-1.7-2.5
		c-0.2-0.2,0.1-0.2,0.8,0.3c0.6,0.4,2.2,1.3,3.7,2c5.8,3.1,8.8,5.5,12,9.8c0.5,0.7,1.1,1.4,1.2,1.5c0.3,0.2,0-1.8-0.4-2.9
		c-0.4-1-0.4-1,0.7-0.2c2.4,1.9,5,5.1,6.4,8.1l0.7,1.5l0.2-0.5c0.6-1.5,0.7-3.8,0.1-5.5c-0.1-0.4-0.1-0.4,0.7,0.1
		c2.5,1.5,4.8,4.2,7.8,8.7c1.5,2.4,3.9,5.1,4.4,5.1c0.4,0-0.3-5.1-1.1-7.4c-2.6-8-8.3-13.4-17.9-16.8c-7.6-2.7-8.7-3.3-13.2-7.2
		c-2.7-2.4-4-3.3-7.2-5.2c-5.6-3.3-6.7-4.4-10.9-10.9C210.5,50.1,209.6,48.9,209.6,49.3 M169.5,54.9c-3.1,3.2-4.8,5-12,13.5
		c-7.6,8.9-9,10.3-17.7,17.3c-2.1,1.7-4.7,3.9-5.8,4.9c-2.9,2.6-2.9,2.6-7.8,5.9c-5,3.3-8.7,6.1-11,8.1c-0.8,0.7-2.6,2.2-3.8,3.3
		c-4.2,3.6-5.2,4.7-7.6,8.4c-0.7,1.1-1.5,2.3-1.9,2.7c-1,1.2-0.6,1,0.9-0.5c2.3-2.2,5.6-4.5,8.6-6c2.2-1.1,2.2-1,0.2,1
		c-5.6,5.9-10.7,17-11.6,25.4c-0.1,0.6,0.1,0.2,0.3-1c1.4-6.4,4.1-11.5,8.5-16.5c1.4-1.5,1.6-1.6,1-0.4c-7.3,14.4-7.4,35.1-0.2,49.2
		c1.5,2.9,6.3,10.2,5.9,8.9c-0.1-0.4-3.5-10.1-3.7-10.7c-0.6-1.6,4.3,7.1,7.6,13.4c2.9,5.8,6.7,11.3,7.2,10.8c0,0-1.3-3.1-3.1-6.8
		c-1.7-3.7-3.1-6.8-3.1-6.8c0.1-0.1,10.1,14.4,12.9,18.9c5,7.8,7,12.9,7.3,18.3c0.1,2.5,0.1,2.5,1.3,1.6c4.2-2.7,4.6-9.5,1.4-19.3
		c-2.6-8-4.6-11.2-12.4-20c-5-5.6-6.4-7.5-8.1-11c-0.6-1.1-1.6-3-2.2-4c-1.6-2.7-2.5-4.7-3.1-6.9c-3.6-12.9-2.7-24.1,2.6-32.1
		c1.4-2.1,1.6-2.2,0.7-0.3c-3,6.8-3.9,15.8-2.2,21.7l0.2,0.7l0.1-1.4c0.3-3.1,1.2-6.5,2.3-9c0.8-1.7,0.8-1.7,0.5-0.4
		c-0.6,2.7-1,10.3-0.8,13.6c0.4,4.5,1.1,7.1,3.3,12.6c2.5,6.1,2.6,6.4,5,8.6c3.5,3.4,4.6,4.5,4.9,5.2c0.2,0.4,0.3,0.6,0.3,0.4
		c0-0.5-1.7-4.3-4.6-10c-4.5-8.8-5.8-12.8-5.7-17.3c0-0.9,0-0.9,0.2,0.3c0.7,5.3,2.8,9.7,8.8,17.8c7.8,10.6,10.2,16.8,11,28.7
		c0.1,1,0.2-8.2,0.2-12c0-2.7-0.1-3.3-0.9-7.9c-1.2-7.2-1.9-8.8-5.5-13.8c-8.3-11.2-11.3-20.8-10.2-32c0.2-1.6,1-5.5,1-4.9
		c0.6,7.8,5.5,25.1,8.4,29.5c1.3,1.9,1.3,1.9,0.5-0.3c-1.8-4.7-3.2-11-3.7-15.9c-0.1-1.1,0-1,0.6,1.4c0.6,2.4,2.8,9.2,3.9,11.9
		c0.6,1.6,1.3,2.8,2,3.4l0.5,0.5l-0.1-1.7l-0.1-1.7l0.5,1.2c0.8,1.9,2.7,7.5,3.3,9.5c0.6,2.1,0.7,2.2,0.5,0.5
		c-0.2-1.4,0-3.6,0.5-6.6c1.8-10.1,1.7-12.8-0.2-19.5c-1.6-5.7-2-8.4-1.7-10.9l0.1-1.2l0.1,1.4c0.3,3.1,1.2,6.3,2.5,8.8
		c0.6,1.2,1,1.8,1,1.4c0-0.2-0.8-4.6-1.3-7.2c-0.4-2.2-0.6-6-0.3-6.5c0.1-0.1,0.4,0.5,0.7,1.5c0.8,2.6,2.8,6.3,2.2,4.2
		c-0.3-1.2,0.1-5,0.8-7.5c0.6-2,0.7-3.1,1.9-15c1.2-12.5,3.1-15,14.1-18.8c6.5-2.3,7.8-3.2,8-5.9c0.1-1.4,0.2-1.4-1.5-0.1
		c-1.9,1.4-3.8,2.5-9,5.4c-7.2,4-9.6,5.8-11.6,8.6c-3.3,4.7-6.3,15.7-5.7,20.9c0.2,2.1,0.2,2.1-0.5-0.1c-0.9-2.6-1.2-4.8-1.1-7.5
		l0.1-2.2l-0.4,1c-0.2,0.5-0.8,1.8-1.3,2.7c-2.2,4.2-3.5,14.8-2.5,20.4c0.1,0.8-0.9-1.5-1.5-3.3c-1.1-3.2-1.3-4.8-1.3-8.6
		c0-3.6-0.1-3.9-0.5-2.4c-1.4,4.7-1,10.9,1.2,18.7c0.7,2.5,0.7,2.6-0.4,0.8c-5-8-6.3-18.4-3.6-27.1c0.8-2.4,0.3-1.6-0.8,1.4
		c-1.7,4.6-2.6,9-2.3,10.7c0.2,0.9-0.2,0.1-0.7-1.5c-0.6-1.9-0.9-4.5-0.7-6.2c0.2-1.6,0-1.5-0.8,0.6c-1.6,3.7-2.4,7.5-2.6,11.8
		l-0.1,2.5l-0.3-1c-1.1-3.7-1-8.5,0.4-12.5c0.6-1.7,0.6-1.7-1.4,0.3c-9,8.9-13.9,20.8-14,33.5c0,2.2,0,4,0,4s-0.2-0.8-0.5-1.9
		c-2.4-10.3-0.8-20.4,4.5-29.8c6.2-10.9,16.7-19.6,39.4-33c10.4-6.1,14.1-9.5,16.4-15c0.5-1.2,1-3.9,0.7-3.4
		c-4.7,6.2-7,7.9-14.3,10.1c-3.7,1.2-5.8,1.9-6.9,2.4c-0.8,0.4-0.4,0.1,2-1.5c8.4-5.6,13.6-10.7,17-16.5c0.8-1.3,0.7-1.3-0.8,0.1
		c-1.3,1.2-3.3,2.6-4.9,3.4l-1.1,0.5l1.4-1.6c4-4.5,7.3-9.5,8-12.3c0.2-0.9,0.4-1.6,0.4-1.6C172.1,52.3,171,53.5,169.5,54.9
		 M190.2,55.5c0.5,0.2,0.8,0.1,1.3,0c0.8-0.3,1-0.2,2.5,0.9c0.6,0.4,1.2,0.8,1.3,0.8c0.2,0,0.2,0.1-0.1,0.3
		c-0.5,0.4-0.8,0.4-1.6,0.1c-0.3-0.1-0.8-0.3-1.1-0.3c-0.4-0.1-0.4-0.1-0.3-0.3c0.3-0.4,0-0.3-0.5,0.1c-0.4,0.3-0.6,0.3-1.6,0.2
		c-0.9-0.1-1.3,0-1.8,0.2c-0.8,0.3-1.3,0.3-1.6,0c-0.1-0.2-0.1-0.3,0-0.3c0.1,0,0.6-0.3,1.1-0.7C189.2,55.2,189.3,55.2,190.2,55.5
		 M190.6,58.5c0.7,0.3,0.8,0.3,1.4,0.1c0.7-0.2,0.8-0.2,1.6,0c1.2,0.4,1.3,0.5,0.4,0.9c-2.1,1.1-4.7,1-6-0.2l-0.4-0.4l1-0.4
		C189.9,58.1,189.7,58.1,190.6,58.5 M149.2,69.2c-2.3,2.1-6.6,4.5-10,5.6c-1.8,0.6-2.7,0.8-7.1,1.6c-4.5,0.9-7.1,1.8-8.7,3.2
		l-0.6,0.5l1.7-0.4c3.2-0.8,11.5-1.8,11.9-1.5c0.1,0.1-1.4,1-2.5,1.4c-1.5,0.5-3.4,0.8-6.9,1.1c-9.5,0.8-16.4,4.6-21.5,11.8
		c-1,1.4-1.1,1.4,1.2,0.5c3-1.2,10.1-3,10.4-2.7c0,0-0.5,0.4-1.1,0.9c-2.8,1.9-6.2,5.9-7.8,9.2c-1,2.1-2.2,6.2-1.9,6.2
		c0.1,0,0.5-0.5,0.9-1.1c3.2-4.3,7.7-9,10.4-10.8c1-0.6,2.3-1.5,2.9-1.9c0.6-0.4,2.1-1.7,3.4-2.8c1.2-1.1,2.6-2.3,3-2.5
		c1.2-0.7,0.8-0.6-1.2,0.2c-1,0.4-2.7,1.1-3.8,1.5c-1.1,0.4-2.1,0.8-2.1,0.8s-0.1,0-0.1,0c0-0.7,6.9-3.9,10.3-4.8
		c2.1-0.6-1.8-0.2-5.6,0.5c-1.3,0.2-3.3,0.7-4.5,1c-2.3,0.6-2.4,0.5-0.5-0.7c2-1.2,4.3-1.8,9.2-2.3c9-0.9,11.3-2.3,17.4-10.2
		c1.3-1.6,2.8-3.5,3.4-4.1C150.6,68.1,150.6,67.9,149.2,69.2 M194.4,85.8c-0.6,0.1-3.8,0.2-7.2,0.2c-7.4,0-7.3,0-12.1,2.4
		c-4.1,2-3.9,2-7.8,3.1c-6.2,1.8-9,3.9-8.7,6.8c0.2,2.5,2.5,3.3,4.2,1.4c1.8-2.1,2.3-2.5,3.4-2.8c2.5-0.7,7.1-0.8,11.8-0.1
		c6.5,0.9,17.8,1.8,19.5,1.6c4.2-0.5,6.9-5.4,4.9-9C200.8,86.5,198,85.3,194.4,85.8 M198.1,87.1c5.4,2.7,3.5,10.8-2.5,10.8
		c-6.6,0-7.9-9.1-1.6-11.2C195.1,86.3,196.8,86.5,198.1,87.1 M194.5,87.5c-3.5,0.9-4.9,5.2-2.6,7.9c3.1,3.5,8.8,1.1,8.4-3.5
		C200.1,88.9,197.3,86.8,194.5,87.5 M206.3,94.3c-0.8,0.4-1,0.8-1.5,2.1c-1,3-4.6,4.3-13.3,4.7c-4,0.2-4.7,0.4-4.5,1.3
		c0.4,2.1,9,1.5,13.4-0.9c1.3-0.7,1.6-0.6,1.2,0.3c-0.3,0.6-3.9,2.5-6.3,3.3c-4.4,1.5-8.2,0.9-11.1-1.7c-1.7-1.6-2.4-1.7-2.4-0.4
		c0,1.5,1,2.9,3.1,4.5c1.5,1.1,2.3,2.7,1.6,3.1c-1.8,1-8-5.3-9.5-9.6c-1-2.8-2.4-3.7-4.2-2.6c-2.5,1.4-2.2,6.9,0.6,9
		c2.2,1.7,2.2,3.1-0.2,3.9c-5.8,2.2-8.8,10.9-5.8,16.8c1.7,3.3,3.6,4.8,7.6,5.9c1.7,0.5,2.5,0.8,3.9,1.7c2,1.2,2.3,1.3,3.4,1.6
		c1,0.2,1.1,0.6,0.3,0.8c-1.4,0.4-1.4,1,0.1,2c2.8,1.7,4.7,6.3,4.1,9.7c-0.2,0.9-0.3,0.8-0.7-0.7c-0.5-1.9-0.8-2.1-1.8-1.2
		c-1.1,1-1.4,0.3-0.5-1.1c1.1-1.6,0.7-2.8-1.8-5.3c-1.8-1.9-2-2-2-1.4c0,0.6-0.8,1.3-1.6,1.4c-1.5,0.2-2.4-0.5-3.8-3
		c-1.3-2.4-2.6-3.7-3.8-3.7c-1,0-1,0.2-0.1,4.2c1.3,5.4,1.5,5.7,4.6,8.9l2.2,2.3l-0.1,1c-0.4,4-1.1,7-1.6,7c-0.3,0-0.3-0.1-0.2-1.3
		c0.5-4.1,0.1-6-1.2-6.8c-0.4-0.2-1.3-1.1-2.1-1.8c-1-1-1.4-1.2-1.2-0.9c0.4,1.1,0.1,4.2-0.6,7.4c-0.9,4.2-0.9,4,0.4,5.2
		c0.6,0.6,1.3,1.4,1.5,1.8c0.5,1,0.7,1,1.7-0.4c0.9-1.2,2.1-2.5,2.3-2.3c0,0,0.2,0.6,0.3,1.2c0.8,3.6,3.3,4,3.9,0.5
		c0.1-0.9,0.3-1.7,0.3-1.7c0,0,0.1,0.7,0.2,1.7c0.1,2.1,0.3,2.2,2,2l1-0.1l0.1-1.2c0.1-0.7,0.2-1.6,0.2-2l0.1-0.8l0.4,1.5
		c0.2,0.9,0.5,1.8,0.6,2.1l0.2,0.6h1.4c1.6,0,1.5,0.1,1.7-1.9c0.2-2.3,0.3-2.3,0.7-0.2c0.4,2.3,0.3,2.2,2.1,2.2l0.8,0l0.1-1.5
		l0.1-1.5l0.3,1.5c0.4,2,0.4,1.9,1.5,1.7l0.9-0.2l-0.1-1.1c-0.1-1.4,0.3-2.6,1.1-3.5c0.8-0.9,0.9-0.9,1,1.6c0.1,2,0.3,3.1,0.7,3.1
		c0.1,0,0.2-0.1,0.2-0.2c0-0.1,0.7-0.6,1.4-1.1c2.1-1.4,2.4-2.1,1.9-5.6c-0.1-0.9-0.1-2.2,0-4.1c0.1-2.4,0.1-2.8-0.1-2.7
		c-0.1,0-0.6,0.2-1.1,0.3c-1.3,0.3-3.9,2-4,2.7c-0.1,0.2-0.3,1.5-0.6,2.8l-0.5,2.4l-0.1-1.3c-0.2-1.5,0-4.5,0.3-5.2
		c0.3-0.7,0.5-1,3-2.7c3.6-2.6,4.2-3.4,5.5-7.4c1.1-3.2,0.9-4.4-0.4-4.4c-1.5,0-2.8,0.9-5,3.4c-2.8,3.3-4.7,4-6.4,2.4
		c-2.3-2.2-0.6-4.8,3.3-5.4c4.4-0.7,10.5-4.8,12-8c2.6-5.5-0.6-12.7-6.4-14.6c-1.7-0.5-2-1.1-1.1-1.8c0.9-0.6,2-0.3,4.5,1.2
		c0.5,0.3,1,0.6,1.3,0.6l0.4,0.1l-0.1-1.8c-0.1-2.1,0.3-3.2,1.5-4.2c1.2-1.1,1.4-0.8,1.8,1.9c0.1,1.1,0.5,3.4,0.7,5.1
		c0.7,4.8,1,7.1,1.2,11.7c0.3,7.3,0.6,9,2.3,14.8c4.6,15.1,6.5,24.3,7.6,36.6c1.2,13.3,0.8,12.3,16.7,39.6
		c16.4,28.2,16.8,28.7,21.6,33c3.5,3.1,4.5,2.9,5.9-1.7c6.4-20,9.2-32.7,10.3-46.9c0.5-6.5-1.2-66.6-2.1-70.9
		c-0.3-1.6-1.9-3.7-2.4-3.1c0,0-0.7,1.2-1.4,2.6c-7,12.6-13.5,19.6-22,24c-4.4,2.2-4.5,2.7-5.7,20.8c-0.3,5.2-0.7,9.3-0.7,9.1
		c-0.1-0.2-0.2-4.7-0.4-10c-0.5-16.7-0.1-14.9-4.3-19.1c-4.4-4.4-4.6-4.6-10.2-19c-6.5-16.6-7-18.8-5.4-25.2c1-4.2,1-5.5-0.2-7.7
		c-1.7-3.2-1.9-3.6-2-5l-0.1-1.4l-2.9-1.1C210.7,94,207.8,93.5,206.3,94.3 M163.6,101.1c-3.1,0.5-3.6,0.7-4.1,1.7
		c-0.3,0.7-6.6,36.6-7.8,44.7c-1.8,12.2-1.8,18.5,0.2,40.4c0.3,3.3,0.4,5.2,0.4,10c0,6.4,0,6.7-1.2,16.7
		c-1.4,11.2-1.6,15.4-1.3,22.1c0.5,13.1,2.7,26,8.3,48.4c0.5,2.2,1.1,4.8,1.3,5.8c1.4,7.6,3.6,9,5.7,3.6c2.7-7,4.6-14.7,6.1-24.5
		c0.4-3,0.7-4.1,1.7-8.9c1.5-7.2,1.4-10.5-0.3-20.5c-1.7-9.8-2-12.2-2.3-16.9c-0.3-7.1-0.6-9.9-1.8-20.2c-2-16.4-2.1-18.2-2.3-33.8
		c-0.1-8.2-0.2-11.4-0.4-12.9c-0.4-3.4-0.7-6.8-1-11.5c-0.4-6.3-0.5-8.2-1.1-11.9c-1.7-11.2-0.9-16.5,3.5-22.7
		c3-4.1,3.6-8.2,1.5-9.6C167.8,100.5,167.1,100.5,163.6,101.1 M281.8,116.5c-0.8,0.4-1.5,1.6-2,3.1c-0.9,3-1.1,3.7-2.4,6.2
		c-1.6,3.1-1.7,3.6-1.6,6.6l0.1,1.9l0.3-0.7c0.6-1.5,3.6-2.7,6.3-2.7c1.1,0,1.1-0.1,0-0.9c-0.5-0.3-0.9-0.7-0.9-0.9
		c-0.2-0.6,1.6-2.1,3.4-2.7c1.2-0.4,1.2-0.6,0.2-0.8c-2.4-0.4-3-1.4-1.9-2.9l0.5-0.7l-0.4-0.3c-1.5-1-1.9-1.8-0.6-1.3
		c3.6,1.3,11.5,0.5,12.2-1.3c0.6-1.4-0.6-2.3-2.8-2.2c-3.4,0.3-5.4,0.2-7.2-0.4C283.1,116,282.7,116,281.8,116.5 M296.6,120.2
		c-0.3,0.1-1.2,0.6-1.9,1c-2.1,1.4-2.7,1.5-5.2,1.2c-3.2-0.4-5.2,0.9-3.5,2.2c1.1,0.8,12.9-0.2,14.3-1.2
		C302.1,122.2,299,119.4,296.6,120.2 M294.4,125c-1.3,0.3-3,0.8-4,1.3l-0.7,0.3l0.7,0.3c0.4,0.2,0.6,0.3,0.3,0.2
		c-2.6-0.6-4.9,0.1-4.4,1.3c0.2,0.4,0.1,0.4-0.4,0.3c-0.9-0.1-1.8,0.5-1.8,1.3c-0.1,0.5,0,0.5,1.8,1.4c1,0.5,2.3,1.2,2.9,1.7l1,0.8
		l3.1,0c3.4,0,3.6,0,3.6-0.9c0-0.5-0.4-1-1.3-1.7c-0.4-0.3-0.4-0.3,0.9-0.3c2.7,0,3.3-2.1,1-3.3c-0.8-0.4-0.8-0.4,0.5-0.4
		c1.4,0,2.2-1.5,1.2-2.2C298.2,124.8,295.9,124.7,294.4,125 M291.7,138.2l-1.5,0.1l0,50.3c0,54.7-0.2,143.8-0.4,161.3l-0.1,11h-1.4
		c-2.5,0-2.3-1.6-2.2,16.9l0,15.1l0.4,0.4c0.4,0.4,0.5,0.4,1.6,0.4h1.2v0.7c0,0.9,0.4,1.4,1.1,1.7c1.2,0.4,2.4-0.4,2.4-1.7v-0.7h1.3
		c1.8,0,2.2-0.3,2.2-1.7c0-0.6,0.1-0.9,0.2-0.9c0.1,0,0.2-0.7,0.1-2.1c0-2,0-2.1,0.3-2.1c0.3,0,0.3,0.1,0.4,0.9
		c0,0.5,0.1,1.5,0.1,2.1l0.1,1.2l1-0.1c7.7-0.8,13.2-1.7,19.3-3.5c40.9-11.7,70.1-49.4,70.9-91.2l0.1-4.2l-0.3,1.1
		c-0.2,0.6-0.7,2.4-1.2,3.9c-11.7,39.1-46.4,69.8-86.9,76.6c-1.5,0.3-2.5,0.4-2.6,0.3c-0.4-0.4,0.1-0.6,2.7-1.1
		c28.9-4.9,56.4-23,73-48.3c6.9-10.4,11.3-20.5,14.7-33.6l0.6-2.2l-0.2-2.6c-0.2-3.4-0.4-3.9-0.6-2.6c-8.9,43.6-44.2,75.6-87.3,79.2
		c-1.2,0.1-2.6,0.2-3,0.3l-0.7,0.1l0,2.2c0,1.2,0.1,3.4,0.2,4.8c0.5,8,0.4,10.2-0.2,9.2c-0.2-0.3-0.6-10.8-0.7-14.4
		c0-4.1,0-4.1-1.9-4.1h-1.3l0.1-10.8c0.4-36.5,0.6-212,0.2-211.9C293.4,138.2,292.6,138.2,291.7,138.2 M169.9,163.8
		c0,0,0.2,0.9,0.4,1.8c1.4,5.8,1.7,10,2.1,26.7c0.3,11.3,0.6,13.6,3.3,25.4c3.5,14.7,3.8,22.5,2,42.2c-2.2,23.3-3.5,28.2-10.4,37.5
		c-0.9,1.2-2.1,2.9-2.7,3.8c-1.7,2.6-3,3.7-4,3.2c-1-0.4-2.8-4.8-5.4-12.8c-1.1-3.4-2.3-6.9-2.7-7.9l-0.7-1.7l-0.4,0.4
		c-0.6,0.8-0.7,1.4-0.1,4.2c1.1,5.3,0.9,10.2-0.5,10.3c-1.5,0.1-1.7-0.4-1.8-5.4c-0.1-4.9-0.3-6.3-1.9-14.2
		c-1.9-9.3-2.2-12.2-1.9-17.5c0.1-2.1,0.1-7.2,0.1-14.5c-0.1-13-0.1-15,0.9-22.7c0.6-4.5,1-9.2,0.9-9.2c-0.4,0-2.3,4.8-3.7,9.3
		c-0.7,2.1-1.5,4.6-1.9,5.5c-4.6,11.5-6.1,25.9-4.1,40.7c0.6,4.2,0.8,9.6,0.4,11.2l-0.2,0.7l-0.7-2c-3.4-9.5-5.2-19.8-5.2-30l0-4
		l-0.5,0.5c-0.9,0.9-1.8,2.6-3,6.2c-1.3,3.8-1,3.2-7,15c-6,11.8-8,25.3-6.4,42.2c0.2,2.5,0.5,6.3,0.6,8.5c0.2,5.3,0.4,5.9,3.3,7.2
		c2.8,1.3,3.2,1.5,3.7,2c0.3,0.3,0.6,0.6,0.6,0.6c0.1,0,0-1.6-0.2-3.5c-0.6-7.7-0.6-15.9,0.1-20.7c0.5-3.6,2.5-10.8,2.3-8.4
		c-1.4,17.9-0.9,23,3.2,32.7c3.9,9.2,13.8,10.4,38.5,4.8c3.9-0.9,3.7-0.6,3.9-6.6c0.5-12.8,2.2-24.5,5.1-36.9
		c0.7-3.1,0.7-3.1,1.1,0.9c0.3,3.3,0.1,9.9-0.4,16.2c-1.3,15.1-0.6,25.9,2,29.4c1.3,1.8,1.8,1.9,10,1.5c27.3-1.4,43.2-6.5,54-17.4
		c3.7-3.8,3.8-3.9,2.8-7.6c-1.2-4.5-1.7-8.2-2.8-17.5c-1-9.5-1.6-12.9-2.8-17.7c-0.3-1.2-1.1-4.5-1.6-7.2
		c-2.1-9.6-2.9-11.4-6.3-15.2c-2.6-2.8-3.6-4.2-4.1-6c-0.4-1.5-0.3-0.4,0.6,4.6c2.8,16,3.4,25.8,2,35.1c-0.8,5.4-0.8,5.4-1-0.8
		c-0.2-8.9-0.7-13.6-3.6-30.7c-2.1-12.4-2.1-12.4-2.7-20.7c-0.9-13.8-2.8-21.7-6.2-25.8c-0.5-0.6-1-1.2-1.1-1.2
		c-0.1,0-0.2,6-0.2,13.5c-0.1,17.3-0.4,20.5-2.8,27.2l-0.5,1.5l-0.1-8.6c-0.1-4.7-0.1-15.3-0.1-23.6c-0.1-26.4-0.4-30.3-3.3-38.3
		c-0.4-1.2-1-2.8-1.3-3.5c-0.3-0.9-0.6-2.1-0.7-3.3c-0.5-4.3-0.6-4.8-0.9-5.5c-0.5-1-1.8-2.3-2.4-2.3c-0.2,0-0.9,1.9-1.1,2.8l-0.2,1
		l-0.5-0.8c-0.3-0.5-0.6-1.2-0.8-1.6c-0.3-1-0.4-1.1-0.9-0.6c-1.2,1.1-1.4,3.1-0.6,7.2c0.8,4.4,0.8,9.5-0.1,13.6l-0.3,1.4l-0.1-2.2
		c-0.2-3.8-0.6-5.5-2.7-11.6c-1-2.9-1.6-5.5-1.6-7c0-2.4-1.2-2.9-2.1-1c-0.8,1.6-1,2.6-1.2,5.3c-0.1,2.5-0.3,3.2-0.8,3.2
		c-0.3,0-0.3,0.2-0.2-3.4c0-4.2-0.6-5.3-3.1-5.4c-2.6-0.1-3.9,1.9-3.9,6.2c0,2.2,0.1,3.1,0.9,8.2c0.3,1.7,2.9,12.8,3.2,13
		c0.1,0.1,0.1-0.1,0-0.3c-0.9-3.9-1.7-16.4-1.1-19.2c0.4-1.8,0.7-2.2,0.7-0.8c0,2.6,0.3,7.5,0.7,10.3c1,8.6,0.8,16.8-0.5,25.3
		c-0.5,3.1-0.4,3.4-2-8.9c-1.5-11.6-1.5-11.9-3.1-17.8c-2.2-8.4-2.4-10.8-1.3-13.5c1.4-3.2,0.7-5-1.5-4c-2.6,1.2-3.5,4.6-2.9,10.4
		c0.3,2.7,0.3,4.8,0.1,5c-0.4,0.4-0.8,0.2-0.9-0.4c-0.4-1.4-0.4-1.9-0.4-6.3c-0.1-5.7-0.4-7.3-2.1-8.6
		C172.2,164.6,169.9,163.5,169.9,163.8 M159.9,222.3c3.3,1.6,6.1,6.5,7.1,12.7c1.1,6.2,0.7,13.2-1.2,25.9c-1.6,10.9-2,15.5-1.4,21.2
		c0.1,1.7,0.3,3.4,0.3,3.9c0.3,3.2-0.9,7.7-2.2,8c-1,0.3-1.6-1.2-1.9-4.7c-0.1-1.2-1.9-15-4.1-30.7c-4.5-32.8-4.4-31.4-3.2-33.8
		C154.9,222,157.3,221,159.9,222.3 M158.2,228.9c-3,0.9-3,4.7-0.2,10.3c1.2,2.4,2.3,1.4,2.4-2.6c0.1-3.3,0.5-3.7,0.6-0.7
		c0.1,1.9,0.1,2.2,0.3,2.2c0.4,0,0.8-1,0.8-1.8c0-0.3,0.1-1.2,0.3-1.9C163.3,230.7,161.2,228,158.2,228.9 M202.8,340.8l-2,0.1
		l-0.1,0.6c-0.1,0.6-0.7,3-1.4,5.1c-0.3,1.1-0.3,4.8,0,8c0.3,3.1,0.3,5.5,0,7.7c-0.3,1.9,0.2,6.2,1,8.3c1.1,3,3.6,2.7,3.1-0.4
		c-0.4-2.6,0-4.5,0.5-2.3c0.8,4.1,1.5,4.2,4.3,0.6c3.3-4.4,3.4-5.7,1.1-13.1c-1.8-5.7-1.8-6-1-7.3c0.9-1.4,0.8-2.6-0.2-4.5
		c-0.6-1.1-0.8-1.6-0.8-2.1v-0.7l-1.2,0C205.3,340.7,203.9,340.8,202.8,340.8 M183.5,341.8c0.8,2.6,0.8,4.4-0.1,6.5
		c-0.8,1.9-0.8,2.4,0.1,4c0.8,1.6,0.9,1.2-1,7.4c-2.3,7.3-2.2,8.7,1.1,13c2.7,3.6,3.4,3.6,4.3-0.6c0.1-0.6,0.3-1,0.4-1
		c0.2,0,0.2,2.7,0,3.9c-0.3,1.6,1.1,2.4,2.3,1.2c1.3-1.3,2.3-6.8,1.9-9.7c-0.4-2.3-0.3-4.5,0.1-8.6c0.5-5,0.3-6.6-1.2-11.3
		c-0.3-0.9-0.6-2.1-0.7-2.6c-0.2-1.7-0.5-1.9-4.2-2.3C183.1,341.5,183.3,341.5,183.5,341.8"/>
</g>
</svg>
