<?xml version="1.0" encoding="utf-8"?>
<!-- Generator: Adobe Illustrator 22.1.0, SVG Export Plug-In . SVG Version: 6.00 Build 0)  -->
<svg version="1.1" id="svg" xmlns="http://www.w3.org/2000/svg" xmlns:xlink="http://www.w3.org/1999/xlink" x="0px" y="0px"
	 viewBox="0 0 390 390" style="enable-background:new 0 0 390 390;" xml:space="preserve">
<g id="svgg">
	<path id="path0" d="M252.8,19.8c0,0.1,0.3,0.6,0.7,1.2c1.3,2.2,2.1,4.7,2.3,7.5l0.1,1.8l-1.6-1.5c-3.2-3.1-7.2-5.2-11.8-6.2
		c-1.3-0.3-7.2-0.6-7.2-0.3c0,0.1,0.3,0.5,0.7,1c2,2.4,3.4,5.4,3.8,8.2l0.1,0.7l-1.7-1.3c-2.6-1.9-7.9-4.5-8.1-3.8
		c0,0.1,0.6,2,1.4,4.2c0.8,2.2,1.4,4,1.4,4c0,0-0.7-0.4-1.5-0.9c-2.9-1.8-8.8-4.9-9.9-5.1c-0.6-0.1-1.5,4-1.4,6.7
		c0.1,1.4,0,1.4-0.3,1.4c-1.4-0.3-9.1-0.6-10.2-0.5l-0.7,0.1l1.2,1.4c0.7,0.8,1.3,1.6,1.4,1.9c0.2,0.5,0.2,0.5,1.2,0.4
		c1.6-0.2,6.8-0.2,7,0c0.2,0.4-0.3,0.5-3.4,0.6c-3.8,0.1-4.4,0.2-5.1,0.8l-0.5,0.4l2.4-0.1c2.4-0.1,2.4-0.1,2.4,0.3
		c0,0.3-0.1,0.4-1,0.4c-3.5,0-6.5,0.5-8.8,1.6c-5.5,2.5-10.9,6-16.6,10.7c-4.6,3.8-7,5-10,5c-1.1,0-1.1,0.2,0.1,2
		c0.6,0.9,1.1,1.7,1.1,1.8c0,0-0.9,0.3-1.9,0.5c-2.7,0.6-4.5,1.2-6.3,2c-1.7,0.8-1.9,0.9-1.2,1.1c0.7,0.2,2.7,1.2,3.6,1.8l0.8,0.6
		l-1.8,1c-2.8,1.6-4.6,2.9-7,5.3c-2,2-3,3.3-1.4,1.8c1.3-1.2,3.1-1.8,4.9-1.7l1.1,0l-1.5,0.9c-2.4,1.5-7.6,6-7.2,6.3
		c0,0,0.5,0.3,1.1,0.6c0.6,0.3,1.6,1,2.3,1.5l1.2,0.9l-1.3,0.2c-2.4,0.4-4.4,1.4-5.8,3c-0.8,0.8-0.9,1.1-0.3,1
		c1-0.3,3.5,0.6,4.6,1.6l0.5,0.5l-2,1.1c-7.5,4.1-11.2,7.6-12.8,12.2c-0.4,1.1-0.4,1.1,0.9,0.4c2.6-1.3,5.4-1.9,6.1-1.3
		c1.1,1-0.1,2.8-4.8,7.7c-4.9,5-6.4,7.7-6.1,11.1c0.1,1.7,0.2,1.8,1,0.8c1.7-2.2,5-4.7,8.1-5.9c1.7-0.7,1.7-0.7,1,0.7
		c-2.3,4.8-6.7,8.6-12,10.1c-1.5,0.4-1.8,0.6-1.6,1c0.5,1.2,6.9-1.7,10-4.6l1.2-1.2l-0.9,1.9c-2.7,5.3-8.5,8.7-16.2,9.4
		c-1.2,0.1-1.5,0.4-1.1,0.8c0.2,0.2,0.6,0.2,2.1,0.1c4.1-0.3,7.7-1.6,11.1-4.1l1.3-0.9l-1.3,2.5c-1.2,2.4-1.4,2.6-2.4,3.3
		c-4.1,3.1-9.8,4.3-18.1,3.8c-3.7-0.2-4-0.2-3.9,0.4c0.1,0.4,0.8,0.5,5,0.6c6.6,0.2,11.4-0.6,15.2-2.6c1.7-0.9,1.6-0.9,1.3-0.3
		c-0.4,0.7-0.2,0.6,0.9-0.3c2.4-2.2,6.7-4.3,9.7-4.7l0.8-0.1l-0.1,1.7c-0.1,1.9-0.2,7.4-0.1,11.2c0.2,5.9-2.9,10-10.2,14
		c-1.5,0.8-1.7,1-1.2,1.4c0.3,0.3,1.6-0.3,4.4-2.2c4.2-2.8,6.7-5.8,7.6-9.1l0.3-1.2l2.1-2c1.2-1.1,2.2-2,2.2-1.9
		c0.1,0.1,0.3,2,0.5,4.3c0.2,2.3,0.4,4.2,0.5,4.3c0.3,0.3,11-8.2,18.3-14.8c1.8-1.6,4.3-3.7,5.6-4.8c3.4-2.7,7.1-6,7.1-6.3
		c0-0.5-7.5,1.6-9.7,2.8c-1.2,0.6-1.5,0.7-1.6,0.5c-0.6-0.9,4.9-3,10.7-4.1l1.6-0.3l0.7-1c2.4-3.4,1.9-5.9-1.4-6.6l-0.9-0.2l0.5-0.2
		c2.2-0.9,6.2-1.7,11.6-2.4c1-0.1,1.1-0.2,1.1-0.5c0.2-1.4-10.2,0.6-15.2,2.8c-1.8,0.8-3.9,1.3-5.2,1.2l-0.8-0.1l1.3-0.9
		c5.9-4.2,13.6-7.4,20.6-8.7c1.1-0.2,2-0.4,2.2-0.4c0.2-0.1-0.1-0.4-0.8-1.1c-2.5-2.3-5.6-3.9-9.6-4.9c-1-0.2-1-0.3,1.8-0.2
		c3.1,0.1,4.8,0.4,7.4,1.3c1.5,0.5,1.8,0.5,1.8,0c0-1.6-9.6-2.8-16.2-2.1c-1.2,0.1-3.3,0.3-4.7,0.3l-2.6,0.1l2.2-1.1
		c8.9-4.4,17.4-5.2,26.1-2.3c0.9,0.3,1.4,0.4,1.5,0.3c1.2-1.2-5.9-2.9-11.9-2.9c-5.9,0-9.7,0.9-16.1,4c-1.8,0.9-3.6,1.7-4,1.8
		l-0.7,0.2l0.6-0.5c3.3-2.8,7.3-4.4,17.2-6.9c8.3-2.1,11.5-3.1,14.6-5c1.6-0.9,1.6-0.9,0.1-1.3c-4.6-1.4-10.3-1.3-14.9,0.2
		c-2.1,0.7-2,0.7-1.1-0.5c2.8-3.5,7.4-5.1,16.1-5.5c4.8-0.3,6.6-0.5,8.6-1.2c2.2-0.7,2.2-0.8-0.1-0.8c-1.9,0.1-4.9-0.2-5.4-0.5
		c-0.4-0.2,0-0.7,0.5-0.6c3.1,0.7,7.5,0.5,8.4-0.3c0.6-0.6,0.5-0.7-1.4-0.8c-2.7-0.2-5.6-0.9-5.6-1.4c0-0.3,0.2-0.3,2.6,0.2
		c1.1,0.2,2.8,0.5,3.9,0.5l1.9,0.1l0.9-0.8c1.1-1.1,2-1.7,2.4-1.8c1.1-0.2-3.8-3.9-6.3-4.6c-0.4-0.1-0.7-0.3-0.8-0.3
		c-0.1-0.1,1.2-2,2.8-4.2c3.4-4.7,3.5-4.9,2.6-5.8c-0.6-0.6-1.5-0.9-2.3-0.9c-0.5,0-0.6-0.2-0.3-0.4c0.7-0.4,0.5-0.8-0.3-0.7
		c-2.8,0.4-6.6,2.3-9,4.5c-0.5,0.5-1,0.8-1.1,0.7c-1.7-0.7,5.4-4.9,9.9-5.9c1.8-0.4,2-0.5,2.7-1.1l0.7-0.6l-1.9,0.1
		c-2.5,0.1-4.6,0.8-6.8,2.1c-0.3,0.2-0.4,0.2-0.5,0c-0.7-1.1,4.4-2.9,8.2-2.9c2.1,0,2.2,0,3.1-0.5c1.4-0.8,3.1-1.4,4.9-1.7l1.7-0.3
		l-1.6-1.7c-0.9-1-1.5-1.8-1.5-1.8c0.4-0.6,4.5-0.5,6.5,0.1c0.7,0.2,1.3,0.4,1.3,0.3c0.1-0.1-0.6-1.5-1-1.9l-0.3-0.3l1,0
		c0.5,0,1.6,0.1,2.4,0.1c1.1,0,1.9,0.2,3.5,0.7c2,0.6,7.9,2,8.1,1.8c0,0,0-0.7-0.2-1.4c-0.3-1.6-0.6-1.5,2.4-0.6
		c2.5,0.7,8,1.9,8.2,1.8c0,0-0.1-0.2-0.3-0.3c-1.4-1-2.9-2.9-3.6-4.8c-0.6-1.7-0.6-1.8,0.7-1.1c1,0.6,3.7,1.5,4.1,1.5
		c0.1,0-0.1-0.2-0.4-0.4c-1.2-0.9-3.2-2.9-3.2-3.2c0-0.6,0.6-0.3,2.1,1.2c2.7,2.7,4.4,3.5,7,3.5c0.1,0-0.3-0.3-0.8-0.6
		c-3.5-2.1-7.8-7.1-6.5-7.5c0.1,0,0.6,0.6,1.1,1.3c1.7,2.6,4.7,5.2,7.5,6.4l1.1,0.5l0.1-0.8c0.1-0.4,0.1-1.6,0.1-2.6v-1.9l1.1,1
		c1.6,1.6,3.7,2.5,6.5,2.9c1.6,0.2,1.6,0.2,0.5-0.5c-1.7-1.1-4.6-4.5-4.4-5.1c0.2-0.4,0.5-0.2,1.1,0.6c2,3.1,5,5.1,7.5,5.1h1.5
		l-1.7-1.7c-0.9-1-1.7-1.9-1.7-2c0-0.6,0.6-0.2,1.7,1c0.6,0.7,1.6,1.6,2.2,2l1,0.8l1.3-0.1c0.7-0.1,1.4-0.1,1.4-0.2
		c0,0-0.3-0.5-0.8-1.1c-2.3-2.8-3.7-7.2-3.5-10.8c0.1-1.8,0-1.5-0.9,1.6c-0.4,1.5-0.7,2.7-0.8,2.7c-0.2,0.2-2.6-3.9-3.5-6
		c-0.4-0.9-0.7-1.6-0.7-1.4c0,1.7-0.8,5.7-1.1,5.7c-0.1,0-0.9-0.7-1.8-1.6c-3.3-3.4-5.6-7.8-6.5-12.3c-0.2-0.9-0.3-1.6-0.4-1.6
		c-0.1-0.1-0.3,1.5-0.8,7c-0.2,2.1-0.4,3.8-0.5,3.8c-0.1,0-1.6-2.5-3.4-5.5l-3.3-5.5l-0.1,3.1l-0.1,3.1l-0.5-0.5
		c-2.8-3-8.3-6.4-13-8C252.8,19.6,252.8,19.6,252.8,19.8 M156.6,47.9c-0.2,0.6-0.3,1.3-0.3,2.4l0,1.6l-0.9-0.1
		c-2.3-0.3-7.1-1.4-9-2.2c-0.2-0.1-0.3,0-0.2,0.5c0.1,0.8-0.5,1.5-1.7,2c-1.3,0.5-8.4,0.6-12.1,0.3c-1.3-0.1-2.4-0.2-2.4-0.2
		c0,0-0.1,1.5-0.2,3.2l-0.1,3.2l-2.8,0.6l-2.8,0.6l-5.3,0c-5,0-5.4,0-6.7,0.4c-2.2,0.6-2.2,0.5,0.1,2.8c1.5,1.5,1.6,1.5,1.1,1.5
		c-3.8,0-11.5,1-15.3,1.9c-1.6,0.4-1.6,0.4-0.3,0.8c2.5,0.8,4.7,2.1,6.7,3.9c1.5,1.5,1.6,1.4-0.8,1.1c-8.1-1.1-17.3,0.9-24.4,5.4
		c-1.7,1.1-1.7,1.1-0.7,1.3c2.1,0.3,5.1,2,6.9,3.9c1.9,2,2,1.8-1.9,1.8c-5.6,0-7.8,0.4-7.9,1.6c-0.1,0.6,0,0.7,2.9,2.8
		c2.7,1.9,2.8,2,1.8,2.2c-0.3,0.1-1.3,0.5-2.1,1c-0.8,0.5-2.6,1.4-3.9,2c-3.6,1.6-5.1,2.7-4,2.7c1,0,3.1,1.7,3.8,3.1l0.4,0.8
		l-0.5,0.4c-1.3,1.1-5.8,3.4-7.3,3.8c-0.6,0.1-2.4,0.3-4.3,0.4c-5.4,0.3-5.4,0.3-4.7,1.5c0.5,1.1,1.8,2.8,2.5,3.4l0.6,0.5l-0.7,0.8
		c-1,1.2-2.5,2.8-4.1,4.2c-1.2,1.1-1.3,1.3-0.9,1.2c0.9-0.1,1.5,1.1,1.9,3.9c0.3,2.4-0.1,3.1-3.5,6.9c-5.8,6.5-9.1,9.2-11.4,9.3
		c-0.4,0-0.7,0.1-0.6,0.2c0.2,0.2,4.7,0.3,6.3,0.1c1.9-0.2,1.8-0.3,1,1c-0.8,1.2-1.6,3.1-2.1,4.8c-0.7,2.4-0.4,8.8,0.4,9.6
		c0,0,0.6-0.2,1.3-0.6c1.5-0.8,3-1.2,4.2-1.1l0.9,0.1l-0.7,1.3c-2.3,3.9-3.3,9.3-2.5,13.7c0.4,2,0.4,2.1,2.1,0.8l0.9-0.7v4.2
		c0,2.3,0,4.2,0.1,4.2c0,0,0.8-0.5,1.6-1.1c0.8-0.6,1.7-1.2,2-1.4l0.5-0.3l-0.3,0.7c-0.7,1.5-1.2,5-0.8,5.4c0,0,1.9-0.4,4.1-1
		c2.2-0.6,4.1-1,4.1-1c0.6,0.6-1.9,7.9-3.7,10.6c-0.7,1.1-0.7,1.1,1.2,1.3c5.3,0.6,11.4-0.4,16-2.7c5.4-2.7,9.1-5.5,19.5-14.9
		l5.5-4.9l-0.6-0.6c-1.3-1.1-3.6-2-5.2-2c-0.4,0-0.7-0.1-0.7-0.2c0.2-0.5,2.5-3.2,3.6-4.1c2.1-1.8,3.1-2.4,6.9-4.2
		c0.7-0.4-2.4-0.1-4.2,0.4c-1.8,0.5-3.3,1.1-4.7,2c-1.4,0.9-1.9,0.4-0.5-0.6c2.7-1.8,5.2-2.5,9.9-2.6c4.1-0.1,4.2-0.1,4.2-0.8
		c0-0.6-0.1-0.6-2.7-0.8c-3.2-0.3-6.9,0.2-10.2,1.3c-1.6,0.6-2.3,0.5-1.5-0.2c1.6-1.3,10.1-2.5,13.2-1.8c0.9,0.2,0.6-0.2-0.6-0.8
		l-1-0.5l-2.8,0c-4.5,0-4.6-0.1-2.7-2c1.6-1.6,2.8-2.2,7.5-3.8c4.4-1.5,8.5-3.8,7.9-4.3c-0.6-0.6-8.9-0.2-12.7,0.6
		c-2.3,0.4,4.1-3.5,7.5-4.8c3-1.1,4.8-1.4,9.3-1.8c6.6-0.6,9.4-1.4,11.3-3.7l0.5-0.6l-0.4,0.1c-4.9,1.3-14.8,1.5-13.6,0.3
		c0.1-0.1,0.9-0.1,2.2,0c3,0.2,7.3-0.1,10.1-0.8c2.4-0.6,2.2-0.5,2.5-1.3c0.4-1,0.5-1-1.9-0.5c-2.6,0.5-7.4,0.7-7.4,0.2
		c0-0.2,0.4-0.3,2.2-0.4c3.6-0.2,7.4-0.9,7.7-1.5c0.6-1.2-0.1-1.7-4.4-3.4l-3.7-1.5l2,0c2.2,0,4.6-0.4,6.7-1.1
		c1.3-0.4,2.9-1.1,2.3-1c-1.9,0.4-6,0.3-6-0.2c0-0.3,0.2-0.3,2.5-0.3c5.2,0,7.6-1.2,9.5-4.6l0.5-1l-1.2,0.6
		c-2.4,1.2-8.1,2.7-8.6,2.3c-0.4-0.4,0.1-0.6,1.8-0.9c2.2-0.4,4.3-1,6.6-2.1l1.8-0.8l0.3-0.9c0.4-1.3,0.4-3.4,0-4
		c-1-1.4-3.3-1.7-4.8-0.6c-0.9,0.6-1,0.5-0.4-1c0.7-1.8,2.1-3,5.8-4.8c3.5-1.7,4.8-2.6,5.7-4c0.5-0.9,0.4-1-0.6-0.4
		c-3,1.7-9.3,3.2-9.3,2.2c0-0.3,0.1-0.4,0.8-0.4c3.1-0.4,6.1-1.2,8.2-2.5c1.3-0.7,1.5-1.1,1.3-2.2l-0.1-0.4l-1.2,0.6
		c-1.5,0.7-4,1.3-6.6,1.6c-2.5,0.3-2.3,0.3-2.3-0.1c0-0.3,0.2-0.4,1.8-0.6c3.9-0.5,8.2-1.8,8.2-2.5c0-0.4-1.5-4.7-2-5.9l-0.6-1.3
		l1-0.6c3.4-1.9,8.5-5.9,10.7-8.5l0.8-0.9l-2.2-2.1c-2.8-2.8-2.8-2.9,0-3.9l1.6-0.6l1.2,0.3c2.8,0.7,6.6,0.7,6.6,0
		c0-0.4,0-0.4-1.6-0.4c-3,0-4.7-0.4-3.3-0.6l0.5-0.1l-0.6-1.2c-0.3-0.6-0.6-1.2-0.5-1.2c0,0,0.8,0.2,1.7,0.4
		c2.3,0.6,4.3,0.7,4.5,0.3c0.2-0.5-0.2-0.7-1.5-0.8c-4.2-0.4-7.5-2.1-4.3-2.3c0.9-0.1,2-0.2,2.4-0.3c0.5-0.1,2.3-0.2,4-0.2
		c3.1,0,4.1-0.2,4.1-0.6c0-0.5-0.4-0.6-1.8-0.4c-0.8,0.1-1.4,0.1-1.5,0.1c0,0,0.7-0.4,1.7-0.7c0.9-0.4,2.7-1.3,4-1.9
		c2.1-1.1,2.4-1.2,3.6-1.3c3.3-0.3,6.3-1.1,6.2-1.6c-0.1-0.5-0.3-0.5-3,0.1c-1.2,0.2-2.2,0.4-2.2,0.4c0,0,1.1-0.7,2.6-1.4
		c4.9-2.6,5-2.7,4.5-3.8c-0.6-1.3-1.1-1.4-8.8-0.7c-11.1,1-15.8,0.5-21.2-2.1C157,46.8,157,46.8,156.6,47.9 M294.1,50.9
		c-0.1,0.1-0.2,0.7-0.2,1.4c-0.1,1.2-0.1,1.2-0.4,1.1c-0.9-0.3-2.1-0.8-2.5-1.1l-0.5-0.3l-0.8,1.2c-0.9,1.3-1,1.4-1.8,1.6
		c-1.1,0.3-3.4-0.6-5.4-1.9c-1.2-0.8-1.3-0.6-0.7,1.4c0.3,0.9,0.5,0.9-2,0.3c-2.6-0.7-2.6-0.7-2.5-0.2c0.3,0.9,0.9,2.1,1.5,2.8
		l0.6,0.7l-2.8-0.1c-1.7-0.1-3.3-0.2-4.1-0.4c-1.7-0.4-1.8-0.1-0.5,1.5l0.5,0.6l-2.8,0.7c-3.3,0.8-3.4,0.9-3.2,1.1
		c0.6,0.6,5.4,2.2,8,2.6c2.2,0.4,2.2,0.4,1-0.8l-1.1-1.1l1.6,0.5c3.2,1.1,5.6,0.9,7.9-0.7c3.2-2,3.9-2.2,10.3-2.4
		c4.8-0.2,5.7-0.3,8.5-1c3-0.8,5.2-0.4,6.5,1.2c0.8,1,1.2,1,1.9,0.1c1.3-1.9,5-2,10.4-0.2c1.1,0.4,2.1,0.7,2.2,0.8
		c0.2,0.1,0.1-0.1-0.3-0.5c-0.3-0.3-0.9-1.2-1.4-1.9c-1.1-2-1.4-2.1-3.3-2.5c-2.7-0.5-3.8-0.9-3.3-1.5c0.3-0.4,0-0.3-0.8,0.3
		c-2,1.4-4.1,1.5-3.6,0.3c0.2-0.5,0.2-0.5-0.1-0.4c-1.3,0.5-4.8,0.5-8.1-0.2c-3.1-0.6-3.7-1-4.2-2.7l-0.2-0.8l-0.3,0.9
		c-0.5,1.8-0.9,1.8-3.2-0.1C294.2,50.6,294.2,50.6,294.1,50.9 M246.3,55.7c0,0.1,0.3,0.7,0.6,1.3l0.6,1.1l-2.1-0.1
		c-2.3-0.1-4.1,0.2-5.7,0.9c-1.1,0.5-1.1,0.5,0,0.8c0.5,0.2,1.2,0.5,1.5,0.8l0.6,0.6l-0.9,0.3c-0.9,0.3-2.5,1.2-3.3,1.8l-0.5,0.4
		l0.8,0.3c1.3,0.6,1.4,1.7,0.2,4.9c-1.3,3.6,0.6,13.3,3.5,17.9c0.9,1.5,1.6,2.2,3.6,4c3.8,3.3,5.8,8.7,3.1,8.2c-0.2,0-0.4,0-0.4,0.1
		c0,0.3,1.4,0.8,2.4,0.9l0.9,0.1l-0.5,0.4c-0.2,0.2-0.6,0.4-0.7,0.4c-0.4,0-0.3,0.3,0.2,0.6c2,1,4.2,0.5,5.5-1.3
		c0.5-0.7,0.6-1.2,0.3-1c-1.1,0.4-4.2-2-6.1-4.8c-0.7-1.1-2.1-2.8-3-3.8c-5.6-6.1-6.9-9.5-6.1-15.5c0.2-1.9,0.2-2.1-0.6-3.4
		c-0.7-1.2-0.7-1.1,0-1.1c0.9,0,1.2-0.2,1.9-1.5c1.4-2.3,2.6-3,5.5-3c11.9,0,21.8,5.1,25.9,13.3l0.8,1.6l0,2c0,2.1,0,2.3,0.8,2.8
		c1.8,1.3,6.4-2,6.9-4.9c0.1-0.6,0.1-0.7-0.8-1.5c-0.7-0.7-0.8-0.8-0.6-0.9c0.4-0.2,1.8,0,2.6,0.4c0.8,0.4,0.8,0.4,0.4-0.8
		c-0.5-1.4-0.6-1.5-1.7-2.1c-0.6-0.3-1-0.6-1-0.7c0-0.3,1.2,0,2.2,0.6c2.3,1.4,2.9,1.5,3.5,0.5c0.4-0.7,0.3-1.8-0.2-3.2
		c-0.5-1.1-0.8-2.4-0.8-3.9c0-2-0.3-2-1.7-0.1c-0.2,0.3-0.3,0.4-0.4,0.2c-0.4-1.2-2.9-4-4.3-5c-0.6-0.4-0.6-0.4-0.3,1.1
		c0.1,0.6,0.2,1.2,0.2,1.3c0,0.5-2.7-0.2-6.4-1.7c-1.1-0.4-3.5-1.3-5.2-1.9c-7-2.4-9.8-3.8-12.2-6.3c-0.6-0.6-1.1-1.1-1.2-1.1
		c0,0,0,0.4,0,1l0.1,1l-1.3-0.5C250.6,56.5,246.3,55.4,246.3,55.7 M368,59.2c-0.5,0.2-1.6,0.9-2.5,1.5c-0.9,0.6-2.1,1.2-2.7,1.5
		c-3.7,1.2-9.2,3.5-12.4,5.1c-1.8,0.9-1.6,0.9-1.6-0.2c0-1.3-0.2-1.2-2,0.6l-1.5,1.5l0.1-1.7l0.1-1.7H345c-0.6,0-1.4,0.7-1.9,1.7
		c-0.4,0.7-2.4,3.8-2.8,4.2c-0.1,0.1-0.3,0.1-0.4-0.1c-0.4-0.3-1.2-0.7-1.2-0.5c0,0.1,0.1,0.4,0.3,0.7c0.2,0.4,0.3,1.2,0.3,2.6
		c0,1.7,0.1,2.2,0.4,3.1l0.4,1.1l0.4-0.7c0.5-1,2.6-2.2,2.3-1.3c-1,2.5-0.2,5,1.1,3.3c0.7-0.9,0.9-1.1,1.7-1.3
		c0.9-0.3,0.9-0.2,0,1.3c-1.6,2.7-0.6,4.8,1.3,2.9l0.7-0.7v0.9c0,1.1-0.1,1.1,1.3,0.1c1.3-0.9,1.5-1.2,2.3-3.4
		c1.5-3.9,3.8-6,10.2-9.2c6.7-3.3,10.3-3.5,12.8-0.8c3.3,3.6,1.6,10-6.8,25.6c-2.9,5.4-3.5,6.7-3.5,7.9c0,1.1,0.1,1.1,1.4,1.1
		c0.6,0,1.5,0.1,1.9,0.1l0.7,0.1l-0.1-0.6c-0.1-0.3-0.2-0.9-0.4-1.3l-0.3-0.6l0.5,0c0.3,0,0.9,0.1,1.4,0.3c1.1,0.4,1.1,0.2-0.3-1.2
		c-1.7-1.8-1.7-2,1.1-5.8c4.8-6.6,9.5-16.3,10.4-21.5c0.1-0.6,0.3-1.1,0.4-1.1c1,0,1-2.3-0.1-5.6c-0.4-1.3-0.4-1.3,0.9-0.7
		c1.3,0.6,1.3,0.5,0.6-0.7c-1.2-1.9-3.2-3.5-5.2-4.1c-1.4-0.4-1.4-0.3-0.1-1.1l1-0.6l-0.7-0.2c-1.1-0.3-5.3-0.3-6.5,0.1l-1,0.3v-0.5
		C369.3,58.7,369.2,58.7,368,59.2 M302.4,60.6c-0.5,0.1-0.5,0.3,0,1.9c0.2,0.7,0.3,1.3,0.3,1.4c0,0.1-0.4-0.1-0.9-0.5
		c-1.7-1.1-3.6-1.8-5.7-2.1c-0.7-0.1-0.7,0,0,0.6c0.6,0.5,1.4,1.5,1.5,2.1c0.1,0.4,0.1,0.3-1.1-0.2c-2.1-1-3.5-1.3-5.2-1.3l-1.5,0
		l-1.5,0.9c-1.9,1.2-2.4,1.4-3,1.2c-0.4-0.1-0.2,0.1,0.8,1.2c4.9,4.8,5.8,10,2.7,15.3l-0.6,1l0-0.8c0-1-0.5-2.1-1.2-2.5l-0.5-0.3
		l0.1,1c0.2,1.3-0.3,3.4-0.8,4c0,0-0.4-0.2-0.8-0.6c-1-0.8-1.1-0.7-1.1,1c0,2.1-0.5,2.9-2.3,3.8c-2.9,1.5-6.7,1.7-11.6,0.8
		c-2-0.4-2-0.4-1.3,0.8c0.4,0.7,0.5,1,0.3,1.1c-0.3,0.1-2.4,0.4-4,0.6l-1.1,0.1l0.9,0.7c0.9,0.6,0.9,0.7,0.5,0.8
		c-0.9,0.3-2.8,0.6-4.4,0.7c-1.9,0.1-1.9,0-0.4,1.6l1.2,1.3l-0.6,0.2c-0.3,0.1-1.1,0.2-1.7,0.3l-1.1,0.1l0.3,0.4
		c0.7,0.8,0.5,1.3-1.4,3.5c-0.9,1.1-1.9,2.8-1.7,3c0,0,1.9-0.9,4.1-2.2c5.9-3.3,10.9-5.8,12.5-6.2c1.5-0.3,3.5-1.1,7.5-2.7
		c10.3-4.3,17.3-5.2,24.3-2.8c4,1.3,5.9,2.8,6.5,5.2c0.6,2.3,2.4,1.8,3.6-1.1c2.2-5.1,4.5-6.5,11.9-6.7c2.2-0.1,5-0.2,6.2-0.3
		c2.6-0.1,4.4,0.2,7.1,1.1l1.4,0.5l-1,0c-1.7,0-5.2,1.1-4.9,1.4c0.2,0.2,4.4,0.8,6,0.9c3.1,0.2,5.9,0.9,8.5,2.2l1.2,0.6l-0.7,0.1
		c-0.4,0-1.3,0.3-2.1,0.6c-1.5,0.6-1.6,0.5,1.4,1.4c1.2,0.3,2.9,0.9,3.9,1.3l1.8,0.7l-2.5,0.1c-1.4,0.1-2.8,0.1-3.1,0.1
		c-0.7,0-1-0.2,4,3.4l3.9,2.7l-0.8,0.1c-0.7,0-2.3-0.1-3.4-0.4c-1.7-0.4,4.2,4.1,7.4,5.7c1.5,0.8,2.2,1.2,3.3,2.1
		c0.7,0.7,1.8,1.4,2.4,1.7c0.6,0.3,1.3,0.7,1.5,0.9c0.6,0.6,0.4,0.1-1.2-2.4c-1.4-2.2-1.5-2.5-1-2.5c0.3,0,2-0.9,2-1.1
		c0-0.1-0.3-0.1-0.6-0.1c-0.8,0.1-1.8-0.3-3.5-1.5c-1.8-1.1-1.9-1.3-1.2-1.6c0.3-0.1,0.7-0.4,0.9-0.7l0.4-0.4l-0.6-0.2
		c-0.8-0.3-2.1-0.9-2.8-1.4c-0.6-0.4-0.4-0.5,0.8-0.7l0.8-0.1l-1-0.2c-0.5-0.1-1.3-0.4-1.7-0.6l-0.7-0.4l0.9-0.1
		c1.6-0.2,4.7-1.1,3.9-1.1c-0.3,0-0.8-0.5-1.7-1.3c-1.5-1.5-2.1-1.8-5.1-2.4c-2.7-0.5-2.7-0.5-0.2-1.2c0.4-0.1,1-0.4,1.2-0.7
		l0.5-0.5l-1.4-0.3c-1.7-0.4-1.6-0.3-1.2-1c0.2-0.3,0.3-0.8,0.3-1c0-0.5-0.1-0.5-1.3-0.3c-0.8,0.2-1,0.1-1.1-0.5
		c-0.3-1-0.9-1.3-3.2-1.6c-4.4-0.6-5.5-1.3-7.3-4.9c-1-2-1.3-2.1-1.4-0.4c0,0.4-0.1,0.3-1.1-0.4c-1.3-1-1.6-1.6-1.7-3.4l-0.1-1.4
		l-0.6-0.2c-0.7-0.3-2.4-0.6-3.9-0.8l-1.1-0.1l0.8-0.5c1.5-0.8,2.5-2,3.4-3.8c1.1-2.3,1.6-2.8,2.5-2.5c0.3,0.1,0.4,0.1,0.3-0.1
		c0-0.2-0.2-0.8-0.4-1.3c-0.5-1.7-1.1-2-3-1.1c-1.1,0.5-1.8,0.6-1.8,0.2c0-0.1,0.1-0.8,0.3-1.6c0.3-1.7,0.4-1.6-0.9-1.2
		c-1.5,0.5-7.5,0.9-7.5,0.5c0-0.1,0.4-0.7,0.8-1.4c1-1.5,1.1-1.4-1.2-0.8c-1,0.3-2.7,0.7-3.6,0.8c-1,0.2-1.9,0.4-2.1,0.4
		c-0.6,0.1-0.5-0.4,0.3-1.4c0.7-0.9,0.8-1.6,0.3-1.9c-0.4-0.2-6.4,0.8-7.7,1.2c-1.3,0.5-2.1,1.5-2.5,3.4l-0.2,1l-0.2-1
		C309.2,61.9,306,59.8,302.4,60.6 M268.7,69.4c3.8,2.3,9,7.7,7.4,7.7c-0.1,0-0.6-0.5-1.1-1.2c-1.6-2-4.4-4.5-7-6.1
		c-0.7-0.4-1-0.7-0.9-0.9C267.3,68.7,267.6,68.8,268.7,69.4 M252.9,71.7c1.1,1.4,2.8,2.6,5.1,3.5l1.1,0.4l-0.8,0.5
		c-1.1,0.8-2,1.1-3.4,1.1c-1.4,0-1.4,0-0.6,0.5c0.6,0.4,0.8,0.4,3.5,0.4c3.1,0,4,0.2,4.1,1c0.2,1.1-4.8,1.8-7.9,1
		c-1.5-0.4-1.5-0.3-0.1,0.5c2.2,1.2,5.7,2.3,10.2,3.2l1,0.2l-0.5,0.3c-0.3,0.2-0.8,0.4-1.2,0.5c-0.8,0.2-0.7,0.5,0.4,1
		c1.1,0.5,2,0.4,3.5-0.4c1.4-0.7,1.9-0.8,2.9-0.4c0.7,0.3,0.7,0.3,0.8-0.8c0.2-1.6-0.5-2.1-3.1-2.6c-0.9-0.2-1.6-0.3-1.7-0.4
		c-0.3-0.3,2-1,2.9-1c0.9,0.1,0.9,0.1,0.1-1c-1.1-1.3-3.5-2.6-6-3.1c-1.4-0.3-1.1-0.6,0.7-0.8l1.1-0.1l-1.1-0.7
		c-1.3-0.9-2.5-1.3-4.9-1.8c-3.2-0.7-5-1.2-6.1-1.7l-1-0.5L252.9,71.7 M365.8,74.1c-0.3,0.1-1.3,0.3-2.1,0.4c-1.8,0.2-2.7,0.5-4,1.6
		c-0.5,0.4-1,0.8-1.1,0.8c-0.4,0-0.1,0.3,0.8,0.7c0.5,0.2,1.2,0.6,1.4,0.8l0.4,0.3l-1.3,0c-2,0-3.9,0.5-3.9,1c0,0.1,0.3,0.5,0.7,0.9
		l0.7,0.8l-1.6,0c-1,0-1.8,0.1-2,0.2l-0.4,0.2l0.7,0.8c0.4,0.4,0.9,1,1,1.3l0.3,0.5l-1-0.2c-2.2-0.5-3.4-0.2-3.4,0.6
		c0,1,1.5,1.9,5.1,3.2c2.4,0.8,3.2,1.3,4.4,2.6c1.1,1.1,1.1,1.1,0.4-0.3c-0.7-1.3-1.8-2.9-2.6-3.7c-0.6-0.6-1.2-1.8-1-2
		c0,0,0.8,0.2,1.6,0.5c1.5,0.6,4.9,1.5,5,1.4c0,0-0.5-0.4-1.1-0.8c-2.7-1.6-3.3-2.7-2.5-4.7l0.4-0.8l1.5,0.1c2.2,0.2,7.7-0.8,5.6-1
		c-1.3-0.1-2.8-0.6-4-1.2c-1.3-0.7-1.4-0.8-0.9-1c0.9-0.3,3.8-2.9,3.5-3.1C366.4,73.9,366.1,74,365.8,74.1 M230.3,86.3
		c0,2.3,1.4,5.3,3.5,7.4l1.4,1.5l-1.1,0.6c-2.8,1.5-8.1,3.6-12.5,4.8l-1.1,0.3l1,0.6c1.1,0.7,2.3,1.2,3.6,1.5l0.9,0.2l-3.2,1.3
		c-1.7,0.7-3.2,1.4-3.2,1.5c0,0.3,1.9,1.2,3.4,1.7c0.8,0.2,1.6,0.5,1.7,0.6c1,0.4-5.4,4-9.3,5.4c-0.9,0.3-1.6,0.6-1.6,0.7
		c0,0.5,4.9,5,7.5,6.9l1.4,1l-0.7,0.2c-0.8,0.2-3.6,0.7-4.2,0.7c-0.8,0-0.6,0.2,1.9,1.9c2.4,1.7,2.6,1.9,1.2,1.9
		c-0.9,0-0.9,0,0.2,1.5c0.8,1.3,1.9,2.5,3.1,3.8l0.9,1l-0.7-0.4c-2.3-1.1-5.4-3.5-7.2-5.5c-0.8-0.9-1.1-1.2-1.3-1.1
		c-1.9,0.7,5.9,7,11.3,9c0.8,0.3,1.8,0.7,2.2,1c0.4,0.2,1.1,0.6,1.6,0.9l1,0.5l-2.1,0.6c-2.4,0.7-2.6,0.7-4,0.3
		c-3.7-1-6.9-2.7-9.6-5.3c-1.4-1.3-1.9-1.6-2.1-0.9c-0.1,0.4,2,2.4,3.9,3.7c2.2,1.6,4.9,2.8,7.9,3.5c0.9,0.2,0.9,0.1,0,2.7
		c-0.8,2.4-0.8,2.2,0.6,2c1.1-0.2,4-0.1,4.6,0.1c0.2,0.1,0.3,0.5,0.4,1.7c0.2,3.2,1.3,8.8,1.3,6.8c0-2.2,1.8-2.7,3.4-0.9
		c2.3,2.5,2.3,4.8,0.3,10c-1.2,3.1-1.6,4.5-1.6,6.3c0,1.9,0,1.9,1.2,0.3c2.3-3,4.7-4.7,7-4.9c0.6-0.1,1.1-0.1,1.1,0
		c0,0.4-0.6,1.8-1,2.2c-2.5,2.7-4.2,8.3-3.7,11.7c0.1,0.7,0.2,0.8,0.5,0.8h0.4l0-2c0-2.9,0.8-5.7,2-7.7c0.5-0.8,0.5-0.7,0.1,1
		c-0.6,3.1-0.3,6.9,0.9,9.2c0.3,0.6,0.7,1.7,0.9,2.7c0.6,2.8,1.8,5.6,2.5,5.6c0.6,0,0.5-0.4-0.2-1.9c-0.8-1.7-1.5-3.9-1.6-5.6
		l-0.1-1.3l1-1.8c0.6-1,1.4-2.4,1.8-3.2l0.8-1.3l0.2,2.4c0.2,2.3,0.4,3.9,0.9,5.6l0.2,0.7l0.2-0.5c0.9-2.2,2.9-2.8,4.2-1.2
		c2.9,3.3,5.6,5.8,9.5,8.7c6.1,4.6,6.6,4.8,19.1,7.6l2.5,0.6l1.4,1.3c2.1,1.9,4.3,3.3,9.8,6.1c4.5,2.3,7.3,3.8,6.7,3.6
		c-0.1,0-1.8-0.5-3.7-1c-1.9-0.5-3.6-1-3.8-1c-0.2-0.1,0.5,0.8,1.6,1.8c1.9,1.9,2.9,3,2.4,2.9c-0.5-0.2-11.7-2.8-12-2.8
		c-0.8,0,2.4,2.5,5.3,4.2c4,2.3,5.7,4.2,6,6.8c0.1,0.5,0.1,0.9,0.2,0.9c0.3,0,1-0.7,1.4-1.3l0.5-0.8l0.7,1.6c1.4,3,1.9,6.7,1.4,9.9
		c-0.3,1.6-0.2,1.7,0.7,0.7c1-1.1,1.6-2.4,1.7-3.9l0.1-1.2l0.5,1.1c0.7,1.4,1.1,3.4,1.3,5.4c0.1,1.8,0.3,1.3,0.4-1
		c0-1.5,0.2-1.9,0.7-1.6c0.4,0.2,0.1,3.3-0.4,5c-0.5,1.5-0.7,2.2-0.9,3.5c-0.2,1.1-1.7,3.9-2.7,5.4c-1,1.3-1.1,1.8-0.5,1.9
		c0.4,0.1,1.1-0.9,2.2-2.6l0.6-0.9l-0.1,0.7c-0.1,0.4-0.3,2-0.6,3.7l-0.5,3l-0.6,0.5c-0.3,0.3-1.3,0.9-2.1,1.4
		c-1.5,0.9-2,1.5-1.4,1.7c0.3,0.1,1.6-0.5,3-1.5c0.6-0.4,0.9-0.5,0.9-0.4c0.3,0.5,3.4-1.2,5.3-3.1c2.5-2.4,0.1,0.9-2.8,3.9
		c-1.7,1.8-1.9,2.2-1.2,2.4c0.3,0.1,3.1-2.7,4.7-4.7c1.7-2.2,3.1-5.3,3.1-6.8l0-0.6l0.4,0.5l0.4,0.5l0-1.7c0-2-0.3-3.7-0.9-5.3
		c-0.4-1.2-0.4-1.4,0-1.4c0.7,0,1.6,3.5,1.7,6.9l0.1,2.6l1,1.2c1.3,1.4,1.2,1.6,1-1.8c-0.2-3.1-0.2-6.9-0.1-7.9l0.1-0.6l0.6,1.1
		c1,1.7,3.8,5.1,4.2,5.1c0.1,0,0.2-0.5,0.2-1.1c0.3-3.5,0.7-4.6,1.5-3.9c0.3,0.3,0.3,0.3,0.2,0c-1.6-4-2.4-8.4-1.4-8.4
		c0.3,0,0.3,0.2,0.4,1.6c0.3,4.4,1.8,7.6,4.1,8.5c1.7,0.7,1.7,0.6,0.9-0.4c-1.6-2-3-6.4-2.1-6.4c0.3,0,0.4,0.2,0.7,1.5
		c0.7,3,2.8,6,5,7.2c0.5,0.3,1.3,0.9,1.7,1.3c0.9,0.9,1,0.8,0.3-0.2c-0.7-1.1-1.2-2.4-1.4-3.8c-0.5-2.6-0.5-2.7,3.5-2.3
		c3.9,0.4,3.5,0.4,3.5-0.5c0-0.8,0-0.9-1.4-3.4c-1-1.9,0.3-3.9,1.8-2.6l0.3,0.3l-0.1-2.1l-0.1-2.1l0.5,0.1c0.8,0.2,1.3,0.4,1.8,0.8
		c0.7,0.6,0.8,0.5,0.3-0.6c-0.6-1.7-1.1-4.8-0.8-5.2c0.2-0.3,1.6,0.1,3.2,1l1.2,0.6l-0.4-0.7c-1.6-2.6-2.1-5.6-1.3-7.1
		c0.6-1,0.7-2.8,0.3-3.5c-0.2-0.3-0.1-0.3,0.9-0.2l1,0.1l-0.1-1.2c-0.1-0.7-0.1-2.3-0.2-3.6c0-1.3-0.1-3.1-0.2-4.1l-0.1-1.8l2,0
		c1.1,0,2.3-0.1,2.8-0.1l0.8-0.1l-1.2-2.3c-0.6-1.3-1.7-3-2.3-4l-1.1-1.7l0.8,0.1c0.4,0,0.8,0,0.8,0c0-0.1-0.3-1.3-0.7-2.7
		c-0.4-1.4-0.7-2.6-0.7-2.6c0,0,0.5-0.3,1.1-0.6s1.3-0.7,1.6-0.9l0.5-0.4l-0.7-0.7c-0.4-0.4-1.3-1.6-2-2.7c-1.5-2.3-2.4-3.2-4.8-4.6
		l-1.8-1l-0.2,0.5c-0.9,2.2-0.2,6,1.4,8.3l0.3,0.5l-2.3-0.1l-2.3-0.1l0.1,1.1c0.3,2.8,1.5,6,3.1,8.2c0.9,1.2,0.9,1.2-2.3-0.4
		c-1.6-0.8-2.9-1.4-2.9-1.4c0,0,0.4,0.9,0.9,2c0.5,1.1,0.9,1.9,0.9,1.9c0,0-0.5-0.2-1-0.4c-1-0.3-3.4-0.6-3.4-0.4
		c0,0.2,1,2.1,1.7,3.2c0.4,0.6,0.6,1.1,0.6,1.1s-0.4,0.1-1,0.2l-1,0.1v0.9c0,0.5,0.1,1.2,0.2,1.7c0.1,0.5,0.2,0.9,0.2,0.9
		c0,0.1-1.1,0.1-2.4,0.1h-2.4l0.1,0.7c0.1,0.9,0.9,2.3,2.2,4.1c1.5,2.2,1.9,2.8,2.2,4c0.3,1.4,0.3,1.4-0.6,0.3
		c-2.6-3.4-5.7-5.2-10.3-6.2c-2.9-0.6-3.4-0.2-2.5,1.6c0.3,0.6,0.5,1,0.5,1.1s-0.7-0.4-1.5-1c-1.7-1.2-1.6-1.3-1.8,0.9
		c-0.1,1.2-0.1,1.5,0.2,2.1c1,2.1,1.3,5.8,0.5,5.8c-0.3,0-0.3-0.2-0.4-1.8c-0.1-1-0.2-2.1-0.4-2.6l-0.3-0.8l-0.3,1
		c-0.2,0.8-0.3,1.2-0.1,1.9c0.3,1.7,0,4-0.5,4c-0.3,0-0.3-0.1-0.2-1.6c0.1-2.7,0.1-3-1.3-4.4c-1.9-2.1-4.5-3.5-7.2-4.1
		c-1.3-0.3-1.2-0.3-0.7,1.6l0.5,1.7l-0.8-0.2c-0.4-0.1-1.5-0.7-2.5-1.3c-1-0.6-4.1-2.3-6.9-3.7c-5.9-3-10.7-5.9-10.3-6.3
		c0.4-0.4,11.5,4.6,12.6,5.7c0.3,0.3,0.5,0.4,0.4,0.3c-0.1-0.1-0.2-0.9-0.4-1.7c-0.1-0.8-0.3-1.5-0.3-1.7c0-0.2,0.4,0.1,1.1,0.7
		c1.1,0.9,3.5,2.5,3.8,2.5c0.1,0,0.1-0.9,0.2-2.1l0-2.1l1.3,1c1.9,1.4,4,2.5,3.7,2c-0.2-0.4-0.3-4.9-0.1-5.1
		c0.1-0.1,0.9,0.5,1.8,1.2c1.9,1.4,3.4,2.2,4.8,2.6c1.3,0.4,1.3,0.4,1.1-0.8c-0.4-1.9-0.3-3.3,0.2-3.4c1.1-0.3,3,0.4,4,1.3l0.7,0.6
		l0.3-2c0.5-3.8,0.5-3.7,2.8-3.7c1.8,0,2.2-0.2,2.9-1.2c0.6-0.9,0.5-1.2-0.3-0.9c-2.2,0.8-13,1.4-17.1,1.1
		c-8.3-0.8-16.2-3.3-20.8-6.6c-3.2-2.3-4.4-2.7-6.2-2.2c-1.7,0.5-2.8,1.4-3.4,2.8l-0.3,0.8l-0.6-1.2c-0.6-1.3-1.3-3.6-1.3-4.4
		c0-0.9-1.1-0.3-2,1.2c-0.6,1-0.7,1-2-0.9c-0.9-1.3-1.5-2.8-1.6-4.3l-0.1-1h-0.7c-0.9,0-1.8,0.4-2.4,0.9l-0.4,0.4l-1.4-1.3l-1.4-1.3
		l0.1,1.2c0.1,0.7,0.3,2,0.6,3c0.5,1.7,0.5,2.2,0.2,2.2c-0.5,0-1.5-3.8-1.6-5.8c0-1.3-0.1-1.4-0.7-2.2l-0.7-0.9l-0.1,1.1
		c0,0.6,0.1,1.8,0.2,2.6c0.4,2.1,0.4,2,0,2c-0.5,0-1.1-3.1-1.1-5.7c0-1.2,0-1.6-0.3-2.2c-0.2-0.4-0.5-1.4-0.8-2.2
		c-0.7-2.6-1.4-3.6-5.1-6.9c-3.4-3-4.1-4.2-6-9.5c-1.5-4.1-1.7-4.4-3.6-5.5c-2.3-1.3-3.9-2.9-4.9-4.9c-0.7-1.3-0.7-1.3,1.2-0.9
		c2,0.4,2,0.4,0.8-1l-1.1-1.2l-1.5-0.4c-3.7-0.9-8.2-3.5-7.2-4.1c0.1,0,0.7,0.3,1.3,0.7c1.8,1.2,6.2,3.1,6.5,2.8
		c0.3-0.3-1.3-1.8-2.8-2.5c-2.2-1.1-4.8-2.9-4.8-3.3c0-0.5,0.4-0.4,1.7,0.6c1.3,0.9,3.3,2.1,3.6,2.1c0.1,0-0.1-0.5-0.4-1
		c-0.6-1-2.4-4.7-2.6-5.3c-0.1-0.2,0-0.2,0.7,0c1.7,0.5,4.6,0,5.7-0.9c0.3-0.2,0.2-0.3-1.3-0.9c-1.9-0.7-4-1.7-5.5-2.7
		c-0.6-0.4-1.7-0.9-2.5-1.2c-1.7-0.7-4-2-4.3-2.4c-0.3-0.6,0.3-0.7,1.2,0c2.9,1.9,4.7,2.4,7.6,1.8c1.7-0.3,1.7-0.3,0.9-1.5
		c-1.1-1.7-2.7-5-3-6.5c-0.1-0.4-0.1-0.5,0.6-0.5c3.5,0,5.8-1.9,6.5-5.3c2.2-11.1-1.2-17.3-11.4-20.4
		C230.1,85.5,230.3,85.5,230.3,86.3 M298.9,92.4c1.3,1.4,2.1,2.9,2.5,4.4l0.1,0.6l-0.7-0.8c-4.1-4.7-10.7-6.1-16.1-3.4l-1.2,0.6
		l0.9,0.1c1.3,0.2,2.5,0.6,3.1,1.1l0.5,0.4l-0.8-0.1c-3.8-0.5-8,0.3-13.8,2.5l-2.3,0.9l1.3,0.1c1.7,0.1,2.4,0.5,1.3,0.7
		c-1.1,0.2-2.9,1.1-5.5,2.9c-1.3,0.9-3.8,2.4-5.5,3.4c-4.3,2.6-6,3.7-7.7,5.1c-1.7,1.5-3.1,2.2-4.4,2.2c-0.5,0-0.9,0.1-0.9,0.2
		c0,0.4,2.5,3.7,4.1,5.5c1.4,1.5,1.4,1.5-0.6,1.6c-0.7,0-1.7,0.1-2.2,0.1l-1,0.1l1.4,1.4l1.4,1.4l-0.9-0.1c-0.5-0.1-0.9,0-0.9,0
		c0,0.2,2.3,3.7,3.4,5.1c1.6,2.1,1.6,2.4,0,3.6l-0.7,0.5l0.4,0.7c0.2,0.4,0.6,1.6,0.8,2.7c3.6,15.9,7.5,23.7,14,28
		c3.3,2.2,3.5-1.4,0.2-4.4c-0.5-0.5-1.6-1.5-2.4-2.3c-0.8-0.8-1.9-1.7-2.3-2.1l-0.8-0.7l1.8-0.5l1.8-0.5l-0.6-0.5
		c-0.7-0.6-2.6-1.7-3.4-2c-0.8-0.3-0.8-0.3-0.1-0.7c1.1-0.7,1-1-0.5-1.3c-0.6-0.1-1-0.3-1-0.3c0-0.1,0.1-0.6,0.2-1.3
		c0.8-3.6,0.7-3.8-2-5.3c-1.6-0.9-1.8-1-1.4-1.1c1.5-0.4,2.9-1.8,3.2-3.4c0.1-0.5,0.1-0.5-0.3-0.5c-1,0-4.1-1.5-4.1-2
		c0-0.1,0.3-0.3,0.6-0.4c1.5-0.8,2.5-2.4,2.8-4.6c0.3-2.3-0.4-8-1.2-9.2l-0.3-0.5l1.4-0.5c0.7-0.3,1.7-0.6,2-0.7
		c0.8-0.3,1.1-0.5,0.6-0.5c-0.7,0-2.4-0.5-3.6-1.1l-1.2-0.6l1.1-0.2c4.4-0.9,8.3-2.9,11.5-5.9c1.2-1.1,1.4-1.4,0.7-1.1
		c-0.6,0.2-2.8,0.2-3.4,0c-0.4-0.1-0.3-0.2,0.5-0.3c1.3-0.2,2.9-0.7,5.7-2c3.5-1.6,4.4-1.8,6.3-1.8l1.5,0v-0.4c0-0.6-0.4-1.5-1-2.2
		l-0.5-0.6l0.7-0.2c4-1.1,10.3,0.1,14.1,2.8c1.4,0.9,1.4,0.9,0.4-1.1c-0.5-0.9-0.8-1.8-0.7-1.8c0.5-0.2,3.7,1.9,5.2,3.5
		c3.2,3.2,3.9,5.2,5.8,16.4c0.3,1.9,0.9,1.8,2.1-0.4c0.9-1.7,0.8-1.7,2.2,0c1.3,1.6,1.5,1.7,1.2,0.8c-0.4-1.1-0.7-3.2-1.1-6.6
		c-0.4-4-0.8-5.8-1.6-7.6l-0.6-1.3l0.6,0.3c0.8,0.4,1.5,1.2,2,2.1c0.5,0.9,0.5,0.3,0-2c-1.4-7-5.5-12.6-11.2-15.2
		C298.1,91.3,298,91.3,298.9,92.4 M325.5,91.9c-2.5,0.7-4.3,2.2-5.6,4.7c-1.6,3.2-3.5,6.3-3.8,6.3c-0.1,0-0.6-0.6-1.2-1.3
		c-1.2-1.7-1.2-1.6-0.5,0.8c0.7,2.5,1.2,5.1,1.3,7.3c0.1,2.2-1,10.8-1.6,11.9c-0.2,0.4,0,0.4,0.4-0.2c0.2-0.3,0.8-0.8,1.4-1.2
		c1.3-1,1.7-1.6,1.7-2.5v-0.7l0.4,0.4c0.7,0.6,1,1.6,1.2,3.3c0.1,0.8,0.2,1.6,0.2,1.6c0.3,0.3,0.9-1,0.9-2.1l0-0.6l1.1,1.1
		c1.3,1.2,2.4,1.8,2.4,1.3c0-0.4-1.8-4.9-2.7-6.8c-0.8-1.6-1.1-2.5-1.3-3.9c-0.2-1-0.4-2-0.5-2.2c-0.4-1,1.3,0.4,1.8,1.4
		c0.4,0.9,0.6,0.7,0.7-1c0.4-3.5,1.9-6.2,3.6-6.9c0.6-0.2,0.6-0.2,0.1,0.6c-0.7,1.2-1.7,4.5-1.2,4.5c0.1,0,0.2-0.1,0.2-0.2
		c0-0.9,3.2-3.1,5.3-3.6c1.5-0.4,6-0.2,5.5,0.2c-0.8,0.6-2.2,1.1-3.6,1.2l-1.4,0.1l0.7,0.3c0.6,0.3,1.1,0.3,4.9,0.3
		c3.5,0,4.4,0.1,4.9,0.3l0.7,0.3l-0.5,0.1c-1,0.2-1.7,0.5-2.5,0.9l-0.8,0.4l0.9,0.4c1,0.5,3.2,1.9,5.9,3.9c2.3,1.7,3.4,2.2,6.7,3.3
		c2.8,0.9,3,1,1.2,0.9c-1.2-0.1-1.7,0-1,0.3c0.1,0.1,0.8,0.8,1.5,1.6c0.9,1,1.9,2,3.2,3c1.9,1.5,2.6,2,3.1,2.9
		c0.3,0.5,0.2,0.6-0.4,0.2c-0.5-0.4-2.7-1.3-2.8-1.2c-0.1,0.1,0.1,0.2,0.2,0.3c0.7,0.5,2.2,3.3,2,3.6c0,0-0.3-0.1-0.5-0.3
		c-0.7-0.5-0.9-0.5-0.7,0.2c0.3,1,0,3.8-0.3,3c-0.1-0.2-0.3-0.8-0.5-1.3c-0.7-1.8-2.9-4.8-3.5-4.8c-0.7,0-0.6,0.5,0.4,1.7
		c1.7,2,3,5.1,3,6.9c0,0.7,0,0.7-0.6-0.6c-1.5-3.4-5.2-7.3-5.7-6c-0.1,0.2,0.3,0.6,1.3,1.6c2.4,2.3,4.2,5.6,4.1,7.6
		c-0.2,3.3-0.1,4,0.4,5l0.5,0.9l-1.2-0.1c-1.9-0.1-3.2,1-1.6,1.2l0.9,0.1l-0.5,0.7c-0.7,0.9-2.1,1.7-3.5,1.8c-0.6,0.1-2,0.3-3.2,0.5
		c-2.8,0.5-5.4,0.7-7.7,0.4c-2.6-0.3-3.1-0.3-3.1,0.1c0,0.2,0.1,0.4,0.3,0.4c2.3,0.7,7.3,0.7,10.4,0.1c3.1-0.7,2.8-0.7,4.1,0.7
		l1.2,1.3l-1.8,0.4c-6.6,1.4-8.9,1.3-11-0.4c-0.6-0.5-1.1-0.5-1.2,0c0,0.3,0.2,0.5,0.8,1c1.9,1.4,4.3,1.7,8,1.1
		c1.1-0.2,2.1-0.4,2.2-0.4c0.4,0-1.6,3.2-2.4,4c-1.5,1.4-3.9,1.8-5.3,0.8c-1.1-0.8-2.3-1.7-2.3-1.9c0-0.1,0.9-0.1,2-0.1
		c1.1,0,1.9,0,1.7,0c-0.2-0.1-0.9-0.3-1.6-0.6c-1.7-0.6-3.6-1.8-5.1-3.2c-0.7-0.7-1.2-1-1.1-0.8c0.4,1.4,1.5,5.5,1.5,6.1l0.1,0.8
		H336c-1,0-1,0-0.2,1c1.5,2.1,1.8,2.9,2,5.4c0.2,2.9,0.2,2.9,3.1,1.5c3.6-1.8,6.3-3.9,8-6.5c2.1-3.2,5.2-4.7,8.2-4
		c0.3,0.1,0-0.2-1-0.8l-1.5-1l0.7-0.1c0.4-0.1,1.2-0.1,1.7-0.1c0.5,0,1.2-0.1,1.6-0.1l0.7-0.1l-0.8-0.5c-1.1-0.7-2.9-2.5-3.6-3.8
		l-0.6-1.1l0.7-0.1c0.4-0.1,1.9-0.2,3.4-0.3c1.5-0.1,3.1-0.2,3.7-0.3l1-0.1l-1.4-0.9c-2.1-1.3-3.1-2.5-3.4-4.2c-0.2-0.9,0-1,1-0.8
		c0.5,0.1,1.2,0.3,1.6,0.3l0.8,0.1l-0.6-0.7c-1.1-1.2-1.3-3-0.9-5.4c0.3-1.4,0-1.3,2.3-1.1c2.4,0.2,2.3,0.2,1.4-0.9
		c-1.2-1.4-1.2-2.1,0.1-2.9c0.4-0.3,0.6-0.5,0.6-0.6c-0.1-0.1-0.2-0.4-0.4-0.6l-0.3-0.4l1.1,0.2c0.6,0.1,1.5,0.2,2,0.2l0.9,0
		l-0.8-0.6c-1.1-0.8-1.6-1.5-2.6-3.6c-0.4-1-1-2.1-1.2-2.4l-0.4-0.5l0.8,0.1c0.9,0.2,2.9-0.1,4.5-0.5l1.1-0.3l-0.5-0.2
		c-0.3-0.1-0.7-0.3-1-0.4c-0.9-0.4-2.2-1.3-3.6-2.5c-0.8-0.7-2.4-1.9-3.6-2.8c-2.4-1.7-5-3.5-8.5-6.2c-2.8-2.2-4.9-3.7-6.8-4.8
		l-1.4-0.9l1-0.1c1-0.1,2.3-0.6,2.5-0.9c0.2-0.3-5.5-1.8-11-3l-3-0.6l0.9-0.3c1.2-0.3,3-0.6,4.3-0.6c1.3,0,1-0.3-1.1-0.8
		c-3.8-1-9-0.4-12.4,1.4c-0.6,0.3-1,0.5-1,0.5c0-0.1,1.2-2.3,2.9-5.3C327,91.6,326.5,91.6,325.5,91.9 M290.5,110.2
		c0,0.1,0.4,0.5,0.8,1l0.8,0.8l-0.5-0.1c-1.1-0.3-4.3-0.1-5.7,0.3c-1.7,0.5-1.8,0.6-0.4,0.6c1.3,0,2.7,0.5,3.6,1.1l0.5,0.4l-1.5,0.2
		c-2.7,0.4-8.9,2.1-9.1,2.5c-0.4,0.6,3.4,0.8,6.9,0.4c5.8-0.7,8.3,0.4,9.7,3.8c1.3,3.4,3.7,3.6,5.2,0.5c2.5-5.1-1.5-10.1-9.1-11.5
		C290.9,110.1,290.5,110.1,290.5,110.2 M330.7,111.2c-3.3,1-5.2,5.1-4.3,9.1c0.9,4.1,4.9,5.2,5.6,1.4c0.7-3.8,2.9-5.1,7.1-4.4
		c0.8,0.1,1.4,0.2,1.5,0.2c0.1-0.1-0.7-1-1.6-1.6l-1-0.7l1.1-0.1c0.7-0.1,1.8,0,2.7,0.1c3.2,0.4,3.2,0.4,0.9-0.4
		c-4.7-1.7-5.2-1.8-9.4-2l-1.1,0l0.6-0.6c0.3-0.3,0.9-0.7,1.3-0.9c0.4-0.2,0.7-0.3,0.7-0.4C334.8,110.9,331.3,111,330.7,111.2
		 M336.6,120.6c-0.6,0.3-1,0.8-0.6,0.9c0.5,0.1,0.4,0.7,0,1c-0.5,0.3-0.7,0.3-1.1-0.1c-0.5-0.6-1.9,0.3-1.9,1.3
		c0,1.5,3.8,1.4,4.9-0.1C338.9,122.3,337.9,120.1,336.6,120.6 M289,121.3c0,1.3,1.6,3.3,2.8,3.6c2.4,0.5,3.7-0.5,2.9-2.2
		c-0.6-1.3-1.8-1.7-2-0.8c-0.1,0.5-0.4,0.7-1,0.7c-0.8,0-1.2-0.5-1.1-1.2c0.1-0.4,0.1-0.4-0.7-0.4C289.1,121,289,121,289,121.3
		 M317.3,122.3c-0.1,0.9-1.7,4-2.4,4.9c-1.3,1.4-2.7,1-5.3-1.5c-1.6-1.5-1.6-1.5-1.5-1c0.1,1.3-0.5,1.7-3.1,2
		c-4.5,0.6-4.5,0.6-3.5,2c0.4,0.6,0.8,1.2,0.8,1.3c0,0.5-3.1,2-5,2.5l-1.3,0.3l1.8,1.2c2.3,1.6,2.3,1.7,0.9,3
		c-1.8,1.7-3.3,2.3-6.3,2.4c-1.9,0.1-1.9,0.1-1.9,0.5v0.4l1.9,0c1.8,0,2.9-0.2,4.6-0.8c0.2-0.1,0.3,0,0.3,0.1c0,0.3,0.5,0.7,1,0.9
		c0.8,0.2,0.9,0.5,0.4,1.3c-1,1.7-7.6,2.5-11.9,1.5c-1.9-0.5-2.1-0.5-2,0.1c0.2,1.3,7.4,1.8,11.4,0.8c1.8-0.5,2.2-0.5,1.2,0
		c-3.6,1.5-8.2,2.3-11.9,1.9c-1.4-0.1-1.9-0.1-2.1,0c-2.1,1.7,8.1,1.3,13.1-0.5l1.4-0.5l-0.1,0.8c-0.3,1.9-1,4.9-1.5,6.8
		c-1.5,5-1.8,6.9-1.1,6.7c0.7-0.2,1.2-0.3,1.2-0.2c0,0.1-0.6,1.4-1.3,3.1c-1.7,3.9-1.7,3.7-0.9,3.4c0.9-0.4,1-0.3,0.2,0.7
		c-1.8,2.4-2.3,7.5-0.7,7.5c0.2,0,0.3,0.1,0.3,0.2c0,0.5-0.6,3.4-0.9,4.6c-0.1,0.2,0.1,0.2,1,0.2c0.8,0,1.3,0,2,0.3
		c1.5,0.5,1.5,0.6,0.2,2.2c-1.2,1.5-1.2,1.6-0.8,1.4c0.4-0.1,4.9-1,5.9-1.2l0.8-0.1l-0.4,0.6c-1.6,2.1-1.4,2.4,1.1,1.6
		c2-0.7,2.1-0.7,5.1-0.8c5.3-0.2,5.8-0.7,6-5.2c0.1-3.6,0.7-3.5,1,0.1c0.4,4.3,2.1,5.7,8.4,6.9c1.3,0.2,2.6,0.5,2.8,0.6
		c1.2,0.5,1-0.1-0.4-1.5c-0.5-0.5-0.8-0.9-0.6-0.9c0.7,0,5.7,1.4,7.3,2.1c0.3,0.1,0.3,0.1,0.2-1.3l-0.1-1.4l0.8,0.6
		c0.9,0.7,0.9,0.7,1.5-0.7c0.4-1,0.4-2.3,0.1-4.2c-0.4-2.6,1.1-4.6,2.5-3.2c0.3,0.3,0.3,0.3,0.3-1c-0.2-5-0.5-6.3-2.7-11.7
		c-0.6-1.5-1-2.7-0.9-2.7c0.1,0.1,0.7,0.4,1.3,0.9c1.5,1,1.3,0.2-0.6-2.2c-0.6-0.7-1.2-1.6-1.4-2c-0.4-0.7-1.6-3.8-1.5-3.8
		c0,0,0.4,0.2,0.8,0.5c0.7,0.4,2.4,1.2,2.8,1.2c0.1,0,0-0.4-0.3-0.9c-0.8-1.5-1.2-2.9-2.3-7.2c-0.6-2.3-1.1-4.2-1.2-4.3
		c-0.1-0.1,0.3,0.1,0.8,0.4c3.2,1.9,6.7,2.8,9.7,2.4c2.6-0.3,2.2-1.2-0.4-1c-4.3,0.3-10-2.1-11.3-4.6c-0.2-0.5-0.7-1.2-1-1.7
		l-0.6-0.8l0.6,0.2c0.3,0.1,0.7,0.2,0.9,0.2c0.2,0,0.8,0.3,1.5,0.8c3.3,2.2,8.5,3.8,8.7,2.6c0.1-0.4-0.1-0.5-1.3-0.6
		c-2.3-0.4-7.9-2.9-6.4-2.9c0.1,0,0.6,0.2,1.1,0.4c3.7,1.7,10.1,2.1,9.6,0.7c-0.1-0.2-0.3-0.3-1.3-0.2c-4.8,0.4-8.7-1.2-12.6-5.2
		c-2.7-2.9-2.8-3-2-3.5c1.1-0.6,1.4-1,1.1-1.3c-0.7-0.5-3-1.1-4.7-1.2l-1.7-0.1l0.1-0.5c0.1-0.3,0.3-0.8,0.4-1.2
		c0.2-0.4,0.3-0.7,0.2-0.7c0,0-1,0.4-2,1l-2,1l0-0.9c0-1-0.4-2.3-0.9-2.9l-0.3-0.4L317.3,122.3 M366.4,121.7c-0.3,0.3-0.1,2,0.2,2.6
		c1.8,3.2,2,3.8,1.1,4.8c-0.7,0.8-0.9,0.8-1.6,0.3c-0.6-0.4-0.6-0.4-0.8,0.9c-0.1,1-0.1,1.1,0.7,2.5c0.9,1.7,0.9,1.9-0.3,2.5
		c-1.3,0.7-3,0.3-4-0.9l-0.5-0.5v0.8c0,1.1,0.3,1.9,1.4,3.6c0.5,0.8,1.1,1.7,1.3,2.1l0.3,0.7l-1.6,0l-1.6,0l1.6,1.5
		c0.9,0.8,1.6,1.7,1.6,1.8c0,1.2-4.1,3.2-5.7,2.9c-0.6-0.1-0.5,0.1,0.4,0.6c1.1,0.7,2.2,1.7,2.8,2.7l0.6,0.8l-0.4,0.3
		c-0.4,0.4-2.1,0.9-2.4,0.7c-0.3-0.1-0.3,0.1,0.1,0.5c1.2,1.3,0.8,1.7-3,2.4c-3.7,0.7-4.5,1.2-6.8,4.1c-2.6,3.3-5.9,5.7-9.5,6.9
		c-1.5,0.5-3,2-2.6,2.4c0.4,0.4,4.1-0.8,6.9-2.3c0.9-0.4,2.5-1.2,3.5-1.7c3.6-1.6,6-3.2,6-4c0-0.3,0.4-0.4,2-0.9
		c2.6-0.8,3.1-1.1,4.7-2.6c0.8-0.7,1.9-1.8,2.4-2.3c2-1.8,2.8-4.4,1.7-5.5c-0.5-0.5-0.5-0.8,0-0.8c0.3,0,1.4-1.1,1.7-1.8
		c0.6-1.2,0.8-2.3,0.8-4.9c0-1.3,0.1-3.1,0.2-3.9c0.1-0.9,0.2-2.7,0.3-4.1c0.1-2.5,0.3-3.3,1-4.5c0.9-1.5,0.3-4.1-1.4-6
		c-0.5-0.6-0.9-1.2-1.1-1.5C366.6,121.8,366.5,121.7,366.4,121.7 M313,134.9c0.8,1.7,1.6,6.7,1.4,8.7c-0.5,3.9,0.9,6,4.6,6.9
		c5.1,1.3,8.2,4,9.5,8.2c1,3.2-0.2,8.4-2.3,10.5c-1,1-1.4,1.6-1.4,2.3c0,0.4-0.1,0.4-0.3,0.3c-1.9-0.8-4.7-1.2-4.5-0.6
		c0.6,1.5,0.5,1.9-0.4,1.1c-0.5-0.4-0.7-0.5-0.7-0.3c0,1.5-1.4,1.9-4.3,1.2c-2.2-0.5-2.9-0.2-3.4,1.5c-0.3,1-1,2-1.8,2.8l-0.5,0.5
		l0.4-0.7c0.8-1.3,0.9-2.6,0.3-3.5l-0.3-0.4l-0.5,0.5c-0.5,0.4-1.1,0.9-1.3,0.9c0,0,0-0.4,0.2-0.9c0.5-1.9,0.2-2.1-2.3-2.1h-1.8
		l0.1-0.7c0.1-0.6,0.1-0.7-0.7-0.8c-0.5-0.1-1-0.5-1.9-1.3c-1.5-1.4-2-1.7-3.2-1.7l-1,0l0.6-0.5c0.3-0.3,0.9-0.6,1.3-0.8
		c0.4-0.1,0.7-0.3,0.7-0.3c0-0.4-0.7-1.2-1.2-1.5c-0.7-0.3-0.7-0.5-0.1-1.2c0.5-0.6,0.5-0.6,0.5-2.3c0-3.2,0.6-4.8,2.5-7.4
		c1.9-2.5,3.2-4.5,3.2-4.7c0-0.5-2,0-3.3,0.9c-0.5,0.3-0.9,0.6-1,0.7c-0.2,0.1,0.1-0.5,0.6-1.2c0.6-0.9,1.8-1.8,3.8-3
		c2.8-1.6,4.8-3.1,4.8-3.8c0-0.3-1.9-0.1-3.1,0.3c-1.2,0.4-1.1,0.2,1-1.8c1.9-1.8,2.8-3,3-4.2l0.1-0.7l-0.6,0.5
		c-0.6,0.5-1.1,0.8-2.1,0.9c-1.1,0.2-1.2,0-0.1-0.6c1.2-0.7,2.6-1.7,3.6-2.7l0.7-0.7l0.3,0.4C312.4,133.7,312.7,134.3,313,134.9
		 M201.6,142.6c-0.7,0.1-1.8,0.4-2.4,0.6c-0.6,0.2-1.8,0.5-2.7,0.7c-6.2,1.3-12,5.5-14.5,10.5c-0.6,1.1-0.6,1.1,1.2,0.5
		c3.5-1.2,7.3-2,11.1-2.1l2.4-0.1l-1,0.9c-3.1,2.7-5.9,6.2-7.5,9.6c-0.5,0.9-1.7,4-1.7,4.2c0,0.1,0.5-0.4,1.1-0.9
		c1.2-1.1,3.1-2.1,4.5-2.5c0.9-0.2,3-0.4,3-0.3c0,0-0.4,0.9-0.9,2c-1.6,3.4-3.7,9.4-4,11.8l-0.1,0.8l1.2-0.4
		c1.7-0.6,3.3-0.7,3.1-0.3c-1.5,4-2.3,11.5-1.6,16.4c0.3,1.9,0.3,2.1,0.8,1.3c0.6-1.1,1.5-2,2.7-2.8c1.3-0.9,1.4-0.9,1.1,0.9
		c-0.7,4.8-2.8,9.7-5.9,13.5c-1.2,1.5-1.3,2-0.7,2c1.6,0,5.9-7.9,7.1-12.9l0.4-1.8l-0.1,2.2c-0.2,5.4-1.3,11-3.2,15.6
		c-0.3,0.8-0.6,1.5-0.6,1.6c0,0.3,5-0.7,6.6-1.3c0.5-0.2,0.9-0.3,0.9-0.3c0,0,0.1,3,0.2,6.6c0.1,8.8,0.2,9.8,0.7,9.9
		c1.1,0.2,2-0.5,3.5-2.9c1.6-2.5,2.8-3.4,4.1-3.1l0.5,0.1l0.3-1.5c0.5-2.5,1.2-4.7,1.6-4.7c0.4,0,0.4,0.3,0,1.6
		c-1.1,3.2-1.3,4.8-0.7,5.6c0.3,0.4,0.5,0.6,0.6,0.4c0.8-2.8,1.9-5.2,2.2-5.3c0.5-0.1,0.4,0.5-0.2,1.8c-0.3,0.7-0.8,2.1-1.1,3
		L213,225l0.4,1.6c0.3,1.4,0.4,1.6,0.7,1.5c2.4-0.8,5.5,0.2,7.6,2.5l0.8,0.9l-0.1,2.1c-0.2,4-1.9,10-3,10.4c-0.4,0.1-0.3,0.7,0,0.9
		c1.2,0.7,3.4-5.1,4-10.4l0.1-1.2l0.4,1.2c0.8,2.4,0.9,5.7,0.4,9.5c-0.3,2.1-0.3,2.1,1.9-0.5c2.2-2.6,2.5-3.3,2.8-5.9
		c0.3-2.6,0.4-2.8,0.6-2.8c0.3,0,0.4,1,0.1,2.7c-0.1,0.7-0.2,1.6-0.2,2c-0.1,2.2-2.8,6.7-5.8,9.7c-1.4,1.4-1.5,1.6-1.3,1.8
		c1.2,1.2,6.5-6,8-10.7c0.4-1.3,0.6-1.5,1.2-1l0.4,0.3l-0.4,1.6c-1.2,4.8-4.3,10.1-8.9,15.3c-1.3,1.4-1.5,1.9-1,2.1
		c0.4,0.1,1-0.5,3.2-3.1c3.7-4.4,6.4-9.2,7.6-13.5c0.2-0.8,0.4-1.3,0.4-1.2c0.4,1.1,0.4-0.9,0.2-5.9c0-0.8,0.3-1,0.5-0.4
		c0.4,1,0.6,4.2,0.4,6l-0.2,1.8l1.2,2.3c2.7,5.4,4.8,5.8,8.6,1.6c2.9-3.2,6.7-8.2,7.6-10l0.5-0.9l0.6,0.6c0.8,0.9,1.5,2.5,1.8,3.7
		c0.2,1.3,0.2,1.3,1.4-0.3c3.4-4.5,6-10.5,6.6-15.4c0.1-0.5,0.1-0.9,0.2-0.9c0.6,0,3.1,2.1,3.7,3.1c0.5,0.8,0.5,0.8,1.4-2.9
		c1.1-4.1,0.8-7.5-1.1-13c-0.7-2.2-0.7-2.2,0.5-0.3c2.4,3.6,3.6,7.3,3.6,11c0,1.2,0.1,1.5,0.3,1.6c1.4,0.5,0.8-5.5-1-9.4
		c-1.8-4-7.9-11.5-9.4-11.5c-0.2,0-0.7-0.2-1.1-0.4l-0.8-0.4l0,2.6l0,2.6l-0.6-1.6c-1-2.5-2.5-4.8-3-4.8c-0.6,0-0.5,0.5,0.3,1.7
		c2.9,4.4,3.3,7.2,1.6,11.2l-0.3,0.7l-0.1-1.5c-0.2-3-1.3-6.2-3.1-9.4c-1.8-3.2-6.1-8.5-6.7-8.4c-0.6,0.1-0.5,0.6,0.6,1.8
		c5.4,6,8.3,12.1,8.3,17.1c0,0.8,0,0.8-0.4-0.6c-1.1-3.9-4.4-9.2-8.6-14.1c-1.9-2.2-1.8-2.1-1.5-1.1c0.7,2.4,1.1,7.6,0.5,7.6
		c-0.3,0-0.3-0.1-0.4-2c-0.3-4.6-1.3-8.2-2.3-7.8c-0.1,0-1,2-1.9,4.4l-1.6,4.4l-0.4-0.8c-1.1-2.5-1.6-7-1-10
		c0.3-1.5,0.2-1.8-0.3-1.7c-0.8,0.1-1.2,6.6-0.5,9.1c0.3,1.4,0.3,1.3-0.5-0.3c-1.2-2.3-1.6-7.4-0.9-11.7c0.3-2,0.3-2.3-0.2-2.3
		c-0.6,0-1,2.6-1,6.2c0,2.5-0.1,2.5-0.6,0.1c-1.1-5.2-0.9-8.4,0.6-10.4c0.5-0.6,0.5-0.8,0.2-1.1c-0.8-0.6-2.6,3-2.6,5.1
		c0,0.5-0.1,0.5-0.8,0.7c-2.5,0.7-5.3,3.6-5.6,6c-0.3,2-0.8-1.7-0.7-5.3c0.1-3.9,0.9-6.4,2.5-8.6c0.7-0.9,0.7-1.3,0.2-1.4
		c-1.2-0.2-3.6,5.6-3.7,9l0,0.9l-0.1-0.9c-0.3-2-0.2-5.6,0.3-8.3l0.1-0.7H223c-0.9,0-2.5,0.5-3.4,1c-0.4,0.3-0.7,0.4-0.7,0.3
		c1.4-2.3,4.1-4.9,6.2-5.8c0.9-0.4,0.6-1.2-0.4-0.9c-2.8,0.7-7.1,5.7-8.2,9.7c-0.5,1.7-0.6,1.4-0.5-1.1c0.2-3.1,0.5-4.8,1.7-7.2
		c1.9-4.2,2-5.7,0.2-10.3c-1-2.6-3.5-4.5-7.6-6c-0.3-0.1-0.4-0.5-0.1-0.7c0.4-0.2,3.9,1.4,5.7,2.7l0.4,0.3l-0.3-0.5
		c-0.5-1-3.5-3.1-6.4-4.5c-1.9-0.9-2-1-1.7-1.4c0.2-0.3,2.7,0.9,4.9,2.3c0.9,0.6,1.7,1,1.7,1c0.4,0-3.8-6-5.3-7.5l-1.4-1.5l0.9,0.5
		c3.1,1.6,5.9,4.4,7.2,7.4c0.4,1,0.6,1.2,1,1c0.4-0.2,0.3-0.6-0.3-1.8c-2.3-4.6-6.1-7.6-11.3-9c-1.1-0.3-2.4-0.6-3-0.8
		c-1.4-0.4-1-0.5,2-0.6c2.7-0.1,4.9,0.2,7.1,1c2,0.7,2.3,0.7,2.4,0.4C214.5,143.2,206.1,141.8,201.6,142.6 M150.9,147.7
		c-2.3,3.4-6,5.9-9.9,6.6c-0.8,0.1-1.6,0.3-1.8,0.3c-0.8,0.1-0.4,0.8,0.5,0.9c3.6,0.2,9.6-3.3,12.1-7.2
		C153,146.3,152.2,145.8,150.9,147.7 M154.9,147.3c-0.1,0.1-0.3,0.7-0.5,1.3c-1.5,4.3-5,8.2-9.3,10.2c-2,0.9-2,2,0,1.1
		c4.9-2.1,9.7-7.5,10.6-12C155.8,147.3,155.3,146.9,154.9,147.3 M313.7,153.2c-8.1,0.5-11.3,2.9-11.7,8.8c-0.3,4,1.1,6.3,4.1,6.5
		c2.6,0.2,4.4-1.1,2.3-1.6c-2.4-0.6-1.7-4.3,0.9-4.3c2.3,0,3.6,1.7,3.8,5.2c0.2,3.3,0.5,4.4,1.4,4.4h0.4l-0.1-1.6
		c-0.2-2.6,0.3-3,0.6-0.5c0.2,1.4,0.5,2.1,0.9,2.1c0.5,0,0.6-0.6,0.5-3.3c-0.1-3.8,0.3-5,2.3-5.9c2.9-1.5,4.6,1.2,2.1,3.5
		c-1.1,1-0.9,1.5,0.6,1.9c2,0.5,4.8-2,4.8-4.3c0-4.6-4.8-6.7-13.6-5.9c-2.9,0.3-4.8,0.3-5.4,0l-0.5-0.2l0.6-0.6
		c2.4-2.5,8.9-3.1,15.4-1.5c1.9,0.5,1.9,0.5,1.4-0.4C323.1,153.7,319.6,152.9,313.7,153.2 M46,166.7c-3.6,7.2-9.5,13.3-17.1,17.8
		l-1.7,1l1.7,0.1c3.1,0.2,3.6,1.2,2.2,4.1c-1,2.1-1.3,3-2.5,8.3c-2.5,11.2-3.7,17.6-5.6,30.9c-1.3,9-2.8,13-6.5,17.7
		c-0.8,1-0.8,1-0.4,1.2c0.7,0.4,2.7,0.4,3.5,0c0.4-0.2,0.8-0.4,0.9-0.4c0.8,0-0.7,6.6-2,9.3c-0.3,0.6-0.6,1.2-0.6,1.3
		c0,0,0.5,0.1,1.1,0.1c2.2,0,2.6,0.5,2.9,3.3c0.1,0.9,0.5,3.6,0.8,6.1c1.3,9.2,1.2,13-0.5,17.9c-0.6,1.7-0.6,1.8,0.5,0.9
		c0.5-0.4,1.8-1.3,3-2.1l2.1-1.5l-0.1,1.1c-0.2,1.8-0.7,4-1.4,6.3c-0.4,1.1-0.7,2.1-0.7,2.2c0,0,0.3,0.1,0.7,0.2
		c1.6,0.2,3.1,1.8,4.1,4.4c0.5,1.2,0.5,1.3,0.6,0.7c0.2-1.3,0.5-6.4,0.4-8.2c-0.1-2,0-2.4,0.5-2c0.4,0.3,0.2,7.6-0.2,10.6
		c-0.3,2-0.3,2.1,0.1,4.1c0.3,2,0.6,4.5,0.8,7.8l0.1,1.7l0.4-1.5c0.6-2.5,0.9-4.5,1-7c0.1-2.5,0.2-2.8,0.6-2.7
		c0.8,0.3-0.3,8.2-1.7,12.6c-0.4,1.2-0.4,1.6-0.4,3.9c0,15.6-3.6,29.3-9.5,36.6c-0.5,0.6-0.8,1.1-0.8,1.1c0,0,1.2,0.1,2.7,0.1h2.7
		l0,0.7c0,0.4-0.3,1.5-0.7,2.6c-1.8,5.1-2.1,6.6-1.9,9.1c0.2,2,0.3,2.1,0.8,1.3c0.6-0.9,1.5-1.9,2.3-2.5l0.6-0.5l-0.1,1.2
		c-0.1,1.5,0.2,3.7,0.7,5.4c0.3,1.2,0.6,1.7,0.6,1c0-0.4,2.1-7.8,3.7-12.8c5-15.5,6-18,10.1-23c1.3-1.6,2.5-3.2,2.7-3.5l0.4-0.7
		l0.3,4.8c0.2,2.7,0.3,5.1,0.3,5.5c0,0.9,0.1,0.7,0.4-0.8c0.7-3.3,2.1-5.7,6.7-11.7c2.3-2.9,3.3-4.4,4.1-5.8
		c0.5-0.8,0.5-0.8,0.4-0.3c-0.6,3.4-0.8,4.4-1,6.2c-0.3,2.4-0.6,8.1-0.4,8.5c0.2,0.4,5.7-5.4,8.1-8.5c1.4-1.8,2.7-6.1,3.1-9.6
		c0.1-1.1,0.4-1.6,0.8-1.3c0.2,0.2-0.2,3.2-0.8,5.5c-0.5,2-0.5,2,0.9,0c0.6-0.9,1.2-1.8,1.3-1.9c0.4-0.4,2.6-7.8,2.6-8.7
		c0-0.4,0.5-0.6,0.7-0.3c0.2,0.2-1,5-2,8l-0.8,2.3l0.7,1.3c1.3,2.4,3.3,5.3,4.6,6.5l0.5,0.5l-0.1-0.6c-0.1-0.3-0.1-2.3-0.1-4.4
		c0-3.9,0.1-5.1,0.9-8.2l0.3-1.2l0.2,1.4c0.4,2.4,1.3,4.6,2.7,6.2l0.5,0.6l-0.1-0.6c-0.8-4.8-0.1-8.8,2.8-14.6
		c2.8-5.7,15-23.3,26.4-38c1.7-2.3,2-2.6,1.3-2.3c-0.3,0.2-2.8,0.5-3.5,0.5c-0.3,0-0.4,0-0.2-0.5c0.7-2.4,1-8.4,0.5-8.8
		c-0.7-0.4-0.7-0.2-0.8,2.5c0,2.5-0.1,3.6-0.7,5.9c-0.2,0.8-0.4,1.2-0.5,1.2c-0.2,0-0.6,0.8-1.1,1.8c-1.1,2.5-2.4,4.4-2.8,4.4
		c-0.5,0-0.4-0.4,0.4-1.6c0.8-1.3,2.2-3.9,2-3.9c-0.1,0-0.3,0.2-0.5,0.3c-0.4,0.3-0.4,0.3,0.1-1.2c1-3.4,1.6-10.4,0.9-10.9
		c-0.6-0.5-0.8-0.2-0.8,2.3c0,3.7-0.6,6.8-1.8,10.3c-0.6,1.6-0.8,1.9-3.1,5.4c-1.7,2.5-3.5,5.9-4.5,8.7c-0.7,1.9-0.6,1.9-1-0.3
		l-0.2-1.1l-0.9,1.8c-1.1,2.2-2,4.4-2.9,7.2c-0.6,1.9-0.8,2.2-1,2.2c-0.8,0,1.7-7.2,3.9-11.1c0.6-1.1,0.8-2,0.4-2.1
		c-0.2,0-1.8,3.1-2.4,4.7c-0.5,1.3-0.7,1.6-1.1,1.3c-0.2-0.2,1.1-3.4,2.4-5.7c0.6-1,1-1.9,1-2.1c0-0.2,0.7-1.6,1.5-3.1
		c4.9-9.3,5.6-11.5,5.6-18.5c0-3.9-0.1-4.7-0.6-4.7c-0.5,0-0.6,0.4-0.4,1.7c0.5,3.4-0.1,8.8-1.3,12.5c-0.9,2.7-5.2,11.1-5.2,10.2
		c0-1-0.3-0.9-1.3,0.9c-1.8,3.1-3.7,7.1-4.9,10.2l-0.5,1.2l-1-3.3c-0.8-2.7-1.3-3.8-1.3-2.9c0,0.1-0.4,1.2-0.9,2.4l-0.9,2.2l0,2.7
		c-0.1,3.7-0.6,6.6-1.3,6c-0.1-0.1-0.1-0.5,0.1-1.6c0.2-0.8,0.3-2.3,0.4-3.5l0.1-2.1l-0.4,0.6c-0.2,0.3-0.5,1.2-0.7,2.2
		c-0.6,3-2.5,7.7-3.3,8.3c-0.5,0.3-0.7-0.1-0.3-0.8c1.2-1.9,2.4-5.1,2.9-7.2c0.3-1.3-1.1-6.2-3.3-11.9c-0.9-2.5-0.9-3.6,0.3-8.8
		c0.2-0.9,0.3-1.7,0.3-1.8c-0.2-0.4-0.8-0.2-1,0.4c-0.5,2-1.3,6.8-1.6,9.8c-0.1,1.3-3.2,10.9-3.2,10c-0.1-1.8,3.2-20.4,4.6-26.1
		c0.3-1.1,0.2-1.4-0.3-1.4c-0.3,0-0.4,0.1-0.7,1.5c-1.8,7.6-3.9,20.5-5,29.8c-0.2,2.1-0.5,3.7-0.9,5.1l-0.6,2l0.1-4.7
		c0.2-10,0.8-18.7,1.8-27c0.4-3.4,0.4-3.4-0.6-1.3c-1.4,2.8-2.3,5.5-2.5,8.3c-0.1,1.2-0.1,1.3-0.5,1.4c-1.4,0.2,0.9-7.7,3.5-12.1
		c0.7-1.2,1.6-4.4,1.2-4.7c-0.3-0.3-4.7,7.5-5.9,10.4c-0.4,1-0.6,1.4-0.9,1.4c-1.1,0,3-8.2,6.2-12.3c0.7-0.9,1.6-3.6,1.2-4
		c0,0-1.4,1.1-3.1,2.4c-1.7,1.4-3,2.5-3,2.4s1.1-2.5,2.4-5.5c1.3-3,2.7-6.2,3.1-7.1c0.4-0.9,0.7-1.7,0.8-1.8
		c0.1-0.1-0.8,0.6-1.8,1.6c-3.3,2.9-8,6.2-8.5,5.9c-0.5-0.2-0.2-0.5,1.3-1.4c3.6-2.2,9.2-7,10.2-8.8c0.9-1.6,0.7-1.7-0.6-0.2
		c-2.8,3-8.9,6.7-8.9,5.4c0-0.1,0.7-0.6,1.5-1c3.6-1.8,7-4.7,9.1-7.8c0.9-1.3,1.3-2.9,1.5-6.1c0.1-1.1,0.3-2.6,0.4-3.3
		c0.7-4.9-1.1-15.6-2.7-15.6c-0.5,0-0.5,0.4,0.2,2.6c1.2,3.5,1.4,5,1.5,8.9c0,1.9,0,3.3,0,3.2c-0.1-0.1-0.3-0.8-0.6-1.6
		c-0.6-1.5-0.6-1.5-0.8,0.2c-0.3,2.6-1.2,5.6-1.6,5.6c-0.4,0-0.4-0.3,0-1.7c0.9-3,1.2-6.8,0.6-7.8l-0.3-0.5l-0.2,1.7
		c-0.5,4.2-2.8,9.6-3.6,8.3c-0.1-0.1,0.1-0.4,0.2-0.7c1.5-2.1,2.5-5.4,2.6-8.6l0.1-2.3l-0.8-1.8c-0.4-1-0.9-2.1-1-2.6
		c-0.1-0.4-0.2-0.8-0.3-0.9c-0.4-0.4-5.6,6.5-6.9,9c-1.1,2.1-1.9,3.5-3.5,6.1c-0.2,0.4-0.8,0.4-0.8,0c0-0.2,0.4-1,1-1.8
		c2.1-3.2,2.3-3.8,2.4-5.8l0.1-1.8l-1,1.5c-1.3,2-2.9,3.8-3.1,3.7c-0.4-0.1-0.3-0.6,0.7-1.7c2-2.4,3.7-5.4,3.7-6.3
		c0-1.4,1.3-7.6,2.3-10.8c0.5-1.7,0.5-1.7-0.8-0.7c-1.2,1-2.6,1.9-3.8,2.4l-0.8,0.4l-1.6-6.3c-1.8-7-1.7-6.7-2.1-6.3l-0.3,0.3l0-2.6
		c-0.1-6,0.1-8.6,1-11.1c0.4-1.3,0.4-1.6-0.1-1.6c-1.2,0-1.9,4.2-1.8,11.3c0,4.8,0,5.4-0.3,5.6c-0.2,0.1-0.7,0.8-1.2,1.5l-1,1.3
		l-0.4-1.5c-1.6-7-1.5-15,0.3-22.2c0.5-2.1,0.5-2.4,0-2.3c-0.3,0-0.4,0.3-0.7,1.3c-2.1,7.4-2.2,16.7-0.4,24c0.5,1.8,0.5,2,0.2,2.3
		c-0.3,0.5-0.3,0.6-1-1.4c-1.9-5.7-2.3-10.9-1.7-23.1c0.4-9,0.3-13.8-0.5-18.5C47.1,164.4,47.2,164.4,46,166.7 M255.5,184.1
		c-0.4,0.4-0.2,0.6,1.4,2.1c6.3,5.8,13.2,9.5,21.2,11.4c2.4,0.6,3.1,0.6,3.1,0.1c0-0.4-0.1-0.5-3.1-1.2c-7.6-1.8-15-5.8-20.6-11.2
		C256,183.9,255.9,183.8,255.5,184.1 M314.1,185l-0.4,0.7l-0.4-0.7c-0.4-0.7-0.4-0.7-1.2-0.6c-0.4,0.1-2,0.1-3.5,0.2
		c-2.4,0-2.9,0.1-3.9,0.4l-1.2,0.4l1.2,0.1c1.5,0.1,2.1,0.4,4.7,1.7c2.2,1.2,2.6,1.3,3.3,0.7c0.6-0.5,0.9-0.4,1.3,0.3l0.4,0.6
		l0.5-0.5l0.5-0.5l1.8,0.9c1,0.5,1.8,0.9,1.8,0.9s-0.1-0.3-0.2-0.6c-0.7-1.3-0.3-1.6,1.7-1.1c1.6,0.3,1.6,0.3,1.3-0.3
		c-0.3-0.7-0.3-0.7,1.4-0.4c1.7,0.3,1.8,0.2,1.2-0.4c-0.7-0.7-1.4-1-4.2-1.7c-3.1-0.8-3.2-0.8-2.8-0.2c1,1.5,0.4,1.5-1.3,0.1
		C314.7,184.1,314.6,184.1,314.1,185 M256.5,187c-0.4,0.4,1.1,1.9,4.2,4.4c4.4,3.5,12.9,7.7,13.4,6.5c0.1-0.4-0.2-0.6-1.9-1.2
		c-4.8-1.7-10-5-13.9-8.7C256.9,186.7,256.8,186.6,256.5,187 M169.5,189.8c-1.7,2.7-4,7.8-5.2,11.9c-0.3,1.2-0.6,2.1-0.6,2
		c0-0.2-1.5-7.3-2.2-10.3c-0.4-1.7-0.7-3.1-0.7-3.1c0-1.1-1.2,2-1.8,4.4c-1,4.3-2,28.9-1.4,30.7c0.7,1.9,2.8,2.5,4.1,1.3l0.4-0.3
		l0.1,0.4c0.2,0.7,0.6,5.4,0.8,8.5c0.2,3.4,0.1,13.3-0.2,16c-0.2,1.8-0.2,1.8,0.6,1c0.8-0.8,1.5-2,1.7-3.3l0.2-1l1.3,3.5
		c4.4,12,4.5,17.6,0.6,25.3c-0.5,1.1-0.9,1.9-0.8,1.9c0.1,0,1.5-0.4,3.2-1c3.5-1.2,3.3-1.2,3.3,0.9c0,2.9-0.8,5.1-3.5,10
		c-1.7,3-2.8,5.4-2.8,5.8c0,0.5,2.9-0.7,4.9-2.1l1.5-0.9l-0.1,1.6c-0.2,2.6-1,5.7-1.9,7.1c-0.6,0.9-1.1,2-0.9,2
		c0.1,0,0.4-0.5,0.8-1.2c0.7-1.2,1.6-1.9,2.9-2.2l0.4-0.1l-0.6,1.9c-1.5,4.6-1.5,8.4,0.1,10.4l0.4,0.5l0.8-0.7
		c0.8-0.6,2.4-1.5,2.7-1.5c0.2,0,0.2,0.2,2.1,8.6c2.5,11.3,6.6,25.7,9.1,32.3c2.1,5.4,2.9,8.3,2.8,9.5c-0.1,0.9,0.1,0.6,0.8-1
		c2.5-5.4,2.5-9.6-0.1-18.8c-1.5-5.1-1.9-6.9-2.3-9.3c-2-11.1-0.9-21.7,3-30.6l0.9-2l0.1,3.2c0.1,3.4,0.5,5.9,1.2,8.7
		c0.4,1.4,0.4,1.7,0.3,5.8c-0.1,6.1,0.6,10.8,1.7,10.9c0.6,0.1,0.6-0.2,0.1-1.8c-0.6-2.2-0.9-4.5-0.9-7.8c0-2.7,0.1-4.7,0.8-11.7
		c0.3-3.6,3.2-10.4,6.4-15.3c2.5-3.8,2.5-3.8,2.2,0.7c-0.3,4.8-0.6,6.1-2,8.9c-2,4.1-2.9,6.8-3.8,11.8c-0.5,2.7-0.5,3.1-0.1,3.3
		c0.5,0.2,0.7-0.3,1.1-2.6c1.3-7.6,3.7-13.4,7.1-16.7l1.9-1.9l-1.3,2.5c-2.3,4.7-4,11.2-2.9,11.2c0.4,0,0.4-0.1,0.9-2.3
		c1.1-5.3,2.7-8.9,6.2-13.9c0.8-1.2,1.8-2.6,2.1-3.2c0.3-0.6,0.6-1.1,0.8-1.2c0.3-0.3,0.3-1.7,0-3.1c-0.2-1-0.2-1.4,0.3-1.2
		c0.3,0.1,0.6,1.5,0.7,3.7l0.1,1.8l1.1,1.7c1.8,2.6,6.1,8.1,6.5,8.1c0.1,0-0.2-0.8-0.6-1.8c-1.1-2.8-3-10.2-2.7-10.4
		c0,0,2.2,1.5,4.8,3.4c2.6,1.9,4.8,3.4,4.8,3.3c0.5-0.5-3.6-7.8-6.4-11.3c-1.6-2-2.1-2.9-2.2-3.9l-0.1-0.7l1.1,0.6
		c2.2,1.2,5.7,3.5,7.6,4.9l0.6,0.4l-0.1-1c-0.3-3.2-2.9-6.9-6.7-9.6c-1.1-0.8-7-4.1-7.3-4.1c-0.1,0,0.2,0.5,0.6,1.1
		c0.7,1.2,1.7,3.7,1.7,4.2c0,0.8-0.6,0.3-0.9-0.6c-0.8-2.8-2.4-5.2-4.4-6.6c-0.7-0.5-1.5-1.1-1.6-1.4c-1.3-2-3.5-4.1-4.1-3.8
		c-0.5,0.3-0.4,0.4,0.8,1.6c1.3,1.2,2.1,2.3,2,2.6c-0.1,0.1,0.3,0.7,0.7,1.3c1.9,2.5,3.5,7.2,2.3,6.7c-0.1,0-0.3-0.5-0.4-1
		c-0.5-2-2.7-6.2-3.1-5.8c-0.4,0.4-0.7,2.4-0.6,4.1c0,1.1,0,1.8-0.1,1.8c-0.2-0.1-1.2-4.2-1.4-6c-0.2-1.8-0.4-2.2-0.8-2.2
		c-0.6,0-0.5,1.9,0.3,5.1c0.4,1.8,0.4,1.8-0.6,0.5c-2.1-2.6-2.9-4.8-2.6-7.4c0.1-1.3-0.5-1.7-0.9-0.6c-0.3,0.7-0.2,1.4,0.2,3.6
		l0.3,2l-1.4,1.9c-1.6,2.2-1.5,2.3-2.2-0.4c-0.7-2.7-0.7-4.8,0-6.2c0.1-0.3,0.2-0.5,0.1-0.6c-0.2-0.2-3.9,1.5-5.8,2.7l-0.5,0.3
		l0.4-0.5c0.5-0.7,2.2-2.3,3-2.8c0.5-0.3,0.7-0.5,0.6-0.7c-0.1-0.1-0.1-0.3-0.1-0.3c0-0.2-0.8,0-1.3,0.3c-1.7,1.1-3.5,3.1-4.3,5
		c-0.5,1.2-0.7,1.2-0.9,0.1c-0.3-1.6,0-3.5,0.8-4.7c0.6-0.8,0.3-0.8-1.4,0.2c-2.1,1.1-4,2.4-5.5,3.7c-0.6,0.6-1.4,1.1-1.6,1.3
		c-0.6,0.4-1,1.8-1.1,3.9c-0.1,1.4-0.3,2-0.7,1.7c-0.4-0.2,0.1-4,0.8-5.7c0.2-0.4,0.3-1.4,0.4-2.2c0.1-1.8,0.9-3.5,2.2-4.7
		c0.9-0.9,1-1,0.5-1.1c-0.2,0-0.4-0.1-0.6-0.2c-0.6-0.3-3.2,3.9-3.7,6.1c-0.1,0.5-0.3,0.9-0.4,1c-1.2,0.5,0.3-3.7,2.2-6.3l0.9-1.2
		l-0.5-0.8c-0.4-0.7-0.5-0.9-0.5-3l-0.1-2.2l-1.3,1.2c-1.6,1.5-2.7,2-4.1,2c-1.4-0.1-1.3,0.3-1.3-5.2c0-6.2,0.6-10.5,2.2-15.1
		c0.5-1.6,0.6-1.8,0.3-2c-1.3-1.3-3.5,8.8-3.5,16.6c0,6-0.3,5.7-0.9-1c-0.4-4.9-0.4-5.6,0-9.7c0.6-5.6,1-7,3.2-10.8
		c0.3-0.6,0.2-1.1-0.2-1.1c-1.1,0-3.3,5.3-3.8,9.2l-0.2,1.7l-0.2-3l-0.2-3l0.4-2.1c0.8-3.7,2-7.5,3.6-11c0.9-2,1-2.5,0.4-2.5
		c-1,0-4,7.9-5.1,13.7c-0.6,2.7-0.8,3.2-2.1,4.2l-0.8,0.6l0-2.2c0-1.2,0-3.1,0.1-4.2c0.2-2.1,0.1-2.5-0.4-2.5c-0.5,0-0.6,1-0.7,5.2
		c-0.1,4.2-0.1,4.3-0.4,4.3c-0.5,0-1.1-4.4-0.9-7.4c0.3-5.2,1.4-10.7,3.1-16c0.8-2.4,0.8-2.8,0.2-2.8c-0.8,0-3.5,9.8-4,14.8
		c-0.1,1.5-0.2,1.2-0.8-2.7l-0.5-3l0.4-2.5c0.6-4,1.7-7.8,3.3-11.4c0.8-1.7,0.8-1.8,0.5-2c-0.5-0.4-0.7-0.1-1.5,1.7
		c-1.5,3.5-2.2,5.8-2.9,8.9l-0.4,1.8l-0.2-0.9c-0.3-1.6-0.1-2.8,0.9-5.8c0.4-1.3,0.4-1.7-0.1-1.7c-0.4,0-0.6,0.3-1,1.7
		c-0.5,1.7-0.5,1.7-0.8,0.6c-0.6-2.7,2.8-12.1,6.2-17.6c0.3-0.5,0.4-0.7,0.2-0.9C170.5,188.6,170.2,188.8,169.5,189.8 M80.5,190.4
		c-0.6,0.4-1.4,1.3-2.6,3.2c-2.3,3.5-7.3,6.6-10.7,6.6c-0.3,0-0.6,0-0.6,0.1c-0.3,0.3,3.7,2.9,6.5,4.3c1.3,0.6,2.5,1.2,2.7,1.3
		c0.5,0.3,0.2,1.1-1.3,3.8c-0.8,1.5-1.5,2.7-1.4,2.7c0.1,0,1-0.2,2-0.5c1-0.3,2-0.6,2-0.6s0.1,0.7,0.2,1.5c0.2,3.1,1.2,6.4,2.8,9.6
		c0.8,1.6,2.4,4,1.8,2.7c-0.3-0.7-0.1-5.7,0.3-5.7c0.9,0,2.5,2,4.1,5.1c0.8,1.7,2.1,3.6,8,12.3c2.7,4,7.9,12.4,9.3,15
		c0.4,0.7,0.7,1.3,0.7,1.3c0,0,0.4-0.6,0.8-1.4c0.9-1.7,0.8-1.7,1.7-0.4c3.4,5.4,9.2,11.6,14.7,16l1,0.8l0.1-1.2
		c0.1-1.2,0.5-2.4,1-2.8c0.2-0.1,0.6,0.1,1.9,1.1c3.2,2.4,9.9,6.7,10.4,6.7c0.1,0,0.5-0.4,1.7-2.2c0.2-0.2,1.7,1.3,2.4,2.4l0.6,0.9
		l1.9-0.7c1-0.4,2.1-0.8,2.5-0.9c0.9-0.3,0.9-0.3,0.9,0.6c0,0.5-0.1,1.7-0.2,2.7l-0.1,1.8l1.3-1.2c2.2-2,4.6-3.3,9.3-4.7
		c5.2-1.6,7.2-2.3,7.2-2.4c0-0.1-0.1-0.1-0.2,0c-0.7,0.5-3.8-0.1-8-1.4c-6.3-2-8.4-2.1-11.6-0.3c-1.1,0.6-1.2,0.6-1.2-0.8
		c0-1.2,0.3-2.1,1.1-3l0.5-0.5l-0.5,0c-1.7,0-4.4,1.2-5.8,2.6l-0.9,0.9l-0.6-0.8c-0.5-0.7-1.5-2.6-2-3.9c-0.1-0.4-0.2-0.4-1.2,0.3
		c-1.3,0.8-1.1,0.8-1.7-0.3c-0.3-0.5-0.9-1.4-1.3-1.9l-0.8-0.9l-0.9,1l-0.9,1l-0.5-0.3c-2.1-1.5-6.1-6.3-7.9-9.6
		c-0.7-1.2-0.7-1.2-1.1-0.2c-0.2,0.4-0.4,0.7-0.4,0.7c-0.4-0.4-1.3-6.4-1.4-9.4l-0.1-2.4l-0.5-0.1l-0.5-0.1l0.1,2.6
		c0.1,2.9,0.4,5.2,1,7.9c0.2,1,0.4,1.9,0.4,1.9c-0.1,0.1-1.4-3.5-1.9-5.4c-0.6-2.4-0.7-2.6-1.1-2.4c-0.6,0.2,0.1,3.4,1.5,6.8
		l0.7,1.8l-1.3-1.4c-2.1-2.2-3.9-5.1-4.9-8.1c-0.3-0.7-0.5-1.3-0.5-1.2c0,0-0.4,0.6-0.7,1.3l-0.6,1.2l-0.8-1.1
		c-3.4-4.9-4.6-7.5-4.8-11.1c-0.1-1.9-0.3-2.2-0.8-1.8c-0.2,0.2-0.3,0.5-0.2,2c0.2,3.9-1.3-1.5-1.8-6.7c-0.1-1.2-0.7-1.7-0.9-1
		c-0.5,1.2,1.1,8.5,2.4,11.1c0.6,1.1,0.2,0.7-1-1.2c-2-3-5.1-10.1-5.1-11.6c0-0.5-0.4-0.4-2.4,0.1l-1.9,0.6l-0.5-1.4
		c-1.4-3.9-1.8-6.2-1.8-10.9c0-3.9,0.1-4.7,0.8-7.7c0.3-1.2,0.3-1.4,0.1-1.6c-0.4-0.4-0.7-0.1-1,1.1c-1.4,5.8-1.2,12.6,0.5,18.1
		c0.2,0.7,0.4,1.3,0.4,1.4c-0.1,0.1-1.8-2.5-1.9-3c-2.1-6.6-2.7-9.8-2.8-15l-0.1-2.8l-0.4-0.1c-1-0.1-0.6,7.8,0.7,12.8
		c0.2,0.7,0.3,1.3,0.3,1.3c-0.1,0.1-2.4-5-3-6.8c-2.1-6.3-2.1-12.3,0-17.1C81.7,189.9,81.6,189.8,80.5,190.4 M264.3,202
		c-0.3,0.3-0.2,0.4,1.4,1.8c5.7,4.7,8.4,9.7,8.3,15.4l0,2.2l0.4-0.1c1.6-0.2,0.5-7.2-1.7-11C270.6,206.5,265.1,201.1,264.3,202
		 M270.7,204.6c-0.1,0.3,0.2,0.6,1.3,1.7c4.6,4.3,6.4,10.8,4.7,17.1c-0.5,1.9,0.2,2.6,0.8,0.8c2.1-6.1,0.1-13.8-4.8-18.6
		C271.4,204.2,270.9,204,270.7,204.6 M285.2,207.6c-0.2,0.4,0.1,0.8,0.9,1.1c2.8,1.2,5.4,3.9,6.7,7c0.3,0.9,0.5,1.1,0.8,1.2
		c1.3,0.2-0.6-3.9-2.9-6.2C288.8,208.7,285.6,207,285.2,207.6 M284.3,210.4c-0.3,0.3-0.1,0.6,0.9,1.5c1.3,1.2,2.1,2.5,2.7,4.1
		c0.5,1.3,0.7,1.6,1.1,1.2C290,216,285.3,209.3,284.3,210.4 M284.2,221.8c-0.2,0.2-0.1,0.5,0.1,1.2c1.6,6.1-0.4,13.2-5.1,18.2
		c-0.5,0.5-0.5,0.8-0.2,1.1c0.2,0.2,0.4,0.1,1.3-0.9c2.4-2.5,4.3-6.1,5-9.7C286.2,227.4,285.4,220.3,284.2,221.8 M286.4,224.3
		c-0.1,0.2-0.1,0.6,0,1.6c0.7,5-0.8,11.1-3.6,15.4c-0.5,0.7-0.6,0.9-0.4,1.1c0.4,0.4,0.6,0.3,1.2-0.6c0.5-0.7,0.6-0.8,0.8-0.6
		c0.8,1,4.1-3.3,5.1-6.6c1-3.2,0.7-8.2-0.4-7.7c-0.2,0.1-0.3,0.3-0.1,1.3c0.5,4.2-0.6,7.9-3.1,10.9c-1.3,1.5-1.5,1.5-0.7-0.1
		c1.7-3.6,2.2-6.2,2.2-10.6C287.4,224.5,287.1,223.4,286.4,224.3 M82.8,228c-0.1,0.1,0.1,0.6,0.3,1c2.5,4.9,3.5,11.7,2.7,17.2
		c-0.4,2.6-0.4,2.8,0.1,2.8c0.9,0,1.5-7,0.9-11.1C86.1,232.5,83.5,226.2,82.8,228 M268.2,234.3c0,3.9-0.6,11.2-1.2,15.3
		c-0.1,0.7-0.2,1.3-0.1,1.3c0,0,0.8-0.3,1.6-0.6c0.8-0.3,1.7-0.6,2-0.7l0.5-0.1v1.2c0,2.8-0.6,6.5-1.5,9.2c-0.3,0.8-0.5,1.5-0.5,1.5
		c0,0,0.7,0,1.5-0.1c0.9-0.1,1.6-0.1,1.7,0c0.5,0.5-0.9,9.8-1.6,10.7c-0.1,0.1-0.1,0.3-0.1,0.3c0,0,0.5-0.5,1-1.2
		c2.2-2.8,2.4-2.7,2.4,1.8c0,4,0.1,4.6,1.3,8.7c1.6,5.7,4,10.6,7,14.6c0.9,1.2,1.1,1.4,1.2,1.1c0.1-0.5-0.4-2.9-0.8-4.2
		c-0.7-2.3,0.9-0.9,4.8,4.2c5.3,6.9,12.9,15.5,17.7,20.1c1.2,1.2,1.2,1.1,0.1-0.3c-0.9-1.2-1.9-3.1-1.9-3.7c-0.3-4.1-0.3-4.3,0-5.7
		c0.2-0.8,0.5-1.9,0.7-2.4c0.5-1.1,0.4-1.6-0.1-1.6c-0.7,0-1.7,3.1-1.8,5.9l-0.1,1.8l-1.1-1.9l-1.1-1.9l0.1-2.1
		c0.1-1.5,0.2-2.5,0.5-3.7c0.6-2,0.6-2,0.2-2.2c-0.6-0.4-1.5,2-1.8,5l-0.1,1.3L298,305c-1.8-3.1-1.4-10.5,0.7-12.6
		c0.8-0.8,0.9-1.2,0.3-1.3c-1.5-0.3-3.2,3.9-3.2,8.4c0,2.5,0,2.5-1.3,0c-1-1.9-1.6-5.5-1.9-10l-0.1-1.8l-0.6,0.7
		c-0.8,0.9-1.9,3-2.3,4.3l-0.3,1l-0.3-0.7c-0.7-1.8-0.2-5.2,1.1-8.5c1-2.4,1-2.3,0.3-2.1c-1.2,0.2-2.3,0.8-3.2,1.6
		c-0.5,0.5-0.9,0.8-0.9,0.8c0-0.2,1.8-4.5,2.7-6.2c2.8-5.8,9.9-10.1,17.9-10.8c1.2-0.1,1.4-0.3,1.1-0.8c-0.2-0.2-0.4-0.2-2-0.1
		c-4.3,0.4-8.7,2.1-12,4.6c-1.2,0.9-1.3,0.9-0.6,0c0.9-1.2,2.6-2.8,4.4-4.2c0.9-0.7,2-1.7,2.5-2.2l0.8-0.8l-1.5,0
		c-2.6-0.1-8,2.1-10.4,4.1l-0.7,0.6l0.1-0.6c0.3-1.5,1.7-5.8,2.7-8.1c0-0.1-0.5,0.2-1.1,0.7c-0.6,0.4-1.6,1.2-2.3,1.6
		c-1.7,1.2-3.8,3.9-4.6,6c-0.3,0.8-0.4,1.3-0.5,4.1c-0.1,3.5-0.1,3.7-0.6,2.8c-0.8-1.4-1-2.2-0.9-7.3c0-2.6,0-4.8-0.1-4.8
		c-0.6,0-2.1,1.5-2.6,2.6c-0.2,0.4-0.3,0.6-0.4,0.4c-0.7-2-1.4-5.4-1.6-8c-0.3-2.5-0.1-3.2,1.4-8c0.6-2.1,1.1-3.8,1.1-3.8
		c0,0-0.5,0.6-1,1.3c-1.4,2.1-3.6,4.4-4.6,4.7c-0.7,0.2-0.9-0.2-1.3-3.2c-0.7-4.8-1.7-9.2-3.2-14.2
		C268.2,231.6,268.2,231.5,268.2,234.3 M87.3,232.5c-0.1,0.1,0.2,0.9,0.6,1.6c2.6,5.3,3,12.3,1,18.2c-0.4,1.3-0.5,1.5-0.2,1.7
		c1.5,1.3,3.1-8.9,2.2-13.9C90,235.4,87.9,231,87.3,232.5 M198.1,232.8c-2.4,5.6-2.1,15.3,0.6,22.2c0.7,1.9,1,2.3,1.4,1.9
		c0.3-0.3,0.3-0.4-0.3-2c-2.6-6.3-3-13.9-1-20.8c0.2-0.8,0.4-1.5,0.3-1.6C198.9,232,198.4,232.2,198.1,232.8 M290.9,233.9
		c-0.5,2.8-1.6,4.5-3.5,5.7c-1.2,0.7-0.8,1.6,0.4,1c1.9-1,3.8-3.8,4-6l0.1-1.1h-0.4C291.1,233.4,291,233.5,290.9,233.9 M91.6,239.6
		c0,0.1,0.1,0.9,0.3,1.7c1.4,4.8,1.2,10.6-0.5,15.5c-0.5,1.4-0.5,1.7-0.3,1.8c0.4,0.4,0.8-0.1,1.3-1.7c1.7-4.9,1.8-11.7,0.3-16.5
		C92.5,239.5,91.9,239.1,91.6,239.6 M203.4,240.2c-0.2,0.3-0.9,3.4-1.2,5.1c-0.6,3.6-0.9,11-0.4,11.4c0.6,0.5,0.8,0.1,0.8-2.7
		c0-4.2,0.5-8.1,1.4-12c0.3-1.2,0.3-1.7,0.2-1.9C203.9,239.8,203.6,239.9,203.4,240.2 M327.2,242.5c0.3,0.7,0.6,2.5,0.6,3.4l0,0.9
		l-1.2-0.1c-1.6-0.2-3.1-0.5-4.2-1c-1-0.5-1-0.4-0.7,0.6c0.6,1.7,0.3,3-1.1,4.7c-2.7,3.4-2.9,7.6-0.3,12.6c0.8,1.5,2.7,0.5,2.7-1.4
		c0-0.9,0.7,0.3,1.2,2c0.6,2.4-1.2,7.1-3.8,9.6c-0.7,0.7-1,1.1-0.9,1.3c0.4,1.1,2.8-1.3,4.4-4.5c0.9-1.8,1.7-2.1,3.9-1.5
		c0.9,0.3-0.4,6.1-2.3,9.6c-0.8,1.6-0.9,2.1-0.4,2.1c0.3,0,1.4-1.8,2.1-3.3c0.3-0.7,0.6-1.3,0.6-1.3c0,0,0,0.7,0,1.7l-0.1,1.8
		l1.1-0.4c0.6-0.2,1.5-0.5,2.1-0.5l1-0.1l-0.3,0.6c-0.4,0.8-0.9,2.3-1.2,3.5l-0.2,1h0.8h0.8l0.1,1.9c0.2,2.7,0.2,2.8,0.8,2.5
		c0.6-0.3,1.6-1.4,1.8-1.9l0.1-0.4l0.1,0.4c0.1,0.4,0.1,0.3,0.4-0.5c0.9-2.7,3.6-7.2,4.3-7.2c0.5,0,0.2,0.6-0.7,1.9
		c-2.9,4-4.5,9.5-4,14.5l0.1,0.6l0.3-0.9c0.2-0.5,0.6-1.3,0.9-1.8c0.3-0.5,0.8-1.5,1.1-2.2c1-2.4,2.6-4.6,3-4.2
		c0.2,0.2,0,0.5-0.7,1.6c-2.8,4.2-3.4,9.5-1.5,14.3c0.5,1.4,0.5,1.4,1.1,0.1c0.3-0.7,0.7-1.2,1.2-1.5c0.8-0.6,0.8-0.6,0.6,0.3
		c-0.4,1.3-0.1,6.5,0.5,9.8c0.3,1.6,0.6,3.6,0.7,4.2c0.1,0.7,0.2,1.3,0.3,1.3c0.7,0,2.3-3.5,2.7-5.8l0.2-1.3l0.5,1.5
		c0.9,2.9,1.2,7.9,0.8,11.6c-0.1,1-0.1,1.1,0.2,1.1c1.3,0,2.8-1.6,3.5-3.8l0.2-0.6l0.5,1.4c0.3,0.7,0.6,1.8,0.8,2.3
		c0.2,0.9,0.2,0.9,0.4,0.5c0.1-0.2,0.4-0.9,0.6-1.5c0.7-1.7,0.6-3.3-0.7-12c-0.7-4.6-0.8-8.4-0.1-10.9c0.3-1.1,0.1-1,1.7-0.8
		c1.7,0.2,1.6,0.4,0.7-2c-1.5-3.7-4.5-13.2-4.5-14.2c0-0.1,0.7,0.2,1.6,0.7c0.9,0.5,1.6,0.8,1.6,0.8c0-0.1-2.2-4.2-3.9-7.4l-0.6-1.1
		l1,0.1l1,0.1l-0.4-0.7c-1.9-3.3-2.5-4.5-2.3-4.6c0.4-0.3,2.1-0.4,2.9-0.2c1.2,0.3,1.2,0.5-2-4.8c-1.6-2.7-2.9-4.9-2.9-4.9
		c0,0,0.8,0.2,1.6,0.4c0.8,0.3,1.6,0.5,1.6,0.4c0,0-0.7-1.2-1.7-2.6c-2.2-3.1-2.5-4.1-1.5-4.4c0.3-0.1-0.2-0.6-3-3.3l-3.3-3.2
		l1.3-0.2c2.9-0.5,5-1.4,3.1-1.4c-5,0-10.8-1.3-16.1-3.4C327.1,242.2,327.1,242.2,327.2,242.5 M285.8,245.4
		c-2.4,1.9-3.6,3.4-4.6,5.9c-1.4,3.6-2.3,7.9-1.8,8.4c0.4,0.3,0.7,0,0.8-1c0.7-5.6,2.8-10,5.9-12.2c1.2-0.9,1.4-1.1,1-1.5
		C286.8,244.7,286.8,244.7,285.8,245.4 M209,245.3c0,0.1-0.1,0.9-0.2,1.7c-0.2,2.9-1.6,6.8-3.2,9.1c-0.6,0.9-0.7,1.4-0.1,1.4
		c0.4,0.1,1.3-1.2,2.4-3.3c1.7-3.3,2.7-9.2,1.6-9.2C209.2,245.1,209,245.2,209,245.3 M288.2,247.3c-3.1,2.1-5.2,5-6,8.5
		c-0.3,1.3-0.3,1.5-0.1,1.7c0.5,0.5,0.7,0.1,1-1.2c0.7-3.4,3-6.6,6.1-8.5c1-0.6,1.1-0.8,0.8-1.2
		C289.6,246.3,289.5,246.4,288.2,247.3 M213.4,248.4c-0.1,0.1-0.2,0.4-0.3,0.7c-0.5,2.2-1.9,5.5-3.3,7.6c-0.8,1.1-0.8,1.6-0.2,1.6
		c1,0,4-6,4.5-9C214.2,248.6,213.8,248.1,213.4,248.4 M289.3,249.1c-3.2,1.7-6.9,7.1-5.8,8.3c0.3,0.3,0.8,0.1,0.8-0.3
		c0-1.9,3-5.7,5.5-7c1-0.5,1.2-0.7,1.1-1C290.9,248.5,290.4,248.5,289.3,249.1 M314,250.5c-0.9,1-2.1,7.6-1.5,8.1
		c0.5,0.4,0.7,0,0.8-1.4c0.2-1.6,0.5-3.2,1-5C314.9,250.5,314.7,249.6,314,250.5 M316.5,251.1c-1.1,2.5-1.4,6.2-0.8,9.1
		c0.2,1.2,1.2,1.1,1-0.1c-0.5-3-0.4-5.2,0.4-7.7c0.4-1.3,0.5-1.5,0.2-1.7C317,250.3,316.8,250.4,316.5,251.1 M306.3,269.6
		c-4.1,0.5-8,2.4-11.2,5.3c-0.7,0.7-0.8,0.9-0.3,1.2c0.2,0.1,0.5,0,1.3-0.8c2.9-2.6,6.6-4.3,10.5-4.8c1.7-0.2,2-0.3,1.7-0.8
		C308.2,269.4,307.9,269.4,306.3,269.6 M305.3,272.8c-3.5,1.2-7,4-5.7,4.5c0.1,0.1,0.6-0.2,1.1-0.6c1.9-1.7,3.9-2.7,6.6-3.4
		c0.6-0.2,0.7-0.2,0.7-0.6C307.9,272.1,307.1,272.2,305.3,272.8 M216.3,299.9c-0.4,4.5-2.3,9.7-4.9,13.7c-0.6,0.8-1,1.5-0.9,1.5
		s0.9-0.9,2-2c1.1-1.1,2-2,2-2c0,0,0,4.1-0.1,9c-0.1,12.2-0.3,12.7-4.4,19.8c-2.5,4.3-3.9,8.4-4.4,12.2l-0.1,1l2.1-2.1
		c1.9-1.9,5.3-4.5,5.9-4.5c0.4,0-0.1,4.6-0.8,7.2c-1.1,4.1-3.3,8.5-6.9,14.2c-1.4,2.2-1.4,2.1,0.3,1c3.6-2.5,8-4.4,11.9-5.3
		c0.6-0.1,0.6-0.2-0.3,2.9c-0.4,1.5-0.8,2.7-0.8,2.8c0,0.1,1.3-0.7,2.8-1.8c1.8-1.2,2.8-1.8,2.8-1.7c0,0.9-1.6,4.2-2.5,5.2
		c-0.7,0.7-0.2,0.5,1.4-0.6c2.3-1.6,5.1-4,6.9-6.1l1.6-1.8l0.6,0.7c0.3,0.4,0.8,1.1,1.1,1.6c0.5,1,0.6,1,0.8,0.5
		c0.1-0.2,0.3-0.8,0.6-1.4l0.5-1.1l0.8,0.5c2.4,1.6,6.4,2.8,9.5,2.8c1.6,0,1-1-3.2-5.4c-3.6-3.7-4.6-5-5.4-7.5
		c-0.9-2.6-1-7.5-0.2-7.3c0.4,0.1,2,0.8,2.6,1.2c0.5,0.3,0.5,0.2-0.5-1c-1.7-2.2-2.7-4.6-3.2-7.4c-0.3-1.6-0.3-1.5,1-1.2
		c0.6,0.1,1.6,0.3,2.3,0.3h1.3l-0.9-0.7c-3.1-2.5-5.2-6.7-8.5-16.8c-0.8-2.6-1.8-5.5-2.1-6.5c-0.3-1-0.8-2.2-1-2.6l-0.4-0.8l0.8,0.6
		c2.8,2,6.1,2.5,8.1,1.2c0.8-0.5,0.8-0.6-0.9-2c-0.8-0.7-2.3-2-3.2-2.8c-2.5-2.2-4-3.1-7.4-4.7c-3.6-1.6-5.7-2.9-6.2-3.6l-0.4-0.5
		L216.3,299.9 M333.5,302.8c-0.2,0.2-0.2,0.5,0,1.2c0.7,3.6-0.3,7.3-2.4,9.5l-0.9,0.9h-1.1h-1.1l0.8-0.9c2-2.1,3.5-7.1,2.5-8.4
		c-0.5-0.7-0.8-0.2-0.8,1.2c0,3.4-2.5,7.9-4.4,7.9c-1.8,0-6.1-0.5-6.6-0.7c-2.4-1.2-4.6-4.3-5.4-7.4c-0.3-1-0.4-1.3-0.7-1.3
		c-1.5-0.2,0.4,4.9,2.9,7.4c0.8,0.8,1.4,1.6,1.4,1.7c0,0.1,0.2,0.6,0.5,1.1c0.6,1.1,0.6,1.2-0.7,0.2c-1.4-0.9-3-2.5-3.8-3.8
		c-0.4-0.6-0.7-0.9-0.9-0.9c-1.8,0,2,4.4,5.4,6.4c1.1,0.6,1.1,0.6,0.4,0.5c-2.5-0.4-4.8-1.8-6.1-3.7c-0.7-1.1-1.4-0.8-1,0.3
		c0.7,1.7,3.4,3.5,6.2,4.2l1.5,0.4l-1.8,0.4c-1,0.2-2.5,0.4-3.3,0.6c-0.8,0.1-1.5,0.3-1.5,0.3c0,0.3,3.3,1.6,4.6,1.8
		c1.1,0.2,1.1,0.3,0.1,0.9c-3.4,2-21.3,5.5-24.9,5c-4.5-0.7-6.8,0.4-8.6,4.1c-1.6,3.4-1.6,3.3,2,4.5l2.9,0.9l-1,1.1
		c-0.8,0.8-2.1,2.7-2.1,3.1c0,0,0.4-0.1,0.9-0.2c0.5-0.2,1.8-0.4,3-0.6c2.5-0.3,3-0.5,4.3-1.9c1.2-1.3,2.5-2.3,4-3.1l1.1-0.7
		l-0.7-0.2c-1.3-0.4-3.4-0.7-5.1-0.8l-1.7-0.1l0.7-0.4c0.9-0.4,4-1.1,6.2-1.4c0.9-0.1,3.6-0.2,6.7-0.1c5.7,0,7.3-0.1,11.7-1.1
		c1-0.2,1.8-0.4,1.8-0.4c0,0-0.9,0.5-2,1.1c-2.9,1.4-5.3,2.2-8.9,2.8c-0.4,0.1-0.6,0.1-0.6,0.2c0.2,0.2,4.8,1.1,7.2,1.4
		c2.8,0.4,3.1,0.6,4.4,2.2c1.7,2.3,2.2,4.8,1.5,7.7c-0.3,1.3-0.3,1.7,0.3,1.5c0.5-0.1,0.9-1.6,1-3.4c0.1-2.5-0.6-4.9-2.2-6.7
		l-0.8-0.9h0.8h0.8l0.7,1c1.9,2.7,2.7,6.8,2,9.7c-0.2,0.9,0,1.4,0.5,1.2c0.5-0.2,0.9-3.1,0.6-5.1c-0.3-2.2-1.4-5.3-2.3-6.3
		c-0.3-0.4-0.3-0.4,1.2-0.5l1.3-0.1l0.4,0.9c0.5,1,1,2.8,1.3,4.5c0.2,1.2,0.5,1.5,0.9,1.1c0.3-0.3-0.1-2.6-0.8-4.6
		c-0.7-2-0.7-1.9,0.3-2c0.5-0.1,1-0.1,1,0c0.3,0.2,0.8,1.5,0.9,2.3c0,0.7,0.1,0.9,0.4,0.9c0.8,0.1,0.9-1.2,0.2-2.7
		c-0.3-0.8-0.3-0.8,0.4-0.9c0.6-0.1,1,0.8,1.1,2.7c0.1,1.4,0.1,1.4,0.5,1.4c0.6,0,0.7-1.8,0.2-3.4c-0.2-0.6-0.3-1.1-0.3-1.1
		c0.2-0.1,2-0.9,2.1-0.9c0.2,0,0.5,1.9,0.7,4.1c0.3,2.9-1.1,5.5-4.5,8.5c-1,0.9-1,0.9-0.5,1c0.6,0.1,2.1-0.2,3.1-0.7l0.8-0.4
		l-1.1,1.2c-0.6,0.7-1.8,2.3-2.8,3.5c-2.8,3.7-4,4.9-8,7.7c-2.2,1.6-2.1,1.5-1.7,0.3c0.4-1.1,0.4-3.4,0.1-4.4c-0.3-0.9-1.1-1-1-0.2
		c0.2,2.1,0.1,4-0.3,4.9l-0.4,0.9l0-2.1c0-2.2-0.3-3.3-0.8-3.4c-0.6-0.1-0.6,0.2-0.3,1.5c0.3,1.3,0.3,3.2-0.1,4.4l-0.2,0.7l-0.1-1.4
		c-0.2-1.7-0.9-4.1-1.2-4.2c-0.7-0.3-0.8,0.3-0.3,1.7c0.5,1.4,0.6,3.6,0.3,5.4c-0.2,1.1-0.3,1.1,2.9-0.4
		c9.4-4.5,17.5-11.8,22.7-20.3c0.6-1,1.1-1.7,1.2-1.7c0.4,0,2.1,1,3.6,2.2c0.7,0.5,2.1-3,2.1-5.2l0-1.6l0.4,0.5
		c0.6,0.7,0.9,1.3,1.1,2.4l0.2,1l0.5-1c2.1-4.6,2.5-8.9,1-12c-0.7-1.5-1.5-1.5-4.5,0c-1.5,0.8-1.5,0.8-1.3-0.5c0.3-2,0-4.7-0.9-6.8
		c-0.4-1.1-0.4-1.1-1.2-0.2c-0.7,0.7-2.1,1.4-3.2,1.6l-0.7,0.1l0-5.1c0.1-6.6-0.1-8-1.2-8c-0.5,0-1,0.6-1.5,1.9
		c-0.8,2.1-1.9,3.5-3.4,4.2c-1,0.4-1,0.3-0.3-0.6c1.5-1.9,2.1-4,2.1-6.9C334.6,303.4,334.2,302,333.5,302.8 M209.3,319.4
		c-1,1.4-1.8,2.2-5,4.6c-3.7,2.8-5.2,4.5-6.2,7c-0.5,1.4-0.7,3.5-0.3,3.6c0.5,0.2,0.7-0.2,0.8-1.3c0.3-3.2,1.7-5.1,6.6-8.8
		c3.5-2.7,5.9-5.2,5.5-6C210.5,317.9,210.1,318.2,209.3,319.4 M209.5,323.4c-0.6,1.1-2.1,2.6-4.5,4.4c-4.5,3.4-7.8,8.4-7.8,11.7
		c0,1.3,0.8,0.7,1.2-0.9c1-4.1,3.3-7.1,8.1-10.7c2.8-2.1,4.6-4.3,4-4.9C210.2,322.6,209.9,322.7,209.5,323.4 M209.9,327.4
		c-0.1,0.1-0.2,0.4-0.3,0.8c-0.2,0.8-0.7,1.5-2.7,3.1c-4.8,3.9-8.5,9-10,13.8c-0.6,1.8-0.6,2.2,0,2.2c0.3,0,0.5-0.4,0.9-1.7
		c1.7-5.3,5-9.7,10.5-14.1c1.5-1.2,2-1.8,2.2-2.7C210.8,327.7,210.4,327,209.9,327.4 M208.8,334.2c-1.8,2.9-2.2,3.4-5.6,6.7
		c-2.6,2.6-3.6,3.7-4.2,4.7c-1.5,2.4-3.2,7.5-2.7,8c0.4,0.4,0.7,0.1,0.9-0.7c1.3-5.2,2.8-7.7,6.7-11.2c3.9-3.5,6.8-7.7,5.5-7.9
		C209.2,333.7,208.9,333.9,208.8,334.2 M66.5,336.6c-1,1.7-2.7,3.8-4.7,5.8c-1.9,1.9-2.5,2.7-2.8,3.7c-0.1,0.2-0.5,1.3-1,2.4
		c-0.9,1.9-1.5,4.1-1.8,6l-0.1,0.9l-0.6-1.8c-0.8-2.4-1-3.9-1-6.3c0-1.1,0-2-0.1-2c-0.1,0-1.7,2.8-2.4,4.3c-1,2.1-3.1,7.7-3.1,8.4
		c0,0.5-0.3,0.3-1.7-1.3c-1.5-1.7-1.7-2-2.7-4.3c-0.9-2.1-1.3-2.1-2.2,0c-2,4.4-0.9,8.2,2.9,9.7c3.1,1.3,4.3,3.9,3.6,8
		c-0.3,1.7-0.4,1.7,1,0.9c2.2-1.2,3.3-2.5,3.5-4.2l0.1-0.9l1,1c1.2,1.2,2,2.7,2.8,4.9c0.3,0.9,0.6,1.6,0.6,1.6c0,0,0.3-0.5,0.6-1.1
		c0.6-1.4,0.8-2.9,0.5-5.9c-0.4-4.4-0.2-8.5,0.4-8.5c0.1,0,0.4,0.5,0.8,1.1c1.2,2,8.5,8.5,8.7,7.8c0.1-0.4-0.8-4.3-1.2-5.5
		c-0.4-1.2-0.3-1.2,0.7-0.1c1.7,1.9,2.3,3.4,2.6,5.3c0.2,1.6,0.4,2.3,1,2.9c0.6,0.6,0.6,0.4,0.4-0.7c-0.7-3.3,0.2-4.4,3.4-4.4
		c2.2,0,4.2,0.9,6.5,2.8c1.1,0.9,1.1,0.9,1.1,0c0-0.5-0.1-0.9-0.5-1.4c-0.3-0.4-1.1-1.6-1.8-2.6c-2.5-3.7-4.4-5.6-8.3-8.2
		c-3.3-2.2-4.5-3.5-4.9-5.4c-0.3-1.1-0.2-1.1,0.8-0.7c1.1,0.5,1.2,0.4,0.2-0.3c-1.5-1.1-2.3-2.5-2.6-5c-0.1-0.8-0.3-1.6-0.3-1.8
		c-0.1-0.2-0.2-0.4-0.2-0.5c0,0,0.3,0.1,0.7,0.3c0.4,0.2,1.1,0.4,1.5,0.4l0.8,0.1l-0.3-0.7c-0.5-1.1-1-2.9-1.2-4.4l-0.1-1.4
		L66.5,336.6 M282.5,337.2c-0.2,0.1-1,0.4-1.6,0.8c-2.5,1.5-11.4,1.8-13.9,0.6c-0.9-0.4,0,1.3,1.3,2.3c3.4,2.8,11.5,2.9,15.6,0.3
		c1.3-0.9,1.2-0.9-0.5-0.3c-0.7,0.3-1.8,0.5-2.3,0.6c-0.5,0.1-1.2,0.1-1.4,0.2c-0.3,0-0.5,0-0.5-0.1c0-0.1,0.1-0.2,0.2-0.2
		c0.7,0,4.2-2.1,4.5-2.8C284.3,337.7,283.5,336.9,282.5,337.2 M299.7,338.6c-4.3,1-9.8,4-11.8,6.4c-0.6,0.8-1.5,1.7-1.9,2
		c-1.6,1.3-0.2,1.7,4.2,1.1c1.1-0.1,3.1-0.4,4.4-0.5c5.4-0.6,8.8-2.4,11.1-6c0.7-1.2,0.7-1.3-0.4-0.8c-1.9,0.8-4.7,1.4-6.4,1.4l-1,0
		l1.1-0.4c1.9-0.7,5-2.5,5-2.9C304,338.5,301.1,338.3,299.7,338.6 M271.6,345c-2.5,0.6-9.5,0.8-10.6,0.3c-1.1-0.4,0.1,0.8,1.3,1.5
		c6.9,3.4,15.1,4,19.6,1.3c2.7-1.6,5-4.1,2.6-3c-2.2,1.1-12.9,2.3-14.5,1.5l-0.4-0.2l0.4,0c0.5,0,2.3-0.9,2.7-1.3
		C273.1,344.6,273,344.6,271.6,345 M298.3,348.7c-4.5,1.2-10.8,1.7-14.4,1.1c-1.5-0.2-0.7,0.8,1.2,1.5c1.8,0.7,1.9,0.9,1.4,2.4
		c-0.3,0.9-0.4,0.9,0.9,1.2c2,0.5,4.9,0.3,7.7-0.7c3.9-1.3,9.2-4.7,9.2-5.8C304.3,347.8,301.4,347.9,298.3,348.7 M262.2,350.3
		c0,3,4.9,5,12.3,5l3.2,0l1.3-0.7c1.5-0.8,2.5-1.1,4.1-1.4l1.1-0.2l-1.4-0.1c-1.8-0.2-2.6-0.4-3.5-0.9l-0.8-0.5l-1,0.4
		c-2.5,0.9-7.7,0.3-13.2-1.4c-0.8-0.3-1.7-0.5-1.9-0.6C262.2,349.7,262.2,349.7,262.2,350.3 M302.7,354.9c-4.9,1.9-8.9,2.8-14.4,3
		l-3.2,0.1l1,0.5c2.5,1.2,2.3,2.9-0.4,2.9c-1.7,0,2.7,1.3,5.1,1.4c8.8,0.6,16.3-2.5,16.1-6.5C306.6,354.2,305.5,353.8,302.7,354.9
		 M273.6,356.5c-2.1,0.5-4.9,0.7-7.2,0.6l-2.1-0.1l0.6,0.6c1.2,1.3,3.4,2,7.7,2.6c9,1.2,14.1-0.1,9.6-2.4c-0.8-0.4-1.3-0.4-2.2-0.1
		c-1.3,0.4-4,0.7-5.3,0.4l-1.2-0.2l0.9-0.8c0.5-0.4,0.9-0.8,0.9-0.9C275.2,356.2,275.2,356.2,273.6,356.5 M193.2,361.8
		c2.2,5.5,3.9,9.5,4.5,10.1c2.1,2.4,8,3.1,14,1.7c2.8-0.7,4.5-0.6,6.9,0.1c2.9,0.9,3.8,0.9,6.1-0.4c3.2-1.8,6.5-1.1,7.6,1.6
		c0.2,0.5,1.1,0.6,1.6,0.1c0.1-0.1,0.1-0.2-0.1-0.1c-0.4,0.1-0.4,0,0-0.9c1-2.9,4.4-3.6,7.1-1.5c0.8,0.6,1,0.6,2.6-0.2
		c0.7-0.4,1.6-0.7,1.9-0.8c0.6-0.1,0.7-0.2,0.7-0.6c0.7-3.7,5.7-4.7,10-2.1c1.5,0.9,1.5,0.8,0.2-0.9c-2.6-3.5-4.7-4-8.1-2.1
		c-3.6,2.1-6.1,2.1-10.6,0.3c-0.8-0.3-1.5-0.6-1.5-0.6s-0.1,0.7-0.1,1.6c-0.1,2.5-0.5,3.4-1.2,3.1c-0.8-0.4-2.7-2.4-3.7-3.9
		c-0.9-1.4-1-1.5-1.2-1.1c-0.2,0.5-0.2,3.6,0,4.1l0.2,0.4l-1-0.1c-1.2-0.1-3.2,0.4-5.2,1.3c-2,0.9-3,1.2-4.6,1.2
		c-2.1,0-3.7-0.4-7.3-2c-1.9-0.8-2.8-0.7-6.4,0.7c-1.5,0.6-2.8,1.1-2.8,1.1c0,0-0.3-0.7-0.5-1.5c-1.2-3.7-4.4-7.1-7.9-8.5
		C193.5,361.7,193.1,361.6,193.2,361.8 M306.3,362.8c0,0-1.1,0.2-2.3,0.3c-1.2,0.1-3.5,0.4-5,0.7c-2.8,0.5-5.3,0.7-6.6,0.4l-0.7-0.1
		l0.2,0.6c0.2,0.6,0.1,1.9-0.1,2.4c-0.2,0.4,0.5,0.8,2.6,1.2c8.1,1.7,12.8,0.9,16.6-2.8c1-1,1.2-1.3,0.9-1.3c-0.1,0-0.7-0.3-1.4-0.8
		C309.3,362.7,306.8,362.3,306.3,362.8 M284.1,364.1c-1.5,0.2-4,0.5-6,0.6c-4,0.2-5,0.4-4.7,1.1c0.6,1.6,17.5,2.4,17.5,0.9
		c0-0.3-0.8-0.6-2.1-0.7c-2.3-0.2-2.6-0.6-0.8-0.9c0.8-0.2,1.6-0.4,1.8-0.4l0.4-0.2l-0.6-0.3C288.6,363.7,286.9,363.7,284.1,364.1
		 M75.9,366.3c-0.5,0.3-0.6,0.6-0.1,1.6c0.6,1.5,0.8,3.1,0.7,5.5c-0.2,4,1,4.2,1.9,0.2C79.3,369.4,77.8,365.2,75.9,366.3 M43.4,367
		c-0.5,0.6-0.9,1.7-1.7,4.5c-0.6,2.1-1.2,3.5-2,4.5c-0.8,1.1-0.4,2,0.9,1.8c2-0.4,4.9-3.4,5.9-6.1c0.8-2.2,0.1-4.6-1.2-4.8
		c-0.4-0.1-0.9-0.1-1.1-0.2C43.9,366.5,43.7,366.6,43.4,367 M65.4,369.9c-0.8,0.6-2.3,9.6-1.7,10.2c1.4,1.4,5-7.1,3.9-9.3
		C67.2,370.1,65.8,369.6,65.4,369.9 M52.2,371.1c-1.7,2-2.1,2.5-2.8,4c-0.4,0.8-1.1,1.9-1.6,2.6c-1.7,2.1-1.7,3,0.1,2.9
		c2.9-0.2,5.4-2.5,6.2-5.5c0.3-1.1,0.4-3.7,0.1-3.5c-0.1,0.1-0.2-0.1-0.2-0.4c-0.1-0.5-0.5-1-0.8-1C53.2,370,52.7,370.5,52.2,371.1
		 M61.1,371.8c-0.2,1-0.5,2-0.5,2.2l-0.2,0.4l-0.4-0.6c-0.3-0.5-0.7-0.8-1-0.8c0,0-0.1,0.2-0.1,0.5c0,2-0.9,4.6-2.2,6.6
		c-1.1,1.7-0.9,2.5,0.6,1.9c2-0.9,6.1-8.1,5.3-9.4c-0.1-0.2-0.2-0.5-0.2-0.8c0-0.5-0.6-1.9-0.8-1.9C61.6,370,61.3,370.8,61.1,371.8
		 M250.2,370.2c-0.4,0.2-0.5,1.2-0.1,2c0.7,1.3,1.8,2,5.2,3.2c3,1.1,4.7,1.9,6.3,3c2.4,1.7,2.9,1.8,2.9,0.8c0-1.5-1.9-3.9-4.2-5.5
		C257.5,371.9,251.3,369.7,250.2,370.2 M237.3,372.4c-1.3,0.8-0.9,2.8,1.4,6.8c1,1.7,3.6,4.2,3.8,3.7c1-2.6,1-5.3,0.1-7.3
		C241.5,373.2,238.8,371.6,237.3,372.4 M227.4,373.3c-1.2,0.7-1.2,0.8-0.3,2.7c1,2.1,1.7,4.6,2.1,7.9c0.3,2.7,0.3,2.6,0.8,2.1
		c1.7-1.5,2.1-7.9,0.7-10.7C229.7,373.1,228.8,372.5,227.4,373.3 M244.5,373.2c-0.6,0.4,3.8,6.5,6.2,8.6c3.3,2.8,3.8,2.7,3.2-0.5
		c-0.4-2.5-0.9-3.4-2.7-5.2C249.1,373.8,245.8,372.4,244.5,373.2"/>
</g>
</svg>
