<svg xmlns="http://www.w3.org/2000/svg" viewBox="0 0 410 410"><path d="M169.8 89.2c-4.2.5-10.1 2.4-12.4 3.9-.2.2-1.9 1-3.7 1.9-3.8 1.9-5.2 2.8-6.2 3.9l-.8.8.1-.6c.6-4.7 1.8-7.7 3.5-8.7l.7-.4-.6.1c-7 1.4-17.2 7.6-19.3 11.9l-.4.8-.2-1.3c-.1-.7-.3-2.6-.4-4.4-.1-1.7-.2-2.9-.2-2.7-.3 4.9-4.7 10.5-12.5 16-2.2 1.6-2.2 1.6-2.2-1.8 0-1.4 0-2.5-.1-2.5 0 0-.5.6-1 1.3-3.4 4.6-5.6 9.4-7.5 16-1.3 4.4-2.5 7.4-2.9 6.8-.2-.3-.2-4.3 0-5.7.3-1.6.2-1.6-1.3.6-5.4 7.6-8.3 14.5-8.5 20.2-.2 4.6 1 5.9 3.7 4.3 2.7-1.6 5-4.6 8.4-11.1 2.2-4.2 3.8-7 4.9-8.4 1-1.4 1.1-1.4 1.4-3.2.5-2.7 2.4-7.4 3-7.4.5 0 .4.5-.3 1.9-2.6 5.2-3.1 11.5-1.3 17.7.5 1.8 1.6 4.7 1.8 4.7.1 0 1.2-4.2 2.5-9.3 2.4-9.5 3.1-11.6 3.8-12.8.4-.6 1.4-1.8 1.4-1.6l-.2 1.7c-.8 5.1-.4 10 1.1 13.1l.5 1v-.7c.1-3.2 1.7-7.9 3.9-10.9 1.1-1.5 3.7-4.2 4.2-4.2.7 0 .5.4-.9 1.7-3.6 3.4-5.7 7.8-6.3 13-.1.7 0 .7.8-1 2.5-4.6 5.8-8.4 9.9-11.1 1.8-1.2 2-1.2 1.2-.3-1.5 1.8-2.9 5-3.7 7.9-.6 2.2-.5 2.2.9.3 2.4-3.3 6.1-6.8 9.5-9 2.6-1.7 7.1-3.9 7.6-3.7.5.2.1.6-.8 1-6.3 2.6-11.7 6.8-15.9 12.4-1.3 1.7-1.2 1.7.5.5.8-.6 2.2-1.5 3.1-2s2.5-1.6 3.6-2.4c5-3.7 13.3-7.3 16.6-7.3 1 0 .4.8-.7.9-3 .5-8.6 2.7-12.4 5-1.8 1.1-1.7 1.1 1.1.1 2.3-.8 6.5-1.8 6.9-1.6.1 0-.5.5-1.2 1.1-5.4 4-9.8 10.1-10.7 15.2-.2 1.2-.3 1.2.9.5 4.9-2.9 11.4-3.5 17-1.6l1.4.5-1.3.1c-2.8.2-5.3 2-6.8 5.1-1 1.9-1 1.9.2 1.5 2.4-1 5.8-1.3 8.4-.9l1.2.2-1 .2c-4.8 1-7.2 2.6-8.7 5.7-.5 1.1-1.1 2.2-1.4 2.5l-.4.6 1-.6c2.8-1.8 6.1-2.6 12.7-3.1 7.9-.6 10.7-1.2 13.6-2.7 1.5-.8 2-1.1 1.2-1-2.6.5-4.1.6-6.7.6-1.7 0-2.9-.1-2.8-.2 0-.1.6-.6 1.3-1.2 2.8-2.4 5.2-5.8 6.4-8.7.3-.7.6-1.3.7-1.4.4-.4.1-.4-.6.1-2.3 1.4-5.8 1.7-8.2.6l-.8-.4.7-.1c4-.7 6.2-2.1 10.2-6.4 1.2-1.3 3.2-3.2 4.4-4.2 2.3-2 6.9-6.4 7.2-6.9.1-.2-.5.2-1.3.8-4.2 3.2-12.8 8.1-14.2 8.1-.6 0-.2-.7.6-1 6.6-2.8 15.9-9.1 17.4-11.8l.5-.9-1.5 1.2c-3 2.4-8.8 6-9.6 5.8-.6-.1-.2-.5 1.7-1.6 4.8-2.6 8.3-5.3 11.3-8.6l1.4-1.5-.9.4c-4.6 1.9-15.7 5.5-16 5.3-.1-.1 2.8-3 4.1-4 1.7-1.3 4-2.5 5.6-3.2.8-.3 1.3-.6 1.3-.6-.3-.3-5.9 1-8.3 2.1-2.1.9-2.7 1-2.8.6-.1-.3.1-.4 2.5-1.3 4.4-1.8 11.8-2.8 18.2-2.5 2.2.1 2.2.1-.1-1.4-7.2-4.8-16.2-6.2-24.9-3.9-.7.2 1-1 2.7-1.8 1.6-.8 3.8-1.6 5.7-2 1.6-.3 1.6-.4.1-.6-3.4-.5-5-.4-7.5.4-1.2.4-1.4.4-1.5.2-.2-.3-.1-.4 1-.8 2.9-1.1 6.6-1.1 10.9 0 .7.2 1.9.4 2.7.4l1.4.1-1.1-.7c-6.2-4-15.7-4.2-26.4-.5-1.3.5-2.3.7-2.2.6.5-.6-3.5 1.3-5.9 2.9-1.7 1.1-2 1.2-2 .7 0-.6 4.8-3.4 8-4.7.9-.4 1.5-.8 2.6-1.7.8-.7 1.7-1.5 2.1-1.8l.7-.5-1.1.4c-1.8.7-3.6 1.4-5.6 2.3-1.8.8-2.4.9-2.4.4 0-.3 5.4-2.7 9.6-4.1 2.1-.7 3.1-1.2 3.1-1.4 0-.1-.1-.1-.1-.1.2-.3-.6-.2-1.6-.1m27.1 8.3c0 .2 2.8 1.7 5.5 3 5 2.3 6.6 3.6 9.2 7.2 3.4 4.8 4.5 5.4 12.7 6.6 5.1.7 8.2 1.7 11.8 3.4 1.9.9 2.4 1.3 2.1 1.6-.2.2-.6 0-2.1-.7-4.1-2-7-2.9-12.7-3.7-1.6-.2-3.2-.5-3.6-.6-.9-.2-.9-.1 2.4 1.7 1.8 1 3.2 1.7 4 2 4.1 1.2 9.1 3.7 12.7 6.2 2.8 2 7.5 6.1 7.5 6.7 0 .7-.6.3-2.5-1.5-4.2-4-9.5-7.4-14.8-9.5-1.7-.7-1.8-.6-.5.3 1.7 1.4 4.8 4.2 5.6 5.2.4.5 1.4 1.3 2.2 1.8 6.5 4.2 9.7 7.8 12.1 13.4.7 1.6.7 2 .3 2-.2 0-.4-.3-.8-1.1-1.9-4.9-4.5-8.1-8.8-11.4-2.4-1.8-2.4-1.8-.7.4 2.6 3.5 4.7 7.8 5.8 11.7.5 1.8.5 1.8-.6.2-4.2-6.4-8.4-9.6-19-15.1-2.3-1.2-6.6-2.5-7.3-2.2-.8.3-.2.8 1.2 1.1 5.3 1.1 10.3 4.2 13.1 7.9 1.1 1.5 1.2 1.8.3 1-2.8-2.5-8.5-5.1-9.4-4.3-.4.4-.1.7 1.3 1 5.3 1.4 9.6 5.1 11.7 10.2 2.9 6.9 6.4 12.8 8.5 14.2.2.1.4.4.4.6 0 1.6-3.8-2.8-6.3-7.3-.6-1-1-1.8-1-1.7 0 .3.9 3 1.5 4.5 4.1 10.3 11.2 18.4 20.3 23.1l2.2 1.1h-1.7c-11.2 0-20.7-6.5-23.1-15.7-.2-.8-.2-.9-.2-.2.8 6.2 6.9 16 13.4 21.1.7.6 1.4 1.1 1.4 1.1.4.4-5.6-2.2-7.1-3.1-2.3-1.3-6.7-7.4-8.2-11.6-.4-1-1.2-1.3-1.2-.5 0 1 2.8 5.9 5.4 9.5.2.3-1.2-.6-3-2-1.6-1.2-4.5-9-4.9-13.2-.1-1.3-.4-1.7-.9-1.3-.6.5.2 4.6 1.7 9 1.4 4 1.8 4.9 5 9.8l2.6 4.1 3.5 3.6c3.5 3.6 6.5 7.2 4.8 5.8-.3-.3-2.2-1.7-4.2-3.3-7.6-6-10.3-9-11.7-13.5-.5-1.5-.7-1.8-1.1-1.4-.3.3-.2.4.1 1.5 1.3 4.1 4.3 7.9 9.8 12.3 9.3 7.4 9.2 7.3 11.2 10.9l1.5 2.7-1-.9c-1.4-1.2-3.6-2.9-6.7-5-4.9-3.4-7.1-5.2-8.9-7.8-.7-.9-1-1.3-1.2-1.2-.1.1-.3.1-.3.1-.6 0 1 2.3 2.9 4.2 1.8 1.8 3.1 2.8 7 5.5 6.2 4.3 8.6 6.5 10.3 9.8.3.6.7 1.2.8 1.2.3.1 3.1 6.3 4.5 9.9.7 1.9.8 1.8.3-1-.6-3.5-1-6.4-1.3-9.1-.3-3-.9-5-2.8-8.8-1.2-2.4-1.3-2.9-.8-2.9.3 0 2 3.4 2.9 5.4l.5 1.3.1-1.8c.2-3.4-2.3-6.8-8.2-11.3-1.3-1-1.7-1.4-1.7-1.6.2-1.6 7.9 5.6 10.1 9.4.1.2.2 0 .5-1.4.2-.9.7-2.7 1.2-4 1.1-3 1.1-3 1.1-2.1.4 6.4 2.3 19.7 3.6 25.4l.3 1.4-.1-1.7c-.3-4.3 0-11.4.5-11.7.4-.3.6.3.4 1.4-1 6.2.1 16.6 2.3 21 .9 1.9 1 1.9.7-.2-.5-2.9-.6-6.2-.5-8.8.2-3.6.2-4 .7-4.1.4-.1.4 0 .3.4-.7 3 .1 13.9 1.2 16.6.7 1.8 4.9 7.1 7.8 9.8 4.1 4 7.6 6.1 11.7 7.1 1.2.3 2.6.7 2.9.8 1 .4 4.4.7 4.4.5 0-.1-.4-.4-.8-.9-1.1-1-1.8-2.5-2-4l-.1-1.1 1.3 1.5c3.5 4.2 12.1 10.6 14.3 10.6l-.7-.9c-.9-1-1.6-2.4-1.5-3.1 0-.4.1-.3 1.1.8 1.8 2.2 4.8 4.3 7.5 5.3.7.3 1.8.8 2.3 1.1 2.1 1.4 3.9 2.2 5.6 2.5 1.2.2 1.4.1.4-.2-1.2-.3-3.6-3.2-2.7-3.2 3.4.1 7.9 3.2 14.3 9.9 1.9 2 3.4 3.6 3.5 3.5.1-.1-5-9.1-6.1-10.7-2.6-4-5.6-6.6-8.6-7.5-1.1-.3-1.1-.5-.1-.6 1.8-.2 4.3.5 7.1 1.9.9.5 1.6.8 1.6.8s-.3-.4-.8-.8c-.6-.5-1.3-1.6-2-2.8-2.9-5-4.6-5.7-13.6-5.9-6.9-.2-9.4-.6-13.6-2.2-2.3-.9-6.2-2.9-5-2.6 3.5.9 4.9 1.1 11.5 1.3 6.9.2 9.3.4 11.5.9 2.5.5 2.7.6 2.8.2.2-.4-.2-.7-1.5-1-2.6-.6-4.1-.8-9.6-.9-15.5-.5-18.1-1.4-23.6-8.6-.1-.1.9.3 2.3 1a40.4 40.4 0 0 0 18.7 4.6c4.6.1 5.6 0 5.6-.6v-.4l-3.7.1c-8.2.1-15.2-1.6-22.1-5.5-2.4-1.4-2.8-1.8-4.3-4.7l-1.2-2.4 1.4 1.4c4.7 4.5 11.3 7.6 18.7 8.8 1.7.3 2.1.3 2-.3 0-.3-.3-.4-2.3-.8-9.6-1.9-19.4-7.9-21.4-13.1-.5-1.3-3.2-8.8-3.2-8.9 0 0 .3.4.6.9 2.2 3.4 6.5 5.9 10.9 6.2 2.2.2 2.4 0 1.1-1.1-.6-.5-1.8-1.7-2.8-2.8-1.1-1.2-2-2-2.6-2.4-6.2-3.7-10.5-11-12.3-21.1-.1-.5-.1-.6.2-.7.4-.2.4-.2 1 2.6 1.8 7.9 5 13.8 9.5 17.2 1.4 1 1.4 1.1.9.2a38.9 38.9 0 0 1-3.4-6.1c-.5-1.2-1.4-2.7-1.8-3.5-4-6-5.9-14.2-5.1-22.1.1-1.4.2-1.5.5-1.4.3 0 .4.1.3 1.1-.6 6.9.5 13.2 3.2 18.6 1.2 2.4 1.2 2.5.7.4-1.2-5.1-1.4-10.5-.3-14.6.3-1.4.7-3.2.7-3.8l.1-1.3.3.9c.8 2.5 2 8 2 9.6 0 1.3.6.7 1.7-1.8 1.1-2.6 1.4-4.5 1.1-6.4-1.6-9.1-7.5-17.8-15.3-22.4-1.1-.7-1.4-1.1-.9-1.3.6-.2 4.5 2.6 7 4.9 4.5 4.3 7.4 9.2 9.3 15.3.5 1.6.5 1.1.2-2-.3-3-.9-4.6-3.5-8.7-1.4-2.2-2.7-4.6-2.7-5 0-.7-7-7-10.9-9.8-2-1.4-2.6-2.1-1.8-2.1s6.8 4.7 9.9 7.8c1 1 1.8 1.7 1.9 1.7 0 0-.3-1.3-.8-2.7l-.9-2.6-1.5-1.3c-2.9-2.5-6.4-5-10.2-7.3-1-.6-1.9-1.2-1.9-1.4 0-1.6 10.1 5.5 15.7 11.1 1.7 1.7 4 3.9 5.3 4.9 5 4.2 6.6 6.4 6.9 9.1.1 1.2.8 2.6 2.4 4.8 4.8 6.8 6 10.5 5.3 17.1-.1 1.4-.3 2.9-.3 3.5v1l.4-1.5c.6-2.2 2.1-5.4 2.7-5.8.1-.1.1 1 .1 2.7 0 1.5.1 4 .2 5.6l.2 2.8.5-3.2c.6-3.8.6-3.7 1-2.4.5 1.6.2 3.5-1.2 9.4-1.6 6.8-1.3 12.4 1.1 17.1.8 1.5 1.3.5.6-1.2-1.1-2.8-1.6-5.3-1.6-8.7 0-2.8.1-3.3 1.2-7.9.4-1.7.8-3.2.8-3.4.1-.5.1 1.1.2 6.9 0 5.6.2 6.9 1.1 9.4.5 1.5 1.1 2.5.9 1.6-.4-1.8-.6-5-.3-5.6.1-.2.3.4.7 1.6 3.4 11.6 11.4 23.5 20.7 30.8 3.2 2.5 2.9 2.1 5.3 6.9 1.2 2.4 2.3 4.5 2.5 4.7l.3.4.8-.3c1.3-.6 2.2-.6 2.2-.2 0 .5.6 1.8.9 2.2 1 1.1.8 6.7-.3 8.2-.4.5.2 1 .7.5 1.1-1 1.7-6.4.9-7.8v-.1c1.4 0 1.3 7.8-.1 10.5-.2.3-.2.5-.1.7.7 1.3 2.2-2.6 2.2-6.1v-1.9l.5.8c1.1 1.8.8 5.6-.6 8.5-.5 1-.4 1.7.3 1.4.6-.2 1.9-4 1.9-5.5 0-1.2.2-1.3.7-.4 1.2 1.9-.2 7.3-2.1 7.7-.6.1-.7.6-.2.9 1.1.6 3-2.2 3.6-5.1l.2-.9.7 1.2c.9 1.5 1.5 2.7 1.7 3.5.1.4.7 1.9 1.3 3.3 2.3 5.9 2.9 10.6 1.4 10.6-.5 0-.8-.3-3.2-4-3.1-4.7-4.8-6.7-7.7-8.9-1.5-1.1-1.5-.9 0 .6 5 5.1 9.4 16.8 9.4 25.3v2.4l.8-.3c1.2-.4 2.3-.5 2.3-.1 0 .3-.2.4-.9.5-2 .4-2.5 1-2.5 2.7 0 .1.5 0 1.5-.3 2-.7 5.2-.9 5.2-.3 0 .3-.1.3-1.5.4-2.4.2-5.5 1.1-5.5 1.7 0 .2.1.2.3.1 2.6-1 7.1-1.3 7.1-.4 0 .3-.1.3-1.8.3-3.9 0-5.6.7-6.3 2.5-.8 2-1.9 3.4-3.7 4.7-.8.6 2.6-.2 3.9-.8l.5-.2-.5.7c-1.1 1.6-3.3 3.4-5.2 4.3-1.8.8.1 1 2.9.3 2.7-.7 3.8-.5 5.2 1 .9 1 .9 1 1.1.4.6-2.6 4.7-2.9 6.1-.3l.4.8-.1-2c-.1-1.1-.2-2.7-.3-3.5-.2-1.7-.3-1.7.3-1.5 1.1.3 2.7 2.3 4.4 5.6 1.2 2.5 1.2 2.3.3 2.9-1.3.9-1.8 2-1.5 3.7l.1.6.3-.7c.4-.9.9-1.3 1.6-1.3h.6l-.6.4c-1.4.9-2.1 4.1-.8 3.9.3 0 .4-.2.6-.7 1-2.9 3.3-2.1 4.7 1.5.4 1 .9 2.1 1 2.6l.3.8.3-.5c.4-.8.1-2.2-1.5-6.9-2-6-2.2-7.2-1.2-7.2.6 0 .8-.1.9-.6.1-.3 0-.6-1-2-1.2-1.6-1.2-2.2-1.1-9.7.1-3.7-.5-5.5-3.4-10.8-1.3-2.4-4.1-7.9-4.1-8.1 0 0 .3-.2.7-.4l.7-.3-.7-.5c-1-.7-1.8-2.1-1.9-3 0-.1.5-.4 1.1-.7 1-.5 1.8-1.1 1-.8-2.1.9-5.3-1.6-6.6-5.1-.7-1.9-1.1-2.7-2.5-4.5-.6-.9-1.5-2.2-2-3-.4-.8-1.8-3-3.1-5-2.7-4.1-2.5-3.7-1.5-3.8 1.5-.2 2-.7 1.3-1.1-1.5-.8-3-2.9-5-7l-1.9-3.9-1.4-1.4c-.9-.9-2.4-2.1-4-3.2-10.5-7.2-18-16.5-22.1-27.4-2.3-6.3-4.9-21.4-4.9-28.9v-3.8l.7 1.3c1.4 2.8 2.4 5.6 4 11.8 3.5 13.5 5.1 18.2 7.9 23.9 3.3 6.6 8.7 13 13.2 15.6 1 .6 4.5 2 4.6 1.9.2-.2-2.4-2.9-5-5.2-5.1-4.6-7-7.3-8.2-11.8-.4-1.3-.4-1.6-.2-1.8.3-.3.5-.1.7.6.7 3.9 2.9 7.4 6.6 10.9 3.8 3.5 6.3 6.1 7.1 7.3.4.6.8 1.1.8 1.1.1 0 .7.5 1.5 1.2l1.4 1.2-.6-1.2a32.1 32.1 0 0 0-8.1-10.2c-1.6-1.3-1.9-1.8-1.4-2 .1 0 .9.5 1.7 1.2 4.2 3.5 7.5 8 9.7 13 .3.7 1 1.9 1.6 2.8 1.7 2.4 2.9 4.4 5.2 8.8 5.9 11.4 8.9 14.8 14.7 16.7 1.5.5 1.6.4.3-.3-5.2-3-9.3-8.8-11.4-16-.5-1.8-.5-2.2-.1-2.2.2 0 .4.3.7 1.4 2.1 7.8 6.6 13.9 12.4 16.8 1.1.6 3.4 1.4 3.7 1.4.1 0-.7-.8-1.7-1.8-3.2-3.1-4-4.7-4-7.9 0-1.5-.1-2.3-.3-2.9-1.1-3.4-1.7-10.3-.8-10.1.3 0 .3.4.4 2.6.4 8.4 3.7 14.8 9.5 18.2.2.1.2 0-.1-.3-2.2-3.4-3.7-7-4.4-11.3-.3-1.9-.3-2.1.2-2.1.2 0 .3.1.3.4 0 2.7 2.3 9.3 4.4 12.2 1.5 2.2 1.4 2.1 5.8 3.9 8.5 3.5 15 7.9 18.6 12.6l1.2 1.7-.1-.8c-.3-1.8-.2-5.6.3-7.5 1.1-4.7-1.3-12.3-5.5-17.9-.5-.6-.8-1.2-.8-1.4.5-2.4 6.1 8.2 7 13.2.3 1.6.4 1.5.8-.2 2-10-4-20.6-13.8-24.2l-1.2-.5c3.6-.3 9.9 2.5 13.3 6l1.5 1.5c0-3-4-8.9-7.7-11.1-3.1-1.9-10.6-4-18.3-5.1l-2.7-.4 1.7-.2c2.9-.3 9.1-.2 11.2.2 1.7.3 1.8.3 2.1 0 1.2-1.2-8.2-1.8-15.5-1-1.7.2-3.6.4-4.2.5l-1.1.1v-1.2c0-1.5.3-1.4-3.4-1.2l-3.3.2c-.1-.1.9-1.9 1.2-2.1 1.2-.8-2.4-1.9-7.7-2.4-4.2-.4-6.8-1.1-10.8-3.1-2.1-1-2-1.1.2-.4 3 .9 12.5 2.6 12.9 2.3.2-.1.2-.7 0-.8-.1-.1-1.5-.3-3.1-.5-8.2-1.1-13.2-2.7-17.3-5.3-.6-.4-1-.7-1-.7h1.5c1.8 0 2.9-.5 4.5-2l1-.9-3-.1c-10.7-.3-15.7-6-23.1-26.5-5.6-15.3-7.4-18-15.5-23.7-2-1.4-4.1-3-4.6-3.6-.3-.3-.2-.3 1.3-.3 1.9 0 3.2-.4 4.9-1.4 1.1-.7 1.4-1 .8-1-2.1 0-8-2.9-12.2-6-1.1-.8-3.5-2.5-5.4-3.9-9.6-6.9-12.8-10.7-12.8-15.5v-.8H275c-2.2 0-4-.7-5.6-2.2-1.1-1-1.2-.9 1.6-2.4 1.7-.9 2.2-1.3 1.8-1.2-1.5.2-4.9-.8-11.1-3.5-1.9-.8-4.3-1.8-5.2-2.1-2.8-1-4.2-1.8-5.6-3.2-1.5-1.5-1.5-1.5-.2-1.7 1.9-.4 6.1-1.9 6.1-2.2 0-.1-.6-.2-1.3-.2-4.5-.4-9.8-1.8-15.4-4-1.4-.6-4.2-1.6-6.1-2.3-3.1-1.1-7.2-2.7-7.4-2.9 0 0 .3-.2.8-.3 1-.3 2-1.2 2.5-2.1l.4-.7-.6.3c-1.9.9-9.1-.8-15.9-3.9-3.9-1.8-7.1-2.7-11.9-3.3-4.6.3-5 .2-5 .4m-4 34.2c0 .4-2.3 3.3-3.6 4.8a30 30 0 0 1-11.7 7.6c-1.3.4-1.3.5-.8.6 1.5.4 5.6-.2 7.9-1.3.7-.3 1.3-.6 1.3-.6.4 0-1.1 3.1-2.1 4.5-1.8 2.4-8.2 9-10.2 10.5-2 1.6-7.2 4.6-7.8 4.6-.2 0-.1.1.3.4.6.3.9.4 3 .4 1.3 0 2.3 0 2.3.1 0 .2-3.3 4-5.8 6.5-4.7 4.8-7.1 9.2-8.3 15.2-.4 2.1-.4 2.1.4.9.7-1.1 2.1-2.5 3.4-3.2 1.1-.6 1.2-.6.6.2-1.8 2.4-2.6 6.1-2.3 10.6.7 9.3 2.1 14.1 5.8 21 2.2 4 3.5 6.7 4 8.5 1.6 5.4.4 10.7-3.2 14.6-.7.8-.8.9-.4.8.9-.3 3.1-1.4 4.2-2.1.6-.4 1.1-.7 1.1-.7 0 1.8-1.5 7.8-1.9 7.8-.1 0-.5.7-.8 1.5-.7 1.9-3.5 6-9.7 14.3-1.9 2.6-3.1 3.7-6 5.6-.9.6-1.4 1-1.4 1.2 0 .7.5.5 2-.5l1.5-1-1.8 2.8c-1 1.5-3.2 5-4.8 7.8-1.7 2.8-3.7 6-4.4 7.1-1.3 1.9-1.4 2.1-1.1 2.5.2.4.9 3.2.9 3.9 0 .3-.1.4-.3.4h-.3c0-1-.8-3.9-1.1-3.6 0 0-.4.5-.7 1.1l-.7 1 .5.6c.9 1 1.3 4.5.5 4.6-.3 0-.4 0-.4-1.5-.1-1.6-.4-2.6-1-2.7-.2 0-.8.7-1.8 2.3-3.4 5.2-4.6 7.7-5.9 12.3-2.8 9.5-4.1 12-8.5 15.9-2.7 2.4-3.4 3.2-4.5 5.6-2.7 5.6-2.7 5.7-2.8 6.9 0 1-.1 1.3-.7 2.1-.6.9-.6 1-.7 2.8-.2 3.6.2 4.5 1.1 2.7.5-1.1 2.8-3.6 3.9-4.4 1-.7 1.1-2.1.4-4.1-.6-1.7-1.6-1.5-2.9.5-.8 1.2-1.1 1.3-.7.3.9-2.2 2.5-3.1 3.8-2.3l.6.4 1-1.6c1.8-2.7 4-4.8 5.4-5.2.6-.2.6-.2-.9 1.4-3 3.1-4.4 6-4.4 9.2v.9l.8-1.3c2-3.3 3.3-3.6 5.3-1.2.8 1 1.4.4 1.7-1.6.5-4 2.1-6.1 4.3-5.9 1.4.1 1.6.3.7.7-2.3 1-3.4 4.7-2.6 9.5.3 1.8.4 1.8.4 0 0-4.5 3.3-6.2 5.6-2.9.4.6.8.1.8-1s.6-2.3 2-3.8 1.5-1.4 1.1.1c-.3 1.1-.6 4.7-.4 4.7.1 0 .3-.3.4-.6.6-1.1 1.8-2.2 2.5-2.2 1.4 0 1.9 1 2.9 5.1.6 2.5.7 2.7.8 2.1 1.3-5.7 1.4-8.2.5-10-.9-1.9-.8-2.4.6-4.4 1.3-1.9 4.1-13.8 4.8-20.6.4-3.8.8-5 3.3-10.1 3.5-7.1 3.5-7.1 5.8-9.8 2.3-2.7 3.4-4.4 6.2-9.8 6.4-12.1 13.2-20.9 23.5-30.3 1.1-1 2.4-2.3 2.9-3l1-1.2-.1.7c-.4 2-1.4 4.4-2.8 6.3-1 1.4-1 1.4-.7 1.6 1.2 1 4.1-4.9 4.7-9.4.3-2.7.7-2.8 2.9-.5 1.7 1.7 1.6 1.7 1.6-.7 0-3.3-.8-7.5-1.8-9.2l-.4-.7.4.2c.7.3 1.3.7 1.8 1.4l.5.7-.1-.7c-.2-1.2-.8-2.7-2.5-6.3-1.9-3.9-2.1-4.4-2.1-4.7 0-.1.4.6.9 1.6 1.4 2.8 4.6 6.5 5.4 6.2.1-.1.3-.1.3-.1.3 0-.1-.7-1.2-1.7-4.2-4-6.2-9.7-5.2-14.5 1.1-4.8 4.6-13.8 6.5-16.8 1.7-2.6 4.1-4.3 6.8-4.7 1.8-.3 1.1-.5-1-.4-1.7.1-3.4.6-4.7 1.4-1.2.7-1.1.7-1-.4.3-3.5 6.5-5.2 12.1-3.3.8.3.9.2.2-.7-.6-.9-2-1.6-4.5-2.3-6.9-2-9.3-7.8-8.7-20.7.1-2.1.2-4.7.3-5.9.1-2.6.1-2.6-.5.1-1.2 5.7-3.3 11.1-5.3 13.2-1.5 1.6-4.2 2.5-5.5 1.8l-.4-.2s1 1 2.2 2.3c4 3.9 5.6 7.3 5.1 10.8l-.1 1-.5-.8a8.92 8.92 0 0 0-5.6-3.6c-1.4-.2-1.5-.2-.8.7 3 3.9 2.9 11.9-.2 16.4-.6.8-.6 1.3-.1 1.4.3 0 .5-.2 1-1 2-3.2 2.8-7 2.5-10.6-.2-2-.2-2 .4-.3 1.6 4.3 1 8.2-1.7 11.8-1.1 1.4-1.1 1.5.1 1 1.3-.5 2.6-1.5 3.3-2.5.7-1 .7-1 .5.4-.2 1-.5 1.5-2.7 4.9-2 3.1-4.7 5.6-8.1 7.6-1.6.9-1.7 1-1.3 1.4.9.9 6.7-3.6 9.4-7.2 1.4-1.8 1.4-1.7.3.8-1.5 3.4-3.7 6.8-6.5 9.9l-.4.4.4-.1c.2-.1 1-.4 1.6-.7l1.2-.5-.9 1.6c-2.2 3.6-3.8 8.9-3.6 11.5 0 .5.8.2.9-.3.6-3.9 1.2-6.2 2.5-8.7l.7-1.4v.8c0 .5-.2 1.1-.4 1.5-2.1 4-3.2 11.8-1.7 11.8.4 0 .4 0 .4-1.3-.1-3 1.6-10.7 2-9.4 2.7 7.6 1.7 12.9-3.8 19.8-2.5 3.1-3.2 4.3-4.3 6.7-1.5 3.2-1.9 3.8-3.9 6.1-4.4 5-7.7 9.3-12.6 17.1l-1.4 2.2-.5-.6c-.9-1.2-3.2-2.6-4.1-2.5-.4.1-.6.8-.3.9 2.5.7 4.5 2.7 3.8 3.8l-.3.5-.5-.7c-1.5-2.3-6.5-4.9-6.5-3.3 0 .4.1.5 1.3.8 2 .5 3.7 1.8 4.7 3.5l.5.8-.3.7-.3.7-.6-1.3c-1-2.1-3.1-4-3.8-3.3-.3.3-.3.3.3.7 2 1.6 2.9 2.9 3.1 4.7.1 1-1 2.9-3.2 5.4-.6.7-1.6 1.8-2.1 2.6-1.9 2.4-3.7 3.1-5.4 2.1-1.3-.7-1.5-2.1-.9-6.1.7-5 1.5-6.5 6.4-12.7 3.1-4 6.5-8.6 8.1-11.1 1.9-3 3.5-3.7 7.5-3.6 1.8.1 2.4-.2 1.9-.7-.4-.4-4.6-.3-5.8.2-1.8.7-1.2-.2.7-1 2.4-1 5.3-1.2 7.7-.6 1.1.3 1.3.3 1.5 0 .5-1.3-5.2-1.8-8.4-.7l-1 .3.4-.3c1.6-1.3 4.8-2.3 8.3-2.5l2.3-.1v-.4c0-1-5.9-.4-8.9.9-.4.2-.8.3-.8.3-.2-.2 3.4-3.7 4.4-4.4 1.6-1.1 1.6-1.1.3-1-1.3.1-2.9.8-4 1.6-.8.6-.8.5-.2-.4 1.5-2.5 4.8-4.3 7.5-4 1.2.1 1.2.1 0-.6-4.3-2.4-4.8-6-1.7-11.6 1.2-2.2 2-3.8 2.2-4.6l.1-.4h-4.4l3.6-2.7c4.2-3.1 4.6-3.5 3.6-3.1-5 2.1-9.6 1.8-10.7-.9-1.1-2.4-1.1-5 0-7.1.6-1.1.5-1.5-.1-1.4-1.3.2-2.1 4.6-1.3 7.2l.2.8-.6-.7c-2.5-2.7-2.6-10.3-.2-15.3.7-1.5.7-1.9.2-1.9-1.3 0-2.9 6.2-2.8 10.5l.1 2.6-.4-.7c-2.8-5.3-1.1-17.5 3.4-24.5.8-1.2.9-1.5.5-1.7-1.6-.6-5.7 9.9-6 15.6-.1 2.5-.3 2.8-.5.6-.6-8.6 2.7-18.2 8.9-25.5l.9-1.1-.6.1c-.8.1-3 1.1-3.7 1.7-2.2 1.7 3.2-3.9 5.8-6 1.8-1.4 5.3-3.8 6.7-4.6 1.2-.6 1.2-.7.1-.9-1.8-.4-4.5 0-6.2.8-1 .5-1 .5-.2-.7.5-.7 2-2.1 4.2-4.1 8.4-7.5 12.5-12.6 14.4-18.1.5-1.3.4-1.6-.1-1.6-.3 0-.5.2-.8 1.3-1.4 4-4.2 8-8.6 12.4-2.6 2.6-5.7 5.5-5.7 5.3 0-.5 4.3-6 7.3-9.3 2.4-2.7 3.6-5.6 4.4-10.5.5-3.1.6-3.9 1-4.9.1-1.1.1-1.4 0-1.4 0-.1 0-.1 0 0m-80.7 19.6a24.3 24.3 0 0 0-4.9 6.4c-2.3 4-4.1 8.1-5.4 12.1-.8 2.4-.8 2.4-.8 1.5 0-5.8 3.9-15.7 8-20.3 1.5-1.7 1.4-1.9-.3-1-2.6 1.3-5.4 3.7-6.9 6l-.6 1-.4-1.5c-.4-1.5-1.8-4.6-2-4.6-.1 0-.6.8-1.2 1.9-2.5 4.3-4.1 5.3-7.3 4.7-.8-.2-2.9-.3-5.6-.4-4.4-.1-5-.2-5.4-.9-.5-.7-.3.7.2 1.6l.5.8-1.3-.4c-2-.6-5.4-.6-8.4 0-2.6.5-4.1.6-7.7.2-2.5-.3-4.4-.2-8.5.2-1.7.2-2 1.1-1.3 3.7.6 2.7 1.8 4.2 4.8 6.1 3.9 2.6 6.4 6 5.6 7.9l-.3.6 1-.1 1-.1v1.2c0 1-.1 1.3-.5 2.1-.4.6-.5.9-.3.9.7.2 1.4.2 2.1 0 .5-.1.8-.2.8-.2s-.2.8-.3 1.7c-.4 2-.4 2.5-.1 1.8.4-.8.8-1.2 2.5-2.3 2.7-1.9 2.9-3.1.4-3.1-1.8 0-1.8 0-3.7-3.1a52.9 52.9 0 0 0-7.9-10.1c-1.7-1.5-2.6-3.5-1.9-4.1 1.3-1.1 5.5.1 12.9 3.8 7.5 3.7 9.3 5.1 10.2 7.7.4 1.3 1.2 1.7 1.9.9 1.3-1.3-.2-3.8-3.5-5.6-1.6-.9-6.8-4.2-6.7-4.3.1-.1 9.7 3.8 10.3 4.3.7.5 1.4 1.3 2.2 2.5.7 1 .9.7.5-.8-.6-2.7.1-4 2.2-4 1.3 0 1.4-.2.6-1-1.6-1.7-1.5-2.1.5-3.1 1.9-.9 1.8-.7.4-1.7-1.5-1-1.5-1 1.3-.1 1.3.5 3.3 1 4.5 1.2 1.9.4 3.6 1.1 3.6 1.5 0 .6-5.2 1.8-6.3 1.6-1-.2.1.4 2.7 1.7l2.7 1.3h-2.9c-3 0-7.3.3-7.7.5-.1.1-.1.2.1.6 2.9 4.1 1.7 6.6-2.9 6.6-2.6 0-3.4.5-2.8 1.9.6 1.7 2.1 2.4 5.4 2.7 2.1.2 4 .6 5.3 1.2 1.1.5 1.1.4.2-1.6-1-2.2-1-2.1.4-1.6 1.1.4 1.3.4 4.6 3.1a8.1 8.1 0 0 1 3.2 6.5v1.3l-1.3-2c-1.8-2.9-3.2-3.6-2.3-1.1.5 1.5.6 4.7.2 5.9l-.2.7-.6-2.5c-1.5-6-2.6-6.7-11.3-6.7-5.2 0-5.7-.1-7.4-1.4-.7-.5-.7-.5-.7-.2 0 .9 1 2.1 2.4 3.1l.9.6-1.6.1c-1.9.2-1.9.1-1.1 1.8 1.3 2.5 3.4 3.4 6.4 2.4 4.5-1.4 9.6 2.8 12.5 10.1 2 5.2 3.3 4.6 4.9-2.4 1.2-5.1 1.9-7.1 2.8-7.8l.5-.4.1.4-.2 4.2c-.5 6.8-.3 8.9.5 9.2.3.1.4 0 .8-1.1.2-.5.5-1.5.7-2.2l.4-1.2.5 1.5c.7 1.9.5 1.8 1.9 1.8.7 0 1.3.1 1.7.3 1 .5 1 .1 0-.9-2.3-2.5-3.4-9.9-2.2-14.6.6-2.3 2.7-6.7 2.3-4.8 0 .2-.1 1.6-.2 3.1-.1 3.2-.1 3.2 1.4.2 2-4 4-5.7 7.8-6.9 1.9-.6 6.6-1.2 6.2-.8-.4.4-5.4 4-6.8 4.8-4 2.5-6.3 6.2-6.6 10.6l-.1 1.6-.4-.4c-.5-.5-1.1-1.8-1.4-2.9-.3-1.3-.5-.8-.6 1.4-.1 3 .7 5.7 2.4 8 .8 1 .8 1.1.8.3 0-1.1 2.7-4.6 4.8-6.2 2.9-2.3 5.7-3.6 10.6-4.9 4.6-1.2 5.9-1.8 6.8-3.1.6-.8.6-.8-.3-.5-.9.3-2.7.5-3.7.3l-.8-.1 1.3-.4c1.4-.4 3-1.2 4-2 4.1-3.2 7.9-6.7 7-6.3-.1 0-.9.5-1.9.9-4.4 2.3-7.2 3.2-9.2 3.2h-1.4l.9-.4c2-.8 4.9-2.5 6.3-3.6.4-.3.3-.3-.5-.2-1.3.1-2.6-.5-7.4-3.5-1.3-.8-3.8-3.2-4.3-4.1l-.3-.5 1.4-.7c.8-.4 2-.8 2.6-1l1.2-.3-.7-.1c-.9-.1-1.8-.5-2.2-.9-.7-.6 6-6.3 8.5-7.3 1.9-.7 4-.9 2.6-.2-2.6 1.2-7.4 5.3-7.4 6.3 0 .8 4.2.7 6.4-.1.5-.2 1-.4 1.2-.4 1.1-.4-1.4 1.3-3.4 2.3-3.3 1.6-3.7 1.9-3.7 3.2v.7l.9-.1c1.3-.2 2.7-.9 4.9-2.8 3.3-2.8 5-3.9 6.9-4.5.7-.2 5.7-.5 5.5-.3-.1.1-2.1 1.1-4.5 2.4-5.4 2.8-8.9 5.2-10.2 7.1l-.4.5.7.7c1.8 1.6 2.6 1.9 3.3 1.1 3.6-4.3 7.1-6.9 14.8-11 3.1-1.6 3.9-2 5.2-2 1.1 0 1.2.2.7.9-1.1 1.5-2 3.6-3.3 7.7-2.6 8.6-5.8 12.8-9.6 12.9-1.2 0-1.3.1-.7.8.5.7 1.3 1.1 2.7 1.3.6.1 1.7.3 2.4.5 2.3.6 3.7.5 2.4-.1-1.5-.7-1.7-1.5-1.1-2.9l.3-.8.3.7c.3.8.6 1.2 1.2 1.6.6.4.7.4.4-.5-.3-1.1-.3-3.1.1-4.7 1.1-4.6 5.6-14.4 7.6-16.6.7-.8 1.2-1.7 1.3-2.5.1-.3.3-.9.5-1.1l.4-.5-.5-.2-1-.3-.5-.1.8-1.5c.4-.8.7-1.5.7-1.6 0 0-1.8.5-3.9 1.3-3.2 1.1-4.5 1.4-3.7.9.2-.1 1.2-1.8 1.2-2 0-.1-.2.1-.4.3-1.9 1.8-5.7 2.3-10.4 1.5-6.4-1.1-11.5-.2-15.8 2.6-.5.3-.9.6-.9.5 0-1 2.5-4.1 4.3-5.3 1.4-.9 1.2-1.1-1.2-1.1-3.5 0-9 4.6-11.8 9.8-1.2 2.2-2.1 3.8-2.2 3.7-.1-.1.7-3.1 1.3-4.8.9-2.6 1.1-2.8 5.7-6.9 1.6-1.4 3-2.6 3-2.7 0-.2-5.5.3-6.4.6-5 1.8-10.5 9.9-14 20.6-.5 1.5-.9 2.8-1 2.9-.2.2-1-3.3-1.2-5.1-.5-3.8 1.2-8.9 4.6-14 1.8-2.6 1.9-2.5.5.5-3.6 8-4.5 11.7-3.5 13.7.3.5.3.5 1.3-3 1.7-5.8 4-9.9 7.6-13.7 1-1.1 2.3-2.5 2.8-3.1 1-1.2 1.6-1.8 2.5-2.3.5-.3.5-.3.1-.3-1.5 0-4.4 1.1-5.8 2.1-.8.7-.8.8-.6-1.3.1-1 .1-1.8.1-1.8-.2.7-1.3 1.8-2.7 3.1M72.9 183c-.1.1-.9.7-1.8 1.3-2 1.3-2.5 2-3.4 4.3-2.3 6-3 9.5-3 15 0 3.3-.6 6.5-1.5 8.7-.6 1.4-.6 1.4.7 3.4 2.1 3.2 4.2 4.8 7.6 6 2.4.8 2.7 1 4.9 2.3 2.3 1.4 4.9 2.7 5.4 2.7 1.1 0-.6-4.4-2.3-6.2-.8-.8-3.1-2.3-3.3-2.1-.1.1.5 1.5.9 2.2.5.8.5.9-.3.4-3.2-1.6-5.2-4.9-6.3-10.8l-.2-1-.4.5c-.5.7-2 2.2-2.5 2.6l-.4.3v-15.4l.6-1.7c.7-2.2 1.7-4.1 2.5-4.9l.6-.6-.1.8c-.1.4-.2 1.7-.4 2.9-.2 1.8-.7 4.1-1.3 6.3-.1.4 0 .3.8-.4 1-.9 2.4-1.7 2.6-1.5.1.1-.3.7-.7 1.5-1.5 2.5-1.6 2.7-1.9 5.4-.2 1.4-.3 2.5-.3 2.5s.6-.4 1.3-.9c1.8-1.3 2.3-1.6 4.5-1.8 2.2-.2 2.2-.2 1.5.5-.7.8-1.9 1.6-3 1.9-1.3.3-1.4.2 2.9 1.6 1.8.6 3.9 2 3.5 2.4-.2.2-2.6.8-4.1 1-1.6.2-1.6.2-.9.9.8.8 1.6 1.3 4.4 2.9 2.7 1.6 2.4 1.5 2.5.8.2-.9 1.7-3.8 2.6-5 1.1-1.4 1.6-1.8 2.8-2l1-.2-.8 1.3c-.9 1.5-2.1 3.9-2.5 5.2-.3 1-.7 5.9-.7 9.1 0 3.3.4 4.8 2.3 8 .8 1.3.9 1.3.3-.1-.9-2.2-1.5-5.5-1-5.5.1 0 .6.5 1.1 1.1 1.3 1.4 2.2 1.7 4.7 1.7 3 0 4.1-.5 4.1-2 0-1.4.3-2 1.1-2.7 1-.8 1.1-.6 1.4 1.1.4 2.7.6 2.8 5.1 3.1 3.7.3 7.1-.2 9.1-1.3 2.4-1.4 5.3-5 6.4-8 1.2-3.4 3.7-4.6 11.7-5.8 2.2-.3 2.3-.3 1.4-.5-1.2-.2-2.5-.6-3.7-1.2-1.5-.8-1.6-.9-.8-.9 2.3 0 5.6-.7 9-1.8 1.4-.5 2.9-.9 3.3-1l.8-.1-.9-.5c-.5-.3-1.5-.7-2.2-.9-1.4-.5-2.7-1.2-3-1.7-.3-.6 3.5-1.6 6.1-1.6h1.4s-.4-.6-.9-1.3c-3.8-5-3.6-10.4.5-14.7 2-2.2 2.1-2.3.9-2.8-1.7-.7-2.6-.4-4.8 1.8-2.8 2.9-3.4 4-3.8 6.1-.4 2.1-1.6 3.5-5 5.8-1.3.9-1.6 1.2-1.4 1.3.2 0 1.2.2 2.3.4 2.7.5 3.8.8 4.4 1.3l.5.4-3-.1c-3.7-.1-4-.1-7.9 1.4-3.9 1.5-4.5 1.6-7 1.5-3.1-.2-3.3-.1-6.6 3.8-1.2 1.4-2.1 2.5-2.2 2.5-.3 0 1.8-3.8 2.9-5.3 1.9-2.5-.5-3.6-4.1-1.9-.8.4-1.5.7-1.5.7v-1.1l.1-1.1-1.7 1.8c-1.6 1.7-1.7 1.7-1.8 1.3-.1-.2-.3-.8-.6-1.3-.4-.8-.4-1.1-.4-2.7 0-2.3-.2-2.1-.7.5-.2 1.1-.6 2.7-.9 3.6-1.1 3-1 3.2 1.4 4.2 2.9 1.2 4 1 5.7-.7 1.2-1.2 1.2-1.3.5 1.1-.5 1.8-.4 2.3.7 3.7l.9 1.1-.1 1.3c-.1.7-.2 1.5-.2 1.7-.1.5.2.5 1.7.1.9-.3.6.1-1 1.8-3.1 3-9.1 5.2-10.8 3.9-.4-.3-.6-.3-3.6-.2l-3.2.1-.6-.4c-2.6-1.8-3.8-6.6-2.5-9.4 1-2.1 2.7-3.3 5.7-4 1.2-.3 2.1-.6 2.2-.8.1-.1.3-.7.6-1.3.3-.6.8-1.4 1.2-1.8 1.3-1.4.7-1.9-1.4-1.3-1.9.6-3.5 0-3.7-1.4-.1-.3-.1-.8-.2-1.1l-.1-.5-.2.4c-.7 1.4-8.6 1.2-12.2-.4-1.3-.6-3.5-3.1-3.8-4.4l-.1-.6 1.2.7c1 .6 3 1.3 3.3 1.3 0 0-.5-.6-1.2-1.3-1.4-1.5-2.3-2.9-3.2-5.2-.3-.9-1-2.2-1.4-3-1.9-3.4-2.4-5-2-6.5.3-.8.1-1-.1-.6m73.2 6.8c-3 .5-2.9 2.8.7 10.3 1.9 3.9 2.5 5.8 3.7 10.8l.1.5-1.1-.6c-1.1-.6-2.6-1.1-2.8-.9-.4.4 1.2 3 2.5 3.8l.8.5-1.2.4c-2 .6-4 .9-6.5.9H140l.9.5c1.1.6 2.7 1 4.9 1.1l1.6.1-1.4.4c-3.6 1-8.4 1.6-12.1 1.5-1.2 0-2.2 0-2.2.1-.2.2 1.5 1.5 2.8 2.2.7.4 1.2.7 1.1.7-.6.2-2.8.6-5 .8-5.9.6-6.6.8-8.6 2.1-.7.5-2.2 1.2-3.2 1.7-2.4 1.2-2.6 1.4-2.8 3.2-.1 1.6-.8 3-2.3 5.1-1.2 1.6-1.9 2.8-3.4 5.3-2.2 3.9-3.4 4.4-10.9 4.2-6.9-.2-7.6-.4-9.8-3.6l-.9-1.3.1 1.2c.2 3.7 2.2 5 7.9 5.2 1.9.1 2.9.2 2.8.3-.1.1-1.3.1-3.5.1l-3.4-.1.1.4c.1.5 1.9 2 3.6 3.1 1.5.9 1.6.9 1.3 0-.1-.3-.2-.7-.2-.7.1-.1 2.9 1.1 3.5 1.6l.6.5.9-1c.7-.8 2.3-1.8 2.7-1.8 0 0 .2.3.3.6.4 1.1.8.8 3.8-2.5s3.3-3.7 4.5-5.9c2.3-4.1 5-6.9 7.4-7.8.8-.3.6-.4-.9-.6-1.7-.1-1.6 0-.5-1.3 1-1.2 1.7-1.6 4.5-2.6 1-.4 2.5-.9 3.3-1.2 1.1-.4 2.2-.7 5.5-1.2 6.2-.9 8.3-1.4 11.2-2.8 1.4-.6 1.4-.8.2-.8-1.6 0-4.7-.9-4.2-1.2.1-.1.6-.1 1.1-.1 4.8 0 14.2-3.4 14.6-5.2.2-1-.9-3.5-3.9-9.1-1.2-2.2-1.5-3-2.7-6.7-.7-2.3-1.6-4.7-1.9-5.4l-.6-1.2.4.2c2.3.9 4.9 3.3 6.3 6 .4.8.7 1.3.7 1.1-.3-.8-.6-2.3-.8-3.5-1-5.5-3.5-8-7.3-7.4m-61 5.7c-.6.9-.1 2.9.9 3.5.8.5 2.6.5 2.8 0 .2-.5.1-.6-.8-.6-1.2 0-1.7-.6-1.7-2v-1.1l-.5-.1c-.3 0-.5 0-.7.3m37.3.3c-.6.3-.7.5-.8 1.1 0 1.1-1.1 1.6-2.2 1.1-.8-.3-1.1-.1-1.1.7 0 1.6 4.1.9 4.9-.8.5-1.3.1-2.6-.8-2.1M207 199c-.2.9-1 3.1-1.7 5-1.9 4.9-2.1 5.7-2.1 8.7 0 2.5.1 3 .5 2.4 2.6-3.7 13-5.2 21.2-3.1 6.1 1.6 12.1 5.5 15.3 9.9.9 1.3 1 1 .5-1-.6-2.5-2-4.9-3.8-6.9-1.2-1.3-1.1-1.3.9-.4 3.6 1.6 7.4 5.7 10.5 11.3.6 1.1.7 1.1.5-.2-.7-3.2-1.6-5.7-3-8.6-.5-1-.8-1.7-.6-1.5.2.2 1.2 1.3 2.3 2.6 5.6 6.3 10.7 10.2 15.7 12 1.4.5 1.4.4 0-.5-3.4-2.2-6.4-5.2-11-11.4-1-1.3-2.8-3.6-4-5.2-2.9-3.8-4.8-6.6-6.2-9.3l-1.1-2.2-.2.7c-.4 1.4-.3 5.9.2 7.4.2.7.4 1.3.4 1.3s-1.5-.4-3.2-.8c-2.1-.5-4.4-1-6.6-1.3-6.2-.9-10.1-2.5-15.3-6.4-2-1.5-1.9-1.5-1.9-.4 0 1.7 1.1 4.2 2.3 5.5l.4.5-1.2-.4c-3.5-1.3-6.7-4.5-8-7.9-.4-1.5-.4-1.5-.8.2m-16 8.8c-.1.2-.3 1.5-.2 1.3.1-.1.2-.4.2-.8.2-.6.2-.7 0-.5m-66.4 1.4c-4.6 2.4-5.5 3.4-7.1 7.4-1.4 3.4-4.8 8-6.1 8-.2 0 2-4.1 3.5-6.6 2.6-4.3 2.7-5.4 1.1-8.4l-.6-1 .5.1c.8.2 8.3.1 9.1-.1 1.2-.3 1.1-.2-.4.6m-29.3 2.2c-1.5.3-4.3 2.1-4.9 3.1-.7 1.1-1.1 4.1-.6 4.9 1.3 2.1 4.5 2.4 4.5.4v-.5l-1 .1c-1.3.1-1.7-.2-1.8-1.6-.1-1.2 0-1.3 1.4-1.5 3.1-.6 3.7.8 2 4.8l-.4 1 1.1.3c3.4 1 4.9.1 4.7-2.8-.2-2.2-.1-2.3 1.6-2.2 2.6.1 3 2 .5 2.7-1.8.5-1.5 1.6.4 1.6 3.2 0 4.9-4.5 2.4-6.4-.9-.7-4.9-1.2-9.5-1.2h-3.1l.4-.4c1.4-1.2 6-1.1 11.3.2.4.1.4.1-.2-.4-1.7-1.5-6.3-2.7-8.8-2.1m129.3 6.8c-1 1.3-2.8 4.9-3.3 6.8-1.2 4.3-1.2 11.4.1 11.4.5 0 .5-.2.2-2.5-.3-1.9-.1-5.2.3-7.2.4-1.9.6-2 .4-.4-.4 4.6 2 12.2 4.9 15.4l1.2 1.3.1-1.5c.1-1.7.5-3.7 1-4.9.3-1 .4-1 .8 1.2 1.3 7 5.9 14.5 11.7 18.9 1.2.9 1.2 1 1-1.7-.1-1.3-.2-2.3-.1-2.3 0 0 .9.9 2 2.2 1.1 1.2 3 3.4 4.3 4.8 1.9 2 2.3 2.6 2.3 2.9-.2.6.1 1.2 1 2.7 4.9 7.4 5.5 15.2 1.7 20.7-1.5 2.2-11.6 13.4-13.9 15.5-4.4 3.9-11.9 9.4-13.8 10.1-8.7 3.4-7.5 3.1-12.1 3.1h-3.7l-1 .5c-2 1-2.6 2.5-1.1 3 2.1.6 2.6 2 1.9 4.3-1.2 3.7.3 3.2 1.8-.6 1.5-3.8 2.6-4.8 5.8-5.2.9-.1 2.2-.3 2.9-.4 1.5-.2 1.5-.2.9.5-.5.5-.6.6-2.1.7-1.7.1-2.3.3-4.1 1.6-1.3.9-1.7 1.6-.9 1.6 2.2 0 3 2.7 1.6 5.8-.7 1.7-.7 2.2 0 2.3 1.4.3 2.1-1.2 2.8-5.6.3-1.9.3-2 .6-1.7.4.4.4 1.9 0 3.3-.8 3.1-.6 3.6.5 1.3a15 15 0 0 1 1.8-2.8l1-1.1.8.1c.6.1.7.1.6-.1-.6-.6-.1-2.1.9-3.2 1.3-1.3 1.4-1.3 1 .1-.8 2.8-2 5.6-3.6 8-.9 1.4-.9 1.4.4.6 2.9-1.9 5.1-5.4 7-11.1l.9-2.7.2.7c.3 1.1.5 2.6.4 3.4-.1.5 0 .6.1.5.1-.1.2-.5.2-1 0-2.6 1.5-5.1 5.3-9 1.2-1.2 2.8-2.9 3.5-3.8 1.7-2.1 6.3-6.7 7-6.9l.5-.2-.9-.6c-.8-.5-.8-.6-.5-.7 2.1-.7 3.8-1.8 5.1-3.5 1-1.2.9-1.3-.8-1.3h-1.5l1.1-.7c2.2-1.3 5.1-4 6-5.5l.3-.5-.5-.1c-.6-.1-.6-.1.2-.9.4-.4.8-.9.9-1.2.2-.3.7-1 1.2-1.6 2.7-3.1 5-7.4 4.1-7.8-.4-.1-.5 0-1.1 1.5-.5 1.1-2 3.8-2.2 3.8 0 0 .1-.4.3-1 1.1-2.8 1.4-7.6.6-10.3-.2-.6-.8-.3-.8.5.3 5.3.2 6.7-.5 8.7l-.2.6v-.9c-.1-3.6-1.2-8.3-2.8-10.8-.1-.2-.6-1.1-1-2-.9-1.8-2.6-4.6-4.9-7.6-1.5-2.1-1.7-2.5-2.2-4.8-.3-1.4-.3-5.9.1-7.3.2-1 .2-1.2 0-1.4-.8-.8-1.3 1.4-1.3 5.1v2.6l-.4-1.4c-.9-3.2-1-5.1-.7-11.4 0-.6 0-.7-.4-.7-.9 0-1.1 5.9-.4 10.4.1.8-.2.1-.8-1.5-.7-2-1.2-5.2-1.6-8.7-.1-1.6-.3-3.4-.4-3.9l-.1-1-.5 1c-.9 1.9-1.3 3.9-1.3 6.3 0 1.2-.1 2.1-.1 2-7.3-8.8-12.2-15.3-12.5-16.6l-.1-.6-.4.9c-.5 1-.8 2.5-.8 4v.9l-.6-1.2c-1.7-3.5-1.8-6.6-.5-9.4.5-1 .6-1.3.4-1.5-.3-.4-.4-.3-1.2.7M77.1 230.7c-.8.8-1 1.1-1.6 2.9-2.8 7.7-7.5 12.4-13.6 13.8-.9.2-1.1.5-.8.9.4.5 3.9-.6 5.9-2 .3-.2-.3.4-1.2 1.3-5.1 5-14.5 10.5-23.8 13.9-2.2.8-2.3.9-2 1.3.3.4 1.2.5 2 .3l.7-.2-.5.6c-.3.3-1.5 2-2.8 3.7-1.3 1.7-2.3 3.1-2.3 3.1l1.5.2 1.5.1.4 1.4c2.5 9.9 4.5 14.4 10.4 22.4 2 2.7 5 4.2 9.8 4.9 1.4.2 3.1.6 4.1.9 3.2 1.1 6.5 1.4 8.8.8 1.3-.3 1.6-.5.8-.5-1.1 0-1.1-.5.1-.8 2.4-.6 6.3-3 4.2-2.6-1.2.2-1.6-.3-.9-1.3 1.8-2.7 2.7-7.1 1.4-7.1-.2 0-1 .3-1.8.7-6.4 3.2-10.3 2.2-13.7-3.5-.9-1.5-.9-1.5.2-1.2 2 .7 3 .2 1.6-.7-.5-.3-1.3-1-1.7-1.4l-.7-.7h.6c.8-.1 2-.7 2.9-1.6l.7-.7-1.4.1c-3.3.2-4.6-1.2-4.5-5 0-6.1 2.3-9.1 10.7-14.3 1.8-1.1 3.9-2.5 4.6-3.1 1.4-1.1 1.4-1.1 1.2-.3-.3 1.4-.4 3.3-.1 3.6.5.4.7.1.9-1.4.2-2.5.7-4 1.7-5 1.2-1.3 1.5-1.4 1.1-.5-.8 1.7-.8 3.5-.1 3.4.3 0 .4-.2.6-1.3.6-3.3 2.4-5.4 5.6-6.5 1.3-.4 1.3-.5.8-.6-.7-.2-3.1-2.6-4.3-4.3-1.2-1.7-1.1-1.7-1.4-1.1-.2.4-.3 1-.3 2.2 0 3-1.8 5.1-8.9 10.8-9.1 7.2-11.6 9.6-14 13.8-.8 1.5-1.7 3.6-2.1 5.1-.7 3-4 1.2-5-2.8-.3-1.2-.3-1.2-.5-.7-1 2.6-.9 6.5.3 9.1.5 1.1.5 1.4 0 1.4-.4 0-1.3-2.1-1.6-4-.5-2.6-.1-5.3 1.1-8 .5-1 1.1-3.2.9-3.3-.1-.1-1.8 1.9-2.5 3-.9 1.3-1.4 2.6-1.6 4.3-.3 1.6-.8 1.9-.8.5 0-2.6 1.7-5.7 4.8-8.7 1.1-1 2.7-3.2 2.2-2.9-2.9 1.7-5.3 3.9-6.5 6.1-.8 1.5-1.4.9-.6-.6 1-1.9 3.5-4.1 7.1-6.4 1.1-.7 2.5-1.7 3.1-2.3.6-.6 2.2-1.9 3.4-2.9 1.2-1 3-2.3 3.8-3l1.6-1.2 1.3.1c1.4.1 2.5.5 3.1 1.1.4.4.7.5.9 0 .4-.7-1.7-2-3.1-2-1 0-1.3-.2-1-.5.5-.4 3.5-.3 4.9.1 1 .3 1.4.3 1.4-.2s-2.6-1.2-4.2-1.2h-.7l.7-.7c.9-.9 2.3-1.2 4.3-1 .6.1 1.4.1 1.7.1.4 0 .5 0 .6-.3.1-.6-1.3-1-3.2-.9l-1.5.1 1-1.3c4.5-5.9 7-12.4 6-15.3-.5-1.3-.7-1.2-1.7-.2m33.9-.4c-.4.5-.4 1.3.1 1.8l.4.5.3-.4c1-1.1.1-2.9-.8-1.9m-6.8 2.1l-.5.6-.3-.4-.3-.4-.7.3c-.4.2-1 .6-1.3.9l-.6.6-.6-.6c-.7-.8-1.4-.8-1.9 0l-.4.6-.3-.5c-.5-.8-1.1-.9-1.9-.5l-.6.4-.4-.4c-1.4-1.5-2.7-1.2-2.5.5.5 2.9 1.1 3.5 2.3 2.2l.9-1 .4.4c.9 1 2.1 1 2.5.1l.2-.5.3.6c.6 1.1 1.7 1 2.2-.2l.2-.5.9.8c1.1 1 1.3 1 2-.2.5-.9.5-1 .8-.6.1.2.6.7 1 1l.8.7.5-1.6c.3-.9.6-1.7.6-1.9.1-.3-1.6-1-2.2-1-.4 0-.7.2-1.1.6m-15.1.7c-.6 1 0 5 1 6 .2.2.2.2-.1-1.2-.2-1.1-.2-1.5-.1-3.1.2-1.6.2-1.8 0-2-.4-.2-.5-.2-.8.3m19.6 1.4c-.4.9-.9 2.1-1 2.7-.1.6-.4 1.4-.6 1.6-.6.9-.7 1.2-.3 2.4 1 3 2.5-.3 2.9-6.4.1-2.3 0-2.3-1-.3m-18 .5c0 3.4 2 9.7 2.2 7 0-.5.2-1.1.3-1.4.4-.9-.1-2.1-1.9-5.6l-.6-1.1v1.1m178.6.4c-5.4 1.6-10.1 4.7-8.9 5.9.3.3.3.2 1.1-.6 1.9-2.1 4.6-3.5 9-4.6 1.4-.4 1.7-.5 1.4-1-.3-.4-.3-.4-2.6.3m.7 1.9c-4.6 1.5-8.1 4-9.7 6.8-.6 1.1-.6 1.6.1 1.6 0 0 .4-.5.8-1.2 1.9-2.9 4.9-4.9 9.3-6.3 2-.6 2.4-.9 2.3-1.3-.1-.4-.7-.3-2.8.4m-165.7.8c-.3.3-.5.7-.5.7l-.4-.2c-.5-.4-1.2-.3-1.9.1-.6.4-.6.4-.9.1-.3-.4-1-.4-1.4 0-.4.3-.4.3-.8-.1-.5-.5-1.1-.4-1.8.3l-.5.5-.3-.5c-.3-.5-1-1.1-1.7-1.3-.4-.1-.4-.1-.4.6 0 1.8 1.2 3.3 2 2.4.3-.4.5-.3 1.1.3.7.7 1.4.6 1.9-.2.1-.3.2-.3.4.1.4.7 1.6.4 1.6-.4 0-.3.1-.2.7.3.7.7 1.5.6 1.8-.1l.2-.5.5.5c.9.9 1.5.4 1.5-1.6 0-1.8-.3-2.1-1.1-1m168.6.1c-5.1 1.3-9.9 4.7-12.6 8.9-.4.6-.8 1.2-.9 1.3-.3.5-.2.7.2.8.4 0 .5-.1 1.3-1.3 2.9-4.4 8-7.8 13.4-8.9 1-.2 1.1-.3 1.1-.6.1-.6-.6-.7-2.5-.2m3.1.9c-.7.7-1.4 1-3.6 2-3.4 1.6-9 6.8-10.9 10.2-1.3 2.3-1.7 5.6-.8 5.6.4 0 .4 0 .5-1.3.3-3.2 3.9-8.5 6.5-9.5l.9-.3-1.1 1.2c-2.7 2.9-3.9 5.8-3.4 8.5.2.8.2.8 1.5-.5l1.1-1.1v.9c0 1.3.4 3.7 1 6.1.9 3.6.8 6.5-.4 8.9-.3.5-.5 1-.4 1 .1.1 1.5-1 2.2-1.7l.5-.5.2.8c.6 2.4-.1 5-2.4 8.5-1.4 2.1-1.9 3.1-2.7 5.4-.4 1-.9 2.3-1.2 2.9-.9 1.9-4.9 7.9-7.5 11.2l-.9 1.1-.5-.8c-.9-1.5-2.4-2.8-2.9-2.4-.4.3-.3.6.3 1 .8.5 1.7 1.6 2 2.4l.3.7-.5.7c-.9 1.1-1 1.1-1.2.3-.3-1-1-2-1.3-2-.6 0-.6.3 0 1.3.6 1.2.8 2.3.5 2.8-.2.3-.3.2-.8-.8-.8-1.6-2.3-2.9-3.1-2.6-.4.2-.3.5.4 1 .9.6 1.5 1.2 1.8 2 .7 1.5.7 1.4-1.4 3.6-1.1 1.1-2.8 3-3.8 4.1-3.4 3.8-4.2 4.4-7.4 5.4-4.3 1.4-5 2-6.1 5.6-.3.9-.7 1.9-.9 2.2-.2.3-.3.6-.3.6.1.1 2.1-1.5 4.3-3.2l.7-.6-.5 1.2c-.9 2-3.9 4.4-7.3 5.8l-.9.4.5.2c3.3 1.3 7.6-.9 10.7-5.7l1.2-1.8.1 1.3c.1 1.3.4 2.4.6 2.4.2 0 1.1-1.9 1.3-2.6l.1-.6.2.6c.3.9 1 1.7 1.8 2.1.9.5 1 .4.8-.2-.7-2.5.7-5.7 4.5-9.9 8.2-9.2 13.7-17.3 24-34.9 1.5-2.6 1.8-3 1.9-2.7.3.4.5 1.6.3 2.1-.2.7.2.3.6-.6 1.2-2.7 1.2-5.2-.1-8.1-.1-.2.1-.2.8.3 1.1.7 1.3.6 1.4-.6.1-1.6-.4-2.5-2.8-5.1-3.6-4-4-4.7-4-8.7 0-2.1.1-3 .3-4l.3-1.3.3 1.4c.8 3.6 4 8 6 8 .9 0 .6-.5-.7-1.4-3.3-2.2-5.1-6.8-4.3-10.8.2-1.1 1.5-3.5 3.1-6 1.7-2.4 1.7-2.5.6-1.5M69.8 277.5c-2 .9-1.4 2.1.9 1.9.8-.1 2-.1 2.6-.1 1.5 0 1.5 0-.2-1.1-1.5-1.1-2.3-1.2-3.3-.7m11.1 1.7c.4 1.5.3 2.3-.3 3.6l-.7 1.2.4.7c.9 1.6 1.6 1.8 2.2.5.5-1.1.1-3.2-1-5.5-.5-.9-.8-1.2-.6-.5m-11.8 1.4c-2.9 1.4.2 6.9 3.8 6.9 4.4 0 6.9-5.2 3.2-6.8-1-.4-6.1-.5-7-.1m16.1 1.9c-.2.4-.7 1.5-1.1 2.5-.8 1.8-1.6 3-2.2 3.1-.7.1-.8.5-.2 1.7.7 1.3.7 1.8.1 4.2-.6 2.6-.6 2.8.7 1.8 1.6-1.2 2.1-3.1 2.7-9.8.5-4.4.5-4.6 0-3.5m53.8 27.1c.1.3-.4.5-.7.2-.1-.1-.1-.3-.1-.4.2-.2.7-.1.8.2m-.1 2.3c.4.1.6.3.6.5 0 .5-.1.5-1 .2-.5-.2-1.1-.2-1.6-.1-.8.1-1.1-.2-.7-.6.3-.2 2-.1 2.7 0m-.5 2.7c.9.3 1.3.6 1 .9-.2.2-.4.1-1.3-.1-.7-.2-1.5-.3-2.6-.3-1.5 0-1.9-.2-1.4-.7.2-.2 3.5 0 4.3.2m-2 2c1.9.5 3.8 1.5 3.8 2.1 0 .5-.2.4-1.2-.1-2-1.2-4.3-1.7-7.2-1.4-.7.1-.6-.6.2-.7 1.2-.3 3.1-.2 4.4.1m207.1 1.6c-.9.5-1.7 2.1-2.6 5.2-.9 3.3-.8 4.3.2 2.2 1.9-3.8 5.9-3.2 6 .9v1.1l.3-.6c.8-1.7.1-4.7-1.3-5.9-.6-.5-.6-.5-.2-.4.2.1.5.1.6.1.1 0 .6.4 1 .8l.8.8.4-.3c.2-.2 1-.8 1.7-1.5 1.5-1.3 1.5-1.3.2-1-2 .5-2.2.4-4.2-1.2-.7-.7-1.9-.8-2.9-.2m-138.6.8c-.4.2-1.2.9-1.8 1.4-.6.5-1.6 1.3-2.1 1.6-1.8 1.1-2.3 1.7-3 3.7-.6 1.5-.6 2 0 1.2.5-.8 1.7-1.6 2.8-1.8 1.3-.3 1.4-.4 1.9-1.4.5-1.1 1.1-1.8 2.6-3.4.6-.7 1.1-1.3 1.1-1.4-.1-.3-.8-.3-1.5.1m1.8.8c-.7.4-1.5 1.3-2.4 2.6-.5.8-1.3 1.8-1.8 2.4-1.3 1.4-1.9 3-1.9 5.4 0 .7.2.7.4-.1.2-1 1.9-2.4 4.1-3.5 2.8-1.4 3.8-2.8 3.8-5.3.1-1.5-.9-2.2-2.2-1.5m145.7.3c-2.2 1-3.2 2.7-3.3 5.7-.1 2.2 0 2.4.6 1 1.2-2.7 3.6-3.9 5.3-2.6 1.1.9 1.2 1.2 1.3 4.6l.1 3 .4-.7c1.6-3.1 1.2-7.2-.8-8.6-.9-.6-.7-.7.3-.2.7.3 1.6 1.1 2 1.9l.3.5-.1-.8c-.6-2.9-3.6-4.9-6.1-3.8m8.2 1.5c-.6.3-1.5 2.1-1.5 2.7 0 .3.1.2.7-.3 1.5-1.3 1.6-1.2.5.5-1.6 2.6-2.2 4.7-1.9 6.1.2 1 .6.7 1.5-1.5 1.2-2.7 1.7-3.1 3.3-3.1 1.3 0 1.8.7 2.8 4.1.5 1.6.6 1.7.9.5.8-4.6-3.4-10.8-6.3-9m-147.3.6c-.2.1-.9.9-1.4 1.7-.5.8-1.6 2.2-2.3 3-1.5 1.7-1.8 2.2-1.8 3.9v1.1l.2-.6c.3-1 .5-1.1 2.8-2.2 2.5-1.2 3.4-1.9 4-3.2 1.1-2 0-4.5-1.5-3.7m129.7 3.3c-.4.2-.7.7-1.1 1.5l-.5 1.1v3.9c0 3.5 0 4 .3 4.5.6 1.1 1.1.5 1.6-2.3.4-2.2.7-2.8 1.9-4 1.1-1.2 1.4-2 1.1-2.9-.5-1.8-2-2.6-3.3-1.8m9.2 1c-2.1.6-2.9 4.4-1.8 7.8.3.8.6 1.9.6 2.4.1 1.1.7 2.2 1.5 2.8 1 .8 1 .7 1-2.1 0-2.4 0-2.6.5-3.8 1-2.8 1.3-5.4.5-6.2a2.2 2.2 0 0 0-2.3-.9m17.2.7c-1.8.8-1.5 3.5.5 5.8 1.5 1.6 2.3 3.3 2.4 4.7.1 1.3.3 1.3.8-.3 1.1-3.4 1-4.2-1.5-9.2-.4-1-1.3-1.4-2.2-1m-8.1 1.5c-1.6 1.5-1.7 2.8-.3 4.2 1.3 1.3 1.6 2.6 1.3 5.5-.3 2.3.2 1.9 1.5-1.1 1.9-4.5 2.1-5.9.8-7.7-1.4-1.8-2.1-2-3.3-.9m-225.9 2.1c-1.7 1.6-2 3.6-1.2 7.7.7 3.4 1 3.4 2.3.5 1.6-3.4 2.1-5.3 1.5-6.8-.7-2.2-1.4-2.5-2.6-1.4m9 .4c-1.7.6-2 1.2-1.6 3 .2.7.4 1.9.6 2.7.7 3.5.9 3.7 1.7 2 1.6-3.6 2-6.5.9-7.6-.4-.5-.5-.5-1.6-.1m-19.7.9c-1.6 1.1-2.1 2.7-2.1 6.6 0 2.3.1 2.7.6 2 .2-.3 1.1-1.3 1.9-2.4 2.3-2.7 2.6-3.6 2.1-5.4-.3-1.4-1.2-1.7-2.5-.8"/></svg>