<svg xmlns="http://www.w3.org/2000/svg" viewBox="0 0 400 400"><path d="M338.9 18c-.4.4-.1.8.7 1.2l.9.5-.9.5c-.5.3-1.4.5-1.9.5-2.2.1-4.6 1.6-4.9 3.1-.6 3 3.1 5.7 9.3 6.6 5.4.8 10.7 2.2 12 3.4 1.3 1.1.5 3.4-1.4 4.1-7.9 3.1-10.4 7.9-5 9.6.5.1.6 0 1-1.1.6-1.6 2.1-3.1 5.1-4.9 1.3-.8 2.9-1.9 3.5-2.4 1.9-1.5 1.1 0-1.1 2.2-3.6 3.5-4.4 5.3-3.2 7.8.8 1.6 2 1.6 1.3 0-1-2.5-.1-4.3 4-7.6 4.3-3.4 4.1-7.3-.6-11.6-3.3-3-6.3-4-12.6-3.9-5.2 0-10-.8-10-1.6 0-.6 1.5-1.4 3.6-2 3.9-1.1 4.7-3.3 1.5-4.4-1.2-.3-1.1-.2-1.3 0m9.8 10c1 .2 2.2.4 2.7.4 3.2.1 6.5 3.9 5.2 6.1-.3.5-.3.5-.3 0 0-2.2-4.9-4.5-12.1-5.5-4.5-.7-6.4-1-6.4-1.3.1-.3 8.9 0 10.9.3m35.5 6.7c-1.8.7-5.2 4-5.3 5.2 0 .5 0 .5 1.6-1.1 2.2-2.2 4.3-2.4 6.3-.6 1.6 1.5.6 2.6-3.9 3.9-1.5.5-3.4 1-4.1 1.3-.7.3-2.4.7-3.6.9-1.3.2-3.1.7-4.1 1.1-1 .4-2.7 1-3.7 1.4-3 1.2-6.6 3.8-6 4.4.2.2 9.4.4 9.7.2.2-.1.5-.7.8-1.2 1.1-2.3 6.6-5.7 9.3-5.8.9 0 5.4-2.1 6.4-3l1-.9-.2.8c-.8 3.3-3.3 5.2-9.1 6.9-3.7 1.1-6.9 3.1-6.1 3.8.1.1.2 0 .3-.2.1-.2.4-.3.7-.3.3 0 1.2-.3 2-.7.8-.4 2.9-1.1 4.6-1.6 5.3-1.5 9.3-4.3 10.9-7.6 2.2-4.3-2.5-8.8-7.5-6.9m-43.9.1c0 .1.3.5.7.9 1.2 1.1.9 1.5-3 3.6-4.2 2.2-5.7 4-5.2 6.4.4 2.2 5.4 6.7 9.7 8.7 5.2 2.5 10 4.3 12.4 4.7 1 .2 2.8.6 4 .9 1.2.3 4.3 1.2 6.9 1.8 2.6.6 5.2 1.4 5.7 1.6 1 .5 1.2 1.1.3.8-2.1-.6-4.7-.5-7.1.3-6.8 2.3-15.3-.1-18-5.2-.6-1-.9-1.2-.9-.4 0 .7 1.4 2.7 3.1 4.4 2.5 2.5 6.1 4 11.3 4.5 7.1.7 13.1 3.8 13.1 6.9 0 .2.5 1.1 1 1.9 2.5 3.7.9 8.8-3.3 10.4-.7.3-1.6.6-1.9.9-.4.2-1.6.6-2.8.8-2.4.4-4.9 1.1-7 2-1.7.8-1.7 1.1.1.6 1.6-.6 1.4.1-.2.7-2.8 1.1-6.6 4.6-8.5 8l-.9 1.6.1-1.4c.2-1.7 0-1.6-1.3.6-1.5 2.5-2.2 6.5-1.8 10.4l.2 2.1-.6-.7c-4.4-5.5-2.4-14.4 4.3-18.8 2.1-1.4 2.1-1.4-.2-.6-7.2 2.6-10.6 10.5-7.6 17.8.3.7 2.4 4.2 4.8 7.6 5 7.4 5.2 8.1 4.8 11.9-.5 3.7-1.5 6.1-4.1 9.1-6.5 7.8-8 8.6-17 8.6-8.3.1-11-.7-23.2-6.2-5-2.3-10.6-3.9-17.7-5.1-5.3-.9-7.8-1.9-11.7-4.8-4-3-8.1-5-12.3-6.2-7-1.9-21.2-3-24.2-1.8-.8.3-1.9.5-3.3.5-1.1 0-2.9.2-3.9.4-3.4.8-6.7.6-9-.6-11-5.7-14.7-7-19-6.8-.8 0-2-.3-4.5-1.4-4.4-1.8-6.2-2.1-10.9-1.6-4 .4-3.8.3-9.3 3.7-2.1 1.3-4.1 2.5-4.5 2.6-.3.1-1.2.6-1.9 1.1-1.1.7-1.5.9-2.1.8-.6-.1-.9 0-2 1.1-1.8 1.8-4.9 4.1-5.5 4.1-.3 0-.6.2-.7.4-1 1.7-12.3 4.6-19.4 5-9.2.5-10.6.7-13.9 2.6-2.6 1.4-3.3 1.6-6.3 2-5.7.6-9.8 2.8-13 7-1.9 2.6-3 3.7-6.1 6.2-4 3.3-8.3 8-8.9 9.5-.1.2-.2.3-.3.2-.6-.5 2.4-4.9 5.5-8.2l1.8-1.9.1-2.9c.2-5.1-1.1-13.1-3.1-18.2-.9-2.2-.5-1.9 1.4 1.2 2.1 3.5 2.9 5.3 3.7 8.2l.6 2.2.1-1.2c.1-1.5-.4-7.6-.7-8.8-.7-2.6-.5-7.5.4-9.8 1.1-2.7 6.3-10.3 7-10.3.4 0 .4.1 0 .5-2.7 3-4.2 14.1-2.9 21.7.3 1.8.7 4.4.8 5.6.2 2.1.2 2.2.4 1.3.2-.6.1-2.4-.1-5.1-1.1-13.6 2.9-22.2 12.4-26.5 4.6-2.1 5.8-2.5 6.4-2 .3.2 1 .2 3.1 0 4.1-.5 3.1.2-1.6 1-2.1.4-4.4 1.5-6.5 3.1-1.8 1.4-1.8 1.5 0 1 5.6-1.7 19.8-3.8 22.9-3.4 1.5.2 6.5-1.1 8.4-2.1 3.7-2 8.6-10.3 9.7-16.6 1-5.4 3.8-6.2 10.8-2.9 9.7 4.6 18.4-.6 16.8-10.1-1-5.9-1-5.4-.3-7.5.5-1.6.8-2 1.4-2.3.9-.4.7-.8-.3-.8-1.8 0-3.4 2.7-3.9 7-.7 5.2-.8 5.5-3 6.6-3.2 1.7-5.2 1.6-8.1-.6-.9-.7-2-1.1-3.8-1.4-.5-.1-1.1-.3-1.3-.6-.7-.9-2-1.2-4.8-1.4-3.9-.2-5.4.5-8.7 3.9-2.3 2.3-3.2 3.6-6.1 8.6-3.8 6.7-8.7 8.9-16.2 7.4-6.7-1.3-18.2-.9-21.9.8-.6.3-1.7.6-2.5.7-.7.1-2.4.7-3.7 1.3-1.3.6-2.7 1.2-3.1 1.3-.4.1-1.5.8-2.4 1.6-.9.8-2.1 1.7-2.6 1.9-.5.3-1.1.6-1.2.8-.2.2-.9.6-1.7.9-2.1.9-4.9 2.8-7.1 4.8-1 1-2.6 2.2-3.4 2.7-5.9 3.5-7.8 13.3-4.9 25.8.7 3.3.6 10.6-.2 13.1-.3.9-.8 2.4-1.1 3.5-.8 2.7-1.7 3.8-4.4 5.7-3.7 2.5-6.5 5.5-6.5 7.1 0 .2-.6 1.3-1.4 2.4-4 5.5-3.9 14.1.1 23.2 3.6 8.1 3.2 15.8-.8 18.1-2.7 1.6-5 10.7-4 16 .5 2.6 5.4 11.9 6.3 11.9.4 0 1.9 2.1 2.7 3.7 1.9 3.7 3 8.7 3.5 15.5.3 3.9.9 6 2.7 9.6.7 1.4 1.6 3.9 2.1 5.5 1.7 6 2.9 8.4 6.5 12.9 1.8 2.3 9.8 7.3 14.8 9.3 7.7 3.1 12.5 6.7 17.4 13.2 3.9 5.2 5.6 6.4 10.8 7.3 1.6.3 3.9.9 5.1 1.2 1.2.4 3.3.9 4.7 1.2 1.4.3 3.1.7 3.7.9 1.9.7 1.9.1 0-1.8-2.3-2.4-3.6-3.9-4.2-5.2-.4-.9-.9-1.3-2.6-2.1-2.3-1.1-3.3-2.2-4.9-4.9-1.6-2.7-1.7-3.8-.2-1.7 1.8 2.5 3.6 3.7 7.5 5.3a20 20 0 0 1 3.2 1.5c.4.3 1.7.7 2.8 1.1 2.7.8 4.5 1.8 7.2 4 5.1 4.3 10.4 5.9 14.4 4.4.7-.2 1.6-.6 2.1-.7 1.2-.4 1.1-.5-1-1.8-5.3-3.3-9.2-8.4-9.8-12.7-.3-2.5-.6-7-.5-7 .1 0 .4.8.7 1.8 1.4 4.3 2.5 5.6 8.1 8.9.2.1.2-1 .2-3.2 0-1.9 0-3.8.1-4.3l.1-1 1.1 2.2c2.2 4.4 5.2 7.6 7.8 8.5 1.3.4 1.3.4.9-1.3-.7-2.8.2-11.5 1.9-18 .5-1.8.5-1.8 2.2-.1.9.9 2.3 2.2 3.2 2.9 3 2.5 4.6 5.4 5.5 10 .7 3.4.8 3.6 1.5 1.9 1.6-3.7 1.9-6.6 1.2-11.7-1.1-8.1-1.5-20.1-.7-20.9.2-.2.6.2 1.2.9 1.6 1.9 2.1 2.7 3 5 .8 1.8 1.3 2.6 3.3 4.7 1.3 1.4 2.6 3 2.9 3.6.6 1.3.8 1.3 1.3.4 1.5-3 2.5-8.8 3-17.4.6-10.4.3-12.1-2.1-16.2-1.3-2.2-1.4-2.9-.1-1.6 2.1 2.3 3.7 5.9 4.2 9.8.2 1.2.5 3.1.8 4.1 1.5 5.4 1.4 5.1 1.7 4.6 2.4-3.3 3-17.5 1-24.4-1.8-6.4-9.9-16.5-13.1-16.5-.2 0-1.2-.3-2-.7-1.6-.6-1.6-.7-.6-.7.5 0 1.6-.1 2.3-.3 5.4-1 12.9 4.5 15.2 11.2.7 2.2.9.7.2-2-.7-2.6-.7-5.5-.2-8.1.5-2.8.6-5.9.2-6.1-.2-.1-.5-1-.7-1.9-.9-3.9-2.7-8-3.9-9-1.9-1.6-2.6-4.6-2-8.4 1.5-8.7 7.1-15.3 15.2-18.1 3.2-1.1 12.6-1.8 16.3-1.2 8.2 1.3 17.9-2 25.3-8.5 3.9-3.5 2-3.1-2.7.5-3.6 2.7-8.1 4.9-12.2 5.7-2.9.6-3.6.5-1.5-.2 1.9-.6 2.7-1.1 4.4-2.4.6-.5 1.9-1.4 2.9-2.1 1-.7 2.7-2 3.7-2.8 4.8-3.9 6.6-4.4 12.4-3.8 2.5.3 5.9.1 6.3-.3.2-.2-1.9-.7-3.6-.8-.9-.1-2-.3-2.4-.4-.4-.1-2.2-.4-3.8-.5-4-.4-4.3-.6-2-1.2 1-.3 3.1-.8 4.6-1.2 1.5-.4 3.3-.8 3.9-.8 1 0 1.7-.5.8-.6-.8-.1 1.1-.5 2.3-.5 2.2 0 6 1.6 8.3 3.6l1.1.9h-2.2l1 .7c.7.4 1.6.8 2.8.9 1 .1 2.2.5 2.9.9.7.4 1.7.9 2.3 1.1 1 .3.9.4-2.4.2-3.9-.1-4.2-.2-8-2.6-3-1.8-5.9-3.2-7-3.1-.9 0-.6.2 2.3 1.6 1.8.9 3.8 2 4.4 2.5 3.8 2.7 8.8 3.7 13.4 2.7 3.1-.7 5-.3 9.2 1.9 3.9 2 9 2.5 12.9 1.1 2.3-.8 2.7-.8 5.4.3 2.3.9 6.6 1 14.4.3l5.1-.5 2.6-1.3c2.6-1.3 4.4-2.8 6.1-5.2l.7-.9-.7.5c-4.8 3.4-8.3 4.3-12.7 3.2l-1.9-.4.9-.6c.9-.6 2.8-1.2 4.8-1.6.6-.1 1.4-.4 1.8-.6.4-.2 1.4-.6 2.2-.8.8-.2 2.2-.9 3.1-1.4.9-.6 1.9-1.1 2.1-1.1 1.6 0 4.9-4.5 5.8-7.9 1-3.8.7-4.1-1.4-1.3-2.4 3.3-4.1 4.4-7.6 5-1.5.3-2.6.1-1.7-.2.7-.2 2.9-2.4 3.2-3.2.2-.5 1.2-1.3 2.9-2.3 7.7-4.7 9.5-6.5 13.2-12.7 2.6-4.4 3.5-7.9 2.8-11.6-.3-1.8-1.2-4.4-1.4-4.1-.1.1-.7 1.2-1.4 2.5-2 3.7-3 4.7-1.8 1.6 3.2-7.8 2-14.8-3.3-19.5-2.2-1.9-3-3.9-2.7-6.7.5-5.3 1.5-6.1 9-6.8 2.3-.2 4.6-.5 5.1-.6.6-.1 1.2-.2 1.5-.1 1.7.5 9.2-1.1 12.2-2.6 5.6-2.7 8.8-9.3 7.3-15.1-.1-.6-.4-2.2-.5-3.6-.5-4.9-2.7-9.3-5.9-11.4-1.2-.8-2.1-1.7-2.7-2.6-3.2-5-7.3-7.8-14.8-10.5-2.2-.8-2.3-.8-8.3-.8-12.5-.1-24.6-4.7-26.2-10-.4-1.4-.3-1.7 2.2-3.2 2.7-1.7 3.2-3.4 1.3-4.6-1-.6-2.3-.9-2.3-.6m30.5 22c5.5.8 8.6 2.1 11.7 5.1l2.2 2.1-1.1-.4c-.6-.2-1.4-.6-1.7-.8-1.1-.7-7.7-2.8-10.6-3.4-1.5-.3-3.5-.7-4.4-.9s-3-.7-4.8-1.1c-3-.7-3.1-.8-2.1-.9 1.2-.3 8.3-.1 10.8.3m6.1 6.6c6.1 3.1 8.8 10.9 6.3 17.7-1.1 2.8-1.2 2.7-1.1-1.6 0-4.6-.5-6.7-2.6-10.1-.6-1-1.4-2.3-1.7-2.9-.3-.6-1.2-1.7-1.9-2.4-1.5-1.4-1.1-1.7 1-.7m-15.8.8c-.6.2-.6.2.3.2.5 0 1.1-.1 1.3-.2.5-.3-.6-.3-1.6 0m9.8 2c4.4 1.2 7 4.5 7 8.9 0 2.4-.6 5.7-.7 4.2-.6-5.7-7.1-12.4-12-12.4-1 0-1-.5.1-.7.6-.1 1.1-.2 1.3-.3.6-.2 3-.1 4.3.3m8.6 18.6c-1.2 3.7-2.3 4.7-5.7 5.8l-1.6.5 1.5-1.5c3.7-3.8 5.8-7.7 6.1-11.5 0-.4.1.6.1 2.2.1 2.4.1 3.2-.4 4.5m-206.3-6.5c-.1.1-.3.3-.5.3s-.8.3-1.4.6c-.6.3-1.5.7-2.1.9-2.9 1.1-5.3 3.3-7 6.4l-.9 1.6.1-1.9c.1-2.4 1.8-5.3 3.7-6.3 2.5-1.3 8.7-2.5 8.1-1.6m125.4 1.1c-3.3 1.5-5.5 2-8.3 1.6-1.3-.2-4.5-.4-7-.4-3.4-.1-5-.2-6-.5-7.2-2.4-11.9 3.5-6.4 8.1 3.7 3.2 4.5 4.2 3.8 5.4-1 2-10.5.1-18-3.6-9.5-4.6-15.2-3.9-21.8 3-3.8 3.9-10.4 8.5-13.7 9.7-4.3 1.4-5.8 1.3-11.9-1.3-6.5-2.7-8-3-11.6-2.5-4.2.5-8.6 2.3-16.7 6.7-1.1.6-1.8.8-3.9.9-6.6.4-11.7 3.6-16.6 10.6-3.4 4.9-5.3 6.9-9 9.8-1.1.8-2.1 1.7-2.2 1.8-.1.2-.6.4-1.1.5-.8.2-.8.2-.3.6.8.6 1.4.5 3.6-.9 4.3-2.7 8.5-4.7 8.5-3.9 0 .1-.5.9-1.2 1.9-1.9 2.8-1.3 3.7.9 1.2 2.4-2.8 2.9-3.1 3.7-3.1 2.4 0 5.5-1.5 12.4-6.1 1.7-1.1 3.8-2.3 4.7-2.6.9-.3 2.4-1.2 3.5-1.9 2.3-1.7 5.2-3 7.1-3.4 3.5-.7 4.1-.8 5.5-.7 2.1.1 2.2.4.3 1.3-3 1.4-1.7 1.9 1.9.7 2.3-.8 5.7-1 7.9-.4 1 .2 2.9.6 4.2.8l2.4.3-2.5.9c-2.1.8-2.8.9-4.3.9-2.2-.1-2.2 0-.1.7 2.2.7 2.3.7 6-.5 5.2-1.7 5.6-1.8 7.8-1.6 1.5.1 1.9.2 1.5.4-1.1.5-3.5 2.3-4.5 3.3-1.3 1.3-.9 1.6 1.2 1.1.8-.2 3.6-.3 6.6-.3 6.9 0 9.7-.6 12.4-2.7l1-.8-.6 1c-1.6 2.7-7.3 5.8-10.8 5.8-1.8 0-3.4.3-3.2.6.5.8 8-.1 10.3-1.3 3.7-1.8 9.8-8.7 9.8-11 0-.3.3-1.6.7-2.8.4-1.2.8-2.6 1-3.1 2.2-7.2 12.5-10.3 19.7-6.1 1.2.7 2.5 1.4 2.9 1.6.3.1.6.3.5.5-.4.6 3.5 2.4 5.1 2.4.3 0 1.1.2 1.6.5.9.5 2.2.8 5.4 1.4.7.1 1.7.3 2.3.5 8.4 2.3 11.5-5.5 4.9-12.9-2-2.2-3.1-4-2.8-4.7.3-1 3.5-2.5 7.1-3.2 3.5-.8 7.3-2.6 8-4 .2-.3.2-.5.2-.5s-1-.1-1.9.3m-23.2 2.2c.2.2 1.4.3 2.8.4 6.3.2 7.9.4 7.8.9-.1.4-.6.5-4.8.6-6.2.1-7.3.7-7.3 3.7 0 1.5.1 1.5-2.1-.6-3.1-2.8-2.1-5.2 2.1-5.3.6 0 1.4.1 1.5.3m-94 1.1c1.6.7 1.9.7 4.1.6l2.4-.2-1.1.7c-3.2 1.9-5.4 2.1-8.9.6-1.1-.5-2.7-1-3.6-1.2l-1.6-.3 1.2-.6c1.7-.8 5-.6 7.5.4m215 1c.8 4.2-2.6 9.9-6 10.1-2.9.2-5.1-.2-3.3-.7 3.4-.9 8.7-6.7 8.7-9.7 0-.8.5-.7.6.3m-230.1 1.4c-.5 1-.9 2.1-.9 2.7 0 3.1-1.3 7.4-3.5 11.2-2.5 4.3-5.2 7.4-3.5 3.8.5-1 1.6-4.4 2.5-7.5 1.9-6.6 4.7-12 6.2-12 .1.1-.3.9-.8 1.8m83.2 4.4c.3 0-.4.4-1.5.9-2.5 1.1-4.2 2.2-5.5 3.7-.5.6-.9.9-.8.6.1-.3.3-1.2.4-2 .2-1 .5-1.8 1-2.4l.8-.9 2.5.1c1.5-.1 2.8 0 3.1 0m140.3 0c-.4.6-3.7 2.2-5.7 2.7-2.3.6-7.2.7-7.1.1.1-.3.8-.5 7.5-1.8 2.4-.5 4.4-1 4.5-1.1.3-.2.9-.2.8.1m-102.3 3.7c4 5.2 2.4 10.3-2.9 9.3l-.8-.2.9-1c1.5-1.7 2.2-6.3 1.3-8.5-.2-.4-.5-1.1-.7-1.7l-.4-1.1.8.9c.4.5 1.2 1.5 1.8 2.3m-31.1-1.1c.4.2 1.1.6 1.6.9l.8.5-1.6-.2c-3-.3-6.6 1-9.5 3.5-2 1.7-2 1.7-1.3-.7 1.2-3.6 6.5-5.8 10-4m-97 1.4c-.4 3.9-2.5 9.5-4.3 11.5-1.1 1.2-1.8 1.5-5.3 1.7l-2.1.2 1.8-1c4.2-2.3 7.5-6.8 9.1-12.3.6-2.1 1-2.1.8-.1m220.8 1.4c1.9.6 5.8.8 7.5.4 1.2-.3 1.1.2-.2.8-3.9 1.5-13.8 1.3-13.8-.4 0-.1-.5-.4-1.2-.5-2-.5-1.6-.7 2.3-.8 3.1-.1 3.8 0 5.4.5m-136.4 3.5c-1.9 8.5-2.1 9.1-2.1 4.6 0-3 .1-3.5 1.8-6.2.9-1.5.9-1.4.3 1.6m-109.5-1.2c-.1.1-1.7.7-3.6 1.3-6.7 2.3-8.8 3.6-13.1 8.4-.8.9-2 1.8-4.9 3.7l-.8.5.6-1.6c3-8.2 7.3-11.9 13.9-12.4 4.3-.1 8.2-.1 7.9.1m236.9.2c.8.2 2 .5 2.6.6l1.1.3h-1.2c-.6 0-1.4.1-1.6.3-.2.1-2.3.4-4.6.5-4.6.3-6.7.9-9.1 2.6l-1.4.9.6-1.1c2-3.5 8.5-5.5 13.6-4.1m-86.8 1.2c-.5 1.8-3.9 2.8-6.5 1.9-.7-.3-1.8-.5-2.5-.7-.6-.1-1.7-.5-2.4-.8-.8-.4-1-.6-.5-.5 4.4.9 8.9.9 10.7.1 1.3-.6 1.3-.6 1.2 0m-82 2.4c0 .1-.2.3-.4.3s-1.2.4-2.1.8c-.9.5-3.2 1.4-5.1 2-1.9.6-3.7 1.3-4 1.6-.4.3-1.3.4-3.4.4-2.3 0-2.7-.1-2.1-.3l4.4-2.1c3.8-1.8 5.1-2.3 7.5-2.6 2.1-.4 5.2-.4 5.2-.1m-88.8 1.9c-1.1 1.7-1.2 2-3.1 7.3-.9 2.3-2.3 5.6-3.1 7.3l-1.5 3-.1-2c-.2-4.6 1-9 3.1-11.7.6-.7 1.1-1.4 1.1-1.6 0-.2 4-3.7 4.3-3.7 0 0-.3.7-.7 1.4m96.4.7c2.8 1.2 2.8 1.3.7 1.7-3.1.6-15.1.9-13.8.4 8.5-3.4 9.6-3.6 13.1-2.1m150.7.6c-.4 1.7-.6 5.2-.3 6.1.4 1.1-.3.4-1.1-1.1-1.2-2.1-.9-3.8 1-5.8.8-1 .8-1 .4.8m-27.3.2c-1.5 2.2-6.9 3.1-12.6 2.2-2.4-.4-4.7-.4-6.2.1-.7.2-1.3.3-1.4.2-.3-.3-2-.1-2.8.3-7.5 3.9-8.9 10-3.6 16.1 1.3 1.4 1.6 2.9.9 4-.4.7-4.3.1-11.4-1.8-5.2-1.4-7.3-1.5-11.4-1-3.7.5-7.9 1.6-7.7 2.2.2.7 8.5 6.5 9.2 6.5.2 0 .7-.2 1.2-.4a18 18 0 0 1 6.6-1.5h2l-1.1 1c-2.5 2.1-2.6 3.7-.2 2.9.7-.2 1.5-.4 1.9-.4.8 0 3.4-1.1 3.2-1.3-.1-.1-.9-.2-1.8-.3l-1.6-.1 1.1-.7c1.5-1 3.2-1.4 5.9-1.7l2.2-.2-.7.6c-.4.3-.9 1-1.3 1.4-.3.5-1.3 1.2-2.1 1.6-.8.4-1.5.8-1.5.9 0 .6 3.4-.9 5.7-2.4.6-.4 1.6-1 2.3-1.4.7-.4 1.4-.9 1.5-1.1.1-.2.7-.6 1.4-1 1.5-.8 2.4-1.8 3.1-3.7l.6-1.5v1.9c0 3.7-2 6.3-5.6 7.2-1.3.3-3.7 1.6-3.7 1.9 0 .9 5.8-.7 7.5-2.1 1.6-1.3 1.6-1.2.4 1.1-1.4 2.7-2.6 3.5-5.7 3.9-1.9.2-1.8.4 1.4 1.8 3.7 1.5 3.8 1.5 6.5.1 3.6-2 5.8-5 6.3-8.9.1-1 .4-2.6.7-3.6.5-2.2.3-3.6-.8-6.3-1-2.6-1.2-4.7-.6-6.3.6-1.6.7-1.7 4.1-2.6 4.6-1.3 7-3.1 8.9-6.5.9-1.5.2-2.5-.8-1.1m-93.5 3.6c-.4 2.9-3.7 6.2-6.9 7l-.8.2 1.2-1.3c1.2-1.4 2.7-3.7 2.7-4.3 0-.2.6-.9 1.3-1.6.9-.8 1.5-1.6 1.8-2.5l.5-1.3.2 1.4c0 .8.1 1.9 0 2.4M101 108c-.5.8-1.5 2.1-2.2 3-4.2 5.5-5.5 12.7-3.8 21.1.8 4 .9 5.1.3 8.1-.2 1.2-.5 2.7-.5 3.2s-.5 1.7-1 2.7l-.9 1.8v-2.6c0-2.3-.9-7.9-1.3-8.2-.3-.3-.6 2.8-.5 6.2.1 6-1.5 10.9-4.1 12.7-1.2.9-1.3.8-.7-1 .3-1 .4-1.6.2-1.9-.2-.3-.2-.8-.1-1.3 1.6-6.2 1.3-17.5-.6-21-.6-1.2.8-9.6 2.2-12.5.5-1.1 2.6-3.5 2.3-2.6-1.9 5.4-2.6 10.9-1.9 16.1.2 1.9.5 4.7.6 6.3.2 2.8.5 2.9.6.2 0-.7.1-1.3.3-1.3.2 0 .2-.5.1-1.7-.7-6.9-.3-12.2 1.3-16.7l.6-1.7v1.1c0 2.1.4 5.2.5 5.2.1 0 .3-.9.5-2s.5-2.5.7-3.2c.2-.7.5-2 .6-3 .5-3.7 1.4-5 5.4-7.4 2.5-1.5 2.6-1.5 1.4.4m255.2 1.1c.4 1 .8 2.3 1 2.8.2.5.6 1.6.9 2.4.6 1.5 1.5 4.3 1.4 4.3-.2 0-3.8-4.7-4.2-5.5-.6-1.1-.7-3.2-.2-4.9.2-1.4.2-1.4 1.1.9m-27.5.3c-.7.3-2.2.8-3.2.9-5.4.9-8.4 2.8-9.6 6l-.4 1-.2-.8c-.1-.4-.2-1.1-.3-1.4-.6-2.9 3.2-5.1 9.5-5.7 1.9-.1 3.7-.4 4-.5 1.4-.4 1.5-.1.2.5m-140.4.1c-.8.3-2.6 1-4 1.7-4.1 2-4.9 2.3-7.6 2.7-4.5.8-4.9.5-1.9-1.2 3.1-1.8 4.1-2.3 6-2.8 2.9-.8 3.7-.9 6.3-.9h2.7l-1.5.5m121.6 1.2c-.9 2-.7 3.6.7 5.5 1.2 1.6 1.8 2.8 2.1 4.6.2.9.1.9-.6-.5-.7-1.2-3.5-3.8-4.1-3.8-.3 0 .2 1.2 1.5 3.2 2.2 3.6 2.3 4 1.9 6.4-.1.8-.4 1.2-1 1.5-1.2.7-1.6.7-1.1-.1.6-.9.5-2.3-.2-3.4-3.8-5.8-4.5-8.2-3.1-11.1.6-1.3 3-3.2 4.5-3.6-.1.1-.3.6-.6 1.3m-77 1c-1.5 2.6-3.5 3.5-8.3 3.7-2.1.1-3.9.2-3.9.1 0 0 .6-.3 1.5-.5.8-.3 2.4-.8 3.4-1.3 1-.4 2.5-.9 3.3-1.2.8-.2 2.1-.7 2.9-1 .8-.4 1.6-.7 1.6-.7 0 .1-.2.4-.5.9M103.7 114c-.3 2.3-.2 10.9.2 12.8.1.7.1.7-.5-.3-1.9-3.2-2.7-6.8-2.1-9.3.7-3 1.2-4.1 1.8-4.9 1-1.2 1-1.1.6 1.7m248.1 2.5c1 0 5 5.4 6.1 8.2.9 2.5.8 5.8-.3 8.6-.9 2.3-1.4 2.9-1 1.1.8-3.7-.3-9.4-2.7-13.2-1.4-2.3-3.2-5.6-3.2-5.9 0-.1.2.1.5.5.2.3.5.7.6.7m-32.9.7c0 1.4.2 2.3 1 4.3 1.2 3 1.2 3.2.2 1.6-.4-.7-1.1-1.8-1.6-2.5-1.1-1.7-.9-5 .4-5.2v1.8m44.3 1.9c1.5 3.1 1.6 6.8.3 9.2l-.4.8-.2-1.6c-.1-.9-.2-2.7-.2-4 0-2.1-.5-4.5-1.2-6.9-.3-1 .9.7 1.7 2.5m-188.7-1.8c-1.4 1.4-11.4 5.5-12 4.9 0 0 .8-.9 1.8-1.8 2.3-2.1 3.4-2.5 7.4-3 1.5-.2 2.9-.3 2.9-.4.2 0 .1.1-.1.3m12.4-.2c-6.7 5.5-9.6 9.5-12.2 16.6-2 5.5-8.2 12.3-11.5 12.8-.8.1-4.1 2.7-6.2 4.8-2.3 2.3-4.9 4.4-5.3 4.4-.3 0-.1-1.1.8-3.6 1.1-3.1 1-3.4-.4-1.8-1.7 1.9-2.3 3-3.4 6.3-.6 1.7-1.3 3.5-1.7 3.9-1.2 1.6-3.6 7.5-4.2 10.2-.3 1.5 0-4.2.3-6.7.7-5.1 4.8-13.9 6.5-13.9.2 0 1.3-1 2.6-2.3 2.4-2.5 5.6-4.9 6.4-4.9.3 0 1.6-.5 2.9-1.2 1.3-.7 2.5-1.2 2.5-1.2s-.3 1-.9 2.2c-.6 1.2-1 2.2-1 2.3.2.2 3.1-2.4 3.8-3.4.4-.6 1.3-1.9 2-2.9 1.1-1.4 2.4-4.1 2.4-4.7 0-.1-.5.3-1.1.9-4.2 3.8-5.6 4.5-2.8 1.4 1.1-1.2 2.7-3.1 3.5-4.1.8-1.1 1.6-2 1.8-2.1.2-.1.9-1 1.6-2.1 1.4-2.1 2.7-3.3 3.4-3.4.2 0 1.9-1.3 3.6-2.9 2.1-1.9 3.7-3.2 4.8-3.7 1.2-.9 2.3-1.2 1.8-.9m8.2.3c.3.1-1.1.8-3.8 1.8-2.3.9-5.2 2.2-6.3 2.8-3 1.6-2.9 1.2.3-1.3 2.6-2.1 8.1-3.9 9.8-3.3m-98 5.1c0 4 .2 6.6.9 9 .2.7.2 1.8-.1 3.6l-.3 2.6-.2-2.1c-.1-1.2-.5-3.1-.8-4.3-1.3-4.9-1.4-8.5-.2-11.4.7-2.1.7-2.2.7 2.6m105.2-2.9c-.1.1-1 .4-1.8.7-1.7.5-9.6 4.3-10.4 4.9-1.3 1.1-.5-.1 1.2-1.8 2.1-2.2 3.7-3.1 6.2-3.6 1.8-.4 5.2-.5 4.8-.2m9.9 3.5c1.3.2 3.4.7 4.6 1.1 1.2.4 2.7.8 3.3.8.6 0 1.1.1 1.2.3.1.2-.2.3-.7.3-2 0-5.8 1-8.8 2.2-1.1.4-1.3.5-1.7.2-.9-.8-9.4.2-12 1.4-1.4.6-1.3.2.5-1.5s4-3 7.4-4.4c2-.9 2-.9 6.2-.4m-24.7.5c-1.6 2.3-8.4 7.3-8.7 6.4-.1-.4 1.1-2.1 1.8-2.4.3-.2 1.3-.8 2.1-1.4 1.2-.9 4.7-3.1 5.1-3.1 0 0-.2.3-.3.5m45.2 3.3c1.3 0 1.8 0 1.7.3-.2.5-1.3 1-2.3 1-.5 0-2.6.2-4.5.5-2 .3-4.6.5-5.9.6-1.2 0-3 .1-3.8.2l-1.6.2.9-.7c1.6-1.3 7.4-2.4 11.3-2.1 1.3 0 3.2.1 4.2 0m-18.4 1.8c-.5.5-5 3.4-6.5 4.3-.9.5-2.7 1.9-4 3.2-2.5 2.3-2.7 2.4-2 .8.5-1.3 1.3-1.9 5.2-4.6 3.3-2.3 8.9-5.1 7.3-3.7m-10.9 2c-2.6 2-4.8 3.7-5.9 4.7-2 1.8-6.1 4.3-5.6 3.5 2.2-3.7 5.4-6.3 9.9-7.8 2.1-.9 2.3-.9 1.6-.4m-22.9 1.9c-2.8 3.7-7.5 7.9-5.7 5 .4-.6 1-1.6 1.5-2.4.9-1.6 2.9-3.4 4.1-3.8 1.2-.3 1.2-.2.1 1.2m35.8.5c-1.1 1.1-2.6 2.5-3.3 3.1-.7.7-1.7 1.7-2.3 2.4l-1 1.2.8-1.6c.5-.9 1.1-2 1.4-2.4 2.7-3.7 2.5-3.5 4-3.9.8-.2 1.6-.4 1.8-.5.9-.6.5-.2-1.4 1.7m7.6.1c-1.3 1-3 2.4-3.8 3.2-.8.8-1.6 1.4-1.9 1.4-.2 0-.8.4-1.3.9l-.9.9.8-1.4c1.7-3.1 4.2-5.2 7.3-6.2 2.3-.9 2.3-.7-.2 1.2m142.1.2c-.9 3-1.9 4.3-5.3 7-1.5 1.2 1.5-4.4 3.8-7.1 2-2.1 2.2-2.1 1.5.1m-182.2 2.3c-1.3 3.4-1.9 4.6-3.2 6.3-2.5 3.3.2-4.1 2.8-7.8 1.9-2.7 1.9-2.5.4 1.5m67.5-3.1c-1.1.8-10.4 5.4-11.2 5.6-.7.2-.7.1.8-1.3 3.3-3.1 6.6-4.5 10.1-4.7.9 0 .9 0 .3.4m-92.7.8c-.9.7-5.2 2.5-8.6 3.5-5.7 1.7-7.7 2.4-9.1 3.3-.8.5-2 1.2-2.7 1.5-.6.3-1.5.9-2 1.3s-1 .6-1.3.5c-.3-.1-.5 0-.5.2s-.1.3-.2.2c-.5-.5 2.8-4.8 4.8-6.1.9-.6 1.3-1 .9-.9-1.5.4-2.9 1.6-5.8 4.5-4.3 4.4-5.4 4.9-10.6 4.9-6.2 0-12 3.5-14.5 8.6-1 2.1-1.1 1.7-.2-.7 2.8-7.6 9.4-13 16.3-13.7 3-.3 4.9-.9 6.2-2 1-.8 3.9-2.1 6.2-2.7 4.9-1.2 5.7-1.3 10.7-1.3 5 0 5.1-.1 7.3-.9 1.2-.5 2.6-.8 2.9-.8h.7l-.5.6m115.3.8c3.1.9 3.1 1-.4 1.6-6.6 1.2-8.3 1.6-12.2 2.9-2.3.8-5 1.6-5.9 1.7s-2.1.4-2.7.6c-1.5.3-9.2.6-10.2.4l-.8-.2 1.1-.4c.6-.2 3.3-1.5 5.9-2.9 8.2-4.2 9.9-4.6 18.5-4.5 3.4 0 4.3.1 6.7.8m-34.3.4c-4.2 3.8-7.3 5.4-10.8 5.7-2.3.2-4.2.5-5.5.9-1.2.4.1-.4 2.3-1.5 1.2-.6 3.2-1.6 4.4-2.3 2.4-1.3 5.2-2.4 7.2-2.7 1.9-.4 2.7-.4 2.4-.1m113.9 2.6c-.5 2.6-1.6 3.9-4.6 6.1-1.8 1.3-1.9 1.1-.3-1 1.5-1.9 4-5.7 4.7-7 .6-1.2.7-.4.2 1.9m17.2 1.3c-.5 3.1-1.3 4.9-3 6.7-1.3 1.4-4.7 3.7-4.7 3.2 0-.2 5.3-7.6 6.1-8.6.4-.4.9-1.3 1.2-1.9.6-1.5.7-1.4.4.6m-173 2.5c-.9 1.8-8.1 9.6-8.5 9.2-.1-.1 1.1-3 1.8-4.3.4-.7 7.5-7.2 7.7-7 0 .2-.4 1.1-1 2.1m160.3.1c-.5 1-1.1 1.9-1.5 2.2-.8.5-4.4 1.5-4.6 1.3-.5-.5 6.3-5.7 6.9-5.3-.1 0-.4.8-.8 1.8m-181.3-1.2c-.1.3-.5 1.3-.8 2.3s-.9 2.4-1.3 3.1c-.4.7-1 2.1-1.4 3.1-.4 1-.9 2.3-1.2 2.9-.3.6-1.5 3-2.6 5.5-1.2 2.4-2.6 5.1-3.2 5.9-1.1 1.4-4.6 4.8-4.6 4.4 0-.1.3-1 .6-2 .8-2.6.6-2.7-1.1-.7-2.2 2.5-4.3 6.9-6.2 12.8-.7 2.1-1 1.4-1-2.2.1-6.3 2.9-11.6 8.5-15.7 4.1-3 10.8-11.6 8.4-10.6-.2.1-.8.3-1.3.6l-1 .4.5-1.4c1.2-3.1 3.5-6 6.1-7.7 1.5-1.3 1.9-1.4 1.6-.7m-39.6.4c-.3.4-.5.7-.4.7.1 0 .5-.3.9-.7.3-.4.5-.7.4-.7-.1.1-.6.4-.9.7m6.4 3.6c-4.4 4.4-7.4 5.7-10.3 4.6-.8-.3-.7-.8.3-.8.7 0 3.3-.6 4.5-1.1 1.2-.5 2.2-1.2 4-2.9 1.6-1.5 3.7-2.9 4.3-2.9.3-.1-1 1.3-2.8 3.1m155.9-2.4c1.1.3 3.6 1.2 5.6 2 2 .8 4.8 1.9 6.2 2.4 1.4.5 3.4 1.3 4.5 1.8s1.6.7 1.1.6c-.5-.1-3.2-.2-5.9-.2-6.4-.1-6.8-.2-11.6-4-1.3-1.1-2.8-2.1-3.3-2.4-1.6-.9.5-1 3.4-.2m-87 .9c-.5 2.6-1.6 4.6-4.2 7.1-1.4 1.4-2.5 2.4-2.5 2.3 0-1.3 2.8-6.1 5.1-8.5 1.8-2.1 1.8-2.1 1.6-.9m-23 .4c-.3.6-3.3 3.4-5.1 4.9-1.3 1-2.8 1.8-4.8 2.5-1.1.4-2.8 1.4-4.3 2.6l-1 .8.4-.8c1.1-2 7.1-7.5 8.9-8.1.6-.2 1.6-.6 2.3-1 .7-.4 1.9-.8 2.5-1 .7-.2 1.2-.3 1.3-.4 0 0-.1.2-.2.5m-90.5 2c-.5 7.3-4.7 14.7-12.8 22.6-2.6 2.6-5.3 5.4-5.8 6.2-1.5 2.1-3.4 6-3.4 6.7 0 .4-.1.5-.3.3-.8-.8.1-9.3 1.2-11.5 2.9-5.7 3.2-6.1 5.7-7.7 5.3-3.1 8.6-6.3 11.3-10.9 1-1.6 2-3.3 2.3-3.7.3-.5.8-1.6 1.2-2.5.7-2.2.8-2.1.6.5m138.9-1.7c.1.1-.2.3-.7.4-.5.1-2.3.9-4 1.8l-3.2 1.6.5-.8c.5-.8 2.7-2.7 3.6-3 .6-.3 3.6-.3 3.8 0m14 .4c0 .2-2.9 1.8-3.3 1.8-.2 0-1.4.5-2.6 1.1-1.4.7-3 1.2-4.5 1.5-4.8.9-8.5 1.8-10.9 2.7-3.2 1.2-3.2 1.1-.3-.7 5.1-3.3 6-3.6 13.5-4.6 2.8-.4 3.9-.6 6.9-1.5 1-.4 1.2-.4 1.2-.3m43 .8c.8.4 2.5 1.5 3.9 2.5s3.5 2.6 4.7 3.4c2.6 1.8 2.6 1.8.7 1.3-4.3-1.1-9.9-3.7-14.4-6.7l-2.3-1.5 3 .1c2.4.2 3.3.4 4.4.9m-67.1 1.3c-.5.8-1.3 2.2-1.8 3.3-1.2 2.4-8.7 8.8-9.5 8-.8-.8 6.5-8.9 11-12.1 1.2-.9 1.2-.7.3.8m134.3.4c-2.7 3.7-4 4.6-7.6 5.4l-2 .5 2.1-2c2.3-2.2 4.4-3.7 6.4-4.4 1.9-.6 1.9-.6 1.1.5m-195.2 1.1c-.1.3-.3.8-.3 1.3-.5 2.5-3.3 6.6-4.8 7-.4.1-1.3.7-2.1 1.3-2.7 2.2-3.2 2.1-1.6-.4.5-.8 1.2-1.9 1.5-2.5 1.9-3.4 3.1-4.9 5.1-6 2.3-1.3 2.5-1.4 2.2-.7m21.3.8c-3 5.5-4.2 16.7-2.7 25 .3 1.6.5 3.3.5 3.7 0 1.8.6.1.8-2.3.1-1.7.5-3.1 1-4.5l.8-2 .2 1.6c.5 3.4-.2 8.5-1.4 10.2-.4.6-1 1.9-2.1 4.7-.3.8-.4 2-.4 4.5 0 3.8-.1 3.9-.9.8-.7-2.6-.8-4-.4-10l.2-4.5-1.4-4.3c-2.3-7.2-2.5-10.1-.9-13.5l.7-1.5.1 3.1c.1 1.7.3 3.2.4 3.5.3.4.3.1 1.2-7.2.3-2.8 1.3-5 3.2-6.9 1.4-1.7 1.8-1.8 1.1-.4m85.2.2c-.1.1.4.2 1 .1 1.4-.1 3.9.5 6.7 1.5l2.1.8h-2.3c-5.6-.1-8.5.6-13.3 2.8-5.5 2.6-9.1 2.7-16.7.8-1-.3-1.7-.6-1.6-.6.6-.4 4-1.3 4.7-1.3.7 0 4-1.2 6.9-2.5.8-.4 2.4-.8 3.6-1 4.9-.7 9.1-1 8.9-.6m-144.2.9c.9.7.5 1-2.4 1.8s-4.1 1.5-6.7 4c-2.1 2-2.4 1.9-1.2-.2 2.4-4.6 8-7.6 10.3-5.6m-10.5 2.3c-2.7 3.9-3.2 4.6-4.2 7.1-1.4 3.3-1.6 3.3-1.2.4.6-4.3 2.4-7.7 4.8-8.9 2.1-1.1 2.2-.8.6 1.4m92-.9c-.2.5-.5 1-.6 1.1-.1.1-.5 1-.8 2-.8 2.3-1.7 3.8-3.3 5.5-.7.8-1.6 1.8-2 2.3l-.7.9.2-.8c.2-.8 1.9-5.1 2.7-6.8.4-.9 4.6-5.5 4.8-5.3 0 .1-.1.6-.3 1.1m154.2-.6c0 .3-2.1 2.2-3.8 3.3-1.8 1.2-5.6 3.4-5.7 3.3-.2-.2 2.2-2.8 3.4-3.8 1.6-1.3 6.1-3.4 6.1-2.8m-50.7 1.5c1.3.3 3.4 1.1 4.8 1.6l2.4 1-2-.1c-4.8-.3-9-1.5-10.8-3-.8-.7 2.4-.4 5.6.5m-173.4.5c-1.3 1.1-4.4 2.7-7.5 3.9-4.1 1.5-7.3 4.2-7.9 6.7-3 11.4 0 20.9 8.5 27.3 3.2 2.4 4.9 4.4 7.2 8.5l1 1.9-.9-.8c-3.7-3-10.1-7-9.7-6 .1.2 1.7 1.6 3.6 3.2 7 5.6 10.2 9.7 11.9 14.9.4 1.4.2 1.3-1.5-.9-1.4-1.8-5.3-5.2-5.8-5.1-.2.1-.5 0-.6-.2-.4-.4-5.2-3.9-6.1-4.4-6.2-3.3-11.5-10.5-12.7-17.5-.4-2.3-.5-5-.2-3.9.7 2.2 2.8 4.9 5 6.5.6.4.6.5-1-2-4.6-7-6.2-17.9-3.2-22.2 1-1.4 2.5-2.8 2.2-1.9-1.2 3-1.5 5.9-1.1 8.5.3 1.6.7 1 .8-1 .2-7.5 2.4-10.1 10.5-12.8 2.6-.9 5.5-2 6.5-2.6 2.2-1.2 2.4-1.3 1-.1m186.9-.4c1.6.2 3.4.3 3.9.4.5 0 1.1.1 1.3.1.8.1-1.2 1.1-3 1.5-3.1.7-4.5.6-6.8-.7-1.1-.6-2.4-1.2-3-1.4-1.1-.5 2.9-.4 7.6.1m-137.2 1.5c-.2.7-.5 2.6-.7 4.2-.4 4.1-2.6 11.1-3.5 11.1-.8 0-.2-9.7.6-10 .2-.1.6-.9.9-1.8.6-1.7 2.6-5.2 2.9-4.9.1 0 0 .7-.2 1.4m-10.9 1.1c0 .1-.8 1.1-1.8 2.2-3.9 4.2-4.9 6-5.4 9.8-.4 3.2-1 5.9-1.6 7.5l-.5 1.4.1-4.8c.2-6.6 1-8.7 5.3-13.6 1.9-2 3.9-3.3 3.9-2.5m174.2 1.2c-1.6 2.3-5 5.1-8.3 6.9l-1.8.9 3.8-3.8c3.4-3.3 5.6-5 7-5.2 0 .1-.3.6-.7 1.2m-247.1-.3c-1.3 4-1.9 8.2-1.5 11.2.2 1.8.2 2.2-.2 3.1-.9 1.9-2.2 6-2.6 8.5-.6 3.2-.8 3.2-1.6.4-.3-1.2-.7-2.5-.9-2.8-.3-.8-.2 6.5.3 10.2.5 4.1-.1 7.7-.7 4.1-.1-.7-.5-2.2-.8-3.4-1.4-4.6-1.2-13.3.4-17.4.4-1 .7-2.4.8-3.2.1-1.4 1.3-4.1 2.6-5.9 2.9-4.1 4.6-5.9 4.2-4.8m4.9 3.7c-.8 5.7-2.9 9.1-2.9 4.7 0-1.7.6-3.4 1.9-5.6 1.3-2.1 1.4-2 1 .9m234.7-.9c-2.1 2.9-6.2 4.7-9.1 3.9l-.9-.3.8-.4c.4-.2 1.5-.8 2.4-1.4 2.4-1.6 4.6-2.5 6.8-2.6h.6l-.6.8m-191.2 0c0 .9-2.7 6.2-3.8 7.5-.7.9-2 2.4-2.8 3.4-.8 1-1.8 2.2-2.1 2.5l-.6.7v-.8c0-1.9 2.3-7 4.6-10.3 1.3-1.7 4.7-4 4.7-3m97.1 0c1.1.1 2 .3 1.9.4-.2.3-5.6 2.9-6.8 3.2-3.3.9-12.8 1.5-12.8.9 0-.2 6.8-3.6 8.4-4.2 1.2-.5 5.9-.6 9.3-.3m-120.5 2c-.6.6-1.8 1.5-2.7 2-.9.5-1.9 1.1-2.2 1.3-1.3.9-.3-.8 1.4-2.5 1.4-1.4 1.9-1.7 2.8-1.8.6-.1 1.2-.1 1.4-.1.3 0-.1.5-.7 1.1m76.6.8c-.5 2.2-1.2 4-1.5 4-.1 0-.7.8-1.4 1.8-1.8 2.8-7.1 9.3-7.3 9.1-.8-.8 5.5-11 9.5-15.5 1.2-1.5 1.2-1.5.7.6m104.1-1.1c3.1.3 5.3.8 8 1.9 1.2.5 4.6 3 4.4 3.2-.5.3-3.9-.3-6.9-1.2-10.1-3-13.8-4.7-9.6-4.3.4.1 2.3.2 4.1.4M135.8 161c-2.4 2.4-3.9 6.2-4.4 11.2l-.1.9-.5-1.1c-.4-.8-.5-1.9-.6-4.1l-.1-3.1 1-1.6c1.3-2 1.5-2.2 3.9-2.9 1.1-.3 2-.6 2-.6.1 0-.5.5-1.2 1.3m169.1.7c3.1.8 10.7 3.3 10.9 3.6 0 .1.7.2 1.4.2s1.3.1 1.2.2c-.2.4-1.8.5-3 .3-4.4-.9-6.3-1.4-7.1-1.8-3-1.7-8.3-2.8-13.3-2.7-1.9.1-3.5.1-3.5 0 0-1 8.9-.9 13.4.2m-43.7-.3l1.3.4-1.3.7c-1.4.7-2.4 1-3.7 1.2-.4.1-1.4.3-2.2.6-.8.3-1.9.6-2.4.8-.5.1-1.9.5-3.1.9l-2.1.7.8-1c3.3-4.2 7.7-5.7 12.7-4.3m19.6.9c.8.3 1.4.7 1.3.9-.2.5-7.9-.1-9.8-.8l-.6-.2.7-.2c2.5-.6 6.6-.5 8.4.3m52 .1c1.6.5 1.8.7 1.5.9-.4.3-.2.3 1 .2 3.6-.4 2.8 1.2-1 1.8-2.5.4-6.4-.7-7.7-2.2-1.2-1.3 2.8-1.8 6.2-.7m-88 3.1c-2.4 3-3.5 4-6.2 5.3-2.9 1.4-2.8 1.5-1.4-.9 2.4-4 3.8-5.2 6.5-5.9 2.9-.8 2.9-.8 1.1 1.5m24.2-1.9c1.4.4 3.7 2.2 3.1 2.4-1.6.6-12.7.9-12.6.4.1-.4 3.2-1.9 5.1-2.5 1.9-.5 3.1-.6 4.4-.3m30.6.6c-.1.1.1.2.3.1.3-.1 1.1.1 1.8.3 1.1.3 1.2.4.5.4-.4 0-1.9.3-3.3.6s-2.9.5-3.5.5c-.9 0-6.2-1.2-5.9-1.3 1.6-.6 10.4-1.1 10.1-.6m-171.3.8c-1 1.9-.3 6 2 11 1.1 2.4 2 4.9 2 5.3 0 .1-.3-.3-.7-.7-.4-.5-.9-1-1.3-1.2-.5-.3-.5-.3-.2.1.5.7.1.5-.5-.2-4-4.3-4.9-10.7-2-14.5.8-.9 1.3-.8.7.2m109 .3c-.4.3-1.4.8-2.4 1.1-1.7.6-3.1 1.4-3.1 2-.1 1.2-4.9 2.3-10 2.3-4.9 0-7.5.4-10.2 1.6-2.5 1.1-1.5.2 2-2 5-3.1 10.9-4.6 19.6-5.2 2.1-.1 4-.2 4.2-.3.5-.1.5 0-.1.5m-72.9 4.7c-1.7 3.3-4 7.1-5.3 9.2-.9 1.4-1.9 3.6-2.9 6.1-.1.2-.2.1-.2-.3 0-.9.7-3.8 1-3.9.3-.1 1.1-2.7 1-3.1-.2-.4 1.8-4.4 3-6.2.9-1.4 3.9-4.1 4.4-4.1.2 0-.3 1-1 2.3m89.2-2.2c0 .4-2.9 2.1-4.5 2.7-1.9.6-5.3 1.2-5.3.9 0-.8 3.5-2.3 7.3-3.1 1.3-.4 2.4-.6 2.5-.5 0-.1 0-.1 0 0m39.3.4c2.1.7 7.9 3.8 7.8 4.1-.5 1.4-5.4-.4-8.1-2.9-2-1.9-2-2 .3-1.2m-176.1 5.6l-.3 4.4-1 1.2-1.1 1.2.2-2.7c.2-3 .4-3.9 1.6-6.7.9-2.6.9-2.5.6 2.6m-2.9-4.2c0 .1-1 1.6-2.3 3.4-3.2 4.6-6.8 10.1-7.3 11l-.4.8-.1-.9c-.2-2.2 3.1-8.2 6.3-11.2 2.1-2 3.8-3.4 3.8-3.1m199.1.5c1.6.4 5.1 1 7.2 1.3 1 .1 2.3.3 2.8.5.5.1 1.4.2 1.9.1l.9-.1-.7.6c-3.5 2.9-11 1.8-15.6-2.2l-.8-.7 1.6.2c.9 0 2.1.2 2.7.3m-6.6.7c2.4 1.2 2.6 1.7.7 1.7-1.8 0-4.2-.8-5.9-2l-1-.7 2.4.2c1.8.1 2.7.3 3.8.8M168 172.1c0 6.1-1.3 10.8-4.1 14.9-.9 1.3-1.7 2.6-1.8 2.9-.1.3-.3.5-.4.5-.3 0 .1-1.4.9-2.6.3-.5.4-.8.2-.7-.5.3-.4 0 1.4-5.2.9-2.7 2-6 2.3-7.4 1-4.9 1.5-5.7 1.5-2.4m173.7-1.9c.3.3-3.6 2.1-5.8 2.8-1.8.6-2.8.6-1.2 0 .5-.2.8-.4.7-.4-.1-.1-1 .2-2.1.6-1.1.4-2.3.9-2.6 1-1.7.4 1.7-1.6 4.5-2.6.8-.3 1.7-.7 1.8-.8.7-.5 4.3-1 4.7-.6m-110.9 2.5c-3.6 3.4-5 4.3-8.8 5.8l-1.7.6.4-.8c.7-1.3 2.4-2.8 4.2-3.8 2.1-1.1 7.5-3.7 7.7-3.7 0 .1-.8.9-1.8 1.9m-156.8 2c-.1 1.8 0 4.2.2 5.3 1.3 8.1 1.6 11.1 1.8 14.9.2 4.2-.1 5.3-.5 2.4-.1-.7-1-3.1-1.9-5.5-3.1-7.8-3.2-14.8-.2-19.3.4-.6.7-1.1.7-1.1s-.1 1.5-.1 3.3m148.8-2.3c.1.1-.2.5-.7.8-1.9 1.1-4.3 3.5-6.8 6.5-6.4 7.9-6.7 8.4-7.7 10.2-.3.6-.9 2.1-1.4 3.3l-.8 2.3.1-3.9c.1-4.4.2-4.7 3.3-10.2 2.3-4 4.2-5.8 8.7-8.2 1.9-1 4.9-1.4 5.3-.8m-74.9 2c-.8 2-1.3 5-1.2 7.5.1 1.4 0 2.4-.1 2.4-.8-.5-1.4-5.8-.8-7 1.7-3.1 3-5 2.1-2.9m113.7-.5c0 .5-2.7 2.6-4.5 3.4-2.2 1.1-5.1 1.5-8.2 1.2-1.8-.2-2.1-.3-1.2-.3 3.3-.2 6.7-1.2 10-2.9 3.4-1.8 3.9-2 3.9-1.4m50.5 1c1.6.7 3.2 1 6.1 1.2 3.7.3 3.8.8.3 1.2-3.3.4-9.8-1.5-9.8-2.9-.1-.2 2.2 0 3.4.5m-216.4 9.8c.2 1.4.5 3.1.7 3.9 1.1 3.7 1.9 10 1.5 11.6-.4 1.6-.7 1.3-1.1-.9-.4-2.6-.9-4.6-2-8.2l-.9-3.1v3.2c0 1.8.2 5.1.4 7.4.5 4.5.2 8.5-.9 11.4-.5 1.4-2.2 4-2.5 3.8-.1-.1-.4.2-.5.6-.5 1.1-.6.5-.2-1 .7-2.6.8-3.7.8-15.3.1-13.9.6-17.7 3.2-22.3l.8-1.5.2 3.9c.2 2.3.4 5.1.5 6.5m114.1-8.1c-.7.8-1.6 2.1-2 2.9-.8 1.5-1.2 1.8-.9 1 .1-.3.3-1.2.6-2 .4-1.4.6-1.6 1.8-2.5 1.8-1.2 1.9-1.1.5.6m131-.9c1.2.3 3.1.5 4.1.5 3.1 0 1.4.5-2.9.8-2.1.1-4.9.3-6.3.4-5.7.4-8.9-.1-4.6-.7 1.3-.2 3.2-.6 4.2-.9 2.4-.8 2.7-.8 5.5-.1m-228.4 4.8c0 2.2-.2 4.5-.4 5s-.3 1.3-.3 1.7c0 .7-.1.7-.4.4-1-.8 0-11.2 1-11.2.2.1.2 1.9.1 4.1m16.6-3c.2.4.5.8.7.8.1 0 0-.4-.3-.8s-.6-.8-.7-.8 0 .4.3.8m21.7 5.6c.6 1.7 1.6 4.4 2.3 6 2.1 5 2.8 8.7 2 11.8-.2.8-.2 1.4 0 1.9.2.4.2.6 0 .5-.1-.1-.5-1.2-.8-2.3-.9-3.1-1.6-5-3-7.9-2.1-4.3-3.1-10.8-2.3-14.4l.3-1.6.2 1.5c.1.8.7 2.8 1.3 4.5m93.9-3.8c1 .2 2.9.5 4.4.6l2.7.2-1.2.5c-.7.3-1.5.7-1.9.9-1.1.6-6.4 1.4-10.5 1.6-2.1.1-4.7.2-5.9.3-2.5.2-2.5-.1.4-1.7 3.9-2.3 8.5-3.2 12-2.4m-15.1.4c1.6 0 1.4.4-.6 1.2-1 .4-2 .9-2.2 1.1-.2.2-1.2.7-2.3 1.3-2 1-5 3.1-6.6 4.7l-1 1 .1-1c.6-4.5 5.8-8.7 10.2-8.2.8-.2 1.8-.1 2.4-.1m-96.7 3.9c.8.5 2.5 1.4 3.7 2 1.6.7 2.7 1.5 4 2.8l1.8 1.7-1-.3c-.6-.2-1.3-.4-1.6-.6-.3-.2-1.6-.7-2.9-1.1-3.4-1.1-6-3.4-8.5-7.4l-.6-1.1 1.8 1.5c1 .8 2.5 2 3.3 2.5m28.4-.2c-2 5.7-1.9 5.3-2.1 11.2-.1 4.7-.2 5.7-.7 7.2-.8 2.3-1.1 2.8-.9 1.5.2-1.3.2-5.7-.1-9.4-.2-3.2.4-5.7 2.5-9.8 2.3-4.5 2.7-4.7 1.3-.7m56.1-1.5c-.9 1.2-1.4 2.5-2.3 5.9-.9 3.4-1.5 4.8-2.9 6.8-.6.8-1.4 2.2-1.8 3l-.8 1.4-.1-1.2c-.1-1.4.7-6.9 1.2-8.3.6-1.8 5-7.4 5.8-7.4.2 0 .5-.2.8-.5.7-.9.8-.7.1.3m-100.7 2.8c-.3 1.6-1.8 4.8-2.8 6l-.7.8v-.9c0-2.2 1.1-5.6 2.5-7.9l.8-1.4.2 1c.2.5.1 1.6 0 2.4M80.9 189c1.2 3.4 1.6 5.7 1.1 7-.7 1.9-1.5 3.7-1.8 3.7-.1 0-.3.2-.3.4 0 .5-1.5 2.7-2.1 2.9-.3.1-.3 0-.2-.2 1.7-3.8 2.2-8.5 1.5-13.7-.2-1.4-.1-2.5.2-4.4l.4-2.5.2 2.4c.3 1.6.6 3.1 1 4.4m106.9-3.8c0 2.7.6 7 1.4 9.7 1.5 5.3 1.6 5.6.3 3.3-2.6-4.7-3.6-10.5-2.3-14.1.5-1.7.6-1.6.6 1.1m82.9-2.1c-.6.1-1.3.3-1.5.5-.2.1-.8.3-1.5.4-.7.1-2.5.6-4.1 1.1-1.6.5-3.4 1-4.1 1.2-1.2.3-6.3 3.6-8.6 5.6-.8.7-2.2 1.7-3.1 2.2-1.7 1-1.4 1.3.7.6l1.2-.4c.2 0-.7 1.5-1.1 1.9-.4.4-1.7 2.2-1.7 2.5 0 .3 4.7-3.5 5.8-4.6.6-.7 2-1.8 3.2-2.5 1.1-.7 1.9-1 1.6-.8-.3.3-1 1.4-1.6 2.6-1.1 1.9-1.3 2.2-3.2 3.3-3.2 1.9-6 4.8-10.4 10.8-3.1 4.2-4.9 5.4-9.3 5.9-.7.1-1.4.3-1.5.4-.1.1-1.1.2-2.3.1-3-.2-4.8.5-7.9 2.9-1.8 1.4-3 5.9-2 7.5.2.4.4 1 .4 1.5 0 1.4 1 1.1 1.6-.5 1.4-3.5 6.7-5.8 12.8-5.6 6.4.2 12 0 13.3-.3 4.9-1.2 8.8-5.4 10.4-11.6 1.6-6.3 8.8-8.7 17.5-5.9 3.9 1.3 6 2.7 8.5 5.7 2.1 2.5 4.5 4.8 5.1 4.8.2 0 1.2.5 2.2 1.2 3 2.1 4.4 2.6 10.5 4.4 5 1.4 9.8.1 11.5-3.2.5-1 .5-1.4.4-5.2-.3-7 1.3-10.4 6-12.8 5.2-2.6 13 .9 13.3 6l.1 1.8-1.5 1.1c-8.3 6.3 1.7 18.6 11.6 14.2 1-.4 2.5-1 3.4-1.2 2.6-.6 5.5-1.9 7.9-3.5 3.8-2.4 7.9-4.1 9.6-3.8.4.1 1.6.3 2.5.4 6.6 1.1 11.9 1.3 13.6.7 1.8-.7 1.4-1.2-.9-1.2-3 0-6.8-.9-8.9-2-4.2-2.3-4.8-2.6-7.7-2.9l-2.7-.3-2.2 1.1c-1.2.6-2.6 1.2-3.1 1.3-.5.1-1 .4-1.2.7-1.1 1.8-6.7 3.5-9.9 3-5.3-.8-6.6-3.3-4-7.4.6-.9 1.5-2.6 2.1-3.7l1-2-.2-2.7c-.4-6.3-6.5-10.8-15.6-11.5-4.7-.4-13.3 1.7-13.3 3.1 0 .1-.7 1-1.6 1.9a12 12 0 0 0-3.5 7.1c-.4 3.6-.5 3.7-1.1 4.4-2.4 2.8-9.5-.6-15-7.1-6.3-7.2-15.8-12.3-21.5-11.2M89 194.5c0 10.6 0 10.8-1.9 14.2-.9 1.7-.9 1.7-.8.7.4-3.5.5-8.3 0-10.1-.6-2.5-.6-2.5.7-6 1.1-3 1.4-4.5 1.7-7.1.3-2 .3-1.7.3 8.3m184.9-8.9c-4.6 1.7-8.3 4.5-10.4 8-3 5-3.5 5.5-3 3.2.7-3.6 4.1-9 6.1-9.6.3-.1 1.1-.5 1.6-.9 1.1-.7 2.6-1 5.2-1.1h1.5l-1 .4m7.5 2.1c2.2 1.1 9.1 6.8 9.1 7.5 0 .3-4.7-2-8.9-4.4-2.7-1.6-4.5-2.4-5.8-2.8l-1.9-.5 1-.3c1.4-.4 5.3-.1 6.5.5m-47.6.2c-.6.2-1 1.4-1.3 3.5-.3 1.8-.9 4.3-1.4 5.3l-.4.9-.2-1.7c-.3-3-.8-7.3-.9-7.4-.8-.8-1.7 1.8-1.7 4.7 0 4.3-3.8 10.4-7.8 12.4-.9.5-.8.2.4-1.5 1.7-2.3 4-9.5 3.3-10.8-.5-1-1-.2-1 1.6 0 2.3-2 4.2-6 5.8-3.2 1.3-3.5 1.5-3.6 2.7-.2 1.5-.1 1.5 1.8.5.9-.5 2.4-1.3 3.2-1.8.9-.5 1.8-1 1.9-1.1 1.6-1.2-1.7 3.2-4.1 5.6-2.6 2.6-2.5 2.2-1.1 5.2 2.9 6.4 2.7 6.2 3.2 4 .6-2.8 2.1-4.1 7.3-6 8.5-3.2 12-8.7 13.1-20.7l.2-1.7h-2.1c-1.3.3-2.5.4-2.8.5m-116.6 3.6l-1.8 3.6-1.1 2.3-.3-1.3c-.3-1.5-.3-1.7 1.4-3.9.6-.8 1.4-2 1.8-2.6l.6-1.2.1.9c0 .5-.2 1.3-.7 2.2m-6.9 3.5c1.1 3.1 1.7 6.8 1.3 8.9l-.2 1.4-.4-.9c-.2-.5-.6-1.5-.7-2.2-.2-.7-.5-2.3-.8-3.6-.3-1.4-.6-3.6-.7-6-.1-3.7-.1-3.7.2-2 .2.9.8 2.9 1.3 4.4m166.8-4.6c2.8 1.4 5.8 3.9 8.2 6.9 1.1 1.4 2.2 2.8 2.4 3.1.2.3-.7-.5-2-1.8-6.1-5.8-13.4-8.1-18.4-5.8l-2.1 1 .8-1c3.2-3.9 6.7-4.6 11.1-2.4m-169.5 9.7c.2 1.3.6 2.8.7 3.3.4 1.3.3 4.4-.1 6l-.3 1.3-.8-2c-1.6-3.8-2-12.2-.7-16l.5-1.5.2 3.2c0 1.8.3 4.3.5 5.7m-4-3.8c0 7.6.5 12.7 1.5 14.1.2.3.2.2.1-.3s0-.4.3.3c1.1 2 1.5 5.6 1.1 8.5-.5 3.7.3 9.1 1.7 11.1.3.4 2.1 2.5 4 4.5 5.5 6 6.9 8.5 9.9 17.3 1.3 3.8 2 5.6 3.8 9.3.3.7-3.9-3.3-4.8-4.4-1.6-2.1-3.3-5.7-4.1-8.6-1.4-5.1-3.5-8.9-7.6-13.4l-1.1-1.2.6 1.8c.3 1 1.3 2.8 2.2 4.1 1.9 2.9 3.6 6.4 5.2 11 1.6 4.5 2.5 5.9 5.8 9.5 3 3.1 3.2 3.5 1.2 2.5-4.5-2.3-8.3-5.5-9.7-8-.5-.9-1.2-2-1.6-2.6-.4-.5-.9-1.5-1.2-2.1-.3-.6-.6-1-.7-1-.4.2-4.2-4.2-6.3-7.3-4.4-6.6-6-11.2-5.6-16.9.1-1.6.3-6.4.4-10.6.2-5 .3-7.8.5-8 .2-.2.3-.2.3.2 0 .3.5 2.3 1.2 4.6l1.2 4.1-.5 2.9c-.7 4.6-.7 10.6.1 13.2 1.2 3.8 4.4 9.3 5.9 10 .4.2.9.6 1.1.9.7.8.6.5-.2-1.4-.4-.9-.8-1.6-.9-1.5-.3.2-1.9-2.5-3-5-1.8-3.8-2.4-10.2-1.4-13.5 1-3.3 1.1-3.6.7-6.5-.2-2.1-.6-3.4-1.5-5.7-2.3-5.9-2.3-8.5.5-15.1.9-1.6.9-1.6.9 3.2m40.7-1c2.3 2.6 4.3 8.2 4.3 11.8v1l-.6-1.1c-.3-.6-1.4-2.5-2.4-4.3-1-1.8-2.1-3.8-2.4-4.6-.6-1.6-1.9-4.1-2.7-5.4l-.6-.9 1.6 1.1c.9.6 2.2 1.7 2.8 2.4m178-3c2.1.2 3.8.4 3.8.4.6 0-.6.3-2.4.7-5.7 1.1-9.7 4.1-11.3 8.8-.3.9-.9-1-.9-3 0-2.6 2.7-6.4 5-6.9.4-.1.8-.2 1-.2.5-.2 1-.2 4.8.2m-48 3.4c1.8.8 1.7 1-.6 1.2-2.2.2-5.6 1-6.7 1.6-.4.2-1.4.6-2.4.8l-1.7.4 1.2-1.2c1.6-1.6 3.7-3.2 4.5-3.4 1.4-.4 4.4 0 5.7.6m57.8.1c3 1.3 4.6 4.4 3.2 6.5l-.5.8-.2-1c-.2-1.5-1.4-3.2-3.3-5-1.8-1.8-1.5-2.3.8-1.3m-37.5 5c6.7 7 6.6 6.9 10.3 8.4 1.4.6-1.4.3-3.9-.4-4.5-1.3-5.6-2-8.8-6.4-1-1.3-2.5-3.3-3.4-4.3s-1.6-2-1.6-2.1c0-.7 5.5 2.8 7.4 4.8m-191.9-4.5s-.1.5-.3 1c-.2.8-.2.9.1.4.4-.5.5-1.5.3-1.5 0 0-.1 0-.1.1m137.5.7c-.1.2.3.2.9.1 1.3-.2 1.4-.3.3-.3-.6-.1-1.1 0-1.2.2m-12.3 6.2c-.5 2.2-.9 2.7-3.9 4.5a12.6 12.6 0 0 1-6 2l-1.8.2 1.4-.7c4.3-2.1 8.5-6.2 10.3-10.2.5-1.2.5 1.7 0 4.2m25.9-3.6c-1.6 4.6-5.9 9.6-10 11.6-3.1 1.5-3.2 1.5-1.7-.4.8-.9 2.1-2.6 2.9-3.8 2-2.9 5.2-6.2 7.2-7.4 2-1.2 2-1.2 1.6 0m23.2-.6c1.1.3 1.6.7 2.6 1.8 1.6 1.8 1.5 2-.3.9-2-1.3-3.7-2-4.8-2-1.5 0-3.7-.6-3.2-.8 1-.4 4.3-.3 5.7.1m-175.5 1.5c-.1.5-.1.9-.1 1 .1.1.2-.3.3-.7.3-1.2 0-1.4-.2-.3m-18.7 1.4c-.4 2.1-2.3 7.1-3.3 8.5-1.2 1.8-4 8.1-4 9.2 0 1.7 7.1-10.5 8.6-14.9.9-2.5 1.1-2.2 1.1 1.3 0 4.4-.9 6.8-4.5 11.6-4 5.4-5.2 9.5-3.9 14.1.2.7.4 1.7.5 2.4.2 1.7.8 3.3 2 5.6 1.1 2.1 1.7 3.8 3.4 10.8 1.5 6 2.2 6.2 1.1.3-.3-1.5-.6-3.4-.8-4.4-.2-.9-.4-1.9-.5-2.1-.3-.7 2 1.6 2.7 2.7.3.6 1.1 2.7 1.6 4.7s1 3.7 1.1 3.7c.2.2-.1-6-.3-6.5-.5-1.2.5-.3 1.6 1.3 2.7 4.2 3.5 10.7 2 16.1-.3 1.1-.6 2.3-.7 2.7-.1.4-.2.7-.4.7-.1 0-.2.2-.2.4 0 1.8-1.6-4.2-2.6-9.7-.2-.9-.5-2.2-.8-2.8l-.5-1.1v1.3c0 2.1.5 6.4 1.2 9.7.4 1.7.7 3.6.8 4.3.3 2.1 2.5 9.4 3.3 11 .4.7-.2.7-1 0-1-.8-5-10.2-6.6-15.4-.4-1.3-.9-3-1.2-3.8-.9-2.5-2.1-7.2-3.3-13.5-1.5-7.7-1.7-8.2-5.5-13.9-.8-1.2-1.8-3.2-2.3-4.3-.7-1.7-.9-2-.9-1.3v.8l-.5-1c-1.5-2.9-1.6-5.7-.4-11 1-4.3 1.5-5.2 5.1-8.9 1.7-1.8 3.7-4.1 4.4-5.1 2.4-3.5 2.9-3.9 1.6-1.4-.9 1.9-.1.8 1.1-1.5 1.2-1.8 1.2-1.8 1-.6m158.2.9l-5.6 3.8c-2.2 1.5-4.3 2.9-4.7 3.2l-.7.5 2.7-.1c2.4-.1 2.9-.2 4.6-1 1.6-.8 2.8-1.8 1.5-1.2-.7.3-3.4.5-3.2.3.1-.1 1.4-.8 2.8-1.6 2.5-1.3 2.6-1.4 3.5-3 1.1-2.2 1-2.3-.9-.9m67.8 3.7l-.5 1.2-1.8-.1a8 8 0 0 1-5.2-2.3c-1.4-1.3-1.3-1.4.7-.9 2.4.6 5.2.1 6.4-1.2l.5-.6.2 1.4c.2 1 .2 1.5-.3 2.5m26.5.7c-.2 2.9 1.1 7.2 2.5 8.8.9 1-.2.4-1.3-.7-2-2-3.2-6.3-2.2-8.2.4-.8.9-1.6 1-1.6.1 0 0 .8 0 1.7m-243.5.9c0 .6.1.8.1.5.1-.3.1-.8 0-1.1 0-.3-.1 0-.1.6m-2.5 1.4c-.8 5.8-2.2 8.7-6.2 12.5-.9.9-2.1 2.3-2.6 3.1-.5.8-1.2 1.8-1.5 2.2-.3.4-.8 1-1 1.5-.5.9-.5.8-.5-1.6 0-3.5 2.2-7.4 7-12.5 2-2.2 2.9-3.4 3.8-5.1 1.4-2.6 1.4-2.6 1-.1m26 3.4c.8 3.2 1.4 4.9 2.7 7.6 1.5 3.2 1.7 3.6 1.5 4.6l-.2 1.1-1.6-3.3c-2.8-5.7-3.1-6.4-3.4-8.5-.2-1.1-.3-3.1-.3-4.4 0-1.3.1-2.1.2-1.7s.5 2.4 1.1 4.6m-4.8-2c-.1.5-.4 2.2-.6 3.7-1 5.6-.5 9.4 2.3 15.9l.4 1-.8-.5c-.9-.6-2.8-3-3.4-4.3-.5-1.1-.5-3.7 0-7.2.2-1.5.3-3.2.2-3.9-.1-.9.1-1.7.7-3.4.5-1.2.8-2.4.8-2.8 0-.6 0-.6.2 0 .3.3.3.9.2 1.5m269.4-1.7c-.3.3-.2.6.4.4.3-.1.5-.2.5-.4s-.6-.3-.9 0m-227.2 5.3c.6 4.1.7 4.4.4 6.1-.1.9-.3 2.4-.4 3.4-.2 2.1-.5 2.3-.8.6-.1-.7-.4-1.7-.6-2.3-.4-1.2-.4-4.5.2-9.1.4-2.8.5-2.6 1.2 1.3m202.4-2.1c-2.7 2.2-5.6 3.5-9.2 4-3.8.5-5.2-.2-6.9-3.3l-.6-1.1 1.3.8c3.1 2 7.9 1.9 14.1-.4 2.3-.9 2.3-.9 1.3 0m-232.2 8.1c1.5 2.8 3.8 11 3.8 13.6 0 .4-1.4-1.8-2.4-3.6-.3-.5-.5-1.6-.6-2.4-.3-3-1.3-6.5-2.6-8.9-.7-1.4-.7-1.5.3-.8.4.3 1.1 1.3 1.5 2.1m-31.7-1.4c-1.6 2.7-2.5 4.3-3.3 5.5a20 20 0 0 0-2.7 8l-.2 2.1-1.2-2.4c-2.3-4.6-.6-8.5 5.6-12.5 1-.6 1.9-1.3 2-1.5.4-.7.3-.1-.2.8m22 2.7c4.2 9.3 4.6 10.5 4.9 13.5.2 2.3.3 2.3-1.4-.1-.7-.9-.8-1.4-.9-3.1-.1-1.8-.3-2.4-1.9-5.8-1.4-2.9-1.8-4.1-2-5.5-.2-1.9-.1-2.5.3-1.4.1.4.6 1.4 1 2.4m-22 3.1c-1.2 2.9-1.5 9.1-.5 12.8.3 1.2.5 2.3.4 2.5-.1.2 0 .4.1.4s.2.2.2.4.2.8.5 1.4c.8 1.7.3 1.3-.8-.5-2.9-5.2-3.2-10.6-.8-15.6 1.2-2.7 1.9-3.6.9-1.4m81.5 1.8c-1.3 2.8-2.3 4.8-4 7.3-6.5 9.8-8.7 21.9-6.4 35.2.2 1.2.6 3.5.8 4.9.6 3.6 1 5.2 1.9 7.8.9 2.4.7 2.6-.7.8-.4-.5-1.4-1.7-2.3-2.7s-1.9-2.4-2.4-3.4c-.9-1.7-2.9-4.5-5.3-7.1a13.9 13.9 0 0 1-3.2-6.3c-.3-1.1-.7-2.6-.9-3.4-1.5-5.4-1.5-5.6.5-8.6.6-1 1.4-2.2 1.7-2.7 1-1.7 4.1-5.3 8-9.3 2.1-2.2 4.6-4.9 5.6-6 2.8-3.3 7-8 7.1-8 .2.1-.1.7-.4 1.5m-42.3 1.8c1.2 2.7 1.8 7.7 1.5 12.4l-.2 2.5-.8-1.3c-.8-1.3-.8-1.4-.8-5.8 0-4-.2-6.2-.7-8.7-.2-1.2.2-.8 1 .9m-49.5 3.8c.9 1.8 2.7 4.2 4.5 5.9 3.6 3.5 7.1 9.7 7.9 14 .2.8.1.8-.8-.8-1.2-2-3.3-4.2-5.8-6.1-6.2-4.6-9.1-11.1-7.1-15.4l.4-.8.2 1c0 .6.4 1.5.7 2.2m137.1.2c.2 1.8.8 3.5 2.8 8.4 3.1 7.4 3 11.5-.2 18.3-1.4 3-1.4 2.8-.1 7.5 1.4 5.2 1.3 11.9-.3 16.8-1.2 3.6-1.3 3.6-1.1.4.2-3.1-.3-4.9-1.9-6.3-.9-.9-.9-.8-1 3.6-.2 9.6-2.2 16-3.5 11.4-.8-2.8-2-3.4-1.5-.7.3 1.9-.1 3.4-2.3 8.5-1.8 4-1.6 3.9-2.5 1.5-1-2.9-3-5.9-3.9-5.9-.4 0-.4 0 .1 2.6 1.1 5.5 0 12.2-2.9 16.9-.8 1.3-4.4.5-8.4-1.8-.5-.3-1-.5-1.1-.5s-.1 1-.1 2.3c0 5.1-1.3 7.4-3.7 6.4-.6-.2-2-.7-3.2-1-1.2-.3-2.8-.8-3.5-1.2-1-.5-1.4-.6-1.4-.3 0 .5 2 3.5 2.9 4.4.4.4.8.8.8.9 0 .3-3.1.7-4.3.6-1.8-.2-1.5.2.5.8 3.2.9 10 .5 15.4-.9l2.9-.8 1.6-1.7c.9-.9 1.7-2 2-2.5.6-1.2 3-4 3.6-4.2.5-.2 1.4-2 2.1-4.1 1.2-3.7 4.4-9.5 7.2-12.7 10.2-11.8 13.2-22.2 10.4-35.8-.2-1-.1-1.8.5-4.4 1.9-8.2 1.9-8.6 1.3-11.1-.6-2.4-2.3-6.9-4.2-10.9-.8-1.7-1.8-3.8-2.2-4.6-.8-2-1-1.9-.8.1m-121 9.4c.1.8-.1 3.1-.3 5.1-.4 3-.4 3.9-.2 5.9.3 2.5.2 3.1-.2 1.7-.6-1.9-.9-7.6-.6-9.5.3-1.6.3-2-.2-3.9-.3-1.2-.6-2.3-.6-2.6s-.3-1-.7-1.7c-.4-.7-.7-1.8-.8-2.4-.1-.9.1-.5 1.6 2.4 1.5 2.8 1.9 3.8 2 5m170.2-4.2c-.2.2-3.2.9-4 .9-1.1 0-3.7 1.3-4.7 2.4-1.9 1.9-2.3 3.3-2.8 10-.7 8.2-1.6 12.6-3.9 17.9-1.4 3.3-1.2 3.3 1.7.4 1.4-1.4 3.2-2.9 4-3.5 7.5-5 12.5-10.7 13.3-15.3.8-5.2-1.8-14.7-3.6-12.8m-143.6 3.2c.5.7 1.8 2.7 2.9 4.5 2.1 3.2 4.1 7 3.8 7.3-.5.5-4.3-4.1-5.8-6.9-1-1.8-2.1-4.9-2.1-5.9 0-.7.1-.6 1.2 1m139.1.8c-.5.6-1.2 1.4-1.7 1.8-.4.4-1.3 1.5-2 2.3-.7.8-1.3 1.6-1.5 1.7-.3.3 0-1.4.4-2.7.3-1.1 4.2-3.9 5.5-4.1.1 0-.2.5-.7 1m1 6.4c-1.4 3.4-2.9 6.9-3.4 7.7-.5.8-1.1 2-1.4 2.6-.4.9-3 4.7-3.2 4.7 0 0 .1-.9.4-1.9.3-1.1.7-3.3.9-5 .5-3.6 1.1-5.3 2.6-7.3 1.3-1.7 6.3-7.2 6.5-7.1 0 .1-1.1 2.9-2.4 6.3m21.5-.6c-1 .6-3.2 2.1-4.9 3.3-3.1 2.2-3.3 2.6-.9 2.1 1.6-.4 2.8 0 2.8.9 0 7.1-8.2 17.3-18.6 23-3 1.7-3.1 1.7.7 1.3 9.3-.9 28.5-12.3 31.2-18.5 1-2.3 1.4-9.2.5-10.8-.5-.9-2.9-1.8-5.1-2-1.1-.1-2.3-.2-2.9-.3-.7-.1-1.3.1-2.8 1m4.4 2.5c.3 1.2-.5 3.8-2 6.5l-1 1.8-.2-2c-.3-3.6-1.2-5-3.3-5.4l-1.1-.2 2.3-1.1c2.9-1.4 4.9-1.2 5.3.4m-186.9 7.5c2 3.1 2.6 6.3 1.8 9.2l-.3 1.1-.7-2.9c-.4-1.6-1-3.7-1.3-4.7-.6-1.7-1.4-5.8-1.4-6.6 0-.2.2.3.5 1.1s.9 2.1 1.4 2.8m28.3 1.7c1.7 1.8 6.1 9.2 6.1 10.4 0 .1-.9-.5-2-1.4-1.1-.9-2.4-1.8-2.9-2.2-1.6-1-4.2-5.1-6.3-10-.3-.7-.7-1.6-.8-1.9-.3-.6 3.6 2.8 5.9 5.1m152.8-.4c-.4 2.3-1 4.9-1.4 5.7-1 2-9.3 8.8-10.7 8.8-.1 0 .9-1.1 2.3-2.5 5.9-5.9 7.8-8.1 9.2-11.3.7-1.6.8-1.7.6-.7m-156.2 16.5c.9.5 4.1 3.8 7.1 7.2 2.9 3.3 6.8 7.4 8.2 8.6 1.5 1.3 2.5 2.4 2.5 2.9 0 .1-.1 0-.3-.1-.9-.8-4-3-4.8-3.4-1.1-.6-5.2-3.1-7.2-4.4-5.3-3.3-11.1-6.1-14-6.6-.8-.2-1.7-.4-1.9-.6-.4-.3-8.4-.2-9.3.2-.4.2-.5.1-.4-.2.2-.6 1.8-1.3 8-3.6 2.4-1 10.4-.9 12.1 0m148.4 2.8c-.7.3-1 1.3-.5 1.7.9.6-.5 4.3-1.8 5-3.2 1.7-16.8 2.1-22.7.8-2.3-.5-2.6-.4-1.4.9 6 6.2 17.5 12.1 22.7 11.6 3.4-.4 7.8-3.3 11.6-7.7 3.4-3.9 3.3-7.4-.2-9.8-2.6-1.8-3.3-2.2-4.8-2.3-.8-.1-1.6-.2-1.8-.3-.2-.1-.7 0-1.1.1m-55.8 1.4c-.1.2-.2.8-.1 1.1 0 .6.1.5.3-.3.2-1 .1-1.5-.2-.8m59.8.8c1.3.7.7 1.7-1.8 3.1l-1.1.6.3-.7c.1-.4.3-1.3.3-2-.1-1.5.7-1.8 2.3-1m24.7 6.6c-1.9.1-5.1.3-7.2.4l-3.7.2-.2 1.3c-.1.7-.3 1.6-.4 1.8-.2.5-.1.5 1.1.3 2.4-.3 13 .7 13.6 1.3.1.1-.7.2-1.8.2-1.9 0-4.8.2-11.4.9-3.2.3-3.3.3-4 1.2-.9 1.1-2.2 2-5.2 3.5-4.1 2.1-4.1 2.2.8 1.8 2.9-.3 4-.5 5-1 3.2-1.5 6.2-2 8.8-1.4 3 .8 3.9 1.2 6.9 3.2 3.1 2.1 3.1 2.3.2 1.8-8-1.4-18.8-1.3-23.2.2-1 .3-1.5.4-3.1.1-1.2-.2-2-.2-2.1 0-.4.4 2.7 1 6.6 1.4 6 .5 7.5.8 10.6 1.7 2.6.8 5 1.8 5 2.1 0 0-2 .1-4.5.1s-5.1.1-5.9.1c-1.8.1-6.4-.5-9.1-1.1-1.8-.4-20-.6-31.6-.3-1.5 0-4.5-.6-5-1.1-.1-.1.4-.3 1.1-.4.7-.1 2.7-.6 4.5-1.2 1.8-.6 3.4-1.1 3.7-1.1.7 0 .5-.4-.9-1.3-1.8-1.2-3.4-1-10.1 1.4-1.4.5-2.8.9-3.2.9-.3 0-.7.1-.9.3-.2.2-1.2.4-2.3.5l-1.9.2 2.1 1c6 2.9 12.3 4.4 16.6 4 .9-.1 2.4-.1 3.4.1l1.8.2-3.5 1.3c-6.2 2.4-10.4 3.3-14.1 3.2-3.2-.1-8.3-.7-9.7-1.1-1-.3-2-.5-2.3-.5-.7 0-3.6-1.9-4.6-3.1-1.5-1.7-2-.5-.6 1.3 2.3 2.9 4.2 3.8 11.5 5.2 5.2 1 17.7-.4 23.9-2.7.8-.3 2.4-.6 3.7-.8 1.3-.2 3.6-.5 5-.8 6.2-1.3 11.1-1.6 14.8-1 2.5.4 9.2 2.3 10.6 3 1.7.9 5.3 2.3 5.8 2.3.2 0 1.4.5 2.5 1.1 2.7 1.3 7.6 3.5 8 3.5.2 0 1.2.4 2.3 1 1.3.7 2.2.9 2.7.8 2.9-.6 17.7 7.6 22.5 12.3 9.6 9.5 8.8 16-2.5 20.3l-4.4 1.8c-1.2.5-3.1 1.1-4.1 1.3l-1.9.4h1.6c4 .1 12.5-2.1 15.1-3.9.7-.4 1.6-.9 2.1-1s1.5-.6 2.2-1l1.3-.9.9.5c1 .5 2.7.6 3.1.2.1-.1.9-.3 1.6-.4s1.5-.2 1.7-.3.9-.3 1.5-.4c.7-.2 1.1-.4 1.1-.7 0-.2.3-.4.7-.4 2.9 0 11.9-7.3 12.8-10.4 1-3.5-1.5-10.8-5-14.7-.6-.7-1.6-1.8-2.2-2.6-1.2-1.5-2.3-2.6-4.6-4.3-3.8-2.9-6.6-5.7-9-8.8-1-1.4-2.4-3-3-3.7-.6-.7-1.6-1.9-2.2-2.8-1.3-1.8-6-6.4-7-6.9-.4-.2-1.4-.9-2.3-1.5-7.7-5.4-14-7.7-21.6-7.7-2.8 0-4.1-.1-4.4-.3-.2-.2-.6-.3-.8-.3s-1.4.1-3.3.2m-48.5 2.1c1.2.4 2.5.8 3 .9.5.1.9.3.9.4 0 .1 1 1 2.2 1.9 3.5 2.8 3.5 2.7 2.3 2.2-.6-.2-1.7-.8-2.5-1.3s-2.4-1.4-3.5-1.9c-2.7-1.4-6.5-3.8-4.9-3.2.1.2 1.3.6 2.5 1m16 3.9c1.8.4 3.3.4 6 0l.9-.2-.9.8c-4.2 3.7-6.8 3.5-12.7-1.4l-.8-.7 2.8.5c1.5.3 3.7.8 4.7 1m42 3.6c4.1 1.5 12.9 6.6 12.4 7.1-.1.1-1.2 0-2.5-.2s-3.4-.4-4.6-.4c-3.8-.2-6.3-1.4-11.7-5.5-1.4-1.1-1.4-1.3-.1-1.3.5 0 1.3-.1 1.7-.2 1.3-.5 2.6-.3 4.8.5m-32.4 8.5c.1.1.5.3 1 .2.8 0 .8 0 .2-.2-1-.3-1.4-.3-1.2 0m-206.9 2.7c-1.6.9-4.5 5.2-5.4 7.8-1.5 4.6-1 8.4 1.7 14 .6 1.1 1.3 2.8 1.7 3.8.3 1 .9 2 1.3 2.4.4.4 1.3 1.5 2 2.4 2.2 2.9 14.6 14.9 15 14.6.1-.1-.5-1.5-1.2-3.3-.7-1.7-1.6-4.2-2-5.4-3.7-12-4.7-16.6-4.7-22.3 0-4.8-1.8-8.6-5.9-12.9-1.6-1.5-1.7-1.6-2.5-1.1m252.1 2.1c7 2.9 12.1 6.5 14.6 10.3.5.7 1.6 2.3 2.4 3.4.9 1.1 2.1 2.8 2.8 3.7 2 2.8 5.4 6.7 6 6.9 3.6 1.4 5 11.6 2 14.7-1 1.1-7 3.1-7 2.4 0-.1.3-.6.7-1.2 1.5-2.4 1-8.6-1.1-12.8-.4-.7-.9-2.1-1.2-3.1-1.9-6.2-11.8-17-21.7-23.6-1.7-1.1-3.1-2.1-3.1-2.2 0-.4 2.6.3 5.6 1.5m9.7.4c7.7 3.1 9.6 5.1 11.2 12 .4 1.7.4 1.7-.9-.2-3.5-5-7.9-9.2-12.6-12.1-2.5-1.5-2.3-1.5 2.3.3m-32.8 2c4.9 1.2 6.4 2 8.8 4.6l2 2.2-1.3-.4-2.5-.7c-1.7-.4-4.1-1.4-8.3-3.3-2-.9-4.3-2-5.2-2.4-1.8-.8-1.7-.9.4-.3l1.5.4-.8-.7-.8-.7 1.4.2c1 .3 3 .7 4.8 1.1m-230.5 2.1c-.9 2.9-1.2 5.4-1.2 9.1 0 4-.2 4-1.2.2-.7-2.8.2-7.6 1.9-10.1 1-1.4 1.1-1.2.5.8M360 328.6c5.1 6.8 5.1 14.8 0 18-.5.3-1 .8-1.1 1.1-.1.3-.2.5-.3.4-.1-.1.1-.7.3-1.4.5-1.6.5-5.8.1-7.4-.7-2.8-1.8-4.7-4.4-8.1-1.3-1.7-2.4-4.1-2.8-5.9-.5-2.3-1.3-6.1-1.5-6.6-.2-.7 8.1 7.8 9.7 9.9m-283.8-1.9c1.8 4.4 3.4 7.7 4.9 10 .8 1.2 1.9 3 2.4 4s1.5 2.6 2.2 3.6c.7 1 1.3 2.1 1.5 2.4.4.6-3.9-3.3-6.1-5.8-.9-.9-1.8-2.1-2.1-2.6-.3-.5-1-1.5-1.7-2.2-2.2-2.1-2.9-4.7-3.1-11.6l-.1-4.3.5 1.9c.3 1.1 1 3.2 1.6 4.6m206.2-5.4c-.7.1-1.7.1-2.4.1-3.3-.4-10.2 1.7-17.9 5.3-4.3 2-5 2.3-8.3 2.8-2.6.4-4.7.5-6.3.1-1.6-.4-12.7-.9-13.6-.7-.8.2-.7.2.5.4.7.1 2.4.5 3.6.7 7.4 1.7 7.3 1.7 12.2 1.5 6.3-.2 6.6-.3 15.9-4.5 1-.5 2.6-1.1 2.8-1.1.1 0-.4.3-1 .6-.7.3-2.4 1.5-3.9 2.5-6.6 4.6-8.3 5.4-13.4 6.1-3.4.4-11.1.4-14.5-.2-1.8-.3-8.3.2-10.8.7-1.9.4-16.1 0-16.9-.5-1-.7-1.4-.6-1.3.3l.2.8-1-.4c-1.6-.6-4.4-2-5.4-2.9-2.1-1.7-2.5-.6-.4 1.3 4.4 4.1 11.1 5.9 23.4 6.2 4.9.1 9.5.3 10.2.4.7.1 1.5.1 1.7 0 1.6-.6-3.7-2.1-8.6-2.4l-3.2-.2 2.2-.5c1.7-.3 3.1-.4 5.8-.3 2.6.1 3.9 0 4.7-.2 1.6-.5 5.5 0 7.2 1 2.4 1.4 12.1.3 13.7-1.6 1-1.2 10.9-8 14.6-10 3.5-1.9 9.1-3.4 16.3-4.5 3.9-.6 3.9-.7 0-1.2-2.9.1-4.3.1-6.1.4M85 322.8c-.4.6.8 4.1 2.3 6.9 2.5 4.8 2.4 4.7 6.6 6.3 2.6 1 4.8 2.3 5.7 3.3.8.9 1.4.7 3.9-1.8 2.4-2.4 3.1-3.4 2.8-4.3-.2-.7-.8-.6-1.5.3-1.2 1.6-1.9 1.3-4.2-1.7-2.3-3-2.8-3.3-5.6-3.3-2.6 0-4.6-1.1-7.3-3.8-2-2.1-2.4-2.3-2.7-1.9m24.9 1.6c-.2.3-.3 1.3-.3 2.2 0 4.6-1 8.1-3.1 10.6-1.5 1.8-1.8 2.5-2.5 5.6-1 4.8-2.6 8.4-4.4 10.3-1.1 1.2-.8 1.3 1.3.7 9.3-2.5 19.3-14.6 19.3-23.4 0-3.6-.6-4.3-3.9-4.7a5 5 0 0 1-2.3-.6c-1-1.2-3.5-1.7-4.1-.7m37.4.2c-.1.4-.1 1 0 1.4 1.1 4.5 1.1 6.7.3 8.7-1.3 3-1 3.4.9 1.4 2.8-3 4.1-11.1 2-11.9-1.4-.6-3-.3-3.2.4m-34.6 2.9c.7.5 1.3 1.1 1.4 1.5.5 1.9-.7 7.5-2.4 11.3-.7 1.6-.8 1.6-.4-.2.3-1.5.5-11.8.2-12-.2-.1-.3-1.4-.1-1.4 0-.1.6.3 1.3.8m44.5 1.4c-2.8 7-5.5 9-15.7 11.8-5.1 1.4-17.1 2.6-20.3 2-.9-.2-4.4 2.9-3.6 3.2 2.3.8 10 2.2 14.2 2.6 5.4.5 5.8.6 3.3 1.2-5.3 1.2-7.5 1.3-13.2.2-5.8-1.1-6.5.1-1 1.5 4.4 1.1 6.5 1.6 7.8 1.8.8.1 2.7.3 4.3.6 3.2.5 7.5.4 12.1-.1 3.4-.4 4.6-.7 8.5-2.5 1.3-.6 2.9-1.2 3.5-1.4.6-.2 1.6-.6 2.3-1 1.5-.8 1.6-.6.3 1-2.3 2.8-4.4 4.1-7.6 4.5-1.2.1-3 .4-3.8.5-.9.1-2 .2-2.5.2-1.5 0-1.3.7.5 2.1.9.6 2 1.4 2.4 1.7 2.8 2.1 12.2 1.9 16.3-.4 2.2-1.2 7.4-7.2 7.4-8.4 0-.2.4-1.1.9-2 1.5-2.9 2.4-8.5 1.9-11.3-.2-.9-.7-1.4-.7-.6 0 2.9-6.7 11.6-10.4 13.5-2.6 1.3-2.6 1.5 2-4.5 3.5-4.5 4.7-7.3 4.7-10.5 0-1.9-.4-2.2-.8-.6-.3 1.3-2.1 5.1-2.2 5-.1-.1 0-.8.1-1.6.8-5.6-1-8.2-5.6-8.4-1.9-.1-3.3-.3-3.8-.5-.9-.7-.8-.7-1.3.4m135.6.3c0 .1 1.3.7 2.9 1.2 5.3 1.8 10.5 4.7 10.1 5.5-.1.2-.9-.1-4.5-1.7-1.5-.7-6.1-1.4-6.7-1-.1.1-2.7 0-5.6-.2-5.8-.4-5.8-.4-10.3 1-1.2.4-2.2.8-2.1.9.1.3 10.5.6 17.9.5 2 0 4.4.1 5.3.3 7.1 1.3 11.1 9.6 6.6 13.6l-1.2 1.1 1.7-.2c2.1-.2 3.9-1 5.5-2.6.7-.7 1.4-1.2 1.6-1.3 1.4-.3 1.7-2.8.6-5.1-2.3-5-7.3-9.3-12.3-10.4-.7-.2-2.4-.6-3.7-1-2.6-.7-5.8-1-5.8-.6m-238.4 1.1c-2.6 1-4.4 3.5-4.1 5.9.5 4.1 2.7 6.2 9.8 9.6 2.1 1 4.4 2.2 5 2.6 1.3.9 3.8 1.9 6.5 2.7 1 .3 2.8.9 4 1.4 3.5 1.4 9.1 2.5 7.7 1.5-.3-.2-1.2-1-2-1.7-5.2-4.5-9.1-9.2-11.6-14.2-1.8-3.7-2.8-4.5-7.9-6.7-3.5-1.5-5.5-1.8-7.4-1.1m135.1 1.2c-.2.5.7 2 2.4 4 .8.9 2 2.6 2.9 3.9 4.4 6.8 13.6 9.8 27.7 9 6.9-.4 8.2-.7 12.9-2.9 4.3-2.1 4.6-2.3 2.1-1.7-5.6 1.3-7.1 1.5-9.5 1.3-1.3-.1-3.6-.2-4.9-.2-8.7 0-21.3-2.9-24.8-5.8-2.1-1.7-5.1-4.6-6.5-6.4-1.5-1.6-2-1.9-2.3-1.2m-133.2 1.8c.3.6 1.3 1.9 2.1 2.9.9 1 1.6 1.9 1.5 1.9-1 0-5.5-2.2-6-2.9-.8-1.1-.8-1.1.2-2.3 1.1-1.1 1.5-1 2.2.4m108.9 6.6c-.9 3.1-3.1 5.5-6.6 7.3-3.5 1.8-3.6 1.7-.2-1.8 2.5-2.6 5.5-6.3 6.4-7.9l.6-1 .1.9a6 6 0 0 1-.3 2.5m19.1-2.3c-.8 2.4-4.3 7.1-6.9 9.1-1.3 1-1.7 1.5-2.2 2.8-.3.9-1.1 2.4-1.6 3.3l-1 1.8h.7c4.2 0 10.1-7.8 11.7-15.2.6-2.9.1-4.2-.7-1.8m-75.3 1c-.3 3.2-2.8 9.9-4.4 11.7l-.6.7.2-.8c.1-.4.5-1.7.8-2.8.3-1.1.8-3 1-4.3.4-2.2.8-3.3 2.1-5.3 1-1.5 1.1-1.4.9.8m-52.9.5c2.1.9 2.7 1.4 4.2 3.7 1 1.6.9 1.6-1.5.2-2.7-1.5-4.8-3.3-5.7-4.7l-.7-1.2.8.6c.5.3 1.8 1 2.9 1.4m228.6 2.8c1.2 2.8.2 5.3-2.5 6.5-.8.4-1.7.8-2 .9s-1 .3-1.6.3c-1.3 0-4.7.6-8.1 1.3-1.3.3-3.8.8-5.6 1.1-4.6.8-9.5 2.5-10.3 3.7-.2.3-.8.8-1.4 1.2-4.3 2.8-7 8.4-5.5 11.3.8 1.6 1 1.6.9 0-.4-4.3 5.2-9.8 11.7-11.5 2.8-.7 2.8-.6.5 1.1-4.3 3.2-8.4 9.8-7.8 12.7.3 1.7 3.3 4.6 6 5.8.2.1 1 .6 1.7 1 2 1.3 5.6 2.3 12.8 3.8 2.8.5 6.1.4 9.3-.3 7.4-1.6 15.8-.9 15.8 1.4 0 .4 1 .3 1.1-.1.5-1.5 1.8 1.9 2 5.4.7 9.2 11.1 14.1 17.3 8.2 1.8-1.7 1.3-2.5-.7-1-5.8 4.5-14.2.4-14.8-7.2l-.1-1.8 1.6 2.3c2.5 3.6 6 5.3 11 5.3 3.8 0 7.6-1.9 7.6-3.8 0-.3.3-1.2.7-1.9.9-1.8 1.8-5.6 1.4-6-.3-.3-1 .5-1 1.1 0 .6-1.8 4-2.7 5-3.1 3.6-10.6 1.6-10-2.6.3-2.2-2.3-8.7-4.4-10.6-3.9-3.7-8.7-4.7-14.6-3.1-3.8 1-5.5 1.1-10.5.3-2-.3-4.4-.6-5.3-.7-5.5-.6-3.5-8.7 2.6-10.8 6.2-2 10.2-2.4 18.5-1.7 7.7.7 10.8.8 12.8.4l1.3-.2-2-.3c-7.9-1.4-12.9-1.9-17.8-2l-3.8-.1 1.1-.5c.6-.3 2.3-.8 3.6-1.2 3.1-.8 4.8-1.6 4.8-2 0-.5-5.9.6-9.8 2-1.2.4-2.2.7-2.3.6-.1-.1-.9.1-1.9.4-1 .3-3.3.7-5 .8-6.5.5-13.7 2.4-17.7 4.5-2.4 1.3-2.6 1.3-1.1.1 1.6-1.3 2.9-2 6.5-3.6 1.8-.7 3.6-1.6 4.2-1.9 1.2-.7 5.1-2 6.5-2.3.6-.1 1.8-.4 2.6-.6.8-.2 2.1-.4 2.7-.5 5.2-.4 12.1-7.6 9.5-9.8-.5-.4-1.1.5-1.1 1.9 0 1.1-3.1 3.5-5.5 4.4l-1.5.5.8-.9c1.6-1.8 1.7-3.8.2-6.1-.5-1.4-1.2-1.5-.7-.2M64.8 343c1 .5 2.9 1.8 4.2 2.8 1.3 1 3.1 2.3 4 2.9 2.1 1.4 2 1.4-.9.5-3.2-1-6.4-3.2-8.2-5.5-.7-.9-1.3-1.7-1.2-1.7s1.1.5 2.1 1m-10 5.8c-5.2 2.3-5.4 11.3-.4 14.2 3.6 2.1 15.4 2.1 24.8 0l2.5-.6-2.4-.7c-1.3-.4-3.7-1-5.2-1.3-3.8-.8-6.2-1.6-8.7-3-1.2-.7-2.4-1.2-2.7-1.2-1.4 0-5.7-5.2-5.7-6.9 0-.8-.9-1-2.2-.5m96.8.2c-2.1 2.3-14.2 4.3-17.7 3-.7-.3 7.1-2.1 11-2.6 1.2-.1 3-.4 4-.6 3-.5 3.3-.5 2.7.2m-66.5 7.4c.9.5 1.8.6 1.2.2-.3-.2-.8-.4-1.1-.4-.4 0-.4.1-.1.2m-29.6 2.9c.2.6.7 1.4 1 1.9.9 1.2.6 1.3-.9.5-1.4-.8-2.4-2.2-2.7-3.8l-.2-1.2 1.2.8c.8.5 1.3 1.1 1.6 1.8m221.6-.3c-.8.5-1.5.9-1.5.9s-.9.5-1.9 1.2c-1 .6-2.1 1.2-2.4 1.3-1 .3-4.8 4.2-5 5.1-.5 2.6 2.2 4.2 7.9 4.8 1.1.1 3.1.3 4.5.6 1.4.2 2.7.4 2.9.4 1.9 0-6.1 1.5-10.2 1.9-5 .5-10.8-1.2-12.6-3.6-1.6-2.1-.2-6 2.9-8.2.6-.4 1.3-1 1.6-1.2 1.5-1.2 10.9-3.9 14.3-4h.9l-1.4.8M62 360.9c1.6.6 3.8 1.1 5.5 1.3l2.8.4-2.5.1c-5.5.2-7.9-.3-9.1-1.9-.9-1.4-1-1.4 3.3.1m240.2 14.7c3 2.3 4.3 4.5 5.5 9.1.4 1.7 1 3.5 1.3 4.1 1.1 2.1-.5.7-2.5-2.2-.7-1-1.6-2.7-2.1-3.9-1.7-4.2-2.7-5.9-3.9-7.3l-1.3-1.4 1 .4c.5.3 1.4.8 2 1.2m-14-.6c1.9.3 2.6.4 3.4.1 2.1-.7 7 1.1 7.6 2.7.4 1.2.4 1.2-1.7.6-2.5-.7-10.3-.5-15 .5-2.9.6-6.5.8-8.7.4-5.6-1-10.4-2.6-6.5-2.1 2.4.3 8.4-.5 15.8-2.1 2.1-.6 2.4-.6 5.1-.1"/></svg>