<svg xmlns="http://www.w3.org/2000/svg" viewBox="0 0 400 400"><path d="M285.7 21.2c-.2.2-.3.5-.2 1 .3 1.6-.1 1.8-.8.3-1.2-2.4-2.2-1.7-1.3.8 1 2.6 1.4 4.6 1.5 7.3 0 1.9 0 2.4-.2 2.1-.1-.3-.4-1-.7-1.5-.5-1.2-1.2-3.6-1.8-6.5-.2-1.1-.6-2.2-.7-2.4-.1-.2-.3-.4-.3-.5s-.1-.3-.3-.4c-.2-.2-.3-.2-.3.3 0 .3-.1.5-.2.6-.1 0-.1.5.2 1.4.7 2.2.7 4.1-.2 4.7-.8.5-.7 1 .2 3.5.3.9.7 1.8.7 2.1l.2.6-.5-.6c-1.1-1.3-3.1-5.8-3.9-8.8-.2-.9-.5-1.7-.5-1.8-.1-.3-1-.3-1.1-.1-.1.1-.5.2-1 .3-1.4.2-1.5.3-1.2 1 .5.9 1.2 2.8.8 2.3-.2-.2-.7-.9-1.2-1.5-1-1.2-1.7-1.5-1.7-.6 0 .5 0 .5-.3.2s-1.5-.4-1.5-.1c0 .2 2.3 3.4 4.3 5.8.8 1 1.8 2.3 2.2 2.9.4.6.9 1.3 1.1 1.6.2.2.4.5.3.7 0 .1-.8-.6-1.7-1.6-.9-1-2.2-2.4-2.9-3.2-.7-.8-2.1-2.4-3.2-3.7-1.9-2.3-2.4-2.6-3.2-1.8-.1.1 2.9 4.3 4 5.5 1.2 1.3.5 1.2-1-.2-2.7-2.5-1.9.4.9 3.1 1 .9 1.7 1.8 1.7 1.8 0 .1-.6-.2-1.1-.6-.2-.2-1-.8-1.7-1.4-.7-.6-2.4-2.2-3.9-3.7-5.2-5.2-3.2-1 2.3 4.9 4.2 4.5 7.8 7.4 19.7 16.2 6.7 5 8.8 6 14.6 7.6.9.2 2.8.8 4.4 1.2 3.9 1.1 4 1.1 9.4 1.1 1.4 0 2.6.1 2.5.1-.4.4-7.6.6-9.2.3-1.4-.2-6.3-1.4-8.5-1.9-2.3-.6-2-.3 2.2 2 4.8 2.6 6.3 2.8 12.9 1.6.9-.1 2.2-.3 3-.4.8-.1 2.4-.3 3.6-.6 3.4-.8 8.5-2 8.9-2.2.2-.1-1.5-.1-3.9-.1-4.5 0-8.5-.3-10.7-.8-.1 0-.5-.1-.9-.2-1.1-.2-2.4-.7-3.7-1.4-1.6-.9-2.5-1.7-1-.9 1.9 1 6.4 2 8.7 2 .5 0 .5 0-.5-.7s-1.5-1.1-.8-.7c4.1 2.1 7.7 2.3 17.6.6 2-.3 3.9-.7 4.2-.7 1-.1.7-.4-.4-.5-.6 0-1.2-.1-1.3-.1-.2 0-.5-.1-.8-.1-.4 0-.4-.1-.2-.2s2-.2 4.1-.2c4.5 0 4.6-.3.3-.7-1.5-.1-4.4-.6-4.6-.8-.3-.3.4-.3 3.5-.1 1.9.1 3.5.2 3.7.2s1 .1 1.9.2c1.8.2 8 .3 7.3.1-3.2-1-7.6-2.5-8.2-2.8-.4-.2-.5-.3-.3-.2s1.3.3 2.3.5c1.1.2 2.2.4 2.5.5s1.5.4 2.6.6c1.1.2 2.5.6 3.1.7s1.2.3 1.3.4c.4.1 3.5 1.2 3.7 1.4.1.1.1 0 0-.2-.2-.3-1.5-1.1-3.2-2-.4-.2-1-.6-1.3-.8s-.7-.4-.8-.5c-.5-.2-3.8-2.6-3.6-2.7.1 0 .4 0 .6.1 1.6.8.6-1.5-1.4-3.3-1.9-1.8-1.4-1.7 1.3.3 3.7 2.6 5.1 3.5 4.7 2.7-.1-.1-.7-.6-1.4-1.1-2.4-1.6-3.8-3-6.2-6.1-7.9-10.3-7.5-9.7-9.5-17.3-.1-.4-.2-.9-.2-1.1s-.2-.6-.4-.8l-.4-.4.1.7c.1.4.3 1.8.5 3.1s.4 2.5.3 2.5c-.1.1-1-1.8-1.6-3.7-.5-1.5-1.5-3.1-1.8-2.8-.4.4 4.1 12.1 5.6 14.4 1.6 2.6 1.2 2.5-1.1-.4-.7-.9-1.1-1.3-1.2-1.1 0 .2-.3.4-.5.6-.5.4 0 1 2.9 4 1.6 1.7 2 2.3 1.3 1.9-.8-.4-4.8-4.5-5.9-5.9-2-2.7-2.8-4.9-3.2-9.2-.1-1.5-.3-2.7-.4-2.8-.1-.1-.2-.4-.2-.7 0-1.5-1-.8-1.1.8-.1 1.5-.2 1.7-.4.5-.1-.8-.2-.9-.7-.9-.7 0-.8.5-.3 1.6.6 1.4.2 1.4-.5 0-1-1.9-1.5-1.1-.6 1.1 1.7 4.1 1.1 12.7-1 14.4-4.5 3.7-19.9-1-26.9-8.1-1.3-1.3-2-2.2-5.5-7.6-2.1-3.2-3.9-5-2.3-2.3.8 1.2.9 1.7.4 1.2-1-1-1.7-1.5-1.8-1.2 0 .2 1.6 2.7 2.7 4 .2.3.3.6 0 .6-.1 0-1-.8-2.1-1.9-1.5-1.5-1.9-1.8-2.1-1.6-.2.4 0 .8 2.2 3.6 7 8.8 9.9 18.7 7.5 25.3-.7 1.9-3.5.4-5.9-3.2-.3-.5-1.1-1.6-1.8-2.5-4.3-5.7-7.7-16.3-7.5-23.2 1-2.6.7-3.6-.1-2.8m-128.9 5.2l-3.3.2c-1.8.1-3.8.2-4.5.2-.7.1-3.2.1-5.6.2l-4.3.1-.5 2.1c-1 4.1-1.9 6.1-3.3 7.7-.5.6-1 1.1-1 1.2 0 .2-2.6 3.8-3.4 4.9-1.6 1.9-6.5 6.3-9.2 8.2-8.4 6-13.1 7.5-24 7.9-3.3.1-5.6.3-6.5.5-3 .7-9.7.1-12.3-1.1-.7-.3-2.3-1-3.6-1.5-1.3-.5-2.6-1.1-2.9-1.4-.3-.3-.7-.5-.8-.5-.1 0-.4-.4-.7-.8-.8-1.3-1.5-1.1-1.2.4.5 3.3.1 6.4-1.4 10.7C65.1 75.1 64 76.8 55 88.5c-.5.7-1.4 1.8-2 2.4-.5.7-1.5 1.8-2.1 2.6-3.4 4.4-5.1 6.4-6.5 7.6-.6.5-1.6 1.3-2.1 1.7-3.7 3.2-5.9 4.9-7.3 5.7-.3.2-.8.6-1.2.8-.3.3-1 .6-1.4.8-.5.1-.8.4-.8.5 0 .4.1.4 2.5-.1 5.3-1 11.3-.2 16.5 2.1.7.3 1.8.8 2.6 1 4.4 1.6 6.9 2.9 8.6 4.4.8.7 1.8 1.5 2.4 1.8 5.8 3 3.3 10.5-5 15.4-.8.5-1.7 1-2 1.2-2.7 1.6-7.2 3.1-11 3.6-.4 0-1.4.4-2.3.7-.9.3-2 .6-2.3.7l-.6.2c0 .1.2 1.2.4 2.5 1.5 9.2.4 29-2.3 38.1-.8 2.9-2.6 8.2-3.7 11.1-1 2.5-1.3 3.2-2.5 5.2l-.4.7.5-.3c.7-.5 2.8-1.5 3.4-1.6.3-.1.9-.2 1.3-.3 3-.9 6.2 0 12 3.3 1.3.7 2.6 1.4 2.9 1.5 1.8.5 6 3.1 7.9 4.7.5.5 1.5 1.2 2.2 1.7 2.6 1.8 3.8 2.7 4.3 3.3.3.3.5.5.6.5 0 0-2.1-2.3-4.9-5-4.3-4.3-6.8-7-8.3-9-.2-.3-.8-.9-1.2-1.4-4.9-5.3-6.5-8.4-7.8-14.8-1-4.9-.6-14.8.7-17.8 3.2-7.4 6.7-13.2 10.5-17.5.6-.7 1.7-2 2.4-2.8 1.4-1.8 7.9-8.4 9.2-9.4.5-.4 1.3-1.1 1.9-1.6.5-.5 2-1.5 3.2-2.2s2.5-1.5 2.8-1.8c.4-.3 1.2-.6 2.3-.8 1-.2 2.4-.5 3.1-.7.8-.2 2.5-.5 3.9-.6 2.5-.2 4.5-.5 5.6-.7 2-.6-1.7-2.8-4.6-2.8-.4 0-.8-.1-1-.2s-1.2-.4-2.2-.6-2.8-.8-4-1.2c-1.2-.5-2.9-1.1-3.8-1.3-.9-.2-1.9-.6-2.2-.7-.3-.1-1.8-.7-3.5-1.3-5.2-1.8-9.5-4.4-11.1-6.8-4.6-6.8-4.3-15.1.8-23.6 4.8-8 7.6-10.9 15.3-16 6.1-4 11.6-6.1 19.3-7.2 1.9-.3 4.1-.6 5-.8 6.3-1.1 11.5.6 15.4 5.2 2.2 2.6 3 4.6 3.4 9.3.1 1.3.3 3.2.5 4.2 1.1 7.3-1.1 17.7-4.4 21.2-1.4 1.5-2.5 3.9-1.2 2.7 1.7-1.6 5.9-4.3 8.6-5.5 5.3-2.4 9.1-2.2 12 .7 3.7 3.7 3.6 9.1-.5 21-.2.7-1 2.6-1.8 4.1-2.3 4.9-1.7 7.1.7 2.4.6-1.2 1.5-2.3 3-4 .4-.5 1.1-1.3 1.4-1.7 3-4.2 10.9-10.2 20.1-15.3 1.2-.7 3.1-1.7 4.1-2.3s2.2-1.3 2.6-1.6c3.6-2.8 13.7-6.1 19.1-6.1 13.7-.1 1.5 20.7-13.5 22.9-2 .3-2.5.5-1.7.7 2 .5 5 3.1 7 6.1 4.3 6.4 4.8 12.5 1.4 19.4-1.4 2.8-2.6 5.9-2.4 6.2.1.1.5-.2 1-.6 4.3-3.6 6.1-4.4 9.8-4.3 1.4 0 2.8.1 3.2.2 1 .3 1 .1.2-.9-1-1.3-2.9-5-3.5-7.3-.6-2.1-.7-13.1-.1-16 .9-5 4.2-9.1 9.8-12.3.9-.5 2.3-1.4 3.1-1.9 1.8-1.1 3.1-1.4 7.3-1.7 8.6-.6 12.1-.2 17 1.8 1.6.7 8 .9 7.4.3-.4-.4-1.8-1.2-2.9-1.5-.4-.1-1-.3-1.2-.4s-1.3-.5-2.3-.9c-3.5-1.3-7-3-8.5-4.1-.8-.6-1.6-1.1-1.7-1.1-.1 0-.7-.3-1.1-.8-.5-.4-1.1-.8-1.3-.9-2.2-.7-2.5-6.3-.5-9.6 2.3-3.7 7-8.7 10.4-10.9.4-.3.9-.7 1.1-1 .2-.3.4-.5.6-.5.2 0 .3-.1.3-.2s.2-.2.4-.3c.2-.1.4-.3.4-.5s.2-.4.6-.6c.5-.2.6-.3.6-.7v-.5l-.7.4c-8.6 5.2-19.4 10.4-24.2 11.7-3.8 1-10.7 0-13.8-2.1-.5-.4-1.1-.7-1.2-.7-.2 0-2.6 1.8-3.3 2.5-.2.2-.9.8-1.6 1.3-.6.5-2.3 1.7-3.7 2.7-3.2 2.4-4.1 2.9-7.4 4.7-1.5.8-3.6 1.9-4.6 2.4-2.9 1.6-6.4 3.2-7.4 3.3-.5.1-1.3.3-1.8.6-4.2 2-9.2.4-10.7-3.5-.7-1.8-.6-6.1.3-9.1.7-2.2 2.7-6.7 4.1-8.9.3-.4.8-1.5 1.1-2.4.4-.9 1.1-2.6 1.7-3.8 1.1-2.3 1.4-3.1.5-1.7-.8 1.3-1.6 2.4-3.3 4.3-.8.9-1.7 2-2 2.5-.7 1.1-3.4 3.9-5 5.2-4.9 3.9-11.3 2-14.4-4.3-1.8-3.8-2.5-6.2-2.1-8 .1-.5.3-1.8.3-2.8.4-6.3 3.2-12.7 7.7-17.5.6-.6 2-2.3 3.1-3.8 2.9-3.7 4.2-5.2 5.4-6.5 3.7-3.7 6.1-5.7 10.3-9.1 2.6-2.1 4.9-3.9 4.9-4 .1-.1.7-.6 1.4-1.1.7-.6 1.5-1.2 1.7-1.5l.5-.5h-.9c-.5.3-.9.3-1 .3m107.1.5c.2.4.6.7.6.5 0-.3-.4-.9-.6-.9-.2.1-.2.2 0 .4m14.6 1c0 .4.4 1 .6 1 .3 0 .2-.2-.2-.8-.2-.2-.4-.3-.4-.2m-21.3 2.7c0 .1 1 1.5 2.8 3.9.7.9 1.6 2.2 2.1 2.8.5.7 1.8 2.3 3 3.6 3.9 4.2 7.8 8.7 8.5 9.7.4.6.9 1.2 1.1 1.5.2.2.4.5.4.7 0 .1-3.5-3.3-7.8-7.6s-8.3-8.2-8.9-8.7-1.7-1.4-2.4-1.9c-1.4-1.1-1.6-1.1-.4.1.4.5 1.2 1.4 1.7 2l1.9 2.3c1.8 2.1 1.9 2.5.3 1-1.2-1.1-1.9-1.2-1-.2.4.4.9 1.3 1.3 2 .3.7.8 1.6.9 1.8.2.3.7 1.1 1.3 1.9.5.8 1.5 2.6 2.3 4 .7 1.4 1.8 3.2 2.3 4.1 5.5 9.2 6.3 10.7 7.7 15.1.3.9.8 2.3 1.1 3.1 1.7 4.4 4.4 16 5 21.8.2 1.7.5 4.4.6 5.9.2 1.5.4 4.1.5 5.9.1 1.7.3 4 .5 5.1.2 1.6.6 7.6.6 10.2 0 5.5-.3 8.4-1.3 12.3-.4 1.5-.8 2.9-.8 3.2s-.2.4-.3.4c-.1 0-.1.1-.1.2.1.1 0 .4-.2.6l-.3.4.1-.6c.2-1 .5-2.7.8-4 .5-2.3.8-5.2.9-8.9.1-4 0-4.1-.9-.5-.7 2.5-1.9 6.6-2.3 7.1-.2.3-.2.3.4-2.6.5-2.5 1.1-6.3 1.3-8 .1-.7.2-1.8.3-2.4.1-.6.2-1.3.2-1.6v-.5l-.4.5c-1 1.3-2.7 5.2-3 6.9-.2 1-.5 2.9-.8 4.3-1.4 7.5-1.3 11.1.5 15.9 2.1 5.6 2.9 15.9 1.6 21.8-.3 1.4-1 6.9-1 7.7 0 .9.2.3.6-1.8.2-1.1.7-3.2 1.1-4.7s.7-2.9.8-3.2c.3-1.8.9-4.5 1.1-4.7.3-.3-.4 6.3-.9 8.8-.2.8-.5 2.3-.7 3.5s-.6 3.2-1 4.6c-1 3.8-.5 3.3.9-1 .8-2.5 1.1-2.6.6-.2-.2.8-.4 1.7-.4 2l-.1.5.3-.5c.4-.8 1.3-3.8 1.4-5.1.1-.6.3-1.8.6-2.6.5-1.8.8-3.1 1-4.4.1-.5.2-.9.3-.9s.1.1.1.2-.1.9-.2 1.6c-.1 1.6-.2 1.7-.7 4.2-.3 1.7-.6 3.9-.5 3.9.9 0 2.5-7.9 2.7-13.5.1-1.3.2-3.8.3-5.6.1-1.7.2-4.1.3-5.4.1-3.3.5-6.3.7-6.6.1-.1.1.5 0 1.2-.2 2.5-.1 4.7.1 5.9.2 1.3.4 2.9.8 6.6.5 4.5.2 11.1-.8 13.6-.3.8-.5 1.7-.2 1.4.6-1 1.9-7.4 2.3-11.8.1-.9.2-1.7.2-1.9s.1-.9.1-1.7l.1-1.4.3 1.3c.1.7.3 2.4.3 3.8 0 2.9.1 2.8 1-1 1-4.2 1-4.6 1.1-13.1.1-7.1.2-8.8.6-12.3.3-2.3.6-4.9.7-5.8s.1-2 .1-2.3c-.1-.4 0-1 .2-1.5.3-.8.6-2.1.8-4 .2-1.8 1.9-9.3 3.1-14.4.9-3.7 1.6-5.8 2.8-8.4.8-1.7 1-3 .7-4.6-.2-1 0-2.3.2-1.9.1.1.3.8.5 1.5.5 1.5.6 1.5 1.1 0 .5-1.6.3-4.8-.3-6.2l-.4-1 .7.7c.8.8 2.2 3.5 2.4 4.7.2 1.1.4.7.8-2.3.3-2.3.5-2.3.9 0l.1.8.3-.8c.2-.4.3-.9.3-1s0-.4.1-.7l.2-.5v.5c.1 2.1.3 2.1.8.4.4-1.3.4-1.5.2-2.8-.1-.8-.2-1.4-.1-1.5s.1.1.1.3c0 .2.1.5.3.5.3.1.3 0 .2-1.1-.2-1.4 0-1.5.7-.4.7 1 .5 1.1 3.5-1.2 1.4-1.1 3.4-2.4 4.5-2.9 1-.5 2.5-1.3 3.3-1.8s1.6-.9 1.8-1c.2-.1.9-.5 1.6-.9 1.4-.9 3.6-2 3.6-1.8s-1.4 1.1-1.6 1c-.1-.1-.2 0-.2.2 0 .1-.5.6-1.2 1s-1.7 1-2.2 1.4c-2.1 1.3-5.1 3.2-5.6 3.4-.3.1-.6.3-.7.5-.1.1-.7.6-1.3 1.1-3.2 2.7-3.4 3.4-.4 1.4 5.1-3.3 6.9-4.4 9.2-5.6 1-.5 2.6-1.4 3.4-1.8 2.3-1.3 6.6-3.4 8.6-4.2 1-.4 2.6-1 3.7-1.5s2.9-1.2 4-1.6 2.6-.9 3.2-1.2c.6-.3 1.3-.5 1.5-.6.4-.1.5-.8.2-1-.2-.1-2.3.6-6.3 2-1.3.5-2.1.7-2 .5s.5-.3.8-.4.6-.2.7-.3c.1-.2 2.4-1.3 4.7-2.3.5-.2 1.2-.5 1.5-.5.4 0 .7-.2.8-.5l.3-.5v.6c0 .7.7 1.9 1.2 2 .3 0 .3-.1.3-.5 0-.9.4-1.3.5-.5.1.4.3.7.6.8.6.3.7.2.5-.3-.3-.5-.3-1.5 0-1.7.1-.1.2.1.3.4.2.9 3 2.7 3.6 2.4.5-.3 7.3 1.3 11.5 2.7.8.3 2.4.7 3.5 1s2.2.5 2.4.6c.6.2-1.6-1.1-2.7-1.5-.9-.4-1.7-.6-6-2.2-1.1-.4-2-.8-2.1-.9-.3-.2-3.4-1.4-3.9-1.5-.2 0-.6-.2-.9-.4-.5-.3-.5-.3-.1-.2.3.1 1.1.2 1.9.4s3.6 1 6.3 1.9c2.7.9 7 2.3 9.6 3.1 8.3 2.7 9.9 3.9 19.9 14.4 1.9 2 3.4 3.5 3.5 3.4.2-.6-2-4-4.5-6.8-.8-.9-1.7-2.1-2.1-2.7-1.2-1.8-5.6-5.9-7.9-7.3-1-.6-2.6-1.7-3.5-2.2-1.5-1-4.9-2.4-11.1-4.6-1.1-.4-2.3-.9-2.8-1.1-1.2-.6-7.4-2.8-9.1-3.1-1.6-.4-2.7-.3-3.8.3-1.1.6-1.4.3-.7-.5.3-.3.3-.3-.3-.3s-2 .6-2.3 1c-.3.5-.5.1-.2-.4.4-.8.3-.8-2 .6-1.1.7-2.4 1.3-2.8 1.5s-.9.4-1 .4c-.3.2-5.8 2.7-6.4 2.9-.4.1-1.7.6-3.4 1.3-1.5.6-2.8 1.2-4.8 2.2-3.4 1.7-12.1 4.8-13.4 4.8-.3 0 3-1.4 5.4-2.3 1.9-.7 4.8-2.1 5.2-2.4.3-.3-2.1.3-4.2 1.2-1.1.4-2.9 1-3.9 1.3s-3.4 1-5.2 1.7c-4.9 1.7-6.5 2.2-7 2.1-.6-.1-.5.3.4 2.1.7 1.4.6 1.8-.2.9-.8-1-1.2-1.3-1.8-1.4-.3-.1-1.1-.2-1.8-.4-1.4-.3-1.9-.3-3.3.4-3.1 1.4-3.9 3.1-3.8 8.2 0 1.4 0 1.8-.2 1.5-.1-.3-.1-.5-.1-.6.1-.1 0-.2-.1-.2-.2-.1-.6-1.5-1.3-4.7-.3-1.3-.6-2.7-.8-3.1-.2-.4-.4-1.4-.6-2.3-1.1-4.8-2.3-7.7-4.5-10.2-1-1.2-1-1.2 0-.5 1.8 1.2 2.6 2.3 4.8 6.6 1.4 2.7 3.1 4.6 4.2 4.8.7.1.6-.2-.2-1-1-1-.8-1.1.3-.3 1.3.9 1.9 1 2.3.6s.4-.4-1.1-2.1c-1.3-1.4-.6-1.3 1.3.3 1 .9 1.8 1.1 2 .5.1-.3-1.8-2.2-3.5-3.5-.6-.5-1.8-1.5-2.7-2.3a22 22 0 0 0-2.8-2.2c-1.3-.9-3.1-2.7-6.5-6.5-1.6-1.8-3-3-4.5-4.2-1.2-.9-2.3-1.8-2.3-1.8 0-.1-.2-.2-.3-.2-.1 0-1.1-.9-2.2-1.9s-2.9-2.8-4.1-3.9c-3.5-3.2-5.2-4.8-6-5.9-4.4-4.9-9.9-10.4-9.9-9.4m76.4 4c0 1.4-.3 1.4-.5 0-.4-2.3-.3-2.9.1-1.6.2.6.4 1.3.4 1.6m-30.9 3.3c.3.5.5 1 .5 1.1s.3.6.6 1.2c.9 1.8 2 5.6 2 7v.5l-.5-.6c-1-1.2-1.6-2.7-2.1-5.2-.3-1.3-.7-3.2-1-4.1-1-2.7-1-2.7.5.1m31.3 3.3c-.2.3-1.4 1.1-1.6.9-.1-.1.9-2.7 1.1-3.2.2-.4.3-.4.4.8.3.7.3 1.3.1 1.5m-20.7 2.5c6.4 2.2 11.5 4.8 14.6 7.6 3.4 3 3.8 4.2 1.9 5.5l-.8.5-2.7-.2c-2.7-.2-4.4-.5-6.1-1.2-6-2.4-7.5-3.6-10.8-8.6-2.9-4.2-1.6-5.5 3.9-3.6m18.7 1c1.6.6 2 2 .5 1.9-.8 0-6.9-1.9-7.3-2.3-.4-.2 5.9.1 6.8.4m-58.6 10.2l4 5.4c2.2 2.8 2.6 3.5 3.4 4.8.9 1.5 2.7 5.1 3.1 6.2.1.4.4 1 .5 1.3.3.8.2 1.1-.1.4-.1-.3-.4-.7-.7-1-.3-.3-.5-.7-.6-.8-.1-.1-.6-1-1.1-2-1.4-2.6-1.8-3-1.3-1.2.5 1.7.8 3.5 1.3 7.4.2 1.7.5 3.4.5 3.7.3 2 .3 4.4.1 4.7-.6.8-1.5-.1-2-1.8-.6-2.2-1.4-5-1.8-6.1-.3-.6-.6-1.7-.9-2.3-.2-.6-.5-1.3-.6-1.6-.1-.2-.3-.8-.5-1.4-.9-2.3-1.9-4.8-2.3-5.6 0-.1 0-.1.1 0 .2.1.4.5 1.5 2.5.6 1.2 1 1.7.8.9-.9-3-1.9-5.3-4.1-8.8-.8-1.2-1.4-2.3-1.5-2.4-.1-.1-.3-.6-.6-1-1.5-2.4-1.2-2.7.4-.5.5.7 1.4 2 2.1 2.9 1.1 1.6 1.2 1.6 1.3 1.1.1-.7 0-1-1-2.3-.4-.5-.9-1.2-1-1.5-.3-.7-2-3.1-3.7-5.4l-1.6-2.3c-.5-.7 5.4 5.4 6.3 6.7m36.2-4.5c0 .2-.1.1-.5-.2-.3-.3-.4-.5-.4-.6s0-.2-.1-.2-.2-.4-.3-.7c-.1-.7-.1-.6.6.4.4.5.7 1.1.7 1.3m-4.6-1.2c.1.1 0 .3-.1.4-.2.2-.9-.2-.7-.5.2-.1.6-.1.8.1m-.5 2.5c.1.5 0 .8-.4 1.3-.7.8-.8.7-.4-.7.6-1.5.7-1.6.8-.6m8.2 2.9c.9.8 2 1.7 2.4 2.1l.8.7-.8-.3c-1-.3-3.2-1.9-3.5-2.4-.1-.2-.5-.7-.9-1.2-1.5-1.7-.9-1.4 2 1.1m5.1-.7c-.2 0-.4.2-.4.3 0 .3.7.2.9 0 .1-.4.1-.4-.5-.3m19.2.1c.1-.1.2 0 .2.1.2.3-.9.1-1.2-.2-.1-.1 0-.1.3 0s.6.1.7.1m-212.4 1c.4.9-.8 1.7-1.5 1.1-.3-.3-.3-.7.1-1.2.4-.6 1.1-.5 1.4.1m-4.8 3.6c1 .7 1.3 1.5.8 2.6-.7 1.4-2.3 1.7-3.5.6-1.9-1.8.5-4.7 2.7-3.2m-46.4.6c.5 0 1 1.2.7 1.7s-1 1.1-1.3 1c-.1 0-.3-.1-.4-.2-1.3-.7-.7-3.1.6-2.6.2 0 .3.1.4.1m39.3 1.9c.5.3.2 1.1-.4 1.2-.8.1-1.2-.5-.6-1 .5-.4.6-.4 1-.2m172.4 2.7c.3.7 1 2.5 1.5 4.2 1.1 3.8 1.2 3.9 1.8 3.9.4 0 .5-.1.4-.6-.2-1.1-.3-1.4-.6-2.2-.2-.4-.3-.8-.2-.8.3-.3 2.1 4.9 3.1 8.9.3 1.5 1 3.9 1.5 5.4.9 2.8 1.4 6.3.8 4.9a2 2 0 0 1-.3-.8c0-.1-.1-.3-.3-.4-.7-.5-.7 1.8-.1 3.7.2.7.4 1.4.4 1.5 0 .2.2.5.5.9.6.6.6.7.5 2.7 0 1.4-.6 3.6-.9 3.5-.1 0-.2-1.1-.2-2.3-.1-1.6-.2-2.7-.6-3.7-.5-1.5-1.3-4.6-1.8-6.5-.2-.6-.4-1.7-.6-2.3-.2-.6-.3-1.4-.4-1.8-.1-.9-.2-1.2-.3-1.4-.1-.1-.5-1.9-1-3.9s-1.2-4.5-1.5-5.5-.9-3-1.3-4.5-.9-3.2-1.2-3.8c-.7-1.4-.1-.9.8.9m-8.6-.8c.1.3.3.6.4.7.4.1.3-.2-.1-.8l-.4-.5.1.6M77.3 64.6c0 .4-.6.7-.9.4-.2-.2-.2-.3 0-.4.4-.2.9-.2.9 0m250.1 1.3c-1.8.6-3.6 1.4-3.6 1.5.1.1 4.4-1.4 4.6-1.6.2-.2-.3-.2-1 .1M118.6 67c.6.9-.6 2-1.5 1.2-.5-.4-.5-.8 0-1.3.5-.4 1.2-.4 1.5.1m-45.6.5c.6.8 0 2-1 2-1.4 0-1.8-1.6-.7-2.3.7-.4 1.2-.3 1.7.3m297.7 2.9c0 .1.6.3 2.1.6.4.1.4.1 0-.1-.2-.1-.5-.2-.7-.3s-.6-.1-.9-.2c-.3-.1-.5-.1-.5 0m-24.3 1.1c-1.5.5-3.6 1.4-4.7 1.9s-2 1-2.1 1-4.9 2.7-6.3 3.5c-1.2.7-2.1 1.3-3.5 2-.2.1-.4.3-.5.3-.1.1-.6.4-1.3.9-.6.4-1.3.9-1.4 1s-.4.2-.5.2-.4.1-.5.3c-.1.2-.3.3-.4.3-.2 0 1-1.2 1.2-1.2.1 0 .3-.2.6-.4 1.3-1.1 6.7-4.9 7-4.9.1 0 .2-.1.2-.2s.2-.3.5-.4.5-.3.4-.3c-.1-.1-2.4 1.1-6.9 3.4-.9.5-2.8 1.6-4.4 2.6s-2.9 1.7-3.1 1.7-.3.1-.3.2-1 .7-2 1.4c-2 1.3-2.9 2.1-3.1 2.9-.5 1.7-5 6.4-6.1 6.4-.3 0-1.4 1.4-1.4 1.7 0 .1-.1.2-.2.2s-.2.1-.2.2-.2.5-.5.9-.8 1.2-1.2 1.7c-.8 1.1-.7 1.1.3.2.4-.4 1.9-1.6 3.2-2.7 1.3-1.1 2.6-2.1 2.8-2.2.2-.2.3-.2.3-.1s.2.2.4.3c.9.4.7.8-1.3 2.5-1.3 1.1-1.8 1.3-2 .9-.4-.6-2.2 1.2-1.8 1.9.3.6-.2 1.1-1 .9-.5-.1-.7.1-1.6 1.2-.6.7-1.7 2-2.4 2.7-1.6 1.8-1.9 2.2-2.7 4.5-.9 2.5-.9 2.5.5.7 1-1.3 2.6-3.1 7.8-8.5.7-.7 1.6-1.6 2.1-1.9l.9-.6-.9 1c-.5.5-1.1 1.2-1.3 1.4l-.4.5.7-.1c1.7-.3.7 1.7-2.8 5.2-1.2 1.2-1.5 1.3-2 .7l-.3-.4-.5.6c-.5.5-3.3 4.8-5.5 8.1-1.2 1.9-2.3 4.4-1.7 4 .1-.1.7-1 1.4-2 2.3-3.7 2.5-3.6.6.2-1.6 3.1-2.7 6-3.5 9-.2.7.4-.2 1.7-2.8 1.3-2.6 2.2-3.9 5.4-8.3 1.1-1.5 2.5-3.5 3.1-4.3 1.4-2 3.2-4.3 4.2-5.4.4-.5 1.3-1.4 2-2.1.6-.7 1.7-1.9 2.4-2.6.7-.7 1.9-2.2 2.9-3.2 2.5-2.9 6-6.1 9-8.4.4-.3.8-.6.9-.7.5-.6 7.9-6.2 9.4-7 .4-.2.9-.5 1.2-.7.3-.1.5-.3.6-.4s2-1.1 4.3-2.3c7.5-3.8 10.5-5 19.1-7.4 1.2-.3 1.2-.4.7-.5-1.1-.3-4.1.1-6.3.7-1.2.3-2.3.6-2.5.7-.2 0-.4.1-.5.2s-.3.1-.4.1c-.2 0 .7-.5 1.8-1.1l2.1-1.1h-1c-1 0-3.3.6-5.8 1.5-2.3.8-10.1 4.6-10.9 5.2-.1.1-.3.1-.5.1-.2-.1 2.3-1.7 4.9-3.2.8-.4 1.8-1 2.1-1.2.4-.2 1.5-.8 2.4-1.3 3.2-1.1 2.9-1.2-.9.2m-224.5 5.7c1.3.7 1.2 2.3-.2 2.9-1.2.5-2.6-1-2-2.1.5-.9 1.5-1.2 2.2-.8m163.6 1.7c.8 1.2 1.3 5.9.8 6.4-1.3 1.3-3-4-2.1-6.2.3-.7.9-.8 1.3-.2m4.6 2.6c0 .4.2.9.3 1.2.1.3.2.5.2.5s0 .1.1.2c.2.2-.1-1.3-.4-2l-.3-.6.1.7m-8.5.5c.1.3.2.6.3.7.1.1.2.1.1-.2-.1-.2-.1-.5-.1-.7s-.1-.4-.2-.4c-.2 0-.2.3-.1.6m47.3.5c-.1.4-.5.4-.5.1 0-.2.1-.3.3-.3.1-.1.2 0 .2.2m-40 3.3c.8 2.4 1.3 6.1 1.3 10.6 0 2.1.1 4.3.2 4.8 1.5 7.8 1.6 9.1 1.1 11.4l-.2 1-.1-1.1c-.1-1.1-.6-3.1-.8-3.3 0 0-.2.3-.3.8-.3 1.2-2.8 8.9-3.7 11.2-.6 1.5-.7 2.4-.9 4.1-.3 3.9-.5 5.2-1.2 7.2-.3 1-.7 1.9-.8 1.9-.1 0-.1-.2 0-.5.4-1.3.7-10.1.3-12.1-.1-.4.1-1.6.4-2.9.5-2.2.6-7.8.2-9.8-.1-.4-.3-2.2-.4-3.4-.1-.9-.1-.9.2-.6.2.2.3.6.3.9s.2 1.2.4 2 .4 1.8.4 2.2c0 .4.1.7.2.6.2-.2.3-1.9 0-3.2-.6-3.2-1-12-.6-12.7.9-1.7 2.4 1.7 2.6 5.9 0 .6.1 1.2.2 1.3.2.1 0-5.4-.2-6.8l-.1-.7.3.7c.2.4.3 1.2.4 1.7.2 1.5.4 1 .6-1.3.2-3.3.2-7.5-.2-9.1-.5-3.1-.4-3.3.4-.8m37.7-1.2c0 .4-.3.7-.6.6-.5-.2-.4-.9.2-.9.1.1.4.2.4.3m-204.1.3c0 .8-.8 1.1-1.3.5-.4-.4 0-.9.7-.9.4.1.6.2.6.4m160 1.1c.1.2 0 .3-.2.4-.4.1-.5 0-.4-.4.2-.3.4-.3.6 0m2.4 1.6c0 .1-.2.2-.4.3-.3.1-.5-.7-.2-1 .2-.2.7.4.6.7m-158.2.5c-.1.6-.8 1.1-1.4.8-.5-.2-.4-.8 0-1.3.6-.6 1.5-.3 1.4.5m160.9-.2c.3.7.3 2.4 0 2.7-1 .8-2.2-2-1.3-2.9.5-.5 1-.5 1.3.2m-148.1 1.3c1 .9.8 2.8-.4 3.4-2.4 1.2-4.5-1.7-2.6-3.5.8-.6 2.2-.6 3 .1m60.6 1.5c2.5 1.6 2.6 4.4.4 6-2 1.4-4.8 0-4.8-2.4 0-2.8 2.5-4.8 4.4-3.6m-18.3.6c1.9 1.9-1.1 4.6-3.1 2.9-1.4-1.2-.4-3.6 1.6-3.6.6 0 .9.1 1.5.7m7.8.2c0 .2-.1.4-.3.4-.4.1-.8-.2-.6-.5.3-.3.9-.2.9.1m-60.2.4c.4.3.3.9-.2 1.2-1 .6-2-.7-1.1-1.4.5-.3.9-.2 1.3.2m-4.8.2c2.1 1.1 1.2 4.2-1.3 4.2-1.1 0-1.7-.3-2.1-1.2-1.1-2.1 1.2-4.1 3.4-3m67.3 2.8c.6.8.1 1.4-.7 1-.4-.2-.5-.8-.1-1.1.3-.4.5-.3.8.1m-139.6.7c0 .3-.4.4-.7.2-.2-.2.3-.7.5-.5.2 0 .2.2.2.3m263.9.8c0 .2-.1.3-.3.3-.3 0-.5-.3-.4-.5.3-.2.7-.1.7.2m-2.5 2.4c0 .9-.8 1.4-1.1.6-.1-.3 0-.5.3-.8.6-.5.8-.4.8.2m-117.3 1c2.6 1.6 1.4 6.3-1.6 6.3-2.3 0-3.6-1.9-2.9-4.1.7-2.1 2.9-3.2 4.5-2.2m5.9 1.7c.4.6.3 1.6-.2 1.9-1.2.8-2.5-.6-1.7-1.7.5-.6 1.5-.7 1.9-.2m-152.4 1.2c.7.5.3 1.8-.5 1.8-.5 0-1-.7-.8-1.1.2-.7.9-1 1.3-.7m90.3 1.6c.4.2.2 1.1-.3 1.1-.6.1-.9-.2-.8-.8.2-.5.6-.6 1.1-.3m-94.1 1.3c1.2 1.1.5 2.9-1.1 3.1-1.7.2-2.7-1.8-1.5-3.1.8-.7 1.8-.7 2.6 0m99.6 3.1c-.1.5-.6.8-1 .6-.4-.2-.4-1 0-1.3.4-.2 1 .2 1 .7m-93.4 0c.3.4.3 1.5 0 1.8-.8.7-2.1.2-2.1-.8 0-1.1 1.4-1.8 2.1-1m136.4 1.5c0 .2-.1.3-.2.4-.3.2-.8-.1-.6-.4.1-.3.8-.3.8 0m-48.3.6c1.2.7 1.6 2.5.7 3.5-1.3 1.4-3.7.8-4.1-1-.5-1.7 1.8-3.4 3.4-2.5m37.7 10.8c1.5 1 .8 3.3-1 3.5-1 .1-2.2-.9-2.2-1.9 0-.8.8-2.1 1.2-1.9.1 0 .2 0 .3-.1 0-.2 1 0 1.7.4m177 .1c-1.5.4-4.8 5.2-6.1 9.1-.1.4-.5 1.1-.7 1.6s-.9 2.2-1.4 3.8-.9 2.7-.9 2.4c.1-.3.2-1.2.4-2.1.3-1.8 1.8-6.6 2.6-8.5.7-1.7.8-1.6-1.1-.6-3.4 1.9-4.9 5.2-5.9 13.2-.1.9-.4 2.8-.6 4.3-.4 2.9-.9 14.2-.7 16.5.1.8.2 2.2.3 3.1.1 1 .2 2.5.2 3.3-.1 2.1.2 2.2 1 .3.4-.8.9-1.7 1.1-2s1-1.6 1.7-2.9c2-3.5 5-8.4 6.4-10.4 2.9-4.2 3.8-5.7 5.6-9 2-3.7 4.7-9.2 4.9-10.1.1-.5-.2-1.3-.4-1-.2.2-1.6 2.9-3.3 6.2a109.65 109.65 0 0 1-3 5.5c-.4.8-1.7 2.9-2.4 3.9 0 0-.1 0-.2-.1s-.1-.2.1-.3 2.6-5 2.6-5.2c0-.1.3-.8.7-1.6.4-.8.8-1.7.9-1.9s.4-1 .8-1.8c1.5-3.3 1.4-3.3-.5-.1-.6 1-1.2 2-1.3 2.2s-.4.6-.6.9c-.8 1.3-4.6 7.6-4.6 7.7 0 .1-.1.3-.2.4-.1.1-.2.3-.3.4 0 .1-.2.5-.4.9s-1 1.8-1.6 3-1.3 2.3-1.4 2.3-.2.2-.2.3-.1.4-.3.6c-.4.5-.3-.7.2-1.7.3-.6.5-1.4.6-1.8 0-.1.4-1.2.8-2.3 2.1-5.7 2-5.3 2-5.5 0-.1.1-.4.3-.7.2-.3.7-1.8 1.3-3.2 1-2.8 1.9-5 3.2-8.1.5-1.1.8-2 .7-1.9-.3.2-3.8 7-5.2 10.1-.4.9-.9 2.1-1.2 2.7-.3.6-.5 1.2-.6 1.3-.1.3-.2.5-.4.4-.1-.2 2.5-7.7 3.1-8.8.1-.3.6-1.3 1.1-2.3 1.5-3.4 4.5-8.5 6-10.3 1.3-1.6 1.3-1.5.3-2.2-.7-.1-2.3-.3-3.4 0m-279.8 2.1c1.1 1.1-.1 3.3-1.7 3-.6-.1-1.5-1.1-1.5-1.7 0-.7.2-1.3.5-1.3.1 0 .3-.1.4-.3.1-.5 1.8-.3 2.3.3m103.9 6.2c-.1.3-.8.4-1 .1-.2-.3.5-.8.8-.5.2 0 .2.2.2.4m137.1-.4c-1.8.6-2.4 1.4-2.6 3.4-.1 1-.2 1.1-.6 1.1-1.5.1-1.8.1-2.1.5-.2.2-.6.4-.8.4-.6 0-1.6.6-2 1.3s-.3.8.6.5c1.8-.5 4.1.5 5.8 2.4.9 1.1 1.8 1.5 2.9 1.5h.5l-.5-.2c-.3-.1-.7-.5-1-1-.3-.4-.9-1.2-1.3-1.8-1-1.1-1-1.1.3-.5.5.2 1.1.4 1.3.3.4-.1.5 0-1-1.7-.7-.9-.7-.9.3-1.2 1.2-.3 1.5-.2 2.8 1.3l1.2 1.2.1-1.1c.2-1.6.1-2.4-.3-3.2-.2-.4-.3-.7-.2-.7.1 0 .3.2.4.4s.2.4.2.2c.1-1.3 1.3 2.7 1.5 4.8.3 3.6 1 4.8 1.4 2.2.7-6.7-2.5-11.6-6.9-10.1m-47.8 4.7c0 .4.1.7.2.7 0 0 .1-.3.1-.7s-.1-.7-.2-.7-.1.3-.1.7m4.2 3.4c0 .2.1.4.2.4s.2-.2.2-.4-.1-.4-.2-.4c-.2 0-.2.2-.2.4m35 .9c-1.5 1.4-3 5.5-3.3 9.2-.1.6-.1 1.3-.2 1.5-1.5 7.4.5 21.6 4.2 29.7l.4 1 .2-2.3c.5-8.2 1.9-12.8 5.7-18.5 1-1.5 2.7-4.4 2.7-4.6 0 0 .2-.4.5-.9.6-.9.5-1.2 0-.5-.2.3-.8 1-1.4 1.6-1.3 1.5-4.1 5.5-4.8 6.9-.5 1-1 1.6-.7.8.1-.2.3-.7.4-1 .7-1.7 2.8-5.4 4.1-7.2 2.6-3.5 4.6-6.9 4.6-7.8 0-.7-.2-.6-.7.2-.4.7-.9 1-.6.3 1.1-2.8.5-4.1-1-1.9-2.6 3.9-4 6-4 6.3-.1.4-.9 2-1 2s-.1-.1 0-.2.2-.4.2-.6c0-.2.2-.9.5-1.5.2-.6.5-1.3.6-1.7.1-.3.8-1.7 1.5-3.1.7-1.4 1.2-2.5 1.2-2.5-.2 0-2.1 3.2-2.7 4.4-.3.8-1.1 2.3-1.7 3.5s-1.4 3-1.9 4c-.4 1-1 2.1-1.2 2.5s-.4.9-.4 1.2-.1.6-.2.6-.1-.4-.1-.8c0-.5.1-2 .2-3.5.1-2.7.4-5.2.7-6.9.5-2.5-.4-.1-1.2 3.3-1 4.3-1.1 5-1.2 6.3-.1.7-.1 1.3-.2 1.3-.3.3-.3-3.8 0-5.4.1-.4.2-.9.2-1.2s.2-1.1.3-1.8c.3-1.6 1.2-5.4 1.8-6.9.2-.6.4-1.2.3-1.2-.3-.3-2 4-2.5 6.4-.1.6-.3 1.2-.4 1.3-.1.2-.1-.1.1-1.6.1-.4.2-.9.2-1.3a19.16 19.16 0 0 1 1.2-3.9c.1-.7.8-2.4 1.5-3.9.9-1.9.9-2-.3-2.2-.7-.1-.9-.1-1.6.6m-69.6.5c0 .1.5 1.1 1.2 2.1s1.6 2.5 2.1 3.3c3.4 5.3 6.4 12.4 7.7 18.1.3 1.2.7 3.2 1 4.4.8 3.6 1.1 6.3 1.1 12.4 0 6 0 5.9 1.2 7.9 1 1.7 1 1.7 1-.8 0-2.2.1-2.7.5-1.3.7 2.7.9 3.6 1.2 5.2.2 1 .5 1.9.6 2.1.1.1.2.1.1-.2-.1-.2-.2-1.1-.2-2-.1-.9-.2-2.4-.2-3.4-.1-1-.1-4.2-.1-7 0-7.9-.3-10.7-1.7-15.1-.4-1.4-1.2-3.9-1.7-5.5-1.5-4.9-2.2-6.2-5.8-11-.8-1-1.5-2.1-1.7-2.3-1.6-2.3-3-4-3.8-4.8-.2-.2-.4-.5-.4-.6 0-.2-1.2-1.3-1.7-1.5-.3-.2-.4-.1-.4 0m32.7 1.4c.1.5.3 1.8.5 2.9.6 2.8.6 8.5.1 9.6-.2.4-.7 1.6-1 2.6-1 3-2.4 6.4-3.1 7.9-.4.7-.9 2-1.2 2.8-.3.8-1.2 2.9-2 4.5-1.9 3.9-2.3 5.1-2.3 7 0 1.5.2 1.6.5.1.2-1.2.3-1.5.5-1.5.1 0 .1.2.1.5-.2.6-.2 3.6-.1 3.7.1 0 .3-.6.5-1.4 1.1-3.6 1.5-4.7 1.8-4.7.2 0 .3.4 0 .7-.2.2-.6 2.3-.6 3v.5l.2-.5c.4-.8.7-1.6 1.3-3.2.3-.8.7-1.5.8-1.5.1 0 .1-.1.1-.2-.1-.1 0-.2.2-.2s.2.2-.1 1.3c-.2.7-.5 2.1-.7 3l-.7 3.3c-.2.9-.4 2.4-.6 3.2-.1.9-.4 2.5-.5 3.7-.3 2.3-.4 5.7-.1 6s.6-.7.9-3.4c.6-4.6.7-5 .9-1.7l.1 2.5.4-.8c.9-1.9 1.1-3.5 1.2-8.4.2-10.3.7-14.9 1.2-10.5.2 2 1.3 5 1.3 3.5 0-.7.2.1.3 1.2.3 4.1.9 3.8 1.3-.7.2-3.3.5-5.6.9-7.5 1.1-5.5 1.5-9.6 1.2-12-.1-.9-.3-2.6-.4-3.9-.3-3.2-1.2-7.5-2.1-10.4-.7-1.5-.9-1.7-.8-1m-9.1.1c-.2.2-.3.4-.3.5s-.5 1.1-1.1 2.2c-.6 1.1-1.2 2.3-1.3 2.6-.1.3-.4 1.1-.7 1.8-1.1 2.6-2 5.9-2.7 10.6l-.4 2.6.7 1.5c.4.8.8 1.8.9 2.2s.3.7.4.6c.1-.1.3.9.5 2.1.4 2.4.5 2.5.8.5.1-.8.2-1.1.3-.8 0 .5.4 1.2.4.7 0-.1.4-.7.9-1.4l.9-1.2-.4-1.7c-1.6-7-1.4-13.7.3-17.8 1.4-3.5 1.9-6.3.8-5m56.7 0c0 .1.1.2.3.2.2 0 .3-.1.3-.2s-.1-.2-.3-.2c-.2 0-.3.1-.3.2m42.1 1.1l-.3.7.5-.6c.5-.6.6-.9.3-.9-.1.1-.3.4-.5.8m-93.4-.3c0 .1-.1.4-.2.7-.2 1.1-1.1 3.3-2.6 6.3-2.1 4.5-3.4 8.7-3.4 11 0 1.6.6 1.5.9-.2.2-1.5 1.5-4.4 2.6-6 2-2.8 2.1-2.9 2.5-7.6.5-4.1.6-4.8.2-4.2m-214.2 1c.3.5-.3 1.2-1.1 1.2-.7 0-1-.4-.7-1 .5-.8 1.5-.9 1.8-.2m271.6 1.8c-.1.2-.1 2.3-.2 4.5v4.1l-.6 1.3c-.3.7-.8 1.5-1.1 1.9-2 2.7-2 2.4-.2 4.3.5.6 1.1 1.4 1.3 1.8.3.9.2 1-.3.4-.5-.5-.7-.5-.7 0 0 .6-.7 3.7-1.2 5.2-1.2 3.6.5 6.2 4.6 6.9 1 .2 1.6.4 2.4 1 2 1.4 2.4 1.4 1.3-.1-.6-.9-.7-.9-.2-.7 1 .5 3.1 2.2 4.1 3.3 2.3 2.4 6.3 3.6 8 2.5.4-.3.9-.5 1.1-.6s.7-.4 1.1-.8l.7-.7-.7.1c-.4.1-.9.2-1.2.2-.6.1-2-.1-2-.3 0-.1.3-.3.7-.4 1.6-.5 3.4-1.6 4.6-2.8.8-.8.7-1.1-.2-.6a4 4 0 0 1-1.8.4c-.7.1-1.3.2-1.4.2-.3.2-2.4.1-3.1-.2-1.1-.4-1.1-.7-.1-.7 1.9.1 5.8-1.4 5.8-2.2 0-.5 0-.5-.9-.1-.6.3-1.4.3-3.3.3-2.8 0-2.2.2-6.5-1.8-.9-.4-1.9-.9-2.2-1.1l-.6-.4 1-.1c1.3-.2 2.7-1.1 3.7-2.5 1.1-1.5 1-1.6-.4-1.2-1.5.5-2.1.4-1-.2 2.4-1.3 2.3-1.5-.9-2.6-2.8-1-3.8-1-4.9-.1l-.6.5.1-1.9c.1-2 0-2.2-.5-.8-.5 1.3-.7 1.1-.6-.4.1-2-1.4-5.2-2.2-4.5-.2.1-.3.2-.3.2l.4-1.6c.4-1.6.4-6.1 0-7.6-.1-.4-.2-1-.2-1.4.1-1.1-.5-1.7-.8-.7m-276.2.6c2.1.9 1.7 3.8-.6 4.3-1.5.3-3.2-1.2-2.9-2.6.5-1.6 1.9-2.4 3.5-1.7m265.1.2c-.2.5-.3 1.1-.2 1.1.1 0 .7-1.1.7-1.3s-.4-.1-.5.2m15-.1c-.3 1-1 4.5-.9 5.1.2 2.8 4.6 8.2 6.8 8.2.2 0-.2-.5-.8-1.1-.6-.6-1.4-1.4-1.6-1.9-.3-.5-.9-1.3-1.4-2-1.2-1.5-1.2-1.6.1-.5 3.2 2.7 6.4 2.8 3.6 0-.8-.8-1.5-1.7-2.1-2.7-.5-.8-1.1-1.9-1.4-2.3-.3-.4-.6-.8-.6-.9 0-.2-1.6-2.1-1.7-1.9m52 1.3c-.3.2-.9.3-2 .3-1.5 0-1.8.1-3.3.8-.9.4-3.2 1.3-5 1.9-1.8.6-3.7 1.3-4.3 1.6-.6.3-1.1.5-1.2.5s-.6.2-1.2.4c-2.1 1.1-4.6.8-6.3-.6l-.9-.7.1.8c.2 1.6.7 2.2 2.2 2.9 1.7.7 1.8.9.2.9-1.2 0-2.1-.3-2.9-1-.6-.6-.7-.4-.2.8 1 2.4 4.1 2.8 8.5.9 1.5-.6 3.4-1.4 4.3-1.8 2.1-.8 3-1.3 4.4-2.6s1.7-1.5 4.1-2.1c1.1-.3 2.2-.7 2.5-.9 1.1-.8 2.3-1.2 3.8-1.2s1.5 0 1.1-.4c-.5-.7-3.2-1-3.9-.5m2.8 2.6c-.6.1-1.5.4-2 .7-.6.3-1.6.6-2.6.8-2.3.4-3.3 1.1-8 6.2-1.7 1.8-3.5 3.3-3.9 3.3-.6 0-.2.4.6.5.5.1 1.1.1 1.3.2.3 0 .6.1.8.2.4.2 1.9-.5 2.8-1.2.3-.3.9-.7 1.2-.9l.6-.4-.4.5c-.2.3-.5.6-.6.7-2 2-1.3 2.9 1.1 1.3 1.1-.7 4.1-3.6 5.7-5.5.4-.5.7-.7.6-.5s-.2.4-.2.5c-.1.1-.3.4-.5.9-1 2.2-4.3 6.3-5 6.3-.1 0-.2.1-.2.2s.6.2 1.3.2h1.3l1.2-1.2c1.5-1.6 4.9-6.2 5.8-7.8.7-1.2.7-1.3 1.5-1.3 1.3 0 1.6 1 1.2 4.5l-.1 1 .4-.5c1.9-2.3 2.2-5.4.8-7.1-1.5-1.7-2.3-1.9-4.7-1.6m-62.4 3.8c-.2.4-.3 1-.3 1.4 0 .6.1.5.4-.5.4-1.4.4-2-.1-.9m-274.7.5c.4.3.4 1.3 0 1.5-1 .3-1.7-.6-1-1.3.3-.4.6-.5 1-.2m159.8 1c0 .3.6 1.2 1.4 2 1.2 1.4 1.8 2.1 2.2 2.9 2.7 4.8 3.1 5.8 4.4 10.4.3 1.1.8 2.6 1.1 3.4.3.8.8 2.3 1.1 3.2 1.1 3.7 4.4 9.2 7.2 12.1 1.6 1.6 3.6 3.2 3.9 3.1 1.7-.6 1.7-.4-.2-2.2-.9-.8-1.5-1.5-1.5-1.6.1-.1.2 0 .3.1s.7.5 1.3.8 1.7.8 2.4 1.1c1.4.7 1.9.7 1.1.1-1.6-1.3-4-3.6-7-7.1-.1-.1-.4-.5-.7-.8-1-1.2 0-.4 3.2 2.4 2.8 2.4 4.9 4 4.4 3.1-.2-.3-.7-1.1-1.1-1.9-.6-1-1.4-1.9-3.1-3.5-2.5-2.3-3.3-3.4-5.4-7-.8-1.3-1.7-2.8-2.1-3.3-.9-1.2-1.5-2.4-2.4-4.7-.7-1.7-2.7-5.2-3.8-6.7-1.9-2.5-6.7-6.8-6.7-5.9m58.2 4.7c-.4 1.2-.7 2.3-.6 2.1.2-.2 1.1-3 1-3.1l-.4 1m-153.8.6c-2.9.4-9.1 2.3-9.9 3-.3.2-1.2.7-2.1 1.1-.9.3-1.7.7-1.9.8-.2.1-.8.4-1.4.8-.6.3-1.2.6-1.5.7-.2.1 1.6.1 4 .1 4.5 0 5.4.1 7.6.8.7.2 2.5.6 4 .9 3.6.7 6.7 1.6 8.9 2.8 4.5 2.3 3.7 2.2-2.6-.2-1.1-.4-2.5-.7-4.6-.9-1.3-.1-2.2-.3-2.5-.5s-.9-.4-1.5-.5c-5.4-.8-5.4-.8-9.5-.7-3.7.1-4.6.2-3.9.5.2.1.8.4 1.5.7l1.2.6 1.2-.4c1.2-.4 1.4-.4 3.8-.1 3.2.3 3.3.5.5.6-2.1.1-3.7.5-3.7.9 0 .1.1.2.2.2s.6.3 1.2.7l1 .7.3-.6c.3-.6 1.4-.9 2.9-.7.4 0 1.9.2 3.2.3 1.3.1 2.8.3 3.2.4.4.1 1.3.2 2 .3 7 .6 18 5.1 27.1 11 2.9 1.9 4.7 3 5.4 3.3.3.1 1 .6 1.5 1s1.6 1.1 2.3 1.6c1.7 1.1 3 2.2 5 4 .8.8 1.6 1.5 1.8 1.6 1.5 1.1 2.2 1.7 3 2.4 2.5 2.2 3 2.7 3.1 2.7.2 0 4.5 3.6 4.6 3.8 0 .1-.2 0-.4-.2s-.5-.4-.6-.4-.9-.6-1.9-1.3-2.1-1.6-2.6-1.9c-.9-.6-2.1-1.6-3.8-3-.5-.4-1.1-.9-1.5-1.1-.9-.6-2.1-1.5-3.4-2.7-.6-.6-1.6-1.4-2.2-1.7-.6-.4-1.9-1.3-3-2s-2.3-1.4-2.7-1.6c-.4-.2-1.1-.6-1.6-.9-.4-.3-1.2-.7-1.7-1s-1-.6-1.2-.8c-.9-1.2-9.3-5.7-13.8-7.4-5.3-2-10.1-3.3-13.1-3.6-7.5-.7-8.8-.5-7.8 1l.4.7 2.7-.1c2.9-.1 3 .2.2.7-1.2.2-1.5.5-1.5 1.5s.1 1.1.7.7c1.8-1.2 4.1-1.6 5.2-.9.9.5.9.5 1.3-.4.7-1.5 2.1-1.9 4.5-1.4.9.2 2.4 1.8 2.6 2.8l.1.9 1.7.3c1 .2 2.3.6 3.2 1.1 1.3.6 1.6.7 2 .5.3-.1.9-.2 1.4-.2h.9l-.5.3c-.3.2-.5.5-.5.7s-.2.8-.4 1.3-.4 1.1-.5 1.2c0 .2-.1.5-.1.8-.1.3-.2.9-.2 1.5-.1.5-.2 1.1-.3 1.3-.3.5.1-3.5.4-4.9.4-1.5-.2-1.2-.9.5-1 2.4-1.6 6.9-1.6 11.3 0 3.8-.5 1.8-.6-2.4 0-.8-.1-1.5-.2-1.6-.2-.2 0 8.4.3 9.9.1.7.3 1.5.3 1.8.5 3.2.8 4.8 1.4 7.1.4 1.5.7 2.8.7 3s.1.5.2.6c1.1 2.8 1.2 4.3 0 2.2-.8-1.4-.9-1.1-.1.5.7 1.5.9 1.8 1.5 1.8.5 0 .7-1.2.3-1.7-.6-.6-1.6-8.4-1.3-10.5.1-.5.3-2.4.5-4.3.3-3 2-10.1 2.5-11 .1-.1.6-3.1 1.1-5.9.2-1.1.6-1.7.6-.8 0 .3.4.7 1 .8.2 0 1.1.5 1.9 1 1.4.8 1.6.9 2.4.8.9-.1 1-.1 1.7.6.8.7 1 1.1.5 1.1-.1 0-.4.3-.6.6l-.3.6.1-.8c.1-.8-.2-1.2-.4-.5-.1.2-.3.8-.6 1.3-.2.5-.5 1.2-.6 1.5s-.2.5-.2.5c-.1-.1.2-1.8.5-2.6.4-1.2-.5-.8-1 .4-1.3 3.1-1.3 9.7.2 16.5.5 2.4.3 2.5-.6.4-.6-1.3-6.1-7.5-6.4-7.2-.1.1-.2.9-.4 2l-.3 1.9 1.1.9c1 .9 1.1.9 1.6.7.6-.2 1.8.2 1.4.4-.3.2-1 2.4-1.3 4-.1.8-.3 1.5-.4 1.5-.2 0 0-3.5.3-4.7.3-.8.3-.8-.2-.6-1.7 1.1-1.9 9.5-.4 15.2.2.6.4 1.4.5 1.8.4 1.5.5 1.1.6-2.6.1-3.6.1-3.9.7-5.5.6-1.5 1.9-4.7 2.1-4.9 0 0 .5.3.9.9.7.8.9.9 1.1.7.3-.3 1.2-.3 1.8-.1.3.1-.5 3.1-1.2 4.2-.4.7.1-2.7.5-3.6.4-.8-.5-.6-1.1.2-1.3 1.9-1.5 11.1-.3 13.4.6 1.1.7.9.7-1.1 0-2.5.3-4.1 1.5-7.1l1-2.5 1.2 1.2c1.2 1.2 1.5 1.4 1.9.9.8-.9 1.4-.2.8 1-.2.4-.5 1.3-.7 2s-.4 1.2-.5 1.2c-.2 0 0-2.4.2-2.8.3-.5 0-.7-.3-.2-1.6 2.1-1.3 10.8.5 12.8.4.5.5.3.4-1.7-.1-2.8.4-5.1 1.4-7.1l.9-1.7 1.2 1.1c1.2 1 1.2 1.1 1.7.8.2-.2.7-.3 1-.3.8-.1 1 0 .7.2s-1.2 2.4-1.6 3.9c-.4 1.3-.7 1.2-.4-.1.1-.4.1-.8.1-.9 0-.1 0-.6.2-1.1.3-1 .2-1.3-.2-.8-1.3 1.3-1.6 8.6-.5 12.1.9 2.8 1.1 3 1.1.9 0-2.4 1.1-7 2.3-9.7l.3-.7.8.6c.5.3 1 .7 1.1.9.3.4.8.4 1.3 0 1.1-.8 1.3-.2.5 1.9-.3.8-.5 1.6-.6 2-.1.3-.2.7-.2.7-.1.1 0-1 .3-2.5.1-.3.2-.9.2-1.2l.1-.6-.5.5c-1.7 1.9-2 7.2-.8 13.1.6 3 1 3.6 1.1 1.4 0-2.8 1-7.3 2.3-10.1l.7-1.7 1.5 1.2c1.5 1.2 1.6 1.2 2.2 1 .9-.3 1.4-.3 1.1.1-.1.2-.2.4-.1.5.1.1-.1 1.2-.4 2.4-.3 1.2-.6 3-.7 4l-.3 1.8-.1-1c-.2-1.2 0-3.8.3-6.2.1-.9-.2-1-.6-.2-.9 1.8-1.1 6.8-.3 9.5.8 2.9 1.3 4.6 1.5 4.8s.5-1.8.5-3.3c0-.9.8-5.2 1.2-6.1 1.1-2.7 1-2.7 2.5-1 .9 1 1.3 1.3 1.5 1.2.5-.3 1.7-.2 2.2.2.6.5.7.9.1.6-.4-.2-.8.5-1.1 1.7-.3 1.5-.7 3.6-.7 3.8 0 .1-.1.2-.1.1-.2-.2-.2-2.4.1-3.9.3-1.7.3-1.8-.4-1.4-1.2.8-1.4 6-.3 10.7.3 1.3 1.7 4.8 2 4.8v-2.1c0-1.2 0-2.8.1-3.6s.3-1.6.3-1.9c.1-.9.7-3 .9-3.6l.3-.6.4.4c.2.2.6.7.9 1.1 1 1.4 1.1 1.6 1.9 1.3 1-.4 1.7-.3 2.4.2l.5.5-.5-.2c-.3-.1-.7-.2-.8-.2-.3 0-.7 2.1-.8 4.2 0 1-.1 1.8-.2 1.8-.2.2-.5-2.3-.5-3.8.1-1.9 0-2.1-.5-1.2-.3.7-.3.9 0 4.7.2 2.4 1.2 5.5 2.5 7.7.3.6.7 1.2.8 1.4.3.9.4 0 0-1.5-.4-1.8-.3-5.7.1-7.5l.2-1 1.6 1.6c1.9 1.9 1.9 1.9 2.3.7.1-.5.4-1 .5-1.1.5-.2 1.5-.1 1.9.2s.5.6.2.4c-.4-.3-.7.8-.7 3.2 0 1.3-.1 2.4-.2 2.4-.3 0-.7-2.3-.7-4.4 0-2-.5-.3-.5 1.9 0 4.7 1.1 8.1 3.6 11.1.6.7.6.6.2-1.2-.3-1.5-.5-5.9-.2-7.2l.2-.7.7.5c1.3 1 5.2 3 7.4 3.7.4.1.4.1-1-1-1-.8-2.3-2-2.3-2.1s1.5.7 2.4 1.2c1 .6 4.5 2.4 4.7 2.4.1 0-.2-.3-.7-.7-.5-.4-1.3-1.2-1.9-1.7-.6-.6-1.5-1.4-2.1-1.9-1.8-1.6-1.8-1.6 5.8 2.9 1.8 1.1 3.4 1.9 3.4 1.8 0 0-.7-.6-1.6-1.2-.9-.6-1.8-1.4-2.1-1.6s-.9-.8-1.4-1.2c-.5-.4-1.1-.9-1.4-1.1-.3-.2-.9-.8-1.4-1.2-.5-.4-1.1-.9-1.2-1-.9-.8-2.7-2.3-3.2-2.6-2.4-1.6-8.4-7-8.4-7.6 0-.1.5.3.8.5.1.1.4.3.8.6s1.2.9 1.8 1.5c1.2 1 2.9 2.4 6.2 4.7 1.1.8 3.2 2.3 4.8 3.5 4.3 3.3 6.9 5.1 8.2 5.9.7.4 1.6 1.1 2.1 1.4 1 .8 1 .7.4-.6-.5-1.1-1.1-4-.8-4.2.1-.1.1.1.1.3 0 1.4 2.2 5.1 4 6.8 1.5 1.4 1.8 1.5 2 .4.1-.4.4-1.4.8-2.1 1.1-2.2 1.7-2.7 1.1-1-.2.6-.4 1.4-.5 1.9l-.1.9.5-.4c.9-.8 3-2.1 3.8-2.4s1.4-.8 2.4-2.3c.7-1 .8-.9.4.1-.2.4-.3.9-.4 1.2s-.3.9-.6 1.4c-.8 1.5-1.3 2.9-1.8 4.8-.8 2.8-.8 3.1-.9 4.6-.1.8-.2 2-.3 2.6-.5 2.9.2 7.9 2.4 17.6 1.7 7.4 1.9 8.4 2.1 11.7.1 1.8.3 4.3.4 5.6.2 2.3.3 5.2.1 5.1 0 0-.2-1.2-.3-2.6s-.3-2.7-.3-3-.1-.9-.2-1.4c-.8-6.1-2.3-12.2-3.6-15.2-.2-.4-.8-2.6-2.1-7.1-.7-2.3-1.1-6.3-.9-8.4.5-5.5 1.3-9.2 2.5-12 .4-1 .4-1-.6-.2-1.4 1-1.6 1.2-2.9 3.1-4.9 7.2-6.1 14.6-3.9 24.2.9 3.8 3.2 11 4.3 13.6.5 1.1 1.3 3 1.8 4.2s1.1 2.8 1.4 3.5c.9 2.2 2.8 8.4 3.1 10 .3 1.8.5 12.7.1 13.5-.5 1.2-.5 5.4-.1 5.8.9.9 1.6.3 2.9-2.8.4-1 1.1-2.3 1.6-2.9 1.7-2.6 3.6-7.7 4.4-12.1.9-4.9 1-18.2.2-18.7-.1-.1-.1-.3 0-.5.2-.3.2-.8 0-2.5-.1-1.2-.3-2.6-.3-3.2s-.1-1.3-.2-1.6c-.1-.3-.1-1.1-.1-1.9 0-1.4 0-1.4-.4-1.4-.3 0-.5-.1-.5-.2 0-.2.2-.3.5-.2.4.1.4 0 .3-.7-.3-1.6-.4-1.9-.6-2.3-.3-.5-.3-1.4 0-1.6.6-.5.6-3 0-3.6l-.5-.5.5-.5c.5-.4.5-.6.3-1s-.2-.5.2-.8c.3-.2.6-.8.8-1.5.4-1.5.4-1.5-.1-1.6s-.4-.6.2-.6c.5 0 2.2-2.9 1.8-3-.5-.2-.2-1 .4-1.1.7-.1 1.2-1 1.2-2 0-.5.5-1.2 1-1.4.2-.1.2-.2 0-.5-.3-.6.1-1.4.8-1.7.3-.1.5-.4.5-.5s-.2-.3-.5-.3c-.6-.1-.8-.4-.6-.9.1-.3.3-.3.6-.3.3.1.5 0 .6-.2.2-.6.1-.9-.3-.9-.2 0-.4-.1-.4-.3 0-.2.1-.3.3-.3s.2-.1.2-.3c-.1-.2-.3-.2-.5-.2-.4.1-.9-.6-.7-1s-.4-1.5-.7-1.4c-.5.2-1.2-.6-1-1.1.3-.7-.9-3-3.5-6.4-.8-1-1.7-2.3-2-2.7-.3-.5-.6-.9-.7-1-.1-.1-.4-.6-.9-1.3-2.1-3.3-4.4-5.5-5.8-5.7-1.7-.2-5.5.4-6.4 1-.4.3-.9.5-1.1.5-.1 0-.5.2-.8.4s-.6.4-.7.4c-.1 0-.2.1-.2.2s-.1.2-.2.2c-.7 0 2.1-2.1 4-2.9 1.1-.5 1.8-.7 4.3-.9 1.3-.1 1.3-.1.6-.8-.3-.3-.9-1-1.3-1.5-1.3-1.6-1.5-1.7-4.7-2-.9-.1-1.9 0-2.9.2-.8.2-1.6.3-1.7.2-.3-.2-.2-3.6 0-4 .1-.2.2-.8.2-1.3 0-1 .2-1.3.6-1 .4.3 4.4 1.6 5 1.6.3 0 .4.1.4.2-.1.1 0 .2.1.3s.2 0 .2-.1 1.1-.2 3.2-.2c1.7 0 3.4 0 3.6-.1 1.5-.5 1.8-.8 1.1-.8-7.1-.6-12.6-2.2-17.2-5.2-.6-.4-1.4-.9-1.8-1.1-.5-.3-2.7-1.8-5.1-3.3-2.3-1.5-4.4-2.9-4.5-2.9-.4-.2-2.8-1.8-3-2.1l-.1-.1c0 .3-5.4-3.5-5.5-3.8 0-.1.4.1 1 .5.5.3 1.2.8 1.5.9.3.2 1.8 1.1 3.4 2.2 1.6 1 3.4 2.1 4 2.4.6.3 1 .6 1 .7 0 .1.1.1.1.1.1 0 1.2.6 2.4 1.4 10.4 6.9 15.8 9.1 22.2 9.1 1.2 0 2.4.1 2.8.2.4.1 1.2.1 1.9.1.6 0 1.9-.1 2.9-.1 1.4 0 1.7-.1 1.6-.3-.9-2.1.2-4.9 2.7-7.1 1.2-1 1.3-.9.5.7-1 1.8-1.7 5.4-1.4 6.8.1.5.5.6.5.2 0-1.3 4.6-4.5 7.3-5.1 2.6-.6 3.2-.3.8.5-4.7 1.5-7.3 5.1-6.2 8.5l.4 1.1.2-1.4c.6-4.9 3.8-6.8 11.3-6.6 1 0 1.9 0 1.9-.1 0-.2-2.3-1.2-2.9-1.2-.8 0-.4-.1.6-.3 1.1-.1 1.3-.3.9-.5-.2-.1-.5-.3-.6-.5-.4-.4-2.3-1.2-3-1.4-1.3-.2-1.1-.5.2-.4 1.5.1 2.3.3 3.5.9l.7.4-.2-.4c-.3-.6-1.9-1.7-3-2.1-.5-.2-.9-.4-.9-.5s-.1-.1-.2-.1c-.1.1-.5 0-1-.2-.4-.2-.8-.2-.9-.2-.1.1-.1 0-.1-.1 0-.5 4-.1 5.2.5l1 .5 1.1-1.2c.6-.7 1.6-1.5 2.2-1.8 1.4-.8 1.2-.8-.8-.3-3.3.9-.6-.6 5.1-2.9 4.6-1.8 7.2-3.2 8-4 .1-.2.2-.3 0-.2-.6.3-1.8.7-3.2 1.1-.9.2-2.1.6-2.5.7-1.2.4-4 1-6.2 1.3-1 .2-2.5.5-3.3.8-2 .7-4.5 1.3-6.2 1.5-.8.1-1.6.3-1.8.4-.2.1-.8.3-1.3.4-.5.1-1.2.3-1.5.5s-.9.5-1.5.7c-2.5.7-7.2 4.6-8.1 6.7-.5 1.2-.7 1.3-.8.5-.1-.5-.1-.8.3-2.1.1-.4 0-.5-.4-.2-.5.3-1.9.8-3.6 1.2-.6.2-2.1.6-3.2.9-2 .6-3.6.8-3.9.5-.1-.1.2-.1.5-.1.8 0 1.4-.3 1.4-.7 0-.2-.5-.3-2-.4-2.5-.2-4.6-.7-7.9-1.9-2.1-.8-5.5-3.2-5.5-4 0-1.5 2.3-1 10.1 2.2 2.2.9 5.4 2.1 6.2 2.3.3.1.8.2 1.2.3 1 .2 1.2.1 3.4-1 1-.5 2-.9 2.2-.9.6 0 .7-.4.1-.6-.3-.1-1-.1-1.8-.1-.7.1-1.4.1-1.5.1s-1.3-.4-2.7-.7c-1.4-.4-3.3-.9-4.2-1.1-.9-.3-1.8-.5-2-.5-.5 0-3.5-1.1-5.8-2-1-.4-2.5-1-3.3-1.3s-2.1-.8-2.8-1.2c-.7-.3-1.4-.6-1.5-.6s-.2-.1-.2-.2-.1-.1-.3-.1c-.2.1-.3.1-.2-.1.1-.2.1-.2 0-.1-.2.1-2.7-.9-4.3-1.8-.3-.2-1.5-.8-2.5-1.3-2.4-1.3-4.2-2.4-4.1-2.7.2-.3-4-4.3-5.8-5.5-.9-.6-1.7-1.2-1.9-1.4-.1-.1-.9-.7-1.8-1.3-1.4-1-3.2-2.3-3.4-2.5-.1-.1.6.3 1.6.7l1.7.8-.8-.7c-.9-.8-6.2-4.7-6.9-5.1-.3-.2-.9-.6-1.3-1s-1.7-1.4-2.7-2.3c-1.1-.9-2.5-2.2-3.3-3-1.4-1.5-1.6-1.4-1 .5.4 1.5 1.1 2.4 2.9 4.2 1.5 1.5 1.6 1.5.6.9-.5-.3-1.2-.7-1.5-.9s-1-.7-1.6-1.1c-.6-.4-1.4-1-1.8-1.3-1-.6-4.8-4.2-5.1-4.8-.2-.4-.3-1.3-.2-3.6 0-3.5-.1-4.2-1.1-5.5-.9-1.3-1-1.2-.9 1.5 0 2 0 2.2-.2 1.4-.6-3.2-.8-4.1-1.5-5.8-1.3-3.5-3.5-6.4-6.1-8.2-1.7-1.2-2.2-1.4-1.4-.6.9.9 2.3 3.2 3.8 6.1.3.6.9 1.8 1.3 2.5.7 1.3.9 2 .5 1.8-.1-.1-.3-.4-.5-.7-.1-.3-.5-1-.8-1.4s-.9-1.4-1.4-2.2c-.4-.8-1-1.7-1.3-2-.2-.3-.6-.8-.7-1.1-.3-.6-2.8-3.7-4.2-5.3-2.9-3.2-7.4-4.9-15.7-6-1.8-.2-3.9-.6-4.8-.7-2.5.4-8.5.2-10.3.5m257 1.7c.1.1.3.2.5.2s.4-.1.5-.2c.1-.1-.1-.2-.5-.2s-.6.1-.5.2m-257.6 1.1c.4.2.8.5.9.6s.9.7 1.7 1.3c3.2 2.4 4.1 3.1 4.1 3.3 0 .1-.1.2-.2.2-1-.4-5-1.4-6.9-1.7-2.7-.5-7.1-1.8-7.1-2.1 0-.4.4-.6 1.4-.8.5-.1 1.7-.4 2.6-.7 2.1-.7 2.6-.7 3.5-.1m249.7-.3c-.6.2-3.2 2.5-3.2 2.9 0 .2.2.3.5.3s.5-.1.5-.4c0-1.2 6.2-1.2 7.6 0 .3.3.9.6 1.1.7.3.1.9.3 1.4.6.7.4 1.1.5 2.5.4 2.9-.1 4.6.6 6.2 2.2 1.6 1.6 3.2 2.2 3.2 1.2 0-.3-.1-.6-.2-.6s-.2-.1-.2-.3c0-1.3-4.2-4.2-6.3-4.4-2.2-.2-3.9-.7-6.5-1.6-2.3-1-5.3-1.4-6.6-1m-239.1.3c.7.1 2.2.4 3.3.6 1.4.2 3 .7 4.9 1.5 2.3.9 4.3 1.6 5.6 1.9.1 0 .3.1.4.2.1.1.5.2 1 .4 1.3.4 4.9 2.8 5.1 3.4.2.6-.1.9-.6.6-.7-.5-.9-.4-.3.1l.5.4h-3c-2 0-3.6.1-4.8.4-3.3.6-4.5.5-6.2-.5-.8-.5-1.9-1.2-2.5-1.5-1.9-1.1-8-6.6-8-7.3.1-.5 2.3-.6 4.6-.2m115.6.2c0 .3.2.7.4.9.5.6 2.6 4.8 3.1 6.1.2.5.7 1.5 1 2 .3.6.9 2 1.3 3.1s1.1 3.2 1.7 4.6c.5 1.4 1.3 3.8 1.7 5.4.5 2.1.8 2.8 1 2.8.3 0 .4-3 .1-4.2-.2-.9.9 1.6 1.1 2.6.2.8.3 1 .7 1 1.7 0-2-10.2-5.8-16.4-.7-1.1-1.2-2-1.2-2.1s-.3-.6-.7-1.2-.7-1.1-.8-1.3-.6-.9-1.1-1.5-1.2-1.5-1.4-1.8c-.4-.6-1.1-.7-1.1 0m121.5 3.8c-1.4.5-4.7 4.1-4.7 5.1 0 0-.4.7-.8 1.5-4.4 7.7-10.1 12.9-16.6 15.1-3 1-3.2 1.2-2.2 1.6 3.1 1.3 11.3 1.2 20.1-.3 3.3-.5 11.9-4.6 16.7-7.8 1.8-1.2 2.4-1.8 3.2-3.1.6-.9.5-.9-.8.1-1 .8-4.4 3-5.6 3.7-2 1.2-5 2.6-5.3 2.5-.1 0-.2.1-.4.3-.3.3-.9.4-.7.1.1-.1.6-.4 1.1-.7 4.9-2.7 8.5-5.3 12-8.7.5-.5 1.5-1.4 2-1.9 1-.9 1-1 .9-1.6-.3-1.5-1.7-3.3-2.6-3.3-.5 0-3.7 2.4-5.1 3.7-2.4 2.3-4.3 4-3.4 2.9.3-.4.6-.7.7-.8s.8-1 1.6-2.1 2-2.5 2.6-3.2c1.2-1.2 1.2-1.2.6-1.2-1.6 0-1.9.2-3.3 1.8-2 2.3-4.9 5.1-6.6 6.4-2.3 1.7-6.7 4.5-6.9 4.3-.1-.1.6-.9.8-.9.4 0 4.1-3.6 5.6-5.4 1.7-2.1 3.2-4 3.1-4.1-.2-.2-3.2 2.1-4.9 3.6-1.6 1.5-2.8 2.2-1.6.9.2-.2 1-1.1 1.6-2 1.4-1.7 3-3.4 4.1-4.3 1.5-1.1 1.8-1.5 1.5-1.7s-1.3-.2-1.5.1c-.1.1-.6.5-1.1.9-.6.4-1.3 1-1.5 1.2-1.8 1.7-1.6 1.1.5-1 1-1 1.7-1.9 1.8-2 0-.2-3.5-.2-4.9.3m-131.8.7c0 .2.2.9.4 1.5s.5 1.8.7 2.6c.6 2.6 1.1 4.2 1.9 6 .4.9 1.2 2.6 1.7 3.8 1.4 3.3 3.1 6.1 4.4 6.9 1.6 1.1 4.6 1.7 3.5.7-.8-.7-3.9-3.9-3.9-4s2.5 1.6 3 2.1c1.6 1.3 1.7 1.1.4-.5-3.8-4.5-5.5-7.2-7.8-12.3-2.8-6.2-3.4-7.3-3.8-7.3-.4 0-.5.2-.5.5m34 4.9c-.3.6-1.1 3.1-1.3 4-.1.5-.3 1.1-.4 1.4-1.4 3.3-1.2 13.7.3 16.8.2.4.4.9.4 1.1 0 .2.1.4.2.5.2.2.2-.2 0-1.1-.1-.4-.2-1-.3-1.4-.2-.9-.2-4.8-.1-5.9l.1-.9.3 1.5c.2 1.2 1.4 5.8 1.7 6.7.2.6 0-1.4-.2-2.4-.5-2.4-.1-3.1.5-.8s.8 0 .2-2.8c-.9-4.3-1.3-14.4-.7-16.6.1-.5-.4-.6-.7-.1m-121.7 2.6c2.9 1.1 3 3.2.2 3.4-2.3.2-5.3-1.1-5.5-2.3-.4-1.7 2.1-2.2 5.3-1.1m6.5.6c.3.2.8.7 1 1s.6 1 .8 1.4c2.8 4.6 2 7.6-1.5 6.1-2.9-1.3-3.4-2.1-2.8-4.1.3-.9.4-1.9.5-2.7 0-2.2.6-2.7 2-1.7m87-.1c0 .1.8 1.5.9 1.5 0 0-.1-.4-.3-.8-.3-.7-.6-1-.6-.7m-115.9 1.6c-.9.9-1.4 2.8-3.8 13.1-1.6 7-1.7 11.5-.6 17.3.7 3.2 1.1 2.8 1.1-1.1 0-3.6 2.2-12.2 4.1-16.2 1.3-2.8 2.7-6 2.9-6.6.6-2.4.5-4.8-.2-5.7-.4-.5-.6-.2-.8.9-.1.8-.9 2.6-1 2.5 0 0 0-.5.1-.9 1-4.4 0-4.6-1.4-.3-.5 1.4-.9 2.6-1 2.7-.1.1-.2.1-.1 0s.2-.7.2-1.2c.1-.6.3-1.9.6-2.9.7-2.2.7-2.4-.1-1.6m264.6 2c-2.3.9-2.9 1.3-4.4 2.8l-1.4 1.4-.1 1.4c-.3 4.1-1.9 7.4-4 8.5-1.8.9-4.5 4.6-4.1 5.6.2.5.5.3 1.4-.8 1-1.3 1.3-1.5 4.6-2.1 4.7-1 9.1-.2 11.5 2 1 1 2.5 3.1 2.5 3.6 0 .7.6.1.7-.8.4-2.7-.8-4.4-4.2-6.1-2.1-1-2.7-1.2-6.7-1.5-1-.1-1.4-.2-1.2-.3.6-.2 3.8-.6 5.1-.6 1.2 0 1.6-.2 1.2-.7-.3-.4-.3-4.7.1-6.3l.3-1.3.1 2.2c.1 2.1.2 2.3.8 3.5 1.2 2.1 1.9 2.6 1.1.8-.7-1.6-.4-4.1 1-7.9 1.3-3.8-.2-4.9-4.3-3.4m-272.4.8c-.1.1-.2.3-.2.4 0 .2-.4 1.3-.8 2.6-2.7 7.8-3.1 21.5-.7 26.5.3.7 1 .8.8.2-.8-2.6.3-10.5 2.6-17.6 1.1-3.5 2.2-7.5 2.2-8.3 0-.6-1-2.7-1.2-2.7-.2.1-1.4 2.3-2.1 3.8-.3.6-.5 1-.5.8-.1-.3.6-2.8 1.2-4.1.7-1.5.3-1.6-.5-.1-.8 1.6-.9 1.5-.3-.1.3-.7.4-1.3.4-1.4-.3-.2-.6-.2-.9 0m12.9 1.4c-.3 1-.2 1 1.2 1.2.7.1 1.8.3 2.4.6 1.1.5 1.7.3 1.5-.4-.2-.6-4.9-1.9-5.1-1.4m216.2 1.2c.2.2.6.3.8.3.3 0 .2-.1-.3-.3-.8-.3-1-.3-.5 0m-53.7 1c-6.8 1.5-11.5 7-14.5 16.8-.4 1.3-.9 2.9-1.1 3.6-.2.7-.5 1.5-.7 1.9-.2.3-.3.8-.3 1 0 .4 2.8-3.7 3.8-5.5.5-1 1.5-2.1 1.5-1.7 0 .1-.1.3-.1.3-.1.1-.2.2-.2.3s-.1.3-.1.4c-.5 1.4-1.7 5.1-1.7 5.4 0 .2-.3 1.1-.6 1.9-.7 1.9-1.1 4.4-.9 5.9.2 2.1.8 4.2 1.3 5.4l.5 1.2-.1-1.5c0-.8-.1-1.7-.2-1.9s0-.4.1-.4.3.5.4 1.1.4 1.6.7 2.1l.5 1-.1-.9c-.1-1.6.9-6.1 1.5-6.6.2-.2.2 0 0 1-.3 1.3-.3 3.4-.1 4.3.1.6.1.6.3-.2.6-3.3 4.5-7.5 8.9-9.6 9.6-4.5 9.8-4.6 12.7-8 1-1.2 2.3-3.8 2.5-4.9.2-1.3-.6-1.4-1.2-.1-.4.9-5.3 6.1-5.5 5.8 0 0 .1-.3.4-.5 1.2-1.1 3.5-4.6 4-6.2.5-1.3.2-1.2-.8.3-1.3 2-4.2 4.9-6.3 6.4-1.6 1.1-7.2 4.1-8.7 4.7-1.2.4 3.3-3.8 7.1-6.7 2.2-1.7 4.3-4 5.2-5.8.9-1.7 1-2.3.3-1.4-.6.9-5.7 5.8-6 5.8s-.2-.5.2-.9c.4-.3 1-1.2 1.6-2.2.1-.2.4-.6.6-.9.5-.8 1.8-2.9 2.1-3.5.3-.5-.3-2.2-1.1-3.1-.4-.5-4.4 2.2-6.3 4.2-.7.7-1.3 1.2-1.3 1.1-.4-.7 5-6.3 6.5-6.8.4-.1.5-.4.2-.8-.2-.3-2.3.5-3.9 1.5-.5.3-1 .6-1.1.6-.3 0-3.5 2-4.2 2.5-.7.6-1.1.7-1.1.4 0-.7 4.6-5.5 6.1-6.4 1.7-.8 1.4-.9-.8-.4M156 185.2c-.1 2.9 0 3.6.5 4.4l.5.7.2-1.1c.2-1.7.2-3.2-.2-4.1-.6-1.8-.9-1.7-1 .1m-48.4.8c-.1.3-.3 1-.5 1.5l-.3.9.1-.9c.1-.9.6-2.3.8-2.1.1 0 0 .3-.1.6m25 0c-.2.5-.1.9.2 1 .1 0 .7.3 1.4.6 1.5.7 2.3.1.8-.6-.3-.2-1-.6-1.5-.8l-.8-.5-.1.3m-89.5.5c.3.3.1.9-.4 1.1-.4.1-.9-.2-.9-.6 0-.6.9-.9 1.3-.5m74.6 1.7c-.2.4-.4.7-.5.8-.4.3-.5 1.3 0 1.7l.4.4-.5 1.6c-1.7 5.9-1.8 11.4-.3 18.6.6 2.8 2.5 8.1 2.1 5.6-.9-4.8 0-11.3 2.5-18.5.9-2.4.8-2.4 1.3-1.8l.4.4.1-2.1c.1-2.4 0-2.6-1.5-3.3-1.3-.6-1.8.1-2.5 3.4-.2.8-.3 1.4-.4 1.5s0-3.6.2-4.3c.2-.9-.2 0-.7 1.3-.4 1.2-.8 3.3-1.1 5.2-.2 1.3-.3 1.4-.3.1 0-1.7.6-5.2 1.1-6.9l.5-1.5-.5-.5c-.5-.5-.6-1.2-.2-1.2.2 0 .5.3.7.6.3.4.6.6.8.5.5-.2.4-.5-.3-1.2-.3-.3-.6-.7-.6-.8.2-.6-.5-.3-.7.4m40.8.5c-.2 1.9.2 3 1.6 4.2.7.6 1.3.5.7-.1-.2-.2-.4-.9-.6-1.6-.3-1.4-1.2-3.7-1.5-3.7 0 0-.1.5-.2 1.2m-16.9-.2c.2 0 .6.1.9.3.3.1 1 .4 1.4.6.5.2 1 .5 1.1.7.3.3.4.3.8.2.8-.3 1.5 0 2.4.8.7.7 1 1.2.6 1.1-.2-.1-.7 1.4-.6 1.7 0 .1 0 .3-.1.3-.1.1-.2.2-.1.4.1.1 0 .3-.1.4-.1.1-.2-.1-.1-.5.5-3.5-.2-4.6-1.1-1.8l-.4 1.1.1-1.1c0-.6.1-1.2.1-1.3.2-.6-.4-.2-.7.4-1.6 3.2-1.5 12.3.1 15.8.2.5.4 1 .4 1.1s.2.5.4.8l.4.6-.1-1.8c-.1-1 0-2.4.1-3.2s.2-2 .3-2.7c.1-1.5 1.2-4.5 1.7-4.5.1 0 .2-.2.1-.5-.3-1.1.3-1 1.9.3.9.7 1.3.8 1.3.3 0-.6-2.5-2.4-2.7-1.9-.1.3-.4.2-.3-.1 0-.2.1-.8.1-1.5.1-.9.4-1.6.5-1 0 .4.3.8.6.8.4 0 1.8 1.4 1.8 1.8 0 .5.6.8 1.9.8 1.7 0 2 .3 1.5 1.4l-.4.8v-.6c0-.8-.3-.8-.6-.1s-.8 3.3-.7 3.4c0 0 0 .2-.1.2-.2.1-.2-.3-.1-1.8.1-2 0-2.2-.5-1.2-.7 1.4-.8 5.5-.2 9.5.2 1.5 1.1 3.5 2.6 5.7 1.2 1.8 1.5 2.1 1.1.7-.3-.9-.6-2.5-.9-4.2-.2-1.5.9-6 1.5-6.1.7-.1.8-.1 1.1.1.2.1.5.5.8.9.5.6.5.7.6.3.1-.3 0-.5-.3-.6-.2-.1-.8-.5-1.2-.9-.8-.7-1-.8-1.3-.3-.2.4-.1-1.6.2-2.8.2-.7.6-1.2.6-.6 0 .1.1.2.3.2s.7.4 1.2.8c1.1 1 1.4 1.1 2.5 1.3.5.1 1.1.3 1.3.5.5.4.5.7.2.5-.3-.1-.6 0-.9.7l-.3.6-.1-.6c-.1-.9-.3-.7-.7.6-.5 1.8-.5 6.7.1 8.7.6 2.2.1 1.8-.8-.7-.5-1.4-.3-.1.3 1.5.5 1.5 2.6 5.2 2.8 4.9 0 0-.1-.6-.3-1.2-.8-2.8-.1-8.6 1.1-9 .4-.1.4-.6 0-.5-.2 0-.2-.2-.1-1.2.2-1.7.5-2.4.4-.9-.1 1.1-.1 1.1.5 1.4.3.2 1.1.7 1.6 1.2.8.7 1.1.9 1.2.6.3-.4.2-.4-.5-1-1.4-1.1-.9-1.7.5-.7.5.3.6.4 1.1.1.7-.3 1.4-.1 2.2.5.6.6.8.9.3.7-.2-.1-.4.2-.8.9l-.5 1 .1-1.1c.1-.9 0-1.1-.2-1.1h-.3s-.2.7-.5 1.5c-1.2 3.5-.7 8.1 1.2 12.3l.7 1.5.1-2.9c.1-2 .2-3.2.5-3.8.2-.5.5-1.4.6-2 .9-3.3.8-3.1 1.3-2.6s2.9 1.2 3.4 1.1c.5-.1 2 .3 2 .5 0 .1-.1.2-.2.2-.2 0-.4.4-.5 1.2-.2 1-.4 1.1-.5.2v-.9l-.4 1.2c-.5 1.6-.7 4.4-.3 6.9.3 2.2.3 2.6-.1 1.5-.1-.4-.3-.7-.4-.8-.1-.1-.1 0-.1.1s.2.7.4 1.3c.3 1 .3 1.1-.1 2.1-.9 2.4-1.2 7.1-.7 9 .1.4.2.8.2.9 0 .1.1.3.2.6l.2.5-.4-.5c-.7-.9-1.7-3.2-2-4.4-.5-2.4.1-9.3.9-10.8.3-.6.4-2.2.1-2.7-.3-.4-2.5 4.5-2.9 6.3-.4 1.9-.4 5.9 0 7.5.1.7.2 1.3.2 1.4-.4.5-3.3-6.3-3.7-8.8-.2-1.4-.4-1.5-.6-.3-.2 1.7.4 5.8 1.1 7.1.3.5-2.1-1.5-4.3-3.7-1-1-1.9-1.8-2.1-1.8-.1 0-.8-.4-1.4-.9-.7-.5-1.8-1.4-2.5-1.9-1.4-1-2.3-1.8-3.6-3-.5-.4-1.8-1.6-2.9-2.5-1.1-.9-2.6-2.2-3.3-2.9s-2.4-2.2-3.8-3.5c-4.1-3.7-6.6-6.2-6.9-7-.8-1.9-.5-7.6.8-13.4.3-1.3.5-2.7.5-3.7 0-1.7.1-2.1.5-1.7.3.6.5.7.7.7m-16.9 1.3c0 .4 0 .5.1.3v-.7c-.1-.1-.1.1-.1.4m189.4-.1c-.1 1.5-5 9-6.7 10.1-.2.2-1 .8-1.7 1.5-2.2 2-6.7 5.7-7.7 6.2-1.3.7-3.6 1.7-3.9 1.7-.5 0-1.9.7-1.9 1 0 .4 3.9.2 5.3-.3.6-.2 1.7-.6 2.5-.9.8-.3 2-.9 2.7-1.5.7-.5 2.1-1.6 3.1-2.3 3.1-2.3 6.8-7.8 7.4-11.1.1-.5.4-1.6.6-2.5s.4-1.7.3-1.9c0-.3 0-.2 0 0m-172.7.6c-.1.6.2.9 1.4 1.3.5.1 1.1.4 1.4.5.7.4.7-.2.1-.8-.5-.5-2.3-1.5-2.6-1.5-.2 0-.3.3-.3.5m-100 .7c1.4 1.3.4 3.5-1.6 3.5-.7 0-1.7-.6-1.7-1.1 0-.2-.1-.3-.2-.3s-.2-.3-.2-.7c0-1.7 2.4-2.6 3.7-1.4m78.1-.5c-.1.1-.1.3-.1.4 0 .2.1.2.2.1s.2-.3.1-.4c0-.1-.1-.1-.2-.1m89.9 1.2c-1.3.3-6.7 3-8.1 4-2.2 1.6-5 3.9-3.2 2.8.3-.2.9-.6 1.3-.7.4-.2 1-.4 1.3-.6 1.1-.5 4.5-1.3 6.3-1.4.9-.1 2.4-.2 3.3-.3.9-.1 2.6-.2 3.8-.2 2 0 2.4-.1 3.7-.5.8-.3 2.3-.8 3.3-1.1s1.9-.6 1.9-.7c0-.5-1.1-1-2.1-1-.6 0-2-.1-3.1-.3-2.4-.4-7-.4-8.4 0m39 .1c-.2.1-.6.2-1.1.2-.7 0-4.7.9-9.2 2.1-.6.2-1.7.4-2.2.6-.6.2-2.2.5-3.6.7-7.6 1.2-15.3 4.1-17.5 6.5-.7.8-.7.4.1-.5.3-.4.6-.8.5-.8-.3-.3-1.9 1.1-5.3 4.5-3.6 3.5-4.2 4.3-2.3 3.1.5-.3.9-.5.9-.4s-.2.2-.4.3-.3.2-.3.3c.1.1 0 .2-.1.3-.1 0-.2.2-.1.2.3.3 4.3-2.5 5.7-3.9 1.6-1.7 5.3-4.2 6.6-4.7.5-.2.5-.1-.3.5-1.9 1.6-2.1 1.8-1.7 1.7.2-.1.6-.1.9-.2 1.2-.2 1.7-.4 2.4-.9 1.3-.9 7.7-3.6 9.5-4 .2 0 .5-.2.8-.3.9-.3 1.1-.2.3.2-1.5.8-3.4 1.8-4.1 2.2-.4.3-1.2.7-1.8 1-1.6.8-.9.8 1.5-.1 1.2-.4 3.3-1.2 4.8-1.6 1.4-.5 3.3-1.1 4-1.3.8-.3 2.3-.8 3.4-1.1 1.1-.3 2.9-1 4-1.5s2.3-1 2.7-1.1 1.2-.4 1.8-.7c.5-.2 1.1-.5 1.3-.6s.3-.3.3-.4c.1-.5-1-.6-1.5-.3m-114.1 1.9c-.2.9.1 4.5.4 4.7.1.1-.1-5.1-.2-5.2-.1 0-.1.2-.2.5m-87.5.1c.4.4.3 1.1-.3 1.3-.7.2-1 .1-1.2-.4-.4-.8.9-1.5 1.5-.9m97 .8c-.2.7-.2 1.3 0 1.1.1-.1.2-.5.1-.8-.1-.2-.1-.4-.1-.3m228.1 1.7c-2.1.5-4.1 1.4-4.7 2.2-.3.4-.7.7-1.1.8s-.8.4-1.3 1.1c-.4.5-1 1.2-1.3 1.4l-.6.5 1 .2c.6.1 1.1.2 1.2.2.6.1.1.3-1.1.4-.8.1-1.6.2-1.9.3s-1 .3-1.6.5c-1.4.4-2.6 1.4-3.2 2.7-.7 1.4-.6 1.7.5.9 2.3-1.6 6-2.4 7.8-1.6.3.1 1.2.5 2.1.8 6.5 2.1 9.6 5.7 8.6 10-.2 1-.2 1 .6.2 1.5-1.7 1.7-3.3.6-5.4-.9-1.8-1.4-3.3-1.4-4.4 0-.8 0-.9-.5-.9s-1.1.7-1.1 1.3c0 .3-.1.2-.7-.2-1-.7-4.2-2.4-5.3-2.7-1.4-.4-1.1-.6.7-.5l1.7.1 1.3-.9c1.7-1.1 4.1-2 5.6-2.2.7-.1-1.3-1.3-3-1.9-.6-.2-1.1-.4-1.1-.5 0-.2-1.4-.2-1.7 0-.1.1-.1 0 .1-.1 1-1.1 7.1-.3 8.6 1.2.8.7.5-.1-.4-1-1.9-2.3-5.3-3.2-8.4-2.5m-115.5.9c.2.7.3.8.3.2 0-.3-.1-.6-.2-.6-.2-.1-.2 0-.1.4m124.1-.3c.4.4 2.3 1.5 2.3 1.3s-1.3-1.1-2-1.3h-.3m-120.8 4.3c-1.5.6-5 1.2-9.2 1.5-1.2.1-3.7.3-5.7.6-3.6.4-7.7.6-13.1.7-3 .1-4.8.2-6.4.4-.4.1-.7 0-.6-.1.1-.1.2-.2.3-.2s.7-.1 1.4-.3c1.9-.4 1.1-.6-1.9-.4-4.6.3-5.1.5-9.7 3.5-4.9 3.2-7.3 4.1-13 4.8-.6.1-1.6.2-2.3.4-.7.1-2.1.3-3.1.3-1.9.1-2.2.3-.9.7 1.1.3 2.8.3 4.8 0 1.5-.3 4.7-.8 5.6-1 .2 0 1.7-.5 3.4-1.1 3.2-1.1 3.3-1.1 3.1-.8-.1.1-.7.4-1.5.7s-1.5.6-1.7.7c-.1.1-.2.1-.2 0s-.1 0-.3.1c-.4.4-3.3 1.2-6.3 1.8-3.4.7-3.7.9-1.2.7 1.8-.1 2.2-.2 4.1-.5.5-.1.8-.1.8 0s.1.1.2 0 .5-.2.7-.2c1-.1-.7.5-1.8.7-.7.1-.9.2-.7.3.5.3 2.3-.1 5.5-1.1 1.8-.6 5.1-1.5 6.4-1.9.7-.2 1.8-.7 2.4-1 .6-.4 1.3-.7 1.5-.8.6-.2 0-.4-.7-.1-1.2.4-.5-.2 1-1 1.6-.8 1.6-.8.8-.8-1.1 0-2.6.5-4.2 1.3l-1.4.7.5-.6c1.6-1.7 4.2-2.4 9.8-2.6 2.5-.1 5.5-.3 6.7-.4 1.2-.1 3.1-.3 4.1-.3 1.9-.1 4.2-.4 5-.6 1.3-.3.2.2-1.5.7-1.1.3-2.1.7-2.2.8-.1.1-.8.3-1.6.5l-1.4.3.9.1c1 .1 3.3-.2 5.6-.8.8-.2 2.7-.6 4.1-.9 6.8-1.2 8.2-1.6 11.5-3.3 3.3-1.3 4.7-2.4 2.4-1.5m123.1.4c.4.4.3 1.7-.2 2.4-.4.6-.9.9-2.8 1.6-.9.3-2.5 1.7-1.9 1.7.2 0 .9-.2 1.6-.4s1.9-.6 2.7-.8c1.7-.5 2.2-1.1 2.3-2.4 0-1.1-.7-2.3-1.4-2.3-.4 0-.5 0-.3.2M158 202.8c0 .3.1.5.1.5.1 0 .5.3.9.7.9.8 1 .8 1.1.3.1-.4-.5-1-1.5-1.6-.5-.5-.6-.4-.6.1m47.7 2.5c-1.6.2-4.7 1.4-5.4 1.9-1.1.9-2.7 2.9-2.7 3.4 0 .6 3.2-.7 3.9-1.6.3-.4 1.1-1.1 1.7-1.5 1.2-.8 1.5-1 3.2-1.6 1.6-.7 1.4-.9-.7-.6m-81.5.5c-.5 2.5 0 8 1 10.7l.6 1.6v-2c0-1.1.1-2.5.1-3.1.1-1.4-1.5-8.2-1.7-7.2m237.4 1.3c-.4.1-1.7.8-2.9 1.4-6.5 3.5-9 4.4-13.6 5.1-4 .6-8.8.2-12.2-1-1.1-.4-2-.7-2.1-.7-.3 0 1.1 1.3 1.7 1.6.3.1.6.3.6.4 0 .1.6.6 1.4 1.2 6.4 4.8 16.5 7 27.9 6.2 5.8-.4 11.1-2.2 11.8-3.9.4-.9.2-1-1.5-.1-4.2 2.2-8.4 3.1-14 3-2.1 0-4.6-.3-3.2-.4 1-.1 6.3-.8 8.3-1.1 3.5-.6 9.8-3.2 10.5-4.4.4-.6-.8-1.6-1.3-1-.2.2-3 1.6-3.7 1.8-.4.1-.8.2-1.1.3-.2.1 0-.1.4-.3 1.7-1 4.4-2.9 4.3-3.1-.1-.2-.4-.1-2 .6-.7.3-2 .8-2.9 1.1s-2.2.7-2.8.9c-1.3.4-5.1 1.4-5.2 1.3 0 0-.7 0-1.4.2-3.5.7-6.9.5-3.8-.2 1.6-.4 4.8-1.4 6.2-2 .9-.4 5.8-2.8 6.1-3 .1-.1.8-.4 1.6-.8 2-.9.4-.6-1.9.3-4.7 1.9-8.6 3.3-8.1 2.8.2-.1 6-3.2 8.4-4.4 1.3-.7 1.4-.8.8-1-.2-.1-1-.3-1.6-.6-1.3-.5-3.3-.6-4.7-.2M159.4 209c0 .6.1 1.3.2 1.6.2.7.2-.8 0-1.9-.2-.8-.2-.8-.2.3m69.4.3a22 22 0 0 0-5.1 1.1c-.5.3-1.3.6-1.6.7-1.2.5-.9.7.5.3 1.2-.3 6-.4 8.2-.1l1.6.2-2.1.4-2.1.4.8.2c.4.1 1.6.2 2.5.2 2 0 2.7.2 1.8.6-.6.2-.7.4-.3.8.1.1.5.6.8 1.1.6 1 .9 1.1 2.3.7 1-.3 1.3 0 .8.6-2.3 3.1-1.6 4.3.9 1.7a4 4 0 0 1 1.3-1.1c.1.1-1 2.4-1.4 2.9-.4.4-.4.5.4.6 1 .1 1 .1 2.8-2.6 1.3-1.9 1.8-2.6 2.5-3 .9-.5 1.4-1 1.3-1.2-.1-.1-5.3-.1-6.3 0-1.3.2-.6-.2.8-.5.7-.1 1.5-.3 1.7-.3.2-.1 2.2-.1 4.5-.2 2.2 0 4.3-.1 4.6-.2.6-.1 1.9-.4 5-.9s3.1-.6 0-.5c-2.7.1-6.2-.1-8.7-.5-.6-.1-4.6-.2-12.3-.3-4.3 0-3.9-.2.9-.3 3.9-.1 4.8-.2 3.5-.4-4.2-.5-6.9-.7-9.6-.4m-41.9.6c.1.2.5.7.9 1s.8.6.8.7c1.7 1.9 11 7.3 15.2 8.9 1.1.4 1.8.6 4.1 1.2.2 0 .8.2 1.5.4.6.2 1.9.4 2.7.5.9.1 2.7.5 4.2.8 3.8.8 8.4 1.1 10.3.6 1.6-.4 1.2-.6-1.2-.6a20 20 0 0 1-3-.2c-.4-.1-1.1-.2-1.5-.3-1.6-.2-3.4-.5-3.6-.7-.1-.1 1.4-.2 3.3-.2 7.3 0 8.3-.3 9.2-2.6.4-1.1.2-1.6-1.7-2.6-2.8-1.7-5-2.2-7.9-2.1-1.9.1-2.5.2-8.1 1.9-1.2.4-3.3.8-4.5 1-1.3.2-2.2.4-2.2.5.2.3 1.6 1.1 3.2 1.7.9.4 1.5.7 1.4.7-.3.1-3.8-.9-5-1.4-.6-.3-1.3-.6-1.4-.6-.6-.1-2.3-.7-3.3-1.1-.6-.3-1.2-.5-1.2-.5s-.3-.1-.6-.3c-.3-.1-1-.4-1.6-.5s-1.2-.4-1.5-.6c-.3-.2-.7-.5-1-.6-.6-.2-4.6-2.9-6.3-4.2-1.4-1.2-1.5-1.3-1.2-.8m-3.8.3c.3.3.5.5.6.5s3.2 2.2 3.2 2.3-.7-.3-1.5-.9c-.8-.5-1.5-1-1.6-1s-.4-.2-.7-.5-.7-.6-.9-.7c-.3-.2-.3-.2 0-.2.3.1.7.3.9.5m78 .6c-.4.2-.7.4-.7.5s1.8-.5 1.9-.7c.1-.4-.4-.3-1.2.2m109.2.3c-.6.2-2.9 1.3-2.9 1.5s2.7-.8 3.3-1.3c.5-.4.4-.4-.4-.2m-203.4.5c.2.3.5.8.6 1.1.4.7.4.7.4-.2 0-.6-.1-.8-.3-.8s-.5-.2-.7-.3l-.4-.3.4.5m112.6.4c-1.6 1-2.5 2.2-3.5 5.1-.9 2.5-.8 8.7.1 11.8 1.1 3.6 1.1 4.9-.1 11.5-.3 1.5-.6 2.9-.7 3.3-.3.8-.3 3.9 0 3.9s.9-1 1.6-2.4c.7-1.5.9-1.2.6.9-.2 1.3-.5 2.2-1 2.7-.7.7-1.2 2.1-.8 2.1.3 0 1.8-2.2 2.7-4 1.1-2.2 1.4-4.4 1.1-6.7l-.4-3c-.1-.9-.3-2.3-.4-3.1-.4-3.1-.6-4.5-.6-7 0-1.4.1-2.5.2-2.6s.2.3.2.8c0 .9.2 1.8 1.4 7.1.3 1.5.7 3.6.9 4.8.3 2.4.4 2.5.6 1.3.3-1.8 0-8.4-.6-11.7-.4-2.2-.5-4.7-.3-6.7.2-1.9.1-1.9-.4-.8-.7 1.6-1 1.8-.9.5.2-1.9 1.5-5.3 2.9-7.3.9-1.2-1.6.7-2.8 2.3-1.4 1.7-1.4 1.7-1.4 1.9 0 .1-.1.2-.1.3-1.3 1.3 1.5-3.7 2.8-5.1.7-.7.3-.7-1.1.1m18.7 0c-.4.1-1.4.3-2.3.5a5.1 5.1 0 0 0-4.4 3.5c-.1.2-.2.4-.3.4-.3 0 0-1.1.6-2.4.6-1.3.6-1.5 0-1-1.1.9-2.7 3.2-3.7 5.7-.2.5-.4.8-.4.8-.2-.2.3-2.6.8-3.6.7-1.4.5-1.5-.5-.2s-1.3 1.6-2.5 2.8c-1.2 1.1-1.5 1.7-1.7 2.9-.1.5-.3 1.1-.4 1.3-.6.9-.5 3.6.1 8 1.3 9 1.3 12.5-.1 16.9-.9 2.8-1.3 3.7-1.9 4.5-.2.3-.6 1-.7 1.5l-.3.9.5-.4c1.7-1.2 3.6-4.3 5.1-8.1.7-1.7 1.2-3.8 1-3.8s-1.2.9-1.2 1.1c0 .1-.1.2-.2.3-.4.2 0-1 .6-1.7 2.2-2.8 3.9-1.9 3.5 1.8s-1.8 7-4.1 9.5c-1.2 1.4-1.5 2-.8 2 .9 0 1.9-.9 5.8-5.4 1.7-2 2.7-4 3.4-6.6.2-1 .5-1.9.5-2.1.1-.5-.1-.4-.9.3s-.8.7 0-.8c1.4-2.9 1.3-2.8 2-1.6l.6.9-.3 1.6c-.2.9-.3 2-.4 2.5-.4 3.6-2.8 9.8-4.2 10.6-.4.2-.3.7.2.7 2.6 0 7.1-10.1 7.6-17 .2-3.1.4-3.7.8-2.5.1.4.3.8.4.8s.1.1.1.2c-.1.1-.1.9-.2 1.7-.2 3.8-.7 6.9-1.5 8.7-1.1 2.6-.7 3.3.7 1.3 2.9-4.1 3.8-12.7 2.1-22.1-.5-3-.5-3.1-.3-2.9.2.2 1.1 3 1.3 4.1.1.3.4 1.8.7 3.4.4 1.7.6 3.4.6 4.2s.1 1.5.2 1.5c.3.2.6-.2.7-1 .6-3.5.6-3.1-.3-9-.1-.7-.2-1.4-.1-1.5.1-.2-.6-3.1-1.3-5.1-.4-1.3-3.5-7.9-3.8-8.2-.3-.1-.7 0-1.1.1m-130.6 2.1c0 .2.1.4.2.4s.2-.2.2-.4-.1-.4-.2-.4-.2.1-.2.4m-97.8.5l1.1 1.1c.3.2 0-.1-.6-.7-1.2-1.3-1.5-1.5-.5-.4m104.2.4c-.1.6 1.8 2.7 2.3 2.7.2 0 .4-1.2.3-1.2-.3-.1-2-1.5-2.3-1.8-.2-.3-.2-.2-.3.3m13.8.7c.4.4.4.7 0 1.1-.5.4-1.6-.5-1.3-1.1.1-.4.9-.3 1.3 0m4.1 2.3c.9.5 1.3 1.3.8 1.7-.7.7-2.9-1.1-2.3-1.8.4-.4.7-.4 1.5.1m71.9.9c-.5.6-1 1.4-1.1 1.7-.2.6 0 4.9.2 4.6.7-.7 2.4-7.5 1.9-7.5 0 .1-.5.6-1 1.2m-82 1.4c-.2.9.1 1.4 1.9 2.8.9.7 1.4.5.8-.4-1-1.3-.7-1.7.5-.9.1.1.3 0 .5-.3.4-.6 1.4-.7 2.2-.3.6.3.6.4.3.5-.5.2-.8 1.2-1.1 3.7l-.2 1.9-.2-1.2c-.1-.6-.2-1.6-.2-2.1 0-.8 0-.8-.2-.5-.3.6-.1 5.3.4 6.4.1.3.3.8.4 1.2.2 1 .3 1.2.8 2.3s.6 1.7.4 1.9c-.8.8-1.6 4.9-1.6 8.2 0 3 0 2.9-.7 1.4-1.7-3.3-1.8-8.8-.3-11l.5-.7-.5-1.8c-.6-1.9-.7-2-1.4-1.2-1.1 1.1-1.6 2.3-2.4 5.4-.6 2.3-.2 6.7.7 7.9.1.2 0 .1-.2-.1-2.4-2.1-3.8-6.9-2.9-10.5.9-3.7 3.4-7 5.1-6.5.6.2.4-1.2-.2-1.8l-.6-.5-.8.4c-.4.2-1 .4-1.3.4-.4 0-.6.2-.8.7-.9 2-.6-.7.5-3.4.2-.4.3-1.1.3-1.5s.1-1 .2-1.3c-.1-.9.4-.1.1.9m116.4.4c-.7 1.4-1.4 1.9-1.4 1.2 0-.5.8-1.8 1.2-1.9.2-.1.3-.2.2-.3-.1-.2-.1-.2.1 0 .3.2.3.4-.1 1m-101.7-.4c1.3.7 2.2 2.3 1.4 2.6s-2.8-1.1-2.8-2c0-.7.6-1 1.4-.6m64.6 1.5c-.3.4-.4.8-.4 1.6 0 .6-.1 1.8-.1 2.7-.1 1.8-.1 1.8.5 1.2.5-.4.8-2.1.8-4.6 0-1.5-.1-1.7-.8-.9m-110.1 0c0 .1-.1.4-.3.6-.3.5-.4.2-.2-.5.1-.2.5-.3.5-.1m113.2 1.2c-.7.7.2 3 1.6 4.2.2.2.4.4.3.5-.1.2-1.3-.2-1.3-.4 0-.1-.2-.2-.4-.3-.5-.1-.6.7-.1 1 .4.3.4.5-.1.7-.7.3-.6 1.1.2 2 1.3 1.4 1.3 1.8.1 1.2-.8-.4-.9-.3-.1.7 1.2 1.6 1.4 2.2.4 1.3-.7-.6-.7-.6-1 .2s-.2 1.1.8 2.3c.7.9.6 1-.2.6-.7-.3-.8-.3-.5.3s0 .5-.6-.1c-.5-.6-.8-.6-1.2-.1-.6.7-.3 2.2.9 4 .4.7 0 .5-.8-.3-.6-.6-.7-.4-.3.4.5 1 .2.9-.9-.3-1.6-1.6-2.4-1.5-1.2.2.6.9 1.4 2.8 1.2 2.9 0 0-.3-.3-.6-.7-1.9-2.6-2.2-1-.5 2.5 2 4 2.9 12.5 1.8 16.8-.3 1 .4.6 1-.6 1.4-2.9 1.6-4.8 1.7-11.2 0-2.3 0-4.2.1-4.3 0 0 .3.8.6 1.9.8 3 1 7.5.4 11.6-.2 1.8.7 1.3 1-.5.1-.4.4-1.2.6-1.8.7-1.4.8-5.1.4-10.5-.2-2.1-.3-3.9-.2-4 .3-.3 1 1.8 1.2 3.4.3 3.9.6 10.6.6 11.3-.1.7-.1.8.2.4 1.3-1.8 1.9-12.2 1-17.1-.2-.9-.3-1.7-.2-1.7.2-.2.9 2.6 1.1 4.4.4 3 .6 2.8.9-.7.2-2.3-.8-8.2-1.7-10-.2-.4-1-1.3-1.7-2-.7-.6-1.2-1.2-1.2-1.3.1-.1 1 .5 1.4.9.1.1.4.2.5.2.6 0 1.7 2.3 2.3 4.7.1.6.3 1.1.4 1.1.2 0 .1-4-.1-5.3-.1-.7-.1-.8.1-.6.9.9 1.1.1.4-2-.9-2.7-4.4-6.2-6-5.9-.3.1-.7 0-1-.2-.8 0-1.1 0-1.3.2m-5.2 1c-.7.9-.9 1.3-1.4 2.7-.4 1.1-1 3.4-1 3.7 0 .2 1.8-.8 2.1-1.1.1-.1.3-.8.4-1.4.1-.6.3-1.6.4-2.1.6-2.8.5-3.1-.5-1.8m-28.2-.4c-.6.1-.8.4-.4.4s1-.3.9-.4c-.1-.1-.3-.1-.5 0m-39 2.2c1.5 1 1.9 1.1 2.2 1 .5-.3 2.2-.3 1.7 0-.2.1-.4.6-.4 1.4-.3 2.8-.6 3.2-.8.9-.1-1.2-.1-1.2-.4-.7-.4.7-.2 4 .2 5.9.2.7.3 1.5.4 1.8.1.3.3 1.1.6 2 .5 1.6.5 1.5-.4 2.9-.9 1.5-1.7 4.7-1.8 7.8l-.1 2.8-.4-1.3c-1.5-4.7-.7-10.9 1.6-11.9.6-.3.6-.4.1-1.3-.2-.4-.6-1.4-.8-2.1-.6-2-.8-2.1-2.5-1.5-1 .4-1.6 0-1.6-.9 0-.8-.2-4.7-.3-5.4-.1-.4 0-.7.2-.9.2-.1.3-.5.3-.7-.1-1.3 0-1.2 2.2.2m13.3-.5c1 .5 2.5 1.1 2.5.9 0-.1-.2-.2-.3-.3-.2-.1-.7-.3-1.1-.5-1-.5-1.9-.5-1.1-.1m93.9.5c0 .1-.1.2-.3.2-.3 0-.4-.2-.2-.5.2-.1.5 0 .5.3m-43.3 1c-.8.8-2.4 3.6-2.4 4.2 0 .3 1.2.1 1.9-.2.5-.2 1.4-3.2 1.3-4.3l-.1-.5-.7.8m-65.7-.5c-.4.4.4 1.3 1.8 2.4.7.5.7.5.9-.2.1-.6-2.3-2.6-2.7-2.2m-33.2.8c-.2.2-.4-.1-.2-.5.1-.3.2-.3.2 0v.5m131.4 2c.1.5.2.6.8.6.5 0 .9.2 1.5.7 1.4 1.3 1.5 1.9.1 1-.8-.5-1-.4-.6.4.4.7.4.7-.4.6-.6-.1-.6-.1-.2.2.2.2.5.6.6.8l.2.4-.7-.3-.7-.3v1.2c0 1.2 0 1.3.8 2 .7.7 1.4 1.8 1.4 2.2 0 .1-.2-.1-.4-.3-.2-.2-.4-.5-.4-.6 0-.3-1.4-.9-2-.8l-.6.1.2-1.8c.1-1.1.1-2.7 0-3.8-.3-2.7 0-4.2.4-2.3m11.4-.1c.7.8-.3 2.8-1.4 2.8-.8 0-1-.7-.5-1.8.6-1.1 1.4-1.6 1.9-1m-83.3.6c.2.2.7.3 1 .3.7 0 .3-.3-.7-.5-.6-.1-.7-.1-.3.2m79.8.4c-.1.5-.5.6-.7.2-.1-.4.3-1 .6-.7 0 .1.1.3.1.5m-98.4.6c0 1.3 4.3 2.3 5.9 1.5.9-.5 1.7-.3 2.4.7l.5.7-.6-.1c-.8-.2-1.1.5-1.2 2.4 0 .8-.4.2-.4-.7 0-1.2-.4-1.1-.4.1-.1 1.6.6 6.6 1 7.2.1.1.2.5.3.9s.1.6 0 .4c-.1-.3-.7-.3-.7 0 0 .1-.2.4-.5.7-1.2 1.2-3.5 5.4-3.7 6.8 0 .2-.2.6-.3.9-.4.8 0-2.8.4-4.2.4-1.3 2.1-4.1 3-4.8l.8-.7-.3-.9c-.2-.5-.5-1.7-.8-2.8-.4-1.6-.5-1.9-.8-1.8-.2.1-.9.3-1.7.4-2 .4-2.7.7-3 1-.4.5-.7 0-.7-1.1 0-1.6 1.5-2.4 4.3-2.3 1.1.1 1.4 0 1.4-.2 0-.1-.1-.2-.2-.2-.1.1-.5-.1-.8-.3s-1-.6-1.5-.8-1.3-.7-1.7-1c-.5-.3-.9-.5-1-.4s-.2-.3-.2-.8.1-.9.2-.9.3.1.3.3m-33.9 2.4c-.1.4-.5.6-.4.2.1-.4.3-.8.5-.7 0 0-.1.3-.1.5m99.1 0c0 .1.2.2.4.2s.3-.1.3-.2c-.1-.1-.2-.2-.4-.2s-.3.1-.3.2m33.9.3c1.1 1.1-1.1 2.9-2.3 1.9-.4-.4-.5-.8 0-1.4.5-.8 1.7-1 2.3-.5m-38.3.7c-.8.8-4.4 1.5-6.9 1.3a12 12 0 0 0-3.8 0c-1.2.1-1.6.1-3.3-.5-4.8-1.5-8.9.8-8.7 5l.1 1 .6-1.1c.8-1.4 2.1-2.6 3.3-2.8 1-.2 1.2 0 .4.3-1.3.5-3 2.8-3 4.2v.5l.6-.3c.4-.2 1.2-.3 2-.4.8 0 1.8-.1 2.2-.2l.9-.1-.5.5c-.3.3-1 .7-1.6.9-.8.3-1 .4-1 .7 0 .2.1 1 .2 1.9.1.8.2 1.6.3 1.7.1.1.1.8.2 1.7.1.8.2 2.3.3 3.2s.3 2.6.4 3.8c.1 1.2.4 3.5.6 5.2.9 7 1 8.8 1.1 11 0 1.3.2 3 .4 3.9s.4 2.2.5 3 .3 2.1.5 2.9.3 1.8.4 2.2c.1.5.3 2.1.6 3.8.3 1.6.6 4.1.8 5.5s.4 2.8.4 3c.3 1.6.5 3 .6 4.2.1.7.2 1.5.2 1.7.1.7.3 6.2.2 6.1s-.3-1.5-.5-3.2-.5-3.5-.6-4.1c-.1-.5-.2-1.3-.3-1.7 0-.4-.1-.8-.2-.9s-.1-.5-.2-.8c-.2-1.1-.4-2.6-.4-2.7-.1-.5-.6-3.3-.9-5.5-.7-4.9-1-7.1-1.1-8.8-.2-2.3-.6-6.3-.9-7-.1-.4-.2-1.1-.2-1.7s-.2-2.4-.4-3.9c-.3-2.5-.6-4.5-1.7-11.8a20 20 0 0 1-.3-3c0-1.8-.9-5.1-1.9-7.5l-.4-.9-.2.6c-.1.3-.1 1 .1 1.7.4 1.8.6 3.7.6 4.6l-.1.9-.7-1.4c-.4-.8-1.1-2.2-1.5-3.3-1.4-3.3-2.7-5.6-3.2-5.6-.3 0-.1.6.9 3.2 1 2.4 1 2.7.9 3.7-.1.6-.2 1-.2.9s-.3-.5-.6-.9-.8-1-1-1.4-.5-.9-.8-1.1l-.4-.4.1.6c.1.3.2.7.3.8.4.5 5.5 10.8 5.9 11.8.2.6.6 1.4.9 1.9.6.9 1.1 3.5.5 2.8-.1-.2-.6-.7-1-1.2s-.7-1-.7-1c0-.2-1-1.1-1.3-1.1-.4 0-.3.5.5 1.7.4.6.8 1.3.8 1.5s.1.3.2.3c.3-.2 2.3 3.8 2.6 4.9.4 1.8.4 5 .1 4.3-.2-.3-.3-1-.4-1.5-.2-1.4-1.1-3.2-2.7-5.3-.8-1-1.6-2.1-1.8-2.5-.7-1.1-3.3-4.6-4.7-6.3-.8-.9-2.1-2.6-3-3.7-.9-1.1-1.7-2.1-1.8-2.1-.4-.2-.4.1 0 .7.2.4.3.8.3.9-.1.2 0 .2.1.1s.4.1.6.5c.2.3.4.6.5.6s.1.1.1.2c-.1.1.1.4.3.6.8.9 2.6 3.2 4 5 4 5.6 5.8 8.8 7.4 13.6.6 1.7 1.2 3.4 1.4 3.8.2.3.3.6.2.6s0 .3.1.6.3 1.3.4 2.1c.1.8.3 1.7.3 2 .1.5.1.5-.3-.1-.5-.7-2.2-1.4-3.3-1.4-.3 0-.7-.1-.9-.3-.2-.2-.5-.3-.7-.3s-.7-.3-1.2-.7c-1.4-1.1-1.8-.9-1 .5 1.6 2.8 5.8 5 7.2 3.9.2-.1.3-.1.3.1.1.4.5 3.3.5 3.4-.4.4-5.3 0-5.6-.4-.2-.3-1.4-.9-1.8-.9-.9 0 .3 1.4 2.5 2.9 3.1 2.1 5.3 2.4 5.9.9.1-.3.2-.3.2.3 0 .4.1 1.5.3 2.5s.3 1.8.2 1.9-4.7-.3-4.8-.5c-.1-.1-.3-.2-.6-.3-.3-.1-.7-.3-1-.5-.5-.4-1.3-.7-1.5-.5-.6.6 5.2 4.2 7.1 4.5 1 .2 1.3-.2.4-.5-.8-.3-.6-.5.3-.3l.7.2.1 2 .1 2-.6-.4c-.4-.1-1.2-.2-1.7-.2-1.3 0-3.1-.7-4.3-1.8-.1-.1-.3-.2-.4-.2s-.2-.1-.2-.2-.1-.2-.3-.2c-1 0 1.7 3.2 3.6 4.4.8.4 2.7 1.1 3.2 1.1.4 0 .1-.3-.6-.6-.8-.3-1-.5-.5-.5.1 0 .6.1 1 .2 1.5.3 1.4.1 1.4 2.2v1.9l-.5-.2c-.3-.1-.9-.4-1.5-.7-.5-.3-1.1-.5-1.3-.5s-.7-.3-1.1-.6c-1.1-.8-1.8-1-1.8-.4 0 .9 4.5 4.7 5.1 4.2.1-.1-.1-.3-.5-.6-.5-.4-.3-.4.8.2 1 .5 1.4.6 1.6.5.2-.2.3-.1.3.1s-.1.4-.2.4c-.1.1-.2.6-.2 1.2v1l-.9-.3c-.5-.2-1.1-.3-1.3-.3s-.7-.2-1-.5-.8-.6-1.1-.7-.5-.3-.5-.4-.2-.1-.5-.1c-1 0-.3 1.1 1.7 2.7 1.8 1.5 3.5 2.2 3.5 1.6 0-.1.2-.1.5-.1.6.1.6.3.2.6-.3.2-.3.4-.1 1.8.1 1.1.1 1.6 0 1.5-.1 0-.7-.3-1.3-.5s-1.2-.5-1.3-.6c-2.4-1.8-3-2.2-3-1.9 0 1.2 5.3 6.2 5.6 5.4 0-.1.3-.1.6-.1.6.1.8.5.3.7-.2.1-.3.4-.2 1.4.1.7.1 1.3 0 1.3-.3 0-2.7-.8-2.9-1-.7-.6-2.9-1.9-2.9-1.8-.1.2 1.4 2.4 1.7 2.5.1 0 .7.5 1.3 1 1 .9 2.4 1.7 3 1.7.2 0 .1-.2-.3-.5-.7-.6-.5-.6.6-.1l.8.4-.4.5c-.3.4-.4.6-.3 1.2.1.4.1.7.1.7-.5 0-3.8-1-3.8-1.1-.2-.3-1.8-.7-1.9-.6-.3.3.6 1.4 1.4 2 2.7 1.8 2.6 1.8 4 1.7 1.4 0 1.6.1 1.1.7-.2.2-.2.6-.1 1.4.1.6.1 1.1.1 1.1-.2 0-2.9-.8-3.4-1-1.6-.7-1.7-.6-.6.8 1.4 1.8 2.7 2.6 4.3 2.6.6 0 .6 0 .4.4-.1.3-.2.9-.1 1.6.1.7.1 1.3 0 1.3-.2.1-2.4-.8-2.8-1.2-1.5-1.6-2.2-1.4-1.1.2 1.5 2.3 2.8 3.4 4.3 3.5.7 0 .7.3.2.4-.2.1-.4.3-.4.5 0 .5.1.4-1.1.1-.5-.2-1.3-.6-1.7-.9-1.8-1.4-2.2-1.4-1.4.1 1.2 2.2 3.4 3.7 4.7 3.4.5-.1.6.1.3.4-.1.1-.2.5-.2 1l-.1.8-.8-.3c-.4-.2-1.2-.5-1.7-.8-.5-.2-.9-.5-.9-.6s-.1-.2-.3-.2-.3-.1-.4-.3c-.1-.2-.3-.3-.6-.3-.2 0-.5-.1-.5-.2v.2c0 .3.3.8.6 1.2.3.4.7.9.8 1.2l.7 1c.2.3.5.6.6.7.9 1.4 3.1 1.4 3.4 0 .1-.3.1-.2.1.3 0 .8-.3 1.4-.7 1.4-.2 0-.3.2-.3.4-.1.6-1.7-.2-1.9-1-.1-.3-.3-.6-.4-.6-.1 0-.1.2 0 .4.2.3.1.3-.8-.2-2.3-1.3-1.9.2 1 3.3 1.1 1.1 2 1.6 1.7.7-.1-.1.2-.2.6-.3.7 0 .9.1.4.5-.2.1-.3.5-.3.9v.6l-.8-.4c-.5-.2-1-.6-1.2-.7-.2-.2-.8-.5-1.3-.8-.5-.2-1-.6-1.1-.9s-.4-.5-.6-.6c-1.5-.4.5 3 2.5 4.2 1.1.7 2 .7 1.1 0-.3-.2-.3-.2.3-.1.4.1.8.2.9.1.2-.1.3 0 .3.3 0 .2.1.4.2.4s.1.4-.2 1c-.2.5-.4 1.1-.3 1.3.1.3 0 .4-.3.2-1-.3-3.4-1.5-4.1-2-2.5-2-2.8-.9-.4 1.3 3.2 3 4.3 3.4 4.9 2 .1-.3.3-.6.4-.6.3 0 .2 1-.1 1.6-.2.3-.3 1.1-.3 2.3 0 1-.2 3-.3 4.4l-.3 2.5-.2-2c-.6-4.9-.9-6-2.3-7.4l-1.1-1.2.1 1.2c.1.6.3 1.9.6 2.8s.6 2.7.7 3.9c.2 1.2.3 2.4.4 2.6s.3 2 .5 3.9l.4 3.5.5.1c.8.1 1.3-1.7 1.5-5.4.1-1.6.3-3.4.4-4s.2-2.4.3-4c0-1.6.2-3.4.3-4.2.1-.7.2-1.5.1-1.8-.1-.2 0-.6 0-.7.1-.1.2.4.3 1.4.8 9.7.7 9.3 1.5 9.5.7.2.9-.2 1.2-2 .1-.8.4-1.8.5-2.2.1-.4.3-1.2.4-1.9.2-1.7-.2-1.6-.9.3-1.3 3.9-1.6 3.8-1.6-.6 0-5.1.6-6.3 1.5-3.1l.4 1.3.3-.8c.2-.4.3-.8.3-.9s.1-.4.3-.7c.2-.3.3-.9.4-1.4s.3-1.5.5-2.2c.5-1.7.5-2.9.1-4.1-.2-.5-.4-2.5-.5-4.3-.1-2-.5-5.1-.9-7.6-1.4-8.5-1.9-11.5-2.4-13.6-.3-1.2-.5-2.5-.6-3s-.2-1.2-.3-1.6c-.3-1.2-1.2-7.5-1.5-10.2-.1-.9-.2-1.8-.6-4.5-.2-1.3-.3-4.4-.5-10.9-.1-3.6-.3-7-.3-7.6-.2-1.8-.1-13.5 0-14.3.1-.4.2-2.4.2-4.5s.2-4.7.3-5.9c.1-1.1.2-2.7.3-3.4l.1-1.4-.4 1c-.4 1.1-1.6 5.8-1.6 6.9 0 .4-.1.7-.2.7-.7.4.5-6.8 1.5-9.6.8-2.2.9-3.3.2-5.2-1.3-3.6-1.5-4.2-1.5-4.6 0-.2-.1-.4-.2-.4s-.1-.1 0-.1c.1-.1.3.1.6.4l.5.6v-2.4c0-1.3.1-2.5.2-2.6.2-.3.2-.5.4-1.4 0-.3.3-.8.5-1.2.4-.7.5-.6.2.2-.4 1-.7 5.6-.4 6.2.1.3.3-1.3.2-2.1-.1-.9.8-2.3 2.2-3.5 1-.9 1-.8-.1.9-.5.7-.7 1.3-.7 1.6.1.4.2.2.6-.7.5-1.1 1.4-2.1 1-1.2-.8 2-1.5 5.7-1.4 7.2l.1.9 1.1-2.6c1.6-3.9 3-6.5 4.5-8.3 1.1-1.3 3-4.7 3-5.3-.7.2-1.5.5-2 1m-49.6 3.7c-.9.8-1.6 2.3-1.4 2.7 0 .1.8 0 1.7-.1 1.7-.2 2.9-.1 3.9.4.6.3 1.8.7 1.9.6.3-.3-3.2-4.1-3.9-4.3-.3-.1-.7-.1-.9-.2-.2 0-.7.3-1.3.9m10 2c-.5.3-.4 1.1.2 1.7 2.1 2 2.7 2.4 2.5 1.9-.1-.2-.3-1-.5-1.8-.5-1.9-1.2-2.4-2.2-1.8m3 1c0 1.5 1.2 4.3 1.8 3.9.3-.2-.9-3.9-1.4-4.2-.4-.2-.4-.1-.4.3m2.2.6c-.2.9.9 4.4 1.7 5.3 1.8 2 5 2.6 4.3.8-1.5-4.3-5.4-8.3-6-6.1m14.4 2.3c.1.3.2.6.3.5s-.2-1.1-.3-1.1-.1.2 0 .6m18.7.9c0 .1.1.6.3 1.1.4 1.1 1.1 4.3.9 4.1-.1-.1-.5-.9-.9-1.8-1-2.2-1.1-2.3-1-.7.1 1 .3 1.7.8 2.8.7 1.4 1 3 .7 3-.1 0-.3-.4-.6-1-.6-1.2-1.3-2-1.1-1.2.1.3.2.8.2 1.2.1.4.2 1.3.4 2 .8 3.3.3 10.3-.8 12.1-.4.6-.4 1.2.1 1.2.2 0 .5-.2.5-.3.1-.2.3-.6.6-1 3-4.3 4-10 2.8-14.9-.8-3.3-1.5-5.5-1.7-5.6-.1 0-.4-.3-.7-.6-.3-.4-.5-.6-.5-.4m-33.6 2.4c0 .9 1.8 2.5 2.8 2.5.3 0 1.1.2 1.7.5 1.9.8.9-.4-1.5-1.7-.8-.4-1.6-1-2-1.2-.7-.6-1-.6-1-.1m-59 2c.1 1.2.2 1.4.4 1.2.1-.1 0-.6-.2-1.3l-.3-1.1.1 1.2m71 1.7c.3 1.1.3 1.1-.4.1-.4-.6-.6-1.1-.6-1.9l-.1-1.1.4 1c.3.6.6 1.4.7 1.9m38-1.6c-.2.6-.2.8 0 .8.3 0 .4-.4.2-.9-.1-.3-.1-.3-.2.1m-214.3.3c-.1 0-.9.2-1.8.4-2.2.5-4.2 1.5-5.7 3-1.4 1.4-.6 1.7 1.6.7 3.5-1.6 11.2-1.5 11.2.2 0 .3.1.5.2.5s.6.6 1 1.4c1.4 2.3 1.2 4.9-.7 7-.8.9-.9.9-4.2 1.6-3.6.7-4.6 2-3.8 4.8.5 1.5.8 1.9 1.5 1.8.5-.1.7 0 1.2.3.8.7 3.7 1.6 4.6 1.4.2 0 .6-.1.9-.2.9-.2 2.4-1.6 3.5-3.1.6-.8 1.1-1.4 1.1-1.4.1.1-1.3 3.1-1.9 3.8-1.2 1.6.5.3 1.9-1.4 1.8-2.2 2.5-4.1 2.7-7.3l.1-1.7.2.8c1.1 3.7-.6 8.3-4.3 11.9-.9.8-.9.9.3.3 1.4-.6 3.1-2.2 4.1-3.5 1.1-1.6 1.3-1.4.4.4-.5 1-.5 1 .2.7 3.8-1.9 4.5-10 1.3-14.6-.5-.7-1.2-1.8-1.5-2.3-2.2-3.8-5.8-5.5-11.3-5.5-1.4-.1-2.7 0-2.8 0m166.1.7c0 .1.3.5.7.9s1.5 1.8 2.6 3c1.9 2.3 2.4 2.7 2.9 2.5.7-.3 0-3.1-1-4-1.2-1.1-5.2-3-5.2-2.4m20 2.3c1.6 2.1 1.7 2.5 1.2 5.2-.1.7-.3 2.8-.4 4.6-.1 1.8-.2 4.2-.3 5.4-.2 2.5-.3 5.2-.1 10.2l.1 3.8-.5-2.1c-.4-2-.7-7.1-.8-13.8 0-1-.1-1.7-.2-1.7-.1.1-.1-.9 0-2.4.4-7.9.4-8.9-.2-10.5-.2-.4 0-.2 1.2 1.3m28.2 0c0 .2.1.4.2.4.2 0 .4-.5.3-.7-.3-.2-.5 0-.5.3m-204.3 5.4c1.3 4-.2 7.7-4.2 10.1-2.3 1.4-3.8 1.4-4.7.1-1-1.4.2-2.2 3.2-2.5 2.3-.2 2.6-.4 3.7-1.9 1.2-1.6 1.7-4.5 1.1-6.8-.3-1.1-.2-1.2.2-.7.2.3.5 1.1.7 1.7m83.3-1.3c-2.9 1.4-7.8 4.2-9.4 5.4-2.6 1.9-4.6 3.3-7.9 5.5-1.7 1.1-3.9 2.6-4.8 3.3-.9.7-2.4 1.6-3.3 2.1-.9.5-2.2 1.2-2.9 1.6-.7.4-2.1 1.3-3.2 1.9-1.9 1.1-5.1 3.1-8.6 5.3-.9.6-3.3 1.9-5.4 2.9-2 1-4.3 2.2-5.1 2.6-.8.4-2.2 1.2-3.1 1.7-1 .5-1.9 1-2.1 1.1-4 2.1-6.7 3.1-10.1 3.4-.8.1-1.9.3-2.6.4-1.9.4-4.9.8-6.7.8-1.8 0-1.9.1-1.9.7 0 .7-.8 2.2-1.4 2.8-.3.2-.5.4-.5.4s.1-.5.3-1.1c.6-2.2.3-3.4-.5-1.9-.6 1.1-2 2.5-3.2 3.1-1.1.6-1.3.4-.4-.4.3-.3.6-.6.6-.7s.1-.2.2-.2c.2 0 1.2-3.1 1.2-3.8 0-1.7-3.8-3.1-5.8-2.2-.5.3-1.5.6-2 .7-.6.1-1.3.3-1.5.3-.8.2-.5-.2.6-.7 1.6-.8 3.9-2.4 2.6-1.9-2.6 1-6.2 1.5-8 1-1.7-.5-1.6-.6.4-.6 3.1 0 9.6-2.8 9.6-4.2 0-.3-1.1-.4-2.6-.3-2.3.2-6.7-1.1-6.3-1.8.1-.1.2-.1.3 0 .3.2.4.2 1.9.4l1.1.1-.7-.7-.7-.7.8.3c2.1.9 7.8.4 9.8-.8 2.2-1.4 5-4.2 3.7-3.7-2.8 1.1-6.6 1.6-8.6 1.1-1.3-.4-1.2-.5.6-.5 2.2 0 6.5-1.5 7.7-2.6.9-.8 1.1-2.5.5-3.3l-.3-.4-1.2.8c-2.2 1.5-3.5 2-5.5 2.3-.6.1-1.3.3-1.6.4-2.3 1.2-8.8-1.2-10.3-3.7-.6-1-.7-1-1.3-.2-1.7 2.2-.5 4.4 3.7 7.2 2.3 1.5 2.6 1.8 1.8 1.6-.2-.1-.6-.2-.9-.2-2-.4-4.2-1.7-5.4-3.3-1.1-1.3-1.3-1.2-2.3.3-1.3 2.1-1.1 3.6.9 5.4.8.7 1.2 1 2.8 1.5 1 .4.6.6-.8.5-1.2-.1-2.6-.7-3.6-1.5-.7-.6-.9-.5-1.5.7-.8 1.6-.4 3.9 1.2 6.3.7 1.1.8 1.3.7 1.9-.1.5 0 .8.2 1.1.2.3.7 2.3.7 3.2 0 .1.4.6.9 1.1 2 2.2 6.9 1.8 9.4-.7 1.4-1.4 1.5-1.5.3-1-1.9.8-4.8 1.2-6.1.7l-.8-.3h.9c.8 0 3.4-.7 5.1-1.5.4-.2 1.2-.7 1.7-1.2 2.5-2.1 3.2.4 1.2 4.7-1 2.3-.6 2.1 1.7-.7.3-.3.3-.3.1.1-.1.2-.2.4-.1.4.2 0-.7 1.6-1.5 2.7-.4.6-.8 1.3-1 1.7-.1.3-.6 1-.9 1.6-1 1.5-.8 1.7 1.3 1.5.9-.1 1.9-.2 2.1-.2.6-.2-.6.8-1.7 1.3-1.3.6-1.2.7.4.7 2.7 0 4.6-.9 7.8-3.9l.9-.8-.8.1c-.4.1-1.2.3-1.8.6l-1 .5.7-.6c1.3-1.1 4.7-2.4 6.9-2.6.7-.1 1.4-.2 1.7-.2 1.6-.3 4.9-.3 5.3-.1.7.4 4.5-1.3 9.2-3.9 2.8-1.6 7.7-3.3 10.6-3.8.4-.1.8-.2 1-.2.2-.1.3 0 .3.1s-.1.2-.1.1c-.1-.1-.2 0-.3 0-.1.1-.8.3-1.5.5a28 28 0 0 0-5.8 2.3c-.2.1-.7.4-1.1.6s-1.7 1-2.8 1.7c-2.5 1.6-6.4 3.7-7.8 4.2-1 .4-1.6.5-5 1-3.7.6-6.3 1.4-7.6 2.5l-.5.4 1-.1c.5-.1 1.7-.1 2.5-.2 2.3-.2 6.5-1.1 7.5-1.6.2-.1.4-.2.4-.1s.1 0 .2-.1c.4-.3 1.5-.6 1.5-.4 0 .1-.5.4-1 .5-.1 0-1.1.5-2.3 1.1-3.5 1.7-5 2.2-8.2 2.5-1 .1-2.2.3-2.5.4l-.7.2 1.3.1c5.1.5 8.8-.2 13.8-2.8 2.1-1 4.3-2.1 6.5-3 1-.4 2-.9 2.1-1 .3-.3 1.2-.7 4.6-2.2 1.2-.5 3.4-1.6 5-2.4 11.8-6 15-7.4 20.3-9l4.3-1.3c4.3-1.3 10.1-2.4 11.7-2.2 1.6.2 1.6.2 1.1-.5l-.4-.6.6.1c1 .2 3 2.9 3 3.9s1.4.2 1.9-1.1c.4-.9.5-3.1.1-4.5l-.3-1.1.6.7c.3.4.6.8.6.9 0 .5.7.9 1.4.7.5-.1.8 0 1.2.3l.6.4.5-.6c.5-.6.5-.6.3-.1-.3.9-.4 5.1-.1 5.1.1 0 .2-.1.2-.3 0-.4 1.3-1.6 2.5-2.5.5-.3 1.3-.9 1.7-1.3.9-.7 1-.4.2.5-.2.2-.4.5-.4.6s-.1.3-.3.4c-.5.4-.4.5 1 1.2.7.4 1.8 1 2.3 1.4 3.3 2.5 4.9 3.5 5.1 3.2.2-.2.9-1.8.9-2 0-.1.1-.3.2-.3.3 0 .8 1.8.8 2.9 0 1.6.5 1.3 1.5-.7.9-1.8 1.1-2 1.1-.8 0 .9-.1.9 1.8.4l5-1.3c4.2-1 4-.9 7.1-3.3 2.2-1.7 3.9-2.8 6-4 .5-.3.8-.5.8-.6-.1-.1-1.6.6-3.7 1.7-2.9 1.6-8.1 2.8-13.2 3.1-1.6.1-3.5.2-4.3.3l-1.3.1-1.4-1c-.8-.5-1.8-1.3-2.2-1.7l-1.7-1.7c-.5-.5-1.2-1.3-1.5-1.8-.5-.9-1.5-1.5-2.2-1.5-.2 0-.5-.1-.7-.2-.3-.1-.6-.1-1.3.1-1 .3-1.3.3-.8-.3s2-1.2 2.7-1.2c1.1 0 1-.3-.1-.7-1.3-.4-3-.2-4.5.7-1.2.7-.4 0 1-1 .8-.5 1.4-1 1.4-1.2 0-1.2 7.2-9.5 11.1-12.8.9-.8 1.5-1.4 1.4-1.5-.6-.2-6.4 4.2-10.5 8l-2.2 2c-.2.1-.4.3-.5.5s-.3.3-.3.2c-.2-.2 9.3-9.7 10.9-10.9.8-.6 1.3-1.1 1.1-1.2-.4-.4-2.5-.4-3.2-.1-1.7.9-8.1 5.5-12 8.7-.8.6-3.1 2.2-4.1 2.7-2.9 1.6-4.2 2.6-3.5 2.9.4.2 1.5 1.8 1.5 2.3 0 .3-.1.3-.8-.3-1.3-1.2-2.5-1.5-3.2-1-.4.3-.4.3 0 .5 1.2.7 2.5 2.5 2.3 3.2-.1.5-.1.5-1.3-.6-2.1-1.8-5-2-8.7-.4-1.2.5-3.5 1.4-4.9 1.9-2.3.8-3.8 1.4-5.9 2.3a153.84 153.84 0 0 1-9.7 3.9c-1.6.6-4.7 1.5-6.7 1.9-1 .2-2.9.7-4.1 1-2.7.7-2.9.6-1-.3.8-.4 1.6-.8 1.7-1 .2-.2 1.3-.7 2.5-1.3 1.2-.6 2.4-1.3 2.8-1.6.4-.3 1.6-1.1 2.8-1.7 1.2-.6 4.4-2.3 7.1-3.9 2.7-1.5 5.7-3.2 6.6-3.7 1-.5 2.3-1.3 2.9-1.7.6-.4 1.3-.7 1.4-.7.1 0 .3-.1.3-.1 0-.1.4-.3.7-.5l.7-.3-.8.7c-.4.4-1.5 1.3-2.5 2.1-1.8 1.4-1.8 1.5-1.2 2.5 0 0 .8-.3 1.7-.8s2.4-1.1 3.4-1.5 2.3-.9 2.9-1.2c.6-.3 1.5-.7 2-.9 2.1-.9 2.7-1.2 2.5-1-.5.5-4.9 3.1-6.8 4.1-2.3 1.2-6.6 3.6-6.3 3.6.1 0 1.1-.5 2.3-1 1.2-.5 2.7-1.2 3.3-1.5 1.6-.7 3.4-1.5 4.3-1.8.4-.1 1-.4 1.4-.6.3-.2 1.4-.6 2.5-1 2.2-.7 4.2-2.1 11.6-7.9 1.1-.9 2.6-2 3.2-2.4.7-.5 2-1.4 2.9-2.1 3.3-2.5 3.8-2.9 4.2-3 .4-.2.4-.5 0-.7-.4-.1-.4-.1-4 2-.8.5-1.4.8-1.5.8s-.3.1-.4.3c-.3.3-.7.4-.6.1.1-.1 1.2-.9 2.5-1.9 2-1.5 2.7-2.2 2.2-2.2-.3 0-5.9 3-7.3 4-6.6 4.2-6.4 4.1-6.4 3.9 0-.1.3-.4.8-.7.4-.3.8-.5.8-.6s.5-.5 1.2-1.1c1.2-.9 1.2-.9.7-1.1-.3-.1-.6-.3-.8-.6-.4-.5-.3-.5-3.2 1.3-2.1 1.3-5.8 3.5-7.8 4.5-.9.5-1.9 1.1-2.3 1.4-.4.3-.6.4-.5.3s.7-.6 1.3-1.1c.7-.5 1.4-1 1.7-1.3.3-.2 1.4-1 2.4-1.7s1.9-1.3 2-1.4.8-.6 1.6-1.2c3.6-2.5 5.2-3.6 6-4 4.5-1.2 5.6-2.8 1.8-1m26.6 5.1c.3 1.1.4 1.2.5 1.2.2 0 .2-.1-.1-.9-.3-.7-.6-.9-.4-.3m113.7 1.9c-.4.4-.8.9-1.1 1.1-.2.2-.4.6-.4.8.2.8.4 1.6.7 2 .2.2.3.5.3.6 0 .3.6 1.5.7 1.6s.8 1.3 1.8 3.2c.2.3.4.6.4.7.1.1.3.4.6.9.3.4.8 1.1 1.2 1.5.4.4.9 1.1 1.1 1.5.5.9 1.5 1.5 2.2 1.3.2-.1.8-.2 1.2-.3.7-.2 2.5-.2 4.7.1.6.1 1.3.1 1.5.1s1 .1 1.7.2 1.6.3 2.1.3c.4 0 1.2.1 1.6.2.5.1.9.2 1 .2h.3c.2.1.2.1 1.1.3 1.4.3 4.1 1.9 5.8 3.3.1.1.5.4.9.7 1.1.9 2.5 2.7 2.5 3.3 0 .1.3 1 .7 2 .4 1 .7 2.1.8 2.3.6 3.1.7 7.4.2 9.2-.4 1.3-2.6 5.3-3.2 5.8-.1.1-.5.5-.9 1.1-1.1 1.4-5.4 5.7-7.1 7.1-.8.7-1.5 1.3-1.6 1.5-.1.1-.2.3-.3.3-.1 0-.4.2-.7.5-.3.3-1 .9-1.5 1.4-1.2 1.1-4.7 4-5.3 4.4-.3.2-.6.4-.8.6-.4.3-2.6 1.7-2.7 1.6 0-.1-.4.2-.9.5s-1.1.7-1.4.8c-.7.3-2.1 1.2-3.1 1.9-.5.4-1 .7-1.1.7s-.3.2-.5.4-.4.4-.6.4c-.6 0-1.5 1.1-1.3 1.6.1.3.3.5.4.4s.3 0 .5.2.5.3.7.3.3.1.3.2.1.2.2.2c.7 0 3.5 3 3.5 3.7 0 .1.2.3.4.5 1.3 1.2 2.3 6.6 1.4 7.7-.1.1-.2.3-.1.3.3 0-1.3 3.6-2.5 5.3-.8 1.2-3.8 4.3-5.3 5.4-1.4 1.1-1.2 1.7.4 1 1.1-.5 1.7-.6 3-.6.8 0 1.6 0 1.8.1.2 0 .6.1 1.1.2.4.1.8.2.9.3.1.1.8.2 1.6.3 1.6.1 1.8.1 3.1.5.7.2 3.1 2 2.7 2-.1 0 0 .2.2.4 1.7 2.7-.1 6.4-6.2 12.5-1.3 1.3-4.8 4.2-5.1 4.2-.1 0-.3.2-.5.4s-.5.4-.6.4-.3.1-.5.3c-.6.7-6.1 3.3-8 3.7-.2 0-.8.3-1.5.5-.6.2-1.3.5-1.6.5-2.3.4-2.6.6-3 1.6-.6 1.6-.8 2.3-1.5 3.6-.3.6-.6 1.2-.7 1.3-.1.1-.2.2-.1.3 0 .1 0 .4-.1.6s-.1.4-.2.5c0 .1-.2.5-.4 1-.8 1.6-1.2 2.7-1.3 3.1 0 .3-.2 1-.4 1.6-.2.6-.4 1.7-.4 2.3s-.1 1.4-.2 1.6c-.1.3 0 .4.2.4.3 0 .5-.6.5-1.6 0-1.4.8-4.5 1.5-5.9 1.1-2.2 5.3-6.1 6.5-6.1.1 0 .3-.1.5-.2.4-.2.9-.4 1.7-.5.2 0 .7-.1 1.1-.2s.9-.2 1.2-.2c.3 0 .7-.1 1-.2s1.3-.1 2.3-.2c1.8 0 2.5-.4 2.6-1.1.1-2.1 8.9-9.9 11.2-9.9.1 0 .3-.1.4-.2 1-.8 6.7-1.4 9.1-.9 1.6.3 2.5.6 2.6.7s.3.2.5.2c.3 0 3.7 1.3 5.5 2 .3.1.7.3.9.3 1 .3 2.9 1.2 3 1.4.1.1.3.2.5.3 2.4 1.5 3.1 1.9 3.2 2 0 .1.1.2.3.2.4 0 3.4 2.5 4.8 3.9 1.1 1.1 1.5 1.4 1.6 1.2.2-.2.2-.2 0-.2-.1 0-.2-.1-.2-.2s-.1-.3-.3-.5c-.2-.2-.9-1.1-1.6-2-3.3-4.3-6.7-8-10-11-1.3-1.2-1.6-1.3-3-1.1-2 .3-5.6-.1-5.6-.5 0-.1-.1-.1-.2-.1-.8.5-4.1-2.2-4.4-3.6 0-.1-.1-.3-.2-.6-.2-.7-.3-2.3-.1-2.3.1 0 .1-.2 0-.5 0-.3 0-.5.1-.6s.2-.3.2-.4c0-.5 1.2-2.3 2.3-3.4 1.9-2 1.8-4.1-.2-3.4-.4.2-1 .3-1.2.4-.2 0-.7.1-1 .2-3.5.7-7.7-.1-9.1-1.8-2.6-3-1.5-6.5 2.6-8.6l1-.5c.7-.4 2-.8 2.6-.9.1 0 .3-.4.4-.8.2-.8 0-1.1-.8-1.1-4.3-.1-7.6-8.1-5.1-12.5.2-.4.4-.7.4-.9 0-.8 4-4.9 5.9-6.2 1.2-.8 3.2-1.9 3.5-1.9.1 0 .3-.1.5-.2.4-.2 1.7-.6 2.8-.8.7-.1.8-.2 1.8-.4.5-.1 1.1-.3 1.3-.3 2.1-.4 2.3-.5 3.1-.6.4-.1 1.4-.2 2.2-.4.8-.1 1.6-.3 1.8-.3.2 0 1.2-.1 2.3-.1 3.6-.2 12.7-.1 12.7.1 0 .1.1.1.3 0 1.2-.5 6.1 1.5 7.7 3 .2.2.5.4.8.6 1 .6 2.7 2.2 2.7 2.5 0 .1.2.3.4.5s.6.9.9 1.5.7 1.3.8 1.6c.2.3.2.6.2.7-.1.1 0 .2.1.3.5.3.8 4.4.5 7s-.3 3.2-.4 4.1c-.1.5-.1 1.4-.2 1.9-.2 2-.3 3.1-.6 4.6-.2.9-.2 1.7-.2 1.8.1.1 0 .2-.1.2s-.2.2-.1.3c.1.2-.1 1.1-.3 2-.2.9-.4 1.8-.5 2.1-.3 1.3-.5 2.2-.7 2.5-.1.2-.3.7-.4 1.2-.5 1.7-2.2 5.8-3.1 7.6-.8 1.5-.6 1.9.3.8.3-.3.5-.4.5-.4 0 .1.5-.3 1-.7.9-.7 2.8-2.1 4.6-3.2.7-.4 3-1.6 3-1.5s.3-.1.6-.2c1.2-.6 1.3-.7 1.5-.6.1.1.2 0 .3-.1.2-.4 4.7-2.4 4.9-2.2.1.1.2 0 .3-.1.1-.1.8-.3 1.4-.5 1.7-.4 1.7-.4 2.6-.7 1.2-.3 8.5-.3 8.9 0 .2.1.3.2.3.1s.3 0 .8.2c.4.1.8.2.9.2.1-.1.1 0 .1.1s.1.2.3.2c.2 0 .4.1.6.2s.5.2.6.3c.5.2 2.9 1.8 4.6 3.1 1.4 1.1 2.2 2 3 3.6.5 1 1.1 1.8 1.4 1.8.1 0-.2-.7-.3-.9-.1-.1-.1-.3 0-.3.1-.1 0-.3-.1-.4-.1-.2-.3-.5-.3-.8-.1-.7-.2-.8-.4-1.8-.1-.5-.2-.9-.1-1s0-.2-.1-.3c-.1-.1-.2-.7-.3-1.2-.1-.5-.2-1.1-.2-1.3-.1-.3-.2-.9-.6-4.6-.2-1.5-.2-5.5 0-7.1.1-.6.2-1.5.2-2s.1-1 .2-1.1 0-.2-.1-.3c-.1-.1-.3 0-.3.2-.3.7-5.6 5.4-6.1 5.4-.1 0-.3.2-.5.4s-.4.4-.5.4-.5.3-1.1.6c-.5.4-1 .7-1.1.7s-.5.2-1 .4c-2.5 1.1-3 1.2-6.7 1.3-3.6.1-7.5-.6-7.5-1.3 0-.1-.1-.2-.3-.2-.7 0-2.5-2.6-3.2-4.7-.1-.4-.3-.8-.4-.9-.2-.3-.2-.4-.9-3.3-.7-3.1-.7-8.1-.1-9.3.1-.2.2-.5.2-.5-.1-.3 1-4 1.2-4.2.1-.1.2-.4.2-.6 0-.4.7-2.4 1-2.7.1-.1.3-.5.4-.9.5-1.3 2.9-6.2 3.4-6.7.1-.1.5-.8 1-1.5.9-1.4 1.8-2.7 2.2-3 .5-.4 1.5-1.8 1.5-2 0-.1-.5.1-1.1.4s-1.1.5-1.1.5-.2 0-.5.2-.5.3-.5.2-.4.1-.8.5c-.9.6-3.2 1.8-3.3 1.7 0 0-.3.1-.5.3-.3.2-.7.4-1.1.5-.3.1-.6.2-.7.2s-.5.2-1 .3c-1.2.4-1.3.4-4.2.4-2.6 0-3 0-4.4-.5-.5-.2-1-.3-1.1-.3s-.3-.1-.4-.2-.2-.1-.2 0c0 .2-4.1-1.5-4.5-1.8-.2-.2-1.4-1-1.5-1-.5 0-2.8-3-3.1-4.1-.5-2.1-.6-3-.6-5.2.1-3.8.4-5.1 2.5-9.4a36 36 0 0 0 1.3-2.9c.1-.4.5-1.1.7-1.7.3-.6.5-1.1.5-1.2s.1-.2.2-.2.2-.1.2-.2c0-.3 2.2-3.4 2.8-3.9.2-.2 1.2-1.6 2.2-3.1 2.5-3.8 3-4.6 3.7-5.3.6-.6.8-1.2.2-.8-.2.1-.3.2-.3.1s-.2 0-.4.1c-.4.2-1.1.5-1.7.5-.1 0-.3.1-.5.2s-.4.2-.5.2-.5.1-1 .3c-.5.1-1 .3-1.2.3s-.9.3-1.7.5-1.5.5-1.6.5-.2.1-.3.1c-.1 0-.7.2-1.2.4-.6.2-1.1.4-1.3.4-.8.2-1.5.4-1.9.7-.2.2-.4.2-.4.1s-.1 0-.3.1c-.1.1-.9.3-1.6.3s-1.7.2-2.1.3c-.4.1-1.1.2-1.6.3-.4.1-1.1.2-1.6.3-.4.1-1.2.2-1.7.3-.5.1-1.1.2-1.3.2-1.9.4-3.8.5-7.1.5-3.6 0-3.4 0-4.6-.2-.5-.1-1.5-.2-2.1-.3-.6-.1-1.3-.1-1.6-.2-.3-.1-.8-.1-1.1-.2-1.6-.2-3.7-.8-3.8-.9 0-.1-.2-.2-.3-.2-.1 0-.7-.2-1.3-.5-.6-.3-1.1-.5-1.2-.5s-.2-.1-.2-.1c0-.1-.7-.5-1.5-.8-.8-.4-1.5-.7-1.5-.8s-.1-.1-.2-.1-.4-.1-.5-.3c-.2-.1-.8-.6-1.5-.9-.6-.4-1.3-.8-1.5-.9-.2-.2-1-.8-1.9-1.4-2.2-1.6-5.6-5.6-5.6-6.4-.4-.7-.8-.5-1.4.2m-59.7.2c0 .1.1.3.3.5.3.4.3.4.2-.1-.2-.3-.5-.7-.5-.4m-35.5 1.9c0 .3.4.8 2.7 4 1.1 1.5 2.5 3.8 3.5 5.5.9 1.6 1.8 3.3 2.1 3.8.3.4.5.9.5 1 0 .5.3-.2.5-.9.1-.6 0-.9-.3-1.4-.4-.5-1-1.8-1-2 0 0 .3.2.6.6.7.8.8.7 1.5-1.5 1.6-5-1-8.1-7.3-8.6-.7-.1-1.6-.2-2-.4-.6-.3-.8-.3-.8-.1m34.7 1.1c0 .3-.6.4-.8.2-.1-.2 0-.3.2-.4.4-.2.6-.1.6.2m15.2 1.3c0 .2-.1 0-.1-.3s0-.5.1-.3v.6m-43.6-.1c.4.3.4 1.4 0 1.4s-2.1-1.3-2.1-1.6c.1-.3 1.7-.2 2.1.2m27.7.6c.2.6-.2 1.2-.7 1.1-.4-.1-.7-.7-.4-1.2.1-.5 1-.4 1.1.1m-24.7 1.8c.1.5 0 .5-.5.5-.4-.1-.6-.2-.6-.6-.1-.5 0-.5.5-.5.4 0 .5.1.6.6m-31.6.9c-1.8 1.9-5.2 7.4-5.2 8.3 0 .1-.1.2-.2.2s-.1.1-.1.3c.1.2 0 .3-.1.4-.5.3.2-2.7 1.1-5.1.7-1.7.6-1.8-.7-.3-2.1 2.4-3.9 7.9-2.7 8.4.2.1.3.4.3.8 0 1.2 1.1 1.5 3.6 1 .7-.1 1.2-.2 1.2-.3 0 0-.1-.4-.4-1-.5-1.1-.5-2.5-.1-3.9.5-1.7.8-1.7.8-.1 0 2.3 2.1 4.1 4.6 3.8 1.1-.1 1.5-.3 1-.5-3.2-1.1-4.3-7.3-2.2-12.1.6-1.4.4-1.3-.9.1m-8.2-.1l-.7.7.7-.7c.7-.6.9-.7.7-.7 0 0-.4.3-.7.7m66.1-.4c.2.2-.1.7-.4.7-.3 0-.5-.3-.4-.6.2-.2.6-.3.8-.1m-27.1 1.9c.9.7 1 1 .5 1.3-.4.2-.5.1-1.8-1.7l-.5-.7.5.2c.3.2.8.6 1.3.9m9.9-.7c-.1.1-.1.3-.1.5 0 .4 0 .4.2-.1.2-.4.2-.6-.1-.4m15.1.6c0 .3 0 .4-.2.4-.4 0-.6-.3-.4-.7.1-.4.5-.2.6.3m.3 2.6c-.1.1-.3.2-.5.2s-.5.1-.6.3c-.3.4-.8.3-1-.3-.1-.5.1-.6.7-.5.3.1.5 0 .7-.2.4-.4 1 .1.7.5m-.6 1.2c0 .1-.1.2-.3.2s-.3-.1-.3-.2.1-.2.3-.2c.1 0 .3.1.3.2m-1.4 1.4c-.3.3-.6-.1-.4-.4.2-.2.3-.2.4 0 .1.1.1.3 0 .4m-29.4.2c-.2.3-.9 1.6-2 3.6-.5.9-1 1.7-1.2 1.8-1.7 1.2-4.2 8.6-6 17.7-.4 1.8-.7 8.9-.5 9.5s-1.5 5.1-3.6 9.5c-1.1 2.4-1.5 4.8-1.5 10.6 0 3 .1 3 2.4-.6 2.2-3.2 5.7-7.7 7.5-9.7 1.7-1.8 2-2.3 1-1.4-.5.4-1.5 1.2-2.2 1.8-.7.6-1.4 1.2-1.6 1.4-1.1 1.1-.2-.2 1.2-1.7 1.5-1.7 4.3-5.6 4.2-5.8-.1-.1-.5.3-3.4 3-1.3 1.2-2.2 2-2 1.8 1.4-2.4 1.6-3 .3-1.4-.2.3-.5.6-.7.8-.2.2-.3.4-.3.5s-.1.3-.3.3c-.6.2-.4-.1 1.9-3.4.9-1.3 1.7-2.6 1.7-2.7s.1-.3.2-.3c.8-.3 3.1-7.3 3.4-10.6.1-.9-.2-.9-.4 0-.1.3-.5 1.7-.8 2.4-.1.3-.4 1-.6 1.5-.3.8-.9 1.4-.6.6 1.2-3.7 2.6-13.1 2.2-14.2-.1-.1-.1 0-.1.2a98 98 0 0 1-1.8 7.4c-.1.3-.5 1.1-.8 1.8-.3.7-.7 1.6-.8 2-.5 1.6-.6.6-.5-3.7.1-2.3.2-4.5.2-4.8.2-1.5.3-2.9.1-2.6-.3.4-1.7 5.4-1.9 6.4s-.4 1.9-.6 1.7c-.5-.5 1.1-8 2.5-12.3 1.5-4.3 1.5-4.3 4.3-8.8 1.2-1.9 1.6-2.7 1.2-2.7.1.1 0 .2-.1.4m28.8 1.1c-.3.3-.5.1-.4-.4.1-.3.2-.3.4-.1.2.3.2.4 0 .5m-1.6.3c.4.4-.3 1-.7.6s-.4-.7.1-.8c.2 0 .4-.1.4-.1s.1.1.2.3m116.9 1.2c1.2 1.4-.3 3.6-2 2.9-1-.4-1.2-2.1-.3-2.9.5-.4 1.9-.4 2.3 0m-116.9.3c.2.3-.2.7-.5.5-.2-.1-.1-.7.2-.7.1 0 .2.1.3.2m109.7.9c1.1.4 1.5 1.7 1 3-.7 1.7-3.5 1.8-4.4.3-.4-.7-.5-2.1-.2-2.1.1 0 .2-.1.2-.3 0-.9 1.9-1.4 3.4-.9m-245 7.2c-.2 0-.4.2-.4.3 0 .1.3.1.6 0 .5-.2.8-.4.4-.3-.1-.1-.3 0-.6 0m134.2.7c0 .2-.1.4-.3.4s-.3 0-.3-.1c0 0-.1-.2-.1-.4-.1-.2 0-.3.3-.3.2 0 .4.1.4.4m16.2 1.3c-.3 0-.5 0-.6-.1s.1-.1.5-.1c.5.1.5.1.1.2m95 1.2c.3.3.1.9-.4 1.2-.8.4-1.5-.5-.9-1.1.4-.4 1.1-.4 1.3-.1m-110.6 1.7c0 .5-.2.6-.6.4-.5-.3-.5-.8.1-.8.3.1.5.2.5.4m-188.4 1.1c-1 .7-2.4 2.3-2.4 2.6 0 .1.7.3 1.5.4 1.5.2 3.1.7 5.3 1.6.6.3 1.8.6 2.5.8 1.8.5 1.7.8-.1.6-2-.2-2.2-.2-4.2-.7-1.5-.3-3-.6-5.7-.9-.7-.1-1.6.3-1.6.8 0 .2 1.1.5 3.1.8.4.1 1.1.2 1.7.4 6 1.7 9.8 2.7 11.2 2.7.7 0 1.6.1 1.9.2l.6.1-.6.1c-1.4.3-3.5.5-5.9.5h-2.5l1.5.4c3.8 1 14.7.2 17-1.2.7-.4-.1-.6-1.1-.3-.5.2-1 .3-1.2.3-.4 0-.4-.3.1-.5.4-.1 2.6-2.3 2.6-2.5 0-.1-.3.1-.6.3-1.5 1-3.5 1.6-4.2 1.4-.4-.1-.4-.1 0-.3.5-.2 2-1.1 2-1.3 0-.1-1.1-.1-2.5-.1-3.3 0-4.8-.9-6.7-4.2-.4-.7-.9-1.3-1.2-1.4-1-.4-4.2-1-5.9-1.1-.9-.1-2.1-.2-2.6-.2-1 0-1.1.1-2 .7m100 1c-4.4.7-6 .9-8.1 1.4-2.6.5-5.5 1.3-7.5 1.9-.7.2-1.5.4-1.7.5-.2 0-.8.2-1.3.4s-1.9.6-3.1 1c-4.6 1.4-7.2 2.6-11.8 5.1-2.8 1.5-4.4 2.4-5.5 2.7-.1 0-.2.1-.4.1-.2.1-.7.2-1.1.3-.5.1-1 .3-1.2.3-.2.1-.3 0-.2-.1.1-.1.5-.4 1.1-.6a38.96 38.96 0 0 0 5.4-2.7c.3-.1.6-.4.8-.5.2-.1.9-.5 1.6-.9s2.1-1.1 3.1-1.7c1.9-1 4.3-2.1 7.2-3.3.9-.4 1.8-.8 2.1-.9.4-.2 3.4-1.3 6.2-2.3 2.2-.7 1.2-.7-2.5.1-5.4 1.1-12.7 4-15.8 6.2-.1.1-.4.2-.6.3l-.4.1.4-.4c.5-.4 2.2-1.7 2.6-1.8.2-.1.2-.1-.1-.1-.9 0-6.3 2.5-8.6 4.1-2.6 1.8-2.9 2.2-1.6 1.8.9-.3.9.1 0 .5-2.4 1-5 2.5-6.6 3.6-5.3 4-11.8 6.9-18 8.1-1.7.3-3.4.9-5.3 1.9-1.7.8-3 1.7-2.6 1.8.2 0 .5 0 .7.1s.9.1 1.6.1c2.3 0 1.2.5-2.6 1.1-3.2.5-2.9.6 1.8.6 4.5 0 6.9-.2 7.1-.5.1-.1.5-.2 1.1-.3.9-.1 3.7-1.6 4-2 .1-.1-.5-.1-1.6-.1-1.9.1-2.1.1-5.7.1-2.3 0-2.9-.2-1.7-.3.3-.1.8-.1 1-.2.3-.1.9-.1 1.5-.2 1.5-.1 2.9-.3 3.5-.5.3-.1.8-.2 1.2-.3 3.1-.5 3.7-.6 5.5-1.5 1.1-.5 3-1.6 4.3-2.5 2.3-1.5 6.9-4.2 7.3-4.2.1 0 .5-.2.9-.4 1.2-.6 3-1.2 3.1-1.1s-1 .6-2.3 1.3c-1.8.9-2.9 1.6-4.1 2.6-2.9 2.4-5 4-6.2 4.4-1.1.4-5.3 4.1-5 4.4.2.2 4.4-1.4 5.4-2 .2-.2.4-.2.4-.1s.1 0 .3-.1c.3-.2 2.2-1.2 2.4-1.2.1 0-.2.2-.6.5s-1 .7-1.4 1c-1.4 1-4.2 2.2-6.8 3-1.4.4-3.1 1-3.7 1.2-1.8.6-6 .7-11 .5-2.3-.1-3.1-.1-4.5.2-.9.2-1.9.4-2.2.4-.3.1-.5.2-.5.3 0 .1.1.1.1.1.1 0 .5 0 1 .1 2 .4 5.6.7 8.4.6 3.1-.1 2.1.5-1.8 1.1-1 .1-1.1.4 0 .6.2 0 .7.2 1.1.3 1.3.4 3 .2 5.4-.4 2-.5 2.6-.6 5.2-.6 2.5 0 6-.4 6.5-.7.1 0 .5-.1.9-.2s.9-.2 1-.3c.2-.1.7-.2 1.2-.3l.9-.1-.8.4c-.5.2-1.4.6-2.1.8-1.7.6-1.7.7-.5 1s1.2.3 3.8-.9c2.3-1.1 3.3-1.3 1.7-.4-1.7 1-3.1 1.9-3 1.9 3.2-.1 9.3-2.8 9.7-4.3.2-.9.1-1-.6-.3-.8.6-2.4 1.6-2.4 1.4 0-.1.5-.6 1.2-1.3 1.1-1.1 2.5-3.6 2.2-3.9-.1-.1-.6.3-1.3.7-2.2 1.5-3.4 1.8-1.7.4.6-.5 1.2-1.1 1.4-1.4.2-.3 1.1-1.2 2-2l1.6-1.5-1.7.9c-1 .5-2.7 1.6-3.9 2.4a38.1 38.1 0 0 1-6.5 3.5c-.6.3 1.1-1 3-2.3l4.5-3c1.2-.8 3.2-2.1 4.4-2.8 2.1-1.3 4.4-3.3 4.8-4 .2-.4.4-.5-2.7 1.3-.7.4-1.3.7-1.3.7-.1 0-.9.4-1.8.9-1.5.7-2.6 1-1.3.3.2-.1.5-.3.5-.4.1-.1.5-.4 1.1-.7 2.7-1.5 11.8-7.3 14.9-9.5.7-.5 1.8-1.1 2.5-1.4l4.7-2c4.1-1.7 6-2.3 14.2-4.3 6.9-1.8 8-2.2 3.8-1.6m89 5.4c.3.5 0 .8-.5.6-.5-.2-.4-1.1.1-1.1.1.1.2.3.4.5m108.3 1.2c.3.8.1 1.3-.5 1.4-.7.2-1.2-.4-1.1-1.1.2-1.1 1.3-1.3 1.6-.3m-107.8 2.1c0 .1-.1.1-.3.1-.3 0-.4-.4-.2-.7.2 0 .5.4.5.6m-190.2.3c.2.2 1.5.2 1.7 0 .1-.1-.3-.1-.8-.1s-.9 0-.9.1m291.6 1.2c1 .9-.2 2.8-1.6 2.5-.8-.2-1.1-.6-1.1-1.3 0-1.5 1.7-2.2 2.7-1.2m-294.9.9l-2.6.2c-2.6.1-2.7.2-3.3 1.2-.2.3-.1.4.3.2 2-.5 6.9-.6 12.3-.2 3 .2 3.1.4.2.5-2.6 0-3.9.2-13.2 1.9-.5.1-.6.2-.8.9-.2 1-.3 1 1.1.7.6-.1 2.2-.3 3.6-.3 1.3-.1 2.7-.2 3-.2s1.3-.1 2.2-.2c1-.1 2.4-.2 3.1-.4 1.5-.3 4-.4 4-.1 0 .2-.6.4-2.1.8-.5.1-.8.3-.8.3.3.3 6.2-1.1 10-2.4 1.8-.6 1.7-.6-1.3-1-1-.1-3.3-.6-5-1-3.1-.8-3.2-.8-5.8-.7-1.7.1-2.7 0-2.8-.1-.2-.2-2-.3-2.1-.1m161.4 1.8c-.6 1.3-.8 1.3-.3.1.3-.7.6-1.1.8-1.1 0-.1-.3.4-.5 1m51.8-.4c0 .3-.1.5-.2.5s-.2-.2-.1-.5c0-.3.1-.5.2-.5s.1.2.1.5m-186.4 1c-.3.2-.3.3 0 .3.2 0 .4-.1.5-.2.1-.4-.1-.4-.5-.1m271.4 1.3c.7.6 0 1.9-1 1.9-.8 0-1.1-.3-1.1-1.1 0-1 1.2-1.5 2.1-.8m-273.1.1c-.3.1-.6.3-.8.4s-.5.3-.7.5c-1.7 1.7-4.4 2.9-8.5 4-1.1.3-2.1.7-2.2.8-.5.8-1.5 1.7-2.4 2.5-.6.4-1.4 1.1-1.9 1.5-.4.4-1.1 1-1.5 1.3-8.6 6.9-8.9 8.6-2 10.4 1.3.3.9.9-.7 1-.8 0-3.3-.5-3.7-.8-.1-.1-.4-.2-.6-.2-.3 0-.3.1.2.4 1.6 1.3 3.7 2 5.8 1.9 1.7 0 1.8.1.3.9-.7.3-1.4.5-2.1.5-1.9 0-.8.4 1.5.5 3.5.2 4.9-.1 8.2-1.7s4.7-2 6.3-1.8c.6.1 1.3.1 1.6.1 1 0 0 .3-1.2.4-1.3.1-3.8.8-3.5 1.1.2.2 5.3 1 8.2 1.3.9.1 1.3.2 1.6.6.3.3.9.6 1.8.8.8.2 1.6.5 2 .8l.7.5.3-.5c.5-.8 1.3-1.5 1.1-1.1-.9 2.6.1 5.5 2.6 7.1 1.3.9 1.3.8.5-1-.8-1.7-.9-3.1-.4-4.8.4-1.2 1-1.9.8-.8-.6 3.4 2.7 6.7 5.7 5.5 1.1-.5 1.3-.8.6-1.6a4.82 4.82 0 0 1-1-4.8c.3-.7.4-.6.6.6.1.8.3.9 2 .4.6-.2 1.8-.3 2.5-.4 2.1-.2 4.4-.6 7-1.5 1.3-.4 2.8-.8 3.2-.9.8-.1 4.6-1.1 9.8-2.4 1.2-.3 2.8-.9 3.5-1.2.7-.3 1.2-.5 1.2-.4s-.1.2-.2.2-.3.1-.5.3c-.2.2-.5.3-.6.3s-.5.1-.6.3c-.1.2-.4.3-.5.3s-.3.1-.3.1c-.2.5-4.9 2.3-8.6 3.3-2.8.8-9.5 3.2-10 3.6-.9.8 10.1-1.9 15.7-4l3.8-1.3c9.4-3.2 18.7-7.5 22.1-10.2 2.1-1.6 3.6-2.5 10.3-6.4 2.2-1.2 2.9-3 1.2-3.2-.7 0-.9 0-1.7.7-.5.4-1.1.9-1.4 1-.3.1-1 .6-1.6 1.1-1.6 1.2-4.4 2.7-5.8 2.9-.7.2-2.5.9-4.5 1.9-4.7 2.3-11.3 4.3-17.4 5-.9.1-2.4.4-3.2.6-.9.2-2.2.4-2.9.4-1.3 0-3.8 1-3.8 1.5s-1.8.9-9.3 1.9c-4.1.6-5 .5-5.7-.1-1.4-1.2-3.9-1.3-7.9-.3-3.3.8-6.3.8-9.4.1-.9-.2-2.5-.5-3.8-.6-1.2-.1-2.8-.3-3.5-.4-1.7-.3-4 .1-5.6.9-1.8.8-4.4 1.2-5.8.8-.2-.1-.5-.1-.6-.1-.7 0-.1-.4.7-.4.9 0 2.7-.5 4.6-1.4 1.9-.8 8.2-5.8 6.8-5.4-.2.1-.9.2-1.5.4-1.3.3-3.6 1.1-4 1.3-.3.2-1 .3-1 .2 0-.1 2.1-1.4 3.2-2 .4-.2 1.9-.9 3.3-1.4 3.3-1.3 8.2-3.8 7.9-4 0 0-1.1.4-2.3.9s-3.3 1.3-4.5 1.7c-3 1-6 2.2-7.5 3.1-.7.4-1.2.6-1.2.6 0-.1-.1 0-.2.2s-.3.3-.4.3c-.4 0 1.5-1.6 3.2-2.8 2.2-1.5 3.4-2.1 10.3-4.9 1.5-.6 3.7-1.7 3.9-2 .1-.1.6-.5 1.1-1 1.2-1 1.2-1.1.3-1.5-1.1-.5-1.7-.4-3.9.8-1.1.6-2.1 1-2.2 1-.2-.2 2.5-2.8 3.1-3.2.7-.4.7-.6 0-.8-.4-.1-.7 0-1.3.5-1.4 1.3-5.7 4.1-5.9 3.8 0 0 .9-1.1 2.2-2.4 1.2-1.3 2.2-2.4 2.2-2.5-.1.1-.7.1-1.2.4m-2.7 0c-.1.1-1 .3-2.1.5s-3.2.7-4.8 1c-1.5.4-4.2 1-6 1.3-4.1.8-5.8 1.3-12.9 3.9-.9.3-1.8.7-1.9.7-.1.1-.2.1-.2.2.1.1.5 0 .9-.2s2.5-.7 4.6-1.1 5-1 6.4-1.4l5.1-1.1c4.6-.9 11.6-3.2 11.6-3.9.1-.1-.6-.1-.7.1m-11.7.2c-.4.2-.8.2-.7 0 .1-.1.3-.2.5-.2.4 0 .5.1.2.2m280 .3c1 .4 1.1 2.3.2 3.2-.4.4-1.8.8-2 .6-.1-.1-.2-.2-.4-.2-1.1-.2-1.6-2-.8-3.1.5-.8 1.6-1 3-.5m-76.9.7c0 .3.1.8.1 1 .3 1.1.7 3.5.8 4.6.1.6.2 1.7.3 2.2.1.6.2 1.9.3 2.8.1 1 .2 2.6.3 3.6 1.1 10.7 1.4 16.4 1 16.4-.1 0-.2-.2-.2-.3 0-1.9-.5-8.6-.8-10.2-.2-1.1-.4-2.5-.5-3.3s-.3-2.7-.5-4.3c-.2-1.6-.5-4.1-.6-5.6s-.3-3.6-.4-4.8c-.2-1.9-.1-2.9.1-2.9.1.2.1.5.1.8m94 .8c0 .5-.4.8-.6.6-.2-.2-.2-.3.1-.5.4-.4.5-.4.5-.1m-174 1.9c-1 .4-1.3 1.2-.4 1.2.7 0 1.4.7 2 1.9.8 1.6.9 1.7 2.4 1.7 2.8.1 4.4 1.4 5.2 3.9.2.8.5 1.4.6 1.4.6 0 1.1-3.5.7-4.9-.4-1.5-1.9-2.5-4-2.7-1.4-.1-1.4-.1-2.4-1.2-1.2-1.2-2.8-1.8-4.1-1.3m191.7.7c.6.4.3 1.3-.5 1.3s-1.1-.5-.7-1.1c.3-.5.6-.6 1.2-.2m-332.1.3c-.3.1-.4.2-.4.3.1.1 1.1-.2 1.1-.4 0-.1-.2-.1-.7.1m204.1 2.8l-.3 2.6 1.2 3.1c.7 1.7 1.4 3.7 1.7 4.4.4 1 .5 1.7.2 1.4-.2-.2-2.6-4.8-2.9-5.6-.2-.5-.4-.8-.5-.8-.2 0-.6 2.1-.5 2.5.1.2.2.6.2.8.1.3 0 .4-.2.3s-.4.1-.5.4c-.2.5.8 1.9 1.6 2.2.2.1 1.4 2 1.4 2.3 0 .2-.7-.1-1.8-.8-1.6-.9-1.9-1-2-.4-.1.5.6 1.5 1.1 1.5.1 0 .7.4 1.3.9 2 1.6 3.4 2 3.8 1.2.2-.4.3-.4.4-.2.2.4 0 .9-.5 1s-.6.3-.2 1.1l.3.6-.6-.1c-1.2-.2-2.3-.5-2.3-.7s-2.2-1.2-2.5-1.2c-1.3 0 2.1 2.9 4.6 3.9 1 .4 2.3.5 2.9.1.4-.3.4-.3.4.1 0 .2-.2.5-.5.6-.6.3-.6.5.1 1.8l.6 1.1-.8-.1c-.5-.1-1.3-.4-2-.7-2.3-1.2-2.6-.2-.3 1.5 1.9 1.3 2.6 1.6 4.6 1.7 1 0 1.1.6.1.6-.5 0-.5 0 .1 1.6.6 1.5.5 1.6-1 1-.4-.2-1.1-.5-1.5-.6s-.7-.3-.8-.4-.3-.1-.5-.1c-.5.1.6 1.2 2.5 2.5 1.8 1.3 2.7 1.5 3.4 1.1.3-.2.6-.4.7-.4.4 0 .2-2.7-.3-3.7-.3-.5-.6-1.2-.6-1.4l-.1-.5.7.4c1.1.6 1.1.6.6-1.3l-.4-1.7-1.1-.7c-2.1-1.3-2.7-2.3-.9-1.4.9.4 1.4.6 1.4.4 0-.6-.7-1.9-1-2-.8-.2-2-1.2-2.2-1.8l-.2-.6 1.1.5c1.4.6 1.3.6 1.2-.3-.1-.7-.3-1-1.9-2.6-2.8-2.8-3-3.2-1.2-2.7.7.2 1.3.3 1.4.2.3-.3-.9-2.3-2.2-3.7-.9-1-1.6-1.9-1.9-2.6-.3-.7-.9-1.5-1.5-2-1-.9-1.2-1.4-.4-.9.6.3 1.9.8 2 .7.2-.2-2.2-5.9-2.5-6-.6-.7-.8.5-1 1.9m-68.6-1c-3.2 3.9-4.3 6.3-5.1 11.1-.2 1-.4 2.2-.5 2.6-.7 2.8-1 13.9-.5 17.3.6 3.6 1.9 7.3 4.1 11.9.5 1 .9 1.9.9 2 0 .5 4 5.1 4.2 4.9 0 0-.1-.5-.4-1.1-4.4-8.7-3.1-18 4-29.9 3.7-6.1 4.9-8.4 4.9-9.3 0-.5-.7-2-1-2-.4 0-3.9 5.2-5.1 7.4-.2.4-.4.7-.5.7-.3-.3 2.2-5.2 3.9-7.7.9-1.3.7-1.8-.2-.6-.2.3-.8 1.2-1.3 1.8-.5.6-1.2 1.7-1.6 2.3-.4.6-.8 1.3-.9 1.5-2.1 3.5-3.2 5.9-5 10.7-.9 2.4-.8-2.2.1-6.5.1-.5.3-1.3.3-1.8.1-.9 1.1-5.1 1.4-5.8.4-1.1.1-.6-.5.7-.7 1.6-1.7 4.6-2.2 6.7-.4 1.5-.6 1.9-.6 1.3 0-.7 1.2-6.3 1.4-6.5.1-.1.2-.2.1-.2-.3 0 2.5-7 3.1-7.9.5-.7.3-1-.2-.3-.4.6-3.5 6.5-3.5 6.8 0 .1-.2.7-.4 1.4s-.5 1.6-.5 2c-.2 1-.5 1.1-.4.2.2-1.5.9-4.1 2-6.9.1-.2.1-.4.2-.5 0-.1.7-1.5 1.4-3.1 1.5-3.1 1.6-3.4.7-4.3-.6-.6-1-.4-2.3 1.1m-93.9-.6c-.4.2-.9.5-1.1.7-.3.4 1-.3 1.7-.8.5-.4.4-.4-.6.1m285.9 1.1c.3.7-.6 1.4-1.2 1.1-.4-.2-.5-.4-.2-1 .3-.5 1.3-.6 1.4-.1m3.8 3.5c.1.1 0 .3-.1.4-.2.4-.8.1-.7-.3.1-.2.6-.3.8-.1M169 323.6c-.8 1.5-.8 1.6.2.4.8-1.1.9-1.3.6-1.4-.1-.1-.5.4-.8 1m-134.2-.1c-.3.3-.4.6-.4.6.1.1.4-.2.8-.5.3-.3.5-.6.4-.6s-.5.3-.8.5m263.7 6.1c.8.8-.1 1.9-1.1 1.4-.6-.3-.4-1.4.2-1.6.3-.1.5-.1.5-.2.1.1.3.2.4.4m2 3.4c0 .4-.4.3-.5-.1 0-.2 0-.3.2-.2.2 0 .3.2.3.3m-147.3.6c-.4.2-1.4 1-2.1 1.7-3.4 3.6-5.1 4.6-8 4.9-1.9.2-3.1.8-3.5 1.8-.5 1.1-.9 1.4-2 1.4-1.5 0-3.2.6-3.9 1.3-1 1.2-.6 2 .7 1.4 1.3-.7 6.3-.1 7.6.9.7.5 2.1 1.1 2.8 1.1 1.2 0 3.6 1 4.4 1.8.7.7.8.8.7.3-.4-1.4-2.5-3.1-4.7-3.9-.6-.2-1.3-.6-1.5-.7-.6-.5-1.8-1.1-2.2-1.1-.2 0-.4-.1-.4-.2 0-.4.7-.4 2.1 0l1.4.4 1.2-.6c1-.5 5.2-4.2 5-4.4 0 0-.8.2-1.7.5-1.9.7-1.7.3.5-1.1 1.5-.9 2.5-1.9 3.8-3.8 1.5-2 1.4-2.5-.2-1.7M40.6 340c-.7.2.8.2 1.7 0 .5-.1.5-.1-.3-.2-.5.1-1.1.2-1.4.2m263.7 2.3c0 .3-.5.6-.7.4-.1-.1-.1-.2 0-.4.2-.4.7-.4.7 0m-255.4 2.3c-7.1 1.3-8.3 2.1-7.2 4.7.3.6.3.8 0 1.2-.3.5-.2 2.1.2 2 .1 0 1.8-1.1 3.8-2.2 2-1.2 4.5-2.5 5.5-3 1.1-.5 1.9-.9 1.9-.9a25 25 0 0 0-4.4 1.2c-.4.1-.8.3-1.1.4-.2.1-.5.1-.5.1-.1 0-.1 0-.1.1s-.2.2-.4.3c-2 .5 3-2.4 6.1-3.5 2.7-1 .8-1.2-3.8-.4m204.4 1.5c.4 1.2.4 1.7-.2 3.7-.7 2.1-.7 1.9-.7-2s0-4.1.9-1.7m-70.5.6c-3.5 1-7.4 1.2-9.4.5-1.3-.4-1.8-.3-2.8 1.1-1.9 2.6-1.9 2.6.5 3.2 3.2.8 3.8.8 7.6-1.1 4.8-2.4 9.8-3.2 13-2.3 1.2.4 1.5.4.9 0s-2.9-1.2-4-1.4c-.5-.1-1.2-.2-1.5-.2-1.4-.2-3.1-.2-4.3.2m12.6.5c-2 1.1-2.7 3.3-1.7 5.3.8 1.6 1.7 2.3 2.6 2l.5-.2.1 2c.1 1.5.1 2.3-.2 3.2-.2.9-.3 1.3-.1 1.7.3.8-.2 1.4-1.6 1.9-1.4.5-2.1 1.2-2.3 2.3l-.1.8.8-.1c.7-.1 1.3-.3 4.2-1.5 1.8-.8 3-.9 4.9-.7 1.9.3 2.1.2 1.6-.4-1-1.1-4.3-1.9-5.5-1.4-.7.3-1 .1-.4-.2.9-.5 1-.8 1-2l-.1-1.2.5 1.1c.7 1.3.9 1.2.9-.3s-1.2-5.4-1.6-5.3c-.4.2 1-1.5 1.6-1.9.3-.2.9-.4 1.3-.4.8 0 1-.3.3-.5-1.1-.3-2.4-.1-3.6.5-3.3 1.8-5.1-1.6-2.3-4.3 1.3-1.1.9-1.3-.8-.4m-55.3.4c.3.3.7.5.8.5s0-.2-.3-.5-.7-.5-.8-.5 0 .2.3.5m-5.5.2c-1.1.2-1.3.6-1.3 4.5-.1 12 9.7 28.9 18.9 32.5.7.3 2 .9 2.7 1.4 3.2 1.9 8 3.8 9.9 3.8 1.2 0-.4-1.3-3.7-2.9-1.7-.8-4.6-3.6-6.2-5.8-.5-.7-1.6-2.2-2.5-3.4-4.2-5.7-4.7-8-4.1-20.5l.2-3.5-.6-.9c-.3-.5-.9-1-1.2-1.2l-.6-.4v1.1c0 .6 0 1.4-.1 1.8 0 .4-.1 1.5-.2 2.4-.2 2.8-.5 2.3-.8-1.4-.2-2.7-.3-3.6-.5-3.3-.3.5-.6 3.3-.7 5.9-.1 1.3-.1 3.3-.2 4.4-.1 2.7.7 8.9 1.3 9.6.1.2.1.2 0 .2-.3 0-2-3.8-2-4.2 0-.1-.2-.5-.4-1.2-1.6-4.5-2.6-12.5-1.9-15.2.1-.6.2-1.1.1-1.1-.3-.2-.5 1-1 4-.2 1.6-.3 6.9-.1 7.5.1.2.1.3 0 .3-.4 0-1.1-3.7-1.1-5.7 0-1.8.2-4.9.5-6.3.2-.9.2-1.1-.1-1.3-.7-.5-.8-.4-1.6 2.6-.5 1.9-.5.9 0-2 .3-1.7-.2-2.1-2.7-1.7m226.9.6c0 .5-.6.9-.9.5-.2-.2-.2-.4 0-.6.3-.4.8-.3.9.1m-302.2.8c-.9.3-2.8.9-4.2 1.3-5.2 1.5-6.7 2.3-5.8 3 .2.1.3.5.3.8 0 .8 0 .7 2.6-.7 4.4-2.6 5-2.9 7.1-3.8 3-1.4 3-1.6 0-.6m327.1.2c.7.7-.2 2.3-1.2 2.1-1.7-.4-1.3-2.6.4-2.3.4 0 .7.1.8.2m-319.9 0c-.4.1-1.7.4-2.8.7-1.7.4-3 .8-5.8 2-.2.1-.4.2-.5.2s-1.3.6-2.7 1.4c-1.5.7-3.2 1.6-3.8 1.9s-1.6.9-2.1 1.2c-.9.7-2.3 1.5-2.5 1.5-.1 0 0-.2 0-.5.1-.4 0-.5-.3-.7-.6-.3-.5-1.3.1-2.4.3-.5.4-.9.4-.9s-.8.3-1.6.8l-1.6.7c0-.1-.2 0-.3.2s-.7.4-1 .6c-.4.2-1.4.9-2.2 1.6s-1.6 1.2-1.6 1.2c-.2 0-3 2.2-3 2.4 0 .4 1.7-.4 4.6-2.2 1.3-.8 1.3-.7-.3.9-1.9 2-4.2 3.3-6.8 3.9-1.8.4-2.3.7-2.4 1.1-.2.6.1.7 1.4.4.7-.1 1.5-.3 1.9-.3h.6l-.8.7c-.4.4-.7.7-.5.7.1 0 .2.1.1.3-.2.4.2.5.8.3.5-.2.5-.2.2.2-.2.2-.3.5-.2.8.2.5.4.5.7.1.2-.3 1.6-1.1 1.6-1 0 0-.2.5-.5 1-.5 1-.6 1.4-.3 1.4.2 0 .5-.2 2-1.9 1.5-1.6 6.2-4.2 6.7-3.7.3.3-3.3 8.7-4.1 9.5-.2.2-.4.5-.3.5.1.1.9-.7 2.3-2.5 1-1.2 1.7-1.9 1.5-1.2-.1.2-.2.3-.3.3s-.2 0-.1.1-.3.8-.7 1.6c-1.7 3.1-1.9 3.5-1.5 3.5.2 0 .6-.4 1-.9.3-.5.9-1.3 1.2-1.7.3-.5 1-1.4 1.4-2.1 1.5-2.4 6.7-7.7 10.1-10.3 3-2.3 3.6-2.8 6.7-4.8 3.9-2.7 5.7-4 5.4-4-.2 0-4.7 2.3-6.5 3.3-.7.4-2 1.1-2.7 1.6-.8.4-2.1 1.3-3 1.9-1.6 1.1-2.4 1.3-1.2.4.3-.3.9-.7 1.3-1.1.4-.3 1-.8 1.3-1s1.1-.8 1.7-1.3c1.6-1.2 4.4-3.1 4.5-3.1s.5-.3 1-.6 1.8-1.1 3-1.7c2.4-1.3 2.5-1.4.5-1m176.3 1.2c-.3.2-.6.4-.8.4-.4 0-.5.1-.1 1.2.2.5.3.9.3.9 0 .2-1.8-.2-3-.8-3.2-1.3-.6 1.1 3.3 3.1 1 .5 1.8 1 1.8 1.1.2.5.8-.1.6-.6-.8-2.8-1.4-4.7-1.4-5.2.1-.6-.1-.6-.7-.1m116.7 0c.6.6.3 2.3-.4 2.3-.1 0-.4.1-.6.1-.6.2-1.5-.7-1.4-1.4.2-1.2 1.6-1.8 2.4-1m-104.9 3.3c-.1 1.9-.2 2.2-.6 1.7-.5-.7-.6-2.6-.1-3.2.7-.7.8-.4.7 1.5m108.7-.9c.4.3.1 1.2-.4 1-.2-.1-.4-.1-.5-.1-.3 0-.2-.7.1-.9.3-.3.4-.3.8 0m-64.3.3c0 .1-.2.2-.3.2-.1 0-.2-.1-.3-.2 0-.1.1-.2.3-.2.2 0 .3.1.3.2m2.7.6c.1.3.1.4-.1.6-.5.4-1.4-.4-1-.8.4-.3 1-.2 1.1.2m-63.2 1.8c0 .5 1 1.7 1.8 2.1.4.2.9.6 1 .8.2.4 2 1.6 2.4 1.6s.2-.6-.4-1.2c-.3-.2-.5-.5-.5-.6 0-.4-1.1-1.3-2.5-2.1-1.6-.9-1.8-1-1.8-.6m7.4.7c.2.5.6.8.6.5 0-.1-.2-.3-.4-.5-.5-.4-.5-.4-.2 0m67.3.1c0 .5-.6.9-.9.6-.2-.2-.2-.3 0-.6.3-.5.9-.5.9 0m-261.4.7c.4.5 0 1.1-.7 1-.5-.1-.7-.6-.4-1.1.4-.4.7-.3 1.1.1m258.4 1.2c-.7.6-1.6.2-1.3-.5.2-.6 1-.7 1.4-.2.3.4.3.4-.1.7m-262 .9c0 .2-.2.3-.4.4-.4.1-.7-.5-.3-.7.3-.2.8 0 .7.3m262.4 2c0 .2-.2.3-.5.3-.4.1-.4 0-.2-.4.3-.3.7-.3.7.1m-179.2 3.5c-.1 1.8-1.2 3.9-2.4 4.7-1.4.9-1.8 2.4-1.1 3.7.4.7.3.7 1.6-.4.6-.5 1.6-1.2 2.2-1.5 1.8-.8 2.1-1.9.7-2.4l-.6-.2.8-.3.8-.4c.2-.2-1.5-4.6-1.8-4.6-.1.1-.1.7-.2 1.4m178.5 2.4c.2.3-.4.6-.8.5-.5-.2-.3-.7.3-.7.1 0 .4.1.5.2m-117.5.4c-1.4 1-2.8 4.1-3.1 7.3-.6 5.5-5.3 13-9.3 14.8-.7.3-1.3.7-1.3.8-.1.2-.2.3-.3.3-.3 0-2.5 1-2.5 1.2 0 .3.4.4 1.3.2 1-.2 1.1-.3 3.4-1.3.7-.3 1.4-.6 1.6-.6.3 0 3.2-1.5 5.9-3.1 8.4-4.9 14.7-11 16-15.5.6-1.8.6-1.7-.8-2.2-1.5-.5-1.7-.5-2.4.6-.3.5-1 1.4-1.5 2.1-.5.6-1 1.4-1.2 1.7-.7 1-.3.1.8-2.2.6-1.3 1.1-2.4 1.1-2.6-.2-.6-.9.1-1.8 1.9-1 2-2.5 4.3-2.8 4.4-.1 0-.2.2-.2.3 0 .2-2.5 3.4-3.2 4.1l-.5.5.6-1.1c.7-1.3 1.8-3.4 1.8-3.7 0-.2 1.6-5.2 2.1-6.4.4-1 .4-1.2-.1-1.2-.3 0-1.6 2.7-2.8 5.7-.5 1.2-.9 2.1-1 2.2-.3.2.9-4.8 1.7-6.7.7-1.8-.5-.2-1.4 1.9-.6 1.3-.8 1.6-.7.8.2-1.1.5-2 1.2-3.2.6-1.5.5-1.7-.6-1m119.4 1.6c0 .1-.1.2-.3.3-.2 0-.3 0-.2-.3.1-.3.4-.3.5 0m-4.2.6c.2.2-.3.9-.6.9-.5 0-.8-.3-.6-.8.1-.3.8-.4 1.2-.1m-56.1 2.4c-.2.2-.2.9 0 .9.3 0 .5-.6.3-.8-.1-.2-.2-.2-.3-.1m-116.3.7c-1.1.8-1.1 1.1-.1 4.1l.7 2.3c-.1 0-1.8-2.6-2.2-3.4-.3-.6-.8-1-.8-.5 0 .2.7 2 1.2 3.1.7 1.6 3.8 6 4.8 6.9.2.2 0 .1-.6-.3-.9-.6-1.2-.9-3.1-3-1-1.1-2.1-2.9-3-4.6-.6-1.3-.8-1.5-1.2-1.5-.3 0-.4.1-.4.1.2.3 1.3 2.8 1.3 2.9s.2.4.5.7c3.2 4.3 4.1 5.5 5.2 6.6.7.7 1.7 1.6 2.2 1.9l.9.7c0 .2-.3 0-.7-.2-.2-.2-1.2-.8-2.1-1.4-3-2-6.2-5.7-8.1-9.4-1.1-2.1-1.5-2.4-2.3-1.5-1.1 1.2 0 3.6 3.3 7.1 3.8 4 4.6 4.7 5.4 5.1.4.2 1 .6 1.4.8 2.2 1.6 6.3 3.9 8.2 4.6 3.3 1.2 10.6 2.2 13 1.8 1.7-.3 2.1-1 .7-1.2-4.7-.7-13.6-6.9-17.4-12-1.3-1.7-2.6-4.5-3.4-7.1-1-2.7-2.1-3.6-3.4-2.6m187.3-.1c-.1.5-.6.7-.8.2-.2-.4 0-.5.6-.6.2.1.3.2.2.4m-75.2 8.7c0 .2.1.3.2.3.1-.1.2-.2.2-.4s-.1-.3-.2-.3-.2.1-.2.4m45.1.5c0 .3-.4.4-.6.3-.1-.1-.1-.2-.1-.3.2-.2.7-.2.7 0m-4.3 1c0 .1-.1.2-.3.2-.3 0-.4-.2-.2-.5.2-.1.5.1.5.3"/></svg>