<?xml version="1.0" encoding="utf-8"?>
<!-- Generator: Adobe Illustrator 22.1.0, SVG Export Plug-In . SVG Version: 6.00 Build 0)  -->
<svg version="1.1" id="svg" xmlns="http://www.w3.org/2000/svg" xmlns:xlink="http://www.w3.org/1999/xlink" x="0px" y="0px"
	 viewBox="0 0 407.7 403.8" style="enable-background:new 0 0 407.7 403.8;" xml:space="preserve">
<g id="svgg">
	<path id="path0" d="M212.7,27.5c-4,0.6-8.7,5.5-8.8,9.2c-0.1,2.3,1,2.4,6.6,1c1.7-0.4,3.5-0.8,3.9-0.9l0.7-0.1l-0.9,0.3
		c-3.3,1.2-6.3,3.9-7.5,6.9c-0.5,1.2-0.4,1.2,0.8,0.3c4-3,6.8-4.2,9.8-4.2c2.2,0,3.1,0.6,1.3,1c-2.7,0.5-4.9,2.3-8.1,6.6
		c-1.1,1.4-2,2.7-2,2.7s0.5-0.4,1.1-1.1c2-2,4.7-3.6,8.3-4.8c1-0.3,2.7-1.1,3.8-1.7c6.3-3.3,13.8-2.5,20.9,2.3
		c2.3,1.5,2.4,1.9,0.2,0.8c-7.1-3.5-11.9-3.5-20,0.1c-1.4,0.6-3,1.1-4.5,1.5c-5.1,1.2-7.3,3.3-8.8,8.1c-0.3,1.1-0.7,2.1-0.8,2.3
		c-0.1,0.2,0.5-0.3,1.4-1.2c2.2-2.1,4.5-3.4,7.3-3.8l0.8-0.1l-1.5,0.9c-3.6,2.3-6.6,5.4-6.6,7v0.6l0.9-0.6c0.5-0.3,1.6-0.8,2.5-1.1
		l1.7-0.5l1.9-2c3.5-3.6,7.2-4.9,11.4-3.9c2.9,0.6,2.9,0.8,0,0.8c-3.7,0-6.3,0.9-8.4,2.8l-1,0.9l1.7-0.1c4.6-0.3,9.9,1.4,13.1,4.2
		c1.8,1.6,2.7,2.9,6,9.1c2.7,5.1,3.5,6.4,5.3,9.3c4.1,6.5,4.7,8.2,5.8,18c1.1,9,2.2,12,6.7,17.2c5.4,6.3,7.4,12.7,6.4,20.8
		c-0.7,6.1-2.6,11-8.3,21.4c-7.9,14.5-8.7,18.3-4.5,24.1c0.6,0.8,1.4,2,1.7,2.7c0.3,0.6,0.6,1,0.5,0.7s-0.3-1.1-0.5-1.9
		c-2.3-8.9,0.7-17.6,7.7-21.7l0.7-0.4l-0.4,0.6c-4,6.1-5.4,10.3-5.4,15.7c0,5,0.6,6.9,4.4,13.2c2.1,3.4,2.8,4.9,3.4,6.8
		c3,9.1-2.2,18.7-11.5,21.2c-1.6,0.4-1.6,0.5,0.8,1c9,1.9,17.5-9.7,17.6-23.9l0-2l0.4,1c0.8,2,0.9,4.3,0.5,8.4l-0.1,1.1l0.5-0.9
		c0.3-0.5,0.9-1.5,1.4-2.3c1.2-1.9,1.7-3.9,1.8-6.7c0-2.6-0.2-3.2-2.5-6.6c-0.9-1.4-1.9-3-2.1-3.4c-1.7-3.6-2.6-10.9-1.7-13
		c0.5-1.1,0.3-1-0.5,0.2c-1.8,2.8-2.8,6.1-3.4,11c-0.1,1.2-0.3,2.4-0.3,2.6c-0.1,0.4-0.6-1.8-0.9-3.8c-1.2-8.2,0.3-12.5,8.2-22.2
		c5.5-6.9,7.9-13.2,7.2-19c-0.2-1.2-0.3-2.6-0.2-3c0.1-1,0-0.8-0.5,1c-0.8,2.9-2.8,7.2-4.2,8.9c-0.4,0.5-0.4,0.4,0.1-0.8
		c1.9-5,2.4-9.7,1.5-13.3c-0.6-2.3-1.5-3.8-1.5-2.5c0,0.8-1.6,5.8-1.8,5.6c0,0,0.1-0.5,0.2-1c1-3.7-0.2-7.7-4.7-15.3
		c-4.8-8.3-4.9-8.4-5.7-21.3c-0.6-8.8-0.6-8.6,0.6-5.8c0.8,2,1.3,3.8,2,7.7c2.1,12.1,5.8,18.8,13.5,24.6c1,0.8,2.7,2,3.8,2.8
		c4.1,3,6.1,6.1,6.2,9.3l0.1,1.5l-0.6-1.1c-1.3-2.6-3.4-4.7-5.8-5.9c-2-1-2-0.9-0.1,1c5.9,6.2,5.5,13.4-1.2,20.3
		c-0.8,0.8-1.4,1.5-1.3,1.5c0.5,0,3-1.9,4.6-3.5l1.8-1.8l0.2,1.1c0.4,2.5,0.1,5-1.1,7.7c-0.1,0.2,0.1,0.3,1.4,0.4
		c0.9,0.1,2.8,0.4,4.4,0.7c3.8,0.8,6,1,5.8,0.5c-0.4-0.7,0-3.3,1.3-8.7c3.2-13.4-0.4-23.6-10.1-28.4c-0.7-0.4-1.9-1.1-2.7-1.6
		c-0.7-0.5-2.5-1.6-4-2.5c-9.3-5.6-12.3-9.8-12.2-17.2l0-1l0.2,1.1c0.6,2.8,1.8,5.5,3.7,8.1c0.9,1.3,1,1.3,0.5-0.3
		c-0.5-1.5-0.5-5.6-0.1-6.8l0.2-0.7l0.3,1.5c0.6,3.2,2.5,7.8,3.4,8.2l0.5,0.2l0-1.7c0-1.2,0.1-2,0.3-2.6l0.3-0.9l0.3,1.5
		c0.8,4.4,5.3,10.3,7.2,9.6c1.1-0.4-2-11-4-14.1c-3-4.6-7.1-9.1-11.4-12.8c-4.7-4-6.9-6.4-8.6-9.2c-0.9-1.5-1-2-0.3-1
		c1.4,1.9,3.7,3.7,8.2,6.5c5.1,3.1,7.3,5,8.8,7.5c1.2,2,2,2.4,1.9,0.9c-0.6-10.2-3.6-15.2-11.8-19.2c-1.1-0.5-3.1-1.5-4.4-2.1
		c-5.6-2.7-7.9-5-9.4-9.2c-0.2-0.7-0.7-1.7-1-2.2c-0.3-0.5-1-1.9-1.7-3c-2-3.6-3-4.9-5.3-6.4c-0.8-0.5-2.1-1.5-2.9-2.1
		c-2.5-1.9-4.6-2.6-8.8-2.6c-2.6,0-2.5-0.1,0.5-0.4c10.3-1,14.5,1.7,20.5,13.3c1,2,2.2,4.1,2.6,4.5c2.4,3.2,8.9,5,13.9,3.7
		c1.2-0.3,1.3-0.4,0.3-0.6c-4.3-0.6-8.6-3.1-10.9-6.6c-0.4-0.5-0.4-0.7-0.2-0.6c1.2,0.5,2.9,0.3,4-0.5c0.9-0.6,0.8-0.7-0.8-0.7
		c-4,0-7-3.7-7.4-8.9c-0.4-6-7.5-11.7-16.8-13.7c-2.2-0.5-8.3-0.7-10.4-0.3c-1.5,0.2-0.4-1.1,1.3-1.7c2.6-0.8,11.5,0,15,1.4
		c1.2,0.5-1.9-1.8-3.7-2.7c-2.5-1.2-4.9-1.9-8.3-2.2c-2.8-0.3-3-0.3-5.6-1.2c-1.1-0.4-2.5-0.7-3.7-0.8c-1.1-0.1-3.1-0.4-4.4-0.6
		c-4.4-0.6-6.1-0.7-7.4-0.6c-1.1,0.1-1.2,0.1-0.9-0.2c1-0.7,2.2-1.1,3.5-1.1c0.8,0,1.3-0.1,1.2-0.1
		C216.9,27.8,213.8,27.3,212.7,27.5 M184,29.9c-3.6,0.5-11.1,4.5-14.8,8c-1.9,1.8-4,4.8-2.4,3.5c1.5-1.3,3.6-2.1,6-2.4
		c1.4-0.1,1.4-0.1,0.2,1.8c-3.7,5.9-10.7,8.5-17.5,6.5c-1-0.3,1.1,3.7,2.3,4.2c0.8,0.3,1.4,0.2,3.9-1c2.7-1.3,4.2-1.9,6.4-2.6
		c1.9-0.6,3.6-1.5,5.8-3c1.7-1.2,1.7-1-0.1,0.8c-2.9,2.9-4.8,4-11.4,6.3c-8.4,2.9-12.5,6.8-14.2,13.5c-0.3,1.2-0.7,2.4-0.8,2.8
		c-0.2,0.5-0.6,3.5-0.5,3.7c0,0,0.3-0.4,0.7-1c0.8-1.3,2.2-2.8,3.6-3.6c1.3-0.9,1.4-0.9,0.3,0.8c-3.6,5.4-4.9,12.8-2.8,16.1
		c0.8,1.2,0.9,1.1,0.9-0.7c0-7.2,1.5-11.6,6.2-18.6c1.5-2.2,4-4.6,3.1-3c-0.4,0.7-1,3-1,3.6c0,0.3,0.1,0.2,0.3-0.3
		c0.3-0.6,1-1.4,2.7-3c0.5-0.5,1.5-1.5,2.2-2.3c1.6-1.7,2.2-2.1,1-0.6c-0.8,1-1.9,3-1.8,3.2c0,0,0.6-0.3,1.2-0.7
		c2-1.3,5.3-2.7,7.2-3c0.6-0.1,0.5,0-1.4,1.3c-7.5,5.3-12,10.1-14.8,15.8c-2.1,4.3-2.5,6.6-2.5,12.6c0.1,6.1-0.1,6.6-3.3,9.6
		c-4.1,3.8-5.3,6.4-5.3,11.3c0,2.9,0.2,3.8,1.3,6.1c0.8,1.7,0.9,1.7,0.5-0.2c-0.9-3.7,0.3-8.3,3-11.2l1.2-1.2l-0.4,0.9
		c-1.3,2.6-2,19.7-1,24l0.3,1.2l0.5-0.5c1.4-1.4,2.2-4.3,2.4-9.7c0.1-2,0.2-2.6,0.3-2.2c0.3,1.2,0.8,4.4,0.8,5.5
		c0,0.7,0.1,1.2,0.1,1.2c0.2,0,0.7-2.5,1.1-4.9c0.5-3,0.4-2.9,1-0.7c0.3,1.1,0.6,2,0.7,2c0.2,0,1.7-3.6,3.8-9.3
		c1-2.6,1.8-4.7,1.8-4.6c0.3,0.3-1.2,7.9-2.3,11.1c-2.6,8-5.4,12-14.9,21.7c-7.3,7.4-9.7,10.3-12.2,14.2c-5.2,8.4-6.4,18.1-3.2,25.8
		c0.4,1,1.1,1.8,0.7,0.9c-0.1-0.1-0.2-1.1-0.3-2.1c-0.6-6.6,2-13.4,6.8-18.2l1.5-1.5l-0.6,0.9c-2.6,4.2-3.9,9.1-3.5,13.6
		c0.4,3.8,1.3,4.9,3.9,4.8c2.1-0.1,11.9-3.3,16.1-5.2c4.9-2.2,6.9-2.9,8.9-2.9c0.6,0,1,0,1-0.1s-0.3-0.6-0.6-1.1
		c-2-3.7-2.5-8.5-1.3-12.7c0.6-2.2,0.7-2.1,0.7,1c0,5.9,1.8,8.8,6.4,10c5.2,1.3,8.5-1,10.4-7.4c1.1-3.7,2.8-6.7,4.6-8.2
		c1-0.8,0.9-0.8,0.6,1.7c-0.5,4.1-0.3,5.2,0.9,5.2c3.7,0,2.5-7.7-1.8-11c-1.8-1.3-2.1-1.8-3.3-3.8c-1.1-1.9-1.2-1.9-2.1-0.8
		c-0.6,0.7-1,1.9-1.3,3.5l-0.2,1.2l-0.4-1.1c-0.7-1.7-1-3.6-0.9-5.5c0-0.9,0-1.6-0.1-1.6c-0.6,0-2.3,2.9-2.8,4.6l-0.3,1.2l0-1.3
		c-0.1-2.3,0.4-4.3,1.9-7.4l1.3-2.7l0-1.4c0-1.3-0.1-1.5-0.9-3.4c-0.9-1.9-0.9-2.1-0.9-3.4l0-1.4l-0.5,0.8c-0.7,1.2-1.2,1.8-3.5,4.2
		c-4.3,4.4-6,7.9-6.9,13.8l-0.3,2l-0.4-1.5c-0.4-1.7-0.5-3.5-0.1-5.1c0.3-1.4,0.3-1.4-0.6-0.1c-1.6,2.5-3.3,6.4-3.8,9.2l-0.2,1.1
		l-0.2-1.1c-0.1-0.6-0.2-1.6-0.2-2.2c0-0.6-0.1-1.1-0.1-1.1c-0.6,0-5,11.1-5,12.7c0,0.2,0,0.3-0.1,0.2c-0.3-0.3,0.8-7.7,1.7-10.9
		c1.7-6.6,4.2-10.4,12.2-18.6c9.4-9.7,11.4-15.2,12.3-34.6c0.6-12.6,1.3-16.2,4.1-20.5c4.3-6.6,12.5-10.1,20-8.7
		c3.8,0.7,5.2,0,4.8-2.4c-0.6-4.4-8.9-5.3-17.4-1.9c-11.1,4.4-16.3,9.3-19,17.8c-0.5,1.4-1.2,3.9-1.7,5.4c-1.1,3.4-2.1,5.9-3.4,7.7
		c-0.9,1.4-2.6,3.2-2.4,2.6c1.5-3.9,2.3-7.7,2.2-10.7l-0.1-1.3l-0.3,0.9c-0.5,1.5-1.2,3.1-2.2,4.5c-1,1.4-1.8,2.5-1.7,2.1
		c0-0.1,1-3.7,2.2-7.9c2.8-10.2,3-10.6,7-12.9c2.3-1.3,3.6-2.3,6.1-4.5c6.6-5.9,11.8-7.7,21.7-7.8c4.9,0,5.5-0.1,5.6-1.2
		c0.1-1.2-0.7-1.7-2.8-1.7c-2.7,0-2.4-0.2,1-0.8c4.3-0.7,4.9-1.2,3.3-2.4c-1.3-1.1-4.1-1.8-8.5-2.1c-6.5-0.5-10.8,0.8-21.3,6.5
		c-1.4,0.8-1.2,0.6,1-1.2c3.3-2.5,6.4-4.2,11.7-6.3c7-2.8,9.7-3.4,12.9-2.9c2.2,0.4,0.7-0.2-3.4-1.3c-2-0.5-3-0.7-6.1-1l-1-0.1
		l1.2-0.5c2.4-1.1,5.1-1.7,7.7-1.7c1.4,0,1.3-0.1-1.1-0.9c-1.8-0.6-3.7-1-5.7-1.2l-1.2-0.1l0.8-0.1c1.1-0.2,6.5-0.2,8.2,0
		c1.7,0.1,1.7,0.1,0.9-0.2c-0.3-0.1-1.2-0.7-1.9-1.2C194.4,31.3,187.6,29.4,184,29.9 M215.9,62c-1.7,0.3-3.3,0.9-5.9,2.2
		c-4.2,2.2-4.9,2.3-10.4,2.2c-6.4-0.2-7.7,0.4-12.4,4.9c-2.7,2.7-3,3.1-1.3,1.9c3.4-2.5,9.7-5.5,10.2-4.9c0.3,0.3,0.1,0.4-1.7,1.1
		c-4.5,1.7-9.4,4.9-12.2,7.8c-0.8,0.8-0.5,0.8,0.8-0.2c2.9-2.1,9-5.1,9.6-4.8c0.4,0.3-0.1,0.6-1.7,1.3c-3.2,1.3-6.5,3.2-9.1,5.3
		c-1.5,1.2-1.4,1.2-2.2,3.8c-0.1,0.2,0.4-0.1,1.1-0.8c2.9-2.6,8.4-5.6,8.4-4.6c0,0.2-0.4,0.5-1.3,0.8c-3.6,1.5-8.6,5.5-8.6,6.8
		c0,0.5,0.1,0.5,1-0.4c1.6-1.4,4.8-3,5.4-2.7c0.6,0.2,0.2,0.6-0.8,0.9c-1.5,0.5-3.4,1.6-4.7,2.9l-1.1,1.1l0.1,0.9l0.1,0.9l1.7-1.2
		c1.7-1.3,2-1.4,2.1-1c0.1,0.3,0.1,0.3-1.5,1.4c-2.2,1.6-2.6,2.1-2.6,3.2v1l0.5-0.4c0.6-0.5,2.3-1.4,2.7-1.4c0.7,0,0.2,0.6-0.9,1.2
		c-1.8,0.9-2.5,1.7-2.6,2.9c-0.1,0.5-0.2,1.2-0.2,1.4c-0.1,0.4,0,0.4,0.7-0.3c1-0.9,2.1-1.6,2.4-1.5c0.4,0.1,0.3,0.5-0.2,0.8
		c-1.6,1-3.1,2.6-2.9,3.3c0.4,1.6,2,1.3,5.3-1.2c3.5-2.6,5.4-3.2,12.4-3.8c7.9-0.7,9.5-0.3,10.5,2.3c0.9,2.3,1.8,1.8,2.2-1.2
		c0.7-5.3,3-3,3,2.9c0,1.5,0.1,3.7,0.2,4.8c0.5,4.2,0.4,5.6-1.2,10.2c-2.2,6.7-2,8.7,1.1,13c1.8,2.4,2,2.8,2.4,4.1
		c0.3,1.3,0.2,1.4-0.6,0.7c-3-2.5-2.8-2.5-4.6-0.6c-2.6,2.6-3.2,5.3-1.7,7.9c1.2,2,3.8,2.6,5.1,1.2c0.6-0.7,0.6-0.8-0.7-0.8
		c-1.8,0-2.8-0.9-2.4-2c0.6-1.6,3.6-1.1,4.9,0.7c1.8,2.5,5.2,3,6.5,1c0.9-1.4,2-2,4-2.2c1.3-0.1,1.5,0.1,1.1,1.2
		c-0.5,1.3-0.5,1.4,0.3,1.4c4.1-0.1,2.9-10.4-1.2-10.4c-1,0-2.3,0.8-2.8,1.6l-0.4,0.7l-0.2-0.6c-0.3-0.8-0.1-1.7,0.6-3.8
		c1.3-3.8,1-5.7-1.8-11.5c-1.8-3.8-2.2-5.2-2.6-8.6c-0.4-4.5-0.9-6.1-2.4-8.1c-1.5-1.9-1.8-3.5-1.2-4.6c0.5-0.9,0.7-0.7,2.4,1.9
		c1.4,2.1,2.1,2.5,2.7,1.7c0.6-0.9,0.3-1.9-0.9-3.2c-2-2.1-0.6-3.7,3.8-4.3c2.8-0.4,3.6-0.8,2.6-1.2c-0.4-0.2-0.9-0.2-3.5,0.1
		c-3.2,0.4-4,0.3-4-0.3c0-0.5,1.3-0.9,4.9-1.5c6.5-1.1,8.8-1.2,13.2-0.3c5.1,0.9,7.3,0.7,7.3-0.9c0-3.1-4.3-4.5-14-4.8
		c-5.3-0.1-7.1,0.2-12,2c-6.1,2.3-7.6,2.5-11.9,1.1c-3.4-1.1-4.6-1.3-9-1.5c-5.1-0.3-5.2-0.5-0.6-1.5c2.9-0.6,5-0.8,8.2-0.4
		c4.7,0.5,6.4,0.3,9.1-0.9c1.7-0.7,3.7-1.4,5.3-1.7c2.6-0.5,3.5-0.5,7.2-0.2c4.3,0.3,5.1,0.2,5.3-0.4c0.5-2.1-5.3-3.2-11.6-2.1
		c-2.8,0.5-5,0.5-6.1-0.1c-0.9-0.5-0.9-0.6,0.4-1.2c2.7-1.2,4.8-1.5,11.3-1.5c5.2,0,5.8-0.1,6.6-0.9c0.6-0.6,0.6-0.7-1.1-1.2
		c-4.3-1.3-8.9-1.4-13.3,0c-1.6,0.5-1.7,0.5-1.7,0.1c0-0.3,0.3-0.4,1.3-0.7c4.6-1.5,9.9-1.4,14.3,0.1c1.6,0.5,1.5,0.6,1.7-0.3
		c0.3-1.2,0.3-1.2-1.2-1.6c-3.7-1.2-9.1-1.6-12.8-1c-1.8,0.3-2,0.3-2-0.1c0-0.3,0.2-0.3,1.7-0.6c3.9-0.6,8.8-0.3,12.7,0.8
		c1.4,0.4,1.6,0.4,1.1-0.2c-0.5-0.7-1.3-1-4.3-1.9C222.6,62,218.5,61.5,215.9,62 M235.3,90.8c-0.8,0.1-2.7,0.4-4.2,0.7
		c-1.5,0.3-3.5,0.6-4.5,0.7c-2,0.2-2.4,0.4-3,1.2c-0.6,0.7-0.8,0.5-0.5-0.4c0.3-1,0-0.9-0.7,0.1c-0.4,0.5-0.5,0.9-0.6,1.8
		c-0.1,1.2-0.2,1.2-0.6,0l-0.1-0.3l-0.1,0.3c-0.4,1,0.1,2.6,0.9,3c0.7,0.3,1,0.2,6.3-2.1c5.7-2.5,5.5-2.4,5.1-2
		c-0.4,0.4-0.5,0.5,2-0.4c2-0.7,2.4-0.8,1.9-0.3c-0.2,0.2-0.1,0.2,0.4,0.2c1.2,0,3.5,1.6,6.1,4.1c1.9,1.9,1.9,1.9,0.8-0.4
		c-1.2-2.6-1.2-2.5-2.4-3.9l-1-1.2l0.4-0.2c0.7-0.3,0.4-0.5-0.9-0.6c-0.9-0.1-1-0.2-0.7-0.3C240.7,90.4,237.8,90.4,235.3,90.8
		 M201.3,95.1c0,0.1,0.2,0.4,0.4,0.8c0.5,0.9,0.3,1-0.7,0.3c-0.7-0.5-1.1-0.5-4.1-0.1c-1.3,0.2-4.3,0.4-6.6,0.6
		c-5.9,0.3-6.6,0.7-8.3,4.9c-0.3,0.9-1,2.1-1.4,2.7c-0.5,0.7-0.6,1-0.3,0.7c0.2-0.2,1.5-1.3,2.9-2.6c4.6-4.1,4.2-4.1,16.1-2.2
		c4,0.6,4.4,0.6,5,0c0.5-0.5,0.5-2,0-2.9l-0.3-0.6l-0.1,0.8c-0.1,1-0.3,1.2-0.4,0.4C203.4,96.9,201.3,94.3,201.3,95.1 M230.6,102
		c-1,1-0.3,2.7,1.1,2.7c1.1,0,1.9-1,1.5-2.1C232.9,101.4,231.5,101.1,230.6,102 M248.5,105.1c-0.8,0.9-1.5,2.1-2.7,4.9
		c-3.3,7.6-9.9,11.4-14.8,8.5c-1.1-0.7-6-6-5.9-6.4c0.2-0.6,0.8-0.5,2.9,0.6c6.9,3.4,10.4,3.1,13.8-1.2c1.8-2.2,2.6-5.1,1.7-6
		c-0.5-0.5-2.4,0-4.4,1.4c-3.9,2.7-10.6,3.4-14.5,1.5c-2.8-1.3-3.4,1.5-1.3,6c0.5,1.1,1.1,2.5,1.3,3.1c0.2,0.5,1.1,2.5,2,4.4
		c2,4.1,2.6,4.7,5.2,6.4c3.8,2.5,5.5,4.1,10.2,9.9c3.5,4.3,4.5,5.2,6.1,5.2c1.3,0,1.5-0.4,1.7-2.7c0.2-2.3,0.3-3.2,0.9-4.7
		c1.2-2.9,0.2-3.6-3.1-2.2c-1.7,0.7-2.6,0.6-4.7-0.3c-0.9-0.4-2-0.8-2.5-0.9c-1-0.3-1.2-0.4-1.4-1c-0.1-0.3,0.1-0.4,1.3-0.7
		c1.8-0.5,8.7-3.3,9.7-3.9c1.3-0.8,3.4-3.6,3.1-3.9c0,0-0.7,0.4-1.5,0.9c-4,2.9-12.8,6.1-12.8,4.6c0-0.2,0.3-0.3,1-0.4
		c4.8-1,8.8-2.7,12.4-5.5c1.4-1.1,1.5-1.2,1.5-2.9l0-1.2l-1,1.3c-2.1,2.6-7.3,6-7.3,4.8c0-0.2,0.5-0.5,1.4-1
		c2.5-1.3,4.9-3.4,6.3-5.6l0.6-0.9l-0.2-1.2c-0.2-1.5-0.4-1.7-0.7-0.8c-0.8,2-3,4.5-4.8,5.6c-1.8,1.1-2,0.3-0.2-0.8
		c3.3-2.1,5.5-6.1,4.7-8.4l-0.4-1.1l-0.2,0.7c-0.8,2.8-4.7,7.5-5.8,7.1c-0.4-0.2-0.3-0.3,0.9-1.3c3.2-2.7,5.1-6.6,4.1-8.9l-0.4-1
		l-0.6,1.7c-1.1,3.2-3.2,6.9-3.8,6.6c-0.4-0.2-0.3-0.5,0.4-1.4c0.9-1.2,1.9-3.1,2.7-5.4c0.8-2.2,0.8-2.5,0.3-3.3
		C249.3,104.4,249.2,104.4,248.5,105.1 M194.7,105.9c-0.7,0.7-0.6,1.7,0.1,2.3c1.6,1.3,3.5-0.7,2.2-2.2
		C196.4,105.3,195.4,105.3,194.7,105.9 M178.7,108.2c-1.6,1.7-1.5,4.6,0.3,12.3c0.5,2,0.5,2.9,0.4,7.4c-0.2,5.5,4.9,11.5,10.2,12.2
		c1.4,0.2,2.3-0.1,4.7-1.4c1.1-0.6,2.3-1.3,2.5-1.4l0.5-0.3l-0.1,0.7c-0.4,2.5-3.1,4.7-5.8,4.7c-0.4,0-2-0.3-3.6-0.7
		c-3.7-0.9-4.5-0.8-3.5,0.6c0.9,1.2,5.8,2.2,9.5,2.1c1,0,1.1,0,1.1,0.3c0.1,0.6-6.2,0.3-8.8-0.5c-0.7-0.2-0.7,0,0.3,1
		c1.2,1.2,4.1,1.6,7.9,1.1c0.6-0.1,0.4,0.6-0.2,0.7c-0.7,0.2-4.3,0.2-5.4,0.1l-0.9-0.1l0.8,1c0.4,0.5,0.8,1,0.8,1c0,0,0.9,0.1,2,0.2
		c1.8,0.1,2,0.1,2,0.4c0,0.3-0.1,0.3-1.7,0.3l-1.7-0.1l0.4,0.6c0.2,0.3,0.5,0.6,0.7,0.6c1.8,0.2,3.2,0.5,3.3,0.7
		c0.2,0.4-0.2,0.5-1.5,0.3c-1.6-0.2-1.6-0.3-0.7,1.6c1,2.4,1.9,5,2.7,8.7c1.3,5.9,1.2,5.7,9.6,10c6.6,3.3,7.9,4.1,11.3,6.6
		c2.6,1.9,4.8,2.7,7.9,2.9c5.2,0.2,7.7-1,11.7-5.9c1-1.2,2.8-3.4,3.9-4.7c6.5-7.5,9.3-13,9.6-18.2c0.1-1.5,0.1-1.5-0.2-1
		c-0.2,0.3-0.7,1-1.2,1.6c-1,1.3-1.8,2.8-2.6,4.9c-3.3,9.2-9.7,14-16.9,12.6c-5.3-1-7.4-0.8-10.3,1.1c-3.1,2.1-3.8,2-2-0.5
		c0.4-0.5,0.8-1,0.8-1.1c0.2-0.3-0.1-0.8-1.3-2.1c-2.9-3.4-4.8-5.2-7-6.7c-1.3-0.9-1.4-1.2-1-2.4c1.4-4.3,4.3-8.4,7.4-10.6
		c1.4-1,1.6-1.5,1.6-3.5c0-0.9,0.1-2.2,0.2-2.9c0.4-1.9,0.4-1.9-0.4-1.9c-0.3,0-1.1,0.2-1.7,0.3c-1.3,0.4-3.1,0.4-4.3,0.1
		c-2.3-0.7-3.3-0.3-5.3,2.3c-3.3,4.4-3.8,5.1-4.4,6.1c-1,2-1.4,4.4-0.9,5.8c0.1,0.2-0.2-0.1-0.5-0.6c-2.7-3.7-1.5-11.3,3.2-20.6
		c2.4-4.8,2.5-5.2,2.2-10.2c-0.2-3.8-0.1-5,1.1-7.5c2-4.4-0.1-5.7-5.9-3.7c-4.1,1.4-5.8,1.3-9.5-0.2c-3.4-1.4-4.5-1.6-5.5-0.7
		c-1.4,1.2,0.3,3.6,4.9,6.8c4.5,3.1,6.4,3,10.4-0.2c0.7-0.5,1.5-1.1,1.8-1.3l0.6-0.3l-0.3,0.6c-3.6,7-7.3,8.1-14.6,4.5
		c-5-2.4-6.9-5.3-7.6-11c-0.2-1.6-0.6-3-0.8-3C179.3,107.5,179,107.8,178.7,108.2 M219.9,139.9c-0.2,0.3-0.1,1.4,0.5,4.3
		c0.5,2.2,0.2,2.8-1.2,2c-1.1-0.6-1.3,0.1-0.5,1.2c1.3,1.8,3.3,2,4.1,0.5c0.4-0.8,0.3-1-1-4.7C220.6,139.5,220.4,139.3,219.9,139.9
		 M224.7,149c-0.3,0.2-1,0.7-1.5,1c-1.1,0.8-1.9,0.8-3.7,0.2c-2.3-0.8-2.8-0.6-5,1.6c-0.8,0.8-2.1,2.1-2.8,2.8
		c-1.6,1.5-1.5,1.5,1,0.3c3.1-1.4,4.8-2,6.5-1.9c3.8,0.1,3.5,0.2,4.7-0.7c1.4-1,1.7-1.1,1.7-0.6c0,0.3,0.1,0.3,0.7,0.3
		c0.4,0,2.1-0.2,3.7-0.3c1.6-0.1,3.4-0.2,4-0.3l1-0.1l-4.2-1.3C226.3,148.5,225.7,148.4,224.7,149 M228.3,156.5
		c-0.3,0.3-0.6,0.7-0.6,0.8c0,0.2-0.2,0.2-0.8,0.2c-0.7,0-0.8,0.1-1.1,0.5c-0.3,0.4-0.4,0.5-0.6,0.4c-0.7-0.5-2.3,0.2-2.3,1
		c0,0.1-0.2,0-0.5-0.2c-0.4-0.3-0.7-0.3-1.5-0.3c-1,0.1-1,0.1-1-0.4c0-1.6-1.8-1.8-2.3-0.3l-0.2,0.6l-0.5-0.5
		c-1.8-1.8-3.2-0.3-2.4,2.6c0.2,0.7,0.7,1.4,1.1,1.4c0.4,0,1.2-0.5,1.3-0.8c0.1-0.3,0.1-0.3,0.6,0.1c0.7,0.7,2,0.5,2.7-0.3
		c0.2-0.2,0.3-0.2,0.8,0.3c0.7,0.7,1.4,0.8,2.1,0.1c0.4-0.3,0.6-0.4,0.8-0.3c0.7,0.5,2.5-0.1,2.5-0.8c0-0.3,0-0.3,0.7,0
		c1.3,0.5,2.3,0.3,2.3-0.7c0-0.5,0-0.5,0.7-0.4c1.9,0.2,2.5-2.5,0.8-3.4C229.9,155.8,229,155.9,228.3,156.5 M233.4,158.1
		c-1.6,2.5-3.8,4-6.8,4.5c-1.6,0.3-3,1-3.6,1.7c-0.2,0.3-0.4,0.4-0.4,0.3c0-0.7-1.5-1.1-5.3-1.3c-2.9-0.2-3.1-0.2-5.2-1.7
		c-1.7-1.2-1.8-1.2-1.3,0c0.5,1.1,2.1,2.6,3.7,3.3c0.7,0.3,1.7,0.9,2.2,1.3c5.1,3.9,14.6,0.1,16.9-6.7
		C234.2,157.3,234.2,156.7,233.4,158.1 M278.3,159.2c-0.2,0.4-0.2,0.4,0.8,0.9c3.9,1.8,6.9,2.8,10.4,3.6c1.9,0.4,2.4,0.8,1.7,1
		c-0.8,0.3-7.5-1.8-11.7-3.6l-1.8-0.8l-0.3,0.4c-0.6,0.8-0.7,1-0.2,1c0.2,0,1.2,0.4,2.1,0.8c2.1,1.1,5.1,2.1,7.7,2.6
		c2.4,0.5,2.4,0.5,2.2,0.8c-0.3,0.8-6.7-1-10.5-2.9c-0.8-0.4-1.6-0.7-1.7-0.7c-0.1,0.1-0.2,0-0.3-0.2c-0.4-0.7-3,4.4-3.8,7.6
		c-0.9,3.4-0.9,6.2-0.1,9.6c0.5,1.8,0.3,1.8,3,0.4c9.6-4.8,15.5-9.6,19-15.3c0.5-0.8,0.8-1.4,0.8-1.4c0,0-1.2-0.2-2.7-0.5
		c-3.8-0.6-11.3-2.6-14.1-3.7C278.6,158.8,278.4,159,278.3,159.2 M302.9,160.6c-1.1,0.3-2.1,0.9-2.7,1.8c-0.7,1-0.6,1.4,0.2,0.8
		c2.1-1.6,5.8-1.3,7.6,0.6l0.6,0.6l-0.9-0.4c-1.9-0.9-4.8-0.5-6.5,1c-0.8,0.7-0.7,0.8,0.2,0.3c1.4-0.6,3.3-0.4,4.4,0.6
		c0.6,0.5,0.6,0.5,0.2,0.4c-1.6-0.6-4,0-5.4,1.3c-1,0.9-1,1-0.3,0.9c1.3-0.2,2.8,0.8,2.8,1.8c0,0.9-0.2,0.9-1.1,0.3
		c-1.9-1.2-4.1-0.7-4.7,1.1c-0.2,0.6-0.1,0.9,0.2,0.6c0.6-0.6,2,0.1,2.2,1.1c0.2,1.1-0.1,2.1-0.4,1.7c-0.8-0.8-2-0.9-3.5-0.1
		c-2,0.9-2.7,2.1-1.3,2c1-0.1,1.8,0.6,1.8,1.6c0,0.9-0.1,0.9-0.8,0.4c-2.3-1.7-5.6-0.7-6.5,2.1c-0.1,0.4-0.1,0.4,0.5,0.3
		c1.2-0.2,2.5,0.8,2.5,2.1c0,0.8-0.2,0.9-0.7,0.4c-1.9-2.1-5.6-1.2-6.4,1.5c-0.3,0.9-0.4,0.8,1.1,1c1.1,0.2,2.1,1.4,1.9,2.3
		l-0.1,0.4l-0.6-0.5c-1.9-1.7-4.3-1.5-6.6,0.6l-0.8,0.8l0.6-0.1c1.7-0.3,3.2,1.7,2.5,3.1c-0.2,0.3-0.2,0.3-0.6-0.2
		c-1.2-1.5-5.1-1.3-4.8,0.1c0.3,2.1,0.3,5.9-0.2,7.2c-0.1,0.2,0,0.3,0.5,0c0.3-0.1,0.8-0.2,0.9-0.2c0.5,0,2.3-1.4,4-3
		c0.9-0.9,2.8-2.6,4.1-3.8c8-7.3,21.1-21.9,22.8-25.6C311.6,163.4,307.7,159.3,302.9,160.6 M184.2,161.8c-1.8,0.5-3.5,2.4-4.1,4.7
		c-1.5,4.9,3,16.8,11.2,30.1c0.5,0.9,1.2,1.4,2.1,1.6c0.6,0.1,0.7,0.2,0.8,0.8c0.6,2.4,1.4,4,1.9,3.4c0.3-0.4,0.8-0.2,1.1,0.4
		c0.1,0.3,0.5,1.1,0.8,1.7c1,2.1,2.4,3.3,3,2.6l0.4-0.4l0,0.5c0,1.1,1,2.6,2.8,4.1c1.3,1.1,1.4,1.1,1.4,0.6c0-0.2,0.2-0.6,0.3-0.8
		l0.3-0.4l0.5,1c0.9,1.8,4,4.3,4,3.2c0-0.4,0.6-1.5,0.7-1.2c0,1.2,1.9,3.6,3.3,4.2l0.7,0.3l0.3-0.7l0.3-0.7l0.1,0.7
		c0.2,1.5,1.3,2.4,3.8,3.4c1,0.4,2.1,0.9,2.4,1.1c0.7,0.4,0.7,0.4,0.9-0.5c0.1-0.8,0.3-0.8,0.7,0c2,3.7,8.1,4.3,11,1l0.6-0.7
		l-0.1,0.5c-0.1,0.6,0,0.7,1.8,0.3c1.4-0.3,2.8-0.9,3.6-1.6c0.7-0.6,0.8-0.6,0.8-0.1c0,0.3,0.1,0.3,0.4,0.2c2.3-0.7,4.1-1.7,5.7-3.1
		c0.8-0.7,1-0.8,1-0.5c0,0.6,1.1,0.3,2-0.6c0.4-0.4,1.2-0.9,1.7-1.2c4.7-2.7,5.2-3.1,6.4-5c0.9-1.4,1.8-3.3,2-4.4
		c0.3-1.8-2.7-1.9-4.9-0.1l-0.7,0.6l0.3,0.6c0.4,0.7,0.4,1.6,0.1,2.3c-0.2,0.5-0.5,0.7-0.5,0.3c0-0.4-1.2-1.4-1.9-1.6
		c-1.1-0.4-2.6-0.1-4.2,0.6l-1.3,0.6l0.7,0.2c2,0.7,2.4,3.1,0.7,4.1c-0.8,0.5-0.9,0.4-0.9-0.5c0-3.3-3.6-4.9-6.1-2.7l-0.5,0.4
		l0.4,0.5c1,1,1.2,2.7,0.6,4c-0.4,0.9-0.6,1-0.5,0.4c0.4-2.6-3-4.3-6.6-3.3l-0.9,0.2l0.7,0.3c2,0.9,2.4,3.7,0.7,4.9
		c-0.4,0.2-0.4,0.2-0.4-0.6c0-1.4-1.3-2.7-3.2-3.2c-0.5-0.1-1.1-0.3-1.2-0.3c-0.3-0.1-0.3,0-0.2,0.2c0.3,0.7,0.3,2.9-0.1,3.6
		l-0.3,0.7l0-1c0-2.4-1.7-4.2-4.4-4.8c-2.5-0.6-4.1,0.9-4.1,3.7c0,0.9,0,0.9-0.3,0.6c-1.4-1.2-1.3-3.8,0.2-5
		c0.7-0.6,0.6-0.8-0.5-1.4c-2.1-1.1-5-0.1-5.8,1.9c-0.4,1.2-0.4,1.2-0.5,0.5c-0.1-1.3,0.7-2.8,1.8-3.3l0.5-0.2l-0.5-0.6
		c-2.3-2.4-6.3-1.5-6.4,1.3c0,0.8-0.1,0.8-0.5,0.1c-0.5-1.1-0.1-2.3,1-2.9l0.5-0.3l-0.4-0.4c-1.6-1.3-4-0.6-4.6,1.4l-0.1,0.5
		l-0.2-0.5c-0.6-1.5,0.5-3.3,2-3.3c0.8,0,0.5-0.2-0.7-0.7c-2.2-0.8-3.5-0.8-4.6,0.3l-0.6,0.5l-0.3-0.4c-1.4-1.7,0.9-4.1,2.5-2.6
		c0.2,0.1,0.3,0.2,0.3,0.1c0-0.2-1.5-1.4-2.3-1.8c-1.2-0.6-2.7-0.5-3.5,0.2c-0.6,0.5-0.8,0.3-0.6-0.6c0.2-1.4,1.6-2.2,2.6-1.5
		c1,0.7,0.3-1.1-0.8-1.9c-1.4-1.1-3.2-1.1-4.6,0l-0.6,0.5l-0.1-0.4c-0.4-1.8,1.9-3.3,3.4-2.1c0.8,0.6,0.6,0.2-0.4-0.8
		c-1.9-2-4-2.3-5.4-0.9c-0.7,0.7-0.8,0.7-0.6-0.1c0.3-1.8,1.9-2.8,3.6-2.2c0.9,0.3,0.9,0.3,0.5-0.5c-1.1-2.2-3.6-3-5.8-1.9
		c-1,0.6-1.2,0.5-1-0.5c0.3-1.8,2.4-2.9,4-2c0.8,0.4,0.7,0.2-0.3-0.7c-2.1-1.7-4.4-1.9-5.6-0.4l-0.3,0.4v-0.7c0-1.8,2.1-3.3,3.2-2.3
		c0.4,0.3,0.5,0.1,0.1-0.4c-0.8-1-2.9-1.4-4.2-0.8l-0.6,0.3v-0.5c0-1.5,2-2.7,3.4-1.9c0.4,0.2,0.5,0.2,0.4,0
		c-0.1-0.2-0.3-0.8-0.5-1.5c-0.8-3-3.5-2.9-4.5,0.1l-0.2,0.7l-0.2-0.5c-0.6-1.4,1.6-3.8,3.2-3.6c0.9,0.1,0.4-0.8-0.6-1.2
		c-1.4-0.6-2.7,0-3.5,1.6l-0.4,0.9l0.1-0.9c0.2-2.4,1.5-3.5,3.6-2.9c0.8,0.2,0.3-2.2-0.5-2.8c-0.8-0.6-2.4-0.1-3.3,1l-0.3,0.4
		l0.1-0.6c0.3-1.4,1.7-2.1,3-1.5l0.8,0.3l-0.1-0.8c-0.1-1.1-0.5-1.4-1.8-1.5c-1.3-0.1-1.3-0.2-0.5-0.8c1.5-1.2,3.4-1.3,4.6-0.2
		l0.4,0.4l0.1-0.5C188.7,162.6,186.3,161.2,184.2,161.8 M277.3,164.6c2.8,1.6,6,2.7,8.9,3.2c0.8,0.1,1.1,0.8,0.3,0.8
		c-2.7,0-11.1-3.4-11.1-4.4C275.4,163.6,275.9,163.8,277.3,164.6 M278.6,168.3c0.9,0.4,2.3,0.9,3.2,1.2c1.5,0.5,2.3,1.2,1.3,1.2
		c-0.9,0-7.2-2.6-8.3-3.4c-0.9-0.7,0-0.8,1.1-0.2C276.5,167.3,277.7,167.9,278.6,168.3 M312.2,170.3c-5.6,11.2-13.1,20.4-28.1,34.4
		c-12,11.2-25.6,20.6-44.3,30.8c-8.3,4.5-10.7,7.4-14.3,17.6c-3.5,9.9-6.1,18.3-8.1,26.5c-1,4.1-1,4.1-1.2,1.2
		c-0.9-11-0.6-19.9,1-29.1c1.7-9.8,1.1-11.9-5.3-19.9c-6-7.5-9.5-11.6-14.1-16.5c-7.4-7.9-9.9-11.1-12.9-17.1
		c-3.9-7.8-7.1-20.9-7.1-29.2c0-1.4,0-1.4-1.5-0.4c-0.7,0.4-1.3,0.8-1.4,0.8c-0.1,0-0.1,1.1-0.1,2.4c0,1.9-0.1,2.4-0.2,2.6
		c-0.5,0.4-0.6,0-0.6-2.2c0-1.2,0-2.2-0.1-2.2c-0.1,0-0.4,0.2-0.8,0.4c-1.9,1.1-6.6,2.8-9.3,3.4c-0.8,0.2-1.5,0.4-1.6,0.5
		c-0.8,0.6,0.9,10.3,5,29.3c2.1,9.8,2.4,12.2,2.1,19.5c-0.8,19.7-0.4,40.9,0.9,49.2c1.8,10.9,4.6,16.4,12.7,25.5
		c9.9,11.1,11.8,14.1,13.1,20.8c1.3,6.6,1.4,13.5,0.1,16.3l-0.4,0.8l-0.1-1.2c-0.1-0.6-0.4-2.4-0.8-3.8c-0.4-1.5-0.8-3.3-1-4
		l-0.3-1.3l-0.2,1.9c-0.4,3.7-1.2,7-1.7,6.9c-0.4-0.1-0.3-0.3,0.2-2.6c1.6-6.9,1.3-13.1-0.9-17.1l-0.5-1l0.1,1.1
		c0.5,7-0.3,18.3-1.4,18.3c-0.4,0-0.4,0.1,0.2-3.6c0.8-5.3,0.9-13.8,0.2-17.2l-0.1-0.6l-0.2,0.4c-0.2,0.3-0.3,1.5-0.4,4.7
		c-0.2,6.2-0.8,9.3-3.1,14.2c-2.9,6.4-2.4,7.3,7.9,13c17.4,9.7,20.1,10.3,41.5,10.6c25.3,0.3,30.9-0.7,46.6-7.6
		c14.5-6.4,17.5-8.8,25.2-20.3c3.9-5.8,4.2-9.1,1.5-15.1c-0.7-1.6-1.3-3.1-1.4-3.3c-0.2-0.8-0.3-0.7-1.7,0.5c-1.2,1-1.3,1.2-1.3,1.7
		c0,1-0.7,1.4-0.9,0.5c-0.1-0.3-1.8,0.8-3.9,2.7c-0.2,0.2-0.4,0.7-0.7,1.7c-0.2,1.2-0.4,1.4-0.6,1.4c-0.5,0-0.5-0.2-0.2-1.2
		c0.3-1.2,0.3-1.2-1.1-0.1l-1.2,0.9l-0.6,2.2c-0.3,1.2-0.7,2.2-0.8,2.3c-0.4,0.1-0.4-0.5-0.1-2.1c0.5-1.9,0.5-1.9-1.1-0.7l-1.3,0.9
		l-0.6,1.7c-0.5,1.6-0.8,2-1.1,1.5c-0.1-0.1,0.1-0.7,0.3-1.3c0.5-1.4,0.5-1.4-1.2-0.3l-1.4,0.9l-0.5,1.6c-0.3,1.1-0.6,1.7-0.8,1.7
		c-0.4,0.1-0.5-0.3-0.1-1.4c0.4-1.3,0.4-1.3-0.3-0.9c-3,1.9-4.8,2.8-5,2.6c-0.4-0.3-0.3-0.4,1-1.2l1.2-0.7l0.6-2
		c0.8-2.6,0.8-2.5-0.6-1.6c-1.1,0.7-1.7,0.9-1.7,0.4c0-0.1,0.7-0.7,1.6-1.3l1.6-1.1l0.4-1.5c0.2-0.8,0.4-1.6,0.4-1.6
		c0-0.1-1.3,0.4-2.9,1.1c-5,2.1-7,2.5-7.7,1.2c-0.5-0.9-0.2-1.2,8.2-6.6c11.4-7.4,15.1-11.2,21.1-21.5c7.3-12.7,8.8-21.5,6.7-39.8
		c-0.3-2.3-0.4-2.5-2.4-2.9c-10.4-2-16.4-13.9-13.1-25.9c3.6-13.1,14-25.7,30.3-36.7l2.7-1.8l-2.9-2.8c-1.6-1.5-4-3.9-5.3-5.2
		c-1.3-1.3-2.5-2.4-2.5-2.3c0,0-0.3,0.5-0.5,1c-0.7,1.3-1,1.7-1.3,1.4c-0.2-0.2-0.1-0.4,0.5-1.6l0.8-1.4l-1.7-1.7l-1.7-1.7
		L312.2,170.3 M278.3,171.1c1.9,0.7,2.3,1,2,1.3c-0.2,0.2-5.5-1.8-5.7-2.1c-0.3-0.4,0.2-0.6,1-0.3
		C276,170.3,277.2,170.7,278.3,171.1 M277.8,174.3c0,0,0.1,0.1,0.1,0.3c0,0.2-0.1,0.3-0.2,0.3c-0.4,0-3.7-1.4-3.7-1.6
		c-0.2-0.5,0.4-0.5,2.1,0.2C277,174,277.8,174.3,277.8,174.3 M315.2,175c0,0.6-3.2,4.9-3.6,4.9c-0.5,0-0.4-0.5,0.5-1.5
		c0.5-0.6,1.3-1.7,1.8-2.4C314.7,174.7,315.2,174.3,315.2,175 M276.4,176.4c0.1,0.4,0,0.4-1.2,0.4c-1.3,0-1.6-0.2-1.3-0.6
		C274.3,175.8,276.3,175.9,276.4,176.4 M175.3,178.7c0.1,1,0.2,2.4,0.4,3c0.3,1.5,0.3,1.7-0.1,1.7c-0.6,0-1.4-5.2-1-6.2
		C175,176.2,175.2,176.9,175.3,178.7 M144.1,177.9c-1.7,0.4-4.2,1.6-6.5,2.9c-11.7,7-17.6,13.8-23.3,27.2
		c-3.1,7.2-4.7,10.1-7.2,13.2l-1.1,1.4l0.6-0.1c4.4-0.9,12.6-4.4,13.7-5.7c0.4-0.4,1-1.1,1.5-1.5c2.2-1.8,2.5-1.7,1.8,0.6
		c-1.7,5.6-1.2,11.7,1.2,16.9c0.5,1.1,0.6,1.6,0.1,1.6c-0.5,0-1.8-3.3-2.5-6c-0.9-3.9-0.9-8.6,0.2-12.3c0.3-1-0.3-0.7-1.5,1
		c-4.1,5.4-2.7,14.2,3.6,21.7c2.1,2.6,6,5.6,5.5,4.4c-0.4-1.1-0.1-4.6,0.5-5.5c0.2-0.3,0.2-0.3,0.2,0.1c0,1.9,2.6,6.6,3.6,6.6
		c0.5,0,0.6-0.6,0.1-1.1c-1.7-1.6-3.8-8.1-2.5-8.1c0.2,0,1.4,2.2,1.9,3.4c1.4,3.4,5,7.7,5.5,6.4c0.1-0.2-0.1-0.5-0.7-1.1
		c-1.6-1.6-3.7-4.7-2.9-4.1c1,0.7,2,1.2,3.8,2.1c3.7,1.6,5,2.8,7.1,6.4c0.7,1.3,0.7,1.2,0.8,1.2c0,0,0.3-1.4,0.5-3
		c0.7-4.7,0.9-4.8,3-2.5c3.6,4.1,5.5,7.3,6.1,10.4l0.3,1.4l0-2.9c0-6.9,0.5-12.2,1.4-17c1.5-7.6,1.6-23,0.1-23.4
		c-2.1-0.7-4.1,5.5-4.3,13.1c0,0.4-0.4-0.5-0.7-1.6c-0.8-2.9-0.2-5.9,1.8-9.9c2.2-4.4,2.1-5.6-0.8-9.9c-0.8-1.3-1.9-3-2.4-3.8
		c-0.5-0.8-0.9-1.5-0.9-1.6c0,0-0.2,0.1-0.3,0.3c-0.3,0.5-2.6,2.1-4.5,3.2c-2.2,1.3-8.1,3-8.7,2.4c-1-1.1,2.1-6.3,4.6-7.9
		c1.7-1.1,4.4-2,3.8-1.3c-0.2,0.2-0.1,0.2,0.8,0c0.6-0.1,1.1-0.2,1.2-0.1c0.3,0.3-0.1,0.6-0.8,0.7c-1.2,0.2-2.8,0.7-3.3,1.2L144,198
		l0.8-0.3c1.3-0.4,2.8-0.5,2.8-0.1c0,0.3-0.2,0.4-1.2,0.5c-1.6,0.3-3.8,1.3-4.1,1.9l-0.2,0.4l0.9-0.3c1.5-0.5,2.9-0.6,2.9-0.2
		c0,0.3-0.2,0.4-1.3,0.6c-0.7,0.1-1.6,0.4-2,0.6l-0.7,0.3l1,0c4.3,0,11.1-8.1,10.5-12.5c-0.6-3.9-6.9-6.3-10.6-4.1l-0.9,0.6l0.3-0.5
		c0.7-1,1.9-1.6,4.2-2.2c3-0.8,4.5-0.6,6,0.8c1.1,1,1.2,1.1,1.8,0.8c1.8-0.9,0.4-4.5-2.3-6.1C150.1,177.4,146.9,177.2,144.1,177.9
		 M227.6,178.8c0.3,0.4,0,0.5-1.2,0.5c-1.2,0-1.6,0.2-3,1.1c-0.5,0.4-0.8-0.1-0.3-0.6C224,178.8,227,178.2,227.6,178.8 M239.9,179.1
		c0,0.1-0.2,1.2-0.4,2.4c-0.5,2.6-0.5,2.5,0.6,1.7c1-0.7,1-0.7,0.5-2.6C240.3,179.4,239.9,178.6,239.9,179.1 M226.7,180.2
		c0,0.2-0.2,0.4-0.5,0.5c-0.3,0.1-0.6,0.3-0.7,0.5c-0.2,0.4-0.6,0.4-0.8,0.1c-0.1-0.3,0.4-0.9,1-1.2
		C226.3,179.7,226.7,179.8,226.7,180.2 M310.3,181.5c0.2,0.3-2.9,4.7-3.3,4.7c-0.5,0-0.3-0.5,1-2.4C309.7,181.2,310,181,310.3,181.5
		 M247.7,182.7c-0.4,0.5-2.2,3-3.9,5.5c-1.8,2.5-3.2,4.4-3.2,4.3c0-0.1,0.1-0.4,0.2-0.8c0.1-0.3,0.1-0.6,0-0.6
		c-0.6,0.2-5.9,5.4-6.4,6.2c-1.7,2.7-4.1,4.3-5.6,3.6c-0.6-0.3-0.7-0.6-0.1-0.7c2.7-0.6,5.3-2.5,4.5-3.2c-0.2-0.2-0.4,0-1.3,0.6
		c-2,1.6-4,2.1-4.9,1.1l-0.5-0.6l1.3-0.4c3.2-1.1,6.9-4.3,5.6-4.8c-0.2-0.1-0.6,0.2-1.3,0.9c-2.8,2.7-5.7,3.8-7.5,3
		c-2.7-1.3-6.8-1.2-6.3,0.3c0.2,0.5,8.7,9.3,9.2,9.6c2.1,1.1,3.7,0.3,9.1-4.5c7.1-6.2,10.7-10.2,13.7-14.9l0.9-1.4l-0.8-0.9
		c-0.7-0.8-1.1-1.5-1.6-2.7C248.5,181.8,248.5,181.8,247.7,182.7 M239.9,184.3c-0.9,0.7-1.1,1-1.3,1.5c-0.5,2-0.7,2.6-0.6,2.7
		c0,0,0.8-0.5,1.6-1.1l1.6-1.1l0-1C241.3,183.4,241.2,183.3,239.9,184.3 M329.8,183.7c-3.1,0.7-5.6,2.4-7.1,4.8
		c-0.7,1.2-0.7,1.2,1.1,0.1c2.8-1.7,5.2-2,7.4-0.9c1,0.5,1,0.5,0.6,0.5c-1.6,0-8.3,2-11.5,3.4c-6.3,2.7-8.5,9.1-4.6,13.4l0.8,0.8
		l-1.5-0.1c-3.4-0.2-5.8-2.9-4.6-5.3c0.4-0.9,0.1-0.6-1.5,0.9c-7.5,7.5-10.7,21.4-6.6,29.2c0.7,1.4,1.4,2.1,2.7,2.8
		c0.5,0.3,1.1,0.7,1.3,0.9c0.5,0.5,0.5,0.4-0.2-1.3c-0.7-1.7-1.3-4-1.5-5.5c-0.1-0.9-0.1-1,0.1-0.6c0.6,1.8,1.6,3.4,1.9,3.4
		c0.6,0,0.6-0.3-0.1-1.7c-1.7-3.5-2-7.5-0.7-11.2c0.5-1.6,0.1-1.6,4.9,0.5c2.2,1,4.1,1.8,4.1,1.8c0,0-0.6-1.9-1.5-4.2
		c-0.9-2.3-1.6-4.2-1.5-4.2c0,0,1.7-0.5,3.7-1c4.2-1.1,3.8-0.9,3.5-2.1c-0.7-3.6,2.5-7.7,7.1-9c1.6-0.4,6.4-0.4,9,0.1l1.9,0.3v-0.7
		c0-2-1.2-4.6-2.9-6.4l-1.2-1.2l0.8-0.1c2.6-0.3,5.5,1.3,8.7,4.8c3,3.3,5.7,5.7,6,5.3c0,0-0.3-0.8-0.7-1.6c-0.4-0.9-1.2-2.9-1.8-4.5
		c-1.9-5.1-2.7-6.6-4.6-8.4C338.5,184.1,333.7,182.8,329.8,183.7 M176.5,187c0,0.1,0.2,0.9,0.3,1.7c0.1,0.8,0.5,1.9,0.7,2.4
		c0.4,0.9,0.4,1.2,0,1.2c-0.5,0-1.6-3.1-1.6-4.7C175.9,186.8,176.3,186.4,176.5,187 M230,187.7c-1.1,1-3.7,2.7-5.3,3.5
		c-1.3,0.7-1.7,1.2-0.8,1.4c1.2,0.2,8.1-4.6,7.8-5.4C231.5,186.8,230.9,186.9,230,187.7 M239.7,188.1c-2.2,1.6-2.2,1.7-2.8,3.2
		c-0.3,0.8-0.6,1.7-0.8,2.1c-0.5,1.1-0.3,1,2.3-1.4c2.7-2.5,2.8-2.6,2.7-4.3l-0.1-0.6L239.7,188.1 M232.7,189.1
		c-2.3,2.1-4.2,3.4-7.2,4.8c-2.1,1-2.7,1.7-1.4,1.6c2.1-0.2,10.7-6.1,10.3-7.1C234.3,187.9,233.8,188.1,232.7,189.1 M253.1,190.2
		c-0.8,1.1-2,2.8-2.7,3.7c-1.6,2.1-1.5,2.1,0.4,0.2c1.4-1.3,4.3-3.7,5.2-4.2c0.3-0.2,0.3-0.2-0.4-0.9
		C254.5,187.9,254.6,187.9,253.1,190.2 M304.9,188.7c0.1,0.5-3.1,4.4-3.5,4.2c-0.3-0.2-0.2-0.7,0.1-0.9c0.2-0.1,0.9-1,1.6-1.9
		C304.4,188.4,304.7,188.1,304.9,188.7 M186.5,192.6c-0.6,0.6,5.1,9.4,9.7,14.8c0.9,1,2.1,2.6,2.8,3.6c4.3,6.1,7.6,10.1,12.5,15.1
		c4,4.1,4,4.1,4,3.7c0-0.6,0.9-2.6,1.2-2.6c0.3,0,0.3,0.2,0.3,1.2c0.1,3.2,0.2,4,1.1,5.3c1.7,2.6,3.3,6.3,3.7,8.9
		c0.2,1.1,0.5,1.6,0.5,0.9c0-0.6,1.3-7.9,1.6-8.7c0.4-1.3,1.2-1.7,1.7-0.9c0.3,0.5,0.3,1.4-0.5,4.9c-0.3,1.4-0.6,3.1-0.7,3.7
		l-0.1,1.1l0.4-1c0.2-0.6,0.7-1.8,1.1-2.7c0.4-1,0.9-2,1.2-2.4c0.3-0.4,0.6-0.8,0.7-1c0.4-0.6,0.7-0.1,0.7,1.2
		c0,1.5-0.1,1.5,1.7-0.6c1.6-1.9,5-5.2,5.8-5.7c0.7-0.4,1.2-0.4,1.8,0.1c0.6,0.5,0.9,0.5,2.7-0.6c1.4-0.8,3.9-3.1,4.7-4.2l0.5-0.7
		l0.1,0.6c0.1,0.4,0.2,0.7,0.2,0.7c0.2,0.2,2.8-1.4,4.2-2.6l0.9-0.7l-1-0.5c-1-0.5-1.7-1.4-1.7-2c0-0.4-0.3-0.6-1.1-0.6
		c-0.8,0-1.4,0.6-2.6,2.3c-1.1,1.7-1.7,2.2-2.5,2.6c-0.9,0.4-1,0.3-0.7-0.2c0.4-0.9,0.3-2.4-0.3-2.6c-0.6-0.2-2.1,0.9-2.9,2.2
		c-0.7,1.1-1,1.1-1,0c0-2.2-2.5-0.6-4.5,2.7c-2.9,4.9-4,4.6-2.6-0.8c0.1-0.4,0-0.3-0.8,0.2c-1.7,1-3.4,0.7-5-0.8
		c-2.2-2.2-3.4-1-3.6,3.4c-0.1,2.4-0.2,2.5-0.8,1.3c-0.6-1.3-0.8-2.6-0.6-3.8c0.5-2.3,0.4-2.5-0.4-3.3c-0.9-0.9-1.5-0.9-2.4,0
		c-0.8,0.7-1.4,0.1-1.4-1.5c0-0.7-0.3-1.1-1-1.3c-0.7-0.3-1,0.3-0.9,1.6c0,0.6,0,1,0,1c-1.3,0-4.2-4.2-4.6-6.6
		c-0.3-1.5-0.5-1.8-1.4-1.5c-0.9,0.3-1.1,0.1-2.2-1.5c-1.2-1.8-3.4-4-5.7-5.5c-1.4-0.9-2.1-1.6-3-2.6c-2.9-3.5-5.8-7.6-7.9-11.3
		C187.3,192.6,186.9,192.2,186.5,192.6 M299.5,195.3c0,0.4-4.2,5-4.5,4.9c-0.5-0.2-0.1-0.8,1.9-3
		C298.8,195.1,299.5,194.6,299.5,195.3 M179.8,196.5c0.2,0.5,0.8,1.6,1.3,2.3c0.9,1.4,1,1.7,0.5,1.7c-0.6,0-3.1-4.5-2.7-4.9
		C179.1,195.3,179.4,195.6,179.8,196.5 M292.2,202.7c0,0.6-3.8,4.3-4.1,4c-0.2-0.2-0.1-0.4,1.6-2.3
		C291.5,202.6,292.2,202.1,292.2,202.7 M185,205.2c0.2,0.5,0.9,1.3,1.4,1.9c0.9,0.9,1,1.4,0.5,1.4c-0.6,0-2.6-2.6-2.9-3.7
		C183.8,203.8,184.5,204.2,185,205.2 M286.1,208.9c0.2,0.4-3.7,4.6-4.8,5.1c-1.1,0.5-0.6-0.3,1-1.9c1-0.9,2-2,2.4-2.5
		C285.4,208.8,285.9,208.6,286.1,208.9 M333,210.2c-0.3,0.5-0.8,1.3-1.2,1.9l-0.8,1l-0.6-0.6c-1-1-3.7-2-4.1-1.6
		c-0.1,0.1,0.4,3.1,1,6.7c0.6,3.6,1.1,6.6,1.1,6.6c0,0-0.8-0.4-1.7-1c-1.7-1-3.3-1.8-3.9-1.8c-0.6,0-0.4,2,0.4,4.4
		c0.4,1.1,0.8,2.8,1.1,3.8l0.4,1.8l-0.6-0.5c-3.4-2.8-5.8-3.7-8.1-2.9c-2.1,0.7-1.7,2.3,1.4,5.2c6.5,6.1,8.1,8.9,11.2,19.9
		c2.7,9.7,4.7,15.8,7.4,22.8c3.2,8.3,3.6,9.6,6.4,20.6c2.8,11,4.5,16.6,4.9,15.9c1.8-3.1,3.6-5.4,5.7-7.5l1.3-1.3l-0.2-1.9
		c-0.1-1.1-0.3-1.9-0.3-1.9c-0.1,0-1.3,1.4-2.6,3c-1.4,1.6-2.6,3-2.8,3.1c-0.8,0.2-0.3-0.6,2.3-3.7c1.5-1.8,2.8-3.3,2.9-3.5
		c0.2-0.2,0.2-0.6,0-1.5l-0.2-1.3l-0.5,0.3c-0.3,0.2-1.2,1-2.1,1.8c-1.6,1.6-1.8,1.7-1.9,1.3c-0.1-0.4,1.3-2.1,2.8-3.2
		c0.7-0.5,1.4-1,1.4-1.1c0.3-0.2-1.9-12.3-3.7-21c-0.5-2.2-0.8-3.9-0.8-4c0.1-0.1,2.9,5.6,3.6,7.4c2.4,5.8,4.1,12.3,6.2,22.7
		c2.8,14.5,2.8,16.3-0.3,25.6c-2.3,7-2.6,8.7-2,14.6c0.2,2,0.2,3.7,0.1,7.7c-0.1,5.5,0,6.5,0.7,8.1c0.5,1.1,0.5,1.1,0.9-0.9
		c0.9-4.2,2.3-7.2,4.5-9.5c1.8-1.9,1.9-1.9,1,0.4c-0.4,1.1-1.4,3.7-2.2,5.8c-4.3,11.2-6.7,14.3-8.3,10.6c-0.5-1-0.4-3.8,0-7.8
		c0.3-2.8,0.4-14.9,0.1-20.4l-0.1-1.7l-0.5,0.4c-1.3,1.2-1.7,2.9-2,7.4c-0.8,14.5-2.6,27.8-6.3,46.7c-0.7,3.7-0.7,3.9,0.6,2.8
		c0.9-0.8,1.3-1.8,2.1-4.7c1.4-5.4,2.1-7,3-6.6c0.5,0.3,1,1.1,1.3,2.5c1,4.6,1.7,5.6,3.8,5.5c1.4,0,4.7-2.2,4.7-3.1
		c0-0.7-0.3-0.6-1.4,0.4c-1.1,1-1.5,1.2-1.6,0.8c-0.1-0.2,0.4-0.6,1.2-1.4l1.3-1.1l-0.6-1.2l-0.6-1.2l-1,0.9
		c-0.6,0.6-1.1,0.9-1.3,0.8c-0.3-0.1-0.3-0.5,0-0.7c0.1-0.1,0.6-0.5,1.1-0.9l0.9-0.8l-0.6-1.1c-0.3-0.6-0.5-1.2-0.4-1.3
		c0.2-0.4,0.6-0.1,1,0.8c0.6,1.2,0.5,1.2,1.4,0.4l0.7-0.6l-0.6-0.8c-0.3-0.4-0.6-0.9-0.5-1c0.2-0.3,0.7-0.1,1.1,0.5l0.5,0.7l1.1-0.9
		c1.3-1.1,1.2-0.8,0.5-2.1c-0.7-1.2-0.7-1.4-0.3-1.4c0.2,0,0.5,0.3,0.8,0.9c0.6,1.1,0.5,1.1,1.9-0.2c1.3-1.4,1.4-1.5,0.3-2.8
		c-0.9-1-1-1.3-0.6-1.5c0.1-0.1,0.5,0.2,1,0.8l0.8,0.9l0.2-0.7c0.1-0.4,0.7-2.9,1.4-5.7c2.9-12.2,3.8-14.1,8.1-16.1
		c3.2-1.5,3.4-3.4,1.1-7.5c-1.1-2-1.4-2.8-1.4-4c0-1-0.1-0.8,1.9-4.5c1.5-2.9-0.8-6.5-4.2-6.5c-2.4,0-5.2,3.3-5.9,7.2l-0.2,1.1
		l-0.3-0.8c-0.8-2-0.3-4.6,1.4-7.5c1.9-3.2,2-3.5,2-5.5c-0.1-7.6-6.8-33.6-13-50.3c-1.6-4.4-11.4-28.8-11.5-28.7
		c-0.3,0.3,4.1,11.8,5.1,13.5c0.8,1.3,0.8,1.8-0.1,2.3c-0.6,0.4-0.8,0.4-0.7,0.1c0.1-0.1-0.1-0.4-0.2-0.6c-0.2-0.2-0.5-0.7-0.6-1
		c-0.5-1.1-1.2-1-1,0.1c0.1,0.3,0.4,0.9,0.7,1.3l0.6,0.7h-0.6c-2.1,0-2.5-0.5-1.7-2.1c0.6-1.2,0.6-1.3,0.2-1.1
		c-1.7,0.5-2.1,0.6-3,0.5c-2.6-0.3-4-2.7-2.8-4.8c0.4-0.7,0.9-1.2,2.4-2.5l0.4-0.3l-0.5,0.1c-5.5,1.3-7.6-3-2.8-5.9
		c0.7-0.4,0.8-0.6,0.5-0.5c-2.8,0.6-5.1,0-5.1-1.5c0-2.1,3.8-5.9,5.9-5.9c0.4,0,0.4,0,0.3-0.5c-0.1-0.3-0.2-1.4-0.4-2.4
		c-0.3-2-0.7-4.1-1.3-5.7c-0.4-1.3-2.1-5.5-2.3-5.7c-0.1-0.2-2.1,2.7-3.2,4.7c-0.6,1.1-1.3,1.6-1.3,1c0-0.3,1.3-2.6,2.8-4.8
		c1.2-1.9,1.3-1.9,1-2.4l-0.2-0.5l-1,1.5c-0.5,0.8-1.5,2.4-2.2,3.6c-1.5,2.5-1.5,2.6-1.8,2.3c-0.3-0.3,1.1-2.7,3.3-6.1l1.3-2
		l-0.3-0.6l-0.3-0.6l-0.9,1.4c-0.5,0.8-1.4,2.5-2,3.7c-1.4,2.9-1.3,2.8-1.6,2.8c-0.6,0,1-3.7,3.1-7.2l1-1.6l-0.4-0.8l-0.4-0.8
		l-0.8,1.1c-0.9,1.3-2.1,3.4-2.6,4.6c-0.4,0.9-1,1.2-1,0.6c0-0.7,2-4.4,3.6-6.5l0.4-0.5l-0.4-1C333.5,209.1,333.6,209.1,333,210.2
		 M190.4,212.3c0.4,0.6,1.1,1.3,1.5,1.7c0.8,0.7,1,1.1,0.5,1.2c-0.6,0.1-3.5-3.1-3.2-3.7C189.3,211.1,189.7,211.3,190.4,212.3
		 M277.6,216.9c0.1,0.2-0.4,0.6-1.2,1.2c-0.7,0.5-1.6,1.3-2.1,1.7c-0.8,0.7-1.3,0.8-1.3,0.3c0-0.4,3.7-3.4,4.2-3.4
		C277.4,216.6,277.6,216.7,277.6,216.9 M195.3,218.3c1.1,1.1,2.2,2.9,2.1,3.3c-0.2,0.5-0.5,0.2-1-0.7c-0.3-0.5-1-1.4-1.5-2
		c-0.7-0.7-1-1.2-0.9-1.3C194,217.1,194.3,217.3,195.3,218.3 M270.1,222.5c0.3,0.4-4.3,3.9-4.9,3.7c-0.6-0.1-0.3-0.5,1-1.4
		c0.8-0.5,1.9-1.3,2.5-1.8C269.8,222.2,269.8,222.2,270.1,222.5 M200,225.8c1.2,1.8,1.3,2,0.8,2c-0.4,0-2.6-3.2-2.4-3.5
		C198.6,223.9,199,224.2,200,225.8 M261.5,228c0.2,0.5-5.2,3.8-5.8,3.5c-0.5-0.2-0.2-0.5,1-1.2c0.7-0.4,1.9-1.1,2.8-1.6
		C261.1,227.7,261.3,227.6,261.5,228 M205.8,232.1c1.6,1.6,1.9,2.1,1.4,2.2c-0.3,0.1-3.8-3.4-3.7-3.7
		C203.7,230.2,204.2,230.5,205.8,232.1 M251.7,233.8c0,0.2-0.5,0.7-1.5,1.4c-0.9,0.6-1.9,1.3-2.2,1.6c-0.7,0.5-1.1,0.5-1.1,0.1
		c0-0.2,2.4-2,4-3.1C251.4,233.4,251.6,233.4,251.7,233.8 M340.4,234.7c-0.2,1.5,0.8,4.2,1.6,4.2c0.4,0,0.6-0.5,0.3-0.8
		c-0.6-0.8-0.9-1.8-1-2.9c0-0.6,0-1.1-0.1-1.2C341.3,233.5,340.5,234,340.4,234.7 M338.9,235c-0.6,0.6,0.1,3.9,0.9,4.3
		c0.6,0.2,0.7-0.4,0.3-1.3c-0.3-0.6-0.4-1-0.4-1.9C339.7,234.9,339.4,234.5,338.9,235 M210.9,237.4c1.4,1.4,2.5,3.5,1.8,3.5
		c-0.3,0-0.5-0.2-0.8-0.9c-0.2-0.5-0.8-1.4-1.3-1.9C209.1,236.6,209.4,235.9,210.9,237.4 M334.8,236.9c0.1,0.1,0,0.6-0.2,1
		c-0.3,1-0.3,1.9,0,2.6c0.2,0.4,0.2,0.6,0.1,0.8c-0.6,0.6-1.3-1.3-1.1-2.6C334,237,334.5,236.2,334.8,236.9 M336.9,237
		c-0.3,0.4,0.2,2.1,0.9,2.6c0.6,0.5,1.2-0.3,0.6-0.9c-0.2-0.2-0.5-0.7-0.6-1.1C337.6,236.8,337.2,236.6,336.9,237 M243.7,239.3
		c0,0.1-0.6,0.5-1.3,0.9c-0.7,0.4-1.8,1.1-2.3,1.6c-1,0.8-1.5,1-1.5,0.4c0-0.1,0.5-0.7,1.2-1.2C242.2,239.2,243.7,238.5,243.7,239.3
		 M343.2,241.1c-0.5,1.4,0.7,4.8,1.6,4.4c0.4-0.1,0.3-0.6-0.2-1.5c-0.4-0.6-0.5-1.1-0.5-1.9C344.1,240.6,343.6,240,343.2,241.1
		 M340.9,241.2c-0.5,1.3,0.8,5.1,1.7,4.9c0.5-0.1,0.4-0.5-0.1-1.4c-0.4-0.7-0.5-1.1-0.6-2.2C341.8,241,341.3,240.3,340.9,241.2
		 M338.6,243c-0.5,1.3,1.2,3.8,1.8,2.7c0.1-0.2,0.1-0.4-0.4-0.9c-0.3-0.4-0.5-0.8-0.5-1.1C339.5,242.9,338.9,242.3,338.6,243
		 M214,245.9c0,2.4,0,2.5-0.3,2.5c-0.3,0-0.3-0.1-0.4-2.3c-0.1-2.5,0-2.8,0.4-2.7C214,243.4,214,243.6,214,245.9 M236.4,244.2
		c0,0.1-0.5,0.8-1.1,1.5c-0.6,0.7-1.3,1.6-1.6,2.1c-0.5,1-0.6,1.1-0.9,0.7c-0.2-0.2-0.1-0.4,0.1-0.8
		C233.9,245.6,236.4,243.2,236.4,244.2 M336.3,245.3c0.2,0.6,0.4,1,1,1.5c0.6,0.5,0.7,0.7,0.6,0.9c-0.5,0.5-2-0.9-2.3-2.3
		C335.3,244.1,336,244.1,336.3,245.3 M345.4,247.5c-0.4,1,1.1,4.4,1.8,4.2c0.4-0.1,0.4-0.4-0.1-1.4c-0.4-0.7-0.5-1.3-0.8-2.6
		C346.2,247.2,345.6,247.1,345.4,247.5 M343.2,248.3c-0.4,0.5,0.5,3,1.5,4.1c1,1.2,1.7,0.6,0.7-0.7c-0.6-0.9-1.2-2.3-1.2-2.8
		C344.2,248.3,343.6,247.9,343.2,248.3 M120.2,249.4c0.9,2.2,1.2,5.1,0.8,10.1c-0.1,2.2-0.3,4.6-0.3,5.3v1.3l0.7-0.4
		c0.4-0.2,0.8-0.4,0.8-0.3c0.3,0.3,0,0.7-0.8,1.2l-0.9,0.5l0.9,0.5l1,0.5l1.2-0.6c1.1-0.5,1.7-0.6,1.7-0.2c0,0.1-0.5,0.4-1,0.7
		l-1,0.5l0.7,0.5l0.7,0.5l1.4-0.7c1.6-0.7,2-0.8,2-0.4c0,0.2-0.4,0.5-1.4,0.9l-1.4,0.6l0.5,0.4l0.5,0.4l1.7-0.8
		c0.9-0.4,1.8-0.8,1.9-0.7c0.7,0.1,0.3,0.5-1.2,1.2c-1.7,0.8-1.8,0.8-1.2,1.4l0.4,0.4l1.6-0.8c1.8-0.9,2.1-1,2.1-0.5
		c0,0.2-0.5,0.5-1.6,1.1c-1.7,0.8-1.8,0.9-0.9,1.7c0.4,0.4,0.4,0.7,0.1,0.9c-0.2,0.1-0.5-0.2-0.9-0.6l-0.6-0.7l-0.9,0.6
		c-0.5,0.3-0.9,0.6-1,0.7c0,0,0.2,0.4,0.6,0.9c0.9,1.1,1.3,1.7,1.1,1.9c-0.2,0.3-0.5,0.2-1.1-0.5c-0.3-0.4-0.7-0.9-0.9-1.2l-0.4-0.5
		l-0.9,0.7c-0.5,0.4-1.2,1-1.5,1.4l-0.6,0.7l0.9,1.1c1.3,1.7,0.8,2.1-0.6,0.4l-0.8-1l-1.1,1.2c-1.3,1.4-1.3,1.2-0.2,2.6
		c1.3,1.7,1.8,2.6,1.5,2.8c-0.3,0.2-0.3,0.2-1.6-1.7c-1.3-1.9-1.3-1.9-1.9-1c-1.1,1.6-3.4,18.3-4,30.4c-0.3,5.9-0.1,22.7,0.3,23.2
		c0,0,0.3-0.1,0.6-0.3c1.3-0.9,2.2-0.5,3.6,1.4c2.3,3.1,3.7,3,6.4-0.5l0.7-0.9l-0.4-0.5c-1-1.3-2.8-2.3-4.3-2.3
		c-0.5,0-0.8-0.1-0.8-0.3c-0.5-1.4,3.5-0.2,5.2,1.5l0.9,0.9l0.8-1.2c1-1.5,1-1.4-0.2-2.5c-1.4-1.4-3.2-2.2-5-2.2
		c-0.6,0-0.7-0.1-0.7-0.3c0-1.3,4.1,0,6.2,2l1,0.9l0.4-0.8c0.3-0.7,0.3-0.8,0.1-1.2c-0.7-1.4-2.5-2.7-4.1-3.2
		c-1.2-0.4-1.3-0.8-0.3-0.7c1.3,0,3.6,1.5,4.7,3l0.3,0.5l0.5-1.5l0.5-1.5l-0.3-0.6c-0.4-0.8-2-2.2-3-2.7c-0.8-0.4-0.9-0.5-0.6-0.8
		c0.4-0.3,1.9,0.6,3.1,1.8c0.6,0.6,1.1,1,1.1,0.9c0-0.1,0.2-0.9,0.4-1.8l0.3-1.6l-0.6-0.5c-0.3-0.3-0.9-0.6-1.3-0.7
		c-0.7-0.2-1-0.5-0.7-0.8c0.2-0.2,1.3,0.1,2.1,0.6l0.6,0.4l0.1-0.4c0-0.2,0.7-5.9,1.4-12.8c0.7-6.8,1.4-12.4,1.4-12.5
		c0.1-0.1,1,2.3,1.3,3.4c0.9,3.7-1.7,28.6-3.6,33.8c-1.6,4.6-4.7,8.5-9.4,11.9c-2.5,1.8-5.8,4.8-6.9,6.1l-0.7,0.9l0.1-0.6
		c0.1-0.3,0.3-1.7,0.5-3.1c0.2-1.4,0.5-3.4,0.5-4.5l0.1-2l-1.5,0.5c-4.1,1.4-6.9,3.4-14.2,9.6c-2.1,1.8-7.5,6.7-7.5,6.7
		c0,0,0.5,0,1.1,0c1.7-0.1,1.6,0.5,0,0.7c-2,0.2-2.2,0.3-3.8,1.9c-0.8,0.8-1.5,1.5-1.4,1.5c0.1,0,1-0.1,2.2-0.2
		c2.1-0.2,3.1-0.1,2.9,0.4c0,0.1-0.7,0.2-2.1,0.3c-3.8,0.2-3.9,0.2-5.9,2.3c-2.1,2-2,2-1,1.9c1.4-0.2,5.4-0.2,7,0.1
		c1.9,0.3,2.1,0.4,2,0.7c-0.1,0.3-0.3,0.3-2.6,0c-2.2-0.3-4-0.3-6.3,0l-1.8,0.3l-1.4,1.4c-1.6,1.6-1.6,1.6,0,1.4
		c3.3-0.5,10.1,0.4,10.1,1.3c0,0.4-0.2,0.4-2-0.1c-2.1-0.5-4.9-0.8-7-0.6c-3.2,0.3-3.4,0.4-4.6,1.7c-0.9,1-1,1.2-0.7,1.1
		c4.3-1.1,12.1-0.5,12.3,0.8c0.1,0.5,0.1,0.5-1.7,0c-3.6-1-7.6-0.9-11.2,0.2c-0.7,0.2-1,0.5-1.7,1.3l-0.9,1l0.6-0.1
		c3.4-0.7,6.4-0.9,6.5-0.6c0.2,0.4-0.2,0.6-2.1,0.7c-1.6,0.1-4.7,0.7-5.7,1.1c-0.6,0.2-7.8,8.6-15.1,17.7l-1.1,1.4l0.1,1.1
		c0.4,4.5,4.1,2.5,7.9-4.2c2.3-4,3.8-5.7,5.6-6.2c1.4-0.4,1.6-0.4,1.6,0.6c0,1.2-0.7,2.5-3.3,5.7c-1.3,1.6-2.5,3.4-2.8,3.9
		c-0.4,0.9-0.8,2.6-0.5,2.6c0.5,0,3-2.7,6.2-6.7c7.9-9.8,10.4-12,13.5-12c2.6,0,2.6,1.2-0.1,4.7c-1.3,1.7-2,2.9-1.8,3
		c0.2,0.2,2.1,0.6,2.7,0.6c2.5,0,4.9-1.2,8.2-4.2c2.6-2.4,8.8-6.3,10.8-6.9c0.6-0.2,1-0.5,2.5-2.3c3.2-3.8,5.3-5.9,8.1-8.7
		c10.2-9.8,11.5-11.4,12.2-15.4c0.3-1.6,0.7-2.4,1.2-2.6c0.4-0.2,0.5-0.2,0.5,0.3c0,4.8,6.5,1.2,6.8-3.8c0.1-1,0-1.7-0.4-3
		c-0.8-3.4-0.7-6.7,0.4-12.1c0.3-1.3,0.7-3.4,1-4.7c1.3-6.1,1.6-9.3,2.2-25.7c0.6-15,2-25,4.9-33.9c1.1-3.5,1.3-4.3,1.2-5.9
		c-0.2-3.8-2.5-4.1-4.3-0.5c-2.2,4.3-3,4-5.9-1.8c-2.1-4.3-2.3-4.6-2.9-3.6c-0.2,0.4-0.3,0.5-0.1,1.3c0.7,2.8-2.3,4-4.9,2
		c-3.3-2.5-6.5-5.8-7.7-8.2C120.3,249.2,119.9,248.7,120.2,249.4 M341.6,249.7c-0.4,1.1,1.2,4.3,2,4c0.4-0.1,0.3-0.6-0.2-1.4
		c-0.3-0.4-0.6-1.2-0.7-1.7C342.3,249.5,341.8,249.1,341.6,249.7 M232.1,251.1c0,0.8-1.9,5.2-2.3,5.2c-0.4,0-0.4-0.5,0-1.3
		c0.2-0.5,0.7-1.6,1-2.4C231.6,250.7,232.1,250.1,232.1,251.1 M213.6,251.1c0.2,0.2-0.7,4.7-1.1,5.1c-0.6,0.6-0.6-0.2,0-2.5
		C213.1,250.6,213,250.8,213.6,251.1 M339.4,252.7c0.1,0.7,1.4,2,1.8,2c0.1,0,0.1,0.2,0.1,0.3c0,1.4-2.5-0.9-2.8-2.5
		C338.4,251.5,339.2,251.6,339.4,252.7 M348.4,253.7c-0.3,0.7,0.6,2.1,1.2,1.7c0.3-0.2,0.3-0.3-0.1-1.1
		C349.1,253.4,348.6,253.1,348.4,253.7 M120.6,268.5c-0.1,0.8-0.1,0.8,0.7,0.3l0.6-0.4l-0.5-0.3
		C120.7,267.8,120.7,267.8,120.6,268.5 M121.5,269.6c-1.3,0.9-1.3,0.9-0.4,1.3l0.8,0.4l1.1-0.7c0.6-0.4,1.1-0.7,1.1-0.8
		c0.1-0.1-1.3-0.9-1.5-0.9C122.5,268.9,122,269.2,121.5,269.6 M123.6,271.1l-1,0.6l0.6,0.4c0.7,0.5,0.5,0.6,1.8-0.2l1-0.7l-0.5-0.4
		C124.9,270.3,124.7,270.3,123.6,271.1 M120.1,272c-0.1,0.8-0.1,0.8,0.5,0.3c0.5-0.4,0.5-0.4,0.3-0.7
		C120.4,271.3,120.2,271.4,120.1,272 M125.6,272.4c-0.5,0.3-0.9,0.6-1,0.7c-0.1,0.1,0.7,0.9,0.9,0.9c0.1,0,0.6-0.3,1.1-0.6l0.9-0.6
		l-0.5-0.5C126.5,271.7,126.7,271.6,125.6,272.4 M121,273c-1.4,1.2-1.7,1.9-1.1,2.4c0.3,0.3,0.3,0.3,1.9-1.2
		c1.5-1.3,1.4-1.2,0.7-1.6C121.8,272.2,122,272.1,121,273 M297.6,277c-0.4,3.6-0.9,6.3-1.5,7.6c-0.2,0.4-0.3,1-0.3,1.3
		c0,1.5-0.8,2.8-1.2,1.9c-0.1-0.3-0.2-0.3-0.2-0.1c0,0.6-1,3-1.3,3c-0.4,0-0.4-0.4-0.1-1.1c0.2-0.5,0.2-0.6,0-0.5
		c-0.1,0.1-0.3,0.1-0.5,0.2c-0.1,0.1-0.5,0.7-0.8,1.5c-0.6,1.8-1.5,2.2-1,0.5c0.1-0.4,0-0.3-0.4,0.2c-0.3,0.4-0.6,0.6-0.8,0.5
		c-0.2-0.1-0.3,0.2-0.5,0.8c-0.3,0.9-0.6,1.1-0.9,0.8c-0.1-0.1,0-0.5,0.3-1.4c0.2-0.7,0.4-1.2,0.3-1.2c-0.4,0-0.9,0.7-1.3,2.2
		c-0.5,1.6-0.8,2.2-1.1,1.8c-0.1-0.1,0-0.6,0.3-1.6c0.2-0.8,0.4-1.5,0.4-1.7c0-0.6-0.3-0.1-0.6,0.9c-0.2,0.6-0.4,1.1-0.4,1.2
		c-0.1,0.1-0.2,0.4-0.2,0.8c-0.1,0.7-0.4,0.9-0.7,0.6c-0.1-0.1-0.1-0.4,0-0.9c0.2-0.6,0.1-0.8-0.1-1c-0.2-0.2-0.3-0.2-0.5,0.8
		c-0.3,1.3-0.8,2.5-1,2.4c-0.3-0.1-0.2-0.6,0.2-2.2c0.4-1.4,0.3-1.6-0.1-1.6c-0.2,0-0.2,0.1-0.1,0.6c0.2,0.9-0.2,1.9-0.7,1.9
		c-0.3,0-0.4,0.1-0.5,0.6c-0.2,1-0.3,1.2-0.6,1.2c-0.4,0-0.4-0.2-0.1-1.5c0.2-0.9,0.2-1-0.1-1.1c-0.5-0.2-0.5-0.2-0.4,0.4
		c0.1,0.8-0.4,1.8-0.9,1.7c-0.3-0.1-0.4,0-0.6,0.7c-0.2,0.7-0.5,1-0.8,0.6c-0.1-0.2,0.3-1.8,0.5-1.8c0.1,0,0.1-0.1,0.1-0.2
		c0-0.7-1.2,1.5-1.4,2.6c-0.1,0.6-0.5,0.7-0.7,0.3c-0.1-0.1,0-0.6,0.2-1.1c0.4-1.3-0.3-0.9-0.8,0.4c-0.4,1-0.7,1.3-0.9,0.8
		c-0.1-0.2-0.3-0.3-0.5-0.3c-0.2,0-0.5-0.1-0.7-0.1c-0.2-0.1-0.3,0-0.4,0.4c-0.1,0.6-0.6,1.1-0.9,0.9c-0.2-0.2,0-1.3,0.4-1.5
		c0.1-0.1,0-0.2-0.3-0.3c-0.6-0.3-1,0.1-1.4,1.3c-0.1,0.5-0.3,0.7-0.5,0.7c-0.6,0-0.3-1.5,0.5-2.4c0.2-0.2,0.2-0.3-0.1-0.4
		c-0.6-0.2-1.8,1.7-1.8,2.9c0,0.1-0.1,0.3-0.3,0.3c-0.5,0.2-0.6-0.2-0.3-1c0.4-1.3-0.2-0.8-0.7,0.5c-0.2,0.6-0.6,0.7-0.8,0.3
		c-0.1-0.2-0.1-0.2-0.3,0c-0.6,1-0.8-0.1-0.3-1.1c0.3-0.6,0.3-0.8,0.2-1c-0.2-0.2-0.2-0.2-0.2,0.1c0.1,0.4-0.8,2-1.2,2
		c-0.4,0-0.4-0.2,0-1l0.4-0.7l-0.5,0.5c-0.6,0.6-0.5,0.6-1.6,0.1c-0.5-0.2-1.4-0.5-1.9-0.5c-1.4-0.1-1.3-0.5,0.4-1.1
		c1.6-0.6,1.7-0.7,2.1-1.6c0.2-0.5,0.6-0.9,1.4-1.4c0.6-0.4,1.7-1.2,2.4-1.9c1.5-1.4,2.4-1.7,2.4-1c0,0.6,0.7,0.4,1.2-0.3
		c0.9-1.1,1.7-1.7,1.9-1.7c0.1,0,0.4-0.1,0.6-0.2c0.2-0.1,0.5-0.2,0.9-0.2c0.3,0,0.6-0.1,0.6-0.2c0-0.7,1-1.1,2-0.8
		c0.7,0.2,0.7,0.2,1.1-0.3c1.1-1.4,1.3-1.6,1.6-1.6c0.2,0,0.3,0.1,0.3,0.2c0,0.4,0.6,0.3,1-0.2c0.5-0.6,1.2-0.9,1.8-0.9
		c0.3,0,0.6-0.1,0.8-0.3c0.2-0.2,0.4-0.3,0.5-0.3s0.3,0.1,0.3,0.3c0.2,0.5,0.4,0.4,2-0.6c3.4-2.1,5.9-5.2,8.8-10.4l0.9-1.7l0.1,0.6
		C297.9,273.4,297.8,274.7,297.6,277 M122.4,274.8c-1.6,1.3-1.6,1.4-1,2l0.4,0.4l1.5-1.3c1.7-1.5,1.7-1.4,1-1.9l-0.5-0.4
		L122.4,274.8 M296,278.5c-2.9,8.7-5.2,10.2-25.5,17.1c-3.2,1.1-6,2-6.1,2.1c-0.3,0.1-0.2,0.2,0.4,0.5l0.7,0.4l0.7-0.8
		c0.8-0.9,1-0.9,2.2-0.4c1,0.5,1.1,0.4,1.6-0.4c0.3-0.6,0.9-1,1.4-1c0.1,0,1,0.4,1.9,0.8c2.1,1,2,1,2-0.1c-0.1-1.2,0.2-1.4,0.9-0.9
		c0.3,0.2,0.7,0.4,0.8,0.4c0.7,0,1-1.1,0.3-1.3c-0.5-0.2-0.5-0.4-0.1-0.7c0.5-0.3,2,0.1,2.7,0.7l0.6,0.5v-0.5c0-0.3-0.2-0.6-0.4-0.8
		c-0.7-0.8,0.6-1,1.9-0.4c0.9,0.5,0.9,0.5,0.8-0.7l-0.1-1l0.5,0c0.9,0,1.5,0.1,2,0.4l0.6,0.3l0.3-1c0.3-1,0.3-1,0.9-1
		c0.4,0,0.7-0.1,1.1-0.4c0.6-0.5,0.7-0.5,1.3,0.1l0.5,0.5l0.4-0.8c0.2-0.4,0.5-1.2,0.6-1.6c0.2-0.9,0.4-1,1.3-0.6
		c1.5,0.7,3.8-4.3,4.5-9.5C297,275.8,296.9,275.8,296,278.5 M119.6,277.5c-0.8,1-1.2,2.6-0.6,2.6c0.1,0,0.7-0.6,1.2-1.2l1-1.2
		l-0.5-0.4C120.3,276.6,120.3,276.6,119.6,277.5 M306.6,295.7c-0.2,0.1-1.3,3.7-1.1,3.8c0.5,0.5,1.4-0.8,1.7-2.1
		C307.5,295.5,307.4,295.2,306.6,295.7 M304.6,296.8c-0.7,0.6-1.6,1.5-2.3,2.5c-0.3,0.4-0.9,2.2-0.9,2.8c0,0.1,0.7-0.3,1.5-0.9
		l1.5-1l0.5-1.9C305.5,296.1,305.5,296.1,304.6,296.8 M276,297.6c-0.2,0.9,0,1,0.2,0.2c0.1-0.4,0.1-0.7,0-0.8
		C276.2,297,276,297.2,276,297.6 M305.8,300.3c-0.7,0.4-0.7,0.4-1,2c-0.2,0.9-0.3,1.7-0.4,1.9c-0.1,0.4,0,0.4,1-0.3l0.9-0.6l0.1-1.4
		c0.1-0.8,0.2-1.5,0.2-1.7C306.8,299.8,306.6,299.8,305.8,300.3 M302.7,302.2c-0.7,0.4-1.3,0.9-1.4,1c-0.2,0.2-1.1,3.8-1,3.9
		c0.2,0.2,3.2-2,3.3-2.4c0-0.2,0.2-0.9,0.3-1.5c0.1-0.6,0.2-1.3,0.3-1.5C304.3,301.3,304.2,301.3,302.7,302.2 M300.2,302.7
		c-0.2,0.3-0.3,0.5-0.2,0.5c0.1,0.1,0.7-0.6,0.6-0.8C300.5,302.3,300.3,302.4,300.2,302.7 M299.2,304.7c-1.4,1-1.7,1.6-2.1,3.3
		c-0.2,0.8-0.3,1.5-0.2,1.5s0.6-0.4,1.3-0.8l1.2-0.8l0.4-1.9c0.2-1.1,0.4-1.9,0.3-1.9C300,304.1,299.6,304.4,299.2,304.7 M305.2,305
		c-1,0.7-1.1,1-1.1,2.7l0,0.7l0.5-0.3c0.3-0.2,0.8-0.7,1.3-1.1l0.8-0.7l-0.1-1C306.3,304.2,306.4,304.2,305.2,305 M352.7,305.9
		c-1.5,1.6-3.5,4.3-4.5,6.1l-0.8,1.4l0.3,0.8c0.4,1,0.4,1,1.3-0.4c0.4-0.6,1.9-2.2,3.1-3.4l2.3-2.3l-0.1-1.7
		C354.1,304.2,354.2,304.3,352.7,305.9 M301.7,307.3c-0.9,0.6-1.7,1.2-1.7,1.3c-0.1,0.3-0.9,3.7-0.8,3.7c0,0,0.9-0.7,2-1.5l2-1.6
		l0.1-1.4C303.4,306,303.6,306.1,301.7,307.3 M295.4,308.4c-0.8,0.7-1.8,2.7-1.5,3c0.4,0.4,1.9-1.2,2.1-2.1c0.1-0.5,0.2-1.1,0.3-1.3
		C296.5,307.4,296.4,307.5,295.4,308.4 M298,309.8c-0.5,0.4-1.1,0.7-1.2,0.8c-0.2,0.1-1.2,4.2-1.1,4.3c0,0,0.6-0.3,1.3-0.9l1.2-0.9
		l0.4-2C299.1,308.8,299.2,309,298,309.8 M352.5,310.9c-1.5,1.5-3.7,4.2-3.9,4.8c-0.1,0.2,1.7,3,1.9,3c0.1,0,1-1,2.1-2.3l2-2.3
		l0-2.2C354.5,308.8,354.6,308.9,352.5,310.9 M292.5,310.5c-0.4,0.3-1.1,0.8-1.6,1c-0.8,0.5-0.9,0.6-1.1,1.6
		c-0.3,1.3-0.4,1.3,1.4,0.2c1.5-1,1.6-1,1.9-2c0.2-0.5,0.3-1.1,0.4-1.2C293.6,309.8,293.4,309.9,292.5,310.5 M294.5,312.1l-1,0.7
		l-0.8,2.4c-0.4,1.3-0.8,2.4-0.7,2.4c0,0,0.6-0.4,1.4-0.9l1.3-0.9l0.5-2C295.7,311.2,295.7,311.3,294.5,312.1 M287.8,313.2
		c-0.6,0.3-1.2,0.6-1.2,0.6c-0.1,0.1-0.9,2.8-0.8,2.9c0.3,0.3,2.8-1.7,2.9-2.4c0.1-0.4,0.2-0.9,0.3-1.2
		C289.3,312.4,289.3,312.4,287.8,313.2 M290.7,314.5c-0.8,0.5-1.4,1-1.5,1c-0.1,0.1-1.4,4.4-1.4,4.6c0,0.1,0.7-0.3,1.5-0.9l1.5-1
		l0.7-2.1c0.4-1.2,0.7-2.2,0.8-2.3C292.5,313.4,292.2,313.6,290.7,314.5 M352.7,317.4c-2,2.3-1.8,2-1.1,3.1c0.8,1.1,0.7,1.2,1.9-0.3
		l1-1.3v-1.7c0-1,0-1.7-0.1-1.7S353.6,316.3,352.7,317.4 M286.6,317.2l-1.3,0.9l-0.5,1.8c-0.9,3-1,2.8,0.7,1.9l1.4-0.8l0.4-1.3
		c0.9-3,1-3.4,0.9-3.4C288,316.3,287.4,316.7,286.6,317.2 M313.3,317.4c1.8,1.7,1.7,3-0.1,5.7c-0.6,0.9-0.8,1.3-0.6,1.2
		c2.8-1.1,7.3-1.7,7.3-0.8c0,0.3-0.1,0.3-1.9,0.4c-2.8,0.1-6.1,1.2-6.9,2.2l-0.3,0.4l0.3-0.1c0.2-0.1,0.7-0.3,1.2-0.5
		c1.8-0.7,5.6-0.5,5.7,0.4c0.1,0.3,0,0.4-0.4,0.3c-3.1-0.7-5.4-0.3-7.3,1.3c-0.8,0.7-1.5,1.7-0.9,1.5c2-0.8,2-0.8,5-0.8l2.9,0
		l1.5,0.7c4.4,2.2,6.7,7.3,6,13.3c-0.5,4.1-0.3,5.7,0.9,7.5l0.6,0.9l-0.9-0.6c-2.2-1.5-2.8-2.4-3.5-6c-0.9-4.1-2.3-6.4-5.1-8.3
		c-1-0.7-0.9-0.8,0.8-0.3c2.4,0.7,4.2,2,5,3.7c0.5,1,0.6,0.8,0.3-0.7c-0.5-2.3-2.2-4.8-4.1-6c-3.6-2.3-10.2-1.4-12.4,1.7
		c-0.7,1-0.7,1,0.2,0.7c1.6-0.6,4.6-1,4.8-0.7c0.2,0.4-0.3,0.7-1.1,0.7c-2.1,0-5.4,1.3-6.2,2.5l-0.5,0.6l1.1-0.3
		c1.4-0.4,4-0.4,5.7-0.1c1.7,0.3,5.8,1.8,5.9,2c0.2,0.5-0.3,0.5-1.9-0.1c-3.8-1.4-6.7-1.8-8.8-1.4l-1,0.2l1.2,0.2
		c1.5,0.3,3,0.9,3.4,1.6c0.5,0.8,0.5,0.9-0.5,0.7c-1.7-0.3-6.1-0.1-7.2,0.2c-2.2,0.7-2.2,2.1,0,2.1c6.3,0,12.1,3.1,14.2,7.6
		c0.9,2,0.9,1.8-0.2,1.4c-2.6-1-11.9,0.1-13.3,1.5c-0.9,0.9-0.5,1.7,2.6,4.6c2.8,2.7,3.6,3.4,6.4,5c3.6,2.1,6.8,5.2,8.4,8.1l0.4,0.7
		h-0.6c-1.8,0-4.8-1.9-7.5-4.7c-1.2-1.3-2.9-2.9-3.8-3.5c-0.9-0.7-2.1-1.7-2.8-2.2c-0.7-0.6-2-1.6-3-2.2c-3.2-2.1-3.9-3.1-3.8-4.8
		c0.2-3,2.6-4.3,9.3-5.1c1.3-0.2,2.4-0.4,2.4-0.5c0-3.2-7.8-4.4-15.1-2.3c-1.3,0.4-4.1,1.2-6.2,1.8c-7.8,2.2-9.3,2.8-9.3,3.9
		c0,0.5,0,0.5,0.6,0.4c3.6-0.6,7.8-0.4,8.7,0.5c1.2,1.1-0.5,1.5-4.8,1c-3.3-0.4-5.9,0.1-5.9,1.1c0,0.5,0.5,0.6,6.1,2
		c12.3,2.9,16.9,5.8,18.8,11.4c0.5,1.5,0.5,1.5-1.5,0.3c-7.6-4.5-15-7.6-24.6-10.4c-7.9-2.3-10.7-2.5-17.3-1.5
		c-6.6,1-8.7,1.2-12.2,1.5c-18,1.3-28.8,0.6-38.2-2.4l-1.6-0.5l-0.5,0.5c-0.3,0.3-0.7,0.8-0.8,1.2c-0.3,0.7-0.7,0.8-0.8,0.4
		c-0.1-0.3,0.3-1.1,0.9-1.9l0.4-0.5l-0.4-0.2c-0.2-0.1-1.1-0.4-1.9-0.8c-1.9-0.8-2.7-0.4-2.7,1.1c0,0.7-0.3,1-0.7,0.6
		c-0.3-0.4,0.1-1.7,0.6-2.3l0.4-0.4l-0.7-0.3c-1.1-0.6-2,0-2.4,1.6c-0.2,0.8-0.5,1-0.8,0.7c-0.3-0.3,0.1-1.3,0.7-2.3
		c0.3-0.5,0.6-0.9,0.6-0.9c0-0.1-1.8-1.1-1.9-1.1c-0.2,0-1.2,1.5-1.5,2.4c-0.3,0.8-0.8,1.2-0.9,0.7c-0.1-0.3,0.8-2.3,1.4-3.1
		l0.4-0.6l-0.5-0.4c-1.8-1.4-2.1-1.5-2.6-0.3c-0.3,0.7-0.7,1-0.9,0.5c-0.1-0.3,0.3-1.3,0.7-1.7l0.3-0.4l-0.9-0.8
		c-1-0.8-1.6-0.8-2.1,0.1c-0.2,0.3-0.6,0.4-0.8,0.2c-0.1-0.1,0.3-0.9,0.8-1.3l0.4-0.3l-0.9-0.7c-1-0.8-1.7-0.8-2.8-0.1
		c-0.8,0.5-1.1,0.5-1,0c0-0.3,0.3-0.5,1-0.9l1-0.5l-0.9-0.5c-0.5-0.3-1-0.6-1-0.6c-0.4,0-1.9,0.8-2.5,1.3c-1.2,1-1.2,1,0.8,2.4
		c2.2,1.5,3.9,3.2,4.9,5c2.7,4.6,4,6.2,6.3,7.7c5.7,3.8,16.7,6,34.7,7.1c16.6,1,20.4,2,35.6,10c4.5,2.4,7.5,4.1,9.5,5.6
		c0.8,0.6,1.5,1.1,1.6,1.1c0.2,0,0.5-1.9,0.5-3c0-0.8,0-0.9,0.4-0.8c0.4,0.1,0.5,1.6,0,3.4l-0.2,1l0.9,0.8l0.9,0.8l0.1-0.7
		c0.1-0.4,0.2-2,0.3-3.6l0.2-2.9l-1-1.4c-1.2-1.6-1.3-1.7-0.9-2c0.3-0.2,1.5,1.2,4.3,5.2c4.8,6.9,10.1,16.6,11.1,20.5
		c0.1,0.5,0.5,1.5,0.8,2l0.5,1l0.4-1.5c1.8-7.1,8.3-10.9,18.4-10.7c9.4,0.2,9.9,0.1,12.1-0.9c2.6-1.3,5-4.3,6-7.7l0.3-0.9l-0.7-1.5
		c-2.1-5-3.7-6.6-15.2-16.6c-9.1-7.9-8.4-7.2-7.6-7.5c5.3-2.2,11.8-0.2,17.6,5.4c1.2,1.1,2,1.9,1.8,1.7c-0.5-0.5-0.5-0.7-0.1-0.7
		c2.1,0,6.5-2,8.3-3.7c3.7-3.7,3-6.8-2.2-9.6c-3.2-1.7-5.1-3.9-5.8-6.8c-0.5-1.8-0.3-2,0.5-0.5c1.2,2.2,2.9,4,5.1,5.1
		c1.5,0.8,1.5,0.8,0.5-0.5c-1.7-2.1-2.8-4.6-4.2-9.8c-2.3-8.5-3.8-11-10.2-16.3c-3.8-3.2-5-3.9-6.8-4.1l-1.1-0.1L313.3,317.4
		 M353.8,321c-1,1.3-1,1.1-0.4,2.3c0.3,0.6,0.6,1.2,0.6,1.4c0.1,0.4,0.4-2.3,0.4-3.5l0-0.8L353.8,321 M181.8,332.1
		c-6.9,1.8-11.4,7.6-11.4,14.7c0,4.4,1.1,7.1,6,14.7c1.2,1.9,2.7,4.3,3.3,5.4c1.5,2.6,3.1,4.9,6,8.8c5.1,6.6,7.1,10.4,8,14.9
		c1.4,7.2,3.6,10.4,7.5,11.2c4.2,0.8,6.7-1.9,5-5.4c-1.5-3.1-1.7-4.3-0.9-5.2c1-1.2,2.1-0.6,4.5,2.6c3.1,4.2,4.6,4,7.3-1.1
		c3.3-6.1,7.5-9.9,9.8-8.8c1.3,0.6-0.4,5-3.9,10c-2.3,3.3-2.9,4.8-2.3,6.7c0.7,2.5,2.9,3.1,6.5,1.9c2.5-0.8,2.9-1.1,4.6-3.1
		c5.6-6.8,11.8-12.4,19.5-17.5c4.5-3,4.8-3.8,2.8-6c-4.6-4.9-11.7-2.7-19.7,6.1c-1.1,1.2-1.3,1.1-0.7-0.2c0.6-1.3,1.6-2.4,3.6-4.1
		c2.2-1.8,3-2.7,3.7-3.6c0.6-0.8,1-2,0.9-2.2c-0.2-0.1-4.1-0.4-7.9-0.5l-3-0.1l-1.1,1.1c-0.6,0.6-1.2,1.4-1.5,1.9
		c-0.4,0.9-1,1.2-1,0.6c0-0.5,0.9-2.1,1.6-2.8l0.7-0.7l-1.3-0.1c-1.9-0.2-2-0.2-2.9,0.6c-1,0.8-1.8,1.9-2.2,3
		c-0.3,0.8-0.7,1.1-0.9,0.6c-0.2-0.5,0.9-2.4,1.9-3.4l0.9-1l-1.3,0c-2.3,0-4.4,1.7-5.8,4.5c-0.5,1.1-0.8,1.5-1,1.5
		c-1.1,0,1.3-4.1,3.3-5.5l0.7-0.5l-1.2,0.1c-2.3,0.2-5.1,3.2-6,6.6c-0.2,0.8-0.4,1-0.6,1c-1,0,0.7-4,2.6-6.1c0.9-1,0.8-1.1-0.7-0.4
		c-2.3,1.1-4.3,4.9-5.1,9.7c-0.3,1.6-0.5,2-0.8,1.6c-0.3-0.3,0.2-2.8,0.9-5c1.1-3.5,1-6.9-0.4-8c-1.1-0.9-4.2-1.5-7-1.3
		c-2,0.2-1.9,0.1-1.5,2.5c0.9,5.2,0.7,11.7-0.6,17.1l-0.3,1.2l-0.1-1.4c-1.2-13.3-2.1-16-7.6-22c-3.8-4.1-4.5-5.2-7.7-10.8
		c-2.7-4.7-3.7-6.2-5.7-8.5c-3.2-3.6-3.6-5.6-1.7-8.8c0.8-1.4,3.4-4.1,5-5.3c0.7-0.5,1.3-1,1.4-1.1
		C184.3,331.6,183.1,331.7,181.8,332.1 M181.4,338.9c-1,1.1-1.1,2.1,0,1.5c0.3-0.2,0.8-0.5,0.9-0.5c0.3-0.1,0.4-0.5,0.2-0.7
		c-0.1-0.1-0.2-0.3-0.2-0.5C182.3,338.1,182.1,338.1,181.4,338.9 M276.1,339.6c0.3,1.2,1.8,2.7,2.7,2.6c0.8-0.1,0.5,0.6-0.4,0.9
		c-12.3,4.8-33,7.8-48.2,6.8c-5.6-0.3-13.7-1.3-14.4-1.7c-0.6-0.3-0.1-0.7,0.7-0.6c1.2,0.2,2.1-0.8,2.3-2.5c0.1-0.8,0.2-0.9,0.5-0.9
		c0.7-0.1,0.3,2.2-0.7,3.2c-0.4,0.4-0.3,0.5,1.2,0.6c0.8,0.1,1,0.1,1-0.1c0-0.1,0.2-0.8,0.5-1.4c0.3-0.6,0.6-1.9,0.8-2.7
		c0.3-1.3,0.4-1.6,0.6-1.6c0.5,0,0,2.8-0.8,4.9c-0.5,1.2-0.6,1.1,1.1,1.3c2.2,0.3,2,0.3,2.6-0.9c0.7-1.6,0.9-2.5,0.8-4.5
		c0-1.5,0-1.7,0.2-1.7c1-0.2,0.7,4.4-0.5,6.7l-0.4,0.8h0.5c0.3,0,0.8,0,1.2,0.1l0.8,0.1l0.7-1.7c0.4-1,0.8-2.4,1-3.1
		c0.3-1.3,0.6-1.8,0.9-1.4c0.2,0.4-0.5,3.2-1.3,5.1c-0.5,1.2-0.5,1.2,1,1.2h1.2l0.3-0.9c0.2-0.6,0.3-1.5,0.3-2.5
		c0-1.6,0.2-2,0.6-1.6c0.3,0.3,0.2,3.4-0.1,4.4l-0.2,0.8l0.8,0.1c1.5,0.2,1.4,0.2,1.9-1.2c0.3-0.7,0.5-1.8,0.6-2.5
		c0.1-1,0.1-1.1,0.5-1.2c0.5-0.1,0.4,1.4-0.2,3.4c-0.2,0.7-0.4,1.3-0.4,1.4c0,0.1,1,0.1,2.1,0.1l2.1,0l0.2-1.5
		c0.3-2.5,0.4-2.7,0.7-2.7c0.4,0,0.4,0.2,0.2,1.5c-0.1,0.5-0.2,1.3-0.2,1.8l-0.1,0.9l1.6,0l1.6,0l0.3-0.9c0.2-0.5,0.4-1.3,0.4-1.8
		c0.1-0.9,0.4-1.4,0.8-1.1c0.2,0.2,0,1.9-0.4,3.1l-0.2,0.7l1.7-0.1c0.9-0.1,2.1-0.2,2.6-0.2l0.9-0.1l0-1.9c0-1.8,0.1-1.9,0.4-1.9
		c0.3,0,0.3,0.1,0.4,1.9c0,1.6,0.1,1.9,0.3,1.9c0.2,0,1.2-0.1,2.3-0.3l2-0.3l-0.1-1.8c-0.1-1.9-0.1-2,0.3-2c0.3,0,0.4,0.4,0.5,2.1
		c0.1,0.9,0.1,1.6,0.2,1.6c0.4,0,6-1.1,6.1-1.1c0.1-0.1-0.1-0.7-0.3-1.3c-0.3-0.8-0.4-1.3-0.3-1.4c0.2-0.2,0.7,0,0.7,0.3
		c0,0.3,0.8,2.2,1,2.2c0.3,0,4.5-1.1,4.6-1.2c0.1-0.1,0-0.4-0.3-0.8c-0.5-0.8-1-2.3-0.9-2.6c0.2-0.5,0.6-0.3,0.8,0.5
		c0.1,0.5,0.9,2.2,1.3,2.8c0,0.1,1.1-0.2,2.8-0.7l1.3-0.4l-0.5-1c-0.7-1.4-0.8-2.9-0.3-2.9c0.3,0,0.4,0.2,0.5,0.9
		c0.1,0.9,0.7,2.4,1.1,2.5c0.2,0.1,2.9-0.7,3.5-1c0.3-0.1,0.2-0.2-0.4-0.7c-1-0.8-1.7-2.3-1.3-2.7
		C275.7,339,275.9,339.1,276.1,339.6 M182.5,340.5c-1.6,0.7-2.1,1.5-1.7,2.6l0.2,0.5l0.6-0.7c0.3-0.4,0.9-0.9,1.5-1.2l1-0.5
		l-0.4-0.5l-0.4-0.5L182.5,340.5 M183.4,342.4c-0.6,0.3-1.8,1.5-1.8,1.8c0,0.1,0.2,0.3,0.4,0.5l0.4,0.4l0.8-0.8
		c0.4-0.5,1.2-1,1.7-1.2l0.9-0.4l-0.4-0.3C184.9,342,184.2,342,183.4,342.4 M165.5,354.2c-0.8,0.8-2.3,6.3-3,10.9
		c-1.5,9.6-0.9,19.2,1.8,28.8c0.7,2.5,0.7,2.5,1.9,2.5c3.5,0,5.3-3.6,5.3-10.9l0-4.3l-0.6-1.6c-2.2-5.8-3-11.1-2.8-18.4
		c0.1-4.9,0-5.8-1-6.8C166.4,353.6,166.1,353.6,165.5,354.2 M157.7,364.3c-2.4,0.5-5,2.2-7.9,5.2c-4.6,4.7-15.1,17.7-15,18.5
		c0.3,1.5,5.7-1.8,8.3-5.1c2.8-3.5,5.7-2.6,5.4,1.7c-0.2,2.1-0.8,3.8-3,7.5c-2.1,3.6-2.8,5.5-2.9,7.8c0,1.3,0.3,3,0.6,3
		c0.1,0,0.3-0.4,0.4-0.8c0.8-2.1,3.8-7.4,4.4-7.8c0.2-0.1,0.2,0.1-0.1,1.8c-0.3,1.9-0.7,5.8-0.5,5.9c0.2,0.2,1.5-1,3.1-2.9
		c2.6-3.1,3.2-4,4.1-6.3c0.5-1.2,1.1-2.6,1.3-3.2l0.5-1.1l-0.3-2.3c-1.2-9.7-0.5-15.3,2.4-20.6C159.5,363.8,159.6,363.9,157.7,364.3
		 M172.1,371c-0.7,0.7-0.6,1.4,0.4,3.2c2.8,5.3,4.6,9.2,5.4,12.1c0.4,1.6,0.9,2.5,2.7,5.1c1.9,2.8,3.1,3.2,4.7,1.4
		c0.5-0.6,0.1-1.5-3.5-7c-2.7-4.2-4.1-6.8-5.3-10.1C174.6,371,173.3,369.7,172.1,371 M363.6,374.1l-0.7,0.7l0.4,0.6l0.4,0.6l0.3-0.6
		c0.3-0.6,0.5-1.9,0.4-1.9C364.3,373.4,364,373.7,363.6,374.1 M361.2,376.3l-0.9,0.9l0.7,1c0.8,1.1,0.8,1.2,1.4,0.4
		c0.9-1.2,1-1.8,0.6-2.6C362.3,375.2,362.3,375.2,361.2,376.3 M358.8,378.5l-0.8,0.8l0.6,1.1l0.6,1.1l0.9-0.9l0.9-0.9l-0.6-0.9
		c-0.3-0.5-0.7-1-0.7-1C359.6,377.8,359.3,378.1,358.8,378.5 M281.2,380.2c0,0.4-0.1,2-0.3,3.4l-0.3,2.7l0.7,0.6l0.7,0.6l0.1-0.7
		c0.1-0.4,0.2-1.9,0.2-3.3l0-2.6l-0.6-0.8c-0.3-0.4-0.6-0.8-0.6-0.8C281.3,379.4,281.2,379.7,281.2,380.2 M360.4,381.6
		c-0.4,0.4-0.7,0.8-0.6,0.9c0.2,0.3,0.3,0.1,0.9-0.8C361.3,380.7,361.3,380.7,360.4,381.6 M283.2,384.5c-0.1,1.3-0.1,2.7-0.2,3.1
		c-0.1,0.7,0.7,2.1,1,1.8c0.7-0.7,0.6-5.2-0.1-6.3l-0.6-0.9L283.2,384.5 M271.3,383.5c-2,1-2.5,4.5-1,7.8c0.7,1.5,6.6,5.2,7.9,5
		c1.1-0.2,1.4-1.3,0.8-3.6c-0.4-1.7-0.4-2.4,0.3-2.3l0.4,0.1l-0.3-0.5C275.7,384.4,273.3,382.5,271.3,383.5 M260.6,385
		c-0.8,0.3-1.8,0.7-2.2,1c-5,3.2-13.8,9.5-13.8,10c0,0.3,1,1.2,1.6,1.4c1.7,0.7,3.1,0.3,6.3-1.8c6.2-4.1,8.2-4.3,9.8-0.8
		c1.5,3.2,4.5,5.5,6.1,4.7c1.4-0.7,1.5-1.1,0.5-2.3c-2-2.5-2.7-4.7-2.5-7.9C266.7,384.9,264.8,383.6,260.6,385 M285.2,386.7
		c-0.1,0.8-0.2,1.9-0.3,2.5l-0.2,1l0.8,0.8c1.1,1.1,1.1,1,1.1-1.6v-2.1l-0.7-1.1l-0.7-1.1L285.2,386.7 M287.4,389.8
		c0,0.5-0.1,1.4-0.2,2l-0.2,1l0.8,0.8c1,1,1.1,0.9,1-0.8c-0.1-1.4-0.3-2-1.1-3.4l-0.3-0.5L287.4,389.8 M289.5,394.2
		c-0.1,1.1-0.1,1.2,0.4,1.8c0.9,1.1,1.1-0.2,0.3-1.9C289.6,392.8,289.6,392.8,289.5,394.2 M291.3,396.9c-0.1,0.5,0.1,0.9,1.1,2.1
		l0.3,0.4l-0.1-0.4C292.3,397.8,291.4,396.4,291.3,396.9"/>
</g>
</svg>
