<?xml version="1.0" encoding="utf-8"?>
<!-- Generator: Adobe Illustrator 22.1.0, SVG Export Plug-In . SVG Version: 6.00 Build 0)  -->
<svg version="1.1" id="svg" xmlns="http://www.w3.org/2000/svg" xmlns:xlink="http://www.w3.org/1999/xlink" x="0px" y="0px"
	 viewBox="0 0 370 370" style="enable-background:new 0 0 370 370;" xml:space="preserve">
<g id="svgg">
	<path id="path0" d="M320.7,65.4c-0.3,0.2-1.6,2-2.9,4.1l-2.4,3.7l-0.1-1.4c-0.1-0.8-0.1-2.1-0.1-2.9c0-1.6-0.1-1.7-0.4-1.3
		c-3.7,4.7-4.5,6.3-5.5,10.3c-0.5,2-0.9,3-2.2,5.5c0,0.1,0.7-0.2,1.6-0.6c1.8-0.8,2-0.9,2.1-0.5c0.1,0.3-0.1,0.5-1.2,0.9
		c-2.7,1-6.8,4-8.3,5.9c-0.4,0.5-1,2.1-0.8,2.1c0,0,0.4-0.4,0.9-0.9c3.5-3.4,11.7-7.6,11.7-6c0,0.2-0.1,0.4-0.5,0.5
		c-2.9,0.6-5.4,1.9-8.9,4.6c-2.9,2.2-1.4,1.9,2.8-0.6c5.3-3.2,9.3-3.9,14.3-2.6c3.2,0.8,3.2,0.7-0.7,7.7c-1.9,3.4-1.9,3.4-1,3.5
		c0.9,0.2,1.9-0.2,2.9-0.9c2.1-1.7,2.6-2,4.6-3.2c1.1-0.7,2.3-1.4,2.5-1.6c2.1-1.9-2.2,4.2-4.8,6.9c-2.3,2.4-3.2,4.6-1.9,4.7
		c0.5,0,0.6-0.1,2.3-2.7c1-1.5,1.9-2.7,2-2.7c0.5,0.2,0.2,0.7-1.5,3.3c-1.6,2.4-1.8,2.7-1.6,3c0.1,0.2,0.2,0.8,0.1,1.4
		c-0.1,1.3-0.2,1.4,1.2-1c4.2-7.1,13.3-14.8,23.3-20c2-1,2.2-1.3,1.8-2.7c-0.1-0.5-0.3-0.9-0.3-1c-0.3-0.3-6.2,2.6-9,4.3
		c-1.4,0.8-1.8,0.9-1.8,0.4c0-0.5,6.4-3.9,9.5-5.1c1.1-0.4,1.1-0.4,0.8-0.9c-0.3-0.4-3.3,0.7-6.8,2.3c-1.9,0.9-2.2,1-2.2,0.5
		c0-0.4,3.6-2.1,6.9-3.2c1.8-0.6,1.7-0.5,1.3-1.3c-0.5-1-1.3-0.9-3.9,0.7c-0.9,0.6-1.3,0.6-1.3,0.2c0-0.3,1.7-1.4,3.3-2
		c1-0.4,1-0.4,0.5-1l-0.4-0.5l-1,0.2c-1.4,0.3-1.8,0.3-1.8-0.1c0-0.3,0.2-0.4,1-0.5c0.5-0.1,1-0.3,1.1-0.3c0.3-0.3-3.2-3.6-4.5-4.1
		c-0.9-0.4-1.4-0.2-4.8,1.8c-1.7,1-3.1,1.7-3.1,1.7c-0.1-0.2,0.7-1.7,1.6-3c1-1.5,0.7-2.2-1.3-3.4C331,65.9,321.9,64.4,320.7,65.4
		 M285.7,92.2c-3,0.2-6.9,0.6-10.8,1.1l-3.5,0.5l-2.6,1.2c-1.4,0.6-3.4,1.6-4.4,2.1c-2.2,1.1-3.5,1.6-4.8,1.7l-1,0.1l-0.1,0.7
		l-0.1,0.7l1-0.1c1.4-0.2,3.5-0.9,6.5-2.3c8.1-3.8,14.4-3.5,17.1,0.6c0.7,1.1,1.5,1.8,2.1,1.8c0.4,0,0.5,0.1,0.5,0.3
		c0,1-1.9,0.2-2.9-1.2c-1.9-2.6-3.5-3.4-7.4-3.3c-3.2,0-4.9,0.5-9.7,2.8c-2.4,1.1-4.5,1.9-5.6,2c-1,0.1-1.1,0.3-0.3,0.5
		c1.3,0.2,4.2-0.4,8.1-1.8c7.2-2.7,10.5-2.5,13.8,0.6c1.7,1.6,2.3,1.9,3.8,1.8c5.7-0.5,9.9,0,15.7,1.7c4.1,1.2,6.1,3.2,6.2,6.1
		c0,1.5,0,1.5-1.2,0.4c-4.7-4.5-10.4-6.6-17-6.3c-5.7,0.2-5.3,0.3-7.9-1.7c-2.6-2.1-2.7-2.1-11-0.6c-13.2,2.3-14.5,3.4-22.4,17.5
		c-2.7,4.9-4.4,7.4-6.3,9.3l-1.5,1.5l2.5,0c3,0,4.8,0.4,4.8,1c0,0.4,0,0.4-1.9,0c-2.3-0.5-5.8-0.3-7.8,0.4c-1.7,0.6-2,0.8-0.9,0.6
		c2.6-0.5,6.3,0.1,8.9,1.3l1.5,0.7l-3.8-0.1c-8.3-0.2-12.6,1.3-17,6c-2.2,2.3-2.3,2.6-2.2,4.8c0.2,4,2.5,6.2,7.1,6.7
		c1.8,0.2,1.9,0.8,0.2,0.7c-4.6-0.2-7.4-2.6-8.1-6.5l-0.2-1.4l-0.5,1.2c-1,2.7,0.3,5.4,3.6,7.3c0.8,0.5,1.4,0.9,1.4,1
		c0,1.4-4.4-1.8-5.5-4l-0.5-1l0.1,1.3c0.1,2.2,0.8,3.2,3,4.9c2.3,1.8,2.4,1.8,1.1,2c-2.6,0.3-6-1.1-6.6-2.8
		c-0.1-0.2-0.2-0.2-0.4,0.1l-0.3,0.3l0.4,0.7c0.6,1.1,1.5,2.1,2.5,2.6c0.5,0.2,0.9,0.5,0.9,0.7c0,1.2-3.3-1-4.1-2.7
		c-0.4-0.8-0.4-0.8-1.1-0.1l-0.5,0.6l0.3,0.7c0.2,0.4,0.6,0.9,0.9,1.2c0.6,0.5,0.8,1,0.3,1c-0.5,0-1.2-0.7-1.7-1.5l-0.5-0.8
		l-1.3,1.2c-2.1,1.9-4.1,3.5-5.8,4.7c-2.6,1.8-24.4,14.7-28.7,16.9l-1.7,0.9l0.5,0.9c0.6,1.2,0.6,2.8-0.1,4.7
		c-0.8,2.2-1.5,1.8-0.7-0.4c0.9-2.7,0.4-5.2-1-4.6c-0.5,0.2-0.6,0.4-0.3,0.6c1.1,0.7,0.9,3.8-0.2,4.7c-0.6,0.5-0.7-0.2-0.2-1
		c0.7-1.2,0.5-2.9-0.4-3.4c-0.7-0.4-5.9,2.7-8.4,5c-4.2,3.8-9,10.6-11.5,16.3c-0.4,0.9-0.9,1.5-2.4,3.1c-2,2-2.1,2.2-6,8.3
		c-3.1,4.8-13.2,12.1-16.8,12.1c-0.2,0-1.1,0.3-2,0.6c-2.5,0.9-3.6,0.8-6.2-0.6c-0.6-0.3-3.9-1.7-7.4-3.1l-6.3-2.5l-0.1,0.4
		c-0.2,0.7-0.5,1.2-1,1.5c-0.5,0.3-0.5,0.3-0.3-0.1c1-1.8-1.1-3.5-4.3-3.5c-2.5,0-3.9,1.7-2.9,3.5l0.3,0.5l-0.9-0.5
		c-1.1-0.6-1.3-0.9-1-1.6c0.3-0.7,0.1-0.8-0.8-0.1c-1.8,1.3-2,2.7-0.4,3.1c1.2,0.3,1.2,0.3,0,0.7c-1.9,0.6-3.1,0.5-3.1-0.3
		c0-1.1-1.1,0.2-7.4,8.6c-1.5,2.1-3,4-3.2,4.3c-0.5,0.6-2,1.8-2.9,2.2L80,240l0.7,0c0.8,0,1.6,0.4,1.8,0.8c0.1,0.3,0.1,0.3-1.1,0.1
		c-1.3-0.2-2.3-0.1-2.9,0.4c-0.6,0.6-0.5,1,0.1,0.8c0.7-0.2,2.4,0.2,2.8,0.6l0.3,0.4l-0.6-0.1c-2.9-0.5-3.7-0.2-4.3,2
		c-0.5,1.8-1.5,3.5-3.5,5.9l-0.9,1.1l0.9-0.1c3.4-0.4,3.8-0.3,4.6,1c0.9,1.5,0.7,3.1-0.7,5.9c-2,4.3-2,4.5,1.4,3.6
		c1.3-0.3,1.2-0.2,1.3-1.7c0.1-1.1,0.1-1.3,0.4-1.3c0.3,0,0.3,0.1,0.3,1.1c0,0.6,0,1.1,0,1.1c0.7,0,0.9-0.5,0.9-2.9
		c0-2,0-2.4,0.3-2.4c0.4,0,0.4,0.3,0.6,2.4c0.1,1.7,0.1,1.6,0.1-0.9c0-1.5-0.1-3-0.2-3.3c-0.1-0.6,0.3-1,0.6-0.6
		c0.1,0.2,0.5,3.6,0.5,4.8c0,0.7,0,0.8,0.2,0.6c0.2-0.2,0.3-4.6,0.1-6.2c-0.1-0.8-0.1-1,0.1-1.1c0.5-0.2,0.6,0.3,0.7,3l0.1,2.7
		l0.4-0.8c1.3-2.8,1.1-7.1-0.4-11.3c-0.1-0.2,0.1-0.1,0.6,0.3c0.9,0.8,1.3,2.1,1.5,3.9c0.1,1,0.2,1.3,0.3,1.1c0.1-0.2,0.5-1,0.9-1.9
		c1-2.2,1.1-4.5,0.3-7.5c-0.2-0.6,0.7,0.2,1.5,1.4l0.5,0.8l0.6-0.7c0.7-0.8,0.9-1.6,0.8-4.1c0-1.4,0-1.6,0.2-1.6
		c0.4,0,0.5,0.6,0.5,2.5c0,0.9,0.1,1.6,0.2,1.6c0.5,0,0.9-1.5,1.1-4c0.1-1.3,0.2-1.5,0.4-1.5c0.4,0,0.4,1.3,0.1,3.1
		c-0.1,0.6-0.1,1.1-0.1,1.2c0.3,0.3,0.7-1.4,0.9-3.4c0.1-1.3,0.2-1.6,0.7-1.5c0.3,0.1,0.2,1.8-0.1,3.4c-0.2,0.8-0.1,0.9,0.3,0.7
		c0.6-0.3,1.1-2.8,1.1-5.5c0-2.3,0.1-2.7,0.5-2.1c0.4,0.5,0.3,3.6-0.1,5.6c-0.2,0.9-0.3,1.6-0.3,1.6c0,0,0.4-0.1,0.8-0.3
		c1.3-0.5,2.2-3.2,2.7-8.1c0.2-1.8,0.4-2.3,0.8-1.9c0.3,0.3-0.4,5.2-1.1,7.5c-0.5,1.7-0.5,1.6,0.4,1.2c1.1-0.6,2.3-4,2.7-7.6
		c0.2-1.6,0.3-2,0.7-1.7c0.4,0.3-0.2,4.2-1,6.7c-0.6,1.7-0.6,1.6,0.5,0.9c1.2-0.8,2.3-3.2,3-6.8c0.3-1.5,0.5-1.8,0.8-1.4
		c0.3,0.3-0.3,3.1-1,5c-0.7,1.8-0.6,1.8,0.9,0.3c1.6-1.5,2-2.2,2.7-4.6l0.6-2l0.4,1.1c0.8,2.3,0.9,4.2,0.3,5.3l-0.3,0.5h0.6
		c1,0,1.5-2.6,1-5.4c-0.1-0.9-0.1-1,0.2-1c0.7,0,0.9,3.1,0.4,5.1c-0.1,0.6-0.2,1.1-0.2,1.2c0.3,0.3,1.8-1.5,2.2-2.8
		c0.2-0.6,0.4-0.9,0.6-0.9c0.6,0,0.1,1.8-0.8,2.9c-0.6,0.7-0.6,0.8,0.3,0.8c0.9,0,1.3-0.6,1.7-2.3c0.1-0.7,0.3-0.9,0.5-1
		c0.4-0.1,0.3,1.6-0.2,2.6c-0.5,0.9-0.5,0.9,0.3,0.9c0.8,0,1.7-0.9,2.1-2.2c0.3-0.9,0.9-1.2,0.9-0.5c0,0.4-0.7,2-1,2.2
		c-0.4,0.3-0.1,0.4,0.6,0.4c0.9,0,1.8-0.9,2.5-2.5c0.2-0.5,0.4-0.7,0.6-0.7c0.6,0,0.2,1-0.8,2.4c-0.5,0.7-0.5,0.8-0.3,0.8
		c0.2,0,0.4,0,0.6,0.1c0.4,0.1,1.4-1.3,1.8-2.8c0.2-0.8,0.4-1,0.6-1c0.5,0,0.3,1.1-0.5,2.6c-0.7,1.4-0.7,1.4-0.1,1.4
		c0.5,0,1.3-1.4,1.6-2.8c0.1-0.4,0.2-0.5,0.4-0.5c0.5,0,0.4,0.7-0.2,2.2c-0.3,0.7-0.5,1.3-0.5,1.3c0.7,0.7,1.9-0.7,2.7-3.2
		c0.4-1.1,0.5-1.4,0.8-1.4c0.6,0-0.2,2.5-1.2,4.2l-0.5,0.8l1,0.2c0.8,0.2,1.1,0.2,1.3,0c0.5-0.4,1.8-2.6,2.4-3.9
		c0.5-1.2,0.9-1.7,1.1-1.3c0.2,0.3-0.9,2.9-1.8,4.2c-0.5,0.7-0.8,1.3-0.8,1.4c0.1,0,0.6,0.1,1.3,0.2l1.2,0.1l0.5-0.8
		c0.9-1.3,1.4-2.6,1.7-4.1c0.2-1.2,0.3-1.4,0.6-1.4c0.7,0,0.1,2.8-1,4.9c-0.3,0.7-0.7,1.3-0.7,1.4c-0.2,0.5,1.5,0.1,2-0.5
		c0.9-1.1,2.3-4.2,2.8-6.2c0.4-1.5,0.5-1.9,0.7-1.9c0.9,0-0.8,5.5-2.4,7.7c-0.6,0.8-0.4,0.9,1.1,0.1l1.1-0.5l0.8-1.7
		c1-2,1.6-4.4,1.8-6.7c0.1-1.5,0.2-1.7,0.5-1.7c0.7,0,0.2,3.8-0.8,6.8c-0.8,2.5,0.7,0.1,2.1-3.3c1.4-3.4,2.3-4.1,5.9-4.9
		c3.3-0.7,4.2-1.3,5.2-3.5c0.8-1.7,1-5.9,0.5-9.8c-0.1-1.1,0.5-1.4,0.7-0.3c0.2,1.1,0.4,4.9,0.3,5.9l-0.1,1l0.6-1.2l0.6-1.2l0-3
		c0-1.6-0.1-3.5-0.1-4c-0.1-1,0.1-1.5,0.5-1.2c0.2,0.2,0.4,2.3,0.5,4.3l0.1,2.1l1-1.5c1.1-1.8,1.2-1.9,0.6-5.4
		c-0.3-1.8-0.3-2.3-0.2-2.5c0.4-0.4,0.5,0.1,0.9,2.4c0.5,3.1,0.4,3,1.3,1.9c0.9-1.2,1.2-2.2,1.2-5.2c0-2.1,0-2.2,0.3-2.2
		c0.5,0,0.6,0.8,0.5,3.1l-0.1,1.9l2.1-2.1c4.1-4.2,7.3-6.1,16.8-9.9c6.3-2.6,7.9-3.3,13.3-6.3c4.7-2.6,9-4.8,10.4-5.4l0.6-0.3
		l-0.3,0.5c-1.5,2.1-4.8,4.8-10.4,8.5c-2,1.3-4.7,3.3-5.9,4.3c-2.9,2.4-5.9,4.4-11.5,7.6c-8.2,4.7-8.9,5.4-10.9,10.2
		c-2.5,6.1-4.5,9.6-7.8,13.8c-2.5,3.2-3.2,3.7-6.5,4.2c-2.5,0.4-2.2,0.2-5.9,4.5l-3.2,3.7l-1.7,0.5c-7.3,2-15.3,2.3-22.6,0.6
		c-3.2-0.7-3.5-0.7-4.8-0.4c-1.1,0.3-1.1,0.3-0.7,0.5c3.1,1.3,4.3,2.4,4.3,4c0,0.8-0.2,0.8-1.4-0.1c-3.9-2.8-7.5-3.4-9.4-1.6
		c-0.9,0.8-0.5,1.1,1.9,1.4c1.7,0.2,2.5,0.5,3,1.2c0.5,0.7,0.4,0.7-0.8,0.3c-2.5-0.9-7-1.2-8.3-0.6c-1.7,0.7-3,2.5-4.1,5.5
		c-1.3,3.6-2.1,5-5,8.9c-1.6,2.2-3.3,4.1-3.7,4.1c-0.2,0-0.2,0.1-0.1,0.2c0.1,0.1,1.2,0.2,2.5,0.3c2.6,0.2,3.3,0.4,3.8,1.4
		c0.5,1.1,0.4,1.3-0.6,0.8c-3.3-1.8-10.6-1.3-12.1,0.8c-0.5,0.7-0.5,1.6-0.1,1.4c3.4-1,9.9-0.1,10.7,1.5c0.4,0.8,0.3,0.8-1.1,0.4
		c-3.5-0.9-8.7-0.7-10.8,0.4c-1.1,0.6-1.6,2.2-1.8,6.5c-0.1,1.6-0.2,3.4-0.3,4c-0.1,1.5,0,1.6,1.1,1.3c1.8-0.6,2.7-0.5,3.8,0.3
		c0.5,0.4,1.2,1.4,0.9,1.4c-0.1,0-0.8-0.1-1.6-0.2c-3.2-0.5-4.1,0.2-4.4,3.1c-0.1,0.9-0.2,1.7-0.3,1.9c-0.3,0.5,0,0.4,0.4-0.1
		c0.9-1.2,3.1-1.5,4.7-0.7c4.1,2,6.7,11.3,4.6,16.4c-0.1,0.2,0,0.2,0.4-0.2c0.5-0.5,1.3-0.8,3.5-1.4c1.6-0.4,2.3-1.3,2.6-3.4
		c0.3-1.8,0.4-2.1,1.4-3.5c1.5-2,3.1-6.5,6.4-17.6c0.3-1.1,0.9-2.8,1.4-3.7c1.2-2.6,1.2-4.5-0.1-8.7c-0.3-0.8-0.5-1.8-0.6-2.2
		l-0.1-0.6l0.9,1c1.6,1.7,2.4,3.9,2.6,7.4l0.1,1.9h0.9c2.9,0,10.6-4.1,11.8-6.3c1.7-3.1,1.9-6,0.7-8.3c-0.5-0.9-1.1-2.5-1.5-3.5
		c-0.3-1-0.8-2.2-0.9-2.5l-0.3-0.7l0.5,0.1c3.8,0.9,6.2,4.9,6.3,10.6c0,1.4,0.1,2.7,0.2,2.9c0.2,0.4,0.8,0.7,0.8,0.4
		c0-1.8,0.7-5.6,1.1-5.6c0.3,0,0.3,0.5-0.1,3.5c-0.3,2.6-0.3,2.6,0.4,2.7l0.5,0.1l0.4-1.3c0.6-1.8,1-3.6,1.4-5.4
		c0.2-0.8,0.3-1.7,0.3-1.9c0.1-0.4,0.5-0.5,0.7-0.1c0.2,0.5-1,5.8-1.8,8c-0.4,1.1-0.4,1.1,0.7,1.2l0.8,0.1l0.3-1.1
		c0.1-0.6,0.8-3,1.5-5.5c0.7-2.4,1.3-4.5,1.3-4.6c0-0.3,0.5-0.5,0.7-0.3c0.2,0.2-0.6,3.1-2.3,8.8c-0.4,1.4-0.7,2.6-0.7,2.6
		c0.3,0.3,1.4,0.3,1.5,0c0.1-0.2,0.5-1.2,0.9-2.3c1.1-2.6,2-5.5,2.8-8.4c0.5-1.8,0.7-2.4,0.9-2.5c0.9-0.2-1.3,7.5-3.4,12.1
		c-0.6,1.3-0.6,1.5,0.1,1.5c0.7,0,0.8-0.1,2-2.9c1.2-2.8,2.3-6.1,3.1-9.1c0.7-2.6,0.8-2.9,1.2-2.6c0.6,0.4-2.1,9-4.1,13.3
		c-0.7,1.4-0.7,1.5,0.4,1.3c1.2-0.2,1.4-0.4,2.7-4.5c3.1-9.4,4.6-12.6,7.1-15c1.5-1.5,10.4-5.9,15.2-7.4c3.5-1.1,4.1-1.6,4.2-2.8
		c0.1-1.1-0.4-2.5-1.2-3.7c-0.6-0.9-0.7-1.4-0.3-1.4c0.6,0,2,2.4,2.2,3.8c0.1,0.8,0.3,0.9,0.5,0.3c0.3-1.1,0-2.2-1.2-4
		c-0.8-1.2-0.8-1.4-0.5-1.5c0.4-0.2,1.5,1.2,2.1,2.8l0.3,0.8l0.2-0.8c0.3-1.2-0.9-3.4-1.8-3.4c-0.1,0-0.2-0.1-0.2-0.3
		c0-0.7,1.2-0.2,2,0.9l0.4,0.5l0.1-0.4c0.1-0.2,0.2-1.3,0.4-2.3c0.6-3.4,1.5-6,2.6-7.4l0.4-0.5l-1-0.3c-1.1-0.3-2.7-1.2-2.7-1.5
		c0-0.4,0.5-0.4,1.1,0c1.7,1.1,2.9,1.3,4.1,0.4l0.9-0.7h-1.2c-1.5,0-2.7-0.4-3.4-1c-0.8-0.7-0.2-0.9,1-0.2c0.9,0.4,1.1,0.5,2.9,0.5
		l2,0l1.2-0.8c2.5-1.7,3-2.6,3.5-6.7c0.6-4.4,0.9-4.9,6.1-8.1c5-3.1,5.9-3.6,18.9-10l12.1-5.9l-0.5,0.9c-2,3.6-5.4,8.1-7.8,10.4
		c-3.4,3.2-4.9,3.9-10.2,4.3c-8.1,0.6-10,2.9-10,11.9c0,8-1.1,9.8-8.8,15.2c-5.3,3.7-4.8,3.1-10,13.3c-1,2-0.6,2.9,2.7,5.6
		c1.5,1.3,1.4,1.5-0.3,0.6c-3.1-1.5-7.9-2-11.1-1.2c-1.1,0.3-1.6,0.6-0.9,0.6c0.5,0,1.9,0.7,2.6,1.3c0.7,0.6,1.5,1.7,1.1,1.4
		c-0.1-0.1-0.5-0.3-0.8-0.5c-3.1-1.9-9.9-1.8-10.1,0.2c-0.1,0.6,0.1,0.7,2.5,1c1.4,0.2,2.9,0.9,3.9,1.7c0.8,0.7,0.8,0.8-0.3,0.6
		c-2.9-0.8-7-1.1-8-0.6c-1.3,0.6-2.4,2.1-3.5,4.7c-0.3,0.7-1.9,4.3-3.6,8c-1.7,3.7-3.4,7.9-3.9,9.3c-1,2.7-1.8,4.7-2.3,5.1
		c-0.3,0.2,0,0.3,2.9,0.3c5.1,0,6.8,0.5,6.7,2.1c-0.1,1,0,1-1.8,0.5c-2.4-0.6-8.6-1-10.2-0.5c-1,0.3-2.1,1.5-2.1,2.2
		c0,0,2.1,0.1,4.6,0.2c8,0.2,9.3,0.7,9.6,3.9l0.1,1.2l-1.9-0.8c-4.7-2.1-8.3-2.8-11.5-2.3c-4.3,0.7-5.4,2.8-6.1,11.2
		c-0.1,1.6-0.4,4-0.5,5.3c-0.3,3.3-0.6,8.3-0.6,11.8l0,2.9l0.2-1.8c0.7-5.9,3.3-9.5,7.7-10.7c3-0.8,6.8,0.1,7.2,1.6
		c0.1,0.4,0.2,0.4-1.1,0c-3-1-7.8-0.3-9.5,1.4c-0.8,0.8-0.8,1,0.1,0.7c8.1-2.9,15.1,1.8,14.6,9.7c-0.3,4.6-1.4,8.1-2.6,8.7
		c-0.7,0.4,0.6,0.1,1.6-0.3c3.3-1.5,5-5,6.1-12.4c0.6-3.9,0.9-5.2,2.2-8.7c1.4-3.7,1.7-4.8,2.3-8.7c0.3-2,0.9-5,1.4-6.7
		c1.7-7.2,1.8-8.4,0.9-13.3c-1-5.5-0.9-7,0.6-6.4c1.4,0.7,1.8,2,2.2,8.2c0.3,5.3,0.3,5.1,1.8,3.9c1.1-0.8,1.8-1.1,4.7-2
		c3-0.9,6-2.6,6.6-3.8c0.5-1,1.3-7.9,1.3-12c0-2.6,0-2.7,0.3-2.7c0.8,0,0.3,12.4-0.6,13.7c-0.3,0.5,0.3,0,1.3-1l1.1-1.1l0.2-2.9
		c0.1-1.6,0.2-4.8,0.2-7.1c0-4,0-4.2,0.3-4.2c0.4-0.1,0.6,3.8,0.4,9.1c-0.1,2.1-0.1,3.9-0.1,4c0.1,0.1,1.8-2.2,1.9-2.5
		c1.2-5.3,1.6-12.2,1.2-18.2c-0.1-1.8-0.1-2,0.2-1.9c1.1,0.2,1,12-0.2,17.9c-0.1,0.7,2-3.7,2.3-4.7c0.6-2.1,0.8-12.1,0.2-16.2
		c-0.2-1.7-0.1-2.3,0.4-1.7c0.5,0.7,0.9,8.9,0.6,12.8c-0.1,1.3-0.1,2.4-0.1,2.5c0.1,0.1,2.1-5,2.7-6.7c0.8-2.3,0.7-8.1-0.3-12.7
		c-0.3-1.6-0.3-1.9,0.1-1.9c0.5,0,1.2,3.8,1.4,7.6c0.1,1.4,0.2,2.6,0.2,2.6c0.1,0.1,1.5-4.5,1.6-5.6c0.2-1.3,0.3-6.5,0.1-8.8
		c-0.1-1.3-0.1-1.4,0.3-1.4c0.4,0,0.5,0.9,0.6,4.8l0,2.8l1.1-3.4l1.1-3.4l-0.2-2.2c-0.1-1.2-0.4-3.2-0.6-4.3
		c-0.2-1.5-0.3-2.2-0.2-2.3c0.5-0.5,0.7,0.3,1.3,4.5l0.4,2.6l0.6-1.8l0.6-1.8l-0.1-4.2c-0.1-4.2-0.1-4.2,0.3-4.2
		c0.3,0,0.4,0.2,0.5,2.5c0.2,3.8,0.1,3.7,0.9,1.7c0.7-2,0.9-4.1,0.5-8.1c-0.1-1.4-0.1-1.5,0.2-1.5c0.5,0,0.5,0.2,0.6,3
		c0.1,2.5,0.1,2.5,0.4,2c0.1-0.3,0.6-1.4,1.1-2.4c0.9-1.9,1.2-3.3,1.2-5.7c0-1.1,0.2-1.5,0.6-1.2c0.2,0.1,0.2,0.5,0.1,1.9
		c-0.1,1.1-0.1,1.7,0,1.6c0.1-0.1,0.6-0.6,1-1.2c1.9-2.3,4-3.7,11.9-8c3-1.6,5.8-3.2,6.3-3.4l0.9-0.5l-0.3,0.6
		c-0.2,0.3-1.8,3.4-3.6,6.8s-3.3,6.3-3.3,6.3s0.5,0.2,1.1,0.3c3.2,0.5,5.7,2.9,6.3,6c0.4,2,0.4,2-0.8,0.9
		c-5.1-4.6-10.1-3.4-13.3,3.2c-1.7,3.5-2.1,5.5-2.3,11.1c-0.1,4.9-0.2,5.4-1.5,8.8c-1.7,4.5-4.6,9.1-7.6,12.2
		c-0.6,0.7-1.2,1.2-1.1,1.3c0,0,1.9,0,4.2-0.1c6-0.3,7.6,0.3,7.6,2.8c0,0.9-0.1,0.9-1.1,0.3c-5.1-3.1-10.5-1.3-14.7,5
		c-1.4,2.1-1.4,2.1-0.3,1.4c2.5-1.6,6.5-1.8,8.9-0.5c0.3,0.2,0.5,0.3,0.4,0.3c-9,0.2-11.4,2.7-10.2,10.7c0.4,2.7,0.3,2.6,1,2.1
		c1.9-1.5,6.7-2.7,6.7-1.8c0,0.3-0.1,0.3-2.3,0.7c-1.2,0.2-3.1,1-4.1,1.8c-0.8,0.6-0.8,0.5-0.4,2.2l0.1,0.4l0.8-0.6
		c2.4-1.9,10.7-3.9,9.4-2.3c-0.1,0.1-0.5,0.3-0.8,0.3c-2.6,0-6.9,1.5-8.6,3l-0.6,0.6l0.1,1.1l0.1,1.1l0.6-0.5
		c2.1-1.7,4.8-2.7,7.8-2.8c2.9-0.1,4.9,0.3,4.5,0.9c-0.1,0.2-0.3,0.2-0.8,0c-3.5-1-8.4,0.2-11.3,2.7c-0.7,0.6-0.7,0.6-0.8,1.9
		c-0.3,3.9-1.6,8.5-2.8,10.5c-0.6,1-0.5,1,0.4,0.6c2.1-1,5-1.3,7.4-0.9c2.1,0.4,2,0.5-1.7,1.5c-5.5,1.6-6.9,2.5-6.9,4.8
		c0,1.6,1,2,2.1,0.9c3-2.9,10.8-4.5,13.4-2.7l0.5,0.3l-0.9,0.2c-0.5,0.1-2,0.3-3.4,0.5c-8.5,1.1-10.1,4.2-6.9,12.7
		c1.5,3.9,1.6,4.3,1.8,7.2c0.4,4,1.3,6.4,2.3,6.6c0.7,0.1,0.8-0.2,0.9-5.8c0.1-5.6,0.3-7.1,1-8.6c1.1-2.3,4.2-4.1,8.1-4.5l1-0.1
		l-1.7,0.8c-4.3,2.1-6.5,4.6-6.8,7.7l-0.1,1.1l0.9-0.9c4-4,13.9-3.9,16,0.2c0.5,0.9,0.7,3.2,0.6,5.4c-0.2,4.5,0.5,9.5,1.6,11
		c0.5,0.7,2.7-3.1,3.4-5.8c1-3.9,0.9-7.2-0.3-12.7c-0.8-3.6-1-4.8-1.2-9.8c-0.3-6.5-1.2-10.5-3.3-13.8c-1.7-2.7-2.7-3.1-8.3-3.4
		c-3.8-0.2-3.6-0.2-3.3-0.8c1.2-2.3,4.2-2.6,7.8-0.8c2.3,1.2,2.8,1,2.8-1.2c0-1.4,0.3-2.7,1-4.1c0.6-1.2,0.8-1.5,2.8-4
		c4.4-5.5,4.7-11.5,1-19.2c-1.1-2.3-1.1-2.4,0.3-1.1c1.9,1.7,3.3,4.3,4.7,8.2c0.4,1.2,0.8,2.3,0.8,2.3c0,0,0-0.7,0-1.5
		c0-1.9-1-4.8-2.9-8.6c-0.6-1.3-0.7-1.7-0.2-1.7c0.3,0,1.9,3.3,2.9,5.8l0.6,1.7l0.4-1.5l0.4-1.5l-0.6-1.8c-0.3-1-1.2-3-1.9-4.5
		c-1.2-2.5-1.4-3-0.9-3c0.4,0,2.3,3.8,3.5,6.9l0.3,0.7l0.1-0.5c0.5-2.5-0.2-5.1-2.7-10c-0.9-1.8-1-2.1-0.8-2.3
		c0.4-0.3,2.3,3.2,3.4,6.1c0.5,1.3,0.6,1.2,0.8-0.3l0.2-1.2l-0.8-2.1c-0.4-1.2-1.2-3.2-1.8-4.4c-1-2.2-1.1-2.7-0.6-2.7
		c0.2,0,1.7,3.2,2.8,6.1l0.6,1.5l0-0.8c0.1-1.2-1.4-5.2-3.2-8.8c-0.7-1.4-0.8-1.8-0.3-1.8c0.4,0,2.1,3.5,3.1,6.3l0.6,1.7l0.2-1.1
		c0.2-1.3-0.5-3.5-2.3-7.8c-1.1-2.6-1.1-2.7-0.7-2.8c0.3-0.1,1.1,1.4,2.4,5c0.9,2.3,1.2,2.9,1.2,2c0-1.1,1.3-4.5,2.5-6.5
		c1.2-1.9,0.4-6-2-10c-0.6-1-0.7-1.4-0.6-1.5c0.7-0.7,3.2,4.5,3.7,8c0.1,0.7,0.2,1.3,0.3,1.3c0.9,0,0.4-3.7-0.9-7
		c-0.6-1.4-0.5-2.1,0.1-1.5c0.6,0.6,1.9,5,1.9,6.3c0,0.8,0,0.8,2.2-1.4c2.3-2.2,5.5-4.8,5.8-4.6c0.1,0.1,0.2,0.8,0.2,1.6
		c0,1.5,0,1.5,0.4,1.5c0.3,0,0.4,0.1,0.4,0.3c0,0.1-0.2,0.4-0.4,0.6c-0.4,0.3-0.4,0.5-0.4,1.3c0,0.5-0.1,1.3-0.1,1.7
		c-0.1,0.6-0.1,0.7,0.1,0.8c0.3,0.1,0.3,0.5-0.2,1.2c-0.3,0.4-0.9,1.7-0.9,2c0,0,0.1,0.1,0.2,0.1c0.5,0,0.5,0.4-0.2,1
		c-0.6,0.5-1.4,1.9-1.4,2.4c0,0,0.5-0.2,1-0.4c1.2-0.6,2-0.7,2.1-0.3c0,0.2-0.1,0.3-0.6,0.5c-1.8,0.6-3,1.5-3.6,2.7l-0.4,0.8
		l1.5-0.7c1.8-0.9,4.2-1.6,4.5-1.3c0.3,0.3,0,0.7-0.4,0.7c-2.2,0-6,2.2-6.7,3.9c-0.5,1.2-0.5,1.3,0.6,0.6c2.7-1.8,7.6-3.5,10.3-3.5
		c0.8,0,0.8,0.6,0,0.7c-0.3,0-1.1,0.2-1.9,0.3c-3.2,0.4-8.3,2.8-9.8,4.5c-0.3,0.3-1,2.5-0.9,2.5c0,0,0.7-0.4,1.5-0.9
		c4.6-2.9,11.7-5.2,16.1-5.2c1,0,0.9,0.6-0.1,0.7c-2.8,0.3-3.8,0.5-5.4,0.9c-5.6,1.3-12.6,4.9-12.6,6.5c0,0.6-0.1,0.7,1.5-0.4
		c5.1-3.4,12.5-5.6,19.8-5.8c2.9-0.1,3-0.1,3.1-0.4c0-0.2,0.2-1.2,0.4-2.2c0.5-2.7,1.4-5.1,1.8-4.7c0.2,0.2,0.6,2.9,1,6.9
		c1.2,11.8,3.3,16.1,8.1,16.5c2.4,0.2,2.6,0.6,1.9,5.2c-0.9,5.9-0.7,6.4,2.5,9.9c0.8,0.9,2.2,2.5,2.9,3.5c1.7,2.2,1.7,2.2,2.7,0.3
		c0.9-1.8,1.8-3,3-3.8c0.9-0.6,2.6-1.2,2.6-0.9c0,0.3-1.1,2.9-2,4.9c-1.2,2.7-2.9,8.5-3.9,13.5c-1.8,8.8-0.4,14,4.8,17.9
		c2.7,2,2.7,2,2.6-1.6c0-5.2,0.4-5.7,9.1-9.3c2.1-0.9,2.5-1,3.5-1c1.1,0,1.1,0,1.2-0.4c0.3-1.2,1.5-5.9,2-7.6
		c0.6-2.1,0.8-2.4,2.7-4.8c0.9-1.1,1.3-1.8,1.7-3.3c0.6-2.2,0.7-2.1-2.1-2.1c-2.5,0-3-0.1-3.8-0.7l-0.5-0.4l1.9,0.1
		c3.2,0.1,4.1-0.1,4.1-1.1l0-0.7l-3.7-0.1c-3.8-0.1-4.5-0.2-5.3-0.8l-0.4-0.3l0.4,0.1c2.1,0.7,6.8,0,8.2-1.3c2.3-2.1,1-6.1-3.8-11.1
		c-6.4-6.8-8.7-10.7-9.6-16.6c-1-6.3-1.2-6.7-3.1-6c-1.8,0.6-4.4,0.3-6.2-0.8c-0.4-0.3-0.8-0.5-0.8-0.6c0,0,1,0,2.2,0
		c4.5,0.1,6.6-1.1,7-4.1c0.2-1.8,0.2-1.8-0.9-1.2c-1.4,0.8-5.1,1.4-5.1,0.9c0-0.2,1.2-0.7,2.8-1.2c4.6-1.4,3.9-3.7-2.3-8
		c-5.4-3.7-8.1-7.8-10.2-15.4c-2.7-9.8-2.2-14,2.2-20.7c2.5-3.7,4.3-7.4,5.1-10.5c0.4-1.4,0.3-5.6-0.1-6.4l-0.4-0.6l0.6-0.7
		c2.5-2.8,2.3-5.8-0.8-12.6c-4.3-9.4-5-17.4-1.5-18.1c1.1-0.2,1.9,0.3,3.6,2.6c1.1,1.5,1.1,1.1,0-0.6c-3.3-5-3.6-8.9-0.8-11.5
		c2.8-2.7,6-1.6,7.2,2.5c0.5,1.7,0.7,1.7,0.2-0.1c-1.1-4.3,0.5-9.4,3-9.4c2.3,0,6.1,3.6,7,6.7c0.1,0.4,0.3,0.7,0.4,0.8
		c0.1,0.1,0.1,0.1,0-0.2c-1.2-3.2,0.6-7.1,3.3-7.1c3.4,0,8.2,9.1,9.1,17c0.3,2.5,2.1,2.5,4.7-0.1c2.9-3,3.4-6,1.2-8.6
		c-1.9-2.3-1.8-3.2,0.5-6.9c3-4.9,2.6-6.8-3.6-17.5c-4.1-7.1-8.2-12.2-12.3-15.7c-3.6-3-5.3-3.6-8.1-2.8c-2.3,0.6-3,0.5-5.7-1.3
		C293,92.2,290.9,91.8,285.7,92.2 M266.2,94.5c-3.4,0.5-5.2,1.2-6.5,2.5l-0.8,0.8l0.5,0.1c0.7,0.1,8-2.9,8.7-3.6
		C268.2,94.3,267.3,94.4,266.2,94.5 M300.1,127.1c0.9,0.2,0.3,0.6-1,0.7c-1.4,0-2.1,0.3-2.8,1.1c-0.7,0.8-1.1,0.6-0.7-0.3
		C296.3,127.4,298.4,126.7,300.1,127.1 M309.6,127.9c0,0.3-0.2,0.4-0.9,0.5c-1.5,0.2-2,0.6-2.2,1.5c-0.2,0.8-0.8,0.7-0.7,0
		c0-1.1,0.8-1.8,2.3-2.1C309.3,127.4,309.6,127.4,309.6,127.9 M309.7,131.3c-0.7,0.3-1.9,1.5-1.9,1.9c0,0.8,0.7,0.8,1.2,0
		c0.4-0.6,0.7-0.8,2.3-1.4c0.2-0.1,0.4-0.3,0.3-0.4C311.5,131,310.5,130.9,309.7,131.3 M301.2,133c-1.4,0.8-3.1,2.8-2.8,3.4
		c0.1,0.4,0.8,0.3,1-0.2c0.3-0.7,1.6-1.9,2.5-2.5c0.7-0.4,0.9-0.6,0.8-0.9C302.6,132.4,302.3,132.4,301.2,133 M292,133.5
		c0,0.2-0.3,0.3-1.2,0.4c-2,0.2-3.8,1.3-4.5,2.8c-0.3,0.7-0.5,0.8-0.8,0.4c-0.5-0.6,1.5-2.8,3.3-3.6C289.9,133.1,292,133,292,133.5
		 M310.4,134.2c-1.1,0.7-1.9,2.3-1.4,2.8c0.4,0.3,0.7,0.1,0.9-0.6c0.3-1,0.9-1.4,2-1.5c0.9-0.1,0.9-0.1,0.9-0.5
		C312.8,133.7,311.3,133.6,310.4,134.2 M301.5,136.2c-1.5,0.8-2.7,3.2-1.5,3.2c0.2,0,0.4-0.2,0.6-0.6c0.5-1.2,1.2-1.7,2.4-1.9
		c0.7-0.1,0.8-0.1,0.8-0.5C303.7,135.8,302.5,135.7,301.5,136.2 M313.8,136.8c-1.9,0.6-4,3-3.3,3.8c0.4,0.4,0.7,0.3,1-0.5
		c0.4-1,1.4-1.9,2.5-2.2c1-0.3,1.2-0.6,0.9-1C314.5,136.6,314.4,136.6,313.8,136.8 M292,138.4c-2.3,0.7-4.8,4.2-3.7,5.1
		c0.4,0.3,0.8,0.1,0.9-0.6c0.3-1.6,1.7-3.1,3.5-3.6c0.8-0.2,0.9-0.3,0.9-0.6C293.5,138.2,293,138.1,292,138.4 M302.5,138.8
		c-1,0.6-2.4,2.8-2.2,3.4c0.2,0.6,0.7,0.3,1.2-0.6c0.8-1.6,1.4-2.1,2.3-2c0.9,0.1,1.3-0.2,0.8-0.7
		C304.3,138.4,303.2,138.4,302.5,138.8 M314.3,140.6c-1.7,0.8-2.9,3.1-1.7,3.1c0.3,0,0.4-0.1,0.6-0.6c0.1-0.3,0.5-0.8,0.8-1.2
		c0.6-0.5,0.9-0.7,2.2-0.8c0.1,0,0.3-0.2,0.3-0.4C316.5,140.1,315.5,140,314.3,140.6 M293.3,141.2c-2.2,1.2-4.1,4.6-2.9,5.1
		c0.3,0.1,0.7-0.3,0.7-0.7c0-1.2,1.9-3.3,3.3-3.8c0.7-0.2,0.8-0.3,0.8-0.6C295.1,140.5,294.3,140.6,293.3,141.2 M304.5,142.3
		c-1.5,0.5-3.2,2.7-3,3.8c0.1,0.7,0.7,0.8,0.9,0.1c0.3-1.4,1.4-2.5,2.7-3C306.5,142.6,306,141.7,304.5,142.3 M295.6,143.7
		c-2.1,0.4-4.2,2.4-4.6,4.4c-0.2,1.1,0.7,1.2,1.1,0c0.5-1.9,2-3.1,4.2-3.6C297.4,144.4,296.8,143.5,295.6,143.7 M286.1,144
		c0,0.2-0.1,0.3-0.3,0.3c-0.8,0-1.7,0.4-2.4,1c-1,1-1.6,0.6-0.7-0.4C283.4,143.9,285.9,143.3,286.1,144 M315.5,143.8
		c-1.4,0.3-2.7,1.9-2.4,2.8c0.2,0.4,0.6,0.2,1-0.5c0.3-0.5,0.6-0.8,1.3-1.1C316.8,144.3,316.8,143.5,315.5,143.8 M304.8,146.2
		c-1.2,0.5-2.5,2-2.5,3c0,0.9,0.9,0.7,1.1-0.2c0.2-1,1.3-1.8,2.5-2c0.7-0.1,0.8-0.2,0.8-0.5C306.7,146,305.7,145.9,304.8,146.2
		 M295.9,147.2c-1.7,0.5-3.6,2.5-3.3,3.4c0.2,0.5,0.8,0.3,1.1-0.4c0.6-1.2,2.1-2.2,3.2-2.2c0.1,0,0.4-0.1,0.5-0.3
		C297.9,147.2,297,146.8,295.9,147.2 M315.2,147.9c-0.7,0.5-1.4,1.5-1.2,1.8c0.2,0.4,0.7,0.3,1.2-0.3c0.2-0.3,0.7-0.7,0.9-0.8
		c0.4-0.2,0.5-0.4,0.5-0.6C316.5,147.4,315.9,147.4,315.2,147.9 M287,149c-1.3,0.6-1.9,1.3-1.9,2.2c0,1,0.7,1,1-0.1
		c0.2-0.6,0.3-0.8,1.3-1.2c0.8-0.4,1-0.6,1-0.9C288.4,148.5,288,148.5,287,149 M305.6,149c-1.5,0.8-2.8,3-2.1,3.5
		c0.4,0.3,0.7,0.1,0.9-0.6c0.3-1.1,1.2-1.9,2.7-2.4c0.2-0.1,0.3-0.2,0.3-0.5C307.3,148.4,306.6,148.4,305.6,149 M317.3,149.4
		c-1.5,2.6-4.6,4.2-5.3,2.8c-0.2-0.3-0.2-0.2-0.1,0.9c0.3,4.3-4.1,9.8-6.5,8.1l-0.6-0.4l0.1,0.5c0,0.3,0.1,0.7,0.2,0.9
		c0.6,3.2-3.2,6.2-5.6,4.4c-0.6-0.4-0.7-0.4-0.7,0c0,1.9-2.6,3.8-4.9,3.6c-1.2-0.1-1.2,0-0.8,0.9c1.2,3,6.3,2.6,7.1-0.5
		c0.1-0.5,0.2-0.5,1.4-0.6c2.8-0.2,5.2-2.3,5.7-5c0.2-1,0.2-1,0.6-0.9c2.5,0.5,4.5-1.8,5.6-6.4l0.6-2.5l0.7-0.1
		c2.6-0.4,4.2-3.1,3.4-6l-0.2-0.8L317.3,149.4 M296.2,150.3c-1.1,0.5-2,1.8-1.7,2.3c0.2,0.3,0.6,0.2,1-0.5c0.4-0.6,1.3-1.2,1.8-1.2
		c0.5,0,0.8-0.3,0.7-0.6C298,150,297,149.9,296.2,150.3 M307.3,150.7c-1.5,0.8-2.7,2.7-2.6,4.3c0.1,0.7,1,0.1,1-0.7
		c0-0.8,1-2.1,2.1-2.7C309.5,150.7,308.9,149.9,307.3,150.7 M288.5,151.8c-1.3,0.7-2.4,2.4-2,3.3c0.2,0.5,0.8,0.3,0.9-0.4
		c0.2-0.9,1.1-1.8,2-2.2c0.6-0.3,0.7-0.4,0.7-0.7C290,151.3,289.5,151.3,288.5,151.8 M298,153c-0.7,0.3-1.5,1.2-1.7,1.8
		c-0.3,1.1,0.6,1.3,1.1,0.2c0.3-0.6,0.5-0.8,1.1-1.1c0.8-0.4,0.9-0.6,0.6-1C298.8,152.6,298.8,152.6,298,153 M308.5,153.6
		c-1.6,0.9-2.8,3.5-1.6,3.5c0.4,0,0.4-0.1,0.6-0.7c0.2-0.8,1-1.8,1.7-2c0.6-0.1,0.9-0.5,0.8-0.8
		C309.9,153.3,309.1,153.3,308.5,153.6 M290.1,154.8c-1.8,1.3-3,4.1-1.7,4.1c0.3,0,0.4-0.1,0.6-0.8c0.3-1.1,0.9-2,1.8-2.5
		c0.6-0.3,0.8-0.5,0.7-0.8C291.5,154.2,290.9,154.3,290.1,154.8 M299.9,155.2c-1.1,0.4-2.2,1.8-2.1,2.7c0.1,0.5,0.6,0.6,0.8,0.2
		c0.7-1.4,0.8-1.6,1.4-1.8c0.4-0.2,0.8-0.3,1-0.4c0.4-0.1,0.3-0.8-0.1-0.9C300.7,155,300.2,155.1,299.9,155.2 M309.6,156.3
		c-0.7,0.7-1.5,2.1-1.4,2.5c0.2,0.5,0.9,0.3,1.1-0.4c0.1-0.3,0.5-0.9,0.9-1.3C311.4,155.9,310.8,155.1,309.6,156.3 M291.2,158.3
		c-1.2,1-2,3.5-1.4,4.3c0.4,0.5,0.9,0.1,0.8-0.6c-0.1-1,0.4-2.1,1.3-2.9C293.2,158,292.6,157.2,291.2,158.3 M300.7,158.1
		c-1.1,0.4-2.1,1.8-1.9,2.5c0.2,0.4,0.8,0.3,1-0.2c0.3-0.7,1-1.3,1.5-1.5c0.6-0.1,0.8-0.4,0.6-0.8
		C301.7,157.8,301.6,157.8,300.7,158.1 M302,160.1c-1.5,0.8-3.1,2.9-2.5,3.5c0.3,0.3,0.8,0.2,0.9-0.3c0.2-0.7,1.1-1.7,2.1-2.3
		c1-0.5,1.2-0.8,0.8-1.1C303,159.6,302.9,159.6,302,160.1 M259.2,161.4c0,0.1-0.8,1.7-2,3.6c-2.2,3.7-2.2,3.6-0.9,3.8
		c1,0.1,0.8,0.3,2.8-3c1.7-2.9,2.1-3.3,2.4-2.9c0.1,0.1-0.4,1.2-1.7,3.2c-1,1.7-1.8,3.1-1.8,3.1c0.2,0.2,2.2,0.4,2.3,0.3
		c0.1-0.4,3-4.5,3.2-4.5c0.6-0.2,0.3,0.6-1,2.6c-1.3,2-1.4,2.2-1.1,2.2c1,0.2,1.9,0.4,2,0.4c0.1,0,0.4-0.4,0.8-1
		c0.8-1.1,0.9-1.2,1.2-1.1c0.3,0.1,0.3,0.3-0.4,1.2c-0.7,1-0.7,1,0.8,1.3c2.4,0.4,6.4,1.5,6.7,1.9c0.6,0.6-0.3,0.6-2,0.1
		c-1-0.3-2.7-0.7-3.9-1c-1.1-0.2-2.2-0.5-2.4-0.5c-0.4-0.1-1.9,1.9-1.6,2.1c0.1,0.1,1.1,0.3,2.3,0.6c2.1,0.5,2.6,0.7,2.2,1.1
		c-0.1,0.1-2-0.2-4.9-0.9c-0.3-0.1-1.7,1.9-1.5,2.1c0.1,0.1,1.3,0.3,2.7,0.5c1.7,0.3,2.6,0.5,2.6,0.6c0.2,0.5-0.3,0.5-2.7,0.1
		c-3.5-0.6-3.2-0.6-4.1,1c-0.9,1.7-1.1,1.5,2.2,1.8c3.1,0.2,3.3,0.3,3.3,0.6c0,0.4-0.3,0.4-3.2,0.2c-3.9-0.4-3.5-0.4-4.2,0.8
		c-0.8,1.4-0.8,1.4,0.9,1.5c1.4,0.1,1.5,0.2,1.5,0.5c0.1,0.4,0,0.4-0.8,0.3c-0.4-0.1-1.5-0.2-2.4-0.3c-0.9-0.1-2.1-0.2-2.7-0.3
		l-1.1-0.1l-1.1,2.1c-1,1.9-1.4,2.3-1.5,1.7c0-0.2,0.4-1.1,0.9-2c1-2,1.1-1.9-0.6-2l-0.9-0.1l-1.8,3.1c-1.9,3.2-2.1,3.4-2.4,3.1
		c-0.1-0.2,0.3-1,1.6-3.2c1-1.6,1.7-3,1.7-3.1c0-0.2-2.1-0.3-2.2-0.1c-0.1,0.1-1,1.7-2.2,3.6c-1.8,3-2.1,3.4-2.5,3.4
		c-0.5,0-0.7-0.7-0.2-0.8c0.3-0.1,4.2-6.4,4-6.5c0,0-0.6-0.1-1.3-0.2c-1.1-0.1-1.3-0.2-1.3-0.5c0-0.2,0.1-0.3,0.3-0.3
		c0.2,0,0.9,0.1,1.6,0.1l1.3,0.1l0.7-1.3c0.8-1.4,0.8-1.5-0.6-1.7c-0.7-0.1-0.9-0.2-0.9-0.4c0-0.5,0.1-0.5,1.4-0.2
		c1.4,0.3,1.2,0.3,2.3-1.4l0.8-1.3l-0.6-0.1c-0.3-0.1-1-0.2-1.4-0.2c-0.7-0.1-0.8-0.2-0.8-0.5c0-0.4,0.9-0.4,2.8,0
		c0.5,0.1,2.3-2.4,2-2.7c-0.1-0.1-3.5-0.7-3.7-0.7c-0.2,0,0-0.5,0.2-0.6c0.2-0.1,1.6,0.1,3.6,0.5c0.4,0.1,0.5,0,1.1-1
		c0.8-1.2,1-1.1-2.4-1.7c-2.4-0.5-2.9-0.7-2.5-1.1c0.1-0.1,1.3,0.1,3.1,0.4c2.3,0.5,2.9,0.5,3,0.4c0.1-0.1,1-1.7,2.2-3.6
		C258.5,161.4,259,160.8,259.2,161.4 M293.5,161.6c-1.7,0.9-2.7,2.5-2.1,3.6c0.4,0.7,0.9,0.4,0.9-0.5c-0.1-1,0.3-1.5,1.7-2.2
		c0.8-0.4,1-0.6,1-0.9C294.9,161,294.6,161,293.5,161.6 M301.7,163.5c-0.6,0.7-0.9,1.3-0.7,1.8c0.2,0.4,0.6,0.3,0.9-0.3
		c0.2-0.3,0.5-0.7,0.8-1c0.5-0.5,0.5-1,0-1.1C302.4,162.8,302.1,163,301.7,163.5 M294.7,164.4c-1.7,0.7-3.1,3.4-2.3,4.4
		c0.3,0.5,0.8,0.1,0.9-0.6c0.2-1.5,1.1-2.6,2.4-3c0.6-0.2,0.7-0.2,0.6-0.6C296.2,164.2,295.4,164.1,294.7,164.4 M295.3,167.3
		c-0.6,0.4-1,1-0.8,1.4c0.1,0.4,0.5,0.3,1.1-0.2c0.3-0.3,0.6-0.5,0.8-0.6c0.3-0.2,0.3-0.3,0.1-0.5
		C296.2,167,295.9,166.9,295.3,167.3 M254.1,170.2c-0.7,1.2-0.7,1.2,0.6,1.4l0.9,0.1l0.6-1c0.7-1.2,0.8-1.1-0.2-1.3
		c-0.4-0.1-0.9-0.2-1-0.2C254.8,169.2,254.5,169.5,254.1,170.2 M257,170.7c-0.3,0.5-0.6,1-0.6,1.1c0,0.1,2,0.6,2.1,0.5
		c0.1-0.2,1.2-2,1.2-2c0-0.1-1.5-0.4-1.9-0.4C257.7,169.8,257.3,170.2,257,170.7 M260,171.3c-0.7,1.1-0.7,1.3,0.3,1.4
		c0.4,0.1,0.9,0.2,1.1,0.2c0.3,0.1,0.4,0,1.5-1.6l0.3-0.4l-1-0.2c-0.5-0.1-1.1-0.2-1.2-0.3C260.8,170.4,260.4,170.7,260,171.3
		 M252.2,173.3c-0.4,0.7-0.8,1.4-0.7,1.4c0,0,0.5,0.1,1.1,0.2l1,0.1l0.7-1.2c0.9-1.4,0.9-1.5,0-1.6c-0.4-0.1-0.8-0.1-1-0.2
		C253.1,172,252.7,172.4,252.2,173.3 M255.2,173.8c-0.4,0.6-0.7,1.2-0.7,1.2c0,0.1,0.3,0.2,0.8,0.2c0.4,0.1,0.9,0.1,1.1,0.2
		c0.3,0.1,1.8-2.2,1.6-2.4c-0.1-0.1-1.3-0.4-1.7-0.4C255.9,172.7,255.6,173,255.2,173.8 M258.2,174.3c-0.9,1.4-1,1.3,0.5,1.4
		l1.2,0.1l0.6-0.9c0.3-0.5,0.6-1,0.7-1.1c0.1-0.1-0.2-0.3-0.8-0.4c-0.5-0.1-1-0.2-1.2-0.3C259,173.2,258.6,173.6,258.2,174.3
		 M250.5,176.1c-0.8,1.3-1.3,2.2-1.3,2.3c0,0,0.5,0.1,1,0.2l1,0.2l0.9-1.5l0.9-1.5l-0.7-0.1C251.1,175.4,250.9,175.5,250.5,176.1
		 M253,177.3c-1,1.7-1,1.6,0.3,1.8l1,0.1l0.8-1.5c0.9-1.6,0.9-1.6-0.4-1.8l-0.9-0.1L253,177.3 M256.1,177.7c-1,1.7-1,1.6,0.4,1.7
		c1.3,0.2,1.2,0.2,2.2-1.6c0.8-1.3,0.8-1.3-0.8-1.5l-1-0.1L256.1,177.7 M247.9,180.4l-0.8,1.3l0.6,0.1c1.5,0.3,1.6,0.2,2.3-1.1
		c0.7-1.2,0.7-1.5,0-1.5c-0.1,0-0.5,0-0.8-0.1C248.7,179.1,248.7,179.2,247.9,180.4 M250.9,180.8c-0.8,1.4-0.8,1.4,0.6,1.5l1.1,0.1
		l0.7-1.2c0.4-0.7,0.7-1.2,0.7-1.3c0,0-0.5-0.1-1.2-0.2l-1.1-0.1L250.9,180.8 M254.1,181.2c-0.8,1.4-0.8,1.3,0.6,1.5
		c1.4,0.2,1.5,0.1,2.6-2.2c0.1-0.1-0.3-0.2-1.7-0.4l-0.7-0.1L254.1,181.2 M287.6,188c-0.9,2.2-2.1,4.3-3.9,7.1
		c-3.1,4.6-3.7,6.4-3,8.2c0.1,0.2,0.2,0,0.6-0.9c1.3-3.4,3.6-7.7,5.9-11.1l1.2-1.8l-0.1-1.4c-0.1-0.8-0.1-1.4-0.1-1.5
		C288.2,186.7,287.9,187.3,287.6,188 M287.2,192.8c-2,3.1-4,7-5.4,10.4c-0.7,1.8-0.7,1.7-0.3,3l0.3,1l0.2-0.5c1.1-2.9,1.6-4,2.6-6.1
		c0.7-1.3,1.8-3.4,2.5-4.7l1.3-2.2l-0.1-1.3l-0.1-1.3L287.2,192.8 M287.5,196.9c-3,5.2-5.4,11-5,12.3c0.2,0.9,0.3,0.8,1-1.1
		c0.7-2.1,2.4-5.4,3.9-7.9l1.3-2v-1.5C288.6,194.8,288.7,194.8,287.5,196.9 M287.3,201.6c-1.9,3.2-4,8.2-4,9.5
		c0,0.6,0.6,1.8,0.7,1.5c0-0.1,0.4-1.1,0.7-2.2c0.7-2.2,2-5.1,3.2-6.8l0.8-1.2l0-1.4l0-1.4L287.3,201.6 M288.1,204.8
		c-1.4,2.3-2.4,4.6-3.1,7.4l-0.5,1.9l0.4,0.9c0.2,0.6,0.4,0.8,0.5,0.7c0-0.1,0.3-0.8,0.5-1.6c0.6-2,1.3-3.8,2.2-5.7
		c0.8-1.7,0.8-1.7,0.7-3.2l0-1.5L288.1,204.8 M288.4,209.4c-1.4,3-2.7,7.4-2.5,8.3c0.2,0.7,0.3,0.6,0.7-0.7c0.2-0.7,0.8-2.1,1.3-3.3
		c0.9-2,0.9-2.1,0.9-3.5l0-1.5L288.4,209.4 M287.8,215.8c-0.8,2.1-1.2,3.4-1.2,4c0,0.8,0.5,2.8,0.7,2.7c0.4-0.5,1.4-6.3,1.3-7.8
		C288.5,214.1,288.5,214.1,287.8,215.8 M259.2,249.3c-6.7,0.3-14.3,2.8-18.8,6c-3,2.2-1.2,2,2.8-0.3c4.5-2.5,8-3.3,14.2-3
		c1.7,0.1,3.4,0.1,3.7,0.1c0.6,0,1.3-0.7,1.6-1.8l0.3-0.8l-0.6-0.1C261.7,249.2,261.3,249.2,259.2,249.3 M73.4,253.7
		c-0.1,0.1-0.5,0.2-1.1,0.3c-2.8,0.5-5.2,3.4-6.3,7.7c-0.3,1-0.2,1.1,0.4,0.6c0.7-0.6,0.8-0.4,0.5,0.7c-0.3,1.3-0.1,1.4,0.7,0.4
		c0.4-0.5,0.7-0.8,0.7-0.7c0,0-0.3,0.7-0.6,1.5l-0.6,1.4l0.8,0.4c1.5,0.9,3,0.3,4-1.6c0.2-0.4,0.9-1.7,1.6-2.9
		c0.9-1.6,1.2-2.4,1.3-3c0.1-1.1,0.1-1-0.9,0.9c-1.1,2.3-1.2,2-0.1-0.4c1-2.2,1.2-3.6,0.7-4.6C74.4,253.8,73.7,253.5,73.4,253.7
		 M83.9,288.7c-3.2,1.7-4.2,5.2-4.1,12.9c0.1,5.9,0.4,7.1,1.7,7.9l0.5,0.3l0.3-1l0.3-1l0.3,0.7c1.2,2.4,3.2,2.3,3.5-0.1l0.1-1.2
		l0.3,0.5c1.3,2.4,1.7,2,1.6-1.4c-0.1-2.6,0-3.5,0.9-5.1c0.8-1.5,0.8-3.1,0.1-5.2c-0.4-1.2-0.4-1.1-1.1,2.1
		c-0.4,1.6-0.8,3.1-1.1,3.7l-0.5,0.9l-0.1-1.2c-0.1-1.6,0.2-5,0.6-6.9C88.4,290,86.7,287.2,83.9,288.7 M304.8,306.5
		c-0.8,0.9-3.1,1.6-4.9,1.6c-1.7,0-2.2,0.2-3.6,1.6c-2,1.9-2.1,2.3-2.1,5.4v2.6h1.1c1.3,0,1.7-0.3,2.4-1.9c0.4-0.8,0.5-1,1-1.1
		c0.3-0.1,0.9-0.4,1.2-0.6l0.5-0.4l0.5,1.6l0.5,1.6l0.2-0.5c0.1-0.3,0.6-1,1.2-1.5c1.2-1.3,1.3-1.4,2.1-5.4
		C305.6,305.6,305.6,305.7,304.8,306.5 M135.3,311c-1.6,0.5-1.8,0.7-3.5,6.5c-2,6.9-2.4,8.7-2.7,12.5c-0.2,3.1-0.2,3.5,0.6,2.4
		c0.5-0.7,1.9-2,2.1-1.8c0,0,0,0.6-0.1,1.3c-0.7,5,0.3,4.9,2.5-0.3c0.3-0.8,0.6-1.4,0.6-1.3c0,0.1-0.3,1.9-0.6,4
		c-0.8,4.5-0.8,3.9,0.7,4.4c2.7,0.9,4.5,0.5,5.8-1.3c1.6-2.2,1.9-2.9,2.6-5.5c0.3-1.4,1.1-4,1.7-5.9c1.4-4.4,1.5-4.7,1.2-6.2
		c-0.1-0.6-0.2-1.2-0.2-1.3c0.1-0.1,0-0.2-0.1-0.2c-0.2,0-0.7,1.7-1.2,4.3c-0.5,2.2-1.2,4.5-1.7,5.3c-0.5,0.9-0.6,0.9,0.4-3.2
		c2.2-9.8,2.3-11.2,0.4-12.5C142.1,311,137.4,310.4,135.3,311 M210.3,321.1c-3.8,0.6-4.9,3.6-3.7,10.6c0.2,1.2,0.3,2.2,0.3,2.2
		c-0.3,0.3-1.5-4.1-1.9-6.6l-0.3-1.8l-0.3,0.5c-0.3,0.4-0.3,0.7-0.3,2.7c0,1.2,0,3.3-0.1,4.6c-0.4,5.3,0.3,9.4,2.2,12.6
		c0.8,1.4,0.8,1.3,0.9-2l0-3l0.6,1.8c0.3,1,0.8,2.7,1,3.8c0.6,3,0.9,3.3,4.4,3.3c3.5,0,3.9-1,2.7-6.8c-0.2-0.9,1,1.3,1.5,2.8
		l0.5,1.5l0.6-1.1c1-1.8,1-3.2-0.1-7.4c-1-4-1.1-4.3-1.6-9.1c-0.6-5.7-0.8-6.6-1.5-7.4C214.2,321.4,212.1,320.8,210.3,321.1"/>
</g>
</svg>
