<svg xmlns="http://www.w3.org/2000/svg" viewBox="0 0 370 370"><path d="M320.7 65.4c-.3.2-1.6 2-2.9 4.1l-2.4 3.7-.1-1.4c-.1-.8-.1-2.1-.1-2.9 0-1.6-.1-1.7-.4-1.3-3.7 4.7-4.5 6.3-5.5 10.3-.5 2-.9 3-2.2 5.5 0 .1.7-.2 1.6-.6 1.8-.8 2-.9 2.1-.5.1.3-.1.5-1.2.9-2.7 1-6.8 4-8.3 5.9-.4.5-1 2.1-.8 2.1l.9-.9c3.5-3.4 11.7-7.6 11.7-6 0 .2-.1.4-.5.5-2.9.6-5.4 1.9-8.9 4.6-2.9 2.2-1.4 1.9 2.8-.6 5.3-3.2 9.3-3.9 14.3-2.6 3.2.8 3.2.7-.7 7.7-1.9 3.4-1.9 3.4-1 3.5.9.2 1.9-.2 2.9-.9 2.1-1.7 2.6-2 4.6-3.2 1.1-.7 2.3-1.4 2.5-1.6 2.1-1.9-2.2 4.2-4.8 6.9-2.3 2.4-3.2 4.6-1.9 4.7.5 0 .6-.1 2.3-2.7 1-1.5 1.9-2.7 2-2.7.5.2.2.7-1.5 3.3-1.6 2.4-1.8 2.7-1.6 3 .1.2.2.8.1 1.4-.1 1.3-.2 1.4 1.2-1 4.2-7.1 13.3-14.8 23.3-20 2-1 2.2-1.3 1.8-2.7-.1-.5-.3-.9-.3-1-.3-.3-6.2 2.6-9 4.3-1.4.8-1.8.9-1.8.4s6.4-3.9 9.5-5.1c1.1-.4 1.1-.4.8-.9-.3-.4-3.3.7-6.8 2.3-1.9.9-2.2 1-2.2.5 0-.4 3.6-2.1 6.9-3.2 1.8-.6 1.7-.5 1.3-1.3-.5-1-1.3-.9-3.9.7-.9.6-1.3.6-1.3.2 0-.3 1.7-1.4 3.3-2 1-.4 1-.4.5-1l-.4-.5-1 .2c-1.4.3-1.8.3-1.8-.1 0-.3.2-.4 1-.5.5-.1 1-.3 1.1-.3.3-.3-3.2-3.6-4.5-4.1-.9-.4-1.4-.2-4.8 1.8-1.7 1-3.1 1.7-3.1 1.7-.1-.2.7-1.7 1.6-3 1-1.5.7-2.2-1.3-3.4-2.8-1.7-11.9-3.2-13.1-2.2m-35 26.8c-3 .2-6.9.6-10.8 1.1l-3.5.5-2.6 1.2c-1.4.6-3.4 1.6-4.4 2.1-2.2 1.1-3.5 1.6-4.8 1.7l-1 .1-.1.7-.1.7 1-.1c1.4-.2 3.5-.9 6.5-2.3 8.1-3.8 14.4-3.5 17.1.6.7 1.1 1.5 1.8 2.1 1.8.4 0 .5.1.5.3 0 1-1.9.2-2.9-1.2-1.9-2.6-3.5-3.4-7.4-3.3-3.2 0-4.9.5-9.7 2.8-2.4 1.1-4.5 1.9-5.6 2-1 .1-1.1.3-.3.5 1.3.2 4.2-.4 8.1-1.8 7.2-2.7 10.5-2.5 13.8.6 1.7 1.6 2.3 1.9 3.8 1.8 5.7-.5 9.9 0 15.7 1.7 4.1 1.2 6.1 3.2 6.2 6.1 0 1.5 0 1.5-1.2.4a22.2 22.2 0 0 0-17-6.3c-5.7.2-5.3.3-7.9-1.7-2.6-2.1-2.7-2.1-11-.6-13.2 2.3-14.5 3.4-22.4 17.5-2.7 4.9-4.4 7.4-6.3 9.3l-1.5 1.5h2.5c3 0 4.8.4 4.8 1 0 .4 0 .4-1.9 0-2.3-.5-5.8-.3-7.8.4-1.7.6-2 .8-.9.6 2.6-.5 6.3.1 8.9 1.3l1.5.7-3.8-.1c-8.3-.2-12.6 1.3-17 6-2.2 2.3-2.3 2.6-2.2 4.8.2 4 2.5 6.2 7.1 6.7 1.8.2 1.9.8.2.7-4.6-.2-7.4-2.6-8.1-6.5l-.2-1.4-.5 1.2c-1 2.7.3 5.4 3.6 7.3.8.5 1.4.9 1.4 1 0 1.4-4.4-1.8-5.5-4l-.5-1 .1 1.3c.1 2.2.8 3.2 3 4.9 2.3 1.8 2.4 1.8 1.1 2-2.6.3-6-1.1-6.6-2.8-.1-.2-.2-.2-.4.1l-.3.3.4.7c.6 1.1 1.5 2.1 2.5 2.6.5.2.9.5.9.7 0 1.2-3.3-1-4.1-2.7-.4-.8-.4-.8-1.1-.1l-.5.6.3.7c.2.4.6.9.9 1.2.6.5.8 1 .3 1s-1.2-.7-1.7-1.5l-.5-.8-1.3 1.2a63.3 63.3 0 0 1-5.8 4.7c-2.6 1.8-24.4 14.7-28.7 16.9l-1.7.9.5.9c.6 1.2.6 2.8-.1 4.7-.8 2.2-1.5 1.8-.7-.4.9-2.7.4-5.2-1-4.6-.5.2-.6.4-.3.6 1.1.7.9 3.8-.2 4.7-.6.5-.7-.2-.2-1 .7-1.2.5-2.9-.4-3.4-.7-.4-5.9 2.7-8.4 5-4.2 3.8-9 10.6-11.5 16.3-.4.9-.9 1.5-2.4 3.1-2 2-2.1 2.2-6 8.3-3.1 4.8-13.2 12.1-16.8 12.1-.2 0-1.1.3-2 .6-2.5.9-3.6.8-6.2-.6-.6-.3-3.9-1.7-7.4-3.1l-6.3-2.5-.1.4c-.2.7-.5 1.2-1 1.5-.5.3-.5.3-.3-.1 1-1.8-1.1-3.5-4.3-3.5-2.5 0-3.9 1.7-2.9 3.5l.3.5-.9-.5c-1.1-.6-1.3-.9-1-1.6.3-.7.1-.8-.8-.1-1.8 1.3-2 2.7-.4 3.1 1.2.3 1.2.3 0 .7-1.9.6-3.1.5-3.1-.3 0-1.1-1.1.2-7.4 8.6-1.5 2.1-3 4-3.2 4.3-.5.6-2 1.8-2.9 2.2l-1 .1h.7c.8 0 1.6.4 1.8.8.1.3.1.3-1.1.1-1.3-.2-2.3-.1-2.9.4-.6.6-.5 1 .1.8.7-.2 2.4.2 2.8.6l.3.4-.6-.1c-2.9-.5-3.7-.2-4.3 2-.5 1.8-1.5 3.5-3.5 5.9l-.9 1.1.9-.1c3.4-.4 3.8-.3 4.6 1 .9 1.5.7 3.1-.7 5.9-2 4.3-2 4.5 1.4 3.6 1.3-.3 1.2-.2 1.3-1.7.1-1.1.1-1.3.4-1.3.3 0 .3.1.3 1.1v1.1c.7 0 .9-.5.9-2.9 0-2 0-2.4.3-2.4.4 0 .4.3.6 2.4.1 1.7.1 1.6.1-.9 0-1.5-.1-3-.2-3.3-.1-.6.3-1 .6-.6.1.2.5 3.6.5 4.8 0 .7 0 .8.2.6.2-.2.3-4.6.1-6.2-.1-.8-.1-1 .1-1.1.5-.2.6.3.7 3l.1 2.7.4-.8c1.3-2.8 1.1-7.1-.4-11.3-.1-.2.1-.1.6.3.9.8 1.3 2.1 1.5 3.9.1 1 .2 1.3.3 1.1.1-.2.5-1 .9-1.9 1-2.2 1.1-4.5.3-7.5-.2-.6.7.2 1.5 1.4l.5.8.6-.7c.7-.8.9-1.6.8-4.1 0-1.4 0-1.6.2-1.6.4 0 .5.6.5 2.5 0 .9.1 1.6.2 1.6.5 0 .9-1.5 1.1-4 .1-1.3.2-1.5.4-1.5.4 0 .4 1.3.1 3.1-.1.6-.1 1.1-.1 1.2.3.3.7-1.4.9-3.4.1-1.3.2-1.6.7-1.5.3.1.2 1.8-.1 3.4-.2.8-.1.9.3.7.6-.3 1.1-2.8 1.1-5.5 0-2.3.1-2.7.5-2.1.4.5.3 3.6-.1 5.6-.2.9-.3 1.6-.3 1.6s.4-.1.8-.3c1.3-.5 2.2-3.2 2.7-8.1.2-1.8.4-2.3.8-1.9.3.3-.4 5.2-1.1 7.5-.5 1.7-.5 1.6.4 1.2 1.1-.6 2.3-4 2.7-7.6.2-1.6.3-2 .7-1.7.4.3-.2 4.2-1 6.7-.6 1.7-.6 1.6.5.9 1.2-.8 2.3-3.2 3-6.8.3-1.5.5-1.8.8-1.4.3.3-.3 3.1-1 5-.7 1.8-.6 1.8.9.3 1.6-1.5 2-2.2 2.7-4.6l.6-2 .4 1.1c.8 2.3.9 4.2.3 5.3l-.3.5h.6c1 0 1.5-2.6 1-5.4-.1-.9-.1-1 .2-1 .7 0 .9 3.1.4 5.1-.1.6-.2 1.1-.2 1.2.3.3 1.8-1.5 2.2-2.8.2-.6.4-.9.6-.9.6 0 .1 1.8-.8 2.9-.6.7-.6.8.3.8.9 0 1.3-.6 1.7-2.3.1-.7.3-.9.5-1 .4-.1.3 1.6-.2 2.6-.5.9-.5.9.3.9s1.7-.9 2.1-2.2c.3-.9.9-1.2.9-.5 0 .4-.7 2-1 2.2-.4.3-.1.4.6.4.9 0 1.8-.9 2.5-2.5.2-.5.4-.7.6-.7.6 0 .2 1-.8 2.4-.5.7-.5.8-.3.8s.4 0 .6.1c.4.1 1.4-1.3 1.8-2.8.2-.8.4-1 .6-1 .5 0 .3 1.1-.5 2.6-.7 1.4-.7 1.4-.1 1.4.5 0 1.3-1.4 1.6-2.8.1-.4.2-.5.4-.5.5 0 .4.7-.2 2.2-.3.7-.5 1.3-.5 1.3.7.7 1.9-.7 2.7-3.2.4-1.1.5-1.4.8-1.4.6 0-.2 2.5-1.2 4.2l-.5.8 1 .2c.8.2 1.1.2 1.3 0 .5-.4 1.8-2.6 2.4-3.9.5-1.2.9-1.7 1.1-1.3.2.3-.9 2.9-1.8 4.2-.5.7-.8 1.3-.8 1.4.1 0 .6.1 1.3.2l1.2.1.5-.8c.9-1.3 1.4-2.6 1.7-4.1.2-1.2.3-1.4.6-1.4.7 0 .1 2.8-1 4.9-.3.7-.7 1.3-.7 1.4-.2.5 1.5.1 2-.5.9-1.1 2.3-4.2 2.8-6.2.4-1.5.5-1.9.7-1.9.9 0-.8 5.5-2.4 7.7-.6.8-.4.9 1.1.1l1.1-.5.8-1.7c1-2 1.6-4.4 1.8-6.7.1-1.5.2-1.7.5-1.7.7 0 .2 3.8-.8 6.8-.8 2.5.7.1 2.1-3.3 1.4-3.4 2.3-4.1 5.9-4.9 3.3-.7 4.2-1.3 5.2-3.5.8-1.7 1-5.9.5-9.8-.1-1.1.5-1.4.7-.3.2 1.1.4 4.9.3 5.9l-.1 1 .6-1.2.6-1.2v-3c0-1.6-.1-3.5-.1-4-.1-1 .1-1.5.5-1.2.2.2.4 2.3.5 4.3l.1 2.1 1-1.5c1.1-1.8 1.2-1.9.6-5.4-.3-1.8-.3-2.3-.2-2.5.4-.4.5.1.9 2.4.5 3.1.4 3 1.3 1.9.9-1.2 1.2-2.2 1.2-5.2 0-2.1 0-2.2.3-2.2.5 0 .6.8.5 3.1l-.1 1.9 2.1-2.1c4.1-4.2 7.3-6.1 16.8-9.9 6.3-2.6 7.9-3.3 13.3-6.3 4.7-2.6 9-4.8 10.4-5.4l.6-.3-.3.5c-1.5 2.1-4.8 4.8-10.4 8.5-2 1.3-4.7 3.3-5.9 4.3-2.9 2.4-5.9 4.4-11.5 7.6-8.2 4.7-8.9 5.4-10.9 10.2-2.5 6.1-4.5 9.6-7.8 13.8-2.5 3.2-3.2 3.7-6.5 4.2-2.5.4-2.2.2-5.9 4.5l-3.2 3.7-1.7.5c-7.3 2-15.3 2.3-22.6.6-3.2-.7-3.5-.7-4.8-.4-1.1.3-1.1.3-.7.5 3.1 1.3 4.3 2.4 4.3 4 0 .8-.2.8-1.4-.1-3.9-2.8-7.5-3.4-9.4-1.6-.9.8-.5 1.1 1.9 1.4 1.7.2 2.5.5 3 1.2s.4.7-.8.3c-2.5-.9-7-1.2-8.3-.6-1.7.7-3 2.5-4.1 5.5-1.3 3.6-2.1 5-5 8.9-1.6 2.2-3.3 4.1-3.7 4.1-.2 0-.2.1-.1.2s1.2.2 2.5.3c2.6.2 3.3.4 3.8 1.4.5 1.1.4 1.3-.6.8-3.3-1.8-10.6-1.3-12.1.8-.5.7-.5 1.6-.1 1.4 3.4-1 9.9-.1 10.7 1.5.4.8.3.8-1.1.4-3.5-.9-8.7-.7-10.8.4-1.1.6-1.6 2.2-1.8 6.5-.1 1.6-.2 3.4-.3 4-.1 1.5 0 1.6 1.1 1.3 1.8-.6 2.7-.5 3.8.3.5.4 1.2 1.4.9 1.4-.1 0-.8-.1-1.6-.2-3.2-.5-4.1.2-4.4 3.1-.1.9-.2 1.7-.3 1.9-.3.5 0 .4.4-.1.9-1.2 3.1-1.5 4.7-.7 4.1 2 6.7 11.3 4.6 16.4-.1.2 0 .2.4-.2.5-.5 1.3-.8 3.5-1.4 1.6-.4 2.3-1.3 2.6-3.4.3-1.8.4-2.1 1.4-3.5 1.5-2 3.1-6.5 6.4-17.6.3-1.1.9-2.8 1.4-3.7 1.2-2.6 1.2-4.5-.1-8.7-.3-.8-.5-1.8-.6-2.2l-.1-.6.9 1c1.6 1.7 2.4 3.9 2.6 7.4l.1 1.9h.9c2.9 0 10.6-4.1 11.8-6.3 1.7-3.1 1.9-6 .7-8.3-.5-.9-1.1-2.5-1.5-3.5-.3-1-.8-2.2-.9-2.5l-.3-.7.5.1c3.8.9 6.2 4.9 6.3 10.6 0 1.4.1 2.7.2 2.9.2.4.8.7.8.4 0-1.8.7-5.6 1.1-5.6.3 0 .3.5-.1 3.5-.3 2.6-.3 2.6.4 2.7l.5.1.4-1.3c.6-1.8 1-3.6 1.4-5.4.2-.8.3-1.7.3-1.9.1-.4.5-.5.7-.1.2.5-1 5.8-1.8 8-.4 1.1-.4 1.1.7 1.2l.8.1.3-1.1c.1-.6.8-3 1.5-5.5.7-2.4 1.3-4.5 1.3-4.6 0-.3.5-.5.7-.3.2.2-.6 3.1-2.3 8.8-.4 1.4-.7 2.6-.7 2.6.3.3 1.4.3 1.5 0 .1-.2.5-1.2.9-2.3 1.1-2.6 2-5.5 2.8-8.4.5-1.8.7-2.4.9-2.5.9-.2-1.3 7.5-3.4 12.1-.6 1.3-.6 1.5.1 1.5s.8-.1 2-2.9 2.3-6.1 3.1-9.1c.7-2.6.8-2.9 1.2-2.6.6.4-2.1 9-4.1 13.3-.7 1.4-.7 1.5.4 1.3 1.2-.2 1.4-.4 2.7-4.5 3.1-9.4 4.6-12.6 7.1-15 1.5-1.5 10.4-5.9 15.2-7.4 3.5-1.1 4.1-1.6 4.2-2.8.1-1.1-.4-2.5-1.2-3.7-.6-.9-.7-1.4-.3-1.4.6 0 2 2.4 2.2 3.8.1.8.3.9.5.3.3-1.1 0-2.2-1.2-4-.8-1.2-.8-1.4-.5-1.5.4-.2 1.5 1.2 2.1 2.8l.3.8.2-.8c.3-1.2-.9-3.4-1.8-3.4-.1 0-.2-.1-.2-.3 0-.7 1.2-.2 2 .9l.4.5.1-.4c.1-.2.2-1.3.4-2.3.6-3.4 1.5-6 2.6-7.4l.4-.5-1-.3c-1.1-.3-2.7-1.2-2.7-1.5 0-.4.5-.4 1.1 0 1.7 1.1 2.9 1.3 4.1.4l.9-.7h-1.2c-1.5 0-2.7-.4-3.4-1-.8-.7-.2-.9 1-.2.9.4 1.1.5 2.9.5h2l1.2-.8c2.5-1.7 3-2.6 3.5-6.7.6-4.4.9-4.9 6.1-8.1 5-3.1 5.9-3.6 18.9-10l12.1-5.9-.5.9c-2 3.6-5.4 8.1-7.8 10.4-3.4 3.2-4.9 3.9-10.2 4.3-8.1.6-10 2.9-10 11.9 0 8-1.1 9.8-8.8 15.2-5.3 3.7-4.8 3.1-10 13.3-1 2-.6 2.9 2.7 5.6 1.5 1.3 1.4 1.5-.3.6-3.1-1.5-7.9-2-11.1-1.2-1.1.3-1.6.6-.9.6.5 0 1.9.7 2.6 1.3.7.6 1.5 1.7 1.1 1.4-.1-.1-.5-.3-.8-.5-3.1-1.9-9.9-1.8-10.1.2-.1.6.1.7 2.5 1 1.4.2 2.9.9 3.9 1.7.8.7.8.8-.3.6-2.9-.8-7-1.1-8-.6-1.3.6-2.4 2.1-3.5 4.7-.3.7-1.9 4.3-3.6 8-1.7 3.7-3.4 7.9-3.9 9.3-1 2.7-1.8 4.7-2.3 5.1-.3.2 0 .3 2.9.3 5.1 0 6.8.5 6.7 2.1-.1 1 0 1-1.8.5-2.4-.6-8.6-1-10.2-.5-1 .3-2.1 1.5-2.1 2.2l4.6.2c8 .2 9.3.7 9.6 3.9l.1 1.2-1.9-.8c-4.7-2.1-8.3-2.8-11.5-2.3-4.3.7-5.4 2.8-6.1 11.2-.1 1.6-.4 4-.5 5.3-.3 3.3-.6 8.3-.6 11.8v2.9l.2-1.8c.7-5.9 3.3-9.5 7.7-10.7 3-.8 6.8.1 7.2 1.6.1.4.2.4-1.1 0-3-1-7.8-.3-9.5 1.4-.8.8-.8 1 .1.7 8.1-2.9 15.1 1.8 14.6 9.7-.3 4.6-1.4 8.1-2.6 8.7-.7.4.6.1 1.6-.3 3.3-1.5 5-5 6.1-12.4.6-3.9.9-5.2 2.2-8.7 1.4-3.7 1.7-4.8 2.3-8.7.3-2 .9-5 1.4-6.7 1.7-7.2 1.8-8.4.9-13.3-1-5.5-.9-7 .6-6.4 1.4.7 1.8 2 2.2 8.2.3 5.3.3 5.1 1.8 3.9 1.1-.8 1.8-1.1 4.7-2 3-.9 6-2.6 6.6-3.8.5-1 1.3-7.9 1.3-12 0-2.6 0-2.7.3-2.7.8 0 .3 12.4-.6 13.7-.3.5.3 0 1.3-1l1.1-1.1.2-2.9c.1-1.6.2-4.8.2-7.1 0-4 0-4.2.3-4.2.4-.1.6 3.8.4 9.1-.1 2.1-.1 3.9-.1 4 .1.1 1.8-2.2 1.9-2.5 1.2-5.3 1.6-12.2 1.2-18.2-.1-1.8-.1-2 .2-1.9 1.1.2 1 12-.2 17.9-.1.7 2-3.7 2.3-4.7.6-2.1.8-12.1.2-16.2-.2-1.7-.1-2.3.4-1.7.5.7.9 8.9.6 12.8-.1 1.3-.1 2.4-.1 2.5.1.1 2.1-5 2.7-6.7.8-2.3.7-8.1-.3-12.7-.3-1.6-.3-1.9.1-1.9.5 0 1.2 3.8 1.4 7.6l.2 2.6c.1.1 1.5-4.5 1.6-5.6.2-1.3.3-6.5.1-8.8-.1-1.3-.1-1.4.3-1.4s.5.9.6 4.8v2.8l1.1-3.4 1.1-3.4-.2-2.2c-.1-1.2-.4-3.2-.6-4.3-.2-1.5-.3-2.2-.2-2.3.5-.5.7.3 1.3 4.5l.4 2.6.6-1.8.6-1.8-.1-4.2c-.1-4.2-.1-4.2.3-4.2.3 0 .4.2.5 2.5.2 3.8.1 3.7.9 1.7.7-2 .9-4.1.5-8.1-.1-1.4-.1-1.5.2-1.5.5 0 .5.2.6 3 .1 2.5.1 2.5.4 2 .1-.3.6-1.4 1.1-2.4.9-1.9 1.2-3.3 1.2-5.7 0-1.1.2-1.5.6-1.2.2.1.2.5.1 1.9-.1 1.1-.1 1.7 0 1.6.1-.1.6-.6 1-1.2 1.9-2.3 4-3.7 11.9-8 3-1.6 5.8-3.2 6.3-3.4l.9-.5-.3.6c-.2.3-1.8 3.4-3.6 6.8s-3.3 6.3-3.3 6.3.5.2 1.1.3c3.2.5 5.7 2.9 6.3 6 .4 2 .4 2-.8.9-5.1-4.6-10.1-3.4-13.3 3.2-1.7 3.5-2.1 5.5-2.3 11.1-.1 4.9-.2 5.4-1.5 8.8-1.7 4.5-4.6 9.1-7.6 12.2-.6.7-1.2 1.2-1.1 1.3 0 0 1.9 0 4.2-.1 6-.3 7.6.3 7.6 2.8 0 .9-.1.9-1.1.3-5.1-3.1-10.5-1.3-14.7 5-1.4 2.1-1.4 2.1-.3 1.4 2.5-1.6 6.5-1.8 8.9-.5.3.2.5.3.4.3-9 .2-11.4 2.7-10.2 10.7.4 2.7.3 2.6 1 2.1 1.9-1.5 6.7-2.7 6.7-1.8 0 .3-.1.3-2.3.7-1.2.2-3.1 1-4.1 1.8-.8.6-.8.5-.4 2.2l.1.4.8-.6c2.4-1.9 10.7-3.9 9.4-2.3-.1.1-.5.3-.8.3-2.6 0-6.9 1.5-8.6 3l-.6.6.1 1.1.1 1.1.6-.5c2.1-1.7 4.8-2.7 7.8-2.8 2.9-.1 4.9.3 4.5.9-.1.2-.3.2-.8 0-3.5-1-8.4.2-11.3 2.7-.7.6-.7.6-.8 1.9-.3 3.9-1.6 8.5-2.8 10.5-.6 1-.5 1 .4.6 2.1-1 5-1.3 7.4-.9 2.1.4 2 .5-1.7 1.5-5.5 1.6-6.9 2.5-6.9 4.8 0 1.6 1 2 2.1.9 3-2.9 10.8-4.5 13.4-2.7l.5.3-.9.2c-.5.1-2 .3-3.4.5-8.5 1.1-10.1 4.2-6.9 12.7 1.5 3.9 1.6 4.3 1.8 7.2.4 4 1.3 6.4 2.3 6.6.7.1.8-.2.9-5.8.1-5.6.3-7.1 1-8.6 1.1-2.3 4.2-4.1 8.1-4.5l1-.1-1.7.8c-4.3 2.1-6.5 4.6-6.8 7.7l-.1 1.1.9-.9c4-4 13.9-3.9 16 .2.5.9.7 3.2.6 5.4-.2 4.5.5 9.5 1.6 11 .5.7 2.7-3.1 3.4-5.8 1-3.9.9-7.2-.3-12.7-.8-3.6-1-4.8-1.2-9.8-.3-6.5-1.2-10.5-3.3-13.8-1.7-2.7-2.7-3.1-8.3-3.4-3.8-.2-3.6-.2-3.3-.8 1.2-2.3 4.2-2.6 7.8-.8 2.3 1.2 2.8 1 2.8-1.2 0-1.4.3-2.7 1-4.1.6-1.2.8-1.5 2.8-4 4.4-5.5 4.7-11.5 1-19.2-1.1-2.3-1.1-2.4.3-1.1 1.9 1.7 3.3 4.3 4.7 8.2.4 1.2.8 2.3.8 2.3V270c0-1.9-1-4.8-2.9-8.6-.6-1.3-.7-1.7-.2-1.7.3 0 1.9 3.3 2.9 5.8l.6 1.7.4-1.5.4-1.5-.6-1.8c-.3-1-1.2-3-1.9-4.5-1.2-2.5-1.4-3-.9-3 .4 0 2.3 3.8 3.5 6.9l.3.7.1-.5c.5-2.5-.2-5.1-2.7-10-.9-1.8-1-2.1-.8-2.3.4-.3 2.3 3.2 3.4 6.1.5 1.3.6 1.2.8-.3l.2-1.2-.8-2.1c-.4-1.2-1.2-3.2-1.8-4.4-1-2.2-1.1-2.7-.6-2.7.2 0 1.7 3.2 2.8 6.1l.6 1.5v-.8c.1-1.2-1.4-5.2-3.2-8.8-.7-1.4-.8-1.8-.3-1.8.4 0 2.1 3.5 3.1 6.3l.6 1.7.2-1.1c.2-1.3-.5-3.5-2.3-7.8-1.1-2.6-1.1-2.7-.7-2.8.3-.1 1.1 1.4 2.4 5 .9 2.3 1.2 2.9 1.2 2 0-1.1 1.3-4.5 2.5-6.5 1.2-1.9.4-6-2-10-.6-1-.7-1.4-.6-1.5.7-.7 3.2 4.5 3.7 8 .1.7.2 1.3.3 1.3.9 0 .4-3.7-.9-7-.6-1.4-.5-2.1.1-1.5.6.6 1.9 5 1.9 6.3 0 .8 0 .8 2.2-1.4 2.3-2.2 5.5-4.8 5.8-4.6.1.1.2.8.2 1.6 0 1.5 0 1.5.4 1.5.3 0 .4.1.4.3 0 .1-.2.4-.4.6-.4.3-.4.5-.4 1.3 0 .5-.1 1.3-.1 1.7-.1.6-.1.7.1.8.3.1.3.5-.2 1.2-.3.4-.9 1.7-.9 2 0 0 .1.1.2.1.5 0 .5.4-.2 1-.6.5-1.4 1.9-1.4 2.4l1-.4c1.2-.6 2-.7 2.1-.3 0 .2-.1.3-.6.5-1.8.6-3 1.5-3.6 2.7l-.4.8 1.5-.7c1.8-.9 4.2-1.6 4.5-1.3.3.3 0 .7-.4.7-2.2 0-6 2.2-6.7 3.9-.5 1.2-.5 1.3.6.6 2.7-1.8 7.6-3.5 10.3-3.5.8 0 .8.6 0 .7-.3 0-1.1.2-1.9.3-3.2.4-8.3 2.8-9.8 4.5-.3.3-1 2.5-.9 2.5 0 0 .7-.4 1.5-.9 4.6-2.9 11.7-5.2 16.1-5.2 1 0 .9.6-.1.7-2.8.3-3.8.5-5.4.9-5.6 1.3-12.6 4.9-12.6 6.5 0 .6-.1.7 1.5-.4 5.1-3.4 12.5-5.6 19.8-5.8 2.9-.1 3-.1 3.1-.4 0-.2.2-1.2.4-2.2.5-2.7 1.4-5.1 1.8-4.7.2.2.6 2.9 1 6.9 1.2 11.8 3.3 16.1 8.1 16.5 2.4.2 2.6.6 1.9 5.2-.9 5.9-.7 6.4 2.5 9.9.8.9 2.2 2.5 2.9 3.5 1.7 2.2 1.7 2.2 2.7.3.9-1.8 1.8-3 3-3.8.9-.6 2.6-1.2 2.6-.9 0 .3-1.1 2.9-2 4.9-1.2 2.7-2.9 8.5-3.9 13.5-1.8 8.8-.4 14 4.8 17.9 2.7 2 2.7 2 2.6-1.6 0-5.2.4-5.7 9.1-9.3 2.1-.9 2.5-1 3.5-1 1.1 0 1.1 0 1.2-.4.3-1.2 1.5-5.9 2-7.6.6-2.1.8-2.4 2.7-4.8.9-1.1 1.3-1.8 1.7-3.3.6-2.2.7-2.1-2.1-2.1-2.5 0-3-.1-3.8-.7l-.5-.4 1.9.1c3.2.1 4.1-.1 4.1-1.1v-.7l-3.7-.1c-3.8-.1-4.5-.2-5.3-.8l-.4-.3.4.1c2.1.7 6.8 0 8.2-1.3 2.3-2.1 1-6.1-3.8-11.1-6.4-6.8-8.7-10.7-9.6-16.6-1-6.3-1.2-6.7-3.1-6-1.8.6-4.4.3-6.2-.8-.4-.3-.8-.5-.8-.6h2.2c4.5.1 6.6-1.1 7-4.1.2-1.8.2-1.8-.9-1.2-1.4.8-5.1 1.4-5.1.9 0-.2 1.2-.7 2.8-1.2 4.6-1.4 3.9-3.7-2.3-8-5.4-3.7-8.1-7.8-10.2-15.4-2.7-9.8-2.2-14 2.2-20.7 2.5-3.7 4.3-7.4 5.1-10.5.4-1.4.3-5.6-.1-6.4l-.4-.6.6-.7c2.5-2.8 2.3-5.8-.8-12.6-4.3-9.4-5-17.4-1.5-18.1 1.1-.2 1.9.3 3.6 2.6 1.1 1.5 1.1 1.1 0-.6-3.3-5-3.6-8.9-.8-11.5 2.8-2.7 6-1.6 7.2 2.5.5 1.7.7 1.7.2-.1-1.1-4.3.5-9.4 3-9.4 2.3 0 6.1 3.6 7 6.7.1.4.3.7.4.8.1.1.1.1 0-.2-1.2-3.2.6-7.1 3.3-7.1 3.4 0 8.2 9.1 9.1 17 .3 2.5 2.1 2.5 4.7-.1 2.9-3 3.4-6 1.2-8.6-1.9-2.3-1.8-3.2.5-6.9 3-4.9 2.6-6.8-3.6-17.5-4.1-7.1-8.2-12.2-12.3-15.7-3.6-3-5.3-3.6-8.1-2.8-2.3.6-3 .5-5.7-1.3-2.5-2.2-4.6-2.6-9.8-2.2m-19.5 2.3c-3.4.5-5.2 1.2-6.5 2.5l-.8.8.5.1c.7.1 8-2.9 8.7-3.6.1 0-.8.1-1.9.2m33.9 32.6c.9.2.3.6-1 .7-1.4 0-2.1.3-2.8 1.1-.7.8-1.1.6-.7-.3.7-1.2 2.8-1.9 4.5-1.5m9.5.8c0 .3-.2.4-.9.5-1.5.2-2 .6-2.2 1.5-.2.8-.8.7-.7 0 0-1.1.8-1.8 2.3-2.1 1.2-.4 1.5-.4 1.5.1m.1 3.4c-.7.3-1.9 1.5-1.9 1.9 0 .8.7.8 1.2 0 .4-.6.7-.8 2.3-1.4.2-.1.4-.3.3-.4-.1-.4-1.1-.5-1.9-.1m-8.5 1.7c-1.4.8-3.1 2.8-2.8 3.4.1.4.8.3 1-.2.3-.7 1.6-1.9 2.5-2.5.7-.4.9-.6.8-.9-.1-.4-.4-.4-1.5.2m-9.2.5c0 .2-.3.3-1.2.4-2 .2-3.8 1.3-4.5 2.8-.3.7-.5.8-.8.4-.5-.6 1.5-2.8 3.3-3.6 1.1-.4 3.2-.5 3.2 0m18.4.7c-1.1.7-1.9 2.3-1.4 2.8.4.3.7.1.9-.6.3-1 .9-1.4 2-1.5.9-.1.9-.1.9-.5 0-.7-1.5-.8-2.4-.2m-8.9 2c-1.5.8-2.7 3.2-1.5 3.2.2 0 .4-.2.6-.6a2.8 2.8 0 0 1 2.4-1.9c.7-.1.8-.1.8-.5-.1-.6-1.3-.7-2.3-.2m12.3.6c-1.9.6-4 3-3.3 3.8.4.4.7.3 1-.5.4-1 1.4-1.9 2.5-2.2 1-.3 1.2-.6.9-1-.4-.3-.5-.3-1.1-.1m-21.8 1.6c-2.3.7-4.8 4.2-3.7 5.1.4.3.8.1.9-.6a4.9 4.9 0 0 1 3.5-3.6c.8-.2.9-.3.9-.6-.1-.5-.6-.6-1.6-.3m10.5.4c-1 .6-2.4 2.8-2.2 3.4.2.6.7.3 1.2-.6.8-1.6 1.4-2.1 2.3-2 .9.1 1.3-.2.8-.7-.3-.5-1.4-.5-2.1-.1m11.8 1.8c-1.7.8-2.9 3.1-1.7 3.1.3 0 .4-.1.6-.6.1-.3.5-.8.8-1.2.6-.5.9-.7 2.2-.8.1 0 .3-.2.3-.4 0-.6-1-.7-2.2-.1m-21 .6c-2.2 1.2-4.1 4.6-2.9 5.1.3.1.7-.3.7-.7 0-1.2 1.9-3.3 3.3-3.8.7-.2.8-.3.8-.6-.1-.7-.9-.6-1.9 0m11.2 1.1c-1.5.5-3.2 2.7-3 3.8.1.7.7.8.9.1.3-1.4 1.4-2.5 2.7-3 1.4-.6.9-1.5-.6-.9m-8.9 1.4c-2.1.4-4.2 2.4-4.6 4.4-.2 1.1.7 1.2 1.1 0 .5-1.9 2-3.1 4.2-3.6 1.1-.1.5-1-.7-.8m-9.5.3c0 .2-.1.3-.3.3-.8 0-1.7.4-2.4 1-1 1-1.6.6-.7-.4.7-1 3.2-1.6 3.4-.9m29.4-.2c-1.4.3-2.7 1.9-2.4 2.8.2.4.6.2 1-.5.3-.5.6-.8 1.3-1.1 1.4-.7 1.4-1.5.1-1.2m-10.7 2.4c-1.2.5-2.5 2-2.5 3 0 .9.9.7 1.1-.2.2-1 1.3-1.8 2.5-2 .7-.1.8-.2.8-.5 0-.5-1-.6-1.9-.3m-8.9 1c-1.7.5-3.6 2.5-3.3 3.4.2.5.8.3 1.1-.4.6-1.2 2.1-2.2 3.2-2.2.1 0 .4-.1.5-.3.5-.5-.4-.9-1.5-.5m19.3.7c-.7.5-1.4 1.5-1.2 1.8.2.4.7.3 1.2-.3.2-.3.7-.7.9-.8.4-.2.5-.4.5-.6-.1-.6-.7-.6-1.4-.1M287 149c-1.3.6-1.9 1.3-1.9 2.2 0 1 .7 1 1-.1.2-.6.3-.8 1.3-1.2.8-.4 1-.6 1-.9 0-.5-.4-.5-1.4 0m18.6 0c-1.5.8-2.8 3-2.1 3.5.4.3.7.1.9-.6.3-1.1 1.2-1.9 2.7-2.4.2-.1.3-.2.3-.5-.1-.6-.8-.6-1.8 0m11.7.4c-1.5 2.6-4.6 4.2-5.3 2.8-.2-.3-.2-.2-.1.9.3 4.3-4.1 9.8-6.5 8.1l-.6-.4.1.5c0 .3.1.7.2.9.6 3.2-3.2 6.2-5.6 4.4-.6-.4-.7-.4-.7 0 0 1.9-2.6 3.8-4.9 3.6-1.2-.1-1.2 0-.8.9 1.2 3 6.3 2.6 7.1-.5.1-.5.2-.5 1.4-.6 2.8-.2 5.2-2.3 5.7-5 .2-1 .2-1 .6-.9 2.5.5 4.5-1.8 5.6-6.4l.6-2.5.7-.1c2.6-.4 4.2-3.1 3.4-6l-.2-.8-.7 1.1m-21.1.9c-1.1.5-2 1.8-1.7 2.3.2.3.6.2 1-.5.4-.6 1.3-1.2 1.8-1.2s.8-.3.7-.6c0-.3-1-.4-1.8 0m11.1.4c-1.5.8-2.7 2.7-2.6 4.3.1.7 1 .1 1-.7 0-.8 1-2.1 2.1-2.7 1.7-.9 1.1-1.7-.5-.9m-18.8 1.1c-1.3.7-2.4 2.4-2 3.3.2.5.8.3.9-.4.2-.9 1.1-1.8 2-2.2.6-.3.7-.4.7-.7-.1-.5-.6-.5-1.6 0m9.5 1.2c-.7.3-1.5 1.2-1.7 1.8-.3 1.1.6 1.3 1.1.2.3-.6.5-.8 1.1-1.1.8-.4.9-.6.6-1-.3-.3-.3-.3-1.1.1m10.5.6c-1.6.9-2.8 3.5-1.6 3.5.4 0 .4-.1.6-.7.2-.8 1-1.8 1.7-2 .6-.1.9-.5.8-.8-.1-.3-.9-.3-1.5 0m-18.4 1.2c-1.8 1.3-3 4.1-1.7 4.1.3 0 .4-.1.6-.8.3-1.1.9-2 1.8-2.5.6-.3.8-.5.7-.8 0-.6-.6-.5-1.4 0m9.8.4c-1.1.4-2.2 1.8-2.1 2.7.1.5.6.6.8.2.7-1.4.8-1.6 1.4-1.8.4-.2.8-.3 1-.4.4-.1.3-.8-.1-.9-.2 0-.7.1-1 .2m9.7 1.1c-.7.7-1.5 2.1-1.4 2.5.2.5.9.3 1.1-.4.1-.3.5-.9.9-1.3 1.2-1.2.6-2-.6-.8m-18.4 2c-1.2 1-2 3.5-1.4 4.3.4.5.9.1.8-.6-.1-1 .4-2.1 1.3-2.9 1.3-1.1.7-1.9-.7-.8m9.5-.2c-1.1.4-2.1 1.8-1.9 2.5.2.4.8.3 1-.2.3-.7 1-1.3 1.5-1.5.6-.1.8-.4.6-.8-.2-.3-.3-.3-1.2 0m1.3 2c-1.5.8-3.1 2.9-2.5 3.5.3.3.8.2.9-.3.2-.7 1.1-1.7 2.1-2.3 1-.5 1.2-.8.8-1.1-.3-.3-.4-.3-1.3.2m-42.8 1.3c0 .1-.8 1.7-2 3.6-2.2 3.7-2.2 3.6-.9 3.8 1 .1.8.3 2.8-3 1.7-2.9 2.1-3.3 2.4-2.9.1.1-.4 1.2-1.7 3.2-1 1.7-1.8 3.1-1.8 3.1.2.2 2.2.4 2.3.3.1-.4 3-4.5 3.2-4.5.6-.2.3.6-1 2.6s-1.4 2.2-1.1 2.2c1 .2 1.9.4 2 .4.1 0 .4-.4.8-1 .8-1.1.9-1.2 1.2-1.1.3.1.3.3-.4 1.2-.7 1-.7 1 .8 1.3 2.4.4 6.4 1.5 6.7 1.9.6.6-.3.6-2 .1-1-.3-2.7-.7-3.9-1-1.1-.2-2.2-.5-2.4-.5-.4-.1-1.9 1.9-1.6 2.1.1.1 1.1.3 2.3.6 2.1.5 2.6.7 2.2 1.1-.1.1-2-.2-4.9-.9-.3-.1-1.7 1.9-1.5 2.1.1.1 1.3.3 2.7.5 1.7.3 2.6.5 2.6.6.2.5-.3.5-2.7.1-3.5-.6-3.2-.6-4.1 1-.9 1.7-1.1 1.5 2.2 1.8 3.1.2 3.3.3 3.3.6 0 .4-.3.4-3.2.2-3.9-.4-3.5-.4-4.2.8-.8 1.4-.8 1.4.9 1.5 1.4.1 1.5.2 1.5.5.1.4 0 .4-.8.3-.4-.1-1.5-.2-2.4-.3-.9-.1-2.1-.2-2.7-.3l-1.1-.1-1.1 2.1c-1 1.9-1.4 2.3-1.5 1.7 0-.2.4-1.1.9-2 1-2 1.1-1.9-.6-2l-.9-.1-1.8 3.1c-1.9 3.2-2.1 3.4-2.4 3.1-.1-.2.3-1 1.6-3.2 1-1.6 1.7-3 1.7-3.1 0-.2-2.1-.3-2.2-.1-.1.1-1 1.7-2.2 3.6-1.8 3-2.1 3.4-2.5 3.4-.5 0-.7-.7-.2-.8.3-.1 4.2-6.4 4-6.5l-1.3-.2c-1.1-.1-1.3-.2-1.3-.5 0-.2.1-.3.3-.3.2 0 .9.1 1.6.1l1.3.1.7-1.3c.8-1.4.8-1.5-.6-1.7-.7-.1-.9-.2-.9-.4 0-.5.1-.5 1.4-.2 1.4.3 1.2.3 2.3-1.4l.8-1.3-.6-.1c-.3-.1-1-.2-1.4-.2-.7-.1-.8-.2-.8-.5 0-.4.9-.4 2.8 0 .5.1 2.3-2.4 2-2.7-.1-.1-3.5-.7-3.7-.7-.2 0 0-.5.2-.6.2-.1 1.6.1 3.6.5.4.1.5 0 1.1-1 .8-1.2 1-1.1-2.4-1.7-2.4-.5-2.9-.7-2.5-1.1.1-.1 1.3.1 3.1.4 2.3.5 2.9.5 3 .4.1-.1 1-1.7 2.2-3.6 2.1-3.1 2.6-3.7 2.8-3.1m34.3.2c-1.7.9-2.7 2.5-2.1 3.6.4.7.9.4.9-.5-.1-1 .3-1.5 1.7-2.2.8-.4 1-.6 1-.9-.1-.6-.4-.6-1.5 0m8.2 1.9c-.6.7-.9 1.3-.7 1.8.2.4.6.3.9-.3.2-.3.5-.7.8-1 .5-.5.5-1 0-1.1-.3-.1-.6.1-1 .6m-7 .9c-1.7.7-3.1 3.4-2.3 4.4.3.5.8.1.9-.6.2-1.5 1.1-2.6 2.4-3 .6-.2.7-.2.6-.6-.1-.4-.9-.5-1.6-.2m.6 2.9c-.6.4-1 1-.8 1.4.1.4.5.3 1.1-.2.3-.3.6-.5.8-.6.3-.2.3-.3.1-.5-.3-.4-.6-.5-1.2-.1m-41.2 2.9c-.7 1.2-.7 1.2.6 1.4l.9.1.6-1c.7-1.2.8-1.1-.2-1.3-.4-.1-.9-.2-1-.2-.2 0-.5.3-.9 1m2.9.5c-.3.5-.6 1-.6 1.1 0 .1 2 .6 2.1.5.1-.2 1.2-2 1.2-2 0-.1-1.5-.4-1.9-.4-.1-.1-.5.3-.8.8m3 .6c-.7 1.1-.7 1.3.3 1.4.4.1.9.2 1.1.2.3.1.4 0 1.5-1.6l.3-.4-1-.2c-.5-.1-1.1-.2-1.2-.3-.2 0-.6.3-1 .9m-7.8 2c-.4.7-.8 1.4-.7 1.4l1.1.2 1 .1.7-1.2c.9-1.4.9-1.5 0-1.6-.4-.1-.8-.1-1-.2-.2 0-.6.4-1.1 1.3m3 .5c-.4.6-.7 1.2-.7 1.2 0 .1.3.2.8.2.4.1.9.1 1.1.2.3.1 1.8-2.2 1.6-2.4-.1-.1-1.3-.4-1.7-.4-.4.1-.7.4-1.1 1.2m3 .5c-.9 1.4-1 1.3.5 1.4l1.2.1.6-.9c.3-.5.6-1 .7-1.1.1-.1-.2-.3-.8-.4-.5-.1-1-.2-1.2-.3-.2.1-.6.5-1 1.2m-7.7 1.8c-.8 1.3-1.3 2.2-1.3 2.3l1 .2 1 .2.9-1.5.9-1.5-.7-.1c-1.2-.3-1.4-.2-1.8.4m2.5 1.2c-1 1.7-1 1.6.3 1.8l1 .1.8-1.5c.9-1.6.9-1.6-.4-1.8l-.9-.1-.8 1.5m3.1.4c-1 1.7-1 1.6.4 1.7 1.3.2 1.2.2 2.2-1.6.8-1.3.8-1.3-.8-1.5l-1-.1-.8 1.5m-8.2 2.7l-.8 1.3.6.1c1.5.3 1.6.2 2.3-1.1.7-1.2.7-1.5 0-1.5-.1 0-.5 0-.8-.1-.5 0-.5.1-1.3 1.3m3 .4c-.8 1.4-.8 1.4.6 1.5l1.1.1.7-1.2c.4-.7.7-1.2.7-1.3 0 0-.5-.1-1.2-.2l-1.1-.1-.8 1.2m3.2.4c-.8 1.4-.8 1.3.6 1.5 1.4.2 1.5.1 2.6-2.2.1-.1-.3-.2-1.7-.4l-.7-.1-.8 1.2m33.5 6.8c-.9 2.2-2.1 4.3-3.9 7.1-3.1 4.6-3.7 6.4-3 8.2.1.2.2 0 .6-.9 1.3-3.4 3.6-7.7 5.9-11.1l1.2-1.8-.1-1.4c-.1-.8-.1-1.4-.1-1.5 0 .1-.3.7-.6 1.4m-.4 4.8c-2 3.1-4 7-5.4 10.4-.7 1.8-.7 1.7-.3 3l.3 1 .2-.5c1.1-2.9 1.6-4 2.6-6.1l2.5-4.7 1.3-2.2-.1-1.3-.1-1.3-1 1.7m.3 4.1c-3 5.2-5.4 11-5 12.3.2.9.3.8 1-1.1.7-2.1 2.4-5.4 3.9-7.9l1.3-2v-1.5c-.1-1.9 0-1.9-1.2.2m-.2 4.7c-1.9 3.2-4 8.2-4 9.5 0 .6.6 1.8.7 1.5 0-.1.4-1.1.7-2.2.7-2.2 2-5.1 3.2-6.8l.8-1.2v-2.8l-1.4 2m.8 3.2c-1.4 2.3-2.4 4.6-3.1 7.4l-.5 1.9.4.9c.2.6.4.8.5.7 0-.1.3-.8.5-1.6.6-2 1.3-3.8 2.2-5.7.8-1.7.8-1.7.7-3.2v-1.5l-.7 1.1m.3 4.6c-1.4 3-2.7 7.4-2.5 8.3.2.7.3.6.7-.7.2-.7.8-2.1 1.3-3.3.9-2 .9-2.1.9-3.5v-1.5l-.4.7m-.6 6.4c-.8 2.1-1.2 3.4-1.2 4 0 .8.5 2.8.7 2.7.4-.5 1.4-6.3 1.3-7.8-.1-.6-.1-.6-.8 1.1m-28.6 33.5c-6.7.3-14.3 2.8-18.8 6-3 2.2-1.2 2 2.8-.3 4.5-2.5 8-3.3 14.2-3 1.7.1 3.4.1 3.7.1.6 0 1.3-.7 1.6-1.8l.3-.8-.6-.1c-.7-.2-1.1-.2-3.2-.1m-185.8 4.4c-.1.1-.5.2-1.1.3-2.8.5-5.2 3.4-6.3 7.7-.3 1-.2 1.1.4.6.7-.6.8-.4.5.7-.3 1.3-.1 1.4.7.4.4-.5.7-.8.7-.7 0 0-.3.7-.6 1.5l-.6 1.4.8.4c1.5.9 3 .3 4-1.6.2-.4.9-1.7 1.6-2.9.9-1.6 1.2-2.4 1.3-3 .1-1.1.1-1-.9.9-1.1 2.3-1.2 2-.1-.4 1-2.2 1.2-3.6.7-4.6-.1-.6-.8-.9-1.1-.7m10.5 35c-3.2 1.7-4.2 5.2-4.1 12.9.1 5.9.4 7.1 1.7 7.9l.5.3.3-1 .3-1 .3.7c1.2 2.4 3.2 2.3 3.5-.1l.1-1.2.3.5c1.3 2.4 1.7 2 1.6-1.4-.1-2.6 0-3.5.9-5.1.8-1.5.8-3.1.1-5.2-.4-1.2-.4-1.1-1.1 2.1-.4 1.6-.8 3.1-1.1 3.7l-.5.9-.1-1.2c-.1-1.6.2-5 .6-6.9 1.2-4.6-.5-7.4-3.3-5.9m220.9 17.8c-.8.9-3.1 1.6-4.9 1.6-1.7 0-2.2.2-3.6 1.6-2 1.9-2.1 2.3-2.1 5.4v2.6h1.1c1.3 0 1.7-.3 2.4-1.9.4-.8.5-1 1-1.1.3-.1.9-.4 1.2-.6l.5-.4.5 1.6.5 1.6.2-.5c.1-.3.6-1 1.2-1.5 1.2-1.3 1.3-1.4 2.1-5.4.7-3.9.7-3.8-.1-3M135.3 311c-1.6.5-1.8.7-3.5 6.5-2 6.9-2.4 8.7-2.7 12.5-.2 3.1-.2 3.5.6 2.4.5-.7 1.9-2 2.1-1.8 0 0 0 .6-.1 1.3-.7 5 .3 4.9 2.5-.3.3-.8.6-1.4.6-1.3 0 .1-.3 1.9-.6 4-.8 4.5-.8 3.9.7 4.4 2.7.9 4.5.5 5.8-1.3 1.6-2.2 1.9-2.9 2.6-5.5.3-1.4 1.1-4 1.7-5.9 1.4-4.4 1.5-4.7 1.2-6.2-.1-.6-.2-1.2-.2-1.3.1-.1 0-.2-.1-.2-.2 0-.7 1.7-1.2 4.3-.5 2.2-1.2 4.5-1.7 5.3-.5.9-.6.9.4-3.2 2.2-9.8 2.3-11.2.4-12.5-1.7-1.2-6.4-1.8-8.5-1.2m75 10.1c-3.8.6-4.9 3.6-3.7 10.6.2 1.2.3 2.2.3 2.2-.3.3-1.5-4.1-1.9-6.6l-.3-1.8-.3.5c-.3.4-.3.7-.3 2.7 0 1.2 0 3.3-.1 4.6-.4 5.3.3 9.4 2.2 12.6.8 1.4.8 1.3.9-2v-3l.6 1.8c.3 1 .8 2.7 1 3.8.6 3 .9 3.3 4.4 3.3 3.5 0 3.9-1 2.7-6.8-.2-.9 1 1.3 1.5 2.8l.5 1.5.6-1.1c1-1.8 1-3.2-.1-7.4-1-4-1.1-4.3-1.6-9.1-.6-5.7-.8-6.6-1.5-7.4-1-.9-3.1-1.5-4.9-1.2"/></svg>